<svg xmlns="http://www.w3.org/2000/svg" width="1024" height="1024"><g fill="none" fill-rule="evenodd"><path stroke="#999" stroke-width="6" d="M195 892.5l749 .5"/><path stroke="#000" stroke-width="6" opacity=".15" d="M195 626.5h749m-749-266h749M195 94h749"/><path stroke="#999" stroke-width="6" d="M476.5 892v20M281 892v20m390.5-20v20m195-20v20"/><text fill="#999" font-family="PingFangSC-Medium, PingFang SC" font-size="48" font-weight="400"><tspan x="264" y="972">A</tspan></text><text fill="#999" font-family="PingFangSC-Medium, PingFang SC" font-size="48" font-weight="400"><tspan x="82.408" y="643">100</tspan></text><text fill="#999" font-family="PingFangSC-Medium, PingFang SC" font-size="48" font-weight="400"><tspan x="145.1" y="910">0</tspan></text><text fill="#999" font-family="PingFangSC-Medium, PingFang SC" font-size="48" font-weight="400"><tspan x="72.8" y="375">200</tspan></text><text fill="#999" font-family="PingFangSC-Medium, PingFang SC" font-size="48" font-weight="400"><tspan x="72.8" y="108">300</tspan></text><text fill="#999" font-family="PingFangSC-Medium, PingFang SC" font-size="48" font-weight="400"><tspan x="458" y="972">B</tspan></text><text fill="#999" font-family="PingFangSC-Medium, PingFang SC" font-size="48" font-weight="400"><tspan x="653" y="972">C</tspan></text><text fill="#999" font-family="PingFangSC-Medium, PingFang SC" font-size="48" font-weight="400"><tspan x="850" y="972">D</tspan></text><path fill="#5B8FF9" d="M242 528h85v362h-85zm194 48h85v314h-85zm193-326h85v640h-85zm194 86h85v554h-85z"/></g></svg>