<svg xmlns="http://www.w3.org/2000/svg" width="1025" height="1024"><g fill="none" fill-rule="evenodd"><path stroke="#5B8FF9" stroke-width="12" d="M187 472l179.802 188 173.792-244L747.5 454l187-206"/><path stroke="#999" stroke-width="6" opacity=".65" d="M188 360.5h749"/><path stroke="#999" stroke-width="6" d="M188 892.5l749 .5"/><path stroke="#999" stroke-width="6" opacity=".65" d="M188 626.5h749M188 94h749"/><path stroke="#999" stroke-width="6" d="M188 892v20m186.5-20v20m187-20v20m187-20v20m187-20v20"/><text fill="#999" font-family="PingFangSC-Medium, PingFang SC" font-size="48" font-weight="400" transform="translate(65.5 57)"><tspan x="68.5" y="905">2016</tspan></text><text fill="#999" font-family="PingFangSC-Medium, PingFang SC" font-size="48" font-weight="400" transform="translate(65.5 57)"><tspan x="9.5" y="586">100</tspan></text><text fill="#000" font-family="PingFangSC-Medium, PingFang SC" font-size="48" font-weight="400" opacity=".45" transform="translate(65.5 57)"><tspan x="72.5" y="853">0</tspan></text><text fill="#999" font-family="PingFangSC-Medium, PingFang SC" font-size="48" font-weight="400" transform="translate(65.5 57)"><tspan x="0" y="318">200</tspan></text><text fill="#999" font-family="PingFangSC-Medium, PingFang SC" font-size="48" font-weight="400" transform="translate(65.5 57)"><tspan x="0" y="51">300</tspan></text><text fill="#999" font-family="PingFangSC-Medium, PingFang SC" font-size="48" font-weight="400" transform="translate(65.5 57)"><tspan x="255.5" y="905">2017</tspan></text><text fill="#999" font-family="PingFangSC-Medium, PingFang SC" font-size="48" font-weight="400" transform="translate(65.5 57)"><tspan x="439.5" y="905">2018</tspan></text><text fill="#999" font-family="PingFangSC-Medium, PingFang SC" font-size="48" font-weight="400" transform="translate(65.5 57)"><tspan x="626.5" y="905">2019</tspan></text><text fill="#999" font-family="PingFangSC-Medium, PingFang SC" font-size="48" font-weight="400" transform="translate(65.5 57)"><tspan x="813.5" y="905">2020</tspan></text></g></svg>