<svg xmlns="http://www.w3.org/2000/svg" width="1024" height="1024"><g fill="none" fill-rule="evenodd"><path stroke="#999" stroke-width="6" d="M195 892.5l749 .5"/><path stroke="#999" stroke-width="6" opacity=".65" d="M195 626.5h749m-749-266h749m-749-266h749"/><path stroke="#999" stroke-width="6" d="M476.5 892v20M281 892v20m390.5-20v20m195-20v20"/><text fill="#999" font-family="PingFangSC-Medium, PingFang SC" font-size="48" font-weight="400"><tspan x="264.324" y="972">A</tspan></text><text fill="#999" font-family="PingFangSC-Medium, PingFang SC" font-size="48" font-weight="400"><tspan x="82.408" y="643">100</tspan></text><text fill="#999" font-family="PingFangSC-Medium, PingFang SC" font-size="48" font-weight="400"><tspan x="145.1" y="910">0</tspan></text><text fill="#999" font-family="PingFangSC-Medium, PingFang SC" font-size="48" font-weight="400"><tspan x="72.8" y="375">200</tspan></text><text fill="#999" font-family="PingFangSC-Medium, PingFang SC" font-size="48" font-weight="400"><tspan x="72.8" y="108">300</tspan></text><text fill="#999" font-family="PingFangSC-Medium, PingFang SC" font-size="48" font-weight="400"><tspan x="458.012" y="972">B</tspan></text><text fill="#999" font-family="PingFangSC-Medium, PingFang SC" font-size="48" font-weight="400"><tspan x="653.456" y="972">C</tspan></text><text fill="#999" font-family="PingFangSC-Medium, PingFang SC" font-size="48" font-weight="400"><tspan x="850.292" y="972">D</tspan></text><path fill="#5B8FF9" d="M242 676h85v214h-85z"/><path fill="#5AD8A6" d="M242 462h85v214h-85z"/><path fill="#5B8FF9" d="M436 705h85v185h-85z"/><path fill="#5AD8A6" d="M436 520h85v185h-85z"/><path fill="#5B8FF9" d="M629 512h85v378h-85z"/><path fill="#5AD8A6" d="M629 163h85v348h-85z"/><path fill="#5B8FF9" d="M823 563h85v327h-85z"/><path fill="#5AD8A6" d="M823 236h85v327h-85z"/></g></svg>