<svg width="173" height="168" xmlns="http://www.w3.org/2000/svg" xmlns:xlink="http://www.w3.org/1999/xlink"><defs><path id="a" d="M0 .054h95.57v61.651H0z"/><path id="c" d="M0 .042h95.57v11.923H0z"/><path id="e" d="M0 0h61.96v62.159H0z"/></defs><g fill="none" fill-rule="evenodd"><path stroke="#979797" stroke-width=".926" d="M-284-111h741v556h-741z"/><g fill-rule="nonzero"><path d="M14.057 134.374h136.967v30.906c0 1.334-2.301 2.416-5.14 2.416H19.197c-2.839 0-5.14-1.082-5.14-2.416v-30.906z" fill="#A3B5D6"/><path d="M13.706 113.547L.34 138.535c-.509.901-.437 1.961.19 2.808.626.846 1.72 1.36 2.895 1.361h157.727c1.202 0 2.316-.536 2.936-1.411.62-.876.654-1.963.09-2.866l-13.089-24.88H13.706z" fill="#E4EBF7"/><path fill="#A3B5D6" d="M123.417 93.025l27.673 20.522H13.695L41.22 93.025z"/><path fill="#4E5C93" d="M41.22 93.025v20.522H13.695zM123.417 93.025v20.507l27.673.015z"/></g><g transform="translate(35.243 45.643)"><mask id="b" fill="#fff"><use xlink:href="#a"/></mask><path d="M93.115 61.705H2.455A2.46 2.46 0 010 59.242V.054h95.57v59.188a2.46 2.46 0 01-2.455 2.463" fill="#E4EBF7" mask="url(#b)"/></g><path stroke="#A3B5D6" stroke-width="1.62" stroke-linecap="round" stroke-linejoin="round" d="M35.74 65.885h94.576M67.025 107.032V45.65M98.735 107.032V45.65M35.74 86.507h94.576"/><g transform="translate(35.243 34.559)"><mask id="d" fill="#fff"><use xlink:href="#c"/></mask><path d="M95.57 11.965H0v-9.46A2.46 2.46 0 012.455.042h90.66a2.46 2.46 0 012.455 2.463v9.46z" fill="#253368" mask="url(#d)"/></g><path d="M43.26 40.15c0 1.165-.941 2.11-2.103 2.11a2.107 2.107 0 01-2.103-2.11c0-1.166.941-2.111 2.103-2.111 1.162 0 2.104.945 2.104 2.11" fill="#A3B5D6"/><path d="M51.116 40.15c0 1.165-.941 2.11-2.103 2.11a2.107 2.107 0 01-2.104-2.11c0-1.166.942-2.111 2.104-2.111 1.162 0 2.103.945 2.103 2.11M58.972 40.15c0 1.165-.942 2.11-2.104 2.11a2.107 2.107 0 01-2.103-2.11c0-1.166.942-2.111 2.103-2.111 1.162 0 2.104.945 2.104 2.11" fill="#E4EBF7"/><g><g transform="translate(110.72)"><mask id="f" fill="#fff"><use xlink:href="#e"/></mask><path d="M30.98 0C13.87 0 0 13.915 0 31.08c0 17.164 13.87 31.079 30.98 31.079s30.98-13.915 30.98-31.08C61.96 13.915 48.09 0 30.98 0" fill="#F6BD16" mask="url(#f)"/></g><path d="M142.965 39.96h-1.106c-.917 0-1.66-.746-1.66-1.666v-21.09c0-.919.743-1.664 1.66-1.664h1.106c.917 0 1.66.745 1.66 1.665v21.09c0 .919-.743 1.664-1.66 1.664M142.965 46.784h-1.106c-.917 0-1.66-.745-1.66-1.665v-1.11c0-.92.743-1.665 1.66-1.665h1.106c.917 0 1.66.746 1.66 1.665v1.11c0 .92-.743 1.665-1.66 1.665" fill="#FFF"/></g></g></svg>