<svg preserveAspectRatio="none" id="Layer_1" data-name="Layer 1" xmlns="http://www.w3.org/2000/svg" viewBox="0 0 74.66 75.36"><defs><style>.cls-1{fill:#feb113;}.cls-2{fill:#08ade5;}.cls-3{fill:#065977;}.cls-4{fill:#00b3ea;}</style></defs><title>circle41</title><circle class="cls-1" cx="11.18" cy="30.25" r="1.27"/><circle class="cls-1" cx="16.62" cy="19.46" r="1.27"/><circle class="cls-1" cx="26.19" cy="11.92" r="1.27"/><circle class="cls-1" cx="38.07" cy="9.38" r="1.27"/><circle class="cls-1" cx="49.81" cy="12.23" r="1.27"/><circle class="cls-1" cx="59.32" cy="19.73" r="1.27"/><path class="cls-2" d="M334.24,337.54l-0.18-.77c-0.06-.25-0.12-0.56-0.23-0.92l-0.35-1.23a34.92,34.92,0,0,0-3.16-7.28c-0.4-.72-0.87-1.44-1.35-2.18s-1-1.48-1.63-2.21a36.07,36.07,0,0,0-4-4.31,35.32,35.32,0,0,0-23.5-9.08,36.75,36.75,0,0,0-5.89.46l-1.37.25-1.32.3c-0.43.09-.85,0.22-1.26,0.34s-0.82.23-1.21,0.36a35.23,35.23,0,0,0-7.23,3.28c-0.42.24-.77,0.48-1.08,0.68s-0.58.37-.79,0.52l-0.64.46-0.86-1.2,0.67-.47c0.22-.16.5-0.33,0.82-0.54s0.7-.46,1.13-0.71a36.7,36.7,0,0,1,7.53-3.41c0.4-.14.83-0.26,1.26-0.38s0.87-.25,1.32-0.35l1.37-.31,1.43-.26a38.29,38.29,0,0,1,6.13-.48,36.8,36.8,0,0,1,24.48,9.46,37.45,37.45,0,0,1,4.21,4.49c0.62,0.76,1.16,1.54,1.69,2.3s1,1.52,1.41,2.27a36.41,36.41,0,0,1,3.29,7.59l0.37,1.29c0.11,0.37.17,0.7,0.24,1l0.18,0.8Z" transform="translate(-261.9 -308.08)"/><path class="cls-3" d="M280.46,344.91v0.35c0,0.23,0,.57,0,1a18,18,0,0,0,.64,3.76l0.17,0.61,0.21,0.63c0.07,0.22.16,0.43,0.24,0.65s0.17,0.45.28,0.67a18.15,18.15,0,0,0,1.53,2.82,19.46,19.46,0,0,0,5.4,5.46,19.77,19.77,0,0,0,3.91,2,19.14,19.14,0,0,0,4.57,1.1c0.2,0,.4,0,0.61.06l0.61,0h1.88l0.63,0c0.42,0,.84-0.09,1.26-0.14a18.85,18.85,0,0,0,2.51-.55c0.42-.1.83-0.27,1.24-0.4l0.61-.24,0.31-.12,0.3-.14a19.2,19.2,0,0,0,4.55-2.84,19.33,19.33,0,0,0,3.67-4.1,19.07,19.07,0,0,0,2.38-5,20.23,20.23,0,0,0,.61-2.74,19.22,19.22,0,0,0,0-5.65,20.2,20.2,0,0,0-.61-2.74,19.05,19.05,0,0,0-2.38-5,19.32,19.32,0,0,0-3.67-4.1,19.2,19.2,0,0,0-4.55-2.84l-0.3-.14-0.31-.12-0.61-.24c-0.42-.13-0.82-0.29-1.24-0.4a18.83,18.83,0,0,0-2.51-.55c-0.42,0-.84-0.12-1.26-0.14l-0.63,0h-1.88l-0.61,0c-0.2,0-.41,0-0.61.06a19.13,19.13,0,0,0-4.57,1.1,19.73,19.73,0,0,0-3.91,2,19.45,19.45,0,0,0-5.4,5.46,18.15,18.15,0,0,0-1.53,2.82c-0.11.22-.19,0.45-0.28,0.67s-0.18.43-.24,0.65l-0.21.63-0.17.61a18,18,0,0,0-.64,3.76c0,0.44,0,.78,0,1v0.35H279.4v-0.37c0-.24,0-0.6,0-1.07a19,19,0,0,1,.68-4l0.18-.64,0.23-.66c0.07-.23.17-0.45,0.26-0.69s0.18-.48.29-0.71a19.24,19.24,0,0,1,1.61-3,20.5,20.5,0,0,1,5.7-5.76,20.82,20.82,0,0,1,4.13-2.12,20.17,20.17,0,0,1,4.82-1.16c0.21,0,.43,0,0.64-0.06l0.65,0H300l0.66,0,0.66,0c0.45,0,.89.09,1.33,0.15a19.93,19.93,0,0,1,2.65.58c0.44,0.11.87,0.28,1.31,0.42l0.64,0.25,0.32,0.13,0.32,0.15a20.26,20.26,0,0,1,4.8,3,20.35,20.35,0,0,1,3.87,4.33,20.11,20.11,0,0,1,3.16,8.22,20.29,20.29,0,0,1,0,6,21.28,21.28,0,0,1-.65,2.9,20.12,20.12,0,0,1-2.51,5.32,20.36,20.36,0,0,1-3.87,4.33,20.25,20.25,0,0,1-4.8,3l-0.32.15-0.32.13-0.64.25c-0.44.14-.87,0.31-1.31,0.42a19.94,19.94,0,0,1-2.65.58c-0.45.05-.89,0.13-1.33,0.14l-0.66,0-0.66,0h-1.31l-0.65,0c-0.21,0-.43,0-0.64-0.06a20.16,20.16,0,0,1-4.82-1.16,20.81,20.81,0,0,1-4.13-2.12,20.51,20.51,0,0,1-5.7-5.75,19.23,19.23,0,0,1-1.61-3c-0.12-.23-0.2-0.48-0.29-0.71s-0.19-.46-0.26-0.69l-0.23-.66-0.18-.64a19,19,0,0,1-.68-4c0-.46,0-0.83,0-1.07v-0.37h1.05Z" transform="translate(-261.9 -308.08)"/><path class="cls-1" d="M304.2,329.53l-0.32-.09c-0.2-.07-0.5-0.12-0.86-0.21a17.31,17.31,0,0,0-2.68-.34l-0.74,0-0.72,0c-0.46,0-.89.05-1.26,0.11l-0.5.07-0.38.07-0.33.06-0.4-2,0.37-.06,0.43-.08,0.56-.07c0.41-.07.89-0.09,1.41-0.13l0.8,0,0.83,0a19.29,19.29,0,0,1,3,.38c0.4,0.1.74,0.16,1,.24l0.36,0.1Z" transform="translate(-261.9 -308.08)"/><path class="cls-1" d="M311.27,333.86l-0.23-.25-0.65-.62a16.47,16.47,0,0,0-2.16-1.63,17,17,0,0,0-2.38-1.25l-0.47-.18-0.36-.13-0.32-.11,0.63-1.9,0.36,0.12,0.41,0.15,0.52,0.2a19.12,19.12,0,0,1,2.68,1.41,18.65,18.65,0,0,1,2.42,1.83l0.73,0.69,0.26,0.28Z" transform="translate(-261.9 -308.08)"/><path class="cls-1" d="M315.24,341.12l0-.09a2.3,2.3,0,0,0-.06-0.24l-0.11-.37a4.88,4.88,0,0,0-.15-0.48,15,15,0,0,0-1-2.47,16.75,16.75,0,0,0-1.45-2.27c-0.23-.29-0.41-0.54-0.56-0.69l-0.22-.26,1.49-1.33,0.25,0.29c0.17,0.18.37,0.45,0.63,0.78a18.77,18.77,0,0,1,1.63,2.56,17.07,17.07,0,0,1,1.18,2.79c0.07,0.19.12,0.38,0.16,0.54l0.12,0.42a2.75,2.75,0,0,1,.07.27l0,0.1Z" transform="translate(-261.9 -308.08)"/><path class="cls-1" d="M315,349.42l0.09-.32,0.05-.17,0-.2,0.11-.49a17.44,17.44,0,0,0,.33-2.68c0-.25,0-0.5,0-0.74s0-.48,0-0.72c0-.46-0.06-0.89-0.12-1.26s-0.1-.67-0.14-0.88l0-.24a0.63,0.63,0,0,0,0-.09l2-.41a0.87,0.87,0,0,1,0,.1l0,0.28c0,0.24.11,0.57,0.15,1s0.09,0.89.13,1.41c0,0.26,0,.53,0,0.8s0,0.55,0,.83a19.38,19.38,0,0,1-.37,3l-0.13.55-0.05.23-0.06.19L317,350Z" transform="translate(-261.9 -308.08)"/><path class="cls-1" d="M310.71,356.53l0.25-.23,0.62-.65a16.69,16.69,0,0,0,1.63-2.16,17.12,17.12,0,0,0,1.25-2.38c0.12-.34.26-0.62,0.32-0.83l0.11-.32,1.9,0.63-0.12.36c-0.07.23-.22,0.54-0.36,0.93a19.05,19.05,0,0,1-1.41,2.68,18.72,18.72,0,0,1-1.84,2.42l-0.69.73-0.28.26Z" transform="translate(-261.9 -308.08)"/><path class="cls-1" d="M303.44,360.5l0.09,0,0.24-.06,0.37-.11a5,5,0,0,0,.48-0.14,15.06,15.06,0,0,0,2.47-1,16.78,16.78,0,0,0,2.28-1.45c0.29-.23.54-0.41,0.69-0.56l0.26-.22,1.33,1.5-0.29.25c-0.18.17-.45,0.37-0.78,0.63A18.7,18.7,0,0,1,308,360.9a17,17,0,0,1-2.79,1.17c-0.19.07-.38,0.12-0.54,0.16l-0.42.12-0.27.07-0.1,0Z" transform="translate(-261.9 -308.08)"/><path class="cls-1" d="M295.14,360.3l0.32,0.09c0.2,0.07.51,0.12,0.86,0.21a17.36,17.36,0,0,0,2.68.33l0.74,0,0.72,0c0.46,0,.89-0.06,1.26-0.12,0.18,0,.35,0,0.5-0.07l0.38-.07,0.25,0,0.09,0,0.4,2-0.1,0-0.28,0-0.43.08c-0.16,0-.35,0-0.56.07-0.41.07-.89,0.09-1.41,0.13l-0.8,0-0.83,0a19.4,19.4,0,0,1-3-.37c-0.4-.1-0.74-0.16-1-0.24l-0.36-.1Z" transform="translate(-261.9 -308.08)"/><path class="cls-1" d="M288.06,356l0.23,0.25,0.65,0.61a16.26,16.26,0,0,0,2.16,1.63,17,17,0,0,0,2.38,1.25L294,359.9l0.19,0.08,0.17,0.05,0.32,0.11L294,362l-0.36-.12-0.19-.06-0.22-.09-0.52-.21a19,19,0,0,1-2.68-1.4,18.39,18.39,0,0,1-2.42-1.83l-0.73-.69-0.26-.28Z" transform="translate(-261.9 -308.08)"/><path class="cls-3" d="M291.17,378.66l0.38-1.5,0.46,0.11,0.57,0.13,0.36,0.08,0.42,0.08,1,0.18c0.36,0.07.77,0.11,1.2,0.17l0.68,0.08L297,378c0.5,0,1,.09,1.59.09a33.59,33.59,0,0,0,8.07-.71,33.06,33.06,0,0,0,9.8-3.8A33.23,33.23,0,0,0,329.88,331c-0.25-.59-0.56-1.16-0.85-1.73-0.14-.29-0.31-0.56-0.47-0.84l-0.48-.84a34.5,34.5,0,0,0-2.2-3.17,33.24,33.24,0,0,0-50-2.82c-0.33.35-.67,0.69-1,1L274,323.75l-0.85,1.08c-0.28.36-.53,0.73-0.78,1.08a33.07,33.07,0,0,0-5.22,12,34.69,34.69,0,0,0-.7,5.18c0,0.6,0,1.06,0,1.37v0.47h-4.5l0-1.45c0-.46.05-1,0.1-1.66s0.13-1.37.24-2.15c0-.39.12-0.8,0.19-1.23s0.15-.86.25-1.31l0.32-1.37c0.11-.47.25-0.94,0.39-1.42A37.43,37.43,0,0,1,272.25,319c0.27-.29.53-0.56,0.79-0.82l0.74-.71c0.46-.45.89-0.81,1.24-1.12s0.62-.54.82-0.69l0.3-.24,1.84,2.31,0.64-.5c0.21-.17.48-0.35,0.79-0.58l0.51-.36,0.28-.2,0.3-.2a35.17,35.17,0,0,1,7.32-3.68,35.66,35.66,0,0,1,5.29-1.45c0.48-.08,1-0.18,1.46-0.25l1.5-.19,1.54-.12c0.52,0,1,0,1.57-.05a35.21,35.21,0,0,1,6.5.52,34.59,34.59,0,0,1,12.54,4.84,35,35,0,0,1,9.25,8.52,36.1,36.1,0,0,1,2.94,4.62l0.57,1.11c0.18,0.37.34,0.73,0.5,1.08l0.23,0.52,0.21,0.52,0.39,1c0.23,0.65.44,1.26,0.62,1.83s0.32,1.1.45,1.58c0.23,1,.41,1.72.49,2.25l0.14,0.8,2.08-.34,0.06,0.37,0.14,1,0.09,0.75,0.07,0.88,0.07,1,0,1.11c0,0.77,0,1.61,0,2.5,0,0.44-.06.9-0.09,1.36l-0.06.71-0.09.72-0.09.73c0,0.25-.07.49-0.11,0.74l-0.27,1.49-0.35,1.5c-0.12.5-.27,1-0.41,1.5a37.75,37.75,0,0,1-2.2,5.68,39,39,0,0,1-2.66,4.59c-0.88,1.28-1.68,2.3-2.27,3L327,369.7l1.2,1.09-1,1.08c-0.66.68-1.63,1.61-2.87,2.65a40.08,40.08,0,0,1-4.5,3.23,39.38,39.38,0,0,1-5.67,2.86c-0.51.2-1,.41-1.52,0.58l-1.53.51-1.53.43c-0.5.14-1,.25-1.5,0.36a37.43,37.43,0,0,1-5.48.81c-0.4,0-.79.07-1.16,0.07l-1,0c-0.66,0-1.23,0-1.7,0l-1.09,0-0.39,0,0.24-3.72-1-.07c-0.3,0-.64-0.06-1-0.11l-1.15-.15-1.15-.2-0.53-.1-0.47-.11ZM323.72,373l0.63-.54,0.42-.38,0.19-.18-1.44-1.54-0.18.17-0.4.36-0.59.51Zm-2.53,2,0.67-.49,0.65-.51-1.3-1.66-0.62.48-0.64.46Zm-2.7,1.76s0.36-.2.71-0.43l0.7-.45-1.15-1.76-0.66.42c-0.33.22-.67,0.41-0.67,0.41Zm-2.84,1.52,0.23-.11,0.51-.26,0.74-.38-1-1.86-0.7.36-0.48.24-0.22.11Zm-3,1.26,0.78-.3L314,379l0.24-.1L313.39,377l-0.23.1-0.5.2-0.73.29Zm-3.07,1,0.8-.23,0.55-.17,0.25-.08-0.66-2-0.23.08-0.52.16-0.76.22Zm-3.15.73,0.26,0,0.56-.11,0.81-.19-0.48-2.05-0.77.18-0.53.1-0.24,0Zm-3.19.46,0.26,0,0.57-.07,0.82-.11-0.3-2.09-0.78.1-0.53.07-0.24,0Zm-3.21.17,0.83,0,0.57,0h0.26l-0.12-2.1h-0.24l-0.54,0-0.78,0Z" transform="translate(-261.9 -308.08)"/><path class="cls-2" d="M270.71,344.92h4v0.37c0,0.24,0,.6,0,1a26.74,26.74,0,0,0,.49,3.71,24.92,24.92,0,0,0,4.75,10.2,24.1,24.1,0,0,0,4.27,4.29,24.86,24.86,0,0,0,4.47,2.81,27,27,0,0,0,3.47,1.38l1,0.29,0.36,0.09,0.41-1.62,1,0.24,1.21,0.21c0.47,0.05,1,.14,1.59.17a23.32,23.32,0,0,0,8.48-.89,23,23,0,0,0,4.23-1.73,23.59,23.59,0,0,0,5.48-4c0.25-.24.42-0.44,0.55-0.57l0.19-.2-1.28-1.18,0.12-.12,0.32-.37c0.28-.31.66-0.79,1.1-1.36A21.76,21.76,0,0,0,319.6,353l0.27-.67c0.08-.22.15-0.45,0.23-0.68,0.17-.44.27-0.9,0.4-1.33,0.06-.22.1-0.44,0.15-0.65s0.11-.42.14-0.62l0.11-.59,0.05-.28c0-.09,0-0.19,0-0.27,0-.36.1-0.69,0.12-1l0.06-.76c0-.21,0-0.38,0-0.49v-0.17l0.28-.45c0.18-.28.37-0.65,0.58-1l0.16-.29,0.14-.28,0.24-.51,0.17-.37,0.06-.14-0.06-.46-0.07-.56c0-.22-0.08-0.47-0.13-0.75a23.15,23.15,0,0,0-1.31-4.51l-0.14-.34-0.16-.34-0.32-.7c-0.24-.46-0.47-1-0.76-1.43s-0.59-1-.9-1.46-0.68-1-1.07-1.44a22.94,22.94,0,0,0-5.63-5.1,22.58,22.58,0,0,0-3.41-1.82,24.27,24.27,0,0,0-3.55-1.2,23.77,23.77,0,0,0-3.46-.59l-0.82-.06c-0.27,0-.54,0-0.8,0-0.53,0-1,0-1.52,0-0.25,0-.48,0-0.71,0l-0.68.05-1.25.16-1.09.19-0.92.21c-0.55.13-1,.27-1.27,0.35l-0.44.15,0.49,1.47-0.23.08c-0.15.05-.37,0.11-0.64,0.23a21.92,21.92,0,0,0-5.13,2.79,22.12,22.12,0,0,0-2.95,2.61,21.76,21.76,0,0,0-4.07,6.1l-0.15.34-0.13.33-0.24.6c-0.14.38-.25,0.72-0.34,1l-0.25.88-1.49-.4-0.07.25-0.16.68-0.11.45-0.09.51-0.1.55c0,0.19,0,.38-0.08.57l-0.07.57c0,0.19,0,.37,0,0.55,0,0.36-.07.69-0.06,1,0,0.58,0,1,0,1H267.6v-0.45c0-.3,0-0.75,0-1.33a33.47,33.47,0,0,1,.67-5,31.86,31.86,0,0,1,5-11.54c0.25-.34.49-0.7,0.76-1l0.82-1,0.88-1c0.3-.34.63-0.67,0.95-1a32,32,0,0,1,48.18,2.72,33.26,33.26,0,0,1,2.12,3.06l0.47,0.81c0.15,0.27.31,0.53,0.45,0.81,0.28,0.55.58,1.1,0.82,1.67a32,32,0,0,1,2.29,7,32.55,32.55,0,0,1-.35,14.23,32.09,32.09,0,0,1-24.37,23.47,32.42,32.42,0,0,1-7.78.68c-0.54,0-1.05-.05-1.54-0.09l-0.7-.06-0.65-.08c-0.42-.06-0.81-0.09-1.16-0.16l-1-.17-0.4-.07-0.35-.08-0.55-.13-0.44-.1,0.46-1.84,0.7,0.16c0.45,0.12,1.12.23,2,.38l1.43,0.19c0.52,0.06,1.08.09,1.69,0.14a31.6,31.6,0,0,0,4.05-.07,29.86,29.86,0,0,0,9.81-2.51,30.21,30.21,0,0,0,17.27-21.55,31.25,31.25,0,0,0,.57-4.77,30.45,30.45,0,0,0-.56-7.15c-0.08-.43-0.18-0.8-0.25-1.13l-0.11-.46-0.1-.38-0.19-.69-2.39.71,0.18,0.63,0.1,0.34,0.1,0.42c0.07,0.3.16,0.65,0.23,1a28,28,0,0,1,.51,6.56,28.7,28.7,0,0,1-.52,4.37,28,28,0,0,1-1.4,4.71,27.75,27.75,0,0,1-14.44,15.06,27.35,27.35,0,0,1-9,2.3,29.12,29.12,0,0,1-3.72.06c-0.55,0-1.07-.07-1.55-0.13l-1.31-.17c-0.78-.14-1.4-0.24-1.82-0.35l-0.64-.15,0.43-1.72-0.38-.1-0.84-.24c-0.3-.08-0.6-0.2-0.83-0.27l-0.37-.13-0.44,1.24-0.09,0-0.27-.08-1-.34a27.71,27.71,0,0,1-12.41-9,29.06,29.06,0,0,1-1.84-2.64c-0.27-.46-0.54-0.92-0.79-1.38l-0.36-.7c-0.12-.23-0.24-0.46-0.34-0.69a28.69,28.69,0,0,1-1.86-5.28,30,30,0,0,1-.68-3.94Zm1.21-12.73-0.19.43c-0.06.14-.14,0.3-0.22,0.49l-0.26.65a31.08,31.08,0,0,0-1.16,3.58l-0.23,1c0,0.16-.08.33-0.11,0.49l-0.09.48-0.16.91c0,0.29-.07.57-0.11,0.82l-0.09.69c0,0.21,0,.39,0,0.54l0,0.47,5.82,0.41,0-.38c0-.12,0-0.27,0-0.43l0.07-.56c0-.21.05-0.43,0.09-0.66l0.13-.73,0.07-.39c0-.13.06-0.26,0.09-0.39l0.18-.8a25.27,25.27,0,0,1,.94-2.89l0.21-.53c0.06-.16.13-0.29,0.18-0.4l0.16-.35ZM280,321.53l-0.36.31c-0.22.2-.55,0.47-0.92,0.83l-0.6.57c-0.21.2-.42,0.43-0.64,0.66-0.45.45-.89,1-1.34,1.5a30.84,30.84,0,0,0-2.22,3l-0.38.59c-0.11.18-.2,0.34-0.27,0.46l-0.23.41,5.07,2.87,0.19-.33c0.06-.1.13-0.23,0.22-0.38l0.31-.48a25.1,25.1,0,0,1,1.79-2.45c0.36-.42.72-0.84,1.08-1.21,0.18-.19.35-0.37,0.52-0.54l0.48-.46c0.29-.29.56-0.51,0.74-0.67l0.29-.25ZM292,315.38l-0.45.13c-0.29.09-.7,0.19-1.19,0.35l-0.78.26c-0.28.09-.57,0.2-0.87,0.32l-0.92.36-0.93.42c-0.31.14-.62,0.29-0.92,0.45l-0.88.46-0.8.46-0.37.21-0.34.21c-0.43.28-.79,0.5-1,0.67l-0.38.27,3.36,4.77,0.31-.22c0.2-.14.49-0.32,0.84-0.54l0.27-.17,0.3-.17,0.65-.37,0.71-.37c0.24-.13.49-0.25,0.74-0.36l0.75-.34,0.74-.29c0.24-.1.47-0.19,0.7-0.26l0.63-.21c0.39-.14.73-0.21,1-0.28l0.36-.1Zm13.39-.44-0.46-.08-0.53-.09-0.69-.09-0.82-.1-0.92-.08c-0.64-.06-1.32-0.07-2-0.09-0.34,0-.68,0-1,0s-0.67,0-1,0l-0.92.07-0.43,0-0.4,0-1.23.16-0.46.08,1,5.75,0.37-.07,1-.13,0.32,0,0.35,0,0.75-.06c0.26,0,.53,0,0.8,0s0.55,0,.83,0c0.55,0,1.11,0,1.62.07l0.74,0.06,0.66,0.09,0.56,0.07,0.43,0.08,0.37,0.07Zm12.3,5.34-0.38-.27c-0.24-.17-0.59-0.43-1-0.7l-0.7-.45-0.8-.46c-0.55-.33-1.17-0.63-1.77-0.94a30.8,30.8,0,0,0-3.48-1.43c-0.49-.17-0.89-0.3-1.18-0.38l-0.45-.13-1.57,5.62,0.37,0.1c0.23,0.06.56,0.17,1,.3a25,25,0,0,1,2.81,1.15c0.49,0.26,1,.49,1.43.76l0.65,0.37,0.56,0.36c0.35,0.22.63,0.42,0.83,0.56l0.31,0.22Zm8.83,10.09-0.23-.41c-0.15-.26-0.35-0.63-0.63-1.07l-0.45-.7-0.25-.38-0.27-.39-0.57-.8-0.63-.8c-0.21-.27-0.43-0.53-0.65-0.78s-0.43-.51-0.65-0.74l-0.64-.67-0.3-.31-0.29-.28c-0.37-.35-0.67-0.65-0.9-0.85l-0.35-.31-3.83,4.4,0.29,0.25c0.19,0.16.43,0.4,0.73,0.69l0.23,0.22,0.24,0.25,0.52,0.54c0.18,0.19.35,0.4,0.53,0.6s0.36,0.41.53,0.63l0.51,0.65,0.46,0.65,0.22,0.31,0.2,0.31,0.36,0.56c0.22,0.35.38,0.66,0.51,0.86l0.19,0.33Z" transform="translate(-261.9 -308.08)"/><path class="cls-1" d="M291.12,372.2l0.17,0,0.49,0.14,0.78,0.22,1.07,0.25a28.34,28.34,0,0,0,6.79.62c0.71,0,1.44-.08,2.2-0.13l1.15-.15c0.39,0,.78-0.13,1.18-0.2a28.65,28.65,0,0,0,22.39-21,29.89,29.89,0,0,0,.77-4.5,29.05,29.05,0,0,0-.19-6.82c-0.06-.41-0.13-0.77-0.19-1.09l-0.08-.44c0-.13-0.06-0.25-0.08-0.36l-0.15-.66,0.63,0.6s0.06,0.23.14,0.68l0.15,0.82c0.06,0.32.1,0.69,0.15,1.11,0,0.21.06,0.43,0.08,0.66l0.06,0.72c0,0.25,0,.51.05,0.79l0,0.85c0,0.58,0,1.21,0,1.86,0,0.33,0,.66-0.07,1s0,0.69-.1,1.05a29.1,29.1,0,0,1-19.17,24,28.13,28.13,0,0,1-5,1.28,31.24,31.24,0,0,1-4.62.38,29.69,29.69,0,0,1-6.89-.82c-0.41-.09-0.77-0.2-1.08-0.28l-0.8-.23-0.65-.22Z" transform="translate(-261.9 -308.08)"/><path class="cls-3" d="M274.27,362l-0.05.41c0,0.24-.07.57-0.1,0.91-0.08.67-.1,1.35-0.1,1.35s0.67,0.16,1.33.29,1.33,0.22,1.33.22l0.26,0.31,0.6,0.65c0.22,0.23.44,0.48,0.61,0.64l0.29,0.28,1.46-1.46-0.28-.24c-0.18-.15-0.42-0.38-0.71-0.66l-0.47-.45-0.5-.52c-0.17-.18-0.36-0.37-0.53-0.56l-0.53-.61a28.67,28.67,0,0,1-1.81-2.35c-0.24-.33-0.41-0.62-0.54-0.82l-0.2-.31-1.37.73,0.2,0.35c0.12,0.21.27,0.5,0.44,0.77Z" transform="translate(-261.9 -308.08)"/><path class="cls-3" d="M281.82,369.22s0.13,0.64.28,1.29c0.07,0.33.16,0.64,0.23,0.89l0.12,0.4,0.42-.05c0.25,0,.58-0.07.92-0.13,0.67-.11,1.31-0.24,1.31-0.24l0.35,0.19,0.77,0.41c0.28,0.15.57,0.29,0.79,0.39l0.36,0.17,0.88-1.86-0.34-.13c-0.21-.08-0.52-0.2-0.88-0.37s-0.79-.34-1.23-0.58-0.92-.46-1.37-0.73l-0.69-.4-0.65-.41c-0.43-.26-0.8-0.54-1.13-0.77l-0.45-.32-0.33-.26-0.29-.23-1,1.14,0.3,0.26,0.3,0.27,0.36,0.29L281.5,369l0.23,0.17Z" transform="translate(-261.9 -308.08)"/><path class="cls-3" d="M269.5,352.62l-0.19.37-0.4.83c-0.14.31-.29,0.62-0.39,0.86l-0.16.39s0.59,0.38,1.16.74c0.29,0.18.59,0.34,0.82,0.47l0.37,0.2s0.23,0.62.5,1.21c0.13,0.3.26,0.6,0.37,0.83l0.18,0.37,1.86-.89-0.19-.33c-0.12-.21-0.27-0.51-0.46-0.88-0.09-.18-0.2-0.38-0.3-0.59l-0.3-.67c-0.22-.46-0.42-1-0.62-1.49l-0.15-.38-0.13-.39-0.25-.75c-0.16-.49-0.28-1-0.39-1.36s-0.18-.74-0.24-1l-0.08-.37L269,350l0.07,0.4c0,0.24.09,0.57,0.16,0.89Z" transform="translate(-261.9 -308.08)"/><path class="cls-2" d="M266.44,346.43s0,0.16,0,.45l0.1,1.28c0,0.28.07,0.58,0.11,0.91s0.08,0.69.15,1.07l0.22,1.21c0.08,0.43.19,0.87,0.3,1.34a33.3,33.3,0,0,0,2.13,6.14,34.46,34.46,0,0,0,1.72,3.24c0.33,0.53.67,1.06,1,1.58l0.55,0.77,0.28,0.39,0.29,0.37a33.22,33.22,0,0,0,10.55,9,35,35,0,0,0,4.19,1.9c0.52,0.19.94,0.32,1.22,0.42l0.43,0.15-0.46,1.48L288.8,378c-0.29-.1-0.73-0.24-1.28-0.44a36.48,36.48,0,0,1-4.39-2,34.76,34.76,0,0,1-11-9.39l-0.31-.39-0.29-.4-0.58-.81c-0.37-.55-0.72-1.1-1.07-1.66a35.91,35.91,0,0,1-1.8-3.39,34.84,34.84,0,0,1-2.23-6.43c-0.11-.49-0.23-1-0.31-1.4l-0.23-1.27c-0.07-.4-0.11-0.78-0.15-1.12s-0.09-.67-0.11-1l-0.1-1.34c0-.31,0-0.48,0-0.48Z" transform="translate(-261.9 -308.08)"/><path class="cls-2" d="M267.44,355.86l0.28,0.81,0.36,0.91,0.22,0.56,0.27,0.61a34.12,34.12,0,0,0,7.83,11c0.33,0.32.65,0.6,0.94,0.85l0.74,0.63,0.67,0.53-2,2.6-0.73-.58-0.81-.69c-0.31-.27-0.67-0.57-1-0.93a37.42,37.42,0,0,1-8.59-12.07l-0.3-.67L265,358.8l-0.39-1-0.31-.88Z" transform="translate(-261.9 -308.08)"/><polygon class="cls-4" points="42 32.03 41.55 31.58 47.07 26.06 48.32 27.32 44.72 29.32 42 32.03"/><polygon class="cls-4" points="41.55 40.65 42 40.19 47.52 45.71 46.26 46.97 44.26 43.36 41.55 40.65"/><polygon class="cls-4" points="32.94 40.19 33.39 40.65 27.87 46.16 26.61 44.9 30.23 42.9 32.94 40.19"/><polygon class="cls-4" points="33.39 31.58 32.94 32.03 27.42 26.52 28.68 25.26 30.68 28.87 33.39 31.58"/><path class="cls-4" d="M313.08,344h-12.6a1.12,1.12,0,0,0-.93-0.93V331.19H299.2v11.89a1.12,1.12,0,0,0-.93.93h-12.6v0.35h12.6a1.12,1.12,0,0,0,.93.93v11.89h0.35V345.29a1.12,1.12,0,0,0,.93-0.93h12.6V344Z" transform="translate(-261.9 -308.08)"/></svg>