<svg preserveAspectRatio="none" xmlns="http://www.w3.org/2000/svg" viewBox="0 0 188.4 178.63"><defs><style>.cls-2{mix-blend-mode:overlay}.cls-3{fill:#0ff}</style></defs><g style="isolation:isolate"><g id="Layer_1" data-name="Layer 1"><g id="_编组_" data-name="&lt;编组&gt;"><g id="_编组_2" data-name="&lt;编组&gt;"><g id="_编组_3" data-name="&lt;编组&gt;" class="cls-2"><g id="_编组_4" data-name="&lt;编组&gt;"><g id="_编组_5" data-name="&lt;编组&gt;"><path class="cls-3" d="M212.34 460.72a55.63 55.63 0 01-15.37-2.24l.43-1.48a54.07 54.07 0 0014.94 2.18v1.5zm1.89 0v-1.54a54.25 54.25 0 0014.86-2.52v-.22l.53 1.66a55.81 55.81 0 01-15.32 2.61zm-19.14-2.8a55.59 55.59 0 01-13.95-6.92l.88-1.26a53.85 53.85 0 0013.52 6.73zm36.31-.43l-.52-1.49a53.54 53.54 0 0013.34-7v-.1.1l.87 1.2-.09.09a55.45 55.45 0 01-13.67 7.21zm15.32-8.42l-.95-1.21A54.52 54.52 0 00256.33 437l1.24.91A55.89 55.89 0 01246.75 449zM258.66 436.3l-1.27-.87a54.19 54.19 0 006.65-13.56l.07-.19v.22l1.38.48a55.51 55.51 0 01-6.84 14zm7.43-15.83l-1.48-.42a54.17 54.17 0 002.09-15h1.5a55.73 55.73 0 01-2.15 15.38zm.62-16a54 54 0 00-2.28-14.93l.64-.19.81-.25a55.65 55.65 0 012.34 15.35zm-2.84-16.76a54.33 54.33 0 00-6.81-13.47l1.26-.88a55.44 55.44 0 017 13.87zm-7.92-15a54.33 54.33 0 00-10.65-10.72l.93-1.22a55.68 55.68 0 0111 11z" transform="translate(-125.25 -328.6)" id="_编组_6" data-name="&lt;编组&gt;"/></g></g><g id="_编组_7" data-name="&lt;编组&gt;"><g id="_编组_8" data-name="&lt;编组&gt;"><path class="cls-3" d="M212.62 456.69a51.17 51.17 0 1151.17-51.17 51.23 51.23 0 01-51.17 51.17zm0-102a50.79 50.79 0 1050.79 50.79 50.84 50.84 0 00-50.79-50.75z" transform="translate(-125.25 -328.6)" id="_编组_9" data-name="&lt;编组&gt;"/></g></g><g id="_编组_10" data-name="&lt;编组&gt;"><g id="_编组_11" data-name="&lt;编组&gt;"><path class="cls-3" d="M185.6 443.67l.48.34.08.05m-2.68-2l.11.08.44.35M268 437l-14.7-8.36.05-.09.28-.51 14.78 8.13-.43.78zm.86-1.55l-14.94-7.94.31-.58 15 7.72-.42.78zm.81-1.58l-15.11-7.5c.09-.19.19-.38.28-.58l15.25 7.3-.38.8zm.77-1.61l-15.32-7.07.27-.6 15.46 6.87c-.14.3-.25.56-.38.82zm.73-1.62l-15.55-6.66c.07-.17.15-.34.21-.5l.06-.14 15.6 6.42c-.1.26-.21.51-.34.82zm.68-1.64l-15.73-6.22.23-.62 15.93 6h-.18c-.1.28-.21.54-.31.81zm.63-1.67l-15.86-5.76c.08-.21.15-.41.21-.61l16 5.55-.3.84zm.52-1.73l-16-5.31c.07-.2.13-.41.2-.61l16.09 5.08-.28.85zm.54-1.7l-16.15-4.9c.06-.21.12-.42.18-.62h.05l16.26 4.62c-.08.25-.15.52-.25.85zm.49-1.71l-16.29-4.4c.06-.21.12-.42.17-.63l16.34 4.2c-.07.29-.15.58-.22.86zm.44-1.72l-16.44-4 .15-.63 16.45 3.74c-.06.28-.13.58-.2.86zm.39-1.73l-16.51-3.48c0-.21.09-.42.13-.63l16.56 3.25-.16.79zm.34-1.74l-16.6-3c0-.22.08-.42.11-.64l16.64 2.78c0 .29-.1.58-.15.88zm.3-1.75l-16.68-2.55.09-.65 16.75 2.33c0 .29-.08.58-.13.88zm.25-1.76L259 411.41c0-.24.05-.45.08-.65l16.77 1.85c0 .3-.07.6-.11.88zm.19-1.76l-16.83-1.62c0-.21 0-.43.05-.65l16.81 1.39c0 .29-.05.58-.08.88zm.15-1.76l-16.83-1.16v-.62l-.12-.06h.16l16.85.87c0 .29 0 .59-.05.88zm.1-1.77l-16.89-.69v-.65l16.86.46v.88zm0-1.77l-16.87-.23v-.65h16.87v.88zm-16.9-1.13v-.69l16.91-.32v.88zm0-1.31v-.2-.52l16.86-.78v.88zm-.06-1.3v-.65l16.83-1.24c0 .3 0 .59.06.88zm-.09-1.3c0-.18 0-.38-.06-.62v-.07L276 399c0 .2 0 .41.06.61v.31zm-.13-1.3c0-.22 0-.43-.08-.65l16.73-2.18c0 .32.08.61.11.88zm-.17-1.29c0-.21-.05-.42-.09-.64l16.7-2.65c0 .24.07.48.11.72v.2zm-.2-1.28c0-.19-.07-.39-.12-.64l16.56-3.1.08.08c0 .26.09.54.15.82zm-.24-1.28l-.13-.64 16.5-3.57c.06.26.12.54.17.82v.08zm-.22-1.24v-.17l-.11-.5 16.39-4 .21.86zm-.31-1.26c-.05-.21-.12-.42-.17-.62l16.3-4.6.23.85zm-.35-1.25l-.18-.62 16.17-5 .25.85zm-.38-1.25c-.06-.19-.12-.39-.19-.58v-.07l16-5.39.28.85zm-.41-1.24l-.21-.58v-.06l15.83-5.83.3.83zm-.45-1.22c-.08-.21-.16-.41-.24-.61l15.66-6.27.32.83zm-.48-1.2l-.25-.6 15.45-6.81c.11.27.23.54.34.81zm-.52-1.19l-.05-.12-.23-.5 15.29-7.14.37.81zm-.55-1.18l-.25-.5-.06-.12 15.12-7.59.39.8zm-.57-1.21l-.3-.58 14.86-8c.14.26.28.52.41.78zm-.61-1.14l-.31-.56 14.64-8.39.43.78zm-.65-1.13l-.12-.19c-.08-.13-.16-.26-.24-.4l14.4-8.79.45.76zm-.68-1.11l-.32-.5V380l14.1-9.15h.16l-.11.05c.16.25.32.48.45.72zm-.71-1.09l-.37-.54 13.94-9.62v.06c.17.24.33.48.49.72zm-.74-1.07l-.38-.52 13.62-10 .51.72zm-.77-1.01l-.39-.51 13.33-10.34.54.71z" transform="translate(-125.25 -328.6)" id="_编组_12" data-name="&lt;编组&gt;"/></g></g><g id="_编组_13" data-name="&lt;编组&gt;"><g id="_编组_14" data-name="&lt;编组&gt;"><g id="_编组_15" data-name="&lt;编组&gt;"><path class="cls-3" d="M188.17 369.37c.81-.55 1.67-1.08 2.53-1.59l-1.16-2q-1.35.78-2.67 1.68l1.3 1.91z" transform="translate(-125.25 -328.6)" id="_编组_16" data-name="&lt;编组&gt;"/></g></g><g id="_编组_17" data-name="&lt;编组&gt;"><g id="_编组_18" data-name="&lt;编组&gt;"><path class="cls-3" d="M192 367c.88-.47 1.78-.92 2.68-1.32l-1-2.1c-.94.42-1.89.89-2.82 1.39l1.09 2z" transform="translate(-125.25 -328.6)" id="_编组_19" data-name="&lt;编组&gt;"/></g></g><g id="_编组_20" data-name="&lt;编组&gt;"><g id="_编组_21" data-name="&lt;编组&gt;"><path class="cls-3" d="M184.56 372.09h.09c.75-.63 1.53-1.24 2.33-1.82l-1.36-1.86c-.85.61-1.68 1.28-2.48 1.94l1.46 1.74z" transform="translate(-125.25 -328.6)" id="_编组_22" data-name="&lt;编组&gt;"/></g></g><g id="_编组_23" data-name="&lt;编组&gt;"><g id="_编组_24" data-name="&lt;编组&gt;"><path class="cls-3" d="M169 403.37c0-1 .13-2 .25-3l-2.29-.27c-.12 1-.21 2.08-.26 3.14l2.3.16z" transform="translate(-125.25 -328.6)" id="_编组_25" data-name="&lt;编组&gt;"/></g></g><g id="_编组_26" data-name="&lt;编组&gt;"><g id="_编组_27" data-name="&lt;编组&gt;"><path class="cls-3" d="M204.66 362.6c1-.18 2-.32 3-.44l-.26-2.29c-1 .12-2.08.27-3.12.46l.42 2.23z" transform="translate(-125.25 -328.6)" id="_编组_28" data-name="&lt;编组&gt;"/></g></g><g id="_编组_29" data-name="&lt;编组&gt;"><g id="_编组_30" data-name="&lt;编组&gt;"><path class="cls-3" d="M200.29 363.65c1-.28 1.93-.53 2.91-.75l-.49-2.25c-1 .22-2 .48-3 .77l-.07-.21v.24l.65 2.21z" transform="translate(-125.25 -328.6)" id="_编组_31" data-name="&lt;编组&gt;"/></g></g><g id="_编组_32" data-name="&lt;编组&gt;"><g id="_编组_33" data-name="&lt;编组&gt;"><path class="cls-3" d="M181.3 375.13c.68-.71 1.41-1.4 2.16-2.07l-1.55-1.71c-.77.69-1.53 1.43-2.27 2.18l1.65 1.61z" transform="translate(-125.25 -328.6)" id="_编组_34" data-name="&lt;编组&gt;"/></g></g><g id="_编组_35" data-name="&lt;编组&gt;"><g id="_编组_36" data-name="&lt;编组&gt;"><path class="cls-3" d="M173.54 386.09c.44-.89.92-1.78 1.42-2.63l-2-1.17c-.51.88-1 1.8-1.48 2.74v.08l2.09 1v-.05z" transform="translate(-125.25 -328.6)" id="_编组_37" data-name="&lt;编组&gt;"/></g></g><g id="_编组_38" data-name="&lt;编组&gt;"><g id="_编组_39" data-name="&lt;编组&gt;"><path class="cls-3" d="M169.57 389.44l2.18.82c.36-1 .75-1.88 1.15-2.77l-2.1-1c-.42.93-.82 1.9-1.19 2.88h-.13l.11.1z" transform="translate(-125.25 -328.6)" id="_编组_40" data-name="&lt;编组&gt;"/></g></g><g id="_编组_41" data-name="&lt;编组&gt;"><g id="_编组_42" data-name="&lt;编组&gt;"><path class="cls-3" d="M170.37 394.54c.25-1 .54-1.94.85-2.87l-2.18-.73c-.33 1-.63 2-.9 3l2.2.58z" transform="translate(-125.25 -328.6)" id="_编组_43" data-name="&lt;编组&gt;"/></g></g><g id="_编组_44" data-name="&lt;编组&gt;"><g id="_编组_45" data-name="&lt;编组&gt;"><path class="cls-3" d="M169.48 398.95c.15-1 .34-2 .55-2.94l-2.25-.51c-.23 1-.42 2.06-.58 3.1l2.24.34z" transform="translate(-125.25 -328.6)" id="_编组_46" data-name="&lt;编组&gt;"/></g></g><g id="_编组_47" data-name="&lt;编组&gt;"><g id="_编组_48" data-name="&lt;编组&gt;"><path class="cls-3" d="M175.74 382.18c.54-.85 1.11-1.68 1.69-2.47l-1.85-1.37c-.62.83-1.21 1.7-1.76 2.57v.08l2 1.24z" transform="translate(-125.25 -328.6)" id="_编组_49" data-name="&lt;编组&gt;"/></g></g><g id="_编组_50" data-name="&lt;编组&gt;"><g id="_编组_51" data-name="&lt;编组&gt;"><path class="cls-3" d="M178.34 378.51c.61-.77 1.26-1.54 1.94-2.29l-1.71-1.55c-.68.75-1.36 1.55-2 2.38v.09l1.79 1.44z" transform="translate(-125.25 -328.6)" id="_编组_52" data-name="&lt;编组&gt;"/></g></g><g id="_编组_53" data-name="&lt;编组&gt;"><g id="_编组_54" data-name="&lt;编组&gt;"><path class="cls-3" d="M196.06 365.13c.92-.38 1.86-.72 2.81-1l-.72-2.18c-1 .33-2 .69-2.92 1.08l-.06-.11v.08l.87 2.11z" transform="translate(-125.25 -328.6)" id="_编组_55" data-name="&lt;编组&gt;"/></g></g><g id="_编组_56" data-name="&lt;编组&gt;"><g id="_编组_57" data-name="&lt;编组&gt;"><path class="cls-3" d="M250.52 383.88c.48.85 1 1.74 1.4 2.65l2.08-1c-.45-.95-1-1.88-1.47-2.79l-2 1.13z" transform="translate(-125.25 -328.6)" id="_编组_58" data-name="&lt;编组&gt;"/></g></g><g id="_编组_59" data-name="&lt;编组&gt;"><g id="_编组_60" data-name="&lt;编组&gt;"><path class="cls-3" d="M248.1 380.11c.59.83 1.15 1.67 1.66 2.49l2-1.21c-.55-.88-1.14-1.77-1.75-2.62l-1.88 1.35z" transform="translate(-125.25 -328.6)" id="_编组_61" data-name="&lt;编组&gt;"/></g></g><g id="_编组_62" data-name="&lt;编组&gt;"><g id="_编组_63" data-name="&lt;编组&gt;"><path class="cls-3" d="M252.54 387.85c.4.91.78 1.84 1.11 2.77l2.17-.79c-.35-1-.75-2-1.17-2.93l-2.08.92z" transform="translate(-125.25 -328.6)" id="_编组_64" data-name="&lt;编组&gt;"/></g></g><g id="_编组_65" data-name="&lt;编组&gt;"><g id="_编组_66" data-name="&lt;编组&gt;"><path class="cls-3" d="M256 400.81c.1 1 .18 2 .22 3l2.31-.08c0-1.06-.12-2.12-.23-3.14z" transform="translate(-125.25 -328.6)" id="_编组_67" data-name="&lt;编组&gt;"/></g></g><g id="_编组_68" data-name="&lt;编组&gt;"><g id="_编组_69" data-name="&lt;编组&gt;"><path class="cls-3" d="M245.3 376.6c.65.73 1.28 1.51 1.91 2.31l1.82-1.41c-.65-.84-1.32-1.65-2-2.43l-1.72 1.53z" transform="translate(-125.25 -328.6)" id="_编组_70" data-name="&lt;编组&gt;"/></g></g><g id="_编组_71" data-name="&lt;编组&gt;"><g id="_编组_72" data-name="&lt;编组&gt;"><path class="cls-3" d="M255.31 396.44c.21 1 .38 2 .51 2.92l2.29-.32c-.15-1-.33-2.09-.55-3.11l-2.57.54h.34z" transform="translate(-125.25 -328.6)" id="_编组_73" data-name="&lt;编组&gt;"/></g></g><g id="_编组_74" data-name="&lt;编组&gt;"><g id="_编组_75" data-name="&lt;编组&gt;"><path class="cls-3" d="M254.14 392.07c.31 1 .58 1.92.82 2.88l2.24-.55c-.25-1-.55-2-.87-3l-2.19.71z" transform="translate(-125.25 -328.6)" id="_编组_76" data-name="&lt;编组&gt;"/></g></g><g id="_编组_77" data-name="&lt;编组&gt;"><g id="_编组_78" data-name="&lt;编组&gt;"><path class="cls-3" d="M229.62 365.32l.9-2.12c-1-.42-2-.79-2.94-1.13l-.75 2.18c.91.31 1.86.67 2.79 1.07z" transform="translate(-125.25 -328.6)" id="_编组_79" data-name="&lt;编组&gt;"/></g></g><g id="_编组_80" data-name="&lt;编组&gt;"><g id="_编组_81" data-name="&lt;编组&gt;"><path class="cls-3" d="M222.53 363c1 .22 1.93.48 2.87.77l.68-2.21c-1-.31-2-.58-3-.81l-.61 2.25v.16z" transform="translate(-125.25 -328.6)" id="_编组_82" data-name="&lt;编组&gt;"/></g></g><g id="_编组_83" data-name="&lt;编组&gt;"><g id="_编组_84" data-name="&lt;编组&gt;"><path class="cls-3" d="M242.13 373.37c.74.68 1.46 1.38 2.14 2.1l1.68-1.58c-.72-.76-1.48-1.51-2.24-2.21l-1.54 1.67z" transform="translate(-125.25 -328.6)" id="_编组_85" data-name="&lt;编组&gt;"/></g></g><g id="_编组_86" data-name="&lt;编组&gt;"><g id="_编组_87" data-name="&lt;编组&gt;"><path class="cls-3" d="M238.69 370.47c.8.59 1.59 1.22 2.34 1.87l1.51-1.75c-.79-.68-1.62-1.35-2.44-2v-.1z" transform="translate(-125.25 -328.6)" id="_编组_88" data-name="&lt;编组&gt;"/></g></g><g id="_编组_89" data-name="&lt;编组&gt;"><g id="_编组_90" data-name="&lt;编组&gt;"><path class="cls-3" d="M237.48 369.65l1.32-1.9c-.85-.59-1.74-1.17-2.64-1.71l-1.18 2c.84.5 1.69 1.04 2.5 1.61z" transform="translate(-125.25 -328.6)" id="_编组_91" data-name="&lt;编组&gt;"/></g></g><g id="_编组_92" data-name="&lt;编组&gt;"><g id="_编组_93" data-name="&lt;编组&gt;"><path class="cls-3" d="M233.67 367.28l1.11-2c-.92-.51-1.86-1-2.81-1.43l-1 2.05v.18l.05-.12c.89.39 1.77.84 2.65 1.32z" transform="translate(-125.25 -328.6)" id="_编组_94" data-name="&lt;编组&gt;"/></g></g><g id="_编组_95" data-name="&lt;编组&gt;"><g id="_编组_96" data-name="&lt;编组&gt;"><path class="cls-3" d="M171.81 421c-.35-.91-.66-1.85-1-2.8l-2.21.67c.3 1 .65 2 1 3l2.12-.8z" transform="translate(-125.25 -328.6)" id="_编组_97" data-name="&lt;编组&gt;"/></g></g><g id="_编组_98" data-name="&lt;编组&gt;"><g id="_编组_99" data-name="&lt;编组&gt;"><path class="cls-3" d="M254.21 418.78c-.3.94-.64 1.88-1 2.82l2.11.84c.38-1 .74-2 1.06-3l-2.19-.7z" transform="translate(-125.25 -328.6)" id="_编组_100" data-name="&lt;编组&gt;"/></g></g><g id="_编组_101" data-name="&lt;编组&gt;"><g id="_编组_102" data-name="&lt;编组&gt;"><path class="cls-3" d="M256 410c-.1 1-.24 2-.4 3l2.27.39c.18-1 .32-2.09.43-3.13L256 410z" transform="translate(-125.25 -328.6)" id="_编组_103" data-name="&lt;编组&gt;"/></g></g><g id="_编组_104" data-name="&lt;编组&gt;"><g id="_编组_105" data-name="&lt;编组&gt;"><path class="cls-3" d="M256.26 405.29v.23c0 1 0 2-.1 3l2.31.15c.07-1 .11-2.08.11-3.14v-.24h-2.31z" transform="translate(-125.25 -328.6)" id="_编组_106" data-name="&lt;编组&gt;"/></g></g><g id="_编组_107" data-name="&lt;编组&gt;"><g id="_编组_108" data-name="&lt;编组&gt;"><path class="cls-3" d="M255.34 414.44c-.21 1-.45 2-.71 2.91l2.21.62c.28-1 .53-2 .75-3.06l-2.26-.47z" transform="translate(-125.25 -328.6)" id="_编组_109" data-name="&lt;编组&gt;"/></g></g><g id="_编组_110" data-name="&lt;编组&gt;"><g id="_编组_111" data-name="&lt;编组&gt;"><path class="cls-3" d="M175.83 429q-.82-1.28-1.52-2.57l-2 1.11c.5.91 1 1.83 1.61 2.71l1.94-1.25z" transform="translate(-125.25 -328.6)" id="_编组_112" data-name="&lt;编组&gt;"/></g></g><g id="_编组_113" data-name="&lt;编组&gt;"><g id="_编组_114" data-name="&lt;编组&gt;"><path class="cls-3" d="M173.61 425.09c-.44-.88-.86-1.8-1.25-2.71l-2.13.89c.41 1 .85 1.92 1.31 2.86l2-1z" transform="translate(-125.25 -328.6)" id="_编组_115" data-name="&lt;编组&gt;"/></g></g><g id="_编组_116" data-name="&lt;编组&gt;"><g id="_编组_117" data-name="&lt;编组&gt;"><path class="cls-3" d="M170.43 416.69c-.25-1-.48-1.93-.66-2.89l-2.26.43c.19 1 .43 2.05.7 3.07l2.44-.65h-.27z" transform="translate(-125.25 -328.6)" id="_编组_118" data-name="&lt;编组&gt;"/></g></g><g id="_编组_119" data-name="&lt;编组&gt;"><g id="_编组_120" data-name="&lt;编组&gt;"><path class="cls-3" d="M169.52 412.37c-.15-1-.28-2-.36-3l-2.3.2c.09 1 .22 2.1.38 3.13z" transform="translate(-125.25 -328.6)" id="_编组_121" data-name="&lt;编组&gt;"/></g></g><g id="_编组_122" data-name="&lt;编组&gt;"><g id="_编组_123" data-name="&lt;编组&gt;"><path class="cls-3" d="M169.05 407.9c0-.78-.06-1.56-.06-2.34v-.65h-2.31v.68c0 .82 0 1.65.07 2.47z" transform="translate(-125.25 -328.6)" id="_编组_124" data-name="&lt;编组&gt;"/></g></g></g><g id="_编组_125" data-name="&lt;编组&gt;"><g id="_编组_126" data-name="&lt;编组&gt;"><path class="cls-3" d="M212.62 482.43a77.55 77.55 0 01-13.9-1.25l.07-.38a76.91 76.91 0 0013.83 1.2 76.12 76.12 0 0029-5.7l.15.36a76.61 76.61 0 01-29.15 5.77zm-15.39-1.54a76.57 76.57 0 01-38.27-20.28l.27-.27a76.27 76.27 0 0038.08 20.19h.21-.22zm46-4.77l-.15-.36a76.52 76.52 0 0033.11-27.6l.32.21a77.23 77.23 0 01-33.28 27.73zm-85.34-16.59a76.66 76.66 0 01-20.5-38.16l.38-.08a76.32 76.32 0 0020.39 38zm119.44-12.43l-.32-.21a76.65 76.65 0 006.84-69.36l.35-.15a77.06 77.06 0 01-6.88 69.71zM137 419.87a77.54 77.54 0 01-1.33-14.33 76.44 76.44 0 015.57-28.79l.36.14a76 76 0 00-5.54 28.65 77.44 77.44 0 001.32 14.25zm146.27-43.74a76.52 76.52 0 00-27.11-33.52l.22-.32a77.3 77.3 0 0127.25 33.68zm-141.1-.65l-.35-.15a77.2 77.2 0 0127.55-33.44l.22.32a76.58 76.58 0 00-27.43 33.26zm112.72-33.74A76.2 76.2 0 00213.73 329v-.39a76.66 76.66 0 0141.38 12.8zm-84-.39l-.2-.31a76.61 76.61 0 0141.49-12.41v.37a76.17 76.17 0 00-41.29 12.35z" transform="translate(-125.25 -328.6)" id="_编组_127" data-name="&lt;编组&gt;"/></g></g><g id="_编组_128" data-name="&lt;编组&gt;"><g id="_编组_129" data-name="&lt;编组&gt;"><path class="cls-3" d="M213.31 470v-.32a63.92 63.92 0 0034.56-10.55l.18.27a64.18 64.18 0 01-34.71 10.6zM187 464.8v-.07a64.65 64.65 0 01-27.93-23.18l.27-.18a64.17 64.17 0 0027.8 23.08l-.11.26zm79.83-24.43l-.28-.17a64.34 64.34 0 006.3-56.65l.31-.11a64.61 64.61 0 01-6.33 56.93zm-117.72-23.61a64.93 64.93 0 01-1-11.21 64.16 64.16 0 015-24.88l.3.13a64.44 64.44 0 00-4 35.9zM258.8 361a64 64 0 00-31.39-17.89l.08-.32a64.42 64.42 0 0117.2 6.79A65.09 65.09 0 01259 360.74zm-90.24-2.1l-.22-.23a64.23 64.23 0 0132.34-16.48l.06.32a64 64 0 00-32.19 16.41z" transform="translate(-125.25 -328.6)" id="_编组_130" data-name="&lt;编组&gt;"/></g></g><g id="_编组_131" data-name="&lt;编组&gt;"><g id="_编组_132" data-name="&lt;编组&gt;"><path class="cls-3" d="M212.62 476.42a71.56 71.56 0 01-12.25-1.05l.06-.35a71.25 71.25 0 0012.19 1 70.12 70.12 0 0027.3-5.47l.14.33a70.47 70.47 0 01-27.44 5.54zm27.43-5.5l-.14-.33a70.54 70.54 0 0011.48-6.13l.2.3a70.94 70.94 0 01-11.54 6.16zm-67-6.55a71.34 71.34 0 01-10.13-8.27l.25-.25a71 71 0 0010.08 8.23zm-10.13-8.27a70.67 70.67 0 01-19.47-34.86l.35-.08a70.32 70.32 0 0019.37 34.69zm109.35-12.27l-.3-.19a70.67 70.67 0 005.2-66.58 70.64 70.64 0 00-6.33-11.37l.29-.2a71 71 0 016.36 11.42 71 71 0 01-5.2 66.92zm-128.9-52l-.35-.07a70.59 70.59 0 013.7-12.55l.33.13a70.23 70.23 0 00-3.66 12.54zm3.68-12.48l-.33-.13a70.92 70.92 0 0124.64-31.43l.21.29a70.57 70.57 0 00-24.5 31.31zm102.61-33.92A70.39 70.39 0 00212.62 335h-1.26v-.35h1.27a70.74 70.74 0 0137.24 10.56zm-51.25-9.08l-.07-.35a71.29 71.29 0 0113-1.42v.42a70.93 70.93 0 00-12.91 1.4z" transform="translate(-125.25 -328.6)" id="_编组_133" data-name="&lt;编组&gt;"/></g></g><g id="_编组_134" data-name="&lt;编组&gt;"><g id="_编组_135" data-name="&lt;编组&gt;"><path class="cls-3" d="M257.78 405.21v.3a45 45 0 01-21.12 38.24l-.26.16 24.92 39.53.26-.16a91.47 91.47 0 0042.93-77.77v-.3h-46.73zm3.73 77.4l-24.27-38.5a45.59 45.59 0 0021.15-38.29h45.51a90.87 90.87 0 01-42.38 76.79z" transform="translate(-125.25 -328.6)" id="_编组_136" data-name="&lt;编组&gt;"/></g></g><g id="_编组_137" data-name="&lt;编组&gt;"><g id="_编组_138" data-name="&lt;编组&gt;"><g id="_编组_139" data-name="&lt;编组&gt;"><path class="cls-3" d="M131.7 358.92q.56-1 1.14-1.9l.39-.63" transform="translate(-125.25 -328.6)" id="_编组_140" data-name="&lt;编组&gt;"/></g></g><g id="_编组_141" data-name="&lt;编组&gt;"><g id="_编组_142" data-name="&lt;编组&gt;"><path class="cls-3" d="M305.42 393.71l.09.74 7.63-.95-.1-.79-2.4.31 2.4-.31q-.16-1.19-.34-2.37l-7.6 1.17q.17 1.1.32 2.2z" transform="translate(-125.25 -328.6)" id="_编组_143" data-name="&lt;编组&gt;"/></g></g><g id="_编组_144" data-name="&lt;编组&gt;"><g id="_编组_145" data-name="&lt;编组&gt;"><path class="cls-3" d="M305.89 398.12l.06.74 7.66-.58-.06-.79-3.92.32 3.91-.33q-.1-1.2-.23-2.38l-7.64.81q.12 1.09.22 2.21z" transform="translate(-125.25 -328.6)" id="_编组_146" data-name="&lt;编组&gt;"/></g></g><g id="_编组_147" data-name="&lt;编组&gt;"><g id="_编组_148" data-name="&lt;编组&gt;"><path class="cls-3" d="M145.73 471.42l-2.19 2.14 2.19-2.15-.51-.53-5.54 5.33.56.57q.84.86 1.69 1.69l5.37-5.5q-.79-.76-1.57-1.55z" transform="translate(-125.25 -328.6)" id="_编组_149" data-name="&lt;编组&gt;"/></g></g><g id="_编组_150" data-name="&lt;编组&gt;"><g id="_编组_151" data-name="&lt;编组&gt;"><path class="cls-3" d="M263.63 484.44l2.08 3.2-2.09-3.2-.61.39 4.13 6.48.68-.44q1-.65 2-1.33l-4.35-6.34q-.92.64-1.84 1.24z" transform="translate(-125.25 -328.6)" id="_编组_152" data-name="&lt;编组&gt;"/></g></g><g id="_编组_153" data-name="&lt;编组&gt;"><g id="_编组_154" data-name="&lt;编组&gt;"><path class="cls-3" d="M280.59 470.3l-.51.53 5.54 5.33.55-.58q.83-.87 1.63-1.76l-5.71-5.15q-.74.83-1.5 1.63z" transform="translate(-125.25 -328.6)" id="_编组_155" data-name="&lt;编组&gt;"/></g></g><g id="_编组_156" data-name="&lt;编组&gt;"><g id="_编组_157" data-name="&lt;编组&gt;"><path class="cls-3" d="M267.28 481.94l2.25 3.12-2.25-3.12-.6.43 4.44 6.27.65-.46q1-.7 1.92-1.42l-4.64-6.13q-.88.66-1.77 1.31z" transform="translate(-125.25 -328.6)" id="_编组_158" data-name="&lt;编组&gt;"/></g></g><g id="_编组_159" data-name="&lt;编组&gt;"><g id="_编组_160" data-name="&lt;编组&gt;"><path class="cls-3" d="M258 487.86q-1 .53-1.94 1l2.31 4.4-2.31-4.4-.65.34 3.52 6.83.71-.37q1.06-.56 2.1-1.13z" transform="translate(-125.25 -328.6)" id="_编组_161" data-name="&lt;编组&gt;"/></g></g><g id="_编组_162" data-name="&lt;编组&gt;"><g id="_编组_163" data-name="&lt;编组&gt;"><path class="cls-3" d="M252.05 490.86l-.67.31 3.19 7 .72-.33-1.37-2.94 1.37 2.94q1.09-.51 2.16-1l-3.45-6.93q-.95.49-1.95.95z" transform="translate(-125.25 -328.6)" id="_编组_164" data-name="&lt;编组&gt;"/></g></g><g id="_编组_165" data-name="&lt;编组&gt;"><g id="_编组_166" data-name="&lt;编组&gt;"><path class="cls-3" d="M270.81 479.27l-.58.46 4.74 6.05.62-.49q.94-.75 1.86-1.51l-4.92-5.9q-.86.7-1.72 1.39z" transform="translate(-125.25 -328.6)" id="_编组_167" data-name="&lt;编组&gt;"/></g></g><g id="_编组_168" data-name="&lt;编组&gt;"><g id="_编组_169" data-name="&lt;编组&gt;"><path class="cls-3" d="M274.21 476.43l-.57.49 5 5.82.59-.51-1.83-2.1 1.83 2.1q.9-.79 1.78-1.6l-5.16-5.63q-.85.7-1.64 1.43z" transform="translate(-125.25 -328.6)" id="_编组_170" data-name="&lt;编组&gt;"/></g></g><g id="_编组_171" data-name="&lt;编组&gt;"><g id="_编组_172" data-name="&lt;编组&gt;"><path class="cls-3" d="M259.87 486.76l-.64.37 3.84 6.66.68-.4-1.94-3.32 1.94 3.32q1-.6 2-1.23l-4-6.54z" transform="translate(-125.25 -328.6)" id="_编组_173" data-name="&lt;编组&gt;"/></g></g><g id="_编组_174" data-name="&lt;编组&gt;"><g id="_编组_175" data-name="&lt;编组&gt;"><path class="cls-3" d="M226.71 498.49l.58 3.83-.58-3.83-.73.11 1.08 7.61.79-.12 2.36-.39-1.32-7.57z" transform="translate(-125.25 -328.6)" id="_编组_176" data-name="&lt;编组&gt;"/></g></g><g id="_编组_177" data-name="&lt;编组&gt;"><g id="_编组_178" data-name="&lt;编组&gt;"><path class="cls-3" d="M231.07 497.73l.72 3.58-.72-3.58-.72.14 1.44 7.55.79-.15q1.18-.24 2.34-.5l-1.68-7.5z" transform="translate(-125.25 -328.6)" id="_编组_179" data-name="&lt;编组&gt;"/></g></g><g id="_编组_180" data-name="&lt;编组&gt;"><g id="_编组_181" data-name="&lt;编组&gt;"><path class="cls-3" d="M248 492.63l-.68.27 2.83 7.15.75-.3-1.68-4.12 1.69 4.12q1.11-.45 2.2-.93l-3.08-7z" transform="translate(-125.25 -328.6)" id="_编组_182" data-name="&lt;编组&gt;"/></g></g><g id="_编组_183" data-name="&lt;编组&gt;"><g id="_编组_184" data-name="&lt;编组&gt;"><path class="cls-3" d="M235.39 496.76l1 4.1-1-4.1-.71.17 1.8 7.47.78-.19 2.31-.61-2-7.41z" transform="translate(-125.25 -328.6)" id="_编组_185" data-name="&lt;编组&gt;"/></g></g><g id="_编组_186" data-name="&lt;编组&gt;"><g id="_编组_187" data-name="&lt;编组&gt;"><path class="cls-3" d="M239.67 495.58l-.71.21 2.16 7.38.76-.23-1.16-3.86 1.17 3.86 2.28-.72-2.39-7.31z" transform="translate(-125.25 -328.6)" id="_编组_188" data-name="&lt;编组&gt;"/></g></g><g id="_编组_189" data-name="&lt;编组&gt;"><g id="_编组_190" data-name="&lt;编组&gt;"><path class="cls-3" d="M303.62 427.9l-.18.72 7.46 1.85.19-.77-4.08-1 4.08 1q.28-1.16.53-2.34l-7.51-1.62q-.23 1.09-.49 2.16z" transform="translate(-125.25 -328.6)" id="_编组_191" data-name="&lt;编组&gt;"/></g></g><g id="_编组_192" data-name="&lt;编组&gt;"><g id="_编组_193" data-name="&lt;编组&gt;"><path class="cls-3" d="M302.49 432.18l-.21.71 7.36 2.21.23-.76-3.68-1.08 3.68 1.07q.33-1.15.64-2.31l-7.43-2q-.28 1.1-.59 2.16z" transform="translate(-125.25 -328.6)" id="_编组_194" data-name="&lt;编组&gt;"/></g></g><g id="_编组_195" data-name="&lt;编组&gt;"><g id="_编组_196" data-name="&lt;编组&gt;"><path class="cls-3" d="M305.8 414.81l-.07.73 7.65.79.08-.8-3.83-.36 3.83.36q.11-1.19.2-2.39l-7.66-.54-.2 2.21z" transform="translate(-125.25 -328.6)" id="_编组_197" data-name="&lt;编组&gt;"/></g></g><g id="_编组_198" data-name="&lt;编组&gt;"><g id="_编组_199" data-name="&lt;编组&gt;"><path class="cls-3" d="M222.32 499.05l.39 3.82-.39-3.82-.73.07.72 7.65.8-.08 2.38-.27-1-7.63z" transform="translate(-125.25 -328.6)" id="_编组_200" data-name="&lt;编组&gt;"/></g></g><g id="_编组_201" data-name="&lt;编组&gt;"><g id="_编组_202" data-name="&lt;编组&gt;"><path class="cls-3" d="M297.86 444.67l-.31.67 7 3.24.33-.73-3.5-1.59 3.5 1.59q.5-1.09 1-2.2l-7.07-3q-.49 1.01-.95 2.02z" transform="translate(-125.25 -328.6)" id="_编组_203" data-name="&lt;编组&gt;"/></g></g><g id="_编组_204" data-name="&lt;编组&gt;"><g id="_编组_205" data-name="&lt;编组&gt;"><path class="cls-3" d="M286.37 463.59l4.11 3.22-4.12-3.22-.46.58 6 4.78.49-.63q.74-.94 1.46-1.91l-6.17-4.59q-.63.89-1.31 1.77z" transform="translate(-125.25 -328.6)" id="_编组_206" data-name="&lt;编组&gt;"/></g></g><g id="_编组_207" data-name="&lt;编组&gt;"><g id="_编组_208" data-name="&lt;编组&gt;"><path class="cls-3" d="M299.6 440.58l-.28.69 7.12 2.9.3-.74-3.57-1.43 3.57 1.42q.44-1.11.86-2.24l-7.21-2.68q-.39 1.05-.79 2.08z" transform="translate(-125.25 -328.6)" id="_编组_209" data-name="&lt;编组&gt;"/></g></g><g id="_编组_210" data-name="&lt;编组&gt;"><g id="_编组_211" data-name="&lt;编组&gt;"><path class="cls-3" d="M291.5 456.36l.56.36-.56-.36-.4.62 6.44 4.2.43-.67q.65-1 1.27-2l-6.57-4q-.58.91-1.17 1.85z" transform="translate(-125.25 -328.6)" id="_编组_212" data-name="&lt;编组&gt;"/></g></g><g id="_编组_213" data-name="&lt;编组&gt;"><g id="_编组_214" data-name="&lt;编组&gt;"><path class="cls-3" d="M293.8 452.56l-.38.65 6.64 3.87.39-.68-2.81-1.62 2.81 1.62q.6-1 1.17-2.09l-6.75-3.68q-.51.97-1.07 1.93z" transform="translate(-125.25 -328.6)" id="_编组_215" data-name="&lt;编组&gt;"/></g></g><g id="_编组_216" data-name="&lt;编组&gt;"><g id="_编组_217" data-name="&lt;编组&gt;"><path class="cls-3" d="M217.9 499.4h-.73l.36 7.68h.8l2.39-.16-.61-7.66z" transform="translate(-125.25 -328.6)" id="_编组_218" data-name="&lt;编组&gt;"/></g></g><g id="_编组_219" data-name="&lt;编组&gt;"><g id="_编组_220" data-name="&lt;编组&gt;"><path class="cls-3" d="M148.9 474.51l-2.12 2.28 2.12-2.28-.53-.5-5.29 5.58.59.55q.87.81 1.77 1.61l5.1-5.75q-.83-.74-1.64-1.49z" transform="translate(-125.25 -328.6)" id="_编组_221" data-name="&lt;编组&gt;"/></g></g><g id="_编组_222" data-name="&lt;编组&gt;"><g id="_编组_223" data-name="&lt;编组&gt;"><path class="cls-3" d="M29.84 151.17l-4.73 6.06.63.49 4.68-6.1-.58-.45z" id="_编组_224" data-name="&lt;编组&gt;"/></g></g><g id="_编组_225" data-name="&lt;编组&gt;"><g id="_编组_226" data-name="&lt;编组&gt;"><path class="cls-3" d="M139.84 464.81l-.46-.58-6 4.79.49.62 2.5-2-2.5 2q.75.93 1.53 1.84l5.86-5q-.72-.81-1.42-1.67z" transform="translate(-125.25 -328.6)" id="_编组_227" data-name="&lt;编组&gt;"/></g></g><g id="_编组_228" data-name="&lt;编组&gt;"><g id="_编组_229" data-name="&lt;编组&gt;"><path class="cls-3" d="M155.67 480.23l-4.68 6.1q1 .73 1.92 1.44l4.54-6.2q-.9-.66-1.78-1.34z" transform="translate(-125.25 -328.6)" id="_编组_230" data-name="&lt;编组&gt;"/></g></g><g id="_编组_231" data-name="&lt;编组&gt;"><g id="_编组_232" data-name="&lt;编组&gt;"><path class="cls-3" d="M162.95 485.29l-.63-.4-4.12 6.49.67.42 2.39-3.81-2.39 3.81q1 .64 2 1.25l3.93-6.61q-.91-.56-1.85-1.15z" transform="translate(-125.25 -328.6)" id="_编组_233" data-name="&lt;编组&gt;"/></g></g><g id="_编组_234" data-name="&lt;编组&gt;"><g id="_编组_235" data-name="&lt;编组&gt;"><path class="cls-3" d="M134.61 457.68l-.41-.62-6.43 4.22.43.65 2.88-1.91-2.88 1.91q.66 1 1.35 2l6.3-4.4q-.63-.93-1.24-1.85z" transform="translate(-125.25 -328.6)" id="_编组_236" data-name="&lt;编组&gt;"/></g></g><g id="_编组_237" data-name="&lt;编组&gt;"><g id="_编组_238" data-name="&lt;编组&gt;"><path class="cls-3" d="M132.25 453.94l-2.67 1.6 2.67-1.6-.37-.63-6.63 3.89.41.69q.61 1 1.25 2l6.5-4.1q-.59-.9-1.16-1.85z" transform="translate(-125.25 -328.6)" id="_编组_239" data-name="&lt;编组&gt;"/></g></g><g id="_编组_240" data-name="&lt;编组&gt;"><g id="_编组_241" data-name="&lt;编组&gt;"><path class="cls-3" d="M170.68 489.65l-.66-.33-3.5 6.84.71.36 1.61-3.2-1.61 3.2q1.07.54 2.16 1.05l3.28-6.95z" transform="translate(-125.25 -328.6)" id="_编组_242" data-name="&lt;编组&gt;"/></g></g><g id="_编组_243" data-name="&lt;编组&gt;"><g id="_编组_244" data-name="&lt;编组&gt;"><path class="cls-3" d="M204.33 502.65l.29-3.44-.74-.07-.7 7.66.79.07q1.19.1 2.39.17l.47-7.67-2.21-.16z" transform="translate(-125.25 -328.6)" id="_编组_245" data-name="&lt;编组&gt;"/></g></g><g id="_编组_246" data-name="&lt;编组&gt;"><g id="_编组_247" data-name="&lt;编组&gt;"><path class="cls-3" d="M213.47 499.54h-.73v7.69H215.93l-.25-7.68z" transform="translate(-125.25 -328.6)" id="_编组_248" data-name="&lt;编组&gt;"/></g></g><g id="_编组_249" data-name="&lt;编组&gt;"><g id="_编组_250" data-name="&lt;编组&gt;"><path class="cls-3" d="M209 499.48h-.74l-.26 7.65h.79l.14-3.79-.14 3.79 2.39.06.11-7.69-2.22-.06z" transform="translate(-125.25 -328.6)" id="_编组_251" data-name="&lt;编组&gt;"/></g></g><g id="_编组_252" data-name="&lt;编组&gt;"><g id="_编组_253" data-name="&lt;编组&gt;"><path class="cls-3" d="M178.8 493.25l-.68-.27-2.85 7.14.75.3 1.39-3.57-1.41 3.57 2.25.84 2.61-7.23z" transform="translate(-125.25 -328.6)" id="_编组_254" data-name="&lt;编组&gt;"/></g></g><g id="_编组_255" data-name="&lt;编组&gt;"><g id="_编组_256" data-name="&lt;编组&gt;"><path class="cls-3" d="M174.69 491.54l-.86 1.93.86-1.93-.67-.3-3.18 7 .73.33q1.1.49 2.21 1l2.95-7.1q-1.02-.47-2.04-.93z" transform="translate(-125.25 -328.6)" id="_编组_257" data-name="&lt;编组&gt;"/></g></g><g id="_编组_258" data-name="&lt;编组&gt;"><g id="_编组_259" data-name="&lt;编组&gt;"><path class="cls-3" d="M199.48 498.63l-1.06 7.61.79.11.51-3.81-.5 3.82 2.38.29.83-7.64-2.2-.26z" transform="translate(-125.25 -328.6)" id="_编组_260" data-name="&lt;编组&gt;"/></g></g><g id="_编组_261" data-name="&lt;编组&gt;"><g id="_编组_262" data-name="&lt;编组&gt;"><path class="cls-3" d="M187.21 496.06l-1.1 3.93 1.1-3.93-.7-.2-2.14 7.38.77.22q1.15.32 2.31.62l1.91-7.45z" transform="translate(-125.25 -328.6)" id="_编组_263" data-name="&lt;编组&gt;"/></g></g><g id="_编组_264" data-name="&lt;编组&gt;"><g id="_编组_265" data-name="&lt;编组&gt;"><path class="cls-3" d="M190.78 497l-1.78 7.46.77.18.86-3.73-.86 3.73 2.34.51 1.55-7.53-2.16-.47z" transform="translate(-125.25 -328.6)" id="_编组_266" data-name="&lt;编组&gt;"/></g></g></g><g id="_编组_267" data-name="&lt;编组&gt;"><g id="_编组_268" data-name="&lt;编组&gt;"><path class="cls-3" d="M129.63 143.96l.13 5.73-5.02-2.75 4.89-2.98z" id="_编组_269" data-name="&lt;编组&gt;"/></g></g><g id="_编组_270" data-name="&lt;编组&gt;"><g id="_编组_271" data-name="&lt;编组&gt;"><circle class="cls-3" cx="120.02" cy="32.74" r="2.78" id="_编组_272" data-name="&lt;编组&gt;"/></g></g><g id="_编组_273" data-name="&lt;编组&gt;"><g id="_编组_274" data-name="&lt;编组&gt;"><circle class="cls-3" cx="56.47" cy="121.99" r="2.78" id="_编组_275" data-name="&lt;编组&gt;"/></g></g><g id="_编组_276" data-name="&lt;编组&gt;"><g id="_编组_277" data-name="&lt;编组&gt;"><circle class="cls-3" cx="43.69" cy="13.81" r="1.07" id="_编组_278" data-name="&lt;编组&gt;"/></g></g><g id="_编组_279" data-name="&lt;编组&gt;"><g id="_编组_280" data-name="&lt;编组&gt;"><circle class="cls-3" cx="102.36" cy="14.12" r="1.07" id="_编组_281" data-name="&lt;编组&gt;"/></g></g><g id="_编组_282" data-name="&lt;编组&gt;"><g id="_编组_283" data-name="&lt;编组&gt;"><circle class="cls-3" cx="124.56" cy="16.62" r="1.07" id="_编组_284" data-name="&lt;编组&gt;"/></g></g><g id="_编组_285" data-name="&lt;编组&gt;"><g id="_编组_286" data-name="&lt;编组&gt;"><circle class="cls-3" cx="133.85" cy="32.08" r="1.07" id="_编组_287" data-name="&lt;编组&gt;"/></g></g><g id="_编组_288" data-name="&lt;编组&gt;"><g id="_编组_289" data-name="&lt;编组&gt;"><circle class="cls-3" cx="145.82" cy="37.01" r="1.07" id="_编组_290" data-name="&lt;编组&gt;"/></g></g><g id="_编组_291" data-name="&lt;编组&gt;"><g id="_编组_292" data-name="&lt;编组&gt;"><circle class="cls-3" cx="158.1" cy="47.15" r="1.07" id="_编组_293" data-name="&lt;编组&gt;"/></g></g><g id="_编组_294" data-name="&lt;编组&gt;"><g id="_编组_295" data-name="&lt;编组&gt;"><circle class="cls-3" cx="43.25" cy="29.96" r="1.07" id="_编组_296" data-name="&lt;编组&gt;"/></g></g><g id="_编组_297" data-name="&lt;编组&gt;"><g id="_编组_298" data-name="&lt;编组&gt;"><circle class="cls-3" cx="18.04" cy="63.14" r="1.07" id="_编组_299" data-name="&lt;编组&gt;"/></g></g></g><g id="_编组_300" data-name="&lt;编组&gt;" class="cls-2"><g id="_编组_301" data-name="&lt;编组&gt;"><g id="_编组_302" data-name="&lt;编组&gt;"><path class="cls-3" d="M212.34 460.72a55.63 55.63 0 01-15.37-2.24l.43-1.48a54.07 54.07 0 0014.94 2.18v1.5zm1.89 0v-1.54a54.25 54.25 0 0014.86-2.52v-.22l.53 1.66a55.81 55.81 0 01-15.32 2.61zm-19.14-2.8a55.59 55.59 0 01-13.95-6.92l.88-1.26a53.85 53.85 0 0013.52 6.73zm36.31-.43l-.52-1.49a53.54 53.54 0 0013.34-7v-.1.1l.87 1.2-.09.09a55.45 55.45 0 01-13.67 7.21zm15.32-8.42l-.95-1.21A54.52 54.52 0 00256.33 437l1.24.91A55.89 55.89 0 01246.75 449zM258.66 436.3l-1.27-.87a54.19 54.19 0 006.65-13.56l.07-.19v.22l1.38.48a55.51 55.51 0 01-6.84 14zm7.43-15.83l-1.48-.42a54.17 54.17 0 002.09-15h1.5a55.73 55.73 0 01-2.15 15.38zm.62-16a54 54 0 00-2.28-14.93l.64-.19.81-.25a55.65 55.65 0 012.34 15.35zm-2.84-16.76a54.33 54.33 0 00-6.81-13.47l1.26-.88a55.44 55.44 0 017 13.87zm-7.92-15a54.33 54.33 0 00-10.65-10.72l.93-1.22a55.68 55.68 0 0111 11z" transform="translate(-125.25 -328.6)" id="_编组_303" data-name="&lt;编组&gt;"/></g></g><g id="_编组_304" data-name="&lt;编组&gt;"><g id="_编组_305" data-name="&lt;编组&gt;"><path class="cls-3" d="M212.62 456.69a51.17 51.17 0 1151.17-51.17 51.23 51.23 0 01-51.17 51.17zm0-102a50.79 50.79 0 1050.79 50.79 50.84 50.84 0 00-50.79-50.75z" transform="translate(-125.25 -328.6)" id="_编组_306" data-name="&lt;编组&gt;"/></g></g><g id="_编组_307" data-name="&lt;编组&gt;"><g id="_编组_308" data-name="&lt;编组&gt;"><path class="cls-3" d="M185.6 443.67l.48.34.08.05m-2.68-2l.11.08.44.35M268 437l-14.7-8.36.05-.09.28-.51 14.78 8.13-.43.78zm.86-1.55l-14.94-7.94.31-.58 15 7.72-.42.78zm.81-1.58l-15.11-7.5c.09-.19.19-.38.28-.58l15.25 7.3-.38.8zm.77-1.61l-15.32-7.07.27-.6 15.46 6.87c-.14.3-.25.56-.38.82zm.73-1.62l-15.55-6.66c.07-.17.15-.34.21-.5l.06-.14 15.6 6.42c-.1.26-.21.51-.34.82zm.68-1.64l-15.73-6.22.23-.62 15.93 6h-.18c-.1.28-.21.54-.31.81zm.63-1.67l-15.86-5.76c.08-.21.15-.41.21-.61l16 5.55-.3.84zm.52-1.73l-16-5.31c.07-.2.13-.41.2-.61l16.09 5.08-.28.85zm.54-1.7l-16.15-4.9c.06-.21.12-.42.18-.62h.05l16.26 4.62c-.08.25-.15.52-.25.85zm.49-1.71l-16.29-4.4c.06-.21.12-.42.17-.63l16.34 4.2c-.07.29-.15.58-.22.86zm.44-1.72l-16.44-4 .15-.63 16.45 3.74c-.06.28-.13.58-.2.86zm.39-1.73l-16.51-3.48c0-.21.09-.42.13-.63l16.56 3.25-.16.79zm.34-1.74l-16.6-3c0-.22.08-.42.11-.64l16.64 2.78c0 .29-.1.58-.15.88zm.3-1.75l-16.68-2.55.09-.65 16.75 2.33c0 .29-.08.58-.13.88zm.25-1.76L259 411.41c0-.24.05-.45.08-.65l16.77 1.85c0 .3-.07.6-.11.88zm.19-1.76l-16.83-1.62c0-.21 0-.43.05-.65l16.81 1.39c0 .29-.05.58-.08.88zm.15-1.76l-16.83-1.16v-.62l-.12-.06h.16l16.85.87c0 .29 0 .59-.05.88zm.1-1.77l-16.89-.69v-.65l16.86.46v.88zm0-1.77l-16.87-.23v-.65h16.87v.88zm-16.9-1.13v-.69l16.91-.32v.88zm0-1.31v-.2-.52l16.86-.78v.88zm-.06-1.3v-.65l16.83-1.24c0 .3 0 .59.06.88zm-.09-1.3c0-.18 0-.38-.06-.62v-.07L276 399c0 .2 0 .41.06.61v.31zm-.13-1.3c0-.22 0-.43-.08-.65l16.73-2.18c0 .32.08.61.11.88zm-.17-1.29c0-.21-.05-.42-.09-.64l16.7-2.65c0 .24.07.48.11.72v.2zm-.2-1.28c0-.19-.07-.39-.12-.64l16.56-3.1.08.08c0 .26.09.54.15.82zm-.24-1.28l-.13-.64 16.5-3.57c.06.26.12.54.17.82v.08zm-.22-1.24v-.17l-.11-.5 16.39-4 .21.86zm-.31-1.26c-.05-.21-.12-.42-.17-.62l16.3-4.6.23.85zm-.35-1.25l-.18-.62 16.17-5 .25.85zm-.38-1.25c-.06-.19-.12-.39-.19-.58v-.07l16-5.39.28.85zm-.41-1.24l-.21-.58v-.06l15.83-5.83.3.83zm-.45-1.22c-.08-.21-.16-.41-.24-.61l15.66-6.27.32.83zm-.48-1.2l-.25-.6 15.45-6.81c.11.27.23.54.34.81zm-.52-1.19l-.05-.12-.23-.5 15.29-7.14.37.81zm-.55-1.18l-.25-.5-.06-.12 15.12-7.59.39.8zm-.57-1.21l-.3-.58 14.86-8c.14.26.28.52.41.78zm-.61-1.14l-.31-.56 14.64-8.39.43.78zm-.65-1.13l-.12-.19c-.08-.13-.16-.26-.24-.4l14.4-8.79.45.76zm-.68-1.11l-.32-.5V380l14.1-9.15h.16l-.11.05c.16.25.32.48.45.72zm-.71-1.09l-.37-.54 13.94-9.62v.06c.17.24.33.48.49.72zm-.74-1.07l-.38-.52 13.62-10 .51.72zm-.77-1.01l-.39-.51 13.33-10.34.54.71z" transform="translate(-125.25 -328.6)" id="_编组_309" data-name="&lt;编组&gt;"/></g></g><g id="_编组_310" data-name="&lt;编组&gt;"><g id="_编组_311" data-name="&lt;编组&gt;"><g id="_编组_312" data-name="&lt;编组&gt;"><path class="cls-3" d="M188.17 369.37c.81-.55 1.67-1.08 2.53-1.59l-1.16-2q-1.35.78-2.67 1.68l1.3 1.91z" transform="translate(-125.25 -328.6)" id="_编组_313" data-name="&lt;编组&gt;"/></g></g><g id="_编组_314" data-name="&lt;编组&gt;"><g id="_编组_315" data-name="&lt;编组&gt;"><path class="cls-3" d="M192 367c.88-.47 1.78-.92 2.68-1.32l-1-2.1c-.94.42-1.89.89-2.82 1.39l1.09 2z" transform="translate(-125.25 -328.6)" id="_编组_316" data-name="&lt;编组&gt;"/></g></g><g id="_编组_317" data-name="&lt;编组&gt;"><g id="_编组_318" data-name="&lt;编组&gt;"><path class="cls-3" d="M184.56 372.09h.09c.75-.63 1.53-1.24 2.33-1.82l-1.36-1.86c-.85.61-1.68 1.28-2.48 1.94l1.46 1.74z" transform="translate(-125.25 -328.6)" id="_编组_319" data-name="&lt;编组&gt;"/></g></g><g id="_编组_320" data-name="&lt;编组&gt;"><g id="_编组_321" data-name="&lt;编组&gt;"><path class="cls-3" d="M169 403.37c0-1 .13-2 .25-3l-2.29-.27c-.12 1-.21 2.08-.26 3.14l2.3.16z" transform="translate(-125.25 -328.6)" id="_编组_322" data-name="&lt;编组&gt;"/></g></g><g id="_编组_323" data-name="&lt;编组&gt;"><g id="_编组_324" data-name="&lt;编组&gt;"><path class="cls-3" d="M204.66 362.6c1-.18 2-.32 3-.44l-.26-2.29c-1 .12-2.08.27-3.12.46l.42 2.23z" transform="translate(-125.25 -328.6)" id="_编组_325" data-name="&lt;编组&gt;"/></g></g><g id="_编组_326" data-name="&lt;编组&gt;"><g id="_编组_327" data-name="&lt;编组&gt;"><path class="cls-3" d="M200.29 363.65c1-.28 1.93-.53 2.91-.75l-.49-2.25c-1 .22-2 .48-3 .77l-.07-.21v.24l.65 2.21z" transform="translate(-125.25 -328.6)" id="_编组_328" data-name="&lt;编组&gt;"/></g></g><g id="_编组_329" data-name="&lt;编组&gt;"><g id="_编组_330" data-name="&lt;编组&gt;"><path class="cls-3" d="M181.3 375.13c.68-.71 1.41-1.4 2.16-2.07l-1.55-1.71c-.77.69-1.53 1.43-2.27 2.18l1.65 1.61z" transform="translate(-125.25 -328.6)" id="_编组_331" data-name="&lt;编组&gt;"/></g></g><g id="_编组_332" data-name="&lt;编组&gt;"><g id="_编组_333" data-name="&lt;编组&gt;"><path class="cls-3" d="M173.54 386.09c.44-.89.92-1.78 1.42-2.63l-2-1.17c-.51.88-1 1.8-1.48 2.74v.08l2.09 1v-.05z" transform="translate(-125.25 -328.6)" id="_编组_334" data-name="&lt;编组&gt;"/></g></g><g id="_编组_335" data-name="&lt;编组&gt;"><g id="_编组_336" data-name="&lt;编组&gt;"><path class="cls-3" d="M169.57 389.44l2.18.82c.36-1 .75-1.88 1.15-2.77l-2.1-1c-.42.93-.82 1.9-1.19 2.88h-.13l.11.1z" transform="translate(-125.25 -328.6)" id="_编组_337" data-name="&lt;编组&gt;"/></g></g><g id="_编组_338" data-name="&lt;编组&gt;"><g id="_编组_339" data-name="&lt;编组&gt;"><path class="cls-3" d="M170.37 394.54c.25-1 .54-1.94.85-2.87l-2.18-.73c-.33 1-.63 2-.9 3l2.2.58z" transform="translate(-125.25 -328.6)" id="_编组_340" data-name="&lt;编组&gt;"/></g></g><g id="_编组_341" data-name="&lt;编组&gt;"><g id="_编组_342" data-name="&lt;编组&gt;"><path class="cls-3" d="M169.48 398.95c.15-1 .34-2 .55-2.94l-2.25-.51c-.23 1-.42 2.06-.58 3.1l2.24.34z" transform="translate(-125.25 -328.6)" id="_编组_343" data-name="&lt;编组&gt;"/></g></g><g id="_编组_344" data-name="&lt;编组&gt;"><g id="_编组_345" data-name="&lt;编组&gt;"><path class="cls-3" d="M175.74 382.18c.54-.85 1.11-1.68 1.69-2.47l-1.85-1.37c-.62.83-1.21 1.7-1.76 2.57v.08l2 1.24z" transform="translate(-125.25 -328.6)" id="_编组_346" data-name="&lt;编组&gt;"/></g></g><g id="_编组_347" data-name="&lt;编组&gt;"><g id="_编组_348" data-name="&lt;编组&gt;"><path class="cls-3" d="M178.34 378.51c.61-.77 1.26-1.54 1.94-2.29l-1.71-1.55c-.68.75-1.36 1.55-2 2.38v.09l1.79 1.44z" transform="translate(-125.25 -328.6)" id="_编组_349" data-name="&lt;编组&gt;"/></g></g><g id="_编组_350" data-name="&lt;编组&gt;"><g id="_编组_351" data-name="&lt;编组&gt;"><path class="cls-3" d="M196.06 365.13c.92-.38 1.86-.72 2.81-1l-.72-2.18c-1 .33-2 .69-2.92 1.08l-.06-.11v.08l.87 2.11z" transform="translate(-125.25 -328.6)" id="_编组_352" data-name="&lt;编组&gt;"/></g></g><g id="_编组_353" data-name="&lt;编组&gt;"><g id="_编组_354" data-name="&lt;编组&gt;"><path class="cls-3" d="M250.52 383.88c.48.85 1 1.74 1.4 2.65l2.08-1c-.45-.95-1-1.88-1.47-2.79l-2 1.13z" transform="translate(-125.25 -328.6)" id="_编组_355" data-name="&lt;编组&gt;"/></g></g><g id="_编组_356" data-name="&lt;编组&gt;"><g id="_编组_357" data-name="&lt;编组&gt;"><path class="cls-3" d="M248.1 380.11c.59.83 1.15 1.67 1.66 2.49l2-1.21c-.55-.88-1.14-1.77-1.75-2.62l-1.88 1.35z" transform="translate(-125.25 -328.6)" id="_编组_358" data-name="&lt;编组&gt;"/></g></g><g id="_编组_359" data-name="&lt;编组&gt;"><g id="_编组_360" data-name="&lt;编组&gt;"><path class="cls-3" d="M252.54 387.85c.4.91.78 1.84 1.11 2.77l2.17-.79c-.35-1-.75-2-1.17-2.93l-2.08.92z" transform="translate(-125.25 -328.6)" id="_编组_361" data-name="&lt;编组&gt;"/></g></g><g id="_编组_362" data-name="&lt;编组&gt;"><g id="_编组_363" data-name="&lt;编组&gt;"><path class="cls-3" d="M256 400.81c.1 1 .18 2 .22 3l2.31-.08c0-1.06-.12-2.12-.23-3.14z" transform="translate(-125.25 -328.6)" id="_编组_364" data-name="&lt;编组&gt;"/></g></g><g id="_编组_365" data-name="&lt;编组&gt;"><g id="_编组_366" data-name="&lt;编组&gt;"><path class="cls-3" d="M245.3 376.6c.65.73 1.28 1.51 1.91 2.31l1.82-1.41c-.65-.84-1.32-1.65-2-2.43l-1.72 1.53z" transform="translate(-125.25 -328.6)" id="_编组_367" data-name="&lt;编组&gt;"/></g></g><g id="_编组_368" data-name="&lt;编组&gt;"><g id="_编组_369" data-name="&lt;编组&gt;"><path class="cls-3" d="M255.31 396.44c.21 1 .38 2 .51 2.92l2.29-.32c-.15-1-.33-2.09-.55-3.11l-2.57.54h.34z" transform="translate(-125.25 -328.6)" id="_编组_370" data-name="&lt;编组&gt;"/></g></g><g id="_编组_371" data-name="&lt;编组&gt;"><g id="_编组_372" data-name="&lt;编组&gt;"><path class="cls-3" d="M254.14 392.07c.31 1 .58 1.92.82 2.88l2.24-.55c-.25-1-.55-2-.87-3l-2.19.71z" transform="translate(-125.25 -328.6)" id="_编组_373" data-name="&lt;编组&gt;"/></g></g><g id="_编组_374" data-name="&lt;编组&gt;"><g id="_编组_375" data-name="&lt;编组&gt;"><path class="cls-3" d="M229.62 365.32l.9-2.12c-1-.42-2-.79-2.94-1.13l-.75 2.18c.91.31 1.86.67 2.79 1.07z" transform="translate(-125.25 -328.6)" id="_编组_376" data-name="&lt;编组&gt;"/></g></g><g id="_编组_377" data-name="&lt;编组&gt;"><g id="_编组_378" data-name="&lt;编组&gt;"><path class="cls-3" d="M222.53 363c1 .22 1.93.48 2.87.77l.68-2.21c-1-.31-2-.58-3-.81l-.61 2.25v.16z" transform="translate(-125.25 -328.6)" id="_编组_379" data-name="&lt;编组&gt;"/></g></g><g id="_编组_380" data-name="&lt;编组&gt;"><g id="_编组_381" data-name="&lt;编组&gt;"><path class="cls-3" d="M242.13 373.37c.74.68 1.46 1.38 2.14 2.1l1.68-1.58c-.72-.76-1.48-1.51-2.24-2.21l-1.54 1.67z" transform="translate(-125.25 -328.6)" id="_编组_382" data-name="&lt;编组&gt;"/></g></g><g id="_编组_383" data-name="&lt;编组&gt;"><g id="_编组_384" data-name="&lt;编组&gt;"><path class="cls-3" d="M238.69 370.47c.8.59 1.59 1.22 2.34 1.87l1.51-1.75c-.79-.68-1.62-1.35-2.44-2v-.1z" transform="translate(-125.25 -328.6)" id="_编组_385" data-name="&lt;编组&gt;"/></g></g><g id="_编组_386" data-name="&lt;编组&gt;"><g id="_编组_387" data-name="&lt;编组&gt;"><path class="cls-3" d="M237.48 369.65l1.32-1.9c-.85-.59-1.74-1.17-2.64-1.71l-1.18 2c.84.5 1.69 1.04 2.5 1.61z" transform="translate(-125.25 -328.6)" id="_编组_388" data-name="&lt;编组&gt;"/></g></g><g id="_编组_389" data-name="&lt;编组&gt;"><g id="_编组_390" data-name="&lt;编组&gt;"><path class="cls-3" d="M233.67 367.28l1.11-2c-.92-.51-1.86-1-2.81-1.43l-1 2.05v.18l.05-.12c.89.39 1.77.84 2.65 1.32z" transform="translate(-125.25 -328.6)" id="_编组_391" data-name="&lt;编组&gt;"/></g></g><g id="_编组_392" data-name="&lt;编组&gt;"><g id="_编组_393" data-name="&lt;编组&gt;"><path class="cls-3" d="M171.81 421c-.35-.91-.66-1.85-1-2.8l-2.21.67c.3 1 .65 2 1 3l2.12-.8z" transform="translate(-125.25 -328.6)" id="_编组_394" data-name="&lt;编组&gt;"/></g></g><g id="_编组_395" data-name="&lt;编组&gt;"><g id="_编组_396" data-name="&lt;编组&gt;"><path class="cls-3" d="M254.21 418.78c-.3.94-.64 1.88-1 2.82l2.11.84c.38-1 .74-2 1.06-3l-2.19-.7z" transform="translate(-125.25 -328.6)" id="_编组_397" data-name="&lt;编组&gt;"/></g></g><g id="_编组_398" data-name="&lt;编组&gt;"><g id="_编组_399" data-name="&lt;编组&gt;"><path class="cls-3" d="M256 410c-.1 1-.24 2-.4 3l2.27.39c.18-1 .32-2.09.43-3.13L256 410z" transform="translate(-125.25 -328.6)" id="_编组_400" data-name="&lt;编组&gt;"/></g></g><g id="_编组_401" data-name="&lt;编组&gt;"><g id="_编组_402" data-name="&lt;编组&gt;"><path class="cls-3" d="M256.26 405.29v.23c0 1 0 2-.1 3l2.31.15c.07-1 .11-2.08.11-3.14v-.24h-2.31z" transform="translate(-125.25 -328.6)" id="_编组_403" data-name="&lt;编组&gt;"/></g></g><g id="_编组_404" data-name="&lt;编组&gt;"><g id="_编组_405" data-name="&lt;编组&gt;"><path class="cls-3" d="M255.34 414.44c-.21 1-.45 2-.71 2.91l2.21.62c.28-1 .53-2 .75-3.06l-2.26-.47z" transform="translate(-125.25 -328.6)" id="_编组_406" data-name="&lt;编组&gt;"/></g></g><g id="_编组_407" data-name="&lt;编组&gt;"><g id="_编组_408" data-name="&lt;编组&gt;"><path class="cls-3" d="M175.83 429q-.82-1.28-1.52-2.57l-2 1.11c.5.91 1 1.83 1.61 2.71l1.94-1.25z" transform="translate(-125.25 -328.6)" id="_编组_409" data-name="&lt;编组&gt;"/></g></g><g id="_编组_410" data-name="&lt;编组&gt;"><g id="_编组_411" data-name="&lt;编组&gt;"><path class="cls-3" d="M173.61 425.09c-.44-.88-.86-1.8-1.25-2.71l-2.13.89c.41 1 .85 1.92 1.31 2.86l2-1z" transform="translate(-125.25 -328.6)" id="_编组_412" data-name="&lt;编组&gt;"/></g></g><g id="_编组_413" data-name="&lt;编组&gt;"><g id="_编组_414" data-name="&lt;编组&gt;"><path class="cls-3" d="M170.43 416.69c-.25-1-.48-1.93-.66-2.89l-2.26.43c.19 1 .43 2.05.7 3.07l2.44-.65h-.27z" transform="translate(-125.25 -328.6)" id="_编组_415" data-name="&lt;编组&gt;"/></g></g><g id="_编组_416" data-name="&lt;编组&gt;"><g id="_编组_417" data-name="&lt;编组&gt;"><path class="cls-3" d="M169.52 412.37c-.15-1-.28-2-.36-3l-2.3.2c.09 1 .22 2.1.38 3.13z" transform="translate(-125.25 -328.6)" id="_编组_418" data-name="&lt;编组&gt;"/></g></g><g id="_编组_419" data-name="&lt;编组&gt;"><g id="_编组_420" data-name="&lt;编组&gt;"><path class="cls-3" d="M169.05 407.9c0-.78-.06-1.56-.06-2.34v-.65h-2.31v.68c0 .82 0 1.65.07 2.47z" transform="translate(-125.25 -328.6)" id="_编组_421" data-name="&lt;编组&gt;"/></g></g></g><g id="_编组_422" data-name="&lt;编组&gt;"><g id="_编组_423" data-name="&lt;编组&gt;"><path class="cls-3" d="M212.62 482.43a77.55 77.55 0 01-13.9-1.25l.07-.38a76.91 76.91 0 0013.83 1.2 76.12 76.12 0 0029-5.7l.15.36a76.61 76.61 0 01-29.15 5.77zm-15.39-1.54a76.57 76.57 0 01-38.27-20.28l.27-.27a76.27 76.27 0 0038.08 20.19h.21-.22zm46-4.77l-.15-.36a76.52 76.52 0 0033.11-27.6l.32.21a77.23 77.23 0 01-33.28 27.73zm-85.34-16.59a76.66 76.66 0 01-20.5-38.16l.38-.08a76.32 76.32 0 0020.39 38zm119.44-12.43l-.32-.21a76.65 76.65 0 006.84-69.36l.35-.15a77.06 77.06 0 01-6.88 69.71zM137 419.87a77.54 77.54 0 01-1.33-14.33 76.44 76.44 0 015.57-28.79l.36.14a76 76 0 00-5.54 28.65 77.44 77.44 0 001.32 14.25zm146.27-43.74a76.52 76.52 0 00-27.11-33.52l.22-.32a77.3 77.3 0 0127.25 33.68zm-141.1-.65l-.35-.15a77.2 77.2 0 0127.55-33.44l.22.32a76.58 76.58 0 00-27.43 33.26zm112.72-33.74A76.2 76.2 0 00213.73 329v-.39a76.66 76.66 0 0141.38 12.8zm-84-.39l-.2-.31a76.61 76.61 0 0141.49-12.41v.37a76.17 76.17 0 00-41.29 12.35z" transform="translate(-125.25 -328.6)" id="_编组_424" data-name="&lt;编组&gt;"/></g></g><g id="_编组_425" data-name="&lt;编组&gt;"><g id="_编组_426" data-name="&lt;编组&gt;"><path class="cls-3" d="M213.31 470v-.32a63.92 63.92 0 0034.56-10.55l.18.27a64.18 64.18 0 01-34.71 10.6zM187 464.8v-.07a64.65 64.65 0 01-27.93-23.18l.27-.18a64.17 64.17 0 0027.8 23.08l-.11.26zm79.83-24.43l-.28-.17a64.34 64.34 0 006.3-56.65l.31-.11a64.61 64.61 0 01-6.33 56.93zm-117.72-23.61a64.93 64.93 0 01-1-11.21 64.16 64.16 0 015-24.88l.3.13a64.44 64.44 0 00-4 35.9zM258.8 361a64 64 0 00-31.39-17.89l.08-.32a64.42 64.42 0 0117.2 6.79A65.09 65.09 0 01259 360.74zm-90.24-2.1l-.22-.23a64.23 64.23 0 0132.34-16.48l.06.32a64 64 0 00-32.19 16.41z" transform="translate(-125.25 -328.6)" id="_编组_427" data-name="&lt;编组&gt;"/></g></g><g id="_编组_428" data-name="&lt;编组&gt;"><g id="_编组_429" data-name="&lt;编组&gt;"><path class="cls-3" d="M212.62 476.42a71.56 71.56 0 01-12.25-1.05l.06-.35a71.25 71.25 0 0012.19 1 70.12 70.12 0 0027.3-5.47l.14.33a70.47 70.47 0 01-27.44 5.54zm27.43-5.5l-.14-.33a70.54 70.54 0 0011.48-6.13l.2.3a70.94 70.94 0 01-11.54 6.16zm-67-6.55a71.34 71.34 0 01-10.13-8.27l.25-.25a71 71 0 0010.08 8.23zm-10.13-8.27a70.67 70.67 0 01-19.47-34.86l.35-.08a70.32 70.32 0 0019.37 34.69zm109.35-12.27l-.3-.19a70.67 70.67 0 005.2-66.58 70.64 70.64 0 00-6.33-11.37l.29-.2a71 71 0 016.36 11.42 71 71 0 01-5.2 66.92zm-128.9-52l-.35-.07a70.59 70.59 0 013.7-12.55l.33.13a70.23 70.23 0 00-3.66 12.54zm3.68-12.48l-.33-.13a70.92 70.92 0 0124.64-31.43l.21.29a70.57 70.57 0 00-24.5 31.31zm102.61-33.92A70.39 70.39 0 00212.62 335h-1.26v-.35h1.27a70.74 70.74 0 0137.24 10.56zm-51.25-9.08l-.07-.35a71.29 71.29 0 0113-1.42v.42a70.93 70.93 0 00-12.91 1.4z" transform="translate(-125.25 -328.6)" id="_编组_430" data-name="&lt;编组&gt;"/></g></g><g id="_编组_431" data-name="&lt;编组&gt;"><g id="_编组_432" data-name="&lt;编组&gt;"><path class="cls-3" d="M257.78 405.21v.3a45 45 0 01-21.12 38.24l-.26.16 24.92 39.53.26-.16a91.47 91.47 0 0042.93-77.77v-.3h-46.73zm3.73 77.4l-24.27-38.5a45.59 45.59 0 0021.15-38.29h45.51a90.87 90.87 0 01-42.38 76.79z" transform="translate(-125.25 -328.6)" id="_编组_433" data-name="&lt;编组&gt;"/></g></g><g id="_编组_434" data-name="&lt;编组&gt;"><g id="_编组_435" data-name="&lt;编组&gt;"><g id="_编组_436" data-name="&lt;编组&gt;"><path class="cls-3" d="M131.7 358.92q.56-1 1.14-1.9l.39-.63" transform="translate(-125.25 -328.6)" id="_编组_437" data-name="&lt;编组&gt;"/></g></g><g id="_编组_438" data-name="&lt;编组&gt;"><g id="_编组_439" data-name="&lt;编组&gt;"><path class="cls-3" d="M305.42 393.71l.09.74 7.63-.95-.1-.79-2.4.31 2.4-.31q-.16-1.19-.34-2.37l-7.6 1.17q.17 1.1.32 2.2z" transform="translate(-125.25 -328.6)" id="_编组_440" data-name="&lt;编组&gt;"/></g></g><g id="_编组_441" data-name="&lt;编组&gt;"><g id="_编组_442" data-name="&lt;编组&gt;"><path class="cls-3" d="M305.89 398.12l.06.74 7.66-.58-.06-.79-3.92.32 3.91-.33q-.1-1.2-.23-2.38l-7.64.81q.12 1.09.22 2.21z" transform="translate(-125.25 -328.6)" id="_编组_443" data-name="&lt;编组&gt;"/></g></g><g id="_编组_444" data-name="&lt;编组&gt;"><g id="_编组_445" data-name="&lt;编组&gt;"><path class="cls-3" d="M145.73 471.42l-2.19 2.14 2.19-2.15-.51-.53-5.54 5.33.56.57q.84.86 1.69 1.69l5.37-5.5q-.79-.76-1.57-1.55z" transform="translate(-125.25 -328.6)" id="_编组_446" data-name="&lt;编组&gt;"/></g></g><g id="_编组_447" data-name="&lt;编组&gt;"><g id="_编组_448" data-name="&lt;编组&gt;"><path class="cls-3" d="M263.63 484.44l2.08 3.2-2.09-3.2-.61.39 4.13 6.48.68-.44q1-.65 2-1.33l-4.35-6.34q-.92.64-1.84 1.24z" transform="translate(-125.25 -328.6)" id="_编组_449" data-name="&lt;编组&gt;"/></g></g><g id="_编组_450" data-name="&lt;编组&gt;"><g id="_编组_451" data-name="&lt;编组&gt;"><path class="cls-3" d="M280.59 470.3l-.51.53 5.54 5.33.55-.58q.83-.87 1.63-1.76l-5.71-5.15q-.74.83-1.5 1.63z" transform="translate(-125.25 -328.6)" id="_编组_452" data-name="&lt;编组&gt;"/></g></g><g id="_编组_453" data-name="&lt;编组&gt;"><g id="_编组_454" data-name="&lt;编组&gt;"><path class="cls-3" d="M267.28 481.94l2.25 3.12-2.25-3.12-.6.43 4.44 6.27.65-.46q1-.7 1.92-1.42l-4.64-6.13q-.88.66-1.77 1.31z" transform="translate(-125.25 -328.6)" id="_编组_455" data-name="&lt;编组&gt;"/></g></g><g id="_编组_456" data-name="&lt;编组&gt;"><g id="_编组_457" data-name="&lt;编组&gt;"><path class="cls-3" d="M258 487.86q-1 .53-1.94 1l2.31 4.4-2.31-4.4-.65.34 3.52 6.83.71-.37q1.06-.56 2.1-1.13z" transform="translate(-125.25 -328.6)" id="_编组_458" data-name="&lt;编组&gt;"/></g></g><g id="_编组_459" data-name="&lt;编组&gt;"><g id="_编组_460" data-name="&lt;编组&gt;"><path class="cls-3" d="M252.05 490.86l-.67.31 3.19 7 .72-.33-1.37-2.94 1.37 2.94q1.09-.51 2.16-1l-3.45-6.93q-.95.49-1.95.95z" transform="translate(-125.25 -328.6)" id="_编组_461" data-name="&lt;编组&gt;"/></g></g><g id="_编组_462" data-name="&lt;编组&gt;"><g id="_编组_463" data-name="&lt;编组&gt;"><path class="cls-3" d="M270.81 479.27l-.58.46 4.74 6.05.62-.49q.94-.75 1.86-1.51l-4.92-5.9q-.86.7-1.72 1.39z" transform="translate(-125.25 -328.6)" id="_编组_464" data-name="&lt;编组&gt;"/></g></g><g id="_编组_465" data-name="&lt;编组&gt;"><g id="_编组_466" data-name="&lt;编组&gt;"><path class="cls-3" d="M274.21 476.43l-.57.49 5 5.82.59-.51-1.83-2.1 1.83 2.1q.9-.79 1.78-1.6l-5.16-5.63q-.85.7-1.64 1.43z" transform="translate(-125.25 -328.6)" id="_编组_467" data-name="&lt;编组&gt;"/></g></g><g id="_编组_468" data-name="&lt;编组&gt;"><g id="_编组_469" data-name="&lt;编组&gt;"><path class="cls-3" d="M259.87 486.76l-.64.37 3.84 6.66.68-.4-1.94-3.32 1.94 3.32q1-.6 2-1.23l-4-6.54z" transform="translate(-125.25 -328.6)" id="_编组_470" data-name="&lt;编组&gt;"/></g></g><g id="_编组_471" data-name="&lt;编组&gt;"><g id="_编组_472" data-name="&lt;编组&gt;"><path class="cls-3" d="M226.71 498.49l.58 3.83-.58-3.83-.73.11 1.08 7.61.79-.12 2.36-.39-1.32-7.57z" transform="translate(-125.25 -328.6)" id="_编组_473" data-name="&lt;编组&gt;"/></g></g><g id="_编组_474" data-name="&lt;编组&gt;"><g id="_编组_475" data-name="&lt;编组&gt;"><path class="cls-3" d="M231.07 497.73l.72 3.58-.72-3.58-.72.14 1.44 7.55.79-.15q1.18-.24 2.34-.5l-1.68-7.5z" transform="translate(-125.25 -328.6)" id="_编组_476" data-name="&lt;编组&gt;"/></g></g><g id="_编组_477" data-name="&lt;编组&gt;"><g id="_编组_478" data-name="&lt;编组&gt;"><path class="cls-3" d="M248 492.63l-.68.27 2.83 7.15.75-.3-1.68-4.12 1.69 4.12q1.11-.45 2.2-.93l-3.08-7z" transform="translate(-125.25 -328.6)" id="_编组_479" data-name="&lt;编组&gt;"/></g></g><g id="_编组_480" data-name="&lt;编组&gt;"><g id="_编组_481" data-name="&lt;编组&gt;"><path class="cls-3" d="M235.39 496.76l1 4.1-1-4.1-.71.17 1.8 7.47.78-.19 2.31-.61-2-7.41z" transform="translate(-125.25 -328.6)" id="_编组_482" data-name="&lt;编组&gt;"/></g></g><g id="_编组_483" data-name="&lt;编组&gt;"><g id="_编组_484" data-name="&lt;编组&gt;"><path class="cls-3" d="M239.67 495.58l-.71.21 2.16 7.38.76-.23-1.16-3.86 1.17 3.86 2.28-.72-2.39-7.31z" transform="translate(-125.25 -328.6)" id="_编组_485" data-name="&lt;编组&gt;"/></g></g><g id="_编组_486" data-name="&lt;编组&gt;"><g id="_编组_487" data-name="&lt;编组&gt;"><path class="cls-3" d="M303.62 427.9l-.18.72 7.46 1.85.19-.77-4.08-1 4.08 1q.28-1.16.53-2.34l-7.51-1.62q-.23 1.09-.49 2.16z" transform="translate(-125.25 -328.6)" id="_编组_488" data-name="&lt;编组&gt;"/></g></g><g id="_编组_489" data-name="&lt;编组&gt;"><g id="_编组_490" data-name="&lt;编组&gt;"><path class="cls-3" d="M302.49 432.18l-.21.71 7.36 2.21.23-.76-3.68-1.08 3.68 1.07q.33-1.15.64-2.31l-7.43-2q-.28 1.1-.59 2.16z" transform="translate(-125.25 -328.6)" id="_编组_491" data-name="&lt;编组&gt;"/></g></g><g id="_编组_492" data-name="&lt;编组&gt;"><g id="_编组_493" data-name="&lt;编组&gt;"><path class="cls-3" d="M305.8 414.81l-.07.73 7.65.79.08-.8-3.83-.36 3.83.36q.11-1.19.2-2.39l-7.66-.54-.2 2.21z" transform="translate(-125.25 -328.6)" id="_编组_494" data-name="&lt;编组&gt;"/></g></g><g id="_编组_495" data-name="&lt;编组&gt;"><g id="_编组_496" data-name="&lt;编组&gt;"><path class="cls-3" d="M222.32 499.05l.39 3.82-.39-3.82-.73.07.72 7.65.8-.08 2.38-.27-1-7.63z" transform="translate(-125.25 -328.6)" id="_编组_497" data-name="&lt;编组&gt;"/></g></g><g id="_编组_498" data-name="&lt;编组&gt;"><g id="_编组_499" data-name="&lt;编组&gt;"><path class="cls-3" d="M297.86 444.67l-.31.67 7 3.24.33-.73-3.5-1.59 3.5 1.59q.5-1.09 1-2.2l-7.07-3q-.49 1.01-.95 2.02z" transform="translate(-125.25 -328.6)" id="_编组_500" data-name="&lt;编组&gt;"/></g></g><g id="_编组_501" data-name="&lt;编组&gt;"><g id="_编组_502" data-name="&lt;编组&gt;"><path class="cls-3" d="M286.37 463.59l4.11 3.22-4.12-3.22-.46.58 6 4.78.49-.63q.74-.94 1.46-1.91l-6.17-4.59q-.63.89-1.31 1.77z" transform="translate(-125.25 -328.6)" id="_编组_503" data-name="&lt;编组&gt;"/></g></g><g id="_编组_504" data-name="&lt;编组&gt;"><g id="_编组_505" data-name="&lt;编组&gt;"><path class="cls-3" d="M299.6 440.58l-.28.69 7.12 2.9.3-.74-3.57-1.43 3.57 1.42q.44-1.11.86-2.24l-7.21-2.68q-.39 1.05-.79 2.08z" transform="translate(-125.25 -328.6)" id="_编组_506" data-name="&lt;编组&gt;"/></g></g><g id="_编组_507" data-name="&lt;编组&gt;"><g id="_编组_508" data-name="&lt;编组&gt;"><path class="cls-3" d="M291.5 456.36l.56.36-.56-.36-.4.62 6.44 4.2.43-.67q.65-1 1.27-2l-6.57-4q-.58.91-1.17 1.85z" transform="translate(-125.25 -328.6)" id="_编组_509" data-name="&lt;编组&gt;"/></g></g><g id="_编组_510" data-name="&lt;编组&gt;"><g id="_编组_511" data-name="&lt;编组&gt;"><path class="cls-3" d="M293.8 452.56l-.38.65 6.64 3.87.39-.68-2.81-1.62 2.81 1.62q.6-1 1.17-2.09l-6.75-3.68q-.51.97-1.07 1.93z" transform="translate(-125.25 -328.6)" id="_编组_512" data-name="&lt;编组&gt;"/></g></g><g id="_编组_513" data-name="&lt;编组&gt;"><g id="_编组_514" data-name="&lt;编组&gt;"><path class="cls-3" d="M217.9 499.4h-.73l.36 7.68h.8l2.39-.16-.61-7.66z" transform="translate(-125.25 -328.6)" id="_编组_515" data-name="&lt;编组&gt;"/></g></g><g id="_编组_516" data-name="&lt;编组&gt;"><g id="_编组_517" data-name="&lt;编组&gt;"><path class="cls-3" d="M148.9 474.51l-2.12 2.28 2.12-2.28-.53-.5-5.29 5.58.59.55q.87.81 1.77 1.61l5.1-5.75q-.83-.74-1.64-1.49z" transform="translate(-125.25 -328.6)" id="_编组_518" data-name="&lt;编组&gt;"/></g></g><g id="_编组_519" data-name="&lt;编组&gt;"><g id="_编组_520" data-name="&lt;编组&gt;"><path class="cls-3" d="M29.84 151.17l-4.73 6.06.63.49 4.68-6.1-.58-.45z" id="_编组_521" data-name="&lt;编组&gt;"/></g></g><g id="_编组_522" data-name="&lt;编组&gt;"><g id="_编组_523" data-name="&lt;编组&gt;"><path class="cls-3" d="M139.84 464.81l-.46-.58-6 4.79.49.62 2.5-2-2.5 2q.75.93 1.53 1.84l5.86-5q-.72-.81-1.42-1.67z" transform="translate(-125.25 -328.6)" id="_编组_524" data-name="&lt;编组&gt;"/></g></g><g id="_编组_525" data-name="&lt;编组&gt;"><g id="_编组_526" data-name="&lt;编组&gt;"><path class="cls-3" d="M155.67 480.23l-4.68 6.1q1 .73 1.92 1.44l4.54-6.2q-.9-.66-1.78-1.34z" transform="translate(-125.25 -328.6)" id="_编组_527" data-name="&lt;编组&gt;"/></g></g><g id="_编组_528" data-name="&lt;编组&gt;"><g id="_编组_529" data-name="&lt;编组&gt;"><path class="cls-3" d="M162.95 485.29l-.63-.4-4.12 6.49.67.42 2.39-3.81-2.39 3.81q1 .64 2 1.25l3.93-6.61q-.91-.56-1.85-1.15z" transform="translate(-125.25 -328.6)" id="_编组_530" data-name="&lt;编组&gt;"/></g></g><g id="_编组_531" data-name="&lt;编组&gt;"><g id="_编组_532" data-name="&lt;编组&gt;"><path class="cls-3" d="M134.61 457.68l-.41-.62-6.43 4.22.43.65 2.88-1.91-2.88 1.91q.66 1 1.35 2l6.3-4.4q-.63-.93-1.24-1.85z" transform="translate(-125.25 -328.6)" id="_编组_533" data-name="&lt;编组&gt;"/></g></g><g id="_编组_534" data-name="&lt;编组&gt;"><g id="_编组_535" data-name="&lt;编组&gt;"><path class="cls-3" d="M132.25 453.94l-2.67 1.6 2.67-1.6-.37-.63-6.63 3.89.41.69q.61 1 1.25 2l6.5-4.1q-.59-.9-1.16-1.85z" transform="translate(-125.25 -328.6)" id="_编组_536" data-name="&lt;编组&gt;"/></g></g><g id="_编组_537" data-name="&lt;编组&gt;"><g id="_编组_538" data-name="&lt;编组&gt;"><path class="cls-3" d="M170.68 489.65l-.66-.33-3.5 6.84.71.36 1.61-3.2-1.61 3.2q1.07.54 2.16 1.05l3.28-6.95z" transform="translate(-125.25 -328.6)" id="_编组_539" data-name="&lt;编组&gt;"/></g></g><g id="_编组_540" data-name="&lt;编组&gt;"><g id="_编组_541" data-name="&lt;编组&gt;"><path class="cls-3" d="M204.33 502.65l.29-3.44-.74-.07-.7 7.66.79.07q1.19.1 2.39.17l.47-7.67-2.21-.16z" transform="translate(-125.25 -328.6)" id="_编组_542" data-name="&lt;编组&gt;"/></g></g><g id="_编组_543" data-name="&lt;编组&gt;"><g id="_编组_544" data-name="&lt;编组&gt;"><path class="cls-3" d="M213.47 499.54h-.73v7.69H215.93l-.25-7.68z" transform="translate(-125.25 -328.6)" id="_编组_545" data-name="&lt;编组&gt;"/></g></g><g id="_编组_546" data-name="&lt;编组&gt;"><g id="_编组_547" data-name="&lt;编组&gt;"><path class="cls-3" d="M209 499.48h-.74l-.26 7.65h.79l.14-3.79-.14 3.79 2.39.06.11-7.69-2.22-.06z" transform="translate(-125.25 -328.6)" id="_编组_548" data-name="&lt;编组&gt;"/></g></g><g id="_编组_549" data-name="&lt;编组&gt;"><g id="_编组_550" data-name="&lt;编组&gt;"><path class="cls-3" d="M178.8 493.25l-.68-.27-2.85 7.14.75.3 1.39-3.57-1.41 3.57 2.25.84 2.61-7.23z" transform="translate(-125.25 -328.6)" id="_编组_551" data-name="&lt;编组&gt;"/></g></g><g id="_编组_552" data-name="&lt;编组&gt;"><g id="_编组_553" data-name="&lt;编组&gt;"><path class="cls-3" d="M174.69 491.54l-.86 1.93.86-1.93-.67-.3-3.18 7 .73.33q1.1.49 2.21 1l2.95-7.1q-1.02-.47-2.04-.93z" transform="translate(-125.25 -328.6)" id="_编组_554" data-name="&lt;编组&gt;"/></g></g><g id="_编组_555" data-name="&lt;编组&gt;"><g id="_编组_556" data-name="&lt;编组&gt;"><path class="cls-3" d="M199.48 498.63l-1.06 7.61.79.11.51-3.81-.5 3.82 2.38.29.83-7.64-2.2-.26z" transform="translate(-125.25 -328.6)" id="_编组_557" data-name="&lt;编组&gt;"/></g></g><g id="_编组_558" data-name="&lt;编组&gt;"><g id="_编组_559" data-name="&lt;编组&gt;"><path class="cls-3" d="M187.21 496.06l-1.1 3.93 1.1-3.93-.7-.2-2.14 7.38.77.22q1.15.32 2.31.62l1.91-7.45z" transform="translate(-125.25 -328.6)" id="_编组_560" data-name="&lt;编组&gt;"/></g></g><g id="_编组_561" data-name="&lt;编组&gt;"><g id="_编组_562" data-name="&lt;编组&gt;"><path class="cls-3" d="M190.78 497l-1.78 7.46.77.18.86-3.73-.86 3.73 2.34.51 1.55-7.53-2.16-.47z" transform="translate(-125.25 -328.6)" id="_编组_563" data-name="&lt;编组&gt;"/></g></g></g><g id="_编组_564" data-name="&lt;编组&gt;"><g id="_编组_565" data-name="&lt;编组&gt;"><path class="cls-3" d="M129.63 143.96l.13 5.73-5.02-2.75 4.89-2.98z" id="_编组_566" data-name="&lt;编组&gt;"/></g></g><g id="_编组_567" data-name="&lt;编组&gt;"><g id="_编组_568" data-name="&lt;编组&gt;"><circle class="cls-3" cx="120.02" cy="32.74" r="2.78" id="_编组_569" data-name="&lt;编组&gt;"/></g></g><g id="_编组_570" data-name="&lt;编组&gt;"><g id="_编组_571" data-name="&lt;编组&gt;"><circle class="cls-3" cx="56.47" cy="121.99" r="2.78" id="_编组_572" data-name="&lt;编组&gt;"/></g></g><g id="_编组_573" data-name="&lt;编组&gt;"><g id="_编组_574" data-name="&lt;编组&gt;"><circle class="cls-3" cx="43.69" cy="13.81" r="1.07" id="_编组_575" data-name="&lt;编组&gt;"/></g></g><g id="_编组_576" data-name="&lt;编组&gt;"><g id="_编组_577" data-name="&lt;编组&gt;"><circle class="cls-3" cx="102.36" cy="14.12" r="1.07" id="_编组_578" data-name="&lt;编组&gt;"/></g></g><g id="_编组_579" data-name="&lt;编组&gt;"><g id="_编组_580" data-name="&lt;编组&gt;"><circle class="cls-3" cx="124.56" cy="16.62" r="1.07" id="_编组_581" data-name="&lt;编组&gt;"/></g></g><g id="_编组_582" data-name="&lt;编组&gt;"><g id="_编组_583" data-name="&lt;编组&gt;"><circle class="cls-3" cx="133.85" cy="32.08" r="1.07" id="_编组_584" data-name="&lt;编组&gt;"/></g></g><g id="_编组_585" data-name="&lt;编组&gt;"><g id="_编组_586" data-name="&lt;编组&gt;"><circle class="cls-3" cx="145.82" cy="37.01" r="1.07" id="_编组_587" data-name="&lt;编组&gt;"/></g></g><g id="_编组_588" data-name="&lt;编组&gt;"><g id="_编组_589" data-name="&lt;编组&gt;"><circle class="cls-3" cx="158.1" cy="47.15" r="1.07" id="_编组_590" data-name="&lt;编组&gt;"/></g></g><g id="_编组_591" data-name="&lt;编组&gt;"><g id="_编组_592" data-name="&lt;编组&gt;"><circle class="cls-3" cx="43.25" cy="29.96" r="1.07" id="_编组_593" data-name="&lt;编组&gt;"/></g></g><g id="_编组_594" data-name="&lt;编组&gt;"><g id="_编组_595" data-name="&lt;编组&gt;"><circle class="cls-3" cx="18.04" cy="63.14" r="1.07" id="_编组_596" data-name="&lt;编组&gt;"/></g></g></g><g id="_编组_597" data-name="&lt;编组&gt;" class="cls-2"><g id="_编组_598" data-name="&lt;编组&gt;"><g id="_编组_599" data-name="&lt;编组&gt;"><path class="cls-3" d="M212.34 460.72a55.63 55.63 0 01-15.37-2.24l.43-1.48a54.07 54.07 0 0014.94 2.18v1.5zm1.89 0v-1.54a54.25 54.25 0 0014.86-2.52v-.22l.53 1.66a55.81 55.81 0 01-15.32 2.61zm-19.14-2.8a55.59 55.59 0 01-13.95-6.92l.88-1.26a53.85 53.85 0 0013.52 6.73zm36.31-.43l-.52-1.49a53.54 53.54 0 0013.34-7v-.1.1l.87 1.2-.09.09a55.45 55.45 0 01-13.67 7.21zm15.32-8.42l-.95-1.21A54.52 54.52 0 00256.33 437l1.24.91A55.89 55.89 0 01246.75 449zM258.66 436.3l-1.27-.87a54.19 54.19 0 006.65-13.56l.07-.19v.22l1.38.48a55.51 55.51 0 01-6.84 14zm7.43-15.83l-1.48-.42a54.17 54.17 0 002.09-15h1.5a55.73 55.73 0 01-2.15 15.38zm.62-16a54 54 0 00-2.28-14.93l.64-.19.81-.25a55.65 55.65 0 012.34 15.35zm-2.84-16.76a54.33 54.33 0 00-6.81-13.47l1.26-.88a55.44 55.44 0 017 13.87zm-7.92-15a54.33 54.33 0 00-10.65-10.72l.93-1.22a55.68 55.68 0 0111 11z" transform="translate(-125.25 -328.6)" id="_编组_600" data-name="&lt;编组&gt;"/></g></g><g id="_编组_601" data-name="&lt;编组&gt;"><g id="_编组_602" data-name="&lt;编组&gt;"><path class="cls-3" d="M212.62 456.69a51.17 51.17 0 1151.17-51.17 51.23 51.23 0 01-51.17 51.17zm0-102a50.79 50.79 0 1050.79 50.79 50.84 50.84 0 00-50.79-50.75z" transform="translate(-125.25 -328.6)" id="_编组_603" data-name="&lt;编组&gt;"/></g></g><g id="_编组_604" data-name="&lt;编组&gt;"><g id="_编组_605" data-name="&lt;编组&gt;"><path class="cls-3" d="M185.6 443.67l.48.34.08.05m-2.68-2l.11.08.44.35M268 437l-14.7-8.36.05-.09.28-.51 14.78 8.13-.43.78zm.86-1.55l-14.94-7.94.31-.58 15 7.72-.42.78zm.81-1.58l-15.11-7.5c.09-.19.19-.38.28-.58l15.25 7.3-.38.8zm.77-1.61l-15.32-7.07.27-.6 15.46 6.87c-.14.3-.25.56-.38.82zm.73-1.62l-15.55-6.66c.07-.17.15-.34.21-.5l.06-.14 15.6 6.42c-.1.26-.21.51-.34.82zm.68-1.64l-15.73-6.22.23-.62 15.93 6h-.18c-.1.28-.21.54-.31.81zm.63-1.67l-15.86-5.76c.08-.21.15-.41.21-.61l16 5.55-.3.84zm.52-1.73l-16-5.31c.07-.2.13-.41.2-.61l16.09 5.08-.28.85zm.54-1.7l-16.15-4.9c.06-.21.12-.42.18-.62h.05l16.26 4.62c-.08.25-.15.52-.25.85zm.49-1.71l-16.29-4.4c.06-.21.12-.42.17-.63l16.34 4.2c-.07.29-.15.58-.22.86zm.44-1.72l-16.44-4 .15-.63 16.45 3.74c-.06.28-.13.58-.2.86zm.39-1.73l-16.51-3.48c0-.21.09-.42.13-.63l16.56 3.25-.16.79zm.34-1.74l-16.6-3c0-.22.08-.42.11-.64l16.64 2.78c0 .29-.1.58-.15.88zm.3-1.75l-16.68-2.55.09-.65 16.75 2.33c0 .29-.08.58-.13.88zm.25-1.76L259 411.41c0-.24.05-.45.08-.65l16.77 1.85c0 .3-.07.6-.11.88zm.19-1.76l-16.83-1.62c0-.21 0-.43.05-.65l16.81 1.39c0 .29-.05.58-.08.88zm.15-1.76l-16.83-1.16v-.62l-.12-.06h.16l16.85.87c0 .29 0 .59-.05.88zm.1-1.77l-16.89-.69v-.65l16.86.46v.88zm0-1.77l-16.87-.23v-.65h16.87v.88zm-16.9-1.13v-.69l16.91-.32v.88zm0-1.31v-.2-.52l16.86-.78v.88zm-.06-1.3v-.65l16.83-1.24c0 .3 0 .59.06.88zm-.09-1.3c0-.18 0-.38-.06-.62v-.07L276 399c0 .2 0 .41.06.61v.31zm-.13-1.3c0-.22 0-.43-.08-.65l16.73-2.18c0 .32.08.61.11.88zm-.17-1.29c0-.21-.05-.42-.09-.64l16.7-2.65c0 .24.07.48.11.72v.2zm-.2-1.28c0-.19-.07-.39-.12-.64l16.56-3.1.08.08c0 .26.09.54.15.82zm-.24-1.28l-.13-.64 16.5-3.57c.06.26.12.54.17.82v.08zm-.22-1.24v-.17l-.11-.5 16.39-4 .21.86zm-.31-1.26c-.05-.21-.12-.42-.17-.62l16.3-4.6.23.85zm-.35-1.25l-.18-.62 16.17-5 .25.85zm-.38-1.25c-.06-.19-.12-.39-.19-.58v-.07l16-5.39.28.85zm-.41-1.24l-.21-.58v-.06l15.83-5.83.3.83zm-.45-1.22c-.08-.21-.16-.41-.24-.61l15.66-6.27.32.83zm-.48-1.2l-.25-.6 15.45-6.81c.11.27.23.54.34.81zm-.52-1.19l-.05-.12-.23-.5 15.29-7.14.37.81zm-.55-1.18l-.25-.5-.06-.12 15.12-7.59.39.8zm-.57-1.21l-.3-.58 14.86-8c.14.26.28.52.41.78zm-.61-1.14l-.31-.56 14.64-8.39.43.78zm-.65-1.13l-.12-.19c-.08-.13-.16-.26-.24-.4l14.4-8.79.45.76zm-.68-1.11l-.32-.5V380l14.1-9.15h.16l-.11.05c.16.25.32.48.45.72zm-.71-1.09l-.37-.54 13.94-9.62v.06c.17.24.33.48.49.72zm-.74-1.07l-.38-.52 13.62-10 .51.72zm-.77-1.01l-.39-.51 13.33-10.34.54.71z" transform="translate(-125.25 -328.6)" id="_编组_606" data-name="&lt;编组&gt;"/></g></g><g id="_编组_607" data-name="&lt;编组&gt;"><g id="_编组_608" data-name="&lt;编组&gt;"><g id="_编组_609" data-name="&lt;编组&gt;"><path class="cls-3" d="M188.17 369.37c.81-.55 1.67-1.08 2.53-1.59l-1.16-2q-1.35.78-2.67 1.68l1.3 1.91z" transform="translate(-125.25 -328.6)" id="_编组_610" data-name="&lt;编组&gt;"/></g></g><g id="_编组_611" data-name="&lt;编组&gt;"><g id="_编组_612" data-name="&lt;编组&gt;"><path class="cls-3" d="M192 367c.88-.47 1.78-.92 2.68-1.32l-1-2.1c-.94.42-1.89.89-2.82 1.39l1.09 2z" transform="translate(-125.25 -328.6)" id="_编组_613" data-name="&lt;编组&gt;"/></g></g><g id="_编组_614" data-name="&lt;编组&gt;"><g id="_编组_615" data-name="&lt;编组&gt;"><path class="cls-3" d="M184.56 372.09h.09c.75-.63 1.53-1.24 2.33-1.82l-1.36-1.86c-.85.61-1.68 1.28-2.48 1.94l1.46 1.74z" transform="translate(-125.25 -328.6)" id="_编组_616" data-name="&lt;编组&gt;"/></g></g><g id="_编组_617" data-name="&lt;编组&gt;"><g id="_编组_618" data-name="&lt;编组&gt;"><path class="cls-3" d="M169 403.37c0-1 .13-2 .25-3l-2.29-.27c-.12 1-.21 2.08-.26 3.14l2.3.16z" transform="translate(-125.25 -328.6)" id="_编组_619" data-name="&lt;编组&gt;"/></g></g><g id="_编组_620" data-name="&lt;编组&gt;"><g id="_编组_621" data-name="&lt;编组&gt;"><path class="cls-3" d="M204.66 362.6c1-.18 2-.32 3-.44l-.26-2.29c-1 .12-2.08.27-3.12.46l.42 2.23z" transform="translate(-125.25 -328.6)" id="_编组_622" data-name="&lt;编组&gt;"/></g></g><g id="_编组_623" data-name="&lt;编组&gt;"><g id="_编组_624" data-name="&lt;编组&gt;"><path class="cls-3" d="M200.29 363.65c1-.28 1.93-.53 2.91-.75l-.49-2.25c-1 .22-2 .48-3 .77l-.07-.21v.24l.65 2.21z" transform="translate(-125.25 -328.6)" id="_编组_625" data-name="&lt;编组&gt;"/></g></g><g id="_编组_626" data-name="&lt;编组&gt;"><g id="_编组_627" data-name="&lt;编组&gt;"><path class="cls-3" d="M181.3 375.13c.68-.71 1.41-1.4 2.16-2.07l-1.55-1.71c-.77.69-1.53 1.43-2.27 2.18l1.65 1.61z" transform="translate(-125.25 -328.6)" id="_编组_628" data-name="&lt;编组&gt;"/></g></g><g id="_编组_629" data-name="&lt;编组&gt;"><g id="_编组_630" data-name="&lt;编组&gt;"><path class="cls-3" d="M173.54 386.09c.44-.89.92-1.78 1.42-2.63l-2-1.17c-.51.88-1 1.8-1.48 2.74v.08l2.09 1v-.05z" transform="translate(-125.25 -328.6)" id="_编组_631" data-name="&lt;编组&gt;"/></g></g><g id="_编组_632" data-name="&lt;编组&gt;"><g id="_编组_633" data-name="&lt;编组&gt;"><path class="cls-3" d="M169.57 389.44l2.18.82c.36-1 .75-1.88 1.15-2.77l-2.1-1c-.42.93-.82 1.9-1.19 2.88h-.13l.11.1z" transform="translate(-125.25 -328.6)" id="_编组_634" data-name="&lt;编组&gt;"/></g></g><g id="_编组_635" data-name="&lt;编组&gt;"><g id="_编组_636" data-name="&lt;编组&gt;"><path class="cls-3" d="M170.37 394.54c.25-1 .54-1.94.85-2.87l-2.18-.73c-.33 1-.63 2-.9 3l2.2.58z" transform="translate(-125.25 -328.6)" id="_编组_637" data-name="&lt;编组&gt;"/></g></g><g id="_编组_638" data-name="&lt;编组&gt;"><g id="_编组_639" data-name="&lt;编组&gt;"><path class="cls-3" d="M169.48 398.95c.15-1 .34-2 .55-2.94l-2.25-.51c-.23 1-.42 2.06-.58 3.1l2.24.34z" transform="translate(-125.25 -328.6)" id="_编组_640" data-name="&lt;编组&gt;"/></g></g><g id="_编组_641" data-name="&lt;编组&gt;"><g id="_编组_642" data-name="&lt;编组&gt;"><path class="cls-3" d="M175.74 382.18c.54-.85 1.11-1.68 1.69-2.47l-1.85-1.37c-.62.83-1.21 1.7-1.76 2.57v.08l2 1.24z" transform="translate(-125.25 -328.6)" id="_编组_643" data-name="&lt;编组&gt;"/></g></g><g id="_编组_644" data-name="&lt;编组&gt;"><g id="_编组_645" data-name="&lt;编组&gt;"><path class="cls-3" d="M178.34 378.51c.61-.77 1.26-1.54 1.94-2.29l-1.71-1.55c-.68.75-1.36 1.55-2 2.38v.09l1.79 1.44z" transform="translate(-125.25 -328.6)" id="_编组_646" data-name="&lt;编组&gt;"/></g></g><g id="_编组_647" data-name="&lt;编组&gt;"><g id="_编组_648" data-name="&lt;编组&gt;"><path class="cls-3" d="M196.06 365.13c.92-.38 1.86-.72 2.81-1l-.72-2.18c-1 .33-2 .69-2.92 1.08l-.06-.11v.08l.87 2.11z" transform="translate(-125.25 -328.6)" id="_编组_649" data-name="&lt;编组&gt;"/></g></g><g id="_编组_650" data-name="&lt;编组&gt;"><g id="_编组_651" data-name="&lt;编组&gt;"><path class="cls-3" d="M250.52 383.88c.48.85 1 1.74 1.4 2.65l2.08-1c-.45-.95-1-1.88-1.47-2.79l-2 1.13z" transform="translate(-125.25 -328.6)" id="_编组_652" data-name="&lt;编组&gt;"/></g></g><g id="_编组_653" data-name="&lt;编组&gt;"><g id="_编组_654" data-name="&lt;编组&gt;"><path class="cls-3" d="M248.1 380.11c.59.83 1.15 1.67 1.66 2.49l2-1.21c-.55-.88-1.14-1.77-1.75-2.62l-1.88 1.35z" transform="translate(-125.25 -328.6)" id="_编组_655" data-name="&lt;编组&gt;"/></g></g><g id="_编组_656" data-name="&lt;编组&gt;"><g id="_编组_657" data-name="&lt;编组&gt;"><path class="cls-3" d="M252.54 387.85c.4.91.78 1.84 1.11 2.77l2.17-.79c-.35-1-.75-2-1.17-2.93l-2.08.92z" transform="translate(-125.25 -328.6)" id="_编组_658" data-name="&lt;编组&gt;"/></g></g><g id="_编组_659" data-name="&lt;编组&gt;"><g id="_编组_660" data-name="&lt;编组&gt;"><path class="cls-3" d="M256 400.81c.1 1 .18 2 .22 3l2.31-.08c0-1.06-.12-2.12-.23-3.14z" transform="translate(-125.25 -328.6)" id="_编组_661" data-name="&lt;编组&gt;"/></g></g><g id="_编组_662" data-name="&lt;编组&gt;"><g id="_编组_663" data-name="&lt;编组&gt;"><path class="cls-3" d="M245.3 376.6c.65.73 1.28 1.51 1.91 2.31l1.82-1.41c-.65-.84-1.32-1.65-2-2.43l-1.72 1.53z" transform="translate(-125.25 -328.6)" id="_编组_664" data-name="&lt;编组&gt;"/></g></g><g id="_编组_665" data-name="&lt;编组&gt;"><g id="_编组_666" data-name="&lt;编组&gt;"><path class="cls-3" d="M255.31 396.44c.21 1 .38 2 .51 2.92l2.29-.32c-.15-1-.33-2.09-.55-3.11l-2.57.54h.34z" transform="translate(-125.25 -328.6)" id="_编组_667" data-name="&lt;编组&gt;"/></g></g><g id="_编组_668" data-name="&lt;编组&gt;"><g id="_编组_669" data-name="&lt;编组&gt;"><path class="cls-3" d="M254.14 392.07c.31 1 .58 1.92.82 2.88l2.24-.55c-.25-1-.55-2-.87-3l-2.19.71z" transform="translate(-125.25 -328.6)" id="_编组_670" data-name="&lt;编组&gt;"/></g></g><g id="_编组_671" data-name="&lt;编组&gt;"><g id="_编组_672" data-name="&lt;编组&gt;"><path class="cls-3" d="M229.62 365.32l.9-2.12c-1-.42-2-.79-2.94-1.13l-.75 2.18c.91.31 1.86.67 2.79 1.07z" transform="translate(-125.25 -328.6)" id="_编组_673" data-name="&lt;编组&gt;"/></g></g><g id="_编组_674" data-name="&lt;编组&gt;"><g id="_编组_675" data-name="&lt;编组&gt;"><path class="cls-3" d="M222.53 363c1 .22 1.93.48 2.87.77l.68-2.21c-1-.31-2-.58-3-.81l-.61 2.25v.16z" transform="translate(-125.25 -328.6)" id="_编组_676" data-name="&lt;编组&gt;"/></g></g><g id="_编组_677" data-name="&lt;编组&gt;"><g id="_编组_678" data-name="&lt;编组&gt;"><path class="cls-3" d="M242.13 373.37c.74.68 1.46 1.38 2.14 2.1l1.68-1.58c-.72-.76-1.48-1.51-2.24-2.21l-1.54 1.67z" transform="translate(-125.25 -328.6)" id="_编组_679" data-name="&lt;编组&gt;"/></g></g><g id="_编组_680" data-name="&lt;编组&gt;"><g id="_编组_681" data-name="&lt;编组&gt;"><path class="cls-3" d="M238.69 370.47c.8.59 1.59 1.22 2.34 1.87l1.51-1.75c-.79-.68-1.62-1.35-2.44-2v-.1z" transform="translate(-125.25 -328.6)" id="_编组_682" data-name="&lt;编组&gt;"/></g></g><g id="_编组_683" data-name="&lt;编组&gt;"><g id="_编组_684" data-name="&lt;编组&gt;"><path class="cls-3" d="M237.48 369.65l1.32-1.9c-.85-.59-1.74-1.17-2.64-1.71l-1.18 2c.84.5 1.69 1.04 2.5 1.61z" transform="translate(-125.25 -328.6)" id="_编组_685" data-name="&lt;编组&gt;"/></g></g><g id="_编组_686" data-name="&lt;编组&gt;"><g id="_编组_687" data-name="&lt;编组&gt;"><path class="cls-3" d="M233.67 367.28l1.11-2c-.92-.51-1.86-1-2.81-1.43l-1 2.05v.18l.05-.12c.89.39 1.77.84 2.65 1.32z" transform="translate(-125.25 -328.6)" id="_编组_688" data-name="&lt;编组&gt;"/></g></g><g id="_编组_689" data-name="&lt;编组&gt;"><g id="_编组_690" data-name="&lt;编组&gt;"><path class="cls-3" d="M171.81 421c-.35-.91-.66-1.85-1-2.8l-2.21.67c.3 1 .65 2 1 3l2.12-.8z" transform="translate(-125.25 -328.6)" id="_编组_691" data-name="&lt;编组&gt;"/></g></g><g id="_编组_692" data-name="&lt;编组&gt;"><g id="_编组_693" data-name="&lt;编组&gt;"><path class="cls-3" d="M254.21 418.78c-.3.94-.64 1.88-1 2.82l2.11.84c.38-1 .74-2 1.06-3l-2.19-.7z" transform="translate(-125.25 -328.6)" id="_编组_694" data-name="&lt;编组&gt;"/></g></g><g id="_编组_695" data-name="&lt;编组&gt;"><g id="_编组_696" data-name="&lt;编组&gt;"><path class="cls-3" d="M256 410c-.1 1-.24 2-.4 3l2.27.39c.18-1 .32-2.09.43-3.13L256 410z" transform="translate(-125.25 -328.6)" id="_编组_697" data-name="&lt;编组&gt;"/></g></g><g id="_编组_698" data-name="&lt;编组&gt;"><g id="_编组_699" data-name="&lt;编组&gt;"><path class="cls-3" d="M256.26 405.29v.23c0 1 0 2-.1 3l2.31.15c.07-1 .11-2.08.11-3.14v-.24h-2.31z" transform="translate(-125.25 -328.6)" id="_编组_700" data-name="&lt;编组&gt;"/></g></g><g id="_编组_701" data-name="&lt;编组&gt;"><g id="_编组_702" data-name="&lt;编组&gt;"><path class="cls-3" d="M255.34 414.44c-.21 1-.45 2-.71 2.91l2.21.62c.28-1 .53-2 .75-3.06l-2.26-.47z" transform="translate(-125.25 -328.6)" id="_编组_703" data-name="&lt;编组&gt;"/></g></g><g id="_编组_704" data-name="&lt;编组&gt;"><g id="_编组_705" data-name="&lt;编组&gt;"><path class="cls-3" d="M175.83 429q-.82-1.28-1.52-2.57l-2 1.11c.5.91 1 1.83 1.61 2.71l1.94-1.25z" transform="translate(-125.25 -328.6)" id="_编组_706" data-name="&lt;编组&gt;"/></g></g><g id="_编组_707" data-name="&lt;编组&gt;"><g id="_编组_708" data-name="&lt;编组&gt;"><path class="cls-3" d="M173.61 425.09c-.44-.88-.86-1.8-1.25-2.71l-2.13.89c.41 1 .85 1.92 1.31 2.86l2-1z" transform="translate(-125.25 -328.6)" id="_编组_709" data-name="&lt;编组&gt;"/></g></g><g id="_编组_710" data-name="&lt;编组&gt;"><g id="_编组_711" data-name="&lt;编组&gt;"><path class="cls-3" d="M170.43 416.69c-.25-1-.48-1.93-.66-2.89l-2.26.43c.19 1 .43 2.05.7 3.07l2.44-.65h-.27z" transform="translate(-125.25 -328.6)" id="_编组_712" data-name="&lt;编组&gt;"/></g></g><g id="_编组_713" data-name="&lt;编组&gt;"><g id="_编组_714" data-name="&lt;编组&gt;"><path class="cls-3" d="M169.52 412.37c-.15-1-.28-2-.36-3l-2.3.2c.09 1 .22 2.1.38 3.13z" transform="translate(-125.25 -328.6)" id="_编组_715" data-name="&lt;编组&gt;"/></g></g><g id="_编组_716" data-name="&lt;编组&gt;"><g id="_编组_717" data-name="&lt;编组&gt;"><path class="cls-3" d="M169.05 407.9c0-.78-.06-1.56-.06-2.34v-.65h-2.31v.68c0 .82 0 1.65.07 2.47z" transform="translate(-125.25 -328.6)" id="_编组_718" data-name="&lt;编组&gt;"/></g></g></g><g id="_编组_719" data-name="&lt;编组&gt;"><g id="_编组_720" data-name="&lt;编组&gt;"><path class="cls-3" d="M212.62 482.43a77.55 77.55 0 01-13.9-1.25l.07-.38a76.91 76.91 0 0013.83 1.2 76.12 76.12 0 0029-5.7l.15.36a76.61 76.61 0 01-29.15 5.77zm-15.39-1.54a76.57 76.57 0 01-38.27-20.28l.27-.27a76.27 76.27 0 0038.08 20.19h.21-.22zm46-4.77l-.15-.36a76.52 76.52 0 0033.11-27.6l.32.21a77.23 77.23 0 01-33.28 27.73zm-85.34-16.59a76.66 76.66 0 01-20.5-38.16l.38-.08a76.32 76.32 0 0020.39 38zm119.44-12.43l-.32-.21a76.65 76.65 0 006.84-69.36l.35-.15a77.06 77.06 0 01-6.88 69.71zM137 419.87a77.54 77.54 0 01-1.33-14.33 76.44 76.44 0 015.57-28.79l.36.14a76 76 0 00-5.54 28.65 77.44 77.44 0 001.32 14.25zm146.27-43.74a76.52 76.52 0 00-27.11-33.52l.22-.32a77.3 77.3 0 0127.25 33.68zm-141.1-.65l-.35-.15a77.2 77.2 0 0127.55-33.44l.22.32a76.58 76.58 0 00-27.43 33.26zm112.72-33.74A76.2 76.2 0 00213.73 329v-.39a76.66 76.66 0 0141.38 12.8zm-84-.39l-.2-.31a76.61 76.61 0 0141.49-12.41v.37a76.17 76.17 0 00-41.29 12.35z" transform="translate(-125.25 -328.6)" id="_编组_721" data-name="&lt;编组&gt;"/></g></g><g id="_编组_722" data-name="&lt;编组&gt;"><g id="_编组_723" data-name="&lt;编组&gt;"><path class="cls-3" d="M213.31 470v-.32a63.92 63.92 0 0034.56-10.55l.18.27a64.18 64.18 0 01-34.71 10.6zM187 464.8v-.07a64.65 64.65 0 01-27.93-23.18l.27-.18a64.17 64.17 0 0027.8 23.08l-.11.26zm79.83-24.43l-.28-.17a64.34 64.34 0 006.3-56.65l.31-.11a64.61 64.61 0 01-6.33 56.93zm-117.72-23.61a64.93 64.93 0 01-1-11.21 64.16 64.16 0 015-24.88l.3.13a64.44 64.44 0 00-4 35.9zM258.8 361a64 64 0 00-31.39-17.89l.08-.32a64.42 64.42 0 0117.2 6.79A65.09 65.09 0 01259 360.74zm-90.24-2.1l-.22-.23a64.23 64.23 0 0132.34-16.48l.06.32a64 64 0 00-32.19 16.41z" transform="translate(-125.25 -328.6)" id="_编组_724" data-name="&lt;编组&gt;"/></g></g><g id="_编组_725" data-name="&lt;编组&gt;"><g id="_编组_726" data-name="&lt;编组&gt;"><path class="cls-3" d="M212.62 476.42a71.56 71.56 0 01-12.25-1.05l.06-.35a71.25 71.25 0 0012.19 1 70.12 70.12 0 0027.3-5.47l.14.33a70.47 70.47 0 01-27.44 5.54zm27.43-5.5l-.14-.33a70.54 70.54 0 0011.48-6.13l.2.3a70.94 70.94 0 01-11.54 6.16zm-67-6.55a71.34 71.34 0 01-10.13-8.27l.25-.25a71 71 0 0010.08 8.23zm-10.13-8.27a70.67 70.67 0 01-19.47-34.86l.35-.08a70.32 70.32 0 0019.37 34.69zm109.35-12.27l-.3-.19a70.67 70.67 0 005.2-66.58 70.64 70.64 0 00-6.33-11.37l.29-.2a71 71 0 016.36 11.42 71 71 0 01-5.2 66.92zm-128.9-52l-.35-.07a70.59 70.59 0 013.7-12.55l.33.13a70.23 70.23 0 00-3.66 12.54zm3.68-12.48l-.33-.13a70.92 70.92 0 0124.64-31.43l.21.29a70.57 70.57 0 00-24.5 31.31zm102.61-33.92A70.39 70.39 0 00212.62 335h-1.26v-.35h1.27a70.74 70.74 0 0137.24 10.56zm-51.25-9.08l-.07-.35a71.29 71.29 0 0113-1.42v.42a70.93 70.93 0 00-12.91 1.4z" transform="translate(-125.25 -328.6)" id="_编组_727" data-name="&lt;编组&gt;"/></g></g><g id="_编组_728" data-name="&lt;编组&gt;"><g id="_编组_729" data-name="&lt;编组&gt;"><path class="cls-3" d="M257.78 405.21v.3a45 45 0 01-21.12 38.24l-.26.16 24.92 39.53.26-.16a91.47 91.47 0 0042.93-77.77v-.3h-46.73zm3.73 77.4l-24.27-38.5a45.59 45.59 0 0021.15-38.29h45.51a90.87 90.87 0 01-42.38 76.79z" transform="translate(-125.25 -328.6)" id="_编组_730" data-name="&lt;编组&gt;"/></g></g><g id="_编组_731" data-name="&lt;编组&gt;"><g id="_编组_732" data-name="&lt;编组&gt;"><g id="_编组_733" data-name="&lt;编组&gt;"><path class="cls-3" d="M131.7 358.92q.56-1 1.14-1.9l.39-.63" transform="translate(-125.25 -328.6)" id="_编组_734" data-name="&lt;编组&gt;"/></g></g><g id="_编组_735" data-name="&lt;编组&gt;"><g id="_编组_736" data-name="&lt;编组&gt;"><path class="cls-3" d="M305.42 393.71l.09.74 7.63-.95-.1-.79-2.4.31 2.4-.31q-.16-1.19-.34-2.37l-7.6 1.17q.17 1.1.32 2.2z" transform="translate(-125.25 -328.6)" id="_编组_737" data-name="&lt;编组&gt;"/></g></g><g id="_编组_738" data-name="&lt;编组&gt;"><g id="_编组_739" data-name="&lt;编组&gt;"><path class="cls-3" d="M305.89 398.12l.06.74 7.66-.58-.06-.79-3.92.32 3.91-.33q-.1-1.2-.23-2.38l-7.64.81q.12 1.09.22 2.21z" transform="translate(-125.25 -328.6)" id="_编组_740" data-name="&lt;编组&gt;"/></g></g><g id="_编组_741" data-name="&lt;编组&gt;"><g id="_编组_742" data-name="&lt;编组&gt;"><path class="cls-3" d="M145.73 471.42l-2.19 2.14 2.19-2.15-.51-.53-5.54 5.33.56.57q.84.86 1.69 1.69l5.37-5.5q-.79-.76-1.57-1.55z" transform="translate(-125.25 -328.6)" id="_编组_743" data-name="&lt;编组&gt;"/></g></g><g id="_编组_744" data-name="&lt;编组&gt;"><g id="_编组_745" data-name="&lt;编组&gt;"><path class="cls-3" d="M263.63 484.44l2.08 3.2-2.09-3.2-.61.39 4.13 6.48.68-.44q1-.65 2-1.33l-4.35-6.34q-.92.64-1.84 1.24z" transform="translate(-125.25 -328.6)" id="_编组_746" data-name="&lt;编组&gt;"/></g></g><g id="_编组_747" data-name="&lt;编组&gt;"><g id="_编组_748" data-name="&lt;编组&gt;"><path class="cls-3" d="M280.59 470.3l-.51.53 5.54 5.33.55-.58q.83-.87 1.63-1.76l-5.71-5.15q-.74.83-1.5 1.63z" transform="translate(-125.25 -328.6)" id="_编组_749" data-name="&lt;编组&gt;"/></g></g><g id="_编组_750" data-name="&lt;编组&gt;"><g id="_编组_751" data-name="&lt;编组&gt;"><path class="cls-3" d="M267.28 481.94l2.25 3.12-2.25-3.12-.6.43 4.44 6.27.65-.46q1-.7 1.92-1.42l-4.64-6.13q-.88.66-1.77 1.31z" transform="translate(-125.25 -328.6)" id="_编组_752" data-name="&lt;编组&gt;"/></g></g><g id="_编组_753" data-name="&lt;编组&gt;"><g id="_编组_754" data-name="&lt;编组&gt;"><path class="cls-3" d="M258 487.86q-1 .53-1.94 1l2.31 4.4-2.31-4.4-.65.34 3.52 6.83.71-.37q1.06-.56 2.1-1.13z" transform="translate(-125.25 -328.6)" id="_编组_755" data-name="&lt;编组&gt;"/></g></g><g id="_编组_756" data-name="&lt;编组&gt;"><g id="_编组_757" data-name="&lt;编组&gt;"><path class="cls-3" d="M252.05 490.86l-.67.31 3.19 7 .72-.33-1.37-2.94 1.37 2.94q1.09-.51 2.16-1l-3.45-6.93q-.95.49-1.95.95z" transform="translate(-125.25 -328.6)" id="_编组_758" data-name="&lt;编组&gt;"/></g></g><g id="_编组_759" data-name="&lt;编组&gt;"><g id="_编组_760" data-name="&lt;编组&gt;"><path class="cls-3" d="M270.81 479.27l-.58.46 4.74 6.05.62-.49q.94-.75 1.86-1.51l-4.92-5.9q-.86.7-1.72 1.39z" transform="translate(-125.25 -328.6)" id="_编组_761" data-name="&lt;编组&gt;"/></g></g><g id="_编组_762" data-name="&lt;编组&gt;"><g id="_编组_763" data-name="&lt;编组&gt;"><path class="cls-3" d="M274.21 476.43l-.57.49 5 5.82.59-.51-1.83-2.1 1.83 2.1q.9-.79 1.78-1.6l-5.16-5.63q-.85.7-1.64 1.43z" transform="translate(-125.25 -328.6)" id="_编组_764" data-name="&lt;编组&gt;"/></g></g><g id="_编组_765" data-name="&lt;编组&gt;"><g id="_编组_766" data-name="&lt;编组&gt;"><path class="cls-3" d="M259.87 486.76l-.64.37 3.84 6.66.68-.4-1.94-3.32 1.94 3.32q1-.6 2-1.23l-4-6.54z" transform="translate(-125.25 -328.6)" id="_编组_767" data-name="&lt;编组&gt;"/></g></g><g id="_编组_768" data-name="&lt;编组&gt;"><g id="_编组_769" data-name="&lt;编组&gt;"><path class="cls-3" d="M226.71 498.49l.58 3.83-.58-3.83-.73.11 1.08 7.61.79-.12 2.36-.39-1.32-7.57z" transform="translate(-125.25 -328.6)" id="_编组_770" data-name="&lt;编组&gt;"/></g></g><g id="_编组_771" data-name="&lt;编组&gt;"><g id="_编组_772" data-name="&lt;编组&gt;"><path class="cls-3" d="M231.07 497.73l.72 3.58-.72-3.58-.72.14 1.44 7.55.79-.15q1.18-.24 2.34-.5l-1.68-7.5z" transform="translate(-125.25 -328.6)" id="_编组_773" data-name="&lt;编组&gt;"/></g></g><g id="_编组_774" data-name="&lt;编组&gt;"><g id="_编组_775" data-name="&lt;编组&gt;"><path class="cls-3" d="M248 492.63l-.68.27 2.83 7.15.75-.3-1.68-4.12 1.69 4.12q1.11-.45 2.2-.93l-3.08-7z" transform="translate(-125.25 -328.6)" id="_编组_776" data-name="&lt;编组&gt;"/></g></g><g id="_编组_777" data-name="&lt;编组&gt;"><g id="_编组_778" data-name="&lt;编组&gt;"><path class="cls-3" d="M235.39 496.76l1 4.1-1-4.1-.71.17 1.8 7.47.78-.19 2.31-.61-2-7.41z" transform="translate(-125.25 -328.6)" id="_编组_779" data-name="&lt;编组&gt;"/></g></g><g id="_编组_780" data-name="&lt;编组&gt;"><g id="_编组_781" data-name="&lt;编组&gt;"><path class="cls-3" d="M239.67 495.58l-.71.21 2.16 7.38.76-.23-1.16-3.86 1.17 3.86 2.28-.72-2.39-7.31z" transform="translate(-125.25 -328.6)" id="_编组_782" data-name="&lt;编组&gt;"/></g></g><g id="_编组_783" data-name="&lt;编组&gt;"><g id="_编组_784" data-name="&lt;编组&gt;"><path class="cls-3" d="M303.62 427.9l-.18.72 7.46 1.85.19-.77-4.08-1 4.08 1q.28-1.16.53-2.34l-7.51-1.62q-.23 1.09-.49 2.16z" transform="translate(-125.25 -328.6)" id="_编组_785" data-name="&lt;编组&gt;"/></g></g><g id="_编组_786" data-name="&lt;编组&gt;"><g id="_编组_787" data-name="&lt;编组&gt;"><path class="cls-3" d="M302.49 432.18l-.21.71 7.36 2.21.23-.76-3.68-1.08 3.68 1.07q.33-1.15.64-2.31l-7.43-2q-.28 1.1-.59 2.16z" transform="translate(-125.25 -328.6)" id="_编组_788" data-name="&lt;编组&gt;"/></g></g><g id="_编组_789" data-name="&lt;编组&gt;"><g id="_编组_790" data-name="&lt;编组&gt;"><path class="cls-3" d="M305.8 414.81l-.07.73 7.65.79.08-.8-3.83-.36 3.83.36q.11-1.19.2-2.39l-7.66-.54-.2 2.21z" transform="translate(-125.25 -328.6)" id="_编组_791" data-name="&lt;编组&gt;"/></g></g><g id="_编组_792" data-name="&lt;编组&gt;"><g id="_编组_793" data-name="&lt;编组&gt;"><path class="cls-3" d="M222.32 499.05l.39 3.82-.39-3.82-.73.07.72 7.65.8-.08 2.38-.27-1-7.63z" transform="translate(-125.25 -328.6)" id="_编组_794" data-name="&lt;编组&gt;"/></g></g><g id="_编组_795" data-name="&lt;编组&gt;"><g id="_编组_796" data-name="&lt;编组&gt;"><path class="cls-3" d="M297.86 444.67l-.31.67 7 3.24.33-.73-3.5-1.59 3.5 1.59q.5-1.09 1-2.2l-7.07-3q-.49 1.01-.95 2.02z" transform="translate(-125.25 -328.6)" id="_编组_797" data-name="&lt;编组&gt;"/></g></g><g id="_编组_798" data-name="&lt;编组&gt;"><g id="_编组_799" data-name="&lt;编组&gt;"><path class="cls-3" d="M286.37 463.59l4.11 3.22-4.12-3.22-.46.58 6 4.78.49-.63q.74-.94 1.46-1.91l-6.17-4.59q-.63.89-1.31 1.77z" transform="translate(-125.25 -328.6)" id="_编组_800" data-name="&lt;编组&gt;"/></g></g><g id="_编组_801" data-name="&lt;编组&gt;"><g id="_编组_802" data-name="&lt;编组&gt;"><path class="cls-3" d="M299.6 440.58l-.28.69 7.12 2.9.3-.74-3.57-1.43 3.57 1.42q.44-1.11.86-2.24l-7.21-2.68q-.39 1.05-.79 2.08z" transform="translate(-125.25 -328.6)" id="_编组_803" data-name="&lt;编组&gt;"/></g></g><g id="_编组_804" data-name="&lt;编组&gt;"><g id="_编组_805" data-name="&lt;编组&gt;"><path class="cls-3" d="M291.5 456.36l.56.36-.56-.36-.4.62 6.44 4.2.43-.67q.65-1 1.27-2l-6.57-4q-.58.91-1.17 1.85z" transform="translate(-125.25 -328.6)" id="_编组_806" data-name="&lt;编组&gt;"/></g></g><g id="_编组_807" data-name="&lt;编组&gt;"><g id="_编组_808" data-name="&lt;编组&gt;"><path class="cls-3" d="M293.8 452.56l-.38.65 6.64 3.87.39-.68-2.81-1.62 2.81 1.62q.6-1 1.17-2.09l-6.75-3.68q-.51.97-1.07 1.93z" transform="translate(-125.25 -328.6)" id="_编组_809" data-name="&lt;编组&gt;"/></g></g><g id="_编组_810" data-name="&lt;编组&gt;"><g id="_编组_811" data-name="&lt;编组&gt;"><path class="cls-3" d="M217.9 499.4h-.73l.36 7.68h.8l2.39-.16-.61-7.66z" transform="translate(-125.25 -328.6)" id="_编组_812" data-name="&lt;编组&gt;"/></g></g><g id="_编组_813" data-name="&lt;编组&gt;"><g id="_编组_814" data-name="&lt;编组&gt;"><path class="cls-3" d="M148.9 474.51l-2.12 2.28 2.12-2.28-.53-.5-5.29 5.58.59.55q.87.81 1.77 1.61l5.1-5.75q-.83-.74-1.64-1.49z" transform="translate(-125.25 -328.6)" id="_编组_815" data-name="&lt;编组&gt;"/></g></g><g id="_编组_816" data-name="&lt;编组&gt;"><g id="_编组_817" data-name="&lt;编组&gt;"><path class="cls-3" d="M29.84 151.17l-4.73 6.06.63.49 4.68-6.1-.58-.45z" id="_编组_818" data-name="&lt;编组&gt;"/></g></g><g id="_编组_819" data-name="&lt;编组&gt;"><g id="_编组_820" data-name="&lt;编组&gt;"><path class="cls-3" d="M139.84 464.81l-.46-.58-6 4.79.49.62 2.5-2-2.5 2q.75.93 1.53 1.84l5.86-5q-.72-.81-1.42-1.67z" transform="translate(-125.25 -328.6)" id="_编组_821" data-name="&lt;编组&gt;"/></g></g><g id="_编组_822" data-name="&lt;编组&gt;"><g id="_编组_823" data-name="&lt;编组&gt;"><path class="cls-3" d="M155.67 480.23l-4.68 6.1q1 .73 1.92 1.44l4.54-6.2q-.9-.66-1.78-1.34z" transform="translate(-125.25 -328.6)" id="_编组_824" data-name="&lt;编组&gt;"/></g></g><g id="_编组_825" data-name="&lt;编组&gt;"><g id="_编组_826" data-name="&lt;编组&gt;"><path class="cls-3" d="M162.95 485.29l-.63-.4-4.12 6.49.67.42 2.39-3.81-2.39 3.81q1 .64 2 1.25l3.93-6.61q-.91-.56-1.85-1.15z" transform="translate(-125.25 -328.6)" id="_编组_827" data-name="&lt;编组&gt;"/></g></g><g id="_编组_828" data-name="&lt;编组&gt;"><g id="_编组_829" data-name="&lt;编组&gt;"><path class="cls-3" d="M134.61 457.68l-.41-.62-6.43 4.22.43.65 2.88-1.91-2.88 1.91q.66 1 1.35 2l6.3-4.4q-.63-.93-1.24-1.85z" transform="translate(-125.25 -328.6)" id="_编组_830" data-name="&lt;编组&gt;"/></g></g><g id="_编组_831" data-name="&lt;编组&gt;"><g id="_编组_832" data-name="&lt;编组&gt;"><path class="cls-3" d="M132.25 453.94l-2.67 1.6 2.67-1.6-.37-.63-6.63 3.89.41.69q.61 1 1.25 2l6.5-4.1q-.59-.9-1.16-1.85z" transform="translate(-125.25 -328.6)" id="_编组_833" data-name="&lt;编组&gt;"/></g></g><g id="_编组_834" data-name="&lt;编组&gt;"><g id="_编组_835" data-name="&lt;编组&gt;"><path class="cls-3" d="M170.68 489.65l-.66-.33-3.5 6.84.71.36 1.61-3.2-1.61 3.2q1.07.54 2.16 1.05l3.28-6.95z" transform="translate(-125.25 -328.6)" id="_编组_836" data-name="&lt;编组&gt;"/></g></g><g id="_编组_837" data-name="&lt;编组&gt;"><g id="_编组_838" data-name="&lt;编组&gt;"><path class="cls-3" d="M204.33 502.65l.29-3.44-.74-.07-.7 7.66.79.07q1.19.1 2.39.17l.47-7.67-2.21-.16z" transform="translate(-125.25 -328.6)" id="_编组_839" data-name="&lt;编组&gt;"/></g></g><g id="_编组_840" data-name="&lt;编组&gt;"><g id="_编组_841" data-name="&lt;编组&gt;"><path class="cls-3" d="M213.47 499.54h-.73v7.69H215.93l-.25-7.68z" transform="translate(-125.25 -328.6)" id="_编组_842" data-name="&lt;编组&gt;"/></g></g><g id="_编组_843" data-name="&lt;编组&gt;"><g id="_编组_844" data-name="&lt;编组&gt;"><path class="cls-3" d="M209 499.48h-.74l-.26 7.65h.79l.14-3.79-.14 3.79 2.39.06.11-7.69-2.22-.06z" transform="translate(-125.25 -328.6)" id="_编组_845" data-name="&lt;编组&gt;"/></g></g><g id="_编组_846" data-name="&lt;编组&gt;"><g id="_编组_847" data-name="&lt;编组&gt;"><path class="cls-3" d="M178.8 493.25l-.68-.27-2.85 7.14.75.3 1.39-3.57-1.41 3.57 2.25.84 2.61-7.23z" transform="translate(-125.25 -328.6)" id="_编组_848" data-name="&lt;编组&gt;"/></g></g><g id="_编组_849" data-name="&lt;编组&gt;"><g id="_编组_850" data-name="&lt;编组&gt;"><path class="cls-3" d="M174.69 491.54l-.86 1.93.86-1.93-.67-.3-3.18 7 .73.33q1.1.49 2.21 1l2.95-7.1q-1.02-.47-2.04-.93z" transform="translate(-125.25 -328.6)" id="_编组_851" data-name="&lt;编组&gt;"/></g></g><g id="_编组_852" data-name="&lt;编组&gt;"><g id="_编组_853" data-name="&lt;编组&gt;"><path class="cls-3" d="M199.48 498.63l-1.06 7.61.79.11.51-3.81-.5 3.82 2.38.29.83-7.64-2.2-.26z" transform="translate(-125.25 -328.6)" id="_编组_854" data-name="&lt;编组&gt;"/></g></g><g id="_编组_855" data-name="&lt;编组&gt;"><g id="_编组_856" data-name="&lt;编组&gt;"><path class="cls-3" d="M187.21 496.06l-1.1 3.93 1.1-3.93-.7-.2-2.14 7.38.77.22q1.15.32 2.31.62l1.91-7.45z" transform="translate(-125.25 -328.6)" id="_编组_857" data-name="&lt;编组&gt;"/></g></g><g id="_编组_858" data-name="&lt;编组&gt;"><g id="_编组_859" data-name="&lt;编组&gt;"><path class="cls-3" d="M190.78 497l-1.78 7.46.77.18.86-3.73-.86 3.73 2.34.51 1.55-7.53-2.16-.47z" transform="translate(-125.25 -328.6)" id="_编组_860" data-name="&lt;编组&gt;"/></g></g></g><g id="_编组_861" data-name="&lt;编组&gt;"><g id="_编组_862" data-name="&lt;编组&gt;"><path class="cls-3" d="M129.63 143.96l.13 5.73-5.02-2.75 4.89-2.98z" id="_编组_863" data-name="&lt;编组&gt;"/></g></g><g id="_编组_864" data-name="&lt;编组&gt;"><g id="_编组_865" data-name="&lt;编组&gt;"><circle class="cls-3" cx="120.02" cy="32.74" r="2.78" id="_编组_866" data-name="&lt;编组&gt;"/></g></g><g id="_编组_867" data-name="&lt;编组&gt;"><g id="_编组_868" data-name="&lt;编组&gt;"><circle class="cls-3" cx="56.47" cy="121.99" r="2.78" id="_编组_869" data-name="&lt;编组&gt;"/></g></g><g id="_编组_870" data-name="&lt;编组&gt;"><g id="_编组_871" data-name="&lt;编组&gt;"><circle class="cls-3" cx="43.69" cy="13.81" r="1.07" id="_编组_872" data-name="&lt;编组&gt;"/></g></g><g id="_编组_873" data-name="&lt;编组&gt;"><g id="_编组_874" data-name="&lt;编组&gt;"><circle class="cls-3" cx="102.36" cy="14.12" r="1.07" id="_编组_875" data-name="&lt;编组&gt;"/></g></g><g id="_编组_876" data-name="&lt;编组&gt;"><g id="_编组_877" data-name="&lt;编组&gt;"><circle class="cls-3" cx="124.56" cy="16.62" r="1.07" id="_编组_878" data-name="&lt;编组&gt;"/></g></g><g id="_编组_879" data-name="&lt;编组&gt;"><g id="_编组_880" data-name="&lt;编组&gt;"><circle class="cls-3" cx="133.85" cy="32.08" r="1.07" id="_编组_881" data-name="&lt;编组&gt;"/></g></g><g id="_编组_882" data-name="&lt;编组&gt;"><g id="_编组_883" data-name="&lt;编组&gt;"><circle class="cls-3" cx="145.82" cy="37.01" r="1.07" id="_编组_884" data-name="&lt;编组&gt;"/></g></g><g id="_编组_885" data-name="&lt;编组&gt;"><g id="_编组_886" data-name="&lt;编组&gt;"><circle class="cls-3" cx="158.1" cy="47.15" r="1.07" id="_编组_887" data-name="&lt;编组&gt;"/></g></g><g id="_编组_888" data-name="&lt;编组&gt;"><g id="_编组_889" data-name="&lt;编组&gt;"><circle class="cls-3" cx="43.25" cy="29.96" r="1.07" id="_编组_890" data-name="&lt;编组&gt;"/></g></g><g id="_编组_891" data-name="&lt;编组&gt;"><g id="_编组_892" data-name="&lt;编组&gt;"><circle class="cls-3" cx="18.04" cy="63.14" r="1.07" id="_编组_893" data-name="&lt;编组&gt;"/></g></g></g></g><g id="_编组_894" data-name="&lt;编组&gt;"><g id="_编组_895" data-name="&lt;编组&gt;" class="cls-2"><circle id="_路径_" data-name="&lt;路径&gt;" class="cls-3" cx="87.94" cy="77.57" r="32.42"/></g><g id="_编组_896" data-name="&lt;编组&gt;" class="cls-2"><circle id="_路径_2" data-name="&lt;路径&gt;" class="cls-3" cx="87.94" cy="77.57" r="32.42"/></g><g id="_编组_897" data-name="&lt;编组&gt;" class="cls-2"><circle id="_路径_3" data-name="&lt;路径&gt;" class="cls-3" cx="87.94" cy="77.57" r="32.42"/></g></g></g></g></g></svg>