<svg preserveAspectRatio="none" id="Layer_1" data-name="Layer 1" xmlns="http://www.w3.org/2000/svg" viewBox="0 0 662 662"><defs><style>.cls-1{fill:#76e5ff}.cls-2{fill:#065876}.cls-3{fill:#08b3ea}.cls-4{fill:#251d4f}.cls-5{fill:#ff6d00}</style></defs><path class="cls-1" d="M956.48 611.49a37.12 37.12 0 1037.12 37.12 37.12 37.12 0 00-37.12-37.12zm0 68.55a31.43 31.43 0 1131.43-31.43A31.43 31.43 0 01956.48 680z" transform="translate(-377.66 -235.93)"/><path class="cls-2" d="M708.66 235.93c-182.81 0-331 148.19-331 331s148.19 331 331 331 331-148.2 331-331-148.19-331-331-331zm0 646.7c-174.36 0-315.7-141.34-315.7-315.7s141.34-315.7 315.7-315.7 315.7 141.34 315.7 315.7-141.36 315.7-315.7 315.7z" transform="translate(-377.66 -235.93)"/><path class="cls-2" d="M708.66 431.34a135.58 135.58 0 10135.59 135.59 135.58 135.58 0 00-135.59-135.59zm0 264.9A129.32 129.32 0 11838 566.93a129.32 129.32 0 01-129.34 129.32z" transform="translate(-377.66 -235.93)"/><path class="cls-1" d="M342.79 265.93l-1.32-.14.59-8.65 1.96.21-1.23 8.58zM349.54 267.45l-1.3-.27 1.48-8.54 1.93.41-2.11 8.4zM356.08 269.68l-1.27-.41 2.37-8.34 1.88.61-2.98 8.14zM362.36 272.57l-1.22-.53 3.23-8.05 1.8.81-3.81 7.77zM368.29 276.11l-1.15-.66 4.05-7.66 1.71.98-4.61 7.34zM268.04 313.05l-.27 1.3-8.54-1.48.41-1.93 8.4 2.11zM270.27 306.51l-.41 1.26-8.34-2.37.61-1.88 8.14 2.99zM273.16 300.23l-.54 1.22-8.04-3.23.8-1.81 7.78 3.82zM276.7 294.29l-.67 1.15-7.66-4.04.99-1.72 7.34 4.61zM280.83 288.76l-.78 1.07-7.19-4.83 1.16-1.6 6.81 5.36zM285.53 283.68l-.89.99-6.65-5.55 1.32-1.47 6.22 6.03zM290.73 279.13l-.99.89-6.04-6.22 1.47-1.32 5.56 6.65zM296.37 275.14l-1.07.78-5.35-6.81 1.6-1.17 4.82 7.2zM302.4 271.77l-1.15.66-4.61-7.34 1.72-.98 4.04 7.66zM308.76 269.04l-1.22.54-3.82-7.78 1.81-.8 3.23 8.04zM315.36 266.99l-1.27.41-2.98-8.13 1.88-.61 2.37 8.33zM322.14 265.65l-1.3.28-2.12-8.41 1.93-.41 1.49 8.54zM328.44 256.37l-1.97.21 1.23 8.58 1.32-.14-.58-8.65zM334.28 256.45l.32 8.66h1.33l.33-8.66h-1.98zM582.32 392.37l-.41-.04.18-2.7.62.06-.39 2.68zM584.42 392.85l-.4-.09.46-2.66.61.13-.67 2.62zM586.47 393.55l-.4-.13.74-2.61.59.19-.93 2.55zM588.43 394.45l-.38-.17 1-2.51.57.25-1.19 2.43zM590.28 395.55l-.36-.21 1.26-2.39.54.31-1.44 2.29zM592.01 396.84l-.34-.24 1.51-2.25.5.37-1.67 2.12zM593.59 398.31l-.31-.28 1.74-2.08.46.42-1.89 1.94zM595.01 399.93l-.27-.31 1.94-1.88.41.46-2.08 1.73zM596.26 401.69l-.25-.33 2.13-1.67.36.5-2.24 1.5zM597.31 403.58l-.21-.36 2.29-1.44.31.53-2.39 1.27zM598.16 405.56l-.17-.38 2.43-1.19.25.56-2.51 1.01zM598.8 407.62l-.13-.39 2.54-.94.19.59-2.6.74zM599.22 409.73l-.09-.4 2.63-.66.13.6-2.67.46zM599.37 411.47l.05.41 2.7-.18-.07-.61-2.68.38zM599.39 413.63v.41l2.7.1v-.62l-2.7.11zM599.13 416.18l.05-.41 2.7.18-.07.62-2.68-.39zM598.66 418.29l.08-.41 2.67.46-.13.61-2.62-.66zM597.96 420.33l.13-.39 2.6.73-.19.59-2.54-.93zM597.06 422.29l.17-.38 2.51 1.01-.25.56-2.43-1.19zM595.96 424.14l.2-.36 2.39 1.27-.3.53-2.29-1.44zM594.66 425.87l.25-.33 2.24 1.5-.36.5-2.13-1.67zM593.2 427.45l.28-.31 2.07 1.74-.41.46-1.94-1.89zM591.58 428.88l.3-.28 1.89 1.94-.46.41-1.73-2.07zM589.81 430.12l.34-.24 1.67 2.12-.5.37-1.51-2.25zM587.93 431.17l.36-.21 1.44 2.3-.53.3-1.27-2.39zM585.95 432.02l.38-.16 1.19 2.42-.56.26-1.01-2.52zM583.89 432.66l.39-.12.93 2.53-.58.2-.74-2.61zM581.77 433.08l.41-.08.66 2.62-.6.13-.47-2.67zM579.62 433.28l.19 2.7.61-.07-.38-2.67-.42.04zM577.47 433.25l-.1 2.7h.61l-.1-2.7h-.41zM575.33 433l.41.04-.19 2.7-.61-.07.39-2.67zM573.22 432.52l.41.09-.47 2.66-.6-.13.66-2.62zM571.18 431.82l.39.13-.74 2.61-.58-.2.93-2.54zM569.22 430.92l.38.17-1.01 2.51-.56-.25 1.19-2.43zM567.37 429.82l.36.2-1.27 2.4-.53-.31 1.44-2.29zM565.64 428.52l.33.25-1.5 2.25-.5-.37 1.67-2.13zM564.05 427.06l.31.28-1.73 2.07-.46-.41 1.88-1.94zM562.63 425.44l.28.31-1.94 1.88-.42-.46 2.08-1.73zM561.39 423.68l.24.33-2.13 1.67-.36-.5 2.25-1.5zM560.33 421.79l.21.36-2.29 1.44-.31-.53 2.39-1.27zM559.48 419.81l.17.38-2.43 1.19-.25-.56 2.51-1.01zM558.84 417.75l.13.39-2.54.94-.19-.59 2.6-.74zM558.42 415.63l.09.41-2.62.66-.13-.6 2.66-.47zM555.53 413.67l.06.61 2.68-.38-.04-.41-2.7.18zM555.55 411.84l2.71-.1v-.41l-2.71-.1v.61zM558.51 409.19l-.04.41-2.7-.18.06-.62 2.68.39zM558.99 407.08l-.09.41-2.66-.47.13-.6 2.62.66zM559.68 405.04l-.13.39-2.6-.74.19-.58 2.54.93zM560.59 403.08l-.17.38-2.51-1.01.25-.56 2.43 1.19zM561.69 401.23l-.21.36-2.39-1.27.31-.53 2.29 1.44zM562.98 399.5l-.24.33-2.25-1.5.36-.5 2.13 1.67zM564.45 397.92l-.28.31-2.08-1.74.41-.46 1.95 1.89zM566.07 396.49l-.31.28-1.88-1.94.46-.41 1.73 2.07zM567.83 395.25l-.33.24-1.67-2.12.5-.37 1.5 2.25zM569.71 394.19l-.35.21-1.44-2.29.53-.3 1.26 2.38zM571.7 393.35l-.38.16-1.19-2.42.56-.26 1.01 2.52zM573.76 392.71l-.4.12-.93-2.53.59-.2.74 2.61zM575.87 392.29l-.4.08-.66-2.62.6-.13.46 2.67zM577.84 389.39l-.61.06.38 2.68.41-.04-.18-2.7zM579.66 389.42l.1 2.7h.42l.1-2.7h-.62z"/><path class="cls-3" d="M334.45 309.87l-.41-.05.18-2.69.62.06-.39 2.68zM336.56 310.34l-.41-.08.46-2.67.61.13-.66 2.62zM338.6 311.04l-.4-.13.74-2.6.59.19-.93 2.54zM340.56 311.94l-.38-.17 1.01-2.51.56.25-1.19 2.43zM342.41 313.05l-.36-.21 1.27-2.39.53.31-1.44 2.29zM344.14 314.34l-.34-.25 1.51-2.24.5.36-1.67 2.13zM345.72 315.8l-.3-.28 1.73-2.07.46.41-1.89 1.94zM347.14 317.43l-.27-.31 1.94-1.89.41.46-2.08 1.74zM348.39 319.19l-.24-.34 2.12-1.67.37.5-2.25 1.51zM349.44 321.07l-.2-.36 2.29-1.44.3.54-2.39 1.26zM350.29 323.05l-.16-.38 2.42-1.19.25.57-2.51 1zM350.93 325.11l-.12-.39 2.53-.93.2.58-2.61.74zM351.35 327.23l-.08-.41 2.62-.66.13.61-2.67.46zM351.51 328.96l.04.42 2.7-.19-.07-.61-2.67.38zM351.52 331.12v.41l2.7.11v-.62l-2.7.1zM351.27 333.68l.04-.42 2.7.19-.07.61-2.67-.38zM350.79 335.78l.09-.4 2.66.46-.13.6-2.62-.66zM350.1 337.82l.12-.39 2.6.74-.19.59-2.53-.94zM349.19 339.78l.17-.38 2.51 1.01-.25.57-2.43-1.2zM348.09 341.64l.2-.36 2.4 1.26-.31.54-2.29-1.44zM346.8 343.36l.24-.33 2.25 1.51-.37.5-2.12-1.68zM345.33 344.95l.28-.31 2.08 1.73-.42.46-1.94-1.88zM343.71 346.37l.31-.28 1.88 1.94-.46.41-1.73-2.07zM341.95 347.61l.33-.24 1.67 2.13-.5.36-1.5-2.25zM340.06 348.67l.36-.21 1.44 2.29-.53.31-1.27-2.39zM338.08 349.52l.38-.17 1.19 2.43-.56.25-1.01-2.51zM336.02 350.16l.4-.13.93 2.54-.59.19-.74-2.6zM333.9 350.58l.41-.09.66 2.62-.6.13-.47-2.66zM331.75 350.77l.19 2.7.61-.06-.38-2.68-.42.04zM329.6 350.74l-.1 2.71h.62l-.11-2.71h-.41zM327.46 350.49l.41.04-.18 2.7-.62-.06.39-2.68zM325.35 350.01l.41.09-.46 2.66-.61-.12.66-2.63zM323.31 349.32l.39.13-.74 2.6-.58-.19.93-2.54zM321.35 348.41l.38.17-1.01 2.51-.56-.25 1.19-2.43zM319.5 347.31l.36.21-1.27 2.39-.53-.31 1.44-2.29zM317.77 346.02l.34.24-1.51 2.25-.5-.36 1.67-2.13zM316.19 344.56l.3.27-1.73 2.08-.46-.41 1.89-1.94zM314.76 342.93l.28.31-1.94 1.89-.41-.46 2.07-1.74zM313.52 341.17l.24.34-2.12 1.67-.37-.5 2.25-1.51zM312.47 339.29l.2.36-2.29 1.44-.31-.54 2.4-1.26zM311.62 337.31l.16.37-2.42 1.2-.25-.57 2.51-1zM310.98 335.24l.12.4-2.54.93-.19-.59 2.61-.74zM310.56 333.13l.08.4-2.62.66-.13-.6 2.67-.46zM307.66 331.16l.07.61 2.67-.38-.04-.41-2.7.18zM307.69 329.34l2.7-.1v-.42l-2.7-.1v.62zM310.64 326.68l-.04.41-2.7-.18.06-.61 2.68.38zM311.12 324.58l-.09.4-2.66-.46.13-.6 2.62.66zM311.81 322.53l-.12.4-2.61-.74.19-.59 2.54.93zM312.72 320.57l-.17.38-2.51-1 .25-.57 2.43 1.19zM313.82 318.72l-.2.36-2.4-1.26.31-.54 2.29 1.44zM315.11 316.99l-.24.34-2.25-1.51.37-.5 2.12 1.67zM316.58 315.41l-.28.31-2.08-1.74.42-.46 1.94 1.89zM318.2 313.99l-.31.27-1.88-1.94.46-.41 1.73 2.08zM319.96 312.74l-.33.25-1.67-2.13.5-.36 1.5 2.24zM321.85 311.69l-.36.21-1.44-2.29.53-.31 1.27 2.39zM323.83 310.84l-.38.17-1.19-2.43.56-.25 1.01 2.51zM325.89 310.2l-.39.13-.94-2.54.59-.19.74 2.6zM328 309.78l-.4.09-.66-2.63.6-.12.46 2.66zM329.97 306.88l-.61.07.38 2.68.41-.05-.18-2.7zM331.79 306.91l.11 2.7h.41l.1-2.7h-.62z"/><path class="cls-1" d="M773.83 497.47a14.94 14.94 0 1014.94 14.94 14.94 14.94 0 00-14.94-14.94zm0 27.59a12.65 12.65 0 1112.65-12.65 12.65 12.65 0 01-12.65 12.65z" transform="translate(-377.66 -235.93)"/><path class="cls-1" d="M773.83 503.7a8.7 8.7 0 108.7 8.7 8.7 8.7 0 00-8.7-8.7zm0 16.07a7.37 7.37 0 117.37-7.37 7.37 7.37 0 01-7.37 7.37zM707.81 552a14.13 14.13 0 1014.13 14.13A14.13 14.13 0 00707.81 552zm0 26.1a12 12 0 1112-12 12 12 0 01-12 11.97z" transform="translate(-377.66 -235.93)"/><path class="cls-1" d="M707.81 557.87a8.23 8.23 0 108.23 8.23 8.23 8.23 0 00-8.23-8.23zm0 15.21a7 7 0 117-7 7 7 0 01-7 7z" transform="translate(-377.66 -235.93)"/><path class="cls-3" d="M357.76 175.6l-3.15-.33 1.39-20.65 4.7.5-2.94 20.48zM373.86 179.25l-3.1-.66 3.54-20.39 4.62.98-5.06 20.07zM389.49 184.56l-3.02-.98 5.66-19.91 4.49 1.46-7.13 19.43zM404.48 191.48l-2.9-1.29 7.7-19.21 4.32 1.92-9.12 18.58zM418.66 199.92l-2.75-1.58 9.67-18.3 4.09 2.36-11.01 17.52zM431.88 209.8l-2.57-1.86 11.53-17.19 3.82 2.78-12.78 16.27zM444 221.01l-2.36-2.12L454.9 203l3.51 3.16L444 221.01zM454.87 233.43l-2.12-2.36 14.85-14.42 3.16 3.51-15.89 13.27zM464.39 246.91l-1.86-2.57 16.27-12.78 2.78 3.82-17.19 11.53zM472.45 261.31l-1.58-2.75 17.52-11.01 2.36 4.09-18.3 9.67zM478.96 276.48l-1.29-2.9 18.58-9.12 1.92 4.32-19.21 7.7zM483.85 292.25l-.98-3.02 19.43-7.13 1.46 4.49-19.91 5.66zM487.07 308.43l-.66-3.1 20.06-5.06.99 4.62-20.39 3.54zM488.24 321.72l.33 3.15 20.65-1.39-.5-4.7-20.48 2.94zM488.35 338.2v3.18l20.68.77v-4.72l-20.68.77zM486.4 357.76l.33-3.15 20.65 1.39-.49 4.7-20.49-2.94zM482.75 373.86l.66-3.1 20.39 3.54-.98 4.62-20.07-5.06zM477.44 389.49l.98-3.02 19.91 5.66-1.46 4.49-19.43-7.13zM470.52 404.48l1.29-2.9 19.21 7.7-1.92 4.32-18.58-9.12zM462.08 418.66l1.59-2.75 18.29 9.67-2.36 4.09-17.52-11.01zM452.2 431.88l1.86-2.57 17.19 11.53-2.78 3.82-16.27-12.78zM440.99 444l2.12-2.36L459 454.9l-3.16 3.51L440.99 444zM428.58 454.88l2.35-2.13 14.42 14.85-3.51 3.16-13.26-15.88zM415.09 464.4l2.57-1.87 12.78 16.28-3.82 2.77-11.53-17.18zM400.69 472.45l2.75-1.58 11.01 17.52-4.09 2.36-9.67-18.3zM385.52 478.96l2.9-1.29 9.12 18.58-4.31 1.92-7.71-19.21zM369.76 483.85l3.01-.98 7.13 19.43-4.49 1.46-5.65-19.91zM353.57 487.07l3.1-.66 5.06 20.07-4.62.98-3.54-20.39zM337.13 488.57l1.39 20.65 4.7-.49-2.93-20.49-3.16.33zM320.63 488.35l-.78 20.68h4.72l-.77-20.68h-3.17zM304.24 486.4l3.15.33-1.39 20.65-4.7-.49 2.94-20.49zM288.14 482.75l3.1.66-3.54 20.39-4.62-.98 5.06-20.07zM272.51 477.44l3.02.98-5.66 19.91-4.49-1.46 7.13-19.43zM257.52 470.52l2.9 1.29-7.7 19.21-4.31-1.92 9.11-18.58zM243.34 462.08l2.75 1.59-9.67 18.29-4.09-2.36 11.01-17.52zM230.12 452.2l2.57 1.86-11.53 17.19-3.82-2.77 12.78-16.28zM218 440.99l2.36 2.12L207.1 459l-3.51-3.16L218 440.99zM207.13 428.58l2.12 2.35-14.85 14.42-3.16-3.51 15.89-13.26zM197.61 415.09l1.86 2.57-16.27 12.78-2.78-3.82 17.19-11.53zM189.55 400.69l1.58 2.75-17.52 11.01-2.36-4.09 18.3-9.67zM183.04 385.52l1.29 2.9-18.58 9.12-1.92-4.31 19.21-7.71zM178.15 369.76l.98 3.01-19.43 7.13-1.46-4.49 19.91-5.65zM174.93 353.57l.66 3.1-20.06 5.06-.99-4.62 20.39-3.54zM152.78 338.52l.5 4.7 20.48-2.93-.33-3.16-20.65 1.39zM152.97 324.57l20.68-.77v-3.17l-20.68-.78v4.72zM175.6 304.24l-.33 3.15-20.65-1.39.49-4.7 20.49 2.94zM179.25 288.14l-.66 3.1-20.39-3.54.98-4.62 20.07 5.06zM184.56 272.51l-.98 3.02-19.91-5.65 1.46-4.5 19.43 7.13zM191.48 257.52l-1.29 2.9-19.21-7.7 1.92-4.31 18.58 9.11zM199.92 243.34l-1.59 2.75-18.29-9.67 2.36-4.09 17.52 11.01zM209.8 230.12l-1.86 2.57-17.19-11.53 2.78-3.82 16.27 12.78zM221.01 218.01l-2.12 2.35L203 207.1l3.16-3.51 14.85 14.42zM233.42 207.13l-2.35 2.12-14.42-14.85 3.51-3.16 13.26 15.89zM246.91 197.61l-2.57 1.86-12.78-16.27 3.82-2.78 11.53 17.19zM261.31 189.55l-2.75 1.58-11.01-17.52 4.09-2.36 9.67 18.3zM276.48 183.04l-2.9 1.29-9.12-18.58 4.32-1.92 7.7 19.21zM292.25 178.15l-3.02.98-7.13-19.43 4.49-1.46 5.66 19.91zM308.43 174.94l-3.1.65-5.06-20.06 4.62-.98 3.54 20.39zM323.48 152.78l-4.7.5 2.94 20.48 3.15-.33-1.39-20.65zM337.43 152.97l.77 20.68h3.17l.78-20.68h-4.72z"/><path class="cls-4" d="M708.62 359.48c-114.68 0-207.65 93-207.65 207.65s93 207.65 207.65 207.65 207.65-93 207.65-207.65-92.97-207.65-207.65-207.65zm0 409.87c-111.68 0-202.21-90.53-202.21-202.21s90.53-202.21 202.21-202.21 202.21 90.53 202.21 202.21-90.54 202.21-202.21 202.21z" transform="translate(-377.66 -235.93)"/><path class="cls-4" d="M806.07 730a189.93 189.93 0 01-194.92 0l-20.39 27.8a224.23 224.23 0 00237-.8zM526 461.43c-45.79 79.31-34.67 175.84 20.65 242.36l9.92-8.19a199.05 199.05 0 01-45.79-127.31c0-110.39 89.49-199.87 199.87-199.87a201.15 201.15 0 0133.22 2.76l2.13-13.06c-85.19-14.6-174.28 24.05-220 103.31z" transform="translate(-377.66 -235.93)"/><path class="cls-2" d="M708.66 359.27C594 359.27 501 452.24 501 566.93s93 207.65 207.65 207.65 207.65-93 207.65-207.65-92.95-207.66-207.64-207.66zm0 409.87c-111.68 0-202.21-90.53-202.21-202.21S597 364.72 708.66 364.72s202.21 90.53 202.21 202.21-90.53 202.21-202.21 202.21z" transform="translate(-377.66 -235.93)"/><path class="cls-2" d="M806.07 730a189.93 189.93 0 01-194.92 0l-20.39 27.8a224.23 224.23 0 00237-.8z" transform="translate(-377.66 -235.93)"/><path class="cls-5" d="M526 461.43c-45.79 79.31-34.67 175.84 20.65 242.36l9.92-8.19a199.05 199.05 0 01-45.79-127.31c0-110.39 89.49-199.87 199.87-199.87a201.15 201.15 0 0133.22 2.76l2.13-13.06c-85.19-14.6-174.28 24.05-220 103.31z" transform="translate(-377.66 -235.93)"/><path class="cls-1" d="M699.87 825.37v-.89c-138.26-4.64-248.93-118.16-248.93-257.55 0-142.33 115.38-257.72 257.72-257.72s257.72 115.38 257.72 257.72a259 259 0 01-4.65 48.9h7.06a266.06 266.06 0 004.53-48.9c0-146.16-118.49-264.65-264.65-264.65S444 420.76 444 566.93s118.5 264.65 264.66 264.65a265.55 265.55 0 0057.17-6.21h-66z" transform="translate(-377.66 -235.93)"/><path class="cls-3" d="M708.62 327.8c132.18 0 239.33 107.2 239.33 239.34h43.32c0-156.11-126.55-282.65-282.65-282.65S426 411 426 567.14h43.32C469.28 435 576.44 327.8 708.62 327.8zM713.17 814.05a264.53 264.53 0 01-228.55-131.16l-16.13 9.31c76.58 132.64 244.43 179.72 378.43 107.72l-9.66-16.72a263.47 263.47 0 01-124.09 30.85z" transform="translate(-377.66 -235.93)"/><circle class="cls-1" cx="916.52" cy="719.69" r="11.2" transform="rotate(-60 523.387 928.787)"/><circle class="cls-1" cx="880.68" cy="759.49" r="11.2" transform="rotate(-48 426.891 1065.64)"/><path class="cls-3" d="M708.66 450.55A116.37 116.37 0 10825 566.93a116.37 116.37 0 00-116.34-116.38zm0 230a113.66 113.66 0 11113.66-113.62 113.66 113.66 0 01-113.66 113.66z" transform="translate(-377.66 -235.93)"/><path class="cls-5" d="M210.48 342.15l-6.32-10.94 6.32-10.94h12.63l6.31 10.94-6.31 10.94h-12.63zM395.17 418.8l3.9-12.02 12.35-2.63 8.46 9.39-3.9 12.01-12.36 2.63-8.45-9.38z"/><path class="cls-1" d="M780.82 524.2a84 84 0 11-17.41-20.77l1.9-1.34a86 86 0 1017.32 20.74z" transform="translate(-377.66 -235.93)"/><path class="cls-5" d="M632.76 546.63a78.77 78.77 0 0158.12-56.19l-1.93-14.17a93 93 0 00-70.43 68.55z" transform="translate(-377.66 -235.93)"/><path class="cls-3" d="M744.56 545.68a41.79 41.79 0 11-8.66-10.33l.95-.67a42.75 42.75 0 108.61 10.32z" transform="translate(-377.66 -235.93)"/><path class="cls-2" d="M743.78 582.61a39 39 0 01-33.15 23.09l.54 8.39A47.42 47.42 0 00751.46 586zM748.15 541.35a47.42 47.42 0 00-19.88-17.5l-3.57 7.61a39 39 0 0122.44 35.32h8.4a47.42 47.42 0 00-7.39-25.43M669.13 566.77a39 39 0 0127.35-37.23l-2.51-8a47.41 47.41 0 00-3.72 89.15l3.17-7.78a39 39 0 01-24.29-36.13" transform="translate(-377.66 -235.93)"/><path class="cls-5" d="M750 633.24a78.76 78.76 0 01-80.84 0l-8.46 11.53a93 93 0 0098.28-.33z" transform="translate(-377.66 -235.93)"/></svg>