<svg preserveAspectRatio="none" id="Layer_1" data-name="Layer 1" xmlns="http://www.w3.org/2000/svg" viewBox="0 0 124.1 124.1"><defs><style>.cls-1{fill:#76e5ff;}.cls-2{fill:#065876;}.cls-3{fill:#08b3ea;}.cls-4{fill:#ff6d00;}</style></defs><title>circle32</title><path class="cls-1" d="M774.62,981.69a8.16,8.16,0,1,0,8.16,8.16A8.16,8.16,0,0,0,774.62,981.69Zm0,15.06a6.91,6.91,0,1,1,6.91-6.91A6.91,6.91,0,0,1,774.62,996.76Z" transform="translate(-738.38 -944.28)"/><path class="cls-1" d="M774.62,985.1a4.75,4.75,0,1,0,4.75,4.75A4.75,4.75,0,0,0,774.62,985.1Zm0,8.78a4,4,0,1,1,4-4A4,4,0,0,1,774.62,993.87Z" transform="translate(-738.38 -944.28)"/><circle class="cls-1" cx="827.89" cy="1020.28" r="3.15" transform="translate(-1208.02 282.82) rotate(-60)"/><circle class="cls-1" cx="817.82" cy="1031.47" r="3.15" transform="translate(-1234.32 4.74) rotate(-48)"/><polygon class="cls-2" points="71.37 7.94 70.27 7.83 70.76 0.64 72.39 0.81 71.37 7.94"/><polygon class="cls-2" points="76.97 9.21 75.89 8.98 77.13 1.89 78.74 2.23 76.97 9.21"/><polygon class="cls-2" points="82.42 11.06 81.37 10.72 83.33 3.79 84.9 4.3 82.42 11.06"/><polygon class="cls-2" points="87.63 13.47 86.63 13.02 89.31 6.33 90.81 7 87.63 13.47"/><polygon class="cls-2" points="92.57 16.41 91.61 15.86 94.98 9.49 96.41 10.31 92.57 16.41"/><polygon class="cls-2" points="97.17 19.85 96.28 19.2 100.3 13.22 101.63 14.19 97.17 19.85"/><polygon class="cls-2" points="101.39 23.75 100.57 23.02 105.19 17.48 106.41 18.59 101.39 23.75"/><polygon class="cls-2" points="105.18 28.08 104.44 27.26 109.61 22.24 110.71 23.46 105.18 28.08"/><polygon class="cls-2" points="108.5 32.77 107.85 31.88 113.51 27.43 114.48 28.76 108.5 32.77"/><polygon class="cls-2" points="111.3 37.79 110.75 36.83 116.85 33 117.67 34.42 111.3 37.79"/><polygon class="cls-2" points="113.57 43.07 113.12 42.06 119.59 38.88 120.26 40.39 113.57 43.07"/><polygon class="cls-2" points="115.27 48.56 114.93 47.51 121.69 45.02 122.2 46.59 115.27 48.56"/><polygon class="cls-2" points="116.39 54.19 116.16 53.11 123.15 51.35 123.49 52.96 116.39 54.19"/><polygon class="cls-2" points="116.8 58.82 116.91 59.92 124.1 59.43 123.93 57.8 116.8 58.82"/><polygon class="cls-2" points="116.83 64.56 116.83 65.66 124.03 65.93 124.03 64.29 116.83 64.56"/><polygon class="cls-2" points="116.16 71.37 116.27 70.27 123.46 70.76 123.29 72.39 116.16 71.37"/><polygon class="cls-2" points="114.89 76.98 115.12 75.89 122.22 77.13 121.87 78.74 114.89 76.98"/><polygon class="cls-2" points="113.04 82.42 113.38 81.36 120.31 83.33 119.8 84.9 113.04 82.42"/><polygon class="cls-2" points="110.63 87.64 111.08 86.63 117.77 89.31 117.1 90.81 110.63 87.64"/><polygon class="cls-2" points="107.69 92.57 108.24 91.61 114.61 94.98 113.79 96.41 107.69 92.57"/><polygon class="cls-2" points="104.25 97.17 104.9 96.28 110.88 100.3 109.92 101.63 104.25 97.17"/><polygon class="cls-2" points="100.35 101.39 101.09 100.57 106.62 105.19 105.52 106.41 100.35 101.39"/><polygon class="cls-2" points="96.02 105.18 96.85 104.44 101.86 109.61 100.64 110.71 96.02 105.18"/><polygon class="cls-2" points="91.33 108.5 92.22 107.85 96.67 113.51 95.34 114.48 91.33 108.5"/><polygon class="cls-2" points="86.31 111.3 87.27 110.75 91.11 116.85 89.68 117.67 86.31 111.3"/><polygon class="cls-2" points="81.03 113.57 82.04 113.12 85.22 119.59 83.72 120.25 81.03 113.57"/><polygon class="cls-2" points="75.55 115.27 76.6 114.93 79.08 121.69 77.51 122.2 75.55 115.27"/><polygon class="cls-2" points="69.91 116.39 70.99 116.16 72.75 123.15 71.14 123.49 69.91 116.39"/><polygon class="cls-2" points="64.19 116.91 64.67 124.1 66.31 123.93 65.28 116.8 64.19 116.91"/><polygon class="cls-2" points="58.44 116.84 58.17 124.03 59.81 124.03 59.54 116.84 58.44 116.84"/><polygon class="cls-2" points="52.73 116.16 53.83 116.27 53.35 123.46 51.71 123.29 52.73 116.16"/><polygon class="cls-2" points="47.13 114.89 48.21 115.12 46.98 122.22 45.37 121.87 47.13 114.89"/><polygon class="cls-2" points="41.69 113.04 42.74 113.38 40.77 120.31 39.2 119.8 41.69 113.04"/><polygon class="cls-2" points="36.47 110.63 37.48 111.08 34.8 117.77 33.29 117.1 36.47 110.63"/><polygon class="cls-2" points="31.53 107.69 32.49 108.24 29.12 114.61 27.7 113.79 31.53 107.69"/><polygon class="cls-2" points="26.93 104.25 27.82 104.9 23.81 110.88 22.48 109.92 26.93 104.25"/><polygon class="cls-2" points="22.71 100.35 23.53 101.09 18.91 106.62 17.69 105.52 22.71 100.35"/><polygon class="cls-2" points="18.92 96.03 19.66 96.84 14.49 101.86 13.39 100.64 18.92 96.03"/><polygon class="cls-2" points="15.61 91.33 16.26 92.22 10.59 96.67 9.62 95.34 15.61 91.33"/><polygon class="cls-2" points="12.8 86.31 13.35 87.27 7.25 91.11 6.43 89.68 12.8 86.31"/><polygon class="cls-2" points="10.53 81.03 10.98 82.04 4.51 85.22 3.85 83.72 10.53 81.03"/><polygon class="cls-2" points="8.83 75.55 9.17 76.59 2.41 79.08 1.9 77.51 8.83 75.55"/><polygon class="cls-2" points="7.71 69.91 7.94 70.99 0.95 72.75 0.61 71.14 7.71 69.91"/><polygon class="cls-2" points="0 64.67 0.17 66.31 7.3 65.28 7.19 64.19 0 64.67"/><polygon class="cls-2" points="0.07 59.81 7.27 59.54 7.27 58.44 0.07 58.17 0.07 59.81"/><polygon class="cls-2" points="7.94 52.73 7.83 53.83 0.64 53.35 0.81 51.71 7.94 52.73"/><polygon class="cls-2" points="9.22 47.13 8.98 48.21 1.89 46.98 2.23 45.37 9.22 47.13"/><polygon class="cls-2" points="11.06 41.69 10.72 42.74 3.79 40.77 4.3 39.2 11.06 41.69"/><polygon class="cls-2" points="13.47 36.47 13.02 37.48 6.33 34.8 7 33.29 13.47 36.47"/><polygon class="cls-2" points="16.41 31.53 15.86 32.49 9.49 29.12 10.31 27.7 16.41 31.53"/><polygon class="cls-2" points="19.85 26.93 19.2 27.82 13.22 23.81 14.19 22.48 19.85 26.93"/><polygon class="cls-2" points="23.75 22.71 23.02 23.53 17.48 18.91 18.58 17.69 23.75 22.71"/><polygon class="cls-2" points="28.08 18.92 27.26 19.66 22.24 14.49 23.46 13.39 28.08 18.92"/><polygon class="cls-2" points="32.77 15.61 31.88 16.26 27.43 10.59 28.76 9.62 32.77 15.61"/><polygon class="cls-2" points="37.79 12.8 36.83 13.35 32.99 7.25 34.42 6.43 37.79 12.8"/><polygon class="cls-2" points="43.07 10.53 42.06 10.98 38.88 4.52 40.39 3.85 43.07 10.53"/><polygon class="cls-2" points="48.56 8.83 47.51 9.17 45.02 2.41 46.59 1.9 48.56 8.83"/><polygon class="cls-2" points="54.19 7.71 53.11 7.94 51.35 0.95 52.96 0.61 54.19 7.71"/><polygon class="cls-2" points="59.43 0 57.8 0.17 58.82 7.3 59.92 7.19 59.43 0"/><polygon class="cls-2" points="64.29 0.07 64.56 7.27 65.66 7.27 65.93 0.07 64.29 0.07"/><path class="cls-3" d="M799.74,960.17a46.16,46.16,0,1,0,46.16,46.16A46.16,46.16,0,0,0,799.74,960.17Zm0,91.25a45.09,45.09,0,1,1,45.09-45.09A45.09,45.09,0,0,1,799.74,1051.42Z" transform="translate(-738.38 -944.28)"/><polygon class="cls-4" points="27.4 100.19 28.25 93.71 34.28 91.2 39.47 95.18 38.62 101.66 32.59 104.17 27.4 100.19"/></svg>