<svg preserveAspectRatio="none" xmlns="http://www.w3.org/2000/svg" viewBox="0 0 1366.58 1042.06"><defs><style>.cls-2,.cls-4{fill:#03a6ff}.cls-2,.cls-3,.cls-5{mix-blend-mode:screen}.cls-5,.cls-6{fill:#00558d}</style></defs><g style="isolation:isolate"><g id="Layer_6" data-name="Layer 6"><path class="cls-2" d="M1096.38 959.56c-.72 1.93-1.46 3.87-2.17 5.83l-2 5.89q-.68 19.2.47 38.41l-3.09 4.66-3 4.73a416.13 416.13 0 0015.38 83c3 2.25 6 4.44 9 6.59a417.79 417.79 0 0018.21 47.12 407.45 407.45 0 0039.16 67.39l2.43 8.07c.81 2.71 1.74 5.36 2.62 8.06l2.1 2.72 2.17 2.67 4.34 5.3 4.47 5.23c.75.87 1.48 1.75 2.24 2.61l2.3 2.56c6.06 6.88 12.47 13.45 19 19.9a408.85 408.85 0 0041.78 35.72 417.24 417.24 0 0095.88 53.36l7.55-2.42c2.5-.83 5-1.62 7.43-2.52l6.51 2.28c2.16.78 4.37 1.43 6.55 2.15l3.1 4.11c1 1.36 2.12 2.68 3.19 4a405 405 0 00118.75 17l6.42 2.89 6.51 2.73a411.81 411.81 0 0069.93-8.63c3.09.77 6.18 1.4 9.31 2.07l4.71 1 4.73.88a424.41 424.41 0 00142.33-66.16l5.13-8.78c1.66-2.94 3.26-5.91 4.86-8.84a409.44 409.44 0 0091.81-101c2.18-2.22 4.43-4.41 6.58-6.68l6.46-6.85 6.31-7c2.1-2.37 4.11-4.8 6.17-7.22l1.45-2.73 1.38-2.76 2.77-5.53c1.82-3.7 3.52-7.45 5.28-11.17s3.35-7.53 4.93-11.34l2.34-5.72 1.17-2.86 1.1-2.89a430.39 430.39 0 0015.08-47.07 419.69 419.69 0 0013-97.82c3.92-5 7.6-10.11 11.34-15.38A435.53 435.53 0 001879 778.27c-2.47-1.09-5-2.12-7.49-3.14s-4.95-2-7.47-3c-5.77-10-12-19.62-18.6-29.06s-13.52-18.63-20.89-27.47a419.88 419.88 0 00-75.94-71.47c-1.69-3.31-3.47-6.56-5.25-9.88s-3.68-6.52-5.57-9.82q-16.87-11.13-34.7-20.66l-4.12-5.39-4.26-5.29c-1.44-1.76-2.87-3.56-4.34-5.3l-4.47-5.22a446.56 446.56 0 00-87.58-30.18l.05-.22c-4.67 2.61-9.27 5.33-13.76 8s-8.93 5.6-13.26 8.45a423.74 423.74 0 00-172.84 5.74l5 20.49a410.92 410.92 0 0144.32-8.18c3.72-.53 7.46-.86 11.2-1.28 1.87-.22 3.74-.35 5.61-.51l5.62-.47c3.75-.22 7.5-.47 11.25-.63l5.63-.19 2.82-.1h2.82a407.15 407.15 0 0145 1.85 395.16 395.16 0 0144.51 6.94c4.81 3.24 9.49 6.69 14.09 10.08a401.56 401.56 0 01102.81 42.44l8.26 1.22c2.76.43 5.5.95 8.27 1.43 1.62 1 3.24 2 4.81 3.12q3.91-.62 7.88-1.2a397.25 397.25 0 0137.17 28.63q-.11 3.81-.27 7.57c-.11 2.5-.28 5-.44 7.55a393.06 393.06 0 0177.64 97.19l4.35 4.75 4.25 4.86 2.13 2.45 2.07 2.49 4.16 5 4 5.12 2 2.57 2 2.62 3.95 5.26 3.82 5.37q6.46 15.75 11.64 32c3 2.33 6 4.69 9 7.12a417.43 417.43 0 0116.57 107.54 411.21 411.21 0 01-5.5 76.14l-3.56 3.44-3.64 3.37c-2.44 2.22-4.8 4.42-7.3 6.56a400.38 400.38 0 01-30.35 90.6 404.94 404.94 0 01-50.67 81l-4.4 5.32c-.74.88-1.46 1.78-2.21 2.65l-2.27 2.6c-2.67.62-5.29 1.23-7.94 1.8l-7.95 1.58q-11 11.87-22.92 22.83c-7.95 7.3-16.23 14.22-24.76 20.83s-17.32 12.89-26.38 18.75-18.36 11.36-27.86 16.49a393.9 393.9 0 01-59.3 25.89 398.51 398.51 0 01-62.73 15.86c-2.91 3.65-5.88 7.39-9 11 3.52-.48 7-1.08 10.53-1.61v.07a407.37 407.37 0 01-43.17 4.81v-.07c2.85-.16 5.7-.32 8.54-.58-3.09-2.9-6.13-5.92-9.09-8.94a390.55 390.55 0 01-165.79-26.61c-5.37-.48-10.82-.91-16.24-1.61a402.5 402.5 0 01-73.59-42.12c-.94-2.38-1.83-4.79-2.72-7.16s-1.76-4.73-2.56-7.14a387.67 387.67 0 01-93-103.92q-5.5-1.16-11.08-2.45-7.81-13.41-14.62-27.37l.21-9.23a404.73 404.73 0 01-16.71-42.78 393.34 393.34 0 01-11.64-44.42 385.56 385.56 0 01-6.41-45.46c-.67-7.63-1-15.28-1.23-22.93 0-1.91 0-3.83-.07-5.74s-.07-3.83 0-5.74c.08-3.83.05-7.65.25-11.48a392.13 392.13 0 0139.22-157.44l-8.63-4.18a406.83 406.83 0 00-27 72.82 399.93 399.93 0 00-12.53 76.67z" transform="translate(-819.12 -476.53)"/><g class="cls-3"><path class="cls-4" d="M1763.66 1188.06a323.67 323.67 0 0049.08-92.77l2.11-6.24c.67-2.09 1.22-4.22 1.83-6.33l1.8-6.34.9-3.17c.27-1.06.5-2.14.75-3.21l3-12.84 2.32-13a350.7 350.7 0 004.28-52.48h12.83a363.45 363.45 0 01-4.44 54.54l-2.41 13.49-3.08 13.35c-.26 1.11-.5 2.23-.79 3.33l-.93 3.3-1.87 6.59c-.64 2.19-1.22 4.4-1.91 6.58l-2.19 6.49a336.5 336.5 0 01-51 96.44z" transform="translate(-819.12 -476.53)"/><path class="cls-4" d="M1781.77 1142.06a312.64 312.64 0 0036.07-115l11.82 1.32a324.55 324.55 0 01-37.44 119.35z" transform="translate(-819.12 -476.53)"/><path class="cls-4" d="M1677.74 1262.2c28.22-17.9 53.3-40.55 74.72-66.16a323 323 0 0050.73-85.94l-12.74-5.05a309.24 309.24 0 01-48.56 82.27c-20.51 24.52-44.52 46.22-71.55 63.35z" transform="translate(-819.12 -476.53)"/><path class="cls-4" d="M1600.63 1301.78a332.68 332.68 0 0071-31.79c1.43-.78 2.76-1.7 4.14-2.57l4.1-2.63 4.1-2.63 2.05-1.31 2-1.41c5.27-3.8 10.68-7.41 15.7-11.53 2.55-2 5.12-4 7.65-6l7.36-6.38 3.68-3.19c1.21-1.08 2.36-2.23 3.54-3.34l7.05-6.72 9.83 9.92-7.35 7c-1.23 1.16-2.43 2.36-3.7 3.48l-3.84 3.33-7.68 6.65c-2.64 2.12-5.32 4.2-8 6.3-5.24 4.3-10.88 8.07-16.38 12l-2.07 1.47-2.14 1.37-4.28 2.74-4.28 2.74c-1.43.9-2.83 1.86-4.32 2.68a346.63 346.63 0 01-74 33.16z" transform="translate(-819.12 -476.53)"/><path class="cls-4" d="M1662.52 1280.63a331.08 331.08 0 01-38.23 17.77l-7-17.82a311.94 311.94 0 0036-16.73z" transform="translate(-819.12 -476.53)"/><path class="cls-4" d="M1430.83 1302.72c66 15.61 137.06 9.8 199.44-17l-1.73-4c-61.5 26.46-131.58 32.19-196.7 16.79z" transform="translate(-819.12 -476.53)"/><path class="cls-4" d="M1325.94 1268.18a327.6 327.6 0 00123.27 48 332.27 332.27 0 00132.22-4.38l2.15 9a341.52 341.52 0 01-135.92 4.5 336.87 336.87 0 01-126.75-49.3z" transform="translate(-819.12 -476.53)"/><path class="cls-4" d="M1235.35 1173.72a338.47 338.47 0 0050.16 58 334.08 334.08 0 0062.3 44.67c.7.39 1.38.81 2.09 1.19l2.14 1.1 4.27 2.19c2.86 1.43 5.67 3 8.58 4.32l8.75 4 4.38 2 4.47 1.77 8.94 3.52c1.48.62 3 1.09 4.52 1.61l4.55 1.54 4.55 1.54c1.52.51 3 1.05 4.58 1.46l9.24 2.62 4.62 1.31 4.68 1.08 9.36 2.16c1.55.39 3.14.64 4.71.92l4.73.84c3.16.53 6.29 1.19 9.47 1.62a333.75 333.75 0 0038.25 3.33l-.18 5.92a339.66 339.66 0 01-38.94-3.39c-3.23-.44-6.43-1.11-9.64-1.65l-4.81-.86c-1.6-.29-3.22-.54-4.8-.94l-9.53-2.2-4.77-1.1-4.71-1.33-9.41-2.67c-1.58-.41-3.11-1-4.66-1.48l-4.63-1.57-4.63-1.57c-1.54-.53-3.1-1-4.61-1.64l-9.1-3.59-4.55-1.8-4.46-2-8.91-4c-3-1.37-5.82-2.94-8.73-4.4l-4.35-2.23-2.18-1.12c-.72-.39-1.42-.81-2.13-1.21a340 340 0 01-63.44-45.48 344.38 344.38 0 01-51.07-59z" transform="translate(-819.12 -476.53)"/><path class="cls-4" d="M1169 991.7a334.32 334.32 0 0077.89 214.91l-2.24 1.87a337.25 337.25 0 01-78.57-216.78h2.92z" transform="translate(-819.12 -476.53)"/><path class="cls-4" d="M1187.88 1076.84a325.9 325.9 0 0039.18 89.48l-6.45 4.07a333.53 333.53 0 01-40.09-91.57z" transform="translate(-819.12 -476.53)"/><path class="cls-4" d="M1220.55 1161.45a328.43 328.43 0 01-33.9-78.14l-1.46-5.14c-.46-1.72-1-3.41-1.39-5.15l-2.4-10.4c-.38-1.74-.85-3.46-1.15-5.21l-.94-5.26c-.62-3.51-1.27-7-1.85-10.52l-1.36-10.63-.67-5.3-.42-5.32-.81-10.64c-.2-3.55-.21-7.11-.33-10.67l9.16-.2c.11 3.46.12 6.92.31 10.38l.79 10.35.4 5.17.65 5.15 1.31 10.3c.56 3.41 1.21 6.81 1.8 10.22l.91 5.11c.29 1.71.75 3.38 1.12 5.07l2.33 10.12c.35 1.7.9 3.34 1.35 5l1.42 5a319.27 319.27 0 0033 76zM1215.78 842.46c-.41.78-.81 1.56-1.21 2.35a309.38 309.38 0 00-18.11 43.3l-2.11 6.25c-.67 2.09-1.22 4.21-1.84 6.33l-1.79 6.34-.9 3.17c-.28 1.07-.51 2.13-.76 3.21l-3 12.84-2.31 13q-1.27 8-2.16 16a353.88 353.88 0 00-2.12 36.45h-12.83a363.66 363.66 0 014.45-54.53l2.41-13.49 3.08-13.35c.26-1.11.5-2.23.78-3.33l.94-3.3 1.87-6.59c.64-2.19 1.21-4.4 1.9-6.58l2.2-6.49a323.21 323.21 0 0118.88-45.04c.41-.79.81-1.57 1.21-2.35l9.53 4.89z" transform="translate(-819.12 -476.53)"/><path class="cls-4" d="M1224.46 846.9c-.41.78-.81 1.57-1.2 2.37q-6.52 12.81-11.81 26.2a312.79 312.79 0 00-20.1 80.86l-9.73-1.09-2.09-.23a324.4 324.4 0 0133.14-111.17c.4-.79.8-1.57 1.21-2.35l1.89 1 3.44 1.76z" transform="translate(-819.12 -476.53)"/><path class="cls-4" d="M1231.41 850.47c-.41.78-.8 1.57-1.21 2.35q-6.34 12.48-11.47 25.54l-7.28-2.89-5.45-2.17q5.35-13.65 12-26.73c.4-.79.8-1.57 1.21-2.35l5.24 2.68zM1308.19 755.13c-.68.56-1.35 1.13-2 1.71l-8.8-10.5c.67-.58 1.34-1.14 2-1.71zM1319.73 746c-.7.53-1.41 1.06-2.1 1.6l-8.3-10.89q1.06-.83 2.11-1.62z" transform="translate(-819.12 -476.53)"/><path class="cls-4" d="M478.13 265.55l-2.01 1.72-8.97-10.69 2.01-1.73 8.97 10.7z"/><path class="cls-4" d="M1309.44 732.43c-.72.53-1.42 1.08-2.11 1.62l-8.45-11.12c.69-.54 1.4-1.08 2.1-1.61zM1578.36 680.69l-1 4.27a318.45 318.45 0 00-148.94.8c-.86.2-1.71.42-2.56.64l-1.08-4.26c.86-.22 1.72-.44 2.56-.64a322.93 322.93 0 01151.02-.81z" transform="translate(-819.12 -476.53)"/><path class="cls-4" d="M1683.26 715.22a327.6 327.6 0 00-123.27-48 332.27 332.27 0 00-132.22 4.38l-2.15-9a341.52 341.52 0 01135.92-4.5 336.87 336.87 0 01126.75 49.38z" transform="translate(-819.12 -476.53)"/><path class="cls-4" d="M1773.85 809.68a338.48 338.48 0 00-50.16-58 334.08 334.08 0 00-62.3-44.67c-.7-.39-1.38-.81-2.09-1.19l-2.14-1.09-4.27-2.19c-2.86-1.43-5.67-3-8.58-4.32l-8.75-4-4.38-2-4.47-1.77-8.94-3.52c-1.48-.62-3-1.09-4.52-1.61l-4.55-1.54-4.55-1.54c-1.52-.51-3-1.05-4.57-1.46l-9.24-2.62-4.62-1.31-4.68-1.08-9.36-2.16c-1.55-.39-3.14-.64-4.71-.92l-4.73-.84c-3.16-.53-6.29-1.19-9.47-1.62a333.73 333.73 0 00-38.25-3.33l.18-5.92a339.66 339.66 0 0138.94 3.39c3.23.44 6.43 1.11 9.64 1.65l4.81.86c1.6.29 3.22.54 4.8.94l9.53 2.2 4.77 1.1 4.71 1.33 9.41 2.67c1.58.41 3.11 1 4.66 1.48l4.63 1.57 4.63 1.57c1.54.53 3.1 1 4.61 1.64l9.1 3.59 4.55 1.8 4.46 2 8.91 4c3 1.37 5.82 2.94 8.73 4.4l4.35 2.23 2.18 1.12c.72.39 1.42.81 2.13 1.21a340 340 0 0163.44 45.48 344.39 344.39 0 0151.07 59z" transform="translate(-819.12 -476.53)"/><path class="cls-4" d="M1840.17 991.7a334.32 334.32 0 00-77.89-214.91l2.24-1.87a337.25 337.25 0 0178.57 216.78h-2.92z" transform="translate(-819.12 -476.53)"/><path class="cls-4" d="M1821.31 906.56a325.9 325.9 0 00-39.18-89.48l6.45-4.07a333.53 333.53 0 0140.09 91.57z" transform="translate(-819.12 -476.53)"/><path class="cls-4" d="M1788.65 821.95a328.43 328.43 0 0133.9 78.14l1.46 5.14c.46 1.72 1 3.41 1.39 5.15l2.4 10.4c.38 1.74.85 3.46 1.15 5.21l.94 5.26c.62 3.51 1.27 7 1.85 10.52l1.35 10.59.67 5.3.42 5.32.81 10.64c.2 3.55.21 7.11.33 10.67l-9.16.2c-.11-3.46-.12-6.92-.31-10.38l-.85-10.35-.4-5.17-.65-5.15-1.31-10.3c-.56-3.41-1.21-6.81-1.8-10.22l-.91-5.11c-.29-1.71-.75-3.38-1.12-5.07l-2.33-10.12c-.35-1.7-.9-3.34-1.35-5l-1.42-5a319.26 319.26 0 00-33-76z" transform="translate(-819.12 -476.53)"/></g><path class="cls-2" d="M1515.6 991.7a11 11 0 11-22 0 10.77 10.77 0 01.61-3.59 10.44 10.44 0 011.17-2.39 9.89 9.89 0 011.3-1.64c.06-.06.11-.12.18-.18a1.26 1.26 0 01.18-.17l.07-.08.12-.11c.19-.18.37-.33.57-.5l.23-.18a6.31 6.31 0 01.63-.43 4.52 4.52 0 01.5-.3 8.59 8.59 0 011.24-.59 10.15 10.15 0 012.56-.69 9.29 9.29 0 011.57-.12 11 11 0 0111.07 10.97zM1504.59 1345.74a351 351 0 01-214-71.9 354.31 354.31 0 01-125.77-182.11l.94-.27c43.8 149.14 183.12 253.31 338.8 253.31 93.7 0 181.91-36.2 248.37-101.94l.69.69c-66.62 65.92-155.07 102.22-249.03 102.22zM1670.15 998.75h-1c.1-2.34.15-4.69.15-7 0-90.83-73.89-164.72-164.72-164.72a139.51 139.51 0 00-23.54 1.81c-5.15.7-10.26 1.65-15.22 2.83l-.23-1c5-1.19 10.14-2.15 15.3-2.85a140.36 140.36 0 0123.69-1.82c91.37 0 165.7 74.33 165.7 165.7.01 2.3-.04 4.7-.13 7.05zM1344.76 1035.58a166.3 166.3 0 01-5.86-43.88 161.87 161.87 0 019.11-54 156 156 0 018.44-20.15l.87.44a155 155 0 00-8.39 20 160.91 160.91 0 00-9.06 53.7 165.3 165.3 0 005.83 43.62z" transform="translate(-819.12 -476.53)"/><path class="cls-2" d="M1701.27 1185.59l-2.09-2.06a271.6 271.6 0 0078.56-191.84c0-150.61-122.53-273.15-273.15-273.15a231.23 231.23 0 00-39 3 260.32 260.32 0 00-26.84 5.08l-.7-2.85a262.9 262.9 0 0127.09-5.13 233.91 233.91 0 0139.47-3 276.18 276.18 0 01196.66 469.95zM1504.59 1239.37a247.61 247.61 0 01-247.67-247.67 242 242 0 0113.62-80.75 233.18 233.18 0 0113-30.81l1.74.88a231.32 231.32 0 00-12.85 30.56 240 240 0 00-13.52 80.11c0 135.49 110.23 245.72 245.72 245.72a244.34 244.34 0 00172.37-70.53l1.37 1.39a246.28 246.28 0 01-173.78 71.1z" transform="translate(-819.12 -476.53)"/><path class="cls-5" d="M1504.8 1290.34h-.23c-5.75 0-11.59-.17-17.34-.5l.22-3.9c5.68.33 11.44.49 17.15.49h.2v3.91zm5.86-.06l-.08-3.91c5.78-.11 11.61-.4 17.34-.85l.3 3.9c-5.8.45-11.71.74-17.56.86zm-29.29-.83c-5.82-.45-11.7-1.07-17.48-1.86l.53-3.87c5.71.78 11.52 1.39 17.26 1.84zm52.69-.54l-.38-3.89c5.75-.56 11.54-1.3 17.21-2.19l.61 3.86c-5.74.9-11.61 1.65-17.43 2.22zm-76-2.17c-5.77-.9-11.59-2-17.29-3.23l.83-3.82c5.62 1.22 11.36 2.29 17.06 3.19zm99.2-1l-.68-3.85c5.68-1 11.4-2.2 17-3.54l.91 3.8c-5.65 1.34-11.49 2.55-17.2 3.57zm-122.21-3.51c-5.68-1.35-11.39-2.89-17-4.58l1.13-3.74c5.51 1.67 11.15 3.19 16.75 4.52zm145.11-1.49l-1-3.78c5.58-1.45 11.18-3.09 16.66-4.87l1.21 3.72c-5.5 1.78-11.18 3.44-16.83 4.91zm-167.71-4.85c-5.56-1.8-11.14-3.79-16.59-5.92l1.42-3.64c5.38 2.1 10.89 4.07 16.38 5.84zm190.15-2l-1.28-3.69c5.44-1.88 10.9-4 16.22-6.17l1.5 3.61c-5.36 2.27-10.89 4.36-16.4 6.28zm-212.2-6.17c-5.4-2.23-10.8-4.66-16.07-7.21l1.7-3.52c5.2 2.52 10.53 4.91 15.86 7.12zm234-2.37l-1.57-3.58c5.26-2.3 10.53-4.8 15.66-7.41l1.78 3.48c-5.15 2.68-10.49 5.16-15.82 7.54zm-255.34-7.46c-5.2-2.65-10.39-5.49-15.44-8.45l2-3.37c5 2.92 10.11 5.73 15.24 8.34zm276.4-2.76l-1.84-3.45c5.08-2.72 10.14-5.62 15-8.63l2 3.33c-4.84 3.09-9.97 6.03-15.12 8.78zm-296.88-8.71c-5-3.05-9.93-6.3-14.73-9.64l2.24-3.21c4.73 3.3 9.62 6.5 14.53 9.51zm317.07-3.14l-2.11-3.29a303.7 303.7 0 0014.32-9.78l2.3 3.16c-4.67 3.46-9.55 6.8-14.46 9.94zm-336.58-9.9a294.9 294.9 0 01-13.92-10.76l2.48-3c4.45 3.66 9.08 7.23 13.74 10.62zm355.79-3.5l-2.36-3.11c4.59-3.48 9.14-7.14 13.52-10.88l2.54 3c-4.39 3.79-9 7.49-13.65 11.02zm-374.21-11c-4.44-3.79-8.82-7.76-13-11.81l2.71-2.82c4.16 4 8.49 7.92 12.87 11.66zM1703 1215l-2.59-2.92c4.3-3.82 8.55-7.83 12.63-11.9l2.76 2.76c-4.12 4.17-8.42 8.23-12.8 12.06zm-409.52-12c-4.13-4.13-8.19-8.43-12.07-12.79l2.92-2.6c3.83 4.3 7.83 8.55 11.91 12.62zm426.44-4.18l-2.82-2.71c4-4.15 7.92-8.48 11.66-12.86l3 2.54c-3.82 4.41-7.76 8.8-11.84 13zm-442.37-13c-3.8-4.44-7.51-9-11-13.69l3.11-2.36c3.48 4.58 7.14 9.13 10.89 13.51zm458-4.5l-3-2.48c3.66-4.46 7.23-9.08 10.62-13.74l3.16 2.3c-3.49 4.67-7.11 9.35-10.82 13.87zM1263 1167.39c-3.44-4.72-6.78-9.6-9.93-14.5l3.29-2.11c3.11 4.84 6.4 9.66 9.8 14.31zm486.65-4.82l-3.21-2.24c3.3-4.73 6.5-9.62 9.52-14.53l3.33 2c-3.03 5.02-6.29 9.98-9.61 14.77zM1250 1147.93c-3.06-5-6-10.1-8.76-15.23l3.44-1.85c2.72 5.07 5.62 10.12 8.64 15zm512.35-5.12l-3.37-2c2.92-5 5.73-10.11 8.35-15.24l3.48 1.77c-2.66 5.22-5.51 10.42-8.47 15.47zm-523.82-15.29c-2.65-5.19-5.19-10.53-7.53-15.86l3.58-1.57c2.31 5.27 4.81 10.53 7.43 15.66zm534.89-5.42l-3.52-1.71c2.52-5.19 4.91-10.52 7.12-15.86l3.61 1.49c-2.23 5.42-4.63 10.82-7.21 16.08zm-544.72-15.82c-2.24-5.39-4.35-10.92-6.26-16.43l3.69-1.28c1.89 5.44 4 10.9 6.18 16.22zm554.13-5.7l-3.64-1.42c2.1-5.38 4.07-10.89 5.84-16.38l3.72 1.2c-1.8 5.56-3.75 11.15-5.92 16.6zm-562.26-16.29c-1.81-5.55-3.47-11.23-4.94-16.88l3.78-1c1.46 5.58 3.1 11.18 4.88 16.65zm569.93-5.9l-3.74-1.13c1.67-5.51 3.19-11.15 4.52-16.76l3.8.91c-1.35 5.68-2.89 11.39-4.58 16.98zm-576.3-16.66c-1.36-5.67-2.57-11.46-3.6-17.21l3.85-.68c1 5.67 2.21 11.39 3.55 17zm582.19-6l-3.82-.83c1.22-5.62 2.3-11.36 3.19-17.06l3.86.6c-.91 5.74-1.99 11.56-3.23 17.25zm-586.76-17c-.91-5.76-1.66-11.63-2.23-17.44l3.89-.38c.56 5.74 1.3 11.53 2.2 17.21zm590.84-6.13l-3.87-.53c.78-5.7 1.4-11.51 1.84-17.26l3.9.3c-.46 5.84-1.08 11.72-1.87 17.49zm-593.58-17.16c-.46-5.81-.75-11.72-.87-17.56l3.91-.08c.12 5.77.4 11.6.86 17.34zm595.85-6.18l-3.9-.23c.33-5.74.5-11.57.5-17.35v-.49h3.91v.48c-.01 5.88-.18 11.79-.52 17.6zM1209.86 992H1206v-.32c0-5.76.16-11.56.49-17.27l3.9.22c-.32 5.63-.48 11.36-.48 17v.37zm589.4-6.6c-.12-5.77-.41-11.61-.87-17.34l3.9-.31c.46 5.8.75 11.71.88 17.56zm-588.53-16.54l-3.9-.3c.45-5.84 1.07-11.72 1.86-17.49l3.87.53c-.77 5.71-1.39 11.52-1.83 17.28zm587.16-6.56a288.95 288.95 0 00-2.22-17.21l3.86-.61c.91 5.75 1.67 11.61 2.24 17.44zm-584.49-16.41l-3.86-.61c.91-5.79 2-11.61 3.25-17.29l3.82.84c-1.23 5.61-2.31 11.35-3.21 17.06zm581.3-6.49c-1-5.68-2.22-11.39-3.56-17l3.8-.91c1.36 5.67 2.58 11.46 3.61 17.21zm-576.8-16.21l-3.8-.92c1.37-5.69 2.94-11.4 4.65-17l3.73 1.15c-1.68 5.53-3.22 11.16-4.57 16.78zm571.83-6.39c-1.46-5.57-3.1-11.17-4.89-16.65l3.71-1.21c1.81 5.55 3.48 11.23 5 16.87zm-565.49-15.87l-3.71-1.22q.89-2.71 1.84-5.39c1.25-3.71 2.62-7.48 4-11.17l3.64 1.41c-1.41 3.64-2.75 7.35-4 11-.57 1.83-1.17 3.6-1.76 5.38zm558.76-6.25c-1.89-5.43-4-10.87-6.18-16.18l3.61-1.5c2.24 5.38 4.35 10.9 6.26 16.4zm-550.79-15.48l-3.61-1.48c2.21-5.39 4.63-10.8 7.19-16.06l3.51 1.71c-2.52 5.17-4.91 10.5-7.09 15.82zm542.34-6c-2.31-5.26-4.81-10.52-7.44-15.65l3.48-1.78c2.66 5.2 5.2 10.53 7.54 15.86zm-10.12-20.76a285.77 285.77 0 00-8.65-15l3.33-2c3.06 5 6 10.1 8.76 15.23zm-11.72-19.92c-3.11-4.84-6.41-9.65-9.8-14.31l3.16-2.3c3.44 4.72 6.78 9.6 9.93 14.5zm-13.25-18.95c-3.48-4.58-7.14-9.12-10.89-13.5l3-2.54c3.8 4.44 7.51 9 11 13.68zm-14.7-17.86c-3.83-4.3-7.84-8.55-11.92-12.62l2.76-2.76c4.13 4.12 8.19 8.43 12.07 12.78zM1708.71 779c-4.15-4-8.48-7.91-12.87-11.65l2.54-3c4.44 3.79 8.83 7.76 13 11.81zm-17.31-15.37c-4.46-3.66-9.08-7.23-13.74-10.61l2.3-3.16c4.72 3.43 9.4 7 13.92 10.75zm-18.46-14c-4.73-3.3-9.63-6.5-14.54-9.51l2-3.33c5 3 9.93 6.29 14.73 9.63zm-19.51-12.49c-5-2.92-10.11-5.72-15.24-8.34l1.77-3.48c5.21 2.65 10.4 5.49 15.45 8.45zM1633 726.29c-5.19-2.52-10.53-4.91-15.86-7.11l1.49-3.61c5.4 2.23 10.81 4.66 16.07 7.21zm-21.25-9.29c-5.38-2.1-10.89-4.06-16.38-5.83l1.2-3.72c5.57 1.8 11.15 3.79 16.6 5.91zm-21.9-7.56c-5.52-1.66-11.16-3.18-16.76-4.51l.9-3.8c5.67 1.35 11.39 2.89 17 4.57zm-154.37-4.25l-.9-3.8c5.66-1.34 11.46-2.53 17.24-3.52l.66 3.85c-5.71 1-11.48 2.17-17.01 3.5zm132-1.55c-5.63-1.22-11.37-2.29-17.06-3.18l.6-3.86c5.77.9 11.58 2 17.29 3.22zm-109.26-2.85l-.62-3.79q2.15-.32 4.31-.62c4.21-.72 8.63-1.33 13.08-1.81l.42 3.88a209 209 0 00-12.91 1.79c-1.5.16-2.91.36-4.32.58zm86.48-1.16c-5.7-.77-11.51-1.39-17.26-1.83l.3-3.9c5.83.44 11.71 1.07 17.48 1.85zm-63.5-1.79l-.32-3.89c5.64-.47 11.39-.75 17.58-.86l.07 3.91c-6.15.13-11.82.41-17.38.87zm40.47-.42c-5.63-.32-11.36-.48-17-.48h-.32v-3.91h.32c5.74 0 11.54.16 17.25.49zM1504.64 1371.88c-8.09 0-16.22-.25-24.21-.75l.55-8.77c7.81.49 15.75.74 23.61.74h.28v8.79h-.24zm35.42-1.63l-.81-8.76c7.92-.73 15.9-1.72 23.72-3l1.37 8.68c-8.01 1.32-16.18 2.34-24.28 3.09zm-94.64-2.95c-8-1.25-16.11-2.79-24-4.55l1.91-8.58c7.74 1.73 15.64 3.22 23.48 4.45zm153.42-7.16l-2.17-8.52c7.69-2 15.42-4.19 23-6.64l2.71 8.36c-7.76 2.52-15.67 4.81-23.54 6.81zm-211.44-6.66c-7.74-2.5-15.5-5.3-23.06-8.3l3.24-8.17c7.39 2.93 15 5.66 22.52 8.1zm267.9-12.56l-3.48-8.07c7.27-3.13 14.54-6.55 21.6-10.15l4 7.83c-7.24 3.7-14.68 7.19-22.12 10.4zm-323.07-10.25c-7.24-3.69-14.46-7.66-21.45-11.81l4.49-7.56c6.84 4.06 13.89 7.94 21 11.54zm375.77-17.58l-4.7-7.43c6.7-4.24 13.34-8.76 19.76-13.42l5.17 7.11a382.27 382.27 0 01-20.23 13.74zm-426.68-13.58c-6.58-4.77-13.08-9.83-19.33-15l5.61-6.77c6.11 5.07 12.46 10 18.89 14.66zm474.4-22.18l-5.81-6.6c6-5.24 11.82-10.74 17.43-16.35l6.22 6.22c-5.72 5.72-11.73 11.4-17.82 16.72zM1236 1260.78a381.53 381.53 0 01-16.75-17.83l6.6-5.81c5.25 6 10.75 11.82 16.37 17.42zm561.36-26.24l-6.77-5.61c5.08-6.12 10-12.47 14.68-18.88l7.11 5.17c-4.82 6.56-9.88 13.06-15.07 19.32zm-600.15-19.07c-4.79-6.57-9.42-13.37-13.76-20.21l7.42-4.71c4.24 6.69 8.77 13.33 13.44 19.74zm634.55-29.68l-7.56-4.49c4.06-6.83 7.94-13.88 11.54-21l7.83 4c-3.74 7.28-7.71 14.5-11.87 21.49zm-665.8-21.11c-3.7-7.23-7.2-14.66-10.42-22.1l8.07-3.49c3.14 7.27 6.57 14.53 10.18 21.59zm692.04-32.45l-8.17-3.25c2.93-7.39 5.66-15 8.11-22.52l8.36 2.71c-2.46 7.74-5.3 15.5-8.3 23.06zm-715-22.6c-2.52-7.72-4.81-15.63-6.82-23.5l8.52-2.18c2 7.69 4.2 15.41 6.66 23zm732.58-34.44l-8.58-1.92a363.8 363.8 0 004.45-23.48l8.69 1.36c-1.22 8.03-2.75 16.12-4.52 24.04zm-746.52-23.55a351.8 351.8 0 01-3-24.27l8.75-.81c.73 7.91 1.74 15.88 3 23.71zm754.94-35.5l-8.77-.55c.5-7.91.75-15.94.75-23.89v-.7h8.79v.67c.01 8.16-.25 16.38-.77 24.47zm-750.81-24h-8.79v-.47c0-8 .25-16.07.74-24l8.77.55c-.48 7.74-.73 15.62-.73 23.43v.48zm741.16-35.52c-.74-7.91-1.74-15.88-3-23.71l8.68-1.38c1.27 8 2.3 16.18 3.06 24.27zm-736.71-22.61l-8.69-1.36c1.26-8.05 2.8-16.14 4.59-24l8.58 1.93c-1.73 7.71-3.24 15.61-4.47 23.47zm726.75-34.8c-2-7.69-4.21-15.41-6.67-22.95l8.36-2.73c2.52 7.72 4.82 15.63 6.83 23.49zm-713.1-21.83l-8.35-2.76c.76-2.31 1.56-4.64 2.37-6.94 1.8-5.33 3.78-10.76 5.87-16.07l8.18 3.21c-2 5.18-4 10.47-5.74 15.73q-1.2 3.45-2.31 6.87zm694.24-33.28c-3.15-7.27-6.57-14.53-10.19-21.59l7.82-4a380.2 380.2 0 0110.43 22.1zm-27.28-51.45c-4.25-6.69-8.78-13.33-13.45-19.74l7.1-5.18a378.44 378.44 0 0113.77 20.21zm-35-46.58c-5.25-6-10.76-11.81-16.37-17.41l6.21-6.22c5.75 5.73 11.39 11.73 16.76 17.82zm-41.84-40.57c-6.11-5.06-12.47-10-18.89-14.66l5.16-7.12c6.58 4.77 13.08 9.82 19.34 15zm-47.64-33.5c-6.84-4.05-13.89-7.93-21-11.53l4-7.84c7.24 3.68 14.46 7.65 21.46 11.8zm-52.33-25.68c-7.4-2.93-15-5.65-22.53-8.09l2.7-8.37c7.73 2.5 15.49 5.28 23.07 8.28zm-55.73-17.12a373.35 373.35 0 00-23.48-4.43l1.35-8.69c8 1.25 16.12 2.77 24 4.54zm-139.68-4l-1.32-8.69q2.74-.41 5.49-.79c6.06-1 12.35-1.88 18.7-2.52l.88 8.75c-6.18.62-12.29 1.45-18.18 2.45h-.15q-2.72.36-5.45.77zm82-4.15c-7.75-.48-15.62-.72-23.42-.72h-.48v-8.79h.47c8 0 16 .25 24 .74z" transform="translate(-819.12 -476.53)"/><path class="cls-2" d="M1480 956.84c-.57.41-1.12.81-1.67 1.24l2.12 2.53c.51-.39 1-.78 1.55-1.14zm0 0c-.57.41-1.12.81-1.67 1.24l2.12 2.53c.51-.39 1-.78 1.55-1.14zm24.59-7.81a42.25 42.25 0 00-9.35 1c-.87.19-1.72.42-2.56.66l.8 3.2c.84-.25 1.7-.48 2.57-.66a39.37 39.37 0 11-27.18 21.87c.37-.81.78-1.6 1.2-2.37l-2.93-1.49c-.43.77-.83 1.56-1.21 2.36a42.67 42.67 0 1038.66-24.6zM1482 959.46l-2-2.63c-.57.41-1.12.81-1.67 1.24l2.12 2.53c.55-.38 1.03-.77 1.55-1.14zm-2-2.63c-.57.41-1.12.81-1.67 1.24l2.12 2.53c.51-.39 1-.78 1.55-1.14zm-2.11 1.59c-.55.44-1.08.9-1.6 1.36l2.13 2.52c.48-.43 1-.85 1.47-1.24zm2.11-1.59c-.57.41-1.12.81-1.67 1.24l2.12 2.53c.51-.39 1-.78 1.55-1.14z" transform="translate(-819.12 -476.53)"/><g class="cls-3"><path class="cls-4" d="M1080.3 773c-.41.78-.81 1.57-1.21 2.35q-9.49 18.65-17.34 38.07l-6 15.62-.75 2-.66 2-1.32 4-2.63 7.94-2.63 8-2.26 8.02-2.26 8.07-1.12 4-.56 2-.46 2-3.71 16.33-.94 4.08-.73 4.13-1.46 8.24-1.46 8.24-.36 2.07-.26 2.07-.53 4.16-2.12 16.6-32.41-3.33v-.18l.3-2.3 2.34-18.38c.08-.57.14-1.14.22-1.72s.14-1.14.22-1.72v-.12l.13-.76a2.21 2.21 0 010-.26l.81-4.57 1.61-9.11 1.63-9.12.07-.4.43-1.86.56-2.51 1-4.26 2.88-12.68.11-.51.25-1.08.13-.57c0-.18.08-.34.12-.52s.08-.32.12-.48l.47-1.68 1.2-4.3.95-3.4 1.45-5.22 2.4-8.62 2.81-8.49 2.82-8.48 1.41-4.25.7-2.12.8-2.09 6.43-16.68q8.4-20.76 18.56-40.76c.4-.79.8-1.57 1.21-2.35z" transform="translate(-819.12 -476.53)"/><path class="cls-4" d="M379.81 148.27l-.93.75-1.09.96L356.86 125l1.09-.96.93-.75 20.93 24.98z"/><path class="cls-4" d="M1216.81 610.59c-.72.52-1.41 1.07-2.1 1.63L1195 586.29c.68-.56 1.38-1.1 2.09-1.63zM1695.78 518.93c2.8 1 5.52 2.25 8.25 3.45l8.18 3.61 8.18 3.61c2.71 1.24 5.35 2.63 8 3.94 5.32 2.68 10.7 5.27 16 8l15.61 8.74 3.9 2.19c1.3.72 2.54 1.56 3.81 2.33l7.59 4.74c5 3.18 10.18 6.22 15 9.72l14.7 10.19c4.77 3.57 9.48 7.24 14.22 10.86l3.55 2.72c1.18.91 2.38 1.8 3.5 2.78l6.83 5.78 6.83 5.78 3.41 2.89c1.14 1 2.19 2 3.29 3l13.08 12.21c2.22 2 4.25 4.18 6.34 6.31l6.23 6.42 6.23 6.42c2 2.17 4 4.45 6 6.68 3.93 4.49 7.92 8.92 11.79 13.46 7.38 9.37 15.08 18.5 21.84 28.34l5.22 7.27 2.61 3.63 2.43 3.75 9.7 15c1.67 2.47 3.1 5.09 4.6 7.67l4.47 7.75 4.47 7.75c.77 1.28 1.43 2.61 2.11 3.94l2 4 8.14 15.93c2.5 5.41 4.91 10.86 7.36 16.3l3.65 8.16 3.25 8.33c2.15 5.56 4.37 11.09 6.45 16.67l5.65 17 1.41 4.24c.46 1.42 1 2.82 1.34 4.26l2.39 8.62 2.39 8.62 1.19 4.31.59 2.15.49 2.18 3.91 17.46c4.7 23.37 8.32 47 9.6 70.85l-32.56 2.14c-1.19-22.3-4.6-44.43-9-66.3l-3.65-16.34-.46-2-.56-2-1.12-4-2.24-8.07-2.23-8.07c-.34-1.35-.83-2.67-1.26-4l-1.32-4-5.28-15.9c-2-5.23-4-10.41-6.05-15.62l-3-7.81-3.43-7.64c-2.3-5.09-4.55-10.2-6.89-15.27l-7.63-14.91-1.9-3.73c-.63-1.24-1.25-2.49-2-3.69l-4.19-7.25-4.18-7.25c-1.4-2.41-2.73-4.87-4.3-7.18l-9.08-14.07-2.27-3.52-2.44-3.4-4.89-6.8c-6.31-9.22-13.54-17.74-20.43-26.52-3.63-4.24-7.36-8.39-11-12.59-1.86-2.08-3.65-4.22-5.56-6.25l-5.84-6-5.83-6c-2-2-3.85-4-5.93-5.91l-12.24-11.43c-1-.94-2-1.93-3.08-2.83l-3.2-2.7-6.39-5.41-6.39-5.41c-1-.93-2.17-1.75-3.28-2.6l-3.32-2.55c-4.44-3.38-8.84-6.82-13.3-10.17l-13.76-9.54c-4.52-3.28-9.34-6.11-14.06-9.09l-7.1-4.44c-1.19-.73-2.35-1.51-3.57-2.19l-3.65-2-14.61-8.19c-4.94-2.59-10-5-15-7.53-2.51-1.23-5-2.54-7.51-3.7l-7.66-3.37-7.66-3.38c-2.55-1.13-5.09-2.29-7.72-3.24zM1006.24 1182.12l-3.5-9-3.08-9.17c-2-6.13-4.13-12.22-6-18.38-3.41-12.45-7.17-24.81-9.73-37.48l-2.11-9.45c-.34-1.58-.72-3.15-1-4.73l-.83-4.77-3.27-19.1c-.3-1.59-.49-3.19-.68-4.8l-.58-4.81-1.16-9.62c-.37-3.21-.79-6.41-1.11-9.63l-.69-9.67-.67-9.67c-.21-3.22-.5-6.44-.51-9.68l-.39-19.38c-.12-3.23 0-6.46.11-9.69l.28-9.69.29-9.69c.21-3.22.48-6.44.73-9.66l.76-9.66.38-4.83c.07-.8.12-1.61.21-2.41l.3-2.4 2.45-19.22c.23-1.6.37-3.21.67-4.8l.84-4.77 1.69-9.54 1.7-9.54c.67-3.16 1.41-6.3 2.11-9.45l23.07 5.08c-.67 3-1.39 6-2 9l-1.62 9.12-1.61 9.12-.81 4.56c-.29 1.52-.42 3.06-.64 4.58l-2.34 18.37-.29 2.3c-.08.77-.13 1.54-.19 2.31l-.36 4.62-.72 9.23c-.23 3.08-.5 6.15-.7 9.23l-.28 9.26-.27 9.26c-.08 3.09-.23 6.17-.11 9.26l.37 18.52c0 3.09.28 6.17.48 9.25l.64 9.24.65 9.24c.31 3.07.72 6.13 1.07 9.2l1.11 9.19.55 4.6c.18 1.53.36 3.07.65 4.58l3.13 18.25.79 4.56c.29 1.52.66 3 1 4.52l2 9c2.44 12.11 6.05 23.92 9.29 35.83 1.82 5.89 3.85 11.72 5.77 17.58l2.94 8.77 3.36 8.62zM1218.61 1374a475.62 475.62 0 01-122.48-135l-5.72-9.93-2.86-5-1.43-2.48-.72-1.24-.65-1.28-10.43-20.42-9.4-20.92c-2.88-7.08-5.58-14.24-8.38-21.35a483.61 483.61 0 01-23.22-88.59l10.85-1.77a472.62 472.62 0 0022.69 86.57c2.75 7 5.38 13.95 8.19 20.87l9.18 20.44 10.19 19.95.64 1.25.7 1.21 1.4 2.42 2.8 4.85 5.59 9.7a464.61 464.61 0 00119.64 131.85zM1012.72 857.24l-1.72 6.26-.87 3.13c-.28 1-.49 2.11-.74 3.16l-2.89 12.67-23.07-5.08Q990.68 872 997.9 867c1.21-.84 2.38-1.69 3.62-2.51l3.74-2.44z" transform="translate(-819.12 -476.53)"/><path class="cls-4" d="M1392.11 1489.08l-6.9-1.57-3.45-.79-1.73-.39-1.71-.47-13.64-3.8-6.82-1.9c-1.14-.3-2.27-.66-3.38-1l-3.36-1.11-13.44-4.45c-4.51-1.4-8.88-3.19-13.29-4.87l-13.21-5.09c-4.36-1.81-8.65-3.78-13-5.66l-6.48-2.86c-2.16-.95-4.33-1.89-6.42-3a521.15 521.15 0 01-96.05-59.62c-1.86-1.45-3.76-2.85-5.6-4.34l-5.41-4.57-10.81-9.15c-1.83-1.49-3.54-3.12-5.27-4.73l-5.18-4.83c-3.44-3.24-6.93-6.42-10.32-9.7l-9.88-10.16c-3.26-3.41-6.66-6.7-9.71-10.31l-9.35-10.71c-1.55-1.78-3.15-3.52-4.65-5.34l-4.42-5.54a512.39 512.39 0 01-61-95.19l14.61-7.21a496.09 496.09 0 0059.09 92.13l4.27 5.36c1.45 1.76 3 3.44 4.5 5.17l9.06 10.29c2.95 3.5 6.24 6.67 9.4 10l9.56 9.83c3.28 3.18 6.67 6.25 10 9.39l5 4.68c1.67 1.56 3.32 3.14 5.1 4.58l10.46 8.86 5.23 4.43c1.78 1.44 3.62 2.8 5.42 4.2a504.87 504.87 0 0093 57.73c2 1.06 4.12 2 6.22 2.88l6.27 2.77c4.19 1.82 8.35 3.73 12.56 5.49l12.8 4.93c4.27 1.62 8.5 3.37 12.87 4.71l13 4.31 3.25 1.08c1.08.37 2.17.72 3.28 1l6.6 1.84 13.21 3.68 1.65.46 1.67.38 3.34.76 6.68 1.52z" transform="translate(-819.12 -476.53)"/><path class="cls-4" d="M1319.64 1488.68l-9.6-3.7-4.8-1.85c-1.6-.61-3.2-1.23-4.76-1.94l-18.83-8.3-2.35-1-2.31-1.14-4.61-2.29-9.21-4.59-4.6-2.3-2.3-1.16-2.25-1.25-9-5a512 512 0 01-68.42-45.61 547.54 547.54 0 01-60.61-55.63 562.79 562.79 0 01-51.16-64.47l16.89-11.38a542.52 542.52 0 0049.18 62 527.19 527.19 0 0058.28 53.49 491.65 491.65 0 0065.8 43.86l8.63 4.83 2.16 1.21 2.21 1.11 4.43 2.21 8.85 4.42 4.43 2.21 2.22 1.1 2.26 1 18.11 8c1.5.69 3 1.28 4.58 1.87l4.62 1.78 9.23 3.55zM1072.7 1261.37l9.78 15.15-17.6 11.86q3.7-13.81 7.82-27.01z" transform="translate(-819.12 -476.53)"/><path class="cls-4" d="M1319.64 1488.68l7.41-19.89 4.21 1.62 2.1.81 2.14.71 8.56 2.84q-6 3.62-12.09 7.17l-3.08 1.77-3.06 1.67zM1465.88 1456.52a478.27 478.27 0 01-76.47-12.8 469.89 469.89 0 01-73.26-25.49l8.73-19.74a448.27 448.27 0 0069.88 24.32 456.7 456.7 0 0072.93 12.2zM1557.57 1455.1a442.71 442.71 0 01-70.82 2.72l.83-21.57a421.15 421.15 0 0067.52-2.59zM1768.68 1376.3a485.32 485.32 0 01-67.43 38.27l-8.86 4-4.43 2c-1.47.67-2.94 1.34-4.47 1.9l-18.1 7.05-2.26.88c-.76.27-1.53.51-2.3.77l-4.61 1.53-9.22 3.07-4.61 1.54-2.3.77-2.34.65-9.36 2.59-5.75-20.8 8.93-2.47 2.23-.61 2.2-.73 4.4-1.47 8.8-2.93 4.4-1.46c.73-.25 1.47-.48 2.2-.74l2.16-.85 17.28-6.73c1.45-.53 2.86-1.17 4.26-1.81l4.22-1.9 8.45-3.8a463.79 463.79 0 0064.31-36.49z" transform="translate(-819.12 -476.53)"/><path class="cls-4" d="M2004.69 997a500.83 500.83 0 01-176.16 375.75l-2.51 2.21c-.85.72-1.74 1.4-2.6 2.1l-5.23 4.17-10.46 8.33c-.86.71-1.76 1.36-2.67 2l-2.71 2-5.43 3.9c-3.63 2.59-7.22 5.23-10.88 7.78l-11.23 7.25-5.62 3.63c-1.87 1.21-3.73 2.44-5.68 3.52l-11.58 6.68c-3.88 2.2-7.67 4.55-11.69 6.49a508.09 508.09 0 01-99 39.87 499.72 499.72 0 01-211.87 13.54l3.58-23.35a476.11 476.11 0 00201.82-12.91 484.48 484.48 0 0094.39-38c3.83-1.84 7.44-4.09 11.13-6.19l11-6.36c1.86-1 3.63-2.2 5.41-3.35l5.35-3.46 10.7-6.9c3.48-2.43 6.9-4.94 10.36-7.41l5.17-3.71 2.59-1.86c.87-.61 1.73-1.23 2.55-1.91l10-7.94 5-4c.83-.67 1.67-1.31 2.48-2l2.39-2.11a477.21 477.21 0 00167.84-358z" transform="translate(-819.12 -476.53)"/><path class="cls-4" d="M1751.29 1464.8l-9.56 4.89-4.78 2.44c-1.59.82-3.25 1.49-4.87 2.25l-19.59 8.79c-6.61 2.72-13.31 5.24-20 7.86s-13.46 4.83-20.23 7.12l-10.18 3.38-2.55.83-2.58.72-5.17 1.44-10.34 2.87-5.17 1.43-2.59.71-2.62.6-21 4.69-2.62.58-2.64.47-5.29.91-10.59 1.81-5.35-33.17 9.92-1.7 5-.85c.83-.15 1.66-.27 2.48-.44l2.46-.55 19.64-4.39 2.45-.56 2.42-.67 4.85-1.34 9.7-2.69 4.85-1.35 2.42-.67 2.39-.78 9.55-3.17c6.35-2.15 12.78-4.1 19-6.67s12.52-4.82 18.73-7.37l18.36-8.25c1.52-.71 3.08-1.34 4.57-2.1l4.48-2.29 9-4.58zM2001.95 1131.94l-2.8 10-3.26 9.88-3.27 9.87c-.57 1.64-1 3.31-1.69 4.92l-1.86 4.85-3.74 9.71-1.87 4.85-.94 2.43c-.33.8-.69 1.59-1 2.38l-8.39 19a538.28 538.28 0 01-41.07 72.25l-13.9-9.43a521.5 521.5 0 0039.74-69.91l8.12-18.42c.33-.77.69-1.53 1-2.31l.9-2.35 1.81-4.7 3.61-9.39 1.81-4.7c.63-1.56 1.08-3.17 1.63-4.76l3.16-9.55 3.16-9.56 2.7-9.69zM1937.17 820.9l2.89 7.41 1.45 3.7.72 1.85.62 1.89 5 15.09 1.26 3.77.63 1.88.53 1.91 2.12 7.66 2.12 7.66 1.07 3.83.53 1.91.43 1.94c2.23 10.35 4.88 20.62 6.41 31.1l1.34 7.83c.45 2.61.94 5.21 1.19 7.85l1.89 15.76-15.39 1.6-1.83-15.24c-.24-2.55-.72-5.06-1.15-7.58l-1.3-7.56c-1.48-10.13-4.05-20.06-6.2-30.07l-.41-1.87-.51-1.85-1-3.7-2.06-7.4-2-7.41-.51-1.85-.61-1.82-1.22-3.65-4.85-14.59-.6-1.83-.7-1.79-1.4-3.58-2.8-7.16zM1932.59 666a550.22 550.22 0 0148.4 76.5l-13.72 7.16a534.74 534.74 0 00-47-74.29zM1803.77 544.94a522.77 522.77 0 0170.69 56.49l-10.64 11.24a507.31 507.31 0 00-68.65-54.86zM1491.56 498.14l8.57-.17 4.28-.09c1.43 0 2.86-.06 4.28 0l17.13.5 4.28.13c1.43 0 2.85.2 4.27.3l8.54.67 8.54.67c1.42.13 2.85.18 4.27.38l4.25.54 17 2.17c1.42.15 2.82.42 4.23.67l4.22.75 8.44 1.5 8.44 1.51 8.36 1.9 8.36 1.9 4.18 1 2.09.48 2.06.57 16.51 4.6 4.13 1.15 4.07 1.34 8.14 2.69c10.93 3.36 21.48 7.79 32.17 11.82l15.69 6.89 3.92 1.73c1.31.58 2.62 1.13 3.89 1.8l7.67 3.83 7.67 3.83 3.83 1.91c1.28.64 2.5 1.38 3.75 2.06l15 8.38-16.53 28.31-14-7.82c-1.17-.64-2.31-1.34-3.5-1.93l-3.58-1.78-7.18-3.63-7.16-3.58c-1.18-.62-2.41-1.14-3.63-1.68l-3.66-1.61-14.65-6.44c-10-3.75-19.83-7.91-30-11l-7.6-2.52-3.8-1.26-3.86-1.07-15.42-4.3-1.93-.54-2-.44-3.9-.88-7.8-1.77-7.8-1.78-7.88-1.4L1580 537l-3.94-.7c-1.31-.23-2.62-.49-3.95-.63l-15.87-2-4-.51c-1.32-.19-2.66-.23-4-.35l-8-.62-8-.63c-1.33-.09-2.66-.25-4-.28l-4-.11-16-.47c-1.33-.07-2.66 0-4 0l-4 .08-8 .16z" transform="translate(-819.12 -476.53)"/><path class="cls-4" d="M1555.85 1489.14l13.92-1.67c2.32-.29 4.64-.53 7-.87l6.91-1.18 5.35 33.17q-4.36-3.52-8.59-7.06c-2.83-2.42-5.64-4.94-8.41-7.41q-8.35-7.46-16.18-14.98zM1991.75 1104.18l-1.33 5.84c-.45 1.94-.85 3.9-1.42 5.81l-3.21 11.54 16.16 4.57q-2.38-7.1-4.82-14c-.77-2.29-1.73-4.62-2.63-6.91zM1635.68 498.88l-2.73 10.23c-6.05-1.82-12.24-3.08-18.38-4.5l-9.23-2.1-2.34-.51-2.33-.41-4.65-.84-9.32-1.65-4.65-.83-2.33-.41c-.78-.13-1.56-.21-2.34-.32l-18.78-2.4a533.71 533.71 0 00-75.6-2.53 546.93 546.93 0 00-75.1 9q-12.38 2.53-24.61 5.66l-2.56.66-2.6-10.26c.86-.23 1.72-.45 2.56-.66q12.49-3.2 25.14-5.79a558.3 558.3 0 0176.72-9.23 541.72 541.72 0 0177.21 2.59l19.18 2.44c.79.11 1.6.2 2.39.33l2.39.42 4.75.84 9.52 1.69 4.75.84 2.39.43 2.35.53 9.42 2.13c6.29 1.5 12.61 2.77 18.78 4.65z" transform="translate(-819.12 -476.53)"/></g><g class="cls-3"><path class="cls-6" d="M1560.28 1107.43a129.17 129.17 0 0053-47.42 122.06 122.06 0 008.49-15.86c1.3-2.71 2.3-5.54 3.43-8.32.93-2.85 2-5.66 2.75-8.57a129.83 129.83 0 005-35.56h11.12a141 141 0 01-5.46 38.63c-.82 3.16-2 6.22-3 9.32-1.22 3-2.31 6.11-3.72 9.05a133.18 133.18 0 01-9.23 17.24 140.29 140.29 0 01-57.6 51.51zM1608.49 898.61l-4.14 3.7-4.15 3.69a128.3 128.3 0 00-95.82-42.72 132.4 132.4 0 00-30.16 3.63c-.87.21-1.72.43-2.57.66l-2.72-10.78c.85-.23 1.71-.45 2.56-.65a142.68 142.68 0 0132.88-4A139.54 139.54 0 011594 884.6a138.48 138.48 0 0114.49 14.01z" transform="translate(-819.12 -476.53)"/><path class="cls-6" d="M1502.36 1112l2.19.06 2.19-.06c1.46 0 2.92-.06 4.37-.12 2.9-.25 5.82-.37 8.7-.81s5.76-.88 8.62-1.38c1.43-.28 2.84-.65 4.26-1l2.13-.49 2.1-.6a119.51 119.51 0 0031.81-14.11l4.3 6.82a127.57 127.57 0 01-34 15.06l-2.24.64-2.27.53c-1.52.34-3 .72-4.55 1-3.06.54-6.11 1.15-9.2 1.47s-6.18.61-9.28.86c-1.55.07-3.11.09-4.66.13l-2.33.06-2.33-.06zM1427.9 1108.23a139.2 139.2 0 00102.53 20.57l.69 3.69a143 143 0 01-105.29-21.12z" transform="translate(-819.12 -476.53)"/><path class="cls-6" d="M1578.47 1096.69c-1.75 1.3-3.6 2.46-5.44 3.63l-4.3-6.82c3.15 1.18 6.44 2.29 9.74 3.19zM1396.43 1060.84a128.08 128.08 0 0017.89 22.14 131.46 131.46 0 0022.34 17.65 127.56 127.56 0 0053.4 18.62l-.62 5.52a133.13 133.13 0 01-55.73-19.43 137 137 0 01-23.3-18.42 133.64 133.64 0 01-18.67-23.1z" transform="translate(-819.12 -476.53)"/><path class="cls-6" d="M1411.93 1070.16a121.61 121.61 0 0062.93 39.31l-1.7 6.74a128.57 128.57 0 01-66.54-41.55zM1477.54 1117.52l-4.44-1 1.77-7q1.21 3.94 2.67 8zM1411.93 1070.16l-5.53 4.68c-1-1.13-1.94-2.34-2.88-3.53 2.84-.31 5.6-.65 8.41-1.15zM1374.35 1051.37a146.51 146.51 0 0011.68 20.76 144.22 144.22 0 0015 18.5l-5.33 5.09a151.57 151.57 0 01-15.76-19.45 153.88 153.88 0 01-12.28-21.83zM1365.19 1024.71a136.72 136.72 0 006.61 20.76l-6.83 2.77a144.09 144.09 0 01-6.95-21.84zM1365.95 955.52a144.54 144.54 0 00-4.15 47.28l-7.34.56a151.9 151.9 0 014.37-49.7z" transform="translate(-819.12 -476.53)"/><path class="cls-6" d="M1388.75 1054.6l-7.09 3.85a140.41 140.41 0 01-8.07-115.8 137 137 0 015.83-13.36c.4-.79.8-1.58 1.21-2.37l7.17 3.69c-.41.78-.81 1.56-1.21 2.35a130 130 0 00-5.46 12.51A127.38 127.38 0 001374 974c-.08.64-.15 1.28-.24 1.91-.18 1.47-.33 2.93-.45 4.41l-.19 2.49c-.08 1.2-.14 2.41-.19 3.61 0 .8-.06 1.62-.07 2.42q-.08 3.45 0 6.9v.11c0 1.13.08 2.27.14 3.4v.44c0 .44 0 .88.08 1.32s.08 1.17.13 1.75a129.41 129.41 0 001.84 13.49c.35 1.83.73 3.64 1.16 5.46.13.57.28 1.16.42 1.73a131.11 131.11 0 0012.12 31.16z" transform="translate(-819.12 -476.53)"/><path class="cls-6" d="M1385.37 975.57c-.18 1.61-.46 3.2-.56 4.81l-.37 4.83c-.08 3.23-.25 6.47-.09 9.7a114.47 114.47 0 002 19.25l-11.27 2.13a125.92 125.92 0 01-2.24-21.08c-.16-3.54 0-7.08.11-10.61l.4-5.29c.11-1.77.42-3.51.61-5.27zM1508.85 848.12a146.43 146.43 0 00-19.58.72c-3.24.43-6.5.75-9.71 1.39-1.61.31-3.23.53-4.82.91l-4.78 1.1-1.27-5.13 5-1.14c1.65-.39 3.33-.63 5-.94 3.33-.66 6.71-1 10.07-1.45a151.7 151.7 0 0120.29-.74zM1540.23 878.19a122.4 122.4 0 00-19.53-4.31l.71-5.23a127.67 127.67 0 0120.4 4.51zM1575.07 895.89a114.87 114.87 0 00-17.07-10.46l2.38-4.72a120.15 120.15 0 0117.82 10.93zM1631.75 949.56a133.82 133.82 0 00-41.34-60.7l7.17-8.59a145 145 0 0144.8 65.73zM1376.68 1023.51l-.83-3.6-.41-1.8-.32-1.82 11.27-2.13-2.52 2.23c-.82.75-1.61 1.52-2.42 2.29q-2.4 2.32-4.77 4.83z" transform="translate(-819.12 -476.53)"/><path class="cls-6" d="M1633 991.7a145.56 145.56 0 00-1.46-19.4 141.92 141.92 0 00-4.37-18.94 137.69 137.69 0 00-7.17-18.06 130.08 130.08 0 00-9.86-16.75l3-2.06a133.69 133.69 0 0110.14 17.23 141.26 141.26 0 017.41 18.56 145.46 145.46 0 014.49 19.48 149.1 149.1 0 011.5 19.94H1633z" transform="translate(-819.12 -476.53)"/></g><g class="cls-3"><path class="cls-4" d="M1674.36 1093.33a198.21 198.21 0 0028.09-101.63h12l-.18 7.07-.09 3.54-.26 3.53-.54 7.05-.88 7-.45 3.51c-.18 1.16-.41 2.32-.61 3.48l-1.24 7-1.58 6.9-.8 3.45-1 3.4c-.65 2.27-1.27 4.54-2 6.8l-2.27 6.7c-.39 1.11-.73 2.25-1.17 3.34l-1.3 3.29c-.89 2.19-1.69 4.41-2.64 6.56-2 4.29-3.81 8.63-6 12.79-2.07 4.24-4.49 8.3-6.83 12.39z" transform="translate(-819.12 -476.53)"/><path class="cls-4" d="M1659 1158.43a228.06 228.06 0 0062.38-98.36l-16.66-5.25-2.18 6.44c-.38 1.07-.7 2.16-1.12 3.21l-1.25 3.16c-.84 2.1-1.64 4.23-2.52 6.31l-2.8 6.19c-.48 1-.91 2.08-1.43 3.08l-1.55 3c-1 2-2 4-3.13 6-2.29 3.91-4.41 7.92-6.94 11.68a211.17 211.17 0 01-16 22c-3 3.41-5.86 6.91-9.06 10.13-1.58 1.62-3.09 3.32-4.73 4.88l-4.92 4.69z" transform="translate(-819.12 -476.53)"/><path class="cls-4" d="M1564.29 1180.37a207.41 207.41 0 0027.32-11l6.56-3.36c2.17-1.15 4.27-2.43 6.4-3.64 1.06-.62 2.15-1.19 3.18-1.86l3.1-2c2.05-1.35 4.18-2.59 6.14-4.06l6-4.27 5.79-4.55c2-1.47 3.76-3.16 5.63-4.75l2.79-2.41c.93-.81 1.79-1.69 2.68-2.52a189.76 189.76 0 0019.92-21.68l9.39 7.43a201.7 201.7 0 01-21.12 23c-1 .89-1.87 1.82-2.85 2.67l-3 2.56c-2 1.68-3.89 3.47-6 5l-6.14 4.83-6.37 4.53c-2.09 1.56-4.34 2.88-6.51 4.31l-3.29 2.11c-1.09.71-2.25 1.31-3.37 2-2.27 1.28-4.5 2.63-6.79 3.86l-7 3.56a219.37 219.37 0 01-29 11.62zM1593.71 1143.92a177.65 177.65 0 0067.09-70.27l7.95 4.18a186.63 186.63 0 01-70.5 73.84z" transform="translate(-819.12 -476.53)"/><path class="cls-4" d="M1491.86 1180.1a188.44 188.44 0 00126.1-37.32l5.4 7.18a197.42 197.42 0 01-132.09 39.1z" transform="translate(-819.12 -476.53)"/><path class="cls-4" d="M1387.51 1169.4a211.47 211.47 0 0073.61 30.67 216 216 0 0079.72 1.33l-2.53-14.75a201.08 201.08 0 01-74.14-1.23 196.49 196.49 0 01-68.41-28.5z" transform="translate(-819.12 -476.53)"/><path class="cls-4" d="M1339.08 1077.34c18.23 35.57 48.49 64.74 84.38 82.19l-5 10.33c-38.12-18.53-70.21-49.48-89.57-87.24z" transform="translate(-819.12 -476.53)"/><path class="cls-4" d="M1305.44 1066.79c1.59 4 3.1 8.05 5 12 .9 2 1.75 3.94 2.7 5.88l2.95 5.76 1.48 2.88 1.61 2.8 3.23 5.61c1.13 1.84 2.32 3.64 3.47 5.46s2.3 3.65 3.58 5.39l3.75 5.27c.61.89 1.26 1.75 1.94 2.59l2 2.54c1.35 1.68 2.62 3.42 4 5l4.23 4.89c1.38 1.66 2.88 3.21 4.37 4.76l4.47 4.67 4.68 4.46 2.34 2.23c.79.73 1.62 1.42 2.43 2.13l6-6.73c-.78-.68-1.57-1.34-2.33-2l-2.24-2.14-4.48-4.28-4.28-4.48c-1.43-1.49-2.87-3-4.19-4.56l-4.06-4.68c-1.36-1.56-2.57-3.23-3.87-4.84l-1.91-2.44c-.65-.8-1.27-1.63-1.86-2.48l-3.59-5c-1.23-1.66-2.31-3.42-3.43-5.16s-2.25-3.47-3.33-5.23l-3.09-5.37-1.54-2.69-1.42-2.75-2.82-5.51c-.91-1.85-1.72-3.76-2.58-5.63-1.78-3.73-3.22-7.6-4.74-11.44zM1314.63 1122.72c27.37 39.6 67.23 70.53 112.78 86.5l-3.5 9.88c-47.64-16.71-89.3-49-117.9-90.42zM1432.16 1158c1.67.8 3.4 1.44 5.12 2.12l5.16 2 5.25 1.77 2.62.89c.88.29 1.78.51 2.66.77l5.33 1.52c1.77.52 3.6.85 5.39 1.29s3.59.9 5.41 1.2l5.46 1 1.89-11.32-5.11-.91c-1.71-.28-3.37-.76-5.07-1.12s-3.39-.72-5-1.21l-5-1.42c-.83-.24-1.67-.45-2.49-.72l-2.45-.84-4.92-1.65-4.83-1.9c-1.61-.64-3.23-1.23-4.79-2zM1317.67 926.85l-1.28 3.78c-.43 1.26-.87 2.52-1.2 3.81l-2.18 7.68-1.8 7.78-.45 1.95-.35 2-.7 3.93-.7 3.93-.5 4-.5 4-.25 2-.15 2-.61 8-.2 8a195.49 195.49 0 009.48 62.91l10.92-3.52a184 184 0 01-8.92-59.26l.19-7.53.57-7.51.14-1.88.24-1.87.48-3.73.47-3.73.66-3.7.66-3.7.33-1.85.43-1.83 1.69-7.33 2.06-7.23c.31-1.21.72-2.4 1.13-3.58l1.21-3.56zM1300.81 989.46c-.11 2.28 0 4.56.06 6.83s.07 4.56.22 6.83c.39 4.54.57 9.1 1.25 13.61a203.69 203.69 0 005.09 26.84l-4.34 1.14a208.16 208.16 0 01-5.21-27.43c-.69-4.61-.88-9.27-1.28-13.91-.15-2.32-.15-4.65-.23-7s-.17-4.65-.06-7z" transform="translate(-819.12 -476.53)"/><path class="cls-4" d="M1329 900.5c-.42.78-.81 1.56-1.21 2.35a198.35 198.35 0 00-7.78 17.51l-.89 2.24c-.15.39-.31.77-.45 1.17l-1 3.07-1.62 4.81c-.29.87-.55 1.74-.8 2.61-.1.34-.2.67-.29 1l-.22.75c-.25.87-.5 1.74-.74 2.61l-.2.72c-.26.94-.53 1.87-.8 2.81s-.41 1.77-.62 2.66c-.4 1.69-.8 3.39-1.18 5.08 0 .09 0 .16-.05.24-.19.8-.36 1.64-.53 2.44v.2l-1 5.39-.54 3v.19l-.1.69c-.07.5-.13 1-.19 1.5l-10.38-1.47c.2-1.9.57-3.8.9-5.69l1-5.67c.76-3.76 1.69-7.48 2.54-11.23 1.08-3.68 2-7.41 3.21-11.06l1.85-5.45.92-2.73c.33-.9.69-1.79 1-2.68a206.06 206.06 0 018.64-19.53c.39-.79.79-1.58 1.2-2.37zM1344.54 908.43c-.41.78-.81 1.57-1.2 2.37-.59 1.17-1.17 2.34-1.73 3.52l-5.4-2.57c.58-1.23 1.18-2.45 1.79-3.68.4-.79.8-1.58 1.21-2.37zM1386 848l3.84 4.59c-.68.56-1.35 1.13-2 1.71l-3.85-4.59c.67-.61 1.35-1.18 2.01-1.71zM1396.67 847.2c-.72.52-1.42 1.06-2.11 1.61l-3.63-4.76c.69-.55 1.4-1.08 2.11-1.61zM1371.92 831.15l6.73 8c-.68.55-1.36 1.12-2 1.69l-6.73-8c.64-.58 1.31-1.14 2-1.69zM1386.1 833.3c-.7.53-1.41 1.07-2.1 1.61l-6.35-8.35c.69-.54 1.4-1.08 2.1-1.61zM1481.53 795.23a191.67 191.67 0 00-24.33 4.38c-.86.21-1.72.42-2.57.65l-2.56-10.17 2.56-.65a205.75 205.75 0 0125.69-4.62zM1550.63 803.89a196.94 196.94 0 00-44.23-5.51l-.11 12a185 185 0 0141.5 5.17zM1489.07 817.52c-1 .09-1.93.12-2.88.24l-2.87.37c-1.9.25-3.82.46-5.73.74l-5.68 1c-.95.18-1.9.32-2.85.52l-2.81.65-3.42.79-2.2.52-.37.11-2.08-8.24.32-.09 2.26-.52 3.64-.85 3-.68c1-.21 2-.36 3-.55l6-1.07c2-.29 4-.51 6-.77l3-.4c1-.13 2-.17 3-.25z" transform="translate(-819.12 -476.53)"/><path class="cls-4" d="M1656.6 857.07a202.72 202.72 0 00-150.11-68.41l.1-10.73a213.45 213.45 0 01158 72z" transform="translate(-819.12 -476.53)"/><path class="cls-4" d="M1620.35 824.85a210.25 210.25 0 00-28.58-16.62 201 201 0 00-30.93-11.68l-7.84 27.1a172.8 172.8 0 0126.61 10 182.11 182.11 0 0124.65 14.35zM1696.71 991.7a191.07 191.07 0 00-15.84-76.43 193.26 193.26 0 00-45-63.78L1627 861a180.28 180.28 0 0142 59.48 178.08 178.08 0 0114.77 71.26h13z" transform="translate(-819.12 -476.53)"/><path class="cls-4" d="M1630.92 832.74c-1.74-1.35-3.44-2.74-5.2-4.06l-5.38-3.82-16.08 23.14q6.34-4.14 13.05-8c4.44-2.55 8.95-4.94 13.61-7.26zM1320.05 920.36l-1.27 3.22-1.11 3.27 10.84 3.76c-1.46-1.65-2.92-3.34-4.34-5.06s-2.75-3.43-4.12-5.19zM1554.91 1183.08c3.13-.91 6.28-1.74 9.38-2.71l3.61 11.42c-4.5-2.79-8.9-5.79-12.99-8.71zM1384.25 1148.7c1.82 1.5 3.77 2.82 5.69 4.19s3.8 2.79 5.82 4l-8.25 12.49c-.79-3.4-1.35-7-1.91-10.41s-1.05-6.79-1.35-10.27z" transform="translate(-819.12 -476.53)"/></g><g class="cls-3"><path class="cls-4" d="M1438.68 1030.78a76.46 76.46 0 0035.14 31.12l-1.56 3.56a89.38 89.38 0 01-11-5.9 84.17 84.17 0 01-10-7.55 78.42 78.42 0 01-8.7-9 75.79 75.79 0 01-7.19-10.25z" transform="translate(-819.12 -476.53)"/><path class="cls-4" d="M1436.37 1022.12a74.72 74.72 0 0030.53 34.06l-2 3.36a78.62 78.62 0 01-32.12-35.84zM1430.65 971.52a76.43 76.43 0 002.12 46.89l-3.65 1.36a80.33 80.33 0 01-2.23-49.27z" transform="translate(-819.12 -476.53)"/><path class="cls-4" d="M1430.64 986.69a74.19 74.19 0 004.51 30.84l-3.65 1.36a78.09 78.09 0 01-4.74-32.46zM1439.18 956.93c-.42.78-.83 1.57-1.2 2.37-.07.13-.12.25-.18.39a74.3 74.3 0 00-5.4 15.34l-2.48-.57-1.3-.31c.23-1 .48-2 .76-3a78 78 0 014.92-13.17 3.74 3.74 0 01.23-.47c.37-.8.78-1.58 1.2-2.37zM1493.22 915.92c-2.11.31-4.23.7-6.31 1.2-.86.21-1.72.42-2.56.66l-1-3.76c.85-.24 1.71-.46 2.56-.66q3.32-.79 6.68-1.29zM1533.84 923.61a74.42 74.42 0 00-31.55-6l-.12-3.89a78.31 78.31 0 0133.21 6.32zM1568.71 949.71a76 76 0 00-23.78-23.18l2-3.31a79.85 79.85 0 0125 24.36z" transform="translate(-819.12 -476.53)"/><path class="cls-4" d="M1560.77 943.33a74.43 74.43 0 00-25.77-19.19l1.6-3.55a78.33 78.33 0 0127.1 20.2zM1578.18 982.9a74.47 74.47 0 00-10.63-30.31l3.31-2.05a78.36 78.36 0 0111.14 31.9zM1572.75 1026.75a76.28 76.28 0 008.44-32.12l3.89.15a80.17 80.17 0 01-8.87 33.75z" transform="translate(-819.12 -476.53)"/><path class="cls-4" d="M1567.26 1032.36a74.81 74.81 0 0011.32-30.33l3.85.54a78.7 78.7 0 01-11.9 31.91zM1473.81 1061.9a76.68 76.68 0 0089-20.27l3 2.53a80.53 80.53 0 01-55.91 27.9 75.76 75.76 0 01-12.82-.19 80.29 80.29 0 01-12.63-2.22 87.72 87.72 0 01-12.11-4.2z" transform="translate(-819.12 -476.53)"/></g><g class="cls-3"><path class="cls-6" d="M1552.73 1026.24a60.26 60.26 0 008.31-16.38 65 65 0 002.86-18.15h6.81a71.73 71.73 0 01-3.18 20.24 67.07 67.07 0 01-9.26 18.27z" transform="translate(-819.12 -476.53)"/><path class="cls-6" d="M1545.89 1029.26a55.64 55.64 0 0014.19-31.11l6.77.78a62.46 62.46 0 01-15.92 34.91zM1513.27 1050.29l2.28-.35c.38-.06.76-.1 1.14-.19l1.12-.29 4.47-1.15 4.33-1.59 1.08-.4 1-.5 2.08-1 2.08-1 2-1.2 2-1.2 1-.6.92-.69 3.69-2.77 3.41-3.1 4.74 4.89-3.81 3.45c-1.35 1.05-2.73 2.06-4.11 3.09l-1 .77-1.09.68-2.2 1.34-2.2 1.33-2.31 1.12-2.32 1.11-1.16.55-1.21.45-4.83 1.76-5 1.29-1.25.32c-.42.09-.85.14-1.27.21l-2.54.39z" transform="translate(-819.12 -476.53)"/><path class="cls-6" d="M1523.16 1043.26a55.3 55.3 0 0019.57-12.18l4.74 4.89a62.11 62.11 0 01-22 13.7zM1491.7 1045a55.5 55.5 0 0023.06.61l1.25 6.69a62.3 62.3 0 01-25.91-.69zM1473.87 1042.34l2 1.24c.67.43 1.43.72 2.14 1.08l2.16 1a16.55 16.55 0 002.19 1l-2.55 6.31a19.93 19.93 0 01-2.45-1.06l-2.41-1.16c-.79-.41-1.63-.73-2.38-1.21l-2.28-1.38zM1463 1034l3.55 3.22c1.23 1 2.55 1.93 3.81 2.9l-3.94 5.56c-1.42-1.08-2.88-2.1-4.25-3.23l-4-3.59zM1454.48 1023.29a22.44 22.44 0 001.29 2l1.44 1.92 1.43 1.92c.49.63 1.06 1.19 1.59 1.79l-5.1 4.51c-.59-.67-1.22-1.3-1.76-2l-1.6-2.13-1.6-2.14c-.56-.7-1-1.5-1.44-2.25zM1449.76 992.12a54.89 54.89 0 005.36 23.14l-6.15 2.93a61.71 61.71 0 01-6-26zM1452.37 963.69c-.41.78-.81 1.56-1.19 2.37a.08.08 0 000 .06 59.22 59.22 0 00-5.19 17.25l-2.38-.33-4.37-.62a66.1 66.1 0 015.81-19.27l.1-.21c.38-.8.78-1.58 1.2-2.37z" transform="translate(-819.12 -476.53)"/><path class="cls-6" d="M1455.17 968a54.9 54.9 0 00-5.4 23.13l-6.81-.07a61.72 61.72 0 016.07-26zM1508.67 925.8l-.21 3.39-.21 3.4a60.14 60.14 0 00-17.07 1.42c-.87.2-1.72.41-2.57.65h-.08l-.92-3.29h.17l-.83-3.29c.85-.24 1.71-.45 2.56-.65a66.4 66.4 0 0119.16-1.63z" transform="translate(-819.12 -476.53)"/><path class="cls-6" d="M1514.71 929.88l-1.09 6.72a57.07 57.07 0 00-21.6.69c-.86.19-1.72.4-2.56.64l-.1-.34-.83-2.92-.92-3.29h.17c.85-.24 1.71-.45 2.57-.65a63.47 63.47 0 0118.11-1.51c2.09.1 4.18.33 6.25.66zM1563.89 991.7a63.81 63.81 0 00-3-18.57l-1.62-4.44-2-4.26c-.17-.35-.33-.71-.52-1.06l-.61-1-1.23-2c-.42-.67-.8-1.36-1.25-2l-1.42-1.89a57.29 57.29 0 00-13.43-13.16 62.11 62.11 0 00-16.87-8.31l2-6.51a68.9 68.9 0 0118.82 9.26 64.09 64.09 0 0115 14.66l1.57 2.11c.5.72.93 1.49 1.39 2.23L1562 959l.68 1.13c.2.39.39.79.58 1.18l2.27 4.75 1.81 4.95a70.59 70.59 0 013.35 20.7h-6.81z" transform="translate(-819.12 -476.53)"/></g><path class="cls-2" transform="rotate(-45 943.122 2165.506)" d="M1925.95 1409.35h3.91v11.31h-3.91z"/><path class="cls-2" d="M858.6 691.05l-34.99-34.98 2.77-2.77 266.89 266.9-2.76 2.77L858.6 691.05"/><path class="cls-2" transform="rotate(-45 588.51 1810.901)" d="M1571.34 1018.06h3.91v84.67h-3.91z"/><path class="cls-2" transform="rotate(-16.3 -635.425 3625.975)" d="M1451.69 1003.25h12.14v3.91h-12.14z"/><path class="cls-2" transform="rotate(-16.09 -724.865 3689.433)" d="M1312.2 1028.31h117.33v3.91H1312.2z"/><path class="cls-2" transform="rotate(-16.09 -1058.059 3785.512)" d="M873.26 1124.46h328.65v3.91H873.26z"/><circle class="cls-2" cx="1112.78" cy="942.48" r="11.3"/><path class="cls-2" d="M1931.9 1450a31 31 0 1131-31 31.05 31.05 0 01-31 31zm0-59.1a28.09 28.09 0 1028.1 28.1 28.12 28.12 0 00-28.1-28.08zM850.49 1211.74a31.37 31.37 0 1131.37-31.37 31.4 31.4 0 01-31.37 31.37zm0-60.78a29.41 29.41 0 1029.41 29.41 29.45 29.45 0 00-29.41-29.37z" transform="translate(-819.12 -476.53)"/><path class="cls-2" transform="rotate(-86.85 1381.413 1215.771)" d="M2040.77 889.99h3.91v262.65h-3.91z"/><path class="cls-2" transform="rotate(-86.85 971.632 1193.213)" d="M1630.99 929.46h3.91v138.59h-3.91z"/><circle class="cls-2" cx="1354.72" cy="552" r="11.85"/><g class="cls-3"><path class="cls-4" d="M1479.89 961.07l-2-2.64-7-9.17-.31-.38-.09-.09-4.36-5.22-9.64-11.57-2.5-3-29.24-34.87-3.68-4.4-5.18-6.17-26-31.06-3.89-4.5-7.37-8.79-6.73-8-35.9-42.93-27.79-33.15-8.8-10.5-2.15-2.57-2 1.73 2.12 2.53 8.8 10.51 26.36 31.44 37.36 44.56 6.73 8 7.38 8.8 3.85 4.58 26 31 5.17 6.18 3.69 4.4 29.28 34.96 2.5 3 9.66 11.53 4.39 5.22 7.79 9.31 2.13 2.52 18.24 21.78.17-.18.17-.17a.3.3 0 00.07-.08zm0 0l-2-2.64-7-9.17-.31-.38-.09-.09-4.36-5.22-9.64-11.57-2.5-3-29.24-34.87-3.68-4.4-5.18-6.17-26-31.06-3.89-4.5-7.37-8.79-6.73-8-35.9-42.93-27.79-33.15-2 1.71 26.36 31.44 37.36 44.56 6.73 8 7.38 8.8 3.85 4.58 26 31 5.17 6.18 3.69 4.4 29.25 34.95 2.5 3 9.66 11.53 4.39 5.22 7.79 9.31 2.13 2.52 18.24 21.78.17-.18.17-.17a.3.3 0 00.07-.08zm0 0l-2-2.64-7-9.17-.31-.38-.09-.09-4.36-5.22-9.64-11.57-2.5-3-29.24-34.87-3.68-4.4-5.18-6.17-26-31.06-3.89-4.5-7.37-8.79-6.73-8-35.9-42.93-27.79-33.15-2 1.71 26.36 31.44 37.36 44.56 6.73 8 7.38 8.8 3.85 4.58 26 31 5.17 6.18 3.69 4.4 29.25 34.95 2.5 3 9.66 11.53 4.39 5.22 7.79 9.31 2.13 2.52 18.24 21.78.17-.18.17-.17a.3.3 0 00.07-.08zm0 0l-2-2.64-7-9.17-.31-.38-.09-.09-4.36-5.22-9.64-11.57-2.5-3-29.24-34.87-3.68-4.4-5.18-6.17-26-31.06-3.89-4.5-7.37-8.79-6.73-8-35.9-42.93-27.79-33.15-2 1.71 26.36 31.44 37.36 44.56 6.73 8 7.38 8.8 3.85 4.58 26 31 5.17 6.18 3.69 4.4 29.25 34.95 2.5 3 9.66 11.53 4.39 5.22 7.79 9.31 2.13 2.52 18.24 21.78.17-.18.17-.17a.3.3 0 00.07-.08zm0 0l-2-2.64-7-9.17-.31-.38-.09-.09-4.36-5.22-9.64-11.57-2.5-3-29.24-34.87-3.68-4.4-5.18-6.17-26-31.06-3.89-4.5-7.37-8.79-6.73-8-35.9-42.93-27.79-33.15-2 1.71 26.36 31.44 37.36 44.56 6.73 8 7.38 8.8 3.85 4.58 26 31 5.17 6.18 3.69 4.4 29.25 34.95 2.5 3 9.66 11.53 4.39 5.22 7.79 9.31 2.13 2.52 18.24 21.78.17-.18.17-.17a.3.3 0 00.07-.08zm0 0l-2-2.64-7-9.17-.31-.38-.09-.09-4.36-5.22-9.64-11.57-2.5-3-29.24-34.87-3.68-4.4-5.18-6.17-26-31.06c-.69.56-1.35 1.13-2 1.7l26 31 5.17 6.18 3.69 4.4 29.25 34.97 2.5 3 9.66 11.53 4.39 5.22 7.79 9.31 2.13 2.52 18.24 21.78.17-.18.17-.17a.3.3 0 00.07-.08zm-2-2.64l-7-9.17-.31-.38-.09-.09-4.36-5.22-9.64-11.57-2.5-3-29.24-34.87-3.68-4.4-5.18-6.17-26-31.06c-.69.56-1.35 1.13-2 1.7l26 31 5.17 6.18 3.69 4.4 29.25 34.97 2.5 3 9.66 11.53 4.39 5.22 7.79 9.31 2.13 2.52c.48-.43 1-.85 1.47-1.24zm2 2.64l-2-2.64-7-9.17-.31-.38-.09-.09-4.36-5.22-9.64-11.57-2.5-3-29.24-34.87-3.68-4.4-5.18-6.17-26-31.06c-.69.56-1.35 1.13-2 1.7l26 31 5.17 6.18 3.69 4.4 29.25 34.97 2.5 3 9.66 11.53 4.39 5.22 7.79 9.31 2.13 2.52 18.24 21.78.17-.18.17-.17a.3.3 0 00.07-.08zm0 0l-2-2.64-7-9.17-.31-.38-.09-.09-4.36-5.22-9.64-11.57-2.5-3-29.24-34.87-3.68-4.4-5.18-6.17-26-31.06c-.69.56-1.35 1.13-2 1.7l26 31 5.17 6.18 3.69 4.4 29.25 34.97 2.5 3 9.66 11.53 4.39 5.22 7.79 9.31 2.13 2.52 18.24 21.78.17-.18.17-.17a.3.3 0 00.07-.08zm0 0l-2-2.64-7-9.17-.31-.38-.09-.09-4.36-5.22-9.64-11.57-2.5-3-29.24-34.87-3.68-4.4-5.18-6.17-26-31.06c-.69.56-1.35 1.13-2 1.7l26 31 5.17 6.18 3.69 4.4 29.25 34.97 2.5 3 9.66 11.53 4.39 5.22 7.79 9.31 2.13 2.52 18.24 21.78.17-.18.17-.17a.3.3 0 00.07-.08zm0 0l-2-2.64-7-9.17-.31-.38-.09-.09-4.36-5.22-9.64-11.57-2.5-3-29.24-34.87-3.68-4.4-5.18-6.17-26-31.06c-.69.56-1.35 1.13-2 1.7l26 31 5.17 6.18 3.69 4.4 29.25 34.97 2.5 3 9.66 11.53 4.39 5.22 7.79 9.31 2.13 2.52 18.24 21.78.17-.18.17-.17a.3.3 0 00.07-.08zm0 0l-2-2.64-7-9.17-.31-.38-.09-.09-4.36-5.22-9.64-11.57-2.5-3-29.24-34.87-3.68-4.4-5.18-6.17-26-31.06c-.69.56-1.35 1.13-2 1.7l26 31 5.17 6.18 3.69 4.4 29.25 34.97 2.5 3 9.66 11.53 4.39 5.22 7.79 9.31 2.13 2.52 18.24 21.78.17-.18.17-.17a.3.3 0 00.07-.08zm0 0l-2-2.64-7-9.17-.31-.38-.09-.09-4.36-5.22-9.64-11.57-2.5-3-29.24-34.87-3.68-4.4-5.18-6.17-26-31.06c-.69.56-1.35 1.13-2 1.7l26 31 5.17 6.18 3.69 4.4 29.25 34.97 2.5 3 9.66 11.53 4.39 5.22 7.79 9.31 2.13 2.52 18.24 21.78.17-.18.17-.17a.3.3 0 00.07-.08zm0 0l-2-2.64-7-9.17-.31-.38-.09-.09-4.36-5.22-9.64-11.57-2.5-3-29.24-34.87-3.68-4.4-5.18-6.17-26-31.06c-.69.56-1.35 1.13-2 1.7l26 31 5.17 6.18 3.69 4.4 29.25 34.97 2.5 3 9.66 11.53 4.39 5.22 7.79 9.31 2.13 2.52 18.24 21.78.17-.18.17-.17a.3.3 0 00.07-.08zm0 0l-2-2.64-7-9.17-.31-.38-.09-.09-4.36-5.22-9.64-11.57-2.5-3-29.24-34.87-3.68-4.4-5.18-6.17-26-31.06c-.69.56-1.35 1.13-2 1.7l26 31 5.17 6.18 3.69 4.4 29.25 34.97 2.5 3 9.66 11.53 4.39 5.22 7.79 9.31 2.13 2.52 18.24 21.78.17-.18.17-.17a.3.3 0 00.07-.08zm0 0l-2-2.64-7-9.17-.31-.38-.09-.09-4.36-5.22-9.64-11.57-2.5-3-29.24-34.87-3.68-4.4-5.18-6.17-26-31.06c-.69.56-1.35 1.13-2 1.7l26 31 5.17 6.18 3.69 4.4 29.25 34.97 2.5 3 9.66 11.53 4.39 5.22 7.79 9.31 2.13 2.52 18.24 21.78.17-.18.17-.17a.3.3 0 00.07-.08zm0 0l-2-2.64-7-9.17-.31-.38-.09-.09-4.36-5.22-9.64-11.57-2.5-3-29.24-34.87-3.68-4.4-5.18-6.17-26-31.06c-.69.56-1.35 1.13-2 1.7l26 31 5.17 6.18 3.69 4.4 29.25 34.97 2.5 3 9.66 11.53 4.39 5.22 7.79 9.31 2.13 2.52 18.24 21.78.17-.18.17-.17a.3.3 0 00.07-.08zm0 0l-2-2.64-7-9.17-.31-.38-.09-.09-4.36-5.22-9.64-11.57-2.5-3-29.24-34.87-3.68-4.4-5.18-6.17-26-31.06c-.69.56-1.35 1.13-2 1.7l26 31 5.17 6.18 3.69 4.4 29.25 34.97 2.5 3 9.66 11.53 4.39 5.22 7.79 9.31 2.13 2.52 18.24 21.78.17-.18.17-.17a.3.3 0 00.07-.08zm0 0l-2-2.64-7-9.17-.31-.38-.09-.09-4.36-5.22-9.64-11.57-2.5-3-29.24-34.87-3.68-4.4-5.18-6.17-26-31.06c-.69.56-1.35 1.13-2 1.7l26 31 5.17 6.18 3.69 4.4 29.25 34.97 2.5 3 9.66 11.53 4.39 5.22 7.79 9.31 2.13 2.52 18.24 21.78.17-.18.17-.17a.3.3 0 00.07-.08zm18.83 21.33h-.05l-.63.44-.23.17-.57.5-.11.1-17.19-22.59-2-2.64-7-9.17-.31-.38-.09-.09-4.36-5.22-9.69-11.52-2.5-3-29.24-34.87-3.68-4.4-5.18-6.17-26-31.06-3.89-4.5-7.37-8.79-6.73-8-35.9-42.93-27.79-33.15-8.8-10.5-2.15-2.57-9-10.7-6-7.16-77.13-92-6.21-7.39-20.92-25-12.58-15-.84-1-1 .85q-13.28 11.12-25.85 23.18a537.34 537.34 0 00-73.45 87.16 526.13 526.13 0 00-32.39 54.71l-.6 1.18 18.8 9.64 29 14.84 25.16 12.89 98.9 50.68 9.52 4.89 1.89 1 3.44 1.75 5.25 2.7 7 3.55 88.31 45.26 9.31 4.78 10.17 5.21 5.34 2.73 36.08 18.5 7.19 3.68 19.67 10.08 28.23 14.47 3.46 1.77 7.13 3.66 6.07 3.11 1.9 1h.05l.54.28.12.07 1.34.67 10.79 5.54 2.94 1.5 25.32 13 6.9 3.53 1.21.56.6-1.18a3.49 3.49 0 01.54-.7l.12-.1.13-.12.84-.74zm-3.36 3.32l-25.28-13-2.93-1.5-12-6.14h-.07l-2.74-1.4-6-3.1-7.13-3.67-3.47-1.77-28.22-14.48-19.67-10.06-7.19-3.68-36.1-18.49-5.32-2.73-10.24-5.2-9.31-4.78-88.31-45.25-6.94-3.56-5.24-2.69-3.44-1.76-1.89-1-9.52-4.88-94.31-48.33L1080.3 773l-29-14.86-16.45-8.42a521.72 521.72 0 0131.62-53.29 535.63 535.63 0 0173.07-86.72q12-11.51 24.7-22.21l11.73 14 20.92 25 6.2 7.4 77.15 92 6 7.18 9 10.7 2.12 2.53 8.8 10.51 26.36 31.44 37.36 44.56 6.73 8 7.38 8.8 3.85 4.58 26 31 5.17 6.18 3.69 4.4 29.3 34.97 2.5 3 9.66 11.53 4.39 5.22 7.79 9.31 2.13 2.52 18.24 21.78 3.39 4zm-15.46-24.65c-.51.39-1 .81-1.47 1.24l18.24 21.78.17-.18.17-.17a.3.3 0 00.07-.08zm0 0l-2-2.64-7-9.17-.31-.38-.09-.09-4.36-5.22-9.65-11.57-2.5-3-29.24-34.87-3.68-4.4-5.18-6.17-26-31.06c-.69.56-1.35 1.13-2 1.7l26 31 5.17 6.18 3.69 4.4 29.25 34.97 2.5 3 9.66 11.53 4.39 5.22 7.79 9.31 2.13 2.52 18.24 21.78.17-.18.17-.17a.3.3 0 00.07-.08zm0 0l-2-2.64-7-9.17-.31-.38-.09-.09-4.36-5.22-9.65-11.57-2.5-3-29.24-34.87-3.68-4.4-5.18-6.17-26-31.06c-.69.56-1.35 1.13-2 1.7l26 31 5.17 6.18 3.69 4.4 29.25 34.97 2.5 3 9.66 11.53 4.39 5.22 7.79 9.31 2.13 2.52 18.24 21.78.17-.18.17-.17a.3.3 0 00.07-.08zm0 0l-2-2.64-7-9.17-.31-.38-.09-.09-4.36-5.22-9.65-11.57-2.5-3-29.24-34.87-3.68-4.4-5.18-6.17-26-31.06c-.69.56-1.35 1.13-2 1.7l26 31 5.17 6.18 3.69 4.4 29.25 34.97 2.5 3 9.66 11.53 4.39 5.22 7.79 9.31 2.13 2.52 18.24 21.78.17-.18.17-.17a.3.3 0 00.07-.08zm0 0l-2-2.64-7-9.17-.31-.38-.09-.09-4.36-5.22-9.65-11.57-2.5-3-29.24-34.87-3.68-4.4-5.18-6.17-26-31.06c-.69.56-1.35 1.13-2 1.7l26 31 5.17 6.18 3.69 4.4 29.25 34.97 2.5 3 9.66 11.53 4.39 5.22 7.79 9.31 2.13 2.52 18.24 21.78.17-.18.17-.17a.3.3 0 00.07-.08zm0 0l-2-2.64-7-9.17-.31-.38-.09-.09-4.36-5.22-9.65-11.57-2.5-3-29.24-34.87-3.68-4.4-5.18-6.17-26-31.06c-.69.56-1.35 1.13-2 1.7l26 31 5.17 6.18 3.69 4.4 29.25 34.97 2.5 3 9.66 11.53 4.39 5.22 7.79 9.31 2.13 2.52 18.24 21.78.17-.18.17-.17a.3.3 0 00.07-.08zm0 0l-2-2.64-7-9.17-.31-.38-.09-.09-4.36-5.22-9.65-11.57-2.5-3-29.24-34.87-3.68-4.4-5.18-6.17-26-31.06c-.69.56-1.35 1.13-2 1.7l26 31 5.17 6.18 3.69 4.4 29.25 34.97 2.5 3 9.66 11.53 4.39 5.22 7.79 9.31 2.13 2.52 18.24 21.78.17-.18.17-.17a.3.3 0 00.07-.08zm0 0l-2-2.64-7-9.17-.31-.38-.09-.09-4.36-5.22-9.65-11.57-2.5-3-29.24-34.87-3.68-4.4-5.18-6.17-26-31.06c-.69.56-1.35 1.13-2 1.7l26 31 5.17 6.18 3.69 4.4 29.25 34.97 2.5 3 9.66 11.53 4.39 5.22 7.79 9.31 2.13 2.52 18.24 21.78.17-.18.17-.17a.3.3 0 00.07-.08zm0 0l-2-2.64-7-9.17-.31-.38-.09-.09-4.36-5.22-9.65-11.57-2.5-3-29.24-34.87-3.68-4.4-5.18-6.17-26-31.06c-.69.56-1.35 1.13-2 1.7l26 31 5.17 6.18 3.69 4.4 29.25 34.97 2.5 3 9.66 11.53 4.39 5.22 7.79 9.31 2.13 2.52 18.24 21.78.17-.18.17-.17a.3.3 0 00.07-.08zm0 0l-2-2.64-7-9.17-.31-.38-.09-.09-4.36-5.22-9.65-11.57-2.5-3-29.24-34.87-3.68-4.4-5.18-6.17-26-31.06c-.69.56-1.35 1.13-2 1.7l26 31 5.17 6.18 3.69 4.4 29.25 34.97 2.5 3 9.66 11.53 4.39 5.22 7.79 9.31 2.13 2.52 18.24 21.78.17-.18.17-.17a.3.3 0 00.07-.08zm0 0l-2-2.64-7-9.17-.31-.38-.09-.09-4.36-5.22-9.65-11.57-2.5-3-29.24-34.87-3.68-4.4-5.18-6.17-26-31.06c-.69.56-1.35 1.13-2 1.7l26 31 5.17 6.18 3.69 4.4 29.25 34.97 2.5 3 9.66 11.53 4.39 5.22 7.79 9.31 2.13 2.52 18.24 21.78.17-.18.17-.17a.3.3 0 00.07-.08zm0 0l-2-2.64-7-9.17-.31-.38-.09-.09-4.36-5.22-9.65-11.57-2.5-3-29.24-34.87-3.68-4.4-5.18-6.17-26-31.06c-.69.56-1.35 1.13-2 1.7l26 31 5.17 6.18 3.69 4.4 29.25 34.97 2.5 3 9.66 11.53 4.39 5.22 7.79 9.31 2.13 2.52 18.24 21.78.17-.18.17-.17a.3.3 0 00.07-.08zm0 0l-2-2.64-7-9.17-.31-.38-.09-.09-4.36-5.22-9.65-11.57-2.5-3-29.24-34.87-3.68-4.4-5.18-6.17-26-31.06c-.69.56-1.35 1.13-2 1.7l26 31 5.17 6.18 3.69 4.4 29.25 34.97 2.5 3 9.66 11.53 4.39 5.22 7.79 9.31 2.13 2.52 18.24 21.78.17-.18.17-.17a.3.3 0 00.07-.08zm0 0l-2-2.64-7-9.17-.31-.38-.09-.09-4.36-5.22-9.65-11.57-2.5-3-29.24-34.87-3.68-4.4-5.18-6.17-26-31.06c-.69.56-1.35 1.13-2 1.7l26 31 5.17 6.18 3.69 4.4 29.25 34.97 2.5 3 9.66 11.53 4.39 5.22 7.79 9.31 2.13 2.52 18.24 21.78.17-.18.17-.17a.3.3 0 00.07-.08zm0 0l-2-2.64-7-9.17-.31-.38-.09-.09-4.36-5.22-9.65-11.57-2.5-3-29.24-34.87-3.68-4.4-5.18-6.17-26-31.06c-.69.56-1.35 1.13-2 1.7l26 31 5.17 6.18 3.69 4.4 29.25 34.97 2.5 3 9.66 11.53 4.39 5.22 7.79 9.31 2.13 2.52 18.24 21.78.17-.18.17-.17a.3.3 0 00.07-.08zm0 0l-2-2.64-7-9.17-.31-.38-.09-.09-4.36-5.22-9.65-11.57-2.5-3-29.24-34.87-3.68-4.4-5.18-6.17-26-31.06-3.89-4.5-7.37-8.79-6.73-8-35.9-42.93-27.79-33.15-2 1.71 26.36 31.44 37.36 44.56 6.73 8 7.38 8.8 3.85 4.58 26 31 5.17 6.18 3.69 4.4 29.25 34.95 2.5 3 9.66 11.53 4.39 5.22 7.79 9.31 2.13 2.52 18.24 21.78.17-.18.17-.17a.3.3 0 00.07-.08zm0 0l-2-2.64-7-9.17-.31-.38-.09-.09-4.36-5.22-9.65-11.57-2.5-3-29.24-34.87-3.68-4.4-5.18-6.17-26-31.06-3.89-4.5-7.37-8.79-6.73-8-35.9-42.93-27.79-33.15-2 1.71 26.36 31.44 37.36 44.56 6.73 8 7.38 8.8 3.85 4.58 26 31 5.17 6.18 3.69 4.4 29.25 34.95 2.5 3 9.66 11.53 4.39 5.22 7.79 9.31 2.13 2.52 18.24 21.78.17-.18.17-.17a.3.3 0 00.07-.08zm0 0l-2-2.64-7-9.17-.31-.38-.09-.09-4.36-5.22-9.65-11.57-2.5-3-29.24-34.87-3.68-4.4-5.18-6.17-26-31.06-3.89-4.5-7.37-8.79-6.73-8-35.9-42.93-27.79-33.15-2 1.71 26.36 31.44 37.36 44.56 6.73 8 7.38 8.8 3.85 4.58 26 31 5.17 6.18 3.69 4.4 29.25 34.95 2.5 3 9.66 11.53 4.39 5.22 7.79 9.31 2.13 2.52 18.24 21.78.17-.18.17-.17a.3.3 0 00.07-.08zm0 0l-2-2.64-7-9.17-.31-.38-.09-.09-4.36-5.22-9.65-11.57-2.5-3-29.24-34.87-3.68-4.4-5.18-6.17-26-31.06-3.89-4.5-7.37-8.79-6.73-8-35.9-42.93-27.79-33.15-8.8-10.5-2.15-2.57-2 1.73 2.12 2.53 8.8 10.51 26.36 31.44 37.36 44.56 6.73 8 7.38 8.8 3.85 4.58 26 31 5.17 6.18 3.69 4.4 29.28 34.96 2.5 3 9.66 11.53 4.39 5.22 7.79 9.31 2.13 2.52 18.24 21.78.17-.18.17-.17a.3.3 0 00.07-.08z" transform="translate(-819.12 -476.53)"/><path class="cls-4" d="M1143 613.4a527.4 527.4 0 00-72.49 85.82l-4.07-2.75-2.2-1.46-4.29-2.9a539.54 539.54 0 0174.25-87.91l3.48 3.64 1.83 1.91zM1287.71 719.82c-1.86 1.41-3.66 2.89-5.44 4.39l-2 1.72c-1.78 1.52-3.52 3.06-5.29 4.59l-79.31-90.16c2.47-2.16 5-4.32 7.45-6.45.67-.57 1.35-1.16 2-1.71 2.5-2.13 5.05-4.22 7.64-6.22zM1464.56 970.23a8 8 0 01-1 1.9l-8.44-4.07-1.35-.64-.12-.07-2.54-1.22-2.12-1-4-1.93-7.23-3.49-3.5-1.69-28.62-13.8c.21-.38.43-.75.61-1.13.43-.78.82-1.56 1.21-2.38l28.22 14.48 3.47 1.77 7.13 3.67 6 3.1 2.74 1.4h.07zM1480 956.84l-7-9.25-.29-.41-4.13-5.42-9.12-12-2.35-3.1-17.62-23.19-9.9-13-3.47-4.55-4.88-6.43-24.52-32.27-3.63-4.76-6.94-9.13-6.35-8.35-27.88-36.67-32.19-42.31-8.28-10.92-2-2.63-8.45-11.12-84.19-110.73c-.72.52-1.4 1.06-2.1 1.62l84.17 110.7 8.45 11.13 2 2.65 8.29 10.89 30.93 40.68 29.1 38.28 6.35 8.35 6.93 9.13 3.63 4.77 24.52 32.26 4.89 6.42 3.47 4.56 9.93 13.08 17.63 23.15 2.35 3.11 9.1 12 4.12 5.42.07.09.31.38 5.71 6.79 1.7 2 2.12 2.53c.51-.39 1-.78 1.56-1.14zm0 0l-7-9.25-.29-.41-4.13-5.42-9.12-12-2.35-3.1-17.62-23.19-9.9-13-3.47-4.55-4.88-6.43-24.52-32.27-3.63-4.76-6.94-9.13-6.35-8.35-27.88-36.67-32.19-42.31c-.71.53-1.41 1.06-2.1 1.6l30.93 40.68 29.1 38.28 6.35 8.35 6.93 9.13 3.63 4.77 24.52 32.26 4.89 6.42 3.47 4.56 9.93 13.08 17.62 23.14 2.35 3.11 9.1 12 4.12 5.42.07.09.31.38 5.71 6.79 1.7 2 2.12 2.53c.51-.39 1-.78 1.56-1.14zm0 0l-7-9.25-.29-.41-4.13-5.42-9.12-12-2.35-3.1-17.62-23.19-9.9-13-3.47-4.55-4.88-6.43-24.52-32.27-3.63-4.76-6.94-9.13-6.35-8.35-27.88-36.67-32.19-42.31c-.71.53-1.41 1.06-2.1 1.6l30.93 40.68 29.1 38.28 6.35 8.35 6.93 9.13 3.63 4.77 24.52 32.26 4.89 6.42 3.47 4.56 9.93 13.08 17.62 23.14 2.35 3.11 9.1 12 4.12 5.42.07.09.31.38 5.71 6.79 1.7 2 2.12 2.53c.51-.39 1-.78 1.56-1.14zm0 0l-7-9.25-.29-.41-4.13-5.42-9.12-12-2.35-3.1-17.62-23.19-9.9-13-3.47-4.55-4.88-6.43-24.52-32.27-3.63-4.76-6.94-9.13-6.35-8.35-27.88-36.67-32.19-42.31c-.71.53-1.41 1.06-2.1 1.6l30.93 40.68 29.1 38.28 6.35 8.35 6.93 9.13 3.63 4.77 24.52 32.26 4.89 6.42 3.47 4.56 9.93 13.08 17.62 23.14 2.35 3.11 9.1 12 4.12 5.42.07.09.31.38 5.71 6.79 1.7 2 2.12 2.53c.51-.39 1-.78 1.56-1.14zm0 0l-7-9.25-.29-.41-4.13-5.42-9.12-12-2.35-3.1-17.62-23.19-9.9-13-3.47-4.55-4.88-6.43-24.52-32.27-3.63-4.76-6.94-9.13-6.35-8.35-27.88-36.67-32.19-42.31c-.71.53-1.41 1.06-2.1 1.6l30.93 40.68 29.1 38.28 6.35 8.35 6.93 9.13 3.63 4.77 24.52 32.26 4.89 6.42 3.47 4.56 9.93 13.08 17.62 23.14 2.35 3.11 9.1 12 4.12 5.42.07.09.31.38 5.71 6.79 1.7 2 2.12 2.53c.51-.39 1-.78 1.56-1.14zm0 0l-7-9.25-.29-.41-4.13-5.42-9.12-12-2.35-3.1-17.62-23.19-9.9-13-3.47-4.55-4.88-6.43-24.52-32.27c-.71.52-1.42 1.05-2.12 1.61l24.52 32.26 4.89 6.42 3.47 4.56 9.93 13.08 17.59 23.12 2.35 3.11 9.1 12 4.12 5.42.07.09.31.38 5.71 6.79 1.7 2 2.12 2.53c.51-.39 1-.78 1.56-1.14zm23 24l-7-27.55c-.87.18-1.72.41-2.57.66l7 27.59.85 3.34-2.09-2.75-17.19-22.66-2-2.63-7-9.25-.29-.41-4.13-5.42-9.12-12-2.35-3.1-17.62-23.19-9.9-13-3.47-4.55-4.88-6.43-24.52-32.27-3.63-4.76-6.94-9.13c-.71.52-1.4 1.06-2.1 1.6l6.93 9.13 3.63 4.77 24.52 32.26 4.89 6.42 3.47 4.56 9.93 13.08 17.58 23.12 2.35 3.11 9.1 12 4.12 5.42.07.09.31.38 5.71 6.79 1.7 2 2.12 2.53 18.27 21.8h-.05l-.63.44-.23.17-.57.5-.11.1 5.56 7.32.81-.65.12-.1.13-.12.23-.17 1.32-.31zm0 0l-7-27.55c-.87.18-1.72.41-2.57.66l7 27.59.85 3.34-2.09-2.75-17.19-22.66-2-2.63-7-9.25-.29-.41-4.13-5.42-9.12-12-2.35-3.1-17.62-23.19-9.9-13-3.47-4.55-4.88-6.43-24.52-32.27-3.63-4.76-6.94-9.13c-.71.52-1.4 1.06-2.1 1.6l6.93 9.13 3.63 4.77 24.52 32.26 4.89 6.42 3.47 4.56 9.93 13.08 17.58 23.12 2.35 3.11 9.1 12 4.12 5.42.07.09.31.38 5.71 6.79 1.7 2 2.12 2.53 18.27 21.8h-.05l-.63.44-.23.17-.57.5-.11.1 5.56 7.32.81-.65.12-.1.13-.12.23-.17 1.32-.31zm0 0l-7-27.55c-.87.18-1.72.41-2.57.66l7 27.59.85 3.34-2.09-2.75-17.19-22.66-2-2.63-7-9.25-.29-.41-4.13-5.42-9.12-12-2.35-3.1-17.62-23.19-9.9-13-3.47-4.55-4.88-6.43-24.52-32.27-3.63-4.76-6.94-9.13c-.71.52-1.4 1.06-2.1 1.6l6.93 9.13 3.63 4.77 24.52 32.26 4.89 6.42 3.47 4.56 9.93 13.08 17.58 23.12 2.35 3.11 9.1 12 4.12 5.42.07.09.31.38 5.71 6.79 1.7 2 2.12 2.53 18.27 21.8h-.05l-.63.44-.23.17-.57.5-.11.1 5.56 7.32.81-.65.12-.1.13-.12.23-.17 1.32-.31zm0 0l-7-27.55c-.87.18-1.72.41-2.57.66l7 27.59.85 3.34-2.09-2.75-17.19-22.66-2-2.63-7-9.25-.29-.41-4.13-5.42-9.12-12-2.35-3.1-17.62-23.19-9.9-13-3.47-4.55-4.88-6.43-24.52-32.27-3.63-4.76-6.94-9.13c-.71.52-1.4 1.06-2.1 1.6l6.93 9.13 3.63 4.77 24.52 32.26 4.89 6.42 3.47 4.56 9.93 13.08 17.58 23.12 2.35 3.11 9.1 12 4.12 5.42.07.09.31.38 5.71 6.79 1.7 2 2.12 2.53 18.27 21.8h-.05l-.63.44-.23.17-.57.5-.11.1 5.56 7.32.81-.65.12-.1.13-.12.23-.17 1.32-.31zm0 0l-7-27.55c-.87.18-1.72.41-2.57.66l7 27.59.85 3.34-2.09-2.75-17.19-22.66-2-2.63-7-9.25-.29-.41-4.13-5.42-9.12-12-2.35-3.1-17.62-23.19-9.9-13-3.47-4.55-4.88-6.43-24.52-32.27-3.63-4.76-6.94-9.13c-.71.52-1.4 1.06-2.1 1.6l6.93 9.13 3.63 4.77 24.52 32.26 4.89 6.42 3.47 4.56 9.93 13.08 17.58 23.12 2.35 3.11 9.1 12 4.12 5.42.07.09.31.38 5.71 6.79 1.7 2 2.12 2.53 18.27 21.8h-.05l-.63.44-.23.17-.57.5-.11.1 5.56 7.32.81-.65.12-.1.13-.12.23-.17 1.32-.31zm0 0l-7-27.55c-.87.18-1.72.41-2.57.66l7 27.59.85 3.34-2.09-2.75-17.19-22.66-2-2.63-7-9.25-.29-.41-4.13-5.42-9.12-12-2.35-3.1-17.62-23.19-9.9-13-3.47-4.55-4.88-6.43-24.52-32.27-3.63-4.76-6.94-9.13c-.71.52-1.4 1.06-2.1 1.6l6.93 9.13 3.63 4.77 24.52 32.26 4.89 6.42 3.47 4.56 9.93 13.08 17.58 23.12 2.35 3.11 9.1 12 4.12 5.42.07.09.31.38 5.71 6.79 1.7 2 2.12 2.53 18.27 21.8h-.05l-.63.44-.23.17-.57.5-.11.1 5.56 7.32.81-.65.12-.1.13-.12.23-.17 1.32-.31zm0 0l-7-27.55c-.87.18-1.72.41-2.57.66l7 27.59.85 3.34-2.09-2.75-17.19-22.66-2-2.63-7-9.25-.29-.41-4.13-5.42-9.12-12-2.35-3.1-17.62-23.19-9.9-13-3.47-4.55-4.88-6.43-24.52-32.27-3.63-4.76-6.94-9.13c-.71.52-1.4 1.06-2.1 1.6l6.93 9.13 3.63 4.77 24.52 32.26 4.89 6.42 3.47 4.56 9.93 13.08 17.58 23.12 2.35 3.11 9.1 12 4.12 5.42.07.09.31.38 5.71 6.79 1.7 2 2.12 2.53 18.27 21.8h-.05l-.63.44-.23.17-.57.5-.11.1 5.56 7.32.81-.65.12-.1.13-.12.23-.17 1.32-.31zm0 0l-7-27.55c-.87.18-1.72.41-2.57.66l7 27.59.85 3.34-2.09-2.75-17.19-22.66-2-2.63-7-9.25-.29-.41-4.13-5.42-9.12-12-2.35-3.1-17.62-23.19-9.9-13-3.47-4.55-4.88-6.43-24.52-32.27-3.63-4.76-6.94-9.13c-.71.52-1.4 1.06-2.1 1.6l6.93 9.13 3.63 4.77 24.52 32.26 4.89 6.42 3.47 4.56 9.93 13.08 17.58 23.12 2.35 3.11 9.1 12 4.12 5.42.07.09.31.38 5.71 6.79 1.7 2 2.12 2.53 18.27 21.8h-.05l-.63.44-.23.17-.57.5-.11.1 5.56 7.32.81-.65.12-.1.13-.12.23-.17 1.32-.31zm0 0l-7-27.55c-.87.18-1.72.41-2.57.66l7 27.59.85 3.34-2.09-2.75-17.19-22.66-2-2.63-7-9.25-.29-.41-4.13-5.42-9.12-12-2.35-3.1-17.62-23.19-9.9-13-3.47-4.55-4.88-6.43-24.52-32.27-3.63-4.76-6.94-9.13c-.71.52-1.4 1.06-2.1 1.6l6.93 9.13 3.63 4.77 24.52 32.26 4.89 6.42 3.47 4.56 9.93 13.08 17.58 23.12 2.35 3.11 9.1 12 4.12 5.42.07.09.31.38 5.71 6.79 1.7 2 2.12 2.53 18.27 21.8h-.05l-.63.44-.23.17-.57.5-.11.1 5.56 7.32.81-.65.12-.1.13-.12.23-.17 1.32-.31zm0 0l-7-27.55c-.87.18-1.72.41-2.57.66l7 27.59.85 3.34-2.09-2.75-17.19-22.66-2-2.63-7-9.25-.29-.41-4.13-5.42-9.12-12-2.35-3.1-17.62-23.19-9.9-13-3.47-4.55-4.88-6.43-24.52-32.27-3.63-4.76-6.94-9.13c-.71.52-1.4 1.06-2.1 1.6l6.93 9.13 3.63 4.77 24.52 32.26 4.89 6.42 3.47 4.56 9.93 13.08 17.58 23.12 2.35 3.11 9.1 12 4.12 5.42.07.09.31.38 5.71 6.79 1.7 2 2.12 2.53 18.27 21.8h-.05l-.63.44-.23.17-.57.5-.11.1 5.56 7.32.81-.65.12-.1.13-.12.23-.17 1.32-.31zm0 0l-7-27.55c-.87.18-1.72.41-2.57.66l7 27.59.85 3.34-2.09-2.75-17.19-22.66-2-2.63-7-9.25-.29-.41-4.13-5.42-9.12-12-2.35-3.1-17.62-23.19-9.9-13-3.47-4.55-4.88-6.43-24.52-32.27-3.63-4.76-6.94-9.13c-.71.52-1.4 1.06-2.1 1.6l6.93 9.13 3.63 4.77 24.52 32.26 4.89 6.42 3.47 4.56 9.93 13.08 17.58 23.12 2.35 3.11 9.1 12 4.12 5.42.07.09.31.38 5.71 6.79 1.7 2 2.12 2.53 18.27 21.8h-.05l-.63.44-.23.17-.57.5-.11.1 5.56 7.32.81-.65.12-.1.13-.12.23-.17 1.32-.31zm0 0l-7-27.55c-.87.18-1.72.41-2.57.66l7 27.59.85 3.34-2.09-2.75-17.19-22.66-2-2.63-7-9.25-.29-.41-4.13-5.42-9.12-12-2.35-3.1-17.62-23.19-9.9-13-3.47-4.55-4.88-6.43-24.52-32.27-3.63-4.76-6.94-9.13c-.71.52-1.4 1.06-2.1 1.6l6.93 9.13 3.63 4.77 24.52 32.26 4.89 6.42 3.47 4.56 9.93 13.08 17.58 23.12 2.35 3.11 9.1 12 4.12 5.42.07.09.31.38 5.71 6.79 1.7 2 2.12 2.53 18.27 21.8h-.05l-.63.44-.23.17-.57.5-.11.1 5.56 7.32.81-.65.12-.1.13-.12.23-.17 1.32-.31zm0 0l-7-27.55c-.87.18-1.72.41-2.57.66l7 27.59.85 3.34-2.09-2.75-17.19-22.66-2-2.63-7-9.25-.29-.41-4.13-5.42-9.12-12-2.35-3.1-17.62-23.19-9.9-13-3.47-4.55-4.88-6.43-24.52-32.27-3.63-4.76-6.94-9.13c-.71.52-1.4 1.06-2.1 1.6l6.93 9.13 3.63 4.77 24.52 32.26 4.89 6.42 3.47 4.56 9.93 13.08 17.58 23.12 2.35 3.11 9.1 12 4.12 5.42.07.09.31.38 5.71 6.79 1.7 2 2.12 2.53 18.27 21.8h-.05l-.63.44-.23.17-.57.5-.11.1 5.56 7.32.81-.65.12-.1.13-.12.23-.17 1.32-.31zm-30-33.26l5.24 7.26a10.11 10.11 0 00-1.58 1.21l1.7 2c.55-.44 1.11-.84 1.67-1.25zm0 0l5.24 7.26a10.11 10.11 0 00-1.58 1.21l1.7 2c.55-.44 1.11-.84 1.67-1.25zm0 0l5.24 7.26a10.11 10.11 0 00-1.58 1.21l1.7 2c.55-.44 1.11-.84 1.67-1.25zm0 0l-.29-.41-4.13-5.42-9.12-12-2.35-3.1-17.62-23.19-9.9-13-3.47-4.55-4.88-6.43-24.52-32.27-3.63-4.76-6.94-9.13-6.35-8.35-27.88-36.67h-3.32l29.1 38.28 6.35 8.35 6.93 9.13 3.63 4.77 24.52 32.26 4.89 6.42 3.47 4.56 9.93 13.08 17.58 23.12 2.35 3.11 9.1 12 4.12 5.42.07.09.31.38 5.71 6.79a10.11 10.11 0 011.58-1.21zm30 33.24l-7-27.55-.81-3.21-3.19-12.75-.85-3.28-.83-3.32-.84-3.28-2.6-10.29-.95-3.77-11.73-46.41-2.73-10.77-1-4.05-1.28-5.11-6.37-25.15-2.06-8.21-3.55-14-2.58-10.16-26.21-103.69-1.08-4.26-6.92-27.32-15.09-59.72-5.18-20.52-5.59-22.12-3.56-14.13-7.69-30.44-2.6-10.25-5.19-20.53-1.29.33a519.581 519.581 0 00-33.56 9.68 527.62 527.62 0 00-66.67 26.72q-19.29 9.32-37.83 20.21a527.16 527.16 0 00-52.77 35.36l-1.05.8 12.65 16.65 19.71 25.93 84.17 110.7 8.45 11.13 2 2.65 8.29 10.89 30.93 40.68 29.1 38.28 6.35 8.35 6.93 9.13 3.63 4.77 24.52 32.26 4.89 6.42 3.47 4.56 9.93 13.08 17.63 23.16 2.35 3.11 9.1 12 4.12 5.42.07.09.31.38 5.71 6.79 1.7 2 2.12 2.53 18.27 21.8h-.05l-.63.44-.23.17-.57.5-.11.1 5.56 7.32.81-.65.12-.1.13-.12.23-.17 1.32-.31zm-21-21.35l-2-2.63-7-9.25-.29-.41-4.13-5.42-9.12-12-2.35-3.1-17.62-23.19-9.9-13-3.47-4.55-4.88-6.43-24.52-32.27-3.63-4.76-6.94-9.13-6.35-8.35-27.88-36.67-32.19-42.31-8.28-10.92-2-2.63-8.45-11.12-84.19-110.73-19.72-25.93-11-14.52a528.94 528.94 0 0151.46-34.39q18.42-10.82 37.63-20.1a527 527 0 0166.33-26.6q15.92-5.17 32.12-9.29l4.54 18 2.6 10.25 7.68 30.4 6.15 24.31 23.29 92.1 6.91 27.34 1.09 4.26 26.22 103.69 2.55 10.17 3.55 14 2.08 8.23 8.69 34.34 2.72 10.78 11.69 46.36 1 3.76 2.6 10.28.82 3.28.85 3.32.74 2.94 3.33 13.12.8 3.21 7 27.59.85 3.34-2.09-2.75zm-9-11.88l5.24 7.26a10.11 10.11 0 00-1.58 1.21l1.7 2c.55-.44 1.11-.84 1.67-1.25zm0 0l5.24 7.26a10.11 10.11 0 00-1.58 1.21l1.7 2c.55-.44 1.11-.84 1.67-1.25zm30 33.23l-7-27.55c-.87.18-1.72.41-2.57.66l7 27.59.85 3.34-2.09-2.75-17.19-22.64-2-2.63-7-9.25-.29-.41-4.13-5.42-9.12-12-2.35-3.1-17.62-23.19-9.9-13-3.47-4.55-4.88-6.43-24.52-32.27-3.63-4.76-6.94-9.13c-.71.52-1.4 1.06-2.1 1.6l6.93 9.13 3.63 4.77 24.52 32.26 4.89 6.42 3.47 4.56 9.93 13.08 17.58 23.12 2.35 3.11 9.1 12 4.12 5.42.07.09.31.38 5.71 6.79 1.7 2 2.12 2.53 18.27 21.8h-.05l-.63.44-.23.17-.57.5-.11.1 5.56 7.32.81-.65.12-.1.13-.12.23-.17 1.32-.31zm0 0l-7-27.55c-.87.18-1.72.41-2.57.66l7 27.59.85 3.34-2.09-2.75-17.19-22.64-2-2.63-7-9.25-.29-.41-4.13-5.42-9.12-12-2.35-3.1-17.62-23.19-9.9-13-3.47-4.55-4.88-6.43-24.52-32.27-3.63-4.76-6.94-9.13c-.71.52-1.4 1.06-2.1 1.6l6.93 9.13 3.63 4.77 24.52 32.26 4.89 6.42 3.47 4.56 9.93 13.08 17.58 23.12 2.35 3.11 9.1 12 4.12 5.42.07.09.31.38 5.71 6.79 1.7 2 2.12 2.53 18.27 21.8h-.05l-.63.44-.23.17-.57.5-.11.1 5.56 7.32.81-.65.12-.1.13-.12.23-.17 1.32-.31zm0 0l-7-27.55c-.87.18-1.72.41-2.57.66l7 27.59.85 3.34-2.09-2.75-17.19-22.64-2-2.63-7-9.25-.29-.41-4.13-5.42-9.12-12-2.35-3.1-17.62-23.19-9.9-13-3.47-4.55-4.88-6.43-24.52-32.27-3.63-4.76-6.94-9.13c-.71.52-1.4 1.06-2.1 1.6l6.93 9.13 3.63 4.77 24.52 32.26 4.89 6.42 3.47 4.56 9.93 13.08 17.58 23.12 2.35 3.11 9.1 12 4.12 5.42.07.09.31.38 5.71 6.79 1.7 2 2.12 2.53 18.27 21.8h-.05l-.63.44-.23.17-.57.5-.11.1 5.56 7.32.81-.65.12-.1.13-.12.23-.17 1.32-.31zm0 0l-7-27.55c-.87.18-1.72.41-2.57.66l7 27.59.85 3.34-2.09-2.75-17.19-22.64-2-2.63-7-9.25-.29-.41-4.13-5.42-9.12-12-2.35-3.1-17.62-23.19-9.9-13-3.47-4.55-4.88-6.43-24.52-32.27-3.63-4.76-6.94-9.13c-.71.52-1.4 1.06-2.1 1.6l6.93 9.13 3.63 4.77 24.52 32.26 4.89 6.42 3.47 4.56 9.93 13.08 17.58 23.12 2.35 3.11 9.1 12 4.12 5.42.07.09.31.38 5.71 6.79 1.7 2 2.12 2.53 18.27 21.8h-.05l-.63.44-.23.17-.57.5-.11.1 5.56 7.32.81-.65.12-.1.13-.12.23-.17 1.32-.31zm0 0l-7-27.55c-.87.18-1.72.41-2.57.66l7 27.59.85 3.34-2.09-2.75-17.19-22.64-2-2.63-7-9.25-.29-.41-4.13-5.42-9.12-12-2.35-3.1-17.62-23.19-9.9-13-3.47-4.55-4.88-6.43-24.52-32.27-3.63-4.76-6.94-9.13c-.71.52-1.4 1.06-2.1 1.6l6.93 9.13 3.63 4.77 24.52 32.26 4.89 6.42 3.47 4.56 9.93 13.08 17.58 23.12 2.35 3.11 9.1 12 4.12 5.42.07.09.31.38 5.71 6.79 1.7 2 2.12 2.53 18.27 21.8h-.05l-.63.44-.23.17-.57.5-.11.1 5.56 7.32.81-.65.12-.1.13-.12.23-.17 1.32-.31zm0 0l-7-27.55c-.87.18-1.72.41-2.57.66l7 27.59.85 3.34-2.09-2.75-17.19-22.64-2-2.63-7-9.25-.29-.41-4.13-5.42-9.12-12-2.35-3.1-17.62-23.19-9.9-13-3.47-4.55-4.88-6.43-24.52-32.27-3.63-4.76-6.94-9.13c-.71.52-1.4 1.06-2.1 1.6l6.93 9.13 3.63 4.77 24.52 32.26 4.89 6.42 3.47 4.56 9.93 13.08 17.58 23.12 2.35 3.11 9.1 12 4.12 5.42.07.09.31.38 5.71 6.79 1.7 2 2.12 2.53 18.27 21.8h-.05l-.63.44-.23.17-.57.5-.11.1 5.56 7.32.81-.65.12-.1.13-.12.23-.17 1.32-.31zm0 0l-7-27.55c-.87.18-1.72.41-2.57.66l7 27.59.85 3.34-2.09-2.75-17.19-22.64-2-2.63-7-9.25-.29-.41-4.13-5.42-9.12-12-2.35-3.1-17.62-23.19-9.9-13-3.47-4.55-4.88-6.43-24.52-32.27-3.63-4.76-6.94-9.13c-.71.52-1.4 1.06-2.1 1.6l6.93 9.13 3.63 4.77 24.52 32.26 4.89 6.42 3.47 4.56 9.93 13.08 17.58 23.12 2.35 3.11 9.1 12 4.12 5.42.07.09.31.38 5.71 6.79 1.7 2 2.12 2.53 18.27 21.8h-.05l-.63.44-.23.17-.57.5-.11.1 5.56 7.32.81-.65.12-.1.13-.12.23-.17 1.32-.31zm0 0l-7-27.55c-.87.18-1.72.41-2.57.66l7 27.59.85 3.34-2.09-2.75-17.19-22.64-2-2.63-7-9.25-.29-.41-4.13-5.42-9.12-12-2.35-3.1-17.62-23.19-9.9-13-3.47-4.55-4.88-6.43-24.52-32.27-3.63-4.76-6.94-9.13c-.71.52-1.4 1.06-2.1 1.6l6.93 9.13 3.63 4.77 24.52 32.26 4.89 6.42 3.47 4.56 9.93 13.08 17.58 23.12 2.35 3.11 9.1 12 4.12 5.42.07.09.31.38 5.71 6.79 1.7 2 2.12 2.53 18.27 21.8h-.05l-.63.44-.23.17-.57.5-.11.1 5.56 7.32.81-.65.12-.1.13-.12.23-.17 1.32-.31zm0 0l-7-27.55c-.87.18-1.72.41-2.57.66l7 27.59.85 3.34-2.09-2.75-17.19-22.64-2-2.63-7-9.25-.29-.41-4.13-5.42-9.12-12-2.35-3.1-17.62-23.19-9.9-13-3.47-4.55-4.88-6.43-24.52-32.27-3.63-4.76-6.94-9.13c-.71.52-1.4 1.06-2.1 1.6l6.93 9.13 3.63 4.77 24.52 32.26 4.89 6.42 3.47 4.56 9.93 13.08 17.58 23.12 2.35 3.11 9.1 12 4.12 5.42.07.09.31.38 5.71 6.79 1.7 2 2.12 2.53 18.27 21.8h-.05l-.63.44-.23.17-.57.5-.11.1 5.56 7.32.81-.65.12-.1.13-.12.23-.17 1.32-.31zm0 0l-7-27.55c-.87.18-1.72.41-2.57.66l7 27.59.85 3.34-2.09-2.75-17.19-22.64-2-2.63-7-9.25-.29-.41-4.13-5.42-9.12-12-2.35-3.1-17.62-23.19-9.9-13-3.47-4.55-4.88-6.43-24.52-32.27-3.63-4.76-6.94-9.13c-.71.52-1.4 1.06-2.1 1.6l6.93 9.13 3.63 4.77 24.52 32.26 4.89 6.42 3.47 4.56 9.93 13.08 17.58 23.12 2.35 3.11 9.1 12 4.12 5.42.07.09.31.38 5.71 6.79 1.7 2 2.12 2.53 18.27 21.8h-.05l-.63.44-.23.17-.57.5-.11.1 5.56 7.32.81-.65.12-.1.13-.12.23-.17 1.32-.31zm0 0l-7-27.55c-.87.18-1.72.41-2.57.66l7 27.59.85 3.34-2.09-2.75-17.19-22.64-2-2.63-7-9.25-.29-.41-4.13-5.42-9.12-12-2.35-3.1-17.62-23.19-9.9-13-3.47-4.55-4.88-6.43-24.52-32.27-3.63-4.76-6.94-9.13c-.71.52-1.4 1.06-2.1 1.6l6.93 9.13 3.63 4.77 24.52 32.26 4.89 6.42 3.47 4.56 9.93 13.08 17.58 23.12 2.35 3.11 9.1 12 4.12 5.42.07.09.31.38 5.71 6.79 1.7 2 2.12 2.53 18.27 21.8h-.05l-.63.44-.23.17-.57.5-.11.1 5.56 7.32.81-.65.12-.1.13-.12.23-.17 1.32-.31zm0 0l-7-27.55c-.87.18-1.72.41-2.57.66l7 27.59.85 3.34-2.09-2.75-17.19-22.64-2-2.63-7-9.25-.29-.41-4.13-5.42-9.12-12-2.35-3.1-17.62-23.19-9.9-13-3.47-4.55-4.88-6.43-24.52-32.27-3.63-4.76-6.94-9.13c-.71.52-1.4 1.06-2.1 1.6l6.93 9.13 3.63 4.77 24.52 32.26 4.89 6.42 3.47 4.56 9.93 13.08 17.58 23.12 2.35 3.11 9.1 12 4.12 5.42.07.09.31.38 5.71 6.79 1.7 2 2.12 2.53 18.27 21.8h-.05l-.63.44-.23.17-.57.5-.11.1 5.56 7.32.81-.65.12-.1.13-.12.23-.17 1.32-.31zm0 0l-7-27.55c-.87.18-1.72.41-2.57.66l7 27.59.85 3.34-2.09-2.75-17.19-22.64-2-2.63-7-9.25-.29-.41-4.13-5.42-9.12-12-2.35-3.1-17.62-23.19-9.9-13-3.47-4.55-4.88-6.43-24.52-32.27-3.63-4.76-6.94-9.13c-.71.52-1.4 1.06-2.1 1.6l6.93 9.13 3.63 4.77 24.52 32.26 4.89 6.42 3.47 4.56 9.93 13.08 17.58 23.12 2.35 3.11 9.1 12 4.12 5.42.07.09.31.38 5.71 6.79 1.7 2 2.12 2.53 18.27 21.8h-.05l-.63.44-.23.17-.57.5-.11.1 5.56 7.32.81-.65.12-.1.13-.12.23-.17 1.32-.31zm-23-24l-7-9.25-.29-.41-4.13-5.42-9.12-12-2.35-3.1-17.62-23.19-9.9-13-3.47-4.55-4.88-6.43-24.52-32.27c-.71.52-1.42 1.05-2.12 1.61l24.52 32.26 4.89 6.42 3.47 4.56 9.93 13.08 17.59 23.14 2.35 3.11 9.1 12 4.12 5.42.07.09.31.38 5.71 6.79 1.7 2 2.12 2.53c.51-.39 1-.78 1.56-1.14zm0 0l-7-9.25-.29-.41-4.13-5.42-9.12-12-2.35-3.1-17.62-23.19-9.9-13-3.47-4.55-4.88-6.43-24.52-32.27c-.71.52-1.42 1.05-2.12 1.61l24.52 32.26 4.89 6.42 3.47 4.56 9.93 13.08 17.59 23.14 2.35 3.11 9.1 12 4.12 5.42.07.09.31.38 5.71 6.79 1.7 2 2.12 2.53c.51-.39 1-.78 1.56-1.14zm0 0l-7-9.25-.29-.41-4.13-5.42-9.12-12-2.35-3.1-17.62-23.19-9.9-13-3.47-4.55-4.88-6.43-24.52-32.27-3.63-4.76-6.94-9.13-6.35-8.35-27.88-36.67-32.19-42.29c-.71.53-1.41 1.06-2.1 1.6l30.93 40.68 29.1 38.28 6.35 8.35 6.93 9.13 3.63 4.77 24.52 32.26 4.89 6.42 3.47 4.56 9.93 13.08 17.62 23.14 2.35 3.11 9.1 12 4.12 5.42.07.09.31.38 5.71 6.79 1.7 2 2.12 2.53c.51-.39 1-.78 1.56-1.14zm0 0l-7-9.25-.29-.41-4.13-5.42-9.12-12-2.35-3.1-17.62-23.19-9.9-13-3.47-4.55-4.88-6.43-24.52-32.27-3.63-4.76-6.94-9.13-6.35-8.35-27.88-36.67-32.19-42.29c-.71.53-1.41 1.06-2.1 1.6l30.93 40.68 29.1 38.28 6.35 8.35 6.93 9.13 3.63 4.77 24.52 32.26 4.89 6.42 3.47 4.56 9.93 13.08 17.62 23.14 2.35 3.11 9.1 12 4.12 5.42.07.09.31.38 5.71 6.79 1.7 2 2.12 2.53c.51-.39 1-.78 1.56-1.14zm0 0l-7-9.25-.29-.41-4.13-5.42-9.12-12-2.35-3.1-17.62-23.19-9.9-13-3.47-4.55-4.88-6.43-24.52-32.27-3.63-4.76-6.94-9.13-6.35-8.35-27.88-36.67-32.19-42.29c-.71.53-1.41 1.06-2.1 1.6l30.93 40.68 29.1 38.28 6.35 8.35 6.93 9.13 3.63 4.77 24.52 32.26 4.89 6.42 3.47 4.56 9.93 13.08 17.62 23.14 2.35 3.11 9.1 12 4.12 5.42.07.09.31.38 5.71 6.79 1.7 2 2.12 2.53c.51-.39 1-.78 1.56-1.14zm0 0l-7-9.25-.29-.41-4.13-5.42-9.12-12-2.35-3.1-17.62-23.19-9.9-13-3.47-4.55-4.88-6.43-24.52-32.27-3.63-4.76-6.94-9.13-6.35-8.35-27.88-36.67-32.19-42.29-8.28-10.92-2-2.63-8.45-11.12-84.19-110.73c-.72.52-1.4 1.06-2.1 1.62l84.17 110.7 8.45 11.13 2 2.65 8.29 10.89 30.93 40.68 29.1 38.28 6.35 8.35 6.93 9.13 3.63 4.77 24.52 32.26 4.89 6.42 3.47 4.56 9.93 13.08 17.63 23.15 2.35 3.11 9.1 12 4.12 5.42.07.09.31.38 5.71 6.79 1.7 2 2.12 2.53c.51-.39 1-.78 1.56-1.14z" transform="translate(-819.12 -476.53)"/><path class="cls-4" d="M1343 493.88a523.91 523.91 0 00-103 46.25l-2.56-4.38-1.34-2.27-2.54-4.32a537.39 537.39 0 01105.47-47.37l1.55 4.77.82 2.51zM1427.26 652.58l-6.84 1.59-1.28.3c-.43.1-.85.21-1.28.32-2.26.58-4.5 1.25-6.75 1.86l-16.53-59.32-15.73-56.33c3.18-.89 6.36-1.82 9.56-2.62l1.29-.32 1.29-.3 3.57-.84 6.08-1.43 8.29 36.51 4.69 20.58zM1478.21 954.84a10.11 10.11 0 00-1.58 1.21l-5.71-6.79-.31-.38-.08-.09-4.12-5.42-9.1-12-2.35-3.11-17.61-23.15c.69-.57 1.37-1.12 2.08-1.66l17.62 23.19 2.35 3.1 9.12 12 4.13 5.42.29.41z" transform="translate(-819.12 -476.53)"/></g></g></g></svg>