<svg preserveAspectRatio="none" id="Layer_1" data-name="Layer 1" xmlns="http://www.w3.org/2000/svg" viewBox="0 0 111.39 111.38"><defs><style>.cls-1{fill:#00eadb;}.cls-2{fill:#08e5db;}.cls-3{fill:#067773;}.cls-4{fill:#fe6a13;}</style></defs><title>circle24</title><rect class="cls-1" x="19.93" y="55.05" width="0.43" height="1.28"/><rect class="cls-1" x="20.89" y="55.05" width="0.43" height="1.28"/><rect class="cls-1" x="21.84" y="55.05" width="0.43" height="1.28"/><rect class="cls-1" x="22.79" y="55.05" width="0.43" height="1.28"/><rect class="cls-1" x="23.75" y="55.05" width="0.43" height="1.28"/><rect class="cls-1" x="24.7" y="55.05" width="0.43" height="1.28"/><rect class="cls-1" x="25.66" y="55.05" width="0.43" height="1.28"/><rect class="cls-1" x="26.61" y="55.05" width="0.43" height="1.28"/><rect class="cls-1" x="27.56" y="55.05" width="0.43" height="1.28"/><rect class="cls-1" x="28.52" y="55.05" width="0.43" height="1.28"/><rect class="cls-1" x="29.47" y="55.05" width="0.43" height="1.28"/><rect class="cls-1" x="30.42" y="55.05" width="0.43" height="1.28"/><rect class="cls-1" x="31.38" y="55.05" width="0.43" height="1.28"/><rect class="cls-1" x="32.33" y="55.05" width="0.43" height="1.28"/><rect class="cls-1" x="33.28" y="55.05" width="0.43" height="1.28"/><rect class="cls-1" x="34.24" y="55.05" width="0.43" height="1.28"/><rect class="cls-1" x="35.19" y="55.05" width="0.43" height="1.28"/><rect class="cls-1" x="36.15" y="55.05" width="0.43" height="1.28"/><rect class="cls-1" x="37.1" y="55.05" width="0.43" height="1.28"/><rect class="cls-1" x="38.05" y="55.05" width="0.43" height="1.28"/><rect class="cls-1" x="39.01" y="55.05" width="0.43" height="1.28"/><rect class="cls-1" x="39.96" y="55.05" width="0.43" height="1.28"/><rect class="cls-1" x="40.91" y="55.05" width="0.43" height="1.28"/><rect class="cls-1" x="41.87" y="55.05" width="0.43" height="1.28"/><rect class="cls-1" x="42.82" y="55.05" width="0.43" height="1.28"/><rect class="cls-1" x="43.78" y="55.05" width="0.43" height="1.28"/><rect class="cls-1" x="44.73" y="55.05" width="0.43" height="1.28"/><rect class="cls-1" x="45.68" y="55.05" width="0.43" height="1.28"/><rect class="cls-1" x="46.64" y="55.05" width="0.43" height="1.28"/><rect class="cls-1" x="47.59" y="55.05" width="0.43" height="1.28"/><rect class="cls-1" x="48.54" y="55.05" width="0.43" height="1.28"/><rect class="cls-1" x="62.02" y="55.05" width="0.43" height="1.28"/><rect class="cls-1" x="62.97" y="55.05" width="0.43" height="1.28"/><rect class="cls-1" x="63.92" y="55.05" width="0.43" height="1.28"/><rect class="cls-1" x="64.88" y="55.05" width="0.43" height="1.28"/><rect class="cls-1" x="65.83" y="55.05" width="0.43" height="1.28"/><rect class="cls-1" x="66.79" y="55.05" width="0.43" height="1.28"/><rect class="cls-1" x="67.74" y="55.05" width="0.43" height="1.28"/><rect class="cls-1" x="68.69" y="55.05" width="0.43" height="1.28"/><rect class="cls-1" x="69.65" y="55.05" width="0.43" height="1.28"/><rect class="cls-1" x="70.6" y="55.05" width="0.43" height="1.28"/><rect class="cls-1" x="71.55" y="55.05" width="0.43" height="1.28"/><rect class="cls-1" x="72.51" y="55.05" width="0.43" height="1.28"/><rect class="cls-1" x="73.46" y="55.05" width="0.43" height="1.28"/><rect class="cls-1" x="74.42" y="55.05" width="0.43" height="1.28"/><rect class="cls-1" x="75.37" y="55.05" width="0.43" height="1.28"/><rect class="cls-1" x="76.32" y="55.05" width="0.43" height="1.28"/><rect class="cls-1" x="77.28" y="55.05" width="0.43" height="1.28"/><rect class="cls-1" x="78.23" y="55.05" width="0.43" height="1.28"/><rect class="cls-1" x="79.18" y="55.05" width="0.43" height="1.28"/><rect class="cls-1" x="80.14" y="55.05" width="0.43" height="1.28"/><rect class="cls-1" x="81.09" y="55.05" width="0.43" height="1.28"/><rect class="cls-1" x="82.05" y="55.05" width="0.43" height="1.28"/><rect class="cls-1" x="83" y="55.05" width="0.43" height="1.28"/><rect class="cls-1" x="83.95" y="55.05" width="0.43" height="1.28"/><rect class="cls-1" x="84.91" y="55.05" width="0.43" height="1.28"/><rect class="cls-1" x="85.86" y="55.05" width="0.43" height="1.28"/><rect class="cls-1" x="86.81" y="55.05" width="0.43" height="1.28"/><rect class="cls-1" x="87.77" y="55.05" width="0.43" height="1.28"/><rect class="cls-1" x="88.72" y="55.05" width="0.43" height="1.28"/><rect class="cls-1" x="89.68" y="55.05" width="0.43" height="1.28"/><rect class="cls-1" x="90.63" y="55.05" width="0.43" height="1.28"/><rect class="cls-1" x="55.24" y="90.82" width="1.28" height="0.43"/><rect class="cls-1" x="55.24" y="89.87" width="1.28" height="0.43"/><rect class="cls-1" x="55.24" y="88.92" width="1.28" height="0.43"/><rect class="cls-1" x="55.24" y="87.96" width="1.28" height="0.43"/><rect class="cls-1" x="55.24" y="87.01" width="1.28" height="0.43"/><rect class="cls-1" x="55.24" y="86.05" width="1.28" height="0.43"/><rect class="cls-1" x="55.24" y="85.1" width="1.28" height="0.43"/><rect class="cls-1" x="55.24" y="84.15" width="1.28" height="0.43"/><rect class="cls-1" x="55.24" y="83.19" width="1.28" height="0.43"/><rect class="cls-1" x="55.24" y="82.24" width="1.28" height="0.43"/><rect class="cls-1" x="55.24" y="81.29" width="1.28" height="0.43"/><rect class="cls-1" x="55.24" y="80.33" width="1.28" height="0.43"/><rect class="cls-1" x="55.24" y="79.38" width="1.28" height="0.43"/><rect class="cls-1" x="55.24" y="78.42" width="1.28" height="0.43"/><rect class="cls-1" x="55.24" y="77.47" width="1.28" height="0.43"/><rect class="cls-1" x="55.24" y="76.52" width="1.28" height="0.43"/><rect class="cls-1" x="55.24" y="75.56" width="1.28" height="0.43"/><rect class="cls-1" x="55.24" y="74.61" width="1.28" height="0.43"/><rect class="cls-1" x="55.24" y="73.66" width="1.28" height="0.43"/><rect class="cls-1" x="55.24" y="72.7" width="1.28" height="0.43"/><rect class="cls-1" x="55.24" y="71.75" width="1.28" height="0.43"/><rect class="cls-1" x="55.24" y="70.79" width="1.28" height="0.43"/><rect class="cls-1" x="55.24" y="69.84" width="1.28" height="0.43"/><rect class="cls-1" x="55.24" y="68.89" width="1.28" height="0.43"/><rect class="cls-1" x="55.24" y="67.93" width="1.28" height="0.43"/><rect class="cls-1" x="55.24" y="66.98" width="1.28" height="0.43"/><rect class="cls-1" x="55.24" y="66.03" width="1.28" height="0.43"/><rect class="cls-1" x="55.24" y="65.07" width="1.28" height="0.43"/><rect class="cls-1" x="55.24" y="64.12" width="1.28" height="0.43"/><rect class="cls-1" x="55.24" y="63.16" width="1.28" height="0.43"/><rect class="cls-1" x="55.24" y="62.21" width="1.28" height="0.43"/><rect class="cls-1" x="55.24" y="48.74" width="1.28" height="0.43"/><rect class="cls-1" x="55.24" y="47.78" width="1.28" height="0.43"/><rect class="cls-1" x="55.24" y="46.83" width="1.28" height="0.43"/><rect class="cls-1" x="55.24" y="45.88" width="1.28" height="0.43"/><rect class="cls-1" x="55.24" y="44.92" width="1.28" height="0.43"/><rect class="cls-1" x="55.24" y="43.97" width="1.28" height="0.43"/><rect class="cls-1" x="55.24" y="43.02" width="1.28" height="0.43"/><rect class="cls-1" x="55.24" y="42.06" width="1.28" height="0.43"/><rect class="cls-1" x="55.24" y="41.11" width="1.28" height="0.43"/><rect class="cls-1" x="55.24" y="40.15" width="1.28" height="0.43"/><rect class="cls-1" x="55.24" y="39.2" width="1.28" height="0.43"/><rect class="cls-1" x="55.24" y="38.25" width="1.28" height="0.43"/><rect class="cls-1" x="55.24" y="37.29" width="1.28" height="0.43"/><rect class="cls-1" x="55.24" y="36.34" width="1.28" height="0.43"/><rect class="cls-1" x="55.24" y="35.39" width="1.28" height="0.43"/><rect class="cls-1" x="55.24" y="34.43" width="1.28" height="0.43"/><rect class="cls-1" x="55.24" y="33.48" width="1.28" height="0.43"/><rect class="cls-1" x="55.24" y="32.53" width="1.28" height="0.43"/><rect class="cls-1" x="55.24" y="31.57" width="1.28" height="0.43"/><rect class="cls-1" x="55.24" y="30.62" width="1.28" height="0.43"/><rect class="cls-1" x="55.24" y="29.66" width="1.28" height="0.43"/><rect class="cls-1" x="55.24" y="28.71" width="1.28" height="0.43"/><rect class="cls-1" x="55.24" y="27.76" width="1.28" height="0.43"/><rect class="cls-1" x="55.24" y="26.8" width="1.28" height="0.43"/><rect class="cls-1" x="55.24" y="25.85" width="1.28" height="0.43"/><rect class="cls-1" x="55.24" y="24.9" width="1.28" height="0.43"/><rect class="cls-1" x="55.24" y="23.94" width="1.28" height="0.43"/><rect class="cls-1" x="55.24" y="22.99" width="1.28" height="0.43"/><rect class="cls-1" x="55.24" y="22.03" width="1.28" height="0.43"/><rect class="cls-1" x="55.24" y="21.08" width="1.28" height="0.43"/><rect class="cls-1" x="55.24" y="20.13" width="1.28" height="0.43"/><path class="cls-2" d="M49.64,66s0.63-.18,1.59-0.36c0.48-.09,1-0.2,1.61-0.29s1.22-.16,1.84-0.23S55.93,65,56.5,65l0.82,0h0.74c0.91,0,1.49,0,1.49,0s0-.58,0-1.49c0-.23,0-0.48,0-0.74l0-.82c0-.57.05-1.2,0.12-1.82s0.14-1.24.23-1.84,0.2-1.13.29-1.61c0.19-1,.36-1.59.36-1.59l0.78-.5c0.25-.17.56-0.34,0.92-0.55s0.76-.45,1.21-0.68a36.72,36.72,0,0,1,6.89-2.82,38.06,38.06,0,0,1,7.31-1.4l1.38-.1,1.07,0L81,49l0.93,0,1.07,0,1.38,0.1a38.07,38.07,0,0,1,7.31,1.4,36.75,36.75,0,0,1,6.89,2.82c0.45,0.23.85,0.48,1.21,0.68s0.67,0.38.92,0.55l0.79,0.5s0.18,0.63.36,1.59c0.09,0.48.2,1,.29,1.61s0.16,1.22.23,1.84,0.09,1.25.12,1.82l0,0.82c0,0.26,0,.51,0,0.74,0,0.91,0,1.49,0,1.49s0.58,0,1.49,0h0.74l0.82,0c0.57,0,1.2.05,1.82,0.12s1.24,0.14,1.84.23,1.13,0.2,1.61.29c1,0.19,1.59.36,1.59,0.36l0.5,0.79c0.17,0.25.34,0.56,0.55,0.92s0.45,0.76.68,1.21a36.72,36.72,0,0,1,2.82,6.89,38,38,0,0,1,1.4,7.31l0.1,1.38,0,1.07c0,0.59,0,.93,0,0.93s0,0.34,0,.93l0,1.07-0.1,1.38a38,38,0,0,1-1.4,7.31,36.72,36.72,0,0,1-2.82,6.89c-0.23.45-.48,0.85-0.68,1.21s-0.38.67-.55,0.92l-0.5.78s-0.63.18-1.59,0.36c-0.48.09-1,.2-1.61,0.29s-1.22.16-1.84,0.23-1.25.09-1.82,0.12l-0.82,0H104c-0.91,0-1.49,0-1.49,0s0,0.58,0,1.49c0,0.23,0,.48,0,0.74l0,0.82c0,0.57-.05,1.2-0.12,1.81s-0.14,1.24-.23,1.84-0.2,1.13-.29,1.61c-0.19,1-.36,1.59-0.36,1.59l-0.79.5c-0.25.17-.56,0.34-0.92,0.55s-0.76.45-1.21,0.68a36.76,36.76,0,0,1-6.89,2.82,38,38,0,0,1-7.31,1.4l-1.38.1-1.07,0L81,124l-0.93,0-1.07,0-1.38-.1a38,38,0,0,1-7.31-1.4,36.72,36.72,0,0,1-6.89-2.82c-0.46-.23-0.85-0.48-1.21-0.68s-0.67-.38-0.92-0.55l-0.78-.5s-0.18-.63-0.36-1.59c-0.09-.48-0.2-1-0.29-1.61s-0.16-1.22-.23-1.84-0.09-1.25-.12-1.81l0-.82c0-.26,0-0.51,0-0.74,0-.91,0-1.49,0-1.49s-0.58,0-1.49,0H57.31l-0.82,0c-0.57,0-1.2-.05-1.82-0.12s-1.24-.14-1.84-0.23-1.13-.2-1.61-0.29c-1-.19-1.59-0.36-1.59-0.36l-0.5-.78c-0.17-.25-0.34-0.56-0.55-0.92s-0.45-.76-0.68-1.21a36.75,36.75,0,0,1-2.82-6.89,38.06,38.06,0,0,1-1.4-7.31l-0.1-1.38,0-1.07,0-.93h-1l0,1,0,1.1L42.72,90a39,39,0,0,0,1.44,7.51,37.68,37.68,0,0,0,2.9,7.07c0.23,0.47.49,0.87,0.7,1.24s0.39,0.69.56,0.94l0.52,0.8,0.7,0.18,0.71,0.16s0.56,0.13,1.38.28,1.93,0.31,3,.41,2.14,0.14,2.94.12,1.3,0,1.3,0,0,0.59,0,1.51c0,0.23,0,.48,0,0.75l0,0.83c0,0.58.07,1.22,0.15,1.84s0.16,1.26.26,1.86,0.22,1.15.32,1.63c0.2,1,.39,1.61.39,1.61l0.81,0.52c0.25,0.17.58,0.35,0.94,0.56s0.78,0.46,1.24.7a37.75,37.75,0,0,0,7.07,2.9,39,39,0,0,0,7.51,1.43L79,124.9l1.1,0,1,0,1,0,1.1,0,1.42-.11A39,39,0,0,0,92,123.36a37.76,37.76,0,0,0,7.07-2.9c0.47-.23.87-0.49,1.24-0.7s0.69-.39.94-0.56l0.81-.52,0.19-.7,0.16-.71s0.13-.56.28-1.38,0.31-1.93.41-3,0.14-2.14.12-2.94,0-1.3,0-1.3,0.59,0,1.51,0h0.75l0.83,0c0.58,0,1.22-.07,1.84-0.15s1.26-.16,1.86-0.26,1.15-.22,1.63-0.32c1-.2,1.61-0.39,1.61-0.39l0.52-.8c0.17-.25.35-0.58,0.56-0.94s0.46-.78.7-1.24a37.71,37.71,0,0,0,2.9-7.07A39,39,0,0,0,119.32,90l0.11-1.42,0-1.1c0-.61,0-1,0-1s0-.35,0-1l0-1.1L119.32,83a39,39,0,0,0-1.44-7.51,37.73,37.73,0,0,0-2.9-7.07c-0.23-.47-0.49-0.87-0.7-1.24s-0.39-.69-0.56-0.94l-0.52-.81-0.7-.18-0.71-.16s-0.56-.13-1.38-0.28-1.93-.31-3-0.41-2.14-.14-2.94-0.12-1.3,0-1.3,0,0-.59,0-1.51c0-.23,0-0.48,0-0.75l0-.83c0-.58-0.07-1.22-0.15-1.84s-0.16-1.26-.26-1.86-0.22-1.15-.32-1.63c-0.2-1-.39-1.61-0.39-1.61l-0.81-.52c-0.25-.17-0.58-0.35-0.94-0.56s-0.78-.46-1.24-0.7A37.72,37.72,0,0,0,92,49.63a39,39,0,0,0-7.51-1.44l-1.42-.11-1.1,0-1,0-1,0-1.1,0-1.42.11A39,39,0,0,0,70,49.63,37.71,37.71,0,0,0,63,52.53c-0.47.23-.87,0.49-1.24,0.7s-0.69.39-.94,0.56L60,54.31,59.8,55l-0.16.71s-0.13.56-.28,1.38-0.31,1.93-.41,3-0.14,2.14-.12,2.94,0,1.3,0,1.3-0.59,0-1.51,0H56.59l-0.83,0c-0.58,0-1.22.07-1.84,0.15s-1.26.16-1.86,0.26-1.15.22-1.63,0.32c-1,.2-1.61.39-1.61,0.39l-0.52.81c-0.17.25-.35,0.58-0.56,0.94s-0.46.78-.7,1.24a37.71,37.71,0,0,0-2.9,7.07A39,39,0,0,0,42.72,83l-0.11,1.42,0,1.1,0,1h1l0-.93,0-1.07,0.1-1.38a38.06,38.06,0,0,1,1.4-7.31,36.75,36.75,0,0,1,2.82-6.89c0.23-.46.48-0.85,0.68-1.21s0.38-.67.55-0.92Z" transform="translate(-25.32 -30.81)"/><path class="cls-2" d="M76.63,85.58l-0.05,0-0.13.08-0.19.13L76,86l-0.2.18-0.09.09-0.08.08-0.16.17,0.16,0.17,0.08,0.08,0.09,0.09L76,87l0.21,0.16,0.19,0.13,0.13,0.08,0.05,0,0,0.11,0,0.12,0,0.08,0,0.08a4.43,4.43,0,0,0,.34.82,4.56,4.56,0,0,0,.5.74l0.11,0.13,0.09,0.09,0.08,0.08,0.08,0.08L78,89.84l0.13,0.11a4.56,4.56,0,0,0,.74.5,4.36,4.36,0,0,0,.82.34l0.08,0,0.08,0,0.12,0,0.11,0,0,0.05,0.08,0.13,0.13,0.19,0.16,0.21,0.18,0.2,0.09,0.09,0.08,0.08L81,92l0.17-.16,0.08-.08,0.09-.09,0.18-.2,0.16-.21,0.13-.19,0.08-.13,0-.05,0.11,0,0.12,0,0.08,0,0.08,0a4.35,4.35,0,0,0,.82-0.34,4.53,4.53,0,0,0,.74-0.5L84,89.84l0.09-.09,0.08-.08,0.08-.08,0.09-.09,0.11-.13a4.58,4.58,0,0,0,.5-0.74,4.37,4.37,0,0,0,.34-0.82l0-.08,0-.08,0-.12,0-.11,0.05,0,0.13-.08,0.19-.13L86,87l0.2-.18,0.09-.09,0.08-.08,0.16-.17-0.16-.17-0.08-.08-0.09-.09L86,86l-0.21-.16-0.19-.13-0.13-.08-0.05,0,0-.11,0-.12,0-.08,0-.08A4.37,4.37,0,0,0,85,84.36a4.56,4.56,0,0,0-.5-0.74l-0.11-.13-0.09-.09-0.08-.08-0.08-.08L84,83.16l-0.13-.11a4.53,4.53,0,0,0-.74-0.5,4.38,4.38,0,0,0-.82-0.34l-0.08,0-0.08,0-0.12,0-0.11,0,0-.05-0.08-.13-0.13-.19-0.16-.21-0.18-.2-0.09-.09-0.08-.08L81,81l-0.17.16-0.08.08-0.09.09-0.18.2-0.16.21-0.13.19-0.08.13,0,0.05-0.11,0-0.12,0-0.08,0-0.08,0a4.4,4.4,0,0,0-.82.34,4.58,4.58,0,0,0-.74.5L78,83.16l-0.09.09-0.08.08,0.1,0.1L78,83.35l0.09-.09,0.12-.1a4.42,4.42,0,0,1,.71-0.48,4.25,4.25,0,0,1,.8-0.33l0.08,0,0.07,0,0.12,0,0.11,0,0-.08,0-.08,0.1-.16,0.11-.16,0.14-.18c0.1-.12.21-0.24,0.29-0.32L81,81.13l0.17,0.16,0.08,0.08,0.08,0.09,0.17,0.2,0.16,0.21,0.12,0.19,0.08,0.13,0,0.05,0.11,0,0.12,0,0.07,0,0.08,0a4.24,4.24,0,0,1,.8.33,4.39,4.39,0,0,1,.71.48l0.12,0.1L84,83.35l0.08,0.07,0.07,0.08,0.09,0.09,0.1,0.12a4.42,4.42,0,0,1,.48.71,4.2,4.2,0,0,1,.33.8l0,0.08,0,0.07,0,0.12,0,0.11,0.08,0,0.08,0,0.16,0.1,0.16,0.11,0.18,0.14,0.32,0.29,0.14,0.15-0.16.17-0.08.08L86,86.83l-0.2.17-0.21.16-0.19.13-0.13.08-0.05,0,0,0.11,0,0.12,0,0.07,0,0.08a4.26,4.26,0,0,1-.33.8,4.41,4.41,0,0,1-.48.71l-0.1.12-0.09.09-0.07.08L84,89.65l-0.09.09-0.12.1a4.37,4.37,0,0,1-.71.48,4.22,4.22,0,0,1-.8.33l-0.08,0-0.07,0-0.12,0-0.11,0,0,0.08,0,0.08-0.1.16-0.11.16-0.14.18c-0.1.12-.21,0.24-0.29,0.32L81,91.86l-0.17-.16-0.08-.08-0.08-.09-0.17-.2-0.16-.21-0.12-.19-0.08-.13,0-.05-0.11,0-0.12,0-0.07,0-0.08,0a4.25,4.25,0,0,1-.8-0.33,4.41,4.41,0,0,1-.71-0.48l-0.12-.1L78,89.65l-0.08-.07-0.07-.08-0.09-.09-0.1-.12a4.41,4.41,0,0,1-.48-0.71,4.26,4.26,0,0,1-.33-0.8l0-.08,0-.07,0-.12,0-.11-0.08,0-0.08,0-0.16-.1-0.16-.11-0.18-.14-0.32-.29-0.14-.15,0.16-.17,0.08-.08L76,86.17l0.2-.17,0.21-.16,0.19-.12,0.13-.08,0.05,0,0-.11,0-.12,0-.07,0-.08a4.25,4.25,0,0,1,.33-0.8,4.42,4.42,0,0,1,.48-0.71l0.1-.12,0.09-.09,0.07-.08-0.1-.1-0.08.08-0.09.09-0.11.13a4.54,4.54,0,0,0-.5.74,4.43,4.43,0,0,0-.34.82l0,0.08,0,0.08,0,0.12Z" transform="translate(-25.32 -30.81)"/><path class="cls-3" d="M39,109.21l0.1,0.18,0.3,0.51,0.48,0.84,0.31,0.54,0.39,0.6c0.28,0.42.57,0.91,0.92,1.42L42.67,115c0.44,0.58.94,1.2,1.46,1.86s1.12,1.32,1.76,2S47.21,120.26,48,121c0.38,0.35.75,0.74,1.17,1.09l1.26,1.1a51,51,0,0,0,6,4.28,47.62,47.62,0,0,0,16.48,6.12,48.39,48.39,0,0,0,10.07.65c0.44,0,.87,0,1.31-0.07l1.32-.1c0.88-.08,1.77-0.22,2.66-0.32s1.78-.3,2.68-0.49l1.34-.31,0.67-.16,0.67-.19a47.86,47.86,0,0,0,33.13-32.31l0.44-1.54c0.15-.51.25-1,0.37-1.55,0.26-1,.42-2.09.62-3.14a48.81,48.81,0,0,0-.86-19.23c-0.12-.52-0.29-1-0.43-1.56s-0.29-1-.47-1.55l-0.52-1.53-0.59-1.51-0.3-.75-0.33-.74c-0.22-.49-0.44-1-0.67-1.47-0.5-1-1-1.93-1.52-2.85A47.71,47.71,0,0,0,70.2,40,46.73,46.73,0,0,0,60,43.59a48.11,48.11,0,0,0-20.12,18.6,45.77,45.77,0,0,0-3.25,6.61,47.8,47.8,0,0,0-1.94,5.94l-0.31,1.34c-0.1.44-.2,0.86-0.27,1.27l-0.21,1.2c-0.07.39-.14,0.76-0.18,1.13l-0.25,2-0.13,1.69c0,0.25,0,.49-0.05.71l0,0.62,0,1,0,0.79H29.58l0-.85,0-1,0-.67c0-.24,0-0.5.05-0.77l0.14-1.82c0.07-.67.17-1.39,0.27-2.17,0-.39.11-0.8,0.19-1.21l0.23-1.3c0.07-.45.18-0.9,0.29-1.37l0.33-1.45a51.61,51.61,0,0,1,2.09-6.41,49.4,49.4,0,0,1,3.5-7.12,51.78,51.78,0,0,1,21.67-20,50.41,50.41,0,0,1,11-3.89A51.41,51.41,0,0,1,125.68,61c0.6,1,1.1,2,1.63,3.07,0.25,0.52.48,1.06,0.72,1.58l0.36,0.79,0.32,0.81,0.64,1.62,0.56,1.65c0.2,0.55.35,1.11,0.51,1.67s0.33,1.12.46,1.68a52.46,52.46,0,0,1,.92,20.7c-0.21,1.13-.38,2.27-0.66,3.39-0.14.56-.24,1.12-0.4,1.67l-0.47,1.65a51.44,51.44,0,0,1-35.69,34.8l-0.72.2-0.73.17-1.45.33c-1,.2-1.93.36-2.89,0.53s-1.92.26-2.87,0.35l-1.42.11c-0.47,0-.94.08-1.41,0.08a52.12,52.12,0,0,1-10.84-.7,51.32,51.32,0,0,1-17.75-6.59,54.67,54.67,0,0,1-6.46-4.6L46.7,124.8c-0.45-.38-0.85-0.8-1.26-1.18-0.83-.76-1.55-1.56-2.25-2.29s-1.31-1.49-1.9-2.17-1.09-1.38-1.57-2l-1.27-1.79c-0.37-.56-0.69-1.07-1-1.53L37,113.19l-0.34-.58-0.52-.91-0.32-.55L35.76,111Z" transform="translate(-25.32 -30.81)"/><path class="cls-2" d="M27.14,86.5l0,0.89,0,1.1c0,0.22,0,.45,0,0.7s0,0.52.06,0.8l0.15,1.9c0.08,0.7.18,1.46,0.28,2.28,0,0.41.12,0.84,0.2,1.27l0.24,1.36c0.08,0.47.19,0.95,0.3,1.44l0.35,1.52A54.06,54.06,0,0,0,31,106.47a51.85,51.85,0,0,0,3.67,7.46,54.23,54.23,0,0,0,22.7,21A52.87,52.87,0,0,0,68.82,139a53.86,53.86,0,0,0,59-25.77c0.63-1,1.15-2.14,1.71-3.22,0.26-.55.51-1.11,0.76-1.66l0.38-.83,0.34-.85,0.67-1.7,0.59-1.73c0.21-.57.37-1.16,0.53-1.75s0.34-1.17.49-1.76a54.91,54.91,0,0,0,1-21.68c-0.22-1.19-.4-2.38-0.69-3.55-0.14-.59-0.26-1.18-0.42-1.75L132.62,71A53.89,53.89,0,0,0,95.23,34.53l-0.75-.21-0.76-.18-1.52-.35c-1-.21-2-0.38-3-0.55s-2-.27-3-0.36l-1.49-.11c-0.49,0-1-.08-1.48-0.08a54.53,54.53,0,0,0-11.35.74,53.75,53.75,0,0,0-18.6,6.91,57.08,57.08,0,0,0-6.76,4.82l-1.43,1.24c-0.47.4-.89,0.83-1.32,1.23-0.87.8-1.62,1.63-2.36,2.4s-1.37,1.56-2,2.28-1.14,1.44-1.64,2.1l-1.33,1.87c-0.39.58-.73,1.12-1,1.6L35,58.53l-0.35.61-0.55,1-0.33.58-0.11.2L32,60l0.11-.2,0.34-.6,0.57-1,0.37-.63,0.45-.7c0.32-.5.67-1.06,1.07-1.66l1.37-1.93c0.52-.68,1.09-1.4,1.7-2.17S39.3,49.58,40,48.77s1.54-1.65,2.44-2.48c0.45-.41.88-0.86,1.36-1.27l1.47-1.28a58.85,58.85,0,0,1,7-5,55.57,55.57,0,0,1,19.23-7.14,56.32,56.32,0,0,1,11.73-.76c0.51,0,1,0,1.53.09l1.54,0.12c1,0.09,2.06.25,3.11,0.38s2.08,0.35,3.13.57l1.57,0.36,0.79,0.18,0.78,0.22a55.8,55.8,0,0,1,38.65,37.69l0.51,1.79c0.17,0.6.29,1.21,0.44,1.81,0.3,1.21.49,2.44,0.72,3.67a56.73,56.73,0,0,1-1,22.41c-0.15.61-.34,1.22-0.5,1.82s-0.34,1.21-.55,1.81l-0.61,1.79-0.69,1.76-0.35.88-0.39.86c-0.26.57-.51,1.15-0.79,1.72-0.58,1.12-1.12,2.25-1.77,3.33a55.66,55.66,0,0,1-61,26.64,54.66,54.66,0,0,1-11.87-4.21,56,56,0,0,1-23.46-21.68,53.7,53.7,0,0,1-3.79-7.71A55.79,55.79,0,0,1,27,100.21l-0.36-1.57c-0.12-.51-0.23-1-0.31-1.49l-0.25-1.4c-0.08-.45-0.16-0.89-0.21-1.32-0.11-.85-0.21-1.63-0.29-2.35l-0.15-2c0-.29,0-0.57-0.06-0.83s0-.5,0-0.73l0-1.13,0-.92h1.82Z" transform="translate(-25.32 -30.81)"/><path class="cls-4" d="M77.85,43.69l-0.47,0c-0.3,0-.75,0-1.32.13a41,41,0,0,0-4.64.8,42.67,42.67,0,0,0-13.16,5.44,43.61,43.61,0,0,0-6.1,4.61,45.63,45.63,0,0,0-4.57,4.86l-0.87,1.1c-0.27.35-.51,0.71-0.74,1s-0.45.62-.64,0.91l-0.51.8c-0.3.48-.56,0.85-0.7,1.12l-0.23.41L41,63.23l0.25-.44c0.15-.29.43-0.69,0.76-1.21l0.55-.86c0.21-.31.44-0.63,0.69-1s0.5-.73.8-1.1L45,57.47a48.88,48.88,0,0,1,4.92-5.23,46.87,46.87,0,0,1,6.56-5,46,46,0,0,1,14.18-5.86,44.32,44.32,0,0,1,5-.86c0.61-.09,1.09-0.11,1.42-0.14l0.5,0Z" transform="translate(-25.32 -30.81)"/><path class="cls-4" d="M116.11,61.76l-0.27-.38c-0.18-.25-0.43-0.62-0.79-1.06l-0.58-.74-0.33-.42-0.38-.43-0.83-1c-0.29-.34-0.63-0.66-1-1a41.59,41.59,0,0,0-5-4.44,43.16,43.16,0,0,0-13.54-6.92A41.86,41.86,0,0,0,86.95,44l-1.39-.18c-0.44,0-.87-0.07-1.26-0.1l-1.11-.08-0.95,0-1.32,0H80.45l0-3.31h0.5l1.42,0,1,0,1.19,0.09c0.43,0,.88.06,1.36,0.11l1.5,0.19a45.2,45.2,0,0,1,7,1.53A46.5,46.5,0,0,1,109,49.67a45,45,0,0,1,5.36,4.78c0.36,0.38.72,0.74,1,1.1l0.89,1L116.69,57,117,57.5l0.63,0.8c0.39,0.48.66,0.87,0.85,1.14l0.29,0.41Z" transform="translate(-25.32 -30.81)"/><path class="cls-4" d="M120.29,103.86s0.29-.58.69-1.65l0.35-.88c0.12-.32.23-0.68,0.36-1s0.27-.77.4-1.2l0.38-1.35a42.77,42.77,0,0,0,1.24-6.54,45,45,0,0,0,.15-7.65A41.74,41.74,0,0,0,122.67,76a46.37,46.37,0,0,0-2.12-6.31,45.15,45.15,0,0,0-2.09-4.22l-0.66-1.15c-0.16-.26-0.25-0.4-0.25-0.4l2.82-1.75s0.1,0.14.27,0.43l0.71,1.23a48.45,48.45,0,0,1,2.25,4.55,49.71,49.71,0,0,1,2.28,6.8,45.08,45.08,0,0,1,1.27,8.13,48.33,48.33,0,0,1-.16,8.23,46.1,46.1,0,0,1-1.33,7.05l-0.41,1.45c-0.13.46-.29,0.89-0.43,1.29s-0.26.78-.39,1.13l-0.37.94c-0.23.57-.39,1-0.53,1.32l-0.21.46Z" transform="translate(-25.32 -30.81)"/><path class="cls-4" d="M86.33,129.1l0.46-.06c0.3,0,.75-0.08,1.31-0.19a40.9,40.9,0,0,0,4.6-1,42.68,42.68,0,0,0,12.87-6.1,43.83,43.83,0,0,0,5.86-4.91,44.71,44.71,0,0,0,4.32-5.08l0.81-1.14c0.25-.37.47-0.73,0.69-1.06s0.42-.64.59-0.94l0.47-.82c0.28-.49.51-0.88,0.64-1.15l0.21-.42,2.94,1.52-0.23.45c-0.14.3-.39,0.71-0.69,1.24l-0.51.88c-0.18.32-.41,0.65-0.64,1s-0.47.75-.74,1.14l-0.88,1.23a48,48,0,0,1-4.66,5.47,47.16,47.16,0,0,1-6.31,5.28A46,46,0,0,1,93.6,131a44.17,44.17,0,0,1-5,1.11c-0.6.12-1.08,0.16-1.41,0.21l-0.5.06Z" transform="translate(-25.32 -30.81)"/><path class="cls-4" d="M47.21,113l0.29,0.37,0.35,0.44,0.5,0.58c0.38,0.42.81,1,1.37,1.53l0.87,0.92c0.32,0.31.66,0.63,1,1a42.08,42.08,0,0,0,5.19,4.19,43.11,43.11,0,0,0,13.87,6.23,42,42,0,0,0,6.57,1.09l1.4,0.11c0.44,0,.87,0,1.27,0l1.11,0,0.95,0,1.32,0,0.47,0,0.21,3.31-0.5,0-1.42,0-1,0-1.2,0c-0.43,0-.88,0-1.36,0l-1.51-.11a45.32,45.32,0,0,1-7.08-1.17,46.44,46.44,0,0,1-14.94-6.71,45.45,45.45,0,0,1-5.59-4.51c-0.38-.36-0.75-0.71-1.09-1l-0.94-1c-0.6-.61-1.07-1.19-1.48-1.65l-0.53-.62-0.37-.48L44.6,115Z" transform="translate(-25.32 -30.81)"/></svg>