<svg preserveAspectRatio="none" id="Layer_1" data-name="Layer 1" xmlns="http://www.w3.org/2000/svg" viewBox="0 0 119.45 120.57"><defs><style>.cls-1{fill:#fe6a13}.cls-2{fill:#08e5db}.cls-3{fill:#067773}.cls-4{fill:#00eadb}</style></defs><circle class="cls-1" cx="17.88" cy="48.4" r="2.04"/><circle class="cls-1" cx="26.6" cy="31.13" r="2.04"/><circle class="cls-1" cx="41.91" cy="19.08" r="2.04"/><circle class="cls-1" cx="60.91" cy="15.01" r="2.04"/><circle class="cls-1" cx="79.7" cy="19.57" r="2.04"/><circle class="cls-1" cx="94.91" cy="31.57" r="2.04"/><path class="cls-2" d="M139.59 221.26l-.28-1.26c-.1-.4-.19-.9-.36-1.47l-.56-2a55.87 55.87 0 00-5-11.66c-.64-1.15-1.39-2.3-2.16-3.49s-1.65-2.36-2.6-3.53a57.7 57.7 0 00-6.47-6.9 56.52 56.52 0 00-37.6-14.53 58.81 58.81 0 00-9.42.74l-2.2.39-2.11.48c-.69.15-1.36.35-2 .54s-1.31.36-1.93.58a56.36 56.36 0 00-11.57 5.24c-.67.38-1.23.77-1.74 1.09s-.93.59-1.26.84l-1 .73-1.38-1.92 1.07-.76c.34-.25.79-.53 1.31-.87s1.12-.73 1.81-1.13A58.73 58.73 0 0166.1 177c.65-.23 1.33-.41 2-.61s1.38-.4 2.11-.56l2.2-.5 2.29-.41a61.27 61.27 0 019.81-.77 58.88 58.88 0 0139.17 15.14 59.93 59.93 0 016.74 7.18c1 1.22 1.86 2.47 2.71 3.68s1.59 2.43 2.25 3.63a58.25 58.25 0 015.26 12.14l.58 2.06c.17.6.27 1.12.38 1.53l.29 1.28z" transform="translate(-23.85 -174.12)"/><path class="cls-3" d="M53.53 233.06v.56c0 .37 0 .92.07 1.62a28.8 28.8 0 001 6l.28 1 .34 1c.1.35.25.69.39 1s.27.72.44 1.08a29 29 0 002.45 4.52 31.13 31.13 0 008.65 8.73 31.63 31.63 0 006.26 3.21 30.62 30.62 0 007.31 1.75c.32.05.65.06 1 .09l1 .08h3c.34 0 .67-.05 1-.07.68 0 1.34-.14 2-.22a30.12 30.12 0 004-.87c.67-.17 1.32-.42 2-.63l1-.38.49-.19.48-.22a30.73 30.73 0 007.31-4.52 30.92 30.92 0 005.88-6.57 30.5 30.5 0 004.79-12.46 30.74 30.74 0 000-9 32.28 32.28 0 00-1-4.39A31.67 31.67 0 00112 220a32 32 0 00-2.19-3.89 30.92 30.92 0 00-5.88-6.57 30.72 30.72 0 00-7.24-4.54l-.48-.22-.49-.19-1-.38c-.67-.21-1.31-.47-2-.63a30.13 30.13 0 00-4-.87c-.68-.08-1.34-.19-2-.22-.34 0-.67-.06-1-.07h-3l-1 .07c-.33 0-.65 0-1 .09a30.62 30.62 0 00-7.31 1.75 31.57 31.57 0 00-6.26 3.21 31.13 31.13 0 00-8.65 8.73 29 29 0 00-2.45 4.52c-.18.36-.3.72-.44 1.08s-.29.7-.39 1l-.34 1-.28 1a28.8 28.8 0 00-1 6c-.07.7 0 1.25-.07 1.62v.56h-1.69v-.59c0-.39 0-1 .07-1.71a30.44 30.44 0 011.09-6.34l.29-1 .36-1.06c.11-.37.27-.73.41-1.1s.28-.76.47-1.14a30.76 30.76 0 012.58-4.76 32.81 32.81 0 019.12-9.21 33.31 33.31 0 016.6-3.39 32.27 32.27 0 017.71-1.85c.34-.05.68-.07 1-.09l1-.08h3.12c.35 0 .71.05 1.06.08.71 0 1.42.15 2.13.23a31.91 31.91 0 014.24.92c.71.18 1.39.45 2.1.67l1 .41.52.2.51.23a32.41 32.41 0 017.68 4.79 32.56 32.56 0 016.2 6.93 32.2 32.2 0 014 8.51 34.06 34.06 0 011 4.63 32.47 32.47 0 010 9.54 34.06 34.06 0 01-1 4.63 32.2 32.2 0 01-4 8.51 32.58 32.58 0 01-6.2 6.92 32.39 32.39 0 01-7.68 4.79l-.51.23-.52.2-1 .4c-.7.22-1.39.49-2.1.67a31.89 31.89 0 01-4.24.92c-.71.08-1.42.2-2.13.23-.36 0-.71.06-1.06.08h-2.99l-1-.08c-.34 0-.69 0-1-.1a32.26 32.26 0 01-7.71-1.85 33.29 33.29 0 01-6.6-3.39 32.81 32.81 0 01-9.12-9.21 30.74 30.74 0 01-2.69-4.82c-.19-.38-.32-.76-.47-1.14s-.3-.73-.41-1.1l-.36-1.06-.29-1a30.43 30.43 0 01-1.08-6.35c-.08-.74-.05-1.32-.07-1.71v-.59h1.69z" transform="translate(-23.85 -174.12)"/><path class="cls-1" d="M91.52 208.44l-.52-.14c-.32-.11-.81-.19-1.38-.34a27.72 27.72 0 00-4.29-.54h-2.34c-.74.06-1.43.09-2 .18-.29 0-.56.06-.8.1l-.61.11-.53.09-.64-3.14.6-.1.68-.13c.26-.05.57-.07.9-.12.65-.11 1.43-.14 2.26-.21h2.62a30.86 30.86 0 014.82.6c.64.16 1.18.25 1.55.38l.58.17zM102.83 215.37l-.37-.4-1-1a26.36 26.36 0 00-3.46-2.59 27.25 27.25 0 00-3.81-2l-.75-.29a5.5 5.5 0 00-.58-.22l-.51-.17 1-3 .57.19a6.86 6.86 0 01.65.24l.84.33a30.6 30.6 0 014.29 2.25 29.82 29.82 0 013.88 2.94l1.16 1.11.42.44zM109.19 227v-.14a3.68 3.68 0 00-.1-.38l-.17-.59a7.84 7.84 0 00-.23-.76 24 24 0 00-1.67-4 26.8 26.8 0 00-2.32-3.64c-.37-.46-.66-.86-.9-1.11l-.35-.41 2.39-2.13.4.46c.27.28.6.73 1 1.25a30 30 0 012.61 4.09 27.3 27.3 0 011.88 4.46c.12.31.19.6.26.86l.19.67a4.43 4.43 0 01.11.43v.15zM108.88 240.28l.15-.52.08-.27.07-.33.18-.78a27.89 27.89 0 00.52-4.29v-1.18-1.15c-.06-.74-.09-1.43-.19-2s-.16-1.07-.22-1.4l-.07-.39a1 1 0 000-.14l3.14-.65a1.35 1.35 0 010 .16l.08.44c.07.38.18.92.25 1.58s.14 1.43.21 2.26v2.62a31 31 0 01-.59 4.82l-.2.88-.08.37-.09.31-.17.58zM101.93 251.65l.39-.37 1-1a26.69 26.69 0 002.61-3.45 27.4 27.4 0 002-3.81c.2-.55.41-1 .51-1.32l.17-.51 3 1-.19.57c-.11.37-.34.87-.57 1.49a30.49 30.49 0 01-2.26 4.29 30 30 0 01-2.94 3.88c-.46.48-.84.89-1.11 1.16l-.44.42zM90.3 258h.14a3.65 3.65 0 00.39-.1l.59-.17a8 8 0 00.76-.23 24.08 24.08 0 004-1.67 26.83 26.83 0 003.64-2.32c.46-.37.86-.66 1.11-.9l.41-.35 2.13 2.39-.47.35c-.28.27-.73.6-1.25 1a30 30 0 01-4.1 2.61 27.17 27.17 0 01-4.46 1.88c-.31.12-.6.19-.86.26l-.67.19c-.18.06-.33.08-.43.11h-.15zM77 257.68l.52.15c.32.11.81.19 1.38.33a27.77 27.77 0 004.29.53h2.34c.74-.06 1.43-.09 2-.19.29 0 .56-.05.8-.11l.61-.11.39-.07h.14l.65 3.14h-.16l-.44.08-.68.13c-.26.06-.57.07-.9.12-.65.11-1.43.14-2.26.21h-2.62a31.05 31.05 0 01-4.82-.59c-.64-.16-1.19-.25-1.55-.38l-.58-.17zM65.7 250.77l.37.4 1 1a26 26 0 003.45 2.61 27.2 27.2 0 003.82 2l.78.22.31.13.27.09.51.17-1 3-.57-.19-.3-.1-.34-.1-.84-.33a30.46 30.46 0 01-4.29-2.24 29.41 29.41 0 01-3.87-2.9c-.49-.45-.89-.84-1.17-1.1l-.45-.43z" transform="translate(-23.85 -174.12)"/><path class="cls-3" d="M70.67 287.06l.6-2.4.73.17.92.17.58.13.67.12 1.59.28c.58.11 1.23.17 1.92.27l1.09.2 1.16.09c.8.06 1.65.14 2.55.14a53.74 53.74 0 0012.91-1.14 52.88 52.88 0 0015.69-6.09 53.17 53.17 0 0021.54-68.13c-.41-.94-.9-1.85-1.36-2.77-.23-.46-.5-.9-.75-1.35l-.77-1.34a55.24 55.24 0 00-3.52-5.07 53.18 53.18 0 00-80-4.51c-.53.56-1.07 1.1-1.57 1.67l-1.47 1.7-1.36 1.72c-.44.57-.84 1.16-1.25 1.73a52.9 52.9 0 00-8.35 19.15 55.52 55.52 0 00-1.12 8.29c0 1-.05 1.7-.07 2.2v.75h-7.18l.05-2.32c0-.74.09-1.64.16-2.66s.22-2.19.38-3.45c.07-.63.19-1.28.31-2s.23-1.38.39-2.09l.5-2.19c.17-.75.41-1.5.62-2.26a59.89 59.89 0 0114.14-24.54c.44-.46.86-.9 1.27-1.31l1.19-1.14c.74-.72 1.43-1.3 2-1.79s1-.87 1.31-1.11l.48-.38 2.94 3.69 1-.8c.33-.27.76-.56 1.26-.92l.81-.57.45-.31.49-.31a56.27 56.27 0 0111.71-5.89 57.06 57.06 0 018.46-2.31c.77-.13 1.54-.29 2.33-.4l2.4-.3 2.46-.19c.83-.06 1.67-.06 2.51-.09a56.33 56.33 0 0110.4.83 55.35 55.35 0 0120.07 7.77 56 56 0 0114.81 13.63 57.75 57.75 0 014.7 7.39l.91 1.78c.28.59.54 1.17.8 1.73l.38.84.33.83.62 1.59c.37 1 .7 2 1 2.93s.51 1.76.71 2.53c.36 1.54.65 2.76.78 3.6l.23 1.28 3.33-.54.1.59.22 1.67.14 1.15.11 1.41.12 1.6.05 1.78c.05 1.24 0 2.58 0 4 0 .71-.1 1.44-.15 2.18l-.13 1.12-.14 1.15-.15 1.17c0 .39-.1.79-.18 1.18l-.43 2.41-.55 2.41c-.19.81-.44 1.6-.66 2.4a60.39 60.39 0 01-3.52 9.09 62.33 62.33 0 01-4.26 7.35c-1.41 2-2.69 3.68-3.63 4.78l-1.48 1.69 1.91 1.74s-.59.63-1.64 1.72-2.62 2.58-4.6 4.25a64.13 64.13 0 01-7.19 5.17 63 63 0 01-9.08 4.58c-.81.31-1.61.65-2.43.93l-2.44.82-2.44.7c-.8.23-1.62.39-2.41.58a59.88 59.88 0 01-8.77 1.3c-.65 0-1.27.11-1.85.12H82.67c-.72 0-1.35 0-1.75-.06h-.62l.38-5.95-1.58-.12c-.47 0-1-.1-1.61-.18s-1.22-.15-1.85-.25l-1.84-.33-.8-.15-.75-.17zm52.08-9l1-.87c.25-.22.5-.44.68-.62l.3-.29-2.31-2.46-.28.27c-.17.16-.4.38-.64.58l-.95.82zm-4.06 3.18l1.08-.78 1-.82-2.04-2.64-1 .77-1 .73zm-4.32 2.76s.58-.32 1.14-.69l1.12-.72-1.85-2.82-1.06.68c-.52.35-1.07.65-1.07.65zm-4.55 2.44l.37-.18.82-.42 1.18-.61-1.59-3-1.12.57-.77.39-.35.17zm-4.75 2l1.24-.49.85-.34.38-.16-1.33-3.1-.36.15-.8.32-1.17.46zm-4.91 1.6l1.28-.37c.32-.09.64-.19.88-.27l.4-.13-1.05-3.21-.37.13c-.22.08-.52.17-.83.26l-1.21.35zm-5 1.17l.41-.07c.25 0 .57-.1.9-.18l1.3-.3-.77-3.22-1.23.28c-.31.08-.62.12-.85.17l-.39.07zM90 292h.41l.91-.11 1.32-.17-.48-3.34-1.25.16-.86.11h-.39zm-5.14.27h2.64l-.18-3.37h-2.5z" transform="translate(-23.85 -174.12)"/><path class="cls-2" d="M37.93 233.07h6.41v.59c0 .39 0 1 .05 1.68a42.79 42.79 0 00.78 5.93 39.87 39.87 0 007.59 16.32 38.56 38.56 0 006.84 6.86 39.78 39.78 0 007.15 4.5 43.14 43.14 0 005.55 2.21l1.61.46c.37.11.57.15.57.15l.65-2.59 1.67.38c.54.09 1.19.22 1.94.34s1.6.23 2.54.28a37.31 37.31 0 0013.57-1.42 36.84 36.84 0 006.76-2.76 37.74 37.74 0 008.77-6.43c.39-.38.68-.7.88-.91l.31-.32-2-1.89.19-.2.51-.59c.45-.5 1.06-1.26 1.75-2.18a34.82 34.82 0 004.14-7.38l.42-1.07c.13-.36.25-.73.37-1.08.27-.71.43-1.44.64-2.13.09-.35.16-.7.24-1s.17-.67.22-1l.17-1 .08-.45c0-.15 0-.3.06-.44.06-.58.16-1.1.19-1.57l.09-1.22v-1.07l.45-.73c.28-.44.59-1 .93-1.66l.25-.47.22-.46.38-.82.27-.59a2.46 2.46 0 00.1-.23l-.1-.74-.11-.89c-.05-.35-.13-.75-.21-1.19a37 37 0 00-2.1-7.21l-.22-.55-.25-.55-.51-1.13c-.39-.74-.76-1.53-1.22-2.29s-.94-1.54-1.44-2.34-1.09-1.55-1.71-2.31a36.7 36.7 0 00-9-8.17 36.14 36.14 0 00-5.37-2.9 38.86 38.86 0 00-5.68-1.91 38 38 0 00-5.53-.94l-1.32-.1H82.75c-.39 0-.77 0-1.14.07l-1.09.08-2 .26-1.74.31-1.46.34c-.88.21-1.56.44-2 .56l-.71.24.78 2.35-.36.12c-.24.09-.59.18-1 .37a35.07 35.07 0 00-8.32 4.41 35.38 35.38 0 00-4.71 4.18 34.81 34.81 0 00-6.52 9.77l-.24.54c-.07.18-.14.35-.21.52l-.38 1c-.22.61-.39 1.16-.55 1.6l-.42 1.39-2.39-.64-.12.41-.25 1.08-.17.72-.14.82-.16.87c-.05.3-.08.6-.12.91l-.12.91c0 .3 0 .6-.08.89 0 .58-.11 1.11-.1 1.57v1.54H33v-.73c0-.48 0-1.19.07-2.12a53.56 53.56 0 011.08-8 51 51 0 018-18.46c.4-.55.78-1.12 1.21-1.67l1.31-1.66 1.41-1.64c.48-.55 1-1.07 1.51-1.61a51.24 51.24 0 0177.09 4.35 53.19 53.19 0 013.4 4.89l.75 1.29c.24.43.5.85.72 1.3.45.88.92 1.76 1.31 2.67a51.26 51.26 0 013.66 11.22 52.08 52.08 0 01-.55 22.77 51.35 51.35 0 01-39 37.56 51.87 51.87 0 01-12.45 1.1c-.87 0-1.69-.08-2.46-.14l-1.06-.12-1-.13c-.67-.09-1.29-.15-1.85-.26l-1.54-.27-.65-.12-.56-.13-.87-.2-.71-.17.74-2.94 1.11.26c.72.19 1.8.37 3.17.61.69.1 1.45.19 2.28.3s1.74.14 2.7.22a50.53 50.53 0 006.49-.11 47.78 47.78 0 0015.7-4 48.34 48.34 0 0027.64-34.48 50 50 0 00.91-7.63 48.74 48.74 0 00-.89-11.44c-.13-.68-.29-1.28-.4-1.81L131 221l-.17-.6-.31-1.1-3.83 1.13.29 1 .15.55.15.67c.11.48.25 1 .37 1.66a44.75 44.75 0 01.82 10.5 45.94 45.94 0 01-.83 7 44.86 44.86 0 01-2.25 7.54 44.4 44.4 0 01-23.11 24.09 43.76 43.76 0 01-14.39 3.68 46.62 46.62 0 01-6 .1c-.88-.07-1.71-.12-2.48-.2s-1.46-.18-2.09-.27c-1.26-.22-2.24-.39-2.9-.56l-1-.24.69-2.75s-.25-.05-.61-.16l-1.34-.38c-.49-.14-1-.32-1.32-.43l-.6-.2-.71 2h-.15l-.38-.16-1.61-.54a44.35 44.35 0 01-19.85-14.41 46.5 46.5 0 01-3-4.23c-.43-.74-.86-1.47-1.26-2.2l-.57-1.11c-.19-.37-.38-.74-.54-1.11a45.9 45.9 0 01-3-8.46 48.07 48.07 0 01-1.09-6.31zm1.94-20.37l-.31.69c-.1.22-.22.48-.35.79l-.41 1a49.73 49.73 0 00-1.86 5.72l-.37 1.59c-.06.26-.12.52-.17.78l-.14.77-.26 1.5c-.07.46-.12.91-.17 1.31l-.14 1.15c0 .33-.05.62-.07.86l-.06.75 9.31.66v-.61c0-.19 0-.43.06-.7l.12-.9c0-.33.08-.69.14-1.06l.21-1.18.11-.62c0-.21.1-.42.14-.63l.3-1.29a40.43 40.43 0 011.5-4.62l.33-.84c.1-.25.21-.46.28-.64l.25-.55zm13-17.05l-.57.49c-.36.32-.89.75-1.47 1.32l-1 .91c-.34.33-.67.69-1 1.06-.72.73-1.42 1.57-2.14 2.39a49.33 49.33 0 00-3.55 4.85l-.6.94c-.18.28-.31.54-.44.74l-.37.65 8.12 4.6.3-.53c.1-.17.21-.37.35-.6l.49-.76a40.15 40.15 0 012.87-3.93c.58-.67 1.15-1.35 1.73-1.94.29-.3.56-.6.83-.86l.78-.74c.47-.47.9-.82 1.19-1.07l.46-.4zm19.06-9.85l-.72.2c-.46.14-1.12.3-1.9.56l-1.26.42c-.45.14-.91.32-1.39.51l-1.47.58-1.49.67c-.5.22-1 .47-1.47.71s-1 .48-1.4.73l-1.28.74-.59.34-.54.34c-.69.44-1.27.8-1.66 1.08l-.61.43 5.38 7.63.49-.35c.32-.22.79-.51 1.34-.87l.44-.28.48-.28 1-.6c.36-.2.75-.39 1.14-.59s.78-.4 1.19-.58l1.2-.54 1.19-.47c.38-.16.76-.3 1.12-.42l1-.34c.63-.22 1.17-.34 1.54-.45l.58-.17zm21.43-.71l-.73-.09-.85-.15-1.11-.15-1.31-.17-1.47-.12c-1-.1-2.11-.11-3.2-.14h-1.63c-.54 0-1.07 0-1.58.05l-1.47.11-.68.05-.63.08-2 .26-.74.13 1.57 9.2.6-.11 1.59-.21.51-.06h.55l1.19-.09h2.6c.89 0 1.77 0 2.6.11l1.19.09 1.06.14.9.12.68.02.6.11zm19.68 8.54l-.61-.44c-.39-.28-.94-.68-1.64-1.11l-1.12-.71c-.4-.25-.83-.49-1.28-.74-.88-.53-1.86-1-2.84-1.51a49.28 49.28 0 00-5.56-2.28c-.78-.27-1.43-.48-1.89-.6l-.7-.24-2.51 9 .58.17c.38.09.9.27 1.52.49a40 40 0 014.5 1.84c.78.41 1.58.79 2.29 1.22.36.21.71.4 1 .6l.9.58c.57.35 1 .68 1.33.9l.5.35zm14.12 16.14l-.37-.65c-.24-.41-.56-1-1-1.71l-.71-1.12-.39-.61-.44-.62-.92-1.28-1-1.28c-.33-.44-.69-.85-1-1.25s-.69-.81-1-1.19l-1-1.07-.47-.49-.46-.44c-.6-.56-1.08-1-1.44-1.35l-.57-.49-6.13 7 .46.4c.3.25.68.65 1.17 1.1l.38.36.38.4.83.87c.28.3.55.64.84 1s.58.66.85 1l.82 1 .74 1 .35.5.32.49.58.9c.36.56.61 1.05.81 1.38l.3.53z" transform="translate(-23.85 -174.12)"/><path class="cls-1" d="M70.59 276.72l.27.08.78.2 1.26.35 1.72.4a45.36 45.36 0 0010.87 1c1.13 0 2.31-.12 3.52-.22l1.85-.23c.63-.07 1.25-.21 1.89-.32a45.84 45.84 0 0035.82-33.54 47.83 47.83 0 001.23-7.2 46.48 46.48 0 00-.3-10.91c-.09-.65-.21-1.23-.3-1.74l-.13-.7c0-.21-.09-.4-.13-.58l-.24-1.06 1 1s.1.37.22 1.08l.23 1.3c.1.51.15 1.11.24 1.78 0 .33.09.68.13 1.05l.09 1.16c0 .4.07.82.08 1.26v4.36c0 .52-.07 1.06-.11 1.61s-.08 1.11-.16 1.68a46.55 46.55 0 01-30.68 38.42 45 45 0 01-8 2.05 50 50 0 01-7.4.6 47.51 47.51 0 01-11-1.31c-.66-.14-1.23-.32-1.73-.46s-.93-.26-1.27-.37l-1-.35z" transform="translate(-23.85 -174.12)"/><path class="cls-3" d="M43.63 260.39l-.09.65c0 .39-.11.92-.16 1.45-.12 1.07-.17 2.15-.17 2.15s1.08.25 2.13.47 2.13.35 2.13.35l.42.49c.26.29.61.66 1 1s.7.76 1 1l.46.45 2.33-2.33-.45-.39c-.29-.24-.67-.61-1.14-1.05l-.8-.63-.8-.84c-.28-.29-.57-.59-.85-.9l-.84-1a45.84 45.84 0 01-2.9-3.76c-.39-.52-.66-1-.87-1.31l-.32-.5-2.19 1.16.31.56c.19.34.43.79.7 1.23zM55.71 271.95s.2 1 .45 2.06c.12.53.26 1 .37 1.42l.19.65.67-.08c.4-.05.93-.12 1.47-.21 1.07-.18 2.09-.39 2.09-.39s.22.14.56.31l1.24.65c.45.24.91.46 1.26.62l.58.27 1.4-3-.55-.25c-.34-.13-.84-.32-1.41-.59s-1.26-.55-2-.92-1.47-.74-2.19-1.18l-1.1-.63-1-.66c-.68-.42-1.28-.86-1.8-1.23l-.71-.51-.53-.41-.46-.36-1.66 1.83.42.45.49.43.58.47 1.09.87.37.28zM36 245.38s-.13.24-.3.59-.41.84-.64 1.33-.46 1-.62 1.37l-.26.63s.94.62 1.86 1.18c.46.28 1 .55 1.3.75l.59.32s.36 1 .8 1.94c.21.48.42 1 .59 1.32l.29.59 3-1.42-.3-.52c-.19-.33-.43-.82-.73-1.4-.15-.29-.32-.61-.47-.95l-.49-1.11c-.35-.74-.67-1.56-1-2.38l-.24-.61-.21-.62-.4-1.21c-.26-.78-.44-1.53-.63-2.17s-.29-1.18-.38-1.55l-.13-.59-2.45.35.11.65c.07.39.14.91.25 1.42z" transform="translate(-23.85 -174.12)"/><path class="cls-2" d="M31.1 235.49v.73l.16 2.05c0 .44.11.93.17 1.46s.13 1.11.24 1.72l.35 1.94c.12.68.31 1.39.47 2.14a53.29 53.29 0 003.41 9.83 55.15 55.15 0 002.75 5.19c.53.85 1.07 1.7 1.64 2.54l.88 1.24.44.62.47.6A53.14 53.14 0 0059 279.9a55.93 55.93 0 006.71 3c.83.31 1.5.52 2 .68l.69.23-.74 2.36-.78-.17c-.47-.16-1.17-.38-2-.71a58.36 58.36 0 01-7-3.18 55.61 55.61 0 01-17.66-15l-.49-.63-.46-.65-.92-1.3c-.6-.87-1.16-1.77-1.71-2.65a57.48 57.48 0 01-2.87-5.43 55.75 55.75 0 01-3.58-10.29c-.17-.78-.37-1.52-.49-2.24l-.36-2c-.11-.64-.17-1.24-.25-1.8s-.14-1.07-.18-1.53l-.16-2.15v-.76z" transform="translate(-23.85 -174.12)"/><path class="cls-2" d="M32.7 250.58l.44 1.29.57 1.46.35.89.43 1A54.59 54.59 0 0047 272.79c.53.52 1 1 1.5 1.35s.85.74 1.18 1l1.11.86-3.25 4.17-1.17-.92c-.37-.3-.8-.68-1.3-1.11s-1.07-.92-1.65-1.49a59.88 59.88 0 01-13.75-19.31l-.48-1.07-.39-1-.63-1.6-.49-1.41z" transform="translate(-23.85 -174.12)"/><path class="cls-4" d="M67.21 51.25l-.73-.73 8.83-8.82 2.01 2.01-5.78 3.2-4.33 4.34zM66.48 65.03l.73-.72 8.82 8.82-2.01 2.02-3.2-5.78-4.34-4.34zM52.7 64.31l.72.72-8.82 8.83-2.01-2.01 5.77-3.2 4.34-4.34zM53.42 50.52l-.72.73-8.83-8.82 2.01-2.02 3.21 5.78 4.33 4.33z"/><path class="cls-4" d="M105.72 231.62H85.57a1.79 1.79 0 00-1.49-1.49v-19h-.56v19a1.79 1.79 0 00-1.52 1.49H61.88v.56H82a1.79 1.79 0 001.49 1.49v19h.56v-19a1.79 1.79 0 001.49-1.49h20.15v-.56z" transform="translate(-23.85 -174.12)"/></svg>