<svg preserveAspectRatio="none" id="Layer_1" data-name="Layer 1" xmlns="http://www.w3.org/2000/svg" viewBox="0 0 131.64 131.64"><defs><style>.cls-1{fill:#5cdeff;}.cls-2{fill:#ba5bb2;}.cls-3{fill:#154666;}.cls-4{fill:#ff7df5;}</style></defs><title>circle117</title><polygon class="cls-1" points="66.09 6.84 65.72 28.13 65.34 6.84 66.09 6.84"/><polygon class="cls-1" points="65.72 103.78 66.09 125.07 65.34 125.07 65.72 103.78"/><polygon class="cls-2" points="58.22 7.34 59.5 18.97 57.73 7.4 58.22 7.34"/><polygon class="cls-3" points="71.88 112.99 73.66 124.56 73.16 124.63 71.88 112.99"/><polygon class="cls-4" points="50.61 8.85 53.39 20.22 50.12 8.98 50.61 8.85"/><polygon class="cls-1" points="77.94 111.81 81.21 123.05 80.72 123.18 77.94 111.81"/><polygon class="cls-4" points="43.25 11.34 47.5 22.24 42.79 11.53 43.25 11.34"/><polygon class="cls-3" points="83.79 109.86 88.5 120.57 88.04 120.76 83.79 109.86"/><polygon class="cls-2" points="36.29 14.76 41.92 25.02 35.85 15.01 36.29 14.76"/><polygon class="cls-3" points="89.34 107.15 95.4 117.16 94.97 117.41 89.34 107.15"/><polygon class="cls-2" points="29.83 19.07 36.75 28.51 29.43 19.38 29.83 19.07"/><polygon class="cls-3" points="94.48 103.74 101.81 112.88 101.41 113.18 94.48 103.74"/><polygon class="cls-4" points="23.99 24.19 32.08 32.64 23.63 24.54 23.99 24.19"/><polygon class="cls-1" points="99.14 99.69 107.59 107.79 107.24 108.14 99.14 99.69"/><polygon class="cls-2" points="18.86 30.02 27.99 37.34 18.56 30.42 18.86 30.02"/><polygon class="cls-3" points="103.23 95.07 112.67 102 112.36 102.39 103.23 95.07"/><polygon class="cls-2" points="14.54 36.47 24.55 42.54 14.29 36.9 14.54 36.47"/><polygon class="cls-3" points="106.68 89.95 116.94 95.59 116.69 96.02 106.68 89.95"/><polygon class="cls-4" points="11.1 43.43 21.82 48.14 10.91 43.89 11.1 43.43"/><polygon class="cls-1" points="109.43 84.43 120.34 88.68 120.15 89.14 109.43 84.43"/><polygon class="cls-4" points="8.6 50.78 19.84 54.05 8.47 51.26 8.6 50.78"/><polygon class="cls-3" points="111.44 78.59 122.81 81.38 122.68 81.86 111.44 78.59"/><polygon class="cls-2" points="7.08 58.39 18.65 60.17 7.02 58.89 7.08 58.39"/><polygon class="cls-3" points="112.67 72.55 124.31 73.83 124.24 74.32 112.67 72.55"/><polygon class="cls-2" points="6.57 66.14 18.27 66.39 6.57 66.64 6.57 66.14"/><polygon class="cls-1" points="113.1 66.39 124.8 66.14 124.8 66.64 113.1 66.39"/><polygon class="cls-2" points="7.07 73.89 18.7 72.61 7.13 74.38 7.07 73.89"/><polygon class="cls-3" points="112.72 60.23 124.29 58.45 124.36 58.95 112.72 60.23"/><polygon class="cls-2" points="8.58 81.5 19.95 78.72 8.71 81.99 8.58 81.5"/><polygon class="cls-1" points="111.54 54.17 122.78 50.9 122.91 51.39 111.54 54.17"/><polygon class="cls-4" points="11.06 88.86 21.97 84.61 11.26 89.32 11.06 88.86"/><polygon class="cls-3" points="109.58 48.32 120.3 43.61 120.49 44.07 109.58 48.32"/><polygon class="cls-4" points="14.49 95.82 24.75 90.19 14.74 96.26 14.49 95.82"/><polygon class="cls-3" points="106.88 42.77 116.89 36.71 117.14 37.14 106.88 42.77"/><polygon class="cls-4" points="18.8 102.28 28.24 95.36 19.11 102.68 18.8 102.28"/><polygon class="cls-3" points="103.47 37.63 112.6 30.31 112.91 30.7 103.47 37.63"/><polygon class="cls-2" points="23.91 108.12 32.37 100.03 24.27 108.48 23.91 108.12"/><polygon class="cls-3" points="99.42 32.97 107.52 24.52 107.87 24.87 99.42 32.97"/><polygon class="cls-2" points="29.75 113.25 37.07 104.12 30.14 113.55 29.75 113.25"/><polygon class="cls-1" points="94.8 28.88 101.72 19.45 102.12 19.75 94.8 28.88"/><polygon class="cls-4" points="36.2 117.57 42.27 107.56 36.63 117.82 36.2 117.57"/><polygon class="cls-3" points="89.68 25.43 95.32 15.17 95.75 15.42 89.68 25.43"/><polygon class="cls-2" points="43.16 121.01 47.87 110.29 43.62 121.2 43.16 121.01"/><polygon class="cls-3" points="84.16 22.68 88.41 11.77 88.87 11.96 84.16 22.68"/><polygon class="cls-4" points="50.51 123.51 53.78 112.27 50.99 123.64 50.51 123.51"/><polygon class="cls-1" points="78.32 20.67 81.11 9.3 81.59 9.43 78.32 20.67"/><polygon class="cls-2" points="58.12 125.03 59.9 113.46 58.62 125.09 58.12 125.03"/><polygon class="cls-3" points="72.28 19.44 73.56 7.81 74.05 7.87 72.28 19.44"/><polygon class="cls-3" points="60.39 23.82 61.24 32.19 59.9 23.88 60.39 23.82"/><polygon class="cls-3" points="54.91 24.89 56.85 33.08 54.43 25.02 54.91 24.89"/><polygon class="cls-3" points="49.63 26.67 52.62 34.54 49.16 26.86 49.63 26.67"/><polygon class="cls-3" points="44.62 29.13 48.6 36.54 44.18 29.38 44.62 29.13"/><polygon class="cls-3" points="39.97 32.22 44.89 39.04 39.57 32.52 39.97 32.22"/><polygon class="cls-3" points="35.76 35.88 41.53 42.01 35.41 36.24 35.76 35.88"/><polygon class="cls-3" points="32.07 40.07 38.59 45.39 31.77 40.47 32.07 40.07"/><polygon class="cls-3" points="28.96 44.7 36.12 49.13 28.71 45.14 28.96 44.7"/><polygon class="cls-3" points="26.48 49.7 34.16 53.15 26.29 50.16 26.48 49.7"/><polygon class="cls-3" points="24.68 54.98 32.73 57.4 24.55 55.46 24.68 54.98"/><polygon class="cls-3" points="23.57 60.45 31.88 61.8 23.51 60.95 23.57 60.45"/><polygon class="cls-3" points="23.19 66.02 31.61 66.27 23.19 66.52 23.19 66.02"/><polygon class="cls-3" points="23.55 71.59 31.92 70.74 23.61 72.08 23.55 71.59"/><polygon class="cls-3" points="24.62 77.06 32.81 75.13 24.75 77.55 24.62 77.06"/><polygon class="cls-3" points="26.4 82.35 34.27 79.36 26.59 82.81 26.4 82.35"/><polygon class="cls-3" points="28.86 87.36 36.27 83.37 29.11 87.8 28.86 87.36"/><polygon class="cls-3" points="31.95 92.01 38.77 87.09 32.25 92.41 31.95 92.01"/><polygon class="cls-3" points="35.61 96.21 41.74 90.44 35.97 96.57 35.61 96.21"/><polygon class="cls-3" points="39.8 99.9 45.12 93.38 40.2 100.21 39.8 99.9"/><polygon class="cls-3" points="44.43 103.02 48.85 95.86 44.87 103.27 44.43 103.02"/><polygon class="cls-3" points="49.43 105.5 52.88 97.82 49.89 105.69 49.43 105.5"/><polygon class="cls-3" points="54.71 107.3 57.13 99.24 55.19 107.43 54.71 107.3"/><polygon class="cls-3" points="60.18 108.41 61.53 100.1 60.68 108.47 60.18 108.41"/><path class="cls-1" d="M157.27,360l0.08-3.48a71.81,71.81,0,0,1,1.19-9.75,65.67,65.67,0,0,1,15.6-31,66.74,66.74,0,0,1,18.5-14.29,65.55,65.55,0,0,1,25.06-7.2,65.76,65.76,0,0,1,71,71,65.54,65.54,0,0,1-7.2,25.06,66.74,66.74,0,0,1-14.29,18.5,65.66,65.66,0,0,1-31,15.6,71.81,71.81,0,0,1-9.75,1.19l-3.48.08,3.47-.11a71.72,71.72,0,0,0,9.73-1.28,65.51,65.51,0,0,0,14.42-4.84,67.25,67.25,0,0,0,16.36-10.93,66.3,66.3,0,0,0,14.14-18.43,65,65,0,0,0,7.07-24.88,65.43,65.43,0,0,0-70.39-70.39,65,65,0,0,0-24.88,7.07A66.3,66.3,0,0,0,174.44,316a67.23,67.23,0,0,0-10.93,16.36,65.51,65.51,0,0,0-4.84,14.42,71.71,71.71,0,0,0-1.28,9.73Z" transform="translate(-157.27 -294.05)"/><circle class="cls-3" cx="227.93" cy="397.47" r="1.64" transform="translate(-207.21 -260.9) rotate(-7.5)"/><circle class="cls-1" cx="232.77" cy="396.5" r="1.64" transform="translate(-251.96 -220.3) rotate(-15)"/><circle class="cls-3" cx="237.45" cy="394.91" r="1.64" transform="translate(-290.33 -173.12) rotate(-22.5)"/><circle class="cls-3" cx="241.88" cy="392.72" r="1.64" transform="translate(-321.23 -120.49) rotate(-30)"/><circle class="cls-1" cx="245.99" cy="389.97" r="1.64" transform="translate(-343.84 -63.73) rotate(-37.5)"/><circle class="cls-1" cx="249.7" cy="386.7" r="1.64" transform="translate(-357.58 -4.22) rotate(-45)"/><circle class="cls-3" cx="252.96" cy="382.99" r="1.64" transform="translate(-362.15 56.47) rotate(-52.5)"/><circle class="cls-3" cx="255.7" cy="378.87" r="1.64" transform="translate(-357.54 116.83) rotate(-60)"/><circle class="cls-1" cx="257.88" cy="374.44" r="1.64" transform="translate(-344.02 175.34) rotate(-67.5)"/><circle class="cls-3" cx="259.47" cy="369.76" r="1.64" transform="translate(-322.12 230.63) rotate(-75)"/><circle class="cls-3" cx="260.43" cy="364.91" r="1.64" transform="translate(-292.63 281.41) rotate(-82.5)"/><circle class="cls-1" cx="103.47" cy="65.92" r="1.64"/><circle class="cls-3" cx="260.42" cy="355.04" r="1.64" transform="translate(-201.39 -257.03) rotate(-7.5)"/><circle class="cls-1" cx="259.45" cy="350.2" r="1.64" transform="translate(-239.07 -214.98) rotate(-15)"/><circle class="cls-3" cx="257.86" cy="345.52" r="1.64" transform="translate(-269.87 -169.07) rotate(-22.5)"/><circle class="cls-3" cx="255.67" cy="341.09" r="1.64" transform="translate(-293.56 -120.53) rotate(-30)"/><circle class="cls-3" cx="252.92" cy="336.98" r="1.64" transform="translate(-310.15 -70.45) rotate(-37.5)"/><circle class="cls-1" cx="249.65" cy="333.27" r="1.64" transform="translate(-319.81 -19.91) rotate(-45)"/><circle class="cls-1" cx="245.93" cy="330.01" r="1.64" transform="translate(-322.87 30.17) rotate(-52.5)"/><circle class="cls-3" cx="241.82" cy="327.27" r="1.64" transform="translate(-319.79 79) rotate(-60)"/><circle class="cls-3" cx="237.39" cy="325.09" r="1.64" transform="translate(-311.07 125.94) rotate(-67.5)"/><circle class="cls-1" cx="232.7" cy="323.5" r="1.64" transform="translate(-297.28 170.49) rotate(-75)"/><circle class="cls-3" cx="227.86" cy="322.54" r="1.64" transform="translate(-278.94 212.3) rotate(-82.5)"/><path class="cls-3" d="M217.75,402.73h0a42.47,42.47,0,0,1-25.06-12.24,42.94,42.94,0,0,1,0-60.66,42.49,42.49,0,0,1,24.73-12.2,0.26,0.26,0,0,1,.28.22,0.25,0.25,0,0,1-.22.28,42.4,42.4,0,0,0,.33,84.11A0.25,0.25,0,0,1,217.75,402.73Z" transform="translate(-157.27 -294.05)"/><polygon class="cls-3" points="93.42 66.07 85.7 66.07 85.7 65.77 93.29 65.77 95.19 63.87 95.25 63.87 98.36 63.8 98.36 64.1 95.32 64.17 93.42 66.07"/><rect class="cls-3" x="85.25" y="68.12" width="5.9" height="0.3"/><polygon class="cls-3" points="45.67 66.11 40.72 66.11 39.03 64.42 33.86 64.42 33.86 64.12 39.16 64.12 40.84 65.81 45.67 65.81 45.67 66.11"/><polygon class="cls-3" points="42 69.49 39.14 69.49 39.14 69.19 41.88 69.19 43.66 67.41 45.88 67.41 45.88 67.71 43.78 67.71 42 69.49"/><polygon class="cls-3" points="66.19 98.03 65.89 98.03 65.89 92.45 63.95 90.51 63.95 85.76 64.25 85.76 64.25 90.38 66.19 92.32 66.19 98.03"/><polygon class="cls-3" points="68.66 93.42 68.36 93.42 68.36 88.59 65.53 88.59 65.53 85.97 65.83 85.97 65.83 88.29 68.66 88.29 68.66 93.42"/><polygon class="cls-3" points="65.58 46.04 62.66 43.13 62.66 34.99 62.96 34.99 62.96 43 65.79 45.83 65.58 46.04"/><polygon class="cls-3" points="67.16 46.08 66.86 46.08 66.86 41.57 64.77 41.57 64.77 32.19 65.06 32.19 65.06 41.27 67.16 41.27 67.16 46.08"/><path class="cls-1" d="M223,380.18a6.3,6.3,0,1,1,4.45-10.75h0A6.3,6.3,0,0,1,223,380.18Zm0-12.3a6,6,0,1,0,4.24,1.76h0A6,6,0,0,0,223,367.88Z" transform="translate(-157.27 -294.05)"/><circle class="cls-3" cx="222.96" cy="373.88" r="4.35" transform="translate(-356.34 -26.89) rotate(-45)"/><path class="cls-1" d="M236.83,366.31a6.29,6.29,0,1,1,4.45-1.84A6.28,6.28,0,0,1,236.83,366.31Zm0-12.29a6,6,0,1,0,4.24,1.75A6,6,0,0,0,236.83,354Z" transform="translate(-157.27 -294.05)"/><circle class="cls-3" cx="236.83" cy="360.01" r="4.35" transform="translate(-342.47 -21.15) rotate(-45)"/><path class="cls-1" d="M209.09,366.31a6.29,6.29,0,1,1,4.45-1.84A6.28,6.28,0,0,1,209.09,366.31Zm0-12.29a6,6,0,1,0,4.24,1.75A6,6,0,0,0,209.09,354Z" transform="translate(-157.27 -294.05)"/><circle class="cls-3" cx="209.09" cy="360.01" r="4.35" transform="translate(-350.6 -40.76) rotate(-45)"/><path class="cls-1" d="M223,352.44a6.3,6.3,0,1,1,4.45-10.75h0A6.3,6.3,0,0,1,223,352.44Zm0-12.3a6,6,0,1,0,4.24,1.76h0A6,6,0,0,0,223,340.14Z" transform="translate(-157.27 -294.05)"/><circle class="cls-3" cx="222.96" cy="346.14" r="4.35" transform="translate(-336.73 -35.01) rotate(-45)"/></svg>