<svg preserveAspectRatio="none" id="Layer_1" data-name="Layer 1" xmlns="http://www.w3.org/2000/svg" viewBox="0 0 117.57 149.57"><defs><style>.cls-1{fill:#12aac2;}.cls-2{fill:#40220a;}.cls-3{fill:#693810;}.cls-4{fill:#8d4b16;}.cls-5{fill:#bf681f;}.cls-6{fill:#ff903e;}.cls-7{fill:#ffa665;}.cls-8{fill:#ffb884;}.cls-9{fill:#ffc69d;}.cls-10{fill:#ffd1b1;}.cls-11{fill:#ffdac1;}.cls-12{fill:#ffe1cd;}.cls-13{fill:#ffe7d7;}.cls-14{fill:#ffecdf;}.cls-15{fill:#fff1e7;}.cls-16{fill:#0e8092;}.cls-17{fill:#ff8a29;}</style></defs><title>circle77</title><path class="cls-1" d="M231.23,171.67a7.94,7.94,0,1,0-7.94-7.94A7.94,7.94,0,0,0,231.23,171.67Zm0-12.52a4.58,4.58,0,1,1-4.58,4.58A4.58,4.58,0,0,1,231.23,159.15Z" transform="translate(-172.45 -155.79)"/><path class="cls-2" d="M225.26,180.36h0Z" transform="translate(-172.45 -155.79)"/><path class="cls-2" d="M231.13,180l-0.5,0h0.5Z" transform="translate(-172.45 -155.79)"/><path class="cls-2" d="M227.89,180.14l0.34,0Z" transform="translate(-172.45 -155.79)"/><path class="cls-2" d="M231.13,188.77a45,45,0,0,1,5.12.31l0.65-5.74a49.6,49.6,0,0,0-11.31,0l0.64,5.71A45.12,45.12,0,0,1,231.13,188.77Z" transform="translate(-172.45 -155.79)"/><path class="cls-3" d="M246.51,191.45a45.08,45.08,0,0,1,4.7,2l2.57-5.16a50.25,50.25,0,0,0-10.62-3.88L241.81,190A45.1,45.1,0,0,1,246.51,191.45Z" transform="translate(-172.45 -155.79)"/><path class="cls-4" d="M265.66,192.52l-0.11-.09,0.38,0.33Z" transform="translate(-172.45 -155.79)"/><path class="cls-4" d="M260,199.22a45.06,45.06,0,0,1,3.72,3.53l4.16-4a51,51,0,0,0-8.65-7.28l-3.17,4.77A45.11,45.11,0,0,1,260,199.22Z" transform="translate(-172.45 -155.79)"/><path class="cls-5" d="M277.67,206.78l-0.11-.17,0.21,0.36Z" transform="translate(-172.45 -155.79)"/><path class="cls-5" d="M270.09,211.15a45.13,45.13,0,0,1,2.29,4.59l5.29-2.31a50.69,50.69,0,0,0-5.66-9.78L267.4,207A45,45,0,0,1,270.09,211.15Z" transform="translate(-172.45 -155.79)"/><path class="cls-5" d="M276.06,204.18l0.18,0.29Z" transform="translate(-172.45 -155.79)"/><path class="cls-6" d="M284.56,239.81c0,0.19,0,.38-0.07.58C284.51,240.19,284.54,240,284.56,239.81Z" transform="translate(-172.45 -155.79)"/><path class="cls-6" d="M275.5,241.41a45,45,0,0,1-1.2,5l5.54,1.63a50.39,50.39,0,0,0,2-11.13l-5.73-.36A45,45,0,0,1,275.5,241.41Z" transform="translate(-172.45 -155.79)"/><path class="cls-6" d="M284.81,237.08h0c0,0.15,0,.31,0,0.46C284.78,237.39,284.8,237.24,284.81,237.08Z" transform="translate(-172.45 -155.79)"/><path class="cls-6" d="M284.12,242.93c0-.08,0-0.15,0-0.23,0,0.16-.06.32-0.08,0.47C284.08,243.09,284.1,243,284.12,242.93Z" transform="translate(-172.45 -155.79)"/><path class="cls-7" d="M279.19,257.82l0,0.08Z" transform="translate(-172.45 -155.79)"/><path class="cls-7" d="M270.2,256.08a44.87,44.87,0,0,1-2.83,4.28l4.63,3.42a50.72,50.72,0,0,0,5.66-9.78l-5.26-2.3A44.9,44.9,0,0,1,270.2,256.08Z" transform="translate(-172.45 -155.79)"/><path class="cls-7" d="M277.78,260.46l0.12-.23-0.24.41Z" transform="translate(-172.45 -155.79)"/><path class="cls-8" d="M260.19,268.06a45.16,45.16,0,0,1-4.12,3.05l3.19,4.8a51.07,51.07,0,0,0,8.65-7.27l-4.14-3.94A45.22,45.22,0,0,1,260.19,268.06Z" transform="translate(-172.45 -155.79)"/><path class="cls-8" d="M270.1,270.73h0l-0.29.3Z" transform="translate(-172.45 -155.79)"/><path class="cls-8" d="M268.41,272.41l-0.65.62Z" transform="translate(-172.45 -155.79)"/><path class="cls-8" d="M265.82,274.76l0.48-.43-0.64.55Z" transform="translate(-172.45 -155.79)"/><path class="cls-9" d="M246.7,275.89a45.19,45.19,0,0,1-4.92,1.46l1.36,5.62a50.29,50.29,0,0,0,10.62-3.87L251.21,274A45.24,45.24,0,0,1,246.7,275.89Z" transform="translate(-172.45 -155.79)"/><path class="cls-9" d="M231.34,278.64a45,45,0,0,1-5.12-.31l-0.65,5.74a49.6,49.6,0,0,0,11.31,0l-0.64-5.71A45.12,45.12,0,0,1,231.34,278.64Z" transform="translate(-172.45 -155.79)"/><path class="cls-9" d="M231.34,287.39l0.5,0h-0.5Z" transform="translate(-172.45 -155.79)"/><path class="cls-9" d="M237.21,287h0Z" transform="translate(-172.45 -155.79)"/><path class="cls-9" d="M234.57,287.27l-0.33,0Z" transform="translate(-172.45 -155.79)"/><path class="cls-10" d="M216,276a45.29,45.29,0,0,1-4.71-2l-2.57,5.17A50.34,50.34,0,0,0,219.31,283l1.35-5.58A45.18,45.18,0,0,1,216,276Z" transform="translate(-172.45 -155.79)"/><path class="cls-10" d="M196.81,274.89l0.11,0.09-0.39-.34Z" transform="translate(-172.45 -155.79)"/><path class="cls-10" d="M202.43,268.19a45,45,0,0,1-3.72-3.53l-4.16,4a51.07,51.07,0,0,0,8.65,7.28l3.17-4.77A45.16,45.16,0,0,1,202.43,268.19Z" transform="translate(-172.45 -155.79)"/><path class="cls-11" d="M192.37,256.26a45.09,45.09,0,0,1-2.29-4.59L184.79,254a50.71,50.71,0,0,0,5.66,9.78l4.61-3.4A45.2,45.2,0,0,1,192.37,256.26Z" transform="translate(-172.45 -155.79)"/><path class="cls-11" d="M186.4,263.22l-0.16-.26Z" transform="translate(-172.45 -155.79)"/><path class="cls-11" d="M184.79,260.63l0.1,0.16-0.19-.34Z" transform="translate(-172.45 -155.79)"/><path class="cls-12" d="M187,241.61a45,45,0,0,1-.58-5.1l-5.76.36a50.39,50.39,0,0,0,2,11.13l5.51-1.62A45.06,45.06,0,0,1,187,241.61Z" transform="translate(-172.45 -155.79)"/><path class="cls-12" d="M178.38,243.13c0,0.09,0,.18.06,0.28l-0.09-.5C178.37,243,178.37,243.05,178.38,243.13Z" transform="translate(-172.45 -155.79)"/><path class="cls-12" d="M179,246.07l0-.11Z" transform="translate(-172.45 -155.79)"/><path class="cls-12" d="M178.35,224.48c0,0.08,0,.15,0,0.23l0.08-.46C178.39,224.32,178.36,224.4,178.35,224.48Z" transform="translate(-172.45 -155.79)"/><path class="cls-12" d="M177.91,227.59c0-.19,0-0.37.07-0.55C178,227.22,177.93,227.41,177.91,227.59Z" transform="translate(-172.45 -155.79)"/><path class="cls-12" d="M187,226a45.1,45.1,0,0,1,1.2-5l-5.54-1.63a50.35,50.35,0,0,0-2,11.13l5.73,0.36A45.21,45.21,0,0,1,187,226Z" transform="translate(-172.45 -155.79)"/><path class="cls-12" d="M177.66,230.33h0c0-.14,0-0.28,0-0.42C177.69,230,177.67,230.19,177.66,230.33Z" transform="translate(-172.45 -155.79)"/><path class="cls-13" d="M183.28,209.58l0-.05Z" transform="translate(-172.45 -155.79)"/><path class="cls-13" d="M184.69,207l-0.11.21,0.21-.37Z" transform="translate(-172.45 -155.79)"/><path class="cls-13" d="M192.27,211.33A45,45,0,0,1,195.1,207l-4.63-3.42a50.69,50.69,0,0,0-5.66,9.78l5.26,2.3A45.14,45.14,0,0,1,192.27,211.33Z" transform="translate(-172.45 -155.79)"/><path class="cls-14" d="M194.06,195l0.64-.61Z" transform="translate(-172.45 -155.79)"/><path class="cls-14" d="M192.37,196.68h0l0.28-.3Z" transform="translate(-172.45 -155.79)"/><path class="cls-14" d="M196.65,192.65l-0.47.42,0.62-.54Z" transform="translate(-172.45 -155.79)"/><path class="cls-14" d="M202.28,199.35a45,45,0,0,1,4.12-3.05l-3.19-4.8a51,51,0,0,0-8.65,7.27l4.14,3.94A45.1,45.1,0,0,1,202.28,199.35Z" transform="translate(-172.45 -155.79)"/><path class="cls-15" d="M215.77,191.52a45,45,0,0,1,4.92-1.46l-1.36-5.61a50.32,50.32,0,0,0-10.62,3.87l2.55,5.14A45,45,0,0,1,215.77,191.52Z" transform="translate(-172.45 -155.79)"/><path class="cls-16" d="M231.23,174.92A58.79,58.79,0,1,0,290,233.7,58.79,58.79,0,0,0,231.23,174.92Zm0,116.57A57.79,57.79,0,1,1,289,233.7,57.85,57.85,0,0,1,231.23,291.49Z" transform="translate(-172.45 -155.79)"/><path class="cls-16" d="M231.23,190.88a42.83,42.83,0,1,0,42.83,42.83A42.83,42.83,0,0,0,231.23,190.88Zm0,84.66a41.68,41.68,0,0,1-29.33-12l0.78-.78a40.54,40.54,0,0,0,57.11,0l0.38,0.38,0.18-.18-0.37-.37a40.55,40.55,0,0,0,.12-57.25l0.5-.5-0.18-.18-0.49.49a40.55,40.55,0,0,0-57.37,0l-0.75-.75-0.18.18,0.75,0.75a40.54,40.54,0,0,0,.12,57.22l-0.78.78A41.81,41.81,0,1,1,231.23,275.53Zm-26.36-59.11v-7a2,2,0,0,1,2-2H214a31.59,31.59,0,0,1,34.56,0h7.07a2,2,0,0,1,2,2v7a31.61,31.61,0,0,1,0,35v6.76a2,2,0,0,1-2,2h-6.7a31.57,31.57,0,0,1-6.48,3.35l-1-2.81a31.62,31.62,0,0,1-20.58,0l-0.95,2.75a31.55,31.55,0,0,1-6.32-3.28h-6.72a2,2,0,0,1-2-2v-6.79A31.61,31.61,0,0,1,204.88,216.42Zm-1.71-10a1,1,0,1,1,1,1A1,1,0,0,1,203.17,206.46Zm7.63-6.81,1.3-.75,3.31,5.73-1.3.75Zm6.22-3,1.41-.51,2.26,6.22-1.41.51Zm6.66-1.9,1.48-.26L226.3,201l-1.48.26Zm6.89,5.9V194h1.5v6.62h-1.5Zm5.76,0.39,1.15-6.52,1.48,0.26-1.15,6.52Zm5.6,1.38,2.26-6.22,1.41,0.51-2.26,6.22Zm5.28,2.33,3.31-5.73,1.3,0.75-3.31,5.73Zm10.28,1.75a1,1,0,1,1,1,1A1,1,0,0,1,257.48,206.46ZM262,245.8l0.51-1.41,6.22,2.26-0.51,1.41ZM266,253l-0.75,1.3L259.48,251l0.75-1.3Zm-2.28-12.71,0.26-1.48,6.52,1.15-0.26,1.48Zm0.65-5.73V233h6.62v1.5h-6.62ZM264,228.77l-0.26-1.48,6.52-1.15,0.26,1.48Zm-1.35-5.61-0.51-1.41,6.22-2.26,0.51,1.41Zm-2.31-5.29-0.75-1.3,5.73-3.31,0.75,1.3Zm-0.83,42.89a1,1,0,1,1-1-1A1,1,0,0,1,259.48,260.77Zm-7.81,7-1.3.75-3.31-5.73,1.3-.75Zm-12.88,4.94-1.48.26-1.15-6.52,1.48-.26Zm-12.64-6.29L225,272.93l-1.48-.26,1.15-6.52Zm4.26,0.39h1.5v6.62h-1.5v-6.62Zm15,4-1.41.51-2.26-6.22,1.41-.51ZM220.55,265l-2.26,6.22-1.41-.51,2.26-6.22Zm-5.28-2.33L212,268.43l-1.3-.75,3.31-5.73Zm-10.22-1.93a1,1,0,1,1-1-1A1,1,0,0,1,205.05,260.77Zm-2.81-43-5.73-3.31,0.75-1.3,5.73,3.31Zm-1.82,3.87L199.91,223l-6.22-2.26,0.51-1.41Zm-1.63,5.53-0.26,1.48L192,227.47l0.26-1.48Zm-0.65,5.73v1.5h-6.62v-1.5h6.62Zm0.36,5.76,0.26,1.48-6.52,1.15L192,239.79Zm1.35,5.61,0.51,1.41-6.22,2.26-0.51-1.41Zm2.31,5.29,0.75,1.3-5.73,3.31-0.75-1.3Z" transform="translate(-172.45 -155.79)"/><path class="cls-16" d="M213.15,251.84h0.06l-3.77,3.77h0.35l3.77-3.77H248.9l3.77,3.77H253l-3.77-3.77h0.07V216.08l3.77-3.77V212l-3.77,3.77v-0.07H213.15v0.07L209.38,212v0.35l3.77,3.77v35.76Zm0.67-.25,6.7-6.7a15.36,15.36,0,0,0,21.36-.07l6.77,6.77H213.81Zm32.52-17.84a15.13,15.13,0,0,1-4.44,10.72l-7-7v-0.12l5.93,0.3-4.41-4,4.41-4-5.44.28,6.72-6.72A15.11,15.11,0,0,1,246.33,233.75Zm-4-10.64,6.78-6.78v35.26H249l-6.94-6.94A15.37,15.37,0,0,0,242.29,223.11ZM231.23,238.9l4,4.41-0.28-5.44,6.77,6.77a15.11,15.11,0,0,1-21,.07l6.84-6.84-0.28,5.44Zm-1.14-5a1,1,0,1,1,1,1A1,1,0,0,1,230.1,233.87ZM235,230h-0.11l0.3-5.93-4,4.41-4-4.41,0.3,5.93h-0.12l-7-7a15.14,15.14,0,0,1,21.51.08Zm-8,0-5.44-.28,4.4,4-4.4,4,5.93-.3v0.11l-7,7a15.12,15.12,0,0,1-.24-21.34Zm-13.67-14.1h35.68V216l-6.95,6.95a15.39,15.39,0,0,0-21.86-.08L213.4,216v-0.07Zm0,0.42,6.7,6.7a15.37,15.37,0,0,0,.24,21.69l-6.87,6.87H213.4V216.33Z" transform="translate(-172.45 -155.79)"/><path class="cls-1" d="M284.56,239.81c0.08-.75.15-1.51,0.2-2.27,0-.15,0-0.31,0-0.46,0.07-1.12.12-2.24,0.12-3.38a54,54,0,0,0-.8-9.2L284,224q-0.23-1.28-.53-2.55l0-.13A53.35,53.35,0,0,0,277.77,207l-0.21-.36q-0.64-1.09-1.32-2.14l-0.18-.29a54,54,0,0,0-10.12-11.41l-0.38-.33A53.46,53.46,0,0,0,231.23,180h-0.6c-0.8,0-1.6,0-2.4.07l-0.34,0q-1.31.08-2.61,0.22h0a53.44,53.44,0,0,0-28.46,12.17l-0.62.54c-0.5.43-1,.87-1.47,1.32l-0.64.61q-0.71.68-1.4,1.4l-0.28.3a53.85,53.85,0,0,0-7.58,10.1l-0.21.37q-0.67,1.17-1.27,2.37l0,0.05a53.27,53.27,0,0,0-4.88,14.67l-0.08.46q-0.19,1.16-.34,2.33c0,0.18,0,.37-0.07.55-0.09.77-.15,1.54-0.21,2.31,0,0.14,0,.28,0,0.42-0.07,1.12-.12,2.24-0.12,3.38a53.94,53.94,0,0,0,.8,9.2l0.09,0.5q0.24,1.29.53,2.55l0,0.11a53.31,53.31,0,0,0,5.7,14.39l0.19,0.34q0.65,1.1,1.34,2.17l0.16,0.26a53.93,53.93,0,0,0,10.12,11.42l0.39,0.34a53.46,53.46,0,0,0,34.32,12.41h0.6c0.8,0,1.61,0,2.4-.07l0.33,0q1.32-.08,2.62-0.22h0a53.43,53.43,0,0,0,28.46-12.16l0.64-.55c0.5-.43,1-0.86,1.46-1.3l0.65-.62q0.71-.68,1.39-1.38l0.29-.3a53.84,53.84,0,0,0,7.57-10.08l0.24-.41q0.65-1.15,1.25-2.32l0-.08a53.29,53.29,0,0,0,4.88-14.65c0-.16.06-0.32,0.08-0.47,0.13-.76.24-1.53,0.34-2.31C284.51,240.19,284.54,240,284.56,239.81Zm-25.31,36.1a50.66,50.66,0,0,1-78.59-39c-0.06-1-.11-2.1-0.11-3.16s0-2.13.11-3.19a50.5,50.5,0,0,1,9.81-26.89,50.86,50.86,0,0,1,18.24-15.31,50.49,50.49,0,0,1,16.88-5,49.6,49.6,0,0,1,11.31,0,50.6,50.6,0,0,1,22.37,8.17,50.88,50.88,0,0,1,18.4,21.92,50.44,50.44,0,0,1,4.13,17.11c0.06,1,.11,2.1.11,3.16s0,2.13-.11,3.19A50.52,50.52,0,0,1,272,263.78,51.68,51.68,0,0,1,259.25,275.91Z" transform="translate(-172.45 -155.79)"/><circle class="cls-1" cx="68.39" cy="78.08" r="1"/><circle class="cls-17" cx="58.79" cy="144.99" r="4.58"/><path class="cls-17" d="M274.34,221A42.44,42.44,0,0,1,276,230.9l5.76-.36a50.4,50.4,0,0,0-2-11.14Z" transform="translate(-172.45 -155.79)"/><path class="cls-17" d="M284.08,224.28c0-.09,0-0.18-0.06-0.27l0.09,0.5C284.1,224.43,284.1,224.36,284.08,224.28Z" transform="translate(-172.45 -155.79)"/><path class="cls-17" d="M206.88,258.11h48.72V209.39H206.88v48.72Zm0.5-48.22h47.72v47.72H207.38V209.89Z" transform="translate(-172.45 -155.79)"/><rect class="cls-17" x="261.97" y="248.66" width="1.5" height="6.62" transform="translate(-259.31 197.7) rotate(-60)"/><rect class="cls-17" x="264.66" y="242.92" width="1.5" height="6.62" transform="translate(-229.17 255.67) rotate(-70.01)"/><rect class="cls-17" x="266.32" y="236.79" width="1.5" height="6.62" transform="translate(-188.2 305.64) rotate(-80)"/><rect class="cls-17" x="91.88" y="77.24" width="6.62" height="1.5"/><rect class="cls-17" x="263.78" y="226.71" width="6.62" height="1.5" transform="translate(-207.88 -105.97) rotate(-10)"/><rect class="cls-17" x="262.15" y="220.58" width="6.62" height="1.5" transform="translate(-232.13 -51.66) rotate(-20)"/><rect class="cls-17" x="259.49" y="214.82" width="6.62" height="1.5" transform="matrix(0.87, -0.5, 0.5, 0.87, -245.03, 4.52)"/><circle class="cls-17" cx="49.18" cy="78.08" r="1"/></svg>