<svg preserveAspectRatio="none" id="Layer_1" data-name="Layer 1" xmlns="http://www.w3.org/2000/svg" viewBox="0 0 67.28 66.74"><defs><style>.cls-1{fill:aqua;}</style></defs><title>circle95</title><circle id="_路径_" data-name="&lt;路径&gt;" class="cls-1" cx="33.64" cy="33.1" r="11.87"/><circle id="_路径_2" data-name="&lt;路径&gt;" class="cls-1" cx="33.64" cy="33.1" r="14.61"/><path id="_复合路径_" data-name="&lt;复合路径&gt;" class="cls-1" d="M487.67,92.74c-0.82,0-1.65,0-2.46-.12h0l0.06-.54h0a22.74,22.74,0,0,0,6.94-.34l0.69-.15h0l0.12,0.53h0l-0.71.16h0A22.81,22.81,0,0,1,487.67,92.74Zm-10-2.25,0,0c-0.22-.11-0.44-0.21-0.65-0.33a23,23,0,0,1-5.72-4.22l0,0,0.38-.38,0,0a22.26,22.26,0,0,0,5.58,4.12L477.91,90l0,0Zm21.9-1L499.3,89l0.06,0,0.25,0.42V89.5Zm0.57-.45-0.3-.46h0a22.67,22.67,0,0,0,5.17-4.65l0.42-.53,0,0h0.12l0.39,0.3,0,0-0.45.56A22.82,22.82,0,0,1,500.21,89Zm-33.34-9.52v0c-0.11-.23-0.2-0.43-0.28-0.63h0l0,0A22.79,22.79,0,0,1,464.77,72v0l0.54,0v0A22.51,22.51,0,0,0,467,78.61h0.06l0,0c0.08,0.2.18,0.4,0.28,0.62v0Zm42.67-2.05H509.3l-0.44-.16,0-.06Zm0.06-.68-0.52-.16v0a22.52,22.52,0,0,0,1.07-6.87,21.79,21.79,0,0,0-.19-2.91c0-.25-0.06-0.48-0.1-0.7v0h0l0.5-.08v0c0,0.25.07,0.48,0.1,0.71a22.75,22.75,0,0,1,.19,3,23.16,23.16,0,0,1-1.09,7v0Zm-43.7-12.48,0,0-0.49-.12v0c0.06-.26.13-0.51,0.18-0.7v0h0a23,23,0,0,1,3-6.43l0,0,0.45,0.3v0a22.49,22.49,0,0,0-2.92,6.31c-0.06.23-.13,0.46-0.18,0.68v0Zm41.5-5.38,0,0a22.21,22.21,0,0,0-4.25-5.49l-0.52-.48v0h0l0.34-.38,0,0L503.47,53a23.35,23.35,0,0,1,4.36,5.63v0Zm-37.93-2.22h-0.12l-0.39-.28,0,0Zm4.76-5-0.33-.43,0,0,0.58-.43a23.14,23.14,0,0,1,6.39-3.13h0l0.16,0.52h0a22.63,22.63,0,0,0-6.24,3.06l-0.57.41Zm21.91-2.84h0a22.07,22.07,0,0,0-6.76-1.57h0l-0.68,0h0l0-.54h0c0.22,0,.45,0,0.72,0a22.85,22.85,0,0,1,6.94,1.6l0,0Zm-14.38-.63-0.19-.7h0.07L481.73,48v0.25Z" transform="translate(-454.03 -36.64)"/><path id="_复合路径_2" data-name="&lt;复合路径&gt;" class="cls-1" d="M487.67,103.38a33.65,33.65,0,0,1-10.11-1.55l-0.48-.15,3.23-10.25,0.48,0.15a22.94,22.94,0,0,0,22.12-4.76l0.37-.33,7.15,8-0.37.33A33.58,33.58,0,0,1,487.67,103.38ZM478.34,101A32.69,32.69,0,0,0,509,94.43L503.2,87.9A23.94,23.94,0,0,1,481,92.69Zm-10.63-4.2-0.4-.3c-0.68-.52-1.35-1.07-2-1.64L465,94.56l7.14-8,0.37,0.33c0.44,0.39.89,0.76,1.36,1.12l0.4,0.3Zm-1.35-2.36c0.38,0.33.77,0.64,1.16,1l5.29-7-0.64-.53ZM454.18,72.88l0-.5c-0.07-.87-0.1-1.75-0.1-2.63a33.72,33.72,0,0,1,14.2-27.47l0.41-.29,6.21,8.76-0.41.29a23,23,0,0,0-9.67,18.69c0,0.6,0,1.21.07,1.81l0,0.5Zm14.23-29.49A32.72,32.72,0,0,0,455,69.75c0,0.68,0,1.37.07,2.05l8.72-.67c0-.46,0-0.93,0-1.39a24,24,0,0,1,9.69-19.22Zm52.76,29.41L510.46,72l0-.5c0-.58.07-1.17,0.07-1.76A22.83,22.83,0,0,0,500,50.48l-0.42-.27,5.82-9,0.42,0.27a33.53,33.53,0,0,1,15.45,28.3c0,0.85,0,1.72-.1,2.57Zm-9.65-1.73,8.72,0.66c0-.66.06-1.33,0.06-2a32.52,32.52,0,0,0-14.58-27.19L501,49.91a23.82,23.82,0,0,1,10.56,19.83C511.57,70.19,511.55,70.63,511.53,71.08ZM481.05,47.81l-2.87-10.35,0.48-.13c0.83-.23,1.67-0.43,2.51-0.59l0.49-.1,2.07,10.54-0.49.1c-0.56.11-1.14,0.25-1.7,0.4Zm-1.64-9.65,2.34,8.43,0.8-.19-1.68-8.58C480.38,37.92,479.9,38,479.41,38.16Z" transform="translate(-454.03 -36.64)"/><path id="_复合路径_3" data-name="&lt;复合路径&gt;" class="cls-1" d="M487.67,96c-0.94,0-1.89-.05-2.81-0.14h0l0.07-.61h0a26.13,26.13,0,0,0,7.93-.38l0.79-.17h0l0.14,0.6h0l-0.81.18A26.9,26.9,0,0,1,487.67,96Zm-11.38-2.58,0,0c-0.24-.11-0.48-0.23-0.74-0.37A26.34,26.34,0,0,1,469,88.22l0,0,0.44-.44,0,0a25.7,25.7,0,0,0,6.38,4.72l0.72,0.36h0Zm25-1.23L501,91.73l0.06,0,0.29,0.47Zm0.72-.41-0.34-.52,0,0a25.66,25.66,0,0,0,5.9-5.3c0.19-.23.36-0.44,0.5-0.63l0,0,0.49,0.37,0,0c-0.17.23-.34,0.45-0.51,0.65a26.5,26.5,0,0,1-6,5.43ZM463.89,80.92l0,0c-0.12-.25-0.23-0.5-0.34-0.75v0h0a25.74,25.74,0,0,1-2-7.83v0l0.62-.06v0a25.57,25.57,0,0,0,2,7.65l0,0h0v0l0.31,0.67h0.14Zm48.49-2.34-0.51-.19,0-.07,0.51,0.18Zm0.3-.78-0.59-.18v0a25.58,25.58,0,0,0,1.22-7.84,26.3,26.3,0,0,0-.21-3.32c0-.24-0.07-0.5-0.12-0.8h0v0l0.58-.09v0c0,0.29.09,0.56,0.12,0.82a27.41,27.41,0,0,1,.22,3.4,26.17,26.17,0,0,1-1.25,8v0Zm-51.19-6.32h0V71.4l0.54,0v0.08Zm1.28-7.95h0l-0.56-.14v0c0.06-.26.13-0.53,0.21-0.79a26.06,26.06,0,0,1,3.4-7.38l0,0,0.51,0.34,0,0A25.59,25.59,0,0,0,463,62.73l-0.21.77v0Zm47.75-5.4,0-.1,0.7-.36-0.18.18Zm-0.35-.73,0,0a25.75,25.75,0,0,0-4.86-6.27l-0.59-.55,0,0,0.41-.47,0,0,0.61,0.56a26.65,26.65,0,0,1,5,6.42l0,0Zm-43.46-2.53-0.54-.39h0.15l0.44,0.32Zm5.57-5.66-0.37-.5,0,0,0.67-.48a26.09,26.09,0,0,1,7.3-3.58h0l0.18,0.59h0A25.52,25.52,0,0,0,473,48.7v0.11l0-.07-0.62.45ZM498,46.41v-0.2l0.22-.49,0.07,0ZM497.31,46l0,0a26,26,0,0,0-7.73-1.79l-0.81,0h0l0-.62h0l0.79,0h0a26.12,26.12,0,0,1,7.91,1.83l0,0Zm-16.5-1-0.14-.52,0.08,0L480.89,45Z" transform="translate(-454.03 -36.64)"/><path id="_复合路径_4" data-name="&lt;复合路径&gt;" class="cls-1" d="M487.67,100.57a31,31,0,0,1-6-.57h0l1.87-9.56h0a21.66,21.66,0,0,0,6.53.25,20.82,20.82,0,0,0,8.26-2.78l0.08,0v0.07l4.93,8.33,0,0A30.62,30.62,0,0,1,487.67,100.57ZM470,95h-0.12l5.59-8,0.08,0.06Zm40.6-4.76-7.2-6.42,0.06-.07,7.2,6.41Zm-47.49-1.82,0,0a30.62,30.62,0,0,1-5.46-11.54,31.39,31.39,0,0,1-.82-7.11c0-.79,0-1.6.09-2.39v0l9.71,0.75v0c0,0.53-.07,1.08-0.07,1.64a21.08,21.08,0,0,0,4.27,12.72l0,0,0,0.09,0,0ZM517,79.21l-9.28-3,0,0a21.29,21.29,0,0,0,1-6.45l0-.05,9.69,0.05A30.67,30.67,0,0,1,517,79.16v0Zm-8.5-12.68V66.48a20.81,20.81,0,0,0-2-6.2,21.34,21.34,0,0,0-5.45-6.83l0,0,0,0,6.17-7.48,0,0A30.77,30.77,0,0,1,518.14,65v0ZM469,59.75l-8.49-4.59,0-.08,8.48,4.58Zm4-5.18,0,0-6.72-7,0,0a30.84,30.84,0,0,1,10.79-6.74h0a30.44,30.44,0,0,1,9.36-1.83h0.05l0.37,9.73h0a21,21,0,0,0-13.8,5.87Zm22.5-4.43H495.4l0-.07,3.57-9,0.09,0Z" transform="translate(-454.03 -36.64)"/></svg>