<svg preserveAspectRatio="none" id="Layer_1" data-name="Layer 1" xmlns="http://www.w3.org/2000/svg" viewBox="0 0 67.28 66.74"><defs><style>.cls-1{fill:#0ff}</style></defs><circle id="_路径_" data-name="&lt;路径&gt;" class="cls-1" cx="33.64" cy="33.1" r="11.87"/><circle id="_路径_2" data-name="&lt;路径&gt;" class="cls-1" cx="33.64" cy="33.1" r="14.61"/><path id="_复合路径_" data-name="&lt;复合路径&gt;" class="cls-1" d="M487.67 92.74c-.82 0-1.65 0-2.46-.12l.06-.54a22.74 22.74 0 006.94-.34l.69-.15.12.53-.71.16a22.81 22.81 0 01-4.64.46zm-10-2.25c-.22-.11-.44-.21-.65-.33a23 23 0 01-5.72-4.22l.38-.38a22.26 22.26 0 005.58 4.12l.65.32zm21.9-1l-.27-.49h.06l.25.42v.08zm.57-.45l-.3-.46a22.67 22.67 0 005.17-4.65l.42-.53h.12l.39.3-.45.56a22.82 22.82 0 01-5.28 4.74zm-33.34-9.52c-.11-.23-.2-.43-.28-.63a22.79 22.79 0 01-1.75-6.89h.54a22.51 22.51 0 001.69 6.61h.06c.08.2.18.4.28.62zm42.67-2.05h-.17l-.44-.16v-.06zm.06-.68l-.52-.16a22.52 22.52 0 001.07-6.87 21.79 21.79 0 00-.19-2.91c0-.25-.06-.48-.1-.7l.5-.08c0 .25.07.48.1.71a22.75 22.75 0 01.19 3 23.16 23.16 0 01-1.09 7zm-43.7-12.48l-.49-.12c.06-.26.13-.51.18-.7a23 23 0 013-6.43l.45.3a22.49 22.49 0 00-2.92 6.31c-.06.23-.13.46-.18.68zm41.5-5.38a22.21 22.21 0 00-4.25-5.49l-.52-.48.34-.38.57.42a23.35 23.35 0 014.36 5.63zm-37.93-2.22h-.12l-.39-.28zm4.76-5l-.33-.43.58-.43a23.14 23.14 0 016.39-3.13l.16.52a22.63 22.63 0 00-6.24 3.06l-.57.41zm21.91-2.84a22.07 22.07 0 00-6.76-1.57h-.68v-.54h.72a22.85 22.85 0 016.94 1.6zm-14.38-.63l-.19-.7h.07l.16.46v.25z" transform="translate(-454.03 -36.64)"/><path id="_复合路径_2" data-name="&lt;复合路径&gt;" class="cls-1" d="M487.67 103.38a33.65 33.65 0 01-10.11-1.55l-.48-.15 3.23-10.25.48.15a22.94 22.94 0 0022.12-4.76l.37-.33 7.15 8-.37.33a33.58 33.58 0 01-22.39 8.56zm-9.33-2.38A32.69 32.69 0 00509 94.43l-5.8-6.53a23.94 23.94 0 01-22.2 4.79zm-10.63-4.2l-.4-.3c-.68-.52-1.35-1.07-2-1.64l-.31-.3 7.14-8 .37.33c.44.39.89.76 1.36 1.12l.4.3zm-1.35-2.36c.38.33.77.64 1.16 1l5.29-7-.64-.53zm-12.18-21.56v-.5c-.07-.87-.1-1.75-.1-2.63a33.72 33.72 0 0114.2-27.47l.41-.29 6.21 8.76-.41.29a23 23 0 00-9.67 18.69c0 .6 0 1.21.07 1.81v.5zm14.23-29.49A32.72 32.72 0 00455 69.75c0 .68 0 1.37.07 2.05l8.72-.67v-1.39a24 24 0 019.69-19.22zm52.76 29.41l-10.71-.8v-.5c0-.58.07-1.17.07-1.76A22.83 22.83 0 00500 50.48l-.42-.27 5.82-9 .42.27a33.53 33.53 0 0115.45 28.3c0 .85 0 1.72-.1 2.57zm-9.65-1.73l8.72.66c0-.66.06-1.33.06-2a32.52 32.52 0 00-14.58-27.19L501 49.91a23.82 23.82 0 0110.56 19.83c.01.45-.01.89-.03 1.34zm-30.47-23.26l-2.87-10.35.48-.13c.83-.23 1.67-.43 2.51-.59l.49-.1 2.07 10.54-.49.1c-.56.11-1.14.25-1.7.4zm-1.64-9.65l2.34 8.43.8-.19-1.68-8.58c-.49.1-.97.18-1.46.34z" transform="translate(-454.03 -36.64)"/><path id="_复合路径_3" data-name="&lt;复合路径&gt;" class="cls-1" d="M487.67 96c-.94 0-1.89-.05-2.81-.14l.07-.61a26.13 26.13 0 007.93-.38l.79-.17.14.6-.81.18a26.9 26.9 0 01-5.31.52zm-11.38-2.58c-.24-.11-.48-.23-.74-.37a26.34 26.34 0 01-6.55-4.83l.44-.44a25.7 25.7 0 006.38 4.72l.72.36zm25-1.23l-.29-.46h.06l.29.47zm.72-.41l-.34-.52a25.66 25.66 0 005.9-5.3c.19-.23.36-.44.5-.63l.49.37c-.17.23-.34.45-.51.65a26.5 26.5 0 01-6 5.43zm-38.12-10.86c-.12-.25-.23-.5-.34-.75a25.74 25.74 0 01-2-7.83l.62-.06a25.57 25.57 0 002 7.65l.31.67h.14zm48.49-2.34l-.51-.19v-.07l.51.18zm.3-.78l-.59-.18a25.58 25.58 0 001.22-7.84 26.3 26.3 0 00-.21-3.32c0-.24-.07-.5-.12-.8l.58-.09c0 .29.09.56.12.82a27.41 27.41 0 01.22 3.4 26.17 26.17 0 01-1.25 8zm-51.19-6.32v-.08h.54v.08zm1.28-7.95l-.56-.14c.06-.26.13-.53.21-.79a26.06 26.06 0 013.4-7.38l.51.34a25.59 25.59 0 00-3.33 7.17l-.21.77zm47.75-5.4v-.1l.7-.36-.18.18zm-.35-.73a25.75 25.75 0 00-4.86-6.27l-.59-.55.41-.47.61.56a26.65 26.65 0 015 6.42zm-43.46-2.53l-.54-.39h.15l.44.32zm5.57-5.66l-.37-.5.67-.48a26.09 26.09 0 017.3-3.58l.18.59A25.52 25.52 0 00473 48.7v.11-.07l-.62.45zm25.72-2.8v-.2l.22-.49h.07zm-.69-.41a26 26 0 00-7.73-1.79h-.81v-.62h.79a26.12 26.12 0 017.91 1.83zm-16.5-1l-.14-.52h.08l.14.52z" transform="translate(-454.03 -36.64)"/><path id="_复合路径_4" data-name="&lt;复合路径&gt;" class="cls-1" d="M487.67 100.57a31 31 0 01-6-.57l1.87-9.56a21.66 21.66 0 006.53.25 20.82 20.82 0 008.26-2.78h.08v.07l4.93 8.33a30.62 30.62 0 01-15.67 4.26zM470 95h-.12l5.59-8 .08.06zm40.6-4.76l-7.2-6.42.06-.07 7.2 6.41zm-47.49-1.82a30.62 30.62 0 01-5.46-11.54 31.39 31.39 0 01-.82-7.11c0-.79 0-1.6.09-2.39l9.71.75c0 .53-.07 1.08-.07 1.64a21.08 21.08 0 004.27 12.72v.09zM517 79.21l-9.28-3a21.29 21.29 0 001-6.45v-.05l9.69.05a30.67 30.67 0 01-1.41 9.4zm-8.5-12.68v-.05a20.81 20.81 0 00-2-6.2 21.34 21.34 0 00-5.45-6.83l6.17-7.48A30.77 30.77 0 01518.14 65zM469 59.75l-8.49-4.59v-.08l8.48 4.58zm4-5.18l-6.72-7a30.84 30.84 0 0110.79-6.74 30.44 30.44 0 019.36-1.83h.05l.37 9.73a21 21 0 00-13.8 5.87zm22.5-4.43h-.1v-.07l3.57-9h.09z" transform="translate(-454.03 -36.64)"/></svg>