<svg preserveAspectRatio="none" id="Layer_1" data-name="Layer 1" xmlns="http://www.w3.org/2000/svg" viewBox="0 0 1220.68 1210.37"><defs><style>.cls-1{fill:none;}.cls-2{fill:#20ffff;}.cls-3{opacity:0.5;}</style></defs><title>circle90</title><path class="cls-1" d="M4551.85,4218.63a533.41,533.41,0,0,0,30.53-100.77,541.57,541.57,0,0,0,0-209.88,535.69,535.69,0,0,0-137.43-265.13h0a542.31,542.31,0,0,0-99.66-82.43l-0.34-.22q-2.85-1.83-5.73-3.63l-0.85-.53q-2.66-1.66-5.35-3.28l-1.09-.67q-2.87-1.73-5.76-3.42l-3.81-2.2-2.48-1.42q-2.24-1.27-4.49-2.51l-1.41-.79q-2.47-1.36-5-2.69l-0.84-.45q-2.73-1.46-5.48-2.89l-0.05,0q-20.46-10.64-41.79-19.48a533.19,533.19,0,0,0-66.24-22.49l-2.49-.67-0.57-.15q-3.44-.9-6.9-1.75h0q-3.68-.91-7.37-1.77h0q-3.69-.85-7.38-1.66h-0.06q-3.69-.8-7.39-1.55l-0.08,0q-10.93-2.21-21.95-4l-4.84-.74-1.62-.25q-9.62-1.41-19.29-2.48l-0.5-.05q-3-.32-5.91-0.61l-3.05-.28-3.52-.32a551.61,551.61,0,0,0-99,.55l-2.39.24q-23.42,2.38-46.55,6.79l-3.68.71-1.24.25q-3.15.63-6.29,1.3l-0.54.12q-3.45.74-6.89,1.53l-0.42.1q-3.5.8-7,1.65l-0.36.09q-3.52.86-7,1.77l-0.3.08q-3.54.92-7.06,1.88l-0.26.07q-3.57,1-7.13,2-2.83.82-5.65,1.67l-0.79.23q-22,6.66-43.33,15.19l-0.21.08-2.8,1.14c-1.5.61-3,1.22-4.5,1.85l-1,.43q-10.23,4.31-20.29,9c-1.8.83-3.58,1.69-5.36,2.55l-2.05,1c-6,2.93-11.9,6-17.79,9.11q-2.78,1.49-5.54,3l-3.19,1.79-1.51.84q-3.36,1.9-6.7,3.84l-4.77,2.82q-3.21,1.91-6.39,3.87l-0.37.23q-2.88,1.77-5.73,3.58a540.93,540.93,0,0,0-47.69,34l-0.83.66q-1.87,1.5-3.73,3l-2.42,2-2.5,2.08q-2.2,1.84-4.38,3.7l-0.68.58a543.08,543.08,0,0,0-91.54,101.31l-0.42.61q-1.81,2.6-3.59,5.23l-0.8,1.18q-1.63,2.42-3.22,4.85l-0.91,1.38q-1.94,3-3.83,6a536.56,536.56,0,0,0-31.5,57l-0.54,1.14q-1.1,2.32-2.17,4.66l-0.88,1.92q-1,2.12-1.92,4.25l-1,2.32c-0.6,1.36-1.19,2.72-1.78,4.08l-0.92,2.17c-0.6,1.42-1.2,2.83-1.79,4.26s-1.16,2.83-1.73,4.24c-0.26.64-.53,1.28-0.78,1.92-0.35.89-.7,1.78-1,2.67-0.55,1.39-1.09,2.77-1.63,4.16-0.31.81-.61,1.61-0.92,2.42q-0.84,2.23-1.67,4.47l-0.83,2.27q-0.85,2.35-1.69,4.72l-0.73,2.08q-0.88,2.53-1.74,5.08l-0.6,1.77q-1,2.93-1.92,5.88l-0.32,1q-2.21,7-4.23,14c-0.2.71-.4,1.41-0.6,2.12q-0.66,2.33-1.31,4.67c-0.26,1-.52,1.93-0.78,2.9q-0.52,1.94-1,3.88-0.43,1.67-.86,3.35t-0.83,3.33q-0.47,1.89-.92,3.79c-0.21.88-.41,1.76-0.62,2.65-0.34,1.47-.69,2.95-1,4.42l-0.19.87q-1.35,6.06-2.55,12.14-0.62,3.16-1.21,6.32l0,0.19q-0.53,2.85-1,5.71l-0.21,1.18q-0.45,2.65-.88,5.3l-0.26,1.66q-0.39,2.48-.76,5c-0.11.78-.23,1.55-0.34,2.33-0.21,1.44-.41,2.88-0.61,4.32q-0.35,2.6-.67,5.2c-0.06.48-.13,1-0.19,1.45q-0.46,3.73-.86,7.46-0.39,3.51-.73,7c-0.09.93-.17,1.86-0.25,2.79q-0.17,1.9-.34,3.81-0.18,2.14-.34,4.29-0.09,1.22-.18,2.43-0.17,2.33-.31,4.66c0,0.77-.09,1.55-0.14,2.33q-0.13,2.26-.25,4.51c-0.06,1.14-.1,2.28-0.15,3.41s-0.1,2.23-.14,3.34a549,549,0,0,0,3.32,83.44q1.31,11.15,3.06,22.24,1.56,9.79,3.49,19.52,2.9,14.68,6.64,29.17c0.3,1.15.59,2.3,0.89,3.45,0.18,0.69.37,1.38,0.56,2.07,0.47,1.76,1,3.53,1.45,5.29l0.39,1.39q0.84,3,1.72,6l0.3,1q0.95,3.18,1.93,6.36l0.22,0.71q1,3.33,2.12,6.65l0.15,0.47q1.14,3.5,2.34,7l0,0.15q1.13,3.3,2.31,6.59,4.43,12.38,9.47,24.53,3,7.34,6.3,14.57c0.58,1.28,1.15,2.56,1.73,3.84l0,0.1q3.18,6.89,6.54,13.69,6.5,13.11,13.68,25.87,8.32,14.73,17.55,28.93l1.34,2q1,1.56,2.06,3.12,14.7,22,31.45,42.49,2.41,3,4.87,5.87l0.07,0.08q2.33,2.76,4.69,5.49l0.72,0.82c9.87,11.33,20.23,22.23,31,32.71,7.12,7,14.53,13.68,22,20.29l0.73,0.64,5.56,4.72c1,0.79,1.9,1.61,2.84,2.41l0.27,0.23c0.9,0.77,1.81,1.53,2.74,2.26l6,4.79,1.17,0.94,2.73,2.16,2.11,1.62q14.93,11.52,30.61,22l2.65,1.75,2.68,1.76q2.53,1.64,5.07,3.26l0,0q8.31,5.27,16.81,10.24,22.43,13.06,46,24l0.47,0.22c1.61,0.74,3.23,1.47,4.84,2.19q6.79,3,13.67,5.89,16.82,7,34.1,12.78c1.32,0.44,2.64.89,4,1.32a533.49,533.49,0,0,0,62.7,16.42,541.57,541.57,0,0,0,209.88,0,533.41,533.41,0,0,0,100.77-30.53A539.06,539.06,0,0,0,4551.85,4218.63Z" transform="translate(-3439.66 -3407.73)"/><path class="cls-2" d="M4607,4065.59q2.48-26.24,2.5-52.67a559.16,559.16,0,0,0-10.59-108.22A551.74,551.74,0,0,0,4493,3672.92c0.51-1.23,1-2.45,1.54-3.68,2-4.88,3.9-9.75,5.8-14.71s3.76-10,5.52-15,3.47-10.06,5.15-15.16a602.53,602.53,0,0,0-79-77q4.16-30.06,5.66-61.12-23.61-17.18-48.71-32.21-7.43,1.37-14.71,2.83t-14.54,3.23c-4.78,1.08-9.57,2.3-14.31,3.55s-9.4,2.46-14.08,3.85q-8.64,2.48-17.11,5.24a594.63,594.63,0,0,0-87-33.71c-109.74-33-228.91-33.45-339-1.58-1.93,7.17-3.76,14.25-5.45,21.37q-6.51,2-13,4.17a580.17,580.17,0,0,0-61.12,24.59c-10,4.62-19.73,9.66-29.43,14.83-2.42,1.31-4.8,2.67-7.2,4s-4.82,2.64-7.17,4.06l-7.09,4.19-3.55,2.1-3.49,2.18a583.19,583.19,0,0,0-186,183.79,571.38,571.38,0,0,0-35.67,65.14q-4.84,1.28-9.72,2.63c-18.26,5.24-36.78,11.37-55,18.61a630.48,630.48,0,0,0-24.78,81.63c3.73,8.49,7.36,16.77,11.4,24.93,2,4.08,3.92,8.09,6,12.09s4.18,7.94,6.29,11.84A597.81,597.81,0,0,0,3603,4405.82q10.94-1.87,21.68-4.05,12.62,13.93,26.09,27c7.84,7.7,16,15.07,24.25,22.33l6.28,5.33c2.11,1.76,4.17,3.58,6.32,5.29l6.42,5.17,3.21,2.58,3.27,2.51a590.54,590.54,0,0,0,54.3,37.33,578.21,578.21,0,0,0,119.53,54.93l8-24.47a550.34,550.34,0,0,0,64.57,16.91,558.46,558.46,0,0,0,216.44,0,551.44,551.44,0,0,0,220.35-97.26l26.48,35.93a597.14,597.14,0,0,0,241.27-425.6Zm-346.17,444a533.41,533.41,0,0,1-100.77,30.53,541.57,541.57,0,0,1-209.88,0,533.49,533.49,0,0,1-62.7-16.42c-1.33-.43-2.65-0.88-4-1.32q-17.26-5.81-34.1-12.78-6.88-2.85-13.67-5.89c-1.62-.73-3.24-1.45-4.84-2.19l-0.47-.22q-23.56-10.88-46-24-8.5-5-16.81-10.24l0,0q-2.54-1.61-5.07-3.26l-2.68-1.76-2.65-1.75q-15.67-10.48-30.61-22l-2.11-1.62-2.73-2.16-1.17-.94-6-4.79c-0.93-.73-1.84-1.5-2.74-2.26l-0.27-.23c-0.95-.81-1.89-1.62-2.84-2.41l-5.56-4.72-0.73-.64c-7.48-6.6-14.89-13.29-22-20.29-10.75-10.49-21.12-21.39-31-32.71l-0.72-.82q-2.37-2.73-4.69-5.49l-0.07-.08q-2.46-2.92-4.87-5.87-16.73-20.48-31.45-42.49-1-1.55-2.06-3.12l-1.34-2q-9.23-14.19-17.55-28.93-7.18-12.76-13.68-25.87-3.37-6.8-6.54-13.69l0-.1c-0.59-1.27-1.16-2.56-1.73-3.84q-3.26-7.24-6.3-14.57-5-12.15-9.47-24.53-1.17-3.29-2.31-6.59l0-.15q-1.19-3.48-2.34-7l-0.15-.47q-1.08-3.32-2.12-6.65l-0.22-.71q-1-3.17-1.93-6.36l-0.3-1q-0.88-3-1.72-6l-0.39-1.39c-0.49-1.76-1-3.52-1.45-5.29-0.19-.69-0.38-1.38-0.56-2.07-0.3-1.15-.6-2.3-0.89-3.45q-3.72-14.49-6.64-29.17-1.93-9.73-3.49-19.52-1.75-11.09-3.06-22.24a549,549,0,0,1-3.32-83.44c0-1.11.09-2.23,0.14-3.34s0.1-2.28.15-3.41q0.11-2.26.25-4.51c0-.78.09-1.55,0.14-2.33q0.15-2.33.31-4.66,0.09-1.22.18-2.43,0.16-2.14.34-4.29,0.16-1.9.34-3.81c0.08-.93.17-1.86,0.25-2.79q0.34-3.52.73-7,0.4-3.73.86-7.46c0.06-.48.13-1,0.19-1.45q0.33-2.6.67-5.2c0.2-1.44.4-2.88,0.61-4.32,0.11-.78.22-1.55,0.34-2.33q0.37-2.48.76-5l0.26-1.66q0.43-2.65.88-5.3l0.21-1.18q0.5-2.86,1-5.71l0-.19q0.59-3.16,1.21-6.32,1.2-6.09,2.55-12.14l0.19-.87c0.33-1.48.68-3,1-4.42,0.21-.88.41-1.77,0.62-2.65q0.45-1.9.92-3.79,0.41-1.67.83-3.33t0.86-3.35q0.5-1.94,1-3.88c0.26-1,.52-1.93.78-2.9q0.64-2.34,1.31-4.67c0.2-.71.4-1.42,0.6-2.12q2-7,4.23-14l0.32-1q0.94-2.94,1.92-5.88l0.6-1.77q0.86-2.54,1.74-5.08l0.73-2.08q0.83-2.36,1.69-4.72l0.83-2.27q0.83-2.24,1.67-4.47c0.31-.81.61-1.62,0.92-2.42,0.53-1.39,1.08-2.78,1.63-4.16,0.35-.89.69-1.78,1-2.67,0.26-.64.52-1.28,0.78-1.92,0.57-1.42,1.14-2.83,1.73-4.24s1.19-2.84,1.79-4.26l0.92-2.17c0.59-1.36,1.18-2.72,1.78-4.08l1-2.32q0.95-2.13,1.92-4.25l0.88-1.92q1.08-2.33,2.17-4.66l0.54-1.14a536.56,536.56,0,0,1,31.5-57q1.9-3,3.83-6l0.91-1.38q1.6-2.43,3.22-4.85l0.8-1.18q1.78-2.63,3.59-5.23l0.42-.61a543.08,543.08,0,0,1,91.54-101.31l0.68-.58q2.18-1.86,4.38-3.7l2.5-2.08,2.42-2q1.86-1.52,3.73-3l0.83-.66a540.93,540.93,0,0,1,47.69-34q2.85-1.81,5.73-3.58l0.37-.23q3.18-2,6.39-3.87l4.77-2.82q3.34-1.95,6.7-3.84l1.51-.84,3.19-1.79q2.76-1.52,5.54-3c5.89-3.12,11.8-6.18,17.79-9.11l2.05-1c1.78-.86,3.57-1.72,5.36-2.55q10.05-4.71,20.29-9l1-.43c1.5-.63,3-1.24,4.5-1.85l2.8-1.14,0.21-.08q21.33-8.53,43.33-15.19l0.79-.23q2.82-.85,5.65-1.67,3.56-1,7.13-2l0.26-.07q3.53-1,7.06-1.88l0.3-.08q3.51-.91,7-1.77l0.36-.09q3.49-.85,7-1.65l0.42-.1q3.44-.79,6.89-1.53l0.54-.12q3.14-.67,6.29-1.3l1.24-.25,3.68-.71q23.1-4.41,46.55-6.79l2.39-.24a551.61,551.61,0,0,1,99-.55l3.52,0.32,3.05,0.28q3,0.29,5.91.61l0.5,0.05q9.67,1.06,19.29,2.48l1.62,0.25,4.84,0.74q11,1.76,21.95,4l0.08,0q3.7,0.75,7.39,1.55h0.06q3.7,0.8,7.38,1.66h0q3.69,0.86,7.37,1.77h0q3.46,0.85,6.9,1.75l0.57,0.15,2.49,0.67a533.19,533.19,0,0,1,66.24,22.49q21.3,8.82,41.79,19.48l0.05,0q2.75,1.43,5.48,2.89l0.84,0.45q2.48,1.33,5,2.69l1.41,0.79q2.25,1.25,4.49,2.51l2.48,1.42,3.81,2.2q2.89,1.69,5.76,3.42l1.09,0.67q2.68,1.63,5.35,3.28l0.85,0.53q2.88,1.8,5.73,3.63l0.34,0.22a542.31,542.31,0,0,1,99.66,82.43h0A537.76,537.76,0,0,1,4260.86,4509.62Z" transform="translate(-3439.66 -3407.73)"/><rect class="cls-2" x="3717.52" y="3982.33" width="8.53" height="32.96" transform="translate(-3867.96 4143.39) rotate(-87.62)"/><rect class="cls-2" x="3719.05" y="3961.4" width="8.53" height="32.96" transform="translate(-4059.21 3860.46) rotate(-84.04)"/><rect class="cls-2" x="3721.83" y="3940.61" width="8.53" height="32.96" transform="translate(-4234.46 3566.61) rotate(-80.44)"/><rect class="cls-2" x="3725.97" y="3920.05" width="8.53" height="32.96" transform="translate(-4392.83 3263.14) rotate(-76.82)"/><rect class="cls-2" x="3721.3" y="3886.15" width="8.53" height="54.15" transform="translate(-4537.5 2940.21) rotate(-73.19)"/><rect class="cls-2" x="3738.12" y="3879.92" width="8.53" height="32.96" transform="translate(-4655.38 2634.51) rotate(-69.56)"/><rect class="cls-2" x="3746" y="3860.49" width="8.53" height="32.96" transform="translate(-4758.69 2312.5) rotate(-65.93)"/><rect class="cls-2" x="3755.22" y="3841.65" width="8.53" height="32.96" transform="translate(-4843.24 1987.16) rotate(-62.32)"/><rect class="cls-2" x="3765.54" y="3823.39" width="8.53" height="32.96" transform="translate(-4909.17 1659.16) rotate(-58.71)"/><rect class="cls-2" x="3768.24" y="3789.11" width="8.53" height="54.14" transform="translate(-4955.26 1320.08) rotate(-55.11)"/><rect class="cls-2" x="3789.53" y="3788.99" width="8.53" height="32.96" transform="translate(-4985.53 999.77) rotate(-51.52)"/><rect class="cls-2" x="3803.09" y="3772.98" width="8.53" height="32.96" transform="translate(-4996.37 669.56) rotate(-47.94)"/><rect class="cls-2" x="3817.57" y="3757.8" width="8.53" height="32.96" transform="translate(-4989.13 339.95) rotate(-44.36)"/><rect class="cls-2" x="3833.08" y="3743.66" width="8.53" height="32.96" transform="translate(-4963.98 11.08) rotate(-40.78)"/><rect class="cls-2" x="3842.98" y="3711.43" width="8.53" height="54.14" transform="translate(-4917.06 -321.81) rotate(-37.19)"/><rect class="cls-2" x="3866.44" y="3718.25" width="8.53" height="32.96" transform="translate(-4859.66 -642.01) rotate(-33.6)"/><rect class="cls-2" x="3884.31" y="3707.26" width="8.53" height="32.96" transform="translate(-4780.52 -964.73) rotate(-30)"/><rect class="cls-2" x="3902.8" y="3697.36" width="8.53" height="32.96" transform="translate(-4683.07 -1284.61) rotate(-26.38)"/><rect class="cls-2" x="3921.85" y="3688.57" width="8.53" height="32.96" transform="translate(-4567.53 -1599.8) rotate(-22.77)"/><rect class="cls-2" x="3937.98" y="3660.52" width="8.53" height="54.14" transform="translate(-4430.73 -1911.49) rotate(-19.14)"/><rect class="cls-2" x="3961.48" y="3674.9" width="8.53" height="32.96" transform="translate(-4282.16 -2213.21) rotate(-15.51)"/><rect class="cls-2" x="3981.84" y="3669.9" width="8.53" height="32.96" transform="matrix(0.98, -0.21, 0.21, 0.98, -4113.12, -2508.27)"/><rect class="cls-2" x="4002.49" y="3666.21" width="8.53" height="32.96" transform="translate(-3927.43 -2793.53) rotate(-8.26)"/><rect class="cls-2" x="4023.35" y="3663.91" width="8.53" height="32.96" transform="translate(-3726.05 -3067.45) rotate(-4.67)"/><rect class="cls-2" x="4044.1" y="3641.67" width="8.53" height="54.14" transform="translate(-3510.1 -3328.48) rotate(-1.11)"/><rect class="cls-2" x="4053.08" y="3675.27" width="32.96" height="8.53" transform="translate(-3218.81 4181.75) rotate(-87.57)"/><rect class="cls-2" x="4074" y="3676.78" width="32.96" height="8.53" transform="translate(-3438.18 3956) rotate(-83.99)"/><rect class="cls-2" x="4094.78" y="3679.69" width="32.96" height="8.53" transform="translate(-3646.73 3715.12) rotate(-80.39)"/><rect class="cls-2" x="4115.33" y="3683.85" width="32.96" height="8.53" transform="translate(-3843.57 3458.63) rotate(-76.77)"/><rect class="cls-2" x="4128.08" y="3679.11" width="54.14" height="8.53" transform="translate(-4014.6 3184.04) rotate(-73.14)"/><rect class="cls-2" x="4155.47" y="3695.96" width="32.96" height="8.53" transform="translate(-4194.38 2904.91) rotate(-69.51)"/><rect class="cls-2" x="4174.85" y="3703.97" width="32.96" height="8.53" transform="translate(-4345.47 2610.77) rotate(-65.88)"/><rect class="cls-2" x="4193.72" y="3713.12" width="32.96" height="8.53" transform="translate(-4479.24 2305.77) rotate(-62.26)"/><rect class="cls-2" x="4212.01" y="3723.4" width="32.96" height="8.53" transform="translate(-4594.3 1992.5) rotate(-58.66)"/><rect class="cls-2" x="4225.01" y="3726.25" width="54.14" height="8.53" transform="translate(-4680.81 1672.37) rotate(-55.06)"/><rect class="cls-2" x="4246.34" y="3747.48" width="32.96" height="8.53" transform="translate(-4767.14 1341.93) rotate(-51.47)"/><rect class="cls-2" x="4262.39" y="3761.01" width="32.96" height="8.53" transform="translate(-4823.34 1006.81) rotate(-47.89)"/><rect class="cls-2" x="4277.47" y="3775.59" width="32.96" height="8.53" transform="translate(-4858.75 666.3) rotate(-44.3)"/><rect class="cls-2" x="4291.63" y="3791.07" width="32.96" height="8.53" transform="translate(-4872.64 322.29) rotate(-40.73)"/><rect class="cls-2" x="4302.71" y="3800.96" width="54.14" height="8.53" transform="translate(-4858.91 -21.41) rotate(-37.14)"/><rect class="cls-2" x="4316.98" y="3824.48" width="32.96" height="8.53" transform="translate(-4833.69 -375.29) rotate(-33.55)"/><rect class="cls-2" x="4327.98" y="3842.34" width="32.96" height="8.53" transform="translate(-4779.91 -725.06) rotate(-29.95)"/><rect class="cls-2" x="4337.9" y="3860.82" width="32.96" height="8.53" transform="translate(-4702.33 -1075.05) rotate(-26.33)"/><rect class="cls-2" x="4346.65" y="3879.89" width="32.96" height="8.53" transform="translate(-4601.2 -1421.36) rotate(-22.72)"/><rect class="cls-2" x="4353.48" y="3896.04" width="54.14" height="8.53" transform="translate(-4474.23 -1760.88) rotate(-19.09)"/><rect class="cls-2" x="4360.29" y="3919.53" width="32.96" height="8.53" transform="translate(-4327.12 -2099.31) rotate(-15.46)"/><rect class="cls-2" x="4365.3" y="3939.89" width="32.96" height="8.53" transform="translate(-4155.19 -2425.64) rotate(-11.83)"/><rect class="cls-2" x="4368.92" y="3960.55" width="32.96" height="8.53" transform="translate(-3961.31 -2740.25) rotate(-8.22)"/><rect class="cls-2" x="4371.22" y="3981.41" width="32.96" height="8.53" transform="translate(-3746.31 -3041.53) rotate(-4.62)"/><rect class="cls-2" x="4372.26" y="4002.17" width="54.14" height="8.53" transform="translate(-3513.28 -3325.37) rotate(-1.06)"/><rect class="cls-2" x="4384.27" y="4011.13" width="8.53" height="32.96" transform="matrix(0.04, -1, 1, 0.04, -3264.95, 4829.94)"/><rect class="cls-2" x="4382.73" y="4032.06" width="8.53" height="32.96" transform="translate(-3541.4 4576.25) rotate(-83.94)"/><rect class="cls-2" x="4379.8" y="4052.83" width="8.53" height="32.96" transform="translate(-3802.97 4300.5) rotate(-80.34)"/><rect class="cls-2" x="4375.62" y="4073.39" width="8.53" height="32.96" transform="translate(-4046.37 4005.43) rotate(-76.72)"/><rect class="cls-2" x="4380.35" y="4086.14" width="8.53" height="54.14" transform="translate(-4265.78 3704.08) rotate(-73.09)"/><rect class="cls-2" x="4363.48" y="4113.51" width="8.53" height="32.96" transform="translate(-4471.75 3363.43) rotate(-69.46)"/><rect class="cls-2" x="4355.46" y="4132.89" width="8.53" height="32.96" transform="translate(-4650.42 3020.69) rotate(-65.83)"/><rect class="cls-2" x="4346.29" y="4151.75" width="8.53" height="32.96" transform="translate(-4804.8 2666.38) rotate(-62.21)"/><rect class="cls-2" x="4335.99" y="4170.02" width="8.53" height="32.96" transform="translate(-4933.88 2303.08) rotate(-58.61)"/><rect class="cls-2" x="4333.12" y="4183.02" width="8.53" height="54.14" transform="translate(-5038.58 1941.71) rotate(-55.01)"/><rect class="cls-2" x="4311.88" y="4204.34" width="8.53" height="32.96" transform="matrix(0.62, -0.78, 0.78, 0.62, -5114.62, 1555.49)"/><rect class="cls-2" x="4298.34" y="4220.37" width="8.53" height="32.96" transform="translate(-5165.66 1174.5) rotate(-47.84)"/><rect class="cls-2" x="4283.74" y="4235.44" width="8.53" height="32.96" transform="translate(-5190.12 791.63) rotate(-44.26)"/><rect class="cls-2" x="4268.25" y="4249.59" width="8.53" height="32.96" transform="translate(-5188.02 407.96) rotate(-40.68)"/><rect class="cls-2" x="4258.34" y="4260.66" width="8.53" height="54.14" transform="translate(-5163.1 30.42) rotate(-37.09)"/><rect class="cls-2" x="4234.82" y="4274.91" width="8.53" height="32.96" transform="translate(-5104.06 -355.19) rotate(-33.5)"/><rect class="cls-2" x="4216.95" y="4285.9" width="8.53" height="32.96" transform="translate(-5022.43 -731.07) rotate(-29.9)"/><rect class="cls-2" x="4198.46" y="4295.81" width="8.53" height="32.96" transform="translate(-4914.74 -1100.75) rotate(-26.28)"/><rect class="cls-2" x="4179.39" y="4304.52" width="8.53" height="32.96" transform="translate(-4781.66 -1461.85) rotate(-22.67)"/><rect class="cls-2" x="4163.22" y="4311.35" width="8.53" height="54.14" transform="translate(-4626.8 -1811.18) rotate(-19.04)"/><rect class="cls-2" x="4139.73" y="4318.14" width="8.53" height="32.96" transform="translate(-4442.34 -2151.01) rotate(-15.41)"/><rect class="cls-2" x="4119.36" y="4323.13" width="8.53" height="32.96" transform="translate(-4238.57 -2474.76) rotate(-11.78)"/><rect class="cls-2" x="4098.7" y="4326.73" width="8.53" height="32.96" transform="translate(-4015.02 -2780.85) rotate(-8.17)"/><rect class="cls-2" x="4077.85" y="4329.01" width="8.53" height="32.96" transform="translate(-3773.05 -3068.53) rotate(-4.57)"/><rect class="cls-2" x="4057.07" y="4330.04" width="8.53" height="54.15" transform="translate(-3516.04 -3335.27) rotate(-1.01)"/><rect class="cls-2" x="4023.69" y="4342.03" width="32.96" height="8.53" transform="translate(-3919.72 4783.14) rotate(-87.47)"/><rect class="cls-2" x="4002.76" y="4340.46" width="32.96" height="8.53" transform="translate(-4167.73 4471.67) rotate(-83.9)"/><rect class="cls-2" x="3981.99" y="4337.52" width="32.96" height="8.53" transform="translate(-4395.25 4142.8) rotate(-80.29)"/><rect class="cls-2" x="3961.44" y="4333.33" width="32.96" height="8.53" transform="translate(-4599.52 3800.71) rotate(-76.67)"/><rect class="cls-2" x="3927.5" y="4338.04" width="54.14" height="8.53" transform="translate(-4792.16 3450.36) rotate(-73.04)"/><rect class="cls-2" x="3921.33" y="4321.14" width="32.96" height="8.53" transform="translate(-4935.63 3083.2) rotate(-69.41)"/><rect class="cls-2" x="3901.96" y="4313.1" width="32.96" height="8.53" transform="translate(-5065.86 2712.66) rotate(-65.79)"/><rect class="cls-2" x="3883.1" y="4303.93" width="32.96" height="8.53" transform="translate(-5170.64 2337.13) rotate(-62.16)"/><rect class="cls-2" x="3864.84" y="4293.6" width="32.96" height="8.53" transform="translate(-5249.68 1960.17) rotate(-58.56)"/><rect class="cls-2" x="3830.66" y="4290.71" width="54.14" height="8.53" transform="translate(-5313.34 1579.96) rotate(-54.96)"/><rect class="cls-2" x="3830.54" y="4269.47" width="32.96" height="8.53" transform="translate(-5332.88 1203.68) rotate(-51.37)"/><rect class="cls-2" x="3814.52" y="4255.92" width="32.96" height="8.53" transform="translate(-5337.99 828.25) rotate(-47.79)"/><rect class="cls-2" x="3799.47" y="4241.29" width="32.96" height="8.53" transform="translate(-5319.34 455.61) rotate(-44.21)"/><rect class="cls-2" x="3785.33" y="4225.8" width="32.96" height="8.53" transform="translate(-5277.59 87.13) rotate(-40.62)"/><rect class="cls-2" x="3753.08" y="4215.87" width="54.15" height="8.53" transform="translate(-5218.98 -279.1) rotate(-37.04)"/><rect class="cls-2" x="3760.05" y="4192.34" width="32.96" height="8.53" transform="matrix(0.83, -0.55, 0.55, 0.83, -5127.4, -630.8)"/><rect class="cls-2" x="3749.07" y="4174.47" width="32.96" height="8.53" transform="translate(-5019.83 -979.56) rotate(-29.85)"/><rect class="cls-2" x="3739.17" y="4155.97" width="32.96" height="8.53" transform="translate(-4891.88 -1318.86) rotate(-26.24)"/><rect class="cls-2" x="3730.48" y="4136.88" width="32.96" height="8.53" transform="translate(-4744.1 -1648.22) rotate(-22.62)"/><rect class="cls-2" x="3702.48" y="4120.7" width="54.14" height="8.53" transform="translate(-4578.81 -1969.9) rotate(-18.99)"/><rect class="cls-2" x="3716.89" y="4097.22" width="32.96" height="8.53" transform="translate(-4392.42 -2272.81) rotate(-15.35)"/><rect class="cls-2" x="3711.91" y="4076.85" width="32.96" height="8.53" transform="translate(-4191.46 -2564.56) rotate(-11.73)"/><rect class="cls-2" x="3708.35" y="4056.18" width="32.96" height="8.53" transform="translate(-3975.32 -2841.55) rotate(-8.11)"/><rect class="cls-2" x="3706.08" y="4035.32" width="32.96" height="8.53" transform="translate(-3746.77 -3101.44) rotate(-4.53)"/><rect class="cls-2" x="3683.88" y="4014.54" width="54.15" height="8.53" transform="translate(-3506.81 -3344.67) rotate(-0.96)"/><g class="cls-3"><path class="cls-1" d="M4437.27,3855a414.84,414.84,0,0,0-223.11-223.76,409.26,409.26,0,0,0-157.82-31.67h-1.26a410,410,0,0,0-156.75,30.78,414.54,414.54,0,0,0-224.41,222.47,408.57,408.57,0,0,0-32.1,157.72v4.76a410.95,410.95,0,0,0,70.6,228.81,415.61,415.61,0,0,0,185.9,151.37,414.92,414.92,0,0,0,315.83-.89,414.84,414.84,0,0,0,223.11-223.76A414.69,414.69,0,0,0,4437.27,3855Z" transform="translate(-3439.66 -3407.73)"/><path class="cls-2" d="M4479.69,4018l180.65-.22v-11.21l-180.65.22a421.14,421.14,0,0,0-29.82-150.56l42.64-17.61-4.28-10.36-42.64,17.61a428.55,428.55,0,0,0-85.77-128.63l72.38-72.13-7.91-7.94-72.38,72.13a428.13,428.13,0,0,0-128.34-86.22l17.76-42.58-10.35-4.31-17.76,42.58a420.06,420.06,0,0,0-150.45-30.32l0.84-180.64-11.21-.05-0.84,180.65a421.08,421.08,0,0,0-151.74,29.29L3882.37,3575l-10.38,4.24,17.46,42.7a428.44,428.44,0,0,0-128.92,85.32l-71.88-72.63-8,7.88,71.9,72.65a423.58,423.58,0,0,0-86.71,128l-42.52-17.91-4.35,10.33,42.52,17.91a419.43,419.43,0,0,0-30.85,151.41l-180.64-1-0.06,11.21,180.62,1h0a419.63,419.63,0,0,0,30.91,156.27L3619,4190.28l4.35,10.33,42.52-17.91a423.56,423.56,0,0,0,86.71,128l-71.9,72.65,8,7.88,71.88-72.63a428.43,428.43,0,0,0,128.92,85.32l-17.46,42.7,10.38,4.24,17.46-42.71a420.94,420.94,0,0,0,150.66,29.28l0.39,180.66,11.21,0-0.39-180.65a420.16,420.16,0,0,0,151.52-30.34l17.76,42.58,10.35-4.31-17.76-42.58a428.12,428.12,0,0,0,128.34-86.22l72.38,72.13,7.91-7.94-72.38-72.13A428.55,428.55,0,0,0,4445.58,4180l42.64,17.61,4.28-10.36-42.64-17.61A421.22,421.22,0,0,0,4479.69,4018Zm-131.84,286.8a416.35,416.35,0,0,1-133.7,89.8,414.92,414.92,0,0,1-315.83.89A414.55,414.55,0,0,1,3673.92,4173a408.56,408.56,0,0,1-32.1-157.72v-4.76a410.95,410.95,0,0,1,70.6-228.81,415.6,415.6,0,0,1,185.91-151.37,410,410,0,0,1,156.75-30.78h1.26a409.26,409.26,0,0,1,157.82,31.67A414.84,414.84,0,0,1,4437.27,3855a414.69,414.69,0,0,1,0,315.83A416.77,416.77,0,0,1,4347.85,4304.79Z" transform="translate(-3439.66 -3407.73)"/></g></svg>