<svg preserveAspectRatio="none" id="Layer_6" data-name="Layer 6" xmlns="http://www.w3.org/2000/svg" viewBox="0 0 110.06 110.05"><defs><style>.cls-1{fill:#0ff}</style></defs><path class="cls-1" d="M404 161l.38-.3c.25-.19.59-.5 1-.88s1-.84 1.57-1.42l.94-.9c.32-.33.65-.68 1-1a47.49 47.49 0 0012.61-26.18c.13-1 .25-1.91.3-2.73s.13-1.53.13-2.11v-1.84h.26v1.85c0 .59-.07 1.3-.13 2.12s-.17 1.74-.3 2.74a47.75 47.75 0 01-12.68 26.33c-.35.36-.68.72-1 1l-.95.9c-.59.58-1.13 1-1.58 1.43s-.79.7-1 .89l-.38.3z" transform="translate(-319.1 -68.52)"/><path class="cls-1" d="M404.72 161.91l.39-.31c.26-.19.61-.51 1.07-.9s1-.87 1.61-1.45l1-.92c.33-.33.67-.7 1-1.07a48.71 48.71 0 0012.94-26.86c.13-1 .26-2 .31-2.8s.13-1.56.13-2.17v-1.89h1.57v1.95c0 .62-.07 1.37-.14 2.23s-.18 1.83-.32 2.89c-.06.53-.16 1.08-.26 1.64s-.19 1.15-.33 1.75l-.42 1.83c-.14.63-.34 1.25-.52 1.89a51.7 51.7 0 01-3 7.79 51.15 51.15 0 01-8.84 12.8c-.37.38-.72.76-1.06 1.1l-1 1c-.62.61-1.19 1.09-1.66 1.5s-.83.73-1.1.93l-.4.32z" transform="translate(-319.1 -68.52)"/><path class="cls-1" d="M97.98 55.83l.02-.8h3.9l-.02.87-3.9-.07z"/><path class="cls-1" d="M417 126.33v-.4-.4l3.9.18v.86zM416.21 132.25l.07-.39.07-.39 3.84.72-.08.43-.11.38z" transform="translate(-319.1 -68.52)"/><path class="cls-1" d="M96.67 65.67l.18-.77 3.8.89-.2.85-3.78-.97zM95.5 69.48l.26-.75 3.7 1.24-.28.82-3.68-1.31zM94.79 71.34l.29-.74 3.64 1.41-.32.81-3.61-1.48zM93.1 74.94l.37-.7 3.49 1.74-.4.77-3.46-1.81zM91.09 78.38l.43-.67 3.32 2.06-.47.73-3.28-2.12zM89.97 80.02l.46-.64 3.22 2.21-.51.71-3.17-2.28zM88.78 81.61l.49-.62 3.11 2.36-.54.68-3.06-2.42zM87.51 83.15l.52-.6 2.99 2.5-.56.65-2.95-2.55zM86.17 84.62l.55-.57 2.87 2.63-.59.63-2.83-2.69zM84.77 86.03l.57-.55 2.75 2.77-.62.6-2.7-2.82z"/><path class="cls-1" d="M395.85 150.8s.46-.34 1.1-.92l.52-.45c.19-.16.37-.35.56-.53.39-.37.81-.76 1.19-1.18l.59-.62c.2-.2.37-.42.55-.62.35-.41.69-.78.94-1.12l.64-.81.18-.23.06-.08-.34-.25-.06.08-.17.23-.63.8c-.25.34-.59.71-.93 1.11-.18.2-.34.41-.54.61l-.58.61c-.38.42-.8.8-1.18 1.17-.19.18-.37.37-.56.52l-.52.45c-.63.57-1.08.9-1.08.9zM403.34 142.55l-.35-.23.46-.72c.16-.22.31-.52.5-.84l.3-.52.16-.28.15-.3a33.5 33.5 0 002.57-6.3 35 35 0 001.27-6.69l.1-1.27V123.54h.5v1.87l-.1 1.28a35.46 35.46 0 01-1.29 6.77 33.92 33.92 0 01-2.6 6.38l-.16.31-.17.29-.3.53c-.19.33-.35.63-.5.85z" transform="translate(-319.1 -68.52)"/><path class="cls-1" d="M406.41 132.48l-1.53-.42-.1.36c-.07.22-.13.51-.23.8l-.39 1.14 1.49.54.41-1.2c.11-.3.18-.61.25-.84zM395 149.73l.15-.11c.09-.08.24-.18.41-.33l.61-.53c.24-.21.51-.43.78-.7a32.42 32.42 0 003.8-4.18 34.35 34.35 0 003-4.76l.48-.93c.14-.28.24-.53.34-.74l.29-.64-1.45-.63-.28.61c-.09.19-.19.44-.32.7l-.46.89a32.74 32.74 0 01-2.89 4.53 30.82 30.82 0 01-3.62 4c-.26.26-.52.48-.75.67l-.58.51c-.16.15-.3.24-.39.31l-.14.11zM407.13 129.23l-1.56-.27v-.23c0-.15.07-.35.09-.61l.11-.86c0-.16 0-.32.06-.49v-.51l.08-1v-1.72h1.58v1.81l-.08 1v.53c0 .17 0 .35-.06.51l-.11.91c0 .27-.07.48-.1.64zM427.57 136.67l.46-2c.23-1.22.54-2.85.72-4.5 0-.41.11-.82.14-1.23l.09-1.19c.06-.77.12-1.5.12-2.12v-2.06h-3v2c0 .59-.06 1.27-.12 2l-.09 1.13c0 .38-.09.77-.13 1.16-.17 1.56-.47 3.1-.68 4.25l-.46 1.89zM421.22 152l1-1.82c.32-.54.64-1.21 1-1.91.18-.35.37-.71.54-1.09l.52-1.14.51-1.15.45-1.13c.29-.73.56-1.42.76-2l.49-1.45.14-.41v-.15l-2.91-.9v.14l-.13.38-.46 1.37c-.18.57-.44 1.21-.71 1.91l-.42 1.09-.48 1.08-.49 1.08c-.16.36-.35.69-.51 1-.35.66-.64 1.29-.95 1.8l-1 1.72zM408.44 166.56l.28-.22c.18-.14.44-.34.73-.6l1-.88c.37-.32.77-.66 1.14-1 .76-.72 1.52-1.44 2.05-2l.9-.95-2.24-2.07-.85.89c-.5.55-1.22 1.22-1.94 1.9-.35.35-.73.67-1.08 1l-1 .83c-.28.25-.52.43-.69.57l-.27.21zM417.42 157.51l.39-.49.39-.51.43-.6.8-1.12.36-.51-2.52-1.7-.34.48-.75 1.06-.4.56-.37.48-.36.46zM415.95 123.55h-.5v1.59c0 .51-.06 1.12-.11 1.83s-.15 1.5-.26 2.36a41 41 0 01-10.89 22.6c-.3.31-.58.62-.86.9l-.81.78c-.5.5-1 .89-1.36 1.23s-.68.6-.9.76l-.33.26.31.39.33-.26c.22-.16.52-.44.91-.77s.87-.74 1.37-1.24l.82-.79c.28-.28.57-.59.87-.91a41.45 41.45 0 0011-22.87c.11-.87.22-1.67.26-2.39s.11-1.33.11-1.85z" transform="translate(-319.1 -68.52)"/><path class="cls-1" d="M410.57 123.55h-.5v1.39c0 .44-.06 1-.1 1.59s-.13 1.3-.22 2.05a36.23 36.23 0 01-3.19 10.56 37 37 0 01-3 5.09c-.53.78-1.12 1.49-1.65 2.17s-1.09 1.29-1.63 1.82l-.75.78-.71.67c-.44.43-.85.78-1.18 1.07s-.59.53-.78.66l-.29.22.31.39.29-.23c.19-.14.45-.38.79-.67s.76-.64 1.2-1.08l.72-.68.76-.8c.55-.54 1.07-1.19 1.65-1.85s1.13-1.41 1.67-2.2a37.43 37.43 0 003.05-5.16 36.73 36.73 0 003.23-10.71c.09-.76.2-1.46.23-2.08s.1-1.16.1-1.61z" transform="translate(-319.1 -68.52)"/><path class="cls-1" d="M410.54 124.75l.83-.59.83-.61h-.44l-.6.44-.6.43v.33zM410.47 126.12l.57-.37c.35-.22.79-.53 1.23-.85.88-.64 1.77-1.34 1.77-1.34h-.44s-.77.61-1.55 1.17l-1.06.75-.5.32zM415.45 123.55v.37l-.78.62c-.47.36-1.07.84-1.72 1.28s-1.29.86-1.77 1.16-.81.49-.81.49v-.16-.16l.8-.5c.48-.31 1.13-.73 1.77-1.18 1.26-.89 2.51-1.92 2.51-1.92zM415.41 125.1v.37l-.21.17-.59.43c-.49.35-1.13.79-1.77 1.21s-1.33.81-1.82 1.1l-.83.46v-.32l.83-.47.85-.5c.31-.19.62-.4.95-.61.64-.43 1.29-.88 1.78-1.23zM415.32 126.64v.37l-.81.56c-.49.33-1.17.75-1.83 1.15l-1 .57-.87.46-.85.43.06-.32.85-.43c.52-.27 1.16-.64 1.83-1s1.34-.83 1.81-1.16zM415.18 128.18v.37l-.84.53-.85.52-1 .56c-.69.37-1.36.71-1.88 1l-.87.39.07-.32.24-.11.62-.3c.51-.25 1.19-.6 1.88-1 .35-.19.68-.38 1-.57l.85-.53zM415 129.71v.36l-.86.5c-.52.29-1.19.67-1.89 1s-1.4.66-1.93.88l-.63.27-.25.1v-.32l.87-.37c.52-.23 1.23-.55 1.92-.9s1.37-.73 1.89-1l.63-.36zM414.72 131.24l-.06.37s-.34.2-.87.46-1.24.62-1.94.93-1.43.6-2 .81l-.89.33.09-.31.89-.34.92-.37 1-.46c.7-.32 1.41-.67 1.94-.95zM414.41 132.75l-.08.36-.88.43c-.53.25-1.27.57-2 .86l-1 .41-.93.33-.9.29.1-.31.91-.3c.55-.18 1.24-.46 2-.76s1.45-.62 2-.88zM414 134.25l-.1.36-.9.39-.92.38-1.08.4c-.74.26-1.45.5-2 .67l-.92.26.12-.3.25-.07.66-.2c.54-.17 1.27-.41 2-.68l.55-.2.52-.21.92-.39zM413.62 135.73s0 .09-.05.18l-.06.18-.93.36c-.56.21-1.27.48-2 .71s-1.49.44-2 .59-.92.23-.92.23l.07-.15.06-.15.91-.24c.55-.15 1.29-.36 2-.6s1.46-.52 2-.73l.67-.26zM413.13 137.2l-.12.35s-.37.14-.94.33-1.31.42-2.05.63-1.51.38-2.06.51l-.92.19.13-.3.93-.2c.56-.13 1.32-.31 2.05-.53s1.49-.46 2.06-.65zM412.59 138.65l-.14.34-.94.3c-.57.17-1.34.37-2.09.55l-1.1.25-1 .18-.94.16.15-.29.94-.16c.58-.1 1.3-.27 2.06-.45s1.53-.39 2.08-.57zM412 140.07l-.15.34-1 .26c-.56.15-1.34.33-2.1.48-1.51.32-3 .48-3 .48l.16-.28.95-.13c.56-.09 1.31-.22 2.08-.38s1.52-.34 2.09-.5zM411.37 141.48l-.17.33-1 .22c-.58.12-1.33.29-2.11.4s-1.53.22-2.09.28l-.69.06h-.26l.18-.27h.26l.68-.08a71.6 71.6 0 002.1-.29c1.53-.26 3.1-.65 3.1-.65zM410.66 142.86l-.17.33-.27.05-.71.13c-.59.1-1.36.22-2.12.32-1.57.18-3.06.25-3.06.25l.18-.28.94-.06c.56 0 1.36-.1 2.11-.21s1.54-.23 2.13-.34l.7-.14zM409.91 144.21l-.18.32h-.27l-.71.11c-.59.08-1.38.17-2.14.24s-1.55.1-2.12.12h-.95l.19-.27h2l1.12-.09c.77-.08 1.57-.16 2.14-.25zM409.11 145.53l-.2.31s-1.57.21-3.13.27c-.77 0-1.53.06-2.11 0h-1l.2-.26h1c.57 0 1.33 0 2.11-.06l1.15-.07 1-.1zM408.27 146.83l-.22.3-1 .07-1 .06h-3.26l-1-.06.21-.25H405.07c.79 0 1.55-.06 2.14-.1zM407.37 148.09l-.11.15-.11.15H404c-.78 0-1.55-.07-2.12-.12s-.94-.09-.94-.09l.11-.12.11-.12.94.08c.57 0 1.35.09 2.12.1s1.55 0 2.15 0 1-.03 1-.03zM406.43 149.31l-.23.29h-1c-.61 0-1.38 0-2.15-.08s-1.55-.14-2.11-.2l-.94-.12.23-.24.94.12c.57.07 1.35.14 2.11.18s1.56.06 2.16.07zM405.44 150.5l-.24.28h-1c-.59 0-1.39-.09-2.15-.17l-1.12-.13-1-.15-.94-.16.24-.23.94.16c.58.1 1.32.18 2.1.25s1.57.13 2.15.14zM404.41 151.65l-.26.27-1-.07-1-.09-1.14-.15c-1.53-.2-3-.55-3-.55l.25-.21.94.15c.56.1 1.31.22 2.09.33s1.55.17 2.14.22zM403.35 152.77l-.27.26-1-.11c-.59-.08-1.35-.17-2.13-.32s-1.52-.3-2.07-.42l-.67-.17-.25-.07.26-.2.25.06.67.15c.56.12 1.31.28 2.08.42 1.52.25 3.13.4 3.13.4zM402 154.09l.27-.26-.74-.1-1.62-.28c-.58-.11-1.14-.22-1.58-.32l-.71-.18.28.35s1 .26 2 .44l1.4.26zM400.79 155.11l.28-.24-1.17-.2c-.59-.11-1.17-.25-1.17-.25l.28.35.89.19zM363.48 170.2l.47.11.57.13.77.14a45.57 45.57 0 004.82.65l1.56.12h3.46c.6 0 1.22 0 1.85-.07a47.41 47.41 0 007.8-1.11 46 46 0 007.52-2.37c.59-.22 1.14-.5 1.7-.74l.82-.37.78-.4c.51-.27 1-.51 1.49-.77l1.36-.78c.44-.24.84-.51 1.23-.76l1.1-.7c.67-.46 1.25-.88 1.73-1.22s.83-.64 1.08-.83l.41-.23.16.21-.38.3c-.25.19-.61.49-1.09.83s-1.06.76-1.74 1.23l-1.1.71c-.39.25-.79.51-1.24.76l-1.37.79c-.48.26-1 .51-1.5.78l-.79.4-.82.37c-.56.24-1.12.52-1.71.75a46.25 46.25 0 01-7.56 2.39 47.68 47.68 0 01-7.84 1.12c-.63.05-1.25 0-1.86.07H371.69l-1.57-.12a45.8 45.8 0 01-4.85-.65l-.78-.14-.57-.13-.47-.11z" transform="translate(-319.1 -68.52)"/><path class="cls-1" d="M363.21 171.4l.48.11.58.13.79.14a46.77 46.77 0 004.94.66l1.6.12h3.54c.62 0 1.25 0 1.9-.07a48.66 48.66 0 008-1.14 47.21 47.21 0 007.71-2.44c.61-.23 1.17-.51 1.74-.76l.84-.38.8-.41c.53-.27 1-.53 1.53-.79l1.4-.8c.45-.25.87-.52 1.26-.77l1.12-.72c.69-.47 1.28-.91 1.77-1.25s.85-.66 1.11-.85l.39-.31 1 1.23-.4.32c-.27.2-.64.52-1.14.88s-1.12.8-1.83 1.29l-1.16.75c-.41.26-.84.54-1.3.8l-1.44.83c-.5.28-1 .54-1.58.82l-.83.42-.87.39c-.59.26-1.17.55-1.8.78a48.79 48.79 0 01-8 2.51 50.21 50.21 0 01-8.25 1.18c-.66.06-1.32 0-2 .07h-3.65l-1.66-.12a48.35 48.35 0 01-5.1-.69l-.82-.15-.6-.13-.5-.11z" transform="translate(-319.1 -68.52)"/><path class="cls-1" d="M81.19 89.11l.62-.49 2.44 3.05-.68.53-2.38-3.09zM79.58 90.28l.65-.45 2.29 3.15-.7.51-2.24-3.21zM74.46 93.35l.71-.36L77 96.43l-.77.4-1.77-3.48zM72.67 94.21l.72-.33 1.67 3.53-.79.36-1.6-3.56zM68.97 95.67l.75-.25 1.33 3.67-.82.28-1.26-3.7zM67.07 96.28l.76-.22L69 99.78l-.84.24-1.09-3.74z"/><path class="cls-1" d="M382.3 165.73l.39-.07.39-.08.81 3.82-.42.09-.43.08zM378.36 166.31h.4l.39-.05.45 3.88-.43.05h-.43z" transform="translate(-319.1 -68.52)"/><path class="cls-1" d="M57.28 97.94l.79-.06.27 3.89-.86.07-.2-3.9zM55.29 97.99l.79-.02.09 3.9-.86.02-.02-3.9zM53.3 97.95l.79.02-.08 3.91-.87-.02.16-3.91zM51.31 97.83l.79.06-.26 3.89-.86-.06.33-3.89zM49.33 97.61l.79.1-.44 3.88-.86-.11.51-3.87z"/><path class="cls-1" d="M366.37 157.53l.38.09c.24.06.59.13 1 .2.84.17 2 .32 3.11.43.57 0 1.14.1 1.68.12h2.9v-.42L374 158h-1.45c-.53 0-1.09-.08-1.66-.12-1.12-.11-2.24-.26-3.07-.43-.42-.07-.76-.13-1-.2l-.38-.09zM377.49 158.24v-.41h.22l.63-.08 1-.12c.37-.06.79-.14 1.25-.22a34.65 34.65 0 006.53-1.91 33.7 33.7 0 006-3.17c.2-.12.38-.25.55-.37l.49-.35c.31-.22.59-.4.79-.58l.67-.53.26.33-.68.54c-.21.18-.49.36-.8.58l-.5.35c-.17.13-.36.25-.56.38a34.13 34.13 0 01-6.1 3.21 35.08 35.08 0 01-6.61 1.94c-.46.08-.89.17-1.27.22l-1 .12-.63.08z" transform="translate(-319.1 -68.52)"/><path class="cls-1" d="M387.28 154.36l-.62-1.46-.35.14-.77.3-.41.16-.37.12-.36.12.51 1.5.38-.13.38-.13.43-.17.81-.32zM366.67 156.2l.69.16c.44.07 1.07.2 1.83.32a34.93 34.93 0 005.65.34 32.16 32.16 0 005.62-.58c.38-.06.72-.14 1-.21l.79-.18c.22 0 .39-.1.5-.13l.18-.05-.42-1.53h-.17c-.11 0-.27.08-.48.12l-.75.17c-.29.07-.61.15-1 .2a30.57 30.57 0 01-5.35.56 33.34 33.34 0 01-5.38-.33c-.72-.11-1.32-.23-1.75-.3l-.65-.15zM390.27 152.9l-.76-1.39.73-.42c.45-.24 1-.63 1.58-1 .29-.18.55-.39.82-.57s.51-.35.71-.51l.67-.53 1 1.24-.7.55c-.21.17-.47.34-.74.53s-.56.41-.86.6c-.61.37-1.19.79-1.66 1zM397.19 173.52l.52-.24c.33-.14.79-.39 1.35-.67 1.12-.55 2.56-1.37 4-2.23.7-.45 1.4-.89 2-1.32l1.73-1.23c.51-.36.9-.69 1.19-.91l.45-.35-1.9-2.38-.42.33c-.27.21-.65.52-1.12.86l-1.63 1.16c-.61.41-1.27.83-1.93 1.25-1.34.81-2.7 1.59-3.76 2.1-.53.26-1 .5-1.27.63l-.49.22zM381.22 178.12l.57-.07.66-.09.85-.15c.62-.11 1.35-.23 2.12-.39l2.41-.56 2.38-.67c.76-.23 1.45-.48 2-.68l.82-.28.62-.24.54-.21-1.11-2.83-.51.2-.58.23-.77.26c-.57.19-1.22.43-1.94.64l-2.25.64-2.28.53c-.73.15-1.42.26-2 .37l-.8.14-.62.08-.54.07zM361.89 177.2l1.28.29c.77.14 1.8.34 2.84.49s2.08.28 2.86.35l1.3.1.22-3-1.23-.1c-.74-.06-1.72-.2-2.7-.33s-1.95-.34-2.68-.47l-1.21-.27zM374.58 178.57l2-.05c.5 0 1-.06 1.37-.08h.62l-.24-3h-.59c-.35 0-.82.08-1.3.08h-1.89zM400.19 156.24l-.31-.39-.33.26c-.22.16-.52.43-.93.72s-.91.66-1.49 1.06l-.95.61c-.33.21-.68.44-1.06.65l-1.18.68c-.41.23-.85.44-1.29.67l-.67.34-.71.32c-.48.21-1 .45-1.47.64a39.45 39.45 0 01-6.48 2 40.88 40.88 0 01-6.73 1c-.54 0-1.08 0-1.6.06H372l-1.35-.1a39 39 0 01-4.16-.56l-.67-.12-.49-.11-.41-.09-.11.49.41.09.49.11.67.12a39.53 39.53 0 004.21.57l1.37.1H374.99c.53 0 1.07 0 1.62-.06a41.4 41.4 0 006.81-1 40 40 0 006.56-2.07c.52-.19 1-.44 1.48-.65l.72-.32.68-.35c.45-.23.89-.45 1.3-.68l1.19-.68c.39-.21.74-.44 1.08-.66l1-.61c.59-.4 1.09-.77 1.51-1.07s.72-.56.94-.73z" transform="translate(-319.1 -68.52)"/><path class="cls-1" d="M396.84 152l-.31-.39-.29.22c-.19.14-.45.37-.81.62l-1.3.92-.82.53c-.29.19-.59.39-.92.57l-1 .59c-.36.2-.74.38-1.12.58l-.59.3-.61.28c-.42.18-.83.4-1.27.56a34.07 34.07 0 01-5.63 1.78 35.5 35.5 0 01-5.86.84h-4.01l-1.18-.09a33.71 33.71 0 01-3.62-.49l-.58-.1-.42-.1-.35-.08-.11.49.36.08.43.1.59.1a34.18 34.18 0 003.67.49l1.19.09h4.05a36 36 0 005.94-.85 34.57 34.57 0 005.71-1.8c.45-.16.87-.38 1.29-.56l.62-.28.59-.3c.39-.2.77-.39 1.14-.59l1-.6c.34-.18.64-.39.94-.58l.84-.53 1.32-.93c.37-.26.63-.49.82-.63zM395.89 152.78l.3.09.67.18 1 .26-.28-.35-.72-.19-.71-.2-.13.1zM394.78 153.57s1 .34 2.08.65c.53.15 1.06.28 1.46.37l.68.16-.28-.35s-1-.22-1.86-.46-1.82-.56-1.82-.56zM399.88 155.85l-.29.23s-1.55-.31-3-.77c-.74-.22-1.46-.45-2-.65l-.89-.33.28-.18.9.33c.54.19 1.26.41 2 .63l1.11.31 1 .23z" transform="translate(-319.1 -68.52)"/><path class="cls-1" d="M398.66 156.8l-.3.21-1-.25-1-.27-1.09-.36c-.74-.25-1.45-.51-2-.72l-.88-.37.28-.16.33.12.64.25c.53.2 1.25.47 2 .71s1.48.45 2.06.61zM397.4 157.69l-.15.11-.16.1-1-.3c-.57-.19-1.3-.42-2-.7s-1.44-.58-2-.81-.86-.4-.86-.4l.15-.07.14-.08.86.38c.52.22 1.24.53 2 .8s1.47.51 2 .69l.69.21zM396.11 158.54l-.31.2s-.37-.11-.94-.33-1.29-.49-2-.78-1.42-.64-1.93-.89l-.84-.42.29-.15.85.42c.52.25 1.22.58 1.93.86s1.45.57 2 .78zM394.78 159.33l-.32.18-.92-.35c-.55-.22-1.28-.54-2-.87l-1-.49-.87-.46-.83-.46.3-.13.84.46c.51.28 1.19.6 1.9.93s1.44.64 2 .84zM393.43 160.09l-.33.17-.91-.39-.91-.42-1-.52c-.69-.36-1.35-.71-1.85-1l-.82-.5.3-.12.22.14.6.35c.49.28 1.16.64 1.86 1s1.4.67 1.95.91zM392.06 160.79l-.34.15-.9-.43-.89-.45-.49-.26-.51-.29c-.68-.39-1.33-.79-1.81-1.09l-.58-.38-.22-.15.31-.1s1.25.82 2.62 1.59 2.81 1.41 2.81 1.41zM390.65 161.43l-.34.15-.24-.12-.64-.34c-.52-.29-1.2-.67-1.86-1.07s-1.31-.85-1.77-1.17l-.77-.54.31-.11.78.54c.47.32 1.12.76 1.78 1.15s1.35.78 1.87 1.06l.64.33zM389.22 162l-.34.14-.85-.48c-.51-.31-1.18-.73-1.82-1.15s-1.27-.88-1.73-1.23l-.75-.58.31-.09.76.58c.46.36 1.09.78 1.74 1.2 1.29.88 2.68 1.61 2.68 1.61zM387.77 162.56l-.35.12-.84-.52c-.49-.3-1.15-.76-1.78-1.22s-1.23-.9-1.68-1.28l-.72-.66.32-.07.74.61c.44.35 1.05.81 1.69 1.26s1.29.88 1.79 1.2zM386.31 163l-.36.1-.82-.56c-.49-.34-1.11-.78-1.73-1.28s-1.2-1-1.63-1.34c-.21-.18-.39-.35-.51-.46l-.19-.18.32-.06.19.18.52.45c.43.37 1 .86 1.64 1.34 1.26.97 2.57 1.81 2.57 1.81zM384.82 163.47l-.36.1s-1.3-1-2.48-1.93-2.26-2.07-2.26-2.07l.32-.06.69.65c.42.38 1 .93 1.59 1.4s1.22 1 1.69 1.33l.58.42zM383.32 163.83l-.36.08-.21-.17c-.14-.11-.33-.25-.56-.44-.46-.38-1.06-.9-1.63-1.41s-1.12-1.06-1.52-1.47l-.66-.68h.32l.66.68c.41.42 1 .94 1.54 1.45s1.18 1 1.64 1.4zM381.81 164.15l-.37.07-.75-.64c-.44-.37-1-.93-1.58-1.47s-1.08-1.08-1.47-1.52l-.63-.72h.33s.25.29.64.71.92 1 1.48 1.5c.28.27.57.55.84.79l.75.66zM380.29 164.41h-.37l-.73-.68c-.43-.41-1-.93-1.52-1.52s-1-1.14-1.41-1.57c-.18-.21-.34-.4-.44-.53l-.16-.21h.34s1 1.15 2 2.29 2.29 2.22 2.29 2.22zM378.76 164.61h-.37l-.2-.19-.51-.52c-.41-.43-1-1-1.46-1.57s-1-1.19-1.35-1.64l-.58-.75h.33l.59.75c.36.44.85 1.06 1.37 1.62s1.06 1.14 1.48 1.57c.21.22.39.39.51.5zM377.22 164.75h-.37s-.28-.28-.67-.71-.92-1-1.4-1.64c-.25-.3-.48-.59-.7-.88l-.59-.8-.55-.78h.33l.56.78c.34.48.81 1.06 1.31 1.66.96 1.24 2.08 2.37 2.08 2.37zM375.67 164.83h-.37l-.65-.75c-.19-.23-.41-.48-.64-.77l-.7-.91c-.47-.63-.91-1.24-1.23-1.71l-.52-.81h.33l.14.22c.09.14.22.34.39.57.32.46.77 1.09 1.25 1.71s1 1.22 1.36 1.67zM374.13 164.87h-.37l-.62-.78c-.36-.47-.84-1.07-1.28-1.72s-.86-1.29-1.16-1.77-.49-.81-.49-.81h.32l.5.8c.31.48.73 1.13 1.18 1.77.89 1.27 1.92 2.51 1.92 2.51zM372.58 164.83h-.37l-.17-.21-.43-.59c-.35-.49-.79-1.13-1.21-1.77s-.81-1.33-1.1-1.82l-.46-.83h.32l.47.83.5.85c.19.31.4.62.61.95.43.64.88 1.29 1.23 1.78s.61.81.61.81zM371 164.75h-.37l-.56-.81c-.33-.49-.75-1.17-1.15-1.83l-.57-1c-.17-.32-.33-.62-.46-.87l-.43-.85.32.06.43.85c.27.52.64 1.16 1 1.83s.83 1.34 1.16 1.81zM369.5 164.61h-.37l-.53-.84-.52-.85c-.18-.32-.37-.67-.56-1-.37-.69-.71-1.36-1-1.88l-.39-.87.32.07.11.24c.07.16.17.37.3.62.25.51.6 1.19 1 1.88.19.35.38.68.57 1l.53.85zM367.6 164.36h.36l-.11-.17-.28-.47c-.23-.39-.52-.91-.8-1.43s-.54-1-.73-1.44l-.31-.66-.1.43.27.59.29.6.35.67c.51.95 1.06 1.88 1.06 1.88zM366.08 164.08l.37.06-.18-.33c-.11-.2-.25-.45-.39-.72-.27-.54-.53-1.07-.53-1.07l-.1.43.41.81c.19.43.42.82.42.82zM331 144.32l.84 1.64c.55 1 1.38 2.5 2.49 4.18a50.62 50.62 0 004.22 5.42 49.51 49.51 0 005.73 5.39 46.22 46.22 0 006.54 4.39c.54.32 1.1.59 1.64.87l.8.41c.26.13.53.25.8.37l1.53.69 1.46.58.69.27.67.23 1.24.42c.78.25 1.47.43 2 .59s1 .26 1.32.33l.47.11-.06.26-.47-.11c-.31-.08-.76-.16-1.33-.33s-1.26-.35-2-.59l-1.24-.42-.67-.23-.69-.27-1.47-.58-1.54-.69c-.26-.12-.53-.24-.8-.37l-.8-.41c-.54-.28-1.1-.55-1.65-.87a46.49 46.49 0 01-6.57-4.42 49.78 49.78 0 01-5.77-5.42 50.89 50.89 0 01-4.24-5.45c-1.12-1.69-2-3.16-2.51-4.2l-.85-1.65z" transform="translate(-319.1 -68.52)"/><path class="cls-1" d="M329.9 144.85l.86 1.69c.56 1.06 1.42 2.56 2.56 4.28a51.86 51.86 0 004.33 5.56 50.74 50.74 0 005.88 5.53 47.45 47.45 0 006.7 4.51c.55.33 1.13.6 1.68.89l.82.42c.27.14.55.25.82.38.54.24 1.06.49 1.57.7l1.5.59.71.27.69.23 1.27.43c.8.25 1.51.44 2.09.61s1 .26 1.36.34l.48.11-.35 1.53-.5-.12c-.32-.08-.8-.17-1.4-.35s-1.33-.36-2.16-.63l-1.31-.44-.71-.24-.73-.28-1.55-.61c-.53-.23-1.07-.48-1.62-.73-.28-.13-.56-.25-.84-.39l-.85-.43c-.57-.3-1.16-.58-1.73-.92a49 49 0 01-6.92-4.65 52.3 52.3 0 01-6.07-5.71 53.41 53.41 0 01-4.48-5.72 55.075 55.075 0 01-2.64-4.42l-.89-1.74z" transform="translate(-319.1 -68.52)"/><path class="cls-1" d="M44.7 96.74l.77.18-.87 3.8-.84-.19.94-3.79zM42.77 96.22l.77.21-1.04 3.76-.84-.23 1.11-3.74zM37.19 94.12l.72.32-1.55 3.58-.79-.35 1.62-3.55zM35.4 93.25l.71.36-1.73 3.5-.77-.39 1.79-3.47zM31.95 91.26l.67.43-2.04 3.33-.73-.47 2.1-3.29zM30.3 90.15l.64.46-2.19 3.23-.7-.5 2.25-3.19z"/><path class="cls-1" d="M346.25 156.23l.3.26.3.26-2.48 3-.33-.28-.33-.28zM343.34 153.51l.27.29c.13.15.28.28.28.28l-2.75 2.77s-.16-.15-.31-.31l-.3-.31zM342 152.05l.26.3c.13.15.27.29.27.29l-2.87 2.64s-.15-.15-.29-.32l-.28-.33zM340.7 150.54l.25.31.26.3-3 2.51-.28-.33-.27-.34zM339.48 149l.23.32.25.31-3.1 2.37-.27-.34-.25-.35zM338.34 147.33s.1.17.22.33l.23.32-3.21 2.22-.25-.35c-.13-.18-.24-.36-.24-.36zM337.27 145.65s.09.17.21.34l.21.33-3.31 2.07-.23-.37c-.12-.18-.22-.37-.22-.37zM342.71 138.68l.65 1.27c.41.75 1 1.75 1.61 2.7s1.3 1.88 1.84 2.54c.26.34.48.62.65.8l.26.3.28-.29-.25-.29c-.17-.18-.39-.46-.65-.79-.53-.66-1.2-1.57-1.82-2.51s-1.18-1.92-1.59-2.66l-.64-1.25zM349.1 147.8l.3-.29a29.78 29.78 0 002.26 2.13 34.87 34.87 0 005.58 3.92 33.57 33.57 0 006.23 2.74c.44.16.85.26 1.21.37s.68.2.94.26l.83.19-.09.41-.84-.19c-.27-.06-.58-.17-1-.27s-.79-.21-1.23-.37a34 34 0 01-6.31-2.77 35.3 35.3 0 01-5.65-4 30.18 30.18 0 01-2.23-2.13z" transform="translate(-319.1 -68.52)"/><path class="cls-1" d="M358.25 153.05l.75-1.39h-.09l-.24-.14-.72-.41-.39-.22-.32-.21-.32-.2-.86 1.33.34.19.34.22.4.23.76.44.25.14zM343.94 138.08l.32.63.37.72c.15.28.33.58.52.91a33.87 33.87 0 003.23 4.63l1 1.16 1 1.08 1 1c.32.31.65.57.93.82l.42.36.39.31.64.5c.18.14.31.25.41.32l.15.11.94-1.28-.14-.1c-.1-.06-.23-.17-.39-.3l-.61-.48-.37-.29-.4-.35c-.27-.25-.59-.49-.89-.78l-1-.91-1-1-1-1.1a32.28 32.28 0 01-3.08-4.41c-.18-.32-.36-.61-.5-.87l-.35-.69-.31-.6zM361.25 154.48l.61-1.46.79.31c.47.21 1.11.4 1.75.62.32.12.65.19 1 .28l.83.24.83.19-.35 1.54-.87-.2-.88-.25c-.32-.1-.67-.17-1-.3-.67-.24-1.35-.44-1.84-.65zM349.43 172.73l.51.26c.32.17.8.38 1.36.64 1.13.53 2.67 1.15 4.22 1.73l2.31.78 2 .58c.6.18 1.11.28 1.46.36l.56.13.67-3-.53-.12c-.33-.08-.81-.18-1.38-.34l-1.93-.55-2.18-.73c-1.47-.54-2.93-1.13-4-1.63-.53-.25-1-.44-1.29-.6l-.48-.24zM335.9 163.12l.42.4c.27.25.64.63 1.12 1l1.63 1.41c.61.49 1.28 1 1.94 1.53s1.36 1 2 1.44 1.27.84 1.8 1.18l.73.46.57.34.5.29 1.52-2.63-.47-.27-.54-.32-.69-.44c-.5-.33-1.1-.68-1.7-1.12s-1.26-.88-1.89-1.36l-1.84-1.41-1.54-1.33c-.45-.39-.8-.74-1.05-1l-.39-.38zM324.54 147.44l.59 1.17.62 1.19.76 1.33c.51.92 1.08 1.79 1.51 2.45l.52.8.21.29 2.51-1.72-.2-.28-.49-.75c-.4-.62-.95-1.45-1.42-2.32l-.72-1.26-.58-1.13-.56-1.1zM331.39 158.22l.11.13c.07.09.16.21.29.35l.9 1c.64.77 1.34 1.48 1.34 1.48l2.22-2.08s-.66-.68-1.27-1.4l-.85-1c-.12-.13-.21-.25-.27-.33l-.1-.13zM364.82 164.32l.11-.49-.41-.09c-.26-.07-.66-.14-1.14-.29s-1.08-.3-1.76-.51l-1.07-.36-.58-.19-.59-.23a41.22 41.22 0 01-11-6.31 43 43 0 01-5-4.66 44.08 44.08 0 01-3.65-4.68c-1-1.45-1.68-2.71-2.15-3.61l-.73-1.42-.45.22.74 1.44c.48.91 1.21 2.18 2.18 3.65a44.58 44.58 0 003.69 4.74 43.47 43.47 0 005 4.72 41.72 41.72 0 0011.15 6.38l.6.23.58.2 1.08.37c.68.22 1.29.37 1.78.52s.89.22 1.16.29z" transform="translate(-319.1 -68.52)"/><path class="cls-1" d="M366 159.08l.11-.49-.35-.08c-.23-.06-.57-.12-1-.25s-.94-.26-1.53-.44l-.93-.31-.5-.17-.52-.2a35.81 35.81 0 01-9.58-5.48 37.58 37.58 0 01-4.32-4.06 38.74 38.74 0 01-3.17-4.08c-.83-1.26-1.46-2.36-1.87-3.14l-.63-1.23-.45.22.64 1.25c.42.79 1.06 1.9 1.9 3.18a39.22 39.22 0 003.22 4.13 38.09 38.09 0 004.37 4.11 36.32 36.32 0 009.72 5.56l.52.2.51.17.94.32c.59.19 1.12.32 1.55.45s.77.19 1 .25z" transform="translate(-319.1 -68.52)"/><path class="cls-1" d="M364.85 158.8l.12.3.27.63.42.93.1-.43-.3-.68-.29-.67h-.16zM363.54 158.43s.36 1 .79 2c.21.52.44 1 .62 1.38l.3.63.1-.43s-.43-.87-.8-1.74-.69-1.77-.69-1.77zM364.93 163.83l-.36-.08-.43-.88c-.25-.53-.57-1.27-.86-2-.15-.36-.29-.71-.41-1s-.23-.66-.33-.93l-.29-.9.31.1.3.91c.19.55.46 1.24.76 2s.62 1.45.88 2zM363.43 163.47l-.36-.1-.4-.91-.38-.92c-.13-.35-.27-.72-.4-1.08-.26-.74-.5-1.45-.67-2l-.26-.92.3.12.07.25c0 .16.11.39.2.66.17.54.41 1.27.68 2l.2.55.21.52.39.92zM361.94 163l-.18-.05-.18-.06-.36-.93c-.21-.56-.48-1.27-.71-2s-.44-1.49-.59-2-.22-.96-.22-.96l.15.07.15.06.24.91c.15.55.36 1.29.6 2s.52 1.46.73 2l.26.67zM360.48 162.56l-.35-.12s-.14-.37-.33-.94-.42-1.31-.63-2.05-.38-1.51-.51-2.06l-.19-.92.3.13.2.93c.13.56.31 1.32.53 2.05s.46 1.49.65 2.06.33.92.33.92zM359 162l-.35-.14-.3-.94c-.17-.57-.37-1.34-.55-2.09-.09-.38-.18-.74-.25-1.1l-.18-1-.16-.94.29.15.16.94c.1.58.27 1.3.45 2.06s.39 1.53.57 2.08zM357.6 161.43l-.34-.15-.26-1c-.15-.56-.33-1.34-.48-2.1-.32-1.51-.48-3-.48-3l.28.16s0 .38.13.95.22 1.31.38 2.08.34 1.52.5 2.09zM356.19 160.79l-.33-.17-.22-1c-.12-.58-.29-1.33-.4-2.11s-.24-1.51-.24-2.06c0-.28 0-.52-.06-.69v-.26l.27.18v.26l.08.68c.07.56.17 1.33.29 2.1.23 1.5.61 3.07.61 3.07zM354.82 160.09l-.33-.17-.05-.27-.13-.71c-.1-.59-.22-1.36-.32-2.12a51.88 51.88 0 01-.25-3.06l.28.18.06.94c0 .56.1 1.36.21 2.11s.23 1.54.34 2.13c.05.3.1.53.14.7zM353.47 159.33l-.32-.18v-.27c0-.17-.07-.41-.11-.71-.08-.59-.17-1.38-.24-2.14s-.1-1.55-.12-2.12v-.95l.27.19v2c0 .37.06.74.09 1.12.08.77.16 1.57.25 2.14zM352.15 158.54l-.31-.2s-.21-1.57-.27-3.13c0-.77-.06-1.53 0-2.11v-1l.26.2v1c0 .57 0 1.33.06 2.11 0 .39 0 .78.07 1.15l.1 1zM350.85 157.69l-.3-.22-.07-1-.06-1v-1.15-2.11l.06-1 .25.22V154.5c0 .79.06 1.55.1 2.14zM349.59 156.8l-.15-.11-.15-.11v-1-2.15c0-.78.07-1.55.12-2.12s.09-.94.09-.94l.12.11.12.11-.08.94c0 .57-.09 1.35-.1 2.12s0 1.55 0 2.15.03 1 .03 1zM348.37 155.85l-.29-.23v-1c0-.61 0-1.38.08-2.15s.14-1.55.2-2.11l.12-.94.24.23-.12.94c-.07.57-.14 1.35-.18 2.11s-.06 1.56-.07 2.16zM347.18 154.86l-.28-.24v-1c0-.59.09-1.39.17-2.15 0-.39.08-.76.13-1.12l.15-1 .16-.94.23.24-.16.94c-.1.58-.18 1.32-.25 2.1s-.13 1.57-.14 2.15zM346 153.84l-.27-.26.07-1c0-.3 0-.63.09-1s.09-.76.15-1.14c.2-1.53.55-3 .55-3l.21.25s-.09.37-.19.94-.22 1.31-.33 2.09-.17 1.55-.22 2.14zM344.91 152.77l-.26-.27.11-1c.08-.59.17-1.35.32-2.13s.3-1.52.42-2.07c.06-.27.13-.51.17-.67l.07-.25.2.26-.06.25-.15.67c-.12.56-.28 1.31-.42 2.08-.25 1.52-.4 3.13-.4 3.13zM343.84 151.65l-.26-.27v-.27l.11-.71c.1-.59.24-1.36.39-2.11s.36-1.51.51-2.06l.18-.66.07-.25.1.13.1.13-.25.91-.24 1-.13.55-.12.56c-.15.75-.29 1.53-.38 2.12 0 .3-.08.54-.1.71zM342.81 150.5l-.24-.28v-.27c0-.17.07-.41.13-.7.12-.59.29-1.35.48-2.1s.42-1.49.58-2l.29-.9.19.27-.29.91c-.08.27-.19.6-.28.95s-.19.72-.28 1.09c-.18.75-.36 1.53-.46 2.11zM341.83 149.31l-.23-.31s.31-1.55.77-3c.22-.74.45-1.46.65-2l.33-.89.18.28-.33.9c-.19.54-.41 1.26-.63 2-.11.37-.21.75-.31 1.11l-.23 1zM340.88 148.09l-.21-.3.25-1 .27-1c.1-.35.23-.73.36-1.09.25-.74.51-1.45.72-2l.37-.88.16.28-.1.24c-.07.16-.15.37-.25.64-.2.53-.47 1.25-.71 2s-.45 1.48-.61 2.06zM340 146.83l-.11-.15-.1-.16.3-1c.18-.57.42-1.3.7-2s.58-1.44.81-2 .4-.86.4-.86l.07.15a1.53 1.53 0 00.08.14l-.38.86c-.22.52-.53 1.24-.8 2s-.51 1.47-.69 2l-.21.69zM339.14 145.53l-.2-.31s.11-.37.33-.94.49-1.29.78-2 .64-1.42.88-1.93l.42-.84.15.29-.42.85c-.25.52-.58 1.22-.86 1.93s-.57 1.45-.78 2zM338.16 143.89l.18.32.26-.7c.16-.42.37-1 .62-1.51.48-1.09 1-2.12 1-2.12l-.4.19s-.45.91-.87 1.87c-.21.48-.42 1-.56 1.33zM337.42 142.53l.17.33s.23-.56.47-1.1.49-1.07.49-1.07l-.4.19-.37.82zM331 102.78l-.76 1.68c-.47 1.08-1.09 2.64-1.71 4.55a47.74 47.74 0 00-1.6 6.69 47.63 47.63 0 000 15.69 47.73 47.73 0 001.6 6.69 48.83 48.83 0 001.71 4.55l.76 1.68-.24.11-.76-1.68c-.47-1.08-1.1-2.65-1.72-4.58a48 48 0 01-1.61-6.72 47.88 47.88 0 010-15.78 48 48 0 011.61-6.72c.62-1.93 1.25-3.5 1.72-4.58l.77-1.69z" transform="translate(-319.1 -68.52)"/><path class="cls-1" d="M329.9 102.25l-.78 1.75c-.48 1.1-1.12 2.71-1.76 4.67a49 49 0 00-1.64 6.86 48.85 48.85 0 000 16.09 49 49 0 001.65 6.86c.64 2 1.28 3.57 1.76 4.67l.78 1.72-1.41.68-.81-1.78c-.5-1.14-1.16-2.79-1.82-4.82a50.52 50.52 0 01-1.7-7.08 50.42 50.42 0 010-16.6 50.54 50.54 0 011.7-7.08c.66-2 1.32-3.68 1.82-4.82l.81-1.78z" transform="translate(-319.1 -68.52)"/><path class="cls-1" d="M15.98 72.95l.33.73-3.52 1.69-.35-.79 3.54-1.63z"/><path class="cls-1" d="M334.29 139.65l.15.37.1.25.05.11-3.59 1.53-.06-.12-.11-.28-.16-.4zM332.44 134s0 .19.09.39l.11.38-3.77 1-.12-.42c-.06-.21-.1-.42-.1-.42zM332 132s0 .2.08.39l.09.39-3.81.84-.1-.42c-.05-.21-.09-.42-.09-.42z" transform="translate(-319.1 -68.52)"/><path class="cls-1" d="M12.3 59.58l.1.78-3.87.48-.11-.86 3.88-.4zM12.15 57.59l.06.79-3.9.3-.06-.86 3.9-.23zM12.1 53.61l-.02.79-3.9-.05.02-.87 3.9.13zM12.41 49.64l-.1.79-3.88-.41.11-.86 3.87.48zM12.7 47.67l-.14.78-3.85-.59.15-.85 3.84.66z"/><path class="cls-1" d="M332.18 114.24l-.09.39-.06.27v.12l-3.83-.77v-.13l.07-.29.1-.42zM332.66 112.3l-.11.38c0 .1-.05.19-.07.26v.12l-3.79-.95v-.13c0-.08 0-.18.07-.29l.12-.42zM333.22 110.4l-.13.38-.11.38-3.73-1.16.12-.42.14-.41zM333.87 108.51s-.08.18-.14.37l-.13.38-3.68-1.3.14-.41c.07-.21.15-.41.15-.41zM342.71 108.43l-.59 1.3c-.33.79-.76 1.84-1.11 2.93-.2.53-.33 1.09-.48 1.6s-.26 1-.36 1.42c-.21.83-.29 1.39-.29 1.39l.41.08s.08-.56.29-1.38c.1-.41.19-.89.35-1.4s.28-1.05.48-1.58c.34-1.07.77-2.12 1.09-2.9l.58-1.28zM339.56 119.09l.41.05-.11.85-.07 1c0 .38-.08.8-.07 1.27a33.89 33.89 0 00.41 6.82 35.09 35.09 0 001.74 6.58l.46 1.18c.14.35.29.64.4.89l.35.78-.38.18-.35-.79c-.11-.25-.26-.55-.4-.9l-.47-1.19a35.52 35.52 0 01-1.76-6.66 34.31 34.31 0 01-.41-6.9c0-.47 0-.9.07-1.29l.07-1z" transform="translate(-319.1 -68.52)"/><path class="cls-1" d="M341.18 129.53l1.56-.28-.07-.37c0-.22-.1-.52-.13-.82l-.15-1.2-1.57.16.16 1.26c0 .32.09.63.13.86zM343.93 109l-.29.64-.34.74c-.13.29-.24.62-.39 1a33.48 33.48 0 00-1.61 5.4 34.57 34.57 0 00-.65 5.61v2.58l1.58-.07v-.68-1.78a33 33 0 01.62-5.35 31.9 31.9 0 011.55-5.09c.14-.34.25-.66.37-.93l.32-.7.27-.61zM341.93 132.77l1.52-.43.06.22c0 .14.09.35.17.59l.32.85c.1.3.2.62.34.93l.36.93c.12.3.25.56.35.79l.35.77-1.43.69-.36-.81c-.11-.24-.25-.52-.37-.83l-.38-1c-.14-.33-.25-.67-.35-1l-.29-.86c-.08-.25-.13-.47-.18-.62zM320.27 134.9l.47 2c.14.61.35 1.3.56 2.05.11.37.21.76.34 1.15l.39 1.17.4 1.17.44 1.12c.29.72.54 1.4.81 2l.86 1.89 2.74-1.32-.81-1.78c-.25-.53-.49-1.17-.76-1.86l-.41-1.06-.38-1.11-.37-1.11c-.12-.37-.22-.73-.32-1.09-.2-.71-.4-1.36-.53-1.94l-.44-1.91zM319.34 118.35l-.16 2.09c0 .63 0 1.36-.07 2.15v3.71c0 .41.06.82.09 1.21l.09 1.13v.52l.06.49.27 2.09 3-.45-.25-2-.06-.46v-.5l-.08-1.07c0-.37-.06-.75-.08-1.14v-2.36-1.14c0-.74 0-1.44.07-2l.15-2zM324.54 99.66l-.54 1.19-.55 1.22-.57 1.43c-.19.49-.39 1-.55 1.44l-.43 1.27-.3.9c-.07.22-.1.35-.1.35l2.91.89s0-.12.1-.33l.29-.85c.24-.7.55-1.64.93-2.56l.54-1.35.52-1.16.51-1.13zM320.37 111.76l-.14.61c-.08.37-.16.86-.25 1.35l-.24 1.36c-.06.37-.09.62-.09.62l3 .43s0-.23.08-.59l.23-1.28c.09-.47.16-.93.24-1.28l.13-.58zM336.44 141.7l.45-.22-.66-1.48c-.41-.93-.94-2.28-1.48-3.93a41.19 41.19 0 01-1.38-5.77 41.09 41.09 0 010-13.56 41.19 41.19 0 011.38-5.77c.54-1.65 1.07-3 1.48-3.93l.66-1.45-.45-.22-.67 1.47c-.41.94-1 2.3-1.5 4a41.7 41.7 0 00-1.4 5.84 41.59 41.59 0 000 13.73 41.69 41.69 0 001.4 5.84c.54 1.67 1.09 3 1.5 4z" transform="translate(-319.1 -68.52)"/><path class="cls-1" d="M341.28 139.36l.45-.22-.57-1.26c-.35-.81-.82-2-1.29-3.41a35.81 35.81 0 01-1.2-5 35.71 35.71 0 010-11.81 35.79 35.79 0 011.2-5c.47-1.44.93-2.61 1.29-3.41l.57-1.26-.45-.22-.58 1.23c-.36.82-.83 2-1.3 3.46a36.3 36.3 0 00-1.22 5.08 36.22 36.22 0 000 12 36.3 36.3 0 001.22 5.08c.47 1.46.95 2.64 1.3 3.46z" transform="translate(-319.1 -68.52)"/><path class="cls-1" d="M340.79 138.27l-.49.89-.48.91.4-.19.35-.66.36-.65zM340.26 137l-.36.58-.36.6-.38.7c-.52 1-1 2-1 2l.4-.19s.43-.88.89-1.72c.23-.42.45-.83.63-1.13l.31-.51zM336.89 141.48l-.15-.34.43-.9.45-.89.26-.49.29-.51c.39-.68.79-1.33 1.09-1.81.15-.24.28-.44.38-.58l.15-.22.1.31s-.82 1.25-1.59 2.62-1.41 2.81-1.41 2.81zM336.25 140.07l-.15-.34.12-.24.34-.64c.29-.52.67-1.2 1.07-1.86s.85-1.31 1.17-1.77l.54-.77.11.31-.54.78c-.32.47-.76 1.12-1.15 1.78s-.78 1.35-1.06 1.87c-.15.26-.25.48-.33.64zM335.66 138.65l-.14-.34s.19-.35.48-.85.73-1.18 1.15-1.82.88-1.27 1.23-1.73l.58-.75.09.31-.58.76c-.36.46-.78 1.09-1.2 1.74-.87 1.28-1.61 2.68-1.61 2.68zM335.12 137.2l-.12-.35.52-.84c.3-.49.76-1.15 1.22-1.78s.9-1.23 1.28-1.68l.61-.73.07.32s-.25.29-.61.74-.81 1.05-1.26 1.69-.88 1.29-1.2 1.79zM334.63 135.73l-.1-.36.56-.82c.34-.49.78-1.11 1.28-1.73s1-1.2 1.34-1.63c.18-.21.35-.39.46-.51l.18-.19.06.32-.17.19-.45.52c-.37.43-.86 1-1.34 1.64-.94 1.23-1.82 2.57-1.82 2.57zM334.21 134.25l-.1-.36s1-1.3 1.93-2.48 2.07-2.26 2.07-2.26l.06.32-.65.69c-.38.42-.93 1-1.4 1.59s-1 1.22-1.33 1.69c-.18.24-.33.44-.42.58zM333.84 132.75l-.08-.36.17-.21c.11-.14.25-.33.44-.56.38-.46.9-1.06 1.41-1.63s1.06-1.12 1.47-1.52l.68-.66v.32l-.68.66c-.42.41-.94 1-1.45 1.54s-1 1.18-1.4 1.64zM333.53 131.23l-.07-.37.64-.75c.37-.44.93-1 1.47-1.58s1.08-1.08 1.52-1.47l.72-.63v.33s-.29.25-.71.64-1 .92-1.5 1.48c-.27.28-.55.57-.79.84l-.66.75zM333.26 129.71v-.37l.68-.73c.41-.43.93-1 1.52-1.52s1.14-1 1.57-1.41l.53-.44.21-.16v.33s-1.15 1-2.29 2-2.22 2.3-2.22 2.3zM333.07 128.18v-.37l.19-.2.52-.51c.43-.41 1-1 1.57-1.46s1.19-1 1.64-1.35l.75-.58v.29l-.75.59c-.44.36-1.06.85-1.62 1.37s-1.14 1.06-1.57 1.48c-.22.21-.39.39-.5.51zM332.93 126.64v-.37l.71-.67c.45-.4 1-.92 1.64-1.41l.88-.7.8-.59.78-.55v.33l-.78.56c-.48.34-1.06.81-1.66 1.31-1.25.98-2.37 2.09-2.37 2.09zM332.84 125.1v-.37l.75-.65c.23-.19.48-.41.77-.64l.91-.7c.63-.47 1.23-.91 1.71-1.23l.81-.52v.33l-.22.14-.57.39c-.46.32-1.09.77-1.71 1.25s-1.22 1-1.67 1.36zM332.8 123.55v-.37l.78-.62c.47-.36 1.07-.84 1.72-1.28s1.29-.86 1.77-1.16.81-.49.81-.49v.32l-.8.5c-.48.31-1.13.73-1.77 1.18-1.26.89-2.51 1.92-2.51 1.92zM332.84 122v-.37l.21-.17.59-.43c.49-.35 1.13-.79 1.77-1.22s1.33-.81 1.82-1.1l.83-.46v.32l-.83.47-.85.5c-.31.19-.62.4-.95.61-.64.43-1.29.88-1.78 1.23zM332.93 120.46v-.37l.81-.56c.49-.33 1.17-.75 1.83-1.15l1-.57.87-.46.85-.43-.06.32-.85.43c-.52.27-1.16.64-1.83 1s-1.34.83-1.81 1.16zM333.07 118.92v-.37l.93-.55.85-.52 1-.56c.69-.37 1.36-.71 1.88-1l.87-.39-.07.32-.24.11-.62.3c-.51.25-1.19.6-1.88 1-.35.19-.68.38-1 .57l-.85.53zM333.26 117.39v-.36l.86-.5c.52-.29 1.19-.67 1.89-1s1.4-.66 1.93-.88l.63-.27.25-.1v.32l-.87.37c-.52.23-1.23.55-1.92.9s-1.37.73-1.89 1l-.63.36zM333.53 115.87l.06-.37s.34-.2.87-.46 1.24-.62 1.94-.93 1.43-.6 2-.81l.89-.33-.09.31-.89.34-.92.37-1 .46c-.7.32-1.41.67-1.94.95zM333.84 114.35l.08-.36.88-.43c.53-.25 1.27-.57 2-.86l1-.41.93-.33.9-.29-.1.31-.91.3c-.55.18-1.24.46-2 .76s-1.45.62-2 .88zM334.21 112.85l.1-.36.91-.4.92-.38 1.08-.4c.74-.26 1.45-.5 2-.67l.92-.26-.12.3-.25.07-.66.2c-.54.17-1.26.41-2 .68l-.55.2-.52.21-.92.39zM334.63 111.37s0-.09.05-.18l.06-.18.93-.36c.56-.21 1.27-.48 2-.71s1.49-.44 2-.59.92-.23.92-.23l-.07.15-.06.15-.91.24c-.55.15-1.29.36-2 .6s-1.46.52-2 .73l-.67.26zM335.12 109.9l.12-.35s.37-.14.94-.33 1.31-.42 2.05-.63 1.51-.38 2.06-.51l.92-.19-.13.3-.93.2c-.56.13-1.32.31-2.05.53s-1.49.46-2.06.65zM335.8 108.11l-.14.34.71-.23c.42-.14 1-.31 1.57-.46 1.15-.31 2.27-.54 2.27-.54l-.4-.19s-1 .22-2 .48-2.01.6-2.01.6zM336.4 106.69l-.15.34 1.16-.32 1.14-.29-.4-.19-.87.22zM363.48 76.9l-.48.1c-.31.08-.76.16-1.32.33s-1.26.34-2 .59l-1.24.42-.67.23-.69.27-1.46.58-1.53.69c-.26.12-.53.24-.8.37l-.8.41c-.54.28-1.1.55-1.64.87a46.22 46.22 0 00-6.54 4.39 49.51 49.51 0 00-5.73 5.39 50.61 50.61 0 00-4.24 5.46 50.557 50.557 0 00-2.49 4.18l-.85 1.6-.24-.11.85-1.65c.55-1 1.39-2.51 2.51-4.2a50.87 50.87 0 014.24-5.45 49.78 49.78 0 015.77-5.42 46.49 46.49 0 016.57-4.42c.54-.33 1.11-.59 1.65-.87l.8-.41c.27-.13.54-.25.8-.37l1.54-.69 1.51-.59.69-.27.67-.23 1.24-.42c.78-.25 1.48-.43 2-.6s1-.26 1.33-.33l.47-.11z" transform="translate(-319.1 -68.52)"/><path class="cls-1" d="M363.21 75.7l-.48.11c-.31.08-.78.17-1.36.34s-1.29.35-2.09.61l-1.27.43-.69.23-.71.27-1.5.59-1.57.7c-.27.12-.55.24-.82.38l-.82.42c-.55.29-1.13.56-1.68.89a47.45 47.45 0 00-6.7 4.51 50.72 50.72 0 00-5.88 5.53 51.84 51.84 0 00-4.33 5.56c-1.14 1.72-2 3.22-2.56 4.28l-.86 1.69-1.41-.68.89-1.74c.58-1.1 1.46-2.64 2.64-4.42a53.39 53.39 0 014.47-5.74 52.29 52.29 0 016.07-5.66 49 49 0 016.92-4.65c.57-.34 1.16-.62 1.73-.92l.8-.43c.28-.14.57-.26.84-.39.56-.25 1.1-.5 1.62-.73l1.55-.61.73-.28.71-.24 1.31-.44c.83-.26 1.56-.45 2.16-.63s1.08-.27 1.4-.35l.5-.12z" transform="translate(-319.1 -68.52)"/><path class="cls-1" d="M16.67 35.68l-.36.7-3.52-1.69.4-.77 3.48 1.76z"/><path class="cls-1" d="M336.71 102.44l-.2.34-.2.35-3.43-1.86.21-.38.22-.38zM340 97.46l-.25.31c-.12.16-.23.32-.23.32l-3.14-2.31s.12-.18.26-.35l.27-.34zM341.24 95.91l-.26.3-.25.31-3-2.46.27-.34.28-.33zM343.94 93l-.09.09-.19.19-.27.29-2.79-2.73.3-.31.21-.21.1-.09zM345.39 91.61s-.15.13-.29.27l-.29.27-2.66-2.85.31-.3c.15-.15.32-.29.32-.29zM348.46 89.09l-.31.24-.31.25-2.39-3.08.34-.27.34-.27z" transform="translate(-319.1 -68.52)"/><path class="cls-1" d="M32.67 18.34l-.67.43-2.1-3.29.73-.47 2.04 3.33zM34.39 17.34l-.69.4-1.94-3.39.75-.43 1.88 3.42zM36.16 16.43l-.71.36-1.78-3.47.77-.4 1.72 3.51zM37.97 15.59l-.73.33-1.62-3.55.79-.36 1.56 3.58zM39.81 14.85l-.74.29-1.45-3.62.81-.32 1.38 3.65zM41.69 14.19l-.75.25-1.28-3.68.82-.28 1.21 3.71z"/><path class="cls-1" d="M366.36 89.57a34.64 34.64 0 00-4.36 1.29c-.53.22-1.06.41-1.56.62l-1.33.6-1.27.65.16.37 1.26-.64 1.32-.59c.49-.21 1-.4 1.54-.61a34.21 34.21 0 014.33-1.26zM356.05 93.74l.22.36-.72.46c-.23.15-.51.31-.82.53l-1 .74a34.39 34.39 0 00-9.13 10.06l-.63 1.1c-.19.33-.32.63-.45.87l-.39.76-.38-.18.4-.77c.13-.24.27-.55.46-.88l.64-1.11a34.81 34.81 0 019.24-10.18l1-.75c.31-.22.6-.39.83-.54z" transform="translate(-319.1 -68.52)"/><path class="cls-1" d="M348.91 101.52l1.19 1 .25-.29c.14-.18.36-.39.57-.61l.57-.6c.08-.08.15-.15.2-.19l.08-.07-1.11-1.13-.08.08s-.13.11-.21.2l-.6.63c-.22.23-.45.45-.6.64zM366.66 90.9l-.69.16c-.44.1-1 .3-1.79.49a35.33 35.33 0 00-5.18 2.13 34.56 34.56 0 00-4.8 3c-.61.48-1.12.87-1.46 1.15l-.53.46 1 1.19.51-.44c.33-.27.82-.65 1.39-1.1a33 33 0 014.57-2.82 33.74 33.74 0 015-2c.71-.19 1.29-.38 1.7-.47l.65-.15zM346.85 104.13l1.29.92-.49.69-.47.73c-.17.27-.36.55-.52.85l-.5.86c-.16.27-.28.55-.4.77l-.39.75-1.43-.69.41-.79c.13-.23.25-.52.42-.81l.52-.91c.17-.31.37-.61.55-.89l.49-.77zM331.68 88.53l-1.28 1.63c-.39.48-.8 1.08-1.25 1.71-.22.32-.46.64-.69 1l-.67 1-.66 1c-.21.35-.41.7-.6 1-.38.68-.76 1.3-1 1.86l-.94 1.85 2.74 1.32.89-1.74c.26-.53.62-1.11 1-1.75.18-.32.37-.65.57-1l.63-1 .63-1c.22-.32.44-.63.65-.93.43-.6.81-1.16 1.18-1.62l1.12-1.4zM344 77.48s-.72.44-1.74 1.18c-.51.37-1.12.78-1.73 1.28l-1 .75-.49.39-.48.41c-.63.55-1.28 1.09-1.85 1.63l-1.56 1.49-1.45 1.52 2.3 2.06 1.37-1.43 1.47-1.4c.54-.51 1.15-1 1.75-1.54l.45-.39.46-.37.9-.71c.58-.47 1.15-.86 1.64-1.21 1-.7 1.64-1.12 1.64-1.12zM361.89 69.9l-1.28.3c-.76.19-1.77.49-2.78.78s-2 .66-2.73.93l-1.22.48 1.12 2.82 1.15-.45c.7-.25 1.64-.56 2.58-.87s1.9-.55 2.62-.73l1.21-.28zM349.83 74.17l-1.78.91c-.44.23-.87.49-1.2.68l-.54.31 1.54 2.63.51-.29c.31-.17.71-.42 1.13-.64l1.68-.86zM336.44 105.4l.45.22.73-1.42c.47-.9 1.2-2.15 2.15-3.61a44.1 44.1 0 013.65-4.68 43 43 0 015-4.66 41.22 41.22 0 0111-6.31l.59-.23.58-.19 1.07-.36c.67-.21 1.27-.37 1.76-.51s.88-.22 1.14-.29l.41-.09-.11-.49-.41.09c-.27.07-.66.14-1.16.29s-1.1.3-1.78.52l-1.11.32-.58.2-.6.23a41.72 41.72 0 00-11.15 6.38 43.46 43.46 0 00-5 4.72 44.6 44.6 0 00-3.69 4.74c-1 1.47-1.7 2.74-2.18 3.65z" transform="translate(-319.1 -68.52)"/><path class="cls-1" d="M341.28 107.74l.45.22.63-1.23c.41-.78 1-1.87 1.87-3.14a38.74 38.74 0 013.18-4.08 37.59 37.59 0 014.32-4.06 35.81 35.81 0 019.58-5.45l.52-.2.5-.17.93-.31c.58-.19 1.1-.32 1.53-.44s.76-.19 1-.25l.35-.08L366 88l-.36.08c-.23.06-.58.12-1 .25s-1 .26-1.55.45l-.94.32-.51.17-.52.2a36.32 36.32 0 00-9.72 5.56 38.1 38.1 0 00-4.4 4.15 39.23 39.23 0 00-3.22 4.13c-.84 1.28-1.48 2.39-1.9 3.18z" transform="translate(-319.1 -68.52)"/><path class="cls-1" d="M341.83 106.67l-1 .17-1 .19.4.19.74-.14.73-.12zM342.48 105.48l-.67.08-.7.09-.78.13c-1.07.19-2.18.44-2.18.44l.4.19s1-.21 1.9-.38 1.87-.28 1.87-.28zM336.89 105.62l.17-.33 1-.22c.58-.12 1.33-.29 2.11-.4s1.53-.22 2.09-.28l.69-.06h.26l-.18.27h-.26l-.68.08c-.56.07-1.33.17-2.1.29-1.54.26-3.1.65-3.1.65zM337.59 104.24l.17-.33.27-.05.71-.13c.59-.1 1.36-.22 2.12-.32 1.57-.18 3.06-.25 3.06-.25l-.18.28-.94.06c-.56 0-1.36.1-2.11.21s-1.54.23-2.13.34l-.7.14zM338.34 102.89l.18-.32h.27l.71-.11c.59-.08 1.38-.17 2.14-.24s1.55-.1 2.12-.12h.95l-.19.27h-2l-1.12.09c-.77.08-1.57.16-2.14.25zM339.14 101.57l.2-.31s1.57-.21 3.13-.27c.77 0 1.53-.06 2.11 0h1l-.2.26h-1c-.57 0-1.33 0-2.11.06l-1.15.07-1 .1zM340 100.27l.22-.3 1-.07 1-.06h3.26l1 .06-.21.25H343.2c-.79 0-1.55.06-2.14.1zM340.88 99l.11-.15.11-.15h3.15c.78 0 1.55.07 2.12.12s.94.09.94.09l-.11.12-.11.12-.94-.08c-.57 0-1.35-.09-2.12-.1s-1.55 0-2.15 0-1 .03-1 .03zM341.83 97.79l.23-.29h1c.61 0 1.38 0 2.15.08s1.55.14 2.11.2l.94.12-.23.24-.95-.14c-.57-.07-1.35-.14-2.11-.18s-1.56-.06-2.16-.07zM342.81 96.6l.24-.28h1c.59 0 1.39.09 2.15.17l1.12.13 1 .15.91.23-.24.23L348 97c-.58-.1-1.32-.18-2.1-.25s-1.57-.13-2.15-.14zM343.84 95.45l.26-.27 1 .07c.58 0 1.37.13 2.14.24 1.53.2 3 .55 3 .55l-.25.21-.94-.19c-.56-.1-1.31-.22-2.09-.33s-1.55-.17-2.14-.22zM344.91 94.33l.27-.26 1 .11c.59.08 1.35.17 2.13.32s1.52.3 2.07.42l.62.18.25.07-.26.2-.25-.06-.67-.15c-.56-.12-1.31-.28-2.08-.42-1.48-.26-3.08-.41-3.08-.41zM346 93.26l.27-.26h.27l.71.11c.59.1 1.36.24 2.11.39s1.51.36 2.06.51l.66.18.25.07-.13.1-.13.1-.91-.25-1-.24-.55-.13-.56-.12c-.75-.15-1.53-.29-2.12-.38l-.71-.1zM347.18 92.24l.28-.24h.27l.7.13c.59.12 1.35.29 2.1.48s1.49.42 2 .58l.9.29-.27.19-.91-.29-.95-.28-1.09-.28c-.75-.18-1.53-.36-2.11-.46zM348.37 91.25l.29-.23s1.55.31 3 .77c.74.22 1.46.45 2 .65l.89.33-.28.18-.9-.33c-.54-.19-1.26-.41-2-.63l-1.11-.31-1-.23zM349.59 90.3l.3-.21 1 .25 1 .27 1.02.39c.74.25 1.45.51 2 .72l.88.37-.28.16-.24-.1-.64-.25c-.53-.2-1.25-.47-2-.71s-1.48-.45-2.06-.61zM350.85 89.41l.15-.11.16-.1 1 .3c.57.19 1.3.42 2 .7s1.44.58 2 .81.86.4.86.4l-.15.07-.14.08-.86-.38c-.52-.22-1.24-.53-2-.8s-1.47-.51-2-.69l-.69-.21zM352.15 88.56l.31-.2s.37.11.94.33 1.29.49 2 .78 1.42.64 1.93.88l.84.42-.29.15-.88-.41c-.52-.25-1.22-.58-1.93-.86s-1.45-.57-2-.78zM353.47 87.77l.32-.18.92.35c.55.22 1.28.54 2 .87l1 .49.87.46.83.46-.3.13-.84-.46c-.51-.28-1.19-.6-1.9-.93s-1.44-.64-2-.84zM354.82 87l.33-.17.91.39.94.43 1 .52c.69.36 1.35.71 1.85 1l.82.5-.3.12-.22-.14-.6-.35c-.49-.28-1.16-.64-1.86-1s-1.4-.67-1.95-.91zM356.2 86.31l.34-.15.9.43.88.41.49.26.51.29c.68.39 1.33.79 1.81 1.09l.58.38.22.15-.31.1s-1.25-.82-2.62-1.59-2.8-1.37-2.8-1.37zM357.6 85.67l.34-.15.24.12.64.36c.52.29 1.2.67 1.86 1.07s1.31.85 1.77 1.17l.77.54-.31.11-.78-.54c-.47-.32-1.12-.76-1.78-1.15s-1.35-.78-1.87-1.06l-.64-.33zM359 85.09l.34-.14.85.48c.51.31 1.18.73 1.82 1.15s1.27.88 1.73 1.23l.75.58-.31.09-.76-.58c-.46-.36-1.09-.78-1.74-1.2-1.25-.87-2.68-1.61-2.68-1.61zM360.48 84.55l.35-.12.84.52c.49.3 1.15.76 1.78 1.22s1.23.9 1.68 1.28l.73.61-.32.07-.74-.61c-.44-.35-1.05-.81-1.69-1.26s-1.29-.88-1.79-1.2zM362.3 84l-.36.1s1 .67 2 1.36c.47.34.94.72 1.28 1l.56.46-.1-.43-.5-.41c-.3-.24-.71-.58-1.13-.88-.86-.65-1.75-1.2-1.75-1.2zM363.79 83.53l-.36.1s.49.33 1 .7l.94.73-.1-.43-.72-.56zM404 86.14l-.38-.3c-.25-.19-.6-.49-1.08-.83s-1.06-.76-1.73-1.22l-1.1-.7c-.39-.25-.79-.51-1.23-.76l-1.36-.78c-.48-.26-1-.51-1.49-.77l-.78-.4L394 80c-.56-.24-1.11-.52-1.7-.74a46 46 0 00-7.52-2.37 47.43 47.43 0 00-7.8-1.11c-.63-.05-1.25 0-1.85-.07h-3.46l-1.56.12a45.56 45.56 0 00-4.82.65l-.77.14-.57.13-.47.11-.06-.26.47-.11.57-.13.78-.14a45.85 45.85 0 014.85-.65l1.57-.12H375.13c.61 0 1.23 0 1.86.07a47.7 47.7 0 017.84 1.12 46.24 46.24 0 017.56 2.36c.59.22 1.15.5 1.71.74l.82.37.79.4c.51.27 1 .52 1.5.78l1.37.79c.44.25.85.51 1.24.76l1.1.71c.68.46 1.26.89 1.74 1.23s.83.64 1.09.83l.38.3z" transform="translate(-319.1 -68.52)"/><path class="cls-1" d="M404.72 85.19l-.39-.31c-.26-.19-.62-.5-1.11-.85s-1.08-.78-1.77-1.25l-1.12-.72c-.4-.25-.81-.52-1.26-.77l-1.4-.8c-.49-.27-1-.52-1.53-.79l-.8-.41-.84-.38c-.57-.25-1.14-.53-1.74-.76A47.21 47.21 0 00385 75.7a48.66 48.66 0 00-8-1.14c-.64-.05-1.28 0-1.9-.07h-3.54l-1.6.12a46.79 46.79 0 00-4.94.66l-.79.14-.58.13-.48.11-.35-1.53.5-.11.6-.14.82-.15a48.35 48.35 0 015.1-.69l1.66-.12H375.15c.64 0 1.29 0 2 .07a50.24 50.24 0 018.25 1.18 48.78 48.78 0 018 2.51c.62.23 1.21.53 1.8.78l.8.41.83.42c.54.28 1.08.54 1.58.82l1.44.83c.47.26.89.54 1.3.8l1.16.75c.71.49 1.32.93 1.83 1.29s.88.68 1.14.88l.42.35z" transform="translate(-319.1 -68.52)"/><path class="cls-1" d="M46.24 12.97l-.77.17-.87-3.8.85-.2.79 3.83zM48.2 12.61l-.78.14-.69-3.84.86-.15.61 3.85zM54.15 12.09l-.8.02-.15-3.9.87-.03.08 3.91zM56.14 12.09l-.8-.02.03-3.9.87.02-.1 3.9z"/><path class="cls-1" d="M379.21 80.89l-.39-.05h-.39l.38-3.88h.43l.42.04zM381.18 81.17l-.39-.07-.4-.1.61-3.82.43.06.43.08zM385.07 82l-.38-.1-.39-.09.92-3.81.42.1c.21 0 .42.11.42.11z" transform="translate(-319.1 -68.52)"/><path class="cls-1" d="M69.78 14.66l-.76-.25 1.27-3.69.82.27-1.33 3.67zM71.63 15.39l-.74-.29 1.44-3.63.81.32-1.51 3.6zM73.44 16.2l-.72-.32 1.61-3.56.79.36-1.68 3.52zM75.22 17.1l-.71-.36 1.78-3.48.77.4-1.84 3.44zM76.96 18.08l-.69-.4 1.93-3.39.75.43-1.99 3.36zM78.64 19.14l-.67-.43 2.09-3.3.73.47-2.15 3.26z"/><path class="cls-1" d="M395.85 96.3l-.31-.24c-.2-.15-.47-.39-.82-.63l-1.2-.84-1.42-.9-1.46-.83-1.3-.67-1.3-.59-.17.38 1.28.58 1.29.66 1.45.78 1.4.89 1.18.83c.35.24.61.47.81.62l.31.24zM386.16 90.82l-.14.39-.21-.07-.6-.2-.93-.31-1.22-.35a35.14 35.14 0 00-6.73-1.1 34.55 34.55 0 00-6.83.24l-.66.08-.59.11-1 .17c-.27 0-.47.11-.61.14l-.22.05-.09-.41.22-.05c.14 0 .35-.09.62-.14l1-.17.6-.11.67-.08a35 35 0 016.91-.24 35.55 35.55 0 016.81 1.11l1.24.35.94.31.6.2z" transform="translate(-319.1 -68.52)"/><path class="cls-1" d="M375.65 90.1l-.07 1.58h.37l.83.07c.3 0 .61 0 .83.07h.37l.19-1.57-.39-.05c-.23 0-.55 0-.87-.08l-.91-.01H375.6zM395 97.36l-.56-.44-.29-.23-.36-.25-.86-.61a35.12 35.12 0 00-4.93-2.76 33.41 33.41 0 00-5.3-1.9c-.74-.19-1.37-.32-1.81-.43l-.69-.12-.29 1.56.66.12c.41.11 1 .23 1.72.41a31.82 31.82 0 015 1.81 33.54 33.54 0 014.71 2.62l.82.58.38.28.28.22.52.38zM372.3 90.11l.08 1.58-.85.07c-.25 0-.55 0-.87.07l-1 .13-.5.07-.48.09-.86.15c-.25 0-.45.1-.6.13l-.23.05-.35-1.54.24-.06c.15 0 .37-.1.63-.14l.9-.16.51-.09.53-.07 1-.13c.33 0 .64-.05.91-.08zM375 68.54h-2.07c-.62 0-1.34 0-2.12.08l-2.42.19-2.41.31c-.77.11-1.48.25-2.09.36l-.84.15-.64.14-.56.13.67 3 .53-.12.6-.14.79-.14c.58-.1 1.25-.23 2-.34l2.28-.29 2.29-.18c.73-.06 1.41-.05 2-.07s1.07 0 1.41 0h.58zM391.4 71.3l-.55-.18c-.35-.13-.86-.26-1.46-.44-1.21-.37-2.85-.76-4.5-1.1l-2.43-.43-2.14-.27c-.63-.09-1.15-.11-1.52-.15h-.58l-.22 3h.54c.35 0 .84.05 1.43.14l2 .26 2.3.41c1.56.32 3.11.69 4.25 1 .57.17 1.05.29 1.38.41l.52.17zM408.44 80.54l-1-.81c-.62-.49-1.48-1.07-2.33-1.68s-1.76-1.14-2.42-1.56l-1.13-.66-1.56 2.64 1.07.62c.62.4 1.46.92 2.28 1.47s1.62 1.13 2.2 1.59l1 .76zM397.6 73.77l-1.83-.82c-.46-.2-.93-.38-1.28-.52l-.58-.23-1.09 2.8.55.22c.33.13.77.3 1.21.49l1.72.78zM364.82 82.78l.11.49.41-.09.49-.11.67-.12a39.06 39.06 0 014.16-.56l1.35-.1H375c.52 0 1.06 0 1.6.06a40.88 40.88 0 016.73 1 39.46 39.46 0 016.48 2c.51.19 1 .43 1.47.64l.72.28.67.34c.44.23.88.44 1.29.67l1.16.72c.38.21.73.44 1.06.65l.95.61c.58.4 1.08.76 1.49 1.06s.72.55.93.72l.33.26.31-.39-.33-.26c-.22-.16-.52-.43-.94-.73s-.92-.66-1.51-1.07l-1-.61c-.34-.22-.69-.45-1.08-.66l-1.19-.68c-.42-.23-.86-.44-1.3-.68l-.68-.35-.72-.32c-.49-.21-1-.46-1.48-.65a40 40 0 00-6.56-2.07 41.38 41.38 0 00-6.81-1c-.55 0-1.09 0-1.62-.06H371.94l-1.37.1a39.54 39.54 0 00-4.21.57l-.67.12-.49.11z" transform="translate(-319.1 -68.52)"/><path class="cls-1" d="M366 88l.11.49.35-.08.42-.1.58-.1a33.68 33.68 0 013.62-.49l1.18-.09h4.01a35.49 35.49 0 015.86.84 34.07 34.07 0 015.63 1.78c.44.16.86.38 1.27.56l.61.28.59.3c.38.2.76.38 1.12.58l1 .59c.33.18.63.38.92.57l.82.53 1.3.92c.36.25.62.48.81.62l.29.22.31-.39-.29-.23c-.19-.14-.46-.38-.82-.63l-1.32-.93-.84-.53c-.29-.19-.6-.39-.94-.58l-1-.6c-.36-.2-.75-.38-1.14-.59l-.59-.3-.62-.28c-.42-.18-.84-.4-1.29-.56a34.57 34.57 0 00-5.71-1.8 36 36 0 00-5.94-.85h-4.05l-1.19.09a34.19 34.19 0 00-3.67.49l-.59.1-.43.1z" transform="translate(-319.1 -68.52)"/><path class="cls-1" d="M367.18 87.78l-.23-.22-.52-.47-.78-.65.1.43.56.48.38.33.17.15zM368.52 87.53s-.76-.74-1.58-1.48l-.61-.54-.54-.45-.54-.43.1.43.47.38c.28.23.64.53 1 .86.72.64 1.39 1.29 1.39 1.29zM364.93 83.27l.36-.08.21.17c.14.11.33.25.56.44.46.38 1.06.9 1.63 1.41s1.12 1.06 1.52 1.47l.66.68h-.32l-.66-.68c-.41-.42-1-.94-1.54-1.45s-1.18-1-1.64-1.4zM366.44 83l.37-.07.75.64c.44.37 1 .93 1.58 1.47s1.08 1.08 1.47 1.52l.63.72h-.33s-.25-.29-.64-.71-.92-1-1.48-1.5c-.28-.27-.57-.55-.84-.79l-.75-.66zM368 82.69h.37l.73.68c.43.41 1 .94 1.52 1.52s1 1.14 1.41 1.57c.18.21.34.4.44.53l.16.21h-.33s-1-1.15-2-2.29-2.3-2.22-2.3-2.22zM369.5 82.49h.37l.2.19.51.52c.41.43 1 1 1.46 1.57s1 1.19 1.35 1.64l.61.7h-.33l-.67-.74c-.36-.44-.85-1.06-1.37-1.62s-1.06-1.14-1.48-1.57c-.21-.22-.39-.39-.51-.5zM371 82.36h.37s.28.28.67.71.92 1 1.4 1.64c.25.3.48.59.7.88l.59.8.55.78H375l-.56-.78c-.34-.48-.81-1.06-1.31-1.66-.98-1.25-2.13-2.37-2.13-2.37zM372.58 82.27h.42l.6.73c.19.23.41.48.64.77l.7.91c.47.63.91 1.23 1.23 1.71l.52.81h-.33l-.14-.2c-.09-.14-.22-.34-.39-.57-.32-.46-.77-1.09-1.25-1.71s-1-1.22-1.36-1.67zM374.13 82.23h.37l.62.77c.36.47.84 1.07 1.28 1.72s.86 1.29 1.16 1.77.49.81.49.81h-.32l-.5-.8c-.31-.48-.73-1.13-1.18-1.77-.9-1.25-1.92-2.5-1.92-2.5zM375.67 82.27h.33l.17.21.43.59c.35.49.79 1.13 1.21 1.77s.81 1.33 1.1 1.82l.46.83h-.32l-.47-.83-.5-.85c-.19-.31-.4-.62-.61-.95-.43-.64-.88-1.29-1.23-1.78s-.57-.81-.57-.81zM377.22 82.36h.37l.56.81c.33.49.75 1.17 1.15 1.83l.57 1c.17.32.33.62.46.87l.43.85-.32-.06-.44-.85c-.27-.52-.64-1.16-1-1.83s-.83-1.34-1.16-1.81zM378.76 82.49h.37l.53.84.52.85c.18.32.37.67.56 1 .37.69.71 1.36 1 1.88l.34.94-.32-.07-.11-.24c-.07-.16-.17-.37-.3-.62-.25-.51-.6-1.19-1-1.88-.19-.35-.38-.68-.57-1l-.53-.85zM380.29 82.69h.36l.5.86c.29.52.67 1.19 1 1.89s.66 1.4.88 1.93l.27.63.1.25h-.32l-.37-.87c-.23-.52-.55-1.23-.9-1.92s-.73-1.37-1-1.89l-.36-.63zM381.81 83h.37s.2.34.46.87.62 1.24.93 1.94.6 1.43.81 2l.33.89-.31-.09-.34-.89-.37-.92c-.14-.33-.3-.68-.46-1-.32-.7-.67-1.41-.95-1.94zM383.32 83.27l.36.08.43.88c.25.53.57 1.27.86 2 .15.36.29.71.41 1s.23.66.33.93l.29.94-.3-.1-.3-.91c-.18-.55-.46-1.24-.76-2s-.62-1.45-.88-2zM384.82 83.63l.36.1.4.91.42.92c.13.35.27.72.4 1.08.26.74.5 1.45.67 2l.26.92-.3-.12-.07-.25c0-.16-.11-.39-.2-.66-.17-.54-.41-1.27-.68-2l-.2-.55-.21-.52-.39-.92zM386.31 84.06l.18.05.18.06.33.93c.21.56.48 1.27.71 2s.44 1.49.59 2 .23.92.23.92l-.13-.02-.15-.06L388 89c-.15-.55-.36-1.29-.6-2s-.52-1.46-.73-2l-.26-.67zM387.78 84.55l.35.12s.14.37.33.94.42 1.31.63 2.05.38 1.51.51 2.06l.19.92-.3-.13-.2-.93c-.13-.56-.31-1.32-.53-2.05s-.46-1.49-.65-2.06-.33-.92-.33-.92zM389.22 85.09l.35.14.3.94c.17.57.37 1.34.55 2.09.09.38.18.74.25 1.1l.18 1 .15.89-.29-.15-.16-.94c-.1-.58-.27-1.3-.45-2.06s-.39-1.53-.57-2.08zM390.65 85.67l.35.16.26 1c.15.56.33 1.34.48 2.1.32 1.51.48 3 .48 3l-.28-.16s0-.38-.13-.95-.22-1.31-.38-2.08-.34-1.52-.5-2.09zM392.06 86.31l.33.17.22 1c.12.58.29 1.33.4 2.11s.22 1.53.28 2.09c0 .28 0 .52.06.69v.26l-.27-.18v-.26l-.08-.7a71.6 71.6 0 00-.29-2.1c-.27-1.51-.65-3.08-.65-3.08zM393.43 87l.33.17.05.27.13.71c.1.59.22 1.36.32 2.12.18 1.57.25 3.06.25 3.06l-.28-.18-.06-.94c0-.56-.1-1.36-.21-2.11s-.23-1.54-.34-2.13c-.05-.3-.1-.53-.14-.7zM394.78 87.77l.32.23v.27c0 .17.07.41.11.71.08.59.17 1.38.24 2.14s.1 1.55.12 2.12v.95l-.27-.19v-1-1c0-.37-.06-.74-.09-1.12-.08-.77-.16-1.57-.25-2.14zM396.11 88.56l.31.2s.21 1.57.27 3.13c0 .77.06 1.53 0 2.11v1l-.26-.2v-1c0-.57 0-1.33-.06-2.11 0-.39 0-.78-.07-1.15l-.1-1zM397.7 89.62l-.3-.22s.11 1.21.16 2.38v2.35l.28-.35V91.7c0-1.08-.14-2.08-.14-2.08zM399 90.52l-.15-.11-.15-.11V92.69l.28-.35v-.91zM422 123.55v-1.84c0-.59-.07-1.3-.13-2.11s-.17-1.73-.3-2.73a47.49 47.49 0 00-12.62-26.18c-.35-.36-.68-.72-1-1l-.94-.9c-.58-.57-1.13-1-1.57-1.42s-.79-.69-1-.88l-.38-.3.16-.21.38.3c.25.19.6.5 1 .89s1 .85 1.58 1.43l.95.9c.33.33.66.68 1 1a47.75 47.75 0 0112.69 26.33c.13 1 .26 1.92.3 2.74s.13 1.53.13 2.12v1.85H422z" transform="translate(-319.1 -68.52)"/><path class="cls-1" d="M423.21 123.55v-1.89c0-.6-.07-1.33-.13-2.17s-.18-1.78-.31-2.8a48.71 48.71 0 00-12.94-26.86c-.36-.37-.69-.73-1-1.07l-1-.92c-.6-.59-1.16-1.06-1.61-1.45s-.81-.71-1.07-.9l-.39-.31 1-1.23.4.32c.27.2.63.53 1.1.93s1 .89 1.66 1.5l1 1c.34.34.69.72 1.06 1.1a51.15 51.15 0 018.84 12.8 51.7 51.7 0 013 7.79c.18.64.38 1.27.52 1.89l.42 1.83c.13.6.22 1.18.33 1.75s.2 1.11.26 1.64c.14 1.06.27 2 .32 2.89s.13 1.61.14 2.23v1.95h-1.57zM401.53 90.46l-.09-.08-.21-.17-.32-.21 2.43-3 .34.27.23.18.1.09z" transform="translate(-319.1 -68.52)"/><path class="cls-1" d="M83.94 23.24l-.6-.52 2.57-2.93.66.57-2.63 2.88zM88.07 27.56l-.52-.6 2.95-2.55.56.65-2.99 2.5zM89.3 29.12l-.49-.62 3.07-2.42.53.68-3.11 2.36zM91.56 32.4l-.43-.67 3.27-2.12.47.73-3.31 2.06zM92.56 34.12l-.39-.69 3.37-1.97.43.76-3.41 1.9zM94.34 37.68l-.33-.72 3.54-1.65.36.79-3.57 1.58zM95.78 41.39l-.26-.75 3.68-1.31.28.82-3.7 1.24zM96.36 43.29l-.22-.76 3.74-1.13.24.83-3.76 1.06zM96.86 45.22l-.18-.77 3.79-.96.19.84-3.8.89zM97.27 47.17l-.14-.78 3.82-.78.16.85-3.84.71z"/><path class="cls-1" d="M416.68 117.65l-.05-.39c0-.2-.06-.39-.06-.39l3.86-.6s0 .21.06.43l.06.43zM416.91 119.63v-.4-.39l3.88-.42s0 .21.05.43v.43zM409 123.55v-1.43c0-.43-.06-.93-.09-1.46 0-.27 0-.55-.07-.82l-.11-.85c0-.28-.06-.57-.11-.84l-.15-.81-.13-.76-.15-.67-.23-1c-.06-.24-.11-.38-.11-.38l-.4.11s0 .13.1.37l.23 1 .15.66.07.73.15.8c0 .27.07.56.11.83l.11.84c0 .28 0 .55.07.81 0 .53.1 1 .09 1.45v1.42h.47zM407.21 112.56l-.4.13-.27-.81c-.08-.26-.22-.56-.35-.91s-.28-.75-.48-1.17a33.72 33.72 0 00-3.33-5.94 35 35 0 00-4.44-5.18 29.74 29.74 0 00-2.34-2l.26-.33a30.14 30.14 0 012.37 2.07 35.4 35.4 0 014.5 5.24 34.15 34.15 0 013.37 6c.21.42.34.83.49 1.19s.27.66.36.92z" transform="translate(-319.1 -68.52)"/><path class="cls-1" d="M401.23 103.88l-1.28.93.7 1 .65 1 1.35-.83-.65-1.06zM407.62 123.55v-1.52c0-.32 0-.67-.07-1.05 0-.77-.17-1.66-.29-2.62l-.26-1.46c-.1-.49-.23-1-.34-1.49a34.12 34.12 0 00-1.83-5.32l-.43-1c-.13-.28-.27-.52-.37-.72l-.32-.63-1.4.75.3.6c.1.19.22.42.35.69l.41.91a32.53 32.53 0 011.74 5.07c.1.48.22 1 .32 1.42l.25 1.39c.11.91.24 1.76.28 2.49 0 .37.07.7.07 1v1.46h1.58zM399.14 101.28l-1.14 1.06s-.22-.26-.58-.62l-.6-.63c-.22-.23-.48-.45-.72-.69-.48-.48-1-.91-1.39-1.25-.19-.17-.35-.3-.47-.39l-.24-.16 1-1.24.19.15c.13.09.3.23.5.41.4.36 1 .8 1.46 1.31.26.25.52.49.76.73l.63.66c.37.38.6.66.6.66zM417.7 90l-.35-.45c-.23-.28-.54-.7-.94-1.17L415 86.73c-.52-.58-1.1-1.17-1.67-1.77-1.17-1.17-2.37-2.31-3.33-3.11-.47-.4-.86-.75-1.15-1l-.45-.35-1.9 2.38.5.37c.27.21.64.54 1.08.92.9.75 2 1.83 3.14 2.94.54.57 1.09 1.13 1.58 1.67l1.31 1.52c.38.45.67.84.89 1.11l.33.42zM425.76 104.48l-.77-2c-.23-.59-.55-1.25-.87-2s-.7-1.47-1.09-2.22c-.19-.37-.38-.75-.58-1.11l-.6-1.06-.57-1c-.18-.31-.37-.6-.54-.86l-.83-1.23c-.2-.31-.32-.48-.32-.48l-2.51 1.72s.12.16.31.45l.78 1.21c.16.25.34.52.51.82l.54.93.57 1c.19.34.36.7.55 1.05.36.71.73 1.41 1 2.1s.61 1.31.82 1.87l.73 1.85zM429.16 123.55v-2.64c0-.49-.07-1-.1-1.53s-.08-1-.12-1.53l-.17-1.33-.17-1.3-3 .46.16 1.23.16 1.26c0 .46.08 1 .12 1.45s.08 1 .1 1.45v2.49h3zM427.68 110.87l-.14-.61c-.08-.37-.22-.85-.35-1.33l-.38-1.33-.13-.44-.05-.16-2.9.91.05.15.12.41.36 1.25c.13.46.26.91.33 1.26l.13.58zM400.2 90.86l-.31.39.33.26c.22.16.51.43.9.76s.88.73 1.35 1.22l.81.78c.28.28.56.59.86.9a41 41 0 0110.86 22.6c.11.86.22 1.65.26 2.36s.11 1.32.11 1.83v1.59h.5v-1.61c0-.51-.06-1.13-.11-1.85s-.15-1.51-.26-2.39a41.45 41.45 0 00-11-22.87c-.31-.32-.59-.63-.87-.91l-.82-.79c-.51-.5-1-.9-1.37-1.24s-.69-.61-.91-.77z" transform="translate(-319.1 -68.52)"/><path class="cls-1" d="M396.84 95.06l-.31.39.29.22c.19.14.44.38.78.66s.75.63 1.18 1.07l.71.67.75.78c.54.53 1.05 1.18 1.63 1.82s1.12 1.39 1.65 2.17a36.94 36.94 0 013 5.09 36.23 36.23 0 013.19 10.56c.09.75.2 1.44.22 2.05s.1 1.15.1 1.59v1.39h.5v-1.41c0-.45-.06-1-.1-1.61s-.13-1.32-.23-2.08a36.73 36.73 0 00-3.2-10.68 37.44 37.44 0 00-3.05-5.16c-.54-.79-1.13-1.51-1.67-2.2s-1.1-1.31-1.65-1.85l-.76-.8-.75-.73c-.44-.44-.86-.79-1.2-1.08s-.6-.53-.79-.67z" transform="translate(-319.1 -68.52)"/><path class="cls-1" d="M397.77 95.83l.07-1v-1l-.28.35v1.48zM398.79 96.73v-.19-.49c0-.4.07-.94.1-1.49.07-1.11 0-2.21 0-2.21l-.28.35v1.92c0 1-.13 1.89-.13 1.89l.12.11zM399.88 91.25l.29.23v1c0 .61 0 1.38-.08 2.15s-.14 1.55-.2 2.11l-.12.94-.24-.23.12-.94c.07-.57.14-1.35.18-2.11s.06-1.56.07-2.16zM401.07 92.24l.28.24v1c0 .59-.09 1.39-.17 2.15 0 .39-.08.76-.13 1.12l-.15 1-.16.94-.23-.24.16-.94c.1-.58.18-1.32.25-2.1s.13-1.57.14-2.15zM402.23 93.26l.27.26-.07 1c0 .58-.13 1.37-.24 2.14-.2 1.53-.55 3-.55 3l-.21-.25s.09-.37.19-.94.22-1.31.33-2.09.17-1.55.22-2.14zM403.35 94.33l.26.27-.11 1c-.08.59-.17 1.35-.32 2.13s-.3 1.52-.42 2.07c-.06.27-.13.51-.17.67l-.07.25-.2-.26.06-.25.15-.67c.12-.56.28-1.31.42-2.08.24-1.52.4-3.13.4-3.13zM404.41 95.45l.26.27v.27l-.11.71c-.1.59-.24 1.36-.39 2.11s-.36 1.51-.51 2.06l-.18.66-.07.25-.1-.13-.1-.13.25-.91.24-1 .13-.55.12-.56c.15-.75.29-1.53.38-2.12 0-.3.08-.54.1-.71zM405.44 96.61l.24.28v.27c0 .17-.07.41-.13.7-.12.59-.29 1.35-.48 2.1s-.42 1.49-.58 2l-.29.9-.19-.27.29-.91c.08-.27.19-.6.28-.95s.19-.72.28-1.09c.18-.75.36-1.53.46-2.11zM406.43 97.79l.23.29s-.31 1.55-.77 3c-.22.74-.45 1.46-.65 2l-.33.89-.18-.28.33-.9c.19-.54.41-1.26.63-2 .11-.37.21-.75.31-1.11l.23-1zM407.37 99l.21.3-.25 1-.27 1c-.1.35-.23.73-.36 1.09-.25.74-.51 1.45-.72 2l-.37.88-.16-.28.1-.24c.07-.16.15-.37.25-.64.2-.53.47-1.25.71-2s.45-1.48.61-2.06zM408.27 100.28l.11.15.1.16-.3 1c-.19.57-.42 1.3-.7 2s-.58 1.44-.81 2-.4.86-.4.86l-.07-.15a1.53 1.53 0 00-.08-.14l.38-.86c.22-.52.53-1.24.8-2s.51-1.47.69-2l.21-.69zM409.11 101.57l.2.31s-.11.37-.33.94-.49 1.29-.78 2-.64 1.42-.89 1.93l-.42.84-.15-.29.42-.85c.25-.52.58-1.22.86-1.93s.57-1.45.78-2zM409.91 102.89l.18.32-.35.92c-.22.55-.54 1.28-.87 2-.16.35-.33.69-.49 1l-.46.87-.46.83-.13-.3.46-.84c.28-.51.6-1.19.93-1.9s.64-1.44.84-2zM410.66 104.24l.17.33-.39.91c-.12.27-.25.58-.42.91l-.52 1c-.36.69-.71 1.35-1 1.85l-.5.82-.12-.3.14-.22c.08-.14.22-.35.35-.6.28-.49.64-1.16 1-1.86s.67-1.4.91-1.95zM411.37 105.62l.15.34-.43.9-.45.89-.26.49-.29.51c-.39.68-.79 1.33-1.09 1.81-.15.24-.28.44-.38.58l-.15.22-.1-.31s.82-1.25 1.59-2.62 1.41-2.81 1.41-2.81zM412 107l.15.34-.12.24-.34.64c-.29.52-.67 1.2-1.07 1.86s-.85 1.31-1.17 1.77l-.54.77-.11-.31.54-.78c.32-.47.76-1.12 1.15-1.78s.78-1.35 1.06-1.87c.15-.26.25-.48.33-.64zM412.59 108.46l.14.34s-.19.35-.48.85-.73 1.18-1.15 1.82-.88 1.27-1.23 1.73l-.58.75-.09-.31.58-.76c.36-.46.78-1.09 1.2-1.74.87-1.29 1.61-2.68 1.61-2.68zM413.13 109.9l.12.35-.52.84c-.3.49-.76 1.15-1.22 1.78s-.9 1.23-1.28 1.68l-.61.73-.07-.32s.25-.29.61-.74.81-1.05 1.26-1.69.88-1.29 1.2-1.79zM413.62 111.37l.1.36-.56.82c-.34.49-.78 1.11-1.28 1.73s-1 1.2-1.34 1.63c-.18.21-.35.39-.46.51l-.18.19-.06-.32.18-.19.45-.52c.37-.43.86-1 1.34-1.64.93-1.23 1.81-2.57 1.81-2.57zM414 112.85l.1.36s-1 1.3-1.93 2.48-2.07 2.26-2.07 2.26l-.06-.32.65-.69c.38-.42.93-1 1.4-1.59s1-1.22 1.33-1.69c.18-.24.33-.44.42-.58zM414.41 114.35l.08.36-.17.21c-.11.14-.25.33-.44.56-.38.46-.9 1.06-1.41 1.63s-1.06 1.12-1.47 1.52l-.68.66v-.32l.68-.66c.42-.41.94-1 1.45-1.54s1-1.18 1.4-1.64zM414.72 115.87l.07.37-.64.75c-.37.44-.93 1-1.47 1.58s-1.08 1.08-1.52 1.47l-.72.63v-.33l.71-.64c.41-.39 1-.92 1.5-1.48.27-.28.55-.57.79-.84l.66-.75zM415 117.39v.37l-.68.73c-.41.43-.93 1-1.52 1.52s-1.14 1-1.57 1.41l-.53.44-.21.16v-.33s1.15-1 2.29-2 2.22-2.3 2.22-2.3zM415.18 118.92v.37l-.19.2-.52.51c-.43.41-1 1-1.57 1.46s-1.19 1-1.64 1.35l-.75.58v-.33l.75-.59c.44-.36 1.06-.85 1.62-1.37s1.14-1.06 1.57-1.48c.22-.21.39-.39.5-.51zM415.35 120.83v-.37l-.54.52-.55.52-.66.58c-.91.78-1.81 1.48-1.81 1.48h.44s.8-.62 1.59-1.31c.39-.34.81-.69 1.09-1zM415.42 122.38V122l-.9.79-.9.76h.38l.69-.58z" transform="translate(-319.1 -68.52)"/></svg>