<svg preserveAspectRatio="none" id="图层_1" data-name="图层 1" xmlns="http://www.w3.org/2000/svg" xmlns:xlink="http://www.w3.org/1999/xlink" viewBox="0 0 103.17 103.17"><defs><style>.cls-1{fill:#2e2855;}.cls-2{fill:#d13954;}.cls-3{fill:#3ee497;}.cls-4{fill:#3d6db8;}.cls-5{fill:url(#linear-gradient);}.cls-6{fill:url(#linear-gradient-2);}</style><linearGradient id="linear-gradient" x1="29.91" y1="99.37" x2="29.91" gradientUnits="userSpaceOnUse"><stop offset="0.03" stop-color="#71ebb2"/><stop offset="0.99" stop-color="#339567"/></linearGradient><linearGradient id="linear-gradient-2" x1="69.27" y1="103.17" x2="69.27" y2="4.35" gradientUnits="userSpaceOnUse"><stop offset="0.01" stop-color="#5d85c4"/><stop offset="1" stop-color="#334f7e"/></linearGradient></defs><title>未标题-1</title><path class="cls-1" d="M52.83,95.67A42.83,42.83,0,1,1,95.67,52.83,42.88,42.88,0,0,1,52.83,95.67Zm0-80.67A37.83,37.83,0,1,0,90.67,52.83,37.88,37.88,0,0,0,52.83,15Z"/><path class="cls-2" d="M36.36,80.65a32.43,32.43,0,0,1-12.5-13.47l3.58-1.78a28.45,28.45,0,0,0,11,11.81Z"/><path class="cls-3" d="M58.58,83.64l-0.37-2A29.44,29.44,0,0,0,79.44,65.19a29.34,29.34,0,0,0,1.08-22.07A29.52,29.52,0,0,0,70.31,29.28l1.19-1.6A31.51,31.51,0,0,1,82.4,42.46,31.34,31.34,0,0,1,81.25,66,31.43,31.43,0,0,1,58.58,83.64Z"/><path class="cls-4" d="M28.71,40l-5.29-2.83a33.62,33.62,0,0,1,16-14.84A33,33,0,0,1,52.83,19.5a33.66,33.66,0,0,1,4,.24l-0.72,6a27.54,27.54,0,0,0-3.3-.2,27.06,27.06,0,0,0-11,2.31A27.59,27.59,0,0,0,28.71,40Z"/><path class="cls-5" d="M27.81,99.37A52.84,52.84,0,0,1,52.83,0a53.48,53.48,0,0,1,7,.46l-0.66,5A48.48,48.48,0,0,0,52.83,5,47.84,47.84,0,0,0,30.18,95Z"/><path class="cls-6" d="M54.83,103.17h-4v-10h4v10Zm3.9-.31L57.17,93l4-.63,1.56,9.88Zm-11.8,0-4-.63,1.56-9.88,4,0.63Zm19.55-1.54L63.4,91.81l3.8-1.24,3.09,9.51Zm-27.3,0-3.8-1.24,3.09-9.51,3.8,1.24ZM73.9,98.59l-4.54-8.91,3.56-1.82,4.54,8.91Zm6.9-3.86-5.88-8.09,3.24-2.35L84,92.38ZM87,89.84l-7.07-7.07,2.83-2.83L89.84,87ZM92.38,84l-8.09-5.88,2.35-3.24,8.09,5.88Zm4.39-6.57-8.91-4.54,1.82-3.56,8.91,4.54Zm3.31-7.18L90.57,67.2l1.24-3.8,9.51,3.09Zm2.15-7.61-9.88-1.56,0.63-4,9.88,1.56Zm0.93-7.85h-10v-4h10v4ZM93,48.5l-0.63-4L102.23,43l0.63,4Zm-1.17-6.23-1.24-3.8,9.51-3.09,1.24,3.8Zm-2.13-6-1.82-3.56,8.91-4.54,1.82,3.56Zm-3-5.56-2.35-3.24,8.09-5.88,2.35,3.24Zm-3.87-5L79.94,22.9,87,15.83l2.83,2.83Zm-4.61-4.35L74.92,19l5.88-8.09L84,13.29ZM72.93,17.8L69.36,16,73.9,7.08l3.56,1.82ZM67.2,15.09l-3.8-1.24,3.09-9.51,3.8,1.24Z"/></svg>