<svg preserveAspectRatio="none" xmlns="http://www.w3.org/2000/svg" xmlns:xlink="http://www.w3.org/1999/xlink" viewBox="0 0 184.65 175.47"><defs><style>.cls-1{isolation:isolate;}.cls-2{fill:#29abe2;}.cls-10,.cls-3,.cls-6{fill:#fff;}.cls-3{opacity:0.56;}.cls-4{fill:aqua;}.cls-10,.cls-5{mix-blend-mode:overlay;}.cls-7{fill:#0071bc;}.cls-8{fill:#2e3192;}.cls-9{fill:url(#linear-gradient);}</style><linearGradient id="linear-gradient" x1="255.88" y1="142.67" x2="343.92" y2="217.16" gradientUnits="userSpaceOnUse"><stop offset="0" stop-color="red"/><stop offset="0.42" stop-color="#f60"/><stop offset="0.54" stop-color="#ff9300"/><stop offset="1" stop-color="red"/></linearGradient></defs><title>circle65</title><g class="cls-1"><g id="Layer_2" data-name="Layer 2"><path class="cls-2" d="M374.94,130.09h-2l-1.15,1.15H371a86.44,86.44,0,0,0-9.35-11.56c-1.6-1.66-3.26-3.25-5-4.77-0.5-.44-1-0.89-1.53-1.32l-0.79-.66-1-.84-0.67-.53c-0.53-.43-1.08-0.84-1.62-1.24-0.22-.17-0.45-0.34-0.68-0.49l-2.92,1.11-1.1.41q-1.51-1-3.08-2c-0.45-.28-0.93-0.56-1.39-0.83s-1.17-.71-1.77-1l0,0c-0.58-.32-1.16-0.63-1.75-0.95s-1-.52-1.44-0.76c-0.75-.39-1.52-0.74-2.28-1.1l-1-.5-0.74-.33c-1-.43-2-0.85-3-1.24l-0.05,0c-1-.39-2-0.76-3-1.11l-0.78-.28c-1-.32-1.95-0.63-2.93-0.93l-1-.28c-0.8-.23-1.6-0.44-2.42-0.64l-1.47,1.47c-0.27,0-.55-0.1-0.83-0.14l-0.34-.06-1.78-.28c-0.7-.11-1.43-0.2-2.14-0.29s-1.42-.18-2.15-0.25l-2.17-.2c-1.44-.12-2.91-0.22-4.37-0.28l-1.81-.07c-0.88,0-1.75,0-2.62,0s-1.74,0-2.62,0l-1.81.07c-1.46.07-2.93,0.16-4.37,0.28l-2.17.2c-0.72.07-1.43,0.16-2.15,0.25s-1.43.18-2.14,0.29l-1.78.28-0.34.06c-0.28,0-.55.09-0.83,0.14l-1.47-1.47c-0.81.2-1.62,0.41-2.42,0.64l-1,.28c-1,.3-2,0.6-2.93.93l-0.78.28c-1,.35-2,0.72-3,1.11l-0.05,0c-1,.39-2,0.81-3,1.24l-0.74.33-1,.5c-0.76.36-1.53,0.71-2.28,1.1-0.48.24-1,.51-1.44,0.76s-1.2.64-1.8,1l-0.13.07c-0.55.32-1.1,0.65-1.64,1s-0.94.55-1.39,0.83q-1.56,1-3.08,2l-1.1-.41-2.92-1.11c-0.23.16-.45,0.32-0.68,0.49-0.53.4-1.09,0.81-1.62,1.24l-0.67.53-1,.84-0.79.66c-0.52.43-1,.88-1.53,1.32-1.73,1.52-3.39,3.11-5,4.77A86.44,86.44,0,0,0,229,131.24h-0.77l-1.15-1.15h-2a90.82,90.82,0,0,1,26.52-26.33c2.4-1.55,4.89-3,7.44-4.32l1.2,0.47,2.62,0.89h0q2.47-1.19,5-2.21l1.71-.68,0.13,0c0.64-.24,1.27-0.47,1.92-0.69s1.37-.49,2.06-0.7,1.52-.47,2.27-0.7l0.68-.2c0.17,0,.33-0.09.51-0.13l0.57-.16,1.08-.29,0.57-.14,1-.25,1.35-.31c0.35-.08.7-0.15,1.06-0.22,0.55-.13,1.1-0.24,1.66-0.34s1.35-.24,2-0.36l2.12-.32h0.09l1.79-.22c0.93-.11,1.85-0.19,2.78-0.27l2.15-.14c0.7,0,1.39-.07,2.11-0.09l0.49,0c0.65,0,1.3,0,2,0s1.31,0,2,0l0.49,0c0.72,0,1.41,0,2.11.09l2.15,0.14c0.93,0.08,1.85.16,2.78,0.27L311.28,93h0.09l2.12,0.32c0.68,0.12,1.37.23,2,.36s1.12,0.21,1.67.34c0.36,0.07.72,0.14,1.06,0.22l1.35,0.31,1,0.25L321.22,95l1.08,0.29,0.57,0.16c0.18,0,.34.08,0.51,0.13l0.68,0.2c0.76,0.22,1.52.45,2.27,0.7s1.37,0.46,2.06.7,1.28,0.45,1.92.69l0.13,0,1.71,0.68q2.56,1,5,2.21h0l2.62-.89,1.2-.47q3.75,1.95,7.28,4.22A90.9,90.9,0,0,1,374.94,130.09Z" transform="translate(-207.68 -92.27)"/><path class="cls-2" d="M374.94,229.91a90.79,90.79,0,0,1-34,30.66l-1.2-.47-2.61-.89h0q-2.47,1.19-5,2.21l-1.71.68-0.13,0c-0.64.24-1.27,0.47-1.92,0.69s-1.37.49-2.06,0.7-1.52.47-2.27,0.7l-0.68.2c-0.17,0-.33.09-0.51,0.13l-0.57.16-1.08.29-0.57.14-1,.25-1.35.31c-0.35.08-.7,0.15-1.06,0.22-0.55.13-1.1,0.24-1.67,0.34s-1.35.24-2,.36l-2.12.32h-0.09l-1.79.22c-0.93.11-1.85,0.19-2.78,0.27l-2.15.14c-0.7,0-1.39.07-2.11,0.09l-0.49,0c-0.65,0-1.3,0-2,0s-1.31,0-2,0l-0.49,0c-0.72,0-1.41,0-2.11-.09l-2.15-.14c-0.93-.08-1.85-0.16-2.78-0.27l-1.79-.22h-0.09l-2.12-.32c-0.68-.11-1.37-0.23-2-0.36s-1.12-.21-1.66-0.34c-0.36-.07-0.72-0.14-1.06-0.22l-1.35-.31-1-.25-0.57-.14-1.08-.29-0.57-.16c-0.18,0-.34-0.08-0.51-0.13l-0.68-.2c-0.76-.22-1.52-0.45-2.27-0.7s-1.37-.46-2.06-0.7-1.28-.45-1.92-0.69l-0.13,0-1.71-.68q-2.56-1-5-2.21h0l-2.61.89-1.2.47a90.79,90.79,0,0,1-34-30.66h2l1.15-1.15H229a86.44,86.44,0,0,0,9.35,11.56c1.6,1.66,3.26,3.25,5,4.77,0.5,0.44,1,.89,1.53,1.32l0.79,0.66,1,0.84,0.67,0.53c0.53,0.43,1.08.84,1.62,1.24,0.22,0.17.45,0.34,0.68,0.49l2.92-1.11,1.1-.41q1.51,1,3.08,2c0.45,0.28.93,0.56,1.39,0.83s1.17,0.71,1.77,1,1.2,0.65,1.8,1,1,0.52,1.44.76c0.75,0.39,1.52.74,2.28,1.1l1,0.5,0.74,0.33c1,0.43,2,.85,3,1.24l0.05,0c1,0.39,2,.76,3,1.11l0.78,0.28c1,0.32,1.95.63,2.93,0.93l1,0.28c0.8,0.23,1.6.44,2.42,0.64l1.47-1.47c0.27,0,.55.1,0.83,0.14l0.34,0.06,1.78,0.28c0.7,0.11,1.43.2,2.14,0.29s1.42,0.18,2.15.25l2.17,0.2c1.44,0.12,2.91.22,4.37,0.28l1.81,0.07c0.88,0,1.75,0,2.62,0s1.74,0,2.62,0l1.81-.07c1.46-.07,2.93-0.16,4.37-0.28l2.17-.2c0.72-.07,1.43-0.16,2.15-0.25s1.43-.18,2.14-0.29l1.78-.28,0.34-.06c0.28,0,.55-0.09.83-0.14l1.47,1.47c0.81-.2,1.62-0.41,2.42-0.64l1-.28c1-.3,2-0.6,2.93-0.93l0.78-.28c1-.35,2-0.72,3-1.11l0.05,0c1-.39,2-0.81,3-1.24l0.74-.33,1-.5c0.76-.36,1.53-0.71,2.28-1.1,0.48-.24,1-0.51,1.44-0.76s1.2-.64,1.8-1,1.18-.7,1.77-1,0.94-.55,1.39-0.83q1.56-1,3.08-2l1.1,0.41,2.92,1.11c0.23-.16.45-0.32,0.68-0.49,0.53-.4,1.09-0.81,1.62-1.24l0.67-.53,1-.84,0.79-.66c0.52-.43,1-0.88,1.53-1.32,1.73-1.52,3.39-3.11,5-4.77A86.44,86.44,0,0,0,371,228.76h0.77l1.15,1.15h2Z" transform="translate(-207.68 -92.27)"/><path class="cls-3" d="M348.26,103.65L340,107.41c-0.58-.32-1.16-0.63-1.75-0.95s-1-.52-1.44-0.76c-0.75-.39-1.52-0.74-2.28-1.1l-1-.5-0.74-.33c-1-.43-2-0.85-3-1.24l-0.05,0c-1-.39-2-0.76-3-1.11l-0.78-.28c-1-.32-1.95-0.63-2.93-0.93l-1-.28c-0.8-.23-1.6-0.44-2.42-0.64l-1.47,1.47c-0.27,0-.55-0.1-0.83-0.14l-0.34-.06-1.78-.28c-0.7-.11-1.43-0.2-2.14-0.29s-1.42-.18-2.15-0.25l-2.17-.2c-1.44-.12-2.91-0.22-4.37-0.28l-1.81-.07c-0.88,0-1.75,0-2.62,0s-1.74,0-2.62,0l-1.81.07c-1.46.07-2.93,0.16-4.37,0.28l-2.17.2c-0.72.07-1.43,0.16-2.15,0.25s-1.43.18-2.14,0.29l-1.78.28-0.34.06c-0.28,0-.55.09-0.83,0.14l-1.47-1.47c-0.81.2-1.62,0.41-2.42,0.64l-1,.28c-1,.3-2,0.6-2.93.93l-0.78.28c-1,.35-2,0.72-3,1.11l-0.05,0c-1,.39-2,0.81-3,1.24l-0.74.33-1,.5c-0.76.36-1.53,0.71-2.28,1.1-0.48.24-1,.51-1.44,0.76s-1.2.64-1.8,1l-0.13.07-8.2-3.76c2.4-1.55,4.89-3,7.44-4.32l1.2,0.47,2.62,0.89h0q2.47-1.19,5-2.21l1.71-.68,0.13,0c0.64-.24,1.27-0.47,1.92-0.69s1.37-.49,2.06-0.7,1.52-.47,2.27-0.7l0.68-.2c0.17,0,.33-0.09.51-0.13l0.57-.16,1.08-.29,0.57-.14,1-.25,1.35-.31c0.35-.08.7-0.15,1.06-0.22,0.55-.13,1.1-0.24,1.66-0.34s1.35-.24,2-0.36l2.12-.32h0.09l1.79-.22c0.93-.11,1.85-0.19,2.78-0.27l2.15-.14c0.7,0,1.39-.07,2.11-0.09l0.49,0c0.65,0,1.3,0,2,0s1.31,0,2,0l0.49,0c0.72,0,1.41,0,2.11.09l2.15,0.14c0.93,0.08,1.85.16,2.78,0.27L311.28,93h0.09l2.12,0.32c0.68,0.12,1.37.23,2,.36s1.12,0.21,1.67.34c0.36,0.07.72,0.14,1.06,0.22l1.35,0.31,1,0.25L321.22,95l1.08,0.29,0.57,0.16c0.18,0,.34.08,0.51,0.13l0.68,0.2c0.76,0.22,1.52.45,2.27,0.7s1.37,0.46,2.06.7,1.28,0.45,1.92.69l0.13,0,1.71,0.68q2.56,1,5,2.21h0l2.62-.89,1.2-.47Q344.73,101.38,348.26,103.65Z" transform="translate(-207.68 -92.27)"/><path class="cls-3" d="M348.26,256.35L340,252.59c-0.58.32-1.16,0.63-1.75,0.95s-1,.52-1.44.76c-0.75.39-1.52,0.74-2.28,1.1l-1,.5-0.74.33c-1,.43-2,0.85-3,1.24l-0.05,0c-1,.39-2,0.76-3,1.11l-0.78.28c-1,.32-1.95.63-2.93,0.93l-1,.28c-0.8.23-1.6,0.44-2.42,0.64l-1.47-1.47c-0.27,0-.55.1-0.83,0.14l-0.34.06-1.78.28c-0.7.11-1.43,0.2-2.14,0.29s-1.42.18-2.15,0.25l-2.17.2c-1.44.12-2.91,0.22-4.37,0.28l-1.81.07c-0.88,0-1.75,0-2.62,0s-1.74,0-2.62,0l-1.81-.07c-1.46-.07-2.93-0.16-4.37-0.28l-2.17-.2c-0.72-.07-1.43-0.16-2.15-0.25s-1.43-.18-2.14-0.29l-1.78-.28-0.34-.06c-0.28,0-.55-0.09-0.83-0.14l-1.47,1.47c-0.81-.2-1.62-0.41-2.42-0.64l-1-.28c-1-.3-2-0.6-2.93-0.93l-0.78-.28c-1-.35-2-0.72-3-1.11l-0.05,0c-1-.39-2-0.81-3-1.24l-0.74-.33-1-.5c-0.76-.36-1.53-0.71-2.28-1.1-0.48-.24-1-0.51-1.44-0.76s-1.2-.64-1.8-1l-0.13-.07-8.2,3.76c2.4,1.55,4.89,3,7.44,4.32l1.2-.47,2.62-.89h0q2.47,1.19,5,2.21l1.71,0.68,0.13,0c0.64,0.24,1.27.47,1.92,0.69s1.37,0.49,2.06.7,1.52,0.47,2.27.7l0.68,0.2c0.17,0,.33.09,0.51,0.13l0.57,0.16,1.08,0.29,0.57,0.14,1,0.25,1.35,0.31c0.35,0.08.7,0.15,1.06,0.22,0.55,0.13,1.1.24,1.66,0.34s1.35,0.24,2,.36l2.12,0.32h0.09l1.79,0.22c0.93,0.11,1.85.19,2.78,0.27l2.15,0.14c0.7,0,1.39.07,2.11,0.09l0.49,0c0.65,0,1.3,0,2,0s1.31,0,2,0l0.49,0c0.72,0,1.41,0,2.11-.09l2.15-.14c0.93-.08,1.85-0.16,2.78-0.27l1.79-.22h0.09l2.12-.32c0.68-.11,1.37-0.23,2-0.36s1.12-.21,1.67-0.34c0.36-.07.72-0.14,1.06-0.22l1.35-.31,1-.25,0.57-.14,1.08-.29,0.57-.16c0.18,0,.34-0.08.51-0.13l0.68-.2c0.76-.22,1.52-0.45,2.27-0.7s1.37-.46,2.06-0.7,1.28-.45,1.92-0.69l0.13,0,1.71-.68q2.56-1,5-2.21h0l2.62,0.89,1.2,0.47Q344.73,258.62,348.26,256.35Z" transform="translate(-207.68 -92.27)"/><polygon class="cls-4" points="25.55 136.24 23.36 137.83 23.77 138.38 25.95 136.78 25.55 136.24"/><path class="cls-4" d="M243.75,240.38l-1.84,2,1.05,1,1.81-2Z" transform="translate(-207.68 -92.27)"/><path class="cls-4" d="M242.25,238.95l-1.89,1.93,1,1,1.86-2Z" transform="translate(-207.68 -92.27)"/><path class="cls-4" d="M246.85,243.13l-1.74,2.07,1.1,0.91,1.71-2.1Z" transform="translate(-207.68 -92.27)"/><path class="cls-4" d="M245.28,241.78l-1.8,2,1.08,0.94,1.76-2.06Z" transform="translate(-207.68 -92.27)"/><path class="cls-4" d="M240.78,237.48l-1.94,1.89,1,1,1.91-1.92Z" transform="translate(-207.68 -92.27)"/><path class="cls-4" d="M236.62,232.85l-2.08,1.73,0.92,1.09,2-1.77Z" transform="translate(-207.68 -92.27)"/><path class="cls-4" d="M239.36,236l-2,1.84,1,1,2-1.87Z" transform="translate(-207.68 -92.27)"/><path class="cls-4" d="M234,229.6l-2.16,1.63,0.87,1.14,2.13-1.67Z" transform="translate(-207.68 -92.27)"/><path class="cls-4" d="M238,234.43l-2,1.79,1,1.07,2-1.82Z" transform="translate(-207.68 -92.27)"/><path class="cls-4" d="M235.31,231.24l-2.12,1.68,0.9,1.11,2.09-1.72Z" transform="translate(-207.68 -92.27)"/><polygon class="cls-4" points="39.09 154.3 39.63 154.72 41.3 152.6 40.78 152.18 39.09 154.3"/><polygon class="cls-4" points="143.34 152.6 145.02 154.72 145.56 154.3 143.87 152.18 143.34 152.6"/><path class="cls-4" d="M363.82,232.32l2.09,1.72,0.9-1.11-2.12-1.68Z" transform="translate(-207.68 -92.27)"/><path class="cls-4" d="M362.48,233.9l2.05,1.77,0.92-1.09-2.08-1.74Z" transform="translate(-207.68 -92.27)"/><path class="cls-4" d="M361.11,235.46l2,1.82,1-1.07-2-1.79Z" transform="translate(-207.68 -92.27)"/><path class="cls-4" d="M365.12,230.7l2.13,1.67,0.87-1.14L366,229.6Z" transform="translate(-207.68 -92.27)"/><path class="cls-4" d="M359.7,237l2,1.87,1-1-2-1.84Z" transform="translate(-207.68 -92.27)"/><path class="cls-4" d="M352.08,244l1.71,2.1,1.1-.91-1.74-2.07Z" transform="translate(-207.68 -92.27)"/><path class="cls-4" d="M353.67,242.68l1.76,2.06,1.08-.94-1.8-2Z" transform="translate(-207.68 -92.27)"/><path class="cls-4" d="M355.23,241.31l1.81,2,1.05-1-1.84-2Z" transform="translate(-207.68 -92.27)"/><path class="cls-4" d="M358.24,238.46l1.91,1.92,1-1-1.94-1.89Z" transform="translate(-207.68 -92.27)"/><path class="cls-4" d="M356.76,239.91l1.86,2,1-1-1.9-1.93Z" transform="translate(-207.68 -92.27)"/><polygon class="cls-4" points="158.7 136.78 160.88 138.38 161.28 137.83 159.09 136.24 158.7 136.78"/><polygon class="cls-4" points="25.95 38.69 23.77 37.08 23.36 37.64 25.55 39.23 25.95 38.69"/><path class="cls-4" d="M240.3,123l-2-1.87-1,1,2,1.84Z" transform="translate(-207.68 -92.27)"/><path class="cls-4" d="M241.75,121.54l-1.91-1.92-1,1,1.94,1.88Z" transform="translate(-207.68 -92.27)"/><path class="cls-4" d="M243.24,120.09l-1.86-2-1,1,1.89,1.93Z" transform="translate(-207.68 -92.27)"/><path class="cls-4" d="M247.91,116l-1.71-2.1-1.1.91,1.74,2.07Z" transform="translate(-207.68 -92.27)"/><path class="cls-4" d="M246.32,117.32l-1.76-2.05-1.08.94,1.8,2Z" transform="translate(-207.68 -92.27)"/><path class="cls-4" d="M244.76,118.69l-1.81-2-1.05,1,1.85,2Z" transform="translate(-207.68 -92.27)"/><path class="cls-4" d="M234.88,129.31l-2.14-1.66-0.87,1.13L234,130.4Z" transform="translate(-207.68 -92.27)"/><path class="cls-4" d="M236.18,127.69L234.08,126l-0.9,1.11,2.12,1.68Z" transform="translate(-207.68 -92.27)"/><path class="cls-4" d="M238.89,124.54l-2-1.82-1,1.07,2,1.79Z" transform="translate(-207.68 -92.27)"/><path class="cls-4" d="M237.51,126.1l-2-1.77-0.92,1.09,2.08,1.74Z" transform="translate(-207.68 -92.27)"/><polygon class="cls-4" points="41.3 22.87 39.62 20.74 39.08 21.17 40.77 23.28 41.3 22.87"/><polygon class="cls-4" points="145.56 21.17 145.02 20.74 143.34 22.87 143.87 23.29 145.56 21.17"/><path class="cls-4" d="M366,130.4l2.16-1.63-0.87-1.14-2.13,1.66Z" transform="translate(-207.68 -92.27)"/><path class="cls-4" d="M362,125.57l2-1.79-1-1.07-2,1.82Z" transform="translate(-207.68 -92.27)"/><path class="cls-4" d="M360.64,124l2-1.84-1-1-2,1.87Z" transform="translate(-207.68 -92.27)"/><path class="cls-4" d="M359.22,122.53l1.94-1.89-1-1-1.91,1.92Z" transform="translate(-207.68 -92.27)"/><path class="cls-4" d="M363.38,127.15l2.08-1.73-0.92-1.09-2.05,1.77Z" transform="translate(-207.68 -92.27)"/><path class="cls-4" d="M364.69,128.76l2.12-1.68-0.9-1.11-2.09,1.72Z" transform="translate(-207.68 -92.27)"/><path class="cls-4" d="M357.75,121.05l1.9-1.93-1-1-1.86,2Z" transform="translate(-207.68 -92.27)"/><path class="cls-4" d="M356.25,119.62l1.85-2-1.05-1-1.81,2Z" transform="translate(-207.68 -92.27)"/><path class="cls-4" d="M353.15,116.87l1.74-2.07-1.1-.91-1.71,2.1Z" transform="translate(-207.68 -92.27)"/><path class="cls-4" d="M354.72,118.22l1.8-2-1.08-.94-1.76,2.06Z" transform="translate(-207.68 -92.27)"/><polygon class="cls-4" points="159.09 39.23 161.28 37.64 160.88 37.09 158.7 38.69 159.09 39.23"/><path class="cls-4" d="M242.17,130.38h0.9a75.65,75.65,0,0,1,38.27-23.61l3.09,4.7h31.13l3.09-4.7a75.55,75.55,0,0,1,38.28,23.61h0.9A76.33,76.33,0,0,0,319,106.17l-0.7-.17-0.39.6-2.75,4.19H284.8l-2.75-4.19-0.39-.6-0.7.17A76.43,76.43,0,0,0,242.17,130.38Z" transform="translate(-207.68 -92.27)"/><path class="cls-4" d="M357.83,229.62h-0.9a75.55,75.55,0,0,1-38.28,23.61l-3.09-4.7H284.43l-3.09,4.7a75.65,75.65,0,0,1-38.27-23.61h-0.9A76.43,76.43,0,0,0,281,253.83l0.7,0.17,0.39-.6,2.75-4.19h30.4l2.75,4.19,0.39,0.6,0.7-.17A76.33,76.33,0,0,0,357.83,229.62Z" transform="translate(-207.68 -92.27)"/><polygon class="cls-4" points="25.55 136.24 23.36 137.83 23.77 138.39 25.95 136.78 25.55 136.24"/><path class="cls-4" d="M243.75,240.38l-1.84,2,1.05,1,1.81-2Z" transform="translate(-207.68 -92.27)"/><path class="cls-4" d="M242.25,238.95l-1.89,1.93,1,1,1.86-2Z" transform="translate(-207.68 -92.27)"/><path class="cls-4" d="M246.85,243.13l-1.74,2.07,1.1,0.91,1.71-2.1Z" transform="translate(-207.68 -92.27)"/><path class="cls-4" d="M245.28,241.78l-1.8,2,1.08,0.94,1.76-2.06Z" transform="translate(-207.68 -92.27)"/><path class="cls-4" d="M240.78,237.48l-1.94,1.88,1,1,1.91-1.92Z" transform="translate(-207.68 -92.27)"/><path class="cls-4" d="M236.62,232.85l-2.08,1.73,0.92,1.09,2-1.77Z" transform="translate(-207.68 -92.27)"/><path class="cls-4" d="M239.36,236l-2,1.84,1,1,2-1.87Z" transform="translate(-207.68 -92.27)"/><path class="cls-4" d="M234,229.6l-2.16,1.63,0.87,1.14,2.13-1.67Z" transform="translate(-207.68 -92.27)"/><path class="cls-4" d="M238,234.43l-2,1.79,1,1.07,2-1.82Z" transform="translate(-207.68 -92.27)"/><path class="cls-4" d="M235.31,231.24l-2.12,1.68,0.9,1.11,2.09-1.72Z" transform="translate(-207.68 -92.27)"/><polygon class="cls-4" points="39.09 154.3 39.63 154.72 41.3 152.6 40.78 152.18 39.09 154.3"/><polygon class="cls-4" points="143.34 152.6 145.02 154.72 145.56 154.3 143.87 152.18 143.34 152.6"/><path class="cls-4" d="M363.82,232.32l2.09,1.72,0.9-1.11-2.12-1.68Z" transform="translate(-207.68 -92.27)"/><path class="cls-4" d="M362.48,233.91l2.05,1.77,0.92-1.09-2.08-1.74Z" transform="translate(-207.68 -92.27)"/><path class="cls-4" d="M361.11,235.46l2,1.82,1-1.07-2-1.79Z" transform="translate(-207.68 -92.27)"/><path class="cls-4" d="M365.12,230.7l2.13,1.67,0.87-1.14L366,229.6Z" transform="translate(-207.68 -92.27)"/><path class="cls-4" d="M359.7,237l2,1.87,1-1-2-1.84Z" transform="translate(-207.68 -92.27)"/><path class="cls-4" d="M352.08,244l1.71,2.1,1.1-.91-1.74-2.07Z" transform="translate(-207.68 -92.27)"/><path class="cls-4" d="M353.67,242.69l1.76,2.06,1.08-.94-1.8-2Z" transform="translate(-207.68 -92.27)"/><path class="cls-4" d="M355.23,241.32l1.81,2,1.05-1-1.84-2Z" transform="translate(-207.68 -92.27)"/><path class="cls-4" d="M358.24,238.46l1.91,1.92,1-1-1.94-1.89Z" transform="translate(-207.68 -92.27)"/><path class="cls-4" d="M356.76,239.91l1.86,2,1-1-1.9-1.93Z" transform="translate(-207.68 -92.27)"/><polygon class="cls-4" points="158.7 136.78 160.88 138.38 161.28 137.83 159.09 136.24 158.7 136.78"/><polygon class="cls-4" points="25.95 38.7 23.77 37.09 23.36 37.64 25.55 39.23 25.95 38.7"/><path class="cls-4" d="M240.3,123l-2-1.87-1,1,2,1.84Z" transform="translate(-207.68 -92.27)"/><path class="cls-4" d="M241.75,121.54l-1.91-1.92-1,1,1.94,1.88Z" transform="translate(-207.68 -92.27)"/><path class="cls-4" d="M243.24,120.1l-1.86-2-1,1,1.89,1.93Z" transform="translate(-207.68 -92.27)"/><path class="cls-4" d="M247.91,116l-1.71-2.1-1.1.91,1.74,2.07Z" transform="translate(-207.68 -92.27)"/><path class="cls-4" d="M246.32,117.32l-1.76-2.05-1.08.94,1.8,2Z" transform="translate(-207.68 -92.27)"/><path class="cls-4" d="M244.76,118.69l-1.81-2-1.05,1,1.85,2Z" transform="translate(-207.68 -92.27)"/><path class="cls-4" d="M234.88,129.31l-2.14-1.66-0.87,1.13,2.16,1.63Z" transform="translate(-207.68 -92.27)"/><path class="cls-4" d="M236.18,127.69L234.08,126l-0.9,1.11,2.12,1.68Z" transform="translate(-207.68 -92.27)"/><path class="cls-4" d="M238.89,124.54l-2-1.82-1,1.07,2,1.79Z" transform="translate(-207.68 -92.27)"/><path class="cls-4" d="M237.51,126.1l-2-1.77-0.92,1.09,2.08,1.73Z" transform="translate(-207.68 -92.27)"/><polygon class="cls-4" points="41.3 22.87 39.62 20.74 39.08 21.17 40.77 23.29 41.3 22.87"/><polygon class="cls-4" points="145.56 21.17 145.02 20.75 143.34 22.87 143.87 23.29 145.56 21.17"/><path class="cls-4" d="M366,130.4l2.16-1.63-0.87-1.14-2.13,1.66Z" transform="translate(-207.68 -92.27)"/><path class="cls-4" d="M362,125.58l2-1.79-1-1.07-2,1.82Z" transform="translate(-207.68 -92.27)"/><path class="cls-4" d="M360.64,124l2-1.84-1-1-2,1.87Z" transform="translate(-207.68 -92.27)"/><path class="cls-4" d="M359.22,122.53l1.94-1.89-1-1-1.91,1.92Z" transform="translate(-207.68 -92.27)"/><path class="cls-4" d="M363.38,127.15l2.08-1.73-0.92-1.09-2.05,1.77Z" transform="translate(-207.68 -92.27)"/><path class="cls-4" d="M364.69,128.76l2.12-1.68-0.9-1.11-2.09,1.72Z" transform="translate(-207.68 -92.27)"/><path class="cls-4" d="M357.75,121.05l1.9-1.93-1-1-1.86,2Z" transform="translate(-207.68 -92.27)"/><path class="cls-4" d="M356.25,119.62l1.85-2-1.05-1-1.81,2Z" transform="translate(-207.68 -92.27)"/><path class="cls-4" d="M353.15,116.87l1.74-2.07-1.1-.91-1.71,2.1Z" transform="translate(-207.68 -92.27)"/><path class="cls-4" d="M354.72,118.22l1.8-2-1.08-.94-1.76,2.06Z" transform="translate(-207.68 -92.27)"/><polygon class="cls-4" points="159.09 39.23 161.28 37.64 160.88 37.09 158.7 38.69 159.09 39.23"/><path class="cls-4" d="M281.35,106.77l3.09,4.7h31.13l3.09-4.7a75.55,75.55,0,0,1,38.28,23.61h0.9A76.33,76.33,0,0,0,319,106.17l-0.7-.17-0.39.6-2.75,4.19H284.8l-2.75-4.19-0.39-.6-0.7.17a76.43,76.43,0,0,0-38.78,24.21h0.9A75.65,75.65,0,0,1,281.35,106.77Z" transform="translate(-207.68 -92.27)"/><path class="cls-4" d="M318.65,253.23l-3.09-4.7H284.43l-3.09,4.7a75.65,75.65,0,0,1-38.27-23.61h-0.9A76.43,76.43,0,0,0,281,253.83l0.7,0.17,0.39-.6,2.75-4.19h30.4l2.75,4.19,0.39,0.6,0.7-.17a76.33,76.33,0,0,0,38.79-24.21h-0.9A75.55,75.55,0,0,1,318.65,253.23Z" transform="translate(-207.68 -92.27)"/><g class="cls-5"><path class="cls-6" d="M231.13,221.63h-4.89A84,84,0,0,1,218,201.16l-0.2-.81-0.26-1.19,1.67-1.09,3.77-2.47V164.39l-5.43-3.56,0.26-1.18c0-.16.19-0.77,0.19-0.77a83.6,83.6,0,0,1,8.28-20.51h4.89a79.8,79.8,0,0,0-8.81,20.57l4.86,3.19v35.75l-4.86,3.19A79.59,79.59,0,0,0,231.13,221.63Z" transform="translate(-207.68 -92.27)"/><path class="cls-6" d="M381.48,198.5l1,0.66-0.26,1.19-0.19.77a84.42,84.42,0,0,1-8.28,20.51h-4.89a79.59,79.59,0,0,0,8.82-20.57l-4.86-3.19V162.13l4.86-3.19a79.59,79.59,0,0,0-8.82-20.57h4.89A84.09,84.09,0,0,1,382,158.84s0.16,0.66.2,0.81l0.26,1.18-5.43,3.56V195.6Z" transform="translate(-207.68 -92.27)"/></g><g class="cls-5"><path class="cls-6" d="M231.35,221.76h-5.19l0-.06a84.32,84.32,0,0,1-8.28-20.5l-0.2-.81-0.28-1.28L219.1,198l3.71-2.43V164.46l-5.45-3.57,0.28-1.27c0-.16.19-0.77,0.19-0.77a83.86,83.86,0,0,1,8.29-20.54l0-.06h5.18l-0.12.19a79.72,79.72,0,0,0-8.77,20.45l4.84,3.17v35.88l-4.84,3.18a79.55,79.55,0,0,0,8.78,20.45Zm-5-.25h4.6a79.82,79.82,0,0,1-8.72-20.41l0-.09,4.88-3.2V162.19l-4.88-3.2,0-.09a80,80,0,0,1,8.71-20.41h-4.59a83.61,83.61,0,0,0-8.23,20.41h0s-0.15.61-.19,0.77l-0.25,1.1,5.42,3.55v31.34l-5.42,3.55,0.44,1.92A84.09,84.09,0,0,0,226.31,221.51Z" transform="translate(-207.68 -92.27)"/><path class="cls-6" d="M373.83,221.76h-5.18l0.12-.19a79.59,79.59,0,0,0,8.78-20.45l-4.84-3.18V162.06l4.84-3.17a79.57,79.57,0,0,0-8.78-20.45l-0.12-.19h5.19l0,0.06a84.37,84.37,0,0,1,8.28,20.5l0.2,0.81,0.28,1.27-5.45,3.57v31.07l5.45,3.57-0.28,1.28-0.19.77a84.67,84.67,0,0,1-8.3,20.54Zm-4.74-.25h4.59a84.42,84.42,0,0,0,8.24-20.41l0.19-.77,0.24-1.1-5.42-3.55V164.33l5.42-3.55-0.25-1.1-0.2-.8a84.11,84.11,0,0,0-8.22-20.38h-4.6a79.83,79.83,0,0,1,8.72,20.41l0,0.09-4.88,3.2v35.61l4.88,3.2,0,0.09A79.83,79.83,0,0,1,369.09,221.51Z" transform="translate(-207.68 -92.27)"/></g><path class="cls-7" d="M235.26,133.94H227.1l-1.15-1.15H224l-2.69,2.69v3.72l0.61,0.6A96.8,96.8,0,0,0,213.3,180v0.32a96.86,96.86,0,0,0,8.64,39.9l-0.61.6v3.72l2.69,2.69h1.93l1.15-1.15h8.16l0.76-.76h10.92V225H245l-0.82-.82H226.5l-1.57-1.58h-1.56a96.34,96.34,0,0,1-6.8-18.46H217a102.05,102.05,0,0,1-2.54-15.64h1.31a100.19,100.19,0,0,1,0-17.09h-1.31A102.05,102.05,0,0,1,217,155.82h-0.41a96.37,96.37,0,0,1,6.8-18.46h1.56l1.57-1.58h17.71L245,135h1.91V134.7H236Z" transform="translate(-207.68 -92.27)"/><path class="cls-7" d="M386.7,180a96.8,96.8,0,0,0-8.64-40.2l0.61-.6v-3.72L376,132.79h-1.93l-1.15,1.15h-8.16l-0.76.76H353.06V135H355l0.82,0.82H373.5l1.57,1.58h1.56a96.36,96.36,0,0,1,6.8,18.46H383a102.1,102.1,0,0,1,2.54,15.64h-1.31a100.19,100.19,0,0,1,0,17.09h1.31A102.1,102.1,0,0,1,383,204.18h0.4a96.35,96.35,0,0,1-6.8,18.46h-1.56l-1.57,1.58H355.79L355,225h-1.91v0.26H364l0.76,0.76h8.16l1.15,1.15H376l2.69-2.69V220.8l-0.61-.6a96.86,96.86,0,0,0,8.64-39.9V180Z" transform="translate(-207.68 -92.27)"/><path class="cls-8" d="M218.55,141l-3.47.76h0a102.56,102.56,0,0,0,0,76.51l3.46,0.76A99.66,99.66,0,0,1,218.55,141Z" transform="translate(-207.68 -92.27)"/><path class="cls-8" d="M384.92,141.75h0l-3.47-.76a99.66,99.66,0,0,1,0,78l3.46-.76A102.56,102.56,0,0,0,384.92,141.75Z" transform="translate(-207.68 -92.27)"/><path class="cls-9" d="M300,122.45A57.55,57.55,0,1,0,357.54,180,57.61,57.61,0,0,0,300,122.45Zm0,113.23A55.68,55.68,0,1,1,355.68,180,55.74,55.74,0,0,1,300,235.68Z" transform="translate(-207.68 -92.27)"/><path class="cls-10" d="M300.57,243.48l0-4,1,0,0.09,4Zm-5.1-.16-1-.08,0.34-4,1,0.08Zm11.22-.19-0.41-4,0.95-.11,0.48,4Zm-17.31-.54-1-.18,0.73-3.92,0.94,0.17Zm23.37-.39L312,238.3l0.93-.2,0.86,3.89Zm-29.36-.92-1-.28,1.1-3.83,0.92,0.26Zm35.31-.6-1.17-3.8,0.92-.29,1.23,3.79Zm-41.14-1.29-1-.37,1.47-3.7,0.9,0.35Zm46.91-.8-1.54-3.67,0.88-.38,1.59,3.65Zm-52.54-1.65-0.92-.46,1.82-3.54,0.86,0.43ZM330,236l-1.88-3.51,0.84-.46,1.94,3.48Zm-63.42-2-0.87-.55,2.15-3.35,0.81,0.51Zm68.67-1.15L333,229.5l0.79-.54,2.26,3.27Zm-73.72-2.33-0.81-.63,2.47-3.12,0.76,0.59Zm78.66-1.32-2.53-3.08,0.74-.61,2.57,3Zm-83.34-2.63-0.74-.7,2.76-2.87,0.7,0.66Zm87.89-1.47-2.8-2.83,0.67-.68,2.85,2.78Zm-92.18-2.91-0.67-.77,3-2.6,0.63,0.72Zm96.32-1.61L345.79,218l0.61-.75,3.1,2.49Zm-100.17-3.16-0.59-.83,3.25-2.3L251.9,215Zm103.86-1.74-3.29-2.24,0.54-.8,3.32,2.19Zm-107.23-3.38-0.51-.89,3.46-2,0.48,0.83Zm110.43-1.86-3.5-1.91,0.45-.85,3.52,1.85Zm-113.29-3.56-0.42-.93,3.63-1.63,0.4,0.87Zm116-2-3.66-1.56,0.37-.89,3.69,1.5Zm-118.29-3.71-0.33-1,3.77-1.27,0.31,0.91Zm120.41-2-3.8-1.2q0.14-.45.28-0.91l3.82,1.14C360.75,198.47,360.65,198.8,360.55,199.12ZM238.37,195.3q-0.12-.49-0.24-1l3.88-.89q0.11,0.47.22,0.93Zm123.73-2.11-3.9-.82q0.1-.47.19-0.94l3.91,0.76Q362.21,192.69,362.11,193.19Zm-124.92-3.91c0-.34-0.1-0.67-0.14-1l3.95-.51q0.06,0.48.13,1Zm125.89-2.14-4-.45c0-.32.07-0.63,0.1-0.95l4,0.37Q363.14,186.63,363.08,187.14Zm-126.49-4c0-.34,0-0.68,0-1l4-.13q0,0.48,0,1ZM363.47,181l-4-.06q0-.48,0-1v-0.21h4V180Q363.48,180.51,363.47,181Zm-122.91-3.79-4-.18q0-.51.05-1l4,0.25Q240.59,176.75,240.56,177.23ZM359.29,175q0-.48-0.09-1l4-.39q0,0.51.09,1Zm-118.19-3.5-3.94-.56q0.07-.51.15-1l3.93,0.63Q241.17,171,241.1,171.51Zm117.44-2.19q-0.09-.47-0.18-0.94l3.91-.77q0.1,0.5.19,1Zm-116.36-3.45-3.87-.94q0.12-.5.25-1l3.85,1Q242.3,165.4,242.19,165.87Zm115.06-2.15L357,162.8l3.81-1.15q0.15,0.49.29,1Zm-113.43-3.36L240.06,159l0.35-1,3.74,1.37Zm111.59-2.09-0.36-.89,3.68-1.51,0.38,0.95ZM246,155l-3.61-1.67,0.44-.93,3.58,1.74Zm107.08-2-0.44-.85,3.52-1.86,0.47,0.9Zm-104.41-3.11-3.44-2,0.53-.88,3.4,2.07ZM350.2,148l-0.52-.79,3.32-2.2,0.56,0.86Zm-98.41-2.93-3.23-2.33,0.61-.83,3.19,2.39Zm95.1-1.75-0.6-.75,3.1-2.5,0.63,0.79Zm-91.5-2.73-3-2.64,0.68-.76,2.94,2.68ZM343.13,139l-0.66-.69,2.84-2.79,0.71,0.74Zm-83.73-2.5-2.72-2.91,0.75-.69,2.67,3ZM339,135l-0.73-.63,2.56-3,0.77,0.66Zm-75.2-2.25-2.42-3.16,0.81-.61,2.38,3.19Zm70.68-1.31-0.79-.55,2.26-3.28,0.84,0.59Zm-66-2-2.11-3.38,0.87-.53,2.06,3.41Zm61.12-1.13-0.84-.47,1.93-3.48,0.89,0.5Zm-56.11-1.67-1.78-3.56,0.92-.45,1.72,3.59Zm51-.95-0.88-.39,1.58-3.65,0.94,0.41Zm-45.74-1.36-1.42-3.72,1-.36,1.36,3.74Zm40.39-.75-0.91-.3,1.22-3.79,1,0.32Zm-34.93-1-1.05-3.84,1-.26,1,3.86Zm29.39-.55-0.93-.21,0.84-3.89,1,0.23Zm-23.79-.7-0.68-3.92,1-.17,0.61,3.93ZM308,121l-0.95-.12,0.46-4,1,0.13Zm-12.43-.36-0.29-4,1-.07,0.23,4Zm6.71-.12-1,0,0.08-4,1,0Z" transform="translate(-207.68 -92.27)"/><path class="cls-6" d="M300,245.57A65.57,65.57,0,1,1,365.57,180,65.64,65.64,0,0,1,300,245.57Zm0-130.63A65.07,65.07,0,1,0,365.07,180,65.14,65.14,0,0,0,300,114.93Z" transform="translate(-207.68 -92.27)"/><path class="cls-6" d="M369.17,179.64a69.88,69.88,0,0,1-9.32,34.68h-3.49a66.81,66.81,0,0,0,9.81-34.68,65.75,65.75,0,0,0-9.38-34h3.48A68.76,68.76,0,0,1,369.17,179.64Z" transform="translate(-207.68 -92.27)"/><path class="cls-6" d="M243.64,214.32h-3.49a69.88,69.88,0,0,1-9.32-34.68,68.76,68.76,0,0,1,8.9-34h3.47a65.84,65.84,0,0,0-9.37,34A66.84,66.84,0,0,0,243.64,214.32Z" transform="translate(-207.68 -92.27)"/></g></g></svg>