<svg preserveAspectRatio="none" id="Layer_1" data-name="Layer 1" xmlns="http://www.w3.org/2000/svg" viewBox="0 0 89.89 91.04"><defs><style>.cls-1,.cls-4{fill:#00b4e9;}.cls-2,.cls-4{opacity:0.5;}.cls-3{fill:#f9b900;}.cls-5{fill:#00b3ea;}.cls-6{fill:#00b4eb;}</style></defs><title>circle35</title><path class="cls-1" d="M145.07,121.2c-0.19.19-.43,0.41-0.72,0.66s-0.61.55-1,.85a29.21,29.21,0,0,1-31.08,3.36,28.9,28.9,0,0,1-5.64-3.64,30.09,30.09,0,0,1-4.54-4.68,29.13,29.13,0,0,1-6.12-18.37c0-1,.09-1.76.12-2.29l0.1-.81L94,96l-0.1.87c0,0.57-.12,1.4-0.13,2.46a31.3,31.3,0,0,0,6.57,19.74,32.23,32.23,0,0,0,4.88,5,31,31,0,0,0,6.06,3.91,31.33,31.33,0,0,0,33.4-3.62c0.42-.32.77-0.65,1.09-0.91s0.57-.5.78-0.7l0.63-.6-1.53-1.55Z" transform="translate(-80.05 -53.91)"/><path class="cls-1" d="M153.72,130.42l-0.56.52-0.7.6-0.81.7c-0.29.24-.62,0.49-1,0.75a40,40,0,0,1-5.15,3.4,41.44,41.44,0,0,1-7.33,3.22,42.17,42.17,0,0,1-9.26,1.92c-0.84.05-1.69,0.14-2.55,0.15l-1.3,0-1.32,0-0.66,0-0.67,0-1.34-.1-1.35-.16-0.68-.08-0.68-.11a41.66,41.66,0,0,1-5.44-1.25,44.11,44.11,0,0,1-5.35-2,41.86,41.86,0,0,1-9.79-6.31,42.38,42.38,0,0,1-7.69-8.73A42,42,0,0,1,86,85.12a39.72,39.72,0,0,1,2.6-5.6c0.21-.37.4-0.73,0.6-1.06l0.57-.91c0.18-.28.34-0.54,0.49-0.78l0.44-.63,0.6-.86c0.13-.2.21-0.29,0.21-0.29l-0.79-.58s-0.08.1-.22,0.3l-0.61.88-0.45.65-0.5.8L88.32,78c-0.2.33-.4,0.7-0.61,1.08a40.7,40.7,0,0,0-2.66,5.74,42.9,42.9,0,0,0,4.28,38.6,43.36,43.36,0,0,0,7.86,8.93,42.83,42.83,0,0,0,10,6.46,45.21,45.21,0,0,0,5.48,2.08,42.73,42.73,0,0,0,5.57,1.28l0.69,0.12,0.69,0.09L121,142.5l1.37,0.1,0.68,0,0.68,0,1.35,0,1.33,0c0.88,0,1.75-.1,2.61-0.15a43.17,43.17,0,0,0,9.48-2,42.43,42.43,0,0,0,7.5-3.29,40.87,40.87,0,0,0,5.27-3.48c0.34-.27.68-0.52,1-0.77l0.83-.71,0.71-.62,0.57-.54,1-1-0.69-.69Z" transform="translate(-80.05 -53.91)"/><g class="cls-2"><path class="cls-1" d="M146.39,122.95c-0.25.26-.61,0.53-1,0.88s-0.87.71-1.4,1.12a31,31,0,0,1-4.08,2.61,31.93,31.93,0,0,1-5.81,2.39,32.62,32.62,0,0,1-7.33,1.25,31.91,31.91,0,0,1-4.07-.06l-0.52,0-0.52-.06-1-.13c-0.7-.13-1.41-0.22-2.11-0.39a29.92,29.92,0,0,1-4.21-1.22,30.27,30.27,0,0,1-4.09-1.85l-1-.55-1-.6c-0.33-.19-0.64-0.42-1-0.64s-0.64-.42-0.93-0.67a33.57,33.57,0,0,1-3.48-3,35,35,0,0,1-3-3.49,33.62,33.62,0,0,1-2.44-3.86,32.19,32.19,0,0,1-1.82-4.1,30.89,30.89,0,0,1-1.19-4.22c-0.08-.35-0.14-0.7-0.2-1.06s-0.13-.7-0.17-1.05c-0.08-.7-0.18-1.4-0.21-2.09s-0.06-1.38-.08-2.06c0-.34,0-0.68,0-1s0-.67,0-1a31.21,31.21,0,0,1,3.72-13.11c0.23-.41.44-0.81,0.67-1.18l0.67-1.07c0.22-.34.45-0.65,0.66-1l0.31-.45,0.32-.41,0.58-.75,0.55-.64,0.47-.55c0.15-.17.29-0.31,0.41-0.44l0.76-.8-5-5L97.51,73c-0.25.27-.63,0.65-1.09,1.16A41.62,41.62,0,0,0,93,78.68a37.74,37.74,0,0,0-3.68,7.13,38.62,38.62,0,0,0-2.43,18.09,39,39,0,0,0,1.67,7.85A36.74,36.74,0,0,0,90.65,117c0.15,0.31.29,0.58,0.41,0.82l0.33,0.59,0.27,0.49,2.2-1.25L94,117.92c0.09,0.17.23,0.4,0.42,0.7l0.68,1.08,0.94,1.36a36.86,36.86,0,0,0,6.06,6.45,36,36,0,0,0,7.44,4.79c0.54,0.28,1.06.48,1.5,0.68s0.85,0.35,1.18.48l0.77,0.29,0.27,0.1-0.83,2.39,1.76,0.57c0.57,0.15,1.25.35,2,.54l1.27,0.28c0.45,0.1.93,0.16,1.42,0.25a38.71,38.71,0,0,0,14.66-.44,38.05,38.05,0,0,0,13.44-5.9c0.84-.56,1.56-1.14,2.2-1.64s1.17-1,1.61-1.37l1.34-1.27-5-5.08Zm-24.16,14.18-0.36,0c-0.23,0-.56-0.05-1-0.1s-0.85-.09-1.34-0.17l-1.53-.26-1.52-.33c-0.48-.1-0.93-0.24-1.31-0.34-0.77-.2-1.27-0.37-1.27-0.37l1.46-4.66s0.43,0.15,1.1.32c0.33,0.08.72,0.21,1.14,0.29l1.32,0.29,1.33,0.22c0.43,0.07.83,0.1,1.17,0.15s0.63,0.08.83,0.09l0.31,0Zm8.37-.28c-0.79.1-1.83,0.25-2.89,0.3l-0.79.06-0.76,0c-0.49,0-1,0-1.35,0l-1.32,0,0.21-4.87,1.15,0c0.34,0,.75,0,1.18,0l0.66,0,0.68,0c0.92,0,1.83-.18,2.51-0.26l1.13-.19,0.88,4.8Zm10.2-3-0.88.38c-0.36.16-.79,0.35-1.25,0.51s-1,.38-1.46.53l-1.48.47-1.31.35c-0.38.11-.71,0.17-0.93,0.22l-0.35.08-1-4.77,0.31-.07c0.2,0,.48-0.1.81-0.19l1.14-.31,1.28-.41c0.44-.14.86-0.32,1.27-0.46s0.77-.31,1.09-0.45l0.76-.33,0.28-.14,2.08,4.41Zm8.2-5.17c-0.17.15-.43,0.36-0.75,0.6s-0.68.53-1.07,0.82l-1.27.89c-0.89.57-1.78,1.14-2.48,1.51l-0.84.47-0.32.16L140,128.77l0.28-.14,0.73-.41c0.61-.32,1.38-0.82,2.15-1.31l1.11-.77,0.93-.72c0.27-.21.5-0.38,0.65-0.52l0.24-.21,3.15,3.72Z" transform="translate(-80.05 -53.91)"/></g><path class="cls-3" d="M138.85,120.79l-0.46.28c-0.19.11-.41,0.26-0.65,0.4l-0.76.42c-0.25.16-.53,0.27-0.78,0.4s-0.48.25-.69,0.33l-0.68.3,0.89,2.13,0.75-.32c0.23-.09.47-0.23,0.75-0.36s0.57-.26.85-0.43l0.83-.46c0.27-.15.5-0.31,0.71-0.44l0.5-.31,0.19-.13L139,120.68Z" transform="translate(-80.05 -53.91)"/><path class="cls-3" d="M132.51,123.76c-0.21.08-.46,0.14-0.73,0.21s-0.55.16-.85,0.22l-0.86.19c-0.27.06-.53,0.09-0.75,0.13l-0.53.09-0.2,0,0.32,2.29,0.22,0,0.58-.1c0.24,0,.52-0.08.82-0.15l0.94-.2c0.32-.06.63-0.17,0.93-0.24s0.57-.15.8-0.23l0.77-.25-0.74-2.19Z" transform="translate(-80.05 -53.91)"/><path class="cls-3" d="M124.47,124.86c-0.6,0-1.19-.07-1.64-0.09l-0.74-.09L121.81,127l0.22,0,0.59,0.07c0.49,0,1.14.1,1.79,0.1a25.14,25.14,0,0,0,2.61-.05l-0.16-2.31A22.78,22.78,0,0,1,124.47,124.86Z" transform="translate(-80.05 -53.91)"/><path class="cls-3" d="M119.65,124.26c-0.44-.08-1-0.26-1.59-0.4l-0.83-.27-0.38-.12-0.34-.13-0.7-.26L115,125.22l0.76,0.29,0.37,0.14,0.42,0.13,0.91,0.29c0.63,0.16,1.25.35,1.74,0.44l0.58,0.13,0.22,0,0.44-2.27-0.2,0Z" transform="translate(-80.05 -53.91)"/><path class="cls-3" d="M112.91,121.68c-0.24-.14-0.51-0.27-0.75-0.44l-0.74-.46-0.63-.44-0.44-.31-0.16-.13-1.39,1.85,0.18,0.14,0.48,0.34,0.68,0.48,0.81,0.5c0.27,0.18.56,0.33,0.83,0.48l0.73,0.4,0.73,0.36,1-2.08-0.67-.33Z" transform="translate(-80.05 -53.91)"/><path class="cls-3" d="M108.27,118.32c-0.32-.32-0.78-0.71-1.18-1.16-0.2-.22-0.42-0.43-0.61-0.64l-0.5-.58a6.68,6.68,0,0,1-.47-0.58l-1.81,1.44a7.69,7.69,0,0,0,.52.63l0.54,0.64c0.2,0.23.44,0.46,0.66,0.7,0.44,0.49.94,0.92,1.28,1.26,0.17,0.18.34,0.3,0.44,0.39l0.17,0.15,1.51-1.75-0.16-.13C108.58,118.6,108.43,118.49,108.27,118.32Z" transform="translate(-80.05 -53.91)"/><path class="cls-3" d="M104.24,113.62l-0.16-.26-0.4-.64c-0.15-.23-0.28-0.5-0.43-0.76-0.31-.51-0.54-1.06-0.75-1.45-0.1-.2-0.16-0.37-0.22-0.49l-0.08-.19-2.12.92,0.09,0.21c0.06,0.13.13,0.32,0.24,0.54,0.23,0.43.49,1,.82,1.59,0.16,0.28.3,0.57,0.47,0.83l0.44,0.71,0.18,0.28,0.15,0.21,0.13,0.18L104.5,114l-0.12-.17Z" transform="translate(-80.05 -53.91)"/><path class="cls-3" d="M101.33,107.51c-0.15-.42-0.29-1-0.45-1.57-0.08-.29-0.13-0.58-0.19-0.86s-0.12-.53-0.15-0.75l-0.13-.74-2.29.34,0.14,0.8c0,0.24.09,0.52,0.16,0.82s0.13,0.62.21,0.93c0.17,0.63.33,1.26,0.5,1.72l0.18,0.56a2.11,2.11,0,0,0,.07.21l2.18-.77a1.78,1.78,0,0,1-.07-0.19Z" transform="translate(-80.05 -53.91)"/><path class="cls-3" d="M98,97.07c0,0.14,0,.35,0,0.59l-0.06.83,0,1c0,0.33,0,.65,0,1s0,0.59,0,.84l0.06,0.81,2.3-.18-0.06-.75c0-.22,0-0.49,0-0.77s0-.58,0-0.88l0-.88,0.06-.76c0-.22,0-0.41,0-0.54l0-.2L98,96.85Z" transform="translate(-80.05 -53.91)"/><path class="cls-3" d="M99.38,90.73c-0.08.23-.16,0.5-0.26,0.79s-0.2.6-.28,0.92l-0.25.92-0.18.82c-0.11.47-.16,0.8-0.16,0.8l2.27,0.41a7.43,7.43,0,0,1,.14-0.73l0.16-.75,0.23-.85c0.07-.29.17-0.57,0.25-0.84s0.16-.52.24-0.73l0.26-.69L99.67,90Z" transform="translate(-80.05 -53.91)"/><path class="cls-4" d="M93,75.8c-0.27.33-.6,0.83-1,1.42s-0.86,1.32-1.34,2.08c-0.24.39-.45,0.8-0.69,1.21l-0.35.63c-0.11.21-.22,0.43-0.32,0.65a40.81,40.81,0,0,0-2.08,4.89L86.7,88.35c-0.12.41-.18,0.64-0.18,0.64l1.54,0.43s0.06-.22.17-0.61l0.52-1.6a39.22,39.22,0,0,1,2-4.69c0.1-.21.2-0.42,0.31-0.62l0.34-.6c0.23-.4.43-0.8,0.66-1.17,0.47-.73.87-1.44,1.29-2s0.72-1.05,1-1.37l0.39-.5-1.26-1Z" transform="translate(-80.05 -53.91)"/><path class="cls-1" d="M106.42,135.15l-1.16-.64a40.54,40.54,0,0,1-5.81-4.07,39.62,39.62,0,0,1-5-5c-0.32-.36-0.58-0.72-0.83-1L93,123.59c-0.17-.22-0.29-0.41-0.38-0.53l-0.13-.19-2.11,1.49,0.14,0.2c0.09,0.13.22,0.33,0.41,0.57L91.59,126c0.26,0.33.54,0.71,0.88,1.1a42.22,42.22,0,0,0,5.32,5.34,43.23,43.23,0,0,0,6.18,4.33l1.23,0.69c0.37,0.2.7,0.35,1,.49l0.85,0.42,1.1-2.33-0.8-.39C107.08,135.48,106.76,135.34,106.42,135.15Z" transform="translate(-80.05 -53.91)"/><path class="cls-1" d="M150.55,133.73c-0.3.24-.69,0.51-1.13,0.81s-0.93.66-1.5,1a41.93,41.93,0,0,1-18.11,6.39c-0.65.09-1.26,0.12-1.79,0.16s-1,.07-1.39.07l-1.21,0,0,2.75,1.29,0c0.41,0,.91,0,1.48-0.08s1.21-.08,1.91-0.17a44.68,44.68,0,0,0,19.29-6.81c0.6-.36,1.12-0.75,1.59-1.07s0.88-.61,1.2-0.87l1-.79L151.51,133Z" transform="translate(-80.05 -53.91)"/><path class="cls-1" d="M84.68,87.73L81,86.62a0.46,0.46,0,0,0-.52.47l-0.16,1.37c-0.05.41-.08,0.89-0.11,1.4s-0.08,1.06-.08,1.6l0,1.6c0,0.51,0,1,0,1.39s0,0.74,0,1,0,0.37,0,.37a0.42,0.42,0,0,0,.34.42l2.57,0.21A0.42,0.42,0,0,0,83.46,96s0-.12,0-0.34l0.11-.89c0.07-.73.24-1.7,0.41-2.67,0.08-.48.2-1,0.3-1.41s0.19-.87.29-1.23l0.32-1.19A0.43,0.43,0,0,0,84.68,87.73Z" transform="translate(-80.05 -53.91)"/><path class="cls-3" d="M143.91,128a1.14,1.14,0,0,0-.31,1.55,1.12,1.12,0,1,0,1.87-1.24A1.13,1.13,0,0,0,143.91,128Z" transform="translate(-80.05 -53.91)"/><path class="cls-3" d="M136.05,131.87a1.14,1.14,0,0,0-.7,1.42,1.12,1.12,0,1,0,2.12-.73A1.14,1.14,0,0,0,136.05,131.87Z" transform="translate(-80.05 -53.91)"/><path class="cls-3" d="M127.46,133.59a1.11,1.11,0,0,0-.75.39,1.15,1.15,0,0,0-.29.81,1.13,1.13,0,0,0,.37.8,1.13,1.13,0,0,0,1.87-.94A1.16,1.16,0,0,0,127.46,133.59Z" transform="translate(-80.05 -53.91)"/><path class="cls-3" d="M118.72,133.06a1.14,1.14,0,1,0,.89,1.3A1.13,1.13,0,0,0,118.72,133.06Z" transform="translate(-80.05 -53.91)"/><path class="cls-1" d="M149.65,80.92a32.23,32.23,0,0,0-4.88-5A31,31,0,0,0,138.71,72a31.33,31.33,0,0,0-33.4,3.62c-0.42.32-.77,0.65-1.09,0.91s-0.57.5-.78,0.7l-0.63.6,1.53,1.55,0.59-.56c0.19-.19.43-0.41,0.72-0.66s0.62-.55,1-0.85a29.2,29.2,0,0,1,31.08-3.36,28.85,28.85,0,0,1,5.64,3.64,30.08,30.08,0,0,1,4.54,4.68,29.12,29.12,0,0,1,6.11,18.37c0,1-.09,1.76-0.12,2.29l-0.1.81L156,104l0.1-.87c0-.57.12-1.4,0.13-2.46A31.31,31.31,0,0,0,149.65,80.92Z" transform="translate(-80.05 -53.91)"/><path class="cls-1" d="M165.64,87.05a42.84,42.84,0,0,0-5-10.43,43.37,43.37,0,0,0-7.86-8.93,42.84,42.84,0,0,0-10-6.46,45.29,45.29,0,0,0-5.48-2.08,42.66,42.66,0,0,0-5.57-1.28L131,57.75l-0.69-.09L129,57.5l-1.37-.1-0.68,0-0.68,0-1.35,0-1.33,0c-0.88,0-1.75.1-2.61,0.15a43.2,43.2,0,0,0-9.48,2,42.41,42.41,0,0,0-7.5,3.29,40.87,40.87,0,0,0-5.27,3.48c-0.35.27-.68,0.52-1,0.77l-0.83.71-0.71.62-0.57.54-1,1,0.69,0.69,1-1,0.56-.53,0.7-.6,0.81-.7c0.29-.24.62-0.49,1-0.75a39.9,39.9,0,0,1,5.15-3.4,41.42,41.42,0,0,1,7.33-3.22A42.22,42.22,0,0,1,121,58.46c0.84-.05,1.69-0.14,2.55-0.15l1.3,0,1.32,0,0.66,0,0.67,0,1.34,0.1,1.35,0.16,0.68,0.08,0.68,0.11A41.75,41.75,0,0,1,137,60.09a44.26,44.26,0,0,1,5.35,2,41.83,41.83,0,0,1,9.79,6.31,42.38,42.38,0,0,1,7.69,8.73A41.95,41.95,0,0,1,164,114.88a39.68,39.68,0,0,1-2.6,5.61c-0.21.37-.4,0.73-0.6,1.06l-0.57.91-0.49.78-0.44.63-0.6.86c-0.13.2-.21,0.29-0.21,0.29l0.79,0.58s0.08-.1.22-0.3l0.61-.88,0.45-.65c0.16-.24.32-0.51,0.51-0.8l0.58-.93c0.2-.33.4-0.7,0.61-1.08a40.72,40.72,0,0,0,2.66-5.74A42.9,42.9,0,0,0,165.64,87.05Z" transform="translate(-80.05 -53.91)"/><g class="cls-2"><path class="cls-1" d="M161.5,88.25A36.81,36.81,0,0,0,159.35,83c-0.15-.31-0.29-0.58-0.41-0.82l-0.33-.59-0.27-.49-2.2,1.25L156,82.08c-0.09-.17-0.24-0.4-0.42-0.7l-0.68-1.08L154,78.95a36.88,36.88,0,0,0-6.06-6.45,36,36,0,0,0-7.44-4.79c-0.54-.28-1.06-0.48-1.5-0.68s-0.85-.35-1.18-0.48L137,66.25l-0.27-.1,0.83-2.39-1.76-.57c-0.57-.15-1.25-0.35-2-0.54l-1.27-.28c-0.45-.1-0.93-0.16-1.42-0.25a38.69,38.69,0,0,0-14.66.44A38,38,0,0,0,103,68.46c-0.84.56-1.56,1.14-2.2,1.64s-1.17,1-1.61,1.37l-1.34,1.27,5,5.08,0.8-.76c0.25-.26.61-0.53,1-0.88s0.87-.71,1.4-1.12a31,31,0,0,1,4.08-2.61,31.89,31.89,0,0,1,5.81-2.39,32.61,32.61,0,0,1,7.33-1.25,32,32,0,0,1,4.07.06l0.52,0L128.33,69l1.05,0.13c0.7,0.13,1.41.22,2.11,0.39a29.86,29.86,0,0,1,4.21,1.22,30.25,30.25,0,0,1,4.09,1.85l1,0.55,1,0.6c0.33,0.19.64,0.42,1,.64s0.64,0.42.93,0.67a33.55,33.55,0,0,1,3.48,3,35,35,0,0,1,3,3.49,33.58,33.58,0,0,1,2.44,3.86,32.11,32.11,0,0,1,1.82,4.1,30.76,30.76,0,0,1,1.19,4.22c0.09,0.35.14,0.7,0.2,1.06s0.13,0.7.17,1.05c0.08,0.7.18,1.4,0.21,2.09s0.06,1.38.08,2.06c0,0.34,0,.68,0,1s0,0.67,0,1a31.18,31.18,0,0,1-3.72,13.11c-0.23.41-.44,0.81-0.67,1.18l-0.67,1.07c-0.22.34-.45,0.65-0.66,1l-0.31.45-0.32.41-0.58.76-0.55.64-0.47.55c-0.15.17-.29,0.31-0.41,0.44l-0.76.8,5,5,0.39-.41c0.25-.27.63-0.65,1.09-1.16a41.66,41.66,0,0,0,3.47-4.5,37.77,37.77,0,0,0,3.68-7.13A38.59,38.59,0,0,0,161.5,88.25ZM109.7,71.37l-0.73.41c-0.61.32-1.38,0.82-2.15,1.31l-1.11.77-0.93.72c-0.27.21-.5,0.38-0.65,0.52l-0.24.21-3.15-3.72,0.28-.24c0.17-.16.43-0.36,0.75-0.6s0.68-.53,1.07-0.82L104.1,69c0.89-.57,1.78-1.14,2.48-1.51l0.84-.47,0.32-.16L110,71.23Zm7.9-2.92c-0.2,0-.48.1-0.81,0.19l-1.14.31-1.28.41c-0.44.14-.86,0.32-1.27,0.46s-0.77.31-1.09,0.45l-0.76.33-0.28.14-2.08-4.41,0.33-.16,0.88-.38c0.36-.16.79-0.35,1.25-0.51s1-.38,1.46-0.53l1.48-.47,1.31-.35c0.38-.11.71-0.17,0.93-0.22l0.35-.08,1,4.77Zm8.7-.79-1.15,0c-0.34,0-.75,0-1.18,0h-0.66l-0.68,0c-0.92,0-1.83.18-2.51,0.26l-1.13.19-0.88-4.8,1.3-.22c0.79-.1,1.83-0.25,2.89-0.3l0.79-.06,0.76,0c0.49,0,1,0,1.35,0l1.32,0Zm8.3,1.46s-0.43-.15-1.1-0.32c-0.33-.08-0.72-0.21-1.14-0.3L131,68.22,129.71,68c-0.42-.07-0.83-0.1-1.17-0.15s-0.63-.08-0.83-0.09l-0.31,0,0.38-4.86,0.36,0c0.23,0,.56.05,1,0.1s0.85,0.09,1.34.17L132,63.43l1.52,0.33c0.48,0.1.93,0.24,1.31,0.34,0.77,0.2,1.27.37,1.27,0.37Z" transform="translate(-80.05 -53.91)"/></g><path class="cls-3" d="M113.53,75.27c-0.23.09-.47,0.23-0.75,0.36s-0.57.26-.85,0.43l-0.83.46c-0.27.15-.5,0.31-0.71,0.44l-0.5.31-0.19.13L111,79.32l0.17-.12,0.46-.28c0.19-.12.4-0.26,0.65-0.4L113,78.1c0.25-.16.53-0.27,0.78-0.4s0.48-.25.69-0.33l0.68-.3-0.89-2.13Z" transform="translate(-80.05 -53.91)"/><path class="cls-3" d="M120.88,73.11l-0.58.1c-0.24,0-.52.08-0.82,0.15l-0.94.2c-0.32.06-.63,0.17-0.93,0.24s-0.57.15-.8,0.23l-0.77.25,0.74,2.19,0.71-.23c0.21-.08.46-0.14,0.73-0.21s0.55-.16.85-0.22l0.86-.19c0.27-.06.53-0.09,0.75-0.13l0.53-.09,0.2,0-0.32-2.29Z" transform="translate(-80.05 -53.91)"/><path class="cls-3" d="M127.38,72.93c-0.49,0-1.14-.1-1.79-0.1a25.15,25.15,0,0,0-2.61.05l0.16,2.31a22.74,22.74,0,0,1,2.39,0c0.6,0,1.19.07,1.64,0.09l0.74,0.09L128.19,73,128,73Z" transform="translate(-80.05 -53.91)"/><path class="cls-3" d="M133.92,74.35l-0.42-.13-0.91-.29c-0.63-.16-1.25-0.35-1.74-0.44l-0.58-.13-0.22,0-0.44,2.27,0.2,0,0.53,0.12c0.44,0.08,1,.26,1.59.4l0.83,0.27,0.38,0.12,0.34,0.13,0.7,0.26L135,74.78l-0.76-.29Z" transform="translate(-80.05 -53.91)"/><path class="cls-3" d="M140.54,77.77l-0.68-.48-0.81-.5c-0.27-.18-0.56-0.33-0.82-0.48l-0.73-.4-0.73-.36-1,2.08L136.43,78l0.67,0.37c0.24,0.14.51,0.27,0.75,0.44l0.74,0.46,0.63,0.44L139.66,80l0.16,0.13,1.39-1.85L141,78.11Z" transform="translate(-80.05 -53.91)"/><path class="cls-3" d="M145.23,81.93c-0.2-.23-0.44-0.46-0.66-0.7-0.44-.49-0.94-0.91-1.28-1.26-0.17-.18-0.34-0.3-0.44-0.39l-0.17-.15-1.51,1.75,0.16,0.13c0.1,0.09.25,0.2,0.41,0.36,0.32,0.32.78,0.71,1.18,1.16,0.2,0.22.42,0.43,0.61,0.64l0.5,0.58a6.7,6.7,0,0,1,.47.58l1.81-1.44a7.78,7.78,0,0,0-.52-0.63Z" transform="translate(-80.05 -53.91)"/><path class="cls-3" d="M149.59,88.52c-0.23-.43-0.49-1-0.82-1.59-0.16-.28-0.3-0.57-0.47-0.83l-0.44-.71-0.17-.28-0.15-.21-0.13-.18L145.5,86l0.12,0.17,0.14,0.19,0.16,0.26,0.4,0.65c0.15,0.23.28,0.5,0.43,0.76,0.31,0.51.54,1.06,0.75,1.45,0.1,0.2.16,0.37,0.22,0.49l0.08,0.19,2.12-.92-0.09-.2C149.77,88.93,149.71,88.73,149.59,88.52Z" transform="translate(-80.05 -53.91)"/><path class="cls-3" d="M151.58,94.44c-0.07-.3-0.13-0.62-0.21-0.93-0.17-.63-0.33-1.26-0.5-1.72l-0.18-.56a2.15,2.15,0,0,0-.07-0.21l-2.18.77a1.84,1.84,0,0,1,.07.19l0.16,0.51c0.15,0.42.29,1,.45,1.57,0.08,0.29.13,0.58,0.19,0.86s0.12,0.53.15,0.75l0.13,0.74,2.29-.34-0.14-.8C151.71,95,151.65,94.73,151.58,94.44Z" transform="translate(-80.05 -53.91)"/><path class="cls-3" d="M152.15,98.75l-0.06-.81-2.3.19,0.06,0.75c0,0.22,0,.49,0,0.77s0,0.58,0,.88l0,0.88-0.06.76c0,0.22,0,.41,0,0.54l0,0.2,2.3,0.25,0-.22c0-.14,0-0.35,0-0.59l0.06-.83,0-1c0-.33,0-0.65,0-1S152.16,99,152.15,98.75Z" transform="translate(-80.05 -53.91)"/><path class="cls-3" d="M149.32,105.34l-0.16.75-0.23.85c-0.07.29-.17,0.57-0.25,0.84s-0.16.52-.24,0.73l-0.26.7,2.16,0.83,0.29-.76c0.08-.23.16-0.5,0.26-0.79s0.2-.6.28-0.92l0.25-.92,0.18-.82c0.11-.48.16-0.8,0.16-0.8l-2.27-.41S149.43,104.91,149.32,105.34Z" transform="translate(-80.05 -53.91)"/><path class="cls-4" d="M161.77,111.2l-0.52,1.6a39.2,39.2,0,0,1-2,4.69l-0.31.62-0.34.6c-0.23.4-.43,0.8-0.66,1.17-0.47.73-.87,1.44-1.29,2s-0.72,1.05-1,1.37l-0.39.5,1.26,1,0.41-.52c0.27-.33.6-0.83,1-1.42s0.86-1.32,1.34-2.08c0.24-.39.45-0.8,0.69-1.21l0.35-.63,0.32-.65a40.82,40.82,0,0,0,2.08-4.89l0.54-1.67c0.12-.41.18-0.64,0.18-0.64l-1.54-.43S161.88,110.81,161.77,111.2Z" transform="translate(-80.05 -53.91)"/><path class="cls-1" d="M159.07,74.88L158.41,74c-0.26-.33-0.54-0.71-0.88-1.1a42.17,42.17,0,0,0-5.32-5.34A43.18,43.18,0,0,0,146,63.26l-1.23-.69c-0.37-.2-0.7-0.35-1-0.49L143,61.66,141.88,64l0.8,0.39c0.25,0.13.56,0.27,0.91,0.46l1.16,0.64a40.6,40.6,0,0,1,5.81,4.07,39.59,39.59,0,0,1,5,5c0.32,0.36.58,0.72,0.83,1L157,76.41c0.17,0.22.29,0.41,0.38,0.53l0.13,0.19,2.11-1.49-0.14-.2C159.38,75.32,159.25,75.12,159.07,74.88Z" transform="translate(-80.05 -53.91)"/><path class="cls-1" d="M123.27,55.08c-0.41,0-.91,0-1.48.08s-1.21.08-1.91,0.17a44.68,44.68,0,0,0-19.29,6.81c-0.6.36-1.12,0.75-1.59,1.07s-0.88.61-1.2,0.87l-1,.79L98.49,67l1-.74c0.3-.24.69-0.51,1.13-0.81s0.93-.66,1.5-1a42,42,0,0,1,18.11-6.39c0.65-.09,1.26-0.12,1.79-0.16s1-.07,1.39-0.07l1.21,0,0-2.76Z" transform="translate(-80.05 -53.91)"/><path class="cls-1" d="M169.88,104.58c0-.23,0-0.37,0-0.37a0.42,0.42,0,0,0-.34-0.42l-2.57-.21a0.42,0.42,0,0,0-.41.42s0,0.12,0,.34l-0.11.88c-0.07.74-.24,1.71-0.41,2.67-0.08.48-.2,1-0.3,1.41s-0.19.87-.29,1.23l-0.32,1.19a0.43,0.43,0,0,0,.24.54l3.73,1.11a0.47,0.47,0,0,0,.52-0.47l0.16-1.37c0.05-.41.08-0.89,0.11-1.4s0.08-1.06.08-1.6l0-1.6c0-.51,0-1,0-1.39Z" transform="translate(-80.05 -53.91)"/><path class="cls-3" d="M104.83,70.12a1.14,1.14,0,1,0,1.58.34A1.13,1.13,0,0,0,104.83,70.12Z" transform="translate(-80.05 -53.91)"/><path class="cls-3" d="M113.21,66a1.12,1.12,0,0,0-.69,1.46,1.12,1.12,0,0,0,2.12-.73A1.12,1.12,0,0,0,113.21,66Z" transform="translate(-80.05 -53.91)"/><path class="cls-3" d="M122.38,64.14a1.11,1.11,0,0,0-1,1.22,1.16,1.16,0,0,0,1.2,1,1.11,1.11,0,0,0,.75-0.39,1.15,1.15,0,0,0,.29-0.81,1.13,1.13,0,0,0-.37-0.8A1.12,1.12,0,0,0,122.38,64.14Z" transform="translate(-80.05 -53.91)"/><path class="cls-3" d="M131.71,64.7a1.14,1.14,0,1,0,.88,1.36A1.13,1.13,0,0,0,131.71,64.7Z" transform="translate(-80.05 -53.91)"/><path class="cls-5" d="M132.14,97.23a7.42,7.42,0,0,1-9.5,9.57l-0.16.6a8,8,0,0,0,10.26-10.33Z" transform="translate(-80.05 -53.91)"/><path class="cls-5" d="M127.77,92.86l0.16-.6a8,8,0,0,0-10.33,10.26l0.6-.16A7.42,7.42,0,0,1,127.77,92.86Z" transform="translate(-80.05 -53.91)"/><path class="cls-5" d="M127.77,92.86l-1.6,6,6-1.6A7.4,7.4,0,0,0,127.77,92.86Z" transform="translate(-80.05 -53.91)"/><path class="cls-5" d="M127.93,92.26a8.05,8.05,0,0,1,4.81,4.81l2.8-.75-6.86-6.86Z" transform="translate(-80.05 -53.91)"/><path class="cls-5" d="M119.93,105.07a7.36,7.36,0,0,0,2.72,1.73l1.63-6.07-6.07,1.63A7.36,7.36,0,0,0,119.93,105.07Z" transform="translate(-80.05 -53.91)"/><path class="cls-5" d="M117.6,102.52l-2.71.73,6.86,6.86,0.73-2.71A8,8,0,0,1,117.6,102.52Z" transform="translate(-80.05 -53.91)"/><path class="cls-5" d="M128.32,82l-0.51-.08-1.23-.18-1.47-.07h-0.4l-0.41,0-0.84,0a18.39,18.39,0,0,0-3.51.59,18.12,18.12,0,0,0-3.33,1.25,12.92,12.92,0,0,0-1.44.79l-0.65.39-0.57.42c-0.36.27-.71,0.51-1,0.74l-0.71.64-0.62.56,2,2,0.53-.47,0.6-.55c0.24-.2.54-0.4,0.85-0.63l0.49-.36,0.56-.33a10.36,10.36,0,0,1,1.22-.67A15.35,15.35,0,0,1,120.69,85a15.62,15.62,0,0,1,3-.5l0.71,0,0.34,0h0.34l1.25,0.06,1,0.15,0.44,0.06,0.36,0.09L128.85,85l0.71-2.68-0.81-.2Z" transform="translate(-80.05 -53.91)"/><path class="cls-5" d="M143.25,98.35l-0.18-1.23c0-.18,0-0.36-0.08-0.51l-0.1-.43-0.2-.81L140,96.1l0.17,0.69,0.09,0.36c0,0.13,0,.28.07,0.44l0.15,1c0,0.39,0,.81.07,1.25l0,0.34c0,0.11,0,.23,0,0.35l0,0.71a16,16,0,0,1-.49,3,12.27,12.27,0,0,1-.46,1.47,11.62,11.62,0,0,1-.59,1.37,9.74,9.74,0,0,1-.66,1.22l-0.33.56c-0.12.17-.24,0.33-0.36,0.49l-0.63.85-0.55.6-0.48.53,2,2,0.56-.62,0.64-.71c0.23-.29.47-0.63,0.74-1,0.13-.18.28-0.37,0.42-0.58l0.39-.65a12.25,12.25,0,0,0,.78-1.44,14.3,14.3,0,0,0,.69-1.61,18.49,18.49,0,0,0,.92-3.49,14.46,14.46,0,0,0,.2-1.74l0-.84,0-.41,0-.4C143.3,99.3,143.29,98.8,143.25,98.35Z" transform="translate(-80.05 -53.91)"/><path class="cls-5" d="M120.2,115.33l-0.77-.27a7,7,0,0,1-1-.39c-0.35-.17-0.74-0.33-1.13-0.54l-1.2-.71-1.2-.88c-0.39-.32-0.76-0.68-1.15-1l-0.14-.13-0.13-.14-0.26-.29-0.52-.57a5.1,5.1,0,0,1-.47-0.59l-0.44-.59-0.21-.29-0.18-.3-0.35-.59c-0.11-.19-0.23-0.37-0.32-0.56l-0.25-.55-0.23-.5-0.11-.23c0-.08-0.05-0.16-0.08-0.23l-0.27-.77c-0.07-.21-0.14-0.38-0.17-0.49l0-.18-2.67.75,0.05,0.21c0,0.14.11,0.33,0.2,0.58l0.32,0.9c0,0.09.06,0.18,0.1,0.27l0.13,0.28,0.27,0.59,0.3,0.64c0.1,0.22.25,0.43,0.37,0.66l0.41,0.69,0.21,0.36,0.25,0.34,0.51,0.7a6.6,6.6,0,0,0,.55.69l0.6,0.67,0.3,0.34,0.15,0.17,0.17,0.15c0.45,0.4.89,0.82,1.35,1.2l1.42,1,1.41,0.84c0.46,0.25.92,0.44,1.33,0.63a9,9,0,0,0,1.15.46l0.9,0.31c0.25,0.08.46,0.12,0.59,0.16l0.21,0.05,0.68-2.69-0.18,0C120.59,115.43,120.41,115.4,120.2,115.33Z" transform="translate(-80.05 -53.91)"/><path class="cls-5" d="M141.12,97.6c0-.19-0.05-0.39-0.09-0.58l-0.14-.56c-0.1-.37-0.17-0.76-0.29-1.12l-0.38-1.08a17.06,17.06,0,0,0-3.57-5.57l-0.18-.2-0.2-.18-0.4-.36-0.39-.36a3.72,3.72,0,0,0-.4-0.34A16.5,16.5,0,0,0,121.4,84a16.08,16.08,0,0,0-4.78,1.81l-0.87.51c-0.27.17-.5,0.36-0.72,0.52l-0.62.45c-0.19.14-.34,0.3-0.48,0.42l-0.87.78,0.54,0.54,0.83-.75c0.14-.12.28-0.27,0.46-0.4l0.59-.43c0.21-.15.43-0.33,0.69-0.5l0.83-.49a15.32,15.32,0,0,1,4.55-1.72,15.72,15.72,0,0,1,13,3.1,3.39,3.39,0,0,1,.38.32l0.37,0.34,0.38,0.34L135.93,89l0.17,0.19a16.32,16.32,0,0,1,3.4,5.31l0.36,1c0.12,0.35.18,0.71,0.28,1.07l0.13,0.54c0,0.18.05,0.37,0.08,0.55,0,0.37.12,0.74,0.15,1.11a17.19,17.19,0,0,1-.25,4.51,17,17,0,0,1-1.55,4.32,15.74,15.74,0,0,1-6.47,6.47,15.78,15.78,0,0,1-8.83,1.8c-0.37,0-.74-0.1-1.11-0.15l-0.55-.08-0.54-.13c-0.36-.1-0.72-0.16-1.07-0.28l-1-.36a16.29,16.29,0,0,1-5.31-3.4l-0.19-.17-0.17-.19-0.34-.38-0.34-.37a3.4,3.4,0,0,1-.32-0.38,15.73,15.73,0,0,1-3.1-13,15.32,15.32,0,0,1,1.72-4.55l0.49-.83c0.16-.25.34-0.47,0.5-0.69l0.43-.59c0.13-.18.28-0.32,0.4-0.46l0.75-.83-0.54-.54-0.78.87c-0.12.14-.28,0.29-0.42,0.48l-0.45.62c-0.16.22-.35,0.46-0.52,0.72l-0.51.87a16.07,16.07,0,0,0-1.81,4.78,16.49,16.49,0,0,0,3.25,13.68,3.76,3.76,0,0,0,.34.4l0.36,0.39,0.36,0.4,0.18,0.2,0.2,0.18a17.06,17.06,0,0,0,5.57,3.57l1.08,0.38c0.36,0.12.75,0.19,1.12,0.29l0.56,0.14,0.58,0.09c0.39,0,.77.12,1.16,0.16a16.56,16.56,0,0,0,9.26-1.89,16.53,16.53,0,0,0,6.79-6.79A17.78,17.78,0,0,0,141,103.5a18,18,0,0,0,.26-4.73C141.24,98.38,141.17,98,141.12,97.6Z" transform="translate(-80.05 -53.91)"/><circle class="cls-3" cx="124.78" cy="100.22" r="1.29" transform="translate(-114.37 63.66) rotate(-45)"/><path class="cls-1" d="M154.47,64.32a2.09,2.09,0,1,0,2.09,2.09A2.09,2.09,0,0,0,154.47,64.32Zm0,3.8a1.71,1.71,0,1,1,1.7-1.71A1.71,1.71,0,0,1,154.47,68.12Z" transform="translate(-80.05 -53.91)"/><path class="cls-1" d="M154.47,65.24a1.18,1.18,0,1,0,1.18,1.18A1.18,1.18,0,0,0,154.47,65.24Zm0,2.14a1,1,0,1,1,1-1A1,1,0,0,1,154.47,67.38Z" transform="translate(-80.05 -53.91)"/><path class="cls-1" d="M133.23,53.91A2.09,2.09,0,1,0,135.32,56,2.09,2.09,0,0,0,133.23,53.91Zm0,3.8a1.71,1.71,0,1,1,1.7-1.71A1.71,1.71,0,0,1,133.23,57.71Z" transform="translate(-80.05 -53.91)"/><path class="cls-1" d="M133.23,54.83A1.18,1.18,0,1,0,134.41,56,1.18,1.18,0,0,0,133.23,54.83Zm0,2.14a1,1,0,1,1,1-1A1,1,0,0,1,133.23,57Z" transform="translate(-80.05 -53.91)"/><path class="cls-1" d="M147.37,138.91a2.09,2.09,0,1,0,2.09,2.09A2.09,2.09,0,0,0,147.37,138.91Zm0,3.8a1.71,1.71,0,1,1,1.7-1.71A1.71,1.71,0,0,1,147.37,142.71Z" transform="translate(-80.05 -53.91)"/><path class="cls-1" d="M147.37,139.82a1.18,1.18,0,1,0,1.18,1.18A1.18,1.18,0,0,0,147.37,139.82Zm0,2.14a1,1,0,1,1,1-1A1,1,0,0,1,147.37,142Z" transform="translate(-80.05 -53.91)"/><path class="cls-6" d="M133.12,56h0Z" transform="translate(-80.05 -53.91)"/><rect class="cls-5" x="53.06" y="1.97" width="25.09" height="0.25"/></svg>