<svg preserveAspectRatio="none" id="Layer_1" data-name="Layer 1" xmlns="http://www.w3.org/2000/svg" viewBox="0 0 66.38 66.38"><defs><style>.cls-1{fill:#0ff}</style></defs><g id="_编组_" data-name="&lt;编组&gt;"><path id="_复合路径_" data-name="&lt;复合路径&gt;" class="cls-1" d="M389.35 94.26l-.19-4.46h.09l.2 4.46h-.1zm-3.47 0c-.56 0-1.15-.14-1.77-.23a25 25 0 01-3.46-.86l1.35-4.41a21.35 21.35 0 002.81.71c.48.08 1 .15 1.45.19zm5.24 0l-.52-4.52a19.87 19.87 0 002.84-.55c.45-.12.9-.25 1.39-.43h.07v.06l1.49 4.24c-.57.2-1.16.38-1.71.52a24.22 24.22 0 01-3.5.67zM379 92.45h-.1l1.7-4.12h.09zm20.59-.93l-2.06-4h.08l2.07 4zm-23.8-.61c-.5-.3-1-.62-1.5-1a24.58 24.58 0 01-2.77-2.25l3.12-3.32a19.56 19.56 0 002.25 1.83c.4.27.81.53 1.21.79h.07v.07zm25.38-.23l-2.4-3.86a20.61 20.61 0 002.33-1.69V85h.11c.36-.3.71-.62 1-.94l3.17 3.26c-.41.4-.85.8-1.32 1.19a24.56 24.56 0 01-2.88 2.1zm-30.88-4.28l-.06-.07 3.27-3 .07.07zm37.43-1.69L404.19 82l.06-.08 3.53 2.72zM368 83.64c-.32-.47-.64-1-1-1.5a25 25 0 01-1.54-3.16l4.23-1.69a18.93 18.93 0 001.31 2.48c.23.4.48.79.76 1.19zm40.76-.36l-3.76-2.5a19.61 19.61 0 001.42-2.53c.2-.45.4-.9.56-1.34l4.25 1.62c-.21.54-.45 1.1-.7 1.64a25 25 0 01-1.74 3.12zm-43.86-6v-.09l4.25-1.35v.09zm47.34-2.14h-.06l-4.38-1-.07-.14 4.55 1v.06zm-48.19-1.34c-.1-.59-.17-1.18-.23-1.77-.07-.73-.1-1.46-.1-2.18v-1.33l4.54.24v1.09c0 .6 0 1.21.08 1.82 0 .47.11 1 .18 1.44zm48.54-.45l-4.5-.65a20.79 20.79 0 00.2-2.9h4.5a25.35 25.35 0 01-.25 3.55zm-4.3-4.28a20.66 20.66 0 00-.32-2.89c-.08-.46-.18-.92-.3-1.38v-.09l4.41-1.15c.16.57.28 1.16.39 1.75a24.1 24.1 0 01.38 3.54zm-39.89-1.81l-4.4-.56v-.1l4.53.57zm.6-2.85l-4.39-1.22c.16-.55.34-1.13.53-1.7a25.1 25.1 0 011.46-3.26l4 2.15a21.68 21.68 0 00-1.15 2.62c-.16.45-.31.91-.44 1.38zM406.8 62v-.09l4.11-1.74v.09zm-.66-1.29a20.45 20.45 0 00-1.5-2.49c-.27-.37-.56-.76-.88-1.15l3.51-2.9c.38.46.75.93 1.09 1.42a24.41 24.41 0 011.82 3zm-34.65-1.6h-.19l-3.77-2.38v-.08zm1.56-2.32l-3.45-3c.37-.43.76-.86 1.17-1.28a25.84 25.84 0 012.69-2.35l2.74 3.64a20.87 20.87 0 00-2.16 1.87h-.1c-.33.34-.66.7-1 1.06zm28.73-1.86l-.08-.07 3.08-3.4v.17zm-1.15-.9a19.82 19.82 0 00-2.42-1.62c-.43-.24-.86-.48-1.28-.67v-.06l1.94-4.07c.51.25 1 .52 1.53.81a26.39 26.39 0 013 2zm-23.12-1.08h-.13L375 49.14V49l1 1.6zm2.49-1.4l-1.89-4.15c.51-.23 1.08-.47 1.64-.68a25.36 25.36 0 013.44-1l.94 4.46a19.1 19.1 0 00-2.8.81c-.46.17-.91.36-1.34.55zm14.29-1h-.1l1.34-4.34.08.09zm-1.42-.33a19.33 19.33 0 00-2.86-.45q-.73-.06-1.46-.06v-4.55c.57 0 1.17 0 1.78.08a24.27 24.27 0 013.53.54zm-7.33-.38l-.6-4.41h.1l.6 4.42h-.1z" transform="translate(-355.1 -36.56)"/><path id="_复合路径_2" data-name="&lt;复合路径&gt;" class="cls-1" d="M388.29 87.73a18 18 0 1118-18 18 18 0 01-18 18zm0-34.89a16.92 16.92 0 1016.92 16.92 16.94 16.94 0 00-16.92-16.93z" transform="translate(-355.1 -36.56)"/><path id="_复合路径_3" data-name="&lt;复合路径&gt;" class="cls-1" d="M389.61 96.94v-.57a26.63 26.63 0 009.77-2.37v-.15l.06.15.21.47v.21l-.06-.17a26.85 26.85 0 01-10 2.42zm-10.13-1.43a27 27 0 01-8.92-5.13l.37-.44a26.43 26.43 0 008.74 5zm28.49-7l-.41-.39a26.35 26.35 0 005.44-8.47l.52.21a27.21 27.21 0 01-5.52 8.66zm-43.79-6.19h-.14.08a27.17 27.17 0 01-2.92-9.79v-.1l.56-.06a26.45 26.45 0 002.87 9.66zm51.28-12.55H415v-.05h.5v.07zm-1.06-5.29a26.41 26.41 0 00-3.83-9.32l.48-.31a26.87 26.87 0 013.95 9.51zm-51.74-2.1l-.73-.21h.23a26.9 26.9 0 014.66-9.13l.42.33a26.44 26.44 0 00-4.57 9zm40.94-14.44a26.62 26.62 0 00-9.19-4.12l.18-.79v.28a27.07 27.07 0 019.37 4.19zm-28.81-1.17l-.29-.49a26.66 26.66 0 019.7-3.43l.07.49v.29l-.06-.24a26.43 26.43 0 00-9.46 3.35z" transform="translate(-355.1 -36.56)"/><path id="_复合路径_4" data-name="&lt;复合路径&gt;" class="cls-1" d="M388.29 102.94h-.36a33.08 33.08 0 01-21.75-8.44l8.31-9.3a20.66 20.66 0 0013.54 5.25h1.51l.76 12.49c-.65-.02-1.3 0-2.01 0zm23.27-9.59l-8.74-8.83.07-.07 8.74 8.83zm-47.05-.51l-.07-.07 8.93-8.64.06.07zm48.74-1.2l-9.43-8.24A20.39 20.39 0 00409 69.75v-.6l12.51-.36v1a33.12 33.12 0 01-8.2 21.84zm-58.11-20.15V69a33.13 33.13 0 018.68-21.66l9.24 8.45a20.68 20.68 0 00-5.4 13.48v1.51zm48.38-15.78l-.07-.07 9.11-8.45.07.07zm-29.51-1l-8.55-9 .08-.07 8.54 9zm28.41-.07A20.65 20.65 0 00389 49.1h-1.51l-.5-12.51h2.41a33.11 33.11 0 0121.56 8.9z" transform="translate(-355.1 -36.56)"/><path id="_复合路径_5" data-name="&lt;复合路径&gt;" class="cls-1" d="M388.3 87.29h-.15a17.55 17.55 0 01-11.55-4.46l-.42-.38.28-.37-.28.27-.89-.88 10.27-9.94.17.17.43.42a3.08 3.08 0 002.07.81h.86l.91 14.33h-.6c-.4.02-.76.03-1.1.03zm-10.54-5a16.38 16.38 0 0010.36 3.83h.67L388 74a4.17 4.17 0 01-2.19-.76zm22.38.3l-10-10.16.17-.17h-.05l.44-.43a3.09 3.09 0 00.78-2.06v-.68L392 69l13.86-.39v1.13a17.48 17.48 0 01-4.34 11.54l-.37.43-.38-.27.23.3zm-8.32-10.47l9.15 8a16.38 16.38 0 003.73-10.36l-12.16.34a4.15 4.15 0 01-.72 2.05zm-21-.88v-.62-1.23a17.5 17.5 0 014.59-11.46l.38-.42.34.25-.24-.26.89-.88 9.8 10.38-.18.16-.43.42a3.06 3.06 0 00-.83 2.06v.2l.12.59-.65.09zm5.06-12.19a16.36 16.36 0 00-3.95 10.32V70.04l12.07-.58a4.18 4.18 0 01.77-2.18zm15.2 9l-.32-.36-.25-.19a3.06 3.06 0 00-2.06-.88h-.84l-.06-.57-.55-13.71.63-.12h1.22a17.48 17.48 0 0111.45 4.71l.42.39-.24.32.26-.24.83.95zm-2.41-2.56a4.06 4.06 0 012.18.8l8.3-8.88a16.32 16.32 0 00-10.28-4.06h-.68z" transform="translate(-355.1 -36.56)"/></g></svg>