<svg preserveAspectRatio="none" id="Layer_1" data-name="Layer 1" xmlns="http://www.w3.org/2000/svg" xmlns:xlink="http://www.w3.org/1999/xlink" viewBox="0 0 100.67 101.97"><defs><style>.cls-1{fill:#2e2855;}.cls-2{fill:#3ee497;}.cls-3{fill:url(#linear-gradient);}.cls-4{fill:url(#linear-gradient-2);}.cls-5{fill:url(#linear-gradient-3);}</style><linearGradient id="linear-gradient" x1="500.39" y1="506.92" x2="571.56" y2="578.09" gradientUnits="userSpaceOnUse"><stop offset="0.01" stop-color="#5d85c4"/><stop offset="1" stop-color="#334f7e"/></linearGradient><linearGradient id="linear-gradient-2" x1="490.48" y1="574.57" x2="555.97" y2="574.57" gradientUnits="userSpaceOnUse"><stop offset="0.02" stop-color="#dd697d"/><stop offset="0.48" stop-color="#d13954"/><stop offset="0.98" stop-color="#a13246"/></linearGradient><linearGradient id="linear-gradient-3" x1="535.98" y1="501.64" x2="576.56" y2="501.64" gradientUnits="userSpaceOnUse"><stop offset="0.01" stop-color="#eebe77"/><stop offset="0.97" stop-color="#a87c40"/></linearGradient></defs><title>circle12</title><path class="cls-1" d="M538.48,572.33a32.24,32.24,0,0,1-32.16-29l4-.41a28.34,28.34,0,0,0,37.21,23.92l1.28,3.79A32.21,32.21,0,0,1,538.48,572.33Z" transform="translate(-488.15 -489.67)"/><path class="cls-1" d="M560.09,564l-2.68-3a28.18,28.18,0,0,0,8.75-15l3.91,0.85A32.16,32.16,0,0,1,560.09,564Z" transform="translate(-488.15 -489.67)"/><path class="cls-1" d="M566.37,535a28.33,28.33,0,0,0-52.3-9.35l-3.44-2a32.33,32.33,0,0,1,59.68,10.67Z" transform="translate(-488.15 -489.67)"/><path class="cls-2" d="M538.48,567.33A27.33,27.33,0,1,1,565.81,540,27.36,27.36,0,0,1,538.48,567.33Zm0-52.67A25.33,25.33,0,1,0,563.81,540,25.36,25.36,0,0,0,538.48,514.67Z" transform="translate(-488.15 -489.67)"/><path class="cls-3" d="M505.92,550.86l-15.18,5.06a50.31,50.31,0,0,1,12.38-51.72l11.26,11.39A34.25,34.25,0,0,0,505.92,550.86Zm66.81-13.2c0.05,0.77.09,1.55,0.09,2.34a34.37,34.37,0,0,1-20,31.18l6.69,14.55A50.33,50.33,0,0,0,588.81,540c0-1.15-.05-2.3-0.13-3.43Z" transform="translate(-488.15 -489.67)"/><path class="cls-4" d="M491.78,560.1a1.3,1.3,0,1,1,1.3-1.3A1.3,1.3,0,0,1,491.78,560.1Zm3.8,3.85a1.3,1.3,0,1,0-1.14,1.44A1.3,1.3,0,0,0,495.57,564Zm3.08,4.83a1.3,1.3,0,1,0-1,1.57A1.3,1.3,0,0,0,498.65,568.78Zm3.62,4.44a1.3,1.3,0,1,0-.78,1.67A1.3,1.3,0,0,0,502.27,573.22Zm4.11,4a1.3,1.3,0,1,0-.58,1.75A1.3,1.3,0,0,0,506.38,577.21Zm4.55,3.48a1.3,1.3,0,1,0-.37,1.8A1.3,1.3,0,0,0,510.92,580.69Zm4.92,2.93a1.3,1.3,0,1,0-.16,1.83A1.3,1.3,0,0,0,515.84,583.62Zm5.23,2.34a1.3,1.3,0,1,0,.06,1.84A1.3,1.3,0,0,0,521.07,586Zm5.46,1.71a1.3,1.3,0,1,0,.27,1.82A1.3,1.3,0,0,0,526.53,587.67Zm5.62,1.07a1.3,1.3,0,1,0,.48,1.78A1.3,1.3,0,0,0,532.16,588.73Zm5.71,0.4a1.3,1.3,0,1,0,.68,1.71A1.3,1.3,0,0,0,537.87,589.14Zm5.72-.26a1.3,1.3,0,1,0,.88,1.62A1.3,1.3,0,0,0,543.59,588.87Zm5.65-.93a1.3,1.3,0,1,0,1.06,1.51A1.3,1.3,0,0,0,549.24,587.95Zm5.5-1.58a1.3,1.3,0,1,0,1.23,1.37A1.3,1.3,0,0,0,554.74,586.37Z" transform="translate(-488.15 -489.67)"/><path class="cls-5" d="M569.64,513.62L566.18,510l6.92-6.63,3.46,3.61Zm-5.92-5.71-4.11-2.85,5.45-7.88,4.11,2.85Zm-6.94-4.41-4.6-2,3.76-8.81,4.6,2Zm-7.68-2.93-4.9-1,1.92-9.39,4.9,1ZM541,499.25h-5v-9.58h5v9.58Z" transform="translate(-488.15 -489.67)"/></svg>