<svg preserveAspectRatio="none" id="Layer_1" data-name="Layer 1" xmlns="http://www.w3.org/2000/svg" viewBox="0 0 63.22 63.22"><defs><style>.cls-1{fill:#0e8092;}.cls-2{fill:#ff8a29;}.cls-3{fill:#12aac2;}</style></defs><title>circle70</title><path class="cls-1" d="M313.89,253.45a28.39,28.39,0,1,1,28.39-28.39A28.42,28.42,0,0,1,313.89,253.45Zm0-55.77a27.39,27.39,0,1,0,27.39,27.39A27.42,27.42,0,0,0,313.89,197.68Z" transform="translate(-282.28 -193.46)"/><path class="cls-2" d="M313.89,251a26.07,26.07,0,0,1-26-26h3a23,23,0,1,0,46.09,0h3A26.07,26.07,0,0,1,313.89,251Z" transform="translate(-282.28 -193.46)"/><path class="cls-3" d="M313.89,246.58A21.64,21.64,0,0,1,292.28,225h1a20.61,20.61,0,0,0,41.22,0h1A21.63,21.63,0,0,1,313.89,246.58Z" transform="translate(-282.28 -193.46)"/><path class="cls-2" d="M313.89,244.51A19.57,19.57,0,0,1,294.34,225h0.5a19,19,0,1,0,38.09,0h0.5A19.57,19.57,0,0,1,313.89,244.51Z" transform="translate(-282.28 -193.46)"/><path class="cls-3" d="M326.6,233H301.18l12.71-20.68ZM303,232h21.84l-10.92-17.77Z" transform="translate(-282.28 -193.46)"/><circle class="cls-2" cx="31.61" cy="6.94" r="1.2"/><circle class="cls-2" cx="31.61" cy="0.6" r="0.6"/><circle class="cls-2" cx="321.92" cy="195.11" r="0.6" transform="translate(-232.18 262.07) rotate(-74.99)"/><circle class="cls-2" cx="329.39" cy="198.21" r="0.6" transform="translate(-289.19 191.01) rotate(-60.02)"/><circle class="cls-2" cx="335.82" cy="203.14" r="0.6" transform="translate(-327.56 103.5) rotate(-45)"/><circle class="cls-2" cx="340.74" cy="209.56" r="0.6" transform="translate(-341.41 5.09) rotate(-30.01)"/><circle class="cls-2" cx="343.84" cy="217.04" r="0.6" transform="matrix(0.97, -0.26, 0.26, 0.97, -326.72, -97.11)"/><circle class="cls-2" cx="62.62" cy="31.61" r="0.6"/><circle class="cls-2" cx="343.84" cy="233.09" r="0.6" transform="translate(-252.52 311.5) rotate(-75.01)"/><circle class="cls-2" cx="340.74" cy="240.57" r="0.6" transform="translate(-320.26 221.91) rotate(-60)"/><circle class="cls-2" cx="335.82" cy="246.99" r="0.6" transform="translate(-358.57 116.34) rotate(-45)"/><circle class="cls-2" cx="329.39" cy="251.92" r="0.6" transform="translate(-364.11 5.02) rotate(-30)"/><circle class="cls-2" cx="321.92" cy="255.02" r="0.6" transform="translate(-337.27 -101.55) rotate(-14.98)"/><circle class="cls-2" cx="31.61" cy="62.62" r="0.6"/><circle class="cls-2" cx="305.86" cy="255.02" r="0.6" transform="translate(-301.89 291.03) rotate(-75)"/><circle class="cls-2" cx="298.39" cy="251.92" r="0.6" transform="translate(-351.27 190.89) rotate(-60)"/><circle class="cls-2" cx="291.96" cy="246.99" r="0.6" transform="translate(-371.42 85.33) rotate(-45)"/><circle class="cls-2" cx="287.04" cy="240.57" r="0.6" transform="translate(-364.11 -17.69) rotate(-30)"/><circle class="cls-2" cx="283.94" cy="233.09" r="0.6" transform="translate(-332.9 -112.1) rotate(-14.99)"/><circle class="cls-2" cx="0.6" cy="31.61" r="0.6"/><circle class="cls-2" cx="283.94" cy="217.04" r="0.6" transform="translate(-281.45 241.7) rotate(-75.01)"/><circle class="cls-2" cx="287.04" cy="209.56" r="0.6" transform="translate(-320.28 159.82) rotate(-59.99)"/><circle class="cls-2" cx="291.96" cy="203.14" r="0.6" transform="translate(-340.41 72.49) rotate(-45)"/><circle class="cls-2" cx="298.39" cy="198.21" r="0.6" transform="translate(-341.4 -17.81) rotate(-29.98)"/><circle class="cls-2" cx="305.86" cy="195.11" r="0.6" transform="translate(-322.39 -107.54) rotate(-15.02)"/><circle class="cls-2" cx="320.28" cy="201.23" r="1.2" transform="translate(-239.29 265.04) rotate(-75)"/><circle class="cls-2" cx="326.23" cy="203.7" r="1.2" transform="translate(-295.6 190.87) rotate(-59.99)"/><circle class="cls-2" cx="331.34" cy="207.62" r="1.2" transform="translate(-332.04 101.64) rotate(-45)"/><circle class="cls-2" cx="335.26" cy="212.73" r="1.2" transform="translate(-343.73 2.61) rotate(-29.99)"/><circle class="cls-2" cx="337.72" cy="218.68" r="1.2" transform="translate(-327.4 -98.5) rotate(-15.01)"/><circle class="cls-3" cx="328.63" cy="234.45" r="1.2" transform="translate(-331.8 -100.31) rotate(-15.01)"/><circle class="cls-3" cx="313.89" cy="210.02" r="1.2" transform="translate(-325.95 -105.04) rotate(-15)"/><circle class="cls-3" cx="299.5" cy="234.45" r="1.2" transform="translate(-332.79 -107.86) rotate(-15.01)"/><circle class="cls-2" cx="290.06" cy="218.68" r="1.2" transform="translate(-278.49 248.84) rotate(-75.01)"/><circle class="cls-2" cx="292.52" cy="212.73" r="1.2" transform="matrix(0.5, -0.87, 0.87, 0.5, -320.28, 166.17)"/><circle class="cls-2" cx="296.44" cy="207.62" r="1.2" transform="translate(-342.26 76.97) rotate(-45)"/><circle class="cls-2" cx="301.55" cy="203.7" r="1.2" transform="matrix(0.87, -0.5, 0.5, 0.87, -343.73, -15.42)"/><circle class="cls-2" cx="307.5" cy="201.23" r="1.2" transform="translate(-323.89 -106.99) rotate(-15)"/><rect class="cls-3" x="319.73" y="218.39" width="0.25" height="16.53" transform="translate(-348.87 99.1) rotate(-45)"/><rect class="cls-3" x="299.63" y="226.47" width="16.71" height="0.25" transform="translate(-352.32 90.59) rotate(-44.99)"/><rect class="cls-3" x="31.48" y="19.82" width="0.25" height="18.97"/></svg>