<svg preserveAspectRatio="none" xmlns="http://www.w3.org/2000/svg" viewBox="0 0 184.65 175.47"><defs><linearGradient id="linear-gradient" x1="255.88" y1="142.67" x2="343.92" y2="217.16" gradientUnits="userSpaceOnUse"><stop offset="0" stop-color="red"/><stop offset=".42" stop-color="#f60"/><stop offset=".54" stop-color="#ff9300"/><stop offset="1" stop-color="red"/></linearGradient><style>.cls-2{fill:#29abe2}.cls-3,.cls-6{fill:#fff}.cls-3{opacity:.56}.cls-4{fill:#0ff}.cls-5{mix-blend-mode:overlay}.cls-7{fill:#0071bc}.cls-8{fill:#2e3192}</style></defs><g style="isolation:isolate"><g id="Layer_2" data-name="Layer 2"><path class="cls-2" d="M374.94 130.09h-2l-1.15 1.15H371a86.44 86.44 0 00-9.35-11.56c-1.6-1.66-3.26-3.25-5-4.77-.5-.44-1-.89-1.53-1.32l-.79-.66-1-.84-.67-.53c-.53-.43-1.08-.84-1.62-1.24-.22-.17-.45-.34-.68-.49l-2.92 1.11-1.1.41q-1.51-1-3.08-2c-.45-.28-.93-.56-1.39-.83s-1.17-.71-1.77-1c-.58-.32-1.16-.63-1.75-.95s-1-.52-1.44-.76c-.75-.39-1.52-.74-2.28-1.1l-1-.5-.74-.33c-1-.43-2-.85-3-1.24h-.05c-1-.39-2-.76-3-1.11l-.78-.28c-1-.32-1.95-.63-2.93-.93l-1-.28c-.8-.23-1.6-.44-2.42-.64l-1.47 1.47c-.27 0-.55-.1-.83-.14l-.34-.06-1.78-.28c-.7-.11-1.43-.2-2.14-.29s-1.42-.18-2.15-.25l-2.17-.2c-1.44-.12-2.91-.22-4.37-.28l-1.81-.07h-5.24l-1.81.07c-1.46.07-2.93.16-4.37.28l-2.17.2c-.72.07-1.43.16-2.15.25s-1.43.18-2.14.29l-1.78.28-.34.06c-.28 0-.55.09-.83.14l-1.47-1.47c-.81.2-1.62.41-2.42.64l-1 .28c-1 .3-2 .6-2.93.93l-.78.28c-1 .35-2 .72-3 1.11h-.05c-1 .39-2 .81-3 1.24l-.74.33-1 .5c-.76.36-1.53.71-2.28 1.1-.48.24-1 .51-1.44.76s-1.2.64-1.8 1l-.13.07c-.55.32-1.1.65-1.64 1s-.94.55-1.39.83q-1.56 1-3.08 2l-1.1-.41-2.92-1.11c-.23.16-.45.32-.68.49-.53.4-1.09.81-1.62 1.24l-.67.53-1 .84-.79.66c-.52.43-1 .88-1.53 1.32a86.482 86.482 0 00-5 4.77 86.44 86.44 0 00-9.36 11.44h-.77l-1.15-1.15h-2a90.82 90.82 0 0126.52-26.33c2.4-1.55 4.89-3 7.44-4.32l1.2.47 2.62.89q2.47-1.19 5-2.21l1.71-.68h.13c.64-.24 1.27-.47 1.92-.69s1.37-.49 2.06-.7 1.52-.47 2.27-.7l.68-.2c.17 0 .33-.09.51-.13l.57-.16 1.08-.29.57-.14 1-.25 1.35-.31c.35-.08.7-.15 1.06-.22.55-.13 1.1-.24 1.66-.34s1.35-.24 2-.36l2.12-.32h.09l1.79-.22c.93-.11 1.85-.19 2.78-.27l2.15-.14c.7 0 1.39-.07 2.11-.09h4.98c.72 0 1.41 0 2.11.09l2.15.14c.93.08 1.85.16 2.78.27l1.79.12h.09l2.12.32c.68.12 1.37.23 2 .36s1.12.21 1.67.34c.36.07.72.14 1.06.22l1.35.31 1 .25.65.2 1.08.29.57.16c.18 0 .34.08.51.13l.68.2c.76.22 1.52.45 2.27.7s1.37.46 2.06.7 1.28.45 1.92.69h.13l1.71.68q2.56 1 5 2.21l2.62-.89 1.2-.47q3.75 1.95 7.28 4.22a90.9 90.9 0 0126.69 26.47zM374.94 229.91a90.79 90.79 0 01-34 30.66l-1.2-.47-2.61-.89q-2.47 1.19-5 2.21l-1.71.68h-.13c-.64.24-1.27.47-1.92.69s-1.37.49-2.06.7-1.52.47-2.27.7l-.68.2c-.17 0-.33.09-.51.13l-.57.16-1.08.29-.57.14-1 .25-1.35.31c-.35.08-.7.15-1.06.22-.55.13-1.1.24-1.67.34s-1.35.24-2 .36l-2.12.32h-.09l-1.79.22c-.93.11-1.85.19-2.78.27l-2.15.14c-.7 0-1.39.07-2.11.09h-4.98c-.72 0-1.41 0-2.11-.09l-2.15-.14c-.93-.08-1.85-.16-2.78-.27l-1.79-.22h-.09l-2.12-.32c-.68-.11-1.37-.23-2-.36s-1.12-.21-1.66-.34c-.36-.07-.72-.14-1.06-.22l-1.35-.31-1-.25-.57-.14-1.08-.29-.57-.16c-.18 0-.34-.08-.51-.13l-.68-.2c-.76-.22-1.52-.45-2.27-.7s-1.37-.46-2.06-.7-1.28-.45-1.92-.69h-.13l-1.71-.68q-2.56-1-5-2.21l-2.61.89-1.2.47a90.79 90.79 0 01-34-30.66h2l1.15-1.15h.74a86.44 86.44 0 009.35 11.56c1.6 1.66 3.26 3.25 5 4.77.5.44 1 .89 1.53 1.32l.79.66 1 .84.67.53c.53.43 1.08.84 1.62 1.24.22.17.45.34.68.49l2.92-1.11 1.1-.41q1.51 1 3.08 2c.45.28.93.56 1.39.83s1.17.71 1.77 1 1.2.65 1.8 1 1 .52 1.44.76c.75.39 1.52.74 2.28 1.1l1 .5.74.33c1 .43 2 .85 3 1.24h.05c1 .39 2 .76 3 1.11l.78.28c1 .32 1.95.63 2.93.93l1 .28c.8.23 1.6.44 2.42.64l1.47-1.47c.27 0 .55.1.83.14l.34.06 1.78.28c.7.11 1.43.2 2.14.29s1.42.18 2.15.25l2.17.2c1.44.12 2.91.22 4.37.28l1.81.07h5.24l1.81-.07c1.46-.07 2.93-.16 4.37-.28l2.17-.2c.72-.07 1.43-.16 2.15-.25s1.43-.18 2.14-.29l1.78-.28.34-.06c.28 0 .55-.09.83-.14l1.47 1.47c.81-.2 1.62-.41 2.42-.64l1-.28c1-.3 2-.6 2.93-.93l.78-.28c1-.35 2-.72 3-1.11h.05c1-.39 2-.81 3-1.24l.74-.33 1-.5c.76-.36 1.53-.71 2.28-1.1.48-.24 1-.51 1.44-.76s1.2-.64 1.8-1 1.18-.7 1.77-1 .94-.55 1.39-.83q1.56-1 3.08-2l1.1.41 2.92 1.11c.23-.16.45-.32.68-.49.53-.4 1.09-.81 1.62-1.24l.67-.53 1-.84.79-.66c.52-.43 1-.88 1.53-1.32 1.73-1.52 3.39-3.11 5-4.77a86.44 86.44 0 009.31-11.56h.77l1.15 1.15h2z" transform="translate(-207.68 -92.27)"/><path class="cls-3" d="M348.26 103.65l-8.26 3.76c-.58-.32-1.16-.63-1.75-.95s-1-.52-1.44-.76c-.75-.39-1.52-.74-2.28-1.1l-1-.5-.74-.33c-1-.43-2-.85-3-1.24h-.05c-1-.39-2-.76-3-1.11l-.78-.28c-1-.32-1.95-.63-2.93-.93l-1-.28c-.8-.23-1.6-.44-2.42-.64l-1.47 1.47c-.27 0-.55-.1-.83-.14l-.34-.06-1.78-.28c-.7-.11-1.43-.2-2.14-.29s-1.42-.18-2.15-.25l-2.17-.2c-1.44-.12-2.91-.22-4.37-.28l-1.81-.07h-5.24l-1.81.07c-1.46.07-2.93.16-4.37.28l-2.17.2c-.72.07-1.43.16-2.15.25s-1.43.18-2.14.29l-1.78.28-.34.06c-.28 0-.55.09-.83.14l-1.47-1.47c-.81.2-1.62.41-2.42.64l-1 .28c-1 .3-2 .6-2.93.93l-.78.28c-1 .35-2 .72-3 1.11h-.05c-1 .39-2 .81-3 1.24l-.74.33-1 .5c-.76.36-1.53.71-2.28 1.1-.48.24-1 .51-1.44.76s-1.2.64-1.8 1l-.13.07-8.2-3.76c2.4-1.55 4.89-3 7.44-4.32l1.2.47 2.62.89q2.47-1.19 5-2.21l1.71-.68h.13c.64-.24 1.27-.47 1.92-.69s1.37-.49 2.06-.7 1.52-.47 2.27-.7l.68-.2c.17 0 .33-.09.51-.13l.57-.16 1.08-.29.57-.14 1-.25 1.35-.31c.35-.08.7-.15 1.06-.22.55-.13 1.1-.24 1.66-.34s1.35-.24 2-.36l2.12-.32h.09l1.79-.22c.93-.11 1.85-.19 2.78-.27l2.15-.14c.7 0 1.39-.07 2.11-.09h4.98c.72 0 1.41 0 2.11.09l2.15.14c.93.08 1.85.16 2.78.27l1.91.11h.09l2.12.32c.68.12 1.37.23 2 .36s1.12.21 1.67.34c.36.07.72.14 1.06.22l1.35.31 1 .25.65.2 1.08.29.57.16c.18 0 .34.08.51.13l.68.2c.76.22 1.52.45 2.27.7s1.37.46 2.06.7 1.28.45 1.92.69h.13l1.71.68q2.56 1 5 2.21l2.62-.89 1.2-.47q3.76 1.98 7.29 4.25zM348.26 256.35l-8.26-3.76c-.58.32-1.16.63-1.75.95s-1 .52-1.44.76c-.75.39-1.52.74-2.28 1.1l-1 .5-.74.33c-1 .43-2 .85-3 1.24h-.05c-1 .39-2 .76-3 1.11l-.78.28c-1 .32-1.95.63-2.93.93l-1 .28c-.8.23-1.6.44-2.42.64l-1.47-1.47c-.27 0-.55.1-.83.14l-.34.06-1.78.28c-.7.11-1.43.2-2.14.29s-1.42.18-2.15.25l-2.17.2c-1.44.12-2.91.22-4.37.28l-1.81.07h-5.24l-1.81-.07c-1.46-.07-2.93-.16-4.37-.28l-2.17-.2c-.72-.07-1.43-.16-2.15-.25s-1.43-.18-2.14-.29l-1.78-.28-.34-.06c-.28 0-.55-.09-.83-.14l-1.47 1.47c-.81-.2-1.62-.41-2.42-.64l-1-.28c-1-.3-2-.6-2.93-.93l-.78-.28c-1-.35-2-.72-3-1.11h-.05c-1-.39-2-.81-3-1.24l-.74-.33-1-.5c-.76-.36-1.53-.71-2.28-1.1-.48-.24-1-.51-1.44-.76s-1.2-.64-1.8-1l-.13-.07-8.2 3.76c2.4 1.55 4.89 3 7.44 4.32l1.2-.47 2.62-.89q2.47 1.19 5 2.21l1.71.68h.13c.64.24 1.27.47 1.92.69s1.37.49 2.06.7 1.52.47 2.27.7l.68.2c.17 0 .33.09.51.13l.57.16 1.08.29.57.14 1 .25 1.35.31c.35.08.7.15 1.06.22.55.13 1.1.24 1.66.34s1.35.24 2 .36l2.12.32h.09l1.79.22c.93.11 1.85.19 2.78.27l2.15.14c.7 0 1.39.07 2.11.09h4.98c.72 0 1.41 0 2.11-.09l2.15-.14c.93-.08 1.85-.16 2.78-.27l1.79-.22h.09l2.12-.32c.68-.11 1.37-.23 2-.36s1.12-.21 1.67-.34c.36-.07.72-.14 1.06-.22l1.35-.31 1-.25.57-.14 1.08-.29.57-.16c.18 0 .34-.08.51-.13l.68-.2c.76-.22 1.52-.45 2.27-.7s1.37-.46 2.06-.7 1.28-.45 1.92-.69h.13l1.71-.68q2.56-1 5-2.21l2.62.89 1.2.47q3.96-1.93 7.49-4.2z" transform="translate(-207.68 -92.27)"/><path class="cls-4" d="M25.55 136.24l-2.19 1.59.41.55 2.18-1.6-.4-.54z"/><path class="cls-4" d="M243.75 240.38l-1.84 2 1.05 1 1.81-2zM242.25 238.95l-1.89 1.93 1 1 1.86-2zM246.85 243.13l-1.74 2.07 1.1.91 1.71-2.1zM245.28 241.78l-1.8 2 1.08.94 1.76-2.06zM240.78 237.48l-1.94 1.89 1 1 1.91-1.92zM236.62 232.85l-2.08 1.73.92 1.09 2-1.77zM239.36 236l-2 1.84 1 1 2-1.87zM234 229.6l-2.16 1.63.87 1.14 2.13-1.67zM238 234.43l-2 1.79 1 1.07 2-1.82zM235.31 231.24l-2.12 1.68.9 1.11 2.09-1.72z" transform="translate(-207.68 -92.27)"/><path class="cls-4" d="M39.09 154.3l.54.42 1.67-2.12-.52-.42-1.69 2.12zM143.34 152.6l1.68 2.12.54-.42-1.69-2.12-.53.42z"/><path class="cls-4" d="M363.82 232.32l2.09 1.72.9-1.11-2.12-1.68zM362.48 233.9l2.05 1.77.92-1.09-2.08-1.74zM361.11 235.46l2 1.82 1-1.07-2-1.79zM365.12 230.7l2.13 1.67.87-1.14-2.12-1.63zM359.7 237l2 1.87 1-1-2-1.84zM352.08 244l1.71 2.1 1.1-.91-1.74-2.07zM353.67 242.68l1.76 2.06 1.08-.94-1.8-2zM355.23 241.31l1.81 2 1.05-1-1.84-2zM358.24 238.46l1.91 1.92 1-1-1.94-1.89zM356.76 239.91l1.86 2 1-1-1.9-1.93z" transform="translate(-207.68 -92.27)"/><path class="cls-4" d="M158.7 136.78l2.18 1.6.4-.55-2.19-1.59-.39.54zM25.95 38.69l-2.18-1.61-.41.56 2.19 1.59.4-.54z"/><path class="cls-4" d="M240.3 123l-2-1.87-1 1 2 1.84zM241.75 121.54l-1.91-1.92-1 1 1.94 1.88zM243.24 120.09l-1.86-2-1 1 1.89 1.93zM247.91 116l-1.71-2.1-1.1.91 1.74 2.07zM246.32 117.32l-1.76-2.05-1.08.94 1.8 2zM244.76 118.69l-1.81-2-1.05 1 1.85 2zM234.88 129.31l-2.14-1.66-.87 1.13 2.13 1.62zM236.18 127.69l-2.1-1.69-.9 1.11 2.12 1.68zM238.89 124.54l-2-1.82-1 1.07 2 1.79zM237.51 126.1l-2-1.77-.92 1.09 2.08 1.74z" transform="translate(-207.68 -92.27)"/><path class="cls-4" d="M41.3 22.87l-1.68-2.13-.54.43 1.69 2.11.53-.41zM145.56 21.17l-.54-.43-1.68 2.13.53.42 1.69-2.12z"/><path class="cls-4" d="M366 130.4l2.16-1.63-.87-1.14-2.13 1.66zM362 125.57l2-1.79-1-1.07-2 1.82zM360.64 124l2-1.84-1-1-2 1.87zM359.22 122.53l1.94-1.89-1-1-1.91 1.92zM363.38 127.15l2.08-1.73-.92-1.09-2.05 1.77zM364.69 128.76l2.12-1.68-.9-1.11-2.09 1.72zM357.75 121.05l1.9-1.93-1-1-1.86 2zM356.25 119.62l1.85-2-1.05-1-1.81 2zM353.15 116.87l1.74-2.07-1.1-.91-1.71 2.1zM354.72 118.22l1.8-2-1.08-.94-1.76 2.06z" transform="translate(-207.68 -92.27)"/><path class="cls-4" d="M159.09 39.23l2.19-1.59-.4-.55-2.18 1.6.39.54z"/><path class="cls-4" d="M242.17 130.38h.9a75.65 75.65 0 0138.27-23.61l3.09 4.7h31.13l3.09-4.7a75.55 75.55 0 0138.28 23.61h.9A76.33 76.33 0 00319 106.17l-.7-.17-.39.6-2.75 4.19H284.8l-2.75-4.19-.39-.6-.7.17a76.43 76.43 0 00-38.79 24.21zM357.83 229.62h-.9a75.55 75.55 0 01-38.28 23.61l-3.09-4.7h-31.13l-3.09 4.7a75.65 75.65 0 01-38.27-23.61h-.9A76.43 76.43 0 00281 253.83l.7.17.39-.6 2.75-4.19h30.4l2.75 4.19.39.6.7-.17a76.33 76.33 0 0038.75-24.21z" transform="translate(-207.68 -92.27)"/><path class="cls-4" d="M25.55 136.24l-2.19 1.59.41.56 2.18-1.61-.4-.54z"/><path class="cls-4" d="M243.75 240.38l-1.84 2 1.05 1 1.81-2zM242.25 238.95l-1.89 1.93 1 1 1.86-2zM246.85 243.13l-1.74 2.07 1.1.91 1.71-2.1zM245.28 241.78l-1.8 2 1.08.94 1.76-2.06zM240.78 237.48l-1.94 1.88 1 1 1.91-1.92zM236.62 232.85l-2.08 1.73.92 1.09 2-1.77zM239.36 236l-2 1.84 1 1 2-1.87zM234 229.6l-2.16 1.63.87 1.14 2.13-1.67zM238 234.43l-2 1.79 1 1.07 2-1.82zM235.31 231.24l-2.12 1.68.9 1.11 2.09-1.72z" transform="translate(-207.68 -92.27)"/><path class="cls-4" d="M39.09 154.3l.54.42 1.67-2.12-.52-.42-1.69 2.12zM143.34 152.6l1.68 2.12.54-.42-1.69-2.12-.53.42z"/><path class="cls-4" d="M363.82 232.32l2.09 1.72.9-1.11-2.12-1.68zM362.48 233.91l2.05 1.77.92-1.09-2.08-1.74zM361.11 235.46l2 1.82 1-1.07-2-1.79zM365.12 230.7l2.13 1.67.87-1.14-2.12-1.63zM359.7 237l2 1.87 1-1-2-1.84zM352.08 244l1.71 2.1 1.1-.91-1.74-2.07zM353.67 242.69l1.76 2.06 1.08-.94-1.8-2zM355.23 241.32l1.81 2 1.05-1-1.84-2zM358.24 238.46l1.91 1.92 1-1-1.94-1.89zM356.76 239.91l1.86 2 1-1-1.9-1.93z" transform="translate(-207.68 -92.27)"/><path class="cls-4" d="M158.7 136.78l2.18 1.6.4-.55-2.19-1.59-.39.54zM25.95 38.7l-2.18-1.61-.41.55 2.19 1.59.4-.53z"/><path class="cls-4" d="M240.3 123l-2-1.87-1 1 2 1.84zM241.75 121.54l-1.91-1.92-1 1 1.94 1.88zM243.24 120.1l-1.86-2-1 1 1.89 1.93zM247.91 116l-1.71-2.1-1.1.91 1.74 2.07zM246.32 117.32l-1.76-2.05-1.08.94 1.8 2zM244.76 118.69l-1.81-2-1.05 1 1.85 2zM234.88 129.31l-2.14-1.66-.87 1.13 2.16 1.63zM236.18 127.69l-2.1-1.69-.9 1.11 2.12 1.68zM238.89 124.54l-2-1.82-1 1.07 2 1.79zM237.51 126.1l-2-1.77-.92 1.09 2.08 1.73z" transform="translate(-207.68 -92.27)"/><path class="cls-4" d="M41.3 22.87l-1.68-2.13-.54.43 1.69 2.12.53-.42zM145.56 21.17l-.54-.42-1.68 2.12.53.42 1.69-2.12z"/><path class="cls-4" d="M366 130.4l2.16-1.63-.87-1.14-2.13 1.66zM362 125.58l2-1.79-1-1.07-2 1.82zM360.64 124l2-1.84-1-1-2 1.87zM359.22 122.53l1.94-1.89-1-1-1.91 1.92zM363.38 127.15l2.08-1.73-.92-1.09-2.05 1.77zM364.69 128.76l2.12-1.68-.9-1.11-2.09 1.72zM357.75 121.05l1.9-1.93-1-1-1.86 2zM356.25 119.62l1.85-2-1.05-1-1.81 2zM353.15 116.87l1.74-2.07-1.1-.91-1.71 2.1zM354.72 118.22l1.8-2-1.08-.94-1.76 2.06z" transform="translate(-207.68 -92.27)"/><path class="cls-4" d="M159.09 39.23l2.19-1.59-.4-.55-2.18 1.6.39.54z"/><path class="cls-4" d="M281.35 106.77l3.09 4.7h31.13l3.09-4.7a75.55 75.55 0 0138.28 23.61h.9A76.33 76.33 0 00319 106.17l-.7-.17-.39.6-2.75 4.19H284.8l-2.75-4.19-.39-.6-.7.17a76.43 76.43 0 00-38.78 24.21h.9a75.65 75.65 0 0138.27-23.61zM318.65 253.23l-3.09-4.7h-31.13l-3.09 4.7a75.65 75.65 0 01-38.27-23.61h-.9A76.43 76.43 0 00281 253.83l.7.17.39-.6 2.75-4.19h30.4l2.75 4.19.39.6.7-.17a76.33 76.33 0 0038.79-24.21h-.9a75.55 75.55 0 01-38.32 23.61z" transform="translate(-207.68 -92.27)"/><g class="cls-5"><path class="cls-6" d="M231.13 221.63h-4.89a84 84 0 01-8.24-20.47l-.2-.81-.26-1.19 1.67-1.09 3.77-2.47v-31.21l-5.43-3.56.26-1.18c0-.16.19-.77.19-.77a83.6 83.6 0 018.28-20.51h4.89a79.8 79.8 0 00-8.81 20.57l4.86 3.19v35.75l-4.86 3.19a79.59 79.59 0 008.77 20.56zM381.48 198.5l1 .66-.26 1.19-.19.77a84.42 84.42 0 01-8.28 20.51h-4.89a79.59 79.59 0 008.82-20.57l-4.86-3.19v-35.74l4.86-3.19a79.59 79.59 0 00-8.82-20.57h4.89a84.09 84.09 0 018.25 20.47s.16.66.2.81l.26 1.18-5.43 3.56v31.21z" transform="translate(-207.68 -92.27)"/></g><g class="cls-5"><path class="cls-6" d="M231.35 221.76h-5.19v-.06a84.32 84.32 0 01-8.28-20.5l-.2-.81-.28-1.28 1.7-1.11 3.71-2.43v-31.11l-5.45-3.57.28-1.27c0-.16.19-.77.19-.77a83.86 83.86 0 018.29-20.54v-.06h5.18l-.12.19a79.72 79.72 0 00-8.77 20.45l4.84 3.17v35.88l-4.84 3.18a79.55 79.55 0 008.78 20.45zm-5-.25h4.6a79.82 79.82 0 01-8.72-20.41v-.09l4.88-3.2v-35.62l-4.88-3.2v-.09a80 80 0 018.71-20.41h-4.59a83.61 83.61 0 00-8.23 20.41l-.19.77-.25 1.1 5.42 3.55v31.34l-5.42 3.55.44 1.92a84.09 84.09 0 008.19 20.38zM373.83 221.76h-5.18l.12-.19a79.59 79.59 0 008.78-20.45l-4.84-3.18v-35.88l4.84-3.17a79.57 79.57 0 00-8.78-20.45l-.12-.19h5.19v.06a84.37 84.37 0 018.28 20.5l.2.81.28 1.27-5.45 3.57v31.07l5.45 3.57-.28 1.28-.19.77a84.67 84.67 0 01-8.3 20.54zm-4.74-.25h4.59a84.42 84.42 0 008.24-20.41l.19-.77.24-1.1-5.42-3.55v-31.35l5.42-3.55-.25-1.1-.2-.8a84.11 84.11 0 00-8.22-20.38h-4.6a79.83 79.83 0 018.72 20.41v.09l-4.88 3.2v35.61l4.88 3.2v.09a79.83 79.83 0 01-8.71 20.41z" transform="translate(-207.68 -92.27)"/></g><path class="cls-7" d="M235.26 133.94h-8.16l-1.15-1.15H224l-2.69 2.69v3.72l.61.6a96.8 96.8 0 00-8.62 40.2v.32a96.86 96.86 0 008.64 39.9l-.61.6v3.72l2.69 2.69h1.93l1.15-1.15h8.16l.76-.76h10.92V225H245l-.82-.82H226.5l-1.57-1.58h-1.56a96.34 96.34 0 01-6.8-18.46h.43a102.05 102.05 0 01-2.54-15.64h1.31a100.19 100.19 0 010-17.09h-1.31a102.05 102.05 0 012.54-15.59h-.41a96.37 96.37 0 016.8-18.46h1.56l1.57-1.58h17.71l.77-.78h1.91v-.3H236zM386.7 180a96.8 96.8 0 00-8.64-40.2l.61-.6v-3.72l-2.67-2.69h-1.93l-1.15 1.15h-8.16l-.76.76h-10.94v.3H355l.82.82h17.68l1.57 1.58h1.56a96.36 96.36 0 016.8 18.46H383a102.1 102.1 0 012.54 15.64h-1.31a100.19 100.19 0 010 17.09h1.31a102.1 102.1 0 01-2.54 15.59h.4a96.35 96.35 0 01-6.8 18.46h-1.56l-1.57 1.58h-17.68l-.79.78h-1.91v.26H364l.76.76h8.16l1.15 1.15H376l2.69-2.69v-3.68l-.61-.6a96.86 96.86 0 008.64-39.9v-.3z" transform="translate(-207.68 -92.27)"/><path class="cls-8" d="M218.55 141l-3.47.76a102.56 102.56 0 000 76.51l3.46.76a99.66 99.66 0 01.01-78.03zM384.92 141.75l-3.47-.76a99.66 99.66 0 010 78l3.46-.76a102.56 102.56 0 00.01-76.48z" transform="translate(-207.68 -92.27)"/><path d="M300 122.45A57.55 57.55 0 10357.54 180 57.61 57.61 0 00300 122.45zm0 113.23A55.68 55.68 0 11355.68 180 55.74 55.74 0 01300 235.68z" transform="translate(-207.68 -92.27)" fill="url(#linear-gradient)"/><path d="M300.57 243.48v-4h1l.09 4zm-5.1-.16l-1-.08.34-4 1 .08zm11.22-.19l-.41-4 .95-.11.48 4zm-17.31-.54l-1-.18.73-3.92.94.17zm23.37-.39l-.75-3.9.93-.2.86 3.89zm-29.36-.92l-1-.28 1.1-3.83.92.26zm35.31-.6l-1.17-3.8.92-.29 1.23 3.79zm-41.14-1.29l-1-.37 1.47-3.7.9.35zm46.91-.8l-1.54-3.67.88-.38 1.59 3.65zm-52.54-1.65l-.92-.46 1.82-3.54.86.43zM330 236l-1.88-3.51.84-.46 1.94 3.48zm-63.42-2l-.87-.55 2.15-3.35.81.51zm68.67-1.15L333 229.5l.79-.54 2.26 3.27zm-73.72-2.33l-.81-.63 2.47-3.12.76.59zm78.66-1.32l-2.53-3.08.74-.61 2.57 3zm-83.34-2.63l-.74-.7 2.76-2.87.7.66zm87.89-1.47l-2.8-2.83.67-.68 2.85 2.78zm-92.18-2.91l-.67-.77 3-2.6.63.72zm96.32-1.61l-3.09-2.58.61-.75 3.1 2.49zm-100.17-3.16l-.59-.83 3.25-2.3.53.71zm103.86-1.74l-3.29-2.24.54-.8 3.32 2.19zm-107.23-3.38l-.51-.89 3.46-2 .48.83zm110.43-1.86l-3.5-1.91.45-.85 3.52 1.85zm-113.29-3.56l-.42-.93 3.63-1.63.4.87zm116-2l-3.66-1.56.37-.89 3.69 1.5zm-118.29-3.71l-.33-1 3.77-1.27.31.91zm120.41-2l-3.8-1.2q.14-.45.28-.91l3.82 1.14c-.15.27-.25.6-.35.92zm-122.23-3.87q-.12-.49-.24-1l3.88-.89q.11.47.22.93zm123.73-2.11l-3.9-.82q.1-.47.19-.94l3.91.76q-.09.5-.19 1zm-124.92-3.91c0-.34-.1-.67-.14-1l3.95-.51q.06.48.13 1zm125.89-2.14l-4-.45c0-.32.07-.63.1-.95l4 .37q-.03.52-.09 1.03zm-126.49-4v-1l4-.13v1zM363.47 181l-4-.06v-1.21h4v.27q.01.51 0 1zm-122.91-3.79l-4-.18q0-.51.05-1l4 .25q-.02.47-.05.95zM359.29 175q0-.48-.09-1l4-.39q0 .51.09 1zm-118.19-3.5l-3.94-.56q.07-.51.15-1l3.93.63q-.07.43-.14.94zm117.44-2.19l-.18-.94 3.91-.77q.1.5.19 1zm-116.36-3.45l-3.87-.94q.12-.5.25-1l3.85 1q-.11.48-.22.95zm115.06-2.15l-.24-.91 3.81-1.15q.15.49.29 1zm-113.43-3.36l-3.75-1.35.35-1 3.74 1.37zm111.59-2.09l-.36-.89 3.68-1.51.38.95zM246 155l-3.61-1.67.44-.93 3.58 1.74zm107.08-2l-.44-.85 3.52-1.86.47.9zm-104.41-3.11l-3.44-2 .53-.88 3.4 2.07zM350.2 148l-.52-.79 3.32-2.2.56.86zm-98.41-2.93l-3.23-2.33.61-.83 3.19 2.39zm95.1-1.75l-.6-.75 3.1-2.5.63.79zm-91.5-2.73l-3-2.64.68-.76 2.94 2.68zm87.74-1.59l-.66-.69 2.84-2.79.71.74zm-83.73-2.5l-2.72-2.91.75-.69 2.67 3zM339 135l-.73-.63 2.56-3 .77.66zm-75.2-2.25l-2.42-3.16.81-.61 2.38 3.19zm70.68-1.31l-.79-.55 2.26-3.28.84.59zm-66-2l-2.11-3.38.87-.53 2.06 3.41zm61.12-1.13l-.84-.47 1.93-3.48.89.5zm-56.11-1.67l-1.78-3.56.92-.45 1.72 3.59zm51-.95l-.88-.39 1.58-3.65.94.41zm-45.74-1.36l-1.42-3.72 1-.36 1.36 3.74zm40.39-.75l-.91-.3 1.22-3.79 1 .32zm-34.93-1l-1.05-3.84 1-.26 1 3.86zm29.39-.55l-.93-.21.84-3.89 1 .23zm-23.79-.7l-.68-3.92 1-.17.61 3.93zM308 121l-.95-.12.46-4 1 .13zm-12.43-.36l-.29-4 1-.07.23 4zm6.71-.12h-1l.08-4h1z" transform="translate(-207.68 -92.27)" style="mix-blend-mode:overlay" fill="#fff"/><path class="cls-6" d="M300 245.57A65.57 65.57 0 11365.57 180 65.64 65.64 0 01300 245.57zm0-130.63A65.07 65.07 0 10365.07 180 65.14 65.14 0 00300 114.93z" transform="translate(-207.68 -92.27)"/><path class="cls-6" d="M369.17 179.64a69.88 69.88 0 01-9.32 34.68h-3.49a66.81 66.81 0 009.81-34.68 65.75 65.75 0 00-9.38-34h3.48a68.76 68.76 0 018.9 34zM243.64 214.32h-3.49a69.88 69.88 0 01-9.32-34.68 68.76 68.76 0 018.9-34h3.47a65.84 65.84 0 00-9.37 34 66.84 66.84 0 009.81 34.68z" transform="translate(-207.68 -92.27)"/></g></g></svg>