<svg preserveAspectRatio="none" id="Layer_1" data-name="Layer 1" xmlns="http://www.w3.org/2000/svg" viewBox="0 0 74.66 75.36"><defs><style>.cls-1{fill:#feb113}.cls-2{fill:#08ade5}.cls-3{fill:#065977}.cls-4{fill:#00b3ea}</style></defs><circle class="cls-1" cx="11.18" cy="30.25" r="1.27"/><circle class="cls-1" cx="16.62" cy="19.46" r="1.27"/><circle class="cls-1" cx="26.19" cy="11.92" r="1.27"/><circle class="cls-1" cx="38.07" cy="9.38" r="1.27"/><circle class="cls-1" cx="49.81" cy="12.23" r="1.27"/><circle class="cls-1" cx="59.32" cy="19.73" r="1.27"/><path class="cls-2" d="M334.24 337.54l-.18-.77c-.06-.25-.12-.56-.23-.92l-.35-1.23a34.92 34.92 0 00-3.16-7.28c-.4-.72-.87-1.44-1.35-2.18s-1-1.48-1.63-2.21a36.07 36.07 0 00-4-4.31 35.32 35.32 0 00-23.5-9.08 36.75 36.75 0 00-5.89.46l-1.37.25-1.32.3c-.43.09-.85.22-1.26.34s-.82.23-1.21.36a35.23 35.23 0 00-7.23 3.28c-.42.24-.77.48-1.08.68s-.58.37-.79.52l-.64.46-.86-1.2.67-.47c.22-.16.5-.33.82-.54s.7-.46 1.13-.71a36.7 36.7 0 017.53-3.41c.4-.14.83-.26 1.26-.38s.87-.25 1.32-.35l1.37-.31 1.43-.26a38.29 38.29 0 016.13-.48 36.8 36.8 0 0124.48 9.46 37.45 37.45 0 014.21 4.49c.62.76 1.16 1.54 1.69 2.3s1 1.52 1.41 2.27a36.41 36.41 0 013.29 7.59l.37 1.29c.11.37.17.7.24 1l.18.8z" transform="translate(-261.9 -308.08)"/><path class="cls-3" d="M280.46 344.91v1.35a18 18 0 00.64 3.76l.17.61.21.63c.07.22.16.43.24.65s.17.45.28.67a18.15 18.15 0 001.53 2.82 19.46 19.46 0 005.4 5.46 19.77 19.77 0 003.91 2 19.14 19.14 0 004.57 1.1c.2 0 .4 0 .61.06H301.14c.42 0 .84-.09 1.26-.14a18.85 18.85 0 002.51-.55c.42-.1.83-.27 1.24-.4l.61-.24.31-.12.3-.14a19.2 19.2 0 004.55-2.84 19.33 19.33 0 003.67-4.1 19.07 19.07 0 002.38-5 20.23 20.23 0 00.61-2.74 19.22 19.22 0 000-5.65 20.2 20.2 0 00-.61-2.74 19.05 19.05 0 00-2.38-5 19.32 19.32 0 00-3.67-4.1 19.2 19.2 0 00-4.55-2.84l-.3-.14-.31-.12-.61-.24c-.42-.13-.82-.29-1.24-.4a18.83 18.83 0 00-2.51-.55c-.42 0-.84-.12-1.26-.14H298.02c-.2 0-.41 0-.61.06a19.13 19.13 0 00-4.57 1.1 19.73 19.73 0 00-3.91 2 19.45 19.45 0 00-5.4 5.46 18.15 18.15 0 00-1.53 2.82c-.11.22-.19.45-.28.67s-.18.43-.24.65l-.21.63-.17.61a18 18 0 00-.64 3.76v1.35h-1.06v-.37-1.07a19 19 0 01.68-4l.18-.64.23-.66c.07-.23.17-.45.26-.69s.18-.48.29-.71a19.24 19.24 0 011.61-3 20.5 20.5 0 015.7-5.76 20.82 20.82 0 014.13-2.12 20.17 20.17 0 014.82-1.16c.21 0 .43 0 .64-.06H301.32c.45 0 .89.09 1.33.15a19.93 19.93 0 012.65.58c.44.11.87.28 1.31.42l.64.25.32.13.32.15a20.26 20.26 0 014.8 3 20.35 20.35 0 013.87 4.33 20.11 20.11 0 013.16 8.22 20.29 20.29 0 010 6 21.28 21.28 0 01-.65 2.9 20.12 20.12 0 01-2.51 5.32 20.36 20.36 0 01-3.87 4.33 20.25 20.25 0 01-4.8 3l-.32.15-.32.13-.64.25c-.44.14-.87.31-1.31.42a19.94 19.94 0 01-2.65.58c-.45.05-.89.13-1.33.14h-3.28c-.21 0-.43 0-.64-.06a20.16 20.16 0 01-4.82-1.16 20.81 20.81 0 01-4.13-2.12 20.51 20.51 0 01-5.7-5.75 19.23 19.23 0 01-1.61-3c-.12-.23-.2-.48-.29-.71s-.19-.46-.26-.69l-.23-.66-.18-.64a19 19 0 01-.68-4v-1.44h1.05z" transform="translate(-261.9 -308.08)"/><path class="cls-1" d="M304.2 329.53l-.32-.09c-.2-.07-.5-.12-.86-.21a17.31 17.31 0 00-2.68-.34h-1.46c-.46 0-.89.05-1.26.11l-.5.07-.38.07-.33.06-.4-2 .37-.06.43-.08.56-.07c.41-.07.89-.09 1.41-.13h1.63a19.29 19.29 0 013 .38c.4.1.74.16 1 .24l.36.1zM311.27 333.86l-.23-.25-.65-.62a16.47 16.47 0 00-2.16-1.63 17 17 0 00-2.38-1.25l-.47-.18-.36-.13-.32-.11.63-1.9.36.12.41.15.52.2a19.12 19.12 0 012.68 1.41 18.65 18.65 0 012.42 1.83l.73.69.26.28zM315.24 341.12v-.09a2.3 2.3 0 00-.06-.24l-.11-.37a4.88 4.88 0 00-.15-.48 15 15 0 00-1-2.47 16.75 16.75 0 00-1.45-2.27c-.23-.29-.41-.54-.56-.69l-.22-.26 1.49-1.33.25.29c.17.18.37.45.63.78a18.77 18.77 0 011.63 2.56 17.07 17.07 0 011.18 2.79c.07.19.12.38.16.54l.12.42a2.75 2.75 0 01.07.27v.1zM315 349.42l.09-.32.05-.17v-.2l.11-.49a17.44 17.44 0 00.33-2.68v-.74-.72c0-.46-.06-.89-.12-1.26s-.1-.67-.14-.88v-.24a.63.63 0 000-.09l2-.41a.87.87 0 010 .1v.28c0 .24.11.57.15 1s.09.89.13 1.41v1.63a19.38 19.38 0 01-.37 3l-.13.55-.05.23-.06.19.01.39zM310.71 356.53l.25-.23.62-.65a16.69 16.69 0 001.63-2.16 17.12 17.12 0 001.25-2.38c.12-.34.26-.62.32-.83l.11-.32 1.9.63-.12.36c-.07.23-.22.54-.36.93a19.05 19.05 0 01-1.41 2.68 18.72 18.72 0 01-1.84 2.42l-.69.73-.28.26zM303.44 360.5h.09l.24-.06.37-.11a5 5 0 00.48-.14 15.06 15.06 0 002.47-1 16.78 16.78 0 002.28-1.45c.29-.23.54-.41.69-.56l.26-.22 1.33 1.5-.29.25c-.18.17-.45.37-.78.63a18.7 18.7 0 01-2.58 1.56 17 17 0 01-2.79 1.17c-.19.07-.38.12-.54.16l-.42.12-.27.07h-.1zM295.14 360.3l.32.09c.2.07.51.12.86.21a17.36 17.36 0 002.68.33h1.46c.46 0 .89-.06 1.26-.12.18 0 .35 0 .5-.07l.38-.07H302.94l.4 2h-.38l-.43.08c-.16 0-.35 0-.56.07-.41.07-.89.09-1.41.13h-1.63a19.4 19.4 0 01-3-.37c-.4-.1-.74-.16-1-.24l-.36-.1zM288.06 356l.23.25.65.61a16.26 16.26 0 002.16 1.63 17 17 0 002.38 1.25l.52.16.19.08.17.05.32.11L294 362l-.36-.12-.19-.06-.22-.09-.52-.21a19 19 0 01-2.68-1.4 18.39 18.39 0 01-2.42-1.83l-.73-.69-.26-.28z" transform="translate(-261.9 -308.08)"/><path class="cls-3" d="M291.17 378.66l.38-1.5.46.11.57.13.36.08.42.08 1 .18c.36.07.77.11 1.2.17l.68.08.76.01c.5 0 1 .09 1.59.09a33.59 33.59 0 008.07-.71 33.06 33.06 0 009.8-3.8A33.23 33.23 0 00329.88 331c-.25-.59-.56-1.16-.85-1.73-.14-.29-.31-.56-.47-.84l-.48-.84a34.5 34.5 0 00-2.2-3.17 33.24 33.24 0 00-50-2.82c-.33.35-.67.69-1 1l-.88 1.15-.85 1.08c-.28.36-.53.73-.78 1.08a33.07 33.07 0 00-5.22 12 34.69 34.69 0 00-.7 5.18v1.84h-4.5v-1.45c0-.46.05-1 .1-1.66s.13-1.37.24-2.15c0-.39.12-.8.19-1.23s.15-.86.25-1.31l.32-1.37c.11-.47.25-.94.39-1.42a37.43 37.43 0 018.81-15.34c.27-.29.53-.56.79-.82l.74-.71c.46-.45.89-.81 1.24-1.12s.62-.54.82-.69l.3-.24 1.84 2.31.64-.5c.21-.17.48-.35.79-.58l.51-.36.28-.2.3-.2a35.17 35.17 0 017.32-3.68 35.66 35.66 0 015.29-1.45c.48-.08 1-.18 1.46-.25l1.5-.19 1.54-.12c.52 0 1 0 1.57-.05a35.21 35.21 0 016.5.52 34.59 34.59 0 0112.54 4.84 35 35 0 019.25 8.52 36.1 36.1 0 012.94 4.62l.57 1.11c.18.37.34.73.5 1.08l.23.52.21.52.39 1c.23.65.44 1.26.62 1.83s.32 1.1.45 1.58c.23 1 .41 1.72.49 2.25l.14.8 2.08-.34.06.37.14 1 .09.75.07.88.07 1V346.61c0 .44-.06.9-.09 1.36l-.06.71-.09.72-.09.73c0 .25-.07.49-.11.74l-.27 1.49-.35 1.5c-.12.5-.27 1-.41 1.5a37.75 37.75 0 01-2.2 5.68 39 39 0 01-2.66 4.59c-.88 1.28-1.68 2.3-2.27 3l-.92 1.07 1.2 1.09-1 1.08c-.66.68-1.63 1.61-2.87 2.65a40.08 40.08 0 01-4.5 3.23 39.38 39.38 0 01-5.67 2.86c-.51.2-1 .41-1.52.58l-1.53.51-1.53.43c-.5.14-1 .25-1.5.36a37.43 37.43 0 01-5.48.81c-.4 0-.79.07-1.16.07h-4.18l.24-3.72-1-.07c-.3 0-.64-.06-1-.11l-1.15-.15-1.15-.2-.53-.1-.47-.11zm32.55-5.66l.63-.54.42-.38.19-.18-1.44-1.54-.18.17-.4.36-.59.51zm-2.53 2l.67-.49.65-.51-1.3-1.66-.62.48-.64.46zm-2.7 1.76s.36-.2.71-.43l.7-.45-1.15-1.76-.66.42c-.33.22-.67.41-.67.41zm-2.84 1.52l.23-.11.51-.26.74-.38-1-1.86-.7.36-.48.24-.22.11zm-3 1.26l.78-.3.57-.24.24-.1-.85-1.9-.23.1-.5.2-.73.29zm-3.07 1l.8-.23.55-.17.25-.08-.66-2-.23.08-.52.16-.76.22zm-3.15.73h.26l.56-.11.81-.19-.48-2.05-.77.18-.53.1h-.24zm-3.19.46h.26l.57-.07.82-.11-.3-2.09-.78.1-.53.07h-.24zm-3.21.17h1.66l-.12-2.1h-1.56z" transform="translate(-261.9 -308.08)"/><path class="cls-2" d="M270.71 344.92h4v1.37a26.74 26.74 0 00.49 3.71 24.92 24.92 0 004.75 10.2 24.1 24.1 0 004.27 4.29 24.86 24.86 0 004.47 2.81 27 27 0 003.47 1.38l1 .29.36.09.41-1.62 1 .24 1.21.21c.47.05 1 .14 1.59.17a23.32 23.32 0 008.48-.89 23 23 0 004.23-1.73 23.59 23.59 0 005.48-4c.25-.24.42-.44.55-.57l.19-.2-1.28-1.18.12-.12.32-.37c.28-.31.66-.79 1.1-1.36a21.76 21.76 0 002.68-4.64l.27-.67c.08-.22.15-.45.23-.68.17-.44.27-.9.4-1.33.06-.22.1-.44.15-.65s.11-.42.14-.62l.11-.59.05-.28v-.27c0-.36.1-.69.12-1l.06-.76v-.66l.28-.45c.18-.28.37-.65.58-1l.16-.29.14-.28.24-.51.17-.37.06-.14-.06-.46-.07-.56c0-.22-.08-.47-.13-.75a23.15 23.15 0 00-1.31-4.51l-.14-.34-.16-.34-.32-.7c-.24-.46-.47-1-.76-1.43s-.59-1-.9-1.46-.68-1-1.07-1.44a22.94 22.94 0 00-5.63-5.1 22.58 22.58 0 00-3.41-1.82 24.27 24.27 0 00-3.55-1.2 23.77 23.77 0 00-3.46-.59l-.82-.06H297.94l-.68.05-1.25.16-1.09.19-.92.21c-.55.13-1 .27-1.27.35l-.44.15.49 1.47-.23.08c-.15.05-.37.11-.64.23a21.92 21.92 0 00-5.13 2.79 22.12 22.12 0 00-2.95 2.61 21.76 21.76 0 00-4.07 6.1l-.15.34-.13.33-.24.6c-.14.38-.25.72-.34 1l-.25.88-1.49-.4-.07.25-.16.68-.11.45-.09.51-.1.55c0 .19 0 .38-.08.57l-.07.57v.55c0 .36-.07.69-.06 1v1h-8.82v-.45-1.33a33.47 33.47 0 01.67-5 31.86 31.86 0 015-11.54c.25-.34.49-.7.76-1l.82-1 .88-1c.3-.34.63-.67.95-1a32 32 0 0148.18 2.72 33.26 33.26 0 012.12 3.06l.47.81c.15.27.31.53.45.81.28.55.58 1.1.82 1.67a32 32 0 012.29 7 32.55 32.55 0 01-.35 14.23 32.09 32.09 0 01-24.37 23.47 32.42 32.42 0 01-7.78.68c-.54 0-1.05-.05-1.54-.09l-.7-.06-.65-.08c-.42-.06-.81-.09-1.16-.16l-1-.17-.4-.07-.35-.08-.55-.13-.44-.1.46-1.84.7.16c.45.12 1.12.23 2 .38l1.43.19c.52.06 1.08.09 1.69.14a31.6 31.6 0 004.05-.07 29.86 29.86 0 009.81-2.51 30.21 30.21 0 0017.27-21.55 31.25 31.25 0 00.57-4.77 30.45 30.45 0 00-.56-7.15c-.08-.43-.18-.8-.25-1.13l-.11-.46-.1-.38-.19-.69-2.39.71.18.63.1.34.1.42c.07.3.16.65.23 1a28 28 0 01.51 6.56 28.7 28.7 0 01-.52 4.37 28 28 0 01-1.4 4.71 27.75 27.75 0 01-14.44 15.06 27.35 27.35 0 01-9 2.3 29.12 29.12 0 01-3.72.06c-.55 0-1.07-.07-1.55-.13l-1.31-.17c-.78-.14-1.4-.24-1.82-.35l-.64-.15.43-1.72-.38-.1-.84-.24c-.3-.08-.6-.2-.83-.27l-.37-.13-.44 1.24h-.09l-.27-.08-1-.34a27.71 27.71 0 01-12.41-9 29.06 29.06 0 01-1.84-2.64c-.27-.46-.54-.92-.79-1.38l-.36-.7c-.12-.23-.24-.46-.34-.69a28.69 28.69 0 01-1.86-5.28 30 30 0 01-.68-3.94zm1.21-12.73l-.19.43c-.06.14-.14.3-.22.49l-.26.65a31.08 31.08 0 00-1.16 3.58l-.23 1c0 .16-.08.33-.11.49l-.09.48-.16.91c0 .29-.07.57-.11.82l-.09.69v1.01l5.82.41v-.38-.43l.07-.56c0-.21.05-.43.09-.66l.13-.73.07-.39c0-.13.06-.26.09-.39l.18-.8a25.27 25.27 0 01.94-2.89l.21-.53c.06-.16.13-.29.18-.4l.16-.35zm8.08-10.66l-.36.31c-.22.2-.55.47-.92.83l-.6.57c-.21.2-.42.43-.64.66-.45.45-.89 1-1.34 1.5a30.84 30.84 0 00-2.22 3l-.38.59c-.11.18-.2.34-.27.46l-.23.41 5.07 2.87.19-.33c.06-.1.13-.23.22-.38l.31-.48a25.1 25.1 0 011.79-2.45c.36-.42.72-.84 1.08-1.21.18-.19.35-.37.52-.54l.48-.46c.29-.29.56-.51.74-.67l.29-.25zm12-6.15l-.45.13c-.29.09-.7.19-1.19.35l-.78.26c-.28.09-.57.2-.87.32l-.92.36-.93.42c-.31.14-.62.29-.92.45l-.88.46-.8.46-.37.21-.34.21c-.43.28-.79.5-1 .67l-.38.27 3.36 4.77.31-.22c.2-.14.49-.32.84-.54l.27-.17.3-.17.65-.37.71-.37c.24-.13.49-.25.74-.36l.75-.34.74-.29c.24-.1.47-.19.7-.26l.63-.21c.39-.14.73-.21 1-.28l.36-.1zm13.39-.44l-.46-.08-.53-.09-.69-.09-.82-.1-.92-.08c-.64-.06-1.32-.07-2-.09h-2l-.92.07H296.22l-1.23.16-.46.08 1 5.75.37-.07 1-.13H297.57l.75-.06h1.63c.55 0 1.11 0 1.62.07l.74.06.66.09.56.07.43.08.37.07zm12.3 5.34l-.38-.27c-.24-.17-.59-.43-1-.7l-.7-.45-.8-.46c-.55-.33-1.17-.63-1.77-.94a30.8 30.8 0 00-3.48-1.43c-.49-.17-.89-.3-1.18-.38l-.45-.13-1.57 5.62.37.1c.23.06.56.17 1 .3a25 25 0 012.81 1.15c.49.26 1 .49 1.43.76l.65.37.56.36c.35.22.63.42.83.56l.31.22zm8.83 10.09l-.23-.41c-.15-.26-.35-.63-.63-1.07l-.45-.7-.25-.38-.27-.39-.57-.8-.63-.8c-.21-.27-.43-.53-.65-.78s-.43-.51-.65-.74l-.64-.67-.3-.31-.29-.28c-.37-.35-.67-.65-.9-.85l-.35-.31-3.83 4.4.29.25c.19.16.43.4.73.69l.23.22.24.25.52.54c.18.19.35.4.53.6s.36.41.53.63l.51.65.46.65.22.31.2.31.36.56c.22.35.38.66.51.86l.19.33z" transform="translate(-261.9 -308.08)"/><path class="cls-1" d="M291.12 372.2h.17l.49.14.78.22 1.07.25a28.34 28.34 0 006.79.62c.71 0 1.44-.08 2.2-.13l1.15-.15c.39 0 .78-.13 1.18-.2a28.65 28.65 0 0022.39-21 29.89 29.89 0 00.77-4.5 29.05 29.05 0 00-.19-6.82c-.06-.41-.13-.77-.19-1.09l-.08-.44c0-.13-.06-.25-.08-.36l-.15-.66.63.6s.06.23.14.68l.15.82c.06.32.1.69.15 1.11 0 .21.06.43.08.66l.06.72c0 .25 0 .51.05.79v2.71c0 .33 0 .66-.07 1s0 .69-.1 1.05a29.1 29.1 0 01-19.17 24 28.13 28.13 0 01-5 1.28 31.24 31.24 0 01-4.62.38 29.69 29.69 0 01-6.89-.82c-.41-.09-.77-.2-1.08-.28l-.8-.23-.65-.22z" transform="translate(-261.9 -308.08)"/><path class="cls-3" d="M274.27 362l-.05.41c0 .24-.07.57-.1.91-.08.67-.1 1.35-.1 1.35s.67.16 1.33.29 1.33.22 1.33.22l.26.31.6.65c.22.23.44.48.61.64l.29.28 1.46-1.46-.28-.24c-.18-.15-.42-.38-.71-.66l-.47-.45-.5-.52c-.17-.18-.36-.37-.53-.56l-.53-.61a28.67 28.67 0 01-1.81-2.35c-.24-.33-.41-.62-.54-.82l-.2-.31-1.37.73.2.35c.12.21.27.5.44.77zM281.82 369.22s.13.64.28 1.29c.07.33.16.64.23.89l.12.4.42-.05c.25 0 .58-.07.92-.13.67-.11 1.31-.24 1.31-.24l.35.19.77.41c.28.15.57.29.79.39l.36.17.88-1.86-.34-.13c-.21-.08-.52-.2-.88-.37s-.79-.34-1.23-.58-.92-.46-1.37-.73l-.69-.4-.65-.41c-.43-.26-.8-.54-1.13-.77l-.45-.32-.33-.26-.29-.23-1 1.14.3.26.3.27.36.29.65.56.23.17zM269.5 352.62l-.19.37-.4.83c-.14.31-.29.62-.39.86l-.16.39s.59.38 1.16.74c.29.18.59.34.82.47l.37.2s.23.62.5 1.21c.13.3.26.6.37.83l.18.37 1.86-.89-.19-.33c-.12-.21-.27-.51-.46-.88-.09-.18-.2-.38-.3-.59l-.3-.67c-.22-.46-.42-1-.62-1.49l-.15-.38-.13-.39-.25-.75c-.16-.49-.28-1-.39-1.36s-.18-.74-.24-1l-.08-.37-1.51.21.07.4c0 .24.09.57.16.89z" transform="translate(-261.9 -308.08)"/><path class="cls-2" d="M266.44 346.43v.45l.1 1.28c0 .28.07.58.11.91s.08.69.15 1.07l.22 1.21c.08.43.19.87.3 1.34a33.3 33.3 0 002.13 6.14 34.46 34.46 0 001.72 3.24c.33.53.67 1.06 1 1.58l.55.77.28.39.29.37a33.22 33.22 0 0010.55 9 35 35 0 004.19 1.9c.52.19.94.32 1.22.42l.43.15-.46 1.48-.42-.13c-.29-.1-.73-.24-1.28-.44a36.48 36.48 0 01-4.39-2 34.76 34.76 0 01-11-9.39l-.31-.39-.29-.4-.58-.81c-.37-.55-.72-1.1-1.07-1.66a35.91 35.91 0 01-1.8-3.39 34.84 34.84 0 01-2.23-6.43c-.11-.49-.23-1-.31-1.4l-.23-1.27c-.07-.4-.11-.78-.15-1.12s-.09-.67-.11-1l-.1-1.34v-.48z" transform="translate(-261.9 -308.08)"/><path class="cls-2" d="M267.44 355.86l.28.81.36.91.22.56.27.61a34.12 34.12 0 007.83 11c.33.32.65.6.94.85l.74.63.67.53-2 2.6-.73-.58-.81-.69c-.31-.27-.67-.57-1-.93a37.42 37.42 0 01-8.59-12.07l-.3-.67-.32-.62-.39-1-.31-.88z" transform="translate(-261.9 -308.08)"/><path class="cls-4" d="M42 32.03l-.45-.45 5.52-5.52 1.25 1.26-3.6 2L42 32.03zM41.55 40.65l.45-.46 5.52 5.52-1.26 1.26-2-3.61-2.71-2.71zM32.94 40.19l.45.46-5.52 5.51-1.26-1.26 3.62-2 2.71-2.71zM33.39 31.58l-.45.45-5.52-5.51 1.26-1.26 2 3.61 2.71 2.71z"/><path class="cls-4" d="M313.08 344h-12.6a1.12 1.12 0 00-.93-.93v-11.88h-.35v11.89a1.12 1.12 0 00-.93.93h-12.6v.35h12.6a1.12 1.12 0 00.93.93v11.89h.35v-11.89a1.12 1.12 0 00.93-.93h12.6V344z" transform="translate(-261.9 -308.08)"/></svg>