<svg preserveAspectRatio="none" id="Layer_1" data-name="Layer 1" xmlns="http://www.w3.org/2000/svg" viewBox="0 0 64.24 65.4"><defs><style>.cls-1,.cls-4{fill:#00b4e9;}.cls-2,.cls-4{opacity:0.5;}.cls-3{fill:#f9b900;}.cls-5{fill:#00b3ea;}.cls-6{fill:#00b4eb;}.cls-7{fill:#f7931e;}</style></defs><title>circle57</title><path class="cls-1" d="M100.6,108.13c-0.07.07-.17,0.16-0.28,0.26s-0.24.22-.4,0.33A11.48,11.48,0,0,1,87.71,110a11.35,11.35,0,0,1-2.22-1.43,11.82,11.82,0,0,1-1.79-1.84,11.44,11.44,0,0,1-2.4-7.22c0-.39,0-0.69,0-0.9l0-.32-0.85-.1,0,0.34c0,0.22,0,.55-0.05,1A12.3,12.3,0,0,0,83,107.3a12.66,12.66,0,0,0,1.92,2,12.19,12.19,0,0,0,2.38,1.54,12.31,12.31,0,0,0,13.12-1.42c0.17-.13.3-0.26,0.43-0.36s0.23-.2.31-0.28l0.25-.24-0.6-.61Z" transform="translate(-60.74 -66.72)"/><path class="cls-1" d="M104,111.75l-0.22.21-0.27.24-0.32.27-0.38.29a15.71,15.71,0,0,1-2,1.34,16.28,16.28,0,0,1-2.88,1.26,16.57,16.57,0,0,1-3.64.75c-0.33,0-.66.06-1,0.06H92l-0.26,0-0.53,0-0.53-.06-0.27,0-0.27,0a16.35,16.35,0,0,1-2.14-.49,17.31,17.31,0,0,1-2.1-.8A16.45,16.45,0,0,1,82,112.21a16.65,16.65,0,0,1-3-3.43A16.48,16.48,0,0,1,77.38,94a15.61,15.61,0,0,1,1-2.2l0.24-.42L78.86,91l0.19-.31,0.17-.25,0.24-.34L79.54,90l-0.31-.23-0.08.12-0.24.35-0.18.25-0.2.31-0.23.37-0.24.43a16,16,0,0,0-1,2.25A16.86,16.86,0,0,0,78.7,109a17,17,0,0,0,3.09,3.51A16.83,16.83,0,0,0,85.73,115a17.77,17.77,0,0,0,2.15.82,16.78,16.78,0,0,0,2.19.5l0.27,0,0.27,0,0.54,0.06,0.54,0,0.27,0h1.32c0.35,0,.69,0,1-0.06a17,17,0,0,0,3.72-.77,16.67,16.67,0,0,0,2.95-1.29,16.06,16.06,0,0,0,2.07-1.37l0.38-.3,0.33-.28,0.28-.24,0.22-.21,0.41-.39-0.27-.27Z" transform="translate(-60.74 -66.72)"/><g class="cls-2"><path class="cls-1" d="M101.12,108.82c-0.1.1-.24,0.21-0.39,0.34s-0.34.28-.55,0.44a12.2,12.2,0,0,1-1.6,1,12.54,12.54,0,0,1-2.28.94,12.81,12.81,0,0,1-2.88.49,12.53,12.53,0,0,1-1.6,0h-0.2l-0.2,0-0.41,0c-0.27-.05-0.55-0.09-0.83-0.15a11.74,11.74,0,0,1-1.65-.48,11.89,11.89,0,0,1-1.61-.73l-0.39-.22-0.38-.24c-0.13-.08-0.25-0.16-0.37-0.25s-0.25-.17-0.37-0.26A13.21,13.21,0,0,1,84,108.44a13.78,13.78,0,0,1-1.18-1.37,13.19,13.19,0,0,1-1-1.52,12.65,12.65,0,0,1-.72-1.61,12.14,12.14,0,0,1-.47-1.66c0-.14-0.06-0.28-0.08-0.42s-0.05-.28-0.07-0.41-0.07-.55-0.08-0.82,0-.54,0-0.81,0-.27,0-0.4,0-.26,0-0.39a12.26,12.26,0,0,1,1.46-5.15c0.09-.16.17-0.32,0.26-0.46L82.45,93l0.26-.38,0.12-.17L83,92.28l0.23-.3,0.22-.25,0.19-.22,0.16-.17,0.3-.32-2-2-0.15.16-0.43.46a16.33,16.33,0,0,0-1.36,1.77,14.82,14.82,0,0,0-1.45,2.8,15.17,15.17,0,0,0-1,7.11,15.3,15.3,0,0,0,.66,3.08,14.44,14.44,0,0,0,.84,2.07l0.16,0.32L79.51,107l0.11,0.19,0.86-.49,0.06,0.1,0.17,0.28L81,107.54l0.37,0.53a14.49,14.49,0,0,0,2.38,2.54,14.16,14.16,0,0,0,2.92,1.88c0.21,0.11.42,0.19,0.59,0.27l0.46,0.19,0.3,0.11,0.11,0-0.33.94,0.69,0.22,0.8,0.21,0.5,0.11,0.56,0.1a15.19,15.19,0,0,0,8.7-1.15,15,15,0,0,0,2.35-1.33c0.33-.22.61-0.45,0.87-0.64s0.46-.39.63-0.54l0.53-.5-2-2Zm-9.49,5.57H91.48l-0.37,0-0.53-.07-0.6-.1-0.6-.13-0.51-.13c-0.3-.08-0.5-0.15-0.5-0.15l0.57-1.83s0.17,0.06.43,0.13l0.45,0.12,0.52,0.11,0.52,0.09,0.46,0.06,0.33,0h0.12Zm3.29-.11c-0.31,0-.72.1-1.13,0.12l-0.31,0H92.12l0.08-1.92h1.17l0.27,0c0.36,0,.72-0.07,1-0.1l0.44-.08,0.34,1.89Zm4-1.19-0.34.15-0.49.2c-0.18.07-.37,0.15-0.57,0.21l-0.58.19-0.51.14-0.37.09-0.14,0-0.41-1.87,0.12,0,0.32-.08,0.45-.12,0.5-.16,0.5-.18,0.43-.17,0.3-.13,0.11-.05L99.05,113Zm3.22-2-0.29.24-0.42.32-0.5.35c-0.35.23-.7,0.45-1,0.59l-0.33.18-0.13.06-0.88-1.7,0.11-.06,0.29-.16c0.24-.13.54-0.32,0.85-0.52l0.43-.3,0.37-.28,0.26-.2,0.09-.08,1.24,1.46Z" transform="translate(-60.74 -66.72)"/></g><path class="cls-3" d="M98.16,108l-0.18.11-0.25.16-0.3.17c-0.1.06-.21,0.1-0.31,0.16l-0.27.13-0.27.12,0.35,0.84,0.29-.13,0.29-.14c0.11-.06.22-0.1,0.33-0.17l0.33-.18,0.28-.17,0.2-.12,0.07,0-0.5-.75Z" transform="translate(-60.74 -66.72)"/><path class="cls-3" d="M95.67,109.14l-0.29.08-0.33.09-0.34.07-0.3.05-0.21,0H94.13l0.12,0.9h0.09l0.23,0,0.32-.06,0.37-.08,0.36-.09,0.31-.09,0.3-.1L95.95,109Z" transform="translate(-60.74 -66.72)"/><path class="cls-3" d="M92.51,109.57c-0.24,0-.47,0-0.64,0l-0.29,0-0.11.9h0.09l0.23,0c0.19,0,.45,0,0.7,0a9.87,9.87,0,0,0,1,0l-0.06-.91A8.93,8.93,0,0,1,92.51,109.57Z" transform="translate(-60.74 -66.72)"/><path class="cls-3" d="M90.62,109.33c-0.17,0-.4-0.1-0.62-0.16l-0.33-.11-0.15,0L89.38,109l-0.27-.1-0.34.84,0.3,0.11,0.14,0.06,0.16,0.05L89.74,110c0.25,0.06.49,0.14,0.68,0.17l0.23,0.05,0.09,0,0.17-.89-0.08,0Z" transform="translate(-60.74 -66.72)"/><path class="cls-3" d="M88,108.32l-0.3-.17L87.38,108l-0.25-.17L87,107.67l-0.06,0-0.54.73,0.07,0.05,0.19,0.13,0.27,0.19,0.32,0.2,0.32,0.19,0.29,0.16,0.29,0.14,0.4-.82-0.26-.13Z" transform="translate(-60.74 -66.72)"/><path class="cls-3" d="M86.15,107c-0.12-.13-0.31-0.28-0.46-0.45l-0.24-.25-0.2-.23a2.63,2.63,0,0,1-.19-0.23l-0.71.56a3,3,0,0,0,.2.25l0.21,0.25L85,107.17c0.17,0.19.37,0.36,0.5,0.5l0.17,0.15,0.07,0.06,0.59-.69-0.06-.05Z" transform="translate(-60.74 -66.72)"/><path class="cls-3" d="M84.56,105.15L84.5,105l-0.16-.25c-0.06-.09-0.11-0.2-0.17-0.3s-0.21-.42-0.29-0.57-0.06-.15-0.09-0.19l0-.07-0.83.36,0,0.08c0,0.05.05,0.13,0.09,0.21s0.19,0.4.32,0.62,0.12,0.23.19,0.33l0.17,0.28,0.07,0.11,0.06,0.08,0.05,0.07,0.75-.51,0-.07Z" transform="translate(-60.74 -66.72)"/><path class="cls-3" d="M83.42,102.75c-0.06-.17-0.12-0.39-0.18-0.62s0-.23-0.08-0.34,0-.21-0.06-0.29l0-.29-0.9.13,0.05,0.32c0,0.1,0,.2.06,0.32s0,0.24.08,0.37,0.13,0.5.19,0.68l0.07,0.22,0,0.08,0.86-.3,0-.08Z" transform="translate(-60.74 -66.72)"/><path class="cls-3" d="M82.09,98.65c0,0.06,0,.14,0,0.23l0,0.33v0.38c0,0.13,0,.26,0,0.38s0,0.23,0,.33l0,0.32,0.9-.07,0-.29c0-.09,0-0.19,0-0.3s0-.23,0-0.35V99.25l0-.3c0-.09,0-0.16,0-0.21V98.66l-0.9-.1v0.09Z" transform="translate(-60.74 -66.72)"/><path class="cls-3" d="M82.65,96.16l-0.1.31c0,0.11-.08.23-0.11,0.36l-0.1.36-0.07.32c0,0.19-.06.31-0.06,0.31L83.1,98a2.92,2.92,0,0,1,.06-0.29l0.06-.29,0.09-.33c0-.11.07-0.22,0.1-0.33l0.09-.29,0.1-.27-0.85-.33Z" transform="translate(-60.74 -66.72)"/><path class="cls-4" d="M80.16,90.29c-0.1.13-.24,0.33-0.4,0.56s-0.34.52-.53,0.82S79.05,92,79,92.15l-0.14.25-0.13.25a16,16,0,0,0-.82,1.92l-0.21.65-0.07.25,0.61,0.17,0.07-.24,0.2-.63a15.4,15.4,0,0,1,.78-1.84l0.12-.24,0.13-.24c0.09-.16.17-0.31,0.26-0.46s0.34-.56.51-0.78,0.28-.41.38-0.54l0.15-.2-0.5-.39Z" transform="translate(-60.74 -66.72)"/><path class="cls-1" d="M85.42,113.61L85,113.36a15.93,15.93,0,0,1-2.28-1.6,15.57,15.57,0,0,1-2-2c-0.13-.14-0.23-0.28-0.32-0.4l-0.24-.32L80,108.86l-0.05-.07-0.83.58,0.06,0.08,0.16,0.22L79.59,110c0.1,0.13.21,0.28,0.35,0.43a16.58,16.58,0,0,0,2.09,2.1,17,17,0,0,0,2.43,1.7l0.48,0.27,0.38,0.19,0.33,0.16,0.43-.92-0.31-.15Z" transform="translate(-60.74 -66.72)"/><path class="cls-1" d="M102.76,113.05l-0.44.32c-0.17.12-.37,0.26-0.59,0.39a16.47,16.47,0,0,1-7.12,2.51c-0.26,0-.49,0-0.7.06l-0.54,0H92.89v1.08H93.4l0.58,0c0.22,0,.48,0,0.75-0.07a17.56,17.56,0,0,0,7.58-2.67c0.24-.14.44-0.29,0.63-0.42l0.47-.34,0.4-.31-0.67-.85Z" transform="translate(-60.74 -66.72)"/><path class="cls-1" d="M76.87,95l-1.46-.44a0.18,0.18,0,0,0-.2.18l-0.06.54c0,0.16,0,.35,0,0.55s0,0.41,0,.63v0.63c0,0.2,0,.39,0,0.54V98c0,0.09,0,.14,0,0.14a0.16,0.16,0,0,0,.13.16l1,0.08a0.16,0.16,0,0,0,.16-0.16s0,0,0-.13l0-.35c0-.29.09-0.67,0.16-1.05,0-.19.08-0.38,0.12-0.56s0.07-.34.11-0.48L77,95.19A0.17,0.17,0,0,0,76.87,95Z" transform="translate(-60.74 -66.72)"/><path class="cls-3" d="M100.15,110.8a0.45,0.45,0,0,0-.12.61,0.44,0.44,0,1,0,.73-0.49A0.45,0.45,0,0,0,100.15,110.8Z" transform="translate(-60.74 -66.72)"/><path class="cls-3" d="M97.06,112.32a0.45,0.45,0,0,0-.28.56,0.44,0.44,0,1,0,.83-0.29A0.45,0.45,0,0,0,97.06,112.32Z" transform="translate(-60.74 -66.72)"/><path class="cls-3" d="M93.69,113a0.44,0.44,0,0,0-.3.15,0.45,0.45,0,0,0-.11.32,0.44,0.44,0,0,0,.14.31,0.44,0.44,0,0,0,.74-0.37A0.45,0.45,0,0,0,93.69,113Z" transform="translate(-60.74 -66.72)"/><path class="cls-3" d="M90.25,112.79a0.45,0.45,0,1,0,.35.51A0.44,0.44,0,0,0,90.25,112.79Z" transform="translate(-60.74 -66.72)"/><path class="cls-1" d="M102.4,92.3a12.66,12.66,0,0,0-1.92-2,12.19,12.19,0,0,0-2.38-1.54A12.31,12.31,0,0,0,85,90.21c-0.17.13-.3,0.26-0.43,0.36s-0.22.2-.31,0.28L84,91.08l0.6,0.61,0.23-.22c0.07-.07.17-0.16,0.28-0.26s0.24-.22.4-0.33a11.47,11.47,0,0,1,12.21-1.32A11.34,11.34,0,0,1,99.94,91a11.82,11.82,0,0,1,1.79,1.84,11.44,11.44,0,0,1,2.4,7.22c0,0.39,0,.69,0,0.9l0,0.32,0.85,0.1,0-.34c0-.22,0-0.55.05-1A12.3,12.3,0,0,0,102.4,92.3Z" transform="translate(-60.74 -66.72)"/><path class="cls-1" d="M108.69,94.71a16.83,16.83,0,0,0-2-4.1,17,17,0,0,0-3.09-3.51,16.83,16.83,0,0,0-3.94-2.54,17.77,17.77,0,0,0-2.15-.82,16.76,16.76,0,0,0-2.19-.5l-0.27,0-0.27,0-0.54-.06-0.54,0-0.27,0H92.15c-0.35,0-.69,0-1,0.06a17,17,0,0,0-3.72.77,16.66,16.66,0,0,0-2.95,1.29,16.05,16.05,0,0,0-2.07,1.37l-0.38.3-0.33.28-0.28.24-0.22.21L80.76,88,81,88.23l0.4-.38,0.22-.21,0.27-.24,0.32-.27,0.38-.29a15.67,15.67,0,0,1,2-1.34,16.26,16.26,0,0,1,2.88-1.26,16.59,16.59,0,0,1,3.64-.75c0.33,0,.66-0.06,1-0.06h1.29l0.26,0,0.53,0,0.53,0.06,0.27,0,0.27,0a16.41,16.41,0,0,1,2.14.49,17.39,17.39,0,0,1,2.1.8,16.44,16.44,0,0,1,3.85,2.48,16.66,16.66,0,0,1,3,3.43,16.48,16.48,0,0,1,1.64,14.82,15.59,15.59,0,0,1-1,2.2l-0.24.42-0.22.36-0.19.31-0.17.25-0.24.34-0.08.11,0.31,0.23,0.09-.12,0.24-.35,0.18-.25,0.2-.31,0.23-.37,0.24-.43a16,16,0,0,0,1-2.25A16.86,16.86,0,0,0,108.69,94.71Z" transform="translate(-60.74 -66.72)"/><g class="cls-2"><path class="cls-1" d="M107.06,95.18a14.46,14.46,0,0,0-.84-2.07l-0.16-.32-0.13-.23-0.11-.19-0.86.49-0.06-.1-0.17-.28-0.27-.42-0.37-.53A14.49,14.49,0,0,0,101.71,89a14.16,14.16,0,0,0-2.92-1.88c-0.21-.11-0.42-0.19-0.59-0.27l-0.46-.19-0.3-.11-0.11,0,0.33-.94L97,85.34l-0.8-.21L95.66,85l-0.56-.1a15.2,15.2,0,0,0-5.76.17,14.95,14.95,0,0,0-5.28,2.32c-0.33.22-.61,0.45-0.87,0.64s-0.46.39-.63,0.54l-0.53.5,2,2,0.32-.3c0.1-.1.24-0.21,0.39-0.34s0.34-.28.55-0.44a12.16,12.16,0,0,1,1.6-1A12.53,12.53,0,0,1,89.14,88,12.82,12.82,0,0,1,92,87.54a12.57,12.57,0,0,1,1.6,0h0.2l0.2,0,0.41,0c0.27,0.05.55,0.09,0.83,0.15a11.72,11.72,0,0,1,1.65.48,11.89,11.89,0,0,1,1.61.73l0.39,0.22,0.38,0.24c0.13,0.08.25,0.16,0.37,0.25s0.25,0.17.37,0.26a13.18,13.18,0,0,1,1.37,1.19,13.77,13.77,0,0,1,1.18,1.37,13.2,13.2,0,0,1,1,1.52,12.61,12.61,0,0,1,.72,1.61,12.09,12.09,0,0,1,.47,1.66c0,0.14.06,0.28,0.08,0.42s0.05,0.28.07,0.41,0.07,0.55.08,0.82,0,0.54,0,.81,0,0.27,0,.4,0,0.26,0,.39a12.25,12.25,0,0,1-1.46,5.15c-0.09.16-.17,0.32-0.26,0.46l-0.26.42-0.26.38-0.12.18-0.12.16-0.23.3-0.22.25-0.19.22-0.16.17-0.3.32,2,2,0.15-.16,0.43-.46a16.37,16.37,0,0,0,1.36-1.77,14.83,14.83,0,0,0,1.45-2.8,15.17,15.17,0,0,0,1-7.11A15.3,15.3,0,0,0,107.06,95.18ZM86.7,88.55l-0.29.16c-0.24.13-.54,0.32-0.85,0.52l-0.43.3-0.37.28-0.26.2-0.09.08-1.24-1.46,0.11-.09,0.29-.24L84,88l0.5-.35c0.35-.23.7-0.45,1-0.59l0.33-.18,0.13-.06,0.88,1.7Zm3.1-1.15-0.32.08L89,87.6l-0.5.16-0.5.18-0.43.18-0.3.13-0.11.05-0.82-1.73,0.13-.06,0.34-.15,0.49-.2c0.18-.07.37-0.15,0.57-0.21l0.58-.19L89,85.62l0.37-.09,0.14,0,0.41,1.87Zm3.42-.31H92.05l-0.27,0c-0.36,0-.72.07-1,0.1l-0.44.08L90,85.41l0.51-.09c0.31,0,.72-0.1,1.13-0.12l0.31,0h1.35Zm3.26,0.57s-0.17-.06-0.43-0.13l-0.45-.12-0.52-.11-0.52-.09-0.46-.06-0.33,0H93.66l0.15-1.91H94l0.37,0,0.53,0.07,0.6,0.1L96,85.56l0.51,0.13c0.3,0.08.5,0.15,0.5,0.15Z" transform="translate(-60.74 -66.72)"/></g><path class="cls-3" d="M88.21,90.08l-0.29.14c-0.11.06-.22,0.1-0.33,0.17l-0.33.18L87,90.75l-0.2.12-0.07,0,0.5,0.75,0.07,0,0.18-.11,0.25-.16L88,91.2c0.1-.06.21-0.1,0.31-0.16l0.27-.13,0.27-.12L88.5,90Z" transform="translate(-60.74 -66.72)"/><path class="cls-3" d="M91.1,89.23l-0.23,0-0.32.06-0.37.08-0.36.09-0.32.09-0.3.1,0.29,0.86,0.28-.09,0.29-.08,0.33-.09,0.34-.07,0.3-.05,0.21,0h0.08l-0.12-.9H91.1Z" transform="translate(-60.74 -66.72)"/><path class="cls-3" d="M93.65,89.17c-0.19,0-.45,0-0.7,0a9.88,9.88,0,0,0-1,0L92,90.05a8.92,8.92,0,0,1,.94,0c0.24,0,.47,0,0.65,0l0.29,0L94,89.2H93.88Z" transform="translate(-60.74 -66.72)"/><path class="cls-3" d="M96.22,89.72l-0.16-.05-0.36-.11c-0.25-.06-0.49-0.14-0.68-0.17l-0.23,0-0.09,0-0.17.89,0.08,0,0.21,0c0.17,0,.4.1,0.62,0.16l0.33,0.11,0.15,0,0.13,0.05,0.27,0.1,0.34-.84-0.3-.11Z" transform="translate(-60.74 -66.72)"/><path class="cls-3" d="M98.82,91.07l-0.27-.19-0.32-.2-0.32-.19-0.29-.16-0.29-.14-0.4.82,0.26,0.13,0.26,0.15,0.3,0.17,0.29,0.18,0.25,0.17,0.17,0.12,0.06,0,0.54-.73L99,91.2Z" transform="translate(-60.74 -66.72)"/><path class="cls-3" d="M100.67,92.7l-0.26-.27c-0.17-.19-0.37-0.36-0.5-0.5l-0.17-.15-0.07-.06-0.59.69,0.06,0.05,0.16,0.14c0.12,0.13.31,0.28,0.46,0.45L100,93.31l0.2,0.23a2.61,2.61,0,0,1,.19.23l0.71-.56a3.07,3.07,0,0,0-.2-0.25Z" transform="translate(-60.74 -66.72)"/><path class="cls-3" d="M102.38,95.29c-0.09-.17-0.19-0.4-0.32-0.62s-0.12-.23-0.19-0.33l-0.17-.28L101.63,94l-0.06-.08-0.05-.07-0.75.51,0,0.07,0.05,0.08,0.06,0.1,0.16,0.25c0.06,0.09.11,0.2,0.17,0.3s0.21,0.42.29,0.57,0.06,0.15.09,0.19l0,0.07,0.83-.36,0-.08C102.45,95.45,102.42,95.37,102.38,95.29Z" transform="translate(-60.74 -66.72)"/><path class="cls-3" d="M103.16,97.61c0-.12,0-0.24-0.08-0.37s-0.13-.5-0.19-0.68l-0.07-.22,0-.08-0.86.3,0,0.08,0.06,0.2c0.06,0.17.12,0.39,0.18,0.62s0,0.23.08,0.34,0,0.21.06,0.29l0,0.29,0.9-.13-0.05-.32C103.21,97.84,103.19,97.73,103.16,97.61Z" transform="translate(-60.74 -66.72)"/><path class="cls-3" d="M103.38,99.31l0-.32-0.9.07,0,0.29c0,0.09,0,.19,0,0.3s0,0.23,0,.34v0.35l0,0.3c0,0.09,0,.16,0,0.21v0.08l0.9,0.1V101c0-.06,0-0.14,0-0.23l0-.33V100c0-.13,0-0.26,0-0.38S103.39,99.41,103.38,99.31Z" transform="translate(-60.74 -66.72)"/><path class="cls-3" d="M102.27,101.9l-0.06.29-0.09.33c0,0.11-.07.22-0.1,0.33l-0.09.29-0.1.27,0.85,0.33,0.11-.3,0.1-.31c0-.11.08-0.24,0.11-0.36l0.1-.36,0.07-.32c0-.19.06-0.31,0.06-0.31l-0.89-.16S102.32,101.73,102.27,101.9Z" transform="translate(-60.74 -66.72)"/><path class="cls-4" d="M107.16,104.2l-0.2.63a15.42,15.42,0,0,1-.78,1.84l-0.12.24-0.13.24c-0.09.16-.17,0.31-0.26,0.46s-0.34.56-.51,0.78-0.28.41-.38,0.54l-0.15.2,0.5,0.39,0.16-.21c0.1-.13.24-0.33,0.4-0.56s0.34-.52.53-0.82,0.18-.31.27-0.48l0.14-.25,0.13-.25a16.05,16.05,0,0,0,.82-1.92l0.21-.65,0.07-.25-0.61-.17Z" transform="translate(-60.74 -66.72)"/><path class="cls-1" d="M106.1,89.93l-0.26-.34c-0.1-.13-0.21-0.28-0.35-0.43a16.57,16.57,0,0,0-2.09-2.1,17,17,0,0,0-2.43-1.7l-0.48-.27-0.38-.19-0.33-.16-0.43.92,0.31,0.15L100,86l0.45,0.25a16,16,0,0,1,2.28,1.6,15.55,15.55,0,0,1,2,2c0.13,0.14.23,0.28,0.33,0.4l0.24,0.32,0.15,0.21,0.05,0.07,0.83-.58-0.06-.08Z" transform="translate(-60.74 -66.72)"/><path class="cls-1" d="M92,82.15l-0.58,0c-0.22,0-.48,0-0.75.07a17.55,17.55,0,0,0-7.58,2.67c-0.24.14-.44,0.29-0.63,0.42L82,85.68l-0.4.31,0.67,0.85,0.38-.29,0.44-.32c0.17-.12.37-0.26,0.59-0.39a16.48,16.48,0,0,1,7.12-2.51c0.26,0,.49,0,0.7-0.06l0.54,0h0.47V82.14H92Z" transform="translate(-60.74 -66.72)"/><path class="cls-1" d="M110.35,101.6c0-.09,0-0.14,0-0.14a0.16,0.16,0,0,0-.13-0.16l-1-.08a0.16,0.16,0,0,0-.16.16s0,0,0,.13l0,0.35c0,0.29-.09.67-0.16,1.05,0,0.19-.08.38-0.12,0.56s-0.07.34-.11,0.48l-0.13.47a0.17,0.17,0,0,0,.09.21l1.46,0.44a0.18,0.18,0,0,0,.2-0.18l0.06-.54c0-.16,0-0.35,0-0.55s0-.41,0-0.63v-0.63c0-.2,0-0.39,0-0.54V101.6Z" transform="translate(-60.74 -66.72)"/><path class="cls-3" d="M84.79,88.06a0.45,0.45,0,1,0,.62.13A0.44,0.44,0,0,0,84.79,88.06Z" transform="translate(-60.74 -66.72)"/><path class="cls-3" d="M88.09,86.43a0.44,0.44,0,0,0-.27.57,0.44,0.44,0,0,0,.83-0.29A0.44,0.44,0,0,0,88.09,86.43Z" transform="translate(-60.74 -66.72)"/><path class="cls-3" d="M91.69,85.71a0.43,0.43,0,0,0-.41.48,0.45,0.45,0,0,0,.47.41,0.44,0.44,0,0,0,.3-0.15,0.45,0.45,0,0,0,.11-0.32A0.44,0.44,0,0,0,92,85.82,0.44,0.44,0,0,0,91.69,85.71Z" transform="translate(-60.74 -66.72)"/><path class="cls-3" d="M95.36,85.93a0.45,0.45,0,1,0,.35.53A0.44,0.44,0,0,0,95.36,85.93Z" transform="translate(-60.74 -66.72)"/><path class="cls-5" d="M95.52,98.71a2.92,2.92,0,0,1-3.73,3.76l-0.06.24a3.16,3.16,0,0,0,4-4.06Z" transform="translate(-60.74 -66.72)"/><path class="cls-5" d="M93.8,97l0.06-.24a3.16,3.16,0,0,0-4.06,4l0.24-.06A2.92,2.92,0,0,1,93.8,97Z" transform="translate(-60.74 -66.72)"/><path class="cls-5" d="M93.8,97l-0.63,2.35,2.35-.63A2.91,2.91,0,0,0,93.8,97Z" transform="translate(-60.74 -66.72)"/><path class="cls-5" d="M93.87,96.76a3.16,3.16,0,0,1,1.89,1.89l1.1-.3-2.7-2.7Z" transform="translate(-60.74 -66.72)"/><path class="cls-5" d="M90.72,101.79a2.89,2.89,0,0,0,1.07.68l0.64-2.38-2.38.64A2.89,2.89,0,0,0,90.72,101.79Z" transform="translate(-60.74 -66.72)"/><path class="cls-5" d="M89.81,100.79l-1.06.29,2.7,2.7,0.29-1.06A3.15,3.15,0,0,1,89.81,100.79Z" transform="translate(-60.74 -66.72)"/><path class="cls-5" d="M94,92.73l-0.2,0-0.48-.07-0.58,0H92.45l-0.33,0a7.23,7.23,0,0,0-1.38.23,7.12,7.12,0,0,0-1.31.49,5.07,5.07,0,0,0-.56.31l-0.26.15L88.39,94,88,94.26l-0.28.25-0.24.22,0.77,0.77,0.21-.19,0.24-.22L89,94.85l0.19-.14,0.22-.13a4.08,4.08,0,0,1,.48-0.26A6,6,0,0,1,91,93.9a6.13,6.13,0,0,1,1.17-.2h0.55l0.49,0,0.41,0.06,0.17,0,0.14,0,0.27,0.07,0.28-1.05-0.32-.08Z" transform="translate(-60.74 -66.72)"/><path class="cls-5" d="M99.89,99.15l-0.07-.48c0-.07,0-0.14,0-0.2l0-.17L99.67,98l-1.05.28,0.07,0.27,0,0.14c0,0.05,0,.11,0,0.17l0.06,0.41c0,0.15,0,.32,0,0.49v0.55a6.27,6.27,0,0,1-.19,1.17,4.81,4.81,0,0,1-.18.58,4.58,4.58,0,0,1-.23.54,3.84,3.84,0,0,1-.26.48l-0.13.22-0.14.19-0.25.33-0.22.24-0.19.21L97.81,105l0.22-.24,0.25-.28,0.29-.39,0.16-.23,0.15-.26a4.8,4.8,0,0,0,.31-0.57,5.6,5.6,0,0,0,.27-0.63,7.26,7.26,0,0,0,.36-1.37,5.67,5.67,0,0,0,.08-0.68l0-.33V99.73C99.91,99.53,99.9,99.33,99.89,99.15Z" transform="translate(-60.74 -66.72)"/><path class="cls-5" d="M90.83,105.82l-0.3-.11a2.75,2.75,0,0,1-.39-0.15l-0.44-.21-0.47-.28-0.47-.35c-0.15-.13-0.3-0.27-0.45-0.4l-0.06-.05-0.05-.06-0.1-.11-0.2-.22a2,2,0,0,1-.18-0.23l-0.17-.23-0.08-.11-0.07-.12L87.25,103c0-.08-0.09-0.15-0.13-0.22l-0.1-.22-0.09-.2,0-.09,0-.09-0.11-.3-0.07-.19,0-.07-1,.3,0,0.08,0.08,0.23,0.12,0.36,0,0.11,0,0.11L86,103l0.12,0.25c0,0.09.1,0.17,0.15,0.26l0.16,0.27,0.08,0.14,0.1,0.13,0.2,0.27a2.61,2.61,0,0,0,.22.27l0.24,0.26L87.42,105,87.48,105l0.07,0.06c0.18,0.16.35,0.32,0.53,0.47L88.63,106l0.55,0.33c0.18,0.1.36,0.17,0.52,0.25a3.56,3.56,0,0,0,.45.18l0.36,0.12,0.23,0.06,0.08,0,0.27-1.06-0.07,0Z" transform="translate(-60.74 -66.72)"/><path class="cls-5" d="M99,98.86c0-.08,0-0.15,0-0.23L99,98.41c0-.15-0.07-0.3-0.11-0.44l-0.15-.43a6.7,6.7,0,0,0-1.4-2.19l-0.07-.08-0.08-.07L97,95.07l-0.15-.14a1.47,1.47,0,0,0-.16-0.13,6.48,6.48,0,0,0-5.38-1.28,6.32,6.32,0,0,0-1.88.71l-0.34.2-0.28.2-0.24.18L88.37,95,88,95.29l0.21,0.21,0.33-.29L88.75,95,89,94.88l0.27-.19,0.33-.19a6,6,0,0,1,1.79-.68A6.18,6.18,0,0,1,96.49,95a1.33,1.33,0,0,1,.15.13l0.15,0.13,0.15,0.13L97,95.49l0.07,0.07a6.41,6.41,0,0,1,1.34,2.09l0.14,0.41c0,0.14.07,0.28,0.11,0.42l0.05,0.21c0,0.07,0,.14,0,0.22s0,0.29.06,0.44a6.75,6.75,0,0,1-.1,1.77,6.68,6.68,0,0,1-.61,1.7,6.18,6.18,0,0,1-2.54,2.54,6.2,6.2,0,0,1-3.47.71L91.65,106l-0.22,0-0.21-.05c-0.14,0-.28-0.06-0.42-0.11l-0.41-.14a6.4,6.4,0,0,1-2.09-1.34l-0.07-.07-0.07-.07L88,104l-0.13-.15a1.34,1.34,0,0,1-.13-0.15,6.18,6.18,0,0,1-1.22-5.13,6,6,0,0,1,.68-1.79l0.19-.33c0.06-.1.13-0.19,0.19-0.27L87.79,96c0.05-.07.11-0.13,0.16-0.18l0.29-.33L88,95.29l-0.31.34c0,0.06-.11.11-0.16,0.19l-0.18.24c-0.06.09-.14,0.18-0.2,0.28l-0.2.34a6.31,6.31,0,0,0-.71,1.88,6.48,6.48,0,0,0,1.28,5.38,1.48,1.48,0,0,0,.13.16l0.14,0.15L88,104.4,88,104.48l0.08,0.07a6.7,6.7,0,0,0,2.19,1.4l0.43,0.15c0.14,0,.29.07,0.44,0.11l0.22,0.05,0.23,0,0.46,0.06a6.51,6.51,0,0,0,3.64-.74A6.5,6.5,0,0,0,98.37,103a7,7,0,0,0,.64-1.78,7.06,7.06,0,0,0,.1-1.86C99.1,99.16,99.07,99,99,98.86Z" transform="translate(-60.74 -66.72)"/><circle class="cls-3" cx="92.63" cy="99.89" r="0.51" transform="translate(-104.24 28.02) rotate(-45)"/><g class="cls-2"><path class="cls-6" d="M122.16,98.43c0-.66-0.13-1.32-0.21-2,0-.33-0.11-0.67-0.16-1l-0.09-.5-0.11-.5a29.77,29.77,0,0,0-2.9-7.94,30.33,30.33,0,0,0-2.34-3.68,29.83,29.83,0,0,0-6.18-6.18,31,31,0,0,0-3.68-2.34,29.78,29.78,0,0,0-7.94-2.9l-0.5-.11-0.51-.09-1-.16c-0.67-.08-1.33-0.17-2-0.21A29.91,29.91,0,0,0,83.72,72a30.12,30.12,0,0,0-5.53,2.31c-0.39.22-.77,0.42-1.13,0.64l-1,.64-0.91.63-0.42.3-0.39.3-0.72.56L73,77.93l-0.52.45L72,78.77l-0.76.73,6.19,6.19L78,85.17l0.3-.28,0.37-.32,0.43-.37,0.51-.39,0.28-.21,0.3-.21,0.65-.45,0.72-.45c0.25-.16.52-0.29,0.8-0.45a21,21,0,0,1,8.84-2.5,20.6,20.6,0,0,1,2.74,0c0.47,0,.94.09,1.41,0.14L96,79.82l0.36,0.06L96.76,80a21,21,0,0,1,5.6,2,22,22,0,0,1,2.6,1.65A21.21,21.21,0,0,1,109.35,88a21.67,21.67,0,0,1,1.65,2.6,21,21,0,0,1,2,5.6l0.08,0.36,0.06,0.36c0,0.24.09,0.47,0.12,0.71,0.05,0.47.12,0.94,0.15,1.41a20.92,20.92,0,0,1,0,2.74,22,22,0,0,1-.62,4h8.94a31.34,31.34,0,0,0,.41-3.54A29.46,29.46,0,0,0,122.16,98.43ZM77.68,82.61l-0.27.23-2.9-3.44,0.32-.27,0.33-.26L78,82.4Zm2.08-1.51-0.29.19L77,77.55s0.17-.12.35-0.23l0.36-.22,2.39,3.81ZM81.68,80l-2.07-4,0.75-.37,1.95,4.05ZM84,78.93l-1.61-4.2,0.78-.3,1.49,4.25ZM86.81,78l-0.34.09-1.14-4.35,0.4-.11,0.41-.09,1,4.38Zm2.53-.47-0.24,0H89l-0.65-4.45,0.13,0,0.29,0,0.41,0,0.52,4.47Zm2.22-.19L91.4,72.9l0.84,0,0,4.5Zm3.27,0.11H94.72l-0.24,0-0.35,0L94.47,73l0.42,0,0.29,0H95.3Zm2.54,0.41L97,77.84l-0.34-.07,0.83-4.42,0.41,0.08,0.41,0.09Zm2.48,0.69-0.67-.21,1.31-4.3,0.8,0.26Zm2.39,1-0.1,0-0.22-.1-0.32-.14,1.78-4.13,0.38,0.17L104,75.43l0.12,0.06Zm2.26,1.22-0.3-.19-0.31-.17,2.23-3.91,0.36,0.21,0.36,0.22Zm2.12,1.46L106.34,82l-0.19-.15-0.09-.06,2.65-3.63,0.11,0.08L109,78.44l0.33,0.26Zm1.94,1.69L108,83.45l3-3.32,0.61,0.58Zm1.75,1.89-0.46-.53,3.38-3L113.77,83Zm1.47,2-0.14-.2-0.2-.29,3.69-2.58,0.24,0.34,0.16,0.24,0.07,0.11-3.76,2.47Zm1.34,2.32L113,89.8l-0.17-.31,3.95-2.16,0.21,0.37,0.19,0.38Zm0.91,2-0.09-.23,0-.1,4.17-1.7,0,0.12,0.1,0.27,0.15,0.39-4.22,1.57Zm0.71,2.11L119.06,93l0.22,0.81-4.36,1.1Zm0.62,2.86-0.06-.35,4.44-.74,0.07,0.41c0,0.21.06,0.41,0.06,0.41l-4.46.61S115.39,97.28,115.36,97.11Zm0.25,2.91V99.67c0-.18,0-0.35,0-0.35l4.49-.25s0,0.21,0,.42v0.42Z" transform="translate(-60.74 -66.72)"/></g><g class="cls-2"><path class="cls-6" d="M108.71,117.83c-0.3.3-.77,0.7-1.38,1.21a22.34,22.34,0,0,1-2.34,1.63,21.4,21.4,0,0,1-3.3,1.65,23.13,23.13,0,0,1-4.2,1.22,23.79,23.79,0,0,1-4.88.42,24.68,24.68,0,0,1-5.21-.68c-0.44-.09-0.87-0.23-1.3-0.35s-0.86-.28-1.29-0.42-0.85-.32-1.27-0.5-0.84-.36-1.24-0.57a24.68,24.68,0,0,1-4.56-2.93A24.37,24.37,0,0,1,74,114.76a23.71,23.71,0,0,1-4.23-8.23,22.36,22.36,0,0,1-.73-3.64l-0.05-.4,0-.39-0.06-.74c0-.48,0-0.92,0-1.32s0-.75,0-1.06L69,98.19c0-.21,0-0.37,0-0.48l0-.17-2.26-.24,0,0.18c0,0.12,0,.3,0,0.53l-0.05.86c0,0.34,0,.73,0,1.16s0,0.92,0,1.44l0.06,0.82,0,0.43,0.06,0.44a24.63,24.63,0,0,0,.81,4,26,26,0,0,0,4.63,9,26.64,26.64,0,0,0,4,4.09,26.94,26.94,0,0,0,5,3.2c0.44,0.23.9,0.42,1.35,0.63s0.92,0.37,1.38.55,0.94,0.33,1.41.46,0.94,0.28,1.42.38a27,27,0,0,0,5.7.74,26.08,26.08,0,0,0,5.35-.46,25.42,25.42,0,0,0,4.62-1.34,23.67,23.67,0,0,0,3.64-1.82,24.64,24.64,0,0,0,2.58-1.79c0.67-.55,1.19-1,1.52-1.33l0.52-.49-1.61-1.61Z" transform="translate(-60.74 -66.72)"/></g><path class="cls-6" d="M114.24,122.45a2.34,2.34,0,0,0-.27.25l-0.63.6c-0.42.39-.86,0.77-1.3,1.13a28.82,28.82,0,0,1-8.86,5,30.88,30.88,0,0,1-13.39,1.54,31.47,31.47,0,0,1-21.84-12.38,30.71,30.71,0,0,1-5.39-25.41c0.93-4-.34-3.51-1.18.64q-0.1.52-.19,1a31.74,31.74,0,0,0,6.54,25.12A32.49,32.49,0,0,0,89.8,132a31.92,31.92,0,0,0,13.52-1.54,30.45,30.45,0,0,0,6.17-2.92,33.94,33.94,0,0,0,5.47-4.33l-0.6-.61A0.73,0.73,0,0,0,114.24,122.45Z" transform="translate(-60.74 -66.72)"/><path class="cls-6" d="M110.83,119c-0.08-.08-0.2.12-0.27,0.18-0.37.35-.75,0.71-1.14,1A24.86,24.86,0,0,1,98,125.76,26.48,26.48,0,0,1,78.73,122a27.81,27.81,0,0,1-5.07-4.23,26,26,0,0,1-6.84-20.93,20.92,20.92,0,0,1,.69-3.44c0.53-1.82-3.07-3.69-3.68-1.59a30.08,30.08,0,0,0-.67,13.64,29.42,29.42,0,0,0,4.46,11.07,31.13,31.13,0,0,0,6.59,7.14,30,30,0,0,0,5.93,3.65,32.89,32.89,0,0,0,6.54,2.2,30.24,30.24,0,0,0,13.85-.27,28.64,28.64,0,0,0,11.32-5.85c0.61-.51,1.18-1.06,1.76-1.61l-1.91-1.91ZM90.32,129.44a29.75,29.75,0,0,1-6.1-1.21,2.32,2.32,0,0,1-.31-0.11l0-.14,0.21-.66,0.51-1.57,0.07-.2a25.56,25.56,0,0,0,5.83,1.19Zm6.51-.11H96.77a31.72,31.72,0,0,1-5.47.18l0.16-2.65s0-.06,0-0.06l0.42,0c0.53,0,1.06,0,1.59,0a23.93,23.93,0,0,0,3.34-.26l0.58-.09a0.25,0.25,0,0,1,0,.12l0.15,0.89,0.28,1.66Zm8-2.24,0,0a31.53,31.53,0,0,1-6,1.89s-0.48-2.35-.52-2.59l0-.07a24.43,24.43,0,0,0,5.66-1.83l0.63,1.37,0.39,0.84,0.1,0.23C105.1,127,104.87,127.07,104.82,127.1Zm6.44-4s-0.07.06,0,0a24.52,24.52,0,0,1-2.65,2c-0.2.13-2.61,1.55-2.63,1.5l-1.2-2.38,0,0a23.64,23.64,0,0,0,5-3.29l1,1.15,0.6,0.71,0.16,0.19C111.5,122.93,111.31,123,111.26,123.08Z" transform="translate(-60.74 -66.72)"/><path class="cls-7" d="M103.65,117.35l-0.36.22-0.51.31-0.61.33c-0.2.12-.42,0.21-0.62,0.31s-0.38.19-.54,0.26l-0.54.23,0.91,2.24L102,121c0.18-.08.39-0.18,0.61-0.29s0.47-.21.7-0.35L104,120l0.58-.35,0.41-.25,0.15-.1-1.33-2Z" transform="translate(-60.74 -66.72)"/><path class="cls-7" d="M98.62,119.64c-0.17.06-.37,0.11-0.58,0.16s-0.44.12-.68,0.17l-0.68.14c-0.22,0-.43.07-0.6,0.1l-0.43.07-0.12,0h0l0.29,2.4h0l0.13,0,0.48-.07c0.2,0,.43-0.05.67-0.11l0.77-.15c0.26-.05.52-0.13,0.76-0.19s0.47-.11.66-0.18l0.64-.19-0.74-2.3Z" transform="translate(-60.74 -66.72)"/><path class="cls-7" d="M93.95,120.4c-0.1,0-.25,0-0.43,0-0.36,0-.84,0-1.32,0s-1-.07-1.31-0.09c-0.18,0-.33,0-0.43-0.05l-0.16,0L90,122.63l0.18,0c0.12,0,.28,0,0.48.06,0.4,0,.93.1,1.47,0.11s1.07,0,1.47,0c0.2,0,.37,0,0.48,0h0.18l-0.12-2.41H93.95Z" transform="translate(-60.74 -66.72)"/><path class="cls-7" d="M88.33,119.87c-0.17,0-.38-0.08-0.6-0.15l-0.68-.19c-0.23-.06-0.46-0.15-0.67-0.22s-0.41-.13-0.58-0.2l-0.56-.22-0.91,2.24L85,121.37c0.19,0.08.41,0.15,0.65,0.23s0.49,0.17.75,0.25l0.76,0.22c0.24,0.07.47,0.11,0.67,0.16l0.47,0.11,0.18,0L88.92,120l-0.16,0Z" transform="translate(-60.74 -66.72)"/><path class="cls-7" d="M82.9,117.76c-0.19-.11-0.41-0.22-0.61-0.35l-0.6-.38c-0.19-.12-0.36-0.25-0.51-0.35l-0.36-.25-0.13-.1-1.44,1.94,0.15,0.11,0.4,0.28c0.17,0.11.35,0.26,0.57,0.39L81,119.47c0.22,0.15.46,0.27,0.68,0.39s0.42,0.25.6,0.33l0.6,0.3L84,118.32l-0.54-.27C83.28,118,83.1,117.87,82.9,117.76Z" transform="translate(-60.74 -66.72)"/><path class="cls-7" d="M78.71,114.67c-0.16-.16-0.34-0.32-0.5-0.5l-0.49-.51-0.4-.46L77,112.87l-0.1-.13-1.88,1.52,0.11,0.14,0.32,0.37c0.13,0.15.28,0.33,0.45,0.52l0.54,0.57c0.18,0.2.38,0.38,0.56,0.55l0.5,0.47L78,117.32l1.57-1.84-0.46-.39Z" transform="translate(-60.74 -66.72)"/><path class="cls-7" d="M75.76,111.14l-0.33-.52-0.18-.29L75.08,110c-0.11-.21-0.24-0.41-0.34-0.61l-0.27-.55c-0.08-.16-0.15-0.29-0.19-0.39l-0.07-.15-2.2,1,0.07,0.17c0,0.11.12,0.26,0.21,0.44l0.31,0.61c0.11,0.22.25,0.45,0.38,0.69l0.19,0.35,0.2,0.33,0.36,0.58c0.11,0.17.21,0.3,0.27,0.4L74.13,113l2-1.39L76,111.5C75.95,111.41,75.86,111.29,75.76,111.14Z" transform="translate(-60.74 -66.72)"/><path class="cls-7" d="M73.3,105.9l-0.19-.68C73,105,73,104.77,72.95,104.55s-0.1-.42-0.13-0.6l-0.1-.59-2.38.4,0.12,0.66c0,0.2.09,0.42,0.15,0.67s0.11,0.51.19,0.76L71,106.6l0.21,0.65c0.12,0.38.22,0.63,0.22,0.63l2.27-.84s-0.09-.22-0.2-0.56Z" transform="translate(-60.74 -66.72)"/><path class="cls-7" d="M72.46,100.79c0-.22,0-0.46,0-0.7V99.4c0-.22,0-0.43,0-0.61l0-.43,0-.16L70.13,98l0,0.18,0,0.48c0,0.2,0,.43,0,0.68v0.78c0,0.27,0,.53,0,0.78s0,0.48,0,.68l0.05,0.67,2.4-.23,0-.59C72.47,101.23,72.46,101,72.46,100.79Z" transform="translate(-60.74 -66.72)"/><path class="cls-5" d="M125,96.92v0h0V96.84a31.68,31.68,0,0,0-.47-4.78q-0.22-1.23-.54-2.44c0-.09,0-0.07.09-0.09l0.28-.08,0.46-.12c-0.16-.56-0.32-1.11-0.5-1.66-0.24-.72-0.52-1.42-0.79-2.13A33.28,33.28,0,0,0,121.71,82l-0.38.22-0.26.15a0.42,0.42,0,0,1-.12.07c-0.44-.75-0.91-1.49-1.41-2.21a29.43,29.43,0,0,0-3.29-3.9l0.62-.62a35.88,35.88,0,0,0-3.81-3.22A27.29,27.29,0,0,0,110.76,71a0.59,0.59,0,0,0-.25-0.12l-0.14.24-0.29.5a28.76,28.76,0,0,0-7.17-3l0.14-.53,0.08-.29c0-.07-0.15-0.07-0.2-0.09-0.89-.24-1.79-0.4-2.69-0.56a33.31,33.31,0,0,0-5-.42V67.6a1,1,0,0,0,0,.33,1.48,1.48,0,0,0,.45,0l0.83,0c0.57,0,1.14.07,1.7,0.12a27.87,27.87,0,0,1,6.06,1.27,29.45,29.45,0,0,1,18.9,18.79,26.43,26.43,0,0,1,1.19,5.11c0.11,0.9.23,1.8,0.26,2.71q0,0.63,0,1.27c0,0.06,0,.13,0,0.13H125V96.92Z" transform="translate(-60.74 -66.72)"/></svg>