<svg preserveAspectRatio="none" xmlns="http://www.w3.org/2000/svg" viewBox="0 0 380.19 378.23"><defs><style>.cls-1{isolation:isolate;}.cls-2{mix-blend-mode:screen;}.cls-3{fill:#03a6ff;}</style></defs><title>circle53</title><g class="cls-1"><g id="Layer_7" data-name="Layer 7"><g class="cls-2"><path class="cls-3" d="M1131.06,1663a151.6,151.6,0,0,1,11.41-33.3l6.81,3.29a144,144,0,0,0-10.82,31.59Z" transform="translate(-1088.48 -1505.6)"/><path class="cls-3" d="M1146.31,1766.42a148.13,148.13,0,0,1-15.08-39.91,143.11,143.11,0,0,1-3.07-21.16c-0.35-3.55-.32-7.12-0.44-10.69,0-1.78.08-3.56,0.12-5.35l0.07-2.67,0.2-2.67,7.55,0.52-0.19,2.53-0.07,2.54c0,1.69-.1,3.39-0.11,5.08,0.12,3.38.08,6.78,0.42,10.15a135.62,135.62,0,0,0,2.92,20.09,140.56,140.56,0,0,0,14.3,37.87Z" transform="translate(-1088.48 -1505.6)"/><path class="cls-3" d="M1190.28,1815.64a147.17,147.17,0,0,1-18.25-15.32l5.32-5.38a139.62,139.62,0,0,0,17.33,14.55Z" transform="translate(-1088.48 -1505.6)"/><path class="cls-3" d="M1250.39,1840.92a141.35,141.35,0,0,1-23.06-6l2.5-7.14a133.81,133.81,0,0,0,21.88,5.73Z" transform="translate(-1088.48 -1505.6)"/><path class="cls-3" d="M1371.83,1808.84a150.41,150.41,0,0,1-43.29,25.11,151.93,151.93,0,0,1-24.2,6.7c-2.07.34-4.12,0.79-6.2,1l-6.24.79-6.27.48c-1,.1-2.09.13-3.14,0.15l-3.14.08-0.14-7.56,3-.08c1,0,2,0,3-.14l6-.45,5.92-.75c2-.24,3.92-0.67,5.88-1a144.32,144.32,0,0,0,23-6.36A142.84,142.84,0,0,0,1367,1803Z" transform="translate(-1088.48 -1505.6)"/><path class="cls-3" d="M1425.53,1694.36a165.85,165.85,0,0,1-1.78,23,156.49,156.49,0,0,1-5.33,22.47l-7.2-2.31a149,149,0,0,0,5.06-21.32,158.41,158.41,0,0,0,1.69-21.86h7.57Z" transform="translate(-1088.48 -1505.6)"/><path class="cls-3" d="M1345.84,1663.91a75.33,75.33,0,0,1,6.4,30.46h-5.48a69.85,69.85,0,0,0-5.94-28.25Z" transform="translate(-1088.48 -1505.6)"/><path class="cls-3" d="M1269.13,1619.11a79.27,79.27,0,0,1,19,.49,77.28,77.28,0,0,1,18.25,5.2,75.92,75.92,0,0,1,29.83,23l-4.32,3.38a70.44,70.44,0,0,0-27.67-21.3,71.81,71.81,0,0,0-16.92-4.83,73.81,73.81,0,0,0-17.6-.46Z" transform="translate(-1088.48 -1505.6)"/><path class="cls-3" d="M1218.27,1646.25a83.59,83.59,0,0,1,7.3-7.67,79.77,79.77,0,0,1,8.29-6.59l3.1,4.52a74.35,74.35,0,0,0-7.7,6.11,78.13,78.13,0,0,0-6.77,7.12Z" transform="translate(-1088.48 -1505.6)"/><path class="cls-3" d="M1201.28,1700.64a77,77,0,0,1-.15-10.59,80.29,80.29,0,0,1,1.33-10.51l5.38,1.07a74.85,74.85,0,0,0-1.23,9.75,71.57,71.57,0,0,0,.14,9.83Z" transform="translate(-1088.48 -1505.6)"/><path class="cls-3" d="M1279.36,1769.92a76.13,76.13,0,0,1-22.12-2.45,78,78,0,0,1-10.55-3.65,77.14,77.14,0,0,1-9.89-5.17,76,76,0,0,1-29.06-33.09l5-2.26a70.09,70.09,0,0,0,66.43,41.15Z" transform="translate(-1088.48 -1505.6)"/><path class="cls-3" d="M1352.25,1694.36a75.88,75.88,0,0,1-10.88,39.1l-4.69-2.84a70.39,70.39,0,0,0,10.09-36.26h5.48Z" transform="translate(-1088.48 -1505.6)"/><path class="cls-3" d="M1276.78,1784.82a90.29,90.29,0,0,1-58.93-21.71,90.35,90.35,0,0,1-31.18-59.19l0-.48,36.77-3.87,0.05,0.48a52.59,52.59,0,0,0,5.85,19.22,53.5,53.5,0,0,0,50,28.51,53.2,53.2,0,0,0,19.53-4.77,53.74,53.74,0,0,0,27.36-28.59,52.81,52.81,0,0,0,3.89-19.74v-0.49l37,0.21v0.48a90.46,90.46,0,0,1-85.94,89.82Q1279,1784.82,1276.78,1784.82Zm-89.1-80.52a89.59,89.59,0,0,0,60.06,74.77,89.47,89.47,0,0,0,66.1-3.32,89.1,89.1,0,0,0,27.43-19.53,89.29,89.29,0,0,0,24.83-60.85l-35-.2a53.8,53.8,0,0,1-4,19.62,54.71,54.71,0,0,1-27.85,29.1,54.44,54.44,0,0,1-40.21,2,54.67,54.67,0,0,1-30.61-26.18,53.57,53.57,0,0,1-5.91-19.09Z" transform="translate(-1088.48 -1505.6)"/><path class="cls-3" d="M1227.17,1673.94l-34-14.44,0.19-.45a90.51,90.51,0,0,1,69.52-54.11,95.17,95.17,0,0,1,15.25-1,87.14,87.14,0,0,1,15.22,1.53l0.47,0.09L1287,1641.9l-0.48-.09a53.56,53.56,0,0,0-59.16,31.69Zm-32.77-15,32.26,13.69a54.7,54.7,0,0,1,24.24-26.32,54.31,54.31,0,0,1,35.32-5.59l6.43-34.44a86.1,86.1,0,0,0-14.58-1.42,93.48,93.48,0,0,0-15.09,1A89.64,89.64,0,0,0,1194.4,1659Z" transform="translate(-1088.48 -1505.6)"/><path class="cls-3" d="M1326.28,1674.48l-0.18-.45a53.15,53.15,0,0,0-18.08-23l-0.39-.28,21.66-30,0.39,0.28A90.77,90.77,0,0,1,1360.3,1660l0.18,0.45Zm-17.3-23.92a54.13,54.13,0,0,1,17.83,22.66l32.41-13.31a89.83,89.83,0,0,0-29.71-37.74Z" transform="translate(-1088.48 -1505.6)"/><path class="cls-3" d="M1264.24,1610.46a85.64,85.64,0,0,1,36,2.46,84.78,84.78,0,0,1,16.82,6.9,86.09,86.09,0,0,1,27.35,23.62,84.88,84.88,0,0,1,17,50.92h-4.51a80.37,80.37,0,0,0-16.08-48.21,81.57,81.57,0,0,0-25.9-22.37,80.26,80.26,0,0,0-15.92-6.53,81.13,81.13,0,0,0-34.14-2.33Z" transform="translate(-1088.48 -1505.6)"/><path class="cls-3" d="M1193.82,1676a84.77,84.77,0,0,1,6.55-18.81,84.85,84.85,0,0,1,25.16-30.53,85.72,85.72,0,0,1,17.19-10.05l1.81,4.14a81.2,81.2,0,0,0-16.28,9.52,80.34,80.34,0,0,0-23.83,28.91,80.25,80.25,0,0,0-6.2,17.8Z" transform="translate(-1088.48 -1505.6)"/><path class="cls-3" d="M1202.23,1735.12a85.13,85.13,0,0,1-9.35-27.32l4.46-.71a80.6,80.6,0,0,0,8.85,25.85Z" transform="translate(-1088.48 -1505.6)"/><path class="cls-3" d="M1298.13,1776.42a86.9,86.9,0,0,1-14.28,2.43c-1.21.08-2.41,0.22-3.62,0.24l-3.62.09-3.62-.09c-1.21,0-2.41-.16-3.62-0.24l0.38-4.5c1.14,0.07,2.28.21,3.43,0.23l3.43,0.09,3.43-.09c1.15,0,2.28-.15,3.43-0.22a82.42,82.42,0,0,0,13.52-2.3Z" transform="translate(-1088.48 -1505.6)"/><path class="cls-3" d="M1345.3,1744.11a85.17,85.17,0,0,1-20.66,20.16l-2.56-3.72a80.65,80.65,0,0,0,19.56-19.09Z" transform="translate(-1088.48 -1505.6)"/><path class="cls-3" d="M1356,1724.36c-0.53,1.29-1,2.62-1.58,3.88l-4.14-1.81c0.57-1.19,1-2.45,1.49-3.67Z" transform="translate(-1088.48 -1505.6)"/><path class="cls-3" d="M1360,1709.61c-0.13.69-.24,1.38-0.38,2.06l-0.47,2-4.4-1,0.45-1.93c0.14-.65.24-1.3,0.36-1.95Z" transform="translate(-1088.48 -1505.6)"/><polygon class="cls-3" points="272.96 188.76 272.86 192.94 268.35 192.72 268.45 188.76 272.96 188.76"/><path class="cls-3" d="M1389.57,1694.4v-0.48a127.23,127.23,0,0,0-1.34-17.08,125.3,125.3,0,0,0-3.89-16.59,117.67,117.67,0,0,0-6.37-15.8l-1.94-3.81-2.13-3.7c-0.46-.86-1-1.69-1.52-2.48-0.25-.38-0.5-0.76-0.74-1.15l-1.15-1.81c-0.23-.37-0.49-0.73-0.75-1.08l-0.47-.66a113.86,113.86,0,0,0-53.21-41.32l-0.45-.17,27.66-74.11,0.45,0.17a191.54,191.54,0,0,1,50.56,28.24l1.84,1.45c1.27,1,2.58,2,3.82,3.1l6.15,5.38c3.25,3,6.61,6.19,9.69,9.53a186.38,186.38,0,0,1,18.35,22.45l0.7,1c0.47,0.66.94,1.32,1.38,2l2,3,1,1.52c1,1.51,2,3.07,2.86,4.67l0.65,1.13c1,1.72,2,3.43,2.94,5.17l3.32,6.47a198.45,198.45,0,0,1,10.85,27,204.17,204.17,0,0,1,6.63,28.3,207.33,207.33,0,0,1,2.27,28.89v0.48Zm-72.71-106.7a114.86,114.86,0,0,1,53.21,41.51l0.46,0.64c0.27,0.37.54,0.75,0.79,1.14l1.15,1.81c0.24,0.38.48,0.76,0.73,1.13,0.53,0.82,1.08,1.66,1.55,2.54l2.13,3.7,2,3.84a118.67,118.67,0,0,1,6.42,15.94,126.3,126.3,0,0,1,3.92,16.73,128.64,128.64,0,0,1,1.34,16.74l77.16-.29a206.5,206.5,0,0,0-2.26-28.27,203,203,0,0,0-6.6-28.16,197.36,197.36,0,0,0-10.8-26.83l-3.31-6.44c-1-1.71-1.94-3.43-2.93-5.14l-0.65-1.13c-0.88-1.58-1.87-3.13-2.83-4.62l-1-1.52-2-3c-0.43-.67-0.89-1.31-1.35-2l-0.71-1a185.52,185.52,0,0,0-18.26-22.34c-3.06-3.31-6.41-6.45-9.64-9.48l-0.67-.63-5.45-4.73c-1.22-1.07-2.52-2.08-3.78-3.07l-1.85-1.46a190.51,190.51,0,0,0-49.84-27.92Z" transform="translate(-1088.48 -1505.6)"/><path class="cls-3" d="M1187.13,1625.3l-62.36-48.66,0.3-.38a191.67,191.67,0,0,1,115.22-70.56l0.48-.09,14.87,77.69-0.47.09a112.57,112.57,0,0,0-67.73,41.54Zm-61-48.83,60.83,47.47a113.52,113.52,0,0,1,67.54-41.42l-14.5-75.79A190.7,190.7,0,0,0,1126.13,1576.47Z" transform="translate(-1088.48 -1505.6)"/><path class="cls-3" d="M1344.69,1874l-0.17-.45-28.07-73.43,0.45-.17a113,113,0,0,0,18.2-8.88,114.49,114.49,0,0,0,16.32-12.07l0.36-.32,0.32,0.36,52.11,58.86-0.36.32a190,190,0,0,1-58.71,35.61Zm-27-73.32,27.56,72.08a188.95,188.95,0,0,0,57.6-34.94L1351.7,1780a115.53,115.53,0,0,1-16.1,11.86A113.89,113.89,0,0,1,1317.69,1800.67Z" transform="translate(-1088.48 -1505.6)"/><path class="cls-3" d="M1432.08,1807.16l-64.14-46.29,0.28-.39A113.44,113.44,0,0,0,1385.6,1724l0.13-.47,76.32,20.76-0.13.47a194.28,194.28,0,0,1-29.56,62Zm-62.79-46.51,62.57,45.16a193.38,193.38,0,0,0,29-60.81l-74.46-20.25A114.39,114.39,0,0,1,1369.29,1760.65Z" transform="translate(-1088.48 -1505.6)"/><path class="cls-3" d="M1244.94,1883.83l-0.47-.07a190.89,190.89,0,0,1-54.37-17.85l-2.06-1.06c-1.42-.72-2.89-1.47-4.3-2.28l-6.2-3.57c-1.46-.88-2.9-1.81-4.3-2.71l-1.76-1.13c-2-1.23-3.91-2.61-5.78-3.94l-0.14-.1c-3.53-2.42-6.93-5.13-10.21-7.75l-1.17-.93-6.77-5.86-3.9-3.7a187.63,187.63,0,0,1-19.12-21.31c-1.52-1.88-2.91-3.85-4.26-5.76l-1-1.45c-1-1.44-2.08-2.92-3-4.46l-3.84-6-3.58-6.22a193.51,193.51,0,0,1-12-26,199.45,199.45,0,0,1-8-27.56l-0.1-.47,77.4-16.28,0.1,0.48a113.15,113.15,0,0,0,32.32,58.06l2.3,2.21,4,3.46,1.82,1.43c1.57,1.24,3.2,2.53,4.89,3.66l0.5,0.36c1,0.69,2,1.41,3,2l1.5,1c0.69,0.45,1.38.89,2.08,1.32l3.66,2.1c0.73,0.44,1.51.82,2.26,1.2,0.49,0.25,1,.49,1.47.75a111.77,111.77,0,0,0,31.85,10.46l0.49,0.07Zm-155.32-149.5a199.11,199.11,0,0,0,7.87,27,192.63,192.63,0,0,0,12,25.9l3.57,6.19,3.84,6c0.94,1.51,2,3,3,4.41l1,1.46c1.34,1.89,2.73,3.85,4.23,5.72a186.59,186.59,0,0,0,19,21.21l3.88,3.69,6.73,5.83,1.16,0.92c3.28,2.61,6.66,5.3,10.17,7.71l0.15,0.11c1.85,1.32,3.77,2.69,5.73,3.91l1.77,1.14c1.39,0.89,2.83,1.82,4.27,2.69l6.19,3.56c1.39,0.8,2.84,1.54,4.25,2.26l2.06,1.06a182.76,182.76,0,0,0,26.36,10.91,185.24,185.24,0,0,0,27.24,6.77l12.82-76.09a109,109,0,0,1-16-4,107.17,107.17,0,0,1-15.67-6.49c-0.49-.26-1-0.5-1.46-0.75-0.77-.38-1.56-0.78-2.32-1.23l-3.67-2.1c-0.72-.43-1.42-0.89-2.12-1.34l-1.47-.94c-1.05-.63-2.06-1.36-3-2.06l-0.48-.35c-1.71-1.14-3.35-2.44-4.94-3.7l-1.83-1.44-4-3.49-2.32-2.22a114.16,114.16,0,0,1-32.5-58.09Z" transform="translate(-1088.48 -1505.6)"/><path class="cls-3" d="M1218.86,1604.12a106.54,106.54,0,0,1,38.6-15.18,108.33,108.33,0,0,1,41.47.6,106.47,106.47,0,0,1,38.13,16.34,107.76,107.76,0,0,1,29.07,29.59l-3.92,2.58a103.06,103.06,0,0,0-27.8-28.3,101.77,101.77,0,0,0-36.45-15.62,103.64,103.64,0,0,0-39.67-.58,101.84,101.84,0,0,0-36.9,14.51Z" transform="translate(-1088.48 -1505.6)"/><path class="cls-3" d="M1169.94,1704.3a107.82,107.82,0,0,1,5.46-45.1,106.17,106.17,0,0,1,9.75-20.66,108.59,108.59,0,0,1,13.94-18.1l3.4,3.24a103.91,103.91,0,0,0-13.33,17.31,101.5,101.5,0,0,0-9.32,19.75,103.12,103.12,0,0,0-5.22,43.13Z" transform="translate(-1088.48 -1505.6)"/><path class="cls-3" d="M1197.91,1767.06a113.92,113.92,0,0,1-10.31-13,110.63,110.63,0,0,1-8.15-14.48l4.26-2a105.94,105.94,0,0,0,7.79,13.84,109.27,109.27,0,0,0,9.86,12.46Z" transform="translate(-1088.48 -1505.6)"/><path class="cls-3" d="M1316.17,1794c-2.56,1.07-5.2,1.91-7.83,2.79l-4,1.14c-1.33.41-2.69,0.65-4,1a102.87,102.87,0,0,1-16.44,2.39l-0.31-4.69a98.18,98.18,0,0,0,15.72-2.28c1.29-.32,2.59-0.55,3.86-0.94l3.82-1.09c2.51-.85,5-1.65,7.49-2.67Z" transform="translate(-1088.48 -1505.6)"/><path class="cls-3" d="M1366.89,1752.07a108.05,108.05,0,0,1-21.93,24.83l-3-3.62a103.36,103.36,0,0,0,21-23.74Z" transform="translate(-1088.48 -1505.6)"/><polygon class="cls-3" points="289.59 223.28 288.82 225.55 287.94 227.79 283.57 226.07 284.41 223.94 285.14 221.76 289.59 223.28"/><path class="cls-3" d="M1382.34,1711.86c-0.29,1.57-.53,3.16-0.88,4.72l-4.59-1c0.33-1.49.55-3,.84-4.51Z" transform="translate(-1088.48 -1505.6)"/><polygon class="cls-3" points="295.3 188.76 295.18 193.56 290.49 193.35 290.61 188.76 295.3 188.76"/><path class="cls-3" d="M1119.44,1634.8a168.22,168.22,0,0,1,218.41-97l-2.88,7.35a160.34,160.34,0,0,0-208.15,92.43Z" transform="translate(-1088.48 -1505.6)"/><path class="cls-3" d="M1198.63,1843.28a168.05,168.05,0,0,1-32.09-21.94l-1.85-1.58c-0.61-.54-1.19-1.11-1.78-1.66l-3.55-3.34c-1.2-1.1-2.28-2.31-3.42-3.47s-2.28-2.31-3.36-3.52a171,171,0,0,1-12.27-15.12,167.67,167.67,0,0,1-29.62-71.33l7.79-1.26a159.77,159.77,0,0,0,28.22,68,163.23,163.23,0,0,0,11.69,14.41c1,1.15,2.14,2.24,3.21,3.36s2.12,2.26,3.26,3.3l3.38,3.18c0.57,0.53,1.12,1.07,1.7,1.58l1.77,1.51a160.16,160.16,0,0,0,30.59,20.91Z" transform="translate(-1088.48 -1505.6)"/><path class="cls-3" d="M1444.71,1693.2a170.67,170.67,0,0,1-9.63,57.35c-0.54,1.53-1.16,3-1.73,4.55s-1.13,3-1.8,4.53l-2,4.45-1,2.22-1.09,2.18-7.08-3.49,1-2.07,0.95-2.12,1.88-4.24c0.64-1.41,1.14-2.88,1.71-4.31s1.14-2.88,1.65-4.34a162.78,162.78,0,0,0,9.18-54.66Z" transform="translate(-1088.48 -1505.6)"/><path class="cls-3" d="M1418.74,1784.08a167.63,167.63,0,0,1-56.46,54.9l-2.86,1.67c-1,.56-1.9,1.12-2.89,1.61l-5.88,3.06-6,2.78-1.5.69-1.54.62-3.07,1.24a168.38,168.38,0,0,1-104.06,6.45l2-7.64a160.49,160.49,0,0,0,99.17-6.15l2.93-1.18,1.46-.59,1.43-.66,5.73-2.64,5.6-2.92c0.94-.47,1.85-1,2.76-1.54l2.73-1.59a159.73,159.73,0,0,0,53.82-52.33Z" transform="translate(-1088.48 -1505.6)"/><path class="cls-3" d="M1298.44,1657l2,1.24c0.68,0.41,1.28.93,1.93,1.39s1.28,0.93,1.89,1.44l1.76,1.6-1.48,1.59-1.67-1.52c-0.58-.48-1.2-0.91-1.8-1.37s-1.19-.93-1.83-1.32l-1.93-1.17Z" transform="translate(-1088.48 -1505.6)"/><path class="cls-3" d="M1237.88,1713.49a43.17,43.17,0,0,1-4.44-17.7l2.17-.07a41,41,0,0,0,4.22,16.81Z" transform="translate(-1088.48 -1505.6)"/><polygon class="cls-3" points="179.18 231.04 175.9 230.19 176.52 228.11 179.63 228.91 179.18 231.04"/><path class="cls-3" d="M1278.74,1737.48a24,24,0,0,1-3.37,0l0.06-2.17a22.28,22.28,0,0,0,3.21,0Z" transform="translate(-1088.48 -1505.6)"/><path class="cls-3" d="M1312.59,1718.34a43.37,43.37,0,0,1-18.93,15.74l-0.86-2a41.19,41.19,0,0,0,18-15Z" transform="translate(-1088.48 -1505.6)"/><path class="cls-3" d="M1319.87,1694.33a48.29,48.29,0,0,1-1.93,12.8l-2.08-.64a46.13,46.13,0,0,0,1.83-12.16h2.17Z" transform="translate(-1088.48 -1505.6)"/><path class="cls-3" d="M1283.3,1737a25.73,25.73,0,0,1-3.35.4l-0.17-2.17a24,24,0,0,0,3.18-.38Z" transform="translate(-1088.48 -1505.6)"/><path class="cls-3" d="M1237.67,1675.61l0.83-1.72c0.3-.56.65-1.09,1-1.64l1.87,1.11c-0.31.52-.64,1-0.93,1.56l-0.79,1.63Z" transform="translate(-1088.48 -1505.6)"/><polygon class="cls-3" points="146.95 175.54 148.26 171.95 150.27 172.8 149.02 176.2 146.95 175.54"/><path class="cls-3" d="M1260.64,1654.16a37.88,37.88,0,0,1,4.51-1.5l2.3-.59c0.77-.21,1.56-0.27,2.34-0.41l0.34,2.15c-0.74.13-1.5,0.18-2.22,0.38l-2.19.56a35.78,35.78,0,0,0-4.28,1.42Z" transform="translate(-1088.48 -1505.6)"/><path class="cls-3" d="M1300.74,1677.54a31.17,31.17,0,0,1,4,8,32.58,32.58,0,0,1,1.35,8.83h-3.27a29.35,29.35,0,0,0-1.2-7.85,27.92,27.92,0,0,0-3.52-7.11Z" transform="translate(-1088.48 -1505.6)"/><path class="cls-3" d="M1266.14,1666.89a29.53,29.53,0,0,1,13.8-1.76,30.15,30.15,0,0,1,13.07,4.79l-1.82,2.71a26.89,26.89,0,0,0-11.61-4.25,26.26,26.26,0,0,0-12.27,1.56Z" transform="translate(-1088.48 -1505.6)"/><path class="cls-3" d="M1248.51,1685.62a29.69,29.69,0,0,1,8.45-13.11l2.19,2.43a26.42,26.42,0,0,0-7.51,11.65Z" transform="translate(-1088.48 -1505.6)"/><path class="cls-3" d="M1249.63,1706.08a29.67,29.67,0,0,1-2.18-15.44l3.24,0.41a26.4,26.4,0,0,0,1.93,13.73Z" transform="translate(-1088.48 -1505.6)"/><path class="cls-3" d="M1253.4,1712.41a24.59,24.59,0,0,1-1.51-2.11l2.74-1.77a21.39,21.39,0,0,0,1.34,1.88Z" transform="translate(-1088.48 -1505.6)"/><path class="cls-3" d="M1262.91,1720.4c-0.77-.39-1.49-0.88-2.24-1.32l1.77-2.74c0.67,0.39,1.3.83,2,1.17Z" transform="translate(-1088.48 -1505.6)"/><path class="cls-3" d="M1293.78,1718.25a29.41,29.41,0,0,1-21.58,5.18l0.49-3.23a26.14,26.14,0,0,0,19.19-4.6Z" transform="translate(-1088.48 -1505.6)"/><path class="cls-3" d="M1306,1694.37a29.5,29.5,0,0,1-8.4,20.57l-2.34-2.28a26.22,26.22,0,0,0,7.47-18.28H1306Z" transform="translate(-1088.48 -1505.6)"/><path class="cls-3" d="M1288.62,1635.65a60,60,0,0,1,33.23,19.44l-2.32,2a56.89,56.89,0,0,0-31.53-18.45Z" transform="translate(-1088.48 -1505.6)"/><path class="cls-3" d="M1264.46,1635.69a61,61,0,0,1,16-1.1l-0.2,3.06a58,58,0,0,0-15.22,1Z" transform="translate(-1088.48 -1505.6)"/><path class="cls-3" d="M1252.06,1639.72a62.19,62.19,0,0,1,6.75-2.58l0.91,2.93a59.06,59.06,0,0,0-6.4,2.44Z" transform="translate(-1088.48 -1505.6)"/><path class="cls-3" d="M1216.86,1698.35A59.68,59.68,0,0,1,1229,1658l2.44,1.86a56.61,56.61,0,0,0-11.52,38.26Z" transform="translate(-1088.48 -1505.6)"/><path class="cls-3" d="M1224.68,1724.2a56.25,56.25,0,0,1-3.69-7.6,57.55,57.55,0,0,1-2.58-8l3-.72a54.48,54.48,0,0,0,2.44,7.63,53.21,53.21,0,0,0,3.5,7.21Z" transform="translate(-1088.48 -1505.6)"/><path class="cls-3" d="M1230.36,1732.43l-1.56-2c-0.51-.67-1-1.37-1.47-2l2.53-1.75c0.47,0.65.91,1.31,1.4,1.94l1.48,1.88Z" transform="translate(-1088.48 -1505.6)"/><path class="cls-3" d="M1239.86,1741.66c-1.34-1-2.61-2.13-3.85-3.26l2.08-2.26c1.18,1.07,2.39,2.13,3.66,3.09Z" transform="translate(-1088.48 -1505.6)"/><path class="cls-3" d="M1289.81,1752.8a60.29,60.29,0,0,1-31.41-1.35l0.93-2.93a57.23,57.23,0,0,0,29.8,1.28Z" transform="translate(-1088.48 -1505.6)"/><path class="cls-3" d="M1315.84,1739.63a56.62,56.62,0,0,1-7.17,5.34,57.42,57.42,0,0,1-7.89,4.22l-1.24-2.81a54.33,54.33,0,0,0,7.48-4,53.6,53.6,0,0,0,6.81-5.07Z" transform="translate(-1088.48 -1505.6)"/><path class="cls-3" d="M1336.53,1694.36a66.61,66.61,0,0,1-.66,8.92,64.4,64.4,0,0,1-2,8.73l-2.93-.9a61.37,61.37,0,0,0,1.88-8.28,63.56,63.56,0,0,0,.63-8.47h3.07Z" transform="translate(-1088.48 -1505.6)"/><path class="cls-3" d="M1170.44,1627.11a126,126,0,0,1,74.51-54.42l1.59,6.12a118.83,118.83,0,0,0-40.28,19.13,120.09,120.09,0,0,0-30.48,32.56Z" transform="translate(-1088.48 -1505.6)"/><path class="cls-3" d="M1150.93,1693.79a127.09,127.09,0,0,1,7.78-43.08l5.93,2.2a120.76,120.76,0,0,0-7.39,40.91Z" transform="translate(-1088.48 -1505.6)"/><path class="cls-3" d="M1158.32,1736.93a125.19,125.19,0,0,1-6.06-24.22l6.25-.91a118.88,118.88,0,0,0,5.75,23Z" transform="translate(-1088.48 -1505.6)"/><path class="cls-3" d="M1270.78,1819.92a134.05,134.05,0,0,1-18.94-2.31,123.84,123.84,0,0,1-35.75-13.07,128,128,0,0,1-16-10.46l3.85-5a121.75,121.75,0,0,0,15.16,9.93,117.52,117.52,0,0,0,33.94,12.41,127.74,127.74,0,0,0,18,2.19Z" transform="translate(-1088.48 -1505.6)"/><path class="cls-3" d="M1319.46,1812.57a126.5,126.5,0,0,1-27.2,6.5l-0.78-6.27a120.17,120.17,0,0,0,25.82-6.17Z" transform="translate(-1088.48 -1505.6)"/><path class="cls-3" d="M1402.33,1694.36a126.87,126.87,0,0,1-3.12,27.78l-6.17-1.39a120.55,120.55,0,0,0,3-26.39h6.32Z" transform="translate(-1088.48 -1505.6)"/><path class="cls-3" d="M1287,1701.13a13,13,0,0,0,1.63-3.3,13.75,13.75,0,0,0,.56-3.65h3a16.68,16.68,0,0,1-.69,4.54,16,16,0,0,1-2,4.12Z" transform="translate(-1088.48 -1505.6)"/><path class="cls-3" d="M1272.76,1705.53a12.2,12.2,0,0,0,5.7.73,12.51,12.51,0,0,0,5.39-2l1.66,2.48a15.5,15.5,0,0,1-6.73,2.46,15.19,15.19,0,0,1-7.1-.9Z" transform="translate(-1088.48 -1505.6)"/><path class="cls-3" d="M1265.48,1697.79a12.28,12.28,0,0,0,3.49,5.41l-2,2.22a15.27,15.27,0,0,1-4.34-6.74Z" transform="translate(-1088.48 -1505.6)"/><path class="cls-3" d="M1265.94,1689.34a12.27,12.27,0,0,0-.9,6.38l-3,.37a15.26,15.26,0,0,1,1.12-7.94Z" transform="translate(-1088.48 -1505.6)"/><path class="cls-3" d="M1267.5,1686.73a9.88,9.88,0,0,0-.62.87l-2.51-1.62a12.73,12.73,0,0,1,.77-1.09Z" transform="translate(-1088.48 -1505.6)"/><path class="cls-3" d="M1271.43,1683.43c-0.32.16-.61,0.37-0.92,0.54l-1.62-2.51c0.38-.23.75-0.48,1.15-0.68Z" transform="translate(-1088.48 -1505.6)"/><path class="cls-3" d="M1284.17,1684.32a12.14,12.14,0,0,0-8.91-2.14l-0.45-3a15.14,15.14,0,0,1,11.1,2.67Z" transform="translate(-1088.48 -1505.6)"/><path class="cls-3" d="M1289.24,1694.18a12.18,12.18,0,0,0-3.47-8.49l2.13-2.09a15.18,15.18,0,0,1,4.32,10.58h-3Z" transform="translate(-1088.48 -1505.6)"/></g></g></g></svg>