<svg preserveAspectRatio="none" id="Layer_1" data-name="Layer 1" xmlns="http://www.w3.org/2000/svg" viewBox="0 0 96.28 96.31"><defs><style>.cls-1{fill:#08ade5}.cls-2{fill:#feb113}.cls-3{fill:#065977}</style></defs><path class="cls-1" d="M654.73 138.56c-1.28 1.22-2.57 2.44-4 3.54l-1.12.86-.51.39-.24.17a.58.58 0 01-.14.1.4.4 0 01-.07-.1l-.2-.28-3.3-4.59-.41-.57a37.63 37.63 0 004.32-3.58l.77-.73h.08l.56.56 4 4 .24.24zM646.83 144.95c-1.48.93-3 1.82-4.55 2.6-.45.22-.89.45-1.35.66l-.58.26-.26.12a.61.61 0 01-.16.07.4.4 0 010-.11l-.14-.32-2.3-5.23-.28-.64c.8-.35 1.58-.73 2.36-1.11.47-.23.93-.5 1.39-.75s.83-.46 1.23-.72l.9-.56h.08l.43.78 3 4.71.18.28zM637.74 149.54c-1.24.46-2.5.91-3.78 1.26-.75.2-1.5.42-2.25.59l-1.49.32-1-4.72-.33-1.99c0-.07.17-.07.22-.08l1.25-.27c.8-.19 1.6-.4 2.38-.65s1.69-.55 2.52-.86h.09l.1.27.93 2.46 1.36 3.59zM627.91 152.12a42.15 42.15 0 01-5.64.51c-.19 0-2.16.06-2.16 0v-.56q0-2.83.07-5.66v-.6a30.19 30.19 0 003.29-.09c1.14-.1 2.28-.18 3.4-.37l.72 4.76.3 2z" transform="translate(-572.52 -56.35)"/><path class="cls-2" d="M608.16 137.22l.88-2.3.16-.42c0-.1.26 0 .33.08.89.34 1.81.62 2.73.87a29.83 29.83 0 003 .66c.77.13 1.53.22 2.31.32 1 .12 2 .12 2.93.15a21.79 21.79 0 002.21-.07 29.91 29.91 0 004.26-.54l.48 2.41.09.44v.06l-.55.1c-.92.15-1.84.3-2.77.39a33.63 33.63 0 01-5.19.13 34.76 34.76 0 01-5.3-.67 37.64 37.64 0 01-5.48-1.6zM584.25 115.68l2.35-.72.43-.13c.1 0 .11.2.14.27.3.92.62 1.82 1 2.71a34.07 34.07 0 002.57 5.06c.28.45.56.89.86 1.32s.59.88.92 1.29.61.81.93 1.2.68.8 1 1.2a34.35 34.35 0 003.77 3.64c.05 0 0 .11-.09.16l-.38.45-1 1.2-.4.48c-.49-.42-1-.83-1.46-1.28-.72-.67-1.41-1.36-2.08-2.07a37.36 37.36 0 01-3.91-4.94 36.74 36.74 0 01-2.91-5.24 42.69 42.69 0 01-1.74-4.61z" transform="translate(-572.52 -56.35)"/><path class="cls-1" d="M617.76 152.57l-1.5-.11c-.8-.06-1.59-.18-2.39-.28-1.29-.19-2.57-.44-3.85-.72l1.06-4.7.44-1.93c0-.07.18 0 .24 0 .43.09.86.2 1.3.27 1 .17 2 .33 3.07.45.16 0 2.05.19 2.05.18v.54l-.18 2.83-.21 3.47zM607.74 150.89c-1.32-.36-2.63-.79-3.91-1.27s-2.3-.93-3.44-1.43l2-4.37.83-1.79c0-.06.18 0 .23.07l1.21.53c.94.41 1.92.77 2.9 1.09.65.21 1.31.42 2 .6l-1.29 4.68-.54 1.93zM598.27 147.15a52.08 52.08 0 01-4.49-2.69c-.16-.11-2.14-1.49-2.12-1.52l.29-.39 3.41-4.51.41-.54a39.74 39.74 0 004.74 3.1l.9.5v.09l-.38.72-2.61 5-.15.29zM589.92 141.56a51.33 51.33 0 01-3.82-3.55l-1-1.08-.42-.48-.19-.22a.57.57 0 01-.11-.13.37.37 0 01.09-.08l.26-.23 4.26-3.71.53-.46c.57.66 1.17 1.29 1.77 1.92.37.38.75.74 1.14 1.1s.69.66 1.05 1l.81.69v.09l-.51.61-3.59 4.31-.22.26zM582.92 134.38l-.92-1.19c-.49-.63-.93-1.31-1.39-2s-.87-1.36-1.29-2c-.26-.42-.5-.87-.74-1.3l4.21-2.34 1.73-1c.06 0 .12.15.14.19.22.39.43.77.67 1.14.55.88 1.11 1.74 1.71 2.59.09.13 1.23 1.65 1.24 1.65l-.42.34-2.2 1.74-2.72 2.16z" transform="translate(-572.52 -56.35)"/><path class="cls-3" d="M654.73 138.56l-3.41-3.41-1.4-1.4v-.09l.49-.51c.64-.68 1.26-1.37 1.87-2.08a40.16 40.16 0 006-9.6 41.21 41.21 0 003.62-18c0-1-.08-2.08-.19-3.11s-.27-2.13-.45-3.19a40 40 0 00-3.58-10.92 41.34 41.34 0 00-77.45 27.21 40.46 40.46 0 003.2 9.15l-4.33 2.11-1.78.87a.77.77 0 01-.22-.38c-.19-.38-.36-.76-.53-1.15-.39-.9-.77-1.81-1.12-2.73A48.11 48.11 0 01582.64 75a48.4 48.4 0 0119.69-15 47.37 47.37 0 0111.57-3.14 50.52 50.52 0 015.78-.47h2.94c.94 0 1.88.08 2.81.19l.48.06v.3l-.14 1.25-.32 3a1.55 1.55 0 000 .52c.81.1 1.61.2 2.42.34a44.09 44.09 0 014.74 1.06 43.26 43.26 0 0110.53 4.61c.91.55 1.78 1.14 2.64 1.75s1.68 1.23 2.47 1.91 1.59 1.39 2.36 2.12c.4.38.78.76 1.15 1.16s.72.73 1.06 1.12c1.09 1.26 2.14 2.54 3.1 3.9a41.21 41.21 0 013.25 5.4A44.33 44.33 0 01662.9 96a42.06 42.06 0 01.74 5.6c.05.77.08 1.53.09 2.3v2.17l4.82.17h.25a3.27 3.27 0 010 .59c-.05.95-.12 1.9-.23 2.84a53.18 53.18 0 01-.88 5.31 48.13 48.13 0 01-4 11.16 46.84 46.84 0 01-6.21 9.38c-.57.66-1.14 1.32-1.74 2l-1 1.07z" transform="translate(-572.52 -56.35)"/><path class="cls-2" d="M648.48 132.31c1-1.06 2-2.13 2.92-3.27a37.7 37.7 0 003-4.38 39.29 39.29 0 004.6-11.37 39.94 39.94 0 00.87-11.9 39.34 39.34 0 00-2.71-11.56c-.38-1-.8-1.88-1.26-2.81a30.7 30.7 0 00-1.48-2.72c-.56-.9-1.14-1.78-1.74-2.65-.36-.52-.76-1-1.15-1.52a31.2 31.2 0 00-2-2.38c-.36-.38-.72-.78-1.1-1.14l-1.16-1.1a31.28 31.28 0 00-2.47-2.08q-1.26-1-2.59-1.85a38.66 38.66 0 00-9-4.35 39.11 39.11 0 00-5.7-1.44 42.32 42.32 0 00-6.1-.58 39 39 0 00-7.59.6A34.23 34.23 0 00609 67c-1.16.37-2.31.76-3.43 1.24s-2.15.95-3.19 1.49-1.89 1.06-2.81 1.64a34 34 0 00-4.08 3c-.66.56-1.31 1.13-1.93 1.73s-1.11 1.1-1.66 1.67a35.27 35.27 0 00-3.35 4.11 39 39 0 00-5.73 12 39.45 39.45 0 00-1.45 9.3c0 1.31 0 2.63.06 3.94a41.45 41.45 0 00.84 5.93 40 40 0 003.21 9.07 38.8 38.8 0 003.3 5.44q.94 1.31 2 2.54c.7.8 1.4 1.62 2.17 2.35s1.53 1.44 2.33 2.13 1.4 1.13 2.11 1.68c.2.16.42.3.63.44.44.3.87.61 1.32.9l1.33.83c.44.27.9.5 1.35.75a35.86 35.86 0 005.61 2.47 39.57 39.57 0 0023.6.78 41.91 41.91 0 005.67-2.06 36.79 36.79 0 005.4-3 37.29 37.29 0 003.8-2.86c.71-.61 1.38-1.23 2.06-1.88l.29-.28.12.08.48.48c-1.06 1-2.13 2-3.28 2.93a38.32 38.32 0 01-4.33 3 40.08 40.08 0 01-11.39 4.68 40.8 40.8 0 01-12 1 40.06 40.06 0 01-11.56-2.48 41.41 41.41 0 01-5.64-2.64 30.93 30.93 0 01-2.68-1.66c-.51-.36-1-.71-1.53-1.09-.84-.65-1.66-1.31-2.47-2s-1.6-1.45-2.34-2.23a43 43 0 01-4.08-4.93 40 40 0 01-7.17-20.35 38 38 0 01.4-9 39.91 39.91 0 012.02-7.39c.52-1.37 1.08-2.72 1.73-4 .41-.82.85-1.63 1.3-2.43s1.05-1.72 1.63-2.54 1.11-1.53 1.69-2.28 1-1.2 1.51-1.78c.34-.4.72-.77 1.08-1.15.21-.22.42-.44.64-.65.65-.62 1.31-1.24 2-1.82s1.34-1.11 2-1.65a38.44 38.44 0 014.84-3.12 37.45 37.45 0 016.72-2.92 39.26 39.26 0 017.36-1.67c1.51-.18 3-.3 4.54-.33a38 38 0 015.25.25 40.67 40.67 0 015.81 1.1 48.58 48.58 0 014.66 1.55c.48.18 1 .41 1.42.61a28.81 28.81 0 012.82 1.39c.92.53 1.84 1.05 2.73 1.64s1.74 1.2 2.58 1.85a42 42 0 014.69 4.34 33.89 33.89 0 013.23 3.93 41.51 41.51 0 013.27 5.41 42.44 42.44 0 012.31 5.64 40.08 40.08 0 011.94 11.61 40.67 40.67 0 01-1.6 12 40 40 0 01-5.15 11.11 38 38 0 01-2.44 3.26c-.81 1-1.67 1.88-2.53 2.79l-.58-.58z" transform="translate(-572.52 -56.35)"/><path class="cls-3" d="M597.73 134.92l2.95-3.89.31-.41a23.61 23.61 0 002.07 1.44 31.18 31.18 0 002.71 1.56c.78.38 1.55.74 2.35 1.09.11 0 .11 0 .07.13l-.18.43-1 2.55v.09a1.92 1.92 0 00.33.14l1.23.46c.85.32 1.73.58 2.61.82a35.78 35.78 0 005.57 1.07 34.52 34.52 0 006.17.15c1.11-.08 2.22-.16 3.32-.35.83-.14 1.65-.29 2.48-.47l-.75-3.33a25 25 0 002.42-.64c.94-.31 1.9-.6 2.81-1s1.77-.8 2.64-1.22c.48-.24.95-.52 1.41-.78.91-.51 1.77-1.12 2.63-1.71a30.33 30.33 0 002.41-1.92c.35-.3.68-.61 1-.92l.43-.41a.78.78 0 01.18-.17.47.47 0 01.11.11l.3.3 3.41 3.41c-.55.52-1.08 1.07-1.67 1.56l-1.11 1c-.39.33-.8.63-1.2.94a35.65 35.65 0 01-5 3.18 37.79 37.79 0 01-11.57 4q-1.83.31-3.68.44c-.91.06-1.82.11-2.73.11h-2l-1.57-.11c-.54 0-1.07-.12-1.6-.18a30.44 30.44 0 01-3.1-.55 39.34 39.34 0 01-5.74-1.75 37.27 37.27 0 01-5.13-2.48 34.66 34.66 0 01-3.86-2.56z" transform="translate(-572.52 -56.35)"/><path class="cls-1" d="M656 112.6q-.33 1.43-.77 2.84l-2.85-.9-.49-.15A32.82 32.82 0 00650.48 91c-.32-.7-.65-1.4-1-2.07 0-.06-.17.06-.22.08l-.58.32-1.29.7a.81.81 0 01-.21.1l-.39-.69a30 30 0 00-3.45-4.8 29 29 0 00-4.56-4.23 28.33 28.33 0 00-2.6-1.76c-.86-.51-1.76-1-2.65-1.42s-1.89-.8-2.84-1.17-1.88-.62-2.85-.84c-.66-.14-1.31-.29-2-.4l.44-2.56a33.24 33.24 0 00-11 0 26.92 26.92 0 00-2.64.55 4.2 4.2 0 01-.65.16l-.12-.42-.4-1.46-.09-.34s-.78.22-.86.24c-.94.3-1.87.62-2.79 1s-1.75.75-2.6 1.17a33.74 33.74 0 00-5.17 3.16 35.33 35.33 0 00-8.62 9.14 35.75 35.75 0 00-2.71 5c-.32.72-.59 1.45-.87 2.19l-.1.26a.73.73 0 00-.07.21h.09l.55.19 1.38.47c.1 0 .18 0 .14.13-.11.34-.23.68-.33 1a32.38 32.38 0 00-1.13 5.24 32.74 32.74 0 00.48 11.31c.08.38.16.76.27 1.14l-3.38.87c-.1-.39-.2-.79-.28-1.19a38.38 38.38 0 01-.77-5.46c-.09-1.21-.08-2.42-.06-3.63a36.29 36.29 0 011.33-8.57 35.87 35.87 0 015.28-11.06 32.63 32.63 0 013.08-3.79c.5-.52 1-1 1.53-1.54s1.18-1.07 1.78-1.59a31.17 31.17 0 013.76-2.75c.84-.53 1.7-1 2.58-1.51s1.94-.95 2.93-1.37 2.09-.8 3.16-1.14a32 32 0 014.41-1.07 36 36 0 017-.55 38.85 38.85 0 015.61.54 36.09 36.09 0 015.25 1.33 35.62 35.62 0 018.27 4q1.23.81 2.39 1.71a29 29 0 012.27 1.92l1.07 1c.35.33.67.7 1 1.05.66.7 1.29 1.43 1.88 2.19.36.46.72.92 1.06 1.4.56.8 1.09 1.61 1.6 2.44a27.65 27.65 0 011.36 2.5c.42.85.81 1.7 1.16 2.58a36.13 36.13 0 012.5 10.65 36.9 36.9 0 01-.81 11.04z" transform="translate(-572.52 -56.35)"/><path class="cls-3" d="M657 116l-1.08-.34c.08-.26.16-.51.23-.77a37.49 37.49 0 001.47-11.09 36.87 36.87 0 00-1.79-10.69 39.63 39.63 0 00-2.13-5.19 38.26 38.26 0 00-3-5 31.17 31.17 0 00-3-3.62 38.43 38.43 0 00-4.37-4q-1.16-.9-2.38-1.71c-.82-.54-1.66-1-2.51-1.51a26.71 26.71 0 00-2.61-1.3c-.43-.19-.87-.4-1.31-.57a45.1 45.1 0 00-4.29-1.43 37.87 37.87 0 00-5.35-1 35.21 35.21 0 00-4.84-.23c-1.4 0-2.79.14-4.18.31a36 36 0 00-6.78 1.54 34.33 34.33 0 00-6.18 2.68 34.94 34.94 0 00-4.43 2.92c-.64.49-1.27 1-1.88 1.52s-1.23 1.11-1.83 1.68c-.2.19-.4.39-.59.6s-.68.69-1 1.06c-.47.54-1 1.08-1.39 1.64s-1.06 1.38-1.56 2.1a27.65 27.65 0 00-1.5 2.34c-.41.74-.82 1.48-1.19 2.24-.6 1.21-1.12 2.45-1.59 3.72a36.74 36.74 0 00-1.78 6.88 34.94 34.94 0 00-.37 8.26 38.46 38.46 0 001.07 6.73l-.62.16a1.76 1.76 0 01-.5.1c-.22-.79-.4-1.61-.54-2.42-.17-1-.31-2-.43-2.95s-.16-1.75-.19-2.63a38.32 38.32 0 011.29-11.38 38 38 0 0113.28-20.06 39.8 39.8 0 015.29-3.5 37.52 37.52 0 015.73-2.52 38.05 38.05 0 0112-2.1A38.48 38.48 0 01631.59 68a37.8 37.8 0 0111 5.33 38.2 38.2 0 018 7.62c.63.82 1.24 1.65 1.82 2.5s1.12 1.79 1.63 2.71 1 1.87 1.41 2.84.79 1.92 1.16 2.89.64 2 .92 3 .49 2 .66 3.07a36.81 36.81 0 01.54 5.13 42.88 42.88 0 01-.23 5.83 37.26 37.26 0 01-1.09 5.6c-.11.48-.25 1-.41 1.48z" transform="translate(-572.52 -56.35)"/><path class="cls-2" d="M650.89 130.92l-3-2.66-4.22-3.7-.38-.34c-.06-.05.11-.18.15-.22.31-.37.62-.73.91-1.11a30.45 30.45 0 003.21-5.11 22.34 22.34 0 001-2.2l3.75 1.49 5.21 2.07.47.19a.47.47 0 01-.1.35l-.49 1.12c-.4.92-.84 1.84-1.33 2.72l-.76 1.37-.84 1.35a38.81 38.81 0 01-3.53 4.67zm-1.89-5.73a3.55 3.55 0 002.35.72 2.82 2.82 0 002.32-1.52 2.86 2.86 0 00-.11-2.68 3.87 3.87 0 00-2.37-1.75c-1.35-.36-3.24-.06-3.74 1.45a3.61 3.61 0 001.55 3.78zM619.74 107.19a1.2 1.2 0 110-1.7 1.2 1.2 0 010 1.7zM603.07 123.74a1.14 1.14 0 110-1.62 1.14 1.14 0 010 1.62zM595.38 107.45a1.14 1.14 0 111.14-1.14 1.14 1.14 0 01-1.14 1.14zM601.46 90.5a1.14 1.14 0 111.62 0 1.14 1.14 0 01-1.62 0zM634.69 88.88a1.14 1.14 0 110 1.62 1.14 1.14 0 010-1.62zM642.38 105.16a1.14 1.14 0 11-1.14 1.14 1.14 1.14 0 011.14-1.14zM636.31 122.12a1.14 1.14 0 11-1.62 0 1.14 1.14 0 011.62 0zM598.93 118.78a1.14 1.14 0 11.44-1.56 1.14 1.14 0 01-.44 1.56zM596 101a1.14 1.14 0 111.41-.79 1.14 1.14 0 01-1.41.79zM638.84 93.84a1.14 1.14 0 11-.44 1.56 1.14 1.14 0 01.44-1.56zM641.81 111.6a1.14 1.14 0 11-1.41.79 1.14 1.14 0 011.41-.79zM596.43 113.36a1.14 1.14 0 11.82-1.4 1.14 1.14 0 01-.82 1.4zM598 95.42a1.14 1.14 0 111.57-.41 1.14 1.14 0 01-1.57.41zM641.33 99.25a1.14 1.14 0 11-.82 1.4 1.14 1.14 0 01.82-1.4zM639.74 117.19a1.14 1.14 0 11-1.57.41 1.14 1.14 0 011.57-.41z" transform="translate(-572.52 -56.35)"/><path class="cls-3" d="M605.78 87.87a20.06 20.06 0 0126.43 0l1.54-1.54a22.24 22.24 0 00-29.52 0zM632.07 124.73a20.06 20.06 0 01-26.43 0l-1.54 1.54a22.24 22.24 0 0029.52 0z" transform="translate(-572.52 -56.35)"/><path class="cls-1" transform="rotate(-44.98 258.729 775.424)" d="M608.4 111.77h9.35v.77h-9.35z"/><path class="cls-1" transform="rotate(-45 270.39 763.47)" d="M620.01 100.16h9.35v.77h-9.35z"/><path class="cls-1" transform="rotate(-45 258.861 763.546)" d="M612.76 95.95h.77v9.35h-.77z"/><path class="cls-1" transform="rotate(-44.97 270.33 775.59)" d="M624.29 107.48h.77v9.35h-.77z"/><path class="cls-2" d="M46.13 40.71h.45v6.57h-.45zM46.13 52.72h.45v6.57h-.45zM37.06 49.78h6.57v.45h-6.57zM49.07 49.78h6.57v.45h-6.57z"/><path class="cls-3" d="M43.96 54.89l2.39-2.39 2.4 2.39h-4.79zM48.75 45.1l-2.4 2.4-2.39-2.4h4.79zM51.25 52.39L48.85 50l2.4-2.4v4.79zM41.46 47.6l2.39 2.4-2.39 2.39V47.6z"/></svg>