<svg preserveAspectRatio="none" id="Layer_1" data-name="Layer 1" xmlns="http://www.w3.org/2000/svg" viewBox="0 0 102.39 102.4"><defs><style>.cls-1{fill:#feb113;}.cls-2{fill:#08ade5;}.cls-3{fill:#065977;}</style></defs><title>circle38</title><path class="cls-1" d="M825.28,90.46c0.13-.61.34-1.22,0.51-1.82,0.23-.81.5-1.6,0.77-2.39,0.48-1.39,1-2.74,1.64-4.08l4.69,2.12,1.92,0.87a0.91,0.91,0,0,1-.17.46c-0.2.45-.39,0.9-0.57,1.36-0.4,1-.79,2.06-1.11,3.11-0.13.42-.24,0.84-0.36,1.27s-0.18.59-.24,0.89l-5-1.26-2.08-.53h0Z" transform="translate(-822.49 -51.55)"/><path class="cls-1" d="M829.35,79.78a45.62,45.62,0,0,1,3-5.05c0.54-.79,1.1-1.58,1.69-2.33a1,1,0,0,1,.37.25l4.78,3.67,0.65,0.5a39.27,39.27,0,0,0-4,6.33l-4.57-2.37-1.9-1h0Z" transform="translate(-822.49 -51.55)"/><path class="cls-1" d="M835.73,70.31c1.22-1.4,2.49-2.73,3.83-4,0.72-.68,1.47-1.33,2.22-2,0.09-.08.16-0.22,0.25-0.12l0.19,0.24L846,69.09l0.58,0.7c-0.74.58-1.44,1.22-2.12,1.87S843,73.17,842.23,74c-0.3.31-.57,0.65-0.86,1,0,0.05-.08.15-0.14,0.1l-0.57-.49-4.58-3.92-0.35-.3h0Z" transform="translate(-822.49 -51.55)"/><path class="cls-2" d="M884.47,137.08l-0.79-2.51-0.14-.45c0-.08,0-0.06.11-0.09l0.82-.28c1-.37,2.07-0.79,3.07-1.25a31.14,31.14,0,0,0,3.74-2.06c1-.67,2-1.4,3-2.17a32,32,0,0,0,3.47-3.25c0.19-.2,1.91-2.18,1.87-2.2l2.49,1.93a38,38,0,0,1-5.56,5.75,36.34,36.34,0,0,1-12.11,6.58h0Z" transform="translate(-822.49 -51.55)"/><path class="cls-1" d="M844.08,62.54l1.36-1c0.74-.52,1.52-1,2.29-1.49,1.26-.75,2.55-1.45,3.86-2.11l2.28,4.61,0.94,1.89c0,0.07-.14.11-0.19,0.13l-1.23.63c-1,.51-1.89,1.09-2.81,1.68-0.73.47-1.44,1-2.15,1.48a1.13,1.13,0,0,1-.27-0.33l-1.7-2.31-2.37-3.21h0Z" transform="translate(-822.49 -51.55)"/><path class="cls-1" d="M854,56.86a50.09,50.09,0,0,1,8.36-2.73l1.16,5L864,61.19a0.12,0.12,0,0,1,0,0l-0.84.2q-0.81.2-1.6,0.44-1.59.47-3.15,1.06-0.78.3-1.54,0.62a0.39,0.39,0,0,1-.05-0.12l-0.37-.85-1.28-3L854,56.86h0Z" transform="translate(-822.49 -51.55)"/><path class="cls-2" d="M923.2,96.35s0-.11,0-0.17a0.48,0.48,0,0,1,0-.07Z" transform="translate(-822.49 -51.55)"/><path class="cls-2" d="M923.23,96.54l0-.16Z" transform="translate(-822.49 -51.55)"/><path class="cls-2" d="M920.79,103.87A46,46,0,0,1,918,118.75a47.12,47.12,0,0,1-6.5,12.11,48,48,0,0,1-9.38,9.46,47.06,47.06,0,0,1-53.12,2.6,47.34,47.34,0,0,1-17.74-19.58A46.8,46.8,0,0,1,827.12,110c-0.19-1.25-.34-2.51-0.43-3.77s-0.17-2.43-.14-3.63c0-.83,0-1.68.08-2.51,0.09-1.22.19-2.43,0.35-3.65,0.12-1,.29-1.91.46-2.86,0,0,0,0,0,0l2,0.39h0.07L829.78,94s0,0,0,0c-0.16.9-.32,1.8-0.44,2.71-0.15,1.15-.25,2.3-0.33,3.46-0.06.79-.05,1.59-0.08,2.38,0,1.14.05,2.3,0.13,3.44s0.22,2.39.41,3.58a44.48,44.48,0,0,0,11.11,23.2,44.91,44.91,0,0,0,9.67,8,44.46,44.46,0,0,0,12,5.14,45.17,45.17,0,0,0,27.1-1.37,44.45,44.45,0,0,0,11.3-6.24,45.51,45.51,0,0,0,8.9-9,44.75,44.75,0,0,0,6.16-11.48,43.63,43.63,0,0,0,2.63-14.12,44.41,44.41,0,0,0-.4-7.12c-0.17-1.17-.37-2.33-0.61-3.49s-0.55-2.24-.87-3.35A42.78,42.78,0,0,0,914.27,84a45.73,45.73,0,0,0-3.4-6.05c-0.64-1-1.37-2-2.11-2.88s-1.48-1.83-2.29-2.68a49,49,0,0,0-5.14-4.75A44.49,44.49,0,0,0,889.8,61a46.6,46.6,0,0,0-6.29-1.9,45.15,45.15,0,0,0-17.66-.39h0q-0.21-1.19-.42-2.37a46.23,46.23,0,0,1,11.6-.6,46.86,46.86,0,0,1,7,1,49.09,49.09,0,0,1,6.63,2,46.81,46.81,0,0,1,12.16,6.94,51.64,51.64,0,0,1,5.42,5c0.85,0.9,1.65,1.86,2.42,2.83s1.54,2,2.22,3A47.8,47.8,0,0,1,916.46,83a45.48,45.48,0,0,1,2.35,6.18c0.33,1.17.66,2.34,0.92,3.53s0.46,2.45.64,3.68A47.06,47.06,0,0,1,920.79,103.87Z" transform="translate(-822.49 -51.55)"/><path class="cls-2" d="M920.79,103.87A46,46,0,0,1,918,118.75a47.12,47.12,0,0,1-6.5,12.11,48,48,0,0,1-9.38,9.46,47.06,47.06,0,0,1-53.12,2.6,47.34,47.34,0,0,1-17.74-19.58A46.8,46.8,0,0,1,827.12,110c-0.19-1.25-.34-2.51-0.43-3.77s-0.17-2.43-.14-3.63c0-.83,0-1.68.08-2.51,0.09-1.22.19-2.43,0.35-3.65,0.12-1,.29-1.91.46-2.86,0,0,0,0,0,0l2,0.39h0.07a1.61,1.61,0,0,1,.34.07s0,0,0,0c-0.16.9-.32,1.8-0.44,2.71-0.15,1.15-.25,2.3-0.33,3.46-0.06.79-.05,1.59-0.08,2.38,0,1.14.05,2.3,0.13,3.44s0.22,2.39.41,3.58a44.48,44.48,0,0,0,11.11,23.2,44.91,44.91,0,0,0,9.67,8,44.46,44.46,0,0,0,12,5.14,45.17,45.17,0,0,0,27.1-1.37,44.45,44.45,0,0,0,11.3-6.24,45.51,45.51,0,0,0,8.9-9,44.75,44.75,0,0,0,6.16-11.48,43.63,43.63,0,0,0,2.63-14.12,44.41,44.41,0,0,0-.4-7.12c-0.17-1.17-.37-2.33-0.61-3.49s-0.55-2.24-.87-3.35A42.78,42.78,0,0,0,914.27,84a45.73,45.73,0,0,0-3.4-6.05c-0.64-1-1.37-2-2.11-2.88s-1.48-1.83-2.29-2.68a49,49,0,0,0-5.14-4.75A44.49,44.49,0,0,0,889.8,61a46.6,46.6,0,0,0-6.29-1.9,45.15,45.15,0,0,0-17.66-.39h0q-0.21-1.19-.42-2.37a46.23,46.23,0,0,1,11.6-.6,46.86,46.86,0,0,1,7,1,49.09,49.09,0,0,1,6.63,2,46.81,46.81,0,0,1,12.16,6.94,51.64,51.64,0,0,1,5.42,5c0.85,0.9,1.65,1.86,2.42,2.83s1.54,2,2.22,3A47.8,47.8,0,0,1,916.46,83a45.48,45.48,0,0,1,2.35,6.18c0.33,1.17.66,2.34,0.92,3.53s0.46,2.45.64,3.68A47.06,47.06,0,0,1,920.79,103.87Z" transform="translate(-822.49 -51.55)"/><path class="cls-3" d="M924,112.31a51.05,51.05,0,0,1-11.12,23.39,51.88,51.88,0,0,1-9,8.41,50.68,50.68,0,0,1-23.7,9.42,51.82,51.82,0,0,1-14-.13,50.75,50.75,0,0,1-12.53-3.52A51.15,51.15,0,0,1,823.32,112a52.2,52.2,0,0,1-.82-10.87c0-1.13.12-2.26,0.21-3.39,0.13-1.67.44-3.33,0.73-5L824.29,93,824.7,93c-0.29,1.61-.59,3.23-0.72,4.87-0.08,1.1-.17,2.2-0.2,3.31a51.1,51.1,0,0,0,.79,10.6,49.72,49.72,0,0,0,10.31,22.38,50.09,50.09,0,0,0,19.24,14.52,49.55,49.55,0,0,0,12.22,3.44,50.66,50.66,0,0,0,13.65.13,49.48,49.48,0,0,0,23.11-9.19,50.49,50.49,0,0,0,8.79-8.2,49.88,49.88,0,0,0,10.84-22.81,51.29,51.29,0,0,0,.69-13.67q-0.1-1.11-.25-2.22l0-.21c0-.15,0-0.31-0.06-0.44s0,0,0,.06a49.37,49.37,0,0,0-1.31-6.25c-0.31-1.1-.66-2.18-1-3.26s-0.69-1.95-1.11-2.88-0.75-1.69-1.17-2.53c-0.5-1-1-2-1.58-2.94a46,46,0,0,0-3.78-5.6,48.14,48.14,0,0,0-4.53-5.08,55.11,55.11,0,0,0-5-4.32,49.89,49.89,0,0,0-11.08-6.26,48.56,48.56,0,0,0-12.1-3.2c-1.08-.14-2.16-0.25-3.24-0.33s-1.91-.1-2.86-0.12c-1.52,0-3,0-4.56.16-1.09.08-2.17,0.22-3.25,0.36-0.46.06-.91,0.14-1.36,0.22-0.12,0-.16,0-0.14.1v0l-0.22-1.21h0c0-.11,0-0.07.15-0.09,0.47-.08.93-0.17,1.4-0.23,1.11-.14,2.22-0.28,3.33-0.37,1.56-.12,3.12-0.19,4.68-0.16,1,0,2,0,2.93.12s2.22,0.19,3.32.33a49.81,49.81,0,0,1,12.41,3.28,50.77,50.77,0,0,1,11.37,6.43,56,56,0,0,1,5.16,4.42,49.63,49.63,0,0,1,4.65,5.21A48,48,0,0,1,918,77.1c0.57,1,1.11,2,1.62,3,0.42,0.85.8,1.72,1.2,2.59s0.8,2,1.14,3S922.69,87.88,923,89a49.55,49.55,0,0,1,1.31,6.21s0-.06,0-0.09l0.13,1a0.75,0.75,0,0,0,0,.09c0.09,0.71.17,1.41,0.23,2.12A52.47,52.47,0,0,1,924,112.31Z" transform="translate(-822.49 -51.55)"/><path class="cls-3" d="M924,112.31a51.05,51.05,0,0,1-11.12,23.39,51.88,51.88,0,0,1-9,8.41,50.68,50.68,0,0,1-23.7,9.42,51.82,51.82,0,0,1-14-.13,50.75,50.75,0,0,1-12.53-3.52A51.15,51.15,0,0,1,823.32,112a52.2,52.2,0,0,1-.82-10.87c0-1.13.12-2.26,0.21-3.39,0.13-1.67.44-3.33,0.73-5h0L824.29,93,824.7,93c-0.29,1.61-.59,3.23-0.72,4.87-0.08,1.1-.17,2.2-0.2,3.31a51.1,51.1,0,0,0,.79,10.6,49.72,49.72,0,0,0,10.31,22.38,50.09,50.09,0,0,0,19.24,14.52,49.55,49.55,0,0,0,12.22,3.44,50.66,50.66,0,0,0,13.65.13,49.48,49.48,0,0,0,23.11-9.19,50.49,50.49,0,0,0,8.79-8.2,49.88,49.88,0,0,0,10.84-22.81,51.29,51.29,0,0,0,.69-13.67q-0.1-1.11-.25-2.22l0-.21c0-.15,0-0.31-0.06-0.44s0,0,0,.06a49.37,49.37,0,0,0-1.31-6.25c-0.31-1.1-.66-2.18-1-3.26s-0.69-1.95-1.11-2.88-0.75-1.69-1.17-2.53c-0.5-1-1-2-1.58-2.94a46,46,0,0,0-3.78-5.6,48.14,48.14,0,0,0-4.53-5.08,55.11,55.11,0,0,0-5-4.32,49.89,49.89,0,0,0-11.08-6.26,48.56,48.56,0,0,0-12.1-3.2c-1.08-.14-2.16-0.25-3.24-0.33s-1.91-.1-2.86-0.12c-1.52,0-3,0-4.56.16-1.09.08-2.17,0.22-3.25,0.36-0.46.06-.91,0.14-1.36,0.22-0.12,0-.16,0-0.14.1v0l-0.22-1.21h0c0-.11,0-0.07.15-0.09,0.47-.08.93-0.17,1.4-0.23,1.11-.14,2.22-0.28,3.33-0.37,1.56-.12,3.12-0.19,4.68-0.16,1,0,2,0,2.93.12s2.22,0.19,3.32.33a49.81,49.81,0,0,1,12.41,3.28,50.77,50.77,0,0,1,11.37,6.43,56,56,0,0,1,5.16,4.42,49.63,49.63,0,0,1,4.65,5.21A48,48,0,0,1,918,77.1c0.57,1,1.11,2,1.62,3,0.42,0.85.8,1.72,1.2,2.59s0.8,2,1.14,3S922.69,87.88,923,89a49.55,49.55,0,0,1,1.31,6.21s0-.06,0-0.09l0.13,1a0.75,0.75,0,0,0,0,.09c0.09,0.71.17,1.41,0.23,2.12A52.47,52.47,0,0,1,924,112.31Z" transform="translate(-822.49 -51.55)"/><path class="cls-1" d="M873.68,62.26a41.06,41.06,0,0,0-13,2.13,40.2,40.2,0,0,0-11.48,6.09,40.94,40.94,0,0,0-8.54,8.81A40.2,40.2,0,0,0,835,90.62a39.53,39.53,0,0,0-1.81,10.69,38.81,38.81,0,0,0,.21,5.89,40.26,40.26,0,0,0,1.1,5.92c0.22,0.77.43,1.55,0.69,2.31a40.81,40.81,0,0,0,4.28,9,42.31,42.31,0,0,0,5.26,6.64,40.32,40.32,0,0,0,5,4.31,37.41,37.41,0,0,0,5.14,3.21c0.76,0.39,1.52.76,2.3,1.12s1.3,0.56,2,.82a41.94,41.94,0,0,0,6.3,1.86,43,43,0,0,0,6.2.79c0.62,0,1.26,0,1.88,0,1.16,0,2.32,0,3.47-.14a40.21,40.21,0,0,0,20.84-7.84,39.76,39.76,0,0,0,7.44-7.17,40.33,40.33,0,0,0,6-10.33,40.44,40.44,0,0,0,2.63-19.55,40.37,40.37,0,0,0-1.2-6.24,44.69,44.69,0,0,0-1.55-4.53,39.28,39.28,0,0,0-2.85-5.67c-0.64-1.08-1.37-2.1-2.1-3.12-0.36-.51-0.76-1-1.16-1.48-0.52-.64-1.06-1.28-1.63-1.88s-1.33-1.38-2-2-1.16-1.05-1.76-1.57A37.25,37.25,0,0,0,894.48,68a40.26,40.26,0,0,0-17.84-5.63q-1.37-.1-2.75-0.12c-0.13,0-.21,0-0.21-0.08v-0.8a41.19,41.19,0,0,1,24,7.7c0.67,0.48,1.32,1,2,1.5s1.16,1,1.74,1.48,1.27,1.18,1.86,1.8a40.2,40.2,0,0,1,2.94,3.36c0.78,1,1.54,2.05,2.24,3.13,0.59,0.92,1.18,1.86,1.68,2.83,0.32,0.62.66,1.24,0.95,1.88l0.58,1.3c0.37,0.83.69,1.68,1,2.54A41.2,41.2,0,0,1,915,101.34a41.83,41.83,0,0,1-.27,6.35q-0.19,1.58-.5,3.14c-0.15.76-.3,1.53-0.51,2.28-0.28,1-.57,2-0.9,3a37.56,37.56,0,0,1-1.38,3.52,41.29,41.29,0,0,1-6.4,10.09,42.17,42.17,0,0,1-8.59,7.58c-0.8.53-1.63,1-2.46,1.51-1.27.73-2.59,1.35-3.92,2s-2.45,1-3.7,1.39a37.72,37.72,0,0,1-4.31,1.14A40,40,0,0,1,871,144a42.52,42.52,0,0,1-6.45-.93,41.41,41.41,0,0,1-5.88-1.8,40.32,40.32,0,0,1-4.3-2,41.82,41.82,0,0,1-10.46-7.89,43.63,43.63,0,0,1-5.15-6.57,41.28,41.28,0,0,1,.57-45.1,41.82,41.82,0,0,1,8.18-9,41.15,41.15,0,0,1,11.2-6.56,41.72,41.72,0,0,1,12.84-2.76q1.09-.06,2.18-0.06v0.88h0Z" transform="translate(-822.49 -51.55)"/><path class="cls-3" d="M873.68,142V136.8a3.85,3.85,0,0,1,0-.55c0.76,0,1.52,0,2.28-.09a31.3,31.3,0,0,0,3.2-.37,30,30,0,0,0,3.09-.66l0.58-.17,0.7,2.47,0.29,1c0,0.06,2.13-.65,2.34-0.73a36.9,36.9,0,0,0,9.78-5.27,37.51,37.51,0,0,0,4.2-3.67q1-1,1.88-2.06c0.15-.17,1.69-2.08,1.65-2.11l-2.13-1.55-0.81-.59s1.13-1.66,1.23-1.81a33,33,0,0,0,2.89-5.69,30.9,30.9,0,0,0,1.65-5.55,32.09,32.09,0,0,0,.63-5.28c0-.92,0-1.84,0-2.77q-0.07-1.68-.3-3.34a33.82,33.82,0,0,0-4.26-12.24,32.73,32.73,0,0,0-5.79-7.3,33.79,33.79,0,0,0-10.67-6.88,33.73,33.73,0,0,0-25.44.22,33.49,33.49,0,0,0-20.47,29.32,35.15,35.15,0,0,0,.36,6.76c0.16,0.89.33,1.77,0.53,2.65a31.72,31.72,0,0,0,.92,3.14,32.92,32.92,0,0,0,6.21,10.81,34,34,0,0,0,9.75,7.82,31.49,31.49,0,0,0,3,1.4,27.37,27.37,0,0,0,2.86,1c1,0.29,2.09.58,3.15,0.8s2.09,0.35,3.14.48,2,0.14,3,.17a1.86,1.86,0,0,1,.5,0V142a40,40,0,0,1-13.39-2.36,41.69,41.69,0,0,1-4.65-2c-1.21-.62-2.37-1.33-3.52-2.06a35.92,35.92,0,0,1-4.2-3.2,38.26,38.26,0,0,1-3.76-3.75,39.34,39.34,0,0,1-7.19-12,30.7,30.7,0,0,1-1-2.94c-0.33-1.16-.64-2.33-0.85-3.52-0.14-.76-0.27-1.52-0.37-2.29-0.12-1-.21-2-0.28-2.94a38.27,38.27,0,0,1,0-3.91c0-.91.1-1.83,0.21-2.74a40.79,40.79,0,0,1,1.17-6,40.3,40.3,0,0,1,2.47-6.57A39,39,0,0,1,841.67,80c0.87-1.22,1.81-2.36,2.78-3.49,0.59-.68,1.22-1.33,1.87-1.94s1.58-1.48,2.41-2.17a44.11,44.11,0,0,1,4.3-3.08c0.85-.55,1.75-1,2.65-1.5a34.75,34.75,0,0,1,4.7-2.06c0.92-.31,1.85-0.61,2.79-0.88a37.54,37.54,0,0,1,6.46-1.22,40.26,40.26,0,0,1,9.17.12,36.48,36.48,0,0,1,5.34,1.08,37.79,37.79,0,0,1,5.25,1.86c0.78,0.35,1.55.72,2.32,1.11a38,38,0,0,1,4.82,2.95,40.94,40.94,0,0,1,5,4.22,37.34,37.34,0,0,1,3.9,4.57,43,43,0,0,1,3.54,5.84A42,42,0,0,1,911,90.64c0.25,0.73.44,1.47,0.65,2.21,0.29,1,.47,2.07.67,3.11a26.12,26.12,0,0,1,.39,2.83c0.09,1.16.16,2.32,0.19,3.49a37.17,37.17,0,0,1-.6,7.37A38.8,38.8,0,0,1,907.89,122a39.61,39.61,0,0,1-7.46,9.46,39.12,39.12,0,0,1-10.68,7.11,39.57,39.57,0,0,1-12.7,3.28q-1.68.15-3.37,0.15h0Z" transform="translate(-822.49 -51.55)"/><path class="cls-1" d="M872.41,76.52a1.28,1.28,0,1,1,1.28,1.28,1.28,1.28,0,0,1-1.28-1.28h0Z" transform="translate(-822.49 -51.55)"/><path class="cls-1" d="M891.33,83.3a1.28,1.28,0,1,1,0,1.81,1.28,1.28,0,0,1,0-1.81h0Z" transform="translate(-822.49 -51.55)"/><path class="cls-1" d="M899.92,101.47a1.28,1.28,0,1,1-1.28,1.28,1.28,1.28,0,0,1,1.28-1.28h0Z" transform="translate(-822.49 -51.55)"/><path class="cls-1" d="M893.14,120.4a1.28,1.28,0,1,1-1.81,0,1.28,1.28,0,0,1,1.81,0h0Z" transform="translate(-822.49 -51.55)"/><path class="cls-1" d="M875,129a1.28,1.28,0,1,1-1.28-1.28A1.28,1.28,0,0,1,875,129h0Z" transform="translate(-822.49 -51.55)"/><path class="cls-1" d="M856,122.2a1.28,1.28,0,1,1,0-1.81,1.28,1.28,0,0,1,0,1.81h0Z" transform="translate(-822.49 -51.55)"/><path class="cls-1" d="M847.45,104a1.28,1.28,0,1,1,1.28-1.28,1.28,1.28,0,0,1-1.28,1.28h0Z" transform="translate(-822.49 -51.55)"/><path class="cls-1" d="M854.23,85.1a1.28,1.28,0,1,1,1.81,0,1.28,1.28,0,0,1-1.81,0h0Z" transform="translate(-822.49 -51.55)"/><path class="cls-1" d="M879.59,77.16a1.28,1.28,0,1,1,.88,1.58,1.28,1.28,0,0,1-.88-1.58h0Z" transform="translate(-822.49 -51.55)"/><path class="cls-1" d="M896,88.83a1.28,1.28,0,1,1-.49,1.74,1.28,1.28,0,0,1,.49-1.74h0Z" transform="translate(-822.49 -51.55)"/><path class="cls-1" d="M899.27,108.66a1.28,1.28,0,1,1-1.58.88,1.28,1.28,0,0,1,1.58-.88h0Z" transform="translate(-822.49 -51.55)"/><path class="cls-1" d="M887.6,125a1.28,1.28,0,1,1-1.74-.49,1.28,1.28,0,0,1,1.74.49h0Z" transform="translate(-822.49 -51.55)"/><path class="cls-1" d="M867.77,128.34a1.28,1.28,0,1,1-.88-1.58,1.28,1.28,0,0,1,.88,1.58h0Z" transform="translate(-822.49 -51.55)"/><path class="cls-1" d="M851.41,116.67a1.28,1.28,0,1,1,.49-1.74,1.28,1.28,0,0,1-.49,1.74h0Z" transform="translate(-822.49 -51.55)"/><path class="cls-1" d="M848.09,96.84a1.28,1.28,0,1,1,1.58-.88,1.28,1.28,0,0,1-1.58.88h0Z" transform="translate(-822.49 -51.55)"/><path class="cls-1" d="M859.77,80.48a1.28,1.28,0,1,1,1.74.49,1.28,1.28,0,0,1-1.74-.49h0Z" transform="translate(-822.49 -51.55)"/><path class="cls-1" d="M885.83,79.47a1.28,1.28,0,1,1,.46,1.75,1.28,1.28,0,0,1-.46-1.75h0Z" transform="translate(-822.49 -51.55)"/><path class="cls-1" d="M898.74,94.88a1.28,1.28,0,1,1-.91,1.56,1.28,1.28,0,0,1,.91-1.56h0Z" transform="translate(-822.49 -51.55)"/><path class="cls-1" d="M897,114.9a1.28,1.28,0,1,1-1.75.46,1.28,1.28,0,0,1,1.75-.46h0Z" transform="translate(-822.49 -51.55)"/><path class="cls-1" d="M881.56,127.81a1.28,1.28,0,1,1-1.56-.91,1.28,1.28,0,0,1,1.56.91h0Z" transform="translate(-822.49 -51.55)"/><path class="cls-1" d="M861.53,126a1.28,1.28,0,1,1-.46-1.75,1.28,1.28,0,0,1,.46,1.75h0Z" transform="translate(-822.49 -51.55)"/><path class="cls-1" d="M848.63,110.63a1.28,1.28,0,1,1,.91-1.56,1.28,1.28,0,0,1-.91,1.56h0Z" transform="translate(-822.49 -51.55)"/><path class="cls-1" d="M850.4,90.6a1.28,1.28,0,1,1,1.75-.46,1.28,1.28,0,0,1-1.75.46h0Z" transform="translate(-822.49 -51.55)"/><path class="cls-1" d="M865.81,77.69a1.28,1.28,0,1,1,1.56.91,1.28,1.28,0,0,1-1.56-.91h0Z" transform="translate(-822.49 -51.55)"/><path class="cls-3" d="M873.64,90.86H873a11.88,11.88,0,0,0-11.27,11.87s0,0.07,0,.1,0,0.25,0,.37A11.88,11.88,0,1,0,873.64,90.86Z" transform="translate(-822.49 -51.55)"/><path class="cls-2" d="M885.49,101.77c0-.13,0-0.26,0-0.4s-0.06-.53-0.12-0.8a11.74,11.74,0,0,0-1.13-3.31,11.24,11.24,0,0,0-1-1.6,11.9,11.9,0,0,0-2.83-2.73,11.76,11.76,0,0,0-3.68-1.69,12.33,12.33,0,0,0-2-.35,11,11,0,0,0-1.64,0l-0.39,0a11.43,11.43,0,0,0-2.34.43,12,12,0,0,0-1.46.53,11.59,11.59,0,0,0-1.65.9c-0.26.16-.51,0.35-0.75,0.52s-0.47.37-.69,0.57a11.52,11.52,0,0,0-1.19,1.23c-0.09.1-.18,0.21-0.26,0.32l-0.25.32c-0.15.22-.31,0.43-0.44,0.65a11.87,11.87,0,0,0-.71,1.28c-0.09.21-.19,0.42-0.27,0.62s-0.16.4-.22,0.6a12,12,0,0,0-.51,2.09,13.39,13.39,0,0,0-.12,1.38v0.49h1s0-.16,0-0.45a12.21,12.21,0,0,1,.11-1.27,11,11,0,0,1,.47-1.91c0.05-.18.14-0.36,0.21-0.55s0.16-.38.25-0.57a11.33,11.33,0,0,1,.66-1.18c0.12-.2.27-0.39,0.4-0.6l0.23-.29a3.59,3.59,0,0,1,.24-0.29,10.43,10.43,0,0,1,1.1-1.13c0.2-.18.42-0.35,0.63-0.52s0.45-.33.69-0.48a10.41,10.41,0,0,1,1.52-.82,11.2,11.2,0,0,1,1.07-.4,10.45,10.45,0,0,1,2.42-.48,10.85,10.85,0,0,1,1.87,0,11.21,11.21,0,0,1,1.84.32,11,11,0,0,1,6,4.06,11,11,0,0,1,1.56,3,10.28,10.28,0,0,1,.39,1.51c0.06,0.25.08,0.5,0.11,0.74s0,0.24,0,.36,0,0.24,0,.36a11.31,11.31,0,0,1-.17,2.56,10.58,10.58,0,0,1-.54,1.89c-0.09.26-.2,0.48-0.28,0.67l-0.24.48-0.22.39,0.84,0.49h0l0.24-.43c0.07-.14.16-0.32,0.26-0.53s0.21-.45.31-0.73a11.53,11.53,0,0,0,.59-2.07,12.23,12.23,0,0,0,.19-2.79C885.52,102,885.5,101.9,885.49,101.77Z" transform="translate(-822.49 -51.55)"/><path class="cls-1" d="M887.41,97.59a14.61,14.61,0,0,0-1.35-2.7,15,15,0,0,0-1.87-2.37c-0.28-.3-0.54-0.53-0.72-0.69l-0.29-.25-1.11,1.3,0.25,0.22c0.15,0.15.38,0.35,0.63,0.61a13.33,13.33,0,0,1,1.65,2.1,13,13,0,0,1,1.19,2.39c0.12,0.34.22,0.63,0.28,0.84l0.09,0.32,1.65-.45-0.11-.36C887.66,98.3,887.55,98,887.41,97.59Z" transform="translate(-822.49 -51.55)"/><path class="cls-1" d="M888.32,102c0-.12,0-0.21,0-0.28v-0.1l-1.7.13v0.09c0,0.06,0,.14,0,0.25s0,0.24,0,.38,0,0.15,0,.24,0,0.17,0,.26a13,13,0,0,1-.31,2.65,12.84,12.84,0,0,1-.84,2.53c-0.07.17-.15,0.32-0.22,0.45s-0.12.25-.17,0.34l-0.16.29,1.48,0.85,0.19-.33c0.06-.1.12-0.24,0.2-0.39s0.16-.32.24-0.51a14.65,14.65,0,0,0,1.3-5.86c0-.1,0-0.2,0-0.3s0-.18,0-0.27V102Z" transform="translate(-822.49 -51.55)"/><path class="cls-1" d="M878.92,116.45c0.16-.06.34-0.12,0.52-0.21a14.44,14.44,0,0,0,2.64-1.46,15,15,0,0,0,2.29-2c0.29-.3.51-0.56,0.66-0.74l0.18-.22,0.06-.08-1.34-1.06-0.05.07-0.16.19c-0.14.16-.33,0.4-0.59,0.66a13.29,13.29,0,0,1-2,1.74,12.72,12.72,0,0,1-2.33,1.29c-0.17.08-.32,0.13-0.46,0.18L878,115l-0.32.1,0.51,1.63,0.36-.12Z" transform="translate(-822.49 -51.55)"/><path class="cls-1" d="M868.29,116.37a14.61,14.61,0,0,0,2.91.82,15,15,0,0,0,3,.21c0.41,0,.75,0,1-0.06l0.38,0-0.21-1.69-0.33,0c-0.21,0-.52.05-0.88,0.06a13.18,13.18,0,0,1-2.66-.18,12.88,12.88,0,0,1-2.57-.72c-0.34-.14-0.62-0.26-0.8-0.36l-0.3-.14L867,115.8l0.34,0.16C867.59,116.08,867.91,116.21,868.29,116.37Z" transform="translate(-822.49 -51.55)"/><path class="cls-1" d="M863.9,113.64l0.21,0.18,0.08,0.06,1.11-1.3-0.07-.06-0.19-.16-0.28-.26-0.17-.16-0.18-.19a13,13,0,0,1-1.66-2.09,12.84,12.84,0,0,1-1.19-2.38c-0.07-.17-0.12-0.33-0.16-0.47s-0.09-.26-0.12-0.36l-0.09-.32-1.65.45,0.1,0.36c0,0.12.08,0.25,0.13,0.41s0.11,0.34.19,0.53a14.52,14.52,0,0,0,1.35,2.7,14.72,14.72,0,0,0,1.87,2.37l0.21,0.21,0.19,0.18Z" transform="translate(-822.49 -51.55)"/><path class="cls-1" d="M860.73,102.88c0-.06,0-0.14,0-0.25s0-.24,0-0.38,0-.31,0-0.5a12.84,12.84,0,0,1,1.46-5.1l0.24-.44,0.2-.33,0.13-.21,0-.07-1.43-.93-0.05.08-0.15.24-0.23.37-0.27.49a15,15,0,0,0-1.13,2.8,15.12,15.12,0,0,0-.52,3c0,0.21,0,.39,0,0.56s0,0.31,0,.43,0,0.22,0,.28V103l1.71,0S860.73,102.94,860.73,102.88Z" transform="translate(-822.49 -51.55)"/><path class="cls-1" d="M868,91.05a12.76,12.76,0,0,1,2.5-.93l0.48-.11,0.38-.08,0.33-.06-0.27-1.68-0.37.07-0.43.09-0.55.13a14.42,14.42,0,0,0-2.83,1.05,14.73,14.73,0,0,0-2.55,1.61,13.11,13.11,0,0,0-1,.9l1.17,1.24a11.5,11.5,0,0,1,.92-0.79A13,13,0,0,1,868,91.05Z" transform="translate(-822.49 -51.55)"/><path class="cls-1" d="M877.11,90.23a12.74,12.74,0,0,1,2.5.93L880,91.39l0.33,0.19,0.29,0.17,0.9-1.45-0.32-.19-0.38-.21-0.5-.26a14.41,14.41,0,0,0-2.83-1.06,14.72,14.72,0,0,0-3-.46,13,13,0,0,0-1.37,0l0.08,1.7a11.45,11.45,0,0,1,1.22,0A13,13,0,0,1,877.11,90.23Z" transform="translate(-822.49 -51.55)"/><rect class="cls-2" x="50.69" y="42.58" width="0.94" height="6.65"/><rect class="cls-2" x="50.69" y="53.15" width="0.94" height="6.65"/><rect class="cls-2" x="42.55" y="50.72" width="6.65" height="0.94"/><rect class="cls-2" x="53.11" y="50.72" width="6.65" height="0.94"/><circle class="cls-1" cx="51.16" cy="51.19" r="1.19"/></svg>