<svg preserveAspectRatio="none" id="Layer_1" data-name="Layer 1" xmlns="http://www.w3.org/2000/svg" viewBox="0 0 351.77 358.13"><defs><style>.cls-1,.cls-4{fill:#80bfe8}.cls-2{fill:#08ade5}.cls-3{fill:#f890ab}.cls-4,.cls-6{opacity:.5}.cls-5{fill:#00b3ea}</style></defs><path class="cls-1" d="M543.18 445.6c-.41.4-.92.89-1.56 1.41s-1.32 1.19-2.17 1.83a62.83 62.83 0 01-66.87 7.24 62.16 62.16 0 01-12.14-7.82 64.72 64.72 0 01-9.78-10.07 62.67 62.67 0 01-13.16-39.52c0-2.13.19-3.79.26-4.93L438 392l-4.65-.57-.22 1.86c-.07 1.22-.26 3-.28 5.29A67.35 67.35 0 00447 441.06a69.33 69.33 0 0010.5 10.81 66.73 66.73 0 0013 8.41 67.4 67.4 0 0071.87-7.78c.91-.69 1.65-1.4 2.34-2s1.23-1.09 1.67-1.51l1.36-1.29-3.29-3.33z" transform="translate(-324.92 -218.87)"/><path class="cls-1" d="M561.8 465.46l-1.2 1.13-1.5 1.29-1.75 1.5c-.63.52-1.33 1-2.05 1.61a86 86 0 01-11.08 7.33 89.13 89.13 0 01-15.77 6.92 90.72 90.72 0 01-19.92 4.13c-1.8.12-3.63.31-5.48.32l-2.8.06-2.83-.06h-1.43l-1.43-.1-2.88-.21-2.9-.34-1.46-.18-1.46-.24a89.59 89.59 0 01-11.71-2.7 94.93 94.93 0 01-11.52-4.37 90.06 90.06 0 01-21.06-13.58A91.17 91.17 0 01425 449.14a90.26 90.26 0 01-9-81.14 85.45 85.45 0 015.58-12.06c.45-.8.86-1.57 1.29-2.28l1.22-2c.38-.61.73-1.17 1.06-1.68l.94-1.36 1.29-1.85c.29-.42.46-.62.46-.62l-1.69-1.25s-.17.21-.47.64l-1.32 1.89-1 1.39c-.34.52-.7 1.1-1.09 1.72l-1.25 2c-.44.72-.86 1.51-1.32 2.33a87.53 87.53 0 00-5.71 12.34 92.3 92.3 0 009.22 83 93.3 93.3 0 0016.92 19.22 92.15 92.15 0 0021.56 13.9 97.26 97.26 0 0011.79 4.47 91.94 91.94 0 0012 2.76l1.49.25 1.49.19 3 .35 3 .22 1.46.1h1.46l2.9.07 2.86-.06c1.9 0 3.77-.21 5.61-.33a92.86 92.86 0 0020.39-4.23 91.27 91.27 0 0016.14-7.08 87.91 87.91 0 0011.34-7.5c.74-.58 1.46-1.12 2.1-1.65l1.79-1.53 1.53-1.33 1.23-1.16 2.24-2.13-1.51-1.37z" transform="translate(-324.92 -218.87)"/><path class="cls-2" d="M546 449.37c-.55.56-1.3 1.14-2.15 1.89s-1.87 1.53-3 2.42a66.79 66.79 0 01-8.78 5.61 68.7 68.7 0 01-12.49 5.13 70.17 70.17 0 01-15.76 2.7 68.63 68.63 0 01-8.75-.13l-1.12-.08c-.37 0-.75-.09-1.12-.13l-2.26-.27c-1.5-.28-3-.47-4.53-.84a64.33 64.33 0 01-9.06-2.62 65.11 65.11 0 01-8.8-4l-2.18-1.16-2.08-1.3c-.71-.42-1.37-.9-2-1.37s-1.37-.91-2-1.44a72.25 72.25 0 01-7.48-6.5 75.38 75.38 0 01-6.46-7.52 72.3 72.3 0 01-5.24-8.3 69.23 69.23 0 01-3.92-8.83 66.46 66.46 0 01-2.56-9.08c-.18-.75-.31-1.52-.43-2.28s-.28-1.51-.36-2.27c-.18-1.51-.39-3-.46-4.5s-.14-3-.18-4.43v-2.17c0-.72 0-1.44.08-2.15a67.15 67.15 0 018-28.2c.5-.87.94-1.74 1.44-2.54l1.44-2.31c.48-.73 1-1.4 1.43-2.06.23-.33.45-.65.67-1l.68-.88 1.26-1.62c.41-.5.81-.95 1.18-1.38l1-1.19c.31-.36.63-.66.89-.95l1.64-1.73-10.84-10.8-.84.88c-.54.58-1.36 1.4-2.34 2.5a89.5 89.5 0 00-7.47 9.68 81.18 81.18 0 00-7.93 15.35 83.08 83.08 0 00-5.23 38.92 83.81 83.81 0 003.59 16.88 79.07 79.07 0 004.62 11.32c.33.66.61 1.26.88 1.76l.71 1.27.59 1.06L433 438l.3.54c.19.36.51.87.91 1.51l1.46 2.32 2 2.92a79.31 79.31 0 0013 13.88 77.53 77.53 0 0016 10.31c1.15.6 2.27 1 3.24 1.46s1.83.76 2.54 1l1.65.62.58.22L473 478l3.78 1.22c1.22.32 2.69.76 4.41 1.16l2.74.6c1 .22 2 .36 3.06.55a83.29 83.29 0 0031.55-.94 81.86 81.86 0 0028.92-12.68c1.8-1.21 3.35-2.45 4.74-3.53s2.51-2.13 3.47-2.95l2.88-2.72-10.8-10.93zm-52 30.51l-.78-.06c-.5 0-1.2-.11-2-.21s-1.84-.2-2.89-.37l-3.29-.56-3.26-.71c-1-.22-2-.52-2.82-.73-1.65-.42-2.73-.8-2.73-.8l3.14-10s.93.33 2.37.69c.72.18 1.54.45 2.45.63l2.84.62 2.86.48c.91.15 1.78.22 2.51.32s1.35.17 1.78.19h.68zm18-.59c-1.69.21-3.94.53-6.21.65l-1.69.12h-1.64c-1.06 0-2.06.08-2.91 0l-2.84-.07.46-10.49 2.47.06h3.96l1.47-.11c2-.1 3.93-.39 5.4-.56l2.43-.41 1.89 10.33zm22-6.51l-1.89.82c-.78.34-1.69.74-2.69 1.1s-2.05.81-3.13 1.15l-3.18 1-2.81.76c-.82.24-1.52.37-2 .48l-.76.17-2.27-10.26.66-.14c.42-.09 1-.21 1.74-.42l2.44-.66 2.76-.89c.94-.29 1.85-.68 2.72-1s1.66-.66 2.34-1l1.64-.71c.4-.17.61-.29.61-.29l4.49 9.49s-.24.2-.67.4zm17.63-11.12c-.37.33-.93.77-1.61 1.29s-1.45 1.14-2.31 1.77l-2.71 1.9c-1.91 1.23-3.83 2.46-5.33 3.25l-1.8 1-.7.35-4.81-9.33.61-.31 1.56-.87c1.31-.69 3-1.76 4.63-2.83l2.38-1.66c.74-.55 1.42-1.09 2-1.54s1.08-.83 1.4-1.12l.51-.44 6.78 8z" transform="translate(-324.92 -218.87)"/><path class="cls-3" d="M529.79 444.73l-1 .61c-.41.25-.87.57-1.39.86l-1.64.91c-.55.33-1.14.57-1.67.85s-1 .54-1.48.71l-1.47.64 1.92 4.58 1.6-.7c.49-.19 1-.5 1.61-.78s1.23-.57 1.83-.93l1.79-1c.57-.32 1.08-.67 1.53-.94l1.08-.67c.26-.16.4-.27.4-.27l-2.76-4.13a4.28 4.28 0 01-.35.26zM516.16 451.13c-.45.17-1 .29-1.58.45s-1.19.35-1.82.48l-1.84.4c-.59.14-1.15.2-1.62.29l-1.15.2-.44.06.68 4.92s.18 0 .48-.06l1.25-.22c.52-.1 1.13-.17 1.77-.31l2-.44c.69-.14 1.35-.36 2-.52s1.23-.31 1.72-.49l1.67-.54-1.6-4.71zM498.87 453.47c-1.29 0-2.57-.15-3.53-.19s-1.6-.19-1.6-.19l-.6 4.94.48.06c.31 0 .74.11 1.26.14 1.05.05 2.45.22 3.85.21a54.14 54.14 0 005.61-.12l-.34-5a49 49 0 01-5.13.15zM488.49 452.19c-1-.17-2.18-.55-3.42-.87l-1.79-.58-.83-.26-.72-.28-1.5-.56-1.85 4.61 1.64.61.79.3.9.29 2 .63c1.36.35 2.7.76 3.74.95l1.24.28.47.1.94-4.88-.43-.09zM474 446.64c-.52-.29-1.09-.59-1.62-.94l-1.6-1-1.35-.94-1-.66-.35-.27-3 4 .38.3 1 .72 1.47 1 1.74 1.09c.58.39 1.2.71 1.77 1s1.1.63 1.57.87l1.57.77 2.17-4.47-1.44-.7c-.31-.2-.8-.49-1.31-.77zM464 439.42c-.68-.69-1.67-1.52-2.53-2.49-.44-.47-.9-.92-1.3-1.38l-1.07-1.25a14.33 14.33 0 01-1-1.24l-3.9 3.09a16.53 16.53 0 001.11 1.36l1.17 1.37c.43.5.94 1 1.42 1.51.94 1.05 2 2 2.76 2.72.37.38.73.64 1 .84l.37.31 3.25-3.76-.34-.29c-.26-.21-.59-.44-.94-.79zM455.34 429.3l-.34-.56-.87-1.39c-.33-.5-.61-1.08-.93-1.63-.66-1.1-1.16-2.28-1.61-3.13-.22-.43-.35-.81-.47-1.06l-.17-.4-4.56 2 .19.44c.13.28.28.69.51 1.16.49.93 1 2.22 1.76 3.42.35.61.66 1.24 1 1.78l1 1.52.38.61.32.45.28.4 4.1-2.81-.25-.36zM449.07 416.16c-.33-.9-.63-2.15-1-3.39-.16-.62-.27-1.25-.41-1.84s-.26-1.14-.32-1.61l-.27-1.58-4.92.74.29 1.73c.07.52.2 1.12.35 1.76s.27 1.33.45 2c.37 1.35.71 2.71 1.07 3.7l.39 1.21a4.53 4.53 0 00.16.45l4.69-1.66a3.79 3.79 0 01-.14-.42zM441.83 393.7c0 .3-.07.74-.1 1.27l-.13 1.79-.05 2.06V402.68l.13 1.75 5-.4-.12-1.6v-1.65-1.89V397l.12-1.64c0-.48 0-.88.1-1.16l.06-.44-4.94-.54zM444.88 380.07c-.18.49-.35 1.08-.56 1.71s-.43 1.29-.59 2l-.54 2-.38 1.76c-.25 1-.34 1.72-.34 1.72l4.89.88a15.89 15.89 0 01.31-1.57l.33-1.67.49-1.82c.15-.63.36-1.23.54-1.8s.34-1.11.51-1.56l.57-1.49-4.64-1.8z" transform="translate(-324.92 -218.87)"/><path class="cls-4" d="M431.23 347.94c-.58.7-1.29 1.79-2.19 3.06s-1.84 2.83-2.88 4.48c-.51.83-1 1.72-1.48 2.61l-.75 1.35c-.24.46-.46.93-.7 1.39a87.76 87.76 0 00-4.47 10.51l-1.16 3.58c-.26.87-.38 1.38-.38 1.38l3.31.93s.12-.48.37-1.32l1.11-3.44a84.42 84.42 0 014.29-10.09c.22-.45.44-.9.67-1.34l.72-1.3c.49-.85.93-1.71 1.42-2.51 1-1.58 1.88-3.09 2.77-4.3s1.55-2.26 2.1-2.94l.84-1.08-2.72-2.11z" transform="translate(-324.92 -218.87)"/><path class="cls-1" d="M460 475.63l-2.49-1.38a87.19 87.19 0 01-12.5-8.75 85.24 85.24 0 01-10.75-10.79c-.69-.78-1.26-1.55-1.78-2.21l-1.34-1.73c-.37-.48-.63-.88-.82-1.15l-.29-.41-4.53 3.2.3.44c.2.28.48.71.87 1.22l1.43 1.85c.56.71 1.16 1.53 1.89 2.36a90.81 90.81 0 0011.44 11.48 93 93 0 0013.34 9.24l2.65 1.47c.79.43 1.51.76 2.08 1.05l1.83.9 2.36-5-1.71-.84c-.54-.24-1.22-.58-1.98-.95zM555 472.57c-.64.52-1.47 1.09-2.42 1.75s-2 1.43-3.22 2.16a90.2 90.2 0 01-39 13.74c-1.41.19-2.71.25-3.86.34s-2.15.15-3 .16l-2.6.06v5.93l2.77-.06c.88 0 1.95-.08 3.17-.17s2.61-.16 4.11-.36a96.14 96.14 0 0041.51-14.64c1.3-.78 2.42-1.61 3.43-2.3s1.89-1.31 2.58-1.87l2.19-1.7L557 471zM413.25 373.61l-8-2.4a1 1 0 00-1.12 1l-.34 3c-.11.88-.17 1.92-.24 3s-.17 2.27-.18 3.45 0 2.34-.05 3.44 0 2.11.07 3 .06 1.59.08 2.1.05.79.05.79a.9.9 0 00.74.9l5.52.45a.89.89 0 00.88-.9s0-.26.07-.72l.23-1.9c.16-1.58.52-3.67.88-5.75.18-1 .43-2.07.64-3s.41-1.88.63-2.64l.69-2.56a.93.93 0 00-.55-1.26z" transform="translate(-324.92 -218.87)"/><path class="cls-3" d="M540.68 460.23a2.45 2.45 0 00-.68 3.33 2.42 2.42 0 104-2.68 2.44 2.44 0 00-3.32-.65zM523.78 468.56a2.45 2.45 0 00-1.51 3.06 2.42 2.42 0 104.57-1.57 2.46 2.46 0 00-3.06-1.49zM505.3 472.26a2.39 2.39 0 00-1.62.83 2.47 2.47 0 00-.63 1.74 2.43 2.43 0 00.79 1.71 2.44 2.44 0 004-2 2.49 2.49 0 00-2.54-2.28zM486.48 471.13a2.45 2.45 0 101.92 2.8 2.43 2.43 0 00-1.92-2.8z" transform="translate(-324.92 -218.87)"/><path class="cls-1" d="M553 358.94a69.34 69.34 0 00-10.5-10.81 66.74 66.74 0 00-13-8.41 67.4 67.4 0 00-71.87 7.78c-.91.69-1.65 1.4-2.33 2s-1.23 1.09-1.67 1.51l-1.36 1.29 3.29 3.33 1.27-1.2c.41-.4.92-.89 1.56-1.41s1.32-1.19 2.17-1.83a62.83 62.83 0 0166.87-7.24 62.07 62.07 0 0112.14 7.82 64.72 64.72 0 019.78 10.07 62.65 62.65 0 0113.16 39.52c0 2.13-.19 3.79-.26 4.93L562 408l4.65.57.22-1.86c.07-1.22.26-3 .28-5.29A67.36 67.36 0 00553 358.94z" transform="translate(-324.92 -218.87)"/><path class="cls-1" d="M587.44 372.14a92.15 92.15 0 00-10.7-22.44 93.31 93.31 0 00-16.92-19.22 92.16 92.16 0 00-21.56-13.9 97.4 97.4 0 00-11.79-4.47 91.81 91.81 0 00-12-2.76l-1.49-.25-1.49-.19-3-.35-3-.22-1.47-.1h-1.46l-2.9-.07-2.86.06c-1.9 0-3.77.21-5.61.33a92.94 92.94 0 00-20.39 4.23 91.23 91.23 0 00-16.14 7.08 87.91 87.91 0 00-11.34 7.5c-.74.58-1.46 1.12-2.1 1.65l-1.79 1.53-1.43 1.3-1.23 1.15-2.24 2.13 1.49 1.49 2.19-2.08 1.2-1.13 1.5-1.29 1.75-1.5c.63-.52 1.33-1 2.06-1.61a85.84 85.84 0 0111.08-7.32 89.1 89.1 0 0115.77-6.92 90.81 90.81 0 0119.92-4.13c1.8-.12 3.63-.31 5.48-.32l2.8-.06 2.83.06h1.43l1.43.1 2.88.21 2.9.34 1.46.18 1.46.24a89.83 89.83 0 0111.71 2.7 95.23 95.23 0 0111.52 4.37 90 90 0 0121.06 13.58A91.18 91.18 0 01575 350.86a90.25 90.25 0 019 81.14 85.37 85.37 0 01-5.58 12.06c-.45.8-.86 1.57-1.29 2.27l-1.22 2c-.38.61-.73 1.17-1.06 1.68l-.94 1.36-1.29 1.85c-.29.42-.45.62-.45.62l1.69 1.25s.17-.21.47-.64l1.32-1.89 1-1.39c.34-.52.7-1.1 1.09-1.72l1.25-2c.44-.72.86-1.51 1.32-2.33a87.62 87.62 0 005.72-12.34 92.31 92.31 0 001.41-60.64z" transform="translate(-324.92 -218.87)"/><path class="cls-2" d="M578.52 374.71a79.17 79.17 0 00-4.62-11.32c-.33-.66-.62-1.26-.88-1.76l-.71-1.27-.59-1.06L567 362l-.3-.55c-.19-.36-.51-.87-.91-1.51l-1.46-2.32-2-2.92a79.35 79.35 0 00-13-13.89 77.54 77.54 0 00-16-10.31c-1.15-.6-2.27-1-3.24-1.46s-1.83-.76-2.54-1l-1.65-.62-.58-.22L527 322l-3.78-1.22c-1.22-.32-2.69-.76-4.41-1.16l-2.74-.6c-1-.22-2-.35-3.06-.55a83.25 83.25 0 00-31.55.94 81.87 81.87 0 00-28.92 12.68c-1.8 1.21-3.35 2.45-4.74 3.53s-2.51 2.13-3.47 2.95l-2.88 2.72 10.8 10.93 1.73-1.64c.55-.56 1.3-1.14 2.15-1.89s1.87-1.53 3-2.42a66.59 66.59 0 018.78-5.61 68.61 68.61 0 0112.49-5.13 70.18 70.18 0 0115.76-2.7 68.79 68.79 0 018.75.13l1.12.08c.37 0 .75.09 1.12.13l2.26.27c1.5.27 3 .47 4.54.84a64.25 64.25 0 019.06 2.62 65.11 65.11 0 018.8 4l2.14 1.19 2.08 1.3c.7.42 1.37.9 2 1.37s1.37.91 2 1.44a72.16 72.16 0 017.48 6.5 75.38 75.38 0 016.46 7.52 72.25 72.25 0 015.24 8.3 69.05 69.05 0 013.92 8.83 66.22 66.22 0 012.56 9.08c.18.75.31 1.52.43 2.27s.28 1.51.37 2.27c.18 1.51.39 3 .46 4.5s.14 3 .18 4.43v2.18c0 .72 0 1.44-.08 2.15a67.09 67.09 0 01-8 28.2c-.5.87-.94 1.74-1.44 2.54l-1.44 2.31c-.48.72-1 1.4-1.43 2.06-.23.33-.44.65-.67 1l-.68.88-1.26 1.63c-.41.5-.81.95-1.18 1.38l-1 1.19c-.31.36-.63.66-.89.95l-1.62 1.63 10.86 10.86.84-.88c.54-.58 1.36-1.4 2.34-2.49a89.6 89.6 0 007.47-9.68 81.25 81.25 0 007.93-15.35 83 83 0 001.64-55.75zM467.07 338.4l-1.56.87c-1.31.69-3 1.76-4.63 2.83l-2.38 1.66c-.74.55-1.42 1.09-2 1.54s-1.08.83-1.4 1.12l-.51.44-6.78-8 .59-.51c.37-.33.93-.77 1.61-1.29s1.45-1.14 2.31-1.77l2.74-1.91c1.91-1.23 3.83-2.46 5.33-3.26l1.8-1 .7-.35 4.81 9.33zm17-6.27c-.42.1-1 .21-1.74.42l-2.44.66-2.76.89c-.94.29-1.85.68-2.72 1s-1.66.66-2.34 1l-1.64.71c-.4.17-.61.29-.61.29l-4.49-9.49s.25-.13.71-.34l1.89-.82c.78-.34 1.69-.74 2.69-1.1s2-.81 3.13-1.15l3.18-1 2.81-.76c.82-.24 1.52-.37 2-.48l.76-.17 2.23 10.21zm18.73-1.7l-2.47-.06h-3.96l-1.47.11c-2 .1-3.93.39-5.4.56l-2.44.41-1.89-10.33 2.8-.47c1.69-.21 3.94-.53 6.21-.65l1.69-.12h1.64c1.06 0 2.06-.08 2.91 0l2.84.07zm17.85 3.14s-.93-.33-2.37-.69c-.72-.18-1.54-.45-2.45-.63l-2.83-.62-2.86-.48c-.91-.15-1.78-.22-2.51-.32s-1.35-.17-1.78-.19h-.68l.83-10.52.78.06c.5 0 1.2.11 2 .21s1.84.2 2.89.37l3.29.56 3.26.71c1 .22 2 .52 2.82.73 1.65.42 2.73.8 2.73.8z" transform="translate(-324.92 -218.87)"/><path class="cls-3" d="M475.32 346.79c-.49.19-1 .5-1.61.78s-1.23.57-1.83.93l-1.79 1c-.57.32-1.08.67-1.53.94l-1.08.67a4.77 4.77 0 00-.4.27l2.76 4.13a3.77 3.77 0 01.36-.25l1-.61c.41-.25.87-.57 1.39-.86l1.64-.91c.55-.33 1.14-.57 1.67-.85s1-.54 1.48-.71l1.47-.64-1.92-4.58zM491.13 342.14l-1.25.22c-.52.1-1.13.17-1.77.31l-2 .44c-.69.14-1.35.36-2 .52s-1.23.31-1.73.49l-1.67.54 1.6 4.71 1.52-.49c.45-.17 1-.29 1.58-.45s1.19-.35 1.82-.48l1.84-.4c.59-.14 1.15-.2 1.62-.28l1.15-.2.44-.06-.68-4.93zM505.12 341.77c-1.05-.05-2.45-.22-3.86-.21a54.09 54.09 0 00-5.61.12l.34 5a49 49 0 015.14-.11c1.29 0 2.57.15 3.53.19s1.6.19 1.6.19l.6-4.94-.48-.06c-.3-.07-.73-.14-1.26-.18zM519.19 344.82l-.9-.29-2-.63c-1.36-.35-2.7-.76-3.74-.95l-1.24-.27-.47-.1-.94 4.88.43.09 1.14.25c1 .17 2.18.55 3.42.87l1.79.58.83.26.72.28 1.5.56 1.85-4.61-1.64-.61zM533.44 352.18l-1.47-1-1.75-1.09c-.58-.39-1.2-.72-1.77-1s-1.1-.63-1.57-.87l-1.57-.77-2.17 4.47 1.43.7c.43.22.91.51 1.43.8s1.09.59 1.62.94l1.6 1 1.34.94 1 .66.35.27 3-4-.38-.3zM543.52 361.13c-.43-.5-.94-1-1.42-1.51-.94-1.05-2-2-2.76-2.72-.37-.38-.73-.64-1-.84l-.37-.31-3.25 3.76.34.29c.21.19.54.42.88.77.68.69 1.67 1.52 2.53 2.49.44.47.9.92 1.3 1.38l1.07 1.25a14.39 14.39 0 011 1.24l3.9-3.09a16.76 16.76 0 00-1.11-1.36zM552.91 375.29c-.49-.93-1-2.22-1.76-3.42-.35-.6-.66-1.24-1-1.78l-1-1.52-.38-.61-.32-.45-.28-.39-4.1 2.81.25.36.29.41.34.56.87 1.39c.33.5.61 1.08.93 1.63.66 1.1 1.16 2.28 1.61 3.12.22.43.35.81.47 1.06l.17.4 4.56-2-.19-.44c-.07-.25-.22-.66-.46-1.13zM557.18 388c-.15-.64-.27-1.33-.45-2-.37-1.35-.71-2.71-1.07-3.7l-.39-1.21a4.61 4.61 0 00-.16-.46l-4.69 1.66a3.9 3.9 0 01.14.42l.35 1.11c.33.9.63 2.15 1 3.39.16.62.27 1.25.41 1.84s.26 1.13.32 1.61l.27 1.58 4.92-.74-.29-1.73c-.08-.5-.21-1.1-.36-1.77zM558.4 397.31l-.13-1.75-5 .4s0 .64.12 1.6v5.43l-.12 1.64c0 .48 0 .88-.1 1.16l-.05.44 4.94.54.06-.48c0-.3.07-.74.11-1.27l.13-1.79c0-.66 0-1.36.05-2.06s0-1.4 0-2.06.02-1.27-.01-1.8zM552.33 411.49l-.33 1.61-.49 1.82c-.15.62-.36 1.23-.54 1.8s-.34 1.11-.51 1.56l-.57 1.5 4.64 1.8.62-1.64c.18-.49.35-1.08.56-1.71s.43-1.29.59-2l.54-2 .38-1.76c.25-1 .34-1.72.34-1.72l-4.89-.88s-.11.68-.34 1.62z" transform="translate(-324.92 -218.87)"/><path class="cls-4" d="M579.1 424.09l-1.1 3.44a84.35 84.35 0 01-4.29 10.09c-.22.45-.44.9-.67 1.34l-.72 1.3c-.48.85-.93 1.71-1.42 2.51-1 1.58-1.88 3.09-2.77 4.3s-1.55 2.26-2.1 2.94l-.84 1.08 2.72 2.11.87-1.13c.57-.7 1.29-1.79 2.19-3.06s1.84-2.83 2.88-4.48c.51-.83 1-1.72 1.48-2.61l.75-1.35c.24-.46.47-.93.7-1.39a87.85 87.85 0 004.47-10.51l1.16-3.58c.26-.87.38-1.38.38-1.38l-3.31-.93s-.13.47-.38 1.31z" transform="translate(-324.92 -218.87)"/><path class="cls-1" d="M573.3 346l-1.43-1.85c-.56-.71-1.16-1.53-1.89-2.36a90.74 90.74 0 00-11.44-11.48 92.88 92.88 0 00-13.31-9.31l-2.65-1.47c-.79-.43-1.51-.76-2.08-1.05l-1.83-.9-2.36 5 1.71.85c.54.28 1.21.58 2 1l2.49 1.38a87.36 87.36 0 0112.5 8.75 85.19 85.19 0 0110.75 10.79c.69.78 1.26 1.55 1.78 2.22l1.34 1.73c.37.48.63.88.82 1.15l.29.41 4.53-3.2-.3-.44c-.22-.32-.53-.75-.92-1.22zM496.27 303.35c-.88 0-1.95.07-3.17.17s-2.61.16-4.11.36a96.13 96.13 0 00-41.51 14.64c-1.3.78-2.42 1.61-3.43 2.3s-1.89 1.31-2.58 1.87l-2.19 1.7L443 329l2.06-1.59c.65-.52 1.47-1.09 2.42-1.75s2-1.43 3.22-2.16a90.26 90.26 0 0139-13.75c1.41-.19 2.71-.25 3.86-.34s2.15-.15 3-.16l2.6-.06v-5.93zM596.55 409.86c0-.5-.05-.79-.05-.79a.9.9 0 00-.74-.9l-5.52-.45a.89.89 0 00-.88.9s0 .26-.07.72l-.23 1.9c-.15 1.58-.51 3.67-.88 5.75-.18 1-.43 2.07-.64 3s-.41 1.88-.63 2.64l-.69 2.56a.93.93 0 00.52 1.16l8 2.4a1 1 0 001.12-1l.34-2.95c.11-.88.16-1.92.24-3s.17-2.27.18-3.45 0-2.34.05-3.44 0-2.11-.07-3-.03-1.55-.05-2.05z" transform="translate(-324.92 -218.87)"/><path class="cls-3" d="M456.6 335.71a2.45 2.45 0 103.4.74 2.42 2.42 0 00-3.4-.74zM474.64 326.81a2.4 2.4 0 00-1.48 3.14 2.41 2.41 0 004.57-1.56 2.41 2.41 0 00-3.09-1.58zM494.37 322.86a2.38 2.38 0 00-2.24 2.63 2.49 2.49 0 002.58 2.25 2.38 2.38 0 001.62-.83 2.47 2.47 0 00.63-1.74 2.44 2.44 0 00-.79-1.71 2.4 2.4 0 00-1.8-.6zM514.45 324.06a2.45 2.45 0 101.9 2.92 2.44 2.44 0 00-1.9-2.92z" transform="translate(-324.92 -218.87)"/><path class="cls-5" d="M515.36 394a16 16 0 01-20.43 20.58l-.35 1.29a17.31 17.31 0 0022.08-22.22zM506 384.63l.35-1.29a17.31 17.31 0 00-22.22 22.08l1.29-.35A16 16 0 01506 384.63zM506 384.63l-3.44 12.86 12.8-3.49a15.91 15.91 0 00-9.36-9.37z" transform="translate(-324.92 -218.87)"/><path class="cls-5" d="M506.3 383.34a17.33 17.33 0 0110.36 10.36l6-1.62-14.77-14.77zM489.09 410.91a15.84 15.84 0 005.84 3.72l3.5-13.06-13.06 3.5a15.84 15.84 0 003.72 5.84z" transform="translate(-324.92 -218.87)"/><path class="cls-5" d="M484.09 405.41l-5.83 1.59L493 421.74l1.56-5.83a17.26 17.26 0 01-10.47-10.5zM507.15 361.26l-1.1-.16-2.64-.38-3.15-.16h-1.72l-1.8.09a39.57 39.57 0 00-7.55 1.26 39 39 0 00-7.17 2.68 27.79 27.79 0 00-3.09 1.69l-1.4.84-1.23.9c-.78.59-1.52 1.1-2.14 1.6l-1.54 1.38-1.33 1.21 4.22 4.22 1.14-1 1.3-1.18c.52-.43 1.16-.86 1.82-1.36l1-.77 1.19-.71a22.3 22.3 0 012.63-1.44 33 33 0 016.09-2.28 33.58 33.58 0 016.42-1.07l1.53-.07h1.46l2.69.13 2.25.33.94.13.78.19 1.48.36 1.53-5.77-1.74-.42zM539.26 396.46l-.38-2.64c-.06-.39-.1-.76-.17-1.1l-.22-.92-.44-1.8-5.76 1.55.36 1.48.19.78c.07.29.09.6.14.94l.33 2.25c.07.83.09 1.73.14 2.69v1.46l-.07 1.53a34.32 34.32 0 01-1.05 6.42 26.41 26.41 0 01-1 3.15 25 25 0 01-1.26 2.95 20.94 20.94 0 01-1.43 2.63l-.7 1.2c-.25.37-.52.71-.76 1-.5.67-.94 1.29-1.35 1.83l-1.18 1.3-1 1.14 4.23 4.2 1.2-1.33 1.38-1.53c.49-.63 1-1.36 1.59-2.14.29-.4.6-.8.89-1.24l.83-1.41a26.35 26.35 0 001.68-3.1 30.76 30.76 0 001.48-3.47 39.8 39.8 0 002-7.52 31.12 31.12 0 00.43-3.74l.09-1.8v-.87-.85c-.08-1.01-.11-2.07-.19-3.04zM489.66 433l-1.65-.58a15 15 0 01-2.11-.83c-.75-.36-1.59-.7-2.42-1.16l-2.58-1.52-2.59-1.9c-.84-.69-1.64-1.47-2.48-2.2l-.31-.28-.28-.31-.56-.62-1.11-1.22a11 11 0 01-1-1.27l-.94-1.28-.46-.62-.39-.65-.78-1.29c-.23-.42-.5-.8-.69-1.2l-.54-1.18-.5-1.08-.23-.5c-.07-.17-.12-.33-.18-.49l-.58-1.65c-.16-.46-.29-.82-.37-1.06l-.09-.39-5.74 1.62.11.45c.09.29.24.71.43 1.26l.68 1.94c.07.19.13.38.21.58l.27.59.59 1.28.63 1.36c.22.48.53.93.81 1.42l.88 1.49.46.77.54.73 1.1 1.5a14.22 14.22 0 001.21 1.49l1.3 1.44.66.72.33.36.36.33c1 .87 1.91 1.77 2.91 2.58s2 1.52 3 2.23l3 1.8c1 .53 2 .94 2.85 1.36a19.45 19.45 0 002.48 1l1.95.68c.54.18 1 .26 1.28.34l.46.11 1.47-5.78-.39-.09c-.16-.09-.54-.15-1-.28z" transform="translate(-324.92 -218.87)"/><path class="cls-5" d="M534.67 394.85c-.06-.41-.11-.83-.18-1.24l-.3-1.21c-.21-.8-.36-1.62-.62-2.41l-.82-2.33a36.7 36.7 0 00-7.68-12c-.13-.14-.25-.29-.39-.42l-.43-.39-.85-.77-.84-.76a8 8 0 00-.86-.73 35.49 35.49 0 00-29.44-7A34.6 34.6 0 00482 369.5l-1.87 1.1c-.57.37-1.07.77-1.55 1.12l-1.33 1c-.4.3-.72.64-1 .9l-1.87 1.69 1.17 1.17 1.78-1.61c.3-.25.6-.58 1-.86l1.27-.93c.46-.33.93-.72 1.48-1.07l1.78-1.05a33 33 0 019.79-3.71 33.83 33.83 0 0128.07 6.66 7.32 7.32 0 01.82.69l.81.73.75.67.41.37c.13.13.25.27.37.41a35.1 35.1 0 017.32 11.43l.78 2.22c.25.75.39 1.53.59 2.3l.29 1.16c.07.39.11.79.17 1.18.1.79.26 1.58.32 2.38a37 37 0 01-.54 9.71 36.58 36.58 0 01-3.34 9.29 33.86 33.86 0 01-13.93 13.93 34 34 0 01-19 3.88c-.8-.06-1.59-.22-2.38-.32l-1.18-.17-1.16-.29c-.77-.2-1.55-.34-2.29-.59l-2.22-.78a35.05 35.05 0 01-11.43-7.32c-.13-.12-.28-.24-.41-.37l-.37-.41-.73-.81-.73-.81a7.32 7.32 0 01-.69-.82 33.84 33.84 0 01-6.66-28.07 33 33 0 013.71-9.79l1-1.71c.35-.55.74-1 1.07-1.48l.93-1.27c.29-.39.61-.69.86-1l1.61-1.78-1.17-1.17-1.68 1.87c-.27.31-.6.63-.9 1l-1 1.33c-.34.48-.75 1-1.12 1.55l-1.1 1.87a34.58 34.58 0 00-3.89 10.27 35.49 35.49 0 007 29.44 8 8 0 00.73.86l.76.85.77.85.39.43c.13.14.28.26.42.39a36.69 36.69 0 0012 7.68l2.33.82c.78.26 1.6.41 2.41.62l1.21.3c.41.07.83.12 1.24.18.83.11 1.66.27 2.5.33a35.63 35.63 0 0019.93-4.07 35.57 35.57 0 0014.61-14.61 35.61 35.61 0 004.09-19.91c-.06-.84-.22-1.67-.33-2.5z" transform="translate(-324.92 -218.87)"/><circle class="cls-3" cx="499.53" cy="400.47" r="2.77" transform="rotate(-45 72.796 683.237)"/><g class="cls-6"><path class="cls-1" d="M661.23 392.51c-.19-3.61-.69-7.24-1.13-10.91-.24-1.82-.59-3.65-.89-5.49-.15-.92-.31-1.84-.47-2.76s-.4-1.83-.59-2.76a163 163 0 00-15.87-43.47A166.15 166.15 0 00629.49 307a163.34 163.34 0 00-33.85-33.85 169.45 169.45 0 00-20.13-12.79A163 163 0 00532 244.48l-2.75-.59-2.77-.48c-1.83-.3-3.66-.64-5.49-.89-3.66-.44-7.29-.94-10.91-1.14a163.81 163.81 0 00-59.35 6.62 165 165 0 00-30.3 12.63c-2.13 1.21-4.23 2.31-6.18 3.51l-5.61 3.51c-1.76 1.17-3.42 2.35-5 3.46-.79.56-1.58 1.09-2.32 1.63l-2.14 1.65-3.94 3.06c-1.21 1-2.3 2-3.35 2.84L389 282.7c-.87.76-1.61 1.5-2.3 2.14l-4.17 4 33.88 33.87s1-1 3-2.82c.49-.45 1-1 1.62-1.52l2-1.74c.74-.63 1.51-1.32 2.36-2l2.79-2.15 1.51-1.18c.53-.39 1.08-.75 1.64-1.15 1.14-.77 2.29-1.62 3.54-2.45l4-2.46c1.37-.85 2.87-1.61 4.36-2.47A114.85 114.85 0 01491.61 289a112.85 112.85 0 0115 .14c2.57.12 5.13.51 7.72.79 1.3.17 2.6.44 3.89.64l2 .32 1.95.43a115 115 0 0130.69 11.19 120.3 120.3 0 0114.21 9 116.1 116.1 0 0124 24 118.56 118.56 0 019 14.21 114.73 114.73 0 0111.19 30.69l.43 1.95.32 2c.21 1.31.47 2.6.64 3.89.29 2.6.68 5.16.8 7.73a114.59 114.59 0 01.13 15 120.3 120.3 0 01-3.38 22l48.93.05a171.71 171.71 0 002.27-19.38 161.33 161.33 0 00-.17-21.14zm-243.55-86.62l-1.46 1.26-15.89-18.83 1.73-1.49c.89-.73 1.8-1.42 1.8-1.42l15.32 19.29s-.76.58-1.5 1.19zm11.38-8.29c-.82.49-1.6 1.05-1.6 1.05l-13.72-20.47s.93-.67 1.92-1.26l1.95-1.22 13.09 20.86zm10.5-6.13l-11.34-21.86 4.12-2L443 289.77zm12.84-5.76l-8.84-23 4.3-1.62 8.14 23.26zm15.26-4.82l-1.86.5-6.23-23.82 2.21-.6 2.24-.51 5.51 24zm13.86-2.57l-1.32.15a5.18 5.18 0 00-.59.08L476 254.18a6.78 6.78 0 01.71-.1l1.57-.19 2.27-.27 2.84 24.47zm12.14-1l-.87-24.61 4.58-.11.13 24.63zm17.92.62l-.6-.07c-.37-.05-.84-.1-1.32-.12l-1.92-.14 1.85-24.61 2.29.16c.57 0 1.15.09 1.57.15l.71.08zm13.9 2.26l-1.88-.42c-.93-.22-1.88-.38-1.88-.38l4.54-24.21s1.13.18 2.24.45l2.25.49zm13.58 3.75l-3.66-1.18 7.18-23.57 4.37 1.41zm13.07 5.23s-.21-.11-.54-.25l-1.22-.53-1.76-.76 9.77-22.64 2.1.92 1.45.63c.4.17.65.3.65.3zm12.38 6.69l-1.62-1-1.67-.94 12.22-21.39 2 1.13 1.95 1.22zm11.59 8l-1.52-1.18-1-.81c-.28-.22-.49-.35-.49-.35l14.52-19.9.58.42 1.25 1 1.81 1.41zm10.63 9.25l-2.79-2.66 16.63-18.19 3.32 3.16zm9.59 10.34l-2.5-2.92 18.5-16.26 3 3.48zm8 10.83l-.76-1.08-1.09-1.57 20.23-14.14 1.31 1.89.9 1.3c.24.35.39.6.39.6l-20.6 13.51s-.12-.22-.32-.52zm7.35 12.7s-.43-.86-.84-1.72l-.94-1.67 21.62-11.8 1.13 2 1 2.06zm5 11.1c-.17-.46-.33-.9-.47-1.24s-.22-.56-.22-.56l22.83-9.29s.12.26.26.67.37.94.57 1.48l.81 2.14-23.08 8.62zm3.88 11.53l23.69-6.72 1.2 4.43-23.89 6zm3.4 15.64l-.32-1.9 24.3-4.06s.19 1.14.38 2.26.32 2.27.32 2.27l-24.4 3.33s-.08-.96-.23-1.9zm1.38 15.95v-1.92c0-.92-.09-1.93-.09-1.93l24.57-1.36s.1 1.15.11 2.29.06 2.29.06 2.29z" transform="translate(-324.92 -218.87)"/></g><g class="cls-6"><path class="cls-1" d="M587.57 498.74c-1.64 1.64-4.23 3.85-7.56 6.61a122.38 122.38 0 01-12.79 8.9 117.22 117.22 0 01-18.09 9 126.62 126.62 0 01-23 6.69 130.26 130.26 0 01-26.74 2.28 135.15 135.15 0 01-28.51-3.7c-2.4-.5-4.75-1.27-7.13-1.91s-4.7-1.55-7.06-2.31c-2.3-.93-4.65-1.75-6.93-2.76s-4.58-2-6.78-3.14a135.12 135.12 0 01-25-16 133.43 133.43 0 01-20.19-20.49 129.84 129.84 0 01-23.15-45 122.47 122.47 0 01-4-19.93l-.29-2.22-.17-2.15-.32-4.08c-.05-2.62-.21-5-.17-7.2s0-4.12.13-5.8l.27-4.28c.05-1.16.19-2 .25-2.65l.1-.91L358 386.3l-.11 1c-.07.66-.21 1.63-.27 2.9l-.3 4.7c-.11 1.85-.09 4-.14 6.36s.13 5 .19 7.9l.35 4.47.19 2.36.31 2.43a134.84 134.84 0 004.41 21.85A142.31 142.31 0 00388 489.64 145.83 145.83 0 00410.09 512a147.52 147.52 0 0027.32 17.55c2.41 1.28 4.94 2.3 7.42 3.43s5.06 2 7.58 3c2.58.84 5.13 1.78 7.72 2.53s5.17 1.54 7.8 2.09a147.69 147.69 0 0031.19 4 142.82 142.82 0 0029.31-2.5 139.18 139.18 0 0025.31-7.36 129.63 129.63 0 0019.94-10 134.88 134.88 0 0014.11-9.82c3.68-3 6.52-5.48 8.33-7.28l2.84-2.7-8.81-8.81z" transform="translate(-324.92 -218.87)"/></g><path class="cls-1" d="M617.84 524a12.79 12.79 0 00-1.48 1.39c-1.15 1.09-2.29 2.19-3.45 3.27-2.31 2.14-4.7 4.2-7.14 6.19A157.82 157.82 0 01557.26 562a169.11 169.11 0 01-73.32 8.46 172.33 172.33 0 01-119.58-67.79 168.14 168.14 0 01-29.51-139.16c5.07-21.74-1.88-19.21-6.49 3.5q-.57 2.83-1.05 5.68a173.83 173.83 0 0035.83 137.54A177.9 177.9 0 00484 576.12a174.76 174.76 0 0074-8.44 166.74 166.74 0 0033.78-16 185.83 185.83 0 0030-23.73c-1.11-1.11-2.2-2.23-3.31-3.33a4 4 0 00-.63-.62z" transform="translate(-324.92 -218.87)"/><path class="cls-2" d="M599.18 505.31c-.45-.45-1.1.64-1.45 1-2 1.94-4.09 3.86-6.23 5.69a136.13 136.13 0 01-62.5 30.12 145 145 0 01-105.6-20.46 152.32 152.32 0 01-27.74-23.14 143.29 143.29 0 01-29.5-47.52c-8.15-21.23-10.53-44.56-8-67.09A114.57 114.57 0 01362 365c2.92-10-16.79-20.2-20.16-8.68a164.73 164.73 0 00-3.68 74.68 161.09 161.09 0 0024.44 60.61 170.48 170.48 0 0036.06 39.11 164.5 164.5 0 0032.46 20 180.06 180.06 0 0035.82 12.06 165.58 165.58 0 0075.82-1.46 156.8 156.8 0 0062-32c3.32-2.81 6.47-5.79 9.62-8.79l-10.43-10.43zm-112.29 57a162.89 162.89 0 01-33.4-6.62 12.58 12.58 0 01-1.68-.59l.25-.78 1.17-3.62 2.77-8.6.36-1.12a139.92 139.92 0 0031.9 6.52zm35.64-.6h-.32a173.67 173.67 0 01-30 1l.86-14.49c0-.08 0-.35.07-.34l2.27.09c2.91.12 5.81.15 8.73.13a131 131 0 0018.26-1.43l3.18-.48a1.35 1.35 0 01.15.65l.81 4.9 1.51 9.11zm43.76-12.26l-.23.09a172.69 172.69 0 01-32.62 10.34c-.05 0-2.61-12.86-2.87-14.16l-.08-.41a133.77 133.77 0 0031-10l3.44 7.49 2.12 4.61.57 1.25c.18.34-1.05.66-1.33.79zm35.26-22c-.19.17-.4.34 0 0A134.18 134.18 0 01587 538.2c-1.09.7-14.28 8.5-14.41 8.24l-6.55-13-.13-.25a129.46 129.46 0 0027.18-18l5.33 6.28 3.28 3.87.89 1c.28.31-.79.91-1.05 1.12z" transform="translate(-324.92 -218.87)"/><path class="cls-3" d="M559.87 496.09c-.47.31-1.17.71-2 1.21l-2.8 1.71-3.32 1.79c-1.11.65-2.29 1.16-3.37 1.69s-2.08 1-3 1.4l-3 1.24 5 12.26 3.35-1.4c1-.41 2.13-1 3.36-1.58s2.55-1.18 3.81-1.9l3.74-2 3.17-1.93c.92-.57 1.71-1 2.24-1.37l.82-.57-7.3-11zM532.33 508.64c-.92.31-2 .58-3.2.87s-2.43.65-3.7.9l-3.74.75c-1.19.27-2.33.36-3.29.53l-2.33.36c-.28 0-.5.07-.66.08h-.23l1.58 13.13h.26c.17 0 .42 0 .74-.09l2.62-.4c1.08-.18 2.36-.3 3.69-.59l4.2-.84c1.43-.28 2.83-.7 4.16-1s2.56-.63 3.6-1l3.48-1.06-4.07-12.58zM506.73 512.82c-.57 0-1.39.11-2.37.09-2 0-4.58.08-7.21-.09s-5.24-.37-7.2-.51c-1-.06-1.79-.23-2.36-.29l-.89-.12-1.78 13.1 1 .14c.64.07 1.54.25 2.64.33 2.19.17 5.11.52 8 .58s5.86.1 8.06.1c1.1 0 2-.08 2.65-.1l1-.05-.68-13.21zM476 509.91c-1-.25-2.1-.43-3.27-.8l-3.73-1.06c-1.27-.35-2.5-.83-3.67-1.2s-2.27-.73-3.18-1.12l-3.06-1.19-5 12.25 3.42 1.33c1 .43 2.24.82 3.55 1.25s2.68.94 4.1 1.34l4.15 1.18c1.32.41 2.59.62 3.65.9l2.59.61a9.84 9.84 0 001 .21l2.65-13a7.9 7.9 0 01-.88-.19zM446.25 498.32c-1.06-.63-2.24-1.21-3.34-1.93l-3.26-2.06c-1.06-.63-2-1.36-2.78-1.91l-2-1.36c-.48-.32-.73-.53-.73-.53l-7.89 10.61s.29.23.82.59l2.18 1.53c.91.61 1.92 1.42 3.1 2.13l3.64 2.3c1.23.8 2.54 1.46 3.73 2.16s2.3 1.35 3.29 1.81l3.28 1.65 5.8-11.89-2.93-1.48c-.86-.41-1.83-1.02-2.91-1.62zM423.31 481.42c-.89-.85-1.87-1.73-2.75-2.72l-2.67-2.8c-.83-.91-1.55-1.8-2.2-2.54l-1.56-1.8c-.38-.43-.56-.7-.56-.7l-10.28 8.32s.21.3.63.79l1.74 2c.73.83 1.53 1.82 2.46 2.84l3 3.12c1 1.09 2.07 2.08 3.07 3l2.73 2.6 2.78 2.39 8.58-10.06-2.5-2.14zM407.15 462.1l-1.78-2.84c-.32-.52-.68-1-1-1.6l-.95-1.7c-.62-1.15-1.32-2.26-1.86-3.35l-1.49-3c-.45-.87-.81-1.6-1-2.13l-.36-.82-12.06 5.43.35.91c.24.59.64 1.42 1.14 2.39l1.67 3.35c.61 1.23 1.38 2.47 2.08 3.76l1.07 1.9c.36.62.76 1.21 1.12 1.79l2 3.17c.59.93 1.15 1.65 1.51 2.18l.58.82 10.82-7.6-.52-.74c-.29-.44-.79-1.09-1.32-1.92zM393.69 433.42l-1-3.7c-.39-1.25-.64-2.53-.91-3.72s-.55-2.3-.72-3.27l-.56-3.21-13 2.17.63 3.6c.19 1.08.52 2.32.81 3.66s.6 2.77 1 4.17l1.14 4.14 1.18 3.56c.65 2.1 1.21 3.45 1.21 3.45l12.4-4.59s-.5-1.21-1.08-3.08zM389.07 405.44c0-1.22-.13-2.53-.09-3.83s0-2.61.06-3.83.14-2.36.19-3.33l.14-2.36.1-.89-13.17-1.25-.11 1-.19 2.64c-.05 1.09-.19 2.37-.21 3.74s0 2.83-.07 4.29.08 2.92.1 4.29.06 2.65.18 3.74l.29 3.64 13.19-1.29-.26-3.25c-.1-.95-.12-2.09-.15-3.31z" transform="translate(-324.92 -218.87)"/><path class="cls-5" d="M676.63 384.22v.14c0 .03 0 .09 0 0v-.14-.46a173.44 173.44 0 00-2.56-26.15q-1.2-6.73-3-13.33c-.13-.5 0-.38.49-.5l1.53-.42 2.5-.68c-.86-3-1.73-6.07-2.75-9.07-1.33-3.94-2.83-7.8-4.34-11.68a182.25 182.25 0 00-9.8-19.61l-2.07 1.21-1.42.83a2.28 2.28 0 01-.65.38c-2.43-4.12-5-8.16-7.74-12.08a161.15 161.15 0 00-18-21.36l3.39-3.39a196.47 196.47 0 00-20.87-17.66 149.45 149.45 0 00-12.56-8.18c-.17-.1-1.24-.86-1.35-.67l-.76 1.31-1.59 2.76a157.44 157.44 0 00-39.25-16.27l.77-2.89.42-1.58c.1-.36-.81-.4-1.08-.48-4.86-1.29-9.8-2.21-14.75-3.09a182.39 182.39 0 00-27.51-2.28v4.82a5.42 5.42 0 000 1.82c.23.26 2.16.06 2.48.06l4.54.12c3.1.09 6.22.37 9.31.65a152.62 152.62 0 0133.21 7 161.25 161.25 0 01103.52 102.83 144.73 144.73 0 016.51 28c.62 4.91 1.26 9.87 1.4 14.82.07 2.31.12 4.63.18 6.94 0 .34-.15.73.24.73h1.63l-.08-2.67s.01.14.01.22z" transform="translate(-324.92 -218.87)"/></svg>