<svg preserveAspectRatio="none" id="Layer_1" data-name="Layer 1" xmlns="http://www.w3.org/2000/svg" viewBox="0 0 71.4 71.4"><defs><style>.cls-1{fill:#feb113;}.cls-2{opacity:0.9;}.cls-3{opacity:0.8;}.cls-4{opacity:0.7;}.cls-5{opacity:0.6;}.cls-6{opacity:0.5;}.cls-7{opacity:0.4;}.cls-8{opacity:0.3;}.cls-9{opacity:0.2;}.cls-10{opacity:0.1;}.cls-11{fill:#00b3ea;}.cls-12{fill:#065977;}</style></defs><title>circle40</title><path class="cls-1" d="M353.48,247.32l-0.06.26-0.12.69c0,0.29-.12.62-0.16,1L353,250.38c0,0.38-.06.77-0.09,1.13s0,0.7,0,1l0,1H347.3l0-1.15c0-.34,0-0.74.06-1.17s0.06-.89.11-1.35l0.17-1.34c0.05-.43.14-0.82,0.19-1.17l0.15-.82,0.07-.31Z" transform="translate(-346.39 -217.77)"/><path class="cls-1" d="M356.37,239.52l-0.44.86-0.21.42-0.22.48c-0.15.33-.32,0.68-0.46,1l-0.42,1.06-0.32.94c-0.09.28-.17,0.5-0.21,0.67l-0.07.26-5.3-1.55,0.09-.31c0.05-.2.14-0.47,0.25-0.8s0.24-.71.38-1.12l0.5-1.26c0.17-.43.37-0.85,0.54-1.24l0.26-.57,0.25-.5,0.53-1Z" transform="translate(-346.39 -217.77)"/><path class="cls-1" d="M361.34,232.85l-0.67.7c-0.2.21-.42,0.46-0.66,0.74s-0.5.56-.73,0.87a27.6,27.6,0,0,0-1.81,2.51l-4.65-3a33.27,33.27,0,0,1,2.15-3c0.28-.37.59-0.71,0.87-1s0.55-.63.79-0.88l0.79-.83Z" transform="translate(-346.39 -217.77)"/><path class="cls-1" d="M368,227.84l-0.84.48c-0.26.14-.53,0.33-0.84,0.52s-0.63.4-.95,0.63-0.64.44-.92,0.67l-0.78.61c-0.23.18-.41,0.34-0.54,0.45l-0.2.17-3.63-4.17,0.24-.21c0.15-.13.37-0.33,0.64-0.54l0.93-.73c0.34-.27.72-0.52,1.09-0.79s0.76-.52,1.12-0.75,0.7-.46,1-0.62l1-.57Z" transform="translate(-346.39 -217.77)"/><path class="cls-1" d="M375.76,224.91l-0.94.22-1,.27-0.54.16-0.55.18c-0.74.24-1.46,0.53-2,.75l-0.89.4-2.31-5,1.05-.47c0.64-.26,1.5-0.61,2.38-0.89l0.65-.22,0.64-.19,1.14-.32,1.12-.26Z" transform="translate(-346.39 -217.77)"/><g class="cls-2"><path class="cls-1" d="M384,224.28l-0.27,0c-0.17,0-.41,0-0.7,0l-1,0-1.13,0c-0.39,0-.77,0-1.13.07s-0.7,0-1,.09l-1,.12L377.08,219l1.14-.15c0.34,0,.74-0.07,1.17-0.11s0.89-.07,1.35-0.08l1.35,0,1.17,0c0.34,0,.63,0,0.83,0l0.32,0Z" transform="translate(-346.39 -217.77)"/></g><g class="cls-3"><path class="cls-1" d="M392.18,226l-0.25-.09-0.67-.23-0.45-.15-0.5-.15c-0.35-.1-0.72-0.21-1.1-0.3l-1.11-.26c-0.36-.08-0.69-0.13-1-0.18-0.57-.11-1-0.15-1-0.15l0.77-5.47s0.46,0.05,1.14.18c0.34,0.06.74,0.13,1.16,0.22l1.32,0.3c0.45,0.11.89,0.24,1.31,0.36l0.6,0.17,0.53,0.18,0.79,0.27,0.3,0.11Z" transform="translate(-346.39 -217.77)"/></g><g class="cls-4"><path class="cls-1" d="M399.5,230l-0.79-.56c-0.23-.17-0.52-0.35-0.83-0.55s-0.63-.41-1-0.6a27.55,27.55,0,0,0-2.75-1.43l2.28-5a33.17,33.17,0,0,1,3.27,1.7c0.4,0.22.79,0.48,1.15,0.71s0.7,0.45,1,.65l0.94,0.67Z" transform="translate(-346.39 -217.77)"/></g><g class="cls-5"><path class="cls-1" d="M405.41,235.8l-0.6-.76c-0.17-.23-0.41-0.48-0.64-0.76s-0.49-.57-0.76-0.84-0.53-.57-0.79-0.82l-0.72-.68c-0.21-.2-0.4-0.35-0.52-0.47l-0.2-.17,3.61-4.19,0.24,0.21c0.15,0.13.37,0.32,0.62,0.55l0.85,0.81c0.31,0.3.62,0.64,0.94,1s0.62,0.68.91,1,0.55,0.63.76,0.9l0.71,0.9Z" transform="translate(-346.39 -217.77)"/></g><g class="cls-6"><path class="cls-1" d="M409.44,243.08l-0.36-.9c-0.11-.27-0.26-0.58-0.4-0.91l-0.23-.51-0.26-.52c-0.34-.7-0.74-1.36-1-1.87s-0.52-.82-0.52-0.82l4.64-3s0.25,0.38.62,1,0.82,1.39,1.22,2.22l0.31,0.61L413.7,239c0.18,0.39.35,0.76,0.48,1.08l0.42,1.07Z" transform="translate(-346.39 -217.77)"/></g><g class="cls-7"><path class="cls-1" d="M411.25,251.2l0-.27c0-.17,0-0.41-0.07-0.7l-0.13-1c0-.36-0.12-0.74-0.19-1.12l-0.1-.57-0.12-.55c-0.08-.35-0.15-0.69-0.23-1l-0.26-.93,5.3-1.58,0.31,1.11c0.09,0.33.18,0.73,0.28,1.15l0.15,0.65,0.12,0.68c0.08,0.45.17,0.91,0.22,1.34l0.15,1.17c0,0.34.06,0.63,0.08,0.83l0,0.31Z" transform="translate(-346.39 -217.77)"/></g><g class="cls-8"><path class="cls-1" d="M410.73,259.49s0-.09.05-0.26l0.12-.69c0.11-.57.2-1.34,0.3-2.11s0.13-1.54.13-2.12l0-.7c0-.17,0-0.27,0-0.27l5.53,0s0,0.11,0,.32l0,0.83c0,0.69-.08,1.6-0.15,2.52s-0.22,1.83-.35,2.51l-0.15.82c0,0.2-.06.31-0.06,0.31Z" transform="translate(-346.39 -217.77)"/></g><g class="cls-9"><path class="cls-1" d="M407.87,267.31l0.44-.86c0.14-.26.27-0.57,0.42-0.9s0.32-.68.45-1a27.35,27.35,0,0,0,1-2.93l5.31,1.53a33,33,0,0,1-1.21,3.49c-0.16.43-.36,0.85-0.54,1.24s-0.34.76-.5,1.07l-0.53,1Z" transform="translate(-346.39 -217.77)"/></g><g class="cls-10"><path class="cls-1" d="M402.94,274l0.67-.7c0.2-.21.42-0.47,0.66-0.74l0.37-.42,0.36-.45c0.24-.31.49-0.6,0.69-0.9l0.57-.81c0.17-.24.29-0.45,0.39-0.59l0.14-.22,4.66,3-0.17.27c-0.11.17-.26,0.41-0.46,0.7l-0.68,1c-0.25.35-.54,0.71-0.82,1.07l-0.43.54-0.43.5c-0.29.32-.54,0.63-0.78,0.88l-0.79.83Z" transform="translate(-346.39 -217.77)"/></g><path class="cls-11" d="M353.83,253.47V254c0,0.34,0,.83.06,1.48a27.08,27.08,0,0,0,.95,5.55l0.26,0.9,0.31,0.93c0.1,0.32.23,0.64,0.36,1s0.25,0.66.41,1a27.27,27.27,0,0,0,2.26,4.16,28.48,28.48,0,0,0,7.93,8,28.78,28.78,0,0,0,5.76,3,28.2,28.2,0,0,0,6.74,1.62c0.3,0,.59.06,0.89,0.08l0.9,0.07,0.91,0h0.91l0.92,0,0.92-.06c0.62,0,1.23-.13,1.86-0.2a27.93,27.93,0,0,0,3.71-.8c0.62-.16,1.22-0.39,1.83-0.59l0.9-.35,0.45-.18,0.44-.2a28.26,28.26,0,0,0,6.7-4.18,28.32,28.32,0,0,0,7.41-9.6,28.78,28.78,0,0,0,1.49-3.86,29.17,29.17,0,0,0,.91-4.05,28.28,28.28,0,0,0,0-8.28,29.17,29.17,0,0,0-.91-4.05,28.14,28.14,0,0,0-3.51-7.44,28.36,28.36,0,0,0-5.39-6,28.26,28.26,0,0,0-6.7-4.18l-0.44-.2-0.45-.18-0.9-.35c-0.61-.2-1.22-0.43-1.83-0.59a28,28,0,0,0-3.71-.8c-0.62-.08-1.24-0.17-1.86-0.2l-0.92-.06-0.92,0h-0.91l-0.91,0-0.9.07c-0.3,0-.6,0-0.89.08a28.19,28.19,0,0,0-6.74,1.62,28.77,28.77,0,0,0-5.76,3,28.48,28.48,0,0,0-7.93,8,27.25,27.25,0,0,0-2.26,4.16c-0.16.33-.28,0.67-0.41,1s-0.26.64-.36,1l-0.31.93-0.26.9a27.08,27.08,0,0,0-.95,5.55c-0.06.65-.05,1.15-0.06,1.48v0.51h-0.3V253c0-.34,0-0.84.07-1.5a27.35,27.35,0,0,1,1-5.6l0.26-.91,0.32-.94c0.1-.32.23-0.64,0.36-1s0.26-.67.41-1a27.53,27.53,0,0,1,2.28-4.2,28.78,28.78,0,0,1,8-8.09,29.08,29.08,0,0,1,5.82-3,28.48,28.48,0,0,1,6.81-1.63c0.3,0,.6-0.06.9-0.09l0.91-.07,0.92,0h0.92l0.93,0,0.93,0.06c0.62,0,1.25.13,1.87,0.21A28.27,28.27,0,0,1,390,226c0.63,0.16,1.23.39,1.85,0.6l0.91,0.36,0.46,0.18,0.45,0.2a28.55,28.55,0,0,1,6.77,4.22,28.62,28.62,0,0,1,7.49,9.7,29.09,29.09,0,0,1,1.5,3.9,29.42,29.42,0,0,1,.92,4.09,28.59,28.59,0,0,1,0,8.37,29.43,29.43,0,0,1-.92,4.09,28.43,28.43,0,0,1-3.54,7.51,28.64,28.64,0,0,1-5.45,6.09,28.55,28.55,0,0,1-6.77,4.22l-0.45.2-0.46.18-0.91.36c-0.62.21-1.23,0.43-1.85,0.6a28.26,28.26,0,0,1-3.75.81c-0.63.08-1.25,0.17-1.87,0.21l-0.93.06-0.93,0h-0.92l-0.92,0-0.91-.07c-0.3,0-.6,0-0.9-0.08A28.47,28.47,0,0,1,372,280.2a29.08,29.08,0,0,1-5.82-3,28.78,28.78,0,0,1-8-8.1,27.52,27.52,0,0,1-2.28-4.2c-0.16-.33-0.28-0.68-0.41-1s-0.26-.65-0.36-1l-0.32-.94-0.26-.91a27.35,27.35,0,0,1-1-5.6c-0.06-.65-0.05-1.16-0.07-1.5v-0.51h0.3Z" transform="translate(-346.39 -217.77)"/><path class="cls-11" d="M346.69,253.47v0.63c0,0.42,0,1,.08,1.85a34.21,34.21,0,0,0,1.19,7l0.33,1.13,0.39,1.17c0.13,0.4.29,0.8,0.45,1.21s0.32,0.83.52,1.25a34.39,34.39,0,0,0,2.83,5.21,35.33,35.33,0,0,0,25.61,15.77c0.37,0.05.74,0.08,1.12,0.11l1.13,0.08,1.13,0h1.14l1.15,0c0.38,0,.77-0.05,1.15-0.08,0.77,0,1.55-.16,2.32-0.26a35.08,35.08,0,0,0,4.65-1c0.78-.21,1.53-0.48,2.3-0.74l1.13-.44,0.57-.23,0.56-.25a35.41,35.41,0,0,0,8.39-5.24,35.33,35.33,0,0,0,12.28-21.95,35.4,35.4,0,0,0,0-10.36,35.42,35.42,0,0,0-12.28-21.95,35.41,35.41,0,0,0-8.39-5.24l-0.56-.25-0.57-.23-1.13-.44c-0.77-.26-1.53-0.53-2.3-0.74a35.12,35.12,0,0,0-4.65-1c-0.78-.1-1.55-0.21-2.32-0.26-0.39,0-.77-0.06-1.15-0.08l-1.15,0h-1.14l-1.13,0-1.13.08c-0.37,0-.75.05-1.12,0.11a35.34,35.34,0,0,0-8.45,2,35.41,35.41,0,0,0-17.16,13.74,34.38,34.38,0,0,0-2.83,5.21c-0.19.42-.35,0.84-0.52,1.25s-0.32.81-.45,1.21l-0.39,1.17L348,244a34.21,34.21,0,0,0-1.19,7c-0.07.81-.06,1.43-0.08,1.85v0.63h-0.3v-0.64c0-.42,0-1,0.08-1.87a34.5,34.5,0,0,1,1.2-7l0.33-1.14,0.4-1.18c0.13-.4.29-0.81,0.46-1.22s0.32-.84.52-1.26a34.68,34.68,0,0,1,2.85-5.26A35.63,35.63,0,0,1,378.06,218c0.37-.05.75-0.08,1.13-0.11l1.14-.08,1.14,0h1.15l1.16,0c0.39,0,.77.05,1.16,0.08,0.78,0,1.56.16,2.34,0.26a35.4,35.4,0,0,1,4.69,1c0.78,0.21,1.55.48,2.32,0.75l1.14,0.44,0.57,0.23,0.56,0.25a35.71,35.71,0,0,1,8.46,5.28,35.75,35.75,0,0,1,9.36,12.13,36.21,36.21,0,0,1,1.88,4.88,36.62,36.62,0,0,1,1.15,5.12,35.74,35.74,0,0,1,0,10.45,36.62,36.62,0,0,1-1.15,5.12,35.62,35.62,0,0,1-4.43,9.4,35.8,35.8,0,0,1-6.8,7.61,35.71,35.71,0,0,1-8.46,5.28l-0.56.25-0.57.23-1.14.44c-0.77.26-1.54,0.54-2.32,0.75a35.4,35.4,0,0,1-4.69,1c-0.78.1-1.56,0.21-2.34,0.26-0.39,0-.78.06-1.16,0.08l-1.16,0h-1.15l-1.14,0-1.14-.08c-0.38,0-.75-0.05-1.13-0.11a35.63,35.63,0,0,1-8.53-2A35.7,35.7,0,0,1,352.23,273a34.66,34.66,0,0,1-2.85-5.26c-0.2-.42-0.36-0.84-0.52-1.26s-0.32-.82-0.46-1.22l-0.4-1.18L347.68,263a34.5,34.5,0,0,1-1.2-7c-0.07-.82-0.07-1.44-0.08-1.87v-0.64h0.3Z" transform="translate(-346.39 -217.77)"/><path class="cls-11" d="M377.31,235.05l0.42-.1c0.25-.06.58-0.14,0.92-0.19l0.49-.09,0.43-.06,0.42-.05-0.86-7.9,0.17,0,0.38,0,0.55,0L381.08,239l-0.51,0c-0.3,0-.71.08-1.11,0.16l-0.3.05-0.29.07c-0.18,0-.36.07-0.51,0.12l-0.49.14-3.6-11.91,1.05-.3Z" transform="translate(-346.39 -217.77)"/><path class="cls-11" d="M400.82,251.33a3.75,3.75,0,0,1,0,.42c0,0.25.06,0.59,0.06,0.93s0,0.68,0,.94v0.43l7.94,0.24v0.54l0,0.54-12.41-.87v-0.14a3.17,3.17,0,0,0,0-.37l0-.52c0-.19,0-0.4,0-0.6s0-.41,0-0.6l0-.27,0-.24-0.06-.5,12.3-1.89,0.14,1.08Z" transform="translate(-346.39 -217.77)"/><path class="cls-11" d="M381.57,272.36h-0.43l-0.93-.07-0.93-.11-0.3-.05-0.11,0-1.34,7.83-0.54-.1c-0.27,0-.53-0.11-0.53-0.11l2.6-12.17,0.13,0,0.36,0.06c0.3,0.07.7,0.1,1.1,0.16l0.6,0c0.19,0,.37,0,0.52,0a4.86,4.86,0,0,0,.51,0l0.17,12.44h-1.09Z" transform="translate(-346.39 -217.77)"/><path class="cls-11" d="M378.32,226.77l0.86,6.16-0.26,0-0.57.1c-0.41.06-.82,0.17-0.82,0.17l-1.36-6.07s0.53-.13,1.07-0.22l0.74-.13Z" transform="translate(-346.39 -217.77)"/><path class="cls-11" d="M408.89,253.47h-6.22l0-.83c0-.21,0-0.42,0-0.57l0-.26,6.2-.49,0,0.34c0,0.2,0,.47,0,0.74Z" transform="translate(-346.39 -217.77)"/><path class="cls-11" d="M378.34,280.05l0.86-6.16L380,274l0.83,0.06-0.37,6.21-1.08-.08Z" transform="translate(-346.39 -217.77)"/><path class="cls-12" d="M368.69,229.26l2,3.61-0.32.19c-0.2.12-.5,0.28-0.84,0.51l-0.55.35-0.6.42c-0.42.28-.83,0.63-1.26,1s-0.83.7-1.19,1.06l-0.53.51-0.45.47c-0.29.29-.5,0.55-0.66,0.73l-0.24.28,1.08,0.91-0.11.13-0.3.39c-0.13.17-.3,0.36-0.46,0.6s-0.37.51-.57,0.81a21.92,21.92,0,0,0-3.59,9.87c-0.07.72-.12,1.32-0.12,1.75l0,0.66h-5.54l0-1.26c0-.4.06-0.89,0.1-1.45,0-.28.07-0.58,0.11-0.89s0.08-.64.14-1a26.62,26.62,0,0,1,1.17-4.57,27.66,27.66,0,0,1,5.47-9.26,28.08,28.08,0,0,1,6.16-5.16c0.34-.21.62-0.36,0.81-0.47Zm-11.34,21.42a0.7,0.7,0,1,0-.12,1.4,0.71,0.71,0,0,0,.76-0.64A0.72,0.72,0,0,0,357.35,250.68Zm0.4-2.44a0.68,0.68,0,0,0-.83.56,0.69,0.69,0,0,0,.57.82,0.71,0.71,0,0,0,.82-0.56,0.69,0.69,0,0,0-.12-0.52A0.71,0.71,0,0,0,357.75,248.24Zm0.64-2.39a0.71,0.71,0,0,0-.54,0,0.71,0.71,0,0,0,.15,1.3,0.71,0.71,0,0,0,.87-0.48,0.7,0.7,0,0,0-.06-0.52A0.71,0.71,0,0,0,358.39,245.84Zm0.87-2.31a0.7,0.7,0,1,0-.53,1.3A0.7,0.7,0,0,0,359.26,243.53Zm1.1-2.22a0.7,0.7,0,1,0-.65,1.24A0.7,0.7,0,0,0,360.36,241.31Zm1.32-2.1a0.7,0.7,0,1,0-.77,1.17A0.7,0.7,0,0,0,361.68,239.22Z" transform="translate(-346.39 -217.77)"/><path class="cls-12" d="M407.57,242.67l-3.8,1.61-0.15-.34c-0.1-.21-0.23-0.53-0.41-0.89s-0.39-.79-0.65-1.22c-0.13-.22-0.25-0.45-0.39-0.67l-0.44-.68a23.37,23.37,0,0,0-1.8-2.37l-0.36-.42-0.29-.31-0.26-.27-1,1-0.12-.13c-0.08-.08-0.19-0.2-0.35-0.35L397,237.1l-0.75-.65a22,22,0,0,0-9.45-4.61c-0.35-.09-0.68-0.13-1-0.19s-0.54-.09-0.75-0.11l-0.66-.08,0.15-1.4L385,226l1.26,0.16,1.43,0.25,0.87,0.2,0.47,0.11,0.49,0.14c0.33,0.1.68,0.18,1,.31l1.09,0.37,1.13,0.45c0.38,0.16.77,0.34,1.16,0.52a27.61,27.61,0,0,1,11.5,10.15c0.38,0.57.68,1.14,1,1.62s0.48,0.93.66,1.29Zm-20.12-13.52a0.7,0.7,0,1,0-1.38-.26A0.7,0.7,0,0,0,387.45,229.16Zm2.39,0.65a0.7,0.7,0,1,0-1.34-.4A0.7,0.7,0,0,0,389.84,229.81Zm2.31,0.89a0.7,0.7,0,1,0-1.3-.53A0.7,0.7,0,0,0,392.15,230.69Zm2.21,1.11a0.7,0.7,0,1,0-1.24-.66A0.7,0.7,0,0,0,394.36,231.81Zm2.09,1.33a0.7,0.7,0,1,0-1.17-.78A0.7,0.7,0,0,0,396.45,233.13Zm1.95,1.53a0.7,0.7,0,1,0-1,.09A0.7,0.7,0,0,0,398.39,234.66Z" transform="translate(-346.39 -217.77)"/><path class="cls-12" d="M388.25,280.44l-0.92-4,0.36-.08c0.23,0,.56-0.14.95-0.25a23.12,23.12,0,0,0,2.8-1l0.74-.33c0.24-.11.47-0.24,0.7-0.35,0.46-.22.86-0.47,1.21-0.67s0.63-.4.83-0.52l0.31-.2-0.79-1.17,0.54-.38c0.17-.12.38-0.27,0.61-0.45l0.37-.29,0.2-.16,0.2-.17a22.45,22.45,0,0,0,3.61-3.88l0.42-.59c0.14-.2.26-0.4,0.39-0.6,0.27-.39.48-0.81,0.71-1.2s0.41-.79.59-1.16,0.34-.73.47-1.07,0.26-.64.36-0.92l0.24-.72c0.07-.2.11-0.36,0.14-0.47l0-.17,1.35,0.39,4,1.14-0.09.32c-0.05.21-.16,0.51-0.29,0.89l-0.21.63-0.29.73c-0.19.53-.47,1.1-0.75,1.73a28.55,28.55,0,0,1-2.4,4.06,27.8,27.8,0,0,1-7.81,7.39,28.2,28.2,0,0,1-4.19,2.17l-0.92.36-0.85.29c-0.53.19-1,.31-1.39,0.43l-0.52.14-0.39.09ZM405.09,263a0.7,0.7,0,1,0,.5-1.31A0.7,0.7,0,0,0,405.09,263ZM404,265.24a0.7,0.7,0,1,0,.63-1.25A0.7,0.7,0,0,0,404,265.24Zm-1.28,2.12a0.69,0.69,0,0,0,1-.21,0.68,0.68,0,0,0-.23-1,0.71,0.71,0,0,0-.53-0.08,0.69,0.69,0,0,0-.44.3A0.71,0.71,0,0,0,402.76,267.36Zm-1.48,2a0.7,0.7,0,1,0,.86-1.11A0.7,0.7,0,0,0,401.27,269.34Zm-1.67,1.82a0.7,0.7,0,1,0,1-1A0.7,0.7,0,0,0,399.6,271.17Zm-1.84,1.65a0.68,0.68,0,0,0,1,.08,0.69,0.69,0,0,0,.07-1,0.72,0.72,0,0,0-1-.08,0.69,0.69,0,0,0-.23.47A0.71,0.71,0,0,0,397.76,272.82Z" transform="translate(-346.39 -217.77)"/><path class="cls-11" d="M359.67,277.88a1.32,1.32,0,0,0,.94.36,1.3,1.3,0,0,0,.9-0.37l0.42,0.36,0.56,0.44c0.38,0.29.75,0.59,1.14,0.85,0.77,0.56,1.58,1.06,2.39,1.55a30.94,30.94,0,0,0,5.16,2.41,32.2,32.2,0,0,0,11.18,1.91,31.86,31.86,0,0,0,20.85-8c0.26-.21.49-0.44,0.73-0.67l0.72-.68-0.18-.18-0.71.68c-0.24.22-.47,0.46-0.72,0.66a31.62,31.62,0,0,1-20.68,7.93,31.94,31.94,0,0,1-11.09-1.9,30.72,30.72,0,0,1-5.12-2.39c-0.81-.48-1.61-1-2.37-1.54-0.39-.26-0.76-0.56-1.13-0.85l-0.56-.43-0.42-.36a1.39,1.39,0,0,0,.24-0.93,1.34,1.34,0,0,0-2.31-.78A1.33,1.33,0,0,0,359.67,277.88Z" transform="translate(-346.39 -217.77)"/><path class="cls-11" d="M391.2,250.77a0.31,0.31,0,0,0-.1-0.21,0.3,0.3,0,0,0-.21-0.09v-0.13l0-.17c0-.11,0-0.22,0-0.33s-0.09-.44-0.14-0.65a7.23,7.23,0,0,0-.45-1.25,7.53,7.53,0,0,0-1.53-2.16,7.44,7.44,0,0,0-4.76-2.12h-0.46v0.06h0.46a7.38,7.38,0,0,1,4.72,2.11,7.46,7.46,0,0,1,1.52,2.15,7.19,7.19,0,0,1,.45,1.24c0.05,0.21.1,0.43,0.14,0.65s0,0.22,0,.33l0,0.16v0.13a0.33,0.33,0,0,0-.19.11,0.31,0.31,0,0,0,.25.51A0.31,0.31,0,0,0,391.2,250.77Z" transform="translate(-346.39 -217.77)"/><rect class="cls-11" x="358.83" y="263.3" width="12.03" height="1.35" transform="translate(-430.96 17.51) rotate(-32.23)"/><path class="cls-1" d="M386.55,254.65l0-.18c0-.1,0-0.22.06-0.34l0-.09v-0.64l7.4,0.37v0.64l0,0.34c0,0.23-.06.47-0.09,0.68l-0.05.31c0,0.1,0,.2-0.05.26l-0.11.46Z" transform="translate(-346.39 -217.77)"/><path class="cls-1" d="M385.92,256.1l0.1-.16a2.46,2.46,0,0,0,.2-0.36,3,3,0,0,0,.17-0.37l0.06-.17,7,2.44-0.16.45a9.9,9.9,0,0,1-.42,1,9,9,0,0,1-.5.91l-0.25.4Z" transform="translate(-346.39 -217.77)"/><path class="cls-1" d="M384.83,257.25l0.15-.11,0.3-.28c0.11-.1.2-0.22,0.28-0.3a0.84,0.84,0,0,0,.12-0.14l5.8,4.61a4.23,4.23,0,0,1-.3.36c-0.19.21-.44,0.5-0.71,0.76s-0.56.51-.77,0.7l-0.37.29Z" transform="translate(-346.39 -217.77)"/><path class="cls-1" d="M383.43,258l0.17-.06,0.18-.06,0.2-.09a2.65,2.65,0,0,0,.36-0.19l0.16-.1,4,6.25-0.4.25a9.42,9.42,0,0,1-.92.48l-0.51.23-0.46.17-0.45.16Z" transform="translate(-346.39 -217.77)"/><path class="cls-1" d="M381.9,258.23H382l0.41,0,0.4-.06,0.13,0h0l1.68,7.21-0.13,0-0.34.07-1,.16c-0.37,0-.75,0-1,0.06h-0.65Z" transform="translate(-346.39 -217.77)"/><path class="cls-1" d="M380.3,257.93l0.17,0.06c0.1,0,.25.07,0.39,0.11a2.68,2.68,0,0,0,.35.07l0.15,0L381,265.6l-0.58-.07-0.6-.09-0.32-.06-0.28-.07c-0.37-.09-0.74-0.18-1-0.28l-0.45-.16Z" transform="translate(-346.39 -217.77)"/><path class="cls-1" d="M378.92,257.15l0.15,0.11a2.91,2.91,0,0,0,.33.23,4,4,0,0,0,.52.28l-3.16,6.7-0.43-.21c-0.26-.12-0.58-0.33-0.9-0.52a9.9,9.9,0,0,1-.85-0.6l-0.37-.29Z" transform="translate(-346.39 -217.77)"/><path class="cls-1" d="M377.88,255.94l0.1,0.16c0.06,0.09.16,0.21,0.24,0.33s0.2,0.22.27,0.31l0.09,0.1,0,0-5.19,5.29-0.09-.09-0.23-.25c-0.19-.21-0.45-0.48-0.68-0.78s-0.46-.6-0.61-0.84l-0.25-.4Z" transform="translate(-346.39 -217.77)"/><path class="cls-1" d="M377.29,254.47l0,0.18a2.62,2.62,0,0,0,.12.39,3.27,3.27,0,0,0,.15.38l0.08,0.17L371,258.87l-0.2-.43a10.41,10.41,0,0,1-.38-1,9.27,9.27,0,0,1-.3-1L370,256Z" transform="translate(-346.39 -217.77)"/><path class="cls-1" d="M377.23,252.82V253l0,0.54c0-.16,0,0,0-0.08h0v0.38a1,1,0,0,0,0,.18l-7.35.91,0-.13c0-.08,0-0.2,0-0.34l0-.48v-0.54h0v-0.3l0-.54v-0.1l0-.18,0-.16Z" transform="translate(-346.39 -217.77)"/><path class="cls-1" d="M377.68,251.36l-0.08.17a3.24,3.24,0,0,0-.15.38,2.62,2.62,0,0,0-.12.39l0,0.18L370,250.93l0.11-.46a9.26,9.26,0,0,1,.3-1,10.4,10.4,0,0,1,.38-1l0.2-.43Z" transform="translate(-346.39 -217.77)"/><path class="cls-1" d="M378.61,250.07l0,0-0.09.1c-0.07.09-.18,0.19-0.27,0.31s-0.18.24-.24,0.33l-0.1.16-6.33-3.85,0.25-.4c0.16-.24.38-0.54,0.61-0.84s0.49-.57.68-0.78l0.23-.25,0.09-.09Z" transform="translate(-346.39 -217.77)"/><path class="cls-1" d="M379.92,249.17a4,4,0,0,0-.52.28,2.94,2.94,0,0,0-.33.23l-0.15.11-4.72-5.71,0.37-.29a9.84,9.84,0,0,1,.85-0.6c0.32-.2.64-0.4,0.9-0.52l0.43-.21Z" transform="translate(-346.39 -217.77)"/><path class="cls-1" d="M381.44,248.74l-0.18,0a2.86,2.86,0,0,0-.4.07c-0.14,0-.29.06-0.39,0.11l-0.17.06-2.57-6.95,0.45-.16c0.27-.1.64-0.18,1-0.28a9.74,9.74,0,0,1,1-.19l0.47-.07Z" transform="translate(-346.39 -217.77)"/><path class="cls-12" d="M377.75,253.48s0-.12,0,0.1v-0.09h0Z" transform="translate(-346.39 -217.77)"/><path class="cls-12" d="M382.05,257.67h0Z" transform="translate(-346.39 -217.77)"/><path class="cls-12" d="M381.94,249.28h0Z" transform="translate(-346.39 -217.77)"/><path class="cls-12" d="M386.14,253.45v-0.09h0s0-.11,0-0.19,0-.1,0-0.16l0-.19c0-.07,0-0.14,0-0.22l-0.06-.25a4,4,0,0,0-.53-1.18,4.29,4.29,0,0,0-1.18-1.19,4.4,4.4,0,0,0-.86-0.43l-0.23-.09-0.25-.06-0.12,0-0.1,0-0.19,0-0.17,0h-0.47a4.07,4.07,0,0,0-.55,0,4,4,0,0,0-1.09.31,4.49,4.49,0,0,0-1,.62,4.72,4.72,0,0,0-.8.9,4.65,4.65,0,0,0-.52,1.1l-0.08.3,0,0.07v0.06l0,0.11,0,0.11a0.19,0.19,0,0,0,0,0v0.18l0,0.38v0.29a1.66,1.66,0,0,0,0,.31,4.3,4.3,0,0,0,.13.6,4.65,4.65,0,0,0,.52,1.1,4.72,4.72,0,0,0,.8.9,4.49,4.49,0,0,0,1,.62,2,2,0,0,0,.27.1,1.77,1.77,0,0,0,.27.09l0.27,0.07,0.21,0a4.19,4.19,0,0,0,.69.06h0.19c0.09,0,.18,0,0.27,0a4.34,4.34,0,0,0,1.85-.68,4.29,4.29,0,0,0,1.18-1.19,4,4,0,0,0,.53-1.18l0.06-.25c0-.07,0-0.12,0-0.17l0-.14a0.54,0.54,0,0,0,0-.11v-0.12l0-.34h0v0Zm-0.42.46a0.46,0.46,0,0,1,0,.1l0,0.11s0,0.08,0,.14l-0.06.22a3.64,3.64,0,0,1-.48,1.06,3.9,3.9,0,0,1-1.07,1.08,4,4,0,0,1-1.67.61c-0.08,0-.16,0-0.24,0H382a3.66,3.66,0,0,1-.65-0.06h-0.08l-0.09,0-0.25-.06a1.55,1.55,0,0,1-.24-0.08,1.8,1.8,0,0,1-.24-0.09,4.1,4.1,0,0,1-.9-0.56,4.35,4.35,0,0,1-.73-0.81,4.29,4.29,0,0,1-.47-1,4,4,0,0,1-.12-0.54,1.43,1.43,0,0,1,0-.28v-0.25h0l0-.36V253a0.12,0.12,0,0,1,0,0l0-.09v-0.14l0-.07c0-.09,0-0.18.07-0.27a4.29,4.29,0,0,1,.47-1,4.34,4.34,0,0,1,.73-0.81,4.09,4.09,0,0,1,.9-0.56,3.65,3.65,0,0,1,1-.28,3.69,3.69,0,0,1,.5,0h0.6l0.15,0h0.08l0.11,0,0.22,0.05,0.21,0.08a4,4,0,0,1,.77.39,3.89,3.89,0,0,1,1.07,1.08,3.63,3.63,0,0,1,.48,1.06l0.06,0.22c0,0.07,0,.14,0,0.2l0,0.17a1.44,1.44,0,0,1,0,.15c0,0.13,0,.21,0,0.25l0,0.34v0.12Z" transform="translate(-346.39 -217.77)"/><path class="cls-12" d="M394.53,254.24v0.12c0,0.05,0,.05,0,0.19s0,0.46-.09.72l-0.06.41,0,0.21c0,0.07,0,.15,0,0.2-0.06.24-.12,0.49-0.19,0.75a12.44,12.44,0,0,1-1.61,3.56,12.6,12.6,0,0,1-9.13,5.62c-0.26,0-.53,0-0.8.06l-0.4,0h-0.63l-0.41,0s-0.5,0-.83-0.08l-0.52-.08-0.49-.09-0.83-.21c-0.28-.07-0.55-0.17-0.82-0.27s-0.55-.19-0.81-0.32a12.9,12.9,0,0,1-3-1.86,12.62,12.62,0,0,1-4-6,12.77,12.77,0,0,1-.4-1.81,8.4,8.4,0,0,1-.1-0.92l0-.46V253.5a2.49,2.49,0,1,1,0-.35l0-.47v-0.31c0-.19,0-0.38.07-0.58s0.05-.38.09-0.57l0-.29,0.05-.23q0.11-.45.23-0.9a12.62,12.62,0,0,1,4-6,12.9,12.9,0,0,1,3-1.86,12.8,12.8,0,0,1,4.93-1.08h1.33l1,0.13,0.24,0,0.23,0,0.38,0.09,0.75,0.2,0.72,0.25a12.53,12.53,0,0,1,6.11,4.89,12.44,12.44,0,0,1,1.61,3.56q0.11,0.39.19,0.75c0.05,0.24.08,0.46,0.12,0.67l0.08,0.58c0,0.18,0,.34,0,0.48,0,0.58,0,.88,0,0.88H395s0-.32,0-0.91c0-.15,0-0.31,0-0.5l-0.08-.6c0-.21-0.07-0.45-0.12-0.69s-0.12-.5-0.19-0.77a12.83,12.83,0,0,0-1.66-3.67,12.93,12.93,0,0,0-6.31-5l-0.74-.26-0.77-.2-0.39-.09-0.23,0-0.25,0c-0.34-.05-0.68-0.1-1-0.13h-1.36a13.2,13.2,0,0,0-5.09,1.12,13.29,13.29,0,0,0-3.09,1.92,13,13,0,0,0-4.1,6.2q-0.13.46-.24,0.93l-0.06.24-0.05.3q0,0.3-.09.6t-0.07.6v0.31l0,0.47a2.77,2.77,0,1,0,0,.37v0.45l0,0.48a8.78,8.78,0,0,0,.11.95,13.19,13.19,0,0,0,.41,1.87,13,13,0,0,0,4.1,6.2,13.29,13.29,0,0,0,3.09,1.92c0.27,0.13.55,0.23,0.83,0.33s0.56,0.21.85,0.28l0.85,0.22,0.51,0.09,0.54,0.08,0.54,0.06,0.31,0,0.41,0h0.66l0.42,0c0.28,0,.55,0,0.82-0.06a13,13,0,0,0,9.42-5.8,12.84,12.84,0,0,0,1.66-3.67c0.07-.27.14-0.53,0.19-0.77l0-.09,0-.11,0-.22,0.06-.42c0-.27.07-0.52,0.09-0.75s0-.14,0-0.19v-0.12l0-.45-0.4,0Z" transform="translate(-346.39 -217.77)"/><path class="cls-11" d="M378.88,253.47h0c0,0.33,0,.09,0,0.16h0v-0.15h0Z" transform="translate(-346.39 -217.77)"/><path class="cls-11" d="M381.95,256.54h0Z" transform="translate(-346.39 -217.77)"/><path class="cls-11" d="M384.44,254l-0.15,0a2.28,2.28,0,0,0,0-.47,2.23,2.23,0,0,0-.3-1.12l0.14-.1c0.25-.19.41-0.33,0.41-0.33l-0.05-.09a1.46,1.46,0,0,0-.15-0.22,3,3,0,0,0-.24-0.29c0-.05-0.11-0.09-0.16-0.14l-0.08-.08-0.09-.06a3.18,3.18,0,0,0-.69-0.41l-0.25-.09-0.1,0s-0.09.19-.21,0.49l-0.09.25a2.14,2.14,0,0,0-.79,0l-0.08-.3c-0.08-.31-0.16-0.51-0.16-0.51h-0.1l-0.26.06a0.8,0.8,0,0,0-.17.06l-0.18.07a3.81,3.81,0,0,0-.73.44l-0.15.13a0.8,0.8,0,0,0-.13.12c-0.07.09-.14,0.14-0.18,0.2l-0.06.08s0.15,0.16.38,0.37l0.31,0.28a2.23,2.23,0,0,0-.27.64l-0.43-.05-0.54,0a0.24,0.24,0,0,0,0,.05V253a0.05,0.05,0,0,0,0,0v0.08l0,0.37v0.13c0,0.07,0,.14,0,0.21s0,0.14,0,.22a1,1,0,0,0,0,.21,2,2,0,0,0,.05.2,2.86,2.86,0,0,0,.14.34,1.48,1.48,0,0,0,.12.23l0.05,0.09,0.48-.21,0.37-.19a2.26,2.26,0,0,0,.48.54l-0.18.34-0.17.35-0.06.13,0.09,0.05a1.3,1.3,0,0,0,.23.13l0.16,0.08,0.19,0.06,0.1,0,0.1,0,0.2,0.05,0.1,0h0.72a1.3,1.3,0,0,0,.26,0h0.1v-0.14c0-.09,0-0.22,0-0.39s0-.17,0-0.27a2.23,2.23,0,0,0,.75-0.27l0.15,0.17c0.21,0.23.36,0.38,0.36,0.38l0.08-.06,0.09-.07,0.11-.1a2.89,2.89,0,0,0,.52-0.62,3.34,3.34,0,0,0,.34-0.72c0-.11,0-0.19.06-0.26v0h0S384.74,254,384.44,254Z" transform="translate(-346.39 -217.77)"/></svg>