<svg preserveAspectRatio="none" xmlns="http://www.w3.org/2000/svg" viewBox="0 0 116.88 116.9"><defs><style>.cls-4{fill:#fff}.cls-3{mix-blend-mode:overlay}</style></defs><g style="isolation:isolate"><g id="Layer_3" data-name="Layer 3"><circle cx="707.78" cy="208.59" r="3.79" transform="rotate(-.75 -11090.567 49736.437)" style="mix-blend-mode:overlay" fill="#fff"/><g class="cls-3"><path class="cls-4" d="M716.06 202.47l-.26-.33a10.33 10.33 0 00-.74-.83 11.07 11.07 0 00-2.72-1.95c-.28-.11-.54-.28-.83-.37l-.83-.29-.8-.19a5.68 5.68 0 00-.73-.11 6.47 6.47 0 00-1.1-.09h-.42l-.18-15.31h1a20.51 20.51 0 012.72.22c.56.09 1.18.14 1.81.3l2 .49c.68.22 1.37.46 2.07.72s1.38.6 2.06.92a26.36 26.36 0 016.72 4.82 25.39 25.39 0 011.82 2l.63.82zM717.12 212.94l.18-.38c.1-.25.21-.61.37-1a11.56 11.56 0 00.4-3.32c0-.31 0-.62-.07-.91s-.1-.59-.14-.87a11.3 11.3 0 00-.46-1.49 6.14 6.14 0 00-.23-.58l-.22-.43-.18-.38 13.29-7.46s.18.33.47.93l.53 1.07c.21.41.37.91.58 1.44a26.29 26.29 0 011.11 3.72c.13.7.25 1.42.36 2.16s.12 1.49.17 2.24a26.85 26.85 0 01-1 8.21c-.36 1.08-.67 2-.93 2.58l-.43.95zM723.82 220.8l.8-1.1.7-1.17 4.69 2.66s-.43.75-.89 1.48l-1 1.4zM720.84 224l1-.93.37-.34.29-.32.29-.32 4 3.6-.36.4-.37.41-.46.44-1.27 1.17zM717.24 226.4l.38-.19.8-.5.79-.5.34-.25 3.15 4.37s-.17.13-.44.32l-1 .64-1 .62-.48.25z" transform="translate(-649.32 -150.15)"/><path class="cls-4" d="M703.27 217.86l.27.12.32.15.45.15.55.2.68.16a4.16 4.16 0 00.78.14 4.77 4.77 0 00.87.09 10.11 10.11 0 004.12-.6 10.31 10.31 0 004-2.61 10.25 10.25 0 002.69-8.26 11.78 11.78 0 00-.76-2.84l-.49-1 6.65-3.73.23.46c.14.3.38.73.63 1.3a19.31 19.31 0 011.32 5 17.86 17.86 0 01-4.79 14.36 18 18 0 01-6.91 4.54 17.76 17.76 0 01-7.15 1 11 11 0 01-1.52-.15 9.75 9.75 0 01-1.36-.24l-1.18-.29-1-.34c-.29-.11-.56-.19-.78-.28l-.56-.26-.46-.22zM707.66 199.58s-.36 0-1 .07a10.4 10.4 0 00-2.48.67 8.91 8.91 0 00-3 2.1 8.86 8.86 0 00-2.31 7.75 8.77 8.77 0 001.33 3.36 5.07 5.07 0 00.45.62c.08.1.14.2.21.29l.24.24c.16.15.27.33.42.44l.39.34a4.43 4.43 0 00.58.44l.21.16-2.71 4-.32-.23a8 8 0 01-.88-.68l-.6-.53c-.22-.19-.41-.44-.65-.68l-.36-.38c-.11-.14-.22-.29-.33-.43a9.15 9.15 0 01-.69-1 13.62 13.62 0 01-2.05-5.18 13.7 13.7 0 013.55-11.91 13.76 13.76 0 014.56-3.22 15.16 15.16 0 013.82-1l1.51-.11z" transform="translate(-649.32 -150.15)"/><path class="cls-4" d="M690.42 197.27l-.3.51c-.19.34-.5.81-.82 1.45a21.6 21.6 0 00-1.9 5.62 20.63 20.63 0 00.17 8.34 21.12 21.12 0 004.22 8.58 20.87 20.87 0 007.61 5.77 20.34 20.34 0 008.16 1.77 15.13 15.13 0 001.76-.06l.82-.06.76-.12c.49-.08 1-.15 1.38-.24l1.15-.31A12.12 12.12 0 00715 228l.55-.21 1.82 4.49-.68.26a16.15 16.15 0 01-2 .64l-1.42.38c-.52.11-1.09.2-1.7.3l-.94.14-1 .07a19.64 19.64 0 01-2.17.07 25.2 25.2 0 01-10.02-2.14 25.56 25.56 0 01-14.59-17.7 25.47 25.47 0 01-.21-10.29A26.54 26.54 0 01685 197c.39-.79.78-1.38 1-1.79l.38-.62z" transform="translate(-649.32 -150.15)"/><path class="cls-4" d="M707.57 192.67l-1.73.12a17.16 17.16 0 00-4.39 1.19 15.81 15.81 0 00-5.25 3.7 15.76 15.76 0 00-4.08 13.68 15.71 15.71 0 002.36 6 10.85 10.85 0 00.79 1.1c.13.17.25.34.39.5l.41.43c.27.27.49.56.75.78l.68.6a10 10 0 001 .79l.37.27-1.47 2.17-.43-.31a12.21 12.21 0 01-1.18-.91L695 222c-.29-.25-.56-.58-.87-.9l-.47-.51c-.15-.18-.3-.38-.45-.58a13.33 13.33 0 01-.92-1.28 18.29 18.29 0 01-2.75-6.94 18.38 18.38 0 014.76-15.93 18.45 18.45 0 016.11-4.3 19.83 19.83 0 015.12-1.39c.64-.07 1.14-.08 1.49-.11h.53z" transform="translate(-649.32 -150.15)"/></g><g class="cls-3"><path class="cls-4" d="M717.89 187.29a9 9 0 00-.88-.39c-.28-.12-.62-.27-1-.41l-.64-.24-.72-.22a23.74 23.74 0 00-3.5-.78 24 24 0 00-8.14.24 26.23 26.23 0 00-3.42 1c-1 .38-1.77.74-2.32 1l-.86.44-16.83-30.53 2.1-1.09a58.18 58.18 0 0114.25-5 58.84 58.84 0 0120.22-.61 58.58 58.58 0 018.62 1.93l1.77.56c.56.19 1.08.39 1.58.57 1 .35 1.84.71 2.53 1 1.4.58 2.16 1 2.16 1zM731.34 207.28l-.08-1c-.06-.61-.18-1.47-.37-2.49a27.45 27.45 0 00-1-3.42 24.24 24.24 0 00-1.77-3.72 23.45 23.45 0 00-2.36-3.36 27.16 27.16 0 00-2.49-2.54c-.8-.67-1.49-1.2-2-1.55l-.79-.54 18.76-29.37 2 1.33c1.24.86 3 2.16 5 3.86a61.71 61.71 0 016.22 6.33 58.35 58.35 0 015.83 8.28 59.16 59.16 0 014.33 9.14 61.9 61.9 0 012.45 8.52A62.66 62.66 0 01766 203l.18 2.37zM753.31 215.93l.16-1 .25-2.13c.05-.78.11-1.56.15-2.14s0-1 0-1l12.33.34v1.24c0 .74-.14 1.76-.2 2.76l-.31 2.7-.19 1.22zM750.69 225.51l.34-.91c.21-.55.47-1.28.7-2l.34-1.09.26-1 .25-.94 12 2.93-.31 1.19-.33 1.22-.43 1.38c-.29.95-.62 1.88-.88 2.57l-.47 1.14zM746.07 234.3l.54-.81 1.11-1.84 1-1.89c.27-.52.43-.87.43-.87l11.07 5.42s-.21.45-.55 1.11-.82 1.53-1.3 2.39l-1.37 2.33-.69 1z" transform="translate(-649.32 -150.15)"/><path class="cls-4" d="M708.68 232.17h.17a4.57 4.57 0 00.5 0l.8-.06 1.08-.14c.4-.06.84-.15 1.33-.23s1-.21 1.54-.38a21.45 21.45 0 003.58-1.32 23.78 23.78 0 007.67-5.65 22.4 22.4 0 003.1-4.39 23.18 23.18 0 002.09-5.17 23.72 23.72 0 00.38-10.87 24.23 24.23 0 00-3.74-8.77 24 24 0 00-4.58-4.92c-.64-.5-1.15-.89-1.52-1.12l-.55-.38 9.36-14.77 1 .65c.64.42 1.54 1.08 2.65 2 .54.46 1.17.94 1.79 1.53.31.29.65.59 1 .91l1 1a42.74 42.74 0 014.21 5.14 40.85 40.85 0 017.27 24.55 41.22 41.22 0 01-5 18.53 39.74 39.74 0 01-5.41 7.65 41.25 41.25 0 01-13.3 9.82 38.78 38.78 0 01-6.23 2.3c-.95.29-1.86.46-2.69.67s-1.62.31-2.32.41-1.33.18-1.88.24l-1.4.11h-1.17zM697.83 190.55l-.51.31c-.34.18-.81.5-1.41.9a20.94 20.94 0 00-4.27 4 20.58 20.58 0 00-3.74 7.43 21 21 0 00-.72 4.67 21.76 21.76 0 00.39 4.82 21.29 21.29 0 001.53 4.6 20.23 20.23 0 002.48 4 20.61 20.61 0 0011.86 7.39c.35.08.66.15.94.18s.51.1.7.11l.59.06-1.15 11-.9-.1c-.29 0-.65-.1-1.07-.17s-.9-.16-1.44-.28a31.67 31.67 0 01-18.24-11.39 32.16 32.16 0 01-6.14-13.27 32.75 32.75 0 01-.61-7.44 32.13 32.13 0 011.1-7.16 31.67 31.67 0 015.78-11.32 32 32 0 016.59-6.2c.91-.62 1.63-1.09 2.15-1.37l.78-.46z" transform="translate(-649.32 -150.15)"/><path class="cls-4" d="M660.58 204.45l-.09 1.34c0 .44-.07 1-.07 1.62v2.19c0 .82 0 1.73.14 2.72s.2 2.05.35 3.19a49 49 0 001.74 7.48 47.35 47.35 0 0067 27.61 46.47 46.47 0 006.49-4.07c.47-.33.9-.68 1.31-1s.82-.66 1.19-1c.73-.67 1.43-1.25 2-1.83 1.19-1.14 2-2.1 2.64-2.75.3-.32.5-.59.65-.76l.22-.27 8.51 7.08-.27.33c-.18.21-.44.54-.81.94-.73.81-1.79 2-3.26 3.4-.72.72-1.57 1.45-2.48 2.27-.46.4-1 .79-1.47 1.21s-1 .85-1.62 1.26a57.57 57.57 0 01-8 5 58.5 58.5 0 01-61.3-4.49 58.45 58.45 0 01-21.38-29.56 60.09 60.09 0 01-2.15-9.24c-.19-1.4-.36-2.71-.44-3.93s-.14-2.34-.17-3.35 0-1.92 0-2.71 0-1.45.09-2c.08-1.08.11-1.66.11-1.66z" transform="translate(-649.32 -150.15)"/><path class="cls-4" d="M690.21 176.71l-.9.52c-.59.33-1.42.87-2.47 1.58a36.53 36.53 0 00-15.44 28.46 37.48 37.48 0 00.7 8.55 36.89 36.89 0 007.05 15.24 36.39 36.39 0 0021 13.1c.62.14 1.17.25 1.65.32s.89.16 1.23.19l1 .12-.62 5.95-1.2-.14c-.39 0-.87-.13-1.43-.22s-1.21-.21-1.92-.37a42.37 42.37 0 01-24.41-15.25 42.86 42.86 0 01-8.22-17.76 43.38 43.38 0 01-.81-10 42.3 42.3 0 0118-33.14c1.21-.83 2.18-1.45 2.87-1.84l1-.61z" transform="translate(-649.32 -150.15)"/></g><g class="cls-3"><path class="cls-4" d="M684.92 181.45s-.42.32-1.08 1c-.34.31-.75.68-1.2 1.15-.22.23-.47.47-.71.73l-.76.84a35.73 35.73 0 00-3.25 4.29 35.88 35.88 0 00-4.76 11.31 38 38 0 00-.79 5.31c-.1 1.57-.1 2.89-.06 3.81l.07 1.44-8.8.67-.09-1.8a44.08 44.08 0 011.06-11.39 44.26 44.26 0 0110-19.48l.95-1c.31-.33.61-.62.89-.91.55-.58 1.07-1 1.49-1.43.84-.78 1.35-1.19 1.35-1.19zM720.71 175.53l-1.36-.49c-.87-.3-2.12-.68-3.65-1.05a39.19 39.19 0 00-5.31-.79 36.18 36.18 0 00-6.17.1 35.4 35.4 0 00-6.06 1.13 38.73 38.73 0 00-5 1.83c-1.43.67-2.58 1.29-3.37 1.76l-1.23.75-4.8-7.41 1.54-.94c1-.59 2.43-1.37 4.21-2.2a47.57 47.57 0 016.31-2.3 44.21 44.21 0 017.56-1.41 45 45 0 017.68-.12 48 48 0 016.64 1c1.91.46 3.48.94 4.57 1.31l1.69.62zM730.62 174.32l-.72-.48-1.64-1-1.69-.91c-.46-.24-.78-.38-.78-.38l1.37-2.81s.34.16.84.41l1.81 1 1.76 1.07.78.52zM737.43 180l-.62-.61c-.37-.37-.87-.86-1.39-1.32l-.76-.69-.69-.57-.67-.55 1.93-2.45.77.59.7.6.82.74c.57.49 1.1 1 1.5 1.42l.66.66zM742.87 187l-.46-.74-1.08-1.59-1.15-1.53c-.32-.41-.55-.67-.55-.67l2.41-2s.25.29.59.73l1.24 1.65 1.16 1.71.49.8z" transform="translate(-649.32 -150.15)"/><path class="cls-4" d="M740.6 222.09l.1-.24c.07-.16.17-.39.27-.7l.42-1.14c.15-.45.3-1 .49-1.57s.33-1.25.51-2 .34-1.51.44-2.36a33.3 33.3 0 00.43-5.73 35.71 35.71 0 00-3-14 34.19 34.19 0 00-4.08-7 35 35 0 00-5.76-6.07 35.65 35.65 0 00-14.65-7.3 35.53 35.53 0 00-23.94 2.84c-1.09.56-1.94 1-2.49 1.38l-.86.53-2.4-3.71 1-.59c.63-.4 1.58-.93 2.81-1.56a39.8 39.8 0 0135.5-.12 40.11 40.11 0 0114.37 12 38.64 38.64 0 014.58 7.88 40.11 40.11 0 013.32 15.74 37.71 37.71 0 01-.48 6.44c-.12 1-.34 1.83-.5 2.65s-.38 1.55-.58 2.22-.38 1.25-.55 1.76l-.47 1.28c-.12.35-.23.61-.31.79l-.11.27zM673.14 211.22l.1 1c0 .65.19 1.58.39 2.77a34.86 34.86 0 0018.59 24.68 35.79 35.79 0 007.7 2.78 35.22 35.22 0 0016-.09 34.74 34.74 0 0019.67-13c.36-.48.68-.92.93-1.31s.49-.71.65-1l.51-.85 2.42 1.42-.55.92c-.18.3-.43.65-.71 1.07s-.61.9-1 1.42a37.52 37.52 0 01-21.26 14.06 38 38 0 01-17.32.09 38.68 38.68 0 01-8.32-3 38 38 0 01-7.17-4.7 37.32 37.32 0 01-12.92-22c-.22-1.28-.37-2.29-.42-3l-.11-1.06z" transform="translate(-649.32 -150.15)"/><path class="cls-4" d="M687.31 244.72l1 .56c.34.19.76.41 1.26.64s1.08.54 1.75.8 1.39.6 2.21.88 1.71.58 2.67.88a43 43 0 006.59 1.34 41.49 41.49 0 0046.39-43.39 40.59 40.59 0 00-.88-6.66c-.09-.49-.22-1-.33-1.41s-.22-.89-.34-1.31c-.27-.83-.48-1.6-.73-2.27-.47-1.36-.93-2.4-1.23-3.1-.14-.36-.29-.62-.37-.8l-.13-.27 2.53-1.22.14.29c.09.19.24.47.39.85.33.76.81 1.86 1.32 3.31.27.72.5 1.54.78 2.42.13.44.24.91.37 1.4s.26 1 .36 1.51a43.25 43.25 0 01.94 7.11 44.36 44.36 0 01-22.4 40.88 44.33 44.33 0 01-27.12 5.44 45.94 45.94 0 01-7-1.43c-1-.31-2-.6-2.85-.94s-1.66-.64-2.37-.94-1.32-.61-1.86-.86-1-.49-1.35-.69l-1.11-.6z" transform="translate(-649.32 -150.15)"/><path class="cls-4" d="M669.15 211.52l.11 1.1c.06.72.21 1.76.44 3.08a38.86 38.86 0 0020.73 27.53 39.82 39.82 0 008.59 3.11 39.23 39.23 0 0017.87-.1 38.73 38.73 0 0021.94-14.51c.41-.54.76-1 1-1.46s.55-.8.73-1.11l.57-.94 1.31.77-.59 1c-.19.32-.46.7-.76 1.15s-.66 1-1.08 1.52a40.25 40.25 0 01-22.8 15.08 40.74 40.74 0 01-18.56.1 41.32 41.32 0 01-8.93-3.23A40.17 40.17 0 01668.21 216c-.24-1.37-.4-2.46-.46-3.2l-.12-1.14z" transform="translate(-649.32 -150.15)"/></g></g></g></svg>