<svg preserveAspectRatio="none" id="Layer_1" data-name="Layer 1" xmlns="http://www.w3.org/2000/svg" viewBox="0 0 119.45 120.57"><defs><style>.cls-1{fill:#fe6a13;}.cls-2{fill:#08e5db;}.cls-3{fill:#067773;}.cls-4{fill:#00eadb;}</style></defs><title>circle26</title><circle class="cls-1" cx="17.88" cy="48.4" r="2.04"/><circle class="cls-1" cx="26.6" cy="31.13" r="2.04"/><circle class="cls-1" cx="41.91" cy="19.08" r="2.04"/><circle class="cls-1" cx="60.91" cy="15.01" r="2.04"/><circle class="cls-1" cx="79.7" cy="19.57" r="2.04"/><circle class="cls-1" cx="94.91" cy="31.57" r="2.04"/><path class="cls-2" d="M139.59,221.26L139.31,220c-0.1-.4-0.19-0.9-0.36-1.47l-0.56-2a55.87,55.87,0,0,0-5-11.66c-0.64-1.15-1.39-2.3-2.16-3.49s-1.65-2.36-2.6-3.53a57.7,57.7,0,0,0-6.47-6.9,56.52,56.52,0,0,0-37.6-14.53,58.81,58.81,0,0,0-9.42.74l-2.2.39-2.11.48c-0.69.15-1.36,0.35-2,.54s-1.31.36-1.93,0.58a56.36,56.36,0,0,0-11.57,5.24c-0.67.38-1.23,0.77-1.74,1.09s-0.93.59-1.26,0.84l-1,.73-1.38-1.92,1.07-.76c0.34-.25.79-0.53,1.31-0.87s1.12-.73,1.81-1.13A58.73,58.73,0,0,1,66.1,177c0.65-.23,1.33-0.41,2-0.61s1.38-.4,2.11-0.56l2.2-.5,2.29-.41a61.27,61.27,0,0,1,9.81-.77,58.88,58.88,0,0,1,39.17,15.14,59.93,59.93,0,0,1,6.74,7.18c1,1.22,1.86,2.47,2.71,3.68s1.59,2.43,2.25,3.63a58.25,58.25,0,0,1,5.26,12.14l0.58,2.06c0.17,0.6.27,1.12,0.38,1.53l0.29,1.28Z" transform="translate(-23.85 -174.12)"/><path class="cls-3" d="M53.53,233.06l0,0.56c0,0.37,0,.92.07,1.62a28.8,28.8,0,0,0,1,6l0.28,1,0.34,1c0.1,0.35.25,0.69,0.39,1s0.27,0.72.44,1.08a29,29,0,0,0,2.45,4.52,31.13,31.13,0,0,0,8.65,8.73,31.63,31.63,0,0,0,6.26,3.21,30.62,30.62,0,0,0,7.31,1.75c0.32,0.05.65,0.06,1,.09l1,0.08,1,0,0.5,0h0.5l1,0c0.34,0,.67-0.05,1-0.07,0.68,0,1.34-.14,2-0.22a30.12,30.12,0,0,0,4-.87c0.67-.17,1.32-0.42,2-0.63l1-.38,0.49-.19,0.48-.22A30.73,30.73,0,0,0,104,256.6a30.92,30.92,0,0,0,5.88-6.57,30.5,30.5,0,0,0,4.79-12.46,30.74,30.74,0,0,0,0-9,32.28,32.28,0,0,0-1-4.39A31.67,31.67,0,0,0,112,220a32,32,0,0,0-2.19-3.89,30.92,30.92,0,0,0-5.88-6.57A30.72,30.72,0,0,0,96.69,205l-0.48-.22-0.49-.19-1-.38c-0.67-.21-1.31-0.47-2-0.63a30.13,30.13,0,0,0-4-.87c-0.68-.08-1.34-0.19-2-0.22-0.34,0-.67-0.06-1-0.07l-1,0h-0.5l-0.5,0-1,0-1,.07c-0.33,0-.65,0-1,0.09a30.62,30.62,0,0,0-7.31,1.75,31.57,31.57,0,0,0-6.26,3.21,31.13,31.13,0,0,0-8.65,8.73,29,29,0,0,0-2.45,4.52c-0.18.36-.3,0.72-0.44,1.08s-0.29.7-.39,1l-0.34,1-0.28,1a28.8,28.8,0,0,0-1,6c-0.07.7,0,1.25-.07,1.62l0,0.56H51.84l0-.59c0-.39,0-1,0.07-1.71A30.44,30.44,0,0,1,53,224.41l0.29-1,0.36-1.06c0.11-.37.27-0.73,0.41-1.1s0.28-.76.47-1.14a30.76,30.76,0,0,1,2.58-4.76,32.81,32.81,0,0,1,9.12-9.21,33.31,33.31,0,0,1,6.6-3.39,32.27,32.27,0,0,1,7.71-1.85c0.34-.05.68-0.07,1-0.09l1-.08,1,0,0.53,0h0.53l1.06,0c0.35,0,.71.05,1.06,0.08,0.71,0,1.42.15,2.13,0.23a31.91,31.91,0,0,1,4.24.92c0.71,0.18,1.39.45,2.1,0.67l1,0.41,0.52,0.2,0.51,0.23a32.41,32.41,0,0,1,7.68,4.79,32.56,32.56,0,0,1,6.2,6.93,32.2,32.2,0,0,1,4,8.51,34.06,34.06,0,0,1,1,4.63,32.47,32.47,0,0,1,0,9.54,34.06,34.06,0,0,1-1,4.63,32.2,32.2,0,0,1-4,8.51,32.58,32.58,0,0,1-6.2,6.92,32.39,32.39,0,0,1-7.68,4.79l-0.51.23-0.52.2-1,.4c-0.7.22-1.39,0.49-2.1,0.67a31.89,31.89,0,0,1-4.24.92c-0.71.08-1.42,0.2-2.13,0.23-0.36,0-.71.06-1.06,0.08l-1.06,0H84.2l-0.53,0-1,0-1-.08c-0.34,0-.69,0-1-0.1a32.26,32.26,0,0,1-7.71-1.85,33.29,33.29,0,0,1-6.6-3.39,32.81,32.81,0,0,1-9.12-9.21A30.74,30.74,0,0,1,54.55,246c-0.19-.38-0.32-0.76-0.47-1.14s-0.3-.73-0.41-1.1l-0.36-1.06-0.29-1a30.43,30.43,0,0,1-1.08-6.35c-0.08-.74-0.05-1.32-0.07-1.71l0-.59h1.69Z" transform="translate(-23.85 -174.12)"/><path class="cls-1" d="M91.52,208.44L91,208.3c-0.32-.11-0.81-0.19-1.38-0.34a27.72,27.72,0,0,0-4.29-.54l-1.19,0-1.15,0c-0.74.06-1.43,0.09-2,.18-0.29,0-.56.06-0.8,0.1l-0.61.11-0.53.09-0.64-3.14,0.6-.1,0.68-.13c0.26-.05.57-0.07,0.9-0.12,0.65-.11,1.43-0.14,2.26-0.21l1.29,0,1.33,0a30.86,30.86,0,0,1,4.82.6c0.64,0.16,1.18.25,1.55,0.38l0.58,0.17Z" transform="translate(-23.85 -174.12)"/><path class="cls-1" d="M102.83,215.37l-0.37-.4-1-1A26.36,26.36,0,0,0,98,211.38a27.25,27.25,0,0,0-3.81-2l-0.75-.29a5.5,5.5,0,0,0-.58-0.22l-0.51-.17,1-3,0.57,0.19a6.86,6.86,0,0,1,.65.24l0.84,0.33a30.6,30.6,0,0,1,4.29,2.25,29.82,29.82,0,0,1,3.88,2.94l1.16,1.11,0.42,0.44Z" transform="translate(-23.85 -174.12)"/><path class="cls-1" d="M109.19,227l0-.14a3.68,3.68,0,0,0-.1-0.38l-0.17-.59a7.84,7.84,0,0,0-.23-0.76,24,24,0,0,0-1.67-4,26.8,26.8,0,0,0-2.32-3.64c-0.37-.46-0.66-0.86-0.9-1.11l-0.35-.41,2.39-2.13,0.4,0.46c0.27,0.28.6,0.73,1,1.25a30,30,0,0,1,2.61,4.09,27.3,27.3,0,0,1,1.88,4.46c0.12,0.31.19,0.6,0.26,0.86l0.19,0.67a4.43,4.43,0,0,1,.11.43l0,0.15Z" transform="translate(-23.85 -174.12)"/><path class="cls-1" d="M108.88,240.28l0.15-.52,0.08-.27,0.07-.33,0.18-.78a27.89,27.89,0,0,0,.52-4.29c0-.4,0-0.79,0-1.18s0-.78,0-1.15c-0.06-.74-0.09-1.43-0.19-2s-0.16-1.07-.22-1.4l-0.07-.39a1,1,0,0,0,0-.14l3.14-.65a1.35,1.35,0,0,1,0,.16l0.08,0.44c0.07,0.38.18,0.92,0.25,1.58s0.14,1.43.21,2.26c0,0.42,0,.85,0,1.29s0,0.88,0,1.33a31,31,0,0,1-.59,4.82l-0.2.88-0.08.37-0.09.31-0.17.58Z" transform="translate(-23.85 -174.12)"/><path class="cls-1" d="M101.93,251.65l0.39-.37,1-1a26.69,26.69,0,0,0,2.61-3.45,27.4,27.4,0,0,0,2-3.81c0.2-.55.41-1,0.51-1.32l0.17-.51,3,1-0.19.57c-0.11.37-.34,0.87-0.57,1.49a30.49,30.49,0,0,1-2.26,4.29,30,30,0,0,1-2.94,3.88c-0.46.48-.84,0.89-1.11,1.16l-0.44.42Z" transform="translate(-23.85 -174.12)"/><path class="cls-1" d="M90.3,258l0.14,0a3.65,3.65,0,0,0,.39-0.1l0.59-.17a8,8,0,0,0,.76-0.23,24.08,24.08,0,0,0,4-1.67,26.83,26.83,0,0,0,3.64-2.32c0.46-.37.86-0.66,1.11-0.9l0.41-.35,2.13,2.39L103,255c-0.28.27-.73,0.6-1.25,1a30,30,0,0,1-4.1,2.61,27.17,27.17,0,0,1-4.46,1.88c-0.31.12-.6,0.19-0.86,0.26l-0.67.19c-0.18.06-.33,0.08-0.43,0.11l-0.15,0Z" transform="translate(-23.85 -174.12)"/><path class="cls-1" d="M77,257.68l0.52,0.15c0.32,0.11.81,0.19,1.38,0.33a27.77,27.77,0,0,0,4.29.53c0.4,0,.79,0,1.19,0l1.15,0c0.74-.06,1.43-0.09,2-0.19,0.29,0,.56-0.05.8-0.11l0.61-.11,0.39-.07,0.14,0,0.65,3.14-0.16,0-0.44.08-0.68.13c-0.26.06-.57,0.07-0.9,0.12-0.65.11-1.43,0.14-2.26,0.21l-1.29,0c-0.44,0-.88,0-1.33,0a31.05,31.05,0,0,1-4.82-.59c-0.64-.16-1.19-0.25-1.55-0.38l-0.58-.17Z" transform="translate(-23.85 -174.12)"/><path class="cls-1" d="M65.7,250.77l0.37,0.4,1,1a26,26,0,0,0,3.45,2.61,27.2,27.2,0,0,0,3.82,2L75.12,257l0.31,0.13,0.27,0.09,0.51,0.17-1,3-0.57-.19-0.3-.1L74,260l-0.84-.33a30.46,30.46,0,0,1-4.29-2.24A29.41,29.41,0,0,1,65,254.53c-0.49-.45-0.89-0.84-1.17-1.1L63.38,253Z" transform="translate(-23.85 -174.12)"/><path class="cls-3" d="M70.67,287.06l0.6-2.4L72,284.83,72.92,285l0.58,0.13,0.67,0.12,1.59,0.28c0.58,0.11,1.23.17,1.92,0.27L78.77,286l1.16,0.09c0.8,0.06,1.65.14,2.55,0.14a53.74,53.74,0,0,0,12.91-1.14A52.88,52.88,0,0,0,111.08,279a53.17,53.17,0,0,0,21.54-68.13c-0.41-.94-0.9-1.85-1.36-2.77-0.23-.46-0.5-0.9-0.75-1.35l-0.77-1.34a55.24,55.24,0,0,0-3.52-5.07,53.18,53.18,0,0,0-80-4.51c-0.53.56-1.07,1.1-1.57,1.67l-1.47,1.7-1.36,1.72c-0.44.57-.84,1.16-1.25,1.73a52.9,52.9,0,0,0-8.35,19.15,55.52,55.52,0,0,0-1.12,8.29c0,1-.05,1.7-0.07,2.2l0,0.75H23.85l0.05-2.32c0-.74.09-1.64,0.16-2.66s0.22-2.19.38-3.45c0.07-.63.19-1.28,0.31-2s0.23-1.38.39-2.09l0.5-2.19c0.17-.75.41-1.5,0.62-2.26A59.89,59.89,0,0,1,40.4,191.53c0.44-.46.86-0.9,1.27-1.31l1.19-1.14c0.74-.72,1.43-1.3,2-1.79s1-.87,1.31-1.11l0.48-.38,2.94,3.69,1-.8c0.33-.27.76-0.56,1.26-0.92l0.81-.57,0.45-.31,0.49-.31a56.27,56.27,0,0,1,11.71-5.89,57.06,57.06,0,0,1,8.46-2.31c0.77-.13,1.54-0.29,2.33-0.4l2.4-.3,2.46-.19c0.83-.06,1.67-0.06,2.51-0.09a56.33,56.33,0,0,1,10.4.83A55.35,55.35,0,0,1,113.94,186a56,56,0,0,1,14.81,13.63,57.75,57.75,0,0,1,4.7,7.39l0.91,1.78c0.28,0.59.54,1.17,0.8,1.73l0.38,0.84,0.33,0.83,0.62,1.59c0.37,1,.7,2,1,2.93s0.51,1.76.71,2.53c0.36,1.54.65,2.76,0.78,3.6l0.23,1.28,3.33-.54,0.1,0.59,0.22,1.67L143,227l0.11,1.41,0.12,1.6,0.05,1.78c0.05,1.24,0,2.58,0,4,0,0.71-.1,1.44-0.15,2.18L143,239.09l-0.14,1.15-0.15,1.17c0,0.39-.1.79-0.18,1.18L142.1,245l-0.55,2.41c-0.19.81-.44,1.6-0.66,2.4a60.39,60.39,0,0,1-3.52,9.09,62.33,62.33,0,0,1-4.26,7.35c-1.41,2-2.69,3.68-3.63,4.78L128,272.72l1.91,1.74s-0.59.63-1.64,1.72-2.62,2.58-4.6,4.25a64.13,64.13,0,0,1-7.19,5.17,63,63,0,0,1-9.08,4.58c-0.81.31-1.61,0.65-2.43,0.93l-2.44.82-2.44.7c-0.8.23-1.62,0.39-2.41,0.58a59.88,59.88,0,0,1-8.77,1.3c-0.65,0-1.27.11-1.85,0.12l-1.67,0c-1,0-2,0-2.72,0s-1.35,0-1.75-.06l-0.62,0,0.38-5.95-1.58-.12c-0.47,0-1-.1-1.61-0.18s-1.22-.15-1.85-0.25l-1.84-.33L73,287.59l-0.75-.17Zm52.08-9,1-.87c0.25-.22.5-0.44,0.68-0.62l0.3-.29-2.31-2.46-0.28.27c-0.17.16-.4,0.38-0.64,0.58l-0.95.82Zm-4.06,3.18,1.08-.78,1-.82L118.73,277l-1,.77-1,.73ZM114.37,284s0.58-.32,1.14-0.69l1.12-.72-1.85-2.82-1.06.68c-0.52.35-1.07,0.65-1.07,0.65Zm-4.55,2.44,0.37-.18,0.82-.42,1.18-.61-1.59-3-1.12.57-0.77.39-0.35.17Zm-4.75,2,1.24-.49,0.85-.34,0.38-.16-1.33-3.1-0.36.15-0.8.32-1.17.46Zm-4.91,1.6,1.28-.37c0.32-.09.64-0.19,0.88-0.27l0.4-.13-1.05-3.21-0.37.13c-0.22.08-.52,0.17-0.83,0.26l-1.21.35Zm-5,1.17,0.41-.07c0.25,0,.57-0.1.9-0.18l1.3-.3L97,287.44l-1.23.28c-0.31.08-.62,0.12-0.85,0.17l-0.39.07ZM90,292l0.41,0,0.91-.11,1.32-.17-0.48-3.34-1.25.16-0.86.11-0.39,0Zm-5.14.27,1.32,0,0.91,0,0.41,0-0.18-3.37-0.39,0-0.86,0-1.25,0Z" transform="translate(-23.85 -174.12)"/><path class="cls-2" d="M37.93,233.07h6.41l0,0.59c0,0.39,0,1,.05,1.68a42.79,42.79,0,0,0,.78,5.93,39.87,39.87,0,0,0,7.59,16.32,38.56,38.56,0,0,0,6.84,6.86,39.78,39.78,0,0,0,7.15,4.5,43.14,43.14,0,0,0,5.55,2.21l1.61,0.46c0.37,0.11.57,0.15,0.57,0.15l0.65-2.59,1.67,0.38c0.54,0.09,1.19.22,1.94,0.34s1.6,0.23,2.54.28a37.31,37.31,0,0,0,13.57-1.42,36.84,36.84,0,0,0,6.76-2.76,37.74,37.74,0,0,0,8.77-6.43c0.39-.38.68-0.7,0.88-0.91l0.31-.32-2-1.89,0.19-.2,0.51-.59c0.45-.5,1.06-1.26,1.75-2.18a34.82,34.82,0,0,0,4.14-7.38l0.42-1.07c0.13-.36.25-0.73,0.37-1.08,0.27-.71.43-1.44,0.64-2.13,0.09-.35.16-0.7,0.24-1s0.17-.67.22-1l0.17-1,0.08-.45c0-.15,0-0.3.06-0.44,0.06-.58.16-1.1,0.19-1.57l0.09-1.22c0-.34,0-0.6,0-0.79v-0.28l0.45-.73c0.28-.44.59-1,0.93-1.66l0.25-.47,0.22-.46,0.38-.82,0.27-.59a2.46,2.46,0,0,0,.1-0.23l-0.1-.74-0.11-.89c-0.05-.35-0.13-0.75-0.21-1.19a37,37,0,0,0-2.1-7.21l-0.22-.55-0.25-.55-0.51-1.13c-0.39-.74-0.76-1.53-1.22-2.29s-0.94-1.54-1.44-2.34-1.09-1.55-1.71-2.31a36.7,36.7,0,0,0-9-8.17A36.14,36.14,0,0,0,99,198.84a38.86,38.86,0,0,0-5.68-1.91,38,38,0,0,0-5.53-.94l-1.32-.1c-0.43,0-.86,0-1.28,0-0.84,0-1.66,0-2.44,0-0.39,0-.77,0-1.14.07l-1.09.08-2,.26-1.74.31-1.46.34c-0.88.21-1.56,0.44-2,.56l-0.71.24,0.78,2.35-0.36.12c-0.24.09-.59,0.18-1,0.37A35.07,35.07,0,0,0,63.71,205,35.38,35.38,0,0,0,59,209.18a34.81,34.81,0,0,0-6.52,9.77l-0.24.54c-0.07.18-.14,0.35-0.21,0.52l-0.38,1c-0.22.61-.39,1.16-0.55,1.6L50.68,224l-2.39-.64-0.12.41-0.25,1.08-0.17.72-0.14.82-0.16.87c-0.05.3-.08,0.6-0.12,0.91l-0.12.91c0,0.3,0,.6-0.08.89,0,0.58-.11,1.11-0.1,1.57,0,0.92,0,1.54,0,1.54H33l0-.73c0-.48,0-1.19.07-2.12a53.56,53.56,0,0,1,1.08-8,51,51,0,0,1,8-18.46c0.4-.55.78-1.12,1.21-1.67l1.31-1.66,1.41-1.64c0.48-.55,1-1.07,1.51-1.61a51.24,51.24,0,0,1,77.09,4.35,53.19,53.19,0,0,1,3.4,4.89l0.75,1.29c0.24,0.43.5,0.85,0.72,1.3,0.45,0.88.92,1.76,1.31,2.67a51.26,51.26,0,0,1,3.66,11.22,52.08,52.08,0,0,1-.55,22.77,51.35,51.35,0,0,1-39,37.56,51.87,51.87,0,0,1-12.45,1.1c-0.87,0-1.69-.08-2.46-0.14L79,284.08l-1-.13c-0.67-.09-1.29-0.15-1.85-0.26l-1.54-.27-0.65-.12-0.56-.13-0.87-.2-0.71-.17,0.74-2.94,1.11,0.26c0.72,0.19,1.8.37,3.17,0.61,0.69,0.1,1.45.19,2.28,0.3s1.74,0.14,2.7.22a50.53,50.53,0,0,0,6.49-.11,47.78,47.78,0,0,0,15.7-4,48.34,48.34,0,0,0,27.64-34.48,50,50,0,0,0,.91-7.63,48.74,48.74,0,0,0-.89-11.44c-0.13-.68-0.29-1.28-0.4-1.81L131,221l-0.17-.6-0.31-1.1-3.83,1.13,0.29,1,0.15,0.55,0.15,0.67c0.11,0.48.25,1,.37,1.66a44.75,44.75,0,0,1,.82,10.5,45.94,45.94,0,0,1-.83,7,44.86,44.86,0,0,1-2.25,7.54,44.4,44.4,0,0,1-23.11,24.09,43.76,43.76,0,0,1-14.39,3.68,46.62,46.62,0,0,1-6,.1c-0.88-.07-1.71-0.12-2.48-0.2s-1.46-.18-2.09-0.27c-1.26-.22-2.24-0.39-2.9-0.56l-1-.24,0.69-2.75s-0.25-.05-0.61-0.16l-1.34-.38c-0.49-.14-1-0.32-1.32-0.43l-0.6-.2-0.71,2-0.15,0L69,273.87l-1.61-.54a44.35,44.35,0,0,1-19.85-14.41,46.5,46.5,0,0,1-3-4.23c-0.43-.74-0.86-1.47-1.26-2.2l-0.57-1.11c-0.19-.37-0.38-0.74-0.54-1.11a45.9,45.9,0,0,1-3-8.46,48.07,48.07,0,0,1-1.09-6.31Zm1.94-20.37-0.31.69c-0.1.22-.22,0.48-0.35,0.79l-0.41,1a49.73,49.73,0,0,0-1.86,5.72l-0.37,1.59c-0.06.26-.12,0.52-0.17,0.78l-0.14.77L36,225.54c-0.07.46-.12,0.91-0.17,1.31L35.69,228c0,0.33-.05.62-0.07,0.86l-0.06.75,9.31,0.66,0-.61c0-.19,0-0.43.06-0.7l0.12-.9c0-.33.08-0.69,0.14-1.06l0.21-1.18,0.11-.62c0-.21.1-0.42,0.14-0.63l0.3-1.29a40.43,40.43,0,0,1,1.5-4.62l0.33-.84c0.1-.25.21-0.46,0.28-0.64l0.25-.55Zm13-17.05-0.57.49c-0.36.32-.89,0.75-1.47,1.32l-1,.91c-0.34.33-.67,0.69-1,1.06-0.72.73-1.42,1.57-2.14,2.39a49.33,49.33,0,0,0-3.55,4.85l-0.6.94c-0.18.28-.31,0.54-0.44,0.74l-0.37.65,8.12,4.6,0.3-.53c0.1-.17.21-0.37,0.35-0.6l0.49-.76a40.15,40.15,0,0,1,2.87-3.93c0.58-.67,1.15-1.35,1.73-1.94,0.29-.3.56-0.6,0.83-0.86l0.78-.74c0.47-.47.9-0.82,1.19-1.07l0.46-.4Zm19.06-9.85-0.72.2c-0.46.14-1.12,0.3-1.9,0.56l-1.26.42c-0.45.14-.91,0.32-1.39,0.51l-1.47.58-1.49.67c-0.5.22-1,.47-1.47,0.71s-1,.48-1.4.73l-1.28.74-0.59.34-0.54.34c-0.69.44-1.27,0.8-1.66,1.08l-0.61.43,5.38,7.63,0.49-.35c0.32-.22.79-0.51,1.34-0.87l0.44-.28,0.48-.28,1-.6c0.36-.2.75-0.39,1.14-0.59s0.78-.4,1.19-0.58l1.2-.54,1.19-.47c0.38-.16.76-0.3,1.12-0.42l1-.34c0.63-.22,1.17-0.34,1.54-0.45l0.58-.17Zm21.43-.71L92.63,185l-0.85-.15-1.11-.15-1.31-.17-1.47-.12c-1-.1-2.11-0.11-3.2-0.14-0.55,0-1.09,0-1.63,0s-1.07,0-1.58.05l-1.47.11-0.68.05-0.63.08-2,.26-0.74.13,1.57,9.2,0.6-.11,1.59-.21,0.51-.06,0.55,0,1.19-.09c0.41,0,.84,0,1.28,0s0.88,0,1.32,0c0.89,0,1.77,0,2.6.11l1.19,0.09,1.06,0.14,0.9,0.12L91,194.16l0.6,0.11Zm19.68,8.54-0.61-.44c-0.39-.28-0.94-0.68-1.64-1.11l-1.12-.71c-0.4-.25-0.83-0.49-1.28-0.74-0.88-.53-1.86-1-2.84-1.51a49.28,49.28,0,0,0-5.56-2.28c-0.78-.27-1.43-0.48-1.89-0.6L97.4,186l-2.51,9,0.58,0.17c0.38,0.09.9,0.27,1.52,0.49a40,40,0,0,1,4.5,1.84c0.78,0.41,1.58.79,2.29,1.22,0.36,0.21.71,0.4,1,.6l0.9,0.58c0.57,0.35,1,.68,1.33.9l0.5,0.35Zm14.12,16.14-0.37-.65c-0.24-.41-0.56-1-1-1.71l-0.71-1.12-0.39-.61-0.44-.62-0.92-1.28-1-1.28c-0.33-.44-0.69-0.85-1-1.25s-0.69-.81-1-1.19l-1-1.07-0.47-.49-0.46-.44c-0.6-.56-1.08-1-1.44-1.35l-0.57-.49-6.13,7,0.46,0.4c0.3,0.25.68,0.65,1.17,1.1l0.38,0.36,0.38,0.4,0.83,0.87c0.28,0.3.55,0.64,0.84,1s0.58,0.66.85,1l0.82,1,0.74,1,0.35,0.5,0.32,0.49,0.58,0.9c0.36,0.56.61,1.05,0.81,1.38l0.3,0.53Z" transform="translate(-23.85 -174.12)"/><path class="cls-1" d="M70.59,276.72l0.27,0.08L71.64,277l1.26,0.35,1.72,0.4a45.36,45.36,0,0,0,10.87,1c1.13,0,2.31-.12,3.52-0.22l1.85-.23c0.63-.07,1.25-0.21,1.89-0.32a45.84,45.84,0,0,0,35.82-33.54,47.83,47.83,0,0,0,1.23-7.2,46.48,46.48,0,0,0-.3-10.91c-0.09-.65-0.21-1.23-0.3-1.74l-0.13-.7c0-.21-0.09-0.4-0.13-0.58l-0.24-1.06,1,1s0.1,0.37.22,1.08l0.23,1.3c0.1,0.51.15,1.11,0.24,1.78,0,0.33.09,0.68,0.13,1.05l0.09,1.16c0,0.4.07,0.82,0.08,1.26l0,1.36c0,0.93,0,1.93,0,3,0,0.52-.07,1.06-0.11,1.61s-0.08,1.11-.16,1.68a46.55,46.55,0,0,1-30.68,38.42,45,45,0,0,1-8,2.05,50,50,0,0,1-7.4.6,47.51,47.51,0,0,1-11-1.31c-0.66-.14-1.23-0.32-1.73-0.46s-0.93-.26-1.27-0.37l-1-.35Z" transform="translate(-23.85 -174.12)"/><path class="cls-3" d="M43.63,260.39l-0.09.65c0,0.39-.11.92-0.16,1.45-0.12,1.07-.17,2.15-0.17,2.15s1.08,0.25,2.13.47,2.13,0.35,2.13.35l0.42,0.49c0.26,0.29.61,0.66,1,1s0.7,0.76,1,1l0.46,0.45,2.33-2.33-0.45-.39c-0.29-.24-0.67-0.61-1.14-1.05L50.29,264l-0.8-.84c-0.28-.29-0.57-0.59-0.85-0.9l-0.84-1a45.84,45.84,0,0,1-2.9-3.76c-0.39-.52-0.66-1-0.87-1.31l-0.32-.5-2.19,1.16,0.31,0.56c0.19,0.34.43,0.79,0.7,1.23Z" transform="translate(-23.85 -174.12)"/><path class="cls-3" d="M55.71,271.95s0.2,1,.45,2.06c0.12,0.53.26,1,.37,1.42l0.19,0.65,0.67-.08c0.4-.05.93-0.12,1.47-0.21,1.07-.18,2.09-0.39,2.09-0.39s0.22,0.14.56,0.31l1.24,0.65c0.45,0.24.91,0.46,1.26,0.62l0.58,0.27,1.4-3L65.44,274c-0.34-.13-0.84-0.32-1.41-0.59s-1.26-.55-2-0.92-1.47-.74-2.19-1.18l-1.1-.63-1-.66c-0.68-.42-1.28-0.86-1.8-1.23l-0.71-.51-0.53-.41-0.46-.36-1.66,1.83L53,269.79l0.49,0.43,0.58,0.47,1.09,0.87,0.37,0.28Z" transform="translate(-23.85 -174.12)"/><path class="cls-3" d="M36,245.38s-0.13.24-.3,0.59-0.41.84-.64,1.33-0.46,1-.62,1.37l-0.26.63s0.94,0.62,1.86,1.18c0.46,0.28,1,.55,1.3.75l0.59,0.32s0.36,1,.8,1.94c0.21,0.48.42,1,.59,1.32l0.29,0.59,3-1.42-0.3-.52c-0.19-.33-0.43-0.82-0.73-1.4-0.15-.29-0.32-0.61-0.47-0.95L40.62,250c-0.35-.74-0.67-1.56-1-2.38l-0.24-.61-0.21-.62-0.4-1.21c-0.26-.78-0.44-1.53-0.63-2.17s-0.29-1.18-.38-1.55l-0.13-.59-2.45.35,0.11,0.65c0.07,0.39.14,0.91,0.25,1.42Z" transform="translate(-23.85 -174.12)"/><path class="cls-2" d="M31.1,235.49s0,0.25,0,.73l0.16,2.05c0,0.44.11,0.93,0.17,1.46s0.13,1.11.24,1.72l0.35,1.94c0.12,0.68.31,1.39,0.47,2.14a53.29,53.29,0,0,0,3.41,9.83,55.15,55.15,0,0,0,2.75,5.19c0.53,0.85,1.07,1.7,1.64,2.54l0.88,1.24,0.44,0.62,0.47,0.6A53.14,53.14,0,0,0,59,279.9a55.93,55.93,0,0,0,6.71,3c0.83,0.31,1.5.52,2,.68l0.69,0.23-0.74,2.36L66.88,286c-0.47-.16-1.17-0.38-2-0.71a58.36,58.36,0,0,1-7-3.18,55.61,55.61,0,0,1-17.66-15l-0.49-.63-0.46-.65-0.92-1.3c-0.6-.87-1.16-1.77-1.71-2.65a57.48,57.48,0,0,1-2.87-5.43,55.75,55.75,0,0,1-3.58-10.29c-0.17-.78-0.37-1.52-0.49-2.24l-0.36-2c-0.11-.64-0.17-1.24-0.25-1.8s-0.14-1.07-.18-1.53l-0.16-2.15c0-.5,0-0.76,0-0.76Z" transform="translate(-23.85 -174.12)"/><path class="cls-2" d="M32.7,250.58l0.44,1.29,0.57,1.46,0.35,0.89,0.43,1A54.59,54.59,0,0,0,47,272.79c0.53,0.52,1,1,1.5,1.35s0.85,0.74,1.18,1L50.79,276l-3.25,4.17-1.17-.92c-0.37-.3-0.8-0.68-1.3-1.11s-1.07-.92-1.65-1.49a59.88,59.88,0,0,1-13.75-19.31l-0.48-1.07-0.39-1-0.63-1.6-0.49-1.41Z" transform="translate(-23.85 -174.12)"/><polygon class="cls-4" points="67.21 51.25 66.48 50.52 75.31 41.7 77.32 43.71 71.54 46.91 67.21 51.25"/><polygon class="cls-4" points="66.48 65.03 67.21 64.31 76.03 73.13 74.02 75.15 70.82 69.37 66.48 65.03"/><polygon class="cls-4" points="52.7 64.31 53.42 65.03 44.6 73.86 42.59 71.85 48.36 68.65 52.7 64.31"/><polygon class="cls-4" points="53.42 50.52 52.7 51.25 43.87 42.43 45.88 40.41 49.09 46.19 53.42 50.52"/><path class="cls-4" d="M105.72,231.62H85.57a1.79,1.79,0,0,0-1.49-1.49v-19H83.52v19A1.79,1.79,0,0,0,82,231.62H61.88v0.56H82a1.79,1.79,0,0,0,1.49,1.49v19h0.56v-19a1.79,1.79,0,0,0,1.49-1.49h20.15v-0.56Z" transform="translate(-23.85 -174.12)"/></svg>