<svg preserveAspectRatio="none" id="Layer_1" data-name="Layer 1" xmlns="http://www.w3.org/2000/svg" viewBox="0 0 69.18 69.83"><defs><style>.cls-1{fill:aqua;}</style></defs><title>circle71</title><circle class="cls-1" cx="10.36" cy="28.03" r="1.18"/><circle class="cls-1" cx="15.4" cy="18.03" r="1.18"/><circle class="cls-1" cx="24.27" cy="11.05" r="1.18"/><circle class="cls-1" cx="35.28" cy="8.69" r="1.18"/><circle class="cls-1" cx="46.16" cy="11.33" r="1.18"/><circle class="cls-1" cx="54.97" cy="18.28" r="1.18"/><path class="cls-1" d="M134.19,71.89L134,71.17c-0.06-.23-0.11-0.52-0.21-0.85l-0.32-1.14a32.36,32.36,0,0,0-2.92-6.75c-0.37-.67-0.81-1.33-1.25-2s-1-1.37-1.51-2a33.41,33.41,0,0,0-3.75-4A32.73,32.73,0,0,0,102.29,46a34.05,34.05,0,0,0-5.46.43l-1.27.23-1.22.28c-0.4.09-.79,0.21-1.17,0.31s-0.76.21-1.12,0.34a32.64,32.64,0,0,0-6.7,3c-0.39.22-.71,0.45-1,0.63s-0.54.34-.73,0.48l-0.6.42L82.22,51l0.62-.44c0.2-.15.46-0.31,0.76-0.5s0.65-.42,1-0.66a34,34,0,0,1,7-3.16c0.38-.13.77-0.24,1.17-0.35s0.8-.23,1.22-0.33l1.27-.29L96.62,45a35.51,35.51,0,0,1,5.68-.45A34.1,34.1,0,0,1,125,53.35a34.74,34.74,0,0,1,3.9,4.16c0.57,0.71,1.08,1.43,1.57,2.13s0.92,1.41,1.3,2.1a33.73,33.73,0,0,1,3,7L135.14,70c0.1,0.35.16,0.65,0.22,0.89l0.17,0.74Z" transform="translate(-67.16 -44.59)"/><path class="cls-1" d="M84.35,78.72V79c0,0.21,0,.53,0,0.94A16.66,16.66,0,0,0,85,83.47L85.16,84l0.2,0.58c0.06,0.2.15,0.4,0.23,0.6s0.15,0.42.26,0.62a16.83,16.83,0,0,0,1.42,2.62,18,18,0,0,0,5,5.06,18.32,18.32,0,0,0,3.62,1.86,17.71,17.71,0,0,0,4.23,1c0.19,0,.38,0,0.56.05l0.57,0H103l0.58,0c0.39,0,.78-0.08,1.17-0.13a17.52,17.52,0,0,0,2.33-.51c0.39-.1.76-0.25,1.15-0.37l0.57-.22,0.28-.11,0.28-.13a17.79,17.79,0,0,0,4.22-2.63,17.86,17.86,0,0,0,4.67-6.05,18.37,18.37,0,0,0,.93-2.42,18.75,18.75,0,0,0,.57-2.54,17.79,17.79,0,0,0,0-5.24,18.71,18.71,0,0,0-.57-2.54,18.35,18.35,0,0,0-.93-2.42A18.56,18.56,0,0,0,117,68.89a17.92,17.92,0,0,0-3.4-3.8,17.79,17.79,0,0,0-4.22-2.63l-0.28-.13-0.28-.11L108.22,62c-0.39-.12-0.76-0.27-1.15-0.37a17.47,17.47,0,0,0-2.33-.51c-0.39,0-.78-0.11-1.17-0.13l-0.58,0h-1.74l-0.57,0c-0.19,0-.38,0-0.56.05a17.73,17.73,0,0,0-4.23,1,18.29,18.29,0,0,0-3.62,1.86,18,18,0,0,0-5,5.06,16.83,16.83,0,0,0-1.42,2.62c-0.1.21-.17,0.42-0.26,0.62s-0.17.4-.23,0.61l-0.2.58L85,74a16.66,16.66,0,0,0-.59,3.49c0,0.41,0,.73,0,0.94v0.32h-1V78.38c0-.22,0-0.56,0-1a17.63,17.63,0,0,1,.63-3.68l0.17-.6,0.21-.62c0.06-.21.15-0.42,0.24-0.64s0.16-.44.27-0.66a17.81,17.81,0,0,1,1.5-2.76,19,19,0,0,1,5.28-5.33,19.28,19.28,0,0,1,3.82-2A18.69,18.69,0,0,1,100,60.07c0.2,0,.39,0,0.59-0.05l0.6,0H103l0.61,0c0.41,0,.82.09,1.23,0.13a18.48,18.48,0,0,1,2.46.53c0.41,0.1.81,0.26,1.21,0.39l0.6,0.23,0.3,0.12,0.29,0.13a18.77,18.77,0,0,1,4.45,2.78,18.84,18.84,0,0,1,4.93,6.39,19.4,19.4,0,0,1,1,2.55,19.74,19.74,0,0,1,.6,2.68,18.81,18.81,0,0,1,0,5.52,19.75,19.75,0,0,1-.6,2.68,18.64,18.64,0,0,1-2.32,4.93,18.85,18.85,0,0,1-3.59,4,18.78,18.78,0,0,1-4.45,2.78l-0.29.14-0.3.12-0.6.23c-0.41.13-.8,0.28-1.21,0.39a18.45,18.45,0,0,1-2.46.53c-0.41,0-.82.12-1.23,0.13l-0.61,0H101.2l-0.6,0c-0.2,0-.4,0-0.59-0.06a18.69,18.69,0,0,1-4.47-1.07,19.3,19.3,0,0,1-3.82-2A19,19,0,0,1,86.44,89a17.82,17.82,0,0,1-1.5-2.76c-0.11-.22-0.18-0.44-0.27-0.66s-0.17-.43-0.24-0.64l-0.21-.62-0.17-.6A17.63,17.63,0,0,1,83.43,80c0-.43,0-0.77,0-1V78.72h1Z" transform="translate(-67.16 -44.59)"/><path class="cls-1" d="M106.35,64.46l-0.3-.09c-0.19-.07-0.47-0.11-0.8-0.19a16.07,16.07,0,0,0-2.48-.31l-0.69,0-0.66,0c-0.43,0-.83.05-1.16,0.11L99.8,64l-0.35.06-0.31.05-0.37-1.82,0.35-.06,0.4-.07,0.52-.07c0.38-.06.83-0.08,1.31-0.12l0.75,0,0.77,0a17.86,17.86,0,0,1,2.79.35c0.37,0.09.69,0.15,0.9,0.22l0.34,0.1Z" transform="translate(-67.16 -44.59)"/><path class="cls-1" d="M112.9,68.47l-0.22-.23-0.6-.57a15.26,15.26,0,0,0-2-1.51A15.77,15.77,0,0,0,107.88,65l-0.43-.17-0.33-.12-0.29-.1,0.58-1.76L107.74,63l0.38,0.14,0.49,0.19a17.69,17.69,0,0,1,2.48,1.3,17.27,17.27,0,0,1,2.24,1.7L114,66.94l0.24,0.26Z" transform="translate(-67.16 -44.59)"/><path class="cls-1" d="M116.58,75.21l0-.08a2.18,2.18,0,0,0-.06-0.22l-0.1-.34a4.51,4.51,0,0,0-.13-0.44,13.91,13.91,0,0,0-1-2.29A15.52,15.52,0,0,0,114,69.72c-0.21-.27-0.38-0.5-0.52-0.64l-0.2-.24,1.38-1.23,0.23,0.27c0.15,0.16.35,0.42,0.59,0.72A17.38,17.38,0,0,1,117,71,15.82,15.82,0,0,1,118,73.54c0.07,0.18.11,0.35,0.15,0.5l0.11,0.39a2.58,2.58,0,0,1,.06.25l0,0.09Z" transform="translate(-67.16 -44.59)"/><path class="cls-1" d="M116.4,82.9l0.09-.3,0-.16,0-.19,0.11-.45a16.18,16.18,0,0,0,.3-2.48c0-.23,0-0.46,0-0.69s0-.45,0-0.66c0-.43-0.05-0.83-0.11-1.17s-0.09-.62-0.13-0.81l0-.23a0.61,0.61,0,0,0,0-.08l1.82-.38a0.78,0.78,0,0,1,0,.09l0,0.26c0,0.22.1,0.53,0.14,0.92s0.08,0.83.12,1.31c0,0.24,0,.49,0,0.75s0,0.51,0,.77a18,18,0,0,1-.34,2.79l-0.12.51,0,0.21-0.05.18-0.1.34Z" transform="translate(-67.16 -44.59)"/><path class="cls-1" d="M112.38,89.48l0.23-.22,0.57-.6a15.43,15.43,0,0,0,1.51-2,15.87,15.87,0,0,0,1.16-2.21c0.11-.32.24-0.58,0.29-0.77l0.1-.29L118,84l-0.11.33c-0.06.21-.2,0.5-0.33,0.86a17.71,17.71,0,0,1-1.31,2.48,17.35,17.35,0,0,1-1.7,2.24l-0.64.67-0.26.24Z" transform="translate(-67.16 -44.59)"/><path class="cls-1" d="M105.65,93.16l0.08,0,0.22-.05,0.34-.1c0.13,0,.28-0.07.44-0.13a14,14,0,0,0,2.29-1,15.56,15.56,0,0,0,2.11-1.34c0.27-.21.5-0.38,0.64-0.52l0.24-.21,1.23,1.39-0.27.23c-0.16.15-.42,0.35-0.72,0.58a17.32,17.32,0,0,1-2.37,1.51,15.71,15.71,0,0,1-2.58,1.09c-0.18.07-.35,0.11-0.5,0.15l-0.39.11-0.25.06-0.09,0Z" transform="translate(-67.16 -44.59)"/><path class="cls-1" d="M98,93l0.3,0.09c0.19,0.07.47,0.11,0.8,0.19a16.08,16.08,0,0,0,2.48.31h0.69l0.66,0c0.43,0,.83-0.05,1.16-0.11,0.17,0,.33,0,0.46-0.06l0.35-.06,0.23,0h0.08l0.37,1.82-0.09,0-0.26,0-0.4.07c-0.15,0-.33,0-0.52.07-0.38.06-.83,0.08-1.31,0.12l-0.75,0-0.77,0a18,18,0,0,1-2.79-.34C98.3,95,98,94.93,97.77,94.86l-0.34-.1Z" transform="translate(-67.16 -44.59)"/><path class="cls-1" d="M91.4,89l0.21,0.23,0.6,0.57a15.07,15.07,0,0,0,2,1.51,15.75,15.75,0,0,0,2.21,1.16l0.43,0.17L97,92.68l0.16,0.05,0.29,0.1L96.9,94.6l-0.33-.11-0.18-.06-0.2-.08-0.49-.19a17.62,17.62,0,0,1-2.49-1.3A17,17,0,0,1,91,91.16l-0.68-.64-0.24-.26Z" transform="translate(-67.16 -44.59)"/><path class="cls-1" d="M94.28,110l0.35-1.39,0.43,0.1,0.52,0.12,0.34,0.08L96.3,109l0.92,0.16c0.34,0.06.71,0.1,1.11,0.15L99,109.37l0.67,0.05c0.46,0,1,.08,1.48.08a31.14,31.14,0,0,0,7.48-.66,30.63,30.63,0,0,0,9.08-3.52,30.79,30.79,0,0,0,12.47-39.46c-0.24-.55-0.52-1.07-0.79-1.6-0.13-.27-0.29-0.52-0.43-0.78l-0.45-.77a32,32,0,0,0-2-2.94,30.8,30.8,0,0,0-46.31-2.61c-0.31.32-.62,0.64-0.91,1l-0.85,1-0.78,1c-0.26.33-.49,0.67-0.73,1A30.64,30.64,0,0,0,72,72.21a32.14,32.14,0,0,0-.65,4.8c0,0.56,0,1,0,1.27v0.44H67.16l0-1.34c0-.43,0-0.95.09-1.54s0.12-1.27.22-2c0-.37.11-0.74,0.18-1.14s0.14-.8.23-1.21l0.29-1.27c0.1-.43.24-0.87,0.36-1.31a34.68,34.68,0,0,1,8.18-14.24c0.25-.27.5-0.52,0.73-0.76l0.69-.66c0.43-.42.83-0.75,1.15-1s0.58-.5.76-0.64l0.28-.22,1.7,2.14L82.65,53c0.19-.15.44-0.33,0.73-0.53l0.47-.33L84.11,52l0.28-.18a32.58,32.58,0,0,1,6.78-3.41A33,33,0,0,1,96.07,47c0.44-.08.89-0.17,1.35-0.23l1.39-.18,1.43-.11c0.48,0,1,0,1.46,0a32.6,32.6,0,0,1,6,.48,32.06,32.06,0,0,1,11.62,4.48,32.45,32.45,0,0,1,8.58,7.89,33.46,33.46,0,0,1,2.72,4.28l0.53,1c0.16,0.34.31,0.68,0.46,1l0.22,0.48L132,66.61l0.36,0.92c0.22,0.6.41,1.17,0.57,1.7s0.29,1,.41,1.46c0.21,0.89.38,1.6,0.45,2.08L134,73.52l1.93-.31L136,73.55l0.13,1,0.08,0.69L136.23,76l0.07,0.93,0,1c0,0.72,0,1.49,0,2.31,0,0.41-.06.83-0.09,1.26l-0.05.65-0.08.66-0.09.68c0,0.23-.06.45-0.1,0.68l-0.25,1.38L135.32,87c-0.11.47-.25,0.93-0.38,1.39a35,35,0,0,1-2,5.27,36.07,36.07,0,0,1-2.46,4.26c-0.82,1.19-1.56,2.13-2.1,2.77l-0.86,1,1.11,1-0.95,1c-0.61.63-1.51,1.49-2.66,2.46a37.18,37.18,0,0,1-4.17,3,36.53,36.53,0,0,1-5.26,2.65c-0.47.18-.93,0.38-1.41,0.54l-1.42.48-1.41.4c-0.47.13-.94,0.23-1.39,0.34a34.68,34.68,0,0,1-5.08.75c-0.37,0-.73.06-1.07,0.07l-1,0c-0.61,0-1.14,0-1.57,0l-1,0-0.36,0,0.22-3.44-0.91-.07c-0.27,0-.59-0.06-0.93-0.1l-1.07-.14-1.06-.19-0.49-.09-0.43-.1Zm30.16-5.22,0.58-.5,0.39-.36,0.17-.17-1.34-1.43-0.16.16-0.37.34-0.55.48Zm-2.35,1.84,0.62-.45,0.61-.47-1.21-1.54-0.57.45L121,105Zm-2.5,1.63s0.34-.19.66-0.4l0.65-.42-1.07-1.64-0.61.39c-0.3.2-.62,0.38-0.62,0.38ZM117,109.66l0.22-.11,0.47-.24,0.69-.35-0.92-1.72-0.65.33-0.45.23-0.2.1Zm-2.75,1.17,0.72-.28,0.49-.2,0.22-.09-0.77-1.8-0.21.09-0.47.18-0.68.27Zm-2.85.93,0.74-.21,0.51-.16,0.23-.08-0.61-1.86-0.22.07-0.48.15-0.7.2Zm-2.92.68,0.24,0,0.52-.1,0.75-.17-0.44-1.9-0.71.16-0.49.1-0.22,0Zm-3,.42,0.24,0,0.53-.06,0.76-.1-0.28-1.93-0.72.09-0.5.06-0.23,0Zm-3,.16,0.77,0,0.53,0H104l-0.11-2h-0.72l-0.72,0Z" transform="translate(-67.16 -44.59)"/><path class="cls-1" d="M75.32,78.73H79v0.34c0,0.22,0,.55,0,1a24.75,24.75,0,0,0,.45,3.43,23.09,23.09,0,0,0,4.4,9.45,22.35,22.35,0,0,0,4,4A23.07,23.07,0,0,0,92,99.5a25,25,0,0,0,3.22,1.28l0.93,0.27,0.33,0.09,0.38-1.5,1,0.22L99,100.05c0.44,0,.93.13,1.47,0.16a21.62,21.62,0,0,0,7.86-.82,21.31,21.31,0,0,0,3.92-1.6,21.87,21.87,0,0,0,5.08-3.72c0.23-.22.39-0.41,0.51-0.53l0.18-.19-1.18-1.09,0.11-.12,0.3-.34c0.26-.29.61-0.73,1-1.26a20.15,20.15,0,0,0,2.4-4.28l0.25-.62c0.08-.21.14-0.42,0.21-0.63,0.15-.41.25-0.83,0.37-1.23,0.05-.2.09-0.4,0.14-0.6s0.1-.39.13-0.58l0.1-.55,0-.26c0-.09,0-0.17,0-0.25,0-.33.09-0.64,0.11-0.91l0.05-.7c0-.2,0-0.35,0-0.46V79.3l0.26-.42c0.16-.26.34-0.6,0.54-1l0.14-.27,0.13-.26,0.22-.48,0.16-.34,0.06-.13L123.54,76l-0.06-.52c0-.2-0.08-0.43-0.12-0.69a21.45,21.45,0,0,0-1.21-4.18L122,70.31,121.87,70l-0.3-.65c-0.23-.43-0.44-0.89-0.71-1.33s-0.55-.89-0.84-1.35-0.63-.9-1-1.34a21.26,21.26,0,0,0-5.22-4.73,20.92,20.92,0,0,0-3.16-1.69,22.5,22.5,0,0,0-3.29-1.11,22,22,0,0,0-3.2-.54l-0.76-.06c-0.25,0-.5,0-0.74,0-0.49,0-1,0-1.41,0-0.23,0-.45,0-0.66,0l-0.63,0-1.16.15-1,.18-0.85.2c-0.51.12-.9,0.25-1.18,0.32l-0.41.14,0.45,1.36-0.21.07c-0.14,0-.34.11-0.59,0.21a20.31,20.31,0,0,0-4.76,2.59,20.49,20.49,0,0,0-2.73,2.42,20.16,20.16,0,0,0-3.77,5.66l-0.14.31-0.12.3-0.22.56c-0.13.36-.23,0.67-0.32,0.92l-0.24.82-1.38-.37-0.07.23L81.11,74l-0.1.42-0.08.47-0.09.51c0,0.17,0,.35-0.07.53l-0.07.53c0,0.17,0,.35,0,0.51,0,0.33-.06.64-0.06,0.91,0,0.54,0,.89,0,0.89H72.43V78.3c0-.28,0-0.69,0-1.23a31,31,0,0,1,.62-4.63,29.52,29.52,0,0,1,4.66-10.69c0.23-.32.45-0.65,0.7-1l0.76-1L80,58.87c0.28-.32.58-0.62,0.88-0.93a29.68,29.68,0,0,1,44.65,2.52,30.84,30.84,0,0,1,2,2.83L128,64c0.14,0.25.29,0.5,0.42,0.75,0.26,0.51.53,1,.76,1.54a29.68,29.68,0,0,1,2.12,6.5A30.16,30.16,0,0,1,130.94,86a29.74,29.74,0,0,1-22.58,21.75,30,30,0,0,1-7.21.63c-0.5,0-1,0-1.42-.08l-0.65-.05-0.6-.08c-0.39-.05-0.75-0.09-1.07-0.15l-0.89-.16-0.37-.07-0.32-.07-0.51-.12-0.41-.1,0.43-1.7L96,106c0.42,0.11,1,.22,1.83.36l1.32,0.17c0.48,0.05,1,.08,1.56.13a29.27,29.27,0,0,0,3.76-.06,27.68,27.68,0,0,0,9.09-2.33,28,28,0,0,0,16-20,28.92,28.92,0,0,0,.53-4.42,28.24,28.24,0,0,0-.52-6.63c-0.08-.4-0.17-0.74-0.23-1l-0.1-.42-0.1-.35-0.18-.64-2.22.66L126.89,72,127,72.33l0.09,0.39c0.06,0.28.14,0.6,0.22,1a25.92,25.92,0,0,1,.47,6.08,26.59,26.59,0,0,1-.48,4.05,26,26,0,0,1-1.3,4.36,25.72,25.72,0,0,1-13.38,14,25.34,25.34,0,0,1-8.34,2.13,27,27,0,0,1-3.45.06c-0.51,0-1-.07-1.44-0.12L98.16,104c-0.73-.13-1.3-0.23-1.68-0.33l-0.59-.14,0.4-1.59-0.35-.09-0.77-.22c-0.28-.08-0.56-0.18-0.77-0.25L94,101.31l-0.41,1.15-0.09,0-0.25-.08L92.37,102a25.69,25.69,0,0,1-11.5-8.35,27,27,0,0,1-1.71-2.45c-0.25-.43-0.5-0.85-0.73-1.28l-0.33-.64c-0.11-.21-0.22-0.43-0.31-0.64a26.58,26.58,0,0,1-1.73-4.9,27.81,27.81,0,0,1-.63-3.65Zm1.13-11.79-0.18.4c-0.06.13-.13,0.28-0.2,0.46l-0.24.6a28.82,28.82,0,0,0-1.08,3.31l-0.21.92c0,0.15-.07.3-0.1,0.45l-0.08.44-0.15.84c0,0.27-.07.52-0.1,0.76L74,75.77c0,0.19,0,.36,0,0.5l0,0.43,5.39,0.38,0-.35c0-.11,0-0.25,0-0.4l0.07-.52c0-.19,0-0.4.08-0.61l0.12-.68,0.06-.36c0-.12.06-0.24,0.08-0.37L80,73a23.41,23.41,0,0,1,.87-2.67L81,69.88c0.06-.14.12-0.27,0.16-0.37l0.15-.32ZM84,57.06l-0.33.28c-0.21.18-.51,0.43-0.85,0.77l-0.55.53c-0.2.19-.39,0.4-0.59,0.61-0.42.42-.82,0.91-1.24,1.39a28.56,28.56,0,0,0-2.05,2.81L78,64c-0.1.16-.18,0.31-0.25,0.43l-0.22.38,4.7,2.66,0.18-.3c0.06-.1.12-0.22,0.2-0.35l0.28-.44a23.28,23.28,0,0,1,1.66-2.27c0.34-.39.66-0.78,1-1.12,0.17-.17.32-0.35,0.48-0.5L86.49,62c0.27-.27.52-0.47,0.69-0.62l0.27-.23Zm11-5.71-0.42.12c-0.27.08-.65,0.17-1.1,0.33L92.77,52c-0.26.08-.53,0.19-0.8,0.3l-0.85.34-0.86.39c-0.29.13-.57,0.27-0.85,0.41l-0.81.42-0.74.43-0.34.2-0.31.2c-0.4.26-.74,0.47-1,0.63l-0.36.25L89,60l0.29-.2c0.18-.13.46-0.29,0.78-0.5l0.25-.16L90.58,59l0.6-.35,0.66-.34c0.22-.12.45-0.23,0.69-0.33l0.7-.32,0.69-.27c0.22-.09.44-0.17,0.65-0.24l0.59-.2c0.36-.13.68-0.2,0.89-0.26l0.34-.1Zm12.41-.41L107,50.87l-0.49-.09-0.64-.09-0.76-.1-0.85-.07c-0.59-.06-1.22-0.06-1.86-0.08-0.32,0-.63,0-0.94,0s-0.62,0-.91,0l-0.85.06-0.39,0-0.37,0-1.14.15-0.43.08,0.91,5.33,0.35-.06L99.53,56l0.3,0,0.32,0,0.69-.05c0.24,0,.49,0,0.74,0s0.51,0,.76,0c0.51,0,1,0,1.5.07L104.54,56l0.62,0.08,0.52,0.07,0.4,0.07,0.35,0.06Zm11.4,4.95-0.35-.25c-0.23-.16-0.55-0.39-0.95-0.64l-0.65-.41-0.74-.43c-0.51-.31-1.08-0.58-1.64-0.87A28.55,28.55,0,0,0,111.27,52c-0.45-.15-0.83-0.28-1.09-0.35l-0.42-.12-1.45,5.21,0.34,0.1c0.22,0.05.52,0.16,0.88,0.28a23.18,23.18,0,0,1,2.6,1.07c0.45,0.24.92,0.46,1.33,0.71l0.6,0.35,0.52,0.34c0.33,0.2.59,0.39,0.77,0.52l0.29,0.2ZM127,65.24l-0.22-.38c-0.14-.24-0.33-0.59-0.58-1l-0.41-.65-0.23-.35-0.25-.36-0.53-.74L124.19,61c-0.19-.25-0.4-0.49-0.6-0.73s-0.4-.47-0.6-0.69L122.4,59l-0.27-.29-0.27-.26c-0.35-.33-0.62-0.61-0.84-0.78l-0.33-.29-3.55,4.08,0.27,0.23c0.17,0.14.4,0.37,0.68,0.64l0.22,0.21,0.22,0.23,0.48,0.5c0.16,0.18.32,0.37,0.49,0.56s0.34,0.38.49,0.59l0.47,0.6,0.43,0.6,0.21,0.29,0.18,0.28,0.34,0.52c0.21,0.32.35,0.61,0.47,0.8l0.18,0.31Z" transform="translate(-67.16 -44.59)"/><path class="cls-1" d="M94.23,104l0.15,0,0.45,0.13,0.73,0.2,1,0.23a26.27,26.27,0,0,0,6.29.58c0.66,0,1.34-.07,2-0.12l1.07-.14c0.36,0,.73-0.12,1.1-0.18A26.55,26.55,0,0,0,127.8,85.32a27.7,27.7,0,0,0,.71-4.17,26.91,26.91,0,0,0-.17-6.32c-0.05-.38-0.12-0.71-0.17-1l-0.07-.41c0-.12-0.05-0.23-0.08-0.33l-0.14-.61L128.47,73s0.06,0.21.13,0.63l0.13,0.76c0.06,0.3.09,0.64,0.14,1,0,0.19.05,0.4,0.07,0.61L129,76.72c0,0.23,0,.48,0,0.73l0,0.78c0,0.54,0,1.12,0,1.72,0,0.3,0,.61-0.06.93s0,0.64-.09,1a27,27,0,0,1-17.77,22.25,26,26,0,0,1-4.65,1.19,29,29,0,0,1-4.28.35,27.52,27.52,0,0,1-6.38-.76c-0.38-.08-0.71-0.18-1-0.26l-0.74-.21-0.61-.2Z" transform="translate(-67.16 -44.59)"/><path class="cls-1" d="M78.62,94.55l0,0.38c0,0.23-.06.53-0.09,0.84-0.07.62-.1,1.25-0.1,1.25s0.62,0.15,1.23.27,1.23,0.2,1.23.2l0.24,0.29,0.56,0.6c0.21,0.22.4,0.44,0.57,0.59l0.27,0.26,1.35-1.35-0.26-.22c-0.17-.14-0.39-0.35-0.66-0.61l-0.44-.42L82,96.14l-0.49-.52L81,95.05a26.53,26.53,0,0,1-1.68-2.18c-0.22-.3-0.38-0.58-0.5-0.76l-0.19-.29-1.27.67,0.18,0.33c0.11,0.19.25,0.46,0.41,0.71Z" transform="translate(-67.16 -44.59)"/><path class="cls-1" d="M85.61,101.24s0.12,0.59.26,1.19c0.07,0.31.15,0.6,0.21,0.82l0.11,0.37,0.39,0c0.23,0,.54-0.07.85-0.12,0.62-.11,1.21-0.23,1.21-0.23L89,103.41l0.72,0.38c0.26,0.14.53,0.27,0.73,0.36l0.33,0.16,0.81-1.73-0.31-.12c-0.2-.08-0.48-0.19-0.82-0.34s-0.73-.32-1.14-0.53-0.85-.43-1.27-0.68l-0.64-.37-0.6-.38c-0.39-.24-0.74-0.5-1-0.71l-0.41-.29L85,98.9l-0.27-.21-1,1.06L84.07,100l0.28,0.25,0.34,0.27L85.32,101l0.21,0.16Z" transform="translate(-67.16 -44.59)"/><path class="cls-1" d="M74.2,85.86L74,86.2,73.65,87c-0.13.28-.27,0.57-0.36,0.79l-0.15.36s0.54,0.36,1.08.68c0.27,0.16.55,0.32,0.76,0.43l0.34,0.19s0.21,0.57.46,1.13c0.12,0.28.24,0.56,0.34,0.76l0.17,0.34L78,90.84l-0.17-.3c-0.11-.19-0.25-0.48-0.42-0.81-0.08-.17-0.18-0.35-0.27-0.55l-0.28-.62c-0.2-.43-0.39-0.9-0.57-1.38l-0.14-.36L76,86.47l-0.23-.7c-0.15-.45-0.26-0.89-0.37-1.26s-0.17-.68-0.22-0.9l-0.08-.34-1.42.21,0.06,0.37c0,0.22.08,0.53,0.15,0.82Z" transform="translate(-67.16 -44.59)"/><path class="cls-1" d="M71.36,80.13s0,0.15,0,.42l0.09,1.19c0,0.26.06,0.54,0.1,0.85s0.07,0.64.14,1l0.2,1.12c0.07,0.4.18,0.81,0.27,1.24a30.88,30.88,0,0,0,2,5.69,32,32,0,0,0,1.59,3c0.31,0.49.62,1,.95,1.47l0.51,0.72,0.26,0.36,0.27,0.35a30.78,30.78,0,0,0,9.78,8.32,32.36,32.36,0,0,0,3.88,1.76c0.48,0.18.87,0.3,1.13,0.39l0.4,0.13L92.5,109.5l-0.42-.14c-0.27-.09-0.68-0.22-1.18-0.41a33.82,33.82,0,0,1-4.07-1.84,32.2,32.2,0,0,1-10.23-8.7L76.32,98l-0.27-.37-0.53-.75c-0.35-.51-0.67-1-1-1.54a33.22,33.22,0,0,1-1.66-3.14,32.28,32.28,0,0,1-2.07-6c-0.1-.45-0.21-0.88-0.29-1.3L70.3,83.8c-0.06-.37-0.1-0.72-0.14-1s-0.08-.62-0.1-0.88L70,80.63c0-.29,0-0.44,0-0.44Z" transform="translate(-67.16 -44.59)"/><path class="cls-1" d="M72.29,88.86l0.26,0.75,0.33,0.84L73.08,91l0.25,0.56a31.62,31.62,0,0,0,7.26,10.19c0.31,0.3.61,0.56,0.87,0.78l0.69,0.59,0.62,0.49L80.88,106l-0.68-.53-0.75-.64c-0.29-.25-0.62-0.53-1-0.86a34.67,34.67,0,0,1-8-11.18l-0.28-.62L70,91.59l-0.36-.93-0.28-.82Z" transform="translate(-67.16 -44.59)"/><polygon class="cls-1" points="38.92 29.68 38.5 29.26 43.61 24.15 44.78 25.32 41.43 27.17 38.92 29.68"/><polygon class="cls-1" points="38.5 37.66 38.92 37.24 44.03 42.35 42.87 43.52 41.01 40.18 38.5 37.66"/><polygon class="cls-1" points="30.52 37.24 30.94 37.66 25.83 42.77 24.66 41.61 28.01 39.76 30.52 37.24"/><polygon class="cls-1" points="30.94 29.26 30.52 29.68 25.41 24.57 26.57 23.41 28.43 26.75 30.94 29.26"/><path class="cls-1" d="M114.58,77.89H102.91A1,1,0,0,0,102,77V66h-0.33V77a1,1,0,0,0-.86.86H89.18v0.33h11.67a1,1,0,0,0,.86.86v11H102v-11a1,1,0,0,0,.86-0.86h11.67V77.89Z" transform="translate(-67.16 -44.59)"/></svg>