<svg preserveAspectRatio="none" id="Layer_1" data-name="Layer 1" xmlns="http://www.w3.org/2000/svg" viewBox="0 0 1259.15 1195.72"><defs><style>.cls-1{fill:#20ffff}</style></defs><path class="cls-1" d="M1166.02 488.39l-1.69-8.32 80.19-17.59 1.95 9.57-80.45 16.34z"/><path class="cls-1" d="M1508.88 932.79c-.5-2.79-.91-5.59-1.48-8.36l80.66-15.32c.65 3.19 1.13 6.41 1.7 9.61zM1511.31 948c-.4-2.8-.75-5.61-1.27-8.4l81.05-13.05c.59 3.2 1 6.43 1.46 9.65z" transform="translate(-340 -429.26)"/><path class="cls-1" d="M1173.32 534.04l-.46-4.22-.59-4.21 81.39-10.78.67 4.84.54 4.85-81.55 9.52z"/><path class="cls-1" d="M1514.91 978.63c-.18-2.83-.55-5.64-.84-8.45l81.66-8.49c.33 3.24.75 6.47 1 9.71zM1516.07 994c-.15-2.83-.42-5.65-.63-8.47l81.86-6.2c.23 3.25.54 6.49.71 9.74z" transform="translate(-340 -429.26)"/><path class="cls-1" d="M1176.79 580.15l-.4-8.49 82.01-3.91.45 9.75-82.06 2.65zM1177.05 595.56l-.14-8.49 82.08-1.61.16 9.76-82.1.34zM1176.89 610.98l.12-8.49 82.09.68-.14 9.76-82.07-1.95zM1176.29 626.39l.38-8.49 82.05 2.98-.44 9.75-81.99-4.24zM1175.27 641.77l.64-8.47 81.93 5.27-.73 9.74-81.84-6.54zM1173.82 657.12l.9-8.45 81.75 7.57-1.02 9.7-81.63-8.82zM1171.95 672.42l1.15-8.42 81.5 9.85-1.31 9.68-81.34-11.11z"/><path class="cls-1" d="M1509.66 1116.91l.71-4.19c.25-1.39.47-2.79.65-4.2l81.2 12.13c-.21 1.61-.46 3.22-.74 4.82l-.81 4.81zM1506.94 1132.09c.57-2.77 1.14-5.55 1.57-8.35l80.82 14.41c-.51 3.22-1.16 6.41-1.8 9.6zM1503.8 1147.18c.31-1.38.67-2.75.95-4.14l.83-4.16 80.39 16.67-1 4.79c-.32 1.59-.72 3.17-1.08 4.76z" transform="translate(-340 -429.26)"/><path class="cls-1" d="M1160.23 732.91l.55-2.05.48-2.07.96-4.13 79.89 18.93-1.11 4.75-.56 2.38-.62 2.36-79.59-20.17zM449.47 1115.06l8.04 2.7-25.73 77.96-9.26-3.11 26.95-77.55z"/><path class="cls-1" d="M775 1539.05c2.64 1 5.32 1.94 8 2.92l-28 77.21c-3.06-1.12-6.13-2.2-9.17-3.37zM760.67 1533.37c2.6 1.13 5.24 2.13 7.88 3.16l-30.1 76.38c-3-1.19-6.07-2.35-9.07-3.64zM746.52 1527.28c2.58 1.16 5.15 2.34 7.78 3.4l-32.3 75.51c-3-1.23-6-2.58-9-3.92zM732.54 1520.81c2.56 1.21 5.09 2.48 7.67 3.64L705.83 1599c-3-1.34-5.89-2.79-8.83-4.19z" transform="translate(-340 -429.26)"/><path class="cls-1" d="M378.75 1084.7l7.56 3.85-36.48 73.56-8.71-4.44 37.63-72.97zM365.15 1077.46l7.46 4.04-38.54 72.48-8.6-4.65 39.68-71.87zM351.76 1069.84l7.37 4.22-40.59 71.37-8.48-4.87 41.7-70.72z"/><path class="cls-1" d="M678.62 1491.07c2.38 1.53 4.83 3 7.24 4.44l-42.6 70.18c-2.77-1.71-5.59-3.35-8.33-5.11zM665.7 1482.68c2.32 1.62 4.72 3.13 7.1 4.66l-44.57 68.95c-2.74-1.76-5.49-3.51-8.17-5.36zM653 1473.93c2.3 1.66 4.6 3.31 7 4.87l-46.5 67.66c-2.71-1.81-5.36-3.7-8-5.6zM640.59 1464.82c2.27 1.69 4.49 3.45 6.81 5.08l-48.4 66.32c-2.66-1.88-5.22-3.89-7.83-5.84z" transform="translate(-340 -429.26)"/><path class="cls-1" d="M288.41 1026.12l6.65 5.28-50.25 64.93-7.65-6.07 51.25-64.14zM276.49 1016.33l6.52 5.46-52.05 63.49-7.48-6.26 53.01-62.69zM264.86 1006.22l6.37 5.62-53.8 62.01-7.32-6.45 54.75-61.18zM253.5 995.78l6.23 5.78-55.51 60.49-7.15-6.63 56.43-59.64zM242.43 985.04l6.08 5.93-57.16 58.93-6.98-6.81 58.06-58.05z"/><path class="cls-1" d="M799.22 1572.1a567.73 567.73 0 00100 21.59c5.4-3.17 10.72-6.51 15.94-9.77a561.4 561.4 0 00509.49-231.32 568.72 568.72 0 0043.44-71.43c5.72-2.55 11.17-5.35 16.8-8.17l2.77-5.77c.93-1.92 1.74-3.9 2.62-5.84l5.17-11.72c3.16-7.93 6.54-15.78 9.37-23.83l2.22-6 1.11-3 1-3 4.05-12.15c1.34-4.05 2.48-8.17 3.73-12.25l1.84-6.13 1.66-6.19-22.53-6.12c-.59 2.17-1.12 4.35-1.76 6.51l-1.94 6.46c-1.31 4.3-2.5 8.64-4 12.88l-4.29 12.79-4.67 12.65q-9.67 25.17-21.62 49.39-12.15 24.07-26.45 47c-9.58 15.22-20 29.89-31 44.13A557.72 557.72 0 011328 1441a546.66 546.66 0 01-87.9 62.27l-6-2-6-2.1q-1.45 6.15-3 12.38a545.4 545.4 0 01-205.59 60.81 550.45 550.45 0 01-213.29-22.58z" transform="translate(-340 -429.26)"/><path class="cls-1" d="M93.3 708.21l1.7 8.32-80.17 17.71-1.96-9.57 80.43-16.46z"/><path class="cls-1" d="M430.42 1122.31c.5 2.79.91 5.59 1.49 8.37l-80.63 15.45c-.66-3.19-1.14-6.41-1.72-9.62zM428 1107.09c.4 2.8.76 5.62 1.28 8.4l-81 13.18c-.59-3.2-1-6.43-1.47-9.66z" transform="translate(-340 -429.26)"/><path class="cls-1" d="M85.92 662.54l.47 4.23.6 4.2-81.38 10.9-.68-4.84-.54-4.85 81.53-9.64z"/><path class="cls-1" d="M424.31 1076.46c.18 2.83.56 5.64.85 8.46l-81.65 8.61c-.34-3.24-.76-6.47-1-9.72zM423.13 1061.08c.15 2.83.43 5.65.64 8.48l-81.86 6.32c-.24-3.25-.55-6.49-.73-9.74z" transform="translate(-340 -429.26)"/><path class="cls-1" d="M82.38 616.41l.41 8.49-82 4.03-.46-9.76 82.05-2.76zM82.1 600.99l.15 8.5-82.08 1.72-.17-9.76 82.1-.46zM82.24 585.56l-.11 8.5-82.09-.57.13-9.77 82.07 1.84zM82.82 570.14l-.37 8.5L.4 575.77l.42-9.76 82 4.13zM83.82 554.75l-.63 8.48-81.94-5.17.72-9.74 81.85 6.43zM85.25 539.39l-.9 8.46-81.76-7.46 1.02-9.72 81.64 8.72z"/><path class="cls-1" d="M427.1 953.34c-.37 2.81-.79 5.61-1.13 8.42L344.45 952c.39-3.23.86-6.46 1.29-9.68z" transform="translate(-340 -429.26)"/><path class="cls-1" d="M89.38 508.83l-.71 4.19-.35 2.09-.29 2.11-81.21-12.03.33-2.42.4-2.41.81-4.82 81.02 13.29z"/><path class="cls-1" d="M432.08 922.9l-.84 4.17c-.27 1.39-.48 2.79-.72 4.19L349.68 917c.28-1.6.52-3.21.83-4.81l1-4.79zM435.2 907.8c-.68 2.75-1.22 5.53-1.77 8.31L353 899.54c.63-3.19 1.26-6.39 2-9.56zM438.74 892.79c-.75 2.73-1.31 5.51-2 8.26l-79.91-18.83c.76-3.17 1.42-6.36 2.28-9.5z" transform="translate(-340 -429.26)"/><path class="cls-1" d="M809.54 80.67l-8.05-2.7L827.2 0l9.26 3.12-26.92 77.55z"/><path class="cls-1" d="M1164 515.19c-2.65-1-5.32-1.94-8-2.92l27.9-77.21c3.06 1.12 6.13 2.21 9.18 3.36zM1178.36 520.88c-2.6-1.13-5.25-2.13-7.88-3.16l30.08-76.39c3 1.19 6.08 2.35 9.07 3.64zM1192.53 527c-2.58-1.17-5.16-2.33-7.78-3.4L1217 448c3 1.24 6 2.57 9 3.92zM1206.51 533.43c-2.56-1.21-5.09-2.48-7.67-3.64l34.36-74.56c3 1.34 5.89 2.79 8.84 4.19z" transform="translate(-340 -429.26)"/><path class="cls-1" d="M880.31 111.03l-7.56-3.86 36.46-73.55 8.71 4.43-37.61 72.98zM893.91 118.28l-7.46-4.05 38.53-72.49 8.6 4.66-39.67 71.88zM907.31 125.9l-7.36-4.23 40.57-71.37 8.48 4.87-41.69 70.73z"/><path class="cls-1" d="M1260.48 563.18c-2.38-1.53-4.83-3-7.24-4.44l42.59-70.19c2.78 1.71 5.59 3.36 8.33 5.11zM1273.4 571.57c-2.33-1.62-4.72-3.13-7.1-4.66l44.56-69c2.74 1.76 5.49 3.51 8.17 5.36zM1286.09 580.33l-3.45-2.47c-1.15-.82-2.34-1.6-3.51-2.4l46.49-67.67c1.34.92 2.71 1.82 4 2.76l4 2.84zM1298.53 589.44c-2.27-1.69-4.49-3.45-6.81-5.08l48.39-66.36c2.66 1.88 5.22 3.9 7.84 5.84z" transform="translate(-340 -429.26)"/><path class="cls-1" d="M970.71 169.63l-6.66-5.28 50.24-64.93 7.66 6.07-51.24 64.14zM982.63 179.43l-6.52-5.46 52.04-63.5 7.5 6.27-53.02 62.69zM994.28 189.54l-6.38-5.62 53.79-62.01 7.33 6.45-54.74 61.18zM1005.64 199.99l-6.24-5.78 55.51-60.5 7.16 6.64-56.43 59.64zM1016.72 210.74l-6.09-5.94 57.16-58.93 6.98 6.82-58.05 58.05z"/><path class="cls-1" d="M1139.78 482.14a568.18 568.18 0 00-100.09-21.57c-5.4 3.18-10.73 6.51-15.94 9.77a562.84 562.84 0 00-166.69 8.79A556.31 556.31 0 00567.84 638a554.4 554.4 0 00-97.08 135.72l-4.25 2c-1.41.67-2.78 1.36-4.17 2l-8.37 4.2-2.77 5.78c-.91 1.93-1.74 3.9-2.61 5.85l-5.16 11.73c-3.16 7.93-6.52 15.8-9.36 23.86l-2.21 6-1.1 3-1 3-4 12.16c-1.32 4.06-2.47 8.18-3.71 12.27l-1.83 6.14-1.64 6.19 22.5 6.1c.59-2.17 1.13-4.36 1.75-6.52l1.93-6.46c1.32-4.3 2.49-8.65 4-12.89l4.27-12.8 4.66-12.66q9.65-25.2 21.58-49.44 12.12-24.1 26.41-47c9.59-15.22 20-29.92 31-44.19l8.4-10.57c1.37-1.79 2.89-3.45 4.33-5.18l4.37-5.15c1.46-1.71 2.9-3.44 4.38-5.14l4.54-5 4.54-5c1.5-1.67 3-3.35 4.6-4.94q18.55-19.66 39-37.39a546.61 546.61 0 0187.9-62.38c4 1.3 8 2.62 12.06 4.07q1.45-6.15 3-12.38a545.31 545.31 0 01205.67-61 550.47 550.47 0 01213.43 22.51z" transform="translate(-340 -429.26)"/><path class="cls-1" d="M1438.83 927a478.17 478.17 0 00-375.93-375.92 479.57 479.57 0 00-186.64 0A478.17 478.17 0 00500.33 927a479.57 479.57 0 000 186.64 478.17 478.17 0 00375.93 375.93 479.56 479.56 0 00186.64 0 478.17 478.17 0 00375.93-375.93 479.57 479.57 0 000-186.64zm-144 418.56a459 459 0 01-231 125c-8.37-9.73-16.36-19.83-23.86-29.86l-3.76.68c-.63.11-1.25.24-1.88.33l-1.9.24-7.58 1-7.58 1-3.79.49c-1.27.13-2.54.2-3.81.3l-15.24 1.16c-2.54.25-5.09.28-7.64.34l-7.65.19-7.65.2-1.91.05-1.91-.05-3.82-.1-15.29-.38c-5.09-.29-10.16-.76-15.25-1.12l-7.62-.59-7.58-1a423.09 423.09 0 01-117.57-31.7l-13.92-6.29-1.74-.78-1.7-.87-3.4-1.74-6.8-3.48-6.8-3.49-6.62-3.81-6.62-3.81c-2.2-1.28-4.45-2.49-6.56-3.91l-12.87-8.25c-2.18-1.33-4.22-2.85-6.3-4.32l-6.23-4.43-6.23-4.42-6-4.72-6-4.72c-2-1.6-4.06-3.08-5.94-4.8l-11.55-10c-1-.85-2-1.63-2.86-2.53l-2.76-2.64-5.53-5.28-5.54-5.27c-1.79-1.81-3.52-3.68-5.29-5.52L658 1311l-2.64-2.76-1.32-1.38-1.25-1.45-10-11.56c-.82-1-1.69-1.9-2.48-2.9l-2.36-3-4.72-6-4.73-6c-1.54-2-3-4.14-4.45-6.21l-4.43-6.23-2.22-3.11c-.75-1-1.48-2.07-2.15-3.16q-12.88 1.45-26.13 2.36-5.93.41-11.93.7a457.54 457.54 0 01-58.74-150.25 461.11 461.11 0 010-179.47 457.24 457.24 0 0147-130c4 0 8 0 11.93.09q13.29.24 26.24 1c1.22-2.24 2.64-4.36 4-6.5l4.13-6.43 4.12-6.44c1.44-2.1 2.95-4.15 4.42-6.24l4.43-6.23 2.21-3.12 1.11-1.56 1.18-1.5 9.45-12c.8-1 1.55-2 2.38-3l2.51-2.89 5-5.78 5-5.78c1.71-1.89 3.51-3.7 5.25-5.55l5.27-5.53 2.63-2.77 1.32-1.38c.45-.45.92-.88 1.38-1.32l11.07-10.55c.93-.87 1.83-1.77 2.78-2.63l2.89-2.5 5.78-5 5.77-5c1.94-1.65 4-3.16 6-4.75l6-4.72 3-2.36c1-.79 2-1.59 3-2.31l12.52-8.83 3.11-2.22 3.22-2.06 6.43-4.12 6.43-4.13c1.06-.71 2.17-1.32 3.28-2l3.31-1.9c4.43-2.52 8.81-5.12 13.27-7.58l13.6-7 3.4-1.75c1.13-.58 2.31-1.06 3.47-1.6l7-3.14c4.64-2.09 9.24-4.29 14-6l14.19-5.5 14.47-4.89c19.39-6.18 39.13-11.43 59.25-14.65l7.52-1.35c2.52-.37 5.05-.65 7.58-1 5.06-.62 10.1-1.33 15.16-1.88l15.24-1.15 3.81-.29c.64 0 1.27-.11 1.91-.13h1.91l7.65-.19 7.65-.2 3.82-.1c1.27 0 2.55 0 3.82.07l15.28.31c1.27 0 2.55 0 3.82.11l3.81.29 7.62.58c5.08.4 10.17.66 15.21 1.42 7-10.39 14.45-20.89 22.31-31q9.29 1.45 18.53 3.27a459.89 459.89 0 01279.3 176.62q-2.51 5.46-5.09 10.82-5.77 12-11.92 23.4c1.53 2 2.83 4.23 4.22 6.37l4.12 6.43 4.13 6.43 3.81 6.62 3.81 6.62c1.25 2.22 2.61 4.38 3.72 6.67l7 13.6c.57 1.14 1.2 2.25 1.71 3.41l1.57 3.48 3.14 7 3.15 7c1 2.33 1.89 4.73 2.84 7.09l2.8 7.1 1.4 3.55c.46 1.19 1 2.36 1.35 3.57l4.89 14.47 1.23 3.62c.41 1.21.71 2.44 1.07 3.67l2.08 7.35c1.36 4.9 2.9 9.76 3.93 14.76l3.44 14.88c1 5 1.8 10 2.72 15 .43 2.51.94 5 1.31 7.53l1 7.58 1 7.58c.29 2.53.73 5 .85 7.59l1.16 15.24.29 3.81c.07 1.27.07 2.55.11 3.82l.19 7.65.2 7.65c0 1.27.1 2.55.07 3.82l-.1 3.82-.38 15.29c0 2.55-.31 5.09-.47 7.63l-.58 7.62-.57 7.62c-.22 2.54-.62 5.06-.92 7.59l-1.94 15.16-2.69 15-.67 3.76-.34 1.88-.43 1.86-1.72 7.44-1.71 7.44-.85 3.72-1 3.67-4.17 14.69-.52 1.84-.61 1.81-1.23 3.62-2.45 7.23-2.44 7.24-2.81 7.1-2.8 7.11-1.4 3.55c-.24.59-.45 1.19-.71 1.77l-.79 1.74-6.29 13.92c-.53 1.16-1 2.33-1.59 3.47l-1.75 3.4-3.48 6.8-3.48 6.8c-1.18 2.26-2.52 4.43-3.77 6.64l-3.81 6.62-1.9 3.31c-.64 1.1-1.24 2.22-2 3.28q6.7 11.09 13.06 22.74 2.85 5.22 5.63 10.56a461.69 461.69 0 01-57.4 69.8z" transform="translate(-340 -429.26)" opacity=".5"/><path class="cls-1" d="M1279.35 1023.94l128.94-.16v-8l-128.94.16A301.25 301.25 0 001258 908.52l30.45-12.57-3.05-7.39-30.4 12.56a305.91 305.91 0 00-61.18-91.8l51.67-51.49-5.65-5.67-51.67 51.49a305.24 305.24 0 00-91.58-61.51l12.68-30.41-7.38-3.08-12.68 30.41a299.73 299.73 0 00-107.35-21.65l.6-128.92h-8l-.6 128.93a301.22 301.22 0 00-108.26 20.93l-12.46-30.49-7.41 3 12.46 30.49a305.78 305.78 0 00-92 60.85l-51.31-51.84-5.7 5.64 51.31 51.84a301 301 0 00-61.87 91.35l-30.37-12.79-3.1 7.37 30.37 12.79a298.67 298.67 0 00-22 108l-128.93-.72v8l128.91.72a298.76 298.76 0 0022.06 111.51l-30.37 12.79 3.11 7.37 30.37-12.79a301 301 0 0061.87 91.35l-51.31 51.84 5.69 5.63 51.31-51.84a305.8 305.8 0 0092 60.86l-12.46 30.49 7.41 3 12.46-30.49a301.15 301.15 0 00107.5 20.92l.28 129h8l-.28-128.95a299.75 299.75 0 00108.12-21.66l12.68 30.41 7.38-3.08-12.68-30.41a305.23 305.23 0 0091.58-61.51l51.67 51.49 5.65-5.67-51.67-51.49a305.9 305.9 0 0061.18-91.8l30.45 12.57 3.05-7.39-30.55-12.58a301.31 301.31 0 0021.35-108.19zm-94.07 204.67a296.87 296.87 0 01-95.41 64.07 295.81 295.81 0 01-225.37.61 296.62 296.62 0 01-132.68-108 294.24 294.24 0 01-27.47-50.74 290.92 290.92 0 01-22.9-112.55v-3.4a290.92 290.92 0 0122.89-112.55 294.45 294.45 0 0164.38-95.21 297.46 297.46 0 0195.78-63.51 293.36 293.36 0 01112.12-22h.63A292 292 0 011089.87 748a295.76 295.76 0 01159.2 159.68 295.49 295.49 0 010 225.37 297.56 297.56 0 01-63.79 95.57z" transform="translate(-340 -429.26)"/></svg>