<svg preserveAspectRatio="none" id="Layer_1" data-name="Layer 1" xmlns="http://www.w3.org/2000/svg" viewBox="0 0 118.27 118.37"><defs><style>.cls-1{fill:#0e8092}.cls-2{fill:#12aac2}.cls-3{fill:#ff8a29}</style></defs><path class="cls-1" d="M202.19 322.67a.49.49 0 00.43-.74.5.5 0 10-.43.74zM259.35 322.5a.54.54 0 00.25.06.5.5 0 10-.44-.74.5.5 0 00.19.68zM267.84 328.15a.5.5 0 00.39-.18.51.51 0 00-.07-.71.5.5 0 00-.62.78.51.51 0 00.3.11zM240.82 316h.08a.46.46 0 10-.08 0zM263.56 325.1a.47.47 0 00.28.09.5.5 0 00.41-.22.49.49 0 00-.13-.69.5.5 0 10-.56.82zM250.36 318.44a.52.52 0 00.17 0 .5.5 0 00.17-1 .51.51 0 00-.64.31.49.49 0 00.3.69zM245.64 317h.13a.52.52 0 10-.13 0zM255 320.29a.44.44 0 00.2 0 .5.5 0 10-.2 0zM289.12 370.79a.5.5 0 00.5.48.51.51 0 00.48-.52.5.5 0 00-.52-.48.49.49 0 00-.46.52zM271.58 331.44a.5.5 0 00.34-.86.5.5 0 00-.69.72.52.52 0 00.35.14zM288.7 365.87a.51.51 0 00.5.44h.06a.49.49 0 00.43-.56.5.5 0 10-.99.12zM275 335a.53.53 0 00.33-.12.51.51 0 000-.71.5.5 0 00-.75.67.51.51 0 00.42.16zM277.76 338.7a.48.48 0 00.4.2.47.47 0 00.29-.1.49.49 0 00.11-.69.5.5 0 00-.7-.11.51.51 0 00-.11.7zM194 328.29a.51.51 0 00.32-.12.49.49 0 00.08-.7.5.5 0 10-.4.82zM183.69 339.08a.48.48 0 00.4-.21.5.5 0 10-.8-.6.5.5 0 00.1.7.5.5 0 00.3.11zM198 325.31a.5.5 0 10-.41-.22.49.49 0 00.41.22zM206.62 320.41a.49.49 0 00.46-.71.5.5 0 00-.67-.24.5.5 0 00.21.95zM190.24 331.58a.52.52 0 00.35-.14.5.5 0 000-.71.49.49 0 00-.7 0 .49.49 0 00.35.85zM186.81 335.19a.47.47 0 00.37-.16.5.5 0 10-.75-.66.5.5 0 00.38.82zM235.92 315.35a.5.5 0 00.5-.46.5.5 0 00-.46-.54.5.5 0 10-.04 1zM211.23 318.54a.52.52 0 00.17 0 .5.5 0 10-.17 0zM230.76 315.13h.24a.5.5 0 000-1h-.23a.5.5 0 00-.5.5.49.49 0 00.49.5zM225.79 315.37a.51.51 0 00.45-.55.5.5 0 10-1 .09.5.5 0 00.55.46zM220.85 316h.09a.48.48 0 00.4-.57.5.5 0 10-.49.57zM216 317.08h.12a.48.48 0 10-.12 0zM287.28 390a.49.49 0 00-.62.33.5.5 0 00.33.62.39.39 0 00.15 0 .51.51 0 00.48-.36.5.5 0 00-.34-.59zM216.44 429.67a.49.49 0 00-.61.36.51.51 0 00.35.61h.13a.5.5 0 00.13-.97zM283.66 399.24a.5.5 0 10-.45.89.44.44 0 00.22 0 .5.5 0 00.23-.89zM285.44 351.9a.45.45 0 00.19 0 .49.49 0 00.27-.65.48.48 0 00-.65-.27.49.49 0 00-.27.65.5.5 0 00.46.27zM211.72 428.24a.5.5 0 10-.33 1 .52.52 0 00.17 0 .5.5 0 00.16-1zM231.1 431.5a.5.5 0 10.5.5.5.5 0 00-.5-.5zM221.27 430.7a.5.5 0 00-.16 1h.08a.49.49 0 00.49-.41.51.51 0 00-.41-.59zM226.17 431.31a.5.5 0 00-.54.46.5.5 0 00.46.54.5.5 0 00.54-.46.52.52 0 00-.46-.54zM287.1 356.58a.4.4 0 00.15 0 .51.51 0 00.33-.63.5.5 0 00-.62-.34.5.5 0 00-.34.63.51.51 0 00.48.34zM236 431.29a.51.51 0 00-.45.55.5.5 0 00.5.45.5.5 0 10-.05-1zM198.51 421.61a.5.5 0 10-.55.83.45.45 0 00.27.08.5.5 0 00.28-.91zM207.14 426.41a.51.51 0 00-.67.25.5.5 0 00.25.66.53.53 0 00.21 0 .51.51 0 00.46-.3.5.5 0 00-.25-.61zM288.36 361.41h.1a.51.51 0 00.39-.59.5.5 0 00-.6-.38.5.5 0 00.11.97zM202.72 424.19a.51.51 0 00-.68.2.5.5 0 00.44.74.5.5 0 00.24-.94zM285.67 394.67a.5.5 0 10-.37.93.59.59 0 00.18 0 .5.5 0 00.19-.93zM271.3 415.28a.49.49 0 000 .7.48.48 0 00.36.16.52.52 0 00.34-.14.5.5 0 000-.71.49.49 0 00-.7-.01zM288.49 385.12a.52.52 0 00-.6.39.5.5 0 00.39.59h.1a.5.5 0 00.11-.98zM274.72 411.71a.51.51 0 000 .71.53.53 0 00.33.12.51.51 0 00.38-.17.51.51 0 000-.71.49.49 0 00-.71.05zM281 343a.5.5 0 00.26-.08.5.5 0 10-.69-.16.52.52 0 00.43.24zM277.82 407.86a.5.5 0 00.1.7.47.47 0 00.3.1.5.5 0 00.3-.9.49.49 0 00-.7.1zM281.27 403.61a.5.5 0 00-.53.85.48.48 0 00.26.07.5.5 0 00.27-.92zM283.39 347.37a.45.45 0 00.22-.06.49.49 0 00.22-.67.5.5 0 10-.44.73zM255 426.32a.5.5 0 00.21 1 .54.54 0 00.21 0 .51.51 0 00.25-.66.5.5 0 00-.67-.34zM250.47 428.16a.49.49 0 00-.3.64.5.5 0 00.47.33h.17a.51.51 0 00.3-.64.49.49 0 00-.64-.33zM240.93 430.66a.51.51 0 00-.41.58.51.51 0 00.5.42h.08a.5.5 0 00-.17-1zM245.75 429.62a.5.5 0 00-.35.61.49.49 0 00.48.37h.12a.51.51 0 00.35-.61.5.5 0 00-.6-.37zM268.31 418.62a.49.49 0 10-.07.7.5.5 0 00.07-.7zM263.64 421.49a.49.49 0 00-.13.69.48.48 0 00.41.22.54.54 0 00.28-.08.51.51 0 00.14-.7.5.5 0 00-.7-.13zM259.45 424.08a.5.5 0 00-.2.68.51.51 0 00.44.25.57.57 0 00.25-.06.5.5 0 00.19-.68.5.5 0 00-.68-.19zM176.27 352.07a.39.39 0 00.18 0 .51.51 0 00.47-.31.51.51 0 00-.28-.65.49.49 0 00-.65.27.5.5 0 00.28.69zM180.82 403.79a.5.5 0 00.27.92.48.48 0 00.26-.07.5.5 0 00.16-.69.49.49 0 00-.69-.16zM173.29 380.87a.51.51 0 00-.56-.43.5.5 0 00.06 1h.07a.49.49 0 00.43-.57zM174.13 385.74a.49.49 0 00-.59-.38.5.5 0 00-.38.6.51.51 0 00.49.39h.11a.49.49 0 00.38-.59zM174.66 356.79a.38.38 0 00.15 0 .51.51 0 00.48-.35.5.5 0 00-.34-.63.5.5 0 00-.29.98zM176.39 394.88a.5.5 0 00-.27.65.48.48 0 00.46.32.66.66 0 00.19 0 .5.5 0 00-.38-.97zM178.42 399.44a.49.49 0 00-.22.67.5.5 0 00.44.27.45.45 0 00.23 0 .5.5 0 00.22-.67.49.49 0 00-.67-.27zM174.76 390.19a.5.5 0 00.15 1 .39.39 0 00.15 0 .5.5 0 00.33-.62.51.51 0 00-.63-.38zM178.27 347.5a.44.44 0 00.22.05.51.51 0 00.45-.27.5.5 0 10-.67.22zM173.47 361.62h.1a.5.5 0 00.49-.39.49.49 0 00-.38-.59.5.5 0 00-.6.38.5.5 0 00.39.6zM172.39 376.49a.51.51 0 00.47-.52.49.49 0 00-.52-.47.5.5 0 00-.48.52.51.51 0 00.51.48zM180.65 343.13a.48.48 0 00.26.07.5.5 0 00.43-.24.51.51 0 00-.17-.69.5.5 0 00-.52.86zM172.33 371.5a.5.5 0 00.5-.48.5.5 0 00-.48-.52.5.5 0 00-.52.48.5.5 0 00.5.52zM172.69 366.54h.06a.51.51 0 00.5-.44.5.5 0 00-.44-.56.51.51 0 00-.56.43.51.51 0 00.44.57zM289.65 375.25a.51.51 0 00-.53.47.52.52 0 00.48.53.51.51 0 00.5-.48.5.5 0 00-.45-.52zM193.84 418.75a.49.49 0 00.07.7.56.56 0 00.32.11.49.49 0 00.39-.19.5.5 0 00-.08-.7.5.5 0 00-.7.08zM190.12 415.44a.5.5 0 000 .71.48.48 0 00.7 0 .51.51 0 000-.71.5.5 0 00-.7 0zM289.27 380.21a.5.5 0 00-.12 1h.06a.5.5 0 00.06-1zM183.59 407.94a.49.49 0 00-.1.7.49.49 0 00.4.21.57.57 0 00.3-.1.51.51 0 00.1-.7.5.5 0 00-.7-.11zM186.7 411.83a.49.49 0 000 .7.51.51 0 00.71 0 .51.51 0 000-.71.48.48 0 00-.71.01z" transform="translate(-171.85 -314.13)"/><path class="cls-2" d="M218.42 384.28l5.67-5.67a8.7 8.7 0 01-1.81-4.45h-8a16.65 16.65 0 004.14 10.12zM231 356.47a16.74 16.74 0 00-16.7 15.69h8a8.75 8.75 0 0117.37 0h8A16.74 16.74 0 00231 356.47zm0 7.08a3.22 3.22 0 113.22-3.22 3.22 3.22 0 01-3.22 3.22zm7.67 1.73a.43.43 0 11.43-.43.43.43 0 01-.44.43zm2.16-1.74a.85.85 0 11.85-.85.85.85 0 01-.86.85zM231 390a16.74 16.74 0 0016.71-15.82h-8A8.74 8.74 0 01225.5 380l-5.67 5.67A16.67 16.67 0 00231 390zm0-7.23a3.31 3.31 0 11-3.31 3.31 3.31 3.31 0 013.31-3.33z" transform="translate(-171.85 -314.13)"/><circle class="cls-2" cx="59.14" cy="71.92" r="1.77"/><path class="cls-2" d="M231 380.35a7.15 7.15 0 01-4.34-1.47l-.36.36a7.67 7.67 0 0012.31-5.08h-.51a7.19 7.19 0 01-7.1 6.19zM224.89 377.82l.36-.36a7.14 7.14 0 01-1.36-3.3h-.51a7.63 7.63 0 001.51 3.66zM231 365.47a7.69 7.69 0 00-7.62 6.69h.51a7.18 7.18 0 0114.22 0h.51a7.7 7.7 0 00-7.62-6.69zM231 333.93v-4a43.3 43.3 0 00-43.25 43.25h4A39.29 39.29 0 01231 333.93zM231 412.85v4a43.73 43.73 0 0043.68-43.68h-4A39.72 39.72 0 01231 412.85z" transform="translate(-171.85 -314.13)"/><path class="cls-2" d="M266.79 339.92l-.58.58-7.21 7.19-3.17-3.17 7.18-7.18.56-.56a48.69 48.69 0 00-32.57-12.5v4a44.65 44.65 0 0127.37 9.35l-6.9 6.9a4.66 4.66 0 00-.33.4 34.63 34.63 0 00-20.14-6.45v1a33.64 33.64 0 0119.61 6.28 4.74 4.74 0 00.87 5.48l.82.82a4.74 4.74 0 005.63.79 33.66 33.66 0 016.91 20.46h1a34.65 34.65 0 00-7.09-21c.09-.08.18-.14.27-.22l7-7a44.67 44.67 0 019.9 28.08h4a48.7 48.7 0 00-13.13-33.25zm-11.66 10.17a1.72 1.72 0 111.72-1.72 1.72 1.72 0 01-1.72 1.72zM200.14 373.32h1A29.88 29.88 0 01231 343.47v-1a30.88 30.88 0 00-30.86 30.85zM196.15 373.32a34.7 34.7 0 009.43 23.8l.71-.71a33.7 33.7 0 01-9.14-23.09h-1zM231 407.16a33.71 33.71 0 01-23.29-9.32l-.71.71a34.7 34.7 0 0024 9.62v-1zM231 403.28v1a31 31 0 0031-31h-1a30 30 0 01-30 30z" transform="translate(-171.85 -314.13)"/><path class="cls-2" d="M232 411.55a37.44 37.44 0 0037.4-37.4h-.25A37.19 37.19 0 01232 411.3v.25z" transform="translate(-171.85 -314.13)"/><path class="cls-2" d="M231.1 405.27v.25a32.32 32.32 0 0032.28-32.28h-.25a32.07 32.07 0 01-32.03 32.03z" transform="translate(-171.85 -314.13)"/><path class="cls-2" d="M231 345.52v.88a26.76 26.76 0 00-26.73 26.73h-.87a27.5 27.5 0 007.4 18.79l1.41-1.41a25.51 25.51 0 01-6.82-17.37h-.87A26.51 26.51 0 01231 346.65v.88a25.63 25.63 0 0125.61 25.61h.88A26.51 26.51 0 01231 399.61v-.87a25.51 25.51 0 01-17.37-6.82l-1.41 1.41a27.5 27.5 0 0018.79 7.4v-.87a26.76 26.76 0 0026.73-26.73h.88A27.64 27.64 0 00231 345.52z" transform="translate(-171.85 -314.13)"/><path class="cls-3" d="M231 368.92a4.28 4.28 0 00-3.7 6.5l-2.05 2.05-.36.36-.79.79-5.67 5.67-6.22 6.22-1.41 1.41-4.5 4.5-.71.71-7 7a44.72 44.72 0 01-12.45-31h-4A49 49 0 00231 422.07v-4a44.73 44.73 0 01-31-12.5l7-7 .71-.71 4.5-4.5 1.41-1.41 6.22-6.22 5.66-5.73.8-.8.36-.36 2-2a4.31 4.31 0 102.34-7.92z" transform="translate(-171.85 -314.13)"/><circle class="cls-3" cx="57.19" cy="112.76" r=".06"/><circle class="cls-3" cx="55.18" cy="112.65" r=".11"/><circle class="cls-3" cx="53.17" cy="112.46" r=".15"/><circle class="cls-3" cx="51.18" cy="112.2" r=".19"/><circle class="cls-3" cx="49.19" cy="111.87" r=".23"/><circle class="cls-3" cx="47.22" cy="111.46" r=".27"/><circle class="cls-3" cx="45.27" cy="110.97" r=".29"/><circle class="cls-3" cx="43.34" cy="110.42" r=".32"/><circle class="cls-3" cx="41.42" cy="109.79" r=".34"/><circle class="cls-3" cx="39.53" cy="109.09" r=".37"/><circle class="cls-3" cx="37.68" cy="108.32" r=".4"/><circle class="cls-3" cx="35.85" cy="107.48" r=".42"/><circle class="cls-3" cx="34.05" cy="106.57" r=".43"/><circle class="cls-3" cx="32.29" cy="105.6" r=".44"/><circle class="cls-3" cx="30.57" cy="104.56" r=".45"/><circle class="cls-3" cx="28.89" cy="103.45" r=".46"/><circle class="cls-3" cx="27.25" cy="102.29" r=".47"/><circle class="cls-3" cx="25.65" cy="101.06" r=".47"/><circle class="cls-3" cx="24.11" cy="99.78" r=".48"/><circle class="cls-3" cx="22.61" cy="98.44" r=".49"/><circle class="cls-3" cx="21.16" cy="97.04" r=".5"/><circle class="cls-3" cx="19.76" cy="95.6" r=".49"/><circle class="cls-3" cx="18.42" cy="94.1" r=".48"/><circle class="cls-3" cx="17.14" cy="92.55" r=".47"/><circle class="cls-3" cx="15.91" cy="90.96" r=".47"/><circle class="cls-3" cx="14.74" cy="89.32" r=".46"/><circle class="cls-3" cx="13.64" cy="87.64" r=".45"/><circle class="cls-3" cx="12.6" cy="85.92" r=".44"/><circle class="cls-3" cx="11.63" cy="84.16" r=".43"/><circle class="cls-3" cx="10.72" cy="82.36" r=".42"/><circle class="cls-3" cx="9.88" cy="80.54" r=".4"/><circle class="cls-3" cx="9.1" cy="78.68" r=".37"/><circle class="cls-3" cx="8.4" cy="76.8" r=".35"/><circle class="cls-3" cx="7.77" cy="74.89" r=".32"/><circle class="cls-3" cx="7.22" cy="72.95" r=".29"/><circle class="cls-3" cx="6.73" cy="71" r=".27"/><circle class="cls-3" cx="6.32" cy="69.03" r=".23"/><circle class="cls-3" cx="5.99" cy="67.05" r=".19"/><circle class="cls-3" cx="5.72" cy="65.05" r=".15"/><circle class="cls-3" cx="5.54" cy="63.05" r=".11"/><circle class="cls-3" cx="5.42" cy="61.04" r=".06"/><circle class="cls-3" cx="5.39" cy="59.09" r="1.37"/><circle class="cls-3" cx="59.39" cy="112.69" r="1.37"/><circle class="cls-3" cx="72.4" cy="45.12" r="1.72"/><circle class="cls-3" cx="68.97" cy="48.55" r=".85"/><circle class="cls-3" cx="66.81" cy="50.71" r=".43"/><path class="cls-3" d="M60.75 103.99h1.21v3.81h-1.21z"/><path class="cls-3" transform="rotate(-5 -3446.216 2230.445)" d="M236.68 417.76h1.21v3.81h-1.21z"/><path class="cls-3" transform="rotate(-10 -1639.815 1244.11)" d="M240.71 417.03h1.21v3.81h-1.21z"/><path class="cls-3" transform="rotate(-14.99 -1034.452 913.97)" d="M244.66 415.96h1.21v3.81h-1.21z"/><path class="cls-3" transform="rotate(-19.99 -727.984 747.012)" d="M248.5 414.54h1.21v3.81h-1.21z"/><path class="cls-3" transform="rotate(-25 -541.567 645.262)" d="M252.2 412.8h1.21v3.81h-1.21z"/><path class="cls-3" transform="rotate(-30 -415.767 576.256)" d="M255.74 410.74h1.21v3.81h-1.21z"/><path class="cls-3" transform="rotate(-35 -324.423 525.7)" d="M259.09 408.38h1.21v3.81h-1.21z"/><path class="cls-3" transform="rotate(-40 -254.612 486.68)" d="M262.21 405.74h1.21v3.81h-1.21z"/><path class="cls-3" transform="rotate(-45 -199.417 455.111)" d="M265.1 402.83h1.21v3.81h-1.21z"/><path class="cls-3" transform="rotate(-50.01 -154.369 428.746)" d="M267.72 399.69h1.21v3.81h-1.21z"/><path class="cls-3" transform="rotate(-55 -116.964 406.242)" d="M270.05 396.32h1.21v3.81h-1.21z"/><path class="cls-3" transform="rotate(-60 -85.281 386.431)" d="M272.09 392.77h1.21v3.81h-1.21z"/><path class="cls-3" transform="rotate(-65 -58.075 368.758)" d="M273.8 389.05h1.21v3.81h-1.21z"/><path class="cls-3" transform="rotate(-70.01 -34.434 352.718)" d="M275.19 385.2h1.21v3.81h-1.21z"/><path class="cls-3" transform="rotate(-75.01 -13.764 338.04)" d="M276.23 381.24h1.21v3.81h-1.21z"/><path class="cls-3" transform="rotate(-80.01 4.49 324.44)" d="M276.93 377.21h1.21v3.81h-1.21z"/><path class="cls-3" transform="rotate(-85 20.546 311.742)" d="M277.27 373.13h1.21v3.81h-1.21z"/></svg>