<svg preserveAspectRatio="none" id="BACKGROUND_2" data-name="BACKGROUND 2" xmlns="http://www.w3.org/2000/svg" viewBox="0 0 306.78 304.98"><defs><style>.cls-1{opacity:0.91;}.cls-2,.cls-3,.cls-7{fill:none;stroke:#11cfe7;stroke-miterlimit:10;}.cls-3{stroke-width:7px;}.cls-4,.cls-5{fill:#11cfe7;}.cls-4{opacity:0.18;}.cls-6{opacity:0.45;}.cls-7{stroke-width:2px;}</style></defs><title>circle63</title><g class="cls-1"><circle class="cls-2" cx="744.9" cy="372.82" r="97.22" transform="translate(-665.73 9.67) rotate(-16.66)"/><path class="cls-2" d="M769.86,483.75L785,479.23l0.33-11.65a102.49,102.49,0,0,0,15-7.88L810,466l12.27-9.91-4.11-10.88a103.14,103.14,0,0,0,11.29-13.65l11.48,2,7.49-13.88-8-8.47a103.18,103.18,0,0,0,5-16.14l11.38-2.46L858.53,377l-10.61-4.8a102.48,102.48,0,0,0-1.64-17.64l9.55-6.67-4.52-15.11-11.65-.33a102.46,102.46,0,0,0-7.88-15l6.31-9.79-9.91-12.27-10.88,4.11a103.15,103.15,0,0,0-13.65-11.29l2-11.48-13.88-7.49-8.48,8a103.15,103.15,0,0,0-16.14-5l-2.46-11.38L749,259.2l-4.8,10.61a102.47,102.47,0,0,0-17.64,1.64l-6.67-9.55-15.11,4.52-0.33,11.65a102.49,102.49,0,0,0-15,7.88l-9.79-6.31-12.27,9.91,4.11,10.88a103.16,103.16,0,0,0-11.29,13.65l-11.48-2-7.49,13.88,8,8.48a103.14,103.14,0,0,0-5,16.14L632.94,353l-1.67,15.69,10.61,4.8a102.5,102.5,0,0,0,1.64,17.64L634,397.78l4.52,15.11,11.65,0.33a102.48,102.48,0,0,0,7.88,15L651.71,438l9.91,12.27,10.88-4.11a103.14,103.14,0,0,0,13.65,11.29l-2,11.48L698,476.4l8.48-8a103.14,103.14,0,0,0,16.14,5l2.46,11.38,15.69,1.67,4.8-10.61a102.51,102.51,0,0,0,17.64-1.64Z" transform="translate(-590.12 -219.5)"/><circle class="cls-3" cx="744.9" cy="372.82" r="64.56" transform="translate(-665.73 9.67) rotate(-16.66)"/><circle class="cls-4" cx="744.9" cy="372.82" r="32.46" transform="matrix(0.96, -0.29, 0.29, 0.96, -665.73, 9.67)"/><path class="cls-5" d="M621.65,409.71c-0.26-.88-0.51-1.75-0.76-2.62l8.45-2.34q0.64,2.32,1.38,4.63L622.38,412Q622,410.88,621.65,409.71Zm2,6,8.27-2.92c0.53,1.5,1.1,3,1.7,4.52l-8.15,3.24C624.8,419,624.19,417.34,623.62,415.73Zm-3.7-12.41c-0.41-1.68-.79-3.38-1.13-5.06l8.59-1.74c0.32,1.56.67,3.15,1.06,4.72Zm-1.85-8.88c-0.29-1.69-.55-3.42-0.77-5.13l8.7-1.13c0.21,1.59.45,3.2,0.72,4.78Zm70.24,93.92,3.86-7.87c1.44,0.71,2.91,1.39,4.38,2l-3.54,8C691.44,489.85,689.86,489.12,688.31,488.36Zm8.28,3.7,3.3-8.12c1.48,0.6,3,1.18,4.52,1.73l-3,8.25C699.81,493.33,698.18,492.71,696.59,492.06Zm8.53,3.12,2.72-8.34c1.54,0.5,3.09,1,4.63,1.41l-2.38,8.44C708.44,496.23,706.77,495.72,705.12,495.18Zm8.73,2.51,2.12-8.51c1.56,0.39,3.15.75,4.72,1.08l-1.78,8.59C717.23,498.5,715.53,498.11,713.85,497.69Zm8.89,1.89,1.51-8.64c1.59,0.28,3.2.53,4.79,0.74l-1.17,8.69C726.17,500.14,724.44,499.88,722.75,499.58Zm9,1.26,0.9-8.72c1.6,0.17,3.23.3,4.83,0.4l-0.55,8.75C735.21,501.15,733.47,501,731.75,500.83Zm9.08,0.61,0.27-8.76c1.61,0,3.23.07,4.83,0.05L746,501.5C744.3,501.52,742.56,501.5,740.83,501.44Zm-46-247.16c1.59-.67,3.21-1.31,4.82-1.91l3.07,8.21c-1.5.56-3,1.16-4.49,1.78Zm8.48-3.22c1.54-.53,3.12-1,4.67-1.49l0.26-.08,2.51,8.4-0.26.08c-1.45.43-2.92,0.9-4.36,1.39Zm10.92,5.85L712,248.43c1.68-.44,3.37-0.86,5-1.23l1.9,8.56C717.42,256.11,715.84,256.5,714.28,256.91Zm8.25-1.88-1.65-8.61c1.7-.33,3.42-0.62,5.11-0.87l1.3,8.67C725.71,254.46,724.11,254.73,722.53,255Zm8.35-1.29-1-8.71c1.71-.2,3.44-0.37,5.16-0.51l0.68,8.74C734.09,253.39,732.47,253.55,730.88,253.74Zm8.42-.7-0.42-8.76c1.73-.08,3.48-0.13,5.19-0.14l0.06,8.77C742.54,252.92,740.92,253,739.31,253Zm8.45-.1,0.21-8.77c1.72,0,3.46.12,5.19,0.23l-0.56,8.75C751,253,749.36,253,747.76,252.94Zm8.46,0.5,0.83-8.73c1.71,0.16,3.45.36,5.16,0.6L761,254C759.43,253.78,757.82,253.59,756.22,253.44Zm102.2,158c0.52-1.52,1-3.07,1.47-4.61l8.41,2.49c-0.49,1.65-1,3.32-1.58,4.95Zm2.45-8.1c0.41-1.56.79-3.14,1.14-4.7l8.56,1.89c-0.37,1.68-.78,3.38-1.22,5Zm1.87-8.26c0.3-1.57.57-3.18,0.8-4.77l8.67,1.28c-0.25,1.71-.54,3.44-0.86,5.12Zm1.28-8.37c0.19-1.59.34-3.21,0.46-4.82l8.74,0.66c-0.13,1.72-.3,3.47-0.5,5.18Zm0.68-8.45c0.07-1.6.11-3.23,0.12-4.84l8.77,0c0,1.73-.05,3.48-0.13,5.2Z" transform="translate(-590.12 -219.5)"/><path class="cls-5" d="M626.94,424.18l8-3.49c0.64,1.47,1.31,2.95,2,4.39l-7.9,3.81C628.35,427.34,627.62,425.75,626.94,424.18Z" transform="translate(-590.12 -219.5)"/><path class="cls-5" d="M630.84,432.37l7.78-4c0.74,1.42,1.52,2.84,2.32,4.24l-7.61,4.36C632.47,435.42,631.63,433.89,630.84,432.37Z" transform="translate(-590.12 -219.5)"/><path class="cls-5" d="M635.31,440.26l7.47-4.59c0.84,1.37,1.72,2.74,2.61,4.06l-7.28,4.89C637.16,443.21,636.22,441.74,635.31,440.26Z" transform="translate(-590.12 -219.5)"/><path class="cls-5" d="M640.34,447.83l7.12-5.12c0.95,1.32,1.92,2.62,2.9,3.87L643.44,452C642.4,450.64,641.35,449.24,640.34,447.83Z" transform="translate(-590.12 -219.5)"/><path class="cls-5" d="M645.87,455l6.75-5.6c1,1.21,2.07,2.44,3.15,3.64l-6.51,5.87C648.1,457.61,647,456.3,645.87,455Z" transform="translate(-590.12 -219.5)"/><path class="cls-5" d="M651.9,461.75l6.33-6.07c1.11,1.16,2.26,2.31,3.41,3.42l-6.08,6.31C654.32,464.23,653.09,463,651.9,461.75Z" transform="translate(-590.12 -219.5)"/><path class="cls-5" d="M658.39,468.06l5.9-6.49c1.17,1.06,2.39,2.12,3.63,3.16l-5.62,6.73C661,470.35,659.65,469.2,658.39,468.06Z" transform="translate(-590.12 -219.5)"/><path class="cls-5" d="M665.32,473.91l5.41-6.9c1.26,1,2.56,2,3.86,2.91l-5.14,7.1C668.06,476,666.67,475,665.32,473.91Z" transform="translate(-590.12 -219.5)"/><path class="cls-5" d="M672.63,479.26l4.92-7.26c1.33,0.9,2.7,1.79,4.05,2.63L677,482.08C675.52,481.18,674.06,480.23,672.63,479.26Z" transform="translate(-590.12 -219.5)"/><path class="cls-5" d="M680.31,484.08l4.4-7.58c1.4,0.81,2.82,1.6,4.22,2.34l-4.09,7.76C683.34,485.8,681.81,485,680.31,484.08Z" transform="translate(-590.12 -219.5)"/><path class="cls-5" d="M634.37,307c0.88-1.48,1.8-3,2.74-4.4l7.35,4.78c-0.87,1.34-1.73,2.72-2.56,4.1Z" transform="translate(-590.12 -219.5)"/><path class="cls-5" d="M639.28,299.36c1-1.4,2-2.81,3-4.19l7,5.28c-1,1.29-1.93,2.6-2.83,3.91Z" transform="translate(-590.12 -219.5)"/><path class="cls-5" d="M644.71,292.1c1.08-1.35,2.2-2.69,3.33-4l6.6,5.77c-1,1.2-2.09,2.44-3.1,3.7Z" transform="translate(-590.12 -219.5)"/><path class="cls-5" d="M650.63,285.25c1.16-1.25,2.37-2.5,3.59-3.72l6.19,6.21c-1.14,1.14-2.27,2.31-3.35,3.47Z" transform="translate(-590.12 -219.5)"/><path class="cls-5" d="M657,278.83c1.26-1.18,2.55-2.34,3.85-3.46l5.73,6.64c-1.21,1-2.41,2.13-3.58,3.22Z" transform="translate(-590.12 -219.5)"/><path class="cls-5" d="M663.84,272.88c1.34-1.09,2.72-2.16,4.09-3.19l5.25,7c-1.28,1-2.56,2-3.81,3Z" transform="translate(-590.12 -219.5)"/><path class="cls-5" d="M671.08,267.41c1.41-1,2.86-2,4.31-2.89l4.73,7.38c-1.35.87-2.7,1.77-4,2.69Z" transform="translate(-590.12 -219.5)"/><path class="cls-5" d="M749.91,501.41l-0.35-8.76c1.62-.07,3.25-0.16,4.82-0.29l0.7,8.74C753.39,501.23,751.65,501.34,749.91,501.41Z" transform="translate(-590.12 -219.5)"/><path class="cls-5" d="M678.7,262.47c1.47-.88,3-1.75,4.5-2.57l4.2,7.7c-1.41.77-2.82,1.58-4.19,2.4Z" transform="translate(-590.12 -219.5)"/><path class="cls-5" d="M759,500.72L758,492c1.6-.18,3.21-0.39,4.79-0.63L764.1,500C762.4,500.31,760.68,500.53,759,500.72Z" transform="translate(-590.12 -219.5)"/><path class="cls-5" d="M686.64,258.09c1.52-.77,3.09-1.53,4.67-2.25l3.64,8c-1.47.67-2.93,1.38-4.35,2.1Z" transform="translate(-590.12 -219.5)"/><path class="cls-5" d="M767.93,499.41l-1.58-8.62c1.57-.29,3.16-0.61,4.73-1l1.93,8.55C771.33,498.75,769.62,499.1,767.93,499.41Z" transform="translate(-590.12 -219.5)"/><path class="cls-5" d="M776.79,497.46L774.61,489c1.56-.4,3.12-0.84,4.66-1.3l0.66-.2,2.56,8.39-0.7.21C780.14,496.57,778.46,497,776.79,497.46Z" transform="translate(-590.12 -219.5)"/><path class="cls-5" d="M783.38,486.36c1.53-.52,3.06-1.07,4.55-1.64l3.14,8.19c-1.6.61-3.24,1.2-4.88,1.76Z" transform="translate(-590.12 -219.5)"/><path class="cls-5" d="M791.29,483.38c1.48-.62,3-1.27,4.42-2l3.7,7.95c-1.56.73-3.16,1.43-4.74,2.1Z" transform="translate(-590.12 -219.5)"/><path class="cls-5" d="M799,479.85c1.43-.72,2.87-1.48,4.27-2.26l4.26,7.66c-1.51.84-3.05,1.65-4.59,2.43Z" transform="translate(-590.12 -219.5)"/><path class="cls-5" d="M806.38,475.78c1.38-.82,2.76-1.68,4.1-2.56l4.79,7.34c-1.44.94-2.92,1.86-4.4,2.75Z" transform="translate(-590.12 -219.5)"/><path class="cls-5" d="M813.48,471.2c1.31-.91,2.63-1.87,3.91-2.84l5.3,7c-1.37,1-2.79,2.07-4.2,3.05Z" transform="translate(-590.12 -219.5)"/><path class="cls-5" d="M820.24,466.12c1.24-1,2.48-2,3.68-3.1l5.78,6.59c-1.3,1.14-2.63,2.26-4,3.33Z" transform="translate(-590.12 -219.5)"/><path class="cls-5" d="M830.93,289.28l6.28-6.12c1.2,1.24,2.39,2.51,3.53,3.78l-6.53,5.85C833.15,291.61,832,290.43,830.93,289.28Z" transform="translate(-590.12 -219.5)"/><path class="cls-5" d="M836.59,295.53l6.7-5.66c1.1,1.31,2.2,2.66,3.26,4l-6.92,5.38C838.64,298,837.62,296.74,836.59,295.53Z" transform="translate(-590.12 -219.5)"/><path class="cls-5" d="M841.8,302.16l7.08-5.17c1,1.4,2,2.83,3,4.25l-7.29,4.87C843.68,304.8,842.75,303.47,841.8,302.16Z" transform="translate(-590.12 -219.5)"/><path class="cls-5" d="M846.53,309.17l7.43-4.65c0.91,1.45,1.8,3,2.66,4.45L849,313.31C848.22,311.91,847.38,310.52,846.53,309.17Z" transform="translate(-590.12 -219.5)"/><path class="cls-5" d="M864.78,369.76c0-1.6-.12-3.22-0.22-4.82l8.75-.58c0.11,1.72.2,3.46,0.24,5.18Z" transform="translate(-590.12 -219.5)"/><path class="cls-5" d="M850.76,316.49l7.75-4.11c0.81,1.52,1.59,3.08,2.34,4.63l-7.9,3.8C852.24,319.35,851.51,317.9,850.76,316.49Z" transform="translate(-590.12 -219.5)"/><path class="cls-5" d="M864.26,361.32c-0.16-1.59-.35-3.21-0.57-4.8l8.69-1.2c0.24,1.71.44,3.44,0.61,5.15Z" transform="translate(-590.12 -219.5)"/><path class="cls-5" d="M854.46,324.09l8-3.55c0.69,1.57,1.37,3.18,2,4.78l-8.15,3.23C855.73,327,855.1,325.55,854.46,324.09Z" transform="translate(-590.12 -219.5)"/><path class="cls-5" d="M863.14,352.94c-0.27-1.57-.57-3.17-0.9-4.75l8.58-1.81c0.36,1.69.68,3.41,1,5.09Z" transform="translate(-590.12 -219.5)"/><path class="cls-5" d="M857.61,331.94l8.25-3c0.59,1.62,1.15,3.27,1.67,4.91l-8.36,2.65C858.68,335,858.15,333.45,857.61,331.94Z" transform="translate(-590.12 -219.5)"/><path class="cls-5" d="M861.44,344.66c-0.38-1.56-.79-3.13-1.23-4.67l8.43-2.4c0.47,1.66.92,3.34,1.32,5Z" transform="translate(-590.12 -219.5)"/><path class="cls-5" d="M616.85,385.45c-0.17-1.7-.31-3.44-0.41-5.17l8.75-.52c0.09,1.61.22,3.23,0.38,4.82Z" transform="translate(-590.12 -219.5)"/><path class="cls-5" d="M616.27,376.39c0-1.72-.06-3.46,0-5.19l8.77,0.11c0,1.61,0,3.23,0,4.83Z" transform="translate(-590.12 -219.5)"/><path class="cls-5" d="M616.34,367.3c0.07-1.73.18-3.48,0.33-5.19l8.74,0.73c-0.13,1.6-.24,3.22-0.31,4.83Z" transform="translate(-590.12 -219.5)"/><path class="cls-5" d="M617.05,358.23c0.2-1.72.43-3.45,0.7-5.15l8.66,1.35c-0.25,1.59-.46,3.2-0.65,4.8Z" transform="translate(-590.12 -219.5)"/><path class="cls-5" d="M618.41,349.24c0.32-1.69.67-3.4,1.06-5.08l8.55,2c-0.36,1.57-.69,3.16-1,4.74Z" transform="translate(-590.12 -219.5)"/><path class="cls-5" d="M620.39,340.37c0.43-1.66.91-3.34,1.42-5l8.39,2.56c-0.47,1.54-.91,3.11-1.32,4.66Z" transform="translate(-590.12 -219.5)"/><path class="cls-5" d="M623,331.67c0.55-1.63,1.14-3.27,1.76-4.88l8.19,3.14c-0.58,1.5-1.13,3-1.64,4.55Z" transform="translate(-590.12 -219.5)"/><path class="cls-5" d="M626.21,323.18c0.66-1.58,1.37-3.17,2.1-4.74l7.95,3.7c-0.68,1.46-1.34,3-2,4.42Z" transform="translate(-590.12 -219.5)"/><path class="cls-5" d="M630,314.94c0.77-1.53,1.58-3.07,2.42-4.58l7.67,4.25c-0.78,1.41-1.54,2.85-2.26,4.27Z" transform="translate(-590.12 -219.5)"/><path class="cls-5" d="M764.62,254.54l1.45-8.65c1.7,0.28,3.42.61,5.11,1l-1.8,8.58C767.8,255.1,766.2,254.8,764.62,254.54Z" transform="translate(-590.12 -219.5)"/><path class="cls-5" d="M826.61,460.59c1.17-1.09,2.33-2.22,3.46-3.36l6.23,6.17c-1.21,1.22-2.46,2.44-3.71,3.6Z" transform="translate(-590.12 -219.5)"/><path class="cls-5" d="M772.92,256.23l2.06-8.52c1.67,0.4,3.36.85,5,1.32l-2.4,8.43C776,257,774.47,256.61,772.92,256.23Z" transform="translate(-590.12 -219.5)"/><path class="cls-5" d="M832.57,454.62c1.09-1.17,2.17-2.38,3.22-3.6l6.65,5.71c-1.12,1.3-2.28,2.6-3.45,3.86Z" transform="translate(-590.12 -219.5)"/><path class="cls-5" d="M781.07,258.51l2.65-8.36c1.64,0.52,3.29,1.08,4.91,1.67l-3,8.24C784.14,259.51,782.6,259,781.07,258.51Z" transform="translate(-590.12 -219.5)"/><path class="cls-5" d="M838.1,448.25c1-1.25,2-2.53,3-3.81l7,5.23c-1,1.38-2.09,2.75-3.17,4.09Z" transform="translate(-590.12 -219.5)"/><path class="cls-5" d="M789,261.35l3.23-8.15c1.59,0.63,3.2,1.31,4.78,2l-3.56,8C792,262.57,790.53,261.94,789,261.35Z" transform="translate(-590.12 -219.5)"/><path class="cls-5" d="M843.18,441.5c0.92-1.32,1.83-2.67,2.69-4l7.39,4.73c-0.92,1.44-1.89,2.89-2.88,4.31Z" transform="translate(-590.12 -219.5)"/><path class="cls-5" d="M796.79,264.74l3.8-7.9c1.55,0.74,3.1,1.53,4.63,2.34l-4.11,7.75C799.69,266.17,798.23,265.44,796.79,264.74Z" transform="translate(-590.12 -219.5)"/><path class="cls-5" d="M847.77,434.4c0.82-1.38,1.63-2.79,2.4-4.19l7.7,4.2c-0.82,1.51-1.69,3-2.57,4.5Z" transform="translate(-590.12 -219.5)"/><path class="cls-5" d="M804.28,268.67l4.34-7.62c1.5,0.85,3,1.75,4.45,2.66l-4.64,7.44C807.07,270.3,805.68,269.47,804.28,268.67Z" transform="translate(-590.12 -219.5)"/><path class="cls-5" d="M851.86,427c0.72-1.42,1.43-2.88,2.1-4.35l8,3.65c-0.72,1.58-1.48,3.15-2.25,4.67Z" transform="translate(-590.12 -219.5)"/><path class="cls-5" d="M811.47,273.11l4.87-7.29c1.44,1,2.87,2,4.25,3l-5.15,7.09C814.15,274.93,812.82,274,811.47,273.11Z" transform="translate(-590.12 -219.5)"/><path class="cls-5" d="M855.41,419.32c0.62-1.48,1.23-3,1.79-4.49l8.21,3.08c-0.6,1.61-1.25,3.23-1.92,4.82Z" transform="translate(-590.12 -219.5)"/><path class="cls-5" d="M818.34,278l5.36-6.94c1.36,1.05,2.72,2.15,4,3.25l-5.64,6.71C820.87,280,819.6,279,818.34,278Z" transform="translate(-590.12 -219.5)"/><path class="cls-5" d="M824.83,283.44l5.84-6.54c1.28,1.14,2.56,2.33,3.79,3.53l-6.1,6.3C827.21,285.61,826,284.5,824.83,283.44Z" transform="translate(-590.12 -219.5)"/><g class="cls-6"><circle class="cls-7" cx="744.8" cy="371.92" r="151.07" transform="translate(-526.24 631.37) rotate(-61.66)"/><path class="cls-5" d="M614.17,411a136,136,0,0,1,10.57-103.85h0c35.71-66.2,118.63-91,184.83-55.3a136.42,136.42,0,0,1,55.3,184.83c-35.71,66.21-118.62,91-184.83,55.3A136,136,0,0,1,614.17,411Zm14.88-101.52c-34.42,63.83-10.51,143.75,53.31,178.18s143.76,10.51,178.18-53.31a131.52,131.52,0,0,0-53.31-178.18c-63.82-34.42-143.76-10.51-178.18,53.31h0Z" transform="translate(-590.12 -219.5)"/><path class="cls-5" d="M814,245.19l0.07,0q1.35,0.73,2.68,1.48l-5.93,10.44q-1.21-.69-2.45-1.35Zm-15.87-7.36L793.7,249q-1.34-.53-2.69-1l4.14-11.27Q796.62,237.25,798.09,237.83Zm33.29,18.4q1.27,0.94,2.51,1.9l-7.34,9.5q-1.13-.88-2.29-1.73Zm-53-24.55-2.75,11.69q-1.4-.33-2.81-0.63L775.32,231Q776.86,231.31,778.39,231.67Zm68.68,38q1.12,1.11,2.21,2.24l-8.62,8.35q-1-1-2-2ZM758,228.41l-1,12q-1.43-.12-2.86-0.22l0.79-12Q756.44,228.27,758,228.41Zm102.68,56.76q1,1.26,1.87,2.53l-9.73,7q-0.84-1.17-1.71-2.32ZM737.39,228.09l0.67,12q-1.44.08-2.87,0.19l-0.93-12Q735.83,228.18,737.39,228.09Zm134.55,74.4q0.76,1.37,1.49,2.76l-10.63,5.58q-0.67-1.28-1.37-2.54Zm-155-71.78,2.36,11.77q-1.41.28-2.81,0.6l-2.62-11.71Q715.39,231,716.93,230.7ZM697,236.19l4,11.31q-1.36.48-2.7,1l-4.25-11.23Q695.56,236.71,697,236.19ZM886.94,402.44q-0.32,1.54-.68,3.06l-11.69-2.74q0.33-1.4.63-2.81Zm-5.71,19.84q-0.54,1.47-1.11,2.93l-11.18-4.38q0.53-1.34,1-2.7Zm-8.47,18.81-0.12.21c-0.43.8-.91,1.67-1.4,2.53l-10.45-5.91q0.67-1.18,1.32-2.39Zm-20.69,10.3,9.66,7.12q-0.93,1.26-1.89,2.51l-9.51-7.32Q851.21,452.55,852.07,451.39Zm-12.28,14.39,8.54,8.43q-1.1,1.12-2.23,2.21l-8.36-8.61Q838.77,466.81,839.79,465.78Zm-14.23,12.49,7.25,9.57q-1.26,1-2.53,1.88l-7-9.73Q824.41,479.14,825.56,478.26ZM612.89,380.08q0.08,1.43.2,2.86l-12,1q-0.12-1.56-.21-3.13Zm196.8,108.5,5.81,10.51q-1.38.76-2.77,1.49L807.15,490Q808.43,489.29,809.69,488.59ZM615.32,398.84q0.28,1.41.6,2.81l-11.71,2.65q-0.35-1.53-.66-3.08Zm177.19,97.71,4.26,11.22q-1.47.56-3,1.08l-4-11.31Q791.17,497.06,792.51,496.55ZM620.38,417.07q0.48,1.36,1,2.7l-11.22,4.28q-0.56-1.47-1.09-3Zm7.6,17.34q0.67,1.28,1.37,2.54l-10.5,5.82q-0.76-1.37-1.49-2.77Zm10,16.08q0.85,1.17,1.72,2.32l-9.56,7.26q-1-1.25-1.88-2.53ZM650.15,465q1,1,2,2l-8.43,8.55q-1.12-1.1-2.21-2.23Zm14.13,12.59q1.14,0.88,2.3,1.73L659.46,489q-1.27-.93-2.51-1.89ZM680.05,488l2.32,1.28,0.22,0.12L676.89,500l-0.22-.12q-1.27-.68-2.52-1.39Z" transform="translate(-590.12 -219.5)"/><path class="cls-5" d="M801.7,230.46L793.14,251a129.82,129.82,0,0,0-36.88-9.36l2.25-22.13A152,152,0,0,1,801.7,230.46Zm87.7,97.2a153.2,153.2,0,0,1,6.48,44.08H873.64a131,131,0,0,0-5.54-37.68ZM635.08,263.31l15.71,15.75A130.78,130.78,0,0,0,628,309.6l-0.16.29-19.57-10.56,0.16-.29A152.94,152.94,0,0,1,635.08,263.31ZM622.3,321.68a129.74,129.74,0,0,0-9.29,36.9l-22.13-2.21a152,152,0,0,1,10.88-43.22Zm-9.93,49.94a131,131,0,0,0,5.59,37.67l-21.29,6.42a153.23,153.23,0,0,1-6.53-44.07ZM780.62,496.68L787,518a153.21,153.21,0,0,1-44.07,6.5V502.24A131,131,0,0,0,780.62,496.68ZM729.9,501.6l-2.22,22.13a152,152,0,0,1-43.21-10.91L693,492.28A129.78,129.78,0,0,0,729.9,501.6Z" transform="translate(-590.12 -219.5)"/></g><path class="cls-5" d="M667.94,396.2c-0.16-.55-0.32-1.09-0.47-1.63l5.26-1.45q0.4,1.44.86,2.88l-5.2,1.66Q668.16,396.93,667.94,396.2Zm1.22,3.75,5.14-1.81c0.33,0.93.68,1.88,1.06,2.81l-5.07,2C669.9,402,669.51,401,669.16,400Zm-2.3-7.72c-0.26-1-.49-2.1-0.71-3.15L671.5,388c0.2,1,.42,2,0.66,2.93Zm-1.15-5.53c-0.18-1.05-.34-2.13-0.48-3.19l5.41-.71c0.13,1,.28,2,0.45,3Zm43.7,58.43,2.4-4.9c0.9,0.44,1.81.87,2.73,1.27l-2.2,5C711.36,446.07,710.37,445.61,709.41,445.14Zm5.15,2.31,2.05-5.05c0.92,0.37,1.87.74,2.81,1.08l-1.85,5.13C716.57,448.23,715.55,447.84,714.56,447.44Zm5.31,1.94,1.69-5.19c1,0.31,1.92.61,2.88,0.87L723,450.32C721.93,450,720.89,449.72,719.87,449.38Zm5.43,1.56,1.32-5.29c1,0.24,2,.47,2.94.67l-1.11,5.34C727.4,451.45,726.35,451.2,725.3,450.94Zm5.53,1.18,0.94-5.37c1,0.17,2,.33,3,0.46L734,452.61C733,452.47,731.89,452.3,730.83,452.12Zm5.6,0.78,0.56-5.43c1,0.1,2,.19,3,0.25l-0.34,5.44C738.59,453.1,737.51,453,736.44,452.9Zm5.65,0.38,0.17-5.45c1,0,2,0,3,0l0,5.45C744.25,453.32,743.16,453.31,742.09,453.28ZM713.5,299.5c1-.42,2-0.82,3-1.19l1.91,5.11c-0.93.35-1.87,0.72-2.79,1.11Zm5.28-2c1-.33,1.94-0.64,2.91-0.93l0.16,0,1.56,5.23-0.16,0c-0.9.27-1.81,0.56-2.71,0.87Zm6.8,3.64-1.4-5.27c1-.28,2.1-0.53,3.13-0.76l1.18,5.33C727.52,300.64,726.54,300.88,725.57,301.14ZM730.7,300l-1-5.36c1.06-.2,2.13-0.38,3.18-0.54l0.81,5.39C732.68,299.61,731.68,299.78,730.7,300Zm5.2-.81-0.65-5.42c1.06-.13,2.14-0.23,3.21-0.32l0.42,5.44C737.89,298.95,736.89,299,735.9,299.17Zm5.24-.44-0.26-5.45c1.08-.05,2.16-0.08,3.23-0.09l0,5.45C743.15,298.65,742.14,298.68,741.14,298.73Zm5.26-.06,0.13-5.45c1.07,0,2.15.07,3.23,0.14l-0.35,5.44C748.4,298.73,747.39,298.69,746.4,298.67Zm5.26,0.31,0.52-5.43c1.07,0.1,2.15.23,3.21,0.37l-0.74,5.41C753.66,299.19,752.65,299.07,751.66,299Zm63.59,98.28c0.32-.94.63-1.91,0.91-2.87l5.23,1.55c-0.3,1-.63,2.06-1,3.08Zm1.52-5c0.26-1,.49-2,0.71-2.93l5.33,1.18c-0.23,1-.49,2.1-0.76,3.14Zm1.16-5.14c0.19-1,.35-2,0.5-3l5.4,0.8c-0.16,1.07-.34,2.14-0.54,3.19Zm0.8-5.21c0.12-1,.21-2,0.29-3l5.44,0.41c-0.08,1.07-.19,2.16-0.31,3.22Zm0.42-5.26c0-1,.07-2,0.07-3l5.45,0c0,1.08,0,2.17-.08,3.24Z" transform="translate(-590.12 -219.5)"/><path class="cls-5" d="M671.22,405.21l5-2.17c0.4,0.91.82,1.83,1.25,2.73l-4.91,2.37C672.1,407.17,671.65,406.19,671.22,405.21Z" transform="translate(-590.12 -219.5)"/><path class="cls-5" d="M673.65,410.3l4.84-2.52c0.46,0.88.94,1.77,1.44,2.64l-4.73,2.71C674.67,412.2,674.15,411.25,673.65,410.3Z" transform="translate(-590.12 -219.5)"/><path class="cls-5" d="M676.44,415.21l4.65-2.86c0.52,0.85,1.07,1.7,1.62,2.53l-4.53,3C677.59,417,677,416.13,676.44,415.21Z" transform="translate(-590.12 -219.5)"/><path class="cls-5" d="M679.56,419.92l4.43-3.18c0.59,0.82,1.2,1.63,1.8,2.41l-4.3,3.36C680.85,421.67,680.2,420.8,679.56,419.92Z" transform="translate(-590.12 -219.5)"/><path class="cls-5" d="M683,424.38l4.2-3.48c0.63,0.76,1.29,1.52,2,2.27l-4.05,3.65C684.39,426,683.68,425.19,683,424.38Z" transform="translate(-590.12 -219.5)"/><path class="cls-5" d="M686.76,428.58l3.94-3.77c0.69,0.72,1.4,1.44,2.12,2.12L689,430.86C688.26,430.12,687.5,429.36,686.76,428.58Z" transform="translate(-590.12 -219.5)"/><path class="cls-5" d="M690.79,432.51l3.67-4c0.72,0.66,1.49,1.32,2.26,2l-3.5,4.19C692.39,433.93,691.58,433.22,690.79,432.51Z" transform="translate(-590.12 -219.5)"/><path class="cls-5" d="M695.1,436.15l3.37-4.29c0.79,0.62,1.59,1.23,2.4,1.81l-3.2,4.42C696.81,437.47,695.95,436.81,695.1,436.15Z" transform="translate(-590.12 -219.5)"/><path class="cls-5" d="M699.66,439.48l3.06-4.51c0.83,0.56,1.68,1.11,2.52,1.64l-2.88,4.63C701.45,440.67,700.54,440.08,699.66,439.48Z" transform="translate(-590.12 -219.5)"/><path class="cls-5" d="M704.43,442.48l2.74-4.72c0.87,0.5,1.75,1,2.63,1.46L707.25,444C706.32,443.55,705.37,443,704.43,442.48Z" transform="translate(-590.12 -219.5)"/><path class="cls-5" d="M675.85,332.3c0.55-.92,1.12-1.84,1.7-2.74l4.57,3c-0.54.83-1.08,1.69-1.59,2.55Z" transform="translate(-590.12 -219.5)"/><path class="cls-5" d="M678.91,327.55c0.61-.87,1.24-1.75,1.89-2.61l4.35,3.29c-0.6.8-1.2,1.62-1.76,2.43Z" transform="translate(-590.12 -219.5)"/><path class="cls-5" d="M682.28,323c0.67-.84,1.37-1.67,2.07-2.47l4.11,3.59c-0.65.74-1.3,1.52-1.93,2.3Z" transform="translate(-590.12 -219.5)"/><path class="cls-5" d="M686,318.77c0.72-.78,1.47-1.56,2.23-2.32l3.85,3.86c-0.71.71-1.41,1.44-2.09,2.16Z" transform="translate(-590.12 -219.5)"/><path class="cls-5" d="M689.94,314.78c0.78-.73,1.59-1.46,2.39-2.15l3.56,4.13c-0.75.65-1.5,1.32-2.23,2Z" transform="translate(-590.12 -219.5)"/><path class="cls-5" d="M694.18,311.07c0.83-.68,1.69-1.34,2.55-2l3.26,4.37c-0.8.59-1.59,1.22-2.37,1.85Z" transform="translate(-590.12 -219.5)"/><path class="cls-5" d="M698.69,307.67c0.87-.61,1.78-1.22,2.68-1.8l2.95,4.59c-0.84.54-1.68,1.1-2.5,1.67Z" transform="translate(-590.12 -219.5)"/><path class="cls-5" d="M747.73,453.26l-0.22-5.45c1,0,2-.1,3-0.18l0.44,5.44C749.9,453.15,748.82,453.21,747.73,453.26Z" transform="translate(-590.12 -219.5)"/><path class="cls-5" d="M703.43,304.6c0.92-.55,1.86-1.09,2.8-1.6l2.61,4.79c-0.88.48-1.76,1-2.61,1.49Z" transform="translate(-590.12 -219.5)"/><path class="cls-5" d="M753.36,452.83l-0.6-5.42c1-.11,2-0.24,3-0.39l0.82,5.39C755.51,452.57,754.43,452.71,753.36,452.83Z" transform="translate(-590.12 -219.5)"/><path class="cls-5" d="M708.37,301.87c0.95-.48,1.93-1,2.91-1.4l2.27,5c-0.91.42-1.82,0.86-2.71,1.3Z" transform="translate(-590.12 -219.5)"/><path class="cls-5" d="M758.95,452l-1-5.37c1-.18,2-0.38,2.94-0.6l1.2,5.32C761.06,451.6,760,451.82,758.95,452Z" transform="translate(-590.12 -219.5)"/><path class="cls-5" d="M764.46,450.8l-1.36-5.28c1-.25,1.94-0.52,2.9-0.81l0.41-.12,1.59,5.22-0.44.13C766.54,450.24,765.5,450.54,764.46,450.8Z" transform="translate(-590.12 -219.5)"/><path class="cls-5" d="M768.56,443.9c0.95-.32,1.9-0.66,2.83-1l2,5.09c-1,.38-2,0.75-3,1.09Z" transform="translate(-590.12 -219.5)"/><path class="cls-5" d="M773.48,442c0.92-.38,1.84-0.79,2.75-1.22l2.3,4.94c-1,.45-2,0.89-3,1.3Z" transform="translate(-590.12 -219.5)"/><path class="cls-5" d="M778.26,439.84c0.89-.45,1.78-0.92,2.66-1.4l2.65,4.77c-0.94.52-1.9,1-2.85,1.51Z" transform="translate(-590.12 -219.5)"/><path class="cls-5" d="M782.87,437.31c0.86-.51,1.72-1,2.55-1.59l3,4.57c-0.89.58-1.82,1.16-2.74,1.71Z" transform="translate(-590.12 -219.5)"/><path class="cls-5" d="M787.29,434.46c0.82-.57,1.63-1.16,2.43-1.77L793,437c-0.85.65-1.73,1.29-2.61,1.9Z" transform="translate(-590.12 -219.5)"/><path class="cls-5" d="M791.49,431.3c0.77-.62,1.54-1.27,2.29-1.93l3.6,4.1c-0.81.71-1.63,1.4-2.46,2.07Z" transform="translate(-590.12 -219.5)"/><path class="cls-5" d="M798.14,321.28l3.91-3.8c0.75,0.77,1.49,1.56,2.2,2.35l-4.06,3.64C799.53,322.73,798.84,322,798.14,321.28Z" transform="translate(-590.12 -219.5)"/><path class="cls-5" d="M801.66,325.16l4.17-3.52c0.69,0.81,1.37,1.66,2,2.5l-4.31,3.35C802.94,326.71,802.3,325.92,801.66,325.16Z" transform="translate(-590.12 -219.5)"/><path class="cls-5" d="M804.9,329.29l4.41-3.21c0.64,0.87,1.26,1.76,1.85,2.65l-4.54,3C806.08,330.93,805.5,330.11,804.9,329.29Z" transform="translate(-590.12 -219.5)"/><path class="cls-5" d="M807.85,333.65l4.62-2.89c0.57,0.9,1.12,1.84,1.66,2.77l-4.74,2.7C808.9,335.36,808.38,334.49,807.85,333.65Z" transform="translate(-590.12 -219.5)"/><path class="cls-5" d="M819.21,371.35c0-1-.07-2-0.14-3l5.44-.36c0.07,1.07.12,2.15,0.15,3.22Z" transform="translate(-590.12 -219.5)"/><path class="cls-5" d="M810.48,338.21l4.82-2.56c0.5,0.94,1,1.91,1.45,2.88l-4.92,2.36C811.4,340,810.95,339.09,810.48,338.21Z" transform="translate(-590.12 -219.5)"/><path class="cls-5" d="M818.88,366.1c-0.1-1-.22-2-0.35-3l5.4-.75c0.15,1.06.27,2.14,0.38,3.2Z" transform="translate(-590.12 -219.5)"/><path class="cls-5" d="M812.78,342.94l5-2.21c0.43,1,.85,2,1.25,3l-5.07,2C813.57,344.78,813.18,343.84,812.78,342.94Z" transform="translate(-590.12 -219.5)"/><path class="cls-5" d="M818.19,360.89c-0.17-1-.35-2-0.56-3l5.34-1.13c0.22,1.05.42,2.12,0.6,3.17Z" transform="translate(-590.12 -219.5)"/><path class="cls-5" d="M814.74,347.82l5.13-1.86c0.36,1,.71,2,1,3.05l-5.2,1.65C815.41,349.72,815.08,348.76,814.74,347.82Z" transform="translate(-590.12 -219.5)"/><path class="cls-5" d="M817.12,355.73c-0.23-1-.49-1.95-0.77-2.91l5.25-1.49c0.29,1,.57,2.08.82,3.12Z" transform="translate(-590.12 -219.5)"/><path class="cls-5" d="M665,381.11c-0.11-1.06-.19-2.14-0.26-3.22l5.45-.32c0.06,1,.14,2,0.24,3Z" transform="translate(-590.12 -219.5)"/><path class="cls-5" d="M664.59,375.48c0-1.07,0-2.15,0-3.23l5.45,0.07c0,1,0,2,0,3Z" transform="translate(-590.12 -219.5)"/><path class="cls-5" d="M664.63,369.82c0-1.08.11-2.16,0.2-3.23l5.44,0.45c-0.08,1-.15,2-0.19,3Z" transform="translate(-590.12 -219.5)"/><path class="cls-5" d="M665.08,364.18c0.12-1.07.27-2.14,0.43-3.2l5.39,0.84c-0.15,1-.29,2-0.4,3Z" transform="translate(-590.12 -219.5)"/><path class="cls-5" d="M665.92,358.58c0.2-1.05.42-2.12,0.66-3.16l5.32,1.22c-0.22,1-.43,2-0.61,2.95Z" transform="translate(-590.12 -219.5)"/><path class="cls-5" d="M667.15,353.07c0.27-1,.57-2.08.88-3.11l5.22,1.59c-0.29,1-.57,1.93-0.82,2.9Z" transform="translate(-590.12 -219.5)"/><path class="cls-5" d="M668.78,347.65c0.34-1,.71-2,1.1-3l5.09,2c-0.36.93-.7,1.89-1,2.83Z" transform="translate(-590.12 -219.5)"/><path class="cls-5" d="M670.77,342.37c0.41-1,.85-2,1.3-2.95l4.94,2.31c-0.42.91-.83,1.84-1.22,2.75Z" transform="translate(-590.12 -219.5)"/><path class="cls-5" d="M673.14,337.24c0.48-.95,1-1.91,1.51-2.85l4.77,2.65c-0.49.88-1,1.77-1.41,2.66Z" transform="translate(-590.12 -219.5)"/><path class="cls-5" d="M756.89,299.66l0.9-5.38c1.06,0.18,2.13.38,3.18,0.6l-1.12,5.34C758.87,300,757.87,299.83,756.89,299.66Z" transform="translate(-590.12 -219.5)"/><path class="cls-5" d="M795.45,427.86c0.73-.68,1.45-1.38,2.15-2.09l3.88,3.84c-0.75.76-1.53,1.52-2.31,2.24Z" transform="translate(-590.12 -219.5)"/><path class="cls-5" d="M762,300.72l1.28-5.3c1,0.25,2.09.53,3.12,0.82L765,301.48C764,301.21,763,301,762,300.72Z" transform="translate(-590.12 -219.5)"/><path class="cls-5" d="M799.16,424.15c0.68-.73,1.35-1.48,2-2.24l4.14,3.56c-0.7.81-1.42,1.62-2.15,2.4Z" transform="translate(-590.12 -219.5)"/><path class="cls-5" d="M767.12,302.13l1.65-5.2c1,0.32,2,.67,3.06,1L770,303.1C769,302.76,768.07,302.43,767.12,302.13Z" transform="translate(-590.12 -219.5)"/><path class="cls-5" d="M802.61,420.18c0.63-.78,1.25-1.58,1.84-2.37l4.38,3.25c-0.64.86-1.3,1.71-2,2.55Z" transform="translate(-590.12 -219.5)"/><path class="cls-5" d="M772.08,303.9l2-5.07c1,0.39,2,.81,3,1.25l-2.21,5C773.94,304.66,773,304.27,772.08,303.9Z" transform="translate(-590.12 -219.5)"/><path class="cls-5" d="M805.76,416c0.57-.82,1.14-1.66,1.67-2.5l4.6,2.94c-0.57.9-1.18,1.8-1.79,2.68Z" transform="translate(-590.12 -219.5)"/><path class="cls-5" d="M776.9,306l2.36-4.92c1,0.46,1.93,1,2.88,1.45l-2.56,4.82C778.7,306.9,777.8,306.44,776.9,306Z" transform="translate(-590.12 -219.5)"/><path class="cls-5" d="M808.62,411.56c0.51-.86,1-1.74,1.49-2.61l4.79,2.61c-0.51.94-1,1.88-1.6,2.8Z" transform="translate(-590.12 -219.5)"/><path class="cls-5" d="M781.56,308.46l2.7-4.74c0.93,0.53,1.86,1.09,2.77,1.65L784.14,310C783.3,309.47,782.43,309,781.56,308.46Z" transform="translate(-590.12 -219.5)"/><path class="cls-5" d="M811.16,407c0.45-.88.89-1.79,1.3-2.71l5,2.27c-0.45,1-.92,2-1.4,2.91Z" transform="translate(-590.12 -219.5)"/><path class="cls-5" d="M786,311.22l3-4.54c0.9,0.6,1.79,1.22,2.65,1.84l-3.21,4.41C787.7,312.35,786.87,311.78,786,311.22Z" transform="translate(-590.12 -219.5)"/><path class="cls-5" d="M813.37,402.18c0.39-.92.76-1.86,1.11-2.8l5.11,1.92c-0.38,1-.78,2-1.19,3Z" transform="translate(-590.12 -219.5)"/><path class="cls-5" d="M790.31,314.29l3.34-4.32c0.85,0.66,1.69,1.34,2.51,2l-3.51,4.18C791.88,315.53,791.1,314.9,790.31,314.29Z" transform="translate(-590.12 -219.5)"/><path class="cls-5" d="M794.35,317.65l3.63-4.07c0.8,0.71,1.59,1.45,2.36,2.19l-3.79,3.92C795.83,319,795.09,318.31,794.35,317.65Z" transform="translate(-590.12 -219.5)"/></g></svg>