<svg preserveAspectRatio="none" id="Layer_1" data-name="Layer 1" xmlns="http://www.w3.org/2000/svg" viewBox="0 0 69.18 69.83"><defs><style>.cls-1{fill:#0ff}</style></defs><circle class="cls-1" cx="10.36" cy="28.03" r="1.18"/><circle class="cls-1" cx="15.4" cy="18.03" r="1.18"/><circle class="cls-1" cx="24.27" cy="11.05" r="1.18"/><circle class="cls-1" cx="35.28" cy="8.69" r="1.18"/><circle class="cls-1" cx="46.16" cy="11.33" r="1.18"/><circle class="cls-1" cx="54.97" cy="18.28" r="1.18"/><path class="cls-1" d="M134.19 71.89l-.19-.72c-.06-.23-.11-.52-.21-.85l-.32-1.14a32.36 32.36 0 00-2.92-6.75c-.37-.67-.81-1.33-1.25-2s-1-1.37-1.51-2a33.41 33.41 0 00-3.75-4A32.73 32.73 0 00102.29 46a34.05 34.05 0 00-5.46.43l-1.27.23-1.22.28c-.4.09-.79.21-1.17.31s-.76.21-1.12.34a32.64 32.64 0 00-6.7 3c-.39.22-.71.45-1 .63s-.54.34-.73.48l-.6.42-.8-1.12.62-.44c.2-.15.46-.31.76-.5s.65-.42 1-.66a34 34 0 017-3.16c.38-.13.77-.24 1.17-.35s.8-.23 1.22-.33l1.27-.29 1.36-.27a35.51 35.51 0 015.68-.45 34.1 34.1 0 0122.7 8.8 34.74 34.74 0 013.9 4.16c.57.71 1.08 1.43 1.57 2.13s.92 1.41 1.3 2.1a33.73 33.73 0 013 7l.37 1.26c.1.35.16.65.22.89l.17.74z" transform="translate(-67.16 -44.59)"/><path class="cls-1" d="M84.35 78.72v1.22a16.66 16.66 0 00.65 3.53l.16.53.2.58c.06.2.15.4.23.6s.15.42.26.62a16.83 16.83 0 001.42 2.62 18 18 0 005 5.06 18.32 18.32 0 003.62 1.86 17.71 17.71 0 004.23 1c.19 0 .38 0 .56.05h2.9c.39 0 .78-.08 1.17-.13a17.52 17.52 0 002.33-.51c.39-.1.76-.25 1.15-.37l.57-.22.28-.11.28-.13a17.79 17.79 0 004.22-2.63 17.86 17.86 0 004.67-6.05 18.37 18.37 0 00.93-2.42 18.75 18.75 0 00.57-2.54 17.79 17.79 0 000-5.24 18.71 18.71 0 00-.57-2.54 18.35 18.35 0 00-.93-2.42 18.56 18.56 0 00-1.25-2.19 17.92 17.92 0 00-3.4-3.8 17.79 17.79 0 00-4.22-2.63l-.28-.13-.28-.11-.6-.22c-.39-.12-.76-.27-1.15-.37a17.47 17.47 0 00-2.33-.51c-.39 0-.78-.11-1.17-.13H100.68c-.19 0-.38 0-.56.05a17.73 17.73 0 00-4.23 1 18.29 18.29 0 00-3.62 1.86 18 18 0 00-5 5.06 16.83 16.83 0 00-1.42 2.62c-.1.21-.17.42-.26.62s-.17.4-.23.61l-.2.58L85 74a16.66 16.66 0 00-.59 3.49v1.26h-1v-.37-1a17.63 17.63 0 01.63-3.68l.17-.6.21-.62c.06-.21.15-.42.24-.64s.16-.44.27-.66a17.81 17.81 0 011.5-2.76 19 19 0 015.28-5.33 19.28 19.28 0 013.82-2 18.69 18.69 0 014.47-1.02c.2 0 .39 0 .59-.05h3.02c.41 0 .82.09 1.23.13a18.48 18.48 0 012.46.53c.41.1.81.26 1.21.39l.6.23.3.12.29.13a18.77 18.77 0 014.45 2.78 18.84 18.84 0 014.93 6.39 19.4 19.4 0 011 2.55 19.74 19.74 0 01.6 2.68 18.81 18.81 0 010 5.52 19.75 19.75 0 01-.6 2.68 18.64 18.64 0 01-2.32 4.93 18.85 18.85 0 01-3.59 4 18.78 18.78 0 01-4.45 2.78l-.29.14-.3.12-.6.23c-.41.13-.8.28-1.21.39a18.45 18.45 0 01-2.46.53c-.41 0-.82.12-1.23.13H100.6c-.2 0-.4 0-.59-.06a18.69 18.69 0 01-4.47-1.07 19.3 19.3 0 01-3.82-2A19 19 0 0186.44 89a17.82 17.82 0 01-1.5-2.76c-.11-.22-.18-.44-.27-.66s-.17-.43-.24-.64l-.21-.62-.17-.6a17.63 17.63 0 01-.62-3.72v-1.28h1z" transform="translate(-67.16 -44.59)"/><path class="cls-1" d="M106.35 64.46l-.3-.09c-.19-.07-.47-.11-.8-.19a16.07 16.07 0 00-2.48-.31h-1.35c-.43 0-.83.05-1.16.11l-.46.02-.35.06-.31.05-.37-1.82.35-.06.4-.07.52-.07c.38-.06.83-.08 1.31-.12h1.52a17.86 17.86 0 012.79.35c.37.09.69.15.9.22l.34.1zM112.9 68.47l-.22-.23-.6-.57a15.26 15.26 0 00-2-1.51 15.77 15.77 0 00-2.2-1.16l-.43-.17-.33-.12-.29-.1.58-1.76.33.15.38.14.49.19a17.69 17.69 0 012.48 1.3 17.27 17.27 0 012.24 1.7l.67.61.24.26zM116.58 75.21v-.08a2.18 2.18 0 00-.06-.22l-.1-.34a4.51 4.51 0 00-.13-.44 13.91 13.91 0 00-1-2.29 15.52 15.52 0 00-1.29-2.12c-.21-.27-.38-.5-.52-.64l-.2-.24 1.38-1.23.23.27c.15.16.35.42.59.72A17.38 17.38 0 01117 71a15.82 15.82 0 011 2.54c.07.18.11.35.15.5l.11.39a2.58 2.58 0 01.06.25v.09zM116.4 82.9l.09-.3v-.35l.11-.45a16.18 16.18 0 00.3-2.48v-.69-.66c0-.43-.05-.83-.11-1.17s-.09-.62-.13-.81v-.23a.61.61 0 000-.08l1.82-.38a.78.78 0 010 .09v.26c0 .22.1.53.14.92s.08.83.12 1.31v1.52a18 18 0 01-.34 2.79l-.12.51v.21l-.05.18-.1.34zM112.38 89.48l.23-.22.57-.6a15.43 15.43 0 001.51-2 15.87 15.87 0 001.16-2.21c.11-.32.24-.58.29-.77l.1-.29L118 84l-.11.33c-.06.21-.2.5-.33.86a17.71 17.71 0 01-1.31 2.48 17.35 17.35 0 01-1.7 2.24l-.64.67-.26.24zM105.65 93.16h.08l.22-.05.34-.1c.13 0 .28-.07.44-.13a14 14 0 002.29-1 15.56 15.56 0 002.11-1.34c.27-.21.5-.38.64-.52l.24-.21 1.23 1.39-.27.23c-.16.15-.42.35-.72.58a17.32 17.32 0 01-2.37 1.51 15.71 15.71 0 01-2.58 1.09c-.18.07-.35.11-.5.15l-.39.11-.25.06h-.09zM98 93l.3.09c.19.07.47.11.8.19a16.08 16.08 0 002.48.31h1.35c.43 0 .83-.05 1.16-.11.17 0 .33 0 .46-.06l.35-.06h.31l.37 1.82h-.35l-.4.07c-.15 0-.33 0-.52.07-.38.06-.83.08-1.31.12h-1.52a18 18 0 01-2.79-.34c-.39-.1-.69-.17-.92-.24l-.34-.1zM91.4 89l.21.23.6.57a15.07 15.07 0 002 1.51 15.75 15.75 0 002.21 1.16l.43.17.15.04.16.05.29.1-.55 1.77-.33-.11-.18-.06-.2-.08-.49-.19a17.62 17.62 0 01-2.49-1.3 17 17 0 01-2.21-1.7l-.68-.64-.24-.26z" transform="translate(-67.16 -44.59)"/><path class="cls-1" d="M94.28 110l.35-1.39.43.1.52.12.34.08.38.09.92.16c.34.06.71.1 1.11.15l.67.06.67.05c.46 0 1 .08 1.48.08a31.14 31.14 0 007.48-.66 30.63 30.63 0 009.08-3.52 30.79 30.79 0 0012.47-39.46c-.24-.55-.52-1.07-.79-1.6-.13-.27-.29-.52-.43-.78l-.45-.77a32 32 0 00-2-2.94 30.8 30.8 0 00-46.31-2.61c-.31.32-.62.64-.91 1l-.85 1-.78 1c-.26.33-.49.67-.73 1A30.64 30.64 0 0072 72.21a32.14 32.14 0 00-.65 4.8v1.71h-4.19v-1.34c0-.43 0-.95.09-1.54s.12-1.27.22-2c0-.37.11-.74.18-1.14s.14-.8.23-1.21l.29-1.27c.1-.43.24-.87.36-1.31a34.68 34.68 0 018.18-14.24c.25-.27.5-.52.73-.76l.69-.66c.43-.42.83-.75 1.15-1s.58-.5.76-.64l.28-.22 1.7 2.14.63-.53c.19-.15.44-.33.73-.53l.47-.33.26-.14.28-.18a32.58 32.58 0 016.78-3.41 33 33 0 014.9-1.41c.44-.08.89-.17 1.35-.23l1.39-.18 1.43-.11h1.46a32.6 32.6 0 016 .48 32.06 32.06 0 0111.62 4.48 32.45 32.45 0 018.58 7.89 33.46 33.46 0 012.72 4.28l.53 1c.16.34.31.68.46 1l.22.48.17.52.36.92c.22.6.41 1.17.57 1.7s.29 1 .41 1.46c.21.89.38 1.6.45 2.08l.21.75 1.93-.31.07.34.13 1 .08.69.02.76.07.93v3.31c0 .41-.06.83-.09 1.26l-.05.65-.08.66-.09.68c0 .23-.06.45-.1.68l-.25 1.38-.32 1.45c-.11.47-.25.93-.38 1.39a35 35 0 01-2 5.27 36.07 36.07 0 01-2.46 4.26c-.82 1.19-1.56 2.13-2.1 2.77l-.86 1 1.11 1-.95 1c-.61.63-1.51 1.49-2.66 2.46a37.18 37.18 0 01-4.17 3 36.53 36.53 0 01-5.26 2.65c-.47.18-.93.38-1.41.54l-1.42.48-1.41.4c-.47.13-.94.23-1.39.34a34.68 34.68 0 01-5.08.75c-.37 0-.73.06-1.07.07h-3.93l.22-3.44-.91-.07c-.27 0-.59-.06-.93-.1l-1.07-.14-1.06-.19-.49-.09-.43-.1zm30.16-5.22l.58-.5.39-.36.17-.17-1.34-1.43-.16.16-.37.34-.55.48zm-2.35 1.84l.62-.45.61-.47-1.21-1.54-.57.45-.54.39zm-2.5 1.63s.34-.19.66-.4l.65-.42-1.07-1.64-.61.39c-.3.2-.62.38-.62.38zm-2.59 1.41l.22-.11.47-.24.69-.35-.92-1.72-.65.33-.45.23-.2.1zm-2.75 1.17l.72-.28.49-.2.22-.09-.77-1.8-.21.09-.47.18-.68.27zm-2.85.93l.74-.21.51-.16.23-.08-.61-1.86-.22.07-.48.15-.7.2zm-2.92.68h.24l.52-.1.75-.17-.44-1.9-.71.16-.49.1h-.22zm-3 .42h.24l.53-.06.76-.1-.28-1.93-.72.09-.5.06h-.23zm-3 .16H104l-.11-2h-1.44z" transform="translate(-67.16 -44.59)"/><path class="cls-1" d="M75.32 78.73H79v1.34a24.75 24.75 0 00.45 3.43 23.09 23.09 0 004.4 9.45 22.35 22.35 0 004 4A23.07 23.07 0 0092 99.5a25 25 0 003.22 1.28l.93.27.33.09.38-1.5 1 .22 1.14.19c.44 0 .93.13 1.47.16a21.62 21.62 0 007.86-.82 21.31 21.31 0 003.92-1.6 21.87 21.87 0 005.08-3.72c.23-.22.39-.41.51-.53l.18-.19-1.18-1.09.11-.12.3-.34c.26-.29.61-.73 1-1.26a20.15 20.15 0 002.4-4.28l.25-.62c.08-.21.14-.42.21-.63.15-.41.25-.83.37-1.23.05-.2.09-.4.14-.6s.1-.39.13-.58l.1-.55v-.26-.25c0-.33.09-.64.11-.91l.05-.7v-.63l.26-.42c.16-.26.34-.6.54-1l.14-.27.13-.26.22-.48.16-.34.06-.13.02-.4-.06-.52c0-.2-.08-.43-.12-.69a21.45 21.45 0 00-1.21-4.18l-.15-.3-.13-.31-.3-.65c-.23-.43-.44-.89-.71-1.33s-.55-.89-.84-1.35-.63-.9-1-1.34a21.26 21.26 0 00-5.22-4.73 20.92 20.92 0 00-3.16-1.69 22.5 22.5 0 00-3.29-1.11 22 22 0 00-3.2-.54l-.76-.06h-3.44l-1.16.15-1 .18-.85.2c-.51.12-.9.25-1.18.32l-.41.14.45 1.36-.21.07c-.14 0-.34.11-.59.21a20.31 20.31 0 00-4.76 2.59 20.49 20.49 0 00-2.73 2.42 20.16 20.16 0 00-3.77 5.66l-.14.31-.12.3-.22.56c-.13.36-.23.67-.32.92l-.24.82-1.38-.37-.07.23-.14.73-.1.42-.08.47-.09.51c0 .17 0 .35-.07.53l-.07.53v.51c0 .33-.06.64-.06.91v.89h-8.21v-.47-1.23a31 31 0 01.62-4.63 29.52 29.52 0 014.66-10.69c.23-.32.45-.65.7-1l.76-1 .83-.88c.28-.32.58-.62.88-.93a29.68 29.68 0 0144.65 2.52 30.84 30.84 0 012 2.83l.47.71c.14.25.29.5.42.75.26.51.53 1 .76 1.54a29.68 29.68 0 012.12 6.5 30.16 30.16 0 01-.36 13.21 29.74 29.74 0 01-22.58 21.75 30 30 0 01-7.21.63c-.5 0-1 0-1.42-.08l-.65-.05-.6-.08c-.39-.05-.75-.09-1.07-.15l-.89-.16-.37-.07-.32-.07-.51-.12-.41-.1.43-1.7.66.2c.42.11 1 .22 1.83.36l1.32.17c.48.05 1 .08 1.56.13a29.27 29.27 0 003.76-.06 27.68 27.68 0 009.09-2.33 28 28 0 0016-20 28.92 28.92 0 00.53-4.42 28.24 28.24 0 00-.52-6.63c-.08-.4-.17-.74-.23-1l-.1-.42-.1-.35-.18-.64-2.22.66.15.53.11.33.09.39c.06.28.14.6.22 1a25.92 25.92 0 01.47 6.08 26.59 26.59 0 01-.48 4.05 26 26 0 01-1.3 4.36 25.72 25.72 0 01-13.38 14 25.34 25.34 0 01-8.34 2.13 27 27 0 01-3.45.06c-.51 0-1-.07-1.44-.12l-1.23-.28c-.73-.13-1.3-.23-1.68-.33l-.59-.14.4-1.59-.35-.09-.77-.22c-.28-.08-.56-.18-.77-.25l-.4-.07-.41 1.15h-.09l-.25-.08-.88-.38a25.69 25.69 0 01-11.5-8.35 27 27 0 01-1.71-2.45c-.25-.43-.5-.85-.73-1.28l-.33-.64c-.11-.21-.22-.43-.31-.64a26.58 26.58 0 01-1.73-4.9 27.81 27.81 0 01-.63-3.65zm1.13-11.79l-.18.4c-.06.13-.13.28-.2.46l-.24.6a28.82 28.82 0 00-1.08 3.31l-.21.92c0 .15-.07.3-.1.45l-.08.44-.15.84c0 .27-.07.52-.1.76l-.11.65V76.7l5.39.38v-.35-.4l.07-.52c0-.19 0-.4.08-.61l.12-.68.06-.36c0-.12.06-.24.08-.37L80 73a23.41 23.41 0 01.87-2.67l.13-.45c.06-.14.12-.27.16-.37l.15-.32zM84 57.06l-.33.28c-.21.18-.51.43-.85.77l-.55.53c-.2.19-.39.4-.59.61-.42.42-.82.91-1.24 1.39a28.56 28.56 0 00-2.05 2.81L78 64c-.1.16-.18.31-.25.43l-.22.38 4.7 2.66.18-.3c.06-.1.12-.22.2-.35l.28-.44a23.28 23.28 0 011.66-2.27c.34-.39.66-.78 1-1.12.17-.17.32-.35.48-.5l.46-.49c.27-.27.52-.47.69-.62l.27-.23zm11-5.71l-.42.12c-.27.08-.65.17-1.1.33l-.71.2c-.26.08-.53.19-.8.3l-.85.34-.86.39c-.29.13-.57.27-.85.41l-.81.42-.74.43-.34.2-.31.2c-.4.26-.74.47-1 .63l-.36.25L89 60l.29-.2c.18-.13.46-.29.78-.5l.25-.16.26-.14.6-.35.66-.34c.22-.12.45-.23.69-.33l.7-.32.69-.27c.22-.09.44-.17.65-.24l.59-.2c.36-.13.68-.2.89-.26l.34-.1zm12.41-.41l-.41-.07-.49-.09-.64-.09-.76-.1-.85-.07c-.59-.06-1.22-.06-1.86-.08h-1.85l-.85.06h-.76l-1.14.15-.43.08.91 5.33.35-.06h1.52l.69-.05h1.5c.51 0 1 0 1.5.07l.7-.02.62.08.52.07.4.07.35.06zm11.4 4.95l-.35-.25c-.23-.16-.55-.39-.95-.64l-.65-.41-.74-.43c-.51-.31-1.08-.58-1.64-.87a28.55 28.55 0 00-3.21-1.29c-.45-.15-.83-.28-1.09-.35l-.42-.12-1.45 5.21.34.1c.22.05.52.16.88.28a23.18 23.18 0 012.6 1.07c.45.24.92.46 1.33.71l.6.35.52.34c.33.2.59.39.77.52l.29.2zm8.19 9.35l-.22-.38c-.14-.24-.33-.59-.58-1l-.41-.65-.23-.35-.25-.36-.53-.74-.59-.76c-.19-.25-.4-.49-.6-.73s-.4-.47-.6-.69l-.59-.58-.27-.29-.27-.26c-.35-.33-.62-.61-.84-.78l-.33-.29-3.55 4.08.27.23c.17.14.4.37.68.64l.22.21.22.23.48.5c.16.18.32.37.49.56s.34.38.49.59l.47.6.43.6.21.29.18.28.34.52c.21.32.35.61.47.8l.18.31z" transform="translate(-67.16 -44.59)"/><path class="cls-1" d="M94.23 104h.15l.45.13.73.2 1 .23a26.27 26.27 0 006.29.58c.66 0 1.34-.07 2-.12l1.07-.14c.36 0 .73-.12 1.1-.18a26.55 26.55 0 0020.78-19.38 27.7 27.7 0 00.71-4.17 26.91 26.91 0 00-.17-6.32c-.05-.38-.12-.71-.17-1l-.07-.41c0-.12-.05-.23-.08-.33l-.14-.61.59.52s.06.21.13.63l.13.76c.06.3.09.64.14 1 0 .19.05.4.07.61l.06.72v3.23c0 .3 0 .61-.06.93s0 .64-.09 1a27 27 0 01-17.77 22.25 26 26 0 01-4.65 1.19 29 29 0 01-4.28.35 27.52 27.52 0 01-6.38-.76c-.38-.08-.71-.18-1-.26l-.74-.21-.61-.2zM78.62 94.55v.38c0 .23-.06.53-.09.84-.07.62-.1 1.25-.1 1.25s.62.15 1.23.27 1.23.2 1.23.2l.24.29.56.6c.21.22.4.44.57.59l.27.26 1.35-1.35-.26-.22c-.17-.14-.39-.35-.66-.61l-.44-.42-.52-.49-.49-.52-.51-.57a26.53 26.53 0 01-1.68-2.18c-.22-.3-.38-.58-.5-.76l-.19-.29-1.27.67.18.33c.11.19.25.46.41.71zM85.61 101.24s.12.59.26 1.19c.07.31.15.6.21.82l.11.37h.39c.23 0 .54-.07.85-.12.62-.11 1.21-.23 1.21-.23l.36.14.72.38c.26.14.53.27.73.36l.33.16.81-1.73-.31-.12c-.2-.08-.48-.19-.82-.34s-.73-.32-1.14-.53-.85-.43-1.27-.68l-.64-.37-.6-.38c-.39-.24-.74-.5-1-.71l-.41-.29-.4-.26-.27-.21-1 1.06.34.25.28.25.34.27.63.48.21.16zM74.2 85.86l-.2.34-.35.8c-.13.28-.27.57-.36.79l-.15.36s.54.36 1.08.68c.27.16.55.32.76.43l.34.19s.21.57.46 1.13c.12.28.24.56.34.76l.17.34 1.71-.84-.17-.3c-.11-.19-.25-.48-.42-.81-.08-.17-.18-.35-.27-.55l-.28-.62c-.2-.43-.39-.9-.57-1.38l-.14-.36-.15-.35-.23-.7c-.15-.45-.26-.89-.37-1.26s-.17-.68-.22-.9l-.08-.34-1.42.21.06.37c0 .22.08.53.15.82z" transform="translate(-67.16 -44.59)"/><path class="cls-1" d="M71.36 80.13v.42l.09 1.19c0 .26.06.54.1.85s.07.64.14 1l.2 1.12c.07.4.18.81.27 1.24a30.88 30.88 0 002 5.69 32 32 0 001.59 3c.31.49.62 1 .95 1.47l.51.72.26.36.27.35a30.78 30.78 0 009.78 8.32 32.36 32.36 0 003.88 1.76c.48.18.87.3 1.13.39l.4.13-.43 1.36-.42-.14c-.27-.09-.68-.22-1.18-.41a33.82 33.82 0 01-4.07-1.84 32.2 32.2 0 01-10.23-8.7l-.28-.41-.27-.37-.53-.75c-.35-.51-.67-1-1-1.54a33.22 33.22 0 01-1.66-3.14 32.28 32.28 0 01-2.07-6c-.1-.45-.21-.88-.29-1.3l-.2-1.1c-.06-.37-.1-.72-.14-1s-.08-.62-.1-.88L70 80.63v-.44z" transform="translate(-67.16 -44.59)"/><path class="cls-1" d="M72.29 88.86l.26.75.33.84.2.55.25.56a31.62 31.62 0 007.26 10.19c.31.3.61.56.87.78l.69.59.62.49-1.89 2.39-.68-.53-.75-.64c-.29-.25-.62-.53-1-.86a34.67 34.67 0 01-8-11.18l-.28-.62-.17-.58-.36-.93-.28-.82z" transform="translate(-67.16 -44.59)"/><path class="cls-1" d="M38.92 29.68l-.42-.42 5.11-5.11 1.17 1.17-3.35 1.85-2.51 2.51zM38.5 37.66l.42-.42 5.11 5.11-1.16 1.17-1.86-3.34-2.51-2.52zM30.52 37.24l.42.42-5.11 5.11-1.17-1.16 3.35-1.85 2.51-2.52zM30.94 29.26l-.42.42-5.11-5.11 1.16-1.16 1.86 3.34 2.51 2.51z"/><path class="cls-1" d="M114.58 77.89h-11.67A1 1 0 00102 77V66h-.33v11a1 1 0 00-.86.86H89.18v.33h11.67a1 1 0 00.86.86v11h.29v-11a1 1 0 00.86-.86h11.67v-.3z" transform="translate(-67.16 -44.59)"/></svg>