<svg preserveAspectRatio="none" id="Layer_1" data-name="Layer 1" xmlns="http://www.w3.org/2000/svg" viewBox="0 0 418.88 436.21"><defs><style>.cls-1{fill:#065876}.cls-2{fill:#76e5ff}.cls-3{fill:#08b3ea}.cls-4{fill:#251d4f}.cls-5{fill:#ff6d00}</style></defs><path class="cls-1" d="M708.66 431.34a135.58 135.58 0 10135.59 135.59 135.58 135.58 0 00-135.59-135.59zm0 264.9A129.32 129.32 0 11838 566.93a129.32 129.32 0 01-129.34 129.32z" transform="translate(-497.44 -355.09)"/><path class="cls-2" d="M223.02 146.77l-1.32-.14.58-8.65 1.97.21-1.23 8.58zM229.76 148.3l-1.3-.28 1.48-8.54 1.94.41-2.12 8.41zM236.3 150.52l-1.26-.41 2.37-8.34 1.88.61-2.99 8.14zM242.58 153.42l-1.21-.54 3.22-8.05 1.81.81-3.82 7.78zM248.52 156.95l-1.15-.66 4.04-7.66 1.72.99-4.61 7.33zM148.27 193.89l-.28 1.3-8.54-1.48.41-1.93 8.41 2.11zM150.49 187.35l-.41 1.26-8.34-2.36.61-1.88 8.14 2.98zM153.39 181.07l-.54 1.22-8.05-3.23.81-1.81 7.78 3.82zM156.92 175.13l-.66 1.16-7.67-4.05.99-1.72 7.34 4.61zM161.06 169.6l-.78 1.07-7.2-4.82 1.16-1.6 6.82 5.35zM165.75 164.53l-.88.98-6.66-5.55 1.32-1.47 6.22 6.04zM170.95 159.97l-.99.89-6.03-6.22 1.47-1.32 5.55 6.65zM176.6 155.98l-1.08.78-5.35-6.81 1.6-1.16 4.83 7.19zM182.63 152.61l-1.15.66-4.61-7.33 1.71-.99 4.05 7.66zM188.98 149.88l-1.21.54-3.82-7.78 1.8-.8 3.23 8.04zM195.58 147.84l-1.26.41-2.99-8.14 1.89-.61 2.36 8.34zM202.36 146.49l-1.3.28-2.12-8.41 1.94-.41 1.48 8.54zM208.66 137.21l-1.97.21 1.23 8.58 1.32-.14-.58-8.65zM214.5 137.29l.33 8.66h1.33l.32-8.66h-1.98z"/><path class="cls-3" d="M214.68 190.71l-.42-.05.19-2.69.61.06-.38 2.68zM216.78 191.19l-.4-.09.46-2.67.6.13-.66 2.63zM218.82 191.88l-.39-.13.74-2.6.58.19-.93 2.54zM220.78 192.78l-.38-.16 1.01-2.52.56.25-1.19 2.43zM222.64 193.89l-.36-.21 1.26-2.39.53.31-1.43 2.29zM224.37 195.18l-.34-.24 1.5-2.25.5.36-1.66 2.13zM225.95 196.64l-.31-.27 1.73-2.08.46.41-1.88 1.94zM227.37 198.27l-.28-.31 1.94-1.89.42.46-2.08 1.74zM228.62 200.03l-.25-.34 2.13-1.67.36.5-2.24 1.51zM229.67 201.91l-.21-.36 2.29-1.44.31.54-2.39 1.26zM230.52 203.89l-.17-.38 2.43-1.19.25.57-2.51 1zM231.16 205.95l-.13-.39 2.54-.93.19.59-2.6.73zM231.58 208.07l-.09-.41 2.62-.66.13.61-2.66.46zM231.73 209.81l.04.41 2.7-.18-.06-.62-2.68.39zM231.74 211.96v.42l2.71.1v-.62l-2.71.1zM231.49 214.52l.04-.42 2.7.19-.06.61-2.68-.38zM231.01 216.62l.09-.4 2.66.46-.12.6-2.63-.66zM230.32 218.66l.13-.39 2.6.74-.19.59-2.54-.94zM229.41 220.62l.17-.37 2.51 1-.25.57-2.43-1.2zM228.31 222.48l.21-.36 2.39 1.26-.31.54-2.29-1.44zM227.02 224.21l.24-.34 2.25 1.51-.36.5-2.13-1.67zM225.56 225.79l.27-.31 2.08 1.73-.41.46-1.94-1.88zM223.93 227.21l.31-.28 1.88 1.94-.45.42-1.74-2.08zM222.17 228.46l.34-.25 1.67 2.13-.5.36-1.51-2.24zM220.29 229.51l.36-.21 1.44 2.29-.54.31-1.26-2.39zM218.31 230.36l.37-.17 1.2 2.43-.57.25-1-2.51zM216.24 231l.4-.13.93 2.54-.59.19-.74-2.6zM214.13 231.42l.4-.09.67 2.63-.61.12-.46-2.66zM211.98 231.62l.18 2.69.62-.06-.39-2.68-.41.05zM209.82 231.59l-.1 2.7h.62l-.1-2.7h-.42zM207.68 231.33l.41.04-.18 2.7-.61-.06.38-2.68zM205.58 230.85l.4.09-.46 2.66-.61-.12.67-2.63zM203.53 230.16l.4.13-.74 2.6-.59-.19.93-2.54zM201.57 229.25l.38.18-1 2.51-.57-.25 1.19-2.44zM199.72 228.15l.36.21-1.26 2.39-.54-.31 1.44-2.29zM197.99 226.86l.34.24-1.51 2.25-.5-.36 1.67-2.13zM196.41 225.4l.31.27-1.73 2.08-.46-.41 1.88-1.94zM194.99 223.77l.28.31-1.95 1.89-.41-.46 2.08-1.74zM193.74 222.01l.25.34-2.13 1.67-.36-.5 2.24-1.51zM192.69 220.13l.21.36-2.29 1.44-.31-.54 2.39-1.26zM191.84 218.15l.17.38-2.43 1.19-.25-.57 2.51-1zM191.2 216.09l.13.39-2.54.93-.19-.59 2.6-.73zM190.78 213.97l.09.4-2.63.67-.12-.61 2.66-.46zM187.88 212l.07.62 2.68-.39-.05-.41-2.7.18zM187.91 210.18l2.7-.1v-.42l-2.7-.1v.62zM190.87 207.52l-.05.41-2.69-.18.06-.61 2.68.38zM191.34 205.42l-.08.4-2.67-.46.13-.6 2.62.66zM192.04 203.37l-.13.4-2.6-.74.19-.59 2.54.93zM192.94 201.41l-.17.38-2.51-1 .25-.57 2.43 1.19zM194.05 199.56l-.21.36-2.39-1.26.31-.54 2.29 1.44zM195.34 197.83l-.25.34-2.24-1.51.36-.5 2.13 1.67zM196.8 196.25l-.27.31-2.08-1.73.41-.46 1.94 1.88zM198.43 194.83l-.31.28-1.89-1.95.46-.41 1.74 2.08zM200.19 193.58l-.34.25-1.67-2.13.5-.36 1.51 2.24zM202.07 192.53l-.36.21-1.44-2.29.54-.31 1.26 2.39zM204.05 191.68l-.38.17-1.19-2.43.57-.25 1 2.51zM206.11 191.04l-.39.13-.93-2.54.58-.19.74 2.6zM208.23 190.62l-.41.09-.66-2.63.61-.12.46 2.66zM210.2 187.73l-.62.06.39 2.68.41-.05-.18-2.69zM212.02 187.75l.1 2.7h.41l.11-2.7h-.62z"/><path class="cls-2" d="M773.83 497.47a14.94 14.94 0 1014.94 14.94 14.94 14.94 0 00-14.94-14.94zm0 27.59a12.65 12.65 0 1112.65-12.65 12.65 12.65 0 01-12.65 12.65z" transform="translate(-497.44 -355.09)"/><path class="cls-2" d="M773.83 503.7a8.7 8.7 0 108.7 8.7 8.7 8.7 0 00-8.7-8.7zm0 16.07a7.37 7.37 0 117.37-7.37 7.37 7.37 0 01-7.37 7.37zM707.81 552a14.13 14.13 0 1014.13 14.13A14.13 14.13 0 00707.81 552zm0 26.1a12 12 0 1112-12 12 12 0 01-12 11.97z" transform="translate(-497.44 -355.09)"/><path class="cls-2" d="M707.81 557.87a8.23 8.23 0 108.23 8.23 8.23 8.23 0 00-8.23-8.23zm0 15.21a7 7 0 117-7 7 7 0 01-7 7z" transform="translate(-497.44 -355.09)"/><path class="cls-3" d="M237.99 56.44l-3.16-.33 1.39-20.65 4.7.5-2.93 20.48zM254.09 60.09l-3.11-.66 3.55-20.39 4.61.98-5.05 20.07zM269.71 65.4l-3.01-.98 5.65-19.91 4.49 1.46-7.13 19.43zM284.7 72.32l-2.9-1.29 7.71-19.21 4.31 1.92-9.12 18.58zM298.88 80.76l-2.75-1.58 9.67-18.3 4.09 2.36-11.01 17.52zM312.1 90.64l-2.56-1.86 11.53-17.19 3.82 2.78-12.79 16.27zM324.22 101.85l-2.36-2.12 13.26-15.89 3.51 3.16-14.41 14.85zM335.1 114.27l-2.12-2.36 14.84-14.41 3.17 3.5-15.89 13.27zM344.62 127.75l-1.87-2.57 16.28-12.78 2.78 3.82-17.19 11.53zM352.68 142.15l-1.59-2.74 17.52-11.01 2.37 4.09-18.3 9.66zM359.19 157.32l-1.29-2.9 18.58-9.12 1.92 4.32-19.21 7.7zM364.08 173.09l-.98-3.02 19.42-7.13 1.46 4.49-19.9 5.66zM367.29 189.27l-.66-3.1 20.07-5.06.98 4.62-20.39 3.54zM368.46 202.56l.33 3.15 20.65-1.39-.49-4.7-20.49 2.94zM368.57 219.04v3.18l20.68.77v-4.72l-20.68.77zM366.63 238.6l.33-3.15 20.65 1.39-.5 4.7-20.48-2.94zM362.98 254.71l.66-3.11 20.39 3.54-.99 4.62-20.06-5.05zM357.66 270.33l.99-3.02 19.9 5.66-1.46 4.49-19.43-7.13zM350.75 285.32l1.29-2.9 19.21 7.7-1.92 4.32-18.58-9.12zM342.3 299.5l1.59-2.75 18.3 9.67-2.37 4.09-17.52-11.01zM332.42 312.72l1.87-2.57 17.19 11.53-2.78 3.82-16.28-12.78zM321.21 324.84l2.13-2.36 15.89 13.26-3.17 3.51-14.85-14.41zM308.8 335.72l2.36-2.13 14.41 14.85-3.51 3.16-13.26-15.88zM295.32 345.24l2.56-1.87 12.79 16.28-3.82 2.77-11.53-17.18zM280.91 353.29l2.75-1.58 11.01 17.52-4.09 2.36-9.67-18.3zM265.75 359.8l2.89-1.29 9.12 18.58-4.31 1.92-7.7-19.21zM249.98 364.69l3.02-.98 7.13 19.43-4.5 1.46-5.65-19.91zM233.79 367.91l3.1-.66 5.06 20.07-4.62.98-3.54-20.39zM217.35 369.41l1.4 20.65 4.69-.49-2.93-20.49-3.16.33zM200.85 369.19l-.78 20.68h4.73l-.78-20.68h-3.17zM184.46 367.24l3.16.33-1.4 20.65-4.69-.49 2.93-20.49zM168.36 363.59l3.11.66-3.55 20.39-4.61-.98 5.05-20.07zM152.74 358.28l3.01.98-5.65 19.91-4.49-1.46 7.13-19.43zM137.75 351.37l2.9 1.29-7.71 19.2-4.31-1.92 9.12-18.57zM123.57 342.92l2.74 1.59-9.66 18.29-4.09-2.36 11.01-17.52zM110.35 333.04l2.56 1.87-11.53 17.18-3.82-2.77 12.79-16.28zM98.23 321.83l2.36 2.12-13.26 15.89-3.51-3.16 14.41-14.85zM87.35 309.42l2.12 2.35-14.85 14.42-3.16-3.51 15.89-13.26zM77.83 295.94l1.87 2.56-16.28 12.79-2.77-3.83 17.18-11.52zM69.77 281.53l1.59 2.75-17.52 11.01-2.37-4.09 18.3-9.67zM63.26 266.37l1.29 2.89-18.57 9.12-1.93-4.31 19.21-7.7zM58.37 250.6l.98 3.02-19.43 7.12-1.45-4.49 19.9-5.65zM55.16 234.41l.66 3.1-20.07 5.06-.98-4.62 20.39-3.54zM33.01 219.36l.49 4.7 20.49-2.93-.33-3.16-20.65 1.39zM33.2 205.41l20.68-.77v-3.17l-20.68-.78v4.72zM55.82 185.08l-.33 3.15-20.65-1.39.5-4.7 20.48 2.94zM59.47 168.98l-.66 3.1-20.39-3.54.99-4.62 20.06 5.06zM64.78 153.35l-.98 3.02-19.9-5.65 1.46-4.5 19.42 7.13zM71.7 138.37l-1.29 2.89-19.21-7.7 1.92-4.31 18.58 9.12zM80.15 124.19l-1.59 2.74-18.3-9.67 2.36-4.09 17.53 11.02zM90.03 110.96l-1.87 2.57L70.97 102l2.78-3.82 16.28 12.78zM101.24 98.85l-2.13 2.35-15.89-13.26 3.17-3.51 14.85 14.42zM113.65 87.97l-2.36 2.12-14.41-14.85 3.51-3.16 13.26 15.89zM127.13 78.45l-2.57 1.86-12.78-16.27 3.82-2.78 11.53 17.19zM141.53 70.39l-2.74 1.58-11.01-17.52 4.09-2.36 9.66 18.3zM156.7 63.88l-2.89 1.29-9.12-18.58 4.31-1.92 7.7 19.21zM172.47 58.99l-3.02.98-7.13-19.43 4.49-1.46 5.66 19.91zM188.66 55.78l-3.1.66-5.06-20.07 4.62-.98 3.54 20.39zM203.7 33.63l-4.69.49 2.93 20.48 3.15-.33-1.39-20.64zM217.65 33.81l.78 20.69h3.17l.77-20.69h-4.72z"/><path class="cls-4" d="M708.62 359.48c-114.68 0-207.65 93-207.65 207.65s93 207.65 207.65 207.65 207.65-93 207.65-207.65-92.97-207.65-207.65-207.65zm0 409.87c-111.68 0-202.21-90.53-202.21-202.21s90.53-202.21 202.21-202.21 202.21 90.53 202.21 202.21-90.54 202.21-202.21 202.21z" transform="translate(-497.44 -355.09)"/><path class="cls-4" d="M806.07 730a189.93 189.93 0 01-194.92 0l-20.39 27.8a224.23 224.23 0 00237-.8zM526 461.43c-45.79 79.31-34.67 175.84 20.65 242.36l9.92-8.19a199.05 199.05 0 01-45.79-127.31c0-110.39 89.49-199.87 199.87-199.87a201.15 201.15 0 0133.22 2.76l2.13-13.06c-85.19-14.6-174.28 24.05-220 103.31z" transform="translate(-497.44 -355.09)"/><path class="cls-1" d="M708.66 359.27C594 359.27 501 452.24 501 566.93s93 207.65 207.65 207.65 207.65-93 207.65-207.65-92.95-207.66-207.64-207.66zm0 409.87c-111.68 0-202.21-90.53-202.21-202.21S597 364.72 708.66 364.72s202.21 90.53 202.21 202.21-90.53 202.21-202.21 202.21z" transform="translate(-497.44 -355.09)"/><path class="cls-1" d="M806.07 730a189.93 189.93 0 01-194.92 0l-20.39 27.8a224.23 224.23 0 00237-.8z" transform="translate(-497.44 -355.09)"/><path class="cls-5" d="M526 461.43c-45.79 79.31-34.67 175.84 20.65 242.36l9.92-8.19a199.05 199.05 0 01-45.79-127.31c0-110.39 89.49-199.87 199.87-199.87a201.15 201.15 0 0133.22 2.76l2.13-13.06c-85.19-14.6-174.28 24.05-220 103.31z" transform="translate(-497.44 -355.09)"/><path class="cls-3" d="M708.66 450.55A116.37 116.37 0 10825 566.93a116.37 116.37 0 00-116.34-116.38zm0 230a113.66 113.66 0 11113.66-113.62 113.66 113.66 0 01-113.66 113.66z" transform="translate(-497.44 -355.09)"/><path class="cls-5" d="M90.7 222.99l-6.31-10.94 6.31-10.94h12.63l6.32 10.94-6.32 10.94H90.7zM275.39 299.64l3.9-12.02 12.36-2.62 8.45 9.38-3.9 12.01-12.35 2.63-8.46-9.38z"/><path class="cls-2" d="M780.82 524.2a84 84 0 11-17.41-20.77l1.9-1.34a86 86 0 1017.32 20.74z" transform="translate(-497.44 -355.09)"/><path class="cls-5" d="M632.76 546.63a78.77 78.77 0 0158.12-56.19l-1.93-14.17a93 93 0 00-70.43 68.55z" transform="translate(-497.44 -355.09)"/><path class="cls-3" d="M744.56 545.68a41.79 41.79 0 11-8.66-10.33l.95-.67a42.75 42.75 0 108.61 10.32z" transform="translate(-497.44 -355.09)"/><path class="cls-1" d="M743.78 582.61a39 39 0 01-33.15 23.09l.54 8.39A47.42 47.42 0 00751.46 586zM748.15 541.35a47.42 47.42 0 00-19.88-17.5l-3.57 7.61a39 39 0 0122.44 35.32h8.4a47.42 47.42 0 00-7.39-25.43M669.13 566.77a39 39 0 0127.35-37.23l-2.51-8a47.41 47.41 0 00-3.72 89.15l3.17-7.78a39 39 0 01-24.29-36.13" transform="translate(-497.44 -355.09)"/><path class="cls-5" d="M750 633.24a78.76 78.76 0 01-80.84 0l-8.46 11.53a93 93 0 0098.28-.33z" transform="translate(-497.44 -355.09)"/></svg>