<svg preserveAspectRatio="none" xmlns="http://www.w3.org/2000/svg" viewBox="0 0 387.86 378.99"><defs><style>.cls-1{isolation:isolate;}.cls-2{mix-blend-mode:screen;}.cls-3{fill:#03a6ff;}</style></defs><title>circle50</title><g class="cls-1"><g id="Layer_7" data-name="Layer 7"><g class="cls-2"><path class="cls-3" d="M1387.22,1205.89v-1a108.71,108.71,0,0,0-21.7-64.76,110.85,110.85,0,0,0-34.81-30.18,106.22,106.22,0,0,0-21.31-8.84,108.92,108.92,0,0,0-22.73-4.12,110.9,110.9,0,0,0-23.21.73l-1,.14-11.71-84.47,1-.14a196.79,196.79,0,0,1,41.16-1.31,194.13,194.13,0,0,1,40.63,7.38,191.47,191.47,0,0,1,38.17,15.86,196.09,196.09,0,0,1,62,53.72,194,194,0,0,1,38.8,115.65v1Zm-108.7-111.29q4.15,0,8.3.3a111,111,0,0,1,23.16,4.2,108.25,108.25,0,0,1,21.72,9,112.91,112.91,0,0,1,35.46,30.74,110.76,110.76,0,0,1,22.11,65l81.16-.31a191.93,191.93,0,0,0-38.38-113.39,194,194,0,0,0-61.33-53.16,189.35,189.35,0,0,0-37.76-15.69,192,192,0,0,0-40.2-7.3,194.62,194.62,0,0,0-39.71,1.16l11.14,80.39A112.58,112.58,0,0,1,1278.53,1094.61Z" transform="translate(-1084.64 -1011.4)"/><path class="cls-3" d="M1086.32,1230.44l-0.14-1c-0.51-3.57-.78-7.2-1-10.71L1085,1217c-0.13-1.46-.17-3-0.2-4.39,0-.61,0-1.23-0.05-1.84s0-1.3,0-1.95c0-1.41-.08-2.86-0.06-4.3l0.25-9.32,0.71-9.34c0.17-1.58.37-3.12,0.56-4.67l0.2-1.56a192,192,0,0,1,12.89-48.27c0.51-1.35,1.12-2.69,1.71-4,0.26-.58.53-1.16,0.79-1.75s0.57-1.25.85-1.87c0.57-1.27,1.15-2.58,1.82-3.84l0.61-1.19c1.66-3.26,3.37-6.63,5.28-9.84a191.57,191.57,0,0,1,13.78-20.82l0.48-.61c2.36-3,4.81-6.17,7.43-9.09s5.22-5.81,7.86-8.56l0.58-.61a192.58,192.58,0,0,1,18.66-16.63l0.81-.62,52.59,67.14-0.83.63a107.88,107.88,0,0,0-10.48,9.33l-1.19,1.25c-1.2,1.25-2.43,2.54-3.54,3.89s-2.33,2.75-3.41,4.12l-1.07,1.35a108.5,108.5,0,0,0-7.7,11.66c-0.9,1.47-1.68,3-2.44,4.48-0.29.58-.59,1.15-0.89,1.73s-0.61,1.25-.9,1.91c-0.18.42-.37,0.84-0.56,1.26s-0.34.76-.52,1.15a21.25,21.25,0,0,0-.85,2,107.2,107.2,0,0,0-7.2,27l-0.45,3.52-0.4,5.26-0.13,5.28c0,0.69,0,1.38,0,2.08,0,0.48,0,1,0,1.43s0,0.82,0,1.24a21.58,21.58,0,0,0,.1,2.21c0.06,0.71.11,1.38,0.16,2.06,0.12,1.64.24,3.33,0.5,5l0.17,1.05Zm73.22-175.62a193.35,193.35,0,0,0-17.64,15.81l-0.57.59c-2.62,2.73-5.33,5.55-7.79,8.48s-5,6-7.36,9l-0.47.6a189.58,189.58,0,0,0-13.63,20.6c-1.89,3.17-3.59,6.51-5.23,9.74l-0.61,1.2c-0.64,1.22-1.21,2.5-1.77,3.74-0.28.63-.56,1.25-0.85,1.87s-0.52,1.16-.79,1.75c-0.58,1.27-1.17,2.58-1.67,3.89a190,190,0,0,0-12.77,47.78l-0.2,1.56c-0.2,1.53-.39,3.06-0.56,4.6l-0.7,9.25-0.24,9.25c0,1.39,0,2.82.06,4.21,0,0.65,0,1.3,0,1.94s0,1.23.05,1.85c0,1.41.07,2.86,0.2,4.27l0.13,1.75c0.23,3.14.47,6.39,0.88,9.57l80.53-10c-0.17-1.36-.27-2.74-0.37-4.07,0-.67-0.1-1.34-0.16-2a23.14,23.14,0,0,1-.11-2.39c0-.4,0-0.81,0-1.21s0-1,0-1.42c0-.73,0-1.46,0-2.2l0.14-5.35,0.41-5.36,0.45-3.57a109.12,109.12,0,0,1,7.32-27.46,22.71,22.71,0,0,1,.91-2.13c0.18-.37.35-0.75,0.51-1.12s0.38-.83.55-1.23c0.3-.68.6-1.38,1-2.06s0.58-1.12.87-1.69c0.77-1.52,1.57-3.09,2.49-4.58a110.21,110.21,0,0,1,7.85-11.88l1.08-1.37c1.1-1.4,2.23-2.85,3.47-4.2s2.38-2.69,3.6-4l1.2-1.26a114.44,114.44,0,0,1,9.88-8.9Z" transform="translate(-1084.64 -1011.4)"/><path class="cls-3" d="M1220.62,1390.39l-1-.31a194.17,194.17,0,0,1-74.52-44.12l-0.74-.71,58.7-61.86,0.75,0.72a108.7,108.7,0,0,0,41.71,24.73l1,0.32Zm-73.34-45.22a192.13,192.13,0,0,0,72,42.63l24.64-77.33a110.83,110.83,0,0,1-40.78-24.17Z" transform="translate(-1084.64 -1011.4)"/><path class="cls-3" d="M1349.19,1385.91l-31.49-79.25,1-.38a109.5,109.5,0,0,0,49.72-39.82,107,107,0,0,0,18.84-60.75v-1l85.28,0.32v1a193,193,0,0,1-19.25,83.59,206.82,206.82,0,0,1-14.44,24.92,200.88,200.88,0,0,1-17.95,22.49l-5,5.19c-1.46,1.43-2.92,2.82-4.37,4.2l-0.83.79c-1.33,1.31-2.76,2.55-4.15,3.75l-1.58,1.38c-1.66,1.44-3.39,2.94-5.18,4.31a186.9,186.9,0,0,1-23.71,16.27l-2,1.15c-1.39.81-2.83,1.64-4.31,2.39l-6.38,3.27c-1.55.76-3.13,1.47-4.66,2.16l-1.9.86-1.12.5c-0.73.33-1.47,0.66-2.21,1Zm-28.82-78.1,30,75.42,2.38-.94c0.72-.29,1.42-0.61,2.13-0.92l1.13-.5,1.9-.86c1.51-.68,3.08-1.38,4.58-2.12l6.37-3.26c1.43-.72,2.84-1.54,4.21-2.34l2-1.15a185,185,0,0,0,23.46-16.1c1.77-1.35,3.47-2.83,5.11-4.25l1.59-1.38c1.36-1.18,2.77-2.4,4.07-3.67l0.84-.8c1.45-1.38,2.9-2.76,4.33-4.16l4.92-5.15a198.9,198.9,0,0,0,17.75-22.23,204.72,204.72,0,0,0,14.29-24.66,190.88,190.88,0,0,0,19-81.68l-81.15-.31a109.07,109.07,0,0,1-19.2,60.88A111.63,111.63,0,0,1,1320.37,1307.81Z" transform="translate(-1084.64 -1011.4)"/><path class="cls-3" d="M1246.63,1093.67a116,116,0,0,1,122.69,39.24l-10.13,8.09a103,103,0,0,0-109-34.86Z" transform="translate(-1084.64 -1011.4)"/><path class="cls-3" d="M1287.62,1321c-2.83.27-5.68,0.3-8.52,0.37-1.42,0-2.84-.05-4.26-0.08l-2.13-.06-2.13-.15a113,113,0,0,1-16.89-2.4,115.23,115.23,0,0,1-31.81-12.09,116.66,116.66,0,0,1-46.68-48.48l11.54-5.91a103.69,103.69,0,0,0,41.48,43.07,102.25,102.25,0,0,0,28.23,10.73,100.1,100.1,0,0,0,15,2.13l1.89,0.14,1.9,0c1.26,0,2.53.09,3.79,0.07,2.53-.07,5.06-0.08,7.58-0.33Z" transform="translate(-1084.64 -1011.4)"/><path class="cls-3" d="M1394.67,1205.29a119.46,119.46,0,0,1-3.41,27.93l-12.59-3.11a106.51,106.51,0,0,0,3-24.82h13Z" transform="translate(-1084.64 -1011.4)"/><path class="cls-3" d="M1407,1194.22c0.12,1.84.33,3.68,0.36,5.53l0.14,5.54h-5.28l-0.13-5.31c0-1.77-.24-3.53-0.35-5.3Z" transform="translate(-1084.64 -1011.4)"/><path class="cls-3" d="M1214.11,1093.64c1.6-.92,3.19-1.86,4.85-2.67l2.47-1.26,1.23-.63,1.26-.57,2.24,4.78-1.21.55-1.18.61-2.36,1.21c-1.59.77-3.12,1.68-4.65,2.56Z" transform="translate(-1084.64 -1011.4)"/><path class="cls-3" d="M1398.76,1158.62l0.87,2.2,0.76,2.23c0.49,1.49,1,3,1.48,4.48l1.29,4.54c0.45,1.51.74,3.06,1.11,4.59l-5.15,1.17c-0.36-1.46-.63-3-1.07-4.4l-1.24-4.35c-0.43-1.45-1-2.86-1.42-4.3l-0.73-2.14-0.83-2.11Z" transform="translate(-1084.64 -1011.4)"/><path class="cls-3" d="M1304.89,1079a140.58,140.58,0,0,1,18.14,5.18l-1.82,5a135.35,135.35,0,0,0-17.4-5Z" transform="translate(-1084.64 -1011.4)"/><path class="cls-3" d="M1204.77,1099.59c1.48-1.1,3.05-2.08,4.61-3.07l2.33-1.49,2.4-1.38,2.65,4.57-2.3,1.32-2.24,1.43c-1.49,1-3,1.89-4.42,2.95Z" transform="translate(-1084.64 -1011.4)"/><path class="cls-3" d="M1214.11,1316.93l-2.4-1.38-2.33-1.49c-1.56-1-3.12-2-4.61-3.07l3-4.33c1.42,1.06,2.93,2,4.42,2.95l2.24,1.43,2.3,1.32Z" transform="translate(-1084.64 -1011.4)"/><path class="cls-3" d="M1178.08,1124.54a128.57,128.57,0,0,1,12.86-13.8l3.59,3.87a123.29,123.29,0,0,0-12.33,13.24Z" transform="translate(-1084.64 -1011.4)"/><path class="cls-3" d="M1156.1,1245.6a123.24,123.24,0,0,1-4.56-18.31l5.21-.9a118,118,0,0,0,4.37,17.55Z" transform="translate(-1084.64 -1011.4)"/><path class="cls-3" d="M1223.92,1322.07l-1.26-.57-1.23-.63-2.47-1.26c-1.66-.81-3.25-1.75-4.85-2.67l2.65-4.57c1.54,0.88,3.06,1.79,4.65,2.56l2.36,1.21,1.18,0.61,1.21,0.55Z" transform="translate(-1084.64 -1011.4)"/><path class="cls-3" d="M1407.5,1205.29l-0.14,5.54c0,1.85-.25,3.68-0.36,5.53l-5.26-.45c0.11-1.77.32-3.53,0.35-5.3l0.13-5.31h5.28Z" transform="translate(-1084.64 -1011.4)"/><path class="cls-3" d="M1258.89,1332.73a142,142,0,0,1-18.39-4.23l1.56-5a136.69,136.69,0,0,0,17.63,4.05Z" transform="translate(-1084.64 -1011.4)"/><path class="cls-3" d="M1374.7,1291.18a134.52,134.52,0,0,1-13.56,13.11l-3.39-4.06a129.23,129.23,0,0,0,13-12.58Z" transform="translate(-1084.64 -1011.4)"/><path class="cls-3" d="M1347.47,1142.59a93.16,93.16,0,0,1,24.26,62.69H1364a85.46,85.46,0,0,0-22.25-57.51Z" transform="translate(-1084.64 -1011.4)"/><path class="cls-3" d="M1312.63,1118.59c2.21,0.82,4.34,1.84,6.49,2.82s4.21,2.13,6.23,3.34a90.52,90.52,0,0,1,11.64,8l-4.83,6a82.85,82.85,0,0,0-10.68-7.35c-1.85-1.12-3.79-2.08-5.72-3.07s-3.92-1.83-5.95-2.58Z" transform="translate(-1084.64 -1011.4)"/><path class="cls-3" d="M1290.48,1112.92a89.78,89.78,0,0,1,12.43,2.45l-2,7.43a82.1,82.1,0,0,0-11.4-2.25Z" transform="translate(-1084.64 -1011.4)"/><path class="cls-3" d="M1190.39,1175.27a93.2,93.2,0,0,1,49.18-54.57l3.23,7a85.5,85.5,0,0,0-45.12,50.07Z" transform="translate(-1084.64 -1011.4)"/><path class="cls-3" d="M1187,1222.42a88.58,88.58,0,0,1-1.54-14.74c-0.11-2.47,0-4.94.08-7.41s0.35-4.93.71-7.38l7.63,1c-0.33,2.25-.48,4.51-0.65,6.77s-0.18,4.54-.07,6.81a80.87,80.87,0,0,0,1.41,13.52Z" transform="translate(-1084.64 -1011.4)"/><polygon class="cls-3" points="107.2 227.88 106.39 225.81 105.68 223.72 104.97 221.62 104.36 219.49 111.77 217.37 112.32 219.33 112.97 221.25 113.63 223.18 114.37 225.07 107.2 227.88"/><path class="cls-3" d="M1203,1259.67c-0.85-1.2-1.73-2.39-2.5-3.65s-1.62-2.47-2.33-3.77l6.65-3.89c0.65,1.19,1.41,2.31,2.13,3.46s1.51,2.25,2.3,3.35Z" transform="translate(-1084.64 -1011.4)"/><path class="cls-3" d="M1283.12,1298.32a92.86,92.86,0,0,1-53.26-13.63l4-6.56a85.15,85.15,0,0,0,48.86,12.5Z" transform="translate(-1084.64 -1011.4)"/><path class="cls-3" d="M1331.46,1282a92.47,92.47,0,0,1-28.35,13.19l-2-7.43a84.77,84.77,0,0,0,26-12.1Z" transform="translate(-1084.64 -1011.4)"/><path class="cls-3" d="M1371.72,1205.29a93.66,93.66,0,0,1-5.25,30.83l-7.26-2.55a86,86,0,0,0,4.81-28.28h7.7Z" transform="translate(-1084.64 -1011.4)"/><path class="cls-3" d="M1355.1,1188.26a78.9,78.9,0,0,1,1.87,17h-5a73.91,73.91,0,0,0-1.76-15.94Z" transform="translate(-1084.64 -1011.4)"/><path class="cls-3" d="M1320.42,1139a79.89,79.89,0,0,1,13.4,10.66l-3.53,3.55a74.88,74.88,0,0,0-12.55-10Z" transform="translate(-1084.64 -1011.4)"/><path class="cls-3" d="M1200.5,1198.06a76.32,76.32,0,0,1,3.41-16.78l4.76,1.53a71.33,71.33,0,0,0-3.2,15.71Z" transform="translate(-1084.64 -1011.4)"/><path class="cls-3" d="M1309.21,1277.48a78.09,78.09,0,0,1-16.41,4.9l-0.9-4.92a73.08,73.08,0,0,0,15.36-4.59Z" transform="translate(-1084.64 -1011.4)"/><path class="cls-3" d="M1357,1205.29a78.9,78.9,0,0,1-1.87,17l-4.88-1.08a73.91,73.91,0,0,0,1.76-15.94h5Z" transform="translate(-1084.64 -1011.4)"/><path class="cls-3" d="M1276,1272.14c-1.09,0-2.18-.11-3.25-0.2l0.52-6.15c1,0.08,2,.14,3,0.18Zm19.36-2-1.5-6c0.95-.24,1.91-0.5,2.86-0.79l1.77,5.92C1297.43,1269.59,1296.38,1269.88,1295.33,1270.14Zm-41.59-2.55c-1-.38-2-0.8-3-1.24l2.5-5.65c0.91,0.4,1.83.78,2.73,1.13Zm62.4-6.52-3.37-5.17c0.82-.53,1.65-1.1,2.45-1.68l3.61,5C1317.95,1259.86,1317,1260.48,1316.14,1261.06Zm-81.93-5c-0.83-.7-1.65-1.42-2.44-2.15l4.19-4.53c0.72,0.67,1.47,1.33,2.22,2Zm98.66-10.3-4.86-3.81c0.61-.78,1.21-1.58,1.77-2.37l5,3.57C1334.2,1244,1333.55,1244.88,1332.88,1245.74Zm-113.41-7c-0.56-.93-1.1-1.88-1.62-2.83l5.43-2.93c0.47,0.87,1,1.73,1.47,2.58Zm124.27-13-5.83-2c0.32-.93.63-1.88,0.9-2.82l5.93,1.74C1344.44,1223.74,1344.1,1224.79,1343.74,1225.82Zm-132.62-8.15c-0.22-1.05-.43-2.13-0.6-3.2l6.09-1c0.16,1,.34,2,0.55,2.91Zm136.41-14.24h-6.18v-0.21c0-1,0-2-.07-3l6.17-.28c0,1.08.07,2.17,0.07,3.25v0.21Zm-131.3-7.7-6.13-.73c0.13-1.07.28-2.16,0.46-3.22l6.09,1C1216.48,1193.77,1216.34,1194.76,1216.23,1195.74ZM1338,1182.85c-0.32-.93-0.67-1.87-1-2.79l5.74-2.28c0.4,1,.78,2,1.13,3.06Zm-116-6.93-5.56-2.69c0.47-1,1-1.95,1.48-2.89l5.43,2.95C1222.9,1174.14,1222.45,1175,1222,1175.91Zm106.11-11.24c-0.61-.78-1.24-1.55-1.88-2.3l4.69-4c0.7,0.82,1.4,1.67,2.06,2.52Zm-94.17-5.63-4.39-4.35c0.76-.77,1.55-1.53,2.34-2.26l4.18,4.55C1235.37,1157.66,1234.65,1158.35,1234,1159.05Zm79-8.38c-0.82-.54-1.67-1.06-2.52-1.57l3.14-5.32c0.93,0.55,1.86,1.13,2.76,1.72Zm-62.22-3.72-2.74-5.53c1-.48,2-0.95,3-1.38l2.48,5.66C1252.5,1146.08,1251.59,1146.51,1250.71,1146.95Zm43.32-4.59c-1-.24-1.92-0.46-2.89-0.66l1.23-6.05c1.06,0.22,2.13.46,3.17,0.72Zm-23.54-1.4-0.79-6.12c1.07-.14,2.16-0.25,3.24-0.34l0.5,6.16C1272.44,1140.73,1271.45,1140.83,1270.48,1141Z" transform="translate(-1084.64 -1011.4)"/><path class="cls-3" d="M1278.57,1360c-86.46,0-156.79-70.34-156.79-156.79a156.15,156.15,0,0,1,58.78-122.39l1.29,1.61a154.1,154.1,0,0,0-58,120.78c0,85.32,69.41,154.73,154.73,154.73,84.22,0,153.63-68.5,154.72-152.69l2.06,0A156.79,156.79,0,0,1,1278.57,1360Z" transform="translate(-1084.64 -1011.4)"/><path class="cls-3" d="M1278.57,1360.53c-86.74,0-157.31-70.57-157.31-157.31a156.66,156.66,0,0,1,59-122.79l0.4-.32,1.93,2.41-0.4.32a153.59,153.59,0,0,0-57.81,120.38c0,85,69.18,154.22,154.22,154.22,83.94,0,153.12-68.27,154.21-152.18v-0.51l3.09,0v0.51A157.31,157.31,0,0,1,1278.57,1360.53Zm-98.09-279a155.63,155.63,0,0,0-58.18,121.66c0,86.17,70.11,156.28,156.28,156.28a156.28,156.28,0,0,0,156.26-153.7h-1c-1.37,84.24-70.89,152.68-155.23,152.68-85.6,0-155.25-69.64-155.25-155.25a154.6,154.6,0,0,1,57.8-120.86Z" transform="translate(-1084.64 -1011.4)"/><path class="cls-3" d="M1330.59,1182.39l-9.5,4.19a46.08,46.08,0,0,1,4,18.71h0l-0.17,3.15-0.07,1.58-0.24,1.56-0.47,3.12-0.79,3.05c-0.14.51-.24,1-0.4,1.52l-0.55,1.48c-0.38,1-.68,2-1.11,2.95a48.29,48.29,0,0,1-2.93,5.58l8.88,5.37a57.11,57.11,0,0,0,8.23-29.37h0A56.48,56.48,0,0,0,1330.59,1182.39Z" transform="translate(-1084.64 -1011.4)"/><path class="cls-3" d="M1322.21,1168.86l-1.2-1.32c-0.81-.88-1.59-1.78-2.42-2.62l-2.64-2.41c-0.44-.4-0.87-0.81-1.33-1.19l-1.43-1.07-2.87-2.13-3.05-1.86-1.53-.92-1.6-.79-3.22-1.55a58.7,58.7,0,0,0-28-4.29l1,10.33a48.31,48.31,0,0,1,22.87,3.5l2.63,1.27,1.31,0.63,1.25,0.76,2.5,1.51,2.34,1.75,1.17,0.87c0.38,0.31.72,0.65,1.09,1l2.17,2c0.68,0.69,1.31,1.44,2,2.15l1,1.08c0.34,0.35.59,0.77,0.89,1.16l8.17-6.4C1322.94,1169.8,1322.62,1169.3,1322.21,1168.86Z" transform="translate(-1084.64 -1011.4)"/><path class="cls-3" d="M1252.3,1167l-5.88-8.56a62.36,62.36,0,0,0-11.72,10.71l8,6.61A52.11,52.11,0,0,1,1252.3,1167Z" transform="translate(-1084.64 -1011.4)"/><path class="cls-3" d="M1232.13,1205.89a10.54,10.54,0,0,1,0-1.63l0.08-1.63a49.31,49.31,0,0,1,.77-6.46l-10.18-2a59.72,59.72,0,0,0-.95,7.9l-0.1,2a14.94,14.94,0,0,0,0,2l0.2,4,10.35-.85Z" transform="translate(-1084.64 -1011.4)"/><path class="cls-3" d="M1278.54,1251.76l-1.72-.09c-1.14-.08-2.29-0.07-3.43-0.21l-3.39-.52-0.85-.13-0.83-.22-1.66-.43-1.66-.42c-0.55-.14-1.08-0.38-1.62-0.57-1.07-.41-2.16-0.75-3.21-1.21l-3.09-1.49a10.67,10.67,0,0,1-1.5-.83l-1.47-.89a44.51,44.51,0,0,1-10.44-8.83c-0.38-.43-0.79-0.83-1.14-1.28l-1-1.38-1-1.37c-0.17-.23-0.35-0.45-0.51-0.69l-0.44-.73-1.78-2.93-1.49-3.09-9.45,4.29c0.61,1.26,1.2,2.53,1.84,3.78l2.18,3.59,0.55,0.9c0.19,0.29.41,0.56,0.62,0.85l1.25,1.68,1.26,1.68c0.42,0.56.92,1,1.38,1.58a54.87,54.87,0,0,0,12.76,10.8l1.8,1.09a15.12,15.12,0,0,0,1.84,1l3.78,1.82c1.28,0.56,2.62,1,3.93,1.48,0.66,0.23,1.31.51,2,.69l2,0.53,2,0.52,1,0.26,1,0.17,4.15,0.63c1.39,0.17,2.79.18,4.18,0.27l2.09,0.1,2.09-.1-0.37-10.38Z" transform="translate(-1084.64 -1011.4)"/><path class="cls-3" d="M1308.75,1191.66a33.43,33.43,0,0,0-8.29-11.2,33,33,0,0,0-12.15-6.84,33.49,33.49,0,0,0-13.89-1.17l0.88,7a26.41,26.41,0,0,1,10.93.92,26.2,26.2,0,0,1,18.39,24.9,28.44,28.44,0,0,1-1.07,7.35,26.09,26.09,0,0,1-14.22,16.35l2.93,6.45a33.18,33.18,0,0,0,18.09-20.8,35.49,35.49,0,0,0,1.36-9.35A33,33,0,0,0,1308.75,1191.66Z" transform="translate(-1084.64 -1011.4)"/><path class="cls-3" d="M1253.66,1197.68A26.84,26.84,0,0,1,1260,1187l-5-5a33,33,0,0,0-8.95,29.32l7-1.29A27.06,27.06,0,0,1,1253.66,1197.68Z" transform="translate(-1084.64 -1011.4)"/><path class="cls-3" d="M1278.46,1231.33l-0.93-.05c-0.62,0-1.25,0-1.86-.12a26.8,26.8,0,0,1-3.65-.7,23.07,23.07,0,0,1-6.84-2.87,27.91,27.91,0,0,1-3.06-2.12c-0.48-.4-0.92-0.83-1.39-1.25a12.12,12.12,0,0,1-1.31-1.33,27.4,27.4,0,0,1-2.34-2.9c-0.35-.51-0.65-1.06-1-1.58-0.16-.27-0.33-0.53-0.48-0.8l-0.4-.84-6.35,3.14,0.52,1.07c0.19,0.35.4,0.68,0.6,1,0.42,0.67.8,1.36,1.25,2a34.47,34.47,0,0,0,3,3.69,17.37,17.37,0,0,0,1.66,1.69c0.59,0.53,1.16,1.07,1.77,1.58a34.93,34.93,0,0,0,3.89,2.7,30.1,30.1,0,0,0,8.71,3.66,33.87,33.87,0,0,0,4.65.88c0.78,0.1,1.57.1,2.36,0.15l1.18,0.06c0.39,0,.79,0,1.18,0l-0.22-7.08C1279.08,1231.3,1278.77,1231.34,1278.46,1231.33Z" transform="translate(-1084.64 -1011.4)"/><path class="cls-3" d="M1290.39,1195.17a15.71,15.71,0,0,1,3.75,10.12h-4.37a11.33,11.33,0,0,0-2.7-7.27Z" transform="translate(-1084.64 -1011.4)"/><path class="cls-3" d="M1263,1204.86a15.55,15.55,0,0,1,12.79-14.88l0.77,4.31a11.17,11.17,0,0,0-9.19,10.7Z" transform="translate(-1084.64 -1011.4)"/><path class="cls-3" d="M1272.51,1219.63a16.68,16.68,0,0,1-4-2.46l2.83-3.34a12.33,12.33,0,0,0,2.86,1.77Z" transform="translate(-1084.64 -1011.4)"/><path class="cls-3" d="M1294.14,1205.29a15.54,15.54,0,0,1-7,13l-2.41-3.65a11.16,11.16,0,0,0,5.05-9.35h4.37Z" transform="translate(-1084.64 -1011.4)"/><path class="cls-3" d="M1277.41,1220.8a5.48,5.48,0,0,1-.77-0.07l0.54-4.34a3.16,3.16,0,0,0,.56.05Z" transform="translate(-1084.64 -1011.4)"/><polygon class="cls-3" points="196.32 209.26 195.55 209.37 195.1 205.02 195.65 204.94 196.32 209.26"/><path class="cls-3" d="M1285.12,1219.4a6.77,6.77,0,0,1-.71.31l-1.64-4.05a3.94,3.94,0,0,0,.51-0.23Z" transform="translate(-1084.64 -1011.4)"/><path class="cls-3" d="M1416.63,1154.26a149.49,149.49,0,0,1,9.1,51h-9.57a139.92,139.92,0,0,0-8.51-47.71Z" transform="translate(-1084.64 -1011.4)"/><path class="cls-3" d="M1280.59,1058.17a141.43,141.43,0,0,1,25,2.46,145.76,145.76,0,0,1,67.4,31.76l-6.14,7.34a136.19,136.19,0,0,0-63-29.69,131.85,131.85,0,0,0-23.34-2.3Z" transform="translate(-1084.64 -1011.4)"/><path class="cls-3" d="M1197.25,1082.64a147,147,0,0,1,19.37-10.84l4,8.67a137.47,137.47,0,0,0-18.11,10.13Z" transform="translate(-1084.64 -1011.4)"/><path class="cls-3" d="M1131.4,1205.29a152.35,152.35,0,0,1,4.46-36,149.79,149.79,0,0,1,13.17-33.85l8.41,4.55a140.23,140.23,0,0,0-12.31,31.64,142.78,142.78,0,0,0-4.17,33.71h-9.57Z" transform="translate(-1084.64 -1011.4)"/><path class="cls-3" d="M1178.47,1097.44c0.87-.86,1.79-1.66,2.72-2.46l6.33,7.17c-0.87.74-1.73,1.49-2.55,2.3Z" transform="translate(-1084.64 -1011.4)"/><polygon class="cls-3" points="82.17 98.2 84.57 95.43 91.67 101.83 89.43 104.43 82.17 98.2"/><polygon class="cls-3" points="69.91 114.7 71.89 111.61 79.82 116.97 77.97 119.86 69.91 114.7"/><path class="cls-3" d="M1140.51,1256.31a149.5,149.5,0,0,1-9.1-51H1141a139.92,139.92,0,0,0,8.51,47.71Z" transform="translate(-1084.64 -1011.4)"/><path class="cls-3" d="M1276.55,1352.4a141.42,141.42,0,0,1-25-2.46,145.76,145.76,0,0,1-67.4-31.76l6.14-7.34a136.2,136.2,0,0,0,63,29.69,131.86,131.86,0,0,0,23.34,2.3Z" transform="translate(-1084.64 -1011.4)"/><path class="cls-3" d="M1359.89,1327.93a147.06,147.06,0,0,1-19.37,10.84l-4-8.67a137.45,137.45,0,0,0,18.1-10.13Z" transform="translate(-1084.64 -1011.4)"/><path class="cls-3" d="M1425.73,1205.29a152.35,152.35,0,0,1-4.46,36,149.78,149.78,0,0,1-13.17,33.85l-8.41-4.55A140.22,140.22,0,0,0,1412,1239a142.77,142.77,0,0,0,4.17-33.71h9.57Z" transform="translate(-1084.64 -1011.4)"/><path class="cls-3" d="M1378.67,1313.13c-0.87.86-1.79,1.66-2.72,2.46l-6.33-7.17c0.87-.74,1.73-1.49,2.55-2.3Z" transform="translate(-1084.64 -1011.4)"/><polygon class="cls-3" points="305.69 289.58 303.29 292.35 296.18 285.95 298.43 283.35 305.69 289.58"/><polygon class="cls-3" points="317.94 273.08 315.96 276.17 308.03 270.81 309.88 267.93 317.94 273.08"/><path class="cls-3" d="M1347.15,1360.71a168.11,168.11,0,0,1-48.68,13.26,166.29,166.29,0,0,1-25.27,1.06L1270,1375l-3.16-.23c-2.1-.17-4.21-0.29-6.31-0.51l-6.28-.8-1.57-.2-1.56-.28-3.12-.56,1.49-8.2,3,0.53L1254,1365l1.49,0.19,6,0.76c2,0.21,4,.32,6,0.49l3,0.22,3,0.08a158,158,0,0,0,24-1,159.78,159.78,0,0,0,46.28-12.61Z" transform="translate(-1084.64 -1011.4)"/><path class="cls-3" d="M1428.32,1285.53a175.39,175.39,0,0,1-15.14,23.34c-1.45,1.81-2.82,3.69-4.35,5.44l-4.56,5.26-4.8,5c-1.61,1.68-3.34,3.23-5,4.84l-5.69-6.09c1.58-1.54,3.23-3,4.76-4.61l4.57-4.79,4.34-5c1.45-1.66,2.75-3.45,4.14-5.17a167,167,0,0,0,14.4-22.19Z" transform="translate(-1084.64 -1011.4)"/><path class="cls-3" d="M1448.45,1205.29a170.75,170.75,0,0,1-9.06,54.72l-7.89-2.68a162.4,162.4,0,0,0,8.61-52h8.34Z" transform="translate(-1084.64 -1011.4)"/><path class="cls-3" d="M1198.9,1355.33a181.21,181.21,0,0,1-21.91-13.87l5-6.68a172.94,172.94,0,0,0,20.84,13.19Z" transform="translate(-1084.64 -1011.4)"/><path class="cls-3" d="M1145.93,1311.37l-3.39-4.32-3.19-4.47-1.59-2.24-1.49-2.31-3-4.62-2.74-4.76-1.37-2.38-1.25-2.44-2.5-4.89-2.26-5-1.13-2.5-1-2.55-2-5.11-1.77-5.2-0.88-2.6-0.76-2.64-1.5-5.28c-0.44-1.78-.83-3.56-1.25-5.35-0.9-3.55-1.41-7.18-2.09-10.78a176.75,176.75,0,0,1-1.24-43.78,174.11,174.11,0,0,1,3.64-21.64c0.75-3.59,1.83-7.09,2.82-10.61,0.48-1.77,1.14-3.48,1.7-5.22s1.12-3.49,1.83-5.18l7.8,2.93c-0.68,1.6-1.16,3.28-1.74,4.92s-1.17,3.28-1.62,5c-0.93,3.35-2,6.68-2.68,10.09a165.78,165.78,0,0,0-3.46,20.58,168.44,168.44,0,0,0,1.18,41.65c0.65,3.42,1.12,6.87,2,10.25,0.4,1.69.77,3.39,1.19,5.08l1.43,5,0.72,2.51,0.84,2.47,1.68,4.94,1.92,4.86,1,2.43,1.08,2.38,2.15,4.76,2.38,4.65,1.19,2.32,1.3,2.26,2.6,4.53,2.82,4.39,1.41,2.2,1.51,2.13,3,4.25,3.23,4.1Z" transform="translate(-1084.64 -1011.4)"/></g></g></g></svg>