<svg preserveAspectRatio="none" id="Layer_1" data-name="Layer 1" xmlns="http://www.w3.org/2000/svg" viewBox="0 0 64.23 63.43"><defs><style>.cls-1{fill:aqua;}</style></defs><title>circle93</title><g id="_编组_" data-name="&lt;编组&gt;"><path id="_复合路径_" data-name="&lt;复合路径&gt;" class="cls-1" d="M277.93,102.37a32,32,0,0,1-9.1-3.79l5.48-9a21.5,21.5,0,0,0,6.12,2.55Zm22-2.43-4.67-9.4a21.7,21.7,0,0,0,1.92-1.08l5.6,8.88A32.11,32.11,0,0,1,299.9,99.94Zm-33.77-3.21a32.21,32.21,0,0,1-11.94-18.61l10.25-2.28a21.7,21.7,0,0,0,8,12.54Zm44-4.85-8-6.78a21.69,21.69,0,0,0,5.12-14c0-.23,0-0.44,0-0.65l10.49-.32q0,0.49,0,1A32.19,32.19,0,0,1,310.18,91.88ZM264,69.21l-10.46-.91a32.43,32.43,0,0,1,.45-3.23l10.31,2A21.78,21.78,0,0,0,264,69.21Zm37.72-12.58a21.71,21.71,0,0,0-1.55-1.56l7.06-7.77a32.37,32.37,0,0,1,2.3,2.32ZM272,54.26l-6.61-8.16a32.12,32.12,0,0,1,8.51-5l3.83,9.77A21.65,21.65,0,0,0,272,54.26Zm22.67-2.85a21.5,21.5,0,0,0-9-2,21.76,21.76,0,0,0-5.81.79L277,40.11a32.29,32.29,0,0,1,22,1.76Z" transform="translate(-253.55 -38.94)"/><path id="_复合路径_2" data-name="&lt;复合路径&gt;" class="cls-1" d="M285.87,98.56v-1h0.05a26.58,26.58,0,0,0,4.09-.37c0.66-.11,1.34-0.25,2-0.42h0.05l0.25,1h-0.05c-0.69.18-1.4,0.33-2.09,0.44a28.76,28.76,0,0,1-4.26.38h-0.05Zm-2-.1h-0.11l0.06-.95h0.11Zm-4.24-.55h-0.05c-0.68-.16-1.38-0.35-2.06-0.56a26.54,26.54,0,0,1-4-1.57l-0.05,0,0.46-.94,0.05,0a26.11,26.11,0,0,0,3.82,1.52c0.65,0.2,1.32.38,2,.52h0.05Zm16.66-1.55-0.37-.87,0.09,0,0.37,0.87Zm2-.86-0.48-.93,0,0a25.82,25.82,0,0,0,3.49-2.17c0.56-.41,1.1-0.84,1.62-1.29l0,0,0.69,0.79,0,0c-0.54.46-1.09,0.9-1.64,1.3l0,0a28.76,28.76,0,0,1-3.62,2.27Zm-26.51-.77-0.08-.05,0.52-.84h0.08Zm-3.53-2.4,0,0c-0.55-.46-1.09-0.94-1.6-1.43a27.4,27.4,0,0,1-2.83-3.2l0,0L264.5,87l0,0a28.1,28.1,0,0,0,2.73,3.08c0.51,0.48,1,.95,1.54,1.36l0,0Zm38.31-3.49-0.71-.62,0.06-.07,0.72,0.61Zm1.36-1.65L307,86.58l0,0A27.26,27.26,0,0,0,309.17,83c0.33-.63.61-1.26,0.86-1.87l0-.05,1,0.4,0,0.05c-0.27.67-.58,1.33-0.89,1.94a26.46,26.46,0,0,1-2.22,3.65ZM262.47,86l0-.15,0.87-.56,0,0.14Zm-2-3.79,0-.05q-0.44-1-.79-2A27.55,27.55,0,0,1,258.59,76V76l1-.19v0.05a26.17,26.17,0,0,0,1,4c0.22,0.64.47,1.29,0.75,1.91l0,0.05Zm51.76-4.68-0.91-.22,0-.1,0.92,0.22Zm0.47-2.09-1-.16V75.22a26.69,26.69,0,0,0,.32-4.1l0.05-.05,1,0.05a29,29,0,0,1-.33,4.26v0.05ZM258.29,74l0.05-.11,0.93-.09v0.1ZM312,69.9V69.85a26.52,26.52,0,0,0-.51-4.08c-0.14-.67-0.3-1.34-0.49-2V63.71l1-.29v0.05c0.2,0.68.37,1.38,0.51,2.08V65.6h0a26.56,26.56,0,0,1,.52,4.19v0.05Zm-52.74-.15-1-.06V69.64c0-.71.1-1.43,0.2-2.13a27.1,27.1,0,0,1,.89-4.18V63.27l1,0.29,0,0.05a26.58,26.58,0,0,0-.85,4c-0.08.67-.15,1.36-0.19,2.06v0.05Zm1.71-8-1-.37,0-.09,0.92,0.39v0.07Zm48.64-1.78,0-.09,0.85-.4,0.05,0.09Zm-1-1.81,0,0a26.28,26.28,0,0,0-2.3-3.41c-0.44-.55-0.89-1.07-1.34-1.55l0,0,0.77-.71,0,0c0.48,0.52,1,1.07,1.4,1.63a26.46,26.46,0,0,1,2.39,3.54l0,0.05ZM262.68,58l-0.9-.52,0,0c0.35-.6.73-1.21,1.14-1.82a27.13,27.13,0,0,1,2.68-3.33l0,0L266.41,53l0,0a26.31,26.31,0,0,0-2.56,3.16l0.06,0.06-0.12,0c-0.37.54-.72,1.11-1.06,1.7Zm5.1-6.43-0.64-.7,0.07-.06,0.64,0.69Zm34.1-1.11V50.27l0.59-.73,0.07,0.06Zm-1.61-1.29,0,0a26.73,26.73,0,0,0-3.59-2c-0.64-.29-1.28-0.56-1.9-0.79l-0.27-.11h0.25l0.34-.9,0.05,0c0.66,0.24,1.31.51,1.93,0.8h0l0,0a29,29,0,0,1,3.74,2.09l0,0ZM271,49.1V49l-0.54-.82,0,0c0.59-.39,1.21-0.77,1.83-1.11a27.66,27.66,0,0,1,3.89-1.76l0.05,0,0.36,1-0.05,0a26.17,26.17,0,0,0-3.74,1.7c-0.6.33-1.2,0.68-1.76,1.06Zm7.48-3.47-0.25-.91,0.09,0,0.25,0.9Zm12.35-.44-0.1,0,0.18-.93,0.11,0Zm-2-.28h-0.05a26.24,26.24,0,0,0-3.15-.19c-0.35,0-.66,0-1,0-0.69,0-1.39.07-2.06,0.15h-0.05l-0.12-1h0.05c0.73-.08,1.45-0.14,2.13-0.16a28.45,28.45,0,0,1,4.27.17h0.05Z" transform="translate(-253.55 -38.94)"/><path id="_复合路径_3" data-name="&lt;复合路径&gt;" class="cls-1" d="M285.6,90.65a19.53,19.53,0,1,1,19.53-19.53A19.55,19.55,0,0,1,285.6,90.65Zm0-38.31a18.78,18.78,0,1,0,18.78,18.78A18.8,18.8,0,0,0,285.6,52.33Z" transform="translate(-253.55 -38.94)"/></g></svg>