<svg preserveAspectRatio="none" id="Layer_1" data-name="Layer 1" xmlns="http://www.w3.org/2000/svg" viewBox="0 0 153.71 109.3"><defs><style>.cls-1{fill:#71ccda}.cls-2{fill:#0e8092}.cls-3{fill:#41bbce}.cls-4{fill:#095561}.cls-5{fill:#d0eef3}.cls-6{fill:#12aac2}.cls-7{fill:#ff8a29}</style></defs><path class="cls-1" d="M69 353.84h-5.64v5.65a23.05 23.05 0 015.64-5.65z" transform="translate(-5.19 -317.98)"/><path class="cls-1" d="M62.36 361v-8.19h8.24a22.79 22.79 0 0111.53-3.12v-6.33a29.24 29.24 0 00-26.2 16.28l5.64 2.81c.25-.45.51-.94.79-1.45z" transform="translate(-5.19 -317.98)"/><path class="cls-2" d="M91.21 351.59l2.5-5.83a29.15 29.15 0 00-11.56-2.38v6.33a22.85 22.85 0 019.06 1.88z" transform="translate(-5.19 -317.98)"/><path class="cls-3" d="M100.94 359.54v-5.61l-2.55 2.55a23.05 23.05 0 012.55 3.06zM101.94 352.93v8.17a22.8 22.8 0 013.11 11h4.63a2.56 2.56 0 011.62-1.74 29.15 29.15 0 00-8.43-18.4z" transform="translate(-5.19 -317.98)"/><path class="cls-2" d="M59.22 373.13h-4.46a2.55 2.55 0 01-1.73 2.1 29 29 0 002 8.38l5.84-2.34a22.85 22.85 0 01-1.65-8.14zM82.13 395.58v6.29a29.42 29.42 0 005.13-.46l-1.11-6.2a23 23 0 01-4.02.37z" transform="translate(-5.19 -317.98)"/><path class="cls-3" d="M62.36 392.41v-8.2a22.92 22.92 0 01-1.48-2.95L55 383.61a29.29 29.29 0 006.47 9.74l.94-.94h-.05zM63.36 385.79v5.63h.09l2.55-2.51a23 23 0 01-2.64-3.12z" transform="translate(-5.19 -317.98)"/><path class="cls-2" d="M82.13 358.9v-5.06H69a23.05 23.05 0 00-5.67 5.65v3.88l6.44 3.21a13.74 13.74 0 0112.36-7.68zM82.13 349.72a22.79 22.79 0 00-11.53 3.12h11.53v-3.12zM62.36 361c-.28.47-.54 1-.79 1.45l.79.39V361z" transform="translate(-5.19 -317.98)"/><path class="cls-1" d="M105 373.13h-3.11v11.07a22.8 22.8 0 003.11-11.07zM91.81 382.41l6.49 6.49a23.05 23.05 0 002.64-3.14v-12.88h-5.07a13.7 13.7 0 01-4.06 9.53zM82.13 392.41v3.17a23 23 0 004-.36l-.5-2.8h-3.5zM82.13 386.4v5h3.35l-.94-5.24a13.75 13.75 0 01-2.41.24z" transform="translate(-5.19 -317.98)"/><path class="cls-4" d="M53 370.37a29.22 29.22 0 0129.13-27 29.23 29.23 0 0129.15 27 2.64 2.64 0 01.49-.12 29.74 29.74 0 00-59.29 0 2.56 2.56 0 01.52.12zM111.28 375.21a29.27 29.27 0 01-29.13 26.66A29.22 29.22 0 0153 375.23a2.5 2.5 0 01-.49.11 29.74 29.74 0 0059.23 0 2.57 2.57 0 01-.46-.13z" transform="translate(-5.19 -317.98)"/><path class="cls-5" d="M53 375.23a2.55 2.55 0 00-.52-5h-.28a2.57 2.57 0 000 5.13 3.48 3.48 0 00.8-.13zM114.61 372.13a2.56 2.56 0 00-2.46-1.89 3.15 3.15 0 00-.84.15 2.59 2.59 0 103.3 1.74z" transform="translate(-5.19 -317.98)"/><path class="cls-6" d="M101.94 352.84v.09l.94-.94a29.3 29.3 0 00-9.17-6.23l-2.5 5.83a22.86 22.86 0 012.44 1.25h8.29zM98.39 356.48l2.55-2.55v-.09h-5.71a23 23 0 013.16 2.64zM55.93 359.67a29.07 29.07 0 00-2.93 10.7 2.55 2.55 0 011.69 1.76h4.52a22.82 22.82 0 012.36-9.65zM109.61 373.13H105a22.8 22.8 0 01-3.11 11.07v8.22h-.13l1 1a29.15 29.15 0 008.51-18.16 2.55 2.55 0 01-1.66-2.13zM100.81 391.41h.13v-5.65a23.05 23.05 0 01-2.64 3.14zM62.45 392.41l-.94.94a29.16 29.16 0 0020.61 8.52v-6.29a22.82 22.82 0 01-11.62-3.17h-8.05zM69 391.41a23.1 23.1 0 01-3-2.51l-2.51 2.51H69zM68.39 372.88h-5v7.39l6-2.43a13.73 13.73 0 01-1-4.96zM62.36 373a.49.49 0 01-.3.11h-2.84a22.85 22.85 0 001.66 8.14l1.48-.6V373zM84.54 386.17l.94 5.24h9.8a22.93 22.93 0 003-2.51l-6.49-6.49a13.71 13.71 0 01-7.25 3.76zM86.17 395.22a22.8 22.8 0 007.56-2.8h-8.07zM34.26 372.8a5.54 5.54 0 100 .33c-.03-.13 0-.22 0-.33z" transform="translate(-5.19 -317.98)"/><path class="cls-6" d="M118.78 384.44q.55-1.69.93-3.45a38.46 38.46 0 00.91-7.86v-.5-.5a38.51 38.51 0 00-17.72-31.9l5.78-8.73-4.25-2.5-4.6 9.4a38.26 38.26 0 00-6-2.51l3.3-9.89-4.75-1.27-2 10.29a38.36 38.36 0 00-6.46-.85l.64-10.49h-4.93l.72 10.49a38.53 38.53 0 00-6.46.85l-2.1-10.32L67 326l3.42 10a38.34 38.34 0 00-6 2.5l-4.69-9.5-4.26 2.46 5.91 8.78a38.74 38.74 0 00-5.17 4l-7-7.94-3.48 3.48 8 7a38.76 38.76 0 00-4 5.16L40.89 346l-2.46 4.26 9.57 4.63a38.21 38.21 0 00-2.51 6l-10.07-3.37-1.27 4.75 10.42 2a38.5 38.5 0 00-.9 7.82v1a38.52 38.52 0 00.85 7.61l-10.4 2.12 1.27 4.75 10-3.44a38.18 38.18 0 002.48 6l-9.5 4.74 2.46 4.26 8.81-5.93a38.71 38.71 0 003.93 5.18l-7.95 7 3.48 3.48 7-8a38.83 38.83 0 005.14 4l-5.84 8.83 4.26 2.46 4.64-9.49a38.35 38.35 0 006 2.53l-3.35 10 4.75 1.27 2-10.34a38.37 38.37 0 006.45.89l-.64 10.49h4.92l-.74-10.4a38.33 38.33 0 006.47-.81l2.09 10.28L97 419.3l-3.4-9.9a38.31 38.31 0 006-2.48l4.67 9.37 4.26-2.46-5.84-8.68a38.77 38.77 0 005.2-3.94l6.93 7.83 3.48-3.48-7.87-6.86a38.8 38.8 0 004-5.16l8.7 5.76 2.46-4.26-9.36-4.58a38.3 38.3 0 002.55-6.02zm-10.21 13.35l-1.3 1.29a36.5 36.5 0 01-61.65-26v-.5-.5a36.5 36.5 0 0173 0v1a36.6 36.6 0 01-.87 7.48q-.36 1.63-.86 3.2a36.37 36.37 0 01-2.43 5.78l-1.53 2.64a36.69 36.69 0 01-4.35 5.61zM156.33 370a2.56 2.56 0 00-2.56 2.51v.05a2.57 2.57 0 102.56-2.56zM7.76 370a2.54 2.54 0 102.57 2.57v-.05A2.56 2.56 0 007.76 370z" transform="translate(-5.19 -317.98)"/><circle class="cls-6" cx="76.96" cy="54.65" r=".69"/><path class="cls-7" d="M81.26 318a54.49 54.49 0 00-53.1 41.69 1 1 0 001.94.47 52.65 52.65 0 01103.8 12h-13.27v1h13.27a52.65 52.65 0 01-103.78 12.05 1 1 0 10-1.94.48A54.66 54.66 0 1081.26 318z" transform="translate(-5.19 -317.98)"/><path class="cls-7" d="M138.14 353.34a.5.5 0 00.5.5h6v37.57h-6a.5.5 0 100 1h7v-39.57h-7a.5.5 0 00-.5.5zM24 353.84a.5.5 0 100-1h-7v19.71h-6.68v.05a2.58 2.58 0 010 .45H17v19.36h7a.5.5 0 100-1h-6v-37.57h6zM118.64 372.63v-.5h-2.77a.5.5 0 00-.36-.16.52.52 0 00-.36.16h-.53a2 2 0 01.07 1h4c-.06-.13-.05-.33-.05-.5zM45.62 372.63v.5h2.68a.5.5 0 00.21 0 .49.49 0 00.2 0h1a2 2 0 01.07-1h-4.15c0 .17-.01.33-.01.5zM34.19 372.13a5.11 5.11 0 01.07.67v.33h9.4v-.5-.5h-9.47zM54.79 372.8a2.54 2.54 0 010 .33h7.31a.49.49 0 00.3-.11v19.39h39.57v-19.28h7.67a2 2 0 01.07-1h-7.74v-19.29H62.36v19.39a.49.49 0 00-.3-.11h-7.37a2.55 2.55 0 01.1.68zm46.15 13v5.65H63.36v-18.57h8l10.8 10.8L93 372.88h8v12.88zm-21.5-13.17a2.71 2.71 0 112.71 2.71 2.71 2.71 0 01-2.71-2.71zm-16.08-9.25v-9.53h37.57v18.54H93l-10.8-10.8-10.8 10.8h-8v-9zM119.72 381q-.39 1.75-.93 3.45l9.87 3.3 1.27-4.75zM116.89 383.81q.5-1.57.86-3.2l-.86 3.2zM153.77 372.61v-.05h-7.2a.25.25 0 000 .5h7.24a2.58 2.58 0 01-.04-.45zM114 380.5a.5.5 0 00.37.6h.12a.5.5 0 00.48-.38.49.49 0 00-.37-.6.5.5 0 00-.6.38zM114.38 364a.5.5 0 00-.36.61.49.49 0 00.48.38h.12a.5.5 0 00.37-.6.51.51 0 00-.61-.39zM111.23 387.94a.49.49 0 00.21.67.52.52 0 00.23.06.51.51 0 00.45-.27.51.51 0 00-.21-.67.5.5 0 00-.68.21zM69.7 403.78a.49.49 0 00.29.64.55.55 0 00.18 0 .51.51 0 00.47-.32.52.52 0 00-.3-.65.51.51 0 00-.64.33zM106.71 394.48a.51.51 0 000 .71.5.5 0 00.33.12.48.48 0 00.37-.17.5.5 0 000-.7.5.5 0 00-.7.04zM63.19 345.5a.5.5 0 10-.69-.13.49.49 0 00.41.22.47.47 0 00.28-.09zM77.93 339.87a.5.5 0 10-.56-.44.5.5 0 00.5.44h.06zM70 341.82a.55.55 0 00.18 0 .51.51 0 00.28-.65.5.5 0 00-.93.36.51.51 0 00.47.29zM52.54 356.66a.5.5 0 00-.46.89.47.47 0 00.23.06.5.5 0 00.23-.95zM52.14 387.79a.5.5 0 00-.21.68.51.51 0 00.44.26.46.46 0 00.23-.06.5.5 0 10-.46-.88zM56.64 394.49a.48.48 0 000 .7.5.5 0 00.37.17.46.46 0 00.33-.13.5.5 0 10-.7-.74zM49.38 380.21a.49.49 0 00-.37.6.5.5 0 00.49.38h.12a.51.51 0 00.36-.61.49.49 0 00-.6-.37zM49.58 364.17a.5.5 0 00-.6.37.49.49 0 00.37.6h.11a.5.5 0 00.12-.97zM62.61 399.91a.49.49 0 00.12.69.46.46 0 00.28.08.49.49 0 00.41-.21.5.5 0 10-.81-.56zM57.26 350.79a.51.51 0 000-.71.5.5 0 00-.71 0 .51.51 0 000 .71.54.54 0 00.33.12.51.51 0 00.38-.12zM111.38 356.49a.5.5 0 00-.21.68.49.49 0 00.44.26.46.46 0 00.23-.06.5.5 0 00-.46-.88zM107.33 350.69a.5.5 0 00-.66-.75.5.5 0 000 .71.47.47 0 00.37.16.5.5 0 00.29-.12zM93.78 341.75a.48.48 0 00.47-.33.5.5 0 00-.29-.64.49.49 0 00-.64.29.5.5 0 00.29.65zM77.51 405.81a.52.52 0 00.44.56H78a.5.5 0 00.06-1 .5.5 0 00-.55.44zM101.35 345.25a.5.5 0 10-.69.13.47.47 0 00.28.09.49.49 0 00.41-.22zM85.94 339.85a.5.5 0 00.49-.44.5.5 0 10-.55.43h.06zM100.77 399.75a.49.49 0 00-.13.69.5.5 0 00.41.22.52.52 0 00.29-.09.51.51 0 00.12-.7.49.49 0 00-.69-.12zM85.58 405.91a.51.51 0 00.5.44h.06a.5.5 0 00-.12-1 .51.51 0 00-.44.56zM93.74 403.46a.5.5 0 00.17 1 .39.39 0 00.18 0 .49.49 0 00.29-.64.5.5 0 00-.64-.36z" transform="translate(-5.19 -317.98)"/></svg>