<svg preserveAspectRatio="none" id="Layer_1" data-name="Layer 1" xmlns="http://www.w3.org/2000/svg" viewBox="0 0 119.01 119.28"><defs><style>.cls-1{fill:#2f99e0;}.cls-2{fill:#154666;}.cls-3{fill:#5cdeff;}</style></defs><title>circle113</title><rect class="cls-1" x="251.46" y="59.59" width="2.41" height="2.41" transform="translate(-137.29 170.11) rotate(-45)"/><rect class="cls-2" x="254.38" y="56.67" width="2.41" height="2.41" transform="translate(-52.52 -190.13) rotate(45)"/><rect class="cls-2" x="257.3" y="53.74" width="2.41" height="2.41" transform="translate(-53.74 -193.05) rotate(45)"/><rect class="cls-2" x="260.22" y="50.82" width="2.41" height="2.41" transform="translate(-54.94 -195.97) rotate(45)"/><rect class="cls-2" x="263.15" y="47.9" width="2.41" height="2.41" transform="translate(-56.16 -198.89) rotate(45)"/><rect class="cls-2" x="189.59" y="121.46" width="2.41" height="2.41" transform="translate(-25.69 -125.33) rotate(45)"/><rect class="cls-2" x="192.51" y="118.54" width="2.41" height="2.41" transform="translate(-26.89 -128.26) rotate(45)"/><rect class="cls-2" x="195.43" y="115.61" width="2.41" height="2.41" transform="translate(-28.11 -131.18) rotate(45)"/><rect class="cls-1" x="198.35" y="112.69" width="2.41" height="2.41" transform="translate(-190.4 148.12) rotate(-45)"/><rect class="cls-1" x="201.27" y="109.77" width="2.41" height="2.41" transform="translate(-187.47 149.33) rotate(-45)"/><rect class="cls-1" x="257.12" y="66.92" width="2.41" height="2.41" transform="translate(-167.76 111.93) rotate(-30)"/><rect class="cls-1" x="260.7" y="64.85" width="2.41" height="2.41" transform="matrix(0.87, -0.5, 0.5, 0.87, -166.25, 113.46)"/><rect class="cls-2" x="264.28" y="62.78" width="2.41" height="2.41" transform="translate(19.84 -224.27) rotate(60)"/><rect class="cls-2" x="267.85" y="60.72" width="2.41" height="2.41" transform="translate(19.85 -228.4) rotate(60)"/><rect class="cls-2" x="271.43" y="58.65" width="2.41" height="2.41" transform="translate(19.85 -232.54) rotate(60)"/><rect class="cls-2" x="181.34" y="110.67" width="2.41" height="2.41" transform="translate(19.85 -128.51) rotate(60)"/><rect class="cls-2" x="184.92" y="108.6" width="2.41" height="2.41" transform="translate(19.84 -132.64) rotate(60)"/><rect class="cls-1" x="188.5" y="106.53" width="2.41" height="2.41" transform="translate(-196.76 82.94) rotate(-30)"/><rect class="cls-1" x="192.08" y="104.47" width="2.41" height="2.41" transform="translate(-195.25 84.45) rotate(-30)"/><rect class="cls-1" x="195.66" y="102.4" width="2.41" height="2.41" transform="translate(-193.74 85.96) rotate(-30)"/><rect class="cls-1" x="260.69" y="75.46" width="2.41" height="2.41" transform="translate(-179.23 44.04) rotate(-15)"/><rect class="cls-1" x="264.68" y="74.39" width="2.41" height="2.41" transform="translate(-178.81 45.04) rotate(-15)"/><rect class="cls-1" x="268.67" y="73.32" width="2.41" height="2.41" transform="translate(-178.4 46.03) rotate(-15)"/><rect class="cls-1" x="272.66" y="72.25" width="2.41" height="2.41" transform="translate(-177.99 47.03) rotate(-15)"/><rect class="cls-2" x="276.66" y="71.18" width="2.41" height="2.41" transform="translate(107.56 -241.09) rotate(75)"/><rect class="cls-2" x="176.17" y="98.11" width="2.41" height="2.41" transform="translate(59.09 -124.08) rotate(75)"/><rect class="cls-2" x="180.16" y="97.04" width="2.41" height="2.41" transform="matrix(0.26, 0.97, -0.97, 0.26, 61.01, -128.72)"/><rect class="cls-2" x="184.16" y="95.97" width="2.41" height="2.41" transform="translate(62.93 -133.37) rotate(75)"/><rect class="cls-2" x="188.15" y="94.9" width="2.41" height="2.41" transform="translate(64.87 -138.02) rotate(75)"/><rect class="cls-1" x="192.14" y="93.83" width="2.41" height="2.41" transform="translate(-186.32 26.93) rotate(-15)"/><rect class="cls-1" x="93.62" y="58.29" width="2.41" height="2.41"/><rect class="cls-1" x="97.75" y="58.29" width="2.41" height="2.41"/><rect class="cls-2" x="270.19" y="84.64" width="2.41" height="2.41" transform="translate(188.93 -211.91) rotate(90)"/><rect class="cls-2" x="274.32" y="84.64" width="2.41" height="2.41" transform="translate(193.06 -216.04) rotate(90)"/><rect class="cls-2" x="278.46" y="84.64" width="2.41" height="2.41" transform="translate(197.2 -220.17) rotate(90)"/><rect class="cls-2" x="174.43" y="84.64" width="2.41" height="2.41" transform="translate(93.17 -116.14) rotate(90)"/><rect class="cls-2" x="178.56" y="84.64" width="2.41" height="2.41" transform="translate(97.3 -120.28) rotate(90)"/><rect class="cls-1" x="14.39" y="58.29" width="2.41" height="2.41"/><rect class="cls-1" x="18.52" y="58.29" width="2.41" height="2.41"/><rect class="cls-1" x="22.65" y="58.29" width="2.41" height="2.41"/><rect class="cls-1" x="260.75" y="93.82" width="2.41" height="2.41" transform="translate(-65.94 297.11) rotate(-75)"/><rect class="cls-1" x="264.74" y="94.89" width="2.41" height="2.41" transform="translate(-64.02 301.75) rotate(-75)"/><rect class="cls-1" x="268.73" y="95.96" width="2.41" height="2.41" transform="translate(-62.09 306.41) rotate(-75)"/><rect class="cls-2" x="272.72" y="97.03" width="2.41" height="2.41" transform="matrix(-0.26, 0.97, -0.97, -0.26, 271.4, -167.29)"/><rect class="cls-2" x="276.71" y="98.1" width="2.41" height="2.41" transform="translate(277.46 -169.8) rotate(105)"/><rect class="cls-2" x="176.23" y="71.17" width="2.41" height="2.41" transform="matrix(-0.26, 0.97, -0.97, -0.26, 124.97, -106.63)"/><rect class="cls-2" x="180.22" y="72.24" width="2.41" height="2.41" transform="translate(131.03 -109.13) rotate(105)"/><rect class="cls-2" x="184.21" y="73.31" width="2.41" height="2.41" transform="translate(137.08 -111.65) rotate(105)"/><rect class="cls-2" x="188.21" y="74.38" width="2.41" height="2.41" transform="matrix(-0.26, 0.97, -0.97, -0.26, 143.14, -114.16)"/><rect class="cls-1" x="192.2" y="75.45" width="2.41" height="2.41" transform="translate(-99.01 217.28) rotate(-75)"/><rect class="cls-1" x="257.23" y="102.39" width="2.41" height="2.41" transform="translate(-128.8 249.26) rotate(-60)"/><rect class="cls-2" x="260.81" y="104.45" width="2.41" height="2.41" transform="translate(316.23 -94.77) rotate(120)"/><rect class="cls-2" x="264.39" y="106.52" width="2.41" height="2.41" transform="translate(323.38 -94.78) rotate(120)"/><rect class="cls-2" x="267.97" y="108.59" width="2.41" height="2.41" transform="translate(330.53 -94.78) rotate(120)"/><rect class="cls-2" x="271.55" y="110.65" width="2.41" height="2.41" transform="translate(337.69 -94.77) rotate(120)"/><rect class="cls-2" x="181.46" y="58.64" width="2.41" height="2.41" transform="translate(157.51 -94.77) rotate(120)"/><rect class="cls-2" x="185.04" y="60.7" width="2.41" height="2.41" transform="translate(164.67 -94.77) rotate(120)"/><rect class="cls-2" x="188.61" y="62.77" width="2.41" height="2.41" transform="translate(171.82 -94.78) rotate(120)"/><rect class="cls-1" x="192.19" y="64.84" width="2.41" height="2.41" transform="translate(-128.8 174.16) rotate(-60)"/><rect class="cls-1" x="195.77" y="66.9" width="2.41" height="2.41" transform="translate(-128.8 178.29) rotate(-60)"/><rect class="cls-1" x="251.62" y="109.75" width="2.41" height="2.41" transform="translate(-172.71 184.93) rotate(-45)"/><rect class="cls-1" x="254.54" y="112.67" width="2.41" height="2.41" transform="translate(-173.93 187.84) rotate(-45)"/><rect class="cls-1" x="257.46" y="115.6" width="2.41" height="2.41" transform="translate(-175.14 190.77) rotate(-45)"/><rect class="cls-1" x="260.39" y="118.52" width="2.41" height="2.41" transform="translate(-176.35 193.69) rotate(-45)"/><rect class="cls-1" x="263.31" y="121.44" width="2.41" height="2.41" transform="translate(-177.56 196.61) rotate(-45)"/><rect class="cls-2" x="189.75" y="47.88" width="2.41" height="2.41" transform="translate(192.38 -77.59) rotate(135)"/><rect class="cls-1" x="192.67" y="50.8" width="2.41" height="2.41" transform="translate(-148.3 125.97) rotate(-45)"/><rect class="cls-1" x="195.59" y="53.73" width="2.41" height="2.41" transform="translate(-149.51 128.9) rotate(-45)"/><rect class="cls-1" x="198.51" y="56.65" width="2.41" height="2.41" transform="translate(-150.72 131.82) rotate(-45)"/><rect class="cls-1" x="201.44" y="59.57" width="2.41" height="2.41" transform="translate(-151.93 134.74) rotate(-45)"/><rect class="cls-1" x="244.29" y="115.41" width="2.41" height="2.41" transform="translate(-193.73 112.02) rotate(-30)"/><rect class="cls-1" x="246.36" y="118.99" width="2.41" height="2.41" transform="translate(-195.24 113.54) rotate(-30)"/><rect class="cls-2" x="248.42" y="122.57" width="2.41" height="2.41" transform="translate(359.39 79.79) rotate(150)"/><rect class="cls-2" x="250.49" y="126.15" width="2.41" height="2.41" transform="translate(365.04 85.45) rotate(150)"/><rect class="cls-2" x="252.56" y="129.73" width="2.41" height="2.41" transform="translate(370.68 91.1) rotate(150)"/><rect class="cls-2" x="200.54" y="39.64" width="2.41" height="2.41" transform="translate(228.58 -51.01) rotate(150)"/><rect class="cls-2" x="202.61" y="43.22" width="2.41" height="2.41" transform="translate(234.22 -45.38) rotate(150)"/><rect class="cls-2" x="204.67" y="46.79" width="2.41" height="2.41" transform="translate(239.87 -39.72) rotate(150)"/><rect class="cls-1" x="206.74" y="50.37" width="2.41" height="2.41" transform="translate(-166.24 84.53) rotate(-30)"/><rect class="cls-1" x="208.81" y="53.95" width="2.41" height="2.41" transform="translate(-167.75 86.05) rotate(-30)"/><rect class="cls-1" x="235.75" y="118.98" width="2.41" height="2.41" transform="matrix(0.97, -0.26, 0.26, 0.97, -191.34, 39.07)"/><rect class="cls-1" x="236.82" y="122.98" width="2.41" height="2.41" transform="matrix(0.97, -0.26, 0.26, 0.97, -192.34, 39.48)"/><rect class="cls-1" x="237.89" y="126.97" width="2.41" height="2.41" transform="translate(-193.34 39.91) rotate(-15)"/><rect class="cls-2" x="238.96" y="130.96" width="2.41" height="2.41" transform="translate(338.04 171.32) rotate(165)"/><rect class="cls-2" x="240.03" y="134.95" width="2.41" height="2.41" transform="translate(341.17 178.89) rotate(165)"/><rect class="cls-2" x="213.1" y="34.47" width="2.41" height="2.41" transform="translate(262.24 -11.69) rotate(165)"/><rect class="cls-2" x="214.17" y="38.46" width="2.41" height="2.41" transform="translate(265.37 -4.12) rotate(165)"/><rect class="cls-2" x="215.24" y="42.45" width="2.41" height="2.41" transform="matrix(-0.97, 0.26, -0.26, -0.97, 268.51, 3.45)"/><rect class="cls-2" x="216.31" y="46.44" width="2.41" height="2.41" transform="translate(271.64 11.02) rotate(165)"/><rect class="cls-1" x="217.38" y="50.43" width="2.41" height="2.41" transform="matrix(0.97, -0.26, 0.26, 0.97, -174.22, 31.98)"/><rect class="cls-1" x="58.26" y="93.87" width="2.41" height="2.41"/><rect class="cls-2" x="226.57" y="124.35" width="2.41" height="2.41" transform="translate(287.24 224.77) rotate(180)"/><rect class="cls-2" x="226.57" y="128.49" width="2.41" height="2.41" transform="translate(287.24 233.03) rotate(180)"/><rect class="cls-2" x="226.57" y="132.62" width="2.41" height="2.41" transform="translate(287.24 241.3) rotate(180)"/><rect class="cls-2" x="226.57" y="136.75" width="2.41" height="2.41" transform="translate(287.24 249.56) rotate(180)"/><rect class="cls-2" x="226.57" y="32.72" width="2.41" height="2.41" transform="translate(287.24 41.51) rotate(180)"/><rect class="cls-2" x="226.57" y="36.86" width="2.41" height="2.41" transform="translate(287.24 49.77) rotate(180)"/><rect class="cls-1" x="58.26" y="14.64" width="2.41" height="2.41"/><rect class="cls-1" x="58.26" y="18.77" width="2.41" height="2.41"/><rect class="cls-1" x="58.26" y="22.9" width="2.41" height="2.41"/><rect class="cls-1" x="217.39" y="119.04" width="2.41" height="2.41" transform="translate(-122.44 273.92) rotate(-75)"/><rect class="cls-1" x="216.32" y="123.03" width="2.41" height="2.41" transform="translate(-127.1 275.84) rotate(-75)"/><rect class="cls-1" x="215.25" y="127.03" width="2.41" height="2.41" transform="matrix(0.26, -0.97, 0.97, 0.26, -131.74, 277.77)"/><rect class="cls-2" x="214.18" y="131.02" width="2.41" height="2.41" transform="translate(220.9 289.33) rotate(-165)"/><rect class="cls-2" x="213.11" y="135.01" width="2.41" height="2.41" transform="translate(217.76 296.91) rotate(-165)"/><rect class="cls-2" x="240.03" y="34.53" width="2.41" height="2.41" transform="translate(296.7 106.33) rotate(-165)"/><rect class="cls-2" x="238.96" y="38.52" width="2.41" height="2.41" transform="translate(293.56 113.91) rotate(-165)"/><rect class="cls-2" x="237.89" y="42.51" width="2.41" height="2.41" transform="translate(290.43 121.47) rotate(-165)"/><rect class="cls-1" x="236.82" y="46.5" width="2.41" height="2.41" transform="translate(-37.96 238.93) rotate(-75)"/><rect class="cls-1" x="235.75" y="50.49" width="2.41" height="2.41" transform="translate(-42.61 240.85) rotate(-75)"/><rect class="cls-1" x="208.82" y="115.53" width="2.41" height="2.41" transform="translate(-164.39 213.91) rotate(-60)"/><rect class="cls-1" x="206.75" y="119.11" width="2.41" height="2.41" transform="translate(-168.52 213.9) rotate(-60)"/><rect class="cls-1" x="204.69" y="122.68" width="2.41" height="2.41" transform="translate(-172.65 213.9) rotate(-60)"/><rect class="cls-1" x="202.62" y="126.26" width="2.41" height="2.41" transform="translate(-176.78 213.91) rotate(-60)"/><rect class="cls-2" x="200.55" y="129.84" width="2.41" height="2.41" transform="translate(142.66 319.07) rotate(-150)"/><rect class="cls-2" x="252.57" y="39.75" width="2.41" height="2.41" transform="translate(284.77 176.96) rotate(-150)"/><rect class="cls-1" x="250.5" y="43.33" width="2.41" height="2.41" transform="translate(-81.03 213.9) rotate(-60)"/><rect class="cls-1" x="248.44" y="46.91" width="2.41" height="2.41" transform="translate(-85.15 213.9) rotate(-60)"/><rect class="cls-1" x="246.37" y="50.49" width="2.41" height="2.41" transform="translate(-89.29 213.9) rotate(-60)"/><rect class="cls-1" x="244.3" y="54.07" width="2.41" height="2.41" transform="translate(-93.42 213.9) rotate(-60)"/><path class="cls-2" d="M227.64,142a56.08,56.08,0,1,1,39.66-16.43h0A55.71,55.71,0,0,1,227.64,142Zm0-111.66a55.58,55.58,0,1,0,39.3,16.28A55.22,55.22,0,0,0,227.64,30.38Z" transform="translate(-168.31 -26.35)"/><path class="cls-2" d="M207.08,106.52A29.08,29.08,0,0,1,248.2,65.4l-0.35.35a28.58,28.58,0,0,0-40.41,40.41Z" transform="translate(-168.31 -26.35)"/><path class="cls-3" d="M287.25,88.82l-0.75,0a59.28,59.28,0,0,0-1-14.08,58.63,58.63,0,0,0-16.18-30.41l0.53-.53a59.38,59.38,0,0,1,16.39,30.8A60.11,60.11,0,0,1,287.25,88.82Z" transform="translate(-168.31 -26.35)"/><path class="cls-3" d="M259.79,36.56a58.84,58.84,0,0,0-29.23-9.46l0-.75a59.59,59.59,0,0,1,29.61,9.58Z" transform="translate(-168.31 -26.35)"/><path class="cls-3" d="M186,44.29l-0.53-.53A59.27,59.27,0,0,1,217.73,27.1l0.12,0.74A58.53,58.53,0,0,0,186,44.29Z" transform="translate(-168.31 -26.35)"/><path class="cls-3" d="M185.44,128.16a59.82,59.82,0,0,1-17.14-35.79l0.75-.08A59.07,59.07,0,0,0,186,127.63Z" transform="translate(-168.31 -26.35)"/><path class="cls-3" d="M217.19,144.72a59.54,59.54,0,0,1-15-4.77l0.32-.68A58.78,58.78,0,0,0,217.32,144Z" transform="translate(-168.31 -26.35)"/><path class="cls-3" d="M227.66,145.63v-0.75a58.87,58.87,0,0,0,30.28-8.37l0.39,0.64A59.62,59.62,0,0,1,227.66,145.63Z" transform="translate(-168.31 -26.35)"/><path class="cls-3" d="M269.84,128.16l-0.53-.53a58.83,58.83,0,0,0,15.53-27.47l0.73,0.18A59.59,59.59,0,0,1,269.84,128.16Z" transform="translate(-168.31 -26.35)"/><path class="cls-3" d="M227.64,111.33a25.31,25.31,0,0,1-18-7.42l0.53-.53a24.64,24.64,0,1,0,0-34.84L209.69,68A25.39,25.39,0,1,1,227.64,111.33Z" transform="translate(-168.31 -26.35)"/></svg>