<svg preserveAspectRatio="none" id="Layer_2" data-name="Layer 2" xmlns="http://www.w3.org/2000/svg" viewBox="0 0 335.01 353.28"><defs><style>.cls-1{fill:#3fa9f5}.cls-4{opacity:.3}.cls-6{opacity:.1}.cls-9{opacity:.5}</style></defs><path class="cls-1" d="M273.38 274.8l9.19 9.19a108.5 108.5 0 000 152l-9.19 9.19a121.5 121.5 0 010-170.41zm0-1.42a122.5 122.5 0 000 173.24L284 436a107.5 107.5 0 010-152l-10.61-10.61zM446.62 274.8a121.5 121.5 0 010 170.41l-9.2-9.21a108.5 108.5 0 000-152l9.19-9.19zm0-1.42L436 284a107.5 107.5 0 010 152l10.61 10.61a122.5 122.5 0 000-173.24z" transform="translate(-198.01 -178.75)"/><path class="cls-1" d="M439.55 280.45a112.5 112.5 0 00-159.1 0l-3.54-3.54a117.5 117.5 0 01166.17 0zM360 477.5a116.73 116.73 0 01-83.08-34.42l3.54-3.54a112.5 112.5 0 00159.1 0l3.54 3.54A116.73 116.73 0 01360 477.5z" transform="translate(-198.01 -178.75)"/><g opacity=".7"><path class="cls-1" transform="rotate(-45 -30.438 585.308)" d="M283.84 435.16h1v1h-1z"/><path class="cls-1" d="M286.45 434.25l-.71-.71 1.41-1.41.71.71zm2.81-2.81l-.71-.71 1.41-1.41.71.71zm2.81-2.82l-.71-.71 1.41-1.41.71.71zm2.81-2.81l-.71-.71 1.41-1.41.71.71zm2.81-2.81l-.71-.71 1.41-1.41.71.71zm2.81-2.81l-.71-.71 1.41-1.41.71.71zm2.81-2.82l-.71-.71 1.41-1.41.71.71zm2.81-2.81l-.71-.71 1.41-1.41.71.71zm2.81-2.81l-.71-.71 1.41-1.41.71.71zm2.81-2.82l-.71-.71 1.41-1.41.71.71zm2.81-2.81l-.71-.71 1.46-1.41.7.7zm2.81-2.81l-.71-.71 1.41-1.41.71.71zm2.81-2.81l-.71-.71 1.41-1.41.71.71zm2.81-2.82l-.71-.71 1.41-1.41.71.71zm2.81-2.81l-.71-.71 1.41-1.41.71.71zm2.81-2.81l-.71-.71 1.41-1.41.71.71zm2.81-2.82l-.71-.71 1.41-1.41.71.71zm2.81-2.81l-.71-.71 1.41-1.41.71.71zm2.81-2.81l-.71-.71 1.41-1.41.71.71zm2.81-2.82l-.71-.71 1.41-1.41.71.71zm2.81-2.81l-.71-.71 1.41-1.41.71.71zm2.81-2.81l-.71-.71 1.41-1.41.71.71zm2.81-2.81l-.71-.71 1.41-1.41.71.71zm2.81-2.82l-.71-.71 1.41-1.41.71.71zm2.92-2.85l-.7-.7 1.41-1.41.71.71zm2.81-2.81l-.71-.71 1.41-1.41.71.71zm2.81-2.81l-.71-.71 1.41-1.41.71.71zm2.81-2.82l-.71-.71 1.41-1.41.71.71zm2.81-2.81l-.71-.71 1.41-1.41.71.71zm2.81-2.81l-.71-.71 1.41-1.41.71.71zm2.82-2.81l-.71-.71 1.41-1.41.71.71zm2.81-2.81l-.71-.71 1.41-1.41.71.71zm2.81-2.81l-.71-.71 1.41-1.41.71.71zm2.82-2.81l-.71-.71 1.41-1.41.71.71zm2.81-2.81l-.71-.71 1.41-1.41.71.71zm2.81-2.81l-.71-.71 1.41-1.41.71.71zm2.82-2.81l-.71-.71 1.41-1.41.71.71zm2.81-2.81l-.71-.71 1.45-1.45.7.7zm2.81-2.81l-.71-.71 1.41-1.41.71.71zm2.81-2.81l-.71-.71 1.41-1.41.71.71zm2.82-2.81l-.71-.71 1.41-1.41.71.71zm2.81-2.81l-.71-.71 1.41-1.41.71.71zm2.81-2.81l-.71-.71 1.41-1.41.71.71zm2.82-2.81l-.71-.71 1.41-1.41.71.71zm2.81-2.81l-.71-.71 1.41-1.41.71.71zm2.81-2.81l-.71-.71 1.41-1.41.71.71zm2.82-2.81l-.71-.71 1.41-1.41.71.71zm2.81-2.81l-.71-.71 1.41-1.41.71.71zm2.81-2.81l-.71-.71 1.41-1.41.71.71zm2.81-2.81l-.71-.71 1.41-1.41.71.71zm2.82-2.81l-.71-.71 1.41-1.41.71.71zm2.87-2.93l-.7-.7 1.41-1.41.71.71zm2.81-2.81l-.71-.71 1.41-1.41.71.71z" transform="translate(-198.01 -178.75)"/><path class="cls-1" transform="rotate(-45 120.857 434.02)" d="M435.13 283.87h1v1h-1z"/><path class="cls-1" transform="rotate(-45 -30.4 434.002)" d="M283.84 283.84h1v1h-1z"/><path class="cls-1" d="M433.68 434.39l-1.41-1.39.71-.71 1.41 1.41zm-2.82-2.82l-1.41-1.41.71-.71 1.41 1.41zm-2.86-2.82l-1.41-1.41.71-.71 1.41 1.41zm-2.82-2.82l-1.41-1.41.71-.71 1.41 1.41zm-2.82-2.82l-1.36-1.4.71-.71 1.41 1.41zm-2.82-2.82l-1.41-1.41.71-.71 1.41 1.41zm-2.82-2.82l-1.41-1.41.71-.71 1.41 1.41zm-2.72-2.81l-1.41-1.41.71-.71 1.41 1.41zm-2.82-2.82l-1.41-1.41.71-.71 1.41 1.41zm-2.86-2.84l-1.41-1.41.71-.71 1.41 1.41zm-2.82-2.82l-1.41-1.41.71-.71 1.41 1.41zm-2.82-2.82l-1.4-1.36.71-.71 1.41 1.41zm-2.82-2.82l-1.41-1.41.71-.71 1.41 1.41zm-2.86-2.78l-1.41-1.41.71-.71 1.41 1.41zm-2.82-2.82l-1.41-1.41.71-.71 1.41 1.41zm-2.82-2.82l-1.36-1.41.71-.71 1.41 1.41zm-2.82-2.82l-1.41-1.41.71-.71 1.41 1.41zm-2.82-2.82l-1.41-1.41.71-.71 1.41 1.41zm-2.72-2.81l-1.41-1.41.71-.71 1.41 1.41zm-2.82-2.82l-1.41-1.41.71-.71 1.41 1.41zm-2.85-2.85l-1.41-1.41.71-.71 1.41 1.41zm-2.82-2.82l-1.41-1.41.71-.71 1.41 1.41zm-2.82-2.82l-1.41-1.36.71-.71 1.41 1.41zm-2.82-2.82l-1.41-1.41.71-.71 1.41 1.41zm-2.82-2.82l-1.41-1.41.71-.71 1.41 1.41zm-2.82-2.82l-1.41-1.41.71-.71 1.41 1.41zm-2.82-2.82l-1.41-1.36.71-.71 1.41 1.41zm-2.82-2.82l-1.41-1.41.71-.71 1.41 1.41zm-2.82-2.82l-1.41-1.41.71-.71 1.41 1.41zm-2.77-2.77l-1.41-1.41.71-.71 1.41 1.41zm-2.82-2.82l-1.41-1.41.71-.71 1.41 1.41zm-2.85-2.85l-1.41-1.41.71-.71 1.41 1.41zm-2.82-2.82l-1.41-1.41.71-.71 1.41 1.41zm-2.82-2.82l-1.4-1.36.71-.71 1.41 1.41zm-2.82-2.82l-1.41-1.41.71-.71 1.41 1.41zm-2.82-2.82l-1.41-1.41.71-.71 1.41 1.41zm-2.82-2.82l-1.41-1.41.71-.71 1.41 1.41zm-2.82-2.82l-1.41-1.36.71-.71 1.41 1.41zm-2.82-2.82l-1.41-1.41.71-.71 1.41 1.41zm-2.82-2.82l-1.41-1.41.71-.71 1.41 1.41zm-2.77-2.76l-1.41-1.41.71-.71 1.41 1.41zm-2.82-2.82l-1.41-1.41.71-.71 1.41 1.41zm-2.85-2.86l-1.41-1.41.71-.71 1.41 1.41zm-2.82-2.82l-1.41-1.41.71-.71 1.41 1.41zm-2.82-2.82l-1.4-1.36.71-.71 1.41 1.41zm-2.82-2.82l-1.41-1.41.71-.71 1.41 1.41zm-2.82-2.82l-1.41-1.41.71-.71 1.41 1.41zm-2.8-2.72l-1.41-1.41.71-.71 1.41 1.41zm-2.82-2.82l-1.43-1.45.71-.71 1.41 1.41zm-2.82-2.82l-1.41-1.41.71-.71 1.41 1.41zm-2.82-2.82l-1.41-1.41.71-.71 1.41 1.41zm-2.79-2.86l-1.41-1.41.71-.71 1.41 1.41zm-2.82-2.82l-1.41-1.41.71-.71 1.41 1.41z" transform="translate(-198.01 -178.75)"/><path class="cls-1" transform="rotate(-45 121.07 585.471)" d="M435.3 435.3h1v1h-1z"/></g><g opacity=".45"><path class="cls-1" d="M292.83 294.24a94 94 0 000 131.52l14.5-14.5a73.51 73.51 0 010-102.52l-14.5-14.5zM427.17 294.24l-14.5 14.5a73.52 73.52 0 010 102.53l14.5 14.5a94 94 0 000-131.52z" transform="translate(-198.01 -178.75)"/></g><g class="cls-4"><path class="cls-1" d="M308.74 310.15a71.51 71.51 0 000 99.7l14.5-14.5a51 51 0 010-70.7l-14.5-14.5zM411.26 310.15l-14.5 14.5a51 51 0 010 70.7l14.5 14.5a71.52 71.52 0 000-99.7z" transform="translate(-198.01 -178.75)"/></g><g opacity=".2"><path class="cls-1" d="M395.35 326.06l-14.5 14.5a28.51 28.51 0 010 38.87l14.5 14.5a49 49 0 000-67.87zM324.65 326.07a49 49 0 000 67.87l14.5-14.5a28.51 28.51 0 010-38.87l-14.5-14.5z" transform="translate(-198.01 -178.75)"/></g><g class="cls-6"><path class="cls-1" d="M379.43 342l-18 18 18 18a26.51 26.51 0 000-36z" transform="translate(-198.01 -178.75)"/></g><g class="cls-6"><path class="cls-1" d="M340.57 342a26.51 26.51 0 000 36l18-18-18-18z" transform="translate(-198.01 -178.75)"/></g><circle cx="161.99" cy="181.25" r="4" opacity=".7" fill="#3fa9f5"/><circle cx="161.99" cy="181.25" r="27.13" opacity=".5" fill="none" stroke="#3fa9f5" stroke-miterlimit="10"/><path class="cls-1" d="M19.99 181.25h13v1h-13zM290.99 181.25h13v1h-13z"/><path class="cls-1" transform="rotate(-82.5 24.408 366.57)" d="M225.16 336.31h1v13h-1z"/><path class="cls-1" transform="rotate(-82.5 293.45 401.704)" d="M493.84 371.69h1v13h-1z"/><path class="cls-1" transform="rotate(-75 13.656 365.092)" d="M228.62 318.93h1v13h-1z"/><path class="cls-1" d="M299.02 218.99l-12.56-3.37.26-.97 12.56 3.37-.26.97z"/><path class="cls-1" transform="rotate(-67.5 2.074 367.451)" d="M234.31 302.15h1v13h-1z"/><path class="cls-1" transform="rotate(-67.5 252.453 471.158)" d="M484.69 405.85h1v13h-1z"/><path class="cls-1" transform="rotate(-60 -11.126 374.87)" d="M242.15 286.25h1v13h-1z"/><path class="cls-1" transform="rotate(-60 223.572 510.362)" d="M476.85 421.75h1v13h-1z"/><path class="cls-1" transform="rotate(-52.5 -27.723 389.415)" d="M252 271.51h1v13h-1z"/><path class="cls-1" transform="rotate(-52.5 187.315 554.4)" d="M467 436.49h1v13h-1z"/><path class="cls-1" transform="rotate(-45 -50.401 414.517)" d="M263.85 258.12h1v13.48h-1z"/><path class="cls-1" transform="rotate(-45.01 140.787 605.635)" d="M455.07 449.22h1v13.7h-1z"/><path class="cls-1" transform="rotate(-45 140.88 414.496)" d="M448.94 264.34h13.44v1h-13.44z"/><path class="cls-1" transform="rotate(-45 -50.371 605.675)" d="M257.58 455.56h13.72v1h-13.72z"/><path class="cls-1" transform="rotate(-37.54 105.531 479.97)" d="M461 277.51h13v1h-13z"/><path class="cls-1" transform="rotate(-37.49 -109.864 645.373)" d="M246 442.49h13v1h-13z"/><path class="cls-1" transform="rotate(-29.99 44.768 573.04)" d="M470.85 292.25h13v1h-13z"/><path class="cls-1" transform="rotate(-30.02 -189.623 708.156)" d="M236.15 427.75h13v1h-13z"/><path class="cls-1" transform="rotate(-22.51 -62.998 716.767)" d="M478.69 308.15h13v1h-13z"/><path class="cls-1" transform="rotate(-22.51 -313.334 820.458)" d="M228.31 411.85h13v1h-13z"/><path class="cls-1" transform="rotate(-15.06 -284.38 985)" d="M484.38 324.93h13v1h-13z"/><path class="cls-1" transform="rotate(-15 -546.568 1053.058)" d="M222.62 395.07h13v1h-13z"/><path class="cls-1" transform="rotate(-7.52 -964.802 1759.823)" d="M487.84 342.31h13v1h-13z"/><path class="cls-1" transform="rotate(-7.52 -1233.488 1795.117)" d="M219.16 377.69h13v1h-13z"/><path class="cls-1" d="M290.99 181.25h13v1h-13zM19.99 181.25h13v1h-13z"/><path class="cls-1" d="M23.98 181.25h9v1h-9zM290.99 181.25h9v1h-9z"/><path class="cls-1" transform="rotate(-86.26 32.363 368.086)" d="M226.28 347.27h1v9h-1z"/><path class="cls-1" transform="rotate(-86.24 298.765 385.583)" d="M492.71 364.73h1v9h-1z"/><path class="cls-1" transform="rotate(-82.5 26.404 366.84)" d="M227.14 338.57h1v9h-1z"/><path class="cls-1" transform="rotate(-82.49 291.428 401.462)" d="M491.86 373.43h1v9h-1z"/><path class="cls-1" transform="rotate(-78.76 21.153 365.694)" d="M228.56 329.95h1v9h-1z"/><path class="cls-1" transform="rotate(-78.74 283 417.834)" d="M490.43 382.05h1v9h-1z"/><path class="cls-1" transform="rotate(-75 15.543 364.08)" d="M230.55 321.45h1v9h-1z"/><path class="cls-1" transform="rotate(-74.99 273.453 434.725)" d="M488.45 390.55h1v9h-1z"/><path class="cls-1" transform="rotate(-71.26 9.852 366.348)" d="M233.08 313.09h1v9h-1z"/><path class="cls-1" transform="rotate(-71.24 262.673 452.231)" d="M485.91 398.91h1v9h-1z"/><path class="cls-1" transform="rotate(-67.51 3.895 368.177)" d="M236.16 304.91h1v9h-1z"/><path class="cls-1" transform="rotate(-67.49 250.568 470.42)" d="M482.84 407.09h1v9h-1z"/><path class="cls-1" transform="rotate(-63.75 -2.44 371.3)" d="M239.77 296.95h1v9h-1z"/><path class="cls-1" transform="rotate(-63.75 236.962 489.385)" d="M479.23 415.05h1v9h-1z"/><path class="cls-1" transform="rotate(-60.01 -9.425 375.813)" d="M243.88 289.25h1v9h-1z"/><path class="cls-1" transform="matrix(.5 -.87 .87 .5 -330.23 446.72)" d="M475.11 422.75h1v9h-1z"/><path class="cls-1" transform="rotate(-56.25 -17.194 382.189)" d="M248.5 281.83h1v9h-1z"/><path class="cls-1" d="M276.45 258.83l-7.48-4.99.55-.84 7.49 5-.56.83z"/><path class="cls-1" transform="rotate(-52.5 -26.119 390.635)" d="M253.59 274.73h1v9h-1z"/><path class="cls-1" transform="rotate(-52.49 185.686 553.222)" d="M465.41 437.27h1v9h-1z"/><path class="cls-1" transform="rotate(-48.75 -36.622 401.62)" d="M259.13 267.98h1v9h-1z"/><path class="cls-1" transform="rotate(-48.75 164.077 577.654)" d="M459.87 444.02h1v9h-1z"/><path class="cls-1" d="M268.6 451.91a129.14 129.14 0 01-.41-182.76l.7.71a128.14 128.14 0 00.41 181.34zM451.42 451.92l-.7-.71a128.18 128.18 0 00.4-181.36l.7-.71a129.17 129.17 0 01-.4 182.78z" transform="translate(-198.01 -178.75)"/><path class="cls-1" transform="rotate(-41.28 124.147 445.966)" d="M455.87 271.98h9v1h-9z"/><path class="cls-1" transform="rotate(-41.24 -76.886 622.284)" d="M255.13 448.02h9v1h-9z"/><path class="cls-1" transform="rotate(-37.54 103.937 481.184)" d="M461.41 278.73h9v1h-9z"/><path class="cls-1" transform="rotate(-37.5 -108.247 644.03)" d="M249.59 441.27h9v1h-9z"/><path class="cls-1" transform="rotate(-33.72 77.082 523.653)" d="M466.5 285.83h9v1h-9z"/><path class="cls-1" transform="rotate(-33.73 -144.819 671.898)" d="M244.5 434.17h9v1h-9z"/><path class="cls-1" transform="rotate(-29.99 43.021 574.034)" d="M471.12 293.25h9v1h-9z"/><path class="cls-1" transform="rotate(-30.02 -187.896 707.16)" d="M239.89 426.75h9v1h-9z"/><path class="cls-1" transform="rotate(-26.21 -3.092 637.392)" d="M475.23 300.96h9v1h-9z"/><path class="cls-1" transform="rotate(-26.27 -241.809 754.393)" d="M235.77 419.05h9v1h-9z"/><path class="cls-1" transform="rotate(-22.51 -64.821 717.527)" d="M478.84 308.91h9v1h-9z"/><path class="cls-1" transform="rotate(-22.51 -311.527 819.642)" d="M232.16 411.09h9v1h-9z"/><path class="cls-1" transform="rotate(-18.78 -152.907 826.966)" d="M481.92 317.09h9v1h-9z"/><path class="cls-1" transform="rotate(-18.74 -407.134 913.943)" d="M229.09 402.91h9v1h-9z"/><path class="cls-1" transform="rotate(-14.95 -291.372 991.09)" d="M484.45 325.45h9v1h-9z"/><path class="cls-1" transform="rotate(-14.99 -547.367 1058.122)" d="M226.55 394.55h9v1h-9z"/><path class="cls-1" transform="rotate(-11.27 -514.053 1248.397)" d="M486.44 333.96h9v1h-9z"/><path class="cls-1" transform="rotate(-11.26 -776.473 1301.659)" d="M224.57 386.05h9v1h-9z"/><path class="cls-1" transform="rotate(-7.52 -966.81 1760.15)" d="M487.86 342.58h9v1h-9z"/><path class="cls-1" transform="rotate(-7.52 -1231.485 1794.867)" d="M223.14 377.42h9v1h-9z"/><path class="cls-1" transform="rotate(-3.7 -2373.16 3327.379)" d="M488.71 351.27h9v1h-9z"/><path class="cls-1" transform="rotate(-3.75 -2602.388 3304.094)" d="M222.29 368.73h9v1h-9z"/><path class="cls-1" d="M290.99 181.25h9v1h-9zM23.99 181.25h9v1h-9z"/><path class="cls-1" d="M19.99 181.25h13v1h-13zM290.99 181.25h13v1h-13z"/><path class="cls-1" transform="rotate(-82.5 24.408 366.57)" d="M225.16 336.31h1v13h-1z"/><path class="cls-1" transform="rotate(-82.5 293.45 401.704)" d="M493.84 371.69h1v13h-1z"/><path class="cls-1" transform="rotate(-75 13.656 365.092)" d="M228.62 318.93h1v13h-1z"/><path class="cls-1" d="M299.02 218.99l-12.56-3.37.26-.97 12.56 3.37-.26.97z"/><path class="cls-1" transform="rotate(-67.5 2.074 367.451)" d="M234.31 302.15h1v13h-1z"/><path class="cls-1" transform="rotate(-67.5 252.453 471.158)" d="M484.69 405.85h1v13h-1z"/><path class="cls-1" transform="rotate(-60 -11.126 374.87)" d="M242.15 286.25h1v13h-1z"/><path class="cls-1" transform="rotate(-60 223.572 510.362)" d="M476.85 421.75h1v13h-1z"/><path class="cls-1" transform="rotate(-52.5 -27.723 389.415)" d="M252 271.51h1v13h-1z"/><path class="cls-1" transform="rotate(-52.5 187.315 554.4)" d="M467 436.49h1v13h-1z"/><path class="cls-1" transform="rotate(-45 -50.401 414.517)" d="M263.85 258.12h1v13.48h-1z"/><path class="cls-1" transform="rotate(-45.01 140.787 605.635)" d="M455.07 449.22h1v13.7h-1z"/><path class="cls-1" transform="rotate(-45 140.88 414.496)" d="M448.94 264.34h13.44v1h-13.44z"/><path class="cls-1" transform="rotate(-45 -50.371 605.675)" d="M257.58 455.56h13.72v1h-13.72z"/><path class="cls-1" transform="rotate(-37.54 105.531 479.97)" d="M461 277.51h13v1h-13z"/><path class="cls-1" transform="rotate(-37.49 -109.864 645.373)" d="M246 442.49h13v1h-13z"/><path class="cls-1" transform="rotate(-29.99 44.768 573.04)" d="M470.85 292.25h13v1h-13z"/><path class="cls-1" transform="rotate(-30.02 -189.623 708.156)" d="M236.15 427.75h13v1h-13z"/><path class="cls-1" transform="rotate(-22.51 -62.998 716.767)" d="M478.69 308.15h13v1h-13z"/><path class="cls-1" transform="rotate(-22.51 -313.334 820.458)" d="M228.31 411.85h13v1h-13z"/><path class="cls-1" transform="rotate(-15.06 -284.38 985)" d="M484.38 324.93h13v1h-13z"/><path class="cls-1" transform="rotate(-15 -546.568 1053.058)" d="M222.62 395.07h13v1h-13z"/><path class="cls-1" transform="rotate(-7.52 -964.802 1759.823)" d="M487.84 342.31h13v1h-13z"/><path class="cls-1" transform="rotate(-7.52 -1233.488 1795.117)" d="M219.16 377.69h13v1h-13z"/><path class="cls-1" d="M290.99 181.25h13v1h-13zM19.99 181.25h13v1h-13z"/><path class="cls-1" d="M23.98 181.25h9v1h-9zM290.99 181.25h9v1h-9z"/><path class="cls-1" transform="rotate(-86.26 32.363 368.086)" d="M226.28 347.27h1v9h-1z"/><path class="cls-1" transform="rotate(-86.24 298.765 385.583)" d="M492.71 364.73h1v9h-1z"/><path class="cls-1" transform="rotate(-82.5 26.404 366.84)" d="M227.14 338.57h1v9h-1z"/><path class="cls-1" transform="rotate(-82.49 291.428 401.462)" d="M491.86 373.43h1v9h-1z"/><path class="cls-1" transform="rotate(-78.76 21.153 365.694)" d="M228.56 329.95h1v9h-1z"/><path class="cls-1" transform="rotate(-78.74 283 417.834)" d="M490.43 382.05h1v9h-1z"/><path class="cls-1" transform="rotate(-75 15.543 364.08)" d="M230.55 321.45h1v9h-1z"/><path class="cls-1" transform="rotate(-74.99 273.453 434.725)" d="M488.45 390.55h1v9h-1z"/><path class="cls-1" transform="rotate(-71.26 9.852 366.348)" d="M233.08 313.09h1v9h-1z"/><path class="cls-1" transform="rotate(-71.24 262.673 452.231)" d="M485.91 398.91h1v9h-1z"/><path class="cls-1" transform="rotate(-67.51 3.895 368.177)" d="M236.16 304.91h1v9h-1z"/><path class="cls-1" transform="rotate(-67.49 250.568 470.42)" d="M482.84 407.09h1v9h-1z"/><path class="cls-1" transform="rotate(-63.75 -2.44 371.3)" d="M239.77 296.95h1v9h-1z"/><path class="cls-1" transform="rotate(-63.75 236.962 489.385)" d="M479.23 415.05h1v9h-1z"/><path class="cls-1" transform="rotate(-60.01 -9.425 375.813)" d="M243.88 289.25h1v9h-1z"/><path class="cls-1" transform="matrix(.5 -.87 .87 .5 -330.23 446.72)" d="M475.11 422.75h1v9h-1z"/><path class="cls-1" transform="rotate(-56.25 -17.194 382.189)" d="M248.5 281.83h1v9h-1z"/><path class="cls-1" d="M276.45 258.83l-7.48-4.99.55-.84 7.49 5-.56.83z"/><path class="cls-1" transform="rotate(-52.5 -26.119 390.635)" d="M253.59 274.73h1v9h-1z"/><path class="cls-1" transform="rotate(-52.49 185.686 553.222)" d="M465.41 437.27h1v9h-1z"/><path class="cls-1" transform="rotate(-48.75 -36.622 401.62)" d="M259.13 267.98h1v9h-1z"/><path class="cls-1" transform="rotate(-48.75 164.077 577.654)" d="M459.87 444.02h1v9h-1z"/><path class="cls-1" d="M268.6 451.91a129.14 129.14 0 01-.41-182.76l.7.71a128.14 128.14 0 00.41 181.34zM451.42 451.92l-.7-.71a128.18 128.18 0 00.4-181.36l.7-.71a129.17 129.17 0 01-.4 182.78z" transform="translate(-198.01 -178.75)"/><path class="cls-1" transform="rotate(-41.28 124.147 445.966)" d="M455.87 271.98h9v1h-9z"/><path class="cls-1" transform="rotate(-41.24 -76.886 622.284)" d="M255.13 448.02h9v1h-9z"/><path class="cls-1" transform="rotate(-37.54 103.937 481.184)" d="M461.41 278.73h9v1h-9z"/><path class="cls-1" transform="rotate(-37.5 -108.247 644.03)" d="M249.59 441.27h9v1h-9z"/><path class="cls-1" transform="rotate(-33.72 77.082 523.653)" d="M466.5 285.83h9v1h-9z"/><path class="cls-1" transform="rotate(-33.73 -144.819 671.898)" d="M244.5 434.17h9v1h-9z"/><path class="cls-1" transform="rotate(-29.99 43.021 574.034)" d="M471.12 293.25h9v1h-9z"/><path class="cls-1" transform="rotate(-30.02 -187.896 707.16)" d="M239.89 426.75h9v1h-9z"/><path class="cls-1" transform="rotate(-26.21 -3.092 637.392)" d="M475.23 300.96h9v1h-9z"/><path class="cls-1" transform="rotate(-26.27 -241.809 754.393)" d="M235.77 419.05h9v1h-9z"/><path class="cls-1" transform="rotate(-22.51 -64.821 717.527)" d="M478.84 308.91h9v1h-9z"/><path class="cls-1" transform="rotate(-22.51 -311.527 819.642)" d="M232.16 411.09h9v1h-9z"/><path class="cls-1" transform="rotate(-18.78 -152.907 826.966)" d="M481.92 317.09h9v1h-9z"/><path class="cls-1" transform="rotate(-18.74 -407.134 913.943)" d="M229.09 402.91h9v1h-9z"/><path class="cls-1" transform="rotate(-14.95 -291.372 991.09)" d="M484.45 325.45h9v1h-9z"/><path class="cls-1" transform="rotate(-14.99 -547.367 1058.122)" d="M226.55 394.55h9v1h-9z"/><path class="cls-1" transform="rotate(-11.27 -514.053 1248.397)" d="M486.44 333.96h9v1h-9z"/><path class="cls-1" transform="rotate(-11.26 -776.473 1301.659)" d="M224.57 386.05h9v1h-9z"/><path class="cls-1" transform="rotate(-7.52 -966.81 1760.15)" d="M487.86 342.58h9v1h-9z"/><path class="cls-1" transform="rotate(-7.52 -1231.485 1794.867)" d="M223.14 377.42h9v1h-9z"/><path class="cls-1" transform="rotate(-3.7 -2373.16 3327.379)" d="M488.71 351.27h9v1h-9z"/><path class="cls-1" transform="rotate(-3.75 -2602.388 3304.094)" d="M222.29 368.73h9v1h-9z"/><path class="cls-1" d="M290.99 181.25h9v1h-9zM23.99 181.25h9v1h-9zM155.49 295.25l6.5-6.5 6.5 6.5h-13zM158.49 254.25l3.5-3.5 3.5 3.5h-7zM168.49 67.25l-6.5 6.5-6.5-6.5h13zM165.49 109.25l-3.5 3.5-3.5-3.5h7z"/><g class="cls-4"><path class="cls-1" d="M360 520.5c-88.5 0-160.5-72-160.5-160.5h1c0 87.95 71.55 159.5 159.5 159.5S519.5 447.95 519.5 360 447.95 200.5 360 200.5v-1c88.5 0 160.5 72 160.5 160.5s-72 160.5-160.5 160.5z" transform="translate(-198.01 -178.75)"/></g><g class="cls-9"><path class="cls-1" d="M360.13 526.43a166.2 166.2 0 01-127.61-59.32l.77-.64c58.7 69.87 163.31 79 233.18 20.25s79-163.31 20.25-233.18a165.5 165.5 0 00-233.18-20.25l-.64-.77a166.5 166.5 0 01234.58 20.37c59.06 70.29 49.92 175.53-20.37 234.58a165.77 165.77 0 01-106.98 38.96z" transform="translate(-198.01 -178.75)"/></g><path class="cls-1" d="M360.08 532A173.38 173.38 0 01202.4 430.18l.91-.41a171.93 171.93 0 10313.38-141.54c-39-86.4-141.06-124.95-227.46-85.93l-.41-.91c86.91-39.25 189.54-.48 228.78 86.43A173.12 173.12 0 01360.08 532z" transform="translate(-198.01 -178.75)"/><circle class="cls-1" cx="2" cy="181.32" r="2"/><circle class="cls-1" cx="55.2" cy="54.13" r="2"/><g class="cls-9"><path class="cls-1" d="M214.48 179.18v.34M215.25 178.75l-.35.35" transform="translate(-198.01 -178.75)"/></g></svg>