<svg preserveAspectRatio="none" id="Layer_1" data-name="Layer 1" xmlns="http://www.w3.org/2000/svg" viewBox="0 0 87.38 87.47"><defs><style>.cls-1{fill:#154666}.cls-2{fill:#5cdeff}.cls-3{fill:#2f99e0}.cls-4{fill:#ba5bb2}.cls-5{fill:#ff7df5}</style></defs><path class="cls-1" d="M260.69 138a39.58 39.58 0 01-39.53-39.5 39.41 39.41 0 0110.27-26.58 39.87 39.87 0 0113.87-9.84A39.54 39.54 0 11260.69 138zm0-78.56a38.77 38.77 0 00-15.19 3.07 39.16 39.16 0 00-20 19.06 38.67 38.67 0 00-3.84 16.9 39 39 0 1039.03-39z" transform="translate(-217.08 -54.77)"/><path class="cls-2" d="M225.57 116.94A39.75 39.75 0 01221 98.5h.75a39 39 0 004.45 18.08zM260.69 138.16a39.37 39.37 0 01-23.23-7.51l.44-.61a38.91 38.91 0 0050.74-4.47l.54.52a39.34 39.34 0 01-28.49 12.07zM300.35 98.5h-.75a39 39 0 00-38.91-38.9v-.75a39.7 39.7 0 0139.66 39.65z" transform="translate(-217.08 -54.77)"/><path class="cls-2" d="M235.86 124.36A35.88 35.88 0 01228.37 83a35.82 35.82 0 0132.33-20.33v.73a34.88 34.88 0 00-13.7 2.76 35.24 35.24 0 00-18 17.14 35.13 35.13 0 007.34 40.52zM282.8 126.73l-.46-.59a35.12 35.12 0 0011.36-15.66l.71.26a35.87 35.87 0 01-11.61 15.99zM296.55 98.5h-.75a35 35 0 00-9.09-23.57l.55-.5a35.77 35.77 0 019.29 24.07z" transform="translate(-217.08 -54.77)"/><path class="cls-1" d="M43.37 12.9h.5v8.73h-.5z"/><path class="cls-3" transform="rotate(-5 -477.536 2530.675)" d="M258.14 67.78h.5v8.73h-.5z"/><path class="cls-1" transform="rotate(-10 -165.578 1285.671)" d="M255.85 68.08h.5v8.73h-.5z"/><path class="cls-1" d="M37.66 22.45l-2.26-8.43.48-.13 2.26 8.43-.48.13z"/><path class="cls-3" transform="rotate(-20 -12.364 665.73)" d="M251.39 69.27h.5V78h-.5z"/><path class="cls-1" transform="rotate(-25 17.421 536.73)" d="M249.26 70.15h.5v8.73h-.5z"/><path class="cls-1" transform="rotate(-30 36.748 453.266)" d="M247.21 71.22h.5v8.73h-.5z"/><path class="cls-1" transform="rotate(-35 50.115 393.676)" d="M245.27 72.46h.5v8.73h-.5z"/><path class="cls-3" transform="rotate(-40 59.907 349.05)" d="M243.44 73.87h.5v8.73h-.5z"/><path class="cls-1" transform="rotate(-45 67.335 314.439)" d="M241.73 75.43h.5v8.73h-.5z"/><path class="cls-3" d="M26.53 29.72l-6.69-5.61.32-.39 6.69 5.62-.32.38z"/><path class="cls-1" transform="rotate(-55 77.88 264.444)" d="M238.77 78.96h.5v8.73h-.5z"/><path class="cls-1" transform="rotate(-60 81.798 245.881)" d="M237.53 80.91h.5v8.73h-.5z"/><path class="cls-1" transform="rotate(-65 85.188 230.304)" d="M236.46 82.95h.5v8.73h-.5z"/><path class="cls-1" d="M22.77 36.41l-8.21-2.99.17-.47 8.21 2.99-.17.47zM22.21 38.25l-8.43-2.26.12-.48 8.44 2.26-.13.48z"/><path class="cls-3" d="M21.81 40.14l-8.59-1.52.08-.49 8.6 1.52-.09.49z"/><path class="cls-1" d="M21.58 42.05l-8.69-.76.04-.5 8.7.76-.05.5zM12.79 43.48h8.73v.5h-8.73zM12.93 46.66l-.04-.49 8.69-.76.05.49-8.7.76zM13.3 49.33l-.08-.49 8.59-1.52.09.49-8.6 1.52zM13.9 51.95l-.12-.48 8.43-2.27.13.49-8.44 2.26zM14.73 54.51l-.17-.47 8.21-2.99.17.47-8.21 2.99z"/><path class="cls-3" transform="rotate(-24.96 4.388 572.697)" d="M232.35 109.43h8.73v.5h-8.73z"/><path class="cls-3" transform="rotate(-30.02 27.127 489.143)" d="M233.41 111.48h8.73v.5h-8.73z"/><path class="cls-1" transform="rotate(-35.05 43.79 430.01)" d="M234.65 113.43h8.73v.5h-8.73z"/><path class="cls-1" d="M20.16 63.73l-.32-.38 6.69-5.61.32.38-6.69 5.61z"/><path class="cls-1" transform="rotate(-45 67.335 351.859)" d="M237.62 116.96h8.73v.5h-8.73z"/><path class="cls-3" transform="rotate(-49.99 76.41 324.2)" d="M239.32 118.52h8.73v.5h-8.73z"/><path class="cls-1" transform="rotate(-55.01 84.391 301.248)" d="M241.15 119.93h8.73v.5h-8.73z"/><path class="cls-1" transform="rotate(-60.03 91.512 281.913)" d="M243.1 121.17h8.73v.5h-8.73z"/><path class="cls-3" transform="rotate(-65.04 98.037 265.339)" d="M245.15 122.23h8.73v.5h-8.73z"/><path class="cls-3" transform="rotate(-70.04 104.043 250.877)" d="M247.28 123.12h8.73v.5h-8.73z"/><path class="cls-1" d="M35.88 73.57l-.48-.13 2.26-8.43.48.13-2.26 8.43z"/><path class="cls-1" transform="rotate(-79.99 114.906 226.552)" d="M251.73 124.31h8.73v.5h-8.73z"/><path class="cls-1" transform="rotate(-84.96 119.946 216.004)" d="M254.02 124.61h8.73v.5h-8.73z"/><path class="cls-3" d="M43.37 65.82h.5v8.73h-.5z"/><path class="cls-4" d="M260.69 116.49a18 18 0 1118-18 18 18 0 01-18 18zm0-35.48a17.37 17.37 0 00-6.81 1.37 17.54 17.54 0 00-9 8.54 17.33 17.33 0 00-1.72 7.57A17.49 17.49 0 10260.69 81z" transform="translate(-217.08 -54.77)"/><path class="cls-5" d="M244.3 106.22a18 18 0 01-1.72-7.72h.75a17.21 17.21 0 001.65 7.4zM260.69 116.62a18.09 18.09 0 01-9.28-2.56l.38-.64a17.34 17.34 0 008.9 2.45v.75zM271.55 113l-.45-.6a17.23 17.23 0 007-13.9h.75a18 18 0 01-7.3 14.5zM247.84 86.83l-.55-.5a18.26 18.26 0 016.36-4.51l.29.69a17.51 17.51 0 00-6.1 4.32z" transform="translate(-217.08 -54.77)"/><path class="cls-1" d="M288.86 111.63l-8-4.64.08-.2a21.69 21.69 0 001.43-5.35v-.22h9.28v.27a30.84 30.84 0 01-2.65 9.89zm-7.41-4.85l7.18 4.15a30.32 30.32 0 002.46-9.2h-8.3a22.18 22.18 0 01-1.34 5.04zM291.65 95.78h-9.28v-.22a21.71 21.71 0 00-1.43-5.35l-.08-.2 8-4.64.14.26a30.83 30.83 0 012.65 9.88zm-8.85-.5h8.3a30.3 30.3 0 00-2.46-9.2l-7.18 4.15a22.19 22.19 0 011.34 5.05zM278.52 123.95l-4.64-8 .17-.13a22 22 0 003.92-3.92l.13-.17 8 4.64-.16.22a31.15 31.15 0 01-7.23 7.23zm-4-7.91l4.15 7.18a30.67 30.67 0 006.73-6.73l-7.18-4.15a22.51 22.51 0 01-3.69 3.66z" transform="translate(-217.08 -54.77)"/><path class="cls-3" d="M278.1 85.31l-.1-.17a22 22 0 00-3.92-3.92l-.17-.13 4.64-8 .22.16a31.14 31.14 0 017.23 7.2l.16.22zM274.53 81a22.51 22.51 0 013.7 3.7l7.18-4.15a30.67 30.67 0 00-6.73-6.73z" transform="translate(-217.08 -54.77)"/><path class="cls-4" d="M260.71 112.34a13.84 13.84 0 01-7.3-25.6A13.84 13.84 0 11268 110.26a13.79 13.79 0 01-7.29 2.08zm-7-25.18a13.34 13.34 0 008.46 24.6A13.34 13.34 0 00272 91.47a13.35 13.35 0 00-18.36-4.31z" transform="translate(-217.08 -54.77)"/><path class="cls-5" d="M268.05 110.37l-.39-.64a13.11 13.11 0 004.12-4l.63.41a13.84 13.84 0 01-4.36 4.23zM273.91 98.27a13.19 13.19 0 00-2-6.73l.64-.4a13.93 13.93 0 012.1 7.12h-.75zM253.73 87.27l-.39-.64a13.86 13.86 0 0112.45-1.13l-.27.7a13.12 13.12 0 00-11.79 1.07zM258.16 112.23a14.08 14.08 0 01-5.54-2.33l.43-.61a13.32 13.32 0 005.24 2.21z" transform="translate(-217.08 -54.77)"/><path class="cls-1" d="M260.62 142.11a43.54 43.54 0 01-40.73-28.2 44 44 0 01-2.71-18.57 43.63 43.63 0 0163.35-35.66 43.61 43.61 0 01-19.91 82.43zm.14-86.71a43.13 43.13 0 00-34.38 69.22 42.7 42.7 0 0014.69 12.27 43.11 43.11 0 1019.7-81.49z" transform="translate(-217.08 -54.77)"/><path class="cls-2" d="M260.67 142.24a43.85 43.85 0 01-19.88-4.8l.34-.67a43.12 43.12 0 0020 4.71v.75h-.5zM280.61 137.44l-.34-.67a43 43 0 0021.11-52.17l.71-.24a43.74 43.74 0 01-21.48 53.08zM222.42 78.94l-.67-.34a43.79 43.79 0 0158.85-19l-.34.67a43 43 0 00-57.84 18.67z" transform="translate(-217.08 -54.77)"/></svg>