<svg preserveAspectRatio="none" id="央铋_1" data-name="央铋 1" xmlns="http://www.w3.org/2000/svg" xmlns:xlink="http://www.w3.org/1999/xlink" viewBox="0 0 50.71 50.59"><defs><linearGradient id="铃琨眄_沭噤桢眚_2" x1="96.85" y1="41.67" x2="130.9" y2="41.67" gradientUnits="userSpaceOnUse"><stop offset="0" stop-color="#009fff"/><stop offset="1" stop-color="#7ff"/></linearGradient><linearGradient id="铃琨眄_沭噤桢眚_2-2" x1="114.62" y1="21.96" x2="134.96" y2="42.3" xlink:href="#铃琨眄_沭噤桢眚_2"/><linearGradient id="铃琨眄_沭噤桢眚_2-3" x1="115.08" y1="21.51" x2="135.42" y2="41.85" xlink:href="#铃琨眄_沭噤桢眚_2"/><linearGradient id="铃琨眄_沭噤桢眚_2-4" x1="115.5" y1="21.09" x2="135.84" y2="41.43" xlink:href="#铃琨眄_沭噤桢眚_2"/><linearGradient id="铃琨眄_沭噤桢眚_2-5" x1="115.88" y1="20.7" x2="136.23" y2="41.04" xlink:href="#铃琨眄_沭噤桢眚_2"/><linearGradient id="铃琨眄_沭噤桢眚_2-6" x1="116.23" y1="20.35" x2="136.58" y2="40.69" xlink:href="#铃琨眄_沭噤桢眚_2"/><linearGradient id="铃琨眄_沭噤桢眚_2-7" x1="116.55" y1="20.04" x2="136.89" y2="40.38" xlink:href="#铃琨眄_沭噤桢眚_2"/><linearGradient id="铃琨眄_沭噤桢眚_2-8" x1="116.82" y1="19.76" x2="137.16" y2="40.1" xlink:href="#铃琨眄_沭噤桢眚_2"/><linearGradient id="铃琨眄_沭噤桢眚_2-9" x1="117.06" y1="19.53" x2="137.4" y2="39.87" xlink:href="#铃琨眄_沭噤桢眚_2"/><linearGradient id="铃琨眄_沭噤桢眚_2-10" x1="117.25" y1="19.33" x2="137.6" y2="39.67" xlink:href="#铃琨眄_沭噤桢眚_2"/><linearGradient id="铃琨眄_沭噤桢眚_2-11" x1="117.41" y1="19.17" x2="137.75" y2="39.51" xlink:href="#铃琨眄_沭噤桢眚_2"/><linearGradient id="铃琨眄_沭噤桢眚_2-12" x1="117.53" y1="19.06" x2="137.87" y2="39.4" xlink:href="#铃琨眄_沭噤桢眚_2"/><linearGradient id="铃琨眄_沭噤桢眚_2-13" x1="117.61" y1="18.98" x2="137.95" y2="39.32" xlink:href="#铃琨眄_沭噤桢眚_2"/><linearGradient id="铃琨眄_沭噤桢眚_2-14" x1="117.64" y1="18.94" x2="137.98" y2="39.29" xlink:href="#铃琨眄_沭噤桢眚_2"/><linearGradient id="铃琨眄_沭噤桢眚_2-15" x1="117.64" y1="18.95" x2="137.98" y2="39.29" xlink:href="#铃琨眄_沭噤桢眚_2"/><linearGradient id="铃琨眄_沭噤桢眚_2-16" x1="117.59" y1="19" x2="137.93" y2="39.34" xlink:href="#铃琨眄_沭噤桢眚_2"/><linearGradient id="铃琨眄_沭噤桢眚_2-17" x1="117.5" y1="19.08" x2="137.84" y2="39.42" xlink:href="#铃琨眄_沭噤桢眚_2"/><linearGradient id="铃琨眄_沭噤桢眚_2-18" x1="117.37" y1="19.21" x2="137.72" y2="39.55" xlink:href="#铃琨眄_沭噤桢眚_2"/><linearGradient id="铃琨眄_沭噤桢眚_2-19" x1="117.21" y1="19.38" x2="137.55" y2="39.72" xlink:href="#铃琨眄_沭噤桢眚_2"/><linearGradient id="铃琨眄_沭噤桢眚_2-20" x1="117" y1="19.58" x2="137.34" y2="39.93" xlink:href="#铃琨眄_沭噤桢眚_2"/><linearGradient id="铃琨眄_沭噤桢眚_2-21" x1="116.75" y1="19.83" x2="137.09" y2="40.17" xlink:href="#铃琨眄_沭噤桢眚_2"/><linearGradient id="铃琨眄_沭噤桢眚_2-22" x1="116.46" y1="20.12" x2="136.81" y2="40.46" xlink:href="#铃琨眄_沭噤桢眚_2"/><linearGradient id="铃琨眄_沭噤桢眚_2-23" x1="116.14" y1="20.44" x2="136.48" y2="40.79" xlink:href="#铃琨眄_沭噤桢眚_2"/><linearGradient id="铃琨眄_沭噤桢眚_2-24" x1="115.78" y1="20.8" x2="136.12" y2="41.15" xlink:href="#铃琨眄_沭噤桢眚_2"/><linearGradient id="铃琨眄_沭噤桢眚_2-25" x1="115.38" y1="21.2" x2="135.73" y2="41.54" xlink:href="#铃琨眄_沭噤桢眚_2"/><linearGradient id="铃琨眄_沭噤桢眚_2-26" x1="114.95" y1="21.63" x2="135.3" y2="41.97" xlink:href="#铃琨眄_沭噤桢眚_2"/><linearGradient id="铃琨眄_沭噤桢眚_2-27" x1="114.49" y1="22.09" x2="134.83" y2="42.43" xlink:href="#铃琨眄_沭噤桢眚_2"/><linearGradient id="铃琨眄_沭噤桢眚_2-28" x1="114" y1="22.59" x2="134.34" y2="42.93" xlink:href="#铃琨眄_沭噤桢眚_2"/><linearGradient id="铃琨眄_沭噤桢眚_28" x1="99.38" y1="41.67" x2="128.37" y2="41.67" gradientUnits="userSpaceOnUse"><stop offset="0" stop-color="#b9004c"/><stop offset="1" stop-color="#fc5f80"/></linearGradient><style>.cls-3{fill:#7ff}.cls-4{opacity:.5}</style></defs><circle cx="25.36" cy="25.3" r="16.42" stroke-width="1.2" fill="none" stroke="#464450" stroke-miterlimit="10"/><path d="M113.88 58.69a17 17 0 110-34 .6.6 0 010 1.2 15.82 15.82 0 1015.82 15.78.6.6 0 111.2 0 17 17 0 01-17.02 17.02z" transform="translate(-88.52 -16.37)" fill="url(#铃琨眄_沭噤桢眚_2)"/><circle class="cls-3" cx="25.41" cy="4.4" r=".43"/><circle class="cls-3" cx="25.41" cy="46.2" r=".43"/><circle class="cls-3" cx="40.19" cy="40.07" r=".43"/><circle class="cls-3" cx="10.64" cy="10.52" r=".43"/><circle class="cls-3" cx="40.08" cy="10.52" r=".43"/><circle class="cls-3" cx="10.51" cy="40.09" r=".43"/><circle class="cls-3" cx="46.31" cy="25.3" r=".43"/><circle class="cls-3" cx="4.41" cy="25.3" r=".43"/><g class="cls-4"><circle class="cls-3" cx="121.8" cy="22.33" r=".34" transform="rotate(-67.86 65.369 79.937)"/><circle class="cls-3" cx="106.05" cy="61.05" r=".34" transform="rotate(-67.86 49.624 118.65)"/><circle class="cls-3" cx="122.05" cy="60.94" r=".34" transform="rotate(-67.86 65.617 118.549)"/><circle class="cls-3" cx="105.81" cy="22.43" r=".34" transform="rotate(-67.86 49.38 80.032)"/><circle class="cls-3" cx="133.08" cy="33.53" r=".34" transform="rotate(-67.86 76.658 91.127)"/><circle class="cls-3" cx="94.54" cy="49.77" r=".34" transform="rotate(-67.86 38.119 107.38)"/><circle class="cls-3" cx="133.28" cy="49.56" r=".34" transform="rotate(-67.86 76.86 107.165)"/><circle class="cls-3" cx="94.47" cy="33.77" r=".34" transform="rotate(-67.86 38.047 91.375)"/></g><path d="M114.07 61.8a.16.16 0 01-.12-.18v-2a.13.13 0 11.23 0v2a.16.16 0 01-.11.18zm-1-.2a.13.13 0 11-.25 0l.11-2a.13.13 0 11.23 0zm2.09.16a.16.16 0 01-.14-.17l-.11-2a.13.13 0 11.23 0l.14 2a.16.16 0 01-.11.17zm-3.16-.24a.14.14 0 11-.26 0l.23-2a.13.13 0 11.22 0zm4.29.14a.16.16 0 01-.15-.16l-.22-2a.13.13 0 11.23 0l.25 2a.16.16 0 01-.12.16zm-5.38-.28a.14.14 0 11-.25 0l.34-2a.13.13 0 11.22 0zm6.49.12a.16.16 0 01-.16-.16l-.34-2a.13.13 0 11.23 0l.36 2a.16.16 0 01-.11.16zm-7.57-.32a.13.13 0 11-.25-.05l.45-2a.13.13 0 11.23 0zm8.66.1a.16.16 0 01-.16-.15l-.45-2a.13.13 0 11.23-.05l.46 2a.16.16 0 01-.1.2zm-9.73-.36a.14.14 0 11-.25-.07l.56-1.95a.13.13 0 11.22.06zm10.79.08a.16.16 0 01-.17-.14l-.55-2a.13.13 0 11.22-.06l.58 1.94a.16.16 0 01-.08.26zm-11.87-.4a.14.14 0 11-.24-.08l.67-1.91a.13.13 0 11.21.07zm12.92.06a.16.16 0 01-.18-.13l-.66-1.92a.13.13 0 11.22-.08l.69 1.91a.16.16 0 01-.06.22zm-14-.44a.14.14 0 11-.24-.1l.78-1.87a.13.13 0 11.21.09zm15 0a.16.16 0 01-.19-.12l-.77-1.88a.13.13 0 11.21-.09l.84 1.87a.16.16 0 01-.04.26zm-16-.47a.13.13 0 11-.23-.11l.87-1.83a.13.13 0 11.21.1zm17 0a.16.16 0 01-.19-.11l-.88-1.83a.13.13 0 11.21-.1l.9 1.82a.16.16 0 01.02.27zm-18-.51a.13.13 0 11-.22-.12l1-1.78a.13.13 0 11.21.11zm19 0a.16.16 0 01-.2-.1l-1-1.78a.13.13 0 11.2-.11l1 1.77a.16.16 0 01.04.27zm-20-.55a.13.13 0 11-.21-.13l1.07-1.72a.13.13 0 11.2.12zm20.92 0a.16.16 0 01-.2-.09l-1.07-1.72a.13.13 0 11.19-.12l1.09 1.71a.16.16 0 01.07.26zm-21.84-.58a.13.13 0 11-.21-.14l1.17-1.66a.13.13 0 11.19.13zm22.77 0a.16.16 0 01-.21-.07l-1.16-1.66a.12.12 0 11.18-.13l1.19 1.64a.16.16 0 01.07.22zm-23.66-.61a.13.13 0 11-.2-.16l1.26-1.59a.13.13 0 11.18.14zm24.55-.06a.16.16 0 01-.21-.06l-1.26-1.59a.13.13 0 11.18-.14l1.27 1.58a.16.16 0 01.09.21zM101 56.8a.14.14 0 11-.19-.17l1.35-1.52a.13.13 0 11.17.15zm26.25-.08a.16.16 0 01-.21-.05l-1.34-1.52a.13.13 0 11.17-.15l1.36 1.51a.16.16 0 01.03.21zm-27.06-.66a.14.14 0 11-.18-.18l1.43-1.44a.13.13 0 11.16.16zm27.87-.1a.16.16 0 01-.22 0l-1.42-1.45a.12.12 0 11.16-.16l1.42 1.39a.16.16 0 01.07.26zm-28.64-.69a.14.14 0 11-.17-.19l1.51-1.36a.13.13 0 11.15.17zm29.41-.12a.16.16 0 01-.22 0l-1.5-1.36a.13.13 0 11.15-.17l1.52 1.35a.16.16 0 01.05.18zm-30.13-.7a.14.14 0 11-.17-.2l1.59-1.25a.12.12 0 11.14.17zm30.85-.14a.16.16 0 01-.22 0L127.76 53a.13.13 0 11.14-.18l1.59 1.26a.16.16 0 01.06.23zM98 53.58a.14.14 0 11-.15-.21l1.65-1.18a.12.12 0 11.13.18zm32.2-.16a.16.16 0 01-.22 0l-1.64-1.19a.13.13 0 11.13-.19l1.66 1.17a.16.16 0 01.09.21zm-32.83-.74a.13.13 0 11-.14-.21l1.77-1.1a.13.13 0 11.13.2zm33.46-.18a.16.16 0 01-.22 0l-1.7-1.1a.12.12 0 11.12-.19l1.72 1.07a.16.16 0 01.09.21zm-34-.76a.13.13 0 11-.12-.22l1.76-1a.13.13 0 11.12.2zm34.61-.2a.16.16 0 01-.22 0l-1.76-1a.12.12 0 11.11-.19l1.78 1a.16.16 0 01.06.18zm-35.13-.77a.13.13 0 11-.11-.22l1.82-.9a.13.13 0 11.1.21zm35.64-.22a.16.16 0 01-.22 0l-1.81-.91a.12.12 0 11.1-.2l1.83.87a.16.16 0 01.08.24zm-36.11-.77a.13.13 0 11-.1-.23l1.87-.79a.13.13 0 11.09.21zm36.58-.25a.16.16 0 01-.22 0l-1.87-.79a.13.13 0 11.09-.21l1.88.77a.16.16 0 01.09.23zm-37-.77a.14.14 0 11-.09-.25l1.91-.67a.12.12 0 11.08.21zm37.39-.27a.16.16 0 01-.21.06l-1.91-.69a.13.13 0 11.08-.22l1.91.67a.16.16 0 01.11.18zM95 47.71a.14.14 0 110-.24l1.95-.57a.13.13 0 11.07.21zm38.09-.29a.16.16 0 01-.21.07l-1.88-.57a.13.13 0 110-.22l2 .55a.16.16 0 01.13.18zm-38.39-.78a.14.14 0 11-.06-.25l2-.46a.12.12 0 11.05.21zm38.67-.3a.16.16 0 01-.2.08l-2-.47a.13.13 0 11.05-.23l2 .45a.16.16 0 01.19.19zm-38.87-.76a.14.14 0 110-.25l2-.36a.13.13 0 110 .22zm39.13-.31a.16.16 0 01-.2.09l-2-.36a.13.13 0 110-.23l2 .34a.16.16 0 01.21.15zm-39.31-.78a.13.13 0 110-.25l2-.25a.13.13 0 110 .23zm39.47-.32a.16.16 0 01-.2.11l-2-.26a.12.12 0 110-.22l2 .22a.16.16 0 01.21.14zM94.2 43.4a.14.14 0 110-.26l2-.13a.13.13 0 110 .23zm39.68-.33a.16.16 0 01-.19.11l-2-.14a.13.13 0 110-.23l2 .12a.16.16 0 01.2.13zm-39.74-.77a.14.14 0 110-.26h2a.12.12 0 110 .22zm39.78-.35a.16.16 0 01-.18.12h-2a.13.13 0 110-.23h2a.16.16 0 01.19.1zm-37.56-.8a.16.16 0 01-.19.11l-2-.06a.14.14 0 110-.26l2 .09a.16.16 0 01.2.12zm35.34 0a.12.12 0 110-.22l2-.1a.14.14 0 110 .26zm-35.28-1a.16.16 0 01-.19.1l-2-.18a.13.13 0 110-.25l2 .2a.16.16 0 01.2.15zm.12-1a.16.16 0 01-.2.08l-2-.29a.14.14 0 110-.25l2 .32a.16.16 0 01.21.19zm.17-1a.16.16 0 01-.2.07l-2-.4a.14.14 0 11.05-.26l2 .44a.16.16 0 01.16.23zm.23-1a.16.16 0 01-.2.06l-2-.51a.14.14 0 11.07-.25l2 .54a.16.16 0 01.14.29zm.28-.94a.16.16 0 01-.21.05l-1.93-.62a.13.13 0 11.08-.24l1.92.64a.16.16 0 01.15.3zm.33-.92a.16.16 0 01-.21 0l-1.89-.73a.13.13 0 11.09-.24l1.88.75a.16.16 0 01.14.35zm.38-.9a.16.16 0 01-.21 0l-1.85-.83a.14.14 0 11.13-.09l1.83.87a.16.16 0 01.11.18zm.44-.89a.16.16 0 01-.21 0l-1.8-.93a.13.13 0 11.12-.22l1.79 1a.16.16 0 01.1.28zm.48-.86a.16.16 0 01-.21 0l-1.75-1a.14.14 0 11.11-.11l1.73 1.05a.16.16 0 01.13.19zm.53-.64a.16.16 0 01-.21 0l-1.68-1.13a.13.13 0 11.14-.21l1.67 1.15a.16.16 0 01.08.19zm.57-.8a.16.16 0 01-.21 0l-1.62-1.22a.14.14 0 11.16-.21l1.6 1.23a.16.16 0 01.12.16zm.62-.76a.16.16 0 01-.21 0l-1.55-1.31a.14.14 0 11.17-.2l1.53 1.33a.16.16 0 01.06.13zm.66-.73a.16.16 0 01-.21 0l-1.47-1.39a.14.14 0 11.17-.32l1.45 1.41a.16.16 0 01.06.26zm.7-.69a.16.16 0 01-.21-.06l-1.4-1.47a.14.14 0 11.19-.18l1.37 1.49a.16.16 0 01.04.2zm.73-.65a.16.16 0 01-.2-.06l-1.31-1.55a.13.13 0 11.19-.16l1.29 1.56a.16.16 0 01.03.17zm.77-.61a.16.16 0 01-.2-.07L102 26a.13.13 0 11.2-.15l1.21 1.63a.16.16 0 01.01.24zm.8-.57a.16.16 0 01-.2-.09l-1.13-1.68a.13.13 0 11.21-.14l1.12 1.69a.16.16 0 010 .18zm.83-.52a.16.16 0 01-.19-.1l-1-1.74a.14.14 0 11.22-.13l1 1.75a.16.16 0 01-.03.18zm.86-.47a.16.16 0 01-.19-.11l-.94-1.8a.13.13 0 11.22-.12l.92 1.81a.16.16 0 01-.02.18zm.88-.42a.16.16 0 01-.18-.12l-.84-1.85a.13.13 0 11.23-.1l.82 1.85a.16.16 0 01-.04.18zm.9-.37a.16.16 0 01-.17-.13l-.73-1.89a.14.14 0 11.24-.09l.7 1.9a.16.16 0 01-.05.17zm.93-.32a.16.16 0 01-.16-.14l-.64-1.95a.13.13 0 11.24-.08l.6 1.94a.16.16 0 01-.05.14zm.94-.27a.16.16 0 01-.16-.15l-.52-2a.13.13 0 11.25-.06l.49 2a.16.16 0 01-.07.17zm1-.22a.16.16 0 01-.14-.16l-.41-2a.14.14 0 11.26-.05l.37 2a.16.16 0 01-.14.17zm1-.16a.16.16 0 01-.13-.16l-.3-2a.14.14 0 11.26 0l.25 2a.16.16 0 01-.18.12zm1-.11a.16.16 0 01-.13-.17l-.18-2a.13.13 0 11.25 0l.16 2a.16.16 0 01-.22.13zm1-.06a.16.16 0 01-.12-.18l-.07-2a.13.13 0 11.25 0v2a.16.16 0 01-.2.14z" transform="translate(-88.52 -16.37)" fill="#464450"/><path d="M131.65 40.2a.13.13 0 110-.23l2-.2a.13.13 0 110 .25z" transform="translate(-88.52 -16.37)" fill="url(#铃琨眄_沭噤桢眚_2-2)"/><path d="M131.54 39.22a.13.13 0 110-.23l2-.32a.13.13 0 110 .25z" transform="translate(-88.52 -16.37)" fill="url(#铃琨眄_沭噤桢眚_2-3)"/><path d="M131.36 38.24a.12.12 0 110-.22l2-.44a.14.14 0 11.05.26z" transform="translate(-88.52 -16.37)" fill="url(#铃琨眄_沭噤桢眚_2-4)"/><path d="M131.14 37.28a.13.13 0 11-.06-.22l2-.54a.13.13 0 11.07.25z" transform="translate(-88.52 -16.37)" fill="url(#铃琨眄_沭噤桢眚_2-5)"/><path d="M130.86 36.33a.12.12 0 11-.07-.21l1.92-.65a.14.14 0 11.08.25z" transform="translate(-88.52 -16.37)" fill="url(#铃琨眄_沭噤桢眚_2-6)"/><path d="M130.53 35.4a.13.13 0 11-.08-.21l1.88-.75a.14.14 0 11.09.24z" transform="translate(-88.52 -16.37)" fill="url(#铃琨眄_沭噤桢眚_2-7)"/><path d="M130.15 34.49a.13.13 0 11-.1-.21l1.84-.86a.13.13 0 11.11.23z" transform="translate(-88.52 -16.37)" fill="url(#铃琨眄_沭噤桢眚_2-8)"/><path d="M129.72 33.6a.13.13 0 11-.11-.2l1.79-1a.13.13 0 11.12.22z" transform="translate(-88.52 -16.37)" fill="url(#铃琨眄_沭噤桢眚_2-9)"/><path d="M129.24 32.74a.13.13 0 11-.12-.2l1.73-1.06a.13.13 0 11.13.22z" transform="translate(-88.52 -16.37)" fill="url(#铃琨眄_沭噤桢眚_2-10)"/><path d="M128.7 31.9a.12.12 0 11-.12-.18l1.67-1.15a.14.14 0 11.15.21z" transform="translate(-88.52 -16.37)" fill="url(#铃琨眄_沭噤桢眚_2-11)"/><path d="M128.13 31.1a.12.12 0 11-.13-.17l1.6-1.25a.14.14 0 11.16.21z" transform="translate(-88.52 -16.37)" fill="url(#铃琨眄_沭噤桢眚_2-12)"/><path d="M127.51 30.33a.13.13 0 11-.15-.17l1.53-1.33a.14.14 0 11.17.2z" transform="translate(-88.52 -16.37)" fill="url(#铃琨眄_沭噤桢眚_2-13)"/><path d="M126.86 29.6a.13.13 0 11-.17-.17l1.46-1.43a.13.13 0 11.17.18z" transform="translate(-88.52 -16.37)" fill="url(#铃琨眄_沭噤桢眚_2-14)"/><path d="M126.16 28.9a.13.13 0 11-.17-.16l1.38-1.49a.13.13 0 11.18.17z" transform="translate(-88.52 -16.37)" fill="url(#铃琨眄_沭噤桢眚_2-15)"/><path d="M125.41 28.23a.12.12 0 11-.17-.14l1.29-1.57a.14.14 0 11.2.17z" transform="translate(-88.52 -16.37)" fill="url(#铃琨眄_沭噤桢眚_2-16)"/><path d="M124.64 27.62a.13.13 0 11-.18-.13l1.2-1.64a.14.14 0 11.21.16z" transform="translate(-88.52 -16.37)" fill="url(#铃琨眄_沭噤桢眚_2-17)"/><path d="M123.83 27a.13.13 0 11-.19-.13l1.11-1.7a.14.14 0 11.21.14z" transform="translate(-88.52 -16.37)" fill="url(#铃琨眄_沭噤桢眚_2-18)"/><path d="M123 26.51a.13.13 0 11-.19-.11l1-1.76a.14.14 0 11.22.13z" transform="translate(-88.52 -16.37)" fill="url(#铃琨眄_沭噤桢眚_2-19)"/><path d="M122.13 26a.13.13 0 11-.2-.1l.91-1.81a.14.14 0 11.23.12z" transform="translate(-88.52 -16.37)" fill="url(#铃琨眄_沭噤桢眚_2-20)"/><path d="M121.24 25.6a.13.13 0 11-.21-.09l.81-1.86a.14.14 0 11.23.1z" transform="translate(-88.52 -16.37)" fill="url(#铃琨眄_沭噤桢眚_2-21)"/><path d="M120.32 25.22a.12.12 0 11-.21-.08l.7-1.9a.14.14 0 11.24.09z" transform="translate(-88.52 -16.37)" fill="url(#铃琨眄_沭噤桢眚_2-22)"/><path d="M119.39 24.89a.13.13 0 11-.22-.07l.59-1.94a.14.14 0 11.24.12z" transform="translate(-88.52 -16.37)" fill="url(#铃琨眄_沭噤桢眚_2-23)"/><path d="M118.44 24.61a.13.13 0 11-.22-.06l.48-2a.14.14 0 11.25.06z" transform="translate(-88.52 -16.37)" fill="url(#铃琨眄_沭噤桢眚_2-24)"/><path d="M117.47 24.39a.13.13 0 11-.22 0l.37-2a.14.14 0 11.25 0z" transform="translate(-88.52 -16.37)" fill="url(#铃琨眄_沭噤桢眚_2-25)"/><path d="M116.5 24.22a.13.13 0 11-.23 0l.27-2a.13.13 0 11.25 0z" transform="translate(-88.52 -16.37)" fill="url(#铃琨眄_沭噤桢眚_2-26)"/><path d="M115.51 24.11a.12.12 0 11-.22 0l.15-2a.14.14 0 11.26 0z" transform="translate(-88.52 -16.37)" fill="url(#铃琨眄_沭噤桢眚_2-27)"/><path d="M114.53 24.05a.13.13 0 11-.23 0v-2a.14.14 0 11.26 0z" transform="translate(-88.52 -16.37)" fill="url(#铃琨眄_沭噤桢眚_2-28)"/><circle class="cls-3" cx="103.36" cy="23.6" r=".43" transform="rotate(-30.35 28.922 178.6)"/><circle class="cls-3" cx="124.48" cy="59.68" r=".43" transform="rotate(-30.35 50.052 214.671)"/><circle class="cls-3" cx="134.14" cy="46.92" r=".43" transform="rotate(-30.35 59.707 201.913)"/><circle class="cls-3" cx="93.7" cy="36.35" r=".43" transform="rotate(-30.35 19.272 191.341)"/><circle class="cls-3" cx="119.11" cy="21.47" r=".43" transform="rotate(-30.35 44.681 176.463)"/><circle class="cls-3" cx="108.53" cy="61.94" r=".43" transform="rotate(-30.35 34.1 216.935)"/><circle class="cls-3" cx="131.95" cy="31.08" r=".43" transform="rotate(-30.35 57.529 186.083)"/><circle class="cls-3" cx="95.79" cy="52.25" r=".43" transform="rotate(-30.35 21.351 207.243)"/><g class="cls-4"><circle class="cls-3" cx="110.94" cy="20.97" r=".34" transform="rotate(-8.21 -47.35 629.507)"/><circle class="cls-3" cx="116.91" cy="62.35" r=".34" transform="rotate(-8.21 -41.422 670.829)"/><circle class="cls-3" cx="130.66" cy="54.17" r=".34" transform="rotate(-8.21 -27.67 662.642)"/><circle class="cls-3" cx="97.19" cy="29.14" r=".34" transform="rotate(-8.1 -62.102 650.421)"/><circle class="cls-3" cx="126.34" cy="24.93" r=".34" transform="rotate(-8.21 -31.944 633.414)"/><circle class="cls-3" cx="101.29" cy="58.43" r=".34" transform="rotate(-8.21 -56.967 666.912)"/><circle class="cls-3" cx="134.61" cy="38.67" r=".34" transform="rotate(-8.21 -23.688 647.172)"/><circle class="cls-3" cx="93.14" cy="44.65" r=".34" transform="rotate(-8.1 -66.234 666.269)"/></g><circle cx="25.36" cy="25.3" r="14.29" stroke-width=".4" fill="none" stroke="#464450" stroke-miterlimit="10"/><path d="M113.88 56.16a14.51 14.51 0 01-14.5-14.49.2.2 0 11.4 0 14.09 14.09 0 1014.09-14.09.2.2 0 110-.4 14.49 14.49 0 11.01 28.98z" transform="translate(-88.52 -16.37)" fill="url(#铃琨眄_沭噤桢眚_28)"/><circle class="cls-3" cx="94.75" cy="29.15" r=".47" transform="rotate(-56.96 35.396 102.55)"/><circle class="cls-3" cx="133.07" cy="54.08" r=".47" transform="rotate(-56.96 73.716 127.479)"/><circle class="cls-3" cx="136.26" cy="36.88" r=".47" transform="rotate(-56.96 76.914 110.282)"/><circle class="cls-3" cx="91.54" cy="46.35" r=".47" transform="rotate(-56.95 32.2 119.768)"/><circle class="cls-3" cx="109.11" cy="19.35" r=".47" transform="rotate(-56.96 49.752 92.756)"/><circle class="cls-3" cx="118.58" cy="64.11" r=".47" transform="rotate(-56.95 59.243 137.526)"/><circle class="cls-3" cx="126.37" cy="22.46" r=".47" transform="rotate(-56.96 67.013 95.857)"/><circle class="cls-3" cx="101.37" cy="60.87" r=".47" transform="rotate(-56.96 42.02 134.273)"/><g class="cls-4"><circle class="cls-3" cx="112.6" cy="16.78" r=".41" transform="rotate(-3.09 -234.828 1649.557)"/><circle class="cls-3" cx="115.28" cy="66.55" r=".41" transform="rotate(-3.09 -232.275 1699.343)"/><circle class="cls-3" cx="132.48" cy="58.3" r=".41" transform="rotate(-3.09 -215.356 1691.08)"/><circle class="cls-3" cx="95.4" cy="25.01" r=".41" transform="rotate(-3.09 -252.303 1657.804)"/><circle class="cls-3" cx="130.46" cy="23.12" r=".41" transform="rotate(-3.09 -217.006 1655.974)"/><circle class="cls-3" cx="97.14" cy="60.24" r=".41" transform="rotate(-3.09 -250.653 1692.91)"/><circle class="cls-3" cx="138.82" cy="40.31" r=".41" transform="rotate(-3.09 -208.934 1673.073)"/><circle class="cls-3" cx="88.93" cy="43.01" r=".41" transform="rotate(-3.09 -258.725 1675.811)"/></g><circle class="cls-3" cx="103.85" cy="19.51" r=".5" transform="rotate(-24.5 21.886 215.173)"/><circle class="cls-3" cx="124.02" cy="63.77" r=".5" transform="rotate(-24.5 42.034 259.432)"/><circle class="cls-3" cx="136.71" cy="50.15" r=".5" transform="rotate(-24.5 54.732 245.815)"/><circle class="cls-3" cx="91.16" cy="33.12" r=".5" transform="rotate(-24.49 9.216 228.857)"/><circle class="cls-3" cx="122.34" cy="18.91" r=".5" transform="rotate(-24.5 40.366 214.58)"/><circle class="cls-3" cx="105.29" cy="64.5" r=".5" transform="rotate(-24.49 23.344 260.244)"/><circle class="cls-3" cx="136.06" cy="31.55" r=".5" transform="rotate(-24.49 54.108 227.31)"/><circle class="cls-3" cx="91.69" cy="51.77" r=".5" transform="rotate(-24.5 9.723 247.425)"/></svg>