<svg preserveAspectRatio="none" id="Layer_1" data-name="Layer 1" xmlns="http://www.w3.org/2000/svg" viewBox="0 0 108.67 108.67"><defs><linearGradient id="linear-gradient" x1="485.65" y1="238.26" x2="591.31" y2="238.26" gradientUnits="userSpaceOnUse"><stop offset=".02" stop-color="#dd697d"/><stop offset=".98" stop-color="#a13246"/></linearGradient><style>.cls-1{fill:#2e2855}</style></defs><path class="cls-1" d="M538.48 294.33A54.33 54.33 0 11592.81 240a54.4 54.4 0 01-54.33 54.33zm0-100.67A46.33 46.33 0 10584.81 240a46.39 46.39 0 00-46.33-46.33z" transform="translate(-484.15 -185.67)"/><path d="M519.6 289.36a52.84 52.84 0 0118.88-102.19v5a47.84 47.84 0 00-17.1 92.52zm39.45-.68l-1.95-4.61A47.77 47.77 0 00586.31 240h5A52.76 52.76 0 01559 288.68zm23-68.52a48.06 48.06 0 00-15.51-18.93l2.93-4a53.07 53.07 0 0117.13 20.9z" transform="translate(-484.15 -185.67)" fill="url(#linear-gradient)"/><path d="M538.48 280.33A40.33 40.33 0 11578.81 240a40.38 40.38 0 01-40.33 40.33zm0-76.67A36.33 36.33 0 10574.81 240a36.37 36.37 0 00-36.33-36.33z" transform="translate(-484.15 -185.67)" fill="#3d6db8"/><path class="cls-1" d="M538.48 273.33A33.33 33.33 0 11571.81 240a33.37 33.37 0 01-33.33 33.33zm0-64.67A31.33 31.33 0 10569.81 240a31.37 31.37 0 00-31.33-31.33z" transform="translate(-484.15 -185.67)"/><path d="M538.48 273.33v-2a31.12 31.12 0 0011.58-2.22 31.5 31.5 0 0018.27-19.58l1.9.61A33.5 33.5 0 01550.8 271a33.11 33.11 0 01-12.32 2.33zm-19.08-6a33.36 33.36 0 01-9.38-10l1.71-1a31.37 31.37 0 008.82 9.39zm-11.29-35l-1.94-.49a33.56 33.56 0 0122.49-23.64l.59 1.91a31.55 31.55 0 00-21.14 22.17zm59.34-4.22a31.68 31.68 0 00-7.68-11l1.36-1.47a33.67 33.67 0 018.17 11.73z" transform="translate(-484.15 -185.67)" fill="#3ee497"/></svg>