<svg preserveAspectRatio="none" xmlns="http://www.w3.org/2000/svg" viewBox="0 0 379.21 375.36"><defs><style>.cls-1{isolation:isolate;}.cls-2,.cls-3,.cls-5{fill:aqua;}.cls-2{opacity:0.2;}.cls-3,.cls-4,.cls-6{mix-blend-mode:overlay;}.cls-6{opacity:0.4;}</style></defs><title>circle16</title><g class="cls-1"><g id="arc"><circle class="cls-2" cx="188.91" cy="189.77" r="114.3"/><path class="cls-3" d="M420.91,386.55a0.7,0.7,0,0,1,.69-0.71h0a0.7,0.7,0,0,1,.71.69h0a0.71,0.71,0,0,1-.69.71h0A0.7,0.7,0,0,1,420.91,386.55Zm-4.23.63a0.71,0.71,0,0,1-.68-0.73h0a0.71,0.71,0,0,1,.73-0.68h0a0.71,0.71,0,0,1,.68.73h0a0.71,0.71,0,0,1-.7.68h0Zm9.14-.8a0.7,0.7,0,0,1,.65-0.75h0a0.7,0.7,0,0,1,.75.65h0a0.7,0.7,0,0,1-.65.75h0A0.7,0.7,0,0,1,425.81,386.39Zm-14.07.46h0a0.7,0.7,0,0,1-.63-0.77h0a0.7,0.7,0,0,1,.77-0.63h0a0.7,0.7,0,0,1,.63.77h0a0.7,0.7,0,0,1-.7.64h-0.07Zm19-.89a0.7,0.7,0,0,1,.61-0.78h0a0.7,0.7,0,0,1,.78.61h0a0.7,0.7,0,0,1-.61.79h-0.09A0.7,0.7,0,0,1,430.7,386Zm-23.86.29a0.7,0.7,0,0,1-.59-0.8h0a0.7,0.7,0,0,1,.8-0.59h0a0.7,0.7,0,0,1,.59.8h0a0.7,0.7,0,0,1-.69.6h-0.11Zm28.72-1a0.71,0.71,0,0,1,.57-0.82h0a0.7,0.7,0,0,1,.82.57h0a0.7,0.7,0,0,1-.57.82h-0.13A0.71,0.71,0,0,1,435.55,385.25Zm-33.59.11a0.71,0.71,0,0,1-.55-0.83h0a0.71,0.71,0,0,1,.83-0.55h0a0.71,0.71,0,0,1,.55.83h0a0.71,0.71,0,0,1-.69.56H402Zm38.39-1.09a0.71,0.71,0,0,1,.52-0.85h0a0.7,0.7,0,0,1,.85.52h0a0.7,0.7,0,0,1-.52.85h0l-0.17,0h0A0.71,0.71,0,0,1,440.36,384.27Zm-43.2-.06h0a0.7,0.7,0,0,1-.5-0.86h0a0.71,0.71,0,0,1,.86-0.5h0a0.71,0.71,0,0,1,.5.86h0a0.7,0.7,0,0,1-.68.52h0Zm48-1.18a0.7,0.7,0,0,1,.47-0.88h0a0.7,0.7,0,0,1,.88.47h0a0.7,0.7,0,0,1-.47.88h0a0.69,0.69,0,0,1-.2,0h0A0.7,0.7,0,0,1,445.11,383Zm-52.69-.24a0.7,0.7,0,0,1-.45-0.89h0a0.71,0.71,0,0,1,.89-0.45h0a0.7,0.7,0,0,1,.45.89h0a0.7,0.7,0,0,1-.67.48h0A0.66,0.66,0,0,1,392.42,382.79Zm57.36-1.27a0.7,0.7,0,0,1,.42-0.9h0a0.7,0.7,0,0,1,.9.42h0a0.71,0.71,0,0,1-.42.9h0a0.7,0.7,0,0,1-.24,0h0A0.71,0.71,0,0,1,449.78,381.52Zm-62-.42a0.7,0.7,0,0,1-.4-0.91h0a0.7,0.7,0,0,1,.91-0.4h0a0.71,0.71,0,0,1,.4.91h0a0.71,0.71,0,0,1-.65.44h0A0.66,0.66,0,0,1,387.76,381.1Zm66.59-1.34a0.7,0.7,0,0,1,.37-0.92h0a0.7,0.7,0,0,1,.93.37h0a0.71,0.71,0,0,1-.37.93h0a0.68,0.68,0,0,1-.27.06h0A0.7,0.7,0,0,1,454.35,379.76Zm-71.15-.6h0a0.7,0.7,0,0,1-.34-0.93h0a0.7,0.7,0,0,1,.93-0.34h0a0.7,0.7,0,0,1,.34.93h0a0.7,0.7,0,0,1-.64.41h0A0.66,0.66,0,0,1,383.2,379.16Zm75.61-1.41a0.7,0.7,0,0,1,.32-0.94h0a0.7,0.7,0,0,1,.94.32h0a0.7,0.7,0,0,1-.32.94h0a0.7,0.7,0,0,1-.31.07h0A0.71,0.71,0,0,1,458.81,377.75ZM378.76,377a0.7,0.7,0,0,1-.3-0.95h0a0.71,0.71,0,0,1,1-.29h0a0.7,0.7,0,0,1,.29.95h0a0.7,0.7,0,0,1-.62.38h0A0.7,0.7,0,0,1,378.76,377Zm84.4-1.48a0.71,0.71,0,0,1,.27-1h0a0.7,0.7,0,0,1,1,.27h0a0.7,0.7,0,0,1-.26,1h0a0.68,0.68,0,0,1-.35.09h0A0.7,0.7,0,0,1,463.16,375.49Zm-88.71-1a0.7,0.7,0,0,1-.24-1h0a0.7,0.7,0,0,1,1-.24h0a0.7,0.7,0,0,1,.24,1h0a0.7,0.7,0,0,1-.6.34h0A0.7,0.7,0,0,1,374.45,374.53ZM467.38,373a0.7,0.7,0,0,1,.21-1h0a0.7,0.7,0,0,1,1,.21h0a0.7,0.7,0,0,1-.21,1h0a0.71,0.71,0,0,1-.38.11h0A0.7,0.7,0,0,1,467.38,373Zm-97.1-1.13h0a0.71,0.71,0,0,1-.19-1h0a0.71,0.71,0,0,1,1-.19h0a0.7,0.7,0,0,1,.19,1h0a0.71,0.71,0,0,1-.58.31h0A0.71,0.71,0,0,1,370.28,371.86Zm101.17-1.6a0.7,0.7,0,0,1,.15-1h0a0.7,0.7,0,0,1,1,.16h0a0.71,0.71,0,0,1-.16,1h0a0.7,0.7,0,0,1-.41.13h0A0.7,0.7,0,0,1,471.45,370.25ZM366.27,369a0.7,0.7,0,0,1-.13-1h0a0.7,0.7,0,0,1,1-.13h0a0.7,0.7,0,0,1,.13,1h0a0.7,0.7,0,0,1-.56.27h0A0.69,0.69,0,0,1,366.27,369Zm109.1-1.66a0.7,0.7,0,0,1,.1-1h0a0.71,0.71,0,0,1,1,.1h0a0.7,0.7,0,0,1-.1,1h0a0.7,0.7,0,0,1-.44.15h0A0.7,0.7,0,0,1,475.37,367.3Zm-112.94-1.46a0.71,0.71,0,0,1-.07-1h0a0.7,0.7,0,0,1,1-.08h0a0.7,0.7,0,0,1,.07,1h0a0.69,0.69,0,0,1-.53.25h0A0.71,0.71,0,0,1,362.43,365.84Zm116.69-1.71a0.71,0.71,0,0,1,0-1h0a0.7,0.7,0,0,1,1,0h0a0.7,0.7,0,0,1,0,1h0a0.72,0.72,0,0,1-.47.18h0A0.71,0.71,0,0,1,479.11,364.14Zm-120.35-1.62a0.7,0.7,0,0,1,0-1h0a0.7,0.7,0,0,1,1,0h0a0.7,0.7,0,0,1,0,1h0a0.69,0.69,0,0,1-.51.22h0A0.7,0.7,0,0,1,358.76,362.52Zm123.92-1.75a0.71,0.71,0,0,1,0-1h0a0.7,0.7,0,0,1,1,0h0a0.7,0.7,0,0,1,0,1h0a0.69,0.69,0,0,1-.5.21h0A0.7,0.7,0,0,1,482.68,360.77ZM355.29,359a0.7,0.7,0,0,1,0-1h0a0.7,0.7,0,0,1,1,0h0a0.7,0.7,0,0,1,0,1h0a0.71,0.71,0,0,1-.48.19h0A0.7,0.7,0,0,1,355.29,359Zm130.77-1.79a0.7,0.7,0,0,1-.06-1h0a0.71,0.71,0,0,1,1-.06h0a0.7,0.7,0,0,1,.06,1h0a0.7,0.7,0,0,1-.53.24h0A0.71,0.71,0,0,1,486.06,357.21ZM352,355.29a0.7,0.7,0,0,1,.09-1h0a0.7,0.7,0,0,1,1,.09h0a0.7,0.7,0,0,1-.09,1h0a0.71,0.71,0,0,1-.45.16h0A0.7,0.7,0,0,1,352,355.29Zm137.22-1.83a0.7,0.7,0,0,1-.12-1h0a0.7,0.7,0,0,1,1-.12h0a0.7,0.7,0,0,1,.12,1h0a0.7,0.7,0,0,1-.55.27h0A0.71,0.71,0,0,1,489.24,353.46Zm-140.29-2a0.7,0.7,0,0,1,.14-1h0a0.71,0.71,0,0,1,1,.14h0a0.7,0.7,0,0,1-.14,1h0a0.72,0.72,0,0,1-.42.14h0A0.71,0.71,0,0,1,348.95,351.42Zm143.25-1.87a0.7,0.7,0,0,1-.17-1h0a0.7,0.7,0,0,1,1-.17h0a0.71,0.71,0,0,1,.17,1h0a0.7,0.7,0,0,1-.58.3h0A0.69,0.69,0,0,1,492.2,349.55Zm-146.1-2.17a0.71,0.71,0,0,1,.2-1h0a0.7,0.7,0,0,1,1,.2h0a0.71,0.71,0,0,1-.2,1h0a0.71,0.71,0,0,1-.39.12h0A0.7,0.7,0,0,1,346.11,347.37Zm148.84-1.9a0.7,0.7,0,0,1-.23-1h0a0.7,0.7,0,0,1,1-.23h0a0.71,0.71,0,0,1,.22,1h0a0.71,0.71,0,0,1-.6.33h0A0.68,0.68,0,0,1,494.95,345.47Zm-151.46-2.29h0a0.7,0.7,0,0,1,.25-1h0a0.7,0.7,0,0,1,1,.25h0a0.71,0.71,0,0,1-.25,1h0a0.68,0.68,0,0,1-.36.1h0A0.71,0.71,0,0,1,343.49,343.18Zm154-1.92a0.71,0.71,0,0,1-.28-1h0a0.7,0.7,0,0,1,1-.28h0a0.71,0.71,0,0,1,.28,1h0a0.7,0.7,0,0,1-.62.37h0A0.74,0.74,0,0,1,497.46,341.26Zm-156.34-2.41a0.7,0.7,0,0,1,.3-0.95h0a0.7,0.7,0,0,1,.95.3h0a0.7,0.7,0,0,1-.3.95h0a0.69,0.69,0,0,1-.32.08h0A0.7,0.7,0,0,1,341.11,338.85Zm158.62-1.95a0.71,0.71,0,0,1-.33-0.94h0a0.7,0.7,0,0,1,.94-0.33h0a0.71,0.71,0,0,1,.33.94h0a0.71,0.71,0,0,1-.64.4h0A0.71,0.71,0,0,1,499.73,336.9ZM339,334.39h0a0.7,0.7,0,0,1,.36-0.93h0a0.7,0.7,0,0,1,.93.36h0a0.7,0.7,0,0,1-.36.93h0a0.69,0.69,0,0,1-.29.06h0A0.7,0.7,0,0,1,339,334.39Zm162.78-2a0.7,0.7,0,0,1-.38-0.92h0a0.7,0.7,0,0,1,.92-0.38h0a0.7,0.7,0,0,1,.38.92h0a0.71,0.71,0,0,1-.65.44h0A0.71,0.71,0,0,1,501.76,332.42ZM337.1,329.83h0a0.7,0.7,0,0,1,.41-0.91h0a0.7,0.7,0,0,1,.9.41h0a0.7,0.7,0,0,1-.41.91h0a0.67,0.67,0,0,1-.25,0h0A0.71,0.71,0,0,1,337.1,329.83Zm166.44-2a0.7,0.7,0,0,1-.44-0.9h0a0.7,0.7,0,0,1,.9-0.44h0a0.7,0.7,0,0,1,.43.89h0a0.71,0.71,0,0,1-.66.47h0A0.73,0.73,0,0,1,503.54,327.84Zm-168.06-2.68h0a0.7,0.7,0,0,1,.46-0.88h0a0.7,0.7,0,0,1,.88.46h0a0.7,0.7,0,0,1-.46.88h0a0.76,0.76,0,0,1-.21,0h0A0.71,0.71,0,0,1,335.48,325.16Zm169.57-2a0.7,0.7,0,0,1-.49-0.87h0a0.71,0.71,0,0,1,.87-0.49h0a0.71,0.71,0,0,1,.49.87h0a0.71,0.71,0,0,1-.68.51h0ZM334.12,320.4a0.7,0.7,0,0,1,.51-0.85h0a0.7,0.7,0,0,1,.86.51h0a0.7,0.7,0,0,1-.51.85h0l-0.17,0h0A0.7,0.7,0,0,1,334.12,320.4Zm172.18-2a0.7,0.7,0,0,1-.53-0.84h0a0.7,0.7,0,0,1,.84-0.53h0a0.7,0.7,0,0,1,.53.84h0a0.71,0.71,0,0,1-.69.55h0ZM333,315.58h0a0.7,0.7,0,0,1,.55-0.83h0a0.7,0.7,0,0,1,.83.55h0a0.7,0.7,0,0,1-.55.83h-0.14A0.7,0.7,0,0,1,333,315.58Zm174.26-2a0.71,0.71,0,0,1-.58-0.81h0a0.7,0.7,0,0,1,.81-0.58h0a0.7,0.7,0,0,1,.58.81h0a0.7,0.7,0,0,1-.69.59h-0.12ZM332.2,310.7h0a0.7,0.7,0,0,1,.6-0.8h0a0.7,0.7,0,0,1,.79.6h0a0.71,0.71,0,0,1-.6.79h-0.1A0.7,0.7,0,0,1,332.2,310.7ZM508,308.76a0.7,0.7,0,0,1-.62-0.78h0a0.7,0.7,0,0,1,.78-0.62h0a0.7,0.7,0,0,1,.62.78h0a0.7,0.7,0,0,1-.7.63H508Zm-176.34-3a0.71,0.71,0,0,1,.64-0.76h0a0.71,0.71,0,0,1,.76.64h0a0.71,0.71,0,0,1-.64.76h-0.06A0.71,0.71,0,0,1,331.65,305.79Zm176.78-1.91a0.71,0.71,0,0,1-.67-0.74h0a0.71,0.71,0,0,1,.74-0.66h0a0.7,0.7,0,0,1,.66.74h0a0.71,0.71,0,0,1-.7.66h0Zm-177.06-3h0a0.7,0.7,0,0,1,.68-0.72h0a0.71,0.71,0,0,1,.72.68h0a0.7,0.7,0,0,1-.69.72h0A0.7,0.7,0,0,1,331.38,300.85Zm176.53-2.58a1,1,0,0,1,0-.1h0a1,1,0,0,1,0-.1h0a0.71,0.71,0,0,1,.7-0.71h0a0.7,0.7,0,0,1,.7.7h0s0,0.07,0,.1h0a0.89,0.89,0,0,1,0,.1h0a0.71,0.71,0,0,1-.7.7h0A0.71,0.71,0,0,1,507.91,298.27Zm-175.85-1.65a0.7,0.7,0,0,1-.69-0.72h0a0.7,0.7,0,0,1,.72-0.69h0a0.7,0.7,0,0,1,.69.72h0a0.7,0.7,0,0,1-.7.68h0Zm175.7-3.42a0.7,0.7,0,0,1,.66-0.74h0a0.71,0.71,0,0,1,.75.66h0a0.71,0.71,0,0,1-.66.74h0A0.71,0.71,0,0,1,507.76,293.2Zm-175.48-1.48a0.71,0.71,0,0,1-.65-0.76h0a0.7,0.7,0,0,1,.76-0.64h0a0.71,0.71,0,0,1,.64.76h0a0.7,0.7,0,0,1-.7.65h-0.06Zm175.07-3.37h0a0.7,0.7,0,0,1,.62-0.78h0a0.7,0.7,0,0,1,.78.62h0a0.7,0.7,0,0,1-.62.78H508A0.71,0.71,0,0,1,507.35,288.36Zm-174.57-1.52a0.7,0.7,0,0,1-.6-0.79h0a0.7,0.7,0,0,1,.79-0.6h0a0.7,0.7,0,0,1,.6.79h0a0.7,0.7,0,0,1-.7.61h-0.09Zm173.89-3.3a0.71,0.71,0,0,1,.58-0.81h0a0.71,0.71,0,0,1,.81.58h0a0.71,0.71,0,0,1-.58.81h-0.12A0.7,0.7,0,0,1,506.67,283.54ZM333.54,282a0.71,0.71,0,0,1-.56-0.83h0a0.71,0.71,0,0,1,.83-0.56h0a0.7,0.7,0,0,1,.56.82h0a0.71,0.71,0,0,1-.69.57h-0.13Zm172.18-3.23a0.71,0.71,0,0,1,.53-0.84h0a0.7,0.7,0,0,1,.84.53h0a0.7,0.7,0,0,1-.53.84h0l-0.16,0h0A0.71,0.71,0,0,1,505.72,278.76ZM334.57,277.2a0.7,0.7,0,0,1-.51-0.85h0a0.7,0.7,0,0,1,.85-0.51h0a0.7,0.7,0,0,1,.51.85h0a0.7,0.7,0,0,1-.68.53h0ZM504.51,274a0.7,0.7,0,0,1,.48-0.87h0a0.7,0.7,0,0,1,.87.48h0a0.7,0.7,0,0,1-.48.87h0a0.61,0.61,0,0,1-.19,0h0A0.7,0.7,0,0,1,504.51,274Zm-168.64-1.58a0.7,0.7,0,0,1-.46-0.88h0a0.71,0.71,0,0,1,.88-0.46h0a0.7,0.7,0,0,1,.46.88h0a0.71,0.71,0,0,1-.67.49h0A0.75,0.75,0,0,1,335.87,272.47ZM503,269.41a0.7,0.7,0,0,1,.43-0.9h0a0.7,0.7,0,0,1,.89.43h0a0.7,0.7,0,0,1-.43.9h0a0.75,0.75,0,0,1-.23,0h0A0.71,0.71,0,0,1,503,269.41Zm-165.6-1.6a0.7,0.7,0,0,1-.41-0.91h0a0.7,0.7,0,0,1,.91-0.41h0a0.7,0.7,0,0,1,.41.9h0a0.7,0.7,0,0,1-.66.46h0A0.68,0.68,0,0,1,337.44,267.81Zm163.87-2.94a0.7,0.7,0,0,1,.38-0.92h0a0.7,0.7,0,0,1,.92.38h0a0.7,0.7,0,0,1-.38.92h0a0.66,0.66,0,0,1-.27.06h0A0.7,0.7,0,0,1,501.31,264.86Zm-162-1.62a0.7,0.7,0,0,1-.36-0.93h0a0.7,0.7,0,0,1,.93-0.36h0a0.7,0.7,0,0,1,.36.93h0a0.71,0.71,0,0,1-.64.42h0A0.72,0.72,0,0,1,339.27,263.24Zm160.06-2.82a0.7,0.7,0,0,1,.33-0.94h0a0.7,0.7,0,0,1,.94.33h0a0.71,0.71,0,0,1-.33.94h0a0.68,0.68,0,0,1-.31.07h0A0.7,0.7,0,0,1,499.33,260.42Zm-158-1.64a0.7,0.7,0,0,1-.31-0.95h0a0.7,0.7,0,0,1,.95-0.31h0a0.71,0.71,0,0,1,.31.95h0a0.7,0.7,0,0,1-.63.38h0A0.69,0.69,0,0,1,341.34,258.79Zm155.76-2.68a0.7,0.7,0,0,1,.27-1h0a0.7,0.7,0,0,1,1,.28h0a0.71,0.71,0,0,1-.28,1h0a0.73,0.73,0,0,1-.34.08h0A0.7,0.7,0,0,1,497.11,256.1Zm-153.44-1.64a0.71,0.71,0,0,1-.25-1h0a0.71,0.71,0,0,1,1-.25h0a0.71,0.71,0,0,1,.25,1h0a0.7,0.7,0,0,1-.61.35h0A0.72,0.72,0,0,1,343.66,254.46Zm151-2.55h0a0.71,0.71,0,0,1,.23-1h0a0.71,0.71,0,0,1,1,.23h0a0.7,0.7,0,0,1-.23,1h0a0.68,0.68,0,0,1-.37.11h0A0.7,0.7,0,0,1,494.64,251.91Zm-148.42-1.64a0.7,0.7,0,0,1-.2-1h0a0.7,0.7,0,0,1,1-.2h0a0.7,0.7,0,0,1,.2,1h0a0.69,0.69,0,0,1-.59.32h0A0.71,0.71,0,0,1,346.22,250.27Zm145.73-2.41h0a0.7,0.7,0,0,1,.17-1h0a0.7,0.7,0,0,1,1,.17h0a0.7,0.7,0,0,1-.17,1h0a0.71,0.71,0,0,1-.4.13h0A0.7,0.7,0,0,1,491.95,247.86ZM349,246.22a0.7,0.7,0,0,1-.15-1h0a0.7,0.7,0,0,1,1-.14h0a0.7,0.7,0,0,1,.14,1h0a0.7,0.7,0,0,1-.56.28h0A0.7,0.7,0,0,1,349,246.22ZM489,244a0.71,0.71,0,0,1,.12-1h0a0.7,0.7,0,0,1,1,.11h0a0.7,0.7,0,0,1-.12,1h0a0.69,0.69,0,0,1-.44.15h0A0.71,0.71,0,0,1,489,244Zm-137-1.62a0.7,0.7,0,0,1-.09-1h0a0.7,0.7,0,0,1,1-.09h0a0.71,0.71,0,0,1,.09,1h0a0.71,0.71,0,0,1-.54.25h0A0.69,0.69,0,0,1,352,242.34Zm133.9-2.11a0.7,0.7,0,0,1,.06-1h0a0.7,0.7,0,0,1,1,.06h0a0.71,0.71,0,0,1-.06,1h0a0.71,0.71,0,0,1-.47.18h0A0.7,0.7,0,0,1,485.91,240.23Zm-130.68-1.6a0.71,0.71,0,0,1,0-1h0a0.71,0.71,0,0,1,1,0h0a0.71,0.71,0,0,1,0,1h0a0.71,0.71,0,0,1-.52.22h0A0.71,0.71,0,0,1,355.23,238.63Zm127.35-2a0.7,0.7,0,0,1,0-1h0a0.7,0.7,0,0,1,1,0h0a0.7,0.7,0,0,1,0,1h0a0.69,0.69,0,0,1-.49.2h0A0.72,0.72,0,0,1,482.58,236.68Zm-123.94-1.57a0.71,0.71,0,0,1,0-1h0a0.7,0.7,0,0,1,1,0h0a0.7,0.7,0,0,1,0,1h0a0.71,0.71,0,0,1-.49.2h0A0.7,0.7,0,0,1,358.65,235.11Zm120.42-1.8a0.7,0.7,0,0,1,0-1h0a0.71,0.71,0,0,1,1,0h0a0.7,0.7,0,0,1,0,1h0a0.7,0.7,0,0,1-.52.23h0A0.7,0.7,0,0,1,479.07,233.31Zm-116.82-1.53a0.7,0.7,0,0,1,.07-1h0a0.7,0.7,0,0,1,1,.07h0a0.7,0.7,0,0,1-.07,1h0a0.71,0.71,0,0,1-.46.17h0A0.71,0.71,0,0,1,362.25,231.78Zm113.12-1.64a0.7,0.7,0,0,1-.11-1h0a0.7,0.7,0,0,1,1-.11h0a0.71,0.71,0,0,1,.11,1h0a0.71,0.71,0,0,1-.55.26h0A0.69,0.69,0,0,1,475.37,230.14ZM366,228.65a0.7,0.7,0,0,1,.13-1h0a0.7,0.7,0,0,1,1,.13h0a0.71,0.71,0,0,1-.13,1h0a0.69,0.69,0,0,1-.43.14h0A0.7,0.7,0,0,1,366,228.65Zm105.46-1.46a0.7,0.7,0,0,1-.16-1h0a0.7,0.7,0,0,1,1-.16h0a0.71,0.71,0,0,1,.16,1h0a0.71,0.71,0,0,1-.57.29h0A0.73,0.73,0,0,1,471.49,227.19ZM370,225.74a0.71,0.71,0,0,1,.18-1h0a0.71,0.71,0,0,1,1,.18h0a0.71,0.71,0,0,1-.18,1h0a0.7,0.7,0,0,1-.4.12h0A0.7,0.7,0,0,1,370,225.74Zm97.49-1.29a0.7,0.7,0,0,1-.21-1h0a0.7,0.7,0,0,1,1-.21h0a0.7,0.7,0,0,1,.21,1h0a0.7,0.7,0,0,1-.59.32h0A0.68,0.68,0,0,1,467.47,224.45Zm-93.39-1.39a0.7,0.7,0,0,1,.24-1h0a0.7,0.7,0,0,1,1,.24h0a0.71,0.71,0,0,1-.24,1h0a0.71,0.71,0,0,1-.36.1h0A0.7,0.7,0,0,1,374.08,223.05Zm89.21-1.12a0.7,0.7,0,0,1-.27-1h0a0.71,0.71,0,0,1,1-.27h0a0.7,0.7,0,0,1,.27,1h0a0.7,0.7,0,0,1-.62.36h0A0.68,0.68,0,0,1,463.29,221.94Zm-85-1.34a0.7,0.7,0,0,1,.29-0.95h0a0.7,0.7,0,0,1,1,.29h0a0.7,0.7,0,0,1-.29.95h0a0.7,0.7,0,0,1-.33.08h0A0.7,0.7,0,0,1,378.32,220.6Zm80.66-.94a0.7,0.7,0,0,1-.32-0.94h0a0.7,0.7,0,0,1,.94-0.32h0a0.71,0.71,0,0,1,.32.94h0a0.71,0.71,0,0,1-.63.39h0A0.69,0.69,0,0,1,459,219.66Zm-76.29-1.28a0.7,0.7,0,0,1,.34-0.93h0a0.7,0.7,0,0,1,.93.34h0a0.71,0.71,0,0,1-.34.94h0a0.74,0.74,0,0,1-.3.06h0A0.7,0.7,0,0,1,382.69,218.39Zm71.86-.76a0.71,0.71,0,0,1-.37-0.92h0a0.7,0.7,0,0,1,.92-0.37h0a0.7,0.7,0,0,1,.38.92h0a0.71,0.71,0,0,1-.65.43h0A0.7,0.7,0,0,1,454.55,217.63Zm-67.37-1.21a0.7,0.7,0,0,1,.4-0.91h0a0.7,0.7,0,0,1,.91.4h0a0.7,0.7,0,0,1-.39.91h0a0.68,0.68,0,0,1-.26.05h0A0.7,0.7,0,0,1,387.18,216.42Zm62.83-.57a0.71,0.71,0,0,1-.43-0.9h0a0.7,0.7,0,0,1,.9-0.42h0a0.71,0.71,0,0,1,.43.9h0a0.71,0.71,0,0,1-.66.46h0A0.69,0.69,0,0,1,450,215.85Zm-58.24-1.14a0.7,0.7,0,0,1,.45-0.89h0a0.7,0.7,0,0,1,.89.44h0a0.71,0.71,0,0,1-.45.89h0a0.69,0.69,0,0,1-.22,0h0A0.71,0.71,0,0,1,391.78,214.71Zm53.61-.38a0.7,0.7,0,0,1-.47-0.88h0a0.7,0.7,0,0,1,.87-0.47h0a0.7,0.7,0,0,1,.48.87h0a0.7,0.7,0,0,1-.68.5h0Zm-48.92-1.08a0.7,0.7,0,0,1,.5-0.87h0a0.7,0.7,0,0,1,.86.5h0a0.7,0.7,0,0,1-.49.86h0l-0.19,0h0A0.7,0.7,0,0,1,396.46,213.25Zm44.22-.18a0.71,0.71,0,0,1-.52-0.85h0a0.7,0.7,0,0,1,.85-0.52h0a0.7,0.7,0,0,1,.52.85h0a0.7,0.7,0,0,1-.69.54h0Zm-39.46-1a0.7,0.7,0,0,1,.54-0.83h0a0.71,0.71,0,0,1,.84.54h0a0.71,0.71,0,0,1-.55.83h0l-0.14,0h0A0.71,0.71,0,0,1,401.22,212.06Zm34.7,0a0.7,0.7,0,0,1-.57-0.82h0a0.7,0.7,0,0,1,.82-0.57h0a0.7,0.7,0,0,1,.57.82h0a0.71,0.71,0,0,1-.69.58h-0.13ZM406,211.14a0.7,0.7,0,0,1,.59-0.8h0a0.71,0.71,0,0,1,.81.59h0a0.71,0.71,0,0,1-.59.8h-0.11A0.7,0.7,0,0,1,406,211.14Zm25.07,0.21a0.71,0.71,0,0,1-.61-0.78h0a0.7,0.7,0,0,1,.78-0.61h0a0.7,0.7,0,0,1,.61.78h0a0.7,0.7,0,0,1-.7.62h-0.09Zm-20.2-.87a0.7,0.7,0,0,1,.63-0.77h0a0.7,0.7,0,0,1,.77.63h0a0.71,0.71,0,0,1-.63.77H411.6A0.71,0.71,0,0,1,410.9,210.48Zm15.36,0.41a0.7,0.7,0,0,1-.65-0.75h0a0.7,0.7,0,0,1,.75-0.65h0a0.7,0.7,0,0,1,.65.75h0a0.7,0.7,0,0,1-.7.66h0Zm-10.47-.79a0.7,0.7,0,0,1,.67-0.74h0a0.71,0.71,0,0,1,.74.68h0a0.71,0.71,0,0,1-.68.73h0A0.7,0.7,0,0,1,415.8,210.1Zm5.6,0.6a0.7,0.7,0,0,1-.69-0.71h0a0.7,0.7,0,0,1,.71-0.69h0a0.7,0.7,0,0,1,.7.71h0a0.71,0.71,0,0,1-.7.7h0Z" transform="translate(-230.71 -108.91)"/><path class="cls-3" d="M420.93,459.2a0.7,0.7,0,0,1,.7-0.71h0a0.71,0.71,0,0,1,.71.7h0a0.71,0.71,0,0,1-.7.71h0A0.7,0.7,0,0,1,420.93,459.2Zm-4.25.66a0.7,0.7,0,0,1-.69-0.72h0a0.7,0.7,0,0,1,.72-0.69h0a0.7,0.7,0,0,1,.69.72h0a0.71,0.71,0,0,1-.7.69h0Zm9.17-.75a0.71,0.71,0,0,1,.68-0.73h0a0.71,0.71,0,0,1,.73.68h0a0.7,0.7,0,0,1-.68.73h0A0.7,0.7,0,0,1,425.86,459.11Zm-14.12.57a0.71,0.71,0,0,1-.67-0.74h0a0.7,0.7,0,0,1,.74-0.67h0a0.7,0.7,0,0,1,.66.74h0a0.7,0.7,0,0,1-.7.66h0Zm19-.81a0.71,0.71,0,0,1,.65-0.75h0a0.7,0.7,0,0,1,.75.65h0a0.7,0.7,0,0,1-.65.75h0A0.71,0.71,0,0,1,430.78,458.86Zm-24,.48h0a0.7,0.7,0,0,1-.64-0.76h0a0.7,0.7,0,0,1,.76-0.64h0a0.7,0.7,0,0,1,.64.76h0a0.7,0.7,0,0,1-.7.65H406.8Zm28.9-.87a0.7,0.7,0,0,1,.63-0.77h0a0.7,0.7,0,0,1,.77.63h0a0.7,0.7,0,0,1-.63.77H436.4A0.71,0.71,0,0,1,435.7,458.47Zm-33.83.39a0.7,0.7,0,0,1-.62-0.78h0a0.7,0.7,0,0,1,.78-0.62h0a0.7,0.7,0,0,1,.62.78h0a0.7,0.7,0,0,1-.7.63h-0.08Zm38.73-.93a0.7,0.7,0,0,1,.6-0.79h0a0.7,0.7,0,0,1,.79.61h0a0.7,0.7,0,0,1-.61.79H441.3A0.7,0.7,0,0,1,440.6,457.93Zm-43.64.29a0.71,0.71,0,0,1-.6-0.8h0a0.71,0.71,0,0,1,.8-0.59h0a0.71,0.71,0,0,1,.59.8h0a0.7,0.7,0,0,1-.69.6H397Zm48.53-1a0.7,0.7,0,0,1,.58-0.81h0a0.7,0.7,0,0,1,.81.58h0a0.7,0.7,0,0,1-.58.81h-0.11A0.7,0.7,0,0,1,445.48,457.25Zm-53.42.19a0.71,0.71,0,0,1-.57-0.82h0a0.7,0.7,0,0,1,.82-0.57h0a0.7,0.7,0,0,1,.57.82h0a0.7,0.7,0,0,1-.69.58h-0.12Zm58.27-1a0.7,0.7,0,0,1,.56-0.82h0a0.7,0.7,0,0,1,.82.56h0a0.7,0.7,0,0,1-.56.83H451A0.7,0.7,0,0,1,450.34,456.4Zm-63.14.1a0.7,0.7,0,0,1-.55-0.83h0a0.71,0.71,0,0,1,.83-0.55h0a0.71,0.71,0,0,1,.55.83h0a0.71,0.71,0,0,1-.69.56H387.2Zm68-1.09a0.7,0.7,0,0,1,.53-0.84h0a0.7,0.7,0,0,1,.84.53h0a0.7,0.7,0,0,1-.53.84h0l-0.15,0h0A0.7,0.7,0,0,1,455.17,455.42Zm-72.8,0a0.7,0.7,0,0,1-.52-0.85h0a0.7,0.7,0,0,1,.85-0.52h0a0.7,0.7,0,0,1,.52.85h0a0.7,0.7,0,0,1-.68.54h0Zm77.6-1.14a0.71,0.71,0,0,1,.51-0.86h0a0.7,0.7,0,0,1,.85.51h0a0.7,0.7,0,0,1-.51.86h0l-0.18,0h0A0.71,0.71,0,0,1,460,454.28Zm-82.4-.1h0a0.7,0.7,0,0,1-.5-0.87h0a0.71,0.71,0,0,1,.87-0.49h0a0.7,0.7,0,0,1,.49.87h0a0.7,0.7,0,0,1-.68.52h0ZM464.73,453a0.71,0.71,0,0,1,.48-0.87h0a0.71,0.71,0,0,1,.87.48h0a0.71,0.71,0,0,1-.48.87h0l-0.2,0h0A0.71,0.71,0,0,1,464.73,453Zm-91.92-.19a0.7,0.7,0,0,1-.46-0.88h0a0.7,0.7,0,0,1,.88-0.47h0a0.7,0.7,0,0,1,.46.88h0a0.7,0.7,0,0,1-.67.5h0A0.72,0.72,0,0,1,372.81,452.81Zm96.64-1.24a0.7,0.7,0,0,1,.45-0.89h0a0.7,0.7,0,0,1,.89.45h0a0.7,0.7,0,0,1-.45.88h0a0.69,0.69,0,0,1-.22,0h0A0.7,0.7,0,0,1,469.45,451.56Zm-101.36-.29a0.7,0.7,0,0,1-.44-0.89h0a0.7,0.7,0,0,1,.89-0.44h0a0.7,0.7,0,0,1,.44.89h0a0.7,0.7,0,0,1-.66.48h0A0.73,0.73,0,0,1,368.09,451.27Zm106-1.28a0.7,0.7,0,0,1,.43-0.9h0a0.71,0.71,0,0,1,.9.43h0a0.71,0.71,0,0,1-.43.9h0a0.69,0.69,0,0,1-.24,0h0A0.7,0.7,0,0,1,474.12,450Zm-110.71-.39a0.7,0.7,0,0,1-.41-0.9h0a0.7,0.7,0,0,1,.91-0.41h0a0.7,0.7,0,0,1,.41.9h0a0.7,0.7,0,0,1-.66.46h0A0.68,0.68,0,0,1,363.41,449.59Zm115.33-1.33a0.7,0.7,0,0,1,.39-0.91h0a0.7,0.7,0,0,1,.91.39h0a0.7,0.7,0,0,1-.4.91h0a0.74,0.74,0,0,1-.26,0h0A0.7,0.7,0,0,1,478.75,448.27Zm-120-.49h0a0.7,0.7,0,0,1-.38-0.92h0a0.7,0.7,0,0,1,.92-0.38h0a0.7,0.7,0,0,1,.38.92h0a0.71,0.71,0,0,1-.65.44h0A0.71,0.71,0,0,1,358.79,447.78Zm124.51-1.36a0.7,0.7,0,0,1,.37-0.93h0a0.7,0.7,0,0,1,.93.37h0a0.7,0.7,0,0,1-.37.92h0a0.69,0.69,0,0,1-.28.06h0A0.7,0.7,0,0,1,483.3,446.41Zm-129.07-.6a0.71,0.71,0,0,1-.36-0.93h0a0.7,0.7,0,0,1,.93-0.35h0a0.7,0.7,0,0,1,.35.93h0a0.7,0.7,0,0,1-.64.41h0A0.69,0.69,0,0,1,354.23,445.81Zm133.56-1.39a0.71,0.71,0,0,1,.34-0.94h0a0.7,0.7,0,0,1,.94.34h0a0.71,0.71,0,0,1-.34.94h0a0.69,0.69,0,0,1-.3.07h0A0.71,0.71,0,0,1,487.79,444.42Zm-138.06-.71a0.7,0.7,0,0,1-.33-0.94h0a0.7,0.7,0,0,1,.94-0.32h0a0.7,0.7,0,0,1,.33.94h0a0.7,0.7,0,0,1-.63.39h0A0.67,0.67,0,0,1,349.73,443.71Zm142.49-1.42a0.71,0.71,0,0,1,.31-0.95h0a0.7,0.7,0,0,1,.95.31h0a0.71,0.71,0,0,1-.31.95h0a0.73,0.73,0,0,1-.32.07h0A0.71,0.71,0,0,1,492.22,442.29Zm-146.92-.82a0.7,0.7,0,0,1-.3-0.95h0a0.7,0.7,0,0,1,.95-0.3h0a0.71,0.71,0,0,1,.3.95h0a0.71,0.71,0,0,1-.63.38h0A0.71,0.71,0,0,1,345.3,441.47ZM496.59,440a0.7,0.7,0,0,1,.28-1h0a0.7,0.7,0,0,1,1,.28h0a0.7,0.7,0,0,1-.28,1h0a0.71,0.71,0,0,1-.33.08h0A0.71,0.71,0,0,1,496.59,440Zm-155.64-.92a0.71,0.71,0,0,1-.27-1h0a0.7,0.7,0,0,1,1-.26h0a0.7,0.7,0,0,1,.27,1h0a0.71,0.71,0,0,1-.62.36h0A0.69,0.69,0,0,1,340.95,439.1Zm159.94-1.48a0.7,0.7,0,0,1,.25-1h0a0.71,0.71,0,0,1,1,.25h0a0.71,0.71,0,0,1-.25,1h0a0.73,0.73,0,0,1-.36.1h0A0.7,0.7,0,0,1,500.88,437.62Zm-164.22-1a0.7,0.7,0,0,1-.24-1h0a0.7,0.7,0,0,1,1-.24h0a0.7,0.7,0,0,1,.24,1h0a0.71,0.71,0,0,1-.6.34h0A0.73,0.73,0,0,1,336.66,436.59Zm168.44-1.51a0.71,0.71,0,0,1,.22-1h0a0.71,0.71,0,0,1,1,.23h0a0.7,0.7,0,0,1-.22,1h0a0.69,0.69,0,0,1-.37.11h0A0.7,0.7,0,0,1,505.11,435.08ZM332.46,434h0a0.7,0.7,0,0,1-.21-1h0a0.7,0.7,0,0,1,1-.21h0a0.71,0.71,0,0,1,.21,1h0a0.71,0.71,0,0,1-.59.32h0A0.73,0.73,0,0,1,332.46,434Zm176.79-1.53a0.7,0.7,0,0,1,.19-1h0a0.7,0.7,0,0,1,1,.19h0a0.7,0.7,0,0,1-.19,1h0a0.69,0.69,0,0,1-.39.12h0A0.7,0.7,0,0,1,509.25,432.42Zm-180.9-1.23h0a0.7,0.7,0,0,1-.18-1h0a0.7,0.7,0,0,1,1-.18h0a0.7,0.7,0,0,1,.18,1h0a0.7,0.7,0,0,1-.58.3h0A0.69,0.69,0,0,1,328.35,431.19Zm185-1.55a0.71,0.71,0,0,1,.16-1h0a0.7,0.7,0,0,1,1,.17h0a0.7,0.7,0,0,1-.16,1h0a0.7,0.7,0,0,1-.41.13h0A0.71,0.71,0,0,1,513.31,429.64Zm-189-1.33a0.7,0.7,0,0,1-.15-1h0a0.71,0.71,0,0,1,1-.15h0a0.71,0.71,0,0,1,.15,1h0a0.71,0.71,0,0,1-.57.28h0A0.71,0.71,0,0,1,324.32,428.31Zm193-1.58a0.7,0.7,0,0,1,.13-1h0a0.7,0.7,0,0,1,1,.13h0a0.71,0.71,0,0,1-.13,1h0a0.69,0.69,0,0,1-.43.14h0A0.7,0.7,0,0,1,517.28,426.72ZM320.38,425.3a0.7,0.7,0,0,1-.12-1h0a0.7,0.7,0,0,1,1-.12h0a0.71,0.71,0,0,1,.12,1h0a0.7,0.7,0,0,1-.55.27h0A0.7,0.7,0,0,1,320.38,425.3Zm200.79-1.6a0.7,0.7,0,0,1,.1-1h0a0.71,0.71,0,0,1,1,.1h0a0.71,0.71,0,0,1-.1,1h0a0.7,0.7,0,0,1-.44.15h0A0.71,0.71,0,0,1,521.17,423.69Zm-204.64-1.52a0.7,0.7,0,0,1-.09-1h0a0.7,0.7,0,0,1,1-.09h0a0.71,0.71,0,0,1,.09,1h0a0.71,0.71,0,0,1-.54.25h0A0.69,0.69,0,0,1,316.53,422.17ZM525,420.55a0.71,0.71,0,0,1,.07-1h0a0.7,0.7,0,0,1,1,.07h0a0.7,0.7,0,0,1-.07,1h0a0.7,0.7,0,0,1-.46.17h0A0.7,0.7,0,0,1,525,420.55Zm-212.18-1.61a0.7,0.7,0,0,1-.06-1h0a0.7,0.7,0,0,1,1-.06h0a0.7,0.7,0,0,1,.06,1h0a0.7,0.7,0,0,1-.52.24h0A0.7,0.7,0,0,1,312.78,418.93Zm215.87-1.65a0.7,0.7,0,0,1,0-1h0a0.71,0.71,0,0,1,1,0h0a0.71,0.71,0,0,1,0,1h0a0.71,0.71,0,0,1-.48.19h0A0.7,0.7,0,0,1,528.65,417.28Zm-219.52-1.7a0.7,0.7,0,0,1,0-1h0a0.7,0.7,0,0,1,1,0h0a0.7,0.7,0,0,1,0,1h0a0.69,0.69,0,0,1-.51.22h0A0.7,0.7,0,0,1,309.14,415.58Zm223.11-1.67a0.7,0.7,0,0,1,0-1h0a0.7,0.7,0,0,1,1,0h0a0.7,0.7,0,0,1,0,1h0a0.7,0.7,0,0,1-.49.2h0A0.7,0.7,0,0,1,532.25,413.91ZM305.6,412.12h0a0.71,0.71,0,0,1,0-1h0a0.7,0.7,0,0,1,1,0h0a0.7,0.7,0,0,1,0,1h0a0.71,0.71,0,0,1-.5.2h0A0.7,0.7,0,0,1,305.6,412.12Zm230.14-1.69a0.7,0.7,0,0,1,0-1h0a0.7,0.7,0,0,1,1,0h0a0.7,0.7,0,0,1,0,1h0a0.71,0.71,0,0,1-.51.22h0A0.72,0.72,0,0,1,535.74,410.43Zm-233.58-1.88h0a0.71,0.71,0,0,1,0-1h0a0.71,0.71,0,0,1,1,0h0a0.7,0.7,0,0,1,0,1h0a0.71,0.71,0,0,1-.48.19h0A0.71,0.71,0,0,1,302.16,408.55Zm237-1.71a0.71,0.71,0,0,1,0-1h0a0.7,0.7,0,0,1,1,0h0a0.71,0.71,0,0,1,0,1h0a0.71,0.71,0,0,1-.52.23h0A0.72,0.72,0,0,1,539.12,406.84Zm-240.28-2a0.71,0.71,0,0,1,.06-1h0a0.7,0.7,0,0,1,1,.07h0a0.7,0.7,0,0,1-.06,1h0a0.71,0.71,0,0,1-.46.18h0A0.71,0.71,0,0,1,298.84,404.88Zm243.56-1.74a0.71,0.71,0,0,1-.08-1h0a0.7,0.7,0,0,1,1-.08h0a0.71,0.71,0,0,1,.08,1h0a0.71,0.71,0,0,1-.53.25h0A0.69,0.69,0,0,1,542.4,403.14Zm-246.77-2a0.7,0.7,0,0,1,.1-1h0a0.7,0.7,0,0,1,1,.09h0a0.7,0.7,0,0,1-.09,1h0a0.69,0.69,0,0,1-.45.16h0A0.71,0.71,0,0,1,295.63,401.11Zm249.93-1.76a0.7,0.7,0,0,1-.11-1h0a0.7,0.7,0,0,1,1-.11h0a0.7,0.7,0,0,1,.11,1h0a0.7,0.7,0,0,1-.55.26h0A0.69,0.69,0,0,1,545.55,399.35Zm-253-2.11a0.71,0.71,0,0,1,.13-1h0a0.7,0.7,0,0,1,1,.13h0a0.7,0.7,0,0,1-.13,1h0a0.68,0.68,0,0,1-.43.15h0A0.71,0.71,0,0,1,292.54,397.25Zm256.06-1.78a0.71,0.71,0,0,1-.14-1h0a0.71,0.71,0,0,1,1-.14h0a0.71,0.71,0,0,1,.14,1h0a0.69,0.69,0,0,1-.56.28h0A0.7,0.7,0,0,1,548.6,395.47Zm-259-2.18a0.7,0.7,0,0,1,.15-1h0a0.7,0.7,0,0,1,1,.15h0a0.7,0.7,0,0,1-.15,1h0a0.71,0.71,0,0,1-.41.14h0A0.7,0.7,0,0,1,289.57,393.29Zm262-1.8a0.7,0.7,0,0,1-.17-1h0a0.7,0.7,0,0,1,1-.17h0a0.7,0.7,0,0,1,.17,1h0a0.7,0.7,0,0,1-.58.3h0A0.69,0.69,0,0,1,551.52,391.49Zm-264.81-2.24a0.71,0.71,0,0,1,.19-1h0a0.7,0.7,0,0,1,1,.19h0a0.71,0.71,0,0,1-.19,1h0a0.71,0.71,0,0,1-.39.12h0A0.71,0.71,0,0,1,286.71,389.25Zm267.61-1.82a0.7,0.7,0,0,1-.2-1h0a0.7,0.7,0,0,1,1-.2h0a0.7,0.7,0,0,1,.2,1h0a0.7,0.7,0,0,1-.59.32h0A0.71,0.71,0,0,1,554.32,387.43ZM284,385.12a0.7,0.7,0,0,1,.21-1h0a0.7,0.7,0,0,1,1,.21h0a0.7,0.7,0,0,1-.21,1h0a0.7,0.7,0,0,1-.38.11h0A0.7,0.7,0,0,1,284,385.12Zm273-1.84a0.7,0.7,0,0,1-.23-1h0a0.7,0.7,0,0,1,1-.23h0a0.7,0.7,0,0,1,.23,1h0a0.7,0.7,0,0,1-.6.33h0A0.71,0.71,0,0,1,557,383.28Zm-275.6-2.36a0.7,0.7,0,0,1,.24-1h0a0.7,0.7,0,0,1,1,.24h0a0.7,0.7,0,0,1-.24,1h0a0.7,0.7,0,0,1-.36.1h0A0.7,0.7,0,0,1,281.39,380.91ZM559.54,379a0.7,0.7,0,0,1-.26-1h0a0.7,0.7,0,0,1,1-.26h0a0.7,0.7,0,0,1,.26,1h0a0.7,0.7,0,0,1-.61.35h0A0.71,0.71,0,0,1,559.54,379Zm-280.62-2.42a0.7,0.7,0,0,1,.27-1h0a0.7,0.7,0,0,1,1,.27h0a0.71,0.71,0,0,1-.27,1h0a0.7,0.7,0,0,1-.34.09h0A0.71,0.71,0,0,1,278.93,376.63Zm283-1.89a0.71,0.71,0,0,1-.29-1h0a0.7,0.7,0,0,1,1-.28h0a0.7,0.7,0,0,1,.29.95h0a0.7,0.7,0,0,1-.62.37h0A0.71,0.71,0,0,1,562,374.74ZM276.6,372.27a0.7,0.7,0,0,1,.3-0.95h0a0.7,0.7,0,0,1,.95.3h0a0.71,0.71,0,0,1-.3.95h0a0.7,0.7,0,0,1-.32.08h0A0.7,0.7,0,0,1,276.6,372.27Zm287.65-1.91a0.7,0.7,0,0,1-.32-0.94h0a0.71,0.71,0,0,1,.94-0.32h0a0.71,0.71,0,0,1,.32.95h0a0.71,0.71,0,0,1-.63.39h0A0.69,0.69,0,0,1,564.25,370.36ZM274.4,367.85h0a0.71,0.71,0,0,1,.33-0.94h0a0.7,0.7,0,0,1,.94.33h0a0.7,0.7,0,0,1-.33.94h0a0.72,0.72,0,0,1-.3.07h0A0.71,0.71,0,0,1,274.4,367.85Zm292-1.94A0.7,0.7,0,0,1,566,365h0a0.7,0.7,0,0,1,.93-0.35h0a0.71,0.71,0,0,1,.35.93h0a0.71,0.71,0,0,1-.64.41h0A0.73,0.73,0,0,1,566.39,365.91Zm-294.06-2.55h0a0.7,0.7,0,0,1,.36-0.93h0a0.71,0.71,0,0,1,.93.36h0a0.7,0.7,0,0,1-.36.93h0a0.66,0.66,0,0,1-.28.06h0A0.7,0.7,0,0,1,272.34,363.36Zm296.07-2a0.7,0.7,0,0,1-.38-0.92h0a0.7,0.7,0,0,1,.92-0.38h0a0.7,0.7,0,0,1,.38.92h0a0.71,0.71,0,0,1-.65.43h0A0.67,0.67,0,0,1,568.41,361.39Zm-298-2.58a0.7,0.7,0,0,1,.39-0.92h0a0.71,0.71,0,0,1,.92.39h0a0.71,0.71,0,0,1-.39.91h0a0.71,0.71,0,0,1-.26.05h0A0.7,0.7,0,0,1,270.42,358.81Zm299.86-2a0.7,0.7,0,0,1-.4-0.91h0a0.7,0.7,0,0,1,.91-0.4h0a0.71,0.71,0,0,1,.4.91h0a0.71,0.71,0,0,1-.66.45h0A0.72,0.72,0,0,1,570.27,356.82Zm-301.64-2.63h0a0.7,0.7,0,0,1,.42-0.9h0a0.7,0.7,0,0,1,.9.41h0a0.7,0.7,0,0,1-.42.9h0a0.73,0.73,0,0,1-.24,0h0A0.7,0.7,0,0,1,268.63,354.19Zm303.37-2a0.7,0.7,0,0,1-.43-0.9h0a0.7,0.7,0,0,1,.9-0.43h0a0.71,0.71,0,0,1,.43.9h0a0.71,0.71,0,0,1-.67.47h0A0.68,0.68,0,0,1,572,352.18Zm-305-2.66a0.7,0.7,0,0,1,.44-0.89h0a0.7,0.7,0,0,1,.89.44h0a0.7,0.7,0,0,1-.44.89h0a0.73,0.73,0,0,1-.23,0h0A0.7,0.7,0,0,1,267,349.52Zm306.6-2a0.7,0.7,0,0,1-.46-0.88h0a0.7,0.7,0,0,1,.88-0.46h0a0.7,0.7,0,0,1,.46.88h0a0.7,0.7,0,0,1-.67.49h0A0.76,0.76,0,0,1,573.59,347.49Zm-308.1-2.7a0.7,0.7,0,0,1,.47-0.88h0a0.7,0.7,0,0,1,.88.47h0a0.7,0.7,0,0,1-.47.88h0a0.67,0.67,0,0,1-.2,0h0A0.71,0.71,0,0,1,265.49,344.79Zm309.53-2a0.71,0.71,0,0,1-.49-0.87h0a0.7,0.7,0,0,1,.87-0.49h0a0.7,0.7,0,0,1,.49.87h0a0.7,0.7,0,0,1-.68.51h0ZM264.14,340a0.7,0.7,0,0,1,.5-0.86h0a0.7,0.7,0,0,1,.86.5h0a0.71,0.71,0,0,1-.5.86h0l-0.18,0h0A0.7,0.7,0,0,1,264.14,340Zm312.17-2a0.71,0.71,0,0,1-.51-0.85h0a0.71,0.71,0,0,1,.85-0.51h0a0.71,0.71,0,0,1,.51.85h0a0.71,0.71,0,0,1-.69.53h0Zm-313.37-2.79a0.7,0.7,0,0,1,.52-0.84h0a0.7,0.7,0,0,1,.84.52h0a0.7,0.7,0,0,1-.52.84h0l-0.16,0h0A0.7,0.7,0,0,1,262.94,335.23Zm314.51-2a0.71,0.71,0,0,1-.54-0.84h0a0.7,0.7,0,0,1,.84-0.54h0a0.7,0.7,0,0,1,.54.84h0a0.7,0.7,0,0,1-.69.55h-0.15Zm-315.56-2.83h0a0.7,0.7,0,0,1,.55-0.83h0a0.7,0.7,0,0,1,.83.55h0a0.71,0.71,0,0,1-.55.83h-0.14A0.71,0.71,0,0,1,261.89,330.39Zm316.56-2a0.7,0.7,0,0,1-.56-0.82h0a0.7,0.7,0,0,1,.82-0.57h0a0.71,0.71,0,0,1,.56.82h0a0.7,0.7,0,0,1-.69.58h-0.13ZM261,325.52a0.71,0.71,0,0,1,.58-0.81h0a0.7,0.7,0,0,1,.81.58h0a0.7,0.7,0,0,1-.57.81h-0.12A0.71,0.71,0,0,1,261,325.52Zm318.3-2a0.7,0.7,0,0,1-.59-0.8h0a0.7,0.7,0,0,1,.8-0.59h0a0.71,0.71,0,0,1,.59.8h0a0.71,0.71,0,0,1-.7.6h-0.11Zm-319.06-2.91h0a0.7,0.7,0,0,1,.6-0.79h0a0.7,0.7,0,0,1,.79.6h0a0.7,0.7,0,0,1-.6.79h-0.09A0.7,0.7,0,0,1,260.23,320.62Zm319.75-2a0.71,0.71,0,0,1-.62-0.78h0a0.7,0.7,0,0,1,.78-0.61h0a0.7,0.7,0,0,1,.61.78h0a0.7,0.7,0,0,1-.7.62H580Zm-320.36-2.94a0.7,0.7,0,0,1,.63-0.77h0a0.7,0.7,0,0,1,.77.62h0a0.71,0.71,0,0,1-.62.77h-0.08A0.7,0.7,0,0,1,259.62,315.71Zm320.9-2a0.7,0.7,0,0,1-.64-0.76h0a0.7,0.7,0,0,1,.76-0.64h0a0.7,0.7,0,0,1,.64.77h0a0.7,0.7,0,0,1-.7.64h-0.06Zm-321.35-3a0.7,0.7,0,0,1,.65-0.75h0a0.7,0.7,0,0,1,.75.65h0a0.7,0.7,0,0,1-.65.75h-0.05A0.7,0.7,0,0,1,259.17,310.77Zm321.74-1.95a0.7,0.7,0,0,1-.66-0.74h0a0.7,0.7,0,0,1,.75-0.66h0a0.7,0.7,0,0,1,.66.75h0a0.7,0.7,0,0,1-.7.66h0Zm-322-3h0a0.7,0.7,0,0,1,.67-0.74h0a0.7,0.7,0,0,1,.74.67h0a0.7,0.7,0,0,1-.67.74h0A0.71,0.71,0,0,1,258.87,305.83Zm322.29-1.93a0.7,0.7,0,0,1-.68-0.72h0a0.71,0.71,0,0,1,.72-0.68h0a0.7,0.7,0,0,1,.68.72h0a0.7,0.7,0,0,1-.7.68h0Zm-322.44-3a0.7,0.7,0,0,1,.69-0.71h0a0.7,0.7,0,0,1,.71.69h0a0.7,0.7,0,0,1-.69.71h0A0.71,0.71,0,0,1,258.72,300.88Zm321.84-2.61a0.89,0.89,0,0,1,0-.14h0a0.92,0.92,0,0,1,0-.14h0a0.71,0.71,0,0,1,.7-0.7h0a0.7,0.7,0,0,1,.7.7h0a0.61,0.61,0,0,1,0,.14h0a0.61,0.61,0,0,1,0,.14h0a0.7,0.7,0,0,1-.7.7h0A0.7,0.7,0,0,1,580.55,298.27ZM582,298h0Zm-322.55-1.35a0.71,0.71,0,0,1-.69-0.71h0a0.7,0.7,0,0,1,.71-0.69h0a0.7,0.7,0,0,1,.69.71h0a0.71,0.71,0,0,1-.7.69h0Zm321.06-3.56a0.7,0.7,0,0,1,.68-0.73h0a0.71,0.71,0,0,1,.73.68h0a0.7,0.7,0,0,1-.68.72h0A0.7,0.7,0,0,1,580.47,293.09Zm-320.94-1.37a0.71,0.71,0,0,1-.67-0.74h0a0.7,0.7,0,0,1,.74-0.67h0a0.71,0.71,0,0,1,.67.74h0a0.71,0.71,0,0,1-.7.67h0Zm320.71-3.54a0.7,0.7,0,0,1,.66-0.75h0a0.7,0.7,0,0,1,.75.66h0a0.7,0.7,0,0,1-.66.74h0A0.7,0.7,0,0,1,580.24,288.18ZM259.8,286.79a0.7,0.7,0,0,1-.65-0.75h0a0.7,0.7,0,0,1,.75-0.65h0a0.7,0.7,0,0,1,.65.75h0a0.7,0.7,0,0,1-.7.65H259.8Zm320.06-3.5h0a0.7,0.7,0,0,1,.63-0.77h0a0.7,0.7,0,0,1,.77.64h0a0.7,0.7,0,0,1-.64.76h-0.06A0.7,0.7,0,0,1,579.86,283.28Zm-319.64-1.41a0.7,0.7,0,0,1-.63-0.77h0a0.7,0.7,0,0,1,.77-0.62h0a0.7,0.7,0,0,1,.63.77h0a0.7,0.7,0,0,1-.7.63h-0.07Zm319.11-3.47a0.7,0.7,0,0,1,.61-0.78h0a0.71,0.71,0,0,1,.78.61h0a0.71,0.71,0,0,1-.61.78H580A0.7,0.7,0,0,1,579.33,278.4ZM260.79,277a0.7,0.7,0,0,1-.6-0.79h0a0.7,0.7,0,0,1,.79-0.6h0a0.7,0.7,0,0,1,.6.79h0a0.71,0.71,0,0,1-.7.61h-0.1Zm317.86-3.44a0.7,0.7,0,0,1,.59-0.8h0a0.71,0.71,0,0,1,.81.59h0a0.7,0.7,0,0,1-.59.8h-0.11A0.71,0.71,0,0,1,578.65,273.54ZM261.52,272.1a0.7,0.7,0,0,1-.58-0.81h0a0.7,0.7,0,0,1,.81-0.58h0a0.7,0.7,0,0,1,.58.81h0a0.7,0.7,0,0,1-.69.59h-0.12Zm316.31-3.39h0a0.7,0.7,0,0,1,.56-0.82h0a0.71,0.71,0,0,1,.82.56h0a0.71,0.71,0,0,1-.56.82h-0.13A0.7,0.7,0,0,1,577.83,268.7Zm-315.44-1.46a0.71,0.71,0,0,1-.55-0.83h0a0.71,0.71,0,0,1,.83-0.55h0a0.7,0.7,0,0,1,.55.83h0a0.7,0.7,0,0,1-.69.56h-0.14Zm314.47-3.36h0a0.7,0.7,0,0,1,.54-0.84h0a0.7,0.7,0,0,1,.84.53h0a0.7,0.7,0,0,1-.53.84h0l-0.15,0h0A0.7,0.7,0,0,1,576.86,263.89Zm-313.45-1.47a0.7,0.7,0,0,1-.53-0.84h0a0.7,0.7,0,0,1,.84-0.53h0a0.7,0.7,0,0,1,.53.84h0a0.7,0.7,0,0,1-.69.55h0Zm312.32-3.31a0.7,0.7,0,0,1,.51-0.85h0a0.7,0.7,0,0,1,.85.51h0a0.71,0.71,0,0,1-.51.85h0l-0.17,0h0A0.71,0.71,0,0,1,575.73,259.11Zm-311.16-1.48a0.7,0.7,0,0,1-.5-0.86h0a0.7,0.7,0,0,1,.86-0.5h0a0.7,0.7,0,0,1,.5.86h0a0.7,0.7,0,0,1-.68.52h0Zm309.89-3.26a0.7,0.7,0,0,1,.48-0.87h0a0.71,0.71,0,0,1,.87.49h0a0.7,0.7,0,0,1-.48.87h0l-0.19,0h0A0.71,0.71,0,0,1,574.46,254.37Zm-308.57-1.49a0.71,0.71,0,0,1-.48-0.88h0a0.7,0.7,0,0,1,.88-0.47h0a0.71,0.71,0,0,1,.48.88h0a0.71,0.71,0,0,1-.68.5h0A0.66,0.66,0,0,1,265.89,252.88ZM573,249.67a0.7,0.7,0,0,1,.46-0.88h0a0.7,0.7,0,0,1,.89.46h0a0.7,0.7,0,0,1-.46.88h0a0.73,0.73,0,0,1-.21,0h0A0.7,0.7,0,0,1,573,249.67Zm-305.7-1.5a0.7,0.7,0,0,1-.44-0.89h0a0.7,0.7,0,0,1,.89-0.44h0a0.7,0.7,0,0,1,.45.89h0a0.7,0.7,0,0,1-.67.48h0A0.69,0.69,0,0,1,267.35,248.16ZM571.49,245h0a0.7,0.7,0,0,1,.43-0.9h0a0.7,0.7,0,0,1,.9.43h0a0.7,0.7,0,0,1-.43.9h0a0.67,0.67,0,0,1-.23,0h0A0.7,0.7,0,0,1,571.49,245ZM269,243.49a0.7,0.7,0,0,1-.42-0.9h0a0.7,0.7,0,0,1,.9-0.42h0a0.7,0.7,0,0,1,.42.9h0a0.7,0.7,0,0,1-.66.46h0A0.73,0.73,0,0,1,269,243.49Zm300.82-3.08a0.7,0.7,0,0,1,.4-0.91h0a0.7,0.7,0,0,1,.91.4h0a0.7,0.7,0,0,1-.4.91h0a0.74,0.74,0,0,1-.26,0h0A0.7,0.7,0,0,1,569.79,240.41Zm-299.07-1.54a0.7,0.7,0,0,1-.39-0.91h0a0.71,0.71,0,0,1,.92-0.39h0a0.71,0.71,0,0,1,.39.91h0a0.71,0.71,0,0,1-.65.44h0A0.71,0.71,0,0,1,270.72,238.86Zm297.23-3a0.7,0.7,0,0,1,.38-0.92h0a0.7,0.7,0,0,1,.92.37h0a0.7,0.7,0,0,1-.38.92h0a0.67,0.67,0,0,1-.27.06h0A0.71,0.71,0,0,1,567.95,235.87ZM272.61,234.3a0.7,0.7,0,0,1-.36-0.93h0a0.7,0.7,0,0,1,.93-0.36h0a0.71,0.71,0,0,1,.36.93h0a0.7,0.7,0,0,1-.64.42h0A0.75,0.75,0,0,1,272.61,234.3ZM566,231.39a0.7,0.7,0,0,1,.34-0.94h0a0.7,0.7,0,0,1,.93.34h0a0.71,0.71,0,0,1-.34.94h0a0.73,0.73,0,0,1-.3.06h0A0.7,0.7,0,0,1,566,231.39Zm-291.32-1.6a0.7,0.7,0,0,1-.33-0.94h0a0.7,0.7,0,0,1,.94-0.33h0a0.71,0.71,0,0,1,.33.94h0a0.7,0.7,0,0,1-.64.4h0A0.72,0.72,0,0,1,274.65,229.79ZM563.85,227h0a0.7,0.7,0,0,1,.31-0.94h0a0.71,0.71,0,0,1,.95.32h0a0.7,0.7,0,0,1-.32.94h0a0.72,0.72,0,0,1-.31.07h0A0.71,0.71,0,0,1,563.85,227Zm-287-1.62a0.7,0.7,0,0,1-.3-0.95h0a0.7,0.7,0,0,1,.95-0.3h0a0.71,0.71,0,0,1,.31.95h0a0.71,0.71,0,0,1-.63.38h0A0.72,0.72,0,0,1,276.82,225.36Zm284.78-2.73h0a0.7,0.7,0,0,1,.29-1h0a0.71,0.71,0,0,1,1,.29h0a0.7,0.7,0,0,1-.28,1h0a0.71,0.71,0,0,1-.33.08h0A0.71,0.71,0,0,1,561.61,222.62ZM279.14,221a0.7,0.7,0,0,1-.27-1h0a0.7,0.7,0,0,1,1-.27h0a0.7,0.7,0,0,1,.27,1h0a0.7,0.7,0,0,1-.62.36h0A0.69,0.69,0,0,1,279.14,221Zm280.09-2.65a0.71,0.71,0,0,1,.26-1h0a0.7,0.7,0,0,1,1,.26h0a0.7,0.7,0,0,1-.26,1h0a0.7,0.7,0,0,1-.35.09h0A0.7,0.7,0,0,1,559.22,218.34ZM281.58,216.7a0.71,0.71,0,0,1-.25-1h0a0.71,0.71,0,0,1,1-.25h0a0.7,0.7,0,0,1,.25,1h0a0.71,0.71,0,0,1-.61.34h0A0.7,0.7,0,0,1,281.58,216.7Zm275.14-2.56h0a0.7,0.7,0,0,1,.23-1h0a0.7,0.7,0,0,1,1,.23h0a0.7,0.7,0,0,1-.23,1h0a0.68,0.68,0,0,1-.37.11h0A0.69,0.69,0,0,1,556.71,214.14Zm-272.56-1.65a0.71,0.71,0,0,1-.22-1h0a0.71,0.71,0,0,1,1-.21h0a0.71,0.71,0,0,1,.21,1h0a0.7,0.7,0,0,1-.59.33h0A0.7,0.7,0,0,1,284.15,212.48ZM554.07,210a0.7,0.7,0,0,1,.2-1h0a0.71,0.71,0,0,1,1,.2h0a0.71,0.71,0,0,1-.2,1h0a0.71,0.71,0,0,1-.39.12h0A0.7,0.7,0,0,1,554.07,210Zm-267.22-1.66a0.71,0.71,0,0,1-.19-1h0a0.7,0.7,0,0,1,1-.18h0a0.7,0.7,0,0,1,.19,1h0a0.71,0.71,0,0,1-.58.31h0A0.69,0.69,0,0,1,286.85,208.35ZM551.3,206a0.71,0.71,0,0,1,.17-1h0a0.7,0.7,0,0,1,1,.17h0a0.7,0.7,0,0,1-.17,1h0a0.72,0.72,0,0,1-.4.13h0A0.7,0.7,0,0,1,551.3,206ZM289.67,204.3a0.7,0.7,0,0,1-.15-1h0a0.7,0.7,0,0,1,1-.15h0a0.7,0.7,0,0,1,.15,1h0a0.7,0.7,0,0,1-.57.29h0A0.69,0.69,0,0,1,289.67,204.3ZM548.41,202a0.7,0.7,0,0,1,.14-1h0a0.7,0.7,0,0,1,1,.14h0a0.7,0.7,0,0,1-.14,1h0a0.7,0.7,0,0,1-.42.14h0A0.7,0.7,0,0,1,548.41,202Zm-255.8-1.66a0.71,0.71,0,0,1-.13-1h0a0.7,0.7,0,0,1,1-.12h0a0.7,0.7,0,0,1,.13,1h0a0.71,0.71,0,0,1-.56.27h0A0.71,0.71,0,0,1,292.62,200.34Zm252.79-2.22a0.7,0.7,0,0,1,.11-1h0a0.7,0.7,0,0,1,1,.11h0a0.7,0.7,0,0,1-.11,1h0a0.69,0.69,0,0,1-.44.15h0A0.71,0.71,0,0,1,545.4,198.12Zm-249.72-1.65a0.71,0.71,0,0,1-.1-1h0a0.71,0.71,0,0,1,1-.09h0a0.71,0.71,0,0,1,.1,1h0a0.7,0.7,0,0,1-.55.25h0A0.72,0.72,0,0,1,295.68,196.47Zm246.6-2.13a0.7,0.7,0,0,1,.08-1h0a0.71,0.71,0,0,1,1,.08h0a0.71,0.71,0,0,1-.08,1h0a0.7,0.7,0,0,1-.46.17h0A0.69,0.69,0,0,1,542.28,194.34ZM298.86,192.7a0.71,0.71,0,0,1-.06-1h0a0.7,0.7,0,0,1,1-.06h0a0.71,0.71,0,0,1,.07,1h0a0.71,0.71,0,0,1-.53.24h0A0.7,0.7,0,0,1,298.86,192.7Zm240.18-2h0a0.71,0.71,0,0,1,0-1h0a0.7,0.7,0,0,1,1,0h0a0.71,0.71,0,0,1,0,1h0a0.72,0.72,0,0,1-.47.18h0A0.71,0.71,0,0,1,539,190.66ZM302.16,189a0.7,0.7,0,0,1,0-1h0a0.71,0.71,0,0,1,1,0h0a0.71,0.71,0,0,1,0,1h0a0.71,0.71,0,0,1-.51.23h0A0.69,0.69,0,0,1,302.16,189Zm233.53-2h0a0.71,0.71,0,0,1,0-1h0a0.7,0.7,0,0,1,1,0h0a0.7,0.7,0,0,1,0,1h0a0.71,0.71,0,0,1-.49.2h0A0.7,0.7,0,0,1,535.68,187.07Zm-230.12-1.61a0.7,0.7,0,0,1,0-1h0a0.71,0.71,0,0,1,1,0h0a0.71,0.71,0,0,1,0,1h0a0.69,0.69,0,0,1-.5.21h0A0.7,0.7,0,0,1,305.56,185.46Zm226.66-1.87h0a0.7,0.7,0,0,1,0-1h0a0.71,0.71,0,0,1,1,0h0a0.7,0.7,0,0,1,0,1h0a0.7,0.7,0,0,1-.5.21h0A0.7,0.7,0,0,1,532.22,183.59ZM309.07,182a0.71,0.71,0,0,1,0-1h0a0.7,0.7,0,0,1,1,0h0a0.7,0.7,0,0,1,0,1h0a0.69,0.69,0,0,1-.48.19h0A0.7,0.7,0,0,1,309.07,182Zm219.59-1.78a0.7,0.7,0,0,1,0-1h0a0.7,0.7,0,0,1,1,0h0a0.71,0.71,0,0,1,0,1h0a0.71,0.71,0,0,1-.52.23h0A0.7,0.7,0,0,1,528.66,180.22Zm-216-1.57a0.7,0.7,0,0,1,.06-1h0a0.71,0.71,0,0,1,1,.06h0a0.71,0.71,0,0,1-.06,1h0a0.7,0.7,0,0,1-.47.18h0A0.7,0.7,0,0,1,312.68,178.64ZM525,176.95a0.7,0.7,0,0,1-.07-1h0a0.7,0.7,0,0,1,1-.07h0a0.71,0.71,0,0,1,.07,1h0a0.71,0.71,0,0,1-.53.24h0A0.69,0.69,0,0,1,525,176.95ZM316.39,175.4a0.7,0.7,0,0,1,.09-1h0a0.7,0.7,0,0,1,1,.09h0a0.71,0.71,0,0,1-.08,1h0a0.71,0.71,0,0,1-.45.16h0A0.7,0.7,0,0,1,316.39,175.4Zm204.83-1.6h0a0.7,0.7,0,0,1-.1-1h0a0.7,0.7,0,0,1,1-.11h0a0.7,0.7,0,0,1,.11,1h0a0.71,0.71,0,0,1-.55.26h0A0.7,0.7,0,0,1,521.22,173.8Zm-201-1.52a0.7,0.7,0,0,1,.12-1h0a0.71,0.71,0,0,1,1,.12h0a0.71,0.71,0,0,1-.12,1h0a0.71,0.71,0,0,1-.44.15h0A0.7,0.7,0,0,1,320.2,172.27Zm197.16-1.52h0a0.7,0.7,0,0,1-.13-1h0a0.7,0.7,0,0,1,1-.13h0a0.71,0.71,0,0,1,.13,1h0a0.7,0.7,0,0,1-.56.27h0A0.68,0.68,0,0,1,517.36,170.76ZM324.1,169.27a0.71,0.71,0,0,1,.15-1h0a0.71,0.71,0,0,1,1,.15h0a0.7,0.7,0,0,1-.15,1h0a0.7,0.7,0,0,1-.42.14h0A0.71,0.71,0,0,1,324.1,169.27Zm189.31-1.42a0.7,0.7,0,0,1-.17-1h0a0.7,0.7,0,0,1,1-.17h0a0.71,0.71,0,0,1,.17,1h0a0.7,0.7,0,0,1-.57.3h0A0.7,0.7,0,0,1,513.41,167.84Zm-185.31-1.46a0.7,0.7,0,0,1,.18-1h0a0.7,0.7,0,0,1,1,.18h0a0.7,0.7,0,0,1-.18,1h0a0.67,0.67,0,0,1-.4.13h0A0.7,0.7,0,0,1,328.09,166.38ZM509.37,165h0a0.71,0.71,0,0,1-.19-1h0a0.71,0.71,0,0,1,1-.19h0a0.71,0.71,0,0,1,.19,1h0a0.69,0.69,0,0,1-.58.31h0A0.7,0.7,0,0,1,509.37,165Zm-177.19-1.43a0.7,0.7,0,0,1,.2-1h0a0.7,0.7,0,0,1,1,.21h0a0.7,0.7,0,0,1-.21,1h0a0.7,0.7,0,0,1-.38.12h0A0.7,0.7,0,0,1,332.17,163.61Zm173.07-1.24a0.7,0.7,0,0,1-.22-1h0a0.71,0.71,0,0,1,1-.23h0a0.71,0.71,0,0,1,.22,1h0a0.71,0.71,0,0,1-.6.33h0A0.69,0.69,0,0,1,505.24,162.37ZM336.33,161a0.71,0.71,0,0,1,.24-1h0a0.71,0.71,0,0,1,1,.24h0a0.71,0.71,0,0,1-.24,1h0a0.69,0.69,0,0,1-.37.1h0A0.71,0.71,0,0,1,336.33,161ZM501,159.83h0a0.71,0.71,0,0,1-.25-1h0a0.71,0.71,0,0,1,1-.25h0a0.71,0.71,0,0,1,.25,1h0a0.7,0.7,0,0,1-.61.35h0A0.73,0.73,0,0,1,501,159.83Zm-160.47-1.36a0.71,0.71,0,0,1,.27-1h0a0.7,0.7,0,0,1,1,.27h0a0.7,0.7,0,0,1-.26,1h0a0.69,0.69,0,0,1-.35.09h0A0.7,0.7,0,0,1,340.56,158.47Zm156.19-1.06a0.7,0.7,0,0,1-.28-1h0a0.71,0.71,0,0,1,1-.28h0a0.7,0.7,0,0,1,.28,1h0a0.71,0.71,0,0,1-.62.37h0A0.72,0.72,0,0,1,496.75,157.41Zm-151.88-1.32a0.7,0.7,0,0,1,.3-0.95h0a0.7,0.7,0,0,1,.95.3h0a0.7,0.7,0,0,1-.3.95h0a0.69,0.69,0,0,1-.33.08h0A0.7,0.7,0,0,1,344.87,156.09Zm147.52-1h0a0.7,0.7,0,0,1-.31-0.94h0a0.7,0.7,0,0,1,.94-0.31h0a0.71,0.71,0,0,1,.31.95h0a0.71,0.71,0,0,1-.63.39h0A0.69,0.69,0,0,1,492.39,155.13Zm-143.14-1.28a0.71,0.71,0,0,1,.32-0.94h0a0.71,0.71,0,0,1,.94.32h0a0.71,0.71,0,0,1-.32.94h0a0.69,0.69,0,0,1-.31.07h0A0.7,0.7,0,0,1,349.25,153.85ZM488,153a0.7,0.7,0,0,1-.34-0.94h0a0.7,0.7,0,0,1,.94-0.34h0a0.71,0.71,0,0,1,.34.94h0a0.71,0.71,0,0,1-.64.4h0A0.73,0.73,0,0,1,488,153Zm-134.27-1.24a0.7,0.7,0,0,1,.35-0.93h0a0.7,0.7,0,0,1,.93.36h0a0.7,0.7,0,0,1-.35.93h0a0.7,0.7,0,0,1-.29.06h0A0.7,0.7,0,0,1,353.69,151.74ZM483.47,151a0.7,0.7,0,0,1-.37-0.92h0a0.7,0.7,0,0,1,.93-0.37h0a0.7,0.7,0,0,1,.37.92h0a0.7,0.7,0,0,1-.64.43h0A0.7,0.7,0,0,1,483.47,151Zm-125.28-1.2a0.7,0.7,0,0,1,.38-0.92h0a0.71,0.71,0,0,1,.92.38h0a0.7,0.7,0,0,1-.38.92h0a0.66,0.66,0,0,1-.27.06h0A0.7,0.7,0,0,1,358.2,149.77Zm120.72-.68a0.7,0.7,0,0,1-.4-0.91h0a0.7,0.7,0,0,1,.91-0.4h0a0.7,0.7,0,0,1,.4.91h0a0.7,0.7,0,0,1-.65.45h0A0.65,0.65,0,0,1,478.92,149.1Zm-116.15-1.16a0.7,0.7,0,0,1,.41-0.9h0a0.7,0.7,0,0,1,.9.41h0a0.71,0.71,0,0,1-.41.91h0a0.76,0.76,0,0,1-.25,0h0A0.7,0.7,0,0,1,362.77,147.94Zm111.54-.57h0a0.7,0.7,0,0,1-.43-0.9h0a0.7,0.7,0,0,1,.9-0.43h0a0.7,0.7,0,0,1,.43.9h0a0.7,0.7,0,0,1-.66.47h0A0.7,0.7,0,0,1,474.31,147.37Zm-106.9-1.12a0.7,0.7,0,0,1,.44-0.89h0a0.7,0.7,0,0,1,.89.44h0a0.71,0.71,0,0,1-.44.9h0a0.74,0.74,0,0,1-.23,0h0A0.7,0.7,0,0,1,367.41,146.24Zm102.24-.46a0.71,0.71,0,0,1-.45-0.89h0a0.71,0.71,0,0,1,.89-0.45h0a0.71,0.71,0,0,1,.45.89h0a0.71,0.71,0,0,1-.67.49h0A0.65,0.65,0,0,1,469.65,145.78Zm-97.56-1.08a0.7,0.7,0,0,1,.46-0.88h0a0.7,0.7,0,0,1,.88.46h0a0.71,0.71,0,0,1-.46.88h0a0.72,0.72,0,0,1-.21,0h0A0.7,0.7,0,0,1,372.09,144.7Zm92.86-.36h0a0.7,0.7,0,0,1-.48-0.87h0a0.7,0.7,0,0,1,.87-0.48h0a0.7,0.7,0,0,1,.48.87h0a0.7,0.7,0,0,1-.68.51h0A0.65,0.65,0,0,1,465,144.34Zm-88.14-1a0.7,0.7,0,0,1,.49-0.87h0a0.7,0.7,0,0,1,.87.49h0a0.71,0.71,0,0,1-.49.87h0l-0.19,0h0A0.71,0.71,0,0,1,376.81,143.29Zm83.4-.24a0.7,0.7,0,0,1-.51-0.85h0a0.7,0.7,0,0,1,.86-0.51h0a0.7,0.7,0,0,1,.51.85h0a0.7,0.7,0,0,1-.68.53h0Zm-78.63-1a0.7,0.7,0,0,1,.52-0.85h0a0.71,0.71,0,0,1,.85.52h0a0.71,0.71,0,0,1-.52.85h0l-0.17,0h0A0.7,0.7,0,0,1,381.58,142Zm73.86-.13a0.71,0.71,0,0,1-.53-0.84h0a0.7,0.7,0,0,1,.84-0.53h0a0.7,0.7,0,0,1,.53.84h0a0.7,0.7,0,0,1-.69.55h0Zm-69.05-1a0.7,0.7,0,0,1,.54-0.83h0a0.7,0.7,0,0,1,.83.54h0a0.71,0.71,0,0,1-.54.83h-0.15A0.7,0.7,0,0,1,386.39,140.92Zm64.24,0a0.71,0.71,0,0,1-.56-0.82h0a0.71,0.71,0,0,1,.82-0.56h0a0.7,0.7,0,0,1,.56.82h0a0.7,0.7,0,0,1-.69.57h-0.13ZM391.22,140a0.71,0.71,0,0,1,.57-0.82h0a0.7,0.7,0,0,1,.82.57h0a0.7,0.7,0,0,1-.57.82h-0.13A0.71,0.71,0,0,1,391.22,140Zm54.58,0.09a0.7,0.7,0,0,1-.58-0.81h0a0.7,0.7,0,0,1,.81-0.58h0a0.7,0.7,0,0,1,.58.81h0a0.71,0.71,0,0,1-.7.59H445.8Zm-49.71-.9a0.7,0.7,0,0,1,.59-0.8h0a0.71,0.71,0,0,1,.8.59h0a0.7,0.7,0,0,1-.59.79h-0.1A0.71,0.71,0,0,1,396.09,139.16Zm44.85,0.2a0.7,0.7,0,0,1-.61-0.79h0a0.71,0.71,0,0,1,.79-0.61h0a0.7,0.7,0,0,1,.61.79h0a0.7,0.7,0,0,1-.7.62h-0.09Zm-40-.87a0.7,0.7,0,0,1,.62-0.78h0a0.7,0.7,0,0,1,.78.62h0a0.7,0.7,0,0,1-.62.78h-0.08A0.7,0.7,0,0,1,401,138.49Zm35.08,0.31a0.7,0.7,0,0,1-.63-0.77h0a0.71,0.71,0,0,1,.77-0.63h0a0.71,0.71,0,0,1,.63.77h0a0.7,0.7,0,0,1-.7.63h-0.07ZM405.88,138a0.7,0.7,0,0,1,.64-0.76h0a0.71,0.71,0,0,1,.76.64h0a0.71,0.71,0,0,1-.64.76h-0.06A0.7,0.7,0,0,1,405.88,138Zm25.29,0.43a0.7,0.7,0,0,1-.65-0.75h0a0.71,0.71,0,0,1,.75-0.65h0a0.7,0.7,0,0,1,.65.75h0a0.7,0.7,0,0,1-.7.66h0Zm-20.37-.79a0.7,0.7,0,0,1,.66-0.74h0a0.71,0.71,0,0,1,.74.66h0a0.71,0.71,0,0,1-.66.74h0A0.7,0.7,0,0,1,410.8,137.62Zm15.47,0.53h0a0.7,0.7,0,0,1-.68-0.73h0a0.71,0.71,0,0,1,.73-0.68h0a0.7,0.7,0,0,1,.68.73h0a0.7,0.7,0,0,1-.7.68h0Zm-10.54-.75a0.7,0.7,0,0,1,.69-0.72h0a0.71,0.71,0,0,1,.72.69h0a0.71,0.71,0,0,1-.69.72h0A0.7,0.7,0,0,1,415.73,137.4Zm5.63,0.64a0.7,0.7,0,0,1-.7-0.71h0a0.71,0.71,0,0,1,.71-0.7h0a0.71,0.71,0,0,1,.7.71h0a0.7,0.7,0,0,1-.7.7h0Z" transform="translate(-230.71 -108.91)"/><path class="cls-3" d="M419.68,430a0.7,0.7,0,0,1,.7-0.7h0a0.7,0.7,0,0,1,.7.7h0a0.71,0.71,0,0,1-.7.7h0A0.7,0.7,0,0,1,419.68,430Zm-4.25.61a0.7,0.7,0,0,1-.68-0.73h0a0.7,0.7,0,0,1,.73-0.68h0a0.7,0.7,0,0,1,.68.73h0a0.71,0.71,0,0,1-.7.68h0Zm9.17-.68a0.71,0.71,0,0,1,.68-0.73h0a0.71,0.71,0,0,1,.73.68h0a0.7,0.7,0,0,1-.68.73h0A0.7,0.7,0,0,1,424.61,430Zm-14.12.41a0.71,0.71,0,0,1-.65-0.76h0a0.7,0.7,0,0,1,.75-0.65h0a0.7,0.7,0,0,1,.65.75h0a0.7,0.7,0,0,1-.7.65h-0.05Zm19-.66a0.7,0.7,0,0,1,.65-0.75h0a0.7,0.7,0,0,1,.75.65h0a0.71,0.71,0,0,1-.65.76h0A0.71,0.71,0,0,1,429.53,429.71Zm-24,.2a0.7,0.7,0,0,1-.62-0.78h0a0.7,0.7,0,0,1,.77-0.62h0a0.7,0.7,0,0,1,.62.77h0a0.7,0.7,0,0,1-.7.63h-0.08Zm28.88-.63a0.7,0.7,0,0,1,.62-0.78h0a0.7,0.7,0,0,1,.77.62h0a0.7,0.7,0,0,1-.62.78h-0.08A0.7,0.7,0,0,1,434.44,429.28Zm-33.79,0a0.7,0.7,0,0,1-.59-0.8h0a0.7,0.7,0,0,1,.8-0.59h0a0.7,0.7,0,0,1,.59.8h0a0.7,0.7,0,0,1-.69.6h-0.11Zm38.68-.61a0.71,0.71,0,0,1,.59-0.8h0a0.7,0.7,0,0,1,.8.59h0a0.7,0.7,0,0,1-.59.8H440A0.7,0.7,0,0,1,439.32,428.67Zm-43.56-.21a0.7,0.7,0,0,1-.56-0.82h0a0.7,0.7,0,0,1,.82-0.56h0a0.7,0.7,0,0,1,.56.82h0a0.7,0.7,0,0,1-.69.57h-0.13Zm48.42-.58a0.71,0.71,0,0,1,.56-0.82h0a0.7,0.7,0,0,1,.82.56h0a0.7,0.7,0,0,1-.56.82h-0.13A0.7,0.7,0,0,1,444.19,427.88Zm-53.27-.42h0a0.7,0.7,0,0,1-.53-0.84h0a0.71,0.71,0,0,1,.84-0.53h0a0.7,0.7,0,0,1,.53.84h0a0.7,0.7,0,0,1-.69.55h0Zm58.1-.56a0.71,0.71,0,0,1,.53-0.84h0a0.71,0.71,0,0,1,.84.53h0a0.71,0.71,0,0,1-.53.84h0l-0.15,0h0A0.7,0.7,0,0,1,449,426.9Zm-62.91-.63h0a0.7,0.7,0,0,1-.5-0.86h0a0.7,0.7,0,0,1,.86-0.5h0a0.71,0.71,0,0,1,.5.86h0a0.7,0.7,0,0,1-.68.52h0Zm67.7-.53a0.7,0.7,0,0,1,.5-0.86h0a0.7,0.7,0,0,1,.86.5h0a0.7,0.7,0,0,1-.5.86h0l-0.18,0h0A0.71,0.71,0,0,1,453.8,425.74Zm-72.46-.84a0.71,0.71,0,0,1-.47-0.88h0a0.71,0.71,0,0,1,.88-0.47h0a0.71,0.71,0,0,1,.47.88h0a0.71,0.71,0,0,1-.67.5h0A0.69,0.69,0,0,1,381.34,424.91Zm77.2-.5a0.7,0.7,0,0,1,.46-0.88h0a0.71,0.71,0,0,1,.88.47h0a0.71,0.71,0,0,1-.46.88h0a0.72,0.72,0,0,1-.21,0h0A0.7,0.7,0,0,1,458.55,424.41Zm-81.92-1.05a0.71,0.71,0,0,1-.43-0.9h0a0.71,0.71,0,0,1,.9-0.43h0a0.71,0.71,0,0,1,.43.9h0a0.7,0.7,0,0,1-.66.47h0A0.67,0.67,0,0,1,376.62,423.35Zm86.61-.46a0.7,0.7,0,0,1,.43-0.9h0a0.7,0.7,0,0,1,.9.43h0a0.7,0.7,0,0,1-.43.89h0a0.68,0.68,0,0,1-.23,0h0A0.71,0.71,0,0,1,463.23,422.89ZM372,421.63a0.7,0.7,0,0,1-.4-0.91h0a0.7,0.7,0,0,1,.91-0.4h0a0.7,0.7,0,0,1,.4.91h0a0.7,0.7,0,0,1-.65.45h0A0.67,0.67,0,0,1,372,421.63Zm95.89-.43a0.7,0.7,0,0,1,.39-0.91h0a0.7,0.7,0,0,1,.91.4h0a0.71,0.71,0,0,1-.4.91h0a0.67,0.67,0,0,1-.26,0h0A0.7,0.7,0,0,1,467.86,421.2Zm-100.48-1.47a0.7,0.7,0,0,1-.36-0.93h0a0.7,0.7,0,0,1,.93-0.36h0a0.7,0.7,0,0,1,.37.93h0a0.71,0.71,0,0,1-.65.42h0A0.67,0.67,0,0,1,367.38,419.73Zm105-.39a0.71,0.71,0,0,1,.36-0.93h0a0.7,0.7,0,0,1,.93.36h0a0.7,0.7,0,0,1-.36.93h0a0.76,0.76,0,0,1-.28.06h0A0.71,0.71,0,0,1,472.41,419.34Zm-109.54-1.69a0.7,0.7,0,0,1-.33-0.94h0a0.7,0.7,0,0,1,.94-0.33h0a0.71,0.71,0,0,1,.33.94h0a0.7,0.7,0,0,1-.63.4h0A0.69,0.69,0,0,1,362.87,417.65Zm114-.34a0.7,0.7,0,0,1,.33-0.94h0a0.7,0.7,0,0,1,.94.33h0a0.7,0.7,0,0,1-.33.94h0a0.73,0.73,0,0,1-.31.07h0A0.7,0.7,0,0,1,476.88,417.31Zm-118.44-1.89a0.7,0.7,0,0,1-.29-0.95h0a0.71,0.71,0,0,1,1-.3h0a0.71,0.71,0,0,1,.29,1h0a0.7,0.7,0,0,1-.62.37h0A0.7,0.7,0,0,1,358.44,415.42Zm122.84-.3a0.7,0.7,0,0,1,.29-0.95h0a0.7,0.7,0,0,1,.95.29h0a0.7,0.7,0,0,1-.29.95h0a0.7,0.7,0,0,1-.33.08h0A0.7,0.7,0,0,1,481.28,415.11ZM354.1,413h0a0.7,0.7,0,0,1-.26-1h0a0.7,0.7,0,0,1,1-.26h0a0.7,0.7,0,0,1,.26,1h0a0.7,0.7,0,0,1-.61.35h0A0.71,0.71,0,0,1,354.1,413Zm131.49-.26a0.71,0.71,0,0,1,.26-1h0a0.7,0.7,0,0,1,1,.26h0a0.7,0.7,0,0,1-.26,1h0a0.67,0.67,0,0,1-.35.1h0A0.7,0.7,0,0,1,485.59,412.76Zm4.22-2.52a0.7,0.7,0,0,1,.22-1h0a0.71,0.71,0,0,1,1,.22h0a0.71,0.71,0,0,1-.22,1h0a0.7,0.7,0,0,1-.37.11h0A0.7,0.7,0,0,1,489.82,410.24Zm-140,.22a0.7,0.7,0,0,1-.22-1h0a0.7,0.7,0,0,1,1-.22h0a0.71,0.71,0,0,1,.22,1h0a0.71,0.71,0,0,1-.6.33h0A0.72,0.72,0,0,1,349.86,410.45Zm144.09-2.89a0.71,0.71,0,0,1,.18-1h0a0.7,0.7,0,0,1,1,.18h0a0.7,0.7,0,0,1-.18,1h0a0.7,0.7,0,0,1-.4.12h0A0.71,0.71,0,0,1,493.95,407.56Zm-148.24.17a0.71,0.71,0,0,1-.18-1h0a0.71,0.71,0,0,1,1-.18h0a0.7,0.7,0,0,1,.18,1h0a0.7,0.7,0,0,1-.58.31h0A0.72,0.72,0,0,1,345.71,407.73Zm152.27-3a0.7,0.7,0,0,1,.15-1h0a0.7,0.7,0,0,1,1,.15h0a0.7,0.7,0,0,1-.15,1h0a0.7,0.7,0,0,1-.42.14h0A0.7,0.7,0,0,1,498,404.73Zm-156.31.13a0.7,0.7,0,0,1-.15-1h0a0.71,0.71,0,0,1,1-.15h0a0.7,0.7,0,0,1,.15,1h0a0.7,0.7,0,0,1-.56.29h0A0.68,0.68,0,0,1,341.67,404.86Zm160.23-3.11a0.7,0.7,0,0,1,.11-1h0a0.7,0.7,0,0,1,1,.11h0a0.7,0.7,0,0,1-.11,1h0a0.71,0.71,0,0,1-.44.15h0A0.69,0.69,0,0,1,501.9,401.75Zm-164.16.09a0.7,0.7,0,0,1-.11-1h0a0.7,0.7,0,0,1,1-.11h0a0.7,0.7,0,0,1,.11,1h0a0.7,0.7,0,0,1-.55.26h0A0.71,0.71,0,0,1,337.74,401.84Zm168-3.21a0.71,0.71,0,0,1,.07-1h0a0.7,0.7,0,0,1,1,.07h0a0.7,0.7,0,0,1-.07,1h0a0.69,0.69,0,0,1-.46.17h0A0.71,0.71,0,0,1,505.7,398.63Zm-171.78,0a0.71,0.71,0,0,1-.08-1h0a0.7,0.7,0,0,1,1-.07h0a0.7,0.7,0,0,1,.08,1h0a0.72,0.72,0,0,1-.53.24h0A0.7,0.7,0,0,1,333.93,398.68Zm175.47-3.31a0.71,0.71,0,0,1,0-1h0a0.7,0.7,0,0,1,1,0h0a0.71,0.71,0,0,1,0,1h0a0.71,0.71,0,0,1-.48.19h0A0.71,0.71,0,0,1,509.39,395.37Zm-179.16,0a0.71,0.71,0,0,1,0-1h0a0.7,0.7,0,0,1,1,0h0a0.7,0.7,0,0,1,0,1h0a0.69,0.69,0,0,1-.51.23h0A0.69,0.69,0,0,1,330.23,395.38ZM513,392a0.7,0.7,0,0,1,0-1h0a0.7,0.7,0,0,1,1,0h0a0.7,0.7,0,0,1,0,1h0a0.71,0.71,0,0,1-.5.2h0A0.7,0.7,0,0,1,513,392Zm-186.29,0h0a0.71,0.71,0,0,1,0-1h0a0.7,0.7,0,0,1,1,0h0a0.7,0.7,0,0,1,0,1h0a0.71,0.71,0,0,1-.5.21h0A0.7,0.7,0,0,1,326.67,391.94Zm189.73-3.49a0.71,0.71,0,0,1,0-1h0a0.71,0.71,0,0,1,1,0h0a0.7,0.7,0,0,1,0,1h0a0.69,0.69,0,0,1-.51.23h0A0.7,0.7,0,0,1,516.4,388.45Zm-193.17-.07a0.7,0.7,0,0,1,0-1h0a0.7,0.7,0,0,1,1,0h0a0.71,0.71,0,0,1,0,1h0a0.7,0.7,0,0,1-.48.19h0A0.7,0.7,0,0,1,323.23,388.37Zm196.48-3.58a0.7,0.7,0,0,1-.07-1h0a0.7,0.7,0,0,1,1-.07h0a0.7,0.7,0,0,1,.07,1h0a0.7,0.7,0,0,1-.53.24h0A0.69,0.69,0,0,1,519.7,384.79Zm-199.78-.11h0a0.7,0.7,0,0,1,.07-1h0a0.71,0.71,0,0,1,1,.07h0a0.7,0.7,0,0,1-.07,1h0a0.69,0.69,0,0,1-.46.17h0A0.7,0.7,0,0,1,319.93,384.68ZM522.87,381a0.7,0.7,0,0,1-.11-1h0a0.7,0.7,0,0,1,1-.11h0a0.7,0.7,0,0,1,.11,1h0a0.7,0.7,0,0,1-.55.26h0A0.71,0.71,0,0,1,522.87,381Zm-206.11-.14h0a0.7,0.7,0,0,1,.11-1h0a0.7,0.7,0,0,1,1,.11h0a0.7,0.7,0,0,1-.11,1h0a0.71,0.71,0,0,1-.44.15h0A0.7,0.7,0,0,1,316.77,380.87Zm209.13-3.75a0.7,0.7,0,0,1-.15-1h0a0.71,0.71,0,0,1,1-.14h0a0.71,0.71,0,0,1,.15,1h0a0.71,0.71,0,0,1-.57.28h0A0.69,0.69,0,0,1,525.9,377.12Zm-212.15-.17a0.71,0.71,0,0,1,.15-1h0a0.71,0.71,0,0,1,1,.15h0a0.7,0.7,0,0,1-.15,1h0a0.69,0.69,0,0,1-.42.14h0A0.7,0.7,0,0,1,313.75,376.95Zm215-3.83a0.7,0.7,0,0,1-.19-1h0a0.71,0.71,0,0,1,1-.19h0a0.71,0.71,0,0,1,.19,1h0a0.71,0.71,0,0,1-.58.31h0A0.71,0.71,0,0,1,528.78,373.12Zm-217.9-.2h0a0.7,0.7,0,0,1,.19-1h0a0.7,0.7,0,0,1,1,.18h0a0.7,0.7,0,0,1-.18,1h0a0.69,0.69,0,0,1-.39.12h0A0.7,0.7,0,0,1,310.88,372.92ZM531.51,369a0.7,0.7,0,0,1-.22-1h0a0.71,0.71,0,0,1,1-.22h0a0.71,0.71,0,0,1,.22,1h0a0.7,0.7,0,0,1-.59.33h0A0.7,0.7,0,0,1,531.51,369Zm-223.33-.23h0a0.7,0.7,0,0,1,.22-1h0a0.7,0.7,0,0,1,1,.22h0a0.7,0.7,0,0,1-.22,1h0a0.69,0.69,0,0,1-.37.11h0A0.7,0.7,0,0,1,308.17,368.78Zm-2.56-4.23h0a0.7,0.7,0,0,1,.26-1h0a0.7,0.7,0,0,1,1,.26h0a0.7,0.7,0,0,1-.26,1h0a0.68,0.68,0,0,1-.35.09h0A0.71,0.71,0,0,1,305.61,364.55Zm228.47,0.25a0.71,0.71,0,0,1-.26-1h0a0.71,0.71,0,0,1,1-.26h0a0.71,0.71,0,0,1,.26,1h0a0.7,0.7,0,0,1-.61.35h0A0.7,0.7,0,0,1,534.08,364.81Zm-230.87-4.58a0.71,0.71,0,0,1,.29-0.95h0a0.7,0.7,0,0,1,1,.29h0a0.7,0.7,0,0,1-.29.95h0a0.7,0.7,0,0,1-.33.08h0A0.71,0.71,0,0,1,303.22,360.22ZM536.5,360.5a0.7,0.7,0,0,1-.29-0.95h0a0.7,0.7,0,0,1,1-.29h0a0.71,0.71,0,0,1,.29.95h0a0.71,0.71,0,0,1-.62.38h0A0.7,0.7,0,0,1,536.5,360.5ZM301,355.82a0.7,0.7,0,0,1,.33-0.94h0a0.71,0.71,0,0,1,.94.33h0a0.71,0.71,0,0,1-.33.94h0a0.69,0.69,0,0,1-.31.07h0A0.7,0.7,0,0,1,301,355.82Zm237.77,0.29a0.7,0.7,0,0,1-.33-0.94h0a0.7,0.7,0,0,1,.94-0.33h0a0.7,0.7,0,0,1,.33.94h0a0.71,0.71,0,0,1-.64.4h0A0.66,0.66,0,0,1,538.75,356.11Zm-239.83-4.78h0a0.7,0.7,0,0,1,.36-0.93h0a0.7,0.7,0,0,1,.93.36h0a0.7,0.7,0,0,1-.36.93h0a0.66,0.66,0,0,1-.28.06h0A0.7,0.7,0,0,1,298.92,351.33Zm241.92,0.31a0.7,0.7,0,0,1-.36-0.93h0a0.7,0.7,0,0,1,.93-0.36h0a0.7,0.7,0,0,1,.36.93h0a0.7,0.7,0,0,1-.64.42h0A0.72,0.72,0,0,1,540.84,351.63ZM297,346.77h0a0.7,0.7,0,0,1,.4-0.91h0a0.7,0.7,0,0,1,.91.4h0a0.7,0.7,0,0,1-.4.91h0a0.72,0.72,0,0,1-.26,0h0A0.7,0.7,0,0,1,297,346.77Zm245.73,0.31a0.7,0.7,0,0,1-.4-0.91h0a0.71,0.71,0,0,1,.91-0.4h0a0.71,0.71,0,0,1,.4.91h0a0.71,0.71,0,0,1-.65.45h0A0.64,0.64,0,0,1,542.75,347.08Zm-247.46-5a0.7,0.7,0,0,1,.43-0.9h0a0.7,0.7,0,0,1,.89.43h0a0.7,0.7,0,0,1-.43.9h0a0.76,0.76,0,0,1-.23,0h0A0.7,0.7,0,0,1,295.3,342.12Zm249.2,0.34a0.71,0.71,0,0,1-.43-0.9h0a0.7,0.7,0,0,1,.9-0.43h0a0.71,0.71,0,0,1,.43.9h0a0.71,0.71,0,0,1-.67.47h0A0.76,0.76,0,0,1,544.5,342.46Zm-250.75-5h0a0.71,0.71,0,0,1,.46-0.88h0a0.7,0.7,0,0,1,.88.46h0a0.71,0.71,0,0,1-.47.88h0a0.68,0.68,0,0,1-.2,0h0A0.71,0.71,0,0,1,293.75,337.42Zm252.32,0.36a0.71,0.71,0,0,1-.46-0.88h0a0.7,0.7,0,0,1,.88-0.46h0a0.71,0.71,0,0,1,.46.88h0a0.7,0.7,0,0,1-.67.5h0A0.73,0.73,0,0,1,546.06,337.78Zm-253.69-5.12h0a0.7,0.7,0,0,1,.5-0.86h0a0.7,0.7,0,0,1,.86.5h0a0.7,0.7,0,0,1-.5.86h0l-0.18,0h0A0.7,0.7,0,0,1,292.37,332.66ZM547.45,333a0.7,0.7,0,0,1-.5-0.86h0a0.7,0.7,0,0,1,.86-0.5h0a0.7,0.7,0,0,1,.5.86h0a0.71,0.71,0,0,1-.68.52h0Zm-256.27-5.19h0a0.71,0.71,0,0,1,.53-0.84h0a0.71,0.71,0,0,1,.84.53h0a0.7,0.7,0,0,1-.53.84h0l-0.16,0h0A0.7,0.7,0,0,1,291.18,327.86Zm257.48,0.42a0.7,0.7,0,0,1-.53-0.84h0a0.7,0.7,0,0,1,.84-0.53h0a0.7,0.7,0,0,1,.53.84h0a0.71,0.71,0,0,1-.69.55h0ZM290.17,323a0.7,0.7,0,0,1,.56-0.82h0a0.71,0.71,0,0,1,.82.56h0a0.7,0.7,0,0,1-.56.82h-0.13A0.7,0.7,0,0,1,290.17,323Zm259.51,0.44a0.7,0.7,0,0,1-.56-0.82h0a0.7,0.7,0,0,1,.82-0.56h0a0.71,0.71,0,0,1,.56.82h0a0.7,0.7,0,0,1-.69.57h-0.13Zm-260.34-5.33h0a0.7,0.7,0,0,1,.59-0.8h0a0.7,0.7,0,0,1,.8.59h0a0.71,0.71,0,0,1-.59.8H290A0.71,0.71,0,0,1,289.34,318.13Zm261.19,0.47a0.71,0.71,0,0,1-.59-0.8h0a0.71,0.71,0,0,1,.8-0.59h0a0.7,0.7,0,0,1,.59.8h0a0.71,0.71,0,0,1-.7.6h-0.1ZM288.7,313.21a0.7,0.7,0,0,1,.62-0.78h0a0.71,0.71,0,0,1,.78.62h0a0.7,0.7,0,0,1-.62.77H289.4A0.71,0.71,0,0,1,288.7,313.21Zm262.5,0.5a0.7,0.7,0,0,1-.62-0.78h0a0.7,0.7,0,0,1,.78-0.62h0a0.71,0.71,0,0,1,.62.78h0a0.7,0.7,0,0,1-.7.62h-0.08Zm-263-5.43h0a0.7,0.7,0,0,1,.65-0.75h0a0.7,0.7,0,0,1,.75.65h0a0.7,0.7,0,0,1-.65.75h-0.05A0.71,0.71,0,0,1,288.24,308.28Zm263.44,0.53a0.7,0.7,0,0,1-.65-0.75h0a0.7,0.7,0,0,1,.75-0.65h0a0.7,0.7,0,0,1,.65.75h0a0.71,0.71,0,0,1-.7.65h-0.05ZM288,303.34a0.71,0.71,0,0,1,.68-0.73h0a0.7,0.7,0,0,1,.73.68h0a0.7,0.7,0,0,1-.68.73h0A0.7,0.7,0,0,1,288,303.34Zm264,0.56a0.7,0.7,0,0,1-.68-0.73h0a0.7,0.7,0,0,1,.73-0.68h0a0.7,0.7,0,0,1,.68.73h0a0.71,0.71,0,0,1-.7.68h0Zm-264.11-5.51a0.71,0.71,0,0,1,.7-0.7h0a0.7,0.7,0,0,1,.7.7h0a0.7,0.7,0,0,1-.7.7h0A0.7,0.7,0,0,1,287.86,298.39Zm263.52-.12a0.67,0.67,0,0,1,0-.12h0a0.67,0.67,0,0,1,0-.12h0a0.71,0.71,0,0,1,.7-0.71h0a0.71,0.71,0,0,1,.7.7h0a0.67,0.67,0,0,1,0,.12h0a0.63,0.63,0,0,1,0,.12h0a0.7,0.7,0,0,1-.7.7h0A0.71,0.71,0,0,1,551.38,298.27Zm-263.52.12h0Zm0.77-4.22a0.7,0.7,0,0,1-.68-0.73h0a0.7,0.7,0,0,1,.73-0.68h0a0.71,0.71,0,0,1,.68.73h0a0.71,0.71,0,0,1-.7.68h0Zm262.65-1h0a0.71,0.71,0,0,1,.68-0.73h0a0.71,0.71,0,0,1,.73.68h0a0.7,0.7,0,0,1-.68.73h0A0.7,0.7,0,0,1,551.28,293.14Zm-262.42-3.89a0.7,0.7,0,0,1-.65-0.75h0a0.7,0.7,0,0,1,.75-0.65h0a0.7,0.7,0,0,1,.65.75h0a0.7,0.7,0,0,1-.7.65h-0.05Zm262.14-1a0.7,0.7,0,0,1,.65-0.75h0a0.71,0.71,0,0,1,.76.65h0a0.71,0.71,0,0,1-.65.76h-0.05A0.7,0.7,0,0,1,551,288.24ZM289.3,284.34a0.7,0.7,0,0,1-.62-0.78h0a0.7,0.7,0,0,1,.78-0.62h0a0.7,0.7,0,0,1,.62.77h0a0.7,0.7,0,0,1-.7.63H289.3Zm261.25-1a0.7,0.7,0,0,1,.62-0.78h0a0.7,0.7,0,0,1,.78.62h0a0.7,0.7,0,0,1-.62.78h-0.08A0.7,0.7,0,0,1,550.55,283.37ZM289.9,279.45a0.7,0.7,0,0,1-.59-0.8h0a0.7,0.7,0,0,1,.8-0.59h0a0.7,0.7,0,0,1,.59.8h0a0.71,0.71,0,0,1-.69.6H289.9Zm260-.94h0a0.7,0.7,0,0,1,.59-0.8h0a0.71,0.71,0,0,1,.8.59h0a0.71,0.71,0,0,1-.59.8H550.6A0.7,0.7,0,0,1,549.91,278.51Zm-259.22-3.93a0.71,0.71,0,0,1-.56-0.82h0a0.71,0.71,0,0,1,.82-0.56h0a0.71,0.71,0,0,1,.56.82h0a0.71,0.71,0,0,1-.69.58h-0.13Zm258.39-.9h0a0.7,0.7,0,0,1,.56-0.82h0a0.7,0.7,0,0,1,.82.56h0a0.7,0.7,0,0,1-.56.82h-0.13A0.7,0.7,0,0,1,549.08,273.68Zm-257.42-3.93a0.7,0.7,0,0,1-.53-0.84h0a0.71,0.71,0,0,1,.84-0.53h0a0.7,0.7,0,0,1,.53.84h0a0.7,0.7,0,0,1-.68.55h0Zm256.42-.87h0a0.71,0.71,0,0,1,.53-0.84h0a0.71,0.71,0,0,1,.84.53h0a0.71,0.71,0,0,1-.53.84h0l-0.16,0h0A0.71,0.71,0,0,1,548.08,268.89ZM292.81,265a0.7,0.7,0,0,1-.5-0.86h0a0.7,0.7,0,0,1,.86-0.5h0a0.7,0.7,0,0,1,.5.86h0a0.7,0.7,0,0,1-.68.52h0Zm254.08-.84a0.7,0.7,0,0,1,.5-0.86h0a0.71,0.71,0,0,1,.86.5h0a0.71,0.71,0,0,1-.5.86h0l-0.18,0h0A0.7,0.7,0,0,1,546.89,264.13Zm-252.75-3.91a0.7,0.7,0,0,1-.46-0.88h0a0.7,0.7,0,0,1,.88-0.46h0a0.7,0.7,0,0,1,.47.88h0a0.71,0.71,0,0,1-.67.5h0A0.71,0.71,0,0,1,294.14,260.22Zm251.39-.8h0a0.7,0.7,0,0,1,.46-0.88h0a0.7,0.7,0,0,1,.88.46h0a0.71,0.71,0,0,1-.46.88h0a0.72,0.72,0,0,1-.21,0h0A0.71,0.71,0,0,1,545.53,259.42Zm-249.87-3.9a0.71,0.71,0,0,1-.43-0.9h0a0.7,0.7,0,0,1,.89-0.43h0a0.7,0.7,0,0,1,.43.9h0a0.71,0.71,0,0,1-.67.47h0A0.67,0.67,0,0,1,295.66,255.52ZM544,254.77a0.7,0.7,0,0,1,.43-0.9h0a0.7,0.7,0,0,1,.9.43h0a0.7,0.7,0,0,1-.43.9h0a0.67,0.67,0,0,1-.23,0h0A0.7,0.7,0,0,1,544,254.77Zm-246.64-3.9a0.7,0.7,0,0,1-.4-0.91h0a0.71,0.71,0,0,1,.91-0.4h0a0.7,0.7,0,0,1,.4.91h0a0.7,0.7,0,0,1-.65.45h0A0.67,0.67,0,0,1,297.35,250.87Zm244.93-.69a0.71,0.71,0,0,1,.4-0.91h0a0.7,0.7,0,0,1,.91.4h0a0.7,0.7,0,0,1-.39.91h0a0.67,0.67,0,0,1-.26,0h0A0.71,0.71,0,0,1,542.28,250.18ZM299.21,246.3a0.7,0.7,0,0,1-.37-0.93h0a0.7,0.7,0,0,1,.93-0.36h0a0.7,0.7,0,0,1,.37.93h0a0.7,0.7,0,0,1-.65.42h0A0.66,0.66,0,0,1,299.21,246.3Zm241.19-.63h0a0.71,0.71,0,0,1,.36-0.93h0a0.71,0.71,0,0,1,.93.36h0a0.7,0.7,0,0,1-.36.93h0a0.69,0.69,0,0,1-.29.06h0A0.7,0.7,0,0,1,540.4,245.67ZM301.25,241.8a0.7,0.7,0,0,1-.33-0.94h0a0.7,0.7,0,0,1,.94-0.33h0a0.7,0.7,0,0,1,.33.94h0a0.71,0.71,0,0,1-.64.4h0A0.72,0.72,0,0,1,301.25,241.8Zm237.11-.57a0.7,0.7,0,0,1,.33-0.94h0a0.7,0.7,0,0,1,.94.33h0a0.7,0.7,0,0,1-.33.94h0a0.72,0.72,0,0,1-.31.07h0A0.71,0.71,0,0,1,538.35,241.23Zm-234.91-3.84a0.7,0.7,0,0,1-.3-0.95h0a0.71,0.71,0,0,1,.95-0.3h0a0.71,0.71,0,0,1,.3,1h0a0.71,0.71,0,0,1-.62.37h0A0.67,0.67,0,0,1,303.45,237.39Zm232.69-.51a0.7,0.7,0,0,1,.29-1h0a0.7,0.7,0,0,1,1,.29h0a0.71,0.71,0,0,1-.29.95h0a0.7,0.7,0,0,1-.33.08h0A0.71,0.71,0,0,1,536.14,236.87Zm-230.33-3.82a0.7,0.7,0,0,1-.26-1h0a0.7,0.7,0,0,1,1-.26h0a0.7,0.7,0,0,1,.26,1h0a0.7,0.7,0,0,1-.61.35h0A0.71,0.71,0,0,1,305.81,233.06Zm228-.46h0a0.7,0.7,0,0,1,.26-1h0a0.7,0.7,0,0,1,1,.25h0a0.71,0.71,0,0,1-.25,1h0a0.73,0.73,0,0,1-.36.09h0A0.7,0.7,0,0,1,533.77,232.59Zm-225.43-3.78a0.7,0.7,0,0,1-.23-1h0a0.7,0.7,0,0,1,1-.22h0a0.7,0.7,0,0,1,.22,1h0a0.7,0.7,0,0,1-.59.33h0A0.69,0.69,0,0,1,308.34,228.82Zm222.9-.41a0.7,0.7,0,0,1,.22-1h0a0.7,0.7,0,0,1,1,.22h0a0.71,0.71,0,0,1-.22,1h0a0.7,0.7,0,0,1-.38.11h0A0.7,0.7,0,0,1,531.23,228.41ZM311,224.68a0.7,0.7,0,0,1-.19-1h0a0.7,0.7,0,0,1,1-.19h0a0.71,0.71,0,0,1,.19,1h0a0.7,0.7,0,0,1-.58.31h0A0.7,0.7,0,0,1,311,224.68Zm217.53-.36h0a0.7,0.7,0,0,1,.18-1h0a0.7,0.7,0,0,1,1,.18h0a0.7,0.7,0,0,1-.18,1h0a0.68,0.68,0,0,1-.39.12h0A0.69,0.69,0,0,1,528.54,224.32Zm-214.69-3.68a0.7,0.7,0,0,1-.15-1h0a0.7,0.7,0,0,1,1-.15h0a0.71,0.71,0,0,1,.15,1h0a0.7,0.7,0,0,1-.57.29h0A0.71,0.71,0,0,1,313.85,220.64Zm211.85-.31h0a0.7,0.7,0,0,1,.15-1h0a0.7,0.7,0,0,1,1,.15h0a0.7,0.7,0,0,1-.14,1h0a0.7,0.7,0,0,1-.42.14h0A0.7,0.7,0,0,1,525.7,220.33Zm-208.87-3.62a0.7,0.7,0,0,1-.11-1h0a0.7,0.7,0,0,1,1-.11h0a0.7,0.7,0,0,1,.11,1h0a0.7,0.7,0,0,1-.55.26h0A0.68,0.68,0,0,1,316.83,216.71Zm205.88-.26a0.7,0.7,0,0,1,.11-1h0a0.7,0.7,0,0,1,1,.11h0a0.7,0.7,0,0,1-.11,1h0a0.69,0.69,0,0,1-.44.15h0A0.7,0.7,0,0,1,522.72,216.45ZM320,212.9a0.7,0.7,0,0,1-.08-1h0a0.71,0.71,0,0,1,1-.07h0a0.71,0.71,0,0,1,.07,1h0a0.71,0.71,0,0,1-.53.24h0A0.7,0.7,0,0,1,320,212.9Zm199.63-.22h0a0.7,0.7,0,0,1,.07-1h0a0.7,0.7,0,0,1,1,.07h0a0.7,0.7,0,0,1-.07,1h0a0.7,0.7,0,0,1-.46.17h0A0.7,0.7,0,0,1,519.58,212.69Zm-196.37-3.48a0.71,0.71,0,0,1,0-1h0a0.7,0.7,0,0,1,1,0h0a0.71,0.71,0,0,1,0,1h0a0.71,0.71,0,0,1-.52.22h0A0.71,0.71,0,0,1,323.22,209.21Zm193.1-.17h0a0.7,0.7,0,0,1,0-1h0a0.7,0.7,0,0,1,1,0h0a0.7,0.7,0,0,1,0,1h0a0.69,0.69,0,0,1-.48.19h0A0.69,0.69,0,0,1,516.32,209Zm-189.7-3.39a0.7,0.7,0,0,1,0-1h0a0.7,0.7,0,0,1,1,0h0a0.71,0.71,0,0,1,0,1h0a0.7,0.7,0,0,1-.5.21h0A0.7,0.7,0,0,1,326.62,205.64Zm186.29-.13h0a0.7,0.7,0,0,1,0-1h0a0.71,0.71,0,0,1,1,0h0a0.71,0.71,0,0,1,0,1h0a0.7,0.7,0,0,1-.5.21h0A0.71,0.71,0,0,1,512.91,205.51Zm-182.77-3.31a0.71,0.71,0,0,1,0-1h0a0.71,0.71,0,0,1,1,0h0a0.71,0.71,0,0,1,0,1h0a0.71,0.71,0,0,1-.48.19h0A0.7,0.7,0,0,1,330.15,202.21Zm179.23-.09a0.7,0.7,0,0,1,0-1h0a0.71,0.71,0,0,1,1,0h0a0.71,0.71,0,0,1,0,1h0a0.71,0.71,0,0,1-.52.23h0A0.71,0.71,0,0,1,509.38,202.12ZM333.8,198.9a0.71,0.71,0,0,1,.07-1h0a0.71,0.71,0,0,1,1,.07h0a0.7,0.7,0,0,1-.07,1h0a0.69,0.69,0,0,1-.46.17h0A0.71,0.71,0,0,1,333.8,198.9Zm171.93,0a0.71,0.71,0,0,1-.08-1h0a0.71,0.71,0,0,1,1-.08h0a0.71,0.71,0,0,1,.07,1h0a0.71,0.71,0,0,1-.53.25h0A0.71,0.71,0,0,1,505.72,198.85Zm-168.16-3.12a0.7,0.7,0,0,1,.11-1h0a0.7,0.7,0,0,1,1,.11h0a0.71,0.71,0,0,1-.11,1h0a0.71,0.71,0,0,1-.44.15h0A0.71,0.71,0,0,1,337.57,195.74Zm164.38,0a0.7,0.7,0,0,1-.11-1h0a0.7,0.7,0,0,1,1-.11h0a0.71,0.71,0,0,1,.11,1h0a0.7,0.7,0,0,1-.55.26h0A0.71,0.71,0,0,1,501.95,195.73Zm-160.49-3a0.7,0.7,0,0,1,.14-1h0a0.71,0.71,0,0,1,1,.14h0a0.7,0.7,0,0,1-.15,1h0a0.68,0.68,0,0,1-.42.14h0A0.7,0.7,0,0,1,341.46,192.71Zm156.6,0a0.71,0.71,0,0,1-.15-1h0a0.7,0.7,0,0,1,1-.15h0a0.7,0.7,0,0,1,.15,1h0a0.71,0.71,0,0,1-.57.29h0A0.7,0.7,0,0,1,498.06,192.74Zm-152.61-2.9a0.71,0.71,0,0,1,.18-1h0a0.71,0.71,0,0,1,1,.18h0a0.7,0.7,0,0,1-.18,1h0a0.7,0.7,0,0,1-.4.12h0A0.7,0.7,0,0,1,345.45,189.84Zm148.61,0.07h0a0.7,0.7,0,0,1-.18-1h0a0.71,0.71,0,0,1,1-.19h0a0.7,0.7,0,0,1,.19,1h0a0.7,0.7,0,0,1-.58.31h0A0.72,0.72,0,0,1,494.06,189.9Zm-144.51-2.79a0.7,0.7,0,0,1,.22-1h0a0.7,0.7,0,0,1,1,.22h0a0.71,0.71,0,0,1-.22,1h0a0.73,0.73,0,0,1-.38.11h0A0.7,0.7,0,0,1,349.55,187.11ZM490,187.22h0a0.71,0.71,0,0,1-.22-1h0a0.71,0.71,0,0,1,1-.22h0a0.7,0.7,0,0,1,.22,1h0a0.7,0.7,0,0,1-.59.33h0A0.68,0.68,0,0,1,490,187.22Zm-136.21-2.67a0.7,0.7,0,0,1,.26-1h0a0.7,0.7,0,0,1,1,.25h0a0.71,0.71,0,0,1-.25,1h0a0.71,0.71,0,0,1-.35.09h0A0.71,0.71,0,0,1,353.74,184.55Zm132,0.14a0.7,0.7,0,0,1-.26-1h0a0.7,0.7,0,0,1,1-.26h0a0.7,0.7,0,0,1,.26,1h0a0.7,0.7,0,0,1-.61.35h0A0.71,0.71,0,0,1,485.75,184.68ZM358,182.14a0.7,0.7,0,0,1,.29-0.95h0a0.7,0.7,0,0,1,.95.29h0a0.7,0.7,0,0,1-.29.95h0a0.69,0.69,0,0,1-.33.08h0A0.7,0.7,0,0,1,358,182.14Zm123.43,0.17h0a0.7,0.7,0,0,1-.3-0.95h0a0.7,0.7,0,0,1,.95-0.29h0a0.7,0.7,0,0,1,.3.95h0a0.7,0.7,0,0,1-.62.38h0A0.68,0.68,0,0,1,481.45,182.31ZM362.4,179.89a0.7,0.7,0,0,1,.33-0.94h0a0.7,0.7,0,0,1,.94.33h0a0.7,0.7,0,0,1-.33.94h0a0.73,0.73,0,0,1-.31.07h0A0.71,0.71,0,0,1,362.4,179.89Zm114.67,0.21a0.7,0.7,0,0,1-.33-0.94h0a0.7,0.7,0,0,1,.94-0.33h0a0.7,0.7,0,0,1,.33.94h0a0.71,0.71,0,0,1-.64.4h0A0.67,0.67,0,0,1,477.07,180.1Zm-110.22-2.29a0.7,0.7,0,0,1,.36-0.93h0a0.7,0.7,0,0,1,.93.36h0a0.7,0.7,0,0,1-.36.93h0a0.66,0.66,0,0,1-.28.06h0A0.7,0.7,0,0,1,366.85,177.81Zm105.75,0.25a0.71,0.71,0,0,1-.37-0.93h0a0.71,0.71,0,0,1,.93-0.36h0a0.7,0.7,0,0,1,.36.93h0a0.7,0.7,0,0,1-.64.42h0A0.71,0.71,0,0,1,472.61,178.06ZM371.38,175.9a0.7,0.7,0,0,1,.4-0.91h0a0.7,0.7,0,0,1,.91.39h0a0.7,0.7,0,0,1-.4.91h0a0.72,0.72,0,0,1-.26,0h0A0.7,0.7,0,0,1,371.38,175.9Zm96.69,0.28a0.71,0.71,0,0,1-.4-0.91h0a0.71,0.71,0,0,1,.91-0.4h0a0.7,0.7,0,0,1,.4.91h0a0.71,0.71,0,0,1-.66.45h0A0.74,0.74,0,0,1,468.06,176.18Zm-92.08-2a0.7,0.7,0,0,1,.43-0.9h0a0.7,0.7,0,0,1,.9.43h0a0.7,0.7,0,0,1-.43.89h0a0.78,0.78,0,0,1-.23,0h0A0.71,0.71,0,0,1,376,174.15Zm87.47,0.32a0.7,0.7,0,0,1-.43-0.89h0a0.7,0.7,0,0,1,.9-0.43h0a0.7,0.7,0,0,1,.43.89h0a0.7,0.7,0,0,1-.66.47h0A0.67,0.67,0,0,1,463.46,174.48Zm-82.8-1.89a0.7,0.7,0,0,1,.46-0.88h0a0.7,0.7,0,0,1,.88.46h0a0.7,0.7,0,0,1-.46.88h0a0.69,0.69,0,0,1-.21,0h0A0.71,0.71,0,0,1,380.66,172.59Zm78.13,0.36a0.71,0.71,0,0,1-.47-0.88h0a0.7,0.7,0,0,1,.88-0.47h0a0.71,0.71,0,0,1,.47.88h0a0.71,0.71,0,0,1-.68.5h0A0.83,0.83,0,0,1,458.79,172.95Zm-73.41-1.76a0.7,0.7,0,0,1,.5-0.86h0a0.71,0.71,0,0,1,.86.5h0a0.7,0.7,0,0,1-.5.86h0l-0.18,0h0A0.7,0.7,0,0,1,385.38,171.19Zm68.69,0.41h0a0.71,0.71,0,0,1-.5-0.86h0a0.71,0.71,0,0,1,.86-0.5h0a0.7,0.7,0,0,1,.5.86h0a0.71,0.71,0,0,1-.68.52h0ZM390.16,170a0.7,0.7,0,0,1,.53-0.84h0a0.7,0.7,0,0,1,.84.53h0a0.7,0.7,0,0,1-.53.84h0l-0.16,0h0A0.7,0.7,0,0,1,390.16,170Zm59.16,0.45a0.7,0.7,0,0,1-.53-0.84h0a0.7,0.7,0,0,1,.84-0.53h0a0.7,0.7,0,0,1,.53.84h0a0.71,0.71,0,0,1-.69.55h0ZM395,168.94a0.7,0.7,0,0,1,.56-0.82h0a0.7,0.7,0,0,1,.82.56h0a0.7,0.7,0,0,1-.56.82h-0.13A0.7,0.7,0,0,1,395,168.94Zm49.55,0.5h0a0.7,0.7,0,0,1-.56-0.82h0a0.7,0.7,0,0,1,.82-0.56h0a0.71,0.71,0,0,1,.56.82h0a0.71,0.71,0,0,1-.69.58h-0.13Zm-44.7-1.35a0.7,0.7,0,0,1,.59-0.8h0a0.7,0.7,0,0,1,.8.59h0a0.7,0.7,0,0,1-.59.8h-0.1A0.7,0.7,0,0,1,399.82,168.09Zm39.86,0.54a0.71,0.71,0,0,1-.59-0.8h0a0.7,0.7,0,0,1,.8-0.59h0a0.71,0.71,0,0,1,.59.8h0a0.71,0.71,0,0,1-.7.6h-0.1Zm-35-1.21a0.7,0.7,0,0,1,.62-0.78h0a0.7,0.7,0,0,1,.78.62h0a0.7,0.7,0,0,1-.62.78H405.4A0.71,0.71,0,0,1,404.7,167.43ZM434.82,168a0.71,0.71,0,0,1-.62-0.77h0a0.7,0.7,0,0,1,.78-0.62h0a0.7,0.7,0,0,1,.62.77h0a0.7,0.7,0,0,1-.7.63h-0.08Zm-25.22-1.07a0.7,0.7,0,0,1,.65-0.76h0a0.7,0.7,0,0,1,.75.65h0a0.7,0.7,0,0,1-.65.75h-0.05A0.7,0.7,0,0,1,409.61,166.94Zm20.34,0.62h0a0.7,0.7,0,0,1-.65-0.75h0a0.7,0.7,0,0,1,.75-0.65h0a0.7,0.7,0,0,1,.65.75h0a0.7,0.7,0,0,1-.7.65h-0.05Zm-15.42-.93a0.7,0.7,0,0,1,.68-0.73h0a0.7,0.7,0,0,1,.73.68h0a0.7,0.7,0,0,1-.68.73h0A0.7,0.7,0,0,1,414.52,166.63Zm10.53,0.66a0.7,0.7,0,0,1-.68-0.73h0a0.7,0.7,0,0,1,.73-0.68h0a0.7,0.7,0,0,1,.68.73h0a0.7,0.7,0,0,1-.7.68h0Zm-5.6-.79a0.71,0.71,0,0,1,.7-0.7h0a0.7,0.7,0,0,1,.7.7h0a0.7,0.7,0,0,1-.7.7h0A0.71,0.71,0,0,1,419.45,166.51Z" transform="translate(-230.71 -108.91)"/><g class="cls-4"><path class="cls-5" d="M564.24,409.56a181.37,181.37,0,0,0,11-206.12,183.13,183.13,0,0,0-49.69-53.06l2.28-3.21a187.07,187.07,0,0,1,50.76,54.21A183.82,183.82,0,0,1,604,271.15,185.09,185.09,0,0,1,567.35,412Z" transform="translate(-230.71 -108.91)"/><path class="cls-5" d="M523,448.54l5.92-4.21,5.72-4.48c0.47-.38,1-0.74,1.42-1.13l1.37-1.19,2.74-2.38c0.91-.8,1.85-1.57,2.73-2.4l2.63-2.51,2.71,2.85-2.68,2.56c-0.9.85-1.86,1.63-2.79,2.45l-2.8,2.43-1.4,1.21c-0.48.39-1,.77-1.45,1.15l-5.84,4.58-6,4.3Z" transform="translate(-230.71 -108.91)"/><path class="cls-5" d="M445.82,478.53a189.42,189.42,0,0,0,28.32-6.29l1.16,3.76a193.34,193.34,0,0,1-28.94,6.42Z" transform="translate(-230.71 -108.91)"/><path class="cls-5" d="M365,471.75a192.28,192.28,0,0,0,28.26,6.58l-0.58,3.89a196.19,196.19,0,0,1-28.87-6.73Z" transform="translate(-230.71 -108.91)"/><path class="cls-5" d="M491.52,465.86l6.62-3c1.12-.47,2.17-1.07,3.25-1.61l3.23-1.66,1.83,3.49-3.3,1.69c-1.11.55-2.19,1.16-3.33,1.64l-6.76,3.06Z" transform="translate(-230.71 -108.91)"/><path class="cls-5" d="M412.8,480.15l7.26,0.18c2.42,0,4.84-.12,7.26-0.17l0.15,3.93c-2.47.06-4.94,0.14-7.42,0.17l-7.42-.19Z" transform="translate(-230.71 -108.91)"/><path class="cls-5" d="M292.11,427.41a186.38,186.38,0,0,0,22.15,18.74l-2.3,3.2a190.31,190.31,0,0,1-22.63-19.15Z" transform="translate(-230.71 -108.91)"/><path class="cls-5" d="M330.77,456.73c1.05,0.6,2.09,1.22,3.15,1.8l3.23,1.65c2.16,1.09,4.28,2.26,6.51,3.21L342,467c-2.28-1-4.45-2.16-6.65-3.28l-3.3-1.69c-1.08-.59-2.15-1.23-3.22-1.84Z" transform="translate(-230.71 -108.91)"/><path class="cls-5" d="M337.4,136.82l-3.23,1.65c-0.55.26-1.06,0.59-1.59,0.88l-1.57.91-3.15,1.81-1.57.9c-0.52.31-1,.65-1.53,1l-6.11,3.92-5.92,4.21-2.33-3.17,6-4.3,6.24-4c0.52-.33,1-0.68,1.57-1l1.61-.92,3.22-1.85,1.61-.92c0.54-.3,1.06-0.63,1.62-0.9l3.3-1.69Z" transform="translate(-230.71 -108.91)"/><path class="cls-5" d="M420.33,116.78a198.65,198.65,0,0,0-28.93,2.32l-0.62-3.89a202.55,202.55,0,0,1,29.55-2.37v3.94Z" transform="translate(-230.71 -108.91)"/><path class="cls-5" d="M372.24,123.26l-3.49,1c-1.16.34-2.34,0.63-3.48,1l-6.88,2.33-1.34-3.7,7-2.38c1.16-.42,2.37-0.71,3.55-1.06l3.57-1Z" transform="translate(-230.71 -108.91)"/><path class="cls-5" d="M598.95,332.22a181.24,181.24,0,0,0-38.69-149.68,185.85,185.85,0,0,0-28.67-27.68,177.87,177.87,0,0,0-34-20.83,182.47,182.47,0,0,0-77.3-17.24v-7.87a190.35,190.35,0,0,1,80.66,18,185.75,185.75,0,0,1,35.43,21.74,193.72,193.72,0,0,1,29.9,28.87,189.12,189.12,0,0,1,40.37,156.16Z" transform="translate(-230.71 -108.91)"/><path class="cls-5" d="M292.54,169.31a181.9,181.9,0,0,0-48.72,85.79A176.83,176.83,0,0,0,238.88,288a184.27,184.27,0,0,0,8.22,65.74l1.33,3.94,0.67,2c0.23,0.65.42,1.32,0.69,2l3.05,7.75,3.43,7.59c1.22,2.49,2.52,4.95,3.77,7.42a182.65,182.65,0,0,0,18.36,27.74l-3.07,2.46a186.59,186.59,0,0,1-18.75-28.34c-1.28-2.53-2.61-5-3.86-7.58l-3.5-7.75L246.1,363c-0.28-.65-0.47-1.34-0.71-2l-0.68-2-1.36-4a188.21,188.21,0,0,1-8.39-67.16,180.77,180.77,0,0,1,5-33.6,185.83,185.83,0,0,1,49.78-87.65Z" transform="translate(-230.71 -108.91)"/><path class="cls-5" d="M249.32,236.83a179.3,179.3,0,0,0-8.62,33.73,184.36,184.36,0,0,0,2.61,69.27,180.4,180.4,0,0,0,11.1,33L247.23,376a190.4,190.4,0,0,1-5.32-141.87Z" transform="translate(-230.71 -108.91)"/></g><g class="cls-6"><path class="cls-5" d="M364.2,371.8a93.68,93.68,0,0,0,33.73,16.57,94.67,94.67,0,0,0,37.56,2,93.06,93.06,0,0,0,35.3-12.87,94.73,94.73,0,0,0,27.44-25.7l5,3.59A100.92,100.92,0,0,1,474,382.76a99.17,99.17,0,0,1-37.64,13.72,99.85,99.85,0,0,1-76-19.78Z" transform="translate(-230.71 -108.91)"/><path class="cls-5" d="M344,350.48l2.18,3.06,2.32,3c0.19,0.25.38,0.5,0.58,0.74l0.62,0.71,1.23,1.42c0.41,0.47.81,1,1.24,1.41l1.3,1.36L349,366.4,347.63,365c-0.46-.49-0.88-1-1.32-1.5L345,361.94l-0.66-.76c-0.21-.26-0.41-0.52-0.62-0.78l-2.47-3.15L338.94,354Z" transform="translate(-230.71 -108.91)"/><path class="cls-5" d="M328.53,310.57a98.13,98.13,0,0,0,3.25,14.64L325.87,327a104.31,104.31,0,0,1-3.47-15.61Z" transform="translate(-230.71 -108.91)"/><path class="cls-5" d="M332,268.77a99.67,99.67,0,0,0-3.4,14.61l-6.12-.91a105.83,105.83,0,0,1,3.63-15.58Z" transform="translate(-230.71 -108.91)"/><path class="cls-5" d="M335.08,334.19l1.55,3.42c0.24,0.58.55,1.12,0.83,1.68l0.86,1.67-5.48,2.87-0.91-1.78c-0.3-.6-0.62-1.18-0.89-1.79l-1.65-3.65Z" transform="translate(-230.71 -108.91)"/><path class="cls-5" d="M327.69,293.48l-0.1,3.76,0.09,3.76-6.18.23c0-1.33-.07-2.67-0.09-4l0.1-4Z" transform="translate(-230.71 -108.91)"/><path class="cls-5" d="M355,231.07a96.49,96.49,0,0,0-9.69,11.46l-5-3.61a102.67,102.67,0,0,1,10.33-12.21Z" transform="translate(-230.71 -108.91)"/><path class="cls-5" d="M339.8,251.07c-0.31.54-.63,1.08-0.93,1.63L338,254.37c-0.56,1.12-1.17,2.21-1.66,3.37l-5.61-2.61c0.52-1.23,1.17-2.4,1.77-3.59l0.91-1.78c0.32-.59.66-1.16,1-1.74Z" transform="translate(-230.71 -108.91)"/><path class="cls-5" d="M505.24,254.5l-0.85-1.67c-0.29-.56-0.62-1.09-0.93-1.63l-0.94-1.63-0.47-.81c-0.16-.27-0.34-0.53-0.5-0.79l-2-3.16-2.18-3.06,5-3.67,2.32,3.26,2.16,3.37c0.18,0.28.37,0.56,0.53,0.85l0.5,0.87,1,1.73c0.33,0.58.68,1.15,1,1.74l0.91,1.78Z" transform="translate(-230.71 -108.91)"/><path class="cls-5" d="M515.6,297.38a103.14,103.14,0,0,0-1.2-15l6.11-1a109.28,109.28,0,0,1,1.28,15.94H515.6Z" transform="translate(-230.71 -108.91)"/><path class="cls-5" d="M512.25,272.51l-0.51-1.81c-0.18-.6-0.32-1.21-0.54-1.8l-1.2-3.56,5.82-2.11L517.1,267c0.23,0.63.39,1.28,0.57,1.92l0.55,1.93Z" transform="translate(-230.71 -108.91)"/><path class="cls-5" d="M404.19,389.75a93.84,93.84,0,0,0,91.72-34.83,91.9,91.9,0,0,0,10.77-17.56,94.44,94.44,0,0,0,8.92-40H528a106.75,106.75,0,0,1-10.09,45.24,104.27,104.27,0,0,1-12.19,19.87,108.57,108.57,0,0,1-16.19,16.77,106.09,106.09,0,0,1-87.59,22.65Z" transform="translate(-230.71 -108.91)"/><path class="cls-5" d="M488.44,231.3a94.07,94.07,0,0,0-44.36-25.2,91.34,91.34,0,0,0-17-2.55,95.35,95.35,0,0,0-34,4.25c-1.36.47-2.72,0.91-4.07,1.39l-4,1.58-3.92,1.77c-1.29.63-2.56,1.3-3.84,2A94.48,94.48,0,0,0,362.89,224L359,219.16A99.39,99.39,0,0,1,391.2,201.9a101.54,101.54,0,0,1,36.23-4.53,97.52,97.52,0,0,1,18.13,2.72,100.25,100.25,0,0,1,47.28,26.85Z" transform="translate(-230.71 -108.91)"/><path class="cls-5" d="M453.52,208.94a92.67,92.67,0,0,0-17.44-4.46,95.17,95.17,0,0,0-18-1,93.72,93.72,0,0,0-34.89,8.11l-5.06-11.29a106.78,106.78,0,0,1,79.58-3Z" transform="translate(-230.71 -108.91)"/></g><g class="cls-4"><path class="cls-5" d="M490,398.33a118.18,118.18,0,0,0,21.57-19.52c0.79-.92,1.61-1.82,2.38-2.76l2.25-2.87,1.13-1.43,1.05-1.49,2.12-3c0.69-1,1.31-2,2-3.06s1.36-2,1.93-3.09c1.19-2.12,2.48-4.18,3.53-6.37a122,122,0,0,0,13.65-56.06h29a151.08,151.08,0,0,1-16.91,69.41c-1.31,2.71-2.89,5.27-4.37,7.88-0.72,1.32-1.59,2.55-2.38,3.83s-1.6,2.54-2.46,3.78l-2.61,3.67-1.31,1.83-1.39,1.77-2.79,3.54c-1,1.16-2,2.28-2.93,3.42A147.17,147.17,0,0,1,506.8,422Z" transform="translate(-230.71 -108.91)"/><path class="cls-5" d="M278.53,369.28l-0.28-.58a154.4,154.4,0,0,1-14.75-47.42,158.82,158.82,0,0,1,.73-49.62c0.14-.71.26-1.41,0.38-2.11,0.23-1.32.46-2.69,0.79-4l1.74-7.29c1-3.53,2-7.19,3.27-10.71a152.57,152.57,0,0,1,9.91-22.85,165.55,165.55,0,0,1,13.4-21,159,159,0,0,1,16.54-18.6l0.46-.45L329,203.6l-0.46.44a130.84,130.84,0,0,0-13.8,15.51A139.34,139.34,0,0,0,303.52,237a126.76,126.76,0,0,0-8.25,19c-1,2.69-1.76,5.49-2.52,8.19L292.26,266l-1.16,5.05c-0.27,1.06-.45,2.15-0.63,3.21-0.11.63-.21,1.26-0.34,1.89A131.22,131.22,0,0,0,301.8,357l0.29,0.57Zm32.16-182.81a157.21,157.21,0,0,0-15.95,18,164.31,164.31,0,0,0-13.29,20.82A151.36,151.36,0,0,0,271.61,248c-1.25,3.49-2.27,7.12-3.24,10.63L268,259.8l-1.39,6c-0.32,1.3-.55,2.65-0.78,3.95-0.12.71-.24,1.42-0.38,2.13a157.52,157.52,0,0,0-.72,49.21,153,153,0,0,0,14.35,46.46L300.37,357a132.57,132.57,0,0,1-11.5-81.09c0.12-.63.23-1.25,0.33-1.87,0.18-1.08.37-2.2,0.65-3.3l1.17-5.07,0.5-1.78c0.77-2.73,1.56-5.55,2.55-8.27a128,128,0,0,1,8.33-19.2,140.75,140.75,0,0,1,11.27-17.65,131.39,131.39,0,0,1,13.48-15.22Z" transform="translate(-230.71 -108.91)"/><path class="cls-5" d="M385.46,176.22l-11.18-41.05,0.62-.17a169.49,169.49,0,0,1,51-5.83l0.64,0-1.55,42.52-0.64,0a127.2,127.2,0,0,0-38.22,4.36Zm-9.61-40.16,10.51,38.59a128.39,128.39,0,0,1,37.35-4.26l1.46-40A168.24,168.24,0,0,0,375.85,136.06Z" transform="translate(-230.71 -108.91)"/><path class="cls-5" d="M543.83,271.8l-0.14-.62a126.35,126.35,0,0,0-23.76-50.48l-0.4-.5,33.57-26.14,0.39,0.5A168.94,168.94,0,0,1,585.24,262l0.14,0.62Zm-22.5-51.38a127.67,127.67,0,0,1,23.47,49.86l39.05-8.62a167.69,167.69,0,0,0-31-65.81Z" transform="translate(-230.71 -108.91)"/><path class="cls-5" d="M495.58,196.79l-0.51-.38a126,126,0,0,0-55.36-23.25l-0.63-.1,4.8-30.16,0.63,0.1a156.59,156.59,0,0,1,68.71,28.85l0.52,0.38Zm-55-24.78a127.21,127.21,0,0,1,54.76,23l16.64-22.5a155.2,155.2,0,0,0-67-28.13Z" transform="translate(-230.71 -108.91)"/><path class="cls-5" d="M419.57,462.9a163.88,163.88,0,0,1-43.06-5.72l-0.62-.17,6.88-25.37,0.62,0.17A138.1,138.1,0,0,0,496.72,413a140.83,140.83,0,0,0,40.61-42.53A138.19,138.19,0,0,0,556.49,315l0.07-.63,26.11,3.06-0.07.63a164.46,164.46,0,0,1-22.84,66.19,167.31,167.31,0,0,1-48.32,50.6A164.08,164.08,0,0,1,419.57,462.9Zm-42.11-6.79a163.11,163.11,0,0,0,133.26-22.34,166,166,0,0,0,47.95-50.21,163.19,163.19,0,0,0,22.58-65l-23.57-2.77a139.52,139.52,0,0,1-19.26,55.43,142.15,142.15,0,0,1-41,42.92,139.4,139.4,0,0,1-113.76,19.1Z" transform="translate(-230.71 -108.91)"/><path class="cls-5" d="M310.94,362.29a126.32,126.32,0,0,0,63.43,53.91,129.32,129.32,0,0,0,20.31,5.92,126.82,126.82,0,0,0,21.06,2.37c3.54,0.17,7.08,0,10.63-.08l5.29-.4c1.76-.14,3.51-0.43,5.26-0.63a129.68,129.68,0,0,0,20.65-4.62l3.47,11a141.17,141.17,0,0,1-22.55,5.05c-1.92.22-3.82,0.53-5.74,0.69l-5.77.44c-3.86.12-7.72,0.27-11.58,0.1a138.33,138.33,0,0,1-23-2.59,140.82,140.82,0,0,1-22.18-6.47A137.83,137.83,0,0,1,301,368.11Z" transform="translate(-230.71 -108.91)"/><path class="cls-5" d="M326.31,377.4a122.47,122.47,0,0,0,46.59,34.1,125.4,125.4,0,0,0,28,7.83,126.71,126.71,0,0,0,29.11.95l2.44,28.91a150.14,150.14,0,0,1-70.6-10.88,151.48,151.48,0,0,1-57.65-42.19Z" transform="translate(-230.71 -108.91)"/><path class="cls-5" d="M335,210.79a123.85,123.85,0,0,0-16.55,19.59,121.9,121.9,0,0,0-20.8,72.79l-20,.72a141.91,141.91,0,0,1,24.23-84.73,143.86,143.86,0,0,1,19.24-22.78Z" transform="translate(-230.71 -108.91)"/><path class="cls-5" d="M396.81,178.83A125.22,125.22,0,0,0,377.87,184,127.86,127.86,0,0,0,360,192.2l-9.78-17.46A147.84,147.84,0,0,1,371,165.18a145.21,145.21,0,0,1,22.07-6Z" transform="translate(-230.71 -108.91)"/><path class="cls-5" d="M450,180.51A124.08,124.08,0,0,0,411,177l-1.39-20A144.09,144.09,0,0,1,455,161.13Z" transform="translate(-230.71 -108.91)"/><path class="cls-5" d="M497.4,204.72a128,128,0,0,0-16.12-11.28c-1.43-.8-2.82-1.68-4.28-2.42l-4.38-2.24c-3-1.36-6-2.75-9-3.88l7.22-18.66c3.58,1.33,7,2.94,10.51,4.53l5.1,2.61c1.7,0.87,3.32,1.88,5,2.81a148,148,0,0,1,18.75,13.12Z" transform="translate(-230.71 -108.91)"/><path class="cls-5" d="M530,246.8a121.85,121.85,0,0,0-22.2-32.31l14.47-13.82a141.87,141.87,0,0,1,25.83,37.6Z" transform="translate(-230.71 -108.91)"/><path class="cls-5" d="M541.61,298.72A134.35,134.35,0,0,0,540,279.09,118.37,118.37,0,0,0,535.31,260l19-6.34a138.38,138.38,0,0,1,5.48,22.21,154.23,154.23,0,0,1,1.85,22.82h-20Z" transform="translate(-230.71 -108.91)"/></g></g></g></svg>