<svg preserveAspectRatio="none" id="央铋_1" data-name="央铋 1" xmlns="http://www.w3.org/2000/svg" xmlns:xlink="http://www.w3.org/1999/xlink" viewBox="0 0 44.03 44.03"><defs><linearGradient id="铃琨眄_沭噤桢眚_28" x1="228.18" y1="44.5" x2="230.93" y2="44.5" gradientTransform="rotate(-48 244.41 40.02)" gradientUnits="userSpaceOnUse"><stop offset="0" stop-color="#b9004c"/><stop offset="1" stop-color="#fc5f80"/></linearGradient><linearGradient id="铃琨眄_沭噤桢眚_28-2" x1="229.98" y1="58.53" x2="234.7" y2="58.53" xlink:href="#铃琨眄_沭噤桢眚_28"/><linearGradient id="铃琨眄_沭噤桢眚_2" x1="261.07" y1="37.76" x2="265.78" y2="37.76" gradientTransform="rotate(-48 244.41 40.02)" gradientUnits="userSpaceOnUse"><stop offset="0" stop-color="#009fff"/><stop offset="1" stop-color="#7ff"/></linearGradient><linearGradient id="铃琨眄_沭噤桢眚_2-2" x1="264.83" y1="51.79" x2="267.58" y2="51.79" xlink:href="#铃琨眄_沭噤桢眚_2"/><linearGradient id="铃琨眄_沭噤桢眚_28-3" x1="255.16" y1="63.69" x2="261.37" y2="63.69" xlink:href="#铃琨眄_沭噤桢眚_28"/><linearGradient id="铃琨眄_沭噤桢眚_28-4" x1="240.73" y1="66.47" x2="247.75" y2="66.47" xlink:href="#铃琨眄_沭噤桢眚_28"/><linearGradient id="铃琨眄_沭噤桢眚_2-3" x1="248.02" y1="29.82" x2="255.03" y2="29.82" xlink:href="#铃琨眄_沭噤桢眚_2"/><linearGradient id="铃琨眄_沭噤桢眚_2-4" x1="234.4" y1="32.6" x2="240.6" y2="32.6" xlink:href="#铃琨眄_沭噤桢眚_2"/><linearGradient id="铃琨眄_沭噤桢眚_28-5" x1="227.83" y1="29.76" x2="230.71" y2="29.76" gradientTransform="rotate(-20.24 273.11 26.663)" xlink:href="#铃琨眄_沭噤桢眚_28"/><linearGradient id="铃琨眄_沭噤桢眚_28-6" x1="229.72" y1="44.46" x2="234.66" y2="44.46" gradientTransform="rotate(-20.24 273.11 26.663)" xlink:href="#铃琨眄_沭噤桢眚_28"/><linearGradient id="铃琨眄_沭噤桢眚_2-5" x1="262.29" y1="22.7" x2="267.23" y2="22.7" gradientTransform="rotate(-20.24 273.11 26.663)" xlink:href="#铃琨眄_沭噤桢眚_2"/><linearGradient id="铃琨眄_沭噤桢眚_2-6" x1="266.24" y1="37.4" x2="269.12" y2="37.4" gradientTransform="rotate(-20.24 273.11 26.663)" xlink:href="#铃琨眄_沭噤桢眚_2"/><linearGradient id="铃琨眄_沭噤桢眚_28-7" x1="256.1" y1="49.87" x2="262.6" y2="49.87" gradientTransform="rotate(-20.24 273.11 26.663)" xlink:href="#铃琨眄_沭噤桢眚_28"/><linearGradient id="铃琨眄_沭噤桢眚_28-8" x1="240.98" y1="52.79" x2="248.33" y2="52.79" gradientTransform="rotate(-20.24 273.11 26.663)" xlink:href="#铃琨眄_沭噤桢眚_28"/><linearGradient id="铃琨眄_沭噤桢眚_2-7" x1="248.62" y1="14.38" x2="255.97" y2="14.38" gradientTransform="rotate(-20.24 273.11 26.663)" xlink:href="#铃琨眄_沭噤桢眚_2"/><linearGradient id="铃琨眄_沭噤桢眚_2-8" x1="234.35" y1="17.29" x2="240.85" y2="17.29" gradientTransform="rotate(-20.24 273.11 26.663)" xlink:href="#铃琨眄_沭噤桢眚_2"/><linearGradient id="铃琨眄_沭噤桢眚_28-9" x1="229.39" y1="42.91" x2="232.32" y2="42.91" gradientTransform="rotate(-53 247.775 41.85)" xlink:href="#铃琨眄_沭噤桢眚_28"/><linearGradient id="铃琨眄_沭噤桢眚_28-10" x1="231.31" y1="57.88" x2="236.35" y2="57.88" gradientTransform="rotate(-53 247.775 41.85)" xlink:href="#铃琨眄_沭噤桢眚_28"/><linearGradient id="铃琨眄_沭噤桢眚_2-9" x1="264.49" y1="35.72" x2="269.53" y2="35.72" gradientTransform="rotate(-53 247.775 41.85)" xlink:href="#铃琨眄_沭噤桢眚_2"/><linearGradient id="铃琨眄_沭噤桢眚_2-10" x1="268.52" y1="50.69" x2="271.45" y2="50.69" gradientTransform="rotate(-53 247.775 41.85)" xlink:href="#铃琨眄_沭噤桢眚_2"/><linearGradient id="铃琨眄_沭噤桢眚_28-11" x1="258.19" y1="63.39" x2="264.82" y2="63.39" gradientTransform="rotate(-53 247.775 41.85)" xlink:href="#铃琨眄_沭噤桢眚_28"/><linearGradient id="铃琨眄_沭噤桢眚_28-12" x1="242.79" y1="66.36" x2="250.28" y2="66.36" gradientTransform="rotate(-53 247.775 41.85)" xlink:href="#铃琨眄_沭噤桢眚_28"/><linearGradient id="铃琨眄_沭噤桢眚_2-11" x1="250.57" y1="27.23" x2="258.06" y2="27.23" gradientTransform="rotate(-53 247.775 41.85)" xlink:href="#铃琨眄_沭噤桢眚_2"/><linearGradient id="铃琨眄_沭噤桢眚_2-12" x1="236.03" y1="30.21" x2="242.65" y2="30.21" gradientTransform="rotate(-53 247.775 41.85)" xlink:href="#铃琨眄_沭噤桢眚_2"/><linearGradient id="铃琨眄_沭噤桢眚_28-13" x1="230.44" y1="37.67" x2="233.51" y2="37.67" gradientTransform="rotate(-45 252.322 41.795)" xlink:href="#铃琨眄_沭噤桢眚_28"/><linearGradient id="铃琨眄_沭噤桢眚_28-14" x1="232.45" y1="53.34" x2="237.73" y2="53.34" gradientTransform="rotate(-45 252.322 41.795)" xlink:href="#铃琨眄_沭噤桢眚_28"/><linearGradient id="铃琨眄_沭噤桢眚_2-13" x1="267.18" y1="30.14" x2="272.46" y2="30.14" gradientTransform="rotate(-45 252.322 41.795)" xlink:href="#铃琨眄_沭噤桢眚_2"/><linearGradient id="铃琨眄_沭噤桢眚_2-14" x1="271.4" y1="45.82" x2="274.47" y2="45.82" gradientTransform="rotate(-45 252.322 41.795)" xlink:href="#铃琨眄_沭噤桢眚_2"/><linearGradient id="铃琨眄_沭噤桢眚_28-15" x1="260.59" y1="59.11" x2="267.52" y2="59.11" gradientTransform="rotate(-45 252.322 41.795)" xlink:href="#铃琨眄_沭噤桢眚_28"/><linearGradient id="铃琨眄_沭噤桢眚_28-16" x1="244.46" y1="62.22" x2="252.3" y2="62.22" gradientTransform="rotate(-45 252.322 41.795)" xlink:href="#铃琨眄_沭噤桢眚_28"/><linearGradient id="铃琨眄_沭噤桢眚_2-15" x1="252.61" y1="21.27" x2="260.45" y2="21.27" gradientTransform="rotate(-45 252.322 41.795)" xlink:href="#铃琨眄_沭噤桢眚_2"/><linearGradient id="铃琨眄_沭噤桢眚_2-16" x1="237.39" y1="24.38" x2="244.32" y2="24.38" gradientTransform="rotate(-45 252.322 41.795)" xlink:href="#铃琨眄_沭噤桢眚_2"/><linearGradient id="铃琨眄_沭噤桢眚_33" x1="229.75" y1="44.54" x2="232.23" y2="44.54" gradientTransform="rotate(-69.95 245.537 41.29)" xlink:href="#铃琨眄_沭噤桢眚_28"/><linearGradient id="铃琨眄_沭噤桢眚_33-2" x1="231.37" y1="57.19" x2="235.63" y2="57.19" gradientTransform="rotate(-69.95 245.537 41.29)" xlink:href="#铃琨眄_沭噤桢眚_28"/><linearGradient id="铃琨眄_沭噤桢眚_2-17" x1="259.42" y1="38.46" x2="263.67" y2="38.46" gradientTransform="rotate(-69.95 245.537 41.29)" xlink:href="#铃琨眄_沭噤桢眚_2"/><linearGradient id="铃琨眄_沭噤桢眚_2-18" x1="262.82" y1="51.11" x2="265.3" y2="51.11" gradientTransform="rotate(-69.95 245.537 41.29)" xlink:href="#铃琨眄_沭噤桢眚_2"/><linearGradient id="铃琨眄_沭噤桢眚_33-3" x1="254.09" y1="61.85" x2="259.69" y2="61.85" gradientTransform="rotate(-69.95 245.537 41.29)" xlink:href="#铃琨眄_沭噤桢眚_28"/><linearGradient id="铃琨眄_沭噤桢眚_33-4" x1="241.07" y1="64.36" x2="247.4" y2="64.36" gradientTransform="rotate(-69.95 245.537 41.29)" xlink:href="#铃琨眄_沭噤桢眚_28"/><linearGradient id="铃琨眄_沭噤桢眚_2-19" x1="247.65" y1="31.29" x2="253.98" y2="31.29" gradientTransform="rotate(-69.95 245.537 41.29)" xlink:href="#铃琨眄_沭噤桢眚_2"/><linearGradient id="铃琨眄_沭噤桢眚_2-20" x1="235.36" y1="33.8" x2="240.96" y2="33.8" gradientTransform="rotate(-69.95 245.537 41.29)" xlink:href="#铃琨眄_沭噤桢眚_2"/><style>.cls-45{fill:#7ff}</style></defs><g opacity=".4"><path d="M235.44 49.94a.84.84 0 00-.44 1.16 19.64 19.64 0 003.42 4.56.85.85 0 001.22 0 .84.84 0 000-1.17 18 18 0 01-3.1-4.13.84.84 0 00-1.1-.42z" transform="translate(-230.36 -19.65)" fill="url(#铃琨眄_沭噤桢眚_28)"/><path d="M246.25 59.5a.85.85 0 00.54 1.09 19.76 19.76 0 005.65.8.84.84 0 00.83-.9.85.85 0 00-.86-.8 18.06 18.06 0 01-5.11-.72.85.85 0 00-1.05.53z" transform="translate(-230.36 -19.65)" fill="url(#铃琨眄_沭噤桢眚_28-2)"/><path d="M258.5 23.83a.84.84 0 00-.54-1.09 19.76 19.76 0 00-5.65-.8.84.84 0 00-.83.9.85.85 0 00.86.8 18.06 18.06 0 015.11.72.85.85 0 001.05-.53z" transform="translate(-230.36 -19.65)" fill="url(#铃琨眄_沭噤桢眚_2)"/><path d="M269.31 33.39a.84.84 0 00.39-1.15 19.63 19.63 0 00-3.42-4.56.85.85 0 00-1.22 0 .84.84 0 000 1.17A18 18 0 01268.2 33a.84.84 0 001.11.39z" transform="translate(-230.36 -19.65)" fill="url(#铃琨眄_沭噤桢眚_2-2)"/><path d="M270.41 41.64a18.06 18.06 0 01-.72 5.11.85.85 0 00.52 1 .85.85 0 001.09-.54 19.76 19.76 0 00.8-5.65.84.84 0 00-.9-.83.85.85 0 00-.79.91z" transform="translate(-230.36 -19.65)" fill="url(#铃琨眄_沭噤桢眚_28-3)"/><path d="M265.15 54.4a18 18 0 01-4.13 3.1.84.84 0 00-.37 1.11.84.84 0 001.15.39 19.64 19.64 0 004.56-3.42.85.85 0 000-1.22.84.84 0 00-1.21.04z" transform="translate(-230.36 -19.65)" fill="url(#铃琨眄_沭噤桢眚_28-4)"/><path d="M239.6 28.93a18 18 0 014.13-3.1.84.84 0 00.37-1.11.84.84 0 00-1.15-.39 19.63 19.63 0 00-4.56 3.42.85.85 0 000 1.22.84.84 0 001.21-.04z" transform="translate(-230.36 -19.65)" fill="url(#铃琨眄_沭噤桢眚_2-3)"/><path d="M234.34 41.69a18.06 18.06 0 01.72-5.11.85.85 0 00-.52-1 .84.84 0 00-1.09.54 19.76 19.76 0 00-.8 5.65.84.84 0 00.9.83.85.85 0 00.79-.91z" transform="translate(-230.36 -19.65)" fill="url(#铃琨眄_沭噤桢眚_2-4)"/></g><g opacity=".6"><path d="M232.63 41a.88.88 0 00-.93.88 20.58 20.58 0 00.93 5.9.89.89 0 001.15.55.88.88 0 00.53-1.1 18.81 18.81 0 01-.85-5.34.88.88 0 00-.83-.89z" transform="translate(-230.36 -19.65)" fill="url(#铃琨眄_沭噤桢眚_28-5)"/><path d="M238 55.18a.89.89 0 000 1.28 20.7 20.7 0 004.83 3.5.89.89 0 001.21-.43.88.88 0 00-.41-1.15 18.93 18.93 0 01-4.38-3.17.88.88 0 00-1.25-.03z" transform="translate(-230.36 -19.65)" fill="url(#铃琨眄_沭噤桢眚_28-6)"/><path d="M266.79 28.15a.89.89 0 000-1.28 20.7 20.7 0 00-4.83-3.5.89.89 0 00-1.21.43.88.88 0 00.41 1.15 18.93 18.93 0 014.38 3.17.88.88 0 001.25.03z" transform="translate(-230.36 -19.65)" fill="url(#铃琨眄_沭噤桢眚_2-5)"/><path d="M272.12 42.3a.88.88 0 00.92-.88 20.58 20.58 0 00-.93-5.9A.89.89 0 00271 35a.88.88 0 00-.53 1.1 18.81 18.81 0 01.85 5.34.88.88 0 00.8.86z" transform="translate(-230.36 -19.65)" fill="url(#铃琨眄_沭噤桢眚_2-6)"/><path d="M269.1 50.47a18.92 18.92 0 01-3.17 4.38.88.88 0 000 1.22.89.89 0 001.28 0 20.7 20.7 0 003.5-4.83.89.89 0 00-.43-1.21.88.88 0 00-1.18.44z" transform="translate(-230.36 -19.65)" fill="url(#铃琨眄_沭噤桢眚_28-7)"/><path d="M258 59.72a18.81 18.81 0 01-5.34.85.88.88 0 00-.89.84.88.88 0 00.88.93 20.58 20.58 0 005.9-.93.89.89 0 00.55-1.15.89.89 0 00-1.1-.54z" transform="translate(-230.36 -19.65)" fill="url(#铃琨眄_沭噤桢眚_28-8)"/><path d="M246.78 23.61a18.81 18.81 0 015.34-.85.88.88 0 00.89-.84.88.88 0 00-.88-.92 20.57 20.57 0 00-5.9.93.89.89 0 00-.55 1.15.89.89 0 001.1.53z" transform="translate(-230.36 -19.65)" fill="url(#铃琨眄_沭噤桢眚_2-7)"/><path d="M235.65 32.86a18.93 18.93 0 013.17-4.38.88.88 0 000-1.22.89.89 0 00-1.28 0 20.7 20.7 0 00-3.5 4.83.89.89 0 00.43 1.21.88.88 0 001.18-.44z" transform="translate(-230.36 -19.65)" fill="url(#铃琨眄_沭噤桢眚_2-8)"/></g><g opacity=".8"><path d="M235.19 52.14a.9.9 0 00-.3 1.27 21 21 0 004.08 4.5.91.91 0 001.3-.17.9.9 0 00-.17-1.24 19.17 19.17 0 01-3.7-4.08.9.9 0 00-1.21-.28z" transform="translate(-230.36 -19.65)" fill="url(#铃琨眄_沭噤桢眚_28-9)"/><path d="M247.63 61.23a.91.91 0 00.69 1.11 21.1 21.1 0 006.07.29.91.91 0 00.79-1 .9.9 0 00-1-.76 19.28 19.28 0 01-5.51-.26.9.9 0 00-1.04.62z" transform="translate(-230.36 -19.65)" fill="url(#铃琨眄_沭噤桢眚_28-10)"/><path d="M257.12 22.1a.91.91 0 00-.69-1.11 21.1 21.1 0 00-6.07-.29.91.91 0 00-.79 1 .9.9 0 001 .76 19.28 19.28 0 015.51.26.9.9 0 001.04-.62z" transform="translate(-230.36 -19.65)" fill="url(#铃琨眄_沭噤桢眚_2-9)"/><path d="M269.56 31.19a.9.9 0 00.3-1.27 21 21 0 00-4.08-4.5.91.91 0 00-1.3.17.9.9 0 00.17 1.24 19.17 19.17 0 013.7 4.08.9.9 0 001.21.28z" transform="translate(-230.36 -19.65)" fill="url(#铃琨眄_沭噤桢眚_2-10)"/><path d="M271.54 39.85a19.29 19.29 0 01-.26 5.51.9.9 0 00.66 1.06.91.91 0 001.11-.69 21.09 21.09 0 00.29-6.07.91.91 0 00-1-.79.9.9 0 00-.8.98z" transform="translate(-230.36 -19.65)" fill="url(#铃琨眄_沭噤桢眚_28-11)"/><path d="M267.22 53.93a19.16 19.16 0 01-4.08 3.7.9.9 0 00-.28 1.21.91.91 0 001.27.3 21 21 0 004.5-4.08.91.91 0 00-.17-1.3.9.9 0 00-1.24.17z" transform="translate(-230.36 -19.65)" fill="url(#铃琨眄_沭噤桢眚_28-12)"/><path d="M237.54 29.4a19.16 19.16 0 014.08-3.7.9.9 0 00.28-1.21.9.9 0 00-1.27-.3 21 21 0 00-4.5 4.08.91.91 0 00.17 1.3.9.9 0 001.24-.17z" transform="translate(-230.36 -19.65)" fill="url(#铃琨眄_沭噤桢眚_2-11)"/><path d="M233.21 43.49a19.28 19.28 0 01.26-5.51.9.9 0 00-.66-1.06.91.91 0 00-1.11.69 21.09 21.09 0 00-.29 6.07.91.91 0 001 .79.9.9 0 00.8-.98z" transform="translate(-230.36 -19.65)" fill="url(#铃琨眄_沭噤桢眚_2-12)"/></g><path d="M233 49.87a.94.94 0 00-.5 1.27 21.94 21.94 0 003.5 5.29 1 1 0 001.37 0 1 1 0 000-1.31 20.06 20.06 0 01-3.2-4.79 1 1 0 00-1.17-.46z" transform="translate(-230.36 -19.65)" fill="url(#铃琨眄_沭噤桢眚_28-13)"/><path d="M244.45 61.19a1 1 0 00.54 1.25 22.07 22.07 0 006.25 1.23 1 1 0 001-1 1 1 0 00-.91-.94 20.18 20.18 0 01-5.66-1.12 1 1 0 00-1.22.58z" transform="translate(-230.36 -19.65)" fill="url(#铃琨眄_沭噤桢眚_28-14)"/><path d="M260.3 22.14a1 1 0 00-.54-1.25 22.07 22.07 0 00-6.25-1.23 1 1 0 00-1 1 1 1 0 00.91.94 20.18 20.18 0 015.66 1.12 1 1 0 001.22-.58z" transform="translate(-230.36 -19.65)" fill="url(#铃琨眄_沭噤桢眚_2-13)"/><path d="M271.77 33.46a.94.94 0 00.5-1.27 21.94 21.94 0 00-3.54-5.29 1 1 0 00-1.37 0 1 1 0 000 1.31 20.06 20.06 0 013.2 4.79 1 1 0 001.21.46z" transform="translate(-230.36 -19.65)" fill="url(#铃琨眄_沭噤桢眚_2-14)"/><path d="M272.5 42.73a20.18 20.18 0 01-1.12 5.66 1 1 0 00.52 1.2 1 1 0 001.25-.54 22.08 22.08 0 001.23-6.25 1 1 0 00-1-1 1 1 0 00-.88.93z" transform="translate(-230.36 -19.65)" fill="url(#铃琨眄_沭噤桢眚_28-15)"/><path d="M265.85 56.65a20.06 20.06 0 01-4.79 3.2 1 1 0 00-.48 1.22.94.94 0 001.27.5 21.94 21.94 0 005.29-3.57 1 1 0 000-1.37 1 1 0 00-1.29.02z" transform="translate(-230.36 -19.65)" fill="url(#铃琨眄_沭噤桢眚_28-16)"/><path d="M238.9 26.68a20.06 20.06 0 014.79-3.2 1 1 0 00.48-1.22.94.94 0 00-1.27-.5 21.94 21.94 0 00-5.29 3.54 1 1 0 000 1.37 1 1 0 001.29.01z" transform="translate(-230.36 -19.65)" fill="url(#铃琨眄_沭噤桢眚_2-15)"/><path d="M232.25 40.6a20.18 20.18 0 011.12-5.66 1 1 0 00-.52-1.2 1 1 0 00-1.25.54 22.08 22.08 0 00-1.23 6.25 1 1 0 001 1 1 1 0 00.88-.93z" transform="translate(-230.36 -19.65)" fill="url(#铃琨眄_沭噤桢眚_2-16)"/><g opacity=".3"><path d="M241 54.28a.76.76 0 00.06 1.1 17.71 17.71 0 004.36 2.62.76.76 0 001-.45.76.76 0 00-.43-1 16.2 16.2 0 01-4-2.42.76.76 0 00-.99.15z" transform="translate(-230.36 -19.65)" fill="url(#铃琨眄_沭噤桢眚_33)"/><path d="M253.23 58.66a.76.76 0 00.82.73 17.82 17.82 0 005-1.23.76.76 0 00.39-1 .77.77 0 00-1-.38 16.29 16.29 0 01-4.52 1.11.77.77 0 00-.69.77z" transform="translate(-230.36 -19.65)" fill="url(#铃琨眄_沭噤桢眚_33-2)"/><path d="M251.52 24.67a.76.76 0 00-.82-.73 17.83 17.83 0 00-5 1.23.76.76 0 00-.39 1 .77.77 0 001 .38 16.3 16.3 0 014.52-1.11.77.77 0 00.69-.77z" transform="translate(-230.36 -19.65)" fill="url(#铃琨眄_沭噤桢眚_2-17)"/><path d="M263.78 29.06a.76.76 0 00-.06-1.1 17.72 17.72 0 00-4.39-2.67.76.76 0 00-1 .45.76.76 0 00.43 1 16.2 16.2 0 014 2.42.76.76 0 001.02-.1z" transform="translate(-230.36 -19.65)" fill="url(#铃琨眄_沭噤桢眚_2-18)"/><path d="M267.47 35.6a16.3 16.3 0 011.11 4.52.77.77 0 00.79.7.76.76 0 00.73-.82 17.82 17.82 0 00-1.23-5 .76.76 0 00-1-.39.77.77 0 00-.4.99z" transform="translate(-230.36 -19.65)" fill="url(#铃琨眄_沭噤桢眚_33-3)"/><path d="M267.34 48a16.19 16.19 0 01-2.42 4 .76.76 0 00.06 1.05.76.76 0 001.1-.06 17.71 17.71 0 002.67-4.4.76.76 0 00-.45-1 .76.76 0 00-.96.41z" transform="translate(-230.36 -19.65)" fill="url(#铃琨眄_沭噤桢眚_33-4)"/><path d="M237.41 35.29a16.19 16.19 0 012.42-4 .76.76 0 00-.06-1.05.76.76 0 00-1.1.06 17.71 17.71 0 00-2.67 4.41.76.76 0 00.45 1 .76.76 0 00.96-.42z" transform="translate(-230.36 -19.65)" fill="url(#铃琨眄_沭噤桢眚_2-19)"/><path d="M237.28 47.74a16.29 16.29 0 01-1.11-4.52.77.77 0 00-.79-.7.76.76 0 00-.73.82 17.82 17.82 0 001.23 5 .76.76 0 001 .39.77.77 0 00.4-.99z" transform="translate(-230.36 -19.65)" fill="url(#铃琨眄_沭噤桢眚_2-20)"/></g><circle class="cls-45" cx="241.42" cy="30.71" r=".43" transform="rotate(-30.35 90.01 445.545)"/><circle cx="241.42" cy="52.62" r=".43" transform="rotate(-30.35 90.024 467.457)" fill="#fc5f80"/><circle class="cls-45" cx="263.33" cy="52.62" r=".43" transform="rotate(-30.35 111.931 467.462)"/></svg>