<svg preserveAspectRatio="none" id="Layer_1" data-name="Layer 1" xmlns="http://www.w3.org/2000/svg" viewBox="0 0 65.85 68.91"><defs><style>.cls-1{opacity:0.5;}.cls-2{fill:#00b3ea;}.cls-3{fill:#feb113;}.cls-4{opacity:0.9;}.cls-5{opacity:0.8;}.cls-6{opacity:0.7;}.cls-7{opacity:0.6;}.cls-8{opacity:0.4;}.cls-9{opacity:0.3;}.cls-10{opacity:0.2;}.cls-11{opacity:0.1;}.cls-12{fill:#065977;}</style></defs><title>circle56</title><g class="cls-1"><path class="cls-2" d="M288.71,53.35l-0.49-.22a32.61,32.61,0,0,0-3.07-1.24l-1-.34-1.1-.32-0.57-.16-0.59-.14-1.23-.28a36.5,36.5,0,0,0-5.32-.64,35,35,0,0,0-5.35.18,34.09,34.09,0,0,0-4.6.83c-1.33.34-2.41,0.69-3.17,1l-1.18.44,1.57,3.93,1-.38c0.66-.24,1.61-0.55,2.77-0.84a29.84,29.84,0,0,1,4-.73,30.83,30.83,0,0,1,4.7-.16,32.28,32.28,0,0,1,4.67.56L280.89,55l0.52,0.12,0.5,0.14,1,0.28,0.89,0.3A28.4,28.4,0,0,1,286.45,57l0.43,0.19,0.31,0.16,0.26,0.13,1.91-3.78-0.29-.15Z" transform="translate(-242.42 -49.98)"/><path class="cls-2" d="M307.89,79.24c0-.31-0.11-0.6-0.15-0.87l-0.14-.77c0-.24-0.1-0.45-0.14-0.65l-0.21-.9c0-.21-0.08-0.32-0.08-0.32l-4.1,1.07s0,0.1.07,0.28l0.18,0.79c0,0.17.09,0.36,0.13,0.57l0.12,0.67,0.14,0.77,0.11,0.86a30.51,30.51,0,0,1-.2,8.78,28.55,28.55,0,0,1-1.14,4.56c-0.23.72-.51,1.39-0.76,2-0.13.32-.28,0.62-0.41,0.92s-0.26.58-.4,0.85c-0.28.53-.52,1-0.77,1.45s-0.45.8-.64,1.09l-0.59.93,3.51,2.37,0.68-1.06c0.22-.33.45-0.76,0.73-1.24s0.56-1,.88-1.65c0.16-.3.31-0.63,0.46-1s0.31-.68.46-1c0.29-.73.6-1.5,0.86-2.31a32.74,32.74,0,0,0,1.3-5.2,34.74,34.74,0,0,0,.23-10Z" transform="translate(-242.42 -49.98)"/><path class="cls-2" d="M276.84,114.51l-1.26.1c-0.49,0-1,0-1.64.05a30.28,30.28,0,0,1-13.08-2.91c-0.34-.16-0.66-0.34-1-0.5L259.4,111l-0.45-.26-0.87-.5-0.79-.51-0.37-.24-0.34-.24-0.63-.45c-0.2-.14-0.38-0.28-0.54-0.41l-0.46-.36-0.37-.29-0.26-.23-0.22-.19-2.76,3.21,0.25,0.21,0.3,0.26,0.42,0.33,0.52,0.41c0.19,0.15.39,0.31,0.62,0.47l0.72,0.51,0.39,0.28,0.42,0.27,0.9,0.58,1,0.57,0.52,0.3,0.54,0.28c0.37,0.18.74,0.39,1.13,0.57A34.51,34.51,0,0,0,274,118.89c0.68,0,1.31,0,1.87-.06l1.44-.11,1.25-.15-0.57-4.19Z" transform="translate(-242.42 -49.98)"/><path class="cls-2" d="M300.43,67.77a31.78,31.78,0,0,0-4.07-5.19,31.33,31.33,0,0,0-9.87-6.88A31.93,31.93,0,0,0,281.42,54l-1.23-.28L279,53.46c-0.4-.08-0.79-0.12-1.18-0.17s-0.77-.11-1.15-0.13l-1.12-.09-1.09,0h-1l-1,0-1,.07c-0.31,0-.62,0-0.92.08-0.6.08-1.17,0.13-1.71,0.23s-1.05.17-1.52,0.29-0.92.19-1.33,0.31-0.79.21-1.13,0.31l-0.93.3c-0.28.08-.52,0.18-0.73,0.26l-0.53.2-0.43.16,0.44,1.09L263,56.2l0.51-.19c0.2-.08.43-0.17,0.7-0.25l0.9-.29c0.33-.1.7-0.19,1.09-0.3s0.82-.2,1.28-0.3,0.95-.19,1.47-0.27,1.07-.15,1.65-0.22c0.29,0,.59-0.05.89-0.08l0.93-.06,1,0h1l1,0,1.08,0.08c0.37,0,.73.08,1.11,0.12s0.76,0.09,1.14.16l1.17,0.21,1.19,0.27A30.77,30.77,0,0,1,286,56.78a30.16,30.16,0,0,1,9.5,6.62,30.59,30.59,0,0,1,3.92,5,29.32,29.32,0,0,1,2.88,6A30.4,30.4,0,0,1,302.14,95a31,31,0,0,1-3.3,6.39A30.32,30.32,0,0,1,288.32,111a30.38,30.38,0,0,1-6.51,2.63l-0.42.12-0.42.1-0.84.19c-0.56.12-1.13,0.21-1.69,0.31s-1.13.15-1.7,0.21l-0.85.06c-0.28,0-.56,0-0.85,0A30.12,30.12,0,0,1,252.67,106a30.8,30.8,0,0,1-3.37-3.92l-0.36-.5c-0.12-.16-0.23-0.33-0.34-0.5l-0.64-1c-0.39-.68-0.78-1.32-1.1-2s-0.62-1.3-.91-1.92l-0.37-.94-0.18-.46-0.15-.45-0.3-.88-0.25-.86c-0.17-.56-0.29-1.1-0.4-1.61a31.36,31.36,0,0,1-.67-4.83c0-.56,0-1,0-1.29V84.43h-1.18v0.46c0,0.3,0,.75,0,1.34a32.54,32.54,0,0,0,.7,5c0.12,0.53.24,1.1,0.42,1.67l0.25,0.89,0.31,0.92,0.16,0.47,0.19,0.47,0.38,1c0.3,0.64.58,1.33,0.94,2s0.74,1.36,1.14,2.06l0.66,1c0.11,0.18.23,0.35,0.35,0.52l0.37,0.52a32,32,0,0,0,3.5,4.07,31.3,31.3,0,0,0,23.24,8.94c0.29,0,.59,0,0.88,0l0.88-.07c0.59-.06,1.17-0.14,1.76-0.22s1.18-.2,1.76-0.33l0.88-.2,0.44-.1,0.43-.12a31.58,31.58,0,0,0,6.76-2.73A31.5,31.5,0,0,0,299.82,102a32.19,32.19,0,0,0,3.43-6.64A31.58,31.58,0,0,0,303.43,74,30.48,30.48,0,0,0,300.43,67.77Z" transform="translate(-242.42 -49.98)"/></g><path class="cls-3" d="M252.62,79.61l0,0.19-0.09.52c0,0.21-.09.46-0.12,0.73l-0.11.84c0,0.29,0,.58-0.07.84s0,0.52,0,.74l0,0.72H248l0-.85c0-.26,0-0.56,0-0.88s0-.66.08-1l0.13-1c0-.32.1-0.61,0.14-0.87l0.11-.61,0.05-.23Z" transform="translate(-242.42 -49.98)"/><path class="cls-3" d="M254.77,73.79l-0.33.64-0.16.31-0.16.36c-0.11.25-.24,0.51-0.34,0.78l-0.31.79-0.24.7c-0.07.21-.13,0.38-0.16,0.5l-0.05.19-4-1.16,0.07-.23c0-.15.11-0.35,0.19-0.59s0.18-.53.29-0.83l0.37-.94c0.12-.32.28-0.63,0.41-0.93l0.19-.42,0.19-.37,0.39-.76Z" transform="translate(-242.42 -49.98)"/><path class="cls-3" d="M258.47,68.83l-0.5.52c-0.15.15-.32,0.35-0.49,0.55s-0.37.42-.54,0.65a20.57,20.57,0,0,0-1.35,1.87l-3.47-2.23a24.82,24.82,0,0,1,1.6-2.23c0.21-.27.44-0.53,0.65-0.77s0.41-.47.59-0.65l0.59-.62Z" transform="translate(-242.42 -49.98)"/><path class="cls-3" d="M263.42,65.09l-0.63.36c-0.19.1-.4,0.25-0.63,0.39s-0.47.3-.7,0.47-0.47.33-.69,0.5l-0.58.46c-0.17.13-.3,0.26-0.4,0.34l-0.15.13-2.7-3.11,0.18-.15c0.12-.1.27-0.24,0.48-0.4l0.69-.54c0.25-.2.54-0.39,0.82-0.59s0.57-.39.84-0.56,0.52-.34.75-0.47l0.74-.43Z" transform="translate(-242.42 -49.98)"/><path class="cls-3" d="M269.23,62.9l-0.7.16-0.71.2-0.4.12-0.41.14c-0.55.18-1.09,0.4-1.49,0.56l-0.66.29-1.72-3.74,0.79-.35c0.48-.19,1.12-0.45,1.77-0.66l0.49-.16,0.48-.14,0.85-.24,0.84-.19Z" transform="translate(-242.42 -49.98)"/><g class="cls-4"><path class="cls-3" d="M275.4,62.44h-0.2l-0.52,0-0.74,0-0.85,0c-0.29,0-.58,0-0.85.05s-0.52,0-.74.07l-0.72.09-0.59-4.08,0.85-.11c0.26,0,.55-0.05.87-0.08s0.66-.06,1-0.06l1,0,0.88,0,0.62,0,0.24,0Z" transform="translate(-242.42 -49.98)"/></g><g class="cls-5"><path class="cls-3" d="M281.47,63.72l-0.19-.07-0.5-.17-0.33-.11-0.38-.11c-0.26-.07-0.54-0.16-0.82-0.23l-0.83-.19-0.73-.14c-0.43-.08-0.71-0.11-0.71-0.11l0.57-4.08s0.34,0,.85.13l0.87,0.16,1,0.23c0.33,0.08.66,0.18,1,.27l0.45,0.13,0.4,0.13,0.59,0.2,0.22,0.08Z" transform="translate(-242.42 -49.98)"/></g><g class="cls-6"><path class="cls-3" d="M286.92,66.67l-0.59-.42c-0.17-.13-0.39-0.26-0.62-0.41s-0.47-.31-0.72-0.45a20.52,20.52,0,0,0-2.05-1.06l1.7-3.75a24.73,24.73,0,0,1,2.44,1.27c0.3,0.17.59,0.36,0.86,0.53s0.52,0.33.73,0.49l0.7,0.5Z" transform="translate(-242.42 -49.98)"/></g><g class="cls-7"><path class="cls-3" d="M291.33,71l-0.45-.57c-0.13-.17-0.3-0.36-0.48-0.56s-0.37-.42-0.57-0.63-0.39-.42-0.59-0.61l-0.54-.51c-0.16-.15-0.3-0.26-0.39-0.35l-0.15-.13,2.69-3.12L291,64.7c0.11,0.1.28,0.24,0.46,0.41l0.64,0.61c0.23,0.22.46,0.47,0.7,0.72s0.47,0.5.67,0.75,0.41,0.47.57,0.67l0.53,0.67Z" transform="translate(-242.42 -49.98)"/></g><g class="cls-1"><path class="cls-3" d="M294.33,76.45l-0.27-.67c-0.08-.2-0.19-0.43-0.3-0.68l-0.17-.38-0.2-.38c-0.25-.52-0.55-1-0.77-1.39l-0.39-.61,3.46-2.24s0.19,0.29.46,0.73,0.61,1,.91,1.65l0.23,0.46,0.21,0.45c0.13,0.29.26,0.57,0.36,0.81l0.32,0.8Z" transform="translate(-242.42 -49.98)"/></g><g class="cls-8"><path class="cls-3" d="M295.69,82.5l0-.2c0-.13,0-0.31,0-0.52l-0.09-.73c0-.27-0.09-0.55-0.14-0.84l-0.08-.42-0.09-.41c-0.06-.26-0.11-0.51-0.17-0.72l-0.2-.7,3.95-1.18L299,77.62c0.07,0.25.13,0.54,0.2,0.86L299.35,79l0.09,0.5c0.06,0.34.13,0.68,0.17,1l0.11,0.87c0,0.26,0,.47.06,0.62l0,0.23Z" transform="translate(-242.42 -49.98)"/></g><g class="cls-9"><path class="cls-3" d="M295.29,88.68s0-.07,0-0.19l0.09-.52c0.09-.43.15-1,0.22-1.57s0.1-1.15.1-1.58V84.3c0-.13,0-0.2,0-0.2l4.12,0s0,0.09,0,.23v0.62c0,0.51-.06,1.2-0.12,1.88s-0.16,1.36-.26,1.87l-0.11.61c0,0.15,0,.23,0,0.23Z" transform="translate(-242.42 -49.98)"/></g><g class="cls-10"><path class="cls-3" d="M293.17,94.51l0.33-.64c0.1-.19.2-0.42,0.32-0.67s0.24-.51.34-0.78a20.38,20.38,0,0,0,.76-2.18l4,1.14A24.62,24.62,0,0,1,298,94c-0.12.32-.27,0.63-0.4,0.93s-0.26.57-.38,0.8l-0.39.76Z" transform="translate(-242.42 -49.98)"/></g><g class="cls-11"><path class="cls-3" d="M289.49,99.5L290,99c0.15-.15.31-0.35,0.49-0.55l0.27-.32,0.27-.34c0.18-.23.36-0.45,0.52-0.67l0.43-.6c0.13-.18.22-0.33,0.29-0.44l0.11-.17,3.48,2.21-0.13.2c-0.08.13-.19,0.31-0.34,0.52l-0.51.72c-0.18.26-.4,0.53-0.61,0.8l-0.32.4-0.32.38c-0.21.24-.4,0.47-0.58,0.66l-0.59.62Z" transform="translate(-242.42 -49.98)"/></g><path class="cls-2" d="M252.88,84.2v0.38c0,0.25,0,.62,0,1.1a20.19,20.19,0,0,0,.71,4.13l0.19,0.67,0.23,0.69c0.08,0.24.17,0.48,0.27,0.72s0.19,0.49.31,0.74a20.32,20.32,0,0,0,1.68,3.1,21.23,21.23,0,0,0,5.91,6,21.45,21.45,0,0,0,4.3,2.21,21,21,0,0,0,5,1.21c0.22,0,.44,0,0.67.06l0.67,0,0.68,0h0.68l0.68,0,0.69,0c0.46,0,.92-0.09,1.38-0.15a20.83,20.83,0,0,0,2.76-.6c0.46-.12.91-0.29,1.37-0.44l0.67-.26,0.34-.13,0.33-.15a21.07,21.07,0,0,0,5-3.12A21.11,21.11,0,0,0,293,93.18a21.46,21.46,0,0,0,1.11-2.88,21.76,21.76,0,0,0,.68-3,21.08,21.08,0,0,0,0-6.17,21.76,21.76,0,0,0-.68-3,21,21,0,0,0-2.61-5.54,21.15,21.15,0,0,0-4-4.49,21.07,21.07,0,0,0-5-3.12l-0.33-.15-0.34-.13-0.67-.26c-0.46-.15-0.91-0.32-1.37-0.44a20.88,20.88,0,0,0-2.76-.6c-0.46-.06-0.92-0.13-1.38-0.15l-0.69,0-0.68,0h-0.68l-0.68,0-0.67,0c-0.22,0-.44,0-0.67.06a21,21,0,0,0-5,1.21,21.45,21.45,0,0,0-4.3,2.21,21.23,21.23,0,0,0-5.91,6,20.32,20.32,0,0,0-1.68,3.1c-0.12.25-.21,0.5-0.31,0.74s-0.19.48-.27,0.72l-0.23.69-0.19.67a20.19,20.19,0,0,0-.71,4.13c0,0.48,0,.85,0,1.1V84.2h-0.22V83.82c0-.25,0-0.63,0-1.12a20.39,20.39,0,0,1,.71-4.18l0.19-.68,0.24-.7c0.08-.24.17-0.48,0.27-0.73s0.19-.5.31-0.75a20.52,20.52,0,0,1,1.7-3.13,21.46,21.46,0,0,1,6-6,21.67,21.67,0,0,1,4.34-2.23,21.23,21.23,0,0,1,5.08-1.22c0.22,0,.45,0,0.67-0.06l0.68,0,0.68,0h0.69l0.69,0,0.69,0c0.47,0,.93.1,1.4,0.15a21.08,21.08,0,0,1,2.79.6c0.47,0.12.92,0.29,1.38,0.44l0.68,0.27,0.34,0.14,0.33,0.15a21.29,21.29,0,0,1,5,3.15,21.33,21.33,0,0,1,5.58,7.23A21.68,21.68,0,0,1,294.32,78a22,22,0,0,1,.68,3.05,21.32,21.32,0,0,1,0,6.24,22,22,0,0,1-.68,3.05,21.2,21.2,0,0,1-2.64,5.6,21.35,21.35,0,0,1-4.06,4.54,21.28,21.28,0,0,1-5,3.15l-0.33.15-0.34.14-0.68.27c-0.46.15-.92,0.32-1.38,0.44a21.06,21.06,0,0,1-2.79.6c-0.47.06-.93,0.13-1.4,0.15l-0.69,0-0.69,0h-0.69l-0.68,0-0.68,0c-0.23,0-.45,0-0.67-0.06a21.23,21.23,0,0,1-5.08-1.22,21.67,21.67,0,0,1-4.34-2.23,21.45,21.45,0,0,1-6-6,20.52,20.52,0,0,1-1.7-3.13c-0.12-.25-0.21-0.5-0.31-0.75s-0.19-.49-0.27-0.73l-0.24-.7-0.19-.68a20.4,20.4,0,0,1-.71-4.18c0-.49,0-0.86,0-1.12V84.2h0.22Z" transform="translate(-242.42 -49.98)"/><path class="cls-2" d="M247.55,84.2v0.47c0,0.31,0,.78.06,1.38a25.5,25.5,0,0,0,.89,5.18l0.24,0.84L249,92.95c0.1,0.3.22,0.6,0.34,0.9s0.24,0.62.38,0.93a25.64,25.64,0,0,0,2.11,3.89A26.34,26.34,0,0,0,271,110.42c0.28,0,.55.06,0.83,0.08l0.84,0.06,0.84,0h0.85l0.86,0,0.86-.06c0.58,0,1.15-.12,1.73-0.19a26.14,26.14,0,0,0,3.47-.75c0.58-.15,1.14-0.36,1.71-0.55l0.85-.33,0.42-.17,0.42-.19a26.4,26.4,0,0,0,6.26-3.9,26.34,26.34,0,0,0,9.15-16.36,26.39,26.39,0,0,0,0-7.72A26.4,26.4,0,0,0,290.9,64a26.39,26.39,0,0,0-6.26-3.9l-0.42-.19-0.42-.17L283,59.39c-0.57-.19-1.14-0.4-1.71-0.55a26.19,26.19,0,0,0-3.47-.75c-0.58-.07-1.16-0.16-1.73-0.19l-0.86-.06-0.86,0h-0.85l-0.84,0-0.84.06c-0.28,0-.56,0-0.83.08a26.35,26.35,0,0,0-6.3,1.51,26.4,26.4,0,0,0-12.79,10.24,25.63,25.63,0,0,0-2.11,3.89c-0.14.31-.26,0.62-0.38,0.93s-0.24.6-.34,0.9l-0.29.87-0.24.84a25.5,25.5,0,0,0-.89,5.18c-0.05.6,0,1.07-.06,1.38V84.2h-0.22V83.72c0-.31,0-0.78.06-1.39a25.72,25.72,0,0,1,.89-5.23l0.24-.85,0.3-.88c0.1-.3.22-0.6,0.34-0.91s0.24-.62.39-0.94a25.84,25.84,0,0,1,2.12-3.92,26.56,26.56,0,0,1,19.25-11.85c0.28,0,.56-0.06.84-0.08l0.85-.06,0.85,0h0.86l0.86,0,0.87,0.06c0.58,0,1.16.12,1.75,0.19a26.39,26.39,0,0,1,3.5.76c0.58,0.16,1.15.36,1.73,0.56l0.85,0.33,0.43,0.17,0.42,0.19A26.62,26.62,0,0,1,291,63.81a26.56,26.56,0,0,1,9.23,16.5,26.64,26.64,0,0,1,0,7.79,27.29,27.29,0,0,1-.85,3.82,26.55,26.55,0,0,1-3.3,7,26.69,26.69,0,0,1-5.07,5.67,26.63,26.63,0,0,1-6.31,3.94l-0.42.19-0.43.17-0.85.33c-0.58.2-1.15,0.4-1.73,0.56a26.38,26.38,0,0,1-3.5.76c-0.58.08-1.17,0.16-1.75,0.19l-0.87.06-0.86,0h-0.86l-0.85,0-0.85-.06c-0.28,0-.56,0-0.84-0.08a26.56,26.56,0,0,1-6.36-1.53,26.61,26.61,0,0,1-12.9-10.33,25.83,25.83,0,0,1-2.12-3.92c-0.15-.31-0.26-0.63-0.39-0.94s-0.24-.61-0.34-0.91l-0.3-.88-0.24-.85a25.72,25.72,0,0,1-.89-5.23c-0.05-.61,0-1.08-0.06-1.39V84.2h0.22Z" transform="translate(-242.42 -49.98)"/><path class="cls-2" d="M270.38,70.47l0.31-.07c0.19,0,.43-0.1.69-0.14l0.37-.07,0.32,0,0.32,0-0.64-5.89,0.13,0,0.28,0,0.41,0,0.63,9.25-0.38,0c-0.23,0-.53.06-0.83,0.12l-0.22,0-0.21.05-0.38.09-0.36.1L268.12,65l0.79-.22Z" transform="translate(-242.42 -49.98)"/><path class="cls-2" d="M287.91,82.61a2.81,2.81,0,0,1,0,.31c0,0.19,0,.44,0,0.7s0,0.51,0,.7v0.32l5.92,0.18v0.41l0,0.4L284.62,85v-0.1a2.37,2.37,0,0,0,0-.28V84.2c0-.14,0-0.3,0-0.45s0-.3,0-0.44V83.1l0-.18,0-.37,9.17-1.41,0.1,0.81Z" transform="translate(-242.42 -49.98)"/><path class="cls-2" d="M273.56,98.28h-0.32l-0.7-.05-0.69-.09-0.23,0-0.09,0-1,5.84-0.4-.07-0.4-.08,1.94-9.07,0.1,0,0.27,0c0.22,0,.52.08,0.82,0.12l0.44,0h0.39a3.64,3.64,0,0,0,.38,0l0.12,9.27H273.4Z" transform="translate(-242.42 -49.98)"/><path class="cls-2" d="M271.14,64.3l0.64,4.59-0.19,0-0.42.08c-0.31,0-.61.12-0.61,0.12l-1-4.52s0.39-.1.79-0.16l0.55-.1Z" transform="translate(-242.42 -49.98)"/><path class="cls-2" d="M293.92,84.2h-4.64l0-.62c0-.16,0-0.31,0-0.43V83l4.62-.37,0,0.25c0,0.15,0,.35,0,0.55Z" transform="translate(-242.42 -49.98)"/><path class="cls-2" d="M271.15,104l0.64-4.59,0.62,0.08,0.62,0-0.27,4.63-0.8-.06Z" transform="translate(-242.42 -49.98)"/><path class="cls-12" d="M264,66.15l1.49,2.69-0.24.14c-0.15.09-.37,0.21-0.63,0.38l-0.41.26-0.45.31c-0.31.21-.62,0.47-0.94,0.72s-0.62.52-.88,0.79l-0.39.38-0.34.35c-0.21.22-.37,0.41-0.49,0.54l-0.18.21,0.8,0.68-0.08.1L261,74c-0.09.13-.22,0.27-0.35,0.45s-0.27.38-.42,0.6a16.34,16.34,0,0,0-2.68,7.36c0,0.54-.09,1-0.09,1.3v0.5h-4.13l0-.94c0-.3,0-0.66.08-1.08,0-.21.05-0.43,0.08-0.66s0.06-.48.11-0.73a19.85,19.85,0,0,1,.87-3.41,20.62,20.62,0,0,1,4.08-6.91,20.93,20.93,0,0,1,4.59-3.84c0.25-.16.46-0.27,0.6-0.35Zm-8.46,16a0.52,0.52,0,1,0-.09,1,0.53,0.53,0,0,0,.56-0.48A0.54,0.54,0,0,0,255.5,82.12Zm0.3-1.82a0.51,0.51,0,0,0-.62.42,0.52,0.52,0,0,0,.42.61,0.53,0.53,0,0,0,.61-0.42,0.52,0.52,0,0,0-.09-0.38A0.53,0.53,0,0,0,255.8,80.3Zm0.48-1.78a0.51,0.51,0,0,0-.66.35,0.52,0.52,0,0,0,.36.65,0.53,0.53,0,0,0,.65-0.36,0.52,0.52,0,0,0,0-.39A0.53,0.53,0,0,0,256.27,78.51Zm0.65-1.73a0.52,0.52,0,1,0-.39,1A0.52,0.52,0,0,0,256.93,76.79Zm0.82-1.65a0.52,0.52,0,1,0-.49.92A0.52,0.52,0,0,0,257.75,75.14Zm1-1.56a0.52,0.52,0,1,0-.58.87A0.52,0.52,0,0,0,258.73,73.57Z" transform="translate(-242.42 -49.98)"/><path class="cls-12" d="M292.94,76.15l-2.84,1.2L290,77.1c-0.08-.16-0.17-0.39-0.31-0.66s-0.29-.59-0.49-0.91c-0.1-.16-0.19-0.34-0.29-0.5l-0.32-.51a17.41,17.41,0,0,0-1.34-1.77L287,72.44l-0.22-.23-0.19-.2-0.75.73-0.09-.09-0.26-.26L285,72l-0.56-.48a16.4,16.4,0,0,0-7-3.43c-0.26-.07-0.51-0.09-0.72-0.14s-0.4-.07-0.56-0.08l-0.49-.06,0.11-1,0.32-3.06L277,63.8,278.1,64l0.65,0.15,0.35,0.08,0.36,0.1c0.25,0.07.51,0.14,0.77,0.23l0.81,0.28,0.85,0.33,0.87,0.39a20.59,20.59,0,0,1,8.57,7.57c0.29,0.43.51,0.85,0.72,1.21l0.49,1Zm-15-10.08a0.52,0.52,0,1,0-1-.2A0.52,0.52,0,0,0,277.94,66.07Zm1.78,0.49a0.52,0.52,0,1,0-1-.3A0.52,0.52,0,0,0,279.72,66.56Zm1.72,0.66a0.52,0.52,0,1,0-1-.4A0.52,0.52,0,0,0,281.44,67.22ZM283.09,68a0.52,0.52,0,1,0-.92-0.49A0.52,0.52,0,0,0,283.09,68Zm1.56,1a0.52,0.52,0,1,0-.72.14A0.53,0.53,0,0,0,284.65,69Zm1.45,1.14a0.52,0.52,0,1,0-.73.07A0.52,0.52,0,0,0,286.1,70.18Z" transform="translate(-242.42 -49.98)"/><path class="cls-12" d="M278.54,104.31l-0.68-3,0.27-.06c0.17,0,.41-0.11.71-0.19a17.25,17.25,0,0,0,2.09-.75l0.55-.25,0.52-.26c0.34-.17.64-0.35,0.9-0.5s0.47-.3.62-0.39l0.23-.15-0.59-.87,0.4-.29c0.13-.09.29-0.2,0.46-0.34l0.27-.22,0.15-.12,0.15-.13a16.73,16.73,0,0,0,2.69-2.89l0.31-.44,0.29-.45c0.2-.29.36-0.6,0.53-0.89s0.31-.59.44-0.87,0.26-.54.35-0.8,0.19-.48.27-0.69l0.18-.54c0.05-.15.08-0.27,0.11-0.35l0-.12,1,0.29,3,0.85-0.07.24c0,0.16-.12.38-0.21,0.66l-0.16.47-0.21.55c-0.15.39-.35,0.82-0.56,1.29a21.29,21.29,0,0,1-1.79,3,20.72,20.72,0,0,1-5.82,5.51,21,21,0,0,1-3.12,1.62l-0.69.27-0.63.22c-0.39.14-.75,0.23-1,0.32l-0.39.11-0.29.07Zm12.55-13a0.52,0.52,0,1,0,.37-1A0.52,0.52,0,0,0,291.09,91.31ZM290.3,93a0.52,0.52,0,1,0,.47-0.93A0.52,0.52,0,0,0,290.3,93Zm-1,1.58a0.52,0.52,0,0,0,.73-0.16,0.53,0.53,0,0,0-.89-0.56A0.53,0.53,0,0,0,289.35,94.55ZM288.24,96a0.52,0.52,0,1,0,.64-0.82A0.52,0.52,0,0,0,288.24,96ZM287,97.39a0.52,0.52,0,1,0,.72-0.75A0.52,0.52,0,0,0,287,97.39Zm-1.37,1.23a0.51,0.51,0,0,0,.74.06,0.51,0.51,0,0,0,.05-0.74,0.53,0.53,0,0,0-.74-0.06,0.52,0.52,0,0,0-.17.35A0.53,0.53,0,0,0,285.62,98.62Z" transform="translate(-242.42 -49.98)"/><path class="cls-2" d="M257.23,102.39a1,1,0,0,0,.7.27,1,1,0,0,0,.67-0.28l0.31,0.27,0.42,0.33c0.28,0.22.56,0.44,0.85,0.64,0.57,0.41,1.18.79,1.78,1.15a23.07,23.07,0,0,0,3.85,1.8,24,24,0,0,0,8.34,1.43,23.75,23.75,0,0,0,15.54-6c0.19-.16.36-0.33,0.54-0.5l0.54-.51-0.14-.14-0.53.5c-0.18.17-.35,0.34-0.54,0.5a23.57,23.57,0,0,1-15.42,5.91,23.82,23.82,0,0,1-8.27-1.41,22.9,22.9,0,0,1-3.82-1.78c-0.6-.36-1.2-0.73-1.77-1.15-0.29-.19-0.57-0.42-0.85-0.63l-0.42-.32-0.31-.27a1,1,0,0,0,.18-0.7,1,1,0,0,0-1.72-.58A1,1,0,0,0,257.23,102.39Z" transform="translate(-242.42 -49.98)"/><path class="cls-2" d="M280.74,82.18a0.23,0.23,0,0,0-.07-0.16,0.23,0.23,0,0,0-.16-0.06v-0.1l0-.12c0-.08,0-0.16,0-0.25s-0.06-.32-0.1-0.49a5.38,5.38,0,0,0-.34-0.93,5.61,5.61,0,0,0-1.14-1.61,5.55,5.55,0,0,0-3.55-1.58H275v0h0.34a5.51,5.51,0,0,1,3.52,1.57,5.56,5.56,0,0,1,1.13,1.6,5.36,5.36,0,0,1,.34.92c0,0.16.08,0.32,0.1,0.48s0,0.16,0,.24l0,0.12V82a0.24,0.24,0,0,0-.14.09,0.23,0.23,0,0,0,.19.38A0.23,0.23,0,0,0,280.74,82.18Z" transform="translate(-242.42 -49.98)"/><rect class="cls-2" x="256.6" y="91.53" width="8.97" height="1" transform="translate(-251.26 103.49) rotate(-32.24)"/><path class="cls-3" d="M277.27,85.07l0-.13c0-.08,0-0.16,0-0.25V84.14l5.51,0.28V84.9l0,0.25c0,0.17,0,.35-0.07.51l0,0.23c0,0.08,0,.15,0,0.19l-0.08.34Z" transform="translate(-242.42 -49.98)"/><path class="cls-3" d="M276.8,86.16l0.07-.12a1.84,1.84,0,0,0,.15-0.27,2.19,2.19,0,0,0,.12-0.28l0-.13,5.21,1.82-0.12.33a7.39,7.39,0,0,1-.32.71,6.66,6.66,0,0,1-.37.68l-0.19.3Z" transform="translate(-242.42 -49.98)"/><path class="cls-3" d="M276,87l0.11-.08,0.22-.21,0.21-.22a0.63,0.63,0,0,0,.09-0.11l4.32,3.43a3.16,3.16,0,0,1-.22.27c-0.14.16-.33,0.37-0.53,0.57l-0.57.52-0.28.22Z" transform="translate(-242.42 -49.98)"/><path class="cls-3" d="M274.94,87.57l0.13,0,0.13,0,0.15-.07a2,2,0,0,0,.27-0.14l0.12-.07,3,4.66-0.3.18a7,7,0,0,1-.69.36l-0.38.17L277,92.7l-0.33.12Z" transform="translate(-242.42 -49.98)"/><path class="cls-3" d="M273.81,87.75h0.1l0.3,0,0.3,0,0.1,0h0L275.9,93l-0.09,0-0.25.05-0.77.12-0.77,0h-0.49Z" transform="translate(-242.42 -49.98)"/><path class="cls-3" d="M272.61,87.52l0.13,0c0.08,0,.19,0,0.29.08a2,2,0,0,0,.26.05l0.11,0-0.3,5.51-0.43,0-0.44-.07-0.24,0-0.21,0c-0.27-.07-0.55-0.14-0.75-0.21l-0.33-.12Z" transform="translate(-242.42 -49.98)"/><path class="cls-3" d="M271.58,86.94L271.69,87a2.18,2.18,0,0,0,.25.17,2.94,2.94,0,0,0,.39.21l-2.36,5-0.32-.16c-0.19-.09-0.43-0.24-0.67-0.39a7.36,7.36,0,0,1-.64-0.44l-0.28-.21Z" transform="translate(-242.42 -49.98)"/><path class="cls-3" d="M270.81,86l0.07,0.12,0.18,0.24c0.06,0.09.15,0.16,0.2,0.23l0.07,0.08,0,0-3.87,3.94-0.07-.07-0.17-.19c-0.14-.16-0.34-0.36-0.51-0.58s-0.34-.45-0.46-0.63l-0.19-.3Z" transform="translate(-242.42 -49.98)"/><path class="cls-3" d="M270.37,84.94l0,0.13a2,2,0,0,0,.09.29,2.43,2.43,0,0,0,.11.28l0.06,0.12-4.95,2.45-0.15-.32a7.74,7.74,0,0,1-.29-0.72,6.87,6.87,0,0,1-.22-0.75L265,86.09Z" transform="translate(-242.42 -49.98)"/><path class="cls-3" d="M270.32,83.71v0.14l0,0.41V84.2h0V84.5a0.76,0.76,0,0,0,0,.14l-5.48.68v-0.1c0-.06,0-0.15,0-0.25l0-.36V84.23h0V84l0-.41V83.25Z" transform="translate(-242.42 -49.98)"/><path class="cls-3" d="M270.66,82.63l-0.06.12a2.43,2.43,0,0,0-.11.28,2,2,0,0,0-.09.29l0,0.13L265,82.31l0.08-.34a6.86,6.86,0,0,1,.22-0.75,7.72,7.72,0,0,1,.29-0.72l0.15-.32Z" transform="translate(-242.42 -49.98)"/><path class="cls-3" d="M271.35,81.67l0,0-0.07.08c-0.05.06-.14,0.14-0.2,0.23l-0.18.24-0.07.12-4.72-2.87,0.19-.3c0.12-.18.29-0.4,0.46-0.63s0.37-.43.51-0.58l0.17-.19,0.07-.07Z" transform="translate(-242.42 -49.98)"/><path class="cls-3" d="M272.33,81a2.94,2.94,0,0,0-.39.21,2.19,2.19,0,0,0-.25.17l-0.11.08-3.52-4.26,0.28-.21a7.32,7.32,0,0,1,.64-0.44c0.24-.15.48-0.3,0.67-0.39L270,76Z" transform="translate(-242.42 -49.98)"/><path class="cls-3" d="M273.46,80.67l-0.14,0a2.13,2.13,0,0,0-.3.05c-0.11,0-.22,0-0.29.08l-0.13,0-1.92-5.18,0.33-.12c0.2-.07.48-0.14,0.75-0.21a7.26,7.26,0,0,1,.76-0.14l0.35,0Z" transform="translate(-242.42 -49.98)"/><path class="cls-12" d="M270.71,84.21s0-.09,0,0.07V84.22h0Z" transform="translate(-242.42 -49.98)"/><path class="cls-12" d="M273.92,87.33h0Z" transform="translate(-242.42 -49.98)"/><path class="cls-12" d="M273.84,81.07h0Z" transform="translate(-242.42 -49.98)"/><path class="cls-12" d="M277,84.18V84.12h0s0-.08,0-0.14,0-.08,0-0.12l0-.14c0-.05,0-0.11,0-0.17l0-.18a3,3,0,0,0-.39-0.88,3.2,3.2,0,0,0-.88-0.89,3.28,3.28,0,0,0-.64-0.32l-0.18-.06-0.18,0-0.09,0h-0.07l-0.14,0h-0.47a3,3,0,0,0-.41,0,3,3,0,0,0-.81.23,3.35,3.35,0,0,0-.74.46,3.52,3.52,0,0,0-.6.67,3.47,3.47,0,0,0-.39.82l-0.06.22v0.18l0,0.08v0.44h0v0.2a1.24,1.24,0,0,0,0,.23,3.2,3.2,0,0,0,.1.45,3.46,3.46,0,0,0,.39.82,3.52,3.52,0,0,0,.6.67,3.35,3.35,0,0,0,.74.46,1.56,1.56,0,0,0,.2.08,1.33,1.33,0,0,0,.2.07l0.2,0.05,0.16,0a3.11,3.11,0,0,0,.51,0h0.34a3.24,3.24,0,0,0,1.38-.5,3.2,3.2,0,0,0,.88-0.89,3,3,0,0,0,.39-0.88l0-.18c0-.05,0-0.09,0-0.13l0-.1a0.4,0.4,0,0,0,0-.08V84.2h0v0Zm-0.31.34a0.35,0.35,0,0,1,0,.08l0,0.08s0,0.06,0,.1l0,0.17a2.71,2.71,0,0,1-.36.79,2.9,2.9,0,0,1-.8.81,2.94,2.94,0,0,1-1.25.46h-0.3a2.71,2.71,0,0,1-.49,0h-0.13l-0.18,0a1.13,1.13,0,0,1-.18-0.06,1.32,1.32,0,0,1-.18-0.07,3.06,3.06,0,0,1-.67-0.42,3.24,3.24,0,0,1-.54-0.61,3.2,3.2,0,0,1-.35-0.74,3,3,0,0,1-.09-0.4,1.06,1.06,0,0,1,0-.21V84.23h0V83.8l0-.07V83.58l0.05-.2a3.2,3.2,0,0,1,.35-0.74A3.24,3.24,0,0,1,272,82a3.05,3.05,0,0,1,.67-0.42,2.72,2.72,0,0,1,.73-0.21,2.75,2.75,0,0,1,.37,0h0.45l0.11,0h0.06l0.08,0,0.17,0,0.16,0.06a3,3,0,0,1,.58.29,2.9,2.9,0,0,1,.8.81,2.71,2.71,0,0,1,.36.79l0,0.17c0,0.05,0,.1,0,0.15l0,0.13a1.08,1.08,0,0,1,0,.11c0,0.09,0,.16,0,0.18v0.34Z" transform="translate(-242.42 -49.98)"/><path class="cls-12" d="M283.22,84.77v0.09s0,0,0,.14,0,0.35-.06.54l0,0.3,0,0.16c0,0.06,0,.11,0,0.15s-0.09.36-.14,0.56a9.28,9.28,0,0,1-1.2,2.65,9.39,9.39,0,0,1-6.81,4.19c-0.2,0-.39,0-0.59,0h-0.77l-0.31,0-0.62-.06-0.39-.06-0.36-.07-0.62-.16c-0.21-.05-0.41-0.13-0.61-0.2s-0.41-.14-0.6-0.24a9.61,9.61,0,0,1-2.23-1.39,9.41,9.41,0,0,1-3-4.48,9.52,9.52,0,0,1-.3-1.35,6.26,6.26,0,0,1-.08-0.69l0-.34V84.22a2.12,2.12,0,1,1,0-.26l0-.35V83.38q0-.21,0-0.43t0.06-.43l0-.21,0-.17q0.08-.34.17-0.67a9.41,9.41,0,0,1,3-4.48A9.62,9.62,0,0,1,270,75.6a9.54,9.54,0,0,1,3.68-.81h1l0.73,0.1,0.18,0,0.17,0,0.28,0.07,0.56,0.15,0.53,0.19A9.34,9.34,0,0,1,281.7,79a9.27,9.27,0,0,1,1.2,2.65Q283,82,283,82.25c0,0.18.06,0.34,0.09,0.5l0.06,0.43c0,0.13,0,.25,0,0.36,0,0.43,0,.66,0,0.66h0.3s0-.24,0-0.68c0-.11,0-0.23,0-0.37l-0.06-.44c0-.16-0.05-0.33-0.09-0.51s-0.09-.37-0.14-0.58A9.57,9.57,0,0,0,282,78.88a9.64,9.64,0,0,0-4.7-3.76l-0.55-.19-0.57-.15-0.29-.07-0.17,0-0.19,0-0.76-.1h-1a9.84,9.84,0,0,0-3.79.83,9.9,9.9,0,0,0-2.3,1.43,9.71,9.71,0,0,0-3.05,4.62q-0.1.34-.18,0.69l0,0.18,0,0.22q0,0.22-.07.44c0,0.15,0,.3-0.05.45V83.6l0,0.35a1.77,1.77,0,1,0,0,.27v0.33l0,0.35a6.56,6.56,0,0,0,.08.71,9.84,9.84,0,0,0,.31,1.39,9.7,9.7,0,0,0,3.05,4.62,9.91,9.91,0,0,0,2.3,1.43c0.2,0.1.41,0.17,0.62,0.25s0.42,0.15.63,0.21l0.64,0.16,0.38,0.07,0.4,0.06,0.4,0,0.23,0,0.31,0h0.8c0.21,0,.41,0,0.61,0a9.69,9.69,0,0,0,7-4.32,9.57,9.57,0,0,0,1.24-2.73c0.05-.2.1-0.39,0.14-0.58l0-.07V86.05l0-.16,0-.31c0-.2,0-0.39.07-0.56s0-.11,0-0.14V84.78l0-.33-0.3,0Z" transform="translate(-242.42 -49.98)"/><path class="cls-2" d="M271.55,84.2h0c0,0.25,0,.07,0,0.12h0V84.2h0Z" transform="translate(-242.42 -49.98)"/><path class="cls-2" d="M273.84,86.48h0Z" transform="translate(-242.42 -49.98)"/><path class="cls-2" d="M275.69,84.56l-0.11,0a1.7,1.7,0,0,0,0-.35,1.66,1.66,0,0,0-.23-0.84l0.1-.08L275.8,83l0-.06a1.08,1.08,0,0,0-.11-0.16,2.19,2.19,0,0,0-.18-0.21l-0.12-.11-0.06-.06-0.07,0a2.37,2.37,0,0,0-.51-0.3L274.53,82l-0.07,0s-0.07.14-.16,0.36l-0.07.18-0.28,0-0.31,0-0.06-.23c-0.06-.23-0.12-0.38-0.12-0.38h-0.07l-0.19,0-0.12,0-0.14,0a2.84,2.84,0,0,0-.55.33l-0.11.1a0.59,0.59,0,0,0-.1.09c-0.05.06-.11,0.11-0.13,0.15l0,0.06,0.28,0.28,0.23,0.21a1.66,1.66,0,0,0-.2.48l-0.32,0-0.4,0a0.17,0.17,0,0,0,0,0v0.06a0,0,0,0,0,0,0v0.43c0,0.05,0,.11,0,0.16s0,0.11,0,.16a0.74,0.74,0,0,0,0,.16,1.46,1.46,0,0,0,0,.15,2.15,2.15,0,0,0,.1.26,1.11,1.11,0,0,0,.09.17l0,0.06,0.36-.16,0.28-.14a1.68,1.68,0,0,0,.36.4l-0.14.25-0.12.26,0,0.1,0.06,0a1,1,0,0,0,.17.09l0.12,0.06,0.14,0,0.07,0,0.08,0,0.15,0,0.07,0H274a1,1,0,0,0,.2,0h0.07V86.33c0-.07,0-0.17,0-0.29s0-.13,0-0.2a1.66,1.66,0,0,0,.56-0.2l0.11,0.13,0.27,0.28,0.06,0L275.3,86l0.08-.08a2.15,2.15,0,0,0,.39-0.46,2.49,2.49,0,0,0,.25-0.54c0-.08,0-0.14,0-0.19v0h0S275.92,84.6,275.69,84.56Z" transform="translate(-242.42 -49.98)"/></svg>