<svg preserveAspectRatio="none" id="OBJECTS" xmlns="http://www.w3.org/2000/svg" xmlns:xlink="http://www.w3.org/1999/xlink" viewBox="0 0 345.67 351.92"><defs><style>.cls-1{fill:url(#linear-gradient);}.cls-2{fill:url(#linear-gradient-2);}.cls-3{fill:url(#linear-gradient-3);}.cls-4{fill:url(#linear-gradient-4);}.cls-5{fill:url(#linear-gradient-5);}.cls-6{fill:url(#linear-gradient-6);}.cls-7{fill:url(#linear-gradient-7);}.cls-8{fill:url(#linear-gradient-8);}.cls-9{fill:url(#linear-gradient-9);}.cls-10{fill:url(#linear-gradient-10);}.cls-11{fill:url(#linear-gradient-11);}.cls-12{fill:url(#linear-gradient-12);}.cls-13{fill:url(#linear-gradient-13);}.cls-14{fill:url(#linear-gradient-14);}.cls-15{fill:url(#linear-gradient-15);}.cls-16{fill:url(#linear-gradient-16);}.cls-17{fill:url(#linear-gradient-17);}.cls-18{fill:url(#linear-gradient-18);}.cls-19{fill:url(#linear-gradient-19);}.cls-20{fill:url(#linear-gradient-20);}.cls-21{fill:url(#linear-gradient-21);}.cls-22{fill:url(#linear-gradient-22);}.cls-23{fill:url(#linear-gradient-23);}.cls-24{fill:url(#linear-gradient-24);}.cls-25{fill:url(#linear-gradient-25);}.cls-26{fill:url(#linear-gradient-26);}.cls-27{fill:url(#linear-gradient-27);}.cls-28{fill:url(#linear-gradient-28);}.cls-29{fill:url(#linear-gradient-29);}.cls-30,.cls-32,.cls-33,.cls-34,.cls-35,.cls-36,.cls-39{fill:none;}.cls-30,.cls-39{stroke:#5fd7f2;}.cls-30,.cls-31,.cls-32,.cls-33,.cls-34,.cls-35,.cls-36,.cls-39{stroke-miterlimit:10;}.cls-30{stroke-width:0.83px;}.cls-31,.cls-38{fill:#07a5fb;}.cls-31,.cls-32,.cls-33,.cls-34,.cls-35,.cls-36{stroke:#07a5fb;}.cls-31{stroke-width:1.99px;}.cls-32,.cls-33,.cls-34,.cls-35,.cls-36{stroke-width:0.46px;}.cls-33{stroke-dasharray:5.26 5.26;}.cls-34{stroke-dasharray:5.26 5.26;}.cls-35{stroke-dasharray:5.25 5.25;}.cls-36{stroke-dasharray:4.95 4.95;}.cls-37{fill:url(#linear-gradient-30);}.cls-39{stroke-width:0.5px;stroke-dasharray:5.49;}</style><linearGradient id="linear-gradient" x1="185.98" y1="239.93" x2="313.39" y2="239.93" gradientUnits="userSpaceOnUse"><stop offset="0" stop-color="#5fd7f2"/><stop offset="0.99" stop-color="#398cbc"/></linearGradient><linearGradient id="linear-gradient-2" x1="250.24" y1="186.58" x2="265.03" y2="186.58" xlink:href="#linear-gradient"/><linearGradient id="linear-gradient-3" x1="234.73" y1="186.53" x2="249.13" y2="186.53" xlink:href="#linear-gradient"/><linearGradient id="linear-gradient-4" x1="189.87" y1="249.78" x2="203.26" y2="249.78" xlink:href="#linear-gradient"/><linearGradient id="linear-gradient-5" x1="191.34" y1="220.58" x2="206.7" y2="220.58" xlink:href="#linear-gradient"/><linearGradient id="linear-gradient-6" x1="218.94" y1="190.33" x2="236.52" y2="190.33" xlink:href="#linear-gradient"/><linearGradient id="linear-gradient-7" x1="263.18" y1="190.48" x2="280.79" y2="190.48" xlink:href="#linear-gradient"/><linearGradient id="linear-gradient-8" x1="197.37" y1="207.95" x2="213.85" y2="207.95" xlink:href="#linear-gradient"/><linearGradient id="linear-gradient-9" x1="285.52" y1="208.1" x2="302.21" y2="208.1" xlink:href="#linear-gradient"/><linearGradient id="linear-gradient-10" x1="283.06" y1="274.98" x2="299.79" y2="274.98" xlink:href="#linear-gradient"/><linearGradient id="linear-gradient-11" x1="199.37" y1="274.85" x2="216.32" y2="274.85" xlink:href="#linear-gradient"/><linearGradient id="linear-gradient-12" x1="189.79" y1="234.7" x2="202.18" y2="234.7" xlink:href="#linear-gradient"/><linearGradient id="linear-gradient-13" x1="292.82" y1="220.92" x2="308.13" y2="220.92" xlink:href="#linear-gradient"/><linearGradient id="linear-gradient-14" x1="290.53" y1="263.44" x2="306.78" y2="263.44" xlink:href="#linear-gradient"/><linearGradient id="linear-gradient-15" x1="297.25" y1="234.89" x2="309.58" y2="234.89" xlink:href="#linear-gradient"/><linearGradient id="linear-gradient-16" x1="273.46" y1="283.88" x2="290.35" y2="283.88" xlink:href="#linear-gradient"/><linearGradient id="linear-gradient-17" x1="296.02" y1="249.97" x2="309.5" y2="249.97" xlink:href="#linear-gradient"/><linearGradient id="linear-gradient-18" x1="275.89" y1="197.96" x2="292.85" y2="197.96" xlink:href="#linear-gradient"/><linearGradient id="linear-gradient-19" x1="206.52" y1="197.85" x2="223.77" y2="197.85" xlink:href="#linear-gradient"/><linearGradient id="linear-gradient-20" x1="192.47" y1="263.12" x2="208.67" y2="263.12" xlink:href="#linear-gradient"/><linearGradient id="linear-gradient-21" x1="209.02" y1="283.79" x2="225.64" y2="283.79" xlink:href="#linear-gradient"/><linearGradient id="linear-gradient-22" x1="220.77" y1="290.19" x2="237.41" y2="290.19" xlink:href="#linear-gradient"/><linearGradient id="linear-gradient-23" x1="250.24" y1="293.47" x2="263.44" y2="293.47" xlink:href="#linear-gradient"/><linearGradient id="linear-gradient-24" x1="235.56" y1="293.43" x2="249.13" y2="293.43" xlink:href="#linear-gradient"/><linearGradient id="linear-gradient-25" x1="261.66" y1="290.31" x2="278.27" y2="290.31" xlink:href="#linear-gradient"/><linearGradient id="linear-gradient-26" x1="198.98" y1="77.29" x2="245.87" y2="77.29" xlink:href="#linear-gradient"/><linearGradient id="linear-gradient-27" x1="147.54" y1="89.67" x2="204.79" y2="89.67" xlink:href="#linear-gradient"/><linearGradient id="linear-gradient-28" x1="107.11" y1="114.14" x2="163.27" y2="114.14" xlink:href="#linear-gradient"/><linearGradient id="linear-gradient-29" x1="205.07" y1="239.93" x2="294.3" y2="239.93" xlink:href="#linear-gradient"/><linearGradient id="linear-gradient-30" x1="144.57" y1="228.93" x2="391.17" y2="228.93" gradientTransform="translate(-89.03 138.61) rotate(-25.8)" xlink:href="#linear-gradient"/></defs><title>circle99</title><path class="cls-1" d="M249.68,303.64a63.71,63.71,0,1,1,63.71-63.71A63.78,63.78,0,0,1,249.68,303.64Zm0-126.24a62.53,62.53,0,1,0,62.54,62.53A62.61,62.61,0,0,0,249.68,177.4Z" transform="translate(-78.84 -56.18)"/><path class="cls-2" d="M250.24,191.5a48.23,48.23,0,0,1,11.88,1.61L265,182a59.77,59.77,0,0,0-14.8-2V191.5Z" transform="translate(-78.84 -56.18)"/><path class="cls-3" d="M237.58,193a48.35,48.35,0,0,1,11.56-1.52V180a59.79,59.79,0,0,0-14.4,1.87Z" transform="translate(-78.84 -56.18)"/><path class="cls-4" d="M203.26,253.75A48.13,48.13,0,0,1,201.34,243H189.87a59.5,59.5,0,0,0,2.3,13.64Z" transform="translate(-78.84 -56.18)"/><path class="cls-5" d="M202.41,229.38a48.05,48.05,0,0,1,4.29-11.76l-9.87-5.84a59.46,59.46,0,0,0-5.5,14.68Z" transform="translate(-78.84 -56.18)"/><path class="cls-6" d="M224.7,198.44a48.24,48.24,0,0,1,11.82-5.12l-2.85-11.09a59.57,59.57,0,0,0-14.74,6.33Z" transform="translate(-78.84 -56.18)"/><path class="cls-7" d="M266.09,182.34l-2.92,11.07A48.2,48.2,0,0,1,275,198.61l5.83-9.85A59.61,59.61,0,0,0,266.09,182.34Z" transform="translate(-78.84 -56.18)"/><path class="cls-8" d="M197.37,210.82l9.85,5.83a48.68,48.68,0,0,1,6.64-9.29l-8.09-8.09A60.17,60.17,0,0,0,197.37,210.82Z" transform="translate(-78.84 -56.18)"/><path class="cls-9" d="M285.52,207.36a48.73,48.73,0,0,1,6.8,9.57l9.89-5.76a60.2,60.2,0,0,0-8.6-11.9Z" transform="translate(-78.84 -56.18)"/><path class="cls-10" d="M289.93,266.87a48.79,48.79,0,0,1-6.88,8.13l8.09,8.09a60.18,60.18,0,0,0,8.64-10.4Z" transform="translate(-78.84 -56.18)"/><path class="cls-11" d="M209.27,266.6l-9.9,5.77a60.25,60.25,0,0,0,8.85,10.72l8.09-8.09A48.78,48.78,0,0,1,209.27,266.6Z" transform="translate(-78.84 -56.18)"/><path class="cls-12" d="M201.24,239.93a48.49,48.49,0,0,1,.94-9.47l-11.09-2.92a59.92,59.92,0,0,0-1.3,12.4c0,0.65,0,1.29,0,1.93h11.45C201.26,241.22,201.24,240.58,201.24,239.93Z" transform="translate(-78.84 -56.18)"/><path class="cls-13" d="M302.72,212.14l-9.9,5.77A48.17,48.17,0,0,1,297,229.69l11.09-2.85A59.53,59.53,0,0,0,302.72,212.14Z" transform="translate(-78.84 -56.18)"/><path class="cls-14" d="M295.68,255.11a48.44,48.44,0,0,1-5.16,10.83l9.86,5.83a59.6,59.6,0,0,0,6.4-13.73Z" transform="translate(-78.84 -56.18)"/><path class="cls-15" d="M308.37,227.92l-11.12,2.85a48.46,48.46,0,0,1,.88,9.16c0,0.65,0,1.29,0,1.93h11.45c0-.64,0-1.28,0-1.93A59.78,59.78,0,0,0,308.37,227.92Z" transform="translate(-78.84 -56.18)"/><path class="cls-16" d="M282.26,275.76a48.83,48.83,0,0,1-8.8,6.36l5.76,9.89a60.23,60.23,0,0,0,11.13-8.15Z" transform="translate(-78.84 -56.18)"/><path class="cls-17" d="M298,243a48.1,48.1,0,0,1-2,11.1L307.1,257a59.57,59.57,0,0,0,2.41-14H298Z" transform="translate(-78.84 -56.18)"/><path class="cls-18" d="M275.89,199.21a48.83,48.83,0,0,1,8.87,7.35l8.09-8.09a60.37,60.37,0,0,0-11.13-9.11Z" transform="translate(-78.84 -56.18)"/><path class="cls-19" d="M214.61,206.56a48.81,48.81,0,0,1,9.15-7.53l-5.77-9.9a60.37,60.37,0,0,0-11.48,9.33Z" transform="translate(-78.84 -56.18)"/><path class="cls-20" d="M208.67,265.67a48.24,48.24,0,0,1-5.09-10.86l-11.12,2.85a59.6,59.6,0,0,0,6.31,13.78Z" transform="translate(-78.84 -56.18)"/><path class="cls-21" d="M225.64,282a48.73,48.73,0,0,1-8.53-6.2L209,283.85a60.27,60.27,0,0,0,10.79,8Z" transform="translate(-78.84 -56.18)"/><path class="cls-22" d="M237.41,286.8a48.13,48.13,0,0,1-10.82-4.29l-5.83,9.85a59.51,59.51,0,0,0,13.73,5.51Z" transform="translate(-78.84 -56.18)"/><path class="cls-23" d="M260.59,287.13a48.34,48.34,0,0,1-10.35,1.24v11.45a59.88,59.88,0,0,0,13.2-1.6Z" transform="translate(-78.84 -56.18)"/><path class="cls-24" d="M249.13,288.36a48.44,48.44,0,0,1-10.65-1.31l-2.92,11.07a59.65,59.65,0,0,0,13.57,1.69V288.36Z" transform="translate(-78.84 -56.18)"/><path class="cls-25" d="M272.5,282.65a48.23,48.23,0,0,1-10.84,4.22L264.51,298a59.63,59.63,0,0,0,13.76-5.41Z" transform="translate(-78.84 -56.18)"/><path class="cls-26" d="M199,62.29l9.26,36.12a157.36,157.36,0,0,1,37.63-4.94V56.18A194.6,194.6,0,0,0,199,62.29Z" transform="translate(-78.84 -56.18)"/><path class="cls-27" d="M147.54,83.87l18.76,32.2a157,157,0,0,1,38.49-16.69l-9.26-36.11A194,194,0,0,0,147.54,83.87Z" transform="translate(-78.84 -56.18)"/><path class="cls-28" d="M107.11,116.16l26.35,26.35A159,159,0,0,1,163.27,118L144.49,85.77A196.46,196.46,0,0,0,107.11,116.16Z" transform="translate(-78.84 -56.18)"/><path class="cls-29" d="M292.52,252.39l0.14-.48c0.14-.49.27-1,0.39-1.48,0-.15.09-0.3,0.12-0.46h0a44.58,44.58,0,0,0-43.46-54.65l-0.59,0v0a44.08,44.08,0,0,0-44,44h0c0,0.2,0,.39,0,0.59a44.61,44.61,0,0,0,86.82,14.46l0-.07Q292.24,253.37,292.52,252.39Zm-86.17-12.47c0-.2,0-0.39,0-0.59h4.22a38.56,38.56,0,0,1,38.51-38.51v-4.22l0.59,0a43.3,43.3,0,0,1,42.21,53.08l-4.2-1a39.19,39.19,0,0,1-47.06,29.16l-1,4.23A43.4,43.4,0,0,1,206.35,239.93Z" transform="translate(-78.84 -56.18)"/><path class="cls-30" d="M287,329.38l37.78,78.17A194.31,194.31,0,0,0,424,300.89L341.89,272.3A107.73,107.73,0,0,1,287,329.38Z" transform="translate(-78.84 -56.18)"/><path class="cls-31" d="M113.65,144.34c0.4-.51.82-1,1.22-1.5l-1.57-1.22c-0.4.51-.82,1-1.22,1.5C60,210.41,72.33,307.53,139.62,359.63l1.22-1.57C74.42,306.63,62.22,210.76,113.65,144.34Z" transform="translate(-78.84 -56.18)"/><path class="cls-32" d="M297.34,198.3q1,0.95,2,1.92l1.91-2" transform="translate(-78.84 -56.18)"/><line class="cls-33" x1="226.03" y1="138.3" x2="297.36" y2="64.72"/><path class="cls-32" d="M378,119l1.91-2-2-1.91" transform="translate(-78.84 -56.18)"/><path class="cls-34" d="M374.13,111.54A216.06,216.06,0,0,0,314.91,73" transform="translate(-78.84 -56.18)"/><path class="cls-32" d="M312.5,72L310,70.92l-1,2.54" transform="translate(-78.84 -56.18)"/><line class="cls-35" x1="228.1" y1="22.14" x2="189.36" y2="116.93"/><path class="cls-32" d="M267.21,175.54l-1,2.54q1.27,0.52,2.53,1.07" transform="translate(-78.84 -56.18)"/><path class="cls-36" d="M273.17,181.26a99.79,99.79,0,0,1,22.36,15.36" transform="translate(-78.84 -56.18)"/><path class="cls-37" d="M206.44,113.57l5.23,15a115.68,115.68,0,1,0,77.9,217.8l-0.41-.84a117,117,0,1,1,66.43-147l0.24-.08A114.41,114.41,0,0,1,357.24,274l0.88,0.31a115.35,115.35,0,0,0-1.41-76.22l14.17-4.92C347.5,125.92,273.73,90.19,206.44,113.57Zm29.67,9.75A113.08,113.08,0,0,1,303.85,137,116.25,116.25,0,0,0,236.11,123.31Zm69,14.36,0.19,0.1Z" transform="translate(-78.84 -56.18)"/><polygon class="cls-38" points="248.45 179.32 248.39 179.38 248.39 188.12 248.44 188.18 253.22 183.76 248.45 179.32"/><polygon class="cls-38" points="256.95 179.32 256.89 179.38 256.89 188.12 256.94 188.18 261.72 183.76 256.95 179.32"/><polygon class="cls-38" points="265.45 179.32 265.39 179.38 265.39 188.12 265.44 188.18 270.22 183.76 265.45 179.32"/><polygon class="cls-38" points="90.16 179.32 90.22 179.38 90.22 188.12 90.17 188.18 85.39 183.76 90.16 179.32"/><polygon class="cls-38" points="81.66 179.32 81.72 179.38 81.72 188.12 81.67 188.18 76.89 183.76 81.66 179.32"/><polygon class="cls-38" points="73.16 179.32 73.22 179.38 73.22 188.12 73.17 188.18 68.39 183.76 73.16 179.32"/><circle class="cls-39" cx="170.85" cy="183.75" r="10.2"/><path class="cls-38" d="M381.9,298.13l7.32,3.22c-0.76,1.72-1.56,3.46-2.39,5.16l-7.2-3.49C380.42,301.4,381.18,299.75,381.9,298.13Z" transform="translate(-78.84 -56.18)"/><path class="cls-38" d="M385.87,288.1l7.54,2.67c-0.63,1.79-1.31,3.59-2,5.33L384,293.16C384.63,291.5,385.27,289.8,385.87,288.1Z" transform="translate(-78.84 -56.18)"/><path class="cls-38" d="M365.68,326l6.42,4.77c-1.12,1.51-2.29,3-3.48,4.51l-6.24-5C363.5,328.88,364.61,327.45,365.68,326Z" transform="translate(-78.84 -56.18)"/><path class="cls-38" d="M389.07,277.8l7.72,2.09c-0.49,1.81-1,3.65-1.59,5.47L387.56,283C388.1,281.26,388.61,279.52,389.07,277.8Z" transform="translate(-78.84 -56.18)"/><path class="cls-38" d="M371.78,317.12l6.76,4.28c-1,1.59-2.06,3.19-3.13,4.75l-6.6-4.53C369.83,320.14,370.83,318.63,371.78,317.12Z" transform="translate(-78.84 -56.18)"/><path class="cls-38" d="M377.19,307.81l7.06,3.76c-0.88,1.66-1.81,3.33-2.77,5l-6.92-4C375.48,311,376.36,309.38,377.19,307.81Z" transform="translate(-78.84 -56.18)"/><path class="cls-38" d="M393.94,245.85l8,0.32c-0.07,1.89-.19,3.8-0.33,5.69l-8-.61C393.77,249.46,393.87,247.64,393.94,245.85Z" transform="translate(-78.84 -56.18)"/><path class="cls-38" d="M391.49,267.29l7.86,1.5c-0.36,1.87-.75,3.74-1.17,5.58l-7.79-1.8C390.78,270.83,391.15,269.05,391.49,267.29Z" transform="translate(-78.84 -56.18)"/><rect class="cls-38" x="315.22" y="183.85" width="8" height="0.44"/><path class="cls-38" d="M358.93,334.43l6.05,5.23c-1.23,1.42-2.51,2.85-3.8,4.24l-5.85-5.45C356.55,337.13,357.76,335.78,358.93,334.43Z" transform="translate(-78.84 -56.18)"/><path class="cls-38" d="M393.12,256.62l7.95,0.91c-0.22,1.88-.47,3.78-0.75,5.64l-7.91-1.2C392.67,260.2,392.91,258.4,393.12,256.62Z" transform="translate(-78.84 -56.18)"/><path class="cls-38" d="M288.78,387.35c-1.83.48-3.69,0.94-5.53,1.35l-1.76-7.8c1.75-.39,3.51-0.83,5.24-1.28Z" transform="translate(-78.84 -56.18)"/><path class="cls-38" d="M351.57,342.32l5.64,5.67c-1.34,1.34-2.73,2.66-4.11,3.94l-5.43-5.87C349,344.85,350.3,343.59,351.57,342.32Z" transform="translate(-78.84 -56.18)"/><path class="cls-38" d="M277.66,389.85c-1.86.34-3.75,0.66-5.62,0.93l-1.16-7.92c1.77-.26,3.56-0.56,5.32-0.88Z" transform="translate(-78.84 -56.18)"/><path class="cls-38" d="M310.33,379.86c-1.74.76-3.52,1.49-5.28,2.18l-2.91-7.45c1.67-.65,3.35-1.34,5-2.06Z" transform="translate(-78.84 -56.18)"/><path class="cls-38" d="M266.39,391.51c-1.87.2-3.78,0.38-5.67,0.51l-0.57-8c1.79-.13,3.6-0.29,5.37-0.49Z" transform="translate(-78.84 -56.18)"/><path class="cls-38" d="M249.67,384.42c1.68,0,3.39,0,5.08-.09l0.28,8c-1.77.06-3.57,0.09-5.36,0.09v-8Z" transform="translate(-78.84 -56.18)"/><path class="cls-38" d="M299.69,384c-1.79.62-3.62,1.22-5.43,1.77l-2.34-7.65c1.72-.52,3.45-1.09,5.15-1.68Z" transform="translate(-78.84 -56.18)"/><path class="cls-38" d="M320.62,374.92c-1.67.88-3.38,1.74-5.1,2.57l-3.46-7.21c1.62-.78,3.25-1.6,4.83-2.43Z" transform="translate(-78.84 -56.18)"/><path class="cls-38" d="M339.93,362.82c-1.52,1.12-3.08,2.23-4.65,3.3l-4.5-6.62c1.49-1,3-2.06,4.41-3.12Z" transform="translate(-78.84 -56.18)"/><path class="cls-38" d="M343.64,349.66l5.21,6.07c-1.43,1.23-2.91,2.45-4.39,3.63l-5-6.26C340.88,352,342.29,350.82,343.64,349.66Z" transform="translate(-78.84 -56.18)"/><path class="cls-38" d="M330.51,369.23c-1.61,1-3.25,2-4.89,2.94l-4-6.93c1.55-.89,3.11-1.83,4.63-2.78Z" transform="translate(-78.84 -56.18)"/></svg>