<svg preserveAspectRatio="none" id="Layer_1" data-name="Layer 1" xmlns="http://www.w3.org/2000/svg" viewBox="0 0 151.41 123.61"><defs><style>.cls-1{fill:#0e8092;}.cls-2{fill:#095561;}.cls-3{fill:#074049;}.cls-4{fill:#ff8a29;}.cls-5{fill:#12aac2;}</style></defs><title>circle76</title><path class="cls-1" d="M81.22,172.06a61.8,61.8,0,1,0,61.8,61.8A61.87,61.87,0,0,0,81.22,172.06Zm0,122.6a60.8,60.8,0,1,1,60.8-60.8A60.87,60.87,0,0,1,81.22,294.67Z" transform="translate(-5.49 -172.06)"/><path class="cls-1" d="M81.22,175.81a57.86,57.86,0,0,0-57.79,57.79H30a51.2,51.2,0,0,1,102.4,0H139A57.86,57.86,0,0,0,81.22,175.81Z" transform="translate(-5.49 -172.06)"/><path class="cls-2" d="M47.51,272.58l-4.35,5a57.64,57.64,0,0,0,19.27,11.13l1.92-6.32a38.43,38.43,0,0,1-8.79-4A40.09,40.09,0,0,1,47.51,272.58Z" transform="translate(-5.49 -172.06)"/><path class="cls-3" d="M32.67,250.54l-6.25,2.12a57.67,57.67,0,0,0,11.13,19.27l4.82-4.51a38.42,38.42,0,0,1-5.61-7.87A40.08,40.08,0,0,1,32.67,250.54Z" transform="translate(-5.49 -172.06)"/><path class="cls-2" d="M106.89,278.33a40.07,40.07,0,0,1-9,4.09l2.12,6.25a57.63,57.63,0,0,0,19.27-11.12l-4.51-4.82A38.41,38.41,0,0,1,106.89,278.33Z" transform="translate(-5.49 -172.06)"/><path class="cls-3" d="M125.68,259.54a40.07,40.07,0,0,1-5.75,8l5,4.36A57.66,57.66,0,0,0,136,252.66l-6.32-1.92A38.43,38.43,0,0,1,125.68,259.54Z" transform="translate(-5.49 -172.06)"/><path class="cls-4" d="M80.7,224.85a9.06,9.06,0,0,0-8.52,9h0.5a8.5,8.5,0,0,1,2.17-5.67,8.7,8.7,0,0,1,.71-0.71,8.49,8.49,0,0,1,5.15-2.14v-0.5Z" transform="translate(-5.49 -172.06)"/><path class="cls-4" d="M81.74,242.88a9,9,0,0,0,5.5-2.29,9.11,9.11,0,0,0,.71-0.71,9,9,0,0,0,2.31-6h-0.5a8.5,8.5,0,0,1-2.17,5.67,8.38,8.38,0,0,1-.71.71,8.49,8.49,0,0,1-5.15,2.14v0.5Z" transform="translate(-5.49 -172.06)"/><path class="cls-4" d="M91.86,245.21q0.36-.34.71-0.71a15.55,15.55,0,0,0-22-22c-0.24.23-.48,0.46-0.71,0.71A15.55,15.55,0,0,0,91.86,245.21Zm-21.62-1.06a15,15,0,0,1,0-20.56q0.34-.37.71-0.71a15,15,0,0,1,20.56,0q0.37,0.34.71,0.71a15,15,0,0,1,0,20.56q-0.34.36-.71,0.71a15,15,0,0,1-20.56,0Q70.58,244.51,70.23,244.15Z" transform="translate(-5.49 -172.06)"/><circle class="cls-4" cx="52.18" cy="85.32" r="1.93"/><circle class="cls-4" cx="99.28" cy="38.29" r="1.93"/><path class="cls-4" d="M81.22,275.06a41.22,41.22,0,0,0,41.17-41.17,0.13,0.13,0,0,0-.25,0,41,41,0,0,1-40.92,40.92A0.13,0.13,0,0,0,81.22,275.06Z" transform="translate(-5.49 -172.06)"/><path class="cls-4" d="M81.35,192.84a0.13,0.13,0,0,0-.12-0.12A41.22,41.22,0,0,0,40,233.89a0.12,0.12,0,0,0,.25,0A41,41,0,0,1,81.22,193,0.13,0.13,0,0,0,81.35,192.84Z" transform="translate(-5.49 -172.06)"/><path class="cls-4" d="M129.3,237.08a0.25,0.25,0,0,0-.25.25,44.26,44.26,0,0,1-44.21,44.21,0.25,0.25,0,1,0,0,.5,44.76,44.76,0,0,0,44.71-44.71A0.25,0.25,0,0,0,129.3,237.08Z" transform="translate(-5.49 -172.06)"/><path class="cls-4" d="M81.4,190.43a43.51,43.51,0,0,1,43.46,43.46,1,1,0,0,0,2,0A45.51,45.51,0,0,0,81.4,188.43,1,1,0,1,0,81.4,190.43Z" transform="translate(-5.49 -172.06)"/><path class="cls-4" d="M78.16,186.44a0.25,0.25,0,0,0,0-.5,44.76,44.76,0,0,0-44.71,44.71,0.25,0.25,0,0,0,.5,0A44.26,44.26,0,0,1,78.16,186.44Z" transform="translate(-5.49 -172.06)"/><path class="cls-4" d="M81.4,277.35a43.51,43.51,0,0,1-43.46-43.46,1,1,0,0,0-2,0A45.51,45.51,0,0,0,81.4,279.35,1,1,0,0,0,81.4,277.35Z" transform="translate(-5.49 -172.06)"/><path class="cls-4" d="M77.41,214.85l0.46,2.29a17,17,0,0,1,6.7,0L85,214.85A19.69,19.69,0,0,0,77.41,214.85Z" transform="translate(-5.49 -172.06)"/><path class="cls-4" d="M68.41,219.3L70,221.06a17,17,0,0,1,5.8-3.35L75,215.49A19.68,19.68,0,0,0,68.41,219.3Z" transform="translate(-5.49 -172.06)"/><path class="cls-4" d="M62.84,227.66l2.22,0.75a17,17,0,0,1,3.35-5.8l-1.76-1.55A19.68,19.68,0,0,0,62.84,227.66Z" transform="translate(-5.49 -172.06)"/><path class="cls-4" d="M64.49,237.22a17,17,0,0,1,0-6.7l-2.29-.46a19.66,19.66,0,0,0,0,7.62Z" transform="translate(-5.49 -172.06)"/><path class="cls-4" d="M66.65,246.68l1.76-1.55a17,17,0,0,1-3.35-5.8l-2.22.75A19.68,19.68,0,0,0,66.65,246.68Z" transform="translate(-5.49 -172.06)"/><path class="cls-4" d="M68.41,248.43a19.66,19.66,0,0,0,6.6,3.81L75.76,250a17,17,0,0,1-5.8-3.35Z" transform="translate(-5.49 -172.06)"/><path class="cls-4" d="M85,252.89l-0.46-2.29a17,17,0,0,1-6.7,0l-0.46,2.29A19.69,19.69,0,0,0,85,252.89Z" transform="translate(-5.49 -172.06)"/><path class="cls-4" d="M89.75,248.64A17.13,17.13,0,0,1,86.68,250l0.75,2.22a19.66,19.66,0,0,0,6.6-3.81l-1.55-1.76A17.11,17.11,0,0,1,89.75,248.64Z" transform="translate(-5.49 -172.06)"/><path class="cls-4" d="M96,242.4a17.14,17.14,0,0,1-2,2.73l1.76,1.55a19.69,19.69,0,0,0,3.81-6.6l-2.22-.75A17.2,17.2,0,0,1,96,242.4Z" transform="translate(-5.49 -172.06)"/><path class="cls-4" d="M100.61,233.87a19.92,19.92,0,0,0-.37-3.81l-2.29.46a17,17,0,0,1,0,6.7l2.29,0.46A19.91,19.91,0,0,0,100.61,233.87Z" transform="translate(-5.49 -172.06)"/><path class="cls-4" d="M95.79,221.06L94,222.6a17,17,0,0,1,3.35,5.8l2.22-.75A19.69,19.69,0,0,0,95.79,221.06Z" transform="translate(-5.49 -172.06)"/><path class="cls-4" d="M94,219.3a19.68,19.68,0,0,0-6.6-3.81l-0.75,2.22a17,17,0,0,1,5.8,3.35Z" transform="translate(-5.49 -172.06)"/><path class="cls-4" d="M81.74,239a5.14,5.14,0,0,0,2.77-1.15,5.28,5.28,0,0,0,.71-0.71,5.17,5.17,0,0,0-3.48-8.43c-0.17,0-.34-0.05-0.52-0.05s-0.34,0-.52.05a5.14,5.14,0,0,0-2.77,1.15,5.2,5.2,0,0,0-.71.71,5.09,5.09,0,0,0,0,6.57,5.29,5.29,0,0,0,.71.71A5.14,5.14,0,0,0,80.7,239c0.17,0,.34.05,0.52,0.05S81.57,239,81.74,239Zm-2.88-5.14a2.37,2.37,0,1,1,2.37,2.37A2.37,2.37,0,0,1,78.86,233.87Z" transform="translate(-5.49 -172.06)"/><path class="cls-5" d="M77.94,237.86a5.29,5.29,0,0,1-.71-0.71l-7,7q0.34,0.36.71,0.71Z" transform="translate(-5.49 -172.06)"/><path class="cls-5" d="M84.51,229.87a5.17,5.17,0,0,1,.71.71l7-7q-0.34-.37-0.71-0.71Z" transform="translate(-5.49 -172.06)"/><path class="cls-5" d="M77.23,230.58a5.2,5.2,0,0,1,.71-0.71l-2.38-2.38a8.7,8.7,0,0,0-.71.71Z" transform="translate(-5.49 -172.06)"/><path class="cls-5" d="M75.2,227.14l-4.26-4.26q-0.37.34-.71,0.71l4.26,4.26A9.05,9.05,0,0,1,75.2,227.14Z" transform="translate(-5.49 -172.06)"/><path class="cls-5" d="M85.21,237.15a5.28,5.28,0,0,1-.71.71l2.38,2.38a8.38,8.38,0,0,0,.71-0.71Z" transform="translate(-5.49 -172.06)"/><path class="cls-5" d="M87.24,240.59l4.26,4.26q0.37-.34.71-0.71l-4.26-4.26A9.11,9.11,0,0,1,87.24,240.59Z" transform="translate(-5.49 -172.06)"/><path class="cls-5" d="M81.22,195.33a38.54,38.54,0,1,0,38.54,38.54A38.54,38.54,0,0,0,81.22,195.33Zm23.55,13.09a1.93,1.93,0,1,1-1.93,1.93A1.93,1.93,0,0,1,104.77,208.42Zm-7.39-5.23A1.93,1.93,0,1,1,96,205.56,1.93,1.93,0,0,1,97.38,203.19Zm-8.49-3.14a1.93,1.93,0,1,1-.71,2.64A1.93,1.93,0,0,1,88.89,200.05Zm-9-.83a1.93,1.93,0,1,1,0,2.74A1.93,1.93,0,0,1,79.88,199.22Zm-33.3,33.25a1.93,1.93,0,1,1,0,2.74A1.93,1.93,0,0,1,46.58,232.47Zm1.53,11.66a1.93,1.93,0,1,1,2.64-.71A1.93,1.93,0,0,1,48.1,244.13ZM54.26,251a1.93,1.93,0,1,1-1.37-2.37A1.93,1.93,0,0,1,54.26,251Zm3.41,8.33a1.93,1.93,0,1,1,1.93-1.93A1.93,1.93,0,0,1,57.67,259.31Zm7.39,5.23a1.93,1.93,0,1,1,1.37-2.37A1.93,1.93,0,0,1,65.06,264.54Zm8.49,3.14a1.93,1.93,0,1,1,.71-2.64A1.93,1.93,0,0,1,73.55,267.68Zm9,0.83a1.93,1.93,0,1,1,0-2.74A1.94,1.94,0,0,1,82.56,268.51Zm22.32-11.69L92.56,244.5q-0.34.36-.71,0.71l12.33,12.33a32.93,32.93,0,0,1-17.89,8.95l-5.07-5.07a27.58,27.58,0,0,1-27.55-27.55l-5.07-5.07a32.93,32.93,0,0,1,8.95-17.9l12.33,12.33c0.23-.24.46-0.48,0.71-0.71L58.26,210.2a32.92,32.92,0,0,1,17.89-8.95l5.07,5.07a27.58,27.58,0,0,1,27.55,27.55l5.07,5.07A32.93,32.93,0,0,1,104.89,256.83Zm11-21.57a1.93,1.93,0,1,1,0-2.74A1.94,1.94,0,0,1,115.87,235.26Zm-1.53-11.66a1.93,1.93,0,1,1-2.64.71A1.93,1.93,0,0,1,114.34,223.6Zm-3.79-8.22a1.93,1.93,0,1,1-2.37,1.37A1.93,1.93,0,0,1,110.55,215.38Z" transform="translate(-5.49 -172.06)"/><path class="cls-5" d="M81.22,285.21a40,40,0,0,1-9.83-1l-1.29,6.47a57.66,57.66,0,0,0,22.25,0l-1.5-6.43A38.38,38.38,0,0,1,81.22,285.21Z" transform="translate(-5.49 -172.06)"/><path class="cls-5" d="M81.22,213.18a22,22,0,0,1,3.87.36l0.46-2.31a22.08,22.08,0,0,0-8.66,0l0.46,2.31A22,22,0,0,1,81.22,213.18Z" transform="translate(-5.49 -172.06)"/><path class="cls-5" d="M60.54,233.87A22,22,0,0,1,60.9,230l-2.31-.46a22.08,22.08,0,0,0,0,8.66l2.31-.46A22,22,0,0,1,60.54,233.87Z" transform="translate(-5.49 -172.06)"/><path class="cls-5" d="M61.68,240.68l-2.23.75a22.06,22.06,0,0,0,4.33,7.5l1.77-1.55A21,21,0,0,1,61.68,240.68Z" transform="translate(-5.49 -172.06)"/><path class="cls-5" d="M67.71,249.53l-1.55,1.77a22.06,22.06,0,0,0,7.5,4.33l0.75-2.23A21,21,0,0,1,67.71,249.53Z" transform="translate(-5.49 -172.06)"/><path class="cls-5" d="M81.22,254.55a22,22,0,0,1-3.87-.36l-0.46,2.31a22.05,22.05,0,0,0,8.66,0l-0.46-2.31A22,22,0,0,1,81.22,254.55Z" transform="translate(-5.49 -172.06)"/><path class="cls-5" d="M101.55,230a21,21,0,0,1,0,7.74l2.31,0.46a22.06,22.06,0,0,0,0-8.66Z" transform="translate(-5.49 -172.06)"/><path class="cls-5" d="M101.19,222.34a22.12,22.12,0,0,0-2.54-3.54l-1.77,1.55a21,21,0,0,1,3.87,6.7l2.23-.75A22.09,22.09,0,0,0,101.19,222.34Z" transform="translate(-5.49 -172.06)"/><path class="cls-5" d="M88.78,212.1L88,214.33a21,21,0,0,1,6.7,3.87l1.55-1.77A22.06,22.06,0,0,0,88.78,212.1Z" transform="translate(-5.49 -172.06)"/><path class="cls-5" d="M84.74,223.49v-1.81h-7v1.81H79v-0.84H80.7v6.08c0.17,0,.34-0.05.52-0.05s0.34,0,.52.05v-6.08h1.69v0.84h1.31Z" transform="translate(-5.49 -172.06)"/><path class="cls-5" d="M77.71,244.51v1.81h7v-1.81H83.43v0.84H81.74V239c-0.17,0-.34.05-0.52,0.05s-0.34,0-.52-0.05v6.35H79v-0.84H77.71Z" transform="translate(-5.49 -172.06)"/><circle class="cls-5" cx="75.73" cy="61.8" r="0.77"/><path class="cls-5" d="M156.4,233.37h-6.09a2.94,2.94,0,1,0,0,1h6.09A0.5,0.5,0,0,0,156.4,233.37Zm-9,2.44a1.94,1.94,0,1,1,1.94-1.94A1.94,1.94,0,0,1,147.42,235.81Z" transform="translate(-5.49 -172.06)"/><path class="cls-5" d="M15,230.93a2.94,2.94,0,0,0-2.89,2.44H6a0.5,0.5,0,1,0,0,1h6.09A2.94,2.94,0,1,0,15,230.93Zm0,4.88a1.94,1.94,0,1,1,1.94-1.94A1.94,1.94,0,0,1,15,235.81Z" transform="translate(-5.49 -172.06)"/></svg>