<svg preserveAspectRatio="none" id="Layer_1" data-name="Layer 1" xmlns="http://www.w3.org/2000/svg" viewBox="0 0 51.24 53.26"><defs><style>.cls-1{fill:#feb113}.cls-2{fill:#065977}.cls-3{fill:#00b3ea}</style></defs><path class="cls-1" d="M887.87 232l-.72.86-.13.16s-.09 0-.12-.07c-.33-.27-.67-.54-1-.78a19 19 0 00-2.44-1.44l-.91-.41c-.35-.15-.71-.3-1.07-.41-.55-.17-1.09-.35-1.65-.48a14.71 14.71 0 00-1.69-.32l.15-1.11v-.2h.26c.43.07.85.15 1.27.24a16.57 16.57 0 012.27.66c.44.16.88.34 1.31.53s.58.27.87.41.71.37 1 .58.68.42 1 .64c.52.36 1 .74 1.51 1.14zM896 247.19h-1.32v-.12-1.23a18.24 18.24 0 00-1-5.33 18.78 18.78 0 00-1.08-2.57c-.18-.35-.36-.68-.56-1a2.25 2.25 0 01-.12-.21l.13-.08 1-.62c.36.61.71 1.23 1 1.87a21.87 21.87 0 011 2.63 19.82 19.82 0 01.9 5.33v1.39z" transform="translate(-852.59 -218.07)"/><path class="cls-2" d="M864.89 224.14l1 2 .39.81-.25.13c-.36.19-.72.37-1.07.58a22.59 22.59 0 00-2.29 1.52 22.15 22.15 0 00-1.85 1.58 21.52 21.52 0 00-3.54 4.4 22 22 0 00-2.27 5.1 21.71 21.71 0 009.33 24.67 21.71 21.71 0 0015.3 2.95 19.43 19.43 0 002.79-.69c.47-.16.93-.32 1.39-.5s.9-.38 1.34-.58.88-.44 1.31-.68.83-.49 1.24-.75a21.94 21.94 0 002.27-1.7 21.61 21.61 0 003.71-4.12 20.61 20.61 0 001.46-2.43c.21-.42.42-.85.6-1.29s.36-.89.53-1.35A19.55 19.55 0 00897 251a22 22 0 00.38-2.49 21.17 21.17 0 00-.05-4.63l.55-.07h.21s0 .38.05.42a21.1 21.1 0 01.11 2.69 21.78 21.78 0 01-.22 2.81 21.367 21.367 0 01-.59 2.79 22 22 0 01-2.11 5.11A22.53 22.53 0 01877 268.95a21.45 21.45 0 01-2.41 0 24.92 24.92 0 01-2.68-.3 21.62 21.62 0 01-4.81-1.4l-.42 1-.18.43.25.11.48.18a25.85 25.85 0 002.5.79 20.81 20.81 0 002.8.55c.85.1 1.7.18 2.56.21a23.53 23.53 0 002.46-.06 24.07 24.07 0 0021-16.23 24.63 24.63 0 001.19-5.6 23.45 23.45 0 00-.08-5.09l.55-.07h.21v.38c0 .42.08.84.1 1.27s0 .91 0 1.37a25.22 25.22 0 01-.64 5.58 24.88 24.88 0 01-19.09 18.73 24.5 24.5 0 01-5.52.53 25.45 25.45 0 01-5.3-.67 22.46 22.46 0 01-2.64-.78c-.42-.16-.85-.31-1.26-.49l-.55-.24-.27-.12-.05-.03h-.06a.22.22 0 010-.07l.09-.18.27-.58.55-1.16.05-.11a.51.51 0 00-.16-.08c-.38-.19-.76-.38-1.13-.58q-.94-.52-1.83-1.12a22.44 22.44 0 01-3.92-3.41 21.86 21.86 0 01-3.28-4.69c-.35-.68-.68-1.37-1-2.08a23.46 23.46 0 01-.87-2.6 22.17 22.17 0 01-.76-5.63 22.46 22.46 0 01.56-5.15c.16-.72.37-1.42.59-2.12.11-.34.24-.67.36-1a1.54 1.54 0 00-.23-.09l-1.27-.49-.53-.2h-.13a.36.36 0 01.06-.2c.14-.38.32-.75.48-1.12.09-.21.2-.42.3-.63s.2-.41.31-.62c.22-.41.45-.82.69-1.23s.5-.81.77-1.2a24.41 24.41 0 013.71-4.32 24.09 24.09 0 014.08-3c.39-.23.78-.45 1.19-.67l.71-.36z" transform="translate(-852.59 -218.07)"/><path class="cls-1" d="M866.65 227.77c-.6.31-1.2.63-1.78 1A19.8 19.8 0 00863 230a20.87 20.87 0 00-7.94 14.14 20.78 20.78 0 002.83 13 19.68 19.68 0 001.66 2.39 20.6 20.6 0 003.1 3.1 20.87 20.87 0 004.57 2.81 20.63 20.63 0 004.13 1.35 20.33 20.33 0 003.82.46h1.58c.52 0 1.16-.09 1.74-.16a18.87 18.87 0 002.7-.55 21.13 21.13 0 006.28-2.89c.2-.13.4-.28.6-.42l.35-.26c.39-.31.78-.63 1.16-1a21.54 21.54 0 002.45-2.59 20.88 20.88 0 002-3.06c.35-.63.64-1.29.93-2 .19-.44.36-.89.5-1.34a23.16 23.16 0 00.71-2.73 21 21 0 00.33-2.67 21.31 21.31 0 00-.18-4.24 21 21 0 00-4.33-10c-.3-.38-.62-.74-.94-1.1-.16-.18-.33-.35-.49-.52s-.33-.34-.5-.5a21.19 21.19 0 00-2.11-1.75 20.7 20.7 0 00-4.74-2.57 21.08 21.08 0 00-5.35-1.28 20.21 20.21 0 00-5.62.19 21.83 21.83 0 00-2.6.62c-.65.2-1.29.45-1.92.7-.35.14-.68.3-1 .46h-.06v-.1l-.11-.23c.61-.28 1.23-.56 1.86-.8a20.16 20.16 0 012.13-.67 21.18 21.18 0 0120.36 5.65 21.38 21.38 0 014.45 6.7 23.07 23.07 0 01.93 2.74 20.11 20.11 0 01.69 4.59 22 22 0 01-.42 5.13 21.3 21.3 0 01-1.28 4.07c-.26.6-.54 1.18-.85 1.76s-.78 1.33-1.21 2a19.67 19.67 0 01-2.4 2.88c-.28.28-.57.56-.87.82s-.79.67-1.19 1l-.35.26c-.21.15-.41.31-.63.45s-.64.43-1 .62a20.93 20.93 0 01-1.91 1 23 23 0 01-2.2.9 23.5 23.5 0 01-2.57.71 21 21 0 01-2.76.38 20 20 0 01-3.89-.08 20.94 20.94 0 01-3.91-.82 22.1 22.1 0 01-4.12-1.77 21 21 0 01-2.26-1.46 17.9 17.9 0 01-1.39-1.13c-.25-.23-.52-.46-.76-.7s-.67-.69-1-1a18.58 18.58 0 01-1.78-2.29c-.27-.41-.52-.82-.77-1.24s-.47-.85-.69-1.29a20.74 20.74 0 01-1.1-2.7 20.36 20.36 0 01-1-5 21.13 21.13 0 012-10.61 20.84 20.84 0 013-4.63 21.5 21.5 0 014.08-3.72q.66-.46 1.36-.86c.49-.28 1-.54 1.49-.8l.16.34z" transform="translate(-852.59 -218.07)"/><path class="cls-2" d="M892.57 235.19l-1.85 1.24-.19.13a16.7 16.7 0 00-1.53-2 9.44 9.44 0 00-1-1l-.4-.37s-.09-.06-.07-.09l.8-.9.17-.19s.07 0 0-.09c-.29-.26-.6-.52-.91-.75a19.06 19.06 0 00-2.34-1.55c-.4-.22-.79-.43-1.2-.62s-.59-.27-.89-.4a19.15 19.15 0 00-5.22-1.36h-.04l-.17 1.55a17.3 17.3 0 00-2.51-.1 15.48 15.48 0 00-2.27.21 18.26 18.26 0 00-2.45.57c-.44.14-.88.3-1.32.47s-.74.32-1.11.48c0 0-.08.06-.1 0l-.06-.12-.24-.5-.61-1.25-.16-.33a23.3 23.3 0 012.2-.91c.45-.15.9-.29 1.35-.42s.85-.22 1.28-.3a20.47 20.47 0 012.66-.36 21.21 21.21 0 012.87 0 19.48 19.48 0 014.66.91 20.22 20.22 0 019.12 6 18.73 18.73 0 011.53 2z" transform="translate(-852.59 -218.07)"/><path class="cls-3" d="M885.21 264.39l.65-.36c.21-.12.43-.24.63-.37.4-.26.81-.52 1.19-.81s.76-.58 1.13-.88.73-.63 1.07-1a20.53 20.53 0 001.92-2.15 21.2 21.2 0 001.52-2.28 20.2 20.2 0 002-4.75c.11-.41.2-.82.29-1.23s.18-.91.24-1.37.09-.72.12-1.08a.87.87 0 00-.23 0l-2.22-.18c0 .24 0 .49-.08.73a17.91 17.91 0 01-1.35 4.93 19.68 19.68 0 01-1.34 2.52c-.12.19-.25.37-.38.56s-.2.29-.31.42l-.26.35a.18.18 0 00.08.07l.54.42.19.15-.15.19a22.76 22.76 0 01-1.6 1.75 18.1 18.1 0 01-2 1.71 18.3 18.3 0 01-2.46 1.5 18.81 18.81 0 01-5.42 1.81 20 20 0 01-2.62.26H874.64v-1.05a1.61 1.61 0 00-.28 0 17.23 17.23 0 01-2.5-.38 17.89 17.89 0 01-4.71-1.78l.57-1h-.06a16.34 16.34 0 01-4.26-3.39 16.78 16.78 0 01-3-4.85c-.17-.43-.32-.86-.47-1.3a13.53 13.53 0 01-.36-1.34c0-.2-.09-.39-.12-.59a1.58 1.58 0 00-.06-.31l-.52.09-.6.1a.6.6 0 010-.17c0-.18 0-.36-.07-.54a17.85 17.85 0 013.38-12.82l-.19-.14-1.79-1.33a20.23 20.23 0 00-2.31 20.17c.2.43.4.86.62 1.29s.47.86.73 1.28a19.63 19.63 0 001.7 2.36 20.3 20.3 0 0014.22 7.2 20.09 20.09 0 005.68-.43 24.43 24.43 0 002.52-.73c.42-.14.83-.32 1.23-.5s.89-.42 1.33-.64zm-25.85-12.1l-2.06.73a22 22 0 01-.62-2.11h.11l2.13-.5c.11.46.23.92.38 1.37l.17.49h-.11zm-1.19 2.8c-.18-.36-.35-.73-.5-1.11h.1l2-.84c.12.3.26.59.4.89s.29.58.44.86l-1.11.61-.9.5s-.42-.79-.46-.87zm1.61 2.72c-.23-.31-.43-.64-.64-1l1-.61.95-.59.07.06.34.53c.22.34.47.67.72 1l-1 .8-.79.62s-.58-.77-.63-.83zm1.28 1.62l1.24-1.09.4-.35.08-.07a3 3 0 01.21.22c.3.33.61.64.94 1a2.73 2.73 0 01.22.21l-.07.08-1.48 1.57c-.54-.5-1.05-1-1.54-1.57zm3.28 3c-.33-.23-.65-.48-1-.74l.07-.09 1.38-1.7a14.5 14.5 0 001.61 1.1l-.68 1.06-.56.87s-.75-.5-.82-.55z" transform="translate(-852.59 -218.07)"/><path class="cls-1" d="M870.68 241.32a4.41 4.41 0 01.42-.38l.46-.36a5.51 5.51 0 01.54-.35s.05 0 0-.05v-.08l-.19-.33-.63-1.1-1-1.67-.33-.59v-.07l-.54-1L868 233l-.59-1-1.27-2.22-.73-1.27-.19-.33-.15.09-.11.06-.38.23-.27.17-.51.34c-.32.21-.64.45-.94.69h-.06l-.1.08c-.32.26-.64.53-1 .8l-.13.11c-.34.31-.68.63-1 1s-.56.58-.81.88l.07.06.19.16.1.08 1 .83 2 1.69.89.76 2.13 1.84.89.77.55.48 1.39 1.19 1.39 1.2a4.62 4.62 0 01.4-.43zm-8.07-8.32a1.49 1.49 0 01-.42-1.15 1.58 1.58 0 01.52-1 1.6 1.6 0 011.15-.42 1.49 1.49 0 01.93.39 1.67 1.67 0 01.15 2.26 1.62 1.62 0 01-2.31 0z" transform="translate(-852.59 -218.07)"/><path class="cls-2" d="M903.25 239.31a28.65 28.65 0 00-2-5.35c-.41-.83-.85-1.64-1.34-2.42s-1.06-1.6-1.64-2.38-1.22-1.51-1.89-2.21a28.42 28.42 0 00-22.9-8.79q-1.38.11-2.74.36c-.94.17-1.86.39-2.78.65a26.49 26.49 0 00-2.66.91c-.67.27-1.32.56-2 .86l2.92 6s.55-.24.6-.27a21.77 21.77 0 0120.33 1.33 21.76 21.76 0 019.47 12.46 21.11 21.11 0 01.52 2.19l.08.46h.18l2.14-.34 2.84-.45 1.42-.22c-.16-.93-.33-1.86-.58-2.77zm-.35 2.29l-2.52.45-2.47.44-.29.05h-.07c-.07-.38-.15-.75-.24-1.13s-.23-.88-.35-1.31-.28-.88-.44-1.3-.34-.88-.54-1.3-.41-.87-.63-1.3-.46-.83-.7-1.24a20.27 20.27 0 00-1.62-2.31 21.41 21.41 0 00-1.88-2.07 22.21 22.21 0 00-14.55-6.19 21.84 21.84 0 00-5.63.51 22.32 22.32 0 00-4.36 1.46h-.11l-.12-.26-.44-1-1.2-2.62-.66-1.48c.43-.19.85-.38 1.28-.55a27.93 27.93 0 0116.45-1.34 28.5 28.5 0 015 1.62 27.68 27.68 0 014.82 2.66 28.58 28.58 0 014.34 3.69 27.36 27.36 0 011.89 2.2c.58.75 1.11 1.52 1.62 2.31.25.39.48.81.72 1.21s.46.86.68 1.3a28.36 28.36 0 011.13 2.63 27.39 27.39 0 011.29 4.75l-.42.08z" transform="translate(-852.59 -218.07)"/><path class="cls-3" d="M868.3 225.32c-.51.17-1 .37-1.5.59l-.68-1.56-1.12-2.56-.29-.67.44-.19c.43-.17.85-.35 1.28-.5a.23.23 0 01.13 0v.06l.1.3.38 1.08.94 2.67.3.85zM870.23 224.73c-.27.06-.54.15-.81.23l-.75.24-.54-1.61-.88-2.65-.23-.69.39-.13c.43-.14.87-.26 1.3-.38a.8.8 0 01.23-.05v.06l.06.25.28 1.1.7 2.74zM872.21 224.33c-.35.06-.7.11-1 .19l-.54.12-.16-.67-.64-2.71-.41-1.72c.65-.15 1.31-.28 2-.39l.27 1.68.44 2.76.12.76zM874.22 224.1c-.39 0-.79.06-1.18.11l-.43.05-.1-.68-.39-2.75-.25-1.75c.66-.09 1.33-.16 2-.21l.12 1.7.19 2.79.05.77zM876.24 224.05h-1.61v-.69l-.14-2.78-.09-1.77h2v1.7q0 1.4-.06 2.8zM878.25 224.19l-.81-.08h-.81l.07-1.7.11-2.79v-.73h.41c.45 0 .91.06 1.36.11a1.64 1.64 0 01.23 0v.29l-.13 1.11-.32 2.82-.11.95zM880.24 224.5c-.53-.11-1.06-.2-1.6-.27l.22-1.69.36-2.77.09-.72.4.05c.46.07.91.14 1.37.23a.93.93 0 01.2 0v.06l-.06.29-.22 1.12-.57 2.78-.19.92zM882.2 225c-.51-.16-1-.29-1.56-.41l.37-1.66.61-2.73.16-.71.39.09c.44.1.88.23 1.32.35a.79.79 0 01.22.08v.06l-.09.3-.33 1.09-.81 2.71-.26.88zM884.1 225.65l-1-.37-.53-.17.21-.66.85-2.65.54-1.69c.63.2 1.26.43 1.88.67l-.63 1.58-1 2.6-.29.71zM885.93 226.49c-.32-.15-.63-.32-.95-.46l-.51-.22.27-.64 1.08-2.56.69-1.63c.61.26 1.21.54 1.81.84l-.77 1.52-1.27 2.49-.35.69zM887.69 227.48c-.3-.19-.61-.37-.92-.55l-.45-.25.31-.58 1.3-2.44.85-1.61q.88.48 1.73 1l-.9 1.44-1.49 2.37-.41.65zM889.35 228.63c-.32-.24-.63-.47-1-.69l-.35-.24.38-.58 1.52-2.33 1-1.48c.55.37 1.1.75 1.63 1.15l-1 1.35-1.72 2.19-.47.61zM890.9 229.92l-.56-.5c-.22-.18-.44-.38-.67-.55l1.05-1.33 1.73-2.2.45-.57.37.3c.35.29.7.58 1 .89l.11.11-1.15 1.25-1.89 2.06-.52.57zM892.32 231.35c-.36-.4-.74-.79-1.13-1.16l1.17-1.23 1.92-2 .5-.53s.32.3.34.33c.32.32.64.63.94 1a.6.6 0 01.12.14l-.23.21-.83.76-2.12 1.86-.69.63z" transform="translate(-852.59 -218.07)"/><path class="cls-3" d="M892.32 231.35c-.36-.4-.74-.79-1.13-1.16l1.17-1.23 1.92-2 .5-.53s.32.3.34.33c.32.32.64.63.94 1a.6.6 0 01.12.14l-.23.21-.83.76-2.12 1.86-.69.63zM893.62 232.9c-.32-.43-.67-.85-1-1.25l1.28-1.12 2.1-1.85.55-.48.27.3c.29.34.57.69.85 1a1.11 1.11 0 01.15.21h-.05l-.24.18-.9.68-2.26 1.71-.74.56zM894.77 234.56c-.19-.3-.38-.6-.59-.89l-.32-.44.56-.41 2.24-1.64 1.43-1c.39.54.76 1.09 1.12 1.65l-1.44.9-2.37 1.48zM895.75 236.32c-.18-.35-.36-.7-.56-1l-.22-.37.59-.36 2.44-1.49 1.52-.91q.51.86 1 1.74l-1.52.77-2.56 1.3-.69.35zM896.58 238.15c-.15-.37-.3-.72-.47-1.08l-.18-.39.62-.3 2.5-1.22 1.59-.77c.08.17.83 1.81.8 1.82l-.51.21-2.52 1-1.83.74zM897.25 240.05c-.15-.52-.33-1-.52-1.53l1.59-.6 2.61-1 .68-.26.19.34c.15.43.31.87.44 1.31a.56.56 0 010 .2h-.07l-.3.09-1.09.33-2.71.81-.87.26zM897.75 242c-.12-.53-.24-1.05-.39-1.57L899 240l2.69-.76.74-.21c.18.64.33 1.29.48 1.94l-1.67.34-2.74.56-.75.15zM867.46 268c.68.25 1.37.49 2.07.69s1.34.34 2 .47a23.29 23.29 0 005.3.37 22.79 22.79 0 005.49-.93 23.36 23.36 0 005.29-2.33 22.91 22.91 0 007.92-7.91 24 24 0 002.25-5 21.89 21.89 0 00.69-2.84 25.62 25.62 0 00.31-2.66 21.34 21.34 0 00-.13-4.12H899.06c0 .39.08.79.11 1.19a21.28 21.28 0 010 2.77 24.14 24.14 0 01-.93 5.49c-.14.46-.28.91-.45 1.36s-.32.84-.49 1.25a23.69 23.69 0 01-1.23 2.48 23.35 23.35 0 01-7.7 8.08 23.83 23.83 0 01-5.23 2.5 23.19 23.19 0 01-5.49 1.13 23.8 23.8 0 01-5.43-.18 22.45 22.45 0 01-4.42-1.1l-.58-.22.16-.42z" transform="translate(-852.59 -218.07)"/><path class="cls-2" d="M862.66 238.78l.84.49c-.09.13-.16.28-.24.42s-.2.39-.3.59c-.18.36-.34.73-.48 1.11a14.53 14.53 0 00-.71 2.51 14.19 14.19 0 000 5.37 14.39 14.39 0 00.82 2.68 13.27 13.27 0 001.13 2.17 13 13 0 00.76 1.08c.23.28.46.56.7.83a13 13 0 001.89 1.73 13.74 13.74 0 002.84 1.69 14.85 14.85 0 001.83.67c.31.08.61.16.92.23l.94.18c.45.08.91.1 1.36.14a9.89 9.89 0 001 0c.47 0 .93 0 1.4-.1a14.2 14.2 0 004.07-1.13 13.92 13.92 0 002.34-1.31 15 15 0 001.91-1.59l-.69-.69.33-.34.73.69.49.46.15.14s.06 0 0 .06a13.39 13.39 0 01-1.95 1.74c-.37.27-.75.55-1.15.79l-.61.36-.64.33c-.21.11-.43.2-.64.3l-.63.26c-.42.17-.85.31-1.28.43a14 14 0 01-2.82.52c-.48 0-1 .07-1.45.06a14 14 0 01-1.42-.08c-.4 0-.79-.09-1.18-.16s-.79-.16-1.18-.26a15.2 15.2 0 01-8.44-5.8 15.18 15.18 0 01-1.79-14.51c.15-.38.32-.74.5-1.11a9.94 9.94 0 01.52-1z" transform="translate(-852.59 -218.07)"/><path class="cls-3" d="M864.35 239.77c-.09.14-.16.28-.24.43s-.19.37-.28.55a13.57 13.57 0 00-.53 1.28c-.09.21-.15.44-.22.65s-.12.41-.17.62a13.11 13.11 0 00.09 6.7 13.65 13.65 0 002.4 4.7 13.24 13.24 0 0014.86 4.19c.44-.16.87-.35 1.29-.55a13.53 13.53 0 001.21-.67c.38-.25.77-.5 1.12-.79s.61-.51.9-.77l.08-.08.38.4v.06l-.2.18a13.526 13.526 0 01-1.53 1.2c-.19.13-.39.26-.59.38s-.39.25-.6.34a14.81 14.81 0 01-2.58 1.08 13.45 13.45 0 01-2.75.54 14.07 14.07 0 01-5.38-.58 13.69 13.69 0 01-4.73-2.58 13.9 13.9 0 01-2-2 13.38 13.38 0 01-.83-1.17c-.26-.41-.49-.84-.72-1.27a13.93 13.93 0 01-1-2.7 11.9 11.9 0 01-.29-1.4 13.34 13.34 0 01-.13-1.39 13.77 13.77 0 011.66-7.25c.07-.13.14-.27.22-.4l.09.05.4.24z" transform="translate(-852.59 -218.07)"/><path class="cls-2" d="M888.17 255.23c-.29.43-.62.82-1 1.22l-.76-.66-.51-.44-.16-.14s-.05 0 0-.06c.28-.34.56-.67.81-1zM889.28 253.4c-.18.37-.4.73-.61 1.08l-.14.23-.12-.08-1.13-.73-.38-.25c.13-.18.24-.39.35-.58s.22-.39.32-.59l1.74.89zM890.12 251.43c-.13.34-.25.68-.39 1 0 0-.18.43-.19.42h-.1l-1.19-.55-.48-.22a12.24 12.24 0 00.47-1.15s0-.11.06-.1l.16.05 1.28.44.38.13zM890.67 249.36c-.08.38-.17.76-.27 1.13a2.65 2.65 0 01-.11.37h-.12l-1.26-.38-.48-.14c.13-.39.21-.8.3-1.21 0-.06 0-.11.06-.1h.18l1.34.26.36.07zM890.93 247.23c0 .4-.06.79-.11 1.18a1.83 1.83 0 01-.06.35h-.13l-1.31-.2-.48-.07c.07-.41.1-.82.13-1.23v-.1h.18l1.36.07h.37zM890.88 245.1c0 .39.05.77.06 1.16v.38H889V245.3h.17l1.35-.12h.4zM890.54 243c.09.39.17.77.23 1.16 0 0 .05.35 0 .36h-.12l-1.3.17-.51.07a11.29 11.29 0 00-.21-1.17v-.15h.17l1.32-.31.38-.09zM889.9 240.95a14.85 14.85 0 01.49 1.47l-1 .27-.65.18-.2.06h-.06a12.51 12.51 0 00-.42-1.24l1.82-.71zM889 239a14.89 14.89 0 01.69 1.39l-.93.41-.62.27-.19.08h-.07a12.56 12.56 0 00-.59-1.18l1.7-1zM887.8 237.22c.21.29.43.58.62.89l.25.39-.09.06-1.11.68-.46.28c-.1-.17-.21-.33-.32-.49s-.25-.35-.38-.53-.09-.07 0-.1l.13-.1 1.07-.82.32-.25zM886.38 235.62c.28.28.55.57.81.86a1.75 1.75 0 01.23.28l-.1.09-1 .85-.37.31a12 12 0 00-.84-.91l-.11-.1.13-.13 1-1 .26-.26zM884.75 234.24c.31.23.61.47.91.72 0 0 .29.25.29.26l-.08.08-.88 1-.35.39a12 12 0 00-.94-.77l-.1-.08.11-.15.8-1.1.22-.31zM882.94 233.1c.35.19.69.39 1 .6l.3.2-.07.1-.74 1.09-.28.42c-.33-.22-.67-.43-1-.62l-.14-.07.08-.15.64-1.2.18-.34zM881 232.22c.37.14.74.28 1.1.45l.32.16-.05.11-.58 1.19-.22.46c-.35-.17-.71-.33-1.07-.46a.64.64 0 01-.17-.06l.06-.16.47-1.27zM878.92 231.63c.51.11 1 .24 1.49.4l-.31 1-.21.64-.06.2v.05a12.39 12.39 0 00-1.2-.32c-.07 0-.09 0-.08-.06v-.18l.28-1.33.08-.35zM876.8 231.33c.52 0 1 .1 1.54.19l-.17 1-.12.66v.27c-.44-.07-.87-.13-1.32-.16l.14-1.95zM874.67 231.33h1.54v1.94a13 13 0 00-1.32 0zM872.55 231.63a15.34 15.34 0 011.52-.25l.11 1 .07.67v.26a12.76 12.76 0 00-1.29.21l-.41-1.91zM870.5 232.23l.34-.12.48-.16.66-.19.25 1 .17.65.05.2v.06l-.61.17-.38.13-.29.1-.68-1.83z" transform="translate(-852.59 -218.07)"/><path class="cls-1" d="M886.42 241.38a11.75 11.75 0 00-15.58-5.49l.36.66a11 11 0 11-4.48 3.82l-.57-.49a11.76 11.76 0 1020.27 1.51z" transform="translate(-852.59 -218.07)"/><path class="cls-3" d="M880.18 246.56a4.37 4.37 0 10-4.37 4.26 4.32 4.32 0 004.37-4.26zm-8.36 0a4 4 0 114 3.9 3.95 3.95 0 01-4-3.9z" transform="translate(-852.59 -218.07)"/><path class="cls-1" d="M875.81 245.87a.7.7 0 11-.71.7.7.7 0 01.71-.7z" transform="translate(-852.59 -218.07)"/><path class="cls-2" d="M30.73 29.21v-1.43h-.42v.51h-5.2v.41h5.2v.51h.42zM22.51 36h1.42v-.42h-.5v-5.2h-.41v5.2h-.51V36zM15.71 27.78v1.43h.43v-.51h5.19v-.41h-5.19v-.51h-.43zM23.93 20.99h-1.42v.42h.51v5.2h.41v-5.2h.5v-.42z"/><path class="cls-3" d="M32.5 29.77h-.49v-2.55h.5v-.28h-1.27v.28h.49v2.55h-.49v.28h1.26v-.28zM21.95 37.78v-.49h2.55v.49h.28v-1.26h-.28V37h-2.55v-.49h-.29v1.27h.29zM13.94 27.22h.49v2.55h-.5v.28h1.27v-.28h-.49v-2.55h.5v-.28h-1.27v.28zM24.5 19.21v.49h-2.55v-.49h-.29v1.26h.29v-.48h2.55v.49h.28v-1.27h-.28z"/></svg>