<svg preserveAspectRatio="none" id="Layer_1" data-name="Layer 1" xmlns="http://www.w3.org/2000/svg" viewBox="0 0 1147.98 1147.98"><defs><style>.cls-1{fill:#20ffff;}.cls-2{fill:none;stroke:#b2ffff;stroke-miterlimit:10;stroke-width:1px;}.cls-3{opacity:0.4;}.cls-4{fill:aqua;}</style></defs><title>circle84</title><rect class="cls-1" x="3546.19" y="994.81" width="13.18" height="50.93" transform="translate(-1108.39 4059.47) rotate(-87.62)"/><rect class="cls-1" x="3548.54" y="962.46" width="13.18" height="50.93" transform="translate(-1290.43 3953.26) rotate(-84.04)"/><rect class="cls-1" x="3552.92" y="930.33" width="13.18" height="50.93" transform="translate(-1468.21 3839.07) rotate(-80.44)"/><rect class="cls-1" x="3559.31" y="898.55" width="13.18" height="50.93" transform="translate(-1640.91 3717.21) rotate(-76.82)"/><rect class="cls-1" x="3552.01" y="846.13" width="13.18" height="83.68" transform="translate(-1814.63 3569.63) rotate(-73.19)"/><rect class="cls-1" x="3578.05" y="836.52" width="13.18" height="50.93" transform="translate(-1969.01 3451.82) rotate(-69.56)"/><rect class="cls-1" x="3590.3" y="806.51" width="13.18" height="50.93" transform="translate(-2123.58 3308.88) rotate(-65.93)"/><rect class="cls-1" x="3604.47" y="777.35" width="13.18" height="50.93" transform="translate(-2271.64 3159.4) rotate(-62.32)"/><rect class="cls-1" x="3620.43" y="749.13" width="13.18" height="50.93" transform="translate(-2412.89 3003.55) rotate(-58.71)"/><rect class="cls-1" x="3624.68" y="696.21" width="13.18" height="83.68" transform="translate(-2545.27 2826.38) rotate(-55.11)"/><rect class="cls-1" x="3657.51" y="695.96" width="13.18" height="50.93" transform="translate(-2674.66 2672.82) rotate(-51.52)"/><rect class="cls-1" x="3678.47" y="671.22" width="13.18" height="50.93" transform="translate(-2795.01 2497.72) rotate(-47.94)"/><rect class="cls-1" x="3700.92" y="647.81" width="13.18" height="50.93" transform="translate(-2908.13 2315.84) rotate(-44.36)"/><rect class="cls-1" x="3724.82" y="625.9" width="13.18" height="50.93" transform="translate(-3013.75 2127.04) rotate(-40.78)"/><rect class="cls-1" x="3740.13" y="576.08" width="13.18" height="83.68" transform="translate(-3105.61 1922.38) rotate(-37.19)"/><rect class="cls-1" x="3776.45" y="586.69" width="13.18" height="50.93" transform="translate(-3200.82 1727.62) rotate(-33.6)"/><rect class="cls-1" x="3804.02" y="569.63" width="13.18" height="50.93" transform="translate(-3281.16 1516.81) rotate(-30)"/><rect class="cls-1" x="3832.59" y="554.31" width="13.18" height="50.93" transform="translate(-3351.79 1298.48) rotate(-26.39)"/><rect class="cls-1" x="3862.07" y="540.81" width="13.18" height="50.93" transform="translate(-3411.85 1072.98) rotate(-22.76)"/><rect class="cls-1" x="3886.98" y="497.4" width="13.18" height="83.68" transform="translate(-3455.7 838.12) rotate(-19.14)"/><rect class="cls-1" x="3923.28" y="519.56" width="13.18" height="50.93" transform="matrix(0.96, -0.27, 0.27, 0.96, -3496.76, 602.35)"/><rect class="cls-1" x="3954.78" y="511.92" width="13.18" height="50.93" transform="translate(-3519.88 358.78) rotate(-11.88)"/><rect class="cls-1" x="3986.7" y="506.24" width="13.18" height="50.93" transform="translate(-3529.05 111.44) rotate(-8.26)"/><rect class="cls-1" x="4018.92" y="502.59" width="13.18" height="50.93" transform="translate(-3523.72 -138.62) rotate(-4.67)"/><rect class="cls-1" x="4051" y="468.22" width="13.18" height="83.68" transform="translate(-3503.2 -389.49) rotate(-1.11)"/><rect class="cls-1" x="4064.88" y="520.22" width="50.93" height="13.18" transform="translate(-103.62 4123.02) rotate(-87.57)"/><rect class="cls-1" x="4097.22" y="522.58" width="50.93" height="13.18" transform="translate(-329.03 4105.77) rotate(-83.99)"/><rect class="cls-1" x="4129.34" y="527" width="50.93" height="13.18" transform="translate(-558.93 4072.94) rotate(-80.39)"/><rect class="cls-1" x="4161.12" y="533.41" width="50.93" height="13.18" transform="translate(-791.29 4023.8) rotate(-76.77)"/><rect class="cls-1" x="4180.8" y="526.16" width="83.68" height="13.18" transform="translate(-1006.07 3951.25) rotate(-73.14)"/><rect class="cls-1" x="4223.13" y="552.21" width="50.93" height="13.18" transform="translate(-1256.17 3874.88) rotate(-69.51)"/><rect class="cls-1" x="4253.13" y="564.5" width="50.93" height="13.18" transform="translate(-1484.92 3774.81) rotate(-65.88)"/><rect class="cls-1" x="4282.28" y="578.69" width="50.93" height="13.18" transform="translate(-1709.11 3657.64) rotate(-62.27)"/><rect class="cls-1" x="4310.5" y="594.65" width="50.93" height="13.18" transform="translate(-1926.95 3523.67) rotate(-58.66)"/><rect class="cls-1" x="4330.64" y="598.98" width="83.68" height="13.18" transform="matrix(0.57, -0.82, 0.82, 0.57, -2122.16, 3375.06)"/><rect class="cls-1" x="4363.63" y="631.79" width="50.93" height="13.18" transform="translate(-2338.44 3206.16) rotate(-51.47)"/><rect class="cls-1" x="4388.36" y="652.76" width="50.93" height="13.18" transform="translate(-2529.26 3023.4) rotate(-47.89)"/><rect class="cls-1" x="4411.71" y="675.27" width="50.93" height="13.18" transform="translate(-2708.38 2825.33) rotate(-44.31)"/><rect class="cls-1" x="4433.65" y="699.16" width="50.93" height="13.18" transform="translate(-2874.68 2612.19) rotate(-40.73)"/><rect class="cls-1" x="4450.69" y="714.5" width="83.68" height="13.18" transform="translate(-3018.16 2390.7) rotate(-37.14)"/><rect class="cls-1" x="4472.77" y="750.84" width="50.93" height="13.18" transform="matrix(0.83, -0.55, 0.55, 0.83, -3163.33, 2144.05)"/><rect class="cls-1" x="4489.86" y="778.4" width="50.93" height="13.18" transform="translate(-3283.07 1890.84) rotate(-29.95)"/><rect class="cls-1" x="4505.12" y="807" width="50.93" height="13.18" transform="translate(-3384.78 1626.32) rotate(-26.34)"/><rect class="cls-1" x="4518.59" y="836.49" width="50.93" height="13.18" transform="translate(-3467.19 1351.99) rotate(-22.72)"/><rect class="cls-1" x="4529.25" y="861.42" width="83.68" height="13.18" transform="translate(-3526.63 1074.37) rotate(-19.09)"/><rect class="cls-1" x="4539.77" y="897.73" width="50.93" height="13.18" transform="translate(-3569.99 781.23) rotate(-15.46)"/><rect class="cls-1" x="4547.42" y="929.23" width="50.93" height="13.18" transform="translate(-3588.82 489.06) rotate(-11.83)"/><rect class="cls-1" x="4553.05" y="961.15" width="50.93" height="13.18" transform="translate(-3585.39 196) rotate(-8.21)"/><rect class="cls-1" x="4556.69" y="993.38" width="50.93" height="13.18" transform="translate(-3559.7 -96.11) rotate(-4.62)"/><rect class="cls-1" x="4558.28" y="1025.47" width="83.68" height="13.18" transform="matrix(1, -0.02, 0.02, 1, -3512.4, -382.83)"/><rect class="cls-1" x="4576.76" y="1039.33" width="13.18" height="50.93" transform="translate(-172.97 5129.65) rotate(-87.52)"/><rect class="cls-1" x="4574.36" y="1071.68" width="13.18" height="50.93" transform="translate(-487.43 5068.68) rotate(-83.94)"/><rect class="cls-1" x="4569.91" y="1103.79" width="13.18" height="50.93" transform="translate(-798.69 4983.32) rotate(-80.34)"/><rect class="cls-1" x="4563.48" y="1135.56" width="13.18" height="50.93" transform="translate(-1103.76 4874.11) rotate(-76.72)"/><rect class="cls-1" x="4570.7" y="1155.25" width="13.18" height="83.68" transform="translate(-1393.53 4760.17) rotate(-73.09)"/><rect class="cls-1" x="4544.62" y="1197.56" width="13.18" height="50.93" transform="translate(-1685.07 4587.65) rotate(-69.46)"/><rect class="cls-1" x="4532.31" y="1227.55" width="13.18" height="50.93" transform="translate(-1956.53 4413.08) rotate(-65.83)"/><rect class="cls-1" x="4518.09" y="1256.68" width="13.18" height="50.93" transform="translate(-2212.88 4219.42) rotate(-62.22)"/><rect class="cls-1" x="4502.11" y="1284.89" width="13.18" height="50.93" transform="translate(-2452.47 4008.45) rotate(-58.61)"/><rect class="cls-1" x="4497.75" y="1305.03" width="13.18" height="83.68" transform="translate(-2676.08 3796.67) rotate(-55.01)"/><rect class="cls-1" x="4464.92" y="1337.98" width="13.18" height="50.93" transform="translate(-2876.84 3540.75) rotate(-51.42)"/><rect class="cls-1" x="4443.93" y="1362.7" width="13.18" height="50.93" transform="translate(-3059.83 3287.32) rotate(-47.84)"/><rect class="cls-1" x="4421.4" y="1386.03" width="13.18" height="50.93" transform="translate(-3222.53 3022.71) rotate(-44.26)"/><rect class="cls-1" x="4397.49" y="1407.94" width="13.18" height="50.93" transform="translate(-3364.28 2748.91) rotate(-40.68)"/><rect class="cls-1" x="4382.12" y="1424.98" width="13.18" height="83.68" transform="translate(-3490.76 2475.48) rotate(-37.09)"/><rect class="cls-1" x="4345.78" y="1447.02" width="13.18" height="50.93" transform="translate(-3583.83 2178.7) rotate(-33.5)"/><rect class="cls-1" x="4318.21" y="1464.09" width="13.18" height="50.93" transform="translate(-3661.01 1885.86) rotate(-29.9)"/><rect class="cls-1" x="4289.59" y="1479.32" width="13.18" height="50.93" transform="translate(-3716.24 1590.08) rotate(-26.29)"/><rect class="cls-1" x="4260.09" y="1492.77" width="13.18" height="50.93" transform="translate(-3749.63 1293.31) rotate(-22.67)"/><rect class="cls-1" x="4235.13" y="1503.41" width="13.18" height="83.68" transform="translate(-3766.13 999.94) rotate(-19.04)"/><rect class="cls-1" x="4198.83" y="1513.89" width="13.18" height="50.93" transform="translate(-3751.93 704.47) rotate(-15.41)"/><rect class="cls-1" x="4167.33" y="1521.52" width="13.18" height="50.93" transform="translate(-3721.99 416.47) rotate(-11.78)"/><rect class="cls-1" x="4135.39" y="1527.12" width="13.18" height="50.93" transform="translate(-3672.57 135.71) rotate(-8.16)"/><rect class="cls-1" x="4103.17" y="1530.73" width="13.18" height="50.93" transform="translate(-3605.03 -135.66) rotate(-4.57)"/><rect class="cls-1" x="4071.06" y="1532.29" width="13.18" height="83.68" transform="translate(-3521.22 -395.95) rotate(-1.01)"/><rect class="cls-1" x="4019.45" y="1550.74" width="50.93" height="13.18" transform="translate(-1183.48 5061.5) rotate(-87.47)"/><rect class="cls-1" x="3987.12" y="1548.31" width="50.93" height="13.18" transform="translate(-1454.19 4911.34) rotate(-83.9)"/><rect class="cls-1" x="3955" y="1543.84" width="50.93" height="13.18" transform="translate(-1713.08 4744.35) rotate(-80.29)"/><rect class="cls-1" x="3923.24" y="1537.38" width="50.93" height="13.18" transform="translate(-1958.07 4562.28) rotate(-76.67)"/><rect class="cls-1" x="3870.8" y="1544.57" width="83.68" height="13.18" transform="matrix(0.29, -0.96, 0.96, 0.29, -2206.37, 4373.14)"/><rect class="cls-1" x="3861.26" y="1518.47" width="50.93" height="13.18" transform="translate(-2401.95 4159.01) rotate(-69.41)"/><rect class="cls-1" x="3831.28" y="1506.13" width="50.93" height="13.18" transform="translate(-2598.92 3941.5) rotate(-65.78)"/><rect class="cls-1" x="3802.16" y="1491.89" width="50.93" height="13.18" transform="translate(-2778.76 3715.48) rotate(-62.17)"/><rect class="cls-1" x="3773.97" y="1475.87" width="50.93" height="13.18" transform="translate(-2941.36 3482.63) rotate(-58.56)"/><rect class="cls-1" x="3721.08" y="1471.49" width="83.68" height="13.18" transform="translate(-3101.77 3242.33) rotate(-54.96)"/><rect class="cls-1" x="3720.9" y="1438.64" width="50.93" height="13.18" transform="translate(-3215.48 3001.64) rotate(-51.37)"/><rect class="cls-1" x="3696.2" y="1417.64" width="50.93" height="13.18" transform="translate(-3327.75 2755.82) rotate(-47.79)"/><rect class="cls-1" x="3672.89" y="1395.09" width="50.93" height="13.18" transform="translate(-3424.07 2507.65) rotate(-44.21)"/><rect class="cls-1" x="3651.01" y="1371.15" width="50.93" height="13.18" transform="translate(-3505.01 2257.9) rotate(-40.63)"/><rect class="cls-1" x="3601.23" y="1355.76" width="83.68" height="13.18" transform="translate(-3579.57 2001.45) rotate(-37.04)"/><rect class="cls-1" x="3611.97" y="1319.41" width="50.93" height="13.18" transform="translate(-3622.51 1756.52) rotate(-33.45)"/><rect class="cls-1" x="3594.93" y="1291.82" width="50.93" height="13.18" transform="translate(-3660.07 1505.99) rotate(-29.85)"/><rect class="cls-1" x="3579.71" y="1263.19" width="50.93" height="13.18" transform="translate(-3684.02 1256.45) rotate(-26.24)"/><rect class="cls-1" x="3566.3" y="1233.68" width="50.93" height="13.18" transform="translate(-3694.85 1008.39) rotate(-22.61)"/><rect class="cls-1" x="3522.93" y="1208.7" width="83.68" height="13.18" transform="translate(-3695.54 757.79) rotate(-18.99)"/><rect class="cls-1" x="3545.23" y="1172.4" width="50.93" height="13.18" transform="translate(-3678.82 519.42) rotate(-15.35)"/><rect class="cls-1" x="3537.62" y="1140.89" width="50.93" height="13.18" transform="translate(-3652.96 280.16) rotate(-11.73)"/><rect class="cls-1" x="3532.06" y="1108.95" width="50.93" height="13.18" transform="translate(-3615.95 45.31) rotate(-8.12)"/><rect class="cls-1" x="3528.47" y="1076.73" width="50.93" height="13.18" transform="translate(-3568.42 -184.64) rotate(-4.52)"/><rect class="cls-1" x="3494.2" y="1044.6" width="83.68" height="13.18" transform="translate(-3511.24 -408.58) rotate(-0.96)"/><path class="cls-2" d="M3464,1053" transform="translate(-3494.09 -468.1)"/><g class="cls-3"><path class="cls-4" d="M4068.08,1483.74A440.29,440.29,0,1,1,4240,1449,438.89,438.89,0,0,1,4068.08,1483.74Zm0-866.41a423.4,423.4,0,1,0,165.33,33.38A422.09,422.09,0,0,0,4068.08,617.33Z" transform="translate(-3494.09 -468.1)"/></g><path class="cls-1" d="M4371,1045.7l128.94-.16v-8l-128.94.16a301.26,301.26,0,0,0-21.31-107.43l30.45-12.57-3.05-7.39-30.45,12.57a305.93,305.93,0,0,0-61.18-91.8l51.67-51.49-5.65-5.67-51.67,51.49a305.24,305.24,0,0,0-91.58-61.51l12.68-30.41-7.38-3.08-12.68,30.41a299.72,299.72,0,0,0-107.35-21.65l0.6-128.92-8,0-0.6,128.93a301.23,301.23,0,0,0-108.26,20.93l-12.46-30.49-7.4,3,12.46,30.49a305.79,305.79,0,0,0-92,60.86l-51.31-51.85-5.69,5.63,51.31,51.84a305.17,305.17,0,0,0-35.3,43,302.14,302.14,0,0,0-26.57,48.32l-30.37-12.79-3.11,7.37,30.37,12.79a298.63,298.63,0,0,0-22,108l-128.93-.72,0,8,128.91,0.72h0a298.74,298.74,0,0,0,22.06,111.51l-30.37,12.79,3.11,7.37,30.37-12.79a302.14,302.14,0,0,0,26.57,48.32,305.24,305.24,0,0,0,35.3,43l-51.31,51.84,5.69,5.63,51.31-51.84a305.81,305.81,0,0,0,92,60.85l-12.46,30.49,7.4,3,12.46-30.49a301.14,301.14,0,0,0,107.5,20.92l0.28,129,8,0L4072.76,1345a299.73,299.73,0,0,0,108.12-21.66l12.68,30.41,7.38-3.08-12.68-30.41a305.23,305.23,0,0,0,91.59-61.51l51.67,51.49,5.65-5.67-51.67-51.49a305.93,305.93,0,0,0,61.18-91.8l30.45,12.57,3.05-7.39-30.45-12.57A301.32,301.32,0,0,0,4371,1045.7ZM4277,1250.38a296.86,296.86,0,0,1-95.41,64.07,295.81,295.81,0,0,1-225.37.61,296.6,296.6,0,0,1-132.68-108,294.24,294.24,0,0,1-27.47-50.74,290.91,290.91,0,0,1-22.89-112.55v-3.4A290.9,290.9,0,0,1,3796,927.83a294.23,294.23,0,0,1,27.47-50.74,296.61,296.61,0,0,1,132.69-108,293.36,293.36,0,0,1,112.12-22h0.63a292,292,0,0,1,112.62,22.61,295.76,295.76,0,0,1,159.2,159.68,295.49,295.49,0,0,1,0,225.37A297.56,297.56,0,0,1,4277,1250.38Z" transform="translate(-3494.09 -468.1)"/></svg>