<svg preserveAspectRatio="none" id="Layer_1" data-name="Layer 1" xmlns="http://www.w3.org/2000/svg" viewBox="0 0 102.67 104.17"><defs><linearGradient id="linear-gradient" x1="239.52" y1="120.36" x2="239.52" y2="59.68" gradientUnits="userSpaceOnUse"><stop offset=".01" stop-color="#5d85c4"/><stop offset="1" stop-color="#334f7e"/></linearGradient><linearGradient id="linear-gradient-2" x1="200.16" y1="89.45" x2="278.83" y2="89.45" gradientUnits="userSpaceOnUse"><stop offset=".03" stop-color="#71ebb2"/><stop offset=".99" stop-color="#339567"/></linearGradient><style>.cls-1{fill:#2e2855}</style></defs><path class="cls-1" d="M239.49 141.33A51.33 51.33 0 11290.83 90a51.39 51.39 0 01-51.34 51.33zm0-100.67A49.33 49.33 0 10288.83 90a49.39 49.39 0 00-49.34-49.33z" transform="translate(-188.16 -37.17)"/><path class="cls-1" d="M239.49 132.33A42.33 42.33 0 11281.83 90a42.38 42.38 0 01-42.34 42.33zm0-76.67A34.33 34.33 0 10273.83 90a34.37 34.37 0 00-34.34-34.33z" transform="translate(-188.16 -37.17)"/><path class="cls-1" d="M239.49 120.33A30.33 30.33 0 11269.83 90a30.37 30.37 0 01-30.34 30.33zm0-52.67A22.33 22.33 0 10261.83 90a22.36 22.36 0 00-22.34-22.33z" transform="translate(-188.16 -37.17)"/><path d="M239.77 120.36l-.07-8a22.34 22.34 0 003.58-.32l1.36 7.88a30.35 30.35 0 01-4.87.44zm-4.88-.36a30.33 30.33 0 01-4.76-1.14l2.49-7.6a22.23 22.23 0 003.5.84zm14.49-1.29l-2.59-7.57a22.39 22.39 0 10-23.27-5.55l-5.72 5.59a30.33 30.33 0 1131.58 7.53zM225.62 117a30.66 30.66 0 01-4.15-2.58l4.76-6.43a22.62 22.62 0 003.06 1.91z" transform="translate(-188.16 -37.17)" fill="url(#linear-gradient)"/><path d="M248.72 128.24l-.47-1.94A37.38 37.38 0 00276.83 90h2a39.38 39.38 0 01-30.11 38.24zm-34.45-8.08a39.32 39.32 0 0125.23-69.49v2a37.32 37.32 0 00-23.94 66z" transform="translate(-188.16 -37.17)" fill="url(#linear-gradient-2)"/><path d="M268.19 132.57l-1.12-1.66a49.35 49.35 0 0012.53-69.63l1.63-1.17a51.35 51.35 0 01-13.04 72.46z" transform="translate(-188.16 -37.17)" fill="#e9aa4f"/><path d="M195.48 71.25l-4.6-2a52.79 52.79 0 0148.62-32.12v5a47.79 47.79 0 00-44.02 29.12z" transform="translate(-188.16 -37.17)" fill="#3d6db8"/><circle class="cls-1" cx="51.33" cy="26.52" r="2.63"/><circle class="cls-1" cx="247.67" cy="64.99" r="2.63" transform="rotate(-71.89 127.952 176.166)"/><circle class="cls-1" cx="255.04" cy="68.77" r="2.63" transform="rotate(-53.78 124.292 235.722)"/><circle class="cls-1" cx="260.87" cy="74.66" r="2.63" transform="rotate(-35.66 109.044 348.57)"/><circle class="cls-1" cx="264.58" cy="82.07" r="2.63" transform="rotate(-17.55 50.131 672.961)"/><circle class="cls-1" cx="265.8" cy="90.26" r="2.63" transform="rotate(-89.44 152.952 166.685)"/><circle class="cls-1" cx="264.42" cy="98.42" r="2.63" transform="rotate(-71.33 144.424 210.942)"/><circle class="cls-1" cx="260.57" cy="105.76" r="2.63" transform="rotate(-53.21 129.403 275.007)"/></svg>