<svg preserveAspectRatio="none" id="Layer_1" data-name="Layer 1" xmlns="http://www.w3.org/2000/svg" viewBox="0 0 125.61 125.16"><defs><style>.cls-1{fill:#bf681f}.cls-2{fill:#804515}.cls-3{fill:#40220a}.cls-4{fill:#12aac2}.cls-5{fill:#ff8a29}.cls-6{fill:#0e8092}</style></defs><circle class="cls-1" cx="241.12" cy="38.9" r="2.03" transform="rotate(-74.99 144.905 142.56)"/><circle class="cls-2" cx="250.35" cy="42.74" r="2.03" transform="rotate(-60 150.652 183.143)"/><circle class="cls-3" cx="258.26" cy="48.83" r="2.03" transform="rotate(-45 153.068 247.717)"/><circle class="cls-1" cx="221.26" cy="38.87" r="2.03" transform="rotate(-15 74.278 681.909)"/><circle class="cls-2" cx="211.97" cy="42.7" r="2.03" transform="rotate(-30 96.136 354.56)"/><circle class="cls-3" cx="203.98" cy="48.8" r="2.03" transform="rotate(-45 98.787 247.691)"/><path class="cls-4" d="M231.16 135.56a59.33 59.33 0 01-29.75-8l-3.74 4.62a65.14 65.14 0 0029.33 9.11v-.09a4.16 4.16 0 018.32 0v.09a65.14 65.14 0 0029.43-9.13l-3.35-4.84a59.33 59.33 0 01-30.24 8.24zM292.8 75.89a4.16 4.16 0 014.2-4.16h.09a65.16 65.16 0 00-9.13-29.43l-5.15 3.57a59.5 59.5 0 01.25 59.5l4.95 4A65.14 65.14 0 00297.05 80H297a4.16 4.16 0 01-4.2-4.11zM231.23 88.32a10.71 10.71 0 0010.7-10.7h-.75a9.95 9.95 0 11-19.89 0h-.75a10.71 10.71 0 0010.69 10.7z" transform="translate(-171.44 -16.13)"/><path class="cls-4" d="M231.23 70.95l-6.67 10.85h13.34zm.13 2.11l3.85 6.26-3.82-3.82v-2.44zm-.25 0v2.41l-3.85 3.85zm-4.41 7.18l4.41-4.41v5h-4.76zm4.66.56v-5l4.41 4.41.35.56h-4.76z" transform="translate(-171.44 -16.13)"/><circle class="cls-4" cx="238.43" cy="82.26" r=".59" transform="rotate(-15.02 91.492 724.412)"/><circle class="cls-4" cx="231.23" cy="70.31" r=".59" transform="rotate(-15 83.675 710.097)"/><circle class="cls-4" cx="224.19" cy="82.26" r=".59" transform="rotate(-15.01 77.29 724.888)"/><path class="cls-4" d="M268.23 35.23a.25.25 0 000-.36.25.25 0 10-.33.37.2.2 0 00.16.07.27.27 0 00.17-.08zM210.1 126.82a.23.23 0 00.13.32.16.16 0 00.1 0 .26.26 0 00.23-.15.25.25 0 00-.14-.33.24.24 0 00-.32.16zM208.26 126a.24.24 0 00.12.32.23.23 0 00.11 0 .28.28 0 00.23-.15.26.26 0 00-.13-.33.25.25 0 00-.33.16zM212 127.55a.24.24 0 00.15.32h.08a.26.26 0 00.24-.16.25.25 0 00-.47-.16zM202.95 123.21a.26.26 0 00.09.35.27.27 0 00.13 0 .25.25 0 00.12-.46.24.24 0 00-.34.11zM206.46 125.14a.23.23 0 00.11.33.2.2 0 00.11 0 .24.24 0 00.22-.14.26.26 0 00-.11-.34.24.24 0 00-.33.15zM213.85 128.22a.26.26 0 00.16.32h.07a.25.25 0 00.24-.17.25.25 0 10-.47-.15zM204.69 124.21a.25.25 0 00.1.34.24.24 0 00.12 0 .25.25 0 00.12-.47.25.25 0 00-.34.13zM201.26 122.14a.25.25 0 00.07.35.23.23 0 00.14 0 .25.25 0 00.13-.46.24.24 0 00-.34.11zM215.76 128.82a.23.23 0 00.17.3h.07a.27.27 0 00.24-.18.26.26 0 00-.18-.31.24.24 0 00-.3.19zM221.59 130.18a.25.25 0 00.2.29.24.24 0 00.24-.21.23.23 0 00-.2-.28.24.24 0 00-.24.2zM225.55 130.73a.23.23 0 00.22.27.24.24 0 00.24-.22.25.25 0 00-.46-.05zM223.56 130.49a.25.25 0 00.22.28.26.26 0 00.25-.21.24.24 0 00-.22-.28.25.25 0 00-.25.21zM217.68 129.34a.25.25 0 00.18.3h.07a.26.26 0 00.24-.19.25.25 0 00-.49-.11zM219.63 129.8a.25.25 0 00.19.29.26.26 0 00.25-.2.25.25 0 10-.44-.09zM176.19 75.33a.25.25 0 00.25-.24.26.26 0 00-.25-.26.25.25 0 000 .5zM227.54 130.89a.24.24 0 00.23.26.25.25 0 00.25-.23.26.26 0 00-.24-.27.24.24 0 00-.24.24zM176.24 73.34a.26.26 0 00.26-.24.25.25 0 00-.24-.26.24.24 0 00-.26.23.25.25 0 00.24.27zM176.37 71.34a.26.26 0 00.25-.23.27.27 0 00-.23-.27.25.25 0 00-.27.23.24.24 0 00.25.27zM176.2 77.33a.24.24 0 00.24-.25.25.25 0 00-.25-.25.26.26 0 00-.25.26.26.26 0 00.25.24zM176.58 69.35a.25.25 0 10-.25-.28.24.24 0 00.25.28zM176.28 79.33a.25.25 0 100-.5.25.25 0 00-.23.26.25.25 0 00.25.24zM199.6 121a.26.26 0 00.06.35.23.23 0 00.14 0 .25.25 0 10-.2-.35zM178.1 61.51h.07a.25.25 0 00.24-.18.26.26 0 00-.18-.31.24.24 0 00-.3.18.24.24 0 00.17.31zM196.41 118.62a.25.25 0 000 .35.24.24 0 00.16 0 .25.25 0 00.19-.09.25.25 0 000-.35.26.26 0 00-.35.09zM198 119.85a.25.25 0 000 .35.23.23 0 00.15 0 .23.23 0 00.2-.1.24.24 0 00-.05-.35.25.25 0 00-.3.1zM176.85 67.38a.26.26 0 00.25-.21.25.25 0 00-.5-.08.26.26 0 00.25.29zM177.61 63.45h.06a.25.25 0 00.24-.19.25.25 0 00-.48-.12.25.25 0 00.18.31zM177.2 65.41h.05a.25.25 0 00.24-.2.25.25 0 00-.49-.1.25.25 0 00.2.3zM254.78 26.45a.26.26 0 00.23-.14.26.26 0 00-.12-.33.25.25 0 00-.34.11.26.26 0 00.12.34zM261.74 30.39a.23.23 0 00.2-.11.24.24 0 00-.06-.34.24.24 0 00-.35.07.24.24 0 00.07.34.23.23 0 00.14.04zM263.38 31.54a.23.23 0 00.2-.1.25.25 0 10-.35.06.28.28 0 00.15.04zM265.18 32.64a.25.25 0 000-.35.24.24 0 00-.35 0 .25.25 0 000 .35.27.27 0 00.15.05.25.25 0 00.2-.05zM256.57 27.35a.25.25 0 00.22-.13.25.25 0 00-.1-.34.25.25 0 00-.34.11.24.24 0 00.11.33.2.2 0 00.11.03zM260 29.32a.24.24 0 00.21-.11.25.25 0 00-.08-.35.24.24 0 00-.34.08.26.26 0 00.08.35.31.31 0 00.13.03zM258.33 28.31a.26.26 0 00.22-.13.25.25 0 00-.1-.34.25.25 0 10-.24.43.19.19 0 00.12.04zM266.73 33.91a.25.25 0 000-.35.25.25 0 10-.32.38.23.23 0 00.16.06.25.25 0 00.16-.09zM273.74 41a.26.26 0 000-.36.25.25 0 00-.35 0 .24.24 0 000 .35.26.26 0 00.19.1.27.27 0 00.16-.09zM277.29 45.83a.27.27 0 00.07-.35.25.25 0 00-.35-.07.25.25 0 00-.07.35.26.26 0 00.21.11.37.37 0 00.14-.04zM276.16 44.18a.25.25 0 10-.35-.06.25.25 0 00.21.1.23.23 0 00.14-.04zM271.09 38a.26.26 0 000-.36.25.25 0 00-.36 0 .24.24 0 000 .35.25.25 0 00.18.08.28.28 0 00.18-.07zM229.53 131a.25.25 0 00.24.26.25.25 0 00.23-.26.24.24 0 00-.24-.26.26.26 0 00-.23.26zM269.69 36.6a.26.26 0 000-.36.25.25 0 00-.35 0 .24.24 0 00.18.42.26.26 0 00.17-.06zM272.44 39.49a.25.25 0 000-.35.24.24 0 00-.35 0 .24.24 0 000 .35.25.25 0 00.35 0zM241.45 22.13a.26.26 0 00.24-.21.25.25 0 00-.2-.29.25.25 0 00-.29.2.24.24 0 00.25.3zM235.54 21.35a.24.24 0 00.24-.23.25.25 0 00-.23-.27.24.24 0 00-.26.23.24.24 0 00.25.27zM239.49 21.8a.25.25 0 00.24-.21.25.25 0 00-.21-.29.25.25 0 00-.03.5zM237.52 21.54a.24.24 0 00.25-.22.25.25 0 00-.22-.28.24.24 0 00-.27.22.25.25 0 00.24.28zM176.44 81.32a.25.25 0 00-.05-.5.24.24 0 00-.22.27.25.25 0 00.25.23zM233.55 21.23a.25.25 0 00.25-.24.25.25 0 10-.5 0 .25.25 0 00.25.24zM231.56 21.18a.25.25 0 00.24-.25.25.25 0 00-.24-.25.25.25 0 000 .5zM249.14 24.16h.08a.25.25 0 00.08-.49.26.26 0 00-.32.16.25.25 0 00.16.33zM251 24.86h.09a.25.25 0 00.23-.16.26.26 0 00-.14-.33.26.26 0 00-.33.15.26.26 0 00.15.34zM253 25.64a.25.25 0 00.23-.16.23.23 0 00-.13-.32.25.25 0 00-.33.13.26.26 0 00.14.33zM245.33 23h.06a.25.25 0 00.07-.49.25.25 0 00-.31.18.24.24 0 00.18.31zM247.24 23.56h.07a.25.25 0 00.08-.49.25.25 0 00-.32.16.26.26 0 00.17.33zM243.4 22.54h.05a.25.25 0 00.24-.19.25.25 0 00-.18-.3.25.25 0 00-.3.19.25.25 0 00.19.3zM275 42.57a.24.24 0 000-.35.25.25 0 00-.35-.05.26.26 0 000 .36.25.25 0 00.2.09.22.22 0 00.15-.05zM193.66 36.09a.25.25 0 10-.35 0 .24.24 0 00.18.07.27.27 0 00.17-.07zM198.06 32.29a.25.25 0 00.15 0 .25.25 0 10-.35-.05.24.24 0 00.2.05zM203 28.93a.28.28 0 00.13 0 .25.25 0 00.09-.34.25.25 0 10-.22.34zM196.65 33.47a.25.25 0 10-.32-.39.25.25 0 00.15.44.3.3 0 00.17-.05zM199.68 31.11a.23.23 0 00.14 0 .25.25 0 10-.35-.06.25.25 0 00.21.06zM201.33 30a.23.23 0 00.14 0 .26.26 0 00.07-.35.24.24 0 00-.34-.07.24.24 0 00-.07.34.25.25 0 00.2.08zM195.13 34.75a.23.23 0 000-.35.24.24 0 00-.35 0 .26.26 0 000 .36.27.27 0 00.19.08.25.25 0 00.16-.09zM186.87 43.62a.23.23 0 00.2-.1.25.25 0 10-.4-.29.25.25 0 000 .35.23.23 0 00.2.04zM185.71 45.26a.26.26 0 00.21-.11.25.25 0 00-.06-.35.25.25 0 00-.35.07.24.24 0 00.06.34.29.29 0 00.14.05zM188.08 42a.26.26 0 00.2-.1.25.25 0 10-.35 0 .22.22 0 00.15.1zM190.87 38.91a.26.26 0 000-.36.25.25 0 00-.35 0 .24.24 0 000 .35.23.23 0 00.17.07.27.27 0 00.18-.06zM192.24 37.48a.26.26 0 000-.36.25.25 0 00-.35 0 .26.26 0 000 .36.26.26 0 00.18.07.31.31 0 00.17-.07zM176.88 83a.25.25 0 00-.28-.21.24.24 0 00-.21.28.25.25 0 00.25.22.25.25 0 00.24-.29zM225.58 21.47a.26.26 0 00.23-.28.25.25 0 10-.23.28zM227.57 21.3a.25.25 0 000-.5.25.25 0 000 .5zM229.56 21.2a.25.25 0 000-.49.25.25 0 00-.25.25.26.26 0 00.25.24zM219.66 22.39h.05a.25.25 0 00.2-.29.26.26 0 00-.3-.2.25.25 0 00.05.49zM184.62 46.93a.25.25 0 00.21-.12.24.24 0 00-.08-.34.24.24 0 00-.34.08.24.24 0 00.07.34.23.23 0 00.14.04zM223.6 21.7a.25.25 0 00-.07-.49.25.25 0 00.07.49zM221.62 22h.05a.25.25 0 00-.09-.49.24.24 0 00-.2.29.25.25 0 00.24.2zM210.14 25.36a.16.16 0 00.1 0 .24.24 0 00.13-.32.25.25 0 00-.32-.14.26.26 0 00-.14.33.24.24 0 00.23.13zM204.76 27.95a.27.27 0 00.12 0 .24.24 0 00.1-.34.25.25 0 00-.34-.1.25.25 0 00-.09.34.23.23 0 00.21.1zM217.72 22.85h.06a.25.25 0 00.18-.3.26.26 0 00-.3-.18.25.25 0 00-.19.3.25.25 0 00.25.18zM208.32 26.16h.1a.25.25 0 10-.33-.13.24.24 0 00.23.13zM212 24.63h.08a.27.27 0 10-.08 0zM215.79 23.38h.07a.24.24 0 00.17-.3.24.24 0 00-.31-.17.25.25 0 00-.17.32.26.26 0 00.24.15zM213.88 24h.12a.26.26 0 10-.12 0zM189.55 40.39a.25.25 0 10-.36 0 .27.27 0 00.16.06.25.25 0 00.2-.06zM180.08 55.84a.24.24 0 00.23-.16.26.26 0 00-.14-.33.25.25 0 00-.32.14.26.26 0 00.14.33zM194.89 117.32a.26.26 0 000 .36.27.27 0 00.17.06.25.25 0 00.19-.09.24.24 0 000-.35.25.25 0 00-.36.02zM183.58 48.64a.25.25 0 00.22-.12.26.26 0 00-.09-.35.25.25 0 00-.25.44.26.26 0 00.12.03zM180.06 96.32a.25.25 0 00-.13.33.25.25 0 00.23.15.15.15 0 00.09 0 .24.24 0 00.14-.32.25.25 0 00-.33-.16zM180.83 98.16a.25.25 0 00-.12.33.25.25 0 00.23.15.19.19 0 00.1 0 .25.25 0 00-.21-.48zM180.86 54a.28.28 0 00.23-.15.26.26 0 00-.13-.33.25.25 0 00-.33.13.25.25 0 00.13.33zM179.36 94.45a.25.25 0 00-.15.32.26.26 0 00.23.17h.09a.25.25 0 00-.17-.49zM177.53 86.95a.25.25 0 00-.29-.2.25.25 0 00-.2.3.25.25 0 00.25.2.24.24 0 00.24-.3zM177.17 85a.24.24 0 00-.29-.2.25.25 0 000 .49.25.25 0 00.29-.29zM178.72 92.56a.25.25 0 00-.16.31.24.24 0 00.24.17h.08a.25.25 0 00.16-.31.25.25 0 00-.32-.17zM177.66 88.7a.25.25 0 00-.18.31.25.25 0 00.24.19h.06a.25.25 0 00-.12-.5zM178.74 59.61a.24.24 0 00.23-.18.25.25 0 10-.47-.15.26.26 0 00.16.32h.08zM178.16 90.64a.26.26 0 00-.18.31.25.25 0 00.24.18h.07a.26.26 0 00.18-.31.25.25 0 00-.31-.18zM179.37 57.7a.25.25 0 00.24-.17.25.25 0 10-.47-.16.25.25 0 00.15.32h.08zM182.57 101.74a.25.25 0 00-.1.34.24.24 0 00.22.13.25.25 0 00.12 0 .26.26 0 00-.24-.47zM183.54 103.49a.25.25 0 00-.09.34.25.25 0 00.22.12.27.27 0 00.12 0 .25.25 0 10-.25-.46zM181.67 100a.25.25 0 00-.11.33.24.24 0 00.22.14.2.2 0 00.11 0 .24.24 0 00.12-.33.25.25 0 00-.34-.14zM184.92 105.27a.26.26 0 00-.35-.07.25.25 0 00.13.46.23.23 0 00.14 0 .26.26 0 00.08-.34zM181.7 52.16a.26.26 0 00.23-.14.25.25 0 00-.12-.33.25.25 0 00-.33.11.26.26 0 00.11.34zM182.61 50.39a.25.25 0 10-.12 0 .27.27 0 00.12 0zM189.29 111.63a.24.24 0 000 .35.25.25 0 00.19.09.23.23 0 00.16-.06.25.25 0 00-.35-.38zM190.61 113.13a.24.24 0 000 .35.25.25 0 00.18.08.27.27 0 00.17-.06.25.25 0 000-.36.24.24 0 00-.35-.01zM185.66 106.87a.25.25 0 00-.06.35.22.22 0 00.2.1.23.23 0 00.14 0 .25.25 0 00.07-.35.25.25 0 00-.35-.1zM193.41 116a.25.25 0 000 .35.28.28 0 00.17.07.27.27 0 00.19-.08.25.25 0 10-.36-.34zM192 114.58a.25.25 0 000 .35.26.26 0 00.18.07.25.25 0 10-.18-.42zM188 110.09a.25.25 0 00.16.44.27.27 0 00.15-.05.25.25 0 00-.31-.39zM186.81 108.5a.25.25 0 00-.05.35.28.28 0 00.2.1.27.27 0 00.15-.05.24.24 0 000-.35.25.25 0 00-.3-.05zM206.52 27a.2.2 0 00.11 0 .26.26 0 00.11-.34.25.25 0 10-.22.34zM282.62 56.48h.09a.25.25 0 00.15-.32.25.25 0 00-.33-.14.24.24 0 00-.14.32.25.25 0 00.23.14zM249.18 128a.25.25 0 00.24.17h.08a.25.25 0 00.15-.32.25.25 0 00-.47.15zM285.38 86.16a.25.25 0 00.24-.2.25.25 0 00-.49-.09.25.25 0 00.2.29zM251.06 127.34a.25.25 0 00.23.16h.09a.25.25 0 10-.32-.16zM283.85 59.77a.25.25 0 00.07.49h.08a.25.25 0 00.17-.31.25.25 0 00-.32-.18zM284.93 88.11a.25.25 0 00.05-.49.24.24 0 00-.29.19.24.24 0 00.24.3zM282.46 95.44a.25.25 0 00.15.32h.09a.25.25 0 00.23-.16.26.26 0 00-.14-.33.27.27 0 00-.33.17zM241.66 129.78a.24.24 0 00-.2.29.26.26 0 00.25.2.25.25 0 00.29-.27.24.24 0 00-.34-.22zM284.58 89.57a.26.26 0 00-.31.18.25.25 0 00.18.3h.06a.26.26 0 00.25-.18.26.26 0 00-.18-.3zM243.42 129.66a.24.24 0 00.24.2h.06a.25.25 0 00.19-.3.26.26 0 00-.3-.19.25.25 0 00-.19.29zM239.49 130.39a.25.25 0 00.25.21.25.25 0 00.21-.28.25.25 0 00-.29-.21.25.25 0 00-.17.28zM281.87 54.63a.16.16 0 00.1 0 .24.24 0 00.13-.33.26.26 0 00-.33-.13.27.27 0 00-.13.33.25.25 0 00.23.13zM245.36 129.18a.25.25 0 00.24.18h.07a.24.24 0 00.17-.3.25.25 0 10-.48.12zM281.72 97.29a.26.26 0 00.13.33h.1a.25.25 0 00.23-.16.25.25 0 00-.13-.32.24.24 0 00-.33.15zM247.28 128.64a.25.25 0 00.24.18h.07a.25.25 0 00.17-.32.25.25 0 00-.48.14zM252.9 126.59a.26.26 0 00.23.15h.1a.26.26 0 00.13-.33.24.24 0 00-.33-.13.26.26 0 00-.13.31zM280 100.89a.26.26 0 00.11.34.25.25 0 00.12 0 .23.23 0 00.22-.13.25.25 0 10-.45-.21zM285.9 69.53a.25.25 0 00-.22.28.24.24 0 00.24.22.26.26 0 00.23-.28.25.25 0 00-.25-.22zM285.29 65.58a.25.25 0 00-.2.29.25.25 0 00.25.21.25.25 0 00-.05-.5zM279.09 102.66a.25.25 0 00.09.34.27.27 0 00.12 0 .26.26 0 00.22-.13.24.24 0 00-.1-.34.25.25 0 00-.33.13zM283.74 91.66a.24.24 0 00.17.31h.09a.25.25 0 00.24-.18.25.25 0 00-.24-.29.24.24 0 00-.26.16zM278.09 104.38a.25.25 0 00.09.34.19.19 0 00.12 0 .25.25 0 00.14-.46.25.25 0 00-.35.12zM283.14 93.56a.25.25 0 00.15.32h.08a.25.25 0 00.08-.48.23.23 0 00-.31.16zM284.4 61.68a.25.25 0 00-.18.31.25.25 0 00.24.18h.06a.24.24 0 00.18-.3.25.25 0 00-.3-.19zM277 106.06a.25.25 0 00.07.35.23.23 0 00.14 0 .26.26 0 00.21-.11.26.26 0 00-.08-.35.25.25 0 00-.34.11zM275.9 107.7a.25.25 0 00.06.35.22.22 0 00.15 0 .26.26 0 00.2-.11.24.24 0 00-.06-.34.25.25 0 00-.35.1zM285.7 84.18a.26.26 0 00.3-.18.27.27 0 00-.22-.29.25.25 0 00-.28.21.25.25 0 00.21.29zM274.72 109.31a.25.25 0 000 .35.27.27 0 00.15 0 .28.28 0 00.2-.1.25.25 0 00-.35-.25zM254.72 125.77a.24.24 0 00.23.14h.1a.25.25 0 00.12-.34.25.25 0 00-.33-.11.24.24 0 00-.12.31zM256.61 124.55a.25.25 0 00-.11.33.26.26 0 00.23.14.2.2 0 00.11 0 .25.25 0 10-.23-.47zM283.22 57.87a.25.25 0 00.09.49h.08a.25.25 0 00-.17-.49zM286.27 75.51a.25.25 0 00-.25.25.21.21 0 010 .22.25.25 0 00.5 0 .32.32 0 010-.22.25.25 0 00-.25-.25zM269.44 115.25a.25.25 0 00.17.43.26.26 0 00.17-.07.25.25 0 000-.36.24.24 0 00-.34 0zM231.53 131a.25.25 0 00.25.25.26.26 0 00.22-.25.24.24 0 00-.25-.24.25.25 0 00-.22.24zM268 116.61a.24.24 0 000 .35.22.22 0 00.18.08.27.27 0 00.17-.06.25.25 0 000-.35.24.24 0 00-.35-.02zM266.49 117.91a.24.24 0 000 .35.24.24 0 00.35 0 .25.25 0 00-.35-.35zM233.53 131a.24.24 0 00.25.24.25.25 0 10-.25-.24zM270.84 113.84a.23.23 0 000 .35.21.21 0 00.17.07.27.27 0 00.18-.08.25.25 0 000-.35.24.24 0 00-.35.01zM278.22 47.55a.2.2 0 00.13 0 .24.24 0 00.08-.34.25.25 0 00-.42.26.23.23 0 00.21.08zM264.94 119.16a.26.26 0 000 .35.25.25 0 00.2.09.21.21 0 00.15-.05.25.25 0 00-.35-.39zM284.88 63.63a.25.25 0 000 .49h.12a.25.25 0 00-.12-.49zM280.18 51a.23.23 0 00.11 0 .26.26 0 00.11-.34.25.25 0 10-.45.23.27.27 0 00.23.11zM279.23 49.27a.27.27 0 00.12 0 .25.25 0 00.1-.34.25.25 0 00-.44.24.24.24 0 00.22.1zM286.09 71.52a.25.25 0 000 .5.25.25 0 000-.5zM272.19 112.37a.25.25 0 000 .36.23.23 0 00.16.06.25.25 0 00.19-.09.25.25 0 10-.35-.33zM285.63 67.55a.25.25 0 000 .5.25.25 0 000-.5zM237.51 130.66a.26.26 0 00.25.22.25.25 0 10-.06-.49.24.24 0 00-.19.27zM286.22 73.51a.25.25 0 00-.24.26.24.24 0 00.24.24.25.25 0 00.24-.25.27.27 0 00-.24-.25zM263.36 120.36a.25.25 0 00-.06.35.26.26 0 00.2.11.24.24 0 00.15-.05.25.25 0 10-.29-.41zM273.48 110.86a.25.25 0 000 .35.25.25 0 00.32-.38.25.25 0 00-.32.03zM258.35 123.59a.25.25 0 00-.09.34.26.26 0 00.22.13.27.27 0 00.12 0 .25.25 0 00.09-.34.26.26 0 00-.34-.13zM286.2 82a.26.26 0 00-.2-.3.24.24 0 00-.28.22.26.26 0 00.22.28.27.27 0 00.26-.2zM280.91 99.11a.24.24 0 00.12.33.2.2 0 00.11 0 .25.25 0 00.22-.15.24.24 0 00-.12-.33.25.25 0 00-.33.15zM281.06 52.82h.11a.26.26 0 00.12-.33.24.24 0 00-.33-.12.25.25 0 00.1.45zM260.06 122.58a.25.25 0 00.13.46.2.2 0 00.13 0 .24.24 0 00.08-.34.24.24 0 00-.34-.12zM261.73 121.5a.25.25 0 00-.07.35.26.26 0 00.21.11.25.25 0 00.14 0 .27.27 0 00.07-.35.25.25 0 00-.35-.11zM286.48 78a.25.25 0 00-.24-.26.25.25 0 100 .5.24.24 0 00.24-.24zM235.52 130.86a.24.24 0 00.25.22.25.25 0 00.23-.27.26.26 0 00-.27-.23.26.26 0 00-.21.28zM286.38 80a.26.26 0 00-.24-.27.24.24 0 00-.26.23.25.25 0 00.23.27.26.26 0 00.27-.23z" transform="translate(-171.44 -16.13)"/><path class="cls-5" d="M242.48 77.6a11.25 11.25 0 11-22.5 0h-1.5a12.75 12.75 0 1025.5 0h-1.5z" transform="translate(-171.44 -16.13)"/><path class="cls-5" d="M221.67 77.61a9.56 9.56 0 0019.12 0h-.25a9.31 9.31 0 01-18.62 0h-.25z" transform="translate(-171.44 -16.13)"/><circle class="cls-5" cx="59.78" cy="49.47" r=".59"/><circle class="cls-5" cx="59.78" cy="46.37" r=".29"/><circle class="cls-5" cx="235.15" cy="63.02" r=".29" transform="rotate(-75.01 138.926 166.644)"/><circle class="cls-5" cx="238.81" cy="64.53" r=".29" transform="rotate(-59.98 139.116 204.996)"/><circle class="cls-5" cx="241.95" cy="66.94" r=".29" transform="rotate(-44.97 136.75 265.973)"/><circle class="cls-5" cx="244.36" cy="70.08" r=".29" transform="rotate(-30.02 128.548 381.718)"/><circle class="cls-5" cx="245.87" cy="73.74" r=".29" transform="rotate(-15.05 99.084 714.616)"/><circle class="cls-5" cx="74.95" cy="61.53" r=".29"/><circle class="cls-5" cx="245.87" cy="81.59" r=".29" transform="rotate(-74.97 149.65 185.29)"/><circle class="cls-5" cx="244.36" cy="85.25" r=".29" transform="rotate(-59.98 144.665 225.719)"/><circle class="cls-5" cx="241.95" cy="88.39" r=".29" transform="rotate(-44.99 136.766 287.32)"/><circle class="cls-5" cx="238.81" cy="90.8" r=".29" transform="rotate(-29.96 122.944 403.084)"/><circle class="cls-5" cx="235.15" cy="92.31" r=".29" transform="rotate(-15.05 88.313 733.181)"/><circle class="cls-5" cx="59.78" cy="76.69" r=".29"/><circle class="cls-5" cx="227.3" cy="92.31" r=".29" transform="rotate(-75.01 131.072 195.938)"/><circle class="cls-5" cx="223.65" cy="90.8" r=".29" transform="matrix(.5 -.87 .87 .5 -138.24 222.97)"/><circle class="cls-5" cx="220.5" cy="88.39" r=".29" transform="rotate(-45 115.313 287.276)"/><circle class="cls-5" cx="218.1" cy="85.25" r=".29" transform="rotate(-30 102.295 397.11)"/><circle class="cls-5" cx="216.58" cy="81.59" r=".29" transform="rotate(-15.03 69.626 723.309)"/><circle class="cls-5" cx="44.62" cy="61.53" r=".29"/><circle class="cls-5" cx="216.58" cy="73.74" r=".29" transform="rotate(-74.97 120.357 177.446)"/><circle class="cls-5" cx="218.1" cy="70.08" r=".29" transform="rotate(-60 118.393 210.498)"/><circle class="cls-5" cx="220.5" cy="66.94" r=".29" transform="rotate(-44.97 115.268 265.981)"/><circle class="cls-5" cx="223.65" cy="64.53" r=".29" transform="rotate(-30 107.85 376.378)"/><circle class="cls-5" cx="227.3" cy="63.02" r=".29" transform="rotate(-15.04 80.44 704.317)"/><circle class="cls-5" cx="234.35" cy="66.01" r=".59" transform="rotate(-75.01 138.12 169.637)"/><circle class="cls-5" cx="237.26" cy="67.22" r=".59" transform="rotate(-60.03 137.558 207.542)"/><circle class="cls-5" cx="239.76" cy="69.13" r=".59" transform="rotate(-45 134.564 268.012)"/><circle class="cls-5" cx="241.67" cy="71.63" r=".59" transform="rotate(-29.99 125.804 383.583)"/><circle class="cls-5" cx="242.88" cy="74.54" r=".59" transform="rotate(-15.04 96.103 715.864)"/><circle class="cls-5" cx="219.57" cy="74.54" r=".59" transform="rotate(-75 123.353 178.189)"/><circle class="cls-5" cx="220.78" cy="71.63" r=".59" transform="rotate(-60.01 121.1 212.003)"/><circle class="cls-5" cx="222.7" cy="69.13" r=".59" transform="rotate(-45 117.506 268.017)"/><circle class="cls-5" cx="225.19" cy="67.22" r=".59" transform="rotate(-29.99 109.34 379.173)"/><circle class="cls-5" cx="228.1" cy="66.01" r=".59" transform="rotate(-15.02 81.167 708.195)"/><path class="cls-5" d="M233.25 37.58a2 2 0 00-1.77-2h-.5a2 2 0 000 4h.5a2 2 0 001.77-2z" transform="translate(-171.44 -16.13)"/><circle class="cls-5" cx="64.74" cy="17.24" r=".02"/><circle class="cls-5" cx="69.62" cy="18.1" r=".04"/><circle class="cls-5" cx="74.38" cy="19.52" r=".06"/><circle class="cls-5" cx="78.93" cy="21.48" r=".09"/><circle class="cls-5" cx="83.22" cy="23.97" r=".11"/><circle class="cls-5" cx="87.2" cy="26.93" r=".13"/><circle class="cls-5" cx="90.8" cy="30.33" r=".15"/><circle class="cls-5" cx="93.99" cy="34.13" r=".2"/><circle class="cls-5" cx="96.72" cy="38.26" r=".25"/><circle class="cls-5" cx="98.95" cy="42.69" r=".31"/><circle class="cls-5" cx="100.65" cy="47.35" r=".36"/><circle class="cls-5" cx="101.79" cy="52.17" r=".42"/><circle class="cls-5" cx="102.37" cy="57.1" r=".47"/><circle class="cls-5" cx="102.37" cy="62.06" r=".53"/><circle class="cls-5" cx="101.8" cy="66.99" r=".58"/><circle class="cls-5" cx="100.67" cy="71.82" r=".63"/><circle class="cls-5" cx="98.97" cy="76.48" r=".69"/><circle class="cls-5" cx="96.75" cy="80.91" r=".74"/><circle class="cls-5" cx="94.02" cy="85.06" r=".8"/><circle class="cls-5" cx="90.84" cy="88.86" r=".85"/><circle class="cls-5" cx="87.24" cy="92.26" r=".87"/><circle class="cls-5" cx="83.26" cy="95.23" r=".89"/><circle class="cls-5" cx="78.98" cy="97.72" r=".91"/><circle class="cls-5" cx="74.43" cy="99.69" r=".93"/><circle class="cls-5" cx="69.68" cy="101.11" r=".96"/><circle class="cls-5" cx="64.8" cy="101.98" r=".98"/><path class="cls-5" d="M230.29 118.4a1 1 0 001 1 .93.93 0 00.19 0 1 1 0 000-1.92.93.93 0 00-.19 0 1 1 0 00-1 .92z" transform="translate(-171.44 -16.13)"/><circle class="cls-5" cx="54.89" cy="101.99" r=".98"/><circle class="cls-5" cx="50" cy="101.14" r=".96"/><circle class="cls-5" cx="45.25" cy="99.73" r=".94"/><circle class="cls-5" cx="40.69" cy="97.77" r=".92"/><circle class="cls-5" cx="36.4" cy="95.29" r=".89"/><circle class="cls-5" cx="32.42" cy="92.33" r=".87"/><circle class="cls-5" cx="28.81" cy="88.94" r=".85"/><circle class="cls-5" cx="25.61" cy="85.15" r=".81"/><circle class="cls-5" cx="22.88" cy="81.01" r=".75"/><circle class="cls-5" cx="20.64" cy="76.59" r=".7"/><circle class="cls-5" cx="18.93" cy="71.93" r=".64"/><circle class="cls-5" cx="17.79" cy="67.11" r=".59"/><circle class="cls-5" cx="17.2" cy="62.18" r=".53"/><circle class="cls-5" cx="17.19" cy="57.22" r=".47"/><circle class="cls-5" cx="17.75" cy="52.29" r=".42"/><circle class="cls-5" cx="18.88" cy="47.46" r=".36"/><circle class="cls-5" cx="20.57" cy="42.8" r=".31"/><circle class="cls-5" cx="22.79" cy="38.36" r=".25"/><circle class="cls-5" cx="25.51" cy="34.22" r=".2"/><circle class="cls-5" cx="28.69" cy="30.41" r=".15"/><circle class="cls-5" cx="32.29" cy="27" r=".13"/><circle class="cls-5" cx="36.25" cy="24.03" r=".11"/><circle class="cls-5" cx="40.54" cy="21.54" r=".09"/><circle class="cls-5" cx="45.08" cy="19.56" r=".06"/><circle class="cls-5" cx="49.83" cy="18.12" r=".04"/><circle class="cls-5" cx="54.71" cy="17.25" r=".02"/><path class="cls-5" d="M264.85 109.47l-.35-.35a46.73 46.73 0 01-33 13.77h-.5a46.73 46.73 0 01-33-13.77l-.35.35-1.41 1.41-.35.35A49.71 49.71 0 00231 125.89h.5a49.71 49.71 0 0035.14-14.65l-.35-.35zM197.6 42.23l.4.35a46.74 46.74 0 0133-13.77h.5a46.73 46.73 0 0133 13.77l1.06-1.06.71-.71.35-.35a50 50 0 00-70.77 0l.35.35z" transform="translate(-171.44 -16.13)"/><path class="cls-6" d="M231.23 91.8a14.14 14.14 0 10-14.14-14.14 14.15 14.15 0 0014.14 14.14zm0-27.27a13.14 13.14 0 11-13.14 13.14 13.15 13.15 0 0113.14-13.14z" transform="translate(-171.44 -16.13)"/><path class="cls-6" d="M282.77 45.87a59.5 59.5 0 108.1 30 59.73 59.73 0 00-8.1-30zm-51.29 88.68v-8.66H231v8.67a59.11 59.11 0 11.48-.01z" transform="translate(-171.44 -16.13)"/><path class="cls-6" d="M266.25 40.81l-.71.71-.71.71a47.55 47.55 0 010 67.25l1.41 1.41a49.55 49.55 0 00.01-70.08zM197.6 42.23l-1.41-1.41a49.55 49.55 0 000 70.07l1.41-1.41a47.55 47.55 0 010-67.25zM231 119.34v3.55h.5v-3.53a.93.93 0 01-.19 0 1 1 0 01-.31-.02zM231.48 35.57v-6.76H231v6.77h.25z" transform="translate(-171.44 -16.13)"/><path class="cls-6" d="M267.79 75.85a.25.25 0 00-.27-.23.25.25 0 00-.23.27c.06.85.09 1.71.09 2.56a36 36 0 01-9.2 24.07L253 97.37a29.73 29.73 0 005-7.57.25.25 0 00.07-.18 29.38 29.38 0 002.13-6.68 5.45 5.45 0 00.1-10.79V59.76a.23.23 0 000-.24l-6.47-6.32-2.4-2.4a1.31 1.31 0 00.24-.72 1.34 1.34 0 10-1.34 1.34 1.31 1.31 0 00.75-.26l2.23 2.23-2.41 2.41h-15.8a25.13 25.13 0 01-3.62-11.94v-4.28h-.5v4.25a25.13 25.13 0 01-3.62 11.94h-15.93L209.69 54l2.9-2.9a1.31 1.31 0 00.75.26A1.34 1.34 0 10212 50a1.31 1.31 0 00.24.72l-3.08 3.08L202 61a.23.23 0 00-.06.22v10.85a5.45 5.45 0 00.1 10.84 29.52 29.52 0 002.06 6.59.24.24 0 00.06.21 29.63 29.63 0 005.08 7.67l-5.07 5.07a36 36 0 01-9.16-24c0-.86 0-1.73.09-2.58a.25.25 0 00-.23-.27.26.26 0 00-.27.23c-.06.87-.09 1.75-.09 2.62A36.72 36.72 0 00231 115.12v2.34a1 1 0 01.31-.06.93.93 0 01.19 0v-2.32a36.72 36.72 0 0036.41-36.68c-.03-.82-.06-1.7-.12-2.55zm-17.48-25a.84.84 0 11.84-.84.84.84 0 01-.84.87zm-37-1.69a.84.84 0 11-.84.84.84.84 0 01.87-.81zM245.14 103l-7-7h13.13V83.31l6.35 6.35A29.29 29.29 0 01245.14 103zm-11.24-1.44a38.72 38.72 0 013.25-5.6h.24l7.3 7.3a29 29 0 01-8 2.8 5.45 5.45 0 00-2.79-4.53zm-8.12 4.44a29 29 0 01-8.14-2.8l7.36-7.27h.33a38.63 38.63 0 013.25 5.6 5.45 5.45 0 00-2.8 4.47zM207.5 75.21a37.46 37.46 0 003.57-1.94v8.44a37.46 37.46 0 00-3.57-1.94 5.39 5.39 0 000-4.56zm4.57-18.09l8.11 8.11-.6.62a49.19 49.19 0 01-7.51 6.15V57.12zm7.86 9.08a48.14 48.14 0 007.41-9.44h7.75a48.15 48.15 0 007.41 9.44 49.54 49.54 0 007.72 6.34v9.89a49.53 49.53 0 00-7.72 6.34 50.73 50.73 0 00-5.26 6.15H225.2a50.78 50.78 0 00-5.26-6.15 49.43 49.43 0 00-7.86-6.43v-9.71a49.42 49.42 0 007.86-6.43zm34.72 13.7a37.86 37.86 0 00-3.42 1.89v-8.61a37.88 37.88 0 003.46 1.91 5.39 5.39 0 00-.03 4.81zm-23.44 20.92a5.42 5.42 0 00-2.24.48 38.86 38.86 0 00-3.09-5.38h10.65a38.86 38.86 0 00-3.09 5.38 5.42 5.42 0 00-2.21-.48zm1.82 1.4a25.76 25.76 0 00-1.82 6 25.76 25.76 0 00-1.82-6 4.36 4.36 0 013.61 0zm17.19-7.65l-6.39-6.39a48.6 48.6 0 016.41-5.18v11.57zm-6.75-6l6.4 6.4h-12a50.47 50.47 0 015-5.8zm6.75-16.59a49.33 49.33 0 01-7.37-6.1l-.68-.71h.05l8-8v14.77zm-38.16 11a48.42 48.42 0 016.46 5.17l-6.46 6.46V82.94zm6.82 5.52l.69.67a50.51 50.51 0 015 5.8h-12.14zm10.07 14a22.74 22.74 0 012 8.24 4.43 4.43 0 01-1.95-8.28zm4.53 0a4.43 4.43 0 01-2 8.24 22.74 22.74 0 012.01-8.28zm24.33-13.28l-6.58-6.58v-.27a37.45 37.45 0 013.67-2 5.45 5.45 0 004.67 2.63h.19a29 29 0 01-1.94 6.18zm-2.7-11.65a4.4 4.4 0 01.5-2 26.15 26.15 0 006.33 2 26.15 26.15 0 00-6.37 2 4.4 4.4 0 01-.46-2.04zm4.46 4.43a4.45 4.45 0 01-3.75-2.07 23.54 23.54 0 018.18-2.16 4.45 4.45 0 01-4.43 4.23zm4.43-4.8a23.5 23.5 0 01-8.13-2.13A4.44 4.44 0 01264 77.2zm-10.35-23.5l.5.5 5.69 5.56v12.33h-.31a5.45 5.45 0 00-4.62 2.57 37.33 37.33 0 01-3.71-2.05V56.12zm-3.77 3.06l-8 8a47.09 47.09 0 01-6.18-8h14.2zm-18.66-10a28.58 28.58 0 003.3 9h-6.61a28.56 28.56 0 003.32-9zm-4.46 10a47.1 47.1 0 01-6.24 8.1l-8.1-8.1h14.34zm-17.44-2.39l1.74 1.74v16.57a37.1 37.1 0 01-3.8 2.08 5.45 5.45 0 00-4.71-2.76h-.15V61.3zM207 77.49a4.4 4.4 0 01-.42 1.86 25.88 25.88 0 00-6.09-1.86 25.88 25.88 0 006.09-1.86 4.41 4.41 0 01.42 1.86zM202.55 73a4.44 4.44 0 013.79 2.15 22.94 22.94 0 01-8.22 2 4.45 4.45 0 014.43-4.15zm-4.43 4.73a22.93 22.93 0 018.22 2 4.43 4.43 0 01-8.22-1.97zm4.39 5.18a5.45 5.45 0 004.72-2.73 37.08 37.08 0 013.8 2.08v.14l-6.67 6.67a29 29 0 01-1.85-6.13zm2.12 6.61l6.44-6.44v12.85h13.18l-7.06 7.07a29.2 29.2 0 01-12.56-13.45zm-.13 13.3l5.08-5.08a29.58 29.58 0 0016.19 8.8 5.45 5.45 0 005.19 5.16v2.9a36.09 36.09 0 01-26.45-11.75zm27 11.78v-2.9a5.45 5.45 0 005.19-5.19 29.6 29.6 0 0016-8.79l5.15 5.15a36.09 36.09 0 01-26.36 11.75z" transform="translate(-171.44 -16.13)"/></svg>