<svg preserveAspectRatio="none" id="Layer_1" data-name="Layer 1" xmlns="http://www.w3.org/2000/svg" xmlns:xlink="http://www.w3.org/1999/xlink" viewBox="0 0 108.67 108.67"><defs><style>.cls-1{fill:#2e2855;}.cls-2{fill:url(#linear-gradient);}.cls-3{fill:#e9aa4f;}.cls-4{fill:#3ee497;}.cls-5{fill:#d13954;}</style><linearGradient id="linear-gradient" x1="37.25" y1="239.99" x2="142.74" y2="239.99" gradientUnits="userSpaceOnUse"><stop offset="0" stop-color="#334f7e"/><stop offset="0.99" stop-color="#5d85c4"/></linearGradient></defs><title>circle5</title><path class="cls-1" d="M90,294.33A54.33,54.33,0,1,1,144.33,240,54.4,54.4,0,0,1,90,294.33Zm0-100.67A46.33,46.33,0,1,0,136.33,240,46.39,46.39,0,0,0,90,193.67Z" transform="translate(-35.67 -185.67)"/><path class="cls-2" d="M90,292.74a52.67,52.67,0,0,1-34.27-12.53L59,276.4a48.1,48.1,0,0,0,62.24-.17l3.27,3.79A52.7,52.7,0,0,1,90,292.74ZM50,274.55a53.1,53.1,0,0,1-.18-68.9l3.8,3.25a48.07,48.07,0,0,0,.16,62.38Zm80.07-.15-3.79-3.26a48.1,48.1,0,0,0,0-62.25l3.79-3.26A53.13,53.13,0,0,1,130.1,274.4Zm-71.4-70.58L55.43,200a53.09,53.09,0,0,1,68.93-.18l-3.26,3.79A48.06,48.06,0,0,0,58.71,203.81Z" transform="translate(-35.67 -185.67)"/><path class="cls-3" d="M99.53,275.06l-1.05-3.86a32.34,32.34,0,0,0-.14-62.45l1-3.86A36.34,36.34,0,0,1,99.53,275.06Z" transform="translate(-35.67 -185.67)"/><path class="cls-4" d="M80.9,274.15a35.34,35.34,0,0,1,0-68.29l0.52,1.93a33.34,33.34,0,0,0,0,64.43Z" transform="translate(-35.67 -185.67)"/><path class="cls-5" d="M90,270.83a30.87,30.87,0,0,1-29.81-23L65,246.6a25.84,25.84,0,0,0,50-.08l4.84,1.26A30.85,30.85,0,0,1,90,270.83Z" transform="translate(-35.67 -185.67)"/><path class="cls-4" d="M63.63,232.81l-1.93-.53a29.34,29.34,0,0,1,56.6,0l-1.93.53A27.34,27.34,0,0,0,63.63,232.81Z" transform="translate(-35.67 -185.67)"/></svg>