<svg preserveAspectRatio="none" id="Layer_1" data-name="Layer 1" xmlns="http://www.w3.org/2000/svg" viewBox="0 0 69.62 69.61"><defs><style>.cls-1{fill:#00b3ea;}.cls-2{fill:#08ade5;}.cls-3{fill:#065977;}.cls-4{fill:#feb113;}</style></defs><title>circle39</title><rect class="cls-1" x="12.46" y="34.4" width="0.27" height="0.8"/><rect class="cls-1" x="13.05" y="34.4" width="0.27" height="0.8"/><rect class="cls-1" x="13.65" y="34.4" width="0.27" height="0.8"/><rect class="cls-1" x="14.25" y="34.4" width="0.27" height="0.8"/><rect class="cls-1" x="14.84" y="34.4" width="0.27" height="0.8"/><rect class="cls-1" x="15.44" y="34.4" width="0.27" height="0.8"/><rect class="cls-1" x="16.03" y="34.4" width="0.27" height="0.8"/><rect class="cls-1" x="16.63" y="34.4" width="0.27" height="0.8"/><rect class="cls-1" x="17.23" y="34.4" width="0.27" height="0.8"/><rect class="cls-1" x="17.82" y="34.4" width="0.27" height="0.8"/><rect class="cls-1" x="18.42" y="34.4" width="0.27" height="0.8"/><rect class="cls-1" x="19.01" y="34.4" width="0.27" height="0.8"/><rect class="cls-1" x="19.61" y="34.4" width="0.27" height="0.8"/><rect class="cls-1" x="20.21" y="34.4" width="0.27" height="0.8"/><rect class="cls-1" x="20.8" y="34.4" width="0.27" height="0.8"/><rect class="cls-1" x="21.4" y="34.4" width="0.27" height="0.8"/><rect class="cls-1" x="22" y="34.4" width="0.27" height="0.8"/><rect class="cls-1" x="22.59" y="34.4" width="0.27" height="0.8"/><rect class="cls-1" x="23.19" y="34.4" width="0.27" height="0.8"/><rect class="cls-1" x="23.78" y="34.4" width="0.27" height="0.8"/><rect class="cls-1" x="24.38" y="34.4" width="0.27" height="0.8"/><rect class="cls-1" x="24.98" y="34.4" width="0.27" height="0.8"/><rect class="cls-1" x="25.57" y="34.4" width="0.27" height="0.8"/><rect class="cls-1" x="26.17" y="34.4" width="0.27" height="0.8"/><rect class="cls-1" x="26.76" y="34.4" width="0.27" height="0.8"/><rect class="cls-1" x="27.36" y="34.4" width="0.27" height="0.8"/><rect class="cls-1" x="27.96" y="34.4" width="0.27" height="0.8"/><rect class="cls-1" x="28.55" y="34.4" width="0.27" height="0.8"/><rect class="cls-1" x="29.15" y="34.4" width="0.27" height="0.8"/><rect class="cls-1" x="29.74" y="34.4" width="0.27" height="0.8"/><rect class="cls-1" x="30.34" y="34.4" width="0.27" height="0.8"/><rect class="cls-1" x="38.76" y="34.4" width="0.27" height="0.8"/><rect class="cls-1" x="39.36" y="34.4" width="0.27" height="0.8"/><rect class="cls-1" x="39.95" y="34.4" width="0.27" height="0.8"/><rect class="cls-1" x="40.55" y="34.4" width="0.27" height="0.8"/><rect class="cls-1" x="41.15" y="34.4" width="0.27" height="0.8"/><rect class="cls-1" x="41.74" y="34.4" width="0.27" height="0.8"/><rect class="cls-1" x="42.34" y="34.4" width="0.27" height="0.8"/><rect class="cls-1" x="42.93" y="34.4" width="0.27" height="0.8"/><rect class="cls-1" x="43.53" y="34.4" width="0.27" height="0.8"/><rect class="cls-1" x="44.13" y="34.4" width="0.27" height="0.8"/><rect class="cls-1" x="44.72" y="34.4" width="0.27" height="0.8"/><rect class="cls-1" x="45.32" y="34.4" width="0.27" height="0.8"/><rect class="cls-1" x="45.91" y="34.4" width="0.27" height="0.8"/><rect class="cls-1" x="46.51" y="34.4" width="0.27" height="0.8"/><rect class="cls-1" x="47.11" y="34.4" width="0.27" height="0.8"/><rect class="cls-1" x="47.7" y="34.4" width="0.27" height="0.8"/><rect class="cls-1" x="48.3" y="34.4" width="0.27" height="0.8"/><rect class="cls-1" x="48.89" y="34.4" width="0.27" height="0.8"/><rect class="cls-1" x="49.49" y="34.4" width="0.27" height="0.8"/><rect class="cls-1" x="50.09" y="34.4" width="0.27" height="0.8"/><rect class="cls-1" x="50.68" y="34.4" width="0.27" height="0.8"/><rect class="cls-1" x="51.28" y="34.4" width="0.27" height="0.8"/><rect class="cls-1" x="51.87" y="34.4" width="0.27" height="0.8"/><rect class="cls-1" x="52.47" y="34.4" width="0.27" height="0.8"/><rect class="cls-1" x="53.07" y="34.4" width="0.27" height="0.8"/><rect class="cls-1" x="53.66" y="34.4" width="0.27" height="0.8"/><rect class="cls-1" x="54.26" y="34.4" width="0.27" height="0.8"/><rect class="cls-1" x="54.85" y="34.4" width="0.27" height="0.8"/><rect class="cls-1" x="55.45" y="34.4" width="0.27" height="0.8"/><rect class="cls-1" x="56.05" y="34.4" width="0.27" height="0.8"/><rect class="cls-1" x="56.64" y="34.4" width="0.27" height="0.8"/><rect class="cls-1" x="34.52" y="56.76" width="0.8" height="0.27"/><rect class="cls-1" x="34.52" y="56.17" width="0.8" height="0.27"/><rect class="cls-1" x="34.52" y="55.57" width="0.8" height="0.27"/><rect class="cls-1" x="34.52" y="54.98" width="0.8" height="0.27"/><rect class="cls-1" x="34.52" y="54.38" width="0.8" height="0.27"/><rect class="cls-1" x="34.52" y="53.78" width="0.8" height="0.27"/><rect class="cls-1" x="34.52" y="53.19" width="0.8" height="0.27"/><rect class="cls-1" x="34.52" y="52.59" width="0.8" height="0.27"/><rect class="cls-1" x="34.52" y="52" width="0.8" height="0.27"/><rect class="cls-1" x="34.52" y="51.4" width="0.8" height="0.27"/><rect class="cls-1" x="34.52" y="50.8" width="0.8" height="0.27"/><rect class="cls-1" x="34.52" y="50.21" width="0.8" height="0.27"/><rect class="cls-1" x="34.52" y="49.61" width="0.8" height="0.27"/><rect class="cls-1" x="34.52" y="49.02" width="0.8" height="0.27"/><rect class="cls-1" x="34.52" y="48.42" width="0.8" height="0.27"/><rect class="cls-1" x="34.52" y="47.82" width="0.8" height="0.27"/><rect class="cls-1" x="34.52" y="47.23" width="0.8" height="0.27"/><rect class="cls-1" x="34.52" y="46.63" width="0.8" height="0.27"/><rect class="cls-1" x="34.52" y="46.03" width="0.8" height="0.27"/><rect class="cls-1" x="34.52" y="45.44" width="0.8" height="0.27"/><rect class="cls-1" x="34.52" y="44.84" width="0.8" height="0.27"/><rect class="cls-1" x="34.52" y="44.25" width="0.8" height="0.27"/><rect class="cls-1" x="34.52" y="43.65" width="0.8" height="0.27"/><rect class="cls-1" x="34.52" y="43.05" width="0.8" height="0.27"/><rect class="cls-1" x="34.52" y="42.46" width="0.8" height="0.27"/><rect class="cls-1" x="34.52" y="41.86" width="0.8" height="0.27"/><rect class="cls-1" x="34.52" y="41.27" width="0.8" height="0.27"/><rect class="cls-1" x="34.52" y="40.67" width="0.8" height="0.27"/><rect class="cls-1" x="34.52" y="40.07" width="0.8" height="0.27"/><rect class="cls-1" x="34.52" y="39.48" width="0.8" height="0.27"/><rect class="cls-1" x="34.52" y="38.88" width="0.8" height="0.27"/><rect class="cls-1" x="34.52" y="30.46" width="0.8" height="0.27"/><rect class="cls-1" x="34.52" y="29.87" width="0.8" height="0.27"/><rect class="cls-1" x="34.52" y="29.27" width="0.8" height="0.27"/><rect class="cls-1" x="34.52" y="28.67" width="0.8" height="0.27"/><rect class="cls-1" x="34.52" y="28.08" width="0.8" height="0.27"/><rect class="cls-1" x="34.52" y="27.48" width="0.8" height="0.27"/><rect class="cls-1" x="34.52" y="26.88" width="0.8" height="0.27"/><rect class="cls-1" x="34.52" y="26.29" width="0.8" height="0.27"/><rect class="cls-1" x="34.52" y="25.69" width="0.8" height="0.27"/><rect class="cls-1" x="34.52" y="25.1" width="0.8" height="0.27"/><rect class="cls-1" x="34.52" y="24.5" width="0.8" height="0.27"/><rect class="cls-1" x="34.52" y="23.9" width="0.8" height="0.27"/><rect class="cls-1" x="34.52" y="23.31" width="0.8" height="0.27"/><rect class="cls-1" x="34.52" y="22.71" width="0.8" height="0.27"/><rect class="cls-1" x="34.52" y="22.12" width="0.8" height="0.27"/><rect class="cls-1" x="34.52" y="21.52" width="0.8" height="0.27"/><rect class="cls-1" x="34.52" y="20.92" width="0.8" height="0.27"/><rect class="cls-1" x="34.52" y="20.33" width="0.8" height="0.27"/><rect class="cls-1" x="34.52" y="19.73" width="0.8" height="0.27"/><rect class="cls-1" x="34.52" y="19.14" width="0.8" height="0.27"/><rect class="cls-1" x="34.52" y="18.54" width="0.8" height="0.27"/><rect class="cls-1" x="34.52" y="17.94" width="0.8" height="0.27"/><rect class="cls-1" x="34.52" y="17.35" width="0.8" height="0.27"/><rect class="cls-1" x="34.52" y="16.75" width="0.8" height="0.27"/><rect class="cls-1" x="34.52" y="16.16" width="0.8" height="0.27"/><rect class="cls-1" x="34.52" y="15.56" width="0.8" height="0.27"/><rect class="cls-1" x="34.52" y="14.96" width="0.8" height="0.27"/><rect class="cls-1" x="34.52" y="14.37" width="0.8" height="0.27"/><rect class="cls-1" x="34.52" y="13.77" width="0.8" height="0.27"/><rect class="cls-1" x="34.52" y="13.18" width="0.8" height="0.27"/><rect class="cls-1" x="34.52" y="12.58" width="0.8" height="0.27"/><path class="cls-2" d="M278,240.5s0.39-.11,1-0.23l1-.18,1.15-.14c0.38,0,.78-0.06,1.13-0.07l0.51,0h0.46l0.93,0s0-.36,0-0.93c0-.14,0-0.3,0-0.46l0-.51c0-.35,0-0.75.07-1.13s0.09-.78.14-1.15,0.12-.71.18-1c0.12-.6.23-1,0.23-1l0.49-.31c0.15-.1.35-0.21,0.57-0.34s0.47-.28.76-0.42a23,23,0,0,1,4.31-1.77,23.78,23.78,0,0,1,4.57-.87l0.86-.07,0.67,0h1.16l0.67,0,0.86,0.07a23.78,23.78,0,0,1,4.57.87,23,23,0,0,1,4.31,1.77c0.28,0.14.53,0.3,0.76,0.42s0.42,0.24.57,0.34l0.49,0.31s0.11,0.39.23,1c0.06,0.3.13,0.64,0.18,1s0.1,0.76.14,1.15,0.06,0.78.07,1.13l0,0.51c0,0.16,0,.32,0,0.46,0,0.57,0,.93,0,0.93l0.93,0h0.46l0.51,0c0.35,0,.75,0,1.13.07l1.15,0.14,1,0.18c0.6,0.12,1,.23,1,0.23l0.31,0.49c0.1,0.15.21,0.35,0.34,0.57s0.28,0.47.42,0.76a22.94,22.94,0,0,1,1.77,4.31,23.78,23.78,0,0,1,.87,4.57l0.06,0.86,0,0.67v1.16l0,0.67-0.06.86a23.78,23.78,0,0,1-.87,4.57,23,23,0,0,1-1.77,4.31c-0.14.28-.3,0.53-0.42,0.76s-0.24.42-.34,0.57l-0.31.49s-0.39.11-1,.23l-1,.18-1.15.14c-0.38,0-.78.06-1.13,0.07l-0.51,0H312l-0.93,0s0,0.36,0,.93c0,0.14,0,.3,0,0.46l0,0.51c0,0.35,0,.75-0.07,1.13s-0.09.78-.14,1.15-0.12.71-.18,1c-0.12.6-.23,1-0.23,1l-0.49.31c-0.15.1-.35,0.21-0.57,0.34s-0.47.28-.76,0.42a23,23,0,0,1-4.31,1.77,23.78,23.78,0,0,1-4.57.87l-0.86.07-0.67,0h-1.16l-0.67,0-0.86-.07a23.75,23.75,0,0,1-4.57-.87,23,23,0,0,1-4.31-1.77c-0.28-.14-0.53-0.3-0.76-0.42s-0.42-.24-0.57-0.34l-0.49-.31s-0.11-.39-0.23-1c-0.06-.3-0.13-0.64-0.18-1s-0.1-.76-0.14-1.15-0.06-.78-0.07-1.13l0-.51c0-.16,0-0.32,0-0.46,0-.57,0-0.93,0-0.93l-0.93,0h-0.46l-0.51,0c-0.35,0-.75,0-1.13-0.07l-1.15-.14-1-.18c-0.6-.12-1-0.23-1-0.23l-0.31-.49c-0.1-.15-0.21-0.35-0.34-0.57s-0.28-.47-0.42-0.76a23,23,0,0,1-1.77-4.31,23.78,23.78,0,0,1-.87-4.57l-0.07-.86,0-.67v-0.58H273.6v0.6l0,0.68,0.07,0.89a24.37,24.37,0,0,0,.9,4.69,23.54,23.54,0,0,0,1.81,4.42c0.15,0.29.31,0.55,0.43,0.78s0.25,0.43.35,0.59l0.32,0.5,0.44,0.12,0.44,0.1,0.86,0.18c0.52,0.09,1.2.19,1.88,0.25s1.34,0.09,1.84.08l0.81,0s0,0.37,0,.94c0,0.14,0,.3,0,0.47l0,0.52c0,0.36,0,.76.09,1.15s0.1,0.79.16,1.16,0.14,0.72.2,1c0.13,0.61.24,1,.24,1l0.5,0.32c0.16,0.11.36,0.22,0.59,0.35s0.48,0.29.78,0.43a23.59,23.59,0,0,0,4.42,1.81,24.35,24.35,0,0,0,4.69.9l0.89,0.07,0.68,0h1.19l0.68,0,0.89-.07a24.36,24.36,0,0,0,4.69-.9,23.6,23.6,0,0,0,4.42-1.81c0.29-.15.55-0.31,0.78-0.44s0.43-.25.59-0.35l0.5-.32,0.12-.44,0.1-.44s0.08-.35.18-0.86,0.19-1.2.25-1.88,0.09-1.34.08-1.84,0-.81,0-0.81l0.94,0h0.47l0.52,0c0.36,0,.76,0,1.15-0.09l1.16-.16,1-.2c0.61-.13,1-0.24,1-0.24l0.32-.5c0.11-.16.22-0.36,0.35-0.59s0.29-.48.43-0.78a23.57,23.57,0,0,0,1.81-4.42,24.38,24.38,0,0,0,.9-4.69l0.07-.89,0-.68v-1.19l0-.68-0.07-.89a24.38,24.38,0,0,0-.9-4.69,23.59,23.59,0,0,0-1.81-4.42c-0.15-.29-0.31-0.54-0.43-0.78s-0.25-.43-0.35-0.59l-0.32-.5-0.44-.12-0.44-.1-0.86-.18c-0.52-.09-1.2-0.19-1.88-0.25s-1.34-.09-1.84-0.08l-0.81,0s0-.37,0-0.94c0-.15,0-0.3,0-0.47l0-.52c0-.36,0-0.76-0.09-1.15s-0.1-.79-0.16-1.16-0.14-.72-0.2-1c-0.13-.61-0.24-1-0.24-1l-0.5-.32c-0.16-.11-0.36-0.22-0.59-0.35s-0.48-.29-0.78-0.44a23.58,23.58,0,0,0-4.42-1.81,24.4,24.4,0,0,0-4.69-.9l-0.89-.07-0.68,0H297l-0.68,0-0.89.07a24.4,24.4,0,0,0-4.69.9,23.57,23.57,0,0,0-4.42,1.81c-0.29.15-.55,0.31-0.78,0.44s-0.43.24-.59,0.35l-0.5.32-0.12.44-0.1.44s-0.08.35-.18,0.86-0.19,1.2-.25,1.88-0.09,1.34-.08,1.84,0,0.81,0,.81l-0.94,0h-0.47l-0.52,0c-0.36,0-.76,0-1.15.09l-1.16.16-1,.2c-0.61.13-1,.24-1,0.24l-0.32.5c-0.11.16-.22,0.36-0.35,0.59s-0.29.48-.43,0.78a23.57,23.57,0,0,0-1.81,4.42,24.38,24.38,0,0,0-.9,4.69l-0.07.89,0,0.68v0.6h0.61v-0.58l0-.67,0.07-.86a23.78,23.78,0,0,1,.87-4.57,23,23,0,0,1,1.77-4.31c0.14-.28.3-0.53,0.42-0.76s0.24-.42.34-0.57Z" transform="translate(-262.82 -218.51)"/><path class="cls-2" d="M294.89,252.74l0,0-0.08.05-0.12.08-0.13.1-0.13.11-0.06.05,0,0-0.1.11,0.1,0.11,0,0,0.06,0.05,0.13,0.11,0.13,0.1,0.12,0.08,0.08,0.05,0,0V254l0,0.08v0l0,0.05a2.76,2.76,0,0,0,.22.51,2.85,2.85,0,0,0,.31.46l0.07,0.08,0.06,0.06,0,0.05,0.05,0,0.06,0.06,0.08,0.07a2.85,2.85,0,0,0,.46.31,2.72,2.72,0,0,0,.51.22l0.05,0h0l0.08,0h0.07l0,0,0.05,0.08,0.08,0.12,0.1,0.13,0.11,0.13,0.05,0.06,0,0,0.11,0.1,0.11-.1,0.05,0,0.05-.06,0.11-.13,0.1-.13,0.08-.12,0.05-.08,0,0h0.07l0.08,0h0l0.05,0a2.72,2.72,0,0,0,.51-0.22,2.84,2.84,0,0,0,.46-0.31l0.08-.07,0.06-.06,0.05,0,0-.05,0.06-.06,0.07-.08a2.85,2.85,0,0,0,.31-0.46,2.73,2.73,0,0,0,.21-0.51l0-.05v0l0-.08,0-.07,0,0,0.08-.05,0.12-.08,0.13-.1,0.13-.11,0.06-.05,0,0,0.1-.11-0.1-.11,0,0-0.06-.05-0.13-.11-0.13-.1-0.12-.08-0.08-.05,0,0,0-.07,0-.08v0l0-.05a2.73,2.73,0,0,0-.21-0.51,2.84,2.84,0,0,0-.31-0.46l-0.07-.08-0.06-.06,0-.05-0.05,0-0.06-.06-0.08-.07a2.84,2.84,0,0,0-.46-0.31,2.74,2.74,0,0,0-.51-0.22l-0.05,0h0l-0.08,0-0.07,0,0,0-0.05-.08-0.08-.12-0.1-.13-0.11-.13-0.05-.06,0,0-0.11-.1-0.11.1,0,0-0.05.06-0.11.13-0.1.13-0.08.12-0.05.08,0,0-0.07,0-0.08,0h0l-0.05,0a2.75,2.75,0,0,0-.51.22,2.86,2.86,0,0,0-.46.31l-0.08.07-0.06.06-0.05,0,0.06,0.06,0,0,0.06-.05,0.08-.07a2.76,2.76,0,0,1,.45-0.3,2.65,2.65,0,0,1,.5-0.21h0.1l0.08,0h0.07l0-.05,0,0,0.06-.1,0.07-.1,0.09-.11,0.18-.2,0.09-.09,0.11,0.1,0,0,0.05,0.06,0.11,0.13,0.1,0.13,0.08,0.12,0.05,0.08,0,0h0.07l0.08,0h0.1a2.65,2.65,0,0,1,.5.21,2.74,2.74,0,0,1,.45.3l0.08,0.07,0.06,0.05,0,0,0,0,0.05,0.06,0.07,0.08a2.76,2.76,0,0,1,.3.45,2.62,2.62,0,0,1,.21.5v0.1l0,0.08v0.07l0.05,0,0,0,0.1,0.06,0.1,0.07L300.7,253l0.2,0.18,0.09,0.09-0.1.1,0,0-0.06.05-0.13.11-0.13.1-0.12.08-0.08.05,0,0v0.07l0,0.08v0.1a2.66,2.66,0,0,1-.21.5,2.76,2.76,0,0,1-.3.45l-0.07.08-0.05.06,0,0,0,0-0.06.05-0.08.07a2.73,2.73,0,0,1-.45.3,2.63,2.63,0,0,1-.5.21h-0.1l-0.08,0h-0.07l0,0.05,0,0-0.06.1-0.07.1-0.09.11-0.18.2-0.09.09-0.11-.1,0,0-0.05-.06-0.11-.13-0.1-.13-0.08-.12L297.1,256l0,0H297l-0.08,0h-0.1a2.65,2.65,0,0,1-.5-0.21,2.75,2.75,0,0,1-.45-0.3l-0.08-.07-0.06-.05,0,0,0,0-0.05-.06-0.07-.08a2.76,2.76,0,0,1-.3-0.45,2.66,2.66,0,0,1-.21-0.5V254l0-.08v-0.07l-0.05,0,0,0-0.1-.06-0.1-.07-0.11-.09-0.2-.18-0.09-.09,0.1-.11,0,0,0.06-.05,0.13-.11,0.13-.1,0.12-.08,0.08-.05,0,0v-0.07l0-.08v-0.1a2.64,2.64,0,0,1,.21-0.5,2.76,2.76,0,0,1,.3-0.45l0.07-.08,0.05-.06,0,0-0.06-.06,0,0.05-0.06.06-0.07.08a2.84,2.84,0,0,0-.31.46,2.76,2.76,0,0,0-.22.51l0,0.05v0l0,0.08v0.07Z" transform="translate(-262.82 -218.51)"/><path class="cls-3" d="M271.37,267.5l0.06,0.11,0.18,0.32,0.3,0.53,0.19,0.34,0.24,0.38c0.17,0.27.36,0.57,0.57,0.89l0.74,1c0.28,0.37.59,0.75,0.91,1.16s0.7,0.83,1.1,1.26,0.83,0.89,1.31,1.33c0.24,0.22.47,0.46,0.73,0.68l0.79,0.69a31.9,31.9,0,0,0,3.75,2.67,29.76,29.76,0,0,0,10.3,3.82,30.23,30.23,0,0,0,6.29.41c0.27,0,.55,0,0.82,0l0.83-.06c0.55-.05,1.11-0.14,1.67-0.2s1.12-.19,1.67-0.31l0.84-.19,0.42-.1,0.42-.12a29.91,29.91,0,0,0,20.71-20.2l0.27-1c0.09-.32.15-0.65,0.23-1,0.17-.65.26-1.31,0.39-2a30.51,30.51,0,0,0-.54-12c-0.08-.33-0.18-0.65-0.27-1s-0.18-.65-0.3-1l-0.32-1-0.37-.94-0.19-.47-0.21-.46c-0.14-.31-0.27-0.62-0.42-0.92-0.31-.6-0.6-1.21-0.95-1.78a29.82,29.82,0,0,0-32.68-14.28,29.21,29.21,0,0,0-6.35,2.25,30.07,30.07,0,0,0-12.58,11.62,28.6,28.6,0,0,0-2,4.13A29.86,29.86,0,0,0,268.7,246l-0.19.84c-0.06.27-.13,0.54-0.17,0.8l-0.13.75c0,0.24-.09.48-0.11,0.7l-0.16,1.26-0.08,1.06c0,0.16,0,.31,0,0.45v0.39l0,0.61v0.5h-2.3v-0.53l0-.65V251.7c0-.15,0-0.31,0-0.48l0.09-1.14c0-.42.11-0.87,0.17-1.36,0-.25.07-0.5,0.12-0.76l0.14-.81c0-.28.11-0.56,0.18-0.86l0.21-.9a32.26,32.26,0,0,1,1.31-4,30.88,30.88,0,0,1,2.19-4.45,32.36,32.36,0,0,1,13.54-12.51,31.5,31.5,0,0,1,6.85-2.43,32.13,32.13,0,0,1,35.19,15.37c0.37,0.62.69,1.28,1,1.92,0.16,0.33.3,0.66,0.45,1l0.22,0.5,0.2,0.51,0.4,1,0.35,1c0.12,0.34.22,0.69,0.32,1s0.21,0.7.29,1.05a32.79,32.79,0,0,1,.58,12.94c-0.13.71-.24,1.42-0.41,2.12-0.08.35-.15,0.7-0.25,1l-0.29,1a32.15,32.15,0,0,1-22.3,21.75l-0.45.13-0.45.11-0.9.21c-0.6.13-1.21,0.22-1.8,0.33s-1.2.16-1.79,0.22l-0.89.07c-0.3,0-.59,0-0.88,0a32.57,32.57,0,0,1-6.77-.44,32.07,32.07,0,0,1-11.09-4.12,34.19,34.19,0,0,1-4-2.88l-0.85-.74c-0.28-.24-0.53-0.5-0.79-0.74-0.52-.48-1-1-1.41-1.43s-0.82-.93-1.19-1.36-0.68-.86-1-1.25L271,271.35c-0.23-.35-0.43-0.67-0.62-1l-0.26-.41-0.21-.36-0.33-.57-0.2-.35-0.07-.12Z" transform="translate(-262.82 -218.51)"/><path class="cls-2" d="M264,253.31v0.56l0,0.68V255c0,0.16,0,.32,0,0.5l0.09,1.19c0,0.44.11,0.91,0.18,1.42,0,0.26.08,0.52,0.13,0.8l0.15,0.85c0,0.29.12,0.59,0.19,0.9L265,261.6a33.78,33.78,0,0,0,1.37,4.19,32.4,32.4,0,0,0,2.29,4.66,33.89,33.89,0,0,0,14.19,13.11,33,33,0,0,0,7.17,2.55A33.66,33.66,0,0,0,326.88,270c0.39-.65.72-1.34,1.07-2,0.16-.34.32-0.69,0.47-1l0.23-.52,0.21-.53,0.42-1.06,0.37-1.08c0.13-.36.23-0.73,0.33-1.09s0.21-.73.3-1.1a34.32,34.32,0,0,0,.61-13.55c-0.14-.74-0.25-1.49-0.43-2.22-0.09-.37-0.16-0.74-0.26-1.1l-0.31-1.08a33.68,33.68,0,0,0-23.37-22.79L306,220.7l-0.48-.11-0.95-.22c-0.63-.13-1.26-0.23-1.89-0.35s-1.26-.17-1.88-0.23l-0.93-.07c-0.31,0-.62,0-0.92-0.05a34.09,34.09,0,0,0-7.09.46,33.6,33.6,0,0,0-11.62,4.32,35.68,35.68,0,0,0-4.23,3l-0.89.77c-0.29.25-.56,0.52-0.82,0.77-0.54.5-1,1-1.47,1.5s-0.86,1-1.24,1.42-0.71.9-1,1.31l-0.83,1.17c-0.24.36-.45,0.7-0.65,1l-0.27.42-0.22.38-0.34.59-0.21.36-0.07.12-1-.54,0.07-.13,0.21-.37,0.35-.61,0.23-.39,0.28-.44c0.2-.31.42-0.66,0.67-1l0.86-1.21c0.32-.43.68-0.87,1.06-1.36s0.82-1,1.28-1.47,1-1,1.52-1.55c0.28-.26.55-0.54,0.85-0.8l0.92-.8a36.8,36.8,0,0,1,4.37-3.12,34.73,34.73,0,0,1,12-4.46,35.19,35.19,0,0,1,7.33-.48c0.32,0,.64,0,1,0.05l1,0.07c0.64,0.06,1.29.16,1.94,0.24s1.3,0.22,2,.36l1,0.23,0.49,0.11,0.49,0.14A34.88,34.88,0,0,1,331,243.29l0.32,1.12c0.11,0.37.18,0.76,0.27,1.13,0.19,0.76.31,1.53,0.45,2.29a35.46,35.46,0,0,1-.63,14c-0.09.38-.21,0.76-0.31,1.14s-0.21.76-.35,1.13l-0.38,1.12-0.43,1.1-0.22.55-0.24.54c-0.16.36-.32,0.72-0.49,1.07-0.36.7-.7,1.41-1.11,2.08a34.79,34.79,0,0,1-38.11,16.65,34.17,34.17,0,0,1-7.42-2.63A35,35,0,0,1,267.67,271a33.57,33.57,0,0,1-2.37-4.82,34.87,34.87,0,0,1-1.42-4.34l-0.23-1c-0.07-.32-0.15-0.63-0.2-0.93l-0.16-.88c-0.05-.28-0.1-0.56-0.13-0.82-0.07-.53-0.13-1-0.18-1.47l-0.09-1.23c0-.18,0-0.36,0-0.52V254.6l0-.71v-0.58H264Z" transform="translate(-262.82 -218.51)"/><path class="cls-4" d="M295.65,226.55l-0.29,0c-0.19,0-.47,0-0.82.08a25.61,25.61,0,0,0-2.9.5,26.67,26.67,0,0,0-8.22,3.4,27.25,27.25,0,0,0-3.81,2.88,28.5,28.5,0,0,0-2.86,3l-0.54.69c-0.17.22-.32,0.44-0.46,0.64s-0.28.39-.4,0.57l-0.32.5c-0.19.3-.35,0.53-0.44,0.7l-0.15.25-1.79-1,0.16-.27c0.1-.18.27-0.43,0.47-0.75l0.34-.53c0.13-.19.28-0.39,0.43-0.61s0.31-.45.5-0.69l0.58-.74a30.55,30.55,0,0,1,3.08-3.27,29.3,29.3,0,0,1,4.1-3.1,28.75,28.75,0,0,1,8.86-3.66,27.71,27.71,0,0,1,3.13-.54c0.38-.06.68-0.07,0.89-0.09l0.31,0Z" transform="translate(-262.82 -218.51)"/><path class="cls-4" d="M319.57,237.85l-0.17-.24c-0.11-.16-0.27-0.39-0.49-0.66l-0.36-.46-0.21-.26L318.1,236l-0.52-.6c-0.18-.21-0.39-0.41-0.6-0.64a26,26,0,0,0-3.11-2.78,27,27,0,0,0-8.46-4.32,26.15,26.15,0,0,0-4.07-.89l-0.87-.11-0.79-.06-0.69-.05H298.4l-0.83,0h-0.29l0-2.07h0.32l0.89,0,0.64,0,0.75,0.06,0.85,0.07,0.94,0.12a28.26,28.26,0,0,1,4.38,1,29.06,29.06,0,0,1,9.12,4.66,28.12,28.12,0,0,1,3.35,3c0.22,0.24.45,0.46,0.65,0.69l0.56,0.64,0.25,0.29,0.22,0.28,0.39,0.5c0.24,0.3.41,0.55,0.53,0.71l0.18,0.26Z" transform="translate(-262.82 -218.51)"/><path class="cls-4" d="M322.18,264.17s0.18-.37.43-1l0.22-.55c0.07-.2.14-0.42,0.22-0.66s0.17-.48.25-0.75l0.24-.84a26.74,26.74,0,0,0,.77-4.09,28.14,28.14,0,0,0,.09-4.78,26.09,26.09,0,0,0-.74-4.71,29,29,0,0,0-1.32-3.94,28.21,28.21,0,0,0-1.31-2.64l-0.41-.72-0.16-.25,1.76-1.09,0.17,0.27,0.44,0.77a30.28,30.28,0,0,1,1.41,2.84,31.06,31.06,0,0,1,1.43,4.25,28.18,28.18,0,0,1,.8,5.08,30.22,30.22,0,0,1-.1,5.14,28.81,28.81,0,0,1-.83,4.41l-0.26.91c-0.08.29-.18,0.55-0.27,0.81s-0.16.49-.24,0.71l-0.23.59c-0.14.35-.24,0.64-0.33,0.82l-0.13.29Z" transform="translate(-262.82 -218.51)"/><path class="cls-4" d="M301,279.94l0.29,0c0.19,0,.47-0.05.82-0.12a25.59,25.59,0,0,0,2.87-.64,26.68,26.68,0,0,0,8-3.81,27.41,27.41,0,0,0,3.66-3.07,27.93,27.93,0,0,0,2.7-3.17l0.51-.71c0.16-.23.29-0.46,0.43-0.66s0.27-.4.37-0.59l0.29-.51c0.18-.31.32-0.55,0.4-0.72l0.13-.26,1.84,1-0.14.28c-0.09.19-.24,0.44-0.43,0.78l-0.32.55c-0.11.2-.26,0.41-0.4,0.63s-0.29.47-.46,0.71l-0.55.77a30,30,0,0,1-2.91,3.42,29.47,29.47,0,0,1-3.94,3.3,28.75,28.75,0,0,1-8.67,4.11,27.6,27.6,0,0,1-3.1.69c-0.38.08-.68,0.1-0.88,0.13l-0.31,0Z" transform="translate(-262.82 -218.51)"/><path class="cls-4" d="M276.51,269.85l0.18,0.23,0.22,0.28,0.31,0.36c0.24,0.27.51,0.61,0.86,1l0.55,0.57,0.63,0.61a26.3,26.3,0,0,0,3.24,2.62,26.94,26.94,0,0,0,8.67,3.89,26.26,26.26,0,0,0,4.11.68l0.87,0.07c0.28,0,.54,0,0.79,0l0.7,0,0.59,0,0.83,0,0.29,0,0.13,2.07-0.31,0-0.89,0-0.64,0-0.75,0c-0.27,0-.55,0-0.85,0l-0.94-.07a28.3,28.3,0,0,1-4.42-.73,29,29,0,0,1-9.34-4.19,28.4,28.4,0,0,1-3.49-2.82l-0.68-.65-0.59-.62c-0.38-.38-0.67-0.74-0.92-1l-0.33-.39-0.23-.3-0.19-.25Z" transform="translate(-262.82 -218.51)"/></svg>