<svg preserveAspectRatio="none" id="Layer_1" data-name="Layer 1" xmlns="http://www.w3.org/2000/svg" xmlns:xlink="http://www.w3.org/1999/xlink" viewBox="0 0 108.67 108.67"><defs><style>.cls-1{fill:#2e2855;}.cls-2{fill:url(#linear-gradient);}.cls-3{fill:#d13954;}</style><linearGradient id="linear-gradient" x1="591.31" y1="390" x2="486.43" y2="390" gradientUnits="userSpaceOnUse"><stop offset="0.03" stop-color="#3ee497"/><stop offset="1" stop-color="#2e2855"/></linearGradient></defs><title>circle8</title><path class="cls-1" d="M538.48,444.33A54.33,54.33,0,1,1,592.81,390,54.39,54.39,0,0,1,538.48,444.33Zm0-100.67A46.33,46.33,0,1,0,584.81,390,46.39,46.39,0,0,0,538.48,343.67Z" transform="translate(-484.15 -335.67)"/><path class="cls-2" d="M538.48,442.83a52.71,52.71,0,0,1-52-43.7l4.93-.86a47.81,47.81,0,1,0,28.5-52.35l-1.95-4.61A52.84,52.84,0,1,1,538.48,442.83Z" transform="translate(-484.15 -335.67)"/><path class="cls-1" d="M524.56,358.64l-3.24-7.31a42.55,42.55,0,0,1,5.5-2L529,357A34.77,34.77,0,0,0,524.56,358.64Z" transform="translate(-484.15 -335.67)"/><path class="cls-1" d="M550.15,430.71l-2.2-7.69a34.32,34.32,0,0,0,4.54-1.66l3.26,7.31A42.6,42.6,0,0,1,550.15,430.71Z" transform="translate(-484.15 -335.67)"/><path class="cls-1" d="M518.34,362.23l-4.69-6.48a42.41,42.41,0,0,1,5-3.1l3.75,7.06A34.54,34.54,0,0,0,518.34,362.23Z" transform="translate(-484.15 -335.67)"/><path class="cls-1" d="M558.36,427.4l-3.76-7.06a34.86,34.86,0,0,0,4.09-2.57l4.71,6.47A42.62,42.62,0,0,1,558.36,427.4Z" transform="translate(-484.15 -335.67)"/><path class="cls-1" d="M513,367l-5.94-5.36a42.65,42.65,0,0,1,4.21-4.07l5.14,6.13A34.74,34.74,0,0,0,513,367Z" transform="translate(-484.15 -335.67)"/><path class="cls-1" d="M565.7,422.46l-5.14-6.13A34.72,34.72,0,0,0,564,413l5.95,5.35A42.64,42.64,0,0,1,565.7,422.46Z" transform="translate(-484.15 -335.67)"/><path class="cls-1" d="M508.79,372.84l-6.92-4a42.87,42.87,0,0,1,3.27-4.85l6.31,4.92A34.74,34.74,0,0,0,508.79,372.84Z" transform="translate(-484.15 -335.67)"/><path class="cls-1" d="M571.86,416.1l-6.3-4.93a34.59,34.59,0,0,0,2.7-4l6.93,4A42.78,42.78,0,0,1,571.86,416.1Z" transform="translate(-484.15 -335.67)"/><path class="cls-1" d="M505.87,379.4l-7.6-2.49a42.71,42.71,0,0,1,2.19-5.43l7.19,3.51A34.69,34.69,0,0,0,505.87,379.4Z" transform="translate(-484.15 -335.67)"/><path class="cls-1" d="M576.56,408.6l-7.19-3.51a34.72,34.72,0,0,0,1.8-4.49l7.61,2.47A42.83,42.83,0,0,1,576.56,408.6Z" transform="translate(-484.15 -335.67)"/><path class="cls-1" d="M504.38,386.42l-8-.85a42.82,42.82,0,0,1,1-5.76l7.76,1.93A34.75,34.75,0,0,0,504.38,386.42Z" transform="translate(-484.15 -335.67)"/><path class="cls-1" d="M579.59,400.28l-7.76-1.93a34.62,34.62,0,0,0,.83-4.76l8,0.83A42.75,42.75,0,0,1,579.59,400.28Z" transform="translate(-484.15 -335.67)"/><path class="cls-1" d="M496.42,394.41a42.85,42.85,0,0,1-.21-5.85l8,0.28a34.77,34.77,0,0,0,.17,4.75Z" transform="translate(-484.15 -335.67)"/><path class="cls-1" d="M580.83,391.52l-8-.28a34.59,34.59,0,0,0-.18-4.83l8-.84A42.34,42.34,0,0,1,580.83,391.52Z" transform="translate(-484.15 -335.67)"/><path class="cls-1" d="M498.26,403.07a42.7,42.7,0,0,1-1.42-5.67l7.88-1.39a34.91,34.91,0,0,0,1.15,4.61Z" transform="translate(-484.15 -335.67)"/><path class="cls-1" d="M572.35,384.08a34.59,34.59,0,0,0-1.18-4.69l7.61-2.48a42.81,42.81,0,0,1,1.45,5.77Z" transform="translate(-484.15 -335.67)"/><path class="cls-1" d="M501.86,411.16a42.67,42.67,0,0,1-2.57-5.26l7.42-3a34.63,34.63,0,0,0,2.09,4.27Z" transform="translate(-484.15 -335.67)"/><path class="cls-1" d="M570.38,377.18a34.55,34.55,0,0,0-2.13-4.34l6.93-4a42.6,42.6,0,0,1,2.62,5.35Z" transform="translate(-484.15 -335.67)"/><path class="cls-1" d="M507.06,418.32a42.81,42.81,0,0,1-3.61-4.61l6.63-4.47A34.51,34.51,0,0,0,513,413Z" transform="translate(-484.15 -335.67)"/><path class="cls-1" d="M567,370.84a34.47,34.47,0,0,0-3-3.8l5.94-5.36a42.62,42.62,0,0,1,3.67,4.69Z" transform="translate(-484.15 -335.67)"/><path class="cls-1" d="M513.64,424.24a42.72,42.72,0,0,1-4.48-3.76l5.56-5.76a34.64,34.64,0,0,0,3.64,3.05Z" transform="translate(-484.15 -335.67)"/><path class="cls-1" d="M562.41,365.33a34.7,34.7,0,0,0-3.71-3.1l4.7-6.48a42.41,42.41,0,0,1,4.57,3.82Z" transform="translate(-484.15 -335.67)"/><path class="cls-1" d="M521.3,428.67a42.61,42.61,0,0,1-5.17-2.74l4.24-6.79a34.59,34.59,0,0,0,4.2,2.23Z" transform="translate(-484.15 -335.67)"/><path class="cls-1" d="M556.76,360.91a34.68,34.68,0,0,0-4.27-2.26l3.25-7.31a42.7,42.7,0,0,1,5.26,2.79Z" transform="translate(-484.15 -335.67)"/><path class="cls-1" d="M529.72,431.4a42.74,42.74,0,0,1-5.62-1.61l2.73-7.52a34.78,34.78,0,0,0,4.57,1.3Z" transform="translate(-484.15 -335.67)"/><path class="cls-1" d="M550.31,357.75a34.37,34.37,0,0,0-4.65-1.32l1.66-7.83a42.68,42.68,0,0,1,5.73,1.63Z" transform="translate(-484.15 -335.67)"/><path class="cls-1" d="M538.52,432.33a42.54,42.54,0,0,1-5.84-.41l1.12-7.92a34.67,34.67,0,0,0,4.74.33v8Z" transform="translate(-484.15 -335.67)"/><path class="cls-1" d="M543.35,356a34.71,34.71,0,0,0-4.8-.33h0v-8h0a42.71,42.71,0,0,1,5.91.41Z" transform="translate(-484.15 -335.67)"/><path class="cls-1" d="M541.52,432.23l-0.56-8a34.75,34.75,0,0,0,4.7-.66l1.65,7.83A42.61,42.61,0,0,1,541.52,432.23Z" transform="translate(-484.15 -335.67)"/><path class="cls-1" d="M531.39,356.43l-1.67-7.82a42.85,42.85,0,0,1,5.89-.84l0.56,8A34.87,34.87,0,0,0,531.39,356.43Z" transform="translate(-484.15 -335.67)"/><path class="cls-3" d="M538.52,432.33a42.54,42.54,0,0,1-5.84-.41l1.12-7.92a34.67,34.67,0,0,0,4.74.33v8Zm3-.11-0.56-8a34.75,34.75,0,0,0,4.7-.66l1.65,7.83A42.61,42.61,0,0,1,541.52,432.23Zm-11.81-.82a42.74,42.74,0,0,1-5.62-1.61l2.73-7.52a34.78,34.78,0,0,0,4.57,1.3Zm-8.41-2.74a42.61,42.61,0,0,1-5.17-2.74l4.24-6.79a34.59,34.59,0,0,0,4.2,2.23Zm-7.67-4.43a42.72,42.72,0,0,1-4.48-3.76l5.56-5.76a34.64,34.64,0,0,0,3.64,3.05Zm-6.58-5.92a42.81,42.81,0,0,1-3.61-4.61l6.63-4.47A34.51,34.51,0,0,0,513,413Zm-5.2-7.16a42.67,42.67,0,0,1-2.57-5.26l7.42-3a34.63,34.63,0,0,0,2.09,4.27Zm-3.6-8.09a42.7,42.7,0,0,1-1.42-5.67l7.88-1.39a34.91,34.91,0,0,0,1.15,4.61Zm72.11-25.89a34.55,34.55,0,0,0-2.13-4.34l6.93-4a42.6,42.6,0,0,1,2.62,5.35ZM567,370.84a34.47,34.47,0,0,0-3-3.8l5.94-5.36a42.62,42.62,0,0,1,3.67,4.69Zm-4.6-5.5a34.7,34.7,0,0,0-3.71-3.1l4.7-6.48a42.41,42.41,0,0,1,4.57,3.82Zm-5.65-4.43a34.68,34.68,0,0,0-4.27-2.26l3.25-7.31a42.7,42.7,0,0,1,5.26,2.79Zm-32.2-2.27-3.24-7.31a42.55,42.55,0,0,1,5.5-2L529,357A34.77,34.77,0,0,0,524.56,358.64Zm25.75-.88a34.52,34.52,0,0,0-4.65-1.32l1.66-7.83a42.68,42.68,0,0,1,5.73,1.63Zm-18.92-1.32-1.67-7.82a42.85,42.85,0,0,1,5.89-.84l0.56,8A34.87,34.87,0,0,0,531.39,356.43Zm12-.42a42.6,42.6,0,0,0-4.82-.33v-8h0a42.71,42.71,0,0,1,5.92.41Z" transform="translate(-484.15 -335.67)"/></svg>