<svg preserveAspectRatio="none" id="Layer_1" data-name="Layer 1" xmlns="http://www.w3.org/2000/svg" xmlns:xlink="http://www.w3.org/1999/xlink" viewBox="0 0 120.44 120.44"><defs><style>.cls-1{fill:url(#linear-gradient);}.cls-2{fill:url(#linear-gradient-2);}.cls-3{fill:url(#linear-gradient-3);}.cls-4{fill:url(#linear-gradient-4);}.cls-5{fill:url(#linear-gradient-5);}.cls-6{fill:url(#linear-gradient-6);}.cls-7{fill:url(#linear-gradient-7);}.cls-8{fill:url(#linear-gradient-8);}.cls-9{fill:url(#linear-gradient-9);}.cls-10{fill:url(#linear-gradient-10);}.cls-11{fill:url(#linear-gradient-11);}.cls-12{fill:url(#linear-gradient-12);}.cls-13{fill:url(#linear-gradient-13);}.cls-14{fill:url(#linear-gradient-14);}.cls-15{fill:url(#linear-gradient-15);}.cls-16{fill:url(#linear-gradient-16);}.cls-17{fill:url(#linear-gradient-17);}.cls-18{fill:url(#linear-gradient-18);}.cls-19{fill:url(#linear-gradient-19);}.cls-20{fill:url(#linear-gradient-20);}.cls-21{fill:url(#linear-gradient-21);}.cls-22{fill:url(#linear-gradient-22);}.cls-23{fill:url(#linear-gradient-23);}.cls-24{fill:url(#linear-gradient-24);}.cls-25{fill:#5cdeff;}.cls-26{fill:#ba5bb2;}</style><linearGradient id="linear-gradient" x1="58.19" y1="331.36" x2="58.19" y2="407.59" gradientUnits="userSpaceOnUse"><stop offset="0" stop-color="#154666"/><stop offset="0.11" stop-color="#274a71"/><stop offset="0.33" stop-color="#55558d"/><stop offset="0.64" stop-color="#9f66ba"/><stop offset="1" stop-color="#ff7df5"/></linearGradient><linearGradient id="linear-gradient-2" x1="50.97" y1="331.36" x2="50.97" y2="407.59" xlink:href="#linear-gradient"/><linearGradient id="linear-gradient-3" x1="67.07" y1="331.36" x2="67.07" y2="407.59" xlink:href="#linear-gradient"/><linearGradient id="linear-gradient-4" x1="43.42" y1="331.36" x2="43.42" y2="407.59" xlink:href="#linear-gradient"/><linearGradient id="linear-gradient-5" x1="45.93" y1="331.36" x2="45.93" y2="407.59" xlink:href="#linear-gradient"/><linearGradient id="linear-gradient-6" x1="119.87" y1="331.36" x2="119.87" y2="407.59" xlink:href="#linear-gradient"/><linearGradient id="linear-gradient-7" x1="114.83" y1="331.36" x2="114.83" y2="407.59" xlink:href="#linear-gradient"/><linearGradient id="linear-gradient-8" x1="107.61" y1="331.36" x2="107.61" y2="407.59" xlink:href="#linear-gradient"/><linearGradient id="linear-gradient-9" x1="43.42" y1="331.36" x2="43.42" y2="407.59" xlink:href="#linear-gradient"/><linearGradient id="linear-gradient-10" x1="88.75" y1="331.36" x2="88.75" y2="407.59" xlink:href="#linear-gradient"/><linearGradient id="linear-gradient-11" x1="98.73" y1="331.36" x2="98.73" y2="407.59" xlink:href="#linear-gradient"/><linearGradient id="linear-gradient-12" x1="77.05" y1="331.36" x2="77.05" y2="407.59" xlink:href="#linear-gradient"/><linearGradient id="linear-gradient-13" x1="114.83" y1="331.36" x2="114.83" y2="407.59" xlink:href="#linear-gradient"/><linearGradient id="linear-gradient-14" x1="107.61" y1="331.36" x2="107.61" y2="407.59" xlink:href="#linear-gradient"/><linearGradient id="linear-gradient-15" x1="119.87" y1="331.36" x2="119.87" y2="407.59" xlink:href="#linear-gradient"/><linearGradient id="linear-gradient-16" x1="122.38" y1="331.36" x2="122.38" y2="407.59" xlink:href="#linear-gradient"/><linearGradient id="linear-gradient-17" x1="98.73" y1="331.36" x2="98.73" y2="407.59" xlink:href="#linear-gradient"/><linearGradient id="linear-gradient-18" x1="122.38" y1="331.36" x2="122.38" y2="407.59" xlink:href="#linear-gradient"/><linearGradient id="linear-gradient-19" x1="77.05" y1="331.36" x2="77.05" y2="407.59" xlink:href="#linear-gradient"/><linearGradient id="linear-gradient-20" x1="58.19" y1="331.36" x2="58.19" y2="407.59" xlink:href="#linear-gradient"/><linearGradient id="linear-gradient-21" x1="88.75" y1="331.36" x2="88.75" y2="407.59" xlink:href="#linear-gradient"/><linearGradient id="linear-gradient-22" x1="50.97" y1="331.36" x2="50.97" y2="407.59" xlink:href="#linear-gradient"/><linearGradient id="linear-gradient-23" x1="45.93" y1="331.36" x2="45.93" y2="407.59" xlink:href="#linear-gradient"/><linearGradient id="linear-gradient-24" x1="67.07" y1="331.36" x2="67.07" y2="407.59" xlink:href="#linear-gradient"/></defs><title>circle116</title><path class="cls-1" d="M59.25,334.46a34.93,34.93,0,0,1,5.08-3.91l-5.1-8.84A45.18,45.18,0,0,0,52,327.24Z" transform="translate(-22.68 -299.79)"/><path class="cls-2" d="M53.44,341.44a34.93,34.93,0,0,1,3.91-5.08l-7.21-7.21a45.19,45.19,0,0,0-5.53,7.19Z" transform="translate(-22.68 -299.79)"/><path class="cls-3" d="M66.66,329.18a34.61,34.61,0,0,1,5.92-2.47l-2.63-9.82a44.73,44.73,0,0,0-8.39,3.47Z" transform="translate(-22.68 -299.79)"/><path class="cls-4" d="M48.11,358.66a34.88,34.88,0,0,1,.82-6.36l-9.84-2.64a45,45,0,0,0-1.17,9h10.2Z" transform="translate(-22.68 -299.79)"/><path class="cls-5" d="M49.6,349.69a34.59,34.59,0,0,1,2.47-5.92l-8.82-5.09a44.74,44.74,0,0,0-3.47,8.39Z" transform="translate(-22.68 -299.79)"/><path class="cls-6" d="M122.55,338.67l-8.82,5.09a34.6,34.6,0,0,1,2.47,5.92l9.82-2.63A44.74,44.74,0,0,0,122.55,338.67Z" transform="translate(-22.68 -299.79)"/><path class="cls-7" d="M108.45,336.36a34.93,34.93,0,0,1,3.91,5.08l8.84-5.1a45.18,45.18,0,0,0-5.53-7.19Z" transform="translate(-22.68 -299.79)"/><path class="cls-8" d="M101.47,330.55a34.94,34.94,0,0,1,5.08,3.91l7.21-7.21a45.19,45.19,0,0,0-7.19-5.53Z" transform="translate(-22.68 -299.79)"/><path class="cls-9" d="M48.93,367.72a34.88,34.88,0,0,1-.82-6.36H37.91a45,45,0,0,0,1.17,9Z" transform="translate(-22.68 -299.79)"/><path class="cls-10" d="M84.25,325.22a34.87,34.87,0,0,1,6.36.82l2.64-9.84a45,45,0,0,0-9-1.17v10.2Z" transform="translate(-22.68 -299.79)"/><path class="cls-11" d="M93.22,326.71a34.62,34.62,0,0,1,5.92,2.47l5.09-8.82a44.73,44.73,0,0,0-8.39-3.47Z" transform="translate(-22.68 -299.79)"/><path class="cls-12" d="M75.19,326a34.87,34.87,0,0,1,6.36-.82V315a45,45,0,0,0-9,1.17Z" transform="translate(-22.68 -299.79)"/><path class="cls-13" d="M112.36,378.58a34.94,34.94,0,0,1-3.91,5.08l7.21,7.21a45.19,45.19,0,0,0,5.53-7.19Z" transform="translate(-22.68 -299.79)"/><path class="cls-14" d="M106.55,385.56a34.94,34.94,0,0,1-5.08,3.91l5.1,8.84a45.18,45.18,0,0,0,7.19-5.53Z" transform="translate(-22.68 -299.79)"/><path class="cls-15" d="M116.2,370.33a34.61,34.61,0,0,1-2.47,5.92l8.82,5.09A44.74,44.74,0,0,0,126,373Z" transform="translate(-22.68 -299.79)"/><path class="cls-16" d="M117.69,361.36a34.88,34.88,0,0,1-.82,6.36l9.84,2.64a45,45,0,0,0,1.17-9h-10.2Z" transform="translate(-22.68 -299.79)"/><path class="cls-17" d="M99.14,390.84a34.6,34.6,0,0,1-5.92,2.47l2.63,9.82a44.74,44.74,0,0,0,8.39-3.47Z" transform="translate(-22.68 -299.79)"/><path class="cls-18" d="M116.87,352.3a34.88,34.88,0,0,1,.82,6.36h10.2a45,45,0,0,0-1.17-9Z" transform="translate(-22.68 -299.79)"/><path class="cls-19" d="M81.55,394.8a34.88,34.88,0,0,1-6.36-.82l-2.64,9.84a45.05,45.05,0,0,0,9,1.17V394.8Z" transform="translate(-22.68 -299.79)"/><path class="cls-20" d="M64.33,389.47a34.93,34.93,0,0,1-5.08-3.91L52,392.78a45.17,45.17,0,0,0,7.19,5.53Z" transform="translate(-22.68 -299.79)"/><path class="cls-21" d="M90.61,394a34.88,34.88,0,0,1-6.36.82V405a45,45,0,0,0,9-1.17Z" transform="translate(-22.68 -299.79)"/><path class="cls-22" d="M57.35,383.66a34.93,34.93,0,0,1-3.91-5.08l-8.84,5.1a45.19,45.19,0,0,0,5.53,7.19Z" transform="translate(-22.68 -299.79)"/><path class="cls-23" d="M52.07,376.25a34.61,34.61,0,0,1-2.47-5.92L39.78,373a44.74,44.74,0,0,0,3.47,8.39Z" transform="translate(-22.68 -299.79)"/><path class="cls-24" d="M72.58,393.31a34.6,34.6,0,0,1-5.92-2.47l-5.09,8.82a44.73,44.73,0,0,0,8.39,3.47Z" transform="translate(-22.68 -299.79)"/><path class="cls-25" d="M93,420.23H72.8a9.92,9.92,0,0,1-7.64-3.58l-6.29-7.54A55,55,0,0,1,33.8,384l-7.54-6.29a9.92,9.92,0,0,1-3.58-7.64v-20.2a9.92,9.92,0,0,1,3.58-7.64L33.8,336a55,55,0,0,1,25.07-25.07l6.28-7.54a9.92,9.92,0,0,1,7.64-3.58H93a9.92,9.92,0,0,1,7.64,3.58l6.28,7.54A55,55,0,0,1,132,336l7.54,6.28a9.92,9.92,0,0,1,3.58,7.64v20.2a9.92,9.92,0,0,1-3.58,7.64L132,384a55,55,0,0,1-25.06,25.06l-6.29,7.55A9.92,9.92,0,0,1,93,420.23ZM59.11,408.67a0.25,0.25,0,0,1,.11.07l6.32,7.59a9.42,9.42,0,0,0,7.26,3.4H93a9.42,9.42,0,0,0,7.26-3.4l6.32-7.59,0.08-.06a54.53,54.53,0,0,0,24.89-24.88,0.25,0.25,0,0,1,.07-0.11l7.59-6.32a9.42,9.42,0,0,0,3.4-7.26v-20.2a9.42,9.42,0,0,0-3.4-7.26h0l-7.59-6.32a0.26,0.26,0,0,1-.08-0.11,54.53,54.53,0,0,0-24.86-24.86,0.25,0.25,0,0,1-.11-0.08l-6.32-7.59a9.42,9.42,0,0,0-7.26-3.4H72.8a9.42,9.42,0,0,0-7.26,3.4l-6.32,7.59a0.25,0.25,0,0,1-.11.08,54.53,54.53,0,0,0-24.86,24.87,0.25,0.25,0,0,1-.07.11l-7.59,6.32a9.42,9.42,0,0,0-3.4,7.26v20.2a9.42,9.42,0,0,0,3.4,7.26l7.59,6.32a0.25,0.25,0,0,1,.08.11A54.54,54.54,0,0,0,59.11,408.67Z" transform="translate(-22.68 -299.79)"/><path class="cls-26" d="M82.9,414.65a54.8,54.8,0,0,1-17.73-2.93l-9.78.89a9.94,9.94,0,0,1-7.93-2.87L33.18,395.45a9.92,9.92,0,0,1-2.87-7.93l0.89-9.78a55,55,0,0,1,0-35.45l-0.89-9.78a9.92,9.92,0,0,1,2.87-7.93l14.29-14.29a10,10,0,0,1,7.93-2.87l9.78,0.89a55.05,55.05,0,0,1,35.45,0l9.78-.89a9.93,9.93,0,0,1,7.93,2.87l14.29,14.29a9.92,9.92,0,0,1,2.87,7.93l-0.89,9.78a55,55,0,0,1,0,35.45l0.89,9.78a9.92,9.92,0,0,1-2.87,7.93l-14.29,14.29a9.93,9.93,0,0,1-7.93,2.87l-9.78-.89A54.8,54.8,0,0,1,82.9,414.65Zm-17.66-3.44,0.05,0a54.54,54.54,0,0,0,34.95.09l-0.07-.15,0.45,0,9.84,0.9a9.42,9.42,0,0,0,7.54-2.73l14.29-14.29a9.42,9.42,0,0,0,2.73-7.54l-1-10.71,0.25,0.33a54.55,54.55,0,0,0,0-34.21l-0.32.65,1-11.15a9.42,9.42,0,0,0-2.73-7.54L118,310.64a9.42,9.42,0,0,0-7.54-2.73l-10.28.94,0.07-.15a54.54,54.54,0,0,0-34.68,0l0.07,0.15-0.45,0-9.84-.89a9.42,9.42,0,0,0-7.54,2.73L33.53,324.93a9.42,9.42,0,0,0-2.73,7.54l0.9,9.84-0.23,0,0.22,0.08a54.55,54.55,0,0,0-.13,34.84l0.2-.2-1,10.52a9.42,9.42,0,0,0,2.73,7.54l14.29,14.29a9.41,9.41,0,0,0,7.54,2.73Z" transform="translate(-22.68 -299.79)"/><path class="cls-25" d="M82.9,405.25A45.24,45.24,0,1,1,128.14,360,45.29,45.29,0,0,1,82.9,405.25Zm0-90A44.74,44.74,0,1,0,127.64,360,44.79,44.79,0,0,0,82.9,315.27Z" transform="translate(-22.68 -299.79)"/><path class="cls-25" d="M60.74,375.39a27,27,0,0,1,7.08-37.74l0.56,0.83a26,26,0,0,0-6.82,36.34Z" transform="translate(-22.68 -299.79)"/><path class="cls-25" d="M82.9,387a26.78,26.78,0,0,1-15.74-5.07l0.58-.81a26,26,0,0,0,36.88-6.84l0.84,0.55A26.92,26.92,0,0,1,82.9,387Z" transform="translate(-22.68 -299.79)"/><path class="cls-25" d="M109.87,360h-1a26,26,0,0,0-26-26v-1A27,27,0,0,1,109.87,360Z" transform="translate(-22.68 -299.79)"/><path class="cls-25" d="M82.9,381.72A21.74,21.74,0,0,1,61.19,360h0.75a21,21,0,0,0,21,21v0.75Z" transform="translate(-22.68 -299.79)"/><path class="cls-25" d="M98.25,375.36l-0.53-.53A21,21,0,0,0,82.9,339V338.3A21.71,21.71,0,0,1,98.25,375.36Z" transform="translate(-22.68 -299.79)"/></svg>