<svg preserveAspectRatio="none" id="Layer_1" data-name="Layer 1" xmlns="http://www.w3.org/2000/svg" viewBox="0 0 63.22 63.22"><defs><style>.cls-2{fill:#ff8a29}.cls-3{fill:#12aac2}</style></defs><path d="M313.89 253.45a28.39 28.39 0 1128.39-28.39 28.42 28.42 0 01-28.39 28.39zm0-55.77a27.39 27.39 0 1027.39 27.39 27.42 27.42 0 00-27.39-27.39z" transform="translate(-282.28 -193.46)" fill="#0e8092"/><path class="cls-2" d="M313.89 251a26.07 26.07 0 01-26-26h3a23 23 0 1046.09 0h3a26.07 26.07 0 01-26.09 26z" transform="translate(-282.28 -193.46)"/><path class="cls-3" d="M313.89 246.58A21.64 21.64 0 01292.28 225h1a20.61 20.61 0 0041.22 0h1a21.63 21.63 0 01-21.61 21.58z" transform="translate(-282.28 -193.46)"/><path class="cls-2" d="M313.89 244.51A19.57 19.57 0 01294.34 225h.5a19 19 0 1038.09 0h.5a19.57 19.57 0 01-19.54 19.51z" transform="translate(-282.28 -193.46)"/><path class="cls-3" d="M326.6 233h-25.42l12.71-20.68zm-23.6-1h21.84l-10.92-17.77z" transform="translate(-282.28 -193.46)"/><circle class="cls-2" cx="31.61" cy="6.94" r="1.2"/><circle class="cls-2" cx="31.61" cy=".6" r=".6"/><circle class="cls-2" cx="321.92" cy="195.11" r=".6" transform="rotate(-74.99 54.709 282.354)"/><circle class="cls-2" cx="329.39" cy="198.21" r=".6" transform="rotate(-60.02 20.758 345.85)"/><circle class="cls-2" cx="335.82" cy="203.14" r=".6" transform="rotate(-45 -38.844 447.15)"/><circle class="cls-2" cx="340.74" cy="209.56" r=".6" transform="rotate(-30.01 -161.21 639.402)"/><circle class="cls-2" cx="343.84" cy="217.04" r=".6" transform="matrix(.97 -.26 .26 .97 -326.72 -97.11)"/><circle class="cls-2" cx="62.62" cy="31.61" r=".6"/><circle class="cls-2" cx="343.84" cy="233.09" r=".6" transform="rotate(-75.01 76.68 320.266)"/><circle class="cls-2" cx="340.74" cy="240.57" r=".6" transform="rotate(-60 32.05 388.308)"/><circle class="cls-2" cx="335.82" cy="246.99" r=".6" transform="rotate(-45 -38.85 491.002)"/><circle class="cls-2" cx="329.39" cy="251.92" r=".6" transform="rotate(-30 -172.688 681.949)"/><circle class="cls-2" cx="321.92" cy="255.02" r=".6" transform="rotate(-14.98 -554.83 1231.865)"/><circle class="cls-2" cx="31.61" cy="62.62" r=".6"/><circle class="cls-2" cx="305.86" cy="255.02" r=".6" transform="rotate(-75 38.694 342.23)"/><circle class="cls-2" cx="298.39" cy="251.92" r=".6" transform="rotate(-60 -10.32 399.654)"/><circle class="cls-2" cx="291.96" cy="246.99" r=".6" transform="rotate(-45 -82.708 491.009)"/><circle class="cls-2" cx="287.04" cy="240.57" r=".6" transform="rotate(-30 -215.065 670.594)"/><circle class="cls-2" cx="283.94" cy="233.09" r=".6" transform="rotate(-14.99 -592.48 1209.116)"/><circle class="cls-2" cx=".6" cy="31.61" r=".6"/><circle class="cls-2" cx="283.94" cy="217.04" r=".6" transform="rotate(-75.01 16.741 304.213)"/><circle class="cls-2" cx="287.04" cy="209.56" r=".6" transform="rotate(-59.99 -21.704 357.337)"/><circle class="cls-2" cx="291.96" cy="203.14" r=".6" transform="rotate(-45 -82.702 447.156)"/><circle class="cls-2" cx="298.39" cy="198.21" r=".6" transform="rotate(-29.98 -203.957 628.601)"/><circle class="cls-2" cx="305.86" cy="195.11" r=".6" transform="rotate(-15.02 -569.069 1168.978)"/><circle class="cls-2" cx="320.28" cy="201.23" r="1.2" transform="rotate(-75 53.058 288.444)"/><circle class="cls-2" cx="326.23" cy="203.7" r="1.2" transform="rotate(-59.99 17.532 351.484)"/><circle class="cls-2" cx="331.34" cy="207.62" r="1.2" transform="rotate(-45 -43.33 451.628)"/><circle class="cls-2" cx="335.26" cy="212.73" r="1.2" transform="rotate(-29.99 -166.993 642.938)"/><circle class="cls-2" cx="337.72" cy="218.68" r="1.2" transform="rotate(-15.01 -537.539 1193.337)"/><circle class="cls-3" cx="328.63" cy="234.45" r="1.2" transform="rotate(-15.01 -546.608 1209.131)"/><circle class="cls-3" cx="313.89" cy="210.02" r="1.2" transform="rotate(-15 -561.904 1185.398)"/><circle class="cls-3" cx="299.5" cy="234.45" r="1.2" transform="rotate(-15.01 -575.758 1209.114)"/><circle class="cls-2" cx="290.06" cy="218.68" r="1.2" transform="rotate(-75.01 22.873 305.855)"/><circle class="cls-2" cx="292.52" cy="212.73" r="1.2" transform="matrix(.5 -.87 .87 .5 -320.28 166.17)"/><circle class="cls-2" cx="296.44" cy="207.62" r="1.2" transform="rotate(-45 -78.219 451.63)"/><circle class="cls-2" cx="301.55" cy="203.7" r="1.2" transform="matrix(.87 -.5 .5 .87 -343.73 -15.42)"/><circle class="cls-2" cx="307.5" cy="201.23" r="1.2" transform="rotate(-15 -568.28 1176.6)"/><path class="cls-3" transform="rotate(-45 -54.81 470.673)" d="M319.73 218.39h.25v16.53h-.25z"/><path class="cls-3" transform="rotate(-44.99 -66.781 470.688)" d="M299.63 226.47h16.71v.25h-16.71z"/><path class="cls-3" d="M31.48 19.82h.25v18.97h-.25z"/></svg>