<svg preserveAspectRatio="none" id="OBJECTS" xmlns="http://www.w3.org/2000/svg" xmlns:xlink="http://www.w3.org/1999/xlink" viewBox="0 0 345.67 351.92"><defs><linearGradient id="linear-gradient" x1="185.98" y1="239.93" x2="313.39" y2="239.93" gradientUnits="userSpaceOnUse"><stop offset="0" stop-color="#5fd7f2"/><stop offset=".99" stop-color="#398cbc"/></linearGradient><linearGradient id="linear-gradient-2" x1="250.24" y1="186.58" x2="265.03" y2="186.58" xlink:href="#linear-gradient"/><linearGradient id="linear-gradient-3" x1="234.73" y1="186.53" x2="249.13" y2="186.53" xlink:href="#linear-gradient"/><linearGradient id="linear-gradient-4" x1="189.87" y1="249.78" x2="203.26" y2="249.78" xlink:href="#linear-gradient"/><linearGradient id="linear-gradient-5" x1="191.34" y1="220.58" x2="206.7" y2="220.58" xlink:href="#linear-gradient"/><linearGradient id="linear-gradient-6" x1="218.94" y1="190.33" x2="236.52" y2="190.33" xlink:href="#linear-gradient"/><linearGradient id="linear-gradient-7" x1="263.18" y1="190.48" x2="280.79" y2="190.48" xlink:href="#linear-gradient"/><linearGradient id="linear-gradient-8" x1="197.37" y1="207.95" x2="213.85" y2="207.95" xlink:href="#linear-gradient"/><linearGradient id="linear-gradient-9" x1="285.52" y1="208.1" x2="302.21" y2="208.1" xlink:href="#linear-gradient"/><linearGradient id="linear-gradient-10" x1="283.06" y1="274.98" x2="299.79" y2="274.98" xlink:href="#linear-gradient"/><linearGradient id="linear-gradient-11" x1="199.37" y1="274.85" x2="216.32" y2="274.85" xlink:href="#linear-gradient"/><linearGradient id="linear-gradient-12" x1="189.79" y1="234.7" x2="202.18" y2="234.7" xlink:href="#linear-gradient"/><linearGradient id="linear-gradient-13" x1="292.82" y1="220.92" x2="308.13" y2="220.92" xlink:href="#linear-gradient"/><linearGradient id="linear-gradient-14" x1="290.53" y1="263.44" x2="306.78" y2="263.44" xlink:href="#linear-gradient"/><linearGradient id="linear-gradient-15" x1="297.25" y1="234.89" x2="309.58" y2="234.89" xlink:href="#linear-gradient"/><linearGradient id="linear-gradient-16" x1="273.46" y1="283.88" x2="290.35" y2="283.88" xlink:href="#linear-gradient"/><linearGradient id="linear-gradient-17" x1="296.02" y1="249.97" x2="309.5" y2="249.97" xlink:href="#linear-gradient"/><linearGradient id="linear-gradient-18" x1="275.89" y1="197.96" x2="292.85" y2="197.96" xlink:href="#linear-gradient"/><linearGradient id="linear-gradient-19" x1="206.52" y1="197.85" x2="223.77" y2="197.85" xlink:href="#linear-gradient"/><linearGradient id="linear-gradient-20" x1="192.47" y1="263.12" x2="208.67" y2="263.12" xlink:href="#linear-gradient"/><linearGradient id="linear-gradient-21" x1="209.02" y1="283.79" x2="225.64" y2="283.79" xlink:href="#linear-gradient"/><linearGradient id="linear-gradient-22" x1="220.77" y1="290.19" x2="237.41" y2="290.19" xlink:href="#linear-gradient"/><linearGradient id="linear-gradient-23" x1="250.24" y1="293.47" x2="263.44" y2="293.47" xlink:href="#linear-gradient"/><linearGradient id="linear-gradient-24" x1="235.56" y1="293.43" x2="249.13" y2="293.43" xlink:href="#linear-gradient"/><linearGradient id="linear-gradient-25" x1="261.66" y1="290.31" x2="278.27" y2="290.31" xlink:href="#linear-gradient"/><linearGradient id="linear-gradient-26" x1="198.98" y1="77.29" x2="245.87" y2="77.29" xlink:href="#linear-gradient"/><linearGradient id="linear-gradient-27" x1="147.54" y1="89.67" x2="204.79" y2="89.67" xlink:href="#linear-gradient"/><linearGradient id="linear-gradient-28" x1="107.11" y1="114.14" x2="163.27" y2="114.14" xlink:href="#linear-gradient"/><linearGradient id="linear-gradient-29" x1="205.07" y1="239.93" x2="294.3" y2="239.93" xlink:href="#linear-gradient"/><linearGradient id="linear-gradient-30" x1="144.57" y1="228.93" x2="391.17" y2="228.93" gradientTransform="rotate(-25.8 258.087 263.668)" xlink:href="#linear-gradient"/><style>.cls-32{fill:none;stroke-miterlimit:10}.cls-38{fill:#07a5fb}.cls-32{stroke:#07a5fb;stroke-width:.46px}</style></defs><path d="M249.68 303.64a63.71 63.71 0 1163.71-63.71 63.78 63.78 0 01-63.71 63.71zm0-126.24a62.53 62.53 0 1062.54 62.53 62.61 62.61 0 00-62.54-62.53z" transform="translate(-78.84 -56.18)" fill="url(#linear-gradient)"/><path d="M250.24 191.5a48.23 48.23 0 0111.88 1.61L265 182a59.77 59.77 0 00-14.8-2v11.5z" transform="translate(-78.84 -56.18)" fill="url(#linear-gradient-2)"/><path d="M237.58 193a48.35 48.35 0 0111.56-1.52V180a59.79 59.79 0 00-14.4 1.87z" transform="translate(-78.84 -56.18)" fill="url(#linear-gradient-3)"/><path d="M203.26 253.75a48.13 48.13 0 01-1.92-10.75h-11.47a59.5 59.5 0 002.3 13.64z" transform="translate(-78.84 -56.18)" fill="url(#linear-gradient-4)"/><path d="M202.41 229.38a48.05 48.05 0 014.29-11.76l-9.87-5.84a59.46 59.46 0 00-5.5 14.68z" transform="translate(-78.84 -56.18)" fill="url(#linear-gradient-5)"/><path d="M224.7 198.44a48.24 48.24 0 0111.82-5.12l-2.85-11.09a59.57 59.57 0 00-14.74 6.33z" transform="translate(-78.84 -56.18)" fill="url(#linear-gradient-6)"/><path d="M266.09 182.34l-2.92 11.07a48.2 48.2 0 0111.83 5.2l5.83-9.85a59.61 59.61 0 00-14.74-6.42z" transform="translate(-78.84 -56.18)" fill="url(#linear-gradient-7)"/><path d="M197.37 210.82l9.85 5.83a48.68 48.68 0 016.64-9.29l-8.09-8.09a60.17 60.17 0 00-8.4 11.55z" transform="translate(-78.84 -56.18)" fill="url(#linear-gradient-8)"/><path d="M285.52 207.36a48.73 48.73 0 016.8 9.57l9.89-5.76a60.2 60.2 0 00-8.6-11.9z" transform="translate(-78.84 -56.18)" fill="url(#linear-gradient-9)"/><path d="M289.93 266.87a48.79 48.79 0 01-6.88 8.13l8.09 8.09a60.18 60.18 0 008.64-10.4z" transform="translate(-78.84 -56.18)" fill="url(#linear-gradient-10)"/><path d="M209.27 266.6l-9.9 5.77a60.25 60.25 0 008.85 10.72l8.09-8.09a48.78 48.78 0 01-7.04-8.4z" transform="translate(-78.84 -56.18)" fill="url(#linear-gradient-11)"/><path d="M201.24 239.93a48.49 48.49 0 01.94-9.47l-11.09-2.92a59.92 59.92 0 00-1.3 12.4v1.93h11.45c.02-.65 0-1.29 0-1.94z" transform="translate(-78.84 -56.18)" fill="url(#linear-gradient-12)"/><path d="M302.72 212.14l-9.9 5.77a48.17 48.17 0 014.18 11.78l11.09-2.85a59.53 59.53 0 00-5.37-14.7z" transform="translate(-78.84 -56.18)" fill="url(#linear-gradient-13)"/><path d="M295.68 255.11a48.44 48.44 0 01-5.16 10.83l9.86 5.83a59.6 59.6 0 006.4-13.73z" transform="translate(-78.84 -56.18)" fill="url(#linear-gradient-14)"/><path d="M308.37 227.92l-11.12 2.85a48.46 48.46 0 01.88 9.16v1.93h11.45v-1.93a59.78 59.78 0 00-1.21-12.01z" transform="translate(-78.84 -56.18)" fill="url(#linear-gradient-15)"/><path d="M282.26 275.76a48.83 48.83 0 01-8.8 6.36l5.76 9.89a60.23 60.23 0 0011.13-8.15z" transform="translate(-78.84 -56.18)" fill="url(#linear-gradient-16)"/><path d="M298 243a48.1 48.1 0 01-2 11.1l11.1 2.9a59.57 59.57 0 002.41-14H298z" transform="translate(-78.84 -56.18)" fill="url(#linear-gradient-17)"/><path d="M275.89 199.21a48.83 48.83 0 018.87 7.35l8.09-8.09a60.37 60.37 0 00-11.13-9.11z" transform="translate(-78.84 -56.18)" fill="url(#linear-gradient-18)"/><path d="M214.61 206.56a48.81 48.81 0 019.15-7.53l-5.77-9.9a60.37 60.37 0 00-11.48 9.33z" transform="translate(-78.84 -56.18)" fill="url(#linear-gradient-19)"/><path d="M208.67 265.67a48.24 48.24 0 01-5.09-10.86l-11.12 2.85a59.6 59.6 0 006.31 13.78z" transform="translate(-78.84 -56.18)" fill="url(#linear-gradient-20)"/><path d="M225.64 282a48.73 48.73 0 01-8.53-6.2l-8.11 8.05a60.27 60.27 0 0010.79 8z" transform="translate(-78.84 -56.18)" fill="url(#linear-gradient-21)"/><path d="M237.41 286.8a48.13 48.13 0 01-10.82-4.29l-5.83 9.85a59.51 59.51 0 0013.73 5.51z" transform="translate(-78.84 -56.18)" fill="url(#linear-gradient-22)"/><path d="M260.59 287.13a48.34 48.34 0 01-10.35 1.24v11.45a59.88 59.88 0 0013.2-1.6z" transform="translate(-78.84 -56.18)" fill="url(#linear-gradient-23)"/><path d="M249.13 288.36a48.44 48.44 0 01-10.65-1.31l-2.92 11.07a59.65 59.65 0 0013.57 1.69v-11.45z" transform="translate(-78.84 -56.18)" fill="url(#linear-gradient-24)"/><path d="M272.5 282.65a48.23 48.23 0 01-10.84 4.22l2.85 11.13a59.63 59.63 0 0013.76-5.41z" transform="translate(-78.84 -56.18)" fill="url(#linear-gradient-25)"/><path d="M199 62.29l9.26 36.12a157.36 157.36 0 0137.63-4.94V56.18A194.6 194.6 0 00199 62.29z" transform="translate(-78.84 -56.18)" fill="url(#linear-gradient-26)"/><path d="M147.54 83.87l18.76 32.2a157 157 0 0138.49-16.69l-9.26-36.11a194 194 0 00-47.99 20.6z" transform="translate(-78.84 -56.18)" fill="url(#linear-gradient-27)"/><path d="M107.11 116.16l26.35 26.35A159 159 0 01163.27 118l-18.78-32.23a196.46 196.46 0 00-37.38 30.39z" transform="translate(-78.84 -56.18)" fill="url(#linear-gradient-28)"/><path d="M292.52 252.39l.14-.48c.14-.49.27-1 .39-1.48 0-.15.09-.3.12-.46a44.58 44.58 0 00-43.46-54.65h-.59a44.08 44.08 0 00-44 44v.59a44.61 44.61 0 0086.82 14.46v-.07q.3-.93.58-1.91zm-86.17-12.47v-.59h4.22a38.56 38.56 0 0138.51-38.51v-4.22h.59a43.3 43.3 0 0142.21 53.08l-4.2-1a39.19 39.19 0 01-47.06 29.16l-1 4.23a43.4 43.4 0 01-33.27-42.14z" transform="translate(-78.84 -56.18)" fill="url(#linear-gradient-29)"/><path d="M208.16 273.2l37.78 78.17a194.31 194.31 0 0099.22-106.66l-82.11-28.59a107.73 107.73 0 01-54.89 57.08z" stroke-width=".83" stroke-miterlimit="10" stroke="#5fd7f2" fill="none"/><path d="M34.81 88.16c.4-.51.82-1 1.22-1.5l-1.57-1.22c-.4.51-.82 1-1.22 1.5-52.08 67.29-39.75 164.41 27.54 216.51l1.22-1.57c-66.42-51.43-78.62-147.3-27.19-213.72z" stroke-width="1.99" stroke="#07a5fb" fill="#07a5fb" stroke-miterlimit="10"/><path class="cls-32" d="M297.34 198.3q1 .95 2 1.92l1.91-2" transform="translate(-78.84 -56.18)"/><path stroke-dasharray="5.26 5.26" stroke-width=".46" stroke="#07a5fb" stroke-miterlimit="10" fill="none" d="M226.03 138.3l71.33-73.58"/><path class="cls-32" d="M378 119l1.91-2-2-1.91" transform="translate(-78.84 -56.18)"/><path d="M295.29 55.36a216.06 216.06 0 00-59.22-38.54" stroke-dasharray="5.26 5.26" stroke-width=".46" stroke="#07a5fb" stroke-miterlimit="10" fill="none"/><path class="cls-32" d="M312.5 72l-2.5-1.08-1 2.54" transform="translate(-78.84 -56.18)"/><path stroke-dasharray="5.25 5.25" stroke-width=".46" stroke="#07a5fb" stroke-miterlimit="10" fill="none" d="M228.1 22.14l-38.74 94.79"/><path class="cls-32" d="M267.21 175.54l-1 2.54q1.27.52 2.53 1.07" transform="translate(-78.84 -56.18)"/><path d="M194.33 125.08a99.79 99.79 0 0122.36 15.36" stroke-dasharray="4.95 4.95" stroke-width=".46" stroke="#07a5fb" stroke-miterlimit="10" fill="none"/><path d="M206.44 113.57l5.23 15a115.68 115.68 0 1077.9 217.8l-.41-.84a117 117 0 1166.43-147l.24-.08a114.41 114.41 0 011.41 75.55l.88.31a115.35 115.35 0 00-1.41-76.22l14.17-4.92c-23.38-67.25-97.15-102.98-164.44-79.6zm29.67 9.75A113.08 113.08 0 01303.85 137a116.25 116.25 0 00-67.74-13.69zm69 14.36l.19.1z" transform="translate(-78.84 -56.18)" fill="url(#linear-gradient-30)"/><path class="cls-38" d="M248.45 179.32l-.06.06v8.74l.05.06 4.78-4.42-4.77-4.44zM256.95 179.32l-.06.06v8.74l.05.06 4.78-4.42-4.77-4.44zM265.45 179.32l-.06.06v8.74l.05.06 4.78-4.42-4.77-4.44zM90.16 179.32l.06.06v8.74l-.05.06-4.78-4.42 4.77-4.44zM81.66 179.32l.06.06v8.74l-.05.06-4.78-4.42 4.77-4.44zM73.16 179.32l.06.06v8.74l-.05.06-4.78-4.42 4.77-4.44z"/><circle cx="170.85" cy="183.75" r="10.2" stroke-width=".5" stroke-dasharray="5.49" stroke-miterlimit="10" stroke="#5fd7f2" fill="none"/><path class="cls-38" d="M381.9 298.13l7.32 3.22c-.76 1.72-1.56 3.46-2.39 5.16l-7.2-3.49a152.6 152.6 0 002.27-4.89zM385.87 288.1l7.54 2.67c-.63 1.79-1.31 3.59-2 5.33l-7.41-2.94c.63-1.66 1.27-3.36 1.87-5.06zM365.68 326l6.42 4.77c-1.12 1.51-2.29 3-3.48 4.51l-6.24-5c1.12-1.4 2.23-2.83 3.3-4.28zM389.07 277.8l7.72 2.09c-.49 1.81-1 3.65-1.59 5.47l-7.64-2.36c.54-1.74 1.05-3.48 1.51-5.2zM371.78 317.12l6.76 4.28c-1 1.59-2.06 3.19-3.13 4.75l-6.6-4.53c1.02-1.48 2.02-2.99 2.97-4.5zM377.19 307.81l7.06 3.76c-.88 1.66-1.81 3.33-2.77 5l-6.92-4c.92-1.57 1.8-3.19 2.63-4.76zM393.94 245.85l8 .32c-.07 1.89-.19 3.8-.33 5.69l-8-.61c.16-1.79.26-3.61.33-5.4zM391.49 267.29l7.86 1.5c-.36 1.87-.75 3.74-1.17 5.58l-7.79-1.8c.39-1.74.76-3.52 1.1-5.28z" transform="translate(-78.84 -56.18)"/><path class="cls-38" d="M315.22 183.85h8v.44h-8z"/><path class="cls-38" d="M358.93 334.43l6.05 5.23c-1.23 1.42-2.51 2.85-3.8 4.24l-5.85-5.45c1.22-1.32 2.43-2.67 3.6-4.02zM393.12 256.62l7.95.91c-.22 1.88-.47 3.78-.75 5.64l-7.91-1.2c.26-1.77.5-3.57.71-5.35zM288.78 387.35c-1.83.48-3.69.94-5.53 1.35l-1.76-7.8c1.75-.39 3.51-.83 5.24-1.28zM351.57 342.32l5.64 5.67c-1.34 1.34-2.73 2.66-4.11 3.94l-5.43-5.87c1.33-1.21 2.63-2.47 3.9-3.74zM277.66 389.85c-1.86.34-3.75.66-5.62.93l-1.16-7.92c1.77-.26 3.56-.56 5.32-.88zM310.33 379.86c-1.74.76-3.52 1.49-5.28 2.18l-2.91-7.45c1.67-.65 3.35-1.34 5-2.06zM266.39 391.51c-1.87.2-3.78.38-5.67.51l-.57-8c1.79-.13 3.6-.29 5.37-.49zM249.67 384.42c1.68 0 3.39 0 5.08-.09l.28 8c-1.77.06-3.57.09-5.36.09v-8zM299.69 384c-1.79.62-3.62 1.22-5.43 1.77l-2.34-7.65c1.72-.52 3.45-1.09 5.15-1.68zM320.62 374.92c-1.67.88-3.38 1.74-5.1 2.57l-3.46-7.21c1.62-.78 3.25-1.6 4.83-2.43zM339.93 362.82c-1.52 1.12-3.08 2.23-4.65 3.3l-4.5-6.62c1.49-1 3-2.06 4.41-3.12zM343.64 349.66l5.21 6.07c-1.43 1.23-2.91 2.45-4.39 3.63l-5-6.26c1.42-1.1 2.83-2.28 4.18-3.44zM330.51 369.23c-1.61 1-3.25 2-4.89 2.94l-4-6.93c1.55-.89 3.11-1.83 4.63-2.78z" transform="translate(-78.84 -56.18)"/></svg>