<svg preserveAspectRatio="none" id="央铋_1" data-name="央铋 1" xmlns="http://www.w3.org/2000/svg" xmlns:xlink="http://www.w3.org/1999/xlink" viewBox="0 0 44.03 44.03"><defs><style>.cls-1{opacity:0.4;}.cls-2{fill:url(#铃琨眄_沭噤桢眚_28);}.cls-3{fill:url(#铃琨眄_沭噤桢眚_28-2);}.cls-4{fill:url(#铃琨眄_沭噤桢眚_2);}.cls-5{fill:url(#铃琨眄_沭噤桢眚_2-2);}.cls-6{fill:url(#铃琨眄_沭噤桢眚_28-3);}.cls-7{fill:url(#铃琨眄_沭噤桢眚_28-4);}.cls-8{fill:url(#铃琨眄_沭噤桢眚_2-3);}.cls-9{fill:url(#铃琨眄_沭噤桢眚_2-4);}.cls-10{opacity:0.6;}.cls-11{fill:url(#铃琨眄_沭噤桢眚_28-5);}.cls-12{fill:url(#铃琨眄_沭噤桢眚_28-6);}.cls-13{fill:url(#铃琨眄_沭噤桢眚_2-5);}.cls-14{fill:url(#铃琨眄_沭噤桢眚_2-6);}.cls-15{fill:url(#铃琨眄_沭噤桢眚_28-7);}.cls-16{fill:url(#铃琨眄_沭噤桢眚_28-8);}.cls-17{fill:url(#铃琨眄_沭噤桢眚_2-7);}.cls-18{fill:url(#铃琨眄_沭噤桢眚_2-8);}.cls-19{opacity:0.8;}.cls-20{fill:url(#铃琨眄_沭噤桢眚_28-9);}.cls-21{fill:url(#铃琨眄_沭噤桢眚_28-10);}.cls-22{fill:url(#铃琨眄_沭噤桢眚_2-9);}.cls-23{fill:url(#铃琨眄_沭噤桢眚_2-10);}.cls-24{fill:url(#铃琨眄_沭噤桢眚_28-11);}.cls-25{fill:url(#铃琨眄_沭噤桢眚_28-12);}.cls-26{fill:url(#铃琨眄_沭噤桢眚_2-11);}.cls-27{fill:url(#铃琨眄_沭噤桢眚_2-12);}.cls-28{fill:url(#铃琨眄_沭噤桢眚_28-13);}.cls-29{fill:url(#铃琨眄_沭噤桢眚_28-14);}.cls-30{fill:url(#铃琨眄_沭噤桢眚_2-13);}.cls-31{fill:url(#铃琨眄_沭噤桢眚_2-14);}.cls-32{fill:url(#铃琨眄_沭噤桢眚_28-15);}.cls-33{fill:url(#铃琨眄_沭噤桢眚_28-16);}.cls-34{fill:url(#铃琨眄_沭噤桢眚_2-15);}.cls-35{fill:url(#铃琨眄_沭噤桢眚_2-16);}.cls-36{opacity:0.3;}.cls-37{fill:url(#铃琨眄_沭噤桢眚_33);}.cls-38{fill:url(#铃琨眄_沭噤桢眚_33-2);}.cls-39{fill:url(#铃琨眄_沭噤桢眚_2-17);}.cls-40{fill:url(#铃琨眄_沭噤桢眚_2-18);}.cls-41{fill:url(#铃琨眄_沭噤桢眚_33-3);}.cls-42{fill:url(#铃琨眄_沭噤桢眚_33-4);}.cls-43{fill:url(#铃琨眄_沭噤桢眚_2-19);}.cls-44{fill:url(#铃琨眄_沭噤桢眚_2-20);}.cls-45{fill:#7ff;}.cls-46{fill:#fc5f80;}</style><linearGradient id="铃琨眄_沭噤桢眚_28" x1="228.18" y1="44.5" x2="230.93" y2="44.5" gradientTransform="matrix(0.67, -0.74, 0.74, 0.67, 51.04, 194.07)" gradientUnits="userSpaceOnUse"><stop offset="0" stop-color="#b9004c"/><stop offset="1" stop-color="#fc5f80"/></linearGradient><linearGradient id="铃琨眄_沭噤桢眚_28-2" x1="229.98" y1="58.53" x2="234.7" y2="58.53" xlink:href="#铃琨眄_沭噤桢眚_28"/><linearGradient id="铃琨眄_沭噤桢眚_2" x1="261.07" y1="37.76" x2="265.78" y2="37.76" gradientTransform="matrix(0.67, -0.74, 0.74, 0.67, 51.04, 194.07)" gradientUnits="userSpaceOnUse"><stop offset="0" stop-color="#009fff"/><stop offset="1" stop-color="#7ff"/></linearGradient><linearGradient id="铃琨眄_沭噤桢眚_2-2" x1="264.83" y1="51.79" x2="267.58" y2="51.79" xlink:href="#铃琨眄_沭噤桢眚_2"/><linearGradient id="铃琨眄_沭噤桢眚_28-3" x1="255.16" y1="63.69" x2="261.37" y2="63.69" xlink:href="#铃琨眄_沭噤桢眚_28"/><linearGradient id="铃琨眄_沭噤桢眚_28-4" x1="240.73" y1="66.47" x2="247.75" y2="66.47" xlink:href="#铃琨眄_沭噤桢眚_28"/><linearGradient id="铃琨眄_沭噤桢眚_2-3" x1="248.02" y1="29.82" x2="255.03" y2="29.82" xlink:href="#铃琨眄_沭噤桢眚_2"/><linearGradient id="铃琨眄_沭噤桢眚_2-4" x1="234.4" y1="32.6" x2="240.6" y2="32.6" xlink:href="#铃琨眄_沭噤桢眚_2"/><linearGradient id="铃琨眄_沭噤桢眚_28-5" x1="227.83" y1="29.76" x2="230.71" y2="29.76" gradientTransform="translate(7.64 96.13) rotate(-20.24)" xlink:href="#铃琨眄_沭噤桢眚_28"/><linearGradient id="铃琨眄_沭噤桢眚_28-6" x1="229.72" y1="44.46" x2="234.66" y2="44.46" gradientTransform="translate(7.64 96.13) rotate(-20.24)" xlink:href="#铃琨眄_沭噤桢眚_28"/><linearGradient id="铃琨眄_沭噤桢眚_2-5" x1="262.29" y1="22.7" x2="267.23" y2="22.7" gradientTransform="translate(7.64 96.13) rotate(-20.24)" xlink:href="#铃琨眄_沭噤桢眚_2"/><linearGradient id="铃琨眄_沭噤桢眚_2-6" x1="266.24" y1="37.4" x2="269.12" y2="37.4" gradientTransform="translate(7.64 96.13) rotate(-20.24)" xlink:href="#铃琨眄_沭噤桢眚_2"/><linearGradient id="铃琨眄_沭噤桢眚_28-7" x1="256.1" y1="49.87" x2="262.6" y2="49.87" gradientTransform="translate(7.64 96.13) rotate(-20.24)" xlink:href="#铃琨眄_沭噤桢眚_28"/><linearGradient id="铃琨眄_沭噤桢眚_28-8" x1="240.98" y1="52.79" x2="248.33" y2="52.79" gradientTransform="translate(7.64 96.13) rotate(-20.24)" xlink:href="#铃琨眄_沭噤桢眚_28"/><linearGradient id="铃琨眄_沭噤桢眚_2-7" x1="248.62" y1="14.38" x2="255.97" y2="14.38" gradientTransform="translate(7.64 96.13) rotate(-20.24)" xlink:href="#铃琨眄_沭噤桢眚_2"/><linearGradient id="铃琨眄_沭噤桢眚_2-8" x1="234.35" y1="17.29" x2="240.85" y2="17.29" gradientTransform="translate(7.64 96.13) rotate(-20.24)" xlink:href="#铃琨眄_沭噤桢眚_2"/><linearGradient id="铃琨眄_沭噤桢眚_28-9" x1="229.39" y1="42.91" x2="232.32" y2="42.91" gradientTransform="matrix(0.6, -0.8, 0.8, 0.6, 65.63, 214.96)" xlink:href="#铃琨眄_沭噤桢眚_28"/><linearGradient id="铃琨眄_沭噤桢眚_28-10" x1="231.31" y1="57.88" x2="236.35" y2="57.88" gradientTransform="matrix(0.6, -0.8, 0.8, 0.6, 65.63, 214.96)" xlink:href="#铃琨眄_沭噤桢眚_28"/><linearGradient id="铃琨眄_沭噤桢眚_2-9" x1="264.49" y1="35.72" x2="269.53" y2="35.72" gradientTransform="matrix(0.6, -0.8, 0.8, 0.6, 65.63, 214.96)" xlink:href="#铃琨眄_沭噤桢眚_2"/><linearGradient id="铃琨眄_沭噤桢眚_2-10" x1="268.52" y1="50.69" x2="271.45" y2="50.69" gradientTransform="matrix(0.6, -0.8, 0.8, 0.6, 65.63, 214.96)" xlink:href="#铃琨眄_沭噤桢眚_2"/><linearGradient id="铃琨眄_沭噤桢眚_28-11" x1="258.19" y1="63.39" x2="264.82" y2="63.39" gradientTransform="matrix(0.6, -0.8, 0.8, 0.6, 65.63, 214.96)" xlink:href="#铃琨眄_沭噤桢眚_28"/><linearGradient id="铃琨眄_沭噤桢眚_28-12" x1="242.79" y1="66.36" x2="250.28" y2="66.36" gradientTransform="matrix(0.6, -0.8, 0.8, 0.6, 65.63, 214.96)" xlink:href="#铃琨眄_沭噤桢眚_28"/><linearGradient id="铃琨眄_沭噤桢眚_2-11" x1="250.57" y1="27.23" x2="258.06" y2="27.23" gradientTransform="matrix(0.6, -0.8, 0.8, 0.6, 65.63, 214.96)" xlink:href="#铃琨眄_沭噤桢眚_2"/><linearGradient id="铃琨眄_沭噤桢眚_2-12" x1="236.03" y1="30.21" x2="242.65" y2="30.21" gradientTransform="matrix(0.6, -0.8, 0.8, 0.6, 65.63, 214.96)" xlink:href="#铃琨眄_沭噤桢眚_2"/><linearGradient id="铃琨眄_沭噤桢眚_28-13" x1="230.44" y1="37.67" x2="233.51" y2="37.67" gradientTransform="translate(44.35 190.66) rotate(-45)" xlink:href="#铃琨眄_沭噤桢眚_28"/><linearGradient id="铃琨眄_沭噤桢眚_28-14" x1="232.45" y1="53.34" x2="237.73" y2="53.34" gradientTransform="translate(44.35 190.66) rotate(-45)" xlink:href="#铃琨眄_沭噤桢眚_28"/><linearGradient id="铃琨眄_沭噤桢眚_2-13" x1="267.18" y1="30.14" x2="272.46" y2="30.14" gradientTransform="translate(44.35 190.66) rotate(-45)" xlink:href="#铃琨眄_沭噤桢眚_2"/><linearGradient id="铃琨眄_沭噤桢眚_2-14" x1="271.4" y1="45.82" x2="274.47" y2="45.82" gradientTransform="translate(44.35 190.66) rotate(-45)" xlink:href="#铃琨眄_沭噤桢眚_2"/><linearGradient id="铃琨眄_沭噤桢眚_28-15" x1="260.59" y1="59.11" x2="267.52" y2="59.11" gradientTransform="translate(44.35 190.66) rotate(-45)" xlink:href="#铃琨眄_沭噤桢眚_28"/><linearGradient id="铃琨眄_沭噤桢眚_28-16" x1="244.46" y1="62.22" x2="252.3" y2="62.22" gradientTransform="translate(44.35 190.66) rotate(-45)" xlink:href="#铃琨眄_沭噤桢眚_28"/><linearGradient id="铃琨眄_沭噤桢眚_2-15" x1="252.61" y1="21.27" x2="260.45" y2="21.27" gradientTransform="translate(44.35 190.66) rotate(-45)" xlink:href="#铃琨眄_沭噤桢眚_2"/><linearGradient id="铃琨眄_沭噤桢眚_2-16" x1="237.39" y1="24.38" x2="244.32" y2="24.38" gradientTransform="translate(44.35 190.66) rotate(-45)" xlink:href="#铃琨眄_沭噤桢眚_2"/><linearGradient id="铃琨眄_沭噤桢眚_33" x1="229.75" y1="44.54" x2="232.23" y2="44.54" gradientTransform="translate(122.57 257.79) rotate(-69.95)" xlink:href="#铃琨眄_沭噤桢眚_28"/><linearGradient id="铃琨眄_沭噤桢眚_33-2" x1="231.37" y1="57.19" x2="235.63" y2="57.19" gradientTransform="translate(122.57 257.79) rotate(-69.95)" xlink:href="#铃琨眄_沭噤桢眚_28"/><linearGradient id="铃琨眄_沭噤桢眚_2-17" x1="259.42" y1="38.46" x2="263.67" y2="38.46" gradientTransform="translate(122.57 257.79) rotate(-69.95)" xlink:href="#铃琨眄_沭噤桢眚_2"/><linearGradient id="铃琨眄_沭噤桢眚_2-18" x1="262.82" y1="51.11" x2="265.3" y2="51.11" gradientTransform="translate(122.57 257.79) rotate(-69.95)" xlink:href="#铃琨眄_沭噤桢眚_2"/><linearGradient id="铃琨眄_沭噤桢眚_33-3" x1="254.09" y1="61.85" x2="259.69" y2="61.85" gradientTransform="translate(122.57 257.79) rotate(-69.95)" xlink:href="#铃琨眄_沭噤桢眚_28"/><linearGradient id="铃琨眄_沭噤桢眚_33-4" x1="241.07" y1="64.36" x2="247.4" y2="64.36" gradientTransform="translate(122.57 257.79) rotate(-69.95)" xlink:href="#铃琨眄_沭噤桢眚_28"/><linearGradient id="铃琨眄_沭噤桢眚_2-19" x1="247.65" y1="31.29" x2="253.98" y2="31.29" gradientTransform="translate(122.57 257.79) rotate(-69.95)" xlink:href="#铃琨眄_沭噤桢眚_2"/><linearGradient id="铃琨眄_沭噤桢眚_2-20" x1="235.36" y1="33.8" x2="240.96" y2="33.8" gradientTransform="translate(122.57 257.79) rotate(-69.95)" xlink:href="#铃琨眄_沭噤桢眚_2"/></defs><title>circle102</title><g class="cls-1"><path class="cls-2" d="M235.44,49.94h0A0.84,0.84,0,0,0,235,51.1a19.64,19.64,0,0,0,3.42,4.56,0.85,0.85,0,0,0,1.22,0h0a0.84,0.84,0,0,0,0-1.17,18,18,0,0,1-3.1-4.13A0.84,0.84,0,0,0,235.44,49.94Z" transform="translate(-230.36 -19.65)"/><path class="cls-3" d="M246.25,59.5h0a0.85,0.85,0,0,0,.54,1.09,19.76,19.76,0,0,0,5.65.8,0.84,0.84,0,0,0,.83-0.9h0a0.85,0.85,0,0,0-.86-0.8,18.06,18.06,0,0,1-5.11-.72A0.85,0.85,0,0,0,246.25,59.5Z" transform="translate(-230.36 -19.65)"/><path class="cls-4" d="M258.5,23.83h0a0.84,0.84,0,0,0-.54-1.09,19.76,19.76,0,0,0-5.65-.8,0.84,0.84,0,0,0-.83.9h0a0.85,0.85,0,0,0,.86.8,18.06,18.06,0,0,1,5.11.72A0.85,0.85,0,0,0,258.5,23.83Z" transform="translate(-230.36 -19.65)"/><path class="cls-5" d="M269.31,33.39h0a0.84,0.84,0,0,0,.39-1.15,19.63,19.63,0,0,0-3.42-4.56,0.85,0.85,0,0,0-1.22,0h0a0.84,0.84,0,0,0,0,1.17A18,18,0,0,1,268.2,33,0.84,0.84,0,0,0,269.31,33.39Z" transform="translate(-230.36 -19.65)"/><path class="cls-6" d="M270.41,41.64a18.06,18.06,0,0,1-.72,5.11,0.85,0.85,0,0,0,.52,1h0a0.85,0.85,0,0,0,1.09-.54,19.76,19.76,0,0,0,.8-5.65,0.84,0.84,0,0,0-.9-0.83h0A0.85,0.85,0,0,0,270.41,41.64Z" transform="translate(-230.36 -19.65)"/><path class="cls-7" d="M265.15,54.4a18,18,0,0,1-4.13,3.1,0.84,0.84,0,0,0-.37,1.11h0a0.84,0.84,0,0,0,1.15.39,19.64,19.64,0,0,0,4.56-3.42,0.85,0.85,0,0,0,0-1.22h0A0.84,0.84,0,0,0,265.15,54.4Z" transform="translate(-230.36 -19.65)"/><path class="cls-8" d="M239.6,28.93a18,18,0,0,1,4.13-3.1,0.84,0.84,0,0,0,.37-1.11h0a0.84,0.84,0,0,0-1.15-.39,19.63,19.63,0,0,0-4.56,3.42,0.85,0.85,0,0,0,0,1.22h0A0.84,0.84,0,0,0,239.6,28.93Z" transform="translate(-230.36 -19.65)"/><path class="cls-9" d="M234.34,41.69a18.06,18.06,0,0,1,.72-5.11,0.85,0.85,0,0,0-.52-1h0a0.84,0.84,0,0,0-1.09.54,19.76,19.76,0,0,0-.8,5.65,0.84,0.84,0,0,0,.9.83h0A0.85,0.85,0,0,0,234.34,41.69Z" transform="translate(-230.36 -19.65)"/></g><g class="cls-10"><path class="cls-11" d="M232.63,41h0a0.88,0.88,0,0,0-.93.88,20.58,20.58,0,0,0,.93,5.9,0.89,0.89,0,0,0,1.15.55h0a0.88,0.88,0,0,0,.53-1.1,18.81,18.81,0,0,1-.85-5.34A0.88,0.88,0,0,0,232.63,41Z" transform="translate(-230.36 -19.65)"/><path class="cls-12" d="M238,55.18h0a0.89,0.89,0,0,0,0,1.28,20.7,20.7,0,0,0,4.83,3.5,0.89,0.89,0,0,0,1.21-.43h0a0.88,0.88,0,0,0-.41-1.15,18.93,18.93,0,0,1-4.38-3.17A0.88,0.88,0,0,0,238,55.18Z" transform="translate(-230.36 -19.65)"/><path class="cls-13" d="M266.79,28.15h0a0.89,0.89,0,0,0,0-1.28,20.7,20.7,0,0,0-4.83-3.5,0.89,0.89,0,0,0-1.21.43h0a0.88,0.88,0,0,0,.41,1.15,18.93,18.93,0,0,1,4.38,3.17A0.88,0.88,0,0,0,266.79,28.15Z" transform="translate(-230.36 -19.65)"/><path class="cls-14" d="M272.12,42.3h0a0.88,0.88,0,0,0,.92-0.88,20.58,20.58,0,0,0-.93-5.9A0.89,0.89,0,0,0,271,35h0a0.88,0.88,0,0,0-.53,1.1,18.81,18.81,0,0,1,.85,5.34A0.88,0.88,0,0,0,272.12,42.3Z" transform="translate(-230.36 -19.65)"/><path class="cls-15" d="M269.1,50.47a18.92,18.92,0,0,1-3.17,4.38,0.88,0.88,0,0,0,0,1.22h0a0.89,0.89,0,0,0,1.28,0,20.7,20.7,0,0,0,3.5-4.83,0.89,0.89,0,0,0-.43-1.21h0A0.88,0.88,0,0,0,269.1,50.47Z" transform="translate(-230.36 -19.65)"/><path class="cls-16" d="M258,59.72a18.81,18.81,0,0,1-5.34.85,0.88,0.88,0,0,0-.89.84h0a0.88,0.88,0,0,0,.88.93,20.58,20.58,0,0,0,5.9-.93,0.89,0.89,0,0,0,.55-1.15h0A0.89,0.89,0,0,0,258,59.72Z" transform="translate(-230.36 -19.65)"/><path class="cls-17" d="M246.78,23.61a18.81,18.81,0,0,1,5.34-.85,0.88,0.88,0,0,0,.89-0.84h0a0.88,0.88,0,0,0-.88-0.92,20.57,20.57,0,0,0-5.9.93,0.89,0.89,0,0,0-.55,1.15h0A0.89,0.89,0,0,0,246.78,23.61Z" transform="translate(-230.36 -19.65)"/><path class="cls-18" d="M235.65,32.86a18.93,18.93,0,0,1,3.17-4.38,0.88,0.88,0,0,0,0-1.22h0a0.89,0.89,0,0,0-1.28,0,20.7,20.7,0,0,0-3.5,4.83,0.89,0.89,0,0,0,.43,1.21h0A0.88,0.88,0,0,0,235.65,32.86Z" transform="translate(-230.36 -19.65)"/></g><g class="cls-19"><path class="cls-20" d="M235.19,52.14h0a0.9,0.9,0,0,0-.3,1.27,21,21,0,0,0,4.08,4.5,0.91,0.91,0,0,0,1.3-.17h0a0.9,0.9,0,0,0-.17-1.24,19.17,19.17,0,0,1-3.7-4.08A0.9,0.9,0,0,0,235.19,52.14Z" transform="translate(-230.36 -19.65)"/><path class="cls-21" d="M247.63,61.23h0a0.91,0.91,0,0,0,.69,1.11,21.1,21.1,0,0,0,6.07.29,0.91,0.91,0,0,0,.79-1h0a0.9,0.9,0,0,0-1-.76,19.28,19.28,0,0,1-5.51-.26A0.9,0.9,0,0,0,247.63,61.23Z" transform="translate(-230.36 -19.65)"/><path class="cls-22" d="M257.12,22.1h0a0.91,0.91,0,0,0-.69-1.11,21.1,21.1,0,0,0-6.07-.29,0.91,0.91,0,0,0-.79,1h0a0.9,0.9,0,0,0,1,.76,19.28,19.28,0,0,1,5.51.26A0.9,0.9,0,0,0,257.12,22.1Z" transform="translate(-230.36 -19.65)"/><path class="cls-23" d="M269.56,31.19h0a0.9,0.9,0,0,0,.3-1.27,21,21,0,0,0-4.08-4.5,0.91,0.91,0,0,0-1.3.17h0a0.9,0.9,0,0,0,.17,1.24,19.17,19.17,0,0,1,3.7,4.08A0.9,0.9,0,0,0,269.56,31.19Z" transform="translate(-230.36 -19.65)"/><path class="cls-24" d="M271.54,39.85a19.29,19.29,0,0,1-.26,5.51,0.9,0.9,0,0,0,.66,1.06h0a0.91,0.91,0,0,0,1.11-.69,21.09,21.09,0,0,0,.29-6.07,0.91,0.91,0,0,0-1-.79h0A0.9,0.9,0,0,0,271.54,39.85Z" transform="translate(-230.36 -19.65)"/><path class="cls-25" d="M267.22,53.93a19.16,19.16,0,0,1-4.08,3.7,0.9,0.9,0,0,0-.28,1.21h0a0.91,0.91,0,0,0,1.27.3,21,21,0,0,0,4.5-4.08,0.91,0.91,0,0,0-.17-1.3h0A0.9,0.9,0,0,0,267.22,53.93Z" transform="translate(-230.36 -19.65)"/><path class="cls-26" d="M237.54,29.4a19.16,19.16,0,0,1,4.08-3.7,0.9,0.9,0,0,0,.28-1.21h0a0.9,0.9,0,0,0-1.27-.3,21,21,0,0,0-4.5,4.08,0.91,0.91,0,0,0,.17,1.3h0A0.9,0.9,0,0,0,237.54,29.4Z" transform="translate(-230.36 -19.65)"/><path class="cls-27" d="M233.21,43.49a19.28,19.28,0,0,1,.26-5.51,0.9,0.9,0,0,0-.66-1.06h0a0.91,0.91,0,0,0-1.11.69,21.09,21.09,0,0,0-.29,6.07,0.91,0.91,0,0,0,1,.79h0A0.9,0.9,0,0,0,233.21,43.49Z" transform="translate(-230.36 -19.65)"/></g><path class="cls-28" d="M233,49.87h0a0.94,0.94,0,0,0-.5,1.27A21.94,21.94,0,0,0,236,56.43a1,1,0,0,0,1.37,0h0a1,1,0,0,0,0-1.31,20.06,20.06,0,0,1-3.2-4.79A1,1,0,0,0,233,49.87Z" transform="translate(-230.36 -19.65)"/><path class="cls-29" d="M244.45,61.19h0a1,1,0,0,0,.54,1.25,22.07,22.07,0,0,0,6.25,1.23,1,1,0,0,0,1-1h0a1,1,0,0,0-.91-0.94,20.18,20.18,0,0,1-5.66-1.12A1,1,0,0,0,244.45,61.19Z" transform="translate(-230.36 -19.65)"/><path class="cls-30" d="M260.3,22.14h0a1,1,0,0,0-.54-1.25,22.07,22.07,0,0,0-6.25-1.23,1,1,0,0,0-1,1h0a1,1,0,0,0,.91.94,20.18,20.18,0,0,1,5.66,1.12A1,1,0,0,0,260.3,22.14Z" transform="translate(-230.36 -19.65)"/><path class="cls-31" d="M271.77,33.46h0a0.94,0.94,0,0,0,.5-1.27,21.94,21.94,0,0,0-3.54-5.29,1,1,0,0,0-1.37,0h0a1,1,0,0,0,0,1.31,20.06,20.06,0,0,1,3.2,4.79A1,1,0,0,0,271.77,33.46Z" transform="translate(-230.36 -19.65)"/><path class="cls-32" d="M272.5,42.73a20.18,20.18,0,0,1-1.12,5.66,1,1,0,0,0,.52,1.2h0a1,1,0,0,0,1.25-.54,22.08,22.08,0,0,0,1.23-6.25,1,1,0,0,0-1-1h0A1,1,0,0,0,272.5,42.73Z" transform="translate(-230.36 -19.65)"/><path class="cls-33" d="M265.85,56.65a20.06,20.06,0,0,1-4.79,3.2,1,1,0,0,0-.48,1.22h0a0.94,0.94,0,0,0,1.27.5A21.94,21.94,0,0,0,267.14,58a1,1,0,0,0,0-1.37h0A1,1,0,0,0,265.85,56.65Z" transform="translate(-230.36 -19.65)"/><path class="cls-34" d="M238.9,26.68a20.06,20.06,0,0,1,4.79-3.2,1,1,0,0,0,.48-1.22h0a0.94,0.94,0,0,0-1.27-.5,21.94,21.94,0,0,0-5.29,3.54,1,1,0,0,0,0,1.37h0A1,1,0,0,0,238.9,26.68Z" transform="translate(-230.36 -19.65)"/><path class="cls-35" d="M232.25,40.6a20.18,20.18,0,0,1,1.12-5.66,1,1,0,0,0-.52-1.2h0a1,1,0,0,0-1.25.54,22.08,22.08,0,0,0-1.23,6.25,1,1,0,0,0,1,1h0A1,1,0,0,0,232.25,40.6Z" transform="translate(-230.36 -19.65)"/><g class="cls-36"><path class="cls-37" d="M241,54.28h0a0.76,0.76,0,0,0,.06,1.1A17.71,17.71,0,0,0,245.42,58a0.76,0.76,0,0,0,1-.45h0a0.76,0.76,0,0,0-.43-1,16.2,16.2,0,0,1-4-2.42A0.76,0.76,0,0,0,241,54.28Z" transform="translate(-230.36 -19.65)"/><path class="cls-38" d="M253.23,58.66h0a0.76,0.76,0,0,0,.82.73,17.82,17.82,0,0,0,5-1.23,0.76,0.76,0,0,0,.39-1h0a0.77,0.77,0,0,0-1-.38,16.29,16.29,0,0,1-4.52,1.11A0.77,0.77,0,0,0,253.23,58.66Z" transform="translate(-230.36 -19.65)"/><path class="cls-39" d="M251.52,24.67h0a0.76,0.76,0,0,0-.82-0.73,17.83,17.83,0,0,0-5,1.23,0.76,0.76,0,0,0-.39,1h0a0.77,0.77,0,0,0,1,.38,16.3,16.3,0,0,1,4.52-1.11A0.77,0.77,0,0,0,251.52,24.67Z" transform="translate(-230.36 -19.65)"/><path class="cls-40" d="M263.78,29.06h0a0.76,0.76,0,0,0-.06-1.1,17.72,17.72,0,0,0-4.39-2.67,0.76,0.76,0,0,0-1,.45h0a0.76,0.76,0,0,0,.43,1,16.2,16.2,0,0,1,4,2.42A0.76,0.76,0,0,0,263.78,29.06Z" transform="translate(-230.36 -19.65)"/><path class="cls-41" d="M267.47,35.6a16.3,16.3,0,0,1,1.11,4.52,0.77,0.77,0,0,0,.79.7h0A0.76,0.76,0,0,0,270.1,40a17.82,17.82,0,0,0-1.23-5,0.76,0.76,0,0,0-1-.39h0A0.77,0.77,0,0,0,267.47,35.6Z" transform="translate(-230.36 -19.65)"/><path class="cls-42" d="M267.34,48a16.19,16.19,0,0,1-2.42,4,0.76,0.76,0,0,0,.06,1.05h0a0.76,0.76,0,0,0,1.1-.06,17.71,17.71,0,0,0,2.67-4.4,0.76,0.76,0,0,0-.45-1h0A0.76,0.76,0,0,0,267.34,48Z" transform="translate(-230.36 -19.65)"/><path class="cls-43" d="M237.41,35.29a16.19,16.19,0,0,1,2.42-4,0.76,0.76,0,0,0-.06-1.05h0a0.76,0.76,0,0,0-1.1.06A17.71,17.71,0,0,0,236,34.71a0.76,0.76,0,0,0,.45,1h0A0.76,0.76,0,0,0,237.41,35.29Z" transform="translate(-230.36 -19.65)"/><path class="cls-44" d="M237.28,47.74a16.29,16.29,0,0,1-1.11-4.52,0.77,0.77,0,0,0-.79-0.7h0a0.76,0.76,0,0,0-.73.82,17.82,17.82,0,0,0,1.23,5,0.76,0.76,0,0,0,1,.39h0A0.77,0.77,0,0,0,237.28,47.74Z" transform="translate(-230.36 -19.65)"/></g><circle class="cls-45" cx="241.42" cy="30.71" r="0.43" transform="translate(-212.79 106.54) rotate(-30.35)"/><circle class="cls-46" cx="241.42" cy="52.62" r="0.43" transform="translate(-223.86 109.55) rotate(-30.35)"/><circle class="cls-45" cx="263.33" cy="52.62" r="0.43" transform="translate(-220.86 120.62) rotate(-30.35)"/></svg>