<svg preserveAspectRatio="none" id="Layer_1" data-name="Layer 1" xmlns="http://www.w3.org/2000/svg" viewBox="0 0 153.71 109.3"><defs><style>.cls-1{fill:#71ccda;}.cls-2{fill:#0e8092;}.cls-3{fill:#41bbce;}.cls-4{fill:#095561;}.cls-5{fill:#d0eef3;}.cls-6{fill:#12aac2;}.cls-7{fill:#ff8a29;}</style></defs><title>circle79</title><path class="cls-1" d="M69,353.84H63.36v5.65A23.05,23.05,0,0,1,69,353.84Z" transform="translate(-5.19 -317.98)"/><path class="cls-1" d="M62.36,361v-8.19H70.6a22.79,22.79,0,0,1,11.53-3.12v-6.33a29.24,29.24,0,0,0-26.2,16.28l5.64,2.81C61.82,362,62.08,361.51,62.36,361Z" transform="translate(-5.19 -317.98)"/><path class="cls-2" d="M91.21,351.59l2.5-5.83a29.15,29.15,0,0,0-11.56-2.38h0v6.33A22.85,22.85,0,0,1,91.21,351.59Z" transform="translate(-5.19 -317.98)"/><path class="cls-3" d="M100.94,359.54v-5.61l-2.55,2.55A23.05,23.05,0,0,1,100.94,359.54Z" transform="translate(-5.19 -317.98)"/><path class="cls-3" d="M101.94,352.93v8.17a22.8,22.8,0,0,1,3.11,11h4.63a2.56,2.56,0,0,1,1.62-1.74,29.15,29.15,0,0,0-8.43-18.4Z" transform="translate(-5.19 -317.98)"/><path class="cls-2" d="M59.22,373.13H54.76a2.55,2.55,0,0,1-1.73,2.1,29,29,0,0,0,2,8.38l5.84-2.34A22.85,22.85,0,0,1,59.22,373.13Z" transform="translate(-5.19 -317.98)"/><path class="cls-2" d="M82.13,395.58v6.29h0a29.42,29.42,0,0,0,5.13-.46l-1.11-6.2A23,23,0,0,1,82.13,395.58Z" transform="translate(-5.19 -317.98)"/><path class="cls-3" d="M62.36,392.41v-8.2a22.92,22.92,0,0,1-1.48-2.95L55,383.61a29.29,29.29,0,0,0,6.47,9.74l0.94-.94H62.36Z" transform="translate(-5.19 -317.98)"/><path class="cls-3" d="M63.36,385.79v5.63h0.09L66,388.91A23,23,0,0,1,63.36,385.79Z" transform="translate(-5.19 -317.98)"/><path class="cls-2" d="M82.13,358.9v-5.06H69a23.05,23.05,0,0,0-5.67,5.65v3.88l6.44,3.21A13.74,13.74,0,0,1,82.13,358.9Z" transform="translate(-5.19 -317.98)"/><path class="cls-2" d="M82.13,349.72a22.79,22.79,0,0,0-11.53,3.12H82.13v-3.12Z" transform="translate(-5.19 -317.98)"/><path class="cls-2" d="M62.36,361c-0.28.47-.54,1-0.79,1.45l0.79,0.39V361Z" transform="translate(-5.19 -317.98)"/><path class="cls-1" d="M105,373.13h-3.11V384.2A22.8,22.8,0,0,0,105,373.13Z" transform="translate(-5.19 -317.98)"/><path class="cls-1" d="M91.81,382.41l6.49,6.49a23.05,23.05,0,0,0,2.64-3.14V372.88H95.87A13.7,13.7,0,0,1,91.81,382.41Z" transform="translate(-5.19 -317.98)"/><path class="cls-1" d="M82.13,392.41v3.17a23,23,0,0,0,4-.36l-0.5-2.8H82.13Z" transform="translate(-5.19 -317.98)"/><path class="cls-1" d="M82.13,386.4v5h3.35l-0.94-5.24A13.75,13.75,0,0,1,82.13,386.4Z" transform="translate(-5.19 -317.98)"/><path class="cls-4" d="M53,370.37a29.22,29.22,0,0,1,29.13-27h0a29.23,29.23,0,0,1,29.15,27,2.64,2.64,0,0,1,.49-0.12,29.74,29.74,0,0,0-59.29,0A2.56,2.56,0,0,1,53,370.37Z" transform="translate(-5.19 -317.98)"/><path class="cls-4" d="M111.28,375.21a29.27,29.27,0,0,1-29.13,26.66h0A29.22,29.22,0,0,1,53,375.23a2.5,2.5,0,0,1-.49.11,29.74,29.74,0,0,0,59.23,0A2.57,2.57,0,0,1,111.28,375.21Z" transform="translate(-5.19 -317.98)"/><path class="cls-5" d="M53,375.23a2.55,2.55,0,0,0-.52-5l-0.28,0a2.57,2.57,0,0,0,0,5.13A3.48,3.48,0,0,0,53,375.23Z" transform="translate(-5.19 -317.98)"/><path class="cls-5" d="M114.61,372.13a2.56,2.56,0,0,0-2.46-1.89,3.15,3.15,0,0,0-.84.15A2.59,2.59,0,1,0,114.61,372.13Z" transform="translate(-5.19 -317.98)"/><path class="cls-6" d="M101.94,352.84v0.09l0.94-.94a29.3,29.3,0,0,0-9.17-6.23l-2.5,5.83a22.86,22.86,0,0,1,2.44,1.25h8.29Z" transform="translate(-5.19 -317.98)"/><path class="cls-6" d="M98.39,356.48l2.55-2.55v-0.09H95.23A23,23,0,0,1,98.39,356.48Z" transform="translate(-5.19 -317.98)"/><path class="cls-6" d="M55.93,359.67A29.07,29.07,0,0,0,53,370.37a2.55,2.55,0,0,1,1.69,1.76h4.52a22.82,22.82,0,0,1,2.36-9.65Z" transform="translate(-5.19 -317.98)"/><path class="cls-6" d="M109.61,373.13H105a22.8,22.8,0,0,1-3.11,11.07v8.22h-0.13l1,1a29.15,29.15,0,0,0,8.51-18.16A2.55,2.55,0,0,1,109.61,373.13Z" transform="translate(-5.19 -317.98)"/><path class="cls-6" d="M100.81,391.41h0.13v-5.65a23.05,23.05,0,0,1-2.64,3.14Z" transform="translate(-5.19 -317.98)"/><path class="cls-6" d="M62.45,392.41l-0.94.94a29.16,29.16,0,0,0,20.61,8.52v-6.29a22.82,22.82,0,0,1-11.62-3.17H62.45Z" transform="translate(-5.19 -317.98)"/><path class="cls-6" d="M69,391.41a23.1,23.1,0,0,1-3-2.51l-2.51,2.51H69Z" transform="translate(-5.19 -317.98)"/><path class="cls-6" d="M68.39,372.88h-5v7.39l6-2.43A13.73,13.73,0,0,1,68.39,372.88Z" transform="translate(-5.19 -317.98)"/><path class="cls-6" d="M62.36,373a0.49,0.49,0,0,1-.3.11H59.22a22.85,22.85,0,0,0,1.66,8.14l1.48-.6V373Z" transform="translate(-5.19 -317.98)"/><path class="cls-6" d="M84.54,386.17l0.94,5.24h9.8a22.93,22.93,0,0,0,3-2.51l-6.49-6.49A13.71,13.71,0,0,1,84.54,386.17Z" transform="translate(-5.19 -317.98)"/><path class="cls-6" d="M86.17,395.22a22.8,22.8,0,0,0,7.56-2.8H85.66Z" transform="translate(-5.19 -317.98)"/><path class="cls-6" d="M34.26,372.8a5.54,5.54,0,1,0,0,.33C34.23,373,34.26,372.91,34.26,372.8Z" transform="translate(-5.19 -317.98)"/><path class="cls-6" d="M118.78,384.44q0.55-1.69.93-3.45a38.46,38.46,0,0,0,.91-7.86c0-.17,0-0.33,0-0.5s0-.33,0-0.5a38.51,38.51,0,0,0-17.72-31.9l5.78-8.73L104.43,329l-4.6,9.4a38.26,38.26,0,0,0-6-2.51L97.13,326l-4.75-1.27-2,10.29a38.36,38.36,0,0,0-6.46-.85l0.64-10.49H79.63l0.72,10.49a38.53,38.53,0,0,0-6.46.85l-2.1-10.32L67,326l3.42,10a38.34,38.34,0,0,0-6,2.5L59.73,329l-4.26,2.46,5.91,8.78a38.74,38.74,0,0,0-5.17,4l-7-7.94-3.48,3.48,8,7a38.76,38.76,0,0,0-4,5.16L40.89,346l-2.46,4.26L48,354.89a38.21,38.21,0,0,0-2.51,6l-10.07-3.37-1.27,4.75,10.42,2a38.5,38.5,0,0,0-.9,7.82c0,0.17,0,.33,0,0.5s0,0.33,0,.5a38.52,38.52,0,0,0,.85,7.61l-10.4,2.12,1.27,4.75,10-3.44a38.18,38.18,0,0,0,2.48,6l-9.5,4.74,2.46,4.26,8.81-5.93a38.71,38.71,0,0,0,3.93,5.18l-7.95,7,3.48,3.48,7-8a38.83,38.83,0,0,0,5.14,4l-5.84,8.83,4.26,2.46,4.64-9.49a38.35,38.35,0,0,0,6,2.53l-3.35,10,4.75,1.27,2-10.34a38.37,38.37,0,0,0,6.45.89l-0.64,10.49h4.92L83.69,411.1a38.33,38.33,0,0,0,6.47-.81l2.09,10.28L97,419.3l-3.4-9.9a38.31,38.31,0,0,0,6-2.48l4.67,9.37,4.26-2.46-5.84-8.68a38.77,38.77,0,0,0,5.2-3.94l6.93,7.83,3.48-3.48-7.87-6.86a38.8,38.8,0,0,0,4-5.16l8.7,5.76,2.46-4.26-9.36-4.58A38.3,38.3,0,0,0,118.78,384.44Zm-10.21,13.35-1.3,1.29a36.5,36.5,0,0,1-61.65-26c0-.17,0-0.33,0-0.5s0-.33,0-0.5a36.5,36.5,0,0,1,73,0c0,0.17,0,.33,0,0.5s0,0.33,0,.5a36.6,36.6,0,0,1-.87,7.48q-0.36,1.63-.86,3.2a36.37,36.37,0,0,1-2.43,5.78h0l-1.53,2.64A36.69,36.69,0,0,1,108.58,397.79Z" transform="translate(-5.19 -317.98)"/><path class="cls-6" d="M156.33,370a2.56,2.56,0,0,0-2.56,2.51s0,0,0,.05A2.57,2.57,0,1,0,156.33,370Z" transform="translate(-5.19 -317.98)"/><path class="cls-6" d="M7.76,370a2.54,2.54,0,1,0,2.57,2.57s0,0,0-.05A2.56,2.56,0,0,0,7.76,370Z" transform="translate(-5.19 -317.98)"/><circle class="cls-6" cx="76.96" cy="54.65" r="0.69"/><path class="cls-7" d="M81.26,318a54.49,54.49,0,0,0-53.1,41.69,1,1,0,0,0,1.94.47,52.65,52.65,0,0,1,103.8,12H120.63c0,0.17,0,.33,0,0.5s0,0.33,0,.5H133.9A52.65,52.65,0,0,1,30.12,385.21a1,1,0,1,0-1.94.48A54.66,54.66,0,1,0,81.26,318Z" transform="translate(-5.19 -317.98)"/><path class="cls-7" d="M138.14,353.34a0.5,0.5,0,0,0,.5.5h6v37.57h-6a0.5,0.5,0,1,0,0,1h7V352.84h-7A0.5,0.5,0,0,0,138.14,353.34Z" transform="translate(-5.19 -317.98)"/><path class="cls-7" d="M24,353.84a0.5,0.5,0,1,0,0-1H17v19.71H10.32s0,0,0,.05a2.58,2.58,0,0,1,0,.45H17v19.36h7a0.5,0.5,0,1,0,0-1H18V353.84h6Z" transform="translate(-5.19 -317.98)"/><path class="cls-7" d="M118.64,372.63c0-.17,0-0.33,0-0.5h-2.77a0.5,0.5,0,0,0-.36-0.16,0.52,0.52,0,0,0-.36.16h-0.53a2,2,0,0,1,.07,1h4C118.63,373,118.64,372.8,118.64,372.63Z" transform="translate(-5.19 -317.98)"/><path class="cls-7" d="M45.62,372.63c0,0.17,0,.33,0,0.5h2.68a0.5,0.5,0,0,0,.21,0,0.49,0.49,0,0,0,.2,0h1a2,2,0,0,1,.07-1H45.63C45.63,372.3,45.62,372.46,45.62,372.63Z" transform="translate(-5.19 -317.98)"/><path class="cls-7" d="M34.19,372.13a5.11,5.11,0,0,1,.07.67c0,0.11,0,.22,0,0.33h9.4c0-.17,0-0.33,0-0.5s0-.33,0-0.5H34.19Z" transform="translate(-5.19 -317.98)"/><path class="cls-7" d="M54.79,372.8a2.54,2.54,0,0,1,0,.33h7.31a0.49,0.49,0,0,0,.3-0.11v19.39h39.57V373.13h7.67a2,2,0,0,1,.07-1h-7.74V352.84H62.36v19.39a0.49,0.49,0,0,0-.3-0.11H54.69A2.55,2.55,0,0,1,54.79,372.8Zm46.15,13v5.65H63.36V372.88h8l10.8,10.8L93,372.88h8v12.88ZM79.44,372.63a2.71,2.71,0,1,1,2.71,2.71A2.71,2.71,0,0,1,79.44,372.63Zm-16.08-9.25v-9.53h37.57v18.54H93l-10.8-10.8-10.8,10.8h-8v-9Z" transform="translate(-5.19 -317.98)"/><path class="cls-7" d="M119.72,381q-0.39,1.75-.93,3.45l9.87,3.3,1.27-4.75Z" transform="translate(-5.19 -317.98)"/><path class="cls-7" d="M116.89,383.81q0.5-1.57.86-3.2h0l-0.86,3.2h0Z" transform="translate(-5.19 -317.98)"/><path class="cls-7" d="M153.77,372.61s0,0,0-.05h-7.2a0.25,0.25,0,0,0,0,.5h7.24A2.58,2.58,0,0,1,153.77,372.61Z" transform="translate(-5.19 -317.98)"/><path class="cls-7" d="M114,380.5a0.5,0.5,0,0,0,.37.6h0.12a0.5,0.5,0,0,0,.48-0.38,0.49,0.49,0,0,0-.37-0.6A0.5,0.5,0,0,0,114,380.5Z" transform="translate(-5.19 -317.98)"/><path class="cls-7" d="M114.38,364a0.5,0.5,0,0,0-.36.61,0.49,0.49,0,0,0,.48.38l0.12,0a0.5,0.5,0,0,0,.37-0.6A0.51,0.51,0,0,0,114.38,364Z" transform="translate(-5.19 -317.98)"/><path class="cls-7" d="M111.23,387.94a0.49,0.49,0,0,0,.21.67,0.52,0.52,0,0,0,.23.06,0.51,0.51,0,0,0,.45-0.27,0.51,0.51,0,0,0-.21-0.67A0.5,0.5,0,0,0,111.23,387.94Z" transform="translate(-5.19 -317.98)"/><path class="cls-7" d="M69.7,403.78a0.49,0.49,0,0,0,.29.64,0.55,0.55,0,0,0,.18,0,0.51,0.51,0,0,0,.47-0.32,0.52,0.52,0,0,0-.3-0.65A0.51,0.51,0,0,0,69.7,403.78Z" transform="translate(-5.19 -317.98)"/><path class="cls-7" d="M106.71,394.48a0.51,0.51,0,0,0,0,.71,0.5,0.5,0,0,0,.33.12,0.48,0.48,0,0,0,.37-0.17,0.5,0.5,0,0,0,0-.7A0.5,0.5,0,0,0,106.71,394.48Z" transform="translate(-5.19 -317.98)"/><path class="cls-7" d="M63.19,345.5a0.5,0.5,0,1,0-.69-0.13,0.49,0.49,0,0,0,.41.22A0.47,0.47,0,0,0,63.19,345.5Z" transform="translate(-5.19 -317.98)"/><path class="cls-7" d="M77.93,339.87a0.5,0.5,0,1,0-.56-0.44,0.5,0.5,0,0,0,.5.44h0.06Z" transform="translate(-5.19 -317.98)"/><path class="cls-7" d="M70,341.82a0.55,0.55,0,0,0,.18,0,0.51,0.51,0,0,0,.28-0.65,0.5,0.5,0,0,0-.93.36A0.51,0.51,0,0,0,70,341.82Z" transform="translate(-5.19 -317.98)"/><path class="cls-7" d="M52.54,356.66a0.5,0.5,0,0,0-.46.89,0.47,0.47,0,0,0,.23.06A0.5,0.5,0,0,0,52.54,356.66Z" transform="translate(-5.19 -317.98)"/><path class="cls-7" d="M52.14,387.79a0.5,0.5,0,0,0-.21.68,0.51,0.51,0,0,0,.44.26,0.46,0.46,0,0,0,.23-0.06A0.5,0.5,0,1,0,52.14,387.79Z" transform="translate(-5.19 -317.98)"/><path class="cls-7" d="M56.64,394.49a0.48,0.48,0,0,0,0,.7,0.5,0.5,0,0,0,.37.17,0.46,0.46,0,0,0,.33-0.13A0.5,0.5,0,1,0,56.64,394.49Z" transform="translate(-5.19 -317.98)"/><path class="cls-7" d="M49.38,380.21a0.49,0.49,0,0,0-.37.6,0.5,0.5,0,0,0,.49.38h0.12a0.51,0.51,0,0,0,.36-0.61A0.49,0.49,0,0,0,49.38,380.21Z" transform="translate(-5.19 -317.98)"/><path class="cls-7" d="M49.58,364.17a0.5,0.5,0,0,0-.6.37,0.49,0.49,0,0,0,.37.6l0.11,0A0.5,0.5,0,0,0,49.58,364.17Z" transform="translate(-5.19 -317.98)"/><path class="cls-7" d="M62.61,399.91a0.49,0.49,0,0,0,.12.69h0a0.46,0.46,0,0,0,.28.08,0.49,0.49,0,0,0,.41-0.21A0.5,0.5,0,1,0,62.61,399.91Z" transform="translate(-5.19 -317.98)"/><path class="cls-7" d="M57.26,350.79a0.51,0.51,0,0,0,0-.71,0.5,0.5,0,0,0-.71,0,0.51,0.51,0,0,0,0,.71,0.54,0.54,0,0,0,.33.12A0.51,0.51,0,0,0,57.26,350.79Z" transform="translate(-5.19 -317.98)"/><path class="cls-7" d="M111.38,356.49a0.5,0.5,0,0,0-.21.68,0.49,0.49,0,0,0,.44.26,0.46,0.46,0,0,0,.23-0.06A0.5,0.5,0,0,0,111.38,356.49Z" transform="translate(-5.19 -317.98)"/><path class="cls-7" d="M107.33,350.69a0.5,0.5,0,0,0-.66-0.75,0.5,0.5,0,0,0,0,.71,0.47,0.47,0,0,0,.37.16A0.5,0.5,0,0,0,107.33,350.69Z" transform="translate(-5.19 -317.98)"/><path class="cls-7" d="M93.78,341.75a0.48,0.48,0,0,0,.47-0.33,0.5,0.5,0,0,0-.29-0.64,0.49,0.49,0,0,0-.64.29,0.5,0.5,0,0,0,.29.65Z" transform="translate(-5.19 -317.98)"/><path class="cls-7" d="M77.51,405.81a0.52,0.52,0,0,0,.44.56H78a0.5,0.5,0,0,0,.06-1A0.5,0.5,0,0,0,77.51,405.81Z" transform="translate(-5.19 -317.98)"/><path class="cls-7" d="M101.35,345.25a0.5,0.5,0,1,0-.69.13,0.47,0.47,0,0,0,.28.09A0.49,0.49,0,0,0,101.35,345.25Z" transform="translate(-5.19 -317.98)"/><path class="cls-7" d="M85.94,339.85a0.5,0.5,0,0,0,.49-0.44,0.5,0.5,0,1,0-.55.43h0.06Z" transform="translate(-5.19 -317.98)"/><path class="cls-7" d="M100.77,399.75a0.49,0.49,0,0,0-.13.69,0.5,0.5,0,0,0,.41.22,0.52,0.52,0,0,0,.29-0.09,0.51,0.51,0,0,0,.12-0.7A0.49,0.49,0,0,0,100.77,399.75Z" transform="translate(-5.19 -317.98)"/><path class="cls-7" d="M85.58,405.91a0.51,0.51,0,0,0,.5.44h0.06a0.5,0.5,0,0,0-.12-1A0.51,0.51,0,0,0,85.58,405.91Z" transform="translate(-5.19 -317.98)"/><path class="cls-7" d="M93.74,403.46a0.5,0.5,0,0,0,.17,1,0.39,0.39,0,0,0,.18,0,0.49,0.49,0,0,0,.29-0.64A0.5,0.5,0,0,0,93.74,403.46Z" transform="translate(-5.19 -317.98)"/></svg>