<svg preserveAspectRatio="none" id="Layer_1" data-name="Layer 1" xmlns="http://www.w3.org/2000/svg" viewBox="0 0 19.74 19.74"><defs><style>.cls-1{fill:#00b3ea;}.cls-2{fill:#08ade5;}.cls-3{fill:#065977;}.cls-4{fill:#feb113;}</style></defs><title>circle60</title><rect class="cls-1" x="3.53" y="9.76" width="0.08" height="0.23"/><rect class="cls-1" x="3.7" y="9.76" width="0.08" height="0.23"/><rect class="cls-1" x="3.87" y="9.76" width="0.08" height="0.23"/><rect class="cls-1" x="4.04" y="9.76" width="0.08" height="0.23"/><rect class="cls-1" x="4.21" y="9.76" width="0.08" height="0.23"/><rect class="cls-1" x="4.38" y="9.76" width="0.08" height="0.23"/><rect class="cls-1" x="4.55" y="9.76" width="0.08" height="0.23"/><rect class="cls-1" x="4.72" y="9.76" width="0.08" height="0.23"/><rect class="cls-1" x="4.89" y="9.76" width="0.08" height="0.23"/><rect class="cls-1" x="5.05" y="9.76" width="0.08" height="0.23"/><rect class="cls-1" x="5.22" y="9.76" width="0.08" height="0.23"/><rect class="cls-1" x="5.39" y="9.76" width="0.08" height="0.23"/><rect class="cls-1" x="5.56" y="9.76" width="0.08" height="0.23"/><rect class="cls-1" x="5.73" y="9.76" width="0.08" height="0.23"/><rect class="cls-1" x="5.9" y="9.76" width="0.08" height="0.23"/><rect class="cls-1" x="6.07" y="9.76" width="0.08" height="0.23"/><rect class="cls-1" x="6.24" y="9.76" width="0.08" height="0.23"/><rect class="cls-1" x="6.41" y="9.76" width="0.08" height="0.23"/><rect class="cls-1" x="6.58" y="9.76" width="0.08" height="0.23"/><rect class="cls-1" x="6.75" y="9.76" width="0.08" height="0.23"/><rect class="cls-1" x="6.91" y="9.76" width="0.08" height="0.23"/><rect class="cls-1" x="7.08" y="9.76" width="0.08" height="0.23"/><rect class="cls-1" x="7.25" y="9.76" width="0.08" height="0.23"/><rect class="cls-1" x="7.42" y="9.76" width="0.08" height="0.23"/><rect class="cls-1" x="7.59" y="9.76" width="0.08" height="0.23"/><rect class="cls-1" x="7.76" y="9.76" width="0.08" height="0.23"/><rect class="cls-1" x="7.93" y="9.76" width="0.08" height="0.23"/><rect class="cls-1" x="8.1" y="9.76" width="0.08" height="0.23"/><rect class="cls-1" x="8.27" y="9.76" width="0.08" height="0.23"/><rect class="cls-1" x="8.44" y="9.76" width="0.08" height="0.23"/><rect class="cls-1" x="8.6" y="9.76" width="0.08" height="0.23"/><rect class="cls-1" x="10.99" y="9.76" width="0.08" height="0.23"/><rect class="cls-1" x="11.16" y="9.76" width="0.08" height="0.23"/><rect class="cls-1" x="11.33" y="9.76" width="0.08" height="0.23"/><rect class="cls-1" x="11.5" y="9.76" width="0.08" height="0.23"/><rect class="cls-1" x="11.67" y="9.76" width="0.08" height="0.23"/><rect class="cls-1" x="11.84" y="9.76" width="0.08" height="0.23"/><rect class="cls-1" x="12.01" y="9.76" width="0.08" height="0.23"/><rect class="cls-1" x="12.18" y="9.76" width="0.08" height="0.23"/><rect class="cls-1" x="12.35" y="9.76" width="0.08" height="0.23"/><rect class="cls-1" x="12.51" y="9.76" width="0.08" height="0.23"/><rect class="cls-1" x="12.68" y="9.76" width="0.08" height="0.23"/><rect class="cls-1" x="12.85" y="9.76" width="0.08" height="0.23"/><rect class="cls-1" x="13.02" y="9.76" width="0.08" height="0.23"/><rect class="cls-1" x="13.19" y="9.76" width="0.08" height="0.23"/><rect class="cls-1" x="13.36" y="9.76" width="0.08" height="0.23"/><rect class="cls-1" x="13.53" y="9.76" width="0.08" height="0.23"/><rect class="cls-1" x="13.7" y="9.76" width="0.08" height="0.23"/><rect class="cls-1" x="13.87" y="9.76" width="0.08" height="0.23"/><rect class="cls-1" x="14.04" y="9.76" width="0.08" height="0.23"/><rect class="cls-1" x="14.2" y="9.76" width="0.08" height="0.23"/><rect class="cls-1" x="14.37" y="9.76" width="0.08" height="0.23"/><rect class="cls-1" x="14.54" y="9.76" width="0.08" height="0.23"/><rect class="cls-1" x="14.71" y="9.76" width="0.08" height="0.23"/><rect class="cls-1" x="14.88" y="9.76" width="0.08" height="0.23"/><rect class="cls-1" x="15.05" y="9.76" width="0.08" height="0.23"/><rect class="cls-1" x="15.22" y="9.76" width="0.08" height="0.23"/><rect class="cls-1" x="15.39" y="9.76" width="0.08" height="0.23"/><rect class="cls-1" x="15.56" y="9.76" width="0.08" height="0.23"/><rect class="cls-1" x="15.73" y="9.76" width="0.08" height="0.23"/><rect class="cls-1" x="15.9" y="9.76" width="0.08" height="0.23"/><rect class="cls-1" x="16.06" y="9.76" width="0.08" height="0.23"/><rect class="cls-1" x="9.79" y="16.1" width="0.23" height="0.08"/><rect class="cls-1" x="9.79" y="15.93" width="0.23" height="0.08"/><rect class="cls-1" x="9.79" y="15.76" width="0.23" height="0.08"/><rect class="cls-1" x="9.79" y="15.59" width="0.23" height="0.08"/><rect class="cls-1" x="9.79" y="15.42" width="0.23" height="0.08"/><rect class="cls-1" x="9.79" y="15.25" width="0.23" height="0.08"/><rect class="cls-1" x="9.79" y="15.08" width="0.23" height="0.08"/><rect class="cls-1" x="9.79" y="14.92" width="0.23" height="0.08"/><rect class="cls-1" x="9.79" y="14.75" width="0.23" height="0.08"/><rect class="cls-1" x="9.79" y="14.58" width="0.23" height="0.08"/><rect class="cls-1" x="9.79" y="14.41" width="0.23" height="0.08"/><rect class="cls-1" x="9.79" y="14.24" width="0.23" height="0.08"/><rect class="cls-1" x="9.79" y="14.07" width="0.23" height="0.08"/><rect class="cls-1" x="9.79" y="13.9" width="0.23" height="0.08"/><rect class="cls-1" x="9.79" y="13.73" width="0.23" height="0.08"/><rect class="cls-1" x="9.79" y="13.56" width="0.23" height="0.08"/><rect class="cls-1" x="9.79" y="13.39" width="0.23" height="0.08"/><rect class="cls-1" x="9.79" y="13.22" width="0.23" height="0.08"/><rect class="cls-1" x="9.79" y="13.06" width="0.23" height="0.08"/><rect class="cls-1" x="9.79" y="12.89" width="0.23" height="0.08"/><rect class="cls-1" x="9.79" y="12.72" width="0.23" height="0.08"/><rect class="cls-1" x="9.79" y="12.55" width="0.23" height="0.08"/><rect class="cls-1" x="9.79" y="12.38" width="0.23" height="0.08"/><rect class="cls-1" x="9.79" y="12.21" width="0.23" height="0.08"/><rect class="cls-1" x="9.79" y="12.04" width="0.23" height="0.08"/><rect class="cls-1" x="9.79" y="11.87" width="0.23" height="0.08"/><rect class="cls-1" x="9.79" y="11.7" width="0.23" height="0.08"/><rect class="cls-1" x="9.79" y="11.53" width="0.23" height="0.08"/><rect class="cls-1" x="9.79" y="11.37" width="0.23" height="0.08"/><rect class="cls-1" x="9.79" y="11.2" width="0.23" height="0.08"/><rect class="cls-1" x="9.79" y="11.03" width="0.23" height="0.08"/><rect class="cls-1" x="9.79" y="8.64" width="0.23" height="0.08"/><rect class="cls-1" x="9.79" y="8.47" width="0.23" height="0.08"/><rect class="cls-1" x="9.79" y="8.3" width="0.23" height="0.08"/><rect class="cls-1" x="9.79" y="8.13" width="0.23" height="0.08"/><rect class="cls-1" x="9.79" y="7.96" width="0.23" height="0.08"/><rect class="cls-1" x="9.79" y="7.79" width="0.23" height="0.08"/><rect class="cls-1" x="9.79" y="7.62" width="0.23" height="0.08"/><rect class="cls-1" x="9.79" y="7.46" width="0.23" height="0.08"/><rect class="cls-1" x="9.79" y="7.29" width="0.23" height="0.08"/><rect class="cls-1" x="9.79" y="7.12" width="0.23" height="0.08"/><rect class="cls-1" x="9.79" y="6.95" width="0.23" height="0.08"/><rect class="cls-1" x="9.79" y="6.78" width="0.23" height="0.08"/><rect class="cls-1" x="9.79" y="6.61" width="0.23" height="0.08"/><rect class="cls-1" x="9.79" y="6.44" width="0.23" height="0.08"/><rect class="cls-1" x="9.79" y="6.27" width="0.23" height="0.08"/><rect class="cls-1" x="9.79" y="6.1" width="0.23" height="0.08"/><rect class="cls-1" x="9.79" y="5.93" width="0.23" height="0.08"/><rect class="cls-1" x="9.79" y="5.77" width="0.23" height="0.08"/><rect class="cls-1" x="9.79" y="5.6" width="0.23" height="0.08"/><rect class="cls-1" x="9.79" y="5.43" width="0.23" height="0.08"/><rect class="cls-1" x="9.79" y="5.26" width="0.23" height="0.08"/><rect class="cls-1" x="9.79" y="5.09" width="0.23" height="0.08"/><rect class="cls-1" x="9.79" y="4.92" width="0.23" height="0.08"/><rect class="cls-1" x="9.79" y="4.75" width="0.23" height="0.08"/><rect class="cls-1" x="9.79" y="4.58" width="0.23" height="0.08"/><rect class="cls-1" x="9.79" y="4.41" width="0.23" height="0.08"/><rect class="cls-1" x="9.79" y="4.24" width="0.23" height="0.08"/><rect class="cls-1" x="9.79" y="4.07" width="0.23" height="0.08"/><rect class="cls-1" x="9.79" y="3.91" width="0.23" height="0.08"/><rect class="cls-1" x="9.79" y="3.74" width="0.23" height="0.08"/><rect class="cls-1" x="9.79" y="3.57" width="0.23" height="0.08"/><path class="cls-2" d="M159,245.5l0.28-.06,0.29-.05,0.33,0,0.32,0h0.54s0-.1,0-0.26v-0.28c0-.1,0-0.21,0-0.32s0-.22,0-0.33,0-.2.05-0.29,0.06-.28.06-0.28l0.14-.09,0.16-.1,0.21-.12a6.5,6.5,0,0,1,1.22-.5,6.75,6.75,0,0,1,1.3-.25l0.25,0h0.71l0.25,0a6.75,6.75,0,0,1,1.3.25,6.51,6.51,0,0,1,1.22.5l0.21,0.12,0.16,0.1,0.14,0.09s0,0.11.06,0.28,0,0.18.05,0.29,0,0.22,0,.33,0,0.22,0,.32v0.28c0,0.16,0,.26,0,0.26h0.54l0.32,0,0.33,0,0.29,0.05,0.28,0.06,0.09,0.14,0.1,0.16,0.12,0.21a6.51,6.51,0,0,1,.5,1.22,6.75,6.75,0,0,1,.25,1.3l0,0.25v0.71l0,0.25a6.75,6.75,0,0,1-.25,1.3,6.51,6.51,0,0,1-.5,1.22l-0.12.21-0.1.16-0.09.14-0.28.06-0.29.05-0.33,0-0.32,0h-0.54s0,0.1,0,.26v0.28c0,0.1,0,.21,0,0.32s0,0.22,0,.33,0,0.2-.05.29-0.06.28-.06,0.28l-0.14.09-0.16.1-0.21.12a6.52,6.52,0,0,1-1.22.5,6.76,6.76,0,0,1-1.3.25l-0.25,0h-0.71l-0.25,0a6.75,6.75,0,0,1-1.3-.25,6.51,6.51,0,0,1-1.22-.5l-0.21-.12-0.16-.1-0.14-.09s0-.11-0.06-0.28,0-.18-0.05-0.29,0-.22,0-0.33,0-.22,0-0.32V253.2c0-.16,0-0.26,0-0.26h-0.54l-0.32,0-0.33,0-0.29-.05-0.28-.06-0.09-.14-0.1-.16-0.12-.21a6.51,6.51,0,0,1-.5-1.22,6.75,6.75,0,0,1-.25-1.3l0-.25v-0.35h-0.17v0.36l0,0.25a6.91,6.91,0,0,0,.25,1.33,6.68,6.68,0,0,0,.51,1.25l0.12,0.22,0.1,0.17,0.09,0.14,0.12,0,0.13,0,0.24,0.05,0.53,0.07,0.52,0h0.23s0,0.1,0,.27v0.28c0,0.1,0,.22,0,0.33s0,0.22,0,.33,0,0.2.06,0.29,0.07,0.28.07,0.28l0.14,0.09,0.17,0.1,0.22,0.12a6.7,6.7,0,0,0,1.25.51,6.9,6.9,0,0,0,1.33.25l0.25,0h0.73l0.25,0a6.9,6.9,0,0,0,1.33-.25,6.7,6.7,0,0,0,1.25-.51L168,255l0.17-.1,0.14-.09,0-.12,0-.13,0-.24c0-.15.05-0.34,0.07-0.53s0-.38,0-0.52,0-.23,0-0.23H169l0.33,0,0.33,0,0.29-.06,0.28-.07,0.09-.14,0.1-.17,0.12-.22a6.69,6.69,0,0,0,.51-1.25,6.91,6.91,0,0,0,.25-1.33l0-.25v-0.73l0-.25a6.91,6.91,0,0,0-.25-1.33,6.7,6.7,0,0,0-.51-1.25l-0.12-.22-0.1-.17-0.09-.14-0.12,0-0.13,0-0.24,0-0.53-.07-0.52,0h-0.23s0-.1,0-0.27v-0.28c0-.1,0-0.22,0-0.33s0-.22,0-0.33,0-.2-0.06-0.29-0.07-.28-0.07-0.28l-0.14-.09-0.17-.1-0.22-.12a6.69,6.69,0,0,0-1.25-.51,6.92,6.92,0,0,0-1.33-.25l-0.25,0H164.2l-0.25,0a6.93,6.93,0,0,0-1.33.25,6.69,6.69,0,0,0-1.25.51l-0.22.12-0.17.1-0.14.09,0,0.12,0,0.13,0,0.24c0,0.15-.05.34-0.07,0.53s0,0.38,0,.52,0,0.23,0,.23h-0.55l-0.33,0-0.33,0-0.29.06-0.28.07-0.09.14-0.1.17-0.12.22a6.68,6.68,0,0,0-.51,1.25,6.92,6.92,0,0,0-.25,1.33l0,0.25v0.36h0.17v-0.35l0-.25a6.75,6.75,0,0,1,.25-1.3,6.51,6.51,0,0,1,.5-1.22l0.12-.21,0.1-.16Z" transform="translate(-154.69 -239.26)"/><path class="cls-2" d="M163.78,249h0l0,0,0,0,0,0,0,0h0l0,0,0,0h0l0,0,0,0,0,0,0,0h0v0h0a0.79,0.79,0,0,0,.06.15,0.81,0.81,0,0,0,.09.13l0,0,0,0h0l0,0,0,0,0.13,0.09,0.15,0.06h0.08v0l0,0,0,0,0,0,0,0h0l0,0,0,0h0l0,0,0,0,0,0,0,0,0,0h0.07l0.15-.06,0.13-.09,0,0,0,0h0l0,0,0,0a0.81,0.81,0,0,0,.09-0.13,0.78,0.78,0,0,0,.06-0.15h0v0h0l0,0,0,0,0,0,0,0h0l0,0,0,0h0l0,0,0,0,0,0,0,0h0v0h0a0.78,0.78,0,0,0-.06-0.15,0.81,0.81,0,0,0-.09-0.13l0,0,0,0h0l0,0,0,0-0.13-.09-0.15-.06h-0.07l0,0,0,0,0,0,0,0,0,0h0l0,0,0,0h0l0,0,0,0,0,0,0,0v0h-0.08l-0.15.06-0.13.09,0,0,0,0h0l0,0h0l0,0,0,0,0.13-.09,0.14-.06h0.08l0,0,0,0,0,0,0.05-.06,0,0,0,0h0v0l0,0,0,0,0,0v0h0.07l0.14,0.06,0.13,0.09,0,0,0,0h0l0,0,0,0a0.78,0.78,0,0,1,.09.13,0.74,0.74,0,0,1,.06.14h0v0h0l0,0,0,0,0,0,0.06,0.05,0,0,0,0h0l0,0,0,0,0,0h0v0h0a0.74,0.74,0,0,1-.06.14,0.78,0.78,0,0,1-.09.13l0,0,0,0h0l0,0,0,0-0.13.09-0.14.06H164.7l0,0,0,0,0,0-0.05.06,0,0,0,0h0v0l0,0,0,0,0,0v0h-0.07l-0.14-.06-0.13-.09,0,0,0,0h0l0,0,0,0a0.78,0.78,0,0,1-.09-0.13,0.76,0.76,0,0,1-.06-0.14h0v0h0l0,0,0,0,0,0-0.06-.05,0,0,0,0h0l0,0,0,0,0,0h0v0h0a0.75,0.75,0,0,1,.06-0.14,0.78,0.78,0,0,1,.09-0.13l0,0,0,0h0l0,0h0l0,0,0,0a0.81,0.81,0,0,0-.09.13,0.79,0.79,0,0,0-.06.15h0v0Z" transform="translate(-154.69 -239.26)"/><path class="cls-3" d="M157.11,253.16l0,0,0.05,0.09,0.09,0.15,0.06,0.1,0.07,0.11,0.16,0.25,0.21,0.29,0.26,0.33,0.31,0.36c0.12,0.12.23,0.25,0.37,0.38l0.21,0.19,0.22,0.19a9,9,0,0,0,1.06.76,8.44,8.44,0,0,0,2.92,1.08,8.57,8.57,0,0,0,1.78.12h0.23l0.23,0,0.47-.06,0.47-.09,0.24-.06,0.12,0,0.12,0a8.48,8.48,0,0,0,5.87-5.73l0.08-.27c0-.09,0-0.18.07-0.28s0.07-.37.11-0.56a8.65,8.65,0,0,0-.15-3.41c0-.09-0.05-0.18-0.08-0.28s-0.05-.18-0.08-0.27l-0.09-.27-0.1-.27-0.05-.13-0.06-.13-0.12-.26c-0.09-.17-0.17-0.34-0.27-0.51a8.46,8.46,0,0,0-9.27-4,8.28,8.28,0,0,0-1.8.64,8.53,8.53,0,0,0-3.57,3.3,8.1,8.1,0,0,0-.58,1.17,8.47,8.47,0,0,0-.34,1.05l-0.05.24c0,0.08,0,.15,0,0.23l0,0.21c0,0.07,0,.14,0,0.2l0,0.36,0,0.3s0,0.09,0,.13v0.42h-0.65v-0.46s0-.09,0-0.14l0-.32c0-.12,0-0.25,0-0.39s0-.14,0-0.22l0-.23c0-.08,0-0.16.05-0.24l0.06-.26a9.16,9.16,0,0,1,.37-1.14,8.77,8.77,0,0,1,.62-1.26,9.18,9.18,0,0,1,3.84-3.55,8.93,8.93,0,0,1,1.94-.69,9.11,9.11,0,0,1,10,4.36c0.11,0.18.19,0.36,0.29,0.54l0.13,0.28,0.06,0.14,0.06,0.14,0.11,0.29,0.1,0.29c0,0.1.06,0.2,0.09,0.3s0.06,0.2.08,0.3a9.3,9.3,0,0,1,.16,3.67c0,0.2-.07.4-0.12,0.6s0,0.2-.07.3l-0.08.29a9.12,9.12,0,0,1-6.33,6.17l-0.13,0-0.13,0-0.26.06-0.51.09-0.51.06-0.25,0h-0.25a9.24,9.24,0,0,1-1.92-.12,9.1,9.1,0,0,1-3.15-1.17,9.7,9.7,0,0,1-1.14-.82l-0.24-.21-0.22-.21c-0.15-.13-0.27-0.28-0.4-0.41l-0.34-.38-0.28-.36-0.23-.32-0.18-.27-0.07-.11-0.06-.1-0.09-.16-0.06-.1,0,0Z" transform="translate(-154.69 -239.26)"/><path class="cls-2" d="M155,249.13v0.48s0,0.09,0,.14l0,0.34c0,0.12,0,.26.05,0.4s0,0.15,0,.23l0,0.24c0,0.08,0,.17.05,0.25l0.06,0.27a9.57,9.57,0,0,0,.39,1.19,9.19,9.19,0,0,0,.65,1.32,9.61,9.61,0,0,0,4,3.72,9.37,9.37,0,0,0,2,.72,9.55,9.55,0,0,0,10.46-4.57c0.11-.18.2-0.38,0.3-0.57l0.13-.29,0.07-.15,0.06-.15,0.12-.3,0.1-.31c0-.1.07-0.21,0.09-0.31s0.06-.21.09-0.31a9.73,9.73,0,0,0,.17-3.84c0-.21-0.07-0.42-0.12-0.63s0-.21-0.07-0.31l-0.09-.31a9.55,9.55,0,0,0-6.63-6.46l-0.13,0-0.13,0-0.27-.06-0.54-.1-0.53-.06-0.26,0H165a9.67,9.67,0,0,0-2,.13,9.53,9.53,0,0,0-3.3,1.22,10.12,10.12,0,0,0-1.2.85l-0.25.22-0.23.22c-0.15.14-.29,0.29-0.42,0.42l-0.35.4-0.29.37-0.24.33-0.18.28-0.08.12-0.06.11-0.1.17-0.06.1,0,0-0.28-.15,0,0,0.06-.11,0.1-.17,0.06-.11,0.08-.12,0.19-.29,0.24-.34,0.3-.38,0.36-.42c0.14-.14.27-0.29,0.43-0.44l0.24-.23,0.26-.23a10.43,10.43,0,0,1,1.24-.88,9.85,9.85,0,0,1,3.41-1.27,10,10,0,0,1,2.08-.13l0.27,0,0.27,0,0.55,0.07,0.55,0.1,0.28,0.06,0.14,0,0.14,0a9.89,9.89,0,0,1,6.85,6.68l0.09,0.32c0,0.11.05,0.21,0.08,0.32s0.09,0.43.13,0.65a10,10,0,0,1-.18,4c0,0.11-.06.22-0.09,0.32s-0.06.22-.1,0.32l-0.11.32-0.12.31-0.06.16-0.07.15-0.14.3c-0.1.2-.2,0.4-0.31,0.59a9.87,9.87,0,0,1-10.81,4.72,9.68,9.68,0,0,1-2.1-.75,9.93,9.93,0,0,1-4.16-3.84,9.53,9.53,0,0,1-.67-1.37,9.9,9.9,0,0,1-.4-1.23l-0.06-.28c0-.09,0-0.18-0.06-0.26l0-.25c0-.08,0-0.16,0-0.23s0-.29-0.05-0.42l0-.35c0-.05,0-0.1,0-0.15v-0.49H155Z" transform="translate(-154.69 -239.26)"/><path class="cls-4" d="M164,241.54h-0.08l-0.23,0a7.28,7.28,0,0,0-.82.14,7.56,7.56,0,0,0-2.33,1,7.73,7.73,0,0,0-1.08.82,8.08,8.08,0,0,0-.81.86l-0.15.2-0.13.18-0.11.16-0.09.14-0.12.2,0,0.07-0.51-.3,0-.08,0.13-.21,0.1-.15,0.12-.17,0.14-.2,0.17-.21a8.69,8.69,0,0,1,.87-0.93,8.32,8.32,0,0,1,1.16-.88,8.15,8.15,0,0,1,2.51-1,7.87,7.87,0,0,1,.89-0.15l0.25,0H164Z" transform="translate(-154.69 -239.26)"/><path class="cls-4" d="M170.78,244.75l0-.07-0.14-.19-0.1-.13-0.06-.07-0.07-.08-0.15-.17-0.17-.18a7.38,7.38,0,0,0-.88-0.79,7.66,7.66,0,0,0-2.4-1.23,7.42,7.42,0,0,0-1.15-.25l-0.25,0-0.22,0h-0.68v-0.59H165l0.21,0,0.24,0,0.27,0a8,8,0,0,1,1.24.27,8.24,8.24,0,0,1,2.59,1.32,8,8,0,0,1,.95.85l0.18,0.19,0.16,0.18,0.07,0.08,0.06,0.08,0.11,0.14,0.15,0.2,0.05,0.07Z" transform="translate(-154.69 -239.26)"/><path class="cls-4" d="M171.52,252.21s0.05-.1.12-0.29l0.06-.16,0.06-.19,0.07-.21,0.07-.24a7.57,7.57,0,0,0,.22-1.16,8,8,0,0,0,0-1.36,7.4,7.4,0,0,0-.21-1.34,8.22,8.22,0,0,0-.38-1.12,8,8,0,0,0-.37-0.75l-0.12-.2,0-.07,0.5-.31,0,0.08,0.13,0.22a8.61,8.61,0,0,1,.4.81,8.8,8.8,0,0,1,.4,1.21,8,8,0,0,1,.23,1.44,8.57,8.57,0,0,1,0,1.46,8.15,8.15,0,0,1-.24,1.25l-0.07.26-0.08.23-0.07.2-0.07.17c0,0.1-.07.18-0.09,0.23l0,0.08Z" transform="translate(-154.69 -239.26)"/><path class="cls-4" d="M165.5,256.68h0.08l0.23,0a7.26,7.26,0,0,0,.81-0.18,7.56,7.56,0,0,0,2.28-1.08,7.78,7.78,0,0,0,1-.87,7.91,7.91,0,0,0,.77-0.9l0.14-.2,0.12-.19,0.11-.17,0.08-.14,0.11-.2,0-.07,0.52,0.27,0,0.08-0.12.22-0.09.16-0.11.18-0.13.2-0.16.22a8.5,8.5,0,0,1-.83,1,8.34,8.34,0,0,1-1.12.94,8.15,8.15,0,0,1-2.46,1.16,7.8,7.8,0,0,1-.88.2l-0.25,0h-0.09Z" transform="translate(-154.69 -239.26)"/><path class="cls-4" d="M158.57,253.82l0.05,0.07,0.06,0.08,0.09,0.1c0.07,0.08.14,0.17,0.24,0.27l0.15,0.16,0.18,0.17a7.47,7.47,0,0,0,.92.74,7.65,7.65,0,0,0,2.46,1.1,7.43,7.43,0,0,0,1.16.19l0.25,0H165l0,0.59h-1l-0.27,0a8,8,0,0,1-1.25-.21,8.24,8.24,0,0,1-2.65-1.19,8.09,8.09,0,0,1-1-.8l-0.19-.19-0.17-.17c-0.11-.11-0.19-0.21-0.26-0.29l-0.09-.11-0.07-.08-0.06-.07Z" transform="translate(-154.69 -239.26)"/></svg>