<svg preserveAspectRatio="none" id="Layer_1" data-name="Layer 1" xmlns="http://www.w3.org/2000/svg" viewBox="0 0 1200.04 1200.04"><defs><style>.cls-1{fill:#20ffff}.cls-2{opacity:.6}</style></defs><path class="cls-1" transform="rotate(-87.62 -653.553 3259.82)" d="M2050.67 3930.84h11.84v45.77h-11.84z"/><path class="cls-1" transform="rotate(-84.04 -764.887 3296)" d="M2052.72 3902.74h11.84v45.77h-11.84z"/><path class="cls-1" transform="rotate(-80.44 -883.797 3337.231)" d="M2056.46 3874.82h11.84v45.77h-11.84z"/><path class="cls-1" transform="rotate(-76.82 -1011.043 3384.57)" d="M2062 3847.21h11.84v45.77H2062z"/><path class="cls-1" transform="rotate(-73.19 -1161.974 3434.55)" d="M2055.27 3801.06h11.84v75.2h-11.84z"/><path class="cls-1" transform="rotate(-69.56 -1295.977 3500.787)" d="M2078.32 3793.33h11.84v45.77h-11.84z"/><path class="cls-1" transform="rotate(-65.93 -1457.37 3571.895)" d="M2088.91 3767.24h11.84v45.77h-11.84z"/><path class="cls-1" transform="rotate(-62.31 -1633.963 3653.553)" d="M2101.29 3741.94h11.84v45.77h-11.84z"/><path class="cls-1" transform="rotate(-58.71 -1829.49 3746.644)" d="M2115.15 3717.42h11.84v45.77h-11.84z"/><path class="cls-1" transform="rotate(-55.11 -2059.755 3846.49)" d="M2118.37 3670.63h11.84v75.2h-11.84z"/><path class="cls-1" transform="rotate(-51.52 -2293.352 3980.807)" d="M2147.36 3671.23h11.84V3717h-11.84z"/><path class="cls-1" transform="rotate(-47.94 -2573.802 4127.531)" d="M2165.57 3649.74h11.84v45.77h-11.84z"/><path class="cls-1" transform="rotate(-44.35 -2898.204 4302.092)" d="M2185.01 3629.34h11.84v45.77h-11.84z"/><path class="cls-1" transform="rotate(-40.77 -3278.002 4509.36)" d="M2205.84 3610.37h11.84v45.77h-11.84z"/><path class="cls-1" transform="rotate(-37.19 -3739.717 4747.285)" d="M2218.85 3566.21h11.84v75.2h-11.84z"/><path class="cls-1" transform="rotate(-33.6 -4281.196 5066.039)" d="M2250.64 3576.24h11.84v45.77h-11.84z"/><path class="cls-1" transform="rotate(-29.99 -4966.727 5452.965)" d="M2274.64 3561.49h11.84v45.77h-11.84z"/><path class="cls-1" transform="rotate(-26.38 -5841.823 5947.421)" d="M2299.47 3548.19h11.84v45.77h-11.84z"/><path class="cls-1" transform="rotate(-22.76 -6999.189 6603.6)" d="M2325.04 3536.4h11.84v45.77h-11.84z"/><path class="cls-1" transform="rotate(-19.13 -8606.502 7499.64)" d="M2346.55 3497.78h11.84v75.2h-11.84z"/><path class="cls-1" transform="rotate(-15.5 -10958.392 8850.893)" d="M2378.26 3518.05h11.84v45.77h-11.84z"/><path class="cls-1" transform="rotate(-11.5 -14376.813 10915.542)" d="M2405.61 3511.33h11.84v45.77h-11.84z"/><path class="cls-1" transform="rotate(-8.26 -21867.184 15028.099)" d="M2433.34 3506.38h11.84v45.77h-11.84z"/><path class="cls-1" transform="rotate(-4.67 -39842.652 25186.596)" d="M2461.34 3503.29h11.84v45.77h-11.84z"/><path class="cls-1" transform="translate(-1971.5 -3323.82)" d="M2489.2 3472.46h11.84v75.2h-11.84z"/><path class="cls-1" transform="rotate(-87.57 -188.125 2831.968)" d="M2500.7 3519.06h45.77v11.84h-45.77z"/><path class="cls-1" transform="rotate(-83.99 -273.692 2898.284)" d="M2528.8 3521.12h45.77v11.84h-45.77z"/><path class="cls-1" transform="rotate(-80.39 -368.547 2971.356)" d="M2556.7 3524.97h45.77v11.84h-45.77z"/><path class="cls-1" transform="rotate(-76.77 -473.85 3051.957)" d="M2584.31 3530.53h45.77v11.84h-45.77z"/><path class="cls-1" transform="rotate(-73.14 -586.528 3126.765)" d="M2601.06 3523.77h75.2v11.84h-75.2z"/><path class="cls-1" transform="rotate(-69.51 -721.478 3238.607)" d="M2638.19 3546.87h45.77v11.84h-45.77z"/><path class="cls-1" transform="rotate(-65.88 -867.808 3346.542)" d="M2664.25 3557.55h45.77v11.84h-45.77z"/><path class="cls-1" transform="rotate(-62.26 -1031.917 3465.854)" d="M2689.57 3569.88h45.77v11.84h-45.77z"/><path class="cls-1" transform="rotate(-58.65 -1216.684 3598.367)" d="M2714.09 3583.75h45.77v11.84h-45.77z"/><path class="cls-1" transform="rotate(-55.06 -1418.713 3733.165)" d="M2731.38 3587.11h75.2v11.84h-75.2z"/><path class="cls-1" transform="rotate(-51.47 -1667.569 3910.75)" d="M2760.25 3616.02h45.77v11.84h-45.77z"/><path class="cls-1" transform="rotate(-47.88 -1945.516 4098.426)" d="M2781.74 3634.24h45.77v11.84h-45.77z"/><path class="cls-1" transform="rotate(-44.3 -2269.324 4312.484)" d="M2802.02 3653.8h45.77v11.84h-45.77z"/><path class="cls-1" transform="rotate(-40.72 -2652.085 4559.82)" d="M2821.08 3674.55h45.77v11.84h-45.77z"/><path class="cls-1" transform="rotate(-37.14 -3098.498 4840.99)" d="M2835.79 3687.59h75.2v11.84h-75.2z"/><path class="cls-1" transform="matrix(.83 -.55 .55 .83 -3483.48 -1161.88)" d="M2855.06 3719.46h45.77v11.84h-45.77z"/><path class="cls-1" transform="rotate(-29.95 -4364.315 5622.031)" d="M2869.91 3743.4h45.77v11.84h-45.77z"/><path class="cls-1" transform="rotate(-26.33 -5255.45 6158.377)" d="M2883.17 3768.25h45.77v11.84h-45.77z"/><path class="cls-1" transform="rotate(-22.71 -6431.313 6854.806)" d="M2894.87 3793.87h45.77v11.84h-45.77z"/><path class="cls-1" transform="rotate(-19.09 -8040.034 7796.25)" d="M2904.1 3815.38h75.2v11.84h-75.2z"/><path class="cls-1" transform="rotate(-15.45 -10447.078 9185.779)" d="M2913.27 3847.08h45.77v11.84h-45.77z"/><path class="cls-1" transform="rotate(-11.83 -14287.2 11382.317)" d="M2919.91 3874.45h45.77v11.84h-45.77z"/><path class="cls-1" transform="rotate(-8.21 -21500.501 15488.601)" d="M2924.8 3902.19h45.77v11.84h-45.77z"/><path class="cls-1" transform="rotate(-4.62 -39804.419 25853.005)" d="M2927.96 3930.18h45.77v11.84h-45.77z"/><path class="cls-1" transform="rotate(-1.06 -180284.542 105196.082)" d="M2929.34 3958.06h75.2v11.84h-75.2z"/><path class="cls-1" transform="rotate(-87.52 238.622 3300.287)" d="M2945.96 3969.55h11.84v45.77h-11.84z"/><path class="cls-1" transform="rotate(-83.94 122.95 3392.739)" d="M2943.87 3997.65h11.84v45.77h-11.84z"/><path class="cls-1" transform="rotate(-80.34 -3.889 3489.928)" d="M2940.01 4025.55h11.84v45.77h-11.84z"/><path class="cls-1" transform="rotate(-76.72 -142.575 3592.637)" d="M2934.41 4053.16h11.84v45.77h-11.84z"/><path class="cls-1" transform="rotate(-73.09 -280.422 3705.688)" d="M2941.15 4069.91h11.84v75.2h-11.84z"/><path class="cls-1" transform="rotate(-69.46 -461.018 3816.949)" d="M2918.03 4107.02h11.84v45.77h-11.84z"/><path class="cls-1" transform="rotate(-65.83 -643.976 3940.502)" d="M2907.33 4133.07h11.84v45.77h-11.84z"/><path class="cls-1" transform="rotate(-62.21 -845.812 4073.06)" d="M2894.98 4158.38h11.84v45.77h-11.84z"/><path class="cls-1" transform="rotate(-58.61 -1069.794 4215.539)" d="M2881.09 4182.89h11.84v45.77h-11.84z"/><path class="cls-1" transform="rotate(-55.01 -1307.357 4379.915)" d="M2877.7 4200.18h11.84v75.2h-11.84z"/><path class="cls-1" transform="rotate(-51.42 -1599.795 4542.963)" d="M2848.78 4229.02h11.84v45.77h-11.84z"/><path class="cls-1" transform="rotate(-48 -1928.871 4733.409)" d="M2830.54 4250.49h11.84v45.77h-11.84z"/><path class="cls-1" transform="rotate(-44.26 -2282.16 4948.332)" d="M2810.97 4270.76h11.84v45.77h-11.84z"/><path class="cls-1" transform="rotate(-40.67 -2705.714 5195.7)" d="M2790.19 4289.79h11.84v45.77h-11.84z"/><path class="cls-1" transform="rotate(-37.09 -3195.855 5493.825)" d="M2777.13 4304.5h11.84v75.2h-11.84z"/><path class="cls-1" transform="rotate(-33.5 -3804.264 5823.487)" d="M2745.26 4323.75h11.84v45.77h-11.84z"/><path class="cls-1" transform="rotate(-29.9 -4540.893 6240.339)" d="M2721.31 4338.57h11.84v45.77h-11.84z"/><path class="cls-1" transform="rotate(-26.28 -5472.951 6767.33)" d="M2696.44 4351.81h11.84v45.77h-11.84z"/><path class="cls-1" transform="rotate(-22.66 -6691.228 7452.323)" d="M2670.81 4363.49h11.84v45.77h-11.84z"/><path class="cls-1" transform="rotate(-19.03 -8357.057 8405.15)" d="M2649.29 4372.7h11.84v75.2h-11.84z"/><path class="cls-1" transform="rotate(-15.4 -10800.23 9761.07)" d="M2617.59 4381.84h11.84v45.77h-11.84z"/><path class="cls-1" transform="rotate(-11.78 -14703.038 11952.697)" d="M2590.22 4388.47h11.84v45.77h-11.84z"/><path class="cls-1" transform="rotate(-8.16 -22024.503 16078.118)" d="M2562.47 4393.33h11.84v45.77h-11.84z"/><path class="cls-1" transform="rotate(-4.57 -40674.518 26592.177)" d="M2534.48 4396.47h11.84v45.77h-11.84z"/><path class="cls-1" transform="rotate(-1.01 -189762.608 110763.432)" d="M2506.59 4397.82h11.84v75.2h-11.84z"/><path class="cls-1" transform="rotate(-87.47 -230.409 3729.127)" d="M2461.18 4414.42h45.77v11.84h-45.77z"/><path class="cls-1" transform="rotate(-83.89 -372.358 3791.423)" d="M2433.08 4412.3h45.77v11.84h-45.77z"/><path class="cls-1" transform="rotate(-80.29 -523.352 3856.881)" d="M2405.18 4408.42h45.77v11.84h-45.77z"/><path class="cls-1" transform="rotate(-76.67 -684.243 3926.42)" d="M2377.58 4402.8h45.77v11.84h-45.77z"/><path class="cls-1" transform="rotate(-73.04 -860.284 4014.887)" d="M2331.39 4409.52h75.2v11.84h-75.2z"/><path class="cls-1" transform="rotate(-69.41 -1040.502 4080.637)" d="M2323.74 4386.37h45.77v11.84h-45.77z"/><path class="cls-1" transform="rotate(-65.78 -1239.186 4167.517)" d="M2297.69 4375.66h45.77v11.84h-45.77z"/><path class="cls-1" transform="rotate(-62.17 -1454.207 4261.928)" d="M2272.39 4363.27h45.77v11.84h-45.77z"/><path class="cls-1" transform="rotate(-58.56 -1689.016 4366.785)" d="M2247.9 4349.36h45.77v11.84h-45.77z"/><path class="cls-1" transform="rotate(-54.96 -1955.363 4496.133)" d="M2201.18 4345.95h75.2v11.84h-75.2z"/><path class="cls-1" transform="rotate(-51.37 -2233.741 4616.19)" d="M2201.8 4317.01h45.77v11.84h-45.77z"/><path class="cls-1" transform="rotate(-47.79 -2555.526 4767.104)" d="M2180.33 4298.76h45.77v11.84h-45.77z"/><path class="cls-1" transform="rotate(-44.21 -2921.296 4942.643)" d="M2160.08 4279.17h45.77v11.84h-45.77z"/><path class="cls-1" transform="rotate(-40.62 -3344.055 5150.78)" d="M2141.07 4258.38h45.77v11.84h-45.77z"/><path class="cls-1" transform="rotate(-37 -3860.435 5437.155)" d="M2096.94 4245.3h75.2v11.84h-75.2z"/><path class="cls-1" transform="rotate(-33.45 -4434.08 5701.377)" d="M2107.15 4213.42h45.77v11.84h-45.77z"/><path class="cls-1" transform="rotate(-29.85 -5163.78 6080.59)" d="M2092.35 4189.45h45.77v11.84h-45.77z"/><path class="cls-1" transform="rotate(-26.24 -6085.77 6568.4)" d="M2079.13 4164.58h45.77v11.84h-45.77z"/><path class="cls-1" transform="rotate(-22.61 -7296.54 7221.887)" d="M2067.47 4138.94h45.77v11.84h-45.77z"/><path class="cls-1" transform="rotate(-18.99 -8968.853 8128.544)" d="M2028.85 4117.4h75.2v11.84h-75.2z"/><path class="cls-1" transform="matrix(.96 -.26 .26 .96 -2913.83 -2677.78)" d="M2049.17 4085.7h45.77v11.84h-45.77z"/><path class="cls-1" transform="rotate(-11.73 -15303.294 11646.01)" d="M2042.56 4058.32h45.77v11.84h-45.77z"/><path class="cls-1" transform="rotate(-8.11 -22678.492 15781.102)" d="M2037.72 4030.57h45.77v11.84h-45.77z"/><path class="cls-1" transform="rotate(-4.52 -41624.83 26446.38)" d="M2034.61 4002.57h45.77v11.84h-45.77z"/><path class="cls-1" transform="rotate(-.96 -200192.753 115947.02)" d="M2003.86 3974.67h75.2v11.84h-75.2z"/><g class="cls-2"><path class="cls-1" d="M2504.32 4572.69h-.25a604.86 604.86 0 01-229.53-45.57 596.89 596.89 0 01-103.77-55.51 603.85 603.85 0 01-165.52-165.52 597 597 0 01-55.51-103.77 601.5 601.5 0 010-459.3 596.93 596.93 0 0155.51-103.77 605.34 605.34 0 0174.66-90.85 605.35 605.35 0 0190.86-74.66 596.87 596.87 0 01103.77-55.51 605 605 0 01229.54-45.57h.23a604.91 604.91 0 01229.54 45.57 596.85 596.85 0 01103.77 55.51 603.84 603.84 0 01165.52 165.52 597 597 0 0155.51 103.74 601.5 601.5 0 010 459.3 597 597 0 01-55.51 103.77 603.84 603.84 0 01-165.52 165.52 596.92 596.92 0 01-103.77 55.51 604.92 604.92 0 01-229.53 45.59zm-.12-7.5h.12a597.32 597.32 0 00226.66-45 589.49 589.49 0 00102.47-54.81 596.39 596.39 0 00163.46-163.46 589.59 589.59 0 0054.82-102.46 594 594 0 000-453.57 589.43 589.43 0 00-54.82-102.46A596.37 596.37 0 002833.45 3480a589.38 589.38 0 00-102.45-54.85 597.39 597.39 0 00-226.67-45h-.23a597.35 597.35 0 00-226.67 45A589.41 589.41 0 002175 3480a596.4 596.4 0 00-163.46 163.46 589.46 589.46 0 00-54.81 102.46 594 594 0 000 453.57 589.44 589.44 0 0054.81 102.47A596.38 596.38 0 002175 4465.38a589.47 589.47 0 00102.46 54.81 597.35 597.35 0 00226.66 45h.12z" transform="translate(-1904.18 -3372.66)"/><path class="cls-1" d="M2504.12 4548.31a574.45 574.45 0 01-216.24-41.95 571.76 571.76 0 01-98.78-51.74l-1.89-1.24.22-2.25c.72-7.43 1.65-15.34 2.92-24.91.94-7.06 2.05-14.36 3.4-22.27a534.6 534.6 0 01-107.91-103.66 529 529 0 01-110.78-279.39 533.4 533.4 0 017.48-149.42c-5.94-4.51-11.9-9.17-17.74-13.88a778.697 778.697 0 01-19.16-16.13l-1.72-1.49.53-2.21a573.28 573.28 0 01152.65-272.18 602 602 0 0153.66-47.41 572 572 0 01190.2-97.68l2.19-.65 1.58 1.64c5.8 6 11.55 12.2 17.08 18.33 4.65 5.17 9.49 10.75 14.77 17a533.83 533.83 0 01298.21 12.54 526.86 526.86 0 01135.33 68.79 534.25 534.25 0 01109 102.55c8-1.78 15.22-3.27 22.07-4.53 9.09-1.69 17.18-3.06 24.72-4.19l2.24-.33 1.34 1.83a575.39 575.39 0 0193.74 201.19 582 582 0 0110.63 221.67l-.33 2.25-2.15.75a795.88 795.88 0 01-23.79 7.85c-6.79 2.1-13.89 4.17-21.63 6.3a529.1 529.1 0 01-136.55 265.23 534.4 534.4 0 01-119.26 94.12 527 527 0 01-138.69 55.82c-1.61 7.28-3.36 14.63-5.19 21.91-2 7.78-4.23 15.9-6.64 24.15l-.64 2.18-2.23.44a578.93 578.93 0 01-112.64 10.97zm-309-98.72a564.61 564.61 0 00201.11 81 575.14 575.14 0 00216.81-.18c2.14-7.42 4.14-14.72 5.93-21.71 2-7.95 3.9-16 5.64-23.95l.5-2.3 2.29-.55a519.54 519.54 0 00139-55.58 526.41 526.41 0 00204.24-214.89 520.54 520.54 0 0048.4-141.65l.43-2.31 2.27-.62c8.55-2.33 16.28-4.57 23.64-6.85 7.07-2.21 14.26-4.57 21.4-7a574.52 574.52 0 00-10.82-216.54 568 568 0 00-91.17-196.71c-6.81 1-14.11 2.3-22.22 3.81-7.41 1.37-15.28 3-24.08 5l-2.3.52-1.47-1.84a527 527 0 00-108.89-102.93 522.19 522.19 0 00-280.68-95 525.18 525.18 0 00-149 15.39l-2.28.57-1.51-1.8c-5.81-6.94-11.08-13-16.1-18.61s-10.12-11.06-15.33-16.5a564.78 564.78 0 00-185.52 95.75 594.66 594.66 0 00-53 46.82 565.76 565.76 0 00-150.13 266.42c5.69 4.92 11.48 9.78 17.24 14.47 6.37 5.14 12.91 10.23 19.4 15.13l1.88 1.41-.46 2.31a525.93 525.93 0 0026.82 295.26 519.84 519.84 0 0074.57 129.77A527.15 527.15 0 002200 4399.22l1.92 1.37-.4 2.32c-1.51 8.7-2.74 16.65-3.75 24.29-1.13 8.52-1.98 15.7-2.66 22.39z" transform="translate(-1904.18 -3372.66)"/></g><g class="cls-2"><path d="M2579.44 4326.89q3.39-8.49 6.36-16.89c4-1 8-2.14 12-3.19 2-.56 4-1 6-1.66l5.92-1.91 5.92-1.91 3-1c1-.33 1.94-.72 2.92-1.08l11.64-4.39c2-.68 3.82-1.6 5.73-2.4l5.7-2.48 5.71-2.47 5.57-2.76 5.57-2.76 2.79-1.38 1.39-.69 1.36-.76 10.86-6.06 2.72-1.51 2.64-1.65 5.27-3.3 5.28-3.29 1.32-.82 1.28-.89 2.55-1.78 10.21-7.11 9.84-7.61c1.63-1.28 3.31-2.5 4.89-3.84l4.72-4.06 4.72-4.05c1.56-1.37 3.19-2.65 4.66-4.12l9-8.58 2.26-2.14c.75-.72 1.44-1.5 2.16-2.24l4.29-4.51 4.29-4.51c.71-.76 1.44-1.49 2.14-2.26l2-2.36 8.11-9.44c1.39-1.54 2.59-3.24 3.88-4.86l3.81-4.92 3.81-4.92c1.24-1.66 2.38-3.39 3.58-5.08 2.36-3.41 4.77-6.78 7.09-10.22l6.59-10.55c2.28-3.47 4.19-7.15 6.23-10.76l3-5.43c.5-.91 1-1.8 1.49-2.73l1.38-2.79 5.51-11.15c1.74-3.76 3.32-7.6 5-11.39.81-1.91 1.69-3.79 2.45-5.72l2.19-5.82 2.2-5.82 1.1-2.91c.37-1 .65-2 1-3l3.82-11.84c.69-2 1.14-4 1.7-6l1.62-6 1.62-6 1.32-6.08 1.33-6.08c.43-2 .94-4 1.24-6.1q8.25-3.4 16.57-7.21c2.48-1.14 5-2.31 7.46-3.5a368.41 368.41 0 00-58.22-258.47c-2.8-4.19-5.71-8.3-8.68-12.36-8.84.29-17.69 1-26.24 1.78-2.46-3.34-5.25-6.42-7.94-9.58l-4.05-4.72-2-2.36c-.7-.77-1.43-1.51-2.14-2.26l-8.58-9c-.72-.74-1.41-1.53-2.16-2.24l-2.26-2.14-4.51-4.29c-5.88-5.87-12.37-11.06-18.61-16.52-3.23-2.6-6.55-5.09-9.81-7.65-1.64-1.26-3.27-2.56-4.93-3.8L2704 3689a333.16 333.16 0 00-42.55-25.68l-11.15-5.51-11.41-5c-3.77-1.74-7.68-3.12-11.56-4.59l-5.82-2.2c-1-.36-1.93-.76-2.92-1.08l-3-1-11.84-3.82c-4-1.15-8-2.17-12-3.27-2-.52-4-1.14-6-1.57l-6.08-1.33-6.08-1.33-3-.67-3.07-.52-12.27-2.07c-4.1-.61-8.23-1-12.35-1.54-2.06-.23-4.11-.54-6.18-.71l-6.21-.44-6.21-.45-3.1-.23c-1-.05-2.07-.06-3.11-.09l-12.44-.3h-3.11l-3.11.08-6.22.15c-2.07.06-4.15.07-6.22.17l-6.21.45-6.21.44-3.1.22c-1 .07-2.06.24-3.09.35L2456 3629l-1.54.18-1.53.26-3.07.52-6.13 1c-2 .35-4.09.67-6.13 1l-6.08 1.33-6.08 1.33c-2 .44-4.06.85-6.05 1.43q-6.53-6.07-13.48-12c-2.06-1.77-4.16-3.53-6.27-5.28a365.78 365.78 0 00-100.42 47 369.89 369.89 0 00-101.8 101.8 366.3 366.3 0 00-51.88 118.56c1.86 2 3.73 4 5.6 6q6.3 6.63 12.69 12.84c-.24 1-.42 2-.58 3.06l-.52 3.07-1 6.13c-.33 2-.72 4.08-1 6.14l-.74 6.18-.74 6.18-.37 3.09c-.12 1-.16 2.07-.24 3.1l-.89 12.41-.11 1.55v1.56l-.07 3.11-.15 6.22c0 2.07-.12 4.15-.13 6.22l.15 6.22.15 6.22c0 2.07.07 4.15.26 6.22l.89 12.41c.1 2.07.43 4.12.66 6.19l.74 6.18.75 6.18 1 6.13 1 6.13c.35 2 .65 4.1 1.14 6.12l2.66 12.15c.4 2 1 4 1.52 6l1.62 6 1.62 6 1.9 5.92 1.91 5.92 1 3 .48 1.48.55 1.45 4.39 11.64a344.5 344.5 0 0049.44 85.94l3.81 4.92 4 4.73c2.72 3.13 5.37 6.32 8.13 9.42l8.58 9 2.14 2.26 1.07 1.13 1.13 1.07 4.51 4.29 4.51 4.29c1.5 1.43 3 2.89 4.59 4.2l9.41 8.2c.79.67 1.56 1.36 2.37 2l2.46 1.9 4.92 3.81c3.28 2.53 6.51 5.14 10 7.44-.39 8.59-.6 17.45-.43 26.29a368.94 368.94 0 00274 53c1.06-2.44 2.11-5.01 3.12-7.55z" transform="translate(-1904.18 -3372.66)" fill="none"/><path class="cls-1" d="M2856.22 3826.87A379 379 0 002821 3761a381.9 381.9 0 00-105.1-105.1 380.78 380.78 0 00-423.36 0 381.9 381.9 0 00-105.1 105.1 380.78 380.78 0 000 423.36 381.9 381.9 0 00105.1 105.1 380.78 380.78 0 00423.36 0 381.9 381.9 0 00105.1-105.1 381.26 381.26 0 0035.22-357.49zM2363 4313.59a367 367 0 01-60.7-32.11c-.16-8.84 0-17.7.43-26.29-3.46-2.29-6.69-4.9-10-7.44l-4.92-3.81-2.46-1.9c-.8-.66-1.58-1.35-2.37-2l-9.44-8.11c-1.61-1.32-3.09-2.77-4.59-4.2l-4.51-4.29-4.51-4.29-1.13-1.07-1.07-1.13-2.14-2.26-8.58-9c-2.76-3.1-5.42-6.28-8.13-9.42l-4-4.73-3.81-4.92a344.5 344.5 0 01-49.44-85.94l-4.43-11.68-.55-1.45-.48-1.48-1-3-1.91-5.92-1.9-5.92-1.62-6-1.62-6c-.53-2-1.13-4-1.52-6l-2.66-12.15c-.49-2-.79-4.07-1.14-6.12l-1-6.13-1-6.13-.75-6.18-.74-6.18c-.22-2.06-.56-4.11-.66-6.19l-.89-12.41c-.19-2.07-.22-4.14-.26-6.22l-.15-6.22-.15-6.22c0-2.07.09-4.15.13-6.22l.15-6.22.07-3.11v-1.56l.11-1.55.89-12.41c.08-1 .12-2.07.24-3.1l.37-3.09.74-6.18.74-6.18c.28-2.05.68-4.09 1-6.14l1-6.13.52-3.07c.16-1 .34-2 .58-3.06q-6.38-6.21-12.69-12.84c-1.87-2-3.74-4-5.6-6a366.3 366.3 0 0151.88-118.56 369.89 369.89 0 01101.8-101.8 365.78 365.78 0 01100.42-47c2.11 1.75 4.21 3.51 6.27 5.28q6.94 6 13.48 12c2-.59 4-1 6.05-1.43l6.08-1.33 6.08-1.33c2-.38 4.09-.7 6.13-1l6.13-1 3.07-.52 1.53-.26 1.54-.18 12.36-1.48c1-.11 2.06-.27 3.09-.35l3.1-.22 6.21-.44 6.21-.45c2.07-.11 4.15-.11 6.22-.17l6.22-.15 3.11-.08c1 0 2.07-.05 3.11 0l12.44.3c1 0 2.07 0 3.11.09l3.1.23 6.21.45 6.21.44c2.07.17 4.12.48 6.18.71 4.11.52 8.25.93 12.35 1.54l12.27 2.07 3.07.52 3 .67 6.08 1.33 6.08 1.33c2 .43 4 1.05 6 1.57 4 1.1 8 2.12 12 3.27l11.84 3.82 3 1c1 .32 1.94.72 2.92 1.08l5.82 2.2c3.87 1.47 7.79 2.85 11.56 4.59l11.41 5 11.15 5.51A333.16 333.16 0 012704 3689l5.11 3.55c1.66 1.24 3.28 2.53 4.93 3.8 3.27 2.56 6.58 5 9.81 7.65 6.25 5.46 12.73 10.65 18.61 16.52l4.51 4.29 2.26 2.14c.76.71 1.44 1.49 2.16 2.24l8.58 9c.71.76 1.44 1.49 2.14 2.26l2 2.36 4.05 4.72c2.69 3.16 5.47 6.24 7.94 9.58 8.55-.82 17.4-1.48 26.24-1.78 3 4.07 5.88 8.18 8.68 12.36a368.86 368.86 0 0158.24 258.61c-2.49 1.19-5 2.37-7.46 3.5q-8.32 3.81-16.57 7.21c-.3 2.05-.81 4.07-1.24 6.1l-1.33 6.08-1.32 6.08-1.62 6-1.62 6c-.56 2-1 4-1.7 6l-3.82 11.84c-.33 1-.61 2-1 3l-1.1 2.91-2.2 5.82-2.19 5.82c-.76 1.93-1.64 3.81-2.45 5.72-1.67 3.79-3.26 7.63-5 11.39l-5.51 11.15-1.38 2.79c-.46.93-1 1.82-1.49 2.73l-3 5.43c-2 3.61-4 7.29-6.23 10.76l-6.59 10.55c-2.32 3.44-4.73 6.81-7.09 10.22-1.2 1.69-2.34 3.42-3.58 5.08l-3.81 4.92-3.81 4.92c-1.29 1.63-2.49 3.32-3.88 4.86l-8.11 9.44-2 2.36c-.69.77-1.43 1.51-2.14 2.26l-4.29 4.51-4.29 4.51c-.72.74-1.41 1.52-2.16 2.24l-2.26 2.14-9 8.58c-1.47 1.47-3.1 2.75-4.66 4.12l-4.72 4.05-4.72 4.06c-1.59 1.34-3.27 2.55-4.89 3.84l-9.84 7.61-10.21 7.11-2.55 1.78-1.28.89-1.32.82-5.28 3.29-5.27 3.3-2.64 1.65-2.72 1.51-10.86 6.06-1.36.76-1.39.69-2.79 1.38-5.57 2.76-5.57 2.76-5.71 2.47-5.7 2.48c-1.91.8-3.78 1.72-5.73 2.4l-11.64 4.39c-1 .36-1.93.75-2.92 1.08l-3 1-5.92 1.91-5.92 1.91c-2 .62-4 1.1-6 1.66-4 1.06-8 2.21-12 3.19q-3 8.39-6.36 16.89c-1 2.54-2.06 5.08-3.13 7.63a369.34 369.34 0 01-213.35-21.08z" transform="translate(-1904.18 -3372.66)"/></g></svg>