<svg preserveAspectRatio="none" id="Layer_1" data-name="Layer 1" xmlns="http://www.w3.org/2000/svg" viewBox="0 0 360.59 377.34"><defs><style>.cls-1{opacity:0.5;}.cls-2{fill:#49d3f7;}.cls-3{opacity:0.9;}.cls-4{opacity:0.8;}.cls-5{opacity:0.7;}.cls-6{opacity:0.6;}.cls-7{opacity:0.4;}.cls-8{opacity:0.3;}.cls-9{opacity:0.2;}.cls-10{opacity:0.1;}</style></defs><title>circle54</title><g class="cls-1"><path class="cls-2" d="M573.19,145.64l-2.66-1.21a178.67,178.67,0,0,0-16.8-6.78l-5.54-1.87c-1.93-.6-4-1.14-6-1.73l-3.14-.89c-1.07-.27-2.16-0.51-3.26-0.77-2.2-.5-4.44-1.06-6.74-1.52a199.86,199.86,0,0,0-29.12-3.51,191.88,191.88,0,0,0-29.3,1,186.66,186.66,0,0,0-25.2,4.53c-7.27,1.86-13.22,3.8-17.34,5.28l-6.44,2.41,8.61,21.52,5.65-2.1c3.61-1.29,8.82-3,15.19-4.63a163.49,163.49,0,0,1,22.09-4,168.76,168.76,0,0,1,25.74-.88,176.77,176.77,0,0,1,25.55,3.08c2,0.41,4,.91,5.9,1.34,1,0.23,1.92.43,2.86,0.67l2.75,0.78c1.81,0.52,3.58,1,5.27,1.52l4.86,1.65a155.67,155.67,0,0,1,14.72,5.94l2.33,1.05c0.67,0.32,1.23.62,1.69,0.85l1.4,0.72,10.47-20.68-1.6-.82C574.59,146.35,574,146,573.19,145.64Z" transform="translate(-319.71 -127.17)"/><path class="cls-2" d="M678.2,287.39c-0.27-1.69-.57-3.28-0.84-4.78l-0.75-4.2c-0.24-1.3-.55-2.47-0.78-3.54l-1.14-4.95c-0.25-1.15-.43-1.74-0.43-1.74L651.82,274s0.16,0.52.38,1.53l1,4.34c0.2,0.94.48,2,.69,3.1l0.65,3.68,0.74,4.19,0.59,4.68a167.06,167.06,0,0,1-1.08,48.07,156.31,156.31,0,0,1-6.26,24.94c-1.23,3.92-2.77,7.59-4.14,11.1-0.72,1.74-1.52,3.39-2.23,5s-1.41,3.18-2.2,4.63c-1.51,2.92-2.82,5.64-4.21,7.92s-2.44,4.37-3.52,6L629,408.25l19.22,13,3.71-5.78c1.22-1.81,2.48-4.16,4-6.79s3.09-5.7,4.81-9c0.89-1.65,1.68-3.44,2.51-5.28s1.72-3.73,2.54-5.72c1.57-4,3.31-8.19,4.73-12.66a179.26,179.26,0,0,0,7.14-28.46,190.23,190.23,0,0,0,1.23-54.75Z" transform="translate(-319.71 -127.17)"/><path class="cls-2" d="M508.2,480.52l-6.9.52c-2.67.18-5.69,0.17-9,.28a165.78,165.78,0,0,1-71.62-15.94c-1.87-.86-3.64-1.84-5.41-2.72l-2.61-1.34-2.48-1.43c-1.63-.95-3.23-1.83-4.75-2.75l-4.32-2.77-2-1.3-1.88-1.34-3.47-2.47c-1.11-.75-2.07-1.55-3-2.26l-2.5-2-2-1.59-1.43-1.24-1.19-1-15.14,17.55,1.36,1.17,1.63,1.41,2.29,1.81,2.85,2.24c1,0.81,2.14,1.71,3.4,2.58l4,2.81,2.14,1.52,2.31,1.49,4.92,3.15c1.73,1,3.55,2.06,5.41,3.14l2.83,1.62,3,1.53c2,1,4,2.12,6.17,3.1a189,189,0,0,0,81.66,18.18c3.74-.12,7.18-0.12,10.22-0.32l7.86-.6,6.82-.84-3.13-23Z" transform="translate(-319.71 -127.17)"/><path class="cls-2" d="M637.38,224.62a174,174,0,0,0-22.29-28.42,171.57,171.57,0,0,0-54-37.67A174.83,174.83,0,0,0,533.26,149l-6.74-1.56-6.63-1.19c-2.17-.44-4.35-0.64-6.48-0.93s-4.23-.58-6.31-0.69l-6.14-.47c-2-.1-4-0.11-5.95-0.17l-2.89-.07c-1,0-1.9,0-2.84,0l-5.52.13c-1.8.08-3.56,0.24-5.29,0.36s-3.42.2-5.06,0.44c-3.28.43-6.43,0.69-9.37,1.26s-5.75.93-8.34,1.56-5.06,1.06-7.29,1.71-4.33,1.13-6.21,1.71l-5.11,1.64c-1.54.46-2.86,1-4,1.4l-2.89,1.08-2.35.88,2.39,6,2.27-.84,2.78-1c1.1-.42,2.37-0.9,3.85-1.35l4.91-1.58c1.81-.56,3.82-1,6-1.65s4.51-1.09,7-1.65,5.19-1,8-1.5,5.86-.8,9-1.22c1.58-.23,3.21-0.29,4.87-0.42s3.36-.27,5.09-0.35l5.32-.13c0.9,0,1.82-.07,2.74,0l2.79,0.07c1.87,0.06,3.79.07,5.73,0.16l5.91,0.45c2,0.1,4,.42,6.08.67s4.15,0.47,6.24.89l6.38,1.15,6.49,1.5a168.44,168.44,0,0,1,26.76,9.18,165.14,165.14,0,0,1,52,36.26A167.53,167.53,0,0,1,631.93,228a160.51,160.51,0,0,1,15.79,32.67,166.48,166.48,0,0,1-1,113,169.76,169.76,0,0,1-18.05,35,166,166,0,0,1-57.63,52.42,166.37,166.37,0,0,1-35.63,14.38l-2.29.65-2.31.54-4.62,1.07c-3.08.68-6.2,1.14-9.28,1.72-3.11.37-6.2,0.84-9.3,1.14l-4.65.35c-1.55.12-3.09,0.26-4.63,0.26A165,165,0,0,1,375.85,434a168.64,168.64,0,0,1-18.46-21.47l-1.94-2.73c-0.65-.9-1.29-1.8-1.86-2.74l-3.5-5.46c-2.11-3.7-4.25-7.25-6-10.87-1.92-3.53-3.37-7.14-5-10.53l-2-5.13-1-2.5-0.84-2.49-1.64-4.83-1.34-4.69c-0.94-3-1.57-6-2.22-8.82a171.79,171.79,0,0,1-3.67-26.47c-0.17-3.08-.16-5.46-0.22-7.05l-0.06-2.42h-6.43s0,0.86.06,2.51,0.05,4.12.23,7.32a178.25,178.25,0,0,0,3.81,27.5c0.67,2.92,1.33,6,2.3,9.16l1.4,4.88,1.7,5,0.87,2.59,1,2.59,2.1,5.34c1.64,3.53,3.16,7.28,5.15,10.94,1.82,3.75,4,7.45,6.23,11.29l3.64,5.67c0.6,1,1.25,1.91,1.93,2.84l2,2.84a175.1,175.1,0,0,0,19.17,22.3,171.37,171.37,0,0,0,127.26,49c1.6,0,3.21-.14,4.81-0.27l4.83-.37c3.22-.31,6.43-0.79,9.66-1.18,3.2-.6,6.44-1.08,9.64-1.79l4.8-1.11,2.4-.56,2.38-.68a172.93,172.93,0,0,0,37-14.94A172.47,172.47,0,0,0,634,412.27a176.24,176.24,0,0,0,18.76-36.34,172.9,172.9,0,0,0,1-117.36A166.94,166.94,0,0,0,637.38,224.62Z" transform="translate(-319.71 -127.17)"/></g><path class="cls-2" d="M375.58,289.47l-0.24,1.06-0.51,2.82c-0.19,1.17-.49,2.53-0.66,4L373.58,302c-0.16,1.57-.26,3.15-0.38,4.63s-0.17,2.86-.2,4c-0.06,2.37-.09,3.94-0.09,3.94H350.35s0-1.87.11-4.68c0-1.4.08-3,.23-4.79s0.26-3.63.45-5.49l0.69-5.48c0.21-1.75.55-3.36,0.79-4.76l0.61-3.36,0.28-1.26Z" transform="translate(-319.71 -127.17)"/><path class="cls-2" d="M387.35,257.6l-1.81,3.52-0.87,1.71-0.89,1.95c-0.59,1.36-1.3,2.78-1.87,4.26l-1.7,4.33-1.31,3.84c-0.38,1.12-.7,2.06-0.87,2.73l-0.3,1-21.65-6.34,0.36-1.25c0.21-.8.59-1.91,1-3.25s1-2.9,1.57-4.57l2-5.15c0.68-1.76,1.51-3.45,2.22-5.07l1.06-2.31,1-2,2.15-4.18Z" transform="translate(-319.71 -127.17)"/><path class="cls-2" d="M407.63,230.39l-2.73,2.86c-0.83.84-1.73,1.9-2.7,3s-2,2.3-3,3.56a112.59,112.59,0,0,0-7.38,10.26l-19-12.2a135.81,135.81,0,0,1,8.77-12.19c1.14-1.49,2.39-2.89,3.54-4.23s2.22-2.57,3.21-3.58l3.24-3.39Z" transform="translate(-319.71 -127.17)"/><path class="cls-2" d="M434.72,210l-3.43,2c-1,.57-2.18,1.35-3.44,2.14s-2.58,1.65-3.86,2.58-2.6,1.81-3.76,2.72l-3.19,2.5c-0.94.72-1.66,1.4-2.19,1.84l-0.82.71-14.8-17,1-.84c0.63-.53,1.49-1.33,2.61-2.19l3.78-3c1.39-1.09,2.94-2.14,4.47-3.24s3.1-2.12,4.59-3.07,2.86-1.86,4.09-2.55l4.08-2.34Z" transform="translate(-319.71 -127.17)"/><path class="cls-2" d="M466.51,198l-3.86.89-3.91,1.1c-0.71.21-1.46,0.4-2.2,0.64l-2.24.75c-3,1-5.94,2.18-8.15,3s-3.61,1.61-3.61,1.61l-9.42-20.5s1.71-.79,4.3-1.91,6.11-2.48,9.7-3.63l2.67-.89c0.88-.29,1.76-0.52,2.61-0.77l4.65-1.3,4.59-1.07Z" transform="translate(-319.71 -127.17)"/><g class="cls-3"><path class="cls-2" d="M500.32,195.42l-1.08-.08c-0.69-.07-1.68-0.08-2.86-0.11l-4-.1-4.63.11c-1.58,0-3.15.17-4.63,0.27s-2.86.19-4,.37l-3.92.5-3.23-22.33,4.66-.59c1.4-.2,3-0.29,4.79-0.44s3.63-.3,5.5-0.32l5.5-.13,4.79,0.11c1.4,0,2.57.06,3.39,0.14l1.29,0.09Z" transform="translate(-319.71 -127.17)"/></g><g class="cls-4"><path class="cls-2" d="M533.55,202.44l-1-.36-2.72-.92-1.82-.61-2.06-.59c-1.43-.39-2.94-0.87-4.48-1.23l-4.53-1c-1.45-.31-2.82-0.52-4-0.74-2.33-.44-3.91-0.62-3.91-0.62L512.15,174s1.87,0.21,4.64.74c1.39,0.26,3,.52,4.74.89l5.39,1.24c1.83,0.44,3.63,1,5.34,1.46l2.44,0.71,2.17,0.72,3.23,1.1,1.22,0.43Z" transform="translate(-319.71 -127.17)"/></g><g class="cls-5"><path class="cls-2" d="M563.42,218.59l-3.22-2.29c-1-.7-2.13-1.44-3.37-2.24s-2.57-1.67-4-2.44a112.44,112.44,0,0,0-11.23-5.83L551,185.24a135.35,135.35,0,0,1,13.35,6.93c1.64,0.92,3.21,2,4.7,2.9s2.87,1.83,4,2.66l3.83,2.73Z" transform="translate(-319.71 -127.17)"/></g><g class="cls-6"><path class="cls-2" d="M587.53,242.45l-2.44-3.11c-0.71-.95-1.66-2-2.61-3.09s-2-2.32-3.11-3.44-2.16-2.31-3.24-3.33l-2.93-2.79c-0.85-.83-1.63-1.44-2.14-1.9l-0.82-.71L585,207l1,0.85c0.61,0.55,1.52,1.29,2.54,2.26L592,213.4c1.28,1.21,2.54,2.6,3.85,4s2.55,2.76,3.69,4.09,2.25,2.55,3.1,3.67l2.9,3.69Z" transform="translate(-319.71 -127.17)"/></g><g class="cls-1"><path class="cls-2" d="M604,272.14l-1.45-3.68c-0.45-1.1-1-2.35-1.65-3.7l-1-2.08-1.07-2.1c-1.39-2.84-3-5.56-4.2-7.62s-2.12-3.34-2.12-3.34l18.92-12.29s1,1.57,2.51,4,3.33,5.68,5,9.06l1.27,2.5,1.14,2.47c0.72,1.61,1.42,3.11,2,4.41l1.73,4.38Z" transform="translate(-319.71 -127.17)"/></g><g class="cls-7"><path class="cls-2" d="M611.39,305.29l-0.08-1.08c-0.06-.69-0.1-1.68-0.27-2.85l-0.51-4c-0.17-1.47-.51-3-0.77-4.58l-0.42-2.32-0.51-2.23c-0.34-1.44-.63-2.8-0.94-3.95l-1.08-3.81L628.43,274l1.28,4.53c0.37,1.36.72,3,1.12,4.69l0.6,2.66,0.51,2.76c0.32,1.85.7,3.7,0.91,5.45l0.61,4.78c0.19,1.4.25,2.57,0.32,3.39l0.1,1.29Z" transform="translate(-319.71 -127.17)"/></g><g class="cls-8"><path class="cls-2" d="M609.24,339.13s0.1-.38.22-1.07l0.51-2.82c0.47-2.33.82-5.47,1.21-8.61s0.52-6.3.53-8.67c0-1.18.05-2.17,0.07-2.86s0-1.08,0-1.08l22.56-.1s0,0.47,0,1.29,0,2-.08,3.39c0,2.81-.32,6.55-0.63,10.29s-0.89,7.47-1.44,10.24l-0.61,3.36c-0.14.81-.26,1.27-0.26,1.27Z" transform="translate(-319.71 -127.17)"/></g><g class="cls-9"><path class="cls-2" d="M597.59,371l1.81-3.52c0.56-1,1.12-2.32,1.73-3.67s1.29-2.78,1.84-4.27a111.62,111.62,0,0,0,4.14-12l21.68,6.24a134.79,134.79,0,0,1-4.93,14.24c-0.67,1.76-1.47,3.47-2.19,5.08s-1.4,3.11-2.06,4.36l-2.15,4.19Z" transform="translate(-319.71 -127.17)"/></g><g class="cls-10"><path class="cls-2" d="M577.44,398.35l2.73-2.86c0.83-.85,1.7-1.92,2.68-3l1.49-1.73c0.5-.6,1-1.23,1.47-1.84,1-1.25,2-2.46,2.83-3.68l2.35-3.3c0.69-1,1.19-1.82,1.58-2.39l0.59-.92,19,12.11-0.7,1.09c-0.45.68-1.06,1.69-1.87,2.84l-2.79,3.92c-1,1.45-2.21,2.89-3.36,4.38-0.58.73-1.16,1.48-1.75,2.19l-1.77,2.06c-1.16,1.32-2.21,2.59-3.19,3.6l-3.24,3.4Z" transform="translate(-319.71 -127.17)"/></g><path class="cls-2" d="M377,314.57s0,0.71,0,2.07,0,3.4.26,6a110.53,110.53,0,0,0,3.87,22.64l1.05,3.67,1.28,3.8c0.42,1.31.95,2.6,1.47,3.94s1,2.71,1.68,4.06a111.3,111.3,0,0,0,9.21,17,116.25,116.25,0,0,0,32.38,32.7,117.44,117.44,0,0,0,23.52,12.09,115.12,115.12,0,0,0,27.52,6.6c1.2,0.17,2.42.25,3.64,0.34l3.67,0.27,3.7,0.1,1.86,0c0.62,0,1.24,0,1.86,0l3.75-.1c1.25,0,2.51-.17,3.76-0.26,2.52-.14,5-0.52,7.57-0.83a114,114,0,0,0,15.13-3.28c2.53-.66,5-1.57,7.49-2.41,1.23-.46,2.46-1,3.69-1.44l1.85-.73,1.81-.82a115.37,115.37,0,0,0,27.34-17.06,115.58,115.58,0,0,0,30.25-39.19A117.45,117.45,0,0,0,602.75,348a119.1,119.1,0,0,0,3.7-16.53,115.43,115.43,0,0,0,0-33.81,119.08,119.08,0,0,0-3.7-16.54,114.87,114.87,0,0,0-14.31-30.35,115.8,115.8,0,0,0-22-24.59,115.36,115.36,0,0,0-27.34-17.06l-1.81-.82-1.85-.73c-1.23-.48-2.45-1-3.69-1.44-2.5-.83-5-1.74-7.49-2.41a114.35,114.35,0,0,0-15.13-3.28c-2.54-.32-5.05-0.69-7.57-0.83-1.26-.09-2.51-0.21-3.76-0.26l-3.75-.1c-0.62,0-1.24,0-1.86,0l-1.86,0-3.7.1-3.67.27c-1.22.1-2.44,0.17-3.64,0.34a115.07,115.07,0,0,0-27.52,6.6,117.44,117.44,0,0,0-23.52,12.09,116.27,116.27,0,0,0-32.38,32.7,111.27,111.27,0,0,0-9.21,17c-0.64,1.35-1.14,2.73-1.68,4.06s-1.06,2.63-1.47,3.94l-1.28,3.8-1.05,3.67a110.52,110.52,0,0,0-3.87,22.64c-0.25,2.64-.21,4.68-0.26,6s0,2.07,0,2.07h-1.21s0-.71,0-2.1,0-3.44.27-6.11A111.64,111.64,0,0,1,380,283.49l1.06-3.71,1.3-3.84c0.42-1.32,1-2.63,1.49-4s1-2.73,1.69-4.1a112.36,112.36,0,0,1,9.3-17.16,117.48,117.48,0,0,1,32.72-33,118.68,118.68,0,0,1,23.77-12.21,116.26,116.26,0,0,1,27.81-6.67c1.22-.18,2.45-0.25,3.68-0.35l3.71-.27,3.74-.1,1.88,0c0.63,0,1.25,0,1.88,0l3.79,0.1c1.27,0,2.53.17,3.81,0.26,2.55,0.14,5.09.52,7.65,0.84a115.39,115.39,0,0,1,15.29,3.31c2.55,0.67,5,1.59,7.56,2.43,1.25,0.46,2.48,1,3.73,1.45l1.86,0.74,1.83,0.83a116.56,116.56,0,0,1,27.63,17.24,116.8,116.8,0,0,1,30.57,39.61,118.74,118.74,0,0,1,6.13,15.92,120.12,120.12,0,0,1,3.74,16.71,116.69,116.69,0,0,1,0,34.16,120.13,120.13,0,0,1-3.74,16.71A116.08,116.08,0,0,1,589.45,379a116.91,116.91,0,0,1-22.23,24.85,116.54,116.54,0,0,1-27.63,17.24l-1.83.82-1.86.74c-1.24.49-2.48,1-3.73,1.45-2.52.84-5,1.76-7.56,2.43a115.31,115.31,0,0,1-15.29,3.31c-2.56.32-5.1,0.7-7.65,0.84-1.27.09-2.54,0.21-3.81,0.26l-3.79.1c-0.63,0-1.26,0-1.88,0l-1.88,0-3.74-.1-3.71-.27c-1.23-.1-2.46-0.17-3.68-0.35a116.21,116.21,0,0,1-27.81-6.67,118.68,118.68,0,0,1-23.77-12.21,117.48,117.48,0,0,1-32.72-33,112.33,112.33,0,0,1-9.3-17.15c-0.65-1.37-1.15-2.76-1.69-4.1s-1.07-2.66-1.49-4l-1.3-3.84L380,345.65a111.65,111.65,0,0,1-3.91-22.88c-0.25-2.67-.21-4.72-0.27-6.11s0-2.1,0-2.1H377Z" transform="translate(-319.71 -127.17)"/><path class="cls-2" d="M347.83,314.57s0,0.88.05,2.59,0,4.25.33,7.56a139.63,139.63,0,0,0,4.85,28.37l1.33,4.6,1.61,4.77c0.53,1.63,1.19,3.27,1.84,4.94s1.31,3.39,2.1,5.09a140.44,140.44,0,0,0,11.54,21.28A144.21,144.21,0,0,0,476,458.14c1.51,0.21,3,.31,4.56.43s3.06,0.24,4.6.33l4.62,0.13,2.32,0c0.77,0,1.55,0,2.33,0l4.68-.13c1.57-.06,3.14-0.21,4.71-0.32,3.15-.19,6.31-0.64,9.48-1a143.16,143.16,0,0,0,19-4.11c3.16-.85,6.26-2,9.39-3,1.55-.57,3.09-1.19,4.63-1.8l2.31-.93,2.28-1a144.56,144.56,0,0,0,34.25-21.37,144.21,144.21,0,0,0,50.12-89.58,144.5,144.5,0,0,0,0-42.3,144.56,144.56,0,0,0-50.12-89.58,144.52,144.52,0,0,0-34.25-21.37l-2.28-1-2.31-.93c-1.54-.61-3.08-1.23-4.63-1.8-3.13-1.06-6.23-2.18-9.39-3a143.37,143.37,0,0,0-19-4.11c-3.17-.41-6.33-0.86-9.48-1-1.57-.11-3.14-0.26-4.71-0.32l-4.68-.13c-0.78,0-1.55,0-2.33,0l-2.32,0-4.62.13c-1.54.09-3.07,0.21-4.6,0.33s-3,.22-4.56.43a144.28,144.28,0,0,0-34.51,8.28,144.54,144.54,0,0,0-70,56.09,140.38,140.38,0,0,0-11.54,21.28c-0.79,1.7-1.44,3.42-2.1,5.09s-1.31,3.3-1.84,4.94l-1.61,4.77-1.33,4.6a139.64,139.64,0,0,0-4.85,28.37c-0.29,3.31-.27,5.85-0.33,7.56s-0.05,2.59-.05,2.59h-1.21s0-.89.05-2.61,0-4.28.33-7.62a140.8,140.8,0,0,1,4.89-28.61l1.34-4.64,1.62-4.81c0.54-1.65,1.2-3.29,1.86-5s1.32-3.42,2.12-5.13a141.53,141.53,0,0,1,11.63-21.46,145.45,145.45,0,0,1,105.42-64.91c1.52-.21,3.06-0.31,4.6-0.44s3.08-.24,4.63-0.33l4.66-.13,2.34,0c0.78,0,1.57,0,2.35,0L499.2,169c1.58,0.06,3.16.21,4.75,0.32,3.18,0.2,6.36.64,9.56,1.06a144.55,144.55,0,0,1,19.14,4.14c3.19,0.86,6.31,2,9.47,3.05,1.56,0.58,3.11,1.2,4.67,1.81l2.33,0.93,2.3,1A145.74,145.74,0,0,1,586,202.91a145.44,145.44,0,0,1,50.54,90.34,145.87,145.87,0,0,1,0,42.65,149.45,149.45,0,0,1-4.68,20.91,145.38,145.38,0,0,1-18.09,38.38,146.17,146.17,0,0,1-27.77,31,145.78,145.78,0,0,1-34.54,21.55l-2.3,1-2.33.93c-1.56.61-3.11,1.24-4.67,1.81-3.15,1.07-6.28,2.2-9.47,3.05a144.43,144.43,0,0,1-19.14,4.14c-3.2.42-6.38,0.86-9.56,1.06-1.59.11-3.17,0.26-4.75,0.32l-4.72.13c-0.78,0-1.57,0-2.35,0l-2.34,0-4.66-.13c-1.55-.09-3.09-0.21-4.63-0.33s-3.07-.22-4.6-0.44a145.45,145.45,0,0,1-34.8-8.35,145.74,145.74,0,0,1-70.62-56.56A141.45,141.45,0,0,1,358.84,373c-0.8-1.71-1.45-3.45-2.12-5.13s-1.32-3.33-1.86-5l-1.62-4.81-1.34-4.64A140.81,140.81,0,0,1,347,324.8c-0.29-3.34-.27-5.89-0.33-7.62s-0.05-2.61-.05-2.61h1.21Z" transform="translate(-319.71 -127.17)"/><path class="cls-2" d="M472.85,239.38l1.7-.39c1-.24,2.37-0.57,3.75-0.78l2-.37c0.65-.1,1.25-0.16,1.77-0.23l1.73-.22-3.51-32.23,0.69-.09,1.53-.12,2.23-.17,3.45,50.66-2.09.15c-1.24.19-2.91,0.33-4.53,0.67l-1.22.21-1.17.28c-0.75.19-1.48,0.3-2.07,0.49l-2,.57-14.7-48.6,4.31-1.22Z" transform="translate(-319.71 -127.17)"/><path class="cls-2" d="M568.8,305.84a15.32,15.32,0,0,1,.17,1.72c0,1,.23,2.42.25,3.81s0.11,2.78.07,3.83,0,1.74,0,1.74l32.41,1s0,1.11-.06,2.22l-0.16,2.22-50.65-3.57,0-.57a13,13,0,0,0,.07-1.51c0-.63,0-1.36.07-2.14s-0.06-1.62-.07-2.45-0.13-1.66-.16-2.43c0-.39-0.05-0.76-0.07-1.12l-0.14-1-0.25-2,50.19-7.72,0.57,4.41Z" transform="translate(-319.71 -127.17)"/><path class="cls-2" d="M490.24,391.66l-1.74,0-3.81-.28-3.79-.47c-0.52-.05-0.94-0.16-1.24-0.21l-0.47-.08-5.48,32-2.19-.39c-1.1-.18-2.18-0.44-2.18-0.44L480,372l0.55,0.13,1.47,0.25c1.21,0.27,2.86.42,4.5,0.64,0.83,0,1.66.11,2.44,0.18s1.52,0,2.14.06a19.87,19.87,0,0,0,2.09,0l0.68,50.78-0.7,0c-0.42,0-1,0-1.53,0l-2.22-.05Z" transform="translate(-319.71 -127.17)"/><path class="cls-2" d="M477,205.59l3.52,25.14-1.06.13-2.31.42c-1.69.26-3.34,0.67-3.34,0.67l-5.54-24.78s2.16-.53,4.35-0.88l3-.53Z" transform="translate(-319.71 -127.17)"/><path class="cls-2" d="M601.74,314.57H576.35l-0.09-3.4c0-.85-0.08-1.7-0.13-2.33L576,307.78l25.31-2,0.1,1.37c0.06,0.83.16,1.92,0.17,3Z" transform="translate(-319.71 -127.17)"/><path class="cls-2" d="M477,423.06l3.52-25.14,3.37,0.42,3.39,0.26-1.49,25.35-4.4-.34Z" transform="translate(-319.71 -127.17)"/><path class="cls-2" d="M437.67,215.74l8.18,14.75-1.32.76c-0.84.48-2,1.14-3.43,2.06l-2.25,1.44c-0.79.53-1.59,1.13-2.44,1.72-1.72,1.16-3.41,2.59-5.16,3.94s-3.38,2.85-4.85,4.31c-0.75.72-1.48,1.4-2.15,2.07l-1.84,1.94c-1.17,1.18-2,2.24-2.68,3l-1,1.15,4.4,3.7-0.46.53-1.24,1.57c-0.52.69-1.21,1.48-1.9,2.47s-1.5,2.07-2.32,3.3a89.48,89.48,0,0,0-14.66,40.31c-0.27,2.94-.47,5.4-0.47,7.13s-0.07,2.71-.07,2.71H379.4l0.13-5.16c0.06-1.64.25-3.63,0.42-5.91,0.1-1.14.28-2.35,0.43-3.62s0.32-2.62.59-4a108.68,108.68,0,0,1,4.79-18.66,112.92,112.92,0,0,1,22.32-37.81,114.63,114.63,0,0,1,25.12-21c1.39-.87,2.54-1.48,3.29-1.93Zm-46.3,87.43a2.86,2.86,0,1,0-.48,5.7,2.91,2.91,0,0,0,3.08-2.61A2.94,2.94,0,0,0,391.36,303.16Zm1.62-10a2.79,2.79,0,0,0-3.37,2.28,2.82,2.82,0,0,0,2.32,3.34,2.92,2.92,0,0,0,3.33-2.29,2.83,2.83,0,0,0-.48-2.1A2.89,2.89,0,0,0,393,293.19Zm2.61-9.76a2.79,2.79,0,0,0-3.59,1.94,2.82,2.82,0,0,0,2,3.55,2.92,2.92,0,0,0,3.54-1.95,2.84,2.84,0,0,0-.26-2.14A2.88,2.88,0,0,0,395.59,283.43Zm3.57-9.45a2.86,2.86,0,1,0-2.15,5.3A2.86,2.86,0,0,0,399.16,274Zm4.5-9A2.86,2.86,0,1,0,401,270,2.86,2.86,0,0,0,403.66,264.94Zm5.37-8.55a2.86,2.86,0,1,0-3.15,4.77A2.86,2.86,0,0,0,409,256.39Z" transform="translate(-319.71 -127.17)"/><path class="cls-2" d="M596.37,270.49l-15.53,6.59-0.63-1.38c-0.42-.87-0.92-2.16-1.69-3.63s-1.59-3.22-2.66-5c-0.53-.89-1-1.84-1.61-2.75l-1.78-2.77a95.39,95.39,0,0,0-7.34-9.67l-1.48-1.71c-0.44-.51-0.87-0.92-1.19-1.27l-1-1.1-4.13,4-0.49-.51c-0.31-.34-0.79-0.82-1.42-1.41l-2.25-2.15-3-2.64a89.81,89.81,0,0,0-38.56-18.8c-1.43-.36-2.78-0.52-4-0.76s-2.21-.36-3.07-0.46l-2.69-.34,0.59-5.72,1.74-16.78,5.13,0.65c1.62,0.26,3.59.63,5.85,1l3.56,0.82,1.93,0.45,2,0.56c1.35,0.4,2.78.75,4.22,1.25l4.46,1.52,4.63,1.82c1.57,0.66,3.14,1.4,4.74,2.12a112.73,112.73,0,0,1,46.95,41.43c1.57,2.35,2.78,4.64,3.94,6.61s2,3.81,2.71,5.28Zm-82.14-55.18a2.86,2.86,0,1,0-5.62-1.08A2.86,2.86,0,0,0,514.23,215.32ZM524,218a2.86,2.86,0,1,0-5.48-1.63A2.86,2.86,0,0,0,524,218Zm9.43,3.62a2.86,2.86,0,1,0-5.29-2.17A2.86,2.86,0,0,0,533.4,221.59Zm9,4.54a2.86,2.86,0,1,0-5-2.69A2.86,2.86,0,0,0,542.42,226.14Zm8.53,5.42a2.86,2.86,0,1,0-4.76-3.18A2.86,2.86,0,0,0,550.95,231.55Zm7.95,6.23a2.86,2.86,0,1,0-4,.36A2.86,2.86,0,0,0,558.9,237.79Z" transform="translate(-319.71 -127.17)"/><path class="cls-2" d="M517.5,424.67l-3.74-16.45,1.48-.34c0.95-.19,2.27-0.59,3.86-1a94.46,94.46,0,0,0,11.42-4.09l3-1.36c1-.45,1.92-1,2.85-1.43,1.86-.9,3.51-1.92,5-2.74s2.57-1.62,3.39-2.12l1.28-.82-3.22-4.77,2.21-1.57c0.71-.5,1.56-1.09,2.5-1.86l1.5-1.18,0.82-.64,0.82-.71a91.62,91.62,0,0,0,14.74-15.83l1.71-2.4c0.55-.81,1.06-1.65,1.59-2.46,1.09-1.61,2-3.3,2.91-4.89s1.69-3.22,2.42-4.74,1.4-3,1.92-4.36,1.07-2.62,1.45-3.76l1-2.94c0.3-.81.45-1.47,0.58-1.91l0.19-.68,5.53,1.59,16.21,4.66-0.37,1.3c-0.22.86-.65,2.08-1.17,3.64l-0.88,2.58-1.17,3c-0.8,2.15-1.91,4.49-3.07,7.06A116.53,116.53,0,0,1,584.4,380a113.48,113.48,0,0,1-31.88,30.16,115.14,115.14,0,0,1-17.1,8.85l-3.77,1.48c-1.2.46-2.37,0.82-3.45,1.2-2.16.77-4.09,1.28-5.68,1.74-0.79.22-1.5,0.43-2.12,0.59l-1.58.37Zm68.74-71.17a2.86,2.86,0,1,0,2-5.35A2.86,2.86,0,0,0,586.25,353.49Zm-4.33,9.13a2.86,2.86,0,1,0,2.55-5.12A2.86,2.86,0,0,0,581.92,362.62Zm-5.21,8.65a2.82,2.82,0,0,0,4-.87,2.79,2.79,0,0,0-.93-4,2.88,2.88,0,0,0-2.16-.33,2.84,2.84,0,0,0-1.78,1.22A2.92,2.92,0,0,0,576.7,371.27Zm-6.05,8.09a2.86,2.86,0,1,0,3.52-4.51A2.86,2.86,0,0,0,570.65,379.36Zm-6.83,7.45a2.86,2.86,0,1,0,4-4.13A2.86,2.86,0,0,0,563.82,386.81Zm-7.53,6.74a2.79,2.79,0,0,0,4.06.34,2.82,2.82,0,0,0,.29-4.06,2.92,2.92,0,0,0-4-.31,2.83,2.83,0,0,0-1,1.94A2.89,2.89,0,0,0,556.29,393.55Z" transform="translate(-319.71 -127.17)"/><path class="cls-2" d="M400.82,414.19a5.37,5.37,0,0,0,3.83,1.48,5.3,5.3,0,0,0,3.66-1.51l1.72,1.48,2.3,1.78c1.54,1.18,3,2.4,4.66,3.48,3.15,2.27,6.44,4.33,9.77,6.32a126.33,126.33,0,0,0,21.06,9.85,131.43,131.43,0,0,0,45.65,7.81,130.05,130.05,0,0,0,85.11-32.63c1-.86,2-1.81,3-2.74l2.93-2.79-0.74-.74-2.91,2.76c-1,.92-1.92,1.86-3,2.71a129.07,129.07,0,0,1-84.42,32.36,130.4,130.4,0,0,1-45.29-7.74,125.39,125.39,0,0,1-20.89-9.77c-3.3-2-6.57-4-9.69-6.27-1.6-1.07-3.1-2.28-4.63-3.45l-2.28-1.77L409,413.35a5.68,5.68,0,0,0,1-3.81,5.46,5.46,0,0,0-9.42-3.19A5.42,5.42,0,0,0,400.82,414.19Z" transform="translate(-319.71 -127.17)"/><path class="cls-2" d="M529.54,303.53a1.26,1.26,0,0,0-.39-0.88,1.24,1.24,0,0,0-.85-0.35l0-.53-0.08-.67c-0.06-.45-0.11-0.9-0.2-1.35-0.14-.89-0.35-1.78-0.57-2.66a29.5,29.5,0,0,0-1.85-5.1,30.73,30.73,0,0,0-6.25-8.83,30.38,30.38,0,0,0-19.44-8.67c-0.31,0-.63,0-0.94,0l-0.94,0v0.24l0.94,0c0.31,0,.63,0,0.94,0a30.14,30.14,0,0,1,19.29,8.6,30.46,30.46,0,0,1,6.2,8.76,29.36,29.36,0,0,1,1.84,5.06c0.22,0.87.42,1.75,0.56,2.64,0.09,0.44.14,0.89,0.19,1.33l0.08,0.67,0,0.52a1.33,1.33,0,0,0-.79.47,1.28,1.28,0,0,0,1,2.08A1.26,1.26,0,0,0,529.54,303.53Z" transform="translate(-319.71 -127.17)"/><rect class="cls-2" x="397.39" y="354.69" width="49.09" height="5.5" transform="translate(-445.33 152.97) rotate(-32.23)"/><path class="cls-2" d="M510.57,319.36l0.19-.73c0.09-.41.13-0.88,0.23-1.38l0.07-.38c0-.2,0-0.39,0-0.58,0-.38,0-0.73.05-1,0-.6.05-1,0.05-1l30.2,1.53s0,0.4-.05,1l-0.05,1c0,0.19,0,.38,0,0.58l-0.14,1.38c-0.11,1-.24,1.91-0.37,2.8l-0.21,1.28c-0.07.41-.14,0.8-0.21,1.05l-0.46,1.88Z" transform="translate(-319.71 -127.17)"/><path class="cls-2" d="M508,325.28l0.39-.65a10.07,10.07,0,0,0,.8-1.45,12,12,0,0,0,.68-1.51l0.26-.71,28.55,9.95L538,332.72a40.35,40.35,0,0,1-1.73,3.89,36.58,36.58,0,0,1-2.05,3.72l-1,1.64Z" transform="translate(-319.71 -127.17)"/><path class="cls-2" d="M503.52,330l0.61-.45,1.23-1.12c0.43-.42.81-0.9,1.13-1.22a3.44,3.44,0,0,0,.48-0.58l23.68,18.8a17.27,17.27,0,0,1-1.23,1.48c-0.77.86-1.79,2-2.89,3.1s-2.27,2.09-3.14,2.84L521.87,354Z" transform="translate(-319.71 -127.17)"/><path class="cls-2" d="M497.8,333l0.71-.26,0.73-.26c0.26-.1.53-0.26,0.8-0.38a10.94,10.94,0,0,0,1.47-.77l0.65-.39,16.21,25.52-1.65,1a38.43,38.43,0,0,1-3.77,2c-0.7.33-1.4,0.67-2.07,0.95l-1.86.71-1.83.65Z" transform="translate(-319.71 -127.17)"/><path class="cls-2" d="M491.59,334h0.24l0.31,0,1.67-.09,1.64-.25a3,3,0,0,0,.54-0.11l0.2-.05,6.87,29.45-0.52.13c-0.33.08-.8,0.2-1.37,0.29-1.14.2-2.67,0.44-4.21,0.63s-3.07.2-4.22,0.24l-0.78,0h-0.17l-1.29,0h-0.42Z" transform="translate(-319.71 -127.17)"/><path class="cls-2" d="M485,332.77l0.71,0.26c0.42,0.17,1,.27,1.6.44a11,11,0,0,0,1.44.28l0.62,0.12-1.66,30.19s-1-.08-2.38-0.27c-0.71-.09-1.55-0.21-2.43-0.36-0.42-.07-0.95-0.15-1.32-0.24l-1.12-.27c-1.5-.38-3-0.74-4.11-1.14l-1.83-.65Z" transform="translate(-319.71 -127.17)"/><path class="cls-2" d="M479.39,329.57L480,330a11.93,11.93,0,0,0,1.36,1,16.14,16.14,0,0,0,2.12,1.16l-12.91,27.34-1.74-.85c-1.05-.49-2.35-1.33-3.68-2.13a40.38,40.38,0,0,1-3.48-2.43l-1.53-1.18Z" transform="translate(-319.71 -127.17)"/><path class="cls-2" d="M475.17,324.64l0.39,0.65c0.24,0.38.64,0.85,1,1.34s0.81,0.9,1.09,1.25L478,328.3l0.15,0.14L457,350l-0.38-.37-1-1c-0.77-.86-1.85-2-2.78-3.2S451,343,450.36,342l-1-1.64Z" transform="translate(-319.71 -127.17)"/><path class="cls-2" d="M472.76,318.64l0.19,0.73a10.69,10.69,0,0,0,.47,1.59,13.33,13.33,0,0,0,.61,1.54l0.33,0.68-27.09,13.44-0.83-1.75a42.41,42.41,0,0,1-1.57-4,37.66,37.66,0,0,1-1.22-4.08l-0.46-1.88Z" transform="translate(-319.71 -127.17)"/><path class="cls-2" d="M472.52,311.89l0,0.17c0,0.06,0,.11,0,0.2s0,0.26,0,.41c0,0.6-.07,1.41-0.11,2.22,0-.66,0-0.18,0-0.33h0V315c0,0.15,0,.3,0,0.44s0,0.55,0,.78a4.13,4.13,0,0,0,.08.75l-30,3.72-0.07-.53c-0.05-.34-0.1-0.81-0.13-1.39l-0.11-2c0-.36,0-0.73,0-1.11l0-.57V314.6l0-1.24c0-.81.08-1.61,0.11-2.22l0-.41,0.07-.72,0.07-.66Z" transform="translate(-319.71 -127.17)"/><path class="cls-2" d="M474.36,306l-0.33.68a13.28,13.28,0,0,0-.61,1.54,10.69,10.69,0,0,0-.47,1.59l-0.19.73-29.57-6.3,0.46-1.88a37.65,37.65,0,0,1,1.22-4.08,42.34,42.34,0,0,1,1.57-4l0.83-1.75Z" transform="translate(-319.71 -127.17)"/><path class="cls-2" d="M478.15,300.7l-0.15.14-0.37.41c-0.29.35-.75,0.75-1.09,1.25s-0.74,1-1,1.34l-0.39.65-25.83-15.72,1-1.64c0.63-1,1.57-2.2,2.5-3.43s2-2.34,2.78-3.2l1-1,0.38-.37Z" transform="translate(-319.71 -127.17)"/><path class="cls-2" d="M483.48,297a16.15,16.15,0,0,0-2.12,1.16,12,12,0,0,0-1.36,1l-0.61.45-19.25-23.32,1.53-1.18a40.1,40.1,0,0,1,3.48-2.43c1.32-.8,2.63-1.64,3.68-2.13l1.74-.85Z" transform="translate(-319.71 -127.17)"/><path class="cls-2" d="M489.71,295.24l-0.75.12a11.67,11.67,0,0,0-1.63.3c-0.58.17-1.18,0.27-1.6,0.44l-0.71.26L474.53,268l1.83-.65c1.09-.39,2.61-0.75,4.11-1.14a39.72,39.72,0,0,1,4.18-.78l1.91-.27Z" transform="translate(-319.71 -127.17)"/><path class="cls-2" d="M474.64,314.61c0,0.19,0-.47,0,0.41l0-.36h0v0Z" transform="translate(-319.71 -127.17)"/><path class="cls-2" d="M492.19,331.7h0Z" transform="translate(-319.71 -127.17)"/><path class="cls-2" d="M491.75,297.45h-0.4l0.32,0h0.08Z" transform="translate(-319.71 -127.17)"/><path class="cls-2" d="M508.87,314.48l0-.36h0c0-.2,0-0.44,0-0.76s0-.42,0-0.66l-0.13-.78c0-.28-0.07-0.59-0.14-0.91l-0.27-1a16.4,16.4,0,0,0-2.16-4.8,17.53,17.53,0,0,0-4.81-4.87,18,18,0,0,0-3.49-1.77l-1-.36-1-.25-0.51-.14c-0.17,0-.27,0-0.41-0.06s-0.52-.09-0.78-0.15a3.33,3.33,0,0,0-.67-0.06l-0.83,0-0.83,0H491.5a17.9,17.9,0,0,0-6.68,1.46,18.35,18.35,0,0,0-4.06,2.53,19.27,19.27,0,0,0-3.28,3.66,19,19,0,0,0-2.12,4.49q-0.14.61-.31,1.21l-0.08.3,0,0.23c0,0.15,0,.31-0.07.46s-0.06.3-.1,0.46a0.76,0.76,0,0,0,0,.13v0.24l0,0.48-0.08,1.55v0.23l0,0.32,0,0.63a6.77,6.77,0,0,0,.14,1.25,17.54,17.54,0,0,0,.52,2.45,19,19,0,0,0,2.12,4.49,19.26,19.26,0,0,0,3.28,3.66,18.32,18.32,0,0,0,4.06,2.53,8.42,8.42,0,0,0,1.09.43,7.22,7.22,0,0,0,1.1.37l1.11,0.29c0.36,0.09.58,0.08,0.87,0.15a17.11,17.11,0,0,0,2.81.24h0l0.21,0,0.55,0c0.37,0,.74,0,1.09-0.07a17.73,17.73,0,0,0,7.56-2.76,17.52,17.52,0,0,0,4.81-4.87,16.4,16.4,0,0,0,2.16-4.8l0.27-1c0.06-.29.06-0.48,0.11-0.7s0.08-.4.12-0.57a2.21,2.21,0,0,0,0-.43c0-.17,0-0.32,0-0.47,0-.61.05-1.07,0.07-1.38h0v-0.09Zm-1.72,1.86a1.91,1.91,0,0,1,0,.42c0,0.14-.08.29-0.11,0.46s0,0.32-.09.57-0.16.59-.24,0.91a14.84,14.84,0,0,1-2,4.34,15.89,15.89,0,0,1-4.36,4.41,16.1,16.1,0,0,1-6.83,2.5c-0.32.06-.66,0-1,0.06l-0.5,0h-0.17a14.88,14.88,0,0,1-2.66-.23l-0.34-.06a1.64,1.64,0,0,1-.39-0.07l-1-.26a6.23,6.23,0,0,1-1-.33,7.24,7.24,0,0,1-1-.38,16.73,16.73,0,0,1-3.67-2.29,17.76,17.76,0,0,1-3-3.31,17.51,17.51,0,0,1-1.92-4.06,16.41,16.41,0,0,1-.47-2.21,5.85,5.85,0,0,1-.13-1.13l0-.57,0-.29v-0.19l0.08-1.48,0-.48v-0.24a0.52,0.52,0,0,1,0-.11c0-.12.07-0.24,0.09-0.37s0-.25.06-0.37l0-.19,0.08-.27c0.1-.36.19-0.73,0.28-1.1a17.52,17.52,0,0,1,1.92-4.06,17.72,17.72,0,0,1,3-3.31,16.72,16.72,0,0,1,3.67-2.28,16.3,16.3,0,0,1,6-1.32h0.16l0.83,0,0.83,0a2.86,2.86,0,0,1,.65.06,4.47,4.47,0,0,0,.63.13,2.76,2.76,0,0,1,.34,0l0.46,0.13,0.91,0.22,0.87,0.32a16.31,16.31,0,0,1,3.16,1.6,15.9,15.9,0,0,1,4.36,4.41,14.83,14.83,0,0,1,2,4.34c0.08,0.32.16,0.62,0.24,0.91s0.08,0.57.12,0.82l0.12,0.71a5.87,5.87,0,0,1,0,.6c0,0.52,0,.85.06,1,0,0.31,0,.77-0.07,1.4C507.17,316,507.16,316.17,507.15,316.34Z" transform="translate(-319.71 -127.17)"/><path class="cls-2" d="M543.14,317.69c0,0.15,0,.31,0,0.47s0,0.21-.06.78c-0.09.9-.2,1.89-0.35,3l-0.25,1.65-0.15.87c-0.05.3-.11,0.6-0.16,0.81q-0.34,1.44-.77,3.06a50.78,50.78,0,0,1-6.56,14.51,51.41,51.41,0,0,1-37.26,22.93c-1.08.15-2.16,0.18-3.25,0.24l-1.65.07-0.83,0-1.38,0h-0.37l-1.69-.09c-0.2,0-2-.16-3.38-0.34q-1.06-.14-2.12-0.31c-0.68-.11-1.5-0.24-2-0.37q-1.69-.4-3.38-0.86c-1.13-.28-2.23-0.7-3.34-1.1s-2.23-.79-3.3-1.31A52.65,52.65,0,0,1,458.67,354a51.51,51.51,0,0,1-16.2-24.54,52.13,52.13,0,0,1-1.63-7.4,34.31,34.31,0,0,1-.42-3.76l-0.1-1.88,0-.94v-0.82a10.47,10.47,0,1,1,0-1.41l0.1-1.91,0-.48v-0.24l0-.54q0.12-1.18.27-2.35t0.35-2.34l0.2-1.16,0.22-.93q0.44-1.85,1-3.67a51.51,51.51,0,0,1,16.2-24.54,52.67,52.67,0,0,1,12.21-7.61A52.26,52.26,0,0,1,491,263.08h0.73l1.36,0,0.42,0,0.83,0,0.83,0,0.41,0h0.1l0.22,0,0.51,0c1.35,0.14,2.69.31,4,.52l1,0.16c0.31,0.06.69,0.12,0.92,0.18l1.55,0.38q1.54,0.38,3,.81c1,0.32,2,.67,2.93,1a51.15,51.15,0,0,1,25,20,50.78,50.78,0,0,1,6.56,14.51q0.43,1.61.77,3.06c0.21,1,.34,1.88.47,2.73L543,309c0.09,0.72.11,1.38,0.15,2,0.14,2.35.15,3.61,0.15,3.61h1.63s0-1.3-.16-3.72c0-.61-0.07-1.28-0.16-2l-0.35-2.44c-0.14-.88-0.28-1.82-0.49-2.81s-0.49-2-.79-3.15a52.4,52.4,0,0,0-6.77-15,52.76,52.76,0,0,0-25.74-20.59c-1-.37-2-0.73-3-1.06s-2.08-.57-3.14-0.84l-1.6-.38c-0.24-.06-0.63-0.13-1-0.18l-1-.17c-1.37-.22-2.77-0.4-4.17-0.54l-0.53-.05-0.23,0h-0.1l-0.41,0-0.83,0-0.83,0-0.42,0-1.44,0H491A53.9,53.9,0,0,0,470.22,266a54.24,54.24,0,0,0-12.6,7.85,53.14,53.14,0,0,0-16.72,25.31q-0.53,1.88-1,3.79l-0.22,1-0.21,1.21q-0.2,1.21-.36,2.43T438.84,310l-0.05.56v0.24l0,0.48-0.1,1.91a10.68,10.68,0,1,0,0,1.5v0.36l0,0.49,0,1,0.1,1.94a35.84,35.84,0,0,0,.43,3.87,53.83,53.83,0,0,0,1.68,7.63,53.12,53.12,0,0,0,16.72,25.31,54.29,54.29,0,0,0,12.6,7.85c1.1,0.54,2.26.92,3.4,1.36s2.28,0.84,3.45,1.13,2.33,0.61,3.49.89c0.51,0.14,1.36.27,2.06,0.39s1.47,0.23,2.21.32,1.47,0.18,2.2.25c0.93,0.1.93,0.07,1.28,0.1l1.69,0.09h0.37l1.47,0,0.85,0,1.7-.07c1.13-.07,2.25-0.1,3.36-0.25a53,53,0,0,0,38.44-23.66,52.41,52.41,0,0,0,6.77-15c0.3-1.11.56-2.16,0.79-3.15l0.09-.38,0.08-.46,0.15-.9,0.26-1.72c0.15-1.11.27-2.13,0.36-3.07,0.06-.59,0-0.58.06-0.79s0-.32,0-0.47l0.09-1.83-1.62-.08Z" transform="translate(-319.71 -127.17)"/><path class="cls-2" d="M479.24,314.57h0c0,1.36,0,.37,0,0.67h0v-0.36c0-.06,0-0.12,0-0.18v-0.1h0Z" transform="translate(-319.71 -127.17)"/><path class="cls-2" d="M491.77,327.09h0l0.68,0h-0.15l-0.41,0h-0.1Z" transform="translate(-319.71 -127.17)"/><path class="cls-2" d="M501.92,316.55l-0.61-.09a9.28,9.28,0,0,0,.2-1.9,9.1,9.1,0,0,0-1.23-4.58l0.57-.41c1-.77,1.69-1.34,1.69-1.34l-0.21-.35a6,6,0,0,0-.62-0.89,12.1,12.1,0,0,0-1-1.17c-0.18-.22-0.43-0.38-0.64-0.59l-0.32-.31c-0.12-.09-0.25-0.17-0.37-0.26a13,13,0,0,0-2.82-1.66c-0.42-.13-0.77-0.27-1-0.37a3,3,0,0,0-.4-0.1s-0.38.79-.87,2c-0.12.31-.25,0.65-0.39,1a8.73,8.73,0,0,0-3.22,0c-0.11-.44-0.21-0.87-0.32-1.24-0.35-1.25-.64-2.07-0.64-2.07l-0.41.05c-0.26,0-.61.18-1,0.26a3.23,3.23,0,0,0-.68.23l-0.75.27a15.61,15.61,0,0,0-3,1.82l-0.6.55a3.25,3.25,0,0,0-.52.51c-0.28.35-.58,0.59-0.72,0.81l-0.24.34s0.6,0.64,1.53,1.53c0.36,0.34.8,0.73,1.27,1.14a9.09,9.09,0,0,0-1.11,2.62c-0.63-.09-1.23-0.17-1.76-0.22-1.3-.13-2.19-0.16-2.19-0.16a1,1,0,0,0,0,.22,1,1,0,0,1,0,.21l-0.05.13a0.22,0.22,0,0,0,0,.1c0,0.11,0,.22,0,0.34l-0.08,1.5v0.22l0,0.31c0,0.28,0,.58,0,0.87s0.11,0.58.15,0.88a4,4,0,0,0,.19.86,7.85,7.85,0,0,0,.22.83,11.72,11.72,0,0,0,.57,1.41,6.06,6.06,0,0,0,.49,1l0.22,0.35s0.81-.32,2-0.88c0.45-.22,1-0.49,1.52-0.78a9.23,9.23,0,0,0,2,2.21c-0.27.49-.53,1-0.74,1.38-0.3.59-.53,1.08-0.68,1.42l-0.24.54,0.35,0.21a5.33,5.33,0,0,0,.94.52l0.64,0.33c0.25,0.08.5,0.16,0.76,0.26l0.39,0.16,0.42,0.09c0.26,0.05.61,0.18,0.81,0.21a1.1,1.1,0,0,1,.4.08l0.1,0h0.37l0.88,0,0.85,0h0l0.73,0a5.33,5.33,0,0,0,1.08-.12l0.41-.05s0-.21,0-0.59,0-.91-0.09-1.58c0-.34-0.06-0.71-0.1-1.1a9.1,9.1,0,0,0,3.08-1.11l0.6,0.69c0.86,0.95,1.49,1.55,1.49,1.55l0.33-.25c0.1-.08.24-0.16,0.38-0.28l0.45-.42a11.8,11.8,0,0,0,2.11-2.52,13.65,13.65,0,0,0,1.39-2.95c0.09-.44.18-0.79,0.26-1l0-.16V317s0,0,0,0S503.18,316.76,501.92,316.55Z" transform="translate(-319.71 -127.17)"/></svg>