<svg preserveAspectRatio="none" xmlns="http://www.w3.org/2000/svg" xmlns:xlink="http://www.w3.org/1999/xlink" viewBox="0 0 375.25 279.41"><defs><style>.cls-1,.cls-11,.cls-12,.cls-13,.cls-15{fill:none;}.cls-2{isolation:isolate;}.cls-3{fill:#03a6ff;}.cls-4,.cls-6{fill:#0080ff;}.cls-5,.cls-8{mix-blend-mode:screen;}.cls-11,.cls-12,.cls-13,.cls-15,.cls-6{stroke:#03a6ff;stroke-miterlimit:10;}.cls-11,.cls-15,.cls-6{stroke-width:0.5px;}.cls-7,.cls-8{opacity:0.5;}.cls-9{clip-path:url(#clip-path);}.cls-10{fill:#ff1493;}.cls-12{stroke-width:0.76px;}.cls-14{clip-path:url(#clip-path-2);}.cls-15{stroke-linecap:round;}.cls-16{clip-path:url(#clip-path-3);}.cls-17{clip-path:url(#clip-path-4);}.cls-18{clip-path:url(#clip-path-5);}.cls-19{clip-path:url(#clip-path-6);}.cls-20{clip-path:url(#clip-path-7);}</style><clipPath id="clip-path" transform="translate(-112.37 -60.37)"><path class="cls-1" d="M275.59,234.56l0-3.71,1.13,0,0.23,3.7Q276.26,234.55,275.59,234.56Zm-5.24-.45c-0.44-.08-0.87-0.17-1.29-0.28l0.88-3.6,1.1,0.24Zm11.76-.45-1-3.58q0.55-.15,1.08-0.32l1.15,3.53Q282.76,233.48,282.11,233.65Zm-18-1.57q-0.6-.28-1.19-0.6l1.75-3.27q0.5,0.27,1,.51Zm24.11-.93-1.83-3.23c0.33-.19.65-0.38,1-0.58l2,3.13C289,230.7,288.58,230.93,288.2,231.15Zm-29.67-2.59q-0.51-.42-1-0.86L260,225q0.42,0.38.86,0.74Zm35-1.35-2.58-2.66c0.27-.26.54-0.54,0.8-0.81l2.7,2.54C294.1,226.59,293.79,226.9,293.47,227.2ZM254,223.77q-0.39-.53-0.75-1.09l3.1-2q0.31,0.47.64,0.93Zm43.59-1.68-3.16-2q0.3-.48.57-1l3.25,1.79Q297.94,221.52,297.6,222.08ZM250.83,218q-0.24-.61-0.46-1.24l3.51-1.2c0.12,0.36.25,0.71,0.39,1.06Zm49.5-1.91L296.79,215c0.11-.36.21-0.72,0.31-1.08l3.59,0.92Q300.52,215.47,300.33,216.1Zm-51.14-4.46q-0.08-.65-0.13-1.31l3.7-.28q0,0.57.11,1.13Zm52.29-2-3.7-.19c0-.38,0-0.75,0-1.13l3.71-.1v0.1Q301.51,209,301.47,209.61Zm-48.62-4.1-3.68-.45q0.08-.66.19-1.31l3.65,0.64Q252.92,204.95,252.85,205.51Zm44.48-1.81q-0.12-.56-0.26-1.1l3.59-.93q0.17,0.64.3,1.28ZM254.24,200l-3.45-1.36q0.24-.62.51-1.22l3.38,1.53Q254.45,199.51,254.24,200Zm41.25-1.68q-0.25-.51-0.52-1l3.24-1.8q0.32,0.58.61,1.17ZM257,195.08l-3-2.18q0.39-.53.8-1l2.89,2.32Q257.29,194.62,257,195.08Zm35.44-1.44q-0.37-.43-0.76-0.84l2.69-2.55q0.45,0.48.88,1Zm-31.57-2.7-2.37-2.85q0.51-.42,1-0.82l2.23,3Q261.25,190.58,260.82,190.95Zm27.39-1.11q-0.46-.33-0.94-0.63l2-3.14q0.56,0.35,1.1.73Zm-22.62-1.93L264,184.55q0.59-.28,1.2-0.53l1.43,3.42Q266.09,187.66,265.58,187.9Zm17.63-.72c-0.35-.13-0.71-0.26-1.07-0.37l1.13-3.53c0.42,0.14.84,0.28,1.25,0.44Zm-12.27-1-0.7-3.64q0.64-.12,1.3-0.22l0.52,3.67Zm6.77-.27-1.13-.09,0.22-3.7c0.44,0,.88.06,1.31,0.11Z"/></clipPath><clipPath id="clip-path-2" transform="translate(-112.37 -60.37)"><path class="cls-1" d="M200.49,241.88L200,240.74l0.57-.24,0.49,1.13Zm-5.54-17.72q-0.12-.61-0.22-1.22l0.61-.11q0.11,0.6.22,1.21Zm-0.79-18.49-0.62,0q0-.62.05-1.24l0.62,0Q194.18,205,194.16,205.67ZM356,197.49q-0.08-.61-0.18-1.22l0.61-.09c0.06,0.41.12,0.82,0.18,1.23Zm-159.1-10-0.6-.16q0.16-.6.33-1.2l0.59,0.17Q197.06,186.85,196.9,187.44Zm154.53-7.81c-0.15-.38-0.3-0.77-0.45-1.15l0.57-.23,0.45,1.16ZM203.7,170.31l-0.54-.29,0.6-1.09,0.54,0.3Zm139.24-7-0.7-1,0.51-.35,0.7,1Zm-128.74-8.13-0.47-.41,0.82-.93,0.46,0.41ZM331,149.26l-0.91-.83,0.42-.46,0.91,0.84Zm-103.17-6.53-0.36-.5,1-.72,0.35,0.51Zm88.37-4.47-1.07-.61,0.3-.54,1.08,0.62Zm-72.32-4.57-0.24-.57,1.14-.47,0.23,0.57Zm55.43-2.8-1.18-.35,0.17-.59,1.19,0.36Zm-37.75-2.37-0.11-.61,1.22-.2,0.1,0.61Zm19.63-1-1.23-.08,0-.62,1.24,0.08Z"/></clipPath><clipPath id="clip-path-3" transform="translate(-112.37 -60.37)"><rect class="cls-1" x="310.02" y="125.38" width="1.67" height="1.11" transform="translate(71.76 361.15) rotate(-66.59)"/></clipPath><clipPath id="clip-path-4" transform="translate(-112.37 -60.37)"><path class="cls-1" d="M313.79,120.56l-1-.44,1.25-2.9,1,0.44Zm3.35-7.73-1-.44,1.25-2.9,1,0.44Zm3.34-7.73-1-.44,1.25-2.9,1,0.44Zm3.35-7.73-1-.44,1.25-2.9,1,0.44Zm3.34-7.73-1-.44,1.25-2.9,1,0.44Z"/></clipPath><clipPath id="clip-path-5" transform="translate(-112.37 -60.37)"><path class="cls-1" d="M330.51,81.91l-1-.44,0.88-2,0.51,0.22,1.54,0.68-0.45,1-1-.45Z"/></clipPath><clipPath id="clip-path-6" transform="translate(-112.37 -60.37)"><path class="cls-1" d="M364.15,101.33q-1.37-1.14-2.77-2.24l0.69-.87q1.41,1.11,2.79,2.25Zm-7.52-5.81q-1.45-1-2.92-2l0.63-.92q1.49,1,2.94,2.06Zm-7.9-5.28q-1.51-.94-3.05-1.84l0.56-1q1.55,0.91,3.07,1.86ZM340.5,85.5q-1.57-.84-3.17-1.63l0.5-1q1.61,0.8,3.19,1.64Z"/></clipPath><clipPath id="clip-path-7" transform="translate(-112.37 -60.37)"><path class="cls-1" d="M369.87,106.33l-1.23-1.12,0.75-.83,1.24,1.13Z"/></clipPath></defs><title>circle118</title><g class="cls-2"><g id="Layer_8" data-name="Layer 8"><polygon class="cls-3" points="268.31 211.34 266.35 212.26 265.42 211.62 267.38 210.69 267.56 208.53 268.49 209.17 268.31 211.34"/><polygon class="cls-3" points="270.13 212.6 268.17 213.53 267.24 212.88 269.2 211.95 269.38 209.79 270.31 210.44 270.13 212.6"/><polygon class="cls-3" points="271.95 213.86 269.99 214.79 269.06 214.14 271.03 213.22 271.2 211.05 272.13 211.7 271.95 213.86"/><polygon class="cls-3" points="273.77 215.12 271.81 216.05 270.88 215.4 272.85 214.48 273.02 212.31 273.95 212.96 273.77 215.12"/><polygon class="cls-3" points="275.6 216.38 273.63 217.31 272.7 216.66 274.67 215.74 274.85 213.58 275.77 214.22 275.6 216.38"/><polygon class="cls-3" points="282.08 244.04 280.11 244.97 279.19 244.32 281.15 243.4 281.33 241.23 282.25 241.88 282.08 244.04"/><polygon class="cls-3" points="283.9 245.3 281.94 246.23 281.01 245.59 282.97 244.66 283.15 242.5 284.07 243.14 283.9 245.3"/><polygon class="cls-3" points="285.72 246.56 283.75 247.49 282.83 246.85 284.79 245.92 284.97 243.76 285.9 244.4 285.72 246.56"/><polygon class="cls-3" points="287.54 247.82 285.58 248.75 284.65 248.11 286.61 247.18 286.79 245.02 287.72 245.66 287.54 247.82"/><polygon class="cls-3" points="289.36 249.09 287.4 250.01 286.47 249.37 288.43 248.44 288.61 246.28 289.54 246.92 289.36 249.09"/></g><g id="Layer_4" data-name="Layer 4"><path class="cls-4" d="M273.76,209.31L391,82.65,391.35,83A172.41,172.41,0,0,1,417.3,113.4a169.28,169.28,0,0,1,18.09,35.5l0.16,0.44ZM391.05,84L277.12,207.06l157.23-58.27a168.23,168.23,0,0,0-17.83-34.86A171.4,171.4,0,0,0,391.05,84Z" transform="translate(-112.37 -60.37)"/><g class="cls-5"><path class="cls-4" d="M428,138a169.73,169.73,0,0,0-22.36-35.89l3.5-2.85a174.25,174.25,0,0,1,23,36.85Z" transform="translate(-112.37 -60.37)"/></g><g class="cls-5"><path class="cls-4" d="M415.82,160.54l-40.29,13.68c-0.67-1.85-1.33-3.7-2.06-5.52l39.47-15.88C414,155.38,414.89,158,415.82,160.54Z" transform="translate(-112.37 -60.37)"/></g><g class="cls-5"><path class="cls-4" d="M428,138a169.73,169.73,0,0,0-22.36-35.89l3.5-2.85a174.25,174.25,0,0,1,23,36.85Z" transform="translate(-112.37 -60.37)"/></g><g class="cls-5"><path class="cls-4" d="M415.82,160.54l-40.29,13.68c-0.67-1.85-1.33-3.7-2.06-5.52l39.47-15.88C414,155.38,414.89,158,415.82,160.54Z" transform="translate(-112.37 -60.37)"/></g><path class="cls-4" d="M276.26,209L112.37,154l0.1-.29a171.92,171.92,0,0,1,23.75-46.13A178.87,178.87,0,0,1,153,87.75a173.54,173.54,0,0,1,19.61-17.08l0.25-.19,15.7,21-0.5.37L172.73,71.35a172.91,172.91,0,0,0-19.29,16.83,178.22,178.22,0,0,0-16.72,19.73,171.32,171.32,0,0,0-23.57,45.67L274.59,207.8,209.05,120l0.49-.37Z" transform="translate(-112.37 -60.37)"/><path class="cls-6" d="M188.31,91.7" transform="translate(-112.37 -60.37)"/><path class="cls-6" d="M207.7,117.69" transform="translate(-112.37 -60.37)"/><path class="cls-4" d="M205.3,115.76l-0.74-1,1.08-.81,0.74,1Zm-3-4-0.74-1,1.08-.81,0.74,1Zm-3-4-0.74-1,1.08-.81,0.74,1Zm-3-4-0.74-1,1.08-.81,0.74,1Zm-3-4-0.74-1,1.08-.81,0.74,1Zm-3-4-0.74-1,1.08-.81,0.74,1Z" transform="translate(-112.37 -60.37)"/><g class="cls-5"><rect class="cls-4" x="135.74" y="149.1" width="3.71" height="26.04" transform="translate(-172.27 180.56) rotate(-71.44)"/></g><g class="cls-5"><rect class="cls-4" x="135.74" y="149.1" width="3.71" height="26.04" transform="translate(-172.27 180.56) rotate(-71.44)"/></g><g class="cls-5"><path class="cls-4" d="M218.83,78.91a140.24,140.24,0,0,1,45.8-11.33l-0.47-6.35a146.62,146.62,0,0,0-47.87,11.85Z" transform="translate(-112.37 -60.37)"/></g><g class="cls-5"><path class="cls-4" d="M174,105.45a144.52,144.52,0,0,1,46.64-30.76l-1.21-2.95a147.7,147.7,0,0,0-47.67,31.44Z" transform="translate(-112.37 -60.37)"/></g><g class="cls-5"><path class="cls-4" d="M218.83,78.91a140.24,140.24,0,0,1,45.8-11.33l-0.47-6.35a146.62,146.62,0,0,0-47.87,11.85Z" transform="translate(-112.37 -60.37)"/></g><g class="cls-5"><path class="cls-4" d="M174,105.45a144.52,144.52,0,0,1,46.64-30.76l-1.21-2.95a147.7,147.7,0,0,0-47.67,31.44Z" transform="translate(-112.37 -60.37)"/></g><g class="cls-7"><path class="cls-3" d="M132.13,189.72A143.2,143.2,0,0,1,137.22,166a146.3,146.3,0,0,1,9-22.48l-2.85-1.43a149.49,149.49,0,0,0-9.23,23,146.38,146.38,0,0,0-5.2,24.2Z" transform="translate(-112.37 -60.37)"/></g><g class="cls-7"><path class="cls-3" d="M133.12,200.86a145.91,145.91,0,0,1,2-17.55L130,182.4a151.1,151.1,0,0,0-2.1,18.19Z" transform="translate(-112.37 -60.37)"/></g><path class="cls-3" d="M239.54,208.55L127.31,208v-0.42a147.84,147.84,0,0,1,156.36-147l0.42,0,0,0.42-6.32,111.63-0.42,0A36.07,36.07,0,0,0,263,174.72a35.7,35.7,0,0,0-12.23,7.57,36.23,36.23,0,0,0-8.33,11.78,35.29,35.29,0,0,0-2.94,14.06v0.42ZM128.16,207.2l110.55,0.5a36.09,36.09,0,0,1,3-14,37.06,37.06,0,0,1,8.52-12.06A36.1,36.1,0,0,1,277,171.8l6.24-110.38A147,147,0,0,0,128.16,207.2Z" transform="translate(-112.37 -60.37)"/><rect class="cls-3" x="197.63" y="147.61" width="141.01" height="0.62"/><rect class="cls-3" x="339.88" y="147.77" width="35.37" height="0.31"/><path class="cls-3" d="M275.24,237.66a29.36,29.36,0,1,1,29.36-29.36A29.4,29.4,0,0,1,275.24,237.66Zm0-57.49a28.13,28.13,0,1,0,28.13,28.13A28.16,28.16,0,0,0,275.24,180.17Z" transform="translate(-112.37 -60.37)"/><g class="cls-8"><g class="cls-9"><rect class="cls-1" x="140.81" y="157.99" width="30" height="30"/><rect class="cls-10" x="140.81" y="157.99" width="30" height="30"/><rect class="cls-1" x="140.81" y="157.99" width="30" height="30"/><rect class="cls-10" x="140.81" y="157.99" width="30" height="30"/><rect class="cls-1" x="170.81" y="157.99" width="30" height="30"/><rect class="cls-10" x="170.81" y="157.99" width="30" height="30"/><rect class="cls-1" x="140.81" y="157.99" width="30" height="30"/><rect class="cls-10" x="140.81" y="157.99" width="30" height="30"/><rect class="cls-1" x="140.81" y="157.99" width="30" height="30"/><rect class="cls-10" x="140.81" y="157.99" width="30" height="30"/><rect class="cls-1" x="170.81" y="157.99" width="30" height="30"/><rect class="cls-10" x="170.81" y="157.99" width="30" height="30"/><rect class="cls-1" x="140.81" y="157.99" width="30" height="30"/><rect class="cls-10" x="140.81" y="157.99" width="30" height="30"/><rect class="cls-1" x="170.81" y="157.99" width="30" height="30"/><rect class="cls-10" x="170.81" y="157.99" width="30" height="30"/><rect class="cls-1" x="140.81" y="157.99" width="30" height="30"/><rect class="cls-10" x="140.81" y="157.99" width="30" height="30"/><rect class="cls-1" x="170.81" y="157.99" width="30" height="30"/><rect class="cls-10" x="170.81" y="157.99" width="30" height="30"/><rect class="cls-1" x="140.81" y="127.99" width="30" height="30"/><rect class="cls-10" x="140.81" y="127.99" width="30" height="30"/><rect class="cls-1" x="110.81" y="127.99" width="30" height="30"/><rect class="cls-10" x="110.81" y="127.99" width="30" height="30"/><rect class="cls-1" x="170.81" y="127.99" width="30" height="30"/><rect class="cls-10" x="170.81" y="127.99" width="30" height="30"/><rect class="cls-1" x="110.81" y="127.99" width="30" height="30"/><rect class="cls-10" x="110.81" y="127.99" width="30" height="30"/><rect class="cls-1" x="170.81" y="127.99" width="30" height="30"/><rect class="cls-10" x="170.81" y="127.99" width="30" height="30"/><rect class="cls-1" x="110.81" y="127.99" width="30" height="30"/><rect class="cls-10" x="110.81" y="127.99" width="30" height="30"/><rect class="cls-1" x="170.81" y="127.99" width="30" height="30"/><rect class="cls-10" x="170.81" y="127.99" width="30" height="30"/><rect class="cls-1" x="140.81" y="127.99" width="30" height="30"/><rect class="cls-10" x="140.81" y="127.99" width="30" height="30"/><rect class="cls-1" x="110.81" y="127.99" width="30" height="30"/><rect class="cls-10" x="110.81" y="127.99" width="30" height="30"/><rect class="cls-1" x="170.81" y="127.99" width="30" height="30"/><rect class="cls-10" x="170.81" y="127.99" width="30" height="30"/><rect class="cls-1" x="140.81" y="127.99" width="30" height="30"/><rect class="cls-10" x="140.81" y="127.99" width="30" height="30"/><rect class="cls-1" x="170.81" y="127.99" width="30" height="30"/><rect class="cls-10" x="170.81" y="127.99" width="30" height="30"/><rect class="cls-1" x="140.81" y="97.99" width="30" height="30"/><rect class="cls-10" x="140.81" y="97.99" width="30" height="30"/><rect class="cls-1" x="140.81" y="127.99" width="30" height="30"/><rect class="cls-10" x="140.81" y="127.99" width="30" height="30"/><rect class="cls-1" x="170.81" y="97.99" width="30" height="30"/><rect class="cls-10" x="170.81" y="97.99" width="30" height="30"/><rect class="cls-1" x="170.81" y="127.99" width="30" height="30"/><rect class="cls-10" x="170.81" y="127.99" width="30" height="30"/><rect class="cls-1" x="140.81" y="97.99" width="30" height="30"/><rect class="cls-10" x="140.81" y="97.99" width="30" height="30"/><rect class="cls-1" x="170.81" y="97.99" width="30" height="30"/><rect class="cls-10" x="170.81" y="97.99" width="30" height="30"/><rect class="cls-1" x="140.81" y="97.99" width="30" height="30"/><rect class="cls-10" x="140.81" y="97.99" width="30" height="30"/><rect class="cls-1" x="140.81" y="97.99" width="30" height="30"/><rect class="cls-10" x="140.81" y="97.99" width="30" height="30"/><rect class="cls-1" x="140.81" y="97.99" width="30" height="30"/><rect class="cls-10" x="140.81" y="97.99" width="30" height="30"/></g></g><path class="cls-3" d="M275.24,222.53a14.24,14.24,0,1,1,14.24-14.24A14.26,14.26,0,0,1,275.24,222.53Zm0-27.86a13.62,13.62,0,1,0,13.62,13.62A13.64,13.64,0,0,0,275.24,194.67Z" transform="translate(-112.37 -60.37)"/><path class="cls-3" d="M220.33,248.17A67.81,67.81,0,1,1,343.1,208.29h-0.62a67.24,67.24,0,1,0-121.65,39.51Z" transform="translate(-112.37 -60.37)"/><g class="cls-5"><path class="cls-4" d="M126,318.34l-1.45-2,120-87a37.24,37.24,0,1,1,67.95-21.07H310a34.77,34.77,0,1,0-62.77,20.62l0.74,1Z" transform="translate(-112.37 -60.37)"/></g><g class="cls-5"><path class="cls-4" d="M126,318.34l-1.45-2,120-87a37.24,37.24,0,1,1,67.95-21.07H310a34.77,34.77,0,1,0-62.77,20.62l0.74,1Z" transform="translate(-112.37 -60.37)"/></g><path class="cls-4" d="M275.24,259.91a51.82,51.82,0,0,1-41.54-21l0.5-.37a51,51,0,0,0,92-30.28h0.62A51.68,51.68,0,0,1,275.24,259.91Z" transform="translate(-112.37 -60.37)"/><path class="cls-3" d="M275.3,257h-0.57l0-1.24h0.55q0.95,0,1.89,0l0,1.24Q276.27,257,275.3,257Zm-8-.66q-1.24-.2-2.46-0.47l0.26-1.21q1.19,0.26,2.4.46Zm17.43-.26-0.24-1.21q1.2-.24,2.38-0.53l0.3,1.2Q285.92,255.83,284.69,256.07Zm-27.07-2.38q-1.17-.45-2.31-1l0.51-1.13q1.11,0.5,2.26.94Zm36.63-.56L293.75,252c0.75-.32,1.49-0.66,2.22-1l0.54,1.11Q295.39,252.64,294.24,253.13Zm-45.53-4q-1.05-.68-2.07-1.42l0.73-1q1,0.72,2,1.38Zm54.28-.82-0.71-1q1-.7,2-1.44l0.76,1Q304,247.59,303,248.31Zm-62.06-5.47Q240,242,239.2,241l0.92-.83q0.82,0.9,1.69,1.77Zm69.64-1-0.9-.85q0.84-.88,1.63-1.81l0.94,0.8Q311.43,240.89,310.57,241.8Zm6.11-7.92-1.05-.65q0.64-1,1.23-2.11l1.08,0.6Q317.34,232.81,316.68,233.88Zm4.35-9-1.16-.42q0.41-1.14.77-2.32l1.18,0.36Q321.46,223.69,321,224.87Zm2.41-9.7-1.22-.17q0.17-1.2.28-2.42l1.23,0.11Q323.62,213.94,323.44,215.17Z" transform="translate(-112.37 -60.37)"/><path class="cls-3" d="M307.32,182.05l-0.2-.24a41.55,41.55,0,0,0-25.33-14.39l-0.31,0,0-.31,7.44-46.6,0.3,0a88.7,88.7,0,0,1,30,10.54,89.61,89.61,0,0,1,24.39,20.41l0.2,0.24-0.24.2Zm-25.13-15.19a42.17,42.17,0,0,1,25.21,14.32L343,151.63a89,89,0,0,0-24-20,88.05,88.05,0,0,0-29.48-10.42Z" transform="translate(-112.37 -60.37)"/><polygon class="cls-4" points="180.59 279.41 180.47 278.49 181.08 278.4 181.12 278.71 181.42 278.67 181.51 279.28 180.59 279.41"/><path class="cls-4" d="M299,338.83l-0.11-.61,1.26-.23,0.12,0.61Zm6.31-1.31-0.14-.6,1.25-.3,0.15,0.6Zm6.24-1.62-0.17-.59,1.23-.36,0.18,0.59Zm6.16-1.92-0.2-.58,1.21-.42,0.2,0.58Zm6.06-2.21-0.23-.57,1.19-.47,0.23,0.57Zm5.94-2.5-0.25-.56,1.17-.53,0.26,0.56Zm5.81-2.79-0.28-.55,1.14-.59,0.29,0.55Z" transform="translate(-112.37 -60.37)"/><polygon class="cls-4" points="228.8 263.05 228.5 262.51 228.76 262.36 228.61 262.09 229.14 261.79 229.61 262.59 228.8 263.05"/><path class="cls-4" d="M338.45,318.09L337.82,317l0.54-.31,0.63,1.09Zm-3.16-5.46-0.63-1.09,0.54-.31,0.63,1.09Zm-3.16-5.46-0.63-1.09,0.53-.31,0.63,1.09ZM329,301.7l-0.63-1.09,0.54-.31,0.63,1.09Zm-3.16-5.46-0.63-1.09,0.54-.31,0.63,1.09Zm-3.16-5.46L322,289.68l0.54-.31,0.63,1.09Zm-3.16-5.46-0.63-1.09,0.53-.31L320,285Zm-3.17-5.46-0.63-1.09,0.54-.31,0.63,1.09Zm-3.16-5.46-0.63-1.09L313,273l0.63,1.09ZM310,268.92l-0.63-1.09,0.54-.31,0.63,1.09Zm-3.16-5.46-0.63-1.09,0.54-.31,0.63,1.09ZM303.64,258L303,256.9l0.53-.31,0.63,1.09Zm-3.17-5.46-0.63-1.09,0.54-.31,0.63,1.09Zm-3.16-5.46L296.68,246l0.54-.31,0.63,1.09Zm-3.16-5.46-0.63-1.09,0.54-.31,0.63,1.09ZM291,236.13L290.35,235l0.53-.31,0.63,1.09Zm-3.17-5.46-0.63-1.09,0.54-.31,0.63,1.09Zm-3.16-5.46L284,224.11l0.54-.31,0.63,1.09Zm-3.16-5.46-0.63-1.09,0.54-.31,0.63,1.09Zm-3.16-5.46-0.63-1.09,0.53-.31,0.63,1.09Z" transform="translate(-112.37 -60.37)"/><polygon class="cls-4" points="162.79 148.44 162.75 148.38 162.52 148.41 162.22 146.23 163.32 148.13 163.13 148.25 163.13 148.32 162.95 148.35 162.79 148.44"/><path class="cls-4" d="M292.15,333.86L292,332.61l0.61-.08,0.17,1.25Zm-0.86-6.25-0.17-1.25,0.61-.08,0.17,1.25Zm-0.86-6.25-0.17-1.25,0.61-.08,0.17,1.25Zm-0.86-6.25-0.17-1.25,0.61-.08,0.17,1.25Zm-0.86-6.25-0.17-1.25,0.61-.08,0.17,1.25Zm-0.86-6.25-0.17-1.25,0.61-.08,0.17,1.25ZM287,296.33l-0.17-1.25,0.61-.08,0.17,1.25Zm-0.86-6.25-0.17-1.25,0.61-.08,0.17,1.25Zm-0.86-6.25-0.17-1.25,0.61-.08,0.17,1.25Zm-0.86-6.25-0.17-1.25,0.61-.08,0.17,1.25Zm-0.86-6.25-0.17-1.25L284,270l0.17,1.25Zm-0.86-6.25-0.17-1.25,0.61-.08,0.17,1.25Zm-0.86-6.25-0.17-1.25,0.61-.08,0.17,1.25Zm-0.86-6.25-0.17-1.25,0.61-.08,0.17,1.25Zm-0.86-6.25-0.17-1.25,0.61-.08,0.17,1.25ZM279.21,240L279,238.8l0.61-.08,0.17,1.25Zm-0.86-6.25-0.17-1.25,0.61-.08,0.17,1.25Zm-0.86-6.25-0.17-1.25,0.61-.08,0.17,1.25Zm-0.86-6.25L276.45,220l0.61-.08,0.17,1.25ZM275.76,215l-0.17-1.25,0.61-.08,0.17,1.25Z" transform="translate(-112.37 -60.37)"/><path class="cls-11" d="M275.24,208.34" transform="translate(-112.37 -60.37)"/><path class="cls-3" d="M275.24,317.87a109.86,109.86,0,0,1-88.61-45.15l0.5-.36a108.92,108.92,0,0,0,197-64h0.62A110.05,110.05,0,0,1,275.24,317.87Z" transform="translate(-112.37 -60.37)"/><path class="cls-3" d="M274.45,266.39l-1.26,0,0.09-2.47,1.21,0Zm3.79-.07-0.13-2.47,1.21-.07,0.18,2.47Zm-8.83-.21-1.26-.14,0.3-2.45,1.2,0.13Zm-5-.73-1.24-.25,0.52-2.42,1.18,0.24Zm-4.92-1.17-1.21-.36,0.73-2.36,1.16,0.35Zm-4.8-1.6-1.18-.47,0.93-2.29,1.13,0.45Zm-4.64-2-1.13-.57,1.13-2.2,1.08,0.54Zm-4.44-2.42-1.07-.66,1.32-2.09,1,0.64ZM306.7,257l-1.36-2.07,1-.67,1.4,2Zm-65.29-1.64-1-.76,1.5-2,1,0.73Zm69.39-1.32-1.54-1.93,0.94-.77,1.57,1.91Zm-73.33-1.84-0.94-.84,1.66-1.83,0.9,0.81Zm77.15-1.46-1.7-1.8,0.87-.84,1.73,1.76Zm-80.8-2L233,247.8l1.82-1.67L235.6,247Zm84.32-1.59-1.85-1.64,0.79-.91,1.88,1.6Zm-87.65-2.2-0.78-1,2-1.51,0.75,1Zm90.84-1.72-2-1.47,0.71-1,2,1.43Zm2.83-4.19L322,237.74l0.63-1,2.13,1.25Zm2.45-4.42-2.21-1.11q0.27-.54.53-1.09l2.24,1.05Q326.9,234,326.61,234.61Zm2.06-4.62-2.3-.91q0.22-.56.43-1.13l2.32,0.85Q328.9,229.4,328.67,230Zm1.64-4.78-2.37-.7q0.17-.58.33-1.17l2.39,0.64Q330.49,224.6,330.31,225.21Zm1.21-4.9-2.42-.49c0.08-.39.15-0.79,0.22-1.19l2.44,0.43Q331.64,219.68,331.52,220.3Zm0.77-5-2.46-.27q0.07-.6.12-1.2l2.46,0.22C332.37,214.47,332.33,214.89,332.28,215.31Zm0.33-5-2.47-.05q0-.6,0-1.21h2.47Q332.63,209.64,332.61,210.27Z" transform="translate(-112.37 -60.37)"/><path class="cls-12" d="M275.44,208.67" transform="translate(-112.37 -60.37)"/><g class="cls-5"><path class="cls-4" d="M203.56,261a88.82,88.82,0,1,1,160.77-52.3h-0.94a88,88,0,1,0-159.07,51.74Z" transform="translate(-112.37 -60.37)"/></g><path class="cls-3" d="M203.12,252.71l-0.64-1.06,1.06-.63,0.63,1.05Zm-5.18-9.92-0.49-1.14,1.14-.48,0.49,1.13Zm-3.82-10.53q-0.17-.6-0.34-1.2l1.19-.33q0.16,0.59.33,1.18Zm-2.39-10.94q-0.09-.62-0.18-1.23l1.23-.16q0.08,0.61.17,1.21Zm0.3-11.18-1.24,0q0-.62,0-1.25H192Q192,209.53,192,210.14Zm166.41-9.83q-0.06-.61-0.13-1.22l1.23-.14q0.07,0.62.13,1.24Zm-165.89-1.19-1.23-.14q0.07-.62.15-1.24l1.23,0.16Q192.62,198.51,192.55,199.12Zm164.07-9.69q-0.14-.6-0.29-1.19l1.2-.3c0.1,0.4.2,0.81,0.3,1.21Zm-162.09-1.16-1.2-.3q0.15-.61.31-1.21l1.19,0.32Q194.68,187.67,194.53,188.27Zm158.85-9.38-0.45-1.14,1.15-.46c0.15,0.39.3,0.77,0.45,1.16Zm-155.44-1.12-1.15-.46,0.47-1.16,1.14,0.48Zm150.83-8.9-0.59-1.07,1.08-.61,0.6,1.09ZM202.7,167.81l-1.08-.61,0.62-1.08,1.07,0.62Zm140.17-8.26-0.73-1,1-.74,0.74,1Zm-134.13-1-1-.74,0.76-1,1,0.76Zm127.05-7.48-0.85-.88,0.88-.87,0.87,0.89Zm-119.85-.88-0.88-.87,0.88-.88,0.87,0.88Zm111.73-6.58-1-.76,0.76-1,1,0.77Zm-103.49-.77-0.76-1,1-.76,0.75,1Zm94.45-5.56-1.06-.63,0.63-1.07,1.07,0.64Zm-85.33-.63-0.63-1.07,1.08-.62,0.61,1.08Zm75.54-4.45-1.13-.48,0.48-1.14,1.15,0.49Zm-65.67-.48-0.48-1.14,1.15-.47,0.46,1.15Zm55.28-3.26-1.19-.33,0.32-1.19,1.2,0.34Zm-44.85-.32L253.27,127l1.2-.32,0.31,1.2Zm34.05-2-1.22-.17,0.16-1.23,1.23,0.17ZM264.41,126l-0.16-1.23,1.24-.15,0.14,1.23Zm12.24-.72h-1.23V124h1.25Z" transform="translate(-112.37 -60.37)"/><path class="cls-13" d="M275.44,208.67" transform="translate(-112.37 -60.37)"/><path class="cls-3" d="M319.18,267.73l-2.94-4a69.18,69.18,0,0,0,15.71-16.21l4.06,2.82A74.13,74.13,0,0,1,319.18,267.73Z" transform="translate(-112.37 -60.37)"/><g class="cls-5"><path class="cls-4" d="M323.48,256l-3.74-3.68,0.11-.11a62.47,62.47,0,0,0,12.62-18.53l0.06-.14,4.8,2.13-0.06.14a67.7,67.7,0,0,1-13.68,20.08Zm-3.31-3.69,3.3,3.25a67.37,67.37,0,0,0,13.44-19.74l-4.24-1.88A62.76,62.76,0,0,1,320.17,252.29Z" transform="translate(-112.37 -60.37)"/></g><g class="cls-5"><polygon class="cls-4" points="302.73 245.22 218.41 186.75 218.76 186.24 303.08 244.71 302.73 245.22"/></g><g class="cls-5"><path class="cls-4" d="M323.48,256l-3.74-3.68,0.11-.11a62.47,62.47,0,0,0,12.62-18.53l0.06-.14,4.8,2.13-0.06.14a67.7,67.7,0,0,1-13.68,20.08Zm-3.31-3.69,3.3,3.25a67.37,67.37,0,0,0,13.44-19.74l-4.24-1.88A62.76,62.76,0,0,1,320.17,252.29Z" transform="translate(-112.37 -60.37)"/></g><g class="cls-5"><polygon class="cls-4" points="302.73 245.22 218.41 186.75 218.76 186.24 303.08 244.71 302.73 245.22"/></g><path class="cls-4" d="M349.16,258.3l-7.92-5.49,0.67-1,7.92,5.49Zm-7.49-5.57,7.41,5.14,0.31-.45L342,252.28Z" transform="translate(-112.37 -60.37)"/><rect class="cls-4" x="347.57" y="263.28" width="9.33" height="0.86" transform="matrix(0.82, 0.57, -0.57, 0.82, 100.67, -214.08)"/><rect class="cls-4" x="367.9" y="275.72" width="4.55" height="0.86" transform="translate(110.96 -222.09) rotate(34.74)"/><rect class="cls-4" x="373.22" y="279.41" width="4.55" height="0.86" transform="translate(114.01 -224.46) rotate(34.74)"/><rect class="cls-4" x="383.75" y="288.47" width="9.62" height="0.86" transform="translate(121.5 -230.29) rotate(34.74)"/><rect class="cls-4" x="393.68" y="295.26" width="9.36" height="0.86" transform="translate(127.12 -234.66) rotate(34.74)"/><rect class="cls-4" x="408.16" y="305.56" width="10.11" height="0.86" transform="translate(135.63 -241.29) rotate(34.74)"/><rect class="cls-4" x="375.01" y="280.6" width="2.94" height="0.86" transform="translate(114.86 -224.8) rotate(34.74)"/><rect class="cls-4" x="379.45" y="283.4" width="2.13" height="0.86" transform="translate(117.17 -226.61) rotate(34.74)"/><path class="cls-4" d="M363,273.29l-5.9-4.09,0.67-1,5.9,4.09Zm-5.47-4.17,5.39,3.74,0.31-.45-5.39-3.74Z" transform="translate(-112.37 -60.37)"/><rect class="cls-4" x="362.91" y="272.97" width="2.6" height="0.86" transform="translate(108.34 -219.18) rotate(34.74)"/><rect class="cls-4" x="350.13" y="259.08" width="3.6" height="0.86" transform="translate(98.23 -214.66) rotate(34.74)"/><rect class="cls-4" x="355.54" y="262.23" width="3.6" height="0.86" transform="translate(100.98 -217.18) rotate(34.74)"/><rect class="cls-4" x="365.41" y="269.67" width="3.6" height="0.86" transform="translate(106.99 -221.47) rotate(34.74)"/><rect class="cls-4" x="384.56" y="284.67" width="8.55" height="0.86" transform="translate(119.39 -231.13) rotate(34.74)"/><rect class="cls-4" x="391.17" y="287.52" width="4.91" height="0.86" transform="translate(121.86 -233.35) rotate(34.74)"/><rect class="cls-4" x="397.15" y="290.84" width="1.17" height="0.86" transform="translate(124.49 -235.09) rotate(34.74)"/><rect class="cls-4" x="398.6" y="291.84" width="1.17" height="0.86" transform="translate(125.32 -235.74) rotate(34.74)"/><rect class="cls-4" x="399.99" y="292.81" width="1.17" height="0.86" transform="translate(126.11 -236.36) rotate(34.74)"/><rect class="cls-4" x="401.33" y="293.74" width="1.17" height="0.86" transform="translate(126.88 -236.96) rotate(34.74)"/><rect class="cls-4" x="412.67" y="301.6" width="1.17" height="0.86" transform="translate(133.39 -242.02) rotate(34.74)"/><rect class="cls-4" x="414.08" y="302.58" width="1.17" height="0.86" transform="translate(134.19 -242.65) rotate(34.74)"/><rect class="cls-4" x="353.42" y="263.6" width="10.07" height="0.86" transform="translate(101.97 -217.57) rotate(34.74)"/><path class="cls-3" d="M276.9,313l0-1.24q1.85,0,3.68-.12l0.06,1.23Q278.77,313,276.9,313Zm-6.21-.08q-1.87-.08-3.72-0.23l0.1-1.23q1.83,0.14,3.68.22Zm16.14-.53-0.14-1.23q1.84-.2,3.66-0.47l0.18,1.22Q288.68,312.18,286.82,312.39Zm-26-.36q-1.85-.26-3.69-0.58l0.21-1.22q1.81,0.32,3.64.57Zm35.86-1.2-0.25-1.21q1.81-.38,3.6-0.81l0.29,1.2Q298.47,310.45,296.64,310.83ZM251,310.2q-1.82-.43-3.61-0.92l0.33-1.19q1.77,0.49,3.57.91Zm55.26-1.86-0.37-1.18q1.77-.55,3.5-1.15l0.41,1.17Q308.05,307.79,306.27,308.34Zm-64.81-.89q-1.77-.6-3.52-1.27l0.44-1.15q1.72,0.66,3.48,1.25ZM315.6,305l-0.48-1.14q1.7-.71,3.37-1.48l0.52,1.12Q317.32,304.24,315.6,305Zm-83.41-1.17q-1.71-.77-3.38-1.6l0.55-1.11q1.65,0.82,3.34,1.58Zm92.37-3.09L324,299.61q1.62-.87,3.21-1.79l0.62,1.07Q326.21,299.82,324.57,300.7Zm-101.24-1.43q-1.62-.93-3.21-1.91l0.65-1.05q1.57,1,3.17,1.89Zm109.77-3.66-0.68-1q1.53-1,3-2.09l0.72,1Q334.64,294.57,333.09,295.6Zm-118.16-1.68q-1.53-1.08-3-2.21l0.75-1q1.47,1.12,3,2.18Zm126.17-4.2-0.78-1q1.43-1.16,2.82-2.37l0.81,0.93Q342.55,288.55,341.1,289.72Zm-134-1.92q-1.42-1.22-2.79-2.48l0.84-.91q1.35,1.25,2.75,2.45Zm141.44-4.7-0.87-.88q1.32-1.29,2.59-2.63l0.9,0.85Q349.85,281.8,348.52,283.11ZM199.85,281q-1.29-1.34-2.54-2.73l0.92-.83q1.23,1.37,2.51,2.7Zm155.43-5.16-0.94-.8q1.19-1.41,2.33-2.86l1,0.76Q356.49,274.4,355.28,275.82Zm6.05-7.89-1-.71q1.05-1.52,2-3.07l1,0.67Q362.4,266.4,361.34,267.93Zm5.28-8.44-1.08-.61q0.9-1.61,1.75-3.25l1.1,0.57Q367.53,257.87,366.62,259.49Zm4.45-8.91-1.13-.5q0.75-1.69,1.43-3.41l1.15,0.46Q371.83,248.88,371.07,250.59Zm3.59-9.29-1.17-.39q0.58-1.75,1.1-3.52l1.19,0.35Q375.24,239.53,374.66,241.29Zm2.68-9.58-1.2-.28q0.41-1.79.76-3.61l1.21,0.23Q377.75,229.9,377.33,231.72Zm1.75-9.79-1.23-.16q0.24-1.82.41-3.66l1.23,0.12Q379.32,220.09,379.08,221.93Z" transform="translate(-112.37 -60.37)"/><rect class="cls-3" x="132.15" y="296.16" width="28.69" height="1.51" transform="translate(-258.73 82.09) rotate(-35.93)"/><rect class="cls-3" x="161.9" y="284.26" width="28.69" height="1.51" transform="translate(-246.09 97.28) rotate(-35.93)"/><rect class="cls-3" x="116.34" y="317.5" width="28.69" height="1.07" transform="translate(-274.13 76.83) rotate(-35.93)"/><rect class="cls-3" x="162.31" y="281.95" width="7.59" height="1.51" transform="translate(-246.66 90.89) rotate(-35.93)"/><rect class="cls-3" x="169.85" y="276.9" width="7.59" height="0.67" transform="translate(-242.02 94.28) rotate(-35.93)"/><rect class="cls-3" x="196.68" y="259.08" width="1.96" height="1.51" transform="translate(-227.24 105.05) rotate(-35.93)"/><rect class="cls-3" x="193.57" y="261.33" width="1.96" height="1.51" transform="translate(-229.15 103.65) rotate(-35.93)"/><rect class="cls-3" x="190.75" y="263.38" width="1.96" height="1.51" transform="translate(-230.88 102.39) rotate(-35.93)"/><rect class="cls-3" x="179.02" y="268.65" width="10.86" height="1.51" transform="matrix(0.81, -0.59, 0.59, 0.81, -235.37, 99.13)"/><rect class="cls-3" x="160.66" y="281.55" width="3.16" height="1.51" transform="translate(-247.16 88.55) rotate(-35.93)"/><rect class="cls-3" x="156.92" y="284.26" width="3.16" height="1.51" transform="translate(-249.46 86.86) rotate(-35.93)"/><path class="cls-3" d="M240.35,233.74a43.12,43.12,0,1,1,78.21-25.07h-1.24a41.89,41.89,0,1,0-76,24.35Z" transform="translate(-112.37 -60.37)"/><path class="cls-13" d="M275.44,208.67" transform="translate(-112.37 -60.37)"/><g class="cls-14"><rect class="cls-1" x="80.81" y="157.99" width="30" height="30"/><rect class="cls-10" x="80.81" y="157.99" width="30" height="30"/><rect class="cls-1" x="80.81" y="157.99" width="30" height="30"/><rect class="cls-10" x="80.81" y="157.99" width="30" height="30"/><rect class="cls-1" x="80.81" y="127.99" width="30" height="30"/><rect class="cls-10" x="80.81" y="127.99" width="30" height="30"/><rect class="cls-1" x="230.81" y="127.99" width="30" height="30"/><rect class="cls-10" x="230.81" y="127.99" width="30" height="30"/><rect class="cls-1" x="80.81" y="97.99" width="30" height="30"/><rect class="cls-10" x="80.81" y="97.99" width="30" height="30"/><rect class="cls-1" x="230.81" y="97.99" width="30" height="30"/><rect class="cls-10" x="230.81" y="97.99" width="30" height="30"/><rect class="cls-1" x="80.81" y="97.99" width="30" height="30"/><rect class="cls-10" x="80.81" y="97.99" width="30" height="30"/><rect class="cls-1" x="230.81" y="97.99" width="30" height="30"/><rect class="cls-10" x="230.81" y="97.99" width="30" height="30"/><rect class="cls-1" x="200.81" y="97.99" width="30" height="30"/><rect class="cls-10" x="200.81" y="97.99" width="30" height="30"/><rect class="cls-1" x="80.81" y="67.99" width="30" height="30"/><rect class="cls-10" x="80.81" y="67.99" width="30" height="30"/><rect class="cls-1" x="200.81" y="67.99" width="30" height="30"/><rect class="cls-10" x="200.81" y="67.99" width="30" height="30"/><rect class="cls-1" x="110.81" y="67.99" width="30" height="30"/><rect class="cls-10" x="110.81" y="67.99" width="30" height="30"/><rect class="cls-1" x="200.81" y="67.99" width="30" height="30"/><rect class="cls-10" x="200.81" y="67.99" width="30" height="30"/><rect class="cls-1" x="110.81" y="67.99" width="30" height="30"/><rect class="cls-10" x="110.81" y="67.99" width="30" height="30"/><rect class="cls-1" x="170.81" y="67.99" width="30" height="30"/><rect class="cls-10" x="170.81" y="67.99" width="30" height="30"/><rect class="cls-1" x="140.81" y="37.99" width="30" height="30"/><rect class="cls-10" x="140.81" y="37.99" width="30" height="30"/><rect class="cls-1" x="140.81" y="67.99" width="30" height="30"/><rect class="cls-10" x="140.81" y="67.99" width="30" height="30"/><rect class="cls-1" x="140.81" y="37.99" width="30" height="30"/><rect class="cls-10" x="140.81" y="37.99" width="30" height="30"/></g><path class="cls-3" d="M275.24,256.37l-1.25,0,0-1.24,1.22,0v1.24Zm17.15-3.1L292,252.12l1.13-.45,0.47,1.14Zm-35.44-.61-1.15-.5,0.51-1.13,1.12,0.49Zm51.25-9.31-0.85-.9,0.88-.85,0.87,0.88Zm-66.7-1.16-0.87-.9,0.9-.85,0.85,0.88ZM319,228.13l-1.13-.5q0.25-.56.49-1.13L319.5,227C319.34,227.37,319.17,227.75,319,228.13Zm-87.78-1.52c-0.16-.39-0.31-0.78-0.46-1.17l1.16-.43q0.21,0.57.44,1.13Zm91.9-16.69-1.24,0q0-.61,0-1.22h1.24Q323.14,209.3,323.12,209.93ZM229,208.29h-1.24q0-.63,0-1.25l1.24,0Q229,207.68,229,208.29Zm90.11-15.61c-0.14-.38-0.29-0.76-0.43-1.14l1.15-.46q0.23,0.58.45,1.17Zm-86.42-2.19-1.14-.48q0.25-.58.51-1.15l1.12,0.52Q232.9,189.93,232.66,190.49Zm76.94-13.31-0.84-.88,0.89-.86,0.86,0.91Zm-66.68-1.7-0.87-.88,0.91-.86,0.84,0.91Zm52-9-1.12-.5,0.49-1.14,1.15,0.51Zm-36.77-.94-0.46-1.15,1.17-.45,0.43,1.16Zm19.09-3.29-1.22,0V161l1.25,0Z" transform="translate(-112.37 -60.37)"/><path class="cls-4" d="M275.24,323h-0.81v-0.62h1.24V323h-0.43Zm5.39-.12,0-.62,1.23-.06,0,0.62Zm-11.15,0-1.24-.07,0-.62,1.23,0.07Zm17.33-.43-0.06-.62,1.23-.13,0.07,0.61Zm-23.5,0-1.23-.13,0.07-.61,1.23,0.13ZM293,321.6l-0.1-.61,1.22-.2,0.1,0.61Zm-35.79-.06-1.22-.2,0.1-.61,1.22,0.2ZM299,320.48l-0.13-.6,1.2-.26,0.14,0.6Zm-48-.08-1.21-.27,0.14-.6,1.2,0.27Zm54-1.37-0.16-.6,1.19-.33,0.17,0.59Zm-60-.1-1.19-.33L244,318l1.19,0.33Zm66-1.67-0.19-.59,1.17-.39,0.2,0.58Zm-71.89-.12-1.18-.4,0.2-.58,1.17,0.4Zm77.72-2-0.22-.58,1.15-.45,0.23,0.57ZM233.27,315l-1.16-.46,0.23-.57,1.15,0.46Zm89.26-2.26-0.25-.56,1.12-.51,0.26,0.56Zm-95-.17-1.13-.52,0.26-.56,1.12,0.52Zm100.54-2.53-0.28-.55,1.09-.57,0.29,0.55ZM222,309.87l-1.1-.58,0.29-.54,1.09,0.58Zm111.52-2.8-0.31-.53,1.06-.63,0.32,0.53Zm-116.93-.24-1.06-.64,0.32-.53,1.06,0.64Zm122.17-3.05-0.34-.51,1-.69,0.35,0.51Zm-127.41-.27-1-.7,0.35-.51,1,0.69Zm132.47-3.3-0.37-.49,1-.74,0.37,0.49Zm-137.52-.3-1-.75,0.38-.49,1,0.75Zm142.37-3.54-0.4-.47,0.94-.8,0.4,0.47ZM201.44,296l-0.94-.8,0.4-.47,0.94,0.8Zm151.87-3.77-0.42-.45,0.9-.84,0.42,0.45Zm-156.5-.35-0.9-.85,0.43-.45,0.89,0.85Zm160.92-4-0.44-.43,0.85-.89,0.45,0.42Zm-165.32-.37-0.85-.9,0.45-.42,0.85,0.89Zm169.51-4.2-0.47-.41,0.8-.94,0.47,0.4ZM188.24,283l-0.8-.94,0.47-.4,0.8,0.94Zm177.6-4.41-0.49-.38,0.75-1,0.49,0.37Zm3.67-5-0.51-.35,0.7-1,0.51,0.35Zm3.39-5.19-0.53-.33L373,267l0.53,0.32ZM376,263l-0.54-.29,0.59-1.09,0.55,0.29Zm2.82-5.53-0.56-.27,0.53-1.12,0.56,0.26Zm2.51-5.68-0.57-.23,0.46-1.15,0.57,0.23Zm2.2-5.81-0.58-.2q0.2-.58.4-1.17l0.59,0.2Zm1.88-5.91-0.59-.17,0.33-1.19,0.6,0.16Zm1.55-6-0.6-.14q0.14-.6.27-1.2l0.6,0.13Zm1.22-6.07-0.61-.1,0.2-1.22,0.61,0.1C388.35,227.21,388.28,227.62,388.21,228Zm0.89-6.13-0.61-.07q0.07-.61.14-1.22l0.62,0.07Q389.18,221.28,389.1,221.89Zm0.56-6.17-0.62,0q0-.62.07-1.23l0.62,0Q389.7,215.11,389.67,215.72Z" transform="translate(-112.37 -60.37)"/><path class="cls-3" d="M274.07,239.62a0.61,0.61,0,0,1-.59-0.64h0a0.62,0.62,0,0,1,.63-0.59h0a0.62,0.62,0,0,1,.61.64h0a0.62,0.62,0,0,1-.62.59h0Zm5.56-.9a0.61,0.61,0,0,1,.52-0.7h0a0.61,0.61,0,0,1,.7.51h0a0.62,0.62,0,0,1-.51.7h-0.1A0.62,0.62,0,0,1,279.63,238.72Zm-11.79,0h0a0.62,0.62,0,0,1-.45-0.75h0a0.6,0.6,0,0,1,.74-0.45h0a0.63,0.63,0,0,1,.46.75h0a0.62,0.62,0,0,1-.61.47h-0.14Zm17.79-1.53a0.6,0.6,0,0,1,.36-0.79h0a0.62,0.62,0,0,1,.79.35h0a0.62,0.62,0,0,1-.36.8h0a0.72,0.72,0,0,1-.22,0h0A0.6,0.6,0,0,1,285.62,237.23Zm-23.74-.57h0a0.62,0.62,0,0,1-.3-0.82h0a0.62,0.62,0,0,1,.83-0.3h0a0.61,0.61,0,0,1,.3.82h0a0.62,0.62,0,0,1-.57.36h0A0.5,0.5,0,0,1,261.89,236.67Zm29.3-2.09a0.61,0.61,0,0,1,.2-0.85h0a0.62,0.62,0,0,1,.85.19h0a0.63,0.63,0,0,1-.2.85h0a0.54,0.54,0,0,1-.33.1h0A0.63,0.63,0,0,1,291.19,234.58Zm-34.69-1.15h0a0.61,0.61,0,0,1-.12-0.87h0a0.61,0.61,0,0,1,.87-0.12h0a0.62,0.62,0,0,1,.12.86h0a0.63,0.63,0,0,1-.5.25h0A0.59,0.59,0,0,1,256.5,233.43Zm39.61-2.57a0.61,0.61,0,0,1,0-.87h0a0.6,0.6,0,0,1,.87,0h0a0.61,0.61,0,0,1,0,.88h0a0.64,0.64,0,0,1-.43.17h0A0.64,0.64,0,0,1,296.11,230.86Zm-44.25-1.68a0.6,0.6,0,0,1,0-.87h0a0.6,0.6,0,0,1,.86,0h0a0.61,0.61,0,0,1,0,.87h0a0.57,0.57,0,0,1-.41.16h0A0.59,0.59,0,0,1,251.86,229.17Zm48.34-2.94a0.63,0.63,0,0,1-.16-0.85h0a0.62,0.62,0,0,1,.87-0.16h0a0.63,0.63,0,0,1,.16.87h0a0.63,0.63,0,0,1-.52.26h0A0.64,0.64,0,0,1,300.2,226.23Zm-52-2.14a0.62,0.62,0,0,1,.22-0.85h0a0.61,0.61,0,0,1,.84.22h0a0.63,0.63,0,0,1-.22.85h0a0.68,0.68,0,0,1-.31.09h0A0.61,0.61,0,0,1,248.15,224.09Zm55.14-3.2a0.62,0.62,0,0,1-.33-0.81h0a0.62,0.62,0,0,1,.82-0.33h0a0.64,0.64,0,0,1,.33.82h0a0.63,0.63,0,0,1-.58.37h0A0.53,0.53,0,0,1,303.29,220.89Zm-57.74-2.52h0a0.62,0.62,0,0,1,.38-0.79h0a0.61,0.61,0,0,1,.78.4h0a0.61,0.61,0,0,1-.38.78h0a0.57,0.57,0,0,1-.2,0h0A0.62,0.62,0,0,1,245.55,218.37ZM305.23,215a0.62,0.62,0,0,1-.48-0.73h0a0.61,0.61,0,0,1,.73-0.48h0a0.6,0.6,0,0,1,.48.72h0a0.6,0.6,0,0,1-.61.5h-0.12Zm-61.09-2.81a0.6,0.6,0,0,1,.53-0.68h0a0.61,0.61,0,0,1,.69.53h0a0.63,0.63,0,0,1-.53.69h-0.09A0.6,0.6,0,0,1,244.14,212.23Zm61.22-3.93a0.61,0.61,0,0,1,.62-0.62h0a0.61,0.61,0,0,1,.62.62h0a0.61,0.61,0,0,1-.62.62h0A0.61,0.61,0,0,1,305.35,208.29Zm0-1.53a0.6,0.6,0,0,1,.58-0.64h0a0.62,0.62,0,0,1,.66.58h0a0.63,0.63,0,0,1-.59.66h0A0.61,0.61,0,0,1,305.32,206.76Zm-60.77-.16a0.62,0.62,0,0,1-.57-0.66h0a0.61,0.61,0,0,1,.67-0.57h0a0.62,0.62,0,0,1,.57.66h0a0.62,0.62,0,0,1-.62.57h0Zm59.87-5.81h0a0.62,0.62,0,0,1,.45-0.75h0a0.62,0.62,0,0,1,.75.44h0a0.64,0.64,0,0,1-.46.75H305A0.61,0.61,0,0,1,304.41,200.79Zm-58.92-.28a0.62,0.62,0,0,1-.43-0.77h0a0.62,0.62,0,0,1,.77-0.42h0a0.62,0.62,0,0,1,.43.77h0a0.64,0.64,0,0,1-.61.44h0A0.36,0.36,0,0,1,245.5,200.51Zm56.83-5.39a0.62,0.62,0,0,1,.28-0.83h0a0.62,0.62,0,0,1,.83.28h0a0.63,0.63,0,0,1-.28.83h0a0.73,0.73,0,0,1-.27.06h0A0.61,0.61,0,0,1,302.33,195.12Zm-54.68-.4a0.61,0.61,0,0,1-.26-0.83h0a0.6,0.6,0,0,1,.83-0.26h0a0.61,0.61,0,0,1,.27.83h0a0.63,0.63,0,0,1-.56.33h0A0.57,0.57,0,0,1,247.65,194.72Zm51.5-4.75a0.61,0.61,0,0,1,.11-0.87h0a0.61,0.61,0,0,1,.87.11h0a0.61,0.61,0,0,1-.11.87h0a0.66,0.66,0,0,1-.38.14h0A0.59,0.59,0,0,1,299.15,190Zm-48.23-.48a0.61,0.61,0,0,1-.1-0.87h0a0.63,0.63,0,0,1,.88-0.1h0a0.62,0.62,0,0,1,.09.87h0a0.59,0.59,0,0,1-.48.23h0A0.57,0.57,0,0,1,250.92,189.49ZM295,185.57a0.62,0.62,0,0,1,0-.88h0a0.61,0.61,0,0,1,.87-0.06h0a0.62,0.62,0,0,1,.06.88h0a0.64,0.64,0,0,1-.47.21h0A0.67,0.67,0,0,1,295,185.57ZM255.16,185a0.62,0.62,0,0,1,.09-0.88h0a0.62,0.62,0,0,1,.87.09h0a0.61,0.61,0,0,1-.07.87h0a0.63,0.63,0,0,1-.4.15h0A0.62,0.62,0,0,1,255.16,185Zm34.9-2.94a0.61,0.61,0,0,1-.22-0.84h0a0.62,0.62,0,0,1,.84-0.23h0a0.63,0.63,0,0,1,.23.84h0a0.63,0.63,0,0,1-.54.32h0A0.56,0.56,0,0,1,290.06,182.07Zm-29.84-.61a0.61,0.61,0,0,1,.25-0.83h0a0.62,0.62,0,0,1,.84.25h0a0.62,0.62,0,0,1-.26.84h0a0.58,0.58,0,0,1-.28.07h0A0.62,0.62,0,0,1,260.22,181.47Zm24.32-1.83a0.6,0.6,0,0,1-.39-0.78h0a0.61,0.61,0,0,1,.78-0.4h0a0.63,0.63,0,0,1,.39.78h0a0.63,0.63,0,0,1-.59.43h0A0.5,0.5,0,0,1,284.54,179.64ZM265.87,179a0.61,0.61,0,0,1,.42-0.77h0a0.61,0.61,0,0,1,.77.42h0a0.62,0.62,0,0,1-.41.77h0l-0.19,0h0A0.63,0.63,0,0,1,265.87,179Zm12.76-.64a0.61,0.61,0,0,1-.54-0.68h0a0.61,0.61,0,0,1,.68-0.54h0a0.62,0.62,0,0,1,.54.68h0a0.63,0.63,0,0,1-.62.56h-0.06Zm-6.71-.63a0.6,0.6,0,0,1,.56-0.67h0a0.61,0.61,0,0,1,.67.56h0a0.61,0.61,0,0,1-.56.67h-0.06A0.61,0.61,0,0,1,271.91,177.73Z" transform="translate(-112.37 -60.37)"/><path class="cls-15" d="M275.42,208.67" transform="translate(-112.37 -60.37)"/><path class="cls-3" d="M281.78,89.93c-1.59-.09-3.2-0.14-4.81-0.16V89.15c1.61,0,3.24.08,4.84,0.16Z" transform="translate(-112.37 -60.37)"/><path class="cls-3" d="M217.12,105.21l-0.31-.54,1.08-.61,0.3,0.54Zm4.34-2.35-0.28-.55,1.1-.56,0.28,0.55Zm4.43-2.17-0.26-.56,1.13-.52,0.25,0.56Zm4.52-2-0.24-.57,1.15-.47,0.23,0.57ZM235,96.92l-0.21-.58,1.16-.42,0.21,0.58Zm4.66-1.6-0.19-.59,1.18-.37,0.18,0.59Zm4.73-1.4-0.16-.6,1.2-.32,0.16,0.6Zm4.78-1.2-0.14-.6,1.21-.27,0.13,0.6Zm4.83-1-0.11-.61,1.22-.22,0.11,0.61Zm4.87-.8-0.09-.61,1.23-.17,0.08,0.61Zm4.89-.59-0.06-.62,1.23-.12L265,90.22Zm4.91-.38,0-.62,1.24-.06,0,0.62Zm4.92-.18V89.15h1.24v0.62h-1.23Z" transform="translate(-112.37 -60.37)"/><path class="cls-3" d="M176.4,275.64a119.1,119.1,0,0,1-20.52-67c0-42.77,23.35-82.62,60.93-104l0.31,0.54c-37.39,21.27-60.62,60.92-60.62,103.47a118.49,118.49,0,0,0,20.42,66.62Z" transform="translate(-112.37 -60.37)"/><g class="cls-5"><path class="cls-4" d="M162.76,251.32a120.57,120.57,0,0,1-7.12-29.87l2.46-.26a118.1,118.1,0,0,0,7,29.25Z" transform="translate(-112.37 -60.37)"/></g><g class="cls-5"><path class="cls-4" d="M162.76,251.32a120.57,120.57,0,0,1-7.12-29.87l2.46-.26a118.1,118.1,0,0,0,7,29.25Z" transform="translate(-112.37 -60.37)"/></g><path class="cls-15" d="M275.42,208.67" transform="translate(-112.37 -60.37)"/><path class="cls-3" d="M248.13,121.14a0.31,0.31,0,0,1-.09-0.6,91.17,91.17,0,0,1,27.38-4.2c1.66,0,3.33,0,5,.13a0.31,0.31,0,0,1,0,.62h0c-1.63-.09-3.29-0.13-4.94-0.13a90.56,90.56,0,0,0-27.19,4.17h-0.09Z" transform="translate(-112.37 -60.37)"/><path class="cls-4" d="M200.52,262.67l-0.72-1,0.51-.35,0.71,1Zm-2.79-4.1-0.66-1,0.52-.33,0.66,1Zm-2.57-4.24-0.61-1.08,0.54-.3,0.6,1.07Zm-2.34-4.38-0.55-1.11,0.56-.27,0.54,1.11Zm-2.1-4.49-0.49-1.14,0.57-.24,0.48,1.13Zm-1.85-4.6-0.42-1.16,0.58-.21,0.42,1.16Zm-1.6-4.7L186.91,235l0.59-.18,0.36,1.18Zm-1.35-4.77q-0.15-.6-0.3-1.2l0.6-.14q0.14,0.6.29,1.2Zm-1.09-4.84q-0.12-.61-0.23-1.22l0.61-.11q0.11,0.61.23,1.21ZM184,221.65q-0.09-.61-0.17-1.23l0.61-.08q0.08,0.61.16,1.22Zm-0.56-4.93q-0.05-.62-0.1-1.24l0.62,0q0,0.61.1,1.23Zm-0.3-4.95c0-.41,0-0.83,0-1.24h0.62c0,0.41,0,.82,0,1.23Zm0.58-4.95h-0.62q0-.62,0-1.24l0.62,0Q183.74,206.2,183.72,206.82ZM184,201.9l-0.62,0q0-.62.1-1.24l0.62,0.05Q184,201.29,184,201.9Zm0.5-4.9-0.61-.08q0.08-.62.17-1.23l0.61,0.09Q184.53,196.39,184.46,197Zm0.76-4.87-0.61-.11q0.11-.61.23-1.22l0.61,0.12Q185.33,191.53,185.22,192.13Zm1-4.83-0.6-.15q0.15-.6.3-1.21l0.6,0.15Q186.4,186.7,186.25,187.31Zm1.29-4.77-0.59-.18q0.18-.6.37-1.19l0.59,0.19Zm1.55-4.69-0.58-.21,0.43-1.17,0.58,0.22Zm1.8-4.59-0.57-.24,0.49-1.14,0.57,0.25Zm2-4.49-0.56-.27,0.55-1.11,0.55,0.28Zm2.29-4.37-0.54-.3,0.61-1.08,0.54,0.31Zm2.52-4.24-0.52-.33,0.67-1,0.52,0.34Zm2.74-4.1-0.5-.36,0.72-1,0.5,0.36Zm3-3.95-0.49-.38,0.78-1,0.48,0.39Zm3.16-3.79-0.46-.41L207,147l0.46,0.41Zm3.35-3.61-0.44-.43,0.87-.88,0.44,0.44Zm3.54-3.43-0.42-.46L214,140l0.41,0.46Zm3.71-3.24-0.39-.48,1-.78,0.39,0.48Zm3.88-3-0.37-.5,1-.73,0.36,0.5Zm4-2.83-0.34-.52,1-.68,0.33,0.52Zm4.17-2.61L229,129l1.07-.62,0.31,0.54Zm4.31-2.38-0.28-.55,1.1-.56,0.28,0.55ZM238,125l-0.25-.56,1.13-.5,0.25,0.57Zm4.53-1.91-0.22-.58,1.16-.44,0.22,0.58Zm4.63-1.66-0.19-.59,1.06-.34,0.18,0.59Z" transform="translate(-112.37 -60.37)"/><path class="cls-3" d="M276.73,300.51v-0.62l1.23,0,0,0.62Zm-3.73,0-1.24,0,0-.62,1.23,0v0.62Zm8.68-.2,0-.62,1.23-.09,0.05,0.62ZM268,300.24l-1.24-.11,0.06-.62,1.23,0.11Zm18.58-.42-0.07-.61,1.22-.16,0.08,0.61Zm-23.52-.1-1.23-.17,0.09-.61,1.22,0.17Zm-4.9-.79-1.22-.24,0.12-.61,1.21,0.24Zm-4.85-1-1.21-.3,0.16-.6,1.19,0.3Zm-4.79-1.31-1.19-.37,0.19-.59,1.18,0.37ZM243.85,295l-1.16-.43,0.22-.58,1.16,0.43Zm-4.62-1.82-1.14-.49,0.25-.56,1.13,0.49Zm-4.51-2.06-1.11-.55,0.28-.55,1.1,0.55Zm-4.4-2.3-1.08-.61,0.31-.54,1.07,0.61Zm-4.26-2.53-1-.67,0.34-.52,1,0.66Zm-4.12-2.76-1-.72,0.36-.5,1,0.72Zm-4-3-1-.78,0.39-.48,1,0.77Zm-3.8-3.18-0.92-.83,0.42-.46,0.92,0.82ZM210.54,274l-0.88-.87,0.44-.43,0.87,0.87Zm-3.44-3.57-0.83-.92,0.46-.41,0.82,0.91Zm-3.24-3.75-0.78-1,0.48-.38,0.77,1Zm-3-3.92-0.09-.12,0.5-.36,0.08,0.12Z" transform="translate(-112.37 -60.37)"/><path class="cls-3" d="M222.34,283.84a92,92,0,0,1-21.61-21.18l0.5-.36a91.31,91.31,0,0,0,21.46,21Z" transform="translate(-112.37 -60.37)"/><path class="cls-3" d="M275.24,300.52a91.63,91.63,0,0,1-37.36-7.91l0.25-.57a91.53,91.53,0,0,0,49.63,7l0.08,0.61A92.56,92.56,0,0,1,275.24,300.52Z" transform="translate(-112.37 -60.37)"/><path class="cls-3" d="M275.24,301.45a93.21,93.21,0,0,1-18.23-1.8l0.48-2.42a90.92,90.92,0,0,0,30.14.9l0.34,2.45A93.44,93.44,0,0,1,275.24,301.45Z" transform="translate(-112.37 -60.37)"/><path class="cls-11" d="M275.24,208.29" transform="translate(-112.37 -60.37)"/><path class="cls-3" d="M275.21,292.16c-2.56,0-5.16-.12-7.71-0.35l-3.08-.28,0.56-6.15,3.08,0.28a77.83,77.83,0,0,0,8.71.31q1.6,0,3.18-.13l3.08-.18,0.37,6.17-3.08.18q-1.7.1-3.42,0.14Zm-9.44-1.75,1.85,0.17a83.68,83.68,0,0,0,9.26.33c1.13,0,2.25-.07,3.37-0.14l1.85-.11-0.22-3.7-1.85.11q-1.6.09-3.22,0.13a80.1,80.1,0,0,1-8.84-.32l-1.85-.17Z" transform="translate(-112.37 -60.37)"/><path class="cls-3" d="M251.23,288.06l-2.35-.78a82.89,82.89,0,0,1-11.73-4.95L235,281.2l2.27-4.39,2.2,1.13a78,78,0,0,0,11,4.65l2.35,0.78Z" transform="translate(-112.37 -60.37)"/><path class="cls-3" d="M223.2,273.32l-1.88-1.6a84,84,0,0,1-9-9l-1.62-1.87,3.74-3.24,1.62,1.87a79,79,0,0,0,8.5,8.43l1.88,1.6Z" transform="translate(-112.37 -60.37)"/><g class="cls-5"><rect class="cls-4" x="230.73" y="147.31" width="109.15" height="1.24"/><rect class="cls-4" x="330.87" y="145.57" width="7.77" height="2.35"/><rect class="cls-4" x="277.02" y="147.81" width="33.9" height="2.09"/></g><g class="cls-5"><rect class="cls-4" x="230.73" y="147.31" width="109.15" height="1.24"/><rect class="cls-4" x="330.87" y="145.57" width="7.77" height="2.35"/><rect class="cls-4" x="277.02" y="147.81" width="33.9" height="2.09"/></g><rect class="cls-4" x="361.08" y="146.98" width="7.73" height="1.88"/><g class="cls-5"><circle class="cls-3" cx="162.87" cy="147.92" r="3.34"/></g><g class="cls-16"><rect class="cls-1" x="170.81" y="37.99" width="30" height="30"/><rect class="cls-10" x="170.81" y="37.99" width="30" height="30"/></g><g class="cls-17"><rect class="cls-1" x="200.81" y="37.99" width="30" height="30"/><rect class="cls-10" x="200.81" y="37.99" width="30" height="30"/><rect class="cls-1" x="170.81" y="37.99" width="30" height="30"/><rect class="cls-10" x="170.81" y="37.99" width="30" height="30"/><rect class="cls-1" x="200.81" y="37.99" width="30" height="30"/><rect class="cls-10" x="200.81" y="37.99" width="30" height="30"/><rect class="cls-1" x="200.81" y="37.99" width="30" height="30"/><rect class="cls-10" x="200.81" y="37.99" width="30" height="30"/><rect class="cls-1" x="200.81" y="7.99" width="30" height="30"/><rect class="cls-10" x="200.81" y="7.99" width="30" height="30"/><rect class="cls-1" x="200.81" y="7.99" width="30" height="30"/><rect class="cls-10" x="200.81" y="7.99" width="30" height="30"/></g><g class="cls-18"><rect class="cls-1" x="200.81" y="7.99" width="30" height="30"/><rect class="cls-10" x="200.81" y="7.99" width="30" height="30"/></g><g class="cls-19"><rect class="cls-1" x="230.81" y="7.99" width="30" height="30"/><rect class="cls-10" x="230.81" y="7.99" width="30" height="30"/><rect class="cls-1" x="230.81" y="37.99" width="30" height="30"/><rect class="cls-10" x="230.81" y="37.99" width="30" height="30"/><rect class="cls-1" x="230.81" y="7.99" width="30" height="30"/><rect class="cls-10" x="230.81" y="7.99" width="30" height="30"/><rect class="cls-1" x="230.81" y="7.99" width="30" height="30"/><rect class="cls-10" x="230.81" y="7.99" width="30" height="30"/><rect class="cls-1" x="200.81" y="7.99" width="30" height="30"/><rect class="cls-10" x="200.81" y="7.99" width="30" height="30"/></g><g class="cls-20"><rect class="cls-1" x="230.81" y="37.99" width="30" height="30"/><rect class="cls-10" x="230.81" y="37.99" width="30" height="30"/></g><g class="cls-5"><circle class="cls-3" cx="218.16" cy="19.36" r="2.49"/></g><g class="cls-5"><circle class="cls-3" cx="218.16" cy="19.36" r="2.49"/></g><path class="cls-3" d="M330.53,85.31a5.58,5.58,0,1,1,5.58-5.58A5.59,5.59,0,0,1,330.53,85.31Zm0-10.05A4.47,4.47,0,1,0,335,79.73,4.47,4.47,0,0,0,330.53,75.26Z" transform="translate(-112.37 -60.37)"/></g></g></svg>