<svg preserveAspectRatio="none" id="Layer_1" data-name="Layer 1" xmlns="http://www.w3.org/2000/svg" viewBox="0 0 117.37 120.21"><defs><style>.cls-1{fill:#12aac2;}.cls-2{fill:#ff8a29;}.cls-3{fill:#095561;}.cls-4{fill:#0e8092;}.cls-5{fill:#ffc69d;}.cls-6{fill:#ffb884;}.cls-7{fill:#ffa665;}.cls-8{fill:#ff903e;}.cls-9{fill:#bf681f;}.cls-10{fill:#8d4b16;}.cls-11{fill:#693810;}.cls-12{fill:#40220a;}</style></defs><title>circle78</title><path class="cls-1" d="M378.5,271.15v6.64A47.81,47.81,0,0,0,411.88,264l-4.72-4.72A41.2,41.2,0,0,1,378.5,271.15Zm7.83,4.63a1.68,1.68,0,1,1,1.36-1.94A1.68,1.68,0,0,1,386.33,275.78Zm7.86-2.1a1.68,1.68,0,1,1,1-2.15A1.68,1.68,0,0,1,394.19,273.68Zm7.37-3.43a1.68,1.68,0,1,1,.61-2.29A1.68,1.68,0,0,1,401.56,270.24Z" transform="translate(-320.7 -169.43)"/><path class="cls-1" d="M407.52,259l4.72,4.72a47.82,47.82,0,0,0,14-33.61h-6.66A41.2,41.2,0,0,1,407.52,259Z" transform="translate(-320.7 -169.43)"/><path class="cls-1" d="M336.88,229.9h-6.61a47.8,47.8,0,0,0,13.26,33h9.95A41.31,41.31,0,0,1,336.88,229.9Z" transform="translate(-320.7 -169.43)"/><path class="cls-1" d="M419.56,229.57h6.66a48,48,0,0,0-47-47.7v5.7l0,0.94A41.38,41.38,0,0,1,419.56,229.57Zm4.65-7.83a1.68,1.68,0,1,1-1.94-1.36A1.68,1.68,0,0,1,424.21,221.74ZM420,212.87a1.68,1.68,0,1,1-1,2.15A1.68,1.68,0,0,1,420,212.87Zm-3.58-7a1.68,1.68,0,1,1-.61,2.29A1.68,1.68,0,0,1,416.38,205.89Zm-4.73-6.26a1.68,1.68,0,1,1-.21,2.36A1.68,1.68,0,0,1,411.65,199.63Zm-23.91-13.82a1.68,1.68,0,1,1-1.36-1.94A1.68,1.68,0,0,1,387.74,185.81Zm7.5,2.32a1.68,1.68,0,1,1-1-2.15A1.68,1.68,0,0,1,395.24,188.12Zm7,3.58a1.68,1.68,0,1,1-.62-2.29A1.68,1.68,0,0,1,402.22,191.71Zm3.89,4.95a1.68,1.68,0,1,1,2.37-.21A1.68,1.68,0,0,1,406.11,196.65Z" transform="translate(-320.7 -169.43)"/><path class="cls-1" d="M344,263.41a47.82,47.82,0,0,0,34,14.37v-6.64a41.1,41.1,0,0,1-23.82-7.74H344Zm24.75,10.41a1.68,1.68,0,1,1,1.36,1.95A1.68,1.68,0,0,1,368.76,273.82Zm-7.5-2.32a1.68,1.68,0,1,1,1,2.15A1.68,1.68,0,0,1,361.26,271.51Zm-4.69-4.2a1.68,1.68,0,1,1-2.29.61A1.68,1.68,0,0,1,356.58,267.31Z" transform="translate(-320.7 -169.43)"/><path class="cls-2" d="M378,213.33A16.43,16.43,0,0,0,366.76,218l9.7,9.7A2.76,2.76,0,0,1,378,227V213.33Z" transform="translate(-320.7 -169.43)"/><circle class="cls-2" cx="60.26" cy="50.82" r="0.91"/><path class="cls-2" d="M366.41,218.32a16.43,16.43,0,0,0-4.67,11.24h13.72a2.76,2.76,0,0,1,.64-1.54Z" transform="translate(-320.7 -169.43)"/><path class="cls-2" d="M381,229.81a2.75,2.75,0,0,1-.08.65l4.86-4.86-4.13-4.13a1.4,1.4,0,0,1-.69.19,1.41,1.41,0,1,1,1.41-1.41,1.4,1.4,0,0,1-.33.9l4.3,4.3H390a0.25,0.25,0,0,1,.25.25V241.1a16.47,16.47,0,0,0-11.74-27.77V227A2.78,2.78,0,0,1,381,229.81Z" transform="translate(-320.7 -169.43)"/><path class="cls-2" d="M372.68,239.31a0.25,0.25,0,0,1-.18-0.43l6.37-6.37a2.75,2.75,0,0,1-3.41-2.46H361.74a16.48,16.48,0,0,0,27.86,11.69L380,232.12l-7.11,7.11A0.25,0.25,0,0,1,372.68,239.31Z" transform="translate(-320.7 -169.43)"/><polygon class="cls-2" points="65.45 56.52 59.63 62.34 69.03 71.75 69.03 56.52 65.45 56.52"/><circle class="cls-2" cx="406.77" cy="279.21" r="2.54" transform="translate(-405.81 71.34) rotate(-30)"/><circle class="cls-2" cx="420.53" cy="214.45" r="1.68" transform="matrix(0.94, -0.34, 0.34, 0.94, -368.69, -12.65)"/><circle class="cls-2" cx="417.22" cy="207.34" r="1.68" transform="translate(-368.48 66.95) rotate(-30)"/><circle class="cls-2" cx="400.77" cy="190.87" r="1.68" transform="translate(-285.61 273.08) rotate(-60)"/><circle class="cls-2" cx="393.66" cy="187.55" r="1.68" transform="translate(-237.93 323.89) rotate(-70)"/><path class="cls-2" d="M401,206.26a1.67,1.67,0,0,0-2.34,2.34,1.65,1.65,0,0,0,.35.36A1.68,1.68,0,0,0,401.6,207,1.87,1.87,0,0,0,401,206.26Z" transform="translate(-320.7 -169.43)"/><path class="cls-2" d="M354.4,253.18a1.15,1.15,0,0,0,.12-1,1.17,1.17,0,0,0-1.5-.7,1.1,1.1,0,0,0-.2.12,1.18,1.18,0,0,0-.51,1.39,1.1,1.1,0,0,0,1.74.56A1.15,1.15,0,0,0,354.4,253.18Z" transform="translate(-320.7 -169.43)"/><path class="cls-2" d="M357.94,256.72a1.15,1.15,0,0,0,.12-1,1.17,1.17,0,0,0-1.5-.7,1.21,1.21,0,0,0-.2.12,1.18,1.18,0,0,0-.51,1.39A1.18,1.18,0,0,0,357.94,256.72Z" transform="translate(-320.7 -169.43)"/><path class="cls-3" d="M336.86,228.9a41.39,41.39,0,0,1,41.34-41.34h0v-0.69h0a32.19,32.19,0,0,0-4.57.33l-0.74-5.1a37.57,37.57,0,0,1,5.32-.38v-0.79a48,48,0,0,0-48,48h6.61Zm0-7.28a32.18,32.18,0,0,0-.47,4.55l-5.15-.16a37.54,37.54,0,0,1,.54-5.31l5.08,0.89v0Zm1.89-7.08a32.35,32.35,0,0,0-1.25,4.4l-5-1.05a37.47,37.47,0,0,1,1.46-5.13l4.84,1.76v0Zm3.09-6.64a32.24,32.24,0,0,0-2,4.12L335,210.11a37.54,37.54,0,0,1,2.33-4.8l4.46,2.58v0Zm4.2-6a32.18,32.18,0,0,0-2.68,3.71L339,202.89a37.58,37.58,0,0,1,3.13-4.32l3.95,3.31h0Zm5.19-5.2h0a32.2,32.2,0,0,0-3.29,3.19l-3.84-3.43a37.62,37.62,0,0,1,3.83-3.71ZM370,182.43l0.9,5.07h0a32.24,32.24,0,0,0-4.44,1.12l-1.61-4.89A37.57,37.57,0,0,1,370,182.43Zm-6.18,7h0a32.27,32.27,0,0,0-4.18,1.87l-2.43-4.54a37.59,37.59,0,0,1,4.87-2.18Zm-6.64,3.1h0a32.31,32.31,0,0,0-3.79,2.57l-3.19-4a37.63,37.63,0,0,1,4.42-3Z" transform="translate(-320.7 -169.43)"/><path class="cls-4" d="M435.29,227a2.78,2.78,0,0,0-2.76,2.54H431.6c0-.42,0-0.83,0-1.25,0-1.47-.08-2.95-0.2-4.41a1.17,1.17,0,0,0,1-1.15,1.19,1.19,0,1,0-2.37,0,1.17,1.17,0,0,0,.87,1.12c0.12,1.48.2,3,.2,4.44,0,0.42,0,.83,0,1.25h-1.87a51,51,0,0,0-50.72-50.72V175a2.78,2.78,0,1,0-3-2.76s0,0.06,0,.09A57.59,57.59,0,0,0,345.4,277.1a1.16,1.16,0,0,0-.13.52,1.19,1.19,0,1,0,1.19-1.19,1.17,1.17,0,0,0-.74.28A57.09,57.09,0,0,1,375.53,172.8,2.79,2.79,0,0,0,378,175v3.86a51,51,0,0,0,0,101.94v1.87c-0.42,0-.83,0-1.25,0a54.06,54.06,0,0,1-29.23-8.52,1.17,1.17,0,0,0,.12-0.5,1.19,1.19,0,1,0-1.19,1.19,1.17,1.17,0,0,0,.76-0.29,54.56,54.56,0,0,0,29.54,8.62c0.42,0,.83,0,1.25,0v0.93a2.78,2.78,0,1,0,.5,0v-0.94a54.69,54.69,0,0,0,36.74-15.76l1.11,1.11a2.75,2.75,0,1,0,.33-0.38L415.6,267a54.7,54.7,0,0,0,16-37h0.94A2.78,2.78,0,1,0,435.29,227Zm-54.74,59.83a2.29,2.29,0,1,1-2.29-2.29A2.29,2.29,0,0,1,380.54,286.85ZM417,268.52a2.29,2.29,0,1,1,3.24,3.24,2.34,2.34,0,0,1-3.24,0A2.29,2.29,0,0,1,417,268.52Zm9.25-39h-6.66A41.38,41.38,0,0,0,379.2,188.5l0-.94v-5.7A48,48,0,0,1,426.22,229.57Zm-24.86-22.95,5.34-5.34a40.22,40.22,0,0,1,11.85,28.29H412v-0.1l-16.72-16.72L399,209a1.65,1.65,0,0,1-.35-0.36l-3.79,3.79L378.6,196.11h-0.1v-6.63a40.2,40.2,0,0,1,27.85,11.45L401,206.26A1.66,1.66,0,0,1,401.37,206.62Zm-56.21,32.12v-8l10.47,10.47h-8A2.77,2.77,0,0,0,345.15,238.73Zm-0.5,5a2.28,2.28,0,0,1,0-4.53v4.53Zm0.5-4.53a2.28,2.28,0,0,1,0,4.53v-4.53Zm66.8-9.06v-0.1h2.42v9L401,252.43l-5.65-5.65Zm-51.87,14.12A23.12,23.12,0,0,1,355,230.06h3.55a19.72,19.72,0,0,0,33.37,14l2.35,2.35-1.35,1.35a23.17,23.17,0,0,1-29.18.18Zm34.56,1.79-2.34-2.34a19.71,19.71,0,0,0-.1-27.95l2.33-2.33,1.71,1.71a23.18,23.18,0,0,1,0,29.36Zm-30.83-34.46a23.11,23.11,0,0,1,14.2-5v3.48a19.68,19.68,0,0,0-13.51,5.63l-2.39-2.39Zm22.34,14.33h3.59v15.23l-9.41-9.41Zm-7.92,6.15a2.29,2.29,0,1,1,2.29-2.29A2.29,2.29,0,0,1,378.23,232.1ZM378,213.33V227a2.76,2.76,0,0,0-1.54.62l-9.7-9.7-2.09-2.09A19.43,19.43,0,0,1,378,210.32v3Zm-11.59,5,9.7,9.7a2.76,2.76,0,0,0-.64,1.54H358.8a19.43,19.43,0,0,1,5.52-13.33Zm-4.67,11.74h13.72a2.75,2.75,0,0,0,3.41,2.46l-6.37,6.37a0.25,0.25,0,1,0,.35.35l7.11-7.11,9.63,9.63,2.15,2.15a19.47,19.47,0,0,1-32.95-13.84h2.93Zm28.5,11.62v-16a0.25,0.25,0,0,0-.25-0.25h-3.65l-4.3-4.3a1.4,1.4,0,0,0,.33-0.9,1.41,1.41,0,1,0-1.41,1.41,1.4,1.4,0,0,0,.69-0.19l4.13,4.13-4.86,4.86a2.75,2.75,0,0,0,.08-0.65A2.78,2.78,0,0,0,378.5,227V210.31a19.49,19.49,0,0,1,13.62,33.25ZM381,221.16a0.91,0.91,0,1,1,.91-0.91A0.91,0.91,0,0,1,381,221.16Zm13.22-8.06-2.35,2.35a19.66,19.66,0,0,0-13.33-5.39v-3.48a23.11,23.11,0,0,1,14.38,5.21ZM378,195.64H356.82A40.08,40.08,0,0,1,378,189.48v6.16Zm0,1.78v8.66a23.58,23.58,0,0,0-12.15,3.48Zm-16.25,16.25,2.39,2.39a19.68,19.68,0,0,0-5.59,13.5H355a23.11,23.11,0,0,1,5-14.17Zm36.6,28.68a23.66,23.66,0,0,0,0-25.05l12.51,12.51ZM378.5,206.09v-8.66l12.23,12.23A23.58,23.58,0,0,0,378.5,206.09ZM356,196.14h21.82L361.4,212.61l-11.49-11.49A40.6,40.6,0,0,1,356,196.14Zm-1.54,33.42h-8.64L358,217.44A23.59,23.59,0,0,0,354.5,229.56Zm-8.65.5h8.65A23.59,23.59,0,0,0,358,242.22Zm32.38,23.48a23.58,23.58,0,0,0,12.54-3.6l-12.52,12.52L365.82,250A23.58,23.58,0,0,0,378.23,253.54Zm16.76-6.4,5.83,5.83,5.64,5.64a40.2,40.2,0,0,1-28,11.55v-6.63h0.1Zm6.36,5.65,13.45-13.45a0.25,0.25,0,0,0,.07-0.18v-9.09h3.69a40.2,40.2,0,0,1-11.75,28.19Zm-23.12-71.07v5.85h0a41.39,41.39,0,0,0-41.34,41.34h-6.61a48,48,0,0,1,48-48v0.79Zm-28.67,19.76L361,213l-16.5,16.5v0.71l0.1,0.1v8.46a2.78,2.78,0,0,0,.13,5.54l7.66,7.67a1.15,1.15,0,0,1,.36-0.34l-7.37-7.37a2.78,2.78,0,0,0,2.21-2.48h8.46l21.17,21.17H363.77l0.18-.18-6-6a1.16,1.16,0,0,1-.35.36l5.84,5.84H355.2A40.28,40.28,0,0,1,349.55,201.47Zm28.24,61.95,0.1,0.1H378v6.63a40.1,40.1,0,0,1-22.07-6.74h21.87Zm0.71,7.74a41.2,41.2,0,0,0,28.66-11.84l4.72,4.72a47.81,47.81,0,0,1-33.38,13.76v-6.64Zm29-12.19a41.2,41.2,0,0,0,12-28.89h6.66a47.82,47.82,0,0,1-14,33.61ZM376,172.22a2.29,2.29,0,1,1,2.29,2.29A2.29,2.29,0,0,1,376,172.22ZM330.27,229.9h6.61a41.31,41.31,0,0,0,16.6,33h-9.95A47.8,47.8,0,0,1,330.27,229.9ZM344,263.41h10.17A41.1,41.1,0,0,0,378,271.15v6.64A47.82,47.82,0,0,1,344,263.41Zm34.49,19.23v-1.86A50.8,50.8,0,0,0,414,266.13l0.9,0.9A54.19,54.19,0,0,1,378.5,282.65Zm36.74-16-0.9-.9a50.81,50.81,0,0,0,14.88-35.72h1.86A54.2,54.2,0,0,1,415.24,266.68Zm20-34.59a2.29,2.29,0,1,1,2.29-2.29A2.29,2.29,0,0,1,435.29,232.1Z" transform="translate(-320.7 -169.43)"/><path class="cls-4" d="M434.07,241.88a2.79,2.79,0,1,0,2,3.41A2.79,2.79,0,0,0,434.07,241.88Zm1.49,3.29a2.29,2.29,0,0,1-2.21,1.7,2.32,2.32,0,0,1-.59-0.08,2.29,2.29,0,0,1,.59-4.5,2.32,2.32,0,0,1,.59.08A2.29,2.29,0,0,1,435.56,245.16Z" transform="translate(-320.7 -169.43)"/><path class="cls-4" d="M429,255.91a2.79,2.79,0,1,0,1.3,1.69A2.79,2.79,0,0,0,429,255.91Zm0.59,3.56a2.29,2.29,0,0,1-3.13.84A2.29,2.29,0,1,1,429.63,259.47Z" transform="translate(-320.7 -169.43)"/><path class="cls-4" d="M393,282.12a2.79,2.79,0,1,0,2.69,2.07A2.78,2.78,0,0,0,393,282.12Zm0.59,5a2.29,2.29,0,1,1,1.62-2.8A2.31,2.31,0,0,1,393.61,287.12Z" transform="translate(-320.7 -169.43)"/><path class="cls-4" d="M364.21,282.22a2.79,2.79,0,1,0,2,3.41A2.79,2.79,0,0,0,364.21,282.22Zm1.49,3.29a2.29,2.29,0,1,1-2.21-2.88,2.32,2.32,0,0,1,.59.08A2.29,2.29,0,0,1,365.7,285.5Z" transform="translate(-320.7 -169.43)"/><path class="cls-4" d="M356.35,255.13l-2-2a1.15,1.15,0,0,1-.35.36l1.94,1.94A1.15,1.15,0,0,1,356.35,255.13Z" transform="translate(-320.7 -169.43)"/><path class="cls-4" d="M383.95,173.94a1.18,1.18,0,0,0,1.11-.8,57.29,57.29,0,0,1,49.75,48.53,1.18,1.18,0,1,0,.49-0.11,57.79,57.79,0,0,0-50.18-48.92A1.18,1.18,0,1,0,383.95,173.94Z" transform="translate(-320.7 -169.43)"/><path class="cls-5" d="M372.91,182.09l0.74,5.1a32.19,32.19,0,0,1,4.57-.33h0v-5.15A37.57,37.57,0,0,0,372.91,182.09Z" transform="translate(-320.7 -169.43)"/><path class="cls-6" d="M366.47,188.62a32.24,32.24,0,0,1,4.44-1.12h0l-0.9-5.07a37.57,37.57,0,0,0-5.17,1.3Z" transform="translate(-320.7 -169.43)"/><path class="cls-7" d="M357.22,186.74l2.43,4.54a32.27,32.27,0,0,1,4.18-1.87h0l-1.76-4.84A37.59,37.59,0,0,0,357.22,186.74Z" transform="translate(-320.7 -169.43)"/><path class="cls-8" d="M350.21,191l3.19,4a32.31,32.31,0,0,1,3.79-2.57h0L354.63,188A37.63,37.63,0,0,0,350.21,191Z" transform="translate(-320.7 -169.43)"/><path class="cls-2" d="M344.06,196.47l3.84,3.43a32.2,32.2,0,0,1,3.29-3.19h0l-3.31-3.95A37.62,37.62,0,0,0,344.06,196.47Z" transform="translate(-320.7 -169.43)"/><path class="cls-9" d="M339,202.89l4.38,2.71a32.18,32.18,0,0,1,2.68-3.71h0l-3.95-3.31A37.58,37.58,0,0,0,339,202.89Z" transform="translate(-320.7 -169.43)"/><path class="cls-10" d="M335,210.11l4.78,1.91a32.24,32.24,0,0,1,2-4.12v0l-4.46-2.58A37.54,37.54,0,0,0,335,210.11Z" transform="translate(-320.7 -169.43)"/><path class="cls-11" d="M332.42,217.89l5,1.05a32.35,32.35,0,0,1,1.25-4.4v0l-4.84-1.76A37.47,37.47,0,0,0,332.42,217.89Z" transform="translate(-320.7 -169.43)"/><path class="cls-12" d="M331.21,226l5.15,0.16a32.18,32.18,0,0,1,.47-4.55v0l-5.08-.89A37.54,37.54,0,0,0,331.21,226Z" transform="translate(-320.7 -169.43)"/></svg>