<svg preserveAspectRatio="none" id="Layer_1" data-name="Layer 1" xmlns="http://www.w3.org/2000/svg" viewBox="0 0 60.58 59.93"><defs><style>.cls-1{fill:aqua;}</style></defs><title>circle92</title><g id="_编组_" data-name="&lt;编组&gt;"><path id="_复合路径_" data-name="&lt;复合路径&gt;" class="cls-1" d="M180.6,92.51a23.12,23.12,0,0,1-6.32-2.34l2.33-4.25a18.27,18.27,0,0,0,5,1.85Zm15.74-2.2L194.06,86c0.52-.27,1-0.58,1.52-0.9l2.67,4C197.63,89.58,197,90,196.33,90.31Zm-24-1.31a23.31,23.31,0,0,1-9.31-12.88l4.66-1.32A18.46,18.46,0,0,0,175.1,85Zm30.9-4.31-3.71-3.11a18.43,18.43,0,0,0,4.3-11.82,18.62,18.62,0,0,0-.26-3.08l4.78-.8A23.31,23.31,0,0,1,203.28,84.69ZM167,69.51l-4.84-.06c0-.74.05-1.49,0.13-2.22l4.82,0.52C167.07,68.33,167,68.92,167,69.51Zm5.67-13L169.34,53a23.3,23.3,0,0,1,5.48-3.91L177,53.36A18.43,18.43,0,0,0,172.7,56.46Zm24.69-.72c-0.45-.38-0.92-0.74-1.4-1.08l2.78-4c0.61,0.43,1.2.88,1.76,1.36Zm-18.74-3.1-1.79-4.5a23.46,23.46,0,0,1,15.89-.47l-1.52,4.6A18.59,18.59,0,0,0,178.65,52.63Z" transform="translate(-155.15 -39.46)"/><path id="_复合路径_2" data-name="&lt;复合路径&gt;" class="cls-1" d="M179.13,99.39a30.12,30.12,0,0,1-8.23-3.05l3-5.53a23.79,23.79,0,0,0,6.5,2.41Zm20.5-2.86-3-5.57c0.67-.36,1.34-0.75,2-1.17L202.13,95C201.32,95.58,200.48,96.08,199.63,96.53Zm-31.2-1.71A30.36,30.36,0,0,1,156.3,78l6.07-1.72A24,24,0,0,0,172,89.6Zm40.24-5.61-4.83-4.05a24,24,0,0,0,5.59-15.4,24.31,24.31,0,0,0-.33-4l6.22-1A30.35,30.35,0,0,1,208.67,89.21ZM161.46,69.43l-6.31-.08c0-1,.07-1.94.17-2.9l6.27,0.68C161.52,67.9,161.47,68.67,161.46,69.43Zm7.38-17-4.37-4.55a30.31,30.31,0,0,1,7.14-5.09l2.88,5.61A24,24,0,0,0,168.84,52.44ZM201,51.5c-0.58-.5-1.2-1-1.82-1.41l3.62-5.17c0.79,0.55,1.56,1.15,2.3,1.78Zm-24.41-4-2.33-5.86A30.41,30.41,0,0,1,195,41l-2,6A24.21,24.21,0,0,0,176.59,47.46Z" transform="translate(-155.15 -39.46)"/><circle id="_路径_" data-name="&lt;路径&gt;" class="cls-1" cx="30.29" cy="30.29" r="9.16"/></g></svg>