<svg preserveAspectRatio="none" id="OBJECTS" xmlns="http://www.w3.org/2000/svg" viewBox="0 0 237.45 237.45"><defs><style>.cls-1{fill:#7783ff;}.cls-2{fill:#d000c1;}</style></defs><title>circle66</title><path class="cls-1" d="M251,365.6A116.31,116.31,0,1,1,367.28,249.29,116.44,116.44,0,0,1,251,365.6Zm0-231.21a114.9,114.9,0,1,0,114.9,114.9A115,115,0,0,0,251,134.39Z" transform="translate(-132.25 -130.57)"/><path class="cls-1" d="M251.13,357.25h-0.94v-1.87h0.93v1.87Zm7.53-.27-0.14-1.87,0.93-.07,0.15,1.87Zm-16,0-0.94-.08,0.16-1.86,0.92,0.07Zm24.42-.88-0.28-1.85,0.92-.14,0.29,1.85ZM234.25,356l-0.93-.15,0.3-1.85,0.91,0.15Zm41.16-1.49L275,352.65l0.9-.21,0.44,1.82Zm-49.48-.14-0.91-.22,0.45-1.82,0.9,0.22Zm57.65-2.1L283,350.45l0.88-.28,0.58,1.78Zm-65.82-.18-0.9-.29,0.59-1.78,0.89,0.29Zm73.79-2.69-0.71-1.73,0.85-.35,0.72,1.73Zm-81.76-.24-0.87-.36,0.73-1.72,0.86,0.36Zm89.47-3.25-0.84-1.67,0.82-.42,0.86,1.67Zm-97.18-.29-0.84-.43,0.86-1.66,0.83,0.42Zm104.59-3.79-1-1.61,0.79-.48,1,1.59Zm-112-.35-0.8-.5,1-1.59,0.79,0.49Zm119.07-4.31-1.1-1.52,0.75-.54,1.1,1.51Zm-126.13-.39-0.76-.56,1.12-1.5,0.75,0.55Zm132.81-4.8-1.21-1.43,0.71-.6,1.22,1.42ZM181,331.49l-0.71-.62,1.23-1.41,0.7,0.6Zm145.74-5.26-1.32-1.33,0.66-.65,1.32,1.32Zm-152-.48-0.66-.67,1.33-1.31,0.65,0.65ZM332.52,320l-1.41-1.23,0.6-.7,1.42,1.22ZM169,319.53l-0.61-.72,1.43-1.2,0.6,0.7Zm168.84-6.09-1.5-1.12,0.55-.74,1.52,1.1Zm-174.1-.55-0.55-.76,1.52-1.09,0.54,0.75Zm178.87-6.46-1.58-1,0.49-.78,1.6,1ZM159,305.86l-0.49-.8,1.6-1,0.48,0.79Zm187.81-6.8-1.66-.86,0.43-.83,1.67,0.85Zm-192-.58-0.43-.84,1.67-.84,0.42,0.82Zm195.58-7.1-1.72-.73,0.36-.86,1.73,0.72Zm-199.14-.58-0.36-.87,1.74-.7,0.35,0.85Zm202.14-7.36-1.78-.59,0.29-.88,1.78,0.57Zm-205.09-.59L148,282l1.78-.56,0.28,0.88Zm207.45-7.56-1.82-.45,0.22-.9,1.82,0.43ZM146,274.7l-0.22-.92,1.82-.42,0.21,0.9ZM357.49,267l-1.85-.3,0.15-.92,1.85,0.29Zm-213.13-.6-0.14-.93,1.85-.28,0.14,0.91Zm214.18-7.8-1.86-.16,0.07-.92,1.87,0.14ZM143.35,258l-0.07-.94,1.87-.13,0.07,0.92Zm215.57-7.86h-1.87v-0.93h1.87v0.94Zm-214-.61H143v-1.16l1.87,0v1.14Zm211.92-7.72-0.07-.92,1.87-.15,0.07,0.94ZM145.2,241l-1.87-.15,0.08-.94,1.87,0.16Zm210.69-7.47-0.14-.91,1.85-.29,0.14,0.93Zm-209.72-.81-1.85-.29,0.15-.93,1.85,0.31Zm208.17-7.37-0.21-.9,1.82-.44,0.22,0.92Zm-206.55-.8L146,224.1l0.22-.92,1.82,0.45Zm204.36-7.24-0.28-.88,1.78-.58,0.29,0.9ZM150,216.52l-1.78-.58,0.3-.9,1.78,0.59Zm199.28-7.06L349,208.6l1.73-.72,0.36,0.87Zm-196.4-.77L151.2,208l0.37-.87,1.72,0.73Zm193-6.81-0.42-.82,1.67-.85,0.42,0.84Zm-189.48-.76-1.67-.85,0.43-.84,1.66,0.86Zm185.46-6.53-0.48-.79,1.59-1,0.49,0.8Zm-181.38-.74-1.6-1,0.5-.8,1.59,1Zm176.81-6.21-0.54-.75,1.51-1.1,0.55,0.76Zm-172.17-.72-1.51-1.1,0.56-.76,1.5,1.12Zm167.07-5.86-0.6-.71,1.42-1.22,0.61,0.72Zm-161.91-.68-1.42-1.22,0.62-.71,1.41,1.23Zm156.3-5.48-0.65-.66,1.32-1.32,0.66,0.67ZM176,174.27l-1.33-1.32,0.67-.66,1.31,1.34Zm144.58-5.07-0.7-.6,1.22-1.42,0.71,0.62Zm-138.46-.58-1.22-1.42,0.72-.61,1.2,1.43ZM314,164l-0.74-.55,1.1-1.52,0.76,0.56Zm-125.43-.52-1.1-1.51,0.76-.55,1.09,1.52Zm118.54-4.17-0.78-.49,1-1.6,0.8,0.5Zm-111.62-.46-1-1.59,0.81-.49,1,1.61Zm104.39-3.68-0.83-.43,0.85-1.67,0.84,0.43Zm-97.14-.39-0.85-1.67,0.84-.42,0.84,1.67Zm89.6-3.16-0.86-.36,0.72-1.73,0.87,0.36Zm-82-.32-0.72-1.73,0.87-.36,0.7,1.74Zm74.25-2.63-0.88-.29,0.57-1.78,0.9,0.3Zm-66.44-.26-0.58-1.78,0.9-.29L219,148.1Zm58.44-2.07-0.9-.22,0.44-1.82L277,144.5Zm-50.42-.19-0.43-1.82,0.91-.22,0.42,1.82Zm42.27-1.49-0.92-.15,0.29-1.85,0.93,0.15Zm-34.1-.13L234,142.65l0.93-.14,0.27,1.85Zm25.84-.91-0.92-.07,0.14-1.87,0.94,0.08Zm-17.57-.07-0.14-1.87,0.94-.07,0.13,1.87Zm9.25-.32H251l-0.05-1.87h0.94Z" transform="translate(-132.25 -130.57)"/><path class="cls-2" d="M339.28,244.3h9.38a97.94,97.94,0,0,0-94.57-92.77v9.37A88.57,88.57,0,0,1,339.28,244.3Z" transform="translate(-132.25 -130.57)"/><path class="cls-2" d="M245.35,161v-9.38a98,98,0,0,0-92.07,92.66h9.38A88.58,88.58,0,0,1,245.35,161Z" transform="translate(-132.25 -130.57)"/><path class="cls-2" d="M162.6,253h-9.37a97.94,97.94,0,0,0,92.12,93.91v-9.38A88.57,88.57,0,0,1,162.6,253Z" transform="translate(-132.25 -130.57)"/><path class="cls-2" d="M254.09,337.69v9.37a97.93,97.93,0,0,0,94.62-94h-9.37A88.56,88.56,0,0,1,254.09,337.69Z" transform="translate(-132.25 -130.57)"/><polygon class="cls-1" points="52.78 111.79 52.56 114.56 42.29 113.92 42.54 110.72 52.78 111.79"/><path class="cls-1" d="M186.11,235.5c-0.21.9-.34,1.82-0.51,2.73l-10.15-1.71c0.2-1.05.35-2.11,0.59-3.15Z" transform="translate(-132.25 -130.57)"/><path class="cls-1" d="M187.91,228.8c-0.32.87-.53,1.77-0.8,2.66l-9.92-2.76c0.3-1,.56-2.07.92-3.07Z" transform="translate(-132.25 -130.57)"/><path class="cls-1" d="M190.4,222.33c-0.4.84-.75,1.69-1.08,2.56l-9.57-3.79c0.38-1,.79-2,1.24-3Z" transform="translate(-132.25 -130.57)"/><path class="cls-1" d="M193.55,216.15c-0.46.8-.94,1.6-1.34,2.43l-9.12-4.78c0.47-1,1-1.88,1.55-2.81Z" transform="translate(-132.25 -130.57)"/><path class="cls-1" d="M197.33,210.33c-0.53.76-1.09,1.5-1.59,2.28l-8.57-5.71c0.58-.9,1.23-1.75,1.84-2.63Z" transform="translate(-132.25 -130.57)"/><polygon class="cls-1" points="69.45 74.36 67.64 76.47 59.7 69.9 61.8 67.47 69.45 74.36"/><path class="cls-1" d="M206.61,200c-0.69.62-1.34,1.27-2,1.91l-7.2-7.36c0.78-.73,1.54-1.49,2.33-2.2Z" transform="translate(-132.25 -130.57)"/><path class="cls-1" d="M212,195.66c-0.77.52-1.48,1.12-2.21,1.68l-6.4-8.07c0.85-.65,1.67-1.34,2.55-1.94Z" transform="translate(-132.25 -130.57)"/><polygon class="cls-1" points="85.58 61.31 84.38 62 83.21 62.75 77.68 54.06 79.04 53.2 80.43 52.4 85.58 61.31"/><path class="cls-1" d="M224,188.72c-0.84.39-1.7,0.74-2.51,1.18l-4.59-9.22c0.94-.51,1.93-0.91,2.9-1.36Z" transform="translate(-132.25 -130.57)"/><path class="cls-1" d="M230.48,186.23c-0.87.31-1.76,0.58-2.62,0.9l-3.59-9.65c1-.38,2-0.7,3-1Z" transform="translate(-132.25 -130.57)"/><polygon class="cls-1" points="104.93 53.87 102.23 54.49 99.67 44.52 102.8 43.79 104.93 53.87"/><polygon class="cls-1" points="111.79 52.78 109.03 53.13 107.54 42.95 110.72 42.54 111.79 52.78"/><polygon class="cls-1" points="118.73 52.42 115.95 52.49 115.52 42.2 118.73 42.12 118.73 52.42"/><polygon class="cls-1" points="125.66 52.78 122.89 52.56 123.53 42.29 126.73 42.54 125.66 52.78"/><path class="cls-1" d="M264.76,184.43c-0.9-.21-1.82-0.34-2.73-0.51l1.71-10.15c1.05,0.2,2.11.35,3.15,0.59Z" transform="translate(-132.25 -130.57)"/><path class="cls-1" d="M271.46,186.23c-0.87-.32-1.77-0.53-2.66-0.8l2.76-9.92c1,0.3,2.07.56,3.07,0.92Z" transform="translate(-132.25 -130.57)"/><path class="cls-1" d="M277.94,188.72c-0.84-.4-1.69-0.75-2.56-1.08l3.79-9.57c1,0.38,2,.79,3,1.24Z" transform="translate(-132.25 -130.57)"/><path class="cls-1" d="M284.11,191.88c-0.8-.46-1.6-0.94-2.43-1.34l4.78-9.12c1,0.47,1.88,1,2.81,1.55Z" transform="translate(-132.25 -130.57)"/><path class="cls-1" d="M289.93,195.66c-0.76-.53-1.5-1.09-2.28-1.59l5.71-8.57c0.9,0.58,1.75,1.23,2.63,1.84Z" transform="translate(-132.25 -130.57)"/><polygon class="cls-1" points="163.09 69.45 160.99 67.64 167.56 59.7 169.98 61.8 163.09 69.45"/><path class="cls-1" d="M300.24,204.93c-0.62-.69-1.27-1.34-1.91-2l7.36-7.2c0.73,0.78,1.49,1.54,2.2,2.33Z" transform="translate(-132.25 -130.57)"/><path class="cls-1" d="M304.61,210.33c-0.52-.77-1.12-1.48-1.68-2.21l8.07-6.4c0.65,0.85,1.34,1.67,1.94,2.55Z" transform="translate(-132.25 -130.57)"/><polygon class="cls-1" points="176.14 85.58 175.45 84.38 174.7 83.21 183.39 77.68 184.25 79.04 185.06 80.43 176.14 85.58"/><path class="cls-1" d="M311.54,222.33c-0.39-.84-0.74-1.7-1.18-2.51l9.22-4.59c0.51,0.94.91,1.93,1.36,2.9Z" transform="translate(-132.25 -130.57)"/><path class="cls-1" d="M314,228.8c-0.31-.87-0.58-1.76-0.9-2.62l9.65-3.59c0.38,1,.7,2,1,3Z" transform="translate(-132.25 -130.57)"/><polygon class="cls-1" points="183.59 104.93 182.96 102.23 192.94 99.67 193.66 102.8 183.59 104.93"/><polygon class="cls-1" points="184.67 111.79 184.32 109.03 194.51 107.54 194.91 110.72 184.67 111.79"/><polygon class="cls-1" points="185.03 118.73 184.96 115.95 195.25 115.52 195.33 118.73 185.03 118.73"/><polygon class="cls-1" points="184.67 125.66 184.89 122.89 195.16 123.53 194.91 126.73 184.67 125.66"/><path class="cls-1" d="M315.83,263.09c0.21-.9.34-1.82,0.51-2.73l10.15,1.71c-0.2,1.05-.35,2.11-0.59,3.15Z" transform="translate(-132.25 -130.57)"/><path class="cls-1" d="M314,269.78c0.32-.87.53-1.77,0.8-2.66l9.92,2.76c-0.3,1-.56,2.07-0.92,3.07Z" transform="translate(-132.25 -130.57)"/><path class="cls-1" d="M311.54,276.26c0.4-.84.75-1.69,1.08-2.56l9.57,3.79c-0.38,1-.79,2-1.24,3Z" transform="translate(-132.25 -130.57)"/><path class="cls-1" d="M308.39,282.44c0.46-.8.94-1.6,1.34-2.43l9.12,4.78c-0.47,1-1,1.88-1.55,2.81Z" transform="translate(-132.25 -130.57)"/><path class="cls-1" d="M304.61,288.26c0.53-.76,1.09-1.5,1.59-2.28l8.57,5.71c-0.58.9-1.23,1.75-1.84,2.63Z" transform="translate(-132.25 -130.57)"/><polygon class="cls-1" points="168 163.09 169.82 160.99 177.75 167.56 175.65 169.98 168 163.09"/><path class="cls-1" d="M295.33,298.56c0.69-.62,1.34-1.27,2-1.91l7.2,7.36c-0.78.73-1.54,1.49-2.33,2.2Z" transform="translate(-132.25 -130.57)"/><path class="cls-1" d="M289.93,302.93c0.77-.52,1.48-1.12,2.21-1.68l6.4,8.07c-0.85.65-1.67,1.34-2.55,1.94Z" transform="translate(-132.25 -130.57)"/><polygon class="cls-1" points="151.87 176.14 153.07 175.45 154.24 174.7 159.77 183.39 158.42 184.25 157.03 185.06 151.87 176.14"/><path class="cls-1" d="M277.94,309.87c0.84-.39,1.7-0.74,2.51-1.18L285,317.9c-0.94.51-1.93,0.91-2.9,1.36Z" transform="translate(-132.25 -130.57)"/><path class="cls-1" d="M271.46,312.36c0.87-.31,1.76-0.58,2.62-0.9l3.59,9.65c-1,.38-2,0.7-3,1Z" transform="translate(-132.25 -130.57)"/><polygon class="cls-1" points="132.52 183.59 135.22 182.96 137.78 192.94 134.65 193.66 132.52 183.59"/><polygon class="cls-1" points="125.66 184.67 128.42 184.32 129.91 194.51 126.73 194.91 125.66 184.67"/><polygon class="cls-1" points="118.73 185.03 121.51 184.96 121.93 195.25 118.73 195.33 118.73 185.03"/><polygon class="cls-1" points="111.79 184.67 114.56 184.89 113.92 195.16 110.72 194.91 111.79 184.67"/><path class="cls-1" d="M237.18,314.15c0.9,0.21,1.82.34,2.73,0.51l-1.71,10.15c-1.05-.2-2.11-0.35-3.15-0.59Z" transform="translate(-132.25 -130.57)"/><path class="cls-1" d="M230.48,312.36c0.87,0.32,1.77.53,2.66,0.8l-2.76,9.92c-1-.3-2.07-0.56-3.07-0.92Z" transform="translate(-132.25 -130.57)"/><path class="cls-1" d="M224,309.87c0.84,0.4,1.69.75,2.56,1.08l-3.79,9.57c-1-.38-2-0.79-3-1.24Z" transform="translate(-132.25 -130.57)"/><path class="cls-1" d="M217.83,306.71c0.8,0.46,1.6.94,2.43,1.34l-4.78,9.12c-1-.47-1.88-1-2.81-1.55Z" transform="translate(-132.25 -130.57)"/><path class="cls-1" d="M212,302.93c0.76,0.53,1.5,1.09,2.28,1.59l-5.71,8.57c-0.9-.58-1.75-1.23-2.63-1.84Z" transform="translate(-132.25 -130.57)"/><polygon class="cls-1" points="74.36 168 76.46 169.82 69.9 177.75 67.47 175.65 74.36 168"/><path class="cls-1" d="M201.7,293.65c0.62,0.69,1.27,1.34,1.91,2l-7.36,7.2c-0.73-.78-1.49-1.54-2.2-2.33Z" transform="translate(-132.25 -130.57)"/><path class="cls-1" d="M197.33,288.26c0.52,0.77,1.12,1.48,1.68,2.21l-8.07,6.4c-0.65-.85-1.34-1.67-1.94-2.55Z" transform="translate(-132.25 -130.57)"/><polygon class="cls-1" points="61.31 151.87 62 153.07 62.75 154.24 54.06 159.77 53.2 158.42 52.4 157.03 61.31 151.87"/><path class="cls-1" d="M190.4,276.26c0.39,0.84.74,1.7,1.18,2.51l-9.22,4.59c-0.51-.94-0.91-1.93-1.36-2.9Z" transform="translate(-132.25 -130.57)"/><path class="cls-1" d="M187.91,269.78c0.3,0.87.58,1.76,0.9,2.62L179.16,276c-0.38-1-.7-2-1-3Z" transform="translate(-132.25 -130.57)"/><polygon class="cls-1" points="53.87 132.52 54.49 135.22 44.52 137.78 43.79 134.65 53.87 132.52"/><polygon class="cls-1" points="52.78 125.66 53.13 128.42 42.95 129.91 42.54 126.73 52.78 125.66"/><polygon class="cls-1" points="52.42 118.73 52.49 121.51 42.2 121.93 42.12 118.73 52.42 118.73"/><path class="cls-1" d="M306.67,249.29h-5.62a50.08,50.08,0,0,0-100.16,0h-5.62A55.7,55.7,0,1,1,306.67,249.29Z" transform="translate(-132.25 -130.57)"/><path class="cls-1" d="M251,303.12a53.82,53.82,0,1,1,53.82-53.82A53.89,53.89,0,0,1,251,303.12Zm0-105.78a52,52,0,1,0,52,52A52,52,0,0,0,251,197.34Z" transform="translate(-132.25 -130.57)"/><circle class="cls-1" cx="3.12" cy="118.73" r="3.12"/><circle class="cls-1" cx="234.33" cy="118.73" r="3.12"/><circle class="cls-1" cx="118.73" cy="234.33" r="3.12"/><circle class="cls-1" cx="118.73" cy="3.12" r="3.12"/></svg>