<svg preserveAspectRatio="none" xmlns="http://www.w3.org/2000/svg" viewBox="0 0 380.42 370.93"><defs><style>.cls-2{mix-blend-mode:screen}.cls-3{fill:#03a6ff}</style></defs><g style="isolation:isolate"><g class="cls-2" id="Layer_7" data-name="Layer 7"><g class="cls-2"><path class="cls-3" d="M364.25 1102.18A107.08 107.08 0 01441.33 1205h-14.58a92.51 92.51 0 00-66.58-88.81zM259.79 1128a106.57 106.57 0 0180.48-30l-.81 14.55a92 92 0 00-69.54 25.89zM279.39 1297a107.64 107.64 0 01-44.85-52.87 104.13 104.13 0 01-5.07-16.83 115.05 115.05 0 01-2.21-17.49 109.25 109.25 0 01.68-17.67c.22-1.45.31-2.93.6-4.37l.77-4.34 1-4.29c.29-1.44.79-2.82 1.16-4.24l14 4.09c-.31 1.23-.76 2.41-1 3.66l-.86 3.7q-.31 1.88-.66 3.74c-.26 1.24-.32 2.52-.51 3.77a94.68 94.68 0 00-.59 15.31 100.57 100.57 0 001.91 15.11 89.55 89.55 0 004.37 14.51 93.06 93.06 0 0038.76 45.69zM441.33 1205a107.7 107.7 0 01-12.78 50.77 111.63 111.63 0 01-9.64 14.75 107.31 107.31 0 01-25.79 23.92 101 101 0 01-15.44 8.45 110.79 110.79 0 01-16.58 5.82l-3.64-14.11a96.24 96.24 0 0014.3-5 86.51 86.51 0 0013.34-7.29 92.74 92.74 0 0022.3-20.68 97.12 97.12 0 008.34-12.74 93.13 93.13 0 0011-43.85h14.57zM462.51 1168.65a134.7 134.7 0 015.05 36.33h-15.3a119.39 119.39 0 00-4.47-32.16zM474 1138.31a164.64 164.64 0 017.84 19.86l-14.59 4.62a149.39 149.39 0 00-7.06-17.89zM455 1108.13l3.3 4.2 3.1 4.35c1.06 1.43 2 2.94 3 4.44s2 3 2.84 4.52l-6.57 3.93c-.83-1.48-1.8-2.86-2.7-4.3s-1.81-2.86-2.82-4.22l-2.94-4.14-3.14-4zM451.15 1149.23a139.44 139.44 0 016.55 16.59l-7.29 2.31a131.86 131.86 0 00-6.16-15.61zM348.48 1072.41A134.68 134.68 0 01378 1079c2.41.75 4.73 1.78 7.09 2.68s4.61 2.06 6.93 3.07c2.24 1.18 4.52 2.26 6.72 3.5s4.42 2.45 6.52 3.87a135 135 0 0123.62 18.92 137.44 137.44 0 0118.75 23.76l-6.5 4a129.79 129.79 0 00-17.68-22.4 127.38 127.38 0 00-22.27-17.84c-2-1.34-4.09-2.43-6.14-3.65s-4.23-2.19-6.33-3.3c-2.18-.95-4.32-2-6.53-2.89s-4.4-1.82-6.68-2.52a127 127 0 00-27.81-6.24zM326.59 1090.15c1.32-.14 2.66-.17 4-.19s2.67-.09 4-.09l.11-37.16c-1.76 0-3.51.07-5.27.11s-3.51.08-5.26.25z" transform="translate(-140.76 -1015.42)"/><path class="cls-3" d="M168.31 77.61l1.93-.46 1.95-.34-6.84-36.53-2.59.47-2.56.59 8.11 36.27z"/><path class="cls-3" d="M272.87 1107.61a114.74 114.74 0 0119.15-9.72l-13.64-34.57a151.91 151.91 0 00-25.38 12.87zM220.11 1162.7a121.93 121.93 0 0140-54.21l-4.89-6.35a130 130 0 00-42.67 57.78zM195.43 1182.45a139.86 139.86 0 0133.28-70.37l-6-5.3a147.88 147.88 0 00-35.18 74.4zM218.33 1228.28a122.08 122.08 0 01-2.09-30.19l-22.92-1.31a145 145 0 002.5 36zM242.29 1279.24a118.08 118.08 0 01-22.72-45.47l-22.27 5.57a141 141 0 0027.14 54.33zM305 1319.55a118.73 118.73 0 01-45.39-22.88l-14.5 17.8a141.7 141.7 0 0054.24 27.33z" transform="translate(-140.76 -1015.42)"/><path class="cls-3" d="M310.35 1320.78A119 119 0 01264 1300l-13.66 18.44a142 142 0 0055.45 24.8z" transform="translate(-140.76 -1015.42)"/><path class="cls-3" d="M343.3 1345.82a143.71 143.71 0 01-30.53-1.3 140.86 140.86 0 01-29.51-7.9L275 1358a163.83 163.83 0 0034.34 9.19 166.67 166.67 0 0035.44 1.52zM410.14 1305.67a126.2 126.2 0 01-49.3 22.58l2.41 11.22a137.69 137.69 0 0053.81-24.64zM475.42 1228.44a143.25 143.25 0 01-49.52 86.45l7.36 8.81a154.75 154.75 0 0053.49-93.39z" transform="translate(-140.76 -1015.42)"/><path class="cls-3" d="M281.71 265.67l-1.89 2.19-2 2.1-2 2.1-2.1 1.99 10.52 11.07 2.37-2.25 2.26-2.37 2.26-2.37 2.14-2.48-11.56-9.98z"/><path class="cls-3" d="M439.8 1254.43c-.37.89-.82 1.74-1.27 2.6l-1.32 2.57c-.87 1.72-1.91 3.35-2.84 5l13.11 7.83c1.06-1.91 2.23-3.75 3.21-5.7l1.49-2.91c.5-1 1-1.94 1.43-2.94zM449.21 1224.12q-.94 5.71-2.45 11.29l14.75 4q1.7-6.32 2.77-12.78zM439.33 1068.61a172 172 0 0167.1 136.39h-5.83a166.92 166.92 0 00-17.08-73.45 166.23 166.23 0 00-47.75-58.3z" transform="translate(-140.76 -1015.42)"/><path class="cls-3" d="M423.52 1037.75a189.37 189.37 0 0135.52 24.6c2.76 2.32 5.33 4.86 7.94 7.34s5 5.17 7.52 7.77 4.78 5.4 7 8.22 4.51 5.63 6.56 8.6a188 188 0 0133.08 79.36l-5.75 1a182.15 182.15 0 00-32.06-76.91c-2-2.88-4.21-5.59-6.36-8.34s-4.53-5.33-6.81-8-4.77-5.12-7.29-7.54-5-4.87-7.7-7.12a183.53 183.53 0 00-34.43-23.85zM394.08 1046.62l5.06 2c1.69.66 3.32 1.46 5 2.19l8.38-18.47c-1.86-.82-3.69-1.71-5.58-2.45l-5.68-2.24zM329.33 1035.81c1.81 0 3.62-.11 5.42-.1l5.42.13.7-20.27-6.07-.14c-2 0-4 .07-6.07.11zM265.28 1050.38c3.28-1.56 6.7-2.79 10.07-4.14l-7.06-19c-3.78 1.5-7.6 2.9-11.28 4.64zM211.68 1088.26c2.68-2.92 5.6-5.6 8.47-8.34 1.47-1.32 3-2.61 4.48-3.91s3-2.55 4.6-3.77a163.13 163.13 0 0119.61-13.42l-10.25-17.5a183.42 183.42 0 00-22 15c-1.75 1.36-3.48 2.75-5.14 4.22s-3.36 2.89-5 4.38c-3.22 3.05-6.47 6.07-9.48 9.33zM165 1201.08a169.93 169.93 0 017.6-46.65 180.68 180.68 0 018.66-22.08 173.51 173.51 0 0111.74-20.63l-20.26-13.4a197.8 197.8 0 00-13.34 23.59 204.85 204.85 0 00-9.91 25.27 194.24 194.24 0 00-8.7 53.35zM404.7 1358.89a169.48 169.48 0 01-226.45-88.06l-11.19 4.73a181.59 181.59 0 00242.7 94.37z" transform="translate(-140.76 -1015.42)"/></g><g class="cls-2"><path class="cls-3" d="M478.58 1195.22c.15 1.55.18 3.11.21 4.67l.12 4.67h-4.39l-.12-4.53c0-1.51-.06-3-.21-4.53zM333.89 1059.53l4.67.12c1.56 0 3.11.06 4.67.21l-.28 4.38c-1.5-.15-3-.17-4.53-.21l-4.53-.12v-4.39zM473.35 1164.79c.36 1.28.74 2.55 1.07 3.84l.9 3.88c.65 2.58 1.07 5.2 1.54 7.81l-4.33.73c-.46-2.53-.86-5.08-1.5-7.57l-.87-3.76c-.32-1.25-.7-2.48-1-3.72zM409.32 1080.67c2.22 1.45 4.5 2.82 6.67 4.35s4.38 3 6.43 4.7l-2.68 3.47c-2-1.64-4.15-3-6.23-4.56s-4.32-2.8-6.47-4.22z" transform="translate(-140.76 -1015.42)"/><path class="cls-3" d="M324.56 1059.86c1.55-.15 3.11-.18 4.67-.21l4.67-.12v4.39l-4.53.12c-1.51 0-3 .06-4.53.21zM188.87 1204.55l.12-4.67c0-1.56.06-3.11.21-4.67l4.38.28c-.15 1.5-.17 3-.21 4.53l-.12 4.53h-4.39zM294.13 1065.1c1.28-.36 2.55-.74 3.84-1.07l3.88-.9c2.58-.65 5.2-1.07 7.81-1.54l.73 4.33c-2.53.46-5.08.86-7.57 1.5l-3.76.87c-1.25.32-2.48.7-3.72 1zM210 1129.13c1.45-2.22 2.82-4.5 4.35-6.67s3-4.37 4.7-6.43l3.47 2.68c-1.64 2-3 4.15-4.56 6.23s-2.8 4.32-4.22 6.47zM189.21 1213.89c-.15-1.55-.18-3.11-.21-4.67l-.12-4.67h4.39l.12 4.53c0 1.51.06 3 .21 4.53zM333.89 1349.57l-4.67-.12c-1.56 0-3.11-.06-4.67-.21l.28-4.38c1.5.15 3 .17 4.53.21l4.53.12v4.39zM194.44 1244.31c-.36-1.28-.74-2.55-1.07-3.84l-.9-3.88c-.65-2.58-1.07-5.2-1.54-7.81l4.33-.73c.46 2.53.86 5.08 1.5 7.57l.87 3.76c.32 1.25.7 2.48 1 3.72zM258.47 1328.43c-2.22-1.45-4.5-2.82-6.67-4.35s-4.37-3-6.43-4.7l2.68-3.47c2 1.64 4.15 3 6.23 4.56s4.32 2.8 6.47 4.22zM343.23 1349.24c-1.55.15-3.11.18-4.67.21l-4.67.12v-4.39l4.53-.12c1.51 0 3-.06 4.53-.21zM478.91 1204.55l-.12 4.67c0 1.56-.06 3.11-.21 4.67l-4.38-.28c.15-1.5.17-3 .21-4.53l.12-4.53h4.39zM373.66 1344c-1.28.36-2.55.74-3.84 1.07l-3.88.9c-2.58.65-5.2 1.07-7.81 1.54l-.73-4.33c2.53-.46 5.08-.86 7.57-1.5l3.76-.87c1.25-.32 2.48-.7 3.72-1zM457.77 1280c-1.45 2.22-2.82 4.5-4.35 6.67s-3 4.38-4.7 6.43l-3.47-2.68c1.64-2 3-4.15 4.56-6.23s2.8-4.32 4.22-6.47z" transform="translate(-140.76 -1015.42)"/></g><g class="cls-2"><path class="cls-3" d="M352.69 180.9l.2 8.23h-4.39l-.2-8.01 4.39-.22z"/><path class="cls-3" d="M383.26 1052.61c2.59.91 5.23 1.68 7.76 2.75l-1.57 4.1c-2.46-1-5-1.79-7.55-2.67zM489.71 1169.35c.25 1.14.55 2.28.77 3.42l.62 3.45.62 3.46c.2 1.15.31 2.32.47 3.48l-4.35.58c-.16-1.13-.26-2.26-.46-3.38l-.6-3.36-.6-3.36c-.22-1.12-.5-2.22-.75-3.33zM443 1087.87c3.44 3.18 6.68 6.56 9.83 10l-3.27 2.93c-3.07-3.36-6.22-6.64-9.56-9.74z" transform="translate(-140.76 -1015.42)"/><path class="cls-3" d="M234.61 34.84l3.96 1.12 1.98.57 1.95.65-1.35 4.17-1.9-.63-1.93-.55-3.85-1.09 1.14-4.24zM63.91 95.24l1.19-1.68 1.27-1.62 2.55-3.24 3.41 2.76-2.48 3.15-1.24 1.58-1.16 1.63-3.54-2.58z"/><path class="cls-3" d="M348.56 1045.49l1.75.14 1.74.22 3.48.44c2.33.25 4.63.68 6.93 1.1l-.78 4.32c-2.24-.4-4.48-.83-6.74-1.07l-3.39-.43-1.69-.22-1.7-.13zM256.61 1064.73c4.11-2.23 8.28-4.37 12.57-6.24l1.78 4c-4.17 1.81-8.23 3.89-12.22 6.06zM200 1117.45c1.43-2.34 3.09-4.54 4.67-6.78l3.55 2.58c-1.53 2.19-3.15 4.32-4.54 6.6zM204.67 1298.44c-1.58-2.25-3.24-4.44-4.67-6.78l3.68-2.4c1.39 2.28 3 4.41 4.54 6.6z" transform="translate(-140.76 -1015.42)"/><path class="cls-3" d="M46.35 126.01l2.91-6.39 3.2-6.25 3.86 2.09-3.11 6.07-2.83 6.22-4.03-1.74z"/><path class="cls-3" d="M177 1234.85c-.39-2.31-.87-4.6-1.19-6.92l-.88-7 4.37-.45.86 6.77c.31 2.25.78 4.48 1.15 6.73z" transform="translate(-140.76 -1015.42)"/><path class="cls-3" d="M68.92 289.55l-2.55-3.24-1.27-1.62-1.19-1.67 3.54-2.59 1.16 1.64 1.24 1.57 2.48 3.15-3.41 2.76zM242.5 341.07l-1.95.66-1.98.56-3.96 1.13-1.14-4.24 3.85-1.1 1.93-.54 1.9-.64 1.35 4.17z"/><path class="cls-3" d="M228.54 1324.6c-1.8-1.5-3.48-3.13-5.17-4.75l-2.54-2.43-2.42-2.54 3.17-3 2.35 2.47 2.47 2.36c1.64 1.57 3.28 3.16 5 4.62zM391 1353.75c-2.53 1.07-5.17 1.84-7.76 2.75l-1.36-4.17c2.52-.89 5.09-1.63 7.55-2.67z" transform="translate(-140.76 -1015.42)"/><path class="cls-3" d="M352.89 189.13l-.2 8.23-4.39-.22.2-8.01h4.39z"/><path class="cls-3" d="M415.53 1341.87c-2 1.15-4 2.36-6.1 3.47l-6.25 3.2-1.91-4 6.08-3.11c2-1.08 4-2.25 5.93-3.37zM478.61 1272.24l-.72 1.6-.8 1.56-1.6 3.12c-1 2.11-2.24 4.11-3.39 6.14l-3.79-2.2c1.13-2 2.31-3.92 3.3-6l1.56-3 .78-1.52.7-1.55z" transform="translate(-140.76 -1015.42)"/></g><g class="cls-2"><path class="cls-3" d="M457.92 1178.47a126.82 126.82 0 012.7 26.08h-5.42a121.39 121.39 0 00-2.58-25zM418.94 1110.61A130.41 130.41 0 01430 1122c1.78 2 3.36 4.11 5 6.19.82 1 1.55 2.15 2.33 3.23s1.57 2.15 2.26 3.28a125.46 125.46 0 0114.06 28.51l-5.12 1.76a120 120 0 00-13.45-27.29c-.66-1.09-1.44-2.1-2.16-3.14s-1.45-2.09-2.23-3.09c-1.59-2-3.09-4-4.8-5.92a125 125 0 00-10.62-10.94zM376.73 1085.27c1.4.47 2.76 1.07 4.15 1.59l2.07.82c.69.28 1.35.6 2 .9l4 1.84 4 2-2.53 4.79-3.78-1.94-3.87-1.76c-.65-.29-1.29-.6-1.94-.86l-2-.78c-1.32-.5-2.62-1.08-4-1.53zM328.63 1078l4.44-.11c1.48 0 3 .05 4.44.07 3 0 5.91.32 8.86.53l-.53 5.39c-2.83-.2-5.65-.5-8.49-.5-1.42 0-2.83-.11-4.25-.07l-4.25.11zM242.7 1116.6a126.2 126.2 0 0164.45-35.93l1.14 5.29a121.13 121.13 0 00-61.69 34.39zM207.17 1204.55l.11-4.3.06-2.15.16-2.15.33-4.29.54-4.27.27-2.13.38-2.12.76-4.24 1-4.19c.17-.7.31-1.4.5-2.09l.59-2.07L217 1172l-.56 2c-.18.66-.32 1.34-.47 2l-.93 4-.73 4.05-.36 2-.26 2-.52 4.09-.31 4.11-.15 2.05-.05 2.06-.11 4.12h-5.41zM209.87 1230.63a126.82 126.82 0 01-2.7-26.08h5.41a121.41 121.41 0 002.58 25zM248.84 1298.49a130.35 130.35 0 01-11.09-11.43c-1.78-2-3.36-4.11-5-6.19-.82-1-1.55-2.15-2.33-3.23s-1.57-2.15-2.26-3.28a125.45 125.45 0 01-14.06-28.51l5.12-1.76a120 120 0 0013.45 27.29c.66 1.09 1.44 2.1 2.16 3.14s1.45 2.09 2.23 3.09c1.59 2 3.09 4 4.8 5.92a125 125 0 0010.62 10.94zM291.06 1323.84c-1.4-.47-2.76-1.07-4.15-1.59l-2.07-.82c-.69-.28-1.35-.6-2-.9l-4-1.84-4-2 2.53-4.79 3.78 1.94 3.87 1.76c.65.29 1.29.6 1.94.86l2 .78c1.32.5 2.62 1.08 4 1.52zM339.16 1331.15l-4.44.11c-1.48 0-3-.05-4.44-.07-3 0-5.91-.32-8.86-.53l.53-5.39c2.83.2 5.65.5 8.49.5 1.42 0 2.83.11 4.25.07l4.25-.11zM425.09 1292.5a126.2 126.2 0 01-64.45 35.93l-1.14-5.29a121.13 121.13 0 0061.69-34.39zM460.62 1204.55l-.11 4.3-.06 2.15-.16 2.15-.33 4.29-.54 4.27-.27 2.13-.38 2.12-.76 4.24-1 4.19c-.17.7-.31 1.4-.5 2.09l-.59 2.07-5.22-1.45.56-2c.18-.66.32-1.34.48-2l.93-4 .73-4.05.36-2 .26-2 .52-4.09.31-4.11.15-2.05.05-2.06.1-4.12h5.41z" transform="translate(-140.76 -1015.42)"/></g><g class="cls-2"><path class="cls-3" d="M147.24 143.91l1-1.1 15.29 15.3-.65.75-15.64-14.95zM142.57 149.39l.87-1.2 16.88 13.53-.57.81-17.18-13.14z"/><path class="cls-3" d="M274.64 1179.92c.18-.46.41-.9.61-1.35l19.88 8.53c-.14.3-.3.58-.42.89z" transform="translate(-140.76 -1015.42)"/><path class="cls-3" d="M129.89 179.73l.21-1.46 21.35 3.49-.14.98-21.42-3.01z"/><path class="cls-3" d="M292.38 1176.68c.49-.81 1.12-1.53 1.66-2.31l-6.55-4.79c-.63.9-1.35 1.74-1.92 2.69z" transform="translate(-140.76 -1015.42)"/><path class="cls-3" d="M148.68 166.52l.59-1.3.73-1.22-7.07-3.97-.84 1.42-.69 1.5 7.28 3.57z"/><path class="cls-3" d="M285.81 1191.93l.33-1.39a7.48 7.48 0 01.4-1.37l-7.75-2.4a9.83 9.83 0 00-.46 1.59l-.39 1.61zM277.61 1217.15a20.87 20.87 0 01-.48-2.11l-.3-2.15a33.92 33.92 0 01-.5-4.3l-.21-4.33.21-4.33-3.08-.23-.22 4.56.22 4.56a36.48 36.48 0 00.52 4.53l.32 2.26a22.65 22.65 0 00.5 2.22zM292.51 1213.12a47.89 47.89 0 01-.76-12.75l-3.08-.27a50.94 50.94 0 00.81 13.65zM312.58 1241.37a44.8 44.8 0 01-11.91-10.61 42.73 42.73 0 01-7.3-14.1l-11.85 3.52a55.11 55.11 0 009.38 18.15 57.15 57.15 0 0015.28 13.61zM276.38 1238.89a70 70 0 01-6.71-15.19l5.93-1.76a63.81 63.81 0 006.11 13.8z" transform="translate(-140.76 -1015.42)"/><path class="cls-3" d="M143.99 234.73l-1.74-1.92-.86-.96-.77-1.04-3.06-4.16 5.13-3.44 2.79 3.79.69.94.8.87 1.58 1.75-4.56 4.17z"/><path class="cls-3" d="M310.91 1268c-.65-.25-1.33-.42-1.95-.73l-1.89-.88-3.78-1.76-3.59-2.12a29.29 29.29 0 01-3.5-2.25l3.52-5.08a25.21 25.21 0 003.18 2l3.25 1.93 3.43 1.59 1.71.8c.56.28 1.18.43 1.77.66z" transform="translate(-140.76 -1015.42)"/><path class="cls-3" d="M176.33 264.34l-3.89-.96 9.59-32.88 2.18.51-7.88 33.33z"/><path class="cls-3" d="M327.93 1281.59c-1.33-.12-2.65-.35-4-.53l4.85-33.9c.74.09 1.48.25 2.22.32zM350.74 1262.67a60.16 60.16 0 01-21.26 1.87l-.88 9.62a69.82 69.82 0 0024.63-2.16zM356.05 1242.19a43.78 43.78 0 01-14.44 4.91l1.46 9.55a53.44 53.44 0 0017.67-6zM366.56 1280.27c-1.61.69-3.28 1.21-4.93 1.8l-8.4-24.61c1.12-.42 2.28-.74 3.37-1.22zM375.74 1275.71l-2.27 1.32c-.77.41-1.58.76-2.37 1.14l-11.41-23.37c.54-.26 1.09-.48 1.62-.76l1.54-.92zM365.87 1237.21l-1.47 1.33a10 10 0 01-1.51 1.27l-3.17 2.32 10.28 15.62c1.52-1.06 3-2.19 4.49-3.27a18.23 18.23 0 002.13-1.78l2.06-1.87zM389.19 1251.18l-2.09 2.31a23.5 23.5 0 01-2.17 2.23l-4.63 4.18 11.8 14.47q2.94-2.59 5.83-5.25a34.37 34.37 0 002.74-2.81l2.63-2.91z" transform="translate(-140.76 -1015.42)"/><path class="cls-3" d="M231.24 219.75l-2 2.21 11.35 10.76 2.64-2.91-11.99-10.06z"/><path class="cls-3" d="M375.64 1230.23a7.37 7.37 0 01-.83 1.23l-.89 1.19 12.62 9.24 1.16-1.58a12.33 12.33 0 001.09-1.63zM378.57 1224.85a18.89 18.89 0 01-1.32 2.64L391 1235a29.52 29.52 0 001.76-3.5zM406.86 1225.19a75.27 75.27 0 01-11.48 23.16l12.57 9.2a90.87 90.87 0 0013.87-28zM389.42 1207a54.4 54.4 0 01-3.68 17.25l-10.36-4.09a43.26 43.26 0 002.92-13.73zM406.47 1198.14a71.19 71.19 0 01-1.83 23.12l-10.82-2.63a60.05 60.05 0 001.55-19.54z" transform="translate(-140.76 -1015.42)"/><path class="cls-3" d="M278.33 175.82l.22 1.53-41.34 5.6-.12-.78 41.24-6.35zM276.98 168.98l.37 1.51-40.75 8.96-.19-.77 40.57-9.7zM275.1 162.27l.5 1.47L235.72 176l-.27-.74 39.65-12.99z"/><path class="cls-3" d="M359.26 1161.23l1.82 1.07a11.53 11.53 0 011.78 1.14l3.41 2.51q1.56 1.46 3.15 2.86a12.81 12.81 0 011.47 1.53l1.43 1.58a50.55 50.55 0 018.73 14.41l-5.6 2.17a44.54 44.54 0 00-7.67-12.64l-1.26-1.39a10.25 10.25 0 00-1.29-1.35q-1.42-1.23-2.77-2.52c-1-.73-2-1.44-3-2.2a9.15 9.15 0 00-1.56-1l-1.6-.94z" transform="translate(-140.76 -1015.42)"/><path class="cls-3" d="M359.35 1157.49a54.68 54.68 0 0114.26 11 49.85 49.85 0 019.83 15l-5.52 2.36a43.85 43.85 0 00-8.71-13.32 48.68 48.68 0 00-12.63-9.74zM405.66 1168.14l1.71 3.66a36 36 0 011.59 3.71l-14 5.45a25.81 25.81 0 00-1.29-3l-1.37-3zM379.48 1138.55l3.26 2.38a36.39 36.39 0 013.18 2.48l-9.68 11.59a26.17 26.17 0 00-2.58-2l-2.66-2zM389.46 1153.76a54.94 54.94 0 014.85 5.78l-4 3a50.26 50.26 0 00-4.52-5.39zM359.68 1134.19c1.19.43 2.39.81 3.56 1.28l3.43 1.59-2.14 4.54-3.2-1.48c-1.09-.44-2.21-.79-3.32-1.19zM295.55 1164.79l2.72-2.44 1.35-1.24c.46-.4 1-.72 1.46-1.09l2.94-2.17c1-.68 2.09-1.24 3.12-1.88l1.56-.94a15.73 15.73 0 011.64-.8l3.3-1.54c1.12-.47 2.29-.81 3.43-1.23l1.72-.61c.57-.21 1.18-.3 1.77-.46l3.55-.87c1.2-.21 2.41-.35 3.61-.53l1.81-.27c.61 0 1.22-.06 1.83-.09l3.65-.18 3.65.19c.61 0 1.22 0 1.83.09l1.81.27c1.2.19 2.42.32 3.61.54l3.55.87-2.42 9q-1.48-.35-2.95-.74c-1-.18-2-.27-3-.44l-1.5-.24c-.51 0-1 0-1.52-.07q-1.52-.06-3-.17c-1 .07-2 .12-3 .16-.51 0-1 0-1.52.06l-1.5.24c-1 .16-2 .26-3 .43s-2 .5-2.95.74a15.14 15.14 0 00-1.47.37l-1.43.52c-.94.36-1.93.62-2.86 1s-1.82.87-2.74 1.29a11.36 11.36 0 00-1.36.66l-1.3.79c-.86.53-1.76 1-2.6 1.55s-1.62 1.22-2.44 1.81c-.4.31-.84.57-1.22.9l-1.12 1q-1.13 1-2.28 2z" transform="translate(-140.76 -1015.42)"/></g><g class="cls-2"><path class="cls-3" d="M249.87 1212.87a85.44 85.44 0 0192.46-93.87l-.26 2.95a81.47 81.47 0 00-35.66 4.8 82.66 82.66 0 00-53.61 85.83zM367.72 1283.3a85.11 85.11 0 01-38.61 6.32 88.59 88.59 0 01-19.38-3.63 86.74 86.74 0 01-18-8l2.62-4.47a81.57 81.57 0 0016.95 7.47 83.42 83.42 0 0018.21 3.41 79.93 79.93 0 0036.27-5.94zM410.87 1164.66a85.71 85.71 0 019.69 37.92 87.07 87.07 0 01-1.89 19.61 88.8 88.8 0 01-6.33 18.67l-4.68-2.21a83.62 83.62 0 006-17.55 81.89 81.89 0 001.78-18.43 80.52 80.52 0 00-9.1-35.62zM339.61 1107.69c1.23 0 2.46.13 3.68.25l-.58 6.63c-1.14-.11-2.28-.21-3.43-.23zM306 1112c1.18-.36 2.34-.77 3.54-1.05l1.76 6.42c-1.12.26-2.2.64-3.3 1z" transform="translate(-140.76 -1015.42)"/><path class="cls-3" d="M276 1127.66c1-.76 1.94-1.51 3-2.2l3.85 5.43c-1 .64-1.86 1.34-2.76 2zM253.24 1152.68c.67-1 1.3-2.09 2-3.09l5.49 3.76c-.67.93-1.25 1.92-1.88 2.88zM313.45 1111.31a96.51 96.51 0 0121.49-2.44v2a94.48 94.48 0 00-21 2.39zM288 1123.6a95.7 95.7 0 0114.05-6.68l-3.34-8.82a105.16 105.16 0 00-15.46 7.34zM263.43 1147.86a85.9 85.9 0 019.42-10.24l-6.3-6.76a95.16 95.16 0 00-10.38 11.29z" transform="translate(-140.76 -1015.42)"/><path class="cls-3" d="M234.71 1208.32a100.84 100.84 0 0116.43-59.22l6.49 4.26a93.07 93.07 0 00-15.16 54.64z" transform="translate(-140.76 -1015.42)"/><path class="cls-3" d="M241.4 1213.73a93.69 93.69 0 014.72-40.27l5.59 1.94a87.77 87.77 0 00-4.43 37.74zM235.51 1232.86l-1.27-4.84c-.37-1.62-.69-3.26-1-4.89l17.64-3.28c.29 1.35.54 2.7.85 4l1 4zM250.15 1263.51l-1.42-2.05c-.46-.69-.89-1.41-1.33-2.11-.88-1.41-1.77-2.82-2.55-4.29l15.63-8.8c.64 1.22 1.38 2.38 2.11 3.55.37.58.72 1.18 1.1 1.75l1.18 1.7zM273.93 1287.82q-4-3-7.78-6.28l11.93-13.4q3.08 2.74 6.42 5.18zM394.33 1285.66a105.29 105.29 0 01-22.1 12.2 103.33 103.33 0 01-24.46 6.33 101 101 0 01-49.72-6.26l2.27-5.76A94.85 94.85 0 00347 1298a97.16 97.16 0 0023-5.94 99.12 99.12 0 0020.75-11.45z" transform="translate(-140.76 -1015.42)"/></g><g class="cls-2"><path class="cls-3" d="M177.13 1229.42a166.38 166.38 0 01-1.9-27.07 152 152 0 012.67-27 161.26 161.26 0 017.2-26.14 154.87 154.87 0 0111.63-24.5l7.17 4.18a146.58 146.58 0 00-11 23.21 153 153 0 00-6.82 24.76 143.67 143.67 0 00-2.53 25.59 158.09 158.09 0 001.8 25.66zM400 1065.83a155.26 155.26 0 0161.76 53.53 153.62 153.62 0 0125.59 77.56l-3.2.16a150.41 150.41 0 00-25.05-75.94 152.06 152.06 0 00-60.48-52.42zM495.17 1162a171.85 171.85 0 015.51 42.59h-6.33a165.51 165.51 0 00-5.3-41zM474.39 1114.72c2.09 3.12 3.9 6.42 5.78 9.67.92 1.64 1.73 3.33 2.6 5l1.28 2.51c.42.84.78 1.71 1.18 2.56l-5.74 2.66c-.38-.82-.73-1.65-1.13-2.46l-1.24-2.41c-.84-1.6-1.61-3.23-2.5-4.81-1.81-3.12-3.54-6.3-5.56-9.3zM402.06 1052.33a167.32 167.32 0 0150.5 35.05l-4.51 4.45a161 161 0 00-48.59-33.72zM503.29 1180.23l.53 4.2c.18 1.4.37 2.8.45 4.21l10.43-1c-.09-1.5-.29-3-.48-4.47l-.57-4.46zM483.48 1121.39c.72 1.2 1.36 2.45 2 3.7l1.92 3.74c.66 1.24 1.23 2.52 1.81 3.8l1.73 3.83 9.61-4.17-1.84-4.07c-.61-1.36-1.22-2.72-1.92-4l-2-4c-.67-1.33-1.36-2.65-2.12-3.93zM470.61 1101.59c.92 1.18 1.75 2.43 2.63 3.64l8.53-6.09c-.93-1.29-1.82-2.61-2.79-3.86z" transform="translate(-140.76 -1015.42)"/><path class="cls-3" d="M310.49 64.6l3.25 3.1 7.39-7.43-3.45-3.3-7.19 7.63z"/><path class="cls-3" d="M428.57 1062c1.28.78 2.46 1.7 3.7 2.56l6-8.57c-1.31-.9-2.57-1.88-3.92-2.71zM400 1043.58a176.43 176.43 0 0126.43 13.63l2.56-4.07a181.25 181.25 0 00-27.16-14zM286.53 1046.88l5.5-1.56c1.84-.5 3.71-.88 5.56-1.32l2.78-.64c.93-.2 1.87-.34 2.81-.52l5.62-1 5.67-.72c.95-.11 1.89-.25 2.84-.35l2.85-.22c1.9-.13 3.8-.31 5.7-.41l5.71-.14c1 0 1.9-.08 2.86 0l2.86.07c1.9.06 3.81.06 5.71.18 3.8.32 7.61.48 11.38 1.05a159.45 159.45 0 0122.41 4.36l-2.59 9.63a149.49 149.49 0 00-21-4.1c-3.54-.54-7.12-.69-10.69-1-1.79-.11-3.58-.1-5.37-.16l-2.69-.07h-2.69l-5.37.13c-1.79.1-3.57.26-5.36.39l-2.68.2c-.89.09-1.78.22-2.66.33l-5.33.67-5.28.95c-.88.16-1.76.29-2.64.49l-2.61.61c-1.74.42-3.49.77-5.22 1.24l-5.16 1.47zM322.41 1028.56a175.32 175.32 0 0157.42 5.67l-1.7 6.32a168.78 168.78 0 00-55.3-5.46zM220.93 1071.67a174.52 174.52 0 0155.8-31.93l2.15 6.19a168 168 0 00-53.7 30.73zM209.81 1112.25l3.06-3.91 1.53-2c.52-.64 1.08-1.25 1.62-1.88l3.25-3.75 3.42-3.6 1.71-1.8c.58-.59 1.19-1.14 1.79-1.72l3.59-3.43 3.75-3.25 1.87-1.63 1.95-1.54 3.9-3.07 4-2.88 2-1.44 2.09-1.34 4.18-2.68 4.3-2.48 2.15-1.24c.73-.39 1.47-.76 2.2-1.14l4.41-2.26 4.51-2.05 1.71 3.86-4.39 2-4.29 2.2c-.71.37-1.44.72-2.14 1.1l-2.09 1.21-4.18 2.41-4.06 2.61-2 1.31-2 1.4-3.93 2.8-3.79 3-1.9 1.5-1.82 1.58-3.65 3.17-3.49 3.33c-.58.56-1.17 1.1-1.74 1.67l-1.66 1.75-3.33 3.5-3.16 3.65c-.52.61-1.07 1.21-1.57 1.83l-1.49 1.9-3 3.8z" transform="translate(-140.76 -1015.42)"/><path class="cls-3" d="M259.71 1050.74l7-3.18c2.35-1 4.76-1.9 7.14-2.86l4.61 12.26c-2.19.89-4.41 1.7-6.59 2.63l-6.46 2.93zM237.57 1063.6c2.1-1.47 4.3-2.79 6.44-4.19 1.07-.71 2.18-1.35 3.29-2l3.33-1.92 6.4 11.43-3.08 1.77c-1 .58-2.06 1.17-3 1.83-2 1.3-4 2.51-5.95 3.87zM219.27 1078l4.94-4.28c.81-.73 1.66-1.4 2.53-2.07l2.57-2 8 10.35-2.37 1.86c-.8.61-1.58 1.24-2.33 1.91l-4.56 4zM198.81 1115.55c.76-1.24 1.62-2.42 2.46-3.61l2.53-3.56-11.05-8.18-2.75 3.86c-.92 1.29-1.84 2.57-2.67 3.91zM212.56 1099.27c1-1.08 1.87-2.21 2.87-3.26l3-3.14-9.89-9.56-3.25 3.41c-1.08 1.14-2.07 2.36-3.11 3.54zM173.15 1147a172.3 172.3 0 0112.44-27l6.63 3.79a164.63 164.63 0 00-11.88 25.74zM163.89 1189.15a174 174 0 015.2-29.22l7.38 2a166.29 166.29 0 00-5 27.91zM161.84 1142.92a184.3 184.3 0 0113.32-28.86l6.63 3.79a176.65 176.65 0 00-12.79 27.64zM164 1172.78c.51-3.28 1.36-6.49 2.08-9.72l-9.61-2.37c-.77 3.42-1.66 6.82-2.21 10.28zM161.08 1205.45c0-3.31.13-6.62.21-9.93l-9.88-.51c-.09 3.5-.23 7-.23 10.49z" transform="translate(-140.76 -1015.42)"/><path class="cls-3" d="M23.58 222.66l-.87-4.89-.43-2.45-.32-2.47-9.8 1.35.33 2.61.45 2.59.93 5.18 9.71-1.92z"/><path class="cls-3" d="M164 1271.81l-1.44-3.66c-.49-1.22-.87-2.48-1.3-3.71l30.53-10.59c.36 1 .65 2.06 1.07 3.05l1.19 3zM168.63 1282.55c-1.08-2.39-2.18-4.77-3.22-7.17l29.78-12.53 2.65 5.9zM174 1293c-.67-1.13-1.26-2.3-1.86-3.46l-1.79-3.5 28.91-14.42 1.47 2.88c.49 1 1 1.93 1.53 2.85zM239.22 1334.25a161.51 161.51 0 01-42.22-45.76l7.19-4.42a153.08 153.08 0 0040 43.37zM229.77 1347.18a177.52 177.52 0 01-46.45-50.3l7.19-4.42a169.08 169.08 0 0044.24 47.91z" transform="translate(-140.76 -1015.42)"/><path class="cls-3" d="M321 1368.67c-4-.21-7.95-.83-11.91-1.31-2-.32-3.93-.69-5.9-1-1-.19-2-.33-2.95-.55l-2.92-.67-2.92-.67c-1-.22-1.95-.44-2.9-.73l-5.77-1.64c-1.92-.56-3.79-1.26-5.69-1.88l-2.84-1-2.79-1.1a164.31 164.31 0 01-41.56-23.56l-5.72 7.35a173.64 173.64 0 0043.92 24.89l2.95 1.2 3 1c2 .66 4 1.4 6 2l6.09 1.73c1 .31 2 .54 3.07.78l3.09.71 3.09.71c1 .23 2.08.39 3.11.58 2.08.37 4.15.76 6.24 1.1 4.19.51 8.37 1.16 12.58 1.39zM484.3 1204.54a157.19 157.19 0 01-4.78 37.77l-1.31 4.58-.65 2.29-.76 2.26-1.52 4.51c-.55 1.49-1.16 3-1.74 4.44-1.09 3-2.52 5.83-3.79 8.74-.66 1.44-1.44 2.83-2.15 4.26s-1.41 2.85-2.24 4.21l-2.38 4.13c-.78 1.39-1.7 2.69-2.54 4-1.66 2.72-3.56 5.27-5.39 7.87-.89 1.32-1.95 2.52-2.91 3.78s-1.92 2.54-3 3.72c-2.09 2.4-4.13 4.84-6.38 7.1a150.32 150.32 0 01-14 13c-2.51 1.95-5 4-7.6 5.77-1.31.91-2.57 1.88-3.91 2.73l-4 2.57c-1.32.89-2.72 1.65-4.09 2.44s-2.74 1.61-4.15 2.35c-2.85 1.41-5.62 3-8.55 4.22-1.45.65-2.89 1.33-4.35 2l-4.43 1.74-2.22.87-2.26.76-4.51 1.53a155.46 155.46 0 01-37.47 6.61 157.39 157.39 0 01-38-2.93l-4.64-1.08-2.32-.53-2.29-.65-4.58-1.3c-1.51-.48-3-1-4.52-1.52-3-.94-5.95-2.23-8.92-3.36-1.48-.59-2.9-1.3-4.36-1.93s-2.92-1.27-4.31-2l-1.55 3.13c1.43.78 2.94 1.4 4.41 2.08s2.95 1.38 4.46 2c3 1.16 6 2.47 9.13 3.44 1.54.51 3.07 1.06 4.62 1.55l4.69 1.33 2.35.67 2.38.54 4.75 1.1a160.89 160.89 0 0038.85 3 159 159 0 0038.34-6.76l4.62-1.57 2.31-.78 2.27-.89 4.54-1.79c1.49-.64 3-1.34 4.45-2 3-1.27 5.83-2.87 8.75-4.32 1.44-.76 2.83-1.61 4.24-2.41s2.84-1.59 4.19-2.5l4.11-2.63c1.37-.87 2.66-1.87 4-2.8 2.7-1.83 5.2-3.91 7.77-5.9a153.85 153.85 0 0014.31-13.27c2.3-2.31 4.39-4.81 6.52-7.26 1.1-1.2 2-2.54 3.06-3.8s2.06-2.52 3-3.87c1.87-2.66 3.82-5.27 5.52-8 .86-1.38 1.8-2.71 2.6-4.13l2.43-4.23c.85-1.39 1.54-2.86 2.29-4.31s1.52-2.88 2.2-4.36c1.3-3 2.77-5.89 3.88-8.95.59-1.52 1.21-3 1.78-4.54l1.56-4.62.78-2.31.66-2.35 1.34-4.69a160.68 160.68 0 004.89-38.64h-3.48z" transform="translate(-140.76 -1015.42)"/></g></g></g></svg>