<svg preserveAspectRatio="none" id="Layer_1" data-name="Layer 1" xmlns="http://www.w3.org/2000/svg" xmlns:xlink="http://www.w3.org/1999/xlink" viewBox="0 0 104.67 111.46"><defs><style>.cls-1{fill:#2e2855;}.cls-2{fill:url(#linear-gradient);}.cls-3{fill:url(#linear-gradient-2);}.cls-4{fill:#3ee497;}.cls-5{fill:#e9aa4f;}.cls-6{fill:#d13954;}</style><linearGradient id="linear-gradient" x1="37.59" y1="389.04" x2="142.27" y2="389.04" gradientUnits="userSpaceOnUse"><stop offset="0.02" stop-color="#a13246"/><stop offset="0.98" stop-color="#dd697d"/></linearGradient><linearGradient id="linear-gradient-2" x1="43.22" y1="392.01" x2="135.12" y2="392.01" gradientUnits="userSpaceOnUse"><stop offset="0" stop-color="#334f7e"/><stop offset="0.99" stop-color="#5d85c4"/></linearGradient></defs><title>circle7</title><path class="cls-1" d="M90,441.33a51.34,51.34,0,0,1-7.23-102.16,52,52,0,0,1,7.23-.5,51.34,51.34,0,0,1,7.06,102.18A51.91,51.91,0,0,1,90,441.33Zm0-100.67A49.28,49.28,0,0,0,40.67,390,49.39,49.39,0,0,0,90,439.33a50.11,50.11,0,0,0,6.79-.46A49.34,49.34,0,0,0,90,340.67Z" transform="translate(-37.59 -336.28)"/><path class="cls-2" d="M75.5,440.3a52.86,52.86,0,0,1-6.94-2.53l1.63-3.65a49,49,0,0,0,6.41,2.33Zm-10.14-4.1a53.11,53.11,0,0,1-6.26-3.91l2.35-3.24a49.18,49.18,0,0,0,5.79,3.62Zm55.39-3.91-2.35-3.24a49,49,0,0,0,5.12-4.28l2.77,2.89A53.23,53.23,0,0,1,120.75,432.29Zm-64.46-2.21A53,53,0,0,1,51,425l3-2.68A49,49,0,0,0,58.86,427ZM128.86,425l-3-2.68A49.14,49.14,0,0,0,130,417l3.31,2.25A52.86,52.86,0,0,1,128.86,425Zm-80.18-2.74a52.86,52.86,0,0,1-4.13-6.12l3.46-2a48.85,48.85,0,0,0,3.81,5.66Zm86.6-6.12-3.46-2a49,49,0,0,0,2.93-6l3.7,1.51A53,53,0,0,1,135.28,416.1Zm-92.39-3.16a53,53,0,0,1-2.77-6.84l3.8-1.24a48.94,48.94,0,0,0,2.56,6.33Zm96.83-6.84-3.8-1.24a49,49,0,0,0,1.62-6.47l3.94,0.71A53.06,53.06,0,0,1,139.72,406.1ZM39.15,402.66a53,53,0,0,1-1.28-7.27l4-.42A48.89,48.89,0,0,0,43,401.69ZM142,395.39l-4-.42a48.93,48.93,0,0,0,.24-6.66l4-.13A53,53,0,0,1,142,395.39ZM37.62,391.83a53.14,53.14,0,0,1,.26-7.38l4,0.42a49.1,49.1,0,0,0-.24,6.82Zm100.36-7a49,49,0,0,0-1.15-6.57l3.88-1a53.12,53.12,0,0,1,1.24,7.11Zm-95.65-3.26-3.94-.69a53,53,0,0,1,1.79-7.16L44,375A48.94,48.94,0,0,0,42.33,381.61Zm2.78-9.71-3.71-1.5a52.89,52.89,0,0,1,3.24-6.63l3.46,2A48.89,48.89,0,0,0,45.11,371.9ZM49.85,363l-3.32-2.24a53.13,53.13,0,0,1,4.55-5.82l3,2.68A49.15,49.15,0,0,0,49.85,363Zm6.5-7.74-2.78-2.88a53,53,0,0,1,5.66-4.75l2.35,3.24A48.89,48.89,0,0,0,56.35,355.24Zm53.16-9.42a49,49,0,0,0-6.26-2.29l1.11-3.84a53,53,0,0,1,6.78,2.48Zm-9.62-3.11a48.94,48.94,0,0,0-6.6-.94l0.29-4a53,53,0,0,1,7.14,1Z" transform="translate(-37.59 -336.28)"/><path class="cls-3" d="M101.1,447.74l-5.32-21.89,1.94-.47L103,447.26Zm5.82-2.15L99.49,425l1.88-.68,7.43,20.63ZM94,445.36l-2-19,2-.21,2,19Zm-3.84-4h-2V426.41h2v14.92Zm21.09-2.12-8.15-15.49,1.77-.93L113,438.28Zm-30.66-4.1-2-.42,2-9.29,2,0.42ZM75.92,434l-1.9-.62,2.94-9,1.9,0.62Zm-4.53-1.62-1.83-.81,3.86-8.68,1.83,0.81Zm14.41-.82-2-.21,0.55-5.21,2,0.21Zm-18.75-1.27-1.73-1L70.08,421l1.73,1Zm44.22,0L106.53,422l1.73-1,4.75,8.23ZM63,427.72l-1.62-1.18,5.58-7.69L68.55,420Zm-3.8-2.95-1.49-1.34L64,416.38l1.49,1.34Zm60,0-6.36-7.06,1.49-1.34,6.36,7.06Zm-6-.08L109.78,420l1.62-1.18,3.39,4.66Zm-57.48-3.25L54.35,420l7.06-6.36,1.34,1.49Zm67,0-7.06-6.36,1.34-1.49L124,420Zm-70.07-3.67-1.18-1.62,7.69-5.58,1.18,1.62Zm73.17,0-7.69-5.58,1.18-1.62,7.69,5.58Zm2.71-4L120.23,409l1-1.73,8.23,4.75Zm-78.59,0-1-1.73,8.23-4.75,1,1.73Zm80.87-4.24-8.68-3.86,0.81-1.83,8.68,3.86Zm-83.14,0-0.81-1.83,8.68-3.87,0.81,1.83Zm-1.82-4.45-0.62-1.9,9-2.94,0.62,1.9Zm86.78,0-9-2.94,0.62-1.9,9,2.94Zm1.35-4.62-9.29-2,0.42-2,9.29,2Zm-89.48,0-0.42-2,9.29-2,0.42,2Zm90.33-4.73-9.45-1,0.21-2,9.45,1Zm-91.19,0-0.21-2,9.45-1,0.21,2Zm91.54-4.8h-9.5v-2h9.5v2Zm-82.4,0h-9.5v-2h9.5v2Zm72.8-3.82-0.21-2,9.45-1,0.21,2Zm-72.71,0-9.45-1,0.21-2,9.45,1ZM125,383.36l-0.42-2,9.29-2,0.42,2Zm-71.72,0-9.29-2,0.42-2,9.29,2Zm0.89-3.71-9-2.94,0.62-1.9,9,2.94Zm69.95,0-0.62-1.9,9-2.94,0.62,1.9Zm-1.27-3.6-0.81-1.83,4.34-1.93,0.81,1.83Zm-67.41,0-8.68-3.86,0.81-1.83,8.68,3.86Zm65.75-3.44-1-1.75,11.27-6.17,1,1.75Zm-64.11,0-8.23-4.75,1-1.73,8.23,4.75Zm2-3.26-7.69-5.59,1.18-1.62,7.69,5.58Zm60.16,0-1.18-1.61,11.71-8.6,1.18,1.61Zm-2.34-3-1.31-1.51,13.89-12.06,1.31,1.51Zm-55.5,0L54.35,360l1.34-1.49,7.06,6.36Zm52.89-2.77-1.49-1.34,6.36-7.06,1.49,1.34Zm-50.27,0-6.36-7.06,1.49-1.34,6.36,7.06Zm47.36-2.47-1.6-1.2,7.74-10.31,1.6,1.2Zm-44.46,0-3.39-4.66,1.62-1.18,3.39,4.66Zm41.31-2.15-1.71-1,2.94-4.88,1.71,1Zm-38.17,0-4.75-8.23,1.73-1,4.75,8.23Zm34.83-1.83-1.83-.81,3.86-8.68,1.83,0.81Zm-31.48,0-5.77-13.49,1.84-.79,5.77,13.49ZM77,355.62L71.3,339l1.89-.64L78.85,355Zm24.42,0-1.9-.62,2.94-9,1.9,0.62Zm-20.77-1.07L76.93,338.9l1.95-.46,3.69,15.64Zm17.11,0-2-.42,2-9.29,2,0.42Zm-3.75-.7-2-.21,1-9.45,2,0.21Zm-9.61,0-1-17.38,2-.11,1,17.38Zm5.81-.26h-2V347h2v6.53Z" transform="translate(-37.59 -336.28)"/><path class="cls-1" d="M90,422.33A32.33,32.33,0,1,1,122.33,390,32.37,32.37,0,0,1,90,422.33Zm0-56.67A24.33,24.33,0,1,0,114.33,390,24.36,24.36,0,0,0,90,365.67Z" transform="translate(-37.59 -336.28)"/><path class="cls-4" d="M82.32,419.35a30.32,30.32,0,0,1-11.29-53l2.5,3.12a26.35,26.35,0,0,0,9.8,46Z" transform="translate(-37.59 -336.28)"/><path class="cls-5" d="M111.33,414.29l-5.28-6a24.31,24.31,0,0,0,6.83-26.58l7.52-2.74A32.31,32.31,0,0,1,111.33,414.29Z" transform="translate(-37.59 -336.28)"/><path class="cls-6" d="M100.79,367.08A25,25,0,0,0,90,364.67v-6a31,31,0,0,1,13.35,3Z" transform="translate(-37.59 -336.28)"/></svg>