<svg preserveAspectRatio="none" id="Layer_1" data-name="Layer 1" xmlns="http://www.w3.org/2000/svg" viewBox="0 0 124.1 124.1"><defs><style>.cls-1{fill:#76e5ff}.cls-2{fill:#065876}</style></defs><path class="cls-1" d="M774.62 981.69a8.16 8.16 0 108.16 8.16 8.16 8.16 0 00-8.16-8.16zm0 15.06a6.91 6.91 0 116.91-6.91 6.91 6.91 0 01-6.91 6.92z" transform="translate(-738.38 -944.28)"/><path class="cls-1" d="M774.62 985.1a4.75 4.75 0 104.75 4.75 4.75 4.75 0 00-4.75-4.75zm0 8.78a4 4 0 114-4 4 4 0 01-4 3.99z" transform="translate(-738.38 -944.28)"/><circle class="cls-1" cx="827.89" cy="1020.28" r="3.15" transform="rotate(-60 -359.08 1187.586)"/><circle class="cls-1" cx="817.82" cy="1031.47" r="3.15" transform="rotate(-48 -611.837 1388.534)"/><path class="cls-2" d="M71.37 7.94l-1.1-.11.49-7.19 1.63.17-1.02 7.13zM76.97 9.21l-1.08-.23 1.24-7.09 1.61.34-1.77 6.98zM82.42 11.06l-1.05-.34 1.96-6.93 1.57.51-2.48 6.76zM87.63 13.47l-1-.45 2.68-6.69 1.5.67-3.18 6.47zM92.57 16.41l-.96-.55 3.37-6.37 1.43.82-3.84 6.1zM97.17 19.85l-.89-.65 4.02-5.98 1.33.97-4.46 5.66zM101.39 23.75l-.82-.73 4.62-5.54 1.22 1.11-5.02 5.16zM105.18 28.08l-.74-.82 5.17-5.02 1.1 1.22-5.53 4.62zM108.5 32.77l-.65-.89 5.66-4.45.97 1.33-5.98 4.01zM111.3 37.79l-.55-.96 6.1-3.83.82 1.42-6.37 3.37zM113.57 43.07l-.45-1.01 6.47-3.18.67 1.51-6.69 2.68zM115.27 48.56l-.34-1.05 6.76-2.49.51 1.57-6.93 1.97zM116.39 54.19l-.23-1.08 6.99-1.76.34 1.61-7.1 1.23zM116.8 58.82l.11 1.1 7.19-.49-.17-1.63-7.13 1.02zM116.83 64.56v1.1l7.2.27v-1.64l-7.2.27zM116.16 71.37l.11-1.1 7.19.49-.17 1.63-7.13-1.02zM114.89 76.98l.23-1.09 7.1 1.24-.35 1.61-6.98-1.76zM113.04 82.42l.34-1.06 6.93 1.97-.51 1.57-6.76-2.48zM110.63 87.64l.45-1.01 6.69 2.68-.67 1.5-6.47-3.17zM107.69 92.57l.55-.96 6.37 3.37-.82 1.43-6.1-3.84zM104.25 97.17l.65-.89 5.98 4.02-.96 1.33-5.67-4.46zM100.35 101.39l.74-.82 5.53 4.62-1.1 1.22-5.17-5.02zM96.02 105.18l.83-.74 5.01 5.17-1.22 1.1-4.62-5.53zM91.33 108.5l.89-.65 4.45 5.66-1.33.97-4.01-5.98zM86.31 111.3l.96-.55 3.84 6.1-1.43.82-3.37-6.37zM81.03 113.57l1.01-.45 3.18 6.47-1.5.66-2.69-6.68zM75.55 115.27l1.05-.34 2.48 6.76-1.57.51-1.96-6.93zM69.91 116.39l1.08-.23 1.76 6.99-1.61.34-1.23-7.1zM64.19 116.91l.48 7.19 1.64-.17-1.03-7.13-1.09.11zM58.44 116.84l-.27 7.19h1.64l-.27-7.19h-1.1zM52.73 116.16l1.1.11-.48 7.19-1.64-.17 1.02-7.13zM47.13 114.89l1.08.23-1.23 7.1-1.61-.35 1.76-6.98zM41.69 113.04l1.05.34-1.97 6.93-1.57-.51 2.49-6.76zM36.47 110.63l1.01.45-2.68 6.69-1.51-.67 3.18-6.47zM31.53 107.69l.96.55-3.37 6.37-1.42-.82 3.83-6.1zM26.93 104.25l.89.65-4.01 5.98-1.33-.96 4.45-5.67zM22.71 100.35l.82.74-4.62 5.53-1.22-1.1 5.02-5.17zM18.92 96.03l.74.81-5.17 5.02-1.1-1.22 5.53-4.61zM15.61 91.33l.65.89-5.67 4.45-.97-1.33 5.99-4.01zM12.8 86.31l.55.96-6.1 3.84-.82-1.43 6.37-3.37zM10.53 81.03l.45 1.01-6.47 3.18-.66-1.5 6.68-2.69zM8.83 75.55l.34 1.04-6.76 2.49-.51-1.57 6.93-1.96zM7.71 69.91l.23 1.08-6.99 1.76-.34-1.61 7.1-1.23zM0 64.67l.17 1.64 7.13-1.03-.11-1.09-7.19.48zM.07 59.81l7.2-.27v-1.1l-7.2-.27v1.64zM7.94 52.73l-.11 1.1-7.19-.48.17-1.64 7.13 1.02zM9.22 47.13l-.24 1.08-7.09-1.23.34-1.61 6.99 1.76zM11.06 41.69l-.34 1.05-6.93-1.97.51-1.57 6.76 2.49zM13.47 36.47l-.45 1.01-6.69-2.68.67-1.51 6.47 3.18zM16.41 31.53l-.55.96-6.37-3.37.82-1.42 6.1 3.83zM19.85 26.93l-.65.89-5.98-4.01.97-1.33 5.66 4.45zM23.75 22.71l-.73.82-5.54-4.62 1.1-1.22 5.17 5.02zM28.08 18.92l-.82.74-5.02-5.17 1.22-1.1 4.62 5.53zM32.77 15.61l-.89.65-4.45-5.67 1.33-.97 4.01 5.99zM37.79 12.8l-.96.55-3.84-6.1 1.43-.82 3.37 6.37zM43.07 10.53l-1.01.45-3.18-6.46 1.51-.67 2.68 6.68zM48.56 8.83l-1.05.34-2.49-6.76 1.57-.51 1.97 6.93zM54.19 7.71l-1.08.23L51.35.95l1.61-.34 1.23 7.1zM59.43 0L57.8.17l1.02 7.13 1.1-.11L59.43 0zM64.29.07l.27 7.2h1.1l.27-7.2h-1.64z"/><path d="M799.74 960.17a46.16 46.16 0 1046.16 46.16 46.16 46.16 0 00-46.16-46.16zm0 91.25a45.09 45.09 0 1145.09-45.09 45.09 45.09 0 01-45.09 45.09z" transform="translate(-738.38 -944.28)" fill="#08b3ea"/><path fill="#ff6d00" d="M27.4 100.19l.85-6.48 6.03-2.51 5.19 3.98-.85 6.48-6.03 2.51-5.19-3.98z"/></svg>