<svg preserveAspectRatio="none" id="Layer_6" data-name="Layer 6" xmlns="http://www.w3.org/2000/svg" viewBox="0 0 112.94 112.94"><defs><style>.cls-1{fill:aqua;}</style></defs><title>circle109</title><polygon class="cls-1" points="105.86 57.18 105.88 56.47 112.94 56.47 112.92 57.28 105.86 57.18"/><polygon class="cls-1" points="105.82 58.73 105.84 58.02 112.89 58.23 112.87 59.05 105.82 58.73"/><polygon class="cls-1" points="105.72 60.28 105.77 59.57 112.82 60 112.76 60.82 105.72 60.28"/><polygon class="cls-1" points="104.87 66.43 105 65.72 111.93 67.04 111.79 67.84 104.87 66.43"/><polygon class="cls-1" points="104.53 67.94 104.69 67.24 111.58 68.78 111.39 69.57 104.53 67.94"/><path class="cls-1" d="M131.39,137.31l0.1-.34,0.09-.35,6.84,1.75-0.11.4-0.11.39Z" transform="translate(-27.24 -67.86)"/><polygon class="cls-1" points="103.72 70.94 103.92 70.25 110.69 72.22 110.47 73 103.72 70.94"/><polygon class="cls-1" points="103.23 72.42 103.46 71.74 110.17 73.92 109.91 74.69 103.23 72.42"/><path class="cls-1" d="M130,141.74l0.13-.33c0.07-.17.12-0.34,0.12-0.34l6.64,2.39s-0.06.2-.14,0.39l-0.15.38Z" transform="translate(-27.24 -67.86)"/><polygon class="cls-1" points="101.52 76.75 101.82 76.09 108.29 78.9 107.96 79.65 101.52 76.75"/><path class="cls-1" d="M128.11,146l0.16-.32,0.15-.33,6.38,3-0.17.37-0.18.37Z" transform="translate(-27.24 -67.86)"/><polygon class="cls-1" points="100.16 79.54 100.49 78.9 106.77 82.11 106.4 82.84 100.16 79.54"/><polygon class="cls-1" points="99.41 80.9 99.77 80.28 105.95 83.68 105.54 84.39 99.41 80.9"/><path class="cls-1" d="M125.87,150.1s0.1-.15.19-0.31l0.18-.31,6.07,3.6-0.21.35c-0.1.18-.21,0.35-0.21,0.35Z" transform="translate(-27.24 -67.86)"/><polygon class="cls-1" points="96.92 84.83 97.33 84.24 103.17 88.22 102.69 88.88 96.92 84.83"/><polygon class="cls-1" points="95.06 87.31 95.5 86.75 101.07 91.08 100.57 91.72 95.06 87.31"/><polygon class="cls-1" points="94.07 88.51 94.54 87.97 99.97 92.47 99.44 93.09 94.07 88.51"/><polygon class="cls-1" points="93.05 89.68 93.52 89.14 98.81 93.81 98.28 94.42 93.05 89.68"/><polygon class="cls-1" points="91.98 90.8 92.48 90.28 97.62 95.12 97.06 95.71 91.98 90.8"/><polygon class="cls-1" points="96.28 57.05 96.29 56.47 98.82 56.47 98.81 57.08 96.28 57.05"/><polygon class="cls-1" points="96.25 58.3 96.26 57.72 98.79 57.8 98.77 58.41 96.25 58.3"/><polygon class="cls-1" points="96.16 59.55 96.21 58.97 98.73 59.13 98.68 59.74 96.16 59.55"/><path class="cls-1" d="M123.3,128.66l0-.29,0-.29,2.52,0.23,0,0.31,0,0.3Z" transform="translate(-27.24 -67.86)"/><polygon class="cls-1" points="95.7 63.27 95.81 62.7 98.3 63.1 98.19 63.7 95.7 63.27"/><polygon class="cls-1" points="95.48 64.5 95.58 63.94 98.07 64.41 97.96 65.01 95.48 64.5"/><polygon class="cls-1" points="95.2 65.72 95.33 65.16 97.8 65.71 97.66 66.31 95.2 65.72"/><polygon class="cls-1" points="94.16 69.32 94.35 68.78 96.75 69.56 96.55 70.14 94.16 69.32"/><path class="cls-1" d="M121,138.37l0.11-.27c0.05-.13.1-0.27,0.1-0.27l2.38,0.86s0,0.15-.1.29l-0.11.29Z" transform="translate(-27.24 -67.86)"/><polygon class="cls-1" points="93.29 71.66 93.5 71.13 95.85 72.06 95.62 72.63 93.29 71.66"/><polygon class="cls-1" points="92.78 72.81 93.02 72.28 95.34 73.29 95.09 73.85 92.78 72.81"/><path class="cls-1" d="M119.5,141.81l0.13-.26,0.12-.26,2.29,1.08-0.13.28-0.14.27Z" transform="translate(-27.24 -67.86)"/><path class="cls-1" d="M117.7,145.1s0.08-.12.15-0.25l0.14-.25,2.17,1.29-0.15.27c-0.07.13-.16,0.26-0.16,0.26Z" transform="translate(-27.24 -67.86)"/><polygon class="cls-1" points="89.78 78.29 90.09 77.8 92.22 79.16 91.89 79.67 89.78 78.29"/><polygon class="cls-1" points="89.08 79.32 89.41 78.85 91.5 80.27 91.14 80.77 89.08 79.32"/><path class="cls-1" d="M115.59,148.2l0.17-.23,0.17-.24,2,1.49-0.18.25-0.18.25Z" transform="translate(-27.24 -67.86)"/><polygon class="cls-1" points="87.57 81.32 87.93 80.87 89.93 82.42 89.55 82.9 87.57 81.32"/><polygon class="cls-1" points="85.96 83.23 86.34 82.8 88.23 84.47 87.83 84.93 85.96 83.23"/><path class="cls-1" d="M117.08,157.71l1.1-1.15c0.17-.19.37-0.38,0.57-0.61l0.65-.75,0.73-.85,0.77-1a46.83,46.83,0,0,0,3.36-4.89,48.59,48.59,0,0,0,3.05-6.08,49.26,49.26,0,0,0,2.15-6.46c0.24-1.06.5-2.08,0.66-3.06l0.25-1.43,0.17-1.34c0.13-.86.17-1.66,0.23-2.36l0.07-1,0-.84,0-1.59h0.79l0,1.62,0,0.85-0.08,1c-0.05.72-.1,1.52-0.23,2.4l-0.17,1.37L130.9,133c-0.16,1-.42,2-0.67,3.11A50.06,50.06,0,0,1,128,142.7a49.39,49.39,0,0,1-3.1,6.18,47.61,47.61,0,0,1-3.41,5l-0.78,1-0.75.86-0.66.76c-0.2.24-.41,0.43-0.58,0.62l-1.12,1.17Z" transform="translate(-27.24 -67.86)"/><path class="cls-1" d="M114.4,155l1-1.06c0.16-.17.34-0.35,0.53-0.56l0.6-.69,0.68-.78,0.71-.9a43,43,0,0,0,3.09-4.5,44.82,44.82,0,0,0,2.81-5.59,45.47,45.47,0,0,0,2-5.93c0.22-1,.46-1.91.6-2.81l0.23-1.31,0.16-1.24c0.12-.79.16-1.52,0.21-2.17l0.07-.91,0-.77,0-1.47h2.66l0,1.55,0,0.82-0.07,1c-0.05.69-.1,1.46-0.22,2.3l-0.17,1.31L129,132.68c-0.15,1-.41,2-0.64,3a48.16,48.16,0,0,1-2.09,6.3,47.48,47.48,0,0,1-3,5.93,45.68,45.68,0,0,1-3.28,4.77l-0.75,1-0.72.83-0.63.73c-0.19.23-.39,0.42-0.56,0.6l-1.07,1.12Z" transform="translate(-27.24 -67.86)"/><path class="cls-1" d="M121,124.33h-0.79l0,0.69,0,0.71c0,0.26,0,.54,0,0.81L120,128.06l-0.09.68,0.78,0.09,0.09-.7,0.12-1.55c0-.28,0-0.56,0-0.83l0-.72Z" transform="translate(-27.24 -67.86)"/><path class="cls-1" d="M110.08,150.7l0.63-.67c0.2-.22.46-0.46,0.72-0.77l0.9-1a38.63,38.63,0,0,0,4.14-6.07,38.25,38.25,0,0,0,2.86-6.76c0.26-1,.52-1.76.63-2.34l0.21-.89L119.4,132l-0.2.88c-0.11.56-.36,1.34-0.62,2.29a37.46,37.46,0,0,1-2.8,6.61,37.85,37.85,0,0,1-4.05,5.94l-0.88,1c-0.26.3-.51,0.54-0.71,0.75l-0.62.65Z" transform="translate(-27.24 -67.86)"/><path class="cls-1" d="M108.72,149.34l0.67-.71c0.42-.41.92-1,1.44-1.6,0.26-.29.49-0.61,0.72-0.9s0.45-.55.61-0.79l0.57-.8L110.54,143l-0.52.74c-0.15.22-.36,0.46-0.57,0.73s-0.42.56-.66,0.83c-0.48.54-.94,1.1-1.33,1.48l-0.62.66Z" transform="translate(-27.24 -67.86)"/><polygon class="cls-1" points="90.89 91.9 91.41 91.41 96.4 96.4 95.81 96.96 90.89 91.9"/><polygon class="cls-1" points="89.77 92.97 90.28 92.48 95.12 97.62 94.52 98.18 89.77 92.97"/><polygon class="cls-1" points="88.6 93.99 89.14 93.52 93.81 98.81 93.19 99.35 88.6 93.99"/><path class="cls-1" d="M110.89,165.59l0.3-.19,0.3-.2,4,5.83-0.34.23-0.34.22Z" transform="translate(-27.24 -67.86)"/><polygon class="cls-1" points="82.34 98.56 82.94 98.18 86.73 104.13 86.04 104.57 82.34 98.56"/><polygon class="cls-1" points="81 99.35 81.62 98.99 85.22 105.06 84.51 105.47 81 99.35"/><path class="cls-1" d="M106.89,168l0.32-.16,0.31-.18,3.4,6.18-0.36.2-0.36.19Z" transform="translate(-27.24 -67.86)"/><polygon class="cls-1" points="78.26 100.81 78.9 100.49 82.11 106.77 81.38 107.15 78.26 100.81"/><polygon class="cls-1" points="76.86 101.47 77.51 101.18 80.52 107.56 79.77 107.9 76.86 101.47"/><polygon class="cls-1" points="73.99 102.67 74.66 102.41 77.26 108.97 76.49 109.27 73.99 102.67"/><polygon class="cls-1" points="72.53 103.19 73.21 102.96 75.6 109.6 74.82 109.87 72.53 103.19"/><path class="cls-1" d="M98.3,171.55l0.11,0,0.23-.08,0.34-.11,2.18,6.71-0.39.13-0.27.09-0.12,0Z" transform="translate(-27.24 -67.86)"/><polygon class="cls-1" points="69.56 104.11 70.25 103.92 72.22 110.69 71.43 110.92 69.56 104.11"/><polygon class="cls-1" points="68.06 104.5 68.75 104.34 70.5 111.17 69.71 111.36 68.06 104.5"/><polygon class="cls-1" points="65.02 105.13 65.72 105 67.04 111.93 66.23 112.08 65.02 105.13"/><polygon class="cls-1" points="61.94 105.57 62.65 105.48 63.53 112.48 62.72 112.58 61.94 105.57"/><polygon class="cls-1" points="60.4 105.71 61.11 105.66 61.77 112.68 60.95 112.75 60.4 105.71"/><path class="cls-1" d="M86.09,173.68l0.36,0,0.36,0,0.44,7-0.41,0-0.41,0Z" transform="translate(-27.24 -67.86)"/><polygon class="cls-1" points="57.3 105.86 58.02 105.84 58.23 112.89 57.42 112.92 57.3 105.86"/><polygon class="cls-1" points="84.21 85.03 84.63 84.63 86.42 86.42 85.97 86.84 84.21 85.03"/><polygon class="cls-1" points="83.31 85.89 83.72 85.49 85.45 87.33 85.01 87.76 83.31 85.89"/><polygon class="cls-1" points="82.36 86.71 82.8 86.34 84.47 88.23 84 88.63 82.36 86.71"/><path class="cls-1" d="M108.64,155.38l0.23-.18,0.23-.18L110.7,157l-0.24.19-0.24.19Z" transform="translate(-27.24 -67.86)"/><polygon class="cls-1" points="79.4 89.02 79.87 88.69 81.36 90.73 80.86 91.08 79.4 89.02"/><path class="cls-1" d="M105.61,157.59l0.24-.16,0.24-.16,1.42,2.09-0.25.17-0.26.17Z" transform="translate(-27.24 -67.86)"/><polygon class="cls-1" points="77.31 90.4 77.8 90.09 79.16 92.22 78.64 92.56 77.31 90.4"/><polygon class="cls-1" points="74.03 92.22 74.54 91.95 75.69 94.2 75.15 94.48 74.03 92.22"/><polygon class="cls-1" points="72.9 92.75 73.42 92.51 74.5 94.8 73.94 95.05 72.9 92.75"/><path class="cls-1" d="M99,161.12l0.27-.11,0.26-.12,1,2.32-0.28.13-0.28.12Z" transform="translate(-27.24 -67.86)"/><polygon class="cls-1" points="70.59 93.71 71.13 93.5 72.06 95.85 71.49 96.07 70.59 93.71"/><polygon class="cls-1" points="69.41 94.13 69.96 93.95 70.82 96.33 70.23 96.52 69.41 94.13"/><polygon class="cls-1" points="65.82 95.18 66.38 95.05 67 97.5 66.41 97.64 65.82 95.18"/><polygon class="cls-1" points="64.6 95.46 65.16 95.33 65.71 97.8 65.11 97.94 64.6 95.46"/><polygon class="cls-1" points="63.37 95.69 63.94 95.58 64.41 98.07 63.8 98.18 63.37 95.69"/><path class="cls-1" d="M89.37,163.75l0.29,0,0.29,0,0.39,2.5-0.3,0-0.3,0Z" transform="translate(-27.24 -67.86)"/><polygon class="cls-1" points="60.89 96.04 61.46 95.97 61.78 98.48 61.17 98.56 60.89 96.04"/><path class="cls-1" d="M85.64,164.11l0.29,0,0.29,0,0.16,2.52-0.31,0-0.31,0Z" transform="translate(-27.24 -67.86)"/><path class="cls-1" d="M83.71,171.53l1.59,0,0.84,0,1-.07c0.7-.05,1.5-0.1,2.36-0.23l1.34-.17,1.43-.25c1-.15,2-0.42,3.06-0.66a49.29,49.29,0,0,0,6.46-2.15,48.6,48.6,0,0,0,6.08-3.05,46.82,46.82,0,0,0,4.89-3.36l1-.77,0.85-.73,0.75-.65c0.23-.2.43-0.4,0.61-0.57l1.15-1.1,0.56,0.56-1.17,1.12c-0.19.18-.39,0.38-0.62,0.58l-0.76.66-0.87.75-1,.78a47.61,47.61,0,0,1-5,3.41,49.4,49.4,0,0,1-6.18,3.1,50.06,50.06,0,0,1-6.56,2.18c-1.08.24-2.11,0.51-3.11,0.67l-1.45.25-1.37.17c-0.87.13-1.68,0.18-2.4,0.23l-1,.08-0.85,0-1.62,0v-0.79Z" transform="translate(-27.24 -67.86)"/><path class="cls-1" d="M110.08,150.7l-0.56-.56-0.5.47c-0.31.28-.68,0.68-1.11,1s-0.83.73-1.15,1l-0.54.43,0.49,0.62,0.55-.43c0.33-.26.75-0.64,1.18-1s0.82-.77,1.14-1.05Z" transform="translate(-27.24 -67.86)"/><path class="cls-1" d="M83.71,161.62l0.92,0,1.06,0,1.37-.11a37.88,37.88,0,0,0,7.21-1.37,36.43,36.43,0,0,0,6.8-2.76c0.45-.22.84-0.46,1.2-0.66s0.67-.37.91-0.53l0.77-.5-0.43-.66-0.76.49c-0.24.16-.55,0.32-0.89,0.52s-0.73.44-1.17,0.65a35.63,35.63,0,0,1-6.65,2.7A37.07,37.07,0,0,1,87,160.68l-1.34.1-1,0-0.9,0v0.79Z" transform="translate(-27.24 -67.86)"/><path class="cls-1" d="M83.71,159.7l1,0c0.29,0,.64,0,1,0l1.15-.09,0.58,0,0.56-.07,1-.12c0.29,0,.53-0.09.7-0.12l0.26,0-0.46-2.62-0.24,0c-0.16,0-.38.08-0.64,0.11l-0.92.11-0.52.07-0.54,0-1.06.08c-0.34,0-.66,0-0.93,0l-0.91,0v2.66Z" transform="translate(-27.24 -67.86)"/><path class="cls-1" d="M108.72,149.34l-1.88-1.88-1.19,1.13c-0.38.32-.8,0.71-1.28,1.1l-0.75.59-0.38.3-0.4.28-0.8.57-0.8.51c-0.51.35-1,.62-1.44,0.87-0.21.12-.4,0.24-0.58,0.33l-0.46.23-0.4.21L99.53,156l0.43-.22,0.5-.25c0.19-.1.4-0.23,0.63-0.36,0.46-.27,1-0.56,1.56-0.94l0.86-.55,0.86-.62,0.44-.31,0.42-.33,0.81-.63c0.52-.42,1-0.84,1.38-1.19Z" transform="translate(-27.24 -67.86)"/><polygon class="cls-1" points="55.75 105.86 56.47 105.88 56.47 112.94 55.65 112.92 55.75 105.86"/><polygon class="cls-1" points="54.2 105.82 54.92 105.84 54.7 112.89 53.88 112.87 54.2 105.82"/><polygon class="cls-1" points="52.66 105.72 53.37 105.77 52.93 112.82 52.12 112.76 52.66 105.72"/><polygon class="cls-1" points="46.51 104.87 47.21 105 45.9 111.93 45.09 111.79 46.51 104.87"/><polygon class="cls-1" points="44.99 104.53 45.69 104.69 44.16 111.58 43.36 111.39 44.99 104.53"/><path class="cls-1" d="M70.73,172l0.35,0.1,0.35,0.09L69.67,179l-0.4-.11-0.39-.11Z" transform="translate(-27.24 -67.86)"/><polygon class="cls-1" points="41.99 103.72 42.69 103.92 40.72 110.69 39.93 110.47 41.99 103.72"/><polygon class="cls-1" points="40.52 103.23 41.2 103.46 39.02 110.17 38.24 109.91 40.52 103.23"/><path class="cls-1" d="M66.3,170.58l0.33,0.13L67,170.83l-2.39,6.64-0.39-.14-0.38-.15Z" transform="translate(-27.24 -67.86)"/><polygon class="cls-1" points="36.19 101.52 36.84 101.82 34.04 108.29 33.29 107.96 36.19 101.52"/><path class="cls-1" d="M62,168.73l0.32,0.16L62.67,169l-3,6.38-0.37-.17-0.37-.18Z" transform="translate(-27.24 -67.86)"/><polygon class="cls-1" points="33.4 100.16 34.03 100.49 30.83 106.77 30.1 106.4 33.4 100.16"/><polygon class="cls-1" points="32.04 99.41 32.66 99.77 29.25 105.95 28.54 105.54 32.04 99.41"/><path class="cls-1" d="M57.94,166.49l0.31,0.19,0.31,0.18L55,172.93l-0.35-.21-0.35-.21Z" transform="translate(-27.24 -67.86)"/><polygon class="cls-1" points="28.11 96.92 28.69 97.33 24.72 103.17 24.05 102.69 28.11 96.92"/><polygon class="cls-1" points="25.62 95.06 26.19 95.5 21.86 101.07 21.22 100.57 25.62 95.06"/><polygon class="cls-1" points="24.43 94.07 24.97 94.54 20.47 99.97 19.85 99.44 24.43 94.07"/><polygon class="cls-1" points="23.26 93.05 23.8 93.52 19.13 98.81 18.51 98.28 23.26 93.05"/><polygon class="cls-1" points="22.13 91.98 22.65 92.48 17.82 97.62 17.23 97.06 22.13 91.98"/><polygon class="cls-1" points="55.89 96.28 56.47 96.29 56.47 98.82 55.85 98.81 55.89 96.28"/><polygon class="cls-1" points="54.64 96.25 55.22 96.26 55.14 98.79 54.52 98.77 54.64 96.25"/><polygon class="cls-1" points="53.39 96.16 53.96 96.21 53.81 98.73 53.19 98.68 53.39 96.16"/><path class="cls-1" d="M79.38,163.92l0.29,0L80,164l-0.23,2.52-0.31,0-0.3,0Z" transform="translate(-27.24 -67.86)"/><polygon class="cls-1" points="49.66 95.7 50.23 95.81 49.84 98.3 49.23 98.19 49.66 95.7"/><polygon class="cls-1" points="48.43 95.48 49 95.58 48.53 98.07 47.92 97.96 48.43 95.48"/><polygon class="cls-1" points="47.21 95.2 47.78 95.33 47.23 97.8 46.63 97.66 47.21 95.2"/><polygon class="cls-1" points="43.61 94.16 44.16 94.35 43.38 96.75 42.8 96.55 43.61 94.16"/><path class="cls-1" d="M69.68,161.61l0.27,0.11,0.27,0.1-0.86,2.38-0.29-.1L68.78,164Z" transform="translate(-27.24 -67.86)"/><polygon class="cls-1" points="41.27 93.29 41.81 93.5 40.88 95.85 40.31 95.62 41.27 93.29"/><polygon class="cls-1" points="40.13 92.78 40.65 93.02 39.65 95.34 39.09 95.09 40.13 92.78"/><path class="cls-1" d="M66.23,160.12l0.26,0.13,0.26,0.12-1.08,2.29-0.28-.13-0.27-.14Z" transform="translate(-27.24 -67.86)"/><path class="cls-1" d="M62.94,158.32l0.25,0.15,0.25,0.14-1.29,2.17-0.27-.15-0.26-.16Z" transform="translate(-27.24 -67.86)"/><polygon class="cls-1" points="34.65 89.78 35.14 90.09 33.78 92.22 33.26 91.89 34.65 89.78"/><polygon class="cls-1" points="33.62 89.08 34.09 89.41 32.66 91.5 32.16 91.14 33.62 89.08"/><path class="cls-1" d="M59.84,156.21l0.23,0.17,0.24,0.17-1.49,2-0.25-.18-0.25-.18Z" transform="translate(-27.24 -67.86)"/><polygon class="cls-1" points="31.61 87.58 32.07 87.93 30.52 89.93 30.03 89.55 31.61 87.58"/><polygon class="cls-1" points="29.7 85.96 30.14 86.34 28.47 88.23 28 87.83 29.7 85.96"/><path class="cls-1" d="M50.33,157.71l1.15,1.1c0.19,0.17.38,0.37,0.61,0.57L52.85,160l0.85,0.73,1,0.77a46.83,46.83,0,0,0,4.89,3.36,48.6,48.6,0,0,0,6.08,3.05,49.28,49.28,0,0,0,6.46,2.15c1.06,0.24,2.08.5,3.06,0.66L76.59,171l1.34,0.17c0.86,0.13,1.66.17,2.36,0.23l1,0.07,0.84,0,1.59,0v0.79l-1.62,0-0.85,0-1-.08c-0.72-.05-1.52-0.1-2.4-0.23l-1.37-.17L75,171.52c-1-.16-2-0.42-3.11-0.67a50.06,50.06,0,0,1-6.56-2.18,49.4,49.4,0,0,1-6.18-3.1,47.62,47.62,0,0,1-5-3.41l-1-.78-0.87-.75L51.57,160c-0.24-.2-0.43-0.41-0.62-0.58l-1.17-1.12Z" transform="translate(-27.24 -67.86)"/><path class="cls-1" d="M53,155l1.06,1c0.17,0.16.35,0.34,0.56,0.53l0.69,0.6,0.78,0.68,0.9,0.71a43,43,0,0,0,4.5,3.09,44.8,44.8,0,0,0,5.59,2.81,45.48,45.48,0,0,0,5.93,2c1,0.22,1.91.46,2.81,0.6l1.31,0.23,1.24,0.16c0.79,0.12,1.52.16,2.17,0.21l0.91,0.07,0.77,0,1.47,0v2.66l-1.55,0-0.82,0-1-.07c-0.69-.05-1.46-0.1-2.3-0.22l-1.31-.17-1.39-.25c-1-.15-2-0.41-3-0.64a48.14,48.14,0,0,1-6.3-2.09,47.45,47.45,0,0,1-5.93-3,45.67,45.67,0,0,1-4.77-3.28l-1-.75-0.83-.72-0.73-.63c-0.23-.19-0.42-0.39-0.6-0.56l-1.12-1.07Z" transform="translate(-27.24 -67.86)"/><path class="cls-1" d="M83.71,161.62v-0.79l-0.69,0-0.71,0c-0.26,0-.54,0-0.81,0L80,160.64l-0.68-.09-0.09.78,0.7,0.09,1.55,0.12c0.28,0,.56,0,0.83,0l0.72,0Z" transform="translate(-27.24 -67.86)"/><path class="cls-1" d="M57.34,150.7L58,151.33c0.22,0.2.46,0.46,0.77,0.72l1,0.9a38.64,38.64,0,0,0,6.07,4.14A38.24,38.24,0,0,0,72.64,160c1,0.26,1.76.52,2.34,0.63l0.89,0.21L76,160l-0.88-.2c-0.56-.11-1.34-0.36-2.29-0.62a37.45,37.45,0,0,1-6.61-2.8,37.84,37.84,0,0,1-5.94-4.05l-1-.88c-0.3-.26-0.54-0.51-0.75-0.71l-0.65-.62Z" transform="translate(-27.24 -67.86)"/><path class="cls-1" d="M83.71,159.7V157l-1.65,0-1.68-.13-0.94-.12c-0.32,0-.65-0.06-1-0.13-0.64-.13-1.3-0.21-1.89-0.37l-0.86-.2c-0.28-.06-0.53-0.15-0.77-0.21-0.47-.14-0.87-0.23-1.14-0.33l-0.43-.15-0.84,2.52L73,158c0.29,0.11.72,0.21,1.23,0.36,0.26,0.07.53,0.17,0.83,0.23L76,158.85c0.64,0.17,1.35.26,2,.4,0.35,0.07.7,0.1,1,.15l1,0.13,1.82,0.14Z" transform="translate(-27.24 -67.86)"/><polygon class="cls-1" points="21.03 90.89 21.53 91.41 16.54 96.4 15.97 95.81 21.03 90.89"/><polygon class="cls-1" points="19.96 89.77 20.46 90.28 15.31 95.12 14.75 94.52 19.96 89.77"/><polygon class="cls-1" points="18.94 88.6 19.41 89.14 14.12 93.81 13.59 93.19 18.94 88.6"/><path class="cls-1" d="M42.45,151.51l0.19,0.3c0.09,0.15.2,0.3,0.2,0.3l-5.83,4s-0.12-.17-0.23-0.34l-0.22-.34Z" transform="translate(-27.24 -67.86)"/><polygon class="cls-1" points="14.37 82.34 14.76 82.94 8.8 86.73 8.36 86.04 14.37 82.34"/><polygon class="cls-1" points="13.58 81 13.94 81.62 7.87 85.22 7.46 84.51 13.58 81"/><path class="cls-1" d="M40.07,147.51l0.16,0.32,0.18,0.31-6.18,3.41-0.2-.36-0.19-.36Z" transform="translate(-27.24 -67.86)"/><polygon class="cls-1" points="12.12 78.26 12.45 78.9 6.16 82.11 5.79 81.38 12.12 78.26"/><polygon class="cls-1" points="11.46 76.86 11.76 77.51 5.38 80.52 5.04 79.77 11.46 76.86"/><polygon class="cls-1" points="10.27 73.99 10.53 74.66 3.97 77.26 3.67 76.49 10.27 73.99"/><polygon class="cls-1" points="9.74 72.53 9.97 73.21 3.33 75.6 3.07 74.82 9.74 72.53"/><path class="cls-1" d="M36.49,138.92l0,0.11,0.08,0.23,0.11,0.34L30,141.78l-0.13-.39-0.09-.27,0-.12Z" transform="translate(-27.24 -67.86)"/><polygon class="cls-1" points="8.82 69.56 9.02 70.25 2.24 72.22 2.02 71.43 8.82 69.56"/><polygon class="cls-1" points="8.44 68.06 8.6 68.75 1.76 70.5 1.58 69.71 8.44 68.06"/><polygon class="cls-1" points="7.81 65.02 7.93 65.72 1 67.04 0.86 66.23 7.81 65.02"/><polygon class="cls-1" points="7.37 61.94 7.46 62.65 0.45 63.53 0.35 62.72 7.37 61.94"/><polygon class="cls-1" points="7.22 60.4 7.28 61.11 0.25 61.77 0.19 60.95 7.22 60.4"/><path class="cls-1" d="M34.36,126.72s0,0.18,0,.36l0,0.36-7,.44,0-.41c0-.2,0-0.41,0-0.41Z" transform="translate(-27.24 -67.86)"/><polygon class="cls-1" points="7.08 57.3 7.09 58.02 0.04 58.23 0.02 57.42 7.08 57.3"/><polygon class="cls-1" points="27.91 84.21 28.31 84.63 26.52 86.42 26.09 85.97 27.91 84.21"/><polygon class="cls-1" points="27.04 83.31 27.44 83.72 25.6 85.45 25.18 85.01 27.04 83.31"/><polygon class="cls-1" points="26.22 82.36 26.6 82.8 24.7 84.47 24.3 84 26.22 82.36"/><path class="cls-1" d="M52.66,149.26l0.18,0.23L53,149.72l-1.95,1.61-0.19-.24-0.19-.24Z" transform="translate(-27.24 -67.86)"/><polygon class="cls-1" points="23.92 79.4 24.25 79.87 22.21 81.36 21.85 80.86 23.92 79.4"/><path class="cls-1" d="M50.45,146.23l0.16,0.24c0.08,0.12.16,0.24,0.16,0.24l-2.09,1.42s-0.09-.12-0.17-0.25l-0.17-.26Z" transform="translate(-27.24 -67.86)"/><polygon class="cls-1" points="22.53 77.31 22.84 77.8 20.71 79.16 20.38 78.64 22.53 77.31"/><polygon class="cls-1" points="20.72 74.03 20.98 74.54 18.73 75.69 18.45 75.15 20.72 74.03"/><polygon class="cls-1" points="20.19 72.9 20.43 73.42 18.14 74.5 17.89 73.94 20.19 72.9"/><path class="cls-1" d="M46.93,139.62s0,0.14.11,0.27l0.12,0.26-2.32,1-0.13-.28c-0.06-.14-0.12-0.28-0.12-0.28Z" transform="translate(-27.24 -67.86)"/><polygon class="cls-1" points="19.23 70.59 19.44 71.13 17.09 72.06 16.86 71.49 19.23 70.59"/><polygon class="cls-1" points="18.8 69.41 18.99 69.96 16.61 70.82 16.41 70.23 18.8 69.41"/><polygon class="cls-1" points="17.76 65.82 17.88 66.38 15.44 67 15.3 66.41 17.76 65.82"/><polygon class="cls-1" points="17.47 64.6 17.6 65.16 15.14 65.71 15 65.11 17.47 64.6"/><polygon class="cls-1" points="17.25 63.37 17.35 63.94 14.87 64.41 14.76 63.8 17.25 63.37"/><path class="cls-1" d="M44.29,130l0,0.29c0,0.14,0,.29,0,0.29l-2.5.39s0-.15,0-0.3l0-.3Z" transform="translate(-27.24 -67.86)"/><polygon class="cls-1" points="16.89 60.89 16.96 61.47 14.46 61.78 14.38 61.17 16.89 60.89"/><path class="cls-1" d="M43.93,126.26s0,0.14,0,.29l0,0.29-2.52.16,0-.31c0-.15,0-0.31,0-0.31Z" transform="translate(-27.24 -67.86)"/><path class="cls-1" d="M36.51,124.33l0,1.59,0,0.84,0.07,1c0.05,0.7.1,1.5,0.23,2.36L37,131.45l0.25,1.43c0.15,1,.42,2,0.66,3.06a49.27,49.27,0,0,0,2.15,6.46,48.6,48.6,0,0,0,3.05,6.08,46.8,46.8,0,0,0,3.36,4.89l0.77,1L48,155.2l0.65,0.75c0.2,0.23.4,0.43,0.57,0.61l1.1,1.15-0.56.56-1.12-1.17c-0.18-.19-0.38-0.39-0.58-0.62l-0.66-.76-0.75-.86-0.78-1a47.59,47.59,0,0,1-3.41-5,49.37,49.37,0,0,1-3.1-6.18,50.06,50.06,0,0,1-2.18-6.56c-0.24-1.08-.51-2.11-0.67-3.11l-0.26-1.45-0.17-1.37c-0.13-.87-0.18-1.68-0.23-2.4l-0.08-1,0-.85,0-1.62h0.79Z" transform="translate(-27.24 -67.86)"/><path class="cls-1" d="M40.3,124.33l0,1.47,0,0.77,0.07,0.91c0,0.65.09,1.38,0.21,2.17l0.16,1.24L41,132.2c0.14,0.91.39,1.84,0.6,2.81a45.5,45.5,0,0,0,2,5.93,44.8,44.8,0,0,0,2.81,5.59A43,43,0,0,0,49.5,151l0.71,0.9,0.68,0.78,0.6,0.69c0.18,0.21.37,0.39,0.53,0.56L53,155l-1.88,1.88-1.07-1.12c-0.17-.18-0.37-0.37-0.56-0.6l-0.63-.73-0.72-.83-0.75-1a45.68,45.68,0,0,1-3.28-4.77,47.45,47.45,0,0,1-3-5.93,48.13,48.13,0,0,1-2.09-6.3c-0.23-1-.49-2-0.64-3l-0.25-1.39L38,130c-0.12-.84-0.17-1.62-0.22-2.3l-0.07-1,0-.82,0-1.55H40.3Z" transform="translate(-27.24 -67.86)"/><path class="cls-1" d="M57.34,150.7l0.56-.56-0.47-.5c-0.28-.31-0.68-0.68-1-1.11s-0.73-.83-1-1.15L55,146.83l-0.62.49,0.43,0.55c0.26,0.33.64,0.75,1,1.18s0.77,0.82,1.05,1.14Z" transform="translate(-27.24 -67.86)"/><path class="cls-1" d="M46.42,124.33l0,0.92,0,1.06,0.11,1.37a37.87,37.87,0,0,0,1.37,7.21,36.43,36.43,0,0,0,2.76,6.8c0.22,0.45.46,0.84,0.66,1.2s0.37,0.67.53,0.91l0.5,0.77,0.66-.43-0.49-.76c-0.16-.24-0.32-0.55-0.52-0.89s-0.44-.73-0.65-1.17a35.64,35.64,0,0,1-2.7-6.65,37.08,37.08,0,0,1-1.34-7.06l-0.1-1.34,0-1,0-.9H46.42Z" transform="translate(-27.24 -67.86)"/><path class="cls-1" d="M48.34,124.33l0,1c0,0.29,0,.64,0,1l0.09,1.15c0,0.19,0,.39,0,0.58l0.07,0.56,0.12,1c0,0.29.09,0.53,0.12,0.7l0,0.26,2.62-.46,0-.24c0-.16-0.08-0.38-0.11-0.64l-0.11-.92-0.07-.52c0-.18,0-0.36,0-0.54l-0.08-1.06c0-.34,0-0.66,0-0.93l0-.91H48.34Z" transform="translate(-27.24 -67.86)"/><polygon class="cls-1" points="7.07 55.75 7.06 56.47 0 56.47 0.02 55.65 7.07 55.75"/><polygon class="cls-1" points="7.11 54.2 7.09 54.92 0.04 54.7 0.06 53.88 7.11 54.2"/><polygon class="cls-1" points="7.22 52.66 7.16 53.37 0.12 52.93 0.18 52.12 7.22 52.66"/><polygon class="cls-1" points="8.06 46.51 7.93 47.21 1 45.9 1.15 45.09 8.06 46.51"/><polygon class="cls-1" points="8.41 44.99 8.25 45.69 1.36 44.16 1.54 43.36 8.41 44.99"/><path class="cls-1" d="M36,111.35l-0.1.34-0.09.35L29,110.29l0.11-.4,0.11-.39Z" transform="translate(-27.24 -67.86)"/><polygon class="cls-1" points="9.22 41.99 9.02 42.69 2.24 40.72 2.47 39.93 9.22 41.99"/><polygon class="cls-1" points="9.7 40.52 9.47 41.2 2.76 39.02 3.02 38.24 9.7 40.52"/><path class="cls-1" d="M37.46,106.92l-0.13.33c-0.07.17-.12,0.34-0.12,0.34l-6.64-2.39s0.06-.2.14-0.39l0.15-.38Z" transform="translate(-27.24 -67.86)"/><polygon class="cls-1" points="11.41 36.19 11.12 36.84 4.64 34.03 4.98 33.29 11.41 36.19"/><path class="cls-1" d="M39.31,102.64l-0.16.32-0.15.33-6.38-3,0.17-.37L33,99.54Z" transform="translate(-27.24 -67.86)"/><polygon class="cls-1" points="12.77 33.4 12.45 34.03 6.16 30.83 6.54 30.1 12.77 33.4"/><polygon class="cls-1" points="13.52 32.04 13.17 32.66 6.99 29.25 7.39 28.54 13.52 32.04"/><path class="cls-1" d="M41.55,98.56s-0.1.15-.19,0.31l-0.18.31-6.07-3.6,0.21-.35c0.1-.18.21-0.35,0.21-0.35Z" transform="translate(-27.24 -67.86)"/><polygon class="cls-1" points="16.02 28.11 15.6 28.69 9.77 24.72 10.24 24.05 16.02 28.11"/><polygon class="cls-1" points="17.88 25.62 17.43 26.19 11.86 21.86 12.37 21.22 17.88 25.62"/><polygon class="cls-1" points="18.87 24.43 18.4 24.97 12.96 20.47 13.5 19.85 18.87 24.43"/><polygon class="cls-1" points="19.88 23.26 19.41 23.8 14.12 19.13 14.66 18.51 19.88 23.26"/><polygon class="cls-1" points="20.95 22.13 20.46 22.65 15.31 17.82 15.88 17.23 20.95 22.13"/><polygon class="cls-1" points="16.66 55.89 16.64 56.47 14.11 56.47 14.13 55.85 16.66 55.89"/><polygon class="cls-1" points="16.69 54.64 16.67 55.22 14.15 55.14 14.16 54.52 16.69 54.64"/><polygon class="cls-1" points="16.77 53.39 16.73 53.96 14.21 53.81 14.25 53.19 16.77 53.39"/><path class="cls-1" d="M44.12,120l0,0.29,0,0.29-2.52-.23,0-.31,0-.3Z" transform="translate(-27.24 -67.86)"/><polygon class="cls-1" points="17.23 49.66 17.13 50.23 14.63 49.84 14.74 49.23 17.23 49.66"/><polygon class="cls-1" points="17.45 48.43 17.35 49 14.87 48.53 14.97 47.92 17.45 48.43"/><polygon class="cls-1" points="17.73 47.21 17.6 47.78 15.14 47.23 15.28 46.63 17.73 47.21"/><polygon class="cls-1" points="18.77 43.61 18.59 44.16 16.18 43.38 16.38 42.8 18.77 43.61"/><path class="cls-1" d="M46.43,110.3l-0.11.27c-0.05.13-.1,0.27-0.1,0.27L43.85,110s0-.15.1-0.29l0.11-.29Z" transform="translate(-27.24 -67.86)"/><polygon class="cls-1" points="19.65 41.27 19.44 41.81 17.09 40.88 17.31 40.31 19.65 41.27"/><polygon class="cls-1" points="20.15 40.13 19.91 40.65 17.59 39.65 17.85 39.09 20.15 40.13"/><path class="cls-1" d="M47.92,106.86l-0.13.26-0.12.26-2.29-1.08,0.13-.28,0.14-.27Z" transform="translate(-27.24 -67.86)"/><path class="cls-1" d="M49.72,103.57s-0.08.12-.15,0.25l-0.14.25-2.17-1.29,0.15-.27c0.07-.13.16-0.26,0.16-0.26Z" transform="translate(-27.24 -67.86)"/><polygon class="cls-1" points="23.16 34.65 22.84 35.14 20.71 33.78 21.04 33.26 23.16 34.65"/><polygon class="cls-1" points="23.86 33.62 23.52 34.09 21.43 32.66 21.79 32.16 23.86 33.62"/><path class="cls-1" d="M51.83,100.46l-0.17.23-0.17.24-2-1.49,0.18-.25,0.18-.25Z" transform="translate(-27.24 -67.86)"/><polygon class="cls-1" points="25.36 31.61 25 32.07 23.01 30.52 23.39 30.03 25.36 31.61"/><polygon class="cls-1" points="26.98 29.7 26.6 30.14 24.7 28.47 25.11 28 26.98 29.7"/><path class="cls-1" d="M50.33,91l-1.1,1.15c-0.17.19-.37,0.38-0.57,0.61L48,93.47l-0.73.85-0.77,1a46.8,46.8,0,0,0-3.36,4.89,48.6,48.6,0,0,0-3.05,6.08A49.27,49.27,0,0,0,38,112.72c-0.24,1.06-.5,2.08-0.66,3.06L37,117.21l-0.17,1.34c-0.13.86-.17,1.66-0.23,2.36l-0.07,1,0,0.84,0,1.59H35.72l0-1.62,0-.85,0.08-1c0.05-.72.1-1.52,0.23-2.4l0.17-1.37,0.26-1.45c0.16-1,.42-2,0.67-3.11A50.06,50.06,0,0,1,39.37,106a49.37,49.37,0,0,1,3.1-6.18,47.59,47.59,0,0,1,3.41-5l0.78-1L47.42,93l0.66-.76c0.2-.24.41-0.43,0.58-0.62l1.12-1.17Z" transform="translate(-27.24 -67.86)"/><path class="cls-1" d="M46.42,124.33h0.79l0-.69,0-.71c0-.26,0-0.54,0-0.81l0.11-1.51,0.09-.68-0.78-.09-0.09.7-0.12,1.55c0,0.28,0,.56,0,0.83l0,0.72Z" transform="translate(-27.24 -67.86)"/><path class="cls-1" d="M57.34,98l-0.63.67c-0.2.22-.46,0.46-0.72,0.77l-0.9,1a38.64,38.64,0,0,0-4.14,6.07,38.25,38.25,0,0,0-2.86,6.76c-0.26,1-.52,1.76-0.63,2.34l-0.21.89L48,116.66l0.2-.88c0.11-.56.36-1.34,0.62-2.29a37.45,37.45,0,0,1,2.8-6.61,37.84,37.84,0,0,1,4.05-5.94l0.88-1c0.26-.3.51-0.54,0.71-0.75l0.62-.65Z" transform="translate(-27.24 -67.86)"/><path class="cls-1" d="M58.7,99.32L58,100c-0.42.41-.92,1-1.44,1.6-0.26.29-.49,0.61-0.72,0.9s-0.45.55-.61,0.79l-0.57.8,2.18,1.52,0.52-.74c0.15-.22.36-0.46,0.57-0.73s0.42-.56.66-0.83c0.48-.54.94-1.1,1.33-1.48l0.62-.66Z" transform="translate(-27.24 -67.86)"/><path class="cls-1" d="M48.34,124.33H51s0-.66,0-1.65L51.17,121l0.12-.94c0-.32.06-0.65,0.13-1,0.13-.64.21-1.3,0.37-1.89l0.2-.86c0.06-.28.15-0.53,0.21-0.77,0.14-.47.23-0.87,0.33-1.14l0.15-.43-2.52-.84-0.16.46c-0.11.29-.21,0.72-0.36,1.23-0.07.26-.17,0.53-0.23,0.83l-0.21.93c-0.17.64-.26,1.35-0.4,2-0.07.35-.1,0.7-0.15,1l-0.13,1-0.14,1.82Z" transform="translate(-27.24 -67.86)"/><polygon class="cls-1" points="22.05 21.03 21.53 21.53 16.54 16.54 17.13 15.97 22.05 21.03"/><polygon class="cls-1" points="23.17 19.96 22.65 20.46 17.82 15.31 18.41 14.75 23.17 19.96"/><polygon class="cls-1" points="24.34 18.94 23.8 19.41 19.13 14.12 19.75 13.59 24.34 18.94"/><path class="cls-1" d="M56.53,83.07l-0.3.19-0.3.2-4-5.83,0.34-.23,0.34-.22Z" transform="translate(-27.24 -67.86)"/><polygon class="cls-1" points="30.6 14.37 29.99 14.76 26.21 8.8 26.9 8.36 30.6 14.37"/><polygon class="cls-1" points="31.93 13.58 31.31 13.94 27.72 7.87 28.43 7.46 31.93 13.58"/><path class="cls-1" d="M60.53,80.69l-0.32.16L59.9,81,56.5,74.85l0.36-.2,0.36-.19Z" transform="translate(-27.24 -67.86)"/><polygon class="cls-1" points="34.67 12.12 34.03 12.45 30.83 6.16 31.56 5.79 34.67 12.12"/><polygon class="cls-1" points="36.08 11.46 35.43 11.76 32.42 5.38 33.16 5.04 36.08 11.46"/><polygon class="cls-1" points="38.95 10.27 38.28 10.53 35.68 3.97 36.44 3.67 38.95 10.27"/><polygon class="cls-1" points="40.41 9.74 39.73 9.97 37.34 3.33 38.11 3.07 40.41 9.74"/><path class="cls-1" d="M69.12,77.11l-0.11,0-0.23.08-0.34.11-2.18-6.71,0.39-.13,0.27-.09,0.12,0Z" transform="translate(-27.24 -67.86)"/><polygon class="cls-1" points="43.37 8.82 42.69 9.02 40.72 2.24 41.51 2.02 43.37 8.82"/><polygon class="cls-1" points="44.88 8.44 44.18 8.6 42.43 1.76 43.23 1.58 44.88 8.44"/><polygon class="cls-1" points="47.92 7.81 47.21 7.93 45.9 1 46.71 0.86 47.92 7.81"/><polygon class="cls-1" points="50.99 7.37 50.28 7.46 49.41 0.45 50.22 0.35 50.99 7.37"/><polygon class="cls-1" points="52.54 7.22 51.82 7.28 51.17 0.25 51.98 0.19 52.54 7.22"/><path class="cls-1" d="M81.33,75L81,75l-0.36,0-0.44-7,0.41,0,0.41,0Z" transform="translate(-27.24 -67.86)"/><polygon class="cls-1" points="55.63 7.08 54.92 7.09 54.7 0.04 55.52 0.02 55.63 7.08"/><polygon class="cls-1" points="28.73 27.91 28.31 28.31 26.52 26.52 26.96 26.09 28.73 27.91"/><polygon class="cls-1" points="29.63 27.04 29.21 27.44 27.48 25.6 27.93 25.18 29.63 27.04"/><polygon class="cls-1" points="30.57 26.22 30.14 26.6 28.47 24.7 28.93 24.3 30.57 26.22"/><path class="cls-1" d="M58.78,93.29l-0.23.18-0.23.18L56.71,91.7,57,91.5l0.24-.19Z" transform="translate(-27.24 -67.86)"/><polygon class="cls-1" points="33.54 23.92 33.07 24.25 31.58 22.21 32.08 21.85 33.54 23.92"/><path class="cls-1" d="M61.81,91.07l-0.24.16-0.24.16L59.9,89.3l0.25-.17L60.42,89Z" transform="translate(-27.24 -67.86)"/><polygon class="cls-1" points="35.62 22.53 35.14 22.84 33.78 20.71 34.3 20.38 35.62 22.53"/><polygon class="cls-1" points="38.91 20.72 38.39 20.98 37.24 18.73 37.79 18.45 38.91 20.72"/><polygon class="cls-1" points="40.04 20.19 39.51 20.43 38.44 18.14 38.99 17.89 40.04 20.19"/><path class="cls-1" d="M68.42,87.55l-0.27.11-0.26.12-1-2.32,0.28-.13,0.28-.12Z" transform="translate(-27.24 -67.86)"/><polygon class="cls-1" points="42.34 19.23 41.81 19.44 40.88 17.09 41.45 16.86 42.34 19.23"/><polygon class="cls-1" points="43.52 18.8 42.98 18.99 42.12 16.61 42.7 16.41 43.52 18.8"/><polygon class="cls-1" points="47.12 17.76 46.56 17.88 45.93 15.44 46.53 15.3 47.12 17.76"/><polygon class="cls-1" points="48.34 17.47 47.78 17.6 47.23 15.14 47.83 15 48.34 17.47"/><polygon class="cls-1" points="49.57 17.25 49 17.35 48.53 14.87 49.13 14.76 49.57 17.25"/><path class="cls-1" d="M78,84.91l-0.29,0-0.28,0-0.39-2.5,0.3,0,0.3,0Z" transform="translate(-27.24 -67.86)"/><polygon class="cls-1" points="52.04 16.89 51.47 16.96 51.16 14.46 51.77 14.38 52.04 16.89"/><path class="cls-1" d="M81.78,84.55l-0.29,0-0.29,0L81,82.07l0.31,0,0.31,0Z" transform="translate(-27.24 -67.86)"/><path class="cls-1" d="M83.71,77.13l-1.59,0-0.84,0-1,.07c-0.7.05-1.5,0.1-2.36,0.23l-1.34.17-1.43.25c-1,.15-2,0.42-3.06.66a49.28,49.28,0,0,0-6.46,2.15,48.6,48.6,0,0,0-6.08,3.05,46.83,46.83,0,0,0-4.89,3.36l-1,.77-0.85.73-0.75.65c-0.23.2-.43,0.4-0.61,0.57L50.33,91l-0.56-.56,1.17-1.12c0.19-.18.39-0.38,0.62-0.58L52.33,88l0.87-.75,1-.78a47.62,47.62,0,0,1,5-3.41A49.4,49.4,0,0,1,65.34,80a50.06,50.06,0,0,1,6.56-2.18C73,77.57,74,77.3,75,77.14l1.45-.26,1.37-.17c0.87-.13,1.68-0.18,2.4-0.23l1-.08,0.85,0,1.62,0v0.79Z" transform="translate(-27.24 -67.86)"/><path class="cls-1" d="M83.71,80.92l-1.47,0-0.77,0-0.91.07c-0.65,0-1.38.09-2.17,0.21l-1.24.16-1.31.23C74.94,81.79,74,82,73,82.25a45.49,45.49,0,0,0-5.93,2A44.8,44.8,0,0,0,61.51,87,43,43,0,0,0,57,90.12l-0.9.71-0.78.68-0.69.6c-0.21.18-.39,0.37-0.56,0.53l-1.06,1-1.88-1.88,1.12-1.07c0.18-.17.37-0.36,0.6-0.56l0.73-.63,0.83-.72,1-.75a45.67,45.67,0,0,1,4.77-3.28,47.45,47.45,0,0,1,5.93-3,48.14,48.14,0,0,1,6.3-2.09c1-.23,2-0.49,3-0.64l1.39-.25,1.31-.17c0.84-.12,1.62-0.17,2.3-0.22l1-.07,0.82,0,1.55,0v2.66Z" transform="translate(-27.24 -67.86)"/><path class="cls-1" d="M57.34,98l0.56,0.56L58.4,98c0.31-.28.68-0.68,1.11-1s0.83-.73,1.15-1l0.54-.43L60.72,95l-0.55.43c-0.33.26-.75,0.64-1.18,1s-0.82.77-1.14,1.05Z" transform="translate(-27.24 -67.86)"/><path class="cls-1" d="M83.71,87l-0.92,0-1.06,0-1.37.11a37.88,37.88,0,0,0-7.21,1.37,36.43,36.43,0,0,0-6.8,2.76c-0.45.22-.84,0.46-1.2,0.66s-0.67.37-.91,0.53l-0.77.5,0.43,0.66,0.76-.49c0.24-.16.55-0.32,0.89-0.52s0.73-.44,1.17-0.65a35.63,35.63,0,0,1,6.65-2.7A37.08,37.08,0,0,1,80.43,88l1.34-.1,1,0,0.9,0V87Z" transform="translate(-27.24 -67.86)"/><path class="cls-1" d="M83.71,89l-1,0c-0.29,0-.64,0-1,0l-1.15.09-0.58,0-0.56.07-1,.12c-0.29,0-.53.09-0.7,0.12l-0.26,0,0.46,2.62,0.24,0c0.16,0,.38-0.08.64-0.11l0.92-.11,0.52-.07,0.54,0,1.06-.08c0.34,0,.66,0,0.93,0l0.91,0V89Z" transform="translate(-27.24 -67.86)"/><path class="cls-1" d="M58.7,99.32l1.88,1.88,1.19-1.13c0.38-.32.8-0.71,1.28-1.1l0.75-.59,0.38-.3,0.4-.28,0.8-.57,0.8-.51c0.51-.35,1-0.62,1.44-0.87,0.21-.12.41-0.24,0.58-0.33l0.46-.23,0.4-.21L67.89,92.7l-0.43.22-0.5.25c-0.19.1-.4,0.23-0.63,0.36-0.46.27-1,.56-1.56,0.94L63.9,95,63,95.65,62.6,96l-0.42.33-0.81.63c-0.52.42-1,.84-1.38,1.19Z" transform="translate(-27.24 -67.86)"/><polygon class="cls-1" points="57.18 7.07 56.47 7.06 56.47 0 57.28 0.02 57.18 7.07"/><polygon class="cls-1" points="58.73 7.11 58.02 7.09 58.23 0.04 59.05 0.06 58.73 7.11"/><polygon class="cls-1" points="60.28 7.22 59.57 7.16 60 0.12 60.82 0.18 60.28 7.22"/><polygon class="cls-1" points="66.43 8.06 65.72 7.93 67.04 1 67.84 1.15 66.43 8.06"/><polygon class="cls-1" points="67.94 8.41 67.24 8.25 68.78 1.36 69.57 1.54 67.94 8.41"/><path class="cls-1" d="M96.69,76.66l-0.34-.1L96,76.46l1.75-6.84,0.4,0.11,0.39,0.11Z" transform="translate(-27.24 -67.86)"/><polygon class="cls-1" points="70.94 9.22 70.25 9.02 72.22 2.24 73 2.47 70.94 9.22"/><polygon class="cls-1" points="72.42 9.7 71.74 9.47 73.92 2.76 74.69 3.02 72.42 9.7"/><path class="cls-1" d="M101.12,78.09L100.79,78l-0.34-.12,2.39-6.64,0.39,0.14,0.38,0.15Z" transform="translate(-27.24 -67.86)"/><polygon class="cls-1" points="76.75 11.41 76.09 11.12 78.9 4.64 79.65 4.98 76.75 11.41"/><path class="cls-1" d="M105.4,79.93l-0.32-.16-0.33-.15,3-6.38,0.37,0.17,0.37,0.18Z" transform="translate(-27.24 -67.86)"/><polygon class="cls-1" points="79.54 12.77 78.9 12.45 82.11 6.16 82.84 6.54 79.54 12.77"/><polygon class="cls-1" points="80.9 13.52 80.28 13.17 83.68 6.99 84.39 7.39 80.9 13.52"/><path class="cls-1" d="M109.48,82.17L109.17,82l-0.31-.18,3.6-6.07,0.35,0.21,0.35,0.21Z" transform="translate(-27.24 -67.86)"/><polygon class="cls-1" points="84.83 16.02 84.24 15.6 88.22 9.77 88.88 10.24 84.83 16.02"/><polygon class="cls-1" points="87.31 17.88 86.75 17.43 91.08 11.86 91.72 12.37 87.31 17.88"/><polygon class="cls-1" points="88.51 18.87 87.97 18.4 92.47 12.96 93.09 13.5 88.51 18.87"/><polygon class="cls-1" points="89.68 19.88 89.14 19.41 93.81 14.12 94.42 14.66 89.68 19.88"/><polygon class="cls-1" points="90.8 20.95 90.28 20.46 95.12 15.31 95.71 15.88 90.8 20.95"/><polygon class="cls-1" points="57.05 16.66 56.47 16.64 56.47 14.11 57.08 14.13 57.05 16.66"/><polygon class="cls-1" points="58.3 16.69 57.72 16.67 57.8 14.15 58.41 14.16 58.3 16.69"/><polygon class="cls-1" points="59.55 16.77 58.97 16.73 59.13 14.21 59.74 14.25 59.55 16.77"/><path class="cls-1" d="M88,84.74l-0.29,0-0.29,0,0.24-2.52,0.31,0,0.3,0Z" transform="translate(-27.24 -67.86)"/><polygon class="cls-1" points="63.27 17.23 62.7 17.13 63.1 14.63 63.7 14.74 63.27 17.23"/><polygon class="cls-1" points="64.5 17.45 63.94 17.35 64.41 14.87 65.01 14.97 64.5 17.45"/><polygon class="cls-1" points="65.72 17.73 65.16 17.6 65.71 15.14 66.31 15.28 65.72 17.73"/><polygon class="cls-1" points="69.32 18.77 68.78 18.59 69.56 16.18 70.14 16.38 69.32 18.77"/><path class="cls-1" d="M97.74,87.06l-0.27-.11-0.27-.1,0.86-2.38,0.29,0.1,0.29,0.11Z" transform="translate(-27.24 -67.86)"/><polygon class="cls-1" points="71.66 19.65 71.13 19.44 72.06 17.09 72.63 17.31 71.66 19.65"/><polygon class="cls-1" points="72.81 20.15 72.28 19.91 73.29 17.59 73.85 17.85 72.81 20.15"/><path class="cls-1" d="M101.18,88.54l-0.26-.13-0.26-.12L101.74,86,102,86.13l0.27,0.14Z" transform="translate(-27.24 -67.86)"/><path class="cls-1" d="M104.47,90.34l-0.25-.15L104,90.05l1.29-2.17L105.53,88l0.26,0.16Z" transform="translate(-27.24 -67.86)"/><polygon class="cls-1" points="78.29 23.16 77.8 22.84 79.16 20.71 79.67 21.04 78.29 23.16"/><polygon class="cls-1" points="79.32 23.86 78.85 23.52 80.27 21.43 80.77 21.79 79.32 23.86"/><path class="cls-1" d="M107.58,92.45l-0.23-.17-0.24-.17,1.49-2,0.25,0.18,0.25,0.18Z" transform="translate(-27.24 -67.86)"/><polygon class="cls-1" points="81.32 25.36 80.87 25 82.42 23.01 82.9 23.39 81.32 25.36"/><polygon class="cls-1" points="83.23 26.98 82.8 26.6 84.47 24.7 84.93 25.11 83.23 26.98"/><path class="cls-1" d="M117.08,91l-1.15-1.1c-0.19-.17-0.38-0.37-0.61-0.57l-0.75-.65-0.85-.73-1-.77a46.82,46.82,0,0,0-4.89-3.36,48.6,48.6,0,0,0-6.08-3.05,49.29,49.29,0,0,0-6.46-2.15c-1.06-.24-2.08-0.5-3.06-0.66l-1.43-.25-1.34-.17c-0.86-.13-1.66-0.17-2.36-0.23l-1-.07-0.84,0-1.59,0V76.34l1.62,0,0.85,0,1,0.08c0.72,0.05,1.52.1,2.4,0.23l1.37,0.17,1.45,0.26c1,0.16,2,.42,3.11.67A50.06,50.06,0,0,1,102.08,80a49.4,49.4,0,0,1,6.18,3.1,47.61,47.61,0,0,1,5,3.41l1,0.78L115.09,88l0.76,0.66c0.24,0.2.43,0.41,0.62,0.58l1.17,1.12Z" transform="translate(-27.24 -67.86)"/><path class="cls-1" d="M114.4,93.64l-1.06-1c-0.17-.16-0.35-0.34-0.56-0.53l-0.69-.6-0.78-.68-0.9-.71a43,43,0,0,0-4.5-3.09,44.8,44.8,0,0,0-5.59-2.81,45.5,45.5,0,0,0-5.93-2c-1-.22-1.91-0.46-2.81-0.6l-1.31-.23L89,81.26c-0.79-.12-1.52-0.16-2.17-0.21L85.95,81l-0.77,0-1.47,0V78.27l1.55,0,0.82,0,1,0.07c0.69,0.05,1.46.1,2.3,0.22l1.31,0.17L92.05,79c1,0.15,2,.41,3,0.64a48.13,48.13,0,0,1,6.3,2.09,47.46,47.46,0,0,1,5.93,3A45.67,45.67,0,0,1,112,88l1,0.75,0.83,0.72,0.73,0.63c0.23,0.19.42,0.39,0.6,0.56l1.12,1.07Z" transform="translate(-27.24 -67.86)"/><path class="cls-1" d="M83.71,87v0.79l0.69,0,0.71,0c0.26,0,.54,0,0.81,0L87.43,88l0.68,0.09,0.09-.78-0.7-.09L86,87.12c-0.28,0-.56,0-0.83,0l-0.72,0Z" transform="translate(-27.24 -67.86)"/><path class="cls-1" d="M110.08,98l-0.67-.63c-0.22-.2-0.46-0.46-0.77-0.72l-1-.9a38.63,38.63,0,0,0-6.07-4.14,38.24,38.24,0,0,0-6.76-2.86c-1-.26-1.76-0.52-2.34-0.63l-0.89-.21-0.16.77,0.88,0.2c0.56,0.11,1.34.36,2.29,0.62a37.45,37.45,0,0,1,6.61,2.8,37.84,37.84,0,0,1,5.94,4.05l1,0.88c0.3,0.26.54,0.51,0.75,0.71l0.65,0.62Z" transform="translate(-27.24 -67.86)"/><path class="cls-1" d="M83.71,89v2.66l1.65,0L87,91.79,88,91.91c0.32,0,.65.06,1,0.13,0.64,0.13,1.3.21,1.89,0.37l0.86,0.2c0.28,0.06.53,0.15,0.76,0.21,0.47,0.14.87,0.23,1.14,0.33L94,93.3l0.84-2.52-0.46-.16c-0.29-.11-0.72-0.21-1.23-0.36-0.26-.07-0.53-0.17-0.83-0.23l-0.93-.21c-0.64-.17-1.35-0.26-2-0.4-0.35-.07-0.7-0.1-1-0.15l-1-.13L85.49,89Z" transform="translate(-27.24 -67.86)"/><polygon class="cls-1" points="91.9 22.05 91.41 21.53 96.4 16.54 96.96 17.13 91.9 22.05"/><polygon class="cls-1" points="92.97 23.17 92.48 22.65 97.62 17.82 98.18 18.41 92.97 23.17"/><polygon class="cls-1" points="93.99 24.34 93.52 23.8 98.81 19.13 99.35 19.75 93.99 24.34"/><path class="cls-1" d="M125,97.15l-0.19-.3c-0.09-.15-0.2-0.3-0.2-0.3l5.83-4s0.12,0.17.23,0.34l0.22,0.34Z" transform="translate(-27.24 -67.86)"/><polygon class="cls-1" points="98.56 30.6 98.18 29.99 104.13 26.21 104.57 26.9 98.56 30.6"/><polygon class="cls-1" points="99.35 31.93 98.99 31.31 105.06 27.72 105.47 28.43 99.35 31.93"/><path class="cls-1" d="M127.35,101.16l-0.16-.32-0.18-.31,6.18-3.4,0.2,0.36,0.19,0.36Z" transform="translate(-27.24 -67.86)"/><polygon class="cls-1" points="100.81 34.67 100.49 34.03 106.77 30.83 107.15 31.56 100.81 34.67"/><polygon class="cls-1" points="101.47 36.08 101.18 35.43 107.56 32.42 107.9 33.16 101.47 36.08"/><polygon class="cls-1" points="102.67 38.95 102.41 38.28 108.97 35.68 109.27 36.44 102.67 38.95"/><polygon class="cls-1" points="103.19 40.41 102.96 39.73 109.6 37.34 109.87 38.11 103.19 40.41"/><path class="cls-1" d="M130.93,109.74l0-.11-0.08-.23-0.11-.34,6.71-2.18,0.13,0.39,0.09,0.27,0,0.12Z" transform="translate(-27.24 -67.86)"/><polygon class="cls-1" points="104.11 43.37 103.92 42.69 110.69 40.72 110.92 41.51 104.11 43.37"/><polygon class="cls-1" points="104.5 44.88 104.34 44.18 111.17 42.43 111.36 43.23 104.5 44.88"/><polygon class="cls-1" points="105.13 47.92 105 47.21 111.93 45.9 112.08 46.71 105.13 47.92"/><polygon class="cls-1" points="105.57 50.99 105.48 50.28 112.48 49.41 112.58 50.22 105.57 50.99"/><polygon class="cls-1" points="105.71 52.54 105.66 51.82 112.68 51.17 112.75 51.98 105.71 52.54"/><path class="cls-1" d="M133.06,121.95s0-.18,0-0.36l0-.36,7-.44,0,0.41c0,0.2,0,.41,0,0.41Z" transform="translate(-27.24 -67.86)"/><polygon class="cls-1" points="105.86 55.63 105.84 54.92 112.89 54.7 112.92 55.52 105.86 55.63"/><polygon class="cls-1" points="85.03 28.73 84.63 28.31 86.42 26.52 86.84 26.96 85.03 28.73"/><polygon class="cls-1" points="85.89 29.63 85.49 29.21 87.33 27.48 87.76 27.93 85.89 29.63"/><polygon class="cls-1" points="86.71 30.57 86.34 30.14 88.23 28.47 88.63 28.93 86.71 30.57"/><path class="cls-1" d="M114.76,99.4l-0.18-.23-0.18-.23,1.95-1.61,0.19,0.24,0.19,0.24Z" transform="translate(-27.24 -67.86)"/><polygon class="cls-1" points="89.02 33.54 88.69 33.07 90.73 31.58 91.08 32.08 89.02 33.54"/><path class="cls-1" d="M117,102.43l-0.16-.24c-0.08-.12-0.16-0.24-0.16-0.24l2.09-1.42s0.09,0.12.17,0.25l0.17,0.26Z" transform="translate(-27.24 -67.86)"/><polygon class="cls-1" points="90.4 35.62 90.09 35.14 92.22 33.78 92.56 34.3 90.4 35.62"/><polygon class="cls-1" points="92.22 38.91 91.95 38.39 94.2 37.24 94.48 37.79 92.22 38.91"/><polygon class="cls-1" points="92.75 40.04 92.51 39.51 94.8 38.44 95.05 38.99 92.75 40.04"/><path class="cls-1" d="M120.49,109s0-.14-0.11-0.27l-0.12-.26,2.32-1,0.13,0.28c0.06,0.14.12,0.28,0.12,0.28Z" transform="translate(-27.24 -67.86)"/><polygon class="cls-1" points="93.71 42.34 93.5 41.81 95.85 40.88 96.07 41.45 93.71 42.34"/><polygon class="cls-1" points="94.13 43.52 93.95 42.98 96.33 42.12 96.52 42.7 94.13 43.52"/><polygon class="cls-1" points="95.18 47.12 95.05 46.56 97.5 45.93 97.64 46.53 95.18 47.12"/><polygon class="cls-1" points="95.46 48.34 95.33 47.78 97.8 47.23 97.94 47.83 95.46 48.34"/><polygon class="cls-1" points="95.69 49.57 95.58 49 98.07 48.53 98.18 49.13 95.69 49.57"/><path class="cls-1" d="M123.13,118.67l0-.29a2.86,2.86,0,0,0,0-.29l2.5-.39s0,0.15,0,.3l0,0.3Z" transform="translate(-27.24 -67.86)"/><polygon class="cls-1" points="96.04 52.04 95.97 51.47 98.48 51.16 98.56 51.77 96.04 52.04"/><path class="cls-1" d="M123.49,122.4s0-.14,0-0.29l0-.29,2.52-.16,0,0.31c0,0.15,0,.31,0,0.31Z" transform="translate(-27.24 -67.86)"/><path class="cls-1" d="M130.91,124.33l0-1.59,0-.84-0.07-1c-0.05-.7-0.1-1.5-0.23-2.36l-0.17-1.34-0.25-1.43c-0.15-1-.42-2-0.66-3.06a49.26,49.26,0,0,0-2.15-6.46,48.59,48.59,0,0,0-3.05-6.08,46.83,46.83,0,0,0-3.36-4.89l-0.77-1-0.73-.85-0.65-.75c-0.2-.23-0.4-0.43-0.57-0.61L117.08,91l0.56-.56,1.12,1.17c0.18,0.19.38,0.39,0.58,0.62L120,93l0.75,0.86,0.78,1a47.61,47.61,0,0,1,3.41,5A49.39,49.39,0,0,1,128,106a50.06,50.06,0,0,1,2.18,6.56c0.24,1.08.51,2.11,0.67,3.11l0.25,1.45,0.17,1.37c0.13,0.87.18,1.68,0.23,2.4l0.08,1,0,0.85,0,1.62h-0.79Z" transform="translate(-27.24 -67.86)"/><path class="cls-1" d="M127.12,124.33l0-1.47,0-.77-0.07-.91c0-.65-0.09-1.38-0.21-2.17l-0.16-1.24-0.23-1.31c-0.14-.91-0.39-1.84-0.6-2.81a45.47,45.47,0,0,0-2-5.93,44.82,44.82,0,0,0-2.81-5.59,43,43,0,0,0-3.09-4.5l-0.71-.9L116.54,96l-0.6-.69c-0.18-.21-0.37-0.39-0.53-0.56l-1-1.06,1.88-1.88,1.07,1.12c0.17,0.18.37,0.37,0.56,0.6l0.63,0.73L119.26,95,120,96a45.68,45.68,0,0,1,3.28,4.77,47.48,47.48,0,0,1,3,5.93,48.16,48.16,0,0,1,2.09,6.3c0.23,1,.49,2,0.64,3l0.25,1.39,0.17,1.31c0.12,0.84.17,1.62,0.22,2.3l0.07,1,0,0.82,0,1.55h-2.66Z" transform="translate(-27.24 -67.86)"/><path class="cls-1" d="M110.08,98l-0.56.56L110,99c0.28,0.31.68,0.68,1,1.11s0.73,0.83,1,1.15l0.43,0.54,0.62-.49-0.43-.55c-0.26-.33-0.64-0.75-1-1.18s-0.77-.82-1.05-1.14Z" transform="translate(-27.24 -67.86)"/><path class="cls-1" d="M121,124.33l0-.92,0-1.06L120.84,121a37.87,37.87,0,0,0-1.37-7.21,36.43,36.43,0,0,0-2.76-6.8c-0.22-.45-0.46-0.84-0.66-1.2s-0.37-.67-0.53-0.91l-0.5-.77-0.66.43,0.49,0.76c0.16,0.24.32,0.55,0.52,0.89s0.44,0.73.65,1.17a35.64,35.64,0,0,1,2.7,6.65,37.08,37.08,0,0,1,1.34,7.06l0.1,1.34,0,1,0,0.9H121Z" transform="translate(-27.24 -67.86)"/><path class="cls-1" d="M119.08,124.33l0-1c0-.29,0-0.64,0-1l-0.09-1.15c0-.19,0-0.39,0-0.58l-0.07-.56-0.12-1c0-.29-0.09-0.53-0.12-0.7l0-.26-2.62.46,0,0.24c0,0.16.08,0.38,0.11,0.64l0.11,0.92,0.07,0.52c0,0.18,0,.36,0,0.54l0.08,1.06c0,0.34,0,.66,0,0.93l0,0.91h2.66Z" transform="translate(-27.24 -67.86)"/></svg>