<svg preserveAspectRatio="none" id="Layer_1" data-name="Layer 1" xmlns="http://www.w3.org/2000/svg" viewBox="0 0 19.62 19.62"><defs><style>.cls-1{fill:#00b3ea}.cls-3{fill:#065977}</style></defs><path class="cls-1" d="M8.89 2.86h1.84v1.51H8.89z"/><path class="cls-1" transform="rotate(-45 -256.78 337.702)" d="M169.03 293.43h1.51v1.84h-1.51z"/><path class="cls-1" d="M15.24 8.89h1.51v1.84h-1.51z"/><path class="cls-1" transform="rotate(-45 -256.753 346.48)" d="M168.87 302.34h1.84v1.51h-1.84z"/><path class="cls-1" d="M8.89 15.24h1.84v1.51H8.89z"/><path class="cls-1" transform="rotate(-45 -265.53 346.466)" d="M160.28 302.18h1.51v1.84h-1.51z"/><path class="cls-1" d="M2.86 8.89h1.51v1.84H2.86z"/><path class="cls-1" transform="rotate(-45 -265.493 337.74)" d="M160.11 293.59h1.84v1.51h-1.84z"/><path class="cls-1" transform="rotate(-67.3 -127.033 265.42)" d="M167.04 292.09h1.51v1.84h-1.51z"/><path class="cls-1" transform="rotate(-22.29 -639.879 546.846)" d="M170.38 295.45h1.51v1.84h-1.51z"/><path class="cls-1" transform="rotate(-67.3 -123.694 273.528)" d="M170.2 300.35h1.84v1.51h-1.84z"/><path class="cls-1" transform="rotate(-22.3 -642.947 554.751)" d="M166.84 303.69h1.84v1.51h-1.84z"/><path class="cls-1" transform="rotate(-67.3 -131.785 276.858)" d="M162.26 303.51h1.51v1.84h-1.51z"/><path class="cls-1" transform="rotate(-22.3 -651.05 551.336)" d="M158.93 300.15h1.51v1.84h-1.51z"/><path class="cls-1" transform="rotate(-67.3 -135.124 268.749)" d="M158.78 295.58h1.84v1.51h-1.84z"/><path class="cls-1" transform="rotate(-22.3 -647.664 543.254)" d="M162.14 292.24h1.84v1.51h-1.84z"/><circle cx="9.81" cy="9.81" r=".95" fill="#feb113"/><path class="cls-1" d="M165.41 303.45a4.73 4.73 0 114.73-4.73 4.74 4.74 0 01-4.73 4.73zm0-9.32a4.59 4.59 0 104.59 4.59 4.59 4.59 0 00-4.59-4.59z" transform="translate(-155.6 -288.91)"/><path class="cls-3" d="M169.57 305.49l.12-.08.34-.23a7.88 7.88 0 001.11-1 8.14 8.14 0 00.63-.74 8.46 8.46 0 00.59-.92 8.1 8.1 0 00.49-1.06 8.35 8.35 0 00.34-1.16 8.64 8.64 0 00.16-1.19 8.47 8.47 0 000-1.17 8.05 8.05 0 00-.45-2 8 8 0 00-.63-1.32l-.22-.35-.08-.12.7-.49.09.13c.06.09.14.22.24.38a8.81 8.81 0 01.7 1.46 8.91 8.91 0 01.5 2.23 9.28 9.28 0 010 1.29 9.44 9.44 0 01-.17 1.32 9.22 9.22 0 01-.37 1.28 9 9 0 01-.54 1.17 9.32 9.32 0 01-.66 1 9 9 0 01-.7.82 8.72 8.72 0 01-1.22 1.06l-.38.25-.14.09zM168.93 291.59s-.18-.09-.51-.23a7.83 7.83 0 00-1.4-.43 8.25 8.25 0 00-2.06-.15 7.85 7.85 0 00-2.31.48 8 8 0 00-2.07 1.14 7.87 7.87 0 00-1.46 1.46 7.74 7.74 0 00-.78 1.23c-.08.16-.14.28-.18.37l-.06.13-.78-.33.07-.15c0-.1.1-.24.2-.41a8.61 8.61 0 01.87-1.37 8.83 8.83 0 013.91-2.88 8.7 8.7 0 012.56-.53 9.1 9.1 0 012.28.17 8.67 8.67 0 011.55.47c.36.15.56.25.56.25zM157.46 298.72V299.28a7.7 7.7 0 00.23 1.44 8 8 0 00.78 1.91 7.58 7.58 0 00.65 1 7.49 7.49 0 00.81.89 7.93 7.93 0 003.89 2 7.82 7.82 0 001.45.15h.56v.85h-.61a8.7 8.7 0 01-1.61-.17 8.78 8.78 0 01-4.31-2.24 8.33 8.33 0 01-.9-1 8.43 8.43 0 01-.72-1.07 8.83 8.83 0 01-.86-2.12 8.56 8.56 0 01-.26-1.6v-.61h.85zM166.6 306.58h.37l.38-.09.43-.12.42-.15.36-.15.25-.11h.09l.37.76-.1.05-.28.13-.4.16-.47.16-.47.13-.42.09-.3.05h-.11zM171.48 293.59a8 8 0 00-.85-.86l-.17-.15-.17-.14-.31-.23-.23-.15-.09-.06.46-.72.1.06.25.17.35.26.19.15.19.16a8.9 8.9 0 01.94 1z" transform="translate(-155.6 -288.91)"/><path class="cls-3" d="M157.83 296.33v.1l-.08.26c0 .11-.06.24-.09.38s-.05.29-.08.44 0 .3-.05.44 0 .27 0 .39v.38h-.85v-.42-.43c0-.16 0-.32.06-.49s.06-.33.09-.48.07-.3.1-.42l.08-.29v-.11z" transform="translate(-155.6 -288.91)"/><path class="cls-1" d="M155.86 301a.59.59 0 00-.09.27 2.14 2.14 0 000 .42 4.67 4.67 0 00.11.55 6.27 6.27 0 00.22.66 9.9 9.9 0 005.22 5.18 4.82 4.82 0 001.22.32 1 1 0 00.69-.09 9 9 0 001 .18h2.28l.38-.05.33-.06h.32a1 1 0 00.69.09 4.82 4.82 0 001.22-.32 9.9 9.9 0 005.22-5.18 6.28 6.28 0 00.22-.66 4.68 4.68 0 00.11-.55 2.14 2.14 0 000-.42.59.59 0 000-.34 9.15 9.15 0 00.2-1.12v-.41V298.4v-.36-.41a9.13 9.13 0 00-.2-1.12.58.58 0 00.09-.27 2.15 2.15 0 000-.42 4.72 4.72 0 00-.11-.55 6.31 6.31 0 00-.22-.66 9.9 9.9 0 00-5.22-5.18 4.83 4.83 0 00-1.22-.32 1 1 0 00-.69.09 9 9 0 00-1-.18H163.89l-.33.06h-.32a1 1 0 00-.69-.09 4.84 4.84 0 00-1.22.32 9.9 9.9 0 00-5.22 5.18 6.27 6.27 0 00-.22.66 4.67 4.67 0 00-.11.55 2.15 2.15 0 000 .42.58.58 0 00.09.27 9.12 9.12 0 00-.2 1.12v1.12h.5v-.16-.46a9 9 0 01.25-1.63 9.35 9.35 0 01.84-2.17 9.39 9.39 0 011.59-2.14 10.16 10.16 0 011-.89 10 10 0 011.1-.71 9.5 9.5 0 012.16-.86 9 9 0 011.62-.26h1.4a9 9 0 011.62.26 9.51 9.51 0 012.16.86 10 10 0 011.1.71 10.17 10.17 0 011 .89 9.39 9.39 0 011.59 2.14 9.34 9.34 0 01.84 2.17 9 9 0 01.25 1.63v1.25a9 9 0 01-.25 1.63 9.34 9.34 0 01-.84 2.17 9.33 9.33 0 01-3.71 3.74 9.52 9.52 0 01-2.16.86 9 9 0 01-1.62.26h-1.4a9 9 0 01-1.62-.26 9.51 9.51 0 01-2.16-.86 10 10 0 01-1.1-.71 10.15 10.15 0 01-1-.89 9.38 9.38 0 01-1.59-2.14 9.35 9.35 0 01-.84-2.17 9 9 0 01-.25-1.63v-.62h-.5V299.76a9.14 9.14 0 00.21 1.24z" transform="translate(-155.6 -288.91)"/><path class="cls-1" d="M10.99 8.74l-.11-.12 1.44-1.44.32.33-.94.52-.71.71zM10.88 10.99l.11-.11 1.45 1.44-.33.32-.53-.94-.7-.71zM8.62 10.88l.12.11-1.44 1.45-.33-.33.95-.53.7-.7zM8.74 8.62l-.12.12L7.18 7.3l.33-.33.52.95.71.7z"/></svg>