<svg preserveAspectRatio="none" id="Layer_1" data-name="Layer 1" xmlns="http://www.w3.org/2000/svg" viewBox="0 0 165.88 165.88"><defs><style>.cls-1{fill:#065876}.cls-2{fill:#08b3ea}</style></defs><path class="cls-1" d="M95.39 10.62l-1.46-.16.65-9.61 2.18.23-1.37 9.54zM102.89 12.32l-1.45-.31 1.65-9.49 2.15.46-2.35 9.34zM110.16 14.79l-1.4-.46 2.63-9.26 2.09.68-3.32 9.04zM117.14 18.01l-1.35-.6 3.58-8.94 2.01.89-4.24 8.65zM123.73 21.94l-1.27-.74 4.5-8.52 1.9 1.1-5.13 8.16zM129.89 26.54l-1.2-.87 5.37-8 1.78 1.29-5.95 7.58zM135.53 31.75l-1.1-.99 6.17-7.39 1.64 1.47-6.71 6.91zM140.59 37.53l-.99-1.1 6.91-6.7 1.47 1.63-7.39 6.17zM145.02 43.8l-.87-1.19 7.58-5.95 1.29 1.78-8 5.36zM148.77 50.51l-.74-1.28 8.16-5.13 1.1 1.91-8.52 4.5zM151.8 57.56l-.6-1.34 8.65-4.25.89 2.01-8.94 3.58zM154.08 64.9l-.46-1.4 9.04-3.32.68 2.09-9.26 2.63zM155.57 72.44l-.31-1.45 9.34-2.35.46 2.15-9.49 1.65zM156.12 78.62l.15 1.47 9.61-.65-.23-2.19-9.53 1.37zM156.17 86.29v1.48l9.62.36v-2.2l-9.62.36zM155.26 95.39l.16-1.46 9.61.64-.24 2.19-9.53-1.37zM153.56 102.89l.31-1.45 9.49 1.65-.46 2.15-9.34-2.35zM151.09 110.16l.46-1.4 9.26 2.63-.68 2.09-9.04-3.32zM147.87 117.14l.6-1.36 8.94 3.59-.89 2.01-8.65-4.24zM143.94 123.73l.74-1.28 8.52 4.5-1.1 1.91-8.16-5.13zM139.34 129.89l.87-1.2 8 5.37-1.29 1.78-7.58-5.95zM134.13 135.53l.99-1.1 7.39 6.17-1.47 1.63-6.91-6.7zM128.35 140.59l1.1-.99 6.71 6.91-1.64 1.47-6.17-7.39zM122.08 145.02l1.19-.87 5.95 7.58-1.78 1.29-5.36-8zM115.37 148.77l1.28-.74 5.13 8.16-1.91 1.1-4.5-8.52zM108.31 151.8l1.35-.6 4.25 8.64-2.01.9-3.59-8.94zM100.98 154.08l1.4-.46 3.32 9.04-2.09.68-2.63-9.26zM93.44 155.57l1.45-.31 2.35 9.34-2.15.46-1.65-9.49zM85.79 156.27l.65 9.61 2.19-.23-1.37-9.53-1.47.15zM78.11 156.17l-.36 9.62h2.2l-.36-9.62h-1.48zM70.48 155.26l1.47.16-.64 9.6-2.19-.23 1.36-9.53zM62.99 153.56l1.45.31-1.65 9.49-2.15-.46 2.35-9.34zM55.72 151.09l1.4.46-2.63 9.26-2.09-.68 3.32-9.04zM48.75 147.87l1.35.6-3.59 8.94-2.01-.89 4.25-8.65zM42.15 143.94l1.27.74-4.49 8.52-1.91-1.1 5.13-8.16zM35.99 139.34l1.2.87-5.37 8-1.78-1.29 5.95-7.58zM30.35 134.13l1.1.99-6.17 7.39-1.64-1.47 6.71-6.91zM25.29 128.35l.99 1.1-6.91 6.71-1.47-1.64 7.39-6.17zM20.86 122.08l.87 1.19-7.58 5.95-1.29-1.78 8-5.36zM17.11 115.37l.74 1.28-8.16 5.13-1.1-1.91 8.52-4.5zM14.08 108.31l.6 1.35-8.64 4.25-.9-2.01 8.94-3.59zM11.81 100.98l.45 1.4-9.04 3.32-.68-2.09 9.27-2.63zM10.31 93.44l.31 1.45-9.34 2.35-.46-2.15 9.49-1.65zM0 86.44l.23 2.19 9.54-1.37-.16-1.47-9.61.65zM.09 79.95l9.62-.36v-1.48l-9.62-.36v2.2zM10.62 70.48l-.16 1.47-9.6-.65.23-2.18 9.53 1.36zM12.32 62.99l-.31 1.45-9.49-1.65.46-2.15 9.34 2.35zM14.79 55.72l-.46 1.4-9.26-2.63.68-2.09 9.04 3.32zM18.01 48.74l-.6 1.35-8.94-3.58.89-2.01 8.65 4.24zM21.94 42.15l-.74 1.27-8.52-4.5 1.1-1.9 8.16 5.13zM26.54 35.99l-.87 1.2-8-5.37 1.29-1.78 7.58 5.95zM31.75 30.35l-.98 1.1-7.4-6.17 1.47-1.64 6.91 6.71zM37.53 25.29l-1.1.99-6.7-6.91 1.63-1.47 6.17 7.39zM43.8 20.86l-1.19.87-5.95-7.58 1.78-1.29 5.36 8zM50.51 17.11l-1.28.74-5.13-8.16 1.91-1.1 4.5 8.52zM57.57 14.08l-1.35.6-4.25-8.65 2.01-.89 3.59 8.94zM64.9 11.8l-1.4.46-3.32-9.04 2.09-.68 2.63 9.26zM72.44 10.31l-1.45.31-2.35-9.34 2.15-.46 1.65 9.49zM79.44 0l-2.19.23 1.37 9.53 1.47-.15L79.44 0zM85.93.09l.36 9.62h1.48l.36-9.62h-2.2z"/><circle class="cls-1" cx="81.99" cy="82.94" r="68.71"/><path class="cls-2" d="M1028.69 942.59a63.75 63.75 0 1063.75 63.75 63.75 63.75 0 00-63.75-63.75zm0 126a62.26 62.26 0 1162.26-62.26 62.26 62.26 0 01-62.26 62.26z" transform="translate(-946.7 -923.39)"/><path class="cls-2" d="M1028.69 1006.33l17.4-60.19a62.65 62.65 0 0145.25 60.19h-62.65z" transform="translate(-946.7 -923.39)"/></svg>