<svg preserveAspectRatio="none" id="_1" data-name="1" xmlns="http://www.w3.org/2000/svg" viewBox="0 0 87.23 86.92"><defs><linearGradient id="铃琨眄_沭噤桢眚_111" x1="38.12" y1="55.15" x2="102.46" y2="55.15" gradientUnits="userSpaceOnUse"><stop offset="0" stop-color="#3a939d"/><stop offset=".62" stop-color="#4fe3d7"/><stop offset="1" stop-color="#86fafa"/></linearGradient><style>.cls-1{fill:#207398}.cls-2{fill:#35a3c7}.cls-3{fill:#4fe3d7}.cls-4{fill:#53cfec}.cls-5{fill:#8fffff}.cls-6{fill:#8ff}.cls-7{fill:#bdffff}.cls-8{fill:#6ffef4}.cls-10{fill:azure}.cls-11{fill:#43c9c2}.cls-12{fill:#3ca5b4}</style></defs><path class="cls-1" d="M99 75.64a36.61 36.61 0 01-36.56 35.68q-1.22 0-2.42-.08l2.42-36.49zM41.33 44.89l21.08 29.87-35.6-8.36a36.67 36.67 0 0114.52-21.51z" transform="translate(-18.64 -31.29)"/><path class="cls-1" d="M29.94 91.57l32.47-16.81-15.87 32.94a36.82 36.82 0 01-16.6-16.13z" transform="translate(-18.64 -31.29)"/><path class="cls-2" d="M49.64 105a32.9 32.9 0 1112.77 2.58A32.69 32.69 0 0149.64 105zM32.47 74.76a29.94 29.94 0 1029.94-29.94 30 30 0 00-29.94 29.94z" transform="translate(-18.64 -31.29)"/><path class="cls-3" d="M46.25 51.82l-.25-.4a28.25 28.25 0 0113.46-5.05v.48a27.91 27.91 0 00-13.21 4.97zM62.41 46.68q-1 0-2.06.08v-.48q1-.08 2.1-.08a29 29 0 013.46.21l-.07.48a28.22 28.22 0 00-3.43-.21zM39.34 90.73l-.4.29A28.25 28.25 0 0134 77.82h.48a27.9 27.9 0 004.86 12.91z" transform="translate(-18.64 -31.29)"/><path class="cls-4" d="M37.6 61.63l-.44-.22a28.64 28.64 0 015.06-6.84 29 29 0 013-2.62l.29.4a28.27 28.27 0 00-7.91 9.28zM90.48 74.76c0-.63 0-1.25-.06-1.87h.48c0 .63.06 1.27.06 1.91a29 29 0 01-.2 3.38l-.47-.07a28.23 28.23 0 00.19-3.35z" transform="translate(-18.64 -31.29)"/><path class="cls-3" d="M87.2 87.91l.44.22a28.65 28.65 0 01-5 6.8 29 29 0 01-3.08 2.67l-.29-.4a28.27 28.27 0 007.93-9.29z" transform="translate(-18.64 -31.29)"/><path class="cls-4" d="M78.5 97.74l.29.4a28.26 28.26 0 01-13.51 5v-.48a27.9 27.9 0 0013.22-4.92z" transform="translate(-18.64 -31.29)"/><path class="cls-3" d="M34.7 70.26l-.48-.07a28.24 28.24 0 012.53-8l.44.22a27.84 27.84 0 00-2.49 7.85zM62.41 102.83c.65 0 1.3 0 1.94-.07v.48q-1 .07-2 .07a29 29 0 01-3.59-.22l.07-.47a28.22 28.22 0 003.58.21zM85.43 58.71l.4-.29a28.25 28.25 0 015 13.24h-.48a27.9 27.9 0 00-4.92-12.95z" transform="translate(-18.64 -31.29)"/><path class="cls-4" d="M34.34 74.76c0 .62 0 1.23.06 1.84h-.48c0-.62-.06-1.25-.06-1.88a29 29 0 01.2-3.39l.47.07a28.24 28.24 0 00-.19 3.36z" transform="translate(-18.64 -31.29)"/><path class="cls-3" d="M58 102.48l-.07.48a28.25 28.25 0 01-8-2.51l.22-.44a27.84 27.84 0 007.85 2.47zM90.12 79.25l.48.07a28.24 28.24 0 01-2.55 8l-.44-.22a27.84 27.84 0 002.51-7.85z" transform="translate(-18.64 -31.29)"/><path class="cls-4" d="M66.7 47l.07-.47a28.26 28.26 0 018 2.48l-.22.44A27.84 27.84 0 0066.7 47zM49.09 99.46l-.22.44a28.66 28.66 0 01-6.64-5 29 29 0 01-2.59-3l.4-.29a28.27 28.27 0 009.05 7.85z" transform="translate(-18.64 -31.29)"/><path class="cls-3" d="M75.62 50l.23-.44a28.65 28.65 0 016.75 5 29 29 0 012.53 2.89l-.4.29A28.27 28.27 0 0075.62 50z" transform="translate(-18.64 -31.29)"/><path class="cls-5" d="M62.41 78.57a3.81 3.81 0 113.81-3.81 3.81 3.81 0 01-3.81 3.81zm0-7a3.2 3.2 0 103.2 3.2 3.2 3.2 0 00-3.2-3.21z" transform="translate(-18.64 -31.29)"/><path class="cls-6" d="M47.63 64.33l-2.35-1.66a21.21 21.21 0 012.31-2.74q.56-.56 1.15-1.07L50.62 61a18.24 18.24 0 00-2.99 3.33z" transform="translate(-18.64 -31.29)"/><path class="cls-7" d="M71.89 90.16l1.51 2.44a20.76 20.76 0 01-9.37 3l-.22-2.85a18 18 0 008.08-2.59z" transform="translate(-18.64 -31.29)"/><path class="cls-3" d="M60.62 92.76l-.28 2.85A20.83 20.83 0 0155 94.36l1-2.69a18 18 0 004.62 1.09z" transform="translate(-18.64 -31.29)"/><path class="cls-6" d="M62.41 92.85q.7 0 1.4-.05l.19 2.85q-.8.06-1.62.06-1 0-2.08-.1l.28-2.85q.92.09 1.83.09zM79.29 81.26l2.68 1A20.74 20.74 0 0179.43 87l-2.33-1.7a18.08 18.08 0 002.19-4.04zM76 86.63l2.16 1.88q-.47.54-1 1.06a21.12 21.12 0 01-3.83 3l-1.51-2.45A18.23 18.23 0 0076 86.63z" transform="translate(-18.64 -31.29)"/><path class="cls-7" d="M47 84.25l-2.45 1.51a20.72 20.72 0 01-1.07-2l2.59-1.24a18.05 18.05 0 00.93 1.73z" transform="translate(-18.64 -31.29)"/><path class="cls-6" d="M54.68 91.11l-1.23 2.6A20.85 20.85 0 0149 90.88l1.83-2.21a18.15 18.15 0 003.85 2.44z" transform="translate(-18.64 -31.29)"/><path class="cls-3" d="M44.32 74.76v1l-2.86.16v-1.16a21 21 0 011-6.31l2.74.86a18 18 0 00-.88 5.45z" transform="translate(-18.64 -31.29)"/><path class="cls-6" d="M49.56 87.48l-2 2a21.11 21.11 0 01-3-3.75L47 84.25a18.21 18.21 0 002.56 3.23z" transform="translate(-18.64 -31.29)"/><path class="cls-3" d="M80.5 74.76c0-.54 0-1.07-.07-1.6l2.85-.25c.05.61.08 1.23.08 1.85A21 21 0 0182 82.29l-2.68-1a18 18 0 001.18-6.53z" transform="translate(-18.64 -31.29)"/><path class="cls-7" d="M62.41 56.66c-.53 0-1.05 0-1.57.07l-.25-2.85c.6-.05 1.21-.08 1.82-.08a20.91 20.91 0 018.18 1.65l-1.12 2.65a18 18 0 00-7.06-1.44z" transform="translate(-18.64 -31.29)"/><path class="cls-6" d="M45.16 69.31l-2.74-.86a20.69 20.69 0 012.14-4.67l2.44 1.5a18 18 0 00-1.84 4.03z" transform="translate(-18.64 -31.29)"/><path class="cls-7" d="M50.62 61l-1.87-2.18A20.89 20.89 0 0153.08 56l1.28 2.57A18.16 18.16 0 0050.62 61z" transform="translate(-18.64 -31.29)"/><path class="cls-6" d="M78.25 66l2.52-1.39a20.72 20.72 0 012.36 7L80.3 72a18 18 0 00-2.05-6zM69.47 58.1l1.12-2.64a20.86 20.86 0 015.81 3.7l-1.92 2.14a18.14 18.14 0 00-5.01-3.2z" transform="translate(-18.64 -31.29)"/><path class="cls-7" d="M80.3 72l2.83-.43q.1.66.16 1.33l-2.85.25c-.04-.37-.09-.76-.14-1.15z" transform="translate(-18.64 -31.29)"/><path class="cls-3" d="M74.48 61.29l1.92-2.14q.42.38.83.79A21.16 21.16 0 0180 63.29l-2.4 1.57a18.24 18.24 0 00-3.12-3.57z" transform="translate(-18.64 -31.29)"/><path class="cls-6" d="M62.41 98.85c.54 0 1.08 0 1.61-.06l.19 2.85c-.6 0-1.2.06-1.8.06a27.07 27.07 0 01-7.58-1.08l.81-2.75a24 24 0 006.77.98z" transform="translate(-18.64 -31.29)"/><path class="cls-5" d="M69.48 97.79l.84 2.75a26.93 26.93 0 01-6.11 1.11L64 98.8a24 24 0 005.48-1.01z" transform="translate(-18.64 -31.29)"/><path class="cls-8" d="M79.49 91.74l2 2-.05.05a27.06 27.06 0 01-6.26 4.68L73.85 96a24.24 24.24 0 005.64-4.26z" transform="translate(-18.64 -31.29)"/><path class="cls-5" d="M82.29 88.36L84.66 90a27.25 27.25 0 01-3.13 3.78l-2-2a24.29 24.29 0 002.76-3.42z" transform="translate(-18.64 -31.29)"/><path class="cls-6" d="M84.88 83.47l2.68 1a26.67 26.67 0 01-2.9 5.53l-2.37-1.62a24.06 24.06 0 002.59-4.91z" transform="translate(-18.64 -31.29)"/><path class="cls-5" d="M38.67 70.63a24.15 24.15 0 00-.35 4.12h-2.87a27.29 27.29 0 01.39-4.61z" transform="translate(-18.64 -31.29)"/><path class="cls-6" d="M38.31 74.76a24.26 24.26 0 00.15 2.65l-2.84.31a27.41 27.41 0 01-.16-3h2.86z" transform="translate(-18.64 -31.29)"/><path class="cls-8" d="M50.71 95.82l-1.4 2.52a27.08 27.08 0 01-6-4.51l-.45-.46 2.08-2a24.25 24.25 0 005.77 4.45z" transform="translate(-18.64 -31.29)"/><path class="cls-5" d="M45 91.37l-2.08 2A26.93 26.93 0 0138 86.22L40.6 85a24.2 24.2 0 004.4 6.37z" transform="translate(-18.64 -31.29)"/><path class="cls-8" d="M40.6 85L38 86.22a26.73 26.73 0 01-2.38-8.5l2.84-.31A23.9 23.9 0 0040.6 85zM81.28 59.79L83.53 58a26.7 26.7 0 014.67 8.88l-2.75.84a24.06 24.06 0 00-4.17-7.93z" transform="translate(-18.64 -31.29)"/><path class="cls-6" d="M86.51 74.76a24 24 0 00-1-7l2.75-.84a27.27 27.27 0 01.68 13l-2.81-.54a24.12 24.12 0 00.38-4.62z" transform="translate(-18.64 -31.29)"/><path class="cls-8" d="M42.27 61.54L39.86 60a27.21 27.21 0 013.49-4.27l.46-.44 2 2.08a24.29 24.29 0 00-3.54 4.17z" transform="translate(-18.64 -31.29)"/><path class="cls-6" d="M40 65.86l-2.66-1.06a26.66 26.66 0 012.52-4.8l2.41 1.58A24.06 24.06 0 0040 65.86zM56.1 51.5l-.75-2.77a27 27 0 015.76-.9l.14 2.86a24 24 0 00-5.15.81z" transform="translate(-18.64 -31.29)"/><path class="cls-8" d="M50.28 53.94l-1.45-2.49a26.62 26.62 0 016.51-2.72l.76 2.77a24 24 0 00-5.82 2.44z" transform="translate(-18.64 -31.29)"/><path class="cls-6" d="M77 55.6l1.74-2.29A27.25 27.25 0 0183.53 58l-2.25 1.79A24.3 24.3 0 0077 55.6z" transform="translate(-18.64 -31.29)"/><path class="cls-8" d="M71.9 52.61L73 50a26.74 26.74 0 015.72 3.35L77 55.6a24.12 24.12 0 00-5.1-2.99z" transform="translate(-18.64 -31.29)"/><path class="cls-5" d="M62.41 50.66h-1.17l-.14-2.86h1.3a27.42 27.42 0 013.16.18l-.34 2.84a24.24 24.24 0 00-2.81-.16z" transform="translate(-18.64 -31.29)"/><path class="cls-2" d="M55.56 53.47L55.4 53a22.85 22.85 0 016.42-1.08v.48a22.25 22.25 0 00-6.26 1.07z" transform="translate(-18.64 -31.29)"/><path class="cls-8" d="M63 52.41v-.48a22.72 22.72 0 019.25 2.21l-.25.43a22.21 22.21 0 00-9-2.16z" transform="translate(-18.64 -31.29)"/><path class="cls-2" d="M50.95 55.57l-.26-.42a22.55 22.55 0 013.86-1.84l.16.46a22.27 22.27 0 00-3.76 1.8z" transform="translate(-18.64 -31.29)"/><path class="cls-8" d="M42.7 64.21l-.44-.21a23.09 23.09 0 017.66-8.36l.27.36a22.52 22.52 0 00-7.49 8.21z" transform="translate(-18.64 -31.29)"/><path class="cls-2" d="M40.06 74.31h-.48a22.72 22.72 0 012.27-9.52l.44.21a22.21 22.21 0 00-2.23 9.31zM73.08 55.11l.22-.44a23.1 23.1 0 018.16 7.48l-.46.26a22.52 22.52 0 00-7.92-7.3zM69.26 96l.16.46A22.85 22.85 0 0163 97.58v-.47A22.24 22.24 0 0069.26 96z" transform="translate(-18.64 -31.29)"/><path class="cls-8" d="M83.74 68l.46-.16a22.87 22.87 0 011 6.43h-.44A22.26 22.26 0 0083.74 68zM51.74 94.4l-.22.44a23.1 23.1 0 01-8.16-7.48l.42-.26a22.52 22.52 0 007.96 7.3z" transform="translate(-18.64 -31.29)"/><path class="cls-2" d="M84.76 75.21h.48A22.72 22.72 0 0183 84.72l-.44-.22a22.21 22.21 0 002.2-9.29zM73.87 93.95l.26.42a22.56 22.56 0 01-3.86 1.84l-.16-.46a22.27 22.27 0 003.76-1.8zM61.82 97.11v.48a22.72 22.72 0 01-9.25-2.21l.22-.44a22.21 22.21 0 009.03 2.17z" transform="translate(-18.64 -31.29)"/><path class="cls-8" d="M82.12 85.3l.44.22a23.1 23.1 0 01-7.66 8.36l-.26-.42a22.52 22.52 0 007.48-8.16z" transform="translate(-18.64 -31.29)"/><path class="cls-2" d="M40.06 75.21a22.26 22.26 0 001 6.27l-.46.16a22.87 22.87 0 01-1-6.42h.48zM81.67 63.42l.42-.26a22.55 22.55 0 011.72 3.6l-.46.16a22.28 22.28 0 00-1.68-3.5zM43.15 86.09l-.42.26a22.55 22.55 0 01-1.73-3.6l.46-.16a22.27 22.27 0 001.69 3.5z" transform="translate(-18.64 -31.29)"/><path class="cls-8" d="M62.41 60.54h.14v3.14h-.28v-2.85a13.9 13.9 0 00-3.32.44l.73 2.73-.28.07-.74-2.75a13.84 13.84 0 00-3.1 1.29L57 65.09l-.25.14-1.42-2.47a14 14 0 00-2.66 2l2 2-.2.2-2-2a14 14 0 00-2 2.66l2.47 1.42-.14.25-2.47-1.42A13.85 13.85 0 0049 71l2.75.74-.08.26-2.75-.74a13.9 13.9 0 00-.44 3.32h2.85v.28h-2.85a13.91 13.91 0 00.43 3.32l2.75-.74.07.28-2.73.78a13.85 13.85 0 001.29 3.1l2.47-1.42.14.25-2.47 1.42a14 14 0 002 2.66l2-2 .2.2-2 2a14 14 0 002.66 2l1.42-2.47.29.18-1.42 2.47a13.84 13.84 0 003.1 1.29l.74-2.75.28.07-.74 2.75a13.9 13.9 0 003.32.43v-2.85h.29v2.85a13.91 13.91 0 003.32-.44l-.74-2.75.28-.07.74 2.75a13.85 13.85 0 003.1-1.29l-1.42-2.47.25-.14 1.42 2.47a14 14 0 002.66-2l-2-2 .2-.2 2 2a14 14 0 002-2.66l-2.47-1.42.14-.25 2.47 1.42a13.85 13.85 0 001.29-3.1l-2.75-.74.07-.28 2.75.74a13.89 13.89 0 00.44-3.32h-2.83v-.14-.14h2.9c.1 0 .23 0 .23.14a14.22 14.22 0 11-14.21-14.25z" transform="translate(-18.64 -31.29)"/><path class="cls-8" d="M53.14 69.24l-.25-.14a11.16 11.16 0 011.59-2.1l.2.2a10.86 10.86 0 00-1.54 2.04zM59.75 64.29l-.07-.29a11.06 11.06 0 012.59-.34V64a10.77 10.77 0 00-2.52.29zM57.14 65.34l-.14-.25a11 11 0 012.41-1l.07.28a10.73 10.73 0 00-2.34.97zM54.88 67l-.2-.2a11.15 11.15 0 012.07-1.59l.14.25A10.86 10.86 0 0054.88 67zM69.94 82.48l.2.2a11.15 11.15 0 01-2.07 1.59l-.14-.27a10.86 10.86 0 002.01-1.52zM67.68 84.17l.14.25a11 11 0 01-2.41 1l-.07-.28a10.73 10.73 0 002.34-.97zM54.68 82.28l-.2.2a11.15 11.15 0 01-1.59-2.07l.25-.14a10.86 10.86 0 001.54 2.01zM65.06 85.22l.07.28a11.05 11.05 0 01-2.59.34v-.29a10.77 10.77 0 002.52-.33zM62.27 85.55v.29a11.05 11.05 0 01-2.59-.34l.07-.28a10.77 10.77 0 002.52.33zM56.89 84l-.14.25a11.15 11.15 0 01-2.07-1.59l.2-.2A10.86 10.86 0 0056.89 84zM59.48 85.14l-.07.28a11 11 0 01-2.41-1l.14-.25a10.73 10.73 0 002.34.97zM71.68 80.27l.25.14a11.15 11.15 0 01-1.59 2.07l-.2-.2a10.86 10.86 0 001.54-2.01zM73.2 74.9h.29a11.05 11.05 0 01-.34 2.59l-.28-.07a10.77 10.77 0 00.33-2.52zM52 71.82l-.28-.07a11 11 0 011-2.41l.28.14a10.73 10.73 0 00-1 2.34zM51.62 74.61h-.29a11.06 11.06 0 01.34-2.61l.28.07a10.77 10.77 0 00-.33 2.54zM51.95 77.41l-.28.07a11.06 11.06 0 01-.34-2.59h.29a10.77 10.77 0 00.33 2.52zM53 80l-.25.14a11 11 0 01-1-2.41l.25-.04A10.73 10.73 0 0053 80zM72.8 77.69l.28.07a11 11 0 01-1 2.41l-.25-.17a10.73 10.73 0 00.97-2.31z" transform="translate(-18.64 -31.29)"/><path class="cls-8" d="M62.41 85.55h.14v.29h-.28v-.29h.14zM53 69.48l-.25-.14.14-.25.25.14zM51.95 72.1l-.28-.1.07-.28.26.1zM51.62 74.76v.14h-.29v-.14-.14h.29v.14zM54.68 67.23l-.2-.2.2-.2.2.2zM72.87 77.41l.28.07-.07.28-.28-.07zM62.41 64h-.14v-.32h.29V64h-.15zM73.49 74.9h-.29v-.14-.14h.29v.28zM52 77.69l-.28.07-.07-.28.28-.07zM56.89 65.48l-.14-.25.25-.14.14.25zM59.48 64.37l-.07-.28.27-.09.07.28zM67.93 84l.14.25-.25.14-.14-.25zM70.14 82.28l.2.2-.2.2-.2-.2zM71.83 80l.25.14-.14.25-.25-.14zM65.34 85.14l.07.28-.28.07-.07-.28zM53.14 80.27l-.25.14-.14-.25L53 80zM54.88 82.48l-.2.2-.2-.2.2-.2zM59.75 85.22l-.07.28-.28-.07.07-.28zM57.14 84.17l-.14.25-.25-.14.14-.28z" transform="translate(-18.64 -31.29)"/><path class="cls-6" d="M44.23 12.81h-.91l-.14-1.53h1.18l-.13 1.53zM52.67 12.53l-.52 1.44-.88-.24.26-1.51 1.14.31zM60.38 15.89l-.89 1.25-.79-.46.65-1.38 1.03.59zM66.94 21.12l-1.17.99-.64-.65.98-1.17.83.83zM71.94 27.88l-1.39.65-.46-.79 1.25-.88.6 1.02zM75.01 35.7l-1.51.27-.24-.88 1.44-.53.31 1.14zM74.43 43.01l1.52-.14v1.18l-1.52-.13v-.91zM75.01 51.22l-.31 1.14-1.44-.52.24-.89 1.51.27zM71.94 59.04l-.6 1.02-1.25-.88.46-.79 1.39.65zM66.94 65.8l-.83.84-.98-1.18.64-.64 1.17.98zM60.38 71.03l-1.03.6-.65-1.39.79-.46.89 1.25zM52.67 74.39l-1.14.31-.26-1.51.88-.24.52 1.44zM44.23 74.12l.13 1.52h-1.18l.14-1.52h.91zM36.28 73.19l-.27 1.51-1.14-.31.53-1.44.88.24zM28.84 70.24l-.65 1.39-1.02-.6.88-1.25.79.46zM22.42 65.46l-.99 1.18-.83-.84 1.17-.98.65.64zM17.45 59.18l-1.25.88-.59-1.02 1.39-.65.45.79zM14.28 51.84l-1.44.52-.31-1.14 1.51-.27.24.89zM13.12 43.01v.91l-1.53.13v-1.18l1.53.14zM12.53 35.7l.31-1.14 1.44.53-.24.88-1.51-.27zM17.45 27.74l-.45.79-1.39-.65.59-1.02 1.25.88zM22.42 21.46l-.65.65-1.17-.99.83-.83.99 1.17zM28.84 16.68l-.79.46-.88-1.25 1.02-.59.65 1.38zM36.28 13.73l-.88.24-.53-1.44 1.14-.31.27 1.51z"/><path class="cls-7" d="M22.08 57.72a43.62 43.62 0 019.38-13.92l.2-.2 7.76 7.76-.4.4-7.35-7.35a43.22 43.22 0 00-6.83 51.68l9-5.2.29.5-9.51 5.48-.14-.25a43.86 43.86 0 01-2.4-38.9zM75.44 104.86l2.76 6.49A40 40 0 00100 88l-6.66-2.32.13-.36 6.84 2.38.18.06-.06.18a40.34 40.34 0 01-22.24 23.81l-.18.07-2.92-6.82z" transform="translate(-18.64 -31.29)"/><path class="cls-5" d="M50.32 112.73a40.12 40.12 0 0023.93.07l-.63-2A37.79 37.79 0 0132.68 98L31 99.29a39.71 39.71 0 002.7 3.1" transform="translate(-18.64 -31.29)"/><path class="cls-5" d="M33.72 102.39a40.2 40.2 0 0010.95 8 39.77 39.77 0 005.65 2.3" transform="translate(-18.64 -31.29)"/><path class="cls-5" d="M38.69 107.11l.56-.77a39.21 39.21 0 01-9.85-10.49l-.8.51a40.16 40.16 0 0010.09 10.75zM47.3 111.93l.36-.88a39.14 39.14 0 01-3.84-1.81l-.45.84a40.08 40.08 0 003.93 1.85zM53.86 114l.2-.93-1.3-.31-.23.92zM62.41 114.87h1.21v-1h-2.76v1c.47-.01 1.02 0 1.55 0z" transform="translate(-18.64 -31.29)"/><path class="cls-5" d="M63.62 114.86a40.46 40.46 0 005.38-.52l-.16-.94a39.51 39.51 0 01-5.25.51z" transform="translate(-18.64 -31.29)"/><path d="M101.51 72.48l1-.05a40.28 40.28 0 00-.85-6.23l-.9.2q-.27-1.24-.61-2.45l-1.16.33q-.33-1.15-.73-2.27l1.14-.4q-.18-.49-.37-1l.86-.33a40.07 40.07 0 00-3.46-6.88l-.78.49q-.71-1.13-1.49-2.2l.74-.54a40.43 40.43 0 00-4.6-5.28l-.64.66q-.73-.71-1.5-1.37l-.79.91q-1.4-1.22-2.9-2.29l.7-1q-1.27-.91-2.6-1.7l.43-.77a40.08 40.08 0 00-6.17-3l-.33.86q-1.27-.49-2.58-.89l.27-.88c-.74-.23-1.49-.43-2.24-.61l-.22.89c-.55-.13-1.11-.26-1.67-.37l-.23 1.18a37.81 37.81 0 00-4-.57l.11-1.2c-.94-.08-1.9-.13-2.86-.15v-.92c-1.14 0-2.3 0-3.44.09l.06.92q-1.9.13-3.77.44l-.15-.91a40.07 40.07 0 00-4.13.91l.26.9-.79.23.35 1.15a37.84 37.84 0 00-3.85 1.39l-.42.19-.48-1.11q-1.53.67-3 1.47l-.44-.81a40.3 40.3 0 00-4.68 3l.55.74-1 .78.94 1.19q.79-.63 1.62-1.21l.65.92A36.55 36.55 0 0199 74.76v.88h1.43v-.92q0-1.58-.13-3.14l1.16-.1c.01.36.03.68.05 1z" transform="translate(-18.64 -31.29)" fill="url(#铃琨眄_沭噤桢眚_111)"/><path class="cls-2" d="M35.05 41c.42-.34.84-.67 1.27-1l.44.59c-.42.31-.84.64-1.24 1z" transform="translate(-18.64 -31.29)"/><path class="cls-4" d="M105 71.56l.73-.05c.08 1.06.12 2.13.12 3.2h-.73c.01-1.06-.03-2.11-.12-3.15z" transform="translate(-18.64 -31.29)"/><path class="cls-5" d="M104.17 83.82l.72.18c-.22 1-.49 2.08-.79 3.1l-.71-.21c.3-1.02.61-2.05.78-3.07zM104.84 79.77l.73.09c-.12 1.06-.29 2.12-.49 3.16l-.72-.14c.2-1.03.36-2.07.48-3.11z" transform="translate(-18.64 -31.29)"/><path class="cls-4" d="M105.13 75.67h.73c0 1.06-.08 2.14-.18 3.19l-.73-.07c.05-1.02.15-2.08.18-3.12z" transform="translate(-18.64 -31.29)"/><path class="cls-7" d="M103.11 87.79l.7.22c-.32 1-.69 2-1.09 3l-.72-.26c.43-.97.79-1.96 1.11-2.96z" transform="translate(-18.64 -31.29)"/><path class="cls-4" d="M90.78 42.81l.49-.55c.79.71 1.57 1.45 2.31 2.21l-.52.53c-.73-.76-1.49-1.49-2.28-2.19z" transform="translate(-18.64 -31.29)"/><path class="cls-7" d="M93 105.68c-.76.75-1.55 1.47-2.36 2.16l-.48-.56c.79-.68 1.57-1.39 2.32-2.13zM101.67 91.65l.67.29c-.42 1-.88 1.95-1.37 2.89l-.65-.34c.48-.93.93-1.88 1.35-2.84zM95.78 102.6c-.68.81-1.4 1.62-2.14 2.38l-.53-.51c.73-.75 1.43-1.54 2.1-2.34z" transform="translate(-18.64 -31.29)"/><path class="cls-10" d="M98.31 99.26c-.6.88-1.24 1.74-1.9 2.57l-.57-.46c.65-.82 1.28-1.67 1.87-2.53zM99.86 95.34l.64.35c-.51.93-1.07 1.85-1.65 2.74l-.61-.43c.57-.83 1.11-1.74 1.62-2.66z" transform="translate(-18.64 -31.29)"/><path class="cls-2" d="M40.62 37.14c.92-.53 1.87-1 2.82-1.5l.32.66c-.94.46-1.87 1-2.78 1.48zM44.34 35.22c1-.44 2-.85 3-1.22l.26.69c-1 .36-2 .77-2.91 1.2zM48.22 33.66c1-.35 2-.66 3.06-.93l.19.71c-1 .27-2 .57-3 .92z" transform="translate(-18.64 -31.29)"/><path class="cls-4" d="M88 39.64c.86.63 1.7 1.29 2.51 2l-.48.56c-.8-.68-1.63-1.33-2.47-1.95z" transform="translate(-18.64 -31.29)"/><path class="cls-2" d="M104.52 67.48l.72-.12c.18 1 .32 2.11.42 3.17l-.73.07c-.09-1.05-.24-2.1-.41-3.12zM37.11 39.41c.86-.62 1.76-1.21 2.67-1.77l.38.63c-.89.54-1.77 1.13-2.62 1.74zM52.23 32.49c1-.25 2.09-.46 3.14-.63l.12.73c-1 .17-2.07.38-3.08.62zM102.35 59.56l.65-.26c.38 1 .72 2 1 3l-.7.21c-.24-.98-.58-1.98-.95-2.95zM93.72 45.69l.54-.5c.74.81 1.43 1.59 2.09 2.42l-.57.46c-.65-.82-1.35-1.62-2.06-2.38zM103.63 63.47l.71-.19c.28 1 .52 2.07.73 3.11l-.72.14c-.21-1.03-.45-2.06-.72-3.06zM100.71 55.79l.66-.33c.47 1 .91 1.93 1.31 2.91l-.68.28c-.39-.96-.83-1.92-1.29-2.86zM96.37 48.83l.63-.45c.6.85 1.22 1.72 1.8 2.62l-.62.4c-.56-.88-1.18-1.74-1.81-2.57zM98.71 52.21l.62-.39c.56.9 1.1 1.83 1.59 2.77l-.65.34c-.48-.93-1.01-1.84-1.56-2.72z" transform="translate(-18.64 -31.29)"/><path class="cls-4" d="M56.34 31.72c1-.15 2.12-.26 3.18-.33v.73c-1 .07-2.1.18-3.13.32z" transform="translate(-18.64 -31.29)"/><path class="cls-3" d="M50.63 115.84l-.2.71c-1-.29-2-.63-3-1l.25-.69c.94.36 1.95.69 2.95.98z" transform="translate(-18.64 -31.29)"/><path class="cls-11" d="M54.64 116.78l-.13.72c-1-.19-2.1-.43-3.12-.69l.19-.71c1 .26 2.03.49 3.06.68z" transform="translate(-18.64 -31.29)"/><path class="cls-5" d="M89.84 108.47c-.82.67-1.68 1.32-2.55 1.93l-.42-.6c.85-.6 1.7-1.23 2.51-1.89z" transform="translate(-18.64 -31.29)"/><path class="cls-2" d="M62.83 117.48v.74h-.42c-.92 0-1.85 0-2.77-.09v-.73c1.09.06 2.15.09 3.19.08z" transform="translate(-18.64 -31.29)"/><path class="cls-4" d="M60.53 32.07v-.73c1.06 0 2.14-.05 3.2 0v.73c-1.09-.07-2.16-.07-3.2 0z" transform="translate(-18.64 -31.29)"/><path class="cls-8" d="M39.42 110.78l-.4.62c-.89-.57-1.78-1.19-2.63-1.82l.44-.59c.84.62 1.71 1.22 2.59 1.79z" transform="translate(-18.64 -31.29)"/><path class="cls-6" d="M33 105.71l-.51.53c-.77-.73-1.52-1.5-2.23-2.29l.54-.49c.66.77 1.4 1.54 2.2 2.25z" transform="translate(-18.64 -31.29)"/><path class="cls-3" d="M46.74 114.52l-.27.68c-1-.39-2-.82-2.93-1.28l.32-.66c.94.45 1.91.87 2.88 1.26z" transform="translate(-18.64 -31.29)"/><path class="cls-6" d="M36.07 108.4l-.45.58c-.84-.66-1.66-1.35-2.44-2.06l.49-.54c.77.69 1.58 1.37 2.4 2.02z" transform="translate(-18.64 -31.29)"/><path class="cls-8" d="M43 112.82l-.33.65c-.95-.48-1.89-1-2.79-1.56l.38-.63c.88.55 1.8 1.07 2.74 1.54z" transform="translate(-18.64 -31.29)"/><path class="cls-2" d="M67 118c-1.05.11-2.13.18-3.19.22v-.73c1 0 2.1-.11 3.14-.21z" transform="translate(-18.64 -31.29)"/><path class="cls-11" d="M58.72 117.32l-.06.73c-1.06-.09-2.13-.22-3.18-.39l.12-.73c1.03.18 2.08.31 3.12.39z" transform="translate(-18.64 -31.29)"/><path class="cls-5" d="M80.82 35.38c1 .45 1.92.94 2.85 1.46l-.36.64c-.91-.51-1.85-1-2.8-1.44z" transform="translate(-18.64 -31.29)"/><path class="cls-4" d="M82.89 113.1c-.94.5-1.9 1-2.87 1.4l-.3-.67c1-.42 1.9-.89 2.82-1.38z" transform="translate(-18.64 -31.29)"/><path class="cls-5" d="M84.52 37.33c.91.54 1.82 1.12 2.69 1.73l-.42.6c-.86-.6-1.75-1.17-2.65-1.7zM86.48 110.95c-.88.59-1.8 1.15-2.72 1.67l-.37-.62c.91-.51 1.81-1.07 2.68-1.65z" transform="translate(-18.64 -31.29)"/><path class="cls-7" d="M77 33.79c1 .36 2 .75 3 1.18l-.3.67c-1-.42-1.94-.81-2.92-1.16z" transform="translate(-18.64 -31.29)"/><path class="cls-2" d="M71.14 117.34c-1 .21-2.1.39-3.15.52l-.09-.73c1-.13 2.08-.31 3.1-.51z" transform="translate(-18.64 -31.29)"/><path class="cls-5" d="M68.84 31.77c1.05.16 2.11.35 3.14.59l-.16.72c-1-.23-2.06-.42-3.09-.58zM64.68 31.35c1.06.05 2.13.15 3.19.28l-.09.73c-1-.13-2.09-.22-3.13-.28z" transform="translate(-18.64 -31.29)"/><path class="cls-2" d="M75.19 116.31c-1 .31-2.05.59-3.09.83l-.16-.72c1-.23 2-.51 3-.81z" transform="translate(-18.64 -31.29)"/><path class="cls-7" d="M72.94 32.58c1 .26 2.06.56 3.07.89l-.23.7c-1-.33-2-.62-3-.87z" transform="translate(-18.64 -31.29)"/><path class="cls-4" d="M79.12 114.89c-1 .41-2 .78-3 1.12l-.23-.7c1-.33 2-.7 2.94-1.1z" transform="translate(-18.64 -31.29)"/><path class="cls-10" d="M29.07 101.48c.33.41.67.82 1 1.21l-.56.48c-.35-.4-.7-.82-1-1.23z" transform="translate(-18.64 -31.29)"/><path class="cls-8" d="M78.09 74.58h.62v.35h-.61c0-.12 0-.23-.01-.35z" transform="translate(-18.64 -31.29)"/><path class="cls-7" d="M70.71 60.72l-.5.87-.31-.17.51-.88zM69.46 60.05L69 61l-.32-.14.44-.95z" transform="translate(-18.64 -31.29)"/><path class="cls-6" d="M73 62.38l-.6.72-.27-.22.61-.72z" transform="translate(-18.64 -31.29)"/><path class="cls-7" d="M68.15 59.49l-.37 1-.33-.11.37-1z" transform="translate(-18.64 -31.29)"/><path class="cls-10" d="M65.41 58.73l-.2 1.11-.35-.05.2-1.12zM64 58.53l-.1 1.15h-.35l.1-1.16z" transform="translate(-18.64 -31.29)"/><path class="cls-6" d="M74.06 63.35l-.64.65-.25-.24.64-.64z" transform="translate(-18.64 -31.29)"/><path class="cls-7" d="M66.8 59.05l-.28 1.06-.35-.11.29-1z" transform="translate(-18.64 -31.29)"/><path class="cls-6" d="M76.44 66.45l.17.3-.69.4-.18-.3z" transform="translate(-18.64 -31.29)"/><path class="cls-8" d="M77.44 70.55l.68-.18.08.33-.67.18zM77.77 71.87l.66-.12.07.35-.66.12zM77 69.27l.67-.27.12.33-.68.25z" transform="translate(-18.64 -31.29)"/><path class="cls-6" d="M75 64.41l-.65.59-.23-.26.67-.56z" transform="translate(-18.64 -31.29)"/><path class="cls-8" d="M78 73.22l.64-.06v.35l-.64.05v-.34z" transform="translate(-18.64 -31.29)"/><path class="cls-6" d="M75.67 65.26l.2.29-.68.45-.19-.26zM76.42 68l.7-.32.14.32-.69.32z" transform="translate(-18.64 -31.29)"/><path class="cls-10" d="M62.23 58.45h.35v1.19h-.35v-1.19z" transform="translate(-18.64 -31.29)"/><path class="cls-7" d="M71.91 61.5l-.56.79-.29-.19.56-.8z" transform="translate(-18.64 -31.29)"/><path class="cls-10" d="M49.32 67.4l-1.12-.64.17-.3 1.12.65zM48.72 68.56L47.56 68l.15-.32 1.16.54z" transform="translate(-18.64 -31.29)"/><path class="cls-7" d="M48.21 69.77L47 69.34l.15-.34 1.19.43z" transform="translate(-18.64 -31.29)"/><path class="cls-10" d="M50.8 65.25l-1-.84.2-.27 1 .86zM50 66.29l-1-.74.2-.29 1.02.74z" transform="translate(-18.64 -31.29)"/><path class="cls-7" d="M47.36 73.61l-1.2-.11v-.35l1.21.11q0 .18-.01.35z" transform="translate(-18.64 -31.29)"/><path class="cls-10" d="M60.81 58.53h.35l.11 1.2h-.35z" transform="translate(-18.64 -31.29)"/><path class="cls-7" d="M47.82 71l-1.2-.32.09-.34 1.21.32zM47.53 72.31l-1.21-.21.06-.34 1.22.24z" transform="translate(-18.64 -31.29)"/><path class="cls-10" d="M56.67 59.49l.33-.12.43 1.19-.33.12zM51 63.1l.93.9-.25.25-.92-.92zM55.36 60.05l.32-.15.54 1.16-.32.15zM59.41 58.73l.34-.06.25 1.21-.34.07zM58 59.05l.36-.05.32 1.2-.34.09zM52.06 62.15l.84 1-.27.23-.84-1zM52.91 61.5l.29-.2.74 1.06-.29.2zM54.11 60.72l.3-.17.64 1.12-.3.18z" transform="translate(-18.64 -31.29)"/><path class="cls-6" d="M47.34 76.25l-1.15.1V76l1.16-.1c-.03.1-.02.23-.01.35z" transform="translate(-18.64 -31.29)"/><path class="cls-8" d="M53.68 87.53l-.48.68-.29-.21.48-.69z" transform="translate(-18.64 -31.29)"/><path class="cls-3" d="M54.81 88.28l-.4.69-.3-.17.4-.7z" transform="translate(-18.64 -31.29)"/><path class="cls-8" d="M52.62 86.7l-.56.66-.27-.22.56-.67z" transform="translate(-18.64 -31.29)"/><path class="cls-3" d="M56 88.92l-.32.69-.32-.15.32-.7zM59.87 90.19l-.12.66-.34-.06.12-.66zM57.25 89.45l-.25.69-.33-.14.25-.69z" transform="translate(-18.64 -31.29)"/><path class="cls-8" d="M51.64 85.77l-.64.64-.25-.25.64-.64z" transform="translate(-18.64 -31.29)"/><path class="cls-3" d="M58.54 89.88l-.18.67-.36-.09.18-.68z" transform="translate(-18.64 -31.29)"/><path class="cls-7" d="M47.3 74.58v.35h-1.2v-.35h1.2z" transform="translate(-18.64 -31.29)"/><path class="cls-6" d="M47.5 77.56l-1.11.2-.06-.34 1.12-.2z" transform="translate(-18.64 -31.29)"/><path class="cls-8" d="M50.75 84.77l-.72.6-.22-.27.72-.61z" transform="translate(-18.64 -31.29)"/><path class="cls-6" d="M47.77 78.86l-1.06.28-.09-.34 1.07-.29z" transform="translate(-18.64 -31.29)"/><path class="cls-3" d="M61.22 90.38l-.06.62h-.35l.06-.64z" transform="translate(-18.64 -31.29)"/><path class="cls-6" d="M48.15 80.13l-1 .37-.15-.33 1-.37zM48.64 81.37l-.94.44-.15-.32.95-.49z" transform="translate(-18.64 -31.29)"/><path class="cls-8" d="M49.95 83.69l-.79.56L49 84l.8-.56zM49.25 82.56l-.87.5-.17-.3.88-.51z" transform="translate(-18.64 -31.29)"/><path class="cls-3" d="M77.93 77.32l.56.1-.06.34-.56-.1z" transform="translate(-18.64 -31.29)"/><path class="cls-11" d="M76.62 82.76l-.17.3-.45-.25.17-.3zM75.87 84l-.2.29-.41-.29.2-.29z" transform="translate(-18.64 -31.29)"/><path class="cls-3" d="M77.26 81.49l-.15.32-.47-.22.15-.32z" transform="translate(-18.64 -31.29)"/><path class="cls-11" d="M75 85.1l-.22.27-.38-.32.22-.27z" transform="translate(-18.64 -31.29)"/><path class="cls-3" d="M77.29 80l.5.18-.12.33-.5-.18z" transform="translate(-18.64 -31.29)"/><path class="cls-8" d="M78.07 76h.6v.35l-.59-.05q-.02-.17-.01-.3z" transform="translate(-18.64 -31.29)"/><path class="cls-3" d="M77.67 78.66l.53.14-.09.34-.52-.14z" transform="translate(-18.64 -31.29)"/><path class="cls-11" d="M74.06 86.16l-.25.25-.35-.35.25-.25z" transform="translate(-18.64 -31.29)"/><path class="cls-12" d="M70.71 88.79l-.3.17-.25-.44.3-.17zM66.8 90.46l-.34.09-.14-.55.34-.09zM68.15 90l-.33.12-.18-.5.36-.1zM65.41 90.78l-.34.06-.07-.56.35-.06z" transform="translate(-18.64 -31.29)"/><path class="cls-11" d="M73 87.13l-.27.22-.29-.35.27-.22zM64 91h-.35l-.05-.59h.35z" transform="translate(-18.64 -31.29)"/><path class="cls-12" d="M71.91 88l-.29.2-.29-.41.29-.2z" transform="translate(-18.64 -31.29)"/><path class="cls-11" d="M62.58 91.06h-.35v-.62h.35v.61z" transform="translate(-18.64 -31.29)"/><path class="cls-12" d="M69.46 89.46l-.32.15-.22-.47.32-.14z" transform="translate(-18.64 -31.29)"/></svg>