<svg preserveAspectRatio="none" xmlns="http://www.w3.org/2000/svg" xmlns:xlink="http://www.w3.org/1999/xlink" viewBox="0 0 396.33 405.27"><defs><linearGradient id="linear-gradient" x1="203.37" y1="-4.16" x2="203.37" y2="281.94" gradientUnits="userSpaceOnUse"><stop offset="0" stop-color="#29abe2"/><stop offset=".13" stop-color="#47b7e6" stop-opacity=".86"/><stop offset=".56" stop-color="#a9ddf3" stop-opacity=".4"/><stop offset=".86" stop-color="#e7f6fc" stop-opacity=".11"/><stop offset="1" stop-color="#fff" stop-opacity="0"/></linearGradient><linearGradient id="linear-gradient-2" x1="1152.94" y1="290" x2="1114.4" y2="328.54" gradientUnits="userSpaceOnUse"><stop offset="0" stop-color="#16fff5"/><stop offset=".03" stop-color="#14f5f1"/><stop offset=".16" stop-color="#0dd9e4"/><stop offset=".29" stop-color="#07c2da"/><stop offset=".43" stop-color="#03b2d3"/><stop offset=".6" stop-color="#01a9cf"/><stop offset=".82" stop-color="#00a6ce"/></linearGradient><linearGradient id="linear-gradient-3" x1="1246.56" y1="169.56" x2="1178.12" y2="264.57" xlink:href="#linear-gradient-2"/><style>.cls-7,.cls-8,.cls-9{fill:none;stroke-miterlimit:10}.cls-9{stroke:#0071bc}.cls-8{stroke-width:1.72px}.cls-6{mix-blend-mode:overlay}.cls-7,.cls-8{stroke:#fff}.cls-7{stroke-width:2.09px}.cls-9{stroke-width:1.99px}.cls-13{fill:#0ff}</style></defs><g style="isolation:isolate"><g id="BACKGROUND_2" data-name="BACKGROUND 2"><circle cx="203.37" cy="214.77" r="163.95" opacity=".25" fill="url(#linear-gradient)"/><circle cx="203.37" cy="214.77" r="163.95" stroke="#0ff" stroke-width=".75" fill="none" stroke-miterlimit="10"/><circle cx="203.37" cy="214.77" r="130.17" stroke-width=".52" stroke="#0071bc" fill="none" stroke-miterlimit="10"/><path d="M203.39 150.98a63.79 63.79 0 1063.77 63.83 63.79 63.79 0 00-63.77-63.83zm0 112a48.26 48.26 0 1148.24-48.17 48.26 48.26 0 01-48.24 48.22z" stroke-width="1.72" stroke="#0071bc" fill="none" stroke-miterlimit="10"/><g class="cls-6"><circle class="cls-7" cx="203.37" cy="214.77" r="26.41"/><path class="cls-7" d="M203.87 181.39v14.94M191.05 183.74l5.73 13.81M180.11 190.81l10.58 10.57M172.71 201.54l13.82 5.72M169.98 214.27h14.95M172.33 227.09l13.82-5.72M179.41 238.03l10.57-10.57M190.13 245.43l5.72-13.81M202.87 248.16v-14.95M215.69 245.81L209.97 232M226.63 238.73l-10.57-10.57M234.03 228.01l-13.82-5.72M236.76 215.27h-14.95M234.41 202.46l-13.81 5.72M227.33 191.52l-10.57 10.57M216.61 184.12l-5.72 13.81"/></g><g class="cls-6"><path class="cls-8" d="M1285.32 149.62l-1-.89 29.47-32.47 1.24 1.13zM1277.57 143q-1-.83-2.1-1.65l26.73-34.76q1.39 1.07 2.75 2.16zm-9.33-6.86q-1.11-.75-2.23-1.47l23.82-36.82q1.47.95 2.92 1.93zm-9.87-6.08q-1.16-.65-2.34-1.28l20.75-38.63q1.54.83 3.07 1.69zm-10.31-5.24l-2.44-1.09 17.51-40.2q1.61.7 3.2 1.43zm-10.7-4.38l-2.51-.88L1249 78q1.66.57 3.3 1.16zm-93.55-1.12l-13.92-41.58q1.66-.55 3.32-1.08l13.15 41.83zm82.53-2.37l-2.58-.67 10.69-42.53q1.7.43 3.39.89zm-71.42-.85l-10.47-42.58q1.69-.42 3.4-.8l9.67 42.77zm60.15-1.72l-2.64-.46 7.2-43.26q1.72.29 3.43.6zm-48.81-.59l-7-43.3q1.73-.28 3.47-.52l6.13 43.42zm37.35-1.06l-2.65-.25 3.63-43.7q1.74.14 3.48.32zm-25.84-.31l-3.41-43.72q1.74-.14 3.49-.24l2.59 43.78zm14.28-.4h-2.68l.12-43.85h3.49zM1134.21 122.88l-16.93-40.45 1.58-.65 16.54 40.61zM1101.49 418q-1.5-.8-3-1.63l21.38-38.29 2.26 1.23zm-12.68-7.44q-1.42-.91-2.82-1.85l24.31-36.49 2.18 1.42zm-12-8.39q-1.36-1-2.69-2.08l27.13-34.45 2 1.57zm-11.35-9.33q-1.26-1.13-2.51-2.27l29.74-32.23q1 .88 1.92 1.74zm-10.57-10.18q-1.17-1.22-2.32-2.46l32.18-29.79q.88 1 1.78 1.89zm-9.74-11q-1.07-1.31-2.11-2.63l34.41-27.18q.81 1 1.64 2zm-8.84-11.7q-1-1.39-1.91-2.8l36.45-24.38q.72 1.08 1.46 2.14zm-7.9-12.38q-.86-1.47-1.69-2.95l38.28-21.42q.63 1.13 1.29 2.25zm-6.91-13q-.73-1.52-1.44-3.06l39.84-18.34q.54 1.18 1.11 2.35zm-5.85-13.48q-.62-1.59-1.2-3.19l41.18-15.08q.45 1.21.91 2.42zm-4.77-13.94q-.48-1.61-.93-3.24l42.24-11.78q.35 1.27.73 2.52zm-3.63-14.2q-.36-1.67-.69-3.36l43-8.35q.25 1.26.51 2.52zm-2.5-14.52q-.22-1.67-.41-3.34l43.57-5q.15 1.3.32 2.6zM1252.57 428.66l-15-41.21 2.42-.91 15.76 40.92q-1.58.61-3.18 1.2zm13.62-5.58L1248 383.19l2.35-1.1 19 39.54q-1.62.74-3.16 1.45zm13.12-6.64L1258 378.13l2.26-1.29 22 37.92q-1.48.86-2.96 1.68zm12.55-7.66l-24.31-36.5 2.16-1.46 24.94 36.07q-1.39.96-2.8 1.89zm11.88-8.6l-27.08-34.49q1-.79 2-1.6l27.75 34-2.67 2.09zm11.18-9.52l-29.72-32.25q1-.88 1.89-1.78l30.29 31.71q-1.22 1.18-2.46 2.32zm10.38-10.35l-32.14-29.83q.88-1 1.75-1.92l32.67 29.25q-1.13 1.26-2.28 2.5zm9.55-11.14L1300.47 342q.8-1 1.58-2l34.88 26.58q-1.03 1.26-2.08 2.59zm8.65-11.87l-36.43-24.41q.72-1.07 1.41-2.15l36.89 23.72q-.93 1.43-1.87 2.85zm7.68-12.51l-38.24-21.46q.63-1.12 1.24-2.26l38.63 20.75q-.81 1.5-1.63 2.98zm6.67-13.07L1318 313.35q.54-1.16 1.05-2.34l40.16 17.61q-.65 1.57-1.36 3.11zm5.62-13.58L1322.31 303q.45-1.22.88-2.45L1364.6 315q-.6 1.58-1.13 3.15zm4.52-14l-42.23-11.83q.35-1.25.68-2.51l42.43 11.08q-.43 1.69-.87 3.32zm3.4-14.29l-43-8.45q.25-1.25.47-2.52l43.19 7.61-.67 3.42zm2.25-14.51l-43.56-5q.15-1.27.27-2.56L1374 272q-.17 1.7-.37 3.39z" transform="translate(-985.61 -39.19)"/></g><path class="cls-9" d="M1003.51 266c-.27-4.14-.4-8.2-.4-12.08A185.81 185.81 0 011096 93l22 38a142.59 142.59 0 00-71 123c0 3 .1 6 .31 9.28zM1330.94 249.89a140.68 140.68 0 00-30.75-84.25l34.32-27.3a184.21 184.21 0 0140.26 110.32zM1189 439.84a185 185 0 01-67.5-12.66l15.93-40.86a142.67 142.67 0 0088.15 4.9l11.26 42.38a186.38 186.38 0 01-47.84 6.24z" transform="translate(-985.61 -39.19)"/><path d="M1189 352.63a98.78 98.78 0 01-98.69-98.63 5.48 5.48 0 1111 0 87.8 87.8 0 0087.69 87.67 5.48 5.48 0 010 10.96z" transform="translate(-985.61 -39.19)" fill="url(#linear-gradient-2)"/><path d="M1282.17 259.44a5.48 5.48 0 01-5.48-5.48 87.75 87.75 0 00-123.9-79.96 5.48 5.48 0 01-4.53-10 98.71 98.71 0 01139.39 90 5.48 5.48 0 01-5.48 5.44z" transform="translate(-985.61 -39.19)" fill="url(#linear-gradient-3)"/><circle cx="203.37" cy="214.77" r="116.11" style="mix-blend-mode:color-dodge" stroke-dasharray="2.99 9.97" stroke-width="1.99" stroke="#0071bc" fill="none" stroke-miterlimit="10"/><path class="cls-13" d="M1310.86 90.59l6.53-8.81a213.82 213.82 0 00-127.91-42.59v11a202.9 202.9 0 01121.38 40.4zM1283.19 434.73l5.06 9.73a215.68 215.68 0 0093.7-96.1l-9.85-4.81a204.68 204.68 0 01-88.91 91.18zM996 319.69l-10.39 3.5a215.31 215.31 0 0081.24 107.44l6.26-9A204.32 204.32 0 01996 319.69z" transform="translate(-985.61 -39.19)"/></g></g></svg>