<svg preserveAspectRatio="none" id="Layer_1" data-name="Layer 1" xmlns="http://www.w3.org/2000/svg" xmlns:xlink="http://www.w3.org/1999/xlink" viewBox="0 0 120.44 120.44"><defs><linearGradient id="linear-gradient" x1="58.19" y1="331.36" x2="58.19" y2="407.59" gradientUnits="userSpaceOnUse"><stop offset="0" stop-color="#154666"/><stop offset=".11" stop-color="#274a71"/><stop offset=".33" stop-color="#55558d"/><stop offset=".64" stop-color="#9f66ba"/><stop offset="1" stop-color="#ff7df5"/></linearGradient><linearGradient id="linear-gradient-2" x1="50.97" y1="331.36" x2="50.97" y2="407.59" xlink:href="#linear-gradient"/><linearGradient id="linear-gradient-3" x1="67.07" y1="331.36" x2="67.07" y2="407.59" xlink:href="#linear-gradient"/><linearGradient id="linear-gradient-4" x1="43.42" y1="331.36" x2="43.42" y2="407.59" xlink:href="#linear-gradient"/><linearGradient id="linear-gradient-5" x1="45.93" y1="331.36" x2="45.93" y2="407.59" xlink:href="#linear-gradient"/><linearGradient id="linear-gradient-6" x1="119.87" y1="331.36" x2="119.87" y2="407.59" xlink:href="#linear-gradient"/><linearGradient id="linear-gradient-7" x1="114.83" y1="331.36" x2="114.83" y2="407.59" xlink:href="#linear-gradient"/><linearGradient id="linear-gradient-8" x1="107.61" y1="331.36" x2="107.61" y2="407.59" xlink:href="#linear-gradient"/><linearGradient id="linear-gradient-9" x1="43.42" y1="331.36" x2="43.42" y2="407.59" xlink:href="#linear-gradient"/><linearGradient id="linear-gradient-10" x1="88.75" y1="331.36" x2="88.75" y2="407.59" xlink:href="#linear-gradient"/><linearGradient id="linear-gradient-11" x1="98.73" y1="331.36" x2="98.73" y2="407.59" xlink:href="#linear-gradient"/><linearGradient id="linear-gradient-12" x1="77.05" y1="331.36" x2="77.05" y2="407.59" xlink:href="#linear-gradient"/><linearGradient id="linear-gradient-13" x1="114.83" y1="331.36" x2="114.83" y2="407.59" xlink:href="#linear-gradient"/><linearGradient id="linear-gradient-14" x1="107.61" y1="331.36" x2="107.61" y2="407.59" xlink:href="#linear-gradient"/><linearGradient id="linear-gradient-15" x1="119.87" y1="331.36" x2="119.87" y2="407.59" xlink:href="#linear-gradient"/><linearGradient id="linear-gradient-16" x1="122.38" y1="331.36" x2="122.38" y2="407.59" xlink:href="#linear-gradient"/><linearGradient id="linear-gradient-17" x1="98.73" y1="331.36" x2="98.73" y2="407.59" xlink:href="#linear-gradient"/><linearGradient id="linear-gradient-18" x1="122.38" y1="331.36" x2="122.38" y2="407.59" xlink:href="#linear-gradient"/><linearGradient id="linear-gradient-19" x1="77.05" y1="331.36" x2="77.05" y2="407.59" xlink:href="#linear-gradient"/><linearGradient id="linear-gradient-20" x1="58.19" y1="331.36" x2="58.19" y2="407.59" xlink:href="#linear-gradient"/><linearGradient id="linear-gradient-21" x1="88.75" y1="331.36" x2="88.75" y2="407.59" xlink:href="#linear-gradient"/><linearGradient id="linear-gradient-22" x1="50.97" y1="331.36" x2="50.97" y2="407.59" xlink:href="#linear-gradient"/><linearGradient id="linear-gradient-23" x1="45.93" y1="331.36" x2="45.93" y2="407.59" xlink:href="#linear-gradient"/><linearGradient id="linear-gradient-24" x1="67.07" y1="331.36" x2="67.07" y2="407.59" xlink:href="#linear-gradient"/><style>.cls-25{fill:#5cdeff}</style></defs><path d="M59.25 334.46a34.93 34.93 0 015.08-3.91l-5.1-8.84a45.18 45.18 0 00-7.23 5.53z" transform="translate(-22.68 -299.79)" fill="url(#linear-gradient)"/><path d="M53.44 341.44a34.93 34.93 0 013.91-5.08l-7.21-7.21a45.19 45.19 0 00-5.53 7.19z" transform="translate(-22.68 -299.79)" fill="url(#linear-gradient-2)"/><path d="M66.66 329.18a34.61 34.61 0 015.92-2.47l-2.63-9.82a44.73 44.73 0 00-8.39 3.47z" transform="translate(-22.68 -299.79)" fill="url(#linear-gradient-3)"/><path d="M48.11 358.66a34.88 34.88 0 01.82-6.36l-9.84-2.64a45 45 0 00-1.17 9h10.2z" transform="translate(-22.68 -299.79)" fill="url(#linear-gradient-4)"/><path d="M49.6 349.69a34.59 34.59 0 012.47-5.92l-8.82-5.09a44.74 44.74 0 00-3.47 8.39z" transform="translate(-22.68 -299.79)" fill="url(#linear-gradient-5)"/><path d="M122.55 338.67l-8.82 5.09a34.6 34.6 0 012.47 5.92l9.82-2.63a44.74 44.74 0 00-3.47-8.38z" transform="translate(-22.68 -299.79)" fill="url(#linear-gradient-6)"/><path d="M108.45 336.36a34.93 34.93 0 013.91 5.08l8.84-5.1a45.18 45.18 0 00-5.53-7.19z" transform="translate(-22.68 -299.79)" fill="url(#linear-gradient-7)"/><path d="M101.47 330.55a34.94 34.94 0 015.08 3.91l7.21-7.21a45.19 45.19 0 00-7.19-5.53z" transform="translate(-22.68 -299.79)" fill="url(#linear-gradient-8)"/><path d="M48.93 367.72a34.88 34.88 0 01-.82-6.36h-10.2a45 45 0 001.17 9z" transform="translate(-22.68 -299.79)" fill="url(#linear-gradient-9)"/><path d="M84.25 325.22a34.87 34.87 0 016.36.82l2.64-9.84a45 45 0 00-9-1.17v10.2z" transform="translate(-22.68 -299.79)" fill="url(#linear-gradient-10)"/><path d="M93.22 326.71a34.62 34.62 0 015.92 2.47l5.09-8.82a44.73 44.73 0 00-8.39-3.47z" transform="translate(-22.68 -299.79)" fill="url(#linear-gradient-11)"/><path d="M75.19 326a34.87 34.87 0 016.36-.82V315a45 45 0 00-9 1.17z" transform="translate(-22.68 -299.79)" fill="url(#linear-gradient-12)"/><path d="M112.36 378.58a34.94 34.94 0 01-3.91 5.08l7.21 7.21a45.19 45.19 0 005.53-7.19z" transform="translate(-22.68 -299.79)" fill="url(#linear-gradient-13)"/><path d="M106.55 385.56a34.94 34.94 0 01-5.08 3.91l5.1 8.84a45.18 45.18 0 007.19-5.53z" transform="translate(-22.68 -299.79)" fill="url(#linear-gradient-14)"/><path d="M116.2 370.33a34.61 34.61 0 01-2.47 5.92l8.82 5.09A44.74 44.74 0 00126 373z" transform="translate(-22.68 -299.79)" fill="url(#linear-gradient-15)"/><path d="M117.69 361.36a34.88 34.88 0 01-.82 6.36l9.84 2.64a45 45 0 001.17-9h-10.2z" transform="translate(-22.68 -299.79)" fill="url(#linear-gradient-16)"/><path d="M99.14 390.84a34.6 34.6 0 01-5.92 2.47l2.63 9.82a44.74 44.74 0 008.39-3.47z" transform="translate(-22.68 -299.79)" fill="url(#linear-gradient-17)"/><path d="M116.87 352.3a34.88 34.88 0 01.82 6.36h10.2a45 45 0 00-1.17-9z" transform="translate(-22.68 -299.79)" fill="url(#linear-gradient-18)"/><path d="M81.55 394.8a34.88 34.88 0 01-6.36-.82l-2.64 9.84a45.05 45.05 0 009 1.17V394.8z" transform="translate(-22.68 -299.79)" fill="url(#linear-gradient-19)"/><path d="M64.33 389.47a34.93 34.93 0 01-5.08-3.91L52 392.78a45.17 45.17 0 007.19 5.53z" transform="translate(-22.68 -299.79)" fill="url(#linear-gradient-20)"/><path d="M90.61 394a34.88 34.88 0 01-6.36.82V405a45 45 0 009-1.17z" transform="translate(-22.68 -299.79)" fill="url(#linear-gradient-21)"/><path d="M57.35 383.66a34.93 34.93 0 01-3.91-5.08l-8.84 5.1a45.19 45.19 0 005.53 7.19z" transform="translate(-22.68 -299.79)" fill="url(#linear-gradient-22)"/><path d="M52.07 376.25a34.61 34.61 0 01-2.47-5.92L39.78 373a44.74 44.74 0 003.47 8.39z" transform="translate(-22.68 -299.79)" fill="url(#linear-gradient-23)"/><path d="M72.58 393.31a34.6 34.6 0 01-5.92-2.47l-5.09 8.82a44.73 44.73 0 008.39 3.47z" transform="translate(-22.68 -299.79)" fill="url(#linear-gradient-24)"/><path class="cls-25" d="M93 420.23H72.8a9.92 9.92 0 01-7.64-3.58l-6.29-7.54A55 55 0 0133.8 384l-7.54-6.29a9.92 9.92 0 01-3.58-7.64v-20.2a9.92 9.92 0 013.58-7.64L33.8 336a55 55 0 0125.07-25.07l6.28-7.54a9.92 9.92 0 017.64-3.58H93a9.92 9.92 0 017.64 3.58l6.28 7.54A55 55 0 01132 336l7.54 6.28a9.92 9.92 0 013.58 7.64v20.2a9.92 9.92 0 01-3.58 7.64L132 384a55 55 0 01-25.06 25.06l-6.29 7.55a9.92 9.92 0 01-7.65 3.62zm-33.89-11.56a.25.25 0 01.11.07l6.32 7.59a9.42 9.42 0 007.26 3.4H93a9.42 9.42 0 007.26-3.4l6.32-7.59.08-.06a54.53 54.53 0 0024.89-24.88.25.25 0 01.07-.11l7.59-6.32a9.42 9.42 0 003.4-7.26v-20.2a9.42 9.42 0 00-3.4-7.26l-7.59-6.32a.26.26 0 01-.08-.11 54.53 54.53 0 00-24.86-24.86.25.25 0 01-.11-.08l-6.32-7.59a9.42 9.42 0 00-7.26-3.4H72.8a9.42 9.42 0 00-7.26 3.4l-6.32 7.59a.25.25 0 01-.11.08 54.53 54.53 0 00-24.86 24.87.25.25 0 01-.07.11l-7.59 6.32a9.42 9.42 0 00-3.4 7.26v20.2a9.42 9.42 0 003.4 7.26l7.59 6.32a.25.25 0 01.08.11 54.54 54.54 0 0024.85 24.86z" transform="translate(-22.68 -299.79)"/><path d="M82.9 414.65a54.8 54.8 0 01-17.73-2.93l-9.78.89a9.94 9.94 0 01-7.93-2.87l-14.28-14.29a9.92 9.92 0 01-2.87-7.93l.89-9.78a55 55 0 010-35.45l-.89-9.78a9.92 9.92 0 012.87-7.93l14.29-14.29a10 10 0 017.93-2.87l9.78.89a55.05 55.05 0 0135.45 0l9.78-.89a9.93 9.93 0 017.93 2.87l14.29 14.29a9.92 9.92 0 012.87 7.93l-.89 9.78a55 55 0 010 35.45l.89 9.78a9.92 9.92 0 01-2.87 7.93l-14.29 14.29a9.93 9.93 0 01-7.93 2.87l-9.78-.89a54.8 54.8 0 01-17.73 2.93zm-17.66-3.44h.05a54.54 54.54 0 0034.95.09l-.07-.15h.45l9.84.9a9.42 9.42 0 007.54-2.73l14.29-14.29a9.42 9.42 0 002.73-7.54l-1-10.71.25.33a54.55 54.55 0 000-34.21l-.32.65 1-11.15a9.42 9.42 0 00-2.73-7.54L118 310.64a9.42 9.42 0 00-7.54-2.73l-10.28.94.07-.15a54.54 54.54 0 00-34.68 0l.07.15h-.45l-9.84-.89a9.42 9.42 0 00-7.54 2.73l-14.28 14.24a9.42 9.42 0 00-2.73 7.54l.9 9.84h-.23l.22.08a54.55 54.55 0 00-.13 34.84l.2-.2-1 10.52a9.42 9.42 0 002.73 7.54l14.29 14.29a9.41 9.41 0 007.54 2.73z" transform="translate(-22.68 -299.79)" fill="#ba5bb2"/><path class="cls-25" d="M82.9 405.25A45.24 45.24 0 11128.14 360a45.29 45.29 0 01-45.24 45.25zm0-90A44.74 44.74 0 10127.64 360a44.79 44.79 0 00-44.74-44.73z" transform="translate(-22.68 -299.79)"/><path class="cls-25" d="M60.74 375.39a27 27 0 017.08-37.74l.56.83a26 26 0 00-6.82 36.34zM82.9 387a26.78 26.78 0 01-15.74-5.07l.58-.81a26 26 0 0036.88-6.84l.84.55A26.92 26.92 0 0182.9 387zM109.87 360h-1a26 26 0 00-26-26v-1a27 27 0 0127 27z" transform="translate(-22.68 -299.79)"/><path class="cls-25" d="M82.9 381.72A21.74 21.74 0 0161.19 360h.75a21 21 0 0021 21v.75zM98.25 375.36l-.53-.53A21 21 0 0082.9 339v-.7a21.71 21.71 0 0115.35 37.06z" transform="translate(-22.68 -299.79)"/></svg>