<svg preserveAspectRatio="none" xmlns="http://www.w3.org/2000/svg" viewBox="0 0 392.64 392.54"><defs><style>.cls-1{isolation:isolate;}.cls-2,.cls-3,.cls-5,.cls-7{mix-blend-mode:screen;}.cls-3,.cls-4,.cls-5,.cls-8{fill:#03a6ff;}.cls-3,.cls-6,.cls-7{opacity:0.5;}.cls-5{opacity:0.6;}.cls-8{stroke:#1984cc;stroke-miterlimit:10;stroke-width:15px;}</style></defs><title>circle49</title><g class="cls-1"><g id="Layer_7" data-name="Layer 7"><g class="cls-2"><path class="cls-3" d="M857.52,1094.59a122.91,122.91,0,0,0-62-16.74v-46.2a169.15,169.15,0,0,1,85.32,23.05Z" transform="translate(-599.2 -1004.62)"/><path class="cls-3" d="M672.47,1200.35A122.91,122.91,0,0,0,689,1262.4l-40,23.1a169.15,169.15,0,0,1-22.69-85.41Z" transform="translate(-599.2 -1004.62)"/><path class="cls-4" d="M733.53,1241l-7,4.56A82.33,82.33,0,0,0,774,1280.26l2.19-8.09A73.94,73.94,0,0,1,733.53,1241Z" transform="translate(-599.2 -1004.62)"/><path class="cls-4" d="M719.22,1170.23a82.58,82.58,0,0,0-5,43.33l8.29-1.28a74,74,0,0,1,2.9-34.69q0.42-1.33.92-2.62a30.25,30.25,0,0,1-5.9-7.66C720,1168.27,719.62,1169.24,719.22,1170.23Z" transform="translate(-599.2 -1004.62)"/><path class="cls-4" d="M845.16,1135.36a81.85,81.85,0,0,0-46.68-16.61l-0.3,8.38A73.45,73.45,0,0,1,840.1,1142Z" transform="translate(-599.2 -1004.62)"/><path class="cls-4" d="M862.8,1153.66l-6.86,4.82a73.81,73.81,0,0,1-57.21,116.18l0.36,8.38A82.19,82.19,0,0,0,862.8,1153.66Z" transform="translate(-599.2 -1004.62)"/><path class="cls-4" d="M758.4,1111.6l-2.21-5.3a102.43,102.43,0,0,1,90.44,5.87l-2.86,5A96.71,96.71,0,0,0,758.4,1111.6Z" transform="translate(-599.2 -1004.62)"/><path class="cls-4" d="M897.94,1200.88a102.51,102.51,0,0,1-102.43,102.43q-2.46,0-4.89-.12l0.28-5.75c1.53,0.08,3.07.12,4.61,0.12a96.74,96.74,0,0,0,96.68-96.68c0-2.23-.08-4.45-0.23-6.65a95.59,95.59,0,0,0-13.12-42.29l5-2.91a101.52,101.52,0,0,1,13.89,44.8C897.87,1196.16,897.94,1198.51,897.94,1200.88Z" transform="translate(-599.2 -1004.62)"/><circle class="cls-3" cx="148.16" cy="148.1" r="26.67"/><path class="cls-4" d="M800.79,1113.93a87.85,87.85,0,0,1,19.78,3.52,91.07,91.07,0,0,1,18.46,8l4.75-8.25,2.86-5,4.54-7.89a114.24,114.24,0,0,0-23.59-10.16,112.77,112.77,0,0,0-25.3-4.52,111.58,111.58,0,0,0-50.33,8.66,113.75,113.75,0,0,0-24.74,14.49,111.49,111.49,0,0,0-42.39,101.46,112.36,112.36,0,0,0,2.61,14.14A117.66,117.66,0,0,0,691.9,1242a111.27,111.27,0,0,0,33.71,45.78l4.94-6.16,0.78-1,3.59-4.48,3.5-4.35,2.45-3A86.87,86.87,0,0,1,714.56,1233a95.24,95.24,0,0,1-3.5-10.68,92,92,0,0,1-2-11,86.54,86.54,0,0,1,.19-22.38,89.1,89.1,0,0,1,5.31-20.07c-0.5-1-.95-2-1.36-3.09a36.62,36.62,0,0,1-2.39-13,35.08,35.08,0,0,1,.44-5.61,35.72,35.72,0,0,1,2.67-9.11,36.63,36.63,0,0,1,15.85-17.31l0.19-.12c0.38-.21.78-0.41,1.18-0.59a36.14,36.14,0,0,1,16.23-3.82c0.37,0,.74,0,1.1,0a35.54,35.54,0,0,1,9.61,1.59c0.78,0.23,1.55.49,2.31,0.78l0.23,0.09c1,0.37,1.91.8,2.84,1.26A86.86,86.86,0,0,1,800.79,1113.93ZM692.56,1188a6.26,6.26,0,0,1,1.89-3.79,6.36,6.36,0,0,1,4.48-1.85,5.63,5.63,0,0,1,.8.05,5.81,5.81,0,0,1,.85.17,6.4,6.4,0,0,1,4.77,6.2,5.63,5.63,0,0,1-.05.8,6.4,6.4,0,0,1-6.28,5.62h-0.08c-0.27,0-.53,0-0.8,0A6.43,6.43,0,0,1,692.56,1188Zm1.94,29.79a6.4,6.4,0,0,1-1.91-3.8h0a5.66,5.66,0,0,1-.05-0.8,6.44,6.44,0,0,1,.95-3.36,6.37,6.37,0,0,1,4.67-3,5.9,5.9,0,0,1,.82-0.05H699a6.4,6.4,0,0,1,6.28,5.61,5.87,5.87,0,0,1,.05.82,6.4,6.4,0,0,1-4.74,6.17,5,5,0,0,1-.87.18,5.81,5.81,0,0,1-.81.05,6.4,6.4,0,0,1-4.22-1.59ZM713,1253a7.2,7.2,0,0,1,.78-0.49,6.41,6.41,0,0,1,7.47,10.25,4.51,4.51,0,0,1-.69.6A6.42,6.42,0,0,1,713,1253Zm-2-18.53a6.38,6.38,0,0,1-2.77,7.93,6.06,6.06,0,0,1-.82.4,6.39,6.39,0,0,1-2.36.46,6.47,6.47,0,0,1-3.13-.81l-0.44-.27a6.42,6.42,0,0,1,1.19-11.31,5.52,5.52,0,0,1,.86-0.27,6.13,6.13,0,0,1,1.51-.19A6.41,6.41,0,0,1,711,1234.44Z" transform="translate(-599.2 -1004.62)"/><path class="cls-4" d="M902.05,1167.93a114.18,114.18,0,0,0-10.38-23.49l-7.85,4.59-5,2.91-8.23,4.81a89.91,89.91,0,0,1,8.15,18.39,88.37,88.37,0,0,1,3.67,19.74l9.52-.65,5.74-.4,9.06-.63A112.82,112.82,0,0,0,902.05,1167.93Z" transform="translate(-599.2 -1004.62)"/><path class="cls-4" d="M875.68,1254.89l-7.92-5.33a83.54,83.54,0,0,1-14.68,16.74,86.09,86.09,0,0,1-18.48,12.44,87.07,87.07,0,0,1-43.22,9.2l-0.46,9.51-0.28,5.75-0.44,9.1a111.72,111.72,0,0,0,55.33-11.76,110.18,110.18,0,0,0,23.65-15.93A108.5,108.5,0,0,0,888,1263.18l-7.56-5.08Z" transform="translate(-599.2 -1004.62)"/><path class="cls-4" d="M773.7,1135a32.65,32.65,0,0,0-15.77-13.26,31.1,31.1,0,0,0-11.49-2.18c-17.77,0-32.24,14.87-32.24,33.15a33.29,33.29,0,0,0,4.88,17.51,32.32,32.32,0,0,0,6.07,7.35,30.85,30.85,0,0,0,4,3.09,31.35,31.35,0,0,0,17.31,5.21l1.23,0a29.94,29.94,0,0,0,5.06-.62,27.57,27.57,0,0,0,3.07-.78,32.83,32.83,0,0,0,21.64-22.55,31.72,31.72,0,0,0,.72-3.13,33.26,33.26,0,0,0,.53-5.11c0-.31,0-0.63,0-0.95A33.57,33.57,0,0,0,773.7,1135Zm0.58,28.53a30.25,30.25,0,0,1-17,17.66,27.85,27.85,0,0,1-3.4,1.14,28.72,28.72,0,0,1-7.47,1,28.39,28.39,0,0,1-8.12-1.18,18.23,18.23,0,0,1-2-.65A29.42,29.42,0,0,1,726,1175a29.94,29.94,0,0,1-5.74-7.66,30.89,30.89,0,0,1-3.61-14.58c0-16.86,13.33-30.58,29.74-30.58a28.6,28.6,0,0,1,8.29,1.22,30.05,30.05,0,0,1,18.6,16.26,29.2,29.2,0,0,1,1.77,4.89,31.21,31.21,0,0,1,.23,15.55A28.61,28.61,0,0,1,774.28,1163.54Z" transform="translate(-599.2 -1004.62)"/><path class="cls-3" d="M949.36,1231.9a156.78,156.78,0,0,1-194,120.68l9.82-37.23a118.6,118.6,0,0,0,127.62-46.95,117.56,117.56,0,0,0,18.78-44.11,120.42,120.42,0,0,0,.86-42.19,117.77,117.77,0,0,0-14.05-39.77l11.23-6.4,22.22-12.65A156,156,0,0,1,950.49,1176,158.86,158.86,0,0,1,949.36,1231.9Z" transform="translate(-599.2 -1004.62)"/><path class="cls-4" d="M931.8,1123.32c-2.66,1.51-5.31,3-8,4.54A148,148,0,0,0,870,1073.25l4.63-7.93A156.92,156.92,0,0,1,931.8,1123.32Z" transform="translate(-599.2 -1004.62)"/><path class="cls-5" d="M952.44,1200.88c0,1.24,0,2.49-.05,3.72s-0.08,2.62-.14,3.93a153.32,153.32,0,0,1-1.54,15.64c-0.37,2.55-.82,5.08-1.32,7.6,0,0,0,.09,0,0.13l-0.12.56c-0.21,1-.41,2-0.63,2.94s-0.49,2.1-.76,3.16c-0.12.5-.24,1-0.37,1.49a4.82,4.82,0,0,1-.15.58q-0.31,1.23-.65,2.46c-0.27,1-.54,1.91-0.83,2.86s-0.6,2-.92,3c-0.23.74-.47,1.49-0.73,2.22-0.19.58-.4,1.14-0.59,1.71a0.34,0.34,0,0,1-.06.17A157.84,157.84,0,0,1,880,1333c-0.94.6-1.89,1.19-2.84,1.78-0.28.18-.56,0.36-0.86,0.51-0.92.56-1.85,1.1-2.78,1.64-0.54.32-1.09,0.63-1.64,0.94s-0.85.47-1.27,0.69c-0.94.53-1.89,1-2.84,1.53s-1.73.89-2.61,1.32c-0.35.18-.71,0.36-1.07,0.53-0.78.38-1.58,0.76-2.37,1.13-0.56.27-1.14,0.54-1.73,0.8q-1.37.64-2.77,1.23c-1.41.6-2.84,1.19-4.26,1.76q-1.31.52-2.62,1c-1.53.58-3.05,1.13-4.59,1.64a156.33,156.33,0,0,1-50.27,8.25c-1.69,0-3.4,0-5.1-.08h-0.26c-2.39-.08-4.76-0.22-7.14-0.41h-0.22a156.88,156.88,0,0,1-27.43-4.67v0l2.32-8.84h0a147.7,147.7,0,0,0,37.78,4.88c81.47,0,147.73-66.26,147.73-147.73a147.6,147.6,0,0,0-19.42-73c2.66-1.53,5.31-3,8-4.54a156.74,156.74,0,0,1,20.61,75C952.42,1199.14,952.44,1200,952.44,1200.88Z" transform="translate(-599.2 -1004.62)"/><path class="cls-4" d="M647.79,1200.89h-9.18c0-86.52,70.39-156.91,156.91-156.91v9.18C714.06,1053.16,647.79,1119.43,647.79,1200.89Z" transform="translate(-599.2 -1004.62)"/><path class="cls-3" d="M952.44,1200.88c0,1.24,0,2.49-.05,3.72s-0.08,2.62-.14,3.93c-0.26,5.24-.78,10.46-1.54,15.64-0.38,2.54-.82,5.08-1.32,7.6,0,0,0,.09,0,0.13l-0.12.56c-0.21,1-.41,2-0.63,2.94s-0.49,2.1-.76,3.16c-0.12.5-.24,1-0.37,1.49a4.82,4.82,0,0,1-.15.58q-0.31,1.23-.65,2.46c-0.27,1-.54,1.91-0.83,2.86s-0.59,2-.92,3c-0.23.74-.47,1.49-0.73,2.22-0.19.58-.4,1.14-0.59,1.71a0.34,0.34,0,0,1-.06.17,154.89,154.89,0,0,1-19.07,37.33A157,157,0,0,1,880,1333c-0.54.37-1.08,0.72-1.63,1.05-0.4.24-.8,0.5-1.21,0.73s-0.56.36-.86,0.51c-0.92.56-1.85,1.1-2.78,1.64-0.54.32-1.09,0.63-1.64,0.94s-0.85.47-1.27,0.69c-0.94.53-1.89,1-2.84,1.53s-1.73.89-2.61,1.32c-0.35.18-.71,0.36-1.07,0.53-0.78.38-1.58,0.76-2.37,1.13-0.56.27-1.14,0.54-1.73,0.8q-1.37.64-2.77,1.23c-1.41.6-2.84,1.19-4.26,1.76q-1.31.52-2.62,1c-1.53.58-3.05,1.13-4.59,1.64a154.85,154.85,0,0,1-55.37,8.18h-0.26c-2.39-.08-4.76-0.22-7.14-0.41h-0.22a159.68,159.68,0,0,1-27.41-4.71c0.78-3,1.55-5.89,2.34-8.84l4.2-15.89a131.76,131.76,0,0,0,33.59,4.34c72.4,0,131.3-58.91,131.3-131.3a131.29,131.29,0,0,0-17.17-65l14.18-8.07c2.66-1.53,5.31-3,8-4.54l0.06,0A156,156,0,0,1,950.49,1176a154.12,154.12,0,0,1,1.93,22.28C952.42,1199.14,952.44,1200,952.44,1200.88Z" transform="translate(-599.2 -1004.62)"/><path class="cls-4" d="M923.83,1127.85" transform="translate(-599.2 -1004.62)"/><path class="cls-4" d="M660.53,1200.89H658c0-75.85,61.71-137.56,137.56-137.56v2.57C721.08,1065.89,660.53,1126.45,660.53,1200.89Z" transform="translate(-599.2 -1004.62)"/><path class="cls-4" d="M681.74,1199.52l-6.42-.08q0-1.33.06-2.65l6.41,0.22Q681.75,1198.26,681.74,1199.52Zm0.33-7.51-6.4-.5q0.1-1.32.23-2.64l6.39,0.63Q682.17,1190.75,682.07,1192Zm0.83-7.48-6.35-.92q0.19-1.31.41-2.62l6.33,1.05Q683.07,1183.29,682.89,1184.53Zm1.32-7.41-6.28-1.33q0.28-1.3.58-2.59l6.25,1.47Q684.47,1175.89,684.21,1177.12Zm1.81-7.3-6.17-1.75q0.36-1.27.75-2.54l6.13,1.88Q686.36,1168.61,686,1169.82Zm2.29-7.17-6-2.16q0.45-1.25.92-2.49l6,2.29Q688.73,1161.47,688.31,1162.66Zm2.76-7-5.89-2.55q0.53-1.21,1.08-2.41l5.83,2.68Q691.56,1154.52,691.07,1155.67Zm3.21-6.78-5.7-2.94q0.6-1.17,1.23-2.33l5.64,3.06Q694.85,1147.77,694.27,1148.89Zm3.66-6.56-5.5-3.31q0.68-1.13,1.39-2.25l5.42,3.43Q698.58,1141.26,697.93,1142.33ZM702,1136l-5.27-3.66q0.75-1.09,1.53-2.16l5.19,3.78Q702.73,1135,702,1136Zm4.49-6-5-4q0.83-1,1.67-2.05l4.93,4.11Q707.28,1129,706.5,1130Zm4.88-5.72-4.74-4.32q0.89-1,1.81-1.94l4.65,4.43Q712.23,1123.35,711.38,1124.27Zm5.25-5.39-4.45-4.62q1-.92,1.93-1.82l4.35,4.72Q717.54,1118,716.63,1118.88Zm5.59-5-4.14-4.91q1-.85,2-1.69l4,5Q723.18,1113,722.22,1113.84Zm5.91-4.66-3.8-5.17q1.07-.78,2.15-1.55l3.69,5.25Q729.15,1108.44,728.13,1109.18Zm6.21-4.26-3.46-5.41q1.12-.72,2.25-1.41l3.33,5.48Q735.4,1104.24,734.35,1104.92Zm117-3.22q-1.09-.61-2.19-1.21l3-5.66q1.16,0.62,2.32,1.27Zm-110.51-.62-3.09-5.62q1.16-.64,2.34-1.25l3,5.69Q741.93,1100.47,740.83,1101.08Zm103.85-2.85-2.27-1.06,2.65-5.84q1.2,0.55,2.39,1.12Zm-97.13-.56-2.71-5.82q1.2-.56,2.42-1.1l2.58,5.88Q748.69,1097.14,747.55,1097.67Zm90.26-2.46q-1.16-.47-2.34-0.91l2.26-6q1.24,0.47,2.47,1Zm-83.32-.49-2.32-6q1.24-.48,2.49-0.93l2.18,6Q755.66,1094.26,754.49,1094.72Zm76.25-2.07-2.39-.75,1.85-6.14q1.27,0.38,2.53.79Zm-69.13-.41-1.91-6.13q1.26-.39,2.54-0.76l1.77,6.17Zm61.9-1.67-2.44-.59,1.43-6.26q1.3,0.3,2.58.62Zm-54.65-.33-1.5-6.24q1.29-.31,2.58-0.59l1.36,6.27Zm47.3-1.27-2.47-.42,1-6.34q1.31,0.21,2.61.45Zm-39.93-.24-1.08-6.33,2.62-.42,0.94,6.35Q777.46,1088.51,776.23,1088.72Zm32.49-.87-2.5-.26,0.6-6.39,2.64,0.28Zm-25-.15-0.66-6.38,2.64-.24,0.52,6.4Zm17.54-.47-2.51-.1,0.18-6.41,2.65,0.1Zm-10-.06-0.24-6.41q1.32-.05,2.65-0.07l0.1,6.42Z" transform="translate(-599.2 -1004.62)"/><path class="cls-4" d="M668.11,1179.57l-1.27-.22,0.11-.63a129.84,129.84,0,0,1,6-22.59l0.22-.6,1.21,0.44-0.22.6a128.55,128.55,0,0,0-5.95,22.37Zm15-42.26-1.11-.64,0.32-.56A131.13,131.13,0,0,1,695.67,1117l0.41-.49,1,0.83-0.41.49a129.91,129.91,0,0,0-13.26,19Zm28.53-34.61-0.83-1,0.49-.41a131.06,131.06,0,0,1,19.12-13.46l0.56-.32,0.64,1.11L731,1089a129.78,129.78,0,0,0-18.93,13.33Zm38.62-22.81-0.44-1.2,0.6-.22a129.88,129.88,0,0,1,22.57-6.08l0.63-.11,0.22,1.26-0.63.11a128.59,128.59,0,0,0-22.35,6Z" transform="translate(-599.2 -1004.62)"/><g class="cls-6"><path class="cls-4" d="M943.47,1201.25v-0.93a148,148,0,0,0-29.57-88.2,150.44,150.44,0,0,0-47.36-41.05A145.21,145.21,0,0,0,837.49,1059a150,150,0,0,0-62.49-4.62l-0.92.13-6.64-47.91,0.92-.13a198.94,198.94,0,0,1,82.83,6.14,193.54,193.54,0,0,1,38.62,16,198.83,198.83,0,0,1,62.77,54.41,196.38,196.38,0,0,1,39.26,117.07v0.93Zm-148-150.12a150.82,150.82,0,0,1,42.59,6.09,147.05,147.05,0,0,1,29.42,12.22A152.29,152.29,0,0,1,915.39,1111a149.86,149.86,0,0,1,29.94,88.38l44.65-.17a194.51,194.51,0,0,0-38.89-115,196.94,196.94,0,0,0-62.18-53.9,191.65,191.65,0,0,0-38.24-15.89,197.08,197.08,0,0,0-81.13-6.21l6.13,44.23A151.78,151.78,0,0,1,795.43,1051.12Z" transform="translate(-599.2 -1004.62)"/><path class="cls-4" d="M600.89,1226.27l-0.13-.9c-0.51-3.46-.76-7-1-10.38l-0.17-2.22c-0.14-1.46-.17-2.94-0.2-4.37,0-.65,0-1.3-0.05-1.95s0-1.41-.05-2.11c0-1.41-.08-2.82-0.06-4.23l0.25-9.45,0.72-9.46c0.16-1.49.35-2.94,0.53-4.4l0.24-1.9a194.18,194.18,0,0,1,13-48.84c0.5-1.34,1.11-2.67,1.7-4,0.28-.61.56-1.22,0.83-1.84s0.6-1.32.89-2c0.56-1.26,1.14-2.55,1.8-3.81l0.86-1.69c1.6-3.14,3.25-6.38,5.1-9.47a191.28,191.28,0,0,1,13.95-21.08l0.84-1.07c2.28-2.92,4.64-5.94,7.17-8.76s5-5.6,7.56-8.25l1-1a192.66,192.66,0,0,1,18.9-16.84l0.73-.56,29.83,38.08-0.75.57a144,144,0,0,0-14.26,12.69l-1.32,1.38c-1.73,1.81-3.51,3.67-5.12,5.62s-3.34,4-4.89,5.93l-1.18,1.5a144.83,144.83,0,0,0-10.5,15.89c-1.28,2.1-2.4,4.31-3.49,6.45l-1,2c-0.47.87-.86,1.76-1.27,2.69-0.24.55-.48,1.09-0.73,1.63s-0.45,1-.69,1.52c-0.44,1-.86,1.85-1.2,2.8a146.15,146.15,0,0,0-9.82,36.77l-0.6,4.77-0.54,7.15-0.19,7.17c0,1,0,2,0,2.95,0,0.61,0,1.22,0,1.83s0,1.07,0,1.62c0,1.07,0,2.09.14,3.1,0.07,0.82.13,1.62,0.19,2.42,0.17,2.34.35,4.77,0.71,7.11l0.15,0.95ZM675,1048.32a193.28,193.28,0,0,0-18,16.1l-1,1c-2.52,2.63-5.13,5.35-7.5,8.19s-4.85,5.79-7.11,8.68l-0.83,1.06a189.71,189.71,0,0,0-13.82,20.89c-1.83,3.05-3.47,6.27-5.05,9.38l-0.87,1.71c-0.64,1.21-1.2,2.48-1.75,3.71-0.3.66-.59,1.32-0.9,2s-0.55,1.23-.83,1.85c-0.58,1.26-1.17,2.56-1.66,3.86a192.37,192.37,0,0,0-12.93,48.4l-0.24,1.91c-0.18,1.44-.37,2.89-0.53,4.33l-0.71,9.39-0.25,9.39c0,1.37,0,2.76.06,4.14,0,0.7,0,1.4.05,2.11s0,1.3.05,2c0,1.4.06,2.85,0.2,4.25l0.17,2.24c0.23,3.07.46,6.24,0.88,9.35l44.3-5.52c-0.28-2.11-.44-4.24-0.59-6.31-0.06-.79-0.12-1.58-0.18-2.38-0.12-1.08-.13-2.18-0.15-3.25,0-.53,0-1.07,0-1.6s0-1.22,0-1.82c0-1-.06-2-0.05-3l0.19-7.23,0.55-7.24,0.6-4.81A147.89,147.89,0,0,1,657,1143.8c0.35-1,.81-2,1.25-2.91,0.23-.5.46-1,0.68-1.5s0.49-1.08.73-1.61c0.41-.93.83-1.89,1.33-2.81l1-2c1.11-2.17,2.25-4.41,3.54-6.54a146.65,146.65,0,0,1,10.64-16.09l1.19-1.51c1.57-2,3.19-4.07,4.94-6s3.43-3.86,5.18-5.69l1.33-1.4a149.45,149.45,0,0,1,13.71-12.3Z" transform="translate(-599.2 -1004.62)"/><path class="cls-4" d="M736.75,1388.25l-0.89-.28a196.56,196.56,0,0,1-75.43-44.67l-0.67-.64,33.3-35.09,0.67,0.65a148,148,0,0,0,56.82,33.67l0.88,0.28Zm-74.36-45.66a194.72,194.72,0,0,0,73.15,43.32l13.56-42.54a150,150,0,0,1-56-33.16Z" transform="translate(-599.2 -1004.62)"/><path class="cls-4" d="M800.27,1397.16l-1.41-48.35,0.93,0A149.1,149.1,0,0,0,881.92,1321a147.61,147.61,0,0,0,52.43-69l0.32-.88,45.39,16.72-0.32.87a195.23,195.23,0,0,1-47.24,72.85,211.08,211.08,0,0,1-22.37,18.7,197.9,197.9,0,0,1-108.93,36.84Zm0.5-46.54,1.3,44.63a196,196,0,0,0,107-36.46,209,209,0,0,0,22.16-18.53A193.38,193.38,0,0,0,977.67,1269l-41.89-15.43a149.51,149.51,0,0,1-52.77,69A151,151,0,0,1,800.77,1350.62Z" transform="translate(-599.2 -1004.62)"/></g><path class="cls-4" d="M807.87,1046.71A155.9,155.9,0,0,1,861,1060.82l2-4.37a160.74,160.74,0,0,0-54.77-14.55Z" transform="translate(-599.2 -1004.62)"/><path class="cls-4" d="M808.71,1036.26a166.39,166.39,0,0,1,56.71,15.06l3.45-7.37a171.48,171.48,0,0,1,50.27,35.53l3.44-3.39a178.83,178.83,0,0,0-101.4-51.45c-1.89-.34-3.8-0.5-5.71-0.72s-3.81-.47-5.72-0.58a186.57,186.57,0,0,0-26.05-.18,192.53,192.53,0,0,0-25.79,3.64l1,4.72A187.71,187.71,0,0,1,784,1028a181.78,181.78,0,0,1,25.34.17Z" transform="translate(-599.2 -1004.62)"/><path class="cls-4" d="M746.76,1044a163,163,0,0,0-62.44,35.91l6.54,7.11a153.32,153.32,0,0,1,58.77-33.8Z" transform="translate(-599.2 -1004.62)"/><path class="cls-4" d="M679.26,1084.8c-3.08,3-5.9,6.23-8.76,9.44l-4.06,5c-1.37,1.65-2.57,3.44-3.86,5.15a166.9,166.9,0,0,0-13.45,21.93,174.12,174.12,0,0,0-9.84,23.77,160.4,160.4,0,0,0-6,25l9.54,1.52a150.78,150.78,0,0,1,5.66-23.55,164.52,164.52,0,0,1,9.26-22.38A157.25,157.25,0,0,1,670.4,1110c1.22-1.61,2.34-3.29,3.64-4.85l3.82-4.7c2.69-3,5.34-6.06,8.24-8.88Z" transform="translate(-599.2 -1004.62)"/><path class="cls-4" d="M678.66,1302.21a169.4,169.4,0,0,1-13.91-18.69,171.93,171.93,0,0,1-10.9-20.59,175.21,175.21,0,0,1-7.71-22l-1.23-5.11-0.62-2.56-0.49-2.58-1-5.16-0.71-5.21-0.36-2.6-0.22-2.62-0.44-5.23-0.18-5.25c0-.87-0.08-1.75-0.08-2.62l0-2.62-9.66-.09,0,2.79c0,0.93.06,1.86,0.08,2.79l0.19,5.58,0.47,5.56,0.24,2.78,0.38,2.77,0.76,5.53,1,5.49,0.52,2.74,0.65,2.71,1.31,5.43a184.66,184.66,0,0,0,8.18,23.38,181.41,181.41,0,0,0,11.59,21.89,178.93,178.93,0,0,0,14.79,19.87A170.5,170.5,0,0,0,689,1326l6.26-7.36A160.9,160.9,0,0,1,678.66,1302.21Z" transform="translate(-599.2 -1004.62)"/><path class="cls-4" d="M742.42,1346.16A155.91,155.91,0,0,1,695,1318.37l-3.14,3.67a160.74,160.74,0,0,0,48.89,28.66Z" transform="translate(-599.2 -1004.62)"/><path class="cls-4" d="M738.82,1356a166.39,166.39,0,0,1-50.62-29.67l-5.29,6.18A171.47,171.47,0,0,1,644,1284.84l-4.22,2.34a178.82,178.82,0,0,0,84,76.68c1.73,0.83,3.53,1.5,5.31,2.22s3.55,1.47,5.36,2.09a186.6,186.6,0,0,0,25.06,7.13,192.54,192.54,0,0,0,25.82,3.39l0.27-4.82a187.74,187.74,0,0,1-25.12-3.3,181.76,181.76,0,0,1-24.37-6.94Z" transform="translate(-599.2 -1004.62)"/><path class="cls-4" d="M784.83,1364.81A163,163,0,0,0,856,1353.66l-3.56-9a153.32,153.32,0,0,1-67,10.49Z" transform="translate(-599.2 -1004.62)"/><path class="cls-4" d="M862.46,1350.93c3.95-1.69,7.74-3.7,11.56-5.67l5.58-3.21c1.87-1.05,3.63-2.29,5.45-3.42A166.89,166.89,0,0,0,905.46,1323a174.17,174.17,0,0,0,17.71-18.67,160.46,160.46,0,0,0,14.58-21.19l-8.36-4.84a150.78,150.78,0,0,1-13.73,20A164.54,164.54,0,0,1,899,1315.8a157.22,157.22,0,0,1-19.22,14.74c-1.72,1.07-3.37,2.24-5.13,3.22l-5.25,3c-3.59,1.85-7.16,3.75-10.87,5.33Z" transform="translate(-599.2 -1004.62)"/><path class="cls-4" d="M958,1176.19a181.45,181.45,0,0,0-5.53-24.14,179,179,0,0,0-9.14-23,170.55,170.55,0,0,0-12.51-21.37l-7.95,5.49a160.89,160.89,0,0,1,11.78,20.11,169.37,169.37,0,0,1,8.6,21.65,171.89,171.89,0,0,1,5.2,22.71,175.2,175.2,0,0,1,1.74,23.26l-0.14,5.26-0.06,2.63-0.2,2.62-0.4,5.24-0.66,5.21-0.33,2.61-0.46,2.58-0.93,5.17-1.18,5.12c-0.2.85-.37,1.71-0.6,2.55l-0.72,2.52,9.3,2.59,0.76-2.68c0.24-.9.43-1.81,0.64-2.71l1.26-5.44,1-5.49,0.49-2.75,0.35-2.77,0.7-5.54,0.42-5.57,0.21-2.78,0.07-2.79,0.14-5.58A184.73,184.73,0,0,0,958,1176.19Z" transform="translate(-599.2 -1004.62)"/><path class="cls-4" d="M795.52,1319A118.26,118.26,0,0,1,677.4,1200.89c0-.47,0-0.95,0-1.42h1.28q0,0.7,0,1.4A116.84,116.84,0,1,0,852.83,1099l0.63-1.12A118.14,118.14,0,0,1,795.52,1319Z" transform="translate(-599.2 -1004.62)"/><g class="cls-7"><circle class="cls-4" cx="117.61" cy="253.54" r="4.58"/><circle class="cls-4" cx="105.83" cy="232.19" r="4.58"/><circle class="cls-4" cx="99.73" cy="208.57" r="4.58"/><circle class="cls-4" cx="99.75" cy="184.25" r="4.58"/></g><path class="cls-4" d="M752.36,1160.85h-10a8.13,8.13,0,0,1,0-16.25h10A8.13,8.13,0,0,1,752.36,1160.85Zm-10-15a6.84,6.84,0,0,0,0,13.69h10a6.84,6.84,0,0,0,0-13.69h-10Z" transform="translate(-599.2 -1004.62)"/><path class="cls-4" d="M752.43,1156.95H742.28a4.23,4.23,0,0,1-4.22-4.22h0a4.23,4.23,0,0,1,4.22-4.22h10.15a4.23,4.23,0,0,1,4.22,4.22h0A4.23,4.23,0,0,1,752.43,1156.95Z" transform="translate(-599.2 -1004.62)"/><path class="cls-8" d="M775.17,1144.69" transform="translate(-599.2 -1004.62)"/><path class="cls-4" d="M864.86,1200.88a69.37,69.37,0,1,1-135.73-20.21c0.14-.46.28-0.94,0.44-1.4l6.75,2.21,2,0.65,9.54,3.13c-0.06.19-.13,0.4-0.18,0.59a50.06,50.06,0,1,0,31-32.19l-0.23.08-3.35-9.24a29.2,29.2,0,0,0-1.77-4.89l-1.44-4,1.81-.63A69.46,69.46,0,0,1,864.86,1200.88Z" transform="translate(-599.2 -1004.62)"/><path class="cls-4" d="M795.49,1155.35a45.36,45.36,0,0,0-17.34,3.43c-0.95.4-1.9,0.82-2.82,1.28a28.61,28.61,0,0,1-1.05,3.48c1-.59,2.08-1.13,3.16-1.63a42.55,42.55,0,0,1,18.06-4,43,43,0,1,1-39.7,26.54c0.46-1.12,1-2.19,1.51-3.26a27.85,27.85,0,0,1-3.4,1.14c-0.44.95-.82,1.93-1.18,2.9A45.53,45.53,0,1,0,795.49,1155.35Z" transform="translate(-599.2 -1004.62)"/></g></g></g></svg>