<svg preserveAspectRatio="none" xmlns="http://www.w3.org/2000/svg" viewBox="0 0 196.48 188.59"><defs><style>.cls-2{mix-blend-mode:overlay}.cls-3{fill:#0ff}.cls-4{opacity:.46}.cls-5{opacity:.28}.cls-6{opacity:.6}.cls-7{opacity:.85}</style></defs><g style="isolation:isolate"><g id="Layer_1" data-name="Layer 1"><g id="_编组_" data-name="&lt;编组&gt;"><g id="_编组_2" data-name="&lt;编组&gt;" class="cls-2"><g id="_编组_3" data-name="&lt;编组&gt;"><g id="_编组_4" data-name="&lt;编组&gt;"><circle class="cls-3" cx="77.33" cy="77.33" r="9.9" id="_编组_5" data-name="&lt;编组&gt;"/></g></g><g id="_编组_6" data-name="&lt;编组&gt;"><g id="_编组_7" data-name="&lt;编组&gt;"><path class="cls-3" d="M725.21 424.54a16.4 16.4 0 1116.4-16.4 16.42 16.42 0 01-16.4 16.4zm0-31.81a15.41 15.41 0 1015.41 15.41 15.43 15.43 0 00-15.41-15.41z" transform="translate(-647.88 -330.81)" id="_编组_8" data-name="&lt;编组&gt;"/></g></g><g id="_编组_9" data-name="&lt;编组&gt;"><g id="_编组_10" data-name="&lt;编组&gt;"><path class="cls-3" d="M725.21 481.65a73.51 73.51 0 1173.51-73.51 73.6 73.6 0 01-73.51 73.51zm0-146.53a73 73 0 1073 73 73.1 73.1 0 00-73-73z" transform="translate(-647.88 -330.81)" id="_编组_11" data-name="&lt;编组&gt;"/></g></g><g id="_编组_12" data-name="&lt;编组&gt;"><g id="_编组_13" data-name="&lt;编组&gt;"><path class="cls-3" d="M725.28 485.47h-.58v-3.95h.56v3.92zm-1.52 0h-.53l.1-3.95h.49l.11.11zm2.46 0l-.05-4h.51l.08 3.92h-.58zm1.51 0l-.12-3.95h.55l.15 3.92h-.58zm-5.49 0h-.58l.18-3.94h.48zm7 0l-.2-3.95h.55l.23 3.91h-.54zm-8.52 0h-.5l.26-3.94h.48zm10-.07l-.28-3.94h.55l.3 3.91zm-11.55 0h-.51l.33-3.94h.52zm15.13-.08l-.06-.22h-.51l-.43-3.92h.55l.46 3.9v.22zm-2.07 0l-.36-3.94h.47l.38 3.9h-.5zm-14.58 0l-.5-.05.41-3.93.47.05h.05zm-1.5-.17l-.51-.06.46-4.09.55.08zm19.1-.12l-.51-3.92.55-.07.53 3.88h-.07zm-20.61-.07l-.44-.06h-.1l.56-3.91h.51zm22.11-.15l-.59-3.9.47-.07.61 3.87h-.28zm-23.62-.07l-.5-.09.64-3.9h.19l.32.05zm25.11-.17l-.66-3.9.47-.08.68 3.86h-.07l-.47.08zm-26.63-.09h-.5l.72-3.88.55.09zm28.12-.18l-.73-4.08.47-.09.76 3.84zm-29.6-.09l-.5-.1.8-3.87.47.09zm31.09-.21l-.82-3.86.49-.11v-.28l.9 4.13v.06-.24l-.46.1zm-32.58-.1h-.21l-.32-.07.87-3.86.44.1h.07zm34.06-.23l-.89-3.84.2-.05.27-.06h.06l.91 3.81-.49.12zm-35.63 0v-.08l-.22-.05-.24-.06.93-3.8.43.11.06-.24v.29l-.91 3.8zm37.11-.32l-1-3.83.47-.12v.05l1 3.78-.49.12zm-38.43-.35l-.49-.13 1-3.82.47.12zm40-.26l-1-3.81.41-.12h.09l1.06 3.77-.49.14zm-41.42-.13h-.2l-.37-.11 1.09-3.8.39.11h.1l.2.06h-.2zm42.88-.29l-1.21-3.8.43-.13h.07l1.14 3.75h-.07l-.46.14zm-44.33-.13l-.58-.19 1.17-3.78.44.13v.05l.1.16-.12-.1zm45.79-.32l-1.2-3.76.46-.14 1.21 3.73-.19.07-.33.11zm-47.25-.14l-.16-.06-.35-.12 1.24-3.75.15.05.31.1h.06zm48.69-.33l-1.27-3.74.45-.16 1.29 3.71zm-50.14-.15l-.48-.16 1.31-3.73.45.16zm52.1-.3l-.05-.22-.39.14-1.34-3.71.28-.1.22-.07 1.21 3.71v.24zm-53.53-.22h-.06l-.21-.07-.25-.1 1.39-3.7.45.16zm54.43-.36l-1.42-3.69.42-.16h.18-.1l1.42 3.63h-.07zm-55.85-.18h-.06l-.22-.09-.23-.09 1.47-3.67.45.18zm57.27-.38l-1.49-3.66.22-.09.19-.08h.18-.1l1.49 3.59-.34.14zm-58.69-.18l-.47-.2 1.54-3.63.44.18zm60.08-.4l-1.56-3.63.44-.19 1.55 3.54h.12-.11l-.36.16zm-61.48-.2h-.05l-.47-.21 1.6-3.61h.07l.4.18zm62.87-.41l-1.69-3.62.43-.2 1.64 3.56zm-64.3-.11v-.09h-.05v-.08l-.43-.2 1.68-3.57.14.07.29.13h.06l-1.64 3.56zm65.68-.53l-1.7-3.56.44-.22v-.06.06l1.7 3.5h-.1l-.38.18zm-67-.22l-.4-.2h-.07l1.75-3.54.4.2.05-.1v.13zm68.36-.44l-1.77-3.53.26-.13.2-.1 1.77 3.49-.45.23zm-69.71-.24l-.21-.1-.26-.14 1.82-3.51.4.2h.05l.13.16-.16-.11zm71.06-.45l-1.84-3.5.4-.21h.06l1.85 3.45-.45.24zm-72.41-.26l-.27-.14-.2-.11 1.89-3.47h.09l.36.2zm73.75-.47l-1.91-3.46.3-.17.14-.08 1.92 3.42zm-75.08-.27l-.12-.07-.32-.18 2-3.43.22.13.22.13.11.06h-.1zm76.4-.47l-2-3.4.21-.12.18-.11h.07l2 3.38v.06zm-77.72-.28l-.24-.14-.22-.13 2-3.4.41.24v.05zm79-.49l-2-3.38.24-.14.21-.11 2 3.33-.11.07-.35.21zm-80.32-.3h-.05l-.37-.23 2.09-3.35.41.25zm81.61-.5l-2.11-3.34.37-.24h.18-.06l2.09 3.27h-.07zm-82.91-.3l-.33-.22-.25-.07 2.16-3.31.4.26zm84.18-.52l-2.17-3.3.4-.26 2.19 3.28-.2.14-.25.16zm-85.46-.31l-.45-.3 2.2-3.24.11.07.32.22.13.06h-.13zm86.72-.54l-2.24-3.25.37-.26h.05l2.24 3.21h-.05zm-88.14-.21l.11-.16-.12-.09-.27-.19 2.27-3.19.19.14.16.11v.16l-2.22 3.1zm89.32-.71l-2.3-3.21.09-.07.32-.24 2.3 3.17-.41.3zm-90.44-.33l-.26-.19-.17-.13 2.35-3.18.45.32zm91.67-.56l-2.37-3.11.37-.28 2.36 3.12-.39.3zm-92.89-.35h-.05l-.37-.29 2.39-3.1.09.07.29.22v-.09.27-.07zm94.09-.56l-2.43-3.12.37-.3.26-.2-.19.22 2.41 3-.39.31zm-95.29-.37h-.06l-.28-.23-.11-.09 2.47-3.09.37.3-2.4 3zm96.48-.58l-2.49-3.07.2-.16.2-.16h.05l2.48 3zm-97.67-.37l-.45-.37 2.51-3h.06l.34.28.09.06h-.09zm98.84-.59l-2.54-3 .14-.13.24-.2.06-.06v.1l2.54 3zm-100-.38l-.38-.33 2.59-3 .26.23.13.11zm101.15-.6l-2.58-2.94.33-.29h.06l.05-.08 2.6 2.92-.38.33zm-102.29-.4l-.37-.33 2.65-2.93.33.3h.06-.07zm103.42-.61l-2.66-2.92.35-.32 2.67 2.9-.3.28zm-104.55-.4l-.33-.31 2.71-2.88.34.31-2.68 2.9zm105.66-.63l-2.69-2.85.34-.32v-.1l.06.06 2.71 2.83-.36.35zm-106.76-.41l-.24-.23-.14-.14 2.76-2.83.28.28.09.09zm107.86-.64l-2.78-2.81.34-.33 2.77 2.77-.16.16-.22.22zm-108.92-.39l-.09-.07-.16-.16-.18-.18 2.81-2.77.29.29.07.07-2.74 2.74v.06zm110-.68l-2.81-2.74.31-.32-.06-.09h.19l2.8 2.69-.35.36zm-111.08-.43l-.4-.42 2.86-2.72.19.2.12.12v.08zm112.12-.67l-2.88-2.7.19-.2.09-.15h.1v-.05.05l2.86 2.65-.35.37zm-113.17-.43h-.07l-.32-.35 2.89-2.64.37.4zm114.2-.68l-2.93-2.64.39-.45v.07l2.92 2.6-.18.2zm-115.22-.44l-.33-.37 3-2.61.32.35h.07l-.07.06zm116.22-.7l-3-2.59.32-.36h.05l3 2.52-.33.39zm-117.22-.45h-.07l-.07-.07-.24-.29 3-2.55.29.34h.07l-.07.06zm118.21-.71l-3-2.53.3-.36v-.05.07l3 2.48-.32.39zm-119.18-.45l-.28-.33-.06-.07 3.07-2.49.2.25.12.15zm120.14-.72l-3.09-2.47.2-.25.12-.16 3.08 2.43-.19.24zM664.49 456l-.31-.39 3.12-2.43.3.37zm122-.73l-3.13-2.41.14-.19.14-.18 3.13 2.35-.31.41zm-123-.47l-.23-.3-.09-.12 3.16-2.37.07.09.24.32zm123.87-.75l-3.15-2.33.32-.44 3.17 2.31-.3.41zm-124.78-.47l-.18-.26-.12-.17 3.21-2.3.14.19.14.2v.07zm125.67-.76l-3.22-2.29.28-.38 3.21 2.24-.07.16v-.05l-.09.12-.15.22zm-126.55-.48l-.18-.24-.13-.2 3.25-2.24.19.28.06.09h.09zm127.41-.77l-3.27-2.22.25-.37h.16l3.22 2.16-.14.22-.14.2zm-128.27-.48h-.11.07l-.26-.39 3.3-2.18.18.28.05.08v-.08.26-.09zm129.16-.76l-3.31-2.15.24-.37v-.14.09l3.29 2.1-.28.42zm-129.94-.47l-.16-.25-.11-.18 3.34-2.11.14.22.12.18zm130.76-.81L787.5 447l.34-.59v.15l3.32 2-.26.43zm-131.59-.47v-.06l-.26-.41 3.35-2 .16.26.09.13h.09l-3.44 2.12zm132.39-.83l-3.4-2 .16-.27.09-.13v-.14.09l3.36 2-.06.09-.22.38zm-133.14-.48l-.17-.29-.1-.18 3.39-2 .18.32v.08h.22l-.09.07zm133.9-.83l-3.4-1.94.24-.42.06-.16v.08l3.39 1.91-.11.2-.15.28zM657.74 446l-.16-.29-.11-.18 3.46-1.91.12.23.11.19h.11-.08v.13l-.05-.09zm135.4-.85l-3.44-1.87.22-.42v-.13.07-.06.11l3.44 1.84v.08l-.22.41zM657 444.64l-.11-.2-.13-.24 3.5-1.85.09.18.14.26v.08-.05zm136.85-.87l-3.5-1.82.05-.1.18-.35h.05l3.48 1.79-.07.14-.18.34zm-137.55-.47l-.22-.45 3.53-1.77.12.24.07.14v-.06.27-.09l-3.4 1.74h-.06zm138.24-.88l-3.54-1.76.08-.16.15-.3 3.52 1.71-.22.45zm-138.91-.47v-.09l-.18-.36 3.57-1.7.18.37v.09zm139.58-.9l-3.57-1.68.2-.44 3.55 1.64-.21.45zM655 440.58l-.22-.48 3.56-1.62.2.43zm140.86-.91l-3.61-1.61.11-.25.07-.14v-.08l3.58 1.57v.06zm-141.49-.46v-.13l-.16-.37 3.63-1.56.07.16.13.28v.31l-.05-.24zm142.1-.94l-3.64-1.54.18-.41h-.1.15l3.62 1.5c0 .09-.08.18-.11.27l-.09.2zm-142.69-.45c-.06-.16-.12-.31-.19-.47l3.66-1.48.09.22.09.21zm143.27-1l-3.67-1.47.09-.23.09-.22h-.1.11l3.65 1.42-.1.24c0 .08-.06.16-.09.24zm-143.85-.42l-.05-.06-.18-.47 3.66-1.41c.06.14.11.28.16.42v.05zm144.39-1l-3.69-1.4c0-.09.07-.18.11-.28l.06-.15.08-.18v.14l3.65 1.34v.13l-.16.42zm-144.92-.4l-.18-.47 3.71-1.35.1.29.08.19zm145.45-1l-3.73-1.31.16-.45.07-.12v.1l3.69 1.27-.07.18c0 .11-.08.23-.12.34zm-146-.45c-.05-.14-.1-.27-.14-.41v-.1l3.71-1.26.16.45zm146.46-1l-3.75-1.24.07-.23c0-.09.06-.18.09-.26l3.73 1.21-.16.48zm-146.94-.45c-.05-.16-.11-.31-.15-.48l3.73-1.19.17.52zm147.41-1l-3.77-1.17c0-.08 0-.16.07-.24l.13-.43v.19l3.73 1.13c0 .12-.07.23-.11.34zm-147.87-.44c-.05-.15-.1-.32-.14-.48l3.76-1.11c0 .15.09.3.13.45h.2zm148.31-1l-3.8-1.09.07-.25.07-.24 3.78 1.06-.14.49zm-148.74-.44l-.12-.43v-.08l3.78-1 .12.42v.07l-3.71 1h-.07zm149.14-1l-3.78-1v-.17l.08-.3.06-.22v.28l3.77 1c0 .09-.05.19-.07.28zm-149.54-.45c0-.16-.09-.32-.12-.47l3.83-1 .12.45v.25l-.06-.22zm149.91-1l-3.83-.95c0-.14.07-.3.1-.45v-.05l3.81.91v.06c0 .16-.08.32-.11.47zM650 426.32c0-.16-.08-.33-.11-.49l3.85-.89c0 .08 0 .15.05.23l.05.21v.31l-.05-.23-3.74.89zm150.62-1.08l-3.85-.87c0-.16.07-.32.1-.47l3.83.83c0 .17-.08.34-.11.5zm-151-.45h-.12l.1-.05c0-.15-.07-.3-.09-.45l3.84-.81.1.47zm151.29-1l-3.87-.8.1-.47 3.84.76v.18c0 .12 0 .24-.07.35zm-151.6-.45c0-.17-.07-.34-.1-.5l3.84-.74c0 .15.06.3.09.45v.3l-.06-.24zm151.89-1l-3.85-.71c0-.16.06-.31.09-.47l3.86.69v.11l-.08.42zm-152.17-.45v-.12c0-.14 0-.28-.07-.41l3.86-.66c0 .16.05.31.09.47zm152.44-1l-3.9-.64.08-.55 3.87.61zm-152.69-.45v-.5l3.91-.59c0 .11 0 .23.05.34v.17zm152.92-1.05l-3.91-.56v-.35l.09-.42v.27l3.86.53c0 .17 0 .34-.07.51zm-153.14-.45v-.07l-.07-.5 3.92-.51v.07c0 .13 0 .27.05.4v.08zM802 417.76l-3.92-.49.06-.47 3.86.4v.06q0 .24-.06.47zm-153.54-.45l-.06-.5 3.93-.43.06.55zm153.71-1.06l-3.93-.41v-.47l3.9.41zm-153.87-.45v-.5l3.94-.36v.75l-.05-.23zm154-1.06l-3.94-.33v-.48l3.91.3v.54zm-154.14-.45v-.06-.44l3.94-.28v.48zm154.26-1.06l-3.94-.26v-.52l3.91.26v.5zM648 412.77v-.55l3.95-.2v.47zm154.45-1.06l-3.95-.18v-.48l3.91.19zm-154.52-.45v-.06-.49l4-.13v.51zm154.54-1.06l-3.92-.1v-.48l3.92.11v.51zm-154.59-.45v-.51l3.92-.05v.48zm154.65-1.06h-3.92v-.65h3.92v.68zm-154.66-.45v-.55l3.92.05v.52h-3.92zm150.71-1.11v-.48l3.92-.08v.54zm-146.78-.34l-3.92-.11v-.51l3.95.1v.48zm146.75-1.1v-.51l3.92-.15V405v.48zm-146.68-.34l-3.94-.18v-.55l3.95.18v.48zm146.62-1.1v-.48l3.9-.23v.55zm-146.58-.35l-3.92-.22v-.12-.42l3.94.25v.48zm146.49-1.09v-.24-.28l3.9-.31v.57zm-146.4-.35l-3.92-.3v-.54l3.94.33v.37zm146.27-1.1v-.51l3.9-.39v.55zM652.13 401l-3.9-.41v-.5l3.93.41v.48zm146-1.09v-.75l.06.22 3.86-.45c0 .16 0 .31.05.47zm-145.82-.34l-3.92-.5v-.24-.26l3.92.49v.52zM798 398.5v-.58l3.88-.54c0 .16 0 .33.07.5zm-145.47-.33l-3.88-.53.08-.57 3.91.57v.1c0 .13 0 .27-.05.41zm145.27-1.09c0-.16 0-.32-.07-.47l3.87-.61v.06l.06.41v.09zm-145.06-.33l-3.87-.6.09-.57 3.9.64zm144.83-1.08l-.09-.54v-.24l.06.22 3.82-.68v.16c0 .12 0 .25.07.37zm-144.62-.35l-3.86-.68v-.25c0-.1 0-.19.05-.29l3.85.71c0 .13 0 .25-.07.37v.13zm144.37-1.07c0-.15-.06-.31-.09-.46l3.84-.76v.07c0 .13 0 .25.07.38v.12zm-144.07-.34l-3.84-.76c0-.15.06-.3.09-.43v-.11l3.87.79v.12l-.08.39zM797 392.82l-.06-.26V392l.06.22 3.79-.83c0 .14.07.28.09.42v.1zm-143.49-.33l-3.83-.83.13-.57 3.86.87zm143.18-1.08v-.07l-.1-.43 3.75-.9h.06v.06c0 .15.08.31.11.47zm-142.86-.33l-3.81-.91v-.11l.1-.43 3.83.95v.1l-.1.4zM796.34 390l-.06-.24-.06-.23 3.79-1v.07c0 .12.06.25.09.38v.11zm-142.23-.08v-.27l-3.77-1c0-.16.09-.33.13-.49l3.79 1zM796 388.63v-.16c0-.1-.05-.2-.09-.3h-.09.11l3.77-1.06v.07c0 .16.09.31.12.46zm-141.44-.33l-3.77-1.06v-.09c0-.14.08-.29.12-.43l3.8 1.09-.12.41zm141-1.05c0-.15-.09-.3-.13-.44v-.29l.06.22 3.71-1.12.15.51zM655 386.92l-3.75-1.14.06-.2c0-.09.06-.18.09-.26l3.77 1.17-.14.47zm140.2-1.05l-.07-.2-.09-.28v-.29l.06.22 3.69-1.2.16.48zm-139.77-.33l-3.73-1.21v-.06l.16-.46 3.75 1.24-.09.28zm139.32-1l-.18-.52 3.7-1.29.17.48zm-138.87-.34l-3.71-1.27.17-.48 3.72 1.31-.07.22-.1.27zm138.39-1l-.17-.47h-.2l3.84-1.42c0 .11.08.2.11.31l.07.2zm-137.91-.35l-3.67-1.36.05-.16.13-.35 3.7 1.39-.17.45zm137.41-1c-.05-.14-.11-.28-.16-.42V381l.05.24 3.61-1.42.18.47zm-137-.16l.07-.2-3.69-1.49.19-.48 3.63 1.45-.16.4zm136.49-1.18v-.09c0-.13-.11-.26-.16-.39l3.61-1.5v.06l.12.31.07.16zm-135.84-.35l-3.61-1.49a2.23 2.23 0 00.09-.22l.1-.22 3.64 1.54-.09.2-.1.24zm135.28-1l-.2-.44-.09-.18.12.12 3.58-1.58v.08l.2.46zm-134.75-.26v-.11l-3.57-1.56.08-.18c0-.09.09-.19.13-.28l3.57 1.6c0 .09-.07.18-.11.27l-.06.13zm134.17-1.05l-.17-.36v-.1l3.55-1.65.08.18.14.32zm-133.57-.26v-.12l-3.54-1.63v-.1l.19-.4 3.57 1.68-.2.43zm133-1l-.2-.42V376l3.52-1.71v.06l.2.42zm-132.3-.37l-3.53-1.71.16-.34.07-.14 3.55 1.75-.2.42zm131.67-.92l-.21-.41h-.11l3.61-1.85.22.45zm-131-.28l-.05-.1-3.5-1.79.24-.45 3.51 1.82c-.08.14-.14.28-.22.42v.13zm130.35-1c-.07-.14-.14-.28-.22-.42l3.45-1.85.24.44zm-129.73-.39l-3.54-1.91.24-.45 3.47 1.89-.19.35v.05zm129-.88l-.21-.39v-.22.09l3.38-1.91.11.2.13.24zm-128.31-.36h-.05l-3.42-1.92.25-.44 3.4 1.94-.08.14-.17.31zm127.6-.89c-.07-.14-.15-.26-.23-.4l3.38-2 .26.44zm-126.91-.37l-3.38-2h-.08.07v-.05h.07c.08-.14.16-.28.24-.41l3.4 2-.24.41zM788 370.2l-.07-.11-.17-.29v-.09l3.34-2.05.26.42zm-125.42-.38l-3.34-2.05.27-.44 3.33 2.07-.24.39zm124.71-.82l-.26-.4 3.29-2.12v.07l.25.39zm-123.95-.29v-.12l-3.28-2.1.27-.41 3.31 2.16zm123.17-.92l-.26-.4 3.26-2.17.21.32.09.13zm-122.37-.32v-.09l-3.25-2.17.28-.41 3.27 2.22-.27.4zm121.56-.87l-.22-.32v-.06l3.21-2.25.22.31.1.14zm-120.7-.38h-.08l-3.19-2.22.3-.41 3.22 2.29-.18.26zm119.87-.81l-.21-.3-.08-.14 3.16-2.31c.1.13.19.26.28.39zM665.81 365l-3.16-2.31c.05-.09.11-.16.17-.24l.14-.18 3.18 2.35-.28.39zm118.19-.76c-.09-.13-.19-.26-.29-.38l3.12-2.37v.07l.13.17.17.22zm-117.31-.35h-.05l-3.11-2.37.3-.39 3.13 2.41-.29.37v.06zm116.44-.8l-.28-.35V362.59l3-2.41.1.13.24.3zm-115.58-.38l-3.08-2.43.17-.21.16-.21 3.08 2.47-.3.37zm114.7-.71l-.12-.15-.2-.24 3-2.48.11.13.24.29zm-113.76-.34h-.05l-3-2.49.26-.31.09-.11 3 2.53-.32.39v.05zm112.84-.77l-.07-.08-.26-.3h-.07l.07-.06 3-2.54.14.17.18.22zm-111.93-.39l-3-2.54.23-.27.12-.15 3 2.56-.32.36zm111-.73l-.2-.23-.11-.12H780l3-2.66h.06l.28.32.07.07zm-110.06-.35l-2.92-2.6.18-.19.16-.18 2.91 2.62-.2.22zm109.1-.72l-.32-.35 2.89-2.68.35.39zm-108.13-.35l-2.87-2.66v-.09l.32-.34 2.88 2.7-.33.35zm107.14-.7l-.14-.15-.2-.2H778l.06-.06 2.83-2.71.35.37zm-106.16-.34l-2.83-2.71.23-.24.15-.16 2.83 2.76-.34.34zm105.16-.69l-.12-.13-.23-.23 2.77-2.77.26.26.13.13zm-104.12-.31l-2.77-2.77.35-.35 2.77 2.82-.2.2-.13.12v.07zm103.1-.71l-.2-.19-.17-.16 2.72-2.83.36.35zm-102.1-.33l-2.71-2.82.38-.45 2.72 2.87zm101.06-.66l-.35-.33v-.08l2.65-2.87.12.11.28.26zm-100-.34h-.11.06l-2.63-2.85v-.06l.35-.32 2.63 2.9-.34.31h-.08zm99-.64l-.41-.37 2.6-2.93.2.18.17.15zm-97.88-.33h-.07l-2.58-2.9.26-.23.14-.12 2.58 3-.34.3h-.08zm96.8-.62l-.36-.32 2.54-3 .32.28.09.08zm-95.7-.33l-2.54-3 .37-.32 2.55 3-.37.32zm94.6-.6l-.37-.31 2.48-3 .45.37zm-93.51-.3l-2.49-3 .14-.12.28-.23 2.49 3.08-.22.18zm92.4-.61l-.43-.34 2.43-3.08h.06l.3.24.1.08zm-91.28-.3l-2.42-3.07.29-.22.14-.11 2.42 3.11zm90.15-.59l-.07-.05-.34-.26 2.36-3.12.34.26.09.07zm-89-.29l-2.36-3.12.31-.23.1-.08 2.37 3.17-.36.27h-.06zm87.85-.58h-.06l-.35-.26 2.33-3.19h.07l.38.28zm-86.7-.29l-2.31-3.17v-.12.09l.37-.27 2.31 3.21-.35.26zm85.53-.56l-.24-.16-.14-.1v-.16l2.22-3.19v-.06.1l.18.13.21.15zm-84.46-.23l-2.24-3.2.41-.29 2.24 3.25-.11.09-.31.21zm83.2-.57l-.4-.27 2.18-3.26.33.1.11.08zm-82-.19l-2.24-3.35.37-.24.08-.06 2.18 3.3-.16.11-.26.18v.09zm80.75-.61l-.37-.24v.09-.12l-.12-.05h.13l2.1-3.29.46.29zm-79.59-.24l-2.08-3.39.43-.27 2.12 3.34-.4.26zm78.37-.53l-.41-.25h-.06.08l2-3.32v-.08.11l.41.26zm-77.15-.24l-2-3.35.3-.18.16-.1 2 3.35-.12.08-.32.19zm75.92-.52l-.41-.24 2-3.38.43.25zm-74.68-.23l-2-3.38.43-.26 2 3.42-.17.1-.27.16zm73.44-.5l-.22-.12-.22-.14 1.92-3.42.44.25zm-72.2-.2l-1.92-3.42v-.12.1h.06l.35-.2 1.89 3.42-.34.18zm70.94-.5l-.32-.17-.14-.08 1.86-3.48.45.24zm-69.69-.2l-1.79-3.47h-.11.09l.24-.12.23-.13 1.85 3.5-.42.22zM759 343l-.62-.3h.16l1.77-3.48h.14l.35.18zm-67.14-.19l-1.86-3.55.19-.1.29-.14 1.77 3.54-.43.22zm65.85-.46l-.43-.21 1.73-3.56.44.22zm-64.58-.15v-.07l-1.69-3.47h-.12.09l.18-.09.31-.15 1.71 3.56zm63.28-.47l-.43-.2 1.65-3.59.45.21zm-62-.17h-.13l.1-.05-1.64-3.53v-.11.09l.43-.2 1.64 3.59-.44.2h-.05zm60.64-.43l-.44-.19 1.58-3.62v-.11.14l.45.2zm-59.34-.16l-1.58-3.59.33-.14.16-.07 1.56 3.63h-.09l-.35.15zm58-.41l-.44-.18 1.5-3.63.13.06.37.16zm-56.71-.21l-1.5-3.61h.06l.44-.18 1.49 3.66-.42.17zm55.35-.4l-.16-.07-.32-.12 1.43-3.65.46.18zm-54-.14l-1.43-3.65.54-.21 1.42 3.69-.43.16zm52.67-.38l-.45-.17 1.35-3.67h.06l.45.17zm-51.33-.13h-.09l.1-.05-1.35-3.64.26-.09.22-.08 1.35 3.71-.22.08-.2.08h-.06zm50-.37l-.45-.16 1.28-3.69h.06l.42.12zm-48.6-.13l-1.29-3.7.48-.16 1.27 3.74-.45.15zm1.4-.22l-.07-.26-1.22-3.72.51-.16 1.2 3.76-.44.14v.25zm45.83-.12l-.49-.16 1.2-3.73.18.06.3.09zm-44.45-.37l-.06-.18-.2.07.18-.12-1.14-3.73h.09l.44-.13 1.12 3.78-.22.07-.25.07v.2zm43.07-.07l-.24-.07-.2-.06h-.05l-.22-.11.23.05 1.12-3.73.49.15zm-1.39-.41l-.32-.09-.37-.11h.14l1-3.75h.07l.47.13zm-40.36-.1l-1.06-3.77.49-.13 1.05 3.81-.37.11zm39-.29h-.18l-.28-.08 1-3.82.5.13zm-37.57-.09l-1-3.78.49-.13 1 3.83-.47.12zm36.17-.26l-.47-.11.91-3.81.47.12h.05zm-34.79-.06v-.05l-.91-3.81v-.25l.06.24.46-.11.9 3.84-.45.11zm33.39-.27l-.47-.11.86-3.82.49.11zm-32-.09l-.83-3.82h.18l.35-.07.83 3.86-.47.11zm30.56-.22l-.24-.05-.26-.05.76-3.85.26.05.27.05zm-29.15-.08l-.8-3.85.5-.09.74 3.88h-.48zm27.74-.2l-.55-.09.71-3.86.57.11zm-26.32-.07h-.16l.13-.05-.67-3.83.34-.06h.2l.66 3.89-.33.06zm24.9-.18l-.47-.08.6-3.87H737.82zm-22 0l-.05-.24-.54-3.88.43-.06h.1l.52 3.92-.37.05h-.09v.24zm-1.49 0l-.63-3.93h.5l.58 3.9h-.28zm22.08-.16l-.47-.07.53-3.89.45.06h.09zm-1.43-.19h-.52l.49-3.88h.09l.42.05zm-17.79 0h-.12l.11-.05-.48-3.96.51-.05.49 3.91-.45.05h-.05zm16.36-.12h-.48l-.28-.07h.26l.37-3.88.51.05zm-14.93 0l-.39-3.92h.51l.35 3.93h-.54zm13.49-.1h-.47l.34-3.9h.54zm-12 0L719 331h.55l.28 3.94h-.48zm10.59-.08h-.52l.26-3.91h.54zm-9.25 0l.05-.06-.23-3.9h.54l.21 3.94h-.51zm7.81-.07h-.47l.18-3.92h.54zm-6.28 0l-.16-3.92h.51l.13 3.95h-.48zm4.83 0h-.55l.11-3.92h.55zm-3.42 0l-.08-3.92h.58l.06 3.95h-.54zm2 0h-.56v-3.92h.58z" transform="translate(-647.88 -330.81)" id="_编组_14" data-name="&lt;编组&gt;"/></g></g><g id="_编组_15" data-name="&lt;编组&gt;" class="cls-4"><g id="_编组_16" data-name="&lt;编组&gt;"><g id="_编组_17" data-name="&lt;编组&gt;"><path class="cls-3" d="M725.21 474.36a65.52 65.52 0 01-30.07-7.2l3.14-6.16a58.66 58.66 0 0026.92 6.45 59.38 59.38 0 0059.31-59.31V408h6.91v.12a66.3 66.3 0 01-66.21 66.24zm-58.65-75.08l-6.84-1a65.85 65.85 0 014.66-16.33l6.35 2.74a58.93 58.93 0 00-4.17 14.59zm88.25-42.55a59.31 59.31 0 00-7-3.46l2.63-6.39a66.33 66.33 0 017.85 3.86z" transform="translate(-647.88 -330.81)" id="_编组_18" data-name="&lt;编组&gt;"/></g></g></g><g id="_编组_19" data-name="&lt;编组&gt;"><g id="_编组_20" data-name="&lt;编组&gt;" class="cls-5"><g id="_编组_21" data-name="&lt;编组&gt;"><path class="cls-3" d="M767.93 519.4L742.87 455l.46-.18a49.73 49.73 0 0031.9-46.65A51 51 0 00775 403v-.49l68.78-7v.49a120.53 120.53 0 01.61 12.15 119.18 119.18 0 01-76 111.07zm-23.78-63.87l24.34 62.59a118.19 118.19 0 0074.88-110c0-3.85-.19-7.73-.56-11.56L776 403.38c.14 1.57.22 3.17.22 4.76a50.71 50.71 0 01-32.07 47.39z" transform="translate(-647.88 -330.81)" id="_编组_22" data-name="&lt;编组&gt;"/></g></g></g><g id="_编组_23" data-name="&lt;编组&gt;"><g id="_编组_24" data-name="&lt;编组&gt;"><path class="cls-3" d="M725.21 467.84a59.7 59.7 0 1159.7-59.7 59.77 59.77 0 01-59.7 59.7zm0-118.42a58.72 58.72 0 1058.72 58.72 58.78 58.78 0 00-58.72-58.72z" transform="translate(-647.88 -330.81)" id="_编组_25" data-name="&lt;编组&gt;"/></g></g><g id="_编组_26" data-name="&lt;编组&gt;" class="cls-6"><g id="_编组_27" data-name="&lt;编组&gt;"><path class="cls-3" d="M725.41 454.49a46.52 46.52 0 01-11.09-1.34l.47-1.92a44.34 44.34 0 1010.62-87.38v-2a46.31 46.31 0 110 92.64z" transform="translate(-647.88 -330.81)" id="_编组_28" data-name="&lt;编组&gt;"/></g></g><g id="_编组_29" data-name="&lt;编组&gt;" class="cls-6"><g id="_编组_30" data-name="&lt;编组&gt;"><path class="cls-3" d="M710.43 452h-.05l.34-1-.35 1-1-.34.67-1.86.91.32v.12zm-2.82-1.06h-.07l-.93-.4.8-1.81.89.38-.38.91zm-2.71-1.23l.3-.9-.4.82-.9-.46.91-1.75.86.44.13.06-.55.82zm-2.62-1.4l.3-.9-.06.1-.42.72-.87-.51 1-1.69.83.49h.07l-.55.82zm-2.75-1.68l-.83-.57 1.13-1.62.8.55-.54.82.61-.77zm-2.42-1.73l.49-.73-.54.69-.79-.62 1.24-1.54.76.6-.6.8zm-2.36-1.9l-.75-.67 1.33-1.46.72.65-.65.74zm-2.17-2l-.08-.08-.71-.72 1.43-1.37.68.69-.7.7zm-2.12-2.24l.62-.62-.66.57-.65-.75 1.51-1.27.63.73-.77.64zm-1.88-2.29l.66-.66-.08.05-.67.52-.61-.81 1.59-1.17.58.77v.06l-.82.55zm-1.82-2.51l.66-.49-.68.45.83-.56-.83.56-.55-.84 1.66-1.06.53.81zm-1.6-2.55l.76-.5h-.08l-.71.41-.5-.88 1.73-1 .48.84v.06l-.89.44zm-1.46-2.7l.93-.47-.93.46-.44-.9 1.79-.84.42.87zm-1.22-2.71v-.07c-.13-.31-.25-.62-.38-.93l1.84-.72.36.89-.85.36.87-.29-.87.29zm-1.09-2.87l.67-.25-.68.23.91-.31-.91.31q-.16-.48-.32-1l1.88-.6c.1.31.2.61.3.92zm-.87-2.86v-.07q-.13-.49-.25-1l1.92-.47.24.94-1 .26zm-.7-3l.84-.21-.85.16q-.1-.49-.19-1l1.94-.35q.09.48.18 1zm-.5-3q-.07-.5-.12-1l2-.22q.05.48.12 1l-1 .13 1-.12zm-.3-3l.9-.11h-.07l-.84.06c0-.33 0-.67-.06-1l2-.09c0 .32 0 .64.05 1v.07h-1zm-.11-3.08zm0 0v-.09-.92h2v.88zm2.06-2.84l-.9-.11H679v-.07c0-.34 0-.67.07-1l2 .17q0 .48-.07 1l-.91-.05zm.28-2.95l-2-.25.69.09-.69-.09c0-.33.09-.67.14-1l2 .3q-.09.46-.15.94zm.45-2.81l-1.93-.39q.1-.5.21-1l1.93.42c-.07.31-.13.63-.2.95l-1-.19zm.64-2.8l-.94-.31-1-.13.93.12h-.1l-.8-.21q.13-.49.27-1l1.9.55q-.13.46-.26.93zm.84-2.81l-1.87-.65q.16-.48.33-1l1.86.67-.32.92-.93-.31zm1-2.68l-.88-.44-1-.25.91.23h-.08l-.79-.33.4-.93 1.81.79-.38.89zm1.23-2.72l-1.77-.87.46-.9 1.75.91-.44.86-.89-.44zm1.33-2.51l-.76-.5-1-.48v-.06l.51-.87 1.69 1-.49.83-.79-.45zm1.56-2.51l-.82-.55-.88-.45.81.41-.75-.5.82.54-.82-.54.57-.83 1.62 1.13-.55.8zm1.61-2.27l-.66-.66-.86-.57V380l.62-.79 1.54 1.23-.6.76-.75-.57zm1.8-2.22l-.6-.75-.85-.57.09-.1.67-.75 1.46 1.33-.65.72-.72-.63zm2-2.16l-.62-.77-.81-.55.8.53-.63-.63.72-.71 1.37 1.42-.69.68zm2.16-2l-.62-.77-.75-.64.72.6-.62-.71.76-.66 1.27 1.51-.73.63zm2.23-1.91l-1.17-1.59.8-.61 1.17 1.59-.77.58-.61-.79zm2.4-1.73l-.56-.82-.6-.77.54.68-.48-.73.55.81-.55-.82.84-.55 1.07 1.66zm2.45-1.54l-.5-.85-.57-.85h.06l.87-.5 1 1.73zm2.42-1.32l-.3-.9-.57-.85.12-.06.91-.44.84 1.79-.87.42-.43-.85zm2.68-1.22l-.31-.94-.48-.86.46.81v-.08l-.33-.78.93-.38.68 1.84-.89.36zm2.74-1l-.59-1.88 1-.32.6 1.88-.92.3-.33-.95zm2.82-.87l-.61-1.92.24.72-.21-.73.28.94-.26-.95 1-.25.47 1.92zm2.82-.66l-.19-1-.28-1h.04l1-.19.34 1.95zm2.72-.47v-1l-.3-.94.3.91-.12-.91 1-.12.22 2-1 .12zm2.95-.3v-1l-.3-.94.3.91v-.11l-.06-.84 1-.06.09 2-1 .06h-.03zm3-.11v-2 2z" transform="translate(-647.88 -330.81)" id="_编组_31" data-name="&lt;编组&gt;"/></g></g><g id="_编组_32" data-name="&lt;编组&gt;" class="cls-7"><g id="_编组_33" data-name="&lt;编组&gt;"><path class="cls-3" d="M725.21 443.22l-30.38-17.54V390.6l30.38-17.54 30.39 17.54v35.08zm-29.45-18.08l29.45 17 29.45-17v-34l-29.45-17-29.45 17v34z" transform="translate(-647.88 -330.81)" id="_编组_34" data-name="&lt;编组&gt;"/></g></g><g id="_编组_35" data-name="&lt;编组&gt;" class="cls-7"><g id="_编组_36" data-name="&lt;编组&gt;"><path class="cls-3" d="M734.29 442H734l-33.63-9-9.08-33.89 24.81-24.81.26.07 33.63 9 9.08 33.89zm-33.13-9.84L734 441l24-24-8.8-32.85-32.85-8.8-24 24z" transform="translate(-647.88 -330.81)" id="_编组_37" data-name="&lt;编组&gt;"/></g></g></g><g id="_编组_38" data-name="&lt;编组&gt;" class="cls-2"><g id="_编组_39" data-name="&lt;编组&gt;"><g id="_编组_40" data-name="&lt;编组&gt;"><circle class="cls-3" cx="77.33" cy="77.33" r="9.9" id="_编组_41" data-name="&lt;编组&gt;"/></g></g><g id="_编组_42" data-name="&lt;编组&gt;"><g id="_编组_43" data-name="&lt;编组&gt;"><path class="cls-3" d="M725.21 424.54a16.4 16.4 0 1116.4-16.4 16.42 16.42 0 01-16.4 16.4zm0-31.81a15.41 15.41 0 1015.41 15.41 15.43 15.43 0 00-15.41-15.41z" transform="translate(-647.88 -330.81)" id="_编组_44" data-name="&lt;编组&gt;"/></g></g><g id="_编组_45" data-name="&lt;编组&gt;"><g id="_编组_46" data-name="&lt;编组&gt;"><path class="cls-3" d="M725.21 481.65a73.51 73.51 0 1173.51-73.51 73.6 73.6 0 01-73.51 73.51zm0-146.53a73 73 0 1073 73 73.1 73.1 0 00-73-73z" transform="translate(-647.88 -330.81)" id="_编组_47" data-name="&lt;编组&gt;"/></g></g><g id="_编组_48" data-name="&lt;编组&gt;"><g id="_编组_49" data-name="&lt;编组&gt;"><path class="cls-3" d="M725.28 485.47h-.58v-3.95h.56v3.92zm-1.52 0h-.53l.1-3.95h.49l.11.11zm2.46 0l-.05-4h.51l.08 3.92h-.58zm1.51 0l-.12-3.95h.55l.15 3.92h-.58zm-5.49 0h-.58l.18-3.94h.48zm7 0l-.2-3.95h.55l.23 3.91h-.54zm-8.52 0h-.5l.26-3.94h.48zm10-.07l-.28-3.94h.55l.3 3.91zm-11.55 0h-.51l.33-3.94h.52zm15.13-.08l-.06-.22h-.51l-.43-3.92h.55l.46 3.9v.22zm-2.07 0l-.36-3.94h.47l.38 3.9h-.5zm-14.58 0l-.5-.05.41-3.93.47.05h.05zm-1.5-.17l-.51-.06.46-4.09.55.08zm19.1-.12l-.51-3.92.55-.07.53 3.88h-.07zm-20.61-.07l-.44-.06h-.1l.56-3.91h.51zm22.11-.15l-.59-3.9.47-.07.61 3.87h-.28zm-23.62-.07l-.5-.09.64-3.9h.19l.32.05zm25.11-.17l-.66-3.9.47-.08.68 3.86h-.07l-.47.08zm-26.63-.09h-.5l.72-3.88.55.09zm28.12-.18l-.73-4.08.47-.09.76 3.84zm-29.6-.09l-.5-.1.8-3.87.47.09zm31.09-.21l-.82-3.86.49-.11v-.28l.9 4.13v.06-.24l-.46.1zm-32.58-.1h-.21l-.32-.07.87-3.86.44.1h.07zm34.06-.23l-.89-3.84.2-.05.27-.06h.06l.91 3.81-.49.12zm-35.63 0v-.08l-.22-.05-.24-.06.93-3.8.43.11.06-.24v.29l-.91 3.8zm37.11-.32l-1-3.83.47-.12v.05l1 3.78-.49.12zm-38.43-.35l-.49-.13 1-3.82.47.12zm40-.26l-1-3.81.41-.12h.09l1.06 3.77-.49.14zm-41.42-.13h-.2l-.37-.11 1.09-3.8.39.11h.1l.2.06h-.2zm42.88-.29l-1.21-3.8.43-.13h.07l1.14 3.75h-.07l-.46.14zm-44.33-.13l-.58-.19 1.17-3.78.44.13v.05l.1.16-.12-.1zm45.79-.32l-1.2-3.76.46-.14 1.21 3.73-.19.07-.33.11zm-47.25-.14l-.16-.06-.35-.12 1.24-3.75.15.05.31.1h.06zm48.69-.33l-1.27-3.74.45-.16 1.29 3.71zm-50.14-.15l-.48-.16 1.31-3.73.45.16zm52.1-.3l-.05-.22-.39.14-1.34-3.71.28-.1.22-.07 1.21 3.71v.24zm-53.53-.22h-.06l-.21-.07-.25-.1 1.39-3.7.45.16zm54.43-.36l-1.42-3.69.42-.16h.18-.1l1.42 3.63h-.07zm-55.85-.18h-.06l-.22-.09-.23-.09 1.47-3.67.45.18zm57.27-.38l-1.49-3.66.22-.09.19-.08h.18-.1l1.49 3.59-.34.14zm-58.69-.18l-.47-.2 1.54-3.63.44.18zm60.08-.4l-1.56-3.63.44-.19 1.55 3.54h.12-.11l-.36.16zm-61.48-.2h-.05l-.47-.21 1.6-3.61h.07l.4.18zm62.87-.41l-1.69-3.62.43-.2 1.64 3.56zm-64.3-.11v-.09h-.05v-.08l-.43-.2 1.68-3.57.14.07.29.13h.06l-1.64 3.56zm65.68-.53l-1.7-3.56.44-.22v-.06.06l1.7 3.5h-.1l-.38.18zm-67-.22l-.4-.2h-.07l1.75-3.54.4.2.05-.1v.13zm68.36-.44l-1.77-3.53.26-.13.2-.1 1.77 3.49-.45.23zm-69.71-.24l-.21-.1-.26-.14 1.82-3.51.4.2h.05l.13.16-.16-.11zm71.06-.45l-1.84-3.5.4-.21h.06l1.85 3.45-.45.24zm-72.41-.26l-.27-.14-.2-.11 1.89-3.47h.09l.36.2zm73.75-.47l-1.91-3.46.3-.17.14-.08 1.92 3.42zm-75.08-.27l-.12-.07-.32-.18 2-3.43.22.13.22.13.11.06h-.1zm76.4-.47l-2-3.4.21-.12.18-.11h.07l2 3.38v.06zm-77.72-.28l-.24-.14-.22-.13 2-3.4.41.24v.05zm79-.49l-2-3.38.24-.14.21-.11 2 3.33-.11.07-.35.21zm-80.32-.3h-.05l-.37-.23 2.09-3.35.41.25zm81.61-.5l-2.11-3.34.37-.24h.18-.06l2.09 3.27h-.07zm-82.91-.3l-.33-.22-.25-.07 2.16-3.31.4.26zm84.18-.52l-2.17-3.3.4-.26 2.19 3.28-.2.14-.25.16zm-85.46-.31l-.45-.3 2.2-3.24.11.07.32.22.13.06h-.13zm86.72-.54l-2.24-3.25.37-.26h.05l2.24 3.21h-.05zm-88.14-.21l.11-.16-.12-.09-.27-.19 2.27-3.19.19.14.16.11v.16l-2.22 3.1zm89.32-.71l-2.3-3.21.09-.07.32-.24 2.3 3.17-.41.3zm-90.44-.33l-.26-.19-.17-.13 2.35-3.18.45.32zm91.67-.56l-2.37-3.11.37-.28 2.36 3.12-.39.3zm-92.89-.35h-.05l-.37-.29 2.39-3.1.09.07.29.22v-.09.27-.07zm94.09-.56l-2.43-3.12.37-.3.26-.2-.19.22 2.41 3-.39.31zm-95.29-.37h-.06l-.28-.23-.11-.09 2.47-3.09.37.3-2.4 3zm96.48-.58l-2.49-3.07.2-.16.2-.16h.05l2.48 3zm-97.67-.37l-.45-.37 2.51-3h.06l.34.28.09.06h-.09zm98.84-.59l-2.54-3 .14-.13.24-.2.06-.06v.1l2.54 3zm-100-.38l-.38-.33 2.59-3 .26.23.13.11zm101.15-.6l-2.58-2.94.33-.29h.06l.05-.08 2.6 2.92-.38.33zm-102.29-.4l-.37-.33 2.65-2.93.33.3h.06-.07zm103.42-.61l-2.66-2.92.35-.32 2.67 2.9-.3.28zm-104.55-.4l-.33-.31 2.71-2.88.34.31-2.68 2.9zm105.66-.63l-2.69-2.85.34-.32v-.1l.06.06 2.71 2.83-.36.35zm-106.76-.41l-.24-.23-.14-.14 2.76-2.83.28.28.09.09zm107.86-.64l-2.78-2.81.34-.33 2.77 2.77-.16.16-.22.22zm-108.92-.39l-.09-.07-.16-.16-.18-.18 2.81-2.77.29.29.07.07-2.74 2.74v.06zm110-.68l-2.81-2.74.31-.32-.06-.09h.19l2.8 2.69-.35.36zm-111.08-.43l-.4-.42 2.86-2.72.19.2.12.12v.08zm112.12-.67l-2.88-2.7.19-.2.09-.15h.1v-.05.05l2.86 2.65-.35.37zm-113.17-.43h-.07l-.32-.35 2.89-2.64.37.4zm114.2-.68l-2.93-2.64.39-.45v.07l2.92 2.6-.18.2zm-115.22-.44l-.33-.37 3-2.61.32.35h.07l-.07.06zm116.22-.7l-3-2.59.32-.36h.05l3 2.52-.33.39zm-117.22-.45h-.07l-.07-.07-.24-.29 3-2.55.29.34h.07l-.07.06zm118.21-.71l-3-2.53.3-.36v-.05.07l3 2.48-.32.39zm-119.18-.45l-.28-.33-.06-.07 3.07-2.49.2.25.12.15zm120.14-.72l-3.09-2.47.2-.25.12-.16 3.08 2.43-.19.24zM664.49 456l-.31-.39 3.12-2.43.3.37zm122-.73l-3.13-2.41.14-.19.14-.18 3.13 2.35-.31.41zm-123-.47l-.23-.3-.09-.12 3.16-2.37.07.09.24.32zm123.87-.75l-3.15-2.33.32-.44 3.17 2.31-.3.41zm-124.78-.47l-.18-.26-.12-.17 3.21-2.3.14.19.14.2v.07zm125.67-.76l-3.22-2.29.28-.38 3.21 2.24-.07.16v-.05l-.09.12-.15.22zm-126.55-.48l-.18-.24-.13-.2 3.25-2.24.19.28.06.09h.09zm127.41-.77l-3.27-2.22.25-.37h.16l3.22 2.16-.14.22-.14.2zm-128.27-.48h-.11.07l-.26-.39 3.3-2.18.18.28.05.08v-.08.26-.09zm129.16-.76l-3.31-2.15.24-.37v-.14.09l3.29 2.1-.28.42zm-129.94-.47l-.16-.25-.11-.18 3.34-2.11.14.22.12.18zm130.76-.81L787.5 447l.34-.59v.15l3.32 2-.26.43zm-131.59-.47v-.06l-.26-.41 3.35-2 .16.26.09.13h.09l-3.44 2.12zm132.39-.83l-3.4-2 .16-.27.09-.13v-.14.09l3.36 2-.06.09-.22.38zm-133.14-.48l-.17-.29-.1-.18 3.39-2 .18.32v.08h.22l-.09.07zm133.9-.83l-3.4-1.94.24-.42.06-.16v.08l3.39 1.91-.11.2-.15.28zM657.74 446l-.16-.29-.11-.18 3.46-1.91.12.23.11.19h.11-.08v.13l-.05-.09zm135.4-.85l-3.44-1.87.22-.42v-.13.07-.06.11l3.44 1.84v.08l-.22.41zM657 444.64l-.11-.2-.13-.24 3.5-1.85.09.18.14.26v.08-.05zm136.85-.87l-3.5-1.82.05-.1.18-.35h.05l3.48 1.79-.07.14-.18.34zm-137.55-.47l-.22-.45 3.53-1.77.12.24.07.14v-.06.27-.09l-3.4 1.74h-.06zm138.24-.88l-3.54-1.76.08-.16.15-.3 3.52 1.71-.22.45zm-138.91-.47v-.09l-.18-.36 3.57-1.7.18.37v.09zm139.58-.9l-3.57-1.68.2-.44 3.55 1.64-.21.45zM655 440.58l-.22-.48 3.56-1.62.2.43zm140.86-.91l-3.61-1.61.11-.25.07-.14v-.08l3.58 1.57v.06zm-141.49-.46v-.13l-.16-.37 3.63-1.56.07.16.13.28v.31l-.05-.24zm142.1-.94l-3.64-1.54.18-.41h-.1.15l3.62 1.5c0 .09-.08.18-.11.27l-.09.2zm-142.69-.45c-.06-.16-.12-.31-.19-.47l3.66-1.48.09.22.09.21zm143.27-1l-3.67-1.47.09-.23.09-.22h-.1.11l3.65 1.42-.1.24c0 .08-.06.16-.09.24zm-143.85-.42l-.05-.06-.18-.47 3.66-1.41c.06.14.11.28.16.42v.05zm144.39-1l-3.69-1.4c0-.09.07-.18.11-.28l.06-.15.08-.18v.14l3.65 1.34v.13l-.16.42zm-144.92-.4l-.18-.47 3.71-1.35.1.29.08.19zm145.45-1l-3.73-1.31.16-.45.07-.12v.1l3.69 1.27-.07.18c0 .11-.08.23-.12.34zm-146-.45c-.05-.14-.1-.27-.14-.41v-.1l3.71-1.26.16.45zm146.46-1l-3.75-1.24.07-.23c0-.09.06-.18.09-.26l3.73 1.21-.16.48zm-146.94-.45c-.05-.16-.11-.31-.15-.48l3.73-1.19.17.52zm147.41-1l-3.77-1.17c0-.08 0-.16.07-.24l.13-.43v.19l3.73 1.13c0 .12-.07.23-.11.34zm-147.87-.44c-.05-.15-.1-.32-.14-.48l3.76-1.11c0 .15.09.3.13.45h.2zm148.31-1l-3.8-1.09.07-.25.07-.24 3.78 1.06-.14.49zm-148.74-.44l-.12-.43v-.08l3.78-1 .12.42v.07l-3.71 1h-.07zm149.14-1l-3.78-1v-.17l.08-.3.06-.22v.28l3.77 1c0 .09-.05.19-.07.28zm-149.54-.45c0-.16-.09-.32-.12-.47l3.83-1 .12.45v.25l-.06-.22zm149.91-1l-3.83-.95c0-.14.07-.3.1-.45v-.05l3.81.91v.06c0 .16-.08.32-.11.47zM650 426.32c0-.16-.08-.33-.11-.49l3.85-.89c0 .08 0 .15.05.23l.05.21v.31l-.05-.23-3.74.89zm150.62-1.08l-3.85-.87c0-.16.07-.32.1-.47l3.83.83c0 .17-.08.34-.11.5zm-151-.45h-.12l.1-.05c0-.15-.07-.3-.09-.45l3.84-.81.1.47zm151.29-1l-3.87-.8.1-.47 3.84.76v.18c0 .12 0 .24-.07.35zm-151.6-.45c0-.17-.07-.34-.1-.5l3.84-.74c0 .15.06.3.09.45v.3l-.06-.24zm151.89-1l-3.85-.71c0-.16.06-.31.09-.47l3.86.69v.11l-.08.42zm-152.17-.45v-.12c0-.14 0-.28-.07-.41l3.86-.66c0 .16.05.31.09.47zm152.44-1l-3.9-.64.08-.55 3.87.61zm-152.69-.45v-.5l3.91-.59c0 .11 0 .23.05.34v.17zm152.92-1.05l-3.91-.56v-.35l.09-.42v.27l3.86.53c0 .17 0 .34-.07.51zm-153.14-.45v-.07l-.07-.5 3.92-.51v.07c0 .13 0 .27.05.4v.08zM802 417.76l-3.92-.49.06-.47 3.86.4v.06q0 .24-.06.47zm-153.54-.45l-.06-.5 3.93-.43.06.55zm153.71-1.06l-3.93-.41v-.47l3.9.41zm-153.87-.45v-.5l3.94-.36v.75l-.05-.23zm154-1.06l-3.94-.33v-.48l3.91.3v.54zm-154.14-.45v-.06-.44l3.94-.28v.48zm154.26-1.06l-3.94-.26v-.52l3.91.26v.5zM648 412.77v-.55l3.95-.2v.47zm154.45-1.06l-3.95-.18v-.48l3.91.19zm-154.52-.45v-.06-.49l4-.13v.51zm154.54-1.06l-3.92-.1v-.48l3.92.11v.51zm-154.59-.45v-.51l3.92-.05v.48zm154.65-1.06h-3.92v-.65h3.92v.68zm-154.66-.45v-.55l3.92.05v.52h-3.92zm150.71-1.11v-.48l3.92-.08v.54zm-146.78-.34l-3.92-.11v-.51l3.95.1v.48zm146.75-1.1v-.51l3.92-.15V405v.48zm-146.68-.34l-3.94-.18v-.55l3.95.18v.48zm146.62-1.1v-.48l3.9-.23v.55zm-146.58-.35l-3.92-.22v-.12-.42l3.94.25v.48zm146.49-1.09v-.24-.28l3.9-.31v.57zm-146.4-.35l-3.92-.3v-.54l3.94.33v.37zm146.27-1.1v-.51l3.9-.39v.55zM652.13 401l-3.9-.41v-.5l3.93.41v.48zm146-1.09v-.75l.06.22 3.86-.45c0 .16 0 .31.05.47zm-145.82-.34l-3.92-.5v-.24-.26l3.92.49v.52zM798 398.5v-.58l3.88-.54c0 .16 0 .33.07.5zm-145.47-.33l-3.88-.53.08-.57 3.91.57v.1c0 .13 0 .27-.05.41zm145.27-1.09c0-.16 0-.32-.07-.47l3.87-.61v.06l.06.41v.09zm-145.06-.33l-3.87-.6.09-.57 3.9.64zm144.83-1.08l-.09-.54v-.24l.06.22 3.82-.68v.16c0 .12 0 .25.07.37zm-144.62-.35l-3.86-.68v-.25c0-.1 0-.19.05-.29l3.85.71c0 .13 0 .25-.07.37v.13zm144.37-1.07c0-.15-.06-.31-.09-.46l3.84-.76v.07c0 .13 0 .25.07.38v.12zm-144.07-.34l-3.84-.76c0-.15.06-.3.09-.43v-.11l3.87.79v.12l-.08.39zM797 392.82l-.06-.26V392l.06.22 3.79-.83c0 .14.07.28.09.42v.1zm-143.49-.33l-3.83-.83.13-.57 3.86.87zm143.18-1.08v-.07l-.1-.43 3.75-.9h.06v.06c0 .15.08.31.11.47zm-142.86-.33l-3.81-.91v-.11l.1-.43 3.83.95v.1l-.1.4zM796.34 390l-.06-.24-.06-.23 3.79-1v.07c0 .12.06.25.09.38v.11zm-142.23-.08v-.27l-3.77-1c0-.16.09-.33.13-.49l3.79 1zM796 388.63v-.16c0-.1-.05-.2-.09-.3h-.09.11l3.77-1.06v.07c0 .16.09.31.12.46zm-141.44-.33l-3.77-1.06v-.09c0-.14.08-.29.12-.43l3.8 1.09-.12.41zm141-1.05c0-.15-.09-.3-.13-.44v-.29l.06.22 3.71-1.12.15.51zM655 386.92l-3.75-1.14.06-.2c0-.09.06-.18.09-.26l3.77 1.17-.14.47zm140.2-1.05l-.07-.2-.09-.28v-.29l.06.22 3.69-1.2.16.48zm-139.77-.33l-3.73-1.21v-.06l.16-.46 3.75 1.24-.09.28zm139.32-1l-.18-.52 3.7-1.29.17.48zm-138.87-.34l-3.71-1.27.17-.48 3.72 1.31-.07.22-.1.27zm138.39-1l-.17-.47h-.2l3.84-1.42c0 .11.08.2.11.31l.07.2zm-137.91-.35l-3.67-1.36.05-.16.13-.35 3.7 1.39-.17.45zm137.41-1c-.05-.14-.11-.28-.16-.42V381l.05.24 3.61-1.42.18.47zm-137-.16l.07-.2-3.69-1.49.19-.48 3.63 1.45-.16.4zm136.49-1.18v-.09c0-.13-.11-.26-.16-.39l3.61-1.5v.06l.12.31.07.16zm-135.84-.35l-3.61-1.49a2.23 2.23 0 00.09-.22l.1-.22 3.64 1.54-.09.2-.1.24zm135.28-1l-.2-.44-.09-.18.12.12 3.58-1.58v.08l.2.46zm-134.75-.26v-.11l-3.57-1.56.08-.18c0-.09.09-.19.13-.28l3.57 1.6c0 .09-.07.18-.11.27l-.06.13zm134.17-1.05l-.17-.36v-.1l3.55-1.65.08.18.14.32zm-133.57-.26v-.12l-3.54-1.63v-.1l.19-.4 3.57 1.68-.2.43zm133-1l-.2-.42V376l3.52-1.71v.06l.2.42zm-132.3-.37l-3.53-1.71.16-.34.07-.14 3.55 1.75-.2.42zm131.67-.92l-.21-.41h-.11l3.61-1.85.22.45zm-131-.28l-.05-.1-3.5-1.79.24-.45 3.51 1.82c-.08.14-.14.28-.22.42v.13zm130.35-1c-.07-.14-.14-.28-.22-.42l3.45-1.85.24.44zm-129.73-.39l-3.54-1.91.24-.45 3.47 1.89-.19.35v.05zm129-.88l-.21-.39v-.22.09l3.38-1.91.11.2.13.24zm-128.31-.36h-.05l-3.42-1.92.25-.44 3.4 1.94-.08.14-.17.31zm127.6-.89c-.07-.14-.15-.26-.23-.4l3.38-2 .26.44zm-126.91-.37l-3.38-2h-.08.07v-.05h.07c.08-.14.16-.28.24-.41l3.4 2-.24.41zM788 370.2l-.07-.11-.17-.29v-.09l3.34-2.05.26.42zm-125.42-.38l-3.34-2.05.27-.44 3.33 2.07-.24.39zm124.71-.82l-.26-.4 3.29-2.12v.07l.25.39zm-123.95-.29v-.12l-3.28-2.1.27-.41 3.31 2.16zm123.17-.92l-.26-.4 3.26-2.17.21.32.09.13zm-122.37-.32v-.09l-3.25-2.17.28-.41 3.27 2.22-.27.4zm121.56-.87l-.22-.32v-.06l3.21-2.25.22.31.1.14zm-120.7-.38h-.08l-3.19-2.22.3-.41 3.22 2.29-.18.26zm119.87-.81l-.21-.3-.08-.14 3.16-2.31c.1.13.19.26.28.39zM665.81 365l-3.16-2.31c.05-.09.11-.16.17-.24l.14-.18 3.18 2.35-.28.39zm118.19-.76c-.09-.13-.19-.26-.29-.38l3.12-2.37v.07l.13.17.17.22zm-117.31-.35h-.05l-3.11-2.37.3-.39 3.13 2.41-.29.37v.06zm116.44-.8l-.28-.35V362.59l3-2.41.1.13.24.3zm-115.58-.38l-3.08-2.43.17-.21.16-.21 3.08 2.47-.3.37zm114.7-.71l-.12-.15-.2-.24 3-2.48.11.13.24.29zm-113.76-.34h-.05l-3-2.49.26-.31.09-.11 3 2.53-.32.39v.05zm112.84-.77l-.07-.08-.26-.3h-.07l.07-.06 3-2.54.14.17.18.22zm-111.93-.39l-3-2.54.23-.27.12-.15 3 2.56-.32.36zm111-.73l-.2-.23-.11-.12H780l3-2.66h.06l.28.32.07.07zm-110.06-.35l-2.92-2.6.18-.19.16-.18 2.91 2.62-.2.22zm109.1-.72l-.32-.35 2.89-2.68.35.39zm-108.13-.35l-2.87-2.66v-.09l.32-.34 2.88 2.7-.33.35zm107.14-.7l-.14-.15-.2-.2H778l.06-.06 2.83-2.71.35.37zm-106.16-.34l-2.83-2.71.23-.24.15-.16 2.83 2.76-.34.34zm105.16-.69l-.12-.13-.23-.23 2.77-2.77.26.26.13.13zm-104.12-.31l-2.77-2.77.35-.35 2.77 2.82-.2.2-.13.12v.07zm103.1-.71l-.2-.19-.17-.16 2.72-2.83.36.35zm-102.1-.33l-2.71-2.82.38-.45 2.72 2.87zm101.06-.66l-.35-.33v-.08l2.65-2.87.12.11.28.26zm-100-.34h-.11.06l-2.63-2.85v-.06l.35-.32 2.63 2.9-.34.31h-.08zm99-.64l-.41-.37 2.6-2.93.2.18.17.15zm-97.88-.33h-.07l-2.58-2.9.26-.23.14-.12 2.58 3-.34.3h-.08zm96.8-.62l-.36-.32 2.54-3 .32.28.09.08zm-95.7-.33l-2.54-3 .37-.32 2.55 3-.37.32zm94.6-.6l-.37-.31 2.48-3 .45.37zm-93.51-.3l-2.49-3 .14-.12.28-.23 2.49 3.08-.22.18zm92.4-.61l-.43-.34 2.43-3.08h.06l.3.24.1.08zm-91.28-.3l-2.42-3.07.29-.22.14-.11 2.42 3.11zm90.15-.59l-.07-.05-.34-.26 2.36-3.12.34.26.09.07zm-89-.29l-2.36-3.12.31-.23.1-.08 2.37 3.17-.36.27h-.06zm87.85-.58h-.06l-.35-.26 2.33-3.19h.07l.38.28zm-86.7-.29l-2.31-3.17v-.12.09l.37-.27 2.31 3.21-.35.26zm85.53-.56l-.24-.16-.14-.1v-.16l2.22-3.19v-.06.1l.18.13.21.15zm-84.46-.23l-2.24-3.2.41-.29 2.24 3.25-.11.09-.31.21zm83.2-.57l-.4-.27 2.18-3.26.33.1.11.08zm-82-.19l-2.24-3.35.37-.24.08-.06 2.18 3.3-.16.11-.26.18v.09zm80.75-.61l-.37-.24v.09-.12l-.12-.05h.13l2.1-3.29.46.29zm-79.59-.24l-2.08-3.39.43-.27 2.12 3.34-.4.26zm78.37-.53l-.41-.25h-.06.08l2-3.32v-.08.11l.41.26zm-77.15-.24l-2-3.35.3-.18.16-.1 2 3.35-.12.08-.32.19zm75.92-.52l-.41-.24 2-3.38.43.25zm-74.68-.23l-2-3.38.43-.26 2 3.42-.17.1-.27.16zm73.44-.5l-.22-.12-.22-.14 1.92-3.42.44.25zm-72.2-.2l-1.92-3.42v-.12.1h.06l.35-.2 1.89 3.42-.34.18zm70.94-.5l-.32-.17-.14-.08 1.86-3.48.45.24zm-69.69-.2l-1.79-3.47h-.11.09l.24-.12.23-.13 1.85 3.5-.42.22zM759 343l-.62-.3h.16l1.77-3.48h.14l.35.18zm-67.14-.19l-1.86-3.55.19-.1.29-.14 1.77 3.54-.43.22zm65.85-.46l-.43-.21 1.73-3.56.44.22zm-64.58-.15v-.07l-1.69-3.47h-.12.09l.18-.09.31-.15 1.71 3.56zm63.28-.47l-.43-.2 1.65-3.59.45.21zm-62-.17h-.13l.1-.05-1.64-3.53v-.11.09l.43-.2 1.64 3.59-.44.2h-.05zm60.64-.43l-.44-.19 1.58-3.62v-.11.14l.45.2zm-59.34-.16l-1.58-3.59.33-.14.16-.07 1.56 3.63h-.09l-.35.15zm58-.41l-.44-.18 1.5-3.63.13.06.37.16zm-56.71-.21l-1.5-3.61h.06l.44-.18 1.49 3.66-.42.17zm55.35-.4l-.16-.07-.32-.12 1.43-3.65.46.18zm-54-.14l-1.43-3.65.54-.21 1.42 3.69-.43.16zm52.67-.38l-.45-.17 1.35-3.67h.06l.45.17zm-51.33-.13h-.09l.1-.05-1.35-3.64.26-.09.22-.08 1.35 3.71-.22.08-.2.08h-.06zm50-.37l-.45-.16 1.28-3.69h.06l.42.12zm-48.6-.13l-1.29-3.7.48-.16 1.27 3.74-.45.15zm1.4-.22l-.07-.26-1.22-3.72.51-.16 1.2 3.76-.44.14v.25zm45.83-.12l-.49-.16 1.2-3.73.18.06.3.09zm-44.45-.37l-.06-.18-.2.07.18-.12-1.14-3.73h.09l.44-.13 1.12 3.78-.22.07-.25.07v.2zm43.07-.07l-.24-.07-.2-.06h-.05l-.22-.11.23.05 1.12-3.73.49.15zm-1.39-.41l-.32-.09-.37-.11h.14l1-3.75h.07l.47.13zm-40.36-.1l-1.06-3.77.49-.13 1.05 3.81-.37.11zm39-.29h-.18l-.28-.08 1-3.82.5.13zm-37.57-.09l-1-3.78.49-.13 1 3.83-.47.12zm36.17-.26l-.47-.11.91-3.81.47.12h.05zm-34.79-.06v-.05l-.91-3.81v-.25l.06.24.46-.11.9 3.84-.45.11zm33.39-.27l-.47-.11.86-3.82.49.11zm-32-.09l-.83-3.82h.18l.35-.07.83 3.86-.47.11zm30.56-.22l-.24-.05-.26-.05.76-3.85.26.05.27.05zm-29.15-.08l-.8-3.85.5-.09.74 3.88h-.48zm27.74-.2l-.55-.09.71-3.86.57.11zm-26.32-.07h-.16l.13-.05-.67-3.83.34-.06h.2l.66 3.89-.33.06zm24.9-.18l-.47-.08.6-3.87H737.82zm-22 0l-.05-.24-.54-3.88.43-.06h.1l.52 3.92-.37.05h-.09v.24zm-1.49 0l-.63-3.93h.5l.58 3.9h-.28zm22.08-.16l-.47-.07.53-3.89.45.06h.09zm-1.43-.19h-.52l.49-3.88h.09l.42.05zm-17.79 0h-.12l.11-.05-.48-3.96.51-.05.49 3.91-.45.05h-.05zm16.36-.12h-.48l-.28-.07h.26l.37-3.88.51.05zm-14.93 0l-.39-3.92h.51l.35 3.93h-.54zm13.49-.1h-.47l.34-3.9h.54zm-12 0L719 331h.55l.28 3.94h-.48zm10.59-.08h-.52l.26-3.91h.54zm-9.25 0l.05-.06-.23-3.9h.54l.21 3.94h-.51zm7.81-.07h-.47l.18-3.92h.54zm-6.28 0l-.16-3.92h.51l.13 3.95h-.48zm4.83 0h-.55l.11-3.92h.55zm-3.42 0l-.08-3.92h.58l.06 3.95h-.54zm2 0h-.56v-3.92h.58z" transform="translate(-647.88 -330.81)" id="_编组_50" data-name="&lt;编组&gt;"/></g></g><g id="_编组_51" data-name="&lt;编组&gt;" class="cls-4"><g id="_编组_52" data-name="&lt;编组&gt;"><g id="_编组_53" data-name="&lt;编组&gt;"><path class="cls-3" d="M725.21 474.36a65.52 65.52 0 01-30.07-7.2l3.14-6.16a58.66 58.66 0 0026.92 6.45 59.38 59.38 0 0059.31-59.31V408h6.91v.12a66.3 66.3 0 01-66.21 66.24zm-58.65-75.08l-6.84-1a65.85 65.85 0 014.66-16.33l6.35 2.74a58.93 58.93 0 00-4.17 14.59zm88.25-42.55a59.31 59.31 0 00-7-3.46l2.63-6.39a66.33 66.33 0 017.85 3.86z" transform="translate(-647.88 -330.81)" id="_编组_54" data-name="&lt;编组&gt;"/></g></g></g><g id="_编组_55" data-name="&lt;编组&gt;"><g id="_编组_56" data-name="&lt;编组&gt;" class="cls-5"><g id="_编组_57" data-name="&lt;编组&gt;"><path class="cls-3" d="M767.93 519.4L742.87 455l.46-.18a49.73 49.73 0 0031.9-46.65A51 51 0 00775 403v-.49l68.78-7v.49a120.53 120.53 0 01.61 12.15 119.18 119.18 0 01-76 111.07zm-23.78-63.87l24.34 62.59a118.19 118.19 0 0074.88-110c0-3.85-.19-7.73-.56-11.56L776 403.38c.14 1.57.22 3.17.22 4.76a50.71 50.71 0 01-32.07 47.39z" transform="translate(-647.88 -330.81)" id="_编组_58" data-name="&lt;编组&gt;"/></g></g></g><g id="_编组_59" data-name="&lt;编组&gt;"><g id="_编组_60" data-name="&lt;编组&gt;"><path class="cls-3" d="M725.21 467.84a59.7 59.7 0 1159.7-59.7 59.77 59.77 0 01-59.7 59.7zm0-118.42a58.72 58.72 0 1058.72 58.72 58.78 58.78 0 00-58.72-58.72z" transform="translate(-647.88 -330.81)" id="_编组_61" data-name="&lt;编组&gt;"/></g></g><g id="_编组_62" data-name="&lt;编组&gt;" class="cls-6"><g id="_编组_63" data-name="&lt;编组&gt;"><path class="cls-3" d="M725.41 454.49a46.52 46.52 0 01-11.09-1.34l.47-1.92a44.34 44.34 0 1010.62-87.38v-2a46.31 46.31 0 110 92.64z" transform="translate(-647.88 -330.81)" id="_编组_64" data-name="&lt;编组&gt;"/></g></g><g id="_编组_65" data-name="&lt;编组&gt;" class="cls-6"><g id="_编组_66" data-name="&lt;编组&gt;"><path class="cls-3" d="M710.43 452h-.05l.34-1-.35 1-1-.34.67-1.86.91.32v.12zm-2.82-1.06h-.07l-.93-.4.8-1.81.89.38-.38.91zm-2.71-1.23l.3-.9-.4.82-.9-.46.91-1.75.86.44.13.06-.55.82zm-2.62-1.4l.3-.9-.06.1-.42.72-.87-.51 1-1.69.83.49h.07l-.55.82zm-2.75-1.68l-.83-.57 1.13-1.62.8.55-.54.82.61-.77zm-2.42-1.73l.49-.73-.54.69-.79-.62 1.24-1.54.76.6-.6.8zm-2.36-1.9l-.75-.67 1.33-1.46.72.65-.65.74zm-2.17-2l-.08-.08-.71-.72 1.43-1.37.68.69-.7.7zm-2.12-2.24l.62-.62-.66.57-.65-.75 1.51-1.27.63.73-.77.64zm-1.88-2.29l.66-.66-.08.05-.67.52-.61-.81 1.59-1.17.58.77v.06l-.82.55zm-1.82-2.51l.66-.49-.68.45.83-.56-.83.56-.55-.84 1.66-1.06.53.81zm-1.6-2.55l.76-.5h-.08l-.71.41-.5-.88 1.73-1 .48.84v.06l-.89.44zm-1.46-2.7l.93-.47-.93.46-.44-.9 1.79-.84.42.87zm-1.22-2.71v-.07c-.13-.31-.25-.62-.38-.93l1.84-.72.36.89-.85.36.87-.29-.87.29zm-1.09-2.87l.67-.25-.68.23.91-.31-.91.31q-.16-.48-.32-1l1.88-.6c.1.31.2.61.3.92zm-.87-2.86v-.07q-.13-.49-.25-1l1.92-.47.24.94-1 .26zm-.7-3l.84-.21-.85.16q-.1-.49-.19-1l1.94-.35q.09.48.18 1zm-.5-3q-.07-.5-.12-1l2-.22q.05.48.12 1l-1 .13 1-.12zm-.3-3l.9-.11h-.07l-.84.06c0-.33 0-.67-.06-1l2-.09c0 .32 0 .64.05 1v.07h-1zm-.11-3.08zm0 0v-.09-.92h2v.88zm2.06-2.84l-.9-.11H679v-.07c0-.34 0-.67.07-1l2 .17q0 .48-.07 1l-.91-.05zm.28-2.95l-2-.25.69.09-.69-.09c0-.33.09-.67.14-1l2 .3q-.09.46-.15.94zm.45-2.81l-1.93-.39q.1-.5.21-1l1.93.42c-.07.31-.13.63-.2.95l-1-.19zm.64-2.8l-.94-.31-1-.13.93.12h-.1l-.8-.21q.13-.49.27-1l1.9.55q-.13.46-.26.93zm.84-2.81l-1.87-.65q.16-.48.33-1l1.86.67-.32.92-.93-.31zm1-2.68l-.88-.44-1-.25.91.23h-.08l-.79-.33.4-.93 1.81.79-.38.89zm1.23-2.72l-1.77-.87.46-.9 1.75.91-.44.86-.89-.44zm1.33-2.51l-.76-.5-1-.48v-.06l.51-.87 1.69 1-.49.83-.79-.45zm1.56-2.51l-.82-.55-.88-.45.81.41-.75-.5.82.54-.82-.54.57-.83 1.62 1.13-.55.8zm1.61-2.27l-.66-.66-.86-.57V380l.62-.79 1.54 1.23-.6.76-.75-.57zm1.8-2.22l-.6-.75-.85-.57.09-.1.67-.75 1.46 1.33-.65.72-.72-.63zm2-2.16l-.62-.77-.81-.55.8.53-.63-.63.72-.71 1.37 1.42-.69.68zm2.16-2l-.62-.77-.75-.64.72.6-.62-.71.76-.66 1.27 1.51-.73.63zm2.23-1.91l-1.17-1.59.8-.61 1.17 1.59-.77.58-.61-.79zm2.4-1.73l-.56-.82-.6-.77.54.68-.48-.73.55.81-.55-.82.84-.55 1.07 1.66zm2.45-1.54l-.5-.85-.57-.85h.06l.87-.5 1 1.73zm2.42-1.32l-.3-.9-.57-.85.12-.06.91-.44.84 1.79-.87.42-.43-.85zm2.68-1.22l-.31-.94-.48-.86.46.81v-.08l-.33-.78.93-.38.68 1.84-.89.36zm2.74-1l-.59-1.88 1-.32.6 1.88-.92.3-.33-.95zm2.82-.87l-.61-1.92.24.72-.21-.73.28.94-.26-.95 1-.25.47 1.92zm2.82-.66l-.19-1-.28-1h.04l1-.19.34 1.95zm2.72-.47v-1l-.3-.94.3.91-.12-.91 1-.12.22 2-1 .12zm2.95-.3v-1l-.3-.94.3.91v-.11l-.06-.84 1-.06.09 2-1 .06h-.03zm3-.11v-2 2z" transform="translate(-647.88 -330.81)" id="_编组_67" data-name="&lt;编组&gt;"/></g></g><g id="_编组_68" data-name="&lt;编组&gt;" class="cls-7"><g id="_编组_69" data-name="&lt;编组&gt;"><path class="cls-3" d="M725.21 443.22l-30.38-17.54V390.6l30.38-17.54 30.39 17.54v35.08zm-29.45-18.08l29.45 17 29.45-17v-34l-29.45-17-29.45 17v34z" transform="translate(-647.88 -330.81)" id="_编组_70" data-name="&lt;编组&gt;"/></g></g><g id="_编组_71" data-name="&lt;编组&gt;" class="cls-7"><g id="_编组_72" data-name="&lt;编组&gt;"><path class="cls-3" d="M734.29 442H734l-33.63-9-9.08-33.89 24.81-24.81.26.07 33.63 9 9.08 33.89zm-33.13-9.84L734 441l24-24-8.8-32.85-32.85-8.8-24 24z" transform="translate(-647.88 -330.81)" id="_编组_73" data-name="&lt;编组&gt;"/></g></g></g><g id="_编组_74" data-name="&lt;编组&gt;" class="cls-2"><g id="_编组_75" data-name="&lt;编组&gt;"><g id="_编组_76" data-name="&lt;编组&gt;"><circle class="cls-3" cx="77.33" cy="77.33" r="9.9" id="_编组_77" data-name="&lt;编组&gt;"/></g></g><g id="_编组_78" data-name="&lt;编组&gt;"><g id="_编组_79" data-name="&lt;编组&gt;"><path class="cls-3" d="M725.21 424.54a16.4 16.4 0 1116.4-16.4 16.42 16.42 0 01-16.4 16.4zm0-31.81a15.41 15.41 0 1015.41 15.41 15.43 15.43 0 00-15.41-15.41z" transform="translate(-647.88 -330.81)" id="_编组_80" data-name="&lt;编组&gt;"/></g></g><g id="_编组_81" data-name="&lt;编组&gt;"><g id="_编组_82" data-name="&lt;编组&gt;"><path class="cls-3" d="M725.21 481.65a73.51 73.51 0 1173.51-73.51 73.6 73.6 0 01-73.51 73.51zm0-146.53a73 73 0 1073 73 73.1 73.1 0 00-73-73z" transform="translate(-647.88 -330.81)" id="_编组_83" data-name="&lt;编组&gt;"/></g></g><g id="_编组_84" data-name="&lt;编组&gt;"><g id="_编组_85" data-name="&lt;编组&gt;"><path class="cls-3" d="M725.28 485.47h-.58v-3.95h.56v3.92zm-1.52 0h-.53l.1-3.95h.49l.11.11zm2.46 0l-.05-4h.51l.08 3.92h-.58zm1.51 0l-.12-3.95h.55l.15 3.92h-.58zm-5.49 0h-.58l.18-3.94h.48zm7 0l-.2-3.95h.55l.23 3.91h-.54zm-8.52 0h-.5l.26-3.94h.48zm10-.07l-.28-3.94h.55l.3 3.91zm-11.55 0h-.51l.33-3.94h.52zm15.13-.08l-.06-.22h-.51l-.43-3.92h.55l.46 3.9v.22zm-2.07 0l-.36-3.94h.47l.38 3.9h-.5zm-14.58 0l-.5-.05.41-3.93.47.05h.05zm-1.5-.17l-.51-.06.46-4.09.55.08zm19.1-.12l-.51-3.92.55-.07.53 3.88h-.07zm-20.61-.07l-.44-.06h-.1l.56-3.91h.51zm22.11-.15l-.59-3.9.47-.07.61 3.87h-.28zm-23.62-.07l-.5-.09.64-3.9h.19l.32.05zm25.11-.17l-.66-3.9.47-.08.68 3.86h-.07l-.47.08zm-26.63-.09h-.5l.72-3.88.55.09zm28.12-.18l-.73-4.08.47-.09.76 3.84zm-29.6-.09l-.5-.1.8-3.87.47.09zm31.09-.21l-.82-3.86.49-.11v-.28l.9 4.13v.06-.24l-.46.1zm-32.58-.1h-.21l-.32-.07.87-3.86.44.1h.07zm34.06-.23l-.89-3.84.2-.05.27-.06h.06l.91 3.81-.49.12zm-35.63 0v-.08l-.22-.05-.24-.06.93-3.8.43.11.06-.24v.29l-.91 3.8zm37.11-.32l-1-3.83.47-.12v.05l1 3.78-.49.12zm-38.43-.35l-.49-.13 1-3.82.47.12zm40-.26l-1-3.81.41-.12h.09l1.06 3.77-.49.14zm-41.42-.13h-.2l-.37-.11 1.09-3.8.39.11h.1l.2.06h-.2zm42.88-.29l-1.21-3.8.43-.13h.07l1.14 3.75h-.07l-.46.14zm-44.33-.13l-.58-.19 1.17-3.78.44.13v.05l.1.16-.12-.1zm45.79-.32l-1.2-3.76.46-.14 1.21 3.73-.19.07-.33.11zm-47.25-.14l-.16-.06-.35-.12 1.24-3.75.15.05.31.1h.06zm48.69-.33l-1.27-3.74.45-.16 1.29 3.71zm-50.14-.15l-.48-.16 1.31-3.73.45.16zm52.1-.3l-.05-.22-.39.14-1.34-3.71.28-.1.22-.07 1.21 3.71v.24zm-53.53-.22h-.06l-.21-.07-.25-.1 1.39-3.7.45.16zm54.43-.36l-1.42-3.69.42-.16h.18-.1l1.42 3.63h-.07zm-55.85-.18h-.06l-.22-.09-.23-.09 1.47-3.67.45.18zm57.27-.38l-1.49-3.66.22-.09.19-.08h.18-.1l1.49 3.59-.34.14zm-58.69-.18l-.47-.2 1.54-3.63.44.18zm60.08-.4l-1.56-3.63.44-.19 1.55 3.54h.12-.11l-.36.16zm-61.48-.2h-.05l-.47-.21 1.6-3.61h.07l.4.18zm62.87-.41l-1.69-3.62.43-.2 1.64 3.56zm-64.3-.11v-.09h-.05v-.08l-.43-.2 1.68-3.57.14.07.29.13h.06l-1.64 3.56zm65.68-.53l-1.7-3.56.44-.22v-.06.06l1.7 3.5h-.1l-.38.18zm-67-.22l-.4-.2h-.07l1.75-3.54.4.2.05-.1v.13zm68.36-.44l-1.77-3.53.26-.13.2-.1 1.77 3.49-.45.23zm-69.71-.24l-.21-.1-.26-.14 1.82-3.51.4.2h.05l.13.16-.16-.11zm71.06-.45l-1.84-3.5.4-.21h.06l1.85 3.45-.45.24zm-72.41-.26l-.27-.14-.2-.11 1.89-3.47h.09l.36.2zm73.75-.47l-1.91-3.46.3-.17.14-.08 1.92 3.42zm-75.08-.27l-.12-.07-.32-.18 2-3.43.22.13.22.13.11.06h-.1zm76.4-.47l-2-3.4.21-.12.18-.11h.07l2 3.38v.06zm-77.72-.28l-.24-.14-.22-.13 2-3.4.41.24v.05zm79-.49l-2-3.38.24-.14.21-.11 2 3.33-.11.07-.35.21zm-80.32-.3h-.05l-.37-.23 2.09-3.35.41.25zm81.61-.5l-2.11-3.34.37-.24h.18-.06l2.09 3.27h-.07zm-82.91-.3l-.33-.22-.25-.07 2.16-3.31.4.26zm84.18-.52l-2.17-3.3.4-.26 2.19 3.28-.2.14-.25.16zm-85.46-.31l-.45-.3 2.2-3.24.11.07.32.22.13.06h-.13zm86.72-.54l-2.24-3.25.37-.26h.05l2.24 3.21h-.05zm-88.14-.21l.11-.16-.12-.09-.27-.19 2.27-3.19.19.14.16.11v.16l-2.22 3.1zm89.32-.71l-2.3-3.21.09-.07.32-.24 2.3 3.17-.41.3zm-90.44-.33l-.26-.19-.17-.13 2.35-3.18.45.32zm91.67-.56l-2.37-3.11.37-.28 2.36 3.12-.39.3zm-92.89-.35h-.05l-.37-.29 2.39-3.1.09.07.29.22v-.09.27-.07zm94.09-.56l-2.43-3.12.37-.3.26-.2-.19.22 2.41 3-.39.31zm-95.29-.37h-.06l-.28-.23-.11-.09 2.47-3.09.37.3-2.4 3zm96.48-.58l-2.49-3.07.2-.16.2-.16h.05l2.48 3zm-97.67-.37l-.45-.37 2.51-3h.06l.34.28.09.06h-.09zm98.84-.59l-2.54-3 .14-.13.24-.2.06-.06v.1l2.54 3zm-100-.38l-.38-.33 2.59-3 .26.23.13.11zm101.15-.6l-2.58-2.94.33-.29h.06l.05-.08 2.6 2.92-.38.33zm-102.29-.4l-.37-.33 2.65-2.93.33.3h.06-.07zm103.42-.61l-2.66-2.92.35-.32 2.67 2.9-.3.28zm-104.55-.4l-.33-.31 2.71-2.88.34.31-2.68 2.9zm105.66-.63l-2.69-2.85.34-.32v-.1l.06.06 2.71 2.83-.36.35zm-106.76-.41l-.24-.23-.14-.14 2.76-2.83.28.28.09.09zm107.86-.64l-2.78-2.81.34-.33 2.77 2.77-.16.16-.22.22zm-108.92-.39l-.09-.07-.16-.16-.18-.18 2.81-2.77.29.29.07.07-2.74 2.74v.06zm110-.68l-2.81-2.74.31-.32-.06-.09h.19l2.8 2.69-.35.36zm-111.08-.43l-.4-.42 2.86-2.72.19.2.12.12v.08zm112.12-.67l-2.88-2.7.19-.2.09-.15h.1v-.05.05l2.86 2.65-.35.37zm-113.17-.43h-.07l-.32-.35 2.89-2.64.37.4zm114.2-.68l-2.93-2.64.39-.45v.07l2.92 2.6-.18.2zm-115.22-.44l-.33-.37 3-2.61.32.35h.07l-.07.06zm116.22-.7l-3-2.59.32-.36h.05l3 2.52-.33.39zm-117.22-.45h-.07l-.07-.07-.24-.29 3-2.55.29.34h.07l-.07.06zm118.21-.71l-3-2.53.3-.36v-.05.07l3 2.48-.32.39zm-119.18-.45l-.28-.33-.06-.07 3.07-2.49.2.25.12.15zm120.14-.72l-3.09-2.47.2-.25.12-.16 3.08 2.43-.19.24zM664.49 456l-.31-.39 3.12-2.43.3.37zm122-.73l-3.13-2.41.14-.19.14-.18 3.13 2.35-.31.41zm-123-.47l-.23-.3-.09-.12 3.16-2.37.07.09.24.32zm123.87-.75l-3.15-2.33.32-.44 3.17 2.31-.3.41zm-124.78-.47l-.18-.26-.12-.17 3.21-2.3.14.19.14.2v.07zm125.67-.76l-3.22-2.29.28-.38 3.21 2.24-.07.16v-.05l-.09.12-.15.22zm-126.55-.48l-.18-.24-.13-.2 3.25-2.24.19.28.06.09h.09zm127.41-.77l-3.27-2.22.25-.37h.16l3.22 2.16-.14.22-.14.2zm-128.27-.48h-.11.07l-.26-.39 3.3-2.18.18.28.05.08v-.08.26-.09zm129.16-.76l-3.31-2.15.24-.37v-.14.09l3.29 2.1-.28.42zm-129.94-.47l-.16-.25-.11-.18 3.34-2.11.14.22.12.18zm130.76-.81L787.5 447l.34-.59v.15l3.32 2-.26.43zm-131.59-.47v-.06l-.26-.41 3.35-2 .16.26.09.13h.09l-3.44 2.12zm132.39-.83l-3.4-2 .16-.27.09-.13v-.14.09l3.36 2-.06.09-.22.38zm-133.14-.48l-.17-.29-.1-.18 3.39-2 .18.32v.08h.22l-.09.07zm133.9-.83l-3.4-1.94.24-.42.06-.16v.08l3.39 1.91-.11.2-.15.28zM657.74 446l-.16-.29-.11-.18 3.46-1.91.12.23.11.19h.11-.08v.13l-.05-.09zm135.4-.85l-3.44-1.87.22-.42v-.13.07-.06.11l3.44 1.84v.08l-.22.41zM657 444.64l-.11-.2-.13-.24 3.5-1.85.09.18.14.26v.08-.05zm136.85-.87l-3.5-1.82.05-.1.18-.35h.05l3.48 1.79-.07.14-.18.34zm-137.55-.47l-.22-.45 3.53-1.77.12.24.07.14v-.06.27-.09l-3.4 1.74h-.06zm138.24-.88l-3.54-1.76.08-.16.15-.3 3.52 1.71-.22.45zm-138.91-.47v-.09l-.18-.36 3.57-1.7.18.37v.09zm139.58-.9l-3.57-1.68.2-.44 3.55 1.64-.21.45zM655 440.58l-.22-.48 3.56-1.62.2.43zm140.86-.91l-3.61-1.61.11-.25.07-.14v-.08l3.58 1.57v.06zm-141.49-.46v-.13l-.16-.37 3.63-1.56.07.16.13.28v.31l-.05-.24zm142.1-.94l-3.64-1.54.18-.41h-.1.15l3.62 1.5c0 .09-.08.18-.11.27l-.09.2zm-142.69-.45c-.06-.16-.12-.31-.19-.47l3.66-1.48.09.22.09.21zm143.27-1l-3.67-1.47.09-.23.09-.22h-.1.11l3.65 1.42-.1.24c0 .08-.06.16-.09.24zm-143.85-.42l-.05-.06-.18-.47 3.66-1.41c.06.14.11.28.16.42v.05zm144.39-1l-3.69-1.4c0-.09.07-.18.11-.28l.06-.15.08-.18v.14l3.65 1.34v.13l-.16.42zm-144.92-.4l-.18-.47 3.71-1.35.1.29.08.19zm145.45-1l-3.73-1.31.16-.45.07-.12v.1l3.69 1.27-.07.18c0 .11-.08.23-.12.34zm-146-.45c-.05-.14-.1-.27-.14-.41v-.1l3.71-1.26.16.45zm146.46-1l-3.75-1.24.07-.23c0-.09.06-.18.09-.26l3.73 1.21-.16.48zm-146.94-.45c-.05-.16-.11-.31-.15-.48l3.73-1.19.17.52zm147.41-1l-3.77-1.17c0-.08 0-.16.07-.24l.13-.43v.19l3.73 1.13c0 .12-.07.23-.11.34zm-147.87-.44c-.05-.15-.1-.32-.14-.48l3.76-1.11c0 .15.09.3.13.45h.2zm148.31-1l-3.8-1.09.07-.25.07-.24 3.78 1.06-.14.49zm-148.74-.44l-.12-.43v-.08l3.78-1 .12.42v.07l-3.71 1h-.07zm149.14-1l-3.78-1v-.17l.08-.3.06-.22v.28l3.77 1c0 .09-.05.19-.07.28zm-149.54-.45c0-.16-.09-.32-.12-.47l3.83-1 .12.45v.25l-.06-.22zm149.91-1l-3.83-.95c0-.14.07-.3.1-.45v-.05l3.81.91v.06c0 .16-.08.32-.11.47zM650 426.32c0-.16-.08-.33-.11-.49l3.85-.89c0 .08 0 .15.05.23l.05.21v.31l-.05-.23-3.74.89zm150.62-1.08l-3.85-.87c0-.16.07-.32.1-.47l3.83.83c0 .17-.08.34-.11.5zm-151-.45h-.12l.1-.05c0-.15-.07-.3-.09-.45l3.84-.81.1.47zm151.29-1l-3.87-.8.1-.47 3.84.76v.18c0 .12 0 .24-.07.35zm-151.6-.45c0-.17-.07-.34-.1-.5l3.84-.74c0 .15.06.3.09.45v.3l-.06-.24zm151.89-1l-3.85-.71c0-.16.06-.31.09-.47l3.86.69v.11l-.08.42zm-152.17-.45v-.12c0-.14 0-.28-.07-.41l3.86-.66c0 .16.05.31.09.47zm152.44-1l-3.9-.64.08-.55 3.87.61zm-152.69-.45v-.5l3.91-.59c0 .11 0 .23.05.34v.17zm152.92-1.05l-3.91-.56v-.35l.09-.42v.27l3.86.53c0 .17 0 .34-.07.51zm-153.14-.45v-.07l-.07-.5 3.92-.51v.07c0 .13 0 .27.05.4v.08zM802 417.76l-3.92-.49.06-.47 3.86.4v.06q0 .24-.06.47zm-153.54-.45l-.06-.5 3.93-.43.06.55zm153.71-1.06l-3.93-.41v-.47l3.9.41zm-153.87-.45v-.5l3.94-.36v.75l-.05-.23zm154-1.06l-3.94-.33v-.48l3.91.3v.54zm-154.14-.45v-.06-.44l3.94-.28v.48zm154.26-1.06l-3.94-.26v-.52l3.91.26v.5zM648 412.77v-.55l3.95-.2v.47zm154.45-1.06l-3.95-.18v-.48l3.91.19zm-154.52-.45v-.06-.49l4-.13v.51zm154.54-1.06l-3.92-.1v-.48l3.92.11v.51zm-154.59-.45v-.51l3.92-.05v.48zm154.65-1.06h-3.92v-.65h3.92v.68zm-154.66-.45v-.55l3.92.05v.52h-3.92zm150.71-1.11v-.48l3.92-.08v.54zm-146.78-.34l-3.92-.11v-.51l3.95.1v.48zm146.75-1.1v-.51l3.92-.15V405v.48zm-146.68-.34l-3.94-.18v-.55l3.95.18v.48zm146.62-1.1v-.48l3.9-.23v.55zm-146.58-.35l-3.92-.22v-.12-.42l3.94.25v.48zm146.49-1.09v-.24-.28l3.9-.31v.57zm-146.4-.35l-3.92-.3v-.54l3.94.33v.37zm146.27-1.1v-.51l3.9-.39v.55zM652.13 401l-3.9-.41v-.5l3.93.41v.48zm146-1.09v-.75l.06.22 3.86-.45c0 .16 0 .31.05.47zm-145.82-.34l-3.92-.5v-.24-.26l3.92.49v.52zM798 398.5v-.58l3.88-.54c0 .16 0 .33.07.5zm-145.47-.33l-3.88-.53.08-.57 3.91.57v.1c0 .13 0 .27-.05.41zm145.27-1.09c0-.16 0-.32-.07-.47l3.87-.61v.06l.06.41v.09zm-145.06-.33l-3.87-.6.09-.57 3.9.64zm144.83-1.08l-.09-.54v-.24l.06.22 3.82-.68v.16c0 .12 0 .25.07.37zm-144.62-.35l-3.86-.68v-.25c0-.1 0-.19.05-.29l3.85.71c0 .13 0 .25-.07.37v.13zm144.37-1.07c0-.15-.06-.31-.09-.46l3.84-.76v.07c0 .13 0 .25.07.38v.12zm-144.07-.34l-3.84-.76c0-.15.06-.3.09-.43v-.11l3.87.79v.12l-.08.39zM797 392.82l-.06-.26V392l.06.22 3.79-.83c0 .14.07.28.09.42v.1zm-143.49-.33l-3.83-.83.13-.57 3.86.87zm143.18-1.08v-.07l-.1-.43 3.75-.9h.06v.06c0 .15.08.31.11.47zm-142.86-.33l-3.81-.91v-.11l.1-.43 3.83.95v.1l-.1.4zM796.34 390l-.06-.24-.06-.23 3.79-1v.07c0 .12.06.25.09.38v.11zm-142.23-.08v-.27l-3.77-1c0-.16.09-.33.13-.49l3.79 1zM796 388.63v-.16c0-.1-.05-.2-.09-.3h-.09.11l3.77-1.06v.07c0 .16.09.31.12.46zm-141.44-.33l-3.77-1.06v-.09c0-.14.08-.29.12-.43l3.8 1.09-.12.41zm141-1.05c0-.15-.09-.3-.13-.44v-.29l.06.22 3.71-1.12.15.51zM655 386.92l-3.75-1.14.06-.2c0-.09.06-.18.09-.26l3.77 1.17-.14.47zm140.2-1.05l-.07-.2-.09-.28v-.29l.06.22 3.69-1.2.16.48zm-139.77-.33l-3.73-1.21v-.06l.16-.46 3.75 1.24-.09.28zm139.32-1l-.18-.52 3.7-1.29.17.48zm-138.87-.34l-3.71-1.27.17-.48 3.72 1.31-.07.22-.1.27zm138.39-1l-.17-.47h-.2l3.84-1.42c0 .11.08.2.11.31l.07.2zm-137.91-.35l-3.67-1.36.05-.16.13-.35 3.7 1.39-.17.45zm137.41-1c-.05-.14-.11-.28-.16-.42V381l.05.24 3.61-1.42.18.47zm-137-.16l.07-.2-3.69-1.49.19-.48 3.63 1.45-.16.4zm136.49-1.18v-.09c0-.13-.11-.26-.16-.39l3.61-1.5v.06l.12.31.07.16zm-135.84-.35l-3.61-1.49a2.23 2.23 0 00.09-.22l.1-.22 3.64 1.54-.09.2-.1.24zm135.28-1l-.2-.44-.09-.18.12.12 3.58-1.58v.08l.2.46zm-134.75-.26v-.11l-3.57-1.56.08-.18c0-.09.09-.19.13-.28l3.57 1.6c0 .09-.07.18-.11.27l-.06.13zm134.17-1.05l-.17-.36v-.1l3.55-1.65.08.18.14.32zm-133.57-.26v-.12l-3.54-1.63v-.1l.19-.4 3.57 1.68-.2.43zm133-1l-.2-.42V376l3.52-1.71v.06l.2.42zm-132.3-.37l-3.53-1.71.16-.34.07-.14 3.55 1.75-.2.42zm131.67-.92l-.21-.41h-.11l3.61-1.85.22.45zm-131-.28l-.05-.1-3.5-1.79.24-.45 3.51 1.82c-.08.14-.14.28-.22.42v.13zm130.35-1c-.07-.14-.14-.28-.22-.42l3.45-1.85.24.44zm-129.73-.39l-3.54-1.91.24-.45 3.47 1.89-.19.35v.05zm129-.88l-.21-.39v-.22.09l3.38-1.91.11.2.13.24zm-128.31-.36h-.05l-3.42-1.92.25-.44 3.4 1.94-.08.14-.17.31zm127.6-.89c-.07-.14-.15-.26-.23-.4l3.38-2 .26.44zm-126.91-.37l-3.38-2h-.08.07v-.05h.07c.08-.14.16-.28.24-.41l3.4 2-.24.41zM788 370.2l-.07-.11-.17-.29v-.09l3.34-2.05.26.42zm-125.42-.38l-3.34-2.05.27-.44 3.33 2.07-.24.39zm124.71-.82l-.26-.4 3.29-2.12v.07l.25.39zm-123.95-.29v-.12l-3.28-2.1.27-.41 3.31 2.16zm123.17-.92l-.26-.4 3.26-2.17.21.32.09.13zm-122.37-.32v-.09l-3.25-2.17.28-.41 3.27 2.22-.27.4zm121.56-.87l-.22-.32v-.06l3.21-2.25.22.31.1.14zm-120.7-.38h-.08l-3.19-2.22.3-.41 3.22 2.29-.18.26zm119.87-.81l-.21-.3-.08-.14 3.16-2.31c.1.13.19.26.28.39zM665.81 365l-3.16-2.31c.05-.09.11-.16.17-.24l.14-.18 3.18 2.35-.28.39zm118.19-.76c-.09-.13-.19-.26-.29-.38l3.12-2.37v.07l.13.17.17.22zm-117.31-.35h-.05l-3.11-2.37.3-.39 3.13 2.41-.29.37v.06zm116.44-.8l-.28-.35V362.59l3-2.41.1.13.24.3zm-115.58-.38l-3.08-2.43.17-.21.16-.21 3.08 2.47-.3.37zm114.7-.71l-.12-.15-.2-.24 3-2.48.11.13.24.29zm-113.76-.34h-.05l-3-2.49.26-.31.09-.11 3 2.53-.32.39v.05zm112.84-.77l-.07-.08-.26-.3h-.07l.07-.06 3-2.54.14.17.18.22zm-111.93-.39l-3-2.54.23-.27.12-.15 3 2.56-.32.36zm111-.73l-.2-.23-.11-.12H780l3-2.66h.06l.28.32.07.07zm-110.06-.35l-2.92-2.6.18-.19.16-.18 2.91 2.62-.2.22zm109.1-.72l-.32-.35 2.89-2.68.35.39zm-108.13-.35l-2.87-2.66v-.09l.32-.34 2.88 2.7-.33.35zm107.14-.7l-.14-.15-.2-.2H778l.06-.06 2.83-2.71.35.37zm-106.16-.34l-2.83-2.71.23-.24.15-.16 2.83 2.76-.34.34zm105.16-.69l-.12-.13-.23-.23 2.77-2.77.26.26.13.13zm-104.12-.31l-2.77-2.77.35-.35 2.77 2.82-.2.2-.13.12v.07zm103.1-.71l-.2-.19-.17-.16 2.72-2.83.36.35zm-102.1-.33l-2.71-2.82.38-.45 2.72 2.87zm101.06-.66l-.35-.33v-.08l2.65-2.87.12.11.28.26zm-100-.34h-.11.06l-2.63-2.85v-.06l.35-.32 2.63 2.9-.34.31h-.08zm99-.64l-.41-.37 2.6-2.93.2.18.17.15zm-97.88-.33h-.07l-2.58-2.9.26-.23.14-.12 2.58 3-.34.3h-.08zm96.8-.62l-.36-.32 2.54-3 .32.28.09.08zm-95.7-.33l-2.54-3 .37-.32 2.55 3-.37.32zm94.6-.6l-.37-.31 2.48-3 .45.37zm-93.51-.3l-2.49-3 .14-.12.28-.23 2.49 3.08-.22.18zm92.4-.61l-.43-.34 2.43-3.08h.06l.3.24.1.08zm-91.28-.3l-2.42-3.07.29-.22.14-.11 2.42 3.11zm90.15-.59l-.07-.05-.34-.26 2.36-3.12.34.26.09.07zm-89-.29l-2.36-3.12.31-.23.1-.08 2.37 3.17-.36.27h-.06zm87.85-.58h-.06l-.35-.26 2.33-3.19h.07l.38.28zm-86.7-.29l-2.31-3.17v-.12.09l.37-.27 2.31 3.21-.35.26zm85.53-.56l-.24-.16-.14-.1v-.16l2.22-3.19v-.06.1l.18.13.21.15zm-84.46-.23l-2.24-3.2.41-.29 2.24 3.25-.11.09-.31.21zm83.2-.57l-.4-.27 2.18-3.26.33.1.11.08zm-82-.19l-2.24-3.35.37-.24.08-.06 2.18 3.3-.16.11-.26.18v.09zm80.75-.61l-.37-.24v.09-.12l-.12-.05h.13l2.1-3.29.46.29zm-79.59-.24l-2.08-3.39.43-.27 2.12 3.34-.4.26zm78.37-.53l-.41-.25h-.06.08l2-3.32v-.08.11l.41.26zm-77.15-.24l-2-3.35.3-.18.16-.1 2 3.35-.12.08-.32.19zm75.92-.52l-.41-.24 2-3.38.43.25zm-74.68-.23l-2-3.38.43-.26 2 3.42-.17.1-.27.16zm73.44-.5l-.22-.12-.22-.14 1.92-3.42.44.25zm-72.2-.2l-1.92-3.42v-.12.1h.06l.35-.2 1.89 3.42-.34.18zm70.94-.5l-.32-.17-.14-.08 1.86-3.48.45.24zm-69.69-.2l-1.79-3.47h-.11.09l.24-.12.23-.13 1.85 3.5-.42.22zM759 343l-.62-.3h.16l1.77-3.48h.14l.35.18zm-67.14-.19l-1.86-3.55.19-.1.29-.14 1.77 3.54-.43.22zm65.85-.46l-.43-.21 1.73-3.56.44.22zm-64.58-.15v-.07l-1.69-3.47h-.12.09l.18-.09.31-.15 1.71 3.56zm63.28-.47l-.43-.2 1.65-3.59.45.21zm-62-.17h-.13l.1-.05-1.64-3.53v-.11.09l.43-.2 1.64 3.59-.44.2h-.05zm60.64-.43l-.44-.19 1.58-3.62v-.11.14l.45.2zm-59.34-.16l-1.58-3.59.33-.14.16-.07 1.56 3.63h-.09l-.35.15zm58-.41l-.44-.18 1.5-3.63.13.06.37.16zm-56.71-.21l-1.5-3.61h.06l.44-.18 1.49 3.66-.42.17zm55.35-.4l-.16-.07-.32-.12 1.43-3.65.46.18zm-54-.14l-1.43-3.65.54-.21 1.42 3.69-.43.16zm52.67-.38l-.45-.17 1.35-3.67h.06l.45.17zm-51.33-.13h-.09l.1-.05-1.35-3.64.26-.09.22-.08 1.35 3.71-.22.08-.2.08h-.06zm50-.37l-.45-.16 1.28-3.69h.06l.42.12zm-48.6-.13l-1.29-3.7.48-.16 1.27 3.74-.45.15zm1.4-.22l-.07-.26-1.22-3.72.51-.16 1.2 3.76-.44.14v.25zm45.83-.12l-.49-.16 1.2-3.73.18.06.3.09zm-44.45-.37l-.06-.18-.2.07.18-.12-1.14-3.73h.09l.44-.13 1.12 3.78-.22.07-.25.07v.2zm43.07-.07l-.24-.07-.2-.06h-.05l-.22-.11.23.05 1.12-3.73.49.15zm-1.39-.41l-.32-.09-.37-.11h.14l1-3.75h.07l.47.13zm-40.36-.1l-1.06-3.77.49-.13 1.05 3.81-.37.11zm39-.29h-.18l-.28-.08 1-3.82.5.13zm-37.57-.09l-1-3.78.49-.13 1 3.83-.47.12zm36.17-.26l-.47-.11.91-3.81.47.12h.05zm-34.79-.06v-.05l-.91-3.81v-.25l.06.24.46-.11.9 3.84-.45.11zm33.39-.27l-.47-.11.86-3.82.49.11zm-32-.09l-.83-3.82h.18l.35-.07.83 3.86-.47.11zm30.56-.22l-.24-.05-.26-.05.76-3.85.26.05.27.05zm-29.15-.08l-.8-3.85.5-.09.74 3.88h-.48zm27.74-.2l-.55-.09.71-3.86.57.11zm-26.32-.07h-.16l.13-.05-.67-3.83.34-.06h.2l.66 3.89-.33.06zm24.9-.18l-.47-.08.6-3.87H737.82zm-22 0l-.05-.24-.54-3.88.43-.06h.1l.52 3.92-.37.05h-.09v.24zm-1.49 0l-.63-3.93h.5l.58 3.9h-.28zm22.08-.16l-.47-.07.53-3.89.45.06h.09zm-1.43-.19h-.52l.49-3.88h.09l.42.05zm-17.79 0h-.12l.11-.05-.48-3.96.51-.05.49 3.91-.45.05h-.05zm16.36-.12h-.48l-.28-.07h.26l.37-3.88.51.05zm-14.93 0l-.39-3.92h.51l.35 3.93h-.54zm13.49-.1h-.47l.34-3.9h.54zm-12 0L719 331h.55l.28 3.94h-.48zm10.59-.08h-.52l.26-3.91h.54zm-9.25 0l.05-.06-.23-3.9h.54l.21 3.94h-.51zm7.81-.07h-.47l.18-3.92h.54zm-6.28 0l-.16-3.92h.51l.13 3.95h-.48zm4.83 0h-.55l.11-3.92h.55zm-3.42 0l-.08-3.92h.58l.06 3.95h-.54zm2 0h-.56v-3.92h.58z" transform="translate(-647.88 -330.81)" id="_编组_86" data-name="&lt;编组&gt;"/></g></g><g id="_编组_87" data-name="&lt;编组&gt;" class="cls-4"><g id="_编组_88" data-name="&lt;编组&gt;"><g id="_编组_89" data-name="&lt;编组&gt;"><path class="cls-3" d="M725.21 474.36a65.52 65.52 0 01-30.07-7.2l3.14-6.16a58.66 58.66 0 0026.92 6.45 59.38 59.38 0 0059.31-59.31V408h6.91v.12a66.3 66.3 0 01-66.21 66.24zm-58.65-75.08l-6.84-1a65.85 65.85 0 014.66-16.33l6.35 2.74a58.93 58.93 0 00-4.17 14.59zm88.25-42.55a59.31 59.31 0 00-7-3.46l2.63-6.39a66.33 66.33 0 017.85 3.86z" transform="translate(-647.88 -330.81)" id="_编组_90" data-name="&lt;编组&gt;"/></g></g></g><g id="_编组_91" data-name="&lt;编组&gt;"><g id="_编组_92" data-name="&lt;编组&gt;" class="cls-5"><g id="_编组_93" data-name="&lt;编组&gt;"><path class="cls-3" d="M767.93 519.4L742.87 455l.46-.18a49.73 49.73 0 0031.9-46.65A51 51 0 00775 403v-.49l68.78-7v.49a120.53 120.53 0 01.61 12.15 119.18 119.18 0 01-76 111.07zm-23.78-63.87l24.34 62.59a118.19 118.19 0 0074.88-110c0-3.85-.19-7.73-.56-11.56L776 403.38c.14 1.57.22 3.17.22 4.76a50.71 50.71 0 01-32.07 47.39z" transform="translate(-647.88 -330.81)" id="_编组_94" data-name="&lt;编组&gt;"/></g></g></g><g id="_编组_95" data-name="&lt;编组&gt;"><g id="_编组_96" data-name="&lt;编组&gt;"><path class="cls-3" d="M725.21 467.84a59.7 59.7 0 1159.7-59.7 59.77 59.77 0 01-59.7 59.7zm0-118.42a58.72 58.72 0 1058.72 58.72 58.78 58.78 0 00-58.72-58.72z" transform="translate(-647.88 -330.81)" id="_编组_97" data-name="&lt;编组&gt;"/></g></g><g id="_编组_98" data-name="&lt;编组&gt;" class="cls-6"><g id="_编组_99" data-name="&lt;编组&gt;"><path class="cls-3" d="M725.41 454.49a46.52 46.52 0 01-11.09-1.34l.47-1.92a44.34 44.34 0 1010.62-87.38v-2a46.31 46.31 0 110 92.64z" transform="translate(-647.88 -330.81)" id="_编组_100" data-name="&lt;编组&gt;"/></g></g><g id="_编组_101" data-name="&lt;编组&gt;" class="cls-6"><g id="_编组_102" data-name="&lt;编组&gt;"><path class="cls-3" d="M710.43 452h-.05l.34-1-.35 1-1-.34.67-1.86.91.32v.12zm-2.82-1.06h-.07l-.93-.4.8-1.81.89.38-.38.91zm-2.71-1.23l.3-.9-.4.82-.9-.46.91-1.75.86.44.13.06-.55.82zm-2.62-1.4l.3-.9-.06.1-.42.72-.87-.51 1-1.69.83.49h.07l-.55.82zm-2.75-1.68l-.83-.57 1.13-1.62.8.55-.54.82.61-.77zm-2.42-1.73l.49-.73-.54.69-.79-.62 1.24-1.54.76.6-.6.8zm-2.36-1.9l-.75-.67 1.33-1.46.72.65-.65.74zm-2.17-2l-.08-.08-.71-.72 1.43-1.37.68.69-.7.7zm-2.12-2.24l.62-.62-.66.57-.65-.75 1.51-1.27.63.73-.77.64zm-1.88-2.29l.66-.66-.08.05-.67.52-.61-.81 1.59-1.17.58.77v.06l-.82.55zm-1.82-2.51l.66-.49-.68.45.83-.56-.83.56-.55-.84 1.66-1.06.53.81zm-1.6-2.55l.76-.5h-.08l-.71.41-.5-.88 1.73-1 .48.84v.06l-.89.44zm-1.46-2.7l.93-.47-.93.46-.44-.9 1.79-.84.42.87zm-1.22-2.71v-.07c-.13-.31-.25-.62-.38-.93l1.84-.72.36.89-.85.36.87-.29-.87.29zm-1.09-2.87l.67-.25-.68.23.91-.31-.91.31q-.16-.48-.32-1l1.88-.6c.1.31.2.61.3.92zm-.87-2.86v-.07q-.13-.49-.25-1l1.92-.47.24.94-1 .26zm-.7-3l.84-.21-.85.16q-.1-.49-.19-1l1.94-.35q.09.48.18 1zm-.5-3q-.07-.5-.12-1l2-.22q.05.48.12 1l-1 .13 1-.12zm-.3-3l.9-.11h-.07l-.84.06c0-.33 0-.67-.06-1l2-.09c0 .32 0 .64.05 1v.07h-1zm-.11-3.08zm0 0v-.09-.92h2v.88zm2.06-2.84l-.9-.11H679v-.07c0-.34 0-.67.07-1l2 .17q0 .48-.07 1l-.91-.05zm.28-2.95l-2-.25.69.09-.69-.09c0-.33.09-.67.14-1l2 .3q-.09.46-.15.94zm.45-2.81l-1.93-.39q.1-.5.21-1l1.93.42c-.07.31-.13.63-.2.95l-1-.19zm.64-2.8l-.94-.31-1-.13.93.12h-.1l-.8-.21q.13-.49.27-1l1.9.55q-.13.46-.26.93zm.84-2.81l-1.87-.65q.16-.48.33-1l1.86.67-.32.92-.93-.31zm1-2.68l-.88-.44-1-.25.91.23h-.08l-.79-.33.4-.93 1.81.79-.38.89zm1.23-2.72l-1.77-.87.46-.9 1.75.91-.44.86-.89-.44zm1.33-2.51l-.76-.5-1-.48v-.06l.51-.87 1.69 1-.49.83-.79-.45zm1.56-2.51l-.82-.55-.88-.45.81.41-.75-.5.82.54-.82-.54.57-.83 1.62 1.13-.55.8zm1.61-2.27l-.66-.66-.86-.57V380l.62-.79 1.54 1.23-.6.76-.75-.57zm1.8-2.22l-.6-.75-.85-.57.09-.1.67-.75 1.46 1.33-.65.72-.72-.63zm2-2.16l-.62-.77-.81-.55.8.53-.63-.63.72-.71 1.37 1.42-.69.68zm2.16-2l-.62-.77-.75-.64.72.6-.62-.71.76-.66 1.27 1.51-.73.63zm2.23-1.91l-1.17-1.59.8-.61 1.17 1.59-.77.58-.61-.79zm2.4-1.73l-.56-.82-.6-.77.54.68-.48-.73.55.81-.55-.82.84-.55 1.07 1.66zm2.45-1.54l-.5-.85-.57-.85h.06l.87-.5 1 1.73zm2.42-1.32l-.3-.9-.57-.85.12-.06.91-.44.84 1.79-.87.42-.43-.85zm2.68-1.22l-.31-.94-.48-.86.46.81v-.08l-.33-.78.93-.38.68 1.84-.89.36zm2.74-1l-.59-1.88 1-.32.6 1.88-.92.3-.33-.95zm2.82-.87l-.61-1.92.24.72-.21-.73.28.94-.26-.95 1-.25.47 1.92zm2.82-.66l-.19-1-.28-1h.04l1-.19.34 1.95zm2.72-.47v-1l-.3-.94.3.91-.12-.91 1-.12.22 2-1 .12zm2.95-.3v-1l-.3-.94.3.91v-.11l-.06-.84 1-.06.09 2-1 .06h-.03zm3-.11v-2 2z" transform="translate(-647.88 -330.81)" id="_编组_103" data-name="&lt;编组&gt;"/></g></g><g id="_编组_104" data-name="&lt;编组&gt;" class="cls-7"><g id="_编组_105" data-name="&lt;编组&gt;"><path class="cls-3" d="M725.21 443.22l-30.38-17.54V390.6l30.38-17.54 30.39 17.54v35.08zm-29.45-18.08l29.45 17 29.45-17v-34l-29.45-17-29.45 17v34z" transform="translate(-647.88 -330.81)" id="_编组_106" data-name="&lt;编组&gt;"/></g></g><g id="_编组_107" data-name="&lt;编组&gt;" class="cls-7"><g id="_编组_108" data-name="&lt;编组&gt;"><path class="cls-3" d="M734.29 442H734l-33.63-9-9.08-33.89 24.81-24.81.26.07 33.63 9 9.08 33.89zm-33.13-9.84L734 441l24-24-8.8-32.85-32.85-8.8-24 24z" transform="translate(-647.88 -330.81)" id="_编组_109" data-name="&lt;编组&gt;"/></g></g></g></g></g></g></svg>