<svg preserveAspectRatio="none" xmlns="http://www.w3.org/2000/svg" xmlns:xlink="http://www.w3.org/1999/xlink" viewBox="0 0 271.34 278.11"><defs><style>.cls-1{isolation:isolate;}.cls-2{fill:#fff;}.cls-2,.cls-7{opacity:0.7;mix-blend-mode:overlay;}.cls-3{opacity:0.3;}.cls-4{fill:aqua;}.cls-5{opacity:0.5;}.cls-6{mask:url(#mask);}.cls-7{fill:url(#radial-gradient);}</style><mask id="mask" x="6.86" y="0" width="255.88" height="255.88" maskUnits="userSpaceOnUse"/><filter id="luminosity-noclip" x="453.72" y="384.96" width="255.88" height="255.88" filterUnits="userSpaceOnUse" color-interpolation-filters="sRGB"><feFlood flood-color="#fff" result="bg"/><feBlend in="SourceGraphic" in2="bg"/></filter><radialGradient id="radial-gradient" cx="134.8" cy="127.94" r="127.94" gradientUnits="userSpaceOnUse"><stop offset="0" stop-color="#66e9fc"/><stop offset="0.44" stop-color="#86ebfd"/><stop offset="1" stop-color="#b4eeff"/></radialGradient></defs><title>circle22</title><g class="cls-1"><g id="Layer_1" data-name="Layer 1"><path class="cls-2" d="M582.53,391.74c-74.81,0-135.67,60.86-135.67,135.67s60.86,135.67,135.67,135.67S718.2,602.22,718.2,527.41,657.34,391.74,582.53,391.74Zm0,260.89a125.43,125.43,0,0,1-117.6-82.19l21.45-7.85a102.82,102.82,0,0,1,.74-72.33L465.85,482a125.17,125.17,0,0,1,16.53-29.64L500.62,466a102.64,102.64,0,0,1,57.48-38l-5.43-22.19a125.24,125.24,0,0,1,148.24,80.79L679.32,494A102.61,102.61,0,0,1,669,582.12l19.27,12.21A125.23,125.23,0,0,1,582.53,652.62Z" transform="translate(-446.86 -384.96)"/><g class="cls-3"><path class="cls-4" d="M582.44,587.28A60.28,60.28,0,1,1,642.73,527,60.35,60.35,0,0,1,582.44,587.28Zm0-118A57.76,57.76,0,1,0,640.2,527,57.82,57.82,0,0,0,582.44,469.24Z" transform="translate(-446.86 -384.96)"/></g><path class="cls-4" d="M582.44,587.28a60.32,60.32,0,0,1-29.35-7.62l1.23-2.21a57.78,57.78,0,1,0,28.34-108.21v-2.53A60.28,60.28,0,1,1,582.44,587.28Z" transform="translate(-446.86 -384.96)"/><g class="cls-3"><path class="cls-4" d="M582.44,598.24A71.25,71.25,0,1,1,653.69,527,71.33,71.33,0,0,1,582.44,598.24Zm0-134.9A63.66,63.66,0,1,0,646.1,527,63.73,63.73,0,0,0,582.44,463.33Z" transform="translate(-446.86 -384.96)"/></g><path class="cls-4" d="M642.4,565.48L636,561.38A63.53,63.53,0,0,0,646.21,527c0-35.1-29.55-63.66-63.55-63.66v-7.59A71.13,71.13,0,0,1,642.4,565.48Z" transform="translate(-446.86 -384.96)"/><g class="cls-5"><rect class="cls-4" x="135.8" y="83.35" width="1" height="3"/><path class="cls-4" d="M582.66,463.34l1,0v-7.59l-1,0v7.59Z" transform="translate(-446.86 -384.96)"/><rect class="cls-4" x="622.1" y="486.54" width="3.79" height="1.26" transform="translate(-608.58 198.91) rotate(-45)"/><rect class="cls-4" x="191.8" y="142.35" width="4" height="1"/><rect class="cls-4" x="622.47" y="566.65" width="1.26" height="3.79" transform="translate(-666.38 222.21) rotate(-45)"/><path class="cls-4" d="M628.17,572.71l-0.92.87,5.37,5.37,0.92-.87Z" transform="translate(-446.86 -384.96)"/><rect class="cls-4" x="134.8" y="198.35" width="1" height="3"/><path class="cls-4" d="M582.66,591.48s-1,0-1,0V599s1,0,1,0v-7.59Z" transform="translate(-446.86 -384.96)"/><rect class="cls-4" x="539.83" y="567.02" width="3.79" height="1.26" transform="translate(-689.59 164.66) rotate(-45.02)"/><path class="cls-4" d="M537.56,572.72s-0.88-.91-0.87-0.92l-5.37,5.37s0.87,0.92.87,0.92Z" transform="translate(-446.86 -384.96)"/><rect class="cls-4" x="76.8" y="141.35" width="3" height="1"/><path class="cls-4" d="M518.79,527.31s0-1,0-1h-7.59s0,1,0,1h7.59Z" transform="translate(-446.86 -384.96)"/><rect class="cls-4" x="541.99" y="484.38" width="1.26" height="3.79" transform="translate(-631.78 141.15) rotate(-45)"/><path class="cls-4" d="M537.56,482.11s0.91-.88.92-0.87l-5.37-5.37s-0.91.87-.92,0.87Z" transform="translate(-446.86 -384.96)"/><rect class="cls-4" x="602.58" y="473.44" width="3.79" height="1.26" transform="translate(-504.89 477.99) rotate(-68.52)"/><path class="cls-4" d="M606.27,467.77l1.17,0.49,2.77-7.06-1.17-.49Z" transform="translate(-446.86 -384.96)"/><rect class="cls-4" x="633.96" y="504.35" width="3.79" height="1.26" transform="translate(-595.71 -88.7) rotate(-23.56)"/><rect class="cls-4" x="635.57" y="547.13" width="1.27" height="3.79" transform="translate(-553.98 556.06) rotate(-68.6)"/><rect class="cls-4" x="604.66" y="578.51" width="1.26" height="3.79" transform="translate(-628.6 -94.09) rotate(-23.6)"/><path class="cls-4" d="M608.48,586.13l-1.17.48,3,7,1.17-.48Z" transform="translate(-446.86 -384.96)"/><rect class="cls-4" x="559.35" y="580.12" width="3.79" height="1.26" transform="translate(-631.26 506.07) rotate(-68.57)"/><path class="cls-4" d="M559.46,587.05s-1.17-.48-1.17-0.49l-2.77,7.06s1.16,0.49,1.17.49Z" transform="translate(-446.86 -384.96)"/><rect class="cls-4" x="527.97" y="549.21" width="3.79" height="1.26" transform="translate(-622.61 -127) rotate(-23.59)"/><path class="cls-4" d="M524.14,553s-0.49-1.17-.48-1.18l-7,3s0.48,1.17.48,1.17Z" transform="translate(-446.86 -384.96)"/><rect class="cls-4" x="528.9" y="503.9" width="1.26" height="3.79" transform="translate(-581.61 429.01) rotate(-68.58)"/><path class="cls-4" d="M523.22,504s0.48-1.17.49-1.17l-7.07-2.77s-0.49,1.17-.49,1.16Z" transform="translate(-446.86 -384.96)"/><rect class="cls-4" x="559.8" y="472.52" width="1.26" height="3.79" transform="translate(-589.76 -121.44) rotate(-23.56)"/><path class="cls-4" d="M557.24,468.69s1.16-.49,1.17-0.48l-3-7s-1.17.48-1.17,0.48Z" transform="translate(-446.86 -384.96)"/></g><g class="cls-6"><g class="cls-6"><g class="cls-6"><circle class="cls-7" cx="134.8" cy="127.94" r="127.94"/></g></g></g></g></g></svg>