<svg preserveAspectRatio="none" id="Layer_1" data-name="Layer 1" xmlns="http://www.w3.org/2000/svg" viewBox="0 0 64.24 65.4"><defs><style>.cls-1,.cls-4{fill:#00b4e9}.cls-2,.cls-4{opacity:.5}.cls-3{fill:#f9b900}.cls-5{fill:#00b3ea}.cls-6{fill:#00b4eb}.cls-7{fill:#f7931e}</style></defs><path class="cls-1" d="M100.6 108.13c-.07.07-.17.16-.28.26s-.24.22-.4.33A11.48 11.48 0 0187.71 110a11.35 11.35 0 01-2.22-1.43 11.82 11.82 0 01-1.79-1.84 11.44 11.44 0 01-2.4-7.22v-1.22l-.85-.1v.34c0 .22 0 .55-.05 1a12.3 12.3 0 002.6 7.77 12.66 12.66 0 001.92 2 12.19 12.19 0 002.38 1.54 12.31 12.31 0 0013.12-1.42c.17-.13.3-.26.43-.36s.23-.2.31-.28l.25-.24-.6-.61z" transform="translate(-60.74 -66.72)"/><path class="cls-1" d="M104 111.75l-.22.21-.27.24-.32.27-.38.29a15.71 15.71 0 01-2 1.34 16.28 16.28 0 01-2.88 1.26 16.57 16.57 0 01-3.64.75c-.33 0-.66.06-1 .06h-2.08l-.53-.06h-.54a16.35 16.35 0 01-2.14-.49 17.31 17.31 0 01-2.1-.8 16.45 16.45 0 01-3.9-2.61 16.65 16.65 0 01-3-3.43A16.48 16.48 0 0177.38 94a15.61 15.61 0 011-2.2l.24-.42.24-.38.19-.31.17-.25.24-.34.08-.1-.31-.23-.08.12-.24.35-.18.25-.2.31-.23.37-.24.43a16 16 0 00-1 2.25A16.86 16.86 0 0078.7 109a17 17 0 003.09 3.51 16.83 16.83 0 003.94 2.49 17.77 17.77 0 002.15.82 16.78 16.78 0 002.19.5h.54l.54.06h2.13c.35 0 .69 0 1-.06a17 17 0 003.72-.77 16.67 16.67 0 002.95-1.29 16.06 16.06 0 002.07-1.37l.38-.3.33-.28.28-.24.22-.21.41-.39-.27-.27z" transform="translate(-60.74 -66.72)"/><g class="cls-2"><path class="cls-1" d="M101.12 108.82c-.1.1-.24.21-.39.34s-.34.28-.55.44a12.2 12.2 0 01-1.6 1 12.54 12.54 0 01-2.28.94 12.81 12.81 0 01-2.88.49 12.53 12.53 0 01-1.6 0h-.81c-.27-.05-.55-.09-.83-.15a11.74 11.74 0 01-1.65-.48 11.89 11.89 0 01-1.61-.73l-.39-.22-.38-.24c-.13-.08-.25-.16-.37-.25s-.25-.17-.37-.26a13.21 13.21 0 01-1.41-1.26 13.78 13.78 0 01-1.18-1.37 13.19 13.19 0 01-1-1.52 12.65 12.65 0 01-.72-1.61 12.14 12.14 0 01-.47-1.66c0-.14-.06-.28-.08-.42s-.05-.28-.07-.41-.07-.55-.08-.82 0-.54 0-.81v-.4-.39a12.26 12.26 0 011.46-5.15c.09-.16.17-.32.26-.46l.33-.42.26-.38.12-.17.17-.17.23-.3.22-.25.19-.22.16-.17.3-.32-2-2-.15.16-.43.46a16.33 16.33 0 00-1.36 1.77 14.82 14.82 0 00-1.45 2.8 15.17 15.17 0 00-1 7.11 15.3 15.3 0 00.66 3.08 14.44 14.44 0 00.84 2.07l.16.32.14.21.11.19.86-.49.06.1.17.28.29.46.37.53a14.49 14.49 0 002.38 2.54 14.16 14.16 0 002.92 1.88c.21.11.42.19.59.27l.46.19.3.11h.11l-.33.94.69.22.8.21.5.11.56.1a15.19 15.19 0 008.7-1.15 15 15 0 002.35-1.33c.33-.22.61-.45.87-.64s.46-.39.63-.54l.53-.5-2-2zm-9.49 5.57h-.52l-.53-.07-.6-.1-.6-.13-.51-.13c-.3-.08-.5-.15-.5-.15l.57-1.83s.17.06.43.13l.45.12.52.11.52.09.46.06h.45zm3.29-.11c-.31 0-.72.1-1.13.12H92.12l.08-1.92h1.44c.36 0 .72-.07 1-.1l.44-.08.34 1.89zm4-1.19l-.34.15-.49.2c-.18.07-.37.15-.57.21l-.58.19-.51.14-.37.09h-.14l-.41-1.87h.12l.32-.08.45-.12.5-.16.5-.18.43-.17.3-.13.11-.05.81 1.69zm3.22-2l-.29.24-.42.32-.5.35c-.35.23-.7.45-1 .59l-.33.18-.13.06-.88-1.7.11-.06.29-.16c.24-.13.54-.32.85-.52l.43-.3.37-.28.26-.2.09-.08 1.24 1.46z" transform="translate(-60.74 -66.72)"/></g><path class="cls-3" d="M98.16 108l-.18.11-.25.16-.3.17c-.1.06-.21.1-.31.16l-.27.13-.27.12.35.84.29-.13.29-.14c.11-.06.22-.1.33-.17l.33-.18.28-.17.2-.12h.07l-.5-.75zM95.67 109.14l-.29.08-.33.09-.34.07-.3.05h-.28l.12.9h.32l.32-.06.37-.08.36-.09.31-.09.3-.1-.28-.91zM92.51 109.57H91.58l-.11.9h1.02a9.87 9.87 0 001 0l-.06-.91a8.93 8.93 0 01-.92.01zM90.62 109.33c-.17 0-.4-.1-.62-.16l-.33-.11h-.15l-.14-.06-.27-.1-.34.84.3.11.14.06.16.05.37.04c.25.06.49.14.68.17l.23.05h.09l.17-.89h-.08zM88 108.32l-.3-.17-.32-.15-.25-.17-.13-.16h-.06l-.54.73.07.05.19.13.27.19.32.2.32.19.29.16.29.14.4-.82-.26-.13zM86.15 107c-.12-.13-.31-.28-.46-.45l-.24-.25-.2-.23a2.63 2.63 0 01-.19-.23l-.71.56a3 3 0 00.2.25l.21.25.24.27c.17.19.37.36.5.5l.17.15.07.06.59-.69-.06-.05zM84.56 105.15l-.06-.15-.16-.25c-.06-.09-.11-.2-.17-.3s-.21-.42-.29-.57-.06-.15-.09-.19v-.07l-.83.36v.08c0 .05.05.13.09.21s.19.4.32.62.12.23.19.33l.17.28.07.11.06.08.05.07.75-.51v-.07zM83.42 102.75c-.06-.17-.12-.39-.18-.62s0-.23-.08-.34 0-.21-.06-.29v-.29l-.9.13.05.32c0 .1 0 .2.06.32s0 .24.08.37.13.5.19.68l.07.22v.08l.86-.3v-.08zM82.09 98.65V100.62l.9-.07v-.29-.3-1.01-.29l-.9-.1v.09zM82.65 96.16l-.1.31c0 .11-.08.23-.11.36l-.1.36-.07.32c0 .19-.06.31-.06.31l.89.18a2.92 2.92 0 01.06-.29l.06-.29.09-.33c0-.11.07-.22.1-.33l.09-.29.1-.27-.85-.33z" transform="translate(-60.74 -66.72)"/><path class="cls-4" d="M80.16 90.29c-.1.13-.24.33-.4.56s-.34.52-.53.82-.18.33-.23.48l-.14.25-.13.25a16 16 0 00-.82 1.92l-.21.65-.07.25.61.17.07-.24.2-.63a15.4 15.4 0 01.78-1.84l.12-.24.13-.24c.09-.16.17-.31.26-.46s.34-.56.51-.78.28-.41.38-.54l.15-.2-.5-.39z" transform="translate(-60.74 -66.72)"/><path class="cls-1" d="M85.42 113.61l-.42-.25a15.93 15.93 0 01-2.28-1.6 15.57 15.57 0 01-2-2c-.13-.14-.23-.28-.32-.4l-.24-.32-.16-.18-.05-.07-.83.58.06.08.16.22.25.33c.1.13.21.28.35.43a16.58 16.58 0 002.09 2.1 17 17 0 002.43 1.7l.48.27.38.19.33.16.43-.92-.31-.15zM102.76 113.05l-.44.32c-.17.12-.37.26-.59.39a16.47 16.47 0 01-7.12 2.51c-.26 0-.49 0-.7.06h-1.02v1.08H93.98c.22 0 .48 0 .75-.07a17.56 17.56 0 007.58-2.67c.24-.14.44-.29.63-.42l.47-.34.4-.31-.67-.85zM76.87 95l-1.46-.44a.18.18 0 00-.2.18l-.06.54V98.14a.16.16 0 00.13.16l1 .08a.16.16 0 00.16-.16v-.48c0-.29.09-.67.16-1.05 0-.19.08-.38.12-.56s.07-.34.11-.48l.17-.46a.17.17 0 00-.13-.19z" transform="translate(-60.74 -66.72)"/><path class="cls-3" d="M100.15 110.8a.45.45 0 00-.12.61.44.44 0 10.73-.49.45.45 0 00-.61-.12zM97.06 112.32a.45.45 0 00-.28.56.44.44 0 10.83-.29.45.45 0 00-.55-.27zM93.69 113a.44.44 0 00-.3.15.45.45 0 00-.11.32.44.44 0 00.14.31.44.44 0 00.74-.37.45.45 0 00-.47-.41zM90.25 112.79a.45.45 0 10.35.51.44.44 0 00-.35-.51z" transform="translate(-60.74 -66.72)"/><path class="cls-1" d="M102.4 92.3a12.66 12.66 0 00-1.92-2 12.19 12.19 0 00-2.38-1.54A12.31 12.31 0 0085 90.21c-.17.13-.3.26-.43.36s-.22.2-.31.28l-.26.23.6.61.23-.22c.07-.07.17-.16.28-.26s.24-.22.4-.33a11.47 11.47 0 0112.21-1.32A11.34 11.34 0 0199.94 91a11.82 11.82 0 011.79 1.84 11.44 11.44 0 012.4 7.22v1.22l.85.1v-.34c0-.22 0-.55.05-1a12.3 12.3 0 00-2.63-7.74z" transform="translate(-60.74 -66.72)"/><path class="cls-1" d="M108.69 94.71a16.83 16.83 0 00-2-4.1 17 17 0 00-3.09-3.51 16.83 16.83 0 00-3.94-2.54 17.77 17.77 0 00-2.15-.82 16.76 16.76 0 00-2.19-.5h-.54l-.54-.06h-2.09c-.35 0-.69 0-1 .06a17 17 0 00-3.72.77 16.66 16.66 0 00-2.95 1.29 16.05 16.05 0 00-2.07 1.37l-.38.3-.33.28-.28.24-.22.21-.44.3.24.23.4-.38.22-.21.27-.24.32-.27.38-.29a15.67 15.67 0 012-1.34 16.26 16.26 0 012.88-1.26 16.59 16.59 0 013.64-.75c.33 0 .66-.06 1-.06h2.08l.53.06h.54a16.41 16.41 0 012.14.49 17.39 17.39 0 012.1.8 16.44 16.44 0 013.85 2.48 16.66 16.66 0 013 3.43 16.48 16.48 0 011.64 14.82 15.59 15.59 0 01-1 2.2l-.24.42-.22.36-.19.31-.17.25-.24.34-.08.11.31.23.09-.12.24-.35.18-.25.2-.31.23-.37.24-.43a16 16 0 001-2.25 16.86 16.86 0 00.35-10.94z" transform="translate(-60.74 -66.72)"/><g class="cls-2"><path class="cls-1" d="M107.06 95.18a14.46 14.46 0 00-.84-2.07l-.16-.32-.13-.23-.11-.19-.86.49-.06-.1-.17-.28-.27-.42-.37-.53a14.49 14.49 0 00-2.38-2.53 14.16 14.16 0 00-2.92-1.88c-.21-.11-.42-.19-.59-.27l-.46-.19-.3-.11h-.11l.33-.94-.66-.27-.8-.21-.54-.13-.56-.1a15.2 15.2 0 00-5.76.17 14.95 14.95 0 00-5.28 2.32c-.33.22-.61.45-.87.64s-.46.39-.63.54l-.53.5 2 2 .32-.3c.1-.1.24-.21.39-.34s.34-.28.55-.44a12.16 12.16 0 011.6-1 12.53 12.53 0 012.25-.99 12.82 12.82 0 012.86-.46 12.57 12.57 0 011.6 0h.81c.27.05.55.09.83.15a11.72 11.72 0 011.65.48 11.89 11.89 0 011.61.73l.39.22.38.24c.13.08.25.16.37.25s.25.17.37.26a13.18 13.18 0 011.37 1.19 13.77 13.77 0 011.18 1.37 13.2 13.2 0 011 1.52 12.61 12.61 0 01.72 1.61 12.09 12.09 0 01.47 1.66c0 .14.06.28.08.42s.05.28.07.41.07.55.08.82 0 .54 0 .81v.79a12.25 12.25 0 01-1.46 5.15c-.09.16-.17.32-.26.46l-.26.42-.26.38-.12.18-.12.16-.23.3-.22.25-.19.22-.16.17-.3.32 2 2 .15-.16.43-.46a16.37 16.37 0 001.36-1.77 14.83 14.83 0 001.45-2.8 15.17 15.17 0 001-7.11 15.3 15.3 0 00-.73-3zM86.7 88.55l-.29.16c-.24.13-.54.32-.85.52l-.43.3-.37.28-.26.2-.09.08-1.24-1.46.11-.09.29-.24.43-.3.5-.35c.35-.23.7-.45 1-.59l.33-.18.13-.06.88 1.7zm3.1-1.15l-.32.08-.48.12-.5.16-.5.18-.43.18-.3.13-.11.05-.82-1.73.13-.06.34-.15.49-.2c.18-.07.37-.15.57-.21l.58-.19.55-.14.37-.09h.14l.41 1.87zm3.42-.31h-1.44c-.36 0-.72.07-1 .1l-.44.08-.34-1.86.51-.09c.31 0 .72-.1 1.13-.12H93.3zm3.26.57s-.17-.06-.43-.13l-.45-.12-.52-.11-.52-.09-.46-.06h-.44l.15-1.91h.56l.53.07.6.1.5.15.51.13c.3.08.5.15.5.15z" transform="translate(-60.74 -66.72)"/></g><path class="cls-3" d="M88.21 90.08l-.29.14c-.11.06-.22.1-.33.17l-.33.18-.26.18-.2.12h-.07l.5.75h.07l.18-.11.25-.16.27-.15c.1-.06.21-.1.31-.16l.27-.13.27-.12-.35-.79zM91.1 89.23h-.23l-.32.06-.37.08-.36.09-.32.09-.3.1.29.86.28-.09.29-.08.33-.09.34-.07.3-.05h.29l-.12-.9h-.1zM93.65 89.17h-.7a9.88 9.88 0 00-1 0l.05.88a8.92 8.92 0 01.94 0h.94l.12-.85h-.12zM96.22 89.72l-.16-.05-.36-.11c-.25-.06-.49-.14-.68-.17h-.32l-.17.89h.29c.17 0 .4.1.62.16l.33.11h.15l.13.05.27.1.34-.84-.3-.11zM98.82 91.07l-.27-.19-.32-.2-.32-.19-.29-.16-.29-.14-.4.82.26.13.26.15.3.17.29.18.25.17.17.12h.06l.54-.73H99zM100.67 92.7l-.26-.27c-.17-.19-.37-.36-.5-.5l-.17-.15-.07-.06-.59.69.06.05.16.14c.12.13.31.28.46.45l.24.26.2.23a2.61 2.61 0 01.19.23l.71-.56a3.07 3.07 0 00-.2-.25zM102.38 95.29c-.09-.17-.19-.4-.32-.62s-.12-.23-.19-.33l-.17-.28-.07-.06-.06-.08-.05-.07-.75.51v.07l.05.08.06.1.16.25c.06.09.11.2.17.3s.21.42.29.57.06.15.09.19v.07l.83-.36v-.08c.03-.1 0-.18-.04-.26zM103.16 97.61c0-.12 0-.24-.08-.37s-.13-.5-.19-.68l-.07-.22v-.08l-.86.3v.08l.06.2c.06.17.12.39.18.62s0 .23.08.34 0 .21.06.29v.29l.9-.13-.05-.32c.02-.09 0-.2-.03-.32zM103.38 99.31v-.32l-.9.07V100.93l.9.1V101v-1-.38c0-.12.01-.21 0-.31zM102.27 101.9l-.06.29-.09.33c0 .11-.07.22-.1.33l-.09.29-.1.27.85.33.11-.3.1-.31c0-.11.08-.24.11-.36l.1-.36.07-.32c0-.19.06-.31.06-.31l-.89-.16s-.02.11-.07.28z" transform="translate(-60.74 -66.72)"/><path class="cls-4" d="M107.16 104.2l-.2.63a15.42 15.42 0 01-.78 1.84l-.12.24-.13.24c-.09.16-.17.31-.26.46s-.34.56-.51.78-.28.41-.38.54l-.15.2.5.39.16-.21c.1-.13.24-.33.4-.56s.34-.52.53-.82.18-.31.27-.48l.14-.25.13-.25a16.05 16.05 0 00.82-1.92l.21-.65.07-.25-.61-.17z" transform="translate(-60.74 -66.72)"/><path class="cls-1" d="M106.1 89.93l-.26-.34c-.1-.13-.21-.28-.35-.43a16.57 16.57 0 00-2.09-2.1 17 17 0 00-2.43-1.7l-.48-.27-.38-.19-.33-.16-.43.92.31.15.34.19.45.25a16 16 0 012.28 1.6 15.55 15.55 0 012 2c.13.14.23.28.33.4l.24.32.15.21.05.07.83-.58-.06-.08zM92 82.15h-.58c-.22 0-.48 0-.75.07a17.55 17.55 0 00-7.58 2.67c-.24.14-.44.29-.63.42l-.46.37-.4.31.67.85.38-.29.44-.32c.17-.12.37-.26.59-.39a16.48 16.48 0 017.12-2.51c.26 0 .49 0 .7-.06h1.01v-1.13H92zM110.35 101.6v-.14a.16.16 0 00-.13-.16l-1-.08a.16.16 0 00-.16.16v.48c0 .29-.09.67-.16 1.05 0 .19-.08.38-.12.56s-.07.34-.11.48l-.13.47a.17.17 0 00.09.21l1.46.44a.18.18 0 00.2-.18l.06-.54v-.55-1.26V101.6z" transform="translate(-60.74 -66.72)"/><path class="cls-3" d="M84.79 88.06a.45.45 0 10.62.13.44.44 0 00-.62-.13zM88.09 86.43a.44.44 0 00-.27.57.44.44 0 00.83-.29.44.44 0 00-.56-.28zM91.69 85.71a.43.43 0 00-.41.48.45.45 0 00.47.41.44.44 0 00.3-.15.45.45 0 00.11-.32.44.44 0 00-.16-.31.44.44 0 00-.31-.11zM95.36 85.93a.45.45 0 10.35.53.44.44 0 00-.35-.53z" transform="translate(-60.74 -66.72)"/><path class="cls-5" d="M95.52 98.71a2.92 2.92 0 01-3.73 3.76l-.06.24a3.16 3.16 0 004-4.06zM93.8 97l.06-.24a3.16 3.16 0 00-4.06 4l.24-.06A2.92 2.92 0 0193.8 97z" transform="translate(-60.74 -66.72)"/><path class="cls-5" d="M93.8 97l-.63 2.35 2.35-.63A2.91 2.91 0 0093.8 97z" transform="translate(-60.74 -66.72)"/><path class="cls-5" d="M93.87 96.76a3.16 3.16 0 011.89 1.89l1.1-.3-2.7-2.7zM90.72 101.79a2.89 2.89 0 001.07.68l.64-2.38-2.38.64a2.89 2.89 0 00.67 1.06z" transform="translate(-60.74 -66.72)"/><path class="cls-5" d="M89.81 100.79l-1.06.29 2.7 2.7.29-1.06a3.15 3.15 0 01-1.93-1.93zM94 92.73h-.2l-.48-.07h-1.2a7.23 7.23 0 00-1.38.23 7.12 7.12 0 00-1.31.49 5.07 5.07 0 00-.56.31l-.26.15-.22.16-.39.26-.28.25-.24.22.77.77.21-.19.24-.22.3-.24.19-.14.22-.13a4.08 4.08 0 01.48-.26A6 6 0 0191 93.9a6.13 6.13 0 011.17-.2h1.04l.41.06H93.93l.27.07.28-1.05-.32-.08zM99.89 99.15l-.07-.48v-.37l-.15-.3-1.05.28.07.27V98.86l.06.41v1.04a6.27 6.27 0 01-.19 1.17 4.81 4.81 0 01-.18.58 4.58 4.58 0 01-.23.54 3.84 3.84 0 01-.26.48l-.13.22-.14.19-.25.33-.22.24-.19.21.85.73.22-.24.25-.28.29-.39.16-.23.15-.26a4.8 4.8 0 00.31-.57 5.6 5.6 0 00.27-.63 7.26 7.26 0 00.36-1.37 5.67 5.67 0 00.08-.68v-.62c.01-.2 0-.4-.01-.58zM90.83 105.82l-.3-.11a2.75 2.75 0 01-.39-.15l-.44-.21-.47-.28-.47-.35c-.15-.13-.3-.27-.45-.4l-.06-.05-.05-.06-.1-.11-.2-.22a2 2 0 01-.18-.23l-.17-.23-.08-.11-.07-.12-.15-.19c0-.08-.09-.15-.13-.22l-.1-.22-.09-.2v-.18l-.11-.3-.07-.19v-.07l-1 .3v.08l.08.23.12.36v.22l.05.19.12.25c0 .09.1.17.15.26l.16.27.08.14.1.13.2.27a2.61 2.61 0 00.22.27l.24.26.15.15h.06l.07.06c.18.16.35.32.53.47l.55.47.55.33c.18.1.36.17.52.25a3.56 3.56 0 00.45.18l.36.12.23.06h.08l.27-1.06h-.07z" transform="translate(-60.74 -66.72)"/><path class="cls-5" d="M99 98.86v-.45c0-.15-.07-.3-.11-.44l-.15-.43a6.7 6.7 0 00-1.4-2.19l-.07-.08-.08-.07-.19-.13-.15-.14a1.47 1.47 0 00-.16-.13 6.48 6.48 0 00-5.38-1.28 6.32 6.32 0 00-1.88.71l-.34.2-.28.2-.24.18-.2.19-.37.29.21.21.33-.29.21-.21.25-.12.27-.19.33-.19a6 6 0 011.79-.68 6.18 6.18 0 015.1 1.18 1.33 1.33 0 01.15.13l.15.13.15.13.06.1.07.07a6.41 6.41 0 011.34 2.09l.14.41c0 .14.07.28.11.42l.05.21v.22c0 .08 0 .29.06.44a6.75 6.75 0 01-.1 1.77 6.68 6.68 0 01-.61 1.7 6.18 6.18 0 01-2.54 2.54 6.2 6.2 0 01-3.47.71l-.4-.07h-.22l-.21-.05c-.14 0-.28-.06-.42-.11l-.41-.14a6.4 6.4 0 01-2.09-1.34l-.07-.07-.07-.07L88 104l-.13-.15a1.34 1.34 0 01-.13-.15 6.18 6.18 0 01-1.22-5.13 6 6 0 01.68-1.79l.19-.33c.06-.1.13-.19.19-.27l.21-.18c.05-.07.11-.13.16-.18l.29-.33-.24-.2-.31.34c0 .06-.11.11-.16.19l-.18.24c-.06.09-.14.18-.2.28l-.2.34a6.31 6.31 0 00-.71 1.88 6.48 6.48 0 001.28 5.38 1.48 1.48 0 00.13.16l.14.15.21.15v.08l.08.07a6.7 6.7 0 002.19 1.4l.43.15c.14 0 .29.07.44.11l.22.05h.23l.46.06a6.51 6.51 0 003.64-.74 6.5 6.5 0 002.68-2.58 7 7 0 00.64-1.78 7.06 7.06 0 00.1-1.86c-.01-.2-.04-.36-.11-.5z" transform="translate(-60.74 -66.72)"/><circle class="cls-3" cx="92.63" cy="99.89" r=".51" transform="rotate(-45 -18.297 139.839)"/><g class="cls-2"><path class="cls-6" d="M122.16 98.43c0-.66-.13-1.32-.21-2 0-.33-.11-.67-.16-1l-.09-.5-.11-.5a29.77 29.77 0 00-2.9-7.94 30.33 30.33 0 00-2.34-3.68 29.83 29.83 0 00-6.18-6.18 31 31 0 00-3.68-2.34 29.78 29.78 0 00-7.94-2.9l-.5-.11-.51-.09-1-.16c-.67-.08-1.33-.17-2-.21A29.91 29.91 0 0083.72 72a30.12 30.12 0 00-5.53 2.31c-.39.22-.77.42-1.13.64l-1 .64-.91.63-.42.3-.39.3-.72.56-.62.55-.52.45-.48.39-.76.73 6.19 6.19.57-.52.3-.28.37-.32.43-.37.51-.39.28-.21.3-.21.65-.45.72-.45c.25-.16.52-.29.8-.45a21 21 0 018.84-2.5 20.6 20.6 0 012.74 0c.47 0 .94.09 1.41.14l.65.14.36.06.4.12a21 21 0 015.6 2 22 22 0 012.6 1.65 21.21 21.21 0 014.39 4.35 21.67 21.67 0 011.65 2.6 21 21 0 012 5.6l.08.36.06.36c0 .24.09.47.12.71.05.47.12.94.15 1.41a20.92 20.92 0 010 2.74 22 22 0 01-.62 4h8.94a31.34 31.34 0 00.41-3.54 29.46 29.46 0 00.02-3.81zM77.68 82.61l-.27.23-2.9-3.44.32-.27.33-.26L78 82.4zm2.08-1.51l-.29.19L77 77.55s.17-.12.35-.23l.36-.22 2.39 3.81zm1.92-1.1l-2.07-4 .75-.37 1.95 4.05zM84 78.93l-1.61-4.2.78-.3 1.49 4.25zm2.81-.93l-.34.09-1.14-4.35.4-.11.41-.09 1 4.38zm2.53-.47H89l-.65-4.45h.83l.52 4.47zm2.22-.19l-.16-4.44h.84v4.5zm3.27.11h-.7l.34-4.45h.83zm2.54.41l-.37-.02-.34-.07.83-4.42.41.08.41.09zm2.48.69l-.67-.21 1.31-4.3.8.26zm2.39 1h-.1l-.22-.1-.32-.14 1.78-4.13.38.17.24.08.12.06zm2.26 1.22l-.3-.19-.31-.17 2.23-3.91.36.21.36.22zm2.12 1.46l-.28-.23-.19-.15-.09-.06 2.65-3.63.11.08.18.2.33.26zm1.94 1.69l-.56-.47 3-3.32.61.58zm1.75 1.89l-.46-.53 3.38-3 .54.72zm1.47 2l-.14-.2-.2-.29 3.69-2.58.24.34.16.24.07.11-3.76 2.47zm1.34 2.32l-.12-.33-.17-.31 3.95-2.16.21.37.19.38zm.91 2l-.09-.23v-.1l4.17-1.7v.12l.1.27.15.39-4.22 1.57zm.71 2.11l4.32-1.24.22.81-4.36 1.1zm.62 2.86l-.06-.35 4.44-.74.07.41c0 .21.06.41.06.41l-4.46.61s-.02-.16-.05-.33zm.25 2.91v-.34-.35l4.49-.25v.84z" transform="translate(-60.74 -66.72)"/></g><g class="cls-2"><path class="cls-6" d="M108.71 117.83c-.3.3-.77.7-1.38 1.21a22.34 22.34 0 01-2.34 1.63 21.4 21.4 0 01-3.3 1.65 23.13 23.13 0 01-4.2 1.22 23.79 23.79 0 01-4.88.42 24.68 24.68 0 01-5.21-.68c-.44-.09-.87-.23-1.3-.35s-.86-.28-1.29-.42-.85-.32-1.27-.5-.84-.36-1.24-.57a24.68 24.68 0 01-4.56-2.93 24.37 24.37 0 01-3.74-3.75 23.71 23.71 0 01-4.23-8.23 22.36 22.36 0 01-.73-3.64l-.05-.4v-.39l-.06-.74v-1.32-1.06l.07-.79v-.65l-2.26-.24v.71l-.05.86V101.47l.06.82v.43l.06.44a24.63 24.63 0 00.81 4 26 26 0 004.63 9 26.64 26.64 0 004 4.09 26.94 26.94 0 005 3.2c.44.23.9.42 1.35.63s.92.37 1.38.55.94.33 1.41.46.94.28 1.42.38a27 27 0 005.7.74 26.08 26.08 0 005.35-.46 25.42 25.42 0 004.62-1.34 23.67 23.67 0 003.64-1.82 24.64 24.64 0 002.58-1.79c.67-.55 1.19-1 1.52-1.33l.52-.49-1.61-1.61z" transform="translate(-60.74 -66.72)"/></g><path class="cls-6" d="M114.24 122.45a2.34 2.34 0 00-.27.25l-.63.6c-.42.39-.86.77-1.3 1.13a28.82 28.82 0 01-8.86 5 30.88 30.88 0 01-13.39 1.54 31.47 31.47 0 01-21.84-12.38 30.71 30.71 0 01-5.39-25.41c.93-4-.34-3.51-1.18.64q-.1.52-.19 1a31.74 31.74 0 006.54 25.12A32.49 32.49 0 0089.8 132a31.92 31.92 0 0013.52-1.54 30.45 30.45 0 006.17-2.92 33.94 33.94 0 005.47-4.33l-.6-.61a.73.73 0 00-.12-.15z" transform="translate(-60.74 -66.72)"/><path class="cls-6" d="M110.83 119c-.08-.08-.2.12-.27.18-.37.35-.75.71-1.14 1A24.86 24.86 0 0198 125.76 26.48 26.48 0 0178.73 122a27.81 27.81 0 01-5.07-4.23 26 26 0 01-6.84-20.93 20.92 20.92 0 01.69-3.44c.53-1.82-3.07-3.69-3.68-1.59a30.08 30.08 0 00-.67 13.64 29.42 29.42 0 004.46 11.07 31.13 31.13 0 006.59 7.14 30 30 0 005.93 3.65 32.89 32.89 0 006.54 2.2 30.24 30.24 0 0013.85-.27 28.64 28.64 0 0011.32-5.85c.61-.51 1.18-1.06 1.76-1.61l-1.91-1.91zm-20.51 10.44a29.75 29.75 0 01-6.1-1.21 2.32 2.32 0 01-.31-.11v-.14l.21-.66.51-1.57.07-.2a25.56 25.56 0 005.83 1.19zm6.51-.11h-.06a31.72 31.72 0 01-5.47.18l.16-2.65v-.06H93.47a23.93 23.93 0 003.34-.26l.58-.09a.25.25 0 010 .12l.15.89.28 1.66zm8-2.24a31.53 31.53 0 01-6 1.89s-.48-2.35-.52-2.59v-.07a24.43 24.43 0 005.66-1.83l.63 1.37.39.84.1.23c.01.07-.22.14-.27.17zm6.44-4s-.07.06 0 0a24.52 24.52 0 01-2.65 2c-.2.13-2.61 1.55-2.63 1.5l-1.2-2.38a23.64 23.64 0 005-3.29l1 1.15.6.71.16.19c-.05-.04-.24.03-.29.11z" transform="translate(-60.74 -66.72)"/><path class="cls-7" d="M103.65 117.35l-.36.22-.51.31-.61.33c-.2.12-.42.21-.62.31s-.38.19-.54.26l-.54.23.91 2.24.62-.25c.18-.08.39-.18.61-.29s.47-.21.7-.35l.69-.36.58-.35.41-.25.15-.1-1.33-2zM98.62 119.64c-.17.06-.37.11-.58.16s-.44.12-.68.17l-.68.14c-.22 0-.43.07-.6.1l-.43.07h-.12l.29 2.4h.13l.48-.07c.2 0 .43-.05.67-.11l.77-.15c.26-.05.52-.13.76-.19s.47-.11.66-.18l.64-.19-.74-2.3zM93.95 120.4H92.2c-.48 0-1-.07-1.31-.09-.18 0-.33 0-.43-.05h-.16l-.3 2.37h.18c.12 0 .28 0 .48.06.4 0 .93.1 1.47.11s1.07 0 1.47 0H94.26l-.12-2.41h-.19zM88.33 119.87c-.17 0-.38-.08-.6-.15l-.68-.19c-.23-.06-.46-.15-.67-.22s-.41-.13-.58-.2l-.56-.22-.91 2.24.67.24c.19.08.41.15.65.23s.49.17.75.25l.76.22c.24.07.47.11.67.16l.47.11h.18l.44-2.34h-.16zM82.9 117.76c-.19-.11-.41-.22-.61-.35l-.6-.38c-.19-.12-.36-.25-.51-.35l-.36-.25-.13-.1-1.44 1.94.15.11.4.28c.17.11.35.26.57.39l.63.42c.22.15.46.27.68.39s.42.25.6.33l.6.3 1.12-2.17-.54-.27c-.18-.05-.36-.18-.56-.29zM78.71 114.67c-.16-.16-.34-.32-.5-.5l-.49-.51-.4-.46-.32-.33-.1-.13-1.88 1.52.11.14.32.37c.13.15.28.33.45.52l.54.57c.18.2.38.38.56.55l.5.47.5.44 1.57-1.84-.46-.39zM75.76 111.14l-.33-.52-.18-.29-.17-.33c-.11-.21-.24-.41-.34-.61l-.27-.55c-.08-.16-.15-.29-.19-.39l-.07-.15-2.2 1 .07.17c0 .11.12.26.21.44l.31.61c.11.22.25.45.38.69l.19.35.2.33.36.58c.11.17.21.3.27.4l.13.13 2-1.39-.13-.11c-.05-.09-.14-.21-.24-.36zM73.3 105.9l-.19-.68c-.11-.22-.11-.45-.16-.67s-.1-.42-.13-.6l-.1-.59-2.38.4.12.66c0 .2.09.42.15.67s.11.51.19.76l.2.75.21.65c.12.38.22.63.22.63l2.27-.84s-.09-.22-.2-.56zM72.46 100.79V99.4v-1.2l-2.33-.2V101.58l.05.67 2.4-.23v-.59c-.11-.2-.12-.43-.12-.64z" transform="translate(-60.74 -66.72)"/><path class="cls-5" d="M125 96.92v-.08a31.68 31.68 0 00-.47-4.78q-.22-1.23-.54-2.44c0-.09 0-.07.09-.09l.28-.08.46-.12c-.16-.56-.32-1.11-.5-1.66-.24-.72-.52-1.42-.79-2.13a33.28 33.28 0 00-1.82-3.54l-.38.22-.26.15a.42.42 0 01-.12.07c-.44-.75-.91-1.49-1.41-2.21a29.43 29.43 0 00-3.29-3.9l.62-.62a35.88 35.88 0 00-3.81-3.22 27.29 27.29 0 00-2.3-1.49.59.59 0 00-.25-.12l-.14.24-.29.5a28.76 28.76 0 00-7.17-3l.14-.53.08-.29c0-.07-.15-.07-.2-.09-.89-.24-1.79-.4-2.69-.56a33.31 33.31 0 00-5-.42v.87a1 1 0 000 .33 1.48 1.48 0 00.45 0h.83c.57 0 1.14.07 1.7.12a27.87 27.87 0 016.06 1.27 29.45 29.45 0 0118.9 18.79 26.43 26.43 0 011.19 5.11c.11.9.23 1.8.26 2.71v1.4h.37v-.41z" transform="translate(-60.74 -66.72)"/></svg>