<svg preserveAspectRatio="none" id="Layer_1" data-name="Layer 1" xmlns="http://www.w3.org/2000/svg" viewBox="0 0 108.67 108.67"><defs><linearGradient id="linear-gradient" x1="37.25" y1="239.99" x2="142.74" y2="239.99" gradientUnits="userSpaceOnUse"><stop offset="0" stop-color="#334f7e"/><stop offset=".99" stop-color="#5d85c4"/></linearGradient><style>.cls-4{fill:#3ee497}</style></defs><path d="M90 294.33A54.33 54.33 0 11144.33 240 54.4 54.4 0 0190 294.33zm0-100.67A46.33 46.33 0 10136.33 240 46.39 46.39 0 0090 193.67z" transform="translate(-35.67 -185.67)" fill="#2e2855"/><path d="M90 292.74a52.67 52.67 0 01-34.27-12.53L59 276.4a48.1 48.1 0 0062.24-.17l3.27 3.79A52.7 52.7 0 0190 292.74zm-40-18.19a53.1 53.1 0 01-.18-68.9l3.8 3.25a48.07 48.07 0 00.16 62.38zm80.07-.15l-3.79-3.26a48.1 48.1 0 000-62.25l3.79-3.26a53.13 53.13 0 01.03 68.77zm-71.4-70.58L55.43 200a53.09 53.09 0 0168.93-.18l-3.26 3.79a48.06 48.06 0 00-62.39.2z" transform="translate(-35.67 -185.67)" fill="url(#linear-gradient)"/><path d="M99.53 275.06l-1.05-3.86a32.34 32.34 0 00-.14-62.45l1-3.86a36.34 36.34 0 01.19 70.17z" transform="translate(-35.67 -185.67)" fill="#e9aa4f"/><path class="cls-4" d="M80.9 274.15a35.34 35.34 0 010-68.29l.52 1.93a33.34 33.34 0 000 64.43z" transform="translate(-35.67 -185.67)"/><path d="M90 270.83a30.87 30.87 0 01-29.81-23L65 246.6a25.84 25.84 0 0050-.08l4.84 1.26A30.85 30.85 0 0190 270.83z" transform="translate(-35.67 -185.67)" fill="#d13954"/><path class="cls-4" d="M63.63 232.81l-1.93-.53a29.34 29.34 0 0156.6 0l-1.93.53a27.34 27.34 0 00-52.74 0z" transform="translate(-35.67 -185.67)"/></svg>