<svg preserveAspectRatio="none" id="Layer_1" data-name="Layer 1" xmlns="http://www.w3.org/2000/svg" viewBox="0 0 19.61 21.05"><defs><style>.cls-1{fill:#065977;}.cls-2{fill:#00b3ea;}.cls-3{fill:#feb113;}</style></defs><title>circle59</title><path class="cls-1" d="M162.33,269.42l-0.11.06-0.11.06-0.13.07-0.23.14-0.07.05,0,0-2-2.81,0,0,0.13-.09,0.4-.25,0.22-.12,0.19-.1,0.19-.1Z" transform="translate(-155.29 -263.17)"/><path class="cls-1" d="M163.67,269h0l-0.09,0-0.27.05-0.26.07-0.12,0-1.06-3.26,0.2-.06,0.45-.12,0.46-.09,0.15,0h0.06Z" transform="translate(-155.29 -263.17)"/><path class="cls-2" d="M161.27,271.79l-0.45-.28,0-.05,0.1-.15a4,4,0,0,1,.45-0.54,4.21,4.21,0,0,1,.86-0.67,4.12,4.12,0,0,1,1.31-.49,4.2,4.2,0,0,1,1.66,0,4.17,4.17,0,0,1,3.29,4.32,4.28,4.28,0,0,1-.19,1,4.18,4.18,0,0,1-1.83,2.32,4.14,4.14,0,0,1-1.75.57,4.15,4.15,0,0,1-2.9-.82,4.66,4.66,0,0,1-.44-0.39,4.27,4.27,0,0,1-.33-0.38,4.47,4.47,0,0,1-.38-0.59l-0.08-.16,0-.06,0.48-.22,0,0.05,0.07,0.14a4,4,0,0,0,.34.51,3.76,3.76,0,0,0,.29.33,4.11,4.11,0,0,0,.39.34,3.65,3.65,0,0,0,1.09.56,3.69,3.69,0,0,0,1.45.15,3.61,3.61,0,0,0,1.53-.5,3.66,3.66,0,0,0,1.6-2,3.75,3.75,0,0,0,.16-0.88,3.64,3.64,0,0,0-4.33-3.79,3.59,3.59,0,0,0-1.14.43,3.69,3.69,0,0,0-.75.58,3.51,3.51,0,0,0-.39.47l-0.09.13Z" transform="translate(-155.29 -263.17)"/><path class="cls-1" d="M165.08,269L165,269l-0.27,0h-0.4l-0.06-3.43h0.21l0.47,0,0.47,0,0.21,0Z" transform="translate(-155.29 -263.17)"/><path class="cls-1" d="M166.42,269.43l-0.11-.05-0.25-.1-0.26-.09-0.12,0,0.95-3.29,0.2,0.06,0.44,0.15,0.43,0.18,0.19,0.09Z" transform="translate(-155.29 -263.17)"/><path class="cls-1" d="M167.58,270.22l0,0-0.07-.06-0.21-.17c-0.15-.12-0.32-0.23-0.32-0.23l1.88-2.87s0.29,0.18.55,0.4l0.36,0.3,0.12,0.1,0,0Z" transform="translate(-155.29 -263.17)"/><path class="cls-1" d="M168.46,271.31s-0.1-.17-0.21-0.33l-0.08-.12-0.08-.1-0.06-.07,0,0,2.63-2.2,0,0,0.1,0.12,0.13,0.17,0.15,0.2c0.1,0.14.19,0.28,0.26,0.39l0.08,0.13,0,0.05Z" transform="translate(-155.29 -263.17)"/><path class="cls-1" d="M169,272.61l0-.12c0-.07,0-0.17-0.08-0.26s-0.06-.19-0.09-0.25l0-.11,3.16-1.33,0.08,0.2c0,0.12.1,0.28,0.16,0.44s0.1,0.33.13,0.45,0.05,0.21.05,0.21Z" transform="translate(-155.29 -263.17)"/><path class="cls-1" d="M169.09,274v0a0.88,0.88,0,0,0,0-.09c0-.07,0-0.17,0-0.27s0-.2,0-0.27v-0.12l3.41-.34,0,0.21c0,0.13,0,.3,0,0.47s0,0.34,0,.47,0,0.12,0,.15v0.06Z" transform="translate(-155.29 -263.17)"/><path class="cls-1" d="M168.8,275.38a1.12,1.12,0,0,0,0-.12c0-.07.06-0.16,0.08-0.26s0.05-.19.07-0.26l0-.09v0l3.36,0.67v0.06l0,0.15c0,0.12-.07.29-0.12,0.45s-0.1.33-.14,0.45-0.07.2-.07,0.2Z" transform="translate(-155.29 -263.17)"/><path class="cls-1" d="M168.11,276.6l0.08-.1c0-.06.1-0.14,0.15-0.22l0.08-.12,0.06-.11,0.06-.11,3,1.63-0.1.19-0.11.19-0.13.21c-0.09.14-.19,0.28-0.27,0.38l-0.13.17Z" transform="translate(-155.29 -263.17)"/><path class="cls-1" d="M167.09,277.57l0.1-.07,0.21-.17,0.2-.18,0.09-.08,2.41,2.44s-0.24.24-.5,0.46l-0.37.29-0.17.12Z" transform="translate(-155.29 -263.17)"/><path class="cls-1" d="M165.84,278.2l0.12,0,0.25-.1,0.25-.11,0.11-.06,1.59,3L168,281l-0.43.2-0.44.17-0.2.07Z" transform="translate(-155.29 -263.17)"/><path class="cls-1" d="M164.46,278.43h0.12l0.27,0,0.27,0,0.12,0,0.63,3.37-0.21,0-0.46.06-0.47,0h-0.21Z" transform="translate(-155.29 -263.17)"/><path class="cls-1" d="M163.06,278.25l0.12,0,0.26,0.06,0.39,0.06-0.38,3.41s-0.34,0-.67-0.1l-0.46-.1-0.21-.06Z" transform="translate(-155.29 -263.17)"/><path class="cls-1" d="M161.79,277.67l0.1,0.07,0.23,0.14,0.36,0.17-1.37,3.14s-0.31-.14-0.61-0.3l-0.41-.23-0.18-.11Z" transform="translate(-155.29 -263.17)"/><path class="cls-1" d="M160.74,276.74s0.13,0.15.27,0.29l0.2,0.19,0.09,0.08-2.23,2.6-0.16-.14-0.34-.32c-0.24-.24-0.46-0.5-0.46-0.5Z" transform="translate(-155.29 -263.17)"/><path class="cls-2" d="M155.29,273.7h0.53v0.13c0,0.09,0,.21,0,0.38a8.64,8.64,0,0,0,.2,1.42,8.54,8.54,0,0,0,.29,1,8.82,8.82,0,0,0,.49,1.1,8.55,8.55,0,0,0,13.85,1.76,8.72,8.72,0,0,0,1.23-1.72,8.63,8.63,0,0,0,.77-2,8.56,8.56,0,0,0,0-4.13,8.43,8.43,0,0,0-.71-1.89,8.55,8.55,0,0,0-5.52-4.36,8.28,8.28,0,0,0-1.5-.23,8.68,8.68,0,0,0-1.37,0,8.59,8.59,0,0,0-2.17.49,8.32,8.32,0,0,0-1.3.61l-0.32.2-0.11.07-0.29-.44,0.2-.13,0.55-.31a9.06,9.06,0,0,1,3.66-1l0.63,0h0.24l0-1.46H165l0.44,0,0.59,0.08a10.54,10.54,0,0,1,7.21,4.78,10.21,10.21,0,0,1,.69,1.28,10.1,10.1,0,0,1,.52,1.4,10.56,10.56,0,0,1,.42,3,11.1,11.1,0,0,1-.12,1.51,10.91,10.91,0,0,1-.33,1.48,10.56,10.56,0,0,1-3,4.75,10.75,10.75,0,0,1-2,1.43,10.45,10.45,0,0,1-1.92.82,11.07,11.07,0,0,1-1.57.36l-0.59.07-0.44,0h-0.36l0-1.46h-0.62a9.34,9.34,0,0,1-1.61-.23,9.24,9.24,0,0,1-1-.31,9.34,9.34,0,0,1-1.11-.5,9.12,9.12,0,0,1-2.13-1.56,9.07,9.07,0,0,1-1.59-2.1,9.14,9.14,0,0,1-.85-2.15,8.93,8.93,0,0,1-.25-1.61c0-.2,0-0.35,0-0.46V273.7Zm11.34-9.41a0.69,0.69,0,0,0-1.26-.22A0.71,0.71,0,0,0,166.63,264.29Zm1.93,0.68a0.35,0.35,0,0,0,0-.35,0.81,0.81,0,0,0-.38-0.3,0.55,0.55,0,0,0-.76.17A0.71,0.71,0,0,0,168.56,265Zm1.73,1.07a0.36,0.36,0,0,0,0-.35,0.88,0.88,0,0,0-.77-0.52,0.36,0.36,0,0,0-.32.16,0.37,0.37,0,0,0,0,.35,0.91,0.91,0,0,0,.73.49A0.37,0.37,0,0,0,170.29,266Zm1.47,1.41a0.55,0.55,0,0,0-.13-0.76,0.8,0.8,0,0,0-.42-0.24,0.35,0.35,0,0,0-.34.09A0.71,0.71,0,0,0,171.76,267.45Zm1.14,1.68a0.68,0.68,0,0,0-.68-1.08A0.71,0.71,0,0,0,172.9,269.14Zm0.77,1.89a0.36,0.36,0,0,0,.23-0.27,0.84,0.84,0,0,0,0-.48,0.56,0.56,0,0,0-.63-0.45,0.58,0.58,0,0,0-.16.74,0.82,0.82,0,0,0,.26.38A0.37,0.37,0,0,0,173.67,271Zm0.35,2a0.55,0.55,0,0,0,.35-0.69,0.8,0.8,0,0,0-.19-0.44,0.35,0.35,0,0,0-.33-0.13A0.71,0.71,0,0,0,174,273Zm-0.07,2a0.35,0.35,0,0,0,.32-0.15,0.74,0.74,0,0,0,.11-0.2,1,1,0,0,0,.05-0.26,0.94,0.94,0,0,0,0-.26,0.73,0.73,0,0,0-.08-0.21,0.35,0.35,0,0,0-.29-0.19,0.38,0.38,0,0,0-.3.18,0.71,0.71,0,0,0-.1.19,0.9,0.9,0,0,0,0,.24,0.88,0.88,0,0,0,0,.24,0.71,0.71,0,0,0,.07.21A0.38,0.38,0,0,0,173.95,275.07Z" transform="translate(-155.29 -263.17)"/><path class="cls-3" d="M167.49,272.75l-1.09.33,0-.12,0-.11,0.52-.23,0-.07,0-.08-0.06-.11a2.69,2.69,0,0,0-2.07-1.34,3,3,0,0,0-.66,0,2.68,2.68,0,0,0-1.18.48,2.72,2.72,0,0,0-.75.84,2.59,2.59,0,0,0-.29.73l0,0.07v0.06s0,0.07,0,.09v0.08l0.57,0.07a0.27,0.27,0,0,0,0,0s0,0.05,0,.09,0,0.06,0,.09v0H161.1v-0.11a1.1,1.1,0,0,1,0-.13s0-.11,0-0.17a3.2,3.2,0,0,1,.29-1,3.29,3.29,0,0,1,.92-1.16,3.24,3.24,0,0,1,1.54-.67,3.35,3.35,0,0,1,.87,0,3.13,3.13,0,0,1,.81.2,3.27,3.27,0,0,1,1.79,1.72,2.8,2.8,0,0,1,.11.27l0,0.07v0Z" transform="translate(-155.29 -263.17)"/><path class="cls-3" d="M165.54,264.1a0.41,0.41,0,0,1,.51-0.23,0.62,0.62,0,0,1,.32.15,0.26,0.26,0,0,1,.09.24,0.27,0.27,0,0,1-.18.18,0.61,0.61,0,0,1-.33,0A0.42,0.42,0,0,1,165.54,264.1Z" transform="translate(-155.29 -263.17)"/><path class="cls-3" d="M167.52,264.55a0.5,0.5,0,0,1,.87.35A0.52,0.52,0,0,1,167.52,264.55Z" transform="translate(-155.29 -263.17)"/><path class="cls-3" d="M169.38,265.42a0.5,0.5,0,0,1,.77.52A0.52,0.52,0,0,1,169.38,265.42Z" transform="translate(-155.29 -263.17)"/><path class="cls-3" d="M171,266.66a0.5,0.5,0,0,1,.65.67A0.52,0.52,0,0,1,171,266.66Z" transform="translate(-155.29 -263.17)"/><path class="cls-3" d="M172.32,268.2a0.5,0.5,0,0,1,.49.79A0.52,0.52,0,0,1,172.32,268.2Z" transform="translate(-155.29 -263.17)"/><path class="cls-3" d="M173.3,270a0.5,0.5,0,0,1,.32.88A0.52,0.52,0,0,1,173.3,270Z" transform="translate(-155.29 -263.17)"/><path class="cls-3" d="M173.88,271.93a0.41,0.41,0,0,1,.38.42,0.62,0.62,0,0,1,0,.35,0.26,0.26,0,0,1-.2.16,0.27,0.27,0,0,1-.23-0.11,0.6,0.6,0,0,1-.13-0.31A0.42,0.42,0,0,1,173.88,271.93Z" transform="translate(-155.29 -263.17)"/><path class="cls-3" d="M174,274a0.5,0.5,0,0,1-.07.93A0.52,0.52,0,0,1,174,274Z" transform="translate(-155.29 -263.17)"/></svg>