<svg preserveAspectRatio="none" id="Layer_1" data-name="Layer 1" xmlns="http://www.w3.org/2000/svg" viewBox="0 0 141.57 141.69"><defs><style>.cls-1{fill:#154666;}.cls-2{fill:#5cdeff;}.cls-3{fill:#2f99e0;}.cls-4{fill:#ba5bb2;}.cls-5{fill:#ff7df5;}</style></defs><title>circle115</title><path class="cls-1" d="M347.69,288.42a64.14,64.14,0,0,1-64.07-64.07,63.86,63.86,0,0,1,16.64-43.08,64.63,64.63,0,0,1,22.49-16A64.08,64.08,0,1,1,347.69,288.42Zm0-127.64a63.17,63.17,0,0,0-24.74,5,63.79,63.79,0,0,0-32.57,31,63,63,0,0,0-6.25,27.53A63.57,63.57,0,1,0,347.69,160.79Z" transform="translate(-276.98 -153.5)"/><path class="cls-2" d="M290.83,254.19a64.34,64.34,0,0,1-7.34-29.84h0.75a63.58,63.58,0,0,0,7.26,29.49Z" transform="translate(-276.98 -153.5)"/><path class="cls-2" d="M347.69,288.55a63.72,63.72,0,0,1-37.6-12.16l0.44-.61a63.46,63.46,0,0,0,82.74-7.29L393.8,269A63.68,63.68,0,0,1,347.69,288.55Z" transform="translate(-276.98 -153.5)"/><path class="cls-2" d="M411.88,224.35h-0.75a63.52,63.52,0,0,0-63.44-63.44v-0.75A64.27,64.27,0,0,1,411.88,224.35Z" transform="translate(-276.98 -153.5)"/><path class="cls-2" d="M307.5,266.2a58,58,0,0,1-2.76-80.86A58.53,58.53,0,0,1,325.1,170.9a57.66,57.66,0,0,1,22.58-4.56v0.75a56.91,56.91,0,0,0-22.29,4.5,57.48,57.48,0,0,0-29.34,28,57.32,57.32,0,0,0,12,66.11Z" transform="translate(-276.98 -153.5)"/><path class="cls-2" d="M383.46,270l-0.46-.59a57.3,57.3,0,0,0,18.54-25.54l0.71,0.26A58,58,0,0,1,383.46,270Z" transform="translate(-276.98 -153.5)"/><path class="cls-2" d="M405.71,224.35H405a57.14,57.14,0,0,0-14.83-38.46l0.55-.5A57.88,57.88,0,0,1,405.71,224.35Z" transform="translate(-276.98 -153.5)"/><rect class="cls-1" x="70.46" y="20.77" width="0.5" height="14.19"/><rect class="cls-3" x="343.69" y="174.43" width="0.5" height="14.19" transform="translate(-291.49 -122.83) rotate(-5)"/><rect class="cls-1" x="339.97" y="174.92" width="0.5" height="14.19" transform="translate(-303.42 -91.66) rotate(-10)"/><polygon class="cls-1" points="61.17 36.25 57.5 22.54 57.98 22.41 61.66 36.12 61.17 36.25"/><rect class="cls-3" x="332.73" y="176.86" width="0.5" height="14.19" transform="translate(-319.81 -28.52) rotate(-20)"/><rect class="cls-1" x="329.27" y="178.3" width="0.5" height="14.19" transform="translate(-324.46 3.14) rotate(-25)"/><rect class="cls-1" x="325.94" y="180.03" width="0.5" height="14.19" transform="translate(-326.84 34.67) rotate(-30)"/><rect class="cls-1" x="322.78" y="182.04" width="0.5" height="14.19" transform="matrix(0.82, -0.57, 0.57, 0.82, -327.05, 65.99)"/><rect class="cls-3" x="319.8" y="184.33" width="0.5" height="14.19" transform="translate(-325.15 97.01) rotate(-40)"/><rect class="cls-1" x="317.04" y="186.86" width="0.5" height="14.19" transform="translate(-321.19 127.68) rotate(-45)"/><polygon class="cls-3" points="43.05 47.97 32.18 38.85 32.5 38.47 43.37 47.59 43.05 47.97"/><rect class="cls-1" x="312.22" y="192.6" width="0.5" height="14.19" transform="translate(-307.31 187.62) rotate(-55)"/><rect class="cls-1" x="310.21" y="195.77" width="0.5" height="14.19" transform="translate(-297.43 216.79) rotate(-60)"/><rect class="cls-1" x="308.47" y="199.09" width="0.5" height="14.19" transform="translate(-285.6 245.35) rotate(-65)"/><polygon class="cls-1" points="36.89 58.81 23.56 53.96 23.73 53.49 37.06 58.34 36.89 58.81"/><polygon class="cls-1" points="35.97 61.81 22.27 58.13 22.39 57.65 36.1 61.32 35.97 61.81"/><polygon class="cls-3" points="35.31 64.87 21.34 62.41 21.43 61.91 35.4 64.38 35.31 64.87"/><polygon class="cls-1" points="34.92 67.98 20.79 66.74 20.84 66.24 34.97 67.48 34.92 67.98"/><rect class="cls-1" x="20.62" y="70.61" width="14.19" height="0.5"/><polygon class="cls-1" points="20.84 75.47 20.79 74.97 34.92 73.73 34.97 74.23 20.84 75.47"/><polygon class="cls-1" points="21.43 79.8 21.34 79.31 35.31 76.84 35.4 77.33 21.43 79.8"/><rect class="cls-1" x="299.07" y="235.23" width="14.19" height="0.5" transform="translate(-327.39 -66.48) rotate(-14.96)"/><rect class="cls-1" x="300.2" y="238.81" width="14.19" height="0.5" transform="translate(-340.33 -33.6) rotate(-20.06)"/><rect class="cls-3" x="301.63" y="242.27" width="14.19" height="0.5" transform="translate(-350.5 -0.5) rotate(-24.97)"/><rect class="cls-3" x="303.36" y="245.6" width="14.19" height="0.5" transform="translate(-358.28 34.44) rotate(-29.97)"/><rect class="cls-1" x="305.38" y="248.76" width="14.19" height="0.5" transform="translate(-363.29 70.68) rotate(-34.99)"/><polygon class="cls-1" points="32.5 103.24 32.18 102.86 43.05 93.74 43.37 94.12 32.5 103.24"/><rect class="cls-1" x="310.2" y="254.5" width="14.19" height="0.5" transform="translate(-364.19 145.47) rotate(-45)"/><polygon class="cls-3" points="38.7 109.38 38.32 109.06 47.44 98.19 47.82 98.52 38.7 109.38"/><rect class="cls-1" x="315.94" y="259.32" width="14.19" height="0.5" transform="translate(-351.85 221.84) rotate(-55.01)"/><rect class="cls-1" x="319.1" y="261.33" width="14.19" height="0.5" transform="translate(-340.33 260.01) rotate(-60.03)"/><rect class="cls-3" x="322.43" y="263.07" width="14.19" height="0.5" transform="translate(-325.26 297.41) rotate(-65.03)"/><rect class="cls-3" x="325.89" y="264.5" width="14.19" height="0.5" transform="translate(-306.87 333.28) rotate(-69.95)"/><rect class="cls-1" x="329.47" y="265.63" width="14.19" height="0.5" transform="translate(-284.17 368.9) rotate(-75.04)"/><polygon class="cls-1" points="62.26 120.22 61.76 120.14 64.23 106.17 64.72 106.25 62.26 120.22"/><polygon class="cls-1" points="66.59 120.77 66.09 120.73 67.33 106.6 67.83 106.64 66.59 120.77"/><rect class="cls-3" x="70.46" y="106.75" width="0.5" height="14.19"/><path class="cls-4" d="M347.69,253.42a29.1,29.1,0,0,1-29.07-29.07,28.8,28.8,0,0,1,2.86-12.59A29.07,29.07,0,1,1,347.69,253.42Zm0-57.64A28.39,28.39,0,0,0,336.57,198a28.66,28.66,0,0,0-14.64,14,28.3,28.3,0,0,0-2.81,12.37A28.57,28.57,0,1,0,347.69,195.78Z" transform="translate(-276.98 -153.5)"/><path class="cls-5" d="M321.27,236.79a28.94,28.94,0,0,1-2.77-12.44h0.75a28.19,28.19,0,0,0,2.7,12.12Z" transform="translate(-276.98 -153.5)"/><path class="cls-5" d="M347.69,253.55a29.16,29.16,0,0,1-15-4.12l0.38-.64a28.41,28.41,0,0,0,14.58,4v0.75Z" transform="translate(-276.98 -153.5)"/><path class="cls-5" d="M365.18,247.73l-0.45-.6a28.23,28.23,0,0,0,11.4-22.78h0.75A29,29,0,0,1,365.18,247.73Z" transform="translate(-276.98 -153.5)"/><path class="cls-5" d="M326.63,205.23l-0.55-.5a29.47,29.47,0,0,1,10.25-7.27l0.29,0.69A28.7,28.7,0,0,0,326.63,205.23Z" transform="translate(-276.98 -153.5)"/><path class="cls-1" d="M393.38,245.46l-12.79-7.38,0.08-.2a35.48,35.48,0,0,0,2.33-8.73l0-.22h14.78l0,0.27a50,50,0,0,1-4.29,16Zm-12.16-7.6,11.93,6.89a49.48,49.48,0,0,0,4.11-15.33H383.47A36,36,0,0,1,381.22,237.86Z" transform="translate(-276.98 -153.5)"/><path class="cls-1" d="M397.81,219.78H383l0-.22a35.45,35.45,0,0,0-2.33-8.73l-0.08-.2,12.79-7.38,0.11,0.25a50,50,0,0,1,4.29,16Zm-14.34-.5h13.79A49.48,49.48,0,0,0,393.15,204l-11.93,6.89A36,36,0,0,1,383.47,219.28Z" transform="translate(-276.98 -153.5)"/><path class="cls-1" d="M376.7,265.47l-7.38-12.79,0.17-.13a35.9,35.9,0,0,0,6.39-6.39L376,246l0.19,0.11,12.6,7.28-0.16.22a50.46,50.46,0,0,1-11.72,11.72ZM370,252.81l6.89,11.93a50,50,0,0,0,11.22-11.22l-11.94-6.89A36.39,36.39,0,0,1,370,252.81Z" transform="translate(-276.98 -153.5)"/><path class="cls-3" d="M376,202.72l-0.13-.17a35.9,35.9,0,0,0-6.39-6.39l-0.17-.13,0.11-.19,7.28-12.6,0.22,0.16a50.47,50.47,0,0,1,11.72,11.72l0.16,0.22Zm-6-6.82a36.41,36.41,0,0,1,6.17,6.17l11.94-6.89A50,50,0,0,0,376.86,184Z" transform="translate(-276.98 -153.5)"/><path class="cls-4" d="M347.71,246.68a22.3,22.3,0,0,1-19-10.56,22.31,22.31,0,1,1,21.36,10.44A22.55,22.55,0,0,1,347.71,246.68Zm-0.06-44.16a21.68,21.68,0,0,0-11.46,3.28h0a21.84,21.84,0,0,0-1.12,36.37,21.91,21.91,0,0,0,15,3.89,21.83,21.83,0,0,0,2.65-43A22,22,0,0,0,347.65,202.52Z" transform="translate(-276.98 -153.5)"/><path class="cls-5" d="M359.52,243.43l-0.39-.64a21.51,21.51,0,0,0,6.77-6.62l0.63,0.41A22.24,22.24,0,0,1,359.52,243.43Z" transform="translate(-276.98 -153.5)"/><path class="cls-5" d="M369.39,224a21.67,21.67,0,0,0-3.26-11.06l0.64-.4A22.41,22.41,0,0,1,370.14,224h-0.75Z" transform="translate(-276.98 -153.5)"/><path class="cls-5" d="M336.25,205.91l-0.39-.64a22.27,22.27,0,0,1,20-1.82l-0.27.7A21.53,21.53,0,0,0,336.25,205.91Z" transform="translate(-276.98 -153.5)"/><path class="cls-5" d="M343.61,246.43a22.63,22.63,0,0,1-8.9-3.75l0.43-.61a21.87,21.87,0,0,0,8.61,3.63Z" transform="translate(-276.98 -153.5)"/><path class="cls-1" d="M347.57,295a70.58,70.58,0,0,1-66-45.72,71.31,71.31,0,0,1-4.39-30.11A70.71,70.71,0,1,1,347.57,295Zm0.23-140.87a70.22,70.22,0,0,0-56,112.71,69.53,69.53,0,0,0,23.93,20A70.2,70.2,0,1,0,347.8,154.17Z" transform="translate(-276.98 -153.5)"/><path class="cls-2" d="M347.65,295.19a71,71,0,0,1-32.19-7.77l0.34-.67a70.24,70.24,0,0,0,32.65,7.68v0.75h-0.81Z" transform="translate(-276.98 -153.5)"/><path class="cls-2" d="M379.93,287.41l-0.34-.67a70.08,70.08,0,0,0,34.41-85l0.71-.24A70.83,70.83,0,0,1,379.93,287.41Z" transform="translate(-276.98 -153.5)"/><path class="cls-2" d="M285.29,192.47l-0.67-.34a70.82,70.82,0,0,1,95.29-30.84l-0.34.67A70.07,70.07,0,0,0,285.29,192.47Z" transform="translate(-276.98 -153.5)"/></svg>