<svg preserveAspectRatio="none" data-name="Layer 1" xmlns="http://www.w3.org/2000/svg" viewBox="0 0 115.02 116.26"><defs><linearGradient id="a" x1="480.95" y1="90.23" x2="595.97" y2="90.23" gradientUnits="userSpaceOnUse"><stop offset=".01" stop-color="#5d85c4"/><stop offset="1" stop-color="#334f7e"/></linearGradient></defs><path d="M57.53 102.23a44.33 44.33 0 1144.33-44.33 44.38 44.38 0 01-44.33 44.33zm0-84.67A40.33 40.33 0 1097.86 57.9a40.38 40.38 0 00-40.33-40.33z" fill="#e9aa4f"/><path d="M53.98 93.56a35.63 35.63 0 01-8-1.73l1-2.84a32.65 32.65 0 007.3 1.58zm7.12 0l-.3-3A32.66 32.66 0 0068.05 89l1 2.84a35.65 35.65 0 01-8 1.72zm11.74-3.26l-1.29-2.71a32.94 32.94 0 007-4.45l1.92 2.3a35.92 35.92 0 01-7.63 4.86zm-37.22-4.06a36.2 36.2 0 01-6.21-6.15l2.35-1.86a33.21 33.21 0 005.69 5.64zm49.18-5.12l-2.28-1.95a33 33 0 004.46-6.76l2.69 1.33a36.08 36.08 0 01-4.87 7.38zM21.89 61.64a36.12 36.12 0 01.31-9.76l3 .5a33.1 33.1 0 00-.29 8.95zm68.42-5.58a32.73 32.73 0 00-1.26-7.43l2.88-.85a35.77 35.77 0 011.4 8.12zm-63.9-8.65l-2.84-1a35.74 35.74 0 014-8.16l2.48 1.65a32.72 32.72 0 00-3.64 7.52zm59-6.76a33.09 33.09 0 00-4.71-6l2.12-2.12a36.15 36.15 0 015.23 6.55zm-48.91-8l-1.92-2.3a35.88 35.88 0 018.06-5.07l1.25 2.73a32.92 32.92 0 00-7.34 4.65zm40-1.5a32.88 32.88 0 00-7.12-3.86l1.09-2.79a35.86 35.86 0 017.77 4.21zm-27.73-4.93l-.72-2.88a35.81 35.81 0 019.49-1.28v3a32.82 32.82 0 00-8.71 1.18z" fill="#d13954"/><path d="M540.71 148.36l-.55-20 2-.05.55 20zm-1.23-4.69h-2v-15.23h2v15.23zm21.62-1.57l-7.89-16.55 1.8-.86 7.89 16.55zm-44.22-.37l-1.84-.78 6.96-16.34 1.84.78zm19.37-.68l-2-.09.56-12.78 2 .09zm-15.25-1.1l-1.86-.73 5.29-13.58 1.86.73zm-7.13-1.64l-1.76-.94 7.49-14 1.76.94zm40.86-1.6l-4-10.21 1.86-.74 4 10.21zM533 136l-2-.28 1.12-7.94 2 .28zm10.92 0l-1.1-7.82 2-.28 1.1 7.82zm3.2-.49l-1.64-7.72 2-.42 1.64 7.72zm-17.31 0l-2-.42 1.67-7.85 2 .42zm20.46-.71l-2.18-7.59 1.92-.55 2.18 7.59zm-23.62 0l-1.92-.55 2.21-7.71 1.92.55zm-14.57-.22l-1.72-1 6.96-11.58 1.72 1zm47.25-3.22l-3.71-7 1.77-.94 3.71 7zm17.6 0l-12.49-13 1.46-1.36 12.49 13zm-66.12-1.5l-1.62-1.17 6-8.3 1.62 1.17zm51.36-.05l-4.18-6.7 1.7-1.06 4.18 6.7zm6.7-1.71l-6.48-8 1.56-1.25 6.48 8zm-4 0l-4.64-6.39 1.62-1.18 4.64 6.39zm12.95-1.33l-11.47-10.28 1.33-1.49 11.47 10.28zm-68.39-.61l-1.53-1.29 5.16-6.14 1.53 1.29zM507 124l-1.44-1.39 5.57-5.77 1.44 1.39zm-2.3-2.28l-1.34-1.49 6-5.37 1.34 1.49zm-3.65-1.13l-1.25-1.57 7.85-6.25 1.25 1.57zm-4.23-.89l-1.16-1.63 10.47-7.49 1.16 1.63zm77.54-.42l-6.22-4.86 1.23-1.58 6.22 4.86zm-82.44-.9l-1-1.71 13.88-8.4 1 1.71zm84.4-1.68l-6.55-4.42 1.12-1.66 6.55 4.42zm-89.3-.21l-.9-1.78 17.46-8.84.9 1.78zm-5.32-2.25l-.77-1.85 21.62-9 .77 1.85zm96.39-.25l-6.84-3.95 1-1.73 6.84 3.95zm5.45-.64l-11-5.65.91-1.78 11 5.65zm4.82-2.15l-14.63-5.91.75-1.85 14.63 5.91zm6.31-1.71l-20-6.7.64-1.9 20 6.7zm-109.94-.67l-.64-1.82 17.63-6.08.65 1.89zm104.49-4.8l-13.72-3.8.5-1.88 13.72 3.8zm-103.18-.25l-.45-1.95 15.47-3.57.45 1.95zm107-2.58l-16.92-3.58.41-2 16.92 3.58zm-105.69-1l-.38-2 13.58-2.62.38 2zm108.42-3.38L576.61 95l.19-2 19.2 1.88zm-106.57-.48l-.23-2L500.26 93l.23 2zm104-3.2l-16.36-.78.1-2 16.36.78zm-101-.51l-.07-2 8-.28.07 2zm7.95-3l-8-.28.07-2 8 .28zm76.76 0v-2l14.23-.28v2zM500.27 87l-8-.84.21-2 8 .84zm76.54 0l-.21-2 7.85-.83.21 2zm-76.23-2.64l-15.75-2.62.33-2 15.75 2.62zm75.92 0l-.35-2 7.79-1.36.35 2zm-75.44-2.66l-18.93-4.79.49-1.91 18.93 4.79zm75 0l-.48-1.94 7.66-1.91.48 1.94zm-74.29-2.56l-15.23-5 .62-1.9 15.23 5zm73.61 0l-.61-1.9 12-3.87.61 1.9zm-72.76-2.5l-7.44-3 .75-1.85 7.44 3zm71.89 0l-.72-1.87L588.56 69l.72 1.87zm-70.9-2.54l-7.21-3.52.88-1.8 7.21 3.52zm69.84 0l-.83-1.82 16.55-7.57.83 1.78zm-68.65-2.39l-6.95-4 1-1.73 6.95 4zm67.46-.06l-1-1.74 9.15-5.2 1 1.74zm-66.09-2.24l-10.53-6.9 1.1-1.67 10.53 6.9zm64.74-.08l-1.12-1.66 6.55-4.42 1.12 1.66zm-63.24-2.13l-12.42-9.74 1.23-1.57 12.41 9.74zm61.71-.08l-1.23-1.58 6.22-4.86 1.23 1.58zm-60-2l-10.13-8.86 1.32-1.51 10.13 8.86zm58.33-.12l-1.34-1.49 5.87-5.28 1.34 1.49zm-56.57-1.89L499.78 51.4l1.44-1.4 11.37 11.73zM565.9 63l-1.43-1.4L575.86 50l1.43 1.4zm-52.81-1.76l-8-9.65 1.54-1.28 8 9.65zm50.86-.08l-1.51-1.31 11.8-13.6 1.51 1.31zm-48.79-1.62l-4.71-6.49 1.62-1.18 4.71 6.49zm46.72-.09l-1.6-1.2 6.51-8.67 1.6 1.2zM517.33 58l-4.25-6.8 1.7-1.06L519 57zm42.37-.11l-1.7-1.02 4.18-6.7 1.7 1.06zm-40.09-1.29l-3.77-7.08 1.77-.94 3.77 7.08zm37.8-.11l-1.77-.94 3.71-7 1.77.94zM522 55.39l-5.09-12.16 1.85-.77 5.09 12.16zm33-.1l-1.83-.81 3.21-7.21 1.83.81zm-30.59-1L518.87 39l1.88-.68 5.56 15.33zm28.13-.11l-1.88-.69 4.9-13.3 1.88.69zM527 53.45l-3.4-11.67 1.92-.55 3.36 11.67zm23-.11l-1.92-.57 5.25-17.55 1.92.57zm-20.5-.6l-1.67-7.85 2-.42 1.67 7.85zm17.91-.1l-1.95-.46 2.6-10.9 1.94.45zm-15.29-.44L531 44.26l2-.28 1.12 7.94zm12.66-.12l-2-.29 2.25-15.19 2 .29zm-10-.23l-.56-8 2-.14.56 8zm7.35-.13l-2-.13 1.25-19.49 2 .13zm-2.68 0h-2v-13h2v13z" transform="translate(-480.95 -32.1)" fill="url(#a)"/></svg>