<svg preserveAspectRatio="none" id="Layer_1" data-name="Layer 1" xmlns="http://www.w3.org/2000/svg" viewBox="0 0 19.61 21.05"><defs><style>.cls-1{fill:#065977}.cls-2{fill:#00b3ea}.cls-3{fill:#feb113}</style></defs><path class="cls-1" d="M162.33 269.42l-.11.06-.11.06-.13.07-.23.14-.07.05-2-2.81.13-.09.4-.25.22-.12.19-.1.19-.1zM163.67 269h-.09l-.27.05-.26.07h-.12l-1.06-3.26.2-.06.45-.12.46-.09h.21z" transform="translate(-155.29 -263.17)"/><path class="cls-2" d="M161.27 271.79l-.45-.28v-.05l.1-.15a4 4 0 01.45-.54 4.21 4.21 0 01.86-.67 4.12 4.12 0 011.31-.49 4.2 4.2 0 011.66 0 4.17 4.17 0 013.29 4.32 4.28 4.28 0 01-.19 1 4.18 4.18 0 01-1.83 2.32 4.14 4.14 0 01-1.75.57 4.15 4.15 0 01-2.9-.82 4.66 4.66 0 01-.44-.39 4.27 4.27 0 01-.33-.38 4.47 4.47 0 01-.38-.59l-.08-.16v-.06l.48-.22v.05l.07.14a4 4 0 00.34.51 3.76 3.76 0 00.29.33 4.11 4.11 0 00.39.34 3.65 3.65 0 001.09.56 3.69 3.69 0 001.45.15 3.61 3.61 0 001.53-.5 3.66 3.66 0 001.6-2 3.75 3.75 0 00.16-.88 3.64 3.64 0 00-4.33-3.79 3.59 3.59 0 00-1.14.43 3.69 3.69 0 00-.75.58 3.51 3.51 0 00-.39.47l-.09.13z" transform="translate(-155.29 -263.17)"/><path class="cls-1" d="M165.08 269h-.75l-.06-3.43H165.63zM166.42 269.43l-.11-.05-.25-.1-.26-.09h-.12l.95-3.29.2.06.44.15.43.18.19.09zM167.58 270.22l-.07-.06-.21-.17c-.15-.12-.32-.23-.32-.23l1.88-2.87s.29.18.55.4l.36.3.12.1zM168.46 271.31s-.1-.17-.21-.33l-.08-.12-.08-.1-.06-.07 2.63-2.2.1.12.13.17.15.2c.1.14.19.28.26.39l.08.13v.05zM169 272.61v-.12c0-.07 0-.17-.08-.26s-.06-.19-.09-.25v-.11l3.16-1.33.08.2c0 .12.1.28.16.44s.1.33.13.45.05.21.05.21zM169.09 274a.88.88 0 000-.09v-.27-.39l3.41-.34V274.27zM168.8 275.38a1.12 1.12 0 000-.12c0-.07.06-.16.08-.26s.05-.19.07-.26v-.09l3.36.67v.21c0 .12-.07.29-.12.45s-.1.33-.14.45-.07.2-.07.2zM168.11 276.6l.08-.1c0-.06.1-.14.15-.22l.08-.12.06-.11.06-.11 3 1.63-.1.19-.11.19-.13.21c-.09.14-.19.28-.27.38l-.13.17zM167.09 277.57l.1-.07.21-.17.2-.18.09-.08 2.41 2.44s-.24.24-.5.46l-.37.29-.17.12zM165.84 278.2h.12l.25-.1.25-.11.11-.06 1.59 3-.16.07-.43.2-.44.17-.2.07zM164.46 278.43h.78l.63 3.37h-.21l-.46.06H164.52zM163.06 278.25h.12l.26.06.39.06-.38 3.41s-.34 0-.67-.1l-.46-.1-.21-.06zM161.79 277.67l.1.07.23.14.36.17-1.37 3.14s-.31-.14-.61-.3l-.41-.23-.18-.11zM160.74 276.74s.13.15.27.29l.2.19.09.08-2.23 2.6-.16-.14-.34-.32c-.24-.24-.46-.5-.46-.5z" transform="translate(-155.29 -263.17)"/><path class="cls-2" d="M155.29 273.7h.53v.51a8.64 8.64 0 00.2 1.42 8.54 8.54 0 00.29 1 8.82 8.82 0 00.49 1.1 8.55 8.55 0 0013.85 1.76 8.72 8.72 0 001.23-1.72 8.63 8.63 0 00.77-2 8.56 8.56 0 000-4.13 8.43 8.43 0 00-.71-1.89 8.55 8.55 0 00-5.52-4.36 8.28 8.28 0 00-1.5-.23 8.68 8.68 0 00-1.37 0 8.59 8.59 0 00-2.17.49 8.32 8.32 0 00-1.3.61l-.32.2-.11.07-.29-.44.2-.13.55-.31a9.06 9.06 0 013.66-1h.87v-1.46h.8l.59.08a10.54 10.54 0 017.21 4.78 10.21 10.21 0 01.69 1.28 10.1 10.1 0 01.52 1.4 10.56 10.56 0 01.42 3 11.1 11.1 0 01-.12 1.51 10.91 10.91 0 01-.33 1.48 10.56 10.56 0 01-3 4.75 10.75 10.75 0 01-2 1.43 10.45 10.45 0 01-1.92.82 11.07 11.07 0 01-1.57.36l-.59.07h-.8v-1.46h-.62a9.34 9.34 0 01-1.61-.23 9.24 9.24 0 01-1-.31 9.34 9.34 0 01-1.11-.5 9.12 9.12 0 01-2.13-1.56 9.07 9.07 0 01-1.59-2.1 9.14 9.14 0 01-.85-2.15 8.93 8.93 0 01-.25-1.61v-.53zm11.34-9.41a.69.69 0 00-1.26-.22.71.71 0 001.26.22zm1.93.68a.35.35 0 000-.35.81.81 0 00-.38-.3.55.55 0 00-.76.17.71.71 0 001.14.51zm1.73 1.07a.36.36 0 000-.35.88.88 0 00-.77-.52.36.36 0 00-.32.16.37.37 0 000 .35.91.91 0 00.73.49.37.37 0 00.36-.17zm1.47 1.41a.55.55 0 00-.13-.76.8.8 0 00-.42-.24.35.35 0 00-.34.09.71.71 0 00.89.91zm1.14 1.68a.68.68 0 00-.68-1.08.71.71 0 00.68 1.09zm.77 1.89a.36.36 0 00.23-.27.84.84 0 000-.48.56.56 0 00-.63-.45.58.58 0 00-.16.74.82.82 0 00.26.38.37.37 0 00.3.06zm.35 2a.55.55 0 00.35-.69.8.8 0 00-.19-.44.35.35 0 00-.33-.13.71.71 0 00.15 1.24zm-.07 2a.35.35 0 00.32-.15.74.74 0 00.11-.2 1 1 0 00.05-.26.94.94 0 000-.26.73.73 0 00-.08-.21.35.35 0 00-.29-.19.38.38 0 00-.3.18.71.71 0 00-.1.19.9.9 0 000 .24.88.88 0 000 .24.71.71 0 00.07.21.38.38 0 00.22.26z" transform="translate(-155.29 -263.17)"/><path class="cls-3" d="M167.49 272.75l-1.09.33V272.85l.52-.23V272.47l-.06-.11a2.69 2.69 0 00-2.07-1.34 3 3 0 00-.66 0 2.68 2.68 0 00-1.18.48 2.72 2.72 0 00-.75.84 2.59 2.59 0 00-.29.73v.3l.57.07v.18h-1.38v-.11a1.1 1.1 0 010-.13v-.17a3.2 3.2 0 01.29-1 3.29 3.29 0 01.92-1.16 3.24 3.24 0 011.54-.67 3.35 3.35 0 01.87 0 3.13 3.13 0 01.81.2 3.27 3.27 0 011.79 1.72 2.8 2.8 0 01.11.27v.07zM165.54 264.1a.41.41 0 01.51-.23.62.62 0 01.32.15.26.26 0 01.09.24.27.27 0 01-.18.18.61.61 0 01-.33 0 .42.42 0 01-.41-.34zM167.52 264.55a.5.5 0 01.87.35.52.52 0 01-.87-.35zM169.38 265.42a.5.5 0 01.77.52.52.52 0 01-.77-.52zM171 266.66a.5.5 0 01.65.67.52.52 0 01-.65-.67zM172.32 268.2a.5.5 0 01.49.79.52.52 0 01-.49-.79zM173.3 270a.5.5 0 01.32.88.52.52 0 01-.32-.88zM173.88 271.93a.41.41 0 01.38.42.62.62 0 010 .35.26.26 0 01-.2.16.27.27 0 01-.23-.11.6.6 0 01-.13-.31.42.42 0 01.18-.51zM174 274a.5.5 0 01-.07.93.52.52 0 01.07-.93z" transform="translate(-155.29 -263.17)"/></svg>