<svg preserveAspectRatio="none" id="Layer_1" data-name="Layer 1" xmlns="http://www.w3.org/2000/svg" viewBox="0 0 102.39 102.4"><defs><style>.cls-1{fill:#feb113}.cls-2{fill:#08ade5}.cls-3{fill:#065977}</style></defs><path class="cls-1" d="M825.28 90.46c.13-.61.34-1.22.51-1.82.23-.81.5-1.6.77-2.39.48-1.39 1-2.74 1.64-4.08l4.69 2.12 1.92.87a.91.91 0 01-.17.46c-.2.45-.39.9-.57 1.36-.4 1-.79 2.06-1.11 3.11-.13.42-.24.84-.36 1.27s-.18.59-.24.89l-5-1.26-2.08-.53zM829.35 79.78a45.62 45.62 0 013-5.05c.54-.79 1.1-1.58 1.69-2.33a1 1 0 01.37.25l4.78 3.67.65.5a39.27 39.27 0 00-4 6.33l-4.57-2.37-1.9-1zM835.73 70.31c1.22-1.4 2.49-2.73 3.83-4 .72-.68 1.47-1.33 2.22-2 .09-.08.16-.22.25-.12l.19.24 3.78 4.66.58.7c-.74.58-1.44 1.22-2.12 1.87S843 73.17 842.23 74c-.3.31-.57.65-.86 1 0 .05-.08.15-.14.1l-.57-.49-4.58-3.92-.35-.3z" transform="translate(-822.49 -51.55)"/><path class="cls-2" d="M884.47 137.08l-.79-2.51-.14-.45c0-.08 0-.06.11-.09l.82-.28c1-.37 2.07-.79 3.07-1.25a31.14 31.14 0 003.74-2.06c1-.67 2-1.4 3-2.17a32 32 0 003.47-3.25c.19-.2 1.91-2.18 1.87-2.2l2.49 1.93a38 38 0 01-5.56 5.75 36.34 36.34 0 01-12.11 6.58z" transform="translate(-822.49 -51.55)"/><path class="cls-1" d="M844.08 62.54l1.36-1c.74-.52 1.52-1 2.29-1.49 1.26-.75 2.55-1.45 3.86-2.11l2.28 4.61.94 1.89c0 .07-.14.11-.19.13l-1.23.63c-1 .51-1.89 1.09-2.81 1.68-.73.47-1.44 1-2.15 1.48a1.13 1.13 0 01-.27-.33l-1.7-2.31-2.37-3.21zM854 56.86a50.09 50.09 0 018.36-2.73l1.16 5 .48 2.06-.84.2q-.81.2-1.6.44-1.59.47-3.15 1.06-.78.3-1.54.62a.39.39 0 01-.05-.12l-.37-.85-1.28-3-1.17-2.68z" transform="translate(-822.49 -51.55)"/><path class="cls-2" d="M923.2 96.35v-.17a.48.48 0 010-.07zM923.23 96.54v-.16zM920.79 103.87a46 46 0 01-2.79 14.88 47.12 47.12 0 01-6.5 12.11 48 48 0 01-9.38 9.46 47.06 47.06 0 01-53.12 2.6 47.34 47.34 0 01-17.74-19.58 46.8 46.8 0 01-4.14-13.34c-.19-1.25-.34-2.51-.43-3.77s-.17-2.43-.14-3.63c0-.83 0-1.68.08-2.51.09-1.22.19-2.43.35-3.65.12-1 .29-1.91.46-2.86l2 .39h.07l.27.03c-.16.9-.32 1.8-.44 2.71-.15 1.15-.25 2.3-.33 3.46-.06.79-.05 1.59-.08 2.38 0 1.14.05 2.3.13 3.44s.22 2.39.41 3.58a44.48 44.48 0 0011.11 23.2 44.91 44.91 0 009.67 8 44.46 44.46 0 0012 5.14 45.17 45.17 0 0027.1-1.37 44.45 44.45 0 0011.3-6.24 45.51 45.51 0 008.9-9 44.75 44.75 0 006.16-11.48 43.63 43.63 0 002.63-14.12 44.41 44.41 0 00-.4-7.12c-.17-1.17-.37-2.33-.61-3.49s-.55-2.24-.87-3.35a42.78 42.78 0 00-2.19-5.74 45.73 45.73 0 00-3.4-6.05c-.64-1-1.37-2-2.11-2.88s-1.48-1.83-2.29-2.68a49 49 0 00-5.14-4.75A44.49 44.49 0 00889.8 61a46.6 46.6 0 00-6.29-1.9 45.15 45.15 0 00-17.66-.39l-.42-2.37a46.23 46.23 0 0111.6-.6 46.86 46.86 0 017 1 49.09 49.09 0 016.63 2 46.81 46.81 0 0112.16 6.94 51.64 51.64 0 015.42 5c.85.9 1.65 1.86 2.42 2.83s1.54 2 2.22 3a47.8 47.8 0 013.58 6.49 45.48 45.48 0 012.35 6.18c.33 1.17.66 2.34.92 3.53s.46 2.45.64 3.68a47.06 47.06 0 01.42 7.48z" transform="translate(-822.49 -51.55)"/><path class="cls-2" d="M920.79 103.87a46 46 0 01-2.79 14.88 47.12 47.12 0 01-6.5 12.11 48 48 0 01-9.38 9.46 47.06 47.06 0 01-53.12 2.6 47.34 47.34 0 01-17.74-19.58 46.8 46.8 0 01-4.14-13.34c-.19-1.25-.34-2.51-.43-3.77s-.17-2.43-.14-3.63c0-.83 0-1.68.08-2.51.09-1.22.19-2.43.35-3.65.12-1 .29-1.91.46-2.86l2 .39h.07a1.61 1.61 0 01.34.07c-.16.9-.32 1.8-.44 2.71-.15 1.15-.25 2.3-.33 3.46-.06.79-.05 1.59-.08 2.38 0 1.14.05 2.3.13 3.44s.22 2.39.41 3.58a44.48 44.48 0 0011.11 23.2 44.91 44.91 0 009.67 8 44.46 44.46 0 0012 5.14 45.17 45.17 0 0027.1-1.37 44.45 44.45 0 0011.3-6.24 45.51 45.51 0 008.9-9 44.75 44.75 0 006.16-11.48 43.63 43.63 0 002.63-14.12 44.41 44.41 0 00-.4-7.12c-.17-1.17-.37-2.33-.61-3.49s-.55-2.24-.87-3.35a42.78 42.78 0 00-2.26-5.78 45.73 45.73 0 00-3.4-6.05c-.64-1-1.37-2-2.11-2.88s-1.48-1.83-2.29-2.68a49 49 0 00-5.14-4.75A44.49 44.49 0 00889.8 61a46.6 46.6 0 00-6.29-1.9 45.15 45.15 0 00-17.66-.39l-.42-2.37a46.23 46.23 0 0111.6-.6 46.86 46.86 0 017 1 49.09 49.09 0 016.63 2 46.81 46.81 0 0112.16 6.94 51.64 51.64 0 015.42 5c.85.9 1.65 1.86 2.42 2.83s1.54 2 2.22 3a47.8 47.8 0 013.58 6.49 45.48 45.48 0 012.35 6.18c.33 1.17.66 2.34.92 3.53s.46 2.45.64 3.68a47.06 47.06 0 01.42 7.48z" transform="translate(-822.49 -51.55)"/><path class="cls-3" d="M924 112.31a51.05 51.05 0 01-11.12 23.39 51.88 51.88 0 01-9 8.41 50.68 50.68 0 01-23.7 9.42 51.82 51.82 0 01-14-.13 50.75 50.75 0 01-12.53-3.52A51.15 51.15 0 01823.32 112a52.2 52.2 0 01-.82-10.87c0-1.13.12-2.26.21-3.39.13-1.67.44-3.33.73-5l.85.26h.41c-.29 1.61-.59 3.23-.72 4.87-.08 1.1-.17 2.2-.2 3.31a51.1 51.1 0 00.79 10.6 49.72 49.72 0 0010.31 22.38 50.09 50.09 0 0019.24 14.52 49.55 49.55 0 0012.22 3.44 50.66 50.66 0 0013.65.13 49.48 49.48 0 0023.11-9.19 50.49 50.49 0 008.79-8.2 49.88 49.88 0 0010.84-22.81 51.29 51.29 0 00.69-13.67q-.1-1.11-.25-2.22v-.21c0-.15 0-.31-.06-.44s0 0 0 .06a49.37 49.37 0 00-1.31-6.25c-.31-1.1-.66-2.18-1-3.26s-.69-1.95-1.11-2.88-.75-1.69-1.17-2.53c-.5-1-1-2-1.58-2.94a46 46 0 00-3.78-5.6 48.14 48.14 0 00-4.53-5.08 55.11 55.11 0 00-5-4.32 49.89 49.89 0 00-11.08-6.26 48.56 48.56 0 00-12.1-3.2c-1.08-.14-2.16-.25-3.24-.33s-1.91-.1-2.86-.12c-1.52 0-3 0-4.56.16-1.09.08-2.17.22-3.25.36-.46.06-.91.14-1.36.22-.12 0-.16 0-.14.1l-.22-1.21c0-.11 0-.07.15-.09.47-.08.93-.17 1.4-.23 1.11-.14 2.22-.28 3.33-.37 1.56-.12 3.12-.19 4.68-.16 1 0 2 0 2.93.12s2.22.19 3.32.33a49.81 49.81 0 0112.41 3.28 50.77 50.77 0 0111.37 6.43 56 56 0 015.16 4.42 49.63 49.63 0 014.65 5.21A48 48 0 01918 77.1c.57 1 1.11 2 1.62 3 .42.85.8 1.72 1.2 2.59s.8 2 1.14 3 .73 2.19 1.04 3.31a49.55 49.55 0 011.31 6.21v-.09l.13 1a.75.75 0 000 .09c.09.71.17 1.41.23 2.12a52.47 52.47 0 01-.67 13.98z" transform="translate(-822.49 -51.55)"/><path class="cls-3" d="M924 112.31a51.05 51.05 0 01-11.12 23.39 51.88 51.88 0 01-9 8.41 50.68 50.68 0 01-23.7 9.42 51.82 51.82 0 01-14-.13 50.75 50.75 0 01-12.53-3.52A51.15 51.15 0 01823.32 112a52.2 52.2 0 01-.82-10.87c0-1.13.12-2.26.21-3.39.13-1.67.44-3.33.73-5l.85.26h.41c-.29 1.61-.59 3.23-.72 4.87-.08 1.1-.17 2.2-.2 3.31a51.1 51.1 0 00.79 10.6 49.72 49.72 0 0010.31 22.38 50.09 50.09 0 0019.24 14.52 49.55 49.55 0 0012.22 3.44 50.66 50.66 0 0013.65.13 49.48 49.48 0 0023.11-9.19 50.49 50.49 0 008.79-8.2 49.88 49.88 0 0010.84-22.81 51.29 51.29 0 00.69-13.67q-.1-1.11-.25-2.22v-.21c0-.15 0-.31-.06-.44s0 0 0 .06a49.37 49.37 0 00-1.31-6.25c-.31-1.1-.66-2.18-1-3.26s-.69-1.95-1.11-2.88-.75-1.69-1.17-2.53c-.5-1-1-2-1.58-2.94a46 46 0 00-3.78-5.6 48.14 48.14 0 00-4.53-5.08 55.11 55.11 0 00-5-4.32 49.89 49.89 0 00-11.08-6.26 48.56 48.56 0 00-12.1-3.2c-1.08-.14-2.16-.25-3.24-.33s-1.91-.1-2.86-.12c-1.52 0-3 0-4.56.16-1.09.08-2.17.22-3.25.36-.46.06-.91.14-1.36.22-.12 0-.16 0-.14.1l-.22-1.21c0-.11 0-.07.15-.09.47-.08.93-.17 1.4-.23 1.11-.14 2.22-.28 3.33-.37 1.56-.12 3.12-.19 4.68-.16 1 0 2 0 2.93.12s2.22.19 3.32.33a49.81 49.81 0 0112.41 3.28 50.77 50.77 0 0111.37 6.43 56 56 0 015.16 4.42 49.63 49.63 0 014.65 5.21A48 48 0 01918 77.1c.57 1 1.11 2 1.62 3 .42.85.8 1.72 1.2 2.59s.8 2 1.14 3 .73 2.19 1.04 3.31a49.55 49.55 0 011.31 6.21v-.09l.13 1a.75.75 0 000 .09c.09.71.17 1.41.23 2.12a52.47 52.47 0 01-.67 13.98z" transform="translate(-822.49 -51.55)"/><path class="cls-1" d="M873.68 62.26a41.06 41.06 0 00-13 2.13 40.2 40.2 0 00-11.48 6.09 40.94 40.94 0 00-8.54 8.81A40.2 40.2 0 00835 90.62a39.53 39.53 0 00-1.81 10.69 38.81 38.81 0 00.21 5.89 40.26 40.26 0 001.1 5.92c.22.77.43 1.55.69 2.31a40.81 40.81 0 004.28 9 42.31 42.31 0 005.26 6.64 40.32 40.32 0 005 4.31 37.41 37.41 0 005.14 3.21c.76.39 1.52.76 2.3 1.12s1.3.56 2 .82a41.94 41.94 0 006.3 1.86 43 43 0 006.2.79h1.88c1.16 0 2.32 0 3.47-.14a40.21 40.21 0 0020.84-7.84 39.76 39.76 0 007.44-7.17 40.33 40.33 0 006-10.33 40.44 40.44 0 002.63-19.55 40.37 40.37 0 00-1.2-6.24 44.69 44.69 0 00-1.55-4.53 39.28 39.28 0 00-2.85-5.67c-.64-1.08-1.37-2.1-2.1-3.12-.36-.51-.76-1-1.16-1.48-.52-.64-1.06-1.28-1.63-1.88s-1.33-1.38-2-2-1.16-1.05-1.76-1.57a37.25 37.25 0 00-5.2-3.66 40.26 40.26 0 00-17.84-5.63q-1.37-.1-2.75-.12c-.13 0-.21 0-.21-.08v-.8a41.19 41.19 0 0124 7.7c.67.48 1.32 1 2 1.5s1.16 1 1.74 1.48 1.27 1.18 1.86 1.8a40.2 40.2 0 012.94 3.36c.78 1 1.54 2.05 2.24 3.13.59.92 1.18 1.86 1.68 2.83.32.62.66 1.24.95 1.88l.58 1.3c.37.83.69 1.68 1 2.54a41.2 41.2 0 012.33 12.45 41.83 41.83 0 01-.27 6.35q-.19 1.58-.5 3.14c-.15.76-.3 1.53-.51 2.28-.28 1-.57 2-.9 3a37.56 37.56 0 01-1.38 3.52 41.29 41.29 0 01-6.4 10.09 42.17 42.17 0 01-8.59 7.58c-.8.53-1.63 1-2.46 1.51-1.27.73-2.59 1.35-3.92 2s-2.45 1-3.7 1.39a37.72 37.72 0 01-4.31 1.14A40 40 0 01871 144a42.52 42.52 0 01-6.45-.93 41.41 41.41 0 01-5.88-1.8 40.32 40.32 0 01-4.3-2 41.82 41.82 0 01-10.46-7.89 43.63 43.63 0 01-5.15-6.57 41.28 41.28 0 01.57-45.1 41.82 41.82 0 018.18-9 41.15 41.15 0 0111.2-6.56 41.72 41.72 0 0112.84-2.76q1.09-.06 2.18-.06v.88z" transform="translate(-822.49 -51.55)"/><path class="cls-3" d="M873.68 142v-5.2a3.85 3.85 0 010-.55c.76 0 1.52 0 2.28-.09a31.3 31.3 0 003.2-.37 30 30 0 003.09-.66l.58-.17.7 2.47.29 1c0 .06 2.13-.65 2.34-.73a36.9 36.9 0 009.78-5.27 37.51 37.51 0 004.2-3.67q1-1 1.88-2.06c.15-.17 1.69-2.08 1.65-2.11l-2.13-1.55-.81-.59s1.13-1.66 1.23-1.81a33 33 0 002.89-5.69 30.9 30.9 0 001.65-5.55 32.09 32.09 0 00.63-5.28v-2.77q-.07-1.68-.3-3.34a33.82 33.82 0 00-4.26-12.24 32.73 32.73 0 00-5.79-7.3 33.79 33.79 0 00-10.67-6.88 33.73 33.73 0 00-25.44.22 33.49 33.49 0 00-20.47 29.32 35.15 35.15 0 00.36 6.76c.16.89.33 1.77.53 2.65a31.72 31.72 0 00.92 3.14 32.92 32.92 0 006.21 10.81 34 34 0 009.75 7.82 31.49 31.49 0 003 1.4 27.37 27.37 0 002.86 1c1 .29 2.09.58 3.15.8s2.09.35 3.14.48 2 .14 3 .17a1.86 1.86 0 01.5 0V142a40 40 0 01-13.39-2.36 41.69 41.69 0 01-4.65-2c-1.21-.62-2.37-1.33-3.52-2.06a35.92 35.92 0 01-4.2-3.2 38.26 38.26 0 01-3.76-3.75 39.34 39.34 0 01-7.19-12 30.7 30.7 0 01-1-2.94c-.33-1.16-.64-2.33-.85-3.52-.14-.76-.27-1.52-.37-2.29-.12-1-.21-2-.28-2.94a38.27 38.27 0 010-3.91c0-.91.1-1.83.21-2.74a40.79 40.79 0 011.17-6 40.3 40.3 0 012.47-6.57 39 39 0 013.41-5.72c.87-1.22 1.81-2.36 2.78-3.49.59-.68 1.22-1.33 1.87-1.94s1.58-1.48 2.41-2.17a44.11 44.11 0 014.3-3.08c.85-.55 1.75-1 2.65-1.5a34.75 34.75 0 014.7-2.06c.92-.31 1.85-.61 2.79-.88a37.54 37.54 0 016.46-1.22 40.26 40.26 0 019.17.12 36.48 36.48 0 015.34 1.08 37.79 37.79 0 015.25 1.86c.78.35 1.55.72 2.32 1.11a38 38 0 014.82 2.95 40.94 40.94 0 015 4.22 37.34 37.34 0 013.9 4.57 43 43 0 013.54 5.84 42 42 0 012.03 5.23c.25.73.44 1.47.65 2.21.29 1 .47 2.07.67 3.11a26.12 26.12 0 01.39 2.83c.09 1.16.16 2.32.19 3.49a37.17 37.17 0 01-.6 7.37 38.8 38.8 0 01-4.41 12.35 39.61 39.61 0 01-7.46 9.46 39.12 39.12 0 01-10.68 7.11 39.57 39.57 0 01-12.7 3.28q-1.68.15-3.37.15z" transform="translate(-822.49 -51.55)"/><path class="cls-1" d="M872.41 76.52a1.28 1.28 0 111.28 1.28 1.28 1.28 0 01-1.28-1.28zM891.33 83.3a1.28 1.28 0 110 1.81 1.28 1.28 0 010-1.81zM899.92 101.47a1.28 1.28 0 11-1.28 1.28 1.28 1.28 0 011.28-1.28zM893.14 120.4a1.28 1.28 0 11-1.81 0 1.28 1.28 0 011.81 0zM875 129a1.28 1.28 0 11-1.28-1.28A1.28 1.28 0 01875 129zM856 122.2a1.28 1.28 0 110-1.81 1.28 1.28 0 010 1.81zM847.45 104a1.28 1.28 0 111.28-1.28 1.28 1.28 0 01-1.28 1.28zM854.23 85.1a1.28 1.28 0 111.81 0 1.28 1.28 0 01-1.81 0zM879.59 77.16a1.28 1.28 0 11.88 1.58 1.28 1.28 0 01-.88-1.58zM896 88.83a1.28 1.28 0 11-.49 1.74 1.28 1.28 0 01.49-1.74zM899.27 108.66a1.28 1.28 0 11-1.58.88 1.28 1.28 0 011.58-.88zM887.6 125a1.28 1.28 0 11-1.74-.49 1.28 1.28 0 011.74.49zM867.77 128.34a1.28 1.28 0 11-.88-1.58 1.28 1.28 0 01.88 1.58zM851.41 116.67a1.28 1.28 0 11.49-1.74 1.28 1.28 0 01-.49 1.74zM848.09 96.84a1.28 1.28 0 111.58-.88 1.28 1.28 0 01-1.58.88zM859.77 80.48a1.28 1.28 0 111.74.49 1.28 1.28 0 01-1.74-.49zM885.83 79.47a1.28 1.28 0 11.46 1.75 1.28 1.28 0 01-.46-1.75zM898.74 94.88a1.28 1.28 0 11-.91 1.56 1.28 1.28 0 01.91-1.56zM897 114.9a1.28 1.28 0 11-1.75.46 1.28 1.28 0 011.75-.46zM881.56 127.81a1.28 1.28 0 11-1.56-.91 1.28 1.28 0 011.56.91zM861.53 126a1.28 1.28 0 11-.46-1.75 1.28 1.28 0 01.46 1.75zM848.63 110.63a1.28 1.28 0 11.91-1.56 1.28 1.28 0 01-.91 1.56zM850.4 90.6a1.28 1.28 0 111.75-.46 1.28 1.28 0 01-1.75.46zM865.81 77.69a1.28 1.28 0 111.56.91 1.28 1.28 0 01-1.56-.91z" transform="translate(-822.49 -51.55)"/><path class="cls-3" d="M873.64 90.86H873a11.88 11.88 0 00-11.27 11.87v.47a11.88 11.88 0 1011.91-12.34z" transform="translate(-822.49 -51.55)"/><path class="cls-2" d="M885.49 101.77v-.4c0-.14-.06-.53-.12-.8a11.74 11.74 0 00-1.13-3.31 11.24 11.24 0 00-1-1.6 11.9 11.9 0 00-2.83-2.73 11.76 11.76 0 00-3.68-1.69 12.33 12.33 0 00-2-.35 11 11 0 00-1.64 0h-.39a11.43 11.43 0 00-2.34.43 12 12 0 00-1.46.53 11.59 11.59 0 00-1.65.9c-.26.16-.51.35-.75.52s-.47.37-.69.57a11.52 11.52 0 00-1.19 1.23c-.09.1-.18.21-.26.32l-.25.32c-.15.22-.31.43-.44.65a11.87 11.87 0 00-.71 1.28c-.09.21-.19.42-.27.62s-.16.4-.22.6a12 12 0 00-.51 2.09 13.39 13.39 0 00-.12 1.38v.49h1v-.45a12.21 12.21 0 01.11-1.27 11 11 0 01.47-1.91c.05-.18.14-.36.21-.55s.16-.38.25-.57a11.33 11.33 0 01.66-1.18c.12-.2.27-.39.4-.6l.23-.29a3.59 3.59 0 01.24-.29 10.43 10.43 0 011.1-1.13c.2-.18.42-.35.63-.52s.45-.33.69-.48a10.41 10.41 0 011.52-.82 11.2 11.2 0 011.07-.4 10.45 10.45 0 012.42-.48 10.85 10.85 0 011.87 0 11.21 11.21 0 011.84.32 11 11 0 016 4.06 11 11 0 011.56 3 10.28 10.28 0 01.39 1.51c.06.25.08.5.11.74s0 .24 0 .36v.36a11.31 11.31 0 01-.17 2.56 10.58 10.58 0 01-.54 1.89c-.09.26-.2.48-.28.67l-.24.48-.22.39.84.49.24-.43c.07-.14.16-.32.26-.53s.21-.45.31-.73a11.53 11.53 0 00.59-2.07 12.23 12.23 0 00.19-2.79c-.07-.16-.09-.26-.1-.39z" transform="translate(-822.49 -51.55)"/><path class="cls-1" d="M887.41 97.59a14.61 14.61 0 00-1.35-2.7 15 15 0 00-1.87-2.37c-.28-.3-.54-.53-.72-.69l-.29-.25-1.11 1.3.25.22c.15.15.38.35.63.61a13.33 13.33 0 011.65 2.1 13 13 0 011.19 2.39c.12.34.22.63.28.84l.09.32 1.65-.45-.11-.36c-.04-.25-.15-.55-.29-.96zM888.32 102v-.38l-1.7.13v1.22a13 13 0 01-.31 2.65 12.84 12.84 0 01-.84 2.53c-.07.17-.15.32-.22.45s-.12.25-.17.34l-.16.29 1.48.85.19-.33c.06-.1.12-.24.2-.39s.16-.32.24-.51a14.65 14.65 0 001.3-5.86v-.3-.69zM878.92 116.45c.16-.06.34-.12.52-.21a14.44 14.44 0 002.64-1.46 15 15 0 002.29-2c.29-.3.51-.56.66-.74l.18-.22.06-.08-1.34-1.06-.05.07-.16.19c-.14.16-.33.4-.59.66a13.29 13.29 0 01-2 1.74 12.72 12.72 0 01-2.33 1.29c-.17.08-.32.13-.46.18l-.34.19-.32.1.51 1.63.36-.12zM868.29 116.37a14.61 14.61 0 002.91.82 15 15 0 003 .21c.41 0 .75 0 1-.06h.38l-.21-1.69h-.33c-.21 0-.52.05-.88.06a13.18 13.18 0 01-2.66-.18 12.88 12.88 0 01-2.57-.72c-.34-.14-.62-.26-.8-.36l-.3-.14-.83 1.49.34.16c.25.12.57.25.95.41zM863.9 113.64l.21.18.08.06 1.11-1.3-.07-.06-.19-.16-.28-.26-.17-.16-.18-.19a13 13 0 01-1.66-2.09 12.84 12.84 0 01-1.19-2.38c-.07-.17-.12-.33-.16-.47s-.09-.26-.12-.36l-.09-.32-1.65.45.1.36c0 .12.08.25.13.41s.11.34.19.53a14.52 14.52 0 001.35 2.7 14.72 14.72 0 001.87 2.37l.21.21.19.18zM860.73 102.88v-.25-.38-.5a12.84 12.84 0 011.46-5.1l.24-.44.2-.33.13-.21v-.07l-1.43-.93-.05.08-.15.24-.23.37-.27.49a15 15 0 00-1.13 2.8 15.12 15.12 0 00-.52 3V103h1.71s.04-.06.04-.12zM868 91.05a12.76 12.76 0 012.5-.93l.48-.11.38-.08.33-.06-.27-1.68-.37.07-.43.09-.55.13a14.42 14.42 0 00-2.83 1.05 14.73 14.73 0 00-2.55 1.61 13.11 13.11 0 00-1 .9l1.17 1.24a11.5 11.5 0 01.92-.79 13 13 0 012.22-1.44zM877.11 90.23a12.74 12.74 0 012.5.93l.39.23.33.19.29.17.9-1.45-.32-.19-.38-.21-.5-.26a14.41 14.41 0 00-2.83-1.06 14.72 14.72 0 00-3-.46 13 13 0 00-1.37 0l.08 1.7a11.45 11.45 0 011.22 0 13 13 0 012.69.41z" transform="translate(-822.49 -51.55)"/><path class="cls-2" d="M50.69 42.58h.94v6.65h-.94zM50.69 53.15h.94v6.65h-.94zM42.55 50.72h6.65v.94h-6.65zM53.11 50.72h6.65v.94h-6.65z"/><circle class="cls-1" cx="51.16" cy="51.19" r="1.19"/></svg>