<svg preserveAspectRatio="none" xmlns="http://www.w3.org/2000/svg" viewBox="0 0 196.48 188.59"><defs><style>.cls-1{isolation:isolate;}.cls-2{mix-blend-mode:overlay;}.cls-3{fill:aqua;}.cls-4{opacity:0.46;}.cls-5{opacity:0.28;}.cls-6{opacity:0.6;}.cls-7{opacity:0.85;}</style></defs><title>circle108</title><g class="cls-1"><g id="Layer_1" data-name="Layer 1"><g id="_编组_" data-name="&lt;编组&gt;"><g id="_编组_2" data-name="&lt;编组&gt;" class="cls-2"><g id="_编组_3" data-name="&lt;编组&gt;"><g id="_编组_4" data-name="&lt;编组&gt;"><g id="_编组_5" data-name="&lt;编组&gt;"><circle class="cls-3" cx="77.33" cy="77.33" r="9.9"/></g></g></g><g id="_编组_6" data-name="&lt;编组&gt;"><g id="_编组_7" data-name="&lt;编组&gt;"><g id="_编组_8" data-name="&lt;编组&gt;"><path class="cls-3" d="M725.21,424.54a16.4,16.4,0,1,1,16.4-16.4A16.42,16.42,0,0,1,725.21,424.54Zm0-31.81a15.41,15.41,0,1,0,15.41,15.41A15.43,15.43,0,0,0,725.21,392.73Z" transform="translate(-647.88 -330.81)"/></g></g></g><g id="_编组_9" data-name="&lt;编组&gt;"><g id="_编组_10" data-name="&lt;编组&gt;"><g id="_编组_11" data-name="&lt;编组&gt;"><path class="cls-3" d="M725.21,481.65a73.51,73.51,0,1,1,73.51-73.51A73.6,73.6,0,0,1,725.21,481.65Zm0-146.53a73,73,0,1,0,73,73A73.1,73.1,0,0,0,725.21,335.12Z" transform="translate(-647.88 -330.81)"/></g></g></g><g id="_编组_12" data-name="&lt;编组&gt;"><g id="_编组_13" data-name="&lt;编组&gt;"><g id="_编组_14" data-name="&lt;编组&gt;"><path class="cls-3" d="M725.28,485.47H724.7l0-3.95h0.49l0.07,0v3.92Zm-1.52,0h0v0h-0.53l0.1-3.95h0.49v0l0.11,0.11h0Zm2.46,0-0.05-4h0.51v0h0l0.08,3.92h-0.58Zm1.51,0-0.12-3.95,0.55,0v0l0.15,3.92h-0.58Zm-5.49,0-0.58,0,0.18-3.94h0l0.48,0,0,0Zm7,0-0.2-3.95h0.55v0l0.23,3.91h0l-0.31,0h-0.23Zm-8.52,0h0l-0.5,0h0l0.26-3.94h0l0.48,0h0v0Zm10-.07-0.28-3.94h0.13l0.34,0h0l0.08,0,0.3,3.91Zm-11.55,0h0v0l-0.51,0h0l0.33-3.94h0l0.41,0,0.11,0Zm15.13-.08-0.06-.22-0.35,0-0.16,0-0.43-3.92,0.14,0,0.34,0h0l0.07,0,0.46,3.9h0v0.22Zm-2.07,0-0.36-3.94h0l0.47,0h0v0l0.38,3.9h0l-0.5,0h0Zm-14.58,0h0l-0.5-.05h0l0.41-3.93h0l0.47,0.05h0.05v0Zm-1.5-.17h0l-0.51-.06h0L716.1,481l0.55,0.08v0Zm19.1-.12-0.51-3.92,0.55-.07v0l0.53,3.88h0l-0.07,0v0Zm-20.61-.07h0l-0.44-.06H714.1l0.56-3.91,0.17,0,0.34,0h0v0h0Zm22.11-.15-0.59-3.9h0l0.47-.07h0v0l0.61,3.87h0l0,0v0l-0.28,0Zm-23.62-.07h0l-0.5-.09h0l0.64-3.9,0.19,0,0.32,0.05,0,0Zm25.11-.17-0.66-3.9h0l0.47-.08h0v0l0.68,3.86h0l-0.07,0h0l-0.47.08h0Zm-26.63-.09h0l-0.25,0-0.25,0h0l0.72-3.88,0.55,0.09v0Zm28.12-.18v0L739,480.22h0l0.47-.09h0v0l0.76,3.84Zm-29.6-.09h0l-0.5-.1h0l0.8-3.87h0l0.47,0.09h0v0Zm31.09-.21-0.82-3.86,0.49-.11v-0.28l0.9,4.13h0l0,0.06V483.7l-0.46.1h0Zm-32.58-.1h0l-0.21,0-0.32-.07h0l0.87-3.86h0l0.44,0.1h0.07v0Zm34.06-.23-0.89-3.84,0.2-.05,0.27-.06h0.06v0l0.91,3.81h0l-0.49.12h0Zm-35.63,0,0-.08-0.22-.05-0.24-.06h0v0l0.93-3.8h0l0.43,0.11,0.06-.24v0.29l-0.91,3.8h0Zm37.11-.32-1-3.83h0l0.47-.12,0,0v0.05l1,3.78h0l-0.49.12h0ZM705.75,483h0l-0.49-.13h0l1-3.82h0l0.47,0.12,0,0v0Zm40-.26-1-3.81h0l0.41-.12h0.09v0l1.06,3.77h0l-0.49.14h0Zm-41.42-.13H704.2l-0.07,0-0.37-.11h0l1.09-3.8h0l0.39,0.11,0.1,0h0l0.2,0.06h-0.2Zm42.88-.29L746,478.52h0l0.43-.13,0.07,0v0l1.14,3.75-0.07,0h0l-0.46.14h0Zm-44.33-.13h0v0l0,0L702.3,482h0l1.17-3.78h0l0.44,0.13v0l0,0.05h0l0.1,0.16-0.12-.1Zm45.79-.32-1.2-3.76h0l0.46-.14,0,0,1.21,3.73-0.19.07-0.33.11h0Zm-47.25-.14-0.16-.06-0.35-.12h0l1.24-3.75,0.15,0.05,0.31,0.1h0l0.06,0v0Zm48.69-.33-1.27-3.74h0l0.45-.16h0l0,0,1.29,3.71h0Zm-50.14-.15h0l-0.48-.16h0l1.31-3.73h0l0.45,0.16,0,0Zm52.1-.3-0.05-.22,0,0-0.39.14h0l-1.34-3.71h0l0.28-.1,0.22-.07v0L752,480.7h0v0.24Zm-53.53-.22-0.06,0-0.21-.07-0.25-.1h0l1.39-3.7h0l0.45,0.16,0,0v0Zm54.43-.36-1.42-3.69h0l0.42-.16h0.18l-0.1,0,1.42,3.63-0.07,0h0Zm-55.85-.18-0.06,0-0.22-.09-0.23-.09h0l1.47-3.67h0l0.45,0.18h0v0Zm57.27-.38-1.49-3.66h0l0.22-.09,0.19-.08h0l0.06,0h0.12l-0.1,0,1.49,3.59h0l-0.34.14Zm-58.69-.18,0,0-0.47-.2h0l1.54-3.63h0l0.44,0.18h0v0Zm60.08-.4-1.56-3.63h0l0.44-.19h0l0,0,1.55,3.54h0.12l-0.11,0h0l-0.36.16Zm-61.48-.2-0.05,0-0.47-.21,1.6-3.61,0.07,0,0.4,0.18,0,0v0Zm62.87-.41L755.48,475h0l0.43-.2h0l0,0,1.64,3.56Zm-64.3-.11v-0.09l-0.05,0,0-.08-0.43-.2,0,0,1.68-3.57,0.14,0.07,0.29,0.13h0l0.06,0v0l-1.64,3.56h0Zm65.68-.53-1.7-3.56,0.44-.22v-0.06l0,0h0v0.06l1.7,3.5h0l-0.05,0h0l-0.05,0-0.38.18h0Zm-67-.22,0,0-0.4-.2-0.07,0,1.75-3.54h0l0.4,0.2,0.05-.1v0.13h0v0Zm68.36-.44-1.77-3.53,0,0,0.26-.13,0.2-.1,0,0,1.77,3.49,0,0-0.45.23h0Zm-69.71-.24h0l-0.21-.1-0.26-.14h0l1.82-3.51,0,0,0.4,0.2h0l0.05,0h0l0.13,0.16-0.16-.11Zm71.06-.45-1.84-3.5,0,0,0.4-.21h0l0.06,0h0v0h0l1.85,3.45h0l-0.45.24Zm-72.41-.26,0,0-0.27-.14-0.2-.11,1.89-3.47,0.09,0,0.36,0.2h0l0,0Zm73.75-.47-1.91-3.46h0l0.3-.17,0.14-.08,0,0,1.92,3.42Zm-75.08-.27h0l-0.12-.07-0.32-.18,0,0,2-3.43,0.22,0.13,0.22,0.13,0.11,0.06h-0.1Zm76.4-.47,0,0-2-3.4h0l0.21-.12,0.18-.11h0l0.07,0v0l2,3.38,0,0.06,0,0Zm-77.72-.28h0l-0.24-.14-0.22-.13h0l2-3.4,0,0,0.41,0.24h0l0,0.05Zm79-.49-2-3.38h0l0.24-.14,0.21-.11h0l2,3.33h0l-0.11.07-0.35.21Zm-80.32-.3-0.05,0h0l0,0-0.37-.23h0l2.09-3.35,0,0,0.41,0.25,0,0v0Zm81.61-.5-2.11-3.34h0l0.37-.24,0,0h0.18l-0.06,0,2.09,3.27h0l-0.07,0h0Zm-82.91-.3,0,0-0.33-.22L683,473l2.16-3.31h0l0.4,0.26,0,0,0,0Zm84.18-.52-2.17-3.3,0,0,0.4-.26,0,0,2.19,3.28-0.2.14-0.25.16Zm-85.46-.31,0,0-0.45-.3,0,0,2.2-3.24,0.11,0.07,0.32,0.22,0.13,0.06h-0.13Zm86.72-.54-2.24-3.25,0,0,0.37-.26,0.05,0,0,0,2.24,3.21-0.05,0h0Zm-88.14-.21,0.11-.16-0.12-.09-0.27-.19,0,0,0,0,2.27-3.19,0,0,0.19,0.14,0.16,0.11h0l0,0v0.16l0,0L681,471.59h0ZM770.2,471l-2.3-3.21,0.09-.07,0.32-.24,0,0,0,0,2.3,3.17,0,0-0.41.3h0Zm-90.44-.33,0,0-0.26-.19-0.17-.13,2.35-3.18,0.45,0.32,0,0Zm91.67-.56L769.06,467l0,0,0.37-.28,0,0h0v0l2.36,3.12h0v0h0l-0.39.3Zm-92.89-.35,0,0h-0.05l0,0-0.37-.29,0,0,0,0,2.39-3.1,0.09,0.07,0.29,0.22,0-.09v0.27l0-.07Zm94.09-.56-2.43-3.12,0,0,0.37-.3,0.26-.2-0.19.22,2.41,3,0,0-0.39.31Zm-95.29-.37-0.06,0h0L677,468.6l-0.11-.09,2.47-3.09,0,0,0.37,0.3,0,0v0l-2.4,3v0h0Zm96.48-.58-2.49-3.07,0.2-.16,0.2-.16,0.05,0v0l2.48,3,0,0Zm-97.67-.37-0.45-.37,0,0,2.51-3,0.06,0,0.34,0.28,0.09,0.06h-0.09Zm98.84-.59-2.54-3,0.14-.13,0.24-.2,0.06-.06V464l2.54,3Zm-100-.38,0,0-0.38-.33,0,0,2.59-3,0,0,0.26,0.23,0.13,0.11v0Zm101.15-.6,0,0-2.58-2.94,0,0,0.33-.29,0,0h0.06L774,463V463l2.6,2.92h0l0,0-0.38.33Zm-102.29-.4h0l0,0-0.37-.33,0,0,2.65-2.93,0,0,0.33,0.3h0v0h0.06l0,0,0,0h-0.07Zm103.42-.61-2.66-2.92,0,0,0.35-.32,0,0,2.67,2.9,0,0-0.3.28Zm-104.55-.4,0,0h0l-0.33-.31,0,0,2.71-2.88,0,0,0.34,0.31,0,0-2.68,2.9h0Zm105.66-.63,0,0-2.69-2.85,0,0,0.34-.32h0V461l0.06,0.06,2.71,2.83h0l0,0-0.36.35Zm-106.76-.41h0l0,0-0.24-.23-0.14-.14,2.76-2.83,0,0,0.28,0.28,0.09,0.09,0,0Zm107.86-.64-2.78-2.81,0,0,0.34-.33,0,0,0,0,2.77,2.77-0.16.16-0.22.22Zm-108.92-.39-0.09-.07h0l-0.16-.16-0.18-.18,0,0,2.81-2.77,0,0,0.29,0.29,0.07,0.07,0,0-2.74,2.74v0.06Zm110-.68,0,0-2.81-2.74,0,0,0.31-.32L778,459h0.19l0,0,2.8,2.69,0,0-0.35.36Zm-111.08-.43-0.4-.42,2.86-2.72,0,0,0.19,0.2,0.12,0.12,0,0,0,0.08,0,0Zm112.12-.67-2.88-2.7,0,0,0.19-.2L779,458,779,458h0.1l0-.05V458l2.86,2.65,0,0-0.35.37Zm-113.17-.43v0h-0.07l0,0-0.32-.35,0,0,0,0,2.89-2.64,0.37,0.4,0,0Zm114.2-.68-2.93-2.64,0.39-.45v0.07l2.92,2.6,0,0-0.18.2Zm-115.22-.44,0,0h0l-0.33-.37,0,0,3-2.61,0,0,0.32,0.35h0.07l-0.07.06Zm116.22-.7-3-2.59,0.32-.36h0v0H781l3,2.52,0,0h0l-0.33.39Zm-117.22-.45v0h-0.07l0,0-0.07-.07-0.24-.29,0,0,3-2.55,0,0,0.29,0.34h0v0h0.07l-0.07.06Zm118.21-.71-3-2.53,0,0,0.3-.36v-0.05l0,0,0,0v0.07l3,2.48,0,0-0.32.39Zm-119.18-.45,0,0-0.28-.33-0.06-.07,3.07-2.49,0,0,0.2,0.25,0.12,0.15,0,0Zm120.14-.72L782.49,454l0,0,0.2-.25,0.12-.16,0,0,3.08,2.43,0,0-0.19.24ZM664.49,456h0l0,0-0.31-.39,0,0,3.12-2.43,0,0,0.3,0.37,0,0,0,0Zm122-.73-3.13-2.41,0,0,0.14-.19,0.14-.18,0,0h0l3.13,2.35v0h0l0,0-0.31.41Zm-123-.47,0,0-0.23-.3-0.09-.12,3.16-2.37,0.07,0.09,0.24,0.32,0,0,0,0Zm123.87-.75,0,0-3.15-2.33,0.32-.44h0l3.17,2.31,0,0-0.3.41Zm-124.78-.47,0,0-0.18-.26-0.12-.17,3.21-2.3,0.14,0.19,0.14,0.2,0,0.07h0Zm125.67-.76-3.22-2.29v0l0.28-.38,0,0h0l3.21,2.24h0l-0.07.16v-0.05l-0.09.12-0.15.22Zm-126.55-.48,0,0-0.18-.24-0.13-.2,3.25-2.24,0,0,0.19,0.28,0.06,0.09h0v0h0.09Zm127.41-.77-3.27-2.22,0,0,0.25-.37h0l0,0h0.16l0,0,3.22,2.16h0v0l-0.14.22-0.14.2Zm-128.27-.48h-0.11l0.07,0-0.26-.39,0,0,3.3-2.18,0,0,0.18,0.28,0.05,0.08,0-.08v0.14h0v0.12l0-.09ZM790,450.33l-3.31-2.15v0l0.24-.37h0v-0.07h0l0-.07v0.09l3.29,2.1,0,0-0.28.42Zm-129.94-.47,0,0-0.16-.25-0.11-.18,0,0,3.34-2.11,0,0,0.14,0.22,0.12,0.18,0,0,0,0Zm130.76-.81h0L787.5,447l0.34-.59v0.15l3.32,2,0,0-0.26.43Zm-131.59-.47v-0.06l-0.26-.41v0h0l3.35-2,0,0,0.16,0.26,0.09,0.13h0.09l-3.44,2.12h0Zm132.39-.83-3.4-2,0,0,0.16-.27,0.09-.13v-0.07l0,0,0-.07v0.09l3.36,2-0.06.09-0.22.38v0Zm-133.14-.48,0,0-0.17-.29-0.1-.18h0l3.39-2,0,0,0.18,0.32,0,0.08H662l-0.09.07Zm133.9-.83,0,0-3.4-1.94,0,0,0.24-.42,0.06-.16V444l3.39,1.91-0.11.2-0.15.28ZM657.74,446l0,0-0.16-.29-0.11-.18,3.46-1.91,0.12,0.23,0.11,0.19h0.11l-0.08,0h0v0.13l-0.05-.09Zm135.4-.85,0,0-3.44-1.87,0,0,0.22-.42v-0.13l0,0.07,0-.06v0.11l3.44,1.84,0,0.08h0l-0.22.41ZM657,444.64v0h0l0,0,0,0-0.11-.2-0.13-.24v0l3.5-1.85,0.09,0.18,0.14,0.26,0,0h0v0.08l0-.05Zm136.85-.87-3.5-1.82,0.05-.1,0.18-.35v0l0.05,0,3.48,1.79h0l-0.07.14h0l-0.18.34v0Zm-137.55-.47,0,0-0.22-.45v0l3.53-1.77v0l0.12,0.24,0.07,0.14,0-.06v0.15h0v0.12l0-.09-3.4,1.74h-0.06Zm138.24-.88h0L791,440.66l0.08-.16,0.15-.3,0,0h0l3.52,1.71v0h0l-0.22.45v0Zm-138.91-.47h0l0,0h0l0-.09-0.18-.36v0l3.57-1.7v0l0.18,0.37,0,0.09,0,0Zm139.58-.9-3.57-1.68v0l0.2-.44v0h0l3.55,1.64h0l0,0-0.21.45v0ZM655,440.58h0l0,0h0l-0.22-.48h0l3.56-1.62,0,0,0.2,0.43,0,0,0,0Zm140.86-.91-3.61-1.61v0l0.11-.25,0.07-.14h0l0-.08h0l3.58,1.57,0,0.06Zm-141.49-.46,0-.13-0.16-.37v0l3.63-1.56,0.07,0.16,0.13,0.28,0,0.05h0v0.26l-0.05-.24Zm142.1-.94-3.64-1.54v0l0.18-.41-0.1,0h0.15l3.62,1.5v0c0,0.09-.08.18-0.11,0.27l-0.09.2v0Zm-142.69-.45v0c-0.06-.16-0.12-0.31-0.19-0.47v0l3.66-1.48v0l0.09,0.22,0.09,0.21v0h0Zm143.27-1-3.67-1.47,0.09-.23,0.09-.22h0l-0.1,0,0.11,0,0,0,3.65,1.42h0v0l-0.1.24c0,0.08-.06.16-0.09,0.24v0ZM653.2,436.4l-0.05-.06h0l-0.18-.47h0l3.66-1.41v0c0.06,0.14.11,0.28,0.16,0.42l0,0.05,0,0Zm144.39-1L793.9,434v0c0-.09.07-0.18,0.11-0.28l0.06-.15h0l0.08-.18v0.14l3.65,1.34h0V435h0v0l-0.16.42v0ZM652.67,435v0l-0.18-.47v0l3.71-1.35v0l0.1,0.29,0.08,0.19,0,0Zm145.45-1-3.73-1.31v0l0.16-.45,0.07-.12v0.1l3.69,1.27-0.07.18c0,0.11-.08.23-0.12,0.34v0Zm-146-.45v0c-0.05-.14-0.1-0.27-0.14-0.41l0-.1h0l3.71-1.26v0l0.16,0.45v0Zm146.46-1-3.75-1.24,0.07-.23c0-.09.06-0.18,0.09-0.26v0h0l3.73,1.21v0h0l-0.16.48v0Zm-146.94-.45v0h0c-0.05-.16-0.11-0.31-0.15-0.48v0h0l3.73-1.19,0.17,0.52,0,0Zm147.41-1-3.77-1.17v0c0-.08,0-0.16.07-0.24l0.13-.43v0.19l3.73,1.13v0c0,0.12-.07.23-0.11,0.34Zm-147.87-.44v0c-0.05-.15-0.1-0.32-0.14-0.48v0h0l3.76-1.11v0c0,0.15.09,0.3,0.13,0.45h0.2Zm148.31-1-3.8-1.09,0.07-.25,0.07-.24v0h0l3.78,1.06,0,0-0.14.49v0Zm-148.74-.44v0l-0.12-.43,0-.08h0l3.78-1v0l0.12,0.42h0v0.07h0l-3.71,1h-0.07Zm149.14-1h0l-3.78-1,0-.17,0.08-.3h0v0h0v0h0l0.06-.22v0.18l0,0,0,0.1,3.77,1v0h0v0c0,0.09-.05.19-0.07,0.28Zm-149.54-.45,0,0h0c0-.16-0.09-0.32-0.12-0.47v0l3.83-1v0l0.12,0.45v0h0V427l-0.06-.22Zm149.91-1-3.83-.95v0c0-.14.07-0.3,0.1-0.45v-0.05h0l3.81,0.91v0.06c0,0.16-.08.32-0.11,0.47v0ZM650,426.32v0h0v0c0-.16-0.08-0.33-0.11-0.49v0l3.85-.89v0c0,0.08,0,.15.05,0.23l0.05,0.21h0v0.07h0v0.24l-0.05-.23-3.74.89Zm150.62-1.08-3.85-.87v0c0-.16.07-0.32,0.1-0.47l0,0,3.83,0.83v0c0,0.17-.08.34-0.11,0.5v0Zm-151-.45h-0.12l0.1-.05v0c0-.15-0.07-0.3-0.09-0.45v0h0l3.84-.81v0l0.1,0.47v0h0Zm151.29-1-3.87-.8v0l0.1-.47v0h0l3.84,0.76,0,0.18c0,0.12,0,.24-0.07.35v0Zm-151.6-.45v0c0-.17-0.07-0.34-0.1-0.5v0h0l3.84-.74v0c0,0.15.06,0.3,0.09,0.45v0.05h0v0.25l-0.06-.24Zm151.89-1h0l-3.85-.71v0c0-.16.06-0.31,0.09-0.47v0h0l3.86,0.69,0,0.11-0.08.42v0Zm-152.17-.45,0-.12c0-.14,0-0.28-0.07-0.41v0h0l3.86-.66v0c0,0.16.05,0.31,0.09,0.47v0h0Zm152.44-1-3.9-.64,0.08-.55h0l3.87,0.61Zm-152.69-.45v0l0-.22,0-.28v0l3.91-.59v0c0,0.11,0,.23.05,0.34l0,0.17Zm152.92-1.05-3.91-.56v0c0-.12,0-0.24,0-0.35l0.09-.42v0.27l3.86,0.53v0c0,0.17,0,.34-0.07.51v0Zm-153.14-.45h0v-0.07h0l-0.07-.5,3.92-.51v0.07c0,0.13,0,.27.05,0.4h0v0.08h0ZM802,417.76l-3.92-.49v0l0.06-.47v0h0L802,417.2v0.06q0,0.24-.06.47v0Zm-153.54-.45v0l-0.06-.5v0l3.93-.43,0.06,0.55h0Zm153.71-1.06-3.93-.41v0c0-.16,0-0.32,0-0.47v0h0l3.9,0.41Zm-153.87-.45v0c0-.16,0-0.34,0-0.5v0l3.94-.36v0c0,0.15,0,.3,0,0.45v0.06h0v0.24l-0.05-.23Zm154-1.06-3.94-.33v0l0-.25,0-.23,0,0,3.91,0.3v0l0,0.45v0.09Zm-154.14-.45v0h0v-0.06c0-.14,0-0.29,0-0.44v0l3.94-.28v0c0,0.16,0,.32,0,0.48l0,0Zm154.26-1.06-3.94-.26v0c0-.14,0-0.3,0-0.45h0l0-.07,3.91,0.26c0,0.09,0,.16,0,0.24l0,0.26v0ZM648,412.77v-0.27l0-.28v0l3.95-.2v0c0,0.07,0,.15,0,0.23s0,0.16,0,.24v0Zm154.45-1.06-3.95-.18v0l0-.48,0,0,3.91,0.19Zm-154.52-.45V411.2c0-.16,0-0.32,0-0.49v0l4-.13v0c0,0.11,0,.23,0,0.35v0.16h0Zm154.54-1.06-3.92-.1v0c0-.16,0-0.32,0-0.48h0v0l3.92,0.11c0,0.18,0,.35,0,0.51v0h0Zm-154.59-.45v0c0-.17,0-0.34,0-0.51v0h0l3.92-.05v0c0,0.16,0,.32,0,0.48v0h0Zm154.65-1.06h0l-3.92,0v-0.51l0-.14h3.92v0.68Zm-154.66-.45v-0.55l0,0,3.92,0.05v0.44l0,0.08h-3.92Zm150.71-1.11v0c0-.16,0-0.32,0-0.48v0h0l3.92-.08v0.19c0,0.12,0,.24,0,0.35v0Zm-146.78-.34-3.92-.11c0-.18,0-0.34,0-0.51v0l3.95,0.1v0c0,0.08,0,.16,0,0.24s0,0.16,0,.24Zm146.75-1.1v0c0-.1,0-0.2,0-0.31v-0.2h0l3.92-.15V405l0,0.48v0Zm-146.68-.34-3.94-.18,0-.55,3.95,0.18v0l0,0.48v0Zm146.62-1.1v0c0-.16,0-0.32,0-0.48v0h0l3.9-.23v0.07h0c0,0.16,0,.32,0,0.48v0Zm-146.58-.35-3.92-.22v-0.12c0-.14,0-0.28,0-0.42v0l3.94,0.25v0c0,0.16,0,.32,0,0.48Zm146.49-1.09v0l0-.24c0-.07,0-0.15,0-0.21v-0.07h0l3.9-.31,0,0.57ZM652,402.46l-3.92-.3v-0.07h0l0-.47v0l3.94,0.33v0c0,0.13,0,.25,0,0.37Zm146.27-1.1v0l0-.4v-0.11h0l3.9-.39,0,0.28c0,0.09,0,.18,0,0.27v0ZM652.13,401l-3.9-.41v-0.07l0-.43v0l3.93,0.41v0l0,0.24c0,0.08,0,.16,0,0.24Zm146-1.09v0c0-.15,0-0.3,0-0.45v-0.06h0v-0.24l0.06,0.22,3.86-.45,0,0h0v0c0,0.16,0,.31.05,0.47v0Zm-145.82-.34-3.92-.5c0-.09,0-0.16,0-0.24s0-.18,0-0.26v0l3.92,0.49v0c0,0.08,0,.16,0,0.24l0,0.2h0v0.08ZM798,398.5v0c0-.11,0-0.22,0-0.33V398h0l0-.08,3.88-.54v0c0,0.16,0,.33.07,0.5v0Zm-145.47-.33h0l-3.88-.53,0.08-.57,3.91,0.57v0.1c0,0.13,0,.27-0.05.41v0Zm145.27-1.09v0c0-.16,0-0.32-0.07-0.47v0h0l3.87-.61h0l0,0.06h0l0.06,0.41v0.09Zm-145.06-.33h0l-3.87-.6,0.09-.57,3.9,0.64Zm144.83-1.08-0.09-.54h0v-0.24l0.06,0.22,3.82-.68,0,0.16c0,0.12,0,.25.07,0.37v0h0Zm-144.62-.35-3.86-.68v-0.07h0l0-.18c0-.1,0-0.19.05-0.29v0h0l3.85,0.71v0c0,0.13,0,.25-0.07.37l0,0.13h0Zm144.37-1.07v0c0-.15-0.06-0.31-0.09-0.46v0h0l3.84-.76h0l0,0.07h0c0,0.13,0,.25.07,0.38l0,0.12h0Zm-144.07-.34h0l-3.84-.76v0c0-.15.06-0.3,0.09-0.43l0-.11,3.87,0.79,0,0.12-0.08.39v0h0ZM797,392.82v0l-0.06-.26,0-.18h0v-0.07h0V392l0.06,0.22,3.79-.83v0c0,0.14.07,0.28,0.09,0.42l0,0.1Zm-143.49-.33h0l-3.83-.83,0.13-.57,3.86,0.87Zm143.18-1.08,0-.07-0.1-.43v0h0l3.75-.9h0.06l0,0.06h0c0,0.15.08,0.31,0.11,0.47v0Zm-142.86-.33h0l-3.81-.91,0-.11,0.1-.43v0l3.83,0.95,0,0.1-0.1.4v0ZM796.34,390v0l-0.06-.24-0.06-.23v0h0l3.79-1,0,0.07h0c0,0.12.06,0.25,0.09,0.38l0,0.11Zm-142.23-.08v-0.27l-3.77-1v0c0-.16.09-0.33,0.13-0.49v0h0l3.79,1ZM796,388.63l0-.16c0-.1-0.05-0.2-0.09-0.3h-0.09l0.06,0h0l0.05,0,3.77-1.06,0,0.07h0c0,0.16.09,0.31,0.12,0.46v0h0Zm-141.44-.33h0l-3.77-1.06,0-.09c0-.14.08-0.29,0.12-0.43v0l3.8,1.09v0l-0.12.41Zm141-1.05v0c0-.15-0.09-0.3-0.13-0.44v-0.05h0v-0.24l0.06,0.22,3.71-1.12,0,0,0.15,0.51ZM655,386.92h0l-3.75-1.14h0v0l0.06-.2c0-.09.06-0.18,0.09-0.26v0l3.77,1.17v0l-0.14.47v0Zm140.2-1.05-0.07-.2-0.09-.28v0h0V385.1l0.06,0.22,3.69-1.2v0l0.16,0.48v0h0Zm-139.77-.33h0l-3.73-1.21v-0.06l0.16-.46v0l3.75,1.24v0l-0.09.28Zm139.32-1-0.18-.52h0l3.7-1.29v0l0.17,0.48v0h0Zm-138.87-.34h0l-3.71-1.27h0v0l0.17-.48v0l3.72,1.31-0.07.22-0.1.27v0Zm138.39-1-0.17-.47H793.9l3.84-1.42v0c0,0.11.08,0.2,0.11,0.31l0.07,0.2Zm-137.91-.35h0l-3.67-1.36,0.05-.16,0.13-.35v0l3.7,1.39v0l-0.17.45v0Zm137.41-1v0c-0.05-.14-0.11-0.28-0.16-0.42h0v-0.07h0V381l0.05,0.24,3.61-1.42,0,0,0.18,0.47v0h0Zm-137-.16,0.07-.2L653.15,380v0l0.19-.48v0h0l3.63,1.45v0l-0.16.4h0Zm136.49-1.18,0-.09c0-.13-0.11-0.26-0.16-0.39v0h0l3.61-1.5,0,0.06h0l0.12,0.31,0.07,0.16Zm-135.84-.35h0l-3.61-1.49h0l0,0a2.23,2.23,0,0,0,.09-0.22l0.1-.22v0l3.64,1.54v0l-0.09.2-0.1.24Zm135.28-1v0l-0.2-.44-0.09-.18,0.12,0.12,3.58-1.58v0.08h0l0.2,0.46Zm-134.75-.26v-0.11l-3.57-1.56,0,0,0.08-.18c0-.09.09-0.19,0.13-0.28v0h0l3.57,1.6v0c0,0.09-.07.18-0.11,0.27l-0.06.13h0Zm134.17-1.05v0l-0.17-.36,0-.1,0,0,3.55-1.65,0.08,0.18,0.14,0.32v0Zm-133.57-.26v-0.12l-3.54-1.63,0-.1,0.19-.4v0l3.57,1.68v0l-0.2.43Zm133-1v0l-0.2-.42V376h0l3.52-1.71,0,0.06h0l0.2,0.42v0Zm-132.3-.37h0l-3.53-1.71h0l0,0,0.16-.34,0.07-.14,3.55,1.75,0,0-0.2.42Zm131.67-.92,0,0-0.21-.41h-0.11l3.61-1.85,0,0,0.22,0.45,0,0Zm-131-.28-0.05-.1-3.5-1.79,0,0,0.24-.45v0l3.51,1.82v0c-0.08.14-.14,0.28-0.22,0.42v0.13Zm130.35-1,0,0c-0.07-.14-0.14-0.28-0.22-0.42v0l0,0,3.45-1.85,0,0,0.24,0.44v0Zm-129.73-.39L657,371.72l0,0,0.24-.45v0l3.47,1.89v0l-0.19.35,0,0.05h0l0,0,0,0v0Zm129-.88,0,0c-0.07-.13-0.14-0.26-0.21-0.39l0,0v-0.09h0v-0.13l0,0.09,3.38-1.91h0l0,0,0.11,0.2,0.13,0.24,0,0Zm-128.31-.36-0.05,0-3.42-1.92,0,0,0.25-.44,0,0,0,0,3.4,1.94-0.08.14-0.17.31v0Zm127.6-.89,0,0c-0.07-.14-0.15-0.26-0.23-0.4l0,0,0,0,3.38-2,0,0,0.26,0.44v0h0Zm-126.91-.37,0,0-3.38-2h0l-0.08,0h0.07l0-.05,0.07,0c0.08-.14.16-0.28,0.24-0.41v0l3.4,2,0,0-0.24.41ZM788,370.2l-0.07-.11-0.17-.29h0l0-.09h0l3.34-2.05h0l0,0h0l0.26,0.42,0,0,0,0Zm-125.42-.38h0l-3.34-2.05v0l0.27-.44,0,0,0,0,3.33,2.07v0l-0.24.39h0ZM787.29,369l0,0-0.26-.4,0,0,0,0h0l3.29-2.12,0,0.07,0.25,0.39,0,0,0,0Zm-123.95-.29v-0.12l-3.28-2.1h0l0,0,0.27-.41v0l3.31,2.16Zm123.17-.92,0,0-0.26-.4,0,0,0,0,3.26-2.17,0,0,0.21,0.32,0.09,0.13,0,0Zm-122.37-.32v-0.09l-3.25-2.17,0,0,0.28-.41v0l3.27,2.22,0,0-0.27.4Zm121.56-.87v0l-0.22-.32,0,0h0l0-.06h0l0,0,3.21-2.25,0,0,0.22,0.31,0.1,0.14ZM665,366.22l-0.08,0v0l-3.19-2.22,0,0,0.3-.41,0,0,3.22,2.29,0,0-0.18.26Zm119.87-.81,0,0-0.21-.3-0.08-.14h0l3.16-2.31h0l0,0h0c0.1,0.13.19,0.26,0.28,0.39l0,0ZM665.81,365h0l-3.16-2.31,0,0c0.05-.09.11-0.16,0.17-0.24l0.14-.18,3.18,2.35,0,0-0.28.39ZM784,364.24l0,0c-0.09-.13-0.19-0.26-0.29-0.38l0,0,0,0,3.12-2.37h0l0,0v0.07l0.13,0.17,0.17,0.22,0,0Zm-117.31-.35-0.05,0-3.11-2.37,0,0,0.3-.39,0,0,3.13,2.41,0,0-0.29.37v0.06Zm116.44-.8,0,0-0.28-.35,0,0v-0.08h0v-0.07l0,0,3-2.41,0.1,0.13,0.24,0.3,0,0Zm-115.58-.38h0l-3.08-2.43,0,0,0.17-.21,0.16-.21,3.08,2.47,0,0-0.3.37ZM782.25,362l-0.12-.15-0.2-.24,0,0,0,0,3-2.48,0.11,0.13,0.24,0.29,0,0Zm-113.76-.34-0.05,0-3-2.49,0,0,0.26-.31,0.09-.11,3,2.53-0.32.39v0.05Zm112.84-.77-0.07-.08-0.26-.3h-0.07l0.07-.06,3-2.54,0,0,0.14,0.17,0.18,0.22,0,0ZM669.4,360.5l0,0-3-2.54,0,0,0.23-.27,0.12-.15,0,0,3,2.56,0,0-0.32.36Zm111-.73,0,0-0.2-.23-0.11-.12H780l3-2.66,0.06,0,0,0,0.28,0.32,0.07,0.07Zm-110.06-.35,0,0-2.92-2.6,0,0,0.18-.19,0.16-.18,0,0,0,0,2.91,2.62,0,0-0.2.22Zm109.1-.72,0,0-0.32-.35,0,0,2.89-2.68h0l0,0h0l0.35,0.39Zm-108.13-.35h0l-2.87-2.66v-0.09l0,0,0.32-.34,0,0,2.88,2.7,0,0-0.33.35Zm107.14-.7-0.14-.15-0.2-.2H778l0.06-.06,2.83-2.71,0,0,0.35,0.37,0,0Zm-106.16-.34,0,0-2.83-2.71,0,0,0.23-.24,0.15-.16,2.83,2.76,0,0-0.34.34Zm105.16-.69-0.12-.13-0.23-.23h0v0h0l0,0,2.77-2.77,0,0,0.26,0.26,0.13,0.13Zm-104.12-.31,0,0h0l0,0-2.77-2.77,0,0,0.35-.35,0,0,2.77,2.82,0,0-0.2.2-0.13.12v0.07Zm103.1-.71,0,0-0.2-.19-0.17-.16v0l2.72-2.83,0,0,0.36,0.35,0,0Zm-102.1-.33,0,0-2.71-2.82,0,0L672,352l0,0,2.72,2.87Zm101.06-.66-0.35-.33,0,0v-0.08l0,0,2.65-2.87,0.12,0.11,0.28,0.26,0,0Zm-100-.34h-0.11l0.06,0-2.63-2.85,0,0v-0.06l0,0,0.35-.32,0,0,0,0,2.63,2.9,0,0-0.34.31,0,0h-0.08Zm99-.64-0.41-.37v0l2.6-2.93,0,0,0.2,0.18,0.17,0.15,0,0Zm-97.88-.33h-0.07l0,0-2.58-2.9h0l0,0,0.26-.23,0.14-.12,0,0,2.58,3,0,0-0.34.3,0,0h-0.08Zm96.8-.62,0,0-0.36-.32,0,0,0,0,2.54-3,0,0,0.32,0.28,0.09,0.08Zm-95.7-.33,0,0h0l-2.54-3,0,0,0.37-.32,0,0,2.55,3,0,0-0.37.32h0Zm94.6-.6,0,0-0.37-.31,0,0v0l2.48-3,0.45,0.37,0,0Zm-93.51-.3,0,0-2.49-3,0.14-.12,0.28-.23,0,0,2.49,3.08,0,0-0.22.18Zm92.4-.61-0.43-.34v0l2.43-3.08,0,0h0.06l0,0,0.3,0.24,0.1,0.08Zm-91.28-.3,0,0-2.42-3.07,0,0,0.29-.22,0.14-.11,2.42,3.11Zm90.15-.59-0.07-.05-0.34-.26,0,0,0,0,2.36-3.12,0,0,0.34,0.26,0.09,0.07,0,0Zm-89-.29,0,0-2.36-3.12,0,0h0l0.31-.23,0.1-.08,2.37,3.17,0,0-0.36.27v0h-0.06Zm87.85-.58-0.06,0-0.35-.26,0,0,2.33-3.19,0,0h0.07l0,0,0.38,0.28,0,0Zm-86.7-.29h0l-2.31-3.17h0v-0.12l0,0.09,0.37-.27,0,0,2.31,3.21,0,0-0.35.26h0Zm85.53-.56,0,0-0.24-.16-0.14-.1,0,0v-0.16l0,0,2.22-3.19h0l0-.06v0.1l0.18,0.13,0.21,0.15h0l0,0ZM683.19,348v0l-2.24-3.2,0,0,0.41-.29,0,0,2.24,3.25-0.11.09-0.31.21Zm83.2-.57,0,0-0.4-.27,0,0v0l2.18-3.26,0,0L768.5,344l0.11,0.08v0Zm-82-.19-2.24-3.35h0v0h0l0,0,0.37-.24,0.08-.06,2.18,3.3-0.16.11-0.26.18v0.09Zm80.75-.61h0l-0.37-.24,0,0.09v-0.12l-0.12-.05h0.13l2.1-3.29,0,0,0.46,0.29Zm-79.59-.24,0,0L683.47,343h0l0,0,0.43-.27,0,0,2.12,3.34h0l-0.4.26Zm78.37-.53,0,0-0.41-.25,0,0h0l-0.06,0h0.08l2-3.32h0l0-.08v0.11l0.41,0.26h0Zm-77.15-.24,0,0-2-3.35h0l0.3-.18,0.16-.1,0,0,2,3.35-0.12.08-0.32.19Zm75.92-.52h0l-0.41-.24,0,0v0l2-3.38,0,0,0.43,0.25,0,0Zm-74.68-.23,0,0-2-3.38h0l0.43-.26h0l2,3.42-0.17.1-0.27.16h0Zm73.44-.5h0l-0.22-.12-0.22-.14v0l1.92-3.42h0v0l0,0,0.44,0.25h0Zm-72.2-.2,0,0-1.92-3.42h0v-0.12l0,0.1,0.06,0,0.35-.2,0,0,0,0,1.89,3.42,0,0-0.34.18Zm70.94-.5h0l-0.32-.17-0.14-.08,1.86-3.48,0,0,0.45,0.24h0l0,0Zm-69.69-.2L688.71,340h-0.11l0.09,0h0l0,0,0.24-.12,0.23-.13,1.85,3.5h0l-0.42.22ZM759,343l-0.62-.3h0.16l1.77-3.48,0.07,0h0l0.07,0,0.35,0.18h0Zm-67.14-.19v0L690,339.26l0.19-.1,0.29-.14,0,0,1.77,3.54h0l-0.43.22h0Zm65.85-.46h0l-0.43-.21,0,0,1.73-3.56,0,0,0.44,0.22h0Zm-64.58-.15v-0.07l-1.69-3.47h-0.12l0.09,0h0l0.18-.09,0.31-.15h0l1.71,3.56Zm63.28-.47h0l-0.43-.2,0,0,1.65-3.59h0l0.45,0.21,0,0v0Zm-62-.17h-0.13l0.1-.05-1.64-3.53h0v-0.11l0,0.09,0.43-.2h0l1.64,3.59-0.44.2h-0.05Zm60.64-.43h0l-0.44-.19,0,0,1.58-3.62h0l0-.11v0.14l0.45,0.2h0Zm-59.34-.16,0,0-1.58-3.59h0l0.33-.14,0.16-.07,1.56,3.63-0.09,0-0.35.15h0Zm58-.41h0l-0.44-.18h0v0l1.5-3.63,0.13,0.06,0.37,0.16h0ZM697,340.35l0,0-1.5-3.61,0.06,0h0l0.44-.18h0l1.49,3.66h0l-0.42.17Zm55.35-.4-0.16-.07-0.32-.12,0,0v0l1.43-3.65,0,0,0.46,0.18h0Zm-54-.14v0l-1.43-3.65,0.54-.21,1.42,3.69h0l-0.43.16Zm52.67-.38h0l-0.45-.17,0,0v0l1.35-3.67,0.06,0,0.45,0.17h0Zm-51.33-.13H699.6l0.1-.05-1.35-3.64,0,0,0.26-.09,0.22-.08h0l1.35,3.71h0l-0.22.08-0.2.08h-0.06Zm50-.37h0l-0.45-.16,0,0v0l1.28-3.69h0.06L751,335.2h0Zm-48.6-.13,0,0-1.29-3.7h0l0.48-.16h0l1.27,3.74h0l-0.45.15h0Zm1.4-.22-0.07-.26-1.22-3.72,0,0,0.51-.16,1.2,3.76h0l-0.44.14v0.25Zm45.83-.12-0.49-.16v0h0l1.2-3.73h0l0.18,0.06,0.3,0.09h0Zm-44.45-.37-0.06-.18-0.2.07,0.18-.12-1.14-3.73,0.09,0h0l0.44-.13h0l1.12,3.78-0.22.07-0.25.07v0.2Zm43.07-.07h0l-0.24-.07-0.2-.06h-0.05l-0.22-.11,0.23,0.05,1.12-3.73,0,0,0.49,0.15h0Zm-1.39-.41h0l-0.32-.09-0.37-.11H745l1-3.75,0.07,0,0.47,0.13h0Zm-40.36-.1,0,0-1.06-3.77h0l0.49-.13h0l1.05,3.81h0l-0.37.11Zm39-.29h0l-0.18,0-0.28-.08h0l1-3.82h0l0.5,0.13h0Zm-37.57-.09,0,0-1-3.78h0l0.49-.13h0l1,3.83h0l-0.47.12h0Zm36.17-.26h0l-0.47-.11h0v0l0.91-3.81h0l0.47,0.12h0.05v0ZM708,336.81l0-.05-0.91-3.81h0v-0.25l0.06,0.24,0.46-.11h0l0.9,3.84h0l-0.45.11Zm33.39-.27h0l-0.47-.11,0,0,0.86-3.82h0l0.49,0.11h0Zm-32-.09,0,0-0.83-3.82h0l0.18,0,0.35-.07h0l0.83,3.86h0l-0.47.11h0Zm30.56-.22-0.24-.05-0.26-.05,0,0,0.76-3.85,0.26,0.05,0.27,0.05h0Zm-29.15-.08,0,0L710,332.3h0l0.5-.09h0l0.74,3.88h0l-0.18,0-0.25,0h-0.05Zm27.74-.2-0.55-.09v0L738.7,332l0.57,0.11Zm-26.32-.07h-0.16l0.13-.05L711.52,332h0l0.34-.06,0.2,0,0.66,3.89h0l-0.33.06Zm24.9-.18h0l-0.47-.08h0v0l0.6-3.87h0.05l0.27,0,0.25,0Zm-22,0-0.05-.24h0v0l-0.54-3.88h0l0.43-.06,0.1,0,0.52,3.92h0l-0.37.05h-0.09v0.24Zm-1.49,0v0L713,331.77h0l0.24,0,0.26,0h0l0.58,3.9h0l-0.28,0Zm22.08-.16h0l-0.47-.07h0v0l0.53-3.89h0l0.45,0.06h0.09Zm-1.43-.19h0l-0.36,0h-0.16v0l0.49-3.88h0.09l0.42,0.05h0Zm-17.79,0h-0.12l0.11-.05L716,331.34h0l0.51-.05h0L717,335.2h0l-0.45.05h-0.05Zm16.36-.12h0l-0.48,0h0l-0.28-.07h0.26l0.37-3.88h0l0.51,0.05h0Zm-14.93,0-0.39-3.92h0l0.51,0h0l0.35,3.93-0.19,0-0.28,0h-0.07Zm13.49-.1h0l-0.47,0h0v0l0.34-3.9,0.35,0h0.19Zm-12,0,0,0L719,331h0l0.41,0h0.14l0.28,3.94h0l-0.48,0h0Zm10.59-.08h0l-0.37,0-0.15,0,0.26-3.91,0.42,0h0.12Zm-9.25,0,0.05-.06-0.23-3.9h0l0.34,0h0.2l0.21,3.94h-0.51Zm7.81-.07h0l-0.47,0,0,0,0.18-3.92,0.54,0Zm-6.28,0,0,0-0.16-3.92h0l0.51,0h0l0.13,3.95h0l-0.48,0h0Zm4.83,0h-0.55v0l0.11-3.92h0.55Zm-3.42,0,0,0-0.08-3.92h0.58l0.06,3.95h-0.54Zm2,0h-0.45l-0.11,0v-3.92h0.58Z" transform="translate(-647.88 -330.81)"/></g></g></g><g id="_编组_15" data-name="&lt;编组&gt;" class="cls-4"><g id="_编组_16" data-name="&lt;编组&gt;"><g id="_编组_17" data-name="&lt;编组&gt;"><g id="_编组_18" data-name="&lt;编组&gt;"><path class="cls-3" d="M725.21,474.36a65.52,65.52,0,0,1-30.07-7.2l3.14-6.16a58.66,58.66,0,0,0,26.92,6.45,59.38,59.38,0,0,0,59.31-59.31V408h6.91v0.12A66.3,66.3,0,0,1,725.21,474.36Zm-58.65-75.08-6.84-1a65.85,65.85,0,0,1,4.66-16.33l6.35,2.74A58.93,58.93,0,0,0,666.56,399.28Zm88.25-42.55a59.31,59.31,0,0,0-7-3.46l2.63-6.39a66.33,66.33,0,0,1,7.85,3.86Z" transform="translate(-647.88 -330.81)"/></g></g></g></g><g id="_编组_19" data-name="&lt;编组&gt;"><g id="_编组_20" data-name="&lt;编组&gt;" class="cls-5"><g id="_编组_21" data-name="&lt;编组&gt;"><g id="_编组_22" data-name="&lt;编组&gt;"><path class="cls-3" d="M767.93,519.4L742.87,455l0.46-.18a49.73,49.73,0,0,0,31.9-46.65A51,51,0,0,0,775,403l0-.49,68.78-7,0,0.49a120.53,120.53,0,0,1,.61,12.15,119.18,119.18,0,0,1-76,111.07Zm-23.78-63.87,24.34,62.59a118.19,118.19,0,0,0,74.88-110c0-3.85-.19-7.73-0.56-11.56L776,403.38c0.14,1.57.22,3.17,0.22,4.76A50.71,50.71,0,0,1,744.15,455.53Z" transform="translate(-647.88 -330.81)"/></g></g></g></g><g id="_编组_23" data-name="&lt;编组&gt;"><g id="_编组_24" data-name="&lt;编组&gt;"><g id="_编组_25" data-name="&lt;编组&gt;"><path class="cls-3" d="M725.21,467.84a59.7,59.7,0,1,1,59.7-59.7A59.77,59.77,0,0,1,725.21,467.84Zm0-118.42a58.72,58.72,0,1,0,58.72,58.72A58.78,58.78,0,0,0,725.21,349.42Z" transform="translate(-647.88 -330.81)"/></g></g></g><g id="_编组_26" data-name="&lt;编组&gt;" class="cls-6"><g id="_编组_27" data-name="&lt;编组&gt;"><g id="_编组_28" data-name="&lt;编组&gt;"><path class="cls-3" d="M725.41,454.49a46.52,46.52,0,0,1-11.09-1.34l0.47-1.92a44.34,44.34,0,1,0,10.62-87.38v-2A46.31,46.31,0,1,1,725.41,454.49Z" transform="translate(-647.88 -330.81)"/></g></g></g><g id="_编组_29" data-name="&lt;编组&gt;" class="cls-6"><g id="_编组_30" data-name="&lt;编组&gt;"><g id="_编组_31" data-name="&lt;编组&gt;"><path class="cls-3" d="M710.43,452l-0.05,0,0.34-1-0.35,1-1-.34,0.67-1.86,0.91,0.32h0l0,0.12Zm-2.82-1.06-0.07,0h0l-0.93-.4,0.8-1.81,0.89,0.38-0.38.91,0,0Zm-2.71-1.23,0.3-.9,0,0-0.4.82-0.9-.46,0.91-1.75,0.86,0.44h0l0.13,0.06-0.55.82Zm-2.62-1.4,0.3-.9-0.06.1-0.42.72-0.87-.51,1-1.69,0.83,0.49h0l0.07,0-0.55.82Zm-2.75-1.68h0l-0.83-.57,1.13-1.62,0.8,0.55-0.54.82,0.61-.77Zm-2.42-1.73,0.49-.73-0.54.69h0l-0.79-.62,1.24-1.54,0.76,0.6-0.6.8ZM694.75,443l0,0h0l-0.75-.67,1.33-1.46,0.72,0.65-0.65.74,0,0Zm-2.17-2-0.08-.08h0l-0.71-.72,1.43-1.37,0.68,0.69-0.7.7h0l0,0Zm-2.12-2.24,0.62-.62-0.66.57h0l-0.65-.75,1.51-1.27,0.63,0.73h0l0,0-0.77.64Zm-1.88-2.29,0.66-.66-0.08.05-0.67.52-0.61-.81,1.59-1.17,0.58,0.77h0l0,0.06-0.82.55Zm-1.82-2.51,0.66-.49-0.68.45,0.83-.56-0.83.56-0.55-.84,1.66-1.06,0.53,0.81Zm-1.6-2.55,0.76-.5-0.08,0-0.71.41-0.5-.88,1.73-1,0.48,0.84h0l0,0.06-0.89.44Zm-1.46-2.7h0l0.93-.47-0.93.46-0.44-.9,1.79-.84,0.42,0.87h0ZM682.48,426l0-.07h0c-0.13-.31-0.25-0.62-0.38-0.93l1.84-.72,0.36,0.89-0.85.36,0.87-.29-0.87.29Zm-1.09-2.87,0.67-.25-0.68.23,0.91-.31-0.91.31q-0.16-.48-0.32-1l1.88-.6c0.1,0.31.2,0.61,0.3,0.92Zm-0.87-2.86v-0.07h0q-0.13-.49-0.25-1l1.92-.47q0.12,0.47.24,0.94l-1,.26h0Zm-0.7-3,0.84-.21-0.85.16q-0.1-.49-0.19-1l1.94-.35q0.09,0.48.18,1Zm-0.5-3v0h0q-0.07-.5-0.12-1l2-.22q0.05,0.48.12,1l-1,.13,1-.12Zm-0.3-3,0.9-.11h-0.07l-0.84.06c0-.33,0-0.67-0.06-1l2-.09c0,0.32,0,.64.05,1h0v0.07h-1Zm-0.11-3.08h0Zm0,0v-0.09c0-.31,0-0.61,0-0.92l2,0q0,0.44,0,.88Zm2.06-2.84-0.9-.11H679v-0.07h0c0-.34,0-0.67.07-1l2,0.17q0,0.48-.07,1l-0.91-.05Zm0.28-2.95-2-.25,0.69,0.09-0.69-.09c0-.33.09-0.67,0.14-1l2,0.3Q681.3,401.91,681.24,402.39Zm0.45-2.81-1.93-.39v0q0.1-.5.21-1l1.93,0.42c-0.07.31-.13,0.63-0.2,0.95l-1-.19Zm0.64-2.8-0.94-.31-1-.13,0.93,0.12-0.1,0-0.8-.21q0.13-.49.27-1l1.9,0.55q-0.13.46-.26,0.93h0Zm0.84-2.81-1.87-.65h0q0.16-.48.33-1l1.86,0.67q-0.16.46-.32,0.92l-0.93-.31Zm1-2.68-0.88-.44-1-.25,0.91,0.23-0.08,0-0.79-.33,0.4-.93,1.81,0.79-0.38.89h0Zm1.23-2.72-1.77-.87h0l0.46-.9,1.75,0.91-0.44.86-0.89-.44Zm1.33-2.51-0.76-.5-1-.48,0-.06h0l0.51-.87,1.69,1-0.49.83-0.79-.45Zm1.56-2.51-0.82-.55-0.88-.45,0.81,0.41-0.75-.5,0.82,0.54-0.82-.54,0.57-.83,1.62,1.13-0.55.8h0Zm1.61-2.27-0.66-.66-0.86-.57,0-.06h0l0.62-.79,1.54,1.23-0.6.76-0.75-.57Zm1.8-2.22-0.6-.75-0.85-.57,0.09-.1h0l0.67-.75,1.46,1.33-0.65.72-0.72-.63Zm2-2.16-0.62-.77-0.81-.55,0.8,0.53,0,0-0.63-.63,0.72-.71,1.37,1.42-0.69.68h0Zm2.16-2-0.62-.77-0.75-.64,0.72,0.6-0.62-.71,0.76-.66,1.27,1.51-0.73.63h0ZM698.1,373l-1.17-1.59,0,0h0l0.8-.61,1.17,1.59-0.77.58-0.61-.79Zm2.4-1.73-0.56-.82-0.6-.77,0.54,0.68-0.48-.73,0.55,0.81-0.55-.82,0.84-.55,1.07,1.66Zm2.45-1.54-0.5-.85v0l-0.57-.85,0.06,0h0l0.87-.5,1,1.73Zm2.42-1.32-0.3-.9-0.57-.85,0.12-.06h0l0.91-.44,0.84,1.79-0.87.42-0.43-.85Zm2.68-1.22-0.31-.94-0.48-.86,0.46,0.81,0-.08-0.33-.78,0.93-.38L709,366.8l-0.89.36h0Zm2.74-1-0.59-1.88h0l1-.32,0.6,1.88-0.92.3-0.33-.95Zm2.82-.87L713,363.4l0.24,0.72-0.21-.73,0.28,0.94-0.26-.95,1-.25,0.47,1.92Zm2.82-.66-0.19-1h0v0l-0.28-1H716l1-.19,0.34,1.95Zm2.72-.47v-1l-0.3-.94,0.3,0.91v0l-0.12-.91,1-.12,0.22,2-1,.12h0Zm2.95-.3v-1l-0.3-.94,0.3,0.91v-0.11l-0.06-.84,1-.06,0.09,2-1,.06H722.1Zm3-.11v-2h0v2Z" transform="translate(-647.88 -330.81)"/></g></g></g><g id="_编组_32" data-name="&lt;编组&gt;" class="cls-7"><g id="_编组_33" data-name="&lt;编组&gt;"><g id="_编组_34" data-name="&lt;编组&gt;"><path class="cls-3" d="M725.21,443.22l-30.38-17.54V390.6l30.38-17.54L755.6,390.6v35.08Zm-29.45-18.08,29.45,17,29.45-17v-34l-29.45-17-29.45,17v34Z" transform="translate(-647.88 -330.81)"/></g></g></g><g id="_编组_35" data-name="&lt;编组&gt;" class="cls-7"><g id="_编组_36" data-name="&lt;编组&gt;"><g id="_编组_37" data-name="&lt;编组&gt;"><path class="cls-3" d="M734.29,442L734,442l-33.63-9-9.08-33.89,24.81-24.81,0.26,0.07,33.63,9,9.08,33.89Zm-33.13-9.84L734,441l24-24-8.8-32.85-32.85-8.8-24,24Z" transform="translate(-647.88 -330.81)"/></g></g></g></g><g id="_编组_38" data-name="&lt;编组&gt;" class="cls-2"><g id="_编组_39" data-name="&lt;编组&gt;"><g id="_编组_40" data-name="&lt;编组&gt;"><g id="_编组_41" data-name="&lt;编组&gt;"><circle class="cls-3" cx="77.33" cy="77.33" r="9.9"/></g></g></g><g id="_编组_42" data-name="&lt;编组&gt;"><g id="_编组_43" data-name="&lt;编组&gt;"><g id="_编组_44" data-name="&lt;编组&gt;"><path class="cls-3" d="M725.21,424.54a16.4,16.4,0,1,1,16.4-16.4A16.42,16.42,0,0,1,725.21,424.54Zm0-31.81a15.41,15.41,0,1,0,15.41,15.41A15.43,15.43,0,0,0,725.21,392.73Z" transform="translate(-647.88 -330.81)"/></g></g></g><g id="_编组_45" data-name="&lt;编组&gt;"><g id="_编组_46" data-name="&lt;编组&gt;"><g id="_编组_47" data-name="&lt;编组&gt;"><path class="cls-3" d="M725.21,481.65a73.51,73.51,0,1,1,73.51-73.51A73.6,73.6,0,0,1,725.21,481.65Zm0-146.53a73,73,0,1,0,73,73A73.1,73.1,0,0,0,725.21,335.12Z" transform="translate(-647.88 -330.81)"/></g></g></g><g id="_编组_48" data-name="&lt;编组&gt;"><g id="_编组_49" data-name="&lt;编组&gt;"><g id="_编组_50" data-name="&lt;编组&gt;"><path class="cls-3" d="M725.28,485.47H724.7l0-3.95h0.49l0.07,0v3.92Zm-1.52,0h0v0h-0.53l0.1-3.95h0.49v0l0.11,0.11h0Zm2.46,0-0.05-4h0.51v0h0l0.08,3.92h-0.58Zm1.51,0-0.12-3.95,0.55,0v0l0.15,3.92h-0.58Zm-5.49,0-0.58,0,0.18-3.94h0l0.48,0,0,0Zm7,0-0.2-3.95h0.55v0l0.23,3.91h0l-0.31,0h-0.23Zm-8.52,0h0l-0.5,0h0l0.26-3.94h0l0.48,0h0v0Zm10-.07-0.28-3.94h0.13l0.34,0h0l0.08,0,0.3,3.91Zm-11.55,0h0v0l-0.51,0h0l0.33-3.94h0l0.41,0,0.11,0Zm15.13-.08-0.06-.22-0.35,0-0.16,0-0.43-3.92,0.14,0,0.34,0h0l0.07,0,0.46,3.9h0v0.22Zm-2.07,0-0.36-3.94h0l0.47,0h0v0l0.38,3.9h0l-0.5,0h0Zm-14.58,0h0l-0.5-.05h0l0.41-3.93h0l0.47,0.05h0.05v0Zm-1.5-.17h0l-0.51-.06h0L716.1,481l0.55,0.08v0Zm19.1-.12-0.51-3.92,0.55-.07v0l0.53,3.88h0l-0.07,0v0Zm-20.61-.07h0l-0.44-.06H714.1l0.56-3.91,0.17,0,0.34,0h0v0h0Zm22.11-.15-0.59-3.9h0l0.47-.07h0v0l0.61,3.87h0l0,0v0l-0.28,0Zm-23.62-.07h0l-0.5-.09h0l0.64-3.9,0.19,0,0.32,0.05,0,0Zm25.11-.17-0.66-3.9h0l0.47-.08h0v0l0.68,3.86h0l-0.07,0h0l-0.47.08h0Zm-26.63-.09h0l-0.25,0-0.25,0h0l0.72-3.88,0.55,0.09v0Zm28.12-.18v0L739,480.22h0l0.47-.09h0v0l0.76,3.84Zm-29.6-.09h0l-0.5-.1h0l0.8-3.87h0l0.47,0.09h0v0Zm31.09-.21-0.82-3.86,0.49-.11v-0.28l0.9,4.13h0l0,0.06V483.7l-0.46.1h0Zm-32.58-.1h0l-0.21,0-0.32-.07h0l0.87-3.86h0l0.44,0.1h0.07v0Zm34.06-.23-0.89-3.84,0.2-.05,0.27-.06h0.06v0l0.91,3.81h0l-0.49.12h0Zm-35.63,0,0-.08-0.22-.05-0.24-.06h0v0l0.93-3.8h0l0.43,0.11,0.06-.24v0.29l-0.91,3.8h0Zm37.11-.32-1-3.83h0l0.47-.12,0,0v0.05l1,3.78h0l-0.49.12h0ZM705.75,483h0l-0.49-.13h0l1-3.82h0l0.47,0.12,0,0v0Zm40-.26-1-3.81h0l0.41-.12h0.09v0l1.06,3.77h0l-0.49.14h0Zm-41.42-.13H704.2l-0.07,0-0.37-.11h0l1.09-3.8h0l0.39,0.11,0.1,0h0l0.2,0.06h-0.2Zm42.88-.29L746,478.52h0l0.43-.13,0.07,0v0l1.14,3.75-0.07,0h0l-0.46.14h0Zm-44.33-.13h0v0l0,0L702.3,482h0l1.17-3.78h0l0.44,0.13v0l0,0.05h0l0.1,0.16-0.12-.1Zm45.79-.32-1.2-3.76h0l0.46-.14,0,0,1.21,3.73-0.19.07-0.33.11h0Zm-47.25-.14-0.16-.06-0.35-.12h0l1.24-3.75,0.15,0.05,0.31,0.1h0l0.06,0v0Zm48.69-.33-1.27-3.74h0l0.45-.16h0l0,0,1.29,3.71h0Zm-50.14-.15h0l-0.48-.16h0l1.31-3.73h0l0.45,0.16,0,0Zm52.1-.3-0.05-.22,0,0-0.39.14h0l-1.34-3.71h0l0.28-.1,0.22-.07v0L752,480.7h0v0.24Zm-53.53-.22-0.06,0-0.21-.07-0.25-.1h0l1.39-3.7h0l0.45,0.16,0,0v0Zm54.43-.36-1.42-3.69h0l0.42-.16h0.18l-0.1,0,1.42,3.63-0.07,0h0Zm-55.85-.18-0.06,0-0.22-.09-0.23-.09h0l1.47-3.67h0l0.45,0.18h0v0Zm57.27-.38-1.49-3.66h0l0.22-.09,0.19-.08h0l0.06,0h0.12l-0.1,0,1.49,3.59h0l-0.34.14Zm-58.69-.18,0,0-0.47-.2h0l1.54-3.63h0l0.44,0.18h0v0Zm60.08-.4-1.56-3.63h0l0.44-.19h0l0,0,1.55,3.54h0.12l-0.11,0h0l-0.36.16Zm-61.48-.2-0.05,0-0.47-.21,1.6-3.61,0.07,0,0.4,0.18,0,0v0Zm62.87-.41L755.48,475h0l0.43-.2h0l0,0,1.64,3.56Zm-64.3-.11v-0.09l-0.05,0,0-.08-0.43-.2,0,0,1.68-3.57,0.14,0.07,0.29,0.13h0l0.06,0v0l-1.64,3.56h0Zm65.68-.53-1.7-3.56,0.44-.22v-0.06l0,0h0v0.06l1.7,3.5h0l-0.05,0h0l-0.05,0-0.38.18h0Zm-67-.22,0,0-0.4-.2-0.07,0,1.75-3.54h0l0.4,0.2,0.05-.1v0.13h0v0Zm68.36-.44-1.77-3.53,0,0,0.26-.13,0.2-.1,0,0,1.77,3.49,0,0-0.45.23h0Zm-69.71-.24h0l-0.21-.1-0.26-.14h0l1.82-3.51,0,0,0.4,0.2h0l0.05,0h0l0.13,0.16-0.16-.11Zm71.06-.45-1.84-3.5,0,0,0.4-.21h0l0.06,0h0v0h0l1.85,3.45h0l-0.45.24Zm-72.41-.26,0,0-0.27-.14-0.2-.11,1.89-3.47,0.09,0,0.36,0.2h0l0,0Zm73.75-.47-1.91-3.46h0l0.3-.17,0.14-.08,0,0,1.92,3.42Zm-75.08-.27h0l-0.12-.07-0.32-.18,0,0,2-3.43,0.22,0.13,0.22,0.13,0.11,0.06h-0.1Zm76.4-.47,0,0-2-3.4h0l0.21-.12,0.18-.11h0l0.07,0v0l2,3.38,0,0.06,0,0Zm-77.72-.28h0l-0.24-.14-0.22-.13h0l2-3.4,0,0,0.41,0.24h0l0,0.05Zm79-.49-2-3.38h0l0.24-.14,0.21-.11h0l2,3.33h0l-0.11.07-0.35.21Zm-80.32-.3-0.05,0h0l0,0-0.37-.23h0l2.09-3.35,0,0,0.41,0.25,0,0v0Zm81.61-.5-2.11-3.34h0l0.37-.24,0,0h0.18l-0.06,0,2.09,3.27h0l-0.07,0h0Zm-82.91-.3,0,0-0.33-.22L683,473l2.16-3.31h0l0.4,0.26,0,0,0,0Zm84.18-.52-2.17-3.3,0,0,0.4-.26,0,0,2.19,3.28-0.2.14-0.25.16Zm-85.46-.31,0,0-0.45-.3,0,0,2.2-3.24,0.11,0.07,0.32,0.22,0.13,0.06h-0.13Zm86.72-.54-2.24-3.25,0,0,0.37-.26,0.05,0,0,0,2.24,3.21-0.05,0h0Zm-88.14-.21,0.11-.16-0.12-.09-0.27-.19,0,0,0,0,2.27-3.19,0,0,0.19,0.14,0.16,0.11h0l0,0v0.16l0,0L681,471.59h0ZM770.2,471l-2.3-3.21,0.09-.07,0.32-.24,0,0,0,0,2.3,3.17,0,0-0.41.3h0Zm-90.44-.33,0,0-0.26-.19-0.17-.13,2.35-3.18,0.45,0.32,0,0Zm91.67-.56L769.06,467l0,0,0.37-.28,0,0h0v0l2.36,3.12h0v0h0l-0.39.3Zm-92.89-.35,0,0h-0.05l0,0-0.37-.29,0,0,0,0,2.39-3.1,0.09,0.07,0.29,0.22,0-.09v0.27l0-.07Zm94.09-.56-2.43-3.12,0,0,0.37-.3,0.26-.2-0.19.22,2.41,3,0,0-0.39.31Zm-95.29-.37-0.06,0h0L677,468.6l-0.11-.09,2.47-3.09,0,0,0.37,0.3,0,0v0l-2.4,3v0h0Zm96.48-.58-2.49-3.07,0.2-.16,0.2-.16,0.05,0v0l2.48,3,0,0Zm-97.67-.37-0.45-.37,0,0,2.51-3,0.06,0,0.34,0.28,0.09,0.06h-0.09Zm98.84-.59-2.54-3,0.14-.13,0.24-.2,0.06-.06V464l2.54,3Zm-100-.38,0,0-0.38-.33,0,0,2.59-3,0,0,0.26,0.23,0.13,0.11v0Zm101.15-.6,0,0-2.58-2.94,0,0,0.33-.29,0,0h0.06L774,463V463l2.6,2.92h0l0,0-0.38.33Zm-102.29-.4h0l0,0-0.37-.33,0,0,2.65-2.93,0,0,0.33,0.3h0v0h0.06l0,0,0,0h-0.07Zm103.42-.61-2.66-2.92,0,0,0.35-.32,0,0,2.67,2.9,0,0-0.3.28Zm-104.55-.4,0,0h0l-0.33-.31,0,0,2.71-2.88,0,0,0.34,0.31,0,0-2.68,2.9h0Zm105.66-.63,0,0-2.69-2.85,0,0,0.34-.32h0V461l0.06,0.06,2.71,2.83h0l0,0-0.36.35Zm-106.76-.41h0l0,0-0.24-.23-0.14-.14,2.76-2.83,0,0,0.28,0.28,0.09,0.09,0,0Zm107.86-.64-2.78-2.81,0,0,0.34-.33,0,0,0,0,2.77,2.77-0.16.16-0.22.22Zm-108.92-.39-0.09-.07h0l-0.16-.16-0.18-.18,0,0,2.81-2.77,0,0,0.29,0.29,0.07,0.07,0,0-2.74,2.74v0.06Zm110-.68,0,0-2.81-2.74,0,0,0.31-.32L778,459h0.19l0,0,2.8,2.69,0,0-0.35.36Zm-111.08-.43-0.4-.42,2.86-2.72,0,0,0.19,0.2,0.12,0.12,0,0,0,0.08,0,0Zm112.12-.67-2.88-2.7,0,0,0.19-.2L779,458,779,458h0.1l0-.05V458l2.86,2.65,0,0-0.35.37Zm-113.17-.43v0h-0.07l0,0-0.32-.35,0,0,0,0,2.89-2.64,0.37,0.4,0,0Zm114.2-.68-2.93-2.64,0.39-.45v0.07l2.92,2.6,0,0-0.18.2Zm-115.22-.44,0,0h0l-0.33-.37,0,0,3-2.61,0,0,0.32,0.35h0.07l-0.07.06Zm116.22-.7-3-2.59,0.32-.36h0v0H781l3,2.52,0,0h0l-0.33.39Zm-117.22-.45v0h-0.07l0,0-0.07-.07-0.24-.29,0,0,3-2.55,0,0,0.29,0.34h0v0h0.07l-0.07.06Zm118.21-.71-3-2.53,0,0,0.3-.36v-0.05l0,0,0,0v0.07l3,2.48,0,0-0.32.39Zm-119.18-.45,0,0-0.28-.33-0.06-.07,3.07-2.49,0,0,0.2,0.25,0.12,0.15,0,0Zm120.14-.72L782.49,454l0,0,0.2-.25,0.12-.16,0,0,3.08,2.43,0,0-0.19.24ZM664.49,456h0l0,0-0.31-.39,0,0,3.12-2.43,0,0,0.3,0.37,0,0,0,0Zm122-.73-3.13-2.41,0,0,0.14-.19,0.14-.18,0,0h0l3.13,2.35v0h0l0,0-0.31.41Zm-123-.47,0,0-0.23-.3-0.09-.12,3.16-2.37,0.07,0.09,0.24,0.32,0,0,0,0Zm123.87-.75,0,0-3.15-2.33,0.32-.44h0l3.17,2.31,0,0-0.3.41Zm-124.78-.47,0,0-0.18-.26-0.12-.17,3.21-2.3,0.14,0.19,0.14,0.2,0,0.07h0Zm125.67-.76-3.22-2.29v0l0.28-.38,0,0h0l3.21,2.24h0l-0.07.16v-0.05l-0.09.12-0.15.22Zm-126.55-.48,0,0-0.18-.24-0.13-.2,3.25-2.24,0,0,0.19,0.28,0.06,0.09h0v0h0.09Zm127.41-.77-3.27-2.22,0,0,0.25-.37h0l0,0h0.16l0,0,3.22,2.16h0v0l-0.14.22-0.14.2Zm-128.27-.48h-0.11l0.07,0-0.26-.39,0,0,3.3-2.18,0,0,0.18,0.28,0.05,0.08,0-.08v0.14h0v0.12l0-.09ZM790,450.33l-3.31-2.15v0l0.24-.37h0v-0.07h0l0-.07v0.09l3.29,2.1,0,0-0.28.42Zm-129.94-.47,0,0-0.16-.25-0.11-.18,0,0,3.34-2.11,0,0,0.14,0.22,0.12,0.18,0,0,0,0Zm130.76-.81h0L787.5,447l0.34-.59v0.15l3.32,2,0,0-0.26.43Zm-131.59-.47v-0.06l-0.26-.41v0h0l3.35-2,0,0,0.16,0.26,0.09,0.13h0.09l-3.44,2.12h0Zm132.39-.83-3.4-2,0,0,0.16-.27,0.09-.13v-0.07l0,0,0-.07v0.09l3.36,2-0.06.09-0.22.38v0Zm-133.14-.48,0,0-0.17-.29-0.1-.18h0l3.39-2,0,0,0.18,0.32,0,0.08H662l-0.09.07Zm133.9-.83,0,0-3.4-1.94,0,0,0.24-.42,0.06-.16V444l3.39,1.91-0.11.2-0.15.28ZM657.74,446l0,0-0.16-.29-0.11-.18,3.46-1.91,0.12,0.23,0.11,0.19h0.11l-0.08,0h0v0.13l-0.05-.09Zm135.4-.85,0,0-3.44-1.87,0,0,0.22-.42v-0.13l0,0.07,0-.06v0.11l3.44,1.84,0,0.08h0l-0.22.41ZM657,444.64v0h0l0,0,0,0-0.11-.2-0.13-.24v0l3.5-1.85,0.09,0.18,0.14,0.26,0,0h0v0.08l0-.05Zm136.85-.87-3.5-1.82,0.05-.1,0.18-.35v0l0.05,0,3.48,1.79h0l-0.07.14h0l-0.18.34v0Zm-137.55-.47,0,0-0.22-.45v0l3.53-1.77v0l0.12,0.24,0.07,0.14,0-.06v0.15h0v0.12l0-.09-3.4,1.74h-0.06Zm138.24-.88h0L791,440.66l0.08-.16,0.15-.3,0,0h0l3.52,1.71v0h0l-0.22.45v0Zm-138.91-.47h0l0,0h0l0-.09-0.18-.36v0l3.57-1.7v0l0.18,0.37,0,0.09,0,0Zm139.58-.9-3.57-1.68v0l0.2-.44v0h0l3.55,1.64h0l0,0-0.21.45v0ZM655,440.58h0l0,0h0l-0.22-.48h0l3.56-1.62,0,0,0.2,0.43,0,0,0,0Zm140.86-.91-3.61-1.61v0l0.11-.25,0.07-.14h0l0-.08h0l3.58,1.57,0,0.06Zm-141.49-.46,0-.13-0.16-.37v0l3.63-1.56,0.07,0.16,0.13,0.28,0,0.05h0v0.26l-0.05-.24Zm142.1-.94-3.64-1.54v0l0.18-.41-0.1,0h0.15l3.62,1.5v0c0,0.09-.08.18-0.11,0.27l-0.09.2v0Zm-142.69-.45v0c-0.06-.16-0.12-0.31-0.19-0.47v0l3.66-1.48v0l0.09,0.22,0.09,0.21v0h0Zm143.27-1-3.67-1.47,0.09-.23,0.09-.22h0l-0.1,0,0.11,0,0,0,3.65,1.42h0v0l-0.1.24c0,0.08-.06.16-0.09,0.24v0ZM653.2,436.4l-0.05-.06h0l-0.18-.47h0l3.66-1.41v0c0.06,0.14.11,0.28,0.16,0.42l0,0.05,0,0Zm144.39-1L793.9,434v0c0-.09.07-0.18,0.11-0.28l0.06-.15h0l0.08-.18v0.14l3.65,1.34h0V435h0v0l-0.16.42v0ZM652.67,435v0l-0.18-.47v0l3.71-1.35v0l0.1,0.29,0.08,0.19,0,0Zm145.45-1-3.73-1.31v0l0.16-.45,0.07-.12v0.1l3.69,1.27-0.07.18c0,0.11-.08.23-0.12,0.34v0Zm-146-.45v0c-0.05-.14-0.1-0.27-0.14-0.41l0-.1h0l3.71-1.26v0l0.16,0.45v0Zm146.46-1-3.75-1.24,0.07-.23c0-.09.06-0.18,0.09-0.26v0h0l3.73,1.21v0h0l-0.16.48v0Zm-146.94-.45v0h0c-0.05-.16-0.11-0.31-0.15-0.48v0h0l3.73-1.19,0.17,0.52,0,0Zm147.41-1-3.77-1.17v0c0-.08,0-0.16.07-0.24l0.13-.43v0.19l3.73,1.13v0c0,0.12-.07.23-0.11,0.34Zm-147.87-.44v0c-0.05-.15-0.1-0.32-0.14-0.48v0h0l3.76-1.11v0c0,0.15.09,0.3,0.13,0.45h0.2Zm148.31-1-3.8-1.09,0.07-.25,0.07-.24v0h0l3.78,1.06,0,0-0.14.49v0Zm-148.74-.44v0l-0.12-.43,0-.08h0l3.78-1v0l0.12,0.42h0v0.07h0l-3.71,1h-0.07Zm149.14-1h0l-3.78-1,0-.17,0.08-.3h0v0h0v0h0l0.06-.22v0.18l0,0,0,0.1,3.77,1v0h0v0c0,0.09-.05.19-0.07,0.28Zm-149.54-.45,0,0h0c0-.16-0.09-0.32-0.12-0.47v0l3.83-1v0l0.12,0.45v0h0V427l-0.06-.22Zm149.91-1-3.83-.95v0c0-.14.07-0.3,0.1-0.45v-0.05h0l3.81,0.91v0.06c0,0.16-.08.32-0.11,0.47v0ZM650,426.32v0h0v0c0-.16-0.08-0.33-0.11-0.49v0l3.85-.89v0c0,0.08,0,.15.05,0.23l0.05,0.21h0v0.07h0v0.24l-0.05-.23-3.74.89Zm150.62-1.08-3.85-.87v0c0-.16.07-0.32,0.1-0.47l0,0,3.83,0.83v0c0,0.17-.08.34-0.11,0.5v0Zm-151-.45h-0.12l0.1-.05v0c0-.15-0.07-0.3-0.09-0.45v0h0l3.84-.81v0l0.1,0.47v0h0Zm151.29-1-3.87-.8v0l0.1-.47v0h0l3.84,0.76,0,0.18c0,0.12,0,.24-0.07.35v0Zm-151.6-.45v0c0-.17-0.07-0.34-0.1-0.5v0h0l3.84-.74v0c0,0.15.06,0.3,0.09,0.45v0.05h0v0.25l-0.06-.24Zm151.89-1h0l-3.85-.71v0c0-.16.06-0.31,0.09-0.47v0h0l3.86,0.69,0,0.11-0.08.42v0Zm-152.17-.45,0-.12c0-.14,0-0.28-0.07-0.41v0h0l3.86-.66v0c0,0.16.05,0.31,0.09,0.47v0h0Zm152.44-1-3.9-.64,0.08-.55h0l3.87,0.61Zm-152.69-.45v0l0-.22,0-.28v0l3.91-.59v0c0,0.11,0,.23.05,0.34l0,0.17Zm152.92-1.05-3.91-.56v0c0-.12,0-0.24,0-0.35l0.09-.42v0.27l3.86,0.53v0c0,0.17,0,.34-0.07.51v0Zm-153.14-.45h0v-0.07h0l-0.07-.5,3.92-.51v0.07c0,0.13,0,.27.05,0.4h0v0.08h0ZM802,417.76l-3.92-.49v0l0.06-.47v0h0L802,417.2v0.06q0,0.24-.06.47v0Zm-153.54-.45v0l-0.06-.5v0l3.93-.43,0.06,0.55h0Zm153.71-1.06-3.93-.41v0c0-.16,0-0.32,0-0.47v0h0l3.9,0.41Zm-153.87-.45v0c0-.16,0-0.34,0-0.5v0l3.94-.36v0c0,0.15,0,.3,0,0.45v0.06h0v0.24l-0.05-.23Zm154-1.06-3.94-.33v0l0-.25,0-.23,0,0,3.91,0.3v0l0,0.45v0.09Zm-154.14-.45v0h0v-0.06c0-.14,0-0.29,0-0.44v0l3.94-.28v0c0,0.16,0,.32,0,0.48l0,0Zm154.26-1.06-3.94-.26v0c0-.14,0-0.3,0-0.45h0l0-.07,3.91,0.26c0,0.09,0,.16,0,0.24l0,0.26v0ZM648,412.77v-0.27l0-.28v0l3.95-.2v0c0,0.07,0,.15,0,0.23s0,0.16,0,.24v0Zm154.45-1.06-3.95-.18v0l0-.48,0,0,3.91,0.19Zm-154.52-.45V411.2c0-.16,0-0.32,0-0.49v0l4-.13v0c0,0.11,0,.23,0,0.35v0.16h0Zm154.54-1.06-3.92-.1v0c0-.16,0-0.32,0-0.48h0v0l3.92,0.11c0,0.18,0,.35,0,0.51v0h0Zm-154.59-.45v0c0-.17,0-0.34,0-0.51v0h0l3.92-.05v0c0,0.16,0,.32,0,0.48v0h0Zm154.65-1.06h0l-3.92,0v-0.51l0-.14h3.92v0.68Zm-154.66-.45v-0.55l0,0,3.92,0.05v0.44l0,0.08h-3.92Zm150.71-1.11v0c0-.16,0-0.32,0-0.48v0h0l3.92-.08v0.19c0,0.12,0,.24,0,0.35v0Zm-146.78-.34-3.92-.11c0-.18,0-0.34,0-0.51v0l3.95,0.1v0c0,0.08,0,.16,0,0.24s0,0.16,0,.24Zm146.75-1.1v0c0-.1,0-0.2,0-0.31v-0.2h0l3.92-.15V405l0,0.48v0Zm-146.68-.34-3.94-.18,0-.55,3.95,0.18v0l0,0.48v0Zm146.62-1.1v0c0-.16,0-0.32,0-0.48v0h0l3.9-.23v0.07h0c0,0.16,0,.32,0,0.48v0Zm-146.58-.35-3.92-.22v-0.12c0-.14,0-0.28,0-0.42v0l3.94,0.25v0c0,0.16,0,.32,0,0.48Zm146.49-1.09v0l0-.24c0-.07,0-0.15,0-0.21v-0.07h0l3.9-.31,0,0.57ZM652,402.46l-3.92-.3v-0.07h0l0-.47v0l3.94,0.33v0c0,0.13,0,.25,0,0.37Zm146.27-1.1v0l0-.4v-0.11h0l3.9-.39,0,0.28c0,0.09,0,.18,0,0.27v0ZM652.13,401l-3.9-.41v-0.07l0-.43v0l3.93,0.41v0l0,0.24c0,0.08,0,.16,0,0.24Zm146-1.09v0c0-.15,0-0.3,0-0.45v-0.06h0v-0.24l0.06,0.22,3.86-.45,0,0h0v0c0,0.16,0,.31.05,0.47v0Zm-145.82-.34-3.92-.5c0-.09,0-0.16,0-0.24s0-.18,0-0.26v0l3.92,0.49v0c0,0.08,0,.16,0,0.24l0,0.2h0v0.08ZM798,398.5v0c0-.11,0-0.22,0-0.33V398h0l0-.08,3.88-.54v0c0,0.16,0,.33.07,0.5v0Zm-145.47-.33h0l-3.88-.53,0.08-.57,3.91,0.57v0.1c0,0.13,0,.27-0.05.41v0Zm145.27-1.09v0c0-.16,0-0.32-0.07-0.47v0h0l3.87-.61h0l0,0.06h0l0.06,0.41v0.09Zm-145.06-.33h0l-3.87-.6,0.09-.57,3.9,0.64Zm144.83-1.08-0.09-.54h0v-0.24l0.06,0.22,3.82-.68,0,0.16c0,0.12,0,.25.07,0.37v0h0Zm-144.62-.35-3.86-.68v-0.07h0l0-.18c0-.1,0-0.19.05-0.29v0h0l3.85,0.71v0c0,0.13,0,.25-0.07.37l0,0.13h0Zm144.37-1.07v0c0-.15-0.06-0.31-0.09-0.46v0h0l3.84-.76h0l0,0.07h0c0,0.13,0,.25.07,0.38l0,0.12h0Zm-144.07-.34h0l-3.84-.76v0c0-.15.06-0.3,0.09-0.43l0-.11,3.87,0.79,0,0.12-0.08.39v0h0ZM797,392.82v0l-0.06-.26,0-.18h0v-0.07h0V392l0.06,0.22,3.79-.83v0c0,0.14.07,0.28,0.09,0.42l0,0.1Zm-143.49-.33h0l-3.83-.83,0.13-.57,3.86,0.87Zm143.18-1.08,0-.07-0.1-.43v0h0l3.75-.9h0.06l0,0.06h0c0,0.15.08,0.31,0.11,0.47v0Zm-142.86-.33h0l-3.81-.91,0-.11,0.1-.43v0l3.83,0.95,0,0.1-0.1.4v0ZM796.34,390v0l-0.06-.24-0.06-.23v0h0l3.79-1,0,0.07h0c0,0.12.06,0.25,0.09,0.38l0,0.11Zm-142.23-.08v-0.27l-3.77-1v0c0-.16.09-0.33,0.13-0.49v0h0l3.79,1ZM796,388.63l0-.16c0-.1-0.05-0.2-0.09-0.3h-0.09l0.06,0h0l0.05,0,3.77-1.06,0,0.07h0c0,0.16.09,0.31,0.12,0.46v0h0Zm-141.44-.33h0l-3.77-1.06,0-.09c0-.14.08-0.29,0.12-0.43v0l3.8,1.09v0l-0.12.41Zm141-1.05v0c0-.15-0.09-0.3-0.13-0.44v-0.05h0v-0.24l0.06,0.22,3.71-1.12,0,0,0.15,0.51ZM655,386.92h0l-3.75-1.14h0v0l0.06-.2c0-.09.06-0.18,0.09-0.26v0l3.77,1.17v0l-0.14.47v0Zm140.2-1.05-0.07-.2-0.09-.28v0h0V385.1l0.06,0.22,3.69-1.2v0l0.16,0.48v0h0Zm-139.77-.33h0l-3.73-1.21v-0.06l0.16-.46v0l3.75,1.24v0l-0.09.28Zm139.32-1-0.18-.52h0l3.7-1.29v0l0.17,0.48v0h0Zm-138.87-.34h0l-3.71-1.27h0v0l0.17-.48v0l3.72,1.31-0.07.22-0.1.27v0Zm138.39-1-0.17-.47H793.9l3.84-1.42v0c0,0.11.08,0.2,0.11,0.31l0.07,0.2Zm-137.91-.35h0l-3.67-1.36,0.05-.16,0.13-.35v0l3.7,1.39v0l-0.17.45v0Zm137.41-1v0c-0.05-.14-0.11-0.28-0.16-0.42h0v-0.07h0V381l0.05,0.24,3.61-1.42,0,0,0.18,0.47v0h0Zm-137-.16,0.07-.2L653.15,380v0l0.19-.48v0h0l3.63,1.45v0l-0.16.4h0Zm136.49-1.18,0-.09c0-.13-0.11-0.26-0.16-0.39v0h0l3.61-1.5,0,0.06h0l0.12,0.31,0.07,0.16Zm-135.84-.35h0l-3.61-1.49h0l0,0a2.23,2.23,0,0,0,.09-0.22l0.1-.22v0l3.64,1.54v0l-0.09.2-0.1.24Zm135.28-1v0l-0.2-.44-0.09-.18,0.12,0.12,3.58-1.58v0.08h0l0.2,0.46Zm-134.75-.26v-0.11l-3.57-1.56,0,0,0.08-.18c0-.09.09-0.19,0.13-0.28v0h0l3.57,1.6v0c0,0.09-.07.18-0.11,0.27l-0.06.13h0Zm134.17-1.05v0l-0.17-.36,0-.1,0,0,3.55-1.65,0.08,0.18,0.14,0.32v0Zm-133.57-.26v-0.12l-3.54-1.63,0-.1,0.19-.4v0l3.57,1.68v0l-0.2.43Zm133-1v0l-0.2-.42V376h0l3.52-1.71,0,0.06h0l0.2,0.42v0Zm-132.3-.37h0l-3.53-1.71h0l0,0,0.16-.34,0.07-.14,3.55,1.75,0,0-0.2.42Zm131.67-.92,0,0-0.21-.41h-0.11l3.61-1.85,0,0,0.22,0.45,0,0Zm-131-.28-0.05-.1-3.5-1.79,0,0,0.24-.45v0l3.51,1.82v0c-0.08.14-.14,0.28-0.22,0.42v0.13Zm130.35-1,0,0c-0.07-.14-0.14-0.28-0.22-0.42v0l0,0,3.45-1.85,0,0,0.24,0.44v0Zm-129.73-.39L657,371.72l0,0,0.24-.45v0l3.47,1.89v0l-0.19.35,0,0.05h0l0,0,0,0v0Zm129-.88,0,0c-0.07-.13-0.14-0.26-0.21-0.39l0,0v-0.09h0v-0.13l0,0.09,3.38-1.91h0l0,0,0.11,0.2,0.13,0.24,0,0Zm-128.31-.36-0.05,0-3.42-1.92,0,0,0.25-.44,0,0,0,0,3.4,1.94-0.08.14-0.17.31v0Zm127.6-.89,0,0c-0.07-.14-0.15-0.26-0.23-0.4l0,0,0,0,3.38-2,0,0,0.26,0.44v0h0Zm-126.91-.37,0,0-3.38-2h0l-0.08,0h0.07l0-.05,0.07,0c0.08-.14.16-0.28,0.24-0.41v0l3.4,2,0,0-0.24.41ZM788,370.2l-0.07-.11-0.17-.29h0l0-.09h0l3.34-2.05h0l0,0h0l0.26,0.42,0,0,0,0Zm-125.42-.38h0l-3.34-2.05v0l0.27-.44,0,0,0,0,3.33,2.07v0l-0.24.39h0ZM787.29,369l0,0-0.26-.4,0,0,0,0h0l3.29-2.12,0,0.07,0.25,0.39,0,0,0,0Zm-123.95-.29v-0.12l-3.28-2.1h0l0,0,0.27-.41v0l3.31,2.16Zm123.17-.92,0,0-0.26-.4,0,0,0,0,3.26-2.17,0,0,0.21,0.32,0.09,0.13,0,0Zm-122.37-.32v-0.09l-3.25-2.17,0,0,0.28-.41v0l3.27,2.22,0,0-0.27.4Zm121.56-.87v0l-0.22-.32,0,0h0l0-.06h0l0,0,3.21-2.25,0,0,0.22,0.31,0.1,0.14ZM665,366.22l-0.08,0v0l-3.19-2.22,0,0,0.3-.41,0,0,3.22,2.29,0,0-0.18.26Zm119.87-.81,0,0-0.21-.3-0.08-.14h0l3.16-2.31h0l0,0h0c0.1,0.13.19,0.26,0.28,0.39l0,0ZM665.81,365h0l-3.16-2.31,0,0c0.05-.09.11-0.16,0.17-0.24l0.14-.18,3.18,2.35,0,0-0.28.39ZM784,364.24l0,0c-0.09-.13-0.19-0.26-0.29-0.38l0,0,0,0,3.12-2.37h0l0,0v0.07l0.13,0.17,0.17,0.22,0,0Zm-117.31-.35-0.05,0-3.11-2.37,0,0,0.3-.39,0,0,3.13,2.41,0,0-0.29.37v0.06Zm116.44-.8,0,0-0.28-.35,0,0v-0.08h0v-0.07l0,0,3-2.41,0.1,0.13,0.24,0.3,0,0Zm-115.58-.38h0l-3.08-2.43,0,0,0.17-.21,0.16-.21,3.08,2.47,0,0-0.3.37ZM782.25,362l-0.12-.15-0.2-.24,0,0,0,0,3-2.48,0.11,0.13,0.24,0.29,0,0Zm-113.76-.34-0.05,0-3-2.49,0,0,0.26-.31,0.09-.11,3,2.53-0.32.39v0.05Zm112.84-.77-0.07-.08-0.26-.3h-0.07l0.07-.06,3-2.54,0,0,0.14,0.17,0.18,0.22,0,0ZM669.4,360.5l0,0-3-2.54,0,0,0.23-.27,0.12-.15,0,0,3,2.56,0,0-0.32.36Zm111-.73,0,0-0.2-.23-0.11-.12H780l3-2.66,0.06,0,0,0,0.28,0.32,0.07,0.07Zm-110.06-.35,0,0-2.92-2.6,0,0,0.18-.19,0.16-.18,0,0,0,0,2.91,2.62,0,0-0.2.22Zm109.1-.72,0,0-0.32-.35,0,0,2.89-2.68h0l0,0h0l0.35,0.39Zm-108.13-.35h0l-2.87-2.66v-0.09l0,0,0.32-.34,0,0,2.88,2.7,0,0-0.33.35Zm107.14-.7-0.14-.15-0.2-.2H778l0.06-.06,2.83-2.71,0,0,0.35,0.37,0,0Zm-106.16-.34,0,0-2.83-2.71,0,0,0.23-.24,0.15-.16,2.83,2.76,0,0-0.34.34Zm105.16-.69-0.12-.13-0.23-.23h0v0h0l0,0,2.77-2.77,0,0,0.26,0.26,0.13,0.13Zm-104.12-.31,0,0h0l0,0-2.77-2.77,0,0,0.35-.35,0,0,2.77,2.82,0,0-0.2.2-0.13.12v0.07Zm103.1-.71,0,0-0.2-.19-0.17-.16v0l2.72-2.83,0,0,0.36,0.35,0,0Zm-102.1-.33,0,0-2.71-2.82,0,0L672,352l0,0,2.72,2.87Zm101.06-.66-0.35-.33,0,0v-0.08l0,0,2.65-2.87,0.12,0.11,0.28,0.26,0,0Zm-100-.34h-0.11l0.06,0-2.63-2.85,0,0v-0.06l0,0,0.35-.32,0,0,0,0,2.63,2.9,0,0-0.34.31,0,0h-0.08Zm99-.64-0.41-.37v0l2.6-2.93,0,0,0.2,0.18,0.17,0.15,0,0Zm-97.88-.33h-0.07l0,0-2.58-2.9h0l0,0,0.26-.23,0.14-.12,0,0,2.58,3,0,0-0.34.3,0,0h-0.08Zm96.8-.62,0,0-0.36-.32,0,0,0,0,2.54-3,0,0,0.32,0.28,0.09,0.08Zm-95.7-.33,0,0h0l-2.54-3,0,0,0.37-.32,0,0,2.55,3,0,0-0.37.32h0Zm94.6-.6,0,0-0.37-.31,0,0v0l2.48-3,0.45,0.37,0,0Zm-93.51-.3,0,0-2.49-3,0.14-.12,0.28-.23,0,0,2.49,3.08,0,0-0.22.18Zm92.4-.61-0.43-.34v0l2.43-3.08,0,0h0.06l0,0,0.3,0.24,0.1,0.08Zm-91.28-.3,0,0-2.42-3.07,0,0,0.29-.22,0.14-.11,2.42,3.11Zm90.15-.59-0.07-.05-0.34-.26,0,0,0,0,2.36-3.12,0,0,0.34,0.26,0.09,0.07,0,0Zm-89-.29,0,0-2.36-3.12,0,0h0l0.31-.23,0.1-.08,2.37,3.17,0,0-0.36.27v0h-0.06Zm87.85-.58-0.06,0-0.35-.26,0,0,2.33-3.19,0,0h0.07l0,0,0.38,0.28,0,0Zm-86.7-.29h0l-2.31-3.17h0v-0.12l0,0.09,0.37-.27,0,0,2.31,3.21,0,0-0.35.26h0Zm85.53-.56,0,0-0.24-.16-0.14-.1,0,0v-0.16l0,0,2.22-3.19h0l0-.06v0.1l0.18,0.13,0.21,0.15h0l0,0ZM683.19,348v0l-2.24-3.2,0,0,0.41-.29,0,0,2.24,3.25-0.11.09-0.31.21Zm83.2-.57,0,0-0.4-.27,0,0v0l2.18-3.26,0,0L768.5,344l0.11,0.08v0Zm-82-.19-2.24-3.35h0v0h0l0,0,0.37-.24,0.08-.06,2.18,3.3-0.16.11-0.26.18v0.09Zm80.75-.61h0l-0.37-.24,0,0.09v-0.12l-0.12-.05h0.13l2.1-3.29,0,0,0.46,0.29Zm-79.59-.24,0,0L683.47,343h0l0,0,0.43-.27,0,0,2.12,3.34h0l-0.4.26Zm78.37-.53,0,0-0.41-.25,0,0h0l-0.06,0h0.08l2-3.32h0l0-.08v0.11l0.41,0.26h0Zm-77.15-.24,0,0-2-3.35h0l0.3-.18,0.16-.1,0,0,2,3.35-0.12.08-0.32.19Zm75.92-.52h0l-0.41-.24,0,0v0l2-3.38,0,0,0.43,0.25,0,0Zm-74.68-.23,0,0-2-3.38h0l0.43-.26h0l2,3.42-0.17.1-0.27.16h0Zm73.44-.5h0l-0.22-.12-0.22-.14v0l1.92-3.42h0v0l0,0,0.44,0.25h0Zm-72.2-.2,0,0-1.92-3.42h0v-0.12l0,0.1,0.06,0,0.35-.2,0,0,0,0,1.89,3.42,0,0-0.34.18Zm70.94-.5h0l-0.32-.17-0.14-.08,1.86-3.48,0,0,0.45,0.24h0l0,0Zm-69.69-.2L688.71,340h-0.11l0.09,0h0l0,0,0.24-.12,0.23-.13,1.85,3.5h0l-0.42.22ZM759,343l-0.62-.3h0.16l1.77-3.48,0.07,0h0l0.07,0,0.35,0.18h0Zm-67.14-.19v0L690,339.26l0.19-.1,0.29-.14,0,0,1.77,3.54h0l-0.43.22h0Zm65.85-.46h0l-0.43-.21,0,0,1.73-3.56,0,0,0.44,0.22h0Zm-64.58-.15v-0.07l-1.69-3.47h-0.12l0.09,0h0l0.18-.09,0.31-.15h0l1.71,3.56Zm63.28-.47h0l-0.43-.2,0,0,1.65-3.59h0l0.45,0.21,0,0v0Zm-62-.17h-0.13l0.1-.05-1.64-3.53h0v-0.11l0,0.09,0.43-.2h0l1.64,3.59-0.44.2h-0.05Zm60.64-.43h0l-0.44-.19,0,0,1.58-3.62h0l0-.11v0.14l0.45,0.2h0Zm-59.34-.16,0,0-1.58-3.59h0l0.33-.14,0.16-.07,1.56,3.63-0.09,0-0.35.15h0Zm58-.41h0l-0.44-.18h0v0l1.5-3.63,0.13,0.06,0.37,0.16h0ZM697,340.35l0,0-1.5-3.61,0.06,0h0l0.44-.18h0l1.49,3.66h0l-0.42.17Zm55.35-.4-0.16-.07-0.32-.12,0,0v0l1.43-3.65,0,0,0.46,0.18h0Zm-54-.14v0l-1.43-3.65,0.54-.21,1.42,3.69h0l-0.43.16Zm52.67-.38h0l-0.45-.17,0,0v0l1.35-3.67,0.06,0,0.45,0.17h0Zm-51.33-.13H699.6l0.1-.05-1.35-3.64,0,0,0.26-.09,0.22-.08h0l1.35,3.71h0l-0.22.08-0.2.08h-0.06Zm50-.37h0l-0.45-.16,0,0v0l1.28-3.69h0.06L751,335.2h0Zm-48.6-.13,0,0-1.29-3.7h0l0.48-.16h0l1.27,3.74h0l-0.45.15h0Zm1.4-.22-0.07-.26-1.22-3.72,0,0,0.51-.16,1.2,3.76h0l-0.44.14v0.25Zm45.83-.12-0.49-.16v0h0l1.2-3.73h0l0.18,0.06,0.3,0.09h0Zm-44.45-.37-0.06-.18-0.2.07,0.18-.12-1.14-3.73,0.09,0h0l0.44-.13h0l1.12,3.78-0.22.07-0.25.07v0.2Zm43.07-.07h0l-0.24-.07-0.2-.06h-0.05l-0.22-.11,0.23,0.05,1.12-3.73,0,0,0.49,0.15h0Zm-1.39-.41h0l-0.32-.09-0.37-.11H745l1-3.75,0.07,0,0.47,0.13h0Zm-40.36-.1,0,0-1.06-3.77h0l0.49-.13h0l1.05,3.81h0l-0.37.11Zm39-.29h0l-0.18,0-0.28-.08h0l1-3.82h0l0.5,0.13h0Zm-37.57-.09,0,0-1-3.78h0l0.49-.13h0l1,3.83h0l-0.47.12h0Zm36.17-.26h0l-0.47-.11h0v0l0.91-3.81h0l0.47,0.12h0.05v0ZM708,336.81l0-.05-0.91-3.81h0v-0.25l0.06,0.24,0.46-.11h0l0.9,3.84h0l-0.45.11Zm33.39-.27h0l-0.47-.11,0,0,0.86-3.82h0l0.49,0.11h0Zm-32-.09,0,0-0.83-3.82h0l0.18,0,0.35-.07h0l0.83,3.86h0l-0.47.11h0Zm30.56-.22-0.24-.05-0.26-.05,0,0,0.76-3.85,0.26,0.05,0.27,0.05h0Zm-29.15-.08,0,0L710,332.3h0l0.5-.09h0l0.74,3.88h0l-0.18,0-0.25,0h-0.05Zm27.74-.2-0.55-.09v0L738.7,332l0.57,0.11Zm-26.32-.07h-0.16l0.13-.05L711.52,332h0l0.34-.06,0.2,0,0.66,3.89h0l-0.33.06Zm24.9-.18h0l-0.47-.08h0v0l0.6-3.87h0.05l0.27,0,0.25,0Zm-22,0-0.05-.24h0v0l-0.54-3.88h0l0.43-.06,0.1,0,0.52,3.92h0l-0.37.05h-0.09v0.24Zm-1.49,0v0L713,331.77h0l0.24,0,0.26,0h0l0.58,3.9h0l-0.28,0Zm22.08-.16h0l-0.47-.07h0v0l0.53-3.89h0l0.45,0.06h0.09Zm-1.43-.19h0l-0.36,0h-0.16v0l0.49-3.88h0.09l0.42,0.05h0Zm-17.79,0h-0.12l0.11-.05L716,331.34h0l0.51-.05h0L717,335.2h0l-0.45.05h-0.05Zm16.36-.12h0l-0.48,0h0l-0.28-.07h0.26l0.37-3.88h0l0.51,0.05h0Zm-14.93,0-0.39-3.92h0l0.51,0h0l0.35,3.93-0.19,0-0.28,0h-0.07Zm13.49-.1h0l-0.47,0h0v0l0.34-3.9,0.35,0h0.19Zm-12,0,0,0L719,331h0l0.41,0h0.14l0.28,3.94h0l-0.48,0h0Zm10.59-.08h0l-0.37,0-0.15,0,0.26-3.91,0.42,0h0.12Zm-9.25,0,0.05-.06-0.23-3.9h0l0.34,0h0.2l0.21,3.94h-0.51Zm7.81-.07h0l-0.47,0,0,0,0.18-3.92,0.54,0Zm-6.28,0,0,0-0.16-3.92h0l0.51,0h0l0.13,3.95h0l-0.48,0h0Zm4.83,0h-0.55v0l0.11-3.92h0.55Zm-3.42,0,0,0-0.08-3.92h0.58l0.06,3.95h-0.54Zm2,0h-0.45l-0.11,0v-3.92h0.58Z" transform="translate(-647.88 -330.81)"/></g></g></g><g id="_编组_51" data-name="&lt;编组&gt;" class="cls-4"><g id="_编组_52" data-name="&lt;编组&gt;"><g id="_编组_53" data-name="&lt;编组&gt;"><g id="_编组_54" data-name="&lt;编组&gt;"><path class="cls-3" d="M725.21,474.36a65.52,65.52,0,0,1-30.07-7.2l3.14-6.16a58.66,58.66,0,0,0,26.92,6.45,59.38,59.38,0,0,0,59.31-59.31V408h6.91v0.12A66.3,66.3,0,0,1,725.21,474.36Zm-58.65-75.08-6.84-1a65.85,65.85,0,0,1,4.66-16.33l6.35,2.74A58.93,58.93,0,0,0,666.56,399.28Zm88.25-42.55a59.31,59.31,0,0,0-7-3.46l2.63-6.39a66.33,66.33,0,0,1,7.85,3.86Z" transform="translate(-647.88 -330.81)"/></g></g></g></g><g id="_编组_55" data-name="&lt;编组&gt;"><g id="_编组_56" data-name="&lt;编组&gt;" class="cls-5"><g id="_编组_57" data-name="&lt;编组&gt;"><g id="_编组_58" data-name="&lt;编组&gt;"><path class="cls-3" d="M767.93,519.4L742.87,455l0.46-.18a49.73,49.73,0,0,0,31.9-46.65A51,51,0,0,0,775,403l0-.49,68.78-7,0,0.49a120.53,120.53,0,0,1,.61,12.15,119.18,119.18,0,0,1-76,111.07Zm-23.78-63.87,24.34,62.59a118.19,118.19,0,0,0,74.88-110c0-3.85-.19-7.73-0.56-11.56L776,403.38c0.14,1.57.22,3.17,0.22,4.76A50.71,50.71,0,0,1,744.15,455.53Z" transform="translate(-647.88 -330.81)"/></g></g></g></g><g id="_编组_59" data-name="&lt;编组&gt;"><g id="_编组_60" data-name="&lt;编组&gt;"><g id="_编组_61" data-name="&lt;编组&gt;"><path class="cls-3" d="M725.21,467.84a59.7,59.7,0,1,1,59.7-59.7A59.77,59.77,0,0,1,725.21,467.84Zm0-118.42a58.72,58.72,0,1,0,58.72,58.72A58.78,58.78,0,0,0,725.21,349.42Z" transform="translate(-647.88 -330.81)"/></g></g></g><g id="_编组_62" data-name="&lt;编组&gt;" class="cls-6"><g id="_编组_63" data-name="&lt;编组&gt;"><g id="_编组_64" data-name="&lt;编组&gt;"><path class="cls-3" d="M725.41,454.49a46.52,46.52,0,0,1-11.09-1.34l0.47-1.92a44.34,44.34,0,1,0,10.62-87.38v-2A46.31,46.31,0,1,1,725.41,454.49Z" transform="translate(-647.88 -330.81)"/></g></g></g><g id="_编组_65" data-name="&lt;编组&gt;" class="cls-6"><g id="_编组_66" data-name="&lt;编组&gt;"><g id="_编组_67" data-name="&lt;编组&gt;"><path class="cls-3" d="M710.43,452l-0.05,0,0.34-1-0.35,1-1-.34,0.67-1.86,0.91,0.32h0l0,0.12Zm-2.82-1.06-0.07,0h0l-0.93-.4,0.8-1.81,0.89,0.38-0.38.91,0,0Zm-2.71-1.23,0.3-.9,0,0-0.4.82-0.9-.46,0.91-1.75,0.86,0.44h0l0.13,0.06-0.55.82Zm-2.62-1.4,0.3-.9-0.06.1-0.42.72-0.87-.51,1-1.69,0.83,0.49h0l0.07,0-0.55.82Zm-2.75-1.68h0l-0.83-.57,1.13-1.62,0.8,0.55-0.54.82,0.61-.77Zm-2.42-1.73,0.49-.73-0.54.69h0l-0.79-.62,1.24-1.54,0.76,0.6-0.6.8ZM694.75,443l0,0h0l-0.75-.67,1.33-1.46,0.72,0.65-0.65.74,0,0Zm-2.17-2-0.08-.08h0l-0.71-.72,1.43-1.37,0.68,0.69-0.7.7h0l0,0Zm-2.12-2.24,0.62-.62-0.66.57h0l-0.65-.75,1.51-1.27,0.63,0.73h0l0,0-0.77.64Zm-1.88-2.29,0.66-.66-0.08.05-0.67.52-0.61-.81,1.59-1.17,0.58,0.77h0l0,0.06-0.82.55Zm-1.82-2.51,0.66-.49-0.68.45,0.83-.56-0.83.56-0.55-.84,1.66-1.06,0.53,0.81Zm-1.6-2.55,0.76-.5-0.08,0-0.71.41-0.5-.88,1.73-1,0.48,0.84h0l0,0.06-0.89.44Zm-1.46-2.7h0l0.93-.47-0.93.46-0.44-.9,1.79-.84,0.42,0.87h0ZM682.48,426l0-.07h0c-0.13-.31-0.25-0.62-0.38-0.93l1.84-.72,0.36,0.89-0.85.36,0.87-.29-0.87.29Zm-1.09-2.87,0.67-.25-0.68.23,0.91-.31-0.91.31q-0.16-.48-0.32-1l1.88-.6c0.1,0.31.2,0.61,0.3,0.92Zm-0.87-2.86v-0.07h0q-0.13-.49-0.25-1l1.92-.47q0.12,0.47.24,0.94l-1,.26h0Zm-0.7-3,0.84-.21-0.85.16q-0.1-.49-0.19-1l1.94-.35q0.09,0.48.18,1Zm-0.5-3v0h0q-0.07-.5-0.12-1l2-.22q0.05,0.48.12,1l-1,.13,1-.12Zm-0.3-3,0.9-.11h-0.07l-0.84.06c0-.33,0-0.67-0.06-1l2-.09c0,0.32,0,.64.05,1h0v0.07h-1Zm-0.11-3.08h0Zm0,0v-0.09c0-.31,0-0.61,0-0.92l2,0q0,0.44,0,.88Zm2.06-2.84-0.9-.11H679v-0.07h0c0-.34,0-0.67.07-1l2,0.17q0,0.48-.07,1l-0.91-.05Zm0.28-2.95-2-.25,0.69,0.09-0.69-.09c0-.33.09-0.67,0.14-1l2,0.3Q681.3,401.91,681.24,402.39Zm0.45-2.81-1.93-.39v0q0.1-.5.21-1l1.93,0.42c-0.07.31-.13,0.63-0.2,0.95l-1-.19Zm0.64-2.8-0.94-.31-1-.13,0.93,0.12-0.1,0-0.8-.21q0.13-.49.27-1l1.9,0.55q-0.13.46-.26,0.93h0Zm0.84-2.81-1.87-.65h0q0.16-.48.33-1l1.86,0.67q-0.16.46-.32,0.92l-0.93-.31Zm1-2.68-0.88-.44-1-.25,0.91,0.23-0.08,0-0.79-.33,0.4-.93,1.81,0.79-0.38.89h0Zm1.23-2.72-1.77-.87h0l0.46-.9,1.75,0.91-0.44.86-0.89-.44Zm1.33-2.51-0.76-.5-1-.48,0-.06h0l0.51-.87,1.69,1-0.49.83-0.79-.45Zm1.56-2.51-0.82-.55-0.88-.45,0.81,0.41-0.75-.5,0.82,0.54-0.82-.54,0.57-.83,1.62,1.13-0.55.8h0Zm1.61-2.27-0.66-.66-0.86-.57,0-.06h0l0.62-.79,1.54,1.23-0.6.76-0.75-.57Zm1.8-2.22-0.6-.75-0.85-.57,0.09-.1h0l0.67-.75,1.46,1.33-0.65.72-0.72-.63Zm2-2.16-0.62-.77-0.81-.55,0.8,0.53,0,0-0.63-.63,0.72-.71,1.37,1.42-0.69.68h0Zm2.16-2-0.62-.77-0.75-.64,0.72,0.6-0.62-.71,0.76-.66,1.27,1.51-0.73.63h0ZM698.1,373l-1.17-1.59,0,0h0l0.8-.61,1.17,1.59-0.77.58-0.61-.79Zm2.4-1.73-0.56-.82-0.6-.77,0.54,0.68-0.48-.73,0.55,0.81-0.55-.82,0.84-.55,1.07,1.66Zm2.45-1.54-0.5-.85v0l-0.57-.85,0.06,0h0l0.87-.5,1,1.73Zm2.42-1.32-0.3-.9-0.57-.85,0.12-.06h0l0.91-.44,0.84,1.79-0.87.42-0.43-.85Zm2.68-1.22-0.31-.94-0.48-.86,0.46,0.81,0-.08-0.33-.78,0.93-.38L709,366.8l-0.89.36h0Zm2.74-1-0.59-1.88h0l1-.32,0.6,1.88-0.92.3-0.33-.95Zm2.82-.87L713,363.4l0.24,0.72-0.21-.73,0.28,0.94-0.26-.95,1-.25,0.47,1.92Zm2.82-.66-0.19-1h0v0l-0.28-1H716l1-.19,0.34,1.95Zm2.72-.47v-1l-0.3-.94,0.3,0.91v0l-0.12-.91,1-.12,0.22,2-1,.12h0Zm2.95-.3v-1l-0.3-.94,0.3,0.91v-0.11l-0.06-.84,1-.06,0.09,2-1,.06H722.1Zm3-.11v-2h0v2Z" transform="translate(-647.88 -330.81)"/></g></g></g><g id="_编组_68" data-name="&lt;编组&gt;" class="cls-7"><g id="_编组_69" data-name="&lt;编组&gt;"><g id="_编组_70" data-name="&lt;编组&gt;"><path class="cls-3" d="M725.21,443.22l-30.38-17.54V390.6l30.38-17.54L755.6,390.6v35.08Zm-29.45-18.08,29.45,17,29.45-17v-34l-29.45-17-29.45,17v34Z" transform="translate(-647.88 -330.81)"/></g></g></g><g id="_编组_71" data-name="&lt;编组&gt;" class="cls-7"><g id="_编组_72" data-name="&lt;编组&gt;"><g id="_编组_73" data-name="&lt;编组&gt;"><path class="cls-3" d="M734.29,442L734,442l-33.63-9-9.08-33.89,24.81-24.81,0.26,0.07,33.63,9,9.08,33.89Zm-33.13-9.84L734,441l24-24-8.8-32.85-32.85-8.8-24,24Z" transform="translate(-647.88 -330.81)"/></g></g></g></g><g id="_编组_74" data-name="&lt;编组&gt;" class="cls-2"><g id="_编组_75" data-name="&lt;编组&gt;"><g id="_编组_76" data-name="&lt;编组&gt;"><g id="_编组_77" data-name="&lt;编组&gt;"><circle class="cls-3" cx="77.33" cy="77.33" r="9.9"/></g></g></g><g id="_编组_78" data-name="&lt;编组&gt;"><g id="_编组_79" data-name="&lt;编组&gt;"><g id="_编组_80" data-name="&lt;编组&gt;"><path class="cls-3" d="M725.21,424.54a16.4,16.4,0,1,1,16.4-16.4A16.42,16.42,0,0,1,725.21,424.54Zm0-31.81a15.41,15.41,0,1,0,15.41,15.41A15.43,15.43,0,0,0,725.21,392.73Z" transform="translate(-647.88 -330.81)"/></g></g></g><g id="_编组_81" data-name="&lt;编组&gt;"><g id="_编组_82" data-name="&lt;编组&gt;"><g id="_编组_83" data-name="&lt;编组&gt;"><path class="cls-3" d="M725.21,481.65a73.51,73.51,0,1,1,73.51-73.51A73.6,73.6,0,0,1,725.21,481.65Zm0-146.53a73,73,0,1,0,73,73A73.1,73.1,0,0,0,725.21,335.12Z" transform="translate(-647.88 -330.81)"/></g></g></g><g id="_编组_84" data-name="&lt;编组&gt;"><g id="_编组_85" data-name="&lt;编组&gt;"><g id="_编组_86" data-name="&lt;编组&gt;"><path class="cls-3" d="M725.28,485.47H724.7l0-3.95h0.49l0.07,0v3.92Zm-1.52,0h0v0h-0.53l0.1-3.95h0.49v0l0.11,0.11h0Zm2.46,0-0.05-4h0.51v0h0l0.08,3.92h-0.58Zm1.51,0-0.12-3.95,0.55,0v0l0.15,3.92h-0.58Zm-5.49,0-0.58,0,0.18-3.94h0l0.48,0,0,0Zm7,0-0.2-3.95h0.55v0l0.23,3.91h0l-0.31,0h-0.23Zm-8.52,0h0l-0.5,0h0l0.26-3.94h0l0.48,0h0v0Zm10-.07-0.28-3.94h0.13l0.34,0h0l0.08,0,0.3,3.91Zm-11.55,0h0v0l-0.51,0h0l0.33-3.94h0l0.41,0,0.11,0Zm15.13-.08-0.06-.22-0.35,0-0.16,0-0.43-3.92,0.14,0,0.34,0h0l0.07,0,0.46,3.9h0v0.22Zm-2.07,0-0.36-3.94h0l0.47,0h0v0l0.38,3.9h0l-0.5,0h0Zm-14.58,0h0l-0.5-.05h0l0.41-3.93h0l0.47,0.05h0.05v0Zm-1.5-.17h0l-0.51-.06h0L716.1,481l0.55,0.08v0Zm19.1-.12-0.51-3.92,0.55-.07v0l0.53,3.88h0l-0.07,0v0Zm-20.61-.07h0l-0.44-.06H714.1l0.56-3.91,0.17,0,0.34,0h0v0h0Zm22.11-.15-0.59-3.9h0l0.47-.07h0v0l0.61,3.87h0l0,0v0l-0.28,0Zm-23.62-.07h0l-0.5-.09h0l0.64-3.9,0.19,0,0.32,0.05,0,0Zm25.11-.17-0.66-3.9h0l0.47-.08h0v0l0.68,3.86h0l-0.07,0h0l-0.47.08h0Zm-26.63-.09h0l-0.25,0-0.25,0h0l0.72-3.88,0.55,0.09v0Zm28.12-.18v0L739,480.22h0l0.47-.09h0v0l0.76,3.84Zm-29.6-.09h0l-0.5-.1h0l0.8-3.87h0l0.47,0.09h0v0Zm31.09-.21-0.82-3.86,0.49-.11v-0.28l0.9,4.13h0l0,0.06V483.7l-0.46.1h0Zm-32.58-.1h0l-0.21,0-0.32-.07h0l0.87-3.86h0l0.44,0.1h0.07v0Zm34.06-.23-0.89-3.84,0.2-.05,0.27-.06h0.06v0l0.91,3.81h0l-0.49.12h0Zm-35.63,0,0-.08-0.22-.05-0.24-.06h0v0l0.93-3.8h0l0.43,0.11,0.06-.24v0.29l-0.91,3.8h0Zm37.11-.32-1-3.83h0l0.47-.12,0,0v0.05l1,3.78h0l-0.49.12h0ZM705.75,483h0l-0.49-.13h0l1-3.82h0l0.47,0.12,0,0v0Zm40-.26-1-3.81h0l0.41-.12h0.09v0l1.06,3.77h0l-0.49.14h0Zm-41.42-.13H704.2l-0.07,0-0.37-.11h0l1.09-3.8h0l0.39,0.11,0.1,0h0l0.2,0.06h-0.2Zm42.88-.29L746,478.52h0l0.43-.13,0.07,0v0l1.14,3.75-0.07,0h0l-0.46.14h0Zm-44.33-.13h0v0l0,0L702.3,482h0l1.17-3.78h0l0.44,0.13v0l0,0.05h0l0.1,0.16-0.12-.1Zm45.79-.32-1.2-3.76h0l0.46-.14,0,0,1.21,3.73-0.19.07-0.33.11h0Zm-47.25-.14-0.16-.06-0.35-.12h0l1.24-3.75,0.15,0.05,0.31,0.1h0l0.06,0v0Zm48.69-.33-1.27-3.74h0l0.45-.16h0l0,0,1.29,3.71h0Zm-50.14-.15h0l-0.48-.16h0l1.31-3.73h0l0.45,0.16,0,0Zm52.1-.3-0.05-.22,0,0-0.39.14h0l-1.34-3.71h0l0.28-.1,0.22-.07v0L752,480.7h0v0.24Zm-53.53-.22-0.06,0-0.21-.07-0.25-.1h0l1.39-3.7h0l0.45,0.16,0,0v0Zm54.43-.36-1.42-3.69h0l0.42-.16h0.18l-0.1,0,1.42,3.63-0.07,0h0Zm-55.85-.18-0.06,0-0.22-.09-0.23-.09h0l1.47-3.67h0l0.45,0.18h0v0Zm57.27-.38-1.49-3.66h0l0.22-.09,0.19-.08h0l0.06,0h0.12l-0.1,0,1.49,3.59h0l-0.34.14Zm-58.69-.18,0,0-0.47-.2h0l1.54-3.63h0l0.44,0.18h0v0Zm60.08-.4-1.56-3.63h0l0.44-.19h0l0,0,1.55,3.54h0.12l-0.11,0h0l-0.36.16Zm-61.48-.2-0.05,0-0.47-.21,1.6-3.61,0.07,0,0.4,0.18,0,0v0Zm62.87-.41L755.48,475h0l0.43-.2h0l0,0,1.64,3.56Zm-64.3-.11v-0.09l-0.05,0,0-.08-0.43-.2,0,0,1.68-3.57,0.14,0.07,0.29,0.13h0l0.06,0v0l-1.64,3.56h0Zm65.68-.53-1.7-3.56,0.44-.22v-0.06l0,0h0v0.06l1.7,3.5h0l-0.05,0h0l-0.05,0-0.38.18h0Zm-67-.22,0,0-0.4-.2-0.07,0,1.75-3.54h0l0.4,0.2,0.05-.1v0.13h0v0Zm68.36-.44-1.77-3.53,0,0,0.26-.13,0.2-.1,0,0,1.77,3.49,0,0-0.45.23h0Zm-69.71-.24h0l-0.21-.1-0.26-.14h0l1.82-3.51,0,0,0.4,0.2h0l0.05,0h0l0.13,0.16-0.16-.11Zm71.06-.45-1.84-3.5,0,0,0.4-.21h0l0.06,0h0v0h0l1.85,3.45h0l-0.45.24Zm-72.41-.26,0,0-0.27-.14-0.2-.11,1.89-3.47,0.09,0,0.36,0.2h0l0,0Zm73.75-.47-1.91-3.46h0l0.3-.17,0.14-.08,0,0,1.92,3.42Zm-75.08-.27h0l-0.12-.07-0.32-.18,0,0,2-3.43,0.22,0.13,0.22,0.13,0.11,0.06h-0.1Zm76.4-.47,0,0-2-3.4h0l0.21-.12,0.18-.11h0l0.07,0v0l2,3.38,0,0.06,0,0Zm-77.72-.28h0l-0.24-.14-0.22-.13h0l2-3.4,0,0,0.41,0.24h0l0,0.05Zm79-.49-2-3.38h0l0.24-.14,0.21-.11h0l2,3.33h0l-0.11.07-0.35.21Zm-80.32-.3-0.05,0h0l0,0-0.37-.23h0l2.09-3.35,0,0,0.41,0.25,0,0v0Zm81.61-.5-2.11-3.34h0l0.37-.24,0,0h0.18l-0.06,0,2.09,3.27h0l-0.07,0h0Zm-82.91-.3,0,0-0.33-.22L683,473l2.16-3.31h0l0.4,0.26,0,0,0,0Zm84.18-.52-2.17-3.3,0,0,0.4-.26,0,0,2.19,3.28-0.2.14-0.25.16Zm-85.46-.31,0,0-0.45-.3,0,0,2.2-3.24,0.11,0.07,0.32,0.22,0.13,0.06h-0.13Zm86.72-.54-2.24-3.25,0,0,0.37-.26,0.05,0,0,0,2.24,3.21-0.05,0h0Zm-88.14-.21,0.11-.16-0.12-.09-0.27-.19,0,0,0,0,2.27-3.19,0,0,0.19,0.14,0.16,0.11h0l0,0v0.16l0,0L681,471.59h0ZM770.2,471l-2.3-3.21,0.09-.07,0.32-.24,0,0,0,0,2.3,3.17,0,0-0.41.3h0Zm-90.44-.33,0,0-0.26-.19-0.17-.13,2.35-3.18,0.45,0.32,0,0Zm91.67-.56L769.06,467l0,0,0.37-.28,0,0h0v0l2.36,3.12h0v0h0l-0.39.3Zm-92.89-.35,0,0h-0.05l0,0-0.37-.29,0,0,0,0,2.39-3.1,0.09,0.07,0.29,0.22,0-.09v0.27l0-.07Zm94.09-.56-2.43-3.12,0,0,0.37-.3,0.26-.2-0.19.22,2.41,3,0,0-0.39.31Zm-95.29-.37-0.06,0h0L677,468.6l-0.11-.09,2.47-3.09,0,0,0.37,0.3,0,0v0l-2.4,3v0h0Zm96.48-.58-2.49-3.07,0.2-.16,0.2-.16,0.05,0v0l2.48,3,0,0Zm-97.67-.37-0.45-.37,0,0,2.51-3,0.06,0,0.34,0.28,0.09,0.06h-0.09Zm98.84-.59-2.54-3,0.14-.13,0.24-.2,0.06-.06V464l2.54,3Zm-100-.38,0,0-0.38-.33,0,0,2.59-3,0,0,0.26,0.23,0.13,0.11v0Zm101.15-.6,0,0-2.58-2.94,0,0,0.33-.29,0,0h0.06L774,463V463l2.6,2.92h0l0,0-0.38.33Zm-102.29-.4h0l0,0-0.37-.33,0,0,2.65-2.93,0,0,0.33,0.3h0v0h0.06l0,0,0,0h-0.07Zm103.42-.61-2.66-2.92,0,0,0.35-.32,0,0,2.67,2.9,0,0-0.3.28Zm-104.55-.4,0,0h0l-0.33-.31,0,0,2.71-2.88,0,0,0.34,0.31,0,0-2.68,2.9h0Zm105.66-.63,0,0-2.69-2.85,0,0,0.34-.32h0V461l0.06,0.06,2.71,2.83h0l0,0-0.36.35Zm-106.76-.41h0l0,0-0.24-.23-0.14-.14,2.76-2.83,0,0,0.28,0.28,0.09,0.09,0,0Zm107.86-.64-2.78-2.81,0,0,0.34-.33,0,0,0,0,2.77,2.77-0.16.16-0.22.22Zm-108.92-.39-0.09-.07h0l-0.16-.16-0.18-.18,0,0,2.81-2.77,0,0,0.29,0.29,0.07,0.07,0,0-2.74,2.74v0.06Zm110-.68,0,0-2.81-2.74,0,0,0.31-.32L778,459h0.19l0,0,2.8,2.69,0,0-0.35.36Zm-111.08-.43-0.4-.42,2.86-2.72,0,0,0.19,0.2,0.12,0.12,0,0,0,0.08,0,0Zm112.12-.67-2.88-2.7,0,0,0.19-.2L779,458,779,458h0.1l0-.05V458l2.86,2.65,0,0-0.35.37Zm-113.17-.43v0h-0.07l0,0-0.32-.35,0,0,0,0,2.89-2.64,0.37,0.4,0,0Zm114.2-.68-2.93-2.64,0.39-.45v0.07l2.92,2.6,0,0-0.18.2Zm-115.22-.44,0,0h0l-0.33-.37,0,0,3-2.61,0,0,0.32,0.35h0.07l-0.07.06Zm116.22-.7-3-2.59,0.32-.36h0v0H781l3,2.52,0,0h0l-0.33.39Zm-117.22-.45v0h-0.07l0,0-0.07-.07-0.24-.29,0,0,3-2.55,0,0,0.29,0.34h0v0h0.07l-0.07.06Zm118.21-.71-3-2.53,0,0,0.3-.36v-0.05l0,0,0,0v0.07l3,2.48,0,0-0.32.39Zm-119.18-.45,0,0-0.28-.33-0.06-.07,3.07-2.49,0,0,0.2,0.25,0.12,0.15,0,0Zm120.14-.72L782.49,454l0,0,0.2-.25,0.12-.16,0,0,3.08,2.43,0,0-0.19.24ZM664.49,456h0l0,0-0.31-.39,0,0,3.12-2.43,0,0,0.3,0.37,0,0,0,0Zm122-.73-3.13-2.41,0,0,0.14-.19,0.14-.18,0,0h0l3.13,2.35v0h0l0,0-0.31.41Zm-123-.47,0,0-0.23-.3-0.09-.12,3.16-2.37,0.07,0.09,0.24,0.32,0,0,0,0Zm123.87-.75,0,0-3.15-2.33,0.32-.44h0l3.17,2.31,0,0-0.3.41Zm-124.78-.47,0,0-0.18-.26-0.12-.17,3.21-2.3,0.14,0.19,0.14,0.2,0,0.07h0Zm125.67-.76-3.22-2.29v0l0.28-.38,0,0h0l3.21,2.24h0l-0.07.16v-0.05l-0.09.12-0.15.22Zm-126.55-.48,0,0-0.18-.24-0.13-.2,3.25-2.24,0,0,0.19,0.28,0.06,0.09h0v0h0.09Zm127.41-.77-3.27-2.22,0,0,0.25-.37h0l0,0h0.16l0,0,3.22,2.16h0v0l-0.14.22-0.14.2Zm-128.27-.48h-0.11l0.07,0-0.26-.39,0,0,3.3-2.18,0,0,0.18,0.28,0.05,0.08,0-.08v0.14h0v0.12l0-.09ZM790,450.33l-3.31-2.15v0l0.24-.37h0v-0.07h0l0-.07v0.09l3.29,2.1,0,0-0.28.42Zm-129.94-.47,0,0-0.16-.25-0.11-.18,0,0,3.34-2.11,0,0,0.14,0.22,0.12,0.18,0,0,0,0Zm130.76-.81h0L787.5,447l0.34-.59v0.15l3.32,2,0,0-0.26.43Zm-131.59-.47v-0.06l-0.26-.41v0h0l3.35-2,0,0,0.16,0.26,0.09,0.13h0.09l-3.44,2.12h0Zm132.39-.83-3.4-2,0,0,0.16-.27,0.09-.13v-0.07l0,0,0-.07v0.09l3.36,2-0.06.09-0.22.38v0Zm-133.14-.48,0,0-0.17-.29-0.1-.18h0l3.39-2,0,0,0.18,0.32,0,0.08H662l-0.09.07Zm133.9-.83,0,0-3.4-1.94,0,0,0.24-.42,0.06-.16V444l3.39,1.91-0.11.2-0.15.28ZM657.74,446l0,0-0.16-.29-0.11-.18,3.46-1.91,0.12,0.23,0.11,0.19h0.11l-0.08,0h0v0.13l-0.05-.09Zm135.4-.85,0,0-3.44-1.87,0,0,0.22-.42v-0.13l0,0.07,0-.06v0.11l3.44,1.84,0,0.08h0l-0.22.41ZM657,444.64v0h0l0,0,0,0-0.11-.2-0.13-.24v0l3.5-1.85,0.09,0.18,0.14,0.26,0,0h0v0.08l0-.05Zm136.85-.87-3.5-1.82,0.05-.1,0.18-.35v0l0.05,0,3.48,1.79h0l-0.07.14h0l-0.18.34v0Zm-137.55-.47,0,0-0.22-.45v0l3.53-1.77v0l0.12,0.24,0.07,0.14,0-.06v0.15h0v0.12l0-.09-3.4,1.74h-0.06Zm138.24-.88h0L791,440.66l0.08-.16,0.15-.3,0,0h0l3.52,1.71v0h0l-0.22.45v0Zm-138.91-.47h0l0,0h0l0-.09-0.18-.36v0l3.57-1.7v0l0.18,0.37,0,0.09,0,0Zm139.58-.9-3.57-1.68v0l0.2-.44v0h0l3.55,1.64h0l0,0-0.21.45v0ZM655,440.58h0l0,0h0l-0.22-.48h0l3.56-1.62,0,0,0.2,0.43,0,0,0,0Zm140.86-.91-3.61-1.61v0l0.11-.25,0.07-.14h0l0-.08h0l3.58,1.57,0,0.06Zm-141.49-.46,0-.13-0.16-.37v0l3.63-1.56,0.07,0.16,0.13,0.28,0,0.05h0v0.26l-0.05-.24Zm142.1-.94-3.64-1.54v0l0.18-.41-0.1,0h0.15l3.62,1.5v0c0,0.09-.08.18-0.11,0.27l-0.09.2v0Zm-142.69-.45v0c-0.06-.16-0.12-0.31-0.19-0.47v0l3.66-1.48v0l0.09,0.22,0.09,0.21v0h0Zm143.27-1-3.67-1.47,0.09-.23,0.09-.22h0l-0.1,0,0.11,0,0,0,3.65,1.42h0v0l-0.1.24c0,0.08-.06.16-0.09,0.24v0ZM653.2,436.4l-0.05-.06h0l-0.18-.47h0l3.66-1.41v0c0.06,0.14.11,0.28,0.16,0.42l0,0.05,0,0Zm144.39-1L793.9,434v0c0-.09.07-0.18,0.11-0.28l0.06-.15h0l0.08-.18v0.14l3.65,1.34h0V435h0v0l-0.16.42v0ZM652.67,435v0l-0.18-.47v0l3.71-1.35v0l0.1,0.29,0.08,0.19,0,0Zm145.45-1-3.73-1.31v0l0.16-.45,0.07-.12v0.1l3.69,1.27-0.07.18c0,0.11-.08.23-0.12,0.34v0Zm-146-.45v0c-0.05-.14-0.1-0.27-0.14-0.41l0-.1h0l3.71-1.26v0l0.16,0.45v0Zm146.46-1-3.75-1.24,0.07-.23c0-.09.06-0.18,0.09-0.26v0h0l3.73,1.21v0h0l-0.16.48v0Zm-146.94-.45v0h0c-0.05-.16-0.11-0.31-0.15-0.48v0h0l3.73-1.19,0.17,0.52,0,0Zm147.41-1-3.77-1.17v0c0-.08,0-0.16.07-0.24l0.13-.43v0.19l3.73,1.13v0c0,0.12-.07.23-0.11,0.34Zm-147.87-.44v0c-0.05-.15-0.1-0.32-0.14-0.48v0h0l3.76-1.11v0c0,0.15.09,0.3,0.13,0.45h0.2Zm148.31-1-3.8-1.09,0.07-.25,0.07-.24v0h0l3.78,1.06,0,0-0.14.49v0Zm-148.74-.44v0l-0.12-.43,0-.08h0l3.78-1v0l0.12,0.42h0v0.07h0l-3.71,1h-0.07Zm149.14-1h0l-3.78-1,0-.17,0.08-.3h0v0h0v0h0l0.06-.22v0.18l0,0,0,0.1,3.77,1v0h0v0c0,0.09-.05.19-0.07,0.28Zm-149.54-.45,0,0h0c0-.16-0.09-0.32-0.12-0.47v0l3.83-1v0l0.12,0.45v0h0V427l-0.06-.22Zm149.91-1-3.83-.95v0c0-.14.07-0.3,0.1-0.45v-0.05h0l3.81,0.91v0.06c0,0.16-.08.32-0.11,0.47v0ZM650,426.32v0h0v0c0-.16-0.08-0.33-0.11-0.49v0l3.85-.89v0c0,0.08,0,.15.05,0.23l0.05,0.21h0v0.07h0v0.24l-0.05-.23-3.74.89Zm150.62-1.08-3.85-.87v0c0-.16.07-0.32,0.1-0.47l0,0,3.83,0.83v0c0,0.17-.08.34-0.11,0.5v0Zm-151-.45h-0.12l0.1-.05v0c0-.15-0.07-0.3-0.09-0.45v0h0l3.84-.81v0l0.1,0.47v0h0Zm151.29-1-3.87-.8v0l0.1-.47v0h0l3.84,0.76,0,0.18c0,0.12,0,.24-0.07.35v0Zm-151.6-.45v0c0-.17-0.07-0.34-0.1-0.5v0h0l3.84-.74v0c0,0.15.06,0.3,0.09,0.45v0.05h0v0.25l-0.06-.24Zm151.89-1h0l-3.85-.71v0c0-.16.06-0.31,0.09-0.47v0h0l3.86,0.69,0,0.11-0.08.42v0Zm-152.17-.45,0-.12c0-.14,0-0.28-0.07-0.41v0h0l3.86-.66v0c0,0.16.05,0.31,0.09,0.47v0h0Zm152.44-1-3.9-.64,0.08-.55h0l3.87,0.61Zm-152.69-.45v0l0-.22,0-.28v0l3.91-.59v0c0,0.11,0,.23.05,0.34l0,0.17Zm152.92-1.05-3.91-.56v0c0-.12,0-0.24,0-0.35l0.09-.42v0.27l3.86,0.53v0c0,0.17,0,.34-0.07.51v0Zm-153.14-.45h0v-0.07h0l-0.07-.5,3.92-.51v0.07c0,0.13,0,.27.05,0.4h0v0.08h0ZM802,417.76l-3.92-.49v0l0.06-.47v0h0L802,417.2v0.06q0,0.24-.06.47v0Zm-153.54-.45v0l-0.06-.5v0l3.93-.43,0.06,0.55h0Zm153.71-1.06-3.93-.41v0c0-.16,0-0.32,0-0.47v0h0l3.9,0.41Zm-153.87-.45v0c0-.16,0-0.34,0-0.5v0l3.94-.36v0c0,0.15,0,.3,0,0.45v0.06h0v0.24l-0.05-.23Zm154-1.06-3.94-.33v0l0-.25,0-.23,0,0,3.91,0.3v0l0,0.45v0.09Zm-154.14-.45v0h0v-0.06c0-.14,0-0.29,0-0.44v0l3.94-.28v0c0,0.16,0,.32,0,0.48l0,0Zm154.26-1.06-3.94-.26v0c0-.14,0-0.3,0-0.45h0l0-.07,3.91,0.26c0,0.09,0,.16,0,0.24l0,0.26v0ZM648,412.77v-0.27l0-.28v0l3.95-.2v0c0,0.07,0,.15,0,0.23s0,0.16,0,.24v0Zm154.45-1.06-3.95-.18v0l0-.48,0,0,3.91,0.19Zm-154.52-.45V411.2c0-.16,0-0.32,0-0.49v0l4-.13v0c0,0.11,0,.23,0,0.35v0.16h0Zm154.54-1.06-3.92-.1v0c0-.16,0-0.32,0-0.48h0v0l3.92,0.11c0,0.18,0,.35,0,0.51v0h0Zm-154.59-.45v0c0-.17,0-0.34,0-0.51v0h0l3.92-.05v0c0,0.16,0,.32,0,0.48v0h0Zm154.65-1.06h0l-3.92,0v-0.51l0-.14h3.92v0.68Zm-154.66-.45v-0.55l0,0,3.92,0.05v0.44l0,0.08h-3.92Zm150.71-1.11v0c0-.16,0-0.32,0-0.48v0h0l3.92-.08v0.19c0,0.12,0,.24,0,0.35v0Zm-146.78-.34-3.92-.11c0-.18,0-0.34,0-0.51v0l3.95,0.1v0c0,0.08,0,.16,0,0.24s0,0.16,0,.24Zm146.75-1.1v0c0-.1,0-0.2,0-0.31v-0.2h0l3.92-.15V405l0,0.48v0Zm-146.68-.34-3.94-.18,0-.55,3.95,0.18v0l0,0.48v0Zm146.62-1.1v0c0-.16,0-0.32,0-0.48v0h0l3.9-.23v0.07h0c0,0.16,0,.32,0,0.48v0Zm-146.58-.35-3.92-.22v-0.12c0-.14,0-0.28,0-0.42v0l3.94,0.25v0c0,0.16,0,.32,0,0.48Zm146.49-1.09v0l0-.24c0-.07,0-0.15,0-0.21v-0.07h0l3.9-.31,0,0.57ZM652,402.46l-3.92-.3v-0.07h0l0-.47v0l3.94,0.33v0c0,0.13,0,.25,0,0.37Zm146.27-1.1v0l0-.4v-0.11h0l3.9-.39,0,0.28c0,0.09,0,.18,0,0.27v0ZM652.13,401l-3.9-.41v-0.07l0-.43v0l3.93,0.41v0l0,0.24c0,0.08,0,.16,0,0.24Zm146-1.09v0c0-.15,0-0.3,0-0.45v-0.06h0v-0.24l0.06,0.22,3.86-.45,0,0h0v0c0,0.16,0,.31.05,0.47v0Zm-145.82-.34-3.92-.5c0-.09,0-0.16,0-0.24s0-.18,0-0.26v0l3.92,0.49v0c0,0.08,0,.16,0,0.24l0,0.2h0v0.08ZM798,398.5v0c0-.11,0-0.22,0-0.33V398h0l0-.08,3.88-.54v0c0,0.16,0,.33.07,0.5v0Zm-145.47-.33h0l-3.88-.53,0.08-.57,3.91,0.57v0.1c0,0.13,0,.27-0.05.41v0Zm145.27-1.09v0c0-.16,0-0.32-0.07-0.47v0h0l3.87-.61h0l0,0.06h0l0.06,0.41v0.09Zm-145.06-.33h0l-3.87-.6,0.09-.57,3.9,0.64Zm144.83-1.08-0.09-.54h0v-0.24l0.06,0.22,3.82-.68,0,0.16c0,0.12,0,.25.07,0.37v0h0Zm-144.62-.35-3.86-.68v-0.07h0l0-.18c0-.1,0-0.19.05-0.29v0h0l3.85,0.71v0c0,0.13,0,.25-0.07.37l0,0.13h0Zm144.37-1.07v0c0-.15-0.06-0.31-0.09-0.46v0h0l3.84-.76h0l0,0.07h0c0,0.13,0,.25.07,0.38l0,0.12h0Zm-144.07-.34h0l-3.84-.76v0c0-.15.06-0.3,0.09-0.43l0-.11,3.87,0.79,0,0.12-0.08.39v0h0ZM797,392.82v0l-0.06-.26,0-.18h0v-0.07h0V392l0.06,0.22,3.79-.83v0c0,0.14.07,0.28,0.09,0.42l0,0.1Zm-143.49-.33h0l-3.83-.83,0.13-.57,3.86,0.87Zm143.18-1.08,0-.07-0.1-.43v0h0l3.75-.9h0.06l0,0.06h0c0,0.15.08,0.31,0.11,0.47v0Zm-142.86-.33h0l-3.81-.91,0-.11,0.1-.43v0l3.83,0.95,0,0.1-0.1.4v0ZM796.34,390v0l-0.06-.24-0.06-.23v0h0l3.79-1,0,0.07h0c0,0.12.06,0.25,0.09,0.38l0,0.11Zm-142.23-.08v-0.27l-3.77-1v0c0-.16.09-0.33,0.13-0.49v0h0l3.79,1ZM796,388.63l0-.16c0-.1-0.05-0.2-0.09-0.3h-0.09l0.06,0h0l0.05,0,3.77-1.06,0,0.07h0c0,0.16.09,0.31,0.12,0.46v0h0Zm-141.44-.33h0l-3.77-1.06,0-.09c0-.14.08-0.29,0.12-0.43v0l3.8,1.09v0l-0.12.41Zm141-1.05v0c0-.15-0.09-0.3-0.13-0.44v-0.05h0v-0.24l0.06,0.22,3.71-1.12,0,0,0.15,0.51ZM655,386.92h0l-3.75-1.14h0v0l0.06-.2c0-.09.06-0.18,0.09-0.26v0l3.77,1.17v0l-0.14.47v0Zm140.2-1.05-0.07-.2-0.09-.28v0h0V385.1l0.06,0.22,3.69-1.2v0l0.16,0.48v0h0Zm-139.77-.33h0l-3.73-1.21v-0.06l0.16-.46v0l3.75,1.24v0l-0.09.28Zm139.32-1-0.18-.52h0l3.7-1.29v0l0.17,0.48v0h0Zm-138.87-.34h0l-3.71-1.27h0v0l0.17-.48v0l3.72,1.31-0.07.22-0.1.27v0Zm138.39-1-0.17-.47H793.9l3.84-1.42v0c0,0.11.08,0.2,0.11,0.31l0.07,0.2Zm-137.91-.35h0l-3.67-1.36,0.05-.16,0.13-.35v0l3.7,1.39v0l-0.17.45v0Zm137.41-1v0c-0.05-.14-0.11-0.28-0.16-0.42h0v-0.07h0V381l0.05,0.24,3.61-1.42,0,0,0.18,0.47v0h0Zm-137-.16,0.07-.2L653.15,380v0l0.19-.48v0h0l3.63,1.45v0l-0.16.4h0Zm136.49-1.18,0-.09c0-.13-0.11-0.26-0.16-0.39v0h0l3.61-1.5,0,0.06h0l0.12,0.31,0.07,0.16Zm-135.84-.35h0l-3.61-1.49h0l0,0a2.23,2.23,0,0,0,.09-0.22l0.1-.22v0l3.64,1.54v0l-0.09.2-0.1.24Zm135.28-1v0l-0.2-.44-0.09-.18,0.12,0.12,3.58-1.58v0.08h0l0.2,0.46Zm-134.75-.26v-0.11l-3.57-1.56,0,0,0.08-.18c0-.09.09-0.19,0.13-0.28v0h0l3.57,1.6v0c0,0.09-.07.18-0.11,0.27l-0.06.13h0Zm134.17-1.05v0l-0.17-.36,0-.1,0,0,3.55-1.65,0.08,0.18,0.14,0.32v0Zm-133.57-.26v-0.12l-3.54-1.63,0-.1,0.19-.4v0l3.57,1.68v0l-0.2.43Zm133-1v0l-0.2-.42V376h0l3.52-1.71,0,0.06h0l0.2,0.42v0Zm-132.3-.37h0l-3.53-1.71h0l0,0,0.16-.34,0.07-.14,3.55,1.75,0,0-0.2.42Zm131.67-.92,0,0-0.21-.41h-0.11l3.61-1.85,0,0,0.22,0.45,0,0Zm-131-.28-0.05-.1-3.5-1.79,0,0,0.24-.45v0l3.51,1.82v0c-0.08.14-.14,0.28-0.22,0.42v0.13Zm130.35-1,0,0c-0.07-.14-0.14-0.28-0.22-0.42v0l0,0,3.45-1.85,0,0,0.24,0.44v0Zm-129.73-.39L657,371.72l0,0,0.24-.45v0l3.47,1.89v0l-0.19.35,0,0.05h0l0,0,0,0v0Zm129-.88,0,0c-0.07-.13-0.14-0.26-0.21-0.39l0,0v-0.09h0v-0.13l0,0.09,3.38-1.91h0l0,0,0.11,0.2,0.13,0.24,0,0Zm-128.31-.36-0.05,0-3.42-1.92,0,0,0.25-.44,0,0,0,0,3.4,1.94-0.08.14-0.17.31v0Zm127.6-.89,0,0c-0.07-.14-0.15-0.26-0.23-0.4l0,0,0,0,3.38-2,0,0,0.26,0.44v0h0Zm-126.91-.37,0,0-3.38-2h0l-0.08,0h0.07l0-.05,0.07,0c0.08-.14.16-0.28,0.24-0.41v0l3.4,2,0,0-0.24.41ZM788,370.2l-0.07-.11-0.17-.29h0l0-.09h0l3.34-2.05h0l0,0h0l0.26,0.42,0,0,0,0Zm-125.42-.38h0l-3.34-2.05v0l0.27-.44,0,0,0,0,3.33,2.07v0l-0.24.39h0ZM787.29,369l0,0-0.26-.4,0,0,0,0h0l3.29-2.12,0,0.07,0.25,0.39,0,0,0,0Zm-123.95-.29v-0.12l-3.28-2.1h0l0,0,0.27-.41v0l3.31,2.16Zm123.17-.92,0,0-0.26-.4,0,0,0,0,3.26-2.17,0,0,0.21,0.32,0.09,0.13,0,0Zm-122.37-.32v-0.09l-3.25-2.17,0,0,0.28-.41v0l3.27,2.22,0,0-0.27.4Zm121.56-.87v0l-0.22-.32,0,0h0l0-.06h0l0,0,3.21-2.25,0,0,0.22,0.31,0.1,0.14ZM665,366.22l-0.08,0v0l-3.19-2.22,0,0,0.3-.41,0,0,3.22,2.29,0,0-0.18.26Zm119.87-.81,0,0-0.21-.3-0.08-.14h0l3.16-2.31h0l0,0h0c0.1,0.13.19,0.26,0.28,0.39l0,0ZM665.81,365h0l-3.16-2.31,0,0c0.05-.09.11-0.16,0.17-0.24l0.14-.18,3.18,2.35,0,0-0.28.39ZM784,364.24l0,0c-0.09-.13-0.19-0.26-0.29-0.38l0,0,0,0,3.12-2.37h0l0,0v0.07l0.13,0.17,0.17,0.22,0,0Zm-117.31-.35-0.05,0-3.11-2.37,0,0,0.3-.39,0,0,3.13,2.41,0,0-0.29.37v0.06Zm116.44-.8,0,0-0.28-.35,0,0v-0.08h0v-0.07l0,0,3-2.41,0.1,0.13,0.24,0.3,0,0Zm-115.58-.38h0l-3.08-2.43,0,0,0.17-.21,0.16-.21,3.08,2.47,0,0-0.3.37ZM782.25,362l-0.12-.15-0.2-.24,0,0,0,0,3-2.48,0.11,0.13,0.24,0.29,0,0Zm-113.76-.34-0.05,0-3-2.49,0,0,0.26-.31,0.09-.11,3,2.53-0.32.39v0.05Zm112.84-.77-0.07-.08-0.26-.3h-0.07l0.07-.06,3-2.54,0,0,0.14,0.17,0.18,0.22,0,0ZM669.4,360.5l0,0-3-2.54,0,0,0.23-.27,0.12-.15,0,0,3,2.56,0,0-0.32.36Zm111-.73,0,0-0.2-.23-0.11-.12H780l3-2.66,0.06,0,0,0,0.28,0.32,0.07,0.07Zm-110.06-.35,0,0-2.92-2.6,0,0,0.18-.19,0.16-.18,0,0,0,0,2.91,2.62,0,0-0.2.22Zm109.1-.72,0,0-0.32-.35,0,0,2.89-2.68h0l0,0h0l0.35,0.39Zm-108.13-.35h0l-2.87-2.66v-0.09l0,0,0.32-.34,0,0,2.88,2.7,0,0-0.33.35Zm107.14-.7-0.14-.15-0.2-.2H778l0.06-.06,2.83-2.71,0,0,0.35,0.37,0,0Zm-106.16-.34,0,0-2.83-2.71,0,0,0.23-.24,0.15-.16,2.83,2.76,0,0-0.34.34Zm105.16-.69-0.12-.13-0.23-.23h0v0h0l0,0,2.77-2.77,0,0,0.26,0.26,0.13,0.13Zm-104.12-.31,0,0h0l0,0-2.77-2.77,0,0,0.35-.35,0,0,2.77,2.82,0,0-0.2.2-0.13.12v0.07Zm103.1-.71,0,0-0.2-.19-0.17-.16v0l2.72-2.83,0,0,0.36,0.35,0,0Zm-102.1-.33,0,0-2.71-2.82,0,0L672,352l0,0,2.72,2.87Zm101.06-.66-0.35-.33,0,0v-0.08l0,0,2.65-2.87,0.12,0.11,0.28,0.26,0,0Zm-100-.34h-0.11l0.06,0-2.63-2.85,0,0v-0.06l0,0,0.35-.32,0,0,0,0,2.63,2.9,0,0-0.34.31,0,0h-0.08Zm99-.64-0.41-.37v0l2.6-2.93,0,0,0.2,0.18,0.17,0.15,0,0Zm-97.88-.33h-0.07l0,0-2.58-2.9h0l0,0,0.26-.23,0.14-.12,0,0,2.58,3,0,0-0.34.3,0,0h-0.08Zm96.8-.62,0,0-0.36-.32,0,0,0,0,2.54-3,0,0,0.32,0.28,0.09,0.08Zm-95.7-.33,0,0h0l-2.54-3,0,0,0.37-.32,0,0,2.55,3,0,0-0.37.32h0Zm94.6-.6,0,0-0.37-.31,0,0v0l2.48-3,0.45,0.37,0,0Zm-93.51-.3,0,0-2.49-3,0.14-.12,0.28-.23,0,0,2.49,3.08,0,0-0.22.18Zm92.4-.61-0.43-.34v0l2.43-3.08,0,0h0.06l0,0,0.3,0.24,0.1,0.08Zm-91.28-.3,0,0-2.42-3.07,0,0,0.29-.22,0.14-.11,2.42,3.11Zm90.15-.59-0.07-.05-0.34-.26,0,0,0,0,2.36-3.12,0,0,0.34,0.26,0.09,0.07,0,0Zm-89-.29,0,0-2.36-3.12,0,0h0l0.31-.23,0.1-.08,2.37,3.17,0,0-0.36.27v0h-0.06Zm87.85-.58-0.06,0-0.35-.26,0,0,2.33-3.19,0,0h0.07l0,0,0.38,0.28,0,0Zm-86.7-.29h0l-2.31-3.17h0v-0.12l0,0.09,0.37-.27,0,0,2.31,3.21,0,0-0.35.26h0Zm85.53-.56,0,0-0.24-.16-0.14-.1,0,0v-0.16l0,0,2.22-3.19h0l0-.06v0.1l0.18,0.13,0.21,0.15h0l0,0ZM683.19,348v0l-2.24-3.2,0,0,0.41-.29,0,0,2.24,3.25-0.11.09-0.31.21Zm83.2-.57,0,0-0.4-.27,0,0v0l2.18-3.26,0,0L768.5,344l0.11,0.08v0Zm-82-.19-2.24-3.35h0v0h0l0,0,0.37-.24,0.08-.06,2.18,3.3-0.16.11-0.26.18v0.09Zm80.75-.61h0l-0.37-.24,0,0.09v-0.12l-0.12-.05h0.13l2.1-3.29,0,0,0.46,0.29Zm-79.59-.24,0,0L683.47,343h0l0,0,0.43-.27,0,0,2.12,3.34h0l-0.4.26Zm78.37-.53,0,0-0.41-.25,0,0h0l-0.06,0h0.08l2-3.32h0l0-.08v0.11l0.41,0.26h0Zm-77.15-.24,0,0-2-3.35h0l0.3-.18,0.16-.1,0,0,2,3.35-0.12.08-0.32.19Zm75.92-.52h0l-0.41-.24,0,0v0l2-3.38,0,0,0.43,0.25,0,0Zm-74.68-.23,0,0-2-3.38h0l0.43-.26h0l2,3.42-0.17.1-0.27.16h0Zm73.44-.5h0l-0.22-.12-0.22-.14v0l1.92-3.42h0v0l0,0,0.44,0.25h0Zm-72.2-.2,0,0-1.92-3.42h0v-0.12l0,0.1,0.06,0,0.35-.2,0,0,0,0,1.89,3.42,0,0-0.34.18Zm70.94-.5h0l-0.32-.17-0.14-.08,1.86-3.48,0,0,0.45,0.24h0l0,0Zm-69.69-.2L688.71,340h-0.11l0.09,0h0l0,0,0.24-.12,0.23-.13,1.85,3.5h0l-0.42.22ZM759,343l-0.62-.3h0.16l1.77-3.48,0.07,0h0l0.07,0,0.35,0.18h0Zm-67.14-.19v0L690,339.26l0.19-.1,0.29-.14,0,0,1.77,3.54h0l-0.43.22h0Zm65.85-.46h0l-0.43-.21,0,0,1.73-3.56,0,0,0.44,0.22h0Zm-64.58-.15v-0.07l-1.69-3.47h-0.12l0.09,0h0l0.18-.09,0.31-.15h0l1.71,3.56Zm63.28-.47h0l-0.43-.2,0,0,1.65-3.59h0l0.45,0.21,0,0v0Zm-62-.17h-0.13l0.1-.05-1.64-3.53h0v-0.11l0,0.09,0.43-.2h0l1.64,3.59-0.44.2h-0.05Zm60.64-.43h0l-0.44-.19,0,0,1.58-3.62h0l0-.11v0.14l0.45,0.2h0Zm-59.34-.16,0,0-1.58-3.59h0l0.33-.14,0.16-.07,1.56,3.63-0.09,0-0.35.15h0Zm58-.41h0l-0.44-.18h0v0l1.5-3.63,0.13,0.06,0.37,0.16h0ZM697,340.35l0,0-1.5-3.61,0.06,0h0l0.44-.18h0l1.49,3.66h0l-0.42.17Zm55.35-.4-0.16-.07-0.32-.12,0,0v0l1.43-3.65,0,0,0.46,0.18h0Zm-54-.14v0l-1.43-3.65,0.54-.21,1.42,3.69h0l-0.43.16Zm52.67-.38h0l-0.45-.17,0,0v0l1.35-3.67,0.06,0,0.45,0.17h0Zm-51.33-.13H699.6l0.1-.05-1.35-3.64,0,0,0.26-.09,0.22-.08h0l1.35,3.71h0l-0.22.08-0.2.08h-0.06Zm50-.37h0l-0.45-.16,0,0v0l1.28-3.69h0.06L751,335.2h0Zm-48.6-.13,0,0-1.29-3.7h0l0.48-.16h0l1.27,3.74h0l-0.45.15h0Zm1.4-.22-0.07-.26-1.22-3.72,0,0,0.51-.16,1.2,3.76h0l-0.44.14v0.25Zm45.83-.12-0.49-.16v0h0l1.2-3.73h0l0.18,0.06,0.3,0.09h0Zm-44.45-.37-0.06-.18-0.2.07,0.18-.12-1.14-3.73,0.09,0h0l0.44-.13h0l1.12,3.78-0.22.07-0.25.07v0.2Zm43.07-.07h0l-0.24-.07-0.2-.06h-0.05l-0.22-.11,0.23,0.05,1.12-3.73,0,0,0.49,0.15h0Zm-1.39-.41h0l-0.32-.09-0.37-.11H745l1-3.75,0.07,0,0.47,0.13h0Zm-40.36-.1,0,0-1.06-3.77h0l0.49-.13h0l1.05,3.81h0l-0.37.11Zm39-.29h0l-0.18,0-0.28-.08h0l1-3.82h0l0.5,0.13h0Zm-37.57-.09,0,0-1-3.78h0l0.49-.13h0l1,3.83h0l-0.47.12h0Zm36.17-.26h0l-0.47-.11h0v0l0.91-3.81h0l0.47,0.12h0.05v0ZM708,336.81l0-.05-0.91-3.81h0v-0.25l0.06,0.24,0.46-.11h0l0.9,3.84h0l-0.45.11Zm33.39-.27h0l-0.47-.11,0,0,0.86-3.82h0l0.49,0.11h0Zm-32-.09,0,0-0.83-3.82h0l0.18,0,0.35-.07h0l0.83,3.86h0l-0.47.11h0Zm30.56-.22-0.24-.05-0.26-.05,0,0,0.76-3.85,0.26,0.05,0.27,0.05h0Zm-29.15-.08,0,0L710,332.3h0l0.5-.09h0l0.74,3.88h0l-0.18,0-0.25,0h-0.05Zm27.74-.2-0.55-.09v0L738.7,332l0.57,0.11Zm-26.32-.07h-0.16l0.13-.05L711.52,332h0l0.34-.06,0.2,0,0.66,3.89h0l-0.33.06Zm24.9-.18h0l-0.47-.08h0v0l0.6-3.87h0.05l0.27,0,0.25,0Zm-22,0-0.05-.24h0v0l-0.54-3.88h0l0.43-.06,0.1,0,0.52,3.92h0l-0.37.05h-0.09v0.24Zm-1.49,0v0L713,331.77h0l0.24,0,0.26,0h0l0.58,3.9h0l-0.28,0Zm22.08-.16h0l-0.47-.07h0v0l0.53-3.89h0l0.45,0.06h0.09Zm-1.43-.19h0l-0.36,0h-0.16v0l0.49-3.88h0.09l0.42,0.05h0Zm-17.79,0h-0.12l0.11-.05L716,331.34h0l0.51-.05h0L717,335.2h0l-0.45.05h-0.05Zm16.36-.12h0l-0.48,0h0l-0.28-.07h0.26l0.37-3.88h0l0.51,0.05h0Zm-14.93,0-0.39-3.92h0l0.51,0h0l0.35,3.93-0.19,0-0.28,0h-0.07Zm13.49-.1h0l-0.47,0h0v0l0.34-3.9,0.35,0h0.19Zm-12,0,0,0L719,331h0l0.41,0h0.14l0.28,3.94h0l-0.48,0h0Zm10.59-.08h0l-0.37,0-0.15,0,0.26-3.91,0.42,0h0.12Zm-9.25,0,0.05-.06-0.23-3.9h0l0.34,0h0.2l0.21,3.94h-0.51Zm7.81-.07h0l-0.47,0,0,0,0.18-3.92,0.54,0Zm-6.28,0,0,0-0.16-3.92h0l0.51,0h0l0.13,3.95h0l-0.48,0h0Zm4.83,0h-0.55v0l0.11-3.92h0.55Zm-3.42,0,0,0-0.08-3.92h0.58l0.06,3.95h-0.54Zm2,0h-0.45l-0.11,0v-3.92h0.58Z" transform="translate(-647.88 -330.81)"/></g></g></g><g id="_编组_87" data-name="&lt;编组&gt;" class="cls-4"><g id="_编组_88" data-name="&lt;编组&gt;"><g id="_编组_89" data-name="&lt;编组&gt;"><g id="_编组_90" data-name="&lt;编组&gt;"><path class="cls-3" d="M725.21,474.36a65.52,65.52,0,0,1-30.07-7.2l3.14-6.16a58.66,58.66,0,0,0,26.92,6.45,59.38,59.38,0,0,0,59.31-59.31V408h6.91v0.12A66.3,66.3,0,0,1,725.21,474.36Zm-58.65-75.08-6.84-1a65.85,65.85,0,0,1,4.66-16.33l6.35,2.74A58.93,58.93,0,0,0,666.56,399.28Zm88.25-42.55a59.31,59.31,0,0,0-7-3.46l2.63-6.39a66.33,66.33,0,0,1,7.85,3.86Z" transform="translate(-647.88 -330.81)"/></g></g></g></g><g id="_编组_91" data-name="&lt;编组&gt;"><g id="_编组_92" data-name="&lt;编组&gt;" class="cls-5"><g id="_编组_93" data-name="&lt;编组&gt;"><g id="_编组_94" data-name="&lt;编组&gt;"><path class="cls-3" d="M767.93,519.4L742.87,455l0.46-.18a49.73,49.73,0,0,0,31.9-46.65A51,51,0,0,0,775,403l0-.49,68.78-7,0,0.49a120.53,120.53,0,0,1,.61,12.15,119.18,119.18,0,0,1-76,111.07Zm-23.78-63.87,24.34,62.59a118.19,118.19,0,0,0,74.88-110c0-3.85-.19-7.73-0.56-11.56L776,403.38c0.14,1.57.22,3.17,0.22,4.76A50.71,50.71,0,0,1,744.15,455.53Z" transform="translate(-647.88 -330.81)"/></g></g></g></g><g id="_编组_95" data-name="&lt;编组&gt;"><g id="_编组_96" data-name="&lt;编组&gt;"><g id="_编组_97" data-name="&lt;编组&gt;"><path class="cls-3" d="M725.21,467.84a59.7,59.7,0,1,1,59.7-59.7A59.77,59.77,0,0,1,725.21,467.84Zm0-118.42a58.72,58.72,0,1,0,58.72,58.72A58.78,58.78,0,0,0,725.21,349.42Z" transform="translate(-647.88 -330.81)"/></g></g></g><g id="_编组_98" data-name="&lt;编组&gt;" class="cls-6"><g id="_编组_99" data-name="&lt;编组&gt;"><g id="_编组_100" data-name="&lt;编组&gt;"><path class="cls-3" d="M725.41,454.49a46.52,46.52,0,0,1-11.09-1.34l0.47-1.92a44.34,44.34,0,1,0,10.62-87.38v-2A46.31,46.31,0,1,1,725.41,454.49Z" transform="translate(-647.88 -330.81)"/></g></g></g><g id="_编组_101" data-name="&lt;编组&gt;" class="cls-6"><g id="_编组_102" data-name="&lt;编组&gt;"><g id="_编组_103" data-name="&lt;编组&gt;"><path class="cls-3" d="M710.43,452l-0.05,0,0.34-1-0.35,1-1-.34,0.67-1.86,0.91,0.32h0l0,0.12Zm-2.82-1.06-0.07,0h0l-0.93-.4,0.8-1.81,0.89,0.38-0.38.91,0,0Zm-2.71-1.23,0.3-.9,0,0-0.4.82-0.9-.46,0.91-1.75,0.86,0.44h0l0.13,0.06-0.55.82Zm-2.62-1.4,0.3-.9-0.06.1-0.42.72-0.87-.51,1-1.69,0.83,0.49h0l0.07,0-0.55.82Zm-2.75-1.68h0l-0.83-.57,1.13-1.62,0.8,0.55-0.54.82,0.61-.77Zm-2.42-1.73,0.49-.73-0.54.69h0l-0.79-.62,1.24-1.54,0.76,0.6-0.6.8ZM694.75,443l0,0h0l-0.75-.67,1.33-1.46,0.72,0.65-0.65.74,0,0Zm-2.17-2-0.08-.08h0l-0.71-.72,1.43-1.37,0.68,0.69-0.7.7h0l0,0Zm-2.12-2.24,0.62-.62-0.66.57h0l-0.65-.75,1.51-1.27,0.63,0.73h0l0,0-0.77.64Zm-1.88-2.29,0.66-.66-0.08.05-0.67.52-0.61-.81,1.59-1.17,0.58,0.77h0l0,0.06-0.82.55Zm-1.82-2.51,0.66-.49-0.68.45,0.83-.56-0.83.56-0.55-.84,1.66-1.06,0.53,0.81Zm-1.6-2.55,0.76-.5-0.08,0-0.71.41-0.5-.88,1.73-1,0.48,0.84h0l0,0.06-0.89.44Zm-1.46-2.7h0l0.93-.47-0.93.46-0.44-.9,1.79-.84,0.42,0.87h0ZM682.48,426l0-.07h0c-0.13-.31-0.25-0.62-0.38-0.93l1.84-.72,0.36,0.89-0.85.36,0.87-.29-0.87.29Zm-1.09-2.87,0.67-.25-0.68.23,0.91-.31-0.91.31q-0.16-.48-0.32-1l1.88-.6c0.1,0.31.2,0.61,0.3,0.92Zm-0.87-2.86v-0.07h0q-0.13-.49-0.25-1l1.92-.47q0.12,0.47.24,0.94l-1,.26h0Zm-0.7-3,0.84-.21-0.85.16q-0.1-.49-0.19-1l1.94-.35q0.09,0.48.18,1Zm-0.5-3v0h0q-0.07-.5-0.12-1l2-.22q0.05,0.48.12,1l-1,.13,1-.12Zm-0.3-3,0.9-.11h-0.07l-0.84.06c0-.33,0-0.67-0.06-1l2-.09c0,0.32,0,.64.05,1h0v0.07h-1Zm-0.11-3.08h0Zm0,0v-0.09c0-.31,0-0.61,0-0.92l2,0q0,0.44,0,.88Zm2.06-2.84-0.9-.11H679v-0.07h0c0-.34,0-0.67.07-1l2,0.17q0,0.48-.07,1l-0.91-.05Zm0.28-2.95-2-.25,0.69,0.09-0.69-.09c0-.33.09-0.67,0.14-1l2,0.3Q681.3,401.91,681.24,402.39Zm0.45-2.81-1.93-.39v0q0.1-.5.21-1l1.93,0.42c-0.07.31-.13,0.63-0.2,0.95l-1-.19Zm0.64-2.8-0.94-.31-1-.13,0.93,0.12-0.1,0-0.8-.21q0.13-.49.27-1l1.9,0.55q-0.13.46-.26,0.93h0Zm0.84-2.81-1.87-.65h0q0.16-.48.33-1l1.86,0.67q-0.16.46-.32,0.92l-0.93-.31Zm1-2.68-0.88-.44-1-.25,0.91,0.23-0.08,0-0.79-.33,0.4-.93,1.81,0.79-0.38.89h0Zm1.23-2.72-1.77-.87h0l0.46-.9,1.75,0.91-0.44.86-0.89-.44Zm1.33-2.51-0.76-.5-1-.48,0-.06h0l0.51-.87,1.69,1-0.49.83-0.79-.45Zm1.56-2.51-0.82-.55-0.88-.45,0.81,0.41-0.75-.5,0.82,0.54-0.82-.54,0.57-.83,1.62,1.13-0.55.8h0Zm1.61-2.27-0.66-.66-0.86-.57,0-.06h0l0.62-.79,1.54,1.23-0.6.76-0.75-.57Zm1.8-2.22-0.6-.75-0.85-.57,0.09-.1h0l0.67-.75,1.46,1.33-0.65.72-0.72-.63Zm2-2.16-0.62-.77-0.81-.55,0.8,0.53,0,0-0.63-.63,0.72-.71,1.37,1.42-0.69.68h0Zm2.16-2-0.62-.77-0.75-.64,0.72,0.6-0.62-.71,0.76-.66,1.27,1.51-0.73.63h0ZM698.1,373l-1.17-1.59,0,0h0l0.8-.61,1.17,1.59-0.77.58-0.61-.79Zm2.4-1.73-0.56-.82-0.6-.77,0.54,0.68-0.48-.73,0.55,0.81-0.55-.82,0.84-.55,1.07,1.66Zm2.45-1.54-0.5-.85v0l-0.57-.85,0.06,0h0l0.87-.5,1,1.73Zm2.42-1.32-0.3-.9-0.57-.85,0.12-.06h0l0.91-.44,0.84,1.79-0.87.42-0.43-.85Zm2.68-1.22-0.31-.94-0.48-.86,0.46,0.81,0-.08-0.33-.78,0.93-.38L709,366.8l-0.89.36h0Zm2.74-1-0.59-1.88h0l1-.32,0.6,1.88-0.92.3-0.33-.95Zm2.82-.87L713,363.4l0.24,0.72-0.21-.73,0.28,0.94-0.26-.95,1-.25,0.47,1.92Zm2.82-.66-0.19-1h0v0l-0.28-1H716l1-.19,0.34,1.95Zm2.72-.47v-1l-0.3-.94,0.3,0.91v0l-0.12-.91,1-.12,0.22,2-1,.12h0Zm2.95-.3v-1l-0.3-.94,0.3,0.91v-0.11l-0.06-.84,1-.06,0.09,2-1,.06H722.1Zm3-.11v-2h0v2Z" transform="translate(-647.88 -330.81)"/></g></g></g><g id="_编组_104" data-name="&lt;编组&gt;" class="cls-7"><g id="_编组_105" data-name="&lt;编组&gt;"><g id="_编组_106" data-name="&lt;编组&gt;"><path class="cls-3" d="M725.21,443.22l-30.38-17.54V390.6l30.38-17.54L755.6,390.6v35.08Zm-29.45-18.08,29.45,17,29.45-17v-34l-29.45-17-29.45,17v34Z" transform="translate(-647.88 -330.81)"/></g></g></g><g id="_编组_107" data-name="&lt;编组&gt;" class="cls-7"><g id="_编组_108" data-name="&lt;编组&gt;"><g id="_编组_109" data-name="&lt;编组&gt;"><path class="cls-3" d="M734.29,442L734,442l-33.63-9-9.08-33.89,24.81-24.81,0.26,0.07,33.63,9,9.08,33.89Zm-33.13-9.84L734,441l24-24-8.8-32.85-32.85-8.8-24,24Z" transform="translate(-647.88 -330.81)"/></g></g></g></g></g></g></g></svg>