<svg preserveAspectRatio="none" xmlns="http://www.w3.org/2000/svg" viewBox="0 0 388.73 388.73"><defs><radialGradient id="radial-gradient" cx="193.67" cy="193.81" r="84.46" gradientUnits="userSpaceOnUse"><stop offset=".95" stop-color="#fff" stop-opacity="0"/><stop offset="1" stop-color="#516b71"/></radialGradient><style>.cls-2,.cls-8,.cls-9{fill:none;stroke:#11cfe7}.cls-2,.cls-9{stroke-miterlimit:10}.cls-4{fill:#11cfe7}.cls-8{stroke-linecap:round;stroke-linejoin:round;stroke-width:1.55px}.cls-9{stroke-width:.7px}</style></defs><g style="isolation:isolate"><g id="BACKGROUND_2" data-name="BACKGROUND 2"><circle class="cls-2" cx="193.5" cy="193.93" r="73.79"/><path class="cls-4" d="M143.18 317.4a71.29 71.29 0 1125.71-4.84 70.94 70.94 0 01-25.71 4.84zm0-131.27a60.1 60.1 0 1021.69 116.15 60.12 60.12 0 00-21.65-116.15z" transform="translate(50.32 -52.32)" opacity=".5"/><circle class="cls-2" cx="193.48" cy="194.15" r="124.27"/><circle class="cls-2" cx="193.48" cy="194.17" r="94.54"/><circle cx="193.48" cy="194.15" r="109.28" opacity=".65" stroke-width="6" stroke-miterlimit="10" fill="none" stroke="#11cfe7"/><path class="cls-4" d="M127.16 291.86a48.53 48.53 0 01-25.47-19.32l11.85-7.86a34.25 34.25 0 0018 13.64zM179.68 276l-11.1-8.89a34.09 34.09 0 00.8-41.52l11.43-8.45a47.91 47.91 0 019.44 28.69A48.43 48.43 0 01179.68 276zm-65.39-50l-11.54-8.31a48.5 48.5 0 0126.19-18.32l3.83 13.69A34.22 34.22 0 00114.29 226zm48.78-6.87A33.71 33.71 0 00142 211.8h-.21l-.1-14.22h.31A47.8 47.8 0 01171.88 208zM101.46 204.63l.88-.86 3.33 3.48-.8.79zm-4.66 5.26l3.79 3-.7.92-3.89-2.92zm10.91-10.69l1-.75 2.81 3.92-.93.68zm-15.54 17.56l4.18 2.4-.56 1-4.23-2.31zm22.51-22.06l1.12-.59 2.22 4.28-1 .54zm-26.12 29.53L93 226q-.21.54-.41 1.08l-4.52-1.68q.26-.59.49-1.17zm33.66-33l1.19-.43 1.58 4.55-1.09.39zm-36.15 40.89l4.69 1.12q-.13.56-.26 1.13l-4.71-1q.13-.63.28-1.25zm44.11-43.2l1.24-.25.93 4.73-1.14.23zM84.72 240.3l4.8.45q-.05.58-.09 1.15l-4.81-.34q.04-.64.1-1.26zm-.18 8.28l4.81-.24q0 .58.07 1.15l-4.81.34q-.04-.62-.07-1.25zm85.83-53.92l1.1.62-2.4 4.18-1-.56zm7 4.48l1 .77-3 3.8-.92-.7zm6.26 5.43l.07.07.81.83-3.51 3.33-.77-.78zm1.58 9.15l3.85-2.9.75 1-3.91 2.82zm4.12 6.38l4.23-2.32.59 1.11-4.28 2.23zm3.17 6.91l4.52-1.69q.22.59.43 1.19l-4.55 1.59q-.22-.56-.42-1.1zm-62.26 70.53l1.12.25-1 4.71-1.23-.28zm64.41-63.23l4.71-1 .26 1.24-4.73.92-.27-1.17zm-56.91 64.46l1.15.09-.33 4.81-1.26-.1zm58-56.93l4.81-.35q0 .63.08 1.26l-4.81.24q-.07-.59-.11-1.17zm-50.4 57.08l1.15-.07.35 4.81-1.26.08zm7.55-.93l1.14-.24 1 4.71-1.24.26zm7.34-2l1.09-.4 1.68 4.51-1.19.43zm7-3l1-.55 2.32 4.23-1.11.6zm6.47-4l.93-.69 2.9 3.85-1 .75zm5.84-4.87l.76-.75.07-.07 3.41 3.41-.07.07-.83.81zM142.52 364.4h-2.57l.21-9.8h2.29zm14.27-.86l-1.18-9.73 2.33-.31 1.39 9.71zm-31.07-.32l-2.54-.39 1.6-9.67 2.32.36zm47.62-2.9l-2.56-9.47 2.26-.64 2.77 9.41q-1.24.38-2.48.7zm-64.1-.66q-1.24-.36-2.46-.75l3-9.35 2.25.68zm80-4.9l-3.89-9 2.14-1 4.08 8.92q-1.14.58-2.31 1.09zm-95.84-1q-1.17-.53-2.33-1.09l4.27-8.83q1.06.51 2.13 1zM204.2 347l-5.13-8.36q1-.61 2-1.25l5.31 8.24q-1.09.7-2.18 1.37zm-125.59-1.31q-1.08-.69-2.14-1.41l5.47-8.14q1 .66 2 1.3zm139.28-8.5l-6.26-7.54q.9-.75 1.79-1.52l6.43 7.4q-.97.84-1.96 1.66zm12.17-11.66l-7.27-6.58q.79-.87 1.56-1.76l7.41 6.42q-.83.97-1.69 1.92zm-201-45.89q-.36-1.23-.7-2.47l9.46-2.56q.31 1.14.64 2.26zm-3.59-16.48q-.18-1.26-.34-2.54l9.73-1.19q.14 1.17.31 2.34zm-1.21-16.81v-.2-2.36l9.8.2v2.23zm10.88-15.43l-9.71-1.37q.18-1.27.39-2.53l9.68 1.58q-.19 1.15-.35 2.32zm3.25-15.11L29 213.07q.36-1.23.74-2.45l9.35 2.95q-.36 1.11-.69 2.25zm5.39-14.49l-8.92-4.07q.53-1.17 1.09-2.33l8.83 4.26q-.51 1.07-1 2.14zm191-11.89q-.62-1-1.25-2l8.23-5.32q.7 1.08 1.37 2.17zm-183.59-1.69l-8.25-5.3q.69-1.08 1.41-2.15l8.13 5.48q-.65.98-1.29 1.97zm174.55-10.86q-.75-.9-1.52-1.79l7.39-6.44q.84 1 1.67 2zm-165.29-1.52L53 168.94q.84-1 1.7-1.92l7.3 6.57q-.78.88-1.55 1.77zM215 165.74q-.87-.79-1.76-1.56l6.41-7.42q1 .84 1.93 1.7zm-12.19-9.52q-1-.66-2-1.29l5.3-8.25q1.08.69 2.15 1.41zm-13.42-7.69l-2.14-1 4.06-8.93q1.17.53 2.33 1.09zM175 142.84l-2.25-.68 2.74-9.41 2.46.74zm-15-3.57l-2.33-.35 1.33-9.72 2.54.39zm-15.39-1.39h-2.37V128H144.79z" transform="translate(50.32 -52.32)"/><path class="cls-4" d="M142.52 364.4h-2.57l.21-9.8h2.29zm14.27-.86l-1.18-9.73 2.33-.31 1.39 9.71zm-31.07-.32l-2.54-.39 1.6-9.67 2.32.36zm47.62-2.9l-2.56-9.47 2.26-.64 2.77 9.41q-1.24.38-2.48.7zm-64.1-.66q-1.24-.36-2.46-.75l3-9.35 2.25.68zm80-4.9l-3.89-9 2.14-1 4.08 8.92q-1.14.58-2.31 1.09zm-95.84-1q-1.17-.53-2.33-1.09l4.27-8.83q1.06.51 2.13 1zM204.2 347l-5.13-8.36q1-.61 2-1.25l5.31 8.24q-1.09.7-2.18 1.37zm-125.59-1.31q-1.08-.69-2.14-1.41l5.47-8.14q1 .66 2 1.3zm139.28-8.5l-6.26-7.54q.9-.75 1.79-1.52l6.43 7.4q-.97.84-1.96 1.66zm12.17-11.66l-7.27-6.58q.79-.87 1.56-1.76l7.41 6.42q-.83.97-1.69 1.92zm-201-45.89q-.36-1.23-.7-2.47l9.46-2.56q.31 1.14.64 2.26zm-3.59-16.48q-.18-1.26-.34-2.54l9.73-1.19q.14 1.17.31 2.34zm-1.21-16.81v-.2-2.36l9.8.2v2.23zm10.88-15.43l-9.71-1.37q.18-1.27.39-2.53l9.68 1.58q-.19 1.15-.35 2.32zm3.25-15.11L29 213.07q.36-1.23.74-2.45l9.35 2.95q-.36 1.11-.69 2.25zm5.39-14.49l-8.92-4.07q.53-1.17 1.09-2.33l8.83 4.26q-.51 1.07-1 2.14zm191-11.89q-.62-1-1.25-2l8.23-5.32q.7 1.08 1.37 2.17zm-183.59-1.69l-8.25-5.3q.69-1.08 1.41-2.15l8.13 5.48q-.65.98-1.29 1.97zm174.55-10.86q-.75-.9-1.52-1.79l7.39-6.44q.84 1 1.67 2zm-165.29-1.52L53 168.94q.84-1 1.7-1.92l7.3 6.57q-.78.88-1.55 1.77zM215 165.74q-.87-.79-1.76-1.56l6.41-7.42q1 .84 1.93 1.7zm-12.19-9.52q-1-.66-2-1.29l5.3-8.25q1.08.69 2.15 1.41zm-13.42-7.69l-2.14-1 4.06-8.93q1.17.53 2.33 1.09zM175 142.84l-2.25-.68 2.74-9.41 2.46.74zm-15-3.57l-2.33-.35 1.33-9.72 2.54.39zm-15.39-1.39h-2.37V128H144.79z" transform="translate(50.32 -52.32)"/><path d="M303.75 276.36a137.13 137.13 0 1124.3-53.19" stroke-width="2" stroke-miterlimit="10" fill="none" stroke="#11cfe7"/><circle class="cls-4" cx="253.32" cy="328.73" r="2.26" transform="rotate(-52.06 224.885 251.045)"/><path class="cls-4" d="M325.26 221.66l1.82 5.7 4.02-4.43-5.84-1.27z"/><g opacity=".41"><path class="cls-8" d="M22 192.71a131.85 131.85 0 0138.6-49.58M154.83 376.08a131.28 131.28 0 01-43.15-2.76M271.5 261.25a130.22 130.22 0 01-30.77 70M226.9 146.77a130.41 130.41 0 0131.89 41M98.33 122.43q4.05-1.42 8.18-2.56" transform="translate(50.32 -52.32)"/></g><path class="cls-9" d="M150.3 194.53a52.66 52.66 0 0143.32 61.13M179 283.7a52.64 52.64 0 11-42.3-89.62" transform="translate(50.32 -52.32)"/><circle cx="193.5" cy="193.93" r="100.4" stroke-width="4" stroke-dasharray="1 2" stroke-miterlimit="10" fill="none" stroke="#11cfe7" opacity=".65"/><path class="cls-4" d="M230.6 252.57v-12.16l-8.53-2.81a79 79 0 00-2.51-12.79l6.82-5.83-4.61-11.25-8.94.63a79.51 79.51 0 00-7.59-11.36l4-8-8.6-8.6-8 4a79.54 79.54 0 00-10.81-7.27l.7-8.95-11.22-4.7-5.89 6.77a79 79 0 00-13.42-2.67l-2.77-8.58h-12.16l-2.81 8.53a79 79 0 00-12.79 2.51l-5.83-6.82-11.25 4.61.63 8.94a79.53 79.53 0 00-11.36 7.58l-8-4L77 189l4 8a79.53 79.53 0 00-7.2 10.8l-8.95-.7-4.7 11.22 6.77 5.89a79 79 0 00-2.68 13.39l-8.53 2.81v12.16l8.53 2.81a79 79 0 002.51 12.79L59.94 274l4.61 11.25 8.94-.63A79.53 79.53 0 0081.07 296l-4 8 8.6 8.6 8-4a79.51 79.51 0 0010.81 7.27l-.7 8.95 11.22 4.7 5.89-6.77a79 79 0 0013.39 2.68l2.81 8.53h12.16l2.75-8.56a79 79 0 0012.79-2.51l5.83 6.82 11.25-4.61-.63-8.94a79.5 79.5 0 0011.36-7.58l8 4 8.6-8.6-4-8a79.52 79.52 0 007.27-10.81l8.95.7 4.7-11.22-6.77-5.89a79 79 0 002.68-13.39zm-87.41 70.35a76.67 76.67 0 1176.67-76.67 76.67 76.67 0 01-76.68 76.67z" transform="translate(50.32 -52.32)"/><circle cx="194.36" cy="194.36" r="184.36" stroke-width="20" stroke-dasharray="0 5" stroke-miterlimit="10" fill="none" stroke="#11cfe7"/><circle cx="193.67" cy="193.81" r="84.46" style="mix-blend-mode:multiply" fill="url(#radial-gradient)"/><path d="M208.84 350.92l-2.28-22.88a134.23 134.23 0 0038.16-9.59l8.81 21.23a157.12 157.12 0 01-44.69 11.24zM81.32 305.51a158.39 158.39 0 01-27.53-36.93l20.24-10.9a135.45 135.45 0 0023.54 31.57zm263-66.27l-22-6.62a135.21 135.21 0 005.7-39v-.34h23v.4a158.13 158.13 0 01-6.7 45.56zm-17-59.39a134.14 134.14 0 00-9.66-38.17l21.22-8.85a157.11 157.11 0 0111.31 44.67zm-15.47-50.32a135.45 135.45 0 00-23.57-31.54l16.22-16.31a158.43 158.43 0 0127.57 36.89zM97.32 98.32L81.06 82.08a158.41 158.41 0 0136.91-27.55l10.93 20.23a135.4 135.4 0 00-31.58 23.56zm43.74-29.37l-8.81-21.27a157.16 157.16 0 0144.68-11.29l2.31 22.88a134.17 134.17 0 00-38.15 9.68z" stroke-width=".85" stroke-miterlimit="10" fill="none" stroke="#11cfe7"/><path class="cls-4" transform="rotate(90 193.155 248.855)" d="M140.17 240.97h3.34v17.76h-3.34z"/><path class="cls-4" d="M190.49 188.65h3.34v17.76h-3.34z"/></g></g></svg>