<svg preserveAspectRatio="none" id="Layer_1" data-name="Layer 1" xmlns="http://www.w3.org/2000/svg" viewBox="0 0 60.58 59.93"><defs><style>.cls-1{fill:#0ff}</style></defs><g id="_编组_" data-name="&lt;编组&gt;"><path id="_复合路径_" data-name="&lt;复合路径&gt;" class="cls-1" d="M180.6 92.51a23.12 23.12 0 01-6.32-2.34l2.33-4.25a18.27 18.27 0 005 1.85zm15.74-2.2L194.06 86c.52-.27 1-.58 1.52-.9l2.67 4c-.62.48-1.25.9-1.92 1.21zm-24-1.31a23.31 23.31 0 01-9.31-12.88l4.66-1.32A18.46 18.46 0 00175.1 85zm30.9-4.31l-3.71-3.11a18.43 18.43 0 004.3-11.82 18.62 18.62 0 00-.26-3.08l4.78-.8a23.31 23.31 0 01-5.07 18.81zM167 69.51l-4.84-.06c0-.74.05-1.49.13-2.22l4.82.52c-.04.58-.11 1.17-.11 1.76zm5.67-13L169.34 53a23.3 23.3 0 015.48-3.91l2.18 4.27a18.43 18.43 0 00-4.3 3.1zm24.69-.72c-.45-.38-.92-.74-1.4-1.08l2.78-4c.61.43 1.2.88 1.76 1.36zm-18.74-3.1l-1.79-4.5a23.46 23.46 0 0115.89-.47l-1.52 4.6a18.59 18.59 0 00-12.55.31z" transform="translate(-155.15 -39.46)"/><path id="_复合路径_2" data-name="&lt;复合路径&gt;" class="cls-1" d="M179.13 99.39a30.12 30.12 0 01-8.23-3.05l3-5.53a23.79 23.79 0 006.5 2.41zm20.5-2.86l-3-5.57c.67-.36 1.34-.75 2-1.17l3.5 5.21c-.81.58-1.65 1.08-2.5 1.53zm-31.2-1.71A30.36 30.36 0 01156.3 78l6.07-1.72A24 24 0 00172 89.6zm40.24-5.61l-4.83-4.05a24 24 0 005.59-15.4 24.31 24.31 0 00-.33-4l6.22-1a30.35 30.35 0 01-6.65 24.45zm-47.21-19.78l-6.31-.08c0-1 .07-1.94.17-2.9l6.27.68c-.07.77-.12 1.54-.13 2.3zm7.38-17l-4.37-4.55a30.31 30.31 0 017.14-5.09l2.88 5.61a24 24 0 00-5.65 4.04zM201 51.5c-.58-.5-1.2-1-1.82-1.41l3.62-5.17c.79.55 1.56 1.15 2.3 1.78zm-24.41-4l-2.33-5.86A30.41 30.41 0 01195 41l-2 6a24.21 24.21 0 00-16.41.46z" transform="translate(-155.15 -39.46)"/><circle id="_路径_" data-name="&lt;路径&gt;" class="cls-1" cx="30.29" cy="30.29" r="9.16"/></g></svg>