<svg preserveAspectRatio="none" xmlns="http://www.w3.org/2000/svg" viewBox="0 0 116.88 116.9"><defs><style>.cls-1{isolation:isolate;}.cls-2,.cls-4{fill:#fff;}.cls-2,.cls-3{mix-blend-mode:overlay;}</style></defs><title>circle55</title><g class="cls-1"><g id="Layer_3" data-name="Layer 3"><circle class="cls-2" cx="707.78" cy="208.59" r="3.79" transform="translate(-651.98 -140.91) rotate(-0.75)"/><g class="cls-3"><path class="cls-4" d="M716.06,202.47l-0.26-.33a10.33,10.33,0,0,0-.74-0.83,11.07,11.07,0,0,0-2.72-1.95c-0.28-.11-0.54-0.28-0.83-0.37l-0.83-.29-0.8-.19a5.68,5.68,0,0,0-.73-0.11,6.47,6.47,0,0,0-1.1-.09l-0.42,0L707.45,183l1,0a20.51,20.51,0,0,1,2.72.22c0.56,0.09,1.18.14,1.81,0.3l2,0.49c0.68,0.22,1.37.46,2.07,0.72s1.38,0.6,2.06.92a26.36,26.36,0,0,1,6.72,4.82,25.39,25.39,0,0,1,1.82,2l0.63,0.82Z" transform="translate(-649.32 -150.15)"/><path class="cls-4" d="M717.12,212.94l0.18-.38c0.1-.25.21-0.61,0.37-1a11.56,11.56,0,0,0,.4-3.32c0-.31,0-0.62-0.07-0.91s-0.1-.59-0.14-0.87a11.3,11.3,0,0,0-.46-1.49,6.14,6.14,0,0,0-.23-0.58l-0.22-.43-0.18-.38,13.29-7.46s0.18,0.33.47,0.93l0.53,1.07c0.21,0.41.37,0.91,0.58,1.44a26.29,26.29,0,0,1,1.11,3.72c0.13,0.7.25,1.42,0.36,2.16s0.12,1.49.17,2.24a26.85,26.85,0,0,1-1,8.21c-0.36,1.08-.67,2-0.93,2.58l-0.43.95Z" transform="translate(-649.32 -150.15)"/><path class="cls-4" d="M723.82,220.8l0.8-1.1,0.7-1.17,4.69,2.66s-0.43.75-.89,1.48l-1,1.4Z" transform="translate(-649.32 -150.15)"/><path class="cls-4" d="M720.84,224l1-.93,0.37-.34,0.29-.32,0.29-.32,4,3.6-0.36.4-0.37.41-0.46.44-1.27,1.17Z" transform="translate(-649.32 -150.15)"/><path class="cls-4" d="M717.24,226.4l0.38-.19,0.8-.5,0.79-.5,0.34-.25,3.15,4.37s-0.17.13-.44,0.32l-1,.64-1,.62-0.48.25Z" transform="translate(-649.32 -150.15)"/><path class="cls-4" d="M703.27,217.86l0.27,0.12,0.32,0.15,0.45,0.15,0.55,0.2,0.68,0.16a4.16,4.16,0,0,0,.78.14,4.77,4.77,0,0,0,.87.09,10.11,10.11,0,0,0,4.12-.6,10.31,10.31,0,0,0,4-2.61A10.25,10.25,0,0,0,718,207.4a11.78,11.78,0,0,0-.76-2.84l-0.49-1,6.65-3.73,0.23,0.46c0.14,0.3.38,0.73,0.63,1.3a19.31,19.31,0,0,1,1.32,5,17.86,17.86,0,0,1-4.79,14.36,18,18,0,0,1-6.91,4.54,17.76,17.76,0,0,1-7.15,1,11,11,0,0,1-1.52-.15,9.75,9.75,0,0,1-1.36-.24l-1.18-.29-1-.34c-0.29-.11-0.56-0.19-0.78-0.28l-0.56-.26-0.46-.22Z" transform="translate(-649.32 -150.15)"/><path class="cls-4" d="M707.66,199.58s-0.36,0-1,.07a10.4,10.4,0,0,0-2.48.67,8.91,8.91,0,0,0-3,2.1,8.86,8.86,0,0,0-2.31,7.75,8.77,8.77,0,0,0,1.33,3.36,5.07,5.07,0,0,0,.45.62c0.08,0.1.14,0.2,0.21,0.29l0.24,0.24c0.16,0.15.27,0.33,0.42,0.44l0.39,0.34a4.43,4.43,0,0,0,.58.44l0.21,0.16-2.71,4-0.32-.23a8,8,0,0,1-.88-0.68l-0.6-.53c-0.22-.19-0.41-0.44-0.65-0.68l-0.36-.38c-0.11-.14-0.22-0.29-0.33-0.43a9.15,9.15,0,0,1-.69-1,13.62,13.62,0,0,1-2.05-5.18,13.7,13.7,0,0,1,3.55-11.91,13.76,13.76,0,0,1,4.56-3.22,15.16,15.16,0,0,1,3.82-1l1.51-.11Z" transform="translate(-649.32 -150.15)"/><path class="cls-4" d="M690.42,197.27l-0.3.51c-0.19.34-.5,0.81-0.82,1.45a21.6,21.6,0,0,0-1.9,5.62,20.63,20.63,0,0,0,.17,8.34,21.12,21.12,0,0,0,4.22,8.58,20.87,20.87,0,0,0,7.61,5.77,20.34,20.34,0,0,0,8.16,1.77,15.13,15.13,0,0,0,1.76-.06l0.82-.06,0.76-.12c0.49-.08,1-0.15,1.38-0.24l1.15-.31A12.12,12.12,0,0,0,715,228l0.55-.21,1.82,4.49-0.68.26a16.15,16.15,0,0,1-2,.64l-1.42.38c-0.52.11-1.09,0.2-1.7,0.3l-0.94.14-1,.07a19.64,19.64,0,0,1-2.17.07A25.2,25.2,0,0,1,697.44,232a25.56,25.56,0,0,1-14.59-17.7,25.47,25.47,0,0,1-.21-10.29A26.54,26.54,0,0,1,685,197c0.39-.79.78-1.38,1-1.79l0.38-.62Z" transform="translate(-649.32 -150.15)"/><path class="cls-4" d="M707.57,192.67l-1.73.12a17.16,17.16,0,0,0-4.39,1.19,15.81,15.81,0,0,0-5.25,3.7,15.76,15.76,0,0,0-4.08,13.68,15.71,15.71,0,0,0,2.36,6,10.85,10.85,0,0,0,.79,1.1c0.13,0.17.25,0.34,0.39,0.5l0.41,0.43c0.27,0.27.49,0.56,0.75,0.78l0.68,0.6a10,10,0,0,0,1,.79l0.37,0.27-1.47,2.17-0.43-.31a12.21,12.21,0,0,1-1.18-.91L695,222c-0.29-.25-0.56-0.58-0.87-0.9l-0.47-.51c-0.15-.18-0.3-0.38-0.45-0.58a13.33,13.33,0,0,1-.92-1.28,18.29,18.29,0,0,1-2.75-6.94,18.38,18.38,0,0,1,4.76-15.93,18.45,18.45,0,0,1,6.11-4.3,19.83,19.83,0,0,1,5.12-1.39c0.64-.07,1.14-0.08,1.49-0.11l0.53,0Z" transform="translate(-649.32 -150.15)"/></g><g class="cls-3"><path class="cls-4" d="M717.89,187.29a9,9,0,0,0-.88-0.39c-0.28-.12-0.62-0.27-1-0.41l-0.64-.24-0.72-.22a23.74,23.74,0,0,0-3.5-.78,24,24,0,0,0-8.14.24,26.23,26.23,0,0,0-3.42,1c-1,.38-1.77.74-2.32,1l-0.86.44-16.83-30.53,2.1-1.09a58.18,58.18,0,0,1,14.25-5,58.84,58.84,0,0,1,20.22-.61,58.58,58.58,0,0,1,8.62,1.93l1.77,0.56c0.56,0.19,1.08.39,1.58,0.57,1,0.35,1.84.71,2.53,1,1.4,0.58,2.16,1,2.16,1Z" transform="translate(-649.32 -150.15)"/><path class="cls-4" d="M731.34,207.28l-0.08-1c-0.06-.61-0.18-1.47-0.37-2.49a27.45,27.45,0,0,0-1-3.42,24.24,24.24,0,0,0-1.77-3.72,23.45,23.45,0,0,0-2.36-3.36,27.16,27.16,0,0,0-2.49-2.54c-0.8-.67-1.49-1.2-2-1.55l-0.79-.54,18.76-29.37,2,1.33c1.24,0.86,3,2.16,5,3.86a61.71,61.71,0,0,1,6.22,6.33,58.35,58.35,0,0,1,5.83,8.28,59.16,59.16,0,0,1,4.33,9.14,61.9,61.9,0,0,1,2.45,8.52A62.66,62.66,0,0,1,766,203l0.18,2.37Z" transform="translate(-649.32 -150.15)"/><path class="cls-4" d="M753.31,215.93l0.16-1,0.25-2.13c0.05-.78.11-1.56,0.15-2.14s0-1,0-1L766.2,210s0,0.5,0,1.24S766.06,213,766,214l-0.31,2.7-0.19,1.22Z" transform="translate(-649.32 -150.15)"/><path class="cls-4" d="M750.69,225.51l0.34-.91c0.21-.55.47-1.28,0.7-2l0.34-1.09,0.26-1,0.25-.94,12,2.93-0.31,1.19-0.33,1.22-0.43,1.38c-0.29.95-.62,1.88-0.88,2.57L762.16,230Z" transform="translate(-649.32 -150.15)"/><path class="cls-4" d="M746.07,234.3l0.54-.81,1.11-1.84,1-1.89c0.27-.52.43-0.87,0.43-0.87l11.07,5.42s-0.21.45-.55,1.11-0.82,1.53-1.3,2.39L757,240.14l-0.69,1Z" transform="translate(-649.32 -150.15)"/><path class="cls-4" d="M708.68,232.17h0.17a4.57,4.57,0,0,0,.5,0l0.8-.06,1.08-.14c0.4-.06.84-0.15,1.33-0.23s1-.21,1.54-0.38a21.45,21.45,0,0,0,3.58-1.32,23.78,23.78,0,0,0,7.67-5.65,22.4,22.4,0,0,0,3.1-4.39,23.18,23.18,0,0,0,2.09-5.17,23.72,23.72,0,0,0,.38-10.87,24.23,24.23,0,0,0-3.74-8.77,24,24,0,0,0-4.58-4.92c-0.64-.5-1.15-0.89-1.52-1.12l-0.55-.38L729.89,174l1,0.65c0.64,0.42,1.54,1.08,2.65,2,0.54,0.46,1.17.94,1.79,1.53,0.31,0.29.65,0.59,1,.91l1,1a42.74,42.74,0,0,1,4.21,5.14,40.85,40.85,0,0,1,7.27,24.55,41.22,41.22,0,0,1-5,18.53,39.74,39.74,0,0,1-5.41,7.65,41.25,41.25,0,0,1-13.3,9.82,38.78,38.78,0,0,1-6.23,2.3c-0.95.29-1.86,0.46-2.69,0.67s-1.62.31-2.32,0.41-1.33.18-1.88,0.24l-1.4.11c-0.38,0-.67,0-0.87,0h-0.3Z" transform="translate(-649.32 -150.15)"/><path class="cls-4" d="M697.83,190.55l-0.51.31c-0.34.18-.81,0.5-1.41,0.9a20.94,20.94,0,0,0-4.27,4,20.58,20.58,0,0,0-3.74,7.43,21,21,0,0,0-.72,4.67,21.76,21.76,0,0,0,.39,4.82,21.29,21.29,0,0,0,1.53,4.6,20.23,20.23,0,0,0,2.48,4,20.61,20.61,0,0,0,11.86,7.39c0.35,0.08.66,0.15,0.94,0.18s0.51,0.1.7,0.11l0.59,0.06-1.15,11-0.9-.1c-0.29,0-.65-0.1-1.07-0.17s-0.9-.16-1.44-0.28a31.67,31.67,0,0,1-18.24-11.39,32.16,32.16,0,0,1-6.14-13.27,32.75,32.75,0,0,1-.61-7.44,32.13,32.13,0,0,1,1.1-7.16A31.67,31.67,0,0,1,683,188.89a32,32,0,0,1,6.59-6.2c0.91-.62,1.63-1.09,2.15-1.37l0.78-.46Z" transform="translate(-649.32 -150.15)"/><path class="cls-4" d="M660.58,204.45l-0.09,1.34c0,0.44-.07,1-0.07,1.62s0,1.37,0,2.19,0,1.73.14,2.72,0.2,2.05.35,3.19a49,49,0,0,0,1.74,7.48,47.35,47.35,0,0,0,67,27.61,46.47,46.47,0,0,0,6.49-4.07c0.47-.33.9-0.68,1.31-1s0.82-.66,1.19-1c0.73-.67,1.43-1.25,2-1.83,1.19-1.14,2-2.1,2.64-2.75,0.3-.32.5-0.59,0.65-0.76l0.22-.27,8.51,7.08-0.27.33c-0.18.21-.44,0.54-0.81,0.94-0.73.81-1.79,2-3.26,3.4-0.72.72-1.57,1.45-2.48,2.27-0.46.4-1,.79-1.47,1.21s-1,.85-1.62,1.26a57.57,57.57,0,0,1-8,5,58.5,58.5,0,0,1-61.3-4.49,58.45,58.45,0,0,1-21.38-29.56,60.09,60.09,0,0,1-2.15-9.24c-0.19-1.4-.36-2.71-0.44-3.93s-0.14-2.34-.17-3.35,0-1.92,0-2.71,0-1.45.09-2c0.08-1.08.11-1.66,0.11-1.66Z" transform="translate(-649.32 -150.15)"/><path class="cls-4" d="M690.21,176.71l-0.9.52c-0.59.33-1.42,0.87-2.47,1.58a36.53,36.53,0,0,0-15.44,28.46,37.48,37.48,0,0,0,.7,8.55,36.89,36.89,0,0,0,7.05,15.24,36.39,36.39,0,0,0,21,13.1c0.62,0.14,1.17.25,1.65,0.32s0.89,0.16,1.23.19l1,0.12-0.62,5.95-1.2-.14c-0.39,0-.87-0.13-1.43-0.22s-1.21-.21-1.92-0.37a42.37,42.37,0,0,1-24.41-15.25A42.86,42.86,0,0,1,666.23,217a43.38,43.38,0,0,1-.81-10,42.3,42.3,0,0,1,18-33.14c1.21-.83,2.18-1.45,2.87-1.84l1-.61Z" transform="translate(-649.32 -150.15)"/></g><g class="cls-3"><path class="cls-4" d="M684.92,181.45s-0.42.32-1.08,1c-0.34.31-.75,0.68-1.2,1.15-0.22.23-.47,0.47-0.71,0.73l-0.76.84a35.73,35.73,0,0,0-3.25,4.29,35.88,35.88,0,0,0-4.76,11.31,38,38,0,0,0-.79,5.31c-0.1,1.57-.1,2.89-0.06,3.81l0.07,1.44-8.8.67-0.09-1.8a44.08,44.08,0,0,1,1.06-11.39,44.26,44.26,0,0,1,10-19.48l0.95-1c0.31-.33.61-0.62,0.89-0.91,0.55-.58,1.07-1,1.49-1.43,0.84-.78,1.35-1.19,1.35-1.19Z" transform="translate(-649.32 -150.15)"/><path class="cls-4" d="M720.71,175.53l-1.36-.49c-0.87-.3-2.12-0.68-3.65-1.05a39.19,39.19,0,0,0-5.31-.79,36.18,36.18,0,0,0-6.17.1,35.4,35.4,0,0,0-6.06,1.13,38.73,38.73,0,0,0-5,1.83c-1.43.67-2.58,1.29-3.37,1.76l-1.23.75-4.8-7.41,1.54-.94c1-.59,2.43-1.37,4.21-2.2a47.57,47.57,0,0,1,6.31-2.3,44.21,44.21,0,0,1,7.56-1.41,45,45,0,0,1,7.68-.12,48,48,0,0,1,6.64,1c1.91,0.46,3.48.94,4.57,1.31l1.69,0.62Z" transform="translate(-649.32 -150.15)"/><path class="cls-4" d="M730.62,174.32l-0.72-.48-1.64-1-1.69-.91c-0.46-.24-0.78-0.38-0.78-0.38l1.37-2.81s0.34,0.16.84,0.41l1.81,1,1.76,1.07,0.78,0.52Z" transform="translate(-649.32 -150.15)"/><path class="cls-4" d="M737.43,180l-0.62-.61c-0.37-.37-0.87-0.86-1.39-1.32l-0.76-.69-0.69-.57-0.67-.55,1.93-2.45L736,174.4,736.7,175l0.82,0.74c0.57,0.49,1.1,1,1.5,1.42l0.66,0.66Z" transform="translate(-649.32 -150.15)"/><path class="cls-4" d="M742.87,187l-0.46-.74-1.08-1.59-1.15-1.53c-0.32-.41-0.55-0.67-0.55-0.67l2.41-2s0.25,0.29.59,0.73l1.24,1.65,1.16,1.71,0.49,0.8Z" transform="translate(-649.32 -150.15)"/><path class="cls-4" d="M740.6,222.09l0.1-.24c0.07-.16.17-0.39,0.27-0.7l0.42-1.14c0.15-.45.3-1,0.49-1.57s0.33-1.25.51-2,0.34-1.51.44-2.36a33.3,33.3,0,0,0,.43-5.73,35.71,35.71,0,0,0-3-14,34.19,34.19,0,0,0-4.08-7,35,35,0,0,0-5.76-6.07,35.65,35.65,0,0,0-14.65-7.3,35.53,35.53,0,0,0-23.94,2.84c-1.09.56-1.94,1-2.49,1.38l-0.86.53-2.4-3.71,1-.59c0.63-.4,1.58-0.93,2.81-1.56a39.8,39.8,0,0,1,35.5-.12,40.11,40.11,0,0,1,14.37,12,38.64,38.64,0,0,1,4.58,7.88,40.11,40.11,0,0,1,3.32,15.74,37.71,37.71,0,0,1-.48,6.44c-0.12,1-.34,1.83-0.5,2.65s-0.38,1.55-.58,2.22-0.38,1.25-.55,1.76l-0.47,1.28c-0.12.35-.23,0.61-0.31,0.79l-0.11.27Z" transform="translate(-649.32 -150.15)"/><path class="cls-4" d="M673.14,211.22l0.1,1c0,0.65.19,1.58,0.39,2.77a34.86,34.86,0,0,0,18.59,24.68,35.79,35.79,0,0,0,7.7,2.78,35.22,35.22,0,0,0,16-.09,34.74,34.74,0,0,0,19.67-13c0.36-.48.68-0.92,0.93-1.31s0.49-.71.65-1l0.51-.85,2.42,1.42-0.55.92c-0.18.3-.43,0.65-0.71,1.07s-0.61.9-1,1.42a37.52,37.52,0,0,1-21.26,14.06,38,38,0,0,1-17.32.09,38.68,38.68,0,0,1-8.32-3,38,38,0,0,1-7.17-4.7,37.32,37.32,0,0,1-12.92-22c-0.22-1.28-.37-2.29-0.42-3l-0.11-1.06Z" transform="translate(-649.32 -150.15)"/><path class="cls-4" d="M687.31,244.72l1,0.56c0.34,0.19.76,0.41,1.26,0.64s1.08,0.54,1.75.8,1.39,0.6,2.21.88,1.71,0.58,2.67.88a43,43,0,0,0,6.59,1.34,41.49,41.49,0,0,0,46.39-43.39,40.59,40.59,0,0,0-.88-6.66c-0.09-.49-0.22-1-0.33-1.41s-0.22-.89-0.34-1.31c-0.27-.83-0.48-1.6-0.73-2.27-0.47-1.36-.93-2.4-1.23-3.1-0.14-.36-0.29-0.62-0.37-0.8l-0.13-.27,2.53-1.22,0.14,0.29c0.09,0.19.24,0.47,0.39,0.85,0.33,0.76.81,1.86,1.32,3.31,0.27,0.72.5,1.54,0.78,2.42,0.13,0.44.24,0.91,0.37,1.4s0.26,1,.36,1.51a43.25,43.25,0,0,1,.94,7.11,44.36,44.36,0,0,1-22.4,40.88,44.33,44.33,0,0,1-27.12,5.44,45.94,45.94,0,0,1-7-1.43c-1-.31-2-0.6-2.85-0.94s-1.66-.64-2.37-0.94-1.32-.61-1.86-0.86-1-.49-1.35-0.69l-1.11-.6Z" transform="translate(-649.32 -150.15)"/><path class="cls-4" d="M669.15,211.52l0.11,1.1c0.06,0.72.21,1.76,0.44,3.08a38.86,38.86,0,0,0,20.73,27.53,39.82,39.82,0,0,0,8.59,3.11,39.23,39.23,0,0,0,17.87-.1,38.73,38.73,0,0,0,21.94-14.51c0.41-.54.76-1,1-1.46s0.55-.8.73-1.11l0.57-.94,1.31,0.77-0.59,1c-0.19.32-.46,0.7-0.76,1.15s-0.66,1-1.08,1.52a40.25,40.25,0,0,1-22.8,15.08,40.74,40.74,0,0,1-18.56.1,41.32,41.32,0,0,1-8.93-3.23A40.17,40.17,0,0,1,668.21,216c-0.24-1.37-.4-2.46-0.46-3.2l-0.12-1.14Z" transform="translate(-649.32 -150.15)"/></g></g></g></svg>