<svg preserveAspectRatio="none" xmlns="http://www.w3.org/2000/svg" viewBox="0 0 188.41 190.89"><defs><style>.cls-2{mix-blend-mode:overlay}.cls-3{fill:#0ff}.cls-4{opacity:.46}.cls-5{opacity:.67}.cls-6{opacity:.35}.cls-7{opacity:.31}</style></defs><g style="isolation:isolate"><g id="Layer_1" data-name="Layer 1"><g id="_编组_" data-name="&lt;编组&gt;" class="cls-2"><g id="_编组_2" data-name="&lt;编组&gt;"><g id="_编组_3" data-name="&lt;编组&gt;"><path class="cls-3" d="M735.88 216.84a23 23 0 1123-23 23.07 23.07 0 01-23 23zm0-43.84a20.8 20.8 0 1020.8 20.8 20.83 20.83 0 00-20.8-20.8z" transform="translate(-633.8 -84.88)" id="_编组_4" data-name="&lt;编组&gt;"/></g></g><g id="_编组_5" data-name="&lt;编组&gt;"><g id="_编组_6" data-name="&lt;编组&gt;" class="cls-4"><g id="_编组_7" data-name="&lt;编组&gt;"><path class="cls-3" d="M694.42 178.69l-60.63-23 .19-.51a109 109 0 01129.12-66.9l.53.14-16.17 62.78-.53-.14a44.21 44.21 0 00-52.32 27.09zM635.2 155.1l58.6 22.2a45.3 45.3 0 0152.89-27.38l15.63-60.68A107.9 107.9 0 00635.2 155.1z" transform="translate(-633.8 -84.88)" id="_编组_8" data-name="&lt;编组&gt;"/></g></g><g id="_编组_9" data-name="&lt;编组&gt;" class="cls-5"><g id="_编组_10" data-name="&lt;编组&gt;"><path class="cls-3" d="M765.08 160.76l-.41-.36a44.22 44.22 0 00-9.36-6.2l-.49-.24 28.65-58.16.53.2a109.11 109.11 0 0123 15.33l.41.36zm-8.8-7.29a45.3 45.3 0 018.69 5.76l41-47.43a108 108 0 00-22-14.55z" transform="translate(-633.8 -84.88)" id="_编组_11" data-name="&lt;编组&gt;"/></g></g></g><g id="_编组_12" data-name="&lt;编组&gt;"><g id="_编组_13" data-name="&lt;编组&gt;"><path class="cls-3" d="M735.88 266.31a72.51 72.51 0 1172.51-72.51 72.59 72.59 0 01-72.51 72.51zm0-144.54a72 72 0 1072 72 72.11 72.11 0 00-72-72z" transform="translate(-633.8 -84.88)" id="_编组_14" data-name="&lt;编组&gt;"/></g></g><g id="_编组_15" data-name="&lt;编组&gt;" class="cls-6"><g id="_编组_16" data-name="&lt;编组&gt;"><path class="cls-3" d="M741.32 271.57l-.08-1.09h.05l1.07-.08h.05l.09 1.09h-.05l-1.05.09h-.09zm2.17-.17l-.1-1.09h.05l1.07-.12v.05h.05l.12 1h-.17l-1 .1h-.05zm2.18-.25l-.14-1.07h.05l1.08-.15h.05l.14 1.07-1.09.15h-.05zm2.16-.3l-.16-1.06h.05l1.06-.17h.05l.17 1.07-1.08.17h-.05zm2.16-.36l-.2-1.06h.05l1.05-.21h.07l.2 1-1.07.21H750zm2.14-.42l-.22-1.07h.09l1-.22v-.45l.33 1.49-1.06.24h-.05zm3.29-.36l-.1-.39-1 .25h-.05l-.27-1.05h.05l1-.25v-.39l.09.37v.07l.24 1v.46zm1-.67l-.29-1h.05l1-.29h.05l.29 1-1.05.29h-.05zm2.1-.6l-.31-1h.05l1-.33h.05l.33 1h-.05q-.52.18-1 .33zm2.08-.66l-.35-1h.05l.77-.26.3-.1.36 1h-.05l-1 .35zm2.06-.73l-.37-1h.05l1-.38.39 1h-.05l-1 .38zm2-.78l-.4-1h.05l1-.41.42 1h-.05l-1 .41h-.05zm2-.82l-.43-1h.05l1-.43h.05l.45 1h-.05l-1 .45zm2-.89l-.46-1 1-.46h.07l.46.93h-.05l-1 .47zm2-.94l-.49-1 .93-.48v-.18l.08.15v.08l.47.91-1 .49zm1.93-1l-.51-1 .94-.51.53 1-1 .52zm1.91-1.05l-.54-.94.93-.54.55.93c-.3.18-.61.37-.94.55zm1.88-1.12l-.56-.92.91-.56.59.91h-.05l-.92.58zm1.85-1.16l-.59-.91.15-.1c.26-.17.52-.34.78-.52l.61.9-.91.61zm1.81-1.2l-.62-.9.89-.62.63.88-.9.63zm1.78-1.26l-.64-.88.81-.61h.15l.62.82-.88.65zm1.75-1.31l-.66-.86.85-.67.66.87c-.29.22-.58.44-.86.67zm1.7-1.37l-.69-.84.84-.68.71.84c-.27.24-.55.47-.84.69zm1.67-1.4l-.72-.82.81-.72.71.8v.13l-.05-.05-.78.68zm1.63-1.45l-.74-.8.12-.11.72-.66.75.78-.72.67zm1.59-1.5l-.76-.8.77-.75.76.77-.78.77zm1.55-1.55l-.78-.75.73-.76v-.11l.05.05.05-.07v.12l.74.69c-.25.27-.5.53-.76.79zm1.5-1.59l-.79-.73c.27-.28.52-.56.73-.8h.08l.77.68-.74.81zm1.47-1.63l-.81-.71.7-.81h.07l.78.66-.72.84zm1.41-1.66l-.84-.69.68-.84.85.68v.05l-.68.84zm1.37-1.72l-.86-.66c.23-.28.45-.56.66-.86l.87.66-.67.86zm1.32-1.74l-.88-.65c.22-.28.42-.58.63-.87l.84.6c-.22.29-.43.59-.64.89zm1.22-1.81l-.9-.61c.21-.3.41-.6.61-.9l.9.61c-.21.3-.4.61-.61.9zm1.22-1.81l-.91-.59v-.05l.58-.89v-.09l.08-.11v.15l1 .61h-.15l-.58.9zm1.17-1.85l-.93-.58.55-.92.91.59c-.18.31-.37.63-.56.93zm1.12-1.89l-.91-.55.53-.94 1 .52v.05c-.18.31-.36.64-.54 1zm1.06-1.91l-1-.52.48-.91-.11-.08h.21l.91.48c-.16.33-.34.65-.51 1zm1-2l-1-.48v-.05c.16-.31.33-.64.48-1v-.05l1 .48v.05c-.15.33-.31.65-.48 1zm.94-2l-1-.47.44-1 1 .44c-.14.34-.29.67-.45 1zm.9-2l-1-.43v-.05c.15-.33.29-.66.42-1v-.05l1 .41v.05l-.43 1zm.85-2l-1-.4v-.05l.39-1v-.05l1.24.48h-.26l-.38 1zm.78-2.05l-1-.37v-.05l.36-1 1 .36c-.12.35-.25.69-.37 1zm.73-2.06l-1-.35v-.05c.11-.34.22-.68.34-1l1 .33v.05c-.1.3-.21.64-.35 1v.05zm.66-2.1l-1-.31v-.13c.1-.31.2-.64.28-1v-.05l1 .3v.05c-.1.35-.2.69-.3 1zm.61-2.11l-1-.28V214c.1-.34.18-.68.27-1h.26l.79.25c-.09.36-.18.71-.27 1.06zm.54-2.12l-1.05-.25v.05c.09-.35.17-.69.25-1.05v-.05l1.05.34c-.08.31-.15.65-.24 1zm.49-2.13l-1.05-.23v-.05c.07-.35.14-.69.21-1.05v-.05l1.07.22v.09l-.23 1.06v.05zm.42-2.14l-1.06-.21c.05-.29.1-.58.15-.86v-.26l1.07.19-.2 1.09v.12zm.37-2.16l-1.08-.16v-.05c.07-.43.12-.76.15-1.06l1.07.14v.05c0 .3-.1.69-.15 1.09v.05zm.3-2.16l-1.07-.14v-.05c0-.36.08-.72.12-1.06v-.05l1.07.12v.14c0 .34-.08.66-.12 1v.05zm.24-2.18l-1.08-.1v-.05c0-.42.08-.76.1-1.08v-.05l1.09.2-.1 1v.05zm.18-2.17l-1.09-.08v-.05c0-.33 0-.66.07-1.08V198l1.09.05v.05l-.07 1.1v.05zm.13-2.18l-1.09-.05V195.9h1.09v1.26zm.05-2.19h-1.09v-.05-1.07l.05-.23h1V194.92zm-1.09-2.35v-.05V191.36h1.09V192.56h-1.09zm-.07-2.15v.01c0-.36 0-.72-.05-1.08v-.05l1.09-.07v.05c0 .37 0 .73.05 1.1v.05zm-.12-2.15v-.15c0-.33 0-.65-.08-1v-.05l1.08-.09v.05c0 .36.05.72.09 1.09v.05zm-.18-2.15v.01c0-.36-.08-.72-.12-1.06V185l1.08-.13v.05c0 .4.09.79.11 1.09V186zm-.17-2.09c-.05-.36-.1-.72-.15-1.06v-.05l1.09-.16v.05l.15 1.09v.05zm-.3-2.14v-.05c-.07-.35-.12-.71-.17-1.06v-.05l1-.17v.05c.07.36.12.72.17 1.07v.05zm-.36-2.13c-.06-.36-.13-.71-.21-1.06v-.07l1.14-.23-.11.11c.07.31.13.64.2 1v.05zm-.47-2.09v-.05c-.09-.41-.16-.75-.23-1.05v-.05l1.06-.25v.08c.09.34.16.69.24 1.05v.05zm-.48-2.11v-.05c-.09-.35-.17-.69-.27-1v-.05l1.05-.27v.05c.1.35.18.71.27 1.06zm-.52-2.08v-.05l-.29-1v-.05l1-.3v.05l.29 1.05v.05zm-.6-2.07l-.33-1v-.05l1-.34v.01c.12.35.22.69.33 1v.05zm-146.85-.8h-.07l-1-.31c.11-.35.23-.71.34-1v-.05l1 .34v.05c-.12.37-.23.71-.33 1zm146.2-1.25v-.05c-.12-.34-.23-.67-.35-1l1-.35.36 1v.07zm-145.52-.79l-1-.35v-.05c.12-.35.24-.69.37-1v-.05l1 .37v.05c-.12.34-.25.67-.37 1zm144.81-1.24v-.05c-.12-.33-.24-.65-.37-1h-.25l1.24-.47c.13.33.26.66.39 1zM664 166.5l-1-.38v-.05c.13-.35.27-.68.4-1v-.05l1 .4v.05l-.39 1zm143.3-1.22v-.05c-.13-.34-.27-.66-.41-1l1-.42v.05l.41 1zm-142.5-.81h-.05l-1-.39.07-.15c.12-.3.25-.61.38-.91v-.05l1 .43v.05l-.42 1zm141.67-1.17v-.05l-.43-1v-.05l1-.45v.05c.13.29.29.64.43 1zm-140.82-.79l-1-.45.4-.91.08-.14 1 .46v.05c-.15.33-.3.65-.44 1zm139.94-1.16v-.05l-.46-1v-.05l1-.47c.15.33.31.65.47 1zm-139-.8l-1-.47c.16-.36.33-.68.48-1v-.05l1 .49c-.16.33-.33.65-.48 1zm138.09-1.14l-.49-1v-.05l1-.5v.05l.49 1v.05zm-137.13-.79l-1-.5c.16-.33.34-.65.51-1l1 .51v.05c-.17.31-.34.63-.5 1zm136.14-1.11v-.05l-.52-.94.94-.53v.05l.42.78.12.22zm-135.12-.79l-.94-.53.42-.76.14-.25.94.54v.05c-.15.26-.31.55-.52.93zm134.08-1.09v-.05l-.54-.92v-.05l.93-.55v.05c.18.3.37.62.54.93v.05zm-133-.79l-.93-.55.56-.94.92.56-.55.92zm131.91-1.06l-.55-.89h-.16l1-.65.49.78.11.2zM670.72 153l-.91-.58v-.05l.59-.91v-.05l.91.6c-.2.3-.39.61-.58.91zm129.64-1l-.48-.72-.15-.23.94-.63v.09l.6.9zm-128.43-.75l-.94-.63v-.11l.58-.86.9.61v.05c-.21.28-.4.58-.6.87v.09zm127.23-1l-.62-.88.89-.64v.05l.57.72zm-126-.77l-.89-.63.64-.88.88.64c-.22.28-.42.58-.63.87zm124.8-1l-.6-.81-.05.05v-.16l.82-.62.65.87zm-123.53-.75l-.87-.66v-.11l.47-.62.19-.26.86.67c-.23.29-.45.58-.65.86zm122.24-1l-.67-.85.84-.65h.13l-.05.05c.21.25.4.5.6.76l.09.11zm-120.91-.74l-.86-.68.68-.85.84.69c-.23.27-.44.55-.67.84zm119.52-.99l-.7-.82.82-.69.13.14c.2.25.4.49.61.74zm-118.2-.73l-.84-.71c.23-.28.47-.55.71-.84l.83.72-.7.81zm116.81-.91l-.72-.81.81-.73.73.81zm-115.38-.74h-.07l-.77-.69c.24-.28.49-.54.73-.81l.79.74-.73.8zm113.93-.87c-.24-.25-.48-.52-.74-.78l.78-.75.75.79zm-112.5-.69l-.79-.75.76-.78.78.76-.69.71zm111-.87l-.75-.76.77-.77c.26.25.51.51.76.76l.05.05zm-109.47-.63l-.81-.82v-.11l.05.05.74-.73.76.78-.75.74v.11zm107.95-.9q-.37-.37-.78-.75l.76-.77.79.75zM683 138l-.74-.78c.27-.25.53-.5.8-.74l.73.8-.79.72zm104.89-.81l-.76-.69-.07.05v-.15l.69-.77c.26.25.53.49.8.74zm-103.3-.64l-.72-.8.83-.72.71.82-.8.72zm101.7-.79l-.81-.69V135l.66-.79.84.72zm-100.07-.62l-.71-.84.84-.69.69.85-.82.68zm98.42-.78l-.85-.67.68-.86.85.68zm-96.76-.6l-.67-.85.86-.67.73.76-.85.66zm95.07-.75l-.86-.65v-.05l.62-.83.87.66zm-93.37-.56l-.66-.87.88-.65.64.88c-.29.21-.58.42-.86.64zm91.64-.73c-.28-.22-.58-.42-.87-.63l.63-.89.88.64zm-89.92-.55l-.63-.88.9-.63.62.9c-.3.2-.6.4-.89.61zm88.16-.69l-.89-.61.6-.9.91.62zm-86.39-.53l-.6-.9.91-.61.59.91-.9.6zm84.6-.67l-.91-.58.58-.91.92.6zm-82.79-.5l-.58-.91.92-.58h.05l.56.92-.91.58zm81-.65h-.05l-.92-.55.55-.93.93.55h.05zm-79.14-.47l-.55-.93h.05l.88-.51.11-.07.54.94h-.05l-.92.54zM774 127l-.94-.53.52-1h.05l1 .53zm-75.32-.3l-.68-1.07h.05l1-.52.52 1h-.05l-.91.5v.18zm73.44-.74l-1-.51h-.05l.5-1h.05l1 .5zm-71.59-.43h-.05l-.48-.91h.05l1-.49h.05l.49 1h-.05l-.91.47h-.09zm69.67-.55l-1-.47h-.05l.47-1h.05l1 .48zm-67.78-.39l-.47-1 1-.47.47 1h-.05l-1 .46zm65.84-.55l-.94-.42-.08.15v-.24l.42-.93h.05l1 .44zm-2-.88l-1-.42h-.05l.42-1 1 .42h.05zm-2-.82l-1-.39h-.05l.38-1 .18-.2-.08.2 1 .38h.05zm-2-.77h-.05l-1-.36h-.05l.45-1.28v.28l1 .36h.05zm-2-.72h-.05l-1-.34h-.05l.34-1 1 .34h.08z" transform="translate(-633.8 -84.88)" id="_编组_17" data-name="&lt;编组&gt;"/></g></g><g id="_编组_18" data-name="&lt;编组&gt;" class="cls-7"><g id="_编组_19" data-name="&lt;编组&gt;"><path class="cls-3" d="M735.88 258.25A64.4 64.4 0 01681 227.53l5.21-3.21a58 58 0 0049.71 27.81 58.66 58.66 0 007.33-.45l.75 6.07a66.57 66.57 0 01-8.12.5zm26.53-5.7l-2.52-5.55A58.36 58.36 0 00787 165.7v-.07l5.33-2.94a64.48 64.48 0 01-29.89 89.82zm-88.95-42.66a65 65 0 01-.31-30.81 64 64 0 014.85-13.59 65.07 65.07 0 0117.55-21.94l3.83 4.77a58.4 58.4 0 00-20 60h.27zm103-58a58.42 58.42 0 00-62-12.3l-2.26-5.69a64.38 64.38 0 0168.55 13.59z" transform="translate(-633.8 -84.88)" id="_编组_20" data-name="&lt;编组&gt;"/></g></g><g id="_编组_21" data-name="&lt;编组&gt;"><g id="_编组_22" data-name="&lt;编组&gt;"><path class="cls-3" d="M737.57 247.49l-.16-5.07h.43l.2 5.07h-.48zm-13.14-1.2l-.34-.07h-.1l1.11-5h.17l.22.05zm26.64-1l-1.44-4.86.34-.1 1.48 4.85zm-39.53-3.63l-.36-.18 2.34-4.5.32.16zm52-1.88l-2.54-4.29.37-.22 2.66 4.32-.09.05-.28.18zm-63.3-5.78l-.3-.27 3.4-3.77.32.29zm74.06-2.66l-3.63-3.54.22-.22.06-.06 3.65 3.51-.16.17-.13.14zm-83.05-7.64l-.26-.39 4.24-2.8.17.26v.09zm91.29-3.27l-4.41-2.52.17-.31 4.42 2.48zm-97.4-9l-.13-.37 4.8-1.63.06.18.07.2zm102.62-3.69l-4.91-1.32.07-.26v-.12l4.91 1.34c0 .12-.07.24-.1.36zm-105.43-9.69a2.19 2.19 0 000-.22v-.21l5.06-.36v.43zm107.26-3.85l-5.07-.07v-.39h5v.44zm-5.59-7.69l-.07-.43 5-.8c0 .12 0 .24.05.36v.07zm-96-1.18l-5-.89v-.43l5 .92-.07.36zm92.62-10.72l-.09-.2-.07-.16 4.65-2v.09l.13.31zm-88.93-1.1l-4.69-2.12.14-.31V171l4.59 2.16-.08.19zm82.59-9.51v-.06l-.2-.25 4-3.15.24.3zm-76.06-1l-3.91-3.23v-.09l.22-.28 3.9 3.24-.23.28zm67.28-7.79l-.13-.1-.19-.14 3.06-4 .32.24zm-58.28-.72l-3-4.1.38-.28 3 4.12-.16.11zm47.59-5.49l-.2-.08-.16-.07 2-4.65.2.08.17.07zm-36.75-.45l-1.86-4.73h.11l.3-.11 1.82 4.73-.13.05-.25.1zm24.82-2.86h-.4l.69-5 .4.06zm-12.82-.16l-.59-5h.4l.56 5h-.4z" transform="translate(-633.8 -84.88)" id="_编组_23" data-name="&lt;编组&gt;"/></g></g><g id="_编组_24" data-name="&lt;编组&gt;"><g id="_编组_25" data-name="&lt;编组&gt;"><path class="cls-3" d="M736.32 244.41v-.91h.44v.91h-.45zm-15.07-2.15l-.37-.1.27-.87.35.1zm30.53-.4l-.28-.86.19-.06.19-.07.29.86zm-44.65-6.41l-.19-.13-.12-.09.52-.75.18.13.17.08zm58.58-.76l-.53-.73.29-.22.51.71-.15.11-.17.13zm-69.93-10l-.23-.3.72-.54.11.14.11.15zm81-1.06l-.73-.53c.07-.1.14-.2.22-.3l.74.52-.21.3zm-88.55-12.68c0-.12-.09-.23-.13-.35l.85-.3c0 .1.07.22.12.32h.19l-.17.06zm95.71-1.25l-.86-.28.13-.43.86.28zm-98.64-14.16v-.37h.9V195.5h.05l-.05.06zm101.18-1.32h-.9v-.4h.86v.41zm-1-3.35v-.37l.9-.06a3.22 3.22 0 010 .37zM688 180.24l-.86-.25.13-.43.86.25v.11c0 .09-.06.18-.08.28zm94.19-4.4c0-.11-.09-.22-.13-.34l.83-.34c0 .12.09.24.14.35zm-87.74-9.57l-.75-.51.21-.31.72.48-.17.25zm80-3.74l-.23-.28.69-.57.24.29zm-69.61-7.61l-.56-.7.17-.14.12-.1.56.72-.29.22zm58.19-2.71l-.31-.2.5-.75h.06l.28.19zm-44.82-4.9l-.32-.85h.07l.32-.12.31.85-.34.13zm30.8-1.44l-.36-.1.23-.88.42.11zm-15.73-1.71v-.9h.45v.9h-.45z" transform="translate(-633.8 -84.88)" id="_编组_26" data-name="&lt;编组&gt;"/></g></g><g id="_编组_27" data-name="&lt;编组&gt;"><g id="_编组_28" data-name="&lt;编组&gt;"><path class="cls-3" d="M689.81 275.76v-.24l2.08-3.68.11.06zM665 255.36a93.51 93.51 0 01-23-61.51 94.62 94.62 0 012.76-22.68l4.22 1v.05a89.71 89.71 0 0019.28 80.3z" transform="translate(-633.8 -84.88)" id="_编组_29" data-name="&lt;编组&gt;"/></g></g><g id="_编组_30" data-name="&lt;编组&gt;"><g id="_编组_31" data-name="&lt;编组&gt;"><path class="cls-3" d="M780.68 267.61l-.56-.92a84.71 84.71 0 0041-72.85l.05-.05 1 .05a86.27 86.27 0 01-41.48 73.78zm-118.46-28.76a86.33 86.33 0 01-3-84.61l1 .5a85.41 85.41 0 003 83.51h.16l-.12.08h-.08zm158.69-51.1v-.05a85.73 85.73 0 00-46.09-69.74l.5-1A86.33 86.33 0 01822 187.62v.05zM745.08 109H745l.11-1h.11z" transform="translate(-633.8 -84.88)" id="_编组_32" data-name="&lt;编组&gt;"/></g></g></g><g id="_编组_33" data-name="&lt;编组&gt;" class="cls-2"><g id="_编组_34" data-name="&lt;编组&gt;"><g id="_编组_35" data-name="&lt;编组&gt;"><path class="cls-3" d="M735.88 216.84a23 23 0 1123-23 23.07 23.07 0 01-23 23zm0-43.84a20.8 20.8 0 1020.8 20.8 20.83 20.83 0 00-20.8-20.8z" transform="translate(-633.8 -84.88)" id="_编组_36" data-name="&lt;编组&gt;"/></g></g><g id="_编组_37" data-name="&lt;编组&gt;"><g id="_编组_38" data-name="&lt;编组&gt;" class="cls-4"><g id="_编组_39" data-name="&lt;编组&gt;"><path class="cls-3" d="M694.42 178.69l-60.63-23 .19-.51a109 109 0 01129.12-66.9l.53.14-16.17 62.78-.53-.14a44.21 44.21 0 00-52.32 27.09zM635.2 155.1l58.6 22.2a45.3 45.3 0 0152.89-27.38l15.63-60.68A107.9 107.9 0 00635.2 155.1z" transform="translate(-633.8 -84.88)" id="_编组_40" data-name="&lt;编组&gt;"/></g></g><g id="_编组_41" data-name="&lt;编组&gt;" class="cls-5"><g id="_编组_42" data-name="&lt;编组&gt;"><path class="cls-3" d="M765.08 160.76l-.41-.36a44.22 44.22 0 00-9.36-6.2l-.49-.24 28.65-58.16.53.2a109.11 109.11 0 0123 15.33l.41.36zm-8.8-7.29a45.3 45.3 0 018.69 5.76l41-47.43a108 108 0 00-22-14.55z" transform="translate(-633.8 -84.88)" id="_编组_43" data-name="&lt;编组&gt;"/></g></g></g><g id="_编组_44" data-name="&lt;编组&gt;"><g id="_编组_45" data-name="&lt;编组&gt;"><path class="cls-3" d="M735.88 266.31a72.51 72.51 0 1172.51-72.51 72.59 72.59 0 01-72.51 72.51zm0-144.54a72 72 0 1072 72 72.11 72.11 0 00-72-72z" transform="translate(-633.8 -84.88)" id="_编组_46" data-name="&lt;编组&gt;"/></g></g><g id="_编组_47" data-name="&lt;编组&gt;" class="cls-6"><g id="_编组_48" data-name="&lt;编组&gt;"><path class="cls-3" d="M741.32 271.57l-.08-1.09h.05l1.07-.08h.05l.09 1.09h-.05l-1.05.09h-.09zm2.17-.17l-.1-1.09h.05l1.07-.12v.05h.05l.12 1h-.17l-1 .1h-.05zm2.18-.25l-.14-1.07h.05l1.08-.15h.05l.14 1.07-1.09.15h-.05zm2.16-.3l-.16-1.06h.05l1.06-.17h.05l.17 1.07-1.08.17h-.05zm2.16-.36l-.2-1.06h.05l1.05-.21h.07l.2 1-1.07.21H750zm2.14-.42l-.22-1.07h.09l1-.22v-.45l.33 1.49-1.06.24h-.05zm3.29-.36l-.1-.39-1 .25h-.05l-.27-1.05h.05l1-.25v-.39l.09.37v.07l.24 1v.46zm1-.67l-.29-1h.05l1-.29h.05l.29 1-1.05.29h-.05zm2.1-.6l-.31-1h.05l1-.33h.05l.33 1h-.05q-.52.18-1 .33zm2.08-.66l-.35-1h.05l.77-.26.3-.1.36 1h-.05l-1 .35zm2.06-.73l-.37-1h.05l1-.38.39 1h-.05l-1 .38zm2-.78l-.4-1h.05l1-.41.42 1h-.05l-1 .41h-.05zm2-.82l-.43-1h.05l1-.43h.05l.45 1h-.05l-1 .45zm2-.89l-.46-1 1-.46h.07l.46.93h-.05l-1 .47zm2-.94l-.49-1 .93-.48v-.18l.08.15v.08l.47.91-1 .49zm1.93-1l-.51-1 .94-.51.53 1-1 .52zm1.91-1.05l-.54-.94.93-.54.55.93c-.3.18-.61.37-.94.55zm1.88-1.12l-.56-.92.91-.56.59.91h-.05l-.92.58zm1.85-1.16l-.59-.91.15-.1c.26-.17.52-.34.78-.52l.61.9-.91.61zm1.81-1.2l-.62-.9.89-.62.63.88-.9.63zm1.78-1.26l-.64-.88.81-.61h.15l.62.82-.88.65zm1.75-1.31l-.66-.86.85-.67.66.87c-.29.22-.58.44-.86.67zm1.7-1.37l-.69-.84.84-.68.71.84c-.27.24-.55.47-.84.69zm1.67-1.4l-.72-.82.81-.72.71.8v.13l-.05-.05-.78.68zm1.63-1.45l-.74-.8.12-.11.72-.66.75.78-.72.67zm1.59-1.5l-.76-.8.77-.75.76.77-.78.77zm1.55-1.55l-.78-.75.73-.76v-.11l.05.05.05-.07v.12l.74.69c-.25.27-.5.53-.76.79zm1.5-1.59l-.79-.73c.27-.28.52-.56.73-.8h.08l.77.68-.74.81zm1.47-1.63l-.81-.71.7-.81h.07l.78.66-.72.84zm1.41-1.66l-.84-.69.68-.84.85.68v.05l-.68.84zm1.37-1.72l-.86-.66c.23-.28.45-.56.66-.86l.87.66-.67.86zm1.32-1.74l-.88-.65c.22-.28.42-.58.63-.87l.84.6c-.22.29-.43.59-.64.89zm1.22-1.81l-.9-.61c.21-.3.41-.6.61-.9l.9.61c-.21.3-.4.61-.61.9zm1.22-1.81l-.91-.59v-.05l.58-.89v-.09l.08-.11v.15l1 .61h-.15l-.58.9zm1.17-1.85l-.93-.58.55-.92.91.59c-.18.31-.37.63-.56.93zm1.12-1.89l-.91-.55.53-.94 1 .52v.05c-.18.31-.36.64-.54 1zm1.06-1.91l-1-.52.48-.91-.11-.08h.21l.91.48c-.16.33-.34.65-.51 1zm1-2l-1-.48v-.05c.16-.31.33-.64.48-1v-.05l1 .48v.05c-.15.33-.31.65-.48 1zm.94-2l-1-.47.44-1 1 .44c-.14.34-.29.67-.45 1zm.9-2l-1-.43v-.05c.15-.33.29-.66.42-1v-.05l1 .41v.05l-.43 1zm.85-2l-1-.4v-.05l.39-1v-.05l1.24.48h-.26l-.38 1zm.78-2.05l-1-.37v-.05l.36-1 1 .36c-.12.35-.25.69-.37 1zm.73-2.06l-1-.35v-.05c.11-.34.22-.68.34-1l1 .33v.05c-.1.3-.21.64-.35 1v.05zm.66-2.1l-1-.31v-.13c.1-.31.2-.64.28-1v-.05l1 .3v.05c-.1.35-.2.69-.3 1zm.61-2.11l-1-.28V214c.1-.34.18-.68.27-1h.26l.79.25c-.09.36-.18.71-.27 1.06zm.54-2.12l-1.05-.25v.05c.09-.35.17-.69.25-1.05v-.05l1.05.34c-.08.31-.15.65-.24 1zm.49-2.13l-1.05-.23v-.05c.07-.35.14-.69.21-1.05v-.05l1.07.22v.09l-.23 1.06v.05zm.42-2.14l-1.06-.21c.05-.29.1-.58.15-.86v-.26l1.07.19-.2 1.09v.12zm.37-2.16l-1.08-.16v-.05c.07-.43.12-.76.15-1.06l1.07.14v.05c0 .3-.1.69-.15 1.09v.05zm.3-2.16l-1.07-.14v-.05c0-.36.08-.72.12-1.06v-.05l1.07.12v.14c0 .34-.08.66-.12 1v.05zm.24-2.18l-1.08-.1v-.05c0-.42.08-.76.1-1.08v-.05l1.09.2-.1 1v.05zm.18-2.17l-1.09-.08v-.05c0-.33 0-.66.07-1.08V198l1.09.05v.05l-.07 1.1v.05zm.13-2.18l-1.09-.05V195.9h1.09v1.26zm.05-2.19h-1.09v-.05-1.07l.05-.23h1V194.92zm-1.09-2.35v-.05V191.36h1.09V192.56h-1.09zm-.07-2.15v.01c0-.36 0-.72-.05-1.08v-.05l1.09-.07v.05c0 .37 0 .73.05 1.1v.05zm-.12-2.15v-.15c0-.33 0-.65-.08-1v-.05l1.08-.09v.05c0 .36.05.72.09 1.09v.05zm-.18-2.15v.01c0-.36-.08-.72-.12-1.06V185l1.08-.13v.05c0 .4.09.79.11 1.09V186zm-.17-2.09c-.05-.36-.1-.72-.15-1.06v-.05l1.09-.16v.05l.15 1.09v.05zm-.3-2.14v-.05c-.07-.35-.12-.71-.17-1.06v-.05l1-.17v.05c.07.36.12.72.17 1.07v.05zm-.36-2.13c-.06-.36-.13-.71-.21-1.06v-.07l1.14-.23-.11.11c.07.31.13.64.2 1v.05zm-.47-2.09v-.05c-.09-.41-.16-.75-.23-1.05v-.05l1.06-.25v.08c.09.34.16.69.24 1.05v.05zm-.48-2.11v-.05c-.09-.35-.17-.69-.27-1v-.05l1.05-.27v.05c.1.35.18.71.27 1.06zm-.52-2.08v-.05l-.29-1v-.05l1-.3v.05l.29 1.05v.05zm-.6-2.07l-.33-1v-.05l1-.34v.01c.12.35.22.69.33 1v.05zm-146.85-.8h-.07l-1-.31c.11-.35.23-.71.34-1v-.05l1 .34v.05c-.12.37-.23.71-.33 1zm146.2-1.25v-.05c-.12-.34-.23-.67-.35-1l1-.35.36 1v.07zm-145.52-.79l-1-.35v-.05c.12-.35.24-.69.37-1v-.05l1 .37v.05c-.12.34-.25.67-.37 1zm144.81-1.24v-.05c-.12-.33-.24-.65-.37-1h-.25l1.24-.47c.13.33.26.66.39 1zM664 166.5l-1-.38v-.05c.13-.35.27-.68.4-1v-.05l1 .4v.05l-.39 1zm143.3-1.22v-.05c-.13-.34-.27-.66-.41-1l1-.42v.05l.41 1zm-142.5-.81h-.05l-1-.39.07-.15c.12-.3.25-.61.38-.91v-.05l1 .43v.05l-.42 1zm141.67-1.17v-.05l-.43-1v-.05l1-.45v.05c.13.29.29.64.43 1zm-140.82-.79l-1-.45.4-.91.08-.14 1 .46v.05c-.15.33-.3.65-.44 1zm139.94-1.16v-.05l-.46-1v-.05l1-.47c.15.33.31.65.47 1zm-139-.8l-1-.47c.16-.36.33-.68.48-1v-.05l1 .49c-.16.33-.33.65-.48 1zm138.09-1.14l-.49-1v-.05l1-.5v.05l.49 1v.05zm-137.13-.79l-1-.5c.16-.33.34-.65.51-1l1 .51v.05c-.17.31-.34.63-.5 1zm136.14-1.11v-.05l-.52-.94.94-.53v.05l.42.78.12.22zm-135.12-.79l-.94-.53.42-.76.14-.25.94.54v.05c-.15.26-.31.55-.52.93zm134.08-1.09v-.05l-.54-.92v-.05l.93-.55v.05c.18.3.37.62.54.93v.05zm-133-.79l-.93-.55.56-.94.92.56-.55.92zm131.91-1.06l-.55-.89h-.16l1-.65.49.78.11.2zM670.72 153l-.91-.58v-.05l.59-.91v-.05l.91.6c-.2.3-.39.61-.58.91zm129.64-1l-.48-.72-.15-.23.94-.63v.09l.6.9zm-128.43-.75l-.94-.63v-.11l.58-.86.9.61v.05c-.21.28-.4.58-.6.87v.09zm127.23-1l-.62-.88.89-.64v.05l.57.72zm-126-.77l-.89-.63.64-.88.88.64c-.22.28-.42.58-.63.87zm124.8-1l-.6-.81-.05.05v-.16l.82-.62.65.87zm-123.53-.75l-.87-.66v-.11l.47-.62.19-.26.86.67c-.23.29-.45.58-.65.86zm122.24-1l-.67-.85.84-.65h.13l-.05.05c.21.25.4.5.6.76l.09.11zm-120.91-.74l-.86-.68.68-.85.84.69c-.23.27-.44.55-.67.84zm119.52-.99l-.7-.82.82-.69.13.14c.2.25.4.49.61.74zm-118.2-.73l-.84-.71c.23-.28.47-.55.71-.84l.83.72-.7.81zm116.81-.91l-.72-.81.81-.73.73.81zm-115.38-.74h-.07l-.77-.69c.24-.28.49-.54.73-.81l.79.74-.73.8zm113.93-.87c-.24-.25-.48-.52-.74-.78l.78-.75.75.79zm-112.5-.69l-.79-.75.76-.78.78.76-.69.71zm111-.87l-.75-.76.77-.77c.26.25.51.51.76.76l.05.05zm-109.47-.63l-.81-.82v-.11l.05.05.74-.73.76.78-.75.74v.11zm107.95-.9q-.37-.37-.78-.75l.76-.77.79.75zM683 138l-.74-.78c.27-.25.53-.5.8-.74l.73.8-.79.72zm104.89-.81l-.76-.69-.07.05v-.15l.69-.77c.26.25.53.49.8.74zm-103.3-.64l-.72-.8.83-.72.71.82-.8.72zm101.7-.79l-.81-.69V135l.66-.79.84.72zm-100.07-.62l-.71-.84.84-.69.69.85-.82.68zm98.42-.78l-.85-.67.68-.86.85.68zm-96.76-.6l-.67-.85.86-.67.73.76-.85.66zm95.07-.75l-.86-.65v-.05l.62-.83.87.66zm-93.37-.56l-.66-.87.88-.65.64.88c-.29.21-.58.42-.86.64zm91.64-.73c-.28-.22-.58-.42-.87-.63l.63-.89.88.64zm-89.92-.55l-.63-.88.9-.63.62.9c-.3.2-.6.4-.89.61zm88.16-.69l-.89-.61.6-.9.91.62zm-86.39-.53l-.6-.9.91-.61.59.91-.9.6zm84.6-.67l-.91-.58.58-.91.92.6zm-82.79-.5l-.58-.91.92-.58h.05l.56.92-.91.58zm81-.65h-.05l-.92-.55.55-.93.93.55h.05zm-79.14-.47l-.55-.93h.05l.88-.51.11-.07.54.94h-.05l-.92.54zM774 127l-.94-.53.52-1h.05l1 .53zm-75.32-.3l-.68-1.07h.05l1-.52.52 1h-.05l-.91.5v.18zm73.44-.74l-1-.51h-.05l.5-1h.05l1 .5zm-71.59-.43h-.05l-.48-.91h.05l1-.49h.05l.49 1h-.05l-.91.47h-.09zm69.67-.55l-1-.47h-.05l.47-1h.05l1 .48zm-67.78-.39l-.47-1 1-.47.47 1h-.05l-1 .46zm65.84-.55l-.94-.42-.08.15v-.24l.42-.93h.05l1 .44zm-2-.88l-1-.42h-.05l.42-1 1 .42h.05zm-2-.82l-1-.39h-.05l.38-1 .18-.2-.08.2 1 .38h.05zm-2-.77h-.05l-1-.36h-.05l.45-1.28v.28l1 .36h.05zm-2-.72h-.05l-1-.34h-.05l.34-1 1 .34h.08z" transform="translate(-633.8 -84.88)" id="_编组_49" data-name="&lt;编组&gt;"/></g></g><g id="_编组_50" data-name="&lt;编组&gt;" class="cls-7"><g id="_编组_51" data-name="&lt;编组&gt;"><path class="cls-3" d="M735.88 258.25A64.4 64.4 0 01681 227.53l5.21-3.21a58 58 0 0049.71 27.81 58.66 58.66 0 007.33-.45l.75 6.07a66.57 66.57 0 01-8.12.5zm26.53-5.7l-2.52-5.55A58.36 58.36 0 00787 165.7v-.07l5.33-2.94a64.48 64.48 0 01-29.89 89.82zm-88.95-42.66a65 65 0 01-.31-30.81 64 64 0 014.85-13.59 65.07 65.07 0 0117.55-21.94l3.83 4.77a58.4 58.4 0 00-20 60h.27zm103-58a58.42 58.42 0 00-62-12.3l-2.26-5.69a64.38 64.38 0 0168.55 13.59z" transform="translate(-633.8 -84.88)" id="_编组_52" data-name="&lt;编组&gt;"/></g></g><g id="_编组_53" data-name="&lt;编组&gt;" class="cls-7"><g id="_编组_54" data-name="&lt;编组&gt;"><path class="cls-3" d="M735.88 258.25A64.4 64.4 0 01681 227.53l5.21-3.21a58 58 0 0049.71 27.81 58.66 58.66 0 007.33-.45l.75 6.07a66.57 66.57 0 01-8.12.5zm26.53-5.7l-2.52-5.55A58.36 58.36 0 00787 165.7v-.07l5.33-2.94a64.48 64.48 0 01-29.89 89.82zm-88.95-42.66a65 65 0 01-.31-30.81 64 64 0 014.85-13.59 65.07 65.07 0 0117.55-21.94l3.83 4.77a58.4 58.4 0 00-20 60h.27zm103-58a58.42 58.42 0 00-62-12.3l-2.26-5.69a64.38 64.38 0 0168.55 13.59z" transform="translate(-633.8 -84.88)" id="_编组_55" data-name="&lt;编组&gt;"/></g></g><g id="_编组_56" data-name="&lt;编组&gt;"><g id="_编组_57" data-name="&lt;编组&gt;"><path class="cls-3" d="M735.88 258.25A64.4 64.4 0 01681 227.53l5.21-3.21a58 58 0 0049.71 27.81 58.66 58.66 0 007.33-.45l.75 6.07a66.57 66.57 0 01-8.12.5zm26.53-5.7l-2.52-5.55A58.36 58.36 0 00787 165.7v-.07l5.33-2.94a64.48 64.48 0 01-29.89 89.82zm-88.95-42.66a65 65 0 01-.31-30.81 64 64 0 014.85-13.59 65.07 65.07 0 0117.55-21.94l3.83 4.77a58.4 58.4 0 00-20 60h.27zm103-58a58.42 58.42 0 00-62-12.3l-2.26-5.69a64.38 64.38 0 0168.55 13.59z" transform="translate(-633.8 -84.88)" id="_编组_58" data-name="&lt;编组&gt;"/></g></g><g id="_编组_59" data-name="&lt;编组&gt;"><g id="_编组_60" data-name="&lt;编组&gt;"><path class="cls-3" d="M735.88 258.25A64.4 64.4 0 01681 227.53l5.21-3.21a58 58 0 0049.71 27.81 58.66 58.66 0 007.33-.45l.75 6.07a66.57 66.57 0 01-8.12.5zm26.53-5.7l-2.52-5.55A58.36 58.36 0 00787 165.7v-.07l5.33-2.94a64.48 64.48 0 01-29.89 89.82zm-88.95-42.66a65 65 0 01-.31-30.81 64 64 0 014.85-13.59 65.07 65.07 0 0117.55-21.94l3.83 4.77a58.4 58.4 0 00-20 60h.27zm103-58a58.42 58.42 0 00-62-12.3l-2.26-5.69a64.38 64.38 0 0168.55 13.59z" transform="translate(-633.8 -84.88)" id="_编组_61" data-name="&lt;编组&gt;"/></g></g><g id="_编组_62" data-name="&lt;编组&gt;"><g id="_编组_63" data-name="&lt;编组&gt;"><path class="cls-3" d="M735.88 258.25A64.4 64.4 0 01681 227.53l5.21-3.21a58 58 0 0049.71 27.81 58.66 58.66 0 007.33-.45l.75 6.07a66.57 66.57 0 01-8.12.5zm26.53-5.7l-2.52-5.55A58.36 58.36 0 00787 165.7v-.07l5.33-2.94a64.48 64.48 0 01-29.89 89.82zm-88.95-42.66a65 65 0 01-.31-30.81 64 64 0 014.85-13.59 65.07 65.07 0 0117.55-21.94l3.83 4.77a58.4 58.4 0 00-20 60h.27zm103-58a58.42 58.42 0 00-62-12.3l-2.26-5.69a64.38 64.38 0 0168.55 13.59z" transform="translate(-633.8 -84.88)" id="_编组_64" data-name="&lt;编组&gt;"/></g></g><g id="_编组_65" data-name="&lt;编组&gt;"><g id="_编组_66" data-name="&lt;编组&gt;"><path class="cls-3" d="M737.57 247.49l-.16-5.07h.43l.2 5.07h-.48zm-13.14-1.2l-.34-.07h-.1l1.11-5h.17l.22.05zm26.64-1l-1.44-4.86.34-.1 1.48 4.85zm-39.53-3.63l-.36-.18 2.34-4.5.32.16zm52-1.88l-2.54-4.29.37-.22 2.66 4.32-.09.05-.28.18zm-63.3-5.78l-.3-.27 3.4-3.77.32.29zm74.06-2.66l-3.63-3.54.22-.22.06-.06 3.65 3.51-.16.17-.13.14zm-83.05-7.64l-.26-.39 4.24-2.8.17.26v.09zm91.29-3.27l-4.41-2.52.17-.31 4.42 2.48zm-97.4-9l-.13-.37 4.8-1.63.06.18.07.2zm102.62-3.69l-4.91-1.32.07-.26v-.12l4.91 1.34c0 .12-.07.24-.1.36zm-105.43-9.69a2.19 2.19 0 000-.22v-.21l5.06-.36v.43zm107.26-3.85l-5.07-.07v-.39h5v.44zm-5.59-7.69l-.07-.43 5-.8c0 .12 0 .24.05.36v.07zm-96-1.18l-5-.89v-.43l5 .92-.07.36zm92.62-10.72l-.09-.2-.07-.16 4.65-2v.09l.13.31zm-88.93-1.1l-4.69-2.12.14-.31V171l4.59 2.16-.08.19zm82.59-9.51v-.06l-.2-.25 4-3.15.24.3zm-76.06-1l-3.91-3.23v-.09l.22-.28 3.9 3.24-.23.28zm67.28-7.79l-.13-.1-.19-.14 3.06-4 .32.24zm-58.28-.72l-3-4.1.38-.28 3 4.12-.16.11zm47.59-5.49l-.2-.08-.16-.07 2-4.65.2.08.17.07zm-36.75-.45l-1.86-4.73h.11l.3-.11 1.82 4.73-.13.05-.25.1zm24.82-2.86h-.4l.69-5 .4.06zm-12.82-.16l-.59-5h.4l.56 5h-.4z" transform="translate(-633.8 -84.88)" id="_编组_67" data-name="&lt;编组&gt;"/></g></g><g id="_编组_68" data-name="&lt;编组&gt;"><g id="_编组_69" data-name="&lt;编组&gt;"><path class="cls-3" d="M736.32 244.41v-.91h.44v.91h-.45zm-15.07-2.15l-.37-.1.27-.87.35.1zm30.53-.4l-.28-.86.19-.06.19-.07.29.86zm-44.65-6.41l-.19-.13-.12-.09.52-.75.18.13.17.08zm58.58-.76l-.53-.73.29-.22.51.71-.15.11-.17.13zm-69.93-10l-.23-.3.72-.54.11.14.11.15zm81-1.06l-.73-.53c.07-.1.14-.2.22-.3l.74.52-.21.3zm-88.55-12.68c0-.12-.09-.23-.13-.35l.85-.3c0 .1.07.22.12.32h.19l-.17.06zm95.71-1.25l-.86-.28.13-.43.86.28zm-98.64-14.16v-.37h.9V195.5h.05l-.05.06zm101.18-1.32h-.9v-.4h.86v.41zm-1-3.35v-.37l.9-.06a3.22 3.22 0 010 .37zM688 180.24l-.86-.25.13-.43.86.25v.11c0 .09-.06.18-.08.28zm94.19-4.4c0-.11-.09-.22-.13-.34l.83-.34c0 .12.09.24.14.35zm-87.74-9.57l-.75-.51.21-.31.72.48-.17.25zm80-3.74l-.23-.28.69-.57.24.29zm-69.61-7.61l-.56-.7.17-.14.12-.1.56.72-.29.22zm58.19-2.71l-.31-.2.5-.75h.06l.28.19zm-44.82-4.9l-.32-.85h.07l.32-.12.31.85-.34.13zm30.8-1.44l-.36-.1.23-.88.42.11zm-15.73-1.71v-.9h.45v.9h-.45z" transform="translate(-633.8 -84.88)" id="_编组_70" data-name="&lt;编组&gt;"/></g></g><g id="_编组_71" data-name="&lt;编组&gt;"><g id="_编组_72" data-name="&lt;编组&gt;"><path class="cls-3" d="M689.81 275.76v-.24l2.08-3.68.11.06zM665 255.36a93.51 93.51 0 01-23-61.51 94.62 94.62 0 012.76-22.68l4.22 1v.05a89.71 89.71 0 0019.28 80.3z" transform="translate(-633.8 -84.88)" id="_编组_73" data-name="&lt;编组&gt;"/></g></g><g id="_编组_74" data-name="&lt;编组&gt;"><g id="_编组_75" data-name="&lt;编组&gt;"><path class="cls-3" d="M780.68 267.61l-.56-.92a84.71 84.71 0 0041-72.85l.05-.05 1 .05a86.27 86.27 0 01-41.48 73.78zm-118.46-28.76a86.33 86.33 0 01-3-84.61l1 .5a85.41 85.41 0 003 83.51h.16l-.12.08h-.08zm158.69-51.1v-.05a85.73 85.73 0 00-46.09-69.74l.5-1A86.33 86.33 0 01822 187.62v.05zM745.08 109H745l.11-1h.11z" transform="translate(-633.8 -84.88)" id="_编组_76" data-name="&lt;编组&gt;"/></g></g></g><g id="_编组_77" data-name="&lt;编组&gt;" class="cls-2"><g id="_编组_78" data-name="&lt;编组&gt;"><g id="_编组_79" data-name="&lt;编组&gt;"><path class="cls-3" d="M735.88 216.84a23 23 0 1123-23 23.07 23.07 0 01-23 23zm0-43.84a20.8 20.8 0 1020.8 20.8 20.83 20.83 0 00-20.8-20.8z" transform="translate(-633.8 -84.88)" id="_编组_80" data-name="&lt;编组&gt;"/></g></g><g id="_编组_81" data-name="&lt;编组&gt;"><g id="_编组_82" data-name="&lt;编组&gt;" class="cls-4"><g id="_编组_83" data-name="&lt;编组&gt;"><path class="cls-3" d="M694.42 178.69l-60.63-23 .19-.51a109 109 0 01129.12-66.9l.53.14-16.17 62.78-.53-.14a44.21 44.21 0 00-52.32 27.09zM635.2 155.1l58.6 22.2a45.3 45.3 0 0152.89-27.38l15.63-60.68A107.9 107.9 0 00635.2 155.1z" transform="translate(-633.8 -84.88)" id="_编组_84" data-name="&lt;编组&gt;"/></g></g><g id="_编组_85" data-name="&lt;编组&gt;" class="cls-5"><g id="_编组_86" data-name="&lt;编组&gt;"><path class="cls-3" d="M765.08 160.76l-.41-.36a44.22 44.22 0 00-9.36-6.2l-.49-.24 28.65-58.16.53.2a109.11 109.11 0 0123 15.33l.41.36zm-8.8-7.29a45.3 45.3 0 018.69 5.76l41-47.43a108 108 0 00-22-14.55z" transform="translate(-633.8 -84.88)" id="_编组_87" data-name="&lt;编组&gt;"/></g></g></g><g id="_编组_88" data-name="&lt;编组&gt;"><g id="_编组_89" data-name="&lt;编组&gt;"><path class="cls-3" d="M735.88 266.31a72.51 72.51 0 1172.51-72.51 72.59 72.59 0 01-72.51 72.51zm0-144.54a72 72 0 1072 72 72.11 72.11 0 00-72-72z" transform="translate(-633.8 -84.88)" id="_编组_90" data-name="&lt;编组&gt;"/></g></g><g id="_编组_91" data-name="&lt;编组&gt;" class="cls-6"><g id="_编组_92" data-name="&lt;编组&gt;"><path class="cls-3" d="M741.32 271.57l-.08-1.09h.05l1.07-.08h.05l.09 1.09h-.05l-1.05.09h-.09zm2.17-.17l-.1-1.09h.05l1.07-.12v.05h.05l.12 1h-.17l-1 .1h-.05zm2.18-.25l-.14-1.07h.05l1.08-.15h.05l.14 1.07-1.09.15h-.05zm2.16-.3l-.16-1.06h.05l1.06-.17h.05l.17 1.07-1.08.17h-.05zm2.16-.36l-.2-1.06h.05l1.05-.21h.07l.2 1-1.07.21H750zm2.14-.42l-.22-1.07h.09l1-.22v-.45l.33 1.49-1.06.24h-.05zm3.29-.36l-.1-.39-1 .25h-.05l-.27-1.05h.05l1-.25v-.39l.09.37v.07l.24 1v.46zm1-.67l-.29-1h.05l1-.29h.05l.29 1-1.05.29h-.05zm2.1-.6l-.31-1h.05l1-.33h.05l.33 1h-.05q-.52.18-1 .33zm2.08-.66l-.35-1h.05l.77-.26.3-.1.36 1h-.05l-1 .35zm2.06-.73l-.37-1h.05l1-.38.39 1h-.05l-1 .38zm2-.78l-.4-1h.05l1-.41.42 1h-.05l-1 .41h-.05zm2-.82l-.43-1h.05l1-.43h.05l.45 1h-.05l-1 .45zm2-.89l-.46-1 1-.46h.07l.46.93h-.05l-1 .47zm2-.94l-.49-1 .93-.48v-.18l.08.15v.08l.47.91-1 .49zm1.93-1l-.51-1 .94-.51.53 1-1 .52zm1.91-1.05l-.54-.94.93-.54.55.93c-.3.18-.61.37-.94.55zm1.88-1.12l-.56-.92.91-.56.59.91h-.05l-.92.58zm1.85-1.16l-.59-.91.15-.1c.26-.17.52-.34.78-.52l.61.9-.91.61zm1.81-1.2l-.62-.9.89-.62.63.88-.9.63zm1.78-1.26l-.64-.88.81-.61h.15l.62.82-.88.65zm1.75-1.31l-.66-.86.85-.67.66.87c-.29.22-.58.44-.86.67zm1.7-1.37l-.69-.84.84-.68.71.84c-.27.24-.55.47-.84.69zm1.67-1.4l-.72-.82.81-.72.71.8v.13l-.05-.05-.78.68zm1.63-1.45l-.74-.8.12-.11.72-.66.75.78-.72.67zm1.59-1.5l-.76-.8.77-.75.76.77-.78.77zm1.55-1.55l-.78-.75.73-.76v-.11l.05.05.05-.07v.12l.74.69c-.25.27-.5.53-.76.79zm1.5-1.59l-.79-.73c.27-.28.52-.56.73-.8h.08l.77.68-.74.81zm1.47-1.63l-.81-.71.7-.81h.07l.78.66-.72.84zm1.41-1.66l-.84-.69.68-.84.85.68v.05l-.68.84zm1.37-1.72l-.86-.66c.23-.28.45-.56.66-.86l.87.66-.67.86zm1.32-1.74l-.88-.65c.22-.28.42-.58.63-.87l.84.6c-.22.29-.43.59-.64.89zm1.22-1.81l-.9-.61c.21-.3.41-.6.61-.9l.9.61c-.21.3-.4.61-.61.9zm1.22-1.81l-.91-.59v-.05l.58-.89v-.09l.08-.11v.15l1 .61h-.15l-.58.9zm1.17-1.85l-.93-.58.55-.92.91.59c-.18.31-.37.63-.56.93zm1.12-1.89l-.91-.55.53-.94 1 .52v.05c-.18.31-.36.64-.54 1zm1.06-1.91l-1-.52.48-.91-.11-.08h.21l.91.48c-.16.33-.34.65-.51 1zm1-2l-1-.48v-.05c.16-.31.33-.64.48-1v-.05l1 .48v.05c-.15.33-.31.65-.48 1zm.94-2l-1-.47.44-1 1 .44c-.14.34-.29.67-.45 1zm.9-2l-1-.43v-.05c.15-.33.29-.66.42-1v-.05l1 .41v.05l-.43 1zm.85-2l-1-.4v-.05l.39-1v-.05l1.24.48h-.26l-.38 1zm.78-2.05l-1-.37v-.05l.36-1 1 .36c-.12.35-.25.69-.37 1zm.73-2.06l-1-.35v-.05c.11-.34.22-.68.34-1l1 .33v.05c-.1.3-.21.64-.35 1v.05zm.66-2.1l-1-.31v-.13c.1-.31.2-.64.28-1v-.05l1 .3v.05c-.1.35-.2.69-.3 1zm.61-2.11l-1-.28V214c.1-.34.18-.68.27-1h.26l.79.25c-.09.36-.18.71-.27 1.06zm.54-2.12l-1.05-.25v.05c.09-.35.17-.69.25-1.05v-.05l1.05.34c-.08.31-.15.65-.24 1zm.49-2.13l-1.05-.23v-.05c.07-.35.14-.69.21-1.05v-.05l1.07.22v.09l-.23 1.06v.05zm.42-2.14l-1.06-.21c.05-.29.1-.58.15-.86v-.26l1.07.19-.2 1.09v.12zm.37-2.16l-1.08-.16v-.05c.07-.43.12-.76.15-1.06l1.07.14v.05c0 .3-.1.69-.15 1.09v.05zm.3-2.16l-1.07-.14v-.05c0-.36.08-.72.12-1.06v-.05l1.07.12v.14c0 .34-.08.66-.12 1v.05zm.24-2.18l-1.08-.1v-.05c0-.42.08-.76.1-1.08v-.05l1.09.2-.1 1v.05zm.18-2.17l-1.09-.08v-.05c0-.33 0-.66.07-1.08V198l1.09.05v.05l-.07 1.1v.05zm.13-2.18l-1.09-.05V195.9h1.09v1.26zm.05-2.19h-1.09v-.05-1.07l.05-.23h1V194.92zm-1.09-2.35v-.05V191.36h1.09V192.56h-1.09zm-.07-2.15v.01c0-.36 0-.72-.05-1.08v-.05l1.09-.07v.05c0 .37 0 .73.05 1.1v.05zm-.12-2.15v-.15c0-.33 0-.65-.08-1v-.05l1.08-.09v.05c0 .36.05.72.09 1.09v.05zm-.18-2.15v.01c0-.36-.08-.72-.12-1.06V185l1.08-.13v.05c0 .4.09.79.11 1.09V186zm-.17-2.09c-.05-.36-.1-.72-.15-1.06v-.05l1.09-.16v.05l.15 1.09v.05zm-.3-2.14v-.05c-.07-.35-.12-.71-.17-1.06v-.05l1-.17v.05c.07.36.12.72.17 1.07v.05zm-.36-2.13c-.06-.36-.13-.71-.21-1.06v-.07l1.14-.23-.11.11c.07.31.13.64.2 1v.05zm-.47-2.09v-.05c-.09-.41-.16-.75-.23-1.05v-.05l1.06-.25v.08c.09.34.16.69.24 1.05v.05zm-.48-2.11v-.05c-.09-.35-.17-.69-.27-1v-.05l1.05-.27v.05c.1.35.18.71.27 1.06zm-.52-2.08v-.05l-.29-1v-.05l1-.3v.05l.29 1.05v.05zm-.6-2.07l-.33-1v-.05l1-.34v.01c.12.35.22.69.33 1v.05zm-146.85-.8h-.07l-1-.31c.11-.35.23-.71.34-1v-.05l1 .34v.05c-.12.37-.23.71-.33 1zm146.2-1.25v-.05c-.12-.34-.23-.67-.35-1l1-.35.36 1v.07zm-145.52-.79l-1-.35v-.05c.12-.35.24-.69.37-1v-.05l1 .37v.05c-.12.34-.25.67-.37 1zm144.81-1.24v-.05c-.12-.33-.24-.65-.37-1h-.25l1.24-.47c.13.33.26.66.39 1zM664 166.5l-1-.38v-.05c.13-.35.27-.68.4-1v-.05l1 .4v.05l-.39 1zm143.3-1.22v-.05c-.13-.34-.27-.66-.41-1l1-.42v.05l.41 1zm-142.5-.81h-.05l-1-.39.07-.15c.12-.3.25-.61.38-.91v-.05l1 .43v.05l-.42 1zm141.67-1.17v-.05l-.43-1v-.05l1-.45v.05c.13.29.29.64.43 1zm-140.82-.79l-1-.45.4-.91.08-.14 1 .46v.05c-.15.33-.3.65-.44 1zm139.94-1.16v-.05l-.46-1v-.05l1-.47c.15.33.31.65.47 1zm-139-.8l-1-.47c.16-.36.33-.68.48-1v-.05l1 .49c-.16.33-.33.65-.48 1zm138.09-1.14l-.49-1v-.05l1-.5v.05l.49 1v.05zm-137.13-.79l-1-.5c.16-.33.34-.65.51-1l1 .51v.05c-.17.31-.34.63-.5 1zm136.14-1.11v-.05l-.52-.94.94-.53v.05l.42.78.12.22zm-135.12-.79l-.94-.53.42-.76.14-.25.94.54v.05c-.15.26-.31.55-.52.93zm134.08-1.09v-.05l-.54-.92v-.05l.93-.55v.05c.18.3.37.62.54.93v.05zm-133-.79l-.93-.55.56-.94.92.56-.55.92zm131.91-1.06l-.55-.89h-.16l1-.65.49.78.11.2zM670.72 153l-.91-.58v-.05l.59-.91v-.05l.91.6c-.2.3-.39.61-.58.91zm129.64-1l-.48-.72-.15-.23.94-.63v.09l.6.9zm-128.43-.75l-.94-.63v-.11l.58-.86.9.61v.05c-.21.28-.4.58-.6.87v.09zm127.23-1l-.62-.88.89-.64v.05l.57.72zm-126-.77l-.89-.63.64-.88.88.64c-.22.28-.42.58-.63.87zm124.8-1l-.6-.81-.05.05v-.16l.82-.62.65.87zm-123.53-.75l-.87-.66v-.11l.47-.62.19-.26.86.67c-.23.29-.45.58-.65.86zm122.24-1l-.67-.85.84-.65h.13l-.05.05c.21.25.4.5.6.76l.09.11zm-120.91-.74l-.86-.68.68-.85.84.69c-.23.27-.44.55-.67.84zm119.52-.99l-.7-.82.82-.69.13.14c.2.25.4.49.61.74zm-118.2-.73l-.84-.71c.23-.28.47-.55.71-.84l.83.72-.7.81zm116.81-.91l-.72-.81.81-.73.73.81zm-115.38-.74h-.07l-.77-.69c.24-.28.49-.54.73-.81l.79.74-.73.8zm113.93-.87c-.24-.25-.48-.52-.74-.78l.78-.75.75.79zm-112.5-.69l-.79-.75.76-.78.78.76-.69.71zm111-.87l-.75-.76.77-.77c.26.25.51.51.76.76l.05.05zm-109.47-.63l-.81-.82v-.11l.05.05.74-.73.76.78-.75.74v.11zm107.95-.9q-.37-.37-.78-.75l.76-.77.79.75zM683 138l-.74-.78c.27-.25.53-.5.8-.74l.73.8-.79.72zm104.89-.81l-.76-.69-.07.05v-.15l.69-.77c.26.25.53.49.8.74zm-103.3-.64l-.72-.8.83-.72.71.82-.8.72zm101.7-.79l-.81-.69V135l.66-.79.84.72zm-100.07-.62l-.71-.84.84-.69.69.85-.82.68zm98.42-.78l-.85-.67.68-.86.85.68zm-96.76-.6l-.67-.85.86-.67.73.76-.85.66zm95.07-.75l-.86-.65v-.05l.62-.83.87.66zm-93.37-.56l-.66-.87.88-.65.64.88c-.29.21-.58.42-.86.64zm91.64-.73c-.28-.22-.58-.42-.87-.63l.63-.89.88.64zm-89.92-.55l-.63-.88.9-.63.62.9c-.3.2-.6.4-.89.61zm88.16-.69l-.89-.61.6-.9.91.62zm-86.39-.53l-.6-.9.91-.61.59.91-.9.6zm84.6-.67l-.91-.58.58-.91.92.6zm-82.79-.5l-.58-.91.92-.58h.05l.56.92-.91.58zm81-.65h-.05l-.92-.55.55-.93.93.55h.05zm-79.14-.47l-.55-.93h.05l.88-.51.11-.07.54.94h-.05l-.92.54zM774 127l-.94-.53.52-1h.05l1 .53zm-75.32-.3l-.68-1.07h.05l1-.52.52 1h-.05l-.91.5v.18zm73.44-.74l-1-.51h-.05l.5-1h.05l1 .5zm-71.59-.43h-.05l-.48-.91h.05l1-.49h.05l.49 1h-.05l-.91.47h-.09zm69.67-.55l-1-.47h-.05l.47-1h.05l1 .48zm-67.78-.39l-.47-1 1-.47.47 1h-.05l-1 .46zm65.84-.55l-.94-.42-.08.15v-.24l.42-.93h.05l1 .44zm-2-.88l-1-.42h-.05l.42-1 1 .42h.05zm-2-.82l-1-.39h-.05l.38-1 .18-.2-.08.2 1 .38h.05zm-2-.77h-.05l-1-.36h-.05l.45-1.28v.28l1 .36h.05zm-2-.72h-.05l-1-.34h-.05l.34-1 1 .34h.08z" transform="translate(-633.8 -84.88)" id="_编组_93" data-name="&lt;编组&gt;"/></g></g><g id="_编组_94" data-name="&lt;编组&gt;" class="cls-7"><g id="_编组_95" data-name="&lt;编组&gt;"><path class="cls-3" d="M735.88 258.25A64.4 64.4 0 01681 227.53l5.21-3.21a58 58 0 0049.71 27.81 58.66 58.66 0 007.33-.45l.75 6.07a66.57 66.57 0 01-8.12.5zm26.53-5.7l-2.52-5.55A58.36 58.36 0 00787 165.7v-.07l5.33-2.94a64.48 64.48 0 01-29.89 89.82zm-88.95-42.66a65 65 0 01-.31-30.81 64 64 0 014.85-13.59 65.07 65.07 0 0117.55-21.94l3.83 4.77a58.4 58.4 0 00-20 60h.27zm103-58a58.42 58.42 0 00-62-12.3l-2.26-5.69a64.38 64.38 0 0168.55 13.59z" transform="translate(-633.8 -84.88)" id="_编组_96" data-name="&lt;编组&gt;"/></g></g><g id="_编组_97" data-name="&lt;编组&gt;" class="cls-7"><g id="_编组_98" data-name="&lt;编组&gt;"><path class="cls-3" d="M735.88 258.25A64.4 64.4 0 01681 227.53l5.21-3.21a58 58 0 0049.71 27.81 58.66 58.66 0 007.33-.45l.75 6.07a66.57 66.57 0 01-8.12.5zm26.53-5.7l-2.52-5.55A58.36 58.36 0 00787 165.7v-.07l5.33-2.94a64.48 64.48 0 01-29.89 89.82zm-88.95-42.66a65 65 0 01-.31-30.81 64 64 0 014.85-13.59 65.07 65.07 0 0117.55-21.94l3.83 4.77a58.4 58.4 0 00-20 60h.27zm103-58a58.42 58.42 0 00-62-12.3l-2.26-5.69a64.38 64.38 0 0168.55 13.59z" transform="translate(-633.8 -84.88)" id="_编组_99" data-name="&lt;编组&gt;"/></g></g><g id="_编组_100" data-name="&lt;编组&gt;"><g id="_编组_101" data-name="&lt;编组&gt;"><path class="cls-3" d="M735.88 258.25A64.4 64.4 0 01681 227.53l5.21-3.21a58 58 0 0049.71 27.81 58.66 58.66 0 007.33-.45l.75 6.07a66.57 66.57 0 01-8.12.5zm26.53-5.7l-2.52-5.55A58.36 58.36 0 00787 165.7v-.07l5.33-2.94a64.48 64.48 0 01-29.89 89.82zm-88.95-42.66a65 65 0 01-.31-30.81 64 64 0 014.85-13.59 65.07 65.07 0 0117.55-21.94l3.83 4.77a58.4 58.4 0 00-20 60h.27zm103-58a58.42 58.42 0 00-62-12.3l-2.26-5.69a64.38 64.38 0 0168.55 13.59z" transform="translate(-633.8 -84.88)" id="_编组_102" data-name="&lt;编组&gt;"/></g></g><g id="_编组_103" data-name="&lt;编组&gt;"><g id="_编组_104" data-name="&lt;编组&gt;"><path class="cls-3" d="M735.88 258.25A64.4 64.4 0 01681 227.53l5.21-3.21a58 58 0 0049.71 27.81 58.66 58.66 0 007.33-.45l.75 6.07a66.57 66.57 0 01-8.12.5zm26.53-5.7l-2.52-5.55A58.36 58.36 0 00787 165.7v-.07l5.33-2.94a64.48 64.48 0 01-29.89 89.82zm-88.95-42.66a65 65 0 01-.31-30.81 64 64 0 014.85-13.59 65.07 65.07 0 0117.55-21.94l3.83 4.77a58.4 58.4 0 00-20 60h.27zm103-58a58.42 58.42 0 00-62-12.3l-2.26-5.69a64.38 64.38 0 0168.55 13.59z" transform="translate(-633.8 -84.88)" id="_编组_105" data-name="&lt;编组&gt;"/></g></g><g id="_编组_106" data-name="&lt;编组&gt;"><g id="_编组_107" data-name="&lt;编组&gt;"><path class="cls-3" d="M735.88 258.25A64.4 64.4 0 01681 227.53l5.21-3.21a58 58 0 0049.71 27.81 58.66 58.66 0 007.33-.45l.75 6.07a66.57 66.57 0 01-8.12.5zm26.53-5.7l-2.52-5.55A58.36 58.36 0 00787 165.7v-.07l5.33-2.94a64.48 64.48 0 01-29.89 89.82zm-88.95-42.66a65 65 0 01-.31-30.81 64 64 0 014.85-13.59 65.07 65.07 0 0117.55-21.94l3.83 4.77a58.4 58.4 0 00-20 60h.27zm103-58a58.42 58.42 0 00-62-12.3l-2.26-5.69a64.38 64.38 0 0168.55 13.59z" transform="translate(-633.8 -84.88)" id="_编组_108" data-name="&lt;编组&gt;"/></g></g><g id="_编组_109" data-name="&lt;编组&gt;"><g id="_编组_110" data-name="&lt;编组&gt;"><path class="cls-3" d="M737.57 247.49l-.16-5.07h.43l.2 5.07h-.48zm-13.14-1.2l-.34-.07h-.1l1.11-5h.17l.22.05zm26.64-1l-1.44-4.86.34-.1 1.48 4.85zm-39.53-3.63l-.36-.18 2.34-4.5.32.16zm52-1.88l-2.54-4.29.37-.22 2.66 4.32-.09.05-.28.18zm-63.3-5.78l-.3-.27 3.4-3.77.32.29zm74.06-2.66l-3.63-3.54.22-.22.06-.06 3.65 3.51-.16.17-.13.14zm-83.05-7.64l-.26-.39 4.24-2.8.17.26v.09zm91.29-3.27l-4.41-2.52.17-.31 4.42 2.48zm-97.4-9l-.13-.37 4.8-1.63.06.18.07.2zm102.62-3.69l-4.91-1.32.07-.26v-.12l4.91 1.34c0 .12-.07.24-.1.36zm-105.43-9.69a2.19 2.19 0 000-.22v-.21l5.06-.36v.43zm107.26-3.85l-5.07-.07v-.39h5v.44zm-5.59-7.69l-.07-.43 5-.8c0 .12 0 .24.05.36v.07zm-96-1.18l-5-.89v-.43l5 .92-.07.36zm92.62-10.72l-.09-.2-.07-.16 4.65-2v.09l.13.31zm-88.93-1.1l-4.69-2.12.14-.31V171l4.59 2.16-.08.19zm82.59-9.51v-.06l-.2-.25 4-3.15.24.3zm-76.06-1l-3.91-3.23v-.09l.22-.28 3.9 3.24-.23.28zm67.28-7.79l-.13-.1-.19-.14 3.06-4 .32.24zm-58.28-.72l-3-4.1.38-.28 3 4.12-.16.11zm47.59-5.49l-.2-.08-.16-.07 2-4.65.2.08.17.07zm-36.75-.45l-1.86-4.73h.11l.3-.11 1.82 4.73-.13.05-.25.1zm24.82-2.86h-.4l.69-5 .4.06zm-12.82-.16l-.59-5h.4l.56 5h-.4z" transform="translate(-633.8 -84.88)" id="_编组_111" data-name="&lt;编组&gt;"/></g></g><g id="_编组_112" data-name="&lt;编组&gt;"><g id="_编组_113" data-name="&lt;编组&gt;"><path class="cls-3" d="M736.32 244.41v-.91h.44v.91h-.45zm-15.07-2.15l-.37-.1.27-.87.35.1zm30.53-.4l-.28-.86.19-.06.19-.07.29.86zm-44.65-6.41l-.19-.13-.12-.09.52-.75.18.13.17.08zm58.58-.76l-.53-.73.29-.22.51.71-.15.11-.17.13zm-69.93-10l-.23-.3.72-.54.11.14.11.15zm81-1.06l-.73-.53c.07-.1.14-.2.22-.3l.74.52-.21.3zm-88.55-12.68c0-.12-.09-.23-.13-.35l.85-.3c0 .1.07.22.12.32h.19l-.17.06zm95.71-1.25l-.86-.28.13-.43.86.28zm-98.64-14.16v-.37h.9V195.5h.05l-.05.06zm101.18-1.32h-.9v-.4h.86v.41zm-1-3.35v-.37l.9-.06a3.22 3.22 0 010 .37zM688 180.24l-.86-.25.13-.43.86.25v.11c0 .09-.06.18-.08.28zm94.19-4.4c0-.11-.09-.22-.13-.34l.83-.34c0 .12.09.24.14.35zm-87.74-9.57l-.75-.51.21-.31.72.48-.17.25zm80-3.74l-.23-.28.69-.57.24.29zm-69.61-7.61l-.56-.7.17-.14.12-.1.56.72-.29.22zm58.19-2.71l-.31-.2.5-.75h.06l.28.19zm-44.82-4.9l-.32-.85h.07l.32-.12.31.85-.34.13zm30.8-1.44l-.36-.1.23-.88.42.11zm-15.73-1.71v-.9h.45v.9h-.45z" transform="translate(-633.8 -84.88)" id="_编组_114" data-name="&lt;编组&gt;"/></g></g><g id="_编组_115" data-name="&lt;编组&gt;"><g id="_编组_116" data-name="&lt;编组&gt;"><path class="cls-3" d="M689.81 275.76v-.24l2.08-3.68.11.06zM665 255.36a93.51 93.51 0 01-23-61.51 94.62 94.62 0 012.76-22.68l4.22 1v.05a89.71 89.71 0 0019.28 80.3z" transform="translate(-633.8 -84.88)" id="_编组_117" data-name="&lt;编组&gt;"/></g></g><g id="_编组_118" data-name="&lt;编组&gt;"><g id="_编组_119" data-name="&lt;编组&gt;"><path class="cls-3" d="M780.68 267.61l-.56-.92a84.71 84.71 0 0041-72.85l.05-.05 1 .05a86.27 86.27 0 01-41.48 73.78zm-118.46-28.76a86.33 86.33 0 01-3-84.61l1 .5a85.41 85.41 0 003 83.51h.16l-.12.08h-.08zm158.69-51.1v-.05a85.73 85.73 0 00-46.09-69.74l.5-1A86.33 86.33 0 01822 187.62v.05zM745.08 109H745l.11-1h.11z" transform="translate(-633.8 -84.88)" id="_编组_120" data-name="&lt;编组&gt;"/></g></g></g></g></g></svg>