<svg preserveAspectRatio="none" id="Layer_1" data-name="Layer 1" xmlns="http://www.w3.org/2000/svg" viewBox="0 0 1266.49 1266.49"><defs><style>.cls-1{opacity:.5}.cls-2{fill:#20ffff}</style></defs><g class="cls-1"><path class="cls-2" transform="rotate(-87.3 -714.154 1699.845)" d="M406.33 2406.28h17.7v68.39h-17.7z"/><path class="cls-2" transform="rotate(-83.73 -773.53 1676.388)" d="M409.05 2371.51h17.7v68.39h-17.7z"/><path class="cls-2" transform="rotate(-80.12 -835.678 1654.357)" d="M413.95 2337h17.7v68.39h-17.7z"/><path class="cls-2" transform="rotate(-76.51 -901.307 1633.339)" d="M421.01 2302.87h17.7v68.39h-17.7z"/><path class="cls-2" transform="rotate(-72.88 -992.01 1607.813)" d="M409.18 2240.79h17.7v112.37h-17.7z"/><path class="cls-2" transform="rotate(-69.25 -1045.642 1597.17)" d="M441.52 2236.29h17.7v68.4h-17.7z"/><path class="cls-2" transform="rotate(-65.63 -1126.4 1582.176)" d="M454.87 2204.1h17.7v68.39h-17.7z"/><path class="cls-2" transform="rotate(-62.02 -1214.557 1569.766)" d="M470.26 2172.82h17.7v68.39h-17.7z"/><path class="cls-2" transform="rotate(-58.41 -1311.96 1560.771)" d="M487.58 2142.58h17.7v68.39h-17.7z"/><path class="cls-2" transform="rotate(-54.82 -1438.732 1542.308)" d="M488.78 2078.8h17.7v112.37h-17.7z"/><path class="cls-2" transform="rotate(-51.23 -1543.963 1553.742)" d="M527.73 2085.61h17.7V2154h-17.7z"/><path class="cls-2" transform="rotate(-47.65 -1685.286 1557.35)" d="M550.41 2059.12h17.7v68.4h-17.7z"/><path class="cls-2" transform="rotate(-44.08 -1849.65 1566.596)" d="M574.67 2034.08h17.7v68.39h-17.7z"/><path class="cls-2" transform="rotate(-40.5 -2044.278 1583.688)" d="M600.48 2010.63h17.7v68.39h-17.7z"/><path class="cls-2" transform="rotate(-36.92 -2291.706 1592.104)" d="M614.49 1949.27h17.7v112.37h-17.7z"/><path class="cls-2" transform="rotate(-33.33 -2566.28 1647.612)" d="M656.19 1968.75h17.7v68.39h-17.7z"/><path class="cls-2" transform="rotate(-29.73 -2927.996 1701.252)" d="M685.92 1950.54h17.7v68.39h-17.7z"/><path class="cls-2" transform="rotate(-26.12 -3395.368 1776.331)" d="M716.72 1934.22h17.7v68.39h-17.7z"/><path class="cls-2" transform="rotate(-22.5 -4020.498 1882.516)" d="M748.47 1919.84h17.7v68.4h-17.7z"/><path class="cls-2" transform="rotate(-18.87 -4902.8 2016.431)" d="M773.97 1864.77h17.7v112.37h-17.7z"/><path class="cls-2" transform="rotate(-15.25 -6194.243 2270.469)" d="M814.4 1897.33h17.7v68.39h-17.7z"/><path class="cls-2" transform="rotate(-11.62 -8321.926 2659.729)" d="M848.3 1889.23H866v68.39h-17.7z"/><path class="cls-2" transform="rotate(-8.1 -12318.173 3369.416)" d="M882.64 1883.3h17.7v68.39h-17.7z"/><path class="cls-2" transform="rotate(-4.42 -23001.122 5355.89)" d="M917.3 1879.5H935v68.39h-17.7z"/><path class="cls-2" transform="rotate(-.87 -119977.057 23120.658)" d="M951.81 1833.95h17.7v112.37h-17.7z"/><path class="cls-2" transform="rotate(-87.33 -132.949 1171.927)" d="M961.68 1903.8h68.39v17.7h-68.39z"/><path class="cls-2" transform="rotate(-83.76 -160.237 1185.986)" d="M996.44 1906.52h68.4v17.7h-68.4z"/><path class="cls-2" transform="matrix(.17 -.99 .99 .17 -1345.24 807.59)" d="M1030.96 1911.39h68.4v17.7h-68.4z"/><path class="cls-2" transform="rotate(-76.54 -231.213 1223.502)" d="M1065.09 1918.44h68.39v17.7h-68.39z"/><path class="cls-2" transform="rotate(-72.91 -269.909 1226.183)" d="M1083.19 1906.58h112.37v17.7h-112.37z"/><path class="cls-2" transform="rotate(-69.28 -329.335 1274.305)" d="M1131.68 1938.91h68.39v17.7h-68.39z"/><path class="cls-2" transform="rotate(-65.66 -391.172 1304.829)" d="M1163.89 1952.23h68.39v17.7h-68.39z"/><path class="cls-2" transform="rotate(-62.05 -463.364 1339.125)" d="M1195.16 1967.62h68.39v17.7h-68.39z"/><path class="cls-2" transform="rotate(-58.44 -547.662 1377.584)" d="M1225.43 1984.91h68.39v17.7h-68.39z"/><path class="cls-2" transform="rotate(-54.85 -633.774 1402.122)" d="M1245.22 1986.1h112.37v17.7h-112.37z"/><path class="cls-2" transform="rotate(-51.26 -762.574 1467.595)" d="M1282.41 2025.04h68.39v17.7h-68.39z"/><path class="cls-2" transform="rotate(-47.68 -899.845 1520.287)" d="M1308.93 2047.68h68.39v17.7h-68.39z"/><path class="cls-2" transform="rotate(-44.11 -1063.299 1578.915)" d="M1333.95 2071.97h68.39v17.7h-68.39z"/><path class="cls-2" transform="rotate(-40.53 -1260.036 1645.073)" d="M1357.43 2097.75h68.39v17.7h-68.39z"/><path class="cls-2" transform="rotate(-37 -1483.555 1711.465)" d="M1374.85 2111.72h112.37v17.7h-112.37z"/><path class="cls-2" transform="rotate(-33.36 -1794.919 1806.49)" d="M1399.31 2153.45h68.4v17.7h-68.4z"/><path class="cls-2" transform="rotate(-29.76 -2167.375 1907.878)" d="M1417.58 2183.14h68.4v17.7h-68.4z"/><path class="cls-2" transform="rotate(-26.15 -2648.138 2029.905)" d="M1433.9 2213.94h68.39v17.7h-68.39z"/><path class="cls-2" transform="rotate(-22.53 -3288.959 2181.981)" d="M1448.27 2245.7h68.39v17.7h-68.39z"/><path class="cls-2" transform="rotate(-18.91 -4158.746 2372.505)" d="M1459.43 2271.17h112.37v17.7h-112.37z"/><path class="cls-2" transform="rotate(-15.28 -5498.814 2657.03)" d="M1470.83 2311.61h68.39v17.7h-68.39z"/><path class="cls-2" transform="rotate(-11.65 -7642.092 3086.713)" d="M1478.98 2345.49h68.39v17.7h-68.39z"/><path class="cls-2" transform="rotate(-8.04 -11695.373 3865.617)" d="M1484.91 2379.84h68.4v17.7h-68.4z"/><path class="cls-2" transform="matrix(1 -.08 .08 1 -519.96 -1708.21)" d="M1488.73 2414.5h68.39v17.7h-68.39z"/><path class="cls-2" transform="rotate(-.9 -115364.797 22951.579)" d="M1490.33 2448.99h112.37v17.7h-112.37z"/><path class="cls-2" transform="rotate(-87.36 395.734 1752.266)" d="M1515.17 2458.87h17.7v68.39h-17.7z"/><path class="cls-2" transform="rotate(-83.79 331.015 1798.361)" d="M1512.47 2493.63h17.7v68.4h-17.7z"/><path class="cls-2" transform="rotate(-80.19 259.14 1845.147)" d="M1507.62 2528.16h17.7v68.4h-17.7z"/><path class="cls-2" transform="rotate(-76.57 179.584 1892.609)" d="M1500.59 2562.29h17.7v68.4h-17.7z"/><path class="cls-2" transform="rotate(-72.94 112.735 1947.202)" d="M1512.46 2580.38h17.7v112.37h-17.7z"/><path class="cls-2" transform="rotate(-69.31 -5.375 1989.549)" d="M1480.15 2628.89h17.7v68.39h-17.7z"/><path class="cls-2" transform="rotate(-65.8 -116.69 2039.114)" d="M1466.85 2661.11h17.7v68.39h-17.7z"/><path class="cls-2" transform="rotate(-62.08 -231.49 2089.065)" d="M1451.48 2692.39h17.7v68.39h-17.7z"/><path class="cls-2" transform="rotate(-58.47 -363.187 2140.546)" d="M1434.21 2722.67h17.7v68.39h-17.7z"/><path class="cls-2" transform="rotate(-54.88 -492.141 2205.618)" d="M1433.03 2742.46h17.7v112.37h-17.7z"/><path class="cls-2" transform="rotate(-51.3 -674.913 2246.98)" d="M1394.1 2779.67h17.7v68.39h-17.7z"/><path class="cls-2" transform="rotate(-47.72 -861.1 2303.496)" d="M1371.49 2806.21h17.7v68.39h-17.7z"/><path class="cls-2" transform="rotate(-44.14 -1073.696 2363.18)" d="M1347.21 2831.23h17.7v68.4h-17.7z"/><path class="cls-2" transform="rotate(-40.56 -1319.29 2427.101)" d="M1321.44 2854.73h17.7v68.4h-17.7z"/><path class="cls-2" transform="rotate(-36.98 -1593.89 2514.2)" d="M1307.49 2872.15h17.7v112.37h-17.7z"/><path class="cls-2" transform="rotate(-33.39 -1950.838 2574.545)" d="M1265.76 2896.64h17.7v68.39h-17.7z"/><path class="cls-2" transform="rotate(-29.79 -2370.434 2664.477)" d="M1236.08 2914.93h17.7v68.39h-17.7z"/><path class="cls-2" transform="rotate(-26.18 -2897.264 2771.889)" d="M1205.28 2931.26h17.7v68.39h-17.7z"/><path class="cls-2" transform="rotate(-22.4 -3614.78 2938.563)" d="M1173.54 2945.65h17.7v68.39h-17.7z"/><path class="cls-2" transform="rotate(-18.94 -4508.352 3103.95)" d="M1148.08 2956.82h17.7v112.36h-17.7z"/><path class="cls-2" transform="rotate(-15.31 -5873.646 3336.72)" d="M1107.64 2968.25h17.7v68.4h-17.7z"/><path class="cls-2" transform="rotate(-11.69 -8042.929 3735.41)" d="M1073.76 2976.41h17.7v68.4h-17.7z"/><path class="cls-2" transform="rotate(-8.07 -12117.551 4485.26)" d="M1039.41 2982.36h17.7v68.39h-17.7z"/><path class="cls-2" transform="rotate(-4.49 -22544.785 6389.981)" d="M1004.76 2986.2h17.7v68.39h-17.7z"/><path class="cls-2" transform="translate(-385.62 -1817.53)" d="M970.28 2987.82h17.7v112.37h-17.7z"/><path class="cls-2" transform="rotate(-87.39 -183.805 2280.69)" d="M909.69 3012.67h68.4v17.7h-68.4z"/><path class="cls-2" transform="rotate(-83.82 -280.635 2289.27)" d="M874.92 3010h68.39v17.7h-68.39z"/><path class="cls-2" transform="matrix(.17 -.99 .99 .17 -2580.53 1529.93)" d="M840.4 3005.16h68.4v17.7h-68.4z"/><path class="cls-2" transform="rotate(-76.6 -488.676 2303.062)" d="M806.26 2998.16h68.4v17.7h-68.4z"/><path class="cls-2" transform="rotate(-72.97 -607.48 2329.457)" d="M744.2 3010.05h112.37v17.7H744.2z"/><path class="cls-2" transform="rotate(-69.34 -719.826 2312.97)" d="M739.65 2977.76h68.39v17.7h-68.39z"/><path class="cls-2" transform="rotate(-65.72 -845.914 2316.867)" d="M707.43 2964.47h68.39v17.7h-68.39z"/><path class="cls-2" transform="rotate(-62.11 -980.498 2320.338)" d="M676.14 2949.11h68.39v17.7h-68.39z"/><path class="cls-2" transform="rotate(-58.5 -1125.219 2324.259)" d="M645.85 2931.86h68.39v17.7h-68.39z"/><path class="cls-2" transform="rotate(-54.91 -1294.646 2346.309)" d="M582.09 2930.71h112.37v17.7H582.09z"/><path class="cls-2" transform="rotate(-51.33 -1453.482 2333.493)" d="M588.83 2891.79h68.39v17.7h-68.39z"/><path class="cls-2" transform="rotate(-47.75 -1643.351 2340.936)" d="M562.27 2869.19h68.39v17.7h-68.39z"/><path class="cls-2" transform="rotate(-44.17 -1856.579 2351.211)" d="M537.23 2844.92h68.4v17.7h-68.4z"/><path class="cls-2" transform="rotate(-40.5 -2100.864 2369.758)" d="M513.72 2819.17h68.39v17.7h-68.39z"/><path class="cls-2" transform="rotate(-37.01 -2399.263 2399.553)" d="M452.33 2805.23h112.36v17.7H452.33z"/><path class="cls-2" transform="rotate(-33.42 -2716.464 2415.642)" d="M471.78 2763.5h68.4v17.7h-68.4z"/><path class="cls-2" transform="rotate(-29.82 -3124.055 2457.404)" d="M453.48 2733.83h68.39v17.7h-68.39z"/><path class="cls-2" transform="rotate(-26.21 -3635.357 2517.64)" d="M437.13 2703.05h68.4v17.7h-68.4z"/><path class="cls-2" transform="rotate(-22.59 -4301.848 2605.705)" d="M422.72 2671.31h68.4v17.7h-68.4z"/><path class="cls-2" transform="rotate(-18.97 -5232.483 2744.362)" d="M367.57 2645.88h112.37v17.7H367.57z"/><path class="cls-2" transform="rotate(-15.34 -6542.315 2946.239)" d="M400.08 2605.43h68.4v17.7h-68.4z"/><path class="cls-2" transform="rotate(-11.72 -8676 3301.41)" d="M391.91 2571.55h68.39v17.7h-68.39z"/><path class="cls-2" transform="rotate(-8.11 -12682.27 4000.49)" d="M385.94 2537.21h68.39v17.7h-68.39z"/><path class="cls-2" transform="matrix(1 -.08 .08 1 -532.82 -1793.24)" d="M382.08 2502.56h68.39v17.7h-68.39z"/><path class="cls-2" transform="translate(-377.83 -1826.89)" d="M336.47 2468.09h112.37v17.7H336.47z"/></g><path d="M1354.21 2387.72a390.67 390.67 0 00-22.9-73.53 393.62 393.62 0 00-86-126.76 392.49 392.49 0 00-428.6-82.09 393.62 393.62 0 00-126.76 86 392.49 392.49 0 00-82.1 428.66 393.62 393.62 0 0086 126.76 392.49 392.49 0 00428.6 82.09 393.62 393.62 0 00126.76-86 393 393 0 00105-355.13zm-17.08 149.75a375.05 375.05 0 01-14.14 52.65q-5.74.49-11.44.86-12.72.82-25.21 1c-.66 1.93-1.53 3.77-2.32 5.65l-2.4 5.61-2.4 5.61-2.67 5.49-2.67 5.49c-.91 1.82-1.72 3.69-2.74 5.45l-5.87 10.7c-.5.89-.95 1.8-1.49 2.66l-1.6 2.6-3.19 5.2-3.18 5.2c-1.09 1.72-2.28 3.37-3.41 5.05-2.31 3.34-4.55 6.75-6.91 10.05l-7.37 9.72-1.84 2.43c-.61.81-1.3 1.56-1.94 2.35l-3.92 4.67c-2.63 3.1-5.15 6.3-8 9.21l-8.29 8.95c-2.87 2.88-5.82 5.69-8.72 8.54-1.47 1.41-2.89 2.87-4.39 4.24l-4.58 4-4.58 4c-1.54 1.33-3 2.74-4.64 4l-9.56 7.6-2.39 1.9c-.81.62-1.65 1.19-2.48 1.79l-5 3.55-5 3.56c-.83.58-1.64 1.21-2.5 1.76l-2.57 1.65-10.28 6.61c-1.69 1.15-3.5 2.08-5.26 3.11l-5.3 3-5.3 3c-1.78 1-3.62 1.86-5.43 2.79l-10.89 5.52-11.15 5-2.79 1.25-1.39.62-1.42.55-5.69 2.2-5.69 2.21-2.84 1.11-2.9 1-11.58 3.83-1.45.48-1.47.41-2.94.81-5.88 1.63-5.88 1.63-6 1.33-6 1.34c-2 .42-4 1-6 1.26l-12 2.08c-1 .17-2 .37-3 .5l-3 .37-6.06.75-6.06.75c-2 .23-4.06.32-6.08.49-4.06.28-8.11.66-12.18.86q-4.22 11.74-9.09 23.51-2.18 5.28-4.5 10.56a373.43 373.43 0 01-262.85-105.12c4.18-11.58 8.84-23 13.75-34-2.91-2.85-5.54-6-8.23-9l-4-4.58-2-2.29c-.65-.78-1.27-1.59-1.91-2.38l-7.61-9.56c-1.31-1.56-2.47-3.24-3.65-4.9l-3.56-5-3.56-5-.89-1.24-.71-1.15-1.65-2.57-6.61-10.28c-2.09-3.5-4.06-7.06-6.1-10.58l-3-5.3-2.76-5.45a338 338 0 01-31.78-91.93l-2.09-12-.26-1.5-.19-1.51-.37-3-.75-6.06-.74-6.06-.45-6.09-.45-6.09c-.14-2-.35-4.06-.36-6.09l-.32-12.2c-.1-2 0-4.07 0-6.1l.14-6.1.13-6.1.42-6.09.43-6.09c.16-2 .22-4.07.51-6.08l1.43-12.13c.19-2 .55-4 .89-6l1-6 1-6c.39-2 .86-4 1.28-6l1.29-6 .64-3 .32-1.49.4-1.47 3.15-11.8c.27-1 .5-2 .81-2.94l.93-2.91 1.86-5.82 1.85-5.82c.65-1.93 1.41-3.82 2.11-5.73l2.13-5.72 1.06-2.86c.35-1 .7-1.91 1.12-2.84q-8.9-8.74-17.57-18.09-3.87-4.18-7.68-8.48a371.54 371.54 0 0174.31-108.2 375.16 375.16 0 01120.83-82 371 371 0 01109-27.7q2.83 5 5.55 10 6.06 11.22 11.48 22.48c2-.2 4.06-.21 6.1-.26l6.1-.16 6.1-.17c2 0 4.07.09 6.1.12l6.1.13 3.05.06h1.53l1.52.11 12.18.85c1 .08 2 .11 3 .23l3 .36 6.06.72 6.07.71c2 .28 4 .66 6 1l6 1 3 .5c1 .16 2 .33 3 .57l11.94 2.58c1 .22 2 .41 3 .66l2.95.79 5.9 1.58 5.9 1.57c2 .55 3.88 1.22 5.83 1.82 3.87 1.26 7.78 2.42 11.62 3.76l11.44 4.26 2.86 1.06 2.8 1.21 5.61 2.41 5.61 2.4c1.88.79 3.67 1.76 5.51 2.63 3.65 1.8 7.34 3.53 11 5.37l10.7 5.87 2.68 1.46c.89.49 1.74 1.05 2.61 1.58l5.2 3.19c3.46 2.14 7 4.18 10.29 6.56l10.08 6.88 9.72 7.37a326.57 326.57 0 0136.26 32.59l4.27 4.36c1.37 1.5 2.69 3 4 4.57 2.68 3.07 5.41 6.08 8 9.18 5 6.42 10.31 12.62 14.89 19.36l3.56 5 1.78 2.48c.6.82 1.11 1.71 1.67 2.56l6.6 10.28c.55.86 1.11 1.71 1.64 2.58l1.51 2.65 3 5.3c2 3.54 4.13 7 5.88 10.7 12-1.09 24.32-1.83 36.64-2.07 2.18 4.61 4.29 9.26 6.28 14a373.49 373.49 0 0123.05 215.94z" transform="translate(-336.33 -1833.83)" fill="#20ffff" opacity=".5"/><path class="cls-2" d="M1429.94 2375.51a469.12 469.12 0 00-368.81-368.81 470.51 470.51 0 00-183.12 0 469.12 469.12 0 00-368.81 368.81 470.51 470.51 0 000 183.12A469.12 469.12 0 00878 2927.44a470.5 470.5 0 00183.12 0 469.12 469.12 0 00368.81-368.81 470.51 470.51 0 00.01-183.12zm-137 414.93a456.33 456.33 0 01-229.67 124.26c-7.54-5.92-14.85-12.18-21.83-18.34l-3.84.69c-.64.11-1.28.24-1.92.33l-1.94.24-7.74 1-7.74 1-3.87.49c-1.29.13-2.59.2-3.89.31l-15.57 1.18c-2.59.26-5.19.28-7.8.35l-7.81.2-7.81.2-2 .05-2-.05-3.9-.1-15.61-.39c-5.19-.3-10.38-.77-15.57-1.14l-7.78-.6-7.74-1A432.15 432.15 0 01797 2866.73l-14.22-6.43-1.78-.8-1.74-.89-3.47-1.78-6.94-3.56-6.94-3.56-6.76-3.89-6.76-3.89c-2.25-1.31-4.54-2.54-6.7-4l-13.14-8.42c-2.22-1.36-4.31-2.91-6.43-4.42l-6.36-4.52-6.36-4.52-6.14-4.82-6.14-4.82c-2-1.63-4.14-3.15-6.07-4.9l-11.8-10.22c-1-.86-2-1.67-2.92-2.58l-2.82-2.69-5.65-5.39-5.65-5.38c-1.83-1.85-3.6-3.76-5.4-5.63l-5.39-5.65-2.69-2.82-1.35-1.41-1.28-1.48-10.22-11.8c-.84-1-1.73-1.95-2.53-3l-2.41-3.07-4.82-6.14-4.83-6.13c-1.57-2.07-3-4.23-4.55-6.34l-4.52-6.36-2.26-3.18c-.76-1.05-1.51-2.11-2.2-3.22q-9.6-.9-19.43-2.16c-2.93-.37-5.88-.78-8.84-1.21A454.9 454.9 0 01521 2556.3a458.46 458.46 0 010-178.44 454.59 454.59 0 0146.8-129.26c2.92-.57 5.84-1.12 8.74-1.64q9.77-1.75 19.32-3.13c1.25-2.28 2.69-4.45 4.09-6.64l4.21-6.57 4.21-6.57c1.48-2.14 3-4.24 4.51-6.37l4.52-6.36 2.26-3.18 1.13-1.59L622 2205l9.64-12.27c.81-1 1.58-2.07 2.43-3l2.56-2.95 5.11-5.9 5.11-5.9c1.74-1.93 3.58-3.78 5.36-5.67l5.39-5.65 2.69-2.83 1.35-1.41c.46-.46.94-.9 1.41-1.35l11.3-10.77c.95-.89 1.87-1.81 2.84-2.68l3-2.55 5.9-5.11 5.9-5.11c2-1.68 4.08-3.23 6.11-4.86l6.14-4.82 3.07-2.41c1-.81 2-1.62 3.11-2.35l12.72-9 3.18-2.26 3.29-2.1 6.57-4.21 6.57-4.21c1.08-.73 2.22-1.35 3.35-2l3.38-1.94c4.52-2.57 9-5.23 13.55-7.74l13.89-7.11 3.47-1.78c1.16-.59 2.36-1.08 3.54-1.63l7.11-3.21c4.74-2.13 9.44-4.38 14.32-6.18l14.51-5.73 14.78-5c19.8-6.31 40-11.67 60.52-15l7.68-1.38c2.57-.38 5.16-.67 7.74-1 5.16-.63 10.32-1.36 15.49-1.92l15.57-1.18 3.89-.3c.65 0 1.3-.11 1.95-.14h2l7.81-.19 7.81-.2 3.9-.1c1.3 0 2.6 0 3.9.07l15.61.39c1.3 0 2.6 0 3.9.11l3.89.3 7.78.59c5.19.41 10.39.68 15.54 1.46 6.66-6.5 13.64-13.13 20.87-19.43q9.24 1.44 18.42 3.25a457.24 457.24 0 01277.69 175.6q-1.07 4.36-2.17 8.67-2.49 9.6-5.23 18.86c1.56 2.09 2.89 4.32 4.31 6.5l4.21 6.57 4.22 6.57 3.89 6.76 3.89 6.76c1.27 2.27 2.66 4.47 3.79 6.82l7.11 13.89c.58 1.16 1.22 2.3 1.75 3.49l1.6 3.56 3.21 7.11 3.22 7.11c1 2.38 1.93 4.83 2.9 7.24l2.86 7.26 1.43 3.63c.47 1.21 1 2.41 1.38 3.65l5 14.78 1.25 3.69c.42 1.23.72 2.5 1.09 3.74l2.13 7.5c1.39 5 3 10 4 15.07l3.51 15.2c1 5.1 1.84 10.24 2.78 15.35.44 2.56 1 5.11 1.33 7.69l1 7.74 1 7.74c.3 2.58.74 5.15.87 7.75l1.18 15.57.3 3.89c.07 1.3.07 2.6.12 3.9l.19 7.81.2 7.81c0 1.3.1 2.6.07 3.9l-.1 3.9-.39 15.61c0 2.61-.31 5.19-.48 7.79l-.59 7.78-.59 7.78c-.22 2.59-.63 5.16-.94 7.75l-2 15.48-2.75 15.36-.68 3.84-.35 1.92-.44 1.9-1.76 7.6-1.75 7.6-.87 3.8-1.07 3.75-4.26 15-.53 1.88-.62 1.85-1.25 3.69-2.5 7.39-2.5 7.39-2.87 7.26-2.86 7.26-1.43 3.63c-.24.6-.46 1.21-.72 1.81l-.8 1.78-6.43 14.22c-.55 1.18-1 2.38-1.63 3.54l-1.78 3.47-3.56 6.94-3.55 6.95c-1.21 2.3-2.57 4.52-3.85 6.79l-3.89 6.76-1.94 3.38c-.65 1.12-1.27 2.27-2 3.35q3.19 9.09 6.15 18.55 1.33 4.24 2.61 8.56a459 459 0 01-57.09 69.31z" transform="translate(-336.33 -1833.83)"/></svg>