<svg preserveAspectRatio="none" id="Layer_1" data-name="Layer 1" xmlns="http://www.w3.org/2000/svg" viewBox="0 0 113.96 109.22"><defs><style>.cls-2{fill:#067773}.cls-10,.cls-11,.cls-12,.cls-13,.cls-4,.cls-5,.cls-6,.cls-7,.cls-8,.cls-9{fill:#fe6a13}.cls-4{opacity:.1}.cls-5{opacity:.2}.cls-6{opacity:.3}.cls-7{opacity:.4}.cls-8{opacity:.5}.cls-9{opacity:.6}.cls-10{opacity:.7}.cls-11{opacity:.8}.cls-12{opacity:.9}</style></defs><path d="M253.61 234.16v-.08-.1-1l-.06-.73v-1.34l-.19-1.47v-.11l-.16-.88-.1-.59-.06-.37c0-.19-.09-.39-.13-.58v-.11l-.26-1.14-.11-.39q-.11-.41-.23-.81l-.17-.6-.2-.59-.09-.28-.06-.18-.25-.73-.46-1.16c-.08-.19-.15-.39-.23-.58l-.26-.56c-.17-.37-.33-.75-.51-1.12l-.29-.56-.3-.58c-.09-.19-.19-.37-.3-.56a32.13 32.13 0 00-2.29-3.63c-.75-1.08-1.48-2-2.07-2.65l-.37-.43-.12-.13-.23-.27-.21-.23-.06-.06-.8-.84a38.34 38.34 0 00-4.61-4l-.8-.57-.32-.23-.28-.18-.51-.32-.76 1.19.49.31.27.17.31.22.77.55a36.74 36.74 0 014.44 3.82l.24.24-3.33 3.22.05.26.29.3.18.19.19.22a30.64 30.64 0 012.14 2.7c.43.57.83 1.23 1.28 1.91l.62 1.09c.11.18.21.38.31.57l.3.59a31.61 31.61 0 012 5.17c.28.91.48 1.83.67 2.74l.24 1.37q.08.68.17 1.35a35.44 35.44 0 01.15 4.89v1.94c-.08.57-.13 1.08-.19 1.49-.15.81-.23 1.28-.23 1.28l4.54.91c0 .11 0 .22-.07.33-.14.59-.26 1.15-.4 1.69l-.43 1.5c-.15.47-.31.9-.44 1.3-.07.2-.12.4-.2.58l-.21.52-.34.88c-.1.26-.21.46-.28.64l-.24.53 1.29.59.25-.55c.08-.18.19-.4.29-.66l.36-.91.21-.54c.08-.19.14-.39.21-.6.14-.42.3-.87.46-1.36l.44-1.56c.14-.56.26-1.14.41-1.76 0-.11 0-.23.07-.34l.26-1.45v-.28c0-.27.07-.57.11-.89l.09-.73V238.71c0-.36.06-.73.08-1.1v-.21-.62-.79c.05-.62.05-1.22.03-1.83z" transform="translate(-156.66 -177.04)" fill="#08e5db"/><path class="cls-2" d="M193 262.62l.11.1.34.27.55.43.35.27c.12.1.25.2.4.3a37.11 37.11 0 005 3.08l.82.42.88.39.45.2.23.1.23.09 1 .37.49.19.5.17 1 .35c.35.11.7.2 1.06.31l.54.15.27.08.28.06a36 36 0 009.41 1h1.21l1.21-.09h.6l.6-.08 1.19-.15 1.17-.21.58-.1.57-.13 1.13-.26 1.1-.31.54-.15c.18 0 .35-.12.53-.17l1-.35c.17-.05.34-.12.51-.19l.5-.2c.33-.13.66-.25 1-.39l.93-.42.46-.2.44-.22.86-.44c.14-.07.28-.14.41-.22l.4-.23c.52-.31 1-.58 1.49-.89l.68-.43.33-.21.31-.22 1.12-.8.92-.73.4-.31.33-.29.53-.46.44-.38 1 1-.46.39-.55.47-.35.3-.41.32-1 .75-1.17.83-.32.23-.34.22-.71.45c-.47.32-1 .61-1.55.92l-.41.24c-.14.08-.29.15-.43.23l-.89.46-.46.23-.48.21-1 .44c-.33.15-.67.27-1 .41l-.52.21c-.17.07-.35.14-.53.2l-1.09.37c-.18.06-.36.13-.55.18l-.56.16-1.14.32-1.17.27-.59.14-.6.11-1.21.22-1.23.15-.62.08h-.63l-1.25.1h-1.26a37.5 37.5 0 01-9.78-1.09l-.29-.06-.28-.08-.57-.1c-.37-.11-.74-.2-1.1-.32l-1.06-.36-.52-.17-.5-.2-1-.39-.24-.1-.24-.11-.47-.21-.91-.41-.86-.44a38.44 38.44 0 01-5.17-3.2c-.15-.1-.29-.21-.42-.31l-.36-.28-.57-.45-.35-.28-.12-.1zM215.92 199h-2.12l-1.45.11-1.7.21-1.88.34-1 .23c-.33.08-.67.14-1 .25-.67.2-1.35.36-2 .61l-1 .34-1 .39c-.65.24-1.27.54-1.87.81l-.45.2-.43.22-.83.43c-.28.13-.52.29-.77.43l-.72.41c-.23.13-.44.27-.65.4l-.58.37-.51.33-.42.3-.79.56-.75-1.1.83-.59.43-.31.53-.34.6-.38c.21-.14.43-.28.67-.41l.75-.43c.26-.14.52-.31.8-.45l.87-.44.45-.23.47-.21c.63-.28 1.27-.59 1.95-.84l1-.4 1-.35c.69-.25 1.4-.43 2.1-.63.34-.11.7-.18 1-.26l1-.24 2-.35 1.77-.22 1.5-.12h2.16V199z" transform="translate(-156.66 -177.04)"/><path class="cls-2" d="M172.31 252.38l.35.89c.12.29.29.64.47 1.05l.3.67c.11.24.22.49.36.75a45.54 45.54 0 005.14 8.2 46.13 46.13 0 004.31 4.82l1.27 1.2 1.35 1.17.35.29.36.28.72.57c.24.19.48.39.73.57l.76.54c.51.36 1 .74 1.56 1.07l.81.52c.27.17.54.35.82.51l1.69 1 1.75.9a47.88 47.88 0 007.43 2.89l1 .27.48.14.49.12 2 .45 2 .35c.33.07.65.1 1 .14l1 .12c.65.1 1.31.13 2 .18l1 .07h4.89a50.75 50.75 0 007.17-.88c.56-.11 1.11-.25 1.66-.37l.81-.19.79-.22c.52-.15 1-.29 1.53-.44l1.45-.49.7-.24.68-.27 1.31-.52 1.22-.55.58-.26c.19-.09.38-.17.56-.27l1.05-.54.5-.26.48-.26 1.68-1c.5-.31.93-.59 1.32-.84s.71-.45 1-.64l.78-.56 4.23 5.91.54-.39c.36-.24.85-.64 1.49-1.14.32-.25.67-.52 1-.84l1.2-1 .66-.57.67-.63.7-.67c.24-.23.49-.46.73-.71a54.8 54.8 0 0011.33-16.79 53.86 53.86 0 003.28-10.37 55 55 0 001.11-9.41v-1-2.79-.82c0-.27 0-.52-.06-.76l-.1-1.34v-.57l-.06-.5-.1-.79-.08-.66-7.68 1.06.08.61.09.7c0 .14 0 .28.05.43v.48l.08 1.09V238.33l-.09 1.21c0 .19 0 .38-.06.56l-.07.52c-.09.67-.15 1.23-.21 1.61l-.11.61-2.85-.49-.1.55c-.07.35-.14.85-.28 1.43l-.22 1-.12.52c0 .18-.1.35-.15.54l-.32 1.12c-.06.19-.11.38-.17.58l-.19.57-.39 1.14-.09.28-.11.27-.21.54-.4 1c-.13.32-.27.62-.4.89-.25.55-.45 1-.61 1.33l-.25.49-1.51-.76-.18.35c-.12.22-.28.56-.51 1l-.85 1.48c-.08.15-.17.29-.27.43l-.29.45-.63 1-.73 1-.39.54c-.13.18-.28.36-.42.54l-.88 1.13-1 1.13c-.32.39-.69.76-1 1.14s-.72.77-1.11 1.13-.77.74-1.17 1.11l-1.23 1.06A46.29 46.29 0 01238 271c-.88.5-1.72 1-2.56 1.42l-.61.31c-.2.1-.4.21-.6.29l-1.15.52-.54.24-.54.22-1 .39c-.3.13-.6.22-.87.31l-.74.25-.6.2-.45.13-.37.11.47 1.63-.7.2-.38.11-.46.12-1.15.26a43.08 43.08 0 01-7.25 1 44.19 44.19 0 01-10.32-.68l-.7-.12c-.24 0-.47-.1-.7-.16l-1.42-.33c-.47-.12-.94-.26-1.42-.39l-.71-.2-.71-.24-1.42-.48-1.4-.55c-.23-.1-.47-.18-.7-.28l-.69-.31-.69-.31c-.23-.1-.46-.2-.68-.32l-1.35-.69-.34-.17-.33-.19-.66-.38-.65-.38c-.22-.12-.43-.27-.64-.4l-1.26-.81-1.21-.86-.6-.43-.58-.45c-.38-.3-.77-.59-1.14-.9l-1.08-.94c-.37-.3-.7-.63-1-1s-.68-.63-1-1l-.93-1c-.15-.16-.31-.32-.46-.48l-.43-.5-.84-1-.77-1-.38-.48-.19-.24-.17-.24-.67-.95a44.93 44.93 0 01-3.68-6.33l-.49-1.08c-.14-.31-.27-.58-.35-.8l-.27-.68z" transform="translate(-156.66 -177.04)"/><path d="M261.17 206.65l-.51-.8-.32-.5c-.11-.18-.25-.36-.39-.56l-.95-1.29-.26-.36-.28-.36-.6-.76-.64-.81-.71-.83c-.49-.56-1-1.17-1.57-1.75a53.79 53.79 0 00-8.48-7.32 52.69 52.69 0 00-11.36-6l-.77-.3-.78-.27-1.55-.52-1.57-.45c-.52-.15-1-.3-1.57-.41l-1.56-.36-.39-.09-.39-.07-.78-.14-1.55-.27-1.54-.2a53.42 53.42 0 00-11.19-.18h-.61l-.59.07-1.14.14-1.08.14-1 .18-1 .17c-.31.06-.6.1-.89.17l-1.55.36-.66.15-.58.16-.91.26-.76.22-2.13-7.07-.18.05-.53.17-2 .67c-.43.14-.9.32-1.4.52l-1.64.65c-.58.24-1.19.52-1.83.81l-1 .45-1 .51a59.46 59.46 0 00-9 5.53c-.77.59-1.54 1.2-2.31 1.81s-1.52 1.3-2.28 2-1.48 1.39-2.21 2.12l-1.06 1.11-.53.56-.26.28-.25.29a61.05 61.05 0 00-7.13 9.75 60.17 60.17 0 00-4.55 9.53c-.15.36-.26.72-.38 1.07l-.35 1-.33 1c-.1.32-.19.63-.27.93l-.48 1.7c-.08.26-.14.52-.19.76l-.16.69c-.2.88-.37 1.57-.46 2l-.13.73 7.26 1.36-.27 1.53c0 .23-.07.48-.11.75l-.11.83-.11.89-.06.46v.46l-.14 1.82V234.93h1.91v1c0 .65 0 1.62.13 2.84a50 50 0 001.74 10c.15.5.29 1 .45 1.54l.53 1.58c.09.27.18.54.28.81l.32.81.32.82c.11.27.21.56.34.83l.75 1.67c.07.14.13.28.2.42l.21.42.43.84.44.85.48.84.48.84c.16.28.32.57.5.84l1.07 1.67c.38.55.77 1.09 1.16 1.64l.29.41.31.4.63.8.64.8.67.78a50.05 50.05 0 005.93 5.86 53 53 0 006.8 4.82 49.47 49.47 0 007.26 3.56c1.21.51 2.44.89 3.64 1.3s2.4.71 3.58 1l.87.2.43.1.43.08 1.7.3.42.07.42.05.82.11.8.1c.27 0 .53.07.79.09a54 54 0 0010.12 0l1.62-.2c.47-.06.87-.11 1.2-.16l1-.18-.25-1.39-1 .17c-.31.06-.71.1-1.16.16l-1.58.2a52.48 52.48 0 01-9.84 0c-.25 0-.51-.05-.77-.08l-.78-.1-.8-.1-.4-.05-.4-.07-1.65-.29-.42-.08-.42-.1-.85-.2c-1.15-.24-2.3-.6-3.48-.93s-2.36-.77-3.54-1.26a48.06 48.06 0 01-7.06-3.46 51.64 51.64 0 01-6.62-4.69 48.6 48.6 0 01-5.77-5.7l-.66-.76-.62-.78-.61-.78-.3-.39-.29-.4c-.38-.54-.76-1.06-1.13-1.6l-1-1.62c-.18-.27-.33-.54-.49-.82l-.47-.82-.46-.81-.42-.82-.42-.81-.21-.4c-.07-.14-.13-.27-.19-.41l-.73-1.62c-.13-.26-.22-.54-.33-.8l-.32-.8-.31-.79c-.1-.26-.18-.53-.27-.79l-.52-1.54c-.16-.51-.29-1-.43-1.5a48.57 48.57 0 01-1.69-9.7c-.11-1.19-.11-2.12-.13-2.76s0-1 0-1h4.06v-1.44-.76c0-.28 0-.57.06-.89l.08-1v-.55c0-.19 0-.38.07-.57l.15-1.22c0-.21 0-.42.09-.64l.12-.65.24-1.36c.09-.46.21-.93.32-1.41.2-1 .5-1.93.78-2.92.06-.25.16-.49.24-.74l.25-.74.25-.74c.09-.25.19-.49.28-.73l.58-1.46.64-1.42c.11-.23.21-.47.32-.7l.35-.68c.23-.45.45-.9.69-1.33l.72-1.25c.12-.2.23-.41.35-.61l.37-.58.71-1.1c.23-.35.48-.68.7-1l.65-.92.63-.8c.4-.5.73-.94 1-1.28l.94-1.09 2.75 2.47s.15-.18.46-.5l.56-.59.36-.37.2-.21.22-.21 1-.94.28-.26.3-.26.63-.55c.22-.19.44-.39.68-.58l.74-.58.78-.61.85-.6c.29-.2.58-.42.89-.62l.95-.61c.63-.43 1.33-.8 2-1.21.35-.21.72-.39 1.09-.58l1.12-.58 1.18-.53.6-.27.61-.25 1.24-.49c.42-.16.85-.29 1.28-.44l.65-.22c.22-.08.44-.13.66-.19l1.33-.38c.45-.12.91-.21 1.36-.32l.68-.16c.23-.06.46-.09.69-.13l1.39-.25c.46-.07.94-.12 1.4-.18a42.41 42.41 0 0111.06.09c.22 0 .44 0 .65.09l.64.12 1.27.23 1.23.28c.4.1.81.17 1.2.29l1.15.33.56.16.55.19 1.06.36.26.09.25.1.5.2 1 .38.46.2.45.2c.59.27 1.15.5 1.66.78s1 .5 1.43.74l1.18.68.51.29.43.28.69.44.41.27.14.09 2.07-3.06.69.49c.44.31 1.08.74 1.79 1.33a43.94 43.94 0 015 4.53l.64.67c.11.11.21.22.31.34l.3.34.59.68c.19.23.39.44.56.67l1 1.31c.17.2.31.42.45.62l.42.59.38.54.18.25.16.24.52.82.46.71 6.3-3.85zM197 189l-.35.15-1.31.59c-.28.13-.6.26-.93.43l-1.08.55-.6.31-.31.16-.31.18-1.32.76c-.47.26-.93.57-1.41.87l-.74.47-.37.25-.37.26-1.54 1.02-1.54 1.21a51.23 51.23 0 00-6 5.76 48.28 48.28 0 00-5 6.68l-.27.42-.25.43-.48.84-.47.82-.43.82-.41.8c-.13.27-.27.52-.39.78l-.68 1.51c-.23.48-.4 1-.58 1.41l-.5 1.28-.72 2.12c-.11.29-.17.56-.24.79l-.17.59-.14.49-6.19-1.69.16-.55.19-.67c.08-.26.15-.57.27-.9.22-.67.49-1.47.81-2.4l.57-1.45c.2-.51.4-1.05.66-1.59l.77-1.71c.13-.3.29-.59.44-.89l.46-.91.48-.93.53-.93.55-.95.28-.48.3-.47a54.69 54.69 0 015.61-7.53 57.63 57.63 0 016.78-6.5l1.74-1.36 1.72-1.23.42-.3.42-.28.83-.53c.55-.35 1.07-.7 1.59-1l1.5-.86.35-.2.35-.18.67-.35 1.22-.62c.38-.19.74-.34 1.05-.49l1.48-.67.4-.16.14-.05 2.45 5.93z" transform="translate(-156.66 -177.04)" fill="#00eadb"/><path class="cls-4" d="M35.92 79.41l.49.53-3.56 3.56-.57-.61 3.64-3.48z"/><path class="cls-5" d="M34.83 78.22l.47.55-3.73 3.37-.55-.63 3.81-3.29z"/><path class="cls-6" d="M33.81 76.97l.44.57-3.9 3.18-.52-.66 3.98-3.09z"/><path class="cls-7" d="M32.85 75.68l.42.59-4.07 2.97-.47-.69 4.12-2.87z"/><path class="cls-8" d="M31.97 74.33l.38.61-4.21 2.76-.45-.71 4.28-2.66z"/><path class="cls-9" d="M31.15 72.94l.35.63-4.35 2.54-.4-.73 4.4-2.44z"/><path class="cls-10" d="M30.41 71.51l.32.65-4.48 2.31-.37-.75 4.53-2.21z"/><path class="cls-11" d="M29.74 70.05l.29.66-4.59 2.07-.33-.77 4.63-1.96z"/><path class="cls-12" d="M29.15 68.55l.26.67-4.69 1.83-.3-.78 4.73-1.72z"/><path class="cls-13" d="M28.64 67.02l.22.69-4.78 1.58-.26-.79 4.82-1.48zM28.21 65.47l.18.7-4.85 1.33-.22-.81 4.89-1.22zM27.85 63.9l.16.7-4.92 1.09-.18-.82 4.94-.97zM27.58 62.31l.12.71-4.97.83-.13-.83 4.98-.71z"/><path class="cls-13" d="M184.06 237.75v.72l-5 .57v-.42-.42zM184 236.14v.72l-5 .32v-.42-.42zM183.94 234.52v.72l-5 .06v-.42-.42zM184 232.91v.72l-5-.2v-.84zM184.14 231.31v.72l-5-.46v-.84z" transform="translate(-156.66 -177.04)"/><path class="cls-13" d="M27.7 52.67l-.12.71-4.98-.71.13-.83 4.97.83zM28.01 51.09l-.16.7-4.94-.96.18-.82 4.92 1.08zM28.39 49.53l-.18.69L23.32 49l.22-.81 4.85 1.34zM28.86 47.98l-.22.69-4.82-1.47.26-.8 4.78 1.58z"/><path class="cls-12" d="M29.41 46.47l-.26.67-4.73-1.72.3-.78 4.69 1.83z"/><path class="cls-11" d="M30.03 44.98l-.29.67-4.63-1.97.33-.77 4.59 2.07z"/><path class="cls-10" d="M30.73 43.53l-.32.65-4.53-2.2.37-.75 4.48 2.3z"/><path class="cls-9" d="M31.5 42.12l-.35.63-4.4-2.44.4-.73 4.35 2.54z"/><path class="cls-8" d="M32.35 40.75l-.38.61-4.28-2.66.45-.71 4.21 2.76z"/><path class="cls-7" d="M33.27 39.42l-.42.6-4.12-2.88.47-.69 4.07 2.97z"/><path class="cls-6" d="M34.25 38.15l-.44.57-3.98-3.09.52-.66 3.9 3.18z"/><path class="cls-5" d="M35.3 36.92l-.47.55-3.81-3.29.55-.63 3.73 3.37z"/><path class="cls-4" d="M36.41 35.75l-.49.53-3.64-3.48.57-.61 3.56 3.56z"/></svg>