<svg preserveAspectRatio="none" id="Layer_1" data-name="Layer 1" xmlns="http://www.w3.org/2000/svg" xmlns:xlink="http://www.w3.org/1999/xlink" viewBox="0 0 104.67 104.67"><defs><style>.cls-1{fill:#2e2855;}.cls-2{fill:url(#linear-gradient);}.cls-3{fill:url(#linear-gradient-2);}.cls-4{fill:url(#linear-gradient-3);}.cls-5{fill:url(#linear-gradient-4);}</style><linearGradient id="linear-gradient" x1="187.16" y1="540" x2="291.83" y2="540" gradientUnits="userSpaceOnUse"><stop offset="0.02" stop-color="#d13954"/><stop offset="1" stop-color="#2e2855"/></linearGradient><linearGradient id="linear-gradient-2" x1="193.16" y1="558.15" x2="285.83" y2="558.15" gradientUnits="userSpaceOnUse"><stop offset="0" stop-color="#3d6db8"/><stop offset="1" stop-color="#293144"/></linearGradient><linearGradient id="linear-gradient-3" x1="199.29" y1="533.41" x2="239.63" y2="533.41" gradientTransform="matrix(-0.26, 0.97, -0.97, -0.26, 823.23, 449.02)" gradientUnits="userSpaceOnUse"><stop offset="0.01" stop-color="#339567"/><stop offset="0.97" stop-color="#71ebb2"/></linearGradient><linearGradient id="linear-gradient-4" x1="206.72" y1="519.29" x2="240.05" y2="519.29" gradientTransform="translate(551.01 1042.27) rotate(172.15)" gradientUnits="userSpaceOnUse"><stop offset="0.03" stop-color="#a87c40"/><stop offset="0.99" stop-color="#eebe77"/></linearGradient></defs><title>circle10</title><path class="cls-1" d="M239.49,592.33A52.33,52.33,0,1,1,291.83,540,52.39,52.39,0,0,1,239.49,592.33Zm0-100.67A48.33,48.33,0,1,0,287.83,540,48.39,48.39,0,0,0,239.49,491.67Z" transform="translate(-187.16 -487.67)"/><path class="cls-1" d="M239.49,586.33A46.33,46.33,0,1,1,285.83,540,46.39,46.39,0,0,1,239.49,586.33Zm0-88.67A42.33,42.33,0,1,0,281.83,540,42.38,42.38,0,0,0,239.49,497.67Z" transform="translate(-187.16 -487.67)"/><path class="cls-1" d="M239.49,580.33A40.33,40.33,0,1,1,279.83,540,40.38,40.38,0,0,1,239.49,580.33Zm0-76.67A36.33,36.33,0,1,0,275.83,540,36.37,36.37,0,0,0,239.49,503.67Z" transform="translate(-187.16 -487.67)"/><path class="cls-1" d="M239.49,574.33A34.33,34.33,0,1,1,273.83,540,34.37,34.37,0,0,1,239.49,574.33Zm0-64.67A30.33,30.33,0,1,0,269.83,540,30.37,30.37,0,0,0,239.49,509.67Z" transform="translate(-187.16 -487.67)"/><path class="cls-2" d="M239.49,592.33a52.33,52.33,0,1,1,0-104.67v4A48.33,48.33,0,1,0,287.83,540h4A52.39,52.39,0,0,1,239.49,592.33Z" transform="translate(-187.16 -487.67)"/><path class="cls-3" d="M239.55,586.34q-1.62,0-3.25-.11a46.38,46.38,0,0,1-43-49.42l4,0.28a42.33,42.33,0,1,0,83.57-6.25l3.9-.87A46.38,46.38,0,0,1,239.55,586.34Z" transform="translate(-187.16 -487.67)"/><path class="cls-4" d="M278.44,550.49l-3.86-1a36.31,36.31,0,0,0-51.72-41.73L221,504.16A40.33,40.33,0,0,1,278.44,550.49Z" transform="translate(-187.16 -487.67)"/><path class="cls-5" d="M244.18,574l-0.55-4a30.29,30.29,0,0,0,26-26.82l4,0.43A34.28,34.28,0,0,1,244.18,574Z" transform="translate(-187.16 -487.67)"/></svg>