<svg preserveAspectRatio="none" xmlns="http://www.w3.org/2000/svg" viewBox="0 0 392.64 392.54"><defs><style>.cls-3{mix-blend-mode:screen}.cls-3,.cls-4{fill:#03a6ff}.cls-3{opacity:.5}</style></defs><g style="isolation:isolate"><g style="mix-blend-mode:screen" id="Layer_7" data-name="Layer 7"><path class="cls-3" d="M857.52 1094.59a122.91 122.91 0 00-62-16.74v-46.2a169.15 169.15 0 0185.32 23.05zM672.47 1200.35A122.91 122.91 0 00689 1262.4l-40 23.1a169.15 169.15 0 01-22.69-85.41z" transform="translate(-599.2 -1004.62)"/><path class="cls-4" d="M733.53 1241l-7 4.56a82.33 82.33 0 0047.47 34.7l2.19-8.09a73.94 73.94 0 01-42.66-31.17zM719.22 1170.23a82.58 82.58 0 00-5 43.33l8.29-1.28a74 74 0 012.9-34.69q.42-1.33.92-2.62a30.25 30.25 0 01-5.9-7.66c-.43.96-.81 1.93-1.21 2.92zM845.16 1135.36a81.85 81.85 0 00-46.68-16.61l-.3 8.38A73.45 73.45 0 01840.1 1142zM862.8 1153.66l-6.86 4.82a73.81 73.81 0 01-57.21 116.18l.36 8.38a82.19 82.19 0 0063.71-129.38zM758.4 1111.6l-2.21-5.3a102.43 102.43 0 0190.44 5.87l-2.86 5a96.71 96.71 0 00-85.37-5.57z" transform="translate(-599.2 -1004.62)"/><path class="cls-4" d="M897.94 1200.88a102.51 102.51 0 01-102.43 102.43q-2.46 0-4.89-.12l.28-5.75c1.53.08 3.07.12 4.61.12a96.74 96.74 0 0096.68-96.68c0-2.23-.08-4.45-.23-6.65a95.59 95.59 0 00-13.12-42.29l5-2.91a101.52 101.52 0 0113.89 44.8c.14 2.33.21 4.68.21 7.05z" transform="translate(-599.2 -1004.62)"/><circle class="cls-3" cx="148.16" cy="148.1" r="26.67"/><path class="cls-4" d="M800.79 1113.93a87.85 87.85 0 0119.78 3.52 91.07 91.07 0 0118.46 8l4.75-8.25 2.86-5 4.54-7.89a114.24 114.24 0 00-23.59-10.16 112.77 112.77 0 00-25.3-4.52 111.58 111.58 0 00-50.33 8.66 113.75 113.75 0 00-24.74 14.49 111.49 111.49 0 00-42.39 101.46 112.36 112.36 0 002.61 14.14 117.66 117.66 0 004.46 13.62 111.27 111.27 0 0033.71 45.78l4.94-6.16.78-1 3.59-4.48 3.5-4.35 2.45-3a86.87 86.87 0 01-26.31-35.79 95.24 95.24 0 01-3.5-10.68 92 92 0 01-2-11 86.54 86.54 0 01.19-22.38 89.1 89.1 0 015.31-20.07c-.5-1-.95-2-1.36-3.09a36.62 36.62 0 01-2.39-13 35.08 35.08 0 01.44-5.61 35.72 35.72 0 012.67-9.11 36.63 36.63 0 0115.85-17.31l.19-.12c.38-.21.78-.41 1.18-.59a36.14 36.14 0 0116.23-3.82h1.1a35.54 35.54 0 019.61 1.59c.78.23 1.55.49 2.31.78l.23.09c1 .37 1.91.8 2.84 1.26a86.86 86.86 0 0137.33-6.01zM692.56 1188a6.26 6.26 0 011.89-3.79 6.36 6.36 0 014.48-1.85 5.63 5.63 0 01.8.05 5.81 5.81 0 01.85.17 6.4 6.4 0 014.77 6.2 5.63 5.63 0 01-.05.8 6.4 6.4 0 01-6.28 5.62h-.88a6.43 6.43 0 01-5.58-7.2zm1.94 29.79a6.4 6.4 0 01-1.91-3.8 5.66 5.66 0 01-.05-.8 6.44 6.44 0 01.95-3.36 6.37 6.37 0 014.67-3 5.9 5.9 0 01.82-.05h.02a6.4 6.4 0 016.28 5.61 5.87 5.87 0 01.05.82 6.4 6.4 0 01-4.74 6.17 5 5 0 01-.87.18 5.81 5.81 0 01-.81.05 6.4 6.4 0 01-4.22-1.59zM713 1253a7.2 7.2 0 01.78-.49 6.41 6.41 0 017.47 10.25 4.51 4.51 0 01-.69.6A6.42 6.42 0 01713 1253zm-2-18.53a6.38 6.38 0 01-2.77 7.93 6.06 6.06 0 01-.82.4 6.39 6.39 0 01-2.36.46 6.47 6.47 0 01-3.13-.81l-.44-.27a6.42 6.42 0 011.19-11.31 5.52 5.52 0 01.86-.27 6.13 6.13 0 011.51-.19 6.41 6.41 0 015.96 4.03zM902.05 1167.93a114.18 114.18 0 00-10.38-23.49l-7.85 4.59-5 2.91-8.23 4.81a89.91 89.91 0 018.15 18.39 88.37 88.37 0 013.67 19.74l9.52-.65 5.74-.4 9.06-.63a112.82 112.82 0 00-4.68-25.27zM875.68 1254.89l-7.92-5.33a83.54 83.54 0 01-14.68 16.74 86.09 86.09 0 01-18.48 12.44 87.07 87.07 0 01-43.22 9.2l-.46 9.51-.28 5.75-.44 9.1a111.72 111.72 0 0055.33-11.76 110.18 110.18 0 0023.65-15.93 108.5 108.5 0 0018.82-21.43l-7.56-5.08z" transform="translate(-599.2 -1004.62)"/><path class="cls-4" d="M773.7 1135a32.65 32.65 0 00-15.77-13.26 31.1 31.1 0 00-11.49-2.18c-17.77 0-32.24 14.87-32.24 33.15a33.29 33.29 0 004.88 17.51 32.32 32.32 0 006.07 7.35 30.85 30.85 0 004 3.09 31.35 31.35 0 0017.31 5.21h1.23a29.94 29.94 0 005.06-.62 27.57 27.57 0 003.07-.78 32.83 32.83 0 0021.64-22.55 31.72 31.72 0 00.72-3.13 33.26 33.26 0 00.53-5.11v-.95a33.57 33.57 0 00-5.01-17.73zm.58 28.53a30.25 30.25 0 01-17 17.66 27.85 27.85 0 01-3.4 1.14 28.72 28.72 0 01-7.47 1 28.39 28.39 0 01-8.12-1.18 18.23 18.23 0 01-2-.65A29.42 29.42 0 01726 1175a29.94 29.94 0 01-5.74-7.66 30.89 30.89 0 01-3.61-14.58c0-16.86 13.33-30.58 29.74-30.58a28.6 28.6 0 018.29 1.22 30.05 30.05 0 0118.6 16.26 29.2 29.2 0 011.77 4.89 31.21 31.21 0 01.23 15.55 28.61 28.61 0 01-1 3.44z" transform="translate(-599.2 -1004.62)"/><path class="cls-3" d="M949.36 1231.9a156.78 156.78 0 01-194 120.68l9.82-37.23a118.6 118.6 0 00127.62-46.95 117.56 117.56 0 0018.78-44.11 120.42 120.42 0 00.86-42.19 117.77 117.77 0 00-14.05-39.77l11.23-6.4 22.22-12.65a156 156 0 0118.65 52.72 158.86 158.86 0 01-1.13 55.9z" transform="translate(-599.2 -1004.62)"/><path class="cls-4" d="M931.8 1123.32c-2.66 1.51-5.31 3-8 4.54a148 148 0 00-53.8-54.61l4.63-7.93a156.92 156.92 0 0157.17 58z" transform="translate(-599.2 -1004.62)"/><path d="M952.44 1200.88c0 1.24 0 2.49-.05 3.72s-.08 2.62-.14 3.93a153.32 153.32 0 01-1.54 15.64c-.37 2.55-.82 5.08-1.32 7.6v.13l-.12.56c-.21 1-.41 2-.63 2.94s-.49 2.1-.76 3.16c-.12.5-.24 1-.37 1.49a4.82 4.82 0 01-.15.58q-.31 1.23-.65 2.46c-.27 1-.54 1.91-.83 2.86s-.6 2-.92 3c-.23.74-.47 1.49-.73 2.22-.19.58-.4 1.14-.59 1.71a.34.34 0 01-.06.17A157.84 157.84 0 01880 1333c-.94.6-1.89 1.19-2.84 1.78-.28.18-.56.36-.86.51-.92.56-1.85 1.1-2.78 1.64-.54.32-1.09.63-1.64.94s-.85.47-1.27.69c-.94.53-1.89 1-2.84 1.53s-1.73.89-2.61 1.32c-.35.18-.71.36-1.07.53-.78.38-1.58.76-2.37 1.13-.56.27-1.14.54-1.73.8q-1.37.64-2.77 1.23c-1.41.6-2.84 1.19-4.26 1.76q-1.31.52-2.62 1c-1.53.58-3.05 1.13-4.59 1.64a156.33 156.33 0 01-50.27 8.25c-1.69 0-3.4 0-5.1-.08h-.26c-2.39-.08-4.76-.22-7.14-.41h-.22a156.88 156.88 0 01-27.43-4.67l2.32-8.84a147.7 147.7 0 0037.78 4.88c81.47 0 147.73-66.26 147.73-147.73a147.6 147.6 0 00-19.42-73c2.66-1.53 5.31-3 8-4.54a156.74 156.74 0 0120.61 75c.07.78.09 1.64.09 2.52z" transform="translate(-599.2 -1004.62)" style="mix-blend-mode:screen" opacity=".6" fill="#03a6ff"/><path class="cls-4" d="M647.79 1200.89h-9.18c0-86.52 70.39-156.91 156.91-156.91v9.18c-81.46 0-147.73 66.27-147.73 147.73z" transform="translate(-599.2 -1004.62)"/><path class="cls-3" d="M952.44 1200.88c0 1.24 0 2.49-.05 3.72s-.08 2.62-.14 3.93c-.26 5.24-.78 10.46-1.54 15.64-.38 2.54-.82 5.08-1.32 7.6v.13l-.12.56c-.21 1-.41 2-.63 2.94s-.49 2.1-.76 3.16c-.12.5-.24 1-.37 1.49a4.82 4.82 0 01-.15.58q-.31 1.23-.65 2.46c-.27 1-.54 1.91-.83 2.86s-.59 2-.92 3c-.23.74-.47 1.49-.73 2.22-.19.58-.4 1.14-.59 1.71a.34.34 0 01-.06.17 154.89 154.89 0 01-19.07 37.33A157 157 0 01880 1333c-.54.37-1.08.72-1.63 1.05-.4.24-.8.5-1.21.73s-.56.36-.86.51c-.92.56-1.85 1.1-2.78 1.64-.54.32-1.09.63-1.64.94s-.85.47-1.27.69c-.94.53-1.89 1-2.84 1.53s-1.73.89-2.61 1.32c-.35.18-.71.36-1.07.53-.78.38-1.58.76-2.37 1.13-.56.27-1.14.54-1.73.8q-1.37.64-2.77 1.23c-1.41.6-2.84 1.19-4.26 1.76q-1.31.52-2.62 1c-1.53.58-3.05 1.13-4.59 1.64a154.85 154.85 0 01-55.37 8.18h-.26c-2.39-.08-4.76-.22-7.14-.41h-.22a159.68 159.68 0 01-27.41-4.71c.78-3 1.55-5.89 2.34-8.84l4.2-15.89a131.76 131.76 0 0033.59 4.34c72.4 0 131.3-58.91 131.3-131.3a131.29 131.29 0 00-17.17-65l14.18-8.07c2.66-1.53 5.31-3 8-4.54h.06a156 156 0 0118.64 52.74 154.12 154.12 0 011.93 22.28c0 .86.02 1.72.02 2.6z" transform="translate(-599.2 -1004.62)"/><path class="cls-4" d="M660.53 1200.89H658c0-75.85 61.71-137.56 137.56-137.56v2.57c-74.48-.01-135.03 60.55-135.03 134.99z" transform="translate(-599.2 -1004.62)"/><path class="cls-4" d="M681.74 1199.52l-6.42-.08q0-1.33.06-2.65l6.41.22q-.04 1.25-.05 2.51zm.33-7.51l-6.4-.5q.1-1.32.23-2.64l6.39.63q-.12 1.25-.22 2.5zm.83-7.48l-6.35-.92q.19-1.31.41-2.62l6.33 1.05q-.22 1.25-.4 2.49zm1.32-7.41l-6.28-1.33q.28-1.3.58-2.59l6.25 1.47q-.3 1.22-.56 2.45zm1.81-7.3l-6.17-1.75q.36-1.27.75-2.54l6.13 1.88q-.38 1.2-.74 2.41zm2.29-7.17l-6-2.16q.45-1.25.92-2.49l6 2.29q-.51 1.18-.93 2.37zm2.76-7l-5.89-2.55q.53-1.21 1.08-2.41l5.83 2.68q-.54 1.15-1.03 2.3zm3.21-6.78l-5.7-2.94q.6-1.17 1.23-2.33l5.64 3.06q-.61 1.11-1.19 2.23zm3.66-6.56l-5.5-3.31q.68-1.13 1.39-2.25l5.42 3.43q-.68 1.08-1.33 2.15zM702 1136l-5.27-3.66q.75-1.09 1.53-2.16l5.19 3.78q-.72 1.04-1.45 2.04zm4.49-6l-5-4q.83-1 1.67-2.05l4.93 4.11q-.81.94-1.59 1.94zm4.88-5.72l-4.74-4.32q.89-1 1.81-1.94l4.65 4.43q-.86.9-1.71 1.82zm5.25-5.39l-4.45-4.62q1-.92 1.93-1.82l4.35 4.72q-.91.83-1.82 1.71zm5.59-5l-4.14-4.91q1-.85 2-1.69l4 5q-.89.71-1.85 1.55zm5.91-4.66l-3.8-5.17q1.07-.78 2.15-1.55l3.69 5.25q-1.01.68-2.03 1.42zm6.21-4.26l-3.46-5.41q1.12-.72 2.25-1.41l3.33 5.48q-1.05.61-2.1 1.29zm117-3.22q-1.09-.61-2.19-1.21l3-5.66q1.16.62 2.32 1.27zm-110.51-.62l-3.09-5.62q1.16-.64 2.34-1.25l3 5.69q-1.14.52-2.24 1.13zm103.85-2.85l-2.27-1.06 2.65-5.84q1.2.55 2.39 1.12zm-97.13-.56l-2.71-5.82q1.2-.56 2.42-1.1l2.58 5.88q-1.14.46-2.28.99zm90.26-2.46q-1.16-.47-2.34-.91l2.26-6q1.24.47 2.47 1zm-83.32-.49l-2.32-6q1.24-.48 2.49-.93l2.18 6q-1.17.42-2.34.88zm76.25-2.07l-2.39-.75 1.85-6.14q1.27.38 2.53.79zm-69.13-.41l-1.91-6.13q1.26-.39 2.54-.76l1.77 6.17zm61.9-1.67l-2.44-.59 1.43-6.26q1.3.3 2.58.62zm-54.65-.33l-1.5-6.24q1.29-.31 2.58-.59l1.36 6.27zm47.3-1.27l-2.47-.42 1-6.34q1.31.21 2.61.45zm-39.93-.24l-1.08-6.33 2.62-.42.94 6.35q-1.24.13-2.47.34zm32.49-.87l-2.5-.26.6-6.39 2.64.28zm-25-.15l-.66-6.38 2.64-.24.52 6.4zm17.54-.47l-2.51-.1.18-6.41 2.65.1zm-10-.06l-.24-6.41q1.32-.05 2.65-.07l.1 6.42zM668.11 1179.57l-1.27-.22.11-.63a129.84 129.84 0 016-22.59l.22-.6 1.21.44-.22.6a128.55 128.55 0 00-5.95 22.37zm15-42.26l-1.11-.64.32-.56a131.13 131.13 0 0113.35-19.11l.41-.49 1 .83-.41.49a129.91 129.91 0 00-13.26 19zm28.53-34.61l-.83-1 .49-.41a131.06 131.06 0 0119.12-13.46l.56-.32.64 1.11-.62.38a129.78 129.78 0 00-18.93 13.33zm38.62-22.81l-.44-1.2.6-.22a129.88 129.88 0 0122.57-6.08l.63-.11.22 1.26-.63.11a128.59 128.59 0 00-22.35 6z" transform="translate(-599.2 -1004.62)"/><g opacity=".5"><path class="cls-4" d="M943.47 1201.25v-.93a148 148 0 00-29.57-88.2 150.44 150.44 0 00-47.36-41.05 145.21 145.21 0 00-29.05-12.07 150 150 0 00-62.49-4.62l-.92.13-6.64-47.91.92-.13a198.94 198.94 0 0182.83 6.14 193.54 193.54 0 0138.62 16 198.83 198.83 0 0162.77 54.41 196.38 196.38 0 0139.26 117.07v.93zm-148-150.12a150.82 150.82 0 0142.59 6.09 147.05 147.05 0 0129.42 12.22 152.29 152.29 0 0147.91 41.56 149.86 149.86 0 0129.94 88.38l44.65-.17a194.51 194.51 0 00-38.89-115 196.94 196.94 0 00-62.18-53.9 191.65 191.65 0 00-38.24-15.89 197.08 197.08 0 00-81.13-6.21l6.13 44.23a151.78 151.78 0 0119.76-1.32zM600.89 1226.27l-.13-.9c-.51-3.46-.76-7-1-10.38l-.17-2.22c-.14-1.46-.17-2.94-.2-4.37 0-.65 0-1.3-.05-1.95s0-1.41-.05-2.11c0-1.41-.08-2.82-.06-4.23l.25-9.45.72-9.46c.16-1.49.35-2.94.53-4.4l.24-1.9a194.18 194.18 0 0113-48.84c.5-1.34 1.11-2.67 1.7-4 .28-.61.56-1.22.83-1.84s.6-1.32.89-2c.56-1.26 1.14-2.55 1.8-3.81l.86-1.69c1.6-3.14 3.25-6.38 5.1-9.47a191.28 191.28 0 0113.95-21.08l.84-1.07c2.28-2.92 4.64-5.94 7.17-8.76s5-5.6 7.56-8.25l1-1a192.66 192.66 0 0118.9-16.84l.73-.56 29.83 38.08-.75.57a144 144 0 00-14.26 12.69l-1.32 1.38c-1.73 1.81-3.51 3.67-5.12 5.62s-3.34 4-4.89 5.93l-1.18 1.5a144.83 144.83 0 00-10.5 15.89c-1.28 2.1-2.4 4.31-3.49 6.45l-1 2c-.47.87-.86 1.76-1.27 2.69-.24.55-.48 1.09-.73 1.63s-.45 1-.69 1.52c-.44 1-.86 1.85-1.2 2.8a146.15 146.15 0 00-9.82 36.77l-.6 4.77-.54 7.15-.19 7.17v6.4c0 1.07 0 2.09.14 3.1.07.82.13 1.62.19 2.42.17 2.34.35 4.77.71 7.11l.15.95zM675 1048.32a193.28 193.28 0 00-18 16.1l-1 1c-2.52 2.63-5.13 5.35-7.5 8.19s-4.85 5.79-7.11 8.68l-.83 1.06a189.71 189.71 0 00-13.82 20.89c-1.83 3.05-3.47 6.27-5.05 9.38l-.87 1.71c-.64 1.21-1.2 2.48-1.75 3.71-.3.66-.59 1.32-.9 2s-.55 1.23-.83 1.85c-.58 1.26-1.17 2.56-1.66 3.86a192.37 192.37 0 00-12.93 48.4l-.24 1.91c-.18 1.44-.37 2.89-.53 4.33l-.71 9.39-.25 9.39c0 1.37 0 2.76.06 4.14 0 .7 0 1.4.05 2.11s0 1.3.05 2c0 1.4.06 2.85.2 4.25l.17 2.24c.23 3.07.46 6.24.88 9.35l44.3-5.52c-.28-2.11-.44-4.24-.59-6.31l-.18-2.38c-.12-1.08-.13-2.18-.15-3.25v-1.6-1.82c0-1-.06-2-.05-3l.19-7.23.55-7.24.6-4.81a147.89 147.89 0 019.9-37.3c.35-1 .81-2 1.25-2.91.23-.5.46-1 .68-1.5s.49-1.08.73-1.61c.41-.93.83-1.89 1.33-2.81l1-2c1.11-2.17 2.25-4.41 3.54-6.54a146.65 146.65 0 0110.64-16.09l1.19-1.51c1.57-2 3.19-4.07 4.94-6s3.43-3.86 5.18-5.69l1.33-1.4a149.45 149.45 0 0113.71-12.3zM736.75 1388.25l-.89-.28a196.56 196.56 0 01-75.43-44.67l-.67-.64 33.3-35.09.67.65a148 148 0 0056.82 33.67l.88.28zm-74.36-45.66a194.72 194.72 0 0073.15 43.32l13.56-42.54a150 150 0 01-56-33.16zM800.27 1397.16l-1.41-48.35h.93a149.1 149.1 0 0082.13-27.81 147.61 147.61 0 0052.43-69l.32-.88 45.39 16.72-.32.87a195.23 195.23 0 01-47.24 72.85 211.08 211.08 0 01-22.37 18.7 197.9 197.9 0 01-108.93 36.84zm.5-46.54l1.3 44.63a196 196 0 00107-36.46 209 209 0 0022.16-18.53 193.38 193.38 0 0046.44-71.26l-41.89-15.43a149.51 149.51 0 01-52.77 69 151 151 0 01-82.24 28.05z" transform="translate(-599.2 -1004.62)"/></g><path class="cls-4" d="M807.87 1046.71a155.9 155.9 0 0153.13 14.11l2-4.37a160.74 160.74 0 00-54.77-14.55z" transform="translate(-599.2 -1004.62)"/><path class="cls-4" d="M808.71 1036.26a166.39 166.39 0 0156.71 15.06l3.45-7.37a171.48 171.48 0 0150.27 35.53l3.44-3.39a178.83 178.83 0 00-101.4-51.45c-1.89-.34-3.8-.5-5.71-.72s-3.81-.47-5.72-.58a186.57 186.57 0 00-26.05-.18 192.53 192.53 0 00-25.79 3.64l1 4.72A187.71 187.71 0 01784 1028a181.78 181.78 0 0125.34.17zM746.76 1044a163 163 0 00-62.44 35.91l6.54 7.11a153.32 153.32 0 0158.77-33.8zM679.26 1084.8c-3.08 3-5.9 6.23-8.76 9.44l-4.06 5c-1.37 1.65-2.57 3.44-3.86 5.15a166.9 166.9 0 00-13.45 21.93 174.12 174.12 0 00-9.84 23.77 160.4 160.4 0 00-6 25l9.54 1.52a150.78 150.78 0 015.66-23.55 164.52 164.52 0 019.26-22.38A157.25 157.25 0 01670.4 1110c1.22-1.61 2.34-3.29 3.64-4.85l3.82-4.7c2.69-3 5.34-6.06 8.24-8.88zM678.66 1302.21a169.4 169.4 0 01-13.91-18.69 171.93 171.93 0 01-10.9-20.59 175.21 175.21 0 01-7.71-22l-1.23-5.11-.62-2.56-.49-2.58-1-5.16-.71-5.21-.36-2.6-.22-2.62-.44-5.23-.18-5.25c0-.87-.08-1.75-.08-2.62v-2.62l-9.66-.09v2.79c0 .93.06 1.86.08 2.79l.19 5.58.47 5.56.24 2.78.38 2.77.76 5.53 1 5.49.52 2.74.65 2.71 1.31 5.43a184.66 184.66 0 008.18 23.38 181.41 181.41 0 0011.59 21.89 178.93 178.93 0 0014.79 19.87A170.5 170.5 0 00689 1326l6.26-7.36a160.9 160.9 0 01-16.6-16.43z" transform="translate(-599.2 -1004.62)"/><path class="cls-4" d="M742.42 1346.16a155.91 155.91 0 01-47.42-27.79l-3.14 3.67a160.74 160.74 0 0048.89 28.66z" transform="translate(-599.2 -1004.62)"/><path class="cls-4" d="M738.82 1356a166.39 166.39 0 01-50.62-29.67l-5.29 6.18a171.47 171.47 0 01-38.91-47.67l-4.22 2.34a178.82 178.82 0 0084 76.68c1.73.83 3.53 1.5 5.31 2.22s3.55 1.47 5.36 2.09a186.6 186.6 0 0025.06 7.13 192.54 192.54 0 0025.82 3.39l.27-4.82a187.74 187.74 0 01-25.12-3.3 181.76 181.76 0 01-24.37-6.94zM784.83 1364.81a163 163 0 0071.17-11.15l-3.56-9a153.32 153.32 0 01-67 10.49zM862.46 1350.93c3.95-1.69 7.74-3.7 11.56-5.67l5.58-3.21c1.87-1.05 3.63-2.29 5.45-3.42a166.89 166.89 0 0020.41-15.63 174.17 174.17 0 0017.71-18.67 160.46 160.46 0 0014.58-21.19l-8.36-4.84a150.78 150.78 0 01-13.73 20 164.54 164.54 0 01-16.66 17.5 157.22 157.22 0 01-19.22 14.74c-1.72 1.07-3.37 2.24-5.13 3.22l-5.25 3c-3.59 1.85-7.16 3.75-10.87 5.33zM958 1176.19a181.45 181.45 0 00-5.53-24.14 179 179 0 00-9.14-23 170.55 170.55 0 00-12.51-21.37l-7.95 5.49a160.89 160.89 0 0111.78 20.11 169.37 169.37 0 018.6 21.65 171.89 171.89 0 015.2 22.71 175.2 175.2 0 011.74 23.26l-.14 5.26-.06 2.63-.2 2.62-.4 5.24-.66 5.21-.33 2.61-.46 2.58-.93 5.17-1.18 5.12c-.2.85-.37 1.71-.6 2.55l-.72 2.52 9.3 2.59.76-2.68c.24-.9.43-1.81.64-2.71l1.26-5.44 1-5.49.49-2.75.35-2.77.7-5.54.42-5.57.21-2.78.07-2.79.14-5.58a184.73 184.73 0 00-1.85-24.71zM795.52 1319a118.26 118.26 0 01-118.12-118.11v-1.42h1.28v1.4A116.84 116.84 0 10852.83 1099l.63-1.12A118.14 118.14 0 01795.52 1319z" transform="translate(-599.2 -1004.62)"/><g style="mix-blend-mode:screen" opacity=".5"><circle class="cls-4" cx="117.61" cy="253.54" r="4.58"/><circle class="cls-4" cx="105.83" cy="232.19" r="4.58"/><circle class="cls-4" cx="99.73" cy="208.57" r="4.58"/><circle class="cls-4" cx="99.75" cy="184.25" r="4.58"/></g><path class="cls-4" d="M752.36 1160.85h-10a8.13 8.13 0 010-16.25h10a8.13 8.13 0 010 16.25zm-10-15a6.84 6.84 0 000 13.69h10a6.84 6.84 0 000-13.69h-10z" transform="translate(-599.2 -1004.62)"/><path class="cls-4" d="M752.43 1156.95h-10.15a4.23 4.23 0 01-4.22-4.22 4.23 4.23 0 014.22-4.22h10.15a4.23 4.23 0 014.22 4.22 4.23 4.23 0 01-4.22 4.22z" transform="translate(-599.2 -1004.62)"/><path class="cls-4" d="M864.86 1200.88a69.37 69.37 0 11-135.73-20.21c.14-.46.28-.94.44-1.4l6.75 2.21 2 .65 9.54 3.13c-.06.19-.13.4-.18.59a50.06 50.06 0 1031-32.19l-.23.08-3.35-9.24a29.2 29.2 0 00-1.77-4.89l-1.44-4 1.81-.63a69.46 69.46 0 0191.16 65.9z" transform="translate(-599.2 -1004.62)"/><path class="cls-4" d="M795.49 1155.35a45.36 45.36 0 00-17.34 3.43c-.95.4-1.9.82-2.82 1.28a28.61 28.61 0 01-1.05 3.48c1-.59 2.08-1.13 3.16-1.63a42.55 42.55 0 0118.06-4 43 43 0 11-39.7 26.54c.46-1.12 1-2.19 1.51-3.26a27.85 27.85 0 01-3.4 1.14c-.44.95-.82 1.93-1.18 2.9a45.53 45.53 0 1042.76-29.88z" transform="translate(-599.2 -1004.62)"/></g></g></svg>