<svg preserveAspectRatio="none" id="Layer_1" data-name="Layer 1" xmlns="http://www.w3.org/2000/svg" viewBox="0 0 1222.46 1222.5"><defs><style>.cls-1{fill:#20ffff}</style></defs><path class="cls-1" d="M1339.36 3894.31a376.81 376.81 0 00-296.24-296.24 377.92 377.92 0 00-147.07 0 376.81 376.81 0 00-296.25 296.24 377.91 377.91 0 000 147.07A376.81 376.81 0 00896 4337.63a377.91 377.91 0 00147.07 0 376.81 376.81 0 00296.24-296.24 377.92 377.92 0 00.05-147.08zm-113.36 330a363.59 363.59 0 01-117.63 78.65 359 359 0 01-64.5 19.86c-6.57-7.56-12.84-15.4-18.74-23.19-3.94.8-7.94 1.22-11.93 1.74l-6 .76-3 .38c-1 .1-2 .16-3 .24l-12 .92c-2 .2-4 .22-6 .27l-6 .15-6 .16h-3.02l-3-.08-12.07-.3c-4-.23-8-.6-12-.88l-6-.46-6-.77a333.9 333.9 0 01-92.78-25l-11-5-1.37-.62-1.34-.69-2.68-1.38-5.37-2.75-5.36-2.75-5.22-3-5.23-3c-1.74-1-3.51-2-5.18-3.09l-10.15-6.51c-1.72-1-3.33-2.25-5-3.41l-4.91-3.5-4.92-3.49-4.74-3.72-4.74-3.73c-1.57-1.26-3.2-2.43-4.69-3.79l-9.12-7.9c-1.55-1.28-3-2.69-4.44-4.08l-4.36-4.16L732 4206c-1.41-1.43-2.78-2.91-4.17-4.36l-4.16-4.37-2.08-2.18-1-1.09-1-1.14-7.9-9.12c-.65-.77-1.34-1.5-2-2.29l-1.86-2.37-3.73-4.74-3.73-4.74c-1.21-1.6-2.34-3.27-3.52-4.9l-3.5-4.91-1.75-2.46c-.59-.81-1.17-1.63-1.7-2.49q-10.06 1.07-20.41 1.73c-3.08.19-6.18.35-9.3.49a361.91 361.91 0 01-9.19-362.44h9.29q10.37.13 20.49.7c1-1.77 2.08-3.44 3.16-5.13l3.26-5.08 3.25-5.08c1.14-1.65 2.33-3.28 3.49-4.92l3.49-4.92 1.75-2.46.88-1.23.93-1.18 7.45-9.48c.63-.78 1.22-1.6 1.88-2.36l2-2.28 4-4.56 3.95-4.56c1.35-1.49 2.77-2.92 4.15-4.38l4.16-4.37 2.08-2.18c.69-.74 1.39-1.46 2.13-2.14l8.73-8.32c.73-.69 1.44-1.4 2.19-2.07l2.28-2 4.56-3.95 4.56-4c1.53-1.3 3.15-2.5 4.72-3.75 3.18-2.46 6.29-5 9.52-7.41l9.83-7 2.46-1.75 2.54-1.62 5.08-3.25 5.07-3.26c1.69-1.09 3.47-2 5.2-3 3.49-2 7-4 10.47-6l10.73-5.49 2.68-1.38c.9-.46 1.83-.84 2.74-1.26l5.49-2.48c3.67-1.65 7.29-3.39 11.07-4.77l11.21-4.43 11.42-3.86a322.82 322.82 0 0146.66-11.49l5.93-1.07c2-.29 4-.51 6-.77 4-.49 8-1.05 12-1.49 8-.54 16-1.43 24.09-1.43l6-.15 3-.08c1 0 2 0 3 .05l12.07.31c1 0 2 0 3 .09l3 .23 6 .46c4 .32 8 .52 12 1.12 5.49-8.07 11.36-16.23 17.54-24.12a362.36 362.36 0 01234.82 141.8q-1.93 4.27-3.92 8.47-4.45 9.37-9.2 18.32c1.21 1.61 2.24 3.34 3.33 5l3.25 5.08 3.26 5.07 3 5.23 3 5.23c1 1.75 2.06 3.45 2.93 5.27l5.5 10.73c.45.9.94 1.78 1.35 2.69l1.24 2.75 2.48 5.49 2.49 5.49c.8 1.84 1.49 3.73 2.24 5.6 1.45 3.75 3 7.46 4.38 11.23l3.86 11.42 1 2.85c.32 1 .56 1.93.84 2.89l1.64 5.8c1.08 3.87 2.29 7.71 3.1 11.65l2.71 11.75c.76 3.94 1.42 7.91 2.15 11.86.34 2 .74 4 1 5.94l.75 6 .76 6c.23 2 .57 4 .67 6l.91 12 .23 3c.06 1 .06 2 .09 3l.15 6 .16 6c0 1 .08 2 .05 3l-.08 3-.3 12.07c0 2-.24 4-.37 6l-.46 6-.45 6c-.17 2-.49 4-.72 6l-1.53 12-2.12 11.87-.53 3-.27 1.48-.34 1.47-1.36 5.87-1.35 5.87-.67 2.94-.82 2.9-3.29 11.6-.41 1.45-.48 1.43-1 2.85-1.93 5.71-1.93 5.71-2.22 5.61-2.21 5.61c-.76 1.86-1.41 3.77-2.28 5.58l-5 11c-.42.91-.81 1.84-1.26 2.74l-1.38 2.68-2.75 5.36-2.74 5.37c-.93 1.78-2 3.49-3 5.24-2 3.47-4 7-6.05 10.43q5.18 8.69 10.1 17.81 2.2 4.09 4.34 8.27a364 364 0 01-44.99 55.12z" transform="translate(-344.26 -3342.54)"/><g opacity=".2"><path d="M1440 3653.61a569.9 569.9 0 00-156.18-156.18 561.34 561.34 0 00-97.7-52.27 567.28 567.28 0 00-433.06 0 561.34 561.34 0 00-97.71 52.27 569.9 569.9 0 00-156.18 156.18 561.34 561.34 0 00-52.27 97.7 567.28 567.28 0 000 433.06 561.34 561.34 0 0052.27 97.7 569.91 569.91 0 00156.18 156.18 561.34 561.34 0 0097.65 52.28 567.28 567.28 0 00433.06 0 561.34 561.34 0 0097.7-52.27A569.9 569.9 0 001440 4282.09a561.35 561.35 0 0052.27-97.7 567.28 567.28 0 000-433.06 561.35 561.35 0 00-52.27-97.72z" transform="translate(-344.26 -3342.54)" fill="none"/><path class="cls-1" d="M1553.69 3843.4c-.64-3.28-1.42-6.53-2.17-9.79s-1.46-6.52-2.3-9.76l-2.5-9.71-.62-2.43-.68-2.41-1.37-4.82c-1.75-6.45-3.8-12.81-5.76-19.2-1-3.19-2.11-6.34-3.16-9.51l-1.6-4.75c-.53-1.58-1.13-3.14-1.7-4.72l-3.42-9.42-3.65-9.34-1.83-4.67-1.94-4.62-3.9-9.24c-2.77-6.08-5.39-12.23-8.35-18.22-1.46-3-2.85-6-4.36-9l-4.55-8.93a594.92 594.92 0 00-92.12-130.73 595.35 595.35 0 00-427.42-191.33 576.61 576.61 0 00-63.47-28.26 624.86 624.86 0 00-108.28 18.69 622 622 0 00-198.54 92.2 633.23 633.23 0 00-154.82 154.82 622 622 0 00-92.2 198.56 624.87 624.87 0 00-18.69 108.28 576.62 576.62 0 0028.26 63.47 595.65 595.65 0 0089.84 304.75l5.42 8.46 2.71 4.23 2.81 4.16 5.64 8.32 5.84 8.18 2.92 4.09 3 4 6.05 8 6.25 7.87 3.13 3.94 3.22 3.86 6.45 7.71 6.64 7.55 3.32 3.77 3.41 3.69 6.84 7.38c9.31 9.65 18.74 19.2 28.66 28.23a598.68 598.68 0 0062.52 50.48c11 7.62 22.17 15.07 33.68 21.93 5.68 3.55 11.56 6.77 17.35 10.14 2.93 1.63 5.89 3.2 8.83 4.8l4.42 2.39 4.47 2.29a597.59 597.59 0 00311 65l5-.3 5-.41 10-.84c6.66-.76 13.34-1.34 20-2.3 13.3-1.65 26.52-3.94 39.67-6.5l9.84-2c3.28-.7 6.53-1.5 9.8-2.24l4.9-1.13c1.63-.39 3.25-.83 4.87-1.24l9.73-2.5 9.67-2.74c1.61-.46 3.23-.89 4.83-1.38l4.8-1.49c3.2-1 6.41-1.95 9.59-3l9.53-3.2c12.65-4.4 25.21-9.09 37.53-14.36 6.21-2.52 12.27-5.37 18.4-8.09 3-1.41 6-2.88 9.07-4.32l4.53-2.17 4.48-2.27 9-4.56 8.84-4.78 4.41-2.4 4.36-2.5 8.71-5 8.59-5.22c1.43-.88 2.88-1.72 4.28-2.63l4.23-2.72c2.81-1.82 5.65-3.6 8.44-5.45l8.32-5.64a593.55 593.55 0 00144.68-12.6 590.85 590.85 0 0011.83-144.8c60.29-88.34 95.76-193.3 101.8-300.13a598.47 598.47 0 00-12.01-159.47zm-61.43 341a561.35 561.35 0 01-52.27 97.7 569.9 569.9 0 01-156.18 156.18 561.34 561.34 0 01-97.7 52.27 567.28 567.28 0 01-433.06 0 561.34 561.34 0 01-97.71-52.27 569.91 569.91 0 01-156.18-156.18 561.34 561.34 0 01-52.27-97.7 567.28 567.28 0 010-433.06 561.34 561.34 0 0152.27-97.7 569.9 569.9 0 01156.18-156.18 561.34 561.34 0 0197.66-52.29 567.28 567.28 0 01433.06 0 561.34 561.34 0 0197.7 52.27A569.9 569.9 0 011440 3653.61a561.35 561.35 0 0152.27 97.7 567.28 567.28 0 01-.01 433.07z" transform="translate(-344.26 -3342.54)"/></g><g opacity=".6"><path class="cls-1" d="M969.58 4489.16a525.72 525.72 0 01-101.67-9.95 518.72 518.72 0 01-97.91-29.65 522.54 522.54 0 01-282.16-282.16 518.77 518.77 0 01-29.65-97.88 525.85 525.85 0 01-9.95-101.66 525.85 525.85 0 019.95-101.67 518.75 518.75 0 0129.65-97.88A522.56 522.56 0 01770 3486.14a518.85 518.85 0 0197.88-29.65 524.55 524.55 0 01203.33 0 518.68 518.68 0 0197.88 29.65 522.55 522.55 0 01282.16 282.16 518.8 518.8 0 0129.65 97.88 524.52 524.52 0 010 203.33 518.78 518.78 0 01-29.65 97.88 522.55 522.55 0 01-282.16 282.16 518.78 518.78 0 01-97.88 29.65 525.77 525.77 0 01-101.63 9.96zm-511.31-521.31a515.79 515.79 0 009.76 99.73 508.78 508.78 0 0029.08 96 512.55 512.55 0 00276.75 276.75 508.75 508.75 0 0096 29.08 514.54 514.54 0 00199.45 0 508.73 508.73 0 0096-29.08A512.55 512.55 0 001442 4163.57a508.76 508.76 0 0029.08-96 514.53 514.53 0 000-199.45 508.77 508.77 0 00-29.08-96 512.55 512.55 0 00-276.75-276.75 508.84 508.84 0 00-96-29.08 514.53 514.53 0 00-199.45 0 508.79 508.79 0 00-96 29.08 512.56 512.56 0 00-276.75 276.75 508.76 508.76 0 00-29.08 96 515.83 515.83 0 00-9.76 99.73z" transform="translate(-344.26 -3342.54)"/><path class="cls-1" d="M1066.23 4447.2l-1.81-3.11c-4.94-8.5-10-17.7-15.17-27.36-4.15-7.81-8.3-16-12.38-24.39a432.17 432.17 0 01-119.22 2.14 427.76 427.76 0 01-223.11-96.42 431.49 431.49 0 01-80.15-88.22c-8.65 2.69-17.46 5.28-26.25 7.7-10 2.73-20.15 5.31-30.29 7.69l-3.52.82-1.89-3.08a486.86 486.86 0 01-71.78-255.11 511.09 511.09 0 013.75-60.68 486.42 486.42 0 0129.84-117.73 501.07 501.07 0 0125.75-55.17l1.73-3.18 3.56.65c10.26 1.86 20.57 3.93 30.65 6.15 8.58 1.89 17.52 4 26.61 6.36a431.85 431.85 0 01176.75-161.83 426.13 426.13 0 01116.71-38 431.88 431.88 0 01119.17-3.87c7.53-17.75 15.68-35.15 24.87-53.08l1.65-3.21 3.57.55a488.66 488.66 0 01177.12 64.52A494.26 494.26 0 011361.87 3676l2.16 2.9-2.07 3c-6 8.52-12.16 17-18.4 25.26-5.36 7.07-11 14.29-16.91 21.52a427.87 427.87 0 0172.55 228.23 432.4 432.4 0 01-14.38 122 426.1 426.1 0 01-46.43 109.64c6.07 6.74 12.1 13.66 18 20.62 6.57 7.81 13.17 16 19.65 24.3l2.22 2.85-2 3A494.79 494.79 0 011243.34 4373a489 489 0 01-173.58 73.49zm-23.6-65.94l1.62 3.38c4.54 9.45 9.19 18.67 13.83 27.4 4.44 8.37 8.86 16.39 13.17 23.89a479.12 479.12 0 00166.47-71.23 484.86 484.86 0 00128.15-127.91 832.432 832.432 0 00-17.18-21.15 831.52 831.52 0 00-20.23-23.11l-2.52-2.77 2-3.2a416.19 416.19 0 0047.24-110.2 421.89 421.89 0 00-6-237.5 417 417 0 00-52.83-107.66l-2.12-3.09 2.38-2.9c6.63-8.09 13-16.2 19-24.11 5.44-7.19 10.84-14.58 16.09-22a484.28 484.28 0 00-134.47-121.24 478.81 478.81 0 00-169.9-62.63c-9 17.72-17 35-24.35 52.6l-1.45 3.46-3.73-.42a422.34 422.34 0 00-120.06 3.38 418.37 418.37 0 00-212.84 105.2 421 421 0 00-75.71 93.16l-1.93 3.22-3.63-.95a792.14 792.14 0 00-29.85-7.2c-8.79-1.93-17.76-3.75-26.71-5.42a475.93 475.93 0 00-52.71 166.14 500.92 500.92 0 00-3.67 59.48 476.83 476.83 0 0068.43 246.8c8.85-2.12 17.71-4.38 26.39-6.76 9.87-2.72 19.78-5.66 29.45-8.71l3.58-1.13 2.09 3.12a421.49 421.49 0 00182.51 152.12 416.49 416.49 0 00115.74 31.27 422.38 422.38 0 00120.08-2.67z" transform="translate(-344.26 -3342.54)"/></g></svg>