<svg preserveAspectRatio="none" id="Layer_1" data-name="Layer 1" xmlns="http://www.w3.org/2000/svg" viewBox="0 0 87.38 87.47"><defs><style>.cls-1{fill:#154666;}.cls-2{fill:#5cdeff;}.cls-3{fill:#2f99e0;}.cls-4{fill:#ba5bb2;}.cls-5{fill:#ff7df5;}</style></defs><title>circle29</title><path class="cls-1" d="M260.69,138A39.58,39.58,0,0,1,221.16,98.5a39.41,39.41,0,0,1,10.27-26.58,39.87,39.87,0,0,1,13.87-9.84A39.54,39.54,0,1,1,260.69,138Zm0-78.56a38.77,38.77,0,0,0-15.19,3.07,39.16,39.16,0,0,0-20,19.06,38.67,38.67,0,0,0-3.84,16.9A39,39,0,1,0,260.69,59.47Z" transform="translate(-217.08 -54.77)"/><path class="cls-2" d="M225.57,116.94A39.75,39.75,0,0,1,221,98.5h0.75a39,39,0,0,0,4.45,18.08Z" transform="translate(-217.08 -54.77)"/><path class="cls-2" d="M260.69,138.16a39.37,39.37,0,0,1-23.23-7.51l0.44-.61a38.91,38.91,0,0,0,50.74-4.47l0.54,0.52A39.34,39.34,0,0,1,260.69,138.16Z" transform="translate(-217.08 -54.77)"/><path class="cls-2" d="M300.35,98.5H299.6A39,39,0,0,0,260.69,59.6V58.85A39.7,39.7,0,0,1,300.35,98.5Z" transform="translate(-217.08 -54.77)"/><path class="cls-2" d="M235.86,124.36A35.88,35.88,0,0,1,228.37,83a35.82,35.82,0,0,1,32.33-20.33V63.4A34.88,34.88,0,0,0,247,66.16,35.24,35.24,0,0,0,229,83.3a35.13,35.13,0,0,0,7.34,40.52Z" transform="translate(-217.08 -54.77)"/><path class="cls-2" d="M282.8,126.73l-0.46-.59a35.12,35.12,0,0,0,11.36-15.66l0.71,0.26A35.87,35.87,0,0,1,282.8,126.73Z" transform="translate(-217.08 -54.77)"/><path class="cls-2" d="M296.55,98.5H295.8a35,35,0,0,0-9.09-23.57l0.55-.5A35.77,35.77,0,0,1,296.55,98.5Z" transform="translate(-217.08 -54.77)"/><rect class="cls-1" x="43.37" y="12.9" width="0.5" height="8.73"/><rect class="cls-3" x="258.14" y="67.78" width="0.5" height="8.73" transform="translate(-222.38 -31.99) rotate(-5)"/><rect class="cls-1" x="255.85" y="68.08" width="0.5" height="8.73" transform="translate(-225.77 -9.22) rotate(-10)"/><polygon class="cls-1" points="37.66 22.45 35.4 14.02 35.88 13.89 38.14 22.32 37.66 22.45"/><rect class="cls-3" x="251.39" y="69.27" width="0.5" height="8.73" transform="matrix(0.94, -0.34, 0.34, 0.94, -227.09, 35.74)"/><rect class="cls-1" x="249.26" y="70.15" width="0.5" height="8.73" transform="translate(-225.2 57.65) rotate(-25)"/><rect class="cls-1" x="247.21" y="71.22" width="0.5" height="8.73" transform="translate(-221.71 79.1) rotate(-30)"/><rect class="cls-1" x="245.27" y="72.46" width="0.5" height="8.73" transform="translate(-216.74 99.94) rotate(-35)"/><rect class="cls-3" x="243.44" y="73.87" width="0.5" height="8.73" transform="translate(-210.35 120.17) rotate(-40)"/><rect class="cls-1" x="241.73" y="75.43" width="0.5" height="8.73" transform="translate(-202.62 139.71) rotate(-45)"/><polygon class="cls-3" points="26.53 29.72 19.84 24.11 20.16 23.72 26.85 29.34 26.53 29.72"/><rect class="cls-1" x="238.77" y="78.96" width="0.5" height="8.73" transform="translate(-183.41 176.56) rotate(-55)"/><rect class="cls-1" x="237.53" y="80.91" width="0.5" height="8.73" transform="translate(-172.04 193.78) rotate(-60)"/><rect class="cls-1" x="236.46" y="82.95" width="0.5" height="8.73" transform="translate(-159.54 210.18) rotate(-65)"/><polygon class="cls-1" points="22.77 36.41 14.56 33.42 14.73 32.95 22.94 35.94 22.77 36.41"/><polygon class="cls-1" points="22.21 38.25 13.78 35.99 13.9 35.51 22.34 37.77 22.21 38.25"/><polygon class="cls-3" points="21.81 40.14 13.22 38.62 13.3 38.13 21.9 39.65 21.81 40.14"/><polygon class="cls-1" points="21.58 42.05 12.89 41.29 12.93 40.79 21.63 41.55 21.58 42.05"/><rect class="cls-1" x="12.79" y="43.48" width="8.73" height="0.5"/><polygon class="cls-1" points="12.93 46.66 12.89 46.17 21.58 45.41 21.63 45.9 12.93 46.66"/><polygon class="cls-1" points="13.3 49.33 13.22 48.84 21.81 47.32 21.9 47.81 13.3 49.33"/><polygon class="cls-1" points="13.9 51.95 13.78 51.47 22.21 49.2 22.34 49.69 13.9 51.95"/><polygon class="cls-1" points="14.73 54.51 14.56 54.04 22.77 51.05 22.94 51.52 14.73 54.51"/><rect class="cls-3" x="232.35" y="109.43" width="8.73" height="0.5" transform="translate(-241.26 55.34) rotate(-24.96)"/><rect class="cls-3" x="233.41" y="111.48" width="8.73" height="0.5" transform="translate(-241.08 79.19) rotate(-30.02)"/><rect class="cls-1" x="234.65" y="113.43" width="8.73" height="0.5" transform="translate(-239.01 103.13) rotate(-35.05)"/><polygon class="cls-1" points="20.16 63.73 19.84 63.35 26.53 57.74 26.85 58.12 20.16 63.73"/><rect class="cls-1" x="237.62" y="116.96" width="8.73" height="0.5" transform="translate(-229.08 150.67) rotate(-45)"/><rect class="cls-3" x="239.32" y="118.52" width="8.73" height="0.5" transform="translate(-221.03 174.29) rotate(-49.99)"/><rect class="cls-1" x="241.15" y="119.93" width="8.73" height="0.5" transform="translate(-210.8 197.64) rotate(-55.01)"/><rect class="cls-1" x="243.1" y="121.17" width="8.73" height="0.5" transform="translate(-198.42 220.36) rotate(-60.03)"/><rect class="cls-3" x="245.15" y="122.23" width="8.73" height="0.5" transform="translate(-183.89 242.25) rotate(-65.04)"/><rect class="cls-3" x="247.28" y="123.12" width="8.73" height="0.5" transform="translate(-167.28 263.03) rotate(-70.04)"/><polygon class="cls-1" points="35.88 73.57 35.4 73.44 37.66 65.01 38.14 65.14 35.88 73.57"/><rect class="cls-1" x="251.73" y="124.31" width="8.73" height="0.5" transform="translate(-128.17 300.33) rotate(-79.99)"/><rect class="cls-1" x="254.02" y="124.61" width="8.73" height="0.5" transform="translate(-105.76 316.51) rotate(-84.96)"/><rect class="cls-3" x="43.37" y="65.82" width="0.5" height="8.73"/><path class="cls-4" d="M260.69,116.49a18,18,0,1,1,18-18A18,18,0,0,1,260.69,116.49Zm0-35.48a17.37,17.37,0,0,0-6.81,1.37,17.54,17.54,0,0,0-9,8.54,17.33,17.33,0,0,0-1.72,7.57A17.49,17.49,0,1,0,260.69,81Z" transform="translate(-217.08 -54.77)"/><path class="cls-5" d="M244.3,106.22a18,18,0,0,1-1.72-7.72h0.75a17.21,17.21,0,0,0,1.65,7.4Z" transform="translate(-217.08 -54.77)"/><path class="cls-5" d="M260.69,116.62a18.09,18.09,0,0,1-9.28-2.56l0.38-.64a17.34,17.34,0,0,0,8.9,2.45v0.75Z" transform="translate(-217.08 -54.77)"/><path class="cls-5" d="M271.55,113l-0.45-.6a17.23,17.23,0,0,0,7-13.9h0.75A18,18,0,0,1,271.55,113Z" transform="translate(-217.08 -54.77)"/><path class="cls-5" d="M247.84,86.83l-0.55-.5a18.26,18.26,0,0,1,6.36-4.51l0.29,0.69A17.51,17.51,0,0,0,247.84,86.83Z" transform="translate(-217.08 -54.77)"/><path class="cls-1" d="M288.86,111.63l-8-4.64,0.08-.2a21.69,21.69,0,0,0,1.43-5.35l0-.22h9.28l0,0.27a30.84,30.84,0,0,1-2.65,9.89Zm-7.41-4.85,7.18,4.15a30.32,30.32,0,0,0,2.46-9.2h-8.3A22.18,22.18,0,0,1,281.45,106.77Z" transform="translate(-217.08 -54.77)"/><path class="cls-1" d="M291.65,95.78h-9.28l0-.22a21.71,21.71,0,0,0-1.43-5.35l-0.08-.2,8-4.64L289,85.63a30.83,30.83,0,0,1,2.65,9.88Zm-8.85-.5h8.3a30.3,30.3,0,0,0-2.46-9.2l-7.18,4.15A22.19,22.19,0,0,1,282.8,95.28Z" transform="translate(-217.08 -54.77)"/><path class="cls-1" d="M278.52,123.95l-4.64-8,0.17-.13a22,22,0,0,0,3.92-3.92l0.13-.17,8,4.64-0.16.22a31.15,31.15,0,0,1-7.23,7.23Zm-4-7.91,4.15,7.18a30.67,30.67,0,0,0,6.73-6.73l-7.18-4.15A22.51,22.51,0,0,1,274.53,116Z" transform="translate(-217.08 -54.77)"/><path class="cls-3" d="M278.1,85.31L278,85.14a22,22,0,0,0-3.92-3.92l-0.17-.13,4.64-8,0.22,0.16A31.14,31.14,0,0,1,286,80.45l0.16,0.22ZM274.53,81a22.51,22.51,0,0,1,3.7,3.7l7.18-4.15a30.67,30.67,0,0,0-6.73-6.73Z" transform="translate(-217.08 -54.77)"/><path class="cls-4" d="M260.71,112.34a13.84,13.84,0,0,1-7.3-25.6h0A13.84,13.84,0,1,1,268,110.26,13.79,13.79,0,0,1,260.71,112.34Zm-7-25.18a13.34,13.34,0,0,0,8.46,24.6A13.34,13.34,0,0,0,272,91.47a13.35,13.35,0,0,0-18.36-4.31h0Z" transform="translate(-217.08 -54.77)"/><path class="cls-5" d="M268.05,110.37l-0.39-.64a13.11,13.11,0,0,0,4.12-4l0.63,0.41A13.84,13.84,0,0,1,268.05,110.37Z" transform="translate(-217.08 -54.77)"/><path class="cls-5" d="M273.91,98.27a13.19,13.19,0,0,0-2-6.73l0.64-.4a13.93,13.93,0,0,1,2.1,7.12h-0.75Z" transform="translate(-217.08 -54.77)"/><path class="cls-5" d="M253.73,87.27l-0.39-.64a13.86,13.86,0,0,1,12.45-1.13l-0.27.7A13.12,13.12,0,0,0,253.73,87.27Z" transform="translate(-217.08 -54.77)"/><path class="cls-5" d="M258.16,112.23a14.08,14.08,0,0,1-5.54-2.33l0.43-.61a13.32,13.32,0,0,0,5.24,2.21Z" transform="translate(-217.08 -54.77)"/><path class="cls-1" d="M260.62,142.11a43.54,43.54,0,0,1-40.73-28.2,44,44,0,0,1-2.71-18.57,43.63,43.63,0,0,1,63.35-35.66h0A43.61,43.61,0,0,1,260.62,142.11Zm0.14-86.71a43.13,43.13,0,0,0-34.38,69.22,42.7,42.7,0,0,0,14.69,12.27A43.11,43.11,0,1,0,260.77,55.4Z" transform="translate(-217.08 -54.77)"/><path class="cls-2" d="M260.67,142.24a43.85,43.85,0,0,1-19.88-4.8l0.34-.67a43.12,43.12,0,0,0,20,4.71v0.75h-0.5Z" transform="translate(-217.08 -54.77)"/><path class="cls-2" d="M280.61,137.44l-0.34-.67a43,43,0,0,0,21.11-52.17l0.71-.24A43.74,43.74,0,0,1,280.61,137.44Z" transform="translate(-217.08 -54.77)"/><path class="cls-2" d="M222.42,78.94l-0.67-.34a43.79,43.79,0,0,1,58.85-19l-0.34.67A43,43,0,0,0,222.42,78.94Z" transform="translate(-217.08 -54.77)"/></svg>