<svg preserveAspectRatio="none" id="Layer_1" data-name="Layer 1" xmlns="http://www.w3.org/2000/svg" viewBox="0 0 116.81 116.84"><defs><style>.cls-1{fill:#12aac2;}.cls-2{fill:#03171a;}.cls-3{fill:#041f23;}.cls-4{fill:#05292f;}.cls-5{fill:#06363e;}.cls-6{fill:#084853;}.cls-7{fill:#0e8092;}.cls-8{fill:#020d0f;}.cls-9{fill:#021114;}.cls-10{fill:#ff8a29;}</style></defs><title>circle81</title><path class="cls-1" d="M356.61,372.8a18.55,18.55,0,0,0,5,12.67l0.33-.33a0.5,0.5,0,0,1,.71.71l-0.34.34a18.61,18.61,0,0,0,30.7-7.76l-1-.21a17.64,17.64,0,1,1,0-10.83l1-.21a18.65,18.65,0,0,0-4.38-7.31l-0.29.29a0.5,0.5,0,0,1-.71-0.71l0.28-.28A18.61,18.61,0,0,0,356.61,372.8Z" transform="translate(-316.87 -314.69)"/><path class="cls-1" d="M362.31,386.19l0.34-.34a0.5,0.5,0,0,0-.71-0.71l-0.33.33L358.1,389,351,396.12l-11,11a2.82,2.82,0,0,1,.75.66l10.92-10.92,7.12-7.12Z" transform="translate(-316.87 -314.69)"/><path class="cls-1" d="M409.29,337.79L398.58,348.5l-7.12,7.12-3.55,3.55-0.28.28a0.5,0.5,0,1,0,.71.71l0.29-.29,3.52-3.52,7.12-7.12L410,338.55A2.82,2.82,0,0,1,409.29,337.79Z" transform="translate(-316.87 -314.69)"/><circle class="cls-2" cx="58.3" cy="16.65" r="2.83"/><circle class="cls-3" cx="364.44" cy="332.74" r="2.83" transform="translate(-390.58 -209.01) rotate(-15)"/><circle class="cls-4" cx="354.44" cy="336.89" r="2.83" transform="translate(-437.82 -92.37) rotate(-30)"/><circle class="cls-4" cx="345.85" cy="343.47" r="2.83" transform="translate(-458.45 30.47) rotate(-45)"/><circle class="cls-5" cx="339.25" cy="352.06" r="2.83" transform="translate(-452.14 155.14) rotate(-60)"/><circle class="cls-6" cx="335.11" cy="362.06" r="2.83" transform="translate(-418.22 277.36) rotate(-75)"/><circle class="cls-7" cx="335.1" cy="383.53" r="2.83" transform="translate(-404.72 -214.88) rotate(-15)"/><circle class="cls-1" cx="339.25" cy="393.53" r="2.83" transform="translate(-468.18 -92.36) rotate(-30)"/><circle class="cls-8" cx="395.91" cy="336.89" r="2.83" transform="translate(-410.69 196.59) rotate(-60)"/><circle class="cls-9" cx="385.91" cy="332.75" r="2.83" transform="translate(-352.26 304.69) rotate(-75)"/><path class="cls-7" d="M393,367.18l-1,.21-5.42,1.16a2.89,2.89,0,0,0-2.27,2.59h16.59a1.67,1.67,0,0,1,0,3.33H384.33a2.88,2.88,0,0,0,2.27,2.59l5.42,1.16,1,0.21,4.35,0.93,9.83,2.1,9,1.91a2.89,2.89,0,0,0,3.5-2.83V365.07a2.89,2.89,0,0,0-3.5-2.83l-9,1.91-9.83,2.1Zm20,0.69A4.94,4.94,0,1,1,408,372.8,4.94,4.94,0,0,1,413,367.86Z" transform="translate(-316.87 -314.69)"/><path class="cls-7" d="M426.81,367.86a4.94,4.94,0,1,0,4.94,4.94A4.94,4.94,0,0,0,426.81,367.86Zm0,7.41a2.47,2.47,0,1,1,2.47-2.47A2.47,2.47,0,0,1,426.81,375.27Z" transform="translate(-316.87 -314.69)"/><path class="cls-1" d="M413,383.83l-2.92-.7a36.33,36.33,0,0,1-8,14.28l2.12,2.12A39.31,39.31,0,0,0,413,383.83Z" transform="translate(-316.87 -314.69)"/><path class="cls-1" d="M375.17,409.31v3a39.33,39.33,0,0,0,26.73-10.42l-2.12-2.12A36.33,36.33,0,0,1,375.17,409.31Z" transform="translate(-316.87 -314.69)"/><path class="cls-1" d="M375.17,375.27a2.47,2.47,0,1,1,1.81-4.14h2.9a4.94,4.94,0,1,0,0,3.33H377A2.45,2.45,0,0,1,375.17,375.27Z" transform="translate(-316.87 -314.69)"/><path class="cls-10" d="M351,396.12L358.1,389a22.65,22.65,0,0,1-5.6-14.92H342.45A32.68,32.68,0,0,0,351,396.12Z" transform="translate(-316.87 -314.69)"/><path class="cls-10" d="M342.45,371.55H352.5a22.73,22.73,0,0,1,39-15.92l7.12-7.12A32.79,32.79,0,0,0,342.45,371.55ZM378,343.87a2.83,2.83,0,1,1-2.83-2.83A2.83,2.83,0,0,1,378,343.87Z" transform="translate(-316.87 -314.69)"/><path class="cls-10" d="M407.2,364.15a32.7,32.7,0,0,0-7.93-14.92l-7.12,7.12a22.71,22.71,0,0,1,5.21,9.9Z" transform="translate(-316.87 -314.69)"/><circle class="cls-10" cx="17.02" cy="58.11" r="2.64"/><path class="cls-10" d="M425.39,384.9a0.25,0.25,0,0,0-.3.18,51.37,51.37,0,0,1-84.18,26,2.83,2.83,0,0,0-3.92-3.91,51.19,51.19,0,0,1-13.15-31.92,2.51,2.51,0,0,1-.31,0l-0.19,0a51.68,51.68,0,0,0,13.26,32.22,2.82,2.82,0,1,0,4,4,51.87,51.87,0,0,0,85-26.26A0.25,0.25,0,0,0,425.39,384.9Z" transform="translate(-316.87 -314.69)"/><path class="cls-10" d="M323.83,370.37a51.44,51.44,0,0,1,85.71-35.82,2.81,2.81,0,0,0,4,4,51.28,51.28,0,0,1,11.6,22.1,0.25,0.25,0,0,0,.49-0.12,51.77,51.77,0,0,0-11.73-22.33,2.81,2.81,0,0,0-4-4,51.94,51.94,0,0,0-86.57,36.16l0.19,0A2.51,2.51,0,0,1,323.83,370.37Z" transform="translate(-316.87 -314.69)"/><circle class="cls-10" cx="109.94" cy="58.12" r="2.47"/><circle class="cls-10" cx="96.16" cy="58.12" r="2.47"/><path class="cls-10" d="M375.17,423.11a49.75,49.75,0,0,0,48.14-36.81l-8.75-2.11a40.79,40.79,0,0,1-9.1,16.53l-1.2-1.2-2.12-2.12-2-2a32.68,32.68,0,0,0,7.06-14l-9.83-2.1a22.72,22.72,0,0,1-38.58,10.36l-7.12,7.12a32.77,32.77,0,0,0,46.18,1l1.93,1.93,2.12,2.12,1.22,1.22a40.8,40.8,0,0,1-27.95,11v9Zm0-18.5a2.83,2.83,0,1,1,2.83-2.83A2.83,2.83,0,0,1,375.17,404.62Zm40.91-18.91,5.88,1.7-0.42,1.44-5.88-1.7Zm-0.9,2.89,5.66,2.33-0.57,1.39L414.61,390Zm-1.47,3.29,5.47,2.76L418.5,396,413,393.23ZM412,395l5,3.51-0.86,1.23-5-3.51Zm-2.07,3,4.69,3.94-1,1.15L409,399.2ZM407.58,401l4.33,4.33-1.06,1.06-3.45-3.45-0.88-.88,0.12-.12ZM405,403.7l1.17,1.39,2.77,3.3-1.15,1-3.94-4.69,0.44-.37Zm-2.81,2.48,3.51,5-1.23.86L401,407Zm-3,2.23,3.06,5.3-1.3.75-3.06-5.3Zm-3.19,2,2.59,5.55-1.36.63L394.63,411ZM392.64,412l2.09,5.76-1.41.51-2.09-5.76Zm-3.49,1.37,1.59,5.92-1.45.39-1.58-5.92Zm-3.59,1.06,1.06,6-1.48.26-1.06-6Zm-3.67.75,0.53,6.1-1.49.13-0.53-6.1Zm-5.22.42h1.5v6.13h-1.5v-6.12Z" transform="translate(-316.87 -314.69)"/><path class="cls-10" d="M372.69,372.8a2.46,2.46,0,1,0,2.47-2.47A2.47,2.47,0,0,0,372.69,372.8Z" transform="translate(-316.87 -314.69)"/><path class="cls-10" d="M432.73,381.78a0.39,0.39,0,0,0-.43.31,0.38,0.38,0,0,0,.32.43h0a0.38,0.38,0,0,0,.37-0.32A0.36,0.36,0,0,0,432.73,381.78Z" transform="translate(-316.87 -314.69)"/><path class="cls-10" d="M431.41,358.08a0.37,0.37,0,0,0-.27.45,0.38,0.38,0,0,0,.36.28h0.1a0.38,0.38,0,0,0,.27-0.46A0.37,0.37,0,0,0,431.41,358.08Z" transform="translate(-316.87 -314.69)"/><path class="cls-10" d="M431.54,387.63a0.36,0.36,0,0,0-.45.26,0.37,0.37,0,0,0,.26.46l0.1,0a0.38,0.38,0,0,0,.36-0.28h0A0.37,0.37,0,0,0,431.54,387.63Z" transform="translate(-316.87 -314.69)"/><path class="cls-10" d="M427.39,398.82a0.39,0.39,0,0,0-.51.17,0.37,0.37,0,0,0,.17.5,0.33,0.33,0,0,0,.17,0,0.36,0.36,0,0,0,.33-0.2A0.38,0.38,0,0,0,427.39,398.82Z" transform="translate(-316.87 -314.69)"/><path class="cls-10" d="M429.76,393.33a0.37,0.37,0,0,0-.49.21h0a0.37,0.37,0,0,0,.22.48,0.29,0.29,0,0,0,.13,0A0.37,0.37,0,0,0,429.76,393.33Z" transform="translate(-316.87 -314.69)"/><path class="cls-10" d="M433.31,375.83a0.38,0.38,0,0,0,0,.75h0A0.38,0.38,0,0,0,433.31,375.83Z" transform="translate(-316.87 -314.69)"/><path class="cls-10" d="M362.14,316.91h0.09a0.37,0.37,0,0,0,.28-0.45,0.38,0.38,0,0,0-.45-0.28A0.38,0.38,0,0,0,362.14,316.91Z" transform="translate(-316.87 -314.69)"/><path class="cls-10" d="M356.4,318.57a0.25,0.25,0,0,0,.12,0,0.37,0.37,0,1,0-.24-0.71,0.37,0.37,0,0,0-.23.48A0.37,0.37,0,0,0,356.4,318.57Z" transform="translate(-316.87 -314.69)"/><path class="cls-10" d="M340.61,326.92a0.35,0.35,0,0,0,.22-0.08h0a0.38,0.38,0,0,0-.45-0.6,0.38,0.38,0,0,0-.08.53A0.37,0.37,0,0,0,340.61,326.92Z" transform="translate(-316.87 -314.69)"/><path class="cls-10" d="M345.58,323.6a0.34,0.34,0,0,0,.19-0.05,0.37,0.37,0,0,0,.13-0.51,0.37,0.37,0,0,0-.51-0.13A0.37,0.37,0,0,0,345.58,323.6Z" transform="translate(-316.87 -314.69)"/><path class="cls-10" d="M350.86,320.81a0.32,0.32,0,0,0,.16,0,0.37,0.37,0,0,0,.18-0.5,0.39,0.39,0,0,0-.5-0.18A0.38,0.38,0,0,0,350.86,320.81Z" transform="translate(-316.87 -314.69)"/><path class="cls-10" d="M385.81,316.37h0.07a0.37,0.37,0,0,0,.37-0.3,0.37,0.37,0,0,0-.3-0.44,0.38,0.38,0,0,0-.44.3A0.39,0.39,0,0,0,385.81,316.37Z" transform="translate(-316.87 -314.69)"/><path class="cls-10" d="M374,315.44a0.39,0.39,0,0,0,.37-0.39A0.38,0.38,0,1,0,374,315.44Z" transform="translate(-316.87 -314.69)"/><path class="cls-10" d="M368,315.87h0a0.37,0.37,0,1,0-.42-0.32A0.39,0.39,0,0,0,368,315.87Z" transform="translate(-316.87 -314.69)"/><path class="cls-10" d="M324.69,344.66a0.37,0.37,0,0,0,.18,0,0.39,0.39,0,0,0,.33-0.19,0.38,0.38,0,0,0-.14-0.51,0.37,0.37,0,0,0-.51.14A0.37,0.37,0,0,0,324.69,344.66Z" transform="translate(-316.87 -314.69)"/><path class="cls-10" d="M317.52,378.7a0.38,0.38,0,0,0-.34.41,0.37,0.37,0,0,0,.37.34h0a0.37,0.37,0,0,0,.34-0.41A0.38,0.38,0,0,0,317.52,378.7Z" transform="translate(-316.87 -314.69)"/><path class="cls-10" d="M317.62,373.11a0.35,0.35,0,0,0,0-.11,0.39,0.39,0,0,0,0-.11,0.37,0.37,0,0,0-.37-0.38,0.38,0.38,0,0,0-.38.37,0.39,0.39,0,0,0,0,.12,0.42,0.42,0,0,0,0,.11h0a0.38,0.38,0,0,0,.38.38A0.37,0.37,0,0,0,317.62,373.11Z" transform="translate(-316.87 -314.69)"/><path class="cls-10" d="M331.83,335a0.37,0.37,0,0,0,.28-0.13,0.37,0.37,0,1,0-.56-0.49,0.37,0.37,0,0,0,0,.53A0.38,0.38,0,0,0,331.83,335Z" transform="translate(-316.87 -314.69)"/><path class="cls-10" d="M336,330.74a0.43,0.43,0,0,0,.26-0.09,0.39,0.39,0,0,0,0-.54,0.37,0.37,0,1,0-.55.51A0.36,0.36,0,0,0,336,330.74Z" transform="translate(-316.87 -314.69)"/><path class="cls-10" d="M328.1,339.67a0.34,0.34,0,0,0,.3-0.16,0.37,0.37,0,1,0-.52.09A0.36,0.36,0,0,0,328.1,339.67Z" transform="translate(-316.87 -314.69)"/><path class="cls-10" d="M322.33,349.32a0.39,0.39,0,0,0-.5.19,0.39,0.39,0,0,0,.2.5,0.35,0.35,0,0,0,.15,0,0.36,0.36,0,0,0,.34-0.23A0.37,0.37,0,0,0,322.33,349.32Z" transform="translate(-316.87 -314.69)"/><path class="cls-10" d="M402.56,322.25a0.35,0.35,0,0,0,.17,0,0.39,0.39,0,0,0,.34-0.19,0.38,0.38,0,0,0-.16-0.51,0.36,0.36,0,0,0-.5.15A0.38,0.38,0,0,0,402.56,322.25Z" transform="translate(-316.87 -314.69)"/><path class="cls-10" d="M407.64,325.32a0.32,0.32,0,0,0,.21.07,0.38,0.38,0,0,0,.21-0.69,0.38,0.38,0,0,0-.52.1A0.37,0.37,0,0,0,407.64,325.32Z" transform="translate(-316.87 -314.69)"/><path class="cls-10" d="M412.61,329a0.37,0.37,0,0,0,.29-0.14,0.37,0.37,0,0,0,0-.52,0.38,0.38,0,0,0-.49.57A0.38,0.38,0,0,0,412.61,329Z" transform="translate(-316.87 -314.69)"/><path class="cls-10" d="M416.72,332.95a0.39,0.39,0,0,0,.27.11,0.38,0.38,0,1,0-.27-0.12h0Z" transform="translate(-316.87 -314.69)"/><path class="cls-10" d="M391.59,317.75l0.1,0a0.38,0.38,0,0,0,.36-0.27,0.37,0.37,0,0,0-.25-0.47A0.37,0.37,0,1,0,391.59,317.75Z" transform="translate(-316.87 -314.69)"/><path class="cls-10" d="M379.93,315.6h0a0.37,0.37,0,0,0,.37-0.35,0.36,0.36,0,0,0-.34-0.4A0.37,0.37,0,1,0,379.93,315.6Z" transform="translate(-316.87 -314.69)"/><path class="cls-10" d="M397.19,319.71l0.14,0a0.37,0.37,0,0,0,.35-0.23A0.37,0.37,0,1,0,397.19,319.71Z" transform="translate(-316.87 -314.69)"/><path class="cls-10" d="M432.71,364.66h0.06a0.37,0.37,0,1,0-.43-0.31A0.38,0.38,0,0,0,432.71,364.66Z" transform="translate(-316.87 -314.69)"/><path class="cls-10" d="M420.92,337.54a0.35,0.35,0,0,0,.24-0.08,0.37,0.37,0,1,0-.53-0.06A0.34,0.34,0,0,0,420.92,337.54Z" transform="translate(-316.87 -314.69)"/><path class="cls-10" d="M432.93,370.25a0.37,0.37,0,0,0,.38.36h0A0.38,0.38,0,1,0,432.93,370.25Z" transform="translate(-316.87 -314.69)"/><path class="cls-10" d="M429.57,352.38a0.37,0.37,0,0,0-.22.48,0.39,0.39,0,0,0,.35.25,0.3,0.3,0,0,0,.13,0A0.37,0.37,0,0,0,429.57,352.38Z" transform="translate(-316.87 -314.69)"/><path class="cls-10" d="M424.38,342.42a0.36,0.36,0,0,0,.2-0.06,0.37,0.37,0,0,0,.12-0.52A0.38,0.38,0,1,0,424.38,342.42Z" transform="translate(-316.87 -314.69)"/><path class="cls-10" d="M427.32,347.62a0.42,0.42,0,0,0,.16,0,0.38,0.38,0,0,0,.17-0.51,0.37,0.37,0,0,0-.5-0.16,0.37,0.37,0,0,0-.17.5A0.38,0.38,0,0,0,427.32,347.62Z" transform="translate(-316.87 -314.69)"/><path class="cls-10" d="M318.39,384.61a0.38,0.38,0,0,0-.29.45,0.36,0.36,0,0,0,.36.3h0.08A0.38,0.38,0,0,0,318.39,384.61Z" transform="translate(-316.87 -314.69)"/><path class="cls-10" d="M373.77,430.78a0.36,0.36,0,0,0-.38.36,0.37,0.37,0,0,0,.36.39h0a0.38,0.38,0,0,0,.38-0.37A0.38,0.38,0,0,0,373.77,430.78Z" transform="translate(-316.87 -314.69)"/><path class="cls-10" d="M379.71,430.62a0.38,0.38,0,0,0-.35.41,0.37,0.37,0,0,0,.37.34h0A0.38,0.38,0,0,0,379.71,430.62Z" transform="translate(-316.87 -314.69)"/><path class="cls-10" d="M385.59,429.87a0.38,0.38,0,0,0-.3.44,0.37,0.37,0,0,0,.37.31h0.07a0.37,0.37,0,0,0,.3-0.43A0.38,0.38,0,0,0,385.59,429.87Z" transform="translate(-316.87 -314.69)"/><path class="cls-10" d="M391.38,428.53h0a0.38,0.38,0,0,0,.11.74l0.1,0a0.37,0.37,0,0,0,.26-0.46A0.37,0.37,0,0,0,391.38,428.53Z" transform="translate(-316.87 -314.69)"/><path class="cls-10" d="M367.85,430.32a0.37,0.37,0,1,0-.09.74h0a0.39,0.39,0,0,0,.38-0.33A0.38,0.38,0,0,0,367.85,430.32Z" transform="translate(-316.87 -314.69)"/><path class="cls-10" d="M356.32,427.6h0a0.36,0.36,0,0,0-.47.23,0.38,0.38,0,0,0,.23.48l0.12,0a0.39,0.39,0,0,0,.36-0.25A0.38,0.38,0,0,0,356.32,427.6Z" transform="translate(-316.87 -314.69)"/><path class="cls-10" d="M362,429.25a0.37,0.37,0,0,0-.45.28,0.38,0.38,0,0,0,.28.45h0.09a0.37,0.37,0,0,0,.36-0.29A0.36,0.36,0,0,0,362,429.25Z" transform="translate(-316.87 -314.69)"/><path class="cls-10" d="M416.57,413.42a0.38,0.38,0,0,0,0,.53,0.41,0.41,0,0,0,.27.11,0.38,0.38,0,0,0,.26-0.11A0.37,0.37,0,1,0,416.57,413.42Z" transform="translate(-316.87 -314.69)"/><path class="cls-10" d="M412.21,417.46a0.37,0.37,0,0,0,0,.53,0.35,0.35,0,0,0,.28.13,0.44,0.44,0,0,0,.25-0.08A0.38,0.38,0,0,0,412.21,417.46Z" transform="translate(-316.87 -314.69)"/><path class="cls-10" d="M420.49,409a0.38,0.38,0,0,0,.07.53,0.38,0.38,0,0,0,.23.08,0.37,0.37,0,0,0,.29-0.14A0.38,0.38,0,1,0,420.49,409Z" transform="translate(-316.87 -314.69)"/><path class="cls-10" d="M397,426.58h0a0.37,0.37,0,0,0-.2.49,0.38,0.38,0,0,0,.35.23l0.14,0A0.37,0.37,0,0,0,397,426.58Z" transform="translate(-316.87 -314.69)"/><path class="cls-10" d="M402.36,424.07a0.38,0.38,0,0,0,.18.71,0.39,0.39,0,0,0,.18,0,0.38,0.38,0,0,0,.15-0.51A0.39,0.39,0,0,0,402.36,424.07Z" transform="translate(-316.87 -314.69)"/><path class="cls-10" d="M407.45,421a0.38,0.38,0,0,0,.21.69,0.33,0.33,0,0,0,.21-0.07,0.37,0.37,0,0,0,.11-0.52A0.38,0.38,0,0,0,407.45,421Z" transform="translate(-316.87 -314.69)"/><path class="cls-10" d="M424.46,404a0.35,0.35,0,0,0-.51.11,0.37,0.37,0,0,0,.11.52,0.37,0.37,0,0,0,.52-0.12A0.37,0.37,0,0,0,424.46,404Z" transform="translate(-316.87 -314.69)"/><path class="cls-10" d="M320.16,354.88a0.37,0.37,0,0,0-.23.71,0.26,0.26,0,0,0,.12,0,0.36,0.36,0,0,0,.35-0.26h0A0.38,0.38,0,0,0,320.16,354.88Z" transform="translate(-316.87 -314.69)"/><path class="cls-10" d="M350.82,425.35a0.39,0.39,0,0,0-.5.19,0.36,0.36,0,0,0,.18.49,0.31,0.31,0,0,0,.16,0,0.38,0.38,0,0,0,.34-0.22A0.37,0.37,0,0,0,350.82,425.35Z" transform="translate(-316.87 -314.69)"/><path class="cls-10" d="M321.94,396a0.37,0.37,0,0,0-.19.5,0.38,0.38,0,0,0,.34.22,0.42,0.42,0,0,0,.15,0,0.38,0.38,0,0,0,.19-0.5A0.37,0.37,0,0,0,321.94,396Z" transform="translate(-316.87 -314.69)"/><path class="cls-10" d="M319.87,390.4a0.39,0.39,0,0,0-.25.48,0.37,0.37,0,0,0,.36.26l0.12,0A0.38,0.38,0,0,0,319.87,390.4Z" transform="translate(-316.87 -314.69)"/><path class="cls-10" d="M317.62,366.54a0.37,0.37,0,0,0-.42.33,0.37,0.37,0,0,0,.34.41h0A0.39,0.39,0,0,0,318,367,0.38,0.38,0,0,0,317.62,366.54Z" transform="translate(-316.87 -314.69)"/><path class="cls-10" d="M318.59,360.65a0.38,0.38,0,1,0-.16.74h0.08a0.38,0.38,0,0,0,.37-0.29A0.38,0.38,0,0,0,318.59,360.65Z" transform="translate(-316.87 -314.69)"/><path class="cls-10" d="M324.58,401.37a0.37,0.37,0,0,0-.14.51,0.37,0.37,0,0,0,.32.19,0.32,0.32,0,0,0,.19,0A0.37,0.37,0,0,0,324.58,401.37Z" transform="translate(-316.87 -314.69)"/><path class="cls-10" d="M327.76,406.42a0.38,0.38,0,0,0-.09.53,0.37,0.37,0,0,0,.3.15,0.34,0.34,0,0,0,.22-0.07A0.37,0.37,0,1,0,327.76,406.42Z" transform="translate(-316.87 -314.69)"/><path class="cls-10" d="M345.58,422.56a0.36,0.36,0,0,0-.51.13,0.37,0.37,0,0,0,.13.51,0.32,0.32,0,0,0,.19,0,0.36,0.36,0,0,0,.32-0.18A0.37,0.37,0,0,0,345.58,422.56Z" transform="translate(-316.87 -314.69)"/><path class="cls-10" d="M340.14,419.31a0.38,0.38,0,0,0,.07.53,0.39,0.39,0,0,0,.23.07,0.38,0.38,0,0,0,.3-0.15A0.38,0.38,0,0,0,340.14,419.31Z" transform="translate(-316.87 -314.69)"/><path class="cls-10" d="M331.44,411.13a0.38,0.38,0,0,0,0,.53,0.37,0.37,0,0,0,.28.13,0.38,0.38,0,0,0,.25-0.09A0.38,0.38,0,1,0,331.44,411.13Z" transform="translate(-316.87 -314.69)"/><path class="cls-10" d="M335.58,415.45a0.38,0.38,0,0,0,0,.53,0.35,0.35,0,0,0,.25.1,0.39,0.39,0,0,0,.28-0.12A0.37,0.37,0,1,0,335.58,415.45Z" transform="translate(-316.87 -314.69)"/></svg>