<svg preserveAspectRatio="none" id="Layer_1" data-name="Layer 1" xmlns="http://www.w3.org/2000/svg" viewBox="0 0 66.13 65.77"><defs><style>.cls-1{fill:aqua;}</style></defs><title>circle98</title><g id="_编组_" data-name="&lt;编组&gt;"><path id="_复合路径_" data-name="&lt;复合路径&gt;" class="cls-1" d="M802,80.52a11.11,11.11,0,1,1,11.11-11.11A11.13,11.13,0,0,1,802,80.52Zm0-22a10.87,10.87,0,1,0,10.87,10.87A10.88,10.88,0,0,0,802,58.54Z" transform="translate(-768.98 -36.3)"/><path id="_复合路径_2" data-name="&lt;复合路径&gt;" class="cls-1" d="M802,85.83a16.42,16.42,0,1,1,16.42-16.42A16.44,16.44,0,0,1,802,85.83Zm0-32.47a16.06,16.06,0,1,0,16.06,16.06A16.07,16.07,0,0,0,802,53.36Z" transform="translate(-768.98 -36.3)"/><path id="_复合路径_3" data-name="&lt;复合路径&gt;" class="cls-1" d="M805.36,83.24l-0.69-2.86a11.29,11.29,0,0,0,8.63-11h2.94a14.17,14.17,0,0,1-2.36,7.86l-1.28-.85,1.28,0.85A14.19,14.19,0,0,1,805.36,83.24Zm3.12-23.08a11.22,11.22,0,0,0-6.47-2h0a11.31,11.31,0,0,0-1.54.1l-0.4-2.92a14.24,14.24,0,0,1,1.94-.13h0a14.14,14.14,0,0,1,8.16,2.57Z" transform="translate(-768.98 -36.3)"/><path id="_复合路径_4" data-name="&lt;复合路径&gt;" class="cls-1" d="M802,91.57a22.16,22.16,0,1,1,22.16-22.16A22.19,22.19,0,0,1,802,91.57Zm0-44.08a21.92,21.92,0,1,0,21.92,21.92A21.94,21.94,0,0,0,802,47.49Z" transform="translate(-768.98 -36.3)"/><path id="_复合路径_5" data-name="&lt;复合路径&gt;" class="cls-1" d="M797.59,87.57h0a18.67,18.67,0,0,1-5.2-2.15l0,0,0,0,2.52-4.16,0,0a14,14,0,0,0,3.83,1.59h0ZM819.84,75l-4.68-1.45v0a13.81,13.81,0,0,0,.62-4.1l0,0,4.86,0a18.68,18.68,0,0,1-.85,5.56v0ZM789.78,63h-0.05l-4.44-2.33h0.18a18.68,18.68,0,0,1,3.31-4.5l0,0,3.47,3.47,0,0A13.92,13.92,0,0,0,789.79,63v0Zm24-.73,0,0a14.19,14.19,0,0,0-2.66-3.18l0,0,3.25-3.68,0,0a18.62,18.62,0,0,1,3.6,4.31l0,0,0,0Z" transform="translate(-768.98 -36.3)"/><path id="_复合路径_6" data-name="&lt;复合路径&gt;" class="cls-1" d="M794.15,101.57h0a33.14,33.14,0,0,1-23-20.16v0A32.72,32.72,0,0,1,769,71.64v0l4.89-.33v0a28.21,28.21,0,0,0,21.4,25.48l0,0ZM833.6,79.3l-4.68-1.46,0,0a28.27,28.27,0,0,0,1.26-8.39l0,0,4.86,0a33,33,0,0,1-1.49,9.84Zm-6-21.78,0,0a28.28,28.28,0,0,0-4.7-7h-0.09l0,0A28.28,28.28,0,0,0,802,41.21a28.83,28.83,0,0,0-3.61.23h0l-0.62-4.86h0.05A33.2,33.2,0,0,1,832,55.39l0,0Z" transform="translate(-768.98 -36.3)"/><path id="_复合路径_7" data-name="&lt;复合路径&gt;" class="cls-1" d="M802,97.11h-1v0l0.45-13.68H802a1.17,1.17,0,0,1,.19,0h0v0l0.18,13.69H802Zm27.67-26.36L816,70.12v0c0-.22,0-0.45,0-0.66l0.05,0,13.68,0c0,0.43,0,.87,0,1.29v0Zm-55.37-.54v0c0-.26,0-0.51,0-0.75s0-.37,0-0.55V68.81L788,69.08v0.76h0ZM816,69.35v0c0-.21,0-0.44,0-0.66v0h0l13.67-.74V67.9c0,0.42,0,.86,0,1.3v0h0Zm-14.6-13.9-0.55-13.72h0l1.13,0h0.22v0l-0.08,13.69h-0.77Z" transform="translate(-768.98 -36.3)"/><path id="_复合路径_8" data-name="&lt;复合路径&gt;" class="cls-1" d="M802,102.08a32.6,32.6,0,0,1-10.82-1.84l-0.12,0,0-.12,3.29-9.37,0.12,0a22.76,22.76,0,0,0,14.36.21l0.12,0L809,91l3,9.46-0.12,0A32.65,32.65,0,0,1,802,102.08Zm-10.62-2a32.56,32.56,0,0,0,20.36.29l-2.91-9.11A23,23,0,0,1,794.56,91Zm-5.3-2.11-0.28-.17-0.09,0-0.86-.51-0.1-.06L790,88.58l0.1,0.06,0.6,0.36,0.11,0.06-1.48,2.58,1.71-2.28,0.2,0.15-2.91,3.89Zm-0.35-.49,0.11,0.05L786,97.58l2.16-4.32h0l2.36-4.11-0.4-.24-5,8.14,0.65,0.39h0Zm48.93-26.91-10.05-.31V70.11c0-.23,0-0.46,0-0.7V69.18h9.94v0h0.12v0.12c0,0.42,0,.76,0,1.09v0.12Zm-9.8-.54,9.56,0.29c0-.26,0-0.52,0-0.84l-4.69,0h-4.88C824.86,69.61,824.86,69.8,824.86,70Zm-0.61-4.71,0-.12a22.72,22.72,0,0,0-7-12.51l-0.09-.08,0.08-.09,6.67-7.36,0.09,0.08A32.83,32.83,0,0,1,834.1,63.29l0,0.12Zm-6.81-12.73a23,23,0,0,1,7,12.45l9.4-1.78a32.59,32.59,0,0,0-10-17.75ZM779.89,64.73l-9.83-2.12,0-.12A32.84,32.84,0,0,1,780.7,44.66l0.09-.08,6.56,7.62-0.09.08a22.72,22.72,0,0,0-7.35,12.34Zm-9.54-2.31,9.35,2A23,23,0,0,1,787,52.17l-6.24-7.25A32.59,32.59,0,0,0,770.35,62.42Zm19.92-12.35L790.21,50,788,45.57l-2.92-3.91,0.2-.15h0L787,43.75l-1.47-2.52,0.11-.06,0.87-.49,0.11-.06,4.81,8.83-0.11.06-0.61.34-0.1.06h0Zm-2.06-4.66,0,0,2.15,4.29,0.26-.16v0l0.41-.23L786.48,41l-0.65.36,2.38,4.1h0Z" transform="translate(-768.98 -36.3)"/><path id="_复合路径_9" data-name="&lt;复合路径&gt;" class="cls-1" d="M802.21,92.41H802a23.56,23.56,0,0,1-5.9-.77l-0.16-.06,0-.14,1.56-5.87,0.16,0a16.55,16.55,0,0,0,4.32.57h0l0.15,0.11v6.14Zm-6-1a23.35,23.35,0,0,0,5.74.74V86.4a16.75,16.75,0,0,1-4.25-.55Zm28-15.9-6-1.6,0-.16a16.71,16.71,0,0,0,.57-4.34v0l0.08-.21,6.16,0v0.28a23.18,23.18,0,0,1-.78,5.95Zm-5.74-1.78L824,75.22a22.94,22.94,0,0,0,.75-5.81v0l-5.75,0v0A16.94,16.94,0,0,1,818.45,73.74ZM779,69.63V69.41a22.7,22.7,0,0,1,.77-5.9l0-.17,6,1.6,0,0.16a16.75,16.75,0,0,0-.56,4.28l0.24,0.24H779Zm1-6a22.48,22.48,0,0,0-.74,5.74H785a17.09,17.09,0,0,1,.54-4.25Zm26.45-10.38-0.16,0a16.72,16.72,0,0,0-4.29-.56H802l-0.18-.08V52.5l0-6.08H802a22.93,22.93,0,0,1,5.86.76l0.17,0,0,0.13ZM802,52.42a16.93,16.93,0,0,1,4.24.54l1.48-5.57a22.74,22.74,0,0,0-5.73-.73h0Z" transform="translate(-768.98 -36.3)"/></g></svg>