<svg preserveAspectRatio="none" id="Layer_1" data-name="Layer 1" xmlns="http://www.w3.org/2000/svg" viewBox="0 0 114.24 114.24"><defs><style>.cls-1{fill:#fe6a13;}.cls-2{opacity:0.9;}.cls-3{opacity:0.8;}.cls-4{opacity:0.7;}.cls-5{opacity:0.6;}.cls-6{opacity:0.5;}.cls-7{opacity:0.4;}.cls-8{opacity:0.3;}.cls-9{opacity:0.2;}.cls-10{opacity:0.1;}.cls-11{fill:#00eadb;}.cls-12{fill:#067773;}</style></defs><title>circle25</title><path class="cls-1" d="M170.37,76.92l-0.09.42-0.2,1.11c-0.07.46-.19,1-0.26,1.57l-0.23,1.81c-0.06.62-.1,1.23-0.15,1.81s-0.07,1.12-.08,1.58c0,0.93,0,1.55,0,1.55h-8.84l0-1.83c0-.55,0-1.19.09-1.88s0.1-1.42.18-2.15l0.27-2.15c0.08-.69.22-1.32,0.31-1.86l0.24-1.32,0.11-.5Z" transform="translate(-159.02 -29.64)"/><path class="cls-1" d="M175,64.42l-0.71,1.38-0.34.67-0.35.76c-0.23.53-.51,1.09-0.73,1.67l-0.67,1.7-0.51,1.5c-0.15.44-.27,0.81-0.34,1.07l-0.12.41-8.49-2.48,0.14-.49c0.08-.31.23-0.75,0.41-1.27s0.38-1.14.61-1.79l0.79-2c0.27-.69.59-1.35,0.87-2l0.41-.91,0.4-.8,0.84-1.64Z" transform="translate(-159.02 -29.64)"/><path class="cls-1" d="M182.94,53.76l-1.07,1.12c-0.33.33-.68,0.74-1.06,1.18s-0.79.9-1.17,1.39a44.12,44.12,0,0,0-2.89,4l-7.44-4.78a53.23,53.23,0,0,1,3.44-4.78c0.45-.58.94-1.13,1.39-1.66s0.87-1,1.26-1.4l1.27-1.33Z" transform="translate(-159.02 -29.64)"/><path class="cls-1" d="M193.56,45.75l-1.34.77c-0.41.22-.86,0.53-1.35,0.84s-1,.65-1.51,1-1,.71-1.47,1.07l-1.25,1c-0.37.28-.65,0.55-0.86,0.72l-0.32.28-5.8-6.67,0.38-.33c0.25-.21.58-0.52,1-0.86l1.48-1.17c0.54-.43,1.15-0.84,1.75-1.27s1.21-.83,1.8-1.2,1.12-.73,1.6-1l1.6-.92Z" transform="translate(-159.02 -29.64)"/><path class="cls-1" d="M206,41.05l-1.51.35-1.53.43-0.86.25-0.88.3c-1.18.38-2.33,0.86-3.2,1.2s-1.42.63-1.42,0.63l-3.69-8s0.67-.31,1.69-0.75,2.39-1,3.8-1.42l1-.35,1-.3,1.82-.51,1.8-.42Z" transform="translate(-159.02 -29.64)"/><g class="cls-2"><path class="cls-1" d="M219.27,40.05l-0.42,0c-0.27,0-.66,0-1.12,0l-1.58,0-1.82,0c-0.62,0-1.24.07-1.81,0.11s-1.12.08-1.58,0.14l-1.54.2-1.27-8.75,1.83-.23c0.55-.08,1.19-0.12,1.88-0.17s1.42-.12,2.15-0.13l2.15-.05,1.88,0c0.55,0,1,0,1.33.05l0.5,0Z" transform="translate(-159.02 -29.64)"/></g><g class="cls-3"><path class="cls-1" d="M232.29,42.8l-0.4-.14-1.07-.36-0.71-.24-0.81-.23c-0.56-.15-1.15-0.34-1.76-0.48l-1.78-.41c-0.57-.12-1.11-0.21-1.56-0.29-0.91-.17-1.53-0.24-1.53-0.24l1.23-8.76s0.73,0.08,1.82.29c0.54,0.1,1.18.2,1.86,0.35l2.11,0.49c0.72,0.17,1.42.39,2.09,0.57l1,0.28,0.85,0.28,1.27,0.43,0.48,0.17Z" transform="translate(-159.02 -29.64)"/></g><g class="cls-4"><path class="cls-1" d="M244,49.13l-1.26-.9c-0.37-.28-0.83-0.56-1.32-0.88s-1-.66-1.55-1a44.08,44.08,0,0,0-4.4-2.28l3.65-8.05a53.07,53.07,0,0,1,5.23,2.72c0.64,0.36,1.26.76,1.84,1.14s1.13,0.72,1.57,1l1.5,1.07Z" transform="translate(-159.02 -29.64)"/></g><g class="cls-5"><path class="cls-1" d="M253.45,58.49l-1-1.22c-0.28-.37-0.65-0.77-1-1.21s-0.79-.91-1.22-1.35-0.84-.91-1.27-1.3l-1.15-1.09c-0.33-.32-0.64-0.56-0.84-0.75l-0.32-.28,5.77-6.7,0.38,0.33c0.24,0.22.6,0.5,1,.89l1.36,1.3c0.5,0.47,1,1,1.51,1.55s1,1.08,1.45,1.6,0.88,1,1.22,1.44l1.14,1.45Z" transform="translate(-159.02 -29.64)"/></g><g class="cls-6"><path class="cls-1" d="M259.91,70.12l-0.57-1.44c-0.18-.43-0.41-0.92-0.65-1.45l-0.37-.82-0.42-.82c-0.55-1.12-1.18-2.18-1.65-3s-0.83-1.31-.83-1.31l7.42-4.82s0.41,0.62,1,1.56,1.31,2.23,2,3.55l0.5,1,0.45,1c0.28,0.63.56,1.22,0.77,1.73L268.17,67Z" transform="translate(-159.02 -29.64)"/></g><g class="cls-7"><path class="cls-1" d="M262.8,83.12l0-.42c0-.27,0-0.66-0.11-1.12L262.47,80c-0.07-.58-0.2-1.18-0.3-1.8L262,77.29l-0.2-.87c-0.13-.57-0.25-1.1-0.37-1.55L261,73.38l8.48-2.52,0.5,1.78c0.15,0.53.28,1.17,0.44,1.84l0.24,1,0.2,1.08c0.12,0.73.27,1.45,0.36,2.14l0.24,1.87c0.08,0.55.1,1,.13,1.33l0,0.5Z" transform="translate(-159.02 -29.64)"/></g><g class="cls-8"><path class="cls-1" d="M262,96.38s0-.15.08-0.42l0.2-1.11c0.18-.91.32-2.15,0.47-3.38s0.2-2.47.21-3.4L263,87c0-.27,0-0.43,0-0.43l8.84,0s0,0.18,0,.5l0,1.33c0,1.1-.13,2.57-0.25,4s-0.35,2.93-.56,4l-0.24,1.32c-0.06.32-.1,0.5-0.1,0.5Z" transform="translate(-159.02 -29.64)"/></g><g class="cls-9"><path class="cls-1" d="M257.4,108.89l0.71-1.38c0.22-.41.44-0.91,0.68-1.44s0.5-1.09.72-1.67a43.76,43.76,0,0,0,1.62-4.69l8.5,2.44a52.83,52.83,0,0,1-1.93,5.58c-0.26.69-.58,1.36-0.86,2s-0.55,1.22-.81,1.71l-0.84,1.64Z" transform="translate(-159.02 -29.64)"/></g><g class="cls-10"><path class="cls-1" d="M249.5,119.59l1.07-1.12c0.33-.33.67-0.75,1.05-1.19l0.58-.68c0.2-.23.38-0.48,0.58-0.72,0.38-.49.78-1,1.11-1.44l0.92-1.29c0.27-.38.47-0.71,0.62-0.94l0.23-.36,7.46,4.75-0.27.43c-0.18.27-.42,0.66-0.73,1.11L261,119.68c-0.4.57-.87,1.13-1.32,1.72-0.23.29-.45,0.58-0.69,0.86l-0.69.81c-0.46.52-.87,1-1.25,1.41l-1.27,1.33Z" transform="translate(-159.02 -29.64)"/></g><path class="cls-11" d="M170.93,86.75l0,0.81c0,0.54,0,1.33.1,2.37a43.33,43.33,0,0,0,1.52,8.87l0.41,1.44,0.5,1.49c0.16,0.51.37,1,.58,1.54s0.41,1.06.66,1.59a43.62,43.62,0,0,0,3.61,6.65A45.56,45.56,0,0,0,191,124.34a46,46,0,0,0,9.22,4.74A45.12,45.12,0,0,0,211,131.67c0.47,0.07.95,0.1,1.43,0.13l1.44,0.1,1.45,0,0.73,0h0.73l1.47,0c0.49,0,1-.07,1.48-0.1,1-.06,2-0.2,3-0.33a44.69,44.69,0,0,0,5.93-1.29c1-.26,2-0.62,2.93-0.94l1.45-.56,0.72-.29,0.71-.32a45.22,45.22,0,0,0,10.72-6.69A45.3,45.3,0,0,0,257,106a46,46,0,0,0,2.38-6.17,46.69,46.69,0,0,0,1.45-6.48,45.24,45.24,0,0,0,0-13.25,46.68,46.68,0,0,0-1.45-6.48,45,45,0,0,0-5.61-11.9,45.39,45.39,0,0,0-8.62-9.64,45.22,45.22,0,0,0-10.72-6.69l-0.71-.32L233,44.82l-1.45-.56c-1-.33-1.94-0.68-2.93-0.94A44.82,44.82,0,0,0,222.72,42c-1-.12-2-0.27-3-0.33-0.49,0-1-.08-1.48-0.1l-1.47,0h-0.73l-0.73,0-1.45,0-1.44.1c-0.48,0-1,.07-1.43.13a45.1,45.1,0,0,0-10.79,2.59A46,46,0,0,0,191,49.17,45.57,45.57,0,0,0,178.33,62a43.61,43.61,0,0,0-3.61,6.65c-0.25.53-.45,1.07-0.66,1.59s-0.41,1-.58,1.54L173,73.26l-0.41,1.44a43.33,43.33,0,0,0-1.52,8.87c-0.1,1-.08,1.83-0.1,2.37l0,0.81h-0.48l0-.82c0-.54,0-1.35.1-2.39a43.76,43.76,0,0,1,1.53-9l0.42-1.45L173,71.61c0.17-.52.38-1,0.58-1.56s0.41-1.07.66-1.61a44,44,0,0,1,3.65-6.72,46.05,46.05,0,0,1,12.83-13A46.52,46.52,0,0,1,200.08,44,45.58,45.58,0,0,1,211,41.37c0.48-.07,1-0.1,1.44-0.14l1.46-.11,1.47,0,0.74,0h0.74l1.48,0c0.5,0,1,.07,1.49.1,1,0.06,2,.2,3,0.33a45.22,45.22,0,0,1,6,1.3c1,0.26,2,.62,3,1l1.46,0.57,0.73,0.29L234.66,45a45.69,45.69,0,0,1,10.83,6.76,45.78,45.78,0,0,1,12,15.52,46.54,46.54,0,0,1,2.4,6.24,47.08,47.08,0,0,1,1.46,6.55,45.74,45.74,0,0,1,0,13.39,47.09,47.09,0,0,1-1.46,6.55,45.51,45.51,0,0,1-5.67,12,45.83,45.83,0,0,1-8.71,9.74,45.68,45.68,0,0,1-10.83,6.76l-0.72.32-0.73.29-1.46.57c-1,.33-2,0.69-3,1a45.19,45.19,0,0,1-6,1.3c-1,.13-2,0.27-3,0.33-0.5,0-1,.08-1.49.1l-1.48,0h-0.74l-0.74,0-1.47,0-1.46-.11c-0.48,0-1-.07-1.44-0.14a45.55,45.55,0,0,1-10.9-2.62,46.52,46.52,0,0,1-9.32-4.79,46,46,0,0,1-12.83-13,44,44,0,0,1-3.65-6.72c-0.25-.54-0.45-1.08-0.66-1.61s-0.42-1-.58-1.56l-0.51-1.51-0.42-1.45a43.76,43.76,0,0,1-1.53-9c-0.1-1-.08-1.85-0.1-2.39l0-.82h0.48Z" transform="translate(-159.02 -29.64)"/><path class="cls-11" d="M159.5,86.75l0,1c0,0.67,0,1.66.13,3a54.73,54.73,0,0,0,1.9,11.12l0.52,1.8,0.63,1.87c0.21,0.64.47,1.28,0.72,1.94s0.51,1.33.82,2a55,55,0,0,0,4.52,8.34,56.53,56.53,0,0,0,41,25.23c0.59,0.08,1.19.12,1.79,0.17l1.8,0.13,1.81,0,0.91,0H217l1.84,0c0.61,0,1.23-.08,1.85-0.12,1.24-.08,2.47-0.25,3.72-0.41a56.1,56.1,0,0,0,7.44-1.61c1.24-.33,2.45-0.77,3.68-1.19,0.61-.22,1.21-0.47,1.81-0.7l0.91-.36,0.89-.4a56.66,56.66,0,0,0,13.43-8.38,56.73,56.73,0,0,0,14.85-19.24A56.4,56.4,0,0,0,272.18,95a56.64,56.64,0,0,0,0-16.58,56.66,56.66,0,0,0-19.65-35.11A56.64,56.64,0,0,0,239.11,35l-0.89-.4-0.91-.36c-0.61-.24-1.21-0.48-1.81-0.7-1.23-.42-2.44-0.85-3.68-1.19a56.19,56.19,0,0,0-7.44-1.61c-1.24-.16-2.48-0.34-3.72-0.41-0.62,0-1.23-.1-1.85-0.12l-1.84,0-0.91,0-0.91,0-1.81,0-1.8.13c-0.6,0-1.2.09-1.79,0.17a56.55,56.55,0,0,0-13.53,3.25,56.65,56.65,0,0,0-27.45,22,55,55,0,0,0-4.52,8.34c-0.31.67-.56,1.34-0.82,2s-0.51,1.3-.72,1.94l-0.63,1.87-0.52,1.8a54.73,54.73,0,0,0-1.9,11.12c-0.11,1.3-.1,2.29-0.13,3l0,1H159l0-1c0-.68,0-1.68.13-3a55.19,55.19,0,0,1,1.92-11.21l0.52-1.82,0.63-1.89c0.21-.65.47-1.29,0.73-2s0.52-1.34.83-2a55.48,55.48,0,0,1,4.56-8.41A57,57,0,0,1,209.69,30c0.6-.08,1.2-0.12,1.8-0.17l1.82-.13,1.83-.05,0.92,0,0.92,0,1.85,0c0.62,0,1.24.08,1.86,0.13,1.25,0.08,2.49.25,3.75,0.41a56.66,56.66,0,0,1,7.5,1.62c1.25,0.34,2.48.78,3.71,1.2,0.61,0.23,1.22.47,1.83,0.71l0.91,0.37,0.9,0.4A57.13,57.13,0,0,1,252.84,43,57,57,0,0,1,272.65,78.4a57.17,57.17,0,0,1,0,16.72,58.58,58.58,0,0,1-1.83,8.2,57,57,0,0,1-7.09,15,57.29,57.29,0,0,1-10.89,12.17A57.14,57.14,0,0,1,239.3,139l-0.9.4-0.91.37c-0.61.24-1.22,0.48-1.83,0.71-1.24.42-2.46,0.86-3.71,1.2a56.61,56.61,0,0,1-7.5,1.62c-1.25.16-2.5,0.34-3.75,0.42-0.62,0-1.24.1-1.86,0.13l-1.85,0h-0.92l-0.92,0-1.83-.05-1.82-.13c-0.6,0-1.21-.09-1.8-0.17a57,57,0,0,1-13.64-3.27,57.12,57.12,0,0,1-27.68-22.17,55.44,55.44,0,0,1-4.56-8.41c-0.31-.67-0.57-1.35-0.83-2s-0.52-1.31-.73-2l-0.63-1.89L161.09,102a55.19,55.19,0,0,1-1.92-11.21c-0.11-1.31-.11-2.31-0.13-3l0-1h0.48Z" transform="translate(-159.02 -29.64)"/><path class="cls-11" d="M208.5,57.28l0.67-.15c0.4-.09.93-0.22,1.47-0.31l0.79-.14,0.7-.09,0.68-.09-1.38-12.63,0.27,0,0.6,0,0.87-.07,1.35,19.86-0.82.06c-0.48.08-1.14,0.13-1.78,0.26l-0.48.08L211,64.1c-0.3.08-.58,0.12-0.81,0.19l-0.78.22-5.76-19.05,1.69-.48Z" transform="translate(-159.02 -29.64)"/><path class="cls-11" d="M246.11,83.34a6,6,0,0,1,.07.68c0,0.41.09,0.95,0.1,1.49s0,1.09,0,1.5l0,0.68L259,88.07l0,0.87-0.06.87L239,88.41l0-.22a5.06,5.06,0,0,0,0-.59c0-.25,0-0.53,0-0.84s0-.63,0-1,0-.65-0.06-1c0-.15,0-0.3,0-0.44L238.95,84l-0.1-.8,19.67-3,0.22,1.73Z" transform="translate(-159.02 -29.64)"/><path class="cls-11" d="M215.32,117h-0.68l-1.5-.11-1.49-.18c-0.2,0-.37-0.06-0.49-0.08l-0.18,0-2.15,12.53-0.86-.15c-0.43-.07-0.86-0.17-0.86-0.17l4.16-19.46,0.22,0.05,0.58,0.1c0.47,0.1,1.12.17,1.76,0.25l1,0.07c0.3,0,.59,0,0.84,0a7.76,7.76,0,0,0,.82,0l0.27,19.9h-0.87l-0.87,0Z" transform="translate(-159.02 -29.64)"/><path class="cls-11" d="M210.11,44l1.38,9.86-0.41.05-0.91.16c-0.66.1-1.31,0.26-1.31,0.26l-2.17-9.71s0.85-.21,1.71-0.34l1.18-.21Z" transform="translate(-159.02 -29.64)"/><path class="cls-11" d="M259,86.76h-10l0-1.33c0-.33,0-0.66-0.05-0.91l0-.41,9.92-.79,0,0.54c0,0.32.06,0.75,0.07,1.19Z" transform="translate(-159.02 -29.64)"/><path class="cls-11" d="M210.14,129.28l1.38-9.86,1.32,0.16,1.33,0.1-0.58,9.94-1.73-.13Z" transform="translate(-159.02 -29.64)"/><path class="cls-12" d="M194.71,48l3.21,5.78-0.52.3c-0.33.19-.8,0.45-1.34,0.81l-0.88.57c-0.31.21-.62,0.44-1,0.67-0.67.45-1.33,1-2,1.54s-1.33,1.12-1.9,1.69l-0.84.81-0.72.76c-0.46.46-.8,0.88-1.05,1.16l-0.39.45L189,64l-0.18.21-0.48.62c-0.2.27-.48,0.58-0.74,1s-0.59.81-.91,1.29A35.07,35.07,0,0,0,181,82.9c-0.11,1.15-.19,2.12-0.19,2.79l0,1.06h-8.87l0.05-2c0-.64.1-1.42,0.16-2.32,0-.45.11-0.92,0.17-1.42s0.12-1,.23-1.57a42.6,42.6,0,0,1,1.88-7.31,44.26,44.26,0,0,1,8.75-14.82A44.93,44.93,0,0,1,193,49c0.55-.34,1-0.58,1.29-0.76ZM176.56,82.29a1.12,1.12,0,1,0-.19,2.23,1.14,1.14,0,0,0,1.21-1A1.15,1.15,0,0,0,176.56,82.29Zm0.63-3.91a1.09,1.09,0,0,0-1.32.9,1.11,1.11,0,0,0,.91,1.31,1.14,1.14,0,0,0,1.31-.9,1.11,1.11,0,0,0-.19-0.82A1.13,1.13,0,0,0,177.2,78.38Zm1-3.83a1.09,1.09,0,0,0-1.41.76,1.11,1.11,0,0,0,.78,1.39,1.14,1.14,0,0,0,1.39-.76,1.11,1.11,0,0,0-.1-0.84A1.13,1.13,0,0,0,178.22,74.55Zm1.4-3.7a1.12,1.12,0,1,0-.84,2.08A1.12,1.12,0,0,0,179.62,70.85Zm1.76-3.55a1.12,1.12,0,1,0-1,2A1.12,1.12,0,0,0,181.38,67.3ZM183.49,64a1.12,1.12,0,1,0-1.24,1.87A1.12,1.12,0,0,0,183.49,64Z" transform="translate(-159.02 -29.64)"/><path class="cls-12" d="M256.92,69.48l-6.09,2.58-0.25-.54c-0.16-.34-0.36-0.85-0.66-1.42s-0.62-1.26-1-2c-0.21-.35-0.4-0.72-0.63-1.08L247.55,66a37.4,37.4,0,0,0-2.88-3.79l-0.58-.67c-0.17-.2-0.34-0.36-0.47-0.5l-0.41-.43-1.62,1.57L241.4,62c-0.12-.13-0.31-0.32-0.56-0.55L240,60.56l-1.19-1a35.2,35.2,0,0,0-15.11-7.37c-0.56-.14-1.09-0.2-1.55-0.3s-0.87-.14-1.2-0.18l-1.05-.14,0.23-2.24,0.68-6.58,2,0.26c0.64,0.1,1.41.25,2.29,0.4l1.4,0.32,0.76,0.18L228,44.1c0.53,0.16,1.09.29,1.65,0.49l1.75,0.59,1.81,0.72c0.61,0.26,1.23.55,1.86,0.83A44.18,44.18,0,0,1,253.48,63c0.61,0.92,1.09,1.82,1.54,2.59s0.77,1.49,1.06,2.07Zm-32.2-21.63a1.12,1.12,0,1,0-2.2-.42A1.12,1.12,0,0,0,224.72,47.85Zm3.82,1a1.12,1.12,0,1,0-2.15-.64A1.12,1.12,0,0,0,228.54,48.89Zm3.7,1.42a1.12,1.12,0,1,0-2.07-.85A1.12,1.12,0,0,0,232.24,50.31Zm3.54,1.78a1.12,1.12,0,1,0-2-1.05A1.12,1.12,0,0,0,235.77,52.09Zm3.34,2.12A1.12,1.12,0,1,0,237.25,53,1.12,1.12,0,0,0,239.11,54.22Zm3.12,2.44a1.12,1.12,0,1,0-1.57.14A1.12,1.12,0,0,0,242.23,56.66Z" transform="translate(-159.02 -29.64)"/><path class="cls-12" d="M226,129.91l-1.47-6.45,0.58-.13c0.37-.07.89-0.23,1.51-0.41a37,37,0,0,0,4.48-1.61l1.18-.53c0.39-.18.75-0.38,1.12-0.56,0.73-.35,1.38-0.75,1.94-1.07s1-.63,1.33-0.83l0.5-.32-1.26-1.87,0.87-.62c0.28-.19.61-0.43,1-0.73l0.59-.46,0.32-.25,0.32-.28a35.92,35.92,0,0,0,5.78-6.21l0.67-.94c0.22-.32.42-0.65,0.62-1,0.43-.63.77-1.29,1.14-1.92s0.66-1.26.95-1.86,0.55-1.17.75-1.71,0.42-1,.57-1.47l0.39-1.15c0.12-.32.18-0.58,0.23-0.75l0.08-.27,2.17,0.62L258.68,99l-0.15.51c-0.09.34-.25,0.81-0.46,1.43l-0.34,1-0.46,1.17c-0.31.84-.75,1.76-1.2,2.77a45.69,45.69,0,0,1-3.84,6.49,44.48,44.48,0,0,1-12.5,11.82,45.12,45.12,0,0,1-6.7,3.47l-1.48.58c-0.47.18-.93,0.32-1.35,0.47-0.85.3-1.6,0.5-2.23,0.68l-0.83.23-0.62.14ZM252.95,102a1.12,1.12,0,1,0,.8-2.1A1.12,1.12,0,0,0,252.95,102Zm-1.7,3.58a1.12,1.12,0,1,0,1-2A1.12,1.12,0,0,0,251.25,105.59Zm-2,3.39a1.11,1.11,0,0,0,1.56-.34,1.1,1.1,0,0,0-.36-1.56,1.13,1.13,0,0,0-.85-0.13,1.11,1.11,0,0,0-.7.48A1.14,1.14,0,0,0,249.21,109Zm-2.37,3.17a1.12,1.12,0,1,0,1.38-1.77A1.12,1.12,0,0,0,246.84,112.15Zm-2.68,2.92a1.12,1.12,0,1,0,1.55-1.62A1.12,1.12,0,0,0,244.16,115.07Zm-3,2.64a1.09,1.09,0,0,0,1.59.13,1.11,1.11,0,0,0,.11-1.59,1.15,1.15,0,0,0-1.58-.12,1.11,1.11,0,0,0-.37.76A1.13,1.13,0,0,0,241.21,117.71Z" transform="translate(-159.02 -29.64)"/><path class="cls-11" d="M180.27,125.8a2.11,2.11,0,0,0,1.5.58,2.08,2.08,0,0,0,1.43-.59l0.67,0.58,0.9,0.7c0.6,0.46,1.19.94,1.83,1.36,1.23,0.89,2.52,1.7,3.83,2.48a49.52,49.52,0,0,0,8.26,3.86,51.51,51.51,0,0,0,17.89,3.06A51,51,0,0,0,250,125c0.41-.34.78-0.71,1.17-1.07l1.15-1.09-0.29-.29-1.14,1.08c-0.38.36-.75,0.73-1.16,1.06a50.59,50.59,0,0,1-33.09,12.68,51.11,51.11,0,0,1-17.75-3,49.15,49.15,0,0,1-8.19-3.83c-1.29-.77-2.57-1.58-3.8-2.46-0.63-.42-1.22-0.89-1.81-1.35l-0.89-.69-0.67-.58a2.23,2.23,0,0,0,.39-1.49,2.14,2.14,0,0,0-3.69-1.25A2.12,2.12,0,0,0,180.27,125.8Z" transform="translate(-159.02 -29.64)"/><path class="cls-11" d="M230.72,82.43a0.49,0.49,0,0,0-.15-0.34,0.49,0.49,0,0,0-.33-0.14l0-.21,0-.26c0-.18,0-0.35-0.08-0.53-0.06-.35-0.14-0.7-0.22-1a11.56,11.56,0,0,0-.73-2,12,12,0,0,0-2.45-3.46,11.91,11.91,0,0,0-7.62-3.4l-0.37,0h-0.37v0.1h0.37l0.37,0a11.82,11.82,0,0,1,7.56,3.37,11.94,11.94,0,0,1,2.43,3.43,11.51,11.51,0,0,1,.72,2c0.09,0.34.16,0.69,0.22,1,0,0.17.05,0.35,0.08,0.52l0,0.26,0,0.21a0.52,0.52,0,0,0-.31.18,0.5,0.5,0,0,0,.4.82A0.5,0.5,0,0,0,230.72,82.43Z" transform="translate(-159.02 -29.64)"/><rect class="cls-11" x="178.92" y="102.48" width="19.24" height="2.16" transform="translate(-185.2 86.89) rotate(-32.24)"/><path class="cls-1" d="M223.29,88.63l0.08-.29c0-.16,0-0.35.09-0.54l0-.15V87.43l0-.41,0-.4,11.84,0.6,0,0.4,0,0.41v0.23l-0.06.54c0,0.37-.09.75-0.15,1.1l-0.08.5c0,0.16-.06.31-0.08,0.41l-0.18.74Z" transform="translate(-159.02 -29.64)"/><path class="cls-1" d="M222.27,91l0.15-.25a4,4,0,0,0,.31-0.57,4.68,4.68,0,0,0,.27-0.59l0.1-.28,11.19,3.9-0.26.71a15.82,15.82,0,0,1-.68,1.53,14.34,14.34,0,0,1-.8,1.46l-0.4.64Z" transform="translate(-159.02 -29.64)"/><path class="cls-1" d="M220.52,92.81l0.24-.18,0.48-.44c0.17-.17.32-0.35,0.44-0.48a1.35,1.35,0,0,0,.19-0.23l9.28,7.37a6.76,6.76,0,0,1-.48.58c-0.3.34-.7,0.79-1.13,1.22s-0.89.82-1.23,1.11l-0.6.46Z" transform="translate(-159.02 -29.64)"/><path class="cls-1" d="M218.28,94l0.28-.1,0.29-.1,0.31-.15a4.28,4.28,0,0,0,.58-0.3l0.25-.15,6.36,10-0.65.39a15.07,15.07,0,0,1-1.48.77c-0.28.13-.55,0.26-0.81,0.37l-0.73.28-0.72.26Z" transform="translate(-159.02 -29.64)"/><path class="cls-1" d="M215.85,94.37h0.22l0.65,0,0.64-.1a1.17,1.17,0,0,0,.21,0l0.08,0,2.69,11.54-0.2,0c-0.13,0-.31.08-0.54,0.11-0.45.08-1,.17-1.65,0.25s-1.2.08-1.65,0.1h-1Z" transform="translate(-159.02 -29.64)"/><path class="cls-1" d="M213.27,93.89l0.28,0.1c0.17,0.07.4,0.1,0.63,0.17a4.3,4.3,0,0,0,.56.11l0.24,0-0.65,11.83L213.4,106l-1-.14-0.52-.09-0.44-.11c-0.59-.15-1.18-0.29-1.61-0.45l-0.72-.26Z" transform="translate(-159.02 -29.64)"/><path class="cls-1" d="M211.07,92.63l0.24,0.18a4.67,4.67,0,0,0,.53.37,6.32,6.32,0,0,0,.83.46l-5.06,10.72-0.68-.33c-0.41-.19-0.92-0.52-1.44-0.83a15.8,15.8,0,0,1-1.36-1l-0.6-.46Z" transform="translate(-159.02 -29.64)"/><path class="cls-1" d="M209.41,90.7L209.56,91c0.1,0.15.25,0.33,0.39,0.53s0.32,0.35.43,0.49l0.14,0.16,0.06,0.05-8.3,8.46-0.15-.14-0.37-.4c-0.3-.34-0.73-0.77-1.09-1.25s-0.73-1-1-1.34l-0.4-.64Z" transform="translate(-159.02 -29.64)"/><path class="cls-1" d="M208.46,88.35l0.08,0.29a4.19,4.19,0,0,0,.19.62,5.23,5.23,0,0,0,.24.61l0.13,0.27L198.48,95.4l-0.33-.69a16.63,16.63,0,0,1-.61-1.55,14.76,14.76,0,0,1-.48-1.6l-0.18-.74Z" transform="translate(-159.02 -29.64)"/><path class="cls-1" d="M208.37,85.71v0.07l0,0.08V86l0,0.87c0-.26,0-0.07,0-0.13h0v0.16c0,0.06,0,.12,0,0.17s0,0.22,0,.3a1.62,1.62,0,0,0,0,.29L196.6,89.16l0-.21c0-.13,0-0.32-0.05-0.54l0-.77,0-.44V86.78h0V86.28l0-.87V85.25l0-.28,0-.26Z" transform="translate(-159.02 -29.64)"/><path class="cls-1" d="M209.09,83.38l-0.13.27a5.21,5.21,0,0,0-.24.6,4.19,4.19,0,0,0-.19.62l-0.08.29-11.59-2.47,0.18-.74a14.76,14.76,0,0,1,.48-1.6,16.6,16.6,0,0,1,.61-1.55l0.33-.69Z" transform="translate(-159.02 -29.64)"/><path class="cls-1" d="M210.58,81.32l-0.06.05-0.14.16c-0.11.14-.29,0.3-0.43,0.49s-0.29.38-.39,0.53l-0.15.25-10.12-6.16,0.4-.64c0.25-.38.61-0.86,1-1.34s0.79-.92,1.09-1.25l0.38-.4,0.15-.14Z" transform="translate(-159.02 -29.64)"/><path class="cls-1" d="M212.67,79.87a6.33,6.33,0,0,0-.83.46,4.69,4.69,0,0,0-.53.37l-0.24.18-7.55-9.14,0.6-.46a15.67,15.67,0,0,1,1.36-1c0.52-.31,1-0.64,1.44-0.83l0.68-.33Z" transform="translate(-159.02 -29.64)"/><path class="cls-1" d="M215.11,79.18l-0.29,0a4.56,4.56,0,0,0-.64.12c-0.23.07-.46,0.1-0.63,0.17l-0.28.1L209.16,68.5l0.72-.26c0.43-.15,1-0.29,1.61-0.45a15.59,15.59,0,0,1,1.64-.31l0.75-.1Z" transform="translate(-159.02 -29.64)"/><path class="cls-12" d="M209.2,86.77c0,0.07,0-.19,0,0.16V86.79h0v0Z" transform="translate(-159.02 -29.64)"/><path class="cls-12" d="M216.08,93.47h0Z" transform="translate(-159.02 -29.64)"/><path class="cls-12" d="M215.91,80h0Z" transform="translate(-159.02 -29.64)"/><path class="cls-12" d="M222.62,86.72V86.58h0c0-.08,0-0.17,0-0.3s0-.17,0-0.26l0-.31c0-.11,0-0.23-0.06-0.36l-0.1-.39a6.43,6.43,0,0,0-.85-1.88,6.87,6.87,0,0,0-1.89-1.91,7,7,0,0,0-1.37-.69l-0.38-.14-0.4-.1-0.2-.05-0.16,0-0.31-.06a1.31,1.31,0,0,0-.26,0l-0.32,0-0.33,0h-0.1a7,7,0,0,0-2.62.57,7.19,7.19,0,0,0-1.59,1A7.55,7.55,0,0,0,210.32,83a7.44,7.44,0,0,0-.83,1.76q-0.06.24-.12,0.48l0,0.12v0.09c0,0.06,0,.12,0,0.18l0,0.18a0.29,0.29,0,0,0,0,.05v0.28l0,0.61v0.46a2.66,2.66,0,0,0,.06.49,6.89,6.89,0,0,0,.21,1,7.44,7.44,0,0,0,.83,1.76,7.55,7.55,0,0,0,1.28,1.43,7.18,7.18,0,0,0,1.59,1,3.29,3.29,0,0,0,.43.17,2.82,2.82,0,0,0,.43.14l0.44,0.11c0.14,0,.23,0,0.34.06a6.72,6.72,0,0,0,1.1.09h0.31c0.14,0,.29,0,0.43,0a7,7,0,0,0,3-1.08,6.87,6.87,0,0,0,1.89-1.91,6.43,6.43,0,0,0,.85-1.88l0.1-.39c0-.11,0-0.19,0-0.27s0-.16,0-0.23a0.87,0.87,0,0,0,0-.17V87.3l0-.54h0v0Zm-0.67.73a0.75,0.75,0,0,1,0,.16c0,0.06,0,.12,0,0.18s0,0.13,0,.22-0.06.23-.09,0.36a5.82,5.82,0,0,1-.77,1.7,6.23,6.23,0,0,1-1.71,1.73,6.31,6.31,0,0,1-2.68,1c-0.13,0-.26,0-0.39,0H216a5.83,5.83,0,0,1-1-.09l-0.13,0a0.65,0.65,0,0,1-.15,0l-0.39-.1a2.45,2.45,0,0,1-.39-0.13,2.84,2.84,0,0,1-.39-0.15,6.56,6.56,0,0,1-1.44-.9,7,7,0,0,1-1.16-1.3,6.87,6.87,0,0,1-.75-1.59,6.42,6.42,0,0,1-.18-0.87,2.28,2.28,0,0,1-.05-0.44V86.79l0-.58V85.93a0.21,0.21,0,0,1,0,0l0-.14s0-.1,0-0.14V85.53l0-.11c0-.14.08-0.29,0.11-0.43a6.87,6.87,0,0,1,.75-1.59A7,7,0,0,1,212,82.1a6.55,6.55,0,0,1,1.44-.9,6.39,6.39,0,0,1,2.37-.52h0.06l0.33,0,0.32,0a1.13,1.13,0,0,1,.25,0L217,80.79l0.13,0,0.18,0.05L217.71,81,218,81.08a6.39,6.39,0,0,1,1.24.63A6.23,6.23,0,0,1,221,83.43a5.81,5.81,0,0,1,.77,1.7c0,0.13.06,0.24,0.09,0.36s0,0.22,0,.32l0,0.28a2.28,2.28,0,0,1,0,.23c0,0.2,0,.33,0,0.39l0,0.55v0.19Z" transform="translate(-159.02 -29.64)"/><path class="cls-12" d="M236.05,88v0.19c0,0.08,0,.08,0,0.3s-0.08.74-.14,1.16l-0.1.65-0.06.34c0,0.12,0,.23-0.06.32q-0.13.57-.3,1.2a19.9,19.9,0,0,1-2.57,5.69,20.15,20.15,0,0,1-14.61,9c-0.42.06-.85,0.07-1.28,0.1l-0.64,0h-1l-0.66,0c-0.08,0-.8-0.06-1.32-0.13l-0.83-.12c-0.27,0-.59-0.09-0.78-0.15l-1.33-.34c-0.44-.11-0.87-0.27-1.31-0.43s-0.87-.31-1.29-0.52a20.64,20.64,0,0,1-4.79-3,20.19,20.19,0,0,1-6.35-9.62,20.44,20.44,0,0,1-.64-2.9,13.47,13.47,0,0,1-.16-1.47l0-.74V86.8a4.1,4.1,0,1,1,0-.55l0-.75V85.22l0-.21q0-.46.11-0.92t0.14-.92l0.08-.46,0.09-.36q0.17-.72.37-1.44a20.19,20.19,0,0,1,6.35-9.62,20.65,20.65,0,0,1,4.79-3,20.49,20.49,0,0,1,7.89-1.73h1l0.33,0,0.32,0h0.29l0.2,0c0.53,0.05,1.06.12,1.57,0.2l0.39,0.06L220.06,67l0.61,0.15,1.19,0.32c0.39,0.13.77,0.26,1.15,0.4a20,20,0,0,1,9.78,7.82,19.9,19.9,0,0,1,2.57,5.69q0.17,0.63.3,1.2c0.08,0.38.13,0.74,0.19,1.07L236,84.57c0,0.28,0,.54.06,0.77,0.05,0.92.06,1.41,0.06,1.41h0.64s0-.51-0.06-1.46c0-.24,0-0.5-0.06-0.79l-0.14-1c-0.06-.34-0.11-0.71-0.19-1.1s-0.19-.8-0.31-1.24a20.54,20.54,0,0,0-2.65-5.87,20.68,20.68,0,0,0-10.09-8.07c-0.39-.14-0.78-0.29-1.18-0.42l-1.23-.33-0.63-.15-0.37-.07-0.4-.07c-0.54-.09-1.08-0.16-1.63-0.21l-0.21,0h-0.29L217,66l-0.33,0h-1a21.12,21.12,0,0,0-8.14,1.78,21.26,21.26,0,0,0-4.94,3.08A20.83,20.83,0,0,0,196,80.72q-0.21.74-.39,1.49l-0.09.38-0.08.47q-0.08.47-.14,1t-0.11,1l0,0.22v0.28l0,0.75a4.11,4.11,0,1,0,0,.59v0.71l0,0.76a14.05,14.05,0,0,0,.17,1.52,21.1,21.1,0,0,0,.66,3,20.82,20.82,0,0,0,6.55,9.92,21.28,21.28,0,0,0,4.94,3.08c0.43,0.21.89,0.36,1.33,0.53s0.89,0.33,1.35.44l1.37,0.35c0.2,0.05.53,0.11,0.81,0.15l0.86,0.13,0.86,0.1c0.37,0,.37,0,0.5,0l0.66,0h1.05l0.66,0c0.44,0,.88,0,1.32-0.1a20.79,20.79,0,0,0,15.07-9.27A20.54,20.54,0,0,0,236,92.3c0.12-.43.22-0.85,0.31-1.24l0-.15,0-.18,0.06-.35,0.1-.67c0.06-.43.11-0.84,0.14-1.2s0-.23,0-0.31,0-.13,0-0.19l0-.72-0.64,0Z" transform="translate(-159.02 -29.64)"/><path class="cls-11" d="M211,86.76h0c0,0.53,0,.15,0,0.26h0V86.76h0Z" transform="translate(-159.02 -29.64)"/><path class="cls-11" d="M215.92,91.66h0Z" transform="translate(-159.02 -29.64)"/><path class="cls-11" d="M219.9,87.53l-0.24,0a3.63,3.63,0,0,0,.08-0.75,3.57,3.57,0,0,0-.48-1.8l0.22-.16c0.4-.3.66-0.52,0.66-0.52l-0.08-.14a2.33,2.33,0,0,0-.24-0.35,4.72,4.72,0,0,0-.39-0.46c-0.07-.08-0.17-0.15-0.25-0.23L219,83l-0.14-.1a5.09,5.09,0,0,0-1.1-.65l-0.4-.14-0.16,0s-0.15.31-.34,0.78l-0.15.39a3.42,3.42,0,0,0-1.26,0c0-.17-0.08-0.34-0.12-0.49-0.14-.49-0.25-0.81-0.25-0.81l-0.16,0-0.41.1a1.26,1.26,0,0,0-.27.09l-0.3.11a6.11,6.11,0,0,0-1.17.71l-0.23.22a1.28,1.28,0,0,0-.21.2c-0.11.14-.23,0.23-0.28,0.32l-0.09.13s0.23,0.25.6,0.6l0.5,0.45a3.56,3.56,0,0,0-.43,1L212,85.8c-0.51-.05-0.86-0.06-0.86-0.06a0.38,0.38,0,0,0,0,.08,0.41,0.41,0,0,1,0,.08l0,0a0.09,0.09,0,0,0,0,0v0.13l0,0.59v0.21c0,0.11,0,.23,0,0.34s0,0.23.06,0.34a1.57,1.57,0,0,0,.07.34,3.09,3.09,0,0,0,.09.32,4.59,4.59,0,0,0,.22.55,2.37,2.37,0,0,0,.19.38l0.08,0.14s0.32-.13.77-0.34l0.6-.31a3.62,3.62,0,0,0,.78.87l-0.29.54c-0.12.23-.21,0.43-0.27,0.56l-0.09.21,0.14,0.08a2.09,2.09,0,0,0,.37.2L214,91.28l0.3,0.1,0.15,0.06,0.17,0,0.32,0.08a0.43,0.43,0,0,1,.16,0l0,0h0.14l0.35,0,0.33,0h0l0.29,0a2.1,2.1,0,0,0,.42,0l0.16,0V91.34c0-.14,0-0.36,0-0.62s0-.28,0-0.43a3.57,3.57,0,0,0,1.21-.44l0.24,0.27c0.34,0.37.58,0.61,0.58,0.61l0.13-.1,0.15-.11,0.18-.17a4.63,4.63,0,0,0,.83-1,5.35,5.35,0,0,0,.55-1.16c0-.17.07-0.31,0.1-0.41l0-.06v0S220.39,87.61,219.9,87.53Z" transform="translate(-159.02 -29.64)"/></svg>