<svg preserveAspectRatio="none" id="Layer_1" data-name="Layer 1" xmlns="http://www.w3.org/2000/svg" viewBox="0 0 113.96 109.22"><defs><style>.cls-1{fill:#08e5db;}.cls-2{fill:#067773;}.cls-3{fill:#00eadb;}.cls-10,.cls-11,.cls-12,.cls-13,.cls-4,.cls-5,.cls-6,.cls-7,.cls-8,.cls-9{fill:#fe6a13;}.cls-4{opacity:0.1;}.cls-5{opacity:0.2;}.cls-6{opacity:0.3;}.cls-7{opacity:0.4;}.cls-8{opacity:0.5;}.cls-9{opacity:0.6;}.cls-10{opacity:0.7;}.cls-11{opacity:0.8;}.cls-12{opacity:0.9;}</style></defs><title>circle27</title><path class="cls-1" d="M253.61,234.16s0-.05,0-0.08,0-.07,0-0.1c0-.33,0-0.67,0-1l-0.06-.73c0-.21,0-0.43,0-0.64l0-.44,0-.26-0.19-1.47v-0.11l-0.16-.88-0.1-.59-0.06-.37c0-.19-0.09-0.39-0.13-0.58l0-.11-0.26-1.14-0.11-.39q-0.11-.41-0.23-0.81l-0.17-.6-0.2-.59-0.09-.28-0.06-.18-0.25-.73-0.46-1.16c-0.08-.19-0.15-0.39-0.23-0.58l-0.26-.56c-0.17-.37-0.33-0.75-0.51-1.12l-0.29-.56-0.3-.58c-0.09-.19-0.19-0.37-0.3-0.56a32.13,32.13,0,0,0-2.29-3.63c-0.75-1.08-1.48-2-2.07-2.65l-0.37-.43-0.12-.13-0.23-.27-0.21-.23-0.06-.06-0.8-.84a38.34,38.34,0,0,0-4.61-4l-0.8-.57-0.32-.23-0.28-.18-0.51-.32-0.76,1.19,0.49,0.31,0.27,0.17,0.31,0.22,0.77,0.55a36.74,36.74,0,0,1,4.44,3.82l0.24,0.24-3.33,3.22L239,213.4l0.29,0.3,0.18,0.19,0.19,0.22a30.64,30.64,0,0,1,2.14,2.7c0.43,0.57.83,1.23,1.28,1.91l0.62,1.09c0.11,0.18.21,0.38,0.31,0.57l0.3,0.59a31.61,31.61,0,0,1,2,5.17c0.28,0.91.48,1.83,0.67,2.74l0.24,1.37q0.08,0.68.17,1.35a35.44,35.44,0,0,1,.15,4.89c0,0.18,0,.35,0,0.52l0,0.5,0,0.47,0,0.23c0,0.07,0,.15,0,0.22-0.08.57-.13,1.08-0.19,1.49-0.15.81-.23,1.28-0.23,1.28l4.54,0.91c0,0.11,0,.22-0.07.33-0.14.59-.26,1.15-0.4,1.69l-0.43,1.5c-0.15.47-.31,0.9-0.44,1.3-0.07.2-.12,0.4-0.2,0.58l-0.21.52-0.34.88c-0.1.26-.21,0.46-0.28,0.64l-0.24.53,1.29,0.59,0.25-.55c0.08-.18.19-0.4,0.29-0.66l0.36-.91,0.21-.54c0.08-.19.14-0.39,0.21-0.6,0.14-.42.3-0.87,0.46-1.36l0.44-1.56c0.14-.56.26-1.14,0.41-1.76,0-.11,0-0.23.07-0.34h0l0.26-1.45,0-.14,0-.14c0-.27.07-0.57,0.11-0.89s0.06-.49.09-0.73c0-.07,0-0.14,0-0.21v-0.12c0-.36.06-0.73,0.08-1.1l0-.21c0-.2,0-0.41,0-0.62s0-.52,0-0.79C253.63,235.37,253.63,234.77,253.61,234.16Z" transform="translate(-156.66 -177.04)"/><path class="cls-2" d="M193,262.62l0.11,0.1,0.34,0.27,0.55,0.43,0.35,0.27c0.12,0.1.25,0.2,0.4,0.3a37.11,37.11,0,0,0,5,3.08l0.82,0.42,0.88,0.39,0.45,0.2,0.23,0.1,0.23,0.09,1,0.37,0.49,0.19,0.5,0.17,1,0.35c0.35,0.11.7,0.2,1.06,0.31l0.54,0.15,0.27,0.08,0.28,0.06a36,36,0,0,0,9.41,1l1.21,0,1.21-.09,0.6,0,0.6-.08,1.19-.15,1.17-.21,0.58-.1,0.57-.13,1.13-.26,1.1-.31,0.54-.15c0.18,0,.35-0.12.53-0.17l1-.35c0.17-.05.34-0.12,0.51-0.19l0.5-.2c0.33-.13.66-0.25,1-0.39l0.93-.42,0.46-.2,0.44-.22,0.86-.44c0.14-.07.28-0.14,0.41-0.22l0.4-.23c0.52-.31,1-0.58,1.49-0.89l0.68-.43,0.33-.21,0.31-.22,1.12-.8,0.92-.73,0.4-.31,0.33-.29,0.53-.46,0.44-.38,1,1-0.46.39-0.55.47-0.35.3-0.41.32-1,.75-1.17.83-0.32.23-0.34.22-0.71.45c-0.47.32-1,.61-1.55,0.92l-0.41.24c-0.14.08-.29,0.15-0.43,0.23l-0.89.46-0.46.23-0.48.21-1,.44c-0.33.15-.67,0.27-1,0.41l-0.52.21c-0.17.07-.35,0.14-0.53,0.2l-1.09.37c-0.18.06-.36,0.13-0.55,0.18l-0.56.16-1.14.32-1.17.27-0.59.14-0.6.11-1.21.22-1.23.15-0.62.08-0.63,0-1.25.1-1.26,0a37.5,37.5,0,0,1-9.78-1.09l-0.29-.06-0.28-.08L206,271c-0.37-.11-0.74-0.2-1.1-0.32l-1.06-.36-0.52-.17-0.5-.2-1-.39-0.24-.1-0.24-.11-0.47-.21-0.91-.41-0.86-.44a38.44,38.44,0,0,1-5.17-3.2c-0.15-.1-0.29-0.21-0.42-0.31l-0.36-.28-0.57-.45-0.35-.28-0.12-.1Z" transform="translate(-156.66 -177.04)"/><path class="cls-2" d="M215.92,199l-1,0h-0.52c-0.19,0-.39,0-0.6,0l-1.45.11-1.7.21-1.88.34-1,.23c-0.33.08-.67,0.14-1,0.25-0.67.2-1.35,0.36-2,.61l-1,.34-1,.39c-0.65.24-1.27,0.54-1.87,0.81l-0.45.2-0.43.22-0.83.43c-0.28.13-.52,0.29-0.77,0.43l-0.72.41c-0.23.13-.44,0.27-0.65,0.4l-0.58.37-0.51.33-0.42.3-0.79.56L194,204.84l0.83-.59,0.43-.31,0.53-.34,0.6-.38c0.21-.14.43-0.28,0.67-0.41l0.75-.43c0.26-.14.52-0.31,0.8-0.45l0.87-.44,0.45-.23,0.47-.21c0.63-.28,1.27-0.59,1.95-0.84l1-.4,1-.35c0.69-.25,1.4-0.43,2.1-0.63,0.34-.11.7-0.18,1-0.26l1-.24,2-.35,1.77-.22,1.5-.12c0.22,0,.43,0,0.63,0h0.53l1,0V199Z" transform="translate(-156.66 -177.04)"/><path class="cls-2" d="M172.31,252.38l0.35,0.89c0.12,0.29.29,0.64,0.47,1.05l0.3,0.67c0.11,0.24.22,0.49,0.36,0.75a45.54,45.54,0,0,0,5.14,8.2,46.13,46.13,0,0,0,4.31,4.82l1.27,1.2,1.35,1.17,0.35,0.29,0.36,0.28,0.72,0.57c0.24,0.19.48,0.39,0.73,0.57l0.76,0.54c0.51,0.36,1,.74,1.56,1.07l0.81,0.52c0.27,0.17.54,0.35,0.82,0.51l1.69,1,1.75,0.9a47.88,47.88,0,0,0,7.43,2.89l1,0.27,0.48,0.14,0.49,0.12,2,0.45,2,0.35c0.33,0.07.65,0.1,1,.14l1,0.12c0.65,0.1,1.31.13,2,.18l1,0.07c0.32,0,.65,0,1,0l1,0c0.32,0,.64,0,1,0l1.89,0a50.75,50.75,0,0,0,7.17-.88c0.56-.11,1.11-0.25,1.66-0.37l0.81-.19,0.79-.22c0.52-.15,1-0.29,1.53-0.44l1.45-.49,0.7-.24,0.68-.27,1.31-.52,1.22-.55,0.58-.26c0.19-.09.38-0.17,0.56-0.27l1.05-.54,0.5-.26,0.48-.26,1.68-1c0.5-.31.93-0.59,1.32-0.84s0.71-.45,1-0.64l0.78-.56,4.23,5.91,0.54-.39c0.36-.24.85-0.64,1.49-1.14,0.32-.25.67-0.52,1-0.84l1.2-1,0.66-.57,0.67-.63,0.7-.67c0.24-.23.49-0.46,0.73-0.71a54.8,54.8,0,0,0,11.33-16.79,53.86,53.86,0,0,0,3.28-10.37,55,55,0,0,0,1.11-9.41c0-.35,0-0.69,0-1s0-.66,0-1l0-1.79c0-.28,0-0.55,0-0.82s0-.52-0.06-0.76l-0.1-1.34,0-.57-0.06-.5-0.1-.79-0.08-.66-7.68,1.06,0.08,0.61,0.09,0.7c0,0.14,0,.28.05,0.43l0,0.48,0.08,1.09,0,0.59c0,0.2,0,.41,0,0.62,0,0.42,0,.86,0,1.3,0,0.22,0,.44,0,0.67l0,0.67c0,0.45,0,.9,0,1.34,0,0.11,0,.22,0,0.33l0,0.33,0,0.64-0.09,1.21c0,0.19,0,.38-0.06.56l-0.07.52c-0.09.67-.15,1.23-0.21,1.61l-0.11.61-2.85-.49-0.1.55c-0.07.35-.14,0.85-0.28,1.43l-0.22,1-0.12.52c0,0.18-.1.35-0.15,0.54l-0.32,1.12c-0.06.19-.11,0.38-0.17,0.58l-0.19.57-0.39,1.14-0.09.28-0.11.27-0.21.54-0.4,1c-0.13.32-.27,0.62-0.4,0.89-0.25.55-.45,1-0.61,1.33l-0.25.49-1.51-.76-0.18.35c-0.12.22-.28,0.56-0.51,1l-0.85,1.48c-0.08.15-.17,0.29-0.27,0.43l-0.29.45-0.63,1-0.73,1-0.39.54c-0.13.18-.28,0.36-0.42,0.54l-0.88,1.13-1,1.13c-0.32.39-.69,0.76-1,1.14s-0.72.77-1.11,1.13-0.77.74-1.17,1.11l-1.23,1.06A46.29,46.29,0,0,1,238,271c-0.88.5-1.72,1-2.56,1.42l-0.61.31c-0.2.1-.4,0.21-0.6,0.29l-1.15.52-0.54.24L232,274l-1,.39c-0.3.13-.6,0.22-0.87,0.31l-0.74.25-0.6.2-0.45.13-0.37.11,0.47,1.63-0.7.2-0.38.11-0.46.12-1.15.26a43.08,43.08,0,0,1-7.25,1,44.19,44.19,0,0,1-10.32-.68l-0.7-.12c-0.24,0-.47-0.1-0.7-0.16l-1.42-.33c-0.47-.12-0.94-0.26-1.42-0.39l-0.71-.2-0.71-.24-1.42-.48-1.4-.55c-0.23-.1-0.47-0.18-0.7-0.28l-0.69-.31-0.69-.31c-0.23-.1-0.46-0.2-0.68-0.32l-1.35-.69-0.34-.17-0.33-.19-0.66-.38-0.65-.38c-0.22-.12-0.43-0.27-0.64-0.4l-1.26-.81-1.21-.86-0.6-.43-0.58-.45c-0.38-.3-0.77-0.59-1.14-0.9l-1.08-.94c-0.37-.3-0.7-0.63-1-1s-0.68-.63-1-1l-0.93-1c-0.15-.16-0.31-0.32-0.46-0.48l-0.43-.5-0.84-1-0.77-1-0.38-.48-0.19-.24-0.17-.24-0.67-.95a44.93,44.93,0,0,1-3.68-6.33l-0.49-1.08c-0.14-.31-0.27-0.58-0.35-0.8l-0.27-.68Z" transform="translate(-156.66 -177.04)"/><path class="cls-3" d="M261.17,206.65l-0.51-.8-0.32-.5c-0.11-.18-0.25-0.36-0.39-0.56L259,203.5l-0.26-.36-0.28-.36-0.6-.76-0.64-.81-0.71-.83c-0.49-.56-1-1.17-1.57-1.75a53.79,53.79,0,0,0-8.48-7.32,52.69,52.69,0,0,0-11.36-6l-0.77-.3-0.78-.27-1.55-.52-1.57-.45c-0.52-.15-1-0.3-1.57-0.41L227.3,183l-0.39-.09-0.39-.07-0.78-.14-1.55-.27-1.54-.2a53.42,53.42,0,0,0-11.19-.18l-0.61,0-0.59.07-1.14.14-1.08.14-1,.18-1,.17c-0.31.06-.6,0.1-0.89,0.17l-1.55.36-0.66.15-0.58.16-0.91.26-0.76.22L198.56,177l-0.18.05-0.53.17-2,.67c-0.43.14-.9,0.32-1.4,0.52l-1.64.65c-0.58.24-1.19,0.52-1.83,0.81l-1,.45-1,.51a59.46,59.46,0,0,0-9,5.53c-0.77.59-1.54,1.2-2.31,1.81s-1.52,1.3-2.28,2-1.48,1.39-2.21,2.12l-1.06,1.11-0.53.56-0.26.28-0.25.29a61.05,61.05,0,0,0-7.13,9.75,60.17,60.17,0,0,0-4.55,9.53c-0.15.36-.26,0.72-0.38,1.07l-0.35,1-0.33,1c-0.1.32-.19,0.63-0.27,0.93l-0.48,1.7c-0.08.26-.14,0.52-0.19,0.76l-0.16.69c-0.2.88-.37,1.57-0.46,2l-0.13.73,7.26,1.36-0.27,1.53c0,0.23-.07.48-0.11,0.75l-0.11.83-0.11.89-0.06.46,0,0.46-0.14,1.82,0,0.43v0.41l0,0.75,0,1.55h1.91l0,1c0,0.65,0,1.62.13,2.84a50,50,0,0,0,1.74,10c0.15,0.5.29,1,.45,1.54l0.53,1.58c0.09,0.27.18,0.54,0.28,0.81l0.32,0.81,0.32,0.82c0.11,0.27.21,0.56,0.34,0.83l0.75,1.67c0.07,0.14.13,0.28,0.2,0.42l0.21,0.42,0.43,0.84,0.44,0.85,0.48,0.84,0.48,0.84c0.16,0.28.32,0.57,0.5,0.84l1.07,1.67c0.38,0.55.77,1.09,1.16,1.64l0.29,0.41,0.31,0.4,0.63,0.8,0.64,0.8,0.67,0.78a50.05,50.05,0,0,0,5.93,5.86,53,53,0,0,0,6.8,4.82,49.47,49.47,0,0,0,7.26,3.56c1.21,0.51,2.44.89,3.64,1.3s2.4,0.71,3.58,1l0.87,0.2,0.43,0.1,0.43,0.08,1.7,0.3,0.42,0.07,0.42,0.05,0.82,0.11,0.8,0.1c0.27,0,.53.07,0.79,0.09a54,54,0,0,0,10.12,0l1.62-.2c0.47-.06.87-0.11,1.2-0.16l1-.18-0.25-1.39-1,.17c-0.31.06-.71,0.1-1.16,0.16l-1.58.2a52.48,52.48,0,0,1-9.84,0c-0.25,0-.51-0.05-0.77-0.08l-0.78-.1-0.8-.1-0.4-.05-0.4-.07-1.65-.29-0.42-.08-0.42-.1-0.85-.2c-1.15-.24-2.3-0.6-3.48-0.93s-2.36-.77-3.54-1.26a48.06,48.06,0,0,1-7.06-3.46,51.64,51.64,0,0,1-6.62-4.69,48.6,48.6,0,0,1-5.77-5.7l-0.66-.76-0.62-.78-0.61-.78-0.3-.39-0.29-.4c-0.38-.54-0.76-1.06-1.13-1.6l-1-1.62c-0.18-.27-0.33-0.54-0.49-0.82l-0.47-.82-0.46-.81-0.42-.82-0.42-.81-0.21-.4c-0.07-.14-0.13-0.27-0.19-0.41l-0.73-1.62c-0.13-.26-0.22-0.54-0.33-0.8l-0.32-.8-0.31-.79c-0.1-.26-0.18-0.53-0.27-0.79l-0.52-1.54c-0.16-.51-0.29-1-0.43-1.5a48.57,48.57,0,0,1-1.69-9.7c-0.11-1.19-.11-2.12-0.13-2.76s0-1,0-1h4.06l0-1.44q0-.34,0-0.76c0-.28,0-0.57.06-0.89l0.08-1,0-.55c0-.19,0-0.38.07-0.57l0.15-1.22c0-.21,0-0.42.09-0.64l0.12-.65,0.24-1.36c0.09-.46.21-0.93,0.32-1.41,0.2-1,.5-1.93.78-2.92,0.06-.25.16-0.49,0.24-0.74l0.25-.74,0.25-.74c0.09-.25.19-0.49,0.28-0.73l0.58-1.46,0.64-1.42c0.11-.23.21-0.47,0.32-0.7l0.35-.68c0.23-.45.45-0.9,0.69-1.33l0.72-1.25c0.12-.2.23-0.41,0.35-0.61l0.37-.58,0.71-1.1c0.23-.35.48-0.68,0.7-1l0.65-.92,0.63-.8c0.4-.5.73-0.94,1-1.28l0.94-1.09,2.75,2.47s0.15-.18.46-0.5l0.56-.59,0.36-.37,0.2-.21,0.22-.21,1-.94,0.28-.26,0.3-.26,0.63-.55c0.22-.19.44-0.39,0.68-0.58l0.74-.58,0.78-.61,0.85-.6c0.29-.2.58-0.42,0.89-0.62l0.95-.61c0.63-.43,1.33-0.8,2-1.21,0.35-.21.72-0.39,1.09-0.58l1.12-.58,1.18-.53,0.6-.27,0.61-.25,1.24-.49c0.42-.16.85-0.29,1.28-0.44l0.65-.22c0.22-.08.44-0.13,0.66-0.19l1.33-.38c0.45-.12.91-0.21,1.36-0.32l0.68-.16c0.23-.06.46-0.09,0.69-0.13l1.39-.25c0.46-.07.94-0.12,1.4-0.18a42.41,42.41,0,0,1,11.06.09c0.22,0,.44,0,0.65.09l0.64,0.12,1.27,0.23,1.23,0.28c0.4,0.1.81,0.17,1.2,0.29l1.15,0.33,0.56,0.16,0.55,0.19,1.06,0.36,0.26,0.09,0.25,0.1,0.5,0.2,1,0.38,0.46,0.2,0.45,0.2c0.59,0.27,1.15.5,1.66,0.78s1,0.5,1.43.74l1.18,0.68,0.51,0.29,0.43,0.28,0.69,0.44L239.6,200l0.14,0.09,2.07-3.06,0.69,0.49c0.44,0.31,1.08.74,1.79,1.33a43.94,43.94,0,0,1,5,4.53l0.64,0.67c0.11,0.11.21,0.22,0.31,0.34l0.3,0.34,0.59,0.68c0.19,0.23.39,0.44,0.56,0.67l1,1.31c0.17,0.2.31,0.42,0.45,0.62l0.42,0.59,0.38,0.54,0.18,0.25,0.16,0.24,0.52,0.82,0.46,0.71,6.3-3.85ZM197,189l-0.35.15-1.31.59c-0.28.13-.6,0.26-0.93,0.43l-1.08.55-0.6.31-0.31.16-0.31.18-1.32.76c-0.47.26-.93,0.57-1.41,0.87l-0.74.47-0.37.25-0.37.26L186.36,195l-1.54,1.21a51.23,51.23,0,0,0-6,5.76,48.28,48.28,0,0,0-5,6.68l-0.27.42-0.25.43-0.48.84-0.47.82-0.43.82-0.41.8c-0.13.27-.27,0.52-0.39,0.78l-0.68,1.51c-0.23.48-.4,1-0.58,1.41l-0.5,1.28-0.72,2.12c-0.11.29-.17,0.56-0.24,0.79l-0.17.59-0.14.49-6.19-1.69,0.16-.55,0.19-.67c0.08-.26.15-0.57,0.27-0.9,0.22-.67.49-1.47,0.81-2.4l0.57-1.45c0.2-.51.4-1.05,0.66-1.59l0.77-1.71c0.13-.3.29-0.59,0.44-0.89l0.46-.91,0.48-.93,0.53-.93,0.55-.95,0.28-.48,0.3-.47a54.69,54.69,0,0,1,5.61-7.53,57.63,57.63,0,0,1,6.78-6.5l1.74-1.36,1.72-1.23,0.42-.3,0.42-.28,0.83-.53c0.55-.35,1.07-0.7,1.59-1l1.5-.86,0.35-.2,0.35-.18,0.67-.35,1.22-.62c0.38-.19.74-0.34,1.05-0.49l1.48-.67,0.4-.16,0.14-.05,2.45,5.93Z" transform="translate(-156.66 -177.04)"/><polygon class="cls-4" points="35.92 79.41 36.41 79.94 32.85 83.5 32.28 82.89 35.92 79.41"/><polygon class="cls-5" points="34.83 78.22 35.3 78.77 31.57 82.14 31.02 81.51 34.83 78.22"/><polygon class="cls-6" points="33.81 76.97 34.25 77.54 30.35 80.72 29.83 80.06 33.81 76.97"/><polygon class="cls-7" points="32.85 75.68 33.27 76.27 29.2 79.24 28.73 78.55 32.85 75.68"/><polygon class="cls-8" points="31.97 74.33 32.35 74.94 28.14 77.7 27.69 76.99 31.97 74.33"/><polygon class="cls-9" points="31.15 72.94 31.5 73.57 27.15 76.11 26.75 75.38 31.15 72.94"/><polygon class="cls-10" points="30.41 71.51 30.73 72.16 26.25 74.47 25.88 73.72 30.41 71.51"/><polygon class="cls-11" points="29.74 70.05 30.03 70.71 25.44 72.78 25.11 72.01 29.74 70.05"/><polygon class="cls-12" points="29.15 68.55 29.41 69.22 24.72 71.05 24.42 70.27 29.15 68.55"/><polygon class="cls-13" points="28.64 67.02 28.86 67.71 24.08 69.29 23.82 68.5 28.64 67.02"/><polygon class="cls-13" points="28.21 65.47 28.39 66.17 23.54 67.5 23.32 66.69 28.21 65.47"/><polygon class="cls-13" points="27.85 63.9 28.01 64.6 23.09 65.69 22.91 64.87 27.85 63.9"/><polygon class="cls-13" points="27.58 62.31 27.7 63.02 22.73 63.85 22.6 63.02 27.58 62.31"/><path class="cls-13" d="M184.06,237.75s0,0.18,0,.36l0,0.36-5,.57,0-.42c0-.21,0-0.42,0-0.42Z" transform="translate(-156.66 -177.04)"/><path class="cls-13" d="M184,236.14s0,0.18,0,.36l0,0.36-5,.32,0-.42c0-.21,0-0.42,0-0.42Z" transform="translate(-156.66 -177.04)"/><path class="cls-13" d="M183.94,234.52s0,0.18,0,.36,0,0.36,0,.36l-5,.06s0-.21,0-0.42,0-.42,0-0.42Z" transform="translate(-156.66 -177.04)"/><path class="cls-13" d="M184,232.91l0,0.36c0,0.18,0,.36,0,0.36l-5-.2s0-.21,0-0.42l0-.42Z" transform="translate(-156.66 -177.04)"/><path class="cls-13" d="M184.14,231.31l0,0.36c0,0.18,0,.36,0,0.36l-5-.46s0-.21,0-0.42l0-.42Z" transform="translate(-156.66 -177.04)"/><polygon class="cls-13" points="27.7 52.67 27.58 53.38 22.6 52.67 22.73 51.84 27.7 52.67"/><polygon class="cls-13" points="28.01 51.09 27.85 51.79 22.91 50.83 23.09 50.01 28.01 51.09"/><polygon class="cls-13" points="28.39 49.53 28.21 50.22 23.32 49 23.54 48.19 28.39 49.53"/><polygon class="cls-13" points="28.86 47.98 28.64 48.67 23.82 47.2 24.08 46.4 28.86 47.98"/><polygon class="cls-12" points="29.41 46.47 29.15 47.14 24.42 45.42 24.72 44.64 29.41 46.47"/><polygon class="cls-11" points="30.03 44.98 29.74 45.65 25.11 43.68 25.44 42.91 30.03 44.98"/><polygon class="cls-10" points="30.73 43.53 30.41 44.18 25.88 41.98 26.25 41.23 30.73 43.53"/><polygon class="cls-9" points="31.5 42.12 31.15 42.75 26.75 40.31 27.15 39.58 31.5 42.12"/><polygon class="cls-8" points="32.35 40.75 31.97 41.36 27.69 38.7 28.14 37.99 32.35 40.75"/><polygon class="cls-7" points="33.27 39.42 32.85 40.02 28.73 37.14 29.2 36.45 33.27 39.42"/><polygon class="cls-6" points="34.25 38.15 33.81 38.72 29.83 35.63 30.35 34.97 34.25 38.15"/><polygon class="cls-5" points="35.3 36.92 34.83 37.47 31.02 34.18 31.57 33.55 35.3 36.92"/><polygon class="cls-4" points="36.41 35.75 35.92 36.28 32.28 32.8 32.85 32.19 36.41 35.75"/></svg>