<svg preserveAspectRatio="none" xmlns="http://www.w3.org/2000/svg" viewBox="0 0 379.21 375.36"><defs><style>.cls-3,.cls-5{fill:#0ff}.cls-3,.cls-4{mix-blend-mode:overlay}</style></defs><g style="isolation:isolate"><g id="arc"><circle cx="188.91" cy="189.77" r="114.3" opacity=".2" fill="#0ff"/><path class="cls-3" d="M420.91 386.55a.7.7 0 01.69-.71.7.7 0 01.71.69.71.71 0 01-.69.71.7.7 0 01-.71-.69zm-4.23.63a.71.71 0 01-.68-.73.71.71 0 01.73-.68.71.71 0 01.68.73.71.71 0 01-.7.68zm9.14-.8a.7.7 0 01.65-.75.7.7 0 01.75.65.7.7 0 01-.65.75.7.7 0 01-.76-.64zm-14.07.46a.7.7 0 01-.63-.77.7.7 0 01.77-.63.7.7 0 01.63.77.7.7 0 01-.7.64h-.07zm19-.89a.7.7 0 01.61-.78.7.7 0 01.78.61.7.7 0 01-.61.79h-.09a.7.7 0 01-.74-.57zm-23.86.29a.7.7 0 01-.59-.8.7.7 0 01.8-.59.7.7 0 01.59.8.7.7 0 01-.69.6h-.11zm28.72-1a.71.71 0 01.57-.82.7.7 0 01.82.57.7.7 0 01-.57.82h-.13a.71.71 0 01-.75-.56zm-33.59.11a.71.71 0 01-.55-.83.71.71 0 01.83-.55.71.71 0 01.55.83.71.71 0 01-.69.56H402zm38.39-1.09a.71.71 0 01.52-.85.7.7 0 01.85.52.7.7 0 01-.52.85h-.17a.71.71 0 01-.73-.51zm-43.2-.06a.7.7 0 01-.5-.86.71.71 0 01.86-.5.71.71 0 01.5.86.7.7 0 01-.68.52zm48-1.18a.7.7 0 01.47-.88.7.7 0 01.88.47.7.7 0 01-.47.88.69.69 0 01-.2 0 .7.7 0 01-.78-.49zm-52.69-.24a.7.7 0 01-.45-.89.71.71 0 01.89-.45.7.7 0 01.45.89.7.7 0 01-.67.48.66.66 0 01-.32-.02zm57.36-1.27a.7.7 0 01.42-.9.7.7 0 01.9.42.71.71 0 01-.42.9.7.7 0 01-.24 0 .71.71 0 01-.76-.41zm-62-.42a.7.7 0 01-.4-.91.7.7 0 01.91-.4.71.71 0 01.4.91.71.71 0 01-.65.44.66.66 0 01-.38-.03zm66.59-1.34a.7.7 0 01.37-.92.7.7 0 01.93.37.71.71 0 01-.37.93.68.68 0 01-.27.06.7.7 0 01-.78-.43zm-71.15-.6a.7.7 0 01-.34-.93.7.7 0 01.93-.34.7.7 0 01.34.93.7.7 0 01-.64.41.66.66 0 01-.41-.06zm75.61-1.41a.7.7 0 01.32-.94.7.7 0 01.94.32.7.7 0 01-.32.94.7.7 0 01-.31.07.71.71 0 01-.75-.38zm-80.17-.74a.7.7 0 01-.3-.95.71.71 0 011-.29.7.7 0 01.29.95.7.7 0 01-.62.38.7.7 0 01-.37-.09zm84.4-1.48a.71.71 0 01.27-1 .7.7 0 011 .27.7.7 0 01-.26 1 .68.68 0 01-.35.09.7.7 0 01-.66-.39zm-88.71-1a.7.7 0 01-.24-1 .7.7 0 011-.24.7.7 0 01.24 1 .7.7 0 01-.6.34.7.7 0 01-.4-.09zm92.93-1.52a.7.7 0 01.21-1 .7.7 0 011 .21.7.7 0 01-.21 1 .71.71 0 01-.38.11.7.7 0 01-.62-.32zm-97.1-1.13a.71.71 0 01-.19-1 .71.71 0 011-.19.7.7 0 01.19 1 .71.71 0 01-.58.31.71.71 0 01-.42-.13zm101.17-1.6a.7.7 0 01.15-1 .7.7 0 011 .16.71.71 0 01-.16 1 .7.7 0 01-.41.13.7.7 0 01-.58-.31zM366.27 369a.7.7 0 01-.13-1 .7.7 0 011-.13.7.7 0 01.13 1 .7.7 0 01-.56.27.69.69 0 01-.44-.14zm109.1-1.66a.7.7 0 01.1-1 .71.71 0 011 .1.7.7 0 01-.1 1 .7.7 0 01-.44.15.7.7 0 01-.56-.29zm-112.94-1.46a.71.71 0 01-.07-1 .7.7 0 011-.08.7.7 0 01.07 1 .69.69 0 01-.53.25.71.71 0 01-.47-.21zm116.69-1.71a.71.71 0 010-1 .7.7 0 011 0 .7.7 0 010 1 .72.72 0 01-.47.18.71.71 0 01-.54-.21zm-120.35-1.62a.7.7 0 010-1 .7.7 0 011 0 .7.7 0 010 1 .69.69 0 01-.51.22.7.7 0 01-.5-.25zm123.92-1.75a.71.71 0 010-1 .7.7 0 011 0 .7.7 0 010 1 .69.69 0 01-.5.21.7.7 0 01-.51-.24zm-127.4-1.8a.7.7 0 010-1 .7.7 0 011 0 .7.7 0 010 1 .71.71 0 01-.48.19.7.7 0 01-.52-.19zm130.77-1.79a.7.7 0 01-.06-1 .71.71 0 011-.06.7.7 0 01.06 1 .7.7 0 01-.53.24.71.71 0 01-.47-.18zM352 355.29a.7.7 0 01.09-1 .7.7 0 011 .09.7.7 0 01-.09 1 .71.71 0 01-.45.16.7.7 0 01-.55-.25zm137.22-1.83a.7.7 0 01-.12-1 .7.7 0 011-.12.7.7 0 01.12 1 .7.7 0 01-.55.27.71.71 0 01-.43-.15zm-140.29-2a.7.7 0 01.14-1 .71.71 0 011 .14.7.7 0 01-.14 1 .72.72 0 01-.42.14.71.71 0 01-.56-.32zm143.25-1.87a.7.7 0 01-.17-1 .7.7 0 011-.17.71.71 0 01.17 1 .7.7 0 01-.58.3.69.69 0 01-.4-.17zm-146.1-2.17a.71.71 0 01.2-1 .7.7 0 011 .2.71.71 0 01-.2 1 .71.71 0 01-.39.12.7.7 0 01-.58-.37zm148.84-1.9a.7.7 0 01-.23-1 .7.7 0 011-.23.71.71 0 01.22 1 .71.71 0 01-.6.33.68.68 0 01-.36-.15zm-151.46-2.29a.7.7 0 01.25-1 .7.7 0 011 .25.71.71 0 01-.25 1 .68.68 0 01-.36.1.71.71 0 01-.61-.4zm154-1.92a.71.71 0 01-.28-1 .7.7 0 011-.28.71.71 0 01.28 1 .7.7 0 01-.62.37.74.74 0 01-.38-.14zm-156.34-2.41a.7.7 0 01.3-.95.7.7 0 01.95.3.7.7 0 01-.3.95.69.69 0 01-.32.08.7.7 0 01-.64-.43zm158.62-1.95a.71.71 0 01-.33-.94.7.7 0 01.94-.33.71.71 0 01.33.94.71.71 0 01-.64.4.71.71 0 01-.31-.12zM339 334.39a.7.7 0 01.36-.93.7.7 0 01.93.36.7.7 0 01-.36.93.69.69 0 01-.29.06.7.7 0 01-.64-.42zm162.78-2a.7.7 0 01-.38-.92.7.7 0 01.92-.38.7.7 0 01.38.92.71.71 0 01-.65.44.71.71 0 01-.29-.03zm-164.68-2.56a.7.7 0 01.41-.91.7.7 0 01.9.41.7.7 0 01-.41.91.67.67 0 01-.25 0 .71.71 0 01-.65-.41zm166.44-2a.7.7 0 01-.44-.9.7.7 0 01.9-.44.7.7 0 01.43.89.71.71 0 01-.66.47.73.73 0 01-.23-.01zm-168.06-2.68a.7.7 0 01.46-.88.7.7 0 01.88.46.7.7 0 01-.46.88.76.76 0 01-.21 0 .71.71 0 01-.67-.45zm169.57-2a.7.7 0 01-.49-.87.71.71 0 01.87-.49.71.71 0 01.49.87.71.71 0 01-.68.51zm-170.93-2.75a.7.7 0 01.51-.85.7.7 0 01.86.51.7.7 0 01-.51.85h-.17a.7.7 0 01-.69-.51zm172.18-2a.7.7 0 01-.53-.84.7.7 0 01.84-.53.7.7 0 01.53.84.71.71 0 01-.69.55zM333 315.58a.7.7 0 01.55-.83.7.7 0 01.83.55.7.7 0 01-.55.83h-.14a.7.7 0 01-.69-.55zm174.26-2a.71.71 0 01-.58-.81.7.7 0 01.81-.58.7.7 0 01.58.81.7.7 0 01-.69.59h-.12zM332.2 310.7a.7.7 0 01.6-.8.7.7 0 01.79.6.71.71 0 01-.6.79h-.1a.7.7 0 01-.69-.59zm175.8-1.94a.7.7 0 01-.62-.78.7.7 0 01.78-.62.7.7 0 01.62.78.7.7 0 01-.7.63H508zm-176.34-3a.71.71 0 01.64-.76.71.71 0 01.76.64.71.71 0 01-.64.76h-.06a.71.71 0 01-.71-.61zm176.78-1.91a.71.71 0 01-.67-.74.71.71 0 01.74-.66.7.7 0 01.66.74.71.71 0 01-.7.66zm-177.06-3a.7.7 0 01.68-.72.71.71 0 01.72.68.7.7 0 01-.69.72.7.7 0 01-.71-.68zm176.53-2.58a1 1 0 010-.1 1 1 0 010-.1.71.71 0 01.7-.71.7.7 0 01.7.7v.1a.89.89 0 010 .1.71.71 0 01-.7.7.71.71 0 01-.7-.69zm-175.85-1.65a.7.7 0 01-.69-.72.7.7 0 01.72-.69.7.7 0 01.69.72.7.7 0 01-.7.68zm175.7-3.42a.7.7 0 01.66-.74.71.71 0 01.75.66.71.71 0 01-.66.74.71.71 0 01-.75-.66zm-175.48-1.48a.71.71 0 01-.65-.76.7.7 0 01.76-.64.71.71 0 01.64.76.7.7 0 01-.7.65h-.06zm175.07-3.37a.7.7 0 01.62-.78.7.7 0 01.78.62.7.7 0 01-.62.78H508a.71.71 0 01-.65-.61zm-174.57-1.52a.7.7 0 01-.6-.79.7.7 0 01.79-.6.7.7 0 01.6.79.7.7 0 01-.7.61h-.09zm173.89-3.3a.71.71 0 01.58-.81.71.71 0 01.81.58.71.71 0 01-.58.81h-.12a.7.7 0 01-.69-.57zM333.54 282a.71.71 0 01-.56-.83.71.71 0 01.83-.56.7.7 0 01.56.82.71.71 0 01-.69.57h-.13zm172.18-3.23a.71.71 0 01.53-.84.7.7 0 01.84.53.7.7 0 01-.53.84h-.16a.71.71 0 01-.68-.54zm-171.15-1.57a.7.7 0 01-.51-.85.7.7 0 01.85-.51.7.7 0 01.51.85.7.7 0 01-.68.53zm169.94-3.2a.7.7 0 01.48-.87.7.7 0 01.87.48.7.7 0 01-.48.87.61.61 0 01-.19 0 .7.7 0 01-.68-.48zm-168.64-1.58a.7.7 0 01-.46-.88.71.71 0 01.88-.46.7.7 0 01.46.88.71.71 0 01-.67.49.75.75 0 01-.21.02zM503 269.41a.7.7 0 01.43-.9.7.7 0 01.89.43.7.7 0 01-.43.9.75.75 0 01-.23 0 .71.71 0 01-.66-.43zm-165.6-1.6a.7.7 0 01-.41-.91.7.7 0 01.91-.41.7.7 0 01.41.9.7.7 0 01-.66.46.68.68 0 01-.21-.04zm163.87-2.94a.7.7 0 01.38-.92.7.7 0 01.92.38.7.7 0 01-.38.92.66.66 0 01-.27.06.7.7 0 01-.61-.45zm-162-1.62a.7.7 0 01-.36-.93.7.7 0 01.93-.36.7.7 0 01.36.93.71.71 0 01-.64.42.72.72 0 01-.29-.07zm160.06-2.82a.7.7 0 01.33-.94.7.7 0 01.94.33.71.71 0 01-.33.94.68.68 0 01-.31.07.7.7 0 01-.63-.41zm-158-1.64a.7.7 0 01-.31-.95.7.7 0 01.95-.31.71.71 0 01.31.95.7.7 0 01-.63.38.69.69 0 01-.31-.07zm155.76-2.68a.7.7 0 01.27-1 .7.7 0 011 .28.71.71 0 01-.28 1 .73.73 0 01-.34.08.7.7 0 01-.63-.37zm-153.44-1.64a.71.71 0 01-.25-1 .71.71 0 011-.25.71.71 0 01.25 1 .7.7 0 01-.61.35.72.72 0 01-.38-.11zm151-2.55a.71.71 0 01.23-1 .71.71 0 011 .23.7.7 0 01-.23 1 .68.68 0 01-.37.11.7.7 0 01-.64-.35zm-148.42-1.64a.7.7 0 01-.2-1 .7.7 0 011-.2.7.7 0 01.2 1 .69.69 0 01-.59.32.71.71 0 01-.42-.13zm145.73-2.41a.7.7 0 01.17-1 .7.7 0 011 .17.7.7 0 01-.17 1 .71.71 0 01-.4.13.7.7 0 01-.61-.31zM349 246.22a.7.7 0 01-.15-1 .7.7 0 011-.14.7.7 0 01.14 1 .7.7 0 01-.56.28.7.7 0 01-.43-.14zM489 244a.71.71 0 01.12-1 .7.7 0 011 .11.7.7 0 01-.12 1 .69.69 0 01-.44.15.71.71 0 01-.56-.26zm-137-1.62a.7.7 0 01-.09-1 .7.7 0 011-.09.71.71 0 01.09 1 .71.71 0 01-.54.25.69.69 0 01-.46-.2zm133.9-2.11a.7.7 0 01.06-1 .7.7 0 011 .06.71.71 0 01-.06 1 .71.71 0 01-.47.18.7.7 0 01-.52-.28zm-130.68-1.6a.71.71 0 010-1 .71.71 0 011 0 .71.71 0 010 1 .71.71 0 01-.52.22.71.71 0 01-.47-.26zm127.35-2a.7.7 0 010-1 .7.7 0 011 0 .7.7 0 010 1 .69.69 0 01-.49.2.72.72 0 01-.5-.19zm-123.94-1.57a.71.71 0 010-1 .7.7 0 011 0 .7.7 0 010 1 .71.71 0 01-.49.2.7.7 0 01-.49-.19zm120.42-1.8a.7.7 0 010-1 .71.71 0 011 0 .7.7 0 010 1 .7.7 0 01-.52.23.7.7 0 01-.46-.22zm-116.82-1.53a.7.7 0 01.07-1 .7.7 0 011 .07.7.7 0 01-.07 1 .71.71 0 01-.46.17.71.71 0 01-.52-.23zm113.12-1.64a.7.7 0 01-.11-1 .7.7 0 011-.11.71.71 0 01.11 1 .71.71 0 01-.55.26.69.69 0 01-.43-.14zM366 228.65a.7.7 0 01.13-1 .7.7 0 011 .13.71.71 0 01-.13 1 .69.69 0 01-.43.14.7.7 0 01-.57-.27zm105.46-1.46a.7.7 0 01-.16-1 .7.7 0 011-.16.71.71 0 01.16 1 .71.71 0 01-.57.29.73.73 0 01-.4-.13zM370 225.74a.71.71 0 01.18-1 .71.71 0 011 .18.71.71 0 01-.18 1 .7.7 0 01-.4.12.7.7 0 01-.6-.3zm97.49-1.29a.7.7 0 01-.21-1 .7.7 0 011-.21.7.7 0 01.21 1 .7.7 0 01-.59.32.68.68 0 01-.43-.11zm-93.39-1.39a.7.7 0 01.24-1 .7.7 0 011 .24.71.71 0 01-.24 1 .71.71 0 01-.36.1.7.7 0 01-.66-.35zm89.21-1.12a.7.7 0 01-.27-1 .71.71 0 011-.27.7.7 0 01.27 1 .7.7 0 01-.62.36.68.68 0 01-.4-.09zm-85-1.34a.7.7 0 01.29-.95.7.7 0 011 .29.7.7 0 01-.29.95.7.7 0 01-.33.08.7.7 0 01-.66-.37zm80.66-.94a.7.7 0 01-.32-.94.7.7 0 01.94-.32.71.71 0 01.32.94.71.71 0 01-.63.39.69.69 0 01-.28-.07zm-76.29-1.28a.7.7 0 01.34-.93.7.7 0 01.93.34.71.71 0 01-.34.94.74.74 0 01-.3.06.7.7 0 01-.62-.4zm71.86-.76a.71.71 0 01-.37-.92.7.7 0 01.92-.37.7.7 0 01.38.92.71.71 0 01-.65.43.7.7 0 01-.27-.05zm-67.37-1.21a.7.7 0 01.4-.91.7.7 0 01.91.4.7.7 0 01-.39.91.68.68 0 01-.26.05.7.7 0 01-.65-.44zm62.83-.57a.71.71 0 01-.43-.9.7.7 0 01.9-.42.71.71 0 01.43.9.71.71 0 01-.66.46.69.69 0 01-.24-.03zm-58.24-1.14a.7.7 0 01.45-.89.7.7 0 01.89.44.71.71 0 01-.45.89.69.69 0 01-.22 0 .71.71 0 01-.65-.43zm53.61-.38a.7.7 0 01-.47-.88.7.7 0 01.87-.47.7.7 0 01.48.87.7.7 0 01-.68.5zm-48.92-1.08a.7.7 0 01.5-.87.7.7 0 01.86.5.7.7 0 01-.49.86h-.19a.7.7 0 01-.67-.48zm44.22-.18a.71.71 0 01-.52-.85.7.7 0 01.85-.52.7.7 0 01.52.85.7.7 0 01-.69.54zm-39.46-1a.7.7 0 01.54-.83.71.71 0 01.84.54.71.71 0 01-.55.83h-.14a.71.71 0 01-.68-.54zm34.7 0a.7.7 0 01-.57-.82.7.7 0 01.82-.57.7.7 0 01.57.82.71.71 0 01-.69.58h-.13zm-29.91-.92a.7.7 0 01.59-.8.71.71 0 01.81.59.71.71 0 01-.59.8h-.11a.7.7 0 01-.7-.59zm25.07.21a.71.71 0 01-.61-.78.7.7 0 01.78-.61.7.7 0 01.61.78.7.7 0 01-.7.62h-.09zm-20.2-.87a.7.7 0 01.63-.77.7.7 0 01.77.63.71.71 0 01-.63.77h-.04a.71.71 0 01-.7-.63zm15.36.41a.7.7 0 01-.65-.75.7.7 0 01.75-.65.7.7 0 01.65.75.7.7 0 01-.7.66zm-10.47-.79a.7.7 0 01.67-.74.71.71 0 01.74.68.71.71 0 01-.68.73.7.7 0 01-.69-.67zm5.6.6a.7.7 0 01-.69-.71.7.7 0 01.71-.69.7.7 0 01.7.71.71.71 0 01-.7.7zM420.93 459.2a.7.7 0 01.7-.71.71.71 0 01.71.7.71.71 0 01-.7.71.7.7 0 01-.71-.7zm-4.25.66a.7.7 0 01-.69-.72.7.7 0 01.72-.69.7.7 0 01.69.72.71.71 0 01-.7.69zm9.17-.75a.71.71 0 01.68-.73.71.71 0 01.73.68.7.7 0 01-.68.73.7.7 0 01-.72-.68zm-14.12.57a.71.71 0 01-.67-.74.7.7 0 01.74-.67.7.7 0 01.66.74.7.7 0 01-.7.66zm19-.81a.71.71 0 01.65-.75.7.7 0 01.75.65.7.7 0 01-.65.75.71.71 0 01-.7-.66zm-24 .48a.7.7 0 01-.64-.76.7.7 0 01.76-.64.7.7 0 01.64.76.7.7 0 01-.7.65h.01zm28.9-.87a.7.7 0 01.63-.77.7.7 0 01.77.63.7.7 0 01-.63.77.71.71 0 01-.7-.64zm-33.83.39a.7.7 0 01-.62-.78.7.7 0 01.78-.62.7.7 0 01.62.78.7.7 0 01-.7.63h-.08zm38.73-.93a.7.7 0 01.6-.79.7.7 0 01.79.61.7.7 0 01-.61.79h-.01a.7.7 0 01-.7-.62zm-43.64.29a.71.71 0 01-.6-.8.71.71 0 01.8-.59.71.71 0 01.59.8.7.7 0 01-.69.6h.01zm48.53-1a.7.7 0 01.58-.81.7.7 0 01.81.58.7.7 0 01-.58.81h-.11a.7.7 0 01-.64-.56zm-53.42.19a.71.71 0 01-.57-.82.7.7 0 01.82-.57.7.7 0 01.57.82.7.7 0 01-.69.58h-.12zm58.27-1a.7.7 0 01.56-.82.7.7 0 01.82.56.7.7 0 01-.56.83H451a.7.7 0 01-.66-.59zm-63.14.1a.7.7 0 01-.55-.83.71.71 0 01.83-.55.71.71 0 01.55.83.71.71 0 01-.69.56h-.07zm68-1.09a.7.7 0 01.53-.84.7.7 0 01.84.53.7.7 0 01-.53.84h-.15a.7.7 0 01-.65-.54zm-72.8 0a.7.7 0 01-.52-.85.7.7 0 01.85-.52.7.7 0 01.52.85.7.7 0 01-.68.54zm77.6-1.14a.71.71 0 01.51-.86.7.7 0 01.85.51.7.7 0 01-.51.86h-.18a.71.71 0 01-.6-.52zm-82.4-.1a.7.7 0 01-.5-.87.71.71 0 01.87-.49.7.7 0 01.49.87.7.7 0 01-.68.52zm87.2-1.19a.71.71 0 01.48-.87.71.71 0 01.87.48.71.71 0 01-.48.87h-.2a.71.71 0 01-.67-.48zm-91.92-.19a.7.7 0 01-.46-.88.7.7 0 01.88-.47.7.7 0 01.46.88.7.7 0 01-.67.5.72.72 0 01-.21-.03zm96.64-1.24a.7.7 0 01.45-.89.7.7 0 01.89.45.7.7 0 01-.45.88.69.69 0 01-.22 0 .7.7 0 01-.67-.45zm-101.36-.29a.7.7 0 01-.44-.89.7.7 0 01.89-.44.7.7 0 01.44.89.7.7 0 01-.66.48.73.73 0 01-.23-.05zm106-1.28a.7.7 0 01.43-.9.71.71 0 01.9.43.71.71 0 01-.43.9.69.69 0 01-.24 0 .7.7 0 01-.63-.43zm-110.71-.39a.7.7 0 01-.41-.9.7.7 0 01.91-.41.7.7 0 01.41.9.7.7 0 01-.66.46.68.68 0 01-.22-.07zm115.33-1.33a.7.7 0 01.39-.91.7.7 0 01.91.39.7.7 0 01-.4.91.74.74 0 01-.26 0 .7.7 0 01-.6-.4zm-120-.49a.7.7 0 01-.38-.92.7.7 0 01.92-.38.7.7 0 01.38.92.71.71 0 01-.65.44.71.71 0 01-.19-.07zm124.51-1.36a.7.7 0 01.37-.93.7.7 0 01.93.37.7.7 0 01-.37.92.69.69 0 01-.28.06.7.7 0 01-.57-.44zm-129.07-.6a.71.71 0 01-.36-.93.7.7 0 01.93-.35.7.7 0 01.35.93.7.7 0 01-.64.41.69.69 0 01-.2-.08zm133.56-1.39a.71.71 0 01.34-.94.7.7 0 01.94.34.71.71 0 01-.34.94.69.69 0 01-.3.07.71.71 0 01-.56-.43zm-138.06-.71a.7.7 0 01-.33-.94.7.7 0 01.94-.32.7.7 0 01.33.94.7.7 0 01-.63.39.67.67 0 01-.23-.09zm142.49-1.42a.71.71 0 01.31-.95.7.7 0 01.95.31.71.71 0 01-.31.95.73.73 0 01-.32.07.71.71 0 01-.55-.4zm-146.92-.82a.7.7 0 01-.3-.95.7.7 0 01.95-.3.71.71 0 01.3.95.71.71 0 01-.63.38.71.71 0 01-.24-.1zM496.59 440a.7.7 0 01.28-1 .7.7 0 011 .28.7.7 0 01-.28 1 .71.71 0 01-.33.08.71.71 0 01-.67-.36zm-155.64-.92a.71.71 0 01-.27-1 .7.7 0 011-.26.7.7 0 01.27 1 .71.71 0 01-.62.36.69.69 0 01-.38-.08zm159.94-1.48a.7.7 0 01.25-1 .71.71 0 011 .25.71.71 0 01-.25 1 .73.73 0 01-.36.1.7.7 0 01-.65-.33zm-164.22-1a.7.7 0 01-.24-1 .7.7 0 011-.24.7.7 0 01.24 1 .71.71 0 01-.6.34.73.73 0 01-.41-.11zm168.44-1.51a.71.71 0 01.22-1 .71.71 0 011 .23.7.7 0 01-.22 1 .69.69 0 01-.37.11.7.7 0 01-.63-.35zM332.46 434a.7.7 0 01-.21-1 .7.7 0 011-.21.71.71 0 01.21 1 .71.71 0 01-.59.32.73.73 0 01-.41-.11zm176.79-1.53a.7.7 0 01.19-1 .7.7 0 011 .19.7.7 0 01-.19 1 .69.69 0 01-.39.12.7.7 0 01-.61-.36zm-180.9-1.23a.7.7 0 01-.18-1 .7.7 0 011-.18.7.7 0 01.18 1 .7.7 0 01-.58.3.69.69 0 01-.42-.17zm185-1.55a.71.71 0 01.16-1 .7.7 0 011 .17.7.7 0 01-.16 1 .7.7 0 01-.41.13.71.71 0 01-.63-.35zm-189-1.33a.7.7 0 01-.15-1 .71.71 0 011-.15.71.71 0 01.15 1 .71.71 0 01-.57.28.71.71 0 01-.46-.18zm193-1.58a.7.7 0 01.13-1 .7.7 0 011 .13.71.71 0 01-.13 1 .69.69 0 01-.43.14.7.7 0 01-.64-.33zm-196.97-1.48a.7.7 0 01-.12-1 .7.7 0 011-.12.71.71 0 01.12 1 .7.7 0 01-.55.27.7.7 0 01-.45-.15zm200.79-1.6a.7.7 0 01.1-1 .71.71 0 011 .1.71.71 0 01-.1 1 .7.7 0 01-.44.15.71.71 0 01-.56-.26zm-204.64-1.52a.7.7 0 01-.09-1 .7.7 0 011-.09.71.71 0 01.09 1 .71.71 0 01-.54.25.69.69 0 01-.46-.17zM525 420.55a.71.71 0 01.07-1 .7.7 0 011 .07.7.7 0 01-.07 1 .7.7 0 01-.46.17.7.7 0 01-.54-.24zm-212.18-1.61a.7.7 0 01-.06-1 .7.7 0 011-.06.7.7 0 01.06 1 .7.7 0 01-.52.24.7.7 0 01-.52-.19zm215.87-1.65a.7.7 0 010-1 .71.71 0 011 0 .71.71 0 010 1 .71.71 0 01-.48.19.7.7 0 01-.56-.2zm-219.52-1.7a.7.7 0 010-1 .7.7 0 011 0 .7.7 0 010 1 .69.69 0 01-.51.22.7.7 0 01-.52-.23zm223.11-1.67a.7.7 0 010-1 .7.7 0 011 0 .7.7 0 010 1 .7.7 0 01-.49.2.7.7 0 01-.54-.21zm-226.68-1.8a.71.71 0 010-1 .7.7 0 011 0 .7.7 0 010 1 .71.71 0 01-.5.2.7.7 0 01-.5-.2zm230.14-1.69a.7.7 0 010-1 .7.7 0 011 0 .7.7 0 010 1 .71.71 0 01-.51.22.72.72 0 01-.49-.22zm-233.58-1.88a.71.71 0 010-1 .71.71 0 011 0 .7.7 0 010 1 .71.71 0 01-.48.19.71.71 0 01-.52-.19zm237-1.71a.71.71 0 010-1 .7.7 0 011 0 .71.71 0 010 1 .71.71 0 01-.52.23.72.72 0 01-.52-.23zm-240.28-2a.71.71 0 01.06-1 .7.7 0 011 .07.7.7 0 01-.06 1 .71.71 0 01-.46.18.71.71 0 01-.58-.21zm243.56-1.74a.71.71 0 01-.08-1 .7.7 0 011-.08.71.71 0 01.08 1 .71.71 0 01-.53.25.69.69 0 01-.51-.13zm-246.77-2a.7.7 0 01.1-1 .7.7 0 011 .09.7.7 0 01-.09 1 .69.69 0 01-.45.16.71.71 0 01-.6-.24zm249.93-1.76a.7.7 0 01-.11-1 .7.7 0 011-.11.7.7 0 01.11 1 .7.7 0 01-.55.26.69.69 0 01-.5-.14zm-253-2.11a.71.71 0 01.13-1 .7.7 0 011 .13.7.7 0 01-.13 1 .68.68 0 01-.43.15.71.71 0 01-.63-.26zm256.06-1.78a.71.71 0 01-.14-1 .71.71 0 011-.14.71.71 0 01.14 1 .69.69 0 01-.56.28.7.7 0 01-.5-.12zm-259-2.18a.7.7 0 01.15-1 .7.7 0 011 .15.7.7 0 01-.15 1 .71.71 0 01-.41.14.7.7 0 01-.68-.27zm262-1.8a.7.7 0 01-.17-1 .7.7 0 011-.17.7.7 0 01.17 1 .7.7 0 01-.58.3.69.69 0 01-.56-.11zm-264.81-2.24a.71.71 0 01.19-1 .7.7 0 011 .19.71.71 0 01-.19 1 .71.71 0 01-.39.12.71.71 0 01-.75-.29zm267.61-1.82a.7.7 0 01-.2-1 .7.7 0 011-.2.7.7 0 01.2 1 .7.7 0 01-.59.32.71.71 0 01-.55-.1zM284 385.12a.7.7 0 01.21-1 .7.7 0 011 .21.7.7 0 01-.21 1 .7.7 0 01-.38.11.7.7 0 01-.62-.32zm273-1.84a.7.7 0 01-.23-1 .7.7 0 011-.23.7.7 0 01.23 1 .7.7 0 01-.6.33.71.71 0 01-.4-.1zm-275.6-2.36a.7.7 0 01.24-1 .7.7 0 011 .24.7.7 0 01-.24 1 .7.7 0 01-.36.1.7.7 0 01-.65-.35zM559.54 379a.7.7 0 01-.26-1 .7.7 0 011-.26.7.7 0 01.26 1 .7.7 0 01-.61.35.71.71 0 01-.39-.09zm-280.62-2.42a.7.7 0 01.27-1 .7.7 0 011 .27.71.71 0 01-.27 1 .7.7 0 01-.34.09.71.71 0 01-.65-.31zm283-1.89a.71.71 0 01-.29-1 .7.7 0 011-.28.7.7 0 01.29.95.7.7 0 01-.62.37.71.71 0 01-.3.01zm-285.32-2.42a.7.7 0 01.3-.95.7.7 0 01.95.3.71.71 0 01-.3.95.7.7 0 01-.32.08.7.7 0 01-.63-.38zm287.65-1.91a.7.7 0 01-.32-.94.71.71 0 01.94-.32.71.71 0 01.32.95.71.71 0 01-.63.39.69.69 0 01-.31-.08zm-289.85-2.51a.71.71 0 01.33-.94.7.7 0 01.94.33.7.7 0 01-.33.94.72.72 0 01-.3.07.71.71 0 01-.64-.4zm292-1.94a.7.7 0 01-.4-.91.7.7 0 01.93-.35.71.71 0 01.35.93.71.71 0 01-.64.41.73.73 0 01-.25-.08zm-294.06-2.55a.7.7 0 01.36-.93.71.71 0 01.93.36.7.7 0 01-.36.93.66.66 0 01-.28.06.7.7 0 01-.65-.42zm296.07-2a.7.7 0 01-.38-.92.7.7 0 01.92-.38.7.7 0 01.38.92.71.71 0 01-.65.43.67.67 0 01-.27-.02zm-298-2.58a.7.7 0 01.39-.92.71.71 0 01.92.39.71.71 0 01-.39.91.71.71 0 01-.26.05.7.7 0 01-.65-.4zm299.86-2a.7.7 0 01-.4-.91.7.7 0 01.91-.4.71.71 0 01.4.91.71.71 0 01-.66.45.72.72 0 01-.25-.01zm-301.64-2.63a.7.7 0 01.42-.9.7.7 0 01.9.41.7.7 0 01-.42.9.73.73 0 01-.24 0 .7.7 0 01-.66-.37zm303.37-2a.7.7 0 01-.43-.9.7.7 0 01.9-.43.71.71 0 01.43.9.71.71 0 01-.67.47.68.68 0 01-.23-.01zm-305-2.66a.7.7 0 01.44-.89.7.7 0 01.89.44.7.7 0 01-.44.89.73.73 0 01-.23 0 .7.7 0 01-.66-.41zm306.6-2a.7.7 0 01-.46-.88.7.7 0 01.88-.46.7.7 0 01.46.88.7.7 0 01-.67.49.76.76 0 01-.22-.03zm-308.1-2.7a.7.7 0 01.47-.88.7.7 0 01.88.47.7.7 0 01-.47.88.67.67 0 01-.2 0 .71.71 0 01-.69-.47zm309.53-2a.71.71 0 01-.49-.87.7.7 0 01.87-.49.7.7 0 01.49.87.7.7 0 01-.68.51zM264.14 340a.7.7 0 01.5-.86.7.7 0 01.86.5.71.71 0 01-.5.86h-.18a.7.7 0 01-.68-.5zm312.17-2a.71.71 0 01-.51-.85.71.71 0 01.85-.51.71.71 0 01.51.85.71.71 0 01-.69.53zm-313.37-2.79a.7.7 0 01.52-.84.7.7 0 01.84.52.7.7 0 01-.52.84h-.16a.7.7 0 01-.68-.5zm314.51-2a.71.71 0 01-.54-.84.7.7 0 01.84-.54.7.7 0 01.54.84.7.7 0 01-.69.55h-.15zm-315.56-2.83a.7.7 0 01.55-.83.7.7 0 01.83.55.71.71 0 01-.55.83h-.14a.71.71 0 01-.69-.54zm316.56-2a.7.7 0 01-.56-.82.7.7 0 01.82-.57.71.71 0 01.56.82.7.7 0 01-.69.58h-.13zM261 325.52a.71.71 0 01.58-.81.7.7 0 01.81.58.7.7 0 01-.57.81h-.12a.71.71 0 01-.7-.58zm318.3-2a.7.7 0 01-.59-.8.7.7 0 01.8-.59.71.71 0 01.59.8.71.71 0 01-.7.6h-.11zm-319.06-2.91a.7.7 0 01.6-.79.7.7 0 01.79.6.7.7 0 01-.6.79h-.09a.7.7 0 01-.71-.59zm319.75-2a.71.71 0 01-.62-.78.7.7 0 01.78-.61.7.7 0 01.61.78.7.7 0 01-.7.62H580zm-320.36-2.94a.7.7 0 01.63-.77.7.7 0 01.77.62.71.71 0 01-.62.77h-.08a.7.7 0 01-.71-.58zm320.9-2a.7.7 0 01-.64-.76.7.7 0 01.76-.64.7.7 0 01.64.77.7.7 0 01-.7.64h-.06zm-321.35-3a.7.7 0 01.65-.75.7.7 0 01.75.65.7.7 0 01-.65.75h-.05a.7.7 0 01-.71-.55zm321.74-1.95a.7.7 0 01-.66-.74.7.7 0 01.75-.66.7.7 0 01.66.75.7.7 0 01-.7.66zm-322-3a.7.7 0 01.67-.74.7.7 0 01.74.67.7.7 0 01-.67.74.71.71 0 01-.79-.56zm322.29-1.93a.7.7 0 01-.68-.72.71.71 0 01.72-.68.7.7 0 01.68.72.7.7 0 01-.7.68zm-322.44-3a.7.7 0 01.69-.71.7.7 0 01.71.69.7.7 0 01-.69.71.71.71 0 01-.76-.6zm321.84-2.61a.89.89 0 010-.14.92.92 0 010-.14.71.71 0 01.7-.7.7.7 0 01.7.7.61.61 0 010 .14.61.61 0 010 .14.7.7 0 01-.7.7.7.7 0 01-.76-.61zM582 298zm-322.55-1.35a.71.71 0 01-.69-.71.7.7 0 01.71-.69.7.7 0 01.69.71.71.71 0 01-.7.69zm321.06-3.56a.7.7 0 01.68-.73.71.71 0 01.73.68.7.7 0 01-.68.72.7.7 0 01-.77-.67zm-320.94-1.37a.71.71 0 01-.67-.74.7.7 0 01.74-.67.71.71 0 01.67.74.71.71 0 01-.7.67zm320.71-3.54a.7.7 0 01.66-.75.7.7 0 01.75.66.7.7 0 01-.66.74.7.7 0 01-.79-.65zm-320.48-1.39a.7.7 0 01-.65-.75.7.7 0 01.75-.65.7.7 0 01.65.75.7.7 0 01-.7.65h-.05zm320.06-3.5a.7.7 0 01.63-.77.7.7 0 01.77.64.7.7 0 01-.64.76h-.06a.7.7 0 01-.7-.64zm-319.64-1.41a.7.7 0 01-.63-.77.7.7 0 01.77-.62.7.7 0 01.63.77.7.7 0 01-.7.63h-.07zm319.11-3.47a.7.7 0 01.61-.78.71.71 0 01.78.61.71.71 0 01-.61.78H580a.7.7 0 01-.67-.62zM260.79 277a.7.7 0 01-.6-.79.7.7 0 01.79-.6.7.7 0 01.6.79.71.71 0 01-.7.61h-.1zm317.86-3.44a.7.7 0 01.59-.8.71.71 0 01.81.59.7.7 0 01-.59.8h-.11a.71.71 0 01-.7-.61zm-317.13-1.46a.7.7 0 01-.58-.81.7.7 0 01.81-.58.7.7 0 01.58.81.7.7 0 01-.69.59h-.12zm316.31-3.39a.7.7 0 01.56-.82.71.71 0 01.82.56.71.71 0 01-.56.82h-.13a.7.7 0 01-.69-.57zm-315.44-1.46a.71.71 0 01-.55-.83.71.71 0 01.83-.55.7.7 0 01.55.83.7.7 0 01-.69.56h-.14zm314.47-3.36a.7.7 0 01.54-.84.7.7 0 01.84.53.7.7 0 01-.53.84h-.15a.7.7 0 01-.7-.53zm-313.45-1.47a.7.7 0 01-.53-.84.7.7 0 01.84-.53.7.7 0 01.53.84.7.7 0 01-.69.55zm312.32-3.31a.7.7 0 01.51-.85.7.7 0 01.85.51.71.71 0 01-.51.85h-.17a.71.71 0 01-.68-.51zm-311.16-1.48a.7.7 0 01-.5-.86.7.7 0 01.86-.5.7.7 0 01.5.86.7.7 0 01-.68.52zm309.89-3.26a.7.7 0 01.48-.87.71.71 0 01.87.49.7.7 0 01-.48.87h-.19a.71.71 0 01-.68-.49zm-308.57-1.49a.71.71 0 01-.48-.88.7.7 0 01.88-.47.71.71 0 01.48.88.71.71 0 01-.68.5.66.66 0 01-.2-.03zM573 249.67a.7.7 0 01.46-.88.7.7 0 01.89.46.7.7 0 01-.46.88.73.73 0 01-.21 0 .7.7 0 01-.68-.46zm-305.7-1.5a.7.7 0 01-.44-.89.7.7 0 01.89-.44.7.7 0 01.45.89.7.7 0 01-.67.48.69.69 0 01-.18-.05zM571.49 245a.7.7 0 01.43-.9.7.7 0 01.9.43.7.7 0 01-.43.9.67.67 0 01-.23 0 .7.7 0 01-.67-.43zM269 243.49a.7.7 0 01-.42-.9.7.7 0 01.9-.42.7.7 0 01.42.9.7.7 0 01-.66.46.73.73 0 01-.24-.04zm300.82-3.08a.7.7 0 01.4-.91.7.7 0 01.91.4.7.7 0 01-.4.91.74.74 0 01-.26 0 .7.7 0 01-.68-.4zm-299.07-1.54a.7.7 0 01-.39-.91.71.71 0 01.92-.39.71.71 0 01.39.91.71.71 0 01-.65.44.71.71 0 01-.3-.06zm297.23-3a.7.7 0 01.38-.92.7.7 0 01.92.37.7.7 0 01-.38.92.67.67 0 01-.27.06.71.71 0 01-.68-.43zm-295.37-1.57a.7.7 0 01-.36-.93.7.7 0 01.93-.36.71.71 0 01.36.93.7.7 0 01-.64.42.75.75 0 01-.29-.06zM566 231.39a.7.7 0 01.34-.94.7.7 0 01.93.34.71.71 0 01-.34.94.73.73 0 01-.3.06.7.7 0 01-.63-.4zm-291.32-1.6a.7.7 0 01-.33-.94.7.7 0 01.94-.33.71.71 0 01.33.94.7.7 0 01-.64.4.72.72 0 01-.33-.07zM563.85 227a.7.7 0 01.31-.94.71.71 0 01.95.32.7.7 0 01-.32.94.72.72 0 01-.31.07.71.71 0 01-.63-.39zm-287-1.62a.7.7 0 01-.3-.95.7.7 0 01.95-.3.71.71 0 01.31.95.71.71 0 01-.63.38.72.72 0 01-.36-.1zm284.78-2.73a.7.7 0 01.29-1 .71.71 0 011 .29.7.7 0 01-.28 1 .71.71 0 01-.33.08.71.71 0 01-.7-.4zM279.14 221a.7.7 0 01-.27-1 .7.7 0 011-.27.7.7 0 01.27 1 .7.7 0 01-.62.36.69.69 0 01-.38-.09zm280.09-2.65a.71.71 0 01.26-1 .7.7 0 011 .26.7.7 0 01-.26 1 .7.7 0 01-.35.09.7.7 0 01-.66-.36zm-277.65-1.65a.71.71 0 01-.25-1 .71.71 0 011-.25.7.7 0 01.25 1 .71.71 0 01-.61.34.7.7 0 01-.39-.09zm275.14-2.56a.7.7 0 01.23-1 .7.7 0 011 .23.7.7 0 01-.23 1 .68.68 0 01-.37.11.69.69 0 01-.64-.34zm-272.56-1.65a.71.71 0 01-.22-1 .71.71 0 011-.21.71.71 0 01.21 1 .7.7 0 01-.59.33.7.7 0 01-.41-.13zM554.07 210a.7.7 0 01.2-1 .71.71 0 011 .2.71.71 0 01-.2 1 .71.71 0 01-.39.12.7.7 0 01-.61-.32zm-267.22-1.66a.71.71 0 01-.19-1 .7.7 0 011-.18.7.7 0 01.19 1 .71.71 0 01-.58.31.69.69 0 01-.42-.12zM551.3 206a.71.71 0 01.17-1 .7.7 0 011 .17.7.7 0 01-.17 1 .72.72 0 01-.4.13.7.7 0 01-.6-.3zm-261.63-1.7a.7.7 0 01-.15-1 .7.7 0 011-.15.7.7 0 01.15 1 .7.7 0 01-.57.29.69.69 0 01-.43-.14zm258.74-2.3a.7.7 0 01.14-1 .7.7 0 011 .14.7.7 0 01-.14 1 .7.7 0 01-.42.14.7.7 0 01-.58-.28zm-255.8-1.66a.71.71 0 01-.13-1 .7.7 0 011-.12.7.7 0 01.13 1 .71.71 0 01-.56.27.71.71 0 01-.43-.15zm252.79-2.22a.7.7 0 01.11-1 .7.7 0 011 .11.7.7 0 01-.11 1 .69.69 0 01-.44.15.71.71 0 01-.56-.26zm-249.72-1.65a.71.71 0 01-.1-1 .71.71 0 011-.09.71.71 0 01.1 1 .7.7 0 01-.55.25.72.72 0 01-.45-.16zm246.6-2.13a.7.7 0 01.08-1 .71.71 0 011 .08.71.71 0 01-.08 1 .7.7 0 01-.46.17.69.69 0 01-.54-.25zm-243.42-1.64a.71.71 0 01-.06-1 .7.7 0 011-.06.71.71 0 01.07 1 .71.71 0 01-.53.24.7.7 0 01-.48-.18zm240.18-2a.71.71 0 010-1 .7.7 0 011 0 .71.71 0 010 1 .72.72 0 01-.47.18.71.71 0 01-.57-.22zM302.16 189a.7.7 0 010-1 .71.71 0 011 0 .71.71 0 010 1 .71.71 0 01-.51.23.69.69 0 01-.49-.23zm233.53-2a.71.71 0 010-1 .7.7 0 011 0 .7.7 0 010 1 .71.71 0 01-.49.2.7.7 0 01-.52-.13zm-230.12-1.61a.7.7 0 010-1 .71.71 0 011 0 .71.71 0 010 1 .69.69 0 01-.5.21.7.7 0 01-.51-.14zm226.66-1.87a.7.7 0 010-1 .71.71 0 011 0 .7.7 0 010 1 .7.7 0 01-.5.21.7.7 0 01-.51-.14zM309.07 182a.71.71 0 010-1 .7.7 0 011 0 .7.7 0 010 1 .69.69 0 01-.48.19.7.7 0 01-.52-.19zm219.59-1.78a.7.7 0 010-1 .7.7 0 011 0 .71.71 0 010 1 .71.71 0 01-.52.23.7.7 0 01-.48-.23zm-216-1.57a.7.7 0 01.06-1 .71.71 0 011 .06.71.71 0 01-.06 1 .7.7 0 01-.47.18.7.7 0 01-.51-.25zm212.34-1.7a.7.7 0 01-.07-1 .7.7 0 011-.07.71.71 0 01.07 1 .71.71 0 01-.53.24.69.69 0 01-.47-.17zm-208.61-1.55a.7.7 0 01.09-1 .7.7 0 011 .09.71.71 0 01-.08 1 .71.71 0 01-.45.16.7.7 0 01-.56-.25zm204.83-1.6a.7.7 0 01-.1-1 .7.7 0 011-.11.7.7 0 01.11 1 .71.71 0 01-.55.26.7.7 0 01-.46-.15zm-201-1.52a.7.7 0 01.12-1 .71.71 0 011 .12.71.71 0 01-.12 1 .71.71 0 01-.44.15.7.7 0 01-.58-.28zm197.16-1.52a.7.7 0 01-.13-1 .7.7 0 011-.13.71.71 0 01.13 1 .7.7 0 01-.56.27.68.68 0 01-.46-.14zm-193.28-1.49a.71.71 0 01.15-1 .71.71 0 011 .15.7.7 0 01-.15 1 .7.7 0 01-.42.14.71.71 0 01-.58-.29zm189.31-1.42a.7.7 0 01-.17-1 .7.7 0 011-.17.71.71 0 01.17 1 .7.7 0 01-.57.3.7.7 0 01-.43-.14zm-185.31-1.46a.7.7 0 01.18-1 .7.7 0 011 .18.7.7 0 01-.18 1 .67.67 0 01-.4.13.7.7 0 01-.61-.32zM509.37 165a.71.71 0 01-.19-1 .71.71 0 011-.19.71.71 0 01.19 1 .69.69 0 01-.58.31.7.7 0 01-.42-.12zm-177.19-1.43a.7.7 0 01.2-1 .7.7 0 011 .21.7.7 0 01-.21 1 .7.7 0 01-.38.12.7.7 0 01-.62-.29zm173.07-1.24a.7.7 0 01-.22-1 .71.71 0 011-.23.71.71 0 01.22 1 .71.71 0 01-.6.33.69.69 0 01-.41-.06zM336.33 161a.71.71 0 01.24-1 .71.71 0 011 .24.71.71 0 01-.24 1 .69.69 0 01-.37.1.71.71 0 01-.63-.34zM501 159.83a.71.71 0 01-.25-1 .71.71 0 011-.25.71.71 0 01.25 1 .7.7 0 01-.61.35.73.73 0 01-.39-.1zm-160.47-1.36a.71.71 0 01.27-1 .7.7 0 011 .27.7.7 0 01-.26 1 .69.69 0 01-.35.09.7.7 0 01-.63-.36zm156.19-1.06a.7.7 0 01-.28-1 .71.71 0 011-.28.7.7 0 01.28 1 .71.71 0 01-.62.37.72.72 0 01-.35-.09zm-151.88-1.32a.7.7 0 01.3-.95.7.7 0 01.95.3.7.7 0 01-.3.95.69.69 0 01-.33.08.7.7 0 01-.59-.38zm147.52-1a.7.7 0 01-.31-.94.7.7 0 01.94-.31.71.71 0 01.31.95.71.71 0 01-.63.39.69.69 0 01-.28-.05zm-143.14-1.28a.71.71 0 01.32-.94.71.71 0 01.94.32.71.71 0 01-.32.94.69.69 0 01-.31.07.7.7 0 01-.6-.35zM488 153a.7.7 0 01-.34-.94.7.7 0 01.94-.34.71.71 0 01.34.94.71.71 0 01-.64.4.73.73 0 01-.3-.06zm-134.27-1.24a.7.7 0 01.35-.93.7.7 0 01.93.36.7.7 0 01-.35.93.7.7 0 01-.29.06.7.7 0 01-.68-.44zm129.74-.76a.7.7 0 01-.37-.92.7.7 0 01.93-.37.7.7 0 01.37.92.7.7 0 01-.64.43.7.7 0 01-.29-.06zm-125.28-1.2a.7.7 0 01.38-.92.71.71 0 01.92.38.7.7 0 01-.38.92.66.66 0 01-.27.06.7.7 0 01-.64-.47zm120.72-.68a.7.7 0 01-.4-.91.7.7 0 01.91-.4.7.7 0 01.4.91.7.7 0 01-.65.45.65.65 0 01-.25-.07zm-116.15-1.16a.7.7 0 01.41-.9.7.7 0 01.9.41.71.71 0 01-.41.91.76.76 0 01-.25 0 .7.7 0 01-.64-.44zm111.54-.57a.7.7 0 01-.43-.9.7.7 0 01.9-.43.7.7 0 01.43.9.7.7 0 01-.66.47.7.7 0 01-.23-.06zm-106.9-1.12a.7.7 0 01.44-.89.7.7 0 01.89.44.71.71 0 01-.44.9.74.74 0 01-.23 0 .7.7 0 01-.65-.48zm102.24-.46a.71.71 0 01-.45-.89.71.71 0 01.89-.45.71.71 0 01.45.89.71.71 0 01-.67.49.65.65 0 01-.21-.07zm-97.56-1.08a.7.7 0 01.46-.88.7.7 0 01.88.46.71.71 0 01-.46.88.72.72 0 01-.21 0 .7.7 0 01-.66-.49zm92.86-.36a.7.7 0 01-.48-.87.7.7 0 01.87-.48.7.7 0 01.48.87.7.7 0 01-.68.51.65.65 0 01-.13-.06zm-88.14-1a.7.7 0 01.49-.87.7.7 0 01.87.49.71.71 0 01-.49.87h-.19a.71.71 0 01-.67-.57zm83.4-.24a.7.7 0 01-.51-.85.7.7 0 01.86-.51.7.7 0 01.51.85.7.7 0 01-.68.53zm-78.63-1a.7.7 0 01.52-.85.71.71 0 01.85.52.71.71 0 01-.52.85h-.17a.7.7 0 01-.67-.65zm73.86-.13a.71.71 0 01-.53-.84.7.7 0 01.84-.53.7.7 0 01.53.84.7.7 0 01-.69.55zm-69.05-1a.7.7 0 01.54-.83.7.7 0 01.83.54.71.71 0 01-.54.83h-.15a.7.7 0 01-.67-.62zm64.24 0a.71.71 0 01-.56-.82.71.71 0 01.82-.56.7.7 0 01.56.82.7.7 0 01-.69.57h-.13zm-59.4-1a.71.71 0 01.57-.82.7.7 0 01.82.57.7.7 0 01-.57.82h-.13a.71.71 0 01-.69-.57zm54.58.09a.7.7 0 01-.58-.81.7.7 0 01.81-.58.7.7 0 01.58.81.71.71 0 01-.7.59h-.11zm-49.71-.9a.7.7 0 01.59-.8.71.71 0 01.8.59.7.7 0 01-.59.79h-.1a.71.71 0 01-.7-.61zm44.85.2a.7.7 0 01-.61-.79.71.71 0 01.79-.61.7.7 0 01.61.79.7.7 0 01-.7.62h-.09zm-40-.87a.7.7 0 01.62-.78.7.7 0 01.78.62.7.7 0 01-.62.78h-.08a.7.7 0 01-.64-.65zm35.08.31a.7.7 0 01-.63-.77.71.71 0 01.77-.63.71.71 0 01.63.77.7.7 0 01-.7.63h-.07zm-30.14-.83a.7.7 0 01.64-.76.71.71 0 01.76.64.71.71 0 01-.64.76h-.06a.7.7 0 01-.7-.64zm25.29.43a.7.7 0 01-.65-.75.71.71 0 01.75-.65.7.7 0 01.65.75.7.7 0 01-.7.66zm-20.37-.79a.7.7 0 01.66-.74.71.71 0 01.74.66.71.71 0 01-.66.74.7.7 0 01-.74-.68zm15.47.53a.7.7 0 01-.68-.73.71.71 0 01.73-.68.7.7 0 01.68.73.7.7 0 01-.7.68zm-10.54-.75a.7.7 0 01.69-.72.71.71 0 01.72.69.71.71 0 01-.69.72.7.7 0 01-.72-.71zm5.63.64a.7.7 0 01-.7-.71.71.71 0 01.71-.7.71.71 0 01.7.71.7.7 0 01-.7.7zM419.68 430a.7.7 0 01.7-.7.7.7 0 01.7.7.71.71 0 01-.7.7.7.7 0 01-.7-.7zm-4.25.61a.7.7 0 01-.68-.73.7.7 0 01.73-.68.7.7 0 01.68.73.71.71 0 01-.7.68zm9.17-.68a.71.71 0 01.68-.73.71.71 0 01.73.68.7.7 0 01-.68.73.7.7 0 01-.72-.61zm-14.12.41a.71.71 0 01-.65-.76.7.7 0 01.75-.65.7.7 0 01.65.75.7.7 0 01-.7.65h-.05zm19-.66a.7.7 0 01.65-.75.7.7 0 01.75.65.71.71 0 01-.65.76.71.71 0 01-.7-.63zm-24 .2a.7.7 0 01-.62-.78.7.7 0 01.77-.62.7.7 0 01.62.77.7.7 0 01-.7.63h-.08zm28.88-.63a.7.7 0 01.62-.78.7.7 0 01.77.62.7.7 0 01-.62.78h-.08a.7.7 0 01-.61-.59zm-33.79 0a.7.7 0 01-.59-.8.7.7 0 01.8-.59.7.7 0 01.59.8.7.7 0 01-.69.6h-.11zm38.68-.61a.71.71 0 01.59-.8.7.7 0 01.8.59.7.7 0 01-.59.8H440a.7.7 0 01-.68-.56zm-43.56-.21a.7.7 0 01-.56-.82.7.7 0 01.82-.56.7.7 0 01.56.82.7.7 0 01-.69.57h-.13zm48.42-.58a.71.71 0 01.56-.82.7.7 0 01.82.56.7.7 0 01-.56.82h-.13a.7.7 0 01-.61-.53zm-53.27-.42a.7.7 0 01-.53-.84.71.71 0 01.84-.53.7.7 0 01.53.84.7.7 0 01-.69.55zm58.1-.56a.71.71 0 01.53-.84.71.71 0 01.84.53.71.71 0 01-.53.84h-.15a.7.7 0 01-.63-.5zm-62.91-.63a.7.7 0 01-.5-.86.7.7 0 01.86-.5.71.71 0 01.5.86.7.7 0 01-.68.52zm67.7-.53a.7.7 0 01.5-.86.7.7 0 01.86.5.7.7 0 01-.5.86h-.18a.71.71 0 01-.61-.47zm-72.46-.84a.71.71 0 01-.47-.88.71.71 0 01.88-.47.71.71 0 01.47.88.71.71 0 01-.67.5.69.69 0 01-.14.01zm77.2-.5a.7.7 0 01.46-.88.71.71 0 01.88.47.71.71 0 01-.46.88.72.72 0 01-.21 0 .7.7 0 01-.59-.43zm-81.92-1.05a.71.71 0 01-.43-.9.71.71 0 01.9-.43.71.71 0 01.43.9.7.7 0 01-.66.47.67.67 0 01-.17-.01zm86.61-.46a.7.7 0 01.43-.9.7.7 0 01.9.43.7.7 0 01-.43.89.68.68 0 01-.23 0 .71.71 0 01-.6-.39zM372 421.63a.7.7 0 01-.4-.91.7.7 0 01.91-.4.7.7 0 01.4.91.7.7 0 01-.65.45.67.67 0 01-.26-.05zm95.89-.43a.7.7 0 01.39-.91.7.7 0 01.91.4.71.71 0 01-.4.91.67.67 0 01-.26 0 .7.7 0 01-.67-.4zm-100.48-1.47a.7.7 0 01-.36-.93.7.7 0 01.93-.36.7.7 0 01.37.93.71.71 0 01-.65.42.67.67 0 01-.32-.06zm105-.39a.71.71 0 01.36-.93.7.7 0 01.93.36.7.7 0 01-.36.93.76.76 0 01-.28.06.71.71 0 01-.65-.42zm-109.54-1.69a.7.7 0 01-.33-.94.7.7 0 01.94-.33.71.71 0 01.33.94.7.7 0 01-.63.4.69.69 0 01-.31-.07zm114-.34a.7.7 0 01.33-.94.7.7 0 01.94.33.7.7 0 01-.33.94.73.73 0 01-.31.07.7.7 0 01-.62-.4zm-118.44-1.89a.7.7 0 01-.29-.95.71.71 0 011-.3.71.71 0 01.29 1 .7.7 0 01-.62.37.7.7 0 01-.37-.12zm122.84-.3a.7.7 0 01.29-.95.7.7 0 01.95.29.7.7 0 01-.29.95.7.7 0 01-.33.08.7.7 0 01-.61-.38zM354.1 413a.7.7 0 01-.26-1 .7.7 0 011-.26.7.7 0 01.26 1 .7.7 0 01-.61.35.71.71 0 01-.39-.09zm131.49-.26a.71.71 0 01.26-1 .7.7 0 011 .26.7.7 0 01-.26 1 .67.67 0 01-.35.1.7.7 0 01-.65-.34zm4.22-2.52a.7.7 0 01.22-1 .71.71 0 011 .22.71.71 0 01-.22 1 .7.7 0 01-.37.11.7.7 0 01-.62-.31zm-140 .22a.7.7 0 01-.22-1 .7.7 0 011-.22.71.71 0 01.22 1 .71.71 0 01-.6.33.72.72 0 01-.35-.1zm144.09-2.89a.71.71 0 01.18-1 .7.7 0 011 .18.7.7 0 01-.18 1 .7.7 0 01-.4.12.71.71 0 01-.55-.29zm-148.24.17a.71.71 0 01-.18-1 .71.71 0 011-.18.7.7 0 01.18 1 .7.7 0 01-.58.31.72.72 0 01-.37-.12zm152.27-3a.7.7 0 01.15-1 .7.7 0 011 .15.7.7 0 01-.15 1 .7.7 0 01-.42.14.7.7 0 01-.51-.28zm-156.31.13a.7.7 0 01-.15-1 .71.71 0 011-.15.7.7 0 01.15 1 .7.7 0 01-.56.29.68.68 0 01-.39-.13zm160.23-3.11a.7.7 0 01.11-1 .7.7 0 011 .11.7.7 0 01-.11 1 .71.71 0 01-.44.15.69.69 0 01-.51-.25zm-164.16.09a.7.7 0 01-.11-1 .7.7 0 011-.11.7.7 0 01.11 1 .7.7 0 01-.55.26.71.71 0 01-.4-.14zm168-3.21a.71.71 0 01.07-1 .7.7 0 011 .07.7.7 0 01-.07 1 .69.69 0 01-.46.17.71.71 0 01-.53-.23zm-171.78 0a.71.71 0 01-.08-1 .7.7 0 011-.07.7.7 0 01.08 1 .72.72 0 01-.53.24.7.7 0 01-.45-.11zm175.47-3.31a.71.71 0 010-1 .7.7 0 011 0 .71.71 0 010 1 .71.71 0 01-.48.19.71.71 0 01-.51-.13zm-179.16 0a.71.71 0 010-1 .7.7 0 011 0 .7.7 0 010 1 .69.69 0 01-.51.23.69.69 0 01-.48-.16zM513 392a.7.7 0 010-1 .7.7 0 011 0 .7.7 0 010 1 .71.71 0 01-.5.2.7.7 0 01-.5-.2zm-186.29 0a.71.71 0 010-1 .7.7 0 011 0 .7.7 0 010 1 .71.71 0 01-.5.21.7.7 0 01-.54-.27zm189.73-3.49a.71.71 0 010-1 .71.71 0 011 0 .7.7 0 010 1 .69.69 0 01-.51.23.7.7 0 01-.53-.29zm-193.17-.07a.7.7 0 010-1 .7.7 0 011 0 .71.71 0 010 1 .7.7 0 01-.48.19.7.7 0 01-.56-.26zm196.48-3.58a.7.7 0 01-.07-1 .7.7 0 011-.07.7.7 0 01.07 1 .7.7 0 01-.53.24.69.69 0 01-.52-.24zm-199.78-.11a.7.7 0 01.07-1 .71.71 0 011 .07.7.7 0 01-.07 1 .69.69 0 01-.46.17.7.7 0 01-.58-.31zm202.9-3.75a.7.7 0 01-.11-1 .7.7 0 011-.11.7.7 0 01.11 1 .7.7 0 01-.55.26.71.71 0 01-.45-.15zm-206.11-.14a.7.7 0 01.11-1 .7.7 0 011 .11.7.7 0 01-.11 1 .71.71 0 01-.44.15.7.7 0 01-.55-.25zm209.13-3.75a.7.7 0 01-.15-1 .71.71 0 011-.14.71.71 0 01.15 1 .71.71 0 01-.57.28.69.69 0 01-.42-.13zm-212.15-.17a.71.71 0 01.15-1 .71.71 0 011 .15.7.7 0 01-.15 1 .69.69 0 01-.42.14.7.7 0 01-.57-.28zm215-3.83a.7.7 0 01-.19-1 .71.71 0 011-.19.71.71 0 01.19 1 .71.71 0 01-.58.31.71.71 0 01-.38-.11zm-217.9-.2a.7.7 0 01.19-1 .7.7 0 011 .18.7.7 0 01-.18 1 .69.69 0 01-.39.12.7.7 0 01-.58-.29zM531.51 369a.7.7 0 01-.22-1 .71.71 0 011-.22.71.71 0 01.22 1 .7.7 0 01-.59.33.7.7 0 01-.41-.11zm-223.33-.23a.7.7 0 01.22-1 .7.7 0 011 .22.7.7 0 01-.22 1 .69.69 0 01-.37.11.7.7 0 01-.64-.32zm-2.56-4.23a.7.7 0 01.26-1 .7.7 0 011 .26.7.7 0 01-.26 1 .68.68 0 01-.35.09.71.71 0 01-.66-.34zm228.47.25a.71.71 0 01-.26-1 .71.71 0 011-.26.71.71 0 01.26 1 .7.7 0 01-.61.35.7.7 0 01-.4-.07zm-230.87-4.58a.71.71 0 01.29-.95.7.7 0 011 .29.7.7 0 01-.29.95.7.7 0 01-.33.08.71.71 0 01-.67-.36zm233.28.29a.7.7 0 01-.29-.95.7.7 0 011-.29.71.71 0 01.29.95.71.71 0 01-.62.38.7.7 0 01-.38-.09zM301 355.82a.7.7 0 01.33-.94.71.71 0 01.94.33.71.71 0 01-.33.94.69.69 0 01-.31.07.7.7 0 01-.63-.4zm237.77.29a.7.7 0 01-.33-.94.7.7 0 01.94-.33.7.7 0 01.33.94.71.71 0 01-.64.4.66.66 0 01-.32-.07zm-239.83-4.78a.7.7 0 01.36-.93.7.7 0 01.93.36.7.7 0 01-.36.93.66.66 0 01-.28.06.7.7 0 01-.67-.42zm241.92.31a.7.7 0 01-.36-.93.7.7 0 01.93-.36.7.7 0 01.36.93.7.7 0 01-.64.42.72.72 0 01-.31-.07zM297 346.77a.7.7 0 01.4-.91.7.7 0 01.91.4.7.7 0 01-.4.91.72.72 0 01-.26 0 .7.7 0 01-.65-.4zm245.73.31a.7.7 0 01-.4-.91.71.71 0 01.91-.4.71.71 0 01.4.91.71.71 0 01-.65.45.64.64 0 01-.24-.05zm-247.46-5a.7.7 0 01.43-.9.7.7 0 01.89.43.7.7 0 01-.43.9.76.76 0 01-.23 0 .7.7 0 01-.63-.39zm249.2.34a.71.71 0 01-.43-.9.7.7 0 01.9-.43.71.71 0 01.43.9.71.71 0 01-.67.47.76.76 0 01-.2 0zm-250.75-5a.71.71 0 01.46-.88.7.7 0 01.88.46.71.71 0 01-.47.88.68.68 0 01-.2 0 .71.71 0 01-.64-.46zm252.32.36a.71.71 0 01-.46-.88.7.7 0 01.88-.46.71.71 0 01.46.88.7.7 0 01-.67.5.73.73 0 01-.19-.04zm-253.69-5.12a.7.7 0 01.5-.86.7.7 0 01.86.5.7.7 0 01-.5.86h-.18a.7.7 0 01-.66-.5zm255.1.34a.7.7 0 01-.5-.86.7.7 0 01.86-.5.7.7 0 01.5.86.71.71 0 01-.68.52zm-256.27-5.19a.71.71 0 01.53-.84.71.71 0 01.84.53.7.7 0 01-.53.84h-.16a.7.7 0 01-.68-.48zm257.48.42a.7.7 0 01-.53-.84.7.7 0 01.84-.53.7.7 0 01.53.84.71.71 0 01-.69.55zM290.17 323a.7.7 0 01.56-.82.71.71 0 01.82.56.7.7 0 01-.56.82h-.13a.7.7 0 01-.69-.56zm259.51.44a.7.7 0 01-.56-.82.7.7 0 01.82-.56.71.71 0 01.56.82.7.7 0 01-.69.57h-.13zm-260.34-5.33a.7.7 0 01.59-.8.7.7 0 01.8.59.71.71 0 01-.59.8H290a.71.71 0 01-.66-.57zm261.19.47a.71.71 0 01-.59-.8.71.71 0 01.8-.59.7.7 0 01.59.8.71.71 0 01-.7.6h-.1zm-261.83-5.37a.7.7 0 01.62-.78.71.71 0 01.78.62.7.7 0 01-.62.77h-.08a.71.71 0 01-.7-.61zm262.5.5a.7.7 0 01-.62-.78.7.7 0 01.78-.62.71.71 0 01.62.78.7.7 0 01-.7.62h-.08zm-263-5.43a.7.7 0 01.65-.75.7.7 0 01.75.65.7.7 0 01-.65.75h-.05a.71.71 0 01-.66-.65zm263.44.53a.7.7 0 01-.65-.75.7.7 0 01.75-.65.7.7 0 01.65.75.71.71 0 01-.7.65h-.05zM288 303.34a.71.71 0 01.68-.73.7.7 0 01.73.68.7.7 0 01-.68.73.7.7 0 01-.73-.68zm264 .56a.7.7 0 01-.68-.73.7.7 0 01.73-.68.7.7 0 01.68.73.71.71 0 01-.7.68zm-264.11-5.51a.71.71 0 01.7-.7.7.7 0 01.7.7.7.7 0 01-.7.7.7.7 0 01-.73-.7zm263.52-.12a.67.67 0 010-.12.67.67 0 010-.12.71.71 0 01.7-.71.71.71 0 01.7.7.67.67 0 010 .12.63.63 0 010 .12.7.7 0 01-.7.7.71.71 0 01-.73-.69zm-263.52.12zm.77-4.22a.7.7 0 01-.68-.73.7.7 0 01.73-.68.71.71 0 01.68.73.71.71 0 01-.7.68zm262.65-1a.71.71 0 01.68-.73.71.71 0 01.73.68.7.7 0 01-.68.73.7.7 0 01-.76-.71zm-262.42-3.89a.7.7 0 01-.65-.75.7.7 0 01.75-.65.7.7 0 01.65.75.7.7 0 01-.7.65h-.05zm262.14-1a.7.7 0 01.65-.75.71.71 0 01.76.65.71.71 0 01-.65.76h-.05a.7.7 0 01-.74-.7zm-261.73-3.94a.7.7 0 01-.62-.78.7.7 0 01.78-.62.7.7 0 01.62.77.7.7 0 01-.7.63h-.08zm261.25-1a.7.7 0 01.62-.78.7.7 0 01.78.62.7.7 0 01-.62.78h-.08a.7.7 0 01-.7-.59zm-260.65-3.89a.7.7 0 01-.59-.8.7.7 0 01.8-.59.7.7 0 01.59.8.71.71 0 01-.69.6h-.11zm260-.94a.7.7 0 01.59-.8.71.71 0 01.8.59.71.71 0 01-.59.8h-.1a.7.7 0 01-.69-.59zm-259.22-3.93a.71.71 0 01-.56-.82.71.71 0 01.82-.56.71.71 0 01.56.82.71.71 0 01-.69.58h-.13zm258.39-.9a.7.7 0 01.56-.82.7.7 0 01.82.56.7.7 0 01-.56.82h-.13a.7.7 0 01-.68-.56zm-257.42-3.93a.7.7 0 01-.53-.84.71.71 0 01.84-.53.7.7 0 01.53.84.7.7 0 01-.68.55zm256.42-.87a.71.71 0 01.53-.84.71.71 0 01.84.53.71.71 0 01-.53.84h-.16a.71.71 0 01-.67-.52zM292.81 265a.7.7 0 01-.5-.86.7.7 0 01.86-.5.7.7 0 01.5.86.7.7 0 01-.68.52zm254.08-.84a.7.7 0 01.5-.86.71.71 0 01.86.5.71.71 0 01-.5.86h-.18a.7.7 0 01-.68-.53zm-252.75-3.91a.7.7 0 01-.46-.88.7.7 0 01.88-.46.7.7 0 01.47.88.71.71 0 01-.67.5.71.71 0 01-.22-.07zm251.39-.8a.7.7 0 01.46-.88.7.7 0 01.88.46.71.71 0 01-.46.88.72.72 0 01-.21 0 .71.71 0 01-.67-.49zm-249.87-3.9a.71.71 0 01-.43-.9.7.7 0 01.89-.43.7.7 0 01.43.9.71.71 0 01-.67.47.67.67 0 01-.22-.07zm248.34-.78a.7.7 0 01.43-.9.7.7 0 01.9.43.7.7 0 01-.43.9.67.67 0 01-.23 0 .7.7 0 01-.67-.43zm-246.64-3.9a.7.7 0 01-.4-.91.71.71 0 01.91-.4.7.7 0 01.4.91.7.7 0 01-.65.45.67.67 0 01-.27-.05zm244.93-.69a.71.71 0 01.4-.91.7.7 0 01.91.4.7.7 0 01-.39.91.67.67 0 01-.26 0 .71.71 0 01-.67-.4zm-243.08-3.88a.7.7 0 01-.37-.93.7.7 0 01.93-.36.7.7 0 01.37.93.7.7 0 01-.65.42.66.66 0 01-.28-.06zm241.19-.63a.71.71 0 01.36-.93.71.71 0 01.93.36.7.7 0 01-.36.93.69.69 0 01-.29.06.7.7 0 01-.64-.42zm-239.15-3.87a.7.7 0 01-.33-.94.7.7 0 01.94-.33.7.7 0 01.33.94.71.71 0 01-.64.4.72.72 0 01-.3-.07zm237.11-.57a.7.7 0 01.33-.94.7.7 0 01.94.33.7.7 0 01-.33.94.72.72 0 01-.31.07.71.71 0 01-.64-.4zm-234.91-3.84a.7.7 0 01-.3-.95.71.71 0 01.95-.3.71.71 0 01.3 1 .71.71 0 01-.62.37.67.67 0 01-.33-.12zm232.69-.51a.7.7 0 01.29-1 .7.7 0 011 .29.71.71 0 01-.29.95.7.7 0 01-.33.08.71.71 0 01-.67-.33zm-230.33-3.82a.7.7 0 01-.26-1 .7.7 0 011-.26.7.7 0 01.26 1 .7.7 0 01-.61.35.71.71 0 01-.39-.09zm228-.46a.7.7 0 01.26-1 .7.7 0 011 .25.71.71 0 01-.25 1 .73.73 0 01-.36.09.7.7 0 01-.69-.35zm-225.43-3.78a.7.7 0 01-.23-1 .7.7 0 011-.22.7.7 0 01.22 1 .7.7 0 01-.59.33.69.69 0 01-.44-.11zm222.9-.41a.7.7 0 01.22-1 .7.7 0 011 .22.71.71 0 01-.22 1 .7.7 0 01-.38.11.7.7 0 01-.67-.33zM311 224.68a.7.7 0 01-.19-1 .7.7 0 011-.19.71.71 0 01.19 1 .7.7 0 01-.58.31.7.7 0 01-.42-.12zm217.53-.36a.7.7 0 01.18-1 .7.7 0 011 .18.7.7 0 01-.18 1 .68.68 0 01-.39.12.69.69 0 01-.6-.3zm-214.69-3.68a.7.7 0 01-.15-1 .7.7 0 011-.15.71.71 0 01.15 1 .7.7 0 01-.57.29.71.71 0 01-.42-.14zm211.85-.31a.7.7 0 01.15-1 .7.7 0 011 .15.7.7 0 01-.14 1 .7.7 0 01-.42.14.7.7 0 01-.58-.29zm-208.87-3.62a.7.7 0 01-.11-1 .7.7 0 011-.11.7.7 0 01.11 1 .7.7 0 01-.55.26.68.68 0 01-.44-.15zm205.88-.26a.7.7 0 01.11-1 .7.7 0 011 .11.7.7 0 01-.11 1 .69.69 0 01-.44.15.7.7 0 01-.54-.26zM320 212.9a.7.7 0 01-.08-1 .71.71 0 011-.07.71.71 0 01.07 1 .71.71 0 01-.53.24.7.7 0 01-.46-.17zm199.63-.22a.7.7 0 01.07-1 .7.7 0 011 .07.7.7 0 01-.07 1 .7.7 0 01-.46.17.7.7 0 01-.59-.23zm-196.37-3.48a.71.71 0 010-1 .7.7 0 011 0 .71.71 0 010 1 .71.71 0 01-.52.22.71.71 0 01-.52-.21zm193.1-.17a.7.7 0 010-1 .7.7 0 011 0 .7.7 0 010 1 .69.69 0 01-.48.19.69.69 0 01-.56-.22zm-189.7-3.39a.7.7 0 010-1 .7.7 0 011 0 .71.71 0 010 1 .7.7 0 01-.5.21.7.7 0 01-.54-.21zm186.29-.13a.7.7 0 010-1 .71.71 0 011 0 .71.71 0 010 1 .7.7 0 01-.5.21.71.71 0 01-.54-.21zm-182.77-3.31a.71.71 0 010-1 .71.71 0 011 0 .71.71 0 010 1 .71.71 0 01-.48.19.7.7 0 01-.55-.18zm179.23-.09a.7.7 0 010-1 .71.71 0 011 0 .71.71 0 010 1 .71.71 0 01-.52.23.71.71 0 01-.51-.22zM333.8 198.9a.71.71 0 01.07-1 .71.71 0 011 .07.7.7 0 01-.07 1 .69.69 0 01-.46.17.71.71 0 01-.54-.24zm171.93 0a.71.71 0 01-.08-1 .71.71 0 011-.08.71.71 0 01.07 1 .71.71 0 01-.53.25.71.71 0 01-.47-.22zm-168.16-3.12a.7.7 0 01.11-1 .7.7 0 011 .11.71.71 0 01-.11 1 .71.71 0 01-.44.15.71.71 0 01-.56-.3zm164.38 0a.7.7 0 01-.11-1 .7.7 0 011-.11.71.71 0 01.11 1 .7.7 0 01-.55.26.71.71 0 01-.45-.2zm-160.49-3a.7.7 0 01.14-1 .71.71 0 011 .14.7.7 0 01-.15 1 .68.68 0 01-.42.14.7.7 0 01-.57-.35zm156.6 0a.71.71 0 01-.15-1 .7.7 0 011-.15.7.7 0 01.15 1 .71.71 0 01-.57.29.7.7 0 01-.43-.18zm-152.61-2.9a.71.71 0 01.18-1 .71.71 0 011 .18.7.7 0 01-.18 1 .7.7 0 01-.4.12.7.7 0 01-.6-.34zm148.61.07a.7.7 0 01-.18-1 .71.71 0 011-.19.7.7 0 01.19 1 .7.7 0 01-.58.31.72.72 0 01-.43-.17zm-144.51-2.79a.7.7 0 01.22-1 .7.7 0 011 .22.71.71 0 01-.22 1 .73.73 0 01-.38.11.7.7 0 01-.62-.38zm140.45.06a.71.71 0 01-.22-1 .71.71 0 011-.22.7.7 0 01.22 1 .7.7 0 01-.59.33.68.68 0 01-.41-.11zm-136.21-2.67a.7.7 0 01.26-1 .7.7 0 011 .25.71.71 0 01-.25 1 .71.71 0 01-.35.09.71.71 0 01-.71-.34zm132 .14a.7.7 0 01-.26-1 .7.7 0 011-.26.7.7 0 01.26 1 .7.7 0 01-.61.35.71.71 0 01-.43-.1zM358 182.14a.7.7 0 01.29-.95.7.7 0 01.95.29.7.7 0 01-.29.95.69.69 0 01-.33.08.7.7 0 01-.62-.37zm123.43.17a.7.7 0 01-.3-.95.7.7 0 01.95-.29.7.7 0 01.3.95.7.7 0 01-.62.38.68.68 0 01-.31-.09zm-119.03-2.42a.7.7 0 01.33-.94.7.7 0 01.94.33.7.7 0 01-.33.94.73.73 0 01-.31.07.71.71 0 01-.63-.4zm114.67.21a.7.7 0 01-.33-.94.7.7 0 01.94-.33.7.7 0 01.33.94.71.71 0 01-.64.4.67.67 0 01-.3-.07zm-110.22-2.29a.7.7 0 01.36-.93.7.7 0 01.93.36.7.7 0 01-.36.93.66.66 0 01-.28.06.7.7 0 01-.65-.42zm105.75.25a.71.71 0 01-.37-.93.71.71 0 01.93-.36.7.7 0 01.36.93.7.7 0 01-.64.42.71.71 0 01-.27-.06zm-101.22-2.16a.7.7 0 01.4-.91.7.7 0 01.91.39.7.7 0 01-.4.91.72.72 0 01-.26 0 .7.7 0 01-.65-.39zm96.69.28a.71.71 0 01-.4-.91.71.71 0 01.91-.4.7.7 0 01.4.91.71.71 0 01-.66.45.74.74 0 01-.26-.05zm-92.08-2a.7.7 0 01.43-.9.7.7 0 01.9.43.7.7 0 01-.43.89.78.78 0 01-.23 0 .71.71 0 01-.66-.45zm87.47.32a.7.7 0 01-.43-.89.7.7 0 01.9-.43.7.7 0 01.43.89.7.7 0 01-.66.47.67.67 0 01-.24-.06zm-82.8-1.89a.7.7 0 01.46-.88.7.7 0 01.88.46.7.7 0 01-.46.88.69.69 0 01-.21 0 .71.71 0 01-.67-.48zm78.13.36a.71.71 0 01-.47-.88.7.7 0 01.88-.47.71.71 0 01.47.88.71.71 0 01-.68.5.83.83 0 01-.2-.05zm-73.41-1.76a.7.7 0 01.5-.86.71.71 0 01.86.5.7.7 0 01-.5.86h-.18a.7.7 0 01-.68-.52zm68.69.41a.71.71 0 01-.5-.86.71.71 0 01.86-.5.7.7 0 01.5.86.71.71 0 01-.68.52zM390.16 170a.7.7 0 01.53-.84.7.7 0 01.84.53.7.7 0 01-.53.84h-.16a.7.7 0 01-.68-.53zm59.16.45a.7.7 0 01-.53-.84.7.7 0 01.84-.53.7.7 0 01.53.84.71.71 0 01-.69.55zM395 168.94a.7.7 0 01.56-.82.7.7 0 01.82.56.7.7 0 01-.56.82h-.13a.7.7 0 01-.69-.56zm49.55.5a.7.7 0 01-.56-.82.7.7 0 01.82-.56.71.71 0 01.56.82.71.71 0 01-.69.58h-.13zm-44.7-1.35a.7.7 0 01.59-.8.7.7 0 01.8.59.7.7 0 01-.59.8h-.1a.7.7 0 01-.73-.59zm39.86.54a.71.71 0 01-.59-.8.7.7 0 01.8-.59.71.71 0 01.59.8.71.71 0 01-.7.6h-.1zm-35-1.21a.7.7 0 01.62-.78.7.7 0 01.78.62.7.7 0 01-.62.78h-.09a.71.71 0 01-.7-.61zm30.11.58a.71.71 0 01-.62-.77.7.7 0 01.78-.62.7.7 0 01.62.77.7.7 0 01-.7.63h-.08zm-25.22-1.07a.7.7 0 01.65-.76.7.7 0 01.75.65.7.7 0 01-.65.75h-.05a.7.7 0 01-.69-.63zm20.34.62a.7.7 0 01-.65-.75.7.7 0 01.75-.65.7.7 0 01.65.75.7.7 0 01-.7.65h-.05zm-15.42-.93a.7.7 0 01.68-.73.7.7 0 01.73.68.7.7 0 01-.68.73.7.7 0 01-.73-.67zm10.53.66a.7.7 0 01-.68-.73.7.7 0 01.73-.68.7.7 0 01.68.73.7.7 0 01-.7.68zm-5.6-.79a.71.71 0 01.7-.7.7.7 0 01.7.7.7.7 0 01-.7.7.71.71 0 01-.7-.68z" transform="translate(-230.71 -108.91)"/><g class="cls-4"><path class="cls-5" d="M564.24 409.56a181.37 181.37 0 0011-206.12 183.13 183.13 0 00-49.69-53.06l2.28-3.21a187.07 187.07 0 0150.76 54.21A183.82 183.82 0 01604 271.15 185.09 185.09 0 01567.35 412zM523 448.54l5.92-4.21 5.72-4.48c.47-.38 1-.74 1.42-1.13l1.37-1.19 2.74-2.38c.91-.8 1.85-1.57 2.73-2.4l2.63-2.51 2.71 2.85-2.68 2.56c-.9.85-1.86 1.63-2.79 2.45l-2.8 2.43-1.4 1.21c-.48.39-1 .77-1.45 1.15l-5.84 4.58-6 4.3zM445.82 478.53a189.42 189.42 0 0028.32-6.29l1.16 3.76a193.34 193.34 0 01-28.94 6.42zM365 471.75a192.28 192.28 0 0028.26 6.58l-.58 3.89a196.19 196.19 0 01-28.87-6.73zM491.52 465.86l6.62-3c1.12-.47 2.17-1.07 3.25-1.61l3.23-1.66 1.83 3.49-3.3 1.69c-1.11.55-2.19 1.16-3.33 1.64l-6.76 3.06zM412.8 480.15l7.26.18c2.42 0 4.84-.12 7.26-.17l.15 3.93c-2.47.06-4.94.14-7.42.17l-7.42-.19zM292.11 427.41a186.38 186.38 0 0022.15 18.74l-2.3 3.2a190.31 190.31 0 01-22.63-19.15zM330.77 456.73c1.05.6 2.09 1.22 3.15 1.8l3.23 1.65c2.16 1.09 4.28 2.26 6.51 3.21L342 467c-2.28-1-4.45-2.16-6.65-3.28l-3.3-1.69c-1.08-.59-2.15-1.23-3.22-1.84zM337.4 136.82l-3.23 1.65c-.55.26-1.06.59-1.59.88l-1.57.91-3.15 1.81-1.57.9c-.52.31-1 .65-1.53 1l-6.11 3.92-5.92 4.21-2.33-3.17 6-4.3 6.24-4c.52-.33 1-.68 1.57-1l1.61-.92 3.22-1.85 1.61-.92c.54-.3 1.06-.63 1.62-.9l3.3-1.69zM420.33 116.78a198.65 198.65 0 00-28.93 2.32l-.62-3.89a202.55 202.55 0 0129.55-2.37v3.94zM372.24 123.26l-3.49 1c-1.16.34-2.34.63-3.48 1l-6.88 2.33-1.34-3.7 7-2.38c1.16-.42 2.37-.71 3.55-1.06l3.57-1z" transform="translate(-230.71 -108.91)"/><path class="cls-5" d="M598.95 332.22a181.24 181.24 0 00-38.69-149.68 185.85 185.85 0 00-28.67-27.68 177.87 177.87 0 00-34-20.83 182.47 182.47 0 00-77.3-17.24v-7.87a190.35 190.35 0 0180.66 18 185.75 185.75 0 0135.43 21.74 193.72 193.72 0 0129.9 28.87 189.12 189.12 0 0140.37 156.16zM292.54 169.31a181.9 181.9 0 00-48.72 85.79 176.83 176.83 0 00-4.94 32.9 184.27 184.27 0 008.22 65.74l1.33 3.94.67 2c.23.65.42 1.32.69 2l3.05 7.75 3.43 7.59c1.22 2.49 2.52 4.95 3.77 7.42a182.65 182.65 0 0018.36 27.74l-3.07 2.46a186.59 186.59 0 01-18.75-28.34c-1.28-2.53-2.61-5-3.86-7.58l-3.5-7.75-3.12-7.97c-.28-.65-.47-1.34-.71-2l-.68-2-1.36-4a188.21 188.21 0 01-8.39-67.16 180.77 180.77 0 015-33.6 185.83 185.83 0 0149.78-87.65z" transform="translate(-230.71 -108.91)"/><path class="cls-5" d="M249.32 236.83a179.3 179.3 0 00-8.62 33.73 184.36 184.36 0 002.61 69.27 180.4 180.4 0 0011.1 33l-7.18 3.17a190.4 190.4 0 01-5.32-141.87z" transform="translate(-230.71 -108.91)"/></g><g style="mix-blend-mode:overlay" opacity=".4"><path class="cls-5" d="M364.2 371.8a93.68 93.68 0 0033.73 16.57 94.67 94.67 0 0037.56 2 93.06 93.06 0 0035.3-12.87 94.73 94.73 0 0027.44-25.7l5 3.59A100.92 100.92 0 01474 382.76a99.17 99.17 0 01-37.64 13.72 99.85 99.85 0 01-76-19.78zM344 350.48l2.18 3.06 2.32 3c.19.25.38.5.58.74l.62.71 1.23 1.42c.41.47.81 1 1.24 1.41l1.3 1.36-4.47 4.22-1.37-1.4c-.46-.49-.88-1-1.32-1.5l-1.31-1.56-.66-.76c-.21-.26-.41-.52-.62-.78l-2.47-3.15-2.31-3.25zM328.53 310.57a98.13 98.13 0 003.25 14.64l-5.91 1.79a104.31 104.31 0 01-3.47-15.61zM332 268.77a99.67 99.67 0 00-3.4 14.61l-6.12-.91a105.83 105.83 0 013.63-15.58zM335.08 334.19l1.55 3.42c.24.58.55 1.12.83 1.68l.86 1.67-5.48 2.87-.91-1.78c-.3-.6-.62-1.18-.89-1.79l-1.65-3.65zM327.69 293.48l-.1 3.76.09 3.76-6.18.23c0-1.33-.07-2.67-.09-4l.1-4zM355 231.07a96.49 96.49 0 00-9.69 11.46l-5-3.61a102.67 102.67 0 0110.33-12.21zM339.8 251.07c-.31.54-.63 1.08-.93 1.63l-.87 1.67c-.56 1.12-1.17 2.21-1.66 3.37l-5.61-2.61c.52-1.23 1.17-2.4 1.77-3.59l.91-1.78c.32-.59.66-1.16 1-1.74zM505.24 254.5l-.85-1.67c-.29-.56-.62-1.09-.93-1.63l-.94-1.63-.47-.81c-.16-.27-.34-.53-.5-.79l-2-3.16-2.18-3.06 5-3.67 2.32 3.26 2.16 3.37c.18.28.37.56.53.85l.5.87 1 1.73c.33.58.68 1.15 1 1.74l.91 1.78zM515.6 297.38a103.14 103.14 0 00-1.2-15l6.11-1a109.28 109.28 0 011.28 15.94h-6.19zM512.25 272.51l-.51-1.81c-.18-.6-.32-1.21-.54-1.8l-1.2-3.56 5.82-2.11 1.28 3.77c.23.63.39 1.28.57 1.92l.55 1.93z" transform="translate(-230.71 -108.91)"/><path class="cls-5" d="M404.19 389.75a93.84 93.84 0 0091.72-34.83 91.9 91.9 0 0010.77-17.56 94.44 94.44 0 008.92-40H528a106.75 106.75 0 01-10.09 45.24 104.27 104.27 0 01-12.19 19.87 108.57 108.57 0 01-16.19 16.77 106.09 106.09 0 01-87.59 22.65zM488.44 231.3a94.07 94.07 0 00-44.36-25.2 91.34 91.34 0 00-17-2.55 95.35 95.35 0 00-34 4.25c-1.36.47-2.72.91-4.07 1.39l-4 1.58-3.92 1.77c-1.29.63-2.56 1.3-3.84 2a94.48 94.48 0 00-14.36 9.46l-3.89-4.84a99.39 99.39 0 0132.2-17.26 101.54 101.54 0 0136.23-4.53 97.52 97.52 0 0118.13 2.72 100.25 100.25 0 0147.28 26.85z" transform="translate(-230.71 -108.91)"/><path class="cls-5" d="M453.52 208.94a92.67 92.67 0 00-17.44-4.46 95.17 95.17 0 00-18-1 93.72 93.72 0 00-34.89 8.11l-5.06-11.29a106.78 106.78 0 0179.58-3z" transform="translate(-230.71 -108.91)"/></g><g class="cls-4"><path class="cls-5" d="M490 398.33a118.18 118.18 0 0021.57-19.52c.79-.92 1.61-1.82 2.38-2.76l2.25-2.87 1.13-1.43 1.05-1.49 2.12-3c.69-1 1.31-2 2-3.06s1.36-2 1.93-3.09c1.19-2.12 2.48-4.18 3.53-6.37a122 122 0 0013.65-56.06h29a151.08 151.08 0 01-16.91 69.41c-1.31 2.71-2.89 5.27-4.37 7.88-.72 1.32-1.59 2.55-2.38 3.83s-1.6 2.54-2.46 3.78l-2.61 3.67-1.31 1.83-1.39 1.77-2.79 3.54c-1 1.16-2 2.28-2.93 3.42A147.17 147.17 0 01506.8 422zM278.53 369.28l-.28-.58a154.4 154.4 0 01-14.75-47.42 158.82 158.82 0 01.73-49.62c.14-.71.26-1.41.38-2.11.23-1.32.46-2.69.79-4l1.74-7.29c1-3.53 2-7.19 3.27-10.71a152.57 152.57 0 019.91-22.85 165.55 165.55 0 0113.4-21 159 159 0 0116.54-18.6l.46-.45L329 203.6l-.46.44a130.84 130.84 0 00-13.8 15.51A139.34 139.34 0 00303.52 237a126.76 126.76 0 00-8.25 19c-1 2.69-1.76 5.49-2.52 8.19l-.49 1.81-1.16 5.05c-.27 1.06-.45 2.15-.63 3.21-.11.63-.21 1.26-.34 1.89A131.22 131.22 0 00301.8 357l.29.57zm32.16-182.81a157.21 157.21 0 00-15.95 18 164.31 164.31 0 00-13.29 20.82 151.36 151.36 0 00-9.84 22.71c-1.25 3.49-2.27 7.12-3.24 10.63l-.37 1.17-1.39 6c-.32 1.3-.55 2.65-.78 3.95-.12.71-.24 1.42-.38 2.13a157.52 157.52 0 00-.72 49.21 153 153 0 0014.35 46.46L300.37 357a132.57 132.57 0 01-11.5-81.09c.12-.63.23-1.25.33-1.87.18-1.08.37-2.2.65-3.3l1.17-5.07.5-1.78c.77-2.73 1.56-5.55 2.55-8.27a128 128 0 018.33-19.2 140.75 140.75 0 0111.27-17.65 131.39 131.39 0 0113.48-15.22zM385.46 176.22l-11.18-41.05.62-.17a169.49 169.49 0 0151-5.83h.64l-1.55 42.52h-.64a127.2 127.2 0 00-38.22 4.36zm-9.61-40.16l10.51 38.59a128.39 128.39 0 0137.35-4.26l1.46-40a168.24 168.24 0 00-49.32 5.67zM543.83 271.8l-.14-.62a126.35 126.35 0 00-23.76-50.48l-.4-.5 33.57-26.14.39.5A168.94 168.94 0 01585.24 262l.14.62zm-22.5-51.38a127.67 127.67 0 0123.47 49.86l39.05-8.62a167.69 167.69 0 00-31-65.81zM495.58 196.79l-.51-.38a126 126 0 00-55.36-23.25l-.63-.1 4.8-30.16.63.1a156.59 156.59 0 0168.71 28.85l.52.38zm-55-24.78a127.21 127.21 0 0154.76 23l16.64-22.5a155.2 155.2 0 00-67-28.13z" transform="translate(-230.71 -108.91)"/><path class="cls-5" d="M419.57 462.9a163.88 163.88 0 01-43.06-5.72l-.62-.17 6.88-25.37.62.17A138.1 138.1 0 00496.72 413a140.83 140.83 0 0040.61-42.53A138.19 138.19 0 00556.49 315l.07-.63 26.11 3.06-.07.63a164.46 164.46 0 01-22.84 66.19 167.31 167.31 0 01-48.32 50.6 164.08 164.08 0 01-91.87 28.05zm-42.11-6.79a163.11 163.11 0 00133.26-22.34 166 166 0 0047.95-50.21 163.19 163.19 0 0022.58-65l-23.57-2.77a139.52 139.52 0 01-19.26 55.43 142.15 142.15 0 01-41 42.92 139.4 139.4 0 01-113.76 19.1z" transform="translate(-230.71 -108.91)"/><path class="cls-5" d="M310.94 362.29a126.32 126.32 0 0063.43 53.91 129.32 129.32 0 0020.31 5.92 126.82 126.82 0 0021.06 2.37c3.54.17 7.08 0 10.63-.08l5.29-.4c1.76-.14 3.51-.43 5.26-.63a129.68 129.68 0 0020.65-4.62l3.47 11a141.17 141.17 0 01-22.55 5.05c-1.92.22-3.82.53-5.74.69l-5.77.44c-3.86.12-7.72.27-11.58.1a138.33 138.33 0 01-23-2.59 140.82 140.82 0 01-22.18-6.47A137.83 137.83 0 01301 368.11z" transform="translate(-230.71 -108.91)"/><path class="cls-5" d="M326.31 377.4a122.47 122.47 0 0046.59 34.1 125.4 125.4 0 0028 7.83 126.71 126.71 0 0029.11.95l2.44 28.91a150.14 150.14 0 01-70.6-10.88 151.48 151.48 0 01-57.65-42.19zM335 210.79a123.85 123.85 0 00-16.55 19.59 121.9 121.9 0 00-20.8 72.79l-20 .72a141.91 141.91 0 0124.23-84.73 143.86 143.86 0 0119.24-22.78zM396.81 178.83a125.22 125.22 0 00-18.94 5.17 127.86 127.86 0 00-17.87 8.2l-9.78-17.46a147.84 147.84 0 0120.78-9.56 145.21 145.21 0 0122.07-6zM450 180.51a124.08 124.08 0 00-39-3.51l-1.39-20a144.09 144.09 0 0145.39 4.13zM497.4 204.72a128 128 0 00-16.12-11.28c-1.43-.8-2.82-1.68-4.28-2.42l-4.38-2.24c-3-1.36-6-2.75-9-3.88l7.22-18.66c3.58 1.33 7 2.94 10.51 4.53l5.1 2.61c1.7.87 3.32 1.88 5 2.81a148 148 0 0118.75 13.12zM530 246.8a121.85 121.85 0 00-22.2-32.31l14.47-13.82a141.87 141.87 0 0125.83 37.6zM541.61 298.72a134.35 134.35 0 00-1.61-19.63 118.37 118.37 0 00-4.69-19.09l19-6.34a138.38 138.38 0 015.48 22.21 154.23 154.23 0 011.85 22.82h-20z" transform="translate(-230.71 -108.91)"/></g></g></g></svg>