<svg preserveAspectRatio="none" xmlns="http://www.w3.org/2000/svg" xmlns:xlink="http://www.w3.org/1999/xlink" viewBox="0 0 274.65 274.61"><defs><linearGradient id="a" x1="371.5" y1="217.12" x2="183" y2="452.12" gradientUnits="userSpaceOnUse"><stop offset="0" stop-color="#1aecfc"/><stop offset="1" stop-color="#1c9af9"/></linearGradient><linearGradient id="b" x1="373.05" y1="218.36" x2="184.55" y2="453.36" xlink:href="#a"/><linearGradient id="c" x1="357.68" y1="206.03" x2="169.18" y2="441.03" xlink:href="#a"/><linearGradient id="d" x1="330.36" y1="184.11" x2="141.86" y2="419.12" xlink:href="#a"/><linearGradient id="e" x1="300.23" y1="159.95" x2="111.73" y2="394.95" xlink:href="#a"/><linearGradient id="f" x1="333.77" y1="186.85" x2="145.27" y2="421.85" xlink:href="#a"/><linearGradient id="g" x1="390.32" y1="232.21" x2="201.82" y2="467.21" xlink:href="#a"/><linearGradient id="h" x1="398.53" y1="238.79" x2="210.03" y2="473.79" xlink:href="#a"/><linearGradient id="i" x1="418.45" y1="254.77" x2="229.95" y2="489.77" xlink:href="#a"/><linearGradient id="j" x1="403.2" y1="242.54" x2="214.7" y2="477.54" xlink:href="#a"/><linearGradient id="k" x1="323.53" y1="178.64" x2="135.03" y2="413.64" xlink:href="#a"/><linearGradient id="l" x1="257.3" y1="125.51" x2="68.8" y2="360.51" xlink:href="#a"/><linearGradient id="m" x1="409.06" y1="247.25" x2="220.56" y2="482.24" xlink:href="#a"/><linearGradient id="n" x1="394.69" y1="235.72" x2="206.19" y2="470.72" xlink:href="#a"/><linearGradient id="o" x1="359.94" y1="207.84" x2="171.44" y2="442.84" xlink:href="#a"/><linearGradient id="p" x1="313.82" y1="170.85" x2="125.32" y2="405.85" xlink:href="#a"/><linearGradient id="q" x1="272.37" y1="137.6" x2="83.86" y2="372.6" xlink:href="#a"/><linearGradient id="r" x1="407.47" y1="245.97" x2="218.97" y2="480.97" xlink:href="#a"/><linearGradient id="s" x1="419.58" y1="255.68" x2="231.08" y2="490.68" xlink:href="#a"/><linearGradient id="t" x1="403.1" y1="242.46" x2="214.6" y2="477.46" xlink:href="#a"/><linearGradient id="u" x1="363.75" y1="210.9" x2="175.25" y2="445.9" xlink:href="#a"/><linearGradient id="v" x1="312.74" y1="169.98" x2="124.24" y2="404.98" xlink:href="#a"/><linearGradient id="w" x1="265.97" y1="132.47" x2="77.47" y2="367.47" xlink:href="#a"/><linearGradient id="x" x1="399.24" y1="239.37" x2="210.74" y2="474.37" xlink:href="#a"/><linearGradient id="y" x1="392.88" y1="234.26" x2="204.37" y2="469.26" xlink:href="#a"/><linearGradient id="z" x1="373.28" y1="218.55" x2="184.78" y2="453.55" xlink:href="#a"/><linearGradient id="A" x1="344.07" y1="195.11" x2="155.57" y2="430.11" xlink:href="#a"/><linearGradient id="B" x1="310.62" y1="168.28" x2="122.12" y2="403.28" xlink:href="#a"/><linearGradient id="C" x1="280.85" y1="144.41" x2="92.35" y2="379.4" xlink:href="#a"/><linearGradient id="D" x1="334.55" y1="187.47" x2="146.05" y2="422.47" xlink:href="#a"/><linearGradient id="E" x1="285.89" y1="148.44" x2="97.39" y2="383.44" xlink:href="#a"/><linearGradient id="F" x1="279.22" y1="143.1" x2="90.72" y2="378.1" xlink:href="#a"/><linearGradient id="G" x1="295.14" y1="155.86" x2="106.64" y2="390.86" xlink:href="#a"/><linearGradient id="H" x1="322.73" y1="178" x2="134.23" y2="413" xlink:href="#a"/><linearGradient id="I" x1="352.76" y1="202.08" x2="164.26" y2="437.08" xlink:href="#a"/><linearGradient id="J" x1="318.67" y1="174.74" x2="130.17" y2="409.74" xlink:href="#a"/><linearGradient id="K" x1="263.21" y1="130.26" x2="74.71" y2="365.26" xlink:href="#a"/><linearGradient id="L" x1="255.69" y1="124.22" x2="67.19" y2="359.22" xlink:href="#a"/><linearGradient id="M" x1="234.88" y1="107.53" x2="46.38" y2="342.53" xlink:href="#a"/><linearGradient id="N" x1="250.11" y1="119.74" x2="61.61" y2="354.74" xlink:href="#a"/><linearGradient id="O" x1="330.74" y1="184.42" x2="142.24" y2="419.42" xlink:href="#a"/><linearGradient id="P" x1="396.41" y1="237.1" x2="207.91" y2="472.1" xlink:href="#a"/><linearGradient id="Q" x1="243.13" y1="114.15" x2="54.63" y2="349.15" xlink:href="#a"/><linearGradient id="R" x1="258.38" y1="126.38" x2="69.88" y2="361.38" xlink:href="#a"/><linearGradient id="S" x1="293.79" y1="154.79" x2="105.29" y2="389.79" xlink:href="#a"/><linearGradient id="T" x1="340.12" y1="191.94" x2="151.62" y2="426.94" xlink:href="#a"/><linearGradient id="U" x1="381.05" y1="224.78" x2="192.55" y2="459.78" xlink:href="#a"/><linearGradient id="V" x1="245.85" y1="116.32" x2="57.35" y2="351.32" xlink:href="#a"/><linearGradient id="W" x1="232.65" y1="105.74" x2="44.15" y2="340.74" xlink:href="#a"/><linearGradient id="X" x1="250.11" y1="119.75" x2="61.61" y2="354.75" xlink:href="#a"/><linearGradient id="Y" x1="290.21" y1="151.91" x2="101.71" y2="386.91" xlink:href="#a"/><linearGradient id="Z" x1="341.38" y1="192.95" x2="152.88" y2="427.95" xlink:href="#a"/><linearGradient id="aa" x1="387.64" y1="230.06" x2="199.14" y2="465.06" xlink:href="#a"/><linearGradient id="ab" x1="252.57" y1="121.72" x2="64.07" y2="356.72" xlink:href="#a"/><linearGradient id="ac" x1="259.8" y1="127.52" x2="71.3" y2="362.52" xlink:href="#a"/><linearGradient id="ad" x1="280" y1="143.72" x2="91.5" y2="378.72" xlink:href="#a"/><linearGradient id="ae" x1="309.55" y1="167.42" x2="121.05" y2="402.42" xlink:href="#a"/><linearGradient id="af" x1="343" y1="194.25" x2="154.5" y2="429.25" xlink:href="#a"/><linearGradient id="ag" x1="372.43" y1="217.86" x2="183.93" y2="452.86" xlink:href="#a"/><linearGradient id="ah" x1="317.94" y1="174.15" x2="129.44" y2="409.15" xlink:href="#a"/></defs><g data-name="&lt;编组&gt;"><g data-name="&lt;编组&gt;"><g data-name="&lt;编组&gt;"><g data-name="&lt;编组&gt;"><path data-name="&lt;路径&gt;" d="M305.66 304l.79-1.24c.24-.4.59-.85.9-1.42l1.09-1.89a63.21 63.21 0 004.63-10.71 59.53 59.53 0 002.5-11.4l.15-1.14.07-1 .13-1.69a9.78 9.78 0 00.05-1.09V272s1.56-.5 3.13-1.06 3.14-1.17 3.14-1.17l-.05 1.63v1.87l-.19 2.4a68.32 68.32 0 01-2.32 12.66 67.53 67.53 0 01-4.67 12c-.41.78-.74 1.51-1.11 2.13L313 304c-.49.9-.83 1.38-.83 1.38s-1.65-.31-3.27-.66-3.24-.72-3.24-.72z" transform="translate(-117.14 -132.49)" fill="url(#a)"/></g><g data-name="&lt;编组&gt;"><path data-name="&lt;路径&gt;" d="M275.91 327.55l1.36-.54c.88-.3 2.08-.88 3.54-1.52a64 64 0 0010-6 60 60 0 008.77-7.82c.58-.56 1-1.16 1.45-1.64s.82-.9 1.1-1.28l.9-1.16s1.57.52 3.17 1 3.19.87 3.19.87-1.34 1.94-3.65 4.61A68.17 68.17 0 01285.63 330c-.79.39-1.49.8-2.14 1.08l-1.69.76c-.92.44-1.48.64-1.48.64s-1.16-1.22-2.26-2.45-2.15-2.48-2.15-2.48z" transform="translate(-117.14 -132.49)" fill="url(#b)"/></g><g data-name="&lt;编组&gt;"><path data-name="&lt;路径&gt;" d="M238 329.15l.37.11a10.67 10.67 0 001 .28l1.63.37 1 .24 1.13.19a61.19 61.19 0 0011.71 1 62.16 62.16 0 0011.69-1.18c.78-.14 1.49-.35 2.12-.48s1.19-.25 1.63-.4l1.4-.4s1 1.35 2 2.67 2.07 2.57 2.07 2.57l-.4.14c-.26.08-.63.25-1.13.37l-1.78.5-1.09.32-1.23.27a66.66 66.66 0 01-12.77 1.78 68.86 68.86 0 01-12.94-.66c-.87-.11-1.66-.3-2.36-.41s-1.32-.2-1.82-.34l-1.57-.37s-.24-1.65-.41-3.27-.25-3.3-.25-3.3z" transform="translate(-117.14 -132.49)" fill="url(#c)"/></g><g data-name="&lt;编组&gt;"><path data-name="&lt;路径&gt;" d="M206.41 308.3s1.31 1.7 3.53 4a61.81 61.81 0 0019 13.54c1.44.7 2.69 1.14 3.55 1.49a11.94 11.94 0 001.37.51s0 1.63.06 3.29.16 3.34.16 3.34l-1.52-.52c-.48-.17-1.08-.34-1.74-.6l-2.23-.88a69.69 69.69 0 01-11.37-6 66.57 66.57 0 01-10.06-8.1c-.66-.59-1.19-1.2-1.69-1.72l-1.28-1.34-1.05-1.23s.77-1.48 1.58-2.9c.4-.71.83-1.43 1.15-2z" transform="translate(-117.14 -132.49)" fill="url(#d)"/></g><g data-name="&lt;编组&gt;"><path data-name="&lt;路径&gt;" d="M192.95 272.95l.12 1.47.12 1.69.28 2.17a61.87 61.87 0 002.68 11.35 61.15 61.15 0 004.8 10.64c.76 1.41 1.52 2.5 2 3.3.25.4.44.71.59.91l.23.31s-1 1.33-1.88 2.71-1.82 2.81-1.82 2.81l-.92-1.31c-.29-.42-.68-.92-1.07-1.51l-1.29-2a69.31 69.31 0 01-5.7-11.53 65.77 65.77 0 01-3.39-12.39l-.23-1.24c-.06-.4-.1-.78-.14-1.13l-.24-1.84a11.7 11.7 0 01-.12-1.19v-.42s1.5-.74 3-1.43l2.98-1.37z" transform="translate(-117.14 -132.49)" fill="url(#e)"/></g></g><path data-name="&lt;路径&gt;" d="M180.57 273.84l.2 2.56c0 .84.19 1.86.34 3.06.08.6.13 1.25.26 1.93l.39 2.17a73.12 73.12 0 009.07 24 75 75 0 0025.55 25.68 81.86 81.86 0 009 4.63 77.64 77.64 0 009.83 3.38 72 72 0 0010.39 2l1.32.17 1.33.09c.89.06 1.78.16 2.67.19 1.79 0 3.58.13 5.37 0s3.57-.18 5.36-.3c.89-.07 1.77-.22 2.65-.32l1.32-.16 1.31-.24a71.21 71.21 0 0010.26-2.51 75.48 75.48 0 009.65-3.88 82.29 82.29 0 008.81-5.08 74.89 74.89 0 0024.21-26.94 73 73 0 007.83-24.44l.28-2.19c.08-.69.1-1.34.16-1.95.09-1.21.2-2.24.19-3.08l.07-2.58h4.14l-.07 2.72c0 .89-.1 2-.2 3.25-.06.64-.08 1.33-.17 2.06l-.3 2.32a77.14 77.14 0 01-8.28 25.81A79 79 0 01298 334.67a86.36 86.36 0 01-9.3 5.36 79.6 79.6 0 01-10.19 4.1 75.36 75.36 0 01-10.84 2.65l-1.38.25-1.4.17c-.93.11-1.86.26-2.8.34-1.88.13-3.76.32-5.65.32h-5.67c-.94 0-1.88-.14-2.82-.2l-1.41-.1-1.4-.18a76.15 76.15 0 01-11-2.1 81.75 81.75 0 01-10.38-3.58 86 86 0 01-9.55-4.89 79.09 79.09 0 01-27-27.11 77.26 77.26 0 01-9.58-25.36l-.41-2.3c-.13-.72-.18-1.41-.27-2-.16-1.27-.32-2.35-.36-3.23l-.21-2.7z" transform="translate(-117.14 -132.49)" fill="url(#f)"/><path data-name="&lt;路径&gt;" d="M341.51 302.38a14 14 0 00.49-1.33l1.2-3.53c.41-1.49.94-3.21 1.42-5.08s.95-3.88 1.26-5.91a92.82 92.82 0 001.36-11.24c.11-1.54.09-2.83.13-3.73v-1.42h4.14v1.48c0 .94 0 2.29-.14 3.9a97 97 0 01-1.42 11.74c-.33 2.13-.88 4.21-1.32 6.18s-1 3.76-1.48 5.31l-1.25 3.69c-.29.9-.51 1.39-.51 1.39z" transform="translate(-117.14 -132.49)" fill="url(#g)"/><path data-name="&lt;路径&gt;" d="M351.72 302.65l.46-1.35c.31-.85.65-2.1 1.07-3.59l.68-2.41.63-2.72c.48-1.88.81-3.92 1.17-6s.56-4.1.83-6 .29-3.73.42-5.28l.14-5.16h9.83l-.16 5.65c-.13 1.69-.26 3.67-.46 5.78s-.49 4.36-.9 6.59-.77 4.47-1.29 6.53l-.69 3-.74 2.64c-.47 1.63-.84 3-1.18 3.94l-.53 1.53z" transform="translate(-117.14 -132.49)" fill="url(#h)"/><path data-name="&lt;路径&gt;" d="M346.75 357.72l.75-.78c.48-.52 1.22-1.25 2.07-2.25l3.11-3.6c1.16-1.43 2.43-3.06 3.82-4.85a128.75 128.75 0 0016.24-28.86 125.32 125.32 0 005.47-16.88c.65-2.76 1.28-5.43 1.69-8 .22-1.28.46-2.52.64-3.73l.45-3.5c.32-2.24.46-4.31.59-6.14l.19-2.57c0-.79.05-1.52.07-2.18l.1-4.13h9.83l-.11 4.45c0 .71 0 1.49-.08 2.34l-.2 2.76c-.15 2-.3 4.2-.64 6.61l-.49 3.77c-.19 1.3-.45 2.64-.69 4-.45 2.76-1.12 5.64-1.83 8.61a135.16 135.16 0 01-5.87 18.21 138.63 138.63 0 01-17.5 31.09c-1.5 1.92-2.87 3.68-4.12 5.22l-3.35 3.88c-.92 1.08-1.71 1.87-2.23 2.43l-.8.85z" transform="translate(-117.14 -132.49)" fill="url(#i)"/><path data-name="&lt;路径&gt;" d="M237.33 396.12l4.12.52c2.63.2 6.38.57 10.9.61a125.75 125.75 0 0032.87-3.71 127.9 127.9 0 0030.86-12.11c2-1.14 3.78-2.13 5.33-3.12l4-2.57c2.18-1.49 3.39-2.38 3.39-2.38l5.74 8s-1.31 1-3.66 2.56l-4.32 2.77c-1.67 1.06-3.63 2.14-5.74 3.36a137.78 137.78 0 01-33.25 13.05 135.57 135.57 0 01-35.39 4c-4.85 0-8.9-.44-11.73-.66l-4.44-.55z" transform="translate(-117.14 -132.49)" fill="url(#j)"/><path data-name="&lt;路径&gt;" d="M142 329.95s.16.34.51 1l1.52 2.66c.66 1.15 1.45 2.54 2.46 4.08s2.08 3.32 3.42 5.14l2 2.87c.72 1 1.51 2 2.31 3 1.57 2.06 3.38 4.11 5.23 6.25a128.2 128.2 0 0040.54 30.23c2.07.93 3.94 1.83 5.66 2.5l4.44 1.75c1.24.47 2.23.78 2.9 1l1 .35-2.99 9.28-1.11-.38c-.72-.25-1.79-.59-3.12-1.09l-4.77-1.88c-1.84-.73-3.87-1.7-6.09-2.7a138 138 0 01-43.66-32.55c-2-2.29-3.94-4.5-5.64-6.72-.86-1.1-1.71-2.16-2.48-3.22l-2.21-3.09c-1.44-2-2.6-3.88-3.68-5.54s-1.94-3.16-2.65-4.39l-1.64-2.87c-.38-.66-.55-1-.55-1z" transform="translate(-117.14 -132.49)" fill="url(#k)"/><path data-name="&lt;路径&gt;" d="M127 272.71v1.53c0 1 .06 2.37.2 4 .2 3.35.67 7.8 1.39 12.23s1.72 8.8 2.58 12.06l1.11 3.91c.27.94.44 1.48.44 1.48l-9.38 2.94s-.18-.58-.47-1.59l-1.2-4.22c-.92-3.51-2-8.22-2.78-13s-1.28-9.57-1.5-13.17c-.15-1.8-.19-3.3-.22-4.35v-1.65z" transform="translate(-117.14 -132.49)" fill="url(#l)"/><path data-name="&lt;路径&gt;" d="M319.74 349l3.9-3.39c1.11-1.08 2.45-2.3 3.81-3.67s2.81-2.86 4.13-4.45l2-2.33 1.85-2.35c1.23-1.5 2.25-3 3.15-4.26s1.6-2.35 2.09-3.11l.77-1.2 8.33 5.22-.84 1.31c-.53.83-1.29 2-2.29 3.41s-2.11 3-3.45 4.66l-2 2.57L339 344c-1.45 1.74-3.07 3.32-4.52 4.87s-3 2.85-4.18 4l-4.3 3.74z" transform="translate(-117.14 -132.49)" fill="url(#m)"/><path data-name="&lt;路径&gt;" d="M268.11 371.53s2.06-.22 5.1-.81c1.53-.24 3.29-.65 5.18-1.1s3.87-1 5.86-1.57 3.93-1.29 5.76-1.92 3.5-1.35 4.92-2l3.41-1.54c.41-.18.74-.33.95-.45l.33-.17 4.33 8.82-.36.18c-.23.13-.59.29-1 .49l-3.74 1.69c-1.56.68-3.42 1.37-5.39 2.16s-4.15 1.46-6.32 2.11-4.35 1.29-6.43 1.73-4 .93-5.68 1.2c-3.34.64-5.59.89-5.59.89z" transform="translate(-117.14 -132.49)" fill="url(#n)"/><path data-name="&lt;路径&gt;" d="M212.37 363.43l1.3.59c.81.4 2 .84 3.47 1.42.72.28 1.5.61 2.34.9l2.65.9c1.82.66 3.83 1.17 5.82 1.75s4 1 5.91 1.41 3.69.67 5.22.92l3.72.47c.9.12 1.41.17 1.41.17l-1 9.78s-.56-.05-1.55-.18l-4.06-.56c-1.68-.27-3.63-.63-5.72-1s-4.29-.94-6.48-1.54-4.38-1.2-6.38-1.92l-2.9-1c-.92-.32-1.77-.68-2.56-1-1.58-.63-2.91-1.12-3.8-1.55l-1.42-.64z" transform="translate(-117.14 -132.49)" fill="url(#o)"/><path data-name="&lt;路径&gt;" d="M169.3 327.14l3 4.21c1 1.21 2.06 2.66 3.29 4.15s2.57 3.07 4 4.54l2.13 2.23 2.16 2.07c1.38 1.36 2.76 2.53 3.94 3.54s2.18 1.82 2.89 2.38l1.12.88-6 7.79-1.22-1c-.78-.61-1.9-1.48-3.17-2.61s-2.8-2.39-4.31-3.88l-2.36-2.27-2.33-2.44c-1.59-1.61-3-3.38-4.42-5s-2.55-3.21-3.61-4.54l-3.28-4.61z" transform="translate(-117.14 -132.49)" fill="url(#p)"/><path data-name="&lt;路径&gt;" d="M151.89 273.57v1.42l.28 3.74a106.58 106.58 0 001.62 11.27c.42 2 .89 4 1.36 5.92s1 3.62 1.48 5.09l1.2 3.55c.14.43.27.76.36 1l.14.35-9.2 3.46-.15-.38c-.1-.25-.24-.61-.39-1.08l-1.32-3.91c-.53-1.61-1-3.54-1.62-5.58s-1-4.27-1.5-6.49a116.45 116.45 0 01-1.74-12.33l-.3-4.09v-1.55z" transform="translate(-117.14 -132.49)" fill="url(#q)"/><path data-name="&lt;路径&gt;" d="M368.15 308.2l.53-1.58c.36-1 .76-2.46 1.26-4.2l.79-2.82.74-3.18c.55-2.2.95-4.59 1.37-7s.66-4.79 1-7 .35-4.36.49-6.17c.13-3.61.17-6 .17-6h2.46s0 2.46-.17 6.14c-.14 1.84-.28 4-.5 6.29s-.54 4.75-1 7.18-.84 4.86-1.4 7.11l-.76 3.25-.8 2.88c-.51 1.78-.92 3.27-1.28 4.29l-.57 1.61z" transform="translate(-117.14 -132.49)" fill="url(#r)"/><path data-name="&lt;路径&gt;" d="M330.78 362.41s1.84-1.56 4.56-4c1.31-1.25 2.86-2.68 4.45-4.29s3.27-3.34 4.82-5.2l2.36-2.73 2.17-2.74c1.43-1.76 2.63-3.5 3.68-5s1.87-2.74 2.44-3.63l.9-1.4 2.08 1.31-.91 1.43c-.58.91-1.4 2.21-2.49 3.71s-2.3 3.28-3.75 5.08l-2.21 2.79-2.4 2.78c-1.58 1.89-3.34 3.62-4.92 5.3s-3.21 3.1-4.55 4.38c-2.77 2.45-4.65 4-4.65 4z" transform="translate(-117.14 -132.49)" fill="url(#s)"/><path data-name="&lt;路径&gt;" d="M270.4 388.72s2.4-.26 6-.95c1.79-.29 3.85-.76 6.06-1.28s4.53-1.2 6.86-1.84 4.6-1.51 6.74-2.25 4.09-1.58 5.76-2.3l4-1.81c.48-.22.86-.39 1.11-.53l.39-.2 1.08 2.21-.4.2c-.26.14-.64.32-1.13.54l-4.08 1.84c-1.7.74-3.72 1.5-5.87 2.35s-4.52 1.59-6.88 2.3-4.74 1.4-7 1.88-4.36 1-6.19 1.31c-3.64.7-6.09 1-6.09 1z" transform="translate(-117.14 -132.49)" fill="url(#t)"/><path data-name="&lt;路径&gt;" d="M205.26 379.25l1.52.68c1 .46 2.37 1 4.06 1.66.85.33 1.75.71 2.73 1.05l3.1 1.05c2.14.77 4.48 1.38 6.81 2s4.7 1.13 6.91 1.64 4.31.79 6.1 1.08l4.34.56c1 .13 1.65.19 1.65.19l-.24 2.45s-.61-.06-1.68-.2l-4.43-.57c-1.83-.29-4-.69-6.23-1.1s-4.67-1-7.06-1.68-4.77-1.31-6.95-2.09l-3.16-.97c-1-.35-1.93-.74-2.79-1.07-1.72-.69-3.17-1.23-4.14-1.69l-1.55-.7z" transform="translate(-117.14 -132.49)" fill="url(#u)"/><path data-name="&lt;路径&gt;" d="M154.92 336.84l3.5 4.92c1.12 1.42 2.4 3.11 3.84 4.85s3 3.58 4.71 5.3l2.49 2.6 2.52 2.42c1.61 1.59 3.23 3 4.6 4.14s2.55 2.13 3.38 2.78l1.31 1-1.5 1.95-1.33-1c-.85-.66-2.07-1.61-3.45-2.84s-3-2.6-4.69-4.22l-2.57-2.47-2.54-2.66c-1.73-1.75-3.28-3.67-4.81-5.41s-2.78-3.5-3.92-4.95c-2.17-3-3.57-5-3.57-5z" transform="translate(-117.14 -132.49)" fill="url(#v)"/><path data-name="&lt;路径&gt;" d="M134.56 274.2v1.66l.32 4.36a124 124 0 001.86 13.15c.49 2.37 1 4.73 1.6 6.92s1.16 4.23 1.73 6l1.41 4.15c.17.5.31.89.42 1.15l.16.4-2.3.86-.16-.41c-.11-.27-.26-.67-.43-1.18l-1.4-4.26c-.58-1.76-1.13-3.85-1.77-6.08s-1.13-4.65-1.63-7.07a126.5 126.5 0 01-1.89-13.42l-.33-4.43v-1.69z" transform="translate(-117.14 -132.49)" fill="url(#w)"/><path data-name="&lt;路径&gt;" d="M318.31 337.29l1-1c.67-.6 1.55-1.54 2.62-2.66a94.23 94.23 0 007.28-8.67c1.19-1.68 2.42-3.34 3.42-5 .51-.82 1-1.59 1.49-2.35l1.24-2.16c.8-1.32 1.36-2.49 1.77-3.29l.65-1.26 3.71 1.83-.67 1.32c-.43.84-1 2-1.85 3.43l-1.3 2.26c-.46.8-1 1.6-1.55 2.46-1.05 1.72-2.33 3.45-3.58 5.21a98.39 98.39 0 01-7.61 9.06c-1.11 1.17-2 2.15-2.73 2.78l-1.07 1z" transform="translate(-117.14 -132.49)" fill="url(#x)"/><path data-name="&lt;路径&gt;" d="M282.18 358.52l1.34-.46c.85-.3 2.08-.67 3.52-1.23l2.32-.91 1.27-.5 1.29-.59 2.71-1.22 2.74-1.4 1.37-.7 1.33-.76 2.58-1.48c1.61-1.06 3.17-2 4.42-2.88l3-2.17 1.11-.88 2.53 3.27-1.16.91-3.18 2.26c-1.31.94-2.93 1.9-4.62 3l-2.7 1.55-1.39.8-1.43.73-2.86 1.46-2.83 1.28-1.35.61-1.32.52-2.42 1c-1.5.58-2.8 1-3.68 1.28l-1.4.47z" transform="translate(-117.14 -132.49)" fill="url(#y)"/><path data-name="&lt;路径&gt;" d="M240.37 361.67l1.41.18c.9.1 2.17.3 3.71.44a95.35 95.35 0 0011.32.38 94.35 94.35 0 0011.29-.94c1.53-.22 2.79-.49 3.68-.63l1.39-.25.83 4.05-1.46.26c-.93.15-2.25.43-3.84.66a98.5 98.5 0 01-11.79 1 99.52 99.52 0 01-11.82-.4c-1.61-.15-2.94-.36-3.87-.46l-1.47-.19z" transform="translate(-117.14 -132.49)" fill="url(#z)"/><path data-name="&lt;路径&gt;" d="M201.47 346.13l1.16.82 3.14 2c1.31.82 2.89 1.69 4.56 2.65s3.52 1.88 5.42 2.68a92.84 92.84 0 0010.55 4.09c1.47.47 2.72.79 3.58 1l1.36.39-1 4-1.42-.4c-.9-.27-2.21-.6-3.74-1.09A97 97 0 01214 358c-2-.84-3.86-1.91-5.66-2.8s-3.4-1.91-4.77-2.77l-3.28-2.1-1.21-.85z" transform="translate(-117.14 -132.49)" fill="url(#A)"/><path data-name="&lt;路径&gt;" d="M173.31 315.08l.71 1.23c.44.78 1.08 1.9 1.94 3.19l1.34 2.1 1.61 2.27c1.08 1.6 2.41 3.18 3.67 4.81a95.31 95.31 0 007.72 8.29l1.53 1.46c.46.43.89.77 1.22 1.07l1.07.93-2.69 3.15-1.12-1c-.35-.31-.8-.67-1.28-1.12l-1.61-1.46a99.46 99.46 0 01-8.06-8.66c-1.32-1.7-2.7-3.35-3.83-5l-1.68-2.37-1.41-2.19c-.89-1.34-1.56-2.51-2-3.33l-.74-1.28z" transform="translate(-117.14 -132.49)" fill="url(#B)"/><path data-name="&lt;路径&gt;" d="M161.66 274.83l.11 1.41c.08.9.13 2.19.32 3.72a92.49 92.49 0 001.91 11.16c.41 2 1 4 1.56 5.84s1.17 3.54 1.68 5l1.37 3.47c.16.42.3.75.4 1l.15.34-3.8 1.65-.16-.35c-.11-.23-.26-.57-.42-1l-1.43-3.63c-.53-1.52-1.15-3.3-1.75-5.22s-1.19-4-1.63-6.1a96.68 96.68 0 01-2-11.65c-.19-1.6-.24-2.95-.33-3.89l-.11-1.48z" transform="translate(-117.14 -132.49)" fill="url(#C)"/><path data-name="&lt;路径&gt;" d="M170.86 274.36l.22 2.89c0 .95.21 2.1.38 3.46.1.68.16 1.41.29 2.19l.44 2.46a82.85 82.85 0 0010.27 27.19 84.68 84.68 0 0028.89 29 91.48 91.48 0 0010.24 5.24 87.34 87.34 0 0011.13 3.83 81.74 81.74 0 0011.76 2.25l1.5.19 1.51.11c1 .06 2 .18 3 .21 2 0 4 .15 6.07 0s4-.2 6-.35c1-.08 2-.25 3-.36l1.5-.19 1.48-.26a81 81 0 0011.62-2.84 85.2 85.2 0 0010.92-4.4 91.89 91.89 0 0010-5.75 84.63 84.63 0 0027.38-30.46 82.73 82.73 0 008.87-27.67l.32-2.48c.09-.78.12-1.52.18-2.2.1-1.37.22-2.53.21-3.48l.08-2.91h2.28l-.08 3c0 1-.11 2.17-.21 3.58-.06.7-.09 1.46-.19 2.26l-.33 2.55a85 85 0 01-9.12 28.43 86.91 86.91 0 01-28.12 31.29 94.17 94.17 0 01-10.24 5.9 87.49 87.49 0 01-11.22 4.52 83.24 83.24 0 01-11.89 2.99l-1.52.27-1.54.19c-1 .12-2 .29-3.08.37-2.07.15-4.13.35-6.21.36s-4.15 0-6.23 0c-1 0-2.07-.15-3.1-.22l-1.55-.11-1.54-.19a84 84 0 01-12.08-2.31 89.59 89.59 0 01-11.44-3.94 93.73 93.73 0 01-10.52-5.38 87 87 0 01-29.68-29.82A85.13 85.13 0 01170 285.79l-.45-2.53c-.14-.79-.2-1.55-.3-2.25-.18-1.4-.35-2.58-.39-3.56l-.23-3z" transform="translate(-117.14 -132.49)" fill="url(#D)"/></g><g data-name="&lt;编组&gt;"><g data-name="&lt;编组&gt;"><g data-name="&lt;编组&gt;"><path data-name="&lt;路径&gt;" d="M204.07 234.4l-.36.5c-.25.32-.57.82-1 1.46s-.94 1.38-1.43 2.31-1.14 1.92-1.69 3.09a56.1 56.1 0 00-3.44 8.09 56.71 56.71 0 00-2.46 9.76 68.41 68.41 0 00-.85 10.12 69.65 69.65 0 00.64 8.85c.15 1.28.44 2.43.58 3.47l.6 2.64c.14.74.36 1.29.46 1.68l.17.59s-1.34 1-2.67 2-2.57 2.07-2.57 2.07a24 24 0 01-.76-2.48c-.22-.8-.54-1.75-.76-2.88s-.58-2.38-.79-3.79a68.62 68.62 0 01-.51-20.85 65.15 65.15 0 012.31-10.86 69 69 0 013.46-9c.57-1.3 1.24-2.43 1.73-3.47l1.49-2.6c.4-.73.8-1.25 1-1.63l.37-.57s1.62.33 3.23.72 3.25.78 3.25.78z" transform="translate(-117.14 -132.49)" fill="url(#E)"/></g><g data-name="&lt;编组&gt;"><path data-name="&lt;路径&gt;" d="M234.34 211.58l-.36.12c-.23.09-.59.17-1 .36l-1.56.62-1 .37-1 .48a60.39 60.39 0 00-10.18 5.76 63.25 63.25 0 00-8.94 7.61l-1.51 1.58-1.1 1.28-.72.82-.24.3s-1.54-.54-3.12-1-3.2-1-3.2-1l1-1.27c.6-.84 1.61-1.91 2.74-3.26a71.41 71.41 0 019.54-8.72 65.64 65.64 0 0111-6.75c.78-.41 1.53-.69 2.18-1s1.21-.58 1.69-.74l1.5-.59s1.13 1.22 2.19 2.46 2.09 2.57 2.09 2.57z" transform="translate(-117.14 -132.49)" fill="url(#F)"/></g><g data-name="&lt;编组&gt;"><path data-name="&lt;路径&gt;" d="M272.24 210.81l-1.4-.4c-.88-.3-2.19-.53-3.74-.92a64.52 64.52 0 00-11.67-1.26 62.39 62.39 0 00-11.72.93c-1.58.24-2.86.58-3.77.78a13.16 13.16 0 00-1.42.35s-.92-1.34-1.91-2.68-2-2.66-2-2.66l1.55-.43c.5-.13 1.08-.34 1.78-.49l2.33-.54A69.26 69.26 0 01266 203c.86.16 1.66.28 2.36.42l1.8.42 1.16.26a3.29 3.29 0 01.41.11s.19 1.67.32 3.33.19 3.27.19 3.27z" transform="translate(-117.14 -132.49)" fill="url(#G)"/></g><g data-name="&lt;编组&gt;"><path data-name="&lt;路径&gt;" d="M303.38 232.4l-.91-1.16-.47-.61-.6-.68-1.4-1.66a61.72 61.72 0 00-18.71-14l-2-.89a14.91 14.91 0 00-1.54-.66l-1.36-.54v-1-2.28c0-1.64-.1-3.3-.1-3.3l1.53.51 1.71.69c.66.26 1.42.53 2.21.92A65.92 65.92 0 01293 214a70.2 70.2 0 019.88 8.33l1.67 1.74c.48.53.88 1 1.22 1.4l1.06 1.22s-.82 1.47-1.68 2.9-1.77 2.81-1.77 2.81z" transform="translate(-117.14 -132.49)" fill="url(#H)"/></g><g data-name="&lt;编组&gt;"><path data-name="&lt;路径&gt;" d="M316 268.07v-1.48c-.11-.93-.14-2.28-.34-3.86a58.35 58.35 0 00-2.4-11.43 63.29 63.29 0 00-4.55-10.75l-1.09-1.89-.45-.79-.42-.65-.82-1.22.62-.83c.38-.5.86-1.18 1.33-1.85.94-1.35 1.85-2.74 1.85-2.74l.94 1.31 1 1.56c.39.6.84 1.27 1.26 2a65.71 65.71 0 015.44 11.65 70.3 70.3 0 013.13 12.47c.19 1.75.45 3.2.48 4.23l.12 1.61-.94.44c-.56.26-1.31.6-2.09.92-1.54.7-3.07 1.3-3.07 1.3z" transform="translate(-117.14 -132.49)" fill="url(#I)"/></g></g><path data-name="&lt;路径&gt;" d="M328.39 267.46v-1.52l-.09-1.15a69.72 69.72 0 00-.88-7.48 73.78 73.78 0 00-20.1-39.3 72.1 72.1 0 00-7.33-6.54c-1.29-1.08-2.71-2-4.09-3s-2.86-1.9-4.39-2.72a73.31 73.31 0 00-19.8-7.9 70 70 0 00-10.87-1.74 73.65 73.65 0 00-51.32 15 75 75 0 00-7.69 6.78 80.49 80.49 0 00-6.43 7.43 76.43 76.43 0 00-9 15.5 73.46 73.46 0 00-5.84 26.07c0 1.63-.11 3.09 0 4.36s0 2.35.12 3.21l.2 2.67-4.12.4-.21-2.81c-.11-.91-.07-2.06-.12-3.39s0-2.87 0-4.59a78.91 78.91 0 011.44-12.27 78 78 0 014.73-15.26 80.57 80.57 0 019.5-16.37 84.61 84.61 0 016.78-7.84 79.13 79.13 0 018.12-7.16A78.11 78.11 0 01261.15 192a74.12 74.12 0 0111.48 1.84 77.45 77.45 0 0120.92 8.35c1.62.87 3.11 1.93 4.64 2.88s3 2 4.32 3.18a76.23 76.23 0 017.73 6.9 77.92 77.92 0 0121.22 41.5 73.84 73.84 0 01.93 7.9l.1 1.21V267.37z" transform="translate(-117.14 -132.49)" fill="url(#J)"/><path data-name="&lt;路径&gt;" d="M168.19 235.22l-.66 1.68c-.46 1.06-.92 2.64-1.58 4.5a97.91 97.91 0 00-3.33 14.08 104.47 104.47 0 00-1.09 14.45l.13 4.78.14 1.81-4.13.3-.14-1.89-.13-5a108.58 108.58 0 011.14-15.08 102.07 102.07 0 013.46-14.7c.68-1.95 1.17-3.6 1.65-4.71l.69-1.76z" transform="translate(-117.14 -132.49)" fill="url(#K)"/><path data-name="&lt;路径&gt;" d="M158 234.7l-.63 1.85c-.4 1.18-1 2.85-1.54 4.91a97.41 97.41 0 00-3.14 15.28c-.18 1.41-.37 2.82-.45 4.21s-.24 2.76-.28 4.09c-.07 2.66-.16 5.14-.06 7.27l.08 2.9.17 2.23.15 1.95-9.79.91-.16-2.13-.18-2.45-.17-3.17c-.11-2.33 0-5 .06-8 .05-1.45.2-3 .31-4.48s.29-3.07.49-4.61a107.27 107.27 0 013.44-16.75c.6-2.26 1.25-4.09 1.69-5.38l.69-2z" transform="translate(-117.14 -132.49)" fill="url(#L)"/><path data-name="&lt;路径&gt;" d="M164.19 179.75l-3.11 3.25c-1 1-2.12 2.35-3.44 3.86s-2.72 3.26-4.23 5.2l-1.15 1.48-1.14 1.59-2.37 3.35c-1.51 2.38-3.19 4.83-4.68 7.52s-3 5.48-4.46 8.36-2.74 5.91-3.89 9a122 122 0 00-5.64 18.43l-.5 2.21-.41 2.21-.75 4.27-.52 4.07c-.17 1.31-.32 2.59-.4 3.81-.45 4.89-.49 9-.52 11.83l.11 4.49-9.82.37-.12-4.83c0-3.07.08-7.47.56-12.74.09-1.32.25-2.69.43-4.1l.56-4.38.81-4.6.44-2.38.54-2.4a131.87 131.87 0 016.08-19.86c1.25-3.31 2.74-6.52 4.2-9.68s3.11-6.17 4.81-9 3.41-5.55 5-8.1l2.55-3.61 1.23-1.71 1.24-1.6c1.63-2.09 3.12-4 4.55-5.6s2.62-3.05 3.7-4.15l3.35-3.5z" transform="translate(-117.14 -132.49)" fill="url(#M)"/><path data-name="&lt;路径&gt;" d="M274.49 143.88s-.37-.08-1.07-.17l-3-.39c-2.62-.37-6.37-.7-10.88-.9a128.5 128.5 0 00-32.93 3 125.32 125.32 0 00-17 5.06c-2.64 1-5.19 2-7.54 3.13-1.18.54-2.34 1-3.43 1.59l-3.15 1.61c-2 1-3.8 2.09-5.4 3s-2.95 1.78-4.06 2.49l-2.58 1.66c-.59.39-.89.62-.89.62l-5.55-8.11s.33-.24 1-.66l2.77-1.79c1.2-.77 2.64-1.71 4.37-2.68s3.63-2.14 5.82-3.23l3.39-1.73c1.17-.6 2.43-1.13 3.7-1.72 2.53-1.19 5.28-2.27 8.13-3.38a135.16 135.16 0 0118.33-5.46 138.38 138.38 0 0135.46-3.2c4.85.21 8.9.57 11.72 1l3.27.43c.76.09 1.15.18 1.15.18z" transform="translate(-117.14 -132.49)" fill="url(#N)"/><path data-name="&lt;路径&gt;" d="M368.22 212.24l-.49-1c-.33-.63-.78-1.56-1.42-2.72l-2.37-4.13c-.92-1.59-2.08-3.31-3.3-5.22a128.69 128.69 0 00-21.74-24.92 127.13 127.13 0 00-14-10.79c-2.37-1.54-4.67-3-6.94-4.28s-4.42-2.44-6.44-3.46-3.92-1.86-5.59-2.63-3.17-1.35-4.4-1.84l-2.86-1.12c-.66-.26-1-.37-1-.37l3.33-9.25s.39.12 1.1.39l3.08 1.21c1.32.53 2.94 1.14 4.74 2s3.87 1.7 6 2.84 4.53 2.31 6.94 3.73 4.92 2.95 7.48 4.61a137 137 0 0115.11 11.62 138.57 138.57 0 0123.41 26.84c1.31 2.05 2.55 3.91 3.55 5.63l2.56 4.45c.69 1.24 1.18 2.25 1.54 2.93l.53 1z" transform="translate(-117.14 -132.49)" fill="url(#O)"/><path data-name="&lt;路径&gt;" d="M382 269.79l-.14-5.58c-.16-3.35-.49-7.81-1.13-12.25s-1.5-8.84-2.3-12.11c-.36-1.64-.74-3-1-3.94l-.43-1.47 9.45-2.72.45 1.6c.29 1 .7 2.47 1.09 4.24.86 3.52 1.82 8.26 2.48 13s1 9.59 1.21 13.19l.15 6H382z" transform="translate(-117.14 -132.49)" fill="url(#P)"/><path data-name="&lt;路径&gt;" d="M191 189.1l-1.12.88c-.73.54-1.69 1.41-2.86 2.42-.58.51-1.23 1-1.88 1.65l-2 1.93c-1.43 1.31-2.81 2.85-4.25 4.34s-2.74 3.1-4 4.59-2.35 2.92-3.24 4.19l-2.17 3.05c-.51.75-.78 1.19-.78 1.19l-8.2-5.41s.29-.48.86-1.3l2.38-3.35c1-1.39 2.25-2.91 3.55-4.59s2.83-3.35 4.36-5 3.09-3.31 4.65-4.75l2.22-2.11c.71-.66 1.42-1.25 2.06-1.81 1.29-1.11 2.34-2.05 3.13-2.65l1.22-1z" transform="translate(-117.14 -132.49)" fill="url(#Q)"/><path data-name="&lt;路径&gt;" d="M243.15 167.76l-1.41.18c-.89.13-2.18.24-3.71.51a102.61 102.61 0 00-11.1 2.44l-3 .84-2.83 1c-1.85.59-3.52 1.28-5 1.85s-2.63 1.09-3.45 1.46l-1.3.59-4.13-8.92 1.42-.64c.9-.41 2.19-1 3.78-1.6s3.42-1.38 5.44-2l3.11-1 3.25-.93a112.43 112.43 0 0112.17-2.67c1.67-.3 3.09-.42 4.07-.56l1.55-.19z" transform="translate(-117.14 -132.49)" fill="url(#R)"/><path data-name="&lt;路径&gt;" d="M298.69 177.13l-1.3-.59c-.83-.36-2-.93-3.42-1.52s-3.11-1.27-4.94-1.91-3.78-1.34-5.78-1.86l-3-.84-2.91-.68c-1.88-.47-3.67-.78-5.19-1l-2.08-.37-1.62-.21-1.41-.18 1.2-9.76 1.54.2 1.77.23 2.28.4c1.67.29 3.63.63 5.69 1.14l3.19.75 3.26.92c2.19.58 4.32 1.38 6.34 2s3.83 1.48 5.42 2.09 2.85 1.27 3.75 1.67l1.42.64z" transform="translate(-117.14 -132.49)" fill="url(#S)"/><path data-name="&lt;路径&gt;" d="M340.89 214.43l-.77-1.2c-.47-.78-1.24-1.81-2.13-3.08-.45-.63-.92-1.32-1.46-2l-1.73-2.2c-1.16-1.55-2.57-3.07-3.91-4.64s-2.82-3-4.18-4.4-2.69-2.61-3.86-3.63L320 190.8c-.69-.58-1.11-.89-1.11-.89l6.18-7.65s.45.34 1.21 1l3.1 2.69c1.28 1.11 2.68 2.52 4.23 4s3.06 3.14 4.58 4.82 3 3.39 4.28 5.09l1.89 2.41c.59.77 1.11 1.54 1.6 2.22 1 1.39 1.82 2.53 2.33 3.38l.84 1.31z" transform="translate(-117.14 -132.49)" fill="url(#T)"/><path data-name="&lt;路径&gt;" d="M357.09 268.37v-1.42c0-.9 0-2.2-.16-3.74a99.92 99.92 0 00-1.35-11.28c-.19-1-.35-2-.55-3l-.72-2.93c-.4-1.9-.94-3.63-1.36-5.12s-.83-2.72-1.12-3.57l-.46-1.35 9.28-3.24.5 1.48c.32.94.79 2.28 1.23 3.92s1 3.53 1.49 5.61l.73 3.19c.22 1.09.41 2.21.61 3.33a109.81 109.81 0 011.48 12.36c.16 1.69.14 3.11.18 4.09v1.55z" transform="translate(-117.14 -132.49)" fill="url(#U)"/><path data-name="&lt;路径&gt;" d="M141.66 228.77l-.67 2c-.41 1.26-1.08 3-1.66 5.21a121.61 121.61 0 00-3.57 16.2 126.05 126.05 0 00-1.28 16.5c-.05 2.25.06 4.13.08 5.45s.07 2.07.07 2.07l-2.45.13s0-.77-.07-2.11-.13-3.26-.08-5.56a128.51 128.51 0 011.3-16.83 124.07 124.07 0 013.67-16.57c.6-2.23 1.28-4 1.7-5.32l.68-2z" transform="translate(-117.14 -132.49)" fill="url(#V)"/><path data-name="&lt;路径&gt;" d="M180.3 175.47l-1.3 1c-.85.64-2 1.64-3.34 2.82-.68.6-1.44 1.22-2.19 1.93l-2.36 2.25c-1.67 1.53-3.29 3.33-5 5.06s-3.2 3.62-4.65 5.36-2.74 3.41-3.78 4.89l-2.54 3.57c-.6.87-.91 1.39-.91 1.39l-2.05-1.35s.32-.53.93-1.42l2.59-3.64c1.07-1.51 2.44-3.17 3.86-5s3.08-3.64 4.74-5.47 3.36-3.6 5.06-5.17l2.41-2.29c.77-.72 1.54-1.36 2.24-2 1.4-1.21 2.55-2.23 3.41-2.88l1.33-1z" transform="translate(-117.14 -132.49)" fill="url(#W)"/><path data-name="&lt;路径&gt;" d="M241.26 150.52l-1.65.21c-1 .15-2.55.29-4.34.6a120 120 0 00-13 2.85l-3.47 1-3.32 1.11c-2.16.69-4.12 1.5-5.81 2.16s-3.07 1.27-4 1.71l-1.52.69-1-2.23 1.55-.7c1-.45 2.39-1.09 4.12-1.75s3.72-1.5 5.93-2.21l3.38-1.14 3.54-1a122.49 122.49 0 0113.25-2.91c1.82-.32 3.36-.46 4.43-.62l1.68-.21z" transform="translate(-117.14 -132.49)" fill="url(#X)"/><path data-name="&lt;路径&gt;" d="M306.17 161.48l-1.51-.69c-1-.43-2.33-1.08-4-1.78s-3.64-1.48-5.78-2.23-4.42-1.56-6.76-2.18l-3.47-1-3.4-.8c-2.2-.54-4.29-.91-6.07-1.22l-2.44-.43-1.89-.25-1.65-.21.3-2.44 1.68.21 1.93.25 2.49.44c1.82.32 4 .69 6.2 1.25l3.47.82 3.55 1c2.39.63 4.71 1.5 6.9 2.23s4.18 1.61 5.9 2.28 3.1 1.38 4.09 1.81l1.54.7z" transform="translate(-117.14 -132.49)" fill="url(#Y)"/><path data-name="&lt;路径&gt;" d="M355.49 205.06l-.9-1.4c-.55-.9-1.44-2.12-2.49-3.6-.53-.73-1.08-1.55-1.71-2.37l-2-2.57c-1.37-1.81-3-3.59-4.57-5.42s-3.29-3.53-4.88-5.14-3.14-3.05-4.51-4.24l-3.31-2.86c-.81-.68-1.29-1-1.29-1l1.54-1.91s.49.37 1.32 1.06l3.38 2.92c1.4 1.21 2.92 2.73 4.6 4.32s3.33 3.42 5 5.24 3.26 3.69 4.66 5.53l2.05 2.62c.64.84 1.21 1.67 1.75 2.42 1.07 1.51 2 2.75 2.54 3.67l.92 1.43z" transform="translate(-117.14 -132.49)" fill="url(#Z)"/><path data-name="&lt;路径&gt;" d="M374.43 268.13v-1.66c0-1.05 0-2.56-.19-4.37a117.34 117.34 0 00-1.58-13.18c-.22-1.19-.42-2.38-.65-3.55l-.82-3.37c-.47-2.22-1.1-4.24-1.59-6s-1-3.18-1.31-4.18l-.53-1.58 2.32-.81.54 1.61c.35 1 .86 2.48 1.34 4.27s1.14 3.85 1.62 6.12l.8 3.48c.24 1.19.45 2.41.67 3.62a119.8 119.8 0 011.6 13.47c.17 1.84.15 3.38.19 4.45v1.69z" transform="translate(-117.14 -132.49)" fill="url(#aa)"/><path data-name="&lt;路径&gt;" d="M192.16 200.84s-.38.34-1 1-1.6 1.5-2.69 2.59a94.66 94.66 0 00-7.46 8.52l-1 1.21-.89 1.25-1.73 2.43c-1 1.63-2 3.12-2.82 4.46l-1.86 3.24-.64 1.26-3.67-1.92.67-1.32 1.94-3.38c.81-1.4 1.87-3 2.94-4.66l1.8-2.53.93-1.3 1-1.27a98.78 98.78 0 017.79-8.9c1.14-1.14 2.13-2 2.81-2.71s1.08-1 1.08-1z" transform="translate(-117.14 -132.49)" fill="url(#ab)"/><path data-name="&lt;路径&gt;" d="M228.78 180.48s-2 .52-4.91 1.55c-1.48.45-3.13 1.18-4.93 1.87-.91.33-1.79.79-2.72 1.19s-1.88.81-2.78 1.3l-2.74 1.4c-.91.45-1.75 1-2.59 1.46-1.69.93-3.2 1.93-4.5 2.76s-2.33 1.6-3.08 2.11l-1.15.82-2.46-3.33 1.21-.86c.78-.53 1.84-1.36 3.22-2.21s2.93-1.91 4.7-2.88c.88-.49 1.76-1.05 2.71-1.52l2.86-1.46c.95-.51 1.95-.91 2.91-1.36s1.9-.9 2.85-1.25c1.88-.72 3.61-1.47 5.15-2 3-1.08 5.13-1.62 5.13-1.62z" transform="translate(-117.14 -132.49)" fill="url(#ac)"/><path data-name="&lt;路径&gt;" d="M270.64 178.29s-2-.41-5.09-.75a98.72 98.72 0 00-11.31-.68 97.07 97.07 0 00-11.3.73c-1.53.2-2.81.34-3.7.52l-1.39.25-.73-4.07 1.46-.26c.92-.19 2.26-.34 3.86-.55a101.21 101.21 0 0111.8-.76 102.9 102.9 0 0111.81.71c3.21.36 5.32.78 5.32.78z" transform="translate(-117.14 -132.49)" fill="url(#ad)"/><path data-name="&lt;路径&gt;" d="M309.19 194.7l-1.15-.82c-.73-.53-1.77-1.28-3.09-2.09l-2.1-1.35c-.76-.46-1.57-.91-2.41-1.4-1.65-1-3.51-1.89-5.34-2.84a94 94 0 00-10.46-4.3c-1.46-.49-2.67-.93-3.55-1.15l-1.36-.39 1.12-4 1.42.4c.91.23 2.18.68 3.71 1.2a98.15 98.15 0 0110.93 4.5c1.91 1 3.85 1.92 5.58 3 .87.51 1.73 1 2.51 1.46l2.19 1.41c1.37.85 2.46 1.64 3.23 2.19l1.21.86z" transform="translate(-117.14 -132.49)" fill="url(#ae)"/><path data-name="&lt;路径&gt;" d="M336.63 226.38l-.17-.33c-.11-.21-.26-.53-.49-.92l-1.86-3.24c-.82-1.31-1.78-2.83-2.85-4.44s-2.28-3.28-3.59-4.87a98 98 0 00-7.49-8.5l-2.7-2.58c-.64-.63-1-1-1-1l2.76-3.08s.42.34 1.09 1l2.82 2.69a102.13 102.13 0 017.82 8.87c1.37 1.66 2.57 3.45 3.75 5.09s2.13 3.27 3 4.64l1.94 3.38c.24.4.4.74.52 1l.18.34z" transform="translate(-117.14 -132.49)" fill="url(#af)"/><path data-name="&lt;路径&gt;" d="M347.32 266.89v-1.42c0-.9-.16-2.18-.26-3.73s-.37-3.33-.59-5.24c-.1-1-.31-1.94-.48-2.94s-.33-2-.56-3c-.48-2-.88-4-1.46-5.87l-.81-2.69-.8-2.36c-.25-.73-.46-1.41-.68-2l-.6-1.51-.52-1.32 3.83-1.56.54 1.38.62 1.58c.23.61.45 1.32.72 2.08l.84 2.47.8 2.79c.6 1.93 1 4 1.52 6.13.24 1 .39 2.11.59 3.15s.4 2.06.5 3.07c.24 2 .54 3.86.62 5.48s.25 2.95.27 3.89v1.48z" transform="translate(-117.14 -132.49)" fill="url(#ag)"/><path data-name="&lt;路径&gt;" d="M338.11 267.16v-.78c0-.51 0-1.27-.13-2.26a79.23 79.23 0 00-1-8.5 83.27 83.27 0 00-10.47-28.49 83.6 83.6 0 00-20.8-23.53l-1.12-.89-1.17-.83c-.79-.55-1.56-1.13-2.37-1.67-1.64-1-3.26-2.14-5-3.08s-3.49-1.87-5.27-2.81-3.65-1.71-5.56-2.4-3.83-1.39-5.77-2.07-3.95-1.18-6-1.59-4.07-.82-6.12-1.21-4.14-.59-6.25-.7-4.2-.22-6.32-.28c-1.06 0-2.11.05-3.17.07h-1.58l-1.58.12a79 79 0 00-12.43 1.88 77.86 77.86 0 00-12 3.66c-1.95.71-3.81 1.61-5.69 2.44s-3.68 1.81-5.42 2.87-3.46 2.11-5.16 3.18-3.3 2.27-4.82 3.53-3 2.5-4.51 3.77c-.73.65-1.41 1.33-2.11 2l-1 1-1 1a83.08 83.08 0 00-22.1 42.73c-.5 2.52-.76 4.91-1 7.12s-.36 4.26-.35 6.11c0 .92-.07 1.8 0 2.62l.06 2.31c0 1.44.12 2.65.2 3.64l.17 2.25.1.77-2.26.25-.1-.79-.17-2.31c-.08-1-.2-2.26-.2-3.74l-.06-2.38c0-.85 0-1.74.05-2.69 0-1.9.2-4 .36-6.27s.55-4.72 1.06-7.31a85.46 85.46 0 0122.59-43.9l1-1.07 1.07-1c.72-.67 1.42-1.38 2.17-2 1.51-1.3 3-2.65 4.64-3.87s3.28-2.42 5-3.63 3.46-2.27 5.3-3.27 3.69-2 5.56-2.95 3.84-1.78 5.84-2.51a80.11 80.11 0 0112.28-3.76 81.21 81.21 0 0112.79-1.94l1.62-.13h1.63c1.08 0 2.17-.07 3.25-.07 2.17.06 4.34.07 6.48.29s4.28.46 6.42.72 4.23.71 6.29 1.24 4.11 1.08 6.14 1.64 4 1.31 5.92 2.12 3.82 1.64 5.71 2.47 3.68 1.83 5.41 2.88 3.45 2.1 5.14 3.17c.83.56 1.62 1.15 2.43 1.72l1.2.86 1.15.91a85.81 85.81 0 0132.12 53.43 81.51 81.51 0 011 8.73c.09 1 .13 1.79.13 2.32v.8z" transform="translate(-117.14 -132.49)" fill="url(#ah)"/></g></g></svg>