<svg preserveAspectRatio="none" id="Layer_1" data-name="Layer 1" xmlns="http://www.w3.org/2000/svg" viewBox="0 0 165.88 165.88"><defs><style>.cls-1{fill:#065876;}.cls-2{fill:#08b3ea;}</style></defs><title>circle3</title><polygon class="cls-1" points="95.39 10.62 93.93 10.46 94.58 0.85 96.76 1.08 95.39 10.62"/><polygon class="cls-1" points="102.89 12.32 101.44 12.01 103.09 2.52 105.24 2.98 102.89 12.32"/><polygon class="cls-1" points="110.16 14.79 108.76 14.33 111.39 5.07 113.48 5.75 110.16 14.79"/><polygon class="cls-1" points="117.14 18.01 115.79 17.41 119.37 8.47 121.38 9.36 117.14 18.01"/><polygon class="cls-1" points="123.73 21.94 122.46 21.2 126.96 12.68 128.86 13.78 123.73 21.94"/><polygon class="cls-1" points="129.89 26.54 128.69 25.67 134.06 17.67 135.84 18.96 129.89 26.54"/><polygon class="cls-1" points="135.53 31.75 134.43 30.76 140.6 23.37 142.24 24.84 135.53 31.75"/><polygon class="cls-1" points="140.59 37.53 139.6 36.43 146.51 29.73 147.98 31.36 140.59 37.53"/><polygon class="cls-1" points="145.02 43.8 144.15 42.61 151.73 36.66 153.02 38.44 145.02 43.8"/><polygon class="cls-1" points="148.77 50.51 148.03 49.23 156.19 44.1 157.29 46.01 148.77 50.51"/><polygon class="cls-1" points="151.8 57.56 151.2 56.22 159.85 51.97 160.74 53.98 151.8 57.56"/><polygon class="cls-1" points="154.08 64.9 153.62 63.5 162.66 60.18 163.34 62.27 154.08 64.9"/><polygon class="cls-1" points="155.57 72.44 155.26 70.99 164.6 68.64 165.06 70.79 155.57 72.44"/><polygon class="cls-1" points="156.12 78.62 156.27 80.09 165.88 79.44 165.65 77.25 156.12 78.62"/><polygon class="cls-1" points="156.17 86.29 156.17 87.77 165.79 88.13 165.79 85.93 156.17 86.29"/><polygon class="cls-1" points="155.26 95.39 155.42 93.93 165.03 94.57 164.79 96.76 155.26 95.39"/><polygon class="cls-1" points="153.56 102.89 153.87 101.44 163.36 103.09 162.9 105.24 153.56 102.89"/><polygon class="cls-1" points="151.09 110.16 151.55 108.76 160.81 111.39 160.13 113.48 151.09 110.16"/><polygon class="cls-1" points="147.87 117.14 148.47 115.78 157.41 119.37 156.52 121.38 147.87 117.14"/><polygon class="cls-1" points="143.94 123.73 144.68 122.45 153.2 126.95 152.1 128.86 143.94 123.73"/><polygon class="cls-1" points="139.34 129.89 140.21 128.69 148.21 134.06 146.92 135.84 139.34 129.89"/><polygon class="cls-1" points="134.13 135.53 135.12 134.43 142.51 140.6 141.04 142.23 134.13 135.53"/><polygon class="cls-1" points="128.35 140.59 129.45 139.6 136.16 146.51 134.52 147.98 128.35 140.59"/><polygon class="cls-1" points="122.08 145.02 123.27 144.15 129.22 151.73 127.44 153.02 122.08 145.02"/><polygon class="cls-1" points="115.37 148.77 116.65 148.03 121.78 156.19 119.87 157.29 115.37 148.77"/><polygon class="cls-1" points="108.31 151.8 109.66 151.2 113.91 159.84 111.9 160.74 108.31 151.8"/><polygon class="cls-1" points="100.98 154.08 102.38 153.62 105.7 162.66 103.61 163.34 100.98 154.08"/><polygon class="cls-1" points="93.44 155.57 94.89 155.26 97.24 164.6 95.09 165.06 93.44 155.57"/><polygon class="cls-1" points="85.79 156.27 86.44 165.88 88.63 165.65 87.26 156.12 85.79 156.27"/><polygon class="cls-1" points="78.11 156.17 77.75 165.79 79.95 165.79 79.59 156.17 78.11 156.17"/><polygon class="cls-1" points="70.48 155.26 71.95 155.42 71.31 165.02 69.12 164.79 70.48 155.26"/><polygon class="cls-1" points="62.99 153.56 64.44 153.87 62.79 163.36 60.64 162.9 62.99 153.56"/><polygon class="cls-1" points="55.72 151.09 57.12 151.55 54.49 160.81 52.4 160.13 55.72 151.09"/><polygon class="cls-1" points="48.75 147.87 50.1 148.47 46.51 157.41 44.5 156.52 48.75 147.87"/><polygon class="cls-1" points="42.15 143.94 43.42 144.68 38.93 153.2 37.02 152.1 42.15 143.94"/><polygon class="cls-1" points="35.99 139.34 37.19 140.21 31.82 148.21 30.04 146.92 35.99 139.34"/><polygon class="cls-1" points="30.35 134.13 31.45 135.12 25.28 142.51 23.64 141.04 30.35 134.13"/><polygon class="cls-1" points="25.29 128.35 26.28 129.45 19.37 136.16 17.9 134.52 25.29 128.35"/><polygon class="cls-1" points="20.86 122.08 21.73 123.27 14.15 129.22 12.86 127.44 20.86 122.08"/><polygon class="cls-1" points="17.11 115.37 17.85 116.65 9.69 121.78 8.59 119.87 17.11 115.37"/><polygon class="cls-1" points="14.08 108.31 14.68 109.66 6.04 113.91 5.14 111.9 14.08 108.31"/><polygon class="cls-1" points="11.81 100.98 12.26 102.38 3.22 105.7 2.54 103.61 11.81 100.98"/><polygon class="cls-1" points="10.31 93.44 10.62 94.89 1.28 97.24 0.82 95.09 10.31 93.44"/><polygon class="cls-1" points="0 86.44 0.23 88.63 9.77 87.26 9.61 85.79 0 86.44"/><polygon class="cls-1" points="0.09 79.95 9.71 79.59 9.71 78.11 0.09 77.75 0.09 79.95"/><polygon class="cls-1" points="10.62 70.48 10.46 71.95 0.86 71.3 1.09 69.12 10.62 70.48"/><polygon class="cls-1" points="12.32 62.99 12.01 64.44 2.52 62.79 2.98 60.64 12.32 62.99"/><polygon class="cls-1" points="14.79 55.72 14.33 57.12 5.07 54.49 5.75 52.4 14.79 55.72"/><polygon class="cls-1" points="18.01 48.74 17.41 50.09 8.47 46.51 9.36 44.5 18.01 48.74"/><polygon class="cls-1" points="21.94 42.15 21.2 43.42 12.68 38.92 13.78 37.02 21.94 42.15"/><polygon class="cls-1" points="26.54 35.99 25.67 37.19 17.67 31.82 18.96 30.04 26.54 35.99"/><polygon class="cls-1" points="31.75 30.35 30.77 31.45 23.37 25.28 24.84 23.64 31.75 30.35"/><polygon class="cls-1" points="37.53 25.29 36.43 26.28 29.73 19.37 31.36 17.9 37.53 25.29"/><polygon class="cls-1" points="43.8 20.86 42.61 21.73 36.66 14.15 38.44 12.86 43.8 20.86"/><polygon class="cls-1" points="50.51 17.11 49.23 17.85 44.1 9.69 46.01 8.59 50.51 17.11"/><polygon class="cls-1" points="57.57 14.08 56.22 14.68 51.97 6.03 53.98 5.14 57.57 14.08"/><polygon class="cls-1" points="64.9 11.8 63.5 12.26 60.18 3.22 62.27 2.54 64.9 11.8"/><polygon class="cls-1" points="72.44 10.31 70.99 10.62 68.64 1.28 70.79 0.82 72.44 10.31"/><polygon class="cls-1" points="79.44 0 77.25 0.23 78.62 9.76 80.09 9.61 79.44 0"/><polygon class="cls-1" points="85.93 0.09 86.29 9.71 87.77 9.71 88.13 0.09 85.93 0.09"/><circle class="cls-1" cx="81.99" cy="82.94" r="68.71"/><path class="cls-2" d="M1028.69,942.59a63.75,63.75,0,1,0,63.75,63.75A63.75,63.75,0,0,0,1028.69,942.59Zm0,126a62.26,62.26,0,1,1,62.26-62.26A62.26,62.26,0,0,1,1028.69,1068.59Z" transform="translate(-946.7 -923.39)"/><path class="cls-2" d="M1028.69,1006.33l17.4-60.19a62.65,62.65,0,0,1,45.25,60.19h-62.65Z" transform="translate(-946.7 -923.39)"/></svg>