<svg preserveAspectRatio="none" id="Layer_1" data-name="Layer 1" xmlns="http://www.w3.org/2000/svg" viewBox="0 0 96.28 96.31"><defs><style>.cls-1{fill:#08ade5;}.cls-2{fill:#feb113;}.cls-3{fill:#065977;}</style></defs><title>circle37</title><path class="cls-1" d="M654.73,138.56c-1.28,1.22-2.57,2.44-4,3.54l-1.12.86-0.51.39-0.24.17a0.58,0.58,0,0,1-.14.1,0.4,0.4,0,0,1-.07-0.1l-0.2-.28-3.3-4.59-0.41-.57a37.63,37.63,0,0,0,4.32-3.58l0.77-.73s0,0,.08,0l0.56,0.56,4,4,0.24,0.24h0Z" transform="translate(-572.52 -56.35)"/><path class="cls-1" d="M646.83,144.95c-1.48.93-3,1.82-4.55,2.6-0.45.22-.89,0.45-1.35,0.66l-0.58.26-0.26.12a0.61,0.61,0,0,1-.16.07,0.4,0.4,0,0,1,0-.11l-0.14-.32L637.49,143l-0.28-.64c0.8-.35,1.58-0.73,2.36-1.11,0.47-.23.93-0.5,1.39-0.75s0.83-.46,1.23-0.72l0.9-.56s0,0,.08,0L643.6,140l3,4.71,0.18,0.28h0Z" transform="translate(-572.52 -56.35)"/><path class="cls-1" d="M637.74,149.54c-1.24.46-2.5,0.91-3.78,1.26-0.75.2-1.5,0.42-2.25,0.59l-1.49.32-1-4.72L628.89,145c0-.07.17-0.07,0.22-0.08l1.25-.27c0.8-.19,1.6-0.4,2.38-0.65s1.69-.55,2.52-0.86c0.07,0,.06,0,0.09,0l0.1,0.27,0.93,2.46,1.36,3.59h0Z" transform="translate(-572.52 -56.35)"/><path class="cls-1" d="M627.91,152.12a42.15,42.15,0,0,1-5.64.51c-0.19,0-2.16.06-2.16,0s0-.37,0-0.56q0-2.83.07-5.66v-0.6a30.19,30.19,0,0,0,3.29-.09c1.14-.1,2.28-0.18,3.4-0.37l0.72,4.76,0.3,2h0Z" transform="translate(-572.52 -56.35)"/><path class="cls-2" d="M608.16,137.22l0.88-2.3,0.16-.42c0-.1.26,0,0.33,0.08,0.89,0.34,1.81.62,2.73,0.87a29.83,29.83,0,0,0,3,.66c0.77,0.13,1.53.22,2.31,0.32,1,0.12,2,.12,2.93.15a21.79,21.79,0,0,0,2.21-.07,29.91,29.91,0,0,0,4.26-.54l0.48,2.41,0.09,0.44c0,0.05,0,0,0,.06l-0.55.1c-0.92.15-1.84,0.3-2.77,0.39a33.63,33.63,0,0,1-5.19.13,34.76,34.76,0,0,1-5.3-.67,37.64,37.64,0,0,1-5.48-1.6h0Z" transform="translate(-572.52 -56.35)"/><path class="cls-2" d="M584.25,115.68l2.35-.72,0.43-.13c0.1,0,.11.2,0.14,0.27,0.3,0.92.62,1.82,1,2.71a34.07,34.07,0,0,0,2.57,5.06c0.28,0.45.56,0.89,0.86,1.32s0.59,0.88.92,1.29,0.61,0.81.93,1.2,0.68,0.8,1,1.2a34.35,34.35,0,0,0,3.77,3.64c0.05,0,0,.11-0.09.16l-0.38.45-1,1.2-0.4.48c-0.49-.42-1-0.83-1.46-1.28-0.72-.67-1.41-1.36-2.08-2.07a37.36,37.36,0,0,1-3.91-4.94,36.74,36.74,0,0,1-2.91-5.24,42.69,42.69,0,0,1-1.74-4.61h0Z" transform="translate(-572.52 -56.35)"/><path class="cls-1" d="M617.76,152.57l-1.5-.11c-0.8-.06-1.59-0.18-2.39-0.28-1.29-.19-2.57-0.44-3.85-0.72l1.06-4.7,0.44-1.93c0-.07.18,0,0.24,0,0.43,0.09.86,0.2,1.3,0.27,1,0.17,2,.33,3.07.45,0.16,0,2.05.19,2.05,0.18l0,0.54L618,149.1l-0.21,3.47h0Z" transform="translate(-572.52 -56.35)"/><path class="cls-1" d="M607.74,150.89c-1.32-.36-2.63-0.79-3.91-1.27s-2.3-.93-3.44-1.43l2-4.37,0.83-1.79c0-.06.18,0,0.23,0.07l1.21,0.53c0.94,0.41,1.92.77,2.9,1.09,0.65,0.21,1.31.42,2,.6L608.27,149l-0.54,1.93h0Z" transform="translate(-572.52 -56.35)"/><path class="cls-1" d="M598.27,147.15a52.08,52.08,0,0,1-4.49-2.69c-0.16-.11-2.14-1.49-2.12-1.52l0.29-.39,3.41-4.51,0.41-.54a39.74,39.74,0,0,0,4.74,3.1l0.9,0.5s0,0.06,0,.09l-0.38.72-2.61,5-0.15.29h0Z" transform="translate(-572.52 -56.35)"/><path class="cls-1" d="M589.92,141.56a51.33,51.33,0,0,1-3.82-3.55l-1-1.08-0.42-.48-0.19-.22a0.57,0.57,0,0,1-.11-0.13,0.37,0.37,0,0,1,.09-0.08l0.26-.23,4.26-3.71,0.53-.46c0.57,0.66,1.17,1.29,1.77,1.92,0.37,0.38.75,0.74,1.14,1.1s0.69,0.66,1.05,1l0.81,0.69s0,0,0,.09l-0.51.61-3.59,4.31-0.22.26h0Z" transform="translate(-572.52 -56.35)"/><path class="cls-1" d="M582.92,134.38L582,133.19c-0.49-.63-0.93-1.31-1.39-2s-0.87-1.36-1.29-2c-0.26-.42-0.5-0.87-0.74-1.3l4.21-2.34,1.73-1c0.06,0,.12.15,0.14,0.19,0.22,0.39.43,0.77,0.67,1.14,0.55,0.88,1.11,1.74,1.71,2.59,0.09,0.13,1.23,1.65,1.24,1.65l-0.42.34-2.2,1.74-2.72,2.16h0Z" transform="translate(-572.52 -56.35)"/><path class="cls-3" d="M654.73,138.56l-3.41-3.41-1.4-1.4s0-.05,0-0.09l0.49-.51c0.64-.68,1.26-1.37,1.87-2.08a40.16,40.16,0,0,0,6-9.6,41.21,41.21,0,0,0,3.62-18c0-1-.08-2.08-0.19-3.11s-0.27-2.13-.45-3.19a40,40,0,0,0-3.58-10.92,41.34,41.34,0,0,0-77.45,27.21,40.46,40.46,0,0,0,3.2,9.15l-4.33,2.11-1.78.87a0.77,0.77,0,0,1-.22-0.38c-0.19-.38-0.36-0.76-0.53-1.15-0.39-.9-0.77-1.81-1.12-2.73A48.11,48.11,0,0,1,582.64,75a48.4,48.4,0,0,1,19.69-15,47.37,47.37,0,0,1,11.57-3.14,50.52,50.52,0,0,1,5.78-.47c1,0,2,0,2.94,0s1.88,0.08,2.81.19l0.48,0.06a0.06,0.06,0,0,1,0,0l0,0.3-0.14,1.25-0.32,3a1.55,1.55,0,0,0,0,.52c0.81,0.1,1.61.2,2.42,0.34a44.09,44.09,0,0,1,4.74,1.06,43.26,43.26,0,0,1,10.53,4.61c0.91,0.55,1.78,1.14,2.64,1.75s1.68,1.23,2.47,1.91,1.59,1.39,2.36,2.12c0.4,0.38.78,0.76,1.15,1.16s0.72,0.73,1.06,1.12c1.09,1.26,2.14,2.54,3.1,3.9a41.21,41.21,0,0,1,3.25,5.4A44.33,44.33,0,0,1,662.9,96a42.06,42.06,0,0,1,.74,5.6c0.05,0.77.08,1.53,0.09,2.3,0,0.17,0,2.17,0,2.17l4.82,0.17h0.25a3.27,3.27,0,0,1,0,.59c-0.05.95-.12,1.9-0.23,2.84a53.18,53.18,0,0,1-.88,5.31,48.13,48.13,0,0,1-4,11.16,46.84,46.84,0,0,1-6.21,9.38c-0.57.66-1.14,1.32-1.74,2l-1,1.07h0Z" transform="translate(-572.52 -56.35)"/><path class="cls-2" d="M648.48,132.31c1-1.06,2-2.13,2.92-3.27a37.7,37.7,0,0,0,3-4.38A39.29,39.29,0,0,0,659,113.29a39.94,39.94,0,0,0,.87-11.9,39.34,39.34,0,0,0-2.71-11.56c-0.38-1-.8-1.88-1.26-2.81a30.7,30.7,0,0,0-1.48-2.72c-0.56-.9-1.14-1.78-1.74-2.65-0.36-.52-0.76-1-1.15-1.52a31.2,31.2,0,0,0-2-2.38c-0.36-.38-0.72-0.78-1.1-1.14l-1.16-1.1a31.28,31.28,0,0,0-2.47-2.08q-1.26-1-2.59-1.85a38.66,38.66,0,0,0-9-4.35,39.11,39.11,0,0,0-5.7-1.44,42.32,42.32,0,0,0-6.1-.58,39,39,0,0,0-7.59.6A34.23,34.23,0,0,0,609,67c-1.16.37-2.31,0.76-3.43,1.24s-2.15.95-3.19,1.49-1.89,1.06-2.81,1.64a34,34,0,0,0-4.08,3c-0.66.56-1.31,1.13-1.93,1.73s-1.11,1.1-1.66,1.67a35.27,35.27,0,0,0-3.35,4.11,39,39,0,0,0-5.73,12,39.45,39.45,0,0,0-1.45,9.3c0,1.31,0,2.63.06,3.94a41.45,41.45,0,0,0,.84,5.93,40,40,0,0,0,3.21,9.07,38.8,38.8,0,0,0,3.3,5.44q0.94,1.31,2,2.54c0.7,0.8,1.4,1.62,2.17,2.35s1.53,1.44,2.33,2.13,1.4,1.13,2.11,1.68c0.2,0.16.42,0.3,0.63,0.44,0.44,0.3.87,0.61,1.32,0.9l1.33,0.83c0.44,0.27.9,0.5,1.35,0.75a35.86,35.86,0,0,0,5.61,2.47,39.57,39.57,0,0,0,23.6.78,41.91,41.91,0,0,0,5.67-2.06,36.79,36.79,0,0,0,5.4-3,37.29,37.29,0,0,0,3.8-2.86c0.71-.61,1.38-1.23,2.06-1.88l0.29-.28s0.09,0.06.12,0.08l0.48,0.48c-1.06,1-2.13,2-3.28,2.93a38.32,38.32,0,0,1-4.33,3,40.08,40.08,0,0,1-11.39,4.68,40.8,40.8,0,0,1-12,1,40.06,40.06,0,0,1-11.56-2.48,41.41,41.41,0,0,1-5.64-2.64,30.93,30.93,0,0,1-2.68-1.66c-0.51-.36-1-0.71-1.53-1.09-0.84-.65-1.66-1.31-2.47-2s-1.6-1.45-2.34-2.23a43,43,0,0,1-4.08-4.93,40,40,0,0,1-7.17-20.35,38,38,0,0,1,.4-9A39.91,39.91,0,0,1,583,90.75c0.52-1.37,1.08-2.72,1.73-4,0.41-.82.85-1.63,1.3-2.43s1.05-1.72,1.63-2.54,1.11-1.53,1.69-2.28,1-1.2,1.51-1.78c0.34-.4.72-0.77,1.08-1.15,0.21-.22.42-0.44,0.64-0.65,0.65-.62,1.31-1.24,2-1.82s1.34-1.11,2-1.65a38.44,38.44,0,0,1,4.84-3.12,37.45,37.45,0,0,1,6.72-2.92,39.26,39.26,0,0,1,7.36-1.67c1.51-.18,3-0.3,4.54-0.33a38,38,0,0,1,5.25.25,40.67,40.67,0,0,1,5.81,1.1,48.58,48.58,0,0,1,4.66,1.55c0.48,0.18,1,.41,1.42.61A28.81,28.81,0,0,1,640,69.31c0.92,0.53,1.84,1.05,2.73,1.64s1.74,1.2,2.58,1.85A42,42,0,0,1,650,77.14a33.89,33.89,0,0,1,3.23,3.93,41.51,41.51,0,0,1,3.27,5.41,42.44,42.44,0,0,1,2.31,5.64,40.08,40.08,0,0,1,1.94,11.61,40.67,40.67,0,0,1-1.6,12A40,40,0,0,1,654,126.84a38,38,0,0,1-2.44,3.26c-0.81,1-1.67,1.88-2.53,2.79l-0.58-.58h0Z" transform="translate(-572.52 -56.35)"/><path class="cls-3" d="M597.73,134.92l2.95-3.89,0.31-.41a23.61,23.61,0,0,0,2.07,1.44,31.18,31.18,0,0,0,2.71,1.56c0.78,0.38,1.55.74,2.35,1.09,0.11,0,.11,0,0.07.13l-0.18.43-1,2.55,0,0.09a1.92,1.92,0,0,0,.33.14l1.23,0.46c0.85,0.32,1.73.58,2.61,0.82a35.78,35.78,0,0,0,5.57,1.07,34.52,34.52,0,0,0,6.17.15c1.11-.08,2.22-0.16,3.32-0.35,0.83-.14,1.65-0.29,2.48-0.47l-0.75-3.33a25,25,0,0,0,2.42-.64c0.94-.31,1.9-0.6,2.81-1s1.77-.8,2.64-1.22c0.48-.24.95-0.52,1.41-0.78,0.91-.51,1.77-1.12,2.63-1.71a30.33,30.33,0,0,0,2.41-1.92c0.35-.3.68-0.61,1-0.92l0.43-.41a0.78,0.78,0,0,1,.18-0.17,0.47,0.47,0,0,1,.11.11l0.3,0.3,3.41,3.41c-0.55.52-1.08,1.07-1.67,1.56l-1.11,1c-0.39.33-.8,0.63-1.2,0.94a35.65,35.65,0,0,1-5,3.18,37.79,37.79,0,0,1-11.57,4q-1.83.31-3.68,0.44c-0.91.06-1.82,0.11-2.73,0.11-0.65,0-1.31,0-2,0l-1.57-.11c-0.54,0-1.07-.12-1.6-0.18a30.44,30.44,0,0,1-3.1-.55,39.34,39.34,0,0,1-5.74-1.75,37.27,37.27,0,0,1-5.13-2.48,34.66,34.66,0,0,1-3.86-2.56h0Z" transform="translate(-572.52 -56.35)"/><path class="cls-1" d="M656,112.6q-0.33,1.43-.77,2.84l-2.85-.9-0.49-.15A32.82,32.82,0,0,0,650.48,91c-0.32-.7-0.65-1.4-1-2.07,0-.06-0.17.06-0.22,0.08l-0.58.32-1.29.7a0.81,0.81,0,0,1-.21.1l-0.39-.69a30,30,0,0,0-3.45-4.8,29,29,0,0,0-4.56-4.23,28.33,28.33,0,0,0-2.6-1.76c-0.86-.51-1.76-1-2.65-1.42s-1.89-.8-2.84-1.17-1.88-.62-2.85-0.84c-0.66-.14-1.31-0.29-2-0.4l0.44-2.56a33.24,33.24,0,0,0-11,0,26.92,26.92,0,0,0-2.64.55,4.2,4.2,0,0,1-.65.16l-0.12-.42-0.4-1.46-0.09-.34s-0.78.22-.86,0.24c-0.94.3-1.87,0.62-2.79,1s-1.75.75-2.6,1.17a33.74,33.74,0,0,0-5.17,3.16,35.33,35.33,0,0,0-8.62,9.14,35.75,35.75,0,0,0-2.71,5c-0.32.72-.59,1.45-0.87,2.19l-0.1.26a0.73,0.73,0,0,0-.07.21l0.09,0,0.55,0.19,1.38,0.47c0.1,0,.18,0,0.14.13-0.11.34-.23,0.68-0.33,1a32.38,32.38,0,0,0-1.13,5.24,32.74,32.74,0,0,0,.48,11.31c0.08,0.38.16,0.76,0.27,1.14l-3.38.87c-0.1-.39-0.2-0.79-0.28-1.19a38.38,38.38,0,0,1-.77-5.46c-0.09-1.21-.08-2.42-0.06-3.63a36.29,36.29,0,0,1,1.33-8.57,35.87,35.87,0,0,1,5.28-11.06,32.63,32.63,0,0,1,3.08-3.79c0.5-.52,1-1,1.53-1.54s1.18-1.07,1.78-1.59a31.17,31.17,0,0,1,3.76-2.75c0.84-.53,1.7-1,2.58-1.51s1.94-.95,2.93-1.37,2.09-.8,3.16-1.14a32,32,0,0,1,4.41-1.07,36,36,0,0,1,7-.55,38.85,38.85,0,0,1,5.61.54,36.09,36.09,0,0,1,5.25,1.33,35.62,35.62,0,0,1,8.27,4q1.23,0.81,2.39,1.71a29,29,0,0,1,2.27,1.92l1.07,1c0.35,0.33.67,0.7,1,1.05,0.66,0.7,1.29,1.43,1.88,2.19,0.36,0.46.72,0.92,1.06,1.4,0.56,0.8,1.09,1.61,1.6,2.44a27.65,27.65,0,0,1,1.36,2.5c0.42,0.85.81,1.7,1.16,2.58a36.13,36.13,0,0,1,2.5,10.65A36.9,36.9,0,0,1,656,112.6Z" transform="translate(-572.52 -56.35)"/><path class="cls-3" d="M657,116l-1.08-.34c0.08-.26.16-0.51,0.23-0.77a37.49,37.49,0,0,0,1.47-11.09,36.87,36.87,0,0,0-1.79-10.69,39.63,39.63,0,0,0-2.13-5.19,38.26,38.26,0,0,0-3-5,31.17,31.17,0,0,0-3-3.62,38.43,38.43,0,0,0-4.37-4q-1.16-.9-2.38-1.71c-0.82-.54-1.66-1-2.51-1.51a26.71,26.71,0,0,0-2.61-1.3c-0.43-.19-0.87-0.4-1.31-0.57a45.1,45.1,0,0,0-4.29-1.43,37.87,37.87,0,0,0-5.35-1,35.21,35.21,0,0,0-4.84-.23c-1.4,0-2.79.14-4.18,0.31a36,36,0,0,0-6.78,1.54,34.33,34.33,0,0,0-6.18,2.68A34.94,34.94,0,0,0,598.47,75c-0.64.49-1.27,1-1.88,1.52s-1.23,1.11-1.83,1.68c-0.2.19-.4,0.39-0.59,0.6s-0.68.69-1,1.06c-0.47.54-1,1.08-1.39,1.64s-1.06,1.38-1.56,2.1a27.65,27.65,0,0,0-1.5,2.34c-0.41.74-.82,1.48-1.19,2.24-0.6,1.21-1.12,2.45-1.59,3.72a36.74,36.74,0,0,0-1.78,6.88,34.94,34.94,0,0,0-.37,8.26,38.46,38.46,0,0,0,1.07,6.73l-0.62.16a1.76,1.76,0,0,1-.5.1c-0.22-.79-0.4-1.61-0.54-2.42-0.17-1-.31-2-0.43-2.95s-0.16-1.75-.19-2.63a38.32,38.32,0,0,1,1.29-11.38,38,38,0,0,1,13.28-20.06,39.8,39.8,0,0,1,5.29-3.5,37.52,37.52,0,0,1,5.73-2.52,38.05,38.05,0,0,1,12-2.1A38.48,38.48,0,0,1,631.59,68a37.8,37.8,0,0,1,11,5.33,38.2,38.2,0,0,1,8,7.62c0.63,0.82,1.24,1.65,1.82,2.5s1.12,1.79,1.63,2.71,1,1.87,1.41,2.84,0.79,1.92,1.16,2.89,0.64,2,.92,3,0.49,2,.66,3.07a36.81,36.81,0,0,1,.54,5.13,42.88,42.88,0,0,1-.23,5.83,37.26,37.26,0,0,1-1.09,5.6C657.3,115,657.16,115.52,657,116Z" transform="translate(-572.52 -56.35)"/><path class="cls-2" d="M650.89,130.92l-3-2.66-4.22-3.7-0.38-.34c-0.06-.05.11-0.18,0.15-0.22,0.31-.37.62-0.73,0.91-1.11a30.45,30.45,0,0,0,3.21-5.11,22.34,22.34,0,0,0,1-2.2l3.75,1.49,5.21,2.07,0.47,0.19a0.47,0.47,0,0,1-.1.35l-0.49,1.12c-0.4.92-.84,1.84-1.33,2.72l-0.76,1.37-0.84,1.35a38.81,38.81,0,0,1-3.53,4.67h0ZM649,125.19a3.55,3.55,0,0,0,2.35.72,2.82,2.82,0,0,0,2.32-1.52,2.86,2.86,0,0,0-.11-2.68,3.87,3.87,0,0,0-2.37-1.75c-1.35-.36-3.24-0.06-3.74,1.45a3.61,3.61,0,0,0,1.55,3.78h0Z" transform="translate(-572.52 -56.35)"/><path class="cls-2" d="M619.74,107.19a1.2,1.2,0,1,1,0-1.7,1.2,1.2,0,0,1,0,1.7h0Z" transform="translate(-572.52 -56.35)"/><path class="cls-2" d="M603.07,123.74a1.14,1.14,0,1,1,0-1.62,1.14,1.14,0,0,1,0,1.62h0Z" transform="translate(-572.52 -56.35)"/><path class="cls-2" d="M595.38,107.45a1.14,1.14,0,1,1,1.14-1.14,1.14,1.14,0,0,1-1.14,1.14h0Z" transform="translate(-572.52 -56.35)"/><path class="cls-2" d="M601.46,90.5a1.14,1.14,0,1,1,1.62,0,1.14,1.14,0,0,1-1.62,0h0Z" transform="translate(-572.52 -56.35)"/><path class="cls-2" d="M634.69,88.88a1.14,1.14,0,1,1,0,1.62,1.14,1.14,0,0,1,0-1.62h0Z" transform="translate(-572.52 -56.35)"/><path class="cls-2" d="M642.38,105.16a1.14,1.14,0,1,1-1.14,1.14,1.14,1.14,0,0,1,1.14-1.14h0Z" transform="translate(-572.52 -56.35)"/><path class="cls-2" d="M636.31,122.12a1.14,1.14,0,1,1-1.62,0,1.14,1.14,0,0,1,1.62,0h0Z" transform="translate(-572.52 -56.35)"/><path class="cls-2" d="M598.93,118.78a1.14,1.14,0,1,1,.44-1.56,1.14,1.14,0,0,1-.44,1.56h0Z" transform="translate(-572.52 -56.35)"/><path class="cls-2" d="M596,101a1.14,1.14,0,1,1,1.41-.79A1.14,1.14,0,0,1,596,101h0Z" transform="translate(-572.52 -56.35)"/><path class="cls-2" d="M638.84,93.84a1.14,1.14,0,1,1-.44,1.56,1.14,1.14,0,0,1,.44-1.56h0Z" transform="translate(-572.52 -56.35)"/><path class="cls-2" d="M641.81,111.6a1.14,1.14,0,1,1-1.41.79,1.14,1.14,0,0,1,1.41-.79h0Z" transform="translate(-572.52 -56.35)"/><path class="cls-2" d="M596.43,113.36a1.14,1.14,0,1,1,.82-1.4,1.14,1.14,0,0,1-.82,1.4h0Z" transform="translate(-572.52 -56.35)"/><path class="cls-2" d="M598,95.42a1.14,1.14,0,1,1,1.57-.41,1.14,1.14,0,0,1-1.57.41h0Z" transform="translate(-572.52 -56.35)"/><path class="cls-2" d="M641.33,99.25a1.14,1.14,0,1,1-.82,1.4,1.14,1.14,0,0,1,.82-1.4h0Z" transform="translate(-572.52 -56.35)"/><path class="cls-2" d="M639.74,117.19a1.14,1.14,0,1,1-1.57.41,1.14,1.14,0,0,1,1.57-.41h0Z" transform="translate(-572.52 -56.35)"/><path class="cls-3" d="M605.78,87.87a20.06,20.06,0,0,1,26.43,0l1.54-1.54a22.24,22.24,0,0,0-29.52,0Z" transform="translate(-572.52 -56.35)"/><path class="cls-3" d="M632.07,124.73a20.06,20.06,0,0,1-26.43,0l-1.54,1.54a22.24,22.24,0,0,0,29.52,0Z" transform="translate(-572.52 -56.35)"/><rect class="cls-1" x="608.4" y="111.77" width="9.35" height="0.77" transform="translate(-472.4 409.81) rotate(-44.98)"/><rect class="cls-1" x="620.01" y="100.16" width="9.35" height="0.77" transform="translate(-460.66 414.81) rotate(-45)"/><rect class="cls-1" x="612.76" y="95.95" width="0.77" height="9.35" transform="translate(-464.09 406.68) rotate(-45)"/><rect class="cls-1" x="624.29" y="107.48" width="0.77" height="9.35" transform="translate(-469.06 417.93) rotate(-44.97)"/><rect class="cls-2" x="46.13" y="40.71" width="0.45" height="6.57"/><rect class="cls-2" x="46.13" y="52.72" width="0.45" height="6.57"/><rect class="cls-2" x="37.06" y="49.78" width="6.57" height="0.45"/><rect class="cls-2" x="49.07" y="49.78" width="6.57" height="0.45"/><polygon class="cls-3" points="43.96 54.89 46.35 52.5 48.75 54.89 43.96 54.89"/><polygon class="cls-3" points="48.75 45.1 46.35 47.5 43.96 45.1 48.75 45.1"/><polygon class="cls-3" points="51.25 52.39 48.85 50 51.25 47.6 51.25 52.39"/><polygon class="cls-3" points="41.46 47.6 43.85 50 41.46 52.39 41.46 47.6"/></svg>