<svg preserveAspectRatio="none" id="Layer_1" data-name="Layer 1" xmlns="http://www.w3.org/2000/svg" viewBox="0 0 66.13 65.77"><defs><style>.cls-1{fill:#0ff}</style></defs><g id="_编组_" data-name="&lt;编组&gt;"><path id="_复合路径_" data-name="&lt;复合路径&gt;" class="cls-1" d="M802 80.52a11.11 11.11 0 1111.11-11.11A11.13 11.13 0 01802 80.52zm0-22a10.87 10.87 0 1010.87 10.87A10.88 10.88 0 00802 58.54z" transform="translate(-768.98 -36.3)"/><path id="_复合路径_2" data-name="&lt;复合路径&gt;" class="cls-1" d="M802 85.83a16.42 16.42 0 1116.42-16.42A16.44 16.44 0 01802 85.83zm0-32.47a16.06 16.06 0 1016.06 16.06A16.07 16.07 0 00802 53.36z" transform="translate(-768.98 -36.3)"/><path id="_复合路径_3" data-name="&lt;复合路径&gt;" class="cls-1" d="M805.36 83.24l-.69-2.86a11.29 11.29 0 008.63-11h2.94a14.17 14.17 0 01-2.36 7.86l-1.28-.85 1.28.85a14.19 14.19 0 01-8.52 6zm3.12-23.08a11.22 11.22 0 00-6.47-2 11.31 11.31 0 00-1.54.1l-.4-2.92a14.24 14.24 0 011.94-.13 14.14 14.14 0 018.16 2.57z" transform="translate(-768.98 -36.3)"/><path id="_复合路径_4" data-name="&lt;复合路径&gt;" class="cls-1" d="M802 91.57a22.16 22.16 0 1122.16-22.16A22.19 22.19 0 01802 91.57zm0-44.08a21.92 21.92 0 1021.92 21.92A21.94 21.94 0 00802 47.49z" transform="translate(-768.98 -36.3)"/><path id="_复合路径_5" data-name="&lt;复合路径&gt;" class="cls-1" d="M797.59 87.57a18.67 18.67 0 01-5.2-2.15l2.52-4.16a14 14 0 003.83 1.59zM819.84 75l-4.68-1.45a13.81 13.81 0 00.62-4.1h4.86a18.68 18.68 0 01-.85 5.56zm-30.06-12h-.05l-4.44-2.33h.18a18.68 18.68 0 013.31-4.5l3.47 3.47a13.92 13.92 0 00-2.46 3.36zm24-.73a14.19 14.19 0 00-2.66-3.18l3.25-3.68a18.62 18.62 0 013.6 4.31z" transform="translate(-768.98 -36.3)"/><path id="_复合路径_6" data-name="&lt;复合路径&gt;" class="cls-1" d="M794.15 101.57a33.14 33.14 0 01-23-20.16 32.72 32.72 0 01-2.15-9.77l4.89-.33a28.21 28.21 0 0021.4 25.48zM833.6 79.3l-4.68-1.46a28.27 28.27 0 001.26-8.39h4.86a33 33 0 01-1.49 9.84zm-6-21.78a28.28 28.28 0 00-4.7-7h-.09A28.28 28.28 0 00802 41.21a28.83 28.83 0 00-3.61.23l-.62-4.86h.05A33.2 33.2 0 01832 55.39z" transform="translate(-768.98 -36.3)"/><path id="_复合路径_7" data-name="&lt;复合路径&gt;" class="cls-1" d="M802 97.11h-1l.45-13.68h.55a1.17 1.17 0 01.19 0l.18 13.69H802zm27.67-26.36L816 70.12v-.66h13.73v1.29zm-55.37-.54v-.75-.65l13.7.27v.76zm41.7-.86v-.66l13.67-.74v-.05 1.3zm-14.6-13.9l-.55-13.72H802.2l-.08 13.69h-.77z" transform="translate(-768.98 -36.3)"/><path id="_复合路径_8" data-name="&lt;复合路径&gt;" class="cls-1" d="M802 102.08a32.6 32.6 0 01-10.82-1.84h-.12v-.12l3.29-9.37h.12a22.76 22.76 0 0014.36.21h.12l.05.04 3 9.46h-.12a32.65 32.65 0 01-9.88 1.62zm-10.62-2a32.56 32.56 0 0020.36.29l-2.91-9.11a23 23 0 01-14.27-.26zm-5.3-2.11l-.28-.17h-.09l-.86-.51-.1-.06 5.25-8.65.1.06.6.36.11.06-1.48 2.58 1.71-2.28.2.15-2.91 3.89zm-.35-.49l.11.05.16.05 2.16-4.32 2.36-4.11-.4-.24-5 8.14.65.39zm48.93-26.91l-10.05-.31v-.15V69.18H834.67v1.33zm-9.8-.54l9.56.29v-.84h-9.57c.01.13.01.32.01.52zm-.61-4.71v-.12a22.72 22.72 0 00-7-12.51l-.09-.08.08-.09 6.67-7.36.09.08a32.83 32.83 0 0110.1 18.05v.12zm-6.81-12.73a23 23 0 017 12.45l9.4-1.78a32.59 32.59 0 00-10-17.75zm-37.55 12.14l-9.83-2.12v-.12a32.84 32.84 0 0110.64-17.83l.09-.08 6.56 7.62-.09.08a22.72 22.72 0 00-7.35 12.34zm-9.54-2.31l9.35 2a23 23 0 017.3-12.25l-6.24-7.25a32.59 32.59 0 00-10.41 17.5zm19.92-12.35l-.06-.07-2.21-4.43-2.92-3.91.2-.15 1.72 2.24-1.47-2.52.11-.06.87-.49.11-.06 4.81 8.83-.11.06-.61.34-.1.06zm-2.06-4.66l2.15 4.29.26-.16.41-.23-4.55-8.31-.65.36 2.38 4.1z" transform="translate(-768.98 -36.3)"/><path id="_复合路径_9" data-name="&lt;复合路径&gt;" class="cls-1" d="M802.21 92.41H802a23.56 23.56 0 01-5.9-.77l-.16-.06v-.14l1.56-5.87h.16a16.55 16.55 0 004.32.57l.15.11v6.14zm-6-1a23.35 23.35 0 005.74.74V86.4a16.75 16.75 0 01-4.25-.55zm28-15.9l-6-1.6v-.16a16.71 16.71 0 00.57-4.34l.08-.21h6.16v.28a23.18 23.18 0 01-.78 5.95zm-5.74-1.78l5.53 1.49a22.94 22.94 0 00.75-5.81H819a16.94 16.94 0 01-.55 4.33zM779 69.63v-.22a22.7 22.7 0 01.77-5.9v-.17l6 1.6v.16a16.75 16.75 0 00-.56 4.28l.24.24H779zm1-6a22.48 22.48 0 00-.74 5.74H785a17.09 17.09 0 01.54-4.25zm26.45-10.38h-.16a16.72 16.72 0 00-4.29-.56l-.18-.08v-6.19h.18a22.93 22.93 0 015.86.76h.17v.13zm-4.45-.83a16.93 16.93 0 014.24.54l1.48-5.57a22.74 22.74 0 00-5.73-.73z" transform="translate(-768.98 -36.3)"/></g></svg>