<svg preserveAspectRatio="none" id="Layer_1" data-name="Layer 1" xmlns="http://www.w3.org/2000/svg" viewBox="0 0 41.22 41.15"><defs><style>.cls-1{fill:#12aac2;}.cls-2{fill:#0e8092;}.cls-3{fill:#ff8a29;}</style></defs><title>circle68</title><path class="cls-1" d="M419.65,227.82a2.8,2.8,0,1,1,2.8-2.8A2.81,2.81,0,0,1,419.65,227.82Zm0-5.11A2.3,2.3,0,1,0,422,225,2.31,2.31,0,0,0,419.65,222.71Z" transform="translate(-399.04 -204.41)"/><path class="cls-2" d="M417.11,245.57h0a0.51,0.51,0,0,1-.44-0.56h0a0.5,0.5,0,0,1,.56-0.43h0a0.52,0.52,0,0,1,.44.56h0a0.51,0.51,0,0,1-.5.44h-0.06Zm4.61-.45a0.51,0.51,0,0,1,.43-0.56h0a0.51,0.51,0,0,1,.56.44h0a0.51,0.51,0,0,1-.44.56h-0.06A0.5,0.5,0,0,1,421.72,245.12Zm-9.63-.82h0a0.51,0.51,0,0,1-.28-0.66h0a0.51,0.51,0,0,1,.65-0.28h0a0.51,0.51,0,0,1,.28.65h0a0.51,0.51,0,0,1-.47.32h0A0.55,0.55,0,0,1,412.09,244.29Zm14.55-.32a0.5,0.5,0,0,1,.28-0.64h0a0.49,0.49,0,0,1,.65.27h0a0.5,0.5,0,0,1-.28.65h0a0.39,0.39,0,0,1-.18,0h0A0.51,0.51,0,0,1,426.64,244Zm-19.09-2.17a0.51,0.51,0,0,1-.11-0.7h0a0.5,0.5,0,0,1,.7-0.11h0a0.51,0.51,0,0,1,.11.7h0a0.51,0.51,0,0,1-.41.2h0A0.52,0.52,0,0,1,407.55,241.81Zm23.57-.16a0.5,0.5,0,0,1,.11-0.7h0a0.51,0.51,0,0,1,.7.11h0a0.51,0.51,0,0,1-.11.7h0a0.47,0.47,0,0,1-.3.1h0A0.49,0.49,0,0,1,431.12,241.65Zm-27.35-3.38h0a0.51,0.51,0,0,1,.07-0.71h0a0.49,0.49,0,0,1,.7.06h0a0.49,0.49,0,0,1-.06.7h0a0.51,0.51,0,0,1-.32.12h0A0.55,0.55,0,0,1,403.77,238.27Zm31.11,0a0.5,0.5,0,0,1-.07-0.7h0a0.5,0.5,0,0,1,.71-0.07h0a0.49,0.49,0,0,1,.06.7h0a0.49,0.49,0,0,1-.38.18h0A0.46,0.46,0,0,1,434.88,238.28ZM401,233.91h0a0.51,0.51,0,0,1,.24-0.67h0a0.5,0.5,0,0,1,.67.24h0a0.49,0.49,0,0,1-.24.66h0a0.4,0.4,0,0,1-.21,0h0A0.48,0.48,0,0,1,401,233.91Zm36.7,0.16a0.49,0.49,0,0,1-.24-0.66h0a0.49,0.49,0,0,1,.66-0.24h0a0.49,0.49,0,0,1,.24.66h0a0.49,0.49,0,0,1-.45.29h0A0.54,0.54,0,0,1,437.69,234.08ZM399.37,229h0a0.51,0.51,0,0,1,.4-0.59h0a0.5,0.5,0,0,1,.58.4h0a0.5,0.5,0,0,1-.39.59h-0.09A0.5,0.5,0,0,1,399.37,229Zm40,0.32a0.51,0.51,0,0,1-.4-0.59h0a0.51,0.51,0,0,1,.59-0.4h0a0.5,0.5,0,0,1,.4.59h0a0.5,0.5,0,0,1-.49.4h-0.1Zm-39.86-5a0.5,0.5,0,0,1-.46-0.53h0a0.49,0.49,0,0,1,.52-0.47h0a0.49,0.49,0,0,1,.47.53h0a0.5,0.5,0,0,1-.5.47h0Zm39.77-.55a0.49,0.49,0,0,1,.46-0.53h0a0.49,0.49,0,0,1,.53.46h0a0.49,0.49,0,0,1-.46.53h0A0.5,0.5,0,0,1,439.27,223.82Zm-39-4.44a0.5,0.5,0,0,1-.33-0.63h0a0.5,0.5,0,0,1,.63-0.32h0a0.5,0.5,0,0,1,.33.63h0a0.5,0.5,0,0,1-.48.34h0A0.4,0.4,0,0,1,400.31,219.38Zm38-.4a0.51,0.51,0,0,1,.32-0.63h0a0.51,0.51,0,0,1,.64.32h0a0.5,0.5,0,0,1-.33.63h0a0.4,0.4,0,0,1-.15,0h0A0.51,0.51,0,0,1,438.34,219Zm-36-4.23a0.5,0.5,0,0,1-.15-0.69h0a0.5,0.5,0,0,1,.68-0.16h0a0.49,0.49,0,0,1,.16.69h0a0.48,0.48,0,0,1-.42.24h0A0.53,0.53,0,0,1,402.33,214.75Zm33.91-.22h0a0.49,0.49,0,0,1,.16-0.69h0a0.49,0.49,0,0,1,.68.15h0a0.49,0.49,0,0,1-.15.69h0a0.53,0.53,0,0,1-.27.08h0A0.51,0.51,0,0,1,436.24,214.53Zm-30.8-3.76a0.49,0.49,0,0,1,0-.7h0a0.5,0.5,0,0,1,.71,0h0a0.5,0.5,0,0,1,0,.71h0a0.51,0.51,0,0,1-.35.14h0A0.48,0.48,0,0,1,405.44,210.77Zm27.66,0h0a0.5,0.5,0,0,1,0-.71h0a0.49,0.49,0,0,1,.7,0h0a0.51,0.51,0,0,1,0,.71h0a0.53,0.53,0,0,1-.37.15h0A0.5,0.5,0,0,1,433.1,210.74Zm-23.66-3.05a0.49,0.49,0,0,1,.19-0.68h0a0.49,0.49,0,0,1,.68.19h0a0.5,0.5,0,0,1-.19.68h0a0.55,0.55,0,0,1-.25.06h0A0.5,0.5,0,0,1,409.44,207.68Zm19.68,0.15a0.51,0.51,0,0,1-.2-0.68h0a0.49,0.49,0,0,1,.68-0.19h0a0.5,0.5,0,0,1,.2.68h0a0.52,0.52,0,0,1-.44.25h0A0.47,0.47,0,0,1,429.12,207.84Zm-15-2.15a0.5,0.5,0,0,1,.36-0.61h0a0.49,0.49,0,0,1,.6.36h0a0.5,0.5,0,0,1-.35.61h-0.13A0.49,0.49,0,0,1,414.08,205.68ZM424.54,206a0.5,0.5,0,0,1-.36-0.61h0a0.49,0.49,0,0,1,.61-0.36h0a0.51,0.51,0,0,1,.36.61h0a0.5,0.5,0,0,1-.49.37h-0.12Zm-4.93-.61h0a0.51,0.51,0,0,1-.5-0.5h0a0.5,0.5,0,0,1,.5-0.5h0.08a0.5,0.5,0,0,1,.5.5h0a0.5,0.5,0,0,1-.5.5h0Z" transform="translate(-399.04 -204.41)"/><circle class="cls-3" cx="20.61" cy="16.18" r="1.48"/><circle class="cls-3" cx="20.61" cy="20.62" r="1.48"/><circle class="cls-3" cx="20.61" cy="24.99" r="1.48"/><path class="cls-1" d="M407.49,225h-4a16.18,16.18,0,0,1,16.17-16.17v4A12.18,12.18,0,0,0,407.49,225Z" transform="translate(-399.04 -204.41)"/><path class="cls-1" d="M419.65,243.12a18.12,18.12,0,0,1-18.1-18.1h4a14.12,14.12,0,0,0,14.1,14.1v4Z" transform="translate(-399.04 -204.41)"/><path class="cls-1" d="M419.65,241.33v-4A12.33,12.33,0,0,0,432,225h4A16.33,16.33,0,0,1,419.65,241.33Z" transform="translate(-399.04 -204.41)"/><path class="cls-1" d="M437.76,225h-4a14.12,14.12,0,0,0-14.1-14.1v-4A18.12,18.12,0,0,1,437.76,225Z" transform="translate(-399.04 -204.41)"/><path class="cls-1" d="M409.73,225.07h-1a10.93,10.93,0,0,1,10.92-10.92v1A9.93,9.93,0,0,0,409.73,225.07Z" transform="translate(-399.04 -204.41)"/><path class="cls-1" d="M419.65,237.36a12.31,12.31,0,0,1-12.29-12.29h1a11.3,11.3,0,0,0,11.29,11.29v1Z" transform="translate(-399.04 -204.41)"/><path class="cls-1" d="M419.65,236v-1a10,10,0,0,0,10-10h1A11,11,0,0,1,419.65,236Z" transform="translate(-399.04 -204.41)"/><path class="cls-1" d="M431.94,225.07h-1a11.3,11.3,0,0,0-11.29-11.29v-1A12.31,12.31,0,0,1,431.94,225.07Z" transform="translate(-399.04 -204.41)"/><path class="cls-1" d="M419.65,234.26V234a9,9,0,0,0,9-9h0.25A9.27,9.27,0,0,1,419.65,234.26Z" transform="translate(-399.04 -204.41)"/><path class="cls-1" d="M429.29,225h-1a8.65,8.65,0,0,0-8.64-8.64v-1A9.65,9.65,0,0,1,429.29,225Z" transform="translate(-399.04 -204.41)"/><path class="cls-1" d="M410.64,225h-0.25a9.27,9.27,0,0,1,9.26-9.26V216A9,9,0,0,0,410.64,225Z" transform="translate(-399.04 -204.41)"/><path class="cls-1" d="M419.65,234.64A9.65,9.65,0,0,1,410,225h1a8.65,8.65,0,0,0,8.64,8.64v1Z" transform="translate(-399.04 -204.41)"/><path class="cls-1" d="M425.41,225.26h-3.2a0.25,0.25,0,0,1,0-.5h3.2A0.25,0.25,0,0,1,425.41,225.26Z" transform="translate(-399.04 -204.41)"/><path class="cls-1" d="M417.1,225.26h-3.2a0.25,0.25,0,0,1,0-.5h3.2A0.25,0.25,0,0,1,417.1,225.26Z" transform="translate(-399.04 -204.41)"/></svg>