<svg preserveAspectRatio="none" id="Layer_1" data-name="Layer 1" xmlns="http://www.w3.org/2000/svg" viewBox="0 0 1069.78 1097.22"><defs><style>.cls-1{fill:#20ffff;}.cls-2{opacity:0.5;}.cls-3{fill:aqua;}</style></defs><title>circle83</title><path class="cls-1" d="M2856.1,1053a327.25,327.25,0,0,0-201.91-302.22q-3.52-1.46-7.08-2.84l19-49.1c-84-32.78-179.6-34-264.51-3.65a380.49,380.49,0,0,0-202.64,170l45.73,26.08A325.83,325.83,0,0,0,2202,1053a329.5,329.5,0,0,0,9.44,78.05l-85.23,20.86a419.83,419.83,0,0,0,22.77,67.27l3.66,8.1c1.24,2.69,2.39,5.42,3.79,8,2.7,5.27,5.38,10.56,8.12,15.8l8.85,15.4c0.72,1.29,1.52,2.54,2.32,3.79l2.39,3.74,4.8,7.47,39.72-26.27c1.81,3,3.89,5.75,5.89,8.58l6,8.49c2.11,2.76,4.28,5.47,6.42,8.2l3.22,4.09,1.61,2,1.7,2,6.82,7.87c1.15,1.3,2.25,2.65,3.43,3.91l3.59,3.77,7.19,7.54c2.43,2.48,5,4.82,7.49,7.23l-32.83,34.5c2.52,2.38,5,4.81,7.56,7.14l7.85,6.82,3.93,3.4c1.32,1.13,2.6,2.29,4,3.34l8.17,6.43,53.82-69.22A327,327,0,0,0,2856.1,1053Zm-106.4,220.67a311.57,311.57,0,1,1,67.7-101.25A313,313,0,0,1,2749.69,1273.64Z" transform="translate(-1998.14 -466.51)"/><path class="cls-1" d="M2705.22,761.08c1.61,1,3.16,2,4.75,3l9.48,6.07,9.17,6.52,22.79-31.49-10.22-7.25-10.55-6.77c-1.77-1.11-3.5-2.28-5.3-3.35l-5.43-3.13c-3.63-2.06-7.22-4.21-10.9-6.2l-18.45,34.21c3.3,1.78,6.51,3.72,9.78,5.57Z" transform="translate(-1998.14 -466.51)"/><path class="cls-1" d="M2772.43,814.38l3.88,4.07c5.31,5.32,10,11.15,15,16.78l29.89-24.84c-5.5-6.29-10.8-12.75-16.7-18.69l-4.32-4.53c-1.44-1.51-2.87-3-4.41-4.45l-9.07-8.65-26.39,28.54,8.15,7.77C2769.86,811.65,2771.14,813,2772.43,814.38Z" transform="translate(-1998.14 -466.51)"/><path class="cls-1" d="M2837.39,907.57l35.15-16.6a374.78,374.78,0,0,0-24.39-43.76l-32.65,21.09A336,336,0,0,1,2837.39,907.57Z" transform="translate(-1998.14 -466.51)"/><path class="cls-1" d="M2854.37,950.91c0.58,1.78,1,3.6,1.57,5.4l3.08,10.82c0.9,3.64,1.7,7.3,2.56,11l1.27,5.48c0.4,1.83.67,3.69,1,5.53l38.19-7.24c-0.38-2.05-.7-4.12-1.14-6.16l-1.41-6.11c-1-4.07-1.85-8.15-2.86-12.21l-3.42-12.06c-0.59-2-1.11-4-1.75-6l-2-5.94-36.89,12.24Z" transform="translate(-1998.14 -466.51)"/><path class="cls-1" d="M2908.46,1039.61l-0.17-6.26-0.47-6.25-38.78,2.61,0.43,5.61,0.14,5.63,0.29,11.26c0,3.75-.18,7.51-0.25,11.26l-0.14,5.63,0,1.41-0.11,1.4-0.22,2.81,38.79,2.44,0.24-3.12,0.12-1.56,0-1.57,0.16-6.26c0.09-4.17.25-8.35,0.27-12.52Z" transform="translate(-1998.14 -466.51)"/><path class="cls-1" d="M2863.14,1120.91c-0.34,1.84-.83,3.66-1.23,5.49l-2.53,11c-0.94,3.63-2,7.22-3,10.83l-1.53,5.41c-0.52,1.8-1.18,3.56-1.77,5.34L2890,1171c0.65-2,1.38-3.95,2-6l1.72-6c1.12-4,2.33-8,3.38-12.07l2.82-12.22c0.45-2,1-4.06,1.36-6.12l1.11-6.17-38.22-7.07Z" transform="translate(-1998.14 -466.51)"/><path class="cls-1" d="M2833.06,1207.1l-2.56,5c-0.86,1.66-1.67,3.36-2.64,5l-5.61,9.75-1.4,2.44c-0.46.82-1,1.59-1.5,2.38l-3,4.73,32.74,20.95,3.38-5.28c0.55-.89,1.15-1.75,1.67-2.65l1.56-2.72,6.25-10.87c1.08-1.79,2-3.68,2.95-5.53l2.86-5.58c1.9-3.72,3.86-7.41,5.51-11.26L2838,1197C2836.55,1200.45,2834.77,1203.76,2833.06,1207.1Z" transform="translate(-1998.14 -466.51)"/><path class="cls-1" d="M2784.92,1278.07l-3.69,4.25-3.89,4.07c-2.6,2.7-5.15,5.46-7.79,8.13l-8.15,7.76,26.51,28.43,9.07-8.65c2.94-3,5.78-6,8.68-9l4.32-4.54,4.11-4.73,8.19-9.49-30-24.71Z" transform="translate(-1998.14 -466.51)"/><path class="cls-1" d="M2720.67,1334.9c-0.75.56-1.54,1.07-2.33,1.57L2716,1338l-4.74,3-4.73,3c-1.58,1-3.24,1.89-4.86,2.84l-9.75,5.61,18.6,34.13,10.87-6.25c1.8-1.06,3.64-2,5.41-3.17l5.28-3.38,5.28-3.38,2.64-1.69c0.89-.55,1.76-1.13,2.6-1.75l10.22-7.26-22.93-31.39Z" transform="translate(-1998.14 -466.51)"/><path class="cls-1" d="M2612,1383.65l9.43,37.71a374.66,374.66,0,0,0,47.68-15.42l-14.35-36.12A335.8,335.8,0,0,1,2612,1383.65Z" transform="translate(-1998.14 -466.51)"/><path class="cls-1" d="M2566.18,1391.82c-0.93.11-1.86,0.27-2.79,0.33l-2.81.21-11.22.85-2.81.22-2.82.07-5.63.14-5.63.14c-1.88.05-3.75,0.12-5.63,0l-0.24,38.87c2.09,0.09,4.17,0,6.26,0l6.26-.16,6.26-.16,3.13-.08,3.12-.23,12.49-.95,3.12-.24c1-.07,2.07-0.25,3.11-0.36l6.22-.79-4.82-38.57Z" transform="translate(-1998.14 -466.51)"/><path class="cls-1" d="M2431.9,1420.15a376.59,376.59,0,0,0,49.2,9.47l4.86-38.56a337.72,337.72,0,0,1-44.15-8.49Z" transform="translate(-1998.14 -466.51)"/><path class="cls-1" d="M2379.8,1359.52l-2.5-1.28-5-2.57-5-2.56c-1.66-.86-3.26-1.85-4.89-2.77l-19,33.89c1.82,1,3.6,2.12,5.46,3.08l5.58,2.86L2360,1393l2.79,1.43c0.93,0.48,1.86,1,2.82,1.37,7.64,3.39,15.15,7.07,23,10l14.39-36.11c-7-2.58-13.77-5.92-20.64-8.94C2381.46,1360.38,2380.63,1360,2379.8,1359.52Z" transform="translate(-1998.14 -466.51)"/><g class="cls-2"><path class="cls-3" d="M2529,1504.16a449.8,449.8,0,1,1,175.63-35.46A448.37,448.37,0,0,1,2529,1504.16Zm0-888.38a435.8,435.8,0,1,0,170.17,34.35A434.44,434.44,0,0,0,2529,615.78Z" transform="translate(-1998.14 -466.51)"/></g><path class="cls-1" d="M2564.4,556.29c-6.24-.51-12.5-0.7-18.75-1l2.9-88.45c7.35,0.34,14.7.59,22,1.17Z" transform="translate(-1998.14 -466.51)"/><path class="cls-1" d="M2598.27,559.82c-3.09-.49-6.2-0.81-9.3-1.19s-6.21-.78-9.32-1l8.88-88.05c3.67,0.31,7.32.79,11,1.22s7.32,0.84,11,1.41Z" transform="translate(-1998.14 -466.51)"/><path class="cls-1" d="M2631.8,565.63c-6.13-1.2-12.25-2.49-18.43-3.47l14.88-87.24c7.27,1.17,14.49,2.66,21.72,4.09Z" transform="translate(-1998.14 -466.51)"/><path class="cls-1" d="M2664.83,573.77l-9-2.47c-3-.8-6.07-1.51-9.1-2.27l20.83-86c3.57,0.89,7.16,1.74,10.72,2.68l10.66,2.91Z" transform="translate(-1998.14 -466.51)"/><path class="cls-1" d="M2697.23,584.16c-3-1-5.88-2.11-8.85-3.1l-8.91-2.91,26.71-84.38,10.51,3.43c3.49,1.17,7,2.44,10.43,3.65Z" transform="translate(-1998.14 -466.51)"/><path class="cls-1" d="M2728.83,596.75c-5.7-2.56-11.51-4.87-17.3-7.24L2744,507.18c6.83,2.78,13.67,5.51,20.4,8.53Z" transform="translate(-1998.14 -466.51)"/><path class="cls-1" d="M2759.51,611.48l-4.15-2.18-4.2-2.09c-2.81-1.37-5.58-2.82-8.42-4.12l38-79.91c3.34,1.55,6.62,3.24,9.93,4.86l4.94,2.47,4.89,2.57Z" transform="translate(-1998.14 -466.51)"/><path class="cls-1" d="M2789.11,628.28c-2.64-1.67-5.34-3.25-8-4.83s-5.37-3.2-8.13-4.69l43.42-77.12c3.24,1.76,6.39,3.66,9.57,5.52s6.36,3.72,9.47,5.69Z" transform="translate(-1998.14 -466.51)"/><path class="cls-1" d="M2817.5,647.07c-2.51-1.86-5.13-3.57-7.7-5.36l-3.87-2.66-3.93-2.57,48.59-74,4.62,3,4.55,3.12c3,2.1,6.1,4.13,9.06,6.31Z" transform="translate(-1998.14 -466.51)"/><path class="cls-1" d="M2844.56,667.74c-2.4-2-4.89-3.91-7.32-5.87s-4.93-3.86-7.42-5.74l53.52-70.49c2.94,2.22,5.87,4.44,8.74,6.76s5.78,4.56,8.61,6.91Z" transform="translate(-1998.14 -466.51)"/><path class="cls-1" d="M2870.15,690.22c-4.61-4.23-9.18-8.5-13.93-12.58L2914.4,611c5.58,4.8,11,9.81,16.39,14.8Z" transform="translate(-1998.14 -466.51)"/><path class="cls-1" d="M2894.15,714.38l-6.45-6.81c-2.15-2.28-4.39-4.45-6.58-6.69l62.58-62.58c2.58,2.62,5.22,5.2,7.75,7.87l7.59,8Z" transform="translate(-1998.14 -466.51)"/><polygon class="cls-1" points="918.3 273.62 912.34 266.37 906.22 259.25 972.91 201.07 980.11 209.44 987.12 217.97 918.3 273.62"/><polygon class="cls-1" points="938.79 300.81 933.35 293.17 927.73 285.65 998.22 232.14 1004.83 240.99 1011.24 249.98 938.79 300.81"/><path class="cls-1" d="M2955.52,795.85c-1.64-2.66-3.22-5.36-4.91-8l-5.07-7.9,74-48.59,6,9.3c2,3.1,3.86,6.27,5.79,9.41Z" transform="translate(-1998.14 -466.51)"/><path class="cls-1" d="M2972.11,825.57c-2.81-5.59-5.86-11-8.87-16.53l77.12-43.42c3.55,6.45,7.13,12.89,10.45,19.47Z" transform="translate(-1998.14 -466.51)"/><path class="cls-1" d="M2986.62,856.34l-1.84-4.31-1.94-4.27c-1.32-2.83-2.55-5.71-3.94-8.51l79.91-38c1.63,3.3,3.09,6.69,4.64,10l2.29,5,2.18,5.08Z" transform="translate(-1998.14 -466.51)"/><path class="cls-1" d="M2086.55,824.4c-2.93,5.53-5.6,11.18-8.33,16.8l-80.08-37.69c3.2-6.63,6.37-13.29,9.81-19.8Z" transform="translate(-1998.14 -466.51)"/><path class="cls-1" d="M2103.22,794.72l-2.45,4-2.35,4.06c-1.54,2.72-3.19,5.38-4.65,8.14l-77.3-43.09c1.74-3.25,3.66-6.39,5.48-9.59l2.77-4.78,2.88-4.72Z" transform="translate(-1998.14 -466.51)"/><path class="cls-1" d="M2121.88,766.25c-1.85,2.53-3.57,5.13-5.33,7.72s-3.53,5.16-5.19,7.81l-74.18-48.27c2-3.11,4-6.15,6.12-9.2s4.11-6.11,6.28-9.09Z" transform="translate(-1998.14 -466.51)"/><path class="cls-1" d="M2142.44,739.11c-2,2.39-3.89,4.9-5.84,7.34l-2.9,3.69-2.81,3.76-70.72-53.21,3.31-4.42,3.41-4.35c2.29-2.88,4.51-5.82,6.88-8.64Z" transform="translate(-1998.14 -466.51)"/><path class="cls-1" d="M2164.8,713.42c-4.22,4.62-8.47,9.21-12.52,14l-66.94-57.9c4.77-5.61,9.77-11,14.74-16.45Z" transform="translate(-1998.14 -466.51)"/><path class="cls-1" d="M2188.86,689.31l-6.78,6.49c-2.28,2.14-4.43,4.41-6.66,6.61l-62.85-62.31c2.61-2.59,5.16-5.25,7.84-7.78l8-7.63Z" transform="translate(-1998.14 -466.51)"/><path class="cls-1" d="M2214.51,666.91l-7.22,6c-2.39,2-4.72,4.1-7.09,6.15l-58.47-66.43c2.78-2.41,5.54-4.85,8.34-7.23l8.5-7.06Z" transform="translate(-1998.14 -466.51)"/><polygon class="cls-1" points="243.48 179.79 235.86 185.27 228.37 190.92 174.55 120.66 183.37 114.02 192.34 107.57 243.48 179.79"/><path class="cls-1" d="M2270.06,627.59c-2.65,1.66-5.35,3.24-8,4.95l-7.87,5.1-48.91-73.76,9.27-6c3.09-2,6.26-3.88,9.38-5.83Z" transform="translate(-1998.14 -466.51)"/><path class="cls-1" d="M2299.71,610.87c-5.57,2.83-11,5.91-16.49,8.94l-43.76-76.93c6.44-3.58,12.86-7.19,19.43-10.53Z" transform="translate(-1998.14 -466.51)"/><path class="cls-1" d="M2330.42,596.22l-4.3,1.86-4.26,2c-2.83,1.33-5.7,2.57-8.49,4L2275,524.28c3.3-1.64,6.67-3.12,10-4.69l5-2.31,5.07-2.2Z" transform="translate(-1998.14 -466.51)"/><path class="cls-1" d="M2362.06,583.71c-3,1-5.87,2.14-8.8,3.24s-5.86,2.18-8.74,3.39l-32.81-82.19c3.4-1.41,6.86-2.7,10.31-4s6.88-2.63,10.38-3.81Z" transform="translate(-1998.14 -466.51)"/><path class="cls-1" d="M2394.48,573.4c-3,.84-6,1.76-9,2.63s-6,1.83-9,2.79l-27.08-84.26c3.51-1.13,7-2.27,10.55-3.29s7.06-2.11,10.61-3.1Z" transform="translate(-1998.14 -466.51)"/><path class="cls-1" d="M2427.54,565.37l-9.16,2c-3.05.66-6.08,1.46-9.12,2.18l-21.21-85.92c3.58-.85,7.15-1.78,10.75-2.57l10.8-2.34Z" transform="translate(-1998.14 -466.51)"/><path class="cls-1" d="M2461.09,559.64c-3.09.45-6.2,0.84-9.28,1.33l-9.25,1.54-15.26-87.18,10.9-1.81c3.64-.58,7.29-1,10.94-1.57Z" transform="translate(-1998.14 -466.51)"/><path class="cls-1" d="M2495,556.2l-4.68.3c-1.56.12-3.12,0.28-4.67,0.41-3.11.3-6.23,0.53-9.34,0.87l-9.26-88c3.66-.4,7.33-0.69,11-1,1.83-.16,3.67-0.34,5.5-0.48l5.51-.36Z" transform="translate(-1998.14 -466.51)"/><polygon class="cls-1" points="530.89 88.5 521.49 88.64 516.8 88.7 512.1 88.89 508.83 0.45 514.34 0.23 519.86 0.15 530.89 0 530.89 88.5"/><path class="cls-1" d="M2046.84,849.74c-1,2.17-1.85,4.38-2.72,6.59l-2.65,6.61c-1.72,4.43-3.34,8.89-5,13.34s-3.15,9-4.61,13.49l-2.16,6.79L2028.6,900l-1,3.42a523,523,0,0,0-21.34,169c1.14,2.73,2.25,5.44,3.42,8.14l3.61,8,1.8,4,1.9,3.95,3.8,7.82a514,514,0,0,0,17.55,91,503,503,0,0,0,33.8,86.28A511.58,511.58,0,0,0,2613,1556.85a503.42,503.42,0,0,0,89.66-23.38,510.61,510.61,0,0,0,332.63-412.31c1.43-2.54,2.74-5.1,4.07-7.68l4-7.79,3.8-7.91c1.28-2.65,2.55-5.32,3.73-8A533.09,533.09,0,0,0,3046.54,976a523,523,0,0,0-28.81-110.09l-23.53,9a507.45,507.45,0,0,1,17.91,56.77,514,514,0,0,1,11,58.53,505.87,505.87,0,0,1,.73,119,495.47,495.47,0,0,1-27.3,115.68,500,500,0,0,1-178.19,233.39,507.84,507.84,0,0,1-50.44,31.69,494.83,494.83,0,0,1-110.34,44.16l-3.59,1c-1.2.32-2.41,0.59-3.61,0.89l-7.23,1.77c-2.41.61-4.85,1.07-7.27,1.62s-4.85,1.08-7.28,1.56c-9.75,1.9-19.52,3.68-29.36,5a494.15,494.15,0,0,1-59.4,4.8l-9.54-5c-3.15-1.68-6.26-3.46-9.35-5.18l-4.73,2.48-4.78,2.36c-3.2,1.56-6.43,3.2-9.69,4.69a512.45,512.45,0,0,1-59.19-6.75,495.2,495.2,0,0,1-57.91-13.79,484.71,484.71,0,0,1-55.83-20.65c-4.57-1.94-9-4.1-13.55-6.19-2.26-1-4.46-2.17-6.69-3.27l-6.66-3.32c-8.79-4.61-17.55-9.31-26.06-14.43s-16.92-10.42-25.2-15.91c-8.18-5.64-16.32-11.35-24.16-17.45s-15.56-12.37-23.13-18.8-14.85-13.21-21.92-20.2-14-14.13-20.73-21.42-13.18-14.88-19.37-22.66-12.2-15.69-18-23.73-11.31-16.34-16.54-24.79c-1.31-2.11-2.65-4.2-3.93-6.33l-3.79-6.41-1.9-3.21-1.82-3.25-3.64-6.5c-1.2-2.17-2.33-4.39-3.49-6.58s-2.36-4.37-3.44-6.61c-2.19-4.46-4.48-8.86-6.52-13.39a486,486,0,0,1-22-55.3,495.27,495.27,0,0,1-15.24-57.54,511.62,511.62,0,0,1-8.22-59,505.86,505.86,0,0,1-1.15-59.62c0.33-9.94,1.12-19.85,2-29.75l0.82-7.41c0.29-2.47.51-4.94,0.88-7.4,0.7-4.92,1.28-9.85,2.14-14.74a493.37,493.37,0,0,1,32.69-114.26Z" transform="translate(-1998.14 -466.51)"/></svg>