<svg preserveAspectRatio="none" xmlns="http://www.w3.org/2000/svg" viewBox="0 0 210 210"><defs><clipPath id="clip-path" transform="translate(-2433.22 -1107.32)"><circle class="cls-1" cx="2540.13" cy="1208.95" r="7.18"/></clipPath><clipPath id="clip-path-2" transform="translate(-2433.22 -1107.32)"><path class="cls-1" d="M2540.07 1135.91l-1.77-3.06-1.77-3.06h7.07l-1.76 3.06-1.77 3.06z"/></clipPath><clipPath id="clip-path-3" transform="translate(-2433.22 -1107.32)"><path class="cls-1" d="M2540.07 1282.37l-1.77 3.06-1.77 3.06h7.07l-1.76-3.06-1.77-3.06z"/></clipPath><clipPath id="clip-path-4" transform="translate(-2433.22 -1107.32)"><path class="cls-1" d="M2466.62 1209.48l-3.06 1.77-3.06 1.77v-7.07l3.06 1.76 3.06 1.77z"/></clipPath><clipPath id="clip-path-5" transform="translate(-2433.22 -1107.32)"><path class="cls-1" d="M2613.07 1209.48l3.06 1.77 3.06 1.77v-7.07l-3.06 1.76-3.06 1.77z"/></clipPath><style>.cls-1{fill:#03a6ff}</style></defs><g style="isolation:isolate"><g id="Layer_3" data-name="Layer 3"><path class="cls-1" d="M2540.13 1272.18a63.23 63.23 0 1163.23-63.23 63.3 63.3 0 01-63.23 63.23zm0-125.79a62.56 62.56 0 1062.56 62.56 62.63 62.63 0 00-62.56-62.56z" transform="translate(-2433.22 -1107.32)"/><path class="cls-1" d="M2540.13 1272.18a63.23 63.23 0 1163.23-63.23 63.3 63.3 0 01-63.23 63.23zm0-125.79a62.56 62.56 0 1062.56 62.56 62.63 62.63 0 00-62.56-62.56z" transform="translate(-2433.22 -1107.32)"/><path class="cls-1" d="M2542.21 1268.73h-.65l-.07-2.67h.63c.45 0 .89 0 1.32-.07l.15 2.67zm-4.06 0l-2-.1.18-2.67 2 .1zm8.83-.36l-.3-2.66c.65-.07 1.29-.16 1.93-.25l.4 2.64zm-14.26-.06c-.67-.08-1.35-.18-2-.28l.42-2.64q1 .16 1.93.27zm19.63-.8l-.54-2.62c.64-.13 1.28-.28 1.9-.43l.63 2.6c-.64.16-1.34.32-1.98.45zm-25-.11c-.67-.15-1.33-.3-2-.47l.66-2.59c.63.16 1.26.31 1.89.45zm30.27-1.24l-.78-2.56c.63-.19 1.24-.39 1.85-.6l.87 2.53c-.62.22-1.27.47-1.92.63zm-35.54-.15c-.65-.2-1.3-.42-1.94-.65l.89-2.52c.61.22 1.23.42 1.85.62zm40.67-1.67l-1-2.48c.6-.24 1.2-.5 1.79-.77l1.1 2.44c-.64.28-1.24.55-1.87.81zm-45.79-.21c-.63-.27-1.25-.54-1.87-.83l1.12-2.43c.59.28 1.19.54 1.79.79zm50.72-2.08l-1.24-2.37c.58-.3 1.15-.61 1.71-.93l1.32 2.33c-.57.33-1.17.65-1.77.92zm-55.64-.26c-.6-.32-1.2-.65-1.79-1l1.34-2.32q.84.49 1.71 1zm60.35-2.46l-1.45-2.25c.54-.35 1.09-.71 1.62-1.08l1.52 2.2c-.54.37-1.08.8-1.68 1.12zm-65-.32c-.57-.37-1.14-.76-1.69-1.15l1.54-2.19c.53.37 1.07.74 1.62 1.1zm69.48-2.83l-1.64-2.11c.51-.4 1-.8 1.52-1.23l1.71 2.06c-.55.43-1.08.85-1.62 1.28zm-73.89-.36c-.54-.42-1.06-.85-1.58-1.3l1.73-2c.5.42 1 .84 1.5 1.24zm78-3.18l-1.83-2c.47-.45.94-.89 1.41-1.36l1.89 1.89c-.45.54-.98 1.01-1.45 1.47zm-82.13-.4c-.5-.47-1-1-1.45-1.43l1.91-1.87c.46.46.92.92 1.39 1.37zm85.93-3.49l-2-1.78c.43-.49.86-1 1.28-1.48l2.06 1.71c-.44.52-.89 1.04-1.34 1.55zm-89.69-.44q-.67-.77-1.32-1.56l2.07-1.69c.41.5.83 1 1.26 1.49zm93.12-3.79l-2.15-1.59c.39-.52.76-1 1.14-1.58l2.2 1.52q-.58.84-1.19 1.65zm-96.52-.46c-.4-.55-.79-1.11-1.17-1.67l2.22-1.5c.37.54.74 1.07 1.12 1.59zm-3-4.54c-.35-.59-.68-1.17-1-1.77l2.34-1.29c.31.57.63 1.13 1 1.69zm-2.57-4.79c-.29-.61-.58-1.23-.85-1.85l2.45-1.07c.26.59.53 1.19.8 1.77zm-2.11-5c-.24-.63-.46-1.28-.67-1.93l2.54-.84c.2.62.42 1.24.64 1.84zm-1.66-5.18c-.18-.66-.34-1.32-.5-2l2.61-.61c.15.63.31 1.27.47 1.89zm-1.17-5.31c-.11-.67-.22-1.34-.32-2l2.65-.37c.09.65.19 1.29.3 1.93zm-.68-5.4c-.06-.67-.1-1.36-.13-2l2.67-.12q0 1 .12 2zm2.48-5.42h-2.67v-2l2.67.11q.02.89.02 1.87zm.28-5.19l-2.66-.27c.07-.68.15-1.36.24-2l2.65.36c-.08.59-.16 1.24-.23 1.89zm.76-5.14l-2.62-.5c.13-.67.27-1.33.42-2l2.61.6c-.16.6-.29 1.23-.43 1.87zm1.22-5.05l-2.57-.75c.19-.66.39-1.31.6-2l2.54.83c-.2.64-.39 1.26-.57 1.88zm1.68-4.93l-2.49-1c.25-.63.51-1.27.78-1.89l2.45 1.06c-.26.58-.5 1.19-.74 1.79zm2.12-4.75l-2.39-1.2c.31-.61.63-1.21 1-1.81l2.35 1.28c-.37.53-.67 1.11-1 1.69zm2.55-4.54l-2.27-1.41c.36-.58.73-1.15 1.11-1.71l2.22 1.49c-.37.49-.72 1.04-1.06 1.59zm94.38-3.94c-.39-.52-.79-1-1.19-1.54l2.09-1.67c.42.53.84 1.07 1.24 1.62zm-91.44-.34l-2.13-1.62c.41-.54.83-1.08 1.26-1.61l2.07 1.68zm88.15-3.68c-.43-.49-.88-1-1.32-1.43l1.93-1.85c.47.49.93 1 1.39 1.5zm-84.83-.33l-2-1.8c.46-.5.93-1 1.4-1.49l1.92 1.87q-.65.66-1.31 1.38zm81.19-3.38c-.48-.44-1-.88-1.45-1.3l1.76-2c.51.45 1 .9 1.52 1.37zm-77.51-.3l-1.8-2c.5-.46 1-.91 1.53-1.35l1.74 2q-.75.65-1.47 1.31zm73.55-3.06c-.51-.4-1-.79-1.57-1.17l1.57-2.17q.83.6 1.63 1.22zm-69.56-.27l-1.62-2.13c.54-.41 1.09-.81 1.64-1.21l1.54 2.18c-.52.33-1.08.72-1.56 1.12zm65.3-2.73c-.54-.35-1.11-.69-1.67-1l1.36-2.3c.59.35 1.17.71 1.74 1.07zm-61-.23l-1.42-2.27c.58-.36 1.15-.72 1.75-1.06l1.34 2.31c-.6.29-1.15.63-1.7.98zm56.52-2.37c-.58-.3-1.16-.59-1.76-.87l1.15-2.41c.62.29 1.23.59 1.84.91zm-52-.19l-1.21-2.38c.6-.31 1.22-.6 1.83-.89l1.13 2.42c-.62.23-1.21.51-1.78.85zm47.27-2q-.9-.37-1.83-.71l.92-2.51c.64.24 1.28.48 1.91.74zm-42.54-.15l-1-2.49c.63-.25 1.27-.49 1.91-.72l.9 2.52zm37.63-1.58l-1.89-.54.68-2.58c.66.18 1.32.36 2 .56zm-32.71-.11l-.76-2.57c.65-.2 1.31-.37 2-.54l.67 2.59c-.7.13-1.32.3-1.9.49zm27.66-1.17c-.63-.13-1.28-.25-1.92-.36l.45-2.63c.67.11 1.34.24 2 .37zm-22.62-.07l-.52-2.62c.67-.13 1.33-.25 2-.36l.43 2.64c-.66.07-1.3.18-1.94.31zm17.48-.74c-.64-.07-1.29-.13-1.94-.18l.2-2.67c.68 0 1.36.11 2 .19zm-12.34 0l-.28-2.66c.67-.07 1.35-.13 2-.18l.19 2.67c-.64-.01-1.29-.01-1.94.11zm7.14-.3h-2v-2.67h2zM2592 1238.87a59.83 59.83 0 00-1.65-62.53l2.58-1.67a62.9 62.9 0 011.73 65.75z" transform="translate(-2433.22 -1107.32)"/><circle class="cls-1" cx="106.9" cy="101.63" r="2.42"/><circle class="cls-1" cx="106.9" cy="101.63" r="2.42"/><g style="mix-blend-mode:screen"><circle class="cls-1" cx="106.9" cy="101.63" r="7.18"/><g clip-path="url(#clip-path)"><path class="cls-1" d="M99.72 94.45h14.36v14.36H99.72z"/><circle class="cls-1" cx="106.9" cy="101.63" r="7.18"/><circle class="cls-1" cx="106.9" cy="101.63" r="7.15"/><circle class="cls-1" cx="106.9" cy="101.63" r="7.12"/><circle class="cls-1" cx="106.9" cy="101.63" r="7.1"/><circle class="cls-1" cx="106.9" cy="101.63" r="7.07"/><circle class="cls-1" cx="106.9" cy="101.63" r="7.04"/><circle class="cls-1" cx="106.9" cy="101.63" r="7.01"/><circle class="cls-1" cx="106.9" cy="101.63" r="6.98"/><circle class="cls-1" cx="106.9" cy="101.63" r="6.96"/><circle class="cls-1" cx="106.9" cy="101.63" r="6.93"/><circle class="cls-1" cx="106.9" cy="101.63" r="6.9"/><circle class="cls-1" cx="106.9" cy="101.63" r="6.87"/><circle class="cls-1" cx="106.9" cy="101.63" r="6.84"/><circle class="cls-1" cx="106.9" cy="101.63" r="6.81"/><circle class="cls-1" cx="106.9" cy="101.63" r="6.79"/><circle class="cls-1" cx="106.9" cy="101.63" r="6.76"/><circle class="cls-1" cx="106.9" cy="101.63" r="6.73"/><circle class="cls-1" cx="106.9" cy="101.63" r="6.7"/><circle class="cls-1" cx="106.9" cy="101.63" r="6.67"/><circle class="cls-1" cx="106.9" cy="101.63" r="6.65"/><circle class="cls-1" cx="106.9" cy="101.63" r="6.62"/><circle class="cls-1" cx="106.9" cy="101.63" r="6.59"/><circle class="cls-1" cx="106.9" cy="101.63" r="6.56"/><circle class="cls-1" cx="106.9" cy="101.63" r="6.53"/><circle class="cls-1" cx="106.9" cy="101.63" r="6.51"/><circle class="cls-1" cx="106.9" cy="101.63" r="6.48"/><circle class="cls-1" cx="106.9" cy="101.63" r="6.45"/><circle class="cls-1" cx="106.9" cy="101.63" r="6.42"/><circle class="cls-1" cx="106.9" cy="101.63" r="6.39"/><circle class="cls-1" cx="106.9" cy="101.63" r="6.36"/><circle class="cls-1" cx="106.9" cy="101.63" r="6.34"/><circle class="cls-1" cx="106.9" cy="101.63" r="6.31"/><circle class="cls-1" cx="106.9" cy="101.63" r="6.28"/><circle class="cls-1" cx="106.9" cy="101.63" r="6.25"/><circle class="cls-1" cx="106.9" cy="101.63" r="6.22"/><circle class="cls-1" cx="106.9" cy="101.63" r="6.2"/><circle class="cls-1" cx="106.9" cy="101.63" r="6.17"/><circle class="cls-1" cx="106.9" cy="101.63" r="6.14"/><circle class="cls-1" cx="106.9" cy="101.63" r="6.11"/><circle class="cls-1" cx="106.9" cy="101.63" r="6.08"/><circle class="cls-1" cx="106.9" cy="101.63" r="6.05"/><circle class="cls-1" cx="106.9" cy="101.63" r="6.03"/><circle class="cls-1" cx="106.9" cy="101.63" r="6"/><circle class="cls-1" cx="106.9" cy="101.63" r="5.97"/><circle class="cls-1" cx="106.9" cy="101.63" r="5.94"/><circle class="cls-1" cx="106.9" cy="101.63" r="5.91"/><circle class="cls-1" cx="106.9" cy="101.63" r="5.89"/><circle class="cls-1" cx="106.9" cy="101.63" r="5.86"/><circle class="cls-1" cx="106.9" cy="101.63" r="5.83"/><circle class="cls-1" cx="106.9" cy="101.63" r="5.8"/><circle class="cls-1" cx="106.9" cy="101.63" r="5.77"/><circle class="cls-1" cx="106.9" cy="101.63" r="5.74"/><circle class="cls-1" cx="106.9" cy="101.63" r="5.72"/><circle class="cls-1" cx="106.9" cy="101.63" r="5.69"/><circle class="cls-1" cx="106.9" cy="101.63" r="5.66"/><circle class="cls-1" cx="106.9" cy="101.63" r="5.63"/><circle class="cls-1" cx="106.9" cy="101.63" r="5.6"/><circle class="cls-1" cx="106.9" cy="101.63" r="5.58"/><circle class="cls-1" cx="106.9" cy="101.63" r="5.55"/><circle class="cls-1" cx="106.9" cy="101.63" r="5.52"/><circle class="cls-1" cx="106.9" cy="101.63" r="5.49"/><circle class="cls-1" cx="106.9" cy="101.63" r="5.46"/><circle class="cls-1" cx="106.9" cy="101.63" r="5.44"/><circle class="cls-1" cx="106.9" cy="101.63" r="5.41"/><circle class="cls-1" cx="106.9" cy="101.63" r="5.38"/><circle class="cls-1" cx="106.9" cy="101.63" r="5.35"/><circle class="cls-1" cx="106.9" cy="101.63" r="5.32"/><circle class="cls-1" cx="106.9" cy="101.63" r="5.29"/><circle class="cls-1" cx="106.9" cy="101.63" r="5.27"/><circle class="cls-1" cx="106.9" cy="101.63" r="5.24"/><circle class="cls-1" cx="106.9" cy="101.63" r="5.21"/><circle class="cls-1" cx="106.9" cy="101.63" r="5.18"/><circle class="cls-1" cx="106.9" cy="101.63" r="5.15"/><circle class="cls-1" cx="106.9" cy="101.63" r="5.13"/><circle class="cls-1" cx="106.9" cy="101.63" r="5.1"/><circle class="cls-1" cx="106.9" cy="101.63" r="5.07"/><circle class="cls-1" cx="106.9" cy="101.63" r="5.04"/><circle class="cls-1" cx="106.9" cy="101.63" r="5.01"/><circle class="cls-1" cx="106.9" cy="101.63" r="4.98"/><circle class="cls-1" cx="106.9" cy="101.63" r="4.96"/><circle class="cls-1" cx="106.9" cy="101.63" r="4.93"/><circle class="cls-1" cx="106.9" cy="101.63" r="4.9"/><circle class="cls-1" cx="106.9" cy="101.63" r="4.87"/><circle class="cls-1" cx="106.9" cy="101.63" r="4.84"/><circle class="cls-1" cx="106.9" cy="101.63" r="4.82"/><circle class="cls-1" cx="106.9" cy="101.63" r="4.79"/><circle class="cls-1" cx="106.9" cy="101.63" r="4.76"/><circle class="cls-1" cx="106.9" cy="101.63" r="4.73"/><circle class="cls-1" cx="106.9" cy="101.63" r="4.7"/><circle class="cls-1" cx="106.9" cy="101.63" r="4.67"/><circle class="cls-1" cx="106.9" cy="101.63" r="4.65"/><circle class="cls-1" cx="106.9" cy="101.63" r="4.62"/><circle class="cls-1" cx="106.9" cy="101.63" r="4.59"/><circle class="cls-1" cx="106.9" cy="101.63" r="4.56"/><circle class="cls-1" cx="106.9" cy="101.63" r="4.53"/><circle class="cls-1" cx="106.9" cy="101.63" r="4.51"/><circle class="cls-1" cx="106.9" cy="101.63" r="4.48"/><circle class="cls-1" cx="106.9" cy="101.63" r="4.45"/><circle class="cls-1" cx="106.9" cy="101.63" r="4.42"/><circle class="cls-1" cx="106.9" cy="101.63" r="4.39"/><circle class="cls-1" cx="106.9" cy="101.63" r="4.36"/><circle class="cls-1" cx="106.9" cy="101.63" r="4.34"/><circle class="cls-1" cx="106.9" cy="101.63" r="4.31"/><circle class="cls-1" cx="106.9" cy="101.63" r="4.28"/><circle class="cls-1" cx="106.9" cy="101.63" r="4.25"/><circle class="cls-1" cx="106.9" cy="101.63" r="4.22"/><circle class="cls-1" cx="106.9" cy="101.63" r="4.2"/><circle class="cls-1" cx="106.9" cy="101.63" r="4.17"/><circle class="cls-1" cx="106.9" cy="101.63" r="4.14"/><circle class="cls-1" cx="106.9" cy="101.63" r="4.11"/><circle class="cls-1" cx="106.9" cy="101.63" r="4.08"/><circle class="cls-1" cx="106.9" cy="101.63" r="4.06"/><circle class="cls-1" cx="106.9" cy="101.63" r="4.03"/><circle class="cls-1" cx="106.9" cy="101.63" r="4"/><circle class="cls-1" cx="106.9" cy="101.63" r="3.97"/><circle class="cls-1" cx="106.9" cy="101.63" r="3.94"/><circle class="cls-1" cx="106.9" cy="101.63" r="3.91"/><circle class="cls-1" cx="106.9" cy="101.63" r="3.89"/><circle class="cls-1" cx="106.9" cy="101.63" r="3.86"/><circle class="cls-1" cx="106.9" cy="101.63" r="3.83"/><circle class="cls-1" cx="106.9" cy="101.63" r="3.8"/><circle class="cls-1" cx="106.9" cy="101.63" r="3.77"/><circle class="cls-1" cx="106.9" cy="101.63" r="3.75"/><circle class="cls-1" cx="106.9" cy="101.63" r="3.72"/><circle class="cls-1" cx="106.9" cy="101.63" r="3.69"/><circle class="cls-1" cx="106.9" cy="101.63" r="3.66"/><circle class="cls-1" cx="106.9" cy="101.63" r="3.63"/><circle class="cls-1" cx="106.9" cy="101.63" r="3.6"/><circle class="cls-1" cx="106.9" cy="101.63" r="3.58"/><circle class="cls-1" cx="106.9" cy="101.63" r="3.55"/><circle class="cls-1" cx="106.9" cy="101.63" r="3.52"/><circle class="cls-1" cx="106.9" cy="101.63" r="3.49"/><circle class="cls-1" cx="106.9" cy="101.63" r="3.46"/><circle class="cls-1" cx="106.9" cy="101.63" r="3.44"/><circle class="cls-1" cx="106.9" cy="101.63" r="3.41"/><circle class="cls-1" cx="106.9" cy="101.63" r="3.38"/><circle class="cls-1" cx="106.9" cy="101.63" r="3.35"/><circle class="cls-1" cx="106.9" cy="101.63" r="3.32"/><circle class="cls-1" cx="106.9" cy="101.63" r="3.29"/><circle class="cls-1" cx="106.9" cy="101.63" r="3.27"/><circle class="cls-1" cx="106.9" cy="101.63" r="3.24"/><circle class="cls-1" cx="106.9" cy="101.63" r="3.21"/><circle class="cls-1" cx="106.9" cy="101.63" r="3.18"/><circle class="cls-1" cx="106.9" cy="101.63" r="3.15"/><circle class="cls-1" cx="106.9" cy="101.63" r="3.13"/><circle class="cls-1" cx="106.9" cy="101.63" r="3.1"/><circle class="cls-1" cx="106.9" cy="101.63" r="3.07"/><circle class="cls-1" cx="106.9" cy="101.63" r="3.04"/><circle class="cls-1" cx="106.9" cy="101.63" r="3.01"/><circle class="cls-1" cx="106.9" cy="101.63" r="2.99"/><circle class="cls-1" cx="106.9" cy="101.63" r="2.96"/><circle class="cls-1" cx="106.9" cy="101.63" r="2.93"/><circle class="cls-1" cx="106.9" cy="101.63" r="2.9"/><circle class="cls-1" cx="106.9" cy="101.63" r="2.87"/><circle class="cls-1" cx="106.9" cy="101.63" r="2.84"/><circle class="cls-1" cx="106.9" cy="101.63" r="2.82"/><circle class="cls-1" cx="106.9" cy="101.63" r="2.79"/><circle class="cls-1" cx="106.9" cy="101.63" r="2.76"/><circle class="cls-1" cx="106.9" cy="101.63" r="2.73"/><circle class="cls-1" cx="106.9" cy="101.63" r="2.7"/><circle class="cls-1" cx="106.9" cy="101.63" r="2.68"/><circle class="cls-1" cx="106.9" cy="101.63" r="2.65"/><circle class="cls-1" cx="106.9" cy="101.63" r="2.62"/><circle class="cls-1" cx="106.9" cy="101.63" r="2.59"/><circle class="cls-1" cx="106.9" cy="101.63" r="2.56"/><circle class="cls-1" cx="106.9" cy="101.63" r="2.53"/><circle class="cls-1" cx="106.9" cy="101.63" r="2.51"/><circle class="cls-1" cx="106.9" cy="101.63" r="2.48"/><circle class="cls-1" cx="106.9" cy="101.63" r="2.45"/><circle class="cls-1" cx="106.9" cy="101.63" r="2.42"/><circle class="cls-1" cx="106.9" cy="101.63" r="2.39"/><circle class="cls-1" cx="106.9" cy="101.63" r="2.37"/><circle class="cls-1" cx="106.9" cy="101.63" r="2.34"/><circle class="cls-1" cx="106.9" cy="101.63" r="2.31"/><circle class="cls-1" cx="106.9" cy="101.63" r="2.28"/><circle class="cls-1" cx="106.9" cy="101.63" r="2.25"/><circle class="cls-1" cx="106.9" cy="101.63" r="2.22"/><circle class="cls-1" cx="106.9" cy="101.63" r="2.2"/><circle class="cls-1" cx="106.9" cy="101.63" r="2.17"/><circle class="cls-1" cx="106.9" cy="101.63" r="2.14"/><circle class="cls-1" cx="106.9" cy="101.63" r="2.11"/><circle class="cls-1" cx="106.9" cy="101.63" r="2.08"/><circle class="cls-1" cx="106.9" cy="101.63" r="2.06"/><circle class="cls-1" cx="106.9" cy="101.63" r="2.03"/><circle class="cls-1" cx="106.9" cy="101.63" r="2"/><circle class="cls-1" cx="106.9" cy="101.63" r="1.97"/><circle class="cls-1" cx="106.9" cy="101.63" r="1.94"/><circle class="cls-1" cx="106.9" cy="101.63" r="1.91"/><circle class="cls-1" cx="106.9" cy="101.63" r="1.89"/><circle class="cls-1" cx="106.9" cy="101.63" r="1.86"/><circle class="cls-1" cx="106.9" cy="101.63" r="1.83"/><circle class="cls-1" cx="106.9" cy="101.63" r="1.8"/><circle class="cls-1" cx="106.9" cy="101.63" r="1.77"/><circle class="cls-1" cx="106.9" cy="101.63" r="1.75"/><circle class="cls-1" cx="106.9" cy="101.63" r="1.72"/><circle class="cls-1" cx="106.9" cy="101.63" r="1.69"/><circle class="cls-1" cx="106.9" cy="101.63" r="1.66"/><circle class="cls-1" cx="106.9" cy="101.63" r="1.63"/><circle class="cls-1" cx="106.9" cy="101.63" r="1.61"/><circle class="cls-1" cx="106.9" cy="101.63" r="1.58"/><circle class="cls-1" cx="106.9" cy="101.63" r="1.55"/><circle class="cls-1" cx="106.9" cy="101.63" r="1.52"/><circle class="cls-1" cx="106.9" cy="101.63" r="1.49"/><circle class="cls-1" cx="106.9" cy="101.63" r="1.46"/><circle class="cls-1" cx="106.9" cy="101.63" r="1.44"/><circle class="cls-1" cx="106.9" cy="101.63" r="1.41"/><circle class="cls-1" cx="106.9" cy="101.63" r="1.38"/><circle class="cls-1" cx="106.9" cy="101.63" r="1.35"/><circle class="cls-1" cx="106.9" cy="101.63" r="1.32"/><circle class="cls-1" cx="106.9" cy="101.63" r="1.3"/><circle class="cls-1" cx="106.9" cy="101.63" r="1.27"/><circle class="cls-1" cx="106.9" cy="101.63" r="1.24"/><circle class="cls-1" cx="106.9" cy="101.63" r="1.21"/><circle class="cls-1" cx="106.9" cy="101.63" r="1.18"/><circle class="cls-1" cx="106.9" cy="101.63" r="1.15"/><circle class="cls-1" cx="106.9" cy="101.63" r="1.13"/><circle class="cls-1" cx="106.9" cy="101.63" r="1.1"/><circle class="cls-1" cx="106.9" cy="101.63" r="1.07"/><circle class="cls-1" cx="106.9" cy="101.63" r="1.04"/><circle class="cls-1" cx="106.9" cy="101.63" r="1.01"/><circle class="cls-1" cx="106.9" cy="101.63" r=".99"/><circle class="cls-1" cx="106.9" cy="101.63" r=".96"/><circle class="cls-1" cx="106.9" cy="101.63" r=".93"/><circle class="cls-1" cx="106.9" cy="101.63" r=".9"/><circle class="cls-1" cx="106.9" cy="101.63" r=".87"/><circle class="cls-1" cx="106.9" cy="101.63" r=".84"/><circle class="cls-1" cx="106.9" cy="101.63" r=".82"/><circle class="cls-1" cx="106.9" cy="101.63" r=".79"/><circle class="cls-1" cx="106.9" cy="101.63" r=".76"/><circle class="cls-1" cx="106.9" cy="101.63" r=".73"/><circle class="cls-1" cx="106.9" cy="101.63" r=".7"/><circle class="cls-1" cx="106.9" cy="101.63" r=".68"/><circle class="cls-1" cx="106.9" cy="101.63" r=".65"/><circle class="cls-1" cx="106.9" cy="101.63" r=".62"/><circle class="cls-1" cx="106.9" cy="101.63" r=".59"/><circle class="cls-1" cx="106.9" cy="101.63" r=".56"/><circle class="cls-1" cx="106.9" cy="101.63" r=".54"/><circle class="cls-1" cx="106.9" cy="101.63" r=".51"/><circle class="cls-1" cx="106.9" cy="101.63" r=".48"/><circle class="cls-1" cx="106.9" cy="101.63" r=".45"/><circle class="cls-1" cx="106.9" cy="101.63" r=".42"/><circle class="cls-1" cx="106.9" cy="101.63" r=".39"/><circle class="cls-1" cx="106.9" cy="101.63" r=".37"/><circle class="cls-1" cx="106.9" cy="101.63" r=".34"/><circle class="cls-1" cx="106.9" cy="101.63" r=".31"/><circle class="cls-1" cx="106.9" cy="101.63" r=".28"/><circle class="cls-1" cx="106.9" cy="101.63" r=".25"/><circle class="cls-1" cx="106.9" cy="101.63" r=".23"/><circle class="cls-1" cx="106.9" cy="101.63" r=".2"/><circle class="cls-1" cx="106.9" cy="101.63" r=".17"/><circle class="cls-1" cx="106.9" cy="101.63" r=".14"/><circle class="cls-1" cx="106.9" cy="101.63" r=".11"/><circle class="cls-1" cx="106.9" cy="101.63" r=".08"/><circle class="cls-1" cx="106.9" cy="101.63" r=".06"/><circle class="cls-1" cx="106.9" cy="101.63" r=".03"/></g></g><path class="cls-1" d="M2552.5 1295l-.12-.8.4-.06a85.69 85.69 0 0072.44-71.7l.06-.4.8.08-.06.46a86.14 86.14 0 01-25.13 48.58 87.63 87.63 0 01-48 23.79zm-25.8-.21l.06-.4zm-.06 0a86.17 86.17 0 01-48.59-25.12 87.62 87.62 0 01-23.8-48l-.06-.4.8-.12.06.4a85.7 85.7 0 0071.7 72.41v.41zm98.81-97.93l-.06-.4a85.69 85.69 0 00-71.71-72.48l-.55-.09.13-.8.55.09a86.15 86.15 0 0148.6 25.14 87.62 87.62 0 0123.78 48l.06.4zm-170.3-.94h-.82l.07-.46a86.2 86.2 0 0125.11-48.62 87.63 87.63 0 0148-23.8l.4-.06.12.8-.4.06a85.7 85.7 0 00-72.37 71.69zM2528.22 1230.66a24.86 24.86 0 01-13-21.81v-.17h.78v.16a24 24 0 0012.57 21.09zm24.12-.24l-.4-.71.65-.38a23.88 23.88 0 0011.51-20.53v-.59h.81v.61A24.68 24.68 0 012553 1230zm-24.79-42.1l-.49-.66h.07a24.83 24.83 0 0125.52-.21l-.41.7a24 24 0 00-24.69.18z" transform="translate(-2433.22 -1107.32)"/><path class="cls-1" d="M106.85 28.59l-1.77-3.06-1.77-3.06h7.07l-1.77 3.06-1.76 3.06z"/><g clip-path="url(#clip-path-2)"><path class="cls-1" d="M90 0h30v30H90z"/><path class="cls-1" d="M90 0h30v30H90z"/></g><path class="cls-1" d="M106.85 175.05l-1.77 3.06-1.77 3.06h7.07l-1.77-3.06-1.76-3.06z"/><g clip-path="url(#clip-path-3)"><path class="cls-1" d="M90 150h30v30H90z"/><path class="cls-1" d="M90 150h30v30H90zM90 180h30v30H90z"/><path class="cls-1" d="M90 180h30v30H90z"/></g><path class="cls-1" d="M33.4 102.16l-3.06 1.77-3.06 1.77v-7.07l3.06 1.76 3.06 1.77z"/><g clip-path="url(#clip-path-4)"><path class="cls-1" d="M30 90h30v30H30z"/><path class="cls-1" d="M30 90h30v30H30zM0 90h30v30H0z"/><path class="cls-1" d="M0 90h30v30H0z"/></g><path class="cls-1" d="M179.85 102.16l3.06 1.77 3.06 1.77v-7.07l-3.06 1.76-3.06 1.77z"/><g clip-path="url(#clip-path-5)"><path class="cls-1" d="M180 90h30v30h-30z"/><path class="cls-1" d="M180 90h30v30h-30zM150 90h30v30h-30z"/><path class="cls-1" d="M150 90h30v30h-30z"/></g><path class="cls-1" d="M2616.47 1205.12h-.81v-.81l.81-.05q-.02.45 0 .86zm0 8.32v.82l-.81-.05v-.81zm-.24-11.58l-.81.08-.08-.81.81-.09zm0 14.84l-.08.81-.81-.09.08-.81zm-.38-18.08l-.8.11-.12-.8.8-.12zm0 21.33l-.12.81-.8-.12.12-.8zm-.51-24.56l-.8.15-.15-.8.8-.16zm0 27.78c-.05.27-.1.54-.15.8l-.8-.16.15-.79zm-.65-31l-.79.18-.19-.79.79-.19zm0 34.19l-.19.79-.79-.19.19-.79zm-.78-37.36l-.78.22-.22-.78.78-.22zm0 40.53l-.22.79-.78-.22.22-.78zm-.92-43.66l-.77.25-.25-.77.77-.26zm0 46.79l-.26.78-.77-.26.25-.77zm-1-49.88l-.76.28-.29-.76.76-.29zm0 53l-.29.77-.76-.29.29-.76zm-1.17-56l-.75.32-.32-.74.75-.32zm0 59.05l-.32.75-.74-.33.32-.74zm-1.29-62l-.73.35-.35-.73.73-.36zm-.05 65l-.36.74-.73-.36.35-.73zm-1.4-67.94l-.72.38-.38-.71.71-.39zm-.07 70.86l-.39.72-.71-.39.38-.71zm-1.51-73.71l-.7.41-.41-.69.7-.42zm-.08 76.58l-.42.7-.7-.42.41-.7zm-1.62-79.36l-.68.44-.44-.68.68-.45zm-.09 82.15l-.45.68-.68-.45.44-.68zm-1.73-84.85l-.66.47-.47-.66.66-.47zm-.1 87.57l-.48.67-.66-.48.47-.66zm-1.83-90.19l-.64.5-.5-.64.64-.5zm-.11 92.82l-.5.64-.64-.5.5-.64zm-1.94-95.37l-.62.52-.52-.62.62-.53zm-.12 97.91l-.53.62-.62-.53.53-.62zm-2-100.36l-.6.55-.55-.59.59-.56zm-.13 102.82l-.56.6-.59-.56.55-.59zm-2.13-105.18l-.58.57-.57-.57.57-.58zm-.14 107.53l-.58.57-.57-.58.58-.57zm-2.48-109.84l-.55.6-.6-.54.54-.6zm-.14 112.05l-.61.55-.54-.6.6-.54zm-2.31-114.21l-.52.62-.62-.52.52-.63zm-.14 116.36l-.63.52-.51-.63.62-.51zm-2.4-118.42l-.5.64-.64-.49.49-.65zm-.15 120.46l-.65.49-.49-.65.64-.49zm-2.49-122.41l-.47.66-.66-.46.46-.67zm-.14 124.34l-.67.46-.46-.67.66-.46zm-2.57-126.17l-.44.68-.68-.43.43-.69zm-.14 128l-.69.44-.43-.69.68-.43zm-2.65-129.7l-.41.7-.7-.4.4-.71zm-.14 131.4l-.71.41-.4-.71.7-.4zM2576 1142l-.38.72-.72-.37.37-.72zm-.13 134.57l-.72.37-.37-.72.72-.37zm-2.8-136l-.35.73-.73-.34.34-.74zm-.12 137.43l-.74.34-.34-.74.73-.34zm-2.88-138.82l-.32.75-.75-.31.31-.75zm-.1 140.15l-.76.31-.31-.75.75-.31zM2567 1138l-.28.76-.76-.28.27-.77zm-.09 142.55l-.77.28-.27-.77.76-.28zm-3-143.63l-.25.77-.77-.24.24-.78zm-.09 144.69l-.78.25-.24-.78.77-.24zm-3.03-145.61l-.21.78-.78-.21.21-.79zm-.08 146.56l-.79.21-.21-.79.78-.21zm-3.09-147.36l-.18.79-.79-.18.17-.79zm-.08 148.15l-.8.18-.17-.79.79-.18zm-3.12-148.81l-.15.8-.8-.14.14-.8zm-.09 149.46l-.81.14-.14-.8.8-.14zm-3.14-150l-.11.8-.8-.11.1-.81zm-.08 150.51l-.81.11-.1-.81.8-.11zm-3.16-150.89l-.08.81-.81-.07.07-.81zm-.08 151.27l-.82.07-.07-.81.81-.07zm-3.18-151.51v.81h-.81v-.81zm-.09 151.75h-.81v-.81h.81zm-7.87-151h-.81v-.81h.81zm0 150.16v.81h-.82l.05-.81zm-3.27-149.93l-.8.08-.09-.81.81-.08zm0 149.7l-.07.81-.81-.08.08-.81zm-3.25-149.33l-.8.11-.12-.8.81-.11zm0 149l-.11.81-.81-.12.12-.8zm-3.24-148.45l-.79.15-.15-.8.8-.15zm0 147.94l-.14.8-.8-.15.15-.8zm-3.21-147.3l-.79.18-.19-.79.8-.18zm0 146.65l-.18.79-.8-.18.19-.79zm-3.18-145.87l-.78.22-.22-.78.79-.22zm0 145.09l-.21.78-.79-.22.22-.78zm-3.14-144.17l-.77.25-.26-.77.78-.25zm0 143.26l-.25.77-.78-.25.26-.77zm-3.1-142.21l-.76.28-.29-.76.77-.29zm0 141.15l-.28.76-.77-.29.29-.76zm-3-140l-.74.32-.32-.75.75-.32zm0 138.79l-.31.75-.75-.32.32-.75zm-3-137.48l-.73.35-.35-.73.74-.35zm0 136.16l-.35.74-.74-.35.35-.73zm-2.89-134.73l-.71.38-.38-.72.72-.38zm0 133.29l-.38.72-.72-.38.39-.72zm-2.45-131.7l-.69.41-.42-.7.7-.41zm0 130.17l-.41.7-.71-.41.42-.7zm-2.73-128.49l-.68.44-.44-.68.68-.44zm0 126.8l-.44.69-.69-.44.45-.68zm-2.65-125l-.66.47-.47-.66.67-.47zm0 123.21l-.47.66-.67-.47.47-.66zm-2.57-121.3l-.64.49-.5-.64.65-.5zm0 119.38l-.49.64-.65-.5.5-.64zm-2.48-117.36l-.62.52-.53-.62.62-.53zm0 115.34l-.52.62-.62-.53.53-.62zm-2.57-113.22l-.59.55-.55-.6.6-.55zm0 111.08l-.55.6-.6-.55.55-.59zm-2.29-108.85l-.57.57-.58-.57.58-.58zm0 106.62l-.57.58-.58-.58.58-.57zm-2.2-104.29l-.55.6-.6-.55.55-.6zm0 102l-.6.55-.55-.6.6-.54zm-2.1-99.54l-.52.62-.63-.52.53-.63zm0 97.11l-.62.52-.52-.63.63-.52zm-2-94.6l-.49.64-.65-.49.5-.65zm0 92.09l-.64.5-.5-.65.65-.49zm-1.89-89.49l-.47.66-.67-.46.47-.67zm0 86.9l-.66.47-.47-.67.67-.46zm-1.78-84.21l-.44.68-.69-.43.44-.69zm0 81.54l-.68.44-.44-.69.69-.43zm-1.67-78.79l-.41.7-.7-.4.41-.71zm0 76l-.7.41-.41-.71.71-.4zm-1.56-73.21l-.38.72-.72-.37.38-.72zm0 70.39l-.72.38-.38-.72.72-.37zm-1.44-67.5l-.35.73-.74-.34.35-.74zm0 64.62l-.73.35-.35-.74.74-.34zm-1.32-61.66l-.31.75-.75-.31.32-.76zm0 58.72l-.75.32-.31-.75.75-.31zm-1.2-55.71l-.28.76-.76-.28.28-.77zm0 52.72l-.76.29-.28-.77.76-.28zm-1.45-49.62l-.25.77-.78-.24.25-.78zm0 46.6l-.77.25-.25-.78.78-.24zm-.94-43.5l-.21.78-.79-.21.21-.79zm0 40.4l-.78.22-.22-.79.79-.21zm-.81-37.27l-.18.79-.79-.17.18-.8zm0 34.14l-.79.18-.18-.8.79-.18zm-.67-31l-.14.79-.8-.14q.07-.4.15-.81zm0 27.81l-.8.15-.15-.8.8-.14zm-.53-24.62q-.06.4-.11.8l-.81-.11q.05-.4.11-.81zm0 21.42l-.8.11q-.06-.4-.11-.81l.81-.11zm-.39-18.21q0 .4-.08.81l-.81-.07c0-.27 0-.54.08-.81zm0 15l-.81.08q0-.41-.08-.81l.81-.07q.07.39.11.79zm-.25-11.78v.81h-.81v-.82zm0 8.55h-.81v-.82h.81q.01.41.03.82z" transform="translate(-2433.22 -1107.32)"/></g></g></svg>