<svg preserveAspectRatio="none" id="Layer_1" data-name="Layer 1" xmlns="http://www.w3.org/2000/svg" viewBox="0 0 102.67 102.67"><defs><linearGradient id="linear-gradient" x1="388.65" y1="134.33" x2="388.65" y2="45.67" gradientUnits="userSpaceOnUse"><stop offset=".03" stop-color="#71ebb2"/><stop offset=".99" stop-color="#339567"/></linearGradient><linearGradient id="linear-gradient-2" x1="389.24" y1="58.67" x2="389.24" y2="121.33" gradientUnits="userSpaceOnUse"><stop offset=".03" stop-color="#a87c40"/><stop offset=".99" stop-color="#eebe77"/></linearGradient><style>.cls-1{fill:#2e2855}.cls-4{fill:#3d6db8}</style></defs><path class="cls-1" d="M389 136.33A46.33 46.33 0 11435.32 90 46.39 46.39 0 01389 136.33zm0-84.67A38.33 38.33 0 10427.32 90 38.38 38.38 0 00389 51.67z" transform="translate(-337.65 -38.67)"/><path d="M389 134.33v-4a40.06 40.06 0 0028.51-11.83l2.83 2.83a44 44 0 01-31.34 13zm-7.7-.67a44.16 44.16 0 01-7.46-2l1.37-3.76a40.12 40.12 0 006.78 1.82zm-14.46-5.28a44.66 44.66 0 01-6.32-4.44l2.57-3.06a40.61 40.61 0 005.76 4zM345.32 97.7a44.53 44.53 0 01-.67-7.7 44 44 0 0113-31.33l2.83 2.83A40.06 40.06 0 00348.65 90a40.62 40.62 0 00.61 7zM428.71 83a40.4 40.4 0 00-13.81-23.88l2.57-3.06a44.42 44.42 0 0115.18 26.24zm-19.56-27.92a40.28 40.28 0 00-6.36-3l1.37-3.76a44.26 44.26 0 017 3.28zM396 50.27a40.56 40.56 0 00-7-.61v-4a44.6 44.6 0 017.7.67z" transform="translate(-337.65 -38.67)" fill="url(#linear-gradient)"/><path class="cls-1" d="M389 124.33A34.33 34.33 0 11423.32 90 34.37 34.37 0 01389 124.33zm0-60.67A26.33 26.33 0 10415.32 90 26.36 26.36 0 00389 63.67z" transform="translate(-337.65 -38.67)"/><path d="M389 121.33a31.32 31.32 0 01-30.82-25.68l2-.36a29.32 29.32 0 0028.86 24v2zm22.41-9.45l-1.43-1.4A29.16 29.16 0 00418.32 90a29.51 29.51 0 00-.6-5.9l2-.4a31.48 31.48 0 01.64 6.31 31.16 31.16 0 01-8.96 21.87zM368.1 69.43L366.67 68a31.28 31.28 0 0142.23-2.19l-1.27 1.54a29.28 29.28 0 00-39.53 2.08z" transform="translate(-337.65 -38.67)" fill="url(#linear-gradient-2)"/><path class="cls-1" d="M389 141.33A51.33 51.33 0 11440.32 90 51.39 51.39 0 01389 141.33zm0-100.67A49.33 49.33 0 10438.32 90 49.39 49.39 0 00389 40.67z" transform="translate(-337.65 -38.67)"/><path class="cls-4" d="M349 61.15L347.34 60A51.51 51.51 0 01389 38.67a50.9 50.9 0 0137 15.81l-1.44 1.38A48.92 48.92 0 00389 40.67a49.51 49.51 0 00-40 20.48z" transform="translate(-337.65 -38.67)"/><path d="M420.48 130.54l-1.23-1.54a49.05 49.05 0 0019.07-39 49.58 49.58 0 00-1.52-12.19l1.94-.49a51.42 51.42 0 01-18.26 53.22z" transform="translate(-337.65 -38.67)" fill="#d13954"/><path class="cls-4" d="M389 141.33A51.39 51.39 0 01337.65 90h2A49.39 49.39 0 00389 139.33a50 50 0 006.41-.41l.26 2a52 52 0 01-6.67.41z" transform="translate(-337.65 -38.67)"/></svg>