<svg preserveAspectRatio="none" id="Layer_1" data-name="Layer 1" xmlns="http://www.w3.org/2000/svg" viewBox="0 0 151.41 123.61"><defs><style>.cls-1{fill:#0e8092}.cls-2{fill:#095561}.cls-3{fill:#074049}.cls-4{fill:#ff8a29}.cls-5{fill:#12aac2}</style></defs><path class="cls-1" d="M81.22 172.06a61.8 61.8 0 1061.8 61.8 61.87 61.87 0 00-61.8-61.8zm0 122.6a60.8 60.8 0 1160.8-60.8 60.87 60.87 0 01-60.8 60.81z" transform="translate(-5.49 -172.06)"/><path class="cls-1" d="M81.22 175.81a57.86 57.86 0 00-57.79 57.79H30a51.2 51.2 0 01102.4 0h6.6a57.86 57.86 0 00-57.78-57.79z" transform="translate(-5.49 -172.06)"/><path class="cls-2" d="M47.51 272.58l-4.35 5a57.64 57.64 0 0019.27 11.13l1.92-6.32a38.43 38.43 0 01-8.79-4 40.09 40.09 0 01-8.05-5.81z" transform="translate(-5.49 -172.06)"/><path class="cls-3" d="M32.67 250.54l-6.25 2.12a57.67 57.67 0 0011.13 19.27l4.82-4.51a38.42 38.42 0 01-5.61-7.87 40.08 40.08 0 01-4.09-9.01z" transform="translate(-5.49 -172.06)"/><path class="cls-2" d="M106.89 278.33a40.07 40.07 0 01-9 4.09l2.12 6.25a57.63 57.63 0 0019.27-11.12l-4.51-4.82a38.41 38.41 0 01-7.88 5.6z" transform="translate(-5.49 -172.06)"/><path class="cls-3" d="M125.68 259.54a40.07 40.07 0 01-5.75 8l5 4.36A57.66 57.66 0 00136 252.66l-6.32-1.92a38.43 38.43 0 01-4 8.8z" transform="translate(-5.49 -172.06)"/><path class="cls-4" d="M80.7 224.85a9.06 9.06 0 00-8.52 9h.5a8.5 8.5 0 012.17-5.67 8.7 8.7 0 01.71-.71 8.49 8.49 0 015.15-2.14v-.5zM81.74 242.88a9 9 0 005.5-2.29 9.11 9.11 0 00.71-.71 9 9 0 002.31-6h-.5a8.5 8.5 0 01-2.17 5.67 8.38 8.38 0 01-.71.71 8.49 8.49 0 01-5.15 2.14v.5z" transform="translate(-5.49 -172.06)"/><path class="cls-4" d="M91.86 245.21q.36-.34.71-.71a15.55 15.55 0 00-22-22c-.24.23-.48.46-.71.71a15.55 15.55 0 0022 22zm-21.62-1.06a15 15 0 010-20.56q.34-.37.71-.71a15 15 0 0120.56 0q.37.34.71.71a15 15 0 010 20.56q-.34.36-.71.71a15 15 0 01-20.56 0q-.37-.35-.72-.71z" transform="translate(-5.49 -172.06)"/><circle class="cls-4" cx="52.18" cy="85.32" r="1.93"/><circle class="cls-4" cx="99.28" cy="38.29" r="1.93"/><path class="cls-4" d="M81.22 275.06a41.22 41.22 0 0041.17-41.17.13.13 0 00-.25 0 41 41 0 01-40.92 40.92.13.13 0 000 .25zM81.35 192.84a.13.13 0 00-.12-.12A41.22 41.22 0 0040 233.89a.12.12 0 00.25 0A41 41 0 0181.22 193a.13.13 0 00.13-.16z" transform="translate(-5.49 -172.06)"/><path class="cls-4" d="M129.3 237.08a.25.25 0 00-.25.25 44.26 44.26 0 01-44.21 44.21.25.25 0 100 .5 44.76 44.76 0 0044.71-44.71.25.25 0 00-.25-.25zM81.4 190.43a43.51 43.51 0 0143.46 43.46 1 1 0 002 0 45.51 45.51 0 00-45.46-45.46 1 1 0 100 2zM78.16 186.44a.25.25 0 000-.5 44.76 44.76 0 00-44.71 44.71.25.25 0 00.5 0 44.26 44.26 0 0144.21-44.21zM81.4 277.35a43.51 43.51 0 01-43.46-43.46 1 1 0 00-2 0 45.51 45.51 0 0045.46 45.46 1 1 0 000-2zM77.41 214.85l.46 2.29a17 17 0 016.7 0l.43-2.29a19.69 19.69 0 00-7.59 0zM68.41 219.3l1.59 1.76a17 17 0 015.8-3.35l-.8-2.22a19.68 19.68 0 00-6.59 3.81zM62.84 227.66l2.22.75a17 17 0 013.35-5.8l-1.76-1.55a19.68 19.68 0 00-3.81 6.6zM64.49 237.22a17 17 0 010-6.7l-2.29-.46a19.66 19.66 0 000 7.62zM66.65 246.68l1.76-1.55a17 17 0 01-3.35-5.8l-2.22.75a19.68 19.68 0 003.81 6.6zM68.41 248.43a19.66 19.66 0 006.6 3.81l.75-2.24a17 17 0 01-5.8-3.35zM85 252.89l-.46-2.29a17 17 0 01-6.7 0l-.46 2.29a19.69 19.69 0 007.62 0zM89.75 248.64a17.13 17.13 0 01-3.07 1.36l.75 2.22a19.66 19.66 0 006.6-3.81l-1.55-1.76a17.11 17.11 0 01-2.73 1.99zM96 242.4a17.14 17.14 0 01-2 2.73l1.76 1.55a19.69 19.69 0 003.81-6.6l-2.22-.75A17.2 17.2 0 0196 242.4zM100.61 233.87a19.92 19.92 0 00-.37-3.81l-2.29.46a17 17 0 010 6.7l2.29.46a19.91 19.91 0 00.37-3.81zM95.79 221.06L94 222.6a17 17 0 013.35 5.8l2.22-.75a19.69 19.69 0 00-3.78-6.59zM94 219.3a19.68 19.68 0 00-6.6-3.81l-.75 2.22a17 17 0 015.8 3.35zM81.74 239a5.14 5.14 0 002.77-1.15 5.28 5.28 0 00.71-.71 5.17 5.17 0 00-3.48-8.43c-.17 0-.34-.05-.52-.05s-.34 0-.52.05a5.14 5.14 0 00-2.77 1.15 5.2 5.2 0 00-.71.71 5.09 5.09 0 000 6.57 5.29 5.29 0 00.71.71A5.14 5.14 0 0080.7 239c.17 0 .34.05.52.05s.35-.05.52-.05zm-2.88-5.14a2.37 2.37 0 112.37 2.37 2.37 2.37 0 01-2.37-2.36z" transform="translate(-5.49 -172.06)"/><path class="cls-5" d="M77.94 237.86a5.29 5.29 0 01-.71-.71l-7 7q.34.36.71.71zM84.51 229.87a5.17 5.17 0 01.71.71l7-7q-.34-.37-.71-.71zM77.23 230.58a5.2 5.2 0 01.71-.71l-2.38-2.38a8.7 8.7 0 00-.71.71zM75.2 227.14l-4.26-4.26q-.37.34-.71.71l4.26 4.26a9.05 9.05 0 01.71-.71zM85.21 237.15a5.28 5.28 0 01-.71.71l2.38 2.38a8.38 8.38 0 00.71-.71zM87.24 240.59l4.26 4.26q.37-.34.71-.71l-4.26-4.26a9.11 9.11 0 01-.71.71z" transform="translate(-5.49 -172.06)"/><path class="cls-5" d="M81.22 195.33a38.54 38.54 0 1038.54 38.54 38.54 38.54 0 00-38.54-38.54zm23.55 13.09a1.93 1.93 0 11-1.93 1.93 1.93 1.93 0 011.93-1.93zm-7.39-5.23a1.93 1.93 0 11-1.38 2.37 1.93 1.93 0 011.38-2.37zm-8.49-3.14a1.93 1.93 0 11-.71 2.64 1.93 1.93 0 01.71-2.64zm-9-.83a1.93 1.93 0 110 2.74 1.93 1.93 0 01-.01-2.74zm-33.3 33.25a1.93 1.93 0 110 2.74 1.93 1.93 0 01-.01-2.74zm1.53 11.66a1.93 1.93 0 112.64-.71 1.93 1.93 0 01-2.66.71zm6.14 6.87a1.93 1.93 0 11-1.37-2.37 1.93 1.93 0 011.37 2.37zm3.41 8.33a1.93 1.93 0 111.93-1.93 1.93 1.93 0 01-1.93 1.91zm7.39 5.23a1.93 1.93 0 111.37-2.37 1.93 1.93 0 01-1.37 2.35zm8.49 3.14a1.93 1.93 0 11.71-2.64 1.93 1.93 0 01-.71 2.62zm9 .83a1.93 1.93 0 110-2.74 1.94 1.94 0 01.01 2.72zm22.32-11.69L92.56 244.5q-.34.36-.71.71l12.33 12.33a32.93 32.93 0 01-17.89 8.95l-5.07-5.07a27.58 27.58 0 01-27.55-27.55l-5.07-5.07a32.93 32.93 0 018.95-17.9l12.33 12.33c.23-.24.46-.48.71-.71L58.26 210.2a32.92 32.92 0 0117.89-8.95l5.07 5.07a27.58 27.58 0 0127.55 27.55l5.07 5.07a32.93 32.93 0 01-8.95 17.89zm11-21.57a1.93 1.93 0 110-2.74 1.94 1.94 0 010 2.73zm-1.53-11.66a1.93 1.93 0 11-2.64.71 1.93 1.93 0 012.64-.72zm-3.79-8.22a1.93 1.93 0 11-2.37 1.37 1.93 1.93 0 012.37-1.38zM81.22 285.21a40 40 0 01-9.83-1l-1.29 6.47a57.66 57.66 0 0022.25 0l-1.5-6.43a38.38 38.38 0 01-9.63.96z" transform="translate(-5.49 -172.06)"/><path class="cls-5" d="M81.22 213.18a22 22 0 013.87.36l.46-2.31a22.08 22.08 0 00-8.66 0l.46 2.31a22 22 0 013.87-.36zM60.54 233.87a22 22 0 01.36-3.87l-2.31-.46a22.08 22.08 0 000 8.66l2.31-.46a22 22 0 01-.36-3.87zM61.68 240.68l-2.23.75a22.06 22.06 0 004.33 7.5l1.77-1.55a21 21 0 01-3.87-6.7zM67.71 249.53l-1.55 1.77a22.06 22.06 0 007.5 4.33l.75-2.23a21 21 0 01-6.7-3.87zM81.22 254.55a22 22 0 01-3.87-.36l-.46 2.31a22.05 22.05 0 008.66 0l-.46-2.31a22 22 0 01-3.87.36zM101.55 230a21 21 0 010 7.74l2.31.46a22.06 22.06 0 000-8.66zM101.19 222.34a22.12 22.12 0 00-2.54-3.54l-1.77 1.55a21 21 0 013.87 6.7l2.23-.75a22.09 22.09 0 00-1.79-3.96zM88.78 212.1l-.78 2.23a21 21 0 016.7 3.87l1.55-1.77a22.06 22.06 0 00-7.47-4.33zM84.74 223.49v-1.81h-7v1.81H79v-.84h1.7v6.08c.17 0 .34-.05.52-.05s.34 0 .52.05v-6.08h1.69v.84h1.31zM77.71 244.51v1.81h7v-1.81h-1.28v.84h-1.69V239c-.17 0-.34.05-.52.05s-.34 0-.52-.05v6.35H79v-.84h-1.29z" transform="translate(-5.49 -172.06)"/><circle class="cls-5" cx="75.73" cy="61.8" r=".77"/><path class="cls-5" d="M156.4 233.37h-6.09a2.94 2.94 0 100 1h6.09a.5.5 0 000-1zm-9 2.44a1.94 1.94 0 111.94-1.94 1.94 1.94 0 01-1.92 1.94zM15 230.93a2.94 2.94 0 00-2.89 2.44H6a.5.5 0 100 1h6.09a2.94 2.94 0 102.91-3.44zm0 4.88a1.94 1.94 0 111.94-1.94 1.94 1.94 0 01-1.94 1.94z" transform="translate(-5.49 -172.06)"/></svg>