<svg preserveAspectRatio="none" id="Layer_1" data-name="Layer 1" xmlns="http://www.w3.org/2000/svg" viewBox="0 0 70.48 58.92"><defs><style>.cls-1{fill:aqua;}</style></defs><title>circle97</title><g id="_编组_" data-name="&lt;编组&gt;"><path id="_复合路径_" data-name="&lt;复合路径&gt;" class="cls-1" d="M701.13,81.58a11.82,11.82,0,1,1,11.82-11.81A11.83,11.83,0,0,1,701.13,81.58Zm0-22.34a10.53,10.53,0,1,0,10.53,10.53A10.54,10.54,0,0,0,701.13,59.24Z" transform="translate(-665.89 -40.3)"/><path id="_路径_" data-name="&lt;路径&gt;" class="cls-1" d="M713.78,73.12l-1.38-.37a11.68,11.68,0,0,0-7.84-14.14L705,57.25A13.11,13.11,0,0,1,713.78,73.12Z" transform="translate(-665.89 -40.3)"/><path id="_复合路径_2" data-name="&lt;复合路径&gt;" class="cls-1" d="M697.21,84.36A15.11,15.11,0,1,1,709.5,57.18l-0.55.83a14.11,14.11,0,1,0-11.47,25.38Zm18.52-10.72-1-.26a14.13,14.13,0,0,0,.47-3.62h1A15.16,15.16,0,0,1,715.74,73.64Z" transform="translate(-665.89 -40.3)"/><path id="_复合路径_3" data-name="&lt;复合路径&gt;" class="cls-1" d="M688.94,94.57a27.65,27.65,0,0,1-7.41-5.33l0.71-.7a26.65,26.65,0,0,0,7.14,5.13Zm35.14-9.41-0.83-.56a26.45,26.45,0,0,0,3.63-8l0.47,0.12-0.47-.12a26.65,26.65,0,0,0,.88-6.83c0-.81,0-1.62-0.11-2.42l1-.09c0.07,0.83.11,1.67,0.11,2.51A27.52,27.52,0,0,1,724.08,85.16ZM687.26,47l-0.52-.85a27.48,27.48,0,0,1,6.53-2.9h0a27.75,27.75,0,0,1,9.05-1.11l0,1a26.83,26.83,0,0,0-8.73,1.07h0A26.47,26.47,0,0,0,687.26,47Z" transform="translate(-665.89 -40.3)"/><path id="_复合路径_4" data-name="&lt;复合路径&gt;" class="cls-1" d="M701.13,99.23a29.46,29.46,0,1,1,29.46-29.46A29.5,29.5,0,0,1,701.13,99.23Zm0-58.67a29.21,29.21,0,1,0,29.21,29.21A29.25,29.25,0,0,0,701.13,40.55Z" transform="translate(-665.89 -40.3)"/><path id="_复合路径_5" data-name="&lt;复合路径&gt;" class="cls-1" d="M724.68,96l-4-4.46,0,0a29.22,29.22,0,0,0,6.15-7.8l0,0,5.28,2.86,0,0a35.32,35.32,0,0,1-7.4,9.4Zm-54.87-10,0,0a35.56,35.56,0,0,1-3-8.19v0l5.85-1.35v0a28.54,28.54,0,0,0,2.49,6.79l0,0Zm65.47-7.48L729.47,77V76.94a29.31,29.31,0,0,0,.89-7.18l0-.05,6,0.05a35.34,35.34,0,0,1-1.07,8.65ZM671.89,69.2l-6-.12v0a35,35,0,0,1,2.27-11.75V57.23l5.62,2.13,0,0a29.07,29.07,0,0,0-1.88,9.74v0Zm58.3-2.71V66.44a29.06,29.06,0,0,0-2.77-9.52l0,0,5.38-2.64,0,0a35.19,35.19,0,0,1,3.34,11.49v0.05Zm-6.69-15.6-0.06,0A29.24,29.24,0,0,0,718.12,46l0,0,0,0,3.46-4.84,0,0A35.59,35.59,0,0,1,728,47l0,0Z" transform="translate(-665.89 -40.3)"/><path id="_复合路径_6" data-name="&lt;复合路径&gt;" class="cls-1" d="M701.13,92.87h0a23.23,23.23,0,0,1-18.52-9.29l-0.15-.2,9.21-6.88,0.15,0.2a11.62,11.62,0,0,0,15.47,2.91l0.21-.13,6.12,9.74-0.21.13A23.05,23.05,0,0,1,701.13,92.87Zm-18-9.39a22.73,22.73,0,0,0,18,8.89h0a22.55,22.55,0,0,0,11.79-3.32l-5.58-8.89a12.12,12.12,0,0,1-15.77-3Zm34.79,2.14-8.45-7.8,0.17-.18a11.75,11.75,0,0,0,1.47-2l0.13-.22,9.9,5.84-0.13.22a23.16,23.16,0,0,1-2.93,3.94Zm-7.75-7.83,7.72,7.12a22.63,22.63,0,0,0,2.57-3.45l-9-5.33A12.18,12.18,0,0,1,710.2,77.79Zm13.47-2.91-11.24-2.42,0.05-.24a11.73,11.73,0,0,0,.26-2.46V69.52l11.5-.07v0.32a23.23,23.23,0,0,1-.52,4.88ZM713,72.08l10.27,2.21a22.71,22.71,0,0,0,.45-4.35l-10.5.07A12.2,12.2,0,0,1,713,72.08Zm-35-2V69.76a23.19,23.19,0,0,1,.51-4.83l0.05-.24,11.25,2.4-0.05.24a11.69,11.69,0,0,0-.25,2.43V70ZM679,65.28a22.76,22.76,0,0,0-.44,4.27l10.5,0a12.12,12.12,0,0,1,.21-2Zm12-1.17-9.92-5.82,0.13-.22a23.08,23.08,0,0,1,2.92-3.95l0.17-.18,8.46,7.79-0.17.18a11.6,11.6,0,0,0-1.47,2Zm-9.23-6,9.06,5.32A12.1,12.1,0,0,1,692,61.76l-7.72-7.11A22.58,22.58,0,0,0,681.75,58.11ZM710.58,63l-0.15-.2a11.62,11.62,0,0,0-15.48-2.87l-0.21.13-6.13-9.73,0.21-.13a23.12,23.12,0,0,1,30.81,5.7l0.15,0.2-0.2.15Zm-9.45-5.35a12,12,0,0,1,9.54,4.66l8.4-6.3a22.62,22.62,0,0,0-29.78-5.51l5.6,8.88A12.07,12.07,0,0,1,701.13,57.66Z" transform="translate(-665.89 -40.3)"/></g></svg>