<svg preserveAspectRatio="none" id="Layer_1" data-name="Layer 1" xmlns="http://www.w3.org/2000/svg" viewBox="0 0 351.77 358.13"><defs><style>.cls-1,.cls-4{fill:#80bfe8;}.cls-2{fill:#08ade5;}.cls-3{fill:#f890ab;}.cls-4,.cls-6{opacity:0.5;}.cls-5{fill:#00b3ea;}</style></defs><title>circle46</title><path class="cls-1" d="M543.18,445.6c-0.41.4-.92,0.89-1.56,1.41s-1.32,1.19-2.17,1.83a62.83,62.83,0,0,1-66.87,7.24,62.16,62.16,0,0,1-12.14-7.82,64.72,64.72,0,0,1-9.78-10.07,62.67,62.67,0,0,1-13.16-39.52c0-2.13.19-3.79,0.26-4.93L438,392l-4.65-.57-0.22,1.86c-0.07,1.22-.26,3-0.28,5.29A67.35,67.35,0,0,0,447,441.06a69.33,69.33,0,0,0,10.5,10.81,66.73,66.73,0,0,0,13,8.41,67.4,67.4,0,0,0,71.87-7.78c0.91-.69,1.65-1.4,2.34-2s1.23-1.09,1.67-1.51l1.36-1.29-3.29-3.33Z" transform="translate(-324.92 -218.87)"/><path class="cls-1" d="M561.8,465.46l-1.2,1.13-1.5,1.29-1.75,1.5c-0.63.52-1.33,1-2.05,1.61a86,86,0,0,1-11.08,7.33,89.13,89.13,0,0,1-15.77,6.92,90.72,90.72,0,0,1-19.92,4.13c-1.8.12-3.63,0.31-5.48,0.32l-2.8.06-2.83-.06-1.43,0-1.43-.1-2.88-.21-2.9-.34-1.46-.18-1.46-.24a89.59,89.59,0,0,1-11.71-2.7,94.93,94.93,0,0,1-11.52-4.37,90.06,90.06,0,0,1-21.06-13.58A91.17,91.17,0,0,1,425,449.14,90.26,90.26,0,0,1,416,368a85.45,85.45,0,0,1,5.58-12.06c0.45-.8.86-1.57,1.29-2.28l1.22-2c0.38-.61.73-1.17,1.06-1.68l0.94-1.36,1.29-1.85c0.29-.42.46-0.62,0.46-0.62l-1.69-1.25s-0.17.21-.47,0.64l-1.32,1.89-1,1.39c-0.34.52-.7,1.1-1.09,1.72l-1.25,2c-0.44.72-.86,1.51-1.32,2.33a87.53,87.53,0,0,0-5.71,12.34,92.3,92.3,0,0,0,9.22,83,93.3,93.3,0,0,0,16.92,19.22,92.15,92.15,0,0,0,21.56,13.9,97.26,97.26,0,0,0,11.79,4.47,91.94,91.94,0,0,0,12,2.76l1.49,0.25,1.49,0.19,3,0.35,3,0.22,1.46,0.1,1.46,0,2.9,0.07,2.86-.06c1.9,0,3.77-.21,5.61-0.33a92.86,92.86,0,0,0,20.39-4.23,91.27,91.27,0,0,0,16.14-7.08,87.91,87.91,0,0,0,11.34-7.5c0.74-.58,1.46-1.12,2.1-1.65l1.79-1.53,1.53-1.33,1.23-1.16,2.24-2.13L564,463.37Z" transform="translate(-324.92 -218.87)"/><path class="cls-2" d="M546,449.37c-0.55.56-1.3,1.14-2.15,1.89s-1.87,1.53-3,2.42a66.79,66.79,0,0,1-8.78,5.61,68.7,68.7,0,0,1-12.49,5.13,70.17,70.17,0,0,1-15.76,2.7,68.63,68.63,0,0,1-8.75-.13l-1.12-.08c-0.37,0-.75-0.09-1.12-0.13l-2.26-.27c-1.5-.28-3-0.47-4.53-0.84a64.33,64.33,0,0,1-9.06-2.62,65.11,65.11,0,0,1-8.8-4L466,457.89l-2.08-1.3c-0.71-.42-1.37-0.9-2-1.37s-1.37-.91-2-1.44a72.25,72.25,0,0,1-7.48-6.5,75.38,75.38,0,0,1-6.46-7.52,72.3,72.3,0,0,1-5.24-8.3,69.23,69.23,0,0,1-3.92-8.83,66.46,66.46,0,0,1-2.56-9.08c-0.18-.75-0.31-1.52-0.43-2.28s-0.28-1.51-.36-2.27c-0.18-1.51-.39-3-0.46-4.5s-0.14-3-.18-4.43c0-.73,0-1.45,0-2.17s0-1.44.08-2.15a67.15,67.15,0,0,1,8-28.2c0.5-.87.94-1.74,1.44-2.54l1.44-2.31c0.48-.73,1-1.4,1.43-2.06,0.23-.33.45-0.65,0.67-1l0.68-.88,1.26-1.62c0.41-.5.81-0.95,1.18-1.38l1-1.19c0.31-.36.63-0.66,0.89-0.95l1.64-1.73L441.7,341.09l-0.84.88c-0.54.58-1.36,1.4-2.34,2.5a89.5,89.5,0,0,0-7.47,9.68,81.18,81.18,0,0,0-7.93,15.35,83.08,83.08,0,0,0-5.23,38.92,83.81,83.81,0,0,0,3.59,16.88,79.07,79.07,0,0,0,4.62,11.32c0.33,0.66.61,1.26,0.88,1.76l0.71,1.27,0.59,1.06L433,438l0.3,0.54c0.19,0.36.51,0.87,0.91,1.51l1.46,2.32,2,2.92a79.31,79.31,0,0,0,13,13.88,77.53,77.53,0,0,0,16,10.31c1.15,0.6,2.27,1,3.24,1.46s1.83,0.76,2.54,1l1.65,0.62,0.58,0.22L473,478l3.78,1.22c1.22,0.32,2.69.76,4.41,1.16l2.74,0.6c1,0.22,2,.36,3.06.55a83.29,83.29,0,0,0,31.55-.94,81.86,81.86,0,0,0,28.92-12.68c1.8-1.21,3.35-2.45,4.74-3.53s2.51-2.13,3.47-2.95l2.88-2.72-10.8-10.93Zm-52,30.51-0.78-.06c-0.5,0-1.2-.11-2-0.21s-1.84-.2-2.89-0.37l-3.29-.56-3.26-.71c-1-.22-2-0.52-2.82-0.73-1.65-.42-2.73-0.8-2.73-0.8l3.14-10s0.93,0.33,2.37.69c0.72,0.18,1.54.45,2.45,0.63l2.84,0.62,2.86,0.48c0.91,0.15,1.78.22,2.51,0.32s1.35,0.17,1.78.19l0.68,0Zm18-.59c-1.69.21-3.94,0.53-6.21,0.65l-1.69.12-1.64,0c-1.06,0-2.06.08-2.91,0l-2.84-.07,0.46-10.49,2.47,0.06c0.74,0,1.61,0,2.53,0l1.43,0,1.47-.11c2-.1,3.93-0.39,5.4-0.56l2.43-.41,1.89,10.33ZM534,472.78l-1.89.82c-0.78.34-1.69,0.74-2.69,1.1s-2.05.81-3.13,1.15l-3.18,1-2.81.76c-0.82.24-1.52,0.37-2,.48l-0.76.17L515.27,468l0.66-.14c0.42-.09,1-0.21,1.74-0.42l2.44-.66,2.76-.89c0.94-.29,1.85-0.68,2.72-1s1.66-.66,2.34-1l1.64-.71c0.4-.17.61-0.29,0.61-0.29l4.49,9.49S534.43,472.58,534,472.78Zm17.63-11.12c-0.37.33-.93,0.77-1.61,1.29s-1.45,1.14-2.31,1.77L545,466.62c-1.91,1.23-3.83,2.46-5.33,3.25l-1.8,1-0.7.35-4.81-9.33,0.61-.31,1.56-.87c1.31-.69,3-1.76,4.63-2.83l2.38-1.66c0.74-.55,1.42-1.09,2-1.54s1.08-.83,1.4-1.12l0.51-.44,6.78,8Z" transform="translate(-324.92 -218.87)"/><path class="cls-3" d="M529.79,444.73l-1,.61c-0.41.25-.87,0.57-1.39,0.86l-1.64.91c-0.55.33-1.14,0.57-1.67,0.85s-1,.54-1.48.71l-1.47.64,1.92,4.58,1.6-.7c0.49-.19,1-0.5,1.61-0.78s1.23-.57,1.83-0.93l1.79-1c0.57-.32,1.08-0.67,1.53-0.94l1.08-.67c0.26-.16.4-0.27,0.4-0.27l-2.76-4.13A4.28,4.28,0,0,1,529.79,444.73Z" transform="translate(-324.92 -218.87)"/><path class="cls-3" d="M516.16,451.13c-0.45.17-1,.29-1.58,0.45s-1.19.35-1.82,0.48l-1.84.4c-0.59.14-1.15,0.2-1.62,0.29l-1.15.2-0.44.06,0.68,4.92s0.18,0,.48-0.06l1.25-.22c0.52-.1,1.13-0.17,1.77-0.31l2-.44c0.69-.14,1.35-0.36,2-0.52s1.23-.31,1.72-0.49l1.67-.54-1.6-4.71Z" transform="translate(-324.92 -218.87)"/><path class="cls-3" d="M498.87,453.47c-1.29,0-2.57-.15-3.53-0.19s-1.6-.19-1.6-0.19l-0.6,4.94,0.48,0.06c0.31,0,.74.11,1.26,0.14,1.05,0.05,2.45.22,3.85,0.21a54.14,54.14,0,0,0,5.61-.12l-0.34-5A49,49,0,0,1,498.87,453.47Z" transform="translate(-324.92 -218.87)"/><path class="cls-3" d="M488.49,452.19c-1-.17-2.18-0.55-3.42-0.87l-1.79-.58-0.83-.26-0.72-.28-1.5-.56-1.85,4.61,1.64,0.61,0.79,0.3,0.9,0.29,2,0.63c1.36,0.35,2.7.76,3.74,0.95l1.24,0.28,0.47,0.1,0.94-4.88-0.43-.09Z" transform="translate(-324.92 -218.87)"/><path class="cls-3" d="M474,446.64c-0.52-.29-1.09-0.59-1.62-0.94l-1.6-1-1.35-.94-1-.66-0.35-.27-3,4,0.38,0.3,1,0.72,1.47,1,1.74,1.09c0.58,0.39,1.2.71,1.77,1s1.1,0.63,1.57.87l1.57,0.77,2.17-4.47-1.44-.7C475,447.21,474.51,446.92,474,446.64Z" transform="translate(-324.92 -218.87)"/><path class="cls-3" d="M464,439.42c-0.68-.69-1.67-1.52-2.53-2.49-0.44-.47-0.9-0.92-1.3-1.38l-1.07-1.25a14.33,14.33,0,0,1-1-1.24l-3.9,3.09a16.53,16.53,0,0,0,1.11,1.36l1.17,1.37c0.43,0.5.94,1,1.42,1.51,0.94,1.05,2,2,2.76,2.72,0.37,0.38.73,0.64,1,.84l0.37,0.31,3.25-3.76-0.34-.29C464.68,440,464.35,439.77,464,439.42Z" transform="translate(-324.92 -218.87)"/><path class="cls-3" d="M455.34,429.3l-0.34-.56-0.87-1.39c-0.33-.5-0.61-1.08-0.93-1.63-0.66-1.1-1.16-2.28-1.61-3.13-0.22-.43-0.35-0.81-0.47-1.06l-0.17-.4-4.56,2,0.19,0.44c0.13,0.28.28,0.69,0.51,1.16,0.49,0.93,1,2.22,1.76,3.42,0.35,0.61.66,1.24,1,1.78l1,1.52,0.38,0.61,0.32,0.45,0.28,0.4,4.1-2.81-0.25-.36Z" transform="translate(-324.92 -218.87)"/><path class="cls-3" d="M449.07,416.16c-0.33-.9-0.63-2.15-1-3.39-0.16-.62-0.27-1.25-0.41-1.84s-0.26-1.14-.32-1.61l-0.27-1.58-4.92.74,0.29,1.73c0.07,0.52.2,1.12,0.35,1.76s0.27,1.33.45,2c0.37,1.35.71,2.71,1.07,3.7l0.39,1.21a4.53,4.53,0,0,0,.16.45l4.69-1.66a3.79,3.79,0,0,1-.14-0.42Z" transform="translate(-324.92 -218.87)"/><path class="cls-3" d="M441.83,393.7c0,0.3-.07.74-0.1,1.27l-0.13,1.79-0.05,2.06c0,0.7,0,1.4,0,2.06s0,1.27,0,1.8l0.13,1.75,5-.4-0.12-1.6c0-.48,0-1,0-1.65s0-1.25,0-1.89,0-1.29,0-1.89l0.12-1.64c0-.48,0-0.88.1-1.16l0.06-.44-4.94-.54Z" transform="translate(-324.92 -218.87)"/><path class="cls-3" d="M444.88,380.07c-0.18.49-.35,1.08-0.56,1.71s-0.43,1.29-.59,2l-0.54,2-0.38,1.76c-0.25,1-.34,1.72-0.34,1.72l4.89,0.88a15.89,15.89,0,0,1,.31-1.57L448,386.9l0.49-1.82c0.15-.63.36-1.23,0.54-1.8s0.34-1.11.51-1.56l0.57-1.49-4.64-1.8Z" transform="translate(-324.92 -218.87)"/><path class="cls-4" d="M431.23,347.94c-0.58.7-1.29,1.79-2.19,3.06s-1.84,2.83-2.88,4.48c-0.51.83-1,1.72-1.48,2.61l-0.75,1.35c-0.24.46-.46,0.93-0.7,1.39a87.76,87.76,0,0,0-4.47,10.51l-1.16,3.58c-0.26.87-.38,1.38-0.38,1.38l3.31,0.93s0.12-.48.37-1.32l1.11-3.44a84.42,84.42,0,0,1,4.29-10.09c0.22-.45.44-0.9,0.67-1.34l0.72-1.3c0.49-.85.93-1.71,1.42-2.51,1-1.58,1.88-3.09,2.77-4.3s1.55-2.26,2.1-2.94l0.84-1.08-2.72-2.11Z" transform="translate(-324.92 -218.87)"/><path class="cls-1" d="M460,475.63l-2.49-1.38a87.19,87.19,0,0,1-12.5-8.75,85.24,85.24,0,0,1-10.75-10.79c-0.69-.78-1.26-1.55-1.78-2.21l-1.34-1.73c-0.37-.48-0.63-0.88-0.82-1.15l-0.29-.41-4.53,3.2,0.3,0.44c0.2,0.28.48,0.71,0.87,1.22l1.43,1.85c0.56,0.71,1.16,1.53,1.89,2.36a90.81,90.81,0,0,0,11.44,11.48A93,93,0,0,0,454.77,479l2.65,1.47c0.79,0.43,1.51.76,2.08,1.05l1.83,0.9,2.36-5-1.71-.84C461.44,476.34,460.76,476,460,475.63Z" transform="translate(-324.92 -218.87)"/><path class="cls-1" d="M555,472.57c-0.64.52-1.47,1.09-2.42,1.75s-2,1.43-3.22,2.16a90.2,90.2,0,0,1-39,13.74c-1.41.19-2.71,0.25-3.86,0.34s-2.15.15-3,.16l-2.6.06,0,5.93,2.77-.06c0.88,0,1.95-.08,3.17-0.17s2.61-.16,4.11-0.36a96.14,96.14,0,0,0,41.51-14.64c1.3-.78,2.42-1.61,3.43-2.3s1.89-1.31,2.58-1.87l2.19-1.7L557,471Z" transform="translate(-324.92 -218.87)"/><path class="cls-1" d="M413.25,373.61l-8-2.4a1,1,0,0,0-1.12,1l-0.34,3c-0.11.88-.17,1.92-0.24,3s-0.17,2.27-.18,3.45,0,2.34-.05,3.44,0,2.11.07,3,0.06,1.59.08,2.1,0.05,0.79.05,0.79a0.9,0.9,0,0,0,.74.9l5.52,0.45a0.89,0.89,0,0,0,.88-0.9s0-.26.07-0.72l0.23-1.9c0.16-1.58.52-3.67,0.88-5.75,0.18-1,.43-2.07.64-3s0.41-1.88.63-2.64l0.69-2.56A0.93,0.93,0,0,0,413.25,373.61Z" transform="translate(-324.92 -218.87)"/><path class="cls-3" d="M540.68,460.23a2.45,2.45,0,0,0-.68,3.33,2.42,2.42,0,1,0,4-2.68A2.44,2.44,0,0,0,540.68,460.23Z" transform="translate(-324.92 -218.87)"/><path class="cls-3" d="M523.78,468.56a2.45,2.45,0,0,0-1.51,3.06,2.42,2.42,0,1,0,4.57-1.57A2.46,2.46,0,0,0,523.78,468.56Z" transform="translate(-324.92 -218.87)"/><path class="cls-3" d="M505.3,472.26a2.39,2.39,0,0,0-1.62.83,2.47,2.47,0,0,0-.63,1.74,2.43,2.43,0,0,0,.79,1.71,2.44,2.44,0,0,0,4-2A2.49,2.49,0,0,0,505.3,472.26Z" transform="translate(-324.92 -218.87)"/><path class="cls-3" d="M486.48,471.13a2.45,2.45,0,1,0,1.92,2.8A2.43,2.43,0,0,0,486.48,471.13Z" transform="translate(-324.92 -218.87)"/><path class="cls-1" d="M553,358.94a69.34,69.34,0,0,0-10.5-10.81,66.74,66.74,0,0,0-13-8.41,67.4,67.4,0,0,0-71.87,7.78c-0.91.69-1.65,1.4-2.33,2s-1.23,1.09-1.67,1.51l-1.36,1.29,3.29,3.33,1.27-1.2c0.41-.4.92-0.89,1.56-1.41s1.32-1.19,2.17-1.83a62.83,62.83,0,0,1,66.87-7.24,62.07,62.07,0,0,1,12.14,7.82,64.72,64.72,0,0,1,9.78,10.07,62.65,62.65,0,0,1,13.16,39.52c0,2.13-.19,3.79-0.26,4.93L562,408l4.65,0.57,0.22-1.86c0.07-1.22.26-3,.28-5.29A67.36,67.36,0,0,0,553,358.94Z" transform="translate(-324.92 -218.87)"/><path class="cls-1" d="M587.44,372.14a92.15,92.15,0,0,0-10.7-22.44,93.31,93.31,0,0,0-16.92-19.22,92.16,92.16,0,0,0-21.56-13.9,97.4,97.4,0,0,0-11.79-4.47,91.81,91.81,0,0,0-12-2.76l-1.49-.25-1.49-.19-3-.35-3-.22-1.47-.1-1.46,0-2.9-.07-2.86.06c-1.9,0-3.77.21-5.61,0.33a92.94,92.94,0,0,0-20.39,4.23,91.23,91.23,0,0,0-16.14,7.08,87.91,87.91,0,0,0-11.34,7.5c-0.74.58-1.46,1.12-2.1,1.65l-1.79,1.53L438,331.85,436.77,333l-2.24,2.13,1.49,1.49,2.19-2.08,1.2-1.13,1.5-1.29,1.75-1.5c0.63-.52,1.33-1,2.06-1.61a85.84,85.84,0,0,1,11.08-7.32,89.1,89.1,0,0,1,15.77-6.92,90.81,90.81,0,0,1,19.92-4.13c1.8-.12,3.63-0.31,5.48-0.32l2.8-.06,2.83,0.06,1.43,0,1.43,0.1,2.88,0.21,2.9,0.34,1.46,0.18,1.46,0.24a89.83,89.83,0,0,1,11.71,2.7,95.23,95.23,0,0,1,11.52,4.37,90,90,0,0,1,21.06,13.58A91.18,91.18,0,0,1,575,350.86,90.25,90.25,0,0,1,584,432a85.37,85.37,0,0,1-5.58,12.06c-0.45.8-.86,1.57-1.29,2.27l-1.22,2c-0.38.61-.73,1.17-1.06,1.68l-0.94,1.36-1.29,1.85c-0.29.42-.45,0.62-0.45,0.62l1.69,1.25s0.17-.21.47-0.64l1.32-1.89,1-1.39c0.34-.52.7-1.1,1.09-1.72l1.25-2c0.44-.72.86-1.51,1.32-2.33a87.62,87.62,0,0,0,5.72-12.34A92.31,92.31,0,0,0,587.44,372.14Z" transform="translate(-324.92 -218.87)"/><path class="cls-2" d="M578.52,374.71a79.17,79.17,0,0,0-4.62-11.32c-0.33-.66-0.62-1.26-0.88-1.76l-0.71-1.27-0.59-1.06L567,362l-0.3-.55c-0.19-.36-0.51-0.87-0.91-1.51l-1.46-2.32-2-2.92a79.35,79.35,0,0,0-13-13.89,77.54,77.54,0,0,0-16-10.31c-1.15-.6-2.27-1-3.24-1.46s-1.83-.76-2.54-1l-1.65-.62-0.58-.22L527,322l-3.78-1.22c-1.22-.32-2.69-0.76-4.41-1.16l-2.74-.6c-1-.22-2-0.35-3.06-0.55a83.25,83.25,0,0,0-31.55.94,81.87,81.87,0,0,0-28.92,12.68c-1.8,1.21-3.35,2.45-4.74,3.53s-2.51,2.13-3.47,2.95l-2.88,2.72,10.8,10.93,1.73-1.64c0.55-.56,1.3-1.14,2.15-1.89s1.87-1.53,3-2.42a66.59,66.59,0,0,1,8.78-5.61,68.61,68.61,0,0,1,12.49-5.13,70.18,70.18,0,0,1,15.76-2.7,68.79,68.79,0,0,1,8.75.13l1.12,0.08c0.37,0,.75.09,1.12,0.13l2.26,0.27c1.5,0.27,3,.47,4.54.84a64.25,64.25,0,0,1,9.06,2.62,65.11,65.11,0,0,1,8.8,4l2.14,1.19,2.08,1.3c0.7,0.42,1.37.9,2,1.37s1.37,0.91,2,1.44a72.16,72.16,0,0,1,7.48,6.5,75.38,75.38,0,0,1,6.46,7.52,72.25,72.25,0,0,1,5.24,8.3,69.05,69.05,0,0,1,3.92,8.83,66.22,66.22,0,0,1,2.56,9.08c0.18,0.75.31,1.52,0.43,2.27s0.28,1.51.37,2.27c0.18,1.51.39,3,.46,4.5s0.14,3,.18,4.43c0,0.73,0,1.46,0,2.18s0,1.44-.08,2.15a67.09,67.09,0,0,1-8,28.2c-0.5.87-.94,1.74-1.44,2.54l-1.44,2.31c-0.48.72-1,1.4-1.43,2.06-0.23.33-.44,0.65-0.67,1l-0.68.88-1.26,1.63c-0.41.5-.81,0.95-1.18,1.38l-1,1.19c-0.31.36-.63,0.66-0.89,0.95L547.44,448l10.86,10.86,0.84-.88c0.54-.58,1.36-1.4,2.34-2.49a89.6,89.6,0,0,0,7.47-9.68,81.25,81.25,0,0,0,7.93-15.35A83,83,0,0,0,578.52,374.71ZM467.07,338.4l-1.56.87c-1.31.69-3,1.76-4.63,2.83l-2.38,1.66c-0.74.55-1.42,1.09-2,1.54s-1.08.83-1.4,1.12l-0.51.44-6.78-8,0.59-.51c0.37-.33.93-0.77,1.61-1.29s1.45-1.14,2.31-1.77l2.74-1.91c1.91-1.23,3.83-2.46,5.33-3.26l1.8-1,0.7-.35,4.81,9.33Zm17-6.27c-0.42.1-1,.21-1.74,0.42l-2.44.66-2.76.89c-0.94.29-1.85,0.68-2.72,1s-1.66.66-2.34,1l-1.64.71c-0.4.17-.61,0.29-0.61,0.29l-4.49-9.49s0.25-.13.71-0.34l1.89-.82c0.78-.34,1.69-0.74,2.69-1.1s2-.81,3.13-1.15l3.18-1,2.81-.76c0.82-.24,1.52-0.37,2-0.48l0.76-.17L484.73,332Zm18.73-1.7-2.47-.06c-0.74,0-1.61,0-2.53,0l-1.43,0-1.47.11c-2,.1-3.93.39-5.4,0.56l-2.44.41-1.89-10.33,2.8-.47c1.69-.21,3.94-0.53,6.21-0.65l1.69-.12,1.64,0c1.06,0,2.06-.08,2.91,0l2.84,0.07Zm17.85,3.14s-0.93-.33-2.37-0.69c-0.72-.18-1.54-0.45-2.45-0.63l-2.83-.62-2.86-.48c-0.91-.15-1.78-0.22-2.51-0.32s-1.35-.17-1.78-0.19l-0.68,0L506,320.12l0.78,0.06c0.5,0,1.2.11,2,.21s1.84,0.2,2.89.37l3.29,0.56,3.26,0.71c1,0.22,2,.52,2.82.73,1.65,0.42,2.73.8,2.73,0.8Z" transform="translate(-324.92 -218.87)"/><path class="cls-3" d="M475.32,346.79c-0.49.19-1,.5-1.61,0.78s-1.23.57-1.83,0.93l-1.79,1c-0.57.32-1.08,0.67-1.53,0.94l-1.08.67a4.77,4.77,0,0,0-.4.27l2.76,4.13a3.77,3.77,0,0,1,.36-0.25l1-.61c0.41-.25.87-0.57,1.39-0.86l1.64-.91c0.55-.33,1.14-0.57,1.67-0.85s1-.54,1.48-0.71l1.47-.64-1.92-4.58Z" transform="translate(-324.92 -218.87)"/><path class="cls-3" d="M491.13,342.14l-1.25.22c-0.52.1-1.13,0.17-1.77,0.31l-2,.44c-0.69.14-1.35,0.36-2,.52s-1.23.31-1.73,0.49l-1.67.54,1.6,4.71,1.52-.49c0.45-.17,1-0.29,1.58-0.45s1.19-.35,1.82-0.48l1.84-.4c0.59-.14,1.15-0.2,1.62-0.28l1.15-.2,0.44-.06-0.68-4.93Z" transform="translate(-324.92 -218.87)"/><path class="cls-3" d="M505.12,341.77c-1.05-.05-2.45-0.22-3.86-0.21a54.09,54.09,0,0,0-5.61.12l0.34,5a49,49,0,0,1,5.14-.11c1.29,0,2.57.15,3.53,0.19s1.6,0.19,1.6.19l0.6-4.94-0.48-.06C506.08,341.88,505.65,341.81,505.12,341.77Z" transform="translate(-324.92 -218.87)"/><path class="cls-3" d="M519.19,344.82l-0.9-.29-2-.63c-1.36-.35-2.7-0.76-3.74-0.95l-1.24-.27-0.47-.1-0.94,4.88,0.43,0.09,1.14,0.25c1,0.17,2.18.55,3.42,0.87l1.79,0.58,0.83,0.26,0.72,0.28,1.5,0.56,1.85-4.61-1.64-.61Z" transform="translate(-324.92 -218.87)"/><path class="cls-3" d="M533.44,352.18l-1.47-1-1.75-1.09c-0.58-.39-1.2-0.72-1.77-1s-1.1-.63-1.57-0.87l-1.57-.77-2.17,4.47,1.43,0.7c0.43,0.22.91,0.51,1.43,0.8s1.09,0.59,1.62.94l1.6,1,1.34,0.94,1,0.66,0.35,0.27,3-4-0.38-.3Z" transform="translate(-324.92 -218.87)"/><path class="cls-3" d="M543.52,361.13c-0.43-.5-0.94-1-1.42-1.51-0.94-1.05-2-2-2.76-2.72-0.37-.38-0.73-0.64-1-0.84l-0.37-.31-3.25,3.76,0.34,0.29c0.21,0.19.54,0.42,0.88,0.77,0.68,0.69,1.67,1.52,2.53,2.49,0.44,0.47.9,0.92,1.3,1.38l1.07,1.25a14.39,14.39,0,0,1,1,1.24l3.9-3.09a16.76,16.76,0,0,0-1.11-1.36Z" transform="translate(-324.92 -218.87)"/><path class="cls-3" d="M552.91,375.29c-0.49-.93-1-2.22-1.76-3.42-0.35-.6-0.66-1.24-1-1.78l-1-1.52-0.38-.61-0.32-.45-0.28-.39-4.1,2.81,0.25,0.36,0.29,0.41,0.34,0.56,0.87,1.39c0.33,0.5.61,1.08,0.93,1.63,0.66,1.1,1.16,2.28,1.61,3.12,0.22,0.43.35,0.81,0.47,1.06l0.17,0.4,4.56-2-0.19-.44C553.3,376.17,553.15,375.76,552.91,375.29Z" transform="translate(-324.92 -218.87)"/><path class="cls-3" d="M557.18,388c-0.15-.64-0.27-1.33-0.45-2-0.37-1.35-.71-2.71-1.07-3.7l-0.39-1.21a4.61,4.61,0,0,0-.16-0.46l-4.69,1.66a3.9,3.9,0,0,1,.14.42l0.35,1.11c0.33,0.9.63,2.15,1,3.39,0.16,0.62.27,1.25,0.41,1.84s0.26,1.13.32,1.61l0.27,1.58,4.92-.74-0.29-1.73C557.46,389.27,557.33,388.67,557.18,388Z" transform="translate(-324.92 -218.87)"/><path class="cls-3" d="M558.4,397.31l-0.13-1.75-5,.4s0,0.64.12,1.6c0,0.48,0,1,0,1.65s0,1.25,0,1.89,0,1.29,0,1.89l-0.12,1.64c0,0.48,0,.88-0.1,1.16l-0.05.44,4.94,0.54,0.06-.48c0-.3.07-0.74,0.11-1.27l0.13-1.79c0-.66,0-1.36.05-2.06s0-1.4,0-2.06S558.43,397.84,558.4,397.31Z" transform="translate(-324.92 -218.87)"/><path class="cls-3" d="M552.33,411.49L552,413.1l-0.49,1.82c-0.15.62-.36,1.23-0.54,1.8s-0.34,1.11-.51,1.56l-0.57,1.5,4.64,1.8,0.62-1.64c0.18-.49.35-1.08,0.56-1.71s0.43-1.29.59-2l0.54-2,0.38-1.76c0.25-1,.34-1.72.34-1.72l-4.89-.88S552.56,410.55,552.33,411.49Z" transform="translate(-324.92 -218.87)"/><path class="cls-4" d="M579.1,424.09L578,427.53a84.35,84.35,0,0,1-4.29,10.09c-0.22.45-.44,0.9-0.67,1.34l-0.72,1.3c-0.48.85-.93,1.71-1.42,2.51-1,1.58-1.88,3.09-2.77,4.3s-1.55,2.26-2.1,2.94l-0.84,1.08,2.72,2.11,0.87-1.13c0.57-.7,1.29-1.79,2.19-3.06s1.84-2.83,2.88-4.48c0.51-.83,1-1.72,1.48-2.61l0.75-1.35c0.24-.46.47-0.93,0.7-1.39a87.85,87.85,0,0,0,4.47-10.51l1.16-3.58c0.26-.87.38-1.38,0.38-1.38l-3.31-.93S579.35,423.25,579.1,424.09Z" transform="translate(-324.92 -218.87)"/><path class="cls-1" d="M573.3,346l-1.43-1.85c-0.56-.71-1.16-1.53-1.89-2.36a90.74,90.74,0,0,0-11.44-11.48A92.88,92.88,0,0,0,545.23,321l-2.65-1.47c-0.79-.43-1.51-0.76-2.08-1.05l-1.83-.9-2.36,5,1.71,0.85c0.54,0.28,1.21.58,2,1l2.49,1.38a87.36,87.36,0,0,1,12.5,8.75,85.19,85.19,0,0,1,10.75,10.79c0.69,0.78,1.26,1.55,1.78,2.22l1.34,1.73c0.37,0.48.63,0.88,0.82,1.15l0.29,0.41,4.53-3.2-0.3-.44C574,346.9,573.69,346.47,573.3,346Z" transform="translate(-324.92 -218.87)"/><path class="cls-1" d="M496.27,303.35c-0.88,0-1.95.07-3.17,0.17s-2.61.16-4.11,0.36a96.13,96.13,0,0,0-41.51,14.64c-1.3.78-2.42,1.61-3.43,2.3s-1.89,1.31-2.58,1.87l-2.19,1.7L443,329l2.06-1.59c0.65-.52,1.47-1.09,2.42-1.75s2-1.43,3.22-2.16a90.26,90.26,0,0,1,39-13.75c1.41-.19,2.71-0.25,3.86-0.34s2.15-.15,3-0.16l2.6-.06,0-5.93Z" transform="translate(-324.92 -218.87)"/><path class="cls-1" d="M596.55,409.86c0-.5-0.05-0.79-0.05-0.79a0.9,0.9,0,0,0-.74-0.9l-5.52-.45a0.89,0.89,0,0,0-.88.9s0,0.26-.07.72l-0.23,1.9c-0.15,1.58-.51,3.67-0.88,5.75-0.18,1-.43,2.07-0.64,3s-0.41,1.88-.63,2.64l-0.69,2.56a0.93,0.93,0,0,0,.52,1.16l8,2.4a1,1,0,0,0,1.12-1l0.34-2.95c0.11-.88.16-1.92,0.24-3s0.17-2.27.18-3.45,0-2.34.05-3.44,0-2.11-.07-3S596.57,410.36,596.55,409.86Z" transform="translate(-324.92 -218.87)"/><path class="cls-3" d="M456.6,335.71a2.45,2.45,0,1,0,3.4.74A2.42,2.42,0,0,0,456.6,335.71Z" transform="translate(-324.92 -218.87)"/><path class="cls-3" d="M474.64,326.81a2.4,2.4,0,0,0-1.48,3.14,2.41,2.41,0,0,0,4.57-1.56A2.41,2.41,0,0,0,474.64,326.81Z" transform="translate(-324.92 -218.87)"/><path class="cls-3" d="M494.37,322.86a2.38,2.38,0,0,0-2.24,2.63,2.49,2.49,0,0,0,2.58,2.25,2.38,2.38,0,0,0,1.62-.83,2.47,2.47,0,0,0,.63-1.74,2.44,2.44,0,0,0-.79-1.71A2.4,2.4,0,0,0,494.37,322.86Z" transform="translate(-324.92 -218.87)"/><path class="cls-3" d="M514.45,324.06a2.45,2.45,0,1,0,1.9,2.92A2.44,2.44,0,0,0,514.45,324.06Z" transform="translate(-324.92 -218.87)"/><path class="cls-5" d="M515.36,394a16,16,0,0,1-20.43,20.58l-0.35,1.29a17.31,17.31,0,0,0,22.08-22.22Z" transform="translate(-324.92 -218.87)"/><path class="cls-5" d="M506,384.63l0.35-1.29a17.31,17.31,0,0,0-22.22,22.08l1.29-.35A16,16,0,0,1,506,384.63Z" transform="translate(-324.92 -218.87)"/><path class="cls-5" d="M506,384.63l-3.44,12.86L515.36,394A15.91,15.91,0,0,0,506,384.63Z" transform="translate(-324.92 -218.87)"/><path class="cls-5" d="M506.3,383.34a17.33,17.33,0,0,1,10.36,10.36l6-1.62-14.77-14.77Z" transform="translate(-324.92 -218.87)"/><path class="cls-5" d="M489.09,410.91a15.84,15.84,0,0,0,5.84,3.72l3.5-13.06-13.06,3.5A15.84,15.84,0,0,0,489.09,410.91Z" transform="translate(-324.92 -218.87)"/><path class="cls-5" d="M484.09,405.41L478.26,407,493,421.74l1.56-5.83A17.26,17.26,0,0,1,484.09,405.41Z" transform="translate(-324.92 -218.87)"/><path class="cls-5" d="M507.15,361.26l-1.1-.16-2.64-.38-3.15-.16c-0.28,0-.56,0-0.85,0l-0.87,0-1.8.09a39.57,39.57,0,0,0-7.55,1.26,39,39,0,0,0-7.17,2.68,27.79,27.79,0,0,0-3.09,1.69l-1.4.84-1.23.9c-0.78.59-1.52,1.1-2.14,1.6L472.62,371l-1.33,1.21,4.22,4.22,1.14-1,1.3-1.18c0.52-.43,1.16-0.86,1.82-1.36l1-.77,1.19-.71a22.3,22.3,0,0,1,2.63-1.44,33,33,0,0,1,6.09-2.28,33.58,33.58,0,0,1,6.42-1.07l1.53-.07,0.74,0c0.25,0,.49,0,0.72,0l2.69,0.13,2.25,0.33,0.94,0.13,0.78,0.19,1.48,0.36,1.53-5.77-1.74-.42Z" transform="translate(-324.92 -218.87)"/><path class="cls-5" d="M539.26,396.46l-0.38-2.64c-0.06-.39-0.1-0.76-0.17-1.1l-0.22-.92L538.05,390l-5.76,1.55,0.36,1.48,0.19,0.78c0.07,0.29.09,0.6,0.14,0.94l0.33,2.25c0.07,0.83.09,1.73,0.14,2.69l0,0.72c0,0.24,0,.49,0,0.74l-0.07,1.53a34.32,34.32,0,0,1-1.05,6.42,26.41,26.41,0,0,1-1,3.15,25,25,0,0,1-1.26,2.95,20.94,20.94,0,0,1-1.43,2.63l-0.7,1.2c-0.25.37-.52,0.71-0.76,1-0.5.67-.94,1.29-1.35,1.83l-1.18,1.3-1,1.14,4.23,4.2,1.2-1.33,1.38-1.53c0.49-.63,1-1.36,1.59-2.14,0.29-.4.6-0.8,0.89-1.24l0.83-1.41a26.35,26.35,0,0,0,1.68-3.1,30.76,30.76,0,0,0,1.48-3.47,39.8,39.8,0,0,0,2-7.52,31.12,31.12,0,0,0,.43-3.74l0.09-1.8q0-.44,0-0.87c0-.29,0-0.57,0-0.85C539.37,398.49,539.34,397.43,539.26,396.46Z" transform="translate(-324.92 -218.87)"/><path class="cls-5" d="M489.66,433l-1.65-.58a15,15,0,0,1-2.11-.83c-0.75-.36-1.59-0.7-2.42-1.16l-2.58-1.52-2.59-1.9c-0.84-.69-1.64-1.47-2.48-2.2l-0.31-.28-0.28-.31-0.56-.62-1.11-1.22a11,11,0,0,1-1-1.27l-0.94-1.28-0.46-.62-0.39-.65L470,417.27c-0.23-.42-0.5-0.8-0.69-1.2l-0.54-1.18-0.5-1.08-0.23-.5c-0.07-.17-0.12-0.33-0.18-0.49l-0.58-1.65c-0.16-.46-0.29-0.82-0.37-1.06l-0.09-.39-5.74,1.62,0.11,0.45c0.09,0.29.24,0.71,0.43,1.26l0.68,1.94c0.07,0.19.13,0.38,0.21,0.58l0.27,0.59,0.59,1.28L464,418.8c0.22,0.48.53,0.93,0.81,1.42l0.88,1.49,0.46,0.77,0.54,0.73,1.1,1.5A14.22,14.22,0,0,0,469,426.2l1.3,1.44,0.66,0.72,0.33,0.36,0.36,0.33c1,0.87,1.91,1.77,2.91,2.58s2,1.52,3,2.23l3,1.8c1,0.53,2,.94,2.85,1.36a19.45,19.45,0,0,0,2.48,1l1.95,0.68c0.54,0.18,1,.26,1.28.34l0.46,0.11,1.47-5.78-0.39-.09C490.5,433.19,490.12,433.13,489.66,433Z" transform="translate(-324.92 -218.87)"/><path class="cls-5" d="M534.67,394.85c-0.06-.41-0.11-0.83-0.18-1.24l-0.3-1.21c-0.21-.8-0.36-1.62-0.62-2.41l-0.82-2.33a36.7,36.7,0,0,0-7.68-12c-0.13-.14-0.25-0.29-0.39-0.42l-0.43-.39-0.85-.77-0.84-.76a8,8,0,0,0-.86-0.73,35.49,35.49,0,0,0-29.44-7A34.6,34.6,0,0,0,482,369.5l-1.87,1.1c-0.57.37-1.07,0.77-1.55,1.12l-1.33,1c-0.4.3-.72,0.64-1,0.9l-1.87,1.69,1.17,1.17,1.78-1.61c0.3-.25.6-0.58,1-0.86l1.27-.93c0.46-.33.93-0.72,1.48-1.07l1.78-1.05a33,33,0,0,1,9.79-3.71,33.83,33.83,0,0,1,28.07,6.66,7.32,7.32,0,0,1,.82.69l0.81,0.73L523.1,376l0.41,0.37c0.13,0.13.25,0.27,0.37,0.41a35.1,35.1,0,0,1,7.32,11.43l0.78,2.22c0.25,0.75.39,1.53,0.59,2.3l0.29,1.16c0.07,0.39.11,0.79,0.17,1.18,0.1,0.79.26,1.58,0.32,2.38a37,37,0,0,1-.54,9.71,36.58,36.58,0,0,1-3.34,9.29,33.86,33.86,0,0,1-13.93,13.93,34,34,0,0,1-19,3.88c-0.8-.06-1.59-0.22-2.38-0.32l-1.18-.17-1.16-.29c-0.77-.2-1.55-0.34-2.29-0.59l-2.22-.78a35.05,35.05,0,0,1-11.43-7.32c-0.13-.12-0.28-0.24-0.41-0.37l-0.37-.41-0.73-.81-0.73-.81a7.32,7.32,0,0,1-.69-0.82,33.84,33.84,0,0,1-6.66-28.07,33,33,0,0,1,3.71-9.79L471,382c0.35-.55.74-1,1.07-1.48l0.93-1.27c0.29-.39.61-0.69,0.86-1l1.61-1.78-1.17-1.17-1.68,1.87c-0.27.31-.6,0.63-0.9,1l-1,1.33c-0.34.48-.75,1-1.12,1.55l-1.1,1.87a34.58,34.58,0,0,0-3.89,10.27,35.49,35.49,0,0,0,7,29.44,8,8,0,0,0,.73.86l0.76,0.85,0.77,0.85,0.39,0.43c0.13,0.14.28,0.26,0.42,0.39a36.69,36.69,0,0,0,12,7.68l2.33,0.82c0.78,0.26,1.6.41,2.41,0.62l1.21,0.3c0.41,0.07.83,0.12,1.24,0.18,0.83,0.11,1.66.27,2.5,0.33a35.63,35.63,0,0,0,19.93-4.07,35.57,35.57,0,0,0,14.61-14.61A35.61,35.61,0,0,0,535,397.35C534.94,396.51,534.78,395.68,534.67,394.85Z" transform="translate(-324.92 -218.87)"/><circle class="cls-3" cx="499.53" cy="400.47" r="2.77" transform="translate(-461.8 251.59) rotate(-45)"/><g class="cls-6"><path class="cls-1" d="M661.23,392.51c-0.19-3.61-.69-7.24-1.13-10.91-0.24-1.82-.59-3.65-0.89-5.49-0.15-.92-0.31-1.84-0.47-2.76s-0.4-1.83-.59-2.76a163,163,0,0,0-15.87-43.47A166.15,166.15,0,0,0,629.49,307a163.34,163.34,0,0,0-33.85-33.85,169.45,169.45,0,0,0-20.13-12.79A163,163,0,0,0,532,244.48l-2.75-.59-2.77-.48c-1.83-.3-3.66-0.64-5.49-0.89-3.66-.44-7.29-0.94-10.91-1.14A163.81,163.81,0,0,0,450.73,248a165,165,0,0,0-30.3,12.63c-2.13,1.21-4.23,2.31-6.18,3.51l-5.61,3.51c-1.76,1.17-3.42,2.35-5,3.46-0.79.56-1.58,1.09-2.32,1.63l-2.14,1.65-3.94,3.06c-1.21,1-2.3,2-3.35,2.84L389,282.7c-0.87.76-1.61,1.5-2.3,2.14l-4.17,4,33.88,33.87s1-1,3-2.82c0.49-.45,1-1,1.62-1.52l2-1.74c0.74-.63,1.51-1.32,2.36-2l2.79-2.15,1.51-1.18c0.53-.39,1.08-0.75,1.64-1.15,1.14-.77,2.29-1.62,3.54-2.45l4-2.46c1.37-.85,2.87-1.61,4.36-2.47A114.85,114.85,0,0,1,491.61,289a112.85,112.85,0,0,1,15,.14c2.57,0.12,5.13.51,7.72,0.79,1.3,0.17,2.6.44,3.89,0.64l2,0.32,1.95,0.43a115,115,0,0,1,30.69,11.19,120.3,120.3,0,0,1,14.21,9,116.1,116.1,0,0,1,24,24,118.56,118.56,0,0,1,9,14.21,114.73,114.73,0,0,1,11.19,30.69l0.43,1.95,0.32,2c0.21,1.31.47,2.6,0.64,3.89,0.29,2.6.68,5.16,0.8,7.73a114.59,114.59,0,0,1,.13,15,120.3,120.3,0,0,1-3.38,22l48.93,0.05a171.71,171.71,0,0,0,2.27-19.38A161.33,161.33,0,0,0,661.23,392.51ZM417.68,305.89l-1.46,1.26-15.89-18.83,1.73-1.49c0.89-.73,1.8-1.42,1.8-1.42l15.32,19.29S418.42,305.28,417.68,305.89Zm11.38-8.29c-0.82.49-1.6,1.05-1.6,1.05l-13.72-20.47s0.93-.67,1.92-1.26l1.95-1.22,13.09,20.86Zm10.5-6.13-11.34-21.86,4.12-2L443,289.77Zm12.84-5.76-8.84-23,4.3-1.62L456,284.35Zm15.26-4.82-1.86.5-6.23-23.82,2.21-.6,2.24-.51,5.51,24Zm13.86-2.57-1.32.15a5.18,5.18,0,0,0-.59.08L476,254.18a6.78,6.78,0,0,1,.71-0.1l1.57-.19,2.27-.27,2.84,24.47Zm12.14-1-0.87-24.61,4.58-.11,0.13,24.63Zm17.92,0.62-0.6-.07c-0.37-.05-0.84-0.1-1.32-0.12l-1.92-.14L509.59,253l2.29,0.16c0.57,0,1.15.09,1.57,0.15l0.71,0.08Zm13.9,2.26-1.88-.42c-0.93-.22-1.88-0.38-1.88-0.38l4.54-24.21s1.13,0.18,2.24.45l2.25,0.49Zm13.58,3.75-3.66-1.18,7.18-23.57,4.37,1.41Zm13.07,5.23s-0.21-.11-0.54-0.25l-1.22-.53-1.76-.76L558.38,265l2.1,0.92,1.45,0.63c0.4,0.17.65,0.3,0.65,0.3Zm12.38,6.69-1.62-1-1.67-.94,12.22-21.39,2,1.13,1.95,1.22Zm11.59,8-1.52-1.18-1-.81c-0.28-.22-0.49-0.35-0.49-0.35l14.52-19.9,0.58,0.42,1.25,1,1.81,1.41Zm10.63,9.25-2.79-2.66,16.63-18.19,3.32,3.16Zm9.59,10.34-2.5-2.92,18.5-16.26,3,3.48Zm8,10.83-0.76-1.08-1.09-1.57L622.7,317.5l1.31,1.89,0.9,1.3c0.24,0.35.39,0.6,0.39,0.6l-20.6,13.51S604.58,334.58,604.38,334.28Zm7.35,12.7s-0.43-.86-0.84-1.72l-0.94-1.67,21.62-11.8,1.13,2,1,2.06Zm5,11.1c-0.17-.46-0.33-0.9-0.47-1.24s-0.22-.56-0.22-0.56L638.81,347s0.12,0.26.26,0.67,0.37,0.94.57,1.48l0.81,2.14-23.08,8.62Zm3.88,11.53,23.69-6.72,1.2,4.43-23.89,6Zm3.4,15.64-0.32-1.9,24.3-4.06s0.19,1.14.38,2.26,0.32,2.27.32,2.27l-24.4,3.33S624.15,386.2,624,385.26Zm1.38,15.95s0-1,0-1.92-0.09-1.93-.09-1.93L649.81,396s0.1,1.15.11,2.29,0.06,2.29.06,2.29Z" transform="translate(-324.92 -218.87)"/></g><g class="cls-6"><path class="cls-1" d="M587.57,498.74c-1.64,1.64-4.23,3.85-7.56,6.61a122.38,122.38,0,0,1-12.79,8.9,117.22,117.22,0,0,1-18.09,9,126.62,126.62,0,0,1-23,6.69,130.26,130.26,0,0,1-26.74,2.28,135.15,135.15,0,0,1-28.51-3.7c-2.4-.5-4.75-1.27-7.13-1.91s-4.7-1.55-7.06-2.31c-2.3-.93-4.65-1.75-6.93-2.76s-4.58-2-6.78-3.14a135.12,135.12,0,0,1-25-16,133.43,133.43,0,0,1-20.19-20.49,129.84,129.84,0,0,1-23.15-45,122.47,122.47,0,0,1-4-19.93l-0.29-2.22-0.17-2.15-0.32-4.08c-0.05-2.62-.21-5-0.17-7.2s0-4.12.13-5.8l0.27-4.28c0.05-1.16.19-2,.25-2.65l0.1-.91L358,386.3l-0.11,1c-0.07.66-.21,1.63-0.27,2.9l-0.3,4.7c-0.11,1.85-.09,4-0.14,6.36s0.13,5,.19,7.9l0.35,4.47,0.19,2.36,0.31,2.43a134.84,134.84,0,0,0,4.41,21.85A142.31,142.31,0,0,0,388,489.64,145.83,145.83,0,0,0,410.09,512a147.52,147.52,0,0,0,27.32,17.55c2.41,1.28,4.94,2.3,7.42,3.43s5.06,2,7.58,3c2.58,0.84,5.13,1.78,7.72,2.53s5.17,1.54,7.8,2.09a147.69,147.69,0,0,0,31.19,4,142.82,142.82,0,0,0,29.31-2.5,139.18,139.18,0,0,0,25.31-7.36,129.63,129.63,0,0,0,19.94-10,134.88,134.88,0,0,0,14.11-9.82c3.68-3,6.52-5.48,8.33-7.28l2.84-2.7-8.81-8.81Z" transform="translate(-324.92 -218.87)"/></g><path class="cls-1" d="M617.84,524a12.79,12.79,0,0,0-1.48,1.39c-1.15,1.09-2.29,2.19-3.45,3.27-2.31,2.14-4.7,4.2-7.14,6.19A157.82,157.82,0,0,1,557.26,562a169.11,169.11,0,0,1-73.32,8.46,172.33,172.33,0,0,1-119.58-67.79,168.14,168.14,0,0,1-29.51-139.16c5.07-21.74-1.88-19.21-6.49,3.5q-0.57,2.83-1.05,5.68a173.83,173.83,0,0,0,35.83,137.54A177.9,177.9,0,0,0,484,576.12a174.76,174.76,0,0,0,74-8.44,166.74,166.74,0,0,0,33.78-16,185.83,185.83,0,0,0,30-23.73c-1.11-1.11-2.2-2.23-3.31-3.33A4,4,0,0,0,617.84,524Z" transform="translate(-324.92 -218.87)"/><path class="cls-2" d="M599.18,505.31c-0.45-.45-1.1.64-1.45,1-2,1.94-4.09,3.86-6.23,5.69A136.13,136.13,0,0,1,529,542.12,145,145,0,0,1,423.4,521.66a152.32,152.32,0,0,1-27.74-23.14A143.29,143.29,0,0,1,366.16,451c-8.15-21.23-10.53-44.56-8-67.09A114.57,114.57,0,0,1,362,365c2.92-10-16.79-20.2-20.16-8.68A164.73,164.73,0,0,0,338.16,431a161.09,161.09,0,0,0,24.44,60.61,170.48,170.48,0,0,0,36.06,39.11,164.5,164.5,0,0,0,32.46,20,180.06,180.06,0,0,0,35.82,12.06,165.58,165.58,0,0,0,75.82-1.46,156.8,156.8,0,0,0,62-32c3.32-2.81,6.47-5.79,9.62-8.79l-10.43-10.43Zm-112.29,57a162.89,162.89,0,0,1-33.4-6.62,12.58,12.58,0,0,1-1.68-.59l0.25-.78,1.17-3.62,2.77-8.6,0.36-1.12a139.92,139.92,0,0,0,31.9,6.52Zm35.64-.6-0.32,0a173.67,173.67,0,0,1-30,1q0.43-7.25.86-14.49c0-.08,0-0.35.07-0.34l2.27,0.09c2.91,0.12,5.81.15,8.73,0.13a131,131,0,0,0,18.26-1.43l3.18-.48a1.35,1.35,0,0,1,.15.65l0.81,4.9,1.51,9.11Zm43.76-12.26-0.23.09a172.69,172.69,0,0,1-32.62,10.34c-0.05,0-2.61-12.86-2.87-14.16l-0.08-.41a133.77,133.77,0,0,0,31-10l3.44,7.49,2.12,4.61,0.57,1.25C567.8,549,566.57,549.32,566.29,549.45Zm35.26-22c-0.19.17-.4,0.34,0,0A134.18,134.18,0,0,1,587,538.2c-1.09.7-14.28,8.5-14.41,8.24l-6.55-13-0.13-.25a129.46,129.46,0,0,0,27.18-18l5.33,6.28,3.28,3.87,0.89,1C602.87,526.65,601.8,527.25,601.54,527.46Z" transform="translate(-324.92 -218.87)"/><path class="cls-3" d="M559.87,496.09c-0.47.31-1.17,0.71-2,1.21l-2.8,1.71-3.32,1.79c-1.11.65-2.29,1.16-3.37,1.69s-2.08,1-3,1.4l-3,1.24,5,12.26,3.35-1.4c1-.41,2.13-1,3.36-1.58s2.55-1.18,3.81-1.9l3.74-2,3.17-1.93c0.92-.57,1.71-1,2.24-1.37l0.82-.57-7.3-11Z" transform="translate(-324.92 -218.87)"/><path class="cls-3" d="M532.33,508.64c-0.92.31-2,.58-3.2,0.87s-2.43.65-3.7,0.9l-3.74.75c-1.19.27-2.33,0.36-3.29,0.53l-2.33.36c-0.28,0-.5.07-0.66,0.08l-0.23,0,1.58,13.13,0.26,0c0.17,0,.42,0,0.74-0.09l2.62-.4c1.08-.18,2.36-0.3,3.69-0.59l4.2-.84c1.43-.28,2.83-0.7,4.16-1s2.56-.63,3.6-1l3.48-1.06-4.07-12.58Z" transform="translate(-324.92 -218.87)"/><path class="cls-3" d="M506.73,512.82c-0.57,0-1.39.11-2.37,0.09-2,0-4.58.08-7.21-.09s-5.24-.37-7.2-0.51c-1-.06-1.79-0.23-2.36-0.29l-0.89-.12L484.92,525l1,0.14c0.64,0.07,1.54.25,2.64,0.33,2.19,0.17,5.11.52,8,.58s5.86,0.1,8.06.1c1.1,0,2-.08,2.65-0.1l1-.05-0.68-13.21Z" transform="translate(-324.92 -218.87)"/><path class="cls-3" d="M476,509.91c-1-.25-2.1-0.43-3.27-0.8L469,508.05c-1.27-.35-2.5-0.83-3.67-1.2s-2.27-.73-3.18-1.12l-3.06-1.19-5,12.25,3.42,1.33c1,0.43,2.24.82,3.55,1.25s2.68,0.94,4.1,1.34l4.15,1.18c1.32,0.41,2.59.62,3.65,0.9l2.59,0.61a9.84,9.84,0,0,0,1,.21l2.65-13a7.9,7.9,0,0,1-.88-0.19Z" transform="translate(-324.92 -218.87)"/><path class="cls-3" d="M446.25,498.32c-1.06-.63-2.24-1.21-3.34-1.93l-3.26-2.06c-1.06-.63-2-1.36-2.78-1.91l-2-1.36c-0.48-.32-0.73-0.53-0.73-0.53l-7.89,10.61s0.29,0.23.82,0.59l2.18,1.53c0.91,0.61,1.92,1.42,3.1,2.13l3.64,2.3c1.23,0.8,2.54,1.46,3.73,2.16s2.3,1.35,3.29,1.81l3.28,1.65,5.8-11.89-2.93-1.48C448.3,499.53,447.33,498.92,446.25,498.32Z" transform="translate(-324.92 -218.87)"/><path class="cls-3" d="M423.31,481.42c-0.89-.85-1.87-1.73-2.75-2.72l-2.67-2.8c-0.83-.91-1.55-1.8-2.2-2.54l-1.56-1.8c-0.38-.43-0.56-0.7-0.56-0.7l-10.28,8.32s0.21,0.3.63,0.79l1.74,2c0.73,0.83,1.53,1.82,2.46,2.84l3,3.12c1,1.09,2.07,2.08,3.07,3l2.73,2.6,2.78,2.39,8.58-10.06-2.5-2.14Z" transform="translate(-324.92 -218.87)"/><path class="cls-3" d="M407.15,462.1l-1.78-2.84c-0.32-.52-0.68-1-1-1.6l-0.95-1.7c-0.62-1.15-1.32-2.26-1.86-3.35l-1.49-3c-0.45-.87-0.81-1.6-1-2.13l-0.36-.82-12.06,5.43L387,453c0.24,0.59.64,1.42,1.14,2.39l1.67,3.35c0.61,1.23,1.38,2.47,2.08,3.76l1.07,1.9c0.36,0.62.76,1.21,1.12,1.79l2,3.17c0.59,0.93,1.15,1.65,1.51,2.18l0.58,0.82,10.82-7.6-0.52-.74C408.18,463.58,407.68,462.93,407.15,462.1Z" transform="translate(-324.92 -218.87)"/><path class="cls-3" d="M393.69,433.42l-1-3.7c-0.39-1.25-.64-2.53-0.91-3.72s-0.55-2.3-.72-3.27l-0.56-3.21-13,2.17,0.63,3.6c0.19,1.08.52,2.32,0.81,3.66s0.6,2.77,1,4.17l1.14,4.14,1.18,3.56c0.65,2.1,1.21,3.45,1.21,3.45l12.4-4.59s-0.5-1.21-1.08-3.08Z" transform="translate(-324.92 -218.87)"/><path class="cls-3" d="M389.07,405.44c0-1.22-.13-2.53-0.09-3.83s0-2.61.06-3.83,0.14-2.36.19-3.33l0.14-2.36,0.1-.89-13.17-1.25-0.11,1L376,393.59c-0.05,1.09-.19,2.37-0.21,3.74s0,2.83-.07,4.29,0.08,2.92.1,4.29,0.06,2.65.18,3.74l0.29,3.64L389.48,412l-0.26-3.25C389.12,407.8,389.1,406.66,389.07,405.44Z" transform="translate(-324.92 -218.87)"/><path class="cls-5" d="M676.63,384.22c0,0.06,0,.11,0,0.14s0,0.09,0,0,0-.08,0-0.14,0-.25,0-0.46a173.44,173.44,0,0,0-2.56-26.15q-1.2-6.73-3-13.33c-0.13-.5,0-0.38.49-0.5l1.53-.42,2.5-.68c-0.86-3-1.73-6.07-2.75-9.07-1.33-3.94-2.83-7.8-4.34-11.68a182.25,182.25,0,0,0-9.8-19.61l-2.07,1.21-1.42.83a2.28,2.28,0,0,1-.65.38c-2.43-4.12-5-8.16-7.74-12.08a161.15,161.15,0,0,0-18-21.36l3.39-3.39a196.47,196.47,0,0,0-20.87-17.66,149.45,149.45,0,0,0-12.56-8.18c-0.17-.1-1.24-0.86-1.35-0.67l-0.76,1.31-1.59,2.76a157.44,157.44,0,0,0-39.25-16.27l0.77-2.89,0.42-1.58c0.1-.36-0.81-0.4-1.08-0.48-4.86-1.29-9.8-2.21-14.75-3.09a182.39,182.39,0,0,0-27.51-2.28v4.82a5.42,5.42,0,0,0,0,1.82c0.23,0.26,2.16.06,2.48,0.06l4.54,0.12c3.1,0.09,6.22.37,9.31,0.65a152.62,152.62,0,0,1,33.21,7A161.25,161.25,0,0,1,666.74,336.18a144.73,144.73,0,0,1,6.51,28c0.62,4.91,1.26,9.87,1.4,14.82,0.07,2.31.12,4.63,0.18,6.94,0,0.34-.15.73,0.24,0.73h1.63L676.62,384C676.62,384,676.63,384.14,676.63,384.22Z" transform="translate(-324.92 -218.87)"/></svg>