<svg preserveAspectRatio="none" id="Layer_1" data-name="Layer 1" xmlns="http://www.w3.org/2000/svg" viewBox="0 0 100.67 101.97"><defs><linearGradient id="linear-gradient" x1="500.39" y1="506.92" x2="571.56" y2="578.09" gradientUnits="userSpaceOnUse"><stop offset=".01" stop-color="#5d85c4"/><stop offset="1" stop-color="#334f7e"/></linearGradient><linearGradient id="linear-gradient-2" x1="490.48" y1="574.57" x2="555.97" y2="574.57" gradientUnits="userSpaceOnUse"><stop offset=".02" stop-color="#dd697d"/><stop offset=".48" stop-color="#d13954"/><stop offset=".98" stop-color="#a13246"/></linearGradient><linearGradient id="linear-gradient-3" x1="535.98" y1="501.64" x2="576.56" y2="501.64" gradientUnits="userSpaceOnUse"><stop offset=".01" stop-color="#eebe77"/><stop offset=".97" stop-color="#a87c40"/></linearGradient><style>.cls-1{fill:#2e2855}</style></defs><path class="cls-1" d="M538.48 572.33a32.24 32.24 0 01-32.16-29l4-.41a28.34 28.34 0 0037.21 23.92l1.28 3.79a32.21 32.21 0 01-10.33 1.7zM560.09 564l-2.68-3a28.18 28.18 0 008.75-15l3.91.85a32.16 32.16 0 01-9.98 17.15zM566.37 535a28.33 28.33 0 00-52.3-9.35l-3.44-2a32.33 32.33 0 0159.68 10.67z" transform="translate(-488.15 -489.67)"/><path d="M538.48 567.33A27.33 27.33 0 11565.81 540a27.36 27.36 0 01-27.33 27.33zm0-52.67A25.33 25.33 0 10563.81 540a25.36 25.36 0 00-25.33-25.33z" transform="translate(-488.15 -489.67)" fill="#3ee497"/><path d="M505.92 550.86l-15.18 5.06a50.31 50.31 0 0112.38-51.72l11.26 11.39a34.25 34.25 0 00-8.46 35.27zm66.81-13.2c.05.77.09 1.55.09 2.34a34.37 34.37 0 01-20 31.18l6.69 14.55a50.33 50.33 0 0029.3-45.73c0-1.15-.05-2.3-.13-3.43z" transform="translate(-488.15 -489.67)" fill="url(#linear-gradient)"/><path d="M491.78 560.1a1.3 1.3 0 111.3-1.3 1.3 1.3 0 01-1.3 1.3zm3.8 3.85a1.3 1.3 0 10-1.14 1.44 1.3 1.3 0 001.13-1.39zm3.08 4.83a1.3 1.3 0 10-1 1.57 1.3 1.3 0 00.99-1.57zm3.62 4.44a1.3 1.3 0 10-.78 1.67 1.3 1.3 0 00.77-1.67zm4.11 4a1.3 1.3 0 10-.58 1.75 1.3 1.3 0 00.57-1.76zm4.55 3.48a1.3 1.3 0 10-.37 1.8 1.3 1.3 0 00.35-1.81zm4.92 2.93a1.3 1.3 0 10-.16 1.83 1.3 1.3 0 00.14-1.84zm5.23 2.34a1.3 1.3 0 10.06 1.84 1.3 1.3 0 00-.08-1.81zm5.46 1.71a1.3 1.3 0 10.27 1.82 1.3 1.3 0 00-.29-1.83zm5.62 1.07a1.3 1.3 0 10.48 1.78 1.3 1.3 0 00-.49-1.8zm5.71.4a1.3 1.3 0 10.68 1.71 1.3 1.3 0 00-.69-1.72zm5.72-.26a1.3 1.3 0 10.88 1.62 1.3 1.3 0 00-.89-1.64zm5.65-.93a1.3 1.3 0 101.06 1.51 1.3 1.3 0 00-1.07-1.52zm5.5-1.58a1.3 1.3 0 101.23 1.37 1.3 1.3 0 00-1.24-1.38z" transform="translate(-488.15 -489.67)" fill="url(#linear-gradient-2)"/><path d="M569.64 513.62l-3.46-3.62 6.92-6.63 3.46 3.61zm-5.92-5.71l-4.11-2.85 5.45-7.88 4.11 2.85zm-6.94-4.41l-4.6-2 3.76-8.81 4.6 2zm-7.68-2.93l-4.9-1 1.92-9.39 4.9 1zm-8.1-1.32h-5v-9.58h5v9.58z" transform="translate(-488.15 -489.67)" fill="url(#linear-gradient-3)"/></svg>