<svg preserveAspectRatio="none" id="Layer_1" data-name="Layer 1" xmlns="http://www.w3.org/2000/svg" viewBox="0 0 65.85 68.91"><defs><style>.cls-1{opacity:.5}.cls-2{fill:#00b3ea}.cls-3{fill:#feb113}.cls-12{fill:#065977}</style></defs><g class="cls-1"><path class="cls-2" d="M288.71 53.35l-.49-.22a32.61 32.61 0 00-3.07-1.24l-1-.34-1.1-.32-.57-.16-.59-.14-1.23-.28a36.5 36.5 0 00-5.32-.64 35 35 0 00-5.35.18 34.09 34.09 0 00-4.6.83c-1.33.34-2.41.69-3.17 1l-1.18.44 1.57 3.93 1-.38c.66-.24 1.61-.55 2.77-.84a29.84 29.84 0 014-.73 30.83 30.83 0 014.7-.16 32.28 32.28 0 014.67.56l1.14.16.52.12.5.14 1 .28.89.3a28.4 28.4 0 012.65 1.16l.43.19.31.16.26.13 1.91-3.78-.29-.15zM307.89 79.24c0-.31-.11-.6-.15-.87l-.14-.77c0-.24-.1-.45-.14-.65l-.21-.9c0-.21-.08-.32-.08-.32l-4.1 1.07s0 .1.07.28l.18.79c0 .17.09.36.13.57l.12.67.14.77.11.86a30.51 30.51 0 01-.2 8.78 28.55 28.55 0 01-1.14 4.56c-.23.72-.51 1.39-.76 2-.13.32-.28.62-.41.92s-.26.58-.4.85c-.28.53-.52 1-.77 1.45s-.45.8-.64 1.09l-.59.93 3.51 2.37.68-1.06c.22-.33.45-.76.73-1.24s.56-1 .88-1.65c.16-.3.31-.63.46-1s.31-.68.46-1c.29-.73.6-1.5.86-2.31a32.74 32.74 0 001.3-5.2 34.74 34.74 0 00.23-10zM276.84 114.51l-1.26.1c-.49 0-1 0-1.64.05a30.28 30.28 0 01-13.08-2.91c-.34-.16-.66-.34-1-.5l-.46-.25-.45-.26-.87-.5-.79-.51-.37-.24-.34-.24-.63-.45c-.2-.14-.38-.28-.54-.41l-.46-.36-.37-.29-.26-.23-.22-.19-2.76 3.21.25.21.3.26.42.33.52.41c.19.15.39.31.62.47l.72.51.39.28.42.27.9.58 1 .57.52.3.54.28c.37.18.74.39 1.13.57a34.51 34.51 0 0014.93 3.32c.68 0 1.31 0 1.87-.06l1.44-.11 1.25-.15-.57-4.19z" transform="translate(-242.42 -49.98)"/><path class="cls-2" d="M300.43 67.77a31.78 31.78 0 00-4.07-5.19 31.33 31.33 0 00-9.87-6.88 31.93 31.93 0 00-5.07-1.7l-1.23-.28-1.19-.26c-.4-.08-.79-.12-1.18-.17s-.77-.11-1.15-.13l-1.12-.09h-3.09l-1 .07c-.31 0-.62 0-.92.08-.6.08-1.17.13-1.71.23s-1.05.17-1.52.29-.92.19-1.33.31-.79.21-1.13.31l-.93.3c-.28.08-.52.18-.73.26l-.53.2-.43.16.44 1.09.33-.17.51-.19c.2-.08.43-.17.7-.25l.9-.29c.33-.1.7-.19 1.09-.3s.82-.2 1.28-.3.95-.19 1.47-.27 1.07-.15 1.65-.22c.29 0 .59-.05.89-.08l.93-.06h3l1.08.08c.37 0 .73.08 1.11.12s.76.09 1.14.16l1.17.21 1.19.27a30.77 30.77 0 014.89 1.7 30.16 30.16 0 019.5 6.62 30.59 30.59 0 013.92 5 29.32 29.32 0 012.88 6 30.4 30.4 0 01-.16 20.6 31 31 0 01-3.3 6.39 30.32 30.32 0 01-10.52 9.61 30.38 30.38 0 01-6.51 2.63l-.42.12-.42.1-.84.19c-.56.12-1.13.21-1.69.31s-1.13.15-1.7.21l-.85.06h-.85a30.12 30.12 0 01-22.37-8.62 30.8 30.8 0 01-3.37-3.92l-.36-.5c-.12-.16-.23-.33-.34-.5l-.64-1c-.39-.68-.78-1.32-1.1-2s-.62-1.3-.91-1.92l-.37-.94-.18-.46-.15-.45-.3-.88-.25-.86c-.17-.56-.29-1.1-.4-1.61a31.36 31.36 0 01-.67-4.83v-1.7h-1.18v1.8a32.54 32.54 0 00.7 5c.12.53.24 1.1.42 1.67l.25.89.31.92.16.47.19.47.38 1c.3.64.58 1.33.94 2s.74 1.36 1.14 2.06l.66 1c.11.18.23.35.35.52l.37.52a32 32 0 003.5 4.07 31.3 31.3 0 0023.24 8.94h.88l.88-.07c.59-.06 1.17-.14 1.76-.22s1.18-.2 1.76-.33l.88-.2.44-.1.43-.12a31.58 31.58 0 006.76-2.73 31.5 31.5 0 0010.97-9.99 32.19 32.19 0 003.43-6.64 31.58 31.58 0 00.18-21.36 30.48 30.48 0 00-3-6.23z" transform="translate(-242.42 -49.98)"/></g><path class="cls-3" d="M252.62 79.61v.19l-.09.52c0 .21-.09.46-.12.73l-.11.84c0 .29 0 .58-.07.84s0 .52 0 .74v.72H248v-.85-.88c0-.32 0-.66.08-1l.13-1c0-.32.1-.61.14-.87l.11-.61.05-.23zM254.77 73.79l-.33.64-.16.31-.16.36c-.11.25-.24.51-.34.78l-.31.79-.24.7c-.07.21-.13.38-.16.5l-.05.19-4-1.16.07-.23c0-.15.11-.35.19-.59s.18-.53.29-.83l.37-.94c.12-.32.28-.63.41-.93l.19-.42.19-.37.39-.76zM258.47 68.83l-.5.52c-.15.15-.32.35-.49.55s-.37.42-.54.65a20.57 20.57 0 00-1.35 1.87l-3.47-2.23a24.82 24.82 0 011.6-2.23c.21-.27.44-.53.65-.77s.41-.47.59-.65l.59-.62zM263.42 65.09l-.63.36c-.19.1-.4.25-.63.39s-.47.3-.7.47-.47.33-.69.5l-.58.46c-.17.13-.3.26-.4.34l-.15.13-2.7-3.11.18-.15c.12-.1.27-.24.48-.4l.69-.54c.25-.2.54-.39.82-.59s.57-.39.84-.56.52-.34.75-.47l.74-.43zM269.23 62.9l-.7.16-.71.2-.4.12-.41.14c-.55.18-1.09.4-1.49.56l-.66.29-1.72-3.74.79-.35c.48-.19 1.12-.45 1.77-.66l.49-.16.48-.14.85-.24.84-.19z" transform="translate(-242.42 -49.98)"/><path class="cls-3" d="M275.4 62.44h-2.31c-.29 0-.58 0-.85.05s-.52 0-.74.07l-.72.09-.59-4.08.85-.11c.26 0 .55-.05.87-.08s.66-.06 1-.06h2.74z" transform="translate(-242.42 -49.98)" opacity=".9"/><path class="cls-3" d="M281.47 63.72l-.19-.07-.5-.17-.33-.11-.38-.11c-.26-.07-.54-.16-.82-.23l-.83-.19-.73-.14c-.43-.08-.71-.11-.71-.11l.57-4.08s.34 0 .85.13l.87.16 1 .23c.33.08.66.18 1 .27l.45.13.4.13.59.2.22.08z" transform="translate(-242.42 -49.98)" opacity=".8"/><path class="cls-3" d="M286.92 66.67l-.59-.42c-.17-.13-.39-.26-.62-.41s-.47-.31-.72-.45a20.52 20.52 0 00-2.05-1.06l1.7-3.75a24.73 24.73 0 012.44 1.27c.3.17.59.36.86.53s.52.33.73.49l.7.5z" transform="translate(-242.42 -49.98)" opacity=".7"/><path class="cls-3" d="M291.33 71l-.45-.57c-.13-.17-.3-.36-.48-.56s-.37-.42-.57-.63-.39-.42-.59-.61l-.54-.51c-.16-.15-.3-.26-.39-.35l-.15-.13 2.69-3.12.15.18c.11.1.28.24.46.41l.64.61c.23.22.46.47.7.72s.47.5.67.75.41.47.57.67l.53.67z" transform="translate(-242.42 -49.98)" opacity=".6"/><g class="cls-1"><path class="cls-3" d="M294.33 76.45l-.27-.67c-.08-.2-.19-.43-.3-.68l-.17-.38-.2-.38c-.25-.52-.55-1-.77-1.39l-.39-.61 3.46-2.24s.19.29.46.73.61 1 .91 1.65l.23.46.21.45c.13.29.26.57.36.81l.32.8z" transform="translate(-242.42 -49.98)"/></g><path class="cls-3" d="M295.69 82.5v-.2-.52l-.09-.73c0-.27-.09-.55-.14-.84l-.08-.42-.09-.41c-.06-.26-.11-.51-.17-.72l-.2-.7 3.95-1.18.13.84c.07.25.13.54.2.86l.15.52.09.5c.06.34.13.68.17 1l.11.87c0 .26 0 .47.06.62v.23z" transform="translate(-242.42 -49.98)" opacity=".4"/><path class="cls-3" d="M295.29 88.68v-.19l.09-.52c.09-.43.15-1 .22-1.57s.1-1.15.1-1.58v-.52-.2h4.12v.85c0 .51-.06 1.2-.12 1.88s-.16 1.36-.26 1.87l-.11.61v.23z" transform="translate(-242.42 -49.98)" opacity=".3"/><path class="cls-3" d="M293.17 94.51l.33-.64c.1-.19.2-.42.32-.67s.24-.51.34-.78a20.38 20.38 0 00.76-2.18l4 1.14A24.62 24.62 0 01298 94c-.12.32-.27.63-.4.93s-.26.57-.38.8l-.39.76z" transform="translate(-242.42 -49.98)" opacity=".2"/><path class="cls-3" d="M289.49 99.5l.51-.5c.15-.15.31-.35.49-.55l.27-.32.27-.34c.18-.23.36-.45.52-.67l.43-.6c.13-.18.22-.33.29-.44l.11-.17 3.48 2.21-.13.2c-.08.13-.19.31-.34.52l-.51.72c-.18.26-.4.53-.61.8l-.32.4-.32.38c-.21.24-.4.47-.58.66l-.59.62z" transform="translate(-242.42 -49.98)" opacity=".1"/><path class="cls-2" d="M252.88 84.2v1.48a20.19 20.19 0 00.71 4.13l.19.67.23.69c.08.24.17.48.27.72s.19.49.31.74a20.32 20.32 0 001.68 3.1 21.23 21.23 0 005.91 6 21.45 21.45 0 004.3 2.21 21 21 0 005 1.21c.22 0 .44 0 .67.06H275.55c.46 0 .92-.09 1.38-.15a20.83 20.83 0 002.76-.6c.46-.12.91-.29 1.37-.44l.67-.26.34-.13.33-.15a21.07 21.07 0 005-3.12 21.11 21.11 0 005.6-7.18 21.46 21.46 0 001.11-2.88 21.76 21.76 0 00.68-3 21.08 21.08 0 000-6.17 21.76 21.76 0 00-.68-3 21 21 0 00-2.61-5.54 21.15 21.15 0 00-4-4.49 21.07 21.07 0 00-5-3.12l-.33-.15-.34-.13-.67-.26c-.46-.15-.91-.32-1.37-.44a20.88 20.88 0 00-2.76-.6c-.46-.06-.92-.13-1.38-.15H272.25c-.22 0-.44 0-.67.06a21 21 0 00-5 1.21 21.45 21.45 0 00-4.3 2.21 21.23 21.23 0 00-5.91 6 20.32 20.32 0 00-1.68 3.1c-.12.25-.21.5-.31.74s-.19.48-.27.72l-.23.69-.19.67a20.19 20.19 0 00-.71 4.13V84.2h-.22v-.38-1.12a20.39 20.39 0 01.71-4.18l.19-.68.24-.7c.08-.24.17-.48.27-.73s.19-.5.31-.75a20.52 20.52 0 011.7-3.13 21.46 21.46 0 016-6 21.67 21.67 0 014.34-2.23 21.23 21.23 0 015.08-1.22c.22 0 .45 0 .67-.06H275.7c.47 0 .93.1 1.4.15a21.08 21.08 0 012.79.6c.47.12.92.29 1.38.44l.68.27.34.14.33.15a21.29 21.29 0 015 3.15 21.33 21.33 0 015.58 7.23 21.68 21.68 0 011.12 2.85 22 22 0 01.68 3.05 21.32 21.32 0 010 6.24 22 22 0 01-.68 3.05 21.2 21.2 0 01-2.64 5.6 21.35 21.35 0 01-4.06 4.54 21.28 21.28 0 01-5 3.15l-.33.15-.34.14-.68.27c-.46.15-.92.32-1.38.44a21.06 21.06 0 01-2.79.6c-.47.06-.93.13-1.4.15h-3.43c-.23 0-.45 0-.67-.06a21.23 21.23 0 01-5.08-1.22 21.67 21.67 0 01-4.34-2.23 21.45 21.45 0 01-6-6 20.52 20.52 0 01-1.7-3.13c-.12-.25-.21-.5-.31-.75s-.19-.49-.27-.73l-.24-.7-.19-.68a20.4 20.4 0 01-.71-4.18v-1.5h.22z" transform="translate(-242.42 -49.98)"/><path class="cls-2" d="M247.55 84.2v.47c0 .31 0 .78.06 1.38a25.5 25.5 0 00.89 5.18l.24.84.26.88c.1.3.22.6.34.9s.24.62.38.93a25.64 25.64 0 002.11 3.89A26.34 26.34 0 00271 110.42c.28 0 .55.06.83.08l.84.06h2.55l.86-.06c.58 0 1.15-.12 1.73-.19a26.14 26.14 0 003.47-.75c.58-.15 1.14-.36 1.71-.55l.85-.33.42-.17.42-.19a26.4 26.4 0 006.26-3.9 26.34 26.34 0 009.15-16.36 26.39 26.39 0 000-7.72A26.4 26.4 0 00290.9 64a26.39 26.39 0 00-6.26-3.9l-.42-.19-.42-.17-.8-.35c-.57-.19-1.14-.4-1.71-.55a26.19 26.19 0 00-3.47-.75c-.58-.07-1.16-.16-1.73-.19l-.86-.06h-2.55l-.84.06c-.28 0-.56 0-.83.08a26.35 26.35 0 00-6.3 1.51 26.4 26.4 0 00-12.79 10.24 25.63 25.63 0 00-2.11 3.89c-.14.31-.26.62-.38.93s-.24.6-.34.9l-.29.87-.24.84a25.5 25.5 0 00-.89 5.18c-.05.6 0 1.07-.06 1.38v.48h-.22v-.48c0-.31 0-.78.06-1.39a25.72 25.72 0 01.89-5.23l.24-.85.3-.88c.1-.3.22-.6.34-.91s.24-.62.39-.94a25.84 25.84 0 012.12-3.92 26.56 26.56 0 0119.25-11.85c.28 0 .56-.06.84-.08l.85-.06h2.57l.87.06c.58 0 1.16.12 1.75.19a26.39 26.39 0 013.5.76c.58.16 1.15.36 1.73.56l.85.33.43.17.42.19a26.62 26.62 0 016.21 3.94 26.56 26.56 0 019.23 16.5 26.64 26.64 0 010 7.79 27.29 27.29 0 01-.85 3.82 26.55 26.55 0 01-3.3 7 26.69 26.69 0 01-5.07 5.67 26.63 26.63 0 01-6.31 3.94l-.42.19-.43.17-.85.33c-.58.2-1.15.4-1.73.56a26.38 26.38 0 01-3.5.76c-.58.08-1.17.16-1.75.19l-.87.06h-2.57l-.85-.06c-.28 0-.56 0-.84-.08a26.56 26.56 0 01-6.36-1.53 26.61 26.61 0 01-12.9-10.33 25.83 25.83 0 01-2.12-3.92c-.15-.31-.26-.63-.39-.94s-.24-.61-.34-.91l-.3-.88-.24-.85a25.72 25.72 0 01-.89-5.23c-.05-.61 0-1.08-.06-1.39v-.47h.22z" transform="translate(-242.42 -49.98)"/><path class="cls-2" d="M270.38 70.47l.31-.07c.19 0 .43-.1.69-.14l.37-.07h.64l-.64-5.89H272.57l.63 9.25h-.38c-.23 0-.53.06-.83.12h-.22l-.21.05-.38.09-.36.1-2.7-8.91.79-.22zM287.91 82.61a2.81 2.81 0 010 .31v1.72l5.92.18v.81l-9.21-.63v-.1a2.37 2.37 0 000-.28v-.42-.45V82.55l9.17-1.41.1.81zM273.56 98.28h-.32l-.7-.05-.69-.09h-.32l-1 5.84-.4-.07-.4-.08 1.94-9.07h.37c.22 0 .52.08.82.12H273.69a3.64 3.64 0 00.38 0l.12 9.27h-.79z" transform="translate(-242.42 -49.98)"/><path class="cls-2" d="M271.14 64.3l.64 4.59h-.19l-.42.08c-.31 0-.61.12-.61.12l-1-4.52s.39-.1.79-.16l.55-.1zM293.92 84.2h-4.64v-.62V83l4.62-.37v.8zM271.15 104l.64-4.59.62.08h.62l-.27 4.63-.8-.06z" transform="translate(-242.42 -49.98)"/><path class="cls-12" d="M264 66.15l1.49 2.69-.24.14c-.15.09-.37.21-.63.38l-.41.26-.45.31c-.31.21-.62.47-.94.72s-.62.52-.88.79l-.39.38-.34.35c-.21.22-.37.41-.49.54l-.18.21.8.68-.08.1-.26.3c-.09.13-.22.27-.35.45s-.27.38-.42.6a16.34 16.34 0 00-2.68 7.36c0 .54-.09 1-.09 1.3v.5h-4.13v-.94c0-.3 0-.66.08-1.08 0-.21.05-.43.08-.66s.06-.48.11-.73a19.85 19.85 0 01.87-3.41 20.62 20.62 0 014.08-6.91 20.93 20.93 0 014.59-3.84c.25-.16.46-.27.6-.35zm-8.46 16a.52.52 0 10-.09 1 .53.53 0 00.56-.48.54.54 0 00-.51-.55zm.3-1.82a.51.51 0 00-.62.42.52.52 0 00.42.61.53.53 0 00.61-.42.52.52 0 00-.09-.38.53.53 0 00-.36-.26zm.48-1.78a.51.51 0 00-.66.35.52.52 0 00.36.65.53.53 0 00.65-.36.52.52 0 000-.39.53.53 0 00-.4-.29zm.65-1.73a.52.52 0 10-.39 1 .52.52 0 00.35-1.03zm.82-1.65a.52.52 0 10-.49.92.52.52 0 00.45-.95zm1-1.56a.52.52 0 10-.58.87.52.52 0 00.52-.91zM292.94 76.15l-2.84 1.2-.1-.25c-.08-.16-.17-.39-.31-.66s-.29-.59-.49-.91c-.1-.16-.19-.34-.29-.5l-.32-.51a17.41 17.41 0 00-1.34-1.77l-.25-.31-.22-.23-.19-.2-.75.73-.09-.09-.26-.26L285 72l-.56-.48a16.4 16.4 0 00-7-3.43c-.26-.07-.51-.09-.72-.14s-.4-.07-.56-.08l-.49-.06.11-1 .32-3.06.9.05 1.1.2.65.15.35.08.36.1c.25.07.51.14.77.23l.81.28.85.33.87.39a20.59 20.59 0 018.57 7.57c.29.43.51.85.72 1.21l.49 1zm-15-10.08a.52.52 0 10-1-.2.52.52 0 001 .2zm1.78.49a.52.52 0 10-1-.3.52.52 0 001 .3zm1.72.66a.52.52 0 10-1-.4.52.52 0 001 .4zm1.65.78a.52.52 0 10-.92-.49.52.52 0 00.92.49zm1.56 1a.52.52 0 10-.72.14.53.53 0 00.72-.14zm1.45 1.14a.52.52 0 10-.73.07.52.52 0 00.73-.03zM278.54 104.31l-.68-3 .27-.06c.17 0 .41-.11.71-.19a17.25 17.25 0 002.09-.75l.55-.25.52-.26c.34-.17.64-.35.9-.5s.47-.3.62-.39l.23-.15-.59-.87.4-.29c.13-.09.29-.2.46-.34l.27-.22.15-.12.15-.13a16.73 16.73 0 002.69-2.89l.31-.44.29-.45c.2-.29.36-.6.53-.89s.31-.59.44-.87.26-.54.35-.8.19-.48.27-.69l.18-.54c.05-.15.08-.27.11-.35v-.12l1 .29 3 .85-.07.24c0 .16-.12.38-.21.66l-.16.47-.21.55c-.15.39-.35.82-.56 1.29a21.29 21.29 0 01-1.79 3 20.72 20.72 0 01-5.82 5.51 21 21 0 01-3.12 1.62l-.69.27-.63.22c-.39.14-.75.23-1 .32l-.39.11-.29.07zm12.55-13a.52.52 0 10.37-1 .52.52 0 00-.37 1zM290.3 93a.52.52 0 10.47-.93.52.52 0 00-.47.93zm-1 1.58a.52.52 0 00.73-.16.53.53 0 00-.89-.56.53.53 0 00.21.69zM288.24 96a.52.52 0 10.64-.82.52.52 0 00-.64.82zM287 97.39a.52.52 0 10.72-.75.52.52 0 00-.72.75zm-1.37 1.23a.51.51 0 00.74.06.51.51 0 00.05-.74.53.53 0 00-.74-.06.52.52 0 00-.17.35.53.53 0 00.11.39z" transform="translate(-242.42 -49.98)"/><path class="cls-2" d="M257.23 102.39a1 1 0 00.7.27 1 1 0 00.67-.28l.31.27.42.33c.28.22.56.44.85.64.57.41 1.18.79 1.78 1.15a23.07 23.07 0 003.85 1.8 24 24 0 008.34 1.43 23.75 23.75 0 0015.54-6c.19-.16.36-.33.54-.5l.54-.51-.14-.14-.53.5c-.18.17-.35.34-.54.5a23.57 23.57 0 01-15.42 5.91 23.82 23.82 0 01-8.27-1.41 22.9 22.9 0 01-3.82-1.78c-.6-.36-1.2-.73-1.77-1.15-.29-.19-.57-.42-.85-.63l-.42-.32-.31-.27a1 1 0 00.18-.7 1 1 0 00-1.72-.58 1 1 0 00.07 1.47zM280.74 82.18a.23.23 0 00-.07-.16.23.23 0 00-.16-.06v-.22-.25c0-.09-.06-.32-.1-.49a5.38 5.38 0 00-.34-.93 5.61 5.61 0 00-1.14-1.61 5.55 5.55 0 00-3.55-1.58H275h.34a5.51 5.51 0 013.52 1.57 5.56 5.56 0 011.13 1.6 5.36 5.36 0 01.34.92c0 .16.08.32.1.48s0 .16 0 .24V82a.24.24 0 00-.14.09.23.23 0 00.19.38.23.23 0 00.26-.29z" transform="translate(-242.42 -49.98)"/><path class="cls-2" transform="rotate(-32.24 53.41 486.43)" d="M256.6 91.53h8.97v1h-8.97z"/><path class="cls-3" d="M277.27 85.07v-.13-.8l5.51.28v.73c0 .17 0 .35-.07.51V86.08l-.08.34zM276.8 86.16l.07-.12a1.84 1.84 0 00.15-.27 2.19 2.19 0 00.12-.28v-.13l5.21 1.82-.12.33a7.39 7.39 0 01-.32.71 6.66 6.66 0 01-.37.68l-.19.3zM276 87l.11-.08.22-.21.21-.22a.63.63 0 00.09-.11l4.32 3.43a3.16 3.16 0 01-.22.27c-.14.16-.33.37-.53.57l-.57.52-.28.22zM274.94 87.57h.26l.15-.07a2 2 0 00.27-.14l.12-.07 3 4.66-.3.18a7 7 0 01-.69.36l-.38.17-.37.04-.33.12zM273.81 87.75H274.61L275.9 93h-.09l-.25.05-.77.12h-1.26zM272.61 87.52h.13c.08 0 .19 0 .29.08a2 2 0 00.26.05h.11l-.3 5.51h-.43l-.44-.07H271.78c-.27-.07-.55-.14-.75-.21l-.33-.12zM271.58 86.94l.11.06a2.18 2.18 0 00.25.17 2.94 2.94 0 00.39.21l-2.36 5-.32-.16c-.19-.09-.43-.24-.67-.39a7.36 7.36 0 01-.64-.44l-.28-.21zM270.81 86l.07.12.18.24c.06.09.15.16.2.23l.07.08-3.87 3.94-.07-.07-.17-.19c-.14-.16-.34-.36-.51-.58s-.34-.45-.46-.63l-.19-.3zM270.37 84.94v.13a2 2 0 00.09.29 2.43 2.43 0 00.11.28l.06.12-4.95 2.45-.15-.32a7.74 7.74 0 01-.29-.72 6.87 6.87 0 01-.22-.75l-.02-.33zM270.32 83.71v.55-.06.3a.76.76 0 000 .14l-5.48.68v-.1-1.97zM270.66 82.63l-.06.12a2.43 2.43 0 00-.11.28 2 2 0 00-.09.29v.13l-5.4-1.14.08-.34a6.86 6.86 0 01.22-.75 7.72 7.72 0 01.29-.72l.15-.32zM271.35 81.67l-.07.08c-.05.06-.14.14-.2.23l-.18.24-.07.12-4.72-2.87.19-.3c.12-.18.29-.4.46-.63s.37-.43.51-.58l.17-.19.07-.07zM272.33 81a2.94 2.94 0 00-.39.21 2.19 2.19 0 00-.25.17l-.11.08-3.52-4.26.28-.21a7.32 7.32 0 01.64-.44c.24-.15.48-.3.67-.39L270 76zM273.46 80.67h-.14a2.13 2.13 0 00-.3.05c-.11 0-.22 0-.29.08h-.13l-1.92-5.18.33-.12c.2-.07.48-.14.75-.21a7.26 7.26 0 01.76-.14h.35z" transform="translate(-242.42 -49.98)"/><path class="cls-12" d="M270.71 84.21v.07-.06zM273.92 87.33zM273.84 81.07zM277 84.18v-.06-.14-.26-.35a3 3 0 00-.39-.88 3.2 3.2 0 00-.88-.89 3.28 3.28 0 00-.64-.32l-.18-.06h-.95a3 3 0 00-.41 0 3 3 0 00-.81.23 3.35 3.35 0 00-.74.46 3.52 3.52 0 00-.6.67 3.47 3.47 0 00-.39.82l-.06.22V84.52a1.24 1.24 0 000 .23 3.2 3.2 0 00.1.45 3.46 3.46 0 00.39.82 3.52 3.52 0 00.6.67 3.35 3.35 0 00.74.46 1.56 1.56 0 00.2.08 1.33 1.33 0 00.2.07l.2.05h.16a3.11 3.11 0 00.51 0h.34a3.24 3.24 0 001.38-.5 3.2 3.2 0 00.88-.89 3 3 0 00.39-.88v-.18-.23a.4.4 0 000-.08v-.39zm-.31.34a.35.35 0 010 .08v.35a2.71 2.71 0 01-.36.79 2.9 2.9 0 01-.8.81 2.94 2.94 0 01-1.25.46h-.3a2.71 2.71 0 01-.49 0h-.31a1.13 1.13 0 01-.18-.06 1.32 1.32 0 01-.18-.07 3.06 3.06 0 01-.67-.42 3.24 3.24 0 01-.54-.61 3.2 3.2 0 01-.35-.74 3 3 0 01-.09-.4 1.06 1.06 0 010-.21v-.92l.05-.2a3.2 3.2 0 01.35-.74A3.24 3.24 0 01272 82a3.05 3.05 0 01.67-.42 2.72 2.72 0 01.73-.21 2.75 2.75 0 01.37 0H274.64l.16.06a3 3 0 01.58.29 2.9 2.9 0 01.8.81 2.71 2.71 0 01.36.79v.45a1.08 1.08 0 010 .11v.52z" transform="translate(-242.42 -49.98)"/><path class="cls-12" d="M283.22 84.77V85c0 .14 0 .35-.06.54v.61c0 .04-.09.36-.14.56a9.28 9.28 0 01-1.2 2.65 9.39 9.39 0 01-6.81 4.19h-1.67l-.62-.06-.39-.06-.36-.07-.62-.16c-.21-.05-.41-.13-.61-.2s-.41-.14-.6-.24a9.61 9.61 0 01-2.23-1.39 9.41 9.41 0 01-3-4.48 9.52 9.52 0 01-.3-1.35 6.26 6.26 0 01-.08-.69v-.63a2.12 2.12 0 110-.26v-.58-.43q0-.22.06-.43v-.38q.08-.34.17-.67a9.41 9.41 0 013-4.48A9.62 9.62 0 01270 75.6a9.54 9.54 0 013.68-.81h1l.73.1h.35l.28.07.56.15.53.19a9.34 9.34 0 014.57 3.7 9.27 9.27 0 011.2 2.65q.1.35.1.6c0 .18.06.34.09.5l.06.43v1.02h.3v-.68-.37l-.06-.44c0-.16-.05-.33-.09-.51s-.09-.37-.14-.58a9.57 9.57 0 00-1.16-2.74 9.64 9.64 0 00-4.7-3.76l-.55-.19-.57-.15-.29-.07h-.36l-.76-.1h-1a9.84 9.84 0 00-3.79.83 9.9 9.9 0 00-2.3 1.43 9.71 9.71 0 00-3.05 4.62q-.1.34-.18.69v.4q0 .22-.07.44c0 .15 0 .3-.05.45v.48a1.77 1.77 0 100 .27V84.9a6.56 6.56 0 00.08.71 9.84 9.84 0 00.31 1.39 9.7 9.7 0 003.05 4.62 9.91 9.91 0 002.3 1.43c.2.1.41.17.62.25s.42.15.63.21l.64.16.38.07.4.06h2.35a9.69 9.69 0 007-4.32 9.57 9.57 0 001.24-2.73c.05-.2.1-.39.14-.58V85.58c0-.2 0-.39.07-.56s0-.11 0-.14V84.45h-.3z" transform="translate(-242.42 -49.98)"/><path class="cls-2" d="M271.55 84.2v.12-.12zM273.84 86.48zM275.69 84.56h-.11a1.7 1.7 0 000-.35 1.66 1.66 0 00-.23-.84l.1-.08.35-.29v-.06a1.08 1.08 0 00-.11-.16 2.19 2.19 0 00-.18-.21l-.12-.11-.06-.06h-.07a2.37 2.37 0 00-.51-.3l-.22-.1h-.07s-.07.14-.16.36l-.07.18H273.64l-.06-.23a3.52 3.52 0 00-.12-.38h-.52a2.84 2.84 0 00-.55.33l-.11.1a.59.59 0 00-.1.09c-.05.06-.11.11-.13.15v.06l.28.28.23.21a1.66 1.66 0 00-.2.48h-.72v.81a.74.74 0 000 .16 1.46 1.46 0 000 .15 2.15 2.15 0 00.1.26 1.11 1.11 0 00.09.17v.06l.36-.16.28-.14a1.68 1.68 0 00.36.4l-.14.25-.12.26v.1h.06a1 1 0 00.17.09l.12.06H274a1 1 0 00.2 0h.07V86.04v-.2a1.66 1.66 0 00.56-.2l.11.13.27.28h.06l.03-.05.08-.08a2.15 2.15 0 00.39-.46 2.49 2.49 0 00.25-.54v-.19s-.1-.13-.33-.17z" transform="translate(-242.42 -49.98)"/></svg>