<svg preserveAspectRatio="none" id="Layer_1" data-name="Layer 1" xmlns="http://www.w3.org/2000/svg" viewBox="0 0 1266.49 1266.49"><defs><style>.cls-1,.cls-4{opacity:0.5;}.cls-2,.cls-4{fill:#20ffff;}.cls-3{fill:none;stroke:#b2ffff;stroke-miterlimit:10;stroke-width:1.47px;}</style></defs><title>circle85</title><g class="cls-1"><rect class="cls-2" x="406.33" y="2406.28" width="17.7" height="68.39" transform="translate(-2378.47 906.41) rotate(-87.3)"/><rect class="cls-2" x="409.05" y="2371.51" width="17.7" height="68.39" transform="translate(-2355.41 724.4) rotate(-83.73)"/><rect class="cls-2" x="413.95" y="2337" width="17.7" height="68.39" transform="translate(-2322.11 547.21) rotate(-80.12)"/><rect class="cls-2" x="421.01" y="2302.87" width="17.7" height="68.39" transform="translate(-2279.33 375.88) rotate(-76.51)"/><rect class="cls-2" x="409.18" y="2240.79" width="17.7" height="112.37" transform="translate(-2236.56 186.46) rotate(-72.88)"/><rect class="cls-2" x="441.52" y="2236.29" width="17.7" height="68.4" transform="translate(-2168.75 53.49) rotate(-69.25)"/><rect class="cls-2" x="454.87" y="2204.1" width="17.7" height="68.39" transform="translate(-2102.82 -96.71) rotate(-65.63)"/><rect class="cls-2" x="470.26" y="2172.82" width="17.7" height="68.39" transform="translate(-2031.01 -239.3) rotate(-62.02)"/><rect class="cls-2" x="487.58" y="2142.58" width="17.7" height="68.39" transform="translate(-1954.2 -374.37) rotate(-58.41)"/><rect class="cls-2" x="488.78" y="2078.8" width="17.7" height="112.37" transform="translate(-1870.41 -522.23) rotate(-54.82)"/><rect class="cls-2" x="527.73" y="2085.61" width="17.7" height="68.39" transform="translate(-1788.54 -622.98) rotate(-51.23)"/><rect class="cls-2" x="550.41" y="2059.12" width="17.7" height="68.4" transform="translate(-1700.93 -737.27) rotate(-47.65)"/><rect class="cls-2" x="574.67" y="2034.08" width="17.7" height="68.39" transform="translate(-1610.74 -845.53) rotate(-44.08)"/><rect class="cls-2" x="600.48" y="2010.63" width="17.7" height="68.39" transform="translate(-1518.32 -948.21) rotate(-40.5)"/><rect class="cls-2" x="614.49" y="1949.27" width="17.7" height="112.37" transform="translate(-1415.92 -1057.37) rotate(-36.92)"/><rect class="cls-2" x="656.19" y="1968.75" width="17.7" height="68.39" transform="translate(-1327.4 -1139.07) rotate(-33.33)"/><rect class="cls-2" x="685.92" y="1950.54" width="17.7" height="68.39" transform="translate(-1229.08 -1228.1) rotate(-29.73)"/><rect class="cls-2" x="716.72" y="1934.22" width="17.7" height="68.39" transform="translate(-1128.79 -1313.41) rotate(-26.12)"/><rect class="cls-2" x="748.47" y="1919.84" width="17.7" height="68.4" transform="translate(-1026.45 -1395.28) rotate(-22.5)"/><rect class="cls-2" x="773.97" y="1864.77" width="17.7" height="112.37" transform="translate(-915.66 -1477.3) rotate(-18.87)"/><rect class="cls-2" x="814.4" y="1897.33" width="17.7" height="68.39" transform="translate(-815.32 -1549.33) rotate(-15.25)"/><rect class="cls-2" x="848.3" y="1889.23" width="17.7" height="68.39" transform="translate(-706.28 -1621.69) rotate(-11.62)"/><rect class="cls-2" x="882.64" y="1883.3" width="17.7" height="68.39" transform="matrix(0.99, -0.14, 0.14, 0.99, -594.9, -1690.85)"/><rect class="cls-2" x="917.3" y="1879.5" width="17.7" height="68.39" transform="translate(-481.17 -1756.7) rotate(-4.42)"/><rect class="cls-2" x="951.81" y="1833.95" width="17.7" height="112.37" transform="translate(-364.89 -1819.04) rotate(-0.87)"/><rect class="cls-2" x="961.68" y="1903.8" width="68.39" height="17.7" transform="translate(-1297.41 984.53) rotate(-87.33)"/><rect class="cls-2" x="996.44" y="1906.52" width="68.4" height="17.7" transform="translate(-1321.78 897.79) rotate(-83.76)"/><rect class="cls-2" x="1030.96" y="1911.39" width="68.4" height="17.7" transform="matrix(0.17, -0.99, 0.99, 0.17, -1345.24, 807.59)"/><rect class="cls-2" x="1065.09" y="1918.44" width="68.39" height="17.7" transform="translate(-1367.29 713.85) rotate(-76.54)"/><rect class="cls-2" x="1083.19" y="1906.58" width="112.37" height="17.7" transform="translate(-1362.63 607.85) rotate(-72.91)"/><rect class="cls-2" x="1131.68" y="1938.91" width="68.39" height="17.7" transform="translate(-1404.7 515.42) rotate(-69.28)"/><rect class="cls-2" x="1163.89" y="1952.23" width="68.39" height="17.7" transform="translate(-1418.8 410.64) rotate(-65.66)"/><rect class="cls-2" x="1195.16" y="1967.62" width="68.39" height="17.7" transform="translate(-1429.11 302.16) rotate(-62.05)"/><rect class="cls-2" x="1225.43" y="1984.91" width="68.39" height="17.7" transform="translate(-1434.85 189.91) rotate(-58.44)"/><rect class="cls-2" x="1245.22" y="1986.1" width="112.37" height="17.7" transform="translate(-1415.34 76.69) rotate(-54.85)"/><rect class="cls-2" x="1282.41" y="2025.04" width="68.39" height="17.7" transform="translate(-1430.08 -45.61) rotate(-51.26)"/><rect class="cls-2" x="1308.93" y="2047.68" width="68.39" height="17.7" transform="translate(-1418.1 -168.62) rotate(-47.68)"/><rect class="cls-2" x="1333.95" y="2071.97" width="68.39" height="17.7" transform="translate(-1398.83 -294.85) rotate(-44.11)"/><rect class="cls-2" x="1357.43" y="2097.75" width="68.39" height="17.7" transform="translate(-1371.37 -424.12) rotate(-40.53)"/><rect class="cls-2" x="1374.85" y="2111.72" width="112.37" height="17.7" transform="matrix(0.8, -0.6, 0.6, 0.8, -1323.59, -547.84)"/><rect class="cls-2" x="1399.31" y="2153.45" width="68.4" height="17.7" transform="translate(-1289.13 -689.37) rotate(-33.36)"/><rect class="cls-2" x="1417.58" y="2183.14" width="68.4" height="17.7" transform="translate(-1232.86 -824.19) rotate(-29.76)"/><rect class="cls-2" x="1433.9" y="2213.94" width="68.39" height="17.7" transform="translate(-1165.68 -959.32) rotate(-26.15)"/><rect class="cls-2" x="1448.27" y="2245.7" width="68.39" height="17.7" transform="translate(-1087.08 -1093.69) rotate(-22.53)"/><rect class="cls-2" x="1459.43" y="2271.17" width="112.37" height="17.7" transform="translate(-993.34 -1219.73) rotate(-18.91)"/><rect class="cls-2" x="1470.83" y="2311.61" width="68.39" height="17.7" transform="translate(-894.61 -1355.21) rotate(-15.28)"/><rect class="cls-2" x="1478.98" y="2345.49" width="68.39" height="17.7" transform="translate(-780.74 -1479.6) rotate(-11.65)"/><rect class="cls-2" x="1484.91" y="2379.84" width="68.4" height="17.7" transform="translate(-655.62 -1597.77) rotate(-8.04)"/><rect class="cls-2" x="1488.73" y="2414.5" width="68.39" height="17.7" transform="matrix(1, -0.08, 0.08, 1, -519.96, -1708.21)"/><rect class="cls-2" x="1490.33" y="2448.99" width="112.37" height="17.7" transform="translate(-374.74 -1809.24) rotate(-0.9)"/><rect class="cls-2" x="1515.17" y="2458.87" width="17.7" height="68.39" transform="translate(-1372.9 2066.87) rotate(-87.36)"/><rect class="cls-2" x="1512.47" y="2493.63" width="17.7" height="68.4" transform="translate(-1492.6 1932.9) rotate(-83.79)"/><rect class="cls-2" x="1507.62" y="2528.16" width="17.7" height="68.4" transform="translate(-1603.18 1786.12) rotate(-80.19)"/><rect class="cls-2" x="1500.59" y="2562.29" width="17.7" height="68.4" transform="translate(-1702.98 1627.71) rotate(-76.57)"/><rect class="cls-2" x="1512.46" y="2580.38" width="17.7" height="112.37" transform="translate(-1781.86 1483.72) rotate(-72.94)"/><rect class="cls-2" x="1480.15" y="2628.89" width="17.7" height="68.39" transform="translate(-1864.71 1281.59) rotate(-69.31)"/><rect class="cls-2" x="1466.85" y="2661.11" width="17.7" height="68.39" transform="matrix(0.41, -0.91, 0.91, 0.41, -1924.44, 1096.89)"/><rect class="cls-2" x="1451.48" y="2692.39" width="17.7" height="68.39" transform="translate(-1969 906.34) rotate(-62.08)"/><rect class="cls-2" x="1434.21" y="2722.67" width="17.7" height="68.39" transform="translate(-1997.79 711.59) rotate(-58.47)"/><rect class="cls-2" x="1433.03" y="2742.46" width="17.7" height="112.37" transform="translate(-2013.1 534.2) rotate(-54.88)"/><rect class="cls-2" x="1394.1" y="2779.67" width="17.7" height="68.39" transform="translate(-2006.54 315.35) rotate(-51.3)"/><rect class="cls-2" x="1371.49" y="2806.21" width="17.7" height="68.39" transform="translate(-1986.07 116.71) rotate(-47.72)"/><rect class="cls-2" x="1347.21" y="2831.23" width="17.7" height="68.4" transform="translate(-1948.92 -80.47) rotate(-44.14)"/><rect class="cls-2" x="1321.44" y="2854.73" width="17.7" height="68.4" transform="translate(-1895.2 -274.69) rotate(-40.56)"/><rect class="cls-2" x="1307.49" y="2872.15" width="17.7" height="112.37" transform="translate(-1833 -453.04) rotate(-36.98)"/><rect class="cls-2" x="1265.76" y="2896.64" width="17.7" height="68.39" transform="translate(-1738.86 -648.67) rotate(-33.39)"/><rect class="cls-2" x="1236.08" y="2914.93" width="17.7" height="68.39" transform="translate(-1637.02 -825.58) rotate(-29.79)"/><rect class="cls-2" x="1205.28" y="2931.26" width="17.7" height="68.39" transform="translate(-1520.16 -993.89) rotate(-26.18)"/><rect class="cls-2" x="1173.54" y="2945.65" width="17.7" height="68.39" transform="matrix(0.92, -0.38, 0.38, 0.92, -1389.17, -1152.08)"/><rect class="cls-2" x="1148.08" y="2956.82" width="17.7" height="112.36" transform="translate(-1251.56 -1295.26) rotate(-18.94)"/><rect class="cls-2" x="1107.64" y="2968.25" width="17.7" height="68.4" transform="translate(-1089.48 -1432.47) rotate(-15.31)"/><rect class="cls-2" x="1073.76" y="2976.41" width="17.7" height="68.4" transform="translate(-923.68 -1552.15) rotate(-11.69)"/><rect class="cls-2" x="1039.41" y="2982.36" width="17.7" height="68.39" transform="translate(-749.65 -1656.68) rotate(-8.07)"/><rect class="cls-2" x="1004.76" y="2986.2" width="17.7" height="68.39" transform="translate(-569.43 -1745.31) rotate(-4.49)"/><rect class="cls-2" x="970.28" y="2987.82" width="17.7" height="112.37" transform="matrix(1, -0.02, 0.02, 1, -385.62, -1817.53)"/><rect class="cls-2" x="909.69" y="3012.67" width="68.4" height="17.7" transform="translate(-2453.76 1993.22) rotate(-87.39)"/><rect class="cls-2" x="874.92" y="3010" width="68.39" height="17.7" transform="translate(-2526.39 1763.82) rotate(-83.82)"/><rect class="cls-2" x="840.4" y="3005.16" width="68.4" height="17.7" transform="matrix(0.17, -0.99, 0.99, 0.17, -2580.53, 1529.93)"/><rect class="cls-2" x="806.26" y="2998.16" width="68.4" height="17.7" transform="translate(-2615.79 1293.96) rotate(-76.6)"/><rect class="cls-2" x="744.2" y="3010.05" width="112.37" height="17.7" transform="translate(-2656.88 1066.38) rotate(-72.97)"/><rect class="cls-2" x="739.65" y="2977.76" width="68.39" height="17.7" transform="translate(-2630.08 823.37) rotate(-69.34)"/><rect class="cls-2" x="707.43" y="2964.47" width="68.39" height="17.7" transform="translate(-2610.01 593.09) rotate(-65.72)"/><rect class="cls-2" x="676.14" y="2949.11" width="68.39" height="17.7" transform="translate(-2572.67 368.33) rotate(-62.11)"/><rect class="cls-2" x="645.85" y="2931.86" width="68.39" height="17.7" transform="translate(-2519.05 150.43) rotate(-58.5)"/><rect class="cls-2" x="582.09" y="2930.71" width="112.37" height="17.7" transform="translate(-2470.27 -61.84) rotate(-54.91)"/><rect class="cls-2" x="588.83" y="2891.79" width="68.39" height="17.7" transform="translate(-2367.19 -259.37) rotate(-51.33)"/><rect class="cls-2" x="562.27" y="2869.19" width="68.39" height="17.7" transform="translate(-2271.22 -449.47) rotate(-47.75)"/><rect class="cls-2" x="537.23" y="2844.92" width="68.4" height="17.7" transform="translate(-2163.2 -628.9) rotate(-44.17)"/><rect class="cls-2" x="513.72" y="2819.17" width="68.39" height="17.7" transform="matrix(0.76, -0.65, 0.65, 0.76, -2044.55, -796.82)"/><rect class="cls-2" x="452.33" y="2805.23" width="112.36" height="17.7" transform="translate(-1927.8 -960.81) rotate(-37.01)"/><rect class="cls-2" x="471.78" y="2763.5" width="68.4" height="17.7" transform="translate(-1779.62 -1096.74) rotate(-33.42)"/><rect class="cls-2" x="453.48" y="2733.83" width="68.39" height="17.7" transform="translate(-1635.66 -1228.14) rotate(-29.82)"/><rect class="cls-2" x="437.13" y="2703.05" width="68.4" height="17.7" transform="translate(-1485.73 -1346.74) rotate(-26.21)"/><rect class="cls-2" x="422.72" y="2671.31" width="68.4" height="17.7" transform="translate(-1330.99 -1452.57) rotate(-22.59)"/><rect class="cls-2" x="367.57" y="2645.88" width="112.37" height="17.7" transform="translate(-1176.3 -1551.89) rotate(-18.97)"/><rect class="cls-2" x="400.08" y="2605.43" width="68.4" height="17.7" transform="translate(-1012.5 -1625.78) rotate(-15.34)"/><rect class="cls-2" x="391.91" y="2571.55" width="68.39" height="17.7" transform="translate(-851.49 -1693.52) rotate(-11.72)"/><rect class="cls-2" x="385.94" y="2537.21" width="68.39" height="17.7" transform="translate(-691.2 -1749.13) rotate(-8.11)"/><rect class="cls-2" x="382.08" y="2502.56" width="68.39" height="17.7" transform="matrix(1, -0.08, 0.08, 1, -532.82, -1793.24)"/><rect class="cls-2" x="336.47" y="2468.09" width="112.37" height="17.7" transform="matrix(1, -0.02, 0.02, 1, -377.83, -1826.89)"/></g><g class="cls-1"><path class="cls-3" d="M392.53,2467.07" transform="translate(-336.33 -1833.83)"/></g><path class="cls-4" d="M1354.21,2387.72a390.67,390.67,0,0,0-22.9-73.53,393.62,393.62,0,0,0-86-126.76,392.49,392.49,0,0,0-428.6-82.09,393.62,393.62,0,0,0-126.76,86A392.49,392.49,0,0,0,607.85,2620a393.62,393.62,0,0,0,86,126.76,392.49,392.49,0,0,0,428.6,82.09,393.62,393.62,0,0,0,126.76-86A393,393,0,0,0,1354.21,2387.72Zm-17.08,149.75a375.05,375.05,0,0,1-14.14,52.65q-5.74.49-11.44,0.86-12.72.82-25.21,1c-0.66,1.93-1.53,3.77-2.32,5.65l-2.4,5.61-2.4,5.61-2.67,5.49-2.67,5.49c-0.91,1.82-1.72,3.69-2.74,5.45l-5.87,10.7c-0.5.89-.95,1.8-1.49,2.66l-1.6,2.6-3.19,5.2-3.18,5.2c-1.09,1.72-2.28,3.37-3.41,5.05-2.31,3.34-4.55,6.75-6.91,10.05l-7.37,9.72-1.84,2.43c-0.61.81-1.3,1.56-1.94,2.35l-3.92,4.67c-2.63,3.1-5.15,6.3-8,9.21l-8.29,8.95c-2.87,2.88-5.82,5.69-8.72,8.54-1.47,1.41-2.89,2.87-4.39,4.24l-4.58,4-4.58,4c-1.54,1.33-3,2.74-4.64,4l-9.56,7.6-2.39,1.9c-0.81.62-1.65,1.19-2.48,1.79l-5,3.55-5,3.56c-0.83.58-1.64,1.21-2.5,1.76l-2.57,1.65-10.28,6.61c-1.69,1.15-3.5,2.08-5.26,3.11l-5.3,3-5.3,3c-1.78,1-3.62,1.86-5.43,2.79l-10.89,5.52-11.15,5-2.79,1.25-1.39.62-1.42.55-5.69,2.2-5.69,2.21-2.84,1.11-2.9,1-11.58,3.83-1.45.48-1.47.41-2.94.81-5.88,1.63-5.88,1.63-6,1.33-6,1.34c-2,.42-4,1-6,1.26l-12,2.08c-1,.17-2,0.37-3,0.5l-3,.37-6.06.75-6.06.75c-2,.23-4.06.32-6.08,0.49-4.06.28-8.11,0.66-12.18,0.86q-4.22,11.74-9.09,23.51-2.18,5.28-4.5,10.56a373.43,373.43,0,0,1-262.85-105.12c4.18-11.58,8.84-23,13.75-34-2.91-2.85-5.54-6-8.23-9l-4-4.58-2-2.29c-0.65-.78-1.27-1.59-1.91-2.38l-7.61-9.56c-1.31-1.56-2.47-3.24-3.65-4.9l-3.56-5-3.56-5-0.89-1.24L687,2657l-1.65-2.57-6.61-10.28c-2.09-3.5-4.06-7.06-6.1-10.58l-3-5.3-2.76-5.45a338,338,0,0,1-31.78-91.93l-2.09-12-0.26-1.5-0.19-1.51-0.37-3-0.75-6.06-0.74-6.06-0.45-6.09-0.45-6.09c-0.14-2-.35-4.06-0.36-6.09l-0.32-12.2c-0.1-2,0-4.07,0-6.1l0.14-6.1,0.13-6.1,0.42-6.09,0.43-6.09c0.16-2,.22-4.07.51-6.08l1.43-12.13c0.19-2,.55-4,0.89-6l1-6,1-6c0.39-2,.86-4,1.28-6l1.29-6,0.64-3,0.32-1.49,0.4-1.47,3.15-11.8c0.27-1,.5-2,0.81-2.94l0.93-2.91,1.86-5.82,1.85-5.82c0.65-1.93,1.41-3.82,2.11-5.73l2.13-5.72,1.06-2.86c0.35-1,.7-1.91,1.12-2.84q-8.9-8.74-17.57-18.09-3.87-4.18-7.68-8.48a371.54,371.54,0,0,1,74.31-108.2,375.16,375.16,0,0,1,120.83-82,371,371,0,0,1,109-27.7q2.83,5,5.55,10,6.06,11.22,11.48,22.48c2-.2,4.06-0.21,6.1-0.26l6.1-.16,6.1-.17c2,0,4.07.09,6.1,0.12l6.1,0.13,3.05,0.06,1.53,0,1.52,0.11,12.18,0.85c1,0.08,2,.11,3,0.23l3,0.36,6.06,0.72,6.07,0.71c2,0.28,4,.66,6,1l6,1,3,0.5c1,0.16,2,.33,3,0.57l11.94,2.58c1,0.22,2,.41,3,0.66l2.95,0.79,5.9,1.58,5.9,1.57c2,0.55,3.88,1.22,5.83,1.82,3.87,1.26,7.78,2.42,11.62,3.76l11.44,4.26,2.86,1.06,2.8,1.21,5.61,2.41,5.61,2.4c1.88,0.79,3.67,1.76,5.51,2.63,3.65,1.8,7.34,3.53,11,5.37l10.7,5.87,2.68,1.46c0.89,0.49,1.74,1.05,2.61,1.58l5.2,3.19c3.46,2.14,7,4.18,10.29,6.56l10.08,6.88,9.72,7.37a326.57,326.57,0,0,1,36.26,32.59l4.27,4.36c1.37,1.5,2.69,3,4,4.57,2.68,3.07,5.41,6.08,8,9.18,5,6.42,10.31,12.62,14.89,19.36l3.56,5,1.78,2.48c0.6,0.82,1.11,1.71,1.67,2.56l6.6,10.28c0.55,0.86,1.11,1.71,1.64,2.58l1.51,2.65,3,5.3c2,3.54,4.13,7,5.88,10.7,12-1.09,24.32-1.83,36.64-2.07,2.18,4.61,4.29,9.26,6.28,14A373.49,373.49,0,0,1,1337.13,2537.47Z" transform="translate(-336.33 -1833.83)"/><path class="cls-2" d="M1429.94,2375.51a469.12,469.12,0,0,0-368.81-368.81,470.51,470.51,0,0,0-183.12,0,469.12,469.12,0,0,0-368.81,368.81,470.51,470.51,0,0,0,0,183.12A469.12,469.12,0,0,0,878,2927.44a470.5,470.5,0,0,0,183.12,0,469.12,469.12,0,0,0,368.81-368.81A470.51,470.51,0,0,0,1429.94,2375.51Zm-137,414.93a456.33,456.33,0,0,1-229.67,124.26c-7.54-5.92-14.85-12.18-21.83-18.34l-3.84.69c-0.64.11-1.28,0.24-1.92,0.33l-1.94.24-7.74,1-7.74,1-3.87.49c-1.29.13-2.59,0.2-3.89,0.31l-15.57,1.18c-2.59.26-5.19,0.28-7.8,0.35l-7.81.2-7.81.2-2,.05-2-.05-3.9-.1-15.61-.39c-5.19-.3-10.38-0.77-15.57-1.14l-7.78-.6-7.74-1A432.15,432.15,0,0,1,797,2866.73l-14.22-6.43-1.78-.8-1.74-.89-3.47-1.78-6.94-3.56-6.94-3.56-6.76-3.89-6.76-3.89c-2.25-1.31-4.54-2.54-6.7-4l-13.14-8.42c-2.22-1.36-4.31-2.91-6.43-4.42l-6.36-4.52-6.36-4.52-6.14-4.82-6.14-4.82c-2-1.63-4.14-3.15-6.07-4.9l-11.8-10.22c-1-.86-2-1.67-2.92-2.58l-2.82-2.69-5.65-5.39-5.65-5.38c-1.83-1.85-3.6-3.76-5.4-5.63l-5.39-5.65-2.69-2.82-1.35-1.41-1.28-1.48-10.22-11.8c-0.84-1-1.73-1.95-2.53-3l-2.41-3.07-4.82-6.14-4.83-6.13c-1.57-2.07-3-4.23-4.55-6.34l-4.52-6.36-2.26-3.18c-0.76-1.05-1.51-2.11-2.2-3.22q-9.6-.9-19.43-2.16c-2.93-.37-5.88-0.78-8.84-1.21A454.9,454.9,0,0,1,521,2556.3a458.46,458.46,0,0,1,0-178.44A454.59,454.59,0,0,1,567.8,2248.6c2.92-.57,5.84-1.12,8.74-1.64q9.77-1.75,19.32-3.13c1.25-2.28,2.69-4.45,4.09-6.64l4.21-6.57,4.21-6.57c1.48-2.14,3-4.24,4.51-6.37l4.52-6.36,2.26-3.18,1.13-1.59L622,2205l9.64-12.27c0.81-1,1.58-2.07,2.43-3l2.56-2.95,5.11-5.9,5.11-5.9c1.74-1.93,3.58-3.78,5.36-5.67l5.39-5.65,2.69-2.83,1.35-1.41c0.46-.46.94-0.9,1.41-1.35l11.3-10.77c0.95-.89,1.87-1.81,2.84-2.68l3-2.55,5.9-5.11,5.9-5.11c2-1.68,4.08-3.23,6.11-4.86l6.14-4.82,3.07-2.41c1-.81,2-1.62,3.11-2.35l12.72-9,3.18-2.26,3.29-2.1,6.57-4.21,6.57-4.21c1.08-.73,2.22-1.35,3.35-2l3.38-1.94c4.52-2.57,9-5.23,13.55-7.74l13.89-7.11,3.47-1.78c1.16-.59,2.36-1.08,3.54-1.63l7.11-3.21c4.74-2.13,9.44-4.38,14.32-6.18l14.51-5.73,14.78-5c19.8-6.31,40-11.67,60.52-15l7.68-1.38c2.57-.38,5.16-0.67,7.74-1,5.16-.63,10.32-1.36,15.49-1.92l15.57-1.18,3.89-.3c0.65,0,1.3-.11,1.95-0.14l2,0,7.81-.19,7.81-.2,3.9-.1c1.3,0,2.6,0,3.9.07l15.61,0.39c1.3,0,2.6,0,3.9.11l3.89,0.3,7.78,0.59c5.19,0.41,10.39.68,15.54,1.46,6.66-6.5,13.64-13.13,20.87-19.43q9.24,1.44,18.42,3.25a457.24,457.24,0,0,1,277.69,175.6q-1.07,4.36-2.17,8.67-2.49,9.6-5.23,18.86c1.56,2.09,2.89,4.32,4.31,6.5l4.21,6.57,4.22,6.57,3.89,6.76,3.89,6.76c1.27,2.27,2.66,4.47,3.79,6.82l7.11,13.89c0.58,1.16,1.22,2.3,1.75,3.49l1.6,3.56,3.21,7.11,3.22,7.11c1,2.38,1.93,4.83,2.9,7.24l2.86,7.26,1.43,3.63c0.47,1.21,1,2.41,1.38,3.65l5,14.78,1.25,3.69c0.42,1.23.72,2.5,1.09,3.74l2.13,7.5c1.39,5,3,10,4,15.07l3.51,15.2c1,5.1,1.84,10.24,2.78,15.35,0.44,2.56,1,5.11,1.33,7.69l1,7.74,1,7.74c0.3,2.58.74,5.15,0.87,7.75l1.18,15.57,0.3,3.89c0.07,1.3.07,2.6,0.12,3.9l0.19,7.81,0.2,7.81c0,1.3.1,2.6,0.07,3.9l-0.1,3.9-0.39,15.61c0,2.61-.31,5.19-0.48,7.79l-0.59,7.78-0.59,7.78c-0.22,2.59-.63,5.16-0.94,7.75l-2,15.48-2.75,15.36-0.68,3.84-0.35,1.92-0.44,1.9-1.76,7.6-1.75,7.6-0.87,3.8-1.07,3.75-4.26,15-0.53,1.88-0.62,1.85-1.25,3.69-2.5,7.39-2.5,7.39-2.87,7.26-2.86,7.26-1.43,3.63c-0.24.6-.46,1.21-0.72,1.81l-0.8,1.78-6.43,14.22c-0.55,1.18-1,2.38-1.63,3.54l-1.78,3.47-3.56,6.94-3.55,6.95c-1.21,2.3-2.57,4.52-3.85,6.79l-3.89,6.76-1.94,3.38c-0.65,1.12-1.27,2.27-2,3.35q3.19,9.09,6.15,18.55,1.33,4.24,2.61,8.56A459,459,0,0,1,1292.94,2790.44Z" transform="translate(-336.33 -1833.83)"/></svg>