<svg preserveAspectRatio="none" id="Layer_1" data-name="Layer 1" xmlns="http://www.w3.org/2000/svg" xmlns:xlink="http://www.w3.org/1999/xlink" viewBox="0 0 108.67 108.67"><defs><style>.cls-1{fill:#2e2855;}.cls-2{fill:url(#linear-gradient);}.cls-3{fill:#3d6db8;}.cls-4{fill:#3ee497;}</style><linearGradient id="linear-gradient" x1="485.65" y1="238.26" x2="591.31" y2="238.26" gradientUnits="userSpaceOnUse"><stop offset="0.02" stop-color="#dd697d"/><stop offset="0.98" stop-color="#a13246"/></linearGradient></defs><title>circle6</title><path class="cls-1" d="M538.48,294.33A54.33,54.33,0,1,1,592.81,240,54.4,54.4,0,0,1,538.48,294.33Zm0-100.67A46.33,46.33,0,1,0,584.81,240,46.39,46.39,0,0,0,538.48,193.67Z" transform="translate(-484.15 -185.67)"/><path class="cls-2" d="M519.6,289.36a52.84,52.84,0,0,1,18.88-102.19v5a47.84,47.84,0,0,0-17.1,92.52Zm39.45-.68-1.95-4.61A47.77,47.77,0,0,0,586.31,240h5A52.76,52.76,0,0,1,559,288.68Zm23-68.52a48.06,48.06,0,0,0-15.51-18.93l2.93-4a53.07,53.07,0,0,1,17.13,20.9Z" transform="translate(-484.15 -185.67)"/><path class="cls-3" d="M538.48,280.33A40.33,40.33,0,1,1,578.81,240,40.38,40.38,0,0,1,538.48,280.33Zm0-76.67A36.33,36.33,0,1,0,574.81,240,36.37,36.37,0,0,0,538.48,203.67Z" transform="translate(-484.15 -185.67)"/><path class="cls-1" d="M538.48,273.33A33.33,33.33,0,1,1,571.81,240,33.37,33.37,0,0,1,538.48,273.33Zm0-64.67A31.33,31.33,0,1,0,569.81,240,31.37,31.37,0,0,0,538.48,208.67Z" transform="translate(-484.15 -185.67)"/><path class="cls-4" d="M538.48,273.33v-2a31.12,31.12,0,0,0,11.58-2.22,31.5,31.5,0,0,0,18.27-19.58l1.9,0.61A33.5,33.5,0,0,1,550.8,271,33.11,33.11,0,0,1,538.48,273.33Zm-19.08-6a33.36,33.36,0,0,1-9.38-10l1.71-1a31.37,31.37,0,0,0,8.82,9.39Zm-11.29-35-1.94-.49a33.56,33.56,0,0,1,22.49-23.64l0.59,1.91A31.55,31.55,0,0,0,508.11,232.28Zm59.34-4.22a31.68,31.68,0,0,0-7.68-11l1.36-1.47a33.67,33.67,0,0,1,8.17,11.73Z" transform="translate(-484.15 -185.67)"/></svg>