<svg preserveAspectRatio="none" id="Layer_1" data-name="Layer 1" xmlns="http://www.w3.org/2000/svg" viewBox="0 0 71.22 68.26"><defs><style>.cls-2{fill:#065977}.cls-10,.cls-11,.cls-12,.cls-13,.cls-4,.cls-5,.cls-6,.cls-7,.cls-8,.cls-9{fill:#feb113}.cls-4{opacity:.1}.cls-5{opacity:.2}.cls-6{opacity:.3}.cls-7{opacity:.4}.cls-8{opacity:.5}.cls-9{opacity:.6}.cls-10{opacity:.7}.cls-11{opacity:.8}.cls-12{opacity:.9}</style></defs><path d="M405.51 345.6v-.05-.06-1.09V343.56l-.12-.92v-.07l-.1-.55-.06-.37v-.23c0-.12-.06-.24-.08-.36v-.07l-.16-.71-.07-.25q-.07-.26-.14-.51l-.11-.38-.13-.37-.06-.17v-.11l-.15-.46-.29-.73c0-.12-.09-.24-.14-.36l-.16-.35c-.11-.23-.21-.47-.32-.7l-.18-.35-.19-.36c-.06-.12-.12-.23-.19-.35a20.07 20.07 0 00-1.43-2.27c-.47-.67-.92-1.22-1.29-1.66l-.23-.27-.07-.08-.14-.17-.13-.14-.5-.53a24 24 0 00-2.88-2.48l-.5-.35-.2-.14-.17-.11-.32-.2-.48.75.31.19.17.11.19.14.48.34a23 23 0 012.77 2.39l.15.15-2.08 2 .15.16.18.18.11.12.12.14a19.13 19.13 0 011.34 1.69c.27.36.52.77.8 1.2l.39.68c.07.11.13.24.19.36l.19.37a19.76 19.76 0 011.27 3.23c.17.57.3 1.14.42 1.71l.15.85q0 .43.11.84a22.16 22.16 0 01.09 3.05V348.3c-.05.36-.08.67-.12.93-.1.51-.14.8-.14.8l2.84.57v.21c-.09.37-.16.72-.25 1.06l-.27.94c-.09.29-.19.56-.27.81s-.08.25-.13.36l-.13.32-.21.55c-.06.16-.13.29-.18.4l-.15.33.8.37.16-.34c0-.11.12-.25.18-.41l.22-.57.13-.34c0-.12.08-.24.13-.37s.19-.54.28-.85l.28-1c.09-.35.16-.72.26-1.1v-.21l.16-.91v-.18c0-.17 0-.36.07-.56s0-.3.06-.46 0-.09 0-.13v-.07c0-.23 0-.45.05-.69v-.13-.39-.5c-.27-.38-.27-.74-.28-1.14z" transform="translate(-344.91 -309.9)" fill="#08ade5"/><path class="cls-2" d="M367.65 363.39l.07.06.21.17.34.27.22.17.25.19a23.2 23.2 0 003.11 1.92l.51.27.55.25.28.13.14.06.15.06.6.23.3.12.31.1.64.22.67.19.34.1h.34a22.53 22.53 0 005.88.65h.76l.75-.06h.75l.74-.09.73-.13.36-.06.36-.08.71-.16.69-.19.34-.1.33-.11.65-.22.32-.12.31-.12.61-.24.58-.26.29-.13.28-.14.54-.27.26-.14.25-.14c.33-.19.65-.36.93-.56l.42-.27.2-.13.19-.14.7-.5.57-.45.25-.19.21-.18.36-.37.28-.24.59.66-.29.25-.34.3-.22.19-.26.2-.6.47-.73.52-.2.14-.21.14-.44.28c-.3.2-.63.38-1 .58l-.26.15-.27.14-.56.28-.29.14-.3.13-.61.28-.63.25-.32.13-.33.12-.68.23-.35.11-.35.1-.71.2-.73.17-.37.09-.38.07-.76.14-.77.1-.39.05h-.39l-.78.06h-.79a23.44 23.44 0 01-6.11-.68h-.36l-.35-.1-.69-.2-.66-.23-.33-.11-.32-.13-.62-.24-.15-.06-.15-.07-.29-.13-.57-.26-.54-.27a24 24 0 01-3.23-2l-.26-.2-.23-.18-.36-.28-.22-.18-.07-.06zM382 323.6h-1.38l-.9.07-1.06.13-1.17.21-.61.14c-.21 0-.42.09-.63.15-.42.12-.85.23-1.26.38l-.63.21-.61.24c-.41.15-.79.34-1.17.51l-.28.13-.3.23-.52.27c-.17.08-.33.18-.48.27l-.45.26c-.15.08-.28.17-.41.25l-.36.23-.32.2-.26.19-.5.35-.53-.71.52-.37.27-.19.33-.21.38-.24c.13-.09.27-.18.42-.26l.47-.27c.16-.09.32-.19.5-.28l.54-.28.28-.14.29-.13c.39-.17.79-.37 1.22-.53l.63-.25.65-.22c.43-.16.88-.27 1.31-.4.22-.07.44-.11.65-.16l.64-.15 1.22-.22 1.11-.14.94-.07h1.35v.88z" transform="translate(-344.91 -309.9)"/><path class="cls-2" d="M354.7 357l.22.56c.08.18.18.4.29.66l.19.42c.07.15.14.31.22.47a28.46 28.46 0 003.21 5.13 28.83 28.83 0 002.69 3l.79.75.85.73.22.18.22.18.45.35.46.36.48.34c.32.23.64.46 1 .67l.5.32c.17.11.34.22.51.32l1 .56 1.09.56a29.91 29.91 0 004.64 1.8l.6.17.3.09.3.07 1.27.31 1.23.22c.2 0 .41.06.61.09l.61.08c.41.06.82.08 1.22.12H383.47A31.72 31.72 0 00388 375l1-.23.51-.12.49-.14 1-.28.91-.31.44-.15.42-.17.82-.32.76-.34.36-.16.35-.17.66-.34.31-.16.3-.16 1.05-.6.82-.52c.24-.15.44-.28.6-.4l.49-.35 2.64 3.69.34-.24c.22-.15.53-.4.93-.71l.66-.52.75-.65.41-.36.42-.4.44-.42c.15-.14.31-.29.45-.45a34.26 34.26 0 007.08-10.49 33.66 33.66 0 002-6.48 34.35 34.35 0 00.69-5.88v-.64-1.73-.98l-.1-.82V342.33l-.06-.5-.05-.41-4.8.66v.38l.06.44V343.47l.05.68V348.21l-.06.76V349.65c-.06.42-.09.77-.13 1l-.07.38-1.78-.3-.06.34c0 .22-.09.53-.18.9l-.14.59-.07.32c0 .11-.06.22-.09.34l-.2.7c0 .12-.07.24-.1.36l-.12.36-.24.71-.06.18-.07.17-.13.33-.25.63c-.08.2-.17.38-.25.56-.16.34-.28.63-.38.83l-.16.31-.95-.47-.11.22c-.07.14-.17.35-.32.61l-.53.93c0 .09-.11.18-.17.27l-.18.28-.39.61-.46.65-.24.34-.26.34-.55.7-.61.71c-.2.24-.43.47-.66.71s-.45.48-.69.71-.48.47-.73.69l-.77.66a28.91 28.91 0 01-3.23 2.31c-.55.31-1.07.63-1.6.89l-.38.2-.37.18-.72.33-.34.15-.33.13-.61.24c-.19.08-.37.14-.54.2l-.46.16-.37.13-.28.08-.23.07.3 1-.44.12-.24.07-.29.07-.72.17a26.93 26.93 0 01-4.53.63 27.62 27.62 0 01-6.45-.42l-.44-.08-.44-.1-.88-.2-.89-.25-.45-.13-.44-.15-.89-.3-.88-.35-.44-.18-.43-.19-.43-.19-.43-.2-.84-.43-.21-.11-.21-.12-.41-.24-.41-.23c-.14-.08-.27-.17-.4-.25l-.79-.51-.76-.54-.37-.27-.36-.28c-.24-.19-.48-.37-.71-.56l-.68-.59c-.23-.19-.44-.4-.65-.6s-.42-.4-.62-.6l-.58-.61-.28-.3-.27-.31-.53-.61-.48-.61-.24-.3-.12-.15-.11-.15-.42-.59a28.08 28.08 0 01-2.3-4l-.3-.67c-.09-.2-.17-.36-.22-.5l-.17-.42z" transform="translate(-344.91 -309.9)"/><path d="M410.23 328.41l-.32-.5-.2-.32-.24-.35-.58-.81-.16-.22-.18-.23-.37-.48-.4-.51-.45-.52c-.31-.35-.62-.73-1-1.1a33.62 33.62 0 00-5.3-4.58 32.93 32.93 0 00-7.1-3.75l-.48-.18-.49-.17-1-.33-1-.28c-.33-.09-.65-.19-1-.26l-1-.23-.24-.06h-.25l-.49-.09-1-.17-1-.12a33.39 33.39 0 00-7-.12h-.75l-.71.09-.68.09-.64.11-.6.11-.55.11-1 .22-.41.1-.36.1-.57.16-.47.14-1.34-4.42h-.11l-.33.1-1.24.42c-.27.09-.56.2-.88.33l-1 .41c-.36.15-.74.33-1.14.51l-.62.28-.63.32a37.17 37.17 0 00-5.61 3.46l-1.45 1.13-1.42 1.23c-.46.44-.93.87-1.38 1.32l-.67.7-.33.35-.17.18-.16.18a38.16 38.16 0 00-4.46 6.09 37.61 37.61 0 00-2.84 6c-.09.22-.16.45-.24.67l-.22.64-.2.61c-.06.2-.12.4-.17.58l-.3 1.06c0 .16-.09.32-.12.47l-.1.43c-.13.55-.23 1-.29 1.28l-.08.46 4.54.85-.17 1c0 .14 0 .3-.07.47l-.07.52-.07.56v.58l-.09 1.14v1.99H350v.63c0 .41 0 1 .08 1.77a31.28 31.28 0 001.09 6.24c.09.31.18.64.28 1l.33 1c.06.17.11.34.18.51l.2.51.2.51c.07.17.13.35.21.52l.47 1 .12.26.13.26.27.52.27.53.3.52.3.53c.1.18.2.35.32.52l.67 1 .73 1 .18.26.2.25.47.5.4.5.42.49a31.28 31.28 0 003.71 3.66 33.13 33.13 0 004.25 3 30.92 30.92 0 004.54 2.22c.76.32 1.53.56 2.28.81s1.5.44 2.24.6l.55.13.27.06h.27l1.06.19h.52l.49.24.5.06.5.04a33.73 33.73 0 006.32 0l1-.13.75-.1.62-.11-.15-.87-.6.11-.73.1-1 .12a32.8 32.8 0 01-6.15 0l-.48-.05-.49-.06-.5-.06h-.5l-1-.18h-.26l-.26-.06-.53-.12c-.72-.15-1.43-.37-2.17-.58s-1.48-.48-2.21-.79a30 30 0 01-4.41-2.16 32.27 32.27 0 01-4.14-2.93 30.36 30.36 0 01-3.6-3.56l-.41-.47-.39-.49-.38-.49-.19-.24-.18-.25-.71-1-.65-1c-.11-.17-.21-.34-.31-.51l-.29-.51-.29-.51-.26-.52-.26-.51-.13-.25-.12-.26-.46-1c-.08-.16-.14-.34-.21-.5l-.2-.5-.19-.49c-.06-.16-.11-.33-.17-.49l-.32-1c-.1-.32-.18-.63-.27-.94a30.35 30.35 0 01-1.06-6.06c-.07-.74-.07-1.33-.08-1.72v-.61h2.54v-.9-.47-1.53-.36l.1-.76c0-.13 0-.26.05-.4l.07-.41.15-.85c.06-.29.13-.58.2-.88.12-.6.32-1.21.49-1.83 0-.16.1-.31.15-.46l.16-.46.16-.46c.05-.15.12-.3.18-.46l.36-.91.4-.89c.07-.15.13-.29.2-.44l.22-.42c.15-.28.28-.56.43-.83l.45-.78.22-.38.23-.36.44-.69c.15-.22.3-.42.44-.63l.41-.57.39-.5c.25-.31.46-.59.65-.8l.59-.68 1.72 1.54s.09-.11.29-.31l.35-.37.22-.23.12-.13.14-.13.62-.59.17-.16.19-.16.39-.34.42-.36.46-.36.49-.38.53-.38.55-.39.59-.38c.4-.27.83-.5 1.27-.76.22-.13.45-.24.68-.36l.7-.36.73-.33.37-.17.38-.15.78-.31.8-.28.4-.14.41-.12.83-.24.85-.2.43-.1.43-.08.87-.16.88-.12a26.51 26.51 0 016.91.06l.41.06.4.07.79.14.77.18c.25.06.5.11.75.18l.72.2.53-.02.34.12.67.22.16.05.16.06.31.12.6.24.29.12.28.13c.37.17.72.31 1 .49l.89.46.74.43.32.18.27.17.43.27.27.17.09.06 1.29-1.91.43.31c.27.2.67.46 1.12.83a27.45 27.45 0 013.13 2.83l.4.42.21.23.19.22.37.42c.12.14.24.28.35.42l.64.82c.1.13.19.26.28.39l.26.37.24.34.11.16.1.15.33.51.29.44 3.94-2.4zm-40.11-11l-.22.09-.82.37-.58.27-.67.35-.37.19-.19.1-.19.11-.83.48c-.29.16-.58.35-.88.55l-.46.29-.23.15-.23.16-1 .68-1 .76a32 32 0 00-3.75 3.6 30.15 30.15 0 00-3.11 4.17l-.17.26-.15.27-.3.53-.3.52-.27.52-.26.5c-.08.17-.17.33-.24.49l-.43.95c-.14.3-.25.6-.36.88l-.32.8-.45 1.33c-.07.18-.11.35-.15.5l-.1.37-.09.31-3.87-1.06.1-.35.12-.42c0-.16.1-.35.17-.56.14-.42.31-.92.51-1.5l.36-.91c.13-.32.25-.66.41-1l.48-1.07c.08-.19.18-.37.27-.55l.29-.57.3-.58.33-.58.34-.59.18-.3.19-.3a34.2 34.2 0 013.51-4.71 36 36 0 014.24-4.06l1.09-.85 1.08-.77.26-.18.26-.17.52-.33c.34-.22.67-.43 1-.62l.93-.54.22-.13.22-.11.42-.22.76-.39.66-.31.93-.42.25-.1h.09l1.53 3.7z" transform="translate(-344.91 -309.9)" fill="#00b3ea"/><path class="cls-4" d="M22.45 49.63l.31.33-2.23 2.23-.36-.38 2.28-2.18z"/><path class="cls-5" d="M21.77 48.89l.29.34-2.33 2.11-.34-.4 2.38-2.05z"/><path class="cls-6" d="M21.13 48.11l.28.36-2.44 1.98-.32-.41 2.48-1.93z"/><path class="cls-7" d="M20.53 47.3l.26.37-2.54 1.86-.3-.43 2.58-1.8z"/><path class="cls-8" d="M19.98 46.46l.24.38-2.63 1.72-.28-.44 2.67-1.66z"/><path class="cls-9" d="M19.47 45.59l.22.39-2.72 1.59-.25-.46 2.75-1.52z"/><path class="cls-10" d="M19.01 44.7l.2.4-2.8 1.44-.23-.47 2.83-1.37z"/><path class="cls-11" d="M18.59 43.78l.18.41-2.87 1.3-.21-.48 2.9-1.23z"/><path class="cls-12" d="M18.22 42.84l.16.43-2.93 1.14-.19-.49 2.96-1.08z"/><path class="cls-13" d="M17.9 41.89l.14.43-2.99.99-.16-.5 3.01-.92zM17.63 40.92l.12.43-3.04.84-.13-.51 3.05-.76zM17.41 39.94l.09.44-3.07.67-.11-.51 3.09-.6zM17.24 38.94l.07.45-3.1.52-.09-.52 3.12-.45z"/><path class="cls-13" d="M362 347.84v.44l-3.13.36v-.26-.26zM362 346.84v.45l-3.14.2v-.26-.26zM362 345.83v.45h-3.15v-.52zM362 344.82v.45l-3.14-.13v-.52zM362.09 343.82v.44l-3.19-.26v-.52z" transform="translate(-344.91 -309.9)"/><path class="cls-13" d="M17.31 32.92l-.07.45-3.12-.45.09-.52 3.1.52zM17.5 31.93l-.09.44-3.09-.6.11-.52 3.07.68zM17.75 30.95l-.12.44-3.05-.77.13-.5 3.04.83zM18.04 29.99l-.14.43-3.01-.92.16-.5 2.99.99z"/><path class="cls-12" d="M18.38 29.04l-.16.42-2.96-1.07.19-.49 2.93 1.14z"/><path class="cls-11" d="M18.77 28.11l-.18.42-2.9-1.23.21-.48 2.87 1.29z"/><path class="cls-10" d="M19.21 27.21l-.2.4-2.83-1.38.23-.46 2.8 1.44z"/><path class="cls-9" d="M19.69 26.32l-.22.4-2.75-1.52.25-.46 2.72 1.58z"/><path class="cls-8" d="M20.22 25.47l-.24.38-2.67-1.66.28-.45 2.63 1.73z"/><path class="cls-7" d="M20.79 24.64l-.26.37-2.58-1.8.3-.43 2.54 1.86z"/><path class="cls-6" d="M21.41 23.84l-.28.36-2.48-1.93.32-.41 2.44 1.98z"/><path class="cls-5" d="M22.06 23.08l-.29.34-2.38-2.06.34-.39 2.33 2.11z"/><path class="cls-4" d="M22.76 22.35l-.31.32-2.28-2.17.36-.38 2.23 2.23z"/></svg>