<svg preserveAspectRatio="none" id="Layer_1" data-name="Layer 1" xmlns="http://www.w3.org/2000/svg" viewBox="0 0 126.09 126.09"><defs><style>.cls-1{fill:#ff8a29}.cls-2{fill:#095561}.cls-3{fill:#d7f1f5}.cls-4{fill:#cdedf2}.cls-5{fill:#c1e9ef}.cls-6{fill:#b1e4eb}.cls-7{fill:#9ddde6}.cls-8{fill:#85d4e0}.cls-9{fill:#67c9d8}.cls-10{fill:#41bbce}.cls-11{fill:#12aac2}.cls-12{fill:#0e8092}</style></defs><path class="cls-1" d="M81.18 135.8H82v-6.17h-1.57v6.27h.75v-.1zM86.7 129.35l-1.58.14.55 6.24 1.58-.1zM91.34 128.67l-1.56.27 1.11 6.31c.52-.07 1-.14 1.57-.23zM95.9 127.58l-1.53.41 1.69 6.31c.51-.12 1-.23 1.54-.36zM100.35 126.17l-1.49.54 2.25 6.18 1.5-.51zM104.79 124.37l-1.43.67 2.77 5.94 1.44-.66zM109 122.25l-1.37.79 3.24 5.61c.46-.25.92-.52 1.37-.79zM112.85 119.62l-1.3.91 3.78 5.4c.44-.29.86-.61 1.29-.91zM116.56 116.64l-1.21 1 4.27 5.09c.41-.33.81-.68 1.21-1zM124.62 118.17l-4.73-4.73-1.12 1.12 4.73 4.73q.57-.55 1.12-1.12zM123.09 110l-1 1.21 5.06 4.25c.34-.4.68-.8 1-1.21zM126 106.23l-.91 1.3 5.33 3.73c.31-.43.61-.86.91-1.3zM128.35 102.13l-.79 1.37 5.71 3.3c.27-.46.54-.91.79-1.37zM130.47 97.83l-.67 1.43 6 2.78c.22-.48.45-1 .66-1.44zM132.11 93.47l-.54 1.53 6.18 2.25q.27-.74.52-1.5zM133.33 89l-.41 1.53 6.39 1.71c.13-.51.25-1 .37-1.54zM134.27 84.38l-.27 1.56 6.4 1.13c.08-.52.15-1 .22-1.57zM134.81 79.72l-.14 1.58 6.33.55q.06-.79.09-1.58zM141.28 75.86v-.83h-6.32v1.58h6.22v-.75h.12z" transform="translate(-20.08 -14.71)"/><path class="cls-2" d="M110.14 59.43a33.3 33.3 0 01-46.26 44.89l-5.73 9.39A44.3 44.3 0 00119.7 54zm-26.83 58.69H79v-7.34h4.26v7.34zm3.11-.27l-1.28-7.23 4.2-.74 1.28 7.23zm7.21-1.55l-2.51-6.9 4-1.46 2.51 6.9zm6.83-2.78l-3.67-6.36 3.69-2.13 3.67 6.36zm6.25-3.92L102 104l3.26-2.74 4.72 5.63zm5.47-4.95l-5.63-4.72 2.74-3.26 5.63 4.72zm4.53-5.82l-6.36-3.67 2.13-3.69 6.36 3.67zm3.45-6.52l-6.9-2.51 1.46-4 6.9 2.51zm2.27-7L115.19 84l.74-4.2 7.23 1.28zm1-7.3h-7.34v-4.28h7.34V78zM36.89 75.86a44.29 44.29 0 005.88 22.07l9.53-5.49a33.3 33.3 0 0145.62-45.36l5.54-9.5a44.3 44.3 0 00-66.57 38.28zM46.27 78h-7.35v-4.27h7.34V78zm.16-6.09l-7.23-1.28.74-4.2 7.23 1.28zm1.22-6l-6.9-2.51 1.46-4 6.9 2.51zm2.23-5.67l-6.36-3.67 2.13-3.69L52 56.56zm3.19-5.2l-5.63-4.72 2.74-3.26 5.63 4.72zm4-4.57l-4.72-5.63 3.26-2.74 4.72 5.63zm4.77-3.79l-3.67-6.36 3.73-2.12 3.67 6.36zm5.36-2.91l-2.51-6.9 4-1.46 2.51 6.9zm5.8-1.92l-1.28-7.23 4.2-.74 1.28 7.23zM83.31 41H79v-7.39h4.26V41z" transform="translate(-20.08 -14.71)"/><path class="cls-1" d="M122.19 106.31a57.76 57.76 0 01-4.87 5.68 57.77 57.77 0 01-11.74 8.85l-3.11 1.53c-.51.25-1 .52-1.51.74l-1.53.58-2.94 1.12-2.84.78c-.92.23-1.78.53-2.63.66l-2.41.42-2.12.37-1.82.14-3 .23 3-.07 1.84-.06 2.15-.28 2.45-.32c.87-.09 1.74-.39 2.67-.59l2.9-.71 3-1.06 1.57-.55c.52-.21 1-.47 1.55-.7l3.2-1.47a58.53 58.53 0 0012-8.91 58.62 58.62 0 008.91-12l1.51-3.19c.24-.52.5-1 .7-1.55l.55-1.57 1.06-3 .71-2.9c.2-.93.5-1.8.59-2.67l.32-2.45.28-2.15.06-1.83.07-3-.23 3-.14 1.83-.39 2.07-.42 2.41c-.13.85-.44 1.71-.66 2.63l-.78 2.84L129 94.1l-.58 1.53c-.22.51-.49 1-.74 1.51l-1.53 3.11a57.84 57.84 0 01-3.96 6.06zM84.56 71.11A5.89 5.89 0 0186 72.53h12.22a17.88 17.88 0 00-13.66-14.06v12.64zm7.17-7a1.23 1.23 0 11-1.23 1.23 1.23 1.23 0 011.23-1.26zM88 67.83a1.23 1.23 0 11-1.23 1.23A1.23 1.23 0 0188 67.83zM77.8 80.71a5.9 5.9 0 01-1.42-1.42H63.13A17.87 17.87 0 0077.8 93.54V80.71zm-7.17 6.93a1.23 1.23 0 111.23-1.23 1.23 1.23 0 01-1.23 1.24zM74.32 84a1.23 1.23 0 111.23-1.23A1.23 1.23 0 0174.32 84z" transform="translate(-20.08 -14.71)"/><circle class="cls-1" cx="61.1" cy="61.15" r="2.98"/><path class="cls-1" d="M76.8 72l-11.42-5.29c-.21.35-.41.7-.59 1.06l11.94 4.35zM66 65.7L76.86 72l.06-.07-10.17-7.18q-.38.46-.75.95zM76.38 72.53l.12-.14-13.07-1.14c-.11.42-.22.85-.3 1.28h13.25zM77.8 71.11V58.29c-.4.07-.8.15-1.2.24l1.11 12.66zM63.81 70l12.78 2.25.08-.09-12.4-3.32c-.17.42-.32.8-.46 1.16zM72.11 60.26l5.24 11.23.08-.07-4.26-11.7q-.54.28-1.06.54zM74.27 59.26l3.24 12.1.09-.08-2.18-12.42c-.42.14-.77.25-1.15.4zM70.12 61.51l7.07 10.1.07-.06-6.18-10.7c-.32.21-.64.43-.96.66zM85.53 79.78L96.63 85q.3-.5.58-1l-11.62-4.3zM85.41 79.93l9.9 6.93q.36-.45.69-.92l-10.53-6.08zM85.82 79.43l12.7 1.11c.11-.41.21-.83.29-1.25H85.94zM84.56 80.67v12.47c.39-.06.78-.15 1.16-.24l-1.07-12.3zM85.66 79.62l12.05 3.23c.16-.37.31-.75.44-1.13l-12.41-2.19zM84.92 80.37l4.14 11.38c.35-.16.69-.33 1-.52L85 80.31zM84.75 80.52l2.13 12.07c.38-.12.75-.25 1.11-.39l-3.15-11.76zM85.07 80.24l6 10.4c.32-.2.64-.42.94-.64l-6.88-9.82zM80.82 23.89a.5.5 0 00-.14.35.47.47 0 00.49.46.51.51 0 00.5-.5.49.49 0 00-.15-.35.51.51 0 00-.7.04zM101 28.7a.5.5 0 00.19-1 .49.49 0 00-.65.27.49.49 0 00.26.65.47.47 0 00.2.08zM86.27 25a.5.5 0 10-.5-.55.5.5 0 00.45.55h.05zM96.24 27a.5.5 0 00.15-1 .5.5 0 00-.62.33.49.49 0 00.33.62zM91.3 25.74a.5.5 0 10-.49-.59.51.51 0 00.4.59h.09zM105.4 30.84a.46.46 0 00.23.06.49.49 0 00.44-.26.5.5 0 10-.88-.48.5.5 0 00.21.68zM110.34 33.39a.47.47 0 00.15-.35.48.48 0 00-.14-.35.52.52 0 00-.71 0 .49.49 0 00-.15.36.47.47 0 00.15.35.48.48 0 00.7-.01zM124.43 47.5a.52.52 0 00.14-.35.51.51 0 00-.15-.36.52.52 0 00-.71 0 .51.51 0 000 .7.51.51 0 00.72.01zM130.42 60.37a.5.5 0 00-.33.62.49.49 0 00.48.36.36.36 0 00.14 0 .49.49 0 00.29-.65.51.51 0 00-.58-.33zM128.86 56.57a.63.63 0 00.19 0 .5.5 0 10-.66-.27.5.5 0 00.47.27zM131.7 65.27a.5.5 0 00-.39.59.49.49 0 00.49.41h.1a.51.51 0 00.39-.59.51.51 0 00-.59-.41zM132.54 71.28a.51.51 0 00.45-.55.52.52 0 00-.55-.45.5.5 0 00.1 1zM126.68 52a.53.53 0 00.24-.06.5.5 0 00-.48-.88.51.51 0 00-.2.68.49.49 0 00.44.26zM132.78 76.36a.53.53 0 00.36-.15.51.51 0 00.14-.35.54.54 0 00-.14-.36.51.51 0 00-.86.36.53.53 0 00.15.35.49.49 0 00.31.14z" transform="translate(-20.08 -14.71)"/><path class="cls-1" transform="rotate(-45 80.789 65.326)" d="M107.15 48.2h2.88v.5h-2.88z"/><path class="cls-1" d="M117.27 40.13l-.35-.35-7.13 7.13.35.35zM104 53.44l3.39-3.44-.39-.35-3.44 3.44z" transform="translate(-20.08 -14.71)"/><path class="cls-1" d="M109.65 52.26a.25.25 0 00.35-.36l-2.25-2.25-.35-.35-2.17-2.17a.25.25 0 10-.35.35l2.12 2.17.39.35zM113.33 51.16a.25.25 0 00.35-.35l-3.55-3.55-.35-.35-3.51-3.51a.25.25 0 10-.35.35l3.51 3.51.35.35zM117.27 40.13a19.58 19.58 0 013 3.93.5.5 0 10.87-.5 20.64 20.64 0 00-7.64-7.64.5.5 0 10-.5.87 19.62 19.62 0 013.94 3zM62.57 95.61l-.72.77a1.2 1.2 0 100-2.41 1.19 1.19 0 00-1.14.91l.58-.54q.64.66 1.28 1.27z" transform="translate(-20.08 -14.71)"/><path class="cls-3" d="M58.97 18.9h4.26v7.34h-4.26z"/><path class="cls-4" transform="rotate(-10 -19.618 145.247)" d="M72.35 34.19h4.26v7.34h-4.26z"/><path class="cls-4" transform="rotate(-20 16.234 89.173)" d="M65.85 35.94h4.26v7.34h-4.26z"/><path class="cls-5" transform="rotate(-30 24.398 72.557)" d="M59.76 38.78h4.26v7.34h-4.26z"/><path class="cls-6" transform="rotate(-40 26.13 66.528)" d="M54.25 42.64h4.26v7.34h-4.26z"/><path class="cls-7" transform="rotate(-50 25.807 65.23)" d="M49.49 47.39h4.26v7.34h-4.26z"/><path class="cls-8" transform="rotate(-60 24.984 66.606)" d="M45.63 52.9h4.26v7.34h-4.26z"/><path class="cls-9" transform="rotate(-70 24.385 69.645)" d="M42.79 59h4.26v7.34h-4.26z"/><path class="cls-10" transform="rotate(-80 24.382 73.769)" d="M41.05 65.49h4.26v7.34h-4.26z"/><path class="cls-3" d="M58.97 96.06h4.26v7.34h-4.26z"/><path class="cls-4" transform="matrix(.98 -.17 .17 .98 -38.51 2.28)" d="M85.75 110.19h4.26v7.34h-4.26z"/><path class="cls-4" transform="rotate(-20 42.626 161.688)" d="M92.24 108.45h4.26v7.34h-4.26z"/><path class="cls-5" transform="rotate(-30 62.975 139.374)" d="M98.34 105.6h4.26v7.34h-4.26z"/><path class="cls-6" transform="rotate(-40 75.728 125.635)" d="M103.85 101.75h4.26v7.34h-4.26z"/><path class="cls-7" transform="rotate(-50 84.919 114.829)" d="M108.6 96.99h4.26v7.34h-4.26z"/><path class="cls-8" transform="rotate(-60 91.816 105.19)" d="M112.46 91.48h4.26v7.34h-4.26z"/><path class="cls-9" transform="rotate(-70 96.9 96.04)" d="M115.3 85.39h4.26v7.34h-4.26z"/><path class="cls-10" transform="rotate(-80 100.373 87.168)" d="M117.04 78.89h4.26v7.34h-4.26z"/><path class="cls-1" d="M120.86 33.46a2.72 2.72 0 004.69 1.87q-1.83-2-3.84-3.84a2.71 2.71 0 00-.85 1.97zM123.58 30.73a2.71 2.71 0 00-1 .2q1.84 1.7 3.53 3.54a2.7 2.7 0 00.2-1 2.73 2.73 0 00-2.73-2.74z" transform="translate(-20.08 -14.71)"/><path class="cls-11" d="M123.58 30.73a2.73 2.73 0 012.72 2.72 2.7 2.7 0 01-.2 1c.48.52.95 1.06 1.41 1.6a4.72 4.72 0 00-6.51-6.53c.54.46 1.07.93 1.6 1.41a2.71 2.71 0 01.98-.2zM123.58 36.18a2.72 2.72 0 01-1.87-4.69c-.49-.45-1-.89-1.51-1.32a4.72 4.72 0 006.66 6.67c-.43-.51-.87-1-1.32-1.51a2.71 2.71 0 01-1.96.85z" transform="translate(-20.08 -14.71)"/><path class="cls-1" d="M38.67 115.62a2.71 2.71 0 012 4.55c.49.45 1 .88 1.5 1.31a4.7 4.7 0 00-6.65-6.64c.43.5.86 1 1.31 1.5a2.7 2.7 0 011.84-.72zM38.67 121.06a2.73 2.73 0 01-2.67-2.72 2.69 2.69 0 01.28-1.19c-.47-.51-.93-1-1.38-1.57a4.71 4.71 0 006.58 6.57c-.53-.45-1.06-.91-1.57-1.38a2.69 2.69 0 01-1.24.29zM26.06 74.71a54.82 54.82 0 0154.36-54h.76v-3h-.78a57.35 57.35 0 00-38.22 14.85 3 3 0 01-4.25 4.26 57.31 57.31 0 00-14.87 37.86v1.18h3v-1.15z" transform="translate(-20.08 -14.71)"/><path class="cls-11" d="M82.56 51a1.38 1.38 0 10-2.76 0v19.21a5.68 5.68 0 012.76 0V51zM75.3 75.91a5.85 5.85 0 01.17-1.38H56.31a1.38 1.38 0 000 2.76h19.16a5.85 5.85 0 01-.17-1.38zM79.8 81.62v19.16a1.38 1.38 0 002.76 0V81.62a5.7 5.7 0 01-2.76 0zM87.05 75.91a5.86 5.86 0 01-.17 1.38H106a1.38 1.38 0 100-2.76H86.88a5.85 5.85 0 01.17 1.38zM84.31 52.91a.25.25 0 00.21.28 22.9 22.9 0 014.38 1.09h.1a.25.25 0 00.08-.49 23.39 23.39 0 00-4.48-1.09.25.25 0 00-.29.21zM73.59 54.23a22.83 22.83 0 014.25-1 .25.25 0 00.16-.32.25.25 0 00-.28-.21 23.32 23.32 0 00-4.34 1.07.25.25 0 00.08.49h.08zM63.8 60.92a22.84 22.84 0 013.16-3 .25.25 0 00-.31-.39 23.36 23.36 0 00-3.23 3.09.25.25 0 10.38.3zM58.42 71.82a.25.25 0 00.25-.2 22.88 22.88 0 011.22-4.2.25.25 0 00-.46-.18 23.38 23.38 0 00-1.25 4.29.25.25 0 00.2.29zM58.24 79a.25.25 0 00-.21.28 23.32 23.32 0 001.07 4.34.25.25 0 00.24.17h.08a.25.25 0 00.15-.32 22.83 22.83 0 01-1-4.25.25.25 0 00-.33-.22zM65.93 93.61a.25.25 0 10.33-.38 22.93 22.93 0 01-3-3.16.25.25 0 00-.39.31 23.37 23.37 0 003.06 3.23zM76.9 98.86a.25.25 0 000-.5 22.91 22.91 0 01-4.2-1.22.25.25 0 00-.18.46 23.4 23.4 0 004.29 1.25zM84.52 98.51a.25.25 0 000 .5 23.4 23.4 0 004.34-1.07.25.25 0 00-.17-.47 22.9 22.9 0 01-4.17 1.04zM98.56 90.77a22.88 22.88 0 01-3.16 3 .25.25 0 10.31.39 23.37 23.37 0 003.23-3.09.25.25 0 00-.38-.3zM103.69 80.08a22.88 22.88 0 01-1.22 4.2.25.25 0 00.14.32h.09a.25.25 0 00.23-.16 23.38 23.38 0 001.25-4.29.25.25 0 10-.49-.07zM102.95 67.94a.25.25 0 00-.15.32 22.83 22.83 0 011 4.25.25.25 0 00.25.21.25.25 0 00.21-.28 23.33 23.33 0 00-1.07-4.34.25.25 0 00-.24-.16zM96.43 58.09a.25.25 0 10-.33.38 22.87 22.87 0 013 3.16.25.25 0 00.39-.31 23.33 23.33 0 00-3.06-3.23zM68.33 63c-.28.27-.55.55-.82.84l9.48 8 .07-.07.07-.06-7.93-9.48c-.3.25-.59.52-.87.77zM93.76 88.55c.27-.26.54-.54.8-.82L85.35 80l-.06.07-.07.06 7.71 9.18c.28-.24.56-.5.83-.76zM81.67 127.42a.48.48 0 00-.14-.31.5.5 0 00-.85.35.48.48 0 00.5.5.51.51 0 00.36-.15.5.5 0 00.14-.35zM65.63 125.08a.5.5 0 00.34.63h.14a.51.51 0 00.48-.36.5.5 0 00-.33-.62.51.51 0 00-.63.35zM60.86 123.31a.5.5 0 00.27.66.58.58 0 00.19 0 .5.5 0 00.19-1 .5.5 0 00-.65.34zM76 127.71a.5.5 0 000-1 .5.5 0 100 1zM57 120.87a.5.5 0 00-.68.21.49.49 0 00.21.67.47.47 0 00.23.06.49.49 0 00.44-.26.51.51 0 00-.2-.68zM70.95 127H71a.5.5 0 00.1-1 .49.49 0 00-.59.39.5.5 0 00.44.61zM52 118.32a.54.54 0 00-.14.36.49.49 0 00.14.32.46.46 0 00.34.15.51.51 0 00.36-.15.52.52 0 000-.71.52.52 0 00-.7.03zM37.93 104.21a.52.52 0 00-.14.36.47.47 0 00.15.35.51.51 0 00.7 0 .48.48 0 00.15-.35.51.51 0 00-.15-.36.52.52 0 00-.71 0zM33.31 95.18a.49.49 0 00-.27.65.5.5 0 00.46.31.43.43 0 00.19 0 .5.5 0 10-.38-.96zM35.44 99.78a.5.5 0 00.23.94.53.53 0 00.24-.06.5.5 0 00.21-.67.49.49 0 00-.68-.21zM30.56 86.45h.1a.5.5 0 00.34-.6.5.5 0 10-.44.6zM30.32 80.88a.5.5 0 00-.55-.44.49.49 0 00-.45.54.5.5 0 00.5.45.51.51 0 00.45-.54zM31.64 90.39a.5.5 0 00-.33.62.51.51 0 00.48.36h.14a.5.5 0 10-.29-.98zM29.57 76.36a.55.55 0 00.36-.15.5.5 0 00.14-.35.54.54 0 00-.14-.36.51.51 0 00-.32-.13l.23-3 .16-1.82.37-2.12.41-2.43c.13-.85.44-1.71.66-2.63l.78-2.84 1.12-2.94.58-1.53c.22-.51.49-1 .74-1.51l1.53-3.11A57.66 57.66 0 0145 39.71a57.75 57.75 0 0111.74-8.85l3.11-1.53c.51-.25 1-.52 1.51-.74l1.58-.59 2.94-1.12 2.84-.78c.92-.23 1.78-.53 2.63-.66l2.41-.44 2.12-.37 1.82-.14 3-.23-3 .07-1.84.06-2.15.28-2.46.33c-.87.09-1.74.39-2.67.59l-2.9.71-3 1.06-1.57.55c-.52.21-1 .47-1.55.7l-3.2 1.49a58.53 58.53 0 00-12 8.91 58.65 58.65 0 00-8.91 12l-1.51 3.19c-.24.53-.5 1-.7 1.55l-.55 1.57-1.06 3-.71 2.9c-.2.93-.5 1.8-.59 2.67L30 68.38l-.28 2.15c0 .67 0 1.28-.06 1.83l-.07 3a.51.51 0 00-.36.14.55.55 0 00-.15.36.51.51 0 00.15.35.53.53 0 00.34.15z" transform="translate(-20.08 -14.71)"/><path class="cls-11" d="M18.85 59.02h7.34v4.26h-7.34zM96.01 59.02h7.34v4.26h-7.34z"/><path class="cls-11" d="M107 68q.26.84.46 1.71l4.87-1.14c-.16-.68-.34-1.35-.54-2zM113 72.66c-.07-.69-.16-1.39-.27-2.07l-4.93.82q.14.87.23 1.75zM103.6 53.09c-.21-.21-.41-.42-.62-.62l-2.7 2.88a1.19 1.19 0 00-1 1.17 1.2 1.2 0 002.39.06l2.8-2.63c-.16-.17-.34-.33-.5-.5zM88.37 44.64l-1.13 4.87q.86.2 1.7.46l1.45-4.78c-.67-.19-1.39-.39-2.02-.55zM90.61 50.54q.83.31 1.63.68l2.07-4.55c-.63-.29-1.28-.56-1.94-.8zM102 58.69q.56.68 1.08 1.4l4.06-2.92c-.4-.56-.83-1.12-1.28-1.66zM93.83 52q.78.42 1.53.89L98 48.64c-.59-.37-1.2-.72-1.81-1zM83.75 48.94q.88.09 1.75.23l.81-4.93c-.68-.11-1.38-.2-2.08-.27zM105.71 64.67q.36.8.68 1.63l4.68-1.77c-.25-.65-.52-1.3-.8-1.93zM104 61.56q.47.75.89 1.53l4.41-2.37c-.33-.61-.68-1.22-1-1.81zM96.83 53.87q.72.52 1.4 1.08l3.17-3.86c-.54-.44-1.1-.87-1.66-1.27zM108.11 74.95v.92a27.09 27.09 0 01-27.06 27.06h-.92l-.17 5h1.08a32.09 32.09 0 0032.06-32.06v-1.08zM49 75.86v1.08l5-.17v-.92a27.09 27.09 0 0127.07-27.04h.92l.17-5h-1.08A32.09 32.09 0 0049 75.86zM59.15 99.26l2.69-2.88.72-.77q-.64-.6-1.25-1.25l-.58.54-3.07 2.88c.19.21.4.4.61.6L55 101.7l-2.25-2.25a.25.25 0 00-.35.35l2.25 2.25-2 2-3.65-3.51a.25.25 0 00-.35.35l3.55 3.55-7.13 7.13a19.63 19.63 0 01-3-3.93.5.5 0 00-.87.5 20.63 20.63 0 007.64 7.64.5.5 0 00.5-.87 19.62 19.62 0 01-3.94-3l7.13-7.13 3.51 3.51a.25.25 0 00.35-.35l-3.51-3.51 2-2 2.17 2.17a.25.25 0 00.35-.35l-2.17-2.17 3.32-3.31c.26.14.45.32.6.49zM49.17 79.07c.07.69.16 1.39.27 2.07l4.93-.82q-.14-.87-.23-1.75zM65.3 97.86q-.72-.52-1.4-1.08l-3.17 3.86c.54.44 1.1.87 1.66 1.27zM66.77 98.84l-2.65 4.24c.59.37 1.2.72 1.81 1l2.36-4.41q-.77-.36-1.52-.83zM51.07 87.2c.25.65.52 1.3.8 1.93l4.55-2.07q-.36-.8-.68-1.63zM73.77 107.08l1.13-4.87q-.86-.2-1.7-.46l-1.45 4.78c.66.21 1.34.4 2.02.55zM71.52 101.19q-.83-.31-1.63-.68l-2.07 4.55c.63.29 1.28.56 1.94.8zM49.85 83.19c.16.68.34 1.36.54 2l4.78-1.46q-.26-.84-.46-1.71zM52.8 91c.33.61.68 1.22 1 1.81l4.24-2.65q-.47-.75-.89-1.53zM55 94.55c.4.56.83 1.12 1.28 1.66L60.16 93q-.56-.68-1.08-1.4zM78.38 102.79q-.88-.09-1.75-.23l-.81 4.93c.68.11 1.38.2 2.08.27zM127.51 36.07c-.46-.54-.93-1.08-1.41-1.6q-1.69-1.84-3.53-3.54c-.52-.48-1.06-.95-1.6-1.41a60.79 60.79 0 00-39.8-14.81v1a59.8 59.8 0 0139 14.46c.51.44 1 .87 1.51 1.32q2 1.83 3.84 3.84c.45.49.88 1 1.32 1.51A59.9 59.9 0 01141.26 75v.83h1a60.9 60.9 0 00-14.75-39.76z" transform="translate(-20.08 -14.71)"/><path class="cls-11" d="M42.17 121.49c-.5-.43-1-.86-1.5-1.31a2.71 2.71 0 00-3.83-3.83c-.45-.49-.88-1-1.31-1.5a59.83 59.83 0 01-14.45-39h-1a60.82 60.82 0 0014.78 39.78c.45.53.91 1.06 1.38 1.57a2.69 2.69 0 00-.28 1.19 2.73 2.73 0 002.72 2.72 2.69 2.69 0 001.19-.28c.51.47 1 .93 1.57 1.38a60.82 60.82 0 0039.75 14.75v-1h-.75a59.82 59.82 0 01-38.27-14.47z" transform="translate(-20.08 -14.71)"/><path class="cls-12" d="M146.16 75.86h-5v2.25c0 .72 0 1.44-.07 2.16q0 .79-.09 1.58-.13 1.84-.38 3.65c-.07.52-.14 1-.22 1.57-.2 1.22-.45 2.42-.72 3.61-.12.51-.23 1-.37 1.54-.31 1.18-.66 2.35-1 3.5q-.25.75-.52 1.5c-.41 1.15-.85 2.28-1.34 3.4-.21.48-.44 1-.66 1.44-.53 1.15-1.09 2.28-1.7 3.39-.25.46-.53.91-.79 1.37-.63 1.07-1.28 2.13-2 3.16-.29.44-.6.87-.91 1.3q-1.07 1.51-2.23 2.94c-.33.41-.67.81-1 1.21q-1.22 1.42-2.52 2.75-.55.57-1.12 1.12-1.3 1.26-2.67 2.44c-.4.34-.8.69-1.21 1-1 .79-2 1.54-3 2.27-.43.31-.86.62-1.29.91-1 .67-2 1.31-3.08 1.92-.45.27-.91.54-1.37.79-1.08.6-2.19 1.15-3.32 1.68l-1.44.66q-1.73.76-3.52 1.4l-1.5.51c-1.16.38-2.32.74-3.51 1-.51.13-1 .24-1.54.36-1.19.27-2.39.52-3.61.72-.52.09-1 .16-1.57.23q-1.81.25-3.65.38l-1.58.1c-.79 0-1.57.07-2.37.07h-2.11v5h2.13a62.84 62.84 0 0042.11-16.45 3 3 0 014.29-4.3 62.82 62.82 0 0016.45-41.91v-2.22z" transform="translate(-20.08 -14.71)"/><path class="cls-1" d="M42.84 34.43a3 3 0 10-3 3 3 3 0 003-3z" transform="translate(-20.08 -14.71)"/><path class="cls-12" d="M124.56 122.23a3 3 0 103-3 3 3 0 00-3 3z" transform="translate(-20.08 -14.71)"/></svg>