<svg preserveAspectRatio="none" xmlns="http://www.w3.org/2000/svg" viewBox="0 0 375.25 279.41"><defs><clipPath id="clip-path" transform="translate(-112.37 -60.37)"><path class="cls-1" d="M275.59 234.56v-3.71h1.13l.23 3.7q-.69 0-1.36.01zm-5.24-.45c-.44-.08-.87-.17-1.29-.28l.88-3.6 1.1.24zm11.76-.45l-1-3.58q.55-.15 1.08-.32l1.15 3.53q-.58.19-1.23.36zm-18-1.57q-.6-.28-1.19-.6l1.75-3.27q.5.27 1 .51zm24.11-.93l-1.83-3.23c.33-.19.65-.38 1-.58l2 3.13c-.39.22-.81.45-1.19.67zm-29.67-2.59q-.51-.42-1-.86L260 225q.42.38.86.74zm35-1.35l-2.58-2.66c.27-.26.54-.54.8-.81l2.7 2.54c-.37.3-.68.61-1 .91zM254 223.77q-.39-.53-.75-1.09l3.1-2q.31.47.64.93zm43.59-1.68l-3.16-2q.3-.48.57-1l3.25 1.79q-.31.64-.65 1.2zM250.83 218q-.24-.61-.46-1.24l3.51-1.2c.12.36.25.71.39 1.06zm49.5-1.91l-3.54-1.09c.11-.36.21-.72.31-1.08l3.59.92q-.17.63-.36 1.26zm-51.14-4.46q-.08-.65-.13-1.31l3.7-.28q0 .57.11 1.13zm52.29-2l-3.7-.19v-1.13l3.71-.1v.1q.02.69-.02 1.3zm-48.62-4.1l-3.68-.45q.08-.66.19-1.31l3.65.64q-.1.54-.17 1.1zm44.48-1.81q-.12-.56-.26-1.1l3.59-.93q.17.64.3 1.28zm-43.1-3.72l-3.45-1.36q.24-.62.51-1.22l3.38 1.53q-.23.56-.44 1.05zm41.25-1.68q-.25-.51-.52-1l3.24-1.8q.32.58.61 1.17zM257 195.08l-3-2.18q.39-.53.8-1l2.89 2.32q-.4.4-.69.86zm35.44-1.44q-.37-.43-.76-.84l2.69-2.55q.45.48.88 1zm-31.57-2.7l-2.37-2.85q.51-.42 1-.82l2.23 3q-.48.31-.91.68zm27.39-1.11q-.46-.33-.94-.63l2-3.14q.56.35 1.1.73zm-22.62-1.93l-1.64-3.35q.59-.28 1.2-.53l1.43 3.42q-.54.22-1.05.46zm17.63-.72c-.35-.13-.71-.26-1.07-.37l1.13-3.53c.42.14.84.28 1.25.44zm-12.27-1l-.7-3.64q.64-.12 1.3-.22l.52 3.67zm6.77-.27l-1.13-.09.22-3.7c.44 0 .88.06 1.31.11z"/></clipPath><clipPath id="clip-path-2" transform="translate(-112.37 -60.37)"><path class="cls-1" d="M200.49 241.88l-.49-1.14.57-.24.49 1.13zm-5.54-17.72q-.12-.61-.22-1.22l.61-.11.22 1.21zm-.79-18.49h-.62q0-.62.05-1.24h.62q-.03.57-.05 1.24zM356 197.49q-.08-.61-.18-1.22l.61-.09.18 1.23zm-159.1-10l-.6-.16q.16-.6.33-1.2l.59.17q-.16.55-.32 1.14zm154.53-7.81c-.15-.38-.3-.77-.45-1.15l.57-.23.45 1.16zm-147.73-9.37l-.54-.29.6-1.09.54.3zm139.24-7l-.7-1 .51-.35.7 1zm-128.74-8.13l-.47-.41.82-.93.46.41zm116.8-5.92l-.91-.83.42-.46.91.84zm-103.17-6.53l-.36-.5 1-.72.35.51zm88.37-4.47l-1.07-.61.3-.54 1.08.62zm-72.32-4.57l-.24-.57 1.14-.47.23.57zm55.43-2.8l-1.18-.35.17-.59 1.19.36zm-37.75-2.37l-.11-.61 1.22-.2.1.61zm19.63-1l-1.23-.08v-.62l1.24.08z"/></clipPath><clipPath id="clip-path-3" transform="translate(-112.37 -60.37)"><path class="cls-1" transform="rotate(-66.59 310.831 125.943)" d="M310.02 125.38h1.67v1.11h-1.67z"/></clipPath><clipPath id="clip-path-4" transform="translate(-112.37 -60.37)"><path class="cls-1" d="M313.79 120.56l-1-.44 1.25-2.9 1 .44zm3.35-7.73l-1-.44 1.25-2.9 1 .44zm3.34-7.73l-1-.44 1.25-2.9 1 .44zm3.35-7.73l-1-.44 1.25-2.9 1 .44zm3.34-7.73l-1-.44 1.25-2.9 1 .44z"/></clipPath><clipPath id="clip-path-5" transform="translate(-112.37 -60.37)"><path class="cls-1" d="M330.51 81.91l-1-.44.88-2 .51.22 1.54.68-.45 1-1-.45z"/></clipPath><clipPath id="clip-path-6" transform="translate(-112.37 -60.37)"><path class="cls-1" d="M364.15 101.33q-1.37-1.14-2.77-2.24l.69-.87q1.41 1.11 2.79 2.25zm-7.52-5.81q-1.45-1-2.92-2l.63-.92q1.49 1 2.94 2.06zm-7.9-5.28q-1.51-.94-3.05-1.84l.56-1q1.55.91 3.07 1.86zm-8.23-4.74q-1.57-.84-3.17-1.63l.5-1q1.61.8 3.19 1.64z"/></clipPath><clipPath id="clip-path-7" transform="translate(-112.37 -60.37)"><path class="cls-1" d="M369.87 106.33l-1.23-1.12.75-.83 1.24 1.13z"/></clipPath><style>.cls-1,.cls-11,.cls-13,.cls-15{fill:none}.cls-3{fill:#03a6ff}.cls-4,.cls-6{fill:#0080ff}.cls-5{mix-blend-mode:screen}.cls-11,.cls-13,.cls-15,.cls-6{stroke:#03a6ff;stroke-miterlimit:10}.cls-11,.cls-15,.cls-6{stroke-width:.5px}.cls-7{opacity:.5}.cls-10{fill:#ff1493}.cls-15{stroke-linecap:round}</style></defs><g style="isolation:isolate"><g id="Layer_8" data-name="Layer 8"><path class="cls-3" d="M268.31 211.34l-1.96.92-.93-.64 1.96-.93.18-2.16.93.64-.18 2.17z"/><path class="cls-3" d="M270.13 212.6l-1.96.93-.93-.65 1.96-.93.18-2.16.93.65-.18 2.16z"/><path class="cls-3" d="M271.95 213.86l-1.96.93-.93-.65 1.97-.92.17-2.17.93.65-.18 2.16z"/><path class="cls-3" d="M273.77 215.12l-1.96.93-.93-.65 1.97-.92.17-2.17.93.65-.18 2.16zM275.6 216.38l-1.97.93-.93-.65 1.97-.92.18-2.16.92.64-.17 2.16zM282.08 244.04l-1.97.93-.92-.65 1.96-.92.18-2.17.92.65-.17 2.16zM283.9 245.3l-1.96.93-.93-.64 1.96-.93.18-2.16.92.64-.17 2.16zM285.72 246.56l-1.97.93-.92-.64 1.96-.93.18-2.16.93.64-.18 2.16zM287.54 247.82l-1.96.93-.93-.64 1.96-.93.18-2.16.93.64-.18 2.16zM289.36 249.09l-1.96.92-.93-.64 1.96-.93.18-2.16.93.64-.18 2.17z"/></g><g id="Layer_4" data-name="Layer 4"><path class="cls-4" d="M273.76 209.31L391 82.65l.35.35a172.41 172.41 0 0125.95 30.4 169.28 169.28 0 0118.09 35.5l.16.44zM391.05 84L277.12 207.06l157.23-58.27a168.23 168.23 0 00-17.83-34.86A171.4 171.4 0 00391.05 84z" transform="translate(-112.37 -60.37)"/><g class="cls-5"><path class="cls-4" d="M428 138a169.73 169.73 0 00-22.36-35.89l3.5-2.85a174.25 174.25 0 0123 36.85z" transform="translate(-112.37 -60.37)"/></g><g class="cls-5"><path class="cls-4" d="M415.82 160.54l-40.29 13.68c-.67-1.85-1.33-3.7-2.06-5.52l39.47-15.88c1.06 2.56 1.95 5.18 2.88 7.72z" transform="translate(-112.37 -60.37)"/></g><g class="cls-5"><path class="cls-4" d="M428 138a169.73 169.73 0 00-22.36-35.89l3.5-2.85a174.25 174.25 0 0123 36.85z" transform="translate(-112.37 -60.37)"/></g><g class="cls-5"><path class="cls-4" d="M415.82 160.54l-40.29 13.68c-.67-1.85-1.33-3.7-2.06-5.52l39.47-15.88c1.06 2.56 1.95 5.18 2.88 7.72z" transform="translate(-112.37 -60.37)"/></g><path class="cls-4" d="M276.26 209l-163.89-55 .1-.29a171.92 171.92 0 0123.75-46.13A178.87 178.87 0 01153 87.75a173.54 173.54 0 0119.61-17.08l.25-.19 15.7 21-.5.37-15.33-20.5a172.91 172.91 0 00-19.29 16.83 178.22 178.22 0 00-16.72 19.73 171.32 171.32 0 00-23.57 45.67l161.44 54.22-65.54-87.8.49-.37z" transform="translate(-112.37 -60.37)"/><path class="cls-4" d="M205.3 115.76l-.74-1 1.08-.81.74 1zm-3-4l-.74-1 1.08-.81.74 1zm-3-4l-.74-1 1.08-.81.74 1zm-3-4l-.74-1 1.08-.81.74 1zm-3-4l-.74-1 1.08-.81.74 1zm-3-4l-.74-1 1.08-.81.74 1z" transform="translate(-112.37 -60.37)"/><g class="cls-5"><path class="cls-4" transform="rotate(-71.44 39.41 210.061)" d="M135.74 149.1h3.71v26.04h-3.71z"/></g><g class="cls-5"><path class="cls-4" transform="rotate(-71.44 39.41 210.061)" d="M135.74 149.1h3.71v26.04h-3.71z"/></g><g class="cls-5"><path class="cls-4" d="M218.83 78.91a140.24 140.24 0 0145.8-11.33l-.47-6.35a146.62 146.62 0 00-47.87 11.85z" transform="translate(-112.37 -60.37)"/></g><g class="cls-5"><path class="cls-4" d="M174 105.45a144.52 144.52 0 0146.64-30.76l-1.21-2.95a147.7 147.7 0 00-47.67 31.44z" transform="translate(-112.37 -60.37)"/></g><g class="cls-5"><path class="cls-4" d="M218.83 78.91a140.24 140.24 0 0145.8-11.33l-.47-6.35a146.62 146.62 0 00-47.87 11.85z" transform="translate(-112.37 -60.37)"/></g><g class="cls-5"><path class="cls-4" d="M174 105.45a144.52 144.52 0 0146.64-30.76l-1.21-2.95a147.7 147.7 0 00-47.67 31.44z" transform="translate(-112.37 -60.37)"/></g><g class="cls-7"><path class="cls-3" d="M132.13 189.72a143.2 143.2 0 015.09-23.72 146.3 146.3 0 019-22.48l-2.85-1.43a149.49 149.49 0 00-9.23 23 146.38 146.38 0 00-5.2 24.2z" transform="translate(-112.37 -60.37)"/></g><g class="cls-7"><path class="cls-3" d="M133.12 200.86a145.91 145.91 0 012-17.55l-5.12-.91a151.1 151.1 0 00-2.1 18.19z" transform="translate(-112.37 -60.37)"/></g><path class="cls-3" d="M239.54 208.55L127.31 208v-.42a147.84 147.84 0 01156.36-147h.42V61l-6.32 111.63h-.42a36.07 36.07 0 00-14.35 2.09 35.7 35.7 0 00-12.23 7.57 36.23 36.23 0 00-8.33 11.78 35.29 35.29 0 00-2.94 14.06v.42zm-111.38-1.35l110.55.5a36.09 36.09 0 013-14 37.06 37.06 0 018.52-12.06A36.1 36.1 0 01277 171.8l6.24-110.38A147 147 0 00128.16 207.2z" transform="translate(-112.37 -60.37)"/><path class="cls-3" d="M197.63 147.61h141.01v.62H197.63zM339.88 147.77h35.37v.31h-35.37z"/><path class="cls-3" d="M275.24 237.66a29.36 29.36 0 1129.36-29.36 29.4 29.4 0 01-29.36 29.36zm0-57.49a28.13 28.13 0 1028.13 28.13 28.16 28.16 0 00-28.13-28.13z" transform="translate(-112.37 -60.37)"/><g clip-path="url(#clip-path)" opacity=".5"><path class="cls-1" d="M140.81 157.99h30v30h-30z"/><path class="cls-10" d="M140.81 157.99h30v30h-30z"/><path class="cls-1" d="M140.81 157.99h30v30h-30z"/><path class="cls-10" d="M140.81 157.99h30v30h-30z"/><path class="cls-1" d="M170.81 157.99h30v30h-30z"/><path class="cls-10" d="M170.81 157.99h30v30h-30z"/><path class="cls-1" d="M140.81 157.99h30v30h-30z"/><path class="cls-10" d="M140.81 157.99h30v30h-30z"/><path class="cls-1" d="M140.81 157.99h30v30h-30z"/><path class="cls-10" d="M140.81 157.99h30v30h-30z"/><path class="cls-1" d="M170.81 157.99h30v30h-30z"/><path class="cls-10" d="M170.81 157.99h30v30h-30z"/><path class="cls-1" d="M140.81 157.99h30v30h-30z"/><path class="cls-10" d="M140.81 157.99h30v30h-30z"/><path class="cls-1" d="M170.81 157.99h30v30h-30z"/><path class="cls-10" d="M170.81 157.99h30v30h-30z"/><path class="cls-1" d="M140.81 157.99h30v30h-30z"/><path class="cls-10" d="M140.81 157.99h30v30h-30z"/><path class="cls-1" d="M170.81 157.99h30v30h-30z"/><path class="cls-10" d="M170.81 157.99h30v30h-30z"/><path class="cls-1" d="M140.81 127.99h30v30h-30z"/><path class="cls-10" d="M140.81 127.99h30v30h-30z"/><path class="cls-1" d="M110.81 127.99h30v30h-30z"/><path class="cls-10" d="M110.81 127.99h30v30h-30z"/><path class="cls-1" d="M170.81 127.99h30v30h-30z"/><path class="cls-10" d="M170.81 127.99h30v30h-30z"/><path class="cls-1" d="M110.81 127.99h30v30h-30z"/><path class="cls-10" d="M110.81 127.99h30v30h-30z"/><path class="cls-1" d="M170.81 127.99h30v30h-30z"/><path class="cls-10" d="M170.81 127.99h30v30h-30z"/><path class="cls-1" d="M110.81 127.99h30v30h-30z"/><path class="cls-10" d="M110.81 127.99h30v30h-30z"/><path class="cls-1" d="M170.81 127.99h30v30h-30z"/><path class="cls-10" d="M170.81 127.99h30v30h-30z"/><path class="cls-1" d="M140.81 127.99h30v30h-30z"/><path class="cls-10" d="M140.81 127.99h30v30h-30z"/><path class="cls-1" d="M110.81 127.99h30v30h-30z"/><path class="cls-10" d="M110.81 127.99h30v30h-30z"/><path class="cls-1" d="M170.81 127.99h30v30h-30z"/><path class="cls-10" d="M170.81 127.99h30v30h-30z"/><path class="cls-1" d="M140.81 127.99h30v30h-30z"/><path class="cls-10" d="M140.81 127.99h30v30h-30z"/><path class="cls-1" d="M170.81 127.99h30v30h-30z"/><path class="cls-10" d="M170.81 127.99h30v30h-30z"/><path class="cls-1" d="M140.81 97.99h30v30h-30z"/><path class="cls-10" d="M140.81 97.99h30v30h-30z"/><path class="cls-1" d="M140.81 127.99h30v30h-30z"/><path class="cls-10" d="M140.81 127.99h30v30h-30z"/><path class="cls-1" d="M170.81 97.99h30v30h-30z"/><path class="cls-10" d="M170.81 97.99h30v30h-30z"/><path class="cls-1" d="M170.81 127.99h30v30h-30z"/><path class="cls-10" d="M170.81 127.99h30v30h-30z"/><path class="cls-1" d="M140.81 97.99h30v30h-30z"/><path class="cls-10" d="M140.81 97.99h30v30h-30z"/><path class="cls-1" d="M170.81 97.99h30v30h-30z"/><path class="cls-10" d="M170.81 97.99h30v30h-30z"/><path class="cls-1" d="M140.81 97.99h30v30h-30z"/><path class="cls-10" d="M140.81 97.99h30v30h-30z"/><path class="cls-1" d="M140.81 97.99h30v30h-30z"/><path class="cls-10" d="M140.81 97.99h30v30h-30z"/><path class="cls-1" d="M140.81 97.99h30v30h-30z"/><path class="cls-10" d="M140.81 97.99h30v30h-30z"/></g><path class="cls-3" d="M275.24 222.53a14.24 14.24 0 1114.24-14.24 14.26 14.26 0 01-14.24 14.24zm0-27.86a13.62 13.62 0 1013.62 13.62 13.64 13.64 0 00-13.62-13.62z" transform="translate(-112.37 -60.37)"/><path class="cls-3" d="M220.33 248.17a67.81 67.81 0 11122.77-39.88h-.62a67.24 67.24 0 10-121.65 39.51z" transform="translate(-112.37 -60.37)"/><g class="cls-5"><path class="cls-4" d="M126 318.34l-1.45-2 120-87a37.24 37.24 0 1167.95-21.07H310a34.77 34.77 0 10-62.77 20.62l.74 1z" transform="translate(-112.37 -60.37)"/></g><g class="cls-5"><path class="cls-4" d="M126 318.34l-1.45-2 120-87a37.24 37.24 0 1167.95-21.07H310a34.77 34.77 0 10-62.77 20.62l.74 1z" transform="translate(-112.37 -60.37)"/></g><path class="cls-4" d="M275.24 259.91a51.82 51.82 0 01-41.54-21l.5-.37a51 51 0 0092-30.28h.62a51.68 51.68 0 01-51.58 51.65z" transform="translate(-112.37 -60.37)"/><path class="cls-3" d="M275.3 257h-.57v-1.24h2.44V257h-1.87zm-8-.66q-1.24-.2-2.46-.47l.26-1.21q1.19.26 2.4.46zm17.43-.26l-.24-1.21q1.2-.24 2.38-.53l.3 1.2q-1.25.29-2.48.53zm-27.07-2.38q-1.17-.45-2.31-1l.51-1.13q1.11.5 2.26.94zm36.63-.56l-.54-1.14c.75-.32 1.49-.66 2.22-1l.54 1.11q-1.12.53-2.27 1.02zm-45.53-4q-1.05-.68-2.07-1.42l.73-1q1 .72 2 1.38zm54.28-.82l-.71-1q1-.7 2-1.44l.76 1q-1.09.71-2.09 1.43zm-62.06-5.47Q240 242 239.2 241l.92-.83q.82.9 1.69 1.77zm69.64-1l-.9-.85q.84-.88 1.63-1.81l.94.8q-.86.9-1.72 1.81zm6.11-7.92l-1.05-.65q.64-1 1.23-2.11l1.08.6q-.65 1.04-1.31 2.11zm4.35-9l-1.16-.42q.41-1.14.77-2.32l1.18.36q-.41 1.14-.87 2.32zm2.41-9.7l-1.22-.17q.17-1.2.28-2.42l1.23.11q-.16 1.19-.34 2.42zM307.32 182.05l-.2-.24a41.55 41.55 0 00-25.33-14.39h-.31v-.31l7.44-46.6h.3a88.7 88.7 0 0130 10.54 89.61 89.61 0 0124.39 20.41l.2.24-.24.2zm-25.13-15.19a42.17 42.17 0 0125.21 14.32l35.6-29.55a89 89 0 00-24-20 88.05 88.05 0 00-29.48-10.42z" transform="translate(-112.37 -60.37)"/><path class="cls-4" d="M180.59 279.41l-.12-.92.61-.09.04.31.3-.04.09.61-.92.13z"/><path class="cls-4" d="M299 338.83l-.11-.61 1.26-.23.12.61zm6.31-1.31l-.14-.6 1.25-.3.15.6zm6.24-1.62l-.17-.59 1.23-.36.18.59zm6.16-1.92l-.2-.58 1.21-.42.2.58zm6.06-2.21l-.23-.57 1.19-.47.23.57zm5.94-2.5l-.25-.56 1.17-.53.26.56zm5.81-2.79l-.28-.55 1.14-.59.29.55z" transform="translate(-112.37 -60.37)"/><path class="cls-4" d="M228.8 263.05l-.3-.54.26-.15-.15-.27.53-.3.47.8-.81.46z"/><path class="cls-4" d="M338.45 318.09l-.63-1.09.54-.31.63 1.09zm-3.16-5.46l-.63-1.09.54-.31.63 1.09zm-3.16-5.46l-.63-1.09.53-.31.63 1.09zM329 301.7l-.63-1.09.54-.31.63 1.09zm-3.16-5.46l-.63-1.09.54-.31.63 1.09zm-3.16-5.46l-.68-1.1.54-.31.63 1.09zm-3.16-5.46l-.63-1.09.53-.31.58 1.08zm-3.17-5.46l-.63-1.09.54-.31.63 1.09zm-3.16-5.46l-.63-1.09.44-.31.63 1.09zm-3.19-5.48l-.63-1.09.54-.31.63 1.09zm-3.16-5.46l-.63-1.09.54-.31.63 1.09zm-3.2-5.46l-.64-1.1.53-.31.63 1.09zm-3.17-5.46l-.63-1.09.54-.31.63 1.09zm-3.16-5.46l-.63-1.08.54-.31.63 1.09zm-3.16-5.46l-.63-1.09.54-.31.63 1.09zm-3.15-5.49l-.65-1.13.53-.31.63 1.09zm-3.17-5.46l-.63-1.09.54-.31.63 1.09zm-3.16-5.46l-.67-1.1.54-.31.63 1.09zm-3.16-5.46l-.63-1.09.54-.31.63 1.09zm-3.16-5.46l-.63-1.09.53-.31.63 1.09z" transform="translate(-112.37 -60.37)"/><path class="cls-4" d="M162.79 148.44l-.04-.06-.23.03-.3-2.18 1.1 1.9-.19.12v.07l-.18.03-.16.09z"/><path class="cls-4" d="M292.15 333.86l-.15-1.25.61-.08.17 1.25zm-.86-6.25l-.17-1.25.61-.08.17 1.25zm-.86-6.25l-.17-1.25.61-.08.17 1.25zm-.86-6.25l-.17-1.25.61-.08.17 1.25zm-.86-6.25l-.17-1.25.61-.08.17 1.25zm-.86-6.25l-.17-1.25.61-.08.17 1.25zm-.85-6.28l-.17-1.25.61-.08.17 1.25zm-.86-6.25l-.17-1.25.61-.08.17 1.25zm-.86-6.25l-.17-1.25.61-.08.17 1.25zm-.86-6.25l-.17-1.25.61-.08.17 1.25zm-.86-6.25l-.17-1.25.61-.08.17 1.25zm-.86-6.25l-.17-1.25.61-.08.17 1.25zm-.86-6.25l-.17-1.25.61-.08.17 1.25zm-.86-6.25l-.17-1.25.61-.08.17 1.25zm-.86-6.25l-.17-1.25.61-.08.17 1.25zm-.91-6.33l-.21-1.2.61-.08.17 1.25zm-.86-6.25l-.17-1.25.61-.08.17 1.25zm-.86-6.25l-.17-1.25.61-.08.17 1.25zm-.86-6.25l-.18-1.25.61-.08.17 1.25zm-.87-6.25l-.17-1.25.61-.08.17 1.25z" transform="translate(-112.37 -60.37)"/><path class="cls-3" d="M275.24 317.87a109.86 109.86 0 01-88.61-45.15l.5-.36a108.92 108.92 0 00197-64h.62a110.05 110.05 0 01-109.51 109.51z" transform="translate(-112.37 -60.37)"/><path class="cls-3" d="M274.45 266.39h-1.26l.09-2.47h1.21zm3.79-.07l-.13-2.47 1.21-.07.18 2.47zm-8.83-.21l-1.26-.14.3-2.45 1.2.13zm-5-.73l-1.24-.25.52-2.42 1.18.24zm-4.92-1.17l-1.21-.36.73-2.36 1.16.35zm-4.8-1.6l-1.18-.47.93-2.29 1.13.45zm-4.64-2l-1.13-.57 1.13-2.2 1.08.54zm-4.44-2.42l-1.07-.66 1.32-2.09 1 .64zM306.7 257l-1.36-2.07 1-.67 1.4 2zm-65.29-1.64l-1-.76 1.5-2 1 .73zm69.39-1.32l-1.54-1.93.94-.77 1.57 1.91zm-73.33-1.84l-.94-.84 1.66-1.83.9.81zm77.15-1.46l-1.7-1.8.87-.84 1.73 1.76zm-80.8-2l-.82-.94 1.82-1.67.78.87zm84.32-1.59l-1.85-1.64.79-.91 1.88 1.6zm-87.65-2.2l-.78-1 2-1.51.75 1zm90.84-1.72l-2-1.47.71-1 2 1.43zm2.83-4.19l-2.16-1.3.63-1 2.13 1.25zm2.45-4.42l-2.21-1.11q.27-.54.53-1.09l2.24 1.05q-.27.53-.56 1.14zm2.06-4.62l-2.3-.91q.22-.56.43-1.13l2.32.85q-.22.59-.45 1.19zm1.64-4.78l-2.37-.7q.17-.58.33-1.17l2.39.64q-.17.61-.35 1.22zm1.21-4.9l-2.42-.49c.08-.39.15-.79.22-1.19l2.44.43-.24 1.23zm.77-5l-2.46-.27q.07-.6.12-1.2l2.46.22c-.04.4-.08.82-.13 1.24zm.33-5l-2.47-.05v-1.21h2.47q.01.58-.01 1.21z" transform="translate(-112.37 -60.37)"/><g class="cls-5"><path class="cls-4" d="M203.56 261a88.82 88.82 0 11160.77-52.3h-.94a88 88 0 10-159.07 51.74z" transform="translate(-112.37 -60.37)"/></g><path class="cls-3" d="M203.12 252.71l-.64-1.06 1.06-.63.63 1.05zm-5.18-9.92l-.49-1.14 1.14-.48.49 1.13zm-3.82-10.53l-.34-1.2 1.19-.33q.16.59.33 1.18zm-2.39-10.94l-.18-1.23 1.23-.16q.08.61.17 1.21zm.3-11.18h-1.24v-1.25H192v1.25zm166.41-9.83q-.06-.61-.13-1.22l1.23-.14q.07.62.13 1.24zm-165.89-1.19l-1.23-.14q.07-.62.15-1.24l1.23.16q-.08.61-.15 1.22zm164.07-9.69q-.14-.6-.29-1.19l1.2-.3.3 1.21zm-162.09-1.16l-1.2-.3q.15-.61.31-1.21l1.19.32q-.15.59-.3 1.19zm158.85-9.38l-.45-1.14 1.15-.46c.15.39.3.77.45 1.16zm-155.44-1.12l-1.15-.46.47-1.16 1.14.48zm150.83-8.9l-.59-1.07 1.08-.61.6 1.09zm-146.07-1.06l-1.08-.61.62-1.08 1.07.62zm140.17-8.26l-.73-1 1-.74.74 1zm-134.13-1l-1-.74.76-1 1 .76zm127.05-7.48l-.85-.88.88-.87.87.89zm-119.85-.88l-.88-.87.88-.88.87.88zm111.73-6.58l-1-.76.76-1 1 .77zm-103.49-.77l-.76-1 1-.76.75 1zm94.45-5.56l-1.06-.63.63-1.07 1.07.64zm-85.33-.63l-.63-1.07 1.08-.62.61 1.08zm75.54-4.45l-1.13-.48.48-1.14 1.15.49zm-65.67-.48l-.48-1.14 1.15-.47.46 1.15zm55.28-3.26l-1.19-.33.32-1.19 1.2.34zm-44.85-.32l-.33-1.14 1.2-.32.31 1.2zm34.05-2l-1.22-.17.16-1.23 1.23.17zm-23.24-.14l-.16-1.23 1.24-.15.14 1.23zm12.24-.72h-1.23V124h1.25zM319.18 267.73l-2.94-4a69.18 69.18 0 0015.71-16.21l4.06 2.82a74.13 74.13 0 01-16.83 17.39z" transform="translate(-112.37 -60.37)"/><g class="cls-5"><path class="cls-4" d="M323.48 256l-3.74-3.68.11-.11a62.47 62.47 0 0012.62-18.53l.06-.14 4.8 2.13-.06.14a67.7 67.7 0 01-13.68 20.08zm-3.31-3.69l3.3 3.25a67.37 67.37 0 0013.44-19.74l-4.24-1.88a62.76 62.76 0 01-12.5 18.35z" transform="translate(-112.37 -60.37)"/></g><g class="cls-5"><path class="cls-4" d="M302.73 245.22l-84.32-58.47.35-.51 84.32 58.47-.35.51z"/></g><g class="cls-5"><path class="cls-4" d="M323.48 256l-3.74-3.68.11-.11a62.47 62.47 0 0012.62-18.53l.06-.14 4.8 2.13-.06.14a67.7 67.7 0 01-13.68 20.08zm-3.31-3.69l3.3 3.25a67.37 67.37 0 0013.44-19.74l-4.24-1.88a62.76 62.76 0 01-12.5 18.35z" transform="translate(-112.37 -60.37)"/></g><g class="cls-5"><path class="cls-4" d="M302.73 245.22l-84.32-58.47.35-.51 84.32 58.47-.35.51z"/></g><path class="cls-4" d="M349.16 258.3l-7.92-5.49.67-1 7.92 5.49zm-7.49-5.57l7.41 5.14.31-.45-7.39-5.14z" transform="translate(-112.37 -60.37)"/><path class="cls-4" transform="rotate(35 392.237 52.75)" d="M347.57 263.28h9.33v.86h-9.33z"/><path class="cls-4" transform="rotate(34.74 410.476 66.317)" d="M367.9 275.72h4.55v.86h-4.55z"/><path class="cls-4" transform="rotate(34.74 415.79 70.008)" d="M373.22 279.41h4.55v.86h-4.55z"/><path class="cls-4" transform="rotate(34.74 428.853 79.065)" d="M383.75 288.47h9.62v.86h-9.62z"/><path class="cls-4" transform="rotate(34.74 438.649 85.863)" d="M393.68 295.26h9.36v.86h-9.36z"/><path class="cls-4" transform="rotate(34.74 453.501 96.15)" d="M408.16 305.56h10.11v.86h-10.11z"/><path class="cls-4" transform="rotate(34.74 416.758 71.196)" d="M375.01 280.6h2.94v.86h-2.94z"/><path class="cls-4" transform="rotate(34.74 420.806 73.984)" d="M379.45 283.4h2.13v.86h-2.13z"/><path class="cls-4" d="M363 273.29l-5.9-4.09.67-1 5.9 4.09zm-5.47-4.17l5.39 3.74.31-.45-5.39-3.74z" transform="translate(-112.37 -60.37)"/><path class="cls-4" transform="rotate(34.74 404.515 63.584)" d="M362.91 272.97h2.6v.86h-2.6z"/><path class="cls-4" transform="rotate(34.74 392.235 49.684)" d="M350.13 259.08h3.6v.86h-3.6z"/><path class="cls-4" transform="rotate(34.74 397.638 52.82)" d="M355.54 262.23h3.6v.86h-3.6z"/><path class="cls-4" transform="rotate(34.74 407.5 60.281)" d="M365.41 269.67h3.6v.86h-3.6z"/><path class="cls-4" transform="rotate(34.74 429.141 75.272)" d="M384.56 284.67h8.55v.86h-8.55z"/><path class="cls-4" transform="rotate(34.74 433.925 78.11)" d="M391.17 287.52h4.91v.86h-4.91z"/><path class="cls-4" transform="rotate(34.74 438.02 81.444)" d="M397.15 290.84h1.17v.86h-1.17z"/><path class="cls-4" transform="rotate(34.74 439.475 82.446)" d="M398.6 291.84h1.17v.86h-1.17z"/><path class="cls-4" transform="rotate(34.74 440.861 83.399)" d="M399.99 292.81h1.17v.86h-1.17z"/><path class="cls-4" transform="rotate(34.74 442.205 84.33)" d="M401.33 293.74h1.17v.86h-1.17z"/><path class="cls-4" transform="rotate(34.74 453.548 92.205)" d="M412.67 301.6h1.17v.86h-1.17z"/><path class="cls-4" transform="rotate(34.74 454.955 93.169)" d="M414.08 302.58h1.17v.86h-1.17z"/><path class="cls-4" transform="rotate(34.74 398.756 54.207)" d="M353.42 263.6h10.07v.86h-10.07z"/><path class="cls-3" d="M276.9 313v-1.24q1.85 0 3.68-.12l.06 1.23q-1.87.13-3.74.13zm-6.21-.08q-1.87-.08-3.72-.23l.1-1.23q1.83.14 3.68.22zm16.14-.53l-.14-1.23q1.84-.2 3.66-.47l.18 1.22q-1.85.27-3.71.48zm-26-.36q-1.85-.26-3.69-.58l.21-1.22q1.81.32 3.64.57zm35.86-1.2l-.25-1.21q1.81-.38 3.6-.81l.29 1.2q-1.86.44-3.69.82zM251 310.2q-1.82-.43-3.61-.92l.33-1.19q1.77.49 3.57.91zm55.26-1.86l-.37-1.18q1.77-.55 3.5-1.15l.41 1.17q-1.75.61-3.53 1.16zm-64.81-.89q-1.77-.6-3.52-1.27l.44-1.15q1.72.66 3.48 1.25zM315.6 305l-.48-1.14q1.7-.71 3.37-1.48l.52 1.12q-1.69.74-3.41 1.5zm-83.41-1.17q-1.71-.77-3.38-1.6l.55-1.11q1.65.82 3.34 1.58zm92.37-3.09l-.56-1.13q1.62-.87 3.21-1.79l.62 1.07q-1.62.93-3.26 1.81zm-101.24-1.43q-1.62-.93-3.21-1.91l.65-1.05q1.57 1 3.17 1.89zm109.77-3.66l-.68-1q1.53-1 3-2.09l.72 1q-1.49 1.01-3.04 2.04zm-118.16-1.68q-1.53-1.08-3-2.21l.75-1q1.47 1.12 3 2.18zm126.17-4.2l-.78-1q1.43-1.16 2.82-2.37l.81.93q-1.4 1.22-2.85 2.39zm-134-1.92q-1.42-1.22-2.79-2.48l.84-.91q1.35 1.25 2.75 2.45zm141.44-4.7l-.87-.88q1.32-1.29 2.59-2.63l.9.85q-1.31 1.31-2.64 2.62zM199.85 281q-1.29-1.34-2.54-2.73l.92-.83q1.23 1.37 2.51 2.7zm155.43-5.16l-.94-.8q1.19-1.41 2.33-2.86l1 .76q-1.18 1.46-2.39 2.88zm6.05-7.89l-1-.71q1.05-1.52 2-3.07l1 .67q-.93 1.56-1.99 3.09zm5.28-8.44l-1.08-.61q.9-1.61 1.75-3.25l1.1.57q-.85 1.65-1.76 3.27zm4.45-8.91l-1.13-.5q.75-1.69 1.43-3.41l1.15.46q-.68 1.73-1.44 3.44zm3.59-9.29l-1.17-.39q.58-1.75 1.1-3.52l1.19.35q-.53 1.78-1.11 3.54zm2.68-9.58l-1.2-.28q.41-1.79.76-3.61l1.21.23q-.35 1.83-.77 3.65zm1.75-9.79l-1.23-.16q.24-1.82.41-3.66l1.23.12q-.17 1.85-.41 3.69z" transform="translate(-112.37 -60.37)"/><path class="cls-3" transform="rotate(-35.93 -2.778 440.019)" d="M132.15 296.16h28.69v1.51h-28.69z"/><path class="cls-3" transform="rotate(-35.93 26.965 428.122)" d="M161.9 284.26h28.69v1.51H161.9z"/><path class="cls-3" transform="rotate(-35.93 -18.59 461.136)" d="M116.34 317.5h28.69v1.07h-28.69z"/><path class="cls-3" transform="rotate(-35.93 16.827 425.806)" d="M162.31 281.95h7.59v1.51h-7.59z"/><path class="cls-3" transform="rotate(-35.93 24.374 420.346)" d="M169.85 276.9h7.59v.67h-7.59z"/><path class="cls-3" transform="rotate(-35.93 48.372 402.94)" d="M196.68 259.08h1.96v1.51h-1.96z"/><path class="cls-3" transform="rotate(-35.93 45.258 405.185)" d="M193.57 261.33h1.96v1.51h-1.96z"/><path class="cls-3" transform="rotate(-35.93 42.45 407.223)" d="M190.75 263.38h1.96v1.51h-1.96z"/><path class="cls-3" transform="rotate(-35.9 35.831 410.471)" d="M179.02 268.65h10.86v1.51h-10.86z"/><path class="cls-3" transform="rotate(-35.93 12.968 425.407)" d="M160.66 281.55h3.16v1.51h-3.16z"/><path class="cls-3" transform="rotate(-35.93 9.212 428.109)" d="M156.92 284.26h3.16v1.51h-3.16z"/><path class="cls-3" d="M240.35 233.74a43.12 43.12 0 1178.21-25.07h-1.24a41.89 41.89 0 10-76 24.35z" transform="translate(-112.37 -60.37)"/><g clip-path="url(#clip-path-2)"><path class="cls-1" d="M80.81 157.99h30v30h-30z"/><path class="cls-10" d="M80.81 157.99h30v30h-30z"/><path class="cls-1" d="M80.81 157.99h30v30h-30z"/><path class="cls-10" d="M80.81 157.99h30v30h-30z"/><path class="cls-1" d="M80.81 127.99h30v30h-30z"/><path class="cls-10" d="M80.81 127.99h30v30h-30z"/><path class="cls-1" d="M230.81 127.99h30v30h-30z"/><path class="cls-10" d="M230.81 127.99h30v30h-30z"/><path class="cls-1" d="M80.81 97.99h30v30h-30z"/><path class="cls-10" d="M80.81 97.99h30v30h-30z"/><path class="cls-1" d="M230.81 97.99h30v30h-30z"/><path class="cls-10" d="M230.81 97.99h30v30h-30z"/><path class="cls-1" d="M80.81 97.99h30v30h-30z"/><path class="cls-10" d="M80.81 97.99h30v30h-30z"/><path class="cls-1" d="M230.81 97.99h30v30h-30z"/><path class="cls-10" d="M230.81 97.99h30v30h-30z"/><path class="cls-1" d="M200.81 97.99h30v30h-30z"/><path class="cls-10" d="M200.81 97.99h30v30h-30z"/><path class="cls-1" d="M80.81 67.99h30v30h-30z"/><path class="cls-10" d="M80.81 67.99h30v30h-30z"/><path class="cls-1" d="M200.81 67.99h30v30h-30z"/><path class="cls-10" d="M200.81 67.99h30v30h-30z"/><path class="cls-1" d="M110.81 67.99h30v30h-30z"/><path class="cls-10" d="M110.81 67.99h30v30h-30z"/><path class="cls-1" d="M200.81 67.99h30v30h-30z"/><path class="cls-10" d="M200.81 67.99h30v30h-30z"/><path class="cls-1" d="M110.81 67.99h30v30h-30z"/><path class="cls-10" d="M110.81 67.99h30v30h-30z"/><path class="cls-1" d="M170.81 67.99h30v30h-30z"/><path class="cls-10" d="M170.81 67.99h30v30h-30z"/><path class="cls-1" d="M140.81 37.99h30v30h-30z"/><path class="cls-10" d="M140.81 37.99h30v30h-30z"/><path class="cls-1" d="M140.81 67.99h30v30h-30z"/><path class="cls-10" d="M140.81 67.99h30v30h-30z"/><path class="cls-1" d="M140.81 37.99h30v30h-30z"/><path class="cls-10" d="M140.81 37.99h30v30h-30z"/></g><path class="cls-3" d="M275.24 256.37h-1.25v-1.24h1.22v1.24zm17.15-3.1l-.39-1.15 1.13-.45.47 1.14zm-35.44-.61l-1.15-.5.51-1.13 1.12.49zm51.25-9.31l-.85-.9.88-.85.87.88zm-66.7-1.16l-.87-.9.9-.85.85.88zm77.5-14.06l-1.13-.5q.25-.56.49-1.13l1.14.5c-.16.37-.33.75-.5 1.13zm-87.78-1.52c-.16-.39-.31-.78-.46-1.17l1.16-.43q.21.57.44 1.13zm91.9-16.69h-1.24v-1.22h1.24q.02.6 0 1.23zM229 208.29h-1.24v-1.25H229v1.25zm90.11-15.61c-.14-.38-.29-.76-.43-1.14l1.15-.46q.23.58.45 1.17zm-86.42-2.19l-1.14-.48q.25-.58.51-1.15l1.12.52q-.28.55-.52 1.11zm76.94-13.31l-.84-.88.89-.86.86.91zm-66.68-1.7l-.87-.88.91-.86.84.91zm52-9l-1.12-.5.49-1.14 1.15.51zm-36.77-.94l-.46-1.15 1.17-.45.43 1.16zm19.09-3.29h-1.22V161h1.25z" transform="translate(-112.37 -60.37)"/><path class="cls-4" d="M275.24 323h-.81v-.62h1.24v.62h-.43zm5.39-.12v-.62l1.23-.06v.62zm-11.15 0l-1.24-.07v-.62l1.23.07zm17.33-.43l-.06-.62 1.23-.13.07.61zm-23.5 0l-1.23-.13.07-.61 1.23.13zm29.69-.85l-.1-.61 1.22-.2.1.61zm-35.79-.06l-1.22-.2.1-.61 1.22.2zm41.79-1.06l-.13-.6 1.2-.26.14.6zm-48-.08l-1.21-.27.14-.6 1.2.27zm54-1.37l-.16-.6 1.19-.33.17.59zm-60-.1l-1.19-.33.19-.6 1.19.33zm66-1.67l-.19-.59 1.17-.39.2.58zm-71.89-.12l-1.18-.4.2-.58 1.17.4zm77.72-2l-.22-.58 1.15-.45.23.57zm-83.56-.14l-1.16-.46.23-.57 1.15.46zm89.26-2.26l-.25-.56 1.12-.51.26.56zm-95-.17l-1.13-.52.26-.56 1.12.52zm100.54-2.53l-.28-.55 1.09-.57.29.55zM222 309.87l-1.1-.58.29-.54 1.09.58zm111.52-2.8l-.31-.53 1.06-.63.32.53zm-116.93-.24l-1.06-.64.32-.53 1.06.64zm122.17-3.05l-.34-.51 1-.69.35.51zm-127.41-.27l-1-.7.35-.51 1 .69zm132.47-3.3l-.37-.49 1-.74.37.49zm-137.52-.3l-1-.75.38-.49 1 .75zm142.37-3.54l-.4-.47.94-.8.4.47zM201.44 296l-.94-.8.4-.47.94.8zm151.87-3.77l-.42-.45.9-.84.42.45zm-156.5-.35l-.9-.85.43-.45.89.85zm160.92-4l-.44-.43.85-.89.45.42zm-165.32-.37l-.85-.9.45-.42.85.89zm169.51-4.2l-.47-.41.8-.94.47.4zM188.24 283l-.8-.94.47-.4.8.94zm177.6-4.41l-.49-.38.75-1 .49.37zm3.67-5l-.51-.35.7-1 .51.35zm3.39-5.19l-.53-.33.63-1.07.53.32zm3.1-5.4l-.54-.29.59-1.09.55.29zm2.82-5.53l-.56-.27.53-1.12.56.26zm2.51-5.68l-.57-.23.46-1.15.57.23zm2.2-5.81l-.58-.2q.2-.58.4-1.17l.59.2zm1.88-5.91l-.59-.17.33-1.19.6.16zm1.55-6l-.6-.14q.14-.6.27-1.2l.6.13zm1.22-6.07l-.61-.1.2-1.22.61.1c-.03.43-.1.84-.17 1.22zm.89-6.13l-.61-.07.14-1.22.62.07q-.04.63-.12 1.24zm.56-6.17h-.62q0-.62.07-1.23h.62q0 .64-.03 1.25z" transform="translate(-112.37 -60.37)"/><path class="cls-3" d="M274.07 239.62a.61.61 0 01-.59-.64.62.62 0 01.63-.59.62.62 0 01.61.64.62.62 0 01-.62.59zm5.56-.9a.61.61 0 01.52-.7.61.61 0 01.7.51.62.62 0 01-.51.7h-.1a.62.62 0 01-.61-.51zm-11.79 0a.62.62 0 01-.45-.75.6.6 0 01.74-.45.63.63 0 01.46.75.62.62 0 01-.61.47h-.14zm17.79-1.53a.6.6 0 01.36-.79.62.62 0 01.79.35.62.62 0 01-.36.8.72.72 0 01-.22 0 .6.6 0 01-.58-.32zm-23.74-.57a.62.62 0 01-.3-.82.62.62 0 01.83-.3.61.61 0 01.3.82.62.62 0 01-.57.36.5.5 0 01-.26-.01zm29.3-2.09a.61.61 0 01.2-.85.62.62 0 01.85.19.63.63 0 01-.2.85.54.54 0 01-.33.1.63.63 0 01-.52-.24zm-34.69-1.15a.61.61 0 01-.12-.87.61.61 0 01.87-.12.62.62 0 01.12.86.63.63 0 01-.5.25.59.59 0 01-.37-.07zm39.61-2.57a.61.61 0 010-.87.6.6 0 01.87 0 .61.61 0 010 .88.64.64 0 01-.43.17.64.64 0 01-.44-.13zm-44.25-1.68a.6.6 0 010-.87.6.6 0 01.86 0 .61.61 0 010 .87.57.57 0 01-.41.16.59.59 0 01-.45-.12zm48.34-2.94a.63.63 0 01-.16-.85.62.62 0 01.87-.16.63.63 0 01.16.87.63.63 0 01-.52.26.64.64 0 01-.35-.08zm-52-2.14a.62.62 0 01.22-.85.61.61 0 01.84.22.63.63 0 01-.22.85.68.68 0 01-.31.09.61.61 0 01-.58-.27zm55.14-3.2a.62.62 0 01-.33-.81.62.62 0 01.82-.33.64.64 0 01.33.82.63.63 0 01-.58.37.53.53 0 01-.29-.01zm-57.74-2.52a.62.62 0 01.38-.79.61.61 0 01.78.4.61.61 0 01-.38.78.57.57 0 01-.2 0 .62.62 0 01-.63-.35zm59.63-3.33a.62.62 0 01-.48-.73.61.61 0 01.73-.48.6.6 0 01.48.72.6.6 0 01-.61.5h-.12zm-61.09-2.81a.6.6 0 01.53-.68.61.61 0 01.69.53.63.63 0 01-.53.69h-.09a.6.6 0 01-.6-.5zm61.22-3.93a.61.61 0 01.62-.62.61.61 0 01.62.62.61.61 0 01-.62.62.61.61 0 01-.63-.59zm0-1.53a.6.6 0 01.58-.64.62.62 0 01.66.58.63.63 0 01-.59.66.61.61 0 01-.69-.57zm-60.77-.16a.62.62 0 01-.57-.66.61.61 0 01.67-.57.62.62 0 01.57.66.62.62 0 01-.62.57zm59.87-5.81a.62.62 0 01.45-.75.62.62 0 01.75.44.64.64 0 01-.46.75h-.2a.61.61 0 01-.59-.41zm-58.92-.28a.62.62 0 01-.43-.77.62.62 0 01.77-.42.62.62 0 01.43.77.64.64 0 01-.61.44.36.36 0 01-.2.01zm56.83-5.39a.62.62 0 01.28-.83.62.62 0 01.83.28.63.63 0 01-.28.83.73.73 0 01-.27.06.61.61 0 01-.6-.31zm-54.68-.4a.61.61 0 01-.26-.83.6.6 0 01.83-.26.61.61 0 01.27.83.63.63 0 01-.56.33.57.57 0 01-.32-.04zm51.5-4.75a.61.61 0 01.11-.87.61.61 0 01.87.11.61.61 0 01-.11.87.66.66 0 01-.38.14.59.59 0 01-.53-.19zm-48.23-.48a.61.61 0 01-.1-.87.63.63 0 01.88-.1.62.62 0 01.09.87.59.59 0 01-.48.23.57.57 0 01-.43-.1zm44.04-3.89a.62.62 0 010-.88.61.61 0 01.87-.06.62.62 0 01.06.88.64.64 0 01-.47.21.67.67 0 01-.46-.15zm-39.84-.57a.62.62 0 01.09-.88.62.62 0 01.87.09.61.61 0 01-.07.87.63.63 0 01-.4.15.62.62 0 01-.49-.23zm34.9-2.94a.61.61 0 01-.22-.84.62.62 0 01.84-.23.63.63 0 01.23.84.63.63 0 01-.54.32.56.56 0 01-.31-.08zm-29.84-.61a.61.61 0 01.25-.83.62.62 0 01.84.25.62.62 0 01-.26.84.58.58 0 01-.28.07.62.62 0 01-.55-.31zm24.32-1.83a.6.6 0 01-.39-.78.61.61 0 01.78-.4.63.63 0 01.39.78.63.63 0 01-.59.43.5.5 0 01-.19-.01zm-18.67-.62a.61.61 0 01.42-.77.61.61 0 01.77.42.62.62 0 01-.41.77h-.19a.63.63 0 01-.59-.42zm12.76-.64a.61.61 0 01-.54-.68.61.61 0 01.68-.54.62.62 0 01.54.68.63.63 0 01-.62.56h-.06zm-6.71-.63a.6.6 0 01.56-.67.61.61 0 01.67.56.61.61 0 01-.56.67h-.06a.61.61 0 01-.62-.56zM281.78 89.93c-1.59-.09-3.2-.14-4.81-.16v-.62c1.61 0 3.24.08 4.84.16zM217.12 105.21l-.31-.54 1.08-.61.3.54zm4.34-2.35l-.28-.55 1.1-.56.28.55zm4.43-2.17l-.26-.56 1.13-.52.25.56zm4.52-2l-.24-.57 1.15-.47.23.57zm4.59-1.77l-.21-.58 1.16-.42.21.58zm4.66-1.6l-.19-.59 1.18-.37.18.59zm4.73-1.4l-.16-.6 1.2-.32.16.6zm4.78-1.2l-.14-.6 1.21-.27.13.6zm4.83-1l-.11-.61 1.22-.22.11.61zm4.87-.8l-.09-.61 1.23-.17.08.61zm4.89-.59l-.06-.62 1.23-.12.07.63zm4.91-.38v-.62l1.24-.06v.62zm4.92-.18v-.62h1.24v.62h-1.23z" transform="translate(-112.37 -60.37)"/><path class="cls-3" d="M176.4 275.64a119.1 119.1 0 01-20.52-67c0-42.77 23.35-82.62 60.93-104l.31.54c-37.39 21.27-60.62 60.92-60.62 103.47a118.49 118.49 0 0020.42 66.62z" transform="translate(-112.37 -60.37)"/><g class="cls-5"><path class="cls-4" d="M162.76 251.32a120.57 120.57 0 01-7.12-29.87l2.46-.26a118.1 118.1 0 007 29.25z" transform="translate(-112.37 -60.37)"/></g><g class="cls-5"><path class="cls-4" d="M162.76 251.32a120.57 120.57 0 01-7.12-29.87l2.46-.26a118.1 118.1 0 007 29.25z" transform="translate(-112.37 -60.37)"/></g><path class="cls-3" d="M248.13 121.14a.31.31 0 01-.09-.6 91.17 91.17 0 0127.38-4.2c1.66 0 3.33 0 5 .13a.31.31 0 010 .62c-1.63-.09-3.29-.13-4.94-.13a90.56 90.56 0 00-27.19 4.17h-.09z" transform="translate(-112.37 -60.37)"/><path class="cls-4" d="M200.52 262.67l-.72-1 .51-.35.71 1zm-2.79-4.1l-.66-1 .52-.33.66 1zm-2.57-4.24l-.61-1.08.54-.3.6 1.07zm-2.34-4.38l-.55-1.11.56-.27.54 1.11zm-2.1-4.49l-.49-1.14.57-.24.48 1.13zm-1.85-4.6l-.42-1.16.58-.21.42 1.16zm-1.6-4.7l-.36-1.16.59-.18.36 1.18zm-1.35-4.77l-.3-1.2.6-.14q.14.6.29 1.2zm-1.09-4.84q-.12-.61-.23-1.22l.61-.11q.11.61.23 1.21zm-.83-4.9q-.09-.61-.17-1.23l.61-.08.16 1.22zm-.56-4.93l-.1-1.24h.62q0 .61.1 1.23zm-.3-4.95v-1.24h.62v1.23zm.58-4.95h-.62v-1.24h.62q.02.62 0 1.24zm.28-4.92h-.62q0-.62.1-1.24l.62.05q-.1.58-.1 1.19zm.5-4.9l-.61-.08q.08-.62.17-1.23l.61.09q-.14.61-.21 1.22zm.76-4.87l-.61-.11q.11-.61.23-1.22l.61.12q-.16.61-.27 1.21zm1-4.83l-.6-.15q.15-.6.3-1.21l.6.15q-.16.61-.31 1.22zm1.29-4.77l-.59-.18q.18-.6.37-1.19l.59.19zm1.55-4.69l-.58-.21.43-1.17.58.22zm1.8-4.59l-.57-.24.49-1.14.57.25zm2-4.49l-.56-.27.55-1.11.55.28zm2.29-4.37l-.54-.3.61-1.08.54.31zm2.52-4.24l-.52-.33.67-1 .52.34zm2.74-4.1l-.5-.36.72-1 .5.36zm3-3.95l-.49-.38.78-1 .48.39zm3.16-3.79l-.46-.41.85-.9.46.41zm3.35-3.61l-.44-.43.87-.88.44.44zm3.54-3.43l-.42-.46.92-.81.41.46zm3.71-3.24l-.39-.48 1-.78.39.48zm3.88-3l-.37-.5 1-.73.36.5zm4-2.83l-.34-.52 1-.68.33.52zm4.17-2.61L229 129l1.07-.62.31.54zm4.31-2.38l-.28-.55 1.1-.56.28.55zM238 125l-.25-.56 1.13-.5.25.57zm4.53-1.91l-.22-.58 1.16-.44.22.58zm4.63-1.66l-.19-.59 1.06-.34.18.59z" transform="translate(-112.37 -60.37)"/><path class="cls-3" d="M276.73 300.51v-.62h1.23v.62zm-3.73 0h-1.24v-.62h1.23v.62zm8.68-.2v-.62l1.23-.09.05.62zm-13.68-.07l-1.24-.11.06-.62 1.23.11zm18.58-.42l-.07-.61 1.22-.16.08.61zm-23.52-.1l-1.23-.17.09-.61 1.22.17zm-4.9-.79l-1.22-.24.12-.61 1.21.24zm-4.85-1l-1.21-.3.16-.6 1.19.3zm-4.79-1.31l-1.19-.37.19-.59 1.18.37zm-4.67-1.62l-1.16-.43.22-.58 1.16.43zm-4.62-1.82l-1.14-.49.25-.56 1.13.49zm-4.51-2.06l-1.11-.55.28-.55 1.1.55zm-4.4-2.3l-1.08-.61.31-.54 1.07.61zm-4.26-2.53l-1-.67.34-.52 1 .66zm-4.12-2.76l-1-.72.36-.5 1 .72zm-4-3l-1-.78.39-.48 1 .77zm-3.8-3.18l-.92-.83.42-.46.92.82zm-3.6-3.35l-.88-.87.44-.43.87.87zm-3.44-3.57l-.83-.92.46-.41.82.91zm-3.24-3.75l-.78-1 .48-.38.77 1zm-3-3.92l-.09-.12.5-.36.08.12z" transform="translate(-112.37 -60.37)"/><path class="cls-3" d="M222.34 283.84a92 92 0 01-21.61-21.18l.5-.36a91.31 91.31 0 0021.46 21zM275.24 300.52a91.63 91.63 0 01-37.36-7.91l.25-.57a91.53 91.53 0 0049.63 7l.08.61a92.56 92.56 0 01-12.6.87z" transform="translate(-112.37 -60.37)"/><path class="cls-3" d="M275.24 301.45a93.21 93.21 0 01-18.23-1.8l.48-2.42a90.92 90.92 0 0030.14.9l.34 2.45a93.44 93.44 0 01-12.73.87zM275.21 292.16c-2.56 0-5.16-.12-7.71-.35l-3.08-.28.56-6.15 3.08.28a77.83 77.83 0 008.71.31q1.6 0 3.18-.13l3.08-.18.37 6.17-3.08.18q-1.7.1-3.42.14zm-9.44-1.75l1.85.17a83.68 83.68 0 009.26.33c1.13 0 2.25-.07 3.37-.14l1.85-.11-.22-3.7-1.85.11q-1.6.09-3.22.13a80.1 80.1 0 01-8.84-.32l-1.85-.17zM251.23 288.06l-2.35-.78a82.89 82.89 0 01-11.73-4.95L235 281.2l2.27-4.39 2.2 1.13a78 78 0 0011 4.65l2.35.78zM223.2 273.32l-1.88-1.6a84 84 0 01-9-9l-1.62-1.87 3.74-3.24 1.62 1.87a79 79 0 008.5 8.43l1.88 1.6z" transform="translate(-112.37 -60.37)"/><g class="cls-5"><path class="cls-4" d="M230.73 147.31h109.15v1.24H230.73z"/><path class="cls-4" d="M330.87 145.57h7.77v2.35h-7.77zM277.02 147.81h33.9v2.09h-33.9z"/></g><g class="cls-5"><path class="cls-4" d="M230.73 147.31h109.15v1.24H230.73z"/><path class="cls-4" d="M330.87 145.57h7.77v2.35h-7.77zM277.02 147.81h33.9v2.09h-33.9z"/></g><path class="cls-4" d="M361.08 146.98h7.73v1.88h-7.73z"/><g class="cls-5"><circle class="cls-3" cx="162.87" cy="147.92" r="3.34"/></g><g clip-path="url(#clip-path-3)"><path class="cls-1" d="M170.81 37.99h30v30h-30z"/><path class="cls-10" d="M170.81 37.99h30v30h-30z"/></g><g clip-path="url(#clip-path-4)"><path class="cls-1" d="M200.81 37.99h30v30h-30z"/><path class="cls-10" d="M200.81 37.99h30v30h-30z"/><path class="cls-1" d="M170.81 37.99h30v30h-30z"/><path class="cls-10" d="M170.81 37.99h30v30h-30z"/><path class="cls-1" d="M200.81 37.99h30v30h-30z"/><path class="cls-10" d="M200.81 37.99h30v30h-30z"/><path class="cls-1" d="M200.81 37.99h30v30h-30z"/><path class="cls-10" d="M200.81 37.99h30v30h-30z"/><path class="cls-1" d="M200.81 7.99h30v30h-30z"/><path class="cls-10" d="M200.81 7.99h30v30h-30z"/><path class="cls-1" d="M200.81 7.99h30v30h-30z"/><path class="cls-10" d="M200.81 7.99h30v30h-30z"/></g><g clip-path="url(#clip-path-5)"><path class="cls-1" d="M200.81 7.99h30v30h-30z"/><path class="cls-10" d="M200.81 7.99h30v30h-30z"/></g><g clip-path="url(#clip-path-6)"><path class="cls-1" d="M230.81 7.99h30v30h-30z"/><path class="cls-10" d="M230.81 7.99h30v30h-30z"/><path class="cls-1" d="M230.81 37.99h30v30h-30z"/><path class="cls-10" d="M230.81 37.99h30v30h-30z"/><path class="cls-1" d="M230.81 7.99h30v30h-30z"/><path class="cls-10" d="M230.81 7.99h30v30h-30z"/><path class="cls-1" d="M230.81 7.99h30v30h-30z"/><path class="cls-10" d="M230.81 7.99h30v30h-30z"/><path class="cls-1" d="M200.81 7.99h30v30h-30z"/><path class="cls-10" d="M200.81 7.99h30v30h-30z"/></g><g clip-path="url(#clip-path-7)"><path class="cls-1" d="M230.81 37.99h30v30h-30z"/><path class="cls-10" d="M230.81 37.99h30v30h-30z"/></g><g class="cls-5"><circle class="cls-3" cx="218.16" cy="19.36" r="2.49"/></g><g class="cls-5"><circle class="cls-3" cx="218.16" cy="19.36" r="2.49"/></g><path class="cls-3" d="M330.53 85.31a5.58 5.58 0 115.58-5.58 5.59 5.59 0 01-5.58 5.58zm0-10.05a4.47 4.47 0 104.47 4.47 4.47 4.47 0 00-4.47-4.47z" transform="translate(-112.37 -60.37)"/></g></g></svg>