<svg preserveAspectRatio="none" xmlns="http://www.w3.org/2000/svg" viewBox="0 0 380.42 370.93"><defs><style>.cls-1{isolation:isolate;}.cls-2{mix-blend-mode:screen;}.cls-3{fill:#03a6ff;}</style></defs><title>circle48</title><g class="cls-1"><g id="Layer_7" data-name="Layer 7"><g class="cls-2"><g class="cls-2"><path class="cls-3" d="M364.25,1102.18A107.08,107.08,0,0,1,441.33,1205H426.75a92.51,92.51,0,0,0-66.58-88.81Z" transform="translate(-140.76 -1015.42)"/><path class="cls-3" d="M259.79,1128a106.57,106.57,0,0,1,80.48-30l-0.81,14.55a92,92,0,0,0-69.54,25.89Z" transform="translate(-140.76 -1015.42)"/><path class="cls-3" d="M279.39,1297a107.64,107.64,0,0,1-44.85-52.87,104.13,104.13,0,0,1-5.07-16.83,115.05,115.05,0,0,1-2.21-17.49,109.25,109.25,0,0,1,.68-17.67c0.22-1.45.31-2.93,0.6-4.37l0.77-4.34,1-4.29c0.29-1.44.79-2.82,1.16-4.24l14,4.09c-0.31,1.23-.76,2.41-1,3.66l-0.86,3.7q-0.31,1.88-.66,3.74c-0.26,1.24-.32,2.52-0.51,3.77a94.68,94.68,0,0,0-.59,15.31,100.57,100.57,0,0,0,1.91,15.11,89.55,89.55,0,0,0,4.37,14.51,93.06,93.06,0,0,0,38.76,45.69Z" transform="translate(-140.76 -1015.42)"/><path class="cls-3" d="M441.33,1205a107.7,107.7,0,0,1-12.78,50.77,111.63,111.63,0,0,1-9.64,14.75,107.31,107.31,0,0,1-25.79,23.92,101,101,0,0,1-15.44,8.45,110.79,110.79,0,0,1-16.58,5.82l-3.64-14.11a96.24,96.24,0,0,0,14.3-5,86.51,86.51,0,0,0,13.34-7.29,92.74,92.74,0,0,0,22.3-20.68,97.12,97.12,0,0,0,8.34-12.74,93.13,93.13,0,0,0,11-43.85h14.57Z" transform="translate(-140.76 -1015.42)"/><path class="cls-3" d="M462.51,1168.65a134.7,134.7,0,0,1,5.05,36.33h-15.3a119.39,119.39,0,0,0-4.47-32.16Z" transform="translate(-140.76 -1015.42)"/><path class="cls-3" d="M474,1138.31a164.64,164.64,0,0,1,7.84,19.86l-14.59,4.62a149.39,149.39,0,0,0-7.06-17.89Z" transform="translate(-140.76 -1015.42)"/><path class="cls-3" d="M455,1108.13l3.3,4.2,3.1,4.35c1.06,1.43,2,2.94,3,4.44s2,3,2.84,4.52l-6.57,3.93c-0.83-1.48-1.8-2.86-2.7-4.3s-1.81-2.86-2.82-4.22l-2.94-4.14-3.14-4Z" transform="translate(-140.76 -1015.42)"/><path class="cls-3" d="M451.15,1149.23a139.44,139.44,0,0,1,6.55,16.59l-7.29,2.31a131.86,131.86,0,0,0-6.16-15.61Z" transform="translate(-140.76 -1015.42)"/><path class="cls-3" d="M348.48,1072.41A134.68,134.68,0,0,1,378,1079c2.41,0.75,4.73,1.78,7.09,2.68s4.61,2.06,6.93,3.07c2.24,1.18,4.52,2.26,6.72,3.5s4.42,2.45,6.52,3.87a135,135,0,0,1,23.62,18.92,137.44,137.44,0,0,1,18.75,23.76l-6.5,4a129.79,129.79,0,0,0-17.68-22.4,127.38,127.38,0,0,0-22.27-17.84c-2-1.34-4.09-2.43-6.14-3.65s-4.23-2.19-6.33-3.3c-2.18-.95-4.32-2-6.53-2.89s-4.4-1.82-6.68-2.52a127,127,0,0,0-27.81-6.24Z" transform="translate(-140.76 -1015.42)"/><path class="cls-3" d="M326.59,1090.15c1.32-.14,2.66-0.17,4-0.19s2.67-.09,4-0.09l0.11-37.16c-1.76,0-3.51.07-5.27,0.11s-3.51.08-5.26,0.25Z" transform="translate(-140.76 -1015.42)"/><polygon class="cls-3" points="168.31 77.61 170.24 77.15 172.19 76.81 165.35 40.28 162.76 40.75 160.2 41.34 168.31 77.61"/><path class="cls-3" d="M272.87,1107.61a114.74,114.74,0,0,1,19.15-9.72l-13.64-34.57A151.91,151.91,0,0,0,253,1076.19Z" transform="translate(-140.76 -1015.42)"/><path class="cls-3" d="M220.11,1162.7a121.93,121.93,0,0,1,40-54.21l-4.89-6.35a130,130,0,0,0-42.67,57.78Z" transform="translate(-140.76 -1015.42)"/><path class="cls-3" d="M195.43,1182.45a139.86,139.86,0,0,1,33.28-70.37l-6-5.3a147.88,147.88,0,0,0-35.18,74.4Z" transform="translate(-140.76 -1015.42)"/><path class="cls-3" d="M218.33,1228.28a122.08,122.08,0,0,1-2.09-30.19l-22.92-1.31a145,145,0,0,0,2.5,36Z" transform="translate(-140.76 -1015.42)"/><path class="cls-3" d="M242.29,1279.24a118.08,118.08,0,0,1-22.72-45.47l-22.27,5.57a141,141,0,0,0,27.14,54.33Z" transform="translate(-140.76 -1015.42)"/><path class="cls-3" d="M305,1319.55a118.73,118.73,0,0,1-45.39-22.88l-14.5,17.8a141.7,141.7,0,0,0,54.24,27.33Z" transform="translate(-140.76 -1015.42)"/><path class="cls-3" d="M310.35,1320.78A119,119,0,0,1,264,1300l-13.66,18.44a142,142,0,0,0,55.45,24.8Z" transform="translate(-140.76 -1015.42)"/><path class="cls-3" d="M343.3,1345.82a143.71,143.71,0,0,1-30.53-1.3,140.86,140.86,0,0,1-29.51-7.9L275,1358a163.83,163.83,0,0,0,34.34,9.19,166.67,166.67,0,0,0,35.44,1.52Z" transform="translate(-140.76 -1015.42)"/><path class="cls-3" d="M410.14,1305.67a126.2,126.2,0,0,1-49.3,22.58l2.41,11.22a137.69,137.69,0,0,0,53.81-24.64Z" transform="translate(-140.76 -1015.42)"/><path class="cls-3" d="M475.42,1228.44a143.25,143.25,0,0,1-49.52,86.45l7.36,8.81a154.75,154.75,0,0,0,53.49-93.39Z" transform="translate(-140.76 -1015.42)"/><polygon class="cls-3" points="281.71 265.67 279.82 267.86 277.82 269.96 275.82 272.06 273.72 274.05 284.24 285.12 286.61 282.87 288.87 280.5 291.13 278.13 293.27 275.65 281.71 265.67"/><path class="cls-3" d="M439.8,1254.43c-0.37.89-.82,1.74-1.27,2.6l-1.32,2.57c-0.87,1.72-1.91,3.35-2.84,5l13.11,7.83c1.06-1.91,2.23-3.75,3.21-5.7l1.49-2.91c0.5-1,1-1.94,1.43-2.94Z" transform="translate(-140.76 -1015.42)"/><path class="cls-3" d="M449.21,1224.12q-0.94,5.71-2.45,11.29l14.75,4q1.7-6.32,2.77-12.78Z" transform="translate(-140.76 -1015.42)"/><path class="cls-3" d="M439.33,1068.61A172,172,0,0,1,506.43,1205H500.6a166.92,166.92,0,0,0-17.08-73.45,166.23,166.23,0,0,0-47.75-58.3Z" transform="translate(-140.76 -1015.42)"/><path class="cls-3" d="M423.52,1037.75a189.37,189.37,0,0,1,35.52,24.6c2.76,2.32,5.33,4.86,7.94,7.34s5,5.17,7.52,7.77,4.78,5.4,7,8.22,4.51,5.63,6.56,8.6a188,188,0,0,1,33.08,79.36l-5.75,1a182.15,182.15,0,0,0-32.06-76.91c-2-2.88-4.21-5.59-6.36-8.34s-4.53-5.33-6.81-8-4.77-5.12-7.29-7.54-5-4.87-7.7-7.12a183.53,183.53,0,0,0-34.43-23.85Z" transform="translate(-140.76 -1015.42)"/><path class="cls-3" d="M394.08,1046.62l5.06,2c1.69,0.66,3.32,1.46,5,2.19l8.38-18.47c-1.86-.82-3.69-1.71-5.58-2.45l-5.68-2.24Z" transform="translate(-140.76 -1015.42)"/><path class="cls-3" d="M329.33,1035.81c1.81,0,3.62-.11,5.42-0.1l5.42,0.13,0.7-20.27-6.07-.14c-2,0-4,.07-6.07.11Z" transform="translate(-140.76 -1015.42)"/><path class="cls-3" d="M265.28,1050.38c3.28-1.56,6.7-2.79,10.07-4.14l-7.06-19c-3.78,1.5-7.6,2.9-11.28,4.64Z" transform="translate(-140.76 -1015.42)"/><path class="cls-3" d="M211.68,1088.26c2.68-2.92,5.6-5.6,8.47-8.34,1.47-1.32,3-2.61,4.48-3.91s3-2.55,4.6-3.77a163.13,163.13,0,0,1,19.61-13.42l-10.25-17.5a183.42,183.42,0,0,0-22,15c-1.75,1.36-3.48,2.75-5.14,4.22s-3.36,2.89-5,4.38c-3.22,3.05-6.47,6.07-9.48,9.33Z" transform="translate(-140.76 -1015.42)"/><path class="cls-3" d="M165,1201.08a169.93,169.93,0,0,1,7.6-46.65,180.68,180.68,0,0,1,8.66-22.08A173.51,173.51,0,0,1,193,1111.72l-20.26-13.4a197.8,197.8,0,0,0-13.34,23.59,204.85,204.85,0,0,0-9.91,25.27,194.24,194.24,0,0,0-8.7,53.35Z" transform="translate(-140.76 -1015.42)"/><path class="cls-3" d="M404.7,1358.89a169.48,169.48,0,0,1-226.45-88.06l-11.19,4.73a181.59,181.59,0,0,0,242.7,94.37Z" transform="translate(-140.76 -1015.42)"/></g><g class="cls-2"><path class="cls-3" d="M478.58,1195.22c0.15,1.55.18,3.11,0.21,4.67l0.12,4.67h-4.39l-0.12-4.53c0-1.51-.06-3-0.21-4.53Z" transform="translate(-140.76 -1015.42)"/><path class="cls-3" d="M333.89,1059.53l4.67,0.12c1.56,0,3.11.06,4.67,0.21l-0.28,4.38c-1.5-.15-3-0.17-4.53-0.21l-4.53-.12v-4.39Z" transform="translate(-140.76 -1015.42)"/><path class="cls-3" d="M473.35,1164.79c0.36,1.28.74,2.55,1.07,3.84l0.9,3.88c0.65,2.58,1.07,5.2,1.54,7.81l-4.33.73c-0.46-2.53-.86-5.08-1.5-7.57l-0.87-3.76c-0.32-1.25-.7-2.48-1-3.72Z" transform="translate(-140.76 -1015.42)"/><path class="cls-3" d="M409.32,1080.67c2.22,1.45,4.5,2.82,6.67,4.35s4.38,3,6.43,4.7l-2.68,3.47c-2-1.64-4.15-3-6.23-4.56s-4.32-2.8-6.47-4.22Z" transform="translate(-140.76 -1015.42)"/><path class="cls-3" d="M324.56,1059.86c1.55-.15,3.11-0.18,4.67-0.21l4.67-.12v4.39l-4.53.12c-1.51,0-3,.06-4.53.21Z" transform="translate(-140.76 -1015.42)"/><path class="cls-3" d="M188.87,1204.55l0.12-4.67c0-1.56.06-3.11,0.21-4.67l4.38,0.28c-0.15,1.5-.17,3-0.21,4.53l-0.12,4.53h-4.39Z" transform="translate(-140.76 -1015.42)"/><path class="cls-3" d="M294.13,1065.1c1.28-.36,2.55-0.74,3.84-1.07l3.88-.9c2.58-.65,5.2-1.07,7.81-1.54l0.73,4.33c-2.53.46-5.08,0.86-7.57,1.5l-3.76.87c-1.25.32-2.48,0.7-3.72,1Z" transform="translate(-140.76 -1015.42)"/><path class="cls-3" d="M210,1129.13c1.45-2.22,2.82-4.5,4.35-6.67s3-4.37,4.7-6.43l3.47,2.68c-1.64,2-3,4.15-4.56,6.23s-2.8,4.32-4.22,6.47Z" transform="translate(-140.76 -1015.42)"/><path class="cls-3" d="M189.21,1213.89c-0.15-1.55-.18-3.11-0.21-4.67l-0.12-4.67h4.39l0.12,4.53c0,1.51.06,3,.21,4.53Z" transform="translate(-140.76 -1015.42)"/><path class="cls-3" d="M333.89,1349.57l-4.67-.12c-1.56,0-3.11-.06-4.67-0.21l0.28-4.38c1.5,0.15,3,.17,4.53.21l4.53,0.12v4.39Z" transform="translate(-140.76 -1015.42)"/><path class="cls-3" d="M194.44,1244.31c-0.36-1.28-.74-2.55-1.07-3.84l-0.9-3.88c-0.65-2.58-1.07-5.2-1.54-7.81l4.33-.73c0.46,2.53.86,5.08,1.5,7.57l0.87,3.76c0.32,1.25.7,2.48,1,3.72Z" transform="translate(-140.76 -1015.42)"/><path class="cls-3" d="M258.47,1328.43c-2.22-1.45-4.5-2.82-6.67-4.35s-4.37-3-6.43-4.7l2.68-3.47c2,1.64,4.15,3,6.23,4.56s4.32,2.8,6.47,4.22Z" transform="translate(-140.76 -1015.42)"/><path class="cls-3" d="M343.23,1349.24c-1.55.15-3.11,0.18-4.67,0.21l-4.67.12v-4.39l4.53-.12c1.51,0,3-.06,4.53-0.21Z" transform="translate(-140.76 -1015.42)"/><path class="cls-3" d="M478.91,1204.55l-0.12,4.67c0,1.56-.06,3.11-0.21,4.67l-4.38-.28c0.15-1.5.17-3,.21-4.53l0.12-4.53h4.39Z" transform="translate(-140.76 -1015.42)"/><path class="cls-3" d="M373.66,1344c-1.28.36-2.55,0.74-3.84,1.07l-3.88.9c-2.58.65-5.2,1.07-7.81,1.54l-0.73-4.33c2.53-.46,5.08-0.86,7.57-1.5l3.76-.87c1.25-.32,2.48-0.7,3.72-1Z" transform="translate(-140.76 -1015.42)"/><path class="cls-3" d="M457.77,1280c-1.45,2.22-2.82,4.5-4.35,6.67s-3,4.38-4.7,6.43l-3.47-2.68c1.64-2,3-4.15,4.56-6.23s2.8-4.32,4.22-6.47Z" transform="translate(-140.76 -1015.42)"/></g><g class="cls-2"><polygon class="cls-3" points="352.69 180.9 352.89 189.13 348.5 189.13 348.3 181.12 352.69 180.9"/><path class="cls-3" d="M383.26,1052.61c2.59,0.91,5.23,1.68,7.76,2.75l-1.57,4.1c-2.46-1-5-1.79-7.55-2.67Z" transform="translate(-140.76 -1015.42)"/><path class="cls-3" d="M489.71,1169.35c0.25,1.14.55,2.28,0.77,3.42l0.62,3.45,0.62,3.46c0.2,1.15.31,2.32,0.47,3.48l-4.35.58c-0.16-1.13-.26-2.26-0.46-3.38l-0.6-3.36-0.6-3.36c-0.22-1.12-.5-2.22-0.75-3.33Z" transform="translate(-140.76 -1015.42)"/><path class="cls-3" d="M443,1087.87c3.44,3.18,6.68,6.56,9.83,10l-3.27,2.93c-3.07-3.36-6.22-6.64-9.56-9.74Z" transform="translate(-140.76 -1015.42)"/><polygon class="cls-3" points="234.61 34.84 238.57 35.96 240.55 36.53 242.5 37.18 241.15 41.35 239.25 40.72 237.32 40.17 233.47 39.08 234.61 34.84"/><polygon class="cls-3" points="63.91 95.24 65.1 93.56 66.37 91.94 68.92 88.7 72.33 91.46 69.85 94.61 68.61 96.19 67.45 97.82 63.91 95.24"/><path class="cls-3" d="M348.56,1045.49l1.75,0.14,1.74,0.22,3.48,0.44c2.33,0.25,4.63.68,6.93,1.1l-0.78,4.32c-2.24-.4-4.48-0.83-6.74-1.07l-3.39-.43-1.69-.22-1.7-.13Z" transform="translate(-140.76 -1015.42)"/><path class="cls-3" d="M256.61,1064.73c4.11-2.23,8.28-4.37,12.57-6.24l1.78,4c-4.17,1.81-8.23,3.89-12.22,6.06Z" transform="translate(-140.76 -1015.42)"/><path class="cls-3" d="M200,1117.45c1.43-2.34,3.09-4.54,4.67-6.78l3.55,2.58c-1.53,2.19-3.15,4.32-4.54,6.6Z" transform="translate(-140.76 -1015.42)"/><path class="cls-3" d="M204.67,1298.44c-1.58-2.25-3.24-4.44-4.67-6.78l3.68-2.4c1.39,2.28,3,4.41,4.54,6.6Z" transform="translate(-140.76 -1015.42)"/><polygon class="cls-3" points="46.35 126.01 49.26 119.62 52.46 113.37 56.32 115.46 53.21 121.53 50.38 127.75 46.35 126.01"/><path class="cls-3" d="M177,1234.85c-0.39-2.31-.87-4.6-1.19-6.92l-0.88-7,4.37-.45,0.86,6.77c0.31,2.25.78,4.48,1.15,6.73Z" transform="translate(-140.76 -1015.42)"/><polygon class="cls-3" points="68.92 289.55 66.37 286.31 65.1 284.69 63.91 283.02 67.45 280.43 68.61 282.07 69.85 283.64 72.33 286.79 68.92 289.55"/><polygon class="cls-3" points="242.5 341.07 240.55 341.73 238.57 342.29 234.61 343.42 233.47 339.18 237.32 338.08 239.25 337.54 241.15 336.9 242.5 341.07"/><path class="cls-3" d="M228.54,1324.6c-1.8-1.5-3.48-3.13-5.17-4.75l-2.54-2.43-2.42-2.54,3.17-3,2.35,2.47,2.47,2.36c1.64,1.57,3.28,3.16,5,4.62Z" transform="translate(-140.76 -1015.42)"/><path class="cls-3" d="M391,1353.75c-2.53,1.07-5.17,1.84-7.76,2.75l-1.36-4.17c2.52-.89,5.09-1.63,7.55-2.67Z" transform="translate(-140.76 -1015.42)"/><polygon class="cls-3" points="352.89 189.13 352.69 197.36 348.3 197.14 348.5 189.13 352.89 189.13"/><path class="cls-3" d="M415.53,1341.87c-2,1.15-4,2.36-6.1,3.47l-6.25,3.2-1.91-4,6.08-3.11c2-1.08,4-2.25,5.93-3.37Z" transform="translate(-140.76 -1015.42)"/><path class="cls-3" d="M478.61,1272.24l-0.72,1.6-0.8,1.56-1.6,3.12c-1,2.11-2.24,4.11-3.39,6.14l-3.79-2.2c1.13-2,2.31-3.92,3.3-6l1.56-3,0.78-1.52,0.7-1.55Z" transform="translate(-140.76 -1015.42)"/></g><g class="cls-2"><path class="cls-3" d="M457.92,1178.47a126.82,126.82,0,0,1,2.7,26.08H455.2a121.39,121.39,0,0,0-2.58-25Z" transform="translate(-140.76 -1015.42)"/><path class="cls-3" d="M418.94,1110.61A130.41,130.41,0,0,1,430,1122c1.78,2,3.36,4.11,5,6.19,0.82,1,1.55,2.15,2.33,3.23s1.57,2.15,2.26,3.28a125.46,125.46,0,0,1,14.06,28.51l-5.12,1.76a120,120,0,0,0-13.45-27.29c-0.66-1.09-1.44-2.1-2.16-3.14s-1.45-2.09-2.23-3.09c-1.59-2-3.09-4-4.8-5.92a125,125,0,0,0-10.62-10.94Z" transform="translate(-140.76 -1015.42)"/><path class="cls-3" d="M376.73,1085.27c1.4,0.47,2.76,1.07,4.15,1.59l2.07,0.82c0.69,0.28,1.35.6,2,.9l4,1.84,4,2-2.53,4.79-3.78-1.94-3.87-1.76c-0.65-.29-1.29-0.6-1.94-0.86l-2-.78c-1.32-.5-2.62-1.08-4-1.53Z" transform="translate(-140.76 -1015.42)"/><path class="cls-3" d="M328.63,1078l4.44-.11c1.48,0,3,.05,4.44.07,3,0,5.91.32,8.86,0.53l-0.53,5.39c-2.83-.2-5.65-0.5-8.49-0.5-1.42,0-2.83-.11-4.25-0.07l-4.25.11Z" transform="translate(-140.76 -1015.42)"/><path class="cls-3" d="M242.7,1116.6a126.2,126.2,0,0,1,64.45-35.93l1.14,5.29a121.13,121.13,0,0,0-61.69,34.39Z" transform="translate(-140.76 -1015.42)"/><path class="cls-3" d="M207.17,1204.55l0.11-4.3,0.06-2.15,0.16-2.15,0.33-4.29,0.54-4.27,0.27-2.13,0.38-2.12,0.76-4.24,1-4.19c0.17-.7.31-1.4,0.5-2.09l0.59-2.07L217,1172l-0.56,2c-0.18.66-.32,1.34-0.47,2l-0.93,4-0.73,4.05-0.36,2-0.26,2-0.52,4.09-0.31,4.11-0.15,2.05-0.05,2.06-0.11,4.12h-5.41Z" transform="translate(-140.76 -1015.42)"/><path class="cls-3" d="M209.87,1230.63a126.82,126.82,0,0,1-2.7-26.08h5.41a121.41,121.41,0,0,0,2.58,25Z" transform="translate(-140.76 -1015.42)"/><path class="cls-3" d="M248.84,1298.49a130.35,130.35,0,0,1-11.09-11.43c-1.78-2-3.36-4.11-5-6.19-0.82-1-1.55-2.15-2.33-3.23s-1.57-2.15-2.26-3.28a125.45,125.45,0,0,1-14.06-28.51l5.12-1.76a120,120,0,0,0,13.45,27.29c0.66,1.09,1.44,2.1,2.16,3.14s1.45,2.09,2.23,3.09c1.59,2,3.09,4,4.8,5.92a125,125,0,0,0,10.62,10.94Z" transform="translate(-140.76 -1015.42)"/><path class="cls-3" d="M291.06,1323.84c-1.4-.47-2.76-1.07-4.15-1.59l-2.07-.82c-0.69-.28-1.35-0.6-2-0.9l-4-1.84-4-2,2.53-4.79,3.78,1.94,3.87,1.76c0.65,0.29,1.29.6,1.94,0.86l2,0.78c1.32,0.5,2.62,1.08,4,1.52Z" transform="translate(-140.76 -1015.42)"/><path class="cls-3" d="M339.16,1331.15l-4.44.11c-1.48,0-3-.05-4.44-0.07-3,0-5.91-.32-8.86-0.53l0.53-5.39c2.83,0.2,5.65.5,8.49,0.5,1.42,0,2.83.11,4.25,0.07l4.25-.11Z" transform="translate(-140.76 -1015.42)"/><path class="cls-3" d="M425.09,1292.5a126.2,126.2,0,0,1-64.45,35.93l-1.14-5.29a121.13,121.13,0,0,0,61.69-34.39Z" transform="translate(-140.76 -1015.42)"/><path class="cls-3" d="M460.62,1204.55l-0.11,4.3-0.06,2.15-0.16,2.15-0.33,4.29-0.54,4.27-0.27,2.13-0.38,2.12-0.76,4.24-1,4.19c-0.17.7-.31,1.4-0.5,2.09l-0.59,2.07-5.22-1.45,0.56-2c0.18-.66.32-1.34,0.48-2l0.93-4,0.73-4.05,0.36-2,0.26-2,0.52-4.09,0.31-4.11,0.15-2.05,0.05-2.06,0.1-4.12h5.41Z" transform="translate(-140.76 -1015.42)"/></g><g class="cls-2"><polygon class="cls-3" points="147.24 143.91 148.24 142.81 163.53 158.11 162.88 158.86 147.24 143.91"/><polygon class="cls-3" points="142.57 149.39 143.44 148.19 160.32 161.72 159.75 162.53 142.57 149.39"/><path class="cls-3" d="M274.64,1179.92c0.18-.46.41-0.9,0.61-1.35l19.88,8.53c-0.14.3-.3,0.58-0.42,0.89Z" transform="translate(-140.76 -1015.42)"/><polygon class="cls-3" points="129.89 179.73 130.1 178.27 151.45 181.76 151.31 182.74 129.89 179.73"/><path class="cls-3" d="M292.38,1176.68c0.49-.81,1.12-1.53,1.66-2.31l-6.55-4.79c-0.63.9-1.35,1.74-1.92,2.69Z" transform="translate(-140.76 -1015.42)"/><polygon class="cls-3" points="148.68 166.52 149.27 165.22 150 164 142.93 160.03 142.09 161.45 141.4 162.95 148.68 166.52"/><path class="cls-3" d="M285.81,1191.93l0.33-1.39a7.48,7.48,0,0,1,.4-1.37l-7.75-2.4a9.83,9.83,0,0,0-.46,1.59l-0.39,1.61Z" transform="translate(-140.76 -1015.42)"/><path class="cls-3" d="M277.61,1217.15a20.87,20.87,0,0,1-.48-2.11l-0.3-2.15a33.92,33.92,0,0,1-.5-4.3l-0.21-4.33,0.21-4.33-3.08-.23-0.22,4.56,0.22,4.56a36.48,36.48,0,0,0,.52,4.53l0.32,2.26a22.65,22.65,0,0,0,.5,2.22Z" transform="translate(-140.76 -1015.42)"/><path class="cls-3" d="M292.51,1213.12a47.89,47.89,0,0,1-.76-12.75l-3.08-.27a50.94,50.94,0,0,0,.81,13.65Z" transform="translate(-140.76 -1015.42)"/><path class="cls-3" d="M312.58,1241.37a44.8,44.8,0,0,1-11.91-10.61,42.73,42.73,0,0,1-7.3-14.1l-11.85,3.52a55.11,55.11,0,0,0,9.38,18.15,57.15,57.15,0,0,0,15.28,13.61Z" transform="translate(-140.76 -1015.42)"/><path class="cls-3" d="M276.38,1238.89a70,70,0,0,1-6.71-15.19l5.93-1.76a63.81,63.81,0,0,0,6.11,13.8Z" transform="translate(-140.76 -1015.42)"/><polygon class="cls-3" points="143.99 234.73 142.25 232.81 141.39 231.85 140.62 230.81 137.56 226.65 142.69 223.21 145.48 227 146.17 227.94 146.97 228.81 148.55 230.56 143.99 234.73"/><path class="cls-3" d="M310.91,1268c-0.65-.25-1.33-0.42-1.95-0.73l-1.89-.88-3.78-1.76-3.59-2.12a29.29,29.29,0,0,1-3.5-2.25l3.52-5.08a25.21,25.21,0,0,0,3.18,2l3.25,1.93,3.43,1.59,1.71,0.8c0.56,0.28,1.18.43,1.77,0.66Z" transform="translate(-140.76 -1015.42)"/><polygon class="cls-3" points="176.33 264.34 172.44 263.38 182.03 230.5 184.21 231.01 176.33 264.34"/><path class="cls-3" d="M327.93,1281.59c-1.33-.12-2.65-0.35-4-0.53l4.85-33.9c0.74,0.09,1.48.25,2.22,0.32Z" transform="translate(-140.76 -1015.42)"/><path class="cls-3" d="M350.74,1262.67a60.16,60.16,0,0,1-21.26,1.87l-0.88,9.62a69.82,69.82,0,0,0,24.63-2.16Z" transform="translate(-140.76 -1015.42)"/><path class="cls-3" d="M356.05,1242.19a43.78,43.78,0,0,1-14.44,4.91l1.46,9.55a53.44,53.44,0,0,0,17.67-6Z" transform="translate(-140.76 -1015.42)"/><path class="cls-3" d="M366.56,1280.27c-1.61.69-3.28,1.21-4.93,1.8l-8.4-24.61c1.12-.42,2.28-0.74,3.37-1.22Z" transform="translate(-140.76 -1015.42)"/><path class="cls-3" d="M375.74,1275.71l-2.27,1.32c-0.77.41-1.58,0.76-2.37,1.14l-11.41-23.37c0.54-.26,1.09-0.48,1.62-0.76l1.54-.92Z" transform="translate(-140.76 -1015.42)"/><path class="cls-3" d="M365.87,1237.21l-1.47,1.33a10,10,0,0,1-1.51,1.27l-3.17,2.32L370,1257.75c1.52-1.06,3-2.19,4.49-3.27a18.23,18.23,0,0,0,2.13-1.78l2.06-1.87Z" transform="translate(-140.76 -1015.42)"/><path class="cls-3" d="M389.19,1251.18l-2.09,2.31a23.5,23.5,0,0,1-2.17,2.23l-4.63,4.18,11.8,14.47q2.94-2.59,5.83-5.25a34.37,34.37,0,0,0,2.74-2.81l2.63-2.91Z" transform="translate(-140.76 -1015.42)"/><polygon class="cls-3" points="231.24 219.75 229.24 221.96 240.59 232.72 243.23 229.81 231.24 219.75"/><path class="cls-3" d="M375.64,1230.23a7.37,7.37,0,0,1-.83,1.23l-0.89,1.19,12.62,9.24,1.16-1.58a12.33,12.33,0,0,0,1.09-1.63Z" transform="translate(-140.76 -1015.42)"/><path class="cls-3" d="M378.57,1224.85a18.89,18.89,0,0,1-1.32,2.64L391,1235a29.52,29.52,0,0,0,1.76-3.5Z" transform="translate(-140.76 -1015.42)"/><path class="cls-3" d="M406.86,1225.19a75.27,75.27,0,0,1-11.48,23.16l12.57,9.2a90.87,90.87,0,0,0,13.87-28Z" transform="translate(-140.76 -1015.42)"/><path class="cls-3" d="M389.42,1207a54.4,54.4,0,0,1-3.68,17.25l-10.36-4.09a43.26,43.26,0,0,0,2.92-13.73Z" transform="translate(-140.76 -1015.42)"/><path class="cls-3" d="M406.47,1198.14a71.19,71.19,0,0,1-1.83,23.12l-10.82-2.63a60.05,60.05,0,0,0,1.55-19.54Z" transform="translate(-140.76 -1015.42)"/><polygon class="cls-3" points="278.33 175.82 278.55 177.35 237.21 182.95 237.09 182.17 278.33 175.82"/><polygon class="cls-3" points="276.98 168.98 277.35 170.49 236.6 179.45 236.41 178.68 276.98 168.98"/><polygon class="cls-3" points="275.1 162.27 275.6 163.74 235.72 176 235.45 175.26 275.1 162.27"/><path class="cls-3" d="M359.26,1161.23l1.82,1.07a11.53,11.53,0,0,1,1.78,1.14l3.41,2.51q1.56,1.46,3.15,2.86a12.81,12.81,0,0,1,1.47,1.53l1.43,1.58a50.55,50.55,0,0,1,8.73,14.41l-5.6,2.17a44.54,44.54,0,0,0-7.67-12.64l-1.26-1.39a10.25,10.25,0,0,0-1.29-1.35q-1.42-1.23-2.77-2.52c-1-.73-2-1.44-3-2.2a9.15,9.15,0,0,0-1.56-1l-1.6-.94Z" transform="translate(-140.76 -1015.42)"/><path class="cls-3" d="M359.35,1157.49a54.68,54.68,0,0,1,14.26,11,49.85,49.85,0,0,1,9.83,15l-5.52,2.36a43.85,43.85,0,0,0-8.71-13.32,48.68,48.68,0,0,0-12.63-9.74Z" transform="translate(-140.76 -1015.42)"/><path class="cls-3" d="M405.66,1168.14l1.71,3.66a36,36,0,0,1,1.59,3.71l-14,5.45a25.81,25.81,0,0,0-1.29-3l-1.37-3Z" transform="translate(-140.76 -1015.42)"/><path class="cls-3" d="M379.48,1138.55l3.26,2.38a36.39,36.39,0,0,1,3.18,2.48L376.24,1155a26.17,26.17,0,0,0-2.58-2L371,1151Z" transform="translate(-140.76 -1015.42)"/><path class="cls-3" d="M389.46,1153.76a54.94,54.94,0,0,1,4.85,5.78l-4,3a50.26,50.26,0,0,0-4.52-5.39Z" transform="translate(-140.76 -1015.42)"/><path class="cls-3" d="M359.68,1134.19c1.19,0.43,2.39.81,3.56,1.28l3.43,1.59-2.14,4.54-3.2-1.48c-1.09-.44-2.21-0.79-3.32-1.19Z" transform="translate(-140.76 -1015.42)"/><path class="cls-3" d="M295.55,1164.79l2.72-2.44,1.35-1.24c0.46-.4,1-0.72,1.46-1.09l2.94-2.17c1-.68,2.09-1.24,3.12-1.88l1.56-.94a15.73,15.73,0,0,1,1.64-.8l3.3-1.54c1.12-.47,2.29-0.81,3.43-1.23l1.72-.61c0.57-.21,1.18-0.3,1.77-0.46l3.55-.87c1.2-.21,2.41-0.35,3.61-0.53l1.81-.27c0.61,0,1.22-.06,1.83-0.09l3.65-.18,3.65,0.19c0.61,0,1.22,0,1.83.09l1.81,0.27c1.2,0.19,2.42.32,3.61,0.54l3.55,0.87-2.42,9q-1.48-.35-2.95-0.74c-1-.18-2-0.27-3-0.44l-1.5-.24c-0.51,0-1,0-1.52-.07q-1.52-.06-3-0.17c-1,.07-2,0.12-3,0.16-0.51,0-1,0-1.52.06l-1.5.24c-1,.16-2,0.26-3,0.43s-2,.5-2.95.74a15.14,15.14,0,0,0-1.47.37l-1.43.52c-0.94.36-1.93,0.62-2.86,1s-1.82.87-2.74,1.29a11.36,11.36,0,0,0-1.36.66l-1.3.79c-0.86.53-1.76,1-2.6,1.55s-1.62,1.22-2.44,1.81c-0.4.31-.84,0.57-1.22,0.9l-1.12,1q-1.13,1-2.28,2Z" transform="translate(-140.76 -1015.42)"/></g><g class="cls-2"><path class="cls-3" d="M249.87,1212.87A85.44,85.44,0,0,1,342.33,1119l-0.26,2.95a81.47,81.47,0,0,0-35.66,4.8,82.66,82.66,0,0,0-53.61,85.83Z" transform="translate(-140.76 -1015.42)"/><path class="cls-3" d="M367.72,1283.3a85.11,85.11,0,0,1-38.61,6.32,88.59,88.59,0,0,1-19.38-3.63,86.74,86.74,0,0,1-18-8l2.62-4.47a81.57,81.57,0,0,0,16.95,7.47,83.42,83.42,0,0,0,18.21,3.41,79.93,79.93,0,0,0,36.27-5.94Z" transform="translate(-140.76 -1015.42)"/><path class="cls-3" d="M410.87,1164.66a85.71,85.71,0,0,1,9.69,37.92,87.07,87.07,0,0,1-1.89,19.61,88.8,88.8,0,0,1-6.33,18.67l-4.68-2.21a83.62,83.62,0,0,0,6-17.55,81.89,81.89,0,0,0,1.78-18.43,80.52,80.52,0,0,0-9.1-35.62Z" transform="translate(-140.76 -1015.42)"/><path class="cls-3" d="M339.61,1107.69c1.23,0,2.46.13,3.68,0.25l-0.58,6.63c-1.14-.11-2.28-0.21-3.43-0.23Z" transform="translate(-140.76 -1015.42)"/><path class="cls-3" d="M306,1112c1.18-.36,2.34-0.77,3.54-1.05l1.76,6.42c-1.12.26-2.2,0.64-3.3,1Z" transform="translate(-140.76 -1015.42)"/><path class="cls-3" d="M276,1127.66c1-.76,1.94-1.51,3-2.2l3.85,5.43c-1,.64-1.86,1.34-2.76,2Z" transform="translate(-140.76 -1015.42)"/><path class="cls-3" d="M253.24,1152.68c0.67-1,1.3-2.09,2-3.09l5.49,3.76c-0.67.93-1.25,1.92-1.88,2.88Z" transform="translate(-140.76 -1015.42)"/><path class="cls-3" d="M313.45,1111.31a96.51,96.51,0,0,1,21.49-2.44v2a94.48,94.48,0,0,0-21,2.39Z" transform="translate(-140.76 -1015.42)"/><path class="cls-3" d="M288,1123.6a95.7,95.7,0,0,1,14.05-6.68l-3.34-8.82a105.16,105.16,0,0,0-15.46,7.34Z" transform="translate(-140.76 -1015.42)"/><path class="cls-3" d="M263.43,1147.86a85.9,85.9,0,0,1,9.42-10.24l-6.3-6.76a95.16,95.16,0,0,0-10.38,11.29Z" transform="translate(-140.76 -1015.42)"/><path class="cls-3" d="M234.71,1208.32a100.84,100.84,0,0,1,16.43-59.22l6.49,4.26A93.07,93.07,0,0,0,242.47,1208Z" transform="translate(-140.76 -1015.42)"/><path class="cls-3" d="M241.4,1213.73a93.69,93.69,0,0,1,4.72-40.27l5.59,1.94a87.77,87.77,0,0,0-4.43,37.74Z" transform="translate(-140.76 -1015.42)"/><path class="cls-3" d="M235.51,1232.86l-1.27-4.84c-0.37-1.62-.69-3.26-1-4.89l17.64-3.28c0.29,1.35.54,2.7,0.85,4l1,4Z" transform="translate(-140.76 -1015.42)"/><path class="cls-3" d="M250.15,1263.51l-1.42-2.05c-0.46-.69-0.89-1.41-1.33-2.11-0.88-1.41-1.77-2.82-2.55-4.29l15.63-8.8c0.64,1.22,1.38,2.38,2.11,3.55,0.37,0.58.72,1.18,1.1,1.75l1.18,1.7Z" transform="translate(-140.76 -1015.42)"/><path class="cls-3" d="M273.93,1287.82q-4-3-7.78-6.28l11.93-13.4q3.08,2.74,6.42,5.18Z" transform="translate(-140.76 -1015.42)"/><path class="cls-3" d="M394.33,1285.66a105.29,105.29,0,0,1-22.1,12.2,103.33,103.33,0,0,1-24.46,6.33,101,101,0,0,1-49.72-6.26l2.27-5.76A94.85,94.85,0,0,0,347,1298a97.16,97.16,0,0,0,23-5.94,99.12,99.12,0,0,0,20.75-11.45Z" transform="translate(-140.76 -1015.42)"/></g><g class="cls-2"><path class="cls-3" d="M177.13,1229.42a166.38,166.38,0,0,1-1.9-27.07,152,152,0,0,1,2.67-27,161.26,161.26,0,0,1,7.2-26.14,154.87,154.87,0,0,1,11.63-24.5l7.17,4.18a146.58,146.58,0,0,0-11,23.21,153,153,0,0,0-6.82,24.76,143.67,143.67,0,0,0-2.53,25.59,158.09,158.09,0,0,0,1.8,25.66Z" transform="translate(-140.76 -1015.42)"/><path class="cls-3" d="M400,1065.83a155.26,155.26,0,0,1,61.76,53.53,153.62,153.62,0,0,1,25.59,77.56l-3.2.16a150.41,150.41,0,0,0-25.05-75.94,152.06,152.06,0,0,0-60.48-52.42Z" transform="translate(-140.76 -1015.42)"/><path class="cls-3" d="M495.17,1162a171.85,171.85,0,0,1,5.51,42.59h-6.33a165.51,165.51,0,0,0-5.3-41Z" transform="translate(-140.76 -1015.42)"/><path class="cls-3" d="M474.39,1114.72c2.09,3.12,3.9,6.42,5.78,9.67,0.92,1.64,1.73,3.33,2.6,5l1.28,2.51c0.42,0.84.78,1.71,1.18,2.56l-5.74,2.66c-0.38-.82-0.73-1.65-1.13-2.46l-1.24-2.41c-0.84-1.6-1.61-3.23-2.5-4.81-1.81-3.12-3.54-6.3-5.56-9.3Z" transform="translate(-140.76 -1015.42)"/><path class="cls-3" d="M402.06,1052.33a167.32,167.32,0,0,1,50.5,35.05l-4.51,4.45a161,161,0,0,0-48.59-33.72Z" transform="translate(-140.76 -1015.42)"/><path class="cls-3" d="M503.29,1180.23l0.53,4.2c0.18,1.4.37,2.8,0.45,4.21l10.43-1c-0.09-1.5-.29-3-0.48-4.47l-0.57-4.46Z" transform="translate(-140.76 -1015.42)"/><path class="cls-3" d="M483.48,1121.39c0.72,1.2,1.36,2.45,2,3.7l1.92,3.74c0.66,1.24,1.23,2.52,1.81,3.8l1.73,3.83,9.61-4.17-1.84-4.07c-0.61-1.36-1.22-2.72-1.92-4l-2-4c-0.67-1.33-1.36-2.65-2.12-3.93Z" transform="translate(-140.76 -1015.42)"/><path class="cls-3" d="M470.61,1101.59c0.92,1.18,1.75,2.43,2.63,3.64l8.53-6.09c-0.93-1.29-1.82-2.61-2.79-3.86Z" transform="translate(-140.76 -1015.42)"/><polygon class="cls-3" points="310.49 64.6 313.74 67.7 321.13 60.27 317.68 56.97 310.49 64.6"/><path class="cls-3" d="M428.57,1062c1.28,0.78,2.46,1.7,3.7,2.56l6-8.57c-1.31-.9-2.57-1.88-3.92-2.71Z" transform="translate(-140.76 -1015.42)"/><path class="cls-3" d="M400,1043.58a176.43,176.43,0,0,1,26.43,13.63l2.56-4.07a181.25,181.25,0,0,0-27.16-14Z" transform="translate(-140.76 -1015.42)"/><path class="cls-3" d="M286.53,1046.88l5.5-1.56c1.84-.5,3.71-0.88,5.56-1.32l2.78-.64c0.93-.2,1.87-0.34,2.81-0.52l5.62-1,5.67-.72c0.95-.11,1.89-0.25,2.84-0.35l2.85-.22c1.9-.13,3.8-0.31,5.7-0.41l5.71-.14c1,0,1.9-.08,2.86,0l2.86,0.07c1.9,0.06,3.81.06,5.71,0.18,3.8,0.32,7.61.48,11.38,1.05a159.45,159.45,0,0,1,22.41,4.36l-2.59,9.63a149.49,149.49,0,0,0-21-4.1c-3.54-.54-7.12-0.69-10.69-1-1.79-.11-3.58-0.1-5.37-0.16l-2.69-.07c-0.9,0-1.79,0-2.69,0l-5.37.13c-1.79.1-3.57,0.26-5.36,0.39l-2.68.2c-0.89.09-1.78,0.22-2.66,0.33l-5.33.67-5.28.95c-0.88.16-1.76,0.29-2.64,0.49l-2.61.61c-1.74.42-3.49,0.77-5.22,1.24l-5.16,1.47Z" transform="translate(-140.76 -1015.42)"/><path class="cls-3" d="M322.41,1028.56a175.32,175.32,0,0,1,57.42,5.67l-1.7,6.32a168.78,168.78,0,0,0-55.3-5.46Z" transform="translate(-140.76 -1015.42)"/><path class="cls-3" d="M220.93,1071.67a174.52,174.52,0,0,1,55.8-31.93l2.15,6.19a168,168,0,0,0-53.7,30.73Z" transform="translate(-140.76 -1015.42)"/><path class="cls-3" d="M209.81,1112.25l3.06-3.91,1.53-2c0.52-.64,1.08-1.25,1.62-1.88l3.25-3.75,3.42-3.6,1.71-1.8c0.58-.59,1.19-1.14,1.79-1.72l3.59-3.43,3.75-3.25,1.87-1.63,1.95-1.54,3.9-3.07,4-2.88,2-1.44,2.09-1.34,4.18-2.68,4.3-2.48,2.15-1.24c0.73-.39,1.47-0.76,2.2-1.14l4.41-2.26,4.51-2.05,1.71,3.86-4.39,2-4.29,2.2c-0.71.37-1.44,0.72-2.14,1.1l-2.09,1.21-4.18,2.41-4.06,2.61-2,1.31-2,1.4-3.93,2.8-3.79,3-1.9,1.5-1.82,1.58-3.65,3.17-3.49,3.33c-0.58.56-1.17,1.1-1.74,1.67l-1.66,1.75-3.33,3.5-3.16,3.65c-0.52.61-1.07,1.21-1.57,1.83l-1.49,1.9-3,3.8Z" transform="translate(-140.76 -1015.42)"/><path class="cls-3" d="M259.71,1050.74l7-3.18c2.35-1,4.76-1.9,7.14-2.86l4.61,12.26c-2.19.89-4.41,1.7-6.59,2.63l-6.46,2.93Z" transform="translate(-140.76 -1015.42)"/><path class="cls-3" d="M237.57,1063.6c2.1-1.47,4.3-2.79,6.44-4.19,1.07-.71,2.18-1.35,3.29-2l3.33-1.92,6.4,11.43-3.08,1.77c-1,.58-2.06,1.17-3,1.83-2,1.3-4,2.51-5.95,3.87Z" transform="translate(-140.76 -1015.42)"/><path class="cls-3" d="M219.27,1078l4.94-4.28c0.81-.73,1.66-1.4,2.53-2.07l2.57-2,8,10.35-2.37,1.86c-0.8.61-1.58,1.24-2.33,1.91l-4.56,4Z" transform="translate(-140.76 -1015.42)"/><path class="cls-3" d="M198.81,1115.55c0.76-1.24,1.62-2.42,2.46-3.61l2.53-3.56-11.05-8.18-2.75,3.86c-0.92,1.29-1.84,2.57-2.67,3.91Z" transform="translate(-140.76 -1015.42)"/><path class="cls-3" d="M212.56,1099.27c1-1.08,1.87-2.21,2.87-3.26l3-3.14-9.89-9.56-3.25,3.41c-1.08,1.14-2.07,2.36-3.11,3.54Z" transform="translate(-140.76 -1015.42)"/><path class="cls-3" d="M173.15,1147a172.3,172.3,0,0,1,12.44-27l6.63,3.79a164.63,164.63,0,0,0-11.88,25.74Z" transform="translate(-140.76 -1015.42)"/><path class="cls-3" d="M163.89,1189.15a174,174,0,0,1,5.2-29.22l7.38,2a166.29,166.29,0,0,0-5,27.91Z" transform="translate(-140.76 -1015.42)"/><path class="cls-3" d="M161.84,1142.92a184.3,184.3,0,0,1,13.32-28.86l6.63,3.79A176.65,176.65,0,0,0,169,1145.49Z" transform="translate(-140.76 -1015.42)"/><path class="cls-3" d="M164,1172.78c0.51-3.28,1.36-6.49,2.08-9.72l-9.61-2.37c-0.77,3.42-1.66,6.82-2.21,10.28Z" transform="translate(-140.76 -1015.42)"/><path class="cls-3" d="M161.08,1205.45c0-3.31.13-6.62,0.21-9.93l-9.88-.51c-0.09,3.5-.23,7-0.23,10.49Z" transform="translate(-140.76 -1015.42)"/><polygon class="cls-3" points="23.58 222.66 22.71 217.77 22.28 215.32 21.96 212.85 12.16 214.2 12.49 216.81 12.94 219.4 13.87 224.58 23.58 222.66"/><path class="cls-3" d="M164,1271.81l-1.44-3.66c-0.49-1.22-.87-2.48-1.3-3.71l30.53-10.59c0.36,1,.65,2.06,1.07,3.05l1.19,3Z" transform="translate(-140.76 -1015.42)"/><path class="cls-3" d="M168.63,1282.55c-1.08-2.39-2.18-4.77-3.22-7.17l29.78-12.53,2.65,5.9Z" transform="translate(-140.76 -1015.42)"/><path class="cls-3" d="M174,1293c-0.67-1.13-1.26-2.3-1.86-3.46l-1.79-3.5,28.91-14.42,1.47,2.88c0.49,1,1,1.93,1.53,2.85Z" transform="translate(-140.76 -1015.42)"/><path class="cls-3" d="M239.22,1334.25A161.51,161.51,0,0,1,197,1288.49l7.19-4.42a153.08,153.08,0,0,0,40,43.37Z" transform="translate(-140.76 -1015.42)"/><path class="cls-3" d="M229.77,1347.18a177.52,177.52,0,0,1-46.45-50.3l7.19-4.42a169.08,169.08,0,0,0,44.24,47.91Z" transform="translate(-140.76 -1015.42)"/><path class="cls-3" d="M321,1368.67c-4-.21-7.95-0.83-11.91-1.31-2-.32-3.93-0.69-5.9-1-1-.19-2-0.33-2.95-0.55l-2.92-.67-2.92-.67c-1-.22-1.95-0.44-2.9-0.73l-5.77-1.64c-1.92-.56-3.79-1.26-5.69-1.88l-2.84-1-2.79-1.1a164.31,164.31,0,0,1-41.56-23.56l-5.72,7.35a173.64,173.64,0,0,0,43.92,24.89L274,1368l3,1c2,0.66,4,1.4,6,2l6.09,1.73c1,0.31,2,.54,3.07.78l3.09,0.71,3.09,0.71c1,0.23,2.08.39,3.11,0.58,2.08,0.37,4.15.76,6.24,1.1,4.19,0.51,8.37,1.16,12.58,1.39Z" transform="translate(-140.76 -1015.42)"/><path class="cls-3" d="M484.3,1204.54a157.19,157.19,0,0,1-4.78,37.77l-1.31,4.58-0.65,2.29-0.76,2.26-1.52,4.51c-0.55,1.49-1.16,3-1.74,4.44-1.09,3-2.52,5.83-3.79,8.74-0.66,1.44-1.44,2.83-2.15,4.26s-1.41,2.85-2.24,4.21l-2.38,4.13c-0.78,1.39-1.7,2.69-2.54,4-1.66,2.72-3.56,5.27-5.39,7.87-0.89,1.32-1.95,2.52-2.91,3.78s-1.92,2.54-3,3.72c-2.09,2.4-4.13,4.84-6.38,7.1a150.32,150.32,0,0,1-14,13c-2.51,1.95-5,4-7.6,5.77-1.31.91-2.57,1.88-3.91,2.73l-4,2.57c-1.32.89-2.72,1.65-4.09,2.44s-2.74,1.61-4.15,2.35c-2.85,1.41-5.62,3-8.55,4.22-1.45.65-2.89,1.33-4.35,2l-4.43,1.74-2.22.87-2.26.76-4.51,1.53a155.46,155.46,0,0,1-37.47,6.61,157.39,157.39,0,0,1-38-2.93l-4.64-1.08-2.32-.53-2.29-.65-4.58-1.3c-1.51-.48-3-1-4.52-1.52-3-.94-5.95-2.23-8.92-3.36-1.48-.59-2.9-1.3-4.36-1.93s-2.92-1.27-4.31-2l-1.55,3.13c1.43,0.78,2.94,1.4,4.41,2.08s2.95,1.38,4.46,2c3,1.16,6,2.47,9.13,3.44,1.54,0.51,3.07,1.06,4.62,1.55l4.69,1.33,2.35,0.67,2.38,0.54,4.75,1.1a160.89,160.89,0,0,0,38.85,3,159,159,0,0,0,38.34-6.76l4.62-1.57,2.31-.78,2.27-.89,4.54-1.79c1.49-.64,3-1.34,4.45-2,3-1.27,5.83-2.87,8.75-4.32,1.44-.76,2.83-1.61,4.24-2.41s2.84-1.59,4.19-2.5l4.11-2.63c1.37-.87,2.66-1.87,4-2.8,2.7-1.83,5.2-3.91,7.77-5.9a153.85,153.85,0,0,0,14.31-13.27c2.3-2.31,4.39-4.81,6.52-7.26,1.1-1.2,2-2.54,3.06-3.8s2.06-2.52,3-3.87c1.87-2.66,3.82-5.27,5.52-8,0.86-1.38,1.8-2.71,2.6-4.13l2.43-4.23c0.85-1.39,1.54-2.86,2.29-4.31s1.52-2.88,2.2-4.36c1.3-3,2.77-5.89,3.88-8.95,0.59-1.52,1.21-3,1.78-4.54l1.56-4.62,0.78-2.31,0.66-2.35,1.34-4.69a160.68,160.68,0,0,0,4.89-38.64H484.3Z" transform="translate(-140.76 -1015.42)"/></g></g></g></g></svg>