<svg preserveAspectRatio="none" id="Layer_2" data-name="Layer 2" xmlns="http://www.w3.org/2000/svg" viewBox="0 0 335.01 353.28"><defs><style>.cls-1,.cls-7{fill:#3fa9f5;}.cls-2,.cls-7{opacity:0.7;}.cls-3{opacity:0.45;}.cls-4{opacity:0.3;}.cls-5{opacity:0.2;}.cls-6{opacity:0.1;}.cls-8{fill:none;stroke:#3fa9f5;stroke-miterlimit:10;}.cls-8,.cls-9{opacity:0.5;}</style></defs><title>circle119</title><path class="cls-1" d="M273.38,274.8l9.19,9.19a108.5,108.5,0,0,0,0,152l-9.19,9.19a121.5,121.5,0,0,1,0-170.41h0Zm0-1.42a122.5,122.5,0,0,0,0,173.24L284,436a107.5,107.5,0,0,1,0-152l-10.61-10.61h0Z" transform="translate(-198.01 -178.75)"/><path class="cls-1" d="M446.62,274.8a121.5,121.5,0,0,1,0,170.41L437.42,436a108.5,108.5,0,0,0,0-152l9.19-9.19h0Zm0-1.42L436,284a107.5,107.5,0,0,1,0,152l10.61,10.61a122.5,122.5,0,0,0,0-173.24h0Z" transform="translate(-198.01 -178.75)"/><path class="cls-1" d="M439.55,280.45a112.5,112.5,0,0,0-159.1,0l-3.54-3.54a117.5,117.5,0,0,1,166.17,0Z" transform="translate(-198.01 -178.75)"/><path class="cls-1" d="M360,477.5a116.73,116.73,0,0,1-83.08-34.42l3.54-3.54a112.5,112.5,0,0,0,159.1,0l3.54,3.54A116.73,116.73,0,0,1,360,477.5Z" transform="translate(-198.01 -178.75)"/><g class="cls-2"><rect class="cls-1" x="283.84" y="435.16" width="1" height="1" transform="translate(-422.79 149.91) rotate(-45)"/><path class="cls-1" d="M286.45,434.25l-0.71-.71,1.41-1.41,0.71,0.71Zm2.81-2.81-0.71-.71,1.41-1.41,0.71,0.71Zm2.81-2.82-0.71-.71,1.41-1.41,0.71,0.71Zm2.81-2.81-0.71-.71,1.41-1.41,0.71,0.71Zm2.81-2.81-0.71-.71,1.41-1.41,0.71,0.71Zm2.81-2.81-0.71-.71,1.41-1.41,0.71,0.71Zm2.81-2.82-0.71-.71,1.41-1.41,0.71,0.71Zm2.81-2.81-0.71-.71,1.41-1.41,0.71,0.71Zm2.81-2.81-0.71-.71,1.41-1.41,0.71,0.71Zm2.81-2.82-0.71-.71,1.41-1.41,0.71,0.71Zm2.81-2.81-0.71-.71L315.3,404,316,404.7Zm2.81-2.81-0.71-.71,1.41-1.41,0.71,0.71Zm2.81-2.81-0.71-.71,1.41-1.41,0.71,0.71Zm2.81-2.82-0.71-.71,1.41-1.41,0.71,0.71Zm2.81-2.81-0.71-.71,1.41-1.41,0.71,0.71Zm2.81-2.81-0.71-.71,1.41-1.41,0.71,0.71Zm2.81-2.82-0.71-.71,1.41-1.41,0.71,0.71Zm2.81-2.81-0.71-.71,1.41-1.41,0.71,0.71Zm2.81-2.81-0.71-.71,1.41-1.41,0.71,0.71Zm2.81-2.82-0.71-.71,1.41-1.41,0.71,0.71Zm2.81-2.81-0.71-.71,1.41-1.41,0.71,0.71Zm2.81-2.81-0.71-.71,1.41-1.41,0.71,0.71Zm2.81-2.81-0.71-.71,1.41-1.41,0.71,0.71Zm2.81-2.82-0.71-.71,1.41-1.41,0.71,0.71ZM354,366.7L353.3,366l1.41-1.41,0.71,0.71Zm2.81-2.81-0.71-.71,1.41-1.41,0.71,0.71Zm2.81-2.81-0.71-.71,1.41-1.41,0.71,0.71Zm2.81-2.82-0.71-.71,1.41-1.41,0.71,0.71Zm2.81-2.81-0.71-.71,1.41-1.41,0.71,0.71Zm2.81-2.81-0.71-.71,1.41-1.41,0.71,0.71Zm2.82-2.81-0.71-.71,1.41-1.41,0.71,0.71Zm2.81-2.81-0.71-.71,1.41-1.41,0.71,0.71Zm2.81-2.81-0.71-.71,1.41-1.41,0.71,0.71Zm2.82-2.81-0.71-.71,1.41-1.41,0.71,0.71Zm2.81-2.81-0.71-.71,1.41-1.41,0.71,0.71Zm2.81-2.81-0.71-.71,1.41-1.41,0.71,0.71Zm2.82-2.81-0.71-.71,1.41-1.41,0.71,0.71Zm2.81-2.81-0.71-.71L391.3,328,392,328.7Zm2.81-2.81-0.71-.71,1.41-1.41,0.71,0.71Zm2.81-2.81-0.71-.71,1.41-1.41,0.71,0.71Zm2.82-2.81-0.71-.71,1.41-1.41,0.71,0.71Zm2.81-2.81-0.71-.71,1.41-1.41,0.71,0.71Zm2.81-2.81-0.71-.71,1.41-1.41,0.71,0.71Zm2.82-2.81-0.71-.71,1.41-1.41,0.71,0.71Zm2.81-2.81-0.71-.71,1.41-1.41,0.71,0.71Zm2.81-2.81-0.71-.71,1.41-1.41,0.71,0.71Zm2.82-2.81-0.71-.71,1.41-1.41,0.71,0.71Zm2.81-2.81-0.71-.71,1.41-1.41,0.71,0.71Zm2.81-2.81-0.71-.71,1.41-1.41,0.71,0.71Zm2.81-2.81-0.71-.71,1.41-1.41,0.71,0.71Zm2.82-2.81-0.71-.71,1.41-1.41,0.71,0.71ZM430,290.7L429.3,290l1.41-1.41,0.71,0.71Zm2.81-2.81-0.71-.71,1.41-1.41,0.71,0.71Z" transform="translate(-198.01 -178.75)"/><rect class="cls-1" x="435.13" y="283.87" width="1" height="1" transform="translate(-271.5 212.58) rotate(-45)"/><rect class="cls-1" x="283.84" y="283.84" width="1" height="1" transform="translate(-315.79 105.62) rotate(-45)"/><path class="cls-1" d="M433.68,434.39L432.27,433l0.71-.71,1.41,1.41Zm-2.82-2.82-1.41-1.41,0.71-.71,1.41,1.41ZM428,428.75l-1.41-1.41,0.71-.71,1.41,1.41Zm-2.82-2.82-1.41-1.41,0.71-.71,1.41,1.41Zm-2.82-2.82L421,421.71l0.71-.71,1.41,1.41Zm-2.82-2.82-1.41-1.41,0.71-.71,1.41,1.41Zm-2.82-2.82-1.41-1.41,0.71-.71,1.41,1.41ZM414,414.66l-1.41-1.41,0.71-.71,1.41,1.41Zm-2.82-2.82-1.41-1.41,0.71-.71,1.41,1.41ZM408.32,409l-1.41-1.41,0.71-.71,1.41,1.41Zm-2.82-2.82-1.41-1.41,0.71-.71,1.41,1.41Zm-2.82-2.82L401.28,402l0.71-.71,1.41,1.41Zm-2.82-2.82-1.41-1.41,0.71-.71,1.41,1.41ZM397,397.76l-1.41-1.41,0.71-.71,1.41,1.41Zm-2.82-2.82-1.41-1.41,0.71-.71,1.41,1.41Zm-2.82-2.82L390,390.71l0.71-.71,1.41,1.41Zm-2.82-2.82-1.41-1.41,0.71-.71,1.41,1.41Zm-2.82-2.82-1.41-1.41,0.71-.71,1.41,1.41ZM383,383.67l-1.41-1.41,0.71-.71,1.41,1.41Zm-2.82-2.82-1.41-1.41,0.71-.71,1.41,1.41ZM377.33,378l-1.41-1.41,0.71-.71,1.41,1.41Zm-2.82-2.82-1.41-1.41,0.71-.71,1.41,1.41Zm-2.82-2.82L370.28,371l0.71-.71,1.41,1.41Zm-2.82-2.82-1.41-1.41,0.71-.71,1.41,1.41Zm-2.82-2.82-1.41-1.41,0.71-.71,1.41,1.41Zm-2.82-2.82-1.41-1.41,0.71-.71,1.41,1.41Zm-2.82-2.82L359,359.72l0.71-.71,1.41,1.41Zm-2.82-2.82-1.41-1.41,0.71-.71,1.41,1.41Zm-2.82-2.82-1.41-1.41,0.71-.71,1.41,1.41ZM352,352.67l-1.41-1.41,0.71-.71,1.41,1.41Zm-2.82-2.82-1.41-1.41,0.71-.71,1.41,1.41ZM346.33,347l-1.41-1.41,0.71-.71,1.41,1.41Zm-2.82-2.82-1.41-1.41,0.71-.71,1.41,1.41Zm-2.82-2.82L339.29,340l0.71-.71,1.41,1.41Zm-2.82-2.82-1.41-1.41,0.71-.71,1.41,1.41Zm-2.82-2.82-1.41-1.41,0.71-.71,1.41,1.41Zm-2.82-2.82-1.41-1.41,0.71-.71,1.41,1.41Zm-2.82-2.82L328,328.72l0.71-.71,1.41,1.41Zm-2.82-2.82-1.41-1.41,0.71-.71,1.41,1.41Zm-2.82-2.82-1.41-1.41,0.71-.71,1.41,1.41ZM321,321.68l-1.41-1.41,0.71-.71,1.41,1.41Zm-2.82-2.82-1.41-1.41,0.71-.71,1.41,1.41ZM315.33,316l-1.41-1.41,0.71-.71,1.41,1.41Zm-2.82-2.82-1.41-1.41,0.71-.71,1.41,1.41Zm-2.82-2.82L308.29,309l0.71-.71,1.41,1.41Zm-2.82-2.82-1.41-1.41,0.71-.71,1.41,1.41Zm-2.82-2.82-1.41-1.41,0.71-.71,1.41,1.41ZM301.25,302l-1.41-1.41,0.71-.71,1.41,1.41Zm-2.82-2.82L297,297.73l0.71-.71,1.41,1.41Zm-2.82-2.82-1.41-1.41,0.71-.71,1.41,1.41Zm-2.82-2.82-1.41-1.41,0.71-.71,1.41,1.41ZM290,290.68l-1.41-1.41,0.71-.71,1.41,1.41Zm-2.82-2.82-1.41-1.41,0.71-.71,1.41,1.41Z" transform="translate(-198.01 -178.75)"/><rect class="cls-1" x="435.3" y="435.3" width="1" height="1" transform="translate(-378.53 257.09) rotate(-45)"/></g><g class="cls-3"><path class="cls-1" d="M292.83,294.24a94,94,0,0,0,0,131.52l14.5-14.5a73.51,73.51,0,0,1,0-102.52l-14.5-14.5h0Z" transform="translate(-198.01 -178.75)"/><path class="cls-1" d="M427.17,294.24l-14.5,14.5a73.52,73.52,0,0,1,0,102.53l14.5,14.5a94,94,0,0,0,0-131.52h0Z" transform="translate(-198.01 -178.75)"/></g><g class="cls-4"><path class="cls-1" d="M308.74,310.15a71.51,71.51,0,0,0,0,99.7l14.5-14.5a51,51,0,0,1,0-70.7l-14.5-14.5h0Z" transform="translate(-198.01 -178.75)"/><path class="cls-1" d="M411.26,310.15l-14.5,14.5a51,51,0,0,1,0,70.7l14.5,14.5a71.52,71.52,0,0,0,0-99.7h0Z" transform="translate(-198.01 -178.75)"/></g><g class="cls-5"><path class="cls-1" d="M395.35,326.06l-14.5,14.5a28.51,28.51,0,0,1,0,38.87l14.5,14.5a49,49,0,0,0,0-67.87h0Z" transform="translate(-198.01 -178.75)"/><path class="cls-1" d="M324.65,326.07a49,49,0,0,0,0,67.87l14.5-14.5a28.51,28.51,0,0,1,0-38.87l-14.5-14.5h0Z" transform="translate(-198.01 -178.75)"/></g><g class="cls-6"><path class="cls-1" d="M379.43,342l-18,18,18,18a26.51,26.51,0,0,0,0-36h0Z" transform="translate(-198.01 -178.75)"/></g><g class="cls-6"><path class="cls-1" d="M340.57,342a26.51,26.51,0,0,0,0,36l18-18-18-18h0Z" transform="translate(-198.01 -178.75)"/></g><circle class="cls-7" cx="161.99" cy="181.25" r="4"/><circle class="cls-8" cx="161.99" cy="181.25" r="27.13"/><rect class="cls-1" x="19.99" y="181.25" width="13" height="1"/><rect class="cls-1" x="290.99" y="181.25" width="13" height="1"/><rect class="cls-1" x="225.16" y="336.31" width="1" height="13" transform="matrix(0.13, -0.99, 0.99, 0.13, -341.67, 343.08)"/><rect class="cls-1" x="493.84" y="371.69" width="1" height="13" transform="translate(-143.12 640.21) rotate(-82.5)"/><rect class="cls-1" x="228.62" y="318.93" width="1" height="13" transform="translate(-342.53 283.79) rotate(-75)"/><polygon class="cls-1" points="299.02 218.99 286.46 215.62 286.72 214.65 299.28 218.02 299.02 218.99"/><rect class="cls-1" x="234.31" y="302.15" width="1" height="13" transform="translate(-338.2 228.75) rotate(-67.5)"/><rect class="cls-1" x="484.69" y="405.85" width="1" height="13" transform="translate(-279.45 524.09) rotate(-67.5)"/><rect class="cls-1" x="242.15" y="286.25" width="1" height="13" transform="translate(-330.21 177.8) rotate(-60)"/><rect class="cls-1" x="476.85" y="421.75" width="1" height="13" transform="translate(-330.2 448.8) rotate(-60)"/><rect class="cls-1" x="252" y="271.51" width="1" height="13" transform="translate(-319.79 130.36) rotate(-52.5)"/><rect class="cls-1" x="467" y="436.49" width="1" height="13" transform="translate(-366.55 365.51) rotate(-52.5)"/><rect class="cls-1" x="263.85" y="258.12" width="1" height="13.48" transform="translate(-307.87 85.77) rotate(-45)"/><rect class="cls-1" x="455.07" y="449.22" width="1" height="13.7" transform="translate(-387.07 277.03) rotate(-45.01)"/><rect class="cls-1" x="448.94" y="264.34" width="13.44" height="1" transform="translate(-251.83 221.02) rotate(-45)"/><rect class="cls-1" x="257.58" y="455.56" width="13.72" height="1" transform="translate(-443.03 141.78) rotate(-45)"/><rect class="cls-1" x="461" y="277.51" width="13" height="1" transform="translate(-270.6 163.69) rotate(-37.54)"/><rect class="cls-1" x="246" y="442.49" width="13" height="1" transform="translate(-415.48 66.43) rotate(-37.49)"/><rect class="cls-1" x="470.85" y="292.25" width="13" height="1" transform="translate(-280.44 99.1) rotate(-29.99)"/><rect class="cls-1" x="236.15" y="427.75" width="13" height="1" transform="translate(-379.73 0.13) rotate(-30.02)"/><rect class="cls-1" x="478.69" y="308.15" width="13" height="1" transform="translate(-279.21 30.49) rotate(-22.51)"/><rect class="cls-1" x="228.31" y="411.85" width="13" height="1" transform="translate(-337.98 -57.45) rotate(-22.51)"/><rect class="cls-1" x="484.38" y="324.93" width="13" height="1" transform="translate(-265.7 -40.06) rotate(-15.06)"/><rect class="cls-1" x="222.62" y="395.07" width="13" height="1" transform="matrix(0.97, -0.26, 0.26, 0.97, -292.51, -106.05)"/><rect class="cls-1" x="487.84" y="342.31" width="13" height="1" transform="translate(-238.61 -111.13) rotate(-7.52)"/><rect class="cls-1" x="219.16" y="377.69" width="13" height="1" transform="translate(-245.54 -145.99) rotate(-7.52)"/><rect class="cls-1" x="290.99" y="181.25" width="13" height="1"/><rect class="cls-1" x="19.99" y="181.25" width="13" height="1"/><rect class="cls-1" x="23.98" y="181.25" width="9" height="1"/><rect class="cls-1" x="290.99" y="181.25" width="9" height="1"/><rect class="cls-1" x="226.28" y="347.27" width="1" height="9" transform="translate(-337.05 376.37) rotate(-86.26)"/><rect class="cls-1" x="492.71" y="364.73" width="1" height="9" transform="translate(-105.58 658.42) rotate(-86.24)"/><rect class="cls-1" x="227.14" y="338.57" width="1" height="9" transform="matrix(0.13, -0.99, 0.99, 0.13, -340.2, 345.29)"/><rect class="cls-1" x="491.86" y="373.43" width="1" height="9" transform="translate(-144.68 637.92) rotate(-82.49)"/><rect class="cls-1" x="228.56" y="329.95" width="1" height="9" transform="translate(-341.65 315.16) rotate(-78.76)"/><rect class="cls-1" x="490.43" y="382.05" width="1" height="9" transform="translate(-182.05 613.8) rotate(-78.74)"/><rect class="cls-1" x="230.55" y="321.45" width="1" height="9" transform="matrix(0.26, -0.97, 0.97, 0.26, -341.59, 286.04)"/><rect class="cls-1" x="488.45" y="390.55" width="1" height="9" transform="translate(-217.26 586.26) rotate(-74.99)"/><rect class="cls-1" x="233.08" y="313.09" width="1" height="9" transform="translate(-340.24 257.98) rotate(-71.26)"/><rect class="cls-1" x="485.91" y="398.91" width="1" height="9" transform="translate(-250.01 555.51) rotate(-71.24)"/><rect class="cls-1" x="236.16" y="304.91" width="1" height="9" transform="translate(-337.77 230.94) rotate(-67.51)"/><rect class="cls-1" x="482.84" y="407.09" width="1" height="9" transform="translate(-279.94 521.8) rotate(-67.49)"/><rect class="cls-1" x="239.77" y="296.95" width="1" height="9" transform="translate(-334.37 204.89) rotate(-63.75)"/><rect class="cls-1" x="479.23" y="415.05" width="1" height="9" transform="translate(-306.76 485.46) rotate(-63.75)"/><rect class="cls-1" x="243.88" y="289.25" width="1" height="9" transform="translate(-330.21 179.8) rotate(-60.01)"/><rect class="cls-1" x="475.11" y="422.75" width="1" height="9" transform="matrix(0.5, -0.87, 0.87, 0.5, -330.23, 446.72)"/><rect class="cls-1" x="248.5" y="281.83" width="1" height="9" transform="translate(-325.42 155.56) rotate(-56.25)"/><polygon class="cls-1" points="276.45 258.83 268.97 253.84 269.52 253 277.01 258 276.45 258.83"/><rect class="cls-1" x="253.59" y="274.73" width="1" height="9" transform="translate(-320.13 132.11) rotate(-52.5)"/><rect class="cls-1" x="465.41" y="437.27" width="1" height="9" transform="translate(-366.22 363.66) rotate(-52.49)"/><rect class="cls-1" x="259.13" y="267.98" width="1" height="9" transform="translate(-314.43 109.28) rotate(-48.75)"/><rect class="cls-1" x="459.87" y="444.02" width="1" height="9" transform="translate(-378.41 320.14) rotate(-48.75)"/><path class="cls-1" d="M268.6,451.91a129.14,129.14,0,0,1-.41-182.76l0.7,0.71a128.14,128.14,0,0,0,.41,181.34Z" transform="translate(-198.01 -178.75)"/><path class="cls-1" d="M451.42,451.92l-0.7-.71a128.18,128.18,0,0,0,.4-181.36l0.7-.71A129.17,129.17,0,0,1,451.42,451.92Z" transform="translate(-198.01 -178.75)"/><rect class="cls-1" x="455.87" y="271.98" width="9" height="1" transform="translate(-263.37 192.73) rotate(-41.28)"/><rect class="cls-1" x="255.13" y="448.02" width="9" height="1" transform="translate(-429.29 103.67) rotate(-41.24)"/><rect class="cls-1" x="461.41" y="278.73" width="9" height="1" transform="translate(-271.67 162.97) rotate(-37.54)"/><rect class="cls-1" x="249.59" y="441.27" width="9" height="1" transform="translate(-414.43 67.19) rotate(-37.5)"/><rect class="cls-1" x="466.5" y="285.83" width="9" height="1" transform="translate(-277.73 130.89) rotate(-33.72)"/><rect class="cls-1" x="244.5" y="434.17" width="9" height="1" transform="translate(-397.47 32.69) rotate(-33.73)"/><rect class="cls-1" x="471.12" y="293.25" width="9" height="1" transform="translate(-281.17 98.36) rotate(-29.99)"/><rect class="cls-1" x="239.89" y="426.75" width="9" height="1" transform="translate(-379 0.86) rotate(-30.02)"/><rect class="cls-1" x="475.23" y="300.96" width="9" height="1" transform="translate(-281.83 64.17) rotate(-26.21)"/><rect class="cls-1" x="235.77" y="419.05" width="9" height="1" transform="translate(-358.87 -29.11) rotate(-26.27)"/><rect class="cls-1" x="478.84" y="308.91" width="9" height="1" transform="translate(-279.64 29.85) rotate(-22.51)"/><rect class="cls-1" x="232.16" y="411.09" width="9" height="1" transform="translate(-337.53 -56.82) rotate(-22.51)"/><rect class="cls-1" x="481.92" y="317.09" width="9" height="1" transform="translate(-274.37 -5.2) rotate(-18.78)"/><rect class="cls-1" x="229.09" y="402.91" width="9" height="1" transform="translate(-315.21 -82.35) rotate(-18.74)"/><rect class="cls-1" x="484.45" y="325.45" width="9" height="1" transform="translate(-265.54 -41.62) rotate(-14.95)"/><rect class="cls-1" x="226.55" y="394.55" width="9" height="1" transform="translate(-292.31 -105.57) rotate(-14.99)"/><rect class="cls-1" x="486.44" y="333.96" width="9" height="1" transform="translate(-253.89 -76.39) rotate(-11.27)"/><rect class="cls-1" x="224.57" y="386.05" width="9" height="1" transform="translate(-269.11 -126.56) rotate(-11.26)"/><rect class="cls-1" x="487.86" y="342.58" width="9" height="1" transform="translate(-238.67 -111.39) rotate(-7.52)"/><rect class="cls-1" x="223.14" y="377.42" width="9" height="1" transform="translate(-245.49 -145.73) rotate(-7.52)"/><rect class="cls-1" x="488.71" y="351.27" width="9" height="1" transform="translate(-219.67 -146.21) rotate(-3.7)"/><rect class="cls-1" x="222.29" y="368.73" width="9" height="1" transform="translate(-221.67 -163.13) rotate(-3.75)"/><rect class="cls-1" x="290.99" y="181.25" width="9" height="1"/><rect class="cls-1" x="23.99" y="181.25" width="9" height="1"/><rect class="cls-1" x="19.99" y="181.25" width="13" height="1"/><rect class="cls-1" x="290.99" y="181.25" width="13" height="1"/><rect class="cls-1" x="225.16" y="336.31" width="1" height="13" transform="matrix(0.13, -0.99, 0.99, 0.13, -341.67, 343.08)"/><rect class="cls-1" x="493.84" y="371.69" width="1" height="13" transform="translate(-143.12 640.21) rotate(-82.5)"/><rect class="cls-1" x="228.62" y="318.93" width="1" height="13" transform="translate(-342.53 283.79) rotate(-75)"/><polygon class="cls-1" points="299.02 218.99 286.46 215.62 286.72 214.65 299.28 218.02 299.02 218.99"/><rect class="cls-1" x="234.31" y="302.15" width="1" height="13" transform="translate(-338.2 228.75) rotate(-67.5)"/><rect class="cls-1" x="484.69" y="405.85" width="1" height="13" transform="translate(-279.45 524.09) rotate(-67.5)"/><rect class="cls-1" x="242.15" y="286.25" width="1" height="13" transform="translate(-330.21 177.8) rotate(-60)"/><rect class="cls-1" x="476.85" y="421.75" width="1" height="13" transform="translate(-330.2 448.8) rotate(-60)"/><rect class="cls-1" x="252" y="271.51" width="1" height="13" transform="translate(-319.79 130.36) rotate(-52.5)"/><rect class="cls-1" x="467" y="436.49" width="1" height="13" transform="translate(-366.55 365.51) rotate(-52.5)"/><rect class="cls-1" x="263.85" y="258.12" width="1" height="13.48" transform="translate(-307.87 85.77) rotate(-45)"/><rect class="cls-1" x="455.07" y="449.22" width="1" height="13.7" transform="translate(-387.07 277.03) rotate(-45.01)"/><rect class="cls-1" x="448.94" y="264.34" width="13.44" height="1" transform="translate(-251.83 221.02) rotate(-45)"/><rect class="cls-1" x="257.58" y="455.56" width="13.72" height="1" transform="translate(-443.03 141.78) rotate(-45)"/><rect class="cls-1" x="461" y="277.51" width="13" height="1" transform="translate(-270.6 163.69) rotate(-37.54)"/><rect class="cls-1" x="246" y="442.49" width="13" height="1" transform="translate(-415.48 66.43) rotate(-37.49)"/><rect class="cls-1" x="470.85" y="292.25" width="13" height="1" transform="translate(-280.44 99.1) rotate(-29.99)"/><rect class="cls-1" x="236.15" y="427.75" width="13" height="1" transform="translate(-379.73 0.13) rotate(-30.02)"/><rect class="cls-1" x="478.69" y="308.15" width="13" height="1" transform="translate(-279.21 30.49) rotate(-22.51)"/><rect class="cls-1" x="228.31" y="411.85" width="13" height="1" transform="translate(-337.98 -57.45) rotate(-22.51)"/><rect class="cls-1" x="484.38" y="324.93" width="13" height="1" transform="translate(-265.7 -40.06) rotate(-15.06)"/><rect class="cls-1" x="222.62" y="395.07" width="13" height="1" transform="matrix(0.97, -0.26, 0.26, 0.97, -292.51, -106.05)"/><rect class="cls-1" x="487.84" y="342.31" width="13" height="1" transform="translate(-238.61 -111.13) rotate(-7.52)"/><rect class="cls-1" x="219.16" y="377.69" width="13" height="1" transform="translate(-245.54 -145.99) rotate(-7.52)"/><rect class="cls-1" x="290.99" y="181.25" width="13" height="1"/><rect class="cls-1" x="19.99" y="181.25" width="13" height="1"/><rect class="cls-1" x="23.98" y="181.25" width="9" height="1"/><rect class="cls-1" x="290.99" y="181.25" width="9" height="1"/><rect class="cls-1" x="226.28" y="347.27" width="1" height="9" transform="translate(-337.05 376.37) rotate(-86.26)"/><rect class="cls-1" x="492.71" y="364.73" width="1" height="9" transform="translate(-105.58 658.42) rotate(-86.24)"/><rect class="cls-1" x="227.14" y="338.57" width="1" height="9" transform="matrix(0.13, -0.99, 0.99, 0.13, -340.2, 345.29)"/><rect class="cls-1" x="491.86" y="373.43" width="1" height="9" transform="translate(-144.68 637.92) rotate(-82.49)"/><rect class="cls-1" x="228.56" y="329.95" width="1" height="9" transform="translate(-341.65 315.16) rotate(-78.76)"/><rect class="cls-1" x="490.43" y="382.05" width="1" height="9" transform="translate(-182.05 613.8) rotate(-78.74)"/><rect class="cls-1" x="230.55" y="321.45" width="1" height="9" transform="matrix(0.26, -0.97, 0.97, 0.26, -341.59, 286.04)"/><rect class="cls-1" x="488.45" y="390.55" width="1" height="9" transform="translate(-217.26 586.26) rotate(-74.99)"/><rect class="cls-1" x="233.08" y="313.09" width="1" height="9" transform="translate(-340.24 257.98) rotate(-71.26)"/><rect class="cls-1" x="485.91" y="398.91" width="1" height="9" transform="translate(-250.01 555.51) rotate(-71.24)"/><rect class="cls-1" x="236.16" y="304.91" width="1" height="9" transform="translate(-337.77 230.94) rotate(-67.51)"/><rect class="cls-1" x="482.84" y="407.09" width="1" height="9" transform="translate(-279.94 521.8) rotate(-67.49)"/><rect class="cls-1" x="239.77" y="296.95" width="1" height="9" transform="translate(-334.37 204.89) rotate(-63.75)"/><rect class="cls-1" x="479.23" y="415.05" width="1" height="9" transform="translate(-306.76 485.46) rotate(-63.75)"/><rect class="cls-1" x="243.88" y="289.25" width="1" height="9" transform="translate(-330.21 179.8) rotate(-60.01)"/><rect class="cls-1" x="475.11" y="422.75" width="1" height="9" transform="matrix(0.5, -0.87, 0.87, 0.5, -330.23, 446.72)"/><rect class="cls-1" x="248.5" y="281.83" width="1" height="9" transform="translate(-325.42 155.56) rotate(-56.25)"/><polygon class="cls-1" points="276.45 258.83 268.97 253.84 269.52 253 277.01 258 276.45 258.83"/><rect class="cls-1" x="253.59" y="274.73" width="1" height="9" transform="translate(-320.13 132.11) rotate(-52.5)"/><rect class="cls-1" x="465.41" y="437.27" width="1" height="9" transform="translate(-366.22 363.66) rotate(-52.49)"/><rect class="cls-1" x="259.13" y="267.98" width="1" height="9" transform="translate(-314.43 109.28) rotate(-48.75)"/><rect class="cls-1" x="459.87" y="444.02" width="1" height="9" transform="translate(-378.41 320.14) rotate(-48.75)"/><path class="cls-1" d="M268.6,451.91a129.14,129.14,0,0,1-.41-182.76l0.7,0.71a128.14,128.14,0,0,0,.41,181.34Z" transform="translate(-198.01 -178.75)"/><path class="cls-1" d="M451.42,451.92l-0.7-.71a128.18,128.18,0,0,0,.4-181.36l0.7-.71A129.17,129.17,0,0,1,451.42,451.92Z" transform="translate(-198.01 -178.75)"/><rect class="cls-1" x="455.87" y="271.98" width="9" height="1" transform="translate(-263.37 192.73) rotate(-41.28)"/><rect class="cls-1" x="255.13" y="448.02" width="9" height="1" transform="translate(-429.29 103.67) rotate(-41.24)"/><rect class="cls-1" x="461.41" y="278.73" width="9" height="1" transform="translate(-271.67 162.97) rotate(-37.54)"/><rect class="cls-1" x="249.59" y="441.27" width="9" height="1" transform="translate(-414.43 67.19) rotate(-37.5)"/><rect class="cls-1" x="466.5" y="285.83" width="9" height="1" transform="translate(-277.73 130.89) rotate(-33.72)"/><rect class="cls-1" x="244.5" y="434.17" width="9" height="1" transform="translate(-397.47 32.69) rotate(-33.73)"/><rect class="cls-1" x="471.12" y="293.25" width="9" height="1" transform="translate(-281.17 98.36) rotate(-29.99)"/><rect class="cls-1" x="239.89" y="426.75" width="9" height="1" transform="translate(-379 0.86) rotate(-30.02)"/><rect class="cls-1" x="475.23" y="300.96" width="9" height="1" transform="translate(-281.83 64.17) rotate(-26.21)"/><rect class="cls-1" x="235.77" y="419.05" width="9" height="1" transform="translate(-358.87 -29.11) rotate(-26.27)"/><rect class="cls-1" x="478.84" y="308.91" width="9" height="1" transform="translate(-279.64 29.85) rotate(-22.51)"/><rect class="cls-1" x="232.16" y="411.09" width="9" height="1" transform="translate(-337.53 -56.82) rotate(-22.51)"/><rect class="cls-1" x="481.92" y="317.09" width="9" height="1" transform="translate(-274.37 -5.2) rotate(-18.78)"/><rect class="cls-1" x="229.09" y="402.91" width="9" height="1" transform="translate(-315.21 -82.35) rotate(-18.74)"/><rect class="cls-1" x="484.45" y="325.45" width="9" height="1" transform="translate(-265.54 -41.62) rotate(-14.95)"/><rect class="cls-1" x="226.55" y="394.55" width="9" height="1" transform="translate(-292.31 -105.57) rotate(-14.99)"/><rect class="cls-1" x="486.44" y="333.96" width="9" height="1" transform="translate(-253.89 -76.39) rotate(-11.27)"/><rect class="cls-1" x="224.57" y="386.05" width="9" height="1" transform="translate(-269.11 -126.56) rotate(-11.26)"/><rect class="cls-1" x="487.86" y="342.58" width="9" height="1" transform="translate(-238.67 -111.39) rotate(-7.52)"/><rect class="cls-1" x="223.14" y="377.42" width="9" height="1" transform="translate(-245.49 -145.73) rotate(-7.52)"/><rect class="cls-1" x="488.71" y="351.27" width="9" height="1" transform="translate(-219.67 -146.21) rotate(-3.7)"/><rect class="cls-1" x="222.29" y="368.73" width="9" height="1" transform="translate(-221.67 -163.13) rotate(-3.75)"/><rect class="cls-1" x="290.99" y="181.25" width="9" height="1"/><rect class="cls-1" x="23.99" y="181.25" width="9" height="1"/><polygon class="cls-1" points="155.49 295.25 161.99 288.75 168.49 295.25 155.49 295.25"/><polygon class="cls-1" points="158.49 254.25 161.99 250.75 165.49 254.25 158.49 254.25"/><polygon class="cls-1" points="168.49 67.25 161.99 73.75 155.49 67.25 168.49 67.25"/><polygon class="cls-1" points="165.49 109.25 161.99 112.75 158.49 109.25 165.49 109.25"/><g class="cls-4"><path class="cls-1" d="M360,520.5c-88.5,0-160.5-72-160.5-160.5h1c0,87.95,71.55,159.5,159.5,159.5S519.5,447.95,519.5,360,447.95,200.5,360,200.5v-1c88.5,0,160.5,72,160.5,160.5S448.5,520.5,360,520.5Z" transform="translate(-198.01 -178.75)"/></g><g class="cls-9"><path class="cls-1" d="M360.13,526.43a166.2,166.2,0,0,1-127.61-59.32l0.77-.64c58.7,69.87,163.31,79,233.18,20.25s79-163.31,20.25-233.18a165.5,165.5,0,0,0-233.18-20.25l-0.64-.77a166.5,166.5,0,0,1,234.58,20.37c59.06,70.29,49.92,175.53-20.37,234.58A165.77,165.77,0,0,1,360.13,526.43Z" transform="translate(-198.01 -178.75)"/></g><path class="cls-1" d="M360.08,532A173.38,173.38,0,0,1,202.4,430.18l0.91-.41A171.93,171.93,0,1,0,516.69,288.23c-39-86.4-141.06-124.95-227.46-85.93l-0.41-.91c86.91-39.25,189.54-.48,228.78,86.43A173.12,173.12,0,0,1,360.08,532Z" transform="translate(-198.01 -178.75)"/><circle class="cls-1" cx="2" cy="181.32" r="2"/><circle class="cls-1" cx="55.2" cy="54.13" r="2"/><g class="cls-9"><path class="cls-1" d="M214.48,179.18v0.34" transform="translate(-198.01 -178.75)"/><path class="cls-1" d="M215.25,178.75l-0.35.35" transform="translate(-198.01 -178.75)"/></g></svg>