<svg preserveAspectRatio="none" id="Layer_1" data-name="Layer 1" xmlns="http://www.w3.org/2000/svg" viewBox="0 0 69.62 69.61"><defs><style>.cls-1{fill:#00b3ea}.cls-2{fill:#08ade5}.cls-4{fill:#feb113}</style></defs><path class="cls-1" d="M12.46 34.4h.27v.8h-.27zM13.05 34.4h.27v.8h-.27zM13.65 34.4h.27v.8h-.27zM14.25 34.4h.27v.8h-.27zM14.84 34.4h.27v.8h-.27zM15.44 34.4h.27v.8h-.27zM16.03 34.4h.27v.8h-.27zM16.63 34.4h.27v.8h-.27zM17.23 34.4h.27v.8h-.27zM17.82 34.4h.27v.8h-.27zM18.42 34.4h.27v.8h-.27zM19.01 34.4h.27v.8h-.27zM19.61 34.4h.27v.8h-.27zM20.21 34.4h.27v.8h-.27zM20.8 34.4h.27v.8h-.27zM21.4 34.4h.27v.8h-.27zM22 34.4h.27v.8H22zM22.59 34.4h.27v.8h-.27zM23.19 34.4h.27v.8h-.27zM23.78 34.4h.27v.8h-.27zM24.38 34.4h.27v.8h-.27zM24.98 34.4h.27v.8h-.27zM25.57 34.4h.27v.8h-.27zM26.17 34.4h.27v.8h-.27zM26.76 34.4h.27v.8h-.27zM27.36 34.4h.27v.8h-.27zM27.96 34.4h.27v.8h-.27zM28.55 34.4h.27v.8h-.27zM29.15 34.4h.27v.8h-.27zM29.74 34.4h.27v.8h-.27zM30.34 34.4h.27v.8h-.27zM38.76 34.4h.27v.8h-.27zM39.36 34.4h.27v.8h-.27zM39.95 34.4h.27v.8h-.27zM40.55 34.4h.27v.8h-.27zM41.15 34.4h.27v.8h-.27zM41.74 34.4h.27v.8h-.27zM42.34 34.4h.27v.8h-.27zM42.93 34.4h.27v.8h-.27zM43.53 34.4h.27v.8h-.27zM44.13 34.4h.27v.8h-.27zM44.72 34.4h.27v.8h-.27zM45.32 34.4h.27v.8h-.27zM45.91 34.4h.27v.8h-.27zM46.51 34.4h.27v.8h-.27zM47.11 34.4h.27v.8h-.27zM47.7 34.4h.27v.8h-.27zM48.3 34.4h.27v.8h-.27zM48.89 34.4h.27v.8h-.27zM49.49 34.4h.27v.8h-.27zM50.09 34.4h.27v.8h-.27zM50.68 34.4h.27v.8h-.27zM51.28 34.4h.27v.8h-.27zM51.87 34.4h.27v.8h-.27zM52.47 34.4h.27v.8h-.27zM53.07 34.4h.27v.8h-.27zM53.66 34.4h.27v.8h-.27zM54.26 34.4h.27v.8h-.27zM54.85 34.4h.27v.8h-.27zM55.45 34.4h.27v.8h-.27zM56.05 34.4h.27v.8h-.27zM56.64 34.4h.27v.8h-.27zM34.52 56.76h.8v.27h-.8zM34.52 56.17h.8v.27h-.8zM34.52 55.57h.8v.27h-.8zM34.52 54.98h.8v.27h-.8zM34.52 54.38h.8v.27h-.8zM34.52 53.78h.8v.27h-.8zM34.52 53.19h.8v.27h-.8zM34.52 52.59h.8v.27h-.8zM34.52 52h.8v.27h-.8zM34.52 51.4h.8v.27h-.8zM34.52 50.8h.8v.27h-.8zM34.52 50.21h.8v.27h-.8zM34.52 49.61h.8v.27h-.8zM34.52 49.02h.8v.27h-.8zM34.52 48.42h.8v.27h-.8zM34.52 47.82h.8v.27h-.8zM34.52 47.23h.8v.27h-.8zM34.52 46.63h.8v.27h-.8zM34.52 46.03h.8v.27h-.8zM34.52 45.44h.8v.27h-.8zM34.52 44.84h.8v.27h-.8zM34.52 44.25h.8v.27h-.8zM34.52 43.65h.8v.27h-.8zM34.52 43.05h.8v.27h-.8zM34.52 42.46h.8v.27h-.8zM34.52 41.86h.8v.27h-.8zM34.52 41.27h.8v.27h-.8zM34.52 40.67h.8v.27h-.8zM34.52 40.07h.8v.27h-.8zM34.52 39.48h.8v.27h-.8zM34.52 38.88h.8v.27h-.8zM34.52 30.46h.8v.27h-.8zM34.52 29.87h.8v.27h-.8zM34.52 29.27h.8v.27h-.8zM34.52 28.67h.8v.27h-.8zM34.52 28.08h.8v.27h-.8zM34.52 27.48h.8v.27h-.8zM34.52 26.88h.8v.27h-.8zM34.52 26.29h.8v.27h-.8zM34.52 25.69h.8v.27h-.8zM34.52 25.1h.8v.27h-.8zM34.52 24.5h.8v.27h-.8zM34.52 23.9h.8v.27h-.8zM34.52 23.31h.8v.27h-.8zM34.52 22.71h.8v.27h-.8zM34.52 22.12h.8v.27h-.8zM34.52 21.52h.8v.27h-.8zM34.52 20.92h.8v.27h-.8zM34.52 20.33h.8v.27h-.8zM34.52 19.73h.8V20h-.8zM34.52 19.14h.8v.27h-.8zM34.52 18.54h.8v.27h-.8zM34.52 17.94h.8v.27h-.8zM34.52 17.35h.8v.27h-.8zM34.52 16.75h.8v.27h-.8zM34.52 16.16h.8v.27h-.8zM34.52 15.56h.8v.27h-.8zM34.52 14.96h.8v.27h-.8zM34.52 14.37h.8v.27h-.8zM34.52 13.77h.8v.27h-.8zM34.52 13.18h.8v.27h-.8zM34.52 12.58h.8v.27h-.8z"/><path class="cls-2" d="M278 240.5s.39-.11 1-.23l1-.18 1.15-.14c.38 0 .78-.06 1.13-.07h1.9v-.93-.97c0-.35 0-.75.07-1.13s.09-.78.14-1.15.12-.71.18-1c.12-.6.23-1 .23-1l.49-.31c.15-.1.35-.21.57-.34s.47-.28.76-.42a23 23 0 014.31-1.77 23.78 23.78 0 014.57-.87l.86-.07h2.5l.86.07a23.78 23.78 0 014.57.87 23 23 0 014.31 1.77c.28.14.53.3.76.42s.42.24.57.34l.49.31s.11.39.23 1c.06.3.13.64.18 1s.1.76.14 1.15.06.78.07 1.13v1.9H312.94c.35 0 .75 0 1.13.07l1.15.14 1 .18c.6.12 1 .23 1 .23l.31.49c.1.15.21.35.34.57s.28.47.42.76a22.94 22.94 0 011.77 4.31 23.78 23.78 0 01.87 4.57l.06.86v2.5l-.06.86a23.78 23.78 0 01-.87 4.57 23 23 0 01-1.77 4.31c-.14.28-.3.53-.42.76s-.24.42-.34.57l-.31.49s-.39.11-1 .23l-1 .18-1.15.14c-.38 0-.78.06-1.13.07h-1.87V268.64c0 .35 0 .75-.07 1.13s-.09.78-.14 1.15-.12.71-.18 1c-.12.6-.23 1-.23 1l-.49.31c-.15.1-.35.21-.57.34s-.47.28-.76.42a23 23 0 01-4.31 1.77 23.78 23.78 0 01-4.57.87l-.86.07h-2.5l-.86-.07a23.75 23.75 0 01-4.57-.87 23 23 0 01-4.31-1.77c-.28-.14-.53-.3-.76-.42s-.42-.24-.57-.34l-.49-.31s-.11-.39-.23-1c-.06-.3-.13-.64-.18-1s-.1-.76-.14-1.15-.06-.78-.07-1.13v-.51-.46-.93H282.31c-.35 0-.75 0-1.13-.07l-1.15-.14-1-.18c-.6-.12-1-.23-1-.23l-.31-.49c-.1-.15-.21-.35-.34-.57s-.28-.47-.42-.76a23 23 0 01-1.77-4.31 23.78 23.78 0 01-.87-4.57l-.07-.86v-1.25h-.65v1.28l.07.89a24.37 24.37 0 00.9 4.69 23.54 23.54 0 001.81 4.42c.15.29.31.55.43.78s.25.43.35.59l.32.5.44.12.44.1.86.18c.52.09 1.2.19 1.88.25s1.34.09 1.84.08h.81v1.93c0 .36 0 .76.09 1.15s.1.79.16 1.16.14.72.2 1c.13.61.24 1 .24 1l.5.32c.16.11.36.22.59.35s.48.29.78.43a23.59 23.59 0 004.42 1.81 24.35 24.35 0 004.69.9l.89.07H298.86l.89-.07a24.36 24.36 0 004.69-.9 23.6 23.6 0 004.42-1.81c.29-.15.55-.31.78-.44s.43-.25.59-.35l.5-.32.12-.44.1-.44s.08-.35.18-.86.19-1.2.25-1.88.09-1.34.08-1.84 0-.81 0-.81h1.93c.36 0 .76 0 1.15-.09l1.16-.16 1-.2c.61-.13 1-.24 1-.24l.32-.5c.11-.16.22-.36.35-.59s.29-.48.43-.78a23.57 23.57 0 001.81-4.42 24.38 24.38 0 00.9-4.69l.07-.89V252.04l-.07-.89a24.38 24.38 0 00-.9-4.69 23.59 23.59 0 00-1.81-4.42c-.15-.29-.31-.54-.43-.78s-.25-.43-.35-.59l-.32-.5-.44-.12-.44-.1-.86-.18c-.52-.09-1.2-.19-1.88-.25s-1.34-.09-1.84-.08h-.81v-.94-.99c0-.36 0-.76-.09-1.15s-.1-.79-.16-1.16-.14-.72-.2-1c-.13-.61-.24-1-.24-1l-.5-.32c-.16-.11-.36-.22-.59-.35s-.48-.29-.78-.44a23.58 23.58 0 00-4.42-1.81 24.4 24.4 0 00-4.69-.9l-.89-.07H296.32l-.89.07a24.4 24.4 0 00-4.69.9 23.57 23.57 0 00-4.42 1.81c-.29.15-.55.31-.78.44s-.43.24-.59.35l-.5.32-.12.44-.1.44s-.08.35-.18.86-.19 1.2-.25 1.88-.09 1.34-.08 1.84 0 .81 0 .81h-1.93c-.36 0-.76 0-1.15.09l-1.16.16-1 .2c-.61.13-1 .24-1 .24l-.32.5c-.11.16-.22.36-.35.59s-.29.48-.43.78a23.57 23.57 0 00-1.81 4.42 24.38 24.38 0 00-.9 4.69l-.07.89v1.28h.61v-1.25l.07-.86a23.78 23.78 0 01.87-4.57 23 23 0 011.77-4.31c.14-.28.3-.53.42-.76s.24-.42.34-.57z" transform="translate(-262.82 -218.51)"/><path class="cls-2" d="M294.89 252.74l-.08.05-.12.08-.13.1-.13.11-.06.05-.1.11.1.11.06.05.13.11.13.1.12.08.08.05v.39a2.76 2.76 0 00.22.51 2.85 2.85 0 00.31.46l.07.08.06.06v.05h.05l.06.06.08.07a2.85 2.85 0 00.46.31 2.72 2.72 0 00.51.22h.2l.05.08.08.12.1.13.11.13.05.06.11.1.11-.1h.05l.05-.06.11-.13.1-.13.08-.12.05-.08h.2a2.72 2.72 0 00.51-.22 2.84 2.84 0 00.46-.31l.08-.07.06-.06h.05v-.05l.06-.06.07-.08a2.85 2.85 0 00.31-.46 2.73 2.73 0 00.21-.51v-.2l.08-.05.12-.08.13-.1.13-.11.06-.05.1-.11-.1-.11-.06-.05-.13-.11-.13-.1-.12-.08-.08-.05v-.2a2.73 2.73 0 00-.21-.51 2.84 2.84 0 00-.31-.46l-.07-.08-.06-.06v-.05h-.05l-.06-.06-.08-.07a2.84 2.84 0 00-.46-.31 2.74 2.74 0 00-.51-.22h-.2l-.05-.08-.08-.12-.1-.13-.11-.13-.05-.06-.11-.1-.11.1-.05.06-.11.13-.1.13-.08.12-.05.08h-.2a2.75 2.75 0 00-.51.22 2.86 2.86 0 00-.46.31l-.08.07-.06.06h-.05l.06.06.06-.05.08-.07a2.76 2.76 0 01.45-.3 2.65 2.65 0 01.5-.21h.25v-.05l.06-.1.07-.1.09-.11.18-.2.09-.09.11.1.05.06.11.13.1.13.08.12.05.08h.25a2.65 2.65 0 01.5.21 2.74 2.74 0 01.45.3l.08.07.06.05.05.06.07.08a2.76 2.76 0 01.3.45 2.62 2.62 0 01.21.5v.25h.05l.1.06.1.07.49-.07.2.18.09.09-.1.1-.06.05-.13.11-.13.1-.12.08-.08.05v.25a2.66 2.66 0 01-.21.5 2.76 2.76 0 01-.3.45l-.07.08-.05.06-.06.05-.08.07a2.73 2.73 0 01-.45.3 2.63 2.63 0 01-.5.21h-.25v.05l-.06.1-.07.1-.09.11-.18.2-.09.09-.11-.1-.05-.06-.11-.13-.1-.13-.08-.12-.36.16h-.28a2.65 2.65 0 01-.5-.21 2.75 2.75 0 01-.45-.3l-.08-.07-.06-.05-.05-.06-.07-.08a2.76 2.76 0 01-.3-.45 2.66 2.66 0 01-.21-.5V253.85h-.05l-.1-.06-.1-.07-.11-.09-.2-.18-.09-.09.1-.11.06-.05.13-.11.13-.1.12-.08.08-.05v-.25a2.64 2.64 0 01.21-.5 2.76 2.76 0 01.3-.45l.07-.08.05-.06-.06-.06v.05l-.06.06-.07.08a2.84 2.84 0 00-.31.46 2.76 2.76 0 00-.22.51v.2z" transform="translate(-262.82 -218.51)"/><path d="M271.37 267.5l.06.11.18.32.3.53.19.34.24.38c.17.27.36.57.57.89l.74 1c.28.37.59.75.91 1.16s.7.83 1.1 1.26.83.89 1.31 1.33c.24.22.47.46.73.68l.79.69a31.9 31.9 0 003.75 2.67 29.76 29.76 0 0010.3 3.82 30.23 30.23 0 006.29.41h.82l.83-.06c.55-.05 1.11-.14 1.67-.2s1.12-.19 1.67-.31l.84-.19.42-.1.42-.12a29.91 29.91 0 0020.71-20.2l.27-1c.09-.32.15-.65.23-1 .17-.65.26-1.31.39-2a30.51 30.51 0 00-.54-12c-.08-.33-.18-.65-.27-1s-.18-.65-.3-1l-.32-1-.37-.94-.19-.47-.21-.46c-.14-.31-.27-.62-.42-.92-.31-.6-.6-1.21-.95-1.78a29.82 29.82 0 00-32.68-14.28 29.21 29.21 0 00-6.35 2.25 30.07 30.07 0 00-12.58 11.62 28.6 28.6 0 00-2 4.13 29.86 29.86 0 00-1.22 3.94l-.19.84c-.06.27-.13.54-.17.8l-.13.75c0 .24-.09.48-.11.7l-.16 1.26-.08 1.06V253.36h-2.3V251.7v-.48l.09-1.14c0-.42.11-.87.17-1.36 0-.25.07-.5.12-.76l.14-.81c0-.28.11-.56.18-.86l.21-.9a32.26 32.26 0 011.31-4 30.88 30.88 0 012.19-4.45 32.36 32.36 0 0113.54-12.51 31.5 31.5 0 016.85-2.43 32.13 32.13 0 0135.19 15.37c.37.62.69 1.28 1 1.92.16.33.3.66.45 1l.22.5.2.51.4 1 .35 1c.12.34.22.69.32 1s.21.7.29 1.05a32.79 32.79 0 01.58 12.94c-.13.71-.24 1.42-.41 2.12-.08.35-.15.7-.25 1l-.29 1a32.15 32.15 0 01-22.3 21.75l-.45.13-.45.11-.9.21c-.6.13-1.21.22-1.8.33s-1.2.16-1.79.22l-.89.07h-.88a32.57 32.57 0 01-6.77-.44 32.07 32.07 0 01-11.09-4.12 34.19 34.19 0 01-4-2.88l-.85-.74c-.28-.24-.53-.5-.79-.74-.52-.48-1-1-1.41-1.43s-.82-.93-1.19-1.36-.68-.86-1-1.25l-.85-.92c-.23-.35-.43-.67-.62-1l-.26-.41-.21-.36-.33-.57-.2-.35-.07-.12z" transform="translate(-262.82 -218.51)" fill="#065977"/><path class="cls-2" d="M264 253.31V255.5l.09 1.19c0 .44.11.91.18 1.42 0 .26.08.52.13.8l.15.85c0 .29.12.59.19.9l.26.94a33.78 33.78 0 001.37 4.19 32.4 32.4 0 002.29 4.66 33.89 33.89 0 0014.19 13.11 33 33 0 007.17 2.55A33.66 33.66 0 00326.88 270c.39-.65.72-1.34 1.07-2 .16-.34.32-.69.47-1l.23-.52.21-.53.42-1.06.37-1.08c.13-.36.23-.73.33-1.09s.21-.73.3-1.1a34.32 34.32 0 00.61-13.55c-.14-.74-.25-1.49-.43-2.22-.09-.37-.16-.74-.26-1.1l-.31-1.08a33.68 33.68 0 00-23.37-22.79l-.52-.18-.48-.11-.95-.22c-.63-.13-1.26-.23-1.89-.35s-1.26-.17-1.88-.23l-.93-.07c-.31 0-.62 0-.92-.05a34.09 34.09 0 00-7.09.46 33.6 33.6 0 00-11.62 4.32 35.68 35.68 0 00-4.23 3l-.89.77c-.29.25-.56.52-.82.77-.54.5-1 1-1.47 1.5s-.86 1-1.24 1.42-.71.9-1 1.31l-.83 1.17c-.24.36-.45.7-.65 1l-.27.42-.22.38-.34.59-.21.36-.07.12-1-.54.07-.13.21-.37.35-.61.23-.39.28-.44c.2-.31.42-.66.67-1l.86-1.21c.32-.43.68-.87 1.06-1.36s.82-1 1.28-1.47 1-1 1.52-1.55c.28-.26.55-.54.85-.8l.92-.8a36.8 36.8 0 014.37-3.12 34.73 34.73 0 0112-4.46 35.19 35.19 0 017.33-.48c.32 0 .64 0 1 .05l1 .07c.64.06 1.29.16 1.94.24s1.3.22 2 .36l1 .23.49.11.49.14A34.88 34.88 0 01331 243.29l.32 1.12c.11.37.18.76.27 1.13.19.76.31 1.53.45 2.29a35.46 35.46 0 01-.63 14c-.09.38-.21.76-.31 1.14s-.21.76-.35 1.13l-.38 1.12-.43 1.1-.22.55-.24.54c-.16.36-.32.72-.49 1.07-.36.7-.7 1.41-1.11 2.08a34.79 34.79 0 01-38.11 16.65 34.17 34.17 0 01-7.42-2.63A35 35 0 01267.67 271a33.57 33.57 0 01-2.37-4.82 34.87 34.87 0 01-1.42-4.34l-.23-1c-.07-.32-.15-.63-.2-.93l-.16-.88c-.05-.28-.1-.56-.13-.82-.07-.53-.13-1-.18-1.47l-.09-1.23v-2.2H264z" transform="translate(-262.82 -218.51)"/><path class="cls-4" d="M295.65 226.55h-.29c-.19 0-.47 0-.82.08a25.61 25.61 0 00-2.9.5 26.67 26.67 0 00-8.22 3.4 27.25 27.25 0 00-3.81 2.88 28.5 28.5 0 00-2.86 3l-.54.69c-.17.22-.32.44-.46.64s-.28.39-.4.57l-.32.5c-.19.3-.35.53-.44.7l-.15.25-1.79-1 .16-.27c.1-.18.27-.43.47-.75l.34-.53c.13-.19.28-.39.43-.61s.31-.45.5-.69l.58-.74a30.55 30.55 0 013.08-3.27 29.3 29.3 0 014.1-3.1 28.75 28.75 0 018.86-3.66 27.71 27.71 0 013.13-.54c.38-.06.68-.07.89-.09h.31zM319.57 237.85l-.17-.24a9.71 9.71 0 00-.49-.66l-.36-.46-.21-.26-.24-.23-.52-.6c-.18-.21-.39-.41-.6-.64a26 26 0 00-3.11-2.78 27 27 0 00-8.46-4.32 26.15 26.15 0 00-4.07-.89l-.87-.11-.79-.06-.69-.05h-1.71v-2.07h1.85l.75.06.85.07.94.12a28.26 28.26 0 014.38 1 29.06 29.06 0 019.12 4.66 28.12 28.12 0 013.35 3c.22.24.45.46.65.69l.56.64.25.29.22.28.39.5c.24.3.41.55.53.71l.18.26zM322.18 264.17s.18-.37.43-1l.22-.55c.07-.2.14-.42.22-.66s.17-.48.25-.75l.24-.84a26.74 26.74 0 00.77-4.09 28.14 28.14 0 00.09-4.78 26.09 26.09 0 00-.74-4.71 29 29 0 00-1.32-3.94 28.21 28.21 0 00-1.31-2.64l-.41-.72-.16-.25 1.76-1.09.17.27.44.77a30.28 30.28 0 011.41 2.84 31.06 31.06 0 011.43 4.25 28.18 28.18 0 01.8 5.08 30.22 30.22 0 01-.1 5.14 28.81 28.81 0 01-.83 4.41l-.26.91c-.08.29-.18.55-.27.81s-.16.49-.24.71l-.23.59c-.14.35-.24.64-.33.82l-.13.29zM301 279.94h.29c.19 0 .47-.05.82-.12a25.59 25.59 0 002.87-.64 26.68 26.68 0 008-3.81 27.41 27.41 0 003.66-3.07 27.93 27.93 0 002.7-3.17l.51-.71c.16-.23.29-.46.43-.66s.27-.4.37-.59l.29-.51c.18-.31.32-.55.4-.72l.13-.26 1.84 1-.14.28c-.09.19-.24.44-.43.78l-.32.55c-.11.2-.26.41-.4.63s-.29.47-.46.71l-.55.77a30 30 0 01-2.91 3.42 29.47 29.47 0 01-3.94 3.3 28.75 28.75 0 01-8.67 4.11 27.6 27.6 0 01-3.1.69c-.38.08-.68.1-.88.13h-.31zM276.51 269.85l.18.23.22.28.31.36c.24.27.51.61.86 1l.55.57.63.61a26.3 26.3 0 003.24 2.62 26.94 26.94 0 008.67 3.89 26.26 26.26 0 004.11.68l.87.07h3.2l.13 2.07h-3.44l-.94-.07a28.3 28.3 0 01-4.42-.73 29 29 0 01-9.34-4.19 28.4 28.4 0 01-3.49-2.82l-.68-.65-.59-.62c-.38-.38-.67-.74-.92-1l-.33-.39-.23-.3-.19-.25z" transform="translate(-262.82 -218.51)"/></svg>