<svg preserveAspectRatio="none" id="Layer_1" data-name="Layer 1" xmlns="http://www.w3.org/2000/svg" viewBox="0 0 1200.04 1200.04"><defs><style>.cls-1{fill:#20ffff;}.cls-2{opacity:0.6;}.cls-3{fill:none;}</style></defs><title>circle89</title><rect class="cls-1" x="2050.67" y="3930.84" width="11.84" height="45.77" transform="translate(-3883.42 2471.46) rotate(-87.62)"/><rect class="cls-1" x="2052.72" y="3902.74" width="11.84" height="45.77" transform="translate(-3963.65 2193.01) rotate(-84.04)"/><rect class="cls-1" x="2056.46" y="3874.82" width="11.84" height="45.77" transform="translate(-4027.9 1911.46) rotate(-80.44)"/><rect class="cls-1" x="2062" y="3847.21" width="11.84" height="45.77" transform="translate(-4075.93 1628.44) rotate(-76.82)"/><rect class="cls-1" x="2055.27" y="3801.06" width="11.84" height="75.2" transform="translate(-4113.72 1328.96) rotate(-73.19)"/><rect class="cls-1" x="2078.32" y="3793.33" width="11.84" height="45.77" transform="translate(-4123.76 1063.84) rotate(-69.56)"/><rect class="cls-1" x="2088.91" y="3767.24" width="11.84" height="45.77" transform="translate(-4124.29 784.44) rotate(-65.93)"/><rect class="cls-1" x="2101.29" y="3741.94" width="11.84" height="45.77" transform="translate(-4109.81 508.96) rotate(-62.31)"/><rect class="cls-1" x="2115.15" y="3717.42" width="11.84" height="45.77" transform="translate(-4081 237.36) rotate(-58.71)"/><rect class="cls-1" x="2118.37" y="3670.63" width="11.84" height="75.2" transform="translate(-4036.66 -43.23) rotate(-55.11)"/><rect class="cls-1" x="2147.36" y="3671.23" width="11.84" height="45.77" transform="translate(-3982.61 -291.51) rotate(-51.52)"/><rect class="cls-1" x="2165.57" y="3649.74" width="11.84" height="45.77" transform="translate(-3914.05 -548.44) rotate(-47.94)"/><rect class="cls-1" x="2185.01" y="3629.34" width="11.84" height="45.77" transform="translate(-3833.08 -800.22) rotate(-44.35)"/><rect class="cls-1" x="2205.84" y="3610.37" width="11.84" height="45.77" transform="translate(-3740.17 -1046.36) rotate(-40.77)"/><rect class="cls-1" x="2218.85" y="3566.21" width="11.84" height="75.2" transform="translate(-3630.07 -1295.08) rotate(-37.19)"/><rect class="cls-1" x="2250.64" y="3576.24" width="11.84" height="45.77" transform="translate(-3518.8 -1522.75) rotate(-33.6)"/><rect class="cls-1" x="2274.64" y="3561.49" width="11.84" height="45.77" transform="translate(-3390.64 -1752.53) rotate(-29.99)"/><rect class="cls-1" x="2299.47" y="3548.19" width="11.84" height="45.77" transform="translate(-3250.9 -1976.33) rotate(-26.38)"/><rect class="cls-1" x="2325.04" y="3536.4" width="11.84" height="45.77" transform="translate(-3099.75 -2193.59) rotate(-22.76)"/><rect class="cls-1" x="2346.55" y="3497.78" width="11.84" height="75.2" transform="translate(-2933 -2406.31) rotate(-19.13)"/><rect class="cls-1" x="2378.26" y="3518.05" width="11.84" height="45.77" transform="translate(-2763.85 -2606.6) rotate(-15.5)"/><rect class="cls-1" x="2405.61" y="3511.33" width="11.84" height="45.77" transform="matrix(0.98, -0.21, 0.21, 0.98, -2579.8, -2800.82)"/><rect class="cls-1" x="2433.34" y="3506.38" width="11.84" height="45.77" transform="translate(-2385.86 -2985.66) rotate(-8.26)"/><rect class="cls-1" x="2461.34" y="3503.29" width="11.84" height="45.77" transform="translate(-2182.88 -3160.24) rotate(-4.67)"/><rect class="cls-1" x="2489.2" y="3472.46" width="11.84" height="75.2" transform="matrix(1, -0.02, 0.02, 1, -1971.5, -3323.82)"/><rect class="cls-1" x="2500.7" y="3519.06" width="45.77" height="11.84" transform="translate(-3009.57 2523.94) rotate(-87.57)"/><rect class="cls-1" x="2528.8" y="3521.12" width="45.77" height="11.84" transform="translate(-3127.39 2322.64) rotate(-83.99)"/><rect class="cls-1" x="2556.7" y="3524.97" width="45.77" height="11.84" transform="translate(-3236.68 2111.94) rotate(-80.39)"/><rect class="cls-1" x="2584.31" y="3530.53" width="45.77" height="11.84" transform="translate(-3336.36 1892.21) rotate(-76.77)"/><rect class="cls-1" x="2601.06" y="3523.77" width="75.2" height="11.84" transform="translate(-3408.78 1658.58) rotate(-73.14)"/><rect class="cls-1" x="2638.19" y="3546.87" width="45.77" height="11.84" transform="translate(-3502.64 1429.12) rotate(-69.51)"/><rect class="cls-1" x="2664.25" y="3557.55" width="45.77" height="11.84" transform="translate(-3567.54 1186.94) rotate(-65.88)"/><rect class="cls-1" x="2689.57" y="3569.88" width="45.77" height="11.84" transform="translate(-3619.12 939.32) rotate(-62.26)"/><rect class="cls-1" x="2714.09" y="3583.75" width="45.77" height="11.84" transform="translate(-3656.71 687.21) rotate(-58.65)"/><rect class="cls-1" x="2731.38" y="3587.11" width="75.2" height="11.84" transform="translate(-3666.46 432.12) rotate(-55.06)"/><rect class="cls-1" x="2760.25" y="3616.02" width="45.77" height="11.84" transform="translate(-3688.11 170.14) rotate(-51.47)"/><rect class="cls-1" x="2781.74" y="3634.24" width="45.77" height="11.84" transform="translate(-3680.66 -93.4) rotate(-47.88)"/><rect class="cls-1" x="2802.02" y="3653.8" width="45.77" height="11.84" transform="translate(-3657.09 -358.86) rotate(-44.3)"/><rect class="cls-1" x="2821.08" y="3674.55" width="45.77" height="11.84" transform="translate(-3616.71 -626.22) rotate(-40.72)"/><rect class="cls-1" x="2835.79" y="3687.59" width="75.2" height="11.84" transform="translate(-3551.31 -888.83) rotate(-37.14)"/><rect class="cls-1" x="2855.06" y="3719.46" width="45.77" height="11.84" transform="matrix(0.83, -0.55, 0.55, 0.83, -3483.48, -1161.88)"/><rect class="cls-1" x="2869.91" y="3743.4" width="45.77" height="11.84" transform="translate(-3389.57 -1428.1) rotate(-29.95)"/><rect class="cls-1" x="2883.17" y="3768.25" width="45.77" height="11.84" transform="translate(-3276.72 -1692.1) rotate(-26.33)"/><rect class="cls-1" x="2894.87" y="3793.87" width="45.77" height="11.84" transform="translate(-3145.03 -1951.47) rotate(-22.71)"/><rect class="cls-1" x="2904.1" y="3815.38" width="75.2" height="11.84" transform="translate(-2991.94 -2200.77) rotate(-19.09)"/><rect class="cls-1" x="2913.27" y="3847.08" width="45.77" height="11.84" transform="translate(-2824.59 -2451.13) rotate(-15.45)"/><rect class="cls-1" x="2919.91" y="3874.45" width="45.77" height="11.84" transform="translate(-2636.93 -2687.24) rotate(-11.83)"/><rect class="cls-1" x="2924.8" y="3902.19" width="45.77" height="11.84" transform="translate(-2432.15 -2911.57) rotate(-8.21)"/><rect class="cls-1" x="2927.96" y="3930.18" width="45.77" height="11.84" transform="translate(-2211.71 -3122.12) rotate(-4.62)"/><rect class="cls-1" x="2929.34" y="3958.06" width="75.2" height="11.84" transform="translate(-1976.92 -3317.16) rotate(-1.06)"/><rect class="cls-1" x="2945.96" y="3969.55" width="11.84" height="45.77" transform="translate(-3068.9 3395.88) rotate(-87.52)"/><rect class="cls-1" x="2943.87" y="3997.65" width="11.84" height="45.77" transform="translate(-3263.81 3156.83) rotate(-83.94)"/><rect class="cls-1" x="2940.01" y="4025.55" width="11.84" height="45.77" transform="translate(-3443.68 2900.48) rotate(-80.34)"/><rect class="cls-1" x="2934.41" y="4053.16" width="11.84" height="45.77" transform="translate(-3606.39 2628.61) rotate(-76.72)"/><rect class="cls-1" x="2941.15" y="4069.91" width="11.84" height="75.2" transform="translate(-3744.32 2359.52) rotate(-73.09)"/><rect class="cls-1" x="2918.03" y="4107.02" width="11.84" height="45.77" transform="translate(-3873.56 2046.02) rotate(-69.46)"/><rect class="cls-1" x="2907.33" y="4133.07" width="11.84" height="45.77" transform="translate(-3975.36 1739.56) rotate(-65.83)"/><rect class="cls-1" x="2894.98" y="4158.38" width="11.84" height="45.77" transform="translate(-4054.75 1425.81) rotate(-62.21)"/><rect class="cls-1" x="2881.09" y="4182.89" width="11.84" height="45.77" transform="translate(-4111.14 1106.61) rotate(-58.61)"/><rect class="cls-1" x="2877.7" y="4200.18" width="11.84" height="75.2" transform="translate(-4145.93 797.27) rotate(-55.01)"/><rect class="cls-1" x="2848.78" y="4229.02" width="11.84" height="45.77" transform="translate(-4153.56 459.32) rotate(-51.42)"/><rect class="cls-1" x="2830.54" y="4250.49" width="11.84" height="45.77" transform="matrix(0.67, -0.74, 0.74, 0.67, -4139.25, 134.66)"/><rect class="cls-1" x="2810.97" y="4270.76" width="11.84" height="45.77" transform="translate(-4101.24 -188.32) rotate(-44.26)"/><rect class="cls-1" x="2790.19" y="4289.79" width="11.84" height="45.77" transform="translate(-4039.54 -508.43) rotate(-40.67)"/><rect class="cls-1" x="2777.13" y="4304.5" width="11.84" height="75.2" transform="translate(-3959.71 -815.86) rotate(-37.09)"/><rect class="cls-1" x="2745.26" y="4323.75" width="11.84" height="45.77" transform="translate(-3846.14 -1132.35) rotate(-33.5)"/><rect class="cls-1" x="2721.31" y="4338.57" width="11.84" height="45.77" transform="translate(-3715.14 -1432.97) rotate(-29.9)"/><rect class="cls-1" x="2696.44" y="4351.81" width="11.84" height="45.77" transform="translate(-3561.97 -1723.73) rotate(-26.28)"/><rect class="cls-1" x="2670.81" y="4363.49" width="11.84" height="45.77" transform="translate(-3387.61 -2002.61) rotate(-22.66)"/><rect class="cls-1" x="2649.29" y="4372.7" width="11.84" height="75.2" transform="translate(-3197.34 -2265.57) rotate(-19.03)"/><rect class="cls-1" x="2617.59" y="4381.84" width="11.84" height="45.77" transform="translate(-2979.89 -2517.6) rotate(-15.4)"/><rect class="cls-1" x="2590.22" y="4388.47" width="11.84" height="45.77" transform="translate(-2749.86 -2749.95) rotate(-11.78)"/><rect class="cls-1" x="2562.47" y="4393.33" width="11.84" height="45.77" transform="translate(-2505.08 -2963.33) rotate(-8.16)"/><rect class="cls-1" x="2534.48" y="4396.47" width="11.84" height="45.77" transform="translate(-2248.1 -3156.28) rotate(-4.57)"/><rect class="cls-1" x="2506.59" y="4397.82" width="11.84" height="75.2" transform="translate(-1981.9 -3327.72) rotate(-1.01)"/><rect class="cls-1" x="2461.18" y="4414.42" width="45.77" height="11.84" transform="translate(-3945.73 3334.33) rotate(-87.47)"/><rect class="cls-1" x="2433.08" y="4412.3" width="45.77" height="11.84" transform="translate(-4102.61 3017.63) rotate(-83.89)"/><rect class="cls-1" x="2405.18" y="4408.42" width="45.77" height="11.84" transform="translate(-4236.71 2690.52) rotate(-80.29)"/><rect class="cls-1" x="2377.58" y="4402.8" width="45.77" height="11.84" transform="translate(-4347.12 2355.34) rotate(-76.67)"/><rect class="cls-1" x="2331.39" y="4409.52" width="75.2" height="11.84" transform="translate(-4449.61 2020.86) rotate(-73.04)"/><rect class="cls-1" x="2323.74" y="4386.37" width="45.77" height="11.84" transform="translate(-4494.55 1671.53) rotate(-69.41)"/><rect class="cls-1" x="2297.69" y="4375.66" width="45.77" height="11.84" transform="translate(-4531.5 1327.72) rotate(-65.78)"/><rect class="cls-1" x="2272.39" y="4363.27" width="45.77" height="11.84" transform="translate(-4544.29 986.24) rotate(-62.17)"/><rect class="cls-1" x="2247.9" y="4349.36" width="45.77" height="11.84" transform="translate(-4533.7 648) rotate(-58.56)"/><rect class="cls-1" x="2201.18" y="4345.95" width="75.2" height="11.84" transform="translate(-4513.91 313.73) rotate(-54.96)"/><rect class="cls-1" x="2201.8" y="4317.01" width="45.77" height="11.84" transform="translate(-4445.38 -10.63) rotate(-51.37)"/><rect class="cls-1" x="2180.33" y="4298.76" width="45.77" height="11.84" transform="translate(-4369.53 -328.52) rotate(-47.79)"/><rect class="cls-1" x="2160.08" y="4279.17" width="45.77" height="11.84" transform="translate(-4273.8 -637.18) rotate(-44.21)"/><rect class="cls-1" x="2141.07" y="4258.38" width="45.77" height="11.84" transform="translate(-4159.13 -936) rotate(-40.62)"/><rect class="cls-1" x="2096.94" y="4245.3" width="75.2" height="11.84" transform="matrix(0.8, -0.6, 0.6, 0.8, -4034.38, -1228.83)"/><rect class="cls-1" x="2107.15" y="4213.42" width="45.77" height="11.84" transform="translate(-3877.08 -1499.77) rotate(-33.45)"/><rect class="cls-1" x="2092.35" y="4189.45" width="45.77" height="11.84" transform="translate(-3711.57 -1763.47) rotate(-29.85)"/><rect class="cls-1" x="2079.13" y="4164.58" width="45.77" height="11.84" transform="translate(-3531.24 -2013.84) rotate(-26.24)"/><rect class="cls-1" x="2067.47" y="4138.94" width="45.77" height="11.84" transform="translate(-3337.29 -2250.15) rotate(-22.61)"/><rect class="cls-1" x="2028.85" y="4117.4" width="75.2" height="11.84" transform="translate(-3133.18 -2476.1) rotate(-18.99)"/><rect class="cls-1" x="2049.17" y="4085.7" width="45.77" height="11.84" transform="matrix(0.96, -0.26, 0.26, 0.96, -2913.83, -2677.78)"/><rect class="cls-1" x="2042.56" y="4058.32" width="45.77" height="11.84" transform="translate(-2687.22 -2867.95) rotate(-11.73)"/><rect class="cls-1" x="2037.72" y="4030.57" width="45.77" height="11.84" transform="translate(-2453.11 -3041.52) rotate(-8.11)"/><rect class="cls-1" x="2034.61" y="4002.57" width="45.77" height="11.84" transform="translate(-2213.62 -3198.08) rotate(-4.52)"/><rect class="cls-1" x="2003.86" y="3974.67" width="75.2" height="11.84" transform="translate(-1970.72 -3337.83) rotate(-0.96)"/><g class="cls-2"><path class="cls-1" d="M2504.32,4572.69h-0.25a604.86,604.86,0,0,1-229.53-45.57,596.89,596.89,0,0,1-103.77-55.51,603.85,603.85,0,0,1-165.52-165.52,597,597,0,0,1-55.51-103.77,601.5,601.5,0,0,1,0-459.3,596.93,596.93,0,0,1,55.51-103.77,605.34,605.34,0,0,1,74.66-90.85h0a605.35,605.35,0,0,1,90.86-74.66,596.87,596.87,0,0,1,103.77-55.51,605,605,0,0,1,229.54-45.57h0.23a604.91,604.91,0,0,1,229.54,45.57,596.85,596.85,0,0,1,103.77,55.51,603.84,603.84,0,0,1,165.52,165.52A597,597,0,0,1,3058.65,3743a601.5,601.5,0,0,1,0,459.3,597,597,0,0,1-55.51,103.77,603.84,603.84,0,0,1-165.52,165.52,596.92,596.92,0,0,1-103.77,55.51A604.92,604.92,0,0,1,2504.32,4572.69Zm-0.12-7.5h0.12a597.32,597.32,0,0,0,226.66-45,589.49,589.49,0,0,0,102.47-54.81,596.39,596.39,0,0,0,163.46-163.46,589.59,589.59,0,0,0,54.82-102.46,594,594,0,0,0,0-453.57,589.43,589.43,0,0,0-54.82-102.46A596.37,596.37,0,0,0,2833.45,3480,589.38,589.38,0,0,0,2731,3425.15a597.39,597.39,0,0,0-226.67-45h-0.23a597.35,597.35,0,0,0-226.67,45A589.41,589.41,0,0,0,2175,3480a596.4,596.4,0,0,0-163.46,163.46,589.46,589.46,0,0,0-54.81,102.46,594,594,0,0,0,0,453.57,589.44,589.44,0,0,0,54.81,102.47A596.38,596.38,0,0,0,2175,4465.38a589.47,589.47,0,0,0,102.46,54.81,597.35,597.35,0,0,0,226.66,45h0.12Z" transform="translate(-1904.18 -3372.66)"/><path class="cls-1" d="M2504.12,4548.31a574.45,574.45,0,0,1-216.24-41.95,571.76,571.76,0,0,1-98.78-51.74l-1.89-1.24,0.22-2.25c0.72-7.43,1.65-15.34,2.92-24.91,0.94-7.06,2.05-14.36,3.4-22.27a534.6,534.6,0,0,1-107.91-103.66,529,529,0,0,1-110.78-279.39,533.4,533.4,0,0,1,7.48-149.42c-5.94-4.51-11.9-9.17-17.74-13.88-6.42-5.23-12.86-10.65-19.16-16.13l-1.72-1.49,0.53-2.21a573.28,573.28,0,0,1,152.65-272.18h0a602,602,0,0,1,53.66-47.41,572,572,0,0,1,190.2-97.68l2.19-.65,1.58,1.64c5.8,6,11.55,12.2,17.08,18.33,4.65,5.17,9.49,10.75,14.77,17a533.83,533.83,0,0,1,298.21,12.54,526.86,526.86,0,0,1,135.33,68.79,534.25,534.25,0,0,1,109,102.55c8-1.78,15.22-3.27,22.07-4.53,9.09-1.69,17.18-3.06,24.72-4.19l2.24-.33,1.34,1.83a575.39,575.39,0,0,1,93.74,201.19,582,582,0,0,1,10.63,221.67l-0.33,2.25-2.15.75c-7.91,2.75-15.92,5.39-23.79,7.85-6.79,2.1-13.89,4.17-21.63,6.3a529.1,529.1,0,0,1-136.55,265.23,534.4,534.4,0,0,1-119.26,94.12,527,527,0,0,1-138.69,55.82c-1.61,7.28-3.36,14.63-5.19,21.91-2,7.78-4.23,15.9-6.64,24.15l-0.64,2.18-2.23.44A578.93,578.93,0,0,1,2504.12,4548.31Zm-309-98.72a564.61,564.61,0,0,0,201.11,81,575.14,575.14,0,0,0,216.81-.18c2.14-7.42,4.14-14.72,5.93-21.71,2-7.95,3.9-16,5.64-23.95l0.5-2.3,2.29-.55a519.54,519.54,0,0,0,139-55.58,526.41,526.41,0,0,0,204.24-214.89,520.54,520.54,0,0,0,48.4-141.65l0.43-2.31,2.27-.62c8.55-2.33,16.28-4.57,23.64-6.85,7.07-2.21,14.26-4.57,21.4-7a574.52,574.52,0,0,0-10.82-216.54,568,568,0,0,0-91.17-196.71c-6.81,1-14.11,2.3-22.22,3.81-7.41,1.37-15.28,3-24.08,5l-2.3.52-1.47-1.84a527,527,0,0,0-108.89-102.93,522.19,522.19,0,0,0-280.68-95,525.18,525.18,0,0,0-149,15.39l-2.28.57-1.51-1.8c-5.81-6.94-11.08-13-16.1-18.61s-10.12-11.06-15.33-16.5a564.78,564.78,0,0,0-185.52,95.75,594.66,594.66,0,0,0-53,46.82,565.76,565.76,0,0,0-150.13,266.42c5.69,4.92,11.48,9.78,17.24,14.47,6.37,5.14,12.91,10.23,19.4,15.13l1.88,1.41-0.46,2.31a525.93,525.93,0,0,0,26.82,295.26,519.84,519.84,0,0,0,74.57,129.77A527.15,527.15,0,0,0,2200,4399.22l1.92,1.37-0.4,2.32c-1.51,8.7-2.74,16.65-3.75,24.29C2196.64,4435.72,2195.79,4442.9,2195.11,4449.59Z" transform="translate(-1904.18 -3372.66)"/></g><g class="cls-2"><path class="cls-3" d="M2579.44,4326.89q3.39-8.49,6.36-16.89c4-1,8-2.14,12-3.19,2-.56,4-1,6-1.66l5.92-1.91,5.92-1.91,3-1c1-.33,1.94-0.72,2.92-1.08l11.64-4.39c2-.68,3.82-1.6,5.73-2.4l5.7-2.48,5.71-2.47,5.57-2.76,5.57-2.76,2.79-1.38,1.39-.69,1.36-.76,10.86-6.06,2.72-1.51,2.64-1.65,5.27-3.3,5.28-3.29,1.32-.82,1.28-.89,2.55-1.78,10.21-7.11,9.84-7.61c1.63-1.28,3.31-2.5,4.89-3.84l4.72-4.06,4.72-4.05c1.56-1.37,3.19-2.65,4.66-4.12l9-8.58,2.26-2.14c0.75-.72,1.44-1.5,2.16-2.24l4.29-4.51,4.29-4.51c0.71-.76,1.44-1.49,2.14-2.26l2-2.36,8.11-9.44c1.39-1.54,2.59-3.24,3.88-4.86l3.81-4.92,3.81-4.92c1.24-1.66,2.38-3.39,3.58-5.08,2.36-3.41,4.77-6.78,7.09-10.22l6.59-10.55c2.28-3.47,4.19-7.15,6.23-10.76l3-5.43c0.5-.91,1-1.8,1.49-2.73l1.38-2.79,5.51-11.15c1.74-3.76,3.32-7.6,5-11.39,0.81-1.91,1.69-3.79,2.45-5.72l2.19-5.82,2.2-5.82,1.1-2.91c0.37-1,.65-2,1-3l3.82-11.84c0.69-2,1.14-4,1.7-6l1.62-6,1.62-6,1.32-6.08,1.33-6.08c0.43-2,.94-4,1.24-6.1q8.25-3.4,16.57-7.21c2.48-1.14,5-2.31,7.46-3.5A368.41,368.41,0,0,0,2811,3767.68c-2.8-4.19-5.71-8.3-8.68-12.36-8.84.29-17.69,1-26.24,1.78-2.46-3.34-5.25-6.42-7.94-9.58l-4.05-4.72-2-2.36c-0.7-.77-1.43-1.51-2.14-2.26l-8.58-9c-0.72-.74-1.41-1.53-2.16-2.24l-2.26-2.14-4.51-4.29c-5.88-5.87-12.37-11.06-18.61-16.52-3.23-2.6-6.55-5.09-9.81-7.65-1.64-1.26-3.27-2.56-4.93-3.8L2704,3689a333.16,333.16,0,0,0-42.55-25.68l-11.15-5.51-11.41-5c-3.77-1.74-7.68-3.12-11.56-4.59l-5.82-2.2c-1-.36-1.93-0.76-2.92-1.08l-3-1-11.84-3.82c-4-1.15-8-2.17-12-3.27-2-.52-4-1.14-6-1.57l-6.08-1.33-6.08-1.33-3-.67-3.07-.52-12.27-2.07c-4.1-.61-8.23-1-12.35-1.54-2.06-.23-4.11-0.54-6.18-0.71l-6.21-.44-6.21-.45-3.1-.23c-1-.05-2.07-0.06-3.11-0.09l-12.44-.3c-1,0-2.07,0-3.11,0l-3.11.08-6.22.15c-2.07.06-4.15,0.07-6.22,0.17l-6.21.45-6.21.44-3.1.22c-1,.07-2.06.24-3.09,0.35L2456,3629l-1.54.18-1.53.26-3.07.52-6.13,1c-2,.35-4.09.67-6.13,1l-6.08,1.33-6.08,1.33c-2,.44-4.06.85-6.05,1.43q-6.53-6.07-13.48-12c-2.06-1.77-4.16-3.53-6.27-5.28a365.78,365.78,0,0,0-100.42,47,369.89,369.89,0,0,0-101.8,101.8,366.3,366.3,0,0,0-51.88,118.56c1.86,2,3.73,4,5.6,6q6.3,6.63,12.69,12.84c-0.24,1-.42,2-0.58,3.06l-0.52,3.07-1,6.13c-0.33,2-.72,4.08-1,6.14l-0.74,6.18-0.74,6.18-0.37,3.09c-0.12,1-.16,2.07-0.24,3.1l-0.89,12.41-0.11,1.55,0,1.56-0.07,3.11-0.15,6.22c0,2.07-.12,4.15-0.13,6.22l0.15,6.22,0.15,6.22c0,2.07.07,4.15,0.26,6.22l0.89,12.41c0.1,2.07.43,4.12,0.66,6.19l0.74,6.18,0.75,6.18,1,6.13,1,6.13c0.35,2,.65,4.1,1.14,6.12l2.66,12.15c0.4,2,1,4,1.52,6l1.62,6,1.62,6,1.9,5.92,1.91,5.92,1,3,0.48,1.48,0.55,1.45,4.39,11.64a344.5,344.5,0,0,0,49.44,85.94l3.81,4.92,4,4.73c2.72,3.13,5.37,6.32,8.13,9.42l8.58,9,2.14,2.26,1.07,1.13,1.13,1.07,4.51,4.29,4.51,4.29c1.5,1.43,3,2.89,4.59,4.2L2283,4240c0.79,0.67,1.56,1.36,2.37,2l2.46,1.9,4.92,3.81c3.28,2.53,6.51,5.14,10,7.44-0.39,8.59-.6,17.45-0.43,26.29a368.94,368.94,0,0,0,274,53C2577.38,4332,2578.43,4329.43,2579.44,4326.89Z" transform="translate(-1904.18 -3372.66)"/><path class="cls-1" d="M2856.22,3826.87A379,379,0,0,0,2821,3761a381.9,381.9,0,0,0-105.1-105.1,380.78,380.78,0,0,0-423.36,0,381.9,381.9,0,0,0-105.1,105.1,380.78,380.78,0,0,0,0,423.36,381.9,381.9,0,0,0,105.1,105.1,380.78,380.78,0,0,0,423.36,0,381.9,381.9,0,0,0,105.1-105.1A381.26,381.26,0,0,0,2856.22,3826.87ZM2363,4313.59a367,367,0,0,1-60.7-32.11c-0.16-8.84,0-17.7.43-26.29-3.46-2.29-6.69-4.9-10-7.44l-4.92-3.81-2.46-1.9c-0.8-.66-1.58-1.35-2.37-2l-9.44-8.11c-1.61-1.32-3.09-2.77-4.59-4.2l-4.51-4.29-4.51-4.29-1.13-1.07-1.07-1.13-2.14-2.26-8.58-9c-2.76-3.1-5.42-6.28-8.13-9.42l-4-4.73-3.81-4.92a344.5,344.5,0,0,1-49.44-85.94L2177.2,4089l-0.55-1.45-0.48-1.48-1-3-1.91-5.92-1.9-5.92-1.62-6-1.62-6c-0.53-2-1.13-4-1.52-6l-2.66-12.15c-0.49-2-.79-4.07-1.14-6.12l-1-6.13-1-6.13-0.75-6.18-0.74-6.18c-0.22-2.06-.56-4.11-0.66-6.19l-0.89-12.41c-0.19-2.07-.22-4.14-0.26-6.22l-0.15-6.22-0.15-6.22c0-2.07.09-4.15,0.13-6.22l0.15-6.22,0.07-3.11,0-1.56,0.11-1.55,0.89-12.41c0.08-1,.12-2.07.24-3.1l0.37-3.09,0.74-6.18,0.74-6.18c0.28-2.05.68-4.09,1-6.14l1-6.13,0.52-3.07c0.16-1,.34-2,0.58-3.06q-6.38-6.21-12.69-12.84c-1.87-2-3.74-4-5.6-6a366.3,366.3,0,0,1,51.88-118.56,369.89,369.89,0,0,1,101.8-101.8,365.78,365.78,0,0,1,100.42-47c2.11,1.75,4.21,3.51,6.27,5.28q6.94,6,13.48,12c2-.59,4-1,6.05-1.43l6.08-1.33,6.08-1.33c2-.38,4.09-0.7,6.13-1l6.13-1,3.07-.52,1.53-.26,1.54-.18,12.36-1.48c1-.11,2.06-0.27,3.09-0.35l3.1-.22,6.21-.44,6.21-.45c2.07-.11,4.15-0.11,6.22-0.17l6.22-.15,3.11-.08c1,0,2.07-.05,3.11,0l12.44,0.3c1,0,2.07,0,3.11.09l3.1,0.23,6.21,0.45,6.21,0.44c2.07,0.17,4.12.48,6.18,0.71,4.11,0.52,8.25.93,12.35,1.54l12.27,2.07,3.07,0.52,3,0.67,6.08,1.33,6.08,1.33c2,0.43,4,1.05,6,1.57,4,1.1,8,2.12,12,3.27l11.84,3.82,3,1c1,0.32,1.94.72,2.92,1.08l5.82,2.2c3.87,1.47,7.79,2.85,11.56,4.59l11.41,5,11.15,5.51A333.16,333.16,0,0,1,2704,3689l5.11,3.55c1.66,1.24,3.28,2.53,4.93,3.8,3.27,2.56,6.58,5,9.81,7.65,6.25,5.46,12.73,10.65,18.61,16.52l4.51,4.29,2.26,2.14c0.76,0.71,1.44,1.49,2.16,2.24l8.58,9c0.71,0.76,1.44,1.49,2.14,2.26l2,2.36,4.05,4.72c2.69,3.16,5.47,6.24,7.94,9.58,8.55-.82,17.4-1.48,26.24-1.78,3,4.07,5.88,8.18,8.68,12.36a368.86,368.86,0,0,1,58.24,258.61c-2.49,1.19-5,2.37-7.46,3.5q-8.32,3.81-16.57,7.21c-0.3,2.05-.81,4.07-1.24,6.1l-1.33,6.08-1.32,6.08-1.62,6-1.62,6c-0.56,2-1,4-1.7,6l-3.82,11.84c-0.33,1-.61,2-1,3l-1.1,2.91-2.2,5.82-2.19,5.82c-0.76,1.93-1.64,3.81-2.45,5.72-1.67,3.79-3.26,7.63-5,11.39l-5.51,11.15-1.38,2.79c-0.46.93-1,1.82-1.49,2.73l-3,5.43c-2,3.61-4,7.29-6.23,10.76l-6.59,10.55c-2.32,3.44-4.73,6.81-7.09,10.22-1.2,1.69-2.34,3.42-3.58,5.08l-3.81,4.92-3.81,4.92c-1.29,1.63-2.49,3.32-3.88,4.86l-8.11,9.44-2,2.36c-0.69.77-1.43,1.51-2.14,2.26l-4.29,4.51-4.29,4.51c-0.72.74-1.41,1.52-2.16,2.24l-2.26,2.14-9,8.58c-1.47,1.47-3.1,2.75-4.66,4.12l-4.72,4.05-4.72,4.06c-1.59,1.34-3.27,2.55-4.89,3.84l-9.84,7.61-10.21,7.11-2.55,1.78-1.28.89-1.32.82-5.28,3.29-5.27,3.3-2.64,1.65-2.72,1.51-10.86,6.06-1.36.76-1.39.69-2.79,1.38-5.57,2.76-5.57,2.76-5.71,2.47-5.7,2.48c-1.91.8-3.78,1.72-5.73,2.4l-11.64,4.39c-1,.36-1.93.75-2.92,1.08l-3,1-5.92,1.91-5.92,1.91c-2,.62-4,1.1-6,1.66-4,1.06-8,2.21-12,3.19q-3,8.39-6.36,16.89c-1,2.54-2.06,5.08-3.13,7.63A369.34,369.34,0,0,1,2363,4313.59Z" transform="translate(-1904.18 -3372.66)"/></g></svg>