<svg preserveAspectRatio="none" id="Layer_1" data-name="Layer 1" xmlns="http://www.w3.org/2000/svg" xmlns:xlink="http://www.w3.org/1999/xlink" viewBox="0 0 121.28 123.37"><defs><linearGradient id="linear-gradient" x1="31.54" y1="86.06" x2="132.64" y2="86.06" gradientUnits="userSpaceOnUse"><stop offset="0" stop-color="#154666"/><stop offset=".11" stop-color="#274a71"/><stop offset=".33" stop-color="#55558d"/><stop offset=".64" stop-color="#9f66ba"/><stop offset="1" stop-color="#ff7df5"/></linearGradient><linearGradient id="linear-gradient-2" x1="31.54" y1="85.68" x2="132.64" y2="85.68" xlink:href="#linear-gradient"/><linearGradient id="linear-gradient-3" x1="31.54" y1="88.56" x2="132.64" y2="88.56" xlink:href="#linear-gradient"/><linearGradient id="linear-gradient-4" x1="31.54" y1="83.17" x2="132.64" y2="83.17" xlink:href="#linear-gradient"/><linearGradient id="linear-gradient-5" x1="31.54" y1="91.06" x2="132.64" y2="91.06" xlink:href="#linear-gradient"/><linearGradient id="linear-gradient-6" x1="31.54" y1="80.68" x2="132.64" y2="80.68" xlink:href="#linear-gradient"/><linearGradient id="linear-gradient-7" x1="31.54" y1="93.55" x2="132.64" y2="93.55" xlink:href="#linear-gradient"/><linearGradient id="linear-gradient-8" x1="31.54" y1="78.2" x2="132.64" y2="78.2" xlink:href="#linear-gradient"/><linearGradient id="linear-gradient-9" x1="31.54" y1="96.01" x2="132.64" y2="96.01" xlink:href="#linear-gradient"/><linearGradient id="linear-gradient-10" x1="31.54" y1="75.75" x2="132.64" y2="75.75" xlink:href="#linear-gradient"/><linearGradient id="linear-gradient-11" x1="31.54" y1="98.45" x2="132.64" y2="98.45" xlink:href="#linear-gradient"/><linearGradient id="linear-gradient-12" x1="31.54" y1="73.32" x2="132.64" y2="73.32" xlink:href="#linear-gradient"/><linearGradient id="linear-gradient-13" x1="31.54" y1="100.85" x2="132.64" y2="100.85" xlink:href="#linear-gradient"/><linearGradient id="linear-gradient-14" x1="31.54" y1="70.92" x2="132.64" y2="70.92" xlink:href="#linear-gradient"/><linearGradient id="linear-gradient-15" x1="31.54" y1="103.21" x2="132.64" y2="103.21" xlink:href="#linear-gradient"/><linearGradient id="linear-gradient-16" x1="31.54" y1="68.57" x2="132.64" y2="68.57" xlink:href="#linear-gradient"/><linearGradient id="linear-gradient-17" x1="31.54" y1="105.53" x2="132.64" y2="105.53" xlink:href="#linear-gradient"/><linearGradient id="linear-gradient-18" x1="31.54" y1="66.26" x2="132.64" y2="66.26" xlink:href="#linear-gradient"/><linearGradient id="linear-gradient-19" x1="31.54" y1="107.79" x2="132.64" y2="107.79" xlink:href="#linear-gradient"/><linearGradient id="linear-gradient-20" x1="31.54" y1="64.01" x2="132.64" y2="64.01" xlink:href="#linear-gradient"/><linearGradient id="linear-gradient-21" x1="31.54" y1="109.99" x2="132.64" y2="109.99" xlink:href="#linear-gradient"/><linearGradient id="linear-gradient-22" x1="31.54" y1="61.82" x2="132.64" y2="61.82" xlink:href="#linear-gradient"/><linearGradient id="linear-gradient-23" x1="31.54" y1="112.12" x2="132.64" y2="112.12" xlink:href="#linear-gradient"/><linearGradient id="linear-gradient-24" x1="31.54" y1="59.69" x2="132.64" y2="59.69" xlink:href="#linear-gradient"/><linearGradient id="linear-gradient-25" x1="31.54" y1="114.18" x2="132.64" y2="114.18" xlink:href="#linear-gradient"/><linearGradient id="linear-gradient-26" x1="31.54" y1="57.64" x2="132.64" y2="57.64" xlink:href="#linear-gradient"/><linearGradient id="linear-gradient-27" x1="31.54" y1="116.17" x2="132.64" y2="116.17" xlink:href="#linear-gradient"/><linearGradient id="linear-gradient-28" x1="31.54" y1="55.66" x2="132.64" y2="55.66" xlink:href="#linear-gradient"/><linearGradient id="linear-gradient-29" x1="31.54" y1="118.07" x2="132.64" y2="118.07" xlink:href="#linear-gradient"/><linearGradient id="linear-gradient-30" x1="31.54" y1="53.77" x2="132.64" y2="53.77" xlink:href="#linear-gradient"/><linearGradient id="linear-gradient-31" x1="31.54" y1="119.89" x2="132.64" y2="119.89" xlink:href="#linear-gradient"/><linearGradient id="linear-gradient-32" x1="31.54" y1="51.97" x2="132.64" y2="51.97" xlink:href="#linear-gradient"/><linearGradient id="linear-gradient-33" x1="31.54" y1="121.61" x2="132.64" y2="121.61" xlink:href="#linear-gradient"/><linearGradient id="linear-gradient-34" x1="31.54" y1="50.25" x2="132.64" y2="50.25" xlink:href="#linear-gradient"/><linearGradient id="linear-gradient-35" x1="31.54" y1="123.23" x2="132.64" y2="123.23" xlink:href="#linear-gradient"/><linearGradient id="linear-gradient-36" x1="31.55" y1="48.64" x2="132.64" y2="48.64" xlink:href="#linear-gradient"/><linearGradient id="linear-gradient-37" x1="31.54" y1="124.76" x2="132.64" y2="124.76" xlink:href="#linear-gradient"/><linearGradient id="linear-gradient-38" x1="31.54" y1="47.12" x2="132.64" y2="47.12" xlink:href="#linear-gradient"/><linearGradient id="linear-gradient-39" x1="31.54" y1="126.2" x2="132.65" y2="126.2" xlink:href="#linear-gradient"/><linearGradient id="linear-gradient-40" x1="31.55" y1="45.69" x2="132.64" y2="45.69" xlink:href="#linear-gradient"/><linearGradient id="linear-gradient-41" x1="31.54" y1="127.53" x2="132.64" y2="127.53" xlink:href="#linear-gradient"/><linearGradient id="linear-gradient-42" x1="31.54" y1="44.37" x2="132.64" y2="44.37" xlink:href="#linear-gradient"/><linearGradient id="linear-gradient-43" x1="31.54" y1="128.75" x2="132.65" y2="128.75" xlink:href="#linear-gradient"/><linearGradient id="linear-gradient-44" x1="31.54" y1="43.16" x2="132.64" y2="43.16" xlink:href="#linear-gradient"/><linearGradient id="linear-gradient-45" x1="31.54" y1="129.85" x2="132.64" y2="129.85" xlink:href="#linear-gradient"/><linearGradient id="linear-gradient-46" x1="31.54" y1="42.07" x2="132.64" y2="42.07" xlink:href="#linear-gradient"/><linearGradient id="linear-gradient-47" x1="31.54" y1="130.83" x2="132.64" y2="130.83" xlink:href="#linear-gradient"/><linearGradient id="linear-gradient-48" x1="31.55" y1="41.1" x2="132.64" y2="41.1" xlink:href="#linear-gradient"/><linearGradient id="linear-gradient-49" x1="31.54" y1="131.68" x2="132.64" y2="131.68" xlink:href="#linear-gradient"/><linearGradient id="linear-gradient-50" x1="31.54" y1="40.26" x2="132.64" y2="40.26" xlink:href="#linear-gradient"/><linearGradient id="linear-gradient-51" x1="31.54" y1="132.41" x2="132.64" y2="132.41" xlink:href="#linear-gradient"/><linearGradient id="linear-gradient-52" x1="31.54" y1="39.54" x2="132.64" y2="39.54" xlink:href="#linear-gradient"/><linearGradient id="linear-gradient-53" x1="31.54" y1="133.01" x2="132.64" y2="133.01" xlink:href="#linear-gradient"/><linearGradient id="linear-gradient-54" x1="31.54" y1="38.94" x2="132.64" y2="38.94" xlink:href="#linear-gradient"/><linearGradient id="linear-gradient-55" x1="31.54" y1="133.49" x2="132.64" y2="133.49" xlink:href="#linear-gradient"/><linearGradient id="linear-gradient-56" x1="31.54" y1="38.48" x2="132.64" y2="38.48" xlink:href="#linear-gradient"/><linearGradient id="linear-gradient-57" x1="31.54" y1="133.83" x2="132.64" y2="133.83" xlink:href="#linear-gradient"/><linearGradient id="linear-gradient-58" x1="31.54" y1="38.14" x2="132.64" y2="38.14" xlink:href="#linear-gradient"/><linearGradient id="linear-gradient-59" x1="31.54" y1="134.04" x2="132.64" y2="134.04" xlink:href="#linear-gradient"/><linearGradient id="linear-gradient-60" x1="31.54" y1="37.94" x2="132.64" y2="37.94" xlink:href="#linear-gradient"/><linearGradient id="linear-gradient-61" x1="31.54" y1="134.12" x2="132.64" y2="134.12" xlink:href="#linear-gradient"/><linearGradient id="linear-gradient-62" x1="31.54" y1="37.87" x2="132.64" y2="37.87" xlink:href="#linear-gradient"/><linearGradient id="linear-gradient-63" x1="31.54" y1="134.07" x2="132.64" y2="134.07" xlink:href="#linear-gradient"/><linearGradient id="linear-gradient-64" x1="31.54" y1="37.93" x2="132.64" y2="37.93" xlink:href="#linear-gradient"/><linearGradient id="linear-gradient-65" x1="31.54" y1="133.89" x2="132.64" y2="133.89" xlink:href="#linear-gradient"/><linearGradient id="linear-gradient-66" x1="31.54" y1="38.12" x2="132.64" y2="38.12" xlink:href="#linear-gradient"/><linearGradient id="linear-gradient-67" x1="31.54" y1="133.57" x2="132.64" y2="133.57" xlink:href="#linear-gradient"/><linearGradient id="linear-gradient-68" x1="31.54" y1="38.44" x2="132.64" y2="38.44" xlink:href="#linear-gradient"/><linearGradient id="linear-gradient-69" x1="31.54" y1="133.12" x2="132.64" y2="133.12" xlink:href="#linear-gradient"/><linearGradient id="linear-gradient-70" x1="31.54" y1="38.89" x2="132.64" y2="38.89" xlink:href="#linear-gradient"/><linearGradient id="linear-gradient-71" x1="31.54" y1="132.55" x2="132.64" y2="132.55" xlink:href="#linear-gradient"/><linearGradient id="linear-gradient-72" x1="31.54" y1="39.48" x2="132.64" y2="39.48" xlink:href="#linear-gradient"/><linearGradient id="linear-gradient-73" x1="31.54" y1="131.85" x2="132.64" y2="131.85" xlink:href="#linear-gradient"/><linearGradient id="linear-gradient-74" x1="31.54" y1="40.19" x2="132.64" y2="40.19" xlink:href="#linear-gradient"/><linearGradient id="linear-gradient-75" x1="31.54" y1="131.02" x2="132.64" y2="131.02" xlink:href="#linear-gradient"/><linearGradient id="linear-gradient-76" x1="31.54" y1="41.02" x2="132.64" y2="41.02" xlink:href="#linear-gradient"/><linearGradient id="linear-gradient-77" x1="31.54" y1="130.06" x2="132.64" y2="130.06" xlink:href="#linear-gradient"/><linearGradient id="linear-gradient-78" x1="31.54" y1="41.98" x2="132.64" y2="41.98" xlink:href="#linear-gradient"/><linearGradient id="linear-gradient-79" x1="31.54" y1="128.99" x2="132.64" y2="128.99" xlink:href="#linear-gradient"/><linearGradient id="linear-gradient-80" x1="31.54" y1="43.06" x2="132.64" y2="43.06" xlink:href="#linear-gradient"/><linearGradient id="linear-gradient-81" x1="31.54" y1="127.8" x2="132.64" y2="127.8" xlink:href="#linear-gradient"/><linearGradient id="linear-gradient-82" x1="31.54" y1="44.25" x2="132.64" y2="44.25" xlink:href="#linear-gradient"/><linearGradient id="linear-gradient-83" x1="31.54" y1="126.49" x2="132.64" y2="126.49" xlink:href="#linear-gradient"/><linearGradient id="linear-gradient-84" x1="31.54" y1="45.56" x2="132.64" y2="45.56" xlink:href="#linear-gradient"/><linearGradient id="linear-gradient-85" x1="31.54" y1="125.08" x2="132.64" y2="125.08" xlink:href="#linear-gradient"/><linearGradient id="linear-gradient-86" x1="31.54" y1="46.98" x2="132.64" y2="46.98" xlink:href="#linear-gradient"/><linearGradient id="linear-gradient-87" x1="31.54" y1="123.55" x2="132.64" y2="123.55" xlink:href="#linear-gradient"/><linearGradient id="linear-gradient-88" x1="31.54" y1="48.51" x2="132.64" y2="48.51" xlink:href="#linear-gradient"/><linearGradient id="linear-gradient-89" x1="31.54" y1="121.92" x2="132.64" y2="121.92" xlink:href="#linear-gradient"/><linearGradient id="linear-gradient-90" x1="31.54" y1="50.14" x2="132.64" y2="50.14" xlink:href="#linear-gradient"/><linearGradient id="linear-gradient-91" x1="31.54" y1="120.2" x2="132.64" y2="120.2" xlink:href="#linear-gradient"/><linearGradient id="linear-gradient-92" x1="31.54" y1="51.87" x2="132.64" y2="51.87" xlink:href="#linear-gradient"/><linearGradient id="linear-gradient-93" x1="31.54" y1="118.38" x2="132.64" y2="118.38" xlink:href="#linear-gradient"/><linearGradient id="linear-gradient-94" x1="31.54" y1="53.69" x2="132.64" y2="53.69" xlink:href="#linear-gradient"/><linearGradient id="linear-gradient-95" x1="31.54" y1="116.47" x2="132.64" y2="116.47" xlink:href="#linear-gradient"/><linearGradient id="linear-gradient-96" x1="31.54" y1="55.6" x2="132.64" y2="55.6" xlink:href="#linear-gradient"/><linearGradient id="linear-gradient-97" x1="31.54" y1="114.48" x2="132.64" y2="114.48" xlink:href="#linear-gradient"/><linearGradient id="linear-gradient-98" x1="31.54" y1="57.59" x2="132.64" y2="57.59" xlink:href="#linear-gradient"/><linearGradient id="linear-gradient-99" x1="31.54" y1="112.29" x2="132.64" y2="112.29" xlink:href="#linear-gradient"/><linearGradient id="linear-gradient-100" x1="31.54" y1="59.77" x2="132.64" y2="59.77" xlink:href="#linear-gradient"/><linearGradient id="linear-gradient-101" x1="31.54" y1="110" x2="132.64" y2="110" xlink:href="#linear-gradient"/><linearGradient id="linear-gradient-102" x1="31.54" y1="62.07" x2="132.64" y2="62.07" xlink:href="#linear-gradient"/><linearGradient id="linear-gradient-103" x1="31.54" y1="107.67" x2="132.64" y2="107.67" xlink:href="#linear-gradient"/><linearGradient id="linear-gradient-104" x1="31.54" y1="64.39" x2="132.64" y2="64.39" xlink:href="#linear-gradient"/><linearGradient id="linear-gradient-105" x1="31.54" y1="105.33" x2="132.64" y2="105.33" xlink:href="#linear-gradient"/><linearGradient id="linear-gradient-106" x1="31.54" y1="66.73" x2="132.64" y2="66.73" xlink:href="#linear-gradient"/><linearGradient id="linear-gradient-107" x1="31.54" y1="103" x2="132.64" y2="103" xlink:href="#linear-gradient"/><linearGradient id="linear-gradient-108" x1="31.54" y1="69.06" x2="132.64" y2="69.06" xlink:href="#linear-gradient"/><linearGradient id="linear-gradient-109" x1="31.54" y1="100.63" x2="132.64" y2="100.63" xlink:href="#linear-gradient"/><linearGradient id="linear-gradient-110" x1="31.54" y1="71.43" x2="132.64" y2="71.43" xlink:href="#linear-gradient"/><linearGradient id="linear-gradient-111" x1="31.54" y1="98.22" x2="132.64" y2="98.22" xlink:href="#linear-gradient"/><linearGradient id="linear-gradient-112" x1="31.54" y1="73.83" x2="132.64" y2="73.83" xlink:href="#linear-gradient"/><linearGradient id="linear-gradient-113" x1="31.54" y1="95.79" x2="132.64" y2="95.79" xlink:href="#linear-gradient"/><linearGradient id="linear-gradient-114" x1="31.54" y1="76.27" x2="132.64" y2="76.27" xlink:href="#linear-gradient"/><linearGradient id="linear-gradient-115" x1="31.54" y1="93.32" x2="132.64" y2="93.32" xlink:href="#linear-gradient"/><linearGradient id="linear-gradient-116" x1="31.54" y1="78.73" x2="132.64" y2="78.73" xlink:href="#linear-gradient"/><linearGradient id="linear-gradient-117" x1="31.54" y1="90.83" x2="132.64" y2="90.83" xlink:href="#linear-gradient"/><linearGradient id="linear-gradient-118" x1="31.54" y1="81.21" x2="132.64" y2="81.21" xlink:href="#linear-gradient"/><linearGradient id="linear-gradient-119" x1="31.54" y1="88.33" x2="132.64" y2="88.33" xlink:href="#linear-gradient"/><linearGradient id="linear-gradient-120" x1="31.54" y1="83.71" x2="132.64" y2="83.71" xlink:href="#linear-gradient"/><linearGradient id="linear-gradient-121" x1="325.49" y1="61.77" x2="407.69" y2="61.77" gradientTransform="rotate(180 224.255 73.88)" xlink:href="#linear-gradient"/><linearGradient id="linear-gradient-122" x1="30.52" y1="85.99" x2="133.3" y2="85.99" xlink:href="#linear-gradient"/><linearGradient id="linear-gradient-123" x1="59.33" y1="4.37" x2="120.28" y2="65.32" xlink:href="#linear-gradient"/><linearGradient id="linear-gradient-124" x1="61.03" y1="2.68" x2="121.98" y2="63.62" xlink:href="#linear-gradient"/><linearGradient id="linear-gradient-125" x1="62.53" y1="1.18" x2="123.48" y2="62.12" xlink:href="#linear-gradient"/><linearGradient id="linear-gradient-126" x1="306.52" y1="55.73" x2="367.47" y2="116.67" gradientTransform="rotate(180 214.58 116.66)" xlink:href="#linear-gradient"/><linearGradient id="linear-gradient-127" x1="308.22" y1="54.03" x2="369.17" y2="114.97" gradientTransform="rotate(180 214.58 116.66)" xlink:href="#linear-gradient"/><linearGradient id="linear-gradient-128" x1="309.72" y1="52.53" x2="370.67" y2="113.47" gradientTransform="rotate(180 214.58 116.66)" xlink:href="#linear-gradient"/><linearGradient id="linear-gradient-129" x1="81.61" y1="-8.43" x2="142.55" y2="52.51" gradientTransform="translate(-16.27 38.98)" xlink:href="#linear-gradient"/><linearGradient id="linear-gradient-130" x1="83.31" y1="-10.13" x2="144.25" y2="50.82" gradientTransform="translate(-17.15 39.09)" xlink:href="#linear-gradient"/><linearGradient id="linear-gradient-131" x1="84.81" y1="-11.63" x2="145.75" y2="49.31" gradientTransform="translate(-17.93 39.2)" xlink:href="#linear-gradient"/><linearGradient id="linear-gradient-132" x1="305.15" y1="93.13" x2="366.1" y2="154.07" gradientTransform="rotate(180 231.105 146.585)" xlink:href="#linear-gradient"/><linearGradient id="linear-gradient-133" x1="306.85" y1="91.43" x2="367.8" y2="152.37" gradientTransform="rotate(180 231.55 146.51)" xlink:href="#linear-gradient"/><linearGradient id="linear-gradient-134" x1="308.35" y1="89.93" x2="369.3" y2="150.87" gradientTransform="rotate(-180 231.935 146.47)" xlink:href="#linear-gradient"/><linearGradient id="linear-gradient-135" x1="92.65" y1="-43.84" x2="153.59" y2="17.11" gradientTransform="translate(-40.57 79.88)" xlink:href="#linear-gradient"/><linearGradient id="linear-gradient-136" x1="94.35" y1="-45.54" x2="155.29" y2="15.41" gradientTransform="translate(-42.27 80.34)" xlink:href="#linear-gradient"/><linearGradient id="linear-gradient-137" x1="95.85" y1="-47.04" x2="156.79" y2="13.91" gradientTransform="translate(-43.77 80.74)" xlink:href="#linear-gradient"/><linearGradient id="linear-gradient-138" x1="293.59" y1="128.81" x2="354.53" y2="189.75" gradientTransform="rotate(180 231.96 161.665)" xlink:href="#linear-gradient"/><linearGradient id="linear-gradient-139" x1="295.29" y1="127.11" x2="356.23" y2="188.05" gradientTransform="rotate(-180 232.8 161.455)" xlink:href="#linear-gradient"/><linearGradient id="linear-gradient-140" x1="296.79" y1="125.61" x2="357.73" y2="186.55" gradientTransform="rotate(180 233.56 161.23)" xlink:href="#linear-gradient"/><linearGradient id="linear-gradient-141" x1="112.76" y1="-75.44" x2="173.71" y2="-14.5" gradientTransform="translate(-72.07 120.21)" xlink:href="#linear-gradient"/><linearGradient id="linear-gradient-142" x1="114.46" y1="-77.14" x2="175.4" y2="-16.2" gradientTransform="translate(-74.46 121.22)" xlink:href="#linear-gradient"/><linearGradient id="linear-gradient-143" x1="115.96" y1="-78.64" x2="176.91" y2="-17.69" gradientTransform="rotate(-.01 699600.472 438832.133)" xlink:href="#linear-gradient"/><linearGradient id="linear-gradient-144" x1="273.48" y1="160.01" x2="334.42" y2="220.95" gradientTransform="rotate(180 227.595 172.9)" xlink:href="#linear-gradient"/><linearGradient id="linear-gradient-145" x1="275.18" y1="158.31" x2="336.12" y2="219.25" gradientTransform="rotate(180 228.795 172.405)" xlink:href="#linear-gradient"/><linearGradient id="linear-gradient-146" x1="276.67" y1="156.81" x2="337.62" y2="217.75" gradientTransform="rotate(180 229.855 171.965)" xlink:href="#linear-gradient"/><linearGradient id="linear-gradient-147" x1="140.52" y1="-100.58" x2="201.46" y2="-39.63" gradientTransform="translate(-108.56 156.73)" xlink:href="#linear-gradient"/><linearGradient id="linear-gradient-148" x1="142.22" y1="-102.28" x2="203.16" y2="-41.33" gradientTransform="translate(-111.5 158.43)" xlink:href="#linear-gradient"/><linearGradient id="linear-gradient-149" x1="143.72" y1="-103.78" x2="204.66" y2="-42.83" gradientTransform="translate(-114.1 159.93)" xlink:href="#linear-gradient"/><linearGradient id="linear-gradient-150" x1="246.13" y1="185.13" x2="307.07" y2="246.08" gradientTransform="rotate(-180 218.285 179.775)" xlink:href="#linear-gradient"/><linearGradient id="linear-gradient-151" x1="247.83" y1="183.43" x2="308.77" y2="244.38" gradientTransform="rotate(-180 219.755 178.925)" xlink:href="#linear-gradient"/><linearGradient id="linear-gradient-152" x1="249.33" y1="181.93" x2="310.27" y2="242.88" gradientTransform="rotate(-180 221.05 178.18)" xlink:href="#linear-gradient"/><linearGradient id="linear-gradient-153" x1="173.51" y1="-117.46" x2="234.46" y2="-56.51" gradientTransform="translate(-147.04 186.87)" xlink:href="#linear-gradient"/><linearGradient id="linear-gradient-154" x1="175.21" y1="-119.16" x2="236.16" y2="-58.21" gradientTransform="translate(-150.31 189.4)" xlink:href="#linear-gradient"/><linearGradient id="linear-gradient-155" x1="176.71" y1="-120.66" x2="237.65" y2="-59.72" gradientTransform="translate(-153.21 191.62)" xlink:href="#linear-gradient"/><linearGradient id="linear-gradient-156" x1="212.87" y1="202.54" x2="273.81" y2="263.48" gradientTransform="rotate(180 204.405 181.845)" xlink:href="#linear-gradient"/><linearGradient id="linear-gradient-157" x1="214.57" y1="200.84" x2="275.51" y2="261.78" gradientTransform="rotate(180 206.055 180.575)" xlink:href="#linear-gradient"/><linearGradient id="linear-gradient-158" x1="216.07" y1="199.34" x2="277.01" y2="260.28" gradientTransform="rotate(180 207.495 179.475)" xlink:href="#linear-gradient"/><linearGradient id="linear-gradient-159" x1="209.79" y1="-125.77" x2="270.73" y2="-64.83" gradientTransform="rotate(-90 201.99 71.84)" xlink:href="#linear-gradient"/><linearGradient id="linear-gradient-160" x1="211.49" y1="-127.47" x2="272.43" y2="-66.53" gradientTransform="rotate(-90 201.99 71.84)" xlink:href="#linear-gradient"/><linearGradient id="linear-gradient-161" x1="212.99" y1="-128.97" x2="273.93" y2="-68.03" gradientTransform="rotate(-90 201.99 71.84)" xlink:href="#linear-gradient"/><linearGradient id="linear-gradient-162" x1="176.3" y1="210.19" x2="237.24" y2="271.13" gradientTransform="rotate(90 281.66 106.11)" xlink:href="#linear-gradient"/><linearGradient id="linear-gradient-163" x1="177.99" y1="208.49" x2="238.94" y2="269.43" gradientTransform="rotate(90 281.66 106.11)" xlink:href="#linear-gradient"/><linearGradient id="linear-gradient-164" x1="247.38" y1="-123.92" x2="308.32" y2="-62.98" gradientTransform="rotate(-90 250.16 99.78)" xlink:href="#linear-gradient"/><linearGradient id="linear-gradient-165" x1="249.08" y1="-125.62" x2="310.02" y2="-64.67" gradientTransform="rotate(-90 250.655 100.175)" xlink:href="#linear-gradient"/><linearGradient id="linear-gradient-166" x1="250.58" y1="-127.12" x2="311.52" y2="-66.17" gradientTransform="rotate(-90 251.1 100.5)" xlink:href="#linear-gradient"/><linearGradient id="linear-gradient-167" x1="139.38" y1="208.62" x2="200.32" y2="269.56" gradientTransform="rotate(90 266.55 138)" xlink:href="#linear-gradient"/><linearGradient id="linear-gradient-168" x1="141.08" y1="206.92" x2="202.02" y2="267.86" gradientTransform="rotate(90 266.93 137.52)" xlink:href="#linear-gradient"/><linearGradient id="linear-gradient-169" x1="142.58" y1="205.42" x2="203.52" y2="266.36" gradientTransform="rotate(90 267.27 137.07)" xlink:href="#linear-gradient"/><linearGradient id="linear-gradient-170" x1="282.66" y1="-112.48" x2="343.61" y2="-51.54" gradientTransform="rotate(-90 271.465 127.015)" xlink:href="#linear-gradient"/><linearGradient id="linear-gradient-171" x1="284.36" y1="-114.18" x2="345.31" y2="-53.24" gradientTransform="rotate(-90 272.54 127.64)" xlink:href="#linear-gradient"/><linearGradient id="linear-gradient-172" x1="285.86" y1="-115.68" x2="346.8" y2="-54.74" gradientTransform="rotate(-90 273.495 128.185)" xlink:href="#linear-gradient"/><linearGradient id="linear-gradient-173" x1="103.57" y1="197.45" x2="164.52" y2="258.4" gradientTransform="rotate(90 246.95 140.94)" xlink:href="#linear-gradient"/><linearGradient id="linear-gradient-174" x1="105.27" y1="195.75" x2="166.22" y2="256.7" gradientTransform="rotate(90 247.575 139.865)" xlink:href="#linear-gradient"/><linearGradient id="linear-gradient-175" x1="106.77" y1="194.25" x2="167.72" y2="255.2" gradientTransform="rotate(90 248.12 138.91)" xlink:href="#linear-gradient"/><linearGradient id="linear-gradient-176" x1="314.07" y1="-92.57" x2="375.01" y2="-31.63" gradientTransform="rotate(-90 287.27 154)" xlink:href="#linear-gradient"/><linearGradient id="linear-gradient-177" x1="315.77" y1="-94.27" x2="376.71" y2="-33.33" gradientTransform="rotate(-90 288.965 154.705)" xlink:href="#linear-gradient"/><linearGradient id="linear-gradient-178" x1="317.27" y1="-95.77" x2="378.21" y2="-34.83" gradientTransform="rotate(-90 290.46 155.35)" xlink:href="#linear-gradient"/><linearGradient id="linear-gradient-179" x1="72.17" y1="177.14" x2="133.12" y2="238.08" gradientTransform="rotate(90 222.42 136.42)" xlink:href="#linear-gradient"/><linearGradient id="linear-gradient-180" x1="73.87" y1="175.43" x2="134.82" y2="236.38" gradientTransform="rotate(90 223.115 134.745)" xlink:href="#linear-gradient"/><linearGradient id="linear-gradient-181" x1="75.37" y1="173.93" x2="136.32" y2="234.88" gradientTransform="rotate(90 223.745 133.235)" xlink:href="#linear-gradient"/><linearGradient id="linear-gradient-182" x1="339.4" y1="-65.02" x2="400.34" y2="-4.08" gradientTransform="rotate(-90 296.21 179.12)" xlink:href="#linear-gradient"/><linearGradient id="linear-gradient-183" x1="341.1" y1="-66.72" x2="402.04" y2="-5.78" gradientTransform="rotate(-90 298.545 179.725)" xlink:href="#linear-gradient"/><linearGradient id="linear-gradient-184" x1="342.6" y1="-68.22" x2="403.54" y2="-7.28" gradientTransform="rotate(-90 300.58 180.3)" xlink:href="#linear-gradient"/><linearGradient id="linear-gradient-185" x1="47.25" y1="149.58" x2="108.19" y2="210.52" gradientTransform="rotate(90 194.85 125.05)" xlink:href="#linear-gradient"/><linearGradient id="linear-gradient-186" x1="48.95" y1="147.88" x2="109.89" y2="208.82" gradientTransform="rotate(90 195.47 122.74)" xlink:href="#linear-gradient"/><linearGradient id="linear-gradient-187" x1="50.45" y1="146.38" x2="111.39" y2="207.32" gradientTransform="rotate(90 196.015 120.695)" xlink:href="#linear-gradient"/><linearGradient id="linear-gradient-188" x1="356.41" y1="-31.64" x2="417.36" y2="29.31" gradientTransform="rotate(-90 297.41 200.42)" xlink:href="#linear-gradient"/><linearGradient id="linear-gradient-189" x1="358.11" y1="-33.34" x2="419.06" y2="27.61" gradientTransform="rotate(-90 300.3 200.82)" xlink:href="#linear-gradient"/><linearGradient id="linear-gradient-190" x1="359.61" y1="-34.84" x2="420.55" y2="26.11" gradientTransform="rotate(-90 302.865 201.145)" xlink:href="#linear-gradient"/><linearGradient id="linear-gradient-191" x1="29.97" y1="116.72" x2="90.91" y2="177.66" gradientTransform="rotate(90 165.895 107.895)" xlink:href="#linear-gradient"/><linearGradient id="linear-gradient-192" x1="31.67" y1="115.02" x2="92.61" y2="175.96" gradientTransform="rotate(90 166.285 104.985)" xlink:href="#linear-gradient"/><linearGradient id="linear-gradient-193" x1="33.17" y1="113.52" x2="94.11" y2="174.46" gradientTransform="rotate(90 166.62 102.43)" xlink:href="#linear-gradient"/><style>.cls-194{fill:#154666}.cls-195{fill:#ba5bb2}.cls-196{fill:#5cdeff}.cls-197{fill:#ff7df5}</style></defs><path d="M30.65 87.24l.92-.58c.56-.34 1.32-.77 2.1-1.15 1.55-.78 3.15-1.4 3.15-1.4s-1.51.84-2.91 1.81c-.7.48-1.38 1-1.87 1.4l-.82.68z" transform="translate(-20.22 -24.31)" fill="url(#linear-gradient)"/><path d="M133.07 84.49l-.92.58c-.56.34-1.32.77-2.09 1.15-1.55.78-3.15 1.4-3.15 1.4s1.51-.84 2.91-1.81c.7-.48 1.38-1 1.87-1.4l.81-.69z" transform="translate(-20.22 -24.31)" fill="url(#linear-gradient-2)"/><path d="M30.78 89.93l.89-.63c.54-.37 1.28-.83 2-1.26 1.51-.86 3.08-1.56 3.08-1.56s-1.46.92-2.81 2a27.9 27.9 0 00-1.8 1.5l-.77.73z" transform="translate(-20.22 -24.31)" fill="url(#linear-gradient-3)"/><path d="M132.92 81.81l-.89.63c-.54.37-1.28.83-2 1.26-1.5.86-3.08 1.56-3.08 1.56s1.46-.92 2.81-2a27.9 27.9 0 001.8-1.5l.77-.73z" transform="translate(-20.22 -24.31)" fill="url(#linear-gradient-4)"/><path d="M31.06 92.6l.85-.68c.52-.4 1.23-.9 2-1.37 1.46-.94 3-1.72 3-1.72s-1.41 1-2.71 2.11c-.65.55-1.27 1.14-1.72 1.59l-.73.77z" transform="translate(-20.22 -24.31)" fill="url(#linear-gradient-5)"/><path d="M132.64 79.15l-.85.68c-.52.4-1.23.9-2 1.37-1.46.94-3 1.72-3 1.72s1.41-1 2.71-2.11c.65-.55 1.27-1.14 1.72-1.59l.73-.77z" transform="translate(-20.22 -24.31)" fill="url(#linear-gradient-6)"/><path d="M31.48 95.25l.82-.72c.5-.42 1.18-1 1.89-1.47 1.41-1 2.9-1.88 2.9-1.88s-1.36 1.06-2.59 2.25c-.62.59-1.21 1.2-1.63 1.68l-.69.8z" transform="translate(-20.22 -24.31)" fill="url(#linear-gradient-7)"/><path d="M132.21 76.5l-.82.72c-.5.42-1.18 1-1.89 1.47-1.41 1-2.9 1.88-2.9 1.88s1.36-1.06 2.59-2.25c.62-.59 1.21-1.2 1.63-1.68l.69-.8z" transform="translate(-20.22 -24.31)" fill="url(#linear-gradient-8)"/><path d="M32 97.87l.78-.76c.48-.45 1.13-1 1.81-1.56 1.35-1.09 2.79-2 2.79-2s-1.3 1.13-2.47 2.38c-.59.62-1.14 1.26-1.54 1.76l-.65.84z" transform="translate(-20.22 -24.31)" fill="url(#linear-gradient-9)"/><path d="M131.65 73.88l-.78.76c-.48.45-1.13 1-1.81 1.56-1.35 1.09-2.79 2-2.79 2s1.3-1.13 2.47-2.38c.59-.62 1.14-1.26 1.54-1.76l.65-.84z" transform="translate(-20.22 -24.31)" fill="url(#linear-gradient-10)"/><path d="M32.73 100.47l.74-.8c.45-.47 1.08-1.08 1.73-1.66 1.29-1.16 2.68-2.17 2.68-2.17s-1.24 1.2-2.34 2.5c-.56.65-1.08 1.32-1.45 1.84l-.6.87z" transform="translate(-20.22 -24.31)" fill="url(#linear-gradient-11)"/><path d="M130.95 71.3l-.74.8c-.45.47-1.08 1.08-1.73 1.66-1.29 1.16-2.68 2.17-2.68 2.17s1.24-1.2 2.34-2.5c.56-.65 1.08-1.32 1.45-1.84l.6-.87z" transform="translate(-20.22 -24.31)" fill="url(#linear-gradient-12)"/><path d="M33.56 103l.7-.84c.43-.5 1-1.14 1.64-1.74 1.23-1.22 2.57-2.31 2.57-2.31s-1.17 1.26-2.21 2.62c-.52.68-1 1.38-1.35 1.91l-.56.9z" transform="translate(-20.22 -24.31)" fill="url(#linear-gradient-13)"/><path d="M130.12 68.75l-.69.84c-.43.5-1 1.14-1.64 1.74-1.23 1.22-2.57 2.31-2.57 2.31s1.17-1.26 2.21-2.62c.52-.68 1-1.38 1.35-1.91l.56-.9z" transform="translate(-20.22 -24.31)" fill="url(#linear-gradient-14)"/><path d="M34.52 105.53l.65-.88c.4-.52 1-1.19 1.54-1.83 1.17-1.28 2.44-2.44 2.44-2.44s-1.11 1.32-2.07 2.74c-.48.7-.93 1.43-1.25 2l-.51.93z" transform="translate(-20.22 -24.31)" fill="url(#linear-gradient-15)"/><path d="M129.15 66.25l-.65.88c-.4.52-1 1.19-1.54 1.83-1.16 1.28-2.44 2.44-2.44 2.44s1.11-1.32 2.07-2.74c.48-.7.93-1.43 1.25-2l.51-.93z" transform="translate(-20.22 -24.31)" fill="url(#linear-gradient-16)"/><path d="M35.61 108l.6-.91c.37-.54.89-1.24 1.45-1.91 1.1-1.34 2.31-2.56 2.31-2.56s-1 1.38-1.92 2.84c-.45.73-.86 1.47-1.14 2l-.46 1z" transform="translate(-20.22 -24.31)" fill="url(#linear-gradient-17)"/><path d="M128.05 63.81l-.6.91c-.37.54-.89 1.24-1.45 1.91-1.1 1.34-2.31 2.56-2.31 2.56s1-1.38 1.92-2.84c.45-.73.86-1.47 1.14-2l.46-1z" transform="translate(-20.22 -24.31)" fill="url(#linear-gradient-18)"/><path d="M36.82 110.38l.55-.94c.34-.56.83-1.28 1.34-2 1-1.4 2.17-2.68 2.17-2.68s-1 1.43-1.77 2.94c-.41.75-.78 1.52-1 2.1l-.41 1z" transform="translate(-20.22 -24.31)" fill="url(#linear-gradient-19)"/><path d="M126.83 61.42l-.55.94c-.34.56-.83 1.28-1.34 2-1 1.4-2.17 2.68-2.17 2.68s1-1.43 1.77-2.94c.41-.75.78-1.52 1-2.1l.46-1z" transform="translate(-20.22 -24.31)" fill="url(#linear-gradient-20)"/><path d="M38.17 112.7l.51-1c.31-.58.76-1.32 1.24-2 .95-1.45 2-2.79 2-2.79s-.89 1.48-1.61 3c-.37.77-.7 1.56-.92 2.15l-.36 1z" transform="translate(-20.22 -24.31)" fill="url(#linear-gradient-21)"/><path d="M125.49 59.1l-.5 1c-.31.58-.76 1.32-1.24 2-.95 1.45-2 2.79-2 2.79s.89-1.48 1.61-3c.37-.77.7-1.56.92-2.15l.36-1z" transform="translate(-20.22 -24.31)" fill="url(#linear-gradient-22)"/><path d="M39.63 115l.45-1c.28-.59.69-1.36 1.13-2.11.87-1.5 1.88-2.89 1.88-2.89s-.81 1.52-1.45 3.11c-.33.79-.62 1.59-.81 2.19l-.3 1z" transform="translate(-20.22 -24.31)" fill="url(#linear-gradient-23)"/><path d="M124 56.86l-.45 1c-.28.59-.69 1.36-1.13 2.11-.87 1.5-1.88 2.89-1.88 2.89s.81-1.52 1.45-3.11c.33-.79.62-1.59.81-2.2l.3-1z" transform="translate(-20.22 -24.31)" fill="url(#linear-gradient-24)"/><path d="M41.2 117.13l.4-1c.25-.6.62-1.4 1-2.16.79-1.54 1.73-3 1.73-3s-.73 1.56-1.29 3.18c-.29.81-.53 1.62-.69 2.23l-.25 1z" transform="translate(-20.22 -24.31)" fill="url(#linear-gradient-25)"/><path d="M122.44 54.7l-.4 1c-.25.6-.62 1.4-1 2.16-.79 1.54-1.73 3-1.73 3s.73-1.56 1.29-3.18c.29-.81.53-1.62.69-2.23l.25-1z" transform="translate(-20.22 -24.31)" fill="url(#linear-gradient-26)"/><path d="M42.89 119.22l.35-1c.22-.62.54-1.43.9-2.21.71-1.58 1.57-3.07 1.57-3.07s-.64 1.6-1.12 3.24c-.24.82-.45 1.65-.57 2.27l-.19 1z" transform="translate(-20.22 -24.31)" fill="url(#linear-gradient-27)"/><path d="M120.75 52.62l-.35 1c-.22.62-.54 1.43-.9 2.21-.71 1.58-1.57 3.07-1.57 3.07s.64-1.6 1.12-3.24c.24-.82.45-1.65.57-2.27l.19-1z" transform="translate(-20.22 -24.31)" fill="url(#linear-gradient-28)"/><path d="M44.69 121.21l.31-1.05c.19-.63.47-1.45.79-2.26.63-1.62 1.41-3.15 1.41-3.15s-.56 1.63-1 3.29c-.2.83-.36 1.67-.46 2.29l-.14 1.05z" transform="translate(-20.22 -24.31)" fill="url(#linear-gradient-29)"/><path d="M119 50.63l-.29 1.05c-.19.63-.47 1.45-.79 2.26-.63 1.62-1.41 3.15-1.41 3.15s.56-1.63 1-3.29c.2-.83.36-1.67.45-2.29l.04-1.06z" transform="translate(-20.22 -24.31)" fill="url(#linear-gradient-30)"/><path d="M46.58 123.11l.24-1.11c.15-.64.39-1.47.67-2.3.54-1.65 1.24-3.22 1.24-3.22s-.47 1.66-.78 3.34c-.16.84-.27 1.68-.33 2.32l-.09 1.06z" transform="translate(-20.22 -24.31)" fill="url(#linear-gradient-31)"/><path d="M117.06 48.74l-.24 1.06c-.15.64-.39 1.47-.67 2.3-.54 1.65-1.24 3.22-1.24 3.22s.47-1.66.78-3.34c.16-.84.27-1.68.33-2.32l.09-1.06z" transform="translate(-20.22 -24.31)" fill="url(#linear-gradient-32)"/><path d="M48.58 124.91l.18-1.08c.12-.64.31-1.49.55-2.33.45-1.67 1.07-3.28 1.07-3.28s-.39 1.68-.6 3.38c-.11.85-.18 1.7-.21 2.33v1.06z" transform="translate(-20.22 -24.31)" fill="url(#linear-gradient-33)"/><path d="M115.06 47l-.18 1c-.12.64-.31 1.49-.55 2.33-.45 1.67-1.07 3.28-1.07 3.28s.39-1.68.6-3.38c.11-.85.18-1.7.21-2.33v-1.06z" transform="translate(-20.22 -24.31)" fill="url(#linear-gradient-34)"/><path d="M50.66 126.6l.13-1.08c.09-.65.24-1.51.42-2.35.37-1.7.9-3.33.9-3.33s-.3 1.7-.42 3.4c-.07.85-.09 1.7-.09 2.34v1.06z" transform="translate(-20.22 -24.31)" fill="url(#linear-gradient-35)"/><path d="M113 45.27l-.12 1.08c-.09.65-.24 1.51-.42 2.35-.37 1.7-.9 3.33-.9 3.33s.3-1.7.42-3.4c.07-.85.09-1.7.09-2.34v-1.06z" transform="translate(-20.22 -24.31)" fill="url(#linear-gradient-36)"/><path d="M52.83 128.18l.07-1.09c.05-.65.16-1.52.3-2.37.28-1.71.72-3.37.72-3.37s-.21 1.71-.24 3.42v2.34l.08 1.06z" transform="translate(-20.22 -24.31)" fill="url(#linear-gradient-37)"/><path d="M110.8 43.7l-.07 1.09c-.05.65-.16 1.52-.3 2.37-.28 1.71-.72 3.38-.72 3.38s.21-1.71.24-3.42v-2.34l-.08-1.06z" transform="translate(-20.22 -24.31)" fill="url(#linear-gradient-38)"/><path d="M55.08 129.65v-1.09c0-.65.08-1.52.17-2.38.19-1.72.54-3.41.54-3.41s-.12 1.72-.07 3.43c0 .85.08 1.7.15 2.33l.13 1.05z" transform="translate(-20.22 -24.31)" fill="url(#linear-gradient-39)"/><path d="M108.55 42.25v1.09c0 .66-.08 1.52-.17 2.38-.19 1.72-.54 3.41-.54 3.41s.12-1.72.07-3.43c0-.85-.08-1.7-.15-2.33l-.14-1.05z" transform="translate(-20.22 -24.31)" fill="url(#linear-gradient-40)"/><path d="M57.41 131v-1.09-2.39c.1-1.73.36-3.43.36-3.43s0 1.72.11 3.43c.07.85.17 1.7.28 2.32l.19 1z" transform="translate(-20.22 -24.31)" fill="url(#linear-gradient-41)"/><path d="M106.23 40.91V44.39c-.1 1.73-.36 3.43-.36 3.43s0-1.72-.11-3.43c-.07-.85-.17-1.7-.28-2.32l-.19-1z" transform="translate(-20.22 -24.31)" fill="url(#linear-gradient-42)"/><path d="M59.8 132.21l-.1-1.09c0-.65-.08-1.52-.08-2.39 0-1.73.18-3.45.18-3.45s.06 1.72.29 3.42c.11.85.26 1.68.4 2.31l.25 1z" transform="translate(-20.22 -24.31)" fill="url(#linear-gradient-43)"/><path d="M103.84 39.7l.1 1.09c0 .65.08 1.52.08 2.39 0 1.73-.18 3.45-.18 3.45s-.06-1.72-.29-3.42c-.11-.85-.26-1.68-.4-2.31l-.25-1z" transform="translate(-20.22 -24.31)" fill="url(#linear-gradient-44)"/><path d="M62.25 133.3l-.16-1.08c-.08-.65-.16-1.52-.2-2.38-.08-1.73 0-3.45 0-3.45s.15 1.72.47 3.4c.16.84.35 1.67.52 2.28l.3 1z" transform="translate(-20.22 -24.31)" fill="url(#linear-gradient-45)"/><path d="M101.39 38.62l.16 1.08c.08.65.16 1.52.2 2.38.08 1.73 0 3.45 0 3.45s-.15-1.72-.47-3.4c-.16-.84-.35-1.67-.52-2.28l-.3-1z" transform="translate(-20.22 -24.31)" fill="url(#linear-gradient-46)"/><path d="M64.76 134.27l-.22-1.07c-.12-.64-.24-1.51-.33-2.37-.21-1.72-.21-3.45-.21-3.45s.24 1.71.65 3.37c.2.83.44 1.65.64 2.25l.35 1z" transform="translate(-20.22 -24.31)" fill="url(#linear-gradient-47)"/><path d="M98.89 37.66l.22 1.07c.12.64.24 1.51.33 2.37.18 1.73.18 3.45.18 3.45s-.24-1.71-.65-3.37c-.2-.83-.44-1.65-.64-2.25l-.35-1z" transform="translate(-20.22 -24.31)" fill="url(#linear-gradient-48)"/><path d="M67.31 135.1L67 134c-.15-.64-.32-1.49-.45-2.35-.27-1.71-.36-3.43-.36-3.43s.33 1.69.82 3.33c.24.82.52 1.62.75 2.21l.4 1z" transform="translate(-20.22 -24.31)" fill="url(#linear-gradient-49)"/><path d="M96.34 36.84l.27 1.06c.15.64.32 1.49.45 2.35.27 1.71.36 3.43.36 3.43s-.33-1.69-.82-3.33c-.24-.82-.52-1.62-.75-2.21l-.4-1z" transform="translate(-20.22 -24.31)" fill="url(#linear-gradient-50)"/><path d="M69.9 135.8l-.33-1c-.18-.63-.4-1.47-.57-2.32-.35-1.7-.54-3.41-.54-3.41s.42 1.67 1 3.28c.28.81.61 1.59.87 2.17l.45 1z" transform="translate(-20.22 -24.31)" fill="url(#linear-gradient-51)"/><path d="M93.75 36.15l.33 1c.18.63.4 1.47.57 2.32.35 1.7.54 3.41.54 3.41s-.42-1.67-1-3.28c-.28-.81-.61-1.59-.87-2.17l-.45-1z" transform="translate(-20.22 -24.31)" fill="url(#linear-gradient-52)"/><path d="M72.53 136.36l-.38-1c-.22-.62-.48-1.45-.69-2.29-.44-1.68-.71-3.38-.71-3.38s.51 1.65 1.17 3.22c.33.79.69 1.56 1 2.12l.5.93z" transform="translate(-20.22 -24.31)" fill="url(#linear-gradient-53)"/><path d="M91.13 35.6l.38 1c.22.62.47 1.45.69 2.29.44 1.68.71 3.38.71 3.38s-.51-1.65-1.17-3.22c-.33-.79-.69-1.56-1-2.12l-.48-.93z" transform="translate(-20.22 -24.31)" fill="url(#linear-gradient-54)"/><path d="M75.18 136.78l-.43-1c-.25-.61-.55-1.42-.81-2.25-.53-1.65-.89-3.33-.89-3.33s.59 1.62 1.34 3.16c.37.77.77 1.52 1.09 2.07l.55.9z" transform="translate(-20.22 -24.31)" fill="url(#linear-gradient-55)"/><path d="M88.48 35.19l.43 1c.25.61.55 1.42.81 2.25.53 1.65.89 3.33.89 3.33s-.61-1.62-1.33-3.16c-.37-.77-.77-1.52-1.09-2.07l-.55-.9z" transform="translate(-20.22 -24.31)" fill="url(#linear-gradient-56)"/><path d="M77.85 137.06l-.49-1c-.28-.59-.62-1.39-.93-2.2-.62-1.62-1.06-3.28-1.06-3.28s.68 1.59 1.5 3.08c.41.75.85 1.48 1.2 2l.6.87z" transform="translate(-20.22 -24.31)" fill="url(#linear-gradient-57)"/><path d="M85.81 34.91l.49 1c.28.59.62 1.39.93 2.2.62 1.62 1.06 3.28 1.06 3.28s-.68-1.59-1.5-3.08c-.41-.75-.85-1.48-1.2-2l-.59-.9z" transform="translate(-20.22 -24.31)" fill="url(#linear-gradient-58)"/><path d="M80.53 137.2l-.54-1c-.31-.58-.7-1.36-1-2.15-.7-1.59-1.23-3.22-1.23-3.22s.76 1.55 1.66 3c.45.73.92 1.43 1.3 1.94l.64.84z" transform="translate(-20.22 -24.31)" fill="url(#linear-gradient-59)"/><path d="M83.14 34.78l.54 1c.31.58.7 1.36 1 2.15.7 1.59 1.23 3.22 1.23 3.22s-.76-1.55-1.66-3c-.45-.73-.92-1.43-1.3-1.94l-.64-.84z" transform="translate(-20.22 -24.31)" fill="url(#linear-gradient-60)"/><path d="M83.22 137.21l-.58-.92c-.34-.56-.77-1.32-1.15-2.1-.78-1.55-1.4-3.15-1.4-3.15s.84 1.51 1.81 2.91c.48.7 1 1.38 1.4 1.87l.7.81z" transform="translate(-20.22 -24.31)" fill="url(#linear-gradient-61)"/><path d="M80.46 34.78l.54.92c.34.56.77 1.32 1.15 2.1C83 39.35 83.6 41 83.6 41s-.84-1.55-1.82-3c-.48-.7-1-1.38-1.4-1.87l-.69-.81z" transform="translate(-20.22 -24.31)" fill="url(#linear-gradient-62)"/><path d="M85.9 137.07l-.63-.89c-.37-.54-.83-1.28-1.26-2-.86-1.5-1.56-3.08-1.56-3.08s.92 1.46 2 2.81a27.9 27.9 0 001.5 1.8l.73.77z" transform="translate(-20.22 -24.31)" fill="url(#linear-gradient-63)"/><path d="M77.78 34.93l.63.89c.37.54.83 1.28 1.26 2 .86 1.5 1.56 3.08 1.56 3.08s-.92-1.46-2-2.81a27.9 27.9 0 00-1.5-1.8l-.73-.77z" transform="translate(-20.22 -24.31)" fill="url(#linear-gradient-64)"/><path d="M88.57 136.79l-.68-.85c-.4-.52-.9-1.23-1.37-2-.94-1.46-1.72-3-1.72-3s1 1.41 2.11 2.71c.55.65 1.14 1.27 1.59 1.72l.77.73z" transform="translate(-20.22 -24.31)" fill="url(#linear-gradient-65)"/><path d="M75.12 35.22l.68.85c.4.52.9 1.23 1.37 2 .94 1.46 1.72 3 1.72 3s-1-1.41-2.11-2.71c-.55-.65-1.14-1.27-1.59-1.72l-.77-.73z" transform="translate(-20.22 -24.31)" fill="url(#linear-gradient-66)"/><path d="M91.22 136.37l-.72-.82c-.42-.5-1-1.18-1.47-1.89-1-1.41-1.88-2.9-1.88-2.9s1.06 1.36 2.25 2.59c.6.65 1.2 1.22 1.68 1.65l.8.69z" transform="translate(-20.22 -24.31)" fill="url(#linear-gradient-67)"/><path d="M72.47 35.64l.72.82c.42.5 1 1.18 1.47 1.89 1 1.41 1.88 2.9 1.88 2.9s-1.06-1.36-2.25-2.59c-.59-.66-1.2-1.22-1.67-1.66l-.8-.69z" transform="translate(-20.22 -24.31)" fill="url(#linear-gradient-68)"/><path d="M93.85 135.82l-.77-.82c-.45-.48-1-1.13-1.56-1.81-1.09-1.35-2-2.79-2-2.79s1.13 1.3 2.38 2.47c.62.59 1.26 1.14 1.76 1.54l.84.65z" transform="translate(-20.22 -24.31)" fill="url(#linear-gradient-69)"/><path d="M69.85 36.2l.77.8c.45.48 1 1.13 1.56 1.81 1.09 1.35 2 2.79 2 2.79s-1.13-1.3-2.38-2.47c-.62-.59-1.26-1.14-1.76-1.54l-.84-.65z" transform="translate(-20.22 -24.31)" fill="url(#linear-gradient-70)"/><path d="M96.44 135.12l-.8-.74c-.47-.45-1.08-1.08-1.66-1.73-1.16-1.29-2.17-2.68-2.17-2.68s1.2 1.24 2.5 2.34c.65.56 1.32 1.08 1.84 1.45l.87.6z" transform="translate(-20.22 -24.31)" fill="url(#linear-gradient-71)"/><path d="M67.27 36.9l.8.74c.47.45 1.08 1.08 1.66 1.73 1.16 1.29 2.17 2.68 2.17 2.68s-1.2-1.24-2.5-2.34c-.65-.56-1.32-1.08-1.84-1.45l-.87-.6z" transform="translate(-20.22 -24.31)" fill="url(#linear-gradient-72)"/><path d="M99 134.29l-.84-.69c-.5-.43-1.14-1-1.74-1.64-1.22-1.23-2.31-2.57-2.31-2.57s1.26 1.17 2.62 2.21c.68.52 1.38 1 1.91 1.35l.9.56z" transform="translate(-20.22 -24.31)" fill="url(#linear-gradient-73)"/><path d="M64.72 37.74l.84.69c.5.43 1.14 1 1.74 1.64 1.22 1.23 2.31 2.57 2.31 2.57s-1.26-1.18-2.61-2.21c-.68-.52-1.38-1-1.91-1.35l-.9-.56z" transform="translate(-20.22 -24.31)" fill="url(#linear-gradient-74)"/><path d="M101.5 133.33l-.88-.65c-.52-.4-1.19-1-1.83-1.54-1.28-1.16-2.44-2.44-2.44-2.44s1.32 1.11 2.74 2.07c.7.48 1.43.93 2 1.25l.93.51z" transform="translate(-20.22 -24.31)" fill="url(#linear-gradient-75)"/><path d="M62.22 38.7l.88.65c.52.4 1.19 1 1.83 1.54 1.28 1.16 2.44 2.44 2.44 2.44s-1.37-1.1-2.74-2.06c-.7-.48-1.43-.93-2-1.25l-.93-.51z" transform="translate(-20.22 -24.31)" fill="url(#linear-gradient-76)"/><path d="M104 132.24l-.91-.6c-.54-.37-1.24-.89-1.91-1.45-1.34-1.1-2.56-2.31-2.56-2.31s1.38 1 2.84 1.92c.73.45 1.47.86 2 1.14l1 .46z" transform="translate(-20.22 -24.31)" fill="url(#linear-gradient-77)"/><path d="M59.78 39.8l.91.6c.54.37 1.24.89 1.9 1.45 1.34 1.1 2.56 2.31 2.56 2.31s-1.38-1-2.84-1.92c-.73-.45-1.47-.86-2-1.14l-1-.46z" transform="translate(-20.22 -24.31)" fill="url(#linear-gradient-78)"/><path d="M106.35 131l-.94-.55c-.56-.34-1.28-.83-2-1.34-1.4-1-2.68-2.17-2.68-2.17s1.43 1 2.94 1.77c.75.41 1.52.78 2.1 1l1 .41z" transform="translate(-20.22 -24.31)" fill="url(#linear-gradient-79)"/><path d="M57.39 41l.94.55c.56.34 1.28.83 2 1.34 1.4 1 2.68 2.17 2.68 2.17s-1.43-1-2.94-1.77c-.75-.41-1.52-.78-2.1-1l-1-.41z" transform="translate(-20.22 -24.31)" fill="url(#linear-gradient-80)"/><path d="M108.67 129.69l-1-.5c-.58-.31-1.32-.76-2-1.24-1.45-.95-2.79-2-2.79-2s1.48.89 3 1.61c.77.37 1.56.7 2.15.92l1 .36z" transform="translate(-20.22 -24.31)" fill="url(#linear-gradient-81)"/><path d="M55.07 42.36l1 .51c.58.31 1.32.76 2 1.24 1.45.95 2.79 2 2.79 2s-1.48-.89-3-1.61c-.77-.37-1.56-.7-2.15-.92l-1-.36z" transform="translate(-20.22 -24.31)" fill="url(#linear-gradient-82)"/><path d="M110.93 128.23l-1-.45c-.59-.28-1.36-.69-2.11-1.13-1.5-.87-2.89-1.88-2.89-1.88s1.52.81 3.11 1.45c.79.33 1.59.62 2.19.81l1 .3z" transform="translate(-20.22 -24.31)" fill="url(#linear-gradient-83)"/><path d="M52.83 43.83l1 .45c.59.28 1.36.69 2.11 1.13 1.5.87 2.89 1.88 2.89 1.88s-1.52-.81-3.11-1.45c-.79-.33-1.59-.62-2.2-.81l-1-.3z" transform="translate(-20.22 -24.31)" fill="url(#linear-gradient-84)"/><path d="M113.1 126.65l-1-.4c-.6-.25-1.4-.62-2.16-1-1.54-.79-3-1.73-3-1.73s1.56.73 3.18 1.29c.81.29 1.62.53 2.23.69l1 .25z" transform="translate(-20.22 -24.31)" fill="url(#linear-gradient-85)"/><path d="M50.67 45.41l1 .4c.6.25 1.4.62 2.16 1 1.54.79 3 1.73 3 1.73s-1.56-.73-3.18-1.29c-.8-.25-1.65-.52-2.23-.68l-1-.25z" transform="translate(-20.22 -24.31)" fill="url(#linear-gradient-86)"/><path d="M115.19 125l-1-.35c-.62-.22-1.43-.54-2.21-.9-1.58-.71-3.07-1.57-3.07-1.57s1.6.64 3.24 1.12c.82.24 1.65.45 2.27.57l1 .19z" transform="translate(-20.22 -24.31)" fill="url(#linear-gradient-87)"/><path d="M48.59 47.1l1 .35c.62.22 1.43.54 2.21.9 1.58.71 3.07 1.57 3.07 1.57s-1.6-.64-3.24-1.12c-.82-.24-1.65-.45-2.27-.57l-1-.2z" transform="translate(-20.22 -24.31)" fill="url(#linear-gradient-88)"/><path d="M117.18 123.17l-1.05-.29c-.63-.19-1.45-.47-2.26-.79-1.62-.63-3.15-1.41-3.15-1.41s1.63.56 3.29 1c.83.2 1.67.36 2.29.45l1.05.14z" transform="translate(-20.22 -24.31)" fill="url(#linear-gradient-89)"/><path d="M46.6 48.9l1.05.29c.63.19 1.45.47 2.26.79 1.62.63 3.15 1.41 3.15 1.41s-1.63-.56-3.29-1c-.83-.2-1.67-.36-2.29-.46l-1.05-.14z" transform="translate(-20.22 -24.31)" fill="url(#linear-gradient-90)"/><path d="M119.08 121.27L118 121c-.64-.15-1.47-.39-2.3-.67-1.65-.54-3.22-1.24-3.22-1.24s1.66.47 3.34.78c.84.16 1.68.27 2.32.33l1.06.08z" transform="translate(-20.22 -24.31)" fill="url(#linear-gradient-91)"/><path d="M44.71 50.8l1.06.2c.64.15 1.47.39 2.3.67 1.65.54 3.22 1.24 3.22 1.24s-1.66-.47-3.34-.78c-.84-.16-1.68-.27-2.32-.33l-1.06-.08z" transform="translate(-20.22 -24.31)" fill="url(#linear-gradient-92)"/><path d="M120.88 119.28l-1.08-.18c-.64-.12-1.49-.31-2.33-.55-1.67-.45-3.28-1.07-3.28-1.07s1.68.39 3.38.6c.85.11 1.7.18 2.33.21h1.06z" transform="translate(-20.22 -24.31)" fill="url(#linear-gradient-93)"/><path d="M42.92 52.79L44 53c.64.12 1.49.31 2.33.55 1.67.45 3.28 1.04 3.28 1.04s-1.68-.39-3.38-.6c-.85-.11-1.7-.18-2.33-.21h-1.06z" transform="translate(-20.22 -24.31)" fill="url(#linear-gradient-94)"/><path d="M122.57 117.19l-1.08-.12c-.65-.09-1.51-.24-2.35-.42-1.69-.37-3.33-.9-3.33-.9s1.7.3 3.4.42c.85.07 1.7.09 2.34.09h1.06z" transform="translate(-20.22 -24.31)" fill="url(#linear-gradient-95)"/><path d="M41.24 54.88l1.08.12c.65.09 1.51.24 2.35.42 1.7.37 3.33.9 3.33.9s-1.7-.3-3.4-.42c-.85-.07-1.7-.09-2.34-.09H41.2z" transform="translate(-20.22 -24.31)" fill="url(#linear-gradient-96)"/><path d="M124.15 115l-1.09-.07c-.65-.05-1.52-.16-2.37-.3-1.71-.28-3.37-.72-3.37-.72s1.71.21 3.42.24h2.34l1.06-.08z" transform="translate(-20.22 -24.31)" fill="url(#linear-gradient-97)"/><path d="M39.67 57l1.09.07c.65.05 1.52.16 2.37.3 1.71.28 3.38.72 3.38.72s-1.71-.21-3.42-.24h-2.34l-1.06.15z" transform="translate(-20.22 -24.31)" fill="url(#linear-gradient-98)"/><path d="M125.62 112.77h-1.09c-.66 0-1.52-.08-2.38-.17-1.72-.19-3.41-.54-3.41-.54s1.72.12 3.43.07c.85 0 1.7-.08 2.33-.15l1.05-.14z" transform="translate(-20.22 -24.31)" fill="url(#linear-gradient-99)"/><path d="M38.22 59.3h1.09c.66 0 1.52.08 2.38.17 1.73.2 3.41.53 3.41.53s-1.72-.12-3.43-.07c-.85 0-1.7.08-2.33.15l-1.05.14z" transform="translate(-20.22 -24.31)" fill="url(#linear-gradient-100)"/><path d="M127 110.44H123.52c-1.73-.1-3.43-.36-3.43-.36s1.72 0 3.43-.11c.85-.07 1.7-.17 2.32-.28l1-.19z" transform="translate(-20.22 -24.31)" fill="url(#linear-gradient-101)"/><path d="M36.88 61.62H40.36c1.73.1 3.43.36 3.43.36s-1.72 0-3.43.11c-.85.07-1.7.17-2.32.28l-1 .19z" transform="translate(-20.22 -24.31)" fill="url(#linear-gradient-102)"/><path d="M128.18 108.05l-1.09.1c-.65 0-1.52.08-2.39.08-1.73 0-3.45-.18-3.45-.18s1.72-.06 3.42-.29c.85-.11 1.68-.26 2.31-.4l1-.25z" transform="translate(-20.22 -24.31)" fill="url(#linear-gradient-103)"/><path d="M35.67 64l1.09-.1c.65 0 1.52-.08 2.39-.08 1.73 0 3.45.18 3.45.18s-1.72.06-3.42.29c-.85.11-1.68.26-2.31.4l-1 .25z" transform="translate(-20.22 -24.31)" fill="url(#linear-gradient-104)"/><path d="M129.28 105.6l-1.08.16c-.65.08-1.52.16-2.38.2-1.73.08-3.45 0-3.45 0s1.72-.15 3.4-.47c.84-.16 1.67-.35 2.28-.52l1-.3z" transform="translate(-20.22 -24.31)" fill="url(#linear-gradient-105)"/><path d="M34.59 66.46l1.08-.16c.65-.08 1.52-.16 2.38-.2 1.73-.08 3.45 0 3.45 0s-1.72.15-3.4.47c-.84.16-1.67.35-2.28.52l-1 .3z" transform="translate(-20.22 -24.31)" fill="url(#linear-gradient-106)"/><path d="M130.24 103.1l-1.07.22c-.64.12-1.51.24-2.37.33-1.73.18-3.45.18-3.45.18s1.71-.24 3.37-.65c.83-.2 1.65-.44 2.25-.64l1-.35z" transform="translate(-20.22 -24.31)" fill="url(#linear-gradient-107)"/><path d="M33.63 69l1.07-.22c.64-.12 1.51-.24 2.37-.33 1.73-.18 3.45-.18 3.45-.18s-1.71.24-3.37.65c-.83.2-1.65.44-2.25.64l-1 .35z" transform="translate(-20.22 -24.31)" fill="url(#linear-gradient-108)"/><path d="M131.07 100.54l-1.06.27c-.64.15-1.49.32-2.35.45-1.71.27-3.43.36-3.43.36s1.69-.33 3.33-.82c.82-.24 1.62-.52 2.21-.75l1-.4z" transform="translate(-20.22 -24.31)" fill="url(#linear-gradient-109)"/><path d="M32.81 71.51l1.06-.27c.64-.15 1.49-.32 2.35-.45 1.71-.27 3.43-.36 3.43-.36s-1.69.33-3.33.82c-.82.24-1.62.52-2.21.75l-1 .4z" transform="translate(-20.22 -24.31)" fill="url(#linear-gradient-110)"/><path d="M131.77 98l-1 .33c-.63.18-1.47.4-2.32.57-1.7.35-3.41.54-3.41.54s1.67-.42 3.28-1c.81-.28 1.59-.61 2.17-.87l1-.45z" transform="translate(-20.22 -24.31)" fill="url(#linear-gradient-111)"/><path d="M32.12 74.1l1-.33c.63-.18 1.47-.4 2.32-.57 1.7-.35 3.41-.54 3.41-.54s-1.67.42-3.28 1c-.81.28-1.59.61-2.17.87l-1 .45z" transform="translate(-20.22 -24.31)" fill="url(#linear-gradient-112)"/><path d="M132.33 95.32l-1 .38c-.62.22-1.45.47-2.29.69-1.68.44-3.38.71-3.38.71s1.65-.51 3.22-1.17c.79-.33 1.56-.69 2.12-1l.93-.5z" transform="translate(-20.22 -24.31)" fill="url(#linear-gradient-113)"/><path d="M31.57 76.73l1-.38c.62-.22 1.45-.47 2.29-.69 1.68-.44 3.38-.71 3.38-.71s-1.65.51-3.22 1.17c-.79.33-1.56.69-2.12 1l-.93.5z" transform="translate(-20.22 -24.31)" fill="url(#linear-gradient-114)"/><path d="M132.75 92.67l-1 .43c-.61.25-1.42.55-2.25.81-1.65.53-3.33.89-3.33.89s1.62-.59 3.16-1.33c.77-.37 1.52-.77 2.07-1.09l.9-.55z" transform="translate(-20.22 -24.31)" fill="url(#linear-gradient-115)"/><path d="M31.16 79.37l1-.43c.61-.25 1.42-.55 2.25-.81 1.65-.53 3.33-.89 3.33-.89s-1.62.59-3.16 1.33c-.77.37-1.52.77-2.07 1.09l-.9.55z" transform="translate(-20.22 -24.31)" fill="url(#linear-gradient-116)"/><path d="M133 90l-1 .49c-.59.28-1.39.62-2.2.93-1.62.62-3.28 1.06-3.28 1.06s1.59-.68 3.08-1.5c.75-.41 1.48-.85 2-1.2l.87-.6z" transform="translate(-20.22 -24.31)" fill="url(#linear-gradient-117)"/><path d="M30.88 82l1-.49c.59-.28 1.39-.62 2.2-.93 1.62-.62 3.28-1.06 3.28-1.06s-1.59.68-3.08 1.5c-.75.41-1.48.85-2 1.2l-.87.6z" transform="translate(-20.22 -24.31)" fill="url(#linear-gradient-118)"/><path d="M133.18 87.32l-.95.54c-.58.31-1.36.7-2.15 1-1.59.7-3.22 1.23-3.22 1.23s1.55-.76 3-1.66c.73-.45 1.43-.92 1.94-1.3l.84-.64z" transform="translate(-20.22 -24.31)" fill="url(#linear-gradient-119)"/><path d="M30.75 84.71l1-.54c.58-.31 1.36-.7 2.15-1 1.59-.7 3.22-1.23 3.22-1.23s-1.55.76-3 1.66c-.73.45-1.43.92-1.94 1.3l-.84.64z" transform="translate(-20.22 -24.31)" fill="url(#linear-gradient-120)"/><path d="M81.91 127.09A41.1 41.1 0 11123 86a41.15 41.15 0 01-41.09 41.09zm0-81.7A40.6 40.6 0 10122.51 86a40.65 40.65 0 00-40.6-40.61z" transform="translate(-20.22 -24.31)" fill="url(#linear-gradient-121)"/><path d="M81.91 137.38A51.39 51.39 0 11133.3 86a51.45 51.45 0 01-51.39 51.38zm0-102A50.64 50.64 0 10132.55 86a50.69 50.69 0 00-50.64-50.64z" transform="translate(-20.22 -24.31)" fill="url(#linear-gradient-122)"/><circle cx="61.69" cy="6.73" r=".73" fill="url(#linear-gradient-123)"/><circle cx="61.69" cy="3.33" r=".48" fill="url(#linear-gradient-124)"/><circle cx="61.69" cy=".33" r=".33" fill="url(#linear-gradient-125)"/><circle cx="61.69" cy="116.65" r=".73" fill="url(#linear-gradient-126)"/><circle cx="61.69" cy="120.04" r=".48" fill="url(#linear-gradient-127)"/><circle cx="61.69" cy="123.04" r=".33" fill="url(#linear-gradient-128)"/><circle cx="67.69" cy="32.91" r=".73" transform="rotate(-15 -34.749 97.543)" fill="url(#linear-gradient-129)"/><circle cx="66.81" cy="29.62" r=".48" transform="rotate(-15 -35.597 94.302)" fill="url(#linear-gradient-130)"/><circle cx="66.03" cy="26.72" r=".33" transform="rotate(-15 -36.372 91.38)" fill="url(#linear-gradient-131)"/><circle cx="96.13" cy="139.08" r=".73" transform="rotate(-15 -6.27 203.758)" fill="url(#linear-gradient-132)"/><circle cx="97.01" cy="142.36" r=".48" transform="matrix(.97 -.26 .26 .97 -53.76 5.65)" fill="url(#linear-gradient-133)"/><circle cx="97.79" cy="145.26" r=".33" transform="rotate(-15 -4.61 209.926)" fill="url(#linear-gradient-134)"/><circle cx="54.43" cy="38.4" r=".73" transform="rotate(-30 -1.025 63.985)" fill="url(#linear-gradient-135)"/><circle cx="52.73" cy="35.45" r=".48" transform="rotate(-30 -2.737 61.047)" fill="url(#linear-gradient-136)"/><circle cx="51.23" cy="32.85" r=".33" transform="rotate(-30 -4.24 58.444)" fill="url(#linear-gradient-137)"/><circle cx="109.39" cy="133.59" r=".73" transform="rotate(-30 53.912 159.166)" fill="url(#linear-gradient-138)"/><circle cx="111.09" cy="136.53" r=".48" transform="matrix(.87 -.5 .5 .87 -73.61 49.54)" fill="url(#linear-gradient-139)"/><circle cx="112.59" cy="139.13" r=".33" transform="rotate(-30 57.108 164.702)" fill="url(#linear-gradient-140)"/><circle cx="43.05" cy="47.13" r=".73" transform="rotate(-45 3.6 59.389)" fill="url(#linear-gradient-141)"/><circle cx="40.65" cy="44.73" r=".48" transform="rotate(-45 1.186 56.989)" fill="url(#linear-gradient-142)"/><circle cx="38.52" cy="42.61" r=".33" transform="rotate(-44.99 -.929 54.878)" fill="url(#linear-gradient-143)"/><circle cx="120.77" cy="124.85" r=".73" transform="rotate(-45 81.316 137.118)" fill="url(#linear-gradient-144)"/><circle cx="123.18" cy="127.26" r=".48" transform="rotate(-45 83.73 139.518)" fill="url(#linear-gradient-145)"/><circle cx="125.3" cy="129.38" r=".33" transform="rotate(-45 85.85 141.64)" fill="url(#linear-gradient-146)"/><circle cx="34.31" cy="58.51" r=".73" transform="rotate(-60 3.155 63.875)" fill="url(#linear-gradient-147)"/><circle cx="31.37" cy="56.81" r=".48" transform="rotate(-60 .21 62.175)" fill="url(#linear-gradient-148)"/><circle cx="28.77" cy="55.31" r=".33" transform="rotate(-60 -2.387 60.675)" fill="url(#linear-gradient-149)"/><circle cx="129.51" cy="113.47" r=".73" transform="rotate(-60 98.349 118.835)" fill="url(#linear-gradient-150)"/><circle cx="132.45" cy="115.17" r=".48" transform="rotate(-60 101.293 120.535)" fill="url(#linear-gradient-151)"/><circle cx="135.05" cy="116.67" r=".33" transform="rotate(-60 103.891 122.035)" fill="url(#linear-gradient-152)"/><circle cx="28.82" cy="71.77" r=".73" transform="rotate(-75 2.867 72.488)" fill="url(#linear-gradient-153)"/><circle cx="25.54" cy="70.89" r=".48" transform="rotate(-75 -.415 71.913)" fill="url(#linear-gradient-154)"/><circle cx="22.64" cy="70.11" r=".33" transform="rotate(-75 -3.306 71.134)" fill="url(#linear-gradient-155)"/><circle cx="135" cy="100.22" r=".73" transform="rotate(-75 109.046 101.243)" fill="url(#linear-gradient-156)"/><circle cx="138.28" cy="101.1" r=".48" transform="rotate(-75 112.319 102.118)" fill="url(#linear-gradient-157)"/><circle cx="141.18" cy="101.87" r=".33" transform="rotate(-75 115.228 102.901)" fill="url(#linear-gradient-158)"/><circle cx="6.73" cy="61.69" r=".73" fill="url(#linear-gradient-159)"/><circle cx="3.33" cy="61.69" r=".48" fill="url(#linear-gradient-160)"/><circle cx=".33" cy="61.69" r=".33" fill="url(#linear-gradient-161)"/><circle cx="116.65" cy="61.69" r=".73" fill="url(#linear-gradient-162)"/><circle cx="120.04" cy="61.69" r=".48" fill="url(#linear-gradient-163)"/><circle cx="28.82" cy="100.22" r=".73" transform="rotate(-15 -73.268 164.12)" fill="url(#linear-gradient-164)"/><circle cx="25.54" cy="101.1" r=".48" transform="rotate(-15 -76.885 165.792)" fill="url(#linear-gradient-165)"/><circle cx="22.64" cy="101.87" r=".33" transform="rotate(-15 -79.764 166.534)" fill="url(#linear-gradient-166)"/><circle cx="135" cy="71.77" r=".73" transform="matrix(.97 -.26 .26 .97 -34.2 13.08)" fill="url(#linear-gradient-167)"/><circle cx="138.28" cy="70.89" r=".48" transform="rotate(-15 35.898 135.551)" fill="url(#linear-gradient-168)"/><circle cx="141.18" cy="70.11" r=".33" transform="rotate(-15 38.745 134.767)" fill="url(#linear-gradient-169)"/><circle cx="34.31" cy="113.47" r=".73" transform="rotate(-30 -21.158 139.05)" fill="url(#linear-gradient-170)"/><circle cx="31.37" cy="115.17" r=".48" transform="rotate(-30 -24.097 140.763)" fill="url(#linear-gradient-171)"/><circle cx="28.77" cy="116.67" r=".33" transform="rotate(-30 -26.695 142.247)" fill="url(#linear-gradient-172)"/><circle cx="129.51" cy="58.51" r=".73" transform="rotate(-30 74.045 84.1)" fill="url(#linear-gradient-173)"/><circle cx="132.45" cy="56.81" r=".48" transform="rotate(-30 76.98 82.407)" fill="url(#linear-gradient-174)"/><circle cx="135.05" cy="55.31" r=".33" transform="rotate(-30 79.563 80.899)" fill="url(#linear-gradient-175)"/><circle cx="43.05" cy="124.85" r=".73" transform="rotate(-45 3.593 137.112)" fill="url(#linear-gradient-176)"/><circle cx="40.65" cy="127.26" r=".48" transform="rotate(-45 1.198 139.514)" fill="url(#linear-gradient-177)"/><circle cx="38.52" cy="129.38" r=".33" transform="rotate(-45.01 -.929 141.62)" fill="url(#linear-gradient-178)"/><circle cx="120.77" cy="47.13" r=".73" transform="rotate(-45 81.31 59.39)" fill="url(#linear-gradient-179)"/><circle cx="123.18" cy="44.73" r=".48" transform="rotate(-45 83.734 56.986)" fill="url(#linear-gradient-180)"/><circle cx="125.3" cy="42.61" r=".33" transform="rotate(-45 85.845 54.862)" fill="url(#linear-gradient-181)"/><circle cx="54.43" cy="133.59" r=".73" transform="rotate(-60 23.272 138.952)" fill="url(#linear-gradient-182)"/><circle cx="52.73" cy="136.53" r=".48" transform="rotate(-60 21.563 141.891)" fill="url(#linear-gradient-183)"/><circle cx="51.23" cy="139.13" r=".33" transform="rotate(-60 20.072 144.495)" fill="url(#linear-gradient-184)"/><circle cx="109.39" cy="38.4" r=".73" transform="rotate(-60 78.223 43.753)" fill="url(#linear-gradient-185)"/><circle cx="111.09" cy="35.45" r=".48" transform="rotate(-60 79.932 40.814)" fill="url(#linear-gradient-186)"/><circle cx="112.59" cy="32.85" r=".33" transform="rotate(-60 81.432 38.216)" fill="url(#linear-gradient-187)"/><circle cx="67.69" cy="139.08" r=".73" transform="rotate(-75 41.73 140.103)" fill="url(#linear-gradient-188)"/><circle cx="66.81" cy="142.36" r=".48" transform="rotate(-75 40.856 143.388)" fill="url(#linear-gradient-189)"/><circle cx="66.03" cy="145.26" r=".33" transform="rotate(-75 40.083 146.283)" fill="url(#linear-gradient-190)"/><circle cx="96.13" cy="32.91" r=".73" transform="rotate(-75 70.186 33.926)" fill="url(#linear-gradient-191)"/><circle cx="97.01" cy="29.62" r=".48" transform="rotate(-75 70.767 30.523)" fill="url(#linear-gradient-192)"/><circle cx="97.79" cy="26.72" r=".33" transform="rotate(-75 71.84 27.751)" fill="url(#linear-gradient-193)"/><path class="cls-194" d="M108.72 83.31h-5.4v-.22a21.6 21.6 0 00-18.51-18.48h-.22v-5.4h.28A27.07 27.07 0 01108.69 83zm-5-.5h4.4a26.57 26.57 0 00-23.03-23.06v4.4a22.1 22.1 0 0118.66 18.66z" transform="translate(-20.22 -24.31)"/><path class="cls-195" d="M60.5 83.31h-5.4v-.28A27.07 27.07 0 0179 59.22h.28v5.4h-.22a21.6 21.6 0 00-18.53 18.47zm-4.84-.5h4.4a22.1 22.1 0 0118.67-18.66v-4.4a26.57 26.57 0 00-23.07 23.06zM84.59 112.8v-5.4h.22a21.6 21.6 0 0018.48-18.48v-.22h5.4v.28a27.07 27.07 0 01-23.81 23.81zm.5-5v4.4a26.57 26.57 0 0023.06-23.06h-4.4a22.1 22.1 0 01-18.66 18.7z" transform="translate(-20.22 -24.31)"/><path class="cls-194" d="M79.23 112.8h-.28A27.07 27.07 0 0155.14 89v-.28h5.4v.22A21.6 21.6 0 0079 107.37h.22v5.4zM55.66 89.18a26.57 26.57 0 0023.06 23.06v-4.4a22.1 22.1 0 01-18.65-18.66h-4.4z" transform="translate(-20.22 -24.31)"/><path class="cls-196" d="M99 73a21.3 21.3 0 00-14.19-8.27h-.33V61h.75v3a22 22 0 0114.36 8.51z" transform="translate(-20.22 -24.31)"/><path class="cls-197" d="M60.28 83.43H55V83a27.06 27.06 0 014.32-11.95l.68.44a26.31 26.31 0 00-4.15 11.2h4.48v.75zM70.24 62.4l-.33-.67a26.82 26.82 0 019-2.64h.42v3h-.73v-2.2a26.08 26.08 0 00-8.36 2.51zM102 95.39l-.68-.32a21.32 21.32 0 001.82-6.2v-.33h3.27v.76h-2.62a22.09 22.09 0 01-1.79 6.09zM85.22 110.5h-.75v-3.21h.33a21.35 21.35 0 0011-4.93l.49.57a22.11 22.11 0 01-11.09 5.05v2.55z" transform="translate(-20.22 -24.31)"/><path class="cls-196" d="M79.35 112.94h-.42a26.79 26.79 0 01-9.85-3.06l.36-.66a26.06 26.06 0 009.16 2.93v-4.48h.75v5.32zM62.25 104.58A26.8 26.8 0 0155 89v-.42h5.32v.72h-4.51a26 26 0 007 14.77z" transform="translate(-20.22 -24.31)"/><path class="cls-195" d="M61.31 59.25l.38-11.39.37 11.39h-.75zM61.69 75.52l-.38-11.4h.75l-.37 11.4zM64.12 61.31l11.4.38-11.4.37v-.75zM47.86 61.69l11.39-.38v.75l-11.39-.37z"/><path class="cls-194" d="M48.57 72.24a1.16 1.16 0 01.59.16l3 1.75a1.2 1.2 0 01.51 1.45 30.93 30.93 0 00-1.29 4.79 1.2 1.2 0 01-1.17 1h-3.46a1.16 1.16 0 01-.9-.42 1.21 1.21 0 01-.27-1 36.65 36.65 0 011.87-7 1.21 1.21 0 011.12-.78zm0-.5a1.7 1.7 0 00-1.57 1.1 37.05 37.05 0 00-1.89 7.08 1.69 1.69 0 001.66 2h3.49a1.7 1.7 0 001.66-1.42 30.32 30.32 0 011.27-4.71 1.7 1.7 0 00-.73-2.05L49.4 72a1.67 1.67 0 00-.84-.23zM76.11 49.64a1.19 1.19 0 011.2 1.18v3.49a1.2 1.2 0 01-1 1.17 30.94 30.94 0 00-4.79 1.29 1.27 1.27 0 01-.43.07 1.17 1.17 0 01-1-.58l-1.75-3a1.18 1.18 0 01-.09-1 1.2 1.2 0 01.71-.72 36.66 36.66 0 017-1.87h.2zm0-.5h-.28a37.05 37.05 0 00-7.07 1.89 1.69 1.69 0 00-.88 2.43l1.75 3a1.67 1.67 0 001.46.83 1.77 1.77 0 00.6-.1 30.32 30.32 0 014.7-1.19 1.7 1.7 0 001.42-1.66v-3.51a1.69 1.69 0 00-1.7-1.68zM59.32 57.26a1.17 1.17 0 011 .59l1.75 3a1.2 1.2 0 01-.29 1.51 31.23 31.23 0 00-3.5 3.5 1.23 1.23 0 01-.94.44 1.15 1.15 0 01-.58-.15l-3-1.75a1.18 1.18 0 01-.57-.81 1.2 1.2 0 01.26-1 37.11 37.11 0 015.1-5.1 1.19 1.19 0 01.77-.28zm0-.5a1.7 1.7 0 00-1.08.39 37.52 37.52 0 00-5.17 5.17 1.69 1.69 0 00.45 2.54l3 1.75a1.65 1.65 0 00.83.22 1.73 1.73 0 001.32-.62 30.61 30.61 0 013.45-3.45 1.7 1.7 0 00.4-2.14l-1.75-3a1.68 1.68 0 00-1.46-.84z" transform="translate(-20.22 -24.31)"/><path class="cls-195" d="M57.38 105.65a1.23 1.23 0 01.94.44 31.22 31.22 0 003.5 3.5 1.2 1.2 0 01.29 1.51l-1.75 3a1.17 1.17 0 01-1 .59 1.19 1.19 0 01-.77-.28 37.11 37.11 0 01-5.1-5.1 1.2 1.2 0 01-.26-1 1.18 1.18 0 01.57-.81l3-1.75a1.14 1.14 0 01.58-.16zm0-.5a1.65 1.65 0 00-.83.22l-3 1.75a1.69 1.69 0 00-.45 2.54 37.52 37.52 0 005.17 5.17 1.7 1.7 0 001.08.39 1.68 1.68 0 001.46-.84l1.75-3a1.7 1.7 0 00-.4-2.14 30.62 30.62 0 01-3.45-3.45 1.73 1.73 0 00-1.32-.62zM71.08 115.14a1.27 1.27 0 01.43.07 30.94 30.94 0 004.79 1.29 1.2 1.2 0 011 1.17v3.49a1.19 1.19 0 01-1.2 1.18h-.2a36.65 36.65 0 01-7-1.87 1.2 1.2 0 01-.71-.72 1.18 1.18 0 01.09-1l1.75-3a1.17 1.17 0 011-.58zm0-.5a1.67 1.67 0 00-1.46.83l-1.75 3a1.69 1.69 0 00.88 2.43 37.05 37.05 0 007.08 1.89h.28a1.69 1.69 0 001.7-1.68v-3.49a1.7 1.7 0 00-1.42-1.62 30.31 30.31 0 01-4.71-1.27 1.77 1.77 0 00-.6-.1zM50.23 90.59a1.2 1.2 0 011.17 1 30.92 30.92 0 001.29 4.79 1.2 1.2 0 01-.51 1.45l-3 1.75a1.16 1.16 0 01-.59.16 1.21 1.21 0 01-1.14-.74 36.65 36.65 0 01-1.87-7 1.21 1.21 0 01.27-1 1.16 1.16 0 01.9-.42h3.49zm0-.5h-3.48a1.69 1.69 0 00-1.66 2A37.06 37.06 0 0047 99.15a1.7 1.7 0 001.59 1.1 1.67 1.67 0 00.81-.25l3-1.75a1.7 1.7 0 00.73-2.05 30.33 30.33 0 01-1.27-4.71 1.7 1.7 0 00-1.66-1.41z" transform="translate(-20.22 -24.31)"/></svg>