<svg preserveAspectRatio="none" id="Layer_1" data-name="Layer 1" xmlns="http://www.w3.org/2000/svg" viewBox="0 0 104.2 104.21"><defs><style>.cls-1{fill:#095561;}.cls-2{fill:#ff8a29;}.cls-3{fill:#12aac2;}.cls-4{fill:#07081a;}.cls-5{fill:#d7f1f5;}.cls-6{fill:#cdedf2;}.cls-7{fill:#c1e9ef;}.cls-8{fill:#b1e4eb;}.cls-9{fill:#9ddde6;}.cls-10{fill:#85d4e0;}.cls-11{fill:#67c9d8;}.cls-12{fill:#41bbce;}.cls-13{fill:#0e8092;}</style></defs><title>circle69</title><path class="cls-1" d="M225,269.31a44.21,44.21,0,0,1-23-6.45l5.73-9.39A33.3,33.3,0,0,0,254,208.58l9.56-5.44A44.3,44.3,0,0,1,225,269.31Z" transform="translate(-172.9 -172.91)"/><path class="cls-1" d="M186.59,247.08a44.3,44.3,0,0,1,60.7-60.35l-5.54,9.5a33.3,33.3,0,0,0-45.62,45.36Z" transform="translate(-172.9 -172.91)"/><path class="cls-2" d="M229.8,221.68H242a17.88,17.88,0,0,0-13.66-14.06v12.64A5.91,5.91,0,0,1,229.8,221.68Z" transform="translate(-172.9 -172.91)"/><path class="cls-2" d="M220.2,228.45H207a17.87,17.87,0,0,0,14.67,14.24V229.87A5.91,5.91,0,0,1,220.2,228.45Z" transform="translate(-172.9 -172.91)"/><path class="cls-3" d="M226.38,219.36V200.2a1.38,1.38,0,0,0-1.38-1.38h0a1.38,1.38,0,0,0-1.38,1.38v19.16A5.7,5.7,0,0,1,226.38,219.36Z" transform="translate(-172.9 -172.91)"/><path class="cls-3" d="M219.29,223.68H200.13a1.38,1.38,0,0,0-1.38,1.38h0a1.38,1.38,0,0,0,1.38,1.38h19.16A5.7,5.7,0,0,1,219.29,223.68Z" transform="translate(-172.9 -172.91)"/><path class="cls-3" d="M223.62,230.77v19.16a1.38,1.38,0,0,0,1.38,1.38h0a1.38,1.38,0,0,0,1.38-1.38V230.77A5.67,5.67,0,0,1,223.62,230.77Z" transform="translate(-172.9 -172.91)"/><path class="cls-3" d="M230.71,226.45h19.16a1.38,1.38,0,0,0,1.38-1.38h0a1.38,1.38,0,0,0-1.38-1.38H230.71A5.7,5.7,0,0,1,230.71,226.45Z" transform="translate(-172.9 -172.91)"/><path class="cls-3" d="M232.81,203.45h-0.08a22.84,22.84,0,0,0-4.38-1.09,0.25,0.25,0,0,1-.21-0.28,0.25,0.25,0,0,1,.28-0.21,23.33,23.33,0,0,1,4.47,1.11A0.25,0.25,0,0,1,232.81,203.45Z" transform="translate(-172.9 -172.91)"/><path class="cls-3" d="M217.33,203.4a0.25,0.25,0,0,1-.08-0.49,23.39,23.39,0,0,1,4.34-1.07,0.25,0.25,0,0,1,.07.5,22.85,22.85,0,0,0-4.25,1h-0.08Z" transform="translate(-172.9 -172.91)"/><path class="cls-3" d="M207.43,210.16a0.25,0.25,0,0,1-.19-0.41,23.36,23.36,0,0,1,3.23-3.09,0.25,0.25,0,0,1,.31.39,22.93,22.93,0,0,0-3.16,3A0.25,0.25,0,0,1,207.43,210.16Z" transform="translate(-172.9 -172.91)"/><path class="cls-3" d="M202.24,221h0a0.25,0.25,0,0,1-.2-0.29,23.39,23.39,0,0,1,1.25-4.29,0.25,0.25,0,1,1,.46.18,22.89,22.89,0,0,0-1.22,4.2A0.25,0.25,0,0,1,202.24,221Z" transform="translate(-172.9 -172.91)"/><path class="cls-3" d="M203.15,232.92a0.25,0.25,0,0,1-.24-0.17,23.44,23.44,0,0,1-1.07-4.34,0.25,0.25,0,0,1,.5-0.07,22.88,22.88,0,0,0,1,4.25,0.25,0.25,0,0,1-.15.32h-0.08Z" transform="translate(-172.9 -172.91)"/><path class="cls-3" d="M209.91,242.82a0.25,0.25,0,0,1-.16-0.06,23.47,23.47,0,0,1-3.09-3.22,0.25,0.25,0,0,1,.39-0.31,23,23,0,0,0,3,3.16A0.25,0.25,0,0,1,209.91,242.82Z" transform="translate(-172.9 -172.91)"/><path class="cls-3" d="M220.72,248h0a23.5,23.5,0,0,1-4.29-1.25,0.25,0.25,0,1,1,.18-0.46,22.86,22.86,0,0,0,4.2,1.22A0.25,0.25,0,0,1,220.72,248Z" transform="translate(-172.9 -172.91)"/><path class="cls-3" d="M228.38,248.16a0.25,0.25,0,0,1,0-.5,22.87,22.87,0,0,0,4.25-1,0.26,0.26,0,0,1,.32.15,0.25,0.25,0,0,1-.15.32,23.38,23.38,0,0,1-4.34,1.07h0Z" transform="translate(-172.9 -172.91)"/><path class="cls-3" d="M239.38,243.4a0.25,0.25,0,0,1-.16-0.45,22.85,22.85,0,0,0,3.16-3,0.25,0.25,0,1,1,.38.33,23.39,23.39,0,0,1-3.23,3.09A0.25,0.25,0,0,1,239.38,243.4Z" transform="translate(-172.9 -172.91)"/><path class="cls-3" d="M246.53,233.77l-0.09,0a0.25,0.25,0,0,1-.14-0.33,22.77,22.77,0,0,0,1.22-4.2,0.25,0.25,0,0,1,.49.09,23.39,23.39,0,0,1-1.25,4.29A0.25,0.25,0,0,1,246.53,233.77Z" transform="translate(-172.9 -172.91)"/><path class="cls-3" d="M247.9,221.87a0.25,0.25,0,0,1-.25-0.21,22.81,22.81,0,0,0-1-4.25,0.25,0.25,0,0,1,.47-0.17,23.31,23.31,0,0,1,1.06,4.34,0.25,0.25,0,0,1-.21.28h0Z" transform="translate(-172.9 -172.91)"/><path class="cls-3" d="M243.15,210.87a0.25,0.25,0,0,1-.2-0.1,22.84,22.84,0,0,0-3-3.16,0.25,0.25,0,1,1,.33-0.38,23.4,23.4,0,0,1,3.09,3.23A0.25,0.25,0,0,1,243.15,210.87Z" transform="translate(-172.9 -172.91)"/><circle class="cls-2" cx="52.1" cy="52.11" r="2.98"/><circle class="cls-4" cx="41.55" cy="62.66" r="1.23"/><circle class="cls-4" cx="45.24" cy="58.97" r="1.23"/><circle class="cls-4" cx="62.65" cy="41.56" r="1.23"/><circle class="cls-4" cx="58.9" cy="45.31" r="1.23"/><path class="cls-2" d="M220.62,221.18l-11.42-5.33c-0.21.35-.41,0.7-0.59,1.06l11.94,4.35Z" transform="translate(-172.9 -172.91)"/><path class="cls-2" d="M220.75,221l-10.18-7.13q-0.37.46-.71,0.95l10.83,6.25Z" transform="translate(-172.9 -172.91)"/><path class="cls-2" d="M207.25,220.4c-0.11.42-.22,0.85-0.3,1.28H220.2l0.12-.14Z" transform="translate(-172.9 -172.91)"/><path class="cls-2" d="M221.62,220.27V207.44c-0.4.07-.8,0.15-1.2,0.24l1.11,12.66Z" transform="translate(-172.9 -172.91)"/><path class="cls-2" d="M220.48,221.35L208.08,218c-0.16.38-.32,0.77-0.45,1.16l12.77,2.25Z" transform="translate(-172.9 -172.91)"/><path class="cls-2" d="M221.25,220.58L217,208.87q-0.54.25-1.06,0.53l5.24,11.23Z" transform="translate(-172.9 -172.91)"/><path class="cls-2" d="M221.43,220.43L219.24,208c-0.39.12-.77,0.25-1.14,0.4l3.24,12.1Z" transform="translate(-172.9 -172.91)"/><path class="cls-3" d="M213,211.38c-0.3.25-.59,0.51-0.87,0.78s-0.55.55-.82,0.84l9.48,8,0.07-.07,0.07-.06Z" transform="translate(-172.9 -172.91)"/><path class="cls-2" d="M221.09,220.71L214.92,210c-0.33.21-.66,0.43-1,0.66l7.08,10.1Z" transform="translate(-172.9 -172.91)"/><path class="cls-2" d="M229.35,228.93l11.1,5.18q0.3-.5.58-1l-11.61-4.23Z" transform="translate(-172.9 -172.91)"/><path class="cls-2" d="M229.23,229.08l9.9,6.93c0.24-.3.47-0.61,0.69-0.92L229.29,229Z" transform="translate(-172.9 -172.91)"/><path class="cls-2" d="M242.35,229.7c0.11-.41.21-0.83,0.29-1.25H229.76l-0.12.14Z" transform="translate(-172.9 -172.91)"/><path class="cls-2" d="M228.38,229.83v12.47c0.39-.06.78-0.15,1.16-0.24l-1.08-12.3Z" transform="translate(-172.9 -172.91)"/><path class="cls-2" d="M229.49,228.77L241.54,232c0.16-.37.31-0.75,0.44-1.13l-12.42-2.19Z" transform="translate(-172.9 -172.91)"/><path class="cls-2" d="M228.74,229.52l4.14,11.38q0.52-.24,1-0.52l-5.09-10.92Z" transform="translate(-172.9 -172.91)"/><path class="cls-2" d="M228.57,229.67l2.13,12.07c0.38-.12.75-0.25,1.11-0.39l-3.15-11.76Z" transform="translate(-172.9 -172.91)"/><path class="cls-3" d="M236.74,238.46c0.29-.24.57-0.5,0.84-0.76s0.54-.54.8-0.82l-9.21-7.73-0.06.07-0.07.06Z" transform="translate(-172.9 -172.91)"/><path class="cls-2" d="M228.89,229.4l6,10.4c0.32-.2.64-0.42,0.94-0.64L229,229.34Z" transform="translate(-172.9 -172.91)"/><rect class="cls-5" x="49.97" y="9.85" width="4.26" height="7.34"/><rect class="cls-6" x="216.17" y="183.35" width="4.26" height="7.34" transform="matrix(0.98, -0.17, 0.17, 0.98, -202.06, -132.15)"/><rect class="cls-6" x="209.67" y="185.09" width="4.26" height="7.34" transform="translate(-224.68 -89.09) rotate(-20)"/><rect class="cls-7" x="203.58" y="187.93" width="4.26" height="7.34" transform="translate(-241.14 -44.37) rotate(-30)"/><rect class="cls-8" x="198.07" y="191.79" width="4.26" height="7.34" transform="translate(-251.7 1.5) rotate(-40)"/><rect class="cls-9" x="193.31" y="196.54" width="4.26" height="7.34" transform="translate(-256.46 48.34) rotate(-50)"/><rect class="cls-10" x="189.46" y="202.05" width="4.26" height="7.34" transform="translate(-255.28 95.84) rotate(-59.99)"/><rect class="cls-11" x="186.61" y="208.15" width="4.26" height="7.34" transform="translate(-247.75 143.84) rotate(-70)"/><rect class="cls-12" x="184.87" y="214.64" width="4.26" height="7.34" transform="matrix(0.17, -0.98, 0.98, 0.17, -233.37, 191.66)"/><rect class="cls-3" x="184.29" y="221.34" width="4.26" height="7.34" transform="translate(-211.5 238.53) rotate(-90)"/><rect class="cls-5" x="222.87" y="259.93" width="4.26" height="7.34" transform="translate(277.1 354.29) rotate(180)"/><rect class="cls-6" x="229.57" y="259.34" width="4.26" height="7.34" transform="translate(332.67 308.87) rotate(170)"/><rect class="cls-6" x="236.06" y="257.6" width="4.26" height="7.34" transform="translate(378.5 252.39) rotate(160)"/><rect class="cls-7" x="242.16" y="254.76" width="4.26" height="7.34" transform="translate(412.16 187.21) rotate(150.01)"/><rect class="cls-8" x="247.67" y="250.9" width="4.26" height="7.34" transform="translate(431.89 116.12) rotate(140)"/><rect class="cls-9" x="252.42" y="246.14" width="4.26" height="7.34" transform="translate(436.65 42.48) rotate(130)"/><rect class="cls-10" x="256.28" y="240.63" width="4.26" height="7.34" transform="translate(426.29 -30.27) rotate(119.99)"/><rect class="cls-11" x="259.12" y="234.54" width="4.26" height="7.34" transform="translate(401.53 -98.77) rotate(109.99)"/><rect class="cls-12" x="260.87" y="228.04" width="4.26" height="7.34" transform="translate(363.97 -159.95) rotate(100)"/><rect class="cls-3" x="261.45" y="221.34" width="4.26" height="7.34" transform="translate(315.7 -211.47) rotate(90)"/><path class="cls-3" d="M173.39,225l0.08-3.48,0.06-1.83,0.28-2.15,0.32-2.45c0.09-.87.39-1.74,0.59-2.67l0.71-2.9,1.06-3,0.55-1.57c0.21-.52.47-1,0.7-1.55l1.51-3.19a53.08,53.08,0,0,1,20.93-20.94l3.19-1.51c0.52-.24,1-0.5,1.55-0.7l1.57-.55,3-1.06,2.9-.71c0.93-.2,1.81-0.5,2.67-0.59l2.45-.32,2.15-.28,1.84-.06,3.48-.08-3.47.27-1.83.14-2.12.37-2.41.42c-0.85.13-1.71,0.44-2.63,0.66l-2.84.78-2.94,1.12-1.53.58c-0.51.22-1,.49-1.51,0.74L200.6,180A54.46,54.46,0,0,0,180,200.6l-1.53,3.11c-0.25.51-.52,1-0.74,1.51l-0.58,1.53L176,209.7l-0.78,2.84c-0.23.92-.53,1.78-0.66,2.63l-0.42,2.41-0.37,2.12-0.14,1.83Z" transform="translate(-172.9 -172.91)"/><path class="cls-2" d="M276.61,225l-0.08,3.48c0,0.55,0,1.17-.06,1.83l-0.28,2.15-0.32,2.45c-0.09.87-.39,1.74-0.59,2.67l-0.71,2.9-1.06,3L273,245.08c-0.21.52-.47,1-0.7,1.55l-1.51,3.19a53.08,53.08,0,0,1-20.93,20.94l-3.19,1.51c-0.52.24-1,.5-1.55,0.7l-1.57.55-3,1.06-2.9.71c-0.93.2-1.81,0.5-2.67,0.59l-2.45.32-2.15.28-1.84.06-3.48.08,3.47-.27,1.82-.14,2.12-.37,2.41-.42c0.85-.13,1.71-0.44,2.63-0.66l2.84-.78,2.94-1.12,1.53-.59c0.51-.22,1-0.49,1.51-0.74L249.4,270A54.45,54.45,0,0,0,270,249.41l1.53-3.11c0.25-.51.52-1,0.74-1.51l0.58-1.53L274,240.3l0.78-2.84c0.23-.91.53-1.78,0.66-2.63l0.42-2.41,0.37-2.12,0.14-1.83Z" transform="translate(-172.9 -172.91)"/><path class="cls-2" d="M225,173.89a0.5,0.5,0,0,1-.35-0.14,0.48,0.48,0,0,1-.15-0.36,0.47,0.47,0,0,1,.15-0.35,0.51,0.51,0,0,1,.7,0,0.47,0.47,0,0,1,.15.35,0.48,0.48,0,0,1-.15.36A0.5,0.5,0,0,1,225,173.89Z" transform="translate(-172.9 -172.91)"/><path class="cls-2" d="M249.22,180a0.49,0.49,0,0,1-.21-0.67h0a0.5,0.5,0,0,1,.68-0.21h0a0.5,0.5,0,0,1,.2.68h0a0.49,0.49,0,0,1-.44.26h0A0.47,0.47,0,0,1,249.22,180Zm-4.56-2.17a0.49,0.49,0,0,1-.26-0.65h0a0.49,0.49,0,0,1,.65-0.27h0a0.51,0.51,0,0,1,.27.66h0a0.5,0.5,0,0,1-.46.3h0A0.48,0.48,0,0,1,244.66,177.82Zm-4.74-1.7h0a0.51,0.51,0,0,1-.33-0.63h0a0.5,0.5,0,0,1,.62-0.33h0a0.49,0.49,0,0,1,.33.62h0a0.49,0.49,0,0,1-.47.36h0ZM235,174.89a0.5,0.5,0,0,1-.39-0.59h0a0.49,0.49,0,0,1,.59-0.39h0a0.5,0.5,0,0,1,.39.59h0a0.51,0.51,0,0,1-.49.4H235Zm-5-.74h0a0.5,0.5,0,0,1-.45-0.55h0a0.51,0.51,0,0,1,.55-0.45h0a0.51,0.51,0,0,1,.45.55h0a0.51,0.51,0,0,1-.5.45h0Z" transform="translate(-172.9 -172.91)"/><path class="cls-2" d="M253.81,182.68a0.52,0.52,0,0,1-.35-0.14,0.51,0.51,0,0,1-.15-0.36,0.47,0.47,0,0,1,.15-0.35,0.49,0.49,0,0,1,.85.35,0.5,0.5,0,0,1-.14.35A0.51,0.51,0,0,1,253.81,182.68Z" transform="translate(-172.9 -172.91)"/><path class="cls-2" d="M267.89,196.8a0.5,0.5,0,0,1-.35-0.14,0.51,0.51,0,0,1-.15-0.36,0.5,0.5,0,0,1,.14-0.35,0.52,0.52,0,0,1,.71,0,0.51,0.51,0,0,1,.15.36,0.5,0.5,0,0,1-.14.35A0.51,0.51,0,0,1,267.89,196.8Z" transform="translate(-172.9 -172.91)"/><path class="cls-2" d="M275.86,220h0a0.5,0.5,0,0,1,.45-0.54h0a0.5,0.5,0,0,1,.55.44h0a0.51,0.51,0,0,1-.45.55h-0.05A0.5,0.5,0,0,1,275.86,220Zm-0.73-5a0.48,0.48,0,0,1,.39-0.58h0a0.49,0.49,0,0,1,.59.39h0a0.51,0.51,0,0,1-.39.59h-0.1A0.51,0.51,0,0,1,275.13,215Zm-1.22-4.87a0.5,0.5,0,0,1,.33-0.62h0a0.51,0.51,0,0,1,.63.33h0a0.5,0.5,0,0,1-.34.63h0l-0.14,0h0A0.5,0.5,0,0,1,273.91,210.14Zm-1.69-4.72h0a0.5,0.5,0,0,1,.26-0.66h0a0.52,0.52,0,0,1,.66.27h0a0.51,0.51,0,0,1-.27.66h0a0.65,0.65,0,0,1-.19,0h0A0.5,0.5,0,0,1,272.22,205.41Zm-2.16-4.54h0a0.5,0.5,0,0,1,.21-0.68h0a0.49,0.49,0,0,1,.67.21h0a0.51,0.51,0,0,1-.21.68h0a0.5,0.5,0,0,1-.24.06h0A0.5,0.5,0,0,1,270.06,200.88Z" transform="translate(-172.9 -172.91)"/><path class="cls-2" d="M276.61,225.51a0.51,0.51,0,0,1-.36-0.15,0.51,0.51,0,0,1,0-.7,0.52,0.52,0,0,1,.71,0,0.54,0.54,0,0,1,.14.36,0.5,0.5,0,0,1-.14.35A0.47,0.47,0,0,1,276.61,225.51Z" transform="translate(-172.9 -172.91)"/><path class="cls-2" d="M244.35,205.92a0.25,0.25,0,0,1-.18-0.43l16.76-16.76a0.25,0.25,0,0,1,.35.35l-16.76,16.76A0.25,0.25,0,0,1,244.35,205.92Z" transform="translate(-172.9 -172.91)"/><path class="cls-2" d="M253.64,201.48a0.25,0.25,0,0,1-.18-0.07l-4.78-4.78a0.25,0.25,0,0,1,.35-0.35l4.78,4.78A0.25,0.25,0,0,1,253.64,201.48Z" transform="translate(-172.9 -172.91)"/><path class="cls-2" d="M257.33,200.39a0.25,0.25,0,0,1-.18-0.07l-7.41-7.41a0.25,0.25,0,0,1,.35-0.35l7.41,7.41A0.25,0.25,0,0,1,257.33,200.39Z" transform="translate(-172.9 -172.91)"/><path class="cls-2" d="M264.5,193.47a0.5,0.5,0,0,1-.43-0.25,19.64,19.64,0,0,0-7.27-7.27,0.5,0.5,0,0,1,.5-0.87,20.63,20.63,0,0,1,7.64,7.64A0.5,0.5,0,0,1,264.5,193.47Z" transform="translate(-172.9 -172.91)"/><circle class="cls-3" cx="71.39" cy="32.76" r="1.2"/><path class="cls-3" d="M225,277.12a0.51,0.51,0,0,1-.35-0.15,0.47,0.47,0,0,1-.15-0.35,0.48,0.48,0,0,1,.15-0.36,0.52,0.52,0,0,1,.7,0,0.48,0.48,0,0,1,.15.36,0.47,0.47,0,0,1-.15.35A0.51,0.51,0,0,1,225,277.12Z" transform="translate(-172.9 -172.91)"/><path class="cls-3" d="M219.86,276.86h0a0.5,0.5,0,0,1-.45-0.54h0a0.5,0.5,0,0,1,.55-0.45h0a0.51,0.51,0,0,1,.45.55h0a0.52,0.52,0,0,1-.5.45h0Zm-5.08-.75a0.5,0.5,0,0,1-.4-0.59h0a0.5,0.5,0,0,1,.59-0.39h0a0.49,0.49,0,0,1,.39.59h0a0.49,0.49,0,0,1-.49.4h-0.09Zm-5-1.25h0a0.5,0.5,0,0,1-.34-0.63h0a0.51,0.51,0,0,1,.63-0.33h0a0.51,0.51,0,0,1,.33.63h0a0.5,0.5,0,0,1-.48.35h0Zm-4.84-1.74h0a0.5,0.5,0,0,1-.27-0.66h0a0.52,0.52,0,0,1,.66-0.27h0a0.5,0.5,0,0,1,.26.66h0a0.5,0.5,0,0,1-.46.31h0A0.66,0.66,0,0,1,204.95,273.12Zm-4.64-2.22h0a0.49,0.49,0,0,1-.2-0.67h0a0.49,0.49,0,0,1,.67-0.21h0a0.5,0.5,0,0,1,.21.68h0a0.5,0.5,0,0,1-.45.26h0A0.46,0.46,0,0,1,200.31,270.9Z" transform="translate(-172.9 -172.91)"/><path class="cls-3" d="M196.19,268.33a0.5,0.5,0,0,1-.35-0.14,0.51,0.51,0,0,1-.15-0.36,0.49,0.49,0,0,1,.85-0.35,0.47,0.47,0,0,1,.15.35,0.51,0.51,0,0,1-.15.35A0.47,0.47,0,0,1,196.19,268.33Z" transform="translate(-172.9 -172.91)"/><path class="cls-3" d="M182.11,254.21a0.47,0.47,0,0,1-.35-0.15,0.49,0.49,0,0,1-.15-0.35,0.5,0.5,0,0,1,.14-0.35,0.51,0.51,0,0,1,.71,0,0.49,0.49,0,0,1,.15.36A0.51,0.51,0,0,1,182.11,254.21Z" transform="translate(-172.9 -172.91)"/><path class="cls-3" d="M179.06,249.61h0a0.5,0.5,0,0,1,.2-0.68h0a0.5,0.5,0,0,1,.68.21h0a0.49,0.49,0,0,1-.21.67h0a0.47,0.47,0,0,1-.23.06h0A0.49,0.49,0,0,1,179.06,249.61Zm-2.2-4.63a0.5,0.5,0,0,1,.27-0.65h0a0.49,0.49,0,0,1,.65.27h0a0.5,0.5,0,0,1-.27.66h0a0.57,0.57,0,0,1-.19,0h0A0.49,0.49,0,0,1,176.86,245Zm-1.73-4.81h0a0.5,0.5,0,0,1,.34-0.62h0a0.5,0.5,0,0,1,.62.34h0a0.51,0.51,0,0,1-.33.63h0l-0.15,0h0A0.51,0.51,0,0,1,175.13,240.16Zm-1.24-5h0a0.5,0.5,0,0,1,.39-0.59h0a0.5,0.5,0,0,1,.59.39h0a0.5,0.5,0,0,1-.39.59h-0.1A0.5,0.5,0,0,1,173.89,235.2Zm-0.75-5.07a0.5,0.5,0,0,1,.45-0.54h0a0.5,0.5,0,0,1,.55.45h0a0.5,0.5,0,0,1-.45.54h-0.05A0.52,0.52,0,0,1,173.14,230.12Z" transform="translate(-172.9 -172.91)"/><path class="cls-3" d="M173.39,225.51a0.48,0.48,0,0,1-.49-0.5,0.51,0.51,0,0,1,.14-0.36,0.52,0.52,0,0,1,.71,0,0.51,0.51,0,0,1,0,.7A0.51,0.51,0,0,1,173.39,225.51Z" transform="translate(-172.9 -172.91)"/><path class="cls-3" d="M188.89,261.35a0.25,0.25,0,0,1-.18-0.43l16.76-16.76a0.25,0.25,0,1,1,.35.35l-16.76,16.76A0.25,0.25,0,0,1,188.89,261.35Z" transform="translate(-172.9 -172.91)"/><path class="cls-3" d="M201.14,253.81a0.25,0.25,0,0,1-.18-0.07L196.18,249a0.25,0.25,0,1,1,.35-0.35l4.78,4.78A0.25,0.25,0,0,1,201.14,253.81Z" transform="translate(-172.9 -172.91)"/><path class="cls-3" d="M200.08,257.53a0.25,0.25,0,0,1-.18-0.07L192.49,250a0.25,0.25,0,0,1,.35-0.35l7.41,7.41A0.25,0.25,0,0,1,200.08,257.53Z" transform="translate(-172.9 -172.91)"/><path class="cls-3" d="M193,265a0.5,0.5,0,0,1-.25-0.07,20.63,20.63,0,0,1-7.64-7.64,0.5,0.5,0,0,1,.87-0.5,19.64,19.64,0,0,0,7.27,7.27A0.5,0.5,0,0,1,193,265Z" transform="translate(-172.9 -172.91)"/><circle class="cls-2" cx="32.81" cy="71.44" r="1.2"/><circle class="cls-2" cx="94.5" cy="9.7" r="2.72"/><path class="cls-13" d="M267.4,177.89a4.72,4.72,0,1,0,4.72,4.72A4.72,4.72,0,0,0,267.4,177.89Zm-2.72,4.72a2.72,2.72,0,1,1,2.72,2.72A2.73,2.73,0,0,1,264.68,182.61Z" transform="translate(-172.9 -172.91)"/><circle class="cls-3" cx="9.6" cy="94.59" r="2.72"/><path class="cls-2" d="M182.5,262.77a4.72,4.72,0,1,0,4.72,4.72A4.72,4.72,0,0,0,182.5,262.77Zm-2.72,4.72a2.72,2.72,0,1,1,2.72,2.72A2.73,2.73,0,0,1,179.77,267.5Z" transform="translate(-172.9 -172.91)"/></svg>