<svg preserveAspectRatio="none" id="Layer_1" data-name="Layer 1" xmlns="http://www.w3.org/2000/svg" viewBox="0 0 19.74 19.74"><defs><style>.cls-1{fill:#00b3ea}.cls-2{fill:#08ade5}.cls-4{fill:#feb113}</style></defs><path class="cls-1" d="M3.53 9.76h.08v.23h-.08zM3.7 9.76h.08v.23H3.7zM3.87 9.76h.08v.23h-.08zM4.04 9.76h.08v.23h-.08zM4.21 9.76h.08v.23h-.08zM4.38 9.76h.08v.23h-.08zM4.55 9.76h.08v.23h-.08zM4.72 9.76h.08v.23h-.08zM4.89 9.76h.08v.23h-.08zM5.05 9.76h.08v.23h-.08zM5.22 9.76h.08v.23h-.08zM5.39 9.76h.08v.23h-.08zM5.56 9.76h.08v.23h-.08zM5.73 9.76h.08v.23h-.08zM5.9 9.76h.08v.23H5.9zM6.07 9.76h.08v.23h-.08zM6.24 9.76h.08v.23h-.08zM6.41 9.76h.08v.23h-.08zM6.58 9.76h.08v.23h-.08zM6.75 9.76h.08v.23h-.08zM6.91 9.76h.08v.23h-.08zM7.08 9.76h.08v.23h-.08zM7.25 9.76h.08v.23h-.08zM7.42 9.76h.08v.23h-.08zM7.59 9.76h.08v.23h-.08zM7.76 9.76h.08v.23h-.08zM7.93 9.76h.08v.23h-.08zM8.1 9.76h.08v.23H8.1zM8.27 9.76h.08v.23h-.08zM8.44 9.76h.08v.23h-.08zM8.6 9.76h.08v.23H8.6zM10.99 9.76h.08v.23h-.08zM11.16 9.76h.08v.23h-.08zM11.33 9.76h.08v.23h-.08zM11.5 9.76h.08v.23h-.08zM11.67 9.76h.08v.23h-.08zM11.84 9.76h.08v.23h-.08zM12.01 9.76h.08v.23h-.08zM12.18 9.76h.08v.23h-.08zM12.35 9.76h.08v.23h-.08zM12.51 9.76h.08v.23h-.08zM12.68 9.76h.08v.23h-.08zM12.85 9.76h.08v.23h-.08zM13.02 9.76h.08v.23h-.08zM13.19 9.76h.08v.23h-.08zM13.36 9.76h.08v.23h-.08zM13.53 9.76h.08v.23h-.08zM13.7 9.76h.08v.23h-.08zM13.87 9.76h.08v.23h-.08zM14.04 9.76h.08v.23h-.08zM14.2 9.76h.08v.23h-.08zM14.37 9.76h.08v.23h-.08zM14.54 9.76h.08v.23h-.08zM14.71 9.76h.08v.23h-.08zM14.88 9.76h.08v.23h-.08zM15.05 9.76h.08v.23h-.08zM15.22 9.76h.08v.23h-.08zM15.39 9.76h.08v.23h-.08zM15.56 9.76h.08v.23h-.08zM15.73 9.76h.08v.23h-.08zM15.9 9.76h.08v.23h-.08zM16.06 9.76h.08v.23h-.08zM9.79 16.1h.23v.08h-.23zM9.79 15.93h.23v.08h-.23zM9.79 15.76h.23v.08h-.23zM9.79 15.59h.23v.08h-.23zM9.79 15.42h.23v.08h-.23zM9.79 15.25h.23v.08h-.23zM9.79 15.08h.23v.08h-.23zM9.79 14.92h.23V15h-.23zM9.79 14.75h.23v.08h-.23zM9.79 14.58h.23v.08h-.23zM9.79 14.41h.23v.08h-.23zM9.79 14.24h.23v.08h-.23zM9.79 14.07h.23v.08h-.23zM9.79 13.9h.23v.08h-.23zM9.79 13.73h.23v.08h-.23zM9.79 13.56h.23v.08h-.23zM9.79 13.39h.23v.08h-.23zM9.79 13.22h.23v.08h-.23zM9.79 13.06h.23v.08h-.23zM9.79 12.89h.23v.08h-.23zM9.79 12.72h.23v.08h-.23zM9.79 12.55h.23v.08h-.23zM9.79 12.38h.23v.08h-.23zM9.79 12.21h.23v.08h-.23zM9.79 12.04h.23v.08h-.23zM9.79 11.87h.23v.08h-.23zM9.79 11.7h.23v.08h-.23zM9.79 11.53h.23v.08h-.23zM9.79 11.37h.23v.08h-.23zM9.79 11.2h.23v.08h-.23zM9.79 11.03h.23v.08h-.23zM9.79 8.64h.23v.08h-.23zM9.79 8.47h.23v.08h-.23zM9.79 8.3h.23v.08h-.23zM9.79 8.13h.23v.08h-.23zM9.79 7.96h.23v.08h-.23zM9.79 7.79h.23v.08h-.23zM9.79 7.62h.23v.08h-.23zM9.79 7.46h.23v.08h-.23zM9.79 7.29h.23v.08h-.23zM9.79 7.12h.23v.08h-.23zM9.79 6.95h.23v.08h-.23zM9.79 6.78h.23v.08h-.23zM9.79 6.61h.23v.08h-.23zM9.79 6.44h.23v.08h-.23zM9.79 6.27h.23v.08h-.23zM9.79 6.1h.23v.08h-.23zM9.79 5.93h.23v.08h-.23zM9.79 5.77h.23v.08h-.23zM9.79 5.6h.23v.08h-.23zM9.79 5.43h.23v.08h-.23zM9.79 5.26h.23v.08h-.23zM9.79 5.09h.23v.08h-.23zM9.79 4.92h.23V5h-.23zM9.79 4.75h.23v.08h-.23zM9.79 4.58h.23v.08h-.23zM9.79 4.41h.23v.08h-.23zM9.79 4.24h.23v.08h-.23zM9.79 4.07h.23v.08h-.23zM9.79 3.91h.23v.08h-.23zM9.79 3.74h.23v.08h-.23zM9.79 3.57h.23v.08h-.23z"/><path class="cls-2" d="M159 245.5l.28-.06.29-.05h1.19v-.54-.32-.33c0-.11 0-.2.05-.29s.06-.28.06-.28l.14-.09.16-.1.21-.12a6.5 6.5 0 011.22-.5 6.75 6.75 0 011.3-.25h1.21a6.75 6.75 0 011.3.25 6.51 6.51 0 011.22.5l.21.12.16.1.14.09s0 .11.06.28 0 .18.05.29 0 .22 0 .33V245.39H169.44l.29.05.28.06.09.14.1.16.12.21a6.51 6.51 0 01.5 1.22 6.75 6.75 0 01.25 1.3v1.21a6.75 6.75 0 01-.25 1.3 6.51 6.51 0 01-.5 1.22l-.12.21-.1.16-.09.14-.28.06-.29.05h-1.19V254.07c0 .11 0 .2-.05.29s-.06.28-.06.28l-.14.09-.16.1-.21.12a6.52 6.52 0 01-1.22.5 6.76 6.76 0 01-1.3.25h-1.21a6.75 6.75 0 01-1.3-.25 6.51 6.51 0 01-1.22-.5l-.21-.12-.16-.1-.14-.09s0-.11-.06-.28 0-.18-.05-.29 0-.22 0-.33v-.54-.26H159.57l-.29-.05-.28-.06-.09-.14-.1-.16-.12-.21a6.51 6.51 0 01-.5-1.22 6.75 6.75 0 01-.25-1.3v-.6h-.17v.61a6.91 6.91 0 00.25 1.33 6.68 6.68 0 00.51 1.25l.12.22.1.17.09.14h.25l.24.05.53.07h.75V254.25c0 .11 0 .2.06.29s.07.28.07.28l.14.09.17.1.22.12a6.7 6.7 0 001.25.51 6.9 6.9 0 001.33.25h1.23a6.9 6.9 0 001.33-.25 6.7 6.7 0 001.25-.51l.34-.13.17-.1.14-.09v-.49c0-.15.05-.34.07-.53s0-.38 0-.52v-.23h1.28l.29-.06.28-.07.09-.14.1-.17.12-.22a6.69 6.69 0 00.51-1.25 6.91 6.91 0 00.25-1.33v-1.23a6.91 6.91 0 00-.25-1.33 6.7 6.7 0 00-.51-1.25l-.12-.22-.1-.17-.09-.14h-.49l-.53-.07h-.75v-.55-.33-.33c0-.11 0-.2-.06-.29s-.07-.28-.07-.28l-.14-.09-.17-.1-.22-.12a6.69 6.69 0 00-1.25-.51 6.92 6.92 0 00-1.33-.25h-1.27a6.93 6.93 0 00-1.33.25 6.69 6.69 0 00-1.25.51l-.22.12-.17.1-.14.09v.49c0 .15-.05.34-.07.53s0 .38 0 .52v.23H159.56l-.29.06-.28.07-.09.14-.1.17-.12.22a6.68 6.68 0 00-.51 1.25 6.92 6.92 0 00-.25 1.33v.61h.17v-.6a6.75 6.75 0 01.25-1.3 6.51 6.51 0 01.5-1.22l.12-.21.1-.16z" transform="translate(-154.69 -239.26)"/><path class="cls-2" d="M163.78 249a.79.79 0 00.06.15.81.81 0 00.09.13l.13.09.15.06H164.36l.15-.06.13-.09a.81.81 0 00.09-.13.78.78 0 00.06-.15.78.78 0 00-.06-.15.81.81 0 00-.09-.13l-.13-.09-.15-.06H164.21l-.15.06-.13.09.13-.09.14-.06h.08l.05-.06h.07l.14.06.13.09a.78.78 0 01.09.13.74.74 0 01.06.14l.06.05a.74.74 0 01-.06.14.78.78 0 01-.09.13l-.13.09-.14.06h.24l-.05.06h-.07l-.14-.06-.13-.09a.78.78 0 01-.09-.13.76.76 0 01-.06-.14l-.06-.05a.75.75 0 01.06-.14.78.78 0 01.09-.13.81.81 0 00-.09.13.79.79 0 00-.06.15z" transform="translate(-154.69 -239.26)"/><path d="M157.11 253.16l.05.09.09.15.06.1.07.11.16.25.21.29.26.33.31.36c.12.12.23.25.37.38l.21.19.22.19a9 9 0 001.06.76 8.44 8.44 0 002.92 1.08 8.57 8.57 0 001.78.12h.46l.47-.06.47-.09.24-.06h.24a8.48 8.48 0 005.87-5.73l.08-.27c0-.09 0-.18.07-.28s.07-.37.11-.56a8.65 8.65 0 00-.15-3.41c0-.09-.05-.18-.08-.28s-.05-.18-.08-.27l-.09-.27-.1-.27-.05-.13-.06-.13-.12-.26c-.09-.17-.17-.34-.27-.51a8.46 8.46 0 00-9.27-4 8.28 8.28 0 00-1.8.64 8.53 8.53 0 00-3.57 3.3 8.1 8.1 0 00-.58 1.17 8.47 8.47 0 00-.34 1.05l-.05.24v1.85h-.65v-.46-.46-.39-.45c0-.08 0-.16.05-.24l.06-.26a9.16 9.16 0 01.37-1.14 8.77 8.77 0 01.62-1.26 9.18 9.18 0 013.84-3.55 8.93 8.93 0 011.94-.69 9.11 9.11 0 0110 4.36c.11.18.19.36.29.54l.13.28.06.14.06.14.11.29.1.29c0 .1.06.2.09.3s.06.2.08.3a9.3 9.3 0 01.16 3.67c0 .2-.07.4-.12.6s0 .2-.07.3l-.08.29a9.12 9.12 0 01-6.33 6.17h-.26l-.26.06-.51.09-.51.06h-.5a9.24 9.24 0 01-1.92-.12 9.1 9.1 0 01-3.15-1.17 9.7 9.7 0 01-1.14-.82l-.24-.21-.22-.21c-.15-.13-.27-.28-.4-.41l-.34-.38-.28-.36-.23-.32-.18-.27-.07-.11-.06-.1-.09-.16-.06-.1z" transform="translate(-154.69 -239.26)" fill="#065977"/><path class="cls-2" d="M155 249.13v.96c0 .12 0 .26.05.4s0 .15 0 .23v.24c0 .08 0 .17.05.25l.06.27a9.57 9.57 0 00.39 1.19 9.19 9.19 0 00.65 1.32 9.61 9.61 0 004 3.72 9.37 9.37 0 002 .72 9.55 9.55 0 0010.46-4.57c.11-.18.2-.38.3-.57l.13-.29.07-.15.06-.15.12-.3.1-.31c0-.1.07-.21.09-.31s.06-.21.09-.31a9.73 9.73 0 00.17-3.84c0-.21-.07-.42-.12-.63s0-.21-.07-.31l-.09-.31a9.55 9.55 0 00-6.63-6.46h-.26l-.27-.06-.54-.1-.53-.06H165a9.67 9.67 0 00-2 .13 9.53 9.53 0 00-3.3 1.22 10.12 10.12 0 00-1.2.85l-.25.22-.23.22c-.15.14-.29.29-.42.42l-.35.4-.29.37-.24.33-.18.28-.08.12-.06.11-.1.17-.06.1-.28-.15.06-.11.1-.17.06-.11.08-.12.19-.29.24-.34.3-.38.36-.42c.14-.14.27-.29.43-.44l.24-.23.26-.23a10.43 10.43 0 011.24-.88 9.85 9.85 0 013.41-1.27 10 10 0 012.08-.13h.54l.55.07.55.1.28.06h.28a9.89 9.89 0 016.85 6.68l.09.32c0 .11.05.21.08.32s.09.43.13.65a10 10 0 01-.18 4c0 .11-.06.22-.09.32s-.06.22-.1.32l-.11.32-.12.31-.06.16-.07.15-.14.3c-.1.2-.2.4-.31.59a9.87 9.87 0 01-10.81 4.72 9.68 9.68 0 01-2.1-.75 9.93 9.93 0 01-4.16-3.84 9.53 9.53 0 01-.67-1.37 9.9 9.9 0 01-.4-1.23l-.06-.28c0-.09 0-.18-.06-.26v-.25-.23c0-.07 0-.29-.05-.42v-.35-.64h.13z" transform="translate(-154.69 -239.26)"/><path class="cls-4" d="M164 241.54h-.31a7.28 7.28 0 00-.82.14 7.56 7.56 0 00-2.33 1 7.73 7.73 0 00-1.08.82 8.08 8.08 0 00-.81.86l-.15.2-.13.18-.11.16-.09.14-.12.2v.07l-.51-.3v-.08l.13-.21.1-.15.12-.17.14-.2.17-.21a8.69 8.69 0 01.87-.93 8.32 8.32 0 011.16-.88 8.15 8.15 0 012.51-1 7.87 7.87 0 01.89-.15h.37zM170.78 244.75v-.07l-.14-.19-.1-.13-.06-.07-.07-.08-.15-.17-.17-.18a7.38 7.38 0 00-.88-.79 7.66 7.66 0 00-2.4-1.23 7.42 7.42 0 00-1.15-.25h-1.15V241h1.21a8 8 0 011.24.27 8.24 8.24 0 012.59 1.32 8 8 0 01.95.85l.18.19.16.18.07.08.06.08.11.14.15.2.05.07zM171.52 252.21s.05-.1.12-.29l.06-.16.06-.19.07-.21.07-.24a7.57 7.57 0 00.22-1.16 8 8 0 000-1.36 7.4 7.4 0 00-.21-1.34 8.22 8.22 0 00-.38-1.12 8 8 0 00-.37-.75l-.12-.2v-.07l.5-.31v.08l.13.22a8.61 8.61 0 01.4.81 8.8 8.8 0 01.4 1.21 8 8 0 01.23 1.44 8.57 8.57 0 010 1.46 8.15 8.15 0 01-.24 1.25l-.07.26-.08.23-.07.2-.07.17c0 .1-.07.18-.09.23v.08zM165.5 256.68h.31a7.26 7.26 0 00.81-.18 7.56 7.56 0 002.28-1.08 7.78 7.78 0 001-.87 7.91 7.91 0 00.77-.9l.14-.2.12-.19.11-.17.08-.14.11-.2v-.07l.52.27v.08l-.12.22-.09.16-.11.18-.13.2-.16.22a8.5 8.5 0 01-.83 1 8.34 8.34 0 01-1.12.94 8.15 8.15 0 01-2.46 1.16 7.8 7.8 0 01-.88.2H165.51zM158.57 253.82l.05.07.06.08.09.1c.07.08.14.17.24.27l.15.16.18.17a7.47 7.47 0 00.92.74 7.65 7.65 0 002.46 1.1 7.43 7.43 0 001.16.19H165v.59h-1.27a8 8 0 01-1.25-.21 8.24 8.24 0 01-2.65-1.19 8.09 8.09 0 01-1-.8l-.19-.19-.17-.17c-.11-.11-.19-.21-.26-.29l-.09-.11-.07-.08-.06-.07z" transform="translate(-154.69 -239.26)"/></svg>