<svg preserveAspectRatio="none" xmlns="http://www.w3.org/2000/svg" xmlns:xlink="http://www.w3.org/1999/xlink" viewBox="0 0 210 210"><defs><style>.cls-1{fill:#03a6ff;}.cls-2{isolation:isolate;}.cls-3{mix-blend-mode:screen;}.cls-4{clip-path:url(#clip-path);}.cls-5{clip-path:url(#clip-path-2);}.cls-6{clip-path:url(#clip-path-3);}.cls-7{clip-path:url(#clip-path-4);}.cls-8{clip-path:url(#clip-path-5);}</style><clipPath id="clip-path" transform="translate(-2433.22 -1107.32)"><circle class="cls-1" cx="2540.13" cy="1208.95" r="7.18"/></clipPath><clipPath id="clip-path-2" transform="translate(-2433.22 -1107.32)"><polygon class="cls-1" points="2540.07 1135.91 2538.3 1132.85 2536.53 1129.79 2540.07 1129.79 2543.6 1129.79 2541.84 1132.85 2540.07 1135.91"/></clipPath><clipPath id="clip-path-3" transform="translate(-2433.22 -1107.32)"><polygon class="cls-1" points="2540.07 1282.37 2538.3 1285.43 2536.53 1288.49 2540.07 1288.49 2543.6 1288.49 2541.84 1285.43 2540.07 1282.37"/></clipPath><clipPath id="clip-path-4" transform="translate(-2433.22 -1107.32)"><polygon class="cls-1" points="2466.62 1209.48 2463.56 1211.25 2460.5 1213.02 2460.5 1209.48 2460.5 1205.95 2463.56 1207.71 2466.62 1209.48"/></clipPath><clipPath id="clip-path-5" transform="translate(-2433.22 -1107.32)"><polygon class="cls-1" points="2613.07 1209.48 2616.13 1211.25 2619.19 1213.02 2619.19 1209.48 2619.19 1205.95 2616.13 1207.71 2613.07 1209.48"/></clipPath></defs><title>circle47</title><g class="cls-2"><g id="Layer_3" data-name="Layer 3"><path class="cls-1" d="M2540.13,1272.18a63.23,63.23,0,1,1,63.23-63.23A63.3,63.3,0,0,1,2540.13,1272.18Zm0-125.79a62.56,62.56,0,1,0,62.56,62.56A62.63,62.63,0,0,0,2540.13,1146.39Z" transform="translate(-2433.22 -1107.32)"/><path class="cls-1" d="M2540.13,1272.18a63.23,63.23,0,1,1,63.23-63.23A63.3,63.3,0,0,1,2540.13,1272.18Zm0-125.79a62.56,62.56,0,1,0,62.56,62.56A62.63,62.63,0,0,0,2540.13,1146.39Z" transform="translate(-2433.22 -1107.32)"/><path class="cls-1" d="M2542.21,1268.73l-0.65,0-0.07-2.67,0.63,0c0.45,0,.89,0,1.32-0.07l0.15,2.67Zm-4.06,0-2-.1,0.18-2.67,2,0.1Zm8.83-.36-0.3-2.66c0.65-.07,1.29-0.16,1.93-0.25l0.4,2.64Zm-14.26-.06c-0.67-.08-1.35-0.18-2-0.28l0.42-2.64q1,0.16,1.93.27Zm19.63-.8-0.54-2.62c0.64-.13,1.28-0.28,1.9-0.43l0.63,2.6C2553.7,1267.22,2553,1267.38,2552.36,1267.51Zm-25-.11c-0.67-.15-1.33-0.3-2-0.47l0.66-2.59c0.63,0.16,1.26.31,1.89,0.45Zm30.27-1.24-0.78-2.56c0.63-.19,1.24-0.39,1.85-0.6l0.87,2.53C2558.94,1265.75,2558.29,1266,2557.64,1266.16Zm-35.54-.15c-0.65-.2-1.3-0.42-1.94-0.65l0.89-2.52c0.61,0.22,1.23.42,1.85,0.62Zm40.67-1.67-1-2.48c0.6-.24,1.2-0.5,1.79-0.77l1.1,2.44C2564,1263.81,2563.4,1264.08,2562.77,1264.34Zm-45.79-.21c-0.63-.27-1.25-0.54-1.87-0.83l1.12-2.43c0.59,0.28,1.19.54,1.79,0.79Zm50.72-2.08-1.24-2.37c0.58-.3,1.15-0.61,1.71-0.93l1.32,2.33C2568.9,1261.41,2568.3,1261.73,2567.7,1262Zm-55.64-.26c-0.6-.32-1.2-0.65-1.79-1l1.34-2.32q0.84,0.49,1.71,1Zm60.35-2.46-1.45-2.25c0.54-.35,1.09-0.71,1.62-1.08l1.52,2.2C2573.54,1258.57,2573,1259,2572.4,1259.32Zm-65-.32c-0.57-.37-1.14-0.76-1.69-1.15l1.54-2.19c0.53,0.37,1.07.74,1.62,1.1Zm69.48-2.83-1.64-2.11c0.51-.4,1-0.8,1.52-1.23l1.71,2.06C2577.91,1255.33,2577.38,1255.75,2576.84,1256.18Zm-73.89-.36c-0.54-.42-1.06-0.85-1.58-1.3l1.73-2c0.5,0.42,1,.84,1.5,1.24Zm78-3.18-1.83-2c0.47-.45.94-0.89,1.41-1.36l1.89,1.89C2582,1251.71,2581.47,1252.18,2581,1252.64Zm-82.13-.4c-0.5-.47-1-1-1.45-1.43l1.91-1.87c0.46,0.46.92,0.92,1.39,1.37Zm85.93-3.49-2-1.78c0.43-.49.86-1,1.28-1.48l2.06,1.71C2585.68,1247.72,2585.23,1248.24,2584.78,1248.75Zm-89.69-.44q-0.67-.77-1.32-1.56l2.07-1.69c0.41,0.5.83,1,1.26,1.49Zm93.12-3.79-2.15-1.59c0.39-.52.76-1,1.14-1.58l2.2,1.52Q2588.82,1243.71,2588.21,1244.52Zm-96.52-.46c-0.4-.55-0.79-1.11-1.17-1.67l2.22-1.5c0.37,0.54.74,1.07,1.12,1.59Zm-3-4.54c-0.35-.59-0.68-1.17-1-1.77l2.34-1.29c0.31,0.57.63,1.13,1,1.69Zm-2.57-4.79c-0.29-.61-0.58-1.23-0.85-1.85l2.45-1.07c0.26,0.59.53,1.19,0.8,1.77Zm-2.11-5c-0.24-.63-0.46-1.28-0.67-1.93l2.54-.84c0.2,0.62.42,1.24,0.64,1.84Zm-1.66-5.18c-0.18-.66-0.34-1.32-0.5-2l2.61-.61c0.15,0.63.31,1.27,0.47,1.89Zm-1.17-5.31c-0.11-.67-0.22-1.34-0.32-2l2.65-.37c0.09,0.65.19,1.29,0.3,1.93Zm-0.68-5.4c-0.06-.67-0.1-1.36-0.13-2l2.67-.12q0,1,.12,2Zm2.48-5.42-2.67,0c0-.68,0-1.37,0-2l2.67,0.11Q2483,1207.42,2483,1208.4Zm0.28-5.19-2.66-.27c0.07-.68.15-1.36,0.24-2l2.65,0.36C2483.41,1201.91,2483.33,1202.56,2483.26,1203.21Zm0.76-5.14-2.62-.5c0.13-.67.27-1.33,0.42-2l2.61,0.6C2484.27,1196.79,2484.14,1197.42,2484,1198.06Zm1.22-5.05-2.57-.75c0.19-.66.39-1.31,0.6-2l2.54,0.83C2485.61,1191.76,2485.42,1192.38,2485.24,1193Zm1.68-4.93-2.49-1c0.25-.63.51-1.27,0.78-1.89l2.45,1.06C2487.4,1186.86,2487.16,1187.47,2486.92,1188.07Zm2.12-4.75-2.39-1.2c0.31-.61.63-1.21,1-1.81l2.35,1.28C2489.63,1182.16,2489.33,1182.74,2489,1183.32Zm2.55-4.54-2.27-1.41c0.36-.58.73-1.15,1.11-1.71l2.22,1.49C2492.28,1177.68,2491.93,1178.23,2491.59,1178.78Zm94.38-3.94c-0.39-.52-0.79-1-1.19-1.54l2.09-1.67c0.42,0.53.84,1.07,1.24,1.62Zm-91.44-.34-2.13-1.62c0.41-.54.83-1.08,1.26-1.61l2.07,1.68Zm88.15-3.68c-0.43-.49-0.88-1-1.32-1.43l1.93-1.85c0.47,0.49.93,1,1.39,1.5Zm-84.83-.33-2-1.8c0.46-.5.93-1,1.4-1.49l1.92,1.87Q2498.52,1169.77,2497.86,1170.49Zm81.19-3.38c-0.48-.44-1-0.88-1.45-1.3l1.76-2c0.51,0.45,1,.9,1.52,1.37Zm-77.51-.3-1.8-2c0.5-.46,1-0.91,1.53-1.35l1.74,2Q2502.25,1166.15,2501.53,1166.81Zm73.55-3.06c-0.51-.4-1-0.79-1.57-1.17l1.57-2.17q0.83,0.6,1.63,1.22Zm-69.56-.27-1.62-2.13c0.54-.41,1.09-0.81,1.64-1.21l1.54,2.18C2506.56,1162.69,2506,1163.08,2505.52,1163.48Zm65.3-2.73c-0.54-.35-1.11-0.69-1.67-1l1.36-2.3c0.59,0.35,1.17.71,1.74,1.07Zm-61-.23-1.42-2.27c0.58-.36,1.15-0.72,1.75-1.06l1.34,2.31C2510.89,1159.83,2510.34,1160.17,2509.79,1160.52Zm56.52-2.37c-0.58-.3-1.16-0.59-1.76-0.87l1.15-2.41c0.62,0.29,1.23.59,1.84,0.91Zm-52-.19-1.21-2.38c0.6-.31,1.22-0.6,1.83-0.89l1.13,2.42C2515.47,1157.38,2514.88,1157.66,2514.31,1158Zm47.27-2q-0.9-.37-1.83-0.71l0.92-2.51c0.64,0.24,1.28.48,1.91,0.74Zm-42.54-.15-1-2.49c0.63-.25,1.27-0.49,1.91-0.72l0.9,2.52Zm37.63-1.58-1.89-.54,0.68-2.58c0.66,0.18,1.32.36,2,.56Zm-32.71-.11-0.76-2.57c0.65-.2,1.31-0.37,2-0.54l0.67,2.59C2525.2,1153.77,2524.58,1153.94,2524,1154.13Zm27.66-1.17c-0.63-.13-1.28-0.25-1.92-0.36l0.45-2.63c0.67,0.11,1.34.24,2,.37Zm-22.62-.07-0.52-2.62c0.67-.13,1.33-0.25,2-0.36l0.43,2.64C2530.28,1152.65,2529.64,1152.76,2529,1152.89Zm17.48-.74c-0.64-.07-1.29-0.13-1.94-0.18l0.2-2.67c0.68,0,1.36.11,2,.19Zm-12.34,0-0.28-2.66c0.67-.07,1.35-0.13,2-0.18l0.19,2.67C2535.44,1152,2534.79,1152,2534.14,1152.12Zm7.14-.3c-0.65,0-1.3,0-2,0l0-2.67c0.68,0,1.37,0,2,0Z" transform="translate(-2433.22 -1107.32)"/><path class="cls-1" d="M2592,1238.87a59.83,59.83,0,0,0-1.65-62.53l2.58-1.67a62.9,62.9,0,0,1,1.73,65.75Z" transform="translate(-2433.22 -1107.32)"/><circle class="cls-1" cx="106.9" cy="101.63" r="2.42"/><circle class="cls-1" cx="106.9" cy="101.63" r="2.42"/><g class="cls-3"><circle class="cls-1" cx="106.9" cy="101.63" r="7.18"/><g class="cls-4"><rect class="cls-1" x="99.72" y="94.45" width="14.36" height="14.36"/><circle class="cls-1" cx="106.9" cy="101.63" r="7.18"/><circle class="cls-1" cx="106.9" cy="101.63" r="7.15"/><circle class="cls-1" cx="106.9" cy="101.63" r="7.12"/><circle class="cls-1" cx="106.9" cy="101.63" r="7.1"/><circle class="cls-1" cx="106.9" cy="101.63" r="7.07"/><circle class="cls-1" cx="106.9" cy="101.63" r="7.04"/><circle class="cls-1" cx="106.9" cy="101.63" r="7.01"/><circle class="cls-1" cx="106.9" cy="101.63" r="6.98"/><circle class="cls-1" cx="106.9" cy="101.63" r="6.96"/><circle class="cls-1" cx="106.9" cy="101.63" r="6.93"/><circle class="cls-1" cx="106.9" cy="101.63" r="6.9"/><circle class="cls-1" cx="106.9" cy="101.63" r="6.87"/><circle class="cls-1" cx="106.9" cy="101.63" r="6.84"/><circle class="cls-1" cx="106.9" cy="101.63" r="6.81"/><circle class="cls-1" cx="106.9" cy="101.63" r="6.79"/><circle class="cls-1" cx="106.9" cy="101.63" r="6.76"/><circle class="cls-1" cx="106.9" cy="101.63" r="6.73"/><circle class="cls-1" cx="106.9" cy="101.63" r="6.7"/><circle class="cls-1" cx="106.9" cy="101.63" r="6.67"/><circle class="cls-1" cx="106.9" cy="101.63" r="6.65"/><circle class="cls-1" cx="106.9" cy="101.63" r="6.62"/><circle class="cls-1" cx="106.9" cy="101.63" r="6.59"/><circle class="cls-1" cx="106.9" cy="101.63" r="6.56"/><circle class="cls-1" cx="106.9" cy="101.63" r="6.53"/><circle class="cls-1" cx="106.9" cy="101.63" r="6.51"/><circle class="cls-1" cx="106.9" cy="101.63" r="6.48"/><circle class="cls-1" cx="106.9" cy="101.63" r="6.45"/><circle class="cls-1" cx="106.9" cy="101.63" r="6.42"/><circle class="cls-1" cx="106.9" cy="101.63" r="6.39"/><circle class="cls-1" cx="106.9" cy="101.63" r="6.36"/><circle class="cls-1" cx="106.9" cy="101.63" r="6.34"/><circle class="cls-1" cx="106.9" cy="101.63" r="6.31"/><circle class="cls-1" cx="106.9" cy="101.63" r="6.28"/><circle class="cls-1" cx="106.9" cy="101.63" r="6.25"/><circle class="cls-1" cx="106.9" cy="101.63" r="6.22"/><circle class="cls-1" cx="106.9" cy="101.63" r="6.2"/><circle class="cls-1" cx="106.9" cy="101.63" r="6.17"/><circle class="cls-1" cx="106.9" cy="101.63" r="6.14"/><circle class="cls-1" cx="106.9" cy="101.63" r="6.11"/><circle class="cls-1" cx="106.9" cy="101.63" r="6.08"/><circle class="cls-1" cx="106.9" cy="101.63" r="6.05"/><circle class="cls-1" cx="106.9" cy="101.63" r="6.03"/><circle class="cls-1" cx="106.9" cy="101.63" r="6"/><circle class="cls-1" cx="106.9" cy="101.63" r="5.97"/><circle class="cls-1" cx="106.9" cy="101.63" r="5.94"/><circle class="cls-1" cx="106.9" cy="101.63" r="5.91"/><circle class="cls-1" cx="106.9" cy="101.63" r="5.89"/><circle class="cls-1" cx="106.9" cy="101.63" r="5.86"/><circle class="cls-1" cx="106.9" cy="101.63" r="5.83"/><circle class="cls-1" cx="106.9" cy="101.63" r="5.8"/><circle class="cls-1" cx="106.9" cy="101.63" r="5.77"/><circle class="cls-1" cx="106.9" cy="101.63" r="5.74"/><circle class="cls-1" cx="106.9" cy="101.63" r="5.72"/><circle class="cls-1" cx="106.9" cy="101.63" r="5.69"/><circle class="cls-1" cx="106.9" cy="101.63" r="5.66"/><circle class="cls-1" cx="106.9" cy="101.63" r="5.63"/><circle class="cls-1" cx="106.9" cy="101.63" r="5.6"/><circle class="cls-1" cx="106.9" cy="101.63" r="5.58"/><circle class="cls-1" cx="106.9" cy="101.63" r="5.55"/><circle class="cls-1" cx="106.9" cy="101.63" r="5.52"/><circle class="cls-1" cx="106.9" cy="101.63" r="5.49"/><circle class="cls-1" cx="106.9" cy="101.63" r="5.46"/><circle class="cls-1" cx="106.9" cy="101.63" r="5.44"/><circle class="cls-1" cx="106.9" cy="101.63" r="5.41"/><circle class="cls-1" cx="106.9" cy="101.63" r="5.38"/><circle class="cls-1" cx="106.9" cy="101.63" r="5.35"/><circle class="cls-1" cx="106.9" cy="101.63" r="5.32"/><circle class="cls-1" cx="106.9" cy="101.63" r="5.29"/><circle class="cls-1" cx="106.9" cy="101.63" r="5.27"/><circle class="cls-1" cx="106.9" cy="101.63" r="5.24"/><circle class="cls-1" cx="106.9" cy="101.63" r="5.21"/><circle class="cls-1" cx="106.9" cy="101.63" r="5.18"/><circle class="cls-1" cx="106.9" cy="101.63" r="5.15"/><circle class="cls-1" cx="106.9" cy="101.63" r="5.13"/><circle class="cls-1" cx="106.9" cy="101.63" r="5.1"/><circle class="cls-1" cx="106.9" cy="101.63" r="5.07"/><circle class="cls-1" cx="106.9" cy="101.63" r="5.04"/><circle class="cls-1" cx="106.9" cy="101.63" r="5.01"/><circle class="cls-1" cx="106.9" cy="101.63" r="4.98"/><circle class="cls-1" cx="106.9" cy="101.63" r="4.96"/><circle class="cls-1" cx="106.9" cy="101.63" r="4.93"/><circle class="cls-1" cx="106.9" cy="101.63" r="4.9"/><circle class="cls-1" cx="106.9" cy="101.63" r="4.87"/><circle class="cls-1" cx="106.9" cy="101.63" r="4.84"/><circle class="cls-1" cx="106.9" cy="101.63" r="4.82"/><circle class="cls-1" cx="106.9" cy="101.63" r="4.79"/><circle class="cls-1" cx="106.9" cy="101.63" r="4.76"/><circle class="cls-1" cx="106.9" cy="101.63" r="4.73"/><circle class="cls-1" cx="106.9" cy="101.63" r="4.7"/><circle class="cls-1" cx="106.9" cy="101.63" r="4.67"/><circle class="cls-1" cx="106.9" cy="101.63" r="4.65"/><circle class="cls-1" cx="106.9" cy="101.63" r="4.62"/><circle class="cls-1" cx="106.9" cy="101.63" r="4.59"/><circle class="cls-1" cx="106.9" cy="101.63" r="4.56"/><circle class="cls-1" cx="106.9" cy="101.63" r="4.53"/><circle class="cls-1" cx="106.9" cy="101.63" r="4.51"/><circle class="cls-1" cx="106.9" cy="101.63" r="4.48"/><circle class="cls-1" cx="106.9" cy="101.63" r="4.45"/><circle class="cls-1" cx="106.9" cy="101.63" r="4.42"/><circle class="cls-1" cx="106.9" cy="101.63" r="4.39"/><circle class="cls-1" cx="106.9" cy="101.63" r="4.36"/><circle class="cls-1" cx="106.9" cy="101.63" r="4.34"/><circle class="cls-1" cx="106.9" cy="101.63" r="4.31"/><circle class="cls-1" cx="106.9" cy="101.63" r="4.28"/><circle class="cls-1" cx="106.9" cy="101.63" r="4.25"/><circle class="cls-1" cx="106.9" cy="101.63" r="4.22"/><circle class="cls-1" cx="106.9" cy="101.63" r="4.2"/><circle class="cls-1" cx="106.9" cy="101.63" r="4.17"/><circle class="cls-1" cx="106.9" cy="101.63" r="4.14"/><circle class="cls-1" cx="106.9" cy="101.63" r="4.11"/><circle class="cls-1" cx="106.9" cy="101.63" r="4.08"/><circle class="cls-1" cx="106.9" cy="101.63" r="4.06"/><circle class="cls-1" cx="106.9" cy="101.63" r="4.03"/><circle class="cls-1" cx="106.9" cy="101.63" r="4"/><circle class="cls-1" cx="106.9" cy="101.63" r="3.97"/><circle class="cls-1" cx="106.9" cy="101.63" r="3.94"/><circle class="cls-1" cx="106.9" cy="101.63" r="3.91"/><circle class="cls-1" cx="106.9" cy="101.63" r="3.89"/><circle class="cls-1" cx="106.9" cy="101.63" r="3.86"/><circle class="cls-1" cx="106.9" cy="101.63" r="3.83"/><circle class="cls-1" cx="106.9" cy="101.63" r="3.8"/><circle class="cls-1" cx="106.9" cy="101.63" r="3.77"/><circle class="cls-1" cx="106.9" cy="101.63" r="3.75"/><circle class="cls-1" cx="106.9" cy="101.63" r="3.72"/><circle class="cls-1" cx="106.9" cy="101.63" r="3.69"/><circle class="cls-1" cx="106.9" cy="101.63" r="3.66"/><circle class="cls-1" cx="106.9" cy="101.63" r="3.63"/><circle class="cls-1" cx="106.9" cy="101.63" r="3.6"/><circle class="cls-1" cx="106.9" cy="101.63" r="3.58"/><circle class="cls-1" cx="106.9" cy="101.63" r="3.55"/><circle class="cls-1" cx="106.9" cy="101.63" r="3.52"/><circle class="cls-1" cx="106.9" cy="101.63" r="3.49"/><circle class="cls-1" cx="106.9" cy="101.63" r="3.46"/><circle class="cls-1" cx="106.9" cy="101.63" r="3.44"/><circle class="cls-1" cx="106.9" cy="101.63" r="3.41"/><circle class="cls-1" cx="106.9" cy="101.63" r="3.38"/><circle class="cls-1" cx="106.9" cy="101.63" r="3.35"/><circle class="cls-1" cx="106.9" cy="101.63" r="3.32"/><circle class="cls-1" cx="106.9" cy="101.63" r="3.29"/><circle class="cls-1" cx="106.9" cy="101.63" r="3.27"/><circle class="cls-1" cx="106.9" cy="101.63" r="3.24"/><circle class="cls-1" cx="106.9" cy="101.63" r="3.21"/><circle class="cls-1" cx="106.9" cy="101.63" r="3.18"/><circle class="cls-1" cx="106.9" cy="101.63" r="3.15"/><circle class="cls-1" cx="106.9" cy="101.63" r="3.13"/><circle class="cls-1" cx="106.9" cy="101.63" r="3.1"/><circle class="cls-1" cx="106.9" cy="101.63" r="3.07"/><circle class="cls-1" cx="106.9" cy="101.63" r="3.04"/><circle class="cls-1" cx="106.9" cy="101.63" r="3.01"/><circle class="cls-1" cx="106.9" cy="101.63" r="2.99"/><circle class="cls-1" cx="106.9" cy="101.63" r="2.96"/><circle class="cls-1" cx="106.9" cy="101.63" r="2.93"/><circle class="cls-1" cx="106.9" cy="101.63" r="2.9"/><circle class="cls-1" cx="106.9" cy="101.63" r="2.87"/><circle class="cls-1" cx="106.9" cy="101.63" r="2.84"/><circle class="cls-1" cx="106.9" cy="101.63" r="2.82"/><circle class="cls-1" cx="106.9" cy="101.63" r="2.79"/><circle class="cls-1" cx="106.9" cy="101.63" r="2.76"/><circle class="cls-1" cx="106.9" cy="101.63" r="2.73"/><circle class="cls-1" cx="106.9" cy="101.63" r="2.7"/><circle class="cls-1" cx="106.9" cy="101.63" r="2.68"/><circle class="cls-1" cx="106.9" cy="101.63" r="2.65"/><circle class="cls-1" cx="106.9" cy="101.63" r="2.62"/><circle class="cls-1" cx="106.9" cy="101.63" r="2.59"/><circle class="cls-1" cx="106.9" cy="101.63" r="2.56"/><circle class="cls-1" cx="106.9" cy="101.63" r="2.53"/><circle class="cls-1" cx="106.9" cy="101.63" r="2.51"/><circle class="cls-1" cx="106.9" cy="101.63" r="2.48"/><circle class="cls-1" cx="106.9" cy="101.63" r="2.45"/><circle class="cls-1" cx="106.9" cy="101.63" r="2.42"/><circle class="cls-1" cx="106.9" cy="101.63" r="2.39"/><circle class="cls-1" cx="106.9" cy="101.63" r="2.37"/><circle class="cls-1" cx="106.9" cy="101.63" r="2.34"/><circle class="cls-1" cx="106.9" cy="101.63" r="2.31"/><circle class="cls-1" cx="106.9" cy="101.63" r="2.28"/><circle class="cls-1" cx="106.9" cy="101.63" r="2.25"/><circle class="cls-1" cx="106.9" cy="101.63" r="2.22"/><circle class="cls-1" cx="106.9" cy="101.63" r="2.2"/><circle class="cls-1" cx="106.9" cy="101.63" r="2.17"/><circle class="cls-1" cx="106.9" cy="101.63" r="2.14"/><circle class="cls-1" cx="106.9" cy="101.63" r="2.11"/><circle class="cls-1" cx="106.9" cy="101.63" r="2.08"/><circle class="cls-1" cx="106.9" cy="101.63" r="2.06"/><circle class="cls-1" cx="106.9" cy="101.63" r="2.03"/><circle class="cls-1" cx="106.9" cy="101.63" r="2"/><circle class="cls-1" cx="106.9" cy="101.63" r="1.97"/><circle class="cls-1" cx="106.9" cy="101.63" r="1.94"/><circle class="cls-1" cx="106.9" cy="101.63" r="1.91"/><circle class="cls-1" cx="106.9" cy="101.63" r="1.89"/><circle class="cls-1" cx="106.9" cy="101.63" r="1.86"/><circle class="cls-1" cx="106.9" cy="101.63" r="1.83"/><circle class="cls-1" cx="106.9" cy="101.63" r="1.8"/><circle class="cls-1" cx="106.9" cy="101.63" r="1.77"/><circle class="cls-1" cx="106.9" cy="101.63" r="1.75"/><circle class="cls-1" cx="106.9" cy="101.63" r="1.72"/><circle class="cls-1" cx="106.9" cy="101.63" r="1.69"/><circle class="cls-1" cx="106.9" cy="101.63" r="1.66"/><circle class="cls-1" cx="106.9" cy="101.63" r="1.63"/><circle class="cls-1" cx="106.9" cy="101.63" r="1.61"/><circle class="cls-1" cx="106.9" cy="101.63" r="1.58"/><circle class="cls-1" cx="106.9" cy="101.63" r="1.55"/><circle class="cls-1" cx="106.9" cy="101.63" r="1.52"/><circle class="cls-1" cx="106.9" cy="101.63" r="1.49"/><circle class="cls-1" cx="106.9" cy="101.63" r="1.46"/><circle class="cls-1" cx="106.9" cy="101.63" r="1.44"/><circle class="cls-1" cx="106.9" cy="101.63" r="1.41"/><circle class="cls-1" cx="106.9" cy="101.63" r="1.38"/><circle class="cls-1" cx="106.9" cy="101.63" r="1.35"/><circle class="cls-1" cx="106.9" cy="101.63" r="1.32"/><circle class="cls-1" cx="106.9" cy="101.63" r="1.3"/><circle class="cls-1" cx="106.9" cy="101.63" r="1.27"/><circle class="cls-1" cx="106.9" cy="101.63" r="1.24"/><circle class="cls-1" cx="106.9" cy="101.63" r="1.21"/><circle class="cls-1" cx="106.9" cy="101.63" r="1.18"/><circle class="cls-1" cx="106.9" cy="101.63" r="1.15"/><circle class="cls-1" cx="106.9" cy="101.63" r="1.13"/><circle class="cls-1" cx="106.9" cy="101.63" r="1.1"/><circle class="cls-1" cx="106.9" cy="101.63" r="1.07"/><circle class="cls-1" cx="106.9" cy="101.63" r="1.04"/><circle class="cls-1" cx="106.9" cy="101.63" r="1.01"/><circle class="cls-1" cx="106.9" cy="101.63" r="0.99"/><circle class="cls-1" cx="106.9" cy="101.63" r="0.96"/><circle class="cls-1" cx="106.9" cy="101.63" r="0.93"/><circle class="cls-1" cx="106.9" cy="101.63" r="0.9"/><circle class="cls-1" cx="106.9" cy="101.63" r="0.87"/><circle class="cls-1" cx="106.9" cy="101.63" r="0.84"/><circle class="cls-1" cx="106.9" cy="101.63" r="0.82"/><circle class="cls-1" cx="106.9" cy="101.63" r="0.79"/><circle class="cls-1" cx="106.9" cy="101.63" r="0.76"/><circle class="cls-1" cx="106.9" cy="101.63" r="0.73"/><circle class="cls-1" cx="106.9" cy="101.63" r="0.7"/><circle class="cls-1" cx="106.9" cy="101.63" r="0.68"/><circle class="cls-1" cx="106.9" cy="101.63" r="0.65"/><circle class="cls-1" cx="106.9" cy="101.63" r="0.62"/><circle class="cls-1" cx="106.9" cy="101.63" r="0.59"/><circle class="cls-1" cx="106.9" cy="101.63" r="0.56"/><circle class="cls-1" cx="106.9" cy="101.63" r="0.54"/><circle class="cls-1" cx="106.9" cy="101.63" r="0.51"/><circle class="cls-1" cx="106.9" cy="101.63" r="0.48"/><circle class="cls-1" cx="106.9" cy="101.63" r="0.45"/><circle class="cls-1" cx="106.9" cy="101.63" r="0.42"/><circle class="cls-1" cx="106.9" cy="101.63" r="0.39"/><circle class="cls-1" cx="106.9" cy="101.63" r="0.37"/><circle class="cls-1" cx="106.9" cy="101.63" r="0.34"/><circle class="cls-1" cx="106.9" cy="101.63" r="0.31"/><circle class="cls-1" cx="106.9" cy="101.63" r="0.28"/><circle class="cls-1" cx="106.9" cy="101.63" r="0.25"/><circle class="cls-1" cx="106.9" cy="101.63" r="0.23"/><circle class="cls-1" cx="106.9" cy="101.63" r="0.2"/><circle class="cls-1" cx="106.9" cy="101.63" r="0.17"/><circle class="cls-1" cx="106.9" cy="101.63" r="0.14"/><circle class="cls-1" cx="106.9" cy="101.63" r="0.11"/><circle class="cls-1" cx="106.9" cy="101.63" r="0.08"/><circle class="cls-1" cx="106.9" cy="101.63" r="0.06"/><circle class="cls-1" cx="106.9" cy="101.63" r="0.03"/></g></g><path class="cls-1" d="M2552.5,1295l-0.12-.8,0.4-.06a85.69,85.69,0,0,0,72.44-71.7l0.06-.4,0.8,0.08-0.06.46a86.14,86.14,0,0,1-25.13,48.58,87.63,87.63,0,0,1-48,23.79Zm-25.8-.21,0.06-.4Zm-0.06,0a86.17,86.17,0,0,1-48.59-25.12,87.62,87.62,0,0,1-23.8-48l-0.06-.4,0.8-.12,0.06,0.4a85.7,85.7,0,0,0,71.7,72.41v0.41Zm98.81-97.93-0.06-.4a85.69,85.69,0,0,0-71.71-72.48l-0.55-.09,0.13-.8,0.55,0.09a86.15,86.15,0,0,1,48.6,25.14,87.62,87.62,0,0,1,23.78,48l0.06,0.4Zm-170.3-.94h-0.82l0.07-.46a86.2,86.2,0,0,1,25.11-48.62,87.63,87.63,0,0,1,48-23.8l0.4-.06,0.12,0.8-0.4.06a85.7,85.7,0,0,0-72.37,71.69Z" transform="translate(-2433.22 -1107.32)"/><path class="cls-1" d="M2528.22,1230.66a24.86,24.86,0,0,1-13-21.81v-0.17H2516v0.16a24,24,0,0,0,12.57,21.09Zm24.12-.24-0.4-.71,0.65-.38a23.88,23.88,0,0,0,11.51-20.53q0-.29,0-0.59l0.81,0q0,0.3,0,.61A24.68,24.68,0,0,1,2553,1230Zm-24.79-42.1-0.49-.66,0.07,0a24.83,24.83,0,0,1,25.52-.21l-0.41.7A24,24,0,0,0,2527.55,1188.33Z" transform="translate(-2433.22 -1107.32)"/><polygon class="cls-1" points="106.85 28.59 105.08 25.53 103.31 22.47 106.85 22.47 110.38 22.47 108.61 25.53 106.85 28.59"/><g class="cls-5"><rect class="cls-1" x="90" width="30" height="30"/><rect class="cls-1" x="90" width="30" height="30"/></g><polygon class="cls-1" points="106.85 175.05 105.08 178.11 103.31 181.17 106.85 181.17 110.38 181.17 108.61 178.11 106.85 175.05"/><g class="cls-6"><rect class="cls-1" x="90" y="150" width="30" height="30"/><rect class="cls-1" x="90" y="150" width="30" height="30"/><rect class="cls-1" x="90" y="180" width="30" height="30"/><rect class="cls-1" x="90" y="180" width="30" height="30"/></g><polygon class="cls-1" points="33.4 102.16 30.34 103.93 27.28 105.7 27.28 102.16 27.28 98.63 30.34 100.39 33.4 102.16"/><g class="cls-7"><rect class="cls-1" x="30" y="90" width="30" height="30"/><rect class="cls-1" x="30" y="90" width="30" height="30"/><rect class="cls-1" y="90" width="30" height="30"/><rect class="cls-1" y="90" width="30" height="30"/></g><polygon class="cls-1" points="179.85 102.16 182.91 103.93 185.97 105.7 185.97 102.16 185.97 98.63 182.91 100.39 179.85 102.16"/><g class="cls-8"><rect class="cls-1" x="180" y="90" width="30" height="30"/><rect class="cls-1" x="180" y="90" width="30" height="30"/><rect class="cls-1" x="150" y="90" width="30" height="30"/><rect class="cls-1" x="150" y="90" width="30" height="30"/></g><path class="cls-1" d="M2616.47,1205.12l-0.81,0q0-.4,0-0.81l0.81-.05Q2616.45,1204.71,2616.47,1205.12Zm0,8.32,0,0.82-0.81-.05,0-.81Zm-0.24-11.58-0.81.08-0.08-.81,0.81-.09Zm0,14.84-0.08.81-0.81-.09,0.08-.81Zm-0.38-18.08-0.8.11-0.12-.8,0.8-.12Zm0,21.33-0.12.81-0.8-.12,0.12-.8Zm-0.51-24.56-0.8.15-0.15-.8,0.8-.16Zm0,27.78c-0.05.27-.1,0.54-0.15,0.8l-0.8-.16c0.05-.26.1-0.53,0.15-0.79Zm-0.65-31-0.79.18-0.19-.79,0.79-.19Zm0,34.19-0.19.79-0.79-.19,0.19-.79Zm-0.78-37.36-0.78.22-0.22-.78,0.78-.22Zm0,40.53-0.22.79-0.78-.22,0.22-.78Zm-0.92-43.66-0.77.25-0.25-.77,0.77-.26Zm0,46.79-0.26.78-0.77-.26,0.25-.77Zm-1-49.88-0.76.28-0.29-.76,0.76-.29Zm0,53-0.29.77-0.76-.29,0.29-.76Zm-1.17-56-0.75.32-0.32-.74,0.75-.32Zm0,59.05-0.32.75-0.74-.33,0.32-.74Zm-1.29-62-0.73.35-0.35-.73,0.73-.36Zm-0.05,65-0.36.74-0.73-.36,0.35-.73Zm-1.4-67.94-0.72.38-0.38-.71,0.71-.39Zm-0.07,70.86-0.39.72-0.71-.39,0.38-.71Zm-1.51-73.71-0.7.41-0.41-.69,0.7-.42Zm-0.08,76.58-0.42.7-0.7-.42,0.41-.7Zm-1.62-79.36-0.68.44-0.44-.68,0.68-.45Zm-0.09,82.15-0.45.68-0.68-.45,0.44-.68Zm-1.73-84.85-0.66.47-0.47-.66,0.66-.47Zm-0.1,87.57-0.48.67-0.66-.48,0.47-.66Zm-1.83-90.19-0.64.5-0.5-.64,0.64-.5Zm-0.11,92.82-0.5.64-0.64-.5,0.5-.64Zm-1.94-95.37-0.62.52-0.52-.62,0.62-.53Zm-0.12,97.91-0.53.62-0.62-.53,0.53-.62Zm-2-100.36-0.6.55-0.55-.59,0.59-.56Zm-0.13,102.82-0.56.6-0.59-.56,0.55-.59Zm-2.13-105.18-0.58.57-0.57-.57,0.57-.58Zm-0.14,107.53-0.58.57-0.57-.58,0.58-.57ZM2592,1153.27l-0.55.6-0.6-.54,0.54-.6Zm-0.14,112.05-0.61.55-0.54-.6,0.6-.54Zm-2.31-114.21-0.52.62-0.62-.52,0.52-.63Zm-0.14,116.36-0.63.52-0.51-.63,0.62-.51Zm-2.4-118.42-0.5.64-0.64-.49,0.49-.65Zm-0.15,120.46-0.65.49-0.49-.65,0.64-.49Zm-2.49-122.41-0.47.66-0.66-.46,0.46-.67Zm-0.14,124.34-0.67.46-0.46-.67,0.66-.46Zm-2.57-126.17-0.44.68-0.68-.43,0.43-.69Zm-0.14,128-0.69.44-0.43-.69,0.68-.43Zm-2.65-129.7-0.41.7-0.7-.4,0.4-.71Zm-0.14,131.4-0.71.41-0.4-.71,0.7-.4ZM2576,1142l-0.38.72-0.72-.37,0.37-.72Zm-0.13,134.57-0.72.37-0.37-.72,0.72-.37Zm-2.8-136-0.35.73-0.73-.34,0.34-.74ZM2572.95,1278l-0.74.34-0.34-.74,0.73-.34Zm-2.88-138.82-0.32.75-0.75-.31,0.31-.75Zm-0.1,140.15-0.76.31-0.31-.75,0.75-.31ZM2567,1138l-0.28.76-0.76-.28,0.27-.77Zm-0.09,142.55-0.77.28-0.27-.77,0.76-.28Zm-3-143.63-0.25.77-0.77-.24,0.24-.78Zm-0.09,144.69-0.78.25-0.24-.78,0.77-.24ZM2560.79,1136l-0.21.78-0.78-.21,0.21-.79Zm-0.08,146.56-0.79.21-0.21-.79,0.78-.21Zm-3.09-147.36-0.18.79-0.79-.18,0.17-.79Zm-0.08,148.15-0.8.18-0.17-.79,0.79-.18Zm-3.12-148.81-0.15.8-0.8-.14,0.14-.8ZM2554.33,1284l-0.81.14-0.14-.8,0.8-.14Zm-3.14-150-0.11.8-0.8-.11,0.1-.81Zm-0.08,150.51-0.81.11-0.1-.81,0.8-.11Zm-3.16-150.89-0.08.81-0.81-.07,0.07-.81Zm-0.08,151.27-0.82.07-0.07-.81,0.81-.07Zm-3.18-151.51,0,0.81-0.81,0,0-.81Zm-0.09,151.75-0.81,0,0-.81,0.81,0Zm-7.87-151-0.81,0,0-.81,0.81,0Zm0,150.16,0,0.81-0.82,0,0.05-.81Zm-3.27-149.93-0.8.08-0.09-.81,0.81-.08Zm0,149.7-0.07.81-0.81-.08,0.08-.81Zm-3.25-149.33-0.8.11-0.12-.8,0.81-.11Zm0,149-0.11.81-0.81-.12,0.12-.8Zm-3.24-148.45-0.79.15-0.15-.8,0.8-.15Zm0,147.94-0.14.8-0.8-.15,0.15-.8Zm-3.21-147.3-0.79.18-0.19-.79,0.8-.18Zm0,146.65-0.18.79-0.8-.18,0.19-.79Zm-3.18-145.87-0.78.22-0.22-.78,0.79-.22Zm0,145.09-0.21.78-0.79-.22,0.22-.78Zm-3.14-144.17-0.77.25-0.26-.77,0.78-.25Zm0,143.26-0.25.77-0.78-.25,0.26-.77Zm-3.1-142.21-0.76.28-0.29-.76,0.77-.29Zm0,141.15-0.28.76-0.77-.29,0.29-.76Zm-3-140-0.74.32-0.32-.75,0.75-.32Zm0,138.79-0.31.75-0.75-.32,0.32-.75Zm-3-137.48-0.73.35-0.35-.73,0.74-.35Zm0,136.16-0.35.74-0.74-.35,0.35-.73Zm-2.89-134.73-0.71.38-0.38-.72,0.72-.38Zm0,133.29-0.38.72-0.72-.38,0.39-.72ZM2503,1144.15l-0.69.41-0.42-.7,0.7-.41Zm0,130.17-0.41.7-0.71-.41,0.42-.7Zm-2.73-128.49-0.68.44-0.44-.68,0.68-.44Zm0,126.8-0.44.69-0.69-.44,0.45-.68Zm-2.65-125-0.66.47-0.47-.66,0.67-.47Zm0,123.21-0.47.66-0.67-.47,0.47-.66Zm-2.57-121.3-0.64.49-0.5-.64,0.65-.5Zm0,119.38-0.49.64-0.65-.5,0.5-.64Zm-2.48-117.36-0.62.52-0.53-.62,0.62-.53Zm0,115.34-0.52.62-0.62-.53,0.53-.62ZM2490,1153.68l-0.59.55-0.55-.6,0.6-.55Zm0,111.08-0.55.6-0.6-.55,0.55-.59Zm-2.29-108.85-0.57.57-0.58-.57,0.58-.58Zm0,106.62-0.57.58-0.58-.58,0.58-.57Zm-2.2-104.29-0.55.6-0.6-.55,0.55-.6Zm0,102-0.6.55-0.55-.6,0.6-.54Zm-2.1-99.54-0.52.62-0.63-.52,0.53-.63Zm0,97.11-0.62.52-0.52-.63,0.63-.52Zm-2-94.6-0.49.64-0.65-.49,0.5-.65Zm0,92.09-0.64.5-0.5-.65,0.65-.49Zm-1.89-89.49-0.47.66-0.67-.46,0.47-.67Zm0,86.9-0.66.47-0.47-.67,0.67-.46Zm-1.78-84.21-0.44.68-0.69-.43,0.44-.69Zm0,81.54-0.68.44-0.44-.69,0.69-.43Zm-1.67-78.79-0.41.7-0.7-.4,0.41-.71Zm0,76-0.7.41-0.41-.71,0.71-.4Zm-1.56-73.21-0.38.72-0.72-.37,0.38-.72Zm0,70.39-0.72.38-0.38-.72,0.72-.37Zm-1.44-67.5-0.35.73-0.74-.34,0.35-.74Zm0,64.62-0.73.35-0.35-.74,0.74-.34Zm-1.32-61.66-0.31.75-0.75-.31,0.32-.76Zm0,58.72-0.75.32-0.31-.75,0.75-.31Zm-1.2-55.71-0.28.76-0.76-.28,0.28-.77Zm0,52.72-0.76.29-0.28-.77,0.76-.28ZM2469.1,1186l-0.25.77-0.78-.24,0.25-.78Zm0,46.6-0.77.25-0.25-.78,0.78-.24Zm-0.94-43.5-0.21.78-0.79-.21,0.21-.79Zm0,40.4-0.78.22-0.22-.79,0.79-.21Zm-0.81-37.27-0.18.79-0.79-.17,0.18-.8Zm0,34.14-0.79.18-0.18-.8,0.79-.18Zm-0.67-31q-0.07.4-.14,0.79l-0.8-.14q0.07-.4.15-0.81Zm0,27.81-0.8.15-0.15-.8,0.8-.14Zm-0.53-24.62q-0.06.4-.11,0.8l-0.81-.11q0.05-.4.11-0.81Zm0,21.42-0.8.11q-0.06-.4-0.11-0.81l0.81-.11Zm-0.39-18.21q0,0.4-.08.81l-0.81-.07c0-.27,0-0.54.08-0.81Zm0,15-0.81.08q0-.41-0.08-0.81l0.81-.07Q2465.75,1216.36,2465.79,1216.76Zm-0.25-11.78q0,0.41,0,.81l-0.81,0q0-.41,0-0.82Zm0,8.55-0.81,0q0-.41,0-0.82l0.81,0Q2465.52,1213.13,2465.54,1213.54Z" transform="translate(-2433.22 -1107.32)"/></g></g></svg>