<svg preserveAspectRatio="none" id="Layer_1" data-name="Layer 1" xmlns="http://www.w3.org/2000/svg" viewBox="0 0 104.2 104.21"><defs><style>.cls-1{fill:#095561}.cls-2{fill:#ff8a29}.cls-3{fill:#12aac2}.cls-4{fill:#07081a}.cls-5{fill:#d7f1f5}.cls-6{fill:#cdedf2}.cls-7{fill:#c1e9ef}.cls-8{fill:#b1e4eb}.cls-9{fill:#9ddde6}.cls-10{fill:#85d4e0}.cls-11{fill:#67c9d8}.cls-12{fill:#41bbce}</style></defs><path class="cls-1" d="M225 269.31a44.21 44.21 0 01-23-6.45l5.73-9.39A33.3 33.3 0 00254 208.58l9.56-5.44A44.3 44.3 0 01225 269.31zM186.59 247.08a44.3 44.3 0 0160.7-60.35l-5.54 9.5a33.3 33.3 0 00-45.62 45.36z" transform="translate(-172.9 -172.91)"/><path class="cls-2" d="M229.8 221.68H242a17.88 17.88 0 00-13.66-14.06v12.64a5.91 5.91 0 011.46 1.42zM220.2 228.45H207a17.87 17.87 0 0014.67 14.24v-12.82a5.91 5.91 0 01-1.47-1.42z" transform="translate(-172.9 -172.91)"/><path class="cls-3" d="M226.38 219.36V200.2a1.38 1.38 0 00-1.38-1.38 1.38 1.38 0 00-1.38 1.38v19.16a5.7 5.7 0 012.76 0zM219.29 223.68h-19.16a1.38 1.38 0 00-1.38 1.38 1.38 1.38 0 001.38 1.38h19.16a5.7 5.7 0 010-2.76zM223.62 230.77v19.16a1.38 1.38 0 001.38 1.38 1.38 1.38 0 001.38-1.38v-19.16a5.67 5.67 0 01-2.76 0zM230.71 226.45h19.16a1.38 1.38 0 001.38-1.38 1.38 1.38 0 00-1.38-1.38h-19.16a5.7 5.7 0 010 2.76zM232.81 203.45h-.08a22.84 22.84 0 00-4.38-1.09.25.25 0 01-.21-.28.25.25 0 01.28-.21 23.33 23.33 0 014.47 1.11.25.25 0 01-.08.47zM217.33 203.4a.25.25 0 01-.08-.49 23.39 23.39 0 014.34-1.07.25.25 0 01.07.5 22.85 22.85 0 00-4.25 1h-.08zM207.43 210.16a.25.25 0 01-.19-.41 23.36 23.36 0 013.23-3.09.25.25 0 01.31.39 22.93 22.93 0 00-3.16 3 .25.25 0 01-.19.11zM202.24 221a.25.25 0 01-.2-.29 23.39 23.39 0 011.25-4.29.25.25 0 11.46.18 22.89 22.89 0 00-1.22 4.2.25.25 0 01-.29.2zM203.15 232.92a.25.25 0 01-.24-.17 23.44 23.44 0 01-1.07-4.34.25.25 0 01.5-.07 22.88 22.88 0 001 4.25.25.25 0 01-.15.32h-.08zM209.91 242.82a.25.25 0 01-.16-.06 23.47 23.47 0 01-3.09-3.22.25.25 0 01.39-.31 23 23 0 003 3.16.25.25 0 01-.14.43zM220.72 248a23.5 23.5 0 01-4.29-1.25.25.25 0 11.18-.46 22.86 22.86 0 004.2 1.22.25.25 0 01-.09.49zM228.38 248.16a.25.25 0 010-.5 22.87 22.87 0 004.25-1 .26.26 0 01.32.15.25.25 0 01-.15.32 23.38 23.38 0 01-4.34 1.07zM239.38 243.4a.25.25 0 01-.16-.45 22.85 22.85 0 003.16-3 .25.25 0 11.38.33 23.39 23.39 0 01-3.23 3.09.25.25 0 01-.15.03zM246.53 233.77h-.09a.25.25 0 01-.14-.33 22.77 22.77 0 001.22-4.2.25.25 0 01.49.09 23.39 23.39 0 01-1.25 4.29.25.25 0 01-.23.15zM247.9 221.87a.25.25 0 01-.25-.21 22.81 22.81 0 00-1-4.25.25.25 0 01.47-.17 23.31 23.31 0 011.06 4.34.25.25 0 01-.21.28zM243.15 210.87a.25.25 0 01-.2-.1 22.84 22.84 0 00-3-3.16.25.25 0 11.33-.38 23.4 23.4 0 013.09 3.23.25.25 0 01-.22.41z" transform="translate(-172.9 -172.91)"/><circle class="cls-2" cx="52.1" cy="52.11" r="2.98"/><circle class="cls-4" cx="41.55" cy="62.66" r="1.23"/><circle class="cls-4" cx="45.24" cy="58.97" r="1.23"/><circle class="cls-4" cx="62.65" cy="41.56" r="1.23"/><circle class="cls-4" cx="58.9" cy="45.31" r="1.23"/><path class="cls-2" d="M220.62 221.18l-11.42-5.33c-.21.35-.41.7-.59 1.06l11.94 4.35zM220.75 221l-10.18-7.13q-.37.46-.71.95l10.83 6.25zM207.25 220.4c-.11.42-.22.85-.3 1.28h13.25l.12-.14zM221.62 220.27v-12.83c-.4.07-.8.15-1.2.24l1.11 12.66zM220.48 221.35l-12.4-3.35c-.16.38-.32.77-.45 1.16l12.77 2.25zM221.25 220.58L217 208.87q-.54.25-1.06.53l5.24 11.23zM221.43 220.43L219.24 208c-.39.12-.77.25-1.14.4l3.24 12.1z" transform="translate(-172.9 -172.91)"/><path class="cls-3" d="M213 211.38c-.3.25-.59.51-.87.78s-.55.55-.82.84l9.48 8 .07-.07.07-.06z" transform="translate(-172.9 -172.91)"/><path class="cls-2" d="M221.09 220.71L214.92 210c-.33.21-.66.43-1 .66l7.08 10.1zM229.35 228.93l11.1 5.18q.3-.5.58-1l-11.61-4.23zM229.23 229.08l9.9 6.93c.24-.3.47-.61.69-.92L229.29 229zM242.35 229.7c.11-.41.21-.83.29-1.25h-12.88l-.12.14zM228.38 229.83v12.47c.39-.06.78-.15 1.16-.24l-1.08-12.3zM229.49 228.77l12.05 3.23c.16-.37.31-.75.44-1.13l-12.42-2.19zM228.74 229.52l4.14 11.38q.52-.24 1-.52l-5.09-10.92zM228.57 229.67l2.13 12.07c.38-.12.75-.25 1.11-.39l-3.15-11.76z" transform="translate(-172.9 -172.91)"/><path class="cls-3" d="M236.74 238.46c.29-.24.57-.5.84-.76s.54-.54.8-.82l-9.21-7.73-.06.07-.07.06z" transform="translate(-172.9 -172.91)"/><path class="cls-2" d="M228.89 229.4l6 10.4c.32-.2.64-.42.94-.64l-6.83-9.82z" transform="translate(-172.9 -172.91)"/><path class="cls-5" d="M49.97 9.85h4.26v7.34h-4.26z"/><path class="cls-6" transform="matrix(.98 -.17 .17 .98 -202.06 -132.15)" d="M216.17 183.35h4.26v7.34h-4.26z"/><path class="cls-6" transform="rotate(-20 -364.967 592.567)" d="M209.67 185.09h4.26v7.34h-4.26z"/><path class="cls-7" transform="rotate(-30 -203.366 427.788)" d="M203.58 187.93h4.26v7.34h-4.26z"/><path class="cls-8" transform="rotate(-40 -123.79 346.52)" d="M198.07 191.79h4.26v7.34h-4.26z"/><path class="cls-9" transform="rotate(-50 -76.397 299.16)" d="M193.31 196.54h4.26v7.34h-4.26z"/><path class="cls-10" transform="rotate(-59.99 -44.623 269.044)" d="M189.46 202.05h4.26v7.34h-4.26z"/><path class="cls-11" transform="rotate(-70 -21.163 248.832)" d="M186.61 208.15h4.26v7.34h-4.26z"/><path class="cls-12" transform="rotate(-80.2 -2.815 235.764)" d="M184.87 214.64h4.26v7.34h-4.26z"/><path class="cls-3" transform="rotate(-90 13.515 225.015)" d="M184.29 221.34h4.26v7.34h-4.26z"/><path class="cls-5" transform="rotate(180 138.55 177.145)" d="M222.87 259.93h4.26v7.34h-4.26z"/><path class="cls-6" transform="rotate(170 152.824 168.987)" d="M229.57 259.34h4.26v7.34h-4.26z"/><path class="cls-6" transform="rotate(160 166.998 159.565)" d="M236.06 257.6h4.26v7.34h-4.26z"/><path class="cls-7" transform="rotate(150.01 181.007 148.805)" d="M242.16 254.76h4.26v7.34h-4.26z"/><path class="cls-8" transform="rotate(140 194.813 136.658)" d="M247.67 250.9h4.26v7.34h-4.26z"/><path class="cls-9" transform="rotate(130 208.42 123.047)" d="M252.42 246.14h4.26v7.34h-4.26z"/><path class="cls-10" transform="rotate(119.99 221.885 107.95)" d="M256.28 240.63h4.26v7.34h-4.26z"/><path class="cls-11" transform="rotate(109.99 235.351 91.218)" d="M259.12 234.54h4.26v7.34h-4.26z"/><path class="cls-12" transform="rotate(100 249.092 72.729)" d="M260.87 228.04h4.26v7.34h-4.26z"/><path class="cls-3" transform="rotate(90 263.585 52.115)" d="M261.45 221.34h4.26v7.34h-4.26z"/><path class="cls-3" d="M173.39 225l.08-3.48.06-1.83.28-2.15.32-2.45c.09-.87.39-1.74.59-2.67l.71-2.9 1.06-3 .55-1.57c.21-.52.47-1 .7-1.55l1.51-3.19a53.08 53.08 0 0120.93-20.94l3.19-1.51c.52-.24 1-.5 1.55-.7l1.57-.55 3-1.06 2.9-.71c.93-.2 1.81-.5 2.67-.59l2.45-.32 2.15-.28 1.84-.06 3.48-.08-3.47.27-1.83.14-2.12.37-2.41.42c-.85.13-1.71.44-2.63.66l-2.84.78-2.94 1.12-1.53.58c-.51.22-1 .49-1.51.74l-3.1 1.51a54.46 54.46 0 00-20.6 20.6l-1.53 3.11c-.25.51-.52 1-.74 1.51l-.58 1.53-1.15 2.95-.78 2.84c-.23.92-.53 1.78-.66 2.63l-.42 2.41-.37 2.12-.14 1.83z" transform="translate(-172.9 -172.91)"/><path class="cls-2" d="M276.61 225l-.08 3.48c0 .55 0 1.17-.06 1.83l-.28 2.15-.32 2.45c-.09.87-.39 1.74-.59 2.67l-.71 2.9-1.06 3-.51 1.6c-.21.52-.47 1-.7 1.55l-1.51 3.19a53.08 53.08 0 01-20.93 20.94l-3.19 1.51c-.52.24-1 .5-1.55.7l-1.57.55-3 1.06-2.9.71c-.93.2-1.81.5-2.67.59l-2.45.32-2.15.28-1.84.06-3.48.08 3.47-.27 1.82-.14 2.12-.37 2.41-.42c.85-.13 1.71-.44 2.63-.66l2.84-.78 2.94-1.12 1.53-.59c.51-.22 1-.49 1.51-.74l3.07-1.53a54.45 54.45 0 0020.6-20.59l1.53-3.11c.25-.51.52-1 .74-1.51l.58-1.53 1.15-2.96.78-2.84c.23-.91.53-1.78.66-2.63l.42-2.41.37-2.12.14-1.83zM225 173.89a.5.5 0 01-.35-.14.48.48 0 01-.15-.36.47.47 0 01.15-.35.51.51 0 01.7 0 .47.47 0 01.15.35.48.48 0 01-.15.36.5.5 0 01-.35.14zM249.22 180a.49.49 0 01-.21-.67.5.5 0 01.68-.21.5.5 0 01.2.68.49.49 0 01-.44.26.47.47 0 01-.23-.06zm-4.56-2.17a.49.49 0 01-.26-.65.49.49 0 01.65-.27.51.51 0 01.27.66.5.5 0 01-.46.3.48.48 0 01-.2-.05zm-4.74-1.7a.51.51 0 01-.33-.63.5.5 0 01.62-.33.49.49 0 01.33.62.49.49 0 01-.47.36zm-4.92-1.24a.5.5 0 01-.39-.59.49.49 0 01.59-.39.5.5 0 01.39.59.51.51 0 01-.49.4h-.1zm-5-.74a.5.5 0 01-.45-.55.51.51 0 01.55-.45.51.51 0 01.45.55.51.51 0 01-.5.45zM253.81 182.68a.52.52 0 01-.35-.14.51.51 0 01-.15-.36.47.47 0 01.15-.35.49.49 0 01.85.35.5.5 0 01-.14.35.51.51 0 01-.36.15zM267.89 196.8a.5.5 0 01-.35-.14.51.51 0 01-.15-.36.5.5 0 01.14-.35.52.52 0 01.71 0 .51.51 0 01.15.36.5.5 0 01-.14.35.51.51 0 01-.36.14zM275.86 220a.5.5 0 01.45-.54.5.5 0 01.55.44.51.51 0 01-.45.55h-.05a.5.5 0 01-.5-.45zm-.73-5a.48.48 0 01.39-.58.49.49 0 01.59.39.51.51 0 01-.39.59h-.1a.51.51 0 01-.49-.4zm-1.22-4.87a.5.5 0 01.33-.62.51.51 0 01.63.33.5.5 0 01-.34.63h-.14a.5.5 0 01-.48-.33zm-1.69-4.72a.5.5 0 01.26-.66.52.52 0 01.66.27.51.51 0 01-.27.66.65.65 0 01-.19 0 .5.5 0 01-.46-.27zm-2.16-4.54a.5.5 0 01.21-.68.49.49 0 01.67.21.51.51 0 01-.21.68.5.5 0 01-.24.06.5.5 0 01-.43-.26z" transform="translate(-172.9 -172.91)"/><path class="cls-2" d="M276.61 225.51a.51.51 0 01-.36-.15.51.51 0 010-.7.52.52 0 01.71 0 .54.54 0 01.14.36.5.5 0 01-.14.35.47.47 0 01-.35.14zM244.35 205.92a.25.25 0 01-.18-.43l16.76-16.76a.25.25 0 01.35.35l-16.76 16.76a.25.25 0 01-.17.08z" transform="translate(-172.9 -172.91)"/><path class="cls-2" d="M253.64 201.48a.25.25 0 01-.18-.07l-4.78-4.78a.25.25 0 01.35-.35l4.78 4.78a.25.25 0 01-.17.42zM257.33 200.39a.25.25 0 01-.18-.07l-7.41-7.41a.25.25 0 01.35-.35l7.41 7.41a.25.25 0 01-.17.42zM264.5 193.47a.5.5 0 01-.43-.25 19.64 19.64 0 00-7.27-7.27.5.5 0 01.5-.87 20.63 20.63 0 017.64 7.64.5.5 0 01-.44.75z" transform="translate(-172.9 -172.91)"/><circle class="cls-3" cx="71.39" cy="32.76" r="1.2"/><path class="cls-3" d="M225 277.12a.51.51 0 01-.35-.15.47.47 0 01-.15-.35.48.48 0 01.15-.36.52.52 0 01.7 0 .48.48 0 01.15.36.47.47 0 01-.15.35.51.51 0 01-.35.15zM219.86 276.86a.5.5 0 01-.45-.54.5.5 0 01.55-.45.51.51 0 01.45.55.52.52 0 01-.5.45zm-5.08-.75a.5.5 0 01-.4-.59.5.5 0 01.59-.39.49.49 0 01.39.59.49.49 0 01-.49.4h-.09zm-5-1.25a.5.5 0 01-.34-.63.51.51 0 01.63-.33.51.51 0 01.33.63.5.5 0 01-.48.35zm-4.84-1.74a.5.5 0 01-.27-.66.52.52 0 01.66-.27.5.5 0 01.26.66.5.5 0 01-.46.31.66.66 0 01-.18-.04zm-4.64-2.22a.49.49 0 01-.2-.67.49.49 0 01.67-.21.5.5 0 01.21.68.5.5 0 01-.45.26.46.46 0 01-.22-.06zM196.19 268.33a.5.5 0 01-.35-.14.51.51 0 01-.15-.36.49.49 0 01.85-.35.47.47 0 01.15.35.51.51 0 01-.15.35.47.47 0 01-.35.15zM182.11 254.21a.47.47 0 01-.35-.15.49.49 0 01-.15-.35.5.5 0 01.14-.35.51.51 0 01.71 0 .49.49 0 01.15.36.51.51 0 01-.5.49zM179.06 249.61a.5.5 0 01.2-.68.5.5 0 01.68.21.49.49 0 01-.21.67.47.47 0 01-.23.06.49.49 0 01-.44-.26zm-2.2-4.63a.5.5 0 01.27-.65.49.49 0 01.65.27.5.5 0 01-.27.66.57.57 0 01-.19 0 .49.49 0 01-.46-.26zm-1.73-4.81a.5.5 0 01.34-.62.5.5 0 01.62.34.51.51 0 01-.33.63h-.15a.51.51 0 01-.48-.36zm-1.24-5a.5.5 0 01.39-.59.5.5 0 01.59.39.5.5 0 01-.39.59h-.1a.5.5 0 01-.49-.36zm-.75-5.07a.5.5 0 01.45-.54.5.5 0 01.55.45.5.5 0 01-.45.54h-.05a.52.52 0 01-.5-.43zM173.39 225.51a.48.48 0 01-.49-.5.51.51 0 01.14-.36.52.52 0 01.71 0 .51.51 0 010 .7.51.51 0 01-.36.16zM188.89 261.35a.25.25 0 01-.18-.43l16.76-16.76a.25.25 0 11.35.35l-16.76 16.76a.25.25 0 01-.17.08z" transform="translate(-172.9 -172.91)"/><path class="cls-3" d="M201.14 253.81a.25.25 0 01-.18-.07l-4.78-4.74a.25.25 0 11.35-.35l4.78 4.78a.25.25 0 01-.17.38zM200.08 257.53a.25.25 0 01-.18-.07l-7.41-7.46a.25.25 0 01.35-.35l7.41 7.41a.25.25 0 01-.17.47zM193 265a.5.5 0 01-.25-.07 20.63 20.63 0 01-7.64-7.64.5.5 0 01.87-.5 19.64 19.64 0 007.27 7.27.5.5 0 01-.25.94z" transform="translate(-172.9 -172.91)"/><circle class="cls-2" cx="32.81" cy="71.44" r="1.2"/><circle class="cls-2" cx="94.5" cy="9.7" r="2.72"/><path d="M267.4 177.89a4.72 4.72 0 104.72 4.72 4.72 4.72 0 00-4.72-4.72zm-2.72 4.72a2.72 2.72 0 112.72 2.72 2.73 2.73 0 01-2.72-2.72z" transform="translate(-172.9 -172.91)" fill="#0e8092"/><circle class="cls-3" cx="9.6" cy="94.59" r="2.72"/><path class="cls-2" d="M182.5 262.77a4.72 4.72 0 104.72 4.72 4.72 4.72 0 00-4.72-4.72zm-2.72 4.72a2.72 2.72 0 112.72 2.72 2.73 2.73 0 01-2.73-2.71z" transform="translate(-172.9 -172.91)"/></svg>