<svg preserveAspectRatio="none" id="Layer_1" data-name="Layer 1" xmlns="http://www.w3.org/2000/svg" xmlns:xlink="http://www.w3.org/1999/xlink" viewBox="0 0 102.67 104.17"><defs><style>.cls-1{fill:#2e2855;}.cls-2{fill:url(#linear-gradient);}.cls-3{fill:url(#linear-gradient-2);}.cls-4{fill:#e9aa4f;}.cls-5{fill:#3d6db8;}</style><linearGradient id="linear-gradient" x1="239.52" y1="120.36" x2="239.52" y2="59.68" gradientUnits="userSpaceOnUse"><stop offset="0.01" stop-color="#5d85c4"/><stop offset="1" stop-color="#334f7e"/></linearGradient><linearGradient id="linear-gradient-2" x1="200.16" y1="89.45" x2="278.83" y2="89.45" gradientUnits="userSpaceOnUse"><stop offset="0.03" stop-color="#71ebb2"/><stop offset="0.99" stop-color="#339567"/></linearGradient></defs><title>circle2</title><path class="cls-1" d="M239.49,141.33A51.33,51.33,0,1,1,290.83,90,51.39,51.39,0,0,1,239.49,141.33Zm0-100.67A49.33,49.33,0,1,0,288.83,90,49.39,49.39,0,0,0,239.49,40.67Z" transform="translate(-188.16 -37.17)"/><path class="cls-1" d="M239.49,132.33A42.33,42.33,0,1,1,281.83,90,42.38,42.38,0,0,1,239.49,132.33Zm0-76.67A34.33,34.33,0,1,0,273.83,90,34.37,34.37,0,0,0,239.49,55.67Z" transform="translate(-188.16 -37.17)"/><path class="cls-1" d="M239.49,120.33A30.33,30.33,0,1,1,269.83,90,30.37,30.37,0,0,1,239.49,120.33Zm0-52.67A22.33,22.33,0,1,0,261.83,90,22.36,22.36,0,0,0,239.49,67.67Z" transform="translate(-188.16 -37.17)"/><path class="cls-2" d="M239.77,120.36l-0.07-8a22.34,22.34,0,0,0,3.58-.32l1.36,7.88A30.35,30.35,0,0,1,239.77,120.36Zm-4.88-.36a30.33,30.33,0,0,1-4.76-1.14l2.49-7.6a22.23,22.23,0,0,0,3.5.84Zm14.49-1.29-2.59-7.57a22.39,22.39,0,1,0-23.27-5.55l-5.72,5.59A30.33,30.33,0,1,1,249.38,118.71ZM225.62,117a30.66,30.66,0,0,1-4.15-2.58l4.76-6.43a22.62,22.62,0,0,0,3.06,1.91Z" transform="translate(-188.16 -37.17)"/><path class="cls-3" d="M248.72,128.24l-0.47-1.94A37.38,37.38,0,0,0,276.83,90h2A39.38,39.38,0,0,1,248.72,128.24Zm-34.45-8.08a39.32,39.32,0,0,1,25.23-69.49v2a37.32,37.32,0,0,0-23.94,66Z" transform="translate(-188.16 -37.17)"/><path class="cls-4" d="M268.19,132.57l-1.12-1.66a49.35,49.35,0,0,0,12.53-69.63l1.63-1.17A51.35,51.35,0,0,1,268.19,132.57Z" transform="translate(-188.16 -37.17)"/><path class="cls-5" d="M195.48,71.25l-4.6-2a52.79,52.79,0,0,1,48.62-32.12v5A47.79,47.79,0,0,0,195.48,71.25Z" transform="translate(-188.16 -37.17)"/><circle class="cls-1" cx="51.33" cy="26.52" r="2.63"/><circle class="cls-1" cx="247.67" cy="64.99" r="2.63" transform="translate(-79.26 243.02) rotate(-71.89)"/><circle class="cls-1" cx="255.04" cy="68.77" r="2.63" transform="translate(-139.32 196.71) rotate(-53.78)"/><circle class="cls-1" cx="260.87" cy="74.66" r="2.63" transform="translate(-182.76 128.93) rotate(-35.66)"/><circle class="cls-1" cx="264.58" cy="82.07" r="2.63" transform="translate(-200.59 46.44) rotate(-17.55)"/><circle class="cls-1" cx="265.8" cy="90.26" r="2.63" transform="translate(-15.22 318) rotate(-89.44)"/><circle class="cls-1" cx="264.42" cy="98.42" r="2.63" transform="translate(-101.65 280.24) rotate(-71.33)"/><circle class="cls-1" cx="260.57" cy="105.76" r="2.63" transform="translate(-168.33 213.94) rotate(-53.21)"/></svg>