<svg preserveAspectRatio="none" xmlns="http://www.w3.org/2000/svg" xmlns:xlink="http://www.w3.org/1999/xlink" viewBox="0 0 90.44 90.44"><defs><linearGradient id="linear-gradient" x1="837.94" y1="278.1" x2="908.06" y2="278.1" gradientUnits="userSpaceOnUse"><stop offset="0" stop-color="#29abe2"/><stop offset=".13" stop-color="#47b7e6" stop-opacity=".86"/><stop offset=".56" stop-color="#a9ddf3" stop-opacity=".4"/><stop offset=".86" stop-color="#e7f6fc" stop-opacity=".11"/><stop offset="1" stop-color="#fff" stop-opacity="0"/></linearGradient><linearGradient id="linear-gradient-2" x1="11.59" y1="42.95" x2="78.35" y2="42.95" xlink:href="#linear-gradient"/><linearGradient id="linear-gradient-4" x1="836.37" y1="279" x2="909.14" y2="279" xlink:href="#linear-gradient"/><clipPath id="clip-path" transform="translate(-828.03 -235.15)"><circle cx="873" cy="278.1" r="32.13" fill="none"/></clipPath><clipPath id="clip-path-3" transform="translate(-828.03 -235.15)"><path class="cls-2" d="M850.68 255.68l.08-.15h.06l.19-.09.11-.06.22-.17a.76.76 0 01.24-.12h.19v.07l.08.07h.22v.19h.12l-.06.14-.24.2h-.18a.22.22 0 01-.13-.05h-.06l-.17.08-.12.07-.18.1a.42.42 0 01-.25 0c-.07 0 0 0 .11-.15s0 0 0-.06v-.19c0-.11 0 0-.06 0a.09.09 0 01-.17.12zm-.75 1.22h.07l.14-.05h.07l.09-.06.14-.11v-.05a.08.08 0 000-.07h-.08l-.15.07a.55.55 0 00-.13.12.12.12 0 00-.08.09zm-3.69 2.57l-.28.24a1.49 1.49 0 00-.13.18.16.16 0 00.14 0c.07 0 .11-.07.22-.11s.15-.09.24-.12a.14.14 0 00.09 0 2.25 2.25 0 01.28-.13h.06v.07c0 .01 0 0 .09 0a.54.54 0 00.19-.07c.07 0 .23-.17.29-.2a3 3 0 00.26-.17.75.75 0 01.16-.07 2.69 2.69 0 00.35-.22 1.34 1.34 0 01.28-.17 3 3 0 00.32-.14l.21-.08a1 1 0 00.2-.09.49.49 0 01.15-.11 1 1 0 00.19-.17 1 1 0 00.17-.26v-.16h-.19l-.21.1-.16.06h-.06v-.14h-.06l-.22.06-.13.07-.1.08a1.74 1.74 0 00-.12.17 1.43 1.43 0 01-.13.16.22.22 0 010 .07 1.43 1.43 0 01-.19.16l-.14.09-.16.07h-.39l-.27.14-.21.11a.33.33 0 00-.18.11 2.36 2.36 0 00-.21.19l-.15.19zm7.32-5.63a.14.14 0 000 .05c0 .09.05-.06 0 .09s0 .18 0 .17h.11l.15-.07.18-.08a1.33 1.33 0 00.23-.06h.1a.65.65 0 010 .14c0 .07-.07.13-.09.23a1.26 1.26 0 01-.09.23v.12a.39.39 0 00.13 0l.19-.07a1 1 0 01.22-.07.32.32 0 00.14 0l.15-.06.2-.15a1.22 1.22 0 01.2-.15 2.28 2.28 0 00.26-.17.61.61 0 01.15-.28.79.79 0 00.17-.1l.14-.07a.35.35 0 01.11-.08.51.51 0 00.14-.16l.06-.11v-.09a.07.07 0 00-.06-.05l-.27-.08v-.2l-.09-.05-.22.06h-.18l-.13-.17h-.53s.1-.1-.13 0a1.8 1.8 0 00-.35.25.88.88 0 00-.23.25.76.76 0 01-.16.21l-.26.25a.4.4 0 00-.13.16c-.06.02-.1.06-.11.11zm-1.91 2.57a.55.55 0 00-.21.12 1 1 0 01-.22.14l-.11.08-.22.2-.22.11h-.09v-.07l-.06-.07a.21.21 0 00-.13.06l-.17.14a.31.31 0 00-.07.12v.07l.07.08h.13v.07h.12a.58.58 0 00.19 0h.13a.35.35 0 01.13 0 .54.54 0 00.19 0h.15a1.6 1.6 0 01.26-.1.37.37 0 00.14-.11.27.27 0 01.12-.1.55.55 0 00.17-.08l.17-.19.11-.2-.09-.07h-.05v-.1l-.07-.05v-.16h-.2zm.86-1.05H852.66v.18l.24-.08h.15l.33-.22v-.14a.51.51 0 00.06-.14.15.15 0 010-.08.69.69 0 00.07-.16v-.14a.64.64 0 00-.25.09.21.21 0 00-.12.07s-.1.06-.17.07a1 1 0 01-.18.06c-.09 0 0 0-.11.08a.43.43 0 00-.15.19l-.06.14zm17.17 36V292.5s0 .16-.08.35a2.14 2.14 0 01-.14.45 2 2 0 01-.22.27v.76l-.17.42V295.78l-.26.36-.12.32-.13.23a1.36 1.36 0 01-.43.26 1.55 1.55 0 00-.39.16l-.21.13a2.2 2.2 0 01-.47.11 1 1 0 00-.37.3c-.25.12 0 0-.13 0a.35.35 0 00-.16.27h-.13a.22.22 0 00-.12.22v.18l-.19.4v.51l-.19.3a.87.87 0 01-.32.15.51.51 0 00-.19.26.78.78 0 00-.18.39v.19l-.26.33-.22.29-.15.16-.27.14-.18.06h-.24l-.06.17-.13.25v.41l-.12.34-.37.16-.22.14c-.22.14 0 0-.12 0a1.06 1.06 0 01-.32 0l-.28-.06v.21l-.1.11a.5.5 0 00-.12.24l-.14.06-.14.06V304.73l-.08.15-.24.28v.39l.1.33.15.21v.36l-.1.18-.22.1-.11.14-.09.34v.28l.07.43.12.37.21.32.21.32.26.25.27.17v.17l-.1.13-.08.05a.38.38 0 01-.35-.12 1.63 1.63 0 01-.48-.25c-.28-.22-.14-.05-.14-.05l-.27-.18-.17-.1-.31-.31c-.23-.24-.13-.25-.13-.25l-.12-.2a.54.54 0 00-.09-.43 3.25 3.25 0 01-.27-.37l-.07-.14a3.84 3.84 0 00-.27-.38c-.26-.33 0 0 0-.13a.87.87 0 00-.11-.39.3.3 0 01-.07-.26l-.1-.23c-.1-.23 0 0 0-.13a1 1 0 00-.19-.34 1 1 0 01-.14-.29v-.25a1.56 1.56 0 000-.39.25.25 0 00.22-.13v-.18l-.09-.23-.09-.31-.09-.31-.2-.22v-.2l.13-.09.15-.17a1.73 1.73 0 000-.34c0-.09-.06-.25-.1-.38l-.07-.25-.08-.29c0-.15-.08-.32-.1-.38a3 3 0 010-.58l.09-.15v-.2a.29.29 0 000-.12.11.11 0 01.14-.1v-.4l-.18-.34V299v-.26l.05-.16.12-.28v-.13c0-.13 0-.21.09-.46s0 0-.06-.14 0-.22-.07-.44 0-.18 0-.18a1.75 1.75 0 000-.18 3 3 0 00-.08-.45c-.09-.36-.11-.45-.11-.45l-.06-.27-.11-.54c0-.18-.07-.34-.08-.41v-.17c0-.18 0 0-.11-.19l-.11-.19-.38-.28-.25-.21-.34-.27-.19-.12a1.2 1.2 0 01-.3-.26 1.23 1.23 0 01-.36-.4.81.81 0 00-.36-.4c-.36-.4 0 0-.06-.14a.45.45 0 00-.16-.2l-.21-.29c-.12-.16-.27-.35-.37-.48a1.7 1.7 0 01-.23-.46 1.21 1.21 0 01-.18-.41.51.51 0 00-.3-.25l-.24-.16c-.24-.16 0 0-.06-.13a1.29 1.29 0 010-.43v-.17-.34l-.18-.4v-.47a.39.39 0 00.26-.23.49.49 0 01.25-.27v-.13a3.43 3.43 0 01.4-.26c.08-.16.22-.15.26-.28a1.48 1.48 0 01.08-.21l-.06-.13a.42.42 0 010-.3v-.52-.48h-1.51a.84.84 0 01-.47 0 .57.57 0 00-.19-.1l-.29-.23c-.29-.23 0 0 0-.13a.54.54 0 00-.06-.22l-.24-.1a1.71 1.71 0 01-.3-.27.65.65 0 00-.2-.18l-.25-.31-.2-.18-.29-.18-.34-.27-.29-.06h-.38l-.14-.14-.35-.34c-.29-.26 0 0-.1-.17s0 0-.14 0a.38.38 0 00-.24 0l-.14-.09a.9.9 0 00-.48 0h-1.76l-.39-.22a1.85 1.85 0 01-.49-.34l-.09-.09-.11-.11a.24.24 0 01-.1-.12.71.71 0 00-.34-.17l-.14-.08-.29-.16-.14-.12c-.14-.12-.1-.19-.1-.19v-.15c0-.15 0 0-.1-.15s0 0-.14-.12a.59.59 0 01-.14-.15.38.38 0 00-.14-.12c-.14-.12-.09-.19-.09-.19l-.24-.15-.33-.38a1.71 1.71 0 01-.14-.19l-.32-.29a1 1 0 01-.37-.25 1.46 1.46 0 00-.36-.32l-.1-.15c-.07-.1-.16-.26-.29-.49-.25-.46 0 0-.18-.14l-.24.08v.18l.22.21.08.21.14.14.08.21.09.14.14.14.18.22.28.26.19.15v.29h-.29L842 279a.71.71 0 01-.28-.22.36.36 0 00-.24-.14s-.23-.11-.47-.25l-.13-.39a2.36 2.36 0 01-.27-.35c-.13-.21 0 0 0-.14a.72.72 0 00-.26-.38c-.18-.17-.08-.17-.08-.17l-.12-.31-.4-.29-.13-.13c-.13-.13-.18-.06-.18-.06l-.23-.05-.11-.12a.25.25 0 00-.23-.05l-.12-.16a.24.24 0 01-.07-.16c-.07-.16-.08-.13-.08-.13s-.07-.16-.1-.26a.58.58 0 00-.15-.22.62.62 0 00-.21-.14l-.11-.18a.32.32 0 01-.06-.15v-.08c0-.22.07-.41.11-.59l.1-.51.11-.49.12-.51.15-.59v.05h.23l.21-.13v-.22-.1c0-.1-.32-.09-.32-.09l.18-.6.18-.56.18-.52.18-.49.18-.48.19-.47.2-.48.21-.49.24-.52.26-.56.3-.6a1.74 1.74 0 00.22-.06 1.09 1.09 0 01.17-.05h.08l.23-.08h.07a.46.46 0 00.13-.06.56.56 0 01.15-.06h.27l.14-.09.12-.07.13-.06h.06l.17-.09a2.08 2.08 0 00.19-.15l.12-.18h-.14l-.1.05-.11.06s-.14.12-.24.18 0 0-.05 0h-.12c-.01 0 0 0 0 0h-.32s-.11.06-.19.08h-.06l-.17.09a1.7 1.7 0 01-.19.12l-.16.06a.38.38 0 00-.11 0l-.16.06.27-.51.24-.45.29-.51.15-.07s.19-.08.32-.15l.12-.07.22-.1.22-.09.19-.08h.16l.16.06h.31a1.05 1.05 0 00.31-.12 1 1 0 01.22-.09l.27-.08h.13V263l.09.1h.19l.47-.15.31-.09.31-.09.1-.05a.31.31 0 01.2 0H846.65s.37-.12.26-.22l.12-.17h.38l.17-.05a2.66 2.66 0 00.52-.19 1.41 1.41 0 01.37-.14l.31-.11.31-.11.55-.21.44-.18a.25.25 0 00.2-.13c0-.1.07-.14 0-.25l-.17-.09.07-.19.52-.14h.22l.12.16-.1.15-.1.22v.18a1.25 1.25 0 00.31-.09 2.3 2.3 0 01.29-.1 2.14 2.14 0 00.21-.36.24.24 0 000-.19.18.18 0 00-.09-.12h-.11a.79.79 0 01-.13-.06c-.13-.06 0 0-.07-.1s0 0 0-.14a2.13 2.13 0 010-.26.37.37 0 01.08-.22.44.44 0 01.26-.18.54.54 0 00.19-.21.3.3 0 01.17-.15h.51V259.55l-.09.35h.39l.2.1v.08c0 .08.16.06.16.06l.22-.06h.32v.49l-.07.25a.06.06 0 00.08.08l.31-.18.07-.18.24-.22.28-.25v-.09a1 1 0 00.17-.25v-.19c0-.07 0 0-.18-.09a.39.39 0 00-.25 0c-.25 0 0 0 0-.07s0 0-.11-.08a1.13 1.13 0 00-.29-.05c-.16-.06-.12-.12-.12-.12l-.08-.16a.79.79 0 00-.07-.19.71.71 0 01.1-.31 1.41 1.41 0 01.17-.38c.08-.18 0 0 0-.08a2.92 2.92 0 01.27-.31 2.77 2.77 0 00.46-.32h.23a.8.8 0 01.3 0v.11l-.08.18a.38.38 0 01-.13.19.21.21 0 00-.1.16v.21h.15a.6.6 0 00.2-.19c.09-.13 0 0 0-.11a1.16 1.16 0 01.12-.24.44.44 0 01.13-.19.3.3 0 00.19-.13.2.2 0 01.13-.12l.11-.14h.11l.38-.1h.14l.32.11.14.16.14.16h.16a.49.49 0 00.2-.3l.43-.21h.12l.25-.08.1.23.24.2.33.27H859.42l.41.07.15.06.28.21h.22l.14.09.07.22V258.53a2.89 2.89 0 01-.08.34l.2.12h.19v.01l.17.16H861.51l.25.21.32.11a1 1 0 01.21.07.22.22 0 01.12.11v.12l-.05.19-.05.19a.22.22 0 01-.13.17.34.34 0 00-.17.2h-.38a.26.26 0 00-.14.17.34.34 0 01-.17.17.53.53 0 01-.17 0 .93.93 0 01-.22-.06.12.12 0 01-.1-.11l-.16-.07c-.16-.07 0 0-.12-.16h-.25l-.06.22.07.26.29.14.1.26.1.29.07.14.06.17-.05.19-.08.13-.36.11h-.22v.27h-.17a.48.48 0 00-.31.08l-.16-.07-.32-.14-.12-.07-.43-.25-.28-.14-.18-.19c-.18-.19 0 0-.1-.16a.46.46 0 00-.18-.19l-.17-.23a.44.44 0 000-.31.41.41 0 01.14-.32l.32-.4c.32-.4 0 0 0-.13a.85.85 0 01.14-.28V259.39l-.14-.1-.52-.2-.15-.06h-.89l-.25.05-.33.07c-.33.07 0 0-.11 0a2.23 2.23 0 00-.56.21l.13.09.19.2-.08.35-.1.27-.19.29-.1.27-.14.23-.46.22-.51.11-.18.08-.28.14-.19.28-.1.22s0 .24-.14.23a.83.83 0 00-.32.27 1.14 1.14 0 01-.36.31.29.29 0 00-.22.2l-.4.28h-.17c-.17 0 0 0-.14.07a1.73 1.73 0 01-.23.24 1.14 1.14 0 00-.29.33c-.16.15 0 0-.14.07a.13.13 0 00-.09.17l-.18.23-.09.17-.26.21a.68.68 0 01-.29.33.36.36 0 00-.17.34l.28.06.24.07.32.1v.23l.17.21h.26a.5.5 0 00.34 0 .31.31 0 01.26 0h.26l.18.18h.39l.51.09.06.16.16.1h.39l.39.08v1.23l.19.28.11.16a1.15 1.15 0 00.56-.14c.29-.16 0 0-.11-.16a.85.85 0 010-.56l-.07-.46s.16-.19.33-.42h.18l.32-.38.07-.29c0-.16.07-.33.09-.42a2.79 2.79 0 000-.51v-.78l.17-.39.18-.39.18-.39.29-.17.44-.06h.57l.25.05.24.1.14.2h.48l.3.05.06.17v.49a1.12 1.12 0 000 .31.91.91 0 010 .27l.21.07.55-.19.3-.25.45-.4.23.3.2.16.11.22.37.29.09.4.18.49.19.35h.22l.26.08v.18l.16.27.4.07.07.23v.42l-.16.33a.58.58 0 01-.38.2.23.23 0 00-.24.2.45.45 0 01-.18.51l-.21.29h-.5l-.28.11-.24.15-.16.24-.27-.08-.12-.17a.29.29 0 01-.08-.18c-.08-.18-.19 0-.32 0a.71.71 0 00-.32 0 1.74 1.74 0 01-.36 0 .33.33 0 00-.28.06l-.29.2-.35.34-.12.28h.19l.35-.25.24-.1.48-.25.29.39v.68l.18.13h.23l.27.08h.51l.28-.06h.18c.18 0 0 0 .13.09l-.11.28-.15.19c-.15.19 0 0-.15.1a.68.68 0 01-.34.2h-.19l-.24.05-.13-.09a.12.12 0 00-.19.05l-.16.23-.2.14h-.14a.33.33 0 01-.16-.31.19.19 0 010-.18l-.39.2-.35.06-.35.06h-.19a.29.29 0 00-.24.1l-.11.19-.12.36v.36l-.06.18-.35.33-.2.14-.3.19a1 1 0 01-.39.19c-.14 0-.11.18-.25.19a.36.36 0 00-.16.32h-.24l-.26.32.12.35v.35l-.11.27-.25.23-.25.22-.1.18-.2.13-.58.14h-.19l-.34.26v1.04l.14.22.09.3.09.3-.05.17-.06.39-.15.22-.19.08-.52-.18-.14-.13a.87.87 0 01-.08-.56l-.08-.51v-.17c0-.17-.19 0-.19 0l-.28-.08-.47-.08h-.81a.66.66 0 00-.24 0l-.38.09h-.19a1 1 0 01-.38 0c-.38 0 0 0-.19-.08a1 1 0 00-.48 0h-.43a.44.44 0 00-.29 0h-.43l-.3.36-.15.28-.05.16v.44l.14.24v.68a1.22 1.22 0 000 .28l.1.24.14.17.19.17.19.21.24.17h.33a.64.64 0 00.24 0h.19l.28-.07a.21.21 0 00.14-.24 1.31 1.31 0 01.28-.28v-.12c0-.12.33-.07.33-.07h.29V280c0-.13.19 0 .38-.07a.39.39 0 01.38.14v.25l-.14.25v.25l.05.38v.17l-.09.16-.24.07-.23.11.19.18h.76l.43.23.19.05.29.06.19.18.06.51.06.34v.47l.21.4.29.11.43.12h1.55a.47.47 0 00.37-.33h.26a1.31 1.31 0 00.4-.14.55.55 0 01.47 0l.19.05h.47l.36.15.36.15h1.65l.43.07.29.13.29.13.24.2.38.3.2.38.29.2a5 5 0 01.47.21c.19.1.19 0 .19 0l.59.14.38.21.33.2.26.22.26.22.15.24.15.29.34.44.34.44c.14.19.19.15.19.15l.28.11.22.08.37.16.47.16.16.08.37.11.37.11.23.06.33.11.19.15.51.25.32.11.23.34V291.09zm-15.47-19.31a.59.59 0 01-.18.05h-.71a.3.3 0 00-.13.05 1.15 1.15 0 00-.1.2.34.34 0 000 .13h.34l.24-.08h.12a.61.61 0 00.21-.06c.1 0 .18-.18.23-.2a.74.74 0 00.17-.15h.12a.42.42 0 01.11 0l.25-.06H855.33a.3.3 0 00.1 0v-.21h-.64l-.12.05h-.18l-.07.08v.16zm-1.69-1.05h-.27a.35.35 0 00-.17.1c0 .05.05 0 0 .05l-.21.09-.19.07-.09.13a.51.51 0 00-.09.11 1.31 1.31 0 010 .21.34.34 0 010 .08v.2a1 1 0 000 .19.08.08 0 000 .09h.29v-.05-.12c0-.04.07-.19.07-.19a.3.3 0 010-.17.33.33 0 00.09-.07v-.15a.07.07 0 010-.07l.12-.12.1-.06a.53.53 0 00.13-.1h.4a.18.18 0 01.13.1.12.12 0 01.06.09v.06a.31.31 0 00.08.13.19.19 0 01.13.05c.06.08.06.1.12.1h.12a.72.72 0 00.21-.11v-.24l.06-.12h.06a.53.53 0 00.14 0H854.04a.28.28 0 00.1-.08v-.06h-.05.11v-.17h-.74l-.23.05h-.11a1.44 1.44 0 01-.22 0 .62.62 0 00-.14 0 1.41 1.41 0 01-.24-.02zm-2.35-.14v.16h.2a.62.62 0 00.17-.08.09.09 0 01.07 0 1.75 1.75 0 00.27-.12c.14-.08.13 0 .13 0h.28l.17-.07h.15a.32.32 0 01.1 0h.38a2.84 2.84 0 00.38-.07.06.06 0 01.07 0 1 1 0 00-.13-.18h-.2a.08.08 0 010-.06.3.3 0 01-.21-.44.26.26 0 00-.12-.07.18.18 0 00-.1 0h-.24a.36.36 0 01-.1.06.48.48 0 01-.22.06h-.27a.54.54 0 01-.11.1s-.1.07-.24.14 0 0-.08 0v.05a.27.27 0 01-.09.1l-.1.07c-.1.07 0 0-.06.06l-.1.26zm-4.7-5.76s0-.06 0 0l-.24.09-.11.09a.79.79 0 01-.22.09l-.11.05a.21.21 0 00-.12.08 1.5 1.5 0 01-.14.11c-.06.06-.1 0-.14.11a.57.57 0 01-.21.1l-.14.05h-.13l-.24.09h-.06a.24.24 0 00-.14 0 .52.52 0 01-.12.14l-.17.11a.8.8 0 00-.18.09l-.16.11-.07.05a.82.82 0 00-.12.06s0-.09 0 0-.09.14 0 .13a.43.43 0 00.17-.07l.2-.11.16-.12.15-.07.17-.06.19-.05.17-.06c.09 0 .15-.08.21-.1a.77.77 0 00.17-.1.35.35 0 01.1-.13l.13-.07c.06 0 .13-.1.17-.11s.1-.06.16-.09l.16-.08a.67.67 0 00.15 0c.06 0 .09-.07.14-.09a.63.63 0 00.11-.09.65.65 0 00.12-.19zm2.84 4a.2.2 0 010 .14 1.11 1.11 0 00.06.29h.4l.07-.09.07-.1V268.74a.39.39 0 00-.11-.08h-.12l-.1-.1V268.27l-.07-.09h-.15a.2.2 0 00-.13 0 .19.19 0 01-.09.06H847.99l-.12.06h-.07l-.07.12v.11a.12.12 0 00.08.06H848.12v.11c0 .05 0 0 0 0s.18.22.2.3zm-.24-11.23h.07l.14-.1h.08l.16-.07h.1l.15-.1.05-.09.05-.09v-.07c0-.07.13-.1.17-.15a2.6 2.6 0 00.19-.24.09.09 0 000-.08h-.14a1 1 0 00-.17.09c-.06 0-.24.13-.31.18l-.28.19a.65.65 0 00-.17.18 1.61 1.61 0 01-.14.21l-.11.1h-.06a.14.14 0 00-.06.12zm8.39 3.81h-.09a.31.31 0 00-.11.23v.08l.26-.07h.15l.47-.16.11-.12v-.11c0-.11 0 0-.06-.14h-.16a1.33 1.33 0 01-.25 0h-.09l-.1.08zm-14 1.14H842.89l.16-.07a2.8 2.8 0 00.41-.21c.27-.16 0 0 .15-.13s.09-.1.09-.1l.07-.1v-.09l.2-.17.1-.1.09-.11v-.05a1.47 1.47 0 01.23-.2l.17-.12a3 3 0 00.44-.37s.38-.23.47-.31a.66.66 0 00.22-.18c.09-.13 0 0 0-.1s0 0-.07 0l-.18.06a.07.07 0 01-.07-.06l-.25.11-.24.12-.24.12s-.27.15-.38.19a.85.85 0 01-.21.07 1.39 1.39 0 00-.21.1 1.41 1.41 0 00-.25.14.13.13 0 01-.06 0c-.06 0-.12.14-.26.25a1 1 0 00-.18.17l-.07.09-.02.23-.24.38zm1.89-2.35l.16-.08.28-.17.17-.09.34-.23.12-.11.13-.13.12-.09.12-.09.15-.09h.08l.09-.06.24-.17a2 2 0 00.2-.2 1.8 1.8 0 00.15-.19 1.65 1.65 0 00.12-.2h-.07l-.14.07a.92.92 0 00-.15.08 2.49 2.49 0 01-.24.17.9.9 0 00-.19.16l-.3.28a1.59 1.59 0 00-.22.17l-.09.06c-.09.06-.13.13-.22.19l-.25.19-.14.1-.2.15-.17.15-.06.11zm3.58 1.29h.32l.32-.07.14-.08.14-.18v-.18l.13-.11a1.09 1.09 0 00.23-.18l.14-.08.13-.15v-.17a1 1 0 00-.24 0h-.21.07-.11v-.06l-.08-.05-.06-.11V260h-.28v-.08s-.08 0 0-.06a.26.26 0 000-.12.71.71 0 000-.13h.09l.25-.19.13-.07.18-.07a.4.4 0 01.13-.18.75.75 0 00.17-.25l-.09-.09h-.22l-.2.08h-.08c-.1.15-.12.08-.1.15a.24.24 0 010 .16l-.11.17-.17.08h-.11l-.12.19-.13.15-.35.19-.13.07a.17.17 0 00-.17 0 1.84 1.84 0 01-.26.11l-.12.05-.11.06h-.12l-.23.09-.17.06-.12.05H846.1a.55.55 0 00-.17.06h-.07l-.14.12a.55.55 0 00-.12.11.89.89 0 01-.2.14l-.18.11-.17.12-.17.17a.5.5 0 00-.13.1l-.07.07-.14.09-.13.12-.13.15a.11.11 0 000 .1h.3v.18l-.07.19a.07.07 0 000 .07.43.43 0 010 .12v.07h.12a.45.45 0 00.15 0l.15-.06s.1-.07.13 0h.1l.06.05s-.06.05 0 0a.87.87 0 00.19 0 .56.56 0 01.19 0 .55.55 0 00.2-.06h.2a.68.68 0 01.21-.12.55.55 0 00.19-.11l.17-.11a1.07 1.07 0 01.2-.08l.23-.02.25-.09.16-.12h.1l.25-.09h.06a.14.14 0 01.1 0c.08-.01-.06 0 .08-.01zm49.7-4.66l.12.12a.58.58 0 01.12.17.43.43 0 00.13.29 1.92 1.92 0 00.2.11 1.42 1.42 0 00.24.13s0-.08.06 0a.63.63 0 00.15.12s0 .07.08 0a.21.21 0 000-.14.37.37 0 00-.12-.19.74.74 0 00-.2-.16l-.21-.12-.17-.2-.37-.32s-.12-.12-.09-.06 0 0 0 .12a.37.37 0 00.1.03zm-2.25-1.16l.14.14.26.18.16.1a.94.94 0 00.19.08c.07 0 0-.08 0-.08a.41.41 0 000-.21 1 1 0 00-.09-.14 2.1 2.1 0 00-.39-.23l-.3-.14a.21.21 0 00-.15 0l.13.13zm6.58 5.2a.2.2 0 01-.13 0 1.5 1.5 0 00-.17 0c-.08 0-.39-.16-.39-.16a2.07 2.07 0 01-.22-.12 1.68 1.68 0 00-.23-.09.22.22 0 00-.13 0 .24.24 0 01-.15 0 .23.23 0 00-.18 0h-.34c-.1 0 0 0-.14-.07s-.06 0-.12 0a.18.18 0 00-.09.06.59.59 0 010 .31.4.4 0 01-.12.11 1 1 0 01-.28.13h-.07c-.07 0 0 .05-.1 0s0 .12-.06.09 0 .15 0 .15l.26.43c.17.28.05.08.05.08l.15.11.19.08a1 1 0 01.33.19l.46.33.32.17.16.05h.17a.2.2 0 000-.11.27.27 0 00-.08-.06 1.18 1.18 0 01-.19-.26l-.34-.3-.12-.26a.43.43 0 01-.12-.29v-.09c0-.09 0 0 .05-.06s.06 0 .06-.07.1 0 .1 0h.22a.67.67 0 00.18-.05c0-.06.12 0 .14 0h.08c.01 0 .11-.18.11-.18l.12-.05h.15l.48.24.34.17-.17-.26zm-3.35 1.52l.08.16.18.1H899.17a.93.93 0 00-.11-.32l-.27-.18h-.17c-.08 0 0 .1 0 .1V262.67zm1.45-4.14H900l-.2-.12s-.24-.15-.32-.21-.2-.12-.26-.15l-.22-.24c-.19-.1 0 .07 0 .07v.09l.11.1.13.11.23.17.16.09.18.1.14.08.15.1.36.24-.19-.25zm-14.56-5.4h.52V253c0-.08.07-.06.2 0v.44h-.06c-.06 0 0 .1 0 .1v.31l.09.23.05.16v.09l.19.1.2.06h.21l.13-.06v-.18a.77.77 0 00.08-.26c0-.17.22 0 .25-.06a.33.33 0 000-.13h.09a.31.31 0 00.16 0 .57.57 0 01.27.15v.09l.06.22a1.43 1.43 0 00.16.13l.23.14.14.07h.53l.16.08h.32a.26.26 0 00-.09-.13l-.07-.1a.25.25 0 00-.15-.11l-.34-.16a3.74 3.74 0 01-.28-.25.68.68 0 01-.15-.28.26.26 0 00-.11-.16c-.11-.16-.11 0-.24-.1a.6.6 0 01-.19-.18l-.21-.19c-.07-.06-.15-.05-.24-.12s0-.09 0-.09v-.06a.37.37 0 01.24.07l.28.28.25.15.49.16h.18l.39.13h.12a.24.24 0 000-.19l-.11-.23-.17-.12c-.08-.05-.33-.11-.43-.17a.65.65 0 00-.19-.07l-.36-.1a2.18 2.18 0 01-.31-.19l-.33-.26c-.32-.26-.09 0-.18 0s-.11.1-.11.1-.05.18-.19.11a4 4 0 00-.47-.16 3.13 3.13 0 01-.35 0c-.12-.06-.23 0-.37-.1a1.06 1.06 0 00-.28-.07h-.23c-.09 0-.1.11-.1.11v.09a1.17 1.17 0 01.06.24.61.61 0 010 .24.75.75 0 00.09.34 1.15 1.15 0 00.2-.05zm-5.5 14.77h.32l.14-.06.13-.13h.09l.29-.14a.16.16 0 00.13-.11 1.08 1.08 0 000-.33c0-.33 0 0 .06-.09a.66.66 0 00.09-.16c.08-.16 0 0 0-.18a.69.69 0 00-.07-.47c-.08-.22 0 0-.16-.06h-.09a.19.19 0 00-.16 0h-.12a.74.74 0 00-.32 0c-.11 0 0 .09 0 .09a.48.48 0 01-.13.3c-.11.09 0 0-.11 0a.45.45 0 00-.23.06c-.23.06.1.24.1.24l.12.1v.12l-.08.25-.16.06c-.16.06 0 0-.07 0a1.09 1.09 0 00.06.47zm-26-11.17a1.41 1.41 0 00.33 0 .43.43 0 01.13 0H855.64l.2-.06a.28.28 0 00.15-.08l.17-.15a2.09 2.09 0 00.22-.14l.18-.05.18-.05.18-.07h.11l.24-.06a1 1 0 00.14-.26v-.12-.08a.52.52 0 00-.09-.05.38.38 0 00-.25.05h-.12l-.2.06-.21.1a1.38 1.38 0 01-.28.08.81.81 0 01-.29 0h-.16l-.21.1-.51.28a.57.57 0 01-.24.08c-.05 0 0-.08 0-.08H854.24V256h-.1a.19.19 0 01-.11-.1.39.39 0 01.12-.15l-.09-.08H853.63a.5.5 0 00-.15.06l-.23.09-.17.07a1.67 1.67 0 00-.31.18.24.24 0 01-.12.07l-.13.12v.15h.14l.22-.07h.1l.19-.07a1.28 1.28 0 01.27 0h.08a.17.17 0 01.12 0v.4l-.06.17h.17a.28.28 0 00.15 0 .62.62 0 01.1-.12zm-1.93 1.86h.12l.14-.08.14-.08h.08a1.16 1.16 0 00.23-.15l.22-.27.16-.11.11-.05.24-.28v-.07a.67.67 0 00.08-.17v-.14c0-.14 0 0-.07 0a.34.34 0 00-.17 0l-.17.07h-.1l-.24.08-.31.09h-.08l-.15.18-.08.12-.07.13-.1.28-.09.19v.13h.13zm29.11 6.57v.36s.06.21.14.45a.24.24 0 00.26.21v.12l.17.13.12.13.1.17v.44l-.27.1v.19a.63.63 0 01-.06.2l-.09.16v.14l.1.15.09.05v.12l-.11.13-.16.06h-.07c-.07 0 0 .23 0 .23l.12.1h.07a.72.72 0 01.3 0l.18-.13.18-.08h.09a2.13 2.13 0 01.44 0 1.47 1.47 0 00.42 0 1.33 1.33 0 00.31-.08.22.22 0 00.13-.08.23.23 0 00.13-.1.48.48 0 00.06-.25v-.28c0-.1-.06-.23-.06-.23v-.09a1.46 1.46 0 00-.47-.25.48.48 0 01-.2-.27c-.2-.27 0-.16-.08-.26a2 2 0 00-.22-.2.65.65 0 01-.12-.13c0-.07-.15-.17-.25-.34a.59.59 0 01-.28-.16.18.18 0 010-.14h.22a1.05 1.05 0 00.21-.3.32.32 0 00-.14-.15l-.12-.06c-.12-.06-.14 0-.15-.18s0 0 0-.12a.32.32 0 00-.08-.17.36.36 0 00-.22 0 .17.17 0 01-.1-.15h-.42a.83.83 0 00-.15.15c-.09.06 0 0-.07 0h-.27v.18l.24.23zm-31-5.66h.15v.07l.12.12h.13l.2-.1.12-.13h.07l.14-.08a2.63 2.63 0 00.28-.24c.14-.13 0 0 0-.09a.37.37 0 01.05-.14l.12-.32h-.06a.11.11 0 00-.08-.06c-.05 0 .06-.16.06-.16l.06-.16v-.19h-.1l-.14.05-.22.13-.17.08-.2.08a.13.13 0 00-.07 0 1.54 1.54 0 00-.21.38v.06l-.05.09a.46.46 0 01-.14.14.39.39 0 00-.12.08h-.1a1.14 1.14 0 00-.32.15c-.15.1 0 0 0 .07v.07h.42zm2.06-2.19h.08l.31-.14.31-.14.14-.16.08-.21v-.05c0-.05-.13 0-.18 0a1 1 0 00-.24.14l-.19.11-.09.07a.21.21 0 00-.1.12l-.07.1v.15zm5-.56H857.7l.09-.06a.51.51 0 00.09-.14c0-.06 0 0 0 0v-.08c0-.08 0 0 0 0a.08.08 0 00-.06 0 1.62 1.62 0 01-.28 0c-.07 0 0 0-.09-.07a.67.67 0 00-.18.07c-.08 0 0 0 0 0a.13.13 0 00-.07.06v.14a.24.24 0 000 .12zm-1.27-4.68l.24-.07a.24.24 0 010 .08.14.14 0 00.1.07h.27c.1 0 .36-.12.36-.12l.25-.08a1 1 0 01.22-.08 2.32 2.32 0 00.33-.12.43.43 0 01.17-.08 1 1 0 00.22-.08l.14-.05a.29.29 0 01-.08.24 1.75 1.75 0 01-.21.19 1.83 1.83 0 01-.42.25l-.28.16a.62.62 0 00-.21.13.42.42 0 00-.27.23l-.06.21h.2v.18l-.2.35a.51.51 0 00-.24.12v.06a.59.59 0 00-.16.19 1.2 1.2 0 01-.29.23 1.22 1.22 0 00-.29.23v.08a.57.57 0 000 .21.3.3 0 01-.13.17l-.25.19-.25.19-.11.11a.08.08 0 000 .11.18.18 0 00.18.07.6.6 0 01.17-.06 2.56 2.56 0 00.35-.14l.29-.13s.2-.14.17-.06 0 .14 0 .12a.6.6 0 01.25-.06.86.86 0 00.26 0h.21a.18.18 0 01.14 0 .27.27 0 00.18 0l.44-.17a.54.54 0 00.24-.23 1.69 1.69 0 00.2-.34 1 1 0 01.15-.23 2.56 2.56 0 01.22-.2c.06 0 .12-.18.21-.24s.15-.29.21-.33a.88.88 0 01.11-.36.87.87 0 00.22-.19l.16-.15.1-.23a.38.38 0 01.15-.23.66.66 0 00.16-.13 2.39 2.39 0 00.3-.27l.39-.32.32-.32.18-.17a2 2 0 01.34-.32c.07 0 .21-.16.28-.18a2.11 2.11 0 00.35-.3 2.44 2.44 0 00.22-.14l.36-.24.23-.27.12-.1a1.52 1.52 0 01.24-.14l.43-.26s-.25.06.09-.11l.34-.17.11-.35v-.11h-.69a2.38 2.38 0 00-.31 0l-.44.14a1.87 1.87 0 00-.3 0l-.26.08-.42.13-.31.09-.38.13c-.09.05-.33.11-.49.21l-.4.2-.29.13-.38.22a1.15 1.15 0 00-.32.08 4.31 4.31 0 01-.53.17l-.24.11a2.61 2.61 0 00-.31.2 2.44 2.44 0 01-.36.2l-.22.15-.35.26-.21.13-.13.11-.2.14-.25.18-.19.14-.34.29a.35.35 0 000 .2.6.6 0 01.12.07zm30.91 21.67a.93.93 0 00.23-.06.48.48 0 00.21-.26.73.73 0 010-.16v-.18l-.12-.07-.37.11a.59.59 0 010 .25.45.45 0 00.08.36c-.11.1-.18.01-.11.01zm1.68 1.1h.21a1.39 1.39 0 00.47 0l.2-.32-.09-.05h-.94l-.07.13.05.18zm7.37 1.22h.24l.12-.05a.1.1 0 00.09-.08v-.15c0-.07-.12-.07-.12-.07H896a.24.24 0 01-.16 0 .22.22 0 00-.16.11h-.1c-.1 0 0 .14 0 .14l.15.09h.14zm12.2 3.45H906l-.28-.07h-.44l-.25-.12-.19-.1-.19-.1h-1.15l-.28-.15-.13-.08-.19-.27-.13-.17-.13-.13-.19-.2-.44-.09h-.19l-.06.2a1.17 1.17 0 00.13.28l.16.2s.13.2.19.28a.39.39 0 00.19.18c.09 0-.12-.3.09 0a1.4 1.4 0 00.28.32.5.5 0 00.19.1.49.49 0 01.19.12l.25.1h.16l.13-.1.16-.1h.73a.28.28 0 01.25.12c0 .12-.06 0 0 .12a1.08 1.08 0 00.4.21 1.23 1.23 0 01.31.09.9.9 0 01.12.11l.06.07v.11a.82.82 0 010 .32c0 .09-.13.12-.21.24s-.14.14-.17.21a1.72 1.72 0 01-.43.23l-.13.08-.26.13a.49.49 0 00-.29.06c-.07.07 0-.07-.07.07a2.21 2.21 0 01-.41.35l-.36.14-.52.12-.2.08a1.23 1.23 0 00-.37.24 1.27 1.27 0 01-.3.21.46.46 0 01-.23.09h-.19a.73.73 0 00-.36.12.66.66 0 01-.33.12h-1.04l-.24-.09-.08-.1-.08-.18v-.21-.34l-.08-.2-.33-.25-.24-.23-.14-.29v-.32l-.37-.26-.36-.34-.24-.48-.3-.46v-.22-.19l-.12-.14-.09-.16-.09-.16-.22-.17h-.44a.18.18 0 00-.1.16.46.46 0 010 .22s-.06 0 0 .11a.87.87 0 01.06.36.47.47 0 000 .24c0 .08.09.38.09.38l.19.08.15.13.33.38.15.13.11.27.07.4.17.29.13.37a1 1 0 00.07.29l.19.34.24.18.18.1.17.23.24.06a1.14 1.14 0 01.32.24 1.81 1.81 0 00.13.25c0 .1-.06 0 .05.1a.64.64 0 00.23.17.36.36 0 00.24.09h.44l.35-.05h.13a3.73 3.73 0 00.44 0h.54l.42-.13-.05.18a.19.19 0 00-.05.15.82.82 0 01-.07.3l-.2.3-.2.3-.08.13-.26.27-.06.18-.23.27-.25.22-.25.22-.5.26-.21.18-.29.24-.42.3a.86.86 0 00-.24.16 2.64 2.64 0 00-.28.22.8.8 0 01-.24.19l-.36.33-.37.36-.14.28-.18.34a1.36 1.36 0 00-.08.37 1.77 1.77 0 00-.08.37c0 .18-.08.22 0 .32s0 .21 0 .28l.16.3a1.25 1.25 0 00-.08.32c0 .07-.1.3-.1.4s-.06.14-.06.24a2.3 2.3 0 01-.11.43 2.66 2.66 0 01-.19.42l-.2.25-.2.12-.32-.04-.22.1-.14.1-.2.12-.42.34c-.14.11-.43.38-.43.38v.11a1.15 1.15 0 00-.2.46c0 .24-.09.23-.09.36s-.05.09-.07.25-.08.2-.07.27-.06.12-.05.19v.07l-.25.24-.12.05-.12.06a.85.85 0 00-.32.21c0 .08-.14.22-.17.32a.84.84 0 01-.07.25c-.08.17-.12.34-.17.43s.13-.11-.05.09l-.19.2a.25.25 0 00-.14.11c-.05.09-.18.28-.18.28a.26.26 0 00-.12.13.71.71 0 01-.22.24 1.72 1.72 0 01-.33.24l-.14.14a.18.18 0 00-.14.14 1.08 1.08 0 01-.26.31l-.38.26-.28.14-.28.14-.4.15-.33.08-.25.09a.42.42 0 00-.23.08l-.12.09-.22.08H887.95v-.79l-.07-.15-.1-.29v-.19-.25l-.12-.35-.06-.13-.08-.13-.06-.25-.2-.28v-.29l.06-.33.07-.24a.15.15 0 000-.14c0-.11-.12-.3-.12-.3L887 296l-.19-.27v-.2l.09-.42-.1-.31a2.11 2.11 0 00.05-.39v-.52s-.08 0 0-.15a1.4 1.4 0 00.2-.41.45.45 0 00.17-.2v-.27a.35.35 0 01.11-.16.94.94 0 00.2-.38l.11-.16.08-.19v-.21l-.14-.1a.52.52 0 01-.18-.25v-.24a.25.25 0 00.09-.27v-.2a.79.79 0 00-.13-.49l-.1-.14-.1-.2-.24-.28h-.18l-.14-.11-.13-.2V288.83l.06-.36.06-.3a1.31 1.31 0 010-.36v-.3a.93.93 0 000-.3v-.18l-.27-.08h-.53l-.15-.05-.21-.08-.17-.21-.17-.18-.22-.05h-.19l-.22-.05-.28-.05h-.31a.37.37 0 00-.16.13 1.31 1.31 0 01-.26.22.47.47 0 01-.35.17 2.6 2.6 0 01-.44.07h-.53l-.18-.06h-.5l-.25.07-.13.06a.6.6 0 01-.41.13h-.37l-.21-.21-.36-.34-.11-.28-.4-.25-.18-.25-.24-.19-.28-.22-.12-.16-.27-.25-.21-.38-.15-.16-.34-.22-.06-.28-.12-.35.07-.35.08-.47a.23.23 0 010-.19 1.31 1.31 0 000-.47v-.32l-.05-.47v-.38-.51l.13-.28.13-.44.16-.25a.94.94 0 01.32-.22c.1 0 .13-.16.22-.19s0 .19.1 0a4.07 4.07 0 00.16-.44l.1-.15.16-.22.13-.06.32-.25.13-.09.22-.15.16-.15.13-.34.06-.28.1-.31.13-.15.1-.19.06-.19a.34.34 0 01.13-.06h.28a.38.38 0 01.19-.21.59.59 0 00.25-.12l.25-.09.13-.12h.41l.41.17.35-.24h.16l.41-.08.16-.12h.35l.25-.08h.19l.12-.15.19-.08h3c.1.12.06-.12.1.12v.24l-.06.39a.3.3 0 000 .18c0 .09.13.27.13.27l.13.15.16.09h.13l.16.13a.22.22 0 00.13.12l.35.1.26.1a.85.85 0 01.25.13.5.5 0 00.25.1l.32.13.22.09a.54.54 0 00.25.1 2.44 2.44 0 00.54.07.63.63 0 00.35-.28s0-.18.06-.17a2.54 2.54 0 00.35 0 .82.82 0 01.38 0 2 2 0 00.48.1h.25l.35.15.35.07.16.06a1.06 1.06 0 00.29.07c.13 0 .48.07.48.07a1 1 0 00.32 0l.57-.06a.15.15 0 01.19-.1H896.31l.19-.07.09-.16a.75.75 0 010-.27v-.3a.8.8 0 01.12-.18l.06-.1.16-.1.12-.1v-.3l-.29-.1-.2-.2a.2.2 0 00-.19-.09.92.92 0 01-.29 0h-.56a.39.39 0 00-.19 0 .94.94 0 01-.28 0h-.32a.35.35 0 01-.25 0 2.33 2.33 0 01-.38-.14l-.22-.07v-.11l-.19-.12-.17-.21-.07-.2-.11-.35v-.14l-.16-.15-.48-.09-.12.11v.2a.26.26 0 010 .15v.14l.07.15v.37l-.09.14c-.12.08-.06 0-.12.08l-.06.08-.28.1h-.22l-.16-.07-.07-.26v-.17l-.13-.15-.2-.16-.1-.15-.2-.19-.07-.15v-.23l-.11-.21-.1-.18-.17-.22-.11-.21-.2-.28-.35-.2-.16-.16-.23-.16-.32-.17-.13-.13-.16-.13a.42.42 0 00-.13-.07l-.48-.16-.09.14v.15a1.31 1.31 0 00.17.34l.26.2.39.32a.73.73 0 00.16.16l.1.07.26.22.13.07h.13l.16.07h.13l.1.21-.15.14s-.16 0-.12.08a.18.18 0 010 .12v.54l-.19.08h-.13l-.16-.1v-.21l-.07-.15-.07-.15v-.15l-.19-.07-.32-.2-.23-.13-.13-.07-.2-.22-.16-.19-.2-.19-.07-.18-.23-.22-.19-.13-.13-.07-.13-.07h-.32l-.15.11-.12.08-.15.17-.21.17h-.24l-.16-.07-.13-.1-.07-.16h-.12l-.19-.07-.12.14v.12l-.09.12-.06.15-.12.08-.18.23-.37.1-.12.12v.18l-.12.15h-.16a.8.8 0 00-.06.27v.18l-.22.21-.12.12-.12.06-.31.2h-.13a.49.49 0 00-.19.06 1.32 1.32 0 01-.31.08h-1.04l-.44-.08-.47-.2v-.34a1.13 1.13 0 010-.22v-.72l-.07-.35.06-.19.09-.18v-.53l.19-.09.19-.06h.35a.15.15 0 00.13.1h1.16a.45.45 0 00.22-.08h.25s.06-.24.08-.33a3.09 3.09 0 00-.17-.26.33.33 0 010-.19.61.61 0 000-.25s.22.07-.07-.16a5.53 5.53 0 01-.42-.36h-.19l-.25-.08h-.13l-.13-.1-.13-.1-.06-.13.21-.17h.74l.3-.13.15-.11h.22l.12-.08a.54.54 0 01.27-.13 1.43 1.43 0 00.33-.1l.12-.11.11-.23a.41.41 0 01.17-.17l.3-.1a.92.92 0 00.34-.3v-.21a.2.2 0 01.08-.17.32.32 0 00.11-.2l.45-.08a.33.33 0 01.18 0 .5.5 0 00.21 0H886.36v-.56l-.09-.31v-.54l.08-.14.2-.06.1-.16h.15l.08.22.18.35v.15l.19.14.11.19-.32.17.11.19h.24a.33.33 0 01.18 0 2.11 2.11 0 00.37.07l.34.13.25.06a.22.22 0 01.18 0c.09 0 .24-.06.36 0a.87.87 0 00.33 0h.12l.56-.07.44-.08.13-.18.09-.27v-.17l.07-.13.07-.16H891.49l.11-.23.09-.18v-.17l.07-.1h1.28l.08-.23-.08-.12-.3-.09-.39-.07h-.15l-.16.05h-.46l-.3-.08-.23-.15h-.24l-.13-.11-.17-.34v-.3l-.08-.29v-.31c0-.12-.12-.19 0-.17a.13.13 0 00.13-.09.78.78 0 01.3-.08.86.86 0 00.32-.1l.06-.12V262.2a.74.74 0 00-.31-.15.51.51 0 01-.24-.08h-.23l-.13.05h-.16l-.2.15a.13.13 0 00-.09.15V262.74s-.17 0-.15.14-.07.1-.14.2 0-.09-.07.1a1.12 1.12 0 01-.22.27.18.18 0 01-.16.09l-.22.25v.4l.13.11.24.07h.12v.55a.14.14 0 00-.1.13c0 .09-.13.09-.12.18a.28.28 0 01-.09.19l-.07.19-.17.32v.18c0 .09-.09 0-.11.1a.46.46 0 01-.19.18l-.23.09-.17.12h-.24l-.31-.16-.09-.33v-.23l-.24-.32-.16-.14-.14-.19-.14-.23-.06-.3-.18-.05h.1-.2l-.08.14v.11l-.14.07-.17.13h-.47l-.15-.35-.08-.28-.13-.17-.1-.13v-.07a1.38 1.38 0 01-.1-.4 1.38 1.38 0 00-.1-.4l.02-.3.15-.25.11-.08.13-.16.1-.1.19-.15a1 1 0 00.34 0c.08 0 0-.15.18-.18a.77.77 0 00.2 0 2.07 2.07 0 00.27-.31 1.39 1.39 0 00.31-.21l.1-.27a.26.26 0 01.05-.22 1.48 1.48 0 01.15-.32 1.12 1.12 0 00.27-.21l.15-.11.25-.29v-.11l.12-.26.17-.1.12-.08.23-.06a.88.88 0 01.31-.07.46.46 0 00.25-.11l.17-.1h.51l.22.06a.36.36 0 01.22-.08l.38.08.33.06h.11l.55.23.3.1.3.1.32.15a2.17 2.17 0 00.4.32 3.41 3.41 0 00.38.24 3.63 3.63 0 01.4.22l.2.16.44.25.25.15.37.21.23.17.36.25s.28.23.37.28a1 1 0 01.35.2 2.24 2.24 0 01.25.38v.28l-.3.06-.45-.18-.22-.11a.23.23 0 00-.17 0 1.23 1.23 0 01-.35 0 2 2 0 00-.42-.16.3.3 0 01-.15-.06h-.15l.24.2.24.2v.35a1.79 1.79 0 01.08.22c0 .08-.17-.12 0 .08a2.09 2.09 0 00.41.33l.48.15-.38-.3-.09-.25s-.09-.15.12-.07l.21.08.17.12.26.17.21.08.16-.13v-.31H896.7a1 1 0 00.16-.1l.06-.05a.1.1 0 01.16 0 3 3 0 00.32.19 2.06 2.06 0 000-.35c0-.14-.06-.34-.06-.34v-.18s0-.11.14 0 .22.05.31.1l.37.16.3.12-.36.06s-.28-.16-.23-.07l.13-.07a1.18 1.18 0 00.24.26l.34.18.09-.1a.39.39 0 00.26.09l.29-.1h.53s-.12-.13.11-.08.48.12.48.12 0-.06.11 0l.11.1.3.19.21.1.19.05h.16l.31.06.3.1.23.09h.21l.19.06v-.06l-.06-.13-.24-.21-.25-.19v-.14l.2.08a.66.66 0 00.19.15l.44.26.29.14.21.11.17.07a3.31 3.31 0 00.45.26l.36.68.33.65.31.63.28.61.26.59.24.58.22.56.21.55.19.54.18.53.16.52.15.52.14.52.13.52.12.52.11.52c0 .18.07.35.1.53l.09.54q0 .27.08.55t.07.56q0 .28.06.58t.05.59V278.74c.16.26.16.52.16.75zm-12.51 8.26l-.34.12-.28.07s-.19.06-.16.18v.12l-.09.25h.22l.28-.32.16-.18zm3.13-14.26l-.16-.17-.25-.22-.36-.31-.23-.22-.23-.22a.35.35 0 01-.17-.26v-.31l-.17-.26-.29.32a.48.48 0 000 .28l.06.17-.46.07-.48-.17-.12-.26-.3-.24H895.12l-.35.21-.12.19-.21.23s.05 0 0 .2l-.08.16a.82.82 0 00-.21.31v.29s0 .08.24.1h.24c.24 0 0 .08.24 0a1.19 1.19 0 01.47 0h.47l.38.12h.71l.43.1.43.1.43.08h.19c.19 0 0 .12.19 0l.18-.1zm5.17.88l-.16-.16-.35-.18-.34-.11-.3-.21-.41-.27a.23.23 0 010-.29v-.29l.21-.12a.33.33 0 00.25-.18l-.11-.12h-1.37a.26.26 0 01-.26.08c-.15-.06.07.19 0 .3a.19.19 0 000 .23l-.08.34.23.43a1.51 1.51 0 01.46.38 1.61 1.61 0 00.18.39l.17.31.32.47.29.1h.29a.37.37 0 00.36-.19c.08-.21 0 0-.06-.11s0-.14 0-.14v-.15l.35-.22.18-.05zm1.91-1l-.24-.33-.37-.06c-.07.12-.1 0-.07.12s-.11.19 0 .3a2 2 0 00.31.25h.28l.11-.15zm-50.2 7.94a.28.28 0 01.07.08s0-.07 0 0a.31.31 0 00.27.1h.13a.21.21 0 00.09-.05H856.42a2.17 2.17 0 00.26 0h.12a.81.81 0 00.16 0H858.1a1 1 0 01.13 0 .07.07 0 00.07-.05.35.35 0 000-.09.23.23 0 00-.06-.09l-.14-.09a.59.59 0 01-.1-.13l-.17-.07h-.11l-.15-.08-.09-.07a.81.81 0 00-.23-.08 2 2 0 01-.26-.05.28.28 0 00-.14 0h-.32a.24.24 0 00-.15.11.79.79 0 01-.08.13.2.2 0 01-.08.05.13.13 0 00-.08 0 .13.13 0 01-.08 0h-.47v.09zm.08-.61v-.18a.63.63 0 00.06-.19.28.28 0 00-.11-.14h-.46l-.19-.06a.45.45 0 01-.14-.12.4.4 0 00-.13-.09l-.11-.12a1.17 1.17 0 00-.19 0h-.33l-.17-.08h-1.29a.17.17 0 00-.1 0l-.16.08h-.1a.13.13 0 00-.08 0v.11l.11.17h.33a.63.63 0 00.22 0h.14a.56.56 0 00.19 0 .34.34 0 01.17 0h.18l.25.08.21.12h.14l.21.06.09.06h.11l.17.06.08.06.06.07.13.08.13.08h.18a.81.81 0 00.27-.05.12.12 0 01.07.03zM875 257.63v-.2a1.35 1.35 0 000-.21v-.06a1.08 1.08 0 00-.27-.09c-.08 0-.24-.06-.29-.06a.44.44 0 01-.15-.07l-.07-.15v-.13a.38.38 0 01.19 0l.36.14.33.06a.94.94 0 00.24 0H875.75a.39.39 0 00.12-.15.55.55 0 000-.2l-.07-.1h-.18l-.08-.05-.06-.26-.08-.12-.17-.12a.5.5 0 010-.16 1.64 1.64 0 010-.25 1.55 1.55 0 010-.33 1.07 1.07 0 000-.34.16.16 0 01.05-.12.23.23 0 00.11-.09l.14-.18a.08.08 0 01.07 0 .33.33 0 00.12 0 .25.25 0 01.18-.1.4.4 0 00.25-.19v-.14-.25a.79.79 0 010-.3s.05-.06.09-.07a.79.79 0 000-.3l-.06-.1h-.33l-.12-.06v-.08l-.06-.08v-.2a.54.54 0 01.14 0h.25a.14.14 0 00.09-.06 1 1 0 000-.2v-.22h-.12l-.1-.06-.16-.08-.12-.14-.09-.28a1.1 1.1 0 010-.22 2.56 2.56 0 01.24-.31v-.08a1.19 1.19 0 01.18-.36.9.9 0 00.12-.11.24.24 0 00.09-.12l.07-.1a.05.05 0 01.06 0 .57.57 0 00.17 0l.1-.22.08-.16h.1a.63.63 0 00.12-.1l.11-.16h.37a.38.38 0 01.09-.17H877.69a.29.29 0 00.1-.11v-.15-.25l-.14-.08h-.28l-.44-.14a.53.53 0 00-.16 0 .84.84 0 01-.18 0h-.23a.23.23 0 01-.07.1 1.77 1.77 0 00-.16.08.48.48 0 01-.07.1.26.26 0 01-.18.08h-.42l-.11-.06-.09-.09a.17.17 0 01-.06-.07l-.08-.16v-.18l-.11-.28v-.14l-.07-.18v-.1l-.1-.07H874.52a.31.31 0 00-.11 0h-.13a.32.32 0 01-.13-.06h-.27v-.07l-.15-.25a.88.88 0 00-.29-.08h-.25l-.43-.06a.39.39 0 01-.1 0 1.11 1.11 0 00-.31 0l-.16.06H871.51a.74.74 0 00-.3 0 .91.91 0 00-.11.07.51.51 0 01-.21.09l-.24.11h-.25l-.4-.48h-1.16l-.12.06-.23.09-.08.05-.07.08v.1l-.09.1-.12.06-.17.18h-.52l-.13.09-.17.12-.17.16-.09.06h-.35a2.86 2.86 0 00-.48 0h-.53l-.2.05h-.12l-.1.06a.35.35 0 00-.17.12.29.29 0 01-.1.11.83.83 0 01-.2.08h-.07l-.07.07-.12.13a.76.76 0 00-.15.11.59.59 0 01-.18.1h-.33l-.13.09a.3.3 0 00-.1.11c-.05.08-.15.18-.17.23a.7.7 0 01-.08.12l-.23.47-.36.16-.23.1-.15.08a.53.53 0 00-.09.14v.14a.09.09 0 00.07 0h.27a.16.16 0 01.07.06v.12a2.52 2.52 0 01-.11.3l-.15.11a.37.37 0 00-.13.12v.12l-.13.14-.11.08-.05.07-.16.14-.28.07-.17.07a2.75 2.75 0 01-.31.09l-.2.05H860.48l-.1.22a.08.08 0 000 .09s0-.06 0 0 0 .08.06.1a.28.28 0 00.1 0 .34.34 0 01.18 0 .16.16 0 00.14.12h.05a.19.19 0 01.16 0h.06c.06 0 0 0 0 .08s.08 0-.06.21l-.14.2a.7.7 0 00-.13.24.27.27 0 000 .09 1.1 1.1 0 000 .2c0 .07 0 0 .07.07s0 0 .1 0a1.22 1.22 0 00.28 0 .17.17 0 00.1 0 .58.58 0 00.15-.06 1.39 1.39 0 00.21-.25.13.13 0 01.09-.08l.24-.06h.1a1.11 1.11 0 00.31 0l.38-.05a.46.46 0 01.25-.12c.06 0 0-.07.06 0a2.13 2.13 0 00.23.22s.13 0 .19.07a1.27 1.27 0 01.22.07 1.2 1.2 0 01.36.17.69.69 0 01.08.19.24.24 0 000 .1c0 .13.15.33.17.37a.62.62 0 01.09.11c0 .06.08.05.09.1s.07 0 .06.13a1.26 1.26 0 000 .35.43.43 0 010 .17V256.16a.32.32 0 000 .25 1.13 1.13 0 000 .15.19.19 0 00.1.1h.24v-.45H865.44a.58.58 0 010 .17.28.28 0 000 .18.32.32 0 00.17.06l.12.05h.06V257.24a.64.64 0 010 .15v.23a.66.66 0 010 .13 1.27 1.27 0 01-.07.24c0 .1-.06.22-.1.29a1.82 1.82 0 01-.09.16c0 .08-.18.15-.23.24a.48.48 0 01-.14.14l-.14.12-.11.1V259.45a.37.37 0 00-.06.19.72.72 0 000 .39c.07.16.13.28.13.28v.09s-.07-.06.06.12a4.23 4.23 0 01.24.37 2.88 2.88 0 01.21.23c0 .06.05.21.07.31a.38.38 0 00.09.29l.13.18a.45.45 0 00.18.16.45.45 0 01.22.21 1 1 0 00.1.28l.13.18c.05.08.18.12.19.16a.1.1 0 00.07.06l.25.18.17.09.11.06h.35a1.58 1.58 0 00.33-.15.22.22 0 01.15-.05.13.13 0 00.15 0c.06 0 .15-.24.22-.31a.77.77 0 00.11-.33 1.47 1.47 0 010-.29 1.18 1.18 0 00.1-.19.88.88 0 01.09-.3 2 2 0 00.17-.22 1.1 1.1 0 01.08-.22 2.32 2.32 0 01.13-.27.74.74 0 00.1-.18 1.88 1.88 0 00.13-.21l.08-.25a.47.47 0 01.06-.13 1 1 0 01.24-.16l.28-.12a1.29 1.29 0 00.19-.1h.62l.39-.11a.48.48 0 00.16-.1.3.3 0 01.09-.13 1.73 1.73 0 00.1-.17s.06-.19.11-.22a.47.47 0 00.07-.13 1.08 1.08 0 00.09-.17.33.33 0 01.1-.17l.24-.08h.36a.45.45 0 00.23 0 .26.26 0 00.27-.12c.16-.17.16-.19.21-.19a.65.65 0 00.18-.06h.37a1 1 0 01.25-.07h.53a.31.31 0 00.17 0 2.12 2.12 0 00.3-.45zm-20.68 5.47l-.12.08s-.17 0-.16.07v.06l.09.07.2-.06a.1.1 0 01.09 0 1.13 1.13 0 00.26 0h.09l.05-.26h-.13l-.28.05zm1-.56l.14-.09v-.09l-.11-.08h-.15l-.24-.06v-.08l-.12-.12h-.04a.15.15 0 010-.08.41.41 0 00-.26-.05l-.15-.15H853.97l-.16.07-.11.18a.46.46 0 00-.16.15v.06l-.05.13v.09c0 .06-.11.1-.12.17a.66.66 0 01-.08.16c0 .17-.15.11 0 .17a.46.46 0 00.29 0l.09.06h.14l.21-.08a.65.65 0 01.16-.23 1.07 1.07 0 01.2-.06h.47a2 2 0 01.34 0 2 2 0 00.14-.07zM877 261.2a.14.14 0 01.11-.09 1.06 1.06 0 00.19-.07h.16l.1-.15s0-.14.07-.14a.68.68 0 01.23 0 .32.32 0 00.16 0h.09l.14-.1v-.43l-.15-.09h-.1l-.08-.1a.06.06 0 00-.06-.07h-.06l-.08-.1-.06-.16-.23-.06h-.28l-.18.08h-.64a.55.55 0 00-.14 0 1 1 0 01-.29 0l-.3-.08-.26-.11-.17-.07h-.32l-.17.07v.22a1 1 0 00.23.07 4.21 4.21 0 01.34.32v.06a.82.82 0 000 .19c0 .06.12.08.15.15s0-.08 0 .06a.37.37 0 010 .21v.13l.19.09s.14-.06.16 0a.53.53 0 00.08.16.25.25 0 00.12.1l.16.09.16.06a.45.45 0 01.23-.1 1.57 1.57 0 00.28 0l.08-.11zm-13.52 7.31l-.11-.17-.05-.15-.05-.15-.09-.06H862.84a.29.29 0 00-.1.14.23.23 0 01-.06.13.9.9 0 01-.13.16l-.07.08a.05.05 0 000 .06.39.39 0 01-.09.19l-.1.1-.29.16-.1.06-.07.07v.17a.4.4 0 000 .15s-.1.14 0 .17a2 2 0 00.23 0h.16a.47.47 0 00.17 0v.08a.14.14 0 00.09 0 .49.49 0 01.15 0 .1.1 0 01.1.09v.12a.27.27 0 000 .15l.13.12h.14a.23.23 0 01.1 0l.21-.07h.06V269.82h.11a.39.39 0 01.14 0 .4.4 0 00.19 0 .47.47 0 01.13-.05h.09a.3.3 0 01.11-.07.56.56 0 00.14-.24v-.13l-.09-.08a.21.21 0 01-.15-.09.88.88 0 000-.2l-.05-.12h.01l-.23-.07v-.11l-.16-.07zm1-11.09a.1.1 0 000 .08v.31h.12a.11.11 0 010 .08h.66a.06.06 0 000-.06.19.19 0 00.11 0v-.08c0-.08 0 0 0 0v-.14a.94.94 0 00.16-.08.18.18 0 000-.09v-.08a.35.35 0 010-.08.62.62 0 000-.16c0-.07 0 0-.07 0h-.05a.25.25 0 00-.09.13.35.35 0 01-.09.09l-.1-.05c-.1-.05-.07 0-.07 0H865a.28.28 0 00-.16.11c-.1.09-.06 0-.12 0h-.11a.14.14 0 01-.06.06h-.07zm-10.25 23.86v.09l.08.09h.88a.12.12 0 00.07-.09v-.05a.3.3 0 000-.11.19.19 0 00-.06-.09l-.12-.06c-.12-.06-.14 0-.14 0H854.79a.18.18 0 01-.1 0 .76.76 0 00-.16 0h-.13c-.06 0 0 0 0 0a.61.61 0 00-.13.22zm46 9.81c0-.07.11-.31.12-.39a.34.34 0 010-.15l-.21-.08-.21.22a1.43 1.43 0 01-.18.32.85.85 0 01-.26.3.68.68 0 01-.25.15l-.13.1s-.22.19-.3.25l-.23.16-.2.14-.3.25-.1.28-.08.25-.09.29-.16.26-.22.18a1.21 1.21 0 01-.18.14 1.49 1.49 0 00-.18.12l-.12.25v.45h.16a.17.17 0 01.06.13v.14a.9.9 0 00.19.17c.14.1.07 0 .19 0a.25.25 0 00.16-.06l.33-.17a1 1 0 00.15-.22 3.2 3.2 0 00.19-.36 1 1 0 00.09-.2c0-.07.24-.17.32-.3a.74.74 0 01.16-.18s.24-.34.33-.45a.81.81 0 00.13-.28 4.3 4.3 0 00.21-.38.41.41 0 01.09-.16l.22-.36a1.76 1.76 0 01.23-.33.36.36 0 000-.28 1 1 0 01.08-.2zm-42.45-31.14a1.19 1.19 0 000-.35h-.52a1 1 0 01-.21 0c-.06 0-.09.12-.09.12l.07.13v.12l.09.07.37-.09zm2.88-7.17z"/></clipPath><style>.cls-9{fill:none}.cls-2{fill:url(#linear-gradient)}.cls-4{clip-path:url(#clip-path)}.cls-9{stroke:#0ff;stroke-miterlimit:10}</style></defs><g style="isolation:isolate"><g id="BACKGROUND_2" data-name="BACKGROUND 2"><g class="cls-4"><path opacity=".25" fill="url(#linear-gradient-2)" d="M11.59 9.57h66.76v66.76H11.59z"/><g style="mix-blend-mode:color-dodge" opacity=".44"><path class="cls-2" d="M850.68 255.68l.08-.15h.06l.19-.09.11-.06.22-.17a.76.76 0 01.24-.12h.19v.07l.08.07h.22v.19h.12l-.06.14-.24.2h-.18a.22.22 0 01-.13-.05h-.06l-.17.08-.12.07-.18.1a.42.42 0 01-.25 0c-.07 0 0 0 .11-.15s0 0 0-.06v-.19c0-.11 0 0-.06 0a.09.09 0 01-.17.12zm-.75 1.22h.07l.14-.05h.07l.09-.06.14-.11v-.05a.08.08 0 000-.07h-.08l-.15.07a.55.55 0 00-.13.12.12.12 0 00-.08.09zm-3.69 2.57l-.28.24a1.49 1.49 0 00-.13.18.16.16 0 00.14 0c.07 0 .11-.07.22-.11s.15-.09.24-.12a.14.14 0 00.09 0 2.25 2.25 0 01.28-.13h.06v.07c0 .01 0 0 .09 0a.54.54 0 00.19-.07c.07 0 .23-.17.29-.2a3 3 0 00.26-.17.75.75 0 01.16-.07 2.69 2.69 0 00.35-.22 1.34 1.34 0 01.28-.17 3 3 0 00.32-.14l.21-.08a1 1 0 00.2-.09.49.49 0 01.15-.11 1 1 0 00.19-.17 1 1 0 00.17-.26v-.16h-.19l-.21.1-.16.06h-.06v-.14h-.06l-.22.06-.13.07-.1.08a1.74 1.74 0 00-.12.17 1.43 1.43 0 01-.13.16.22.22 0 010 .07 1.43 1.43 0 01-.19.16l-.14.09-.16.07h-.39l-.27.14-.21.11a.33.33 0 00-.18.11 2.36 2.36 0 00-.21.19l-.15.19zm7.32-5.63a.14.14 0 000 .05c0 .09.05-.06 0 .09s0 .18 0 .17h.11l.15-.07.18-.08a1.33 1.33 0 00.23-.06h.1a.65.65 0 010 .14c0 .07-.07.13-.09.23a1.26 1.26 0 01-.09.23v.12a.39.39 0 00.13 0l.19-.07a1 1 0 01.22-.07.32.32 0 00.14 0l.15-.06.2-.15a1.22 1.22 0 01.2-.15 2.28 2.28 0 00.26-.17.61.61 0 01.15-.28.79.79 0 00.17-.1l.14-.07a.35.35 0 01.11-.08.51.51 0 00.14-.16l.06-.11v-.09a.07.07 0 00-.06-.05l-.27-.08v-.2l-.09-.05-.22.06h-.18l-.13-.17h-.53s.1-.1-.13 0a1.8 1.8 0 00-.35.25.88.88 0 00-.23.25.76.76 0 01-.16.21l-.26.25a.4.4 0 00-.13.16c-.06.02-.1.06-.11.11zm-1.91 2.57a.55.55 0 00-.21.12 1 1 0 01-.22.14l-.11.08-.22.2-.22.11h-.09v-.07l-.06-.07a.21.21 0 00-.13.06l-.17.14a.31.31 0 00-.07.12v.07l.07.08h.13v.07h.12a.58.58 0 00.19 0h.13a.35.35 0 01.13 0 .54.54 0 00.19 0h.15a1.6 1.6 0 01.26-.1.37.37 0 00.14-.11.27.27 0 01.12-.1.55.55 0 00.17-.08l.17-.19.11-.2-.09-.07h-.05v-.1l-.07-.05v-.16h-.2zm.86-1.05H852.66v.18l.24-.08h.15l.33-.22v-.14a.51.51 0 00.06-.14.15.15 0 010-.08.69.69 0 00.07-.16v-.14a.64.64 0 00-.25.09.21.21 0 00-.12.07s-.1.06-.17.07a1 1 0 01-.18.06c-.09 0 0 0-.11.08a.43.43 0 00-.15.19l-.06.14zm17.17 36V292.5s0 .16-.08.35a2.14 2.14 0 01-.14.45 2 2 0 01-.22.27v.76l-.17.42V295.78l-.26.36-.12.32-.13.23a1.36 1.36 0 01-.43.26 1.55 1.55 0 00-.39.16l-.21.13a2.2 2.2 0 01-.47.11 1 1 0 00-.37.3c-.25.12 0 0-.13 0a.35.35 0 00-.16.27h-.13a.22.22 0 00-.12.22v.18l-.19.4v.51l-.19.3a.87.87 0 01-.32.15.51.51 0 00-.19.26.78.78 0 00-.18.39v.19l-.26.33-.22.29-.15.16-.27.14-.18.06h-.24l-.06.17-.13.25v.41l-.12.34-.37.16-.22.14c-.22.14 0 0-.12 0a1.06 1.06 0 01-.32 0l-.28-.06v.21l-.1.11a.5.5 0 00-.12.24l-.14.06-.14.06V304.73l-.08.15-.24.28v.39l.1.33.15.21v.36l-.1.18-.22.1-.11.14-.09.34v.28l.07.43.12.37.21.32.21.32.26.25.27.17v.17l-.1.13-.08.05a.38.38 0 01-.35-.12 1.63 1.63 0 01-.48-.25c-.28-.22-.14-.05-.14-.05l-.27-.18-.17-.1-.31-.31c-.23-.24-.13-.25-.13-.25l-.12-.2a.54.54 0 00-.09-.43 3.25 3.25 0 01-.27-.37l-.07-.14a3.84 3.84 0 00-.27-.38c-.26-.33 0 0 0-.13a.87.87 0 00-.11-.39.3.3 0 01-.07-.26l-.1-.23c-.1-.23 0 0 0-.13a1 1 0 00-.19-.34 1 1 0 01-.14-.29v-.25a1.56 1.56 0 000-.39.25.25 0 00.22-.13v-.18l-.09-.23-.09-.31-.09-.31-.2-.22v-.2l.13-.09.15-.17a1.73 1.73 0 000-.34c0-.09-.06-.25-.1-.38l-.07-.25-.08-.29c0-.15-.08-.32-.1-.38a3 3 0 010-.58l.09-.15v-.2a.29.29 0 000-.12.11.11 0 01.14-.1v-.4l-.18-.34V299v-.26l.05-.16.12-.28v-.13c0-.13 0-.21.09-.46s0 0-.06-.14 0-.22-.07-.44 0-.18 0-.18a1.75 1.75 0 000-.18 3 3 0 00-.08-.45c-.09-.36-.11-.45-.11-.45l-.06-.27-.11-.54c0-.18-.07-.34-.08-.41v-.17c0-.18 0 0-.11-.19l-.11-.19-.38-.28-.25-.21-.34-.27-.19-.12a1.2 1.2 0 01-.3-.26 1.23 1.23 0 01-.36-.4.81.81 0 00-.36-.4c-.36-.4 0 0-.06-.14a.45.45 0 00-.16-.2l-.21-.29c-.12-.16-.27-.35-.37-.48a1.7 1.7 0 01-.23-.46 1.21 1.21 0 01-.18-.41.51.51 0 00-.3-.25l-.24-.16c-.24-.16 0 0-.06-.13a1.29 1.29 0 010-.43v-.17-.34l-.18-.4v-.47a.39.39 0 00.26-.23.49.49 0 01.25-.27v-.13a3.43 3.43 0 01.4-.26c.08-.16.22-.15.26-.28a1.48 1.48 0 01.08-.21l-.06-.13a.42.42 0 010-.3v-.52-.48h-1.51a.84.84 0 01-.47 0 .57.57 0 00-.19-.1l-.29-.23c-.29-.23 0 0 0-.13a.54.54 0 00-.06-.22l-.24-.1a1.71 1.71 0 01-.3-.27.65.65 0 00-.2-.18l-.25-.31-.2-.18-.29-.18-.34-.27-.29-.06h-.38l-.14-.14-.35-.34c-.29-.26 0 0-.1-.17s0 0-.14 0a.38.38 0 00-.24 0l-.14-.09a.9.9 0 00-.48 0h-1.76l-.39-.22a1.85 1.85 0 01-.49-.34l-.09-.09-.11-.11a.24.24 0 01-.1-.12.71.71 0 00-.34-.17l-.14-.08-.29-.16-.14-.12c-.14-.12-.1-.19-.1-.19v-.15c0-.15 0 0-.1-.15s0 0-.14-.12a.59.59 0 01-.14-.15.38.38 0 00-.14-.12c-.14-.12-.09-.19-.09-.19l-.24-.15-.33-.38a1.71 1.71 0 01-.14-.19l-.32-.29a1 1 0 01-.37-.25 1.46 1.46 0 00-.36-.32l-.1-.15c-.07-.1-.16-.26-.29-.49-.25-.46 0 0-.18-.14l-.24.08v.18l.22.21.08.21.14.14.08.21.09.14.14.14.18.22.28.26.19.15v.29h-.29L842 279a.71.71 0 01-.28-.22.36.36 0 00-.24-.14s-.23-.11-.47-.25l-.13-.39a2.36 2.36 0 01-.27-.35c-.13-.21 0 0 0-.14a.72.72 0 00-.26-.38c-.18-.17-.08-.17-.08-.17l-.12-.31-.4-.29-.13-.13c-.13-.13-.18-.06-.18-.06l-.23-.05-.11-.12a.25.25 0 00-.23-.05l-.12-.16a.24.24 0 01-.07-.16c-.07-.16-.08-.13-.08-.13s-.07-.16-.1-.26a.58.58 0 00-.15-.22.62.62 0 00-.21-.14l-.11-.18a.32.32 0 01-.06-.15v-.08c0-.22.07-.41.11-.59l.1-.51.11-.49.12-.51.15-.59v.05h.23l.21-.13v-.22-.1c0-.1-.32-.09-.32-.09l.18-.6.18-.56.18-.52.18-.49.18-.48.19-.47.2-.48.21-.49.24-.52.26-.56.3-.6a1.74 1.74 0 00.22-.06 1.09 1.09 0 01.17-.05h.08l.23-.08h.07a.46.46 0 00.13-.06.56.56 0 01.15-.06h.27l.14-.09.12-.07.13-.06h.06l.17-.09a2.08 2.08 0 00.19-.15l.12-.18h-.14l-.1.05-.11.06s-.14.12-.24.18 0 0-.05 0h-.12c-.01 0 0 0 0 0h-.32s-.11.06-.19.08h-.06l-.17.09a1.7 1.7 0 01-.19.12l-.16.06a.38.38 0 00-.11 0l-.16.06.27-.51.24-.45.29-.51.15-.07s.19-.08.32-.15l.12-.07.22-.1.22-.09.19-.08h.16l.16.06h.31a1.05 1.05 0 00.31-.12 1 1 0 01.22-.09l.27-.08h.13V263l.09.1h.19l.47-.15.31-.09.31-.09.1-.05a.31.31 0 01.2 0H846.65s.37-.12.26-.22l.12-.17h.38l.17-.05a2.66 2.66 0 00.52-.19 1.41 1.41 0 01.37-.14l.31-.11.31-.11.55-.21.44-.18a.25.25 0 00.2-.13c0-.1.07-.14 0-.25l-.17-.09.07-.19.52-.14h.22l.12.16-.1.15-.1.22v.18a1.25 1.25 0 00.31-.09 2.3 2.3 0 01.29-.1 2.14 2.14 0 00.21-.36.24.24 0 000-.19.18.18 0 00-.09-.12h-.11a.79.79 0 01-.13-.06c-.13-.06 0 0-.07-.1s0 0 0-.14a2.13 2.13 0 010-.26.37.37 0 01.08-.22.44.44 0 01.26-.18.54.54 0 00.19-.21.3.3 0 01.17-.15h.51V259.55l-.09.35h.39l.2.1v.08c0 .08.16.06.16.06l.22-.06h.32v.49l-.07.25a.06.06 0 00.08.08l.31-.18.07-.18.24-.22.28-.25v-.09a1 1 0 00.17-.25v-.19c0-.07 0 0-.18-.09a.39.39 0 00-.25 0c-.25 0 0 0 0-.07s0 0-.11-.08a1.13 1.13 0 00-.29-.05c-.16-.06-.12-.12-.12-.12l-.08-.16a.79.79 0 00-.07-.19.71.71 0 01.1-.31 1.41 1.41 0 01.17-.38c.08-.18 0 0 0-.08a2.92 2.92 0 01.27-.31 2.77 2.77 0 00.46-.32h.23a.8.8 0 01.3 0v.11l-.08.18a.38.38 0 01-.13.19.21.21 0 00-.1.16v.21h.15a.6.6 0 00.2-.19c.09-.13 0 0 0-.11a1.16 1.16 0 01.12-.24.44.44 0 01.13-.19.3.3 0 00.19-.13.2.2 0 01.13-.12l.11-.14h.11l.38-.1h.14l.32.11.14.16.14.16h.16a.49.49 0 00.2-.3l.43-.21h.12l.25-.08.1.23.24.2.33.27H859.42l.41.07.15.06.28.21h.22l.14.09.07.22V258.53a2.89 2.89 0 01-.08.34l.2.12h.19v.01l.17.16H861.51l.25.21.32.11a1 1 0 01.21.07.22.22 0 01.12.11v.12l-.05.19-.05.19a.22.22 0 01-.13.17.34.34 0 00-.17.2h-.38a.26.26 0 00-.14.17.34.34 0 01-.17.17.53.53 0 01-.17 0 .93.93 0 01-.22-.06.12.12 0 01-.1-.11l-.16-.07c-.16-.07 0 0-.12-.16h-.25l-.06.22.07.26.29.14.1.26.1.29.07.14.06.17-.05.19-.08.13-.36.11h-.22v.27h-.17a.48.48 0 00-.31.08l-.16-.07-.32-.14-.12-.07-.43-.25-.28-.14-.18-.19c-.18-.19 0 0-.1-.16a.46.46 0 00-.18-.19l-.17-.23a.44.44 0 000-.31.41.41 0 01.14-.32l.32-.4c.32-.4 0 0 0-.13a.85.85 0 01.14-.28V259.39l-.14-.1-.52-.2-.15-.06h-.89l-.25.05-.33.07c-.33.07 0 0-.11 0a2.23 2.23 0 00-.56.21l.13.09.19.2-.08.35-.1.27-.19.29-.1.27-.14.23-.46.22-.51.11-.18.08-.28.14-.19.28-.1.22s0 .24-.14.23a.83.83 0 00-.32.27 1.14 1.14 0 01-.36.31.29.29 0 00-.22.2l-.4.28h-.17c-.17 0 0 0-.14.07a1.73 1.73 0 01-.23.24 1.14 1.14 0 00-.29.33c-.16.15 0 0-.14.07a.13.13 0 00-.09.17l-.18.23-.09.17-.26.21a.68.68 0 01-.29.33.36.36 0 00-.17.34l.28.06.24.07.32.1v.23l.17.21h.26a.5.5 0 00.34 0 .31.31 0 01.26 0h.26l.18.18h.39l.51.09.06.16.16.1h.39l.39.08v1.23l.19.28.11.16a1.15 1.15 0 00.56-.14c.29-.16 0 0-.11-.16a.85.85 0 010-.56l-.07-.46s.16-.19.33-.42h.18l.32-.38.07-.29c0-.16.07-.33.09-.42a2.79 2.79 0 000-.51v-.78l.17-.39.18-.39.18-.39.29-.17.44-.06h.57l.25.05.24.1.14.2h.48l.3.05.06.17v.49a1.12 1.12 0 000 .31.91.91 0 010 .27l.21.07.55-.19.3-.25.45-.4.23.3.2.16.11.22.37.29.09.4.18.49.19.35h.22l.26.08v.18l.16.27.4.07.07.23v.42l-.16.33a.58.58 0 01-.38.2.23.23 0 00-.24.2.45.45 0 01-.18.51l-.21.29h-.5l-.28.11-.24.15-.16.24-.27-.08-.12-.17a.29.29 0 01-.08-.18c-.08-.18-.19 0-.32 0a.71.71 0 00-.32 0 1.74 1.74 0 01-.36 0 .33.33 0 00-.28.06l-.29.2-.35.34-.12.28h.19l.35-.25.24-.1.48-.25.29.39v.68l.18.13h.23l.27.08h.51l.28-.06h.18c.18 0 0 0 .13.09l-.11.28-.15.19c-.15.19 0 0-.15.1a.68.68 0 01-.34.2h-.19l-.24.05-.13-.09a.12.12 0 00-.19.05l-.16.23-.2.14h-.14a.33.33 0 01-.16-.31.19.19 0 010-.18l-.39.2-.35.06-.35.06h-.19a.29.29 0 00-.24.1l-.11.19-.12.36v.36l-.06.18-.35.33-.2.14-.3.19a1 1 0 01-.39.19c-.14 0-.11.18-.25.19a.36.36 0 00-.16.32h-.24l-.26.32.12.35v.35l-.11.27-.25.23-.25.22-.1.18-.2.13-.58.14h-.19l-.34.26v1.04l.14.22.09.3.09.3-.05.17-.06.39-.15.22-.19.08-.52-.18-.14-.13a.87.87 0 01-.08-.56l-.08-.51v-.17c0-.17-.19 0-.19 0l-.28-.08-.47-.08h-.81a.66.66 0 00-.24 0l-.38.09h-.19a1 1 0 01-.38 0c-.38 0 0 0-.19-.08a1 1 0 00-.48 0h-.43a.44.44 0 00-.29 0h-.43l-.3.36-.15.28-.05.16v.44l.14.24v.68a1.22 1.22 0 000 .28l.1.24.14.17.19.17.19.21.24.17h.33a.64.64 0 00.24 0h.19l.28-.07a.21.21 0 00.14-.24 1.31 1.31 0 01.28-.28v-.12c0-.12.33-.07.33-.07h.29V280c0-.13.19 0 .38-.07a.39.39 0 01.38.14v.25l-.14.25v.25l.05.38v.17l-.09.16-.24.07-.23.11.19.18h.76l.43.23.19.05.29.06.19.18.06.51.06.34v.47l.21.4.29.11.43.12h1.55a.47.47 0 00.37-.33h.26a1.31 1.31 0 00.4-.14.55.55 0 01.47 0l.19.05h.47l.36.15.36.15h1.65l.43.07.29.13.29.13.24.2.38.3.2.38.29.2a5 5 0 01.47.21c.19.1.19 0 .19 0l.59.14.38.21.33.2.26.22.26.22.15.24.15.29.34.44.34.44c.14.19.19.15.19.15l.28.11.22.08.37.16.47.16.16.08.37.11.37.11.23.06.33.11.19.15.51.25.32.11.23.34V291.09zm-15.47-19.31a.59.59 0 01-.18.05h-.71a.3.3 0 00-.13.05 1.15 1.15 0 00-.1.2.34.34 0 000 .13h.34l.24-.08h.12a.61.61 0 00.21-.06c.1 0 .18-.18.23-.2a.74.74 0 00.17-.15h.12a.42.42 0 01.11 0l.25-.06H855.33a.3.3 0 00.1 0v-.21h-.64l-.12.05h-.18l-.07.08v.16zm-1.69-1.05h-.27a.35.35 0 00-.17.1c0 .05.05 0 0 .05l-.21.09-.19.07-.09.13a.51.51 0 00-.09.11 1.31 1.31 0 010 .21.34.34 0 010 .08v.2a1 1 0 000 .19.08.08 0 000 .09h.29v-.05-.12c0-.04.07-.19.07-.19a.3.3 0 010-.17.33.33 0 00.09-.07v-.15a.07.07 0 010-.07l.12-.12.1-.06a.53.53 0 00.13-.1h.4a.18.18 0 01.13.1.12.12 0 01.06.09v.06a.31.31 0 00.08.13.19.19 0 01.13.05c.06.08.06.1.12.1h.12a.72.72 0 00.21-.11v-.24l.06-.12h.06a.53.53 0 00.14 0H854.04a.28.28 0 00.1-.08v-.06h-.05.11v-.17h-.74l-.23.05h-.11a1.44 1.44 0 01-.22 0 .62.62 0 00-.14 0 1.41 1.41 0 01-.24-.02zm-2.35-.14v.16h.2a.62.62 0 00.17-.08.09.09 0 01.07 0 1.75 1.75 0 00.27-.12c.14-.08.13 0 .13 0h.28l.17-.07h.15a.32.32 0 01.1 0h.38a2.84 2.84 0 00.38-.07.06.06 0 01.07 0 1 1 0 00-.13-.18h-.2a.08.08 0 010-.06.3.3 0 01-.21-.44.26.26 0 00-.12-.07.18.18 0 00-.1 0h-.24a.36.36 0 01-.1.06.48.48 0 01-.22.06h-.27a.54.54 0 01-.11.1s-.1.07-.24.14 0 0-.08 0v.05a.27.27 0 01-.09.1l-.1.07c-.1.07 0 0-.06.06l-.1.26zm-4.7-5.76s0-.06 0 0l-.24.09-.11.09a.79.79 0 01-.22.09l-.11.05a.21.21 0 00-.12.08 1.5 1.5 0 01-.14.11c-.06.06-.1 0-.14.11a.57.57 0 01-.21.1l-.14.05h-.13l-.24.09h-.06a.24.24 0 00-.14 0 .52.52 0 01-.12.14l-.17.11a.8.8 0 00-.18.09l-.16.11-.07.05a.82.82 0 00-.12.06s0-.09 0 0-.09.14 0 .13a.43.43 0 00.17-.07l.2-.11.16-.12.15-.07.17-.06.19-.05.17-.06c.09 0 .15-.08.21-.1a.77.77 0 00.17-.1.35.35 0 01.1-.13l.13-.07c.06 0 .13-.1.17-.11s.1-.06.16-.09l.16-.08a.67.67 0 00.15 0c.06 0 .09-.07.14-.09a.63.63 0 00.11-.09.65.65 0 00.12-.19zm2.84 4a.2.2 0 010 .14 1.11 1.11 0 00.06.29h.4l.07-.09.07-.1V268.74a.39.39 0 00-.11-.08h-.12l-.1-.1V268.27l-.07-.09h-.15a.2.2 0 00-.13 0 .19.19 0 01-.09.06H847.99l-.12.06h-.07l-.07.12v.11a.12.12 0 00.08.06H848.12v.11c0 .05 0 0 0 0s.18.22.2.3zm-.24-11.23h.07l.14-.1h.08l.16-.07h.1l.15-.1.05-.09.05-.09v-.07c0-.07.13-.1.17-.15a2.6 2.6 0 00.19-.24.09.09 0 000-.08h-.14a1 1 0 00-.17.09c-.06 0-.24.13-.31.18l-.28.19a.65.65 0 00-.17.18 1.61 1.61 0 01-.14.21l-.11.1h-.06a.14.14 0 00-.06.12zm8.39 3.81h-.09a.31.31 0 00-.11.23v.08l.26-.07h.15l.47-.16.11-.12v-.11c0-.11 0 0-.06-.14h-.16a1.33 1.33 0 01-.25 0h-.09l-.1.08zm-14 1.14H842.89l.16-.07a2.8 2.8 0 00.41-.21c.27-.16 0 0 .15-.13s.09-.1.09-.1l.07-.1v-.09l.2-.17.1-.1.09-.11v-.05a1.47 1.47 0 01.23-.2l.17-.12a3 3 0 00.44-.37s.38-.23.47-.31a.66.66 0 00.22-.18c.09-.13 0 0 0-.1s0 0-.07 0l-.18.06a.07.07 0 01-.07-.06l-.25.11-.24.12-.24.12s-.27.15-.38.19a.85.85 0 01-.21.07 1.39 1.39 0 00-.21.1 1.41 1.41 0 00-.25.14.13.13 0 01-.06 0c-.06 0-.12.14-.26.25a1 1 0 00-.18.17l-.07.09-.02.23-.24.38zm1.89-2.35l.16-.08.28-.17.17-.09.34-.23.12-.11.13-.13.12-.09.12-.09.15-.09h.08l.09-.06.24-.17a2 2 0 00.2-.2 1.8 1.8 0 00.15-.19 1.65 1.65 0 00.12-.2h-.07l-.14.07a.92.92 0 00-.15.08 2.49 2.49 0 01-.24.17.9.9 0 00-.19.16l-.3.28a1.59 1.59 0 00-.22.17l-.09.06c-.09.06-.13.13-.22.19l-.25.19-.14.1-.2.15-.17.15-.06.11zm3.58 1.29h.32l.32-.07.14-.08.14-.18v-.18l.13-.11a1.09 1.09 0 00.23-.18l.14-.08.13-.15v-.17a1 1 0 00-.24 0h-.21.07-.11v-.06l-.08-.05-.06-.11V260h-.28v-.08s-.08 0 0-.06a.26.26 0 000-.12.71.71 0 000-.13h.09l.25-.19.13-.07.18-.07a.4.4 0 01.13-.18.75.75 0 00.17-.25l-.09-.09h-.22l-.2.08h-.08c-.1.15-.12.08-.1.15a.24.24 0 010 .16l-.11.17-.17.08h-.11l-.12.19-.13.15-.35.19-.13.07a.17.17 0 00-.17 0 1.84 1.84 0 01-.26.11l-.12.05-.11.06h-.12l-.23.09-.17.06-.12.05H846.1a.55.55 0 00-.17.06h-.07l-.14.12a.55.55 0 00-.12.11.89.89 0 01-.2.14l-.18.11-.17.12-.17.17a.5.5 0 00-.13.1l-.07.07-.14.09-.13.12-.13.15a.11.11 0 000 .1h.3v.18l-.07.19a.07.07 0 000 .07.43.43 0 010 .12v.07h.12a.45.45 0 00.15 0l.15-.06s.1-.07.13 0h.1l.06.05s-.06.05 0 0a.87.87 0 00.19 0 .56.56 0 01.19 0 .55.55 0 00.2-.06h.2a.68.68 0 01.21-.12.55.55 0 00.19-.11l.17-.11a1.07 1.07 0 01.2-.08l.23-.02.25-.09.16-.12h.1l.25-.09h.06a.14.14 0 01.1 0c.08-.01-.06 0 .08-.01zm49.7-4.66l.12.12a.58.58 0 01.12.17.43.43 0 00.13.29 1.92 1.92 0 00.2.11 1.42 1.42 0 00.24.13s0-.08.06 0a.63.63 0 00.15.12s0 .07.08 0a.21.21 0 000-.14.37.37 0 00-.12-.19.74.74 0 00-.2-.16l-.21-.12-.17-.2-.37-.32s-.12-.12-.09-.06 0 0 0 .12a.37.37 0 00.1.03zm-2.25-1.16l.14.14.26.18.16.1a.94.94 0 00.19.08c.07 0 0-.08 0-.08a.41.41 0 000-.21 1 1 0 00-.09-.14 2.1 2.1 0 00-.39-.23l-.3-.14a.21.21 0 00-.15 0l.13.13zm6.58 5.2a.2.2 0 01-.13 0 1.5 1.5 0 00-.17 0c-.08 0-.39-.16-.39-.16a2.07 2.07 0 01-.22-.12 1.68 1.68 0 00-.23-.09.22.22 0 00-.13 0 .24.24 0 01-.15 0 .23.23 0 00-.18 0h-.34c-.1 0 0 0-.14-.07s-.06 0-.12 0a.18.18 0 00-.09.06.59.59 0 010 .31.4.4 0 01-.12.11 1 1 0 01-.28.13h-.07c-.07 0 0 .05-.1 0s0 .12-.06.09 0 .15 0 .15l.26.43c.17.28.05.08.05.08l.15.11.19.08a1 1 0 01.33.19l.46.33.32.17.16.05h.17a.2.2 0 000-.11.27.27 0 00-.08-.06 1.18 1.18 0 01-.19-.26l-.34-.3-.12-.26a.43.43 0 01-.12-.29v-.09c0-.09 0 0 .05-.06s.06 0 .06-.07.1 0 .1 0h.22a.67.67 0 00.18-.05c0-.06.12 0 .14 0h.08c.01 0 .11-.18.11-.18l.12-.05h.15l.48.24.34.17-.17-.26zm-3.35 1.52l.08.16.18.1H899.17a.93.93 0 00-.11-.32l-.27-.18h-.17c-.08 0 0 .1 0 .1V262.67zm1.45-4.14H900l-.2-.12s-.24-.15-.32-.21-.2-.12-.26-.15l-.22-.24c-.19-.1 0 .07 0 .07v.09l.11.1.13.11.23.17.16.09.18.1.14.08.15.1.36.24-.19-.25zm-14.56-5.4h.52V253c0-.08.07-.06.2 0v.44h-.06c-.06 0 0 .1 0 .1v.31l.09.23.05.16v.09l.19.1.2.06h.21l.13-.06v-.18a.77.77 0 00.08-.26c0-.17.22 0 .25-.06a.33.33 0 000-.13h.09a.31.31 0 00.16 0 .57.57 0 01.27.15v.09l.06.22a1.43 1.43 0 00.16.13l.23.14.14.07h.53l.16.08h.32a.26.26 0 00-.09-.13l-.07-.1a.25.25 0 00-.15-.11l-.34-.16a3.74 3.74 0 01-.28-.25.68.68 0 01-.15-.28.26.26 0 00-.11-.16c-.11-.16-.11 0-.24-.1a.6.6 0 01-.19-.18l-.21-.19c-.07-.06-.15-.05-.24-.12s0-.09 0-.09v-.06a.37.37 0 01.24.07l.28.28.25.15.49.16h.18l.39.13h.12a.24.24 0 000-.19l-.11-.23-.17-.12c-.08-.05-.33-.11-.43-.17a.65.65 0 00-.19-.07l-.36-.1a2.18 2.18 0 01-.31-.19l-.33-.26c-.32-.26-.09 0-.18 0s-.11.1-.11.1-.05.18-.19.11a4 4 0 00-.47-.16 3.13 3.13 0 01-.35 0c-.12-.06-.23 0-.37-.1a1.06 1.06 0 00-.28-.07h-.23c-.09 0-.1.11-.1.11v.09a1.17 1.17 0 01.06.24.61.61 0 010 .24.75.75 0 00.09.34 1.15 1.15 0 00.2-.05zm-5.5 14.77h.32l.14-.06.13-.13h.09l.29-.14a.16.16 0 00.13-.11 1.08 1.08 0 000-.33c0-.33 0 0 .06-.09a.66.66 0 00.09-.16c.08-.16 0 0 0-.18a.69.69 0 00-.07-.47c-.08-.22 0 0-.16-.06h-.09a.19.19 0 00-.16 0h-.12a.74.74 0 00-.32 0c-.11 0 0 .09 0 .09a.48.48 0 01-.13.3c-.11.09 0 0-.11 0a.45.45 0 00-.23.06c-.23.06.1.24.1.24l.12.1v.12l-.08.25-.16.06c-.16.06 0 0-.07 0a1.09 1.09 0 00.06.47zm-26-11.17a1.41 1.41 0 00.33 0 .43.43 0 01.13 0H855.64l.2-.06a.28.28 0 00.15-.08l.17-.15a2.09 2.09 0 00.22-.14l.18-.05.18-.05.18-.07h.11l.24-.06a1 1 0 00.14-.26v-.12-.08a.52.52 0 00-.09-.05.38.38 0 00-.25.05h-.12l-.2.06-.21.1a1.38 1.38 0 01-.28.08.81.81 0 01-.29 0h-.16l-.21.1-.51.28a.57.57 0 01-.24.08c-.05 0 0-.08 0-.08H854.24V256h-.1a.19.19 0 01-.11-.1.39.39 0 01.12-.15l-.09-.08H853.63a.5.5 0 00-.15.06l-.23.09-.17.07a1.67 1.67 0 00-.31.18.24.24 0 01-.12.07l-.13.12v.15h.14l.22-.07h.1l.19-.07a1.28 1.28 0 01.27 0h.08a.17.17 0 01.12 0v.4l-.06.17h.17a.28.28 0 00.15 0 .62.62 0 01.1-.12zm-1.93 1.86h.12l.14-.08.14-.08h.08a1.16 1.16 0 00.23-.15l.22-.27.16-.11.11-.05.24-.28v-.07a.67.67 0 00.08-.17v-.14c0-.14 0 0-.07 0a.34.34 0 00-.17 0l-.17.07h-.1l-.24.08-.31.09h-.08l-.15.18-.08.12-.07.13-.1.28-.09.19v.13h.13zm29.11 6.57v.36s.06.21.14.45a.24.24 0 00.26.21v.12l.17.13.12.13.1.17v.44l-.27.1v.19a.63.63 0 01-.06.2l-.09.16v.14l.1.15.09.05v.12l-.11.13-.16.06h-.07c-.07 0 0 .23 0 .23l.12.1h.07a.72.72 0 01.3 0l.18-.13.18-.08h.09a2.13 2.13 0 01.44 0 1.47 1.47 0 00.42 0 1.33 1.33 0 00.31-.08.22.22 0 00.13-.08.23.23 0 00.13-.1.48.48 0 00.06-.25v-.28c0-.1-.06-.23-.06-.23v-.09a1.46 1.46 0 00-.47-.25.48.48 0 01-.2-.27c-.2-.27 0-.16-.08-.26a2 2 0 00-.22-.2.65.65 0 01-.12-.13c0-.07-.15-.17-.25-.34a.59.59 0 01-.28-.16.18.18 0 010-.14h.22a1.05 1.05 0 00.21-.3.32.32 0 00-.14-.15l-.12-.06c-.12-.06-.14 0-.15-.18s0 0 0-.12a.32.32 0 00-.08-.17.36.36 0 00-.22 0 .17.17 0 01-.1-.15h-.42a.83.83 0 00-.15.15c-.09.06 0 0-.07 0h-.27v.18l.24.23zm-31-5.66h.15v.07l.12.12h.13l.2-.1.12-.13h.07l.14-.08a2.63 2.63 0 00.28-.24c.14-.13 0 0 0-.09a.37.37 0 01.05-.14l.12-.32h-.06a.11.11 0 00-.08-.06c-.05 0 .06-.16.06-.16l.06-.16v-.19h-.1l-.14.05-.22.13-.17.08-.2.08a.13.13 0 00-.07 0 1.54 1.54 0 00-.21.38v.06l-.05.09a.46.46 0 01-.14.14.39.39 0 00-.12.08h-.1a1.14 1.14 0 00-.32.15c-.15.1 0 0 0 .07v.07h.42zm2.06-2.19h.08l.31-.14.31-.14.14-.16.08-.21v-.05c0-.05-.13 0-.18 0a1 1 0 00-.24.14l-.19.11-.09.07a.21.21 0 00-.1.12l-.07.1v.15zm5-.56H857.7l.09-.06a.51.51 0 00.09-.14c0-.06 0 0 0 0v-.08c0-.08 0 0 0 0a.08.08 0 00-.06 0 1.62 1.62 0 01-.28 0c-.07 0 0 0-.09-.07a.67.67 0 00-.18.07c-.08 0 0 0 0 0a.13.13 0 00-.07.06v.14a.24.24 0 000 .12zm-1.27-4.68l.24-.07a.24.24 0 010 .08.14.14 0 00.1.07h.27c.1 0 .36-.12.36-.12l.25-.08a1 1 0 01.22-.08 2.32 2.32 0 00.33-.12.43.43 0 01.17-.08 1 1 0 00.22-.08l.14-.05a.29.29 0 01-.08.24 1.75 1.75 0 01-.21.19 1.83 1.83 0 01-.42.25l-.28.16a.62.62 0 00-.21.13.42.42 0 00-.27.23l-.06.21h.2v.18l-.2.35a.51.51 0 00-.24.12v.06a.59.59 0 00-.16.19 1.2 1.2 0 01-.29.23 1.22 1.22 0 00-.29.23v.08a.57.57 0 000 .21.3.3 0 01-.13.17l-.25.19-.25.19-.11.11a.08.08 0 000 .11.18.18 0 00.18.07.6.6 0 01.17-.06 2.56 2.56 0 00.35-.14l.29-.13s.2-.14.17-.06 0 .14 0 .12a.6.6 0 01.25-.06.86.86 0 00.26 0h.21a.18.18 0 01.14 0 .27.27 0 00.18 0l.44-.17a.54.54 0 00.24-.23 1.69 1.69 0 00.2-.34 1 1 0 01.15-.23 2.56 2.56 0 01.22-.2c.06 0 .12-.18.21-.24s.15-.29.21-.33a.88.88 0 01.11-.36.87.87 0 00.22-.19l.16-.15.1-.23a.38.38 0 01.15-.23.66.66 0 00.16-.13 2.39 2.39 0 00.3-.27l.39-.32.32-.32.18-.17a2 2 0 01.34-.32c.07 0 .21-.16.28-.18a2.11 2.11 0 00.35-.3 2.44 2.44 0 00.22-.14l.36-.24.23-.27.12-.1a1.52 1.52 0 01.24-.14l.43-.26s-.25.06.09-.11l.34-.17.11-.35v-.11h-.69a2.38 2.38 0 00-.31 0l-.44.14a1.87 1.87 0 00-.3 0l-.26.08-.42.13-.31.09-.38.13c-.09.05-.33.11-.49.21l-.4.2-.29.13-.38.22a1.15 1.15 0 00-.32.08 4.31 4.31 0 01-.53.17l-.24.11a2.61 2.61 0 00-.31.2 2.44 2.44 0 01-.36.2l-.22.15-.35.26-.21.13-.13.11-.2.14-.25.18-.19.14-.34.29a.35.35 0 000 .2.6.6 0 01.12.07zm30.91 21.67a.93.93 0 00.23-.06.48.48 0 00.21-.26.73.73 0 010-.16v-.18l-.12-.07-.37.11a.59.59 0 010 .25.45.45 0 00.08.36c-.11.1-.18.01-.11.01zm1.68 1.1h.21a1.39 1.39 0 00.47 0l.2-.32-.09-.05h-.94l-.07.13.05.18zm7.37 1.22h.24l.12-.05a.1.1 0 00.09-.08v-.15c0-.07-.12-.07-.12-.07H896a.24.24 0 01-.16 0 .22.22 0 00-.16.11h-.1c-.1 0 0 .14 0 .14l.15.09h.14zm12.2 3.45H906l-.28-.07h-.44l-.25-.12-.19-.1-.19-.1h-1.15l-.28-.15-.13-.08-.19-.27-.13-.17-.13-.13-.19-.2-.44-.09h-.19l-.06.2a1.17 1.17 0 00.13.28l.16.2s.13.2.19.28a.39.39 0 00.19.18c.09 0-.12-.3.09 0a1.4 1.4 0 00.28.32.5.5 0 00.19.1.49.49 0 01.19.12l.25.1h.16l.13-.1.16-.1h.73a.28.28 0 01.25.12c0 .12-.06 0 0 .12a1.08 1.08 0 00.4.21 1.23 1.23 0 01.31.09.9.9 0 01.12.11l.06.07v.11a.82.82 0 010 .32c0 .09-.13.12-.21.24s-.14.14-.17.21a1.72 1.72 0 01-.43.23l-.13.08-.26.13a.49.49 0 00-.29.06c-.07.07 0-.07-.07.07a2.21 2.21 0 01-.41.35l-.36.14-.52.12-.2.08a1.23 1.23 0 00-.37.24 1.27 1.27 0 01-.3.21.46.46 0 01-.23.09h-.19a.73.73 0 00-.36.12.66.66 0 01-.33.12h-1.04l-.24-.09-.08-.1-.08-.18v-.21-.34l-.08-.2-.33-.25-.24-.23-.14-.29v-.32l-.37-.26-.36-.34-.24-.48-.3-.46v-.22-.19l-.12-.14-.09-.16-.09-.16-.22-.17h-.44a.18.18 0 00-.1.16.46.46 0 010 .22s-.06 0 0 .11a.87.87 0 01.06.36.47.47 0 000 .24c0 .08.09.38.09.38l.19.08.15.13.33.38.15.13.11.27.07.4.17.29.13.37a1 1 0 00.07.29l.19.34.24.18.18.1.17.23.24.06a1.14 1.14 0 01.32.24 1.81 1.81 0 00.13.25c0 .1-.06 0 .05.1a.64.64 0 00.23.17.36.36 0 00.24.09h.44l.35-.05h.13a3.73 3.73 0 00.44 0h.54l.42-.13-.05.18a.19.19 0 00-.05.15.82.82 0 01-.07.3l-.2.3-.2.3-.08.13-.26.27-.06.18-.23.27-.25.22-.25.22-.5.26-.21.18-.29.24-.42.3a.86.86 0 00-.24.16 2.64 2.64 0 00-.28.22.8.8 0 01-.24.19l-.36.33-.37.36-.14.28-.18.34a1.36 1.36 0 00-.08.37 1.77 1.77 0 00-.08.37c0 .18-.08.22 0 .32s0 .21 0 .28l.16.3a1.25 1.25 0 00-.08.32c0 .07-.1.3-.1.4s-.06.14-.06.24a2.3 2.3 0 01-.11.43 2.66 2.66 0 01-.19.42l-.2.25-.2.12-.32-.04-.22.1-.14.1-.2.12-.42.34c-.14.11-.43.38-.43.38v.11a1.15 1.15 0 00-.2.46c0 .24-.09.23-.09.36s-.05.09-.07.25-.08.2-.07.27-.06.12-.05.19v.07l-.25.24-.12.05-.12.06a.85.85 0 00-.32.21c0 .08-.14.22-.17.32a.84.84 0 01-.07.25c-.08.17-.12.34-.17.43s.13-.11-.05.09l-.19.2a.25.25 0 00-.14.11c-.05.09-.18.28-.18.28a.26.26 0 00-.12.13.71.71 0 01-.22.24 1.72 1.72 0 01-.33.24l-.14.14a.18.18 0 00-.14.14 1.08 1.08 0 01-.26.31l-.38.26-.28.14-.28.14-.4.15-.33.08-.25.09a.42.42 0 00-.23.08l-.12.09-.22.08H887.95v-.79l-.07-.15-.1-.29v-.19-.25l-.12-.35-.06-.13-.08-.13-.06-.25-.2-.28v-.29l.06-.33.07-.24a.15.15 0 000-.14c0-.11-.12-.3-.12-.3L887 296l-.19-.27v-.2l.09-.42-.1-.31a2.11 2.11 0 00.05-.39v-.52s-.08 0 0-.15a1.4 1.4 0 00.2-.41.45.45 0 00.17-.2v-.27a.35.35 0 01.11-.16.94.94 0 00.2-.38l.11-.16.08-.19v-.21l-.14-.1a.52.52 0 01-.18-.25v-.24a.25.25 0 00.09-.27v-.2a.79.79 0 00-.13-.49l-.1-.14-.1-.2-.24-.28h-.18l-.14-.11-.13-.2V288.83l.06-.36.06-.3a1.31 1.31 0 010-.36v-.3a.93.93 0 000-.3v-.18l-.27-.08h-.53l-.15-.05-.21-.08-.17-.21-.17-.18-.22-.05h-.19l-.22-.05-.28-.05h-.31a.37.37 0 00-.16.13 1.31 1.31 0 01-.26.22.47.47 0 01-.35.17 2.6 2.6 0 01-.44.07h-.53l-.18-.06h-.5l-.25.07-.13.06a.6.6 0 01-.41.13h-.37l-.21-.21-.36-.34-.11-.28-.4-.25-.18-.25-.24-.19-.28-.22-.12-.16-.27-.25-.21-.38-.15-.16-.34-.22-.06-.28-.12-.35.07-.35.08-.47a.23.23 0 010-.19 1.31 1.31 0 000-.47v-.32l-.05-.47v-.38-.51l.13-.28.13-.44.16-.25a.94.94 0 01.32-.22c.1 0 .13-.16.22-.19s0 .19.1 0a4.07 4.07 0 00.16-.44l.1-.15.16-.22.13-.06.32-.25.13-.09.22-.15.16-.15.13-.34.06-.28.1-.31.13-.15.1-.19.06-.19a.34.34 0 01.13-.06h.28a.38.38 0 01.19-.21.59.59 0 00.25-.12l.25-.09.13-.12h.41l.41.17.35-.24h.16l.41-.08.16-.12h.35l.25-.08h.19l.12-.15.19-.08h3c.1.12.06-.12.1.12v.24l-.06.39a.3.3 0 000 .18c0 .09.13.27.13.27l.13.15.16.09h.13l.16.13a.22.22 0 00.13.12l.35.1.26.1a.85.85 0 01.25.13.5.5 0 00.25.1l.32.13.22.09a.54.54 0 00.25.1 2.44 2.44 0 00.54.07.63.63 0 00.35-.28s0-.18.06-.17a2.54 2.54 0 00.35 0 .82.82 0 01.38 0 2 2 0 00.48.1h.25l.35.15.35.07.16.06a1.06 1.06 0 00.29.07c.13 0 .48.07.48.07a1 1 0 00.32 0l.57-.06a.15.15 0 01.19-.1H896.31l.19-.07.09-.16a.75.75 0 010-.27v-.3a.8.8 0 01.12-.18l.06-.1.16-.1.12-.1v-.3l-.29-.1-.2-.2a.2.2 0 00-.19-.09.92.92 0 01-.29 0h-.56a.39.39 0 00-.19 0 .94.94 0 01-.28 0h-.32a.35.35 0 01-.25 0 2.33 2.33 0 01-.38-.14l-.22-.07v-.11l-.19-.12-.17-.21-.07-.2-.11-.35v-.14l-.16-.15-.48-.09-.12.11v.2a.26.26 0 010 .15v.14l.07.15v.37l-.09.14c-.12.08-.06 0-.12.08l-.06.08-.28.1h-.22l-.16-.07-.07-.26v-.17l-.13-.15-.2-.16-.1-.15-.2-.19-.07-.15v-.23l-.11-.21-.1-.18-.17-.22-.11-.21-.2-.28-.35-.2-.16-.16-.23-.16-.32-.17-.13-.13-.16-.13a.42.42 0 00-.13-.07l-.48-.16-.09.14v.15a1.31 1.31 0 00.17.34l.26.2.39.32a.73.73 0 00.16.16l.1.07.26.22.13.07h.13l.16.07h.13l.1.21-.15.14s-.16 0-.12.08a.18.18 0 010 .12v.54l-.19.08h-.13l-.16-.1v-.21l-.07-.15-.07-.15v-.15l-.19-.07-.32-.2-.23-.13-.13-.07-.2-.22-.16-.19-.2-.19-.07-.18-.23-.22-.19-.13-.13-.07-.13-.07h-.32l-.15.11-.12.08-.15.17-.21.17h-.24l-.16-.07-.13-.1-.07-.16h-.12l-.19-.07-.12.14v.12l-.09.12-.06.15-.12.08-.18.23-.37.1-.12.12v.18l-.12.15h-.16a.8.8 0 00-.06.27v.18l-.22.21-.12.12-.12.06-.31.2h-.13a.49.49 0 00-.19.06 1.32 1.32 0 01-.31.08h-1.04l-.44-.08-.47-.2v-.34a1.13 1.13 0 010-.22v-.72l-.07-.35.06-.19.09-.18v-.53l.19-.09.19-.06h.35a.15.15 0 00.13.1h1.16a.45.45 0 00.22-.08h.25s.06-.24.08-.33a3.09 3.09 0 00-.17-.26.33.33 0 010-.19.61.61 0 000-.25s.22.07-.07-.16a5.53 5.53 0 01-.42-.36h-.19l-.25-.08h-.13l-.13-.1-.13-.1-.06-.13.21-.17h.74l.3-.13.15-.11h.22l.12-.08a.54.54 0 01.27-.13 1.43 1.43 0 00.33-.1l.12-.11.11-.23a.41.41 0 01.17-.17l.3-.1a.92.92 0 00.34-.3v-.21a.2.2 0 01.08-.17.32.32 0 00.11-.2l.45-.08a.33.33 0 01.18 0 .5.5 0 00.21 0H886.36v-.56l-.09-.31v-.54l.08-.14.2-.06.1-.16h.15l.08.22.18.35v.15l.19.14.11.19-.32.17.11.19h.24a.33.33 0 01.18 0 2.11 2.11 0 00.37.07l.34.13.25.06a.22.22 0 01.18 0c.09 0 .24-.06.36 0a.87.87 0 00.33 0h.12l.56-.07.44-.08.13-.18.09-.27v-.17l.07-.13.07-.16H891.49l.11-.23.09-.18v-.17l.07-.1h1.28l.08-.23-.08-.12-.3-.09-.39-.07h-.15l-.16.05h-.46l-.3-.08-.23-.15h-.24l-.13-.11-.17-.34v-.3l-.08-.29v-.31c0-.12-.12-.19 0-.17a.13.13 0 00.13-.09.78.78 0 01.3-.08.86.86 0 00.32-.1l.06-.12V262.2a.74.74 0 00-.31-.15.51.51 0 01-.24-.08h-.23l-.13.05h-.16l-.2.15a.13.13 0 00-.09.15V262.74s-.17 0-.15.14-.07.1-.14.2 0-.09-.07.1a1.12 1.12 0 01-.22.27.18.18 0 01-.16.09l-.22.25v.4l.13.11.24.07h.12v.55a.14.14 0 00-.1.13c0 .09-.13.09-.12.18a.28.28 0 01-.09.19l-.07.19-.17.32v.18c0 .09-.09 0-.11.1a.46.46 0 01-.19.18l-.23.09-.17.12h-.24l-.31-.16-.09-.33v-.23l-.24-.32-.16-.14-.14-.19-.14-.23-.06-.3-.18-.05h.1-.2l-.08.14v.11l-.14.07-.17.13h-.47l-.15-.35-.08-.28-.13-.17-.1-.13v-.07a1.38 1.38 0 01-.1-.4 1.38 1.38 0 00-.1-.4l.02-.3.15-.25.11-.08.13-.16.1-.1.19-.15a1 1 0 00.34 0c.08 0 0-.15.18-.18a.77.77 0 00.2 0 2.07 2.07 0 00.27-.31 1.39 1.39 0 00.31-.21l.1-.27a.26.26 0 01.05-.22 1.48 1.48 0 01.15-.32 1.12 1.12 0 00.27-.21l.15-.11.25-.29v-.11l.12-.26.17-.1.12-.08.23-.06a.88.88 0 01.31-.07.46.46 0 00.25-.11l.17-.1h.51l.22.06a.36.36 0 01.22-.08l.38.08.33.06h.11l.55.23.3.1.3.1.32.15a2.17 2.17 0 00.4.32 3.41 3.41 0 00.38.24 3.63 3.63 0 01.4.22l.2.16.44.25.25.15.37.21.23.17.36.25s.28.23.37.28a1 1 0 01.35.2 2.24 2.24 0 01.25.38v.28l-.3.06-.45-.18-.22-.11a.23.23 0 00-.17 0 1.23 1.23 0 01-.35 0 2 2 0 00-.42-.16.3.3 0 01-.15-.06h-.15l.24.2.24.2v.35a1.79 1.79 0 01.08.22c0 .08-.17-.12 0 .08a2.09 2.09 0 00.41.33l.48.15-.38-.3-.09-.25s-.09-.15.12-.07l.21.08.17.12.26.17.21.08.16-.13v-.31H896.7a1 1 0 00.16-.1l.06-.05a.1.1 0 01.16 0 3 3 0 00.32.19 2.06 2.06 0 000-.35c0-.14-.06-.34-.06-.34v-.18s0-.11.14 0 .22.05.31.1l.37.16.3.12-.36.06s-.28-.16-.23-.07l.13-.07a1.18 1.18 0 00.24.26l.34.18.09-.1a.39.39 0 00.26.09l.29-.1h.53s-.12-.13.11-.08.48.12.48.12 0-.06.11 0l.11.1.3.19.21.1.19.05h.16l.31.06.3.1.23.09h.21l.19.06v-.06l-.06-.13-.24-.21-.25-.19v-.14l.2.08a.66.66 0 00.19.15l.44.26.29.14.21.11.17.07a3.31 3.31 0 00.45.26l.36.68.33.65.31.63.28.61.26.59.24.58.22.56.21.55.19.54.18.53.16.52.15.52.14.52.13.52.12.52.11.52c0 .18.07.35.1.53l.09.54q0 .27.08.55t.07.56q0 .28.06.58t.05.59V278.74c.16.26.16.52.16.75zm-12.51 8.26l-.34.12-.28.07s-.19.06-.16.18v.12l-.09.25h.22l.28-.32.16-.18zm3.13-14.26l-.16-.17-.25-.22-.36-.31-.23-.22-.23-.22a.35.35 0 01-.17-.26v-.31l-.17-.26-.29.32a.48.48 0 000 .28l.06.17-.46.07-.48-.17-.12-.26-.3-.24H895.12l-.35.21-.12.19-.21.23s.05 0 0 .2l-.08.16a.82.82 0 00-.21.31v.29s0 .08.24.1h.24c.24 0 0 .08.24 0a1.19 1.19 0 01.47 0h.47l.38.12h.71l.43.1.43.1.43.08h.19c.19 0 0 .12.19 0l.18-.1zm5.17.88l-.16-.16-.35-.18-.34-.11-.3-.21-.41-.27a.23.23 0 010-.29v-.29l.21-.12a.33.33 0 00.25-.18l-.11-.12h-1.37a.26.26 0 01-.26.08c-.15-.06.07.19 0 .3a.19.19 0 000 .23l-.08.34.23.43a1.51 1.51 0 01.46.38 1.61 1.61 0 00.18.39l.17.31.32.47.29.1h.29a.37.37 0 00.36-.19c.08-.21 0 0-.06-.11s0-.14 0-.14v-.15l.35-.22.18-.05zm1.91-1l-.24-.33-.37-.06c-.07.12-.1 0-.07.12s-.11.19 0 .3a2 2 0 00.31.25h.28l.11-.15zm-50.2 7.94a.28.28 0 01.07.08s0-.07 0 0a.31.31 0 00.27.1h.13a.21.21 0 00.09-.05H856.42a2.17 2.17 0 00.26 0h.12a.81.81 0 00.16 0H858.1a1 1 0 01.13 0 .07.07 0 00.07-.05.35.35 0 000-.09.23.23 0 00-.06-.09l-.14-.09a.59.59 0 01-.1-.13l-.17-.07h-.11l-.15-.08-.09-.07a.81.81 0 00-.23-.08 2 2 0 01-.26-.05.28.28 0 00-.14 0h-.32a.24.24 0 00-.15.11.79.79 0 01-.08.13.2.2 0 01-.08.05.13.13 0 00-.08 0 .13.13 0 01-.08 0h-.47v.09zm.08-.61v-.18a.63.63 0 00.06-.19.28.28 0 00-.11-.14h-.46l-.19-.06a.45.45 0 01-.14-.12.4.4 0 00-.13-.09l-.11-.12a1.17 1.17 0 00-.19 0h-.33l-.17-.08h-1.29a.17.17 0 00-.1 0l-.16.08h-.1a.13.13 0 00-.08 0v.11l.11.17h.33a.63.63 0 00.22 0h.14a.56.56 0 00.19 0 .34.34 0 01.17 0h.18l.25.08.21.12h.14l.21.06.09.06h.11l.17.06.08.06.06.07.13.08.13.08h.18a.81.81 0 00.27-.05.12.12 0 01.07.03zM875 257.63v-.2a1.35 1.35 0 000-.21v-.06a1.08 1.08 0 00-.27-.09c-.08 0-.24-.06-.29-.06a.44.44 0 01-.15-.07l-.07-.15v-.13a.38.38 0 01.19 0l.36.14.33.06a.94.94 0 00.24 0H875.75a.39.39 0 00.12-.15.55.55 0 000-.2l-.07-.1h-.18l-.08-.05-.06-.26-.08-.12-.17-.12a.5.5 0 010-.16 1.64 1.64 0 010-.25 1.55 1.55 0 010-.33 1.07 1.07 0 000-.34.16.16 0 01.05-.12.23.23 0 00.11-.09l.14-.18a.08.08 0 01.07 0 .33.33 0 00.12 0 .25.25 0 01.18-.1.4.4 0 00.25-.19v-.14-.25a.79.79 0 010-.3s.05-.06.09-.07a.79.79 0 000-.3l-.06-.1h-.33l-.12-.06v-.08l-.06-.08v-.2a.54.54 0 01.14 0h.25a.14.14 0 00.09-.06 1 1 0 000-.2v-.22h-.12l-.1-.06-.16-.08-.12-.14-.09-.28a1.1 1.1 0 010-.22 2.56 2.56 0 01.24-.31v-.08a1.19 1.19 0 01.18-.36.9.9 0 00.12-.11.24.24 0 00.09-.12l.07-.1a.05.05 0 01.06 0 .57.57 0 00.17 0l.1-.22.08-.16h.1a.63.63 0 00.12-.1l.11-.16h.37a.38.38 0 01.09-.17H877.69a.29.29 0 00.1-.11v-.15-.25l-.14-.08h-.28l-.44-.14a.53.53 0 00-.16 0 .84.84 0 01-.18 0h-.23a.23.23 0 01-.07.1 1.77 1.77 0 00-.16.08.48.48 0 01-.07.1.26.26 0 01-.18.08h-.42l-.11-.06-.09-.09a.17.17 0 01-.06-.07l-.08-.16v-.18l-.11-.28v-.14l-.07-.18v-.1l-.1-.07H874.52a.31.31 0 00-.11 0h-.13a.32.32 0 01-.13-.06h-.27v-.07l-.15-.25a.88.88 0 00-.29-.08h-.25l-.43-.06a.39.39 0 01-.1 0 1.11 1.11 0 00-.31 0l-.16.06H871.51a.74.74 0 00-.3 0 .91.91 0 00-.11.07.51.51 0 01-.21.09l-.24.11h-.25l-.4-.48h-1.16l-.12.06-.23.09-.08.05-.07.08v.1l-.09.1-.12.06-.17.18h-.52l-.13.09-.17.12-.17.16-.09.06h-.35a2.86 2.86 0 00-.48 0h-.53l-.2.05h-.12l-.1.06a.35.35 0 00-.17.12.29.29 0 01-.1.11.83.83 0 01-.2.08h-.07l-.07.07-.12.13a.76.76 0 00-.15.11.59.59 0 01-.18.1h-.33l-.13.09a.3.3 0 00-.1.11c-.05.08-.15.18-.17.23a.7.7 0 01-.08.12l-.23.47-.36.16-.23.1-.15.08a.53.53 0 00-.09.14v.14a.09.09 0 00.07 0h.27a.16.16 0 01.07.06v.12a2.52 2.52 0 01-.11.3l-.15.11a.37.37 0 00-.13.12v.12l-.13.14-.11.08-.05.07-.16.14-.28.07-.17.07a2.75 2.75 0 01-.31.09l-.2.05H860.48l-.1.22a.08.08 0 000 .09s0-.06 0 0 0 .08.06.1a.28.28 0 00.1 0 .34.34 0 01.18 0 .16.16 0 00.14.12h.05a.19.19 0 01.16 0h.06c.06 0 0 0 0 .08s.08 0-.06.21l-.14.2a.7.7 0 00-.13.24.27.27 0 000 .09 1.1 1.1 0 000 .2c0 .07 0 0 .07.07s0 0 .1 0a1.22 1.22 0 00.28 0 .17.17 0 00.1 0 .58.58 0 00.15-.06 1.39 1.39 0 00.21-.25.13.13 0 01.09-.08l.24-.06h.1a1.11 1.11 0 00.31 0l.38-.05a.46.46 0 01.25-.12c.06 0 0-.07.06 0a2.13 2.13 0 00.23.22s.13 0 .19.07a1.27 1.27 0 01.22.07 1.2 1.2 0 01.36.17.69.69 0 01.08.19.24.24 0 000 .1c0 .13.15.33.17.37a.62.62 0 01.09.11c0 .06.08.05.09.1s.07 0 .06.13a1.26 1.26 0 000 .35.43.43 0 010 .17V256.16a.32.32 0 000 .25 1.13 1.13 0 000 .15.19.19 0 00.1.1h.24v-.45H865.44a.58.58 0 010 .17.28.28 0 000 .18.32.32 0 00.17.06l.12.05h.06V257.24a.64.64 0 010 .15v.23a.66.66 0 010 .13 1.27 1.27 0 01-.07.24c0 .1-.06.22-.1.29a1.82 1.82 0 01-.09.16c0 .08-.18.15-.23.24a.48.48 0 01-.14.14l-.14.12-.11.1V259.45a.37.37 0 00-.06.19.72.72 0 000 .39c.07.16.13.28.13.28v.09s-.07-.06.06.12a4.23 4.23 0 01.24.37 2.88 2.88 0 01.21.23c0 .06.05.21.07.31a.38.38 0 00.09.29l.13.18a.45.45 0 00.18.16.45.45 0 01.22.21 1 1 0 00.1.28l.13.18c.05.08.18.12.19.16a.1.1 0 00.07.06l.25.18.17.09.11.06h.35a1.58 1.58 0 00.33-.15.22.22 0 01.15-.05.13.13 0 00.15 0c.06 0 .15-.24.22-.31a.77.77 0 00.11-.33 1.47 1.47 0 010-.29 1.18 1.18 0 00.1-.19.88.88 0 01.09-.3 2 2 0 00.17-.22 1.1 1.1 0 01.08-.22 2.32 2.32 0 01.13-.27.74.74 0 00.1-.18 1.88 1.88 0 00.13-.21l.08-.25a.47.47 0 01.06-.13 1 1 0 01.24-.16l.28-.12a1.29 1.29 0 00.19-.1h.62l.39-.11a.48.48 0 00.16-.1.3.3 0 01.09-.13 1.73 1.73 0 00.1-.17s.06-.19.11-.22a.47.47 0 00.07-.13 1.08 1.08 0 00.09-.17.33.33 0 01.1-.17l.24-.08h.36a.45.45 0 00.23 0 .26.26 0 00.27-.12c.16-.17.16-.19.21-.19a.65.65 0 00.18-.06h.37a1 1 0 01.25-.07h.53a.31.31 0 00.17 0 2.12 2.12 0 00.3-.45zm-20.68 5.47l-.12.08s-.17 0-.16.07v.06l.09.07.2-.06a.1.1 0 01.09 0 1.13 1.13 0 00.26 0h.09l.05-.26h-.13l-.28.05zm1-.56l.14-.09v-.09l-.11-.08h-.15l-.24-.06v-.08l-.12-.12h-.04a.15.15 0 010-.08.41.41 0 00-.26-.05l-.15-.15H853.97l-.16.07-.11.18a.46.46 0 00-.16.15v.06l-.05.13v.09c0 .06-.11.1-.12.17a.66.66 0 01-.08.16c0 .17-.15.11 0 .17a.46.46 0 00.29 0l.09.06h.14l.21-.08a.65.65 0 01.16-.23 1.07 1.07 0 01.2-.06h.47a2 2 0 01.34 0 2 2 0 00.14-.07zM877 261.2a.14.14 0 01.11-.09 1.06 1.06 0 00.19-.07h.16l.1-.15s0-.14.07-.14a.68.68 0 01.23 0 .32.32 0 00.16 0h.09l.14-.1v-.43l-.15-.09h-.1l-.08-.1a.06.06 0 00-.06-.07h-.06l-.08-.1-.06-.16-.23-.06h-.28l-.18.08h-.64a.55.55 0 00-.14 0 1 1 0 01-.29 0l-.3-.08-.26-.11-.17-.07h-.32l-.17.07v.22a1 1 0 00.23.07 4.21 4.21 0 01.34.32v.06a.82.82 0 000 .19c0 .06.12.08.15.15s0-.08 0 .06a.37.37 0 010 .21v.13l.19.09s.14-.06.16 0a.53.53 0 00.08.16.25.25 0 00.12.1l.16.09.16.06a.45.45 0 01.23-.1 1.57 1.57 0 00.28 0l.08-.11zm-13.52 7.31l-.11-.17-.05-.15-.05-.15-.09-.06H862.84a.29.29 0 00-.1.14.23.23 0 01-.06.13.9.9 0 01-.13.16l-.07.08a.05.05 0 000 .06.39.39 0 01-.09.19l-.1.1-.29.16-.1.06-.07.07v.17a.4.4 0 000 .15s-.1.14 0 .17a2 2 0 00.23 0h.16a.47.47 0 00.17 0v.08a.14.14 0 00.09 0 .49.49 0 01.15 0 .1.1 0 01.1.09v.12a.27.27 0 000 .15l.13.12h.14a.23.23 0 01.1 0l.21-.07h.06V269.82h.11a.39.39 0 01.14 0 .4.4 0 00.19 0 .47.47 0 01.13-.05h.09a.3.3 0 01.11-.07.56.56 0 00.14-.24v-.13l-.09-.08a.21.21 0 01-.15-.09.88.88 0 000-.2l-.05-.12h.01l-.23-.07v-.11l-.16-.07zm1-11.09a.1.1 0 000 .08v.31h.12a.11.11 0 010 .08h.66a.06.06 0 000-.06.19.19 0 00.11 0v-.08c0-.08 0 0 0 0v-.14a.94.94 0 00.16-.08.18.18 0 000-.09v-.08a.35.35 0 010-.08.62.62 0 000-.16c0-.07 0 0-.07 0h-.05a.25.25 0 00-.09.13.35.35 0 01-.09.09l-.1-.05c-.1-.05-.07 0-.07 0H865a.28.28 0 00-.16.11c-.1.09-.06 0-.12 0h-.11a.14.14 0 01-.06.06h-.07zm-10.25 23.86v.09l.08.09h.88a.12.12 0 00.07-.09v-.05a.3.3 0 000-.11.19.19 0 00-.06-.09l-.12-.06c-.12-.06-.14 0-.14 0H854.79a.18.18 0 01-.1 0 .76.76 0 00-.16 0h-.13c-.06 0 0 0 0 0a.61.61 0 00-.13.22zm46 9.81c0-.07.11-.31.12-.39a.34.34 0 010-.15l-.21-.08-.21.22a1.43 1.43 0 01-.18.32.85.85 0 01-.26.3.68.68 0 01-.25.15l-.13.1s-.22.19-.3.25l-.23.16-.2.14-.3.25-.1.28-.08.25-.09.29-.16.26-.22.18a1.21 1.21 0 01-.18.14 1.49 1.49 0 00-.18.12l-.12.25v.45h.16a.17.17 0 01.06.13v.14a.9.9 0 00.19.17c.14.1.07 0 .19 0a.25.25 0 00.16-.06l.33-.17a1 1 0 00.15-.22 3.2 3.2 0 00.19-.36 1 1 0 00.09-.2c0-.07.24-.17.32-.3a.74.74 0 01.16-.18s.24-.34.33-.45a.81.81 0 00.13-.28 4.3 4.3 0 00.21-.38.41.41 0 01.09-.16l.22-.36a1.76 1.76 0 01.23-.33.36.36 0 000-.28 1 1 0 01.08-.2zm-42.45-31.14a1.19 1.19 0 000-.35h-.52a1 1 0 01-.21 0c-.06 0-.09.12-.09.12l.07.13v.12l.09.07.37-.09zm2.88-7.17z" transform="translate(-828.03 -235.15)"/><g clip-path="url(#clip-path-3)"><path d="M897 303.26l-.6.6-.6.57-.59.55-.59.54-.58.52-.57.5-.57.48-.56.46-.56.44-.55.43-.55.41-.54.4-.54.38-.53.36-.53.35-.52.34-.52.32-.52.31-.51.3-.51.28-.5.27-.5.26-.5.25-.49.23-.49.22-.49.21-.49.2-.48.19-.48.18-.48.17-.47.16-.47.15-.47.14-.47.13-.47.12-.47.11-.46.1-.46.09-.46.08-.46.07-.46.06-.46.06h-5.5l-.46-.06-.46-.06-.46-.07-.46-.08-.46-.09-.46-.1-.46-.11-.47-.12-.47-.13-.47-.14-.47-.15-.47-.16-.48-.17-.48-.18-.48-.19-.49-.2-.48-.24-.49-.22-.49-.23-.5-.25-.5-.26-.5-.27-.52-.27-.51-.3-.49-.3-.52-.32-.52-.34-.53-.35-.53-.36-.54-.38-.54-.4-.55-.41-.55-.43-.56-.44-.56-.46-.57-.48-.57-.5-.58-.52-.59-.54-.59-.55-.6-.57-.6-.6-.6-.6-.57-.6-.55-.59-.53-.58-.52-.58-.5-.57-.48-.57-.46-.56-.44-.56-.43-.55-.41-.55-.4-.54-.38-.54-.36-.53-.35-.53-.34-.52-.32-.52-.31-.52-.29-.51-.28-.51-.27-.5-.26-.5-.25-.5-.23-.49-.22-.49-.21-.49-.2-.49-.19-.48-.18-.48-.17-.48-.16-.47-.15-.47-.14-.47-.13-.47-.12-.44-.11-.47-.1-.46-.09-.46-.08-.46-.07-.46-.06-.46c0-.15 0-.31-.06-.46s0-.3 0-.46v-.46-.46-.45-.46-.46-.45-.45-.45-.46-.46-.46c0-.16 0-.31.06-.46s0-.31.06-.46l.07-.46.08-.46.09-.46.1-.46.11-.47.12-.47.13-.47.14-.47.15-.47.16-.47.17-.48.18-.48.19-.48.2-.49.21-.49.22-.49.23-.49.25-.5.26-.5.27-.5.28-.51.3-.51.31-.52.32-.52.34-.52.35-.53.36-.53.38-.54.4-.54.41-.55.43-.55.44-.56.46-.56.48-.57.5-.57.52-.58.53-.58.55-.59.57-.6.6-.6.6-.6.6-.57.59-.55.59-.53.58-.52.57-.5.57-.48.56-.46.56-.44.55-.43.55-.41.54-.4.54-.38.53-.36.53-.35.52-.34.52-.32.52-.31.51-.3.51-.28.5-.27.5-.26.5-.25.49-.23.46-.24.49-.21.49-.2.48-.19.48-.18.48-.17.47-.16.47-.15.47-.14.47-.13.47-.12.46-.11.46-.1.46-.09.46-.08.46-.07.46-.06.46-.06h5.5l.46.06.46.06.46.07.46.08.46.09.46.1.47.11.47.12.47.13.47.14.47.15.47.16.48.17.48.18.48.19.49.2.49.21.51.2.49.23.5.25.5.26.5.27.51.28.51.3.52.31.52.32.52.34.53.35.53.36.54.38.54.4.55.41.55.43.56.44.56.46.57.48.57.5.58.52.58.53.59.55.6.57.6.6.6.6.57.6.55.59.53.58.52.58.5.57.48.57.46.56.44.56.43.55.41.55.39.54.38.54.36.53.36.54.34.52.32.52.31.52.3.51.28.51.27.5.26.5.25.5.23.49.22.49.21.49.2.49.19.48.18.48.17.48.16.47.15.47.14.47.13.47.12.47.11.47.1.46.09.46.08.46.07.46q0 .23.06.46t.06.46v5.49c0 .16 0 .31-.06.46s0 .31-.06.46l-.07.46-.08.46-.09.46-.1.46-.11.47-.12.47-.13.47-.14.47-.15.47-.16.47-.17.48-.18.48-.19.48-.2.49-.21.49-.22.49-.23.49-.25.5-.26.5-.27.5-.28.51-.3.51-.31.52-.32.52-.34.52-.35.53-.36.53-.38.54-.39.54-.41.55-.43.55-.44.56-.46.56-.48.57-.5.57-.52.58-.53.58-.55.59-.57.6z" transform="translate(-828.03 -235.15)" fill="url(#linear-gradient-4)"/></g></g></g><path class="cls-9" d="M31.31.5H.5v30.81M.5 59.13v30.81h30.81M89.94 31.31V.5H59.13M59.13 89.94h30.81V59.13"/></g></g></svg>