<svg preserveAspectRatio="none" id="Layer_1" data-name="Layer 1" xmlns="http://www.w3.org/2000/svg" viewBox="0 0 64.23 63.43"><defs><style>.cls-1{fill:#0ff}</style></defs><g id="_编组_" data-name="&lt;编组&gt;"><path id="_复合路径_" data-name="&lt;复合路径&gt;" class="cls-1" d="M277.93 102.37a32 32 0 01-9.1-3.79l5.48-9a21.5 21.5 0 006.12 2.55zm22-2.43l-4.67-9.4a21.7 21.7 0 001.92-1.08l5.6 8.88a32.11 32.11 0 01-2.88 1.6zm-33.77-3.21a32.21 32.21 0 01-11.94-18.61l10.25-2.28a21.7 21.7 0 008 12.54zm44-4.85l-8-6.78a21.69 21.69 0 005.12-14v-.65l10.49-.32v1a32.19 32.19 0 01-7.59 20.75zM264 69.21l-10.46-.91a32.43 32.43 0 01.45-3.23l10.31 2a21.78 21.78 0 00-.3 2.14zm37.72-12.58a21.71 21.71 0 00-1.55-1.56l7.06-7.77a32.37 32.37 0 012.3 2.32zM272 54.26l-6.61-8.16a32.12 32.12 0 018.51-5l3.83 9.77a21.65 21.65 0 00-5.73 3.39zm22.67-2.85a21.5 21.5 0 00-9-2 21.76 21.76 0 00-5.81.79L277 40.11a32.29 32.29 0 0122 1.76z" transform="translate(-253.55 -38.94)"/><path id="_复合路径_2" data-name="&lt;复合路径&gt;" class="cls-1" d="M285.87 98.56v-1h.05a26.58 26.58 0 004.09-.37c.66-.11 1.34-.25 2-.42h.05l.25 1h-.05c-.69.18-1.4.33-2.09.44a28.76 28.76 0 01-4.26.38h-.05zm-2-.1h-.11l.06-.95h.11zm-4.24-.55h-.05c-.68-.16-1.38-.35-2.06-.56a26.54 26.54 0 01-4-1.57h-.05l.46-.94h.05a26.11 26.11 0 003.82 1.52c.65.2 1.32.38 2 .52h.05zm16.66-1.55l-.37-.87h.09l.37.87zm2-.86l-.48-.93a25.82 25.82 0 003.49-2.17c.56-.41 1.1-.84 1.62-1.29l.69.79c-.54.46-1.09.9-1.64 1.3a28.76 28.76 0 01-3.62 2.27zm-26.51-.77l-.08-.05.52-.84h.08zm-3.53-2.4c-.55-.46-1.09-.94-1.6-1.43a27.4 27.4 0 01-2.83-3.2l.68-.7a28.1 28.1 0 002.73 3.08c.51.48 1 .95 1.54 1.36zm38.31-3.49l-.71-.62.06-.07.72.61zm1.36-1.65l-.92-.61a27.26 27.26 0 002.17-3.58c.33-.63.61-1.26.86-1.87v-.05l1 .4v.05c-.27.67-.58 1.33-.89 1.94a26.46 26.46 0 01-2.22 3.65zM262.47 86v-.15l.87-.56v.14zm-2-3.79v-.05q-.44-1-.79-2a27.55 27.55 0 01-1.09-4.16l1-.19v.05a26.17 26.17 0 001 4c.22.64.47 1.29.75 1.91v.05zm51.76-4.68l-.91-.22v-.1l.92.22zm.47-2.09l-1-.16v-.06a26.69 26.69 0 00.32-4.1l.05-.05 1 .05a29 29 0 01-.33 4.26v.05zM258.29 74l.05-.11.93-.09v.1zM312 69.9v-.05a26.52 26.52 0 00-.51-4.08c-.14-.67-.3-1.34-.49-2v-.06l1-.29v.05c.2.68.37 1.38.51 2.08v.05a26.56 26.56 0 01.52 4.19v.05zm-52.74-.15l-1-.06v-.05c0-.71.1-1.43.2-2.13a27.1 27.1 0 01.89-4.18v-.06l1 .29v.05a26.58 26.58 0 00-.85 4c-.08.67-.15 1.36-.19 2.06v.05zm1.71-8l-1-.37v-.09l.92.39v.07zm48.64-1.78v-.09l.85-.4.05.09zm-1-1.81a26.28 26.28 0 00-2.3-3.41c-.44-.55-.89-1.07-1.34-1.55l.77-.71c.48.52 1 1.07 1.4 1.63a26.46 26.46 0 012.39 3.54v.05zM262.68 58l-.9-.52c.35-.6.73-1.21 1.14-1.82a27.13 27.13 0 012.68-3.33l.81.67a26.31 26.31 0 00-2.56 3.16l.06.06h-.12c-.37.54-.72 1.11-1.06 1.7zm5.1-6.43l-.64-.7.07-.06.64.69zm34.1-1.11v-.19l.59-.73.07.06zm-1.61-1.29a26.73 26.73 0 00-3.59-2c-.64-.29-1.28-.56-1.9-.79l-.27-.11h.25l.34-.9h.05c.66.24 1.31.51 1.93.8a29 29 0 013.74 2.09zM271 49.1V49l-.54-.82a26.2 26.2 0 011.83-1.11 27.66 27.66 0 013.89-1.76h.05l.36 1h-.05a26.17 26.17 0 00-3.74 1.7c-.6.33-1.2.68-1.76 1.06zm7.48-3.47l-.25-.91h.09l.25.9zm12.35-.44h-.1l.18-.93h.11zm-2-.28h-.05a26.24 26.24 0 00-3.15-.19h-1c-.69 0-1.39.07-2.06.15h-.05l-.12-1h.05c.73-.08 1.45-.14 2.13-.16a28.45 28.45 0 014.27.17h.05z" transform="translate(-253.55 -38.94)"/><path id="_复合路径_3" data-name="&lt;复合路径&gt;" class="cls-1" d="M285.6 90.65a19.53 19.53 0 1119.53-19.53 19.55 19.55 0 01-19.53 19.53zm0-38.31a18.78 18.78 0 1018.78 18.78 18.8 18.8 0 00-18.78-18.79z" transform="translate(-253.55 -38.94)"/></g></svg>