<svg preserveAspectRatio="none" id="Layer_1" data-name="Layer 1" xmlns="http://www.w3.org/2000/svg" xmlns:xlink="http://www.w3.org/1999/xlink" viewBox="0 0 109.38 111.67"><defs><style>.cls-1{fill:url(#linear-gradient);}.cls-2{fill:url(#linear-gradient-2);}.cls-3{fill:url(#linear-gradient-3);}</style><linearGradient id="linear-gradient" x1="388.99" y1="497.67" x2="388.99" y2="582.33" gradientUnits="userSpaceOnUse"><stop offset="0.01" stop-color="#5d85c4"/><stop offset="1" stop-color="#334f7e"/></linearGradient><linearGradient id="linear-gradient-2" x1="386.63" y1="480.67" x2="386.63" y2="592.33" gradientUnits="userSpaceOnUse"><stop offset="0.03" stop-color="#71ebb2"/><stop offset="0.99" stop-color="#339567"/></linearGradient><linearGradient id="linear-gradient-3" x1="388.99" y1="509.9" x2="388.99" y2="570.1" gradientUnits="userSpaceOnUse"><stop offset="0.02" stop-color="#dd697d"/><stop offset="0.98" stop-color="#a13246"/></linearGradient></defs><title>circle11</title><path class="cls-1" d="M389,582.33A42.33,42.33,0,1,1,431.32,540,42.38,42.38,0,0,1,389,582.33Zm0-76.67A34.33,34.33,0,1,0,423.32,540,34.37,34.37,0,0,0,389,505.67Z" transform="translate(-331.94 -480.67)"/><path class="cls-2" d="M389,592.33A52.39,52.39,0,0,1,336.65,540h4a48.33,48.33,0,1,0,59-47.15l0.88-3.9A52.34,52.34,0,0,1,389,592.33ZM344.3,527.59l-12.36-4,1.24-3.8,12.36,4Zm3.56-9-11.26-6.5,2-3.46,11.26,6.5Zm5.36-8.08-9.66-8.7,2.68-3,9.66,8.7Zm6.92-6.79-7.64-10.52,3.24-2.35,7.64,10.52Zm8.18-5.21L363,486.61l3.65-1.63L372,496.86Zm9.08-3.39-2.7-12.72,3.91-.83,2.7,12.72ZM391,493.67h-4v-13h4v13Z" transform="translate(-331.94 -480.67)"/><path class="cls-3" d="M389,513.43a1.76,1.76,0,1,1,1.76-1.76A1.76,1.76,0,0,1,389,513.43Zm1.76,54.9A1.76,1.76,0,1,0,389,570.1,1.76,1.76,0,0,0,390.75,568.33Zm-5.93-56.41a1.76,1.76,0,1,0-1.36,2.09A1.76,1.76,0,0,0,384.82,511.92Zm11.78,55.43a1.76,1.76,0,1,0-1.36,2.09A1.76,1.76,0,0,0,396.6,567.35ZM379.07,513.4a1.76,1.76,0,1,0-.89,2.33A1.76,1.76,0,0,0,379.07,513.4Zm23,51.77a1.76,1.76,0,1,0-.89,2.33A1.76,1.76,0,0,0,402.12,565.17ZM373.76,516a1.76,1.76,0,1,0-.39,2.46A1.76,1.76,0,0,0,373.76,516Zm33.31,45.84a1.76,1.76,0,1,0-.39,2.46A1.76,1.76,0,0,0,407.07,561.89Zm-38-42.15a1.76,1.76,0,1,0,.13,2.49A1.76,1.76,0,0,0,369.11,519.73Zm42.11,37.92a1.76,1.76,0,1,0,.13,2.49A1.76,1.76,0,0,0,411.22,557.65Zm-45.89-33.34a1.76,1.76,0,1,0,.65,2.41A1.76,1.76,0,0,0,365.33,524.31Zm49.07,28.33a1.76,1.76,0,1,0,.65,2.41A1.76,1.76,0,0,0,414.41,552.64Zm-51.82-23.07a1.76,1.76,0,1,0,1.13,2.22A1.76,1.76,0,0,0,362.59,529.57Zm53.89,17.51a1.76,1.76,0,1,0,1.13,2.22A1.76,1.76,0,0,0,416.48,547.08ZM361,535.29a1.76,1.76,0,1,0,1.57,1.94A1.76,1.76,0,0,0,361,535.29Zm56.36,5.92a1.76,1.76,0,1,0,1.57,1.94A1.76,1.76,0,0,0,417.35,541.21Zm-56.72,0a1.76,1.76,0,1,0,1.94,1.57A1.76,1.76,0,0,0,360.63,541.21ZM417,535.29a1.76,1.76,0,1,0,1.94,1.57A1.76,1.76,0,0,0,417,535.29ZM361.5,547.08a1.76,1.76,0,1,0,2.22,1.13A1.76,1.76,0,0,0,361.5,547.08Zm53.89-17.51a1.76,1.76,0,1,0,2.22,1.13A1.76,1.76,0,0,0,415.39,529.57Zm-51.82,23.07a1.76,1.76,0,1,0,2.41.65A1.76,1.76,0,0,0,363.57,552.64Zm49.07-28.33a1.76,1.76,0,1,0,2.41.65A1.76,1.76,0,0,0,412.64,524.31Zm-45.89,33.34a1.76,1.76,0,1,0,2.49.13A1.76,1.76,0,0,0,366.75,557.65Zm42.11-37.92a1.76,1.76,0,1,0,2.49.13A1.76,1.76,0,0,0,408.86,519.73Zm-38,42.15a1.76,1.76,0,1,0,2.46-.39A1.76,1.76,0,0,0,370.91,561.89ZM404.22,516a1.76,1.76,0,1,0,2.46-.39A1.76,1.76,0,0,0,404.22,516Zm-28.36,49.12a1.76,1.76,0,1,0,2.33-.89A1.76,1.76,0,0,0,375.85,565.17Zm23-51.77a1.76,1.76,0,1,0,2.33-.89A1.76,1.76,0,0,0,398.9,513.4Zm-17.53,53.95a1.76,1.76,0,1,0,2.09-1.36A1.76,1.76,0,0,0,381.37,567.35Zm11.78-55.43a1.76,1.76,0,1,0,2.09-1.36A1.76,1.76,0,0,0,393.15,511.92Z" transform="translate(-331.94 -480.67)"/></svg>