<svg preserveAspectRatio="none" id="Layer_1" data-name="Layer 1" xmlns="http://www.w3.org/2000/svg" viewBox="0 0 117.63 117.63"><defs><style>.cls-1{fill:#12aac2;}.cls-2{fill:#0e8092;}.cls-3{fill:#ff8a29;}</style></defs><title>circle75</title><path class="cls-1" d="M369.84,25l-0.15-1a52.91,52.91,0,0,0-44.08,43.93l1,0.15A51.9,51.9,0,0,1,369.84,25Z" transform="translate(-318.91 -17.11)"/><path class="cls-1" d="M378.18,70.6L379.41,57c-0.56,0-1.12-.08-1.68-0.08s-1.13,0-1.68.08l1.23,13.64c0.15,0,.3,0,0.46,0S378,70.58,378.18,70.6Z" transform="translate(-318.91 -17.11)"/><path class="cls-1" d="M384.19,58c-0.52-.19-1.06-0.37-1.6-0.52s-1.1-.26-1.65-0.35l-2.34,13.48a5.15,5.15,0,0,1,.88.23Z" transform="translate(-318.91 -17.11)"/><path class="cls-1" d="M388.52,60.3c-0.46-.32-0.92-0.63-1.42-0.92s-1-.53-1.5-0.77L379.87,71a5.22,5.22,0,0,1,.8.44Z" transform="translate(-318.91 -17.11)"/><path class="cls-1" d="M381.65,72.36l10.47-8.74c-0.36-.43-0.73-0.85-1.13-1.25s-0.82-.77-1.25-1.13L381,71.73A5.13,5.13,0,0,1,381.65,72.36Z" transform="translate(-318.91 -17.11)"/><path class="cls-1" d="M394.75,67.76c-0.24-.51-0.48-1-0.77-1.5s-0.59-1-.91-1.42l-11.14,7.84a5.16,5.16,0,0,1,.48.79Z" transform="translate(-318.91 -17.11)"/><path class="cls-1" d="M396.21,72.43c-0.1-.55-0.21-1.1-0.35-1.65s-0.33-1.08-.52-1.6l-12.75,4.68a5.17,5.17,0,0,1,.27.89Z" transform="translate(-318.91 -17.11)"/><path class="cls-1" d="M382.92,76.11l13.48,1.22c0-.56.08-1.12,0.08-1.68s0-1.13-.08-1.68L382.9,75.18a5.16,5.16,0,0,1,.06.61C383,75.89,382.93,76,382.92,76.11Z" transform="translate(-318.91 -17.11)"/><path class="cls-1" d="M395.34,82.1c0.19-.52.37-1.06,0.52-1.6s0.26-1.1.35-1.65l-13.33-2.31a5.1,5.1,0,0,1-.22.92Z" transform="translate(-318.91 -17.11)"/><path class="cls-1" d="M393.06,86.44c0.32-.46.63-0.92,0.91-1.42s0.53-1,.77-1.5l-12.23-5.66a5.25,5.25,0,0,1-.45.84Z" transform="translate(-318.91 -17.11)"/><path class="cls-1" d="M381.13,79.72L389.74,90c0.43-.36.85-0.73,1.25-1.13s0.77-.82,1.13-1.25L381.79,79A5.2,5.2,0,0,1,381.13,79.72Z" transform="translate(-318.91 -17.11)"/><path class="cls-1" d="M385.61,92.66c0.51-.24,1-0.48,1.5-0.77s1-.59,1.42-0.92l-7.73-11a5.19,5.19,0,0,1-.83.49Z" transform="translate(-318.91 -17.11)"/><path class="cls-1" d="M380.93,94.12c0.55-.1,1.1-0.21,1.65-0.35s1.08-.33,1.6-0.52l-4.62-12.59a5.15,5.15,0,0,1-.93.26Z" transform="translate(-318.91 -17.11)"/><path class="cls-1" d="M371.26,93.25c0.52,0.19,1.06.37,1.6,0.52s1.1,0.26,1.65.35l2.29-13.2a5.15,5.15,0,0,1-.93-0.26Z" transform="translate(-318.91 -17.11)"/><path class="cls-1" d="M366.93,91c0.46,0.32.92,0.63,1.42,0.92s1,0.53,1.5.77l5.64-12.17a5.2,5.2,0,0,1-.82-0.49Z" transform="translate(-318.91 -17.11)"/><path class="cls-1" d="M373.66,79l-10.33,8.63c0.36,0.43.73,0.85,1.13,1.25s0.82,0.77,1.25,1.13l8.61-10.32A5.26,5.26,0,0,1,373.66,79Z" transform="translate(-318.91 -17.11)"/><path class="cls-1" d="M360.7,83.52c0.24,0.51.48,1,.77,1.5s0.59,1,.91,1.42l11-7.74a5.25,5.25,0,0,1-.45-0.84Z" transform="translate(-318.91 -17.11)"/><path class="cls-1" d="M359.24,78.85c0.1,0.55.21,1.1,0.35,1.65s0.33,1.08.52,1.6l12.68-4.65a5.1,5.1,0,0,1-.22-0.91Z" transform="translate(-318.91 -17.11)"/><path class="cls-1" d="M372.55,75.18L359,74c0,0.56-.08,1.12-0.08,1.68s0,1.13.08,1.68l13.48-1.22c0-.11,0-0.22,0-0.33A5.16,5.16,0,0,1,372.55,75.18Z" transform="translate(-318.91 -17.11)"/><path class="cls-1" d="M360.12,69.18c-0.19.52-.37,1.06-0.52,1.6s-0.26,1.1-.35,1.65l13.35,2.32a5.28,5.28,0,0,1,.27-0.89Z" transform="translate(-318.91 -17.11)"/><path class="cls-1" d="M362.39,64.84c-0.32.46-.63,0.92-0.91,1.42s-0.53,1-.77,1.5l12.35,5.72a5.26,5.26,0,0,1,.48-0.79Z" transform="translate(-318.91 -17.11)"/><path class="cls-1" d="M374.46,71.73l-8.75-10.49c-0.43.36-.85,0.73-1.25,1.13s-0.77.82-1.13,1.25l10.47,8.74A5.22,5.22,0,0,1,374.46,71.73Z" transform="translate(-318.91 -17.11)"/><path class="cls-1" d="M369.84,58.62c-0.51.24-1,.48-1.5,0.77s-1,.59-1.42.92l7.85,11.16a5.21,5.21,0,0,1,.8-0.44Z" transform="translate(-318.91 -17.11)"/><path class="cls-1" d="M374.52,57.16c-0.55.1-1.1,0.21-1.65,0.35s-1.08.33-1.6,0.52L376,70.87a5.15,5.15,0,0,1,.88-0.23Z" transform="translate(-318.91 -17.11)"/><path class="cls-1" d="M374.8,115.17h5.84v14.29h2.65V101.84a1,1,0,0,0-1-1h-8.86a1,1,0,0,0-1,1v27.62h2.31V115.17Z" transform="translate(-318.91 -17.11)"/><path class="cls-1" d="M323.91,72.72H338.2v5.84H323.91v2.65h27.62a1,1,0,0,0,1-1V71.38a1,1,0,0,0-1-1H323.91v2.31Z" transform="translate(-318.91 -17.11)"/><path class="cls-1" d="M403,71V79.9a1,1,0,0,0,1,1h27.62V78.56H417.25V72.72h14.29V70.07H403.92A1,1,0,0,0,403,71Z" transform="translate(-318.91 -17.11)"/><path class="cls-2" d="M333.46,83.28a0.25,0.25,0,0,0-.2.29,44.8,44.8,0,0,0,3.81,11.92,0.87,0.87,0,0,1,.42-0.27,44.27,44.27,0,0,1-3.74-11.73A0.24,0.24,0,0,0,333.46,83.28Z" transform="translate(-318.91 -17.11)"/><path class="cls-2" d="M338.26,96.74a0.86,0.86,0,0,1-.47.18,45.26,45.26,0,0,0,23.14,20.88,0.87,0.87,0,0,1,.2-0.46A44.77,44.77,0,0,1,338.26,96.74Z" transform="translate(-318.91 -17.11)"/><path class="cls-2" d="M369.89,119.85a44.3,44.3,0,0,1-7.21-1.92,0.86,0.86,0,0,1-.17.47,44.79,44.79,0,0,0,7.29,1.94h0A0.25,0.25,0,0,0,369.89,119.85Z" transform="translate(-318.91 -17.11)"/><path class="cls-2" d="M385.36,120.14a0.25,0.25,0,0,0,.25.21h0a45,45,0,0,0,21.77-10.45,0.25,0.25,0,1,0-.33-0.38,44.49,44.49,0,0,1-21.52,10.34A0.25,0.25,0,0,0,385.36,120.14Z" transform="translate(-318.91 -17.11)"/><path class="cls-2" d="M421.7,83.48A44.5,44.5,0,0,1,411.58,105a0.25,0.25,0,0,0,.19.41,0.25,0.25,0,0,0,.19-0.09A45,45,0,0,0,422.2,83.56a0.25,0.25,0,0,0-.2-0.29A0.24,0.24,0,0,0,421.7,83.48Z" transform="translate(-318.91 -17.11)"/><path class="cls-2" d="M385.56,32a44.74,44.74,0,0,1,36,35.81,0.25,0.25,0,0,0,.25.2h0a0.25,0.25,0,0,0,.2-0.29A45.25,45.25,0,0,0,385.65,31.5a0.25,0.25,0,0,0-.29.2A0.25,0.25,0,0,0,385.56,32Z" transform="translate(-318.91 -17.11)"/><path class="cls-2" d="M333.56,68h0a0.25,0.25,0,0,0,.25-0.2,44.74,44.74,0,0,1,36-35.81,0.25,0.25,0,0,0-.09-0.49,45.25,45.25,0,0,0-36.44,36.21A0.25,0.25,0,0,0,333.56,68Z" transform="translate(-318.91 -17.11)"/><path class="cls-2" d="M369.9,111.93a37.28,37.28,0,0,1-28.58-28.46,0.25,0.25,0,0,0-.3-0.19,0.25,0.25,0,0,0-.19.3,37.78,37.78,0,0,0,29,28.84h0.05A0.25,0.25,0,0,0,369.9,111.93Z" transform="translate(-318.91 -17.11)"/><path class="cls-2" d="M385.36,112.22a0.25,0.25,0,0,0,.24.2h0.05a37.78,37.78,0,0,0,16.3-8,0.25,0.25,0,1,0-.32-0.38,37.28,37.28,0,0,1-16.09,7.86A0.25,0.25,0,0,0,385.36,112.22Z" transform="translate(-318.91 -17.11)"/><path class="cls-2" d="M414.43,83.28a0.25,0.25,0,0,0-.3.19,36.94,36.94,0,0,1-1.72,5.61,1.94,1.94,0,0,1,.47.16,37.24,37.24,0,0,0,1.74-5.66A0.25,0.25,0,0,0,414.43,83.28Z" transform="translate(-318.91 -17.11)"/><path class="cls-2" d="M406.16,99.57a0.25,0.25,0,0,0,.19.41,0.25,0.25,0,0,0,.19-0.09,37.83,37.83,0,0,0,4.72-7.07,2,2,0,0,1-.43-0.26A37.29,37.29,0,0,1,406.16,99.57Z" transform="translate(-318.91 -17.11)"/><path class="cls-2" d="M385.54,39a37.23,37.23,0,0,1,28.65,28.76,0.25,0.25,0,0,0,.25.2h0.05a0.25,0.25,0,0,0,.19-0.3,37.74,37.74,0,0,0-29-29.15A0.25,0.25,0,0,0,385.54,39Z" transform="translate(-318.91 -17.11)"/><path class="cls-2" d="M369.89,39.05a0.25,0.25,0,0,0,.19-0.3,0.24,0.24,0,0,0-.3-0.19,37.74,37.74,0,0,0-29,29.15,0.25,0.25,0,0,0,.19.3H341a0.25,0.25,0,0,0,.25-0.2A37.24,37.24,0,0,1,369.89,39.05Z" transform="translate(-318.91 -17.11)"/><path class="cls-2" d="M370,108.42a33.79,33.79,0,0,1-24.94-25,0.5,0.5,0,0,0-1,.23,34.81,34.81,0,0,0,25.69,25.75h0.12A0.5,0.5,0,0,0,370,108.42Z" transform="translate(-318.91 -17.11)"/><path class="cls-2" d="M385.12,109a0.5,0.5,0,0,0,.49.38h0.12a34.66,34.66,0,0,0,14.1-7.05,0.5,0.5,0,1,0-.64-0.77,33.67,33.67,0,0,1-13.7,6.85A0.5,0.5,0,0,0,385.12,109Z" transform="translate(-318.91 -17.11)"/><path class="cls-2" d="M411,83a0.5,0.5,0,0,0-.6.37,33.65,33.65,0,0,1-6.79,13.69,0.5,0.5,0,0,0,.77.64,34.67,34.67,0,0,0,7-14.1A0.5,0.5,0,0,0,411,83Z" transform="translate(-318.91 -17.11)"/><path class="cls-2" d="M410.87,68.25H411a0.5,0.5,0,0,0,.37-0.6,33.91,33.91,0,0,0-2.67-7.27,1.43,1.43,0,0,1-.93.35h0a32.92,32.92,0,0,1,2.64,7.16A0.5,0.5,0,0,0,410.87,68.25Z" transform="translate(-318.91 -17.11)"/><path class="cls-2" d="M385.5,43.05a33.82,33.82,0,0,1,21,15.47,1.43,1.43,0,0,1,.79-0.62,34.83,34.83,0,0,0-21.59-15.83A0.5,0.5,0,1,0,385.5,43.05Z" transform="translate(-318.91 -17.11)"/><path class="cls-2" d="M369.73,42.08a34.83,34.83,0,0,0-25.64,25.56,0.5,0.5,0,0,0,.37.6h0.12a0.5,0.5,0,0,0,.49-0.38A33.82,33.82,0,0,1,370,43,0.5,0.5,0,0,0,369.73,42.08Z" transform="translate(-318.91 -17.11)"/><path class="cls-2" d="M350.48,83.4a0.13,0.13,0,0,0-.09.15,28.15,28.15,0,0,0,3.91,8.25l0.2-.15a27.88,27.88,0,0,1-3.87-8.17A0.12,0.12,0,0,0,350.48,83.4Z" transform="translate(-318.91 -17.11)"/><path class="cls-2" d="M369.83,103a0.13,0.13,0,0,0,0-.25,28.18,28.18,0,0,1-12.28-7.4l-0.19.17A28.43,28.43,0,0,0,369.8,103h0Z" transform="translate(-318.91 -17.11)"/><path class="cls-2" d="M385.49,103a0.12,0.12,0,0,0,.12.09h0a28.22,28.22,0,0,0,9.82-5.1,0.13,0.13,0,1,0-.16-0.2,28,28,0,0,1-9.74,5.05A0.13,0.13,0,0,0,385.49,103Z" transform="translate(-318.91 -17.11)"/><path class="cls-2" d="M405,83.4a0.13,0.13,0,0,0-.15.09,28,28,0,0,1-4.94,9.65,0.12,0.12,0,0,0,0,.18,0.12,0.12,0,0,0,.08,0,0.13,0.13,0,0,0,.1,0,28.2,28.2,0,0,0,5-9.74A0.13,0.13,0,0,0,405,83.4Z" transform="translate(-318.91 -17.11)"/><path class="cls-2" d="M385.49,48.52a0.12,0.12,0,0,0,.08.15,27.62,27.62,0,0,1,4.93,2,1.41,1.41,0,0,1,.12-0.22,27.87,27.87,0,0,0-5-2A0.13,0.13,0,0,0,385.49,48.52Z" transform="translate(-318.91 -17.11)"/><path class="cls-2" d="M404.88,67.89h0a0.12,0.12,0,0,0,.08-0.16,28.63,28.63,0,0,0-11.89-15.85,1.38,1.38,0,0,1-.14.21A28.38,28.38,0,0,1,404.76,67.8,0.13,0.13,0,0,0,404.88,67.89Z" transform="translate(-318.91 -17.11)"/><path class="cls-2" d="M350.45,67.72a0.13,0.13,0,0,0,.08.16h0a0.13,0.13,0,0,0,.12-0.09,28.37,28.37,0,0,1,11.08-15.25,0.89,0.89,0,0,1-.14-0.21A28.62,28.62,0,0,0,350.45,67.72Z" transform="translate(-318.91 -17.11)"/><path class="cls-2" d="M369.79,48.44a28,28,0,0,0-6.7,3,0.88,0.88,0,0,1,.14.21,27.72,27.72,0,0,1,6.63-2.92A0.13,0.13,0,0,0,369.79,48.44Z" transform="translate(-318.91 -17.11)"/><path class="cls-2" d="M428.74,124.06a2.74,2.74,0,0,0-1.67.58l-7.47-7.47a56.72,56.72,0,1,0-.35.36L426.7,125A2.76,2.76,0,1,0,428.74,124.06Zm-51,9.68a57.9,57.9,0,1,1,41.17-17.28L393.08,90.65a20.62,20.62,0,1,0-.34.36l25.82,25.82A57.64,57.64,0,0,1,377.72,133.74Zm-0.09-37a21,21,0,1,1,21-21A21,21,0,0,1,377.63,96.73Zm51.11,32.36a2.27,2.27,0,1,1,2.27-2.27A2.27,2.27,0,0,1,428.74,129.09Z" transform="translate(-318.91 -17.11)"/><circle class="cls-1" cx="95.67" cy="21.84" r="1.73"/><path class="cls-1" d="M354.51,91.66l-0.2.15a2.43,2.43,0,1,0,3.09,3.75l0.19-.17A2.44,2.44,0,0,0,354.51,91.66Z" transform="translate(-318.91 -17.11)"/><path class="cls-1" d="M412,93a2,2,0,0,0,.84-3.75,1.94,1.94,0,0,0-.47-0.16A2,2,0,0,0,410.08,91,2,2,0,0,0,412,93Z" transform="translate(-318.91 -17.11)"/><path class="cls-1" d="M393.28,51.2a1.44,1.44,0,0,0-2.66-.78,1.41,1.41,0,0,0-.12.22A1.44,1.44,0,0,0,393,52.08a1.38,1.38,0,0,0,.14-0.21A1.42,1.42,0,0,0,393.28,51.2Z" transform="translate(-318.91 -17.11)"/><path class="cls-1" d="M338.62,96.05a0.88,0.88,0,0,0-.88-0.88,0.91,0.91,0,0,0-.88.88,0.88,0.88,0,0,0,.88.88h0.06A0.91,0.91,0,0,0,338.62,96.05Z" transform="translate(-318.91 -17.11)"/><path class="cls-3" d="M385,123.23l1.22,7.91a55.86,55.86,0,0,0,28-12.94L409,112.14A47.87,47.87,0,0,1,385,123.23Z" transform="translate(-318.91 -17.11)"/><path class="cls-3" d="M425.14,83.1a47.88,47.88,0,0,1-10.93,23.82l6.08,5.19A55.87,55.87,0,0,0,433,84.31Z" transform="translate(-318.91 -17.11)"/><path class="cls-3" d="M425.08,68l7.9-1.28A55.83,55.83,0,0,0,386.2,20.32L385,28.23A47.85,47.85,0,0,1,425.08,68Zm4.07-6.14a1.17,1.17,0,1,1-1.43-.82A1.17,1.17,0,0,1,429.15,61.86Zm-1.4-4.43a1.17,1.17,0,1,1-1.49-.7A1.17,1.17,0,0,1,427.76,57.43Zm-3.33-4.85a1.17,1.17,0,1,1-.56,1.55A1.17,1.17,0,0,1,424.43,52.58Zm-2.19-4a1.17,1.17,0,1,1-.43,1.59A1.17,1.17,0,0,1,422.24,48.59Zm-1.19-1.87a1.17,1.17,0,1,1,.29-1.62A1.17,1.17,0,0,1,421.05,46.73ZM392.33,25.64a1.17,1.17,0,1,1-.82-1.43A1.17,1.17,0,0,1,392.33,25.64Zm4.3,1.46a1.17,1.17,0,1,1-.7-1.49A1.17,1.17,0,0,1,396.63,27.1Zm4.16,1.83a1.17,1.17,0,1,1-.56-1.55A1.17,1.17,0,0,1,400.79,28.94Zm4,2.19a1.17,1.17,0,1,1-.43-1.59A1.16,1.16,0,0,1,404.77,31.12Zm2.15,2.81a1.17,1.17,0,1,1,1.62-.29A1.17,1.17,0,0,1,406.93,33.94Zm5.14-1.41A54.72,54.72,0,0,1,421,41.48l-4.58,3.89a48.73,48.73,0,0,0-8.23-8.27Z" transform="translate(-318.91 -17.11)"/><path class="cls-3" d="M370,25.94a50.89,50.89,0,0,0-42.37,42l2.51,0.39a48.38,48.38,0,0,1,40.3-40.16l-0.34-2.28Z" transform="translate(-318.91 -17.11)"/><path class="cls-3" d="M369.55,23l0.1,0-0.4-2.67a56.44,56.44,0,0,0-47,46.85l2.43,0.37A53.92,53.92,0,0,1,369.55,23Z" transform="translate(-318.91 -17.11)"/><circle class="cls-3" cx="52.74" cy="110.34" r="0.3"/><circle class="cls-3" cx="46.83" cy="109.32" r="0.55"/><circle class="cls-3" cx="41.08" cy="107.62" r="0.72"/><circle class="cls-3" cx="35.56" cy="105.26" r="0.85"/><circle class="cls-3" cx="30.36" cy="102.28" r="0.94"/><circle class="cls-3" cx="25.53" cy="98.73" r="0.98"/><circle class="cls-3" cx="21.14" cy="94.64" r="1"/><circle class="cls-3" cx="17.25" cy="90.09" r="0.97"/><circle class="cls-3" cx="13.9" cy="85.11" r="0.91"/><circle class="cls-3" cx="11.15" cy="79.79" r="0.81"/><circle class="cls-3" cx="9.03" cy="74.18" r="0.67"/><circle class="cls-3" cx="7.58" cy="68.36" r="0.47"/><path class="cls-3" d="M377.72,81c-0.16,0-.32,0-0.48,0L376,94.32c0.56,0,1.12.08,1.68,0.08s1.13,0,1.68-.08L378.2,81C378,81,377.89,81,377.72,81Z" transform="translate(-318.91 -17.11)"/><circle class="cls-3" cx="58.82" cy="27.67" r="5.23"/><circle class="cls-3" cx="58.82" cy="14.83" r="2.62"/><circle class="cls-3" cx="58.82" cy="8.29" r="1.31"/><circle class="cls-3" cx="58.82" cy="4.97" r="0.6"/><rect class="cls-3" x="57.41" y="99.78" width="2.82" height="12.57"/><rect class="cls-3" x="5" y="57.12" width="12.57" height="2.82"/><rect class="cls-3" x="100.07" y="57.12" width="12.57" height="2.82"/><path class="cls-3" d="M407.32,57.91a1.44,1.44,0,0,0,.42,2.81h0a1.44,1.44,0,0,0,0-2.89A1.41,1.41,0,0,0,407.32,57.91Z" transform="translate(-318.91 -17.11)"/><path class="cls-3" d="M361.79,117a0.88,0.88,0,0,0-.86.78,0.79,0.79,0,0,0,0,.11,0.88,0.88,0,0,0,.88.88,0.92,0.92,0,0,0,.88-0.86v0A0.88,0.88,0,0,0,361.79,117Z" transform="translate(-318.91 -17.11)"/><path class="cls-1" d="M362.44,51.1a0.88,0.88,0,0,0-.88.88,0.87,0.87,0,0,0,.08.36,0.89,0.89,0,0,0,.14.21,0.87,0.87,0,0,0,.67.32,0.88,0.88,0,0,0,.88-0.88,0.86,0.86,0,0,0-.09-0.38,0.88,0.88,0,0,0-.14-0.21A0.87,0.87,0,0,0,362.44,51.1Z" transform="translate(-318.91 -17.11)"/></svg>