<svg preserveAspectRatio="none" id="Layer_6" data-name="Layer 6" xmlns="http://www.w3.org/2000/svg" viewBox="0 0 147.4 147.39"><defs><style>.cls-1{fill:#0ff}</style></defs><path class="cls-1" d="M285.38 157.63l.89-1.38.95-1.63c.36-.63.78-1.34 1.18-2.14a66 66 0 004.92-12.17 67.79 67.79 0 002.44-12.9l.18-2.44.05-1.88v-1.64h.25v1.65l-.07 1.9-.17 2.41a68 68 0 01-2.44 12.95 66.21 66.21 0 01-4.94 12.22c-.4.81-.82 1.52-1.18 2.15l-.95 1.64-.89 1.39z" transform="translate(-155.36 -47.73)"/><path class="cls-1" d="M136.06 74.43l.02-.73h3.66l-.02.78-3.66-.05zM136.01 76.27l.02-.73 3.66.1-.02.78-3.66-.15zM135.54 81.77l.09-.73 3.64.43-.1.77-3.63-.47z"/><path class="cls-1" d="M290.64 131.32l.06-.36v-.36l3.62.53-.05.39-.07.38z" transform="translate(-155.36 -47.73)"/><path class="cls-1" d="M134.59 87.2l.17-.71 3.59.74-.18.76-3.58-.79zM134.18 89l.17-.72 3.56.85-.18.76-3.55-.89z"/><path class="cls-1" d="M288.53 140.26s.06-.17.11-.35l.1-.35 3.51 1.06-.11.37-.12.37z" transform="translate(-155.36 -47.73)"/><path class="cls-1" d="M131.96 96l.26-.68 3.44 1.27-.28.72-3.42-1.31zM131.28 97.72l.27-.69 3.4 1.37-.29.73-3.38-1.41zM130.53 99.4l.31-.67 3.35 1.47-.32.71-3.34-1.51z"/><path class="cls-1" d="M285.12 148.79l.17-.33.15-.33 3.31 1.57-.16.35-.18.35z" transform="translate(-155.36 -47.73)"/><path class="cls-1" d="M128.92 102.7l.34-.65 3.26 1.67-.36.69-3.24-1.71zM128.04 104.32l.37-.64 3.21 1.76-.39.68-3.19-1.8z"/><path class="cls-1" d="M275.13 151l.77-1.2c.41-.75 1-1.72 1.54-2.73s1.06-2 1.39-2.81l.59-1.3-.36-.15-.58 1.29c-.33.79-.87 1.78-1.38 2.79s-1.12 2-1.53 2.71l-.77 1.19zM283.82 121.44h-.39v.86c0 .55 0 1.33-.07 2.26a54.83 54.83 0 01-.83 6.8l-.16.92c-.06.3-.14.6-.2.9l-.4 1.75c-.32 1.12-.59 2.18-.89 3.06l-.72 2.14-.32.8.37.14.32-.8.73-2.15c.3-.89.57-2 .9-3.09l.41-1.77c.07-.3.15-.6.21-.91l.16-.93a55.23 55.23 0 00.83-6.85c.06-.94.05-1.73.07-2.28z" transform="translate(-155.36 -47.73)"/><path class="cls-1" d="M281.75 130.57l-1.46-.25-.22 1.23c0 .31-.12.61-.18.84l-.09.38 1.45.32.09-.39c.06-.24.13-.55.18-.87zM274 150.33l.39-.6c.26-.38.59-.94 1-1.62L276 147c.21-.39.42-.82.65-1.25s.47-.88.68-1.35l.67-1.4.32-.71.28-.72.55-1.4c.35-.91.61-1.79.87-2.52s.4-1.38.53-1.81l.2-.69-1.44-.38-.19.67c-.13.42-.28 1-.51 1.76s-.51 1.57-.85 2.45l-.53 1.35-.28.7-.32.69-.63 1.38c-.21.45-.45.88-.66 1.31s-.42.84-.63 1.22l-.61 1.06c-.37.66-.69 1.21-.94 1.58l-.38.59zM282.54 121.44h-1.49l-.05 2.87-.15 2a8.64 8.64 0 01-.09.89l1.48.16a9.11 9.11 0 00.09-.92l.15-2zM301.9 132.67l.23-1.75.23-1.8c.07-.66.11-1.36.17-2.07s.11-1.41.14-2.07V121.41h-2.77V124.84c0 .63-.09 1.31-.14 2s-.1 1.35-.16 2l-.22 1.73-.22 1.68zM298.4 146.43l.58-1.7c.17-.51.39-1.1.57-1.75l.58-2 .29-1 .24-1 .41-1.79c.12-.52.22-1 .27-1.27l.09-.49-2.81-.54-.08.47c0 .3-.14.72-.26 1.22l-.4 1.72-.23 1-.28 1-.55 1.95c-.18.62-.39 1.19-.55 1.68l-.55 1.63zM291 161.27l.6-.94c.37-.56.81-1.33 1.26-2.11.92-1.53 1.71-3.13 1.71-3.13l-2.54-1.31s-.76 1.54-1.64 3c-.43.74-.85 1.49-1.21 2l-.58.9zM296.25 151.7l.7-1.56.63-1.59-2.66-1.05-.6 1.5-.67 1.5zM280.62 154.56l.81-1.26.86-1.49c.33-.58.72-1.22 1.08-2a60.24 60.24 0 004.5-11.12 62.17 62.17 0 002.23-11.79l.17-2.23V121.45h-.47v3.2l-.17 2.21a61.69 61.69 0 01-2.21 11.7 59.77 59.77 0 01-4.46 11c-.36.73-.74 1.37-1.07 1.94l-.89 1.55-.8 1.25z" transform="translate(-155.36 -47.73)"/><path class="cls-1" d="M276.38 151.83l.75-1.16.79-1.37c.3-.53.66-1.12 1-1.8a55.17 55.17 0 004.08-10.2 57.09 57.09 0 002-10.81l.16-2v-2.96h-.47V124.47l-.16 2a56.63 56.63 0 01-2 10.72 54.69 54.69 0 01-4.09 10.11c-.33.67-.68 1.26-1 1.78l-.78 1.36-.66 1.13zM285.28 122.53l.78-.52.78-.53h-.42l-1.13.76v.29zM285.25 123.72s.83-.53 1.66-1.09 1.66-1.15 1.66-1.15h-.42l-1.45 1-1.45 1v.29zM289.89 121.48v.31s-1.17.85-2.33 1.63c-.58.39-1.16.77-1.6 1l-.75.45v-.29l.21-.12.54-.33c.44-.28 1-.66 1.6-1.05 1.16-.74 2.33-1.6 2.33-1.6zM289.85 122.77v.31l-.73.51c-.44.3-1 .69-1.61 1.07-1.21.76-2.41 1.45-2.41 1.45v-.29s1.21-.69 2.4-1.46 2.35-1.59 2.35-1.59zM289.82 124.06v.31s-.29.2-.75.49-1.06.67-1.66 1-1.2.72-1.65 1l-.75.42V127s1.2-.67 2.4-1.41c.6-.37 1.21-.75 1.66-1zM289.75 125.35v.31s-1.21.77-2.41 1.48c-.59.36-1.23.69-1.69.94l-.77.41v-.28l.77-.41c.47-.25 1.08-.59 1.68-.95 1.21-.72 2.42-1.5 2.42-1.5zM289.65 126.64v.31l-.75.46c-.45.27-1.08.62-1.7 1-1.24.68-2.47 1.29-2.47 1.29v-.28s1.23-.62 2.47-1.31c.63-.34 1.24-.7 1.69-1zM289.54 127.92v.31s-1.25.72-2.48 1.37c-.62.33-1.23.64-1.71.87l-.79.37.05-.28.79-.38c.47-.23 1.08-.55 1.7-.88 1.19-.65 2.44-1.38 2.44-1.38zM289.38 129.2v.31l-.78.43c-.46.25-1.08.58-1.72.89-1.28.63-2.54 1.19-2.54 1.19l.05-.28s1.26-.56 2.54-1.2c.64-.31 1.24-.65 1.71-.9zM289.21 130.48v.3s-1.28.67-2.55 1.26c-.64.3-1.27.59-1.74.8l-.81.34.06-.28.79-.34c.47-.21 1.11-.5 1.74-.8s1.27-.62 1.75-.86.76-.42.76-.42zM289 131.76l-.05.3s-1.28.64-2.54 1.22-2.6 1.07-2.6 1.07l.06-.28.81-.33c.48-.2 1.15-.47 1.78-.76 1.26-.57 2.54-1.22 2.54-1.22zM288.77 133l-.05.3s-.31.16-.8.38-1.15.51-1.8.78c-1.3.55-2.59 1-2.59 1l.06-.28s1.28-.48 2.59-1c.65-.28 1.31-.56 1.79-.79zM288.51 134.29l-.07.3s-1.31.59-2.6 1.1c-.64.26-1.32.5-1.81.68l-.83.29.08-.28.83-.29c.5-.17 1.15-.42 1.8-.69 1.29-.52 2.6-1.11 2.6-1.11zM288.22 135.55l-.07.3s-1.29.57-2.63 1-2.64.91-2.64.91l.08-.28s1.31-.43 2.64-.92c.67-.24 1.33-.51 1.81-.71zM287.93 136.8l-.08.3s-1.34.53-2.66 1c-.66.23-1.31.45-1.82.6l-.84.25.09-.27.84-.25c.5-.16 1.15-.38 1.81-.61 1.31-.48 2.66-1.02 2.66-1.02z" transform="translate(-155.36 -47.73)"/><path class="cls-1" d="M287.57 138l-.08.3-.83.31c-.5.18-1.15.42-1.84.63-1.36.43-2.69.79-2.69.79l.09-.27s1.33-.37 2.69-.8 2.66-.96 2.66-.96zM287.22 139.29l-.09.3s-1.37.47-2.71.87l-1.84.53-.85.21.11-.27.84-.22 1.84-.53 1.86-.59c.51-.18.84-.3.84-.3zM286.82 140.51l-.1.29s-1.36.45-2.7.82-2.73.67-2.73.67l.1-.27.85-.2c.51-.13 1.21-.29 1.87-.49 1.35-.33 2.71-.82 2.71-.82zM286.4 141.73l-.1.29-.23.07-.62.18-1.89.5-1.87.45-.85.18.06-.13.05-.13s1.34-.29 2.71-.64c.68-.18 1.38-.36 1.89-.51zM286 142.95l-.11.29s-1.38.38-2.74.7c-.67.17-1.38.3-1.89.4l-.86.16.12-.26.86-.16c.52-.1 1.21-.24 1.88-.41 1.32-.33 2.74-.72 2.74-.72zM285.49 144.15l-.11.29-.85.22c-.51.13-1.22.28-1.91.42-1.39.29-2.74.51-2.74.51l.12-.26s1.36-.23 2.75-.52c.7-.14 1.39-.3 1.9-.43zM285 145.34l-.13.28s-1.4.32-2.78.58c-.68.13-1.37.25-1.9.32l-.87.12.13-.25.87-.13c.52-.08 1.19-.2 1.89-.34 1.39-.25 2.79-.58 2.79-.58zM284.47 146.52l-.13.28-.87.18c-.51.11-1.21.24-1.91.34-1.4.22-2.77.39-2.77.39l.13-.25s1.37-.17 2.78-.4c.71-.11 1.38-.25 1.9-.36zM283.94 147.69l-.07.14-.07.14s-1.42.26-2.81.46c-.7.1-1.38.19-1.9.25l-.87.08.14-.25s.36 0 .87-.09l1.9-.26 1.93-.31zM283.36 148.84l-.14.28-.88.14c-.53.08-1.21.19-1.92.27-1.42.16-2.79.26-2.79.26l.14-.25s1.38-.1 2.8-.28 2.79-.42 2.79-.42zM282.77 150l-.14.28-.88.12-1.94.22-1.91.17c-.51 0-.87.05-.87.05l.15-.24s1.37-.09 2.77-.23l1.95-.22zM282.15 151.12s-1.43.18-2.81.3c-.69.07-1.4.1-1.93.13h-.87l-.15.24s1.39 0 2.81-.14 2.81-.29 2.81-.29zM281.35 152.51l.15-.27-.63.07c-.37 0-.87.09-1.38.12-1 .07-2 .11-2 .11l.35.23s.87 0 1.75-.1 1.76-.16 1.76-.16zM280.67 153.61l.17-.26-1 .07-.94.06.35.23zM256.87 182.34l.39-.18c.25-.12.64-.27 1.1-.51l1.68-.86 1-.53 1.12-.64a67.27 67.27 0 0019.74-17.11l.79-1 .67-.94 1.09-1.54c.58-.87.89-1.38.89-1.38l.21.13s-.32.51-.9 1.38l-1.1 1.54-.68.95-.8 1a67.52 67.52 0 01-19.81 17.17l-1.12.64-1 .54-1.69.86c-.47.24-.85.39-1.1.52l-.39.18z" transform="translate(-155.36 -47.73)"/><path class="cls-1" d="M257.35 183.38l.4-.18c.26-.12.65-.28 1.12-.52l1.71-.87 1-.54 1.14-.65a68.43 68.43 0 0020.07-17.4l.81-1 .69-1 1.11-1.56c.59-.89.91-1.4.91-1.4l1.24.8s-.33.53-.93 1.43l-1.13 1.6-.7 1-.79 1.02a69.9 69.9 0 01-20.51 17.78l-1.16.67-1.07.56-1.75.89c-.48.25-.88.41-1.14.53l-.41.18z" transform="translate(-155.36 -47.73)"/><path class="cls-1" d="M125.77 108.04l.4-.62 3.08 1.98-.42.66-3.06-2.02zM124.73 109.55l.43-.6 3.02 2.08-.46.63-2.99-2.11zM121.36 113.92l.48-.55 2.83 2.33-.51.58-2.8-2.36zM120.16 115.31l.48-.55 2.75 2.41-.5.59-2.73-2.45z"/><path class="cls-1" d="M273 165.71s.14-.12.26-.26l.25-.27 2.61 2.57-.27.28c-.13.14-.28.27-.28.27z" transform="translate(-155.36 -47.73)"/><path class="cls-1" d="M116.29 119.25l.54-.51 2.53 2.65-.56.53-2.51-2.67zM113.54 121.69l.56-.48 2.37 2.79-.59.51-2.34-2.82z"/><path class="cls-1" d="M266 171.68l.3-.21.29-.22 2.21 2.92-.31.24-.32.23z" transform="translate(-155.36 -47.73)"/><path class="cls-1" d="M109.14 125.02l.6-.43 2.12 2.99-.63.45-2.09-3.01zM107.61 126.04l.62-.4 2.03 3.05-.65.42-2-3.07zM106.06 127.03l.62-.39 1.94 3.11-.65.41-1.91-3.13zM104.47 127.95l.64-.36 1.84 3.16-.67.39-1.81-3.19z"/><path class="cls-1" d="M258.22 176.57l.33-.17.32-.17 1.75 3.22-.34.18-.35.18zM251.8 171.24l.36-.16c.22-.11.56-.24.94-.44l1.3-.67.73-.37.74-.43 1.45-.83c.46-.28.87-.56 1.23-.79l.87-.56.33-.22-.22-.33-.33.21-.87.55c-.36.23-.77.5-1.23.78l-1.44.83-.73.42-.73.37-1.29.66c-.37.2-.71.33-.93.44l-.35.16zM275.12 151l-.33-.21-.46.72c-.29.46-.76 1.08-1.3 1.85l-.42.59-.48.61-1 1.33-1.18 1.36-.61.7-.65.67a57.4 57.4 0 01-5 4.7l-1.78 1.4c-.21.17-.38.3-.51.38l-.18.13.23.32.18-.13c.12-.08.3-.21.51-.38l1.79-1.41a57.79 57.79 0 005-4.73l.65-.68.61-.71 1.19-1.37 1-1.34.49-.62.43-.6c.54-.77 1-1.4 1.31-1.86z" transform="translate(-155.36 -47.73)"/><path class="cls-1" d="M268.45 157.59l-1.09-1-.87.91-.59.63c-.16.17-.28.27-.28.27l1 1.06s.12-.11.29-.28l.61-.64zM251.27 170.08s1-.41 2.34-1.14c.35-.18.73-.36 1.12-.58l1.22-.7c.86-.46 1.72-1.06 2.61-1.61s1.71-1.2 2.51-1.76l2.1-1.66 1.43-1.24.4-.39.14-.13-1-1.1-.13.13-.39.34-1.39 1.21-2 1.61c-.78.54-1.59 1.16-2.44 1.71s-1.69 1.12-2.53 1.57l-1.19.69c-.38.22-.75.39-1.09.57-1.34.72-2.28 1.11-2.28 1.11zM274 150.34l-1.25-.8-.48.75c-.29.45-.72 1-1.13 1.61s-.86 1.15-1.19 1.57l-.55.7 1.15.94.57-.72c.34-.44.81-1 1.22-1.61s.87-1.19 1.16-1.66zM284.23 170.27l1.16-1.33.56-.65.59-.75 1.28-1.63c.85-1.12 1.65-2.29 2.27-3.15l1-1.48-2.4-1.55-.92 1.42c-.59.83-1.36 1.95-2.18 3l-1.23 1.57-.57.72-.54.62-1.11 1.28zM273.87 179.93l1.41-1.11.68-.54.73-.63 1.59-1.38c1.07-1 2.08-2 2.86-2.7l1.24-1.29-2.07-2-1.19 1.24c-.75.71-1.73 1.68-2.75 2.6l-1.53 1.33-.7.61-.65.52-1.35 1.06zM259.68 188.46l1-.46c.61-.28 1.4-.7 2.19-1.1l1.17-.6c.37-.2.7-.4 1-.56l1-.56-1.43-2.47-.93.53c-.28.16-.6.35-1 .54l-1.12.58c-.77.39-1.52.79-2.11 1.06l-1 .44zM269.23 183.21l.45-.29c.27-.17.63-.4 1-.65l1.39-1-1.7-2.27-1.34.95c-.33.24-.68.46-.94.63l-.43.28zM254.52 177.19l.36-.16c.23-.11.58-.25 1-.47l1.53-.79.94-.49 1-.59a61.6 61.6 0 0018-15.64l.73-.92.62-.86 1-1.41c.27-.39.46-.72.61-.93l.21-.33-.39-.25-.21.33c-.14.21-.33.53-.6.92l-1 1.39-.61.86-.72.92a61.14 61.14 0 01-17.91 15.52l-1 .58-.93.48-1.52.78c-.42.22-.77.36-1 .47l-.36.16zM252.42 172.6l.33-.15c.21-.1.53-.22.92-.43l1.41-.72.86-.45.93-.54A56.56 56.56 0 00273.45 156l.67-.85.56-.79.92-1.36c.49-.73.75-1.16.75-1.16l-.39-.25s-.26.42-.74 1.15l-.92 1.26-.56.79-.66.84a56.09 56.09 0 01-16.43 14.24l-.93.53-.86.44-1.4.72c-.38.2-.7.32-.91.43l-.33.15zM275.78 152.76h1.85l-.35-.23h-1.34z" transform="translate(-155.36 -47.73)"/><path class="cls-1" d="M275.09 153.73h2c1 0 2-.09 2-.09l-.35-.23s-.88 0-1.74.07h-1.74zM280.2 154.35l-.17.26-.88.05c-.52 0-1.24.05-1.95.06h-2.79l.17-.23h2.8c.72 0 1.41 0 1.94-.07zM279.5 155.44l-.18.25s-1.44.05-2.84 0-2.8-.08-2.8-.08l.18-.22h2.79c1.4.11 2.85.05 2.85.05zM278.75 156.49l-.18.25h-2.83c-1.42 0-2.8-.14-2.8-.14l.18-.23s1.38.09 2.81.13 2.82-.01 2.82-.01zM278 157.54l-.18.25s-1.45 0-2.85-.08l-1.91-.11-.87-.08.19-.22.86.07 1.92.11 2 .06c.5.01.84 0 .84 0zM277.22 158.57l-.19.24s-1.43 0-2.82-.12-2.8-.27-2.8-.27l.19-.22.87.09c.52 0 1.24.12 1.93.16 1.38.09 2.82.12 2.82.12zM276.42 159.58l-.19.24h-.89l-2-.15-1.91-.2-.86-.11.1-.1.09-.11s1.36.17 2.77.29c.7.06 1.42.12 2 .14zM275.6 160.58l-.2.23s-1.43-.1-2.82-.24c-.69-.07-1.4-.18-1.92-.25l-.86-.13.2-.19.87.13c.53.08 1.22.17 1.91.23 1.38.13 2.82.22 2.82.22zM274.76 161.56l-.2.23-.88-.08c-.52 0-1.24-.14-1.94-.23-1.4-.19-2.76-.43-2.76-.43l.2-.21s1.36.23 2.76.42c.71.1 1.41.18 1.93.22zM273.9 162.52l-.21.22s-1.43-.16-2.81-.37c-.69-.1-1.38-.22-1.9-.32l-.86-.17.21-.2s1.38.29 2.76.48 2.81.36 2.81.36zM273 163.46l-.21.22-.88-.12c-.52-.07-1.22-.18-1.92-.31-1.4-.25-2.74-.55-2.74-.55l.21-.2s1.35.29 2.75.54c.71.13 1.39.22 1.92.29zM272.12 164.39l-.22.22s-1.43-.22-2.8-.49-2.73-.61-2.73-.61l.22-.19.85.2 1.88.38 1.92.34zM271.19 165.28l-.22.21-.87-.16c-.53-.1-1.2-.22-1.9-.38-1.39-.31-2.72-.67-2.72-.67l.22-.19s1.34.35 2.73.66 2.76.53 2.76.53zM270.25 166.18l-.22.21-.88-.18-1.9-.43-1.86-.47-.84-.24.23-.18.83.23 1.86.47 1.91.43zM269.29 167l-.23.2s-1.4-.3-2.75-.65-2.7-.79-2.7-.79l.23-.18.84.25c.5.15 1.19.36 1.86.52 1.35.39 2.75.65 2.75.65zM268.32 167.88l-.23.2-.86-.21-1.89-.52c-1.36-.39-2.66-.82-2.66-.82l.23-.18s1.31.43 2.67.81 2.74.72 2.74.72zM267.32 168.71l-.24.19s-1.39-.36-2.72-.77c-.66-.19-1.34-.44-1.83-.61l-.82-.29.23-.17.83.29c.5.18 1.16.39 1.83.59 1.33.4 2.72.77 2.72.77zM266.31 169.5l-.24.19s-1.36-.37-2.71-.84-2.63-.94-2.63-.94l.23-.17s1.29.49 2.64.93c.68.23 1.35.44 1.86.58zM265.29 170.29l-.25.18s-1.38-.43-2.69-.89c-.66-.23-1.31-.47-1.8-.67l-.81-.33.24-.15.81.33c.49.19 1.14.42 1.8.66 1.32.45 2.7.87 2.7.87zM264.24 171l-.25.18-.84-.28c-.5-.17-1.16-.4-1.83-.66-1.33-.51-2.59-1.06-2.59-1.06l.24-.15s1.27.55 2.6 1.05c.67.26 1.32.47 1.83.65zM263.18 171.79l-.13.09-.13.08s-1.36-.49-2.66-1c-.65-.26-1.29-.53-1.77-.74l-.8-.37.25-.14.22.1.58.26 1.77.73 1.82.7zM262.1 172.49l-.26.17-.83-.32c-.5-.2-1.14-.44-1.79-.73-1.31-.57-2.55-1.18-2.55-1.18l.25-.14s1.25.61 2.56 1.17 2.62 1.03 2.62 1.03zM261 173.19l-.26.17-.83-.34-1.79-.79c-.64-.29-1.27-.59-1.73-.82l-.78-.39.25-.13s1.23.61 2.51 1.19l1.79.78zM259.91 173.85l-.27.15s-1.32-.56-2.57-1.16-2.5-1.29-2.5-1.29l.25-.13.77.41c.47.24 1.1.57 1.73.86 1.26.6 2.59 1.16 2.59 1.16zM258.79 174.5l-.27.15-.8-.36c-.49-.23-1.13-.55-1.75-.87-1.26-.64-2.46-1.31-2.46-1.31l.25-.13s1.2.67 2.47 1.31 2.56 1.21 2.56 1.21zM257.66 175.12s-1.3-.62-2.54-1.27c-.62-.33-1.22-.65-1.68-.92l-.76-.44-.26.12.75.45c.45.27 1.07.62 1.68.94 1.23.65 2.53 1.28 2.53 1.28zM256.24 175.85l.28-.14s-.91-.45-1.79-.92-1.75-1-1.75-1l.17.38s.75.44 1.53.87 1.56.81 1.56.81zM255.08 176.42l.28-.13-.84-.46-.83-.46.17.38zM219.53 187.71l1.63.21c1 .16 2.53.24 4.31.38a70 70 0 0013.11-.59 65.6 65.6 0 0012.75-3.13c.86-.27 1.61-.6 2.29-.86s1.27-.49 1.75-.71l1.5-.68.1.23-1.5.68c-.48.22-1.08.43-1.76.71s-1.44.59-2.3.86a65.86 65.86 0 01-12.8 3.14 70.19 70.19 0 01-13.15.59c-1.79-.14-3.29-.22-4.33-.38l-1.64-.21z" transform="translate(-155.36 -47.73)"/><path class="cls-1" d="M219.37 188.85l1.66.21c1.05.16 2.57.24 4.39.39a71.1 71.1 0 0013.33-.6 66.75 66.75 0 0013-3.18c.87-.28 1.64-.61 2.33-.88s1.3-.5 1.78-.72l1.52-.69.61 1.34-1.56.7c-.5.22-1.12.45-1.82.73s-1.49.61-2.38.89A68.24 68.24 0 01239 190.3a72.58 72.58 0 01-13.62.61c-1.86-.15-3.41-.23-4.48-.4l-1.69-.22z" transform="translate(-155.36 -47.73)"/><path class="cls-1" d="M98.94 130.74l.67-.3 1.52 3.33-.71.32-1.48-3.35zM97.25 131.47l.68-.27 1.43 3.37-.73.29-1.38-3.39z"/><path class="cls-1" d="M247.41 181.06l.35-.11.35-.12 1.12 3.49-.37.12-.37.11z" transform="translate(-155.36 -47.73)"/><path class="cls-1" d="M90.29 133.83l.7-.2 1.02 3.52-.75.21-.97-3.53zM86.72 134.71l.71-.17.8 3.58-.75.17-.76-3.58zM84.91 135.06l.72-.13.7 3.59-.77.14-.65-3.6zM81.27 135.6l.73-.09.48 3.63-.77.1-.44-3.64zM77.61 135.94l.73-.05.27 3.65-.77.06-.23-3.66zM75.77 136.03l.74-.02.16 3.66-.78.02-.12-3.66zM73.93 136.07l.74-.01.05 3.66-.77.02-.02-3.67zM72.09 136.04l.74.02-.05 3.66-.78-.02.09-3.66z"/><path class="cls-1" d="M225.61 183.71h.74l-.16 3.66h-.78z" transform="translate(-155.36 -47.73)"/><path class="cls-1" d="M68.42 135.84l.73.06-.26 3.65-.78-.06.31-3.65z"/><path class="cls-1" d="M221.25 175.63l1.42.18c.85.14 2 .18 3.13.28s2.29.07 3.14.1h1.43v-.39h-1.42c-.85 0-2 0-3.12-.1s-2.27-.14-3.11-.28l-1.41-.18zM251.78 171.25l-.16-.36-.78.35c-.49.24-1.22.52-2.09.86a53.73 53.73 0 01-6.52 2.08l-1.81.42c-.59.15-1.2.22-1.77.34s-1.13.22-1.66.28l-1.5.19c-.92.14-1.71.17-2.25.22l-.86.07v.39l.86-.07c.55 0 1.33-.08 2.27-.22l1.51-.19c.54-.06 1.09-.19 1.67-.28s1.18-.19 1.78-.34l1.82-.42a54.14 54.14 0 006.57-2.09c.87-.35 1.61-.62 2.1-.86z" transform="translate(-155.36 -47.73)"/><path class="cls-1" d="M242.65 173.17l-.38-1.44a3.14 3.14 0 01-.38.1l-.84.19-1.22.28.31 1.45 1.26-.29.86-.2a3.3 3.3 0 00.39-.09zM221.43 174.36l.71.09c.45 0 1.1.17 1.88.22s1.69.15 2.67.18H229.76c1 0 2.09 0 3.07-.13s1.89-.13 2.66-.25 1.43-.17 1.88-.25l.71-.13-.25-1.46-.69.12c-.44.07-1.07.14-1.82.24s-1.64.18-2.59.25-2 .09-3 .13h-2.99c-1 0-1.84-.13-2.6-.18s-1.39-.17-1.83-.21l-.69-.09zM251.25 170.09l-.62-1.35-.81.37c-.48.24-1.15.48-1.82.75l-1 .39-.87.3-.85.29.46 1.41.87-.29.89-.3 1-.4c.68-.27 1.37-.52 1.87-.77zM249.07 192.36l1.7-.49c1-.32 2.35-.78 3.69-1.24s2.64-1 3.61-1.44l1.61-.73-1.19-2.6-1.55.7c-.94.4-2.21.88-3.47 1.39s-2.57.88-3.54 1.19l-1.63.47zM235.11 194.86h.49c.31 0 .76 0 1.29-.12 1.07-.14 2.49-.29 3.91-.52l2.07-.37c.66-.11 1.28-.23 1.8-.36l1.75-.4-.67-2.78-1.68.39c-.5.12-1.09.24-1.73.35l-2 .36c-1.36.22-2.73.37-3.76.5-.51.07-.94.08-1.24.11h-.47zM218.58 194.38l1.11.14c.66.07 1.55.22 2.44.28l2.44.19c.67.06 1.11.06 1.11.06l.13-2.85s-.43 0-1.07-.06l-2.35-.18c-.86-.05-1.7-.2-2.34-.27l-1.06-.14z" transform="translate(-155.36 -47.73)"/><path class="cls-1" d="M74.08 147.4l3.4-.09-.14-2.86-3.27.09.01 2.86z"/><path class="cls-1" d="M220.33 182.1l1.49.19c.95.15 2.31.21 3.94.35a64.26 64.26 0 0012-.54 60 60 0 0011.65-2.85c.78-.25 1.47-.55 2.09-.78s1.16-.45 1.6-.64l1.37-.62-.19-.43-1.36.61c-.43.19-1 .39-1.59.64s-1.3.53-2.08.78a59.48 59.48 0 01-11.56 2.83 63.79 63.79 0 01-11.9.53c-1.62-.13-3-.2-3.91-.35l-1.48-.19zM221 177.1l1.37.17c.87.14 2.12.19 3.62.32a59.19 59.19 0 0011-.49 54.89 54.89 0 0010.69-2.61c.72-.22 1.35-.5 1.92-.72s1.07-.41 1.47-.59l1.25-.57-.19-.43-1.24.56c-.4.18-.89.36-1.46.58s-1.19.49-1.9.71a54.41 54.41 0 01-10.6 2.59 58.73 58.73 0 01-10.92.49c-1.49-.13-2.73-.18-3.59-.32l-1.36-.17zM251.42 173.05l.79.48.79.47-.17-.38-1.16-.7zM250.32 173.51l.52.34c.32.21.74.47 1.16.72.85.51 1.73 1 1.73 1l-.17-.38s-.76-.43-1.5-.88-1.47-.92-1.47-.92z" transform="translate(-155.36 -47.73)"/><path class="cls-1" d="M254.27 176.78l-.28.13-.77-.44c-.46-.27-1.06-.6-1.67-1-1.21-.76-2.35-1.54-2.35-1.54l.27-.11s1.14.78 2.36 1.53 2.44 1.43 2.44 1.43zM253.1 177.32l-.28.13-.82-.45c-.46-.28-1.06-.66-1.65-1s-1.17-.77-1.59-1.06-.71-.51-.71-.51l.27-.09s1.12.79 2.31 1.55c.59.38 1.2.76 1.66 1zM251.91 177.81l-.29.11s-1.22-.75-2.37-1.52-2.28-1.64-2.28-1.64l.27-.09.7.52c.42.31 1 .73 1.58 1.11 1.16.76 2.39 1.51 2.39 1.51zM250.7 178.28l-.29.11-.74-.48c-.45-.3-1-.71-1.61-1.12-1.15-.82-2.23-1.66-2.23-1.66l.27-.09s1.09.84 2.25 1.66 2.35 1.58 2.35 1.58zM249.5 178.73l-.29.1s-1.19-.81-2.31-1.63c-.56-.4-1.12-.85-1.53-1.18l-.68-.55.28-.08.68.55c.41.34 1 .75 1.53 1.16 1.12.83 2.32 1.63 2.32 1.63zM248.27 179.14l-.29.1s-1.16-.8-2.28-1.69-2.16-1.76-2.16-1.76l.28-.08s1.05.89 2.18 1.76c.56.44 1.13.85 1.56 1.16zM247 179.55l-.3.08s-1.16-.86-2.24-1.74-2.13-1.81-2.13-1.81l.28-.06.66.58c.39.33.93.78 1.48 1.22 1.14.87 2.25 1.73 2.25 1.73zM245.81 179.91l-.3.08-.7-.55c-.42-.33-1-.76-1.5-1.23-1.08-.93-2.09-1.87-2.09-1.87l.28-.06s1 .94 2.1 1.87 2.21 1.76 2.21 1.76zM244.57 180.26l-.3.08s-1.12-.92-2.17-1.85c-.53-.47-1-.93-1.42-1.29s-.63-.61-.63-.61h.28l.63.59c.38.35.9.82 1.43 1.29s1.07.93 1.48 1.27l.5.41zM243.31 180.56l-.3.07s-1.09-.92-2.12-1.86-2-2-2-2l.28-.05.62.62c.37.36.89.88 1.4 1.33 1.02.97 2.12 1.89 2.12 1.89zM242.06 180.85l-.3.07-.66-.59c-.4-.37-.92-.85-1.42-1.35l-2-2 .32.02 2 2c1 1 2.06 1.85 2.06 1.85zM240.79 181.12l-.31.05s-1.06-1-2-2c-.49-.48-1-1-1.33-1.39l-.59-.65h.28l.59.65c.36.4.84.88 1.34 1.38.96.98 2.02 1.96 2.02 1.96zM239.52 181.35l-.3.05-.64-.61c-.38-.36-.88-.88-1.36-1.39-1-1-1.88-2.07-1.88-2.07h.28s.91 1 1.89 2.07c.49.52 1 1 1.37 1.38zM238.25 181.57h-.31s-1-1-2-2.06c-.47-.52-.93-1-1.27-1.43l-.56-.68h.29s.22.28.56.67.8.91 1.28 1.42c.99 1.05 2.01 2.08 2.01 2.08zM237 181.73h-.31l-.61-.64c-.36-.39-.84-.89-1.3-1.44-.93-1.08-1.79-2.16-1.79-2.16h.29s.87 1.08 1.8 2.16 1.92 2.08 1.92 2.08zM235.69 181.89h-.31l-.6-.67c-.36-.4-.82-.94-1.27-1.48s-.89-1.08-1.21-1.49-.53-.69-.53-.69h.29s.84 1.08 1.76 2.16c.45.54.92 1.08 1.28 1.48zM234.41 182h-.31s-.95-1.08-1.82-2.16c-.44-.54-.87-1.12-1.18-1.54l-.52-.7h.29l.52.7c.32.42.75 1 1.19 1.52.87 1.12 1.83 2.18 1.83 2.18zM233.12 182.11h-.31l-.57-.67c-.34-.41-.78-1-1.21-1.54-.86-1.12-1.65-2.25-1.65-2.25h.29s.8 1.12 1.67 2.25c.43.56.88 1.13 1.22 1.52zM231.83 182.19h-.31s-.9-1.12-1.73-2.25c-.42-.56-.82-1.12-1.12-1.56l-.49-.73h.29l.53.75c.3.43.71 1 1.13 1.55.79 1.12 1.7 2.24 1.7 2.24zM230.54 182.22h-.31l-.54-.7c-.32-.42-.74-1-1.14-1.57-.81-1.17-1.56-2.33-1.56-2.33h.29s.75 1.16 1.57 2.33c.41.58.83 1.13 1.15 1.56zM229.25 182.26h-.31s-.85-1.17-1.64-2.33c-.39-.58-.77-1.16-1.05-1.6s-.46-.75-.46-.75h.29l.46.73c.28.44.66 1 1.06 1.6s.81 1.17 1.12 1.6.53.75.53.75zM228 182.23h-.31s-.83-1.17-1.59-2.33-1.46-2.41-1.46-2.41h.29l.45.75c.27.44.64 1.07 1 1.64.74 1.19 1.62 2.35 1.62 2.35zM226.67 182.2h-.31l-.49-.73c-.29-.45-.67-1.06-1-1.66-.74-1.2-1.41-2.4-1.41-2.4h.29s.68 1.2 1.42 2.4 1.5 2.39 1.5 2.39zM225.38 182.14h-.31s-.78-1.21-1.49-2.41c-.36-.59-.7-1.21-.95-1.68l-.41-.77h.28s.64 1.26 1.37 2.44 1.51 2.42 1.51 2.42zM224.09 182l-.47-.75c-.28-.45-.64-1-1-1.67-.69-1.24-1.32-2.48-1.32-2.48h-.28s.62 1.23 1.3 2.47c.34.62.7 1.25 1 1.69l.46.75zM222.5 181.9h.31s-.52-.89-1-1.77-.94-1.76-.94-1.76l-.06.41s.4.77.82 1.54.87 1.58.87 1.58zM221.22 181.74h.31l-.46-.83-.45-.83-.06.41zM185.21 172l1.24 1.07 1.48 1.17.91.72c.32.25.68.49 1 .75a66.68 66.68 0 0023.77 10.86c.88.19 1.67.41 2.39.53l1.86.33c1 .2 1.62.26 1.62.26v.25s-.6-.06-1.63-.26l-1.86-.33c-.72-.12-1.52-.34-2.4-.53a66.93 66.93 0 01-23.85-10.9c-.36-.26-.72-.5-1-.76l-.92-.72-1.49-1.17-1.33-1.06z" transform="translate(-155.36 -47.73)"/><path class="cls-1" d="M184.46 172.89l1.26 1.09 1.51 1.19.93.73c.33.25.69.5 1.06.77a67.83 67.83 0 0024.18 11c.89.2 1.7.42 2.43.53l1.89.34c1 .2 1.65.26 1.65.26l-.21 1.46s-.62-.06-1.69-.27l-1.93-.35c-.75-.12-1.57-.35-2.48-.55a69.3 69.3 0 01-24.7-11.29c-.38-.27-.75-.52-1.08-.78l-.95-.74-1.54-1.21-1.3-1.07zM219.45 183.07l.36.05h.36l-.52 3.63h-.39l-.38-.05z" transform="translate(-155.36 -47.73)"/><path class="cls-1" d="M62.28 135.02l.72.13-.62 3.61-.77-.14.67-3.6zM56.91 133.77l.7.2-.94 3.54-.75-.21.99-3.53zM55.14 133.27l.7.2-1.04 3.51-.75-.21 1.09-3.5z"/><path class="cls-1" d="M207 179.79l.34.13.34.13-1.25 3.44-.36-.14-.36-.14z" transform="translate(-155.36 -47.73)"/><path class="cls-1" d="M49.95 131.39l.69.27-1.36 3.4-.72-.28 1.39-3.39z"/><path class="cls-1" d="M201.95 177.62l.33.15.33.15-1.55 3.32-.35-.16-.35-.16z" transform="translate(-155.36 -47.73)"/><path class="cls-1" d="M43.33 128.19l.64.36-1.75 3.22-.67-.39 1.78-3.19zM41.74 127.27l.64.37-1.85 3.16-.67-.39 1.88-3.14zM40.18 126.3l.62.39-1.94 3.11-.65-.42 1.97-3.08z"/><path class="cls-1" d="M194 173s.15.11.3.21l.31.2-2 3.05-.33-.21c-.17-.1-.32-.22-.32-.22z" transform="translate(-155.36 -47.73)"/><path class="cls-1" d="M37.14 124.23l.59.42-2.11 2.99-.63-.45 2.15-2.96zM35.66 123.13l.58.45-2.2 2.93-.61-.48 2.23-2.9z"/><path class="cls-1" d="M193.2 162.81l1.08.93 1.15.9c.42.33.86.7 1.34 1 .93.66 1.85 1.33 2.59 1.78l1.2.77.2-.34-1.19-.77c-.73-.44-1.65-1.11-2.57-1.76-.47-.32-.91-.68-1.33-1l-1.14-.9-1.07-.93zM221.23 175.63l.06-.39h-.22c-.15 0-.36 0-.63-.1l-2.22-.4c-.91-.21-2-.44-3.11-.73s-2.33-.64-3.5-1.06-2.34-.86-3.43-1.28c-.54-.21-1-.47-1.54-.68s-1-.42-1.37-.63l-2-1c-.48-.26-.75-.42-.75-.42l-.19.34s.27.16.75.43l2 1c.42.22.89.41 1.38.63s1 .47 1.55.69c1.1.42 2.25.91 3.45 1.29s2.39.74 3.52 1.07 2.21.53 3.13.73l2.24.4c.27.05.48.08.63.1z" transform="translate(-155.36 -47.73)"/><path class="cls-1" d="M212.51 172.3l.46-1.41-1.19-.4c-.6-.19-1.18-.43-1.18-.43l-.53 1.39s.59.25 1.21.44zM194 161.84l.54.47c.34.31.85.71 1.47 1.19l1 .78 1.15.82c.78.59 1.67 1.14 2.55 1.7.43.29.89.55 1.33.8l1.31.75c.86.46 1.68.86 2.37 1.23l2.37 1.08.58-1.37-2.31-1c-.67-.35-1.47-.74-2.31-1.19l-1.27-.73c-.44-.24-.88-.5-1.3-.78-.85-.55-1.72-1.08-2.48-1.66l-1.12-.79-1-.76c-.6-.47-1.1-.86-1.43-1.16l-.53-.46zM221.41 174.36l.21-1.47h-.24c-.16 0-.38 0-.64-.1l-1.93-.34c-.7-.14-1.39-.32-1.92-.43l-.87-.2-.37 1.44.9.21c.54.12 1.25.3 2 .44l2 .36c.27.05.5.09.66.1zM207.55 191.93l1.7.48c.51.14 1.1.33 1.75.48l2 .47c1.37.34 2.77.55 3.81.74s1.74.27 1.74.27l.4-2.83s-.68-.07-1.68-.26-2.35-.38-3.67-.71l-1.94-.45c-.62-.14-1.19-.33-1.68-.46l-1.63-.47zM194.44 186.5l1.6.82c.95.51 2.26 1.09 3.57 1.68.65.31 1.32.56 1.94.81l1.71.67c.5.2.93.34 1.22.44l.47.16.93-2.7-.45-.15c-.28-.1-.7-.23-1.18-.42l-1.64-.65c-.6-.24-1.25-.49-1.87-.78-1.26-.57-2.52-1.12-3.43-1.61l-1.53-.79zM180.8 177.11l.84.73c.5.45 1.21 1 1.91 1.54s1.39 1.11 1.95 1.49l.91.65 1.66-2.33-.87-.62c-.53-.36-1.2-.91-1.87-1.43s-1.36-1-1.83-1.48l-.81-.7zM189.53 183.62s.71.47 1.44.91l1.48.85 1.42-2.48-1.42-.82c-.7-.43-1.39-.88-1.39-.88zM188.92 167.75l1.14 1 1.36 1.07.83.66c.29.23.62.45 1 .69a61 61 0 0021.71 9.93c.8.18 1.53.37 2.18.48l1.7.3c.94.18 1.48.24 1.48.24l.07-.46s-.54-.05-1.47-.23l-1.68-.3c-.65-.11-1.37-.31-2.17-.48a60.55 60.55 0 01-21.54-9.86c-.33-.24-.65-.45-.95-.68l-.83-.65-1.35-1.06-1.13-1zM192.23 163.93l1 .9 1.25 1 .76.6c.27.21.57.41.88.63a56 56 0 0019.91 9.11c.73.16 1.4.34 2 .44l1.56.28c.86.17 1.36.22 1.36.22l.07-.46s-.5 0-1.35-.22l-1.54-.27c-.6-.1-1.26-.28-2-.44a55.5 55.5 0 01-19.75-9c-.3-.22-.6-.42-.87-.62l-.76-.6-1.24-1-1-.9z" transform="translate(-155.36 -47.73)"/><path class="cls-1" d="M220 176.94l.4.85.42.82.06-.41-.3-.6c-.15-.29-.29-.61-.29-.61zM218.78 176.73s.4.9.84 1.81.91 1.79.91 1.79l.06-.41s-.41-.76-.79-1.56-.74-1.58-.74-1.58zM220.34 181.63h-.31s-.17-.3-.41-.79-.56-1.12-.86-1.75-.59-1.27-.8-1.74-.34-.79-.34-.79h.28s.55 1.26 1.16 2.53c.31.64.63 1.28.87 1.75zM219.06 181.43l-.3-.05s-.65-1.28-1.23-2.54c-.29-.62-.56-1.3-.76-1.78l-.33-.81.28.06.33.81c.2.49.48 1.14.77 1.76.59 1.27 1.24 2.55 1.24 2.55zM217.79 181.2l-.3-.05-.38-.79c-.23-.47-.51-1.14-.79-1.79-.55-1.3-1-2.59-1-2.59l.28.06s.49 1.29 1 2.59c.28.66.57 1.31.8 1.78zM216.53 181l-.3-.07s-.59-1.31-1.12-2.61c-.26-.65-.51-1.29-.69-1.79l-.29-.83.28.08.29.83c.18.49.44 1.13.7 1.78.53 1.26 1.13 2.61 1.13 2.61zM215.27 180.67l-.3-.07-.35-.81c-.21-.48-.47-1.13-.71-1.81-.5-1.33-.92-2.64-.92-2.64l.28.08s.43 1.31.93 2.65c.25.67.52 1.3.73 1.79zM214 180.38h-.3s-.53-1.34-1-2.66c-.23-.66-.46-1.32-.62-1.81l-.25-.84.27.09s.1.34.26.83.39 1.15.62 1.81.49 1.33.68 1.83.34.75.34.75zM212.77 180l-.3-.08s-.51-1.33-1-2.66-.81-2.69-.81-2.69l.34.13s.37 1.34.82 2.69.95 2.61.95 2.61zM211.53 179.69l-.3-.08s-.12-.32-.29-.84-.39-1.19-.59-1.86-.4-1.34-.54-1.84-.22-.84-.22-.84l.13.05h.14a71.812 71.812 0 001.37 4.54zM210.3 179.3l-.29-.1s-.45-1.36-.84-2.7c-.2-.66-.36-1.37-.49-1.87l-.2-.85.27.1.2.85c.12.52.3 1.2.5 1.86.39 1.35.85 2.71.85 2.71zM209.07 178.89l-.29-.1-.26-.84c-.15-.51-.34-1.21-.51-1.89-.35-1.37-.64-2.71-.64-2.71l.27.1s.29 1.34.65 2.72c.18.69.37 1.38.53 1.88zM207.86 178.46l-.29-.11s-.39-1.39-.72-2.74c-.17-.67-.31-1.36-.41-1.88l-.16-.86.26.12s.25 1.38.59 2.73.73 2.74.73 2.74zM206.66 178l-.29-.11-.22-.86c-.13-.51-.29-1.2-.44-1.9-.29-1.39-.52-2.75-.52-2.75l.26.12s.23 1.36.53 2.75c.14.7.32 1.37.45 1.88zM205.46 177.51l-.28-.12s-.33-1.41-.59-2.78c-.13-.69-.26-1.36-.34-1.89l-.13-.87.25.13s0 .35.13.86.21 1.19.35 1.88.28 1.39.4 1.91zM204.28 177l-.28-.13-.18-.87c-.11-.52-.25-1.2-.36-1.9-.23-1.41-.4-2.78-.4-2.78l.25.13s.17 1.38.41 2.78.56 2.77.56 2.77zM203.1 176.45l-.28-.13s-.07-.35-.16-.88-.21-1.23-.31-1.93-.19-1.39-.26-1.9-.09-.87-.09-.87l.25.14s.15 1.36.37 2.76c.11.7.22 1.4.32 1.93zM201.95 175.89l-.28-.14s-.24-1.41-.43-2.79-.28-2.8-.28-2.8l.25.14.08.87c.05.52.12 1.24.22 1.92.19 1.38.44 2.8.44 2.8zM200.8 175.3l-.28-.14-.13-.87c-.07-.53-.15-1.24-.22-1.95-.15-1.41-.23-2.77-.23-2.77l.25.14s.09 1.37.24 2.78.37 2.81.37 2.81zM199.66 174.69l-.27-.15s-.18-1.43-.3-2.81c-.07-.69-.1-1.4-.13-1.93v-.87l.24.15v.88c0 .53.08 1.22.14 1.92.13 1.38.32 2.81.32 2.81zM198.54 174l-.27-.15s-.17-1.4-.24-2.82-.11-2.79-.11-2.79l.24.15s0 1.38.12 2.8c0 .72.11 1.41.16 1.94zM197.42 173.4l-.26-.17s-.16-1.43-.16-2.83v-2.8l.23.17v.88c0 .52 0 1.21.07 1.91 0 1.44.12 2.84.12 2.84zM196.34 172.7l-.26-.17-.05-.88c0-.53-.07-1.22-.07-1.94v-2.8l.23.17v2.81c0 1.43.15 2.81.15 2.81zM195.25 172l-.26-.17s-.05-1.44-.05-2.85v-2.79l.23.18v4.79c0 .58.08.84.08.84zM194.19 171.27l-.25-.18v-2.82c0-1.39.14-2.81.14-2.81l.23.18s-.1 1.39-.12 2.81 0 2.82 0 2.82zM193.14 170.52l-.25-.18v-.89c0-.54 0-1.25.06-2s.07-1.4.11-1.92.07-.87.07-.87l.11.09.11.09s-.11 1.37-.16 2.78c0 .7 0 1.42-.05 2v.88zM192.11 169.74s0-1.44.1-2.83c0-.69.09-1.4.15-1.92l.09-.87-.22-.19-.09.87c0 .52-.12 1.23-.16 1.93-.08 1.39-.11 2.82-.11 2.82zM190.85 168.76l.24.19v-.63c0-.38 0-.87.08-1.38.07-1 .18-2 .18-2l-.27.31s-.09.87-.15 1.75c0 .44-.06.89-.07 1.21zM189.85 167.93l.23.2.07-1 .08-.94-.27.31zM164.8 140.29a58.57 58.57 0 001.94 5.65 67 67 0 0014.14 22l.89.93.84.8 1.37 1.3 1.24 1.08-.16.19-1.24-1.08-1.37-1.31-.84-.8-.89-.93A67.26 67.26 0 01166.51 146a58.78 58.78 0 01-1.95-5.67z" transform="translate(-155.36 -47.73)"/><path class="cls-1" d="M163.7 140.61a59.61 59.61 0 002 5.75 68.16 68.16 0 0014.3 22.35l.91.94.85.81 1.39 1.32 1.26 1.1-1 1.11-1.29-1.12-1.42-1.35-.87-.83-.93-1a69.63 69.63 0 01-14.69-22.83 61 61 0 01-2-5.88z" transform="translate(-155.36 -47.73)"/><path class="cls-1" d="M32.3 120.35l.56.48-2.4 2.77-.59-.51 2.43-2.74zM30.95 119.11l.53.5-2.48 2.7-.56-.54 2.51-2.66z"/><path class="cls-1" d="M182.46 162.88l.24.28.24.27-2.71 2.47-.26-.29-.25-.29z" transform="translate(-155.36 -47.73)"/><path class="cls-1" d="M25.9 113.76l.48.56-2.78 2.39-.51-.59 2.81-2.36z"/><path class="cls-1" d="M179 158.61s.1.15.22.29l.23.29-2.91 2.22-.24-.31c-.12-.15-.23-.31-.23-.31z" transform="translate(-155.36 -47.73)"/><path class="cls-1" d="M22.55 109.38l.42.6-2.98 2.13-.45-.63 3.01-2.1zM20.52 106.31l.4.62-3.1 1.95-.42-.65 3.12-1.92z"/><path class="cls-1" d="M174 150.85l.17.33.18.32-3.21 1.77-.19-.34-.18-.35z" transform="translate(-155.36 -47.73)"/><path class="cls-1" d="M17.85 101.48l.33.66-3.25 1.67-.36-.69 3.28-1.64zM17.05 99.83l.31.67-3.31 1.57-.32-.71 3.32-1.53zM16.3 98.15l.3.67-3.35 1.48-.32-.71 3.37-1.44zM15.61 96.44l.27.69-3.39 1.37-.29-.72 3.41-1.34z"/><path class="cls-1" d="M170.32 142.45l.12.35c.06.17.13.34.13.34l-3.43 1.28-.14-.36-.12-.37zM176.51 136.86l.11.38c.06.24.16.58.31 1 .29.8.6 1.9 1.05 3l.61 1.56.6 1.33.42.94a3.15 3.15 0 00.17.35l.35-.17a3.11 3.11 0 01-.17-.35l-.42-.94-.6-1.32-.6-1.64c-.44-1-.76-2.13-1-2.93-.14-.4-.24-.74-.31-1l-.11-.37zM193.19 162.8l.26-.3s-1-.8-2.3-2.11l-.53-.5-.54-.57-1.16-1.22c-.39-.43-.78-.9-1.19-1.36l-.61-.7-.58-.73a56.52 56.52 0 01-3.94-5.61l-1.13-2c-.28-.47-.41-.75-.41-.75l-.35.19s.13.29.41.76l1.14 2a56.93 56.93 0 004 5.65l.58.74.61.7c.41.46.8.93 1.19 1.37l1.17 1.23.54.57.53.51c1.34 1.33 2.31 2.13 2.31 2.13z" transform="translate(-155.36 -47.73)"/><path class="cls-1" d="M187.64 155.27l1.15-.94-.77-1-.53-.68a3.24 3.24 0 01-.23-.31l-1.19.88a3.45 3.45 0 00.24.32l.55.7zM177.74 136.5l.19.69c.13.44.35 1 .6 1.79a53.94 53.94 0 002.16 5.31c.45.94.94 1.86 1.39 2.73s.93 1.64 1.34 2.31l1 1.59c.24.39.4.6.4.6l1.23-.84s-.15-.2-.39-.58l-1-1.55c-.4-.65-.82-1.43-1.3-2.25s-.91-1.74-1.35-2.66a52.46 52.46 0 01-2.1-5.16c-.24-.72-.46-1.32-.58-1.74l-.19-.67zM194 161.83l1-1.12-.68-.58c-.41-.35-.91-.86-1.43-1.35s-1-1-1.39-1.4l-.62-.65-1.09 1 .64.67c.38.4.88.94 1.43 1.44s1.05 1 1.48 1.39zM172.86 169.1l1.16 1.33c.68.81 1.69 1.8 2.65 2.83s2 2 2.8 2.69l1.33 1.16 1.87-2.16-1.28-1.11c-.73-.71-1.73-1.63-2.69-2.59s-1.9-1.94-2.55-2.72l-1.15-1.28zM164.77 157.46l.89 1.55c.52.94 1.33 2.13 2.1 3.34s1.65 2.34 2.27 3.22l1.1 1.41 2.24-1.77-1.06-1.36c-.6-.84-1.41-2-2.18-3.09s-1.51-2.3-2-3.21l-.86-1.49zM158.34 142.19l.31 1.07.78 2.33.43 1.24.42 1.07.41 1 2.65-1.07-.39-1-.4-1-.41-1.19-.75-2.24-.29-1zM162.18 152.4l.22.49c.13.29.31.68.51 1.06l.78 1.52 2.53-1.32-.75-1.46c-.19-.36-.37-.73-.49-1l-.21-.47zM170.24 138.7a53.45 53.45 0 001.77 5.16 61.34 61.34 0 0012.91 20.08l.81.85.77.73 1.25 1.19 1.13 1 .31-.35-1.12-1-1.24-1.18-.76-.73-.81-.84a60.87 60.87 0 01-12.81-19.93 53 53 0 01-1.76-5.12zM175.08 137.28a48.81 48.81 0 001.62 4.72 56.3 56.3 0 0011.85 18.43l.75.78.7.69 1.14 1.09 1 .91.31-.35-1-.9-1.14-1.08-.7-.67-.74-.78a55.83 55.83 0 01-11.75-18.28 48.4 48.4 0 01-1.61-4.69z" transform="translate(-155.36 -47.73)"/><path class="cls-1" d="M191.39 163.21l-.11.91-.1.92.27-.31.15-1.34zM190.52 162.39s-.16 1-.28 2-.2 2-.2 2l.27-.31s.08-.87.17-1.73c0-.42.11-.86.15-1.19l.08-.54zM189.19 167.35l-.23-.2.07-.88c0-.52.12-1.23.22-1.93.18-1.41.42-2.77.42-2.77l.21.2s-.23 1.36-.41 2.77c-.1.71-.15 1.4-.2 1.93zM188.21 166.51l-.21-.21s.15-1.44.36-2.82c.1-.7.21-1.37.31-1.89l.17-.86.2.21-.16.86c-.09.51-.19 1.2-.29 1.89s-.19 1.4-.25 1.94zM187.27 165.62l-.22-.21.11-.88c.07-.53.16-1.21.29-1.92.25-1.4.54-2.75.54-2.75l.2.21s-.29 1.35-.53 2.76-.39 2.79-.39 2.79zM186.34 164.73l-.22-.21s0-.35.14-.88.21-1.23.34-1.92.27-1.37.38-1.88.2-.85.2-.85l.19.22-.19.84c-.11.51-.25 1.19-.38 1.88s-.25 1.4-.34 1.93zM185.43 163.81l-.21-.22s.23-1.41.52-2.77.66-2.73.66-2.73l.19.22-.21.85c-.12.51-.3 1.21-.43 1.88-.28 1.35-.52 2.77-.52 2.77zM184.54 162.88l-.21-.22.17-.87c.11-.53.27-1.22.43-1.91.32-1.38.69-2.7.69-2.7l.19.22s-.36 1.32-.69 2.7-.58 2.78-.58 2.78zM183.67 161.93l-.2-.23s.3-1.41.64-2.76c.16-.67.37-1.36.52-1.86l.25-.84.18.23-.25.84c-.15.51-.34 1.18-.5 1.86-.31 1.35-.64 2.76-.64 2.76zM182.83 160.95l-.2-.23s.3-1.38.71-2.75.81-2.67.81-2.67l.18.23s-.42 1.31-.81 2.68c-.2.69-.37 1.37-.49 1.88zM182 160l-.19-.24s.36-1.39.76-2.73c.2-.67.41-1.33.59-1.83l.29-.83.17.23-.29.83c-.17.5-.37 1.15-.57 1.83-.41 1.31-.76 2.74-.76 2.74zM181.19 159l-.19-.24.24-.85c.14-.51.35-1.18.58-1.86.45-1.35.93-2.64.93-2.64l.17.23s-.48 1.29-.93 2.65c-.23.68-.41 1.34-.56 1.85zM180.39 157.94l-.1-.12-.09-.13s.42-1.38.89-2.7c.23-.66.46-1.31.66-1.8l.33-.81.15.24s-.14.33-.32.81-.42 1.14-.65 1.8-.45 1.34-.61 1.85-.26.86-.26.86zM179.64 156.89l-.18-.25.28-.84c.17-.51.39-1.16.65-1.83.51-1.33 1.05-2.6 1.05-2.6l.15.24s-.55 1.28-1 2.61-.95 2.67-.95 2.67zM178.89 155.84l-.18-.25s.11-.33.3-.84.44-1.17.7-1.82.53-1.3.73-1.77.36-.8.36-.8l.14.25s-.55 1.25-1.07 2.57c-.26.66-.51 1.32-.7 1.83zM178.18 154.76l-.18-.26s.5-1.34 1-2.63 1.17-2.56 1.17-2.56l.14.25-.37.79c-.22.48-.52 1.13-.78 1.77-.49 1.3-.98 2.64-.98 2.64zM177.48 153.68l-.17-.26.32-.82c.21-.5.49-1.15.78-1.8.58-1.29 1.19-2.52 1.19-2.52l.14.25s-.61 1.23-1.19 2.53-1.07 2.62-1.07 2.62zM176.8 152.58l-.15-.27s.56-1.32 1.15-2.59c.29-.63.61-1.26.86-1.73l.41-.77.13.25-.41.78c-.25.47-.55 1.09-.84 1.73-.59 1.27-1.15 2.6-1.15 2.6zM176.16 151.46l-.15-.27s.55-1.29 1.21-2.56 1.31-2.47 1.31-2.47l.13.25s-.67 1.21-1.3 2.48a31.2 31.2 0 00-.83 1.75zM175.52 150.34l-.14-.28s.62-1.3 1.27-2.54 1.37-2.44 1.37-2.44l.12.26-.44.76c-.25.45-.58 1.06-.9 1.69-.66 1.21-1.28 2.55-1.28 2.55zM174.93 149.19l-.14-.28.4-.79c.24-.47.56-1.09.91-1.71.7-1.24 1.42-2.41 1.42-2.41l.12.26s-.72 1.18-1.42 2.42-1.29 2.51-1.29 2.51zM174.34 148l-.14-.28s.68-1.28 1.39-2.49c.35-.61.71-1.2 1-1.64l.48-.74.1.27s-.19.29-.46.73-.63 1-1 1.65-.7 1.23-1 1.7-.37.8-.37.8zM173.8 146.87l-.13-.28s.69-1.25 1.41-2.44 1.53-2.35 1.53-2.35l.11.27-.48.73c-.28.44-.68 1-1 1.63-.75 1.18-1.44 2.44-1.44 2.44zM173.27 145.7l-.13-.28s.17-.3.45-.77.66-1.07 1-1.66.77-1.17 1.06-1.6l.49-.71.1.27s-.78 1.13-1.55 2.32c-.38.59-.76 1.2-1 1.66zM172.76 144.51l-.11-.29s.75-1.23 1.52-2.38c.38-.58.81-1.16 1.11-1.58l.52-.7.09.27-.52.71c-.32.43-.72 1-1.09 1.58-.77 1.16-1.52 2.39-1.52 2.39zM172.29 143.31l-.11-.29.48-.74c.28-.44.7-1 1.11-1.61.82-1.16 1.66-2.24 1.66-2.24l.09.27s-.84 1.09-1.65 2.25c-.41.58-.81 1.17-1.09 1.61zM171.83 142.1s.8-1.2 1.63-2.33c.42-.57.82-1.12 1.15-1.53l.55-.68-.08-.28-.55.68c-.34.41-.76 1-1.17 1.53-.83 1.13-1.63 2.32-1.63 2.32zM171.32 140.59l.1.29s.58-.84 1.17-1.64c.29-.4.61-.8.84-1.1l.39-.49-.4.12s-.55.68-1.08 1.39-1.02 1.43-1.02 1.43zM170.91 139.36v.3l.17-.24.4-.53.58-.75-.4.12zM164.8 102.56l-.45 1.58c-.15.5-.29 1.12-.45 1.83s-.37 1.51-.53 2.39a67.12 67.12 0 000 26.12c.16.88.37 1.68.53 2.39s.3 1.33.45 1.83l.45 1.58-.24.07-.45-1.59c-.16-.5-.29-1.13-.45-1.84s-.37-1.51-.53-2.4a67.38 67.38 0 010-26.22c.16-.89.37-1.68.53-2.4s.3-1.34.45-1.84l.45-1.59z" transform="translate(-155.36 -47.73)"/><path class="cls-1" d="M163.7 102.24l-.46 1.61c-.16.51-.29 1.14-.46 1.86s-.37 1.53-.54 2.43a68.28 68.28 0 000 26.57c.16.9.38 1.71.54 2.43s.3 1.35.46 1.86l.46 1.61-1.41.41-.47-1.64c-.16-.52-.3-1.17-.47-1.9s-.38-1.57-.55-2.48a69.75 69.75 0 010-27.14c.17-.92.39-1.74.55-2.48s.31-1.38.47-1.9l.47-1.64z" transform="translate(-155.36 -47.73)"/><path class="cls-1" d="M13.64 90.57l.21.71-3.52 1.03-.21-.75 3.52-.99z"/><path class="cls-1" d="M168.52 136.52l.08.36c0 .18.09.36.09.36l-3.54.93s-.06-.19-.1-.38l-.05-.39z" transform="translate(-155.36 -47.73)"/><path class="cls-1" d="M12.07 83.39l.13.72-3.61.61-.14-.77 3.62-.56zM11.83 81.56l.09.73-3.63.5-.09-.77 3.63-.46zM11.47 77.9l.06.73-3.65.29-.06-.78 3.65-.24zM11.38 76.06l.02.74-3.66.18-.02-.78 3.66-.14zM11.35 72.39l-.02.73-3.66-.03.02-.78 3.66.08zM11.54 68.71l-.06.73-3.65-.24.05-.78 3.66.29z"/><path class="cls-1" d="M167.05 114.61v.73l-3.65-.35v-.78z" transform="translate(-155.36 -47.73)"/><path class="cls-1" d="M11.93 65.06l-.09.72-3.64-.46.1-.77 3.63.51zM12.21 63.24l-.13.72-3.62-.57.14-.76 3.61.61zM12.53 61.43l-.13.72-3.6-.67.14-.77 3.59.72zM12.93 59.63l-.16.72-3.58-.78.17-.76 3.57.82z"/><path class="cls-1" d="M176.5 106l-.39 1.37c-.23.82-.46 1.94-.72 3.05s-.42 2.24-.53 3.09l-.18 1.42h.39l.18-1.41c.1-.84.34-2 .52-3.07s.49-2.21.72-3l.39-1.36zM176.5 136.84l.38-.11-.23-.82-.27-.95-.28-1.24c-.1-.46-.23-.95-.33-1.47l-.29-1.66-.16-.88-.11-.9L175 127l-.14-1.86-.07-.91v-2.58-1.51c0-.94 0-1.72.1-2.26l.07-.86h-.39l-.07.86c-.06.55-.08 1.33-.1 2.28v4.12l.07.92.14 1.87.24 1.86.11.91.16.88.3 1.67c.11.53.23 1 .34 1.48l.29 1.25.27 1z" transform="translate(-155.36 -47.73)"/><path class="cls-1" d="M175.92 127.52l1.48-.17s-.09-.62-.13-1.25l-.09-1.25-1.48.1.1 1.29c.03.65.12 1.28.12 1.28zM177.73 106.36l-.2.69c-.13.44-.32 1.06-.48 1.83s-.41 1.64-.56 2.61l-.25 1.51c-.1.5-.14 1-.21 1.54s-.14 1-.19 1.55l-.11 1.51c-.1 1-.1 1.89-.12 2.68v2.62h1.49v-.7-1.8c0-.76 0-1.66.12-2.6l.11-1.46c.05-.5.13-1 .19-1.5s.11-1 .2-1.5l.26-1.44c.14-.94.38-1.8.54-2.54s.34-1.35.46-1.78l.19-.67zM177.73 136.48l1.43-.42-.24-.86c-.07-.26-.17-.56-.25-.88l-.23-1c-.15-.7-.34-1.39-.42-1.92l-.16-.88-1.46.26.16.9c.08.55.27 1.26.43 2l.24 1.05c.08.33.18.64.25.91zM156 131.13l.06.48c0 .31.09.75.18 1.27.19 1 .41 2.44.7 3.82s.61 2.76.91 3.78l.48 1.7 2.74-.8-.46-1.63c-.29-1-.56-2.31-.87-3.63s-.49-2.67-.68-3.67c-.09-.5-.13-.92-.17-1.22l-.06-.46zM155.49 117s-.06.71-.08 1.79-.1 2.5 0 3.93l.05 2.1c0 .67.08 1.29.12 1.83l.14 1.78 2.84-.27-.13-1.72c0-.52-.1-1.12-.11-1.76l-.05-2c-.06-1.38 0-2.75 0-3.78s.08-1.72.08-1.72zM158.34 100.67l-.34 1.07-.31 1.1c-.11.4-.2.84-.31 1.28l-.55 2.39-.2 1.1 2.81.53.19-1.05.53-2.3c.1-.42.19-.84.29-1.23l.3-1.06.29-1zM156.05 111.33l-.21 1.67c-.12.85-.17 1.7-.17 1.7l2.85.26s0-.82.17-1.63l.21-1.63zM170.23 104.16l-.41 1.44c-.14.46-.26 1-.41 1.67s-.34 1.38-.48 2.18a61.48 61.48 0 000 23.89c.14.81.34 1.53.48 2.18s.27 1.22.41 1.67l.41 1.44.45-.13-.41-1.43c-.14-.45-.25-1-.41-1.66s-.34-1.37-.48-2.17a61 61 0 010-23.7c.14-.8.34-1.52.48-2.17s.27-1.21.41-1.66l.41-1.43zM175.08 105.58l-.38 1.32c-.13.42-.24.94-.38 1.53s-.31 1.26-.44 2a56.43 56.43 0 000 21.93c.13.74.31 1.4.44 2s.24 1.12.38 1.54l.38 1.32.45-.13-.37-1.31c-.13-.41-.23-.93-.37-1.52s-.31-1.25-.44-2a56 56 0 010-21.75c.13-.73.31-1.39.44-2s.24-1.11.37-1.52l.37-1.31zM174.78 136.22l-.59.71-.59.73.4-.12.86-1z" transform="translate(-155.36 -47.73)"/><path class="cls-1" d="M174.47 135.07l-.42.47c-.25.28-.56.66-.87 1-.63.77-1.25 1.57-1.25 1.57l.4-.12s.54-.7 1.09-1.36l.76-.91.35-.41zM170.67 138.51l-.08-.3s.86-1.14 1.75-2.21 1.87-2.1 1.87-2.1l.06.28-.59.65c-.34.39-.83.93-1.27 1.46-.87 1.08-1.74 2.22-1.74 2.22zM170.32 137.27l-.08-.3s.21-.28.56-.69.81-1 1.27-1.49c.93-1.06 1.87-2.05 1.87-2.05l.06.26s-.94 1-1.87 2.07c-.46.53-.93 1.08-1.26 1.49zM170 136l-.07-.3s.92-1.1 1.86-2.13c.46-.52 1-1 1.33-1.4l.62-.62.05.28-.62.62c-.38.38-.85.89-1.31 1.41-.95 1.06-1.86 2.14-1.86 2.14zM169.7 134.77l-.07-.3s.91-1.07 1.91-2.09 2-2 2-2l.05.28-2 2c-.5.51-1 1-1.31 1.43zM169.42 133.51l-.05-.3s1-1.06 2-2.05 2-1.93 2-1.93v.28l-.65.6c-.37.36-.87.85-1.36 1.35-.96.98-1.94 2.05-1.94 2.05zM169.2 132.24l-.05-.3.61-.64c.37-.38.85-.88 1.38-1.37 1-1 2.07-1.89 2.07-1.89v.28s-1 .92-2.07 1.9-1.94 2.02-1.94 2.02zM169 131l-.05-.31s1-1 2.06-2c.52-.48 1-.94 1.42-1.28s.67-.56.67-.56v.29l-.65.57c-.39.34-.91.81-1.42 1.29s-1 1-1.42 1.35-.61.65-.61.65zM168.79 129.69v-.31s1-1 2.06-1.92 2.16-1.81 2.16-1.81v.29l-.68.55c-.4.34-1 .79-1.47 1.26-1.04.94-2.07 1.94-2.07 1.94zM168.63 128.41v-.31l.65-.6c.4-.36.94-.83 1.48-1.28 1.08-.91 2.16-1.76 2.16-1.76v.29s-1.08.85-2.16 1.77-2.13 1.89-2.13 1.89zM168.49 127.13v-.31s1.08-1 2.16-1.84c.53-.44 1.09-.87 1.52-1.19l.7-.52v.29s-1.14.83-2.2 1.72-2.18 1.85-2.18 1.85zM168.4 125.84v-.31l.6-.53c.4-.34 1-.79 1.52-1.22 1.12-.87 2.25-1.67 2.25-1.67v.29s-1.12.8-2.25 1.68c-.57.44-1.1.88-1.51 1.22zM168.3 124.55v-.31s1.12-.91 2.25-1.75c.56-.42 1.12-.83 1.55-1.13l.73-.49v.29s-.3.19-.72.5-1 .71-1.54 1.13c-1.15.85-2.27 1.76-2.27 1.76zM168.27 123.26v-.31s1.11-.88 2.25-1.7 2.33-1.57 2.33-1.57v.32s-1.17.76-2.33 1.58-2.25 1.68-2.25 1.68zM168.23 122v-.31s.27-.22.72-.53 1-.72 1.6-1.12c1.17-.8 2.33-1.52 2.33-1.52v.29s-1.16.73-2.33 1.53c-.58.4-1.17.81-1.6 1.13zM168.24 120.68v-.31s1.17-.84 2.33-1.6c.57-.39 1.19-.75 1.64-1l.75-.45v.29l-.75.45c-.46.27-1 .65-1.62 1-1.18.78-2.35 1.62-2.35 1.62zM168.27 119.39v-.31s1.15-.81 2.37-1.55 2.4-1.42 2.4-1.42v.29s-1.2.68-2.41 1.43c-.61.37-1.2.76-1.63 1.06zM168.31 118.1v-.31s1.21-.79 2.41-1.5 2.44-1.37 2.44-1.37v.28l-.77.42c-.45.25-1 .6-1.65 1-1.22.69-2.43 1.48-2.43 1.48zM168.41 116.81v-.31l.75-.47c.45-.28 1-.64 1.67-1 1.24-.69 2.48-1.32 2.48-1.32v.28s-1.23.63-2.48 1.33-2.42 1.49-2.42 1.49zM168.51 115.52v-.31s1.25-.73 2.49-1.4c.62-.33 1.24-.65 1.7-.89l.57-.28.22-.1-.05.28s-1.23.6-2.47 1.28c-.62.34-1.24.69-1.71 1l-.56.33zM168.66 114.24v-.31s1.24-.71 2.48-1.35 2.54-1.21 2.54-1.21l-.05.28-.79.37c-.47.22-1.12.53-1.73.85-1.21.66-2.45 1.37-2.45 1.37zM168.82 113v-.31l.78-.42c.48-.25 1.12-.57 1.76-.87 1.27-.61 2.53-1.16 2.53-1.16v.28s-1.26.55-2.53 1.17-2.54 1.31-2.54 1.31zM169 111.68l.05-.3s1.28-.65 2.55-1.24c.63-.3 1.28-.57 1.77-.77l.81-.33-.06.28s-1.31.51-2.56 1.11-2.56 1.25-2.56 1.25zM169.23 110.41l.05-.3.8-.39c.47-.23 1.12-.52 1.78-.8 1.3-.56 2.59-1 2.59-1l-.06.28s-1.29.49-2.59 1.06c-.66.28-1.29.58-1.76.81zM169.46 109.14l.07-.3s1.31-.6 2.61-1.13c.65-.27 1.28-.52 1.78-.7l.83-.29-.08.28-.82.3-1.78.71c-1.3.53-2.61 1.13-2.61 1.13zM169.75 107.89s1.31-.58 2.6-1.09 2.65-.94 2.65-.94l.08-.28s-1.31.43-2.65.93c-.68.25-1.3.52-1.8.72l-.81.35zM170.11 106.33l-.07.3.58-.24 1.31-.5c.95-.36 1.89-.68 1.89-.68l-.4-.12s-.82.28-1.65.59l-1.14.44zM170.46 105.08l-.08.3.89-.34.89-.32-.4-.12zM185.21 70.83L184 71.91l-1.37 1.3-.84.8-.89.93a67 67 0 00-14.14 22 58.57 58.57 0 00-1.94 5.65l-.24-.07a58.79 58.79 0 011.95-5.67 67.26 67.26 0 0114.17-22.08l.89-.93.84-.8 1.37-1.31 1.2-1.09z" transform="translate(-155.36 -47.73)"/><path class="cls-1" d="M184.46 70l-1.26 1.1-1.39 1.32-.81.78-.91.94a68.16 68.16 0 00-14.38 22.35 59.61 59.61 0 00-2 5.75l-1.41-.41a61 61 0 012-5.88A69.63 69.63 0 01179 73.12l.93-1 .87-.83 1.41-1.29 1.29-1.12z" transform="translate(-155.36 -47.73)"/><path class="cls-1" d="M14.05 55.42l-.2.71-3.52-1.04.21-.74 3.51 1.07zM14.62 53.67l-.23.7-3.49-1.14.25-.73 3.47 1.17zM16.62 48.53l-.3.67-3.37-1.44.32-.71 3.35 1.48zM17.38 46.85l-.3.67-3.33-1.54.32-.7 3.31 1.57z"/><path class="cls-1" d="M174.42 91.31l-.18.32c-.09.16-.17.33-.17.33l-3.23-1.73.18-.34.19-.34z" transform="translate(-155.36 -47.73)"/><path class="cls-1" d="M19.98 41.99l-.36.64-3.18-1.83.39-.67 3.15 1.86zM21.94 38.88l-.4.61-3.06-2.01.42-.65 3.04 2.05z"/><path class="cls-1" d="M179.45 83.62l-.23.29-.22.29-2.94-2.2.24-.31.24-.31z" transform="translate(-155.36 -47.73)"/><path class="cls-1" d="M25.23 34.45l-.46.57-2.87-2.27.48-.61 2.85 2.31zM26.41 33.04l-.48.55-2.8-2.35.51-.59 2.77 2.39z"/><path class="cls-1" d="M183 79.38l-.25.27-.24.28-2.73-2.44.22-.29c.13-.15.26-.29.26-.29z" transform="translate(-155.36 -47.73)"/><path class="cls-1" d="M28.89 30.32l-.5.53-2.67-2.51.54-.57 2.63 2.55zM30.19 29.02l-.53.51-2.59-2.6.56-.54 2.56 2.63z"/><path class="cls-1" d="M193.2 80l-1.08.94-1.06 1c-.39.37-.81.76-1.19 1.18l-1.16 1.21c-.37.39-.68.78-1 1.1l-.94 1.08.3.25.93-1.01c.28-.32.59-.71 1-1.09l1.15-1.21c.38-.42.8-.81 1.18-1.17l1.05-1 1.07-.93zM176.51 106l.38.11.23-.82.72-2.14c.31-.88.73-1.89 1.16-3s1-2.21 1.56-3.31a55.86 55.86 0 013.44-5.9l1.31-1.84c.15-.23.29-.39.38-.5l.14-.18-.31-.24-.14.18c-.09.12-.23.28-.39.51l-1.32 1.86a56.25 56.25 0 00-3.49 5.95c-.6 1.1-1.07 2.27-1.57 3.33s-.86 2.11-1.16 3l-.73 2.15z" transform="translate(-155.36 -47.73)"/><path class="cls-1" d="M181.05 97.82l1.33.66.62-1.12.39-.77.2-.34-1.3-.72-.2.35-.4.79zM194 81l-.54.47c-.36.29-.82.75-1.39 1.29l-.92.87-1 1c-.69.69-1.36 1.5-2 2.28-.35.39-.67.8-1 1.21l-.93 1.19-1.56 2.18-1.41 2.2 1.27.77 1.37-2.14 1.51-2.12.91-1.15c.31-.39.61-.8 1-1.17.67-.77 1.32-1.55 2-2.22l.95-1 .89-.85c.55-.52 1-1 1.35-1.25l.53-.46zM177.74 106.34l1.43.42.24-.86.59-1.9c.11-.34.23-.68.36-1l.34-.85.33-.83-1.37-.57-.34.86-.35.88c-.13.32-.26.66-.37 1l-.6 1.96zM162.34 90.1l-.73 1.61c-.46 1-1 2.28-1.48 3.6-.27.65-.49 1.32-.71 2l-.57 1.69c-.18.5-.29.93-.38 1.22l-.13.47 2.74.8.13-.45c.08-.29.19-.7.36-1.18l.56-1.65c.2-.6.42-1.25.68-1.88.5-1.26 1-2.54 1.42-3.46l.7-1.55zM169.58 77.91l-1 1.46c-.64.86-1.39 2.09-2.17 3.29s-1.45 2.47-2 3.4c-.27.47-.46.87-.61 1.15l-.23.44 2.52 1.35.22-.42c.14-.27.33-.66.58-1.11.52-.89 1.18-2.11 1.91-3.27s1.47-2.34 2.08-3.16l1-1.4zM180.8 65.74s-1.37 1.15-2.64 2.4c-.64.62-1.3 1.22-1.75 1.72l-.77.81 2.07 2 .74-.77c.43-.47 1.06-1.06 1.68-1.65 1.22-1.2 2.53-2.31 2.53-2.31zM173.12 73.46l-.35.4c-.2.25-.5.56-.76.9L171 76.1l2.25 1.76 1-1.29c.25-.33.53-.62.73-.86l.33-.39zM188.92 75.11l-1.13 1-1.25 1.19-.77.73-.81.85A61.35 61.35 0 00172 98.94a53.51 53.51 0 00-1.78 5.16l.45.13a53.12 53.12 0 011.76-5.12 60.88 60.88 0 0112.83-19.92l.81-.84.76-.73 1.24-1.18 1.13-1zM192.23 78.92l-1 .9-1.23 1.1-.71.67-.75.78a56.3 56.3 0 00-11.87 18.42 48.91 48.91 0 00-1.63 4.73l.45.13a48.5 48.5 0 011.62-4.69 55.84 55.84 0 0111.81-18.26l.74-.77.7-.67 1.14-1.08 1-.9z" transform="translate(-155.36 -47.73)"/><path class="cls-1" d="M175.39 104.52l-.88.28-.88.3.4.12 1.27-.42v-.14zM175.77 103.39s-1 .27-1.91.57c-.49.15-.95.31-1.3.44l-.59.21.4.12s.82-.3 1.64-.56 1.67-.5 1.67-.5zM170.7 104.23l.08-.3.83-.3c.5-.18 1.19-.39 1.86-.6 1.35-.42 2.68-.77 2.68-.77l-.09.27s-1.33.36-2.68.78c-.68.21-1.36.43-1.85.62zM171.07 103l.1-.29s1.36-.46 2.7-.85c.66-.2 1.34-.38 1.86-.5l.85-.21-.11.27s-1.37.32-2.7.72-2.7.86-2.7.86zM171.48 101.78l.1-.29.84-.26c.5-.16 1.18-.35 1.87-.53 1.37-.36 2.72-.65 2.72-.65l-.1.27s-1.35.3-2.72.66c-.7.18-1.35.38-1.86.54zM171.89 100.55l.11-.29s1.39-.4 2.75-.73c.68-.17 1.35-.32 1.87-.43l.86-.17-.12.26-.86.17-1.86.44c-1.36.35-2.75.75-2.75.75zM172.37 99.35l.11-.29.86-.23c.52-.13 1.18-.31 1.88-.45 1.39-.3 2.75-.53 2.75-.53l-.12.26s-1.37.24-2.76.54-2.72.7-2.72.7zM172.84 98.15l.11-.29.87-.2 1.91-.4 1.88-.35.62-.1h.24l-.13.25s-1.35.22-2.74.5l-1.91.41zM173.35 97l.13-.28s1.4-.31 2.77-.56 2.78-.41 2.78-.41l-.13.25-.87.12c-.52.08-1.23.18-1.91.31-1.37.22-2.77.57-2.77.57zM173.88 95.79l.13-.28.86-.17 1.93-.32c1.4-.22 2.76-.37 2.76-.37l-.13.26s-1.36.16-2.76.38-2.79.5-2.79.5zM174.44 94.63l.14-.28s1.42-.25 2.8-.44c.68-.1 1.39-.17 1.92-.22l.87-.08-.14.25-.87.08c-.53 0-1.22.13-1.91.23-1.4.2-2.81.46-2.81.46zM175 93.48l.14-.28s1.39-.24 2.81-.38 2.78-.25 2.78-.25l-.14.25s-1.38.1-2.79.26c-.71.07-1.41.17-1.93.25zM175.62 92.33l.15-.27s1.43-.19 2.82-.31 2.79-.18 2.79-.18l-.16.24h-.88l-1.91.16c-1.43.17-2.81.36-2.81.36zM176.26 91.21l.15-.27.88-.1c.53-.06 1.22-.12 1.94-.16 1.42-.09 2.8-.12 2.8-.12l-.15.24s-1.38 0-2.8.13-2.82.28-2.82.28zM176.9 90.09l.16-.27s1.44-.12 2.84-.19l1.91-.07h.88l-.17.23h-.87l-1.92.07-2 .12c-.48.07-.83.11-.83.11zM177.59 89l.17-.26s1.42-.11 2.82-.15 2.81 0 2.81 0l-.17.23h-2.81c-1.42 0-2.82.18-2.82.18zM178.29 87.91l.17-.26H184.14l-.09.11-.08.12h-4.79zM179 86.85l.18-.25h2.83c.7 0 1.41 0 1.93.07l.87.05-.18.23h-.87c-.53 0-1.24-.06-1.93-.05-1.38-.1-2.83-.05-2.83-.05zM179.76 85.79l.18-.25h.88c.53 0 1.25 0 2 .05 1.41.05 2.78.16 2.78.16l-.18.23s-1.37-.1-2.79-.15h-2.83zM180.52 84.75l.19-.24s1.44 0 2.83.1c.69 0 1.4.09 1.92.15l.87.09-.19.22s-1.4-.16-2.79-.22-2.83-.1-2.83-.1zM181.32 83.74l.19-.24h.88c.52 0 1.24.07 1.94.13 1.41.12 2.78.29 2.78.29l-.19.22s-1.37-.17-2.79-.28c-.71-.06-1.41-.09-1.94-.11zM182.12 82.72l.2-.23s1.44.09 2.83.23 2.78.35 2.78.35l-.2.21-.87-.12-1.9-.2c-1.4-.15-2.84-.24-2.84-.24zM183 81.75l.2-.23.8.07c.53 0 1.22.11 1.93.2 1.41.18 2.77.41 2.77.41l-.2.21s-1.37-.23-2.78-.4-2.72-.26-2.72-.26zM183.81 80.77l.2-.23s1.44.15 2.83.35l1.89.29.86.16-.21.2-.85-.15-1.9-.29-1.94-.25-.69-.06zM184.69 79.83l.21-.22s1.42.17 2.79.39 2.76.53 2.76.53l-.21.2-.86-.17c-.51-.1-1.22-.24-1.9-.34-1.37-.22-2.79-.39-2.79-.39zM185.58 78.89l.21-.22s.35 0 .88.13l1.93.34 1.88.38.84.19-.11.09-.1.1s-1.34-.3-2.73-.56c-.69-.13-1.4-.25-1.93-.33zM186.49 78s1.42.23 2.79.5c.68.13 1.37.29 1.88.42l.84.19.22-.19-.85-.21c-.51-.12-1.21-.3-1.89-.43-1.36-.28-2.78-.51-2.78-.51zM187.65 76.87l-.22.21.57.12c.37.07.86.15 1.36.27 1 .22 2 .46 2 .46l-.27-.31s-.85-.21-1.71-.4c-.44-.1-.87-.18-1.19-.24zM188.6 76l-.23.2.93.2.92.21-.22-.31zM219.53 55.15s-.6.06-1.62.26l-1.86.33c-.72.12-1.51.33-2.39.53a66.68 66.68 0 00-23.77 10.86c-.36.26-.72.5-1 .75l-.91.72-1.48 1.17-1.24 1.07-.26-.2 1.25-1.08 1.49-1.17.92-.72c.32-.25.68-.49 1-.76A66.93 66.93 0 01213.6 56c.88-.19 1.68-.41 2.4-.53l1.86-.33c1-.2 1.63-.26 1.63-.26z" transform="translate(-155.36 -47.73)"/><path class="cls-1" d="M219.37 54s-.61.06-1.65.26l-1.89.34c-.73.12-1.54.34-2.43.53a67.83 67.83 0 00-24.18 11c-.37.27-.73.51-1.06.77l-.93.73-1.51 1.19-1.26 1.18-1-1.11 1.29-1.12 1.54-1.21.95-.74c.34-.26.71-.51 1.08-.78a69.3 69.3 0 0124.7-11.29c.91-.2 1.74-.42 2.48-.55l1.93-.35c1.07-.2 1.69-.27 1.69-.27z" transform="translate(-155.36 -47.73)"/><path class="cls-1" d="M33.41 26.09l-.55.48-2.4-2.77.59-.51 2.36 2.8zM34.84 24.92l-.58.46-2.32-2.84.61-.48 2.29 2.86z"/><path class="cls-1" d="M194.65 69.4l-.31.2-.3.21-2.06-3 .32-.22.33-.21z" transform="translate(-155.36 -47.73)"/><path class="cls-1" d="M40.84 20.68l-.62.39-1.96-3.08.65-.42 1.93 3.11zM44.02 18.82l-.64.36-1.78-3.19.67-.39 1.75 3.22zM45.66 17.98l-.66.34-1.69-3.25.7-.36 1.65 3.27zM48.98 16.42l-.67.3-1.49-3.34.71-.32 1.45 3.36z"/><path class="cls-1" d="M207.76 62.78l-.34.13-.34.13-1.29-3.43.36-.14.36-.13z" transform="translate(-155.36 -47.73)"/><path class="cls-1" d="M54.14 14.46l-.69.24-1.19-3.46.73-.25 1.15 3.47zM55.9 13.91l-.71.2-1.09-3.49.75-.22 1.05 3.51zM57.67 13.41l-.71.2-.98-3.53.75-.21.94 3.54zM59.45 12.97l-.71.17-.88-3.56.76-.17.83 3.56z"/><path class="cls-1" d="M216.6 60.29l-.36.08-.36.08-.77-3.58.38-.09.38-.08zM221.25 67.22s-.57.06-1.41.22-2 .33-3.08.61c-.55.13-1.12.24-1.63.39l-1.41.4-1 .28-.37.13.12.37.37-.13 1-.28 1.4-.4c.51-.14 1.07-.25 1.62-.38 1.1-.28 2.22-.46 3.05-.61s1.4-.22 1.4-.22zM193.21 80l.26.3.65-.56c.4-.37 1-.83 1.76-1.41s1.64-1.19 2.58-1.88c.48-.34 1-.64 1.51-1s1-.67 1.59-1l1.61-.93 1.6-.82.77-.39.75-.34 1.37-.62c.86-.36 1.59-.63 2.1-.84l.59-.23.21-.07-.13-.37-.21.07-.59.24c-.51.21-1.24.48-2.11.84l-1.38.63-.76.34-.77.39-1.61.83-1.62.93c-.55.3-1.08.64-1.6 1s-1 .65-1.52 1c-.95.7-1.88 1.29-2.6 1.9s-1.37 1-1.78 1.42zM201.45 75.61l.77 1.27 1.09-.62.75-.43.34-.19-.71-1.31-.35.2-.77.44zM221.43 68.49h-.19c-.12 0-.3 0-.52.08l-1.86.33-.6.11-.64.15-1.37.32c-.48.1-1 .24-1.46.38l-1.5.42c-1 .33-2 .65-2.9 1s-1.76.68-2.48 1l-1.72.78-.48.23-.17.09.65 1.33.16-.08.47-.22 1.67-.76c.69-.31 1.53-.61 2.41-1s1.86-.64 2.82-1l1.45-.41c.48-.14.95-.28 1.42-.37l1.33-.31.62-.15.58-.1 1.81-.32c.22 0 .39-.06.51-.07h.18zM194.05 81l1 1.12.68-.59c.4-.36 1-.78 1.54-1.23.28-.22.56-.45.83-.65l.75-.53.73-.52-.84-1.22-.75.53-.77.54c-.28.2-.56.44-.85.66-.57.46-1.17.89-1.58 1.26zM189.86 59l-1.49 1c-.9.57-2 1.41-3.18 2.23s-2.23 1.73-3.06 2.39l-1.34 1.15 1.87 2.16 1.34-1.14c.8-.63 1.86-1.48 2.94-2.3s2.2-1.6 3.06-2.14l1.43-.92zM202.54 52.66l-1.67.66c-1 .4-2.3 1-3.61 1.6s-2.56 1.29-3.51 1.8l-1.56.89 1.43 2.47 1.49-.86c.91-.48 2.14-1.11 3.37-1.73S201 56.34 202 56l1.6-.63zM218.58 48.48h-.3c-.19 0-.47.06-.8.12l-2.42.43c-.88.14-1.75.36-2.4.51l-1.09.25.68 2.78 1-.24c.63-.14 1.46-.35 2.31-.49l2.32-.41c.32-.06.58-.09.77-.12h.29zM207.92 50.81s-.82.22-1.63.51l-1.62.55.95 2.7 1.55-.53c.77-.28 1.57-.49 1.57-.49zM220.32 60.75s-.54.05-1.48.23l-1.7.3c-.66.1-1.38.31-2.18.48a61 61 0 00-21.72 9.91c-.33.24-.66.46-1 .69l-.83.66-1.36 1.07-1.14 1 .31.35 1.13-1 1.35-1.06.83-.65c.3-.22.62-.44.95-.68a60.54 60.54 0 0121.55-9.84c.79-.17 1.51-.37 2.17-.48l1.68-.3c.93-.18 1.47-.23 1.47-.23z" transform="translate(-155.36 -47.73)"/><path class="cls-1" d="M221 65.75s-.5 0-1.36.21l-1.56.28c-.6.09-1.27.28-2 .44a56 56 0 00-19.92 9.1c-.31.22-.6.42-.88.63l-.76.6-1.25 1-1 .9.31.35 1-.9 1.24-1 .76-.6c.27-.2.57-.41.87-.62a55.5 55.5 0 0119.75-9c.73-.16 1.39-.34 2-.44l1.54-.28c.85-.17 1.35-.21 1.35-.21z" transform="translate(-155.36 -47.73)"/><path class="cls-1" d="M193.06 78.2l-.89-.2-.9-.23.27.23 1.3.34zM194 77.45l-.6-.18c-.36-.1-.85-.26-1.32-.37-1-.25-1.94-.48-1.94-.48l.27.31s.86.2 1.69.42c.41.1.83.22 1.15.32l.52.16zM189.27 75.43l.23-.2.86.2c.51.12 1.2.29 1.88.49 1.37.38 2.68.81 2.68.81l-.23.18s-1.32-.42-2.69-.8c-.69-.19-1.36-.35-1.88-.47zM190.24 74.58l.12-.1.12-.1s1.4.36 2.74.76c.67.2 1.33.4 1.83.57l.83.29-.23.17s-.34-.12-.83-.28l-1.82-.57-1.88-.52zM191.25 73.78l.24-.19.86.24c.51.15 1.18.33 1.85.56 1.35.44 2.65.93 2.65.93l-.23.17s-1.3-.48-2.66-.92-2.71-.79-2.71-.79zM192.27 73l.24-.19.86.19 1.85.61 1.8.65c.48.18.81.32.81.32l-.24.15s-1.28-.49-2.62-.95l-1.86-.61zM193.31 72.21l.25-.18s1.37.43 2.67.91 2.61 1 2.61 1l-.24.15-.81-.33c-.49-.2-1.15-.46-1.8-.69-1.31-.43-2.68-.86-2.68-.86zM194.36 71.47l.25-.18.83.28 1.83.7c1.32.52 2.57 1.07 2.57 1.07l-.24.16s-1.26-.55-2.58-1.06-2.66-.97-2.66-.97zM195.42 70.74l.26-.17s1.35.5 2.64 1c.64.26 1.29.55 1.77.77l.79.37-.25.14-.79-.37c-.48-.23-1.12-.49-1.77-.76-1.29-.49-2.65-.98-2.65-.98zM196.51 70l.26-.17s1.32.49 2.62 1.09 2.53 1.19 2.53 1.19l-.25.14s-1.24-.61-2.54-1.18c-.65-.3-1.3-.56-1.79-.75zM197.6 69.35l.27-.15s1.33.56 2.6 1.15 2.5 1.25 2.5 1.25l-.25.13-.78-.41-1.73-.82c-1.28-.6-2.61-1.15-2.61-1.15zM198.72 68.7l.27-.15.81.36c.48.22 1.12.5 1.75.83C202.82 70.38 204 71 204 71l-.25.13s-1.21-.66-2.49-1.3-2.54-1.13-2.54-1.13zM199.84 68.06l.27-.15s1.31.62 2.55 1.27c.62.32 1.23.65 1.69.9l.76.44-.26.12s-.3-.18-.76-.43-1.07-.58-1.69-.9-1.26-.64-1.75-.87l-.81-.38zM201 67.46l.28-.14s1.28.62 2.51 1.29 2.4 1.39 2.4 1.39l-.26.12-.75-.45c-.45-.26-1.07-.63-1.68-1-1.23-.58-2.5-1.21-2.5-1.21zM202.13 66.87l.28-.14.22.11.57.3c.47.26 1.1.6 1.71 1s1.21.71 1.65 1l.73.46-.13.05-.13.06s-1.16-.73-2.39-1.43c-.61-.35-1.24-.7-1.71-.95zM203.29 66.31l.28-.13s1.26.69 2.45 1.4c.6.35 1.2.75 1.63 1l.73.48-.27.1-.73-.48c-.44-.29-1-.67-1.64-1-1.18-.68-2.45-1.37-2.45-1.37zM204.47 65.78l.28-.13.77.44c.46.27 1.07.65 1.66 1 1.19.76 2.32 1.54 2.32 1.54l-.27.11s-1.13-.78-2.33-1.54c-.6-.38-1.21-.76-1.66-1zM205.65 65.26l.29-.11s1.23.75 2.4 1.52c.58.38 1.16.78 1.59 1.09l.71.52-.27.09s-1.13-.84-2.3-1.59-2.42-1.52-2.42-1.52zM206.85 64.79l.29-.11.75.47c.44.28 1 .67 1.61 1.09 1.16.82 2.26 1.65 2.26 1.65l-.27.09s-1.1-.84-2.27-1.65c-.59-.42-1.17-.78-1.61-1.07zM208 64.32l.29-.1s1.2.8 2.33 1.63c.57.41 1.12.82 1.53 1.15l.68.55-.28.08-.19-.15-.5-.39c-.41-.31-1-.73-1.54-1.14s-1.15-.82-1.6-1.12zM209.27 63.9l.29-.1.73.51c.43.31 1 .71 1.56 1.14 1.15.87 2.15 1.76 2.15 1.76l-.28.08s-1.07-.89-2.2-1.75-2.25-1.64-2.25-1.64zM210.49 63.49l.29-.1s.29.2.72.53 1 .76 1.54 1.2 1.09.88 1.48 1.21.66.57.66.57l-.28.07s-1-.89-2.15-1.77c-.55-.44-1.12-.87-1.55-1.2zM211.73 63.11L212 63s1.14.87 2.22 1.75c.54.44 1.07.92 1.46 1.27l.65.59-.28.06-.65-.58c-.39-.35-.93-.82-1.47-1.25-1.06-.84-2.2-1.73-2.2-1.73zM213 62.76l.3-.08.7.54c.41.34 1 .8 1.49 1.27 1.07.93 2.06 1.87 2.06 1.87l-.28.06s-1-.94-2.08-1.87c-.53-.46-1.08-.93-1.5-1.25zM214.21 62.42l.3-.07s1.11.92 2.14 1.86c.52.46 1 .94 1.4 1.32l.62.62h-.28s-1-1-2-1.92-2.18-1.81-2.18-1.81zM215.47 62.13l.3-.07.67.58c.4.34.92.82 1.43 1.32l2 2-.28.05-2-2c-.52-.5-1-.95-1.44-1.3zM216.73 61.84l.66.61c.39.37.91.86 1.41 1.35s1 1 1.35 1.36.6.63.6.63h.28l-.6-.65c-.36-.38-.84-.87-1.35-1.36-1-1-2.06-2-2.06-2zM218.3 61.56l-.3.05s.75.7 1.46 1.4 1.4 1.44 1.4 1.44l-.07-.45-.38-.4c-.23-.25-.53-.55-.84-.86-.62-.58-1.27-1.18-1.27-1.18zM219.57 61.33l-.3.05.67.62.66.69-.06-.41-.48-.5-.49-.45zM256.87 60.51l-1.5-.68c-.48-.22-1.07-.43-1.75-.71s-1.44-.59-2.29-.86a65.6 65.6 0 00-12.75-3.13 70 70 0 00-13.11-.59c-1.79.14-3.28.22-4.31.38l-1.63.21v-.25l1.64-.21c1-.16 2.54-.24 4.33-.38a70.21 70.21 0 0113.15.59A65.86 65.86 0 01251.42 58c.86.27 1.62.6 2.3.86s1.28.49 1.76.71l1.5.68z" transform="translate(-155.36 -47.73)"/><path class="cls-1" d="M257.35 59.47l-1.52-.69c-.48-.22-1.09-.44-1.78-.72s-1.46-.6-2.33-.88a66.75 66.75 0 00-13-3.18 71.11 71.11 0 00-13.33-.6c-1.82.15-3.34.22-4.39.39l-1.66.21-.21-1.46 1.69-.22c1.08-.17 2.63-.25 4.48-.4a72.59 72.59 0 0113.62.61 68.24 68.24 0 0113.26 3.25c.89.28 1.67.62 2.38.89s1.32.51 1.82.73l1.56.7z" transform="translate(-155.36 -47.73)"/><path class="cls-1" d="M65.55 11.87l-.73.09-.52-3.63.77-.09.48 3.63zM67.37 11.64l-.73.09-.41-3.64.78-.1.36 3.65zM72.88 11.34l-.73.02-.09-3.66.78-.02.04 3.66zM74.72 11.35l-.73-.02.01-3.66.78.01-.06 3.67zM78.4 11.52l-.74-.06.23-3.66.78.06-.27 3.66z"/><path class="cls-1" d="M235.59 59.39h-.74l.34-3.65h.78z" transform="translate(-155.36 -47.73)"/><path class="cls-1" d="M83.88 12.16l-.73-.13.55-3.62.77.14-.59 3.61zM87.48 12.87l-.71-.17.76-3.58.76.17-.81 3.58zM89.28 13.28l-.72-.16.87-3.56.76.17-.91 3.55zM91.05 13.78l-.71-.2.97-3.53.75.22-1.01 3.51z"/><path class="cls-1" d="M248.16 62l-.35-.12-.35-.11 1.08-3.5.37.12.37.12z" transform="translate(-155.36 -47.73)"/><path class="cls-1" d="M94.55 14.9l-.7-.23 1.19-3.47.73.25-1.22 3.45zM96.27 15.55l-.68-.27 1.28-3.43.73.28-1.33 3.42z"/><path class="cls-1" d="M251.8 71.61l-1.3-.61c-.79-.32-1.85-.75-2.92-1.14s-2.15-.76-3-1l-1.37-.39-.1.38 1.36.39c.83.2 1.88.61 3 1s2.11.82 2.9 1.13l1.26.63zM221.27 67.22l.06.39.85-.11c.54-.07 1.31-.19 2.25-.24l1.51-.12c.53 0 1.1 0 1.69-.06s1.19-.05 1.81 0h1.86c.63 0 1.25.07 1.86.11s1.22.07 1.8.15l1.67.21.77.1.72.13c.92.17 1.69.28 2.22.41l.83.19.09-.38-.84-.2c-.53-.13-1.31-.24-2.24-.41l-.72-.13-.78-.1L235 67c-.58-.08-1.19-.1-1.81-.15s-1.24-.12-1.87-.11h-3.7c-.59 0-1.16 0-1.7.06l-1.52.12c-.94.05-1.72.17-2.26.24z" transform="translate(-155.36 -47.73)"/><path class="cls-1" d="M230.6 68v1.49h1.26l1.25.1.11-1.48-1.29-.1zM251.26 72.77l-.65-.3-.75-.34-1-.39-1.17-.46c-.41-.17-.87-.3-1.33-.46l-1.43-.48-1.5-.42a51.69 51.69 0 00-5.6-1.24c-.77-.16-1.42-.2-1.87-.27l-.71-.09-.17 1.48.69.09c.44.07 1.07.11 1.82.26a50.16 50.16 0 015.41 1.19l1.46.41 1.39.47c.45.16.89.28 1.29.45l1.14.45 1 .38.72.33.63.29zM221.45 68.49l.21 1.51.89-.11c.53-.07 1.24-.17 2-.21l2-.15h.9v-1.49h-.92l-2 .15c-.74 0-1.46.15-2 .22zM229.83 47.74h-4.57l-1.05.08c-1.41.11-2.82.2-3.86.36l-1.75.22.4 2.9 1.68-.21c1-.15 2.36-.24 3.72-.34l1-.07h4.43zM243.92 49.23l-1.76-.32-1.81-.32-2.09-.27c-.71-.08-1.42-.2-2.09-.24l-1.83-.14-1.29-.1h-.49l-.13 2.85a4.68 4.68 0 01.47 0l1.24.09 1.76.14c.64 0 1.33.16 2 .23l2 .26 1.74.31 1.7.31zM259.68 54.39l-1-.46c-.31-.13-.66-.3-1-.46l-1.29-.47c-.83-.32-1.66-.67-2.29-.88l-1.1-.38-.93 2.7 1 .35c.61.21 1.4.54 2.2.85l1.17.46c.37.15.71.32 1 .45l1 .44zM249.44 50.6l-1.64-.46c-.41-.12-.83-.2-1.14-.28l-.52-.12-.66 2.78.5.12c.3.07.7.15 1.09.27l1.58.45zM254.51 65.66l-1.36-.66c-.43-.2-1-.39-1.6-.64s-1.31-.54-2.09-.79a59.89 59.89 0 00-11.65-2.86 64.34 64.34 0 00-12-.55c-1.63.14-3 .2-3.94.35l-1.49.19.07.46 1.48-.19c.94-.15 2.29-.21 3.91-.34a63.88 63.88 0 0111.9.54 59.42 59.42 0 0111.56 2.84c.78.24 1.46.55 2.08.78s1.16.44 1.59.64l1.36.61zM252.42 70.25l-1.25-.57c-.4-.18-.9-.36-1.47-.59s-1.2-.5-1.92-.72a54.82 54.82 0 00-10.68-2.62 59.28 59.28 0 00-11-.5c-1.5.13-2.75.18-3.62.32l-1.37.17.07.46 1.36-.17c.86-.14 2.11-.19 3.59-.32a58.81 58.81 0 0110.92.5 54.34 54.34 0 0110.59 2.6c.71.22 1.34.5 1.9.72s1.06.4 1.45.58l1.24.56z" transform="translate(-155.36 -47.73)"/><path class="cls-1" d="M222.13 65.61l-.62-.69-.64-.69.06.41.91 1zM223.32 65.46s-.64-.74-1.32-1.46-1.37-1.47-1.37-1.47l.06.41s.61.64 1.2 1.28 1.11 1.27 1.11 1.27zM220.45 61.21h.31s1 1 1.94 2.06c.47.51.93 1.06 1.26 1.46l.55.68h-.29l-.56-.68c-.34-.41-.8-.93-1.27-1.45-.93-1.05-1.94-2.07-1.94-2.07zM221.73 61h.27s1 1 1.89 2.11 1.77 2.16 1.77 2.16h-.29s-.86-1.08-1.78-2.16c-.46-.55-.93-1.07-1.3-1.45zM223 60.89h.31s1 1.08 1.85 2.16 1.72 2.2 1.72 2.2h-.28l-.53-.7c-.32-.41-.76-.95-1.21-1.49C224 62 223 60.89 223 60.89zM224.3 60.79h.31l.58.67c.34.41.79.93 1.23 1.5.87 1.12 1.68 2.25 1.68 2.25h-.3s-.8-1.13-1.69-2.21-1.81-2.21-1.81-2.21zM225.58 60.7h.31s.91 1.12 1.76 2.24c.42.56.83 1.12 1.14 1.54s.5.71.5.71H229s-.79-1.12-1.64-2.25c-.43-.56-.87-1.12-1.2-1.54l-.41-.5zM226.87 60.65h.31s.89 1.12 1.71 2.25 1.58 2.32 1.58 2.32h-.29l-.49-.73c-.29-.44-.7-1-1.11-1.58-.81-1.14-1.71-2.26-1.71-2.26zM228.16 60.61h.31l.53.7c.32.43.73 1 1.13 1.6.8 1.17 1.54 2.33 1.54 2.33h-.29s-.74-1.16-1.55-2.33-1.67-2.3-1.67-2.3zM229.46 60.6h.31s.84 1.17 1.61 2.33c.39.58.76 1.16 1 1.62l.45.75h-.29l-.45-.75c-.28-.45-.65-1-1-1.61-.79-1.17-1.63-2.34-1.63-2.34zM230.75 60.63h.31l.5.73c.3.43.69 1 1.06 1.63.75 1.21 1.43 2.41 1.43 2.41h-.29s-.69-1.2-1.45-2.41c-.38-.61-.77-1.17-1.07-1.61zM232 60.67h.31s.79 1.21 1.51 2.41c.36.6.71 1.2 1 1.65l.42.77h-.28s-.16-.31-.42-.76-.61-1-1-1.65-.74-1.2-1-1.66-.54-.76-.54-.76zM233.33 60.76h.31s.77 1.2 1.47 2.41 1.33 2.48 1.33 2.48h-.28l-.41-.77c-.25-.46-.58-1.1-.94-1.69-.71-1.19-1.48-2.43-1.48-2.43zM234.61 60.85h.31s.19.29.46.76.62 1.09 1 1.71c.68 1.24 1.28 2.47 1.28 2.47h-.28s-.61-1.23-1.29-2.47c-.34-.62-.69-1.25-1-1.7zM235.9 61h.31s.72 1.25 1.36 2.48c.33.61.63 1.26.86 1.73l.36.79h-.28l-.37-.79c-.22-.48-.54-1.1-.87-1.72-.65-1.26-1.37-2.49-1.37-2.49zM237.18 61.15h.31s.69 1.22 1.31 2.52 1.2 2.57 1.2 2.57h-.28s-.56-1.26-1.18-2.54c-.31-.65-.64-1.27-.89-1.73zM238.46 61.32l.3.05s.66 1.28 1.25 2.55 1.12 2.56 1.12 2.56l-.28-.06-.34-.81c-.21-.47-.49-1.1-.79-1.74-.6-1.27-1.26-2.55-1.26-2.55zM239.73 61.54l.27.06.39.8c.23.48.53 1.1.81 1.76.56 1.31 1.06 2.59 1.06 2.59l-.26-.06s-.5-1.29-1.07-2.6-1.2-2.55-1.2-2.55zM241 61.77l.3.05s.6 1.31 1.14 2.61c.27.65.52 1.3.71 1.78s.3.82.3.82l-.28-.03-.31-.81c-.19-.48-.45-1.13-.72-1.78s-.56-1.3-.78-1.8c-.11-.25-.2-.45-.27-.59zM242.26 62l.3.07s.58 1.31 1.09 2.6.95 2.65.95 2.65l-.28-.08-.32-.78c-.18-.49-.41-1.17-.67-1.81-.49-1.29-1.07-2.65-1.07-2.65zM243.51 62.33l.3.07.34.82c.2.5.45 1.17.69 1.83.48 1.33.9 2.63.9 2.63l-.28-.08s-.46-1.3-.9-2.6-1.05-2.67-1.05-2.67zM244.77 62.65l.3.08s.52 1.34 1 2.66c.23.65.44 1.33.59 1.84l.25.84-.31-.07-.25-.84c-.15-.51-.37-1.17-.6-1.83-.46-1.33-.98-2.68-.98-2.68zM246 63l.3.08s.5 1.31.92 2.68.78 2.68.78 2.68l-.27-.09s-.36-1.33-.79-2.69c-.21-.68-.44-1.34-.63-1.84zM247.25 63.36l.29.1s.46 1.37.86 2.71.72 2.7.72 2.7l-.27-.11-.21-.85c-.14-.5-.32-1.17-.53-1.84-.4-1.34-.86-2.71-.86-2.71zM248.47 63.77l.29.1.24.85c.16.51.36 1.17.54 1.86.36 1.38.66 2.72.66 2.72l-.2-.1s-.3-1.35-.67-2.73-.86-2.7-.86-2.7zM249.69 64.19l.29.1s.4 1.39.74 2.75c.17.68.33 1.36.44 1.86l.17.86-.26-.12s-.07-.34-.18-.85-.27-1.18-.44-1.87-.36-1.37-.5-1.89-.26-.84-.26-.84zM250.9 64.65s.38 1.38.7 2.74c.16.67.3 1.38.4 1.89l.16.86.26.12s-.24-1.36-.54-2.76-.69-2.73-.69-2.73zM252.38 65.23l-.29-.11.16.61c.09.36.21.86.31 1.36.22 1 .4 2 .4 2l.17-.38s-.13-.89-.34-1.71l-.27-1.19zM253.57 65.75l-.28-.13.21.93.19.93.17-.38zM285.38 85.22s-.32-.51-.89-1.38l-1.09-1.54-.67-.94-.79-1a67.27 67.27 0 00-19.74-17.11l-1.12-.64-1-.53-1.68-.86c-.46-.24-.85-.39-1.1-.51l-.39-.18.1-.23.39.18c.25.12.64.27 1.1.52l1.69.86 1 .54 1.12.6a67.52 67.52 0 0119.81 17.2l.8 1 .68.95 1.1 1.54c.58.87.9 1.38.9 1.38z" transform="translate(-155.36 -47.73)"/><path class="cls-1" d="M100.28 17.26l-.67-.3 1.52-3.33.71.32-1.56 3.31zM101.93 18.08l-.66-.34 1.62-3.28.7.35-1.66 3.27zM106.73 20.79l-.62-.4 1.91-3.12.65.42-1.94 3.1zM108.28 21.78l-.62-.39 2-3.07.65.42-2.03 3.04z"/><path class="cls-1" d="M266.63 71.64l-.29-.23-.34-.21 2.17-2.95.32.23.31.24z" transform="translate(-155.36 -47.73)"/><path class="cls-1" d="M112.72 25.05l-.58-.45 2.27-2.89.61.49-2.3 2.85zM115.53 27.43l-.56-.48 2.43-2.75.59.51-2.46 2.72z"/><path class="cls-1" d="M273.54 77.71l-.25-.27c-.12-.14-.26-.26-.26-.26l2.58-2.6s.14.13.28.27l.27.28z" transform="translate(-155.36 -47.73)"/><path class="cls-1" d="M119.45 31.31l-.51-.53 2.66-2.52.54.56-2.69 2.49zM120.67 32.68l-.48-.55 2.73-2.44.51.58-2.76 2.41z"/><path class="cls-1" d="M277.23 81.8l-.23-.28-.24-.28 2.8-2.36.25.29.25.3z" transform="translate(-155.36 -47.73)"/><path class="cls-1" d="M123.01 35.52l-.45-.57 2.87-2.28.48.61-2.9 2.24zM124.12 36.99l-.43-.6 2.94-2.19.45.63-2.96 2.16z"/><path class="cls-1" d="M275.12 91.83l-.21-.33c-.14-.21-.32-.52-.57-.87l-.85-1.19c-.31-.44-.64-.91-1-1.35l-1-1.32c-.33-.42-.68-.79-1-1.11l-.93-1.08-.29.26.93 1.07c.27.33.61.69.94 1.1l1 1.31c.36.44.69.9 1 1.34l.86 1.19c.25.35.42.65.56.86l.23.29zM251.82 71.61l-.16.36.78.35c.49.23 1.18.6 2 1 .42.2.86.46 1.32.73l1.46.84 1.52 1 .78.5.76.54a57 57 0 015.36 4.28l1.64 1.56c.2.18.35.34.45.45l.15.16.28-.28-.16-.16c-.1-.11-.25-.27-.45-.45l-1.65-1.57a57.42 57.42 0 00-5.4-4.31l-.77-.55-.73-.51-1.53-1-1.47-.82c-.47-.27-.91-.53-1.33-.73-.84-.42-1.53-.8-2-1z" transform="translate(-155.36 -47.73)"/><path class="cls-1" d="M259.24 77.28l-.84 1.22 1 .73.7.5.34.27.9-1.18-.34-.28-.7-.54zM274 92.52l-.39-.6c-.23-.39-.63-.91-1.08-1.55-.23-.32-.47-.67-.74-1l-.79-1.15c-.59-.79-1.29-1.56-2-2.35s-1.43-1.52-2.1-2.24l-1.9-1.84-1.43-1.24-.57-.47-1 1.15.53.45 1.39 1.2 1.89 1.8c.64.7 1.38 1.41 2 2.18s1.35 1.52 1.92 2.29l.85 1.08c.26.35.49.69.72 1 .44.62.82 1.13 1 1.51l.38.59zM251.28 72.78l-.62 1.35.81.37c.48.23 1.11.57 1.75.89s1.25.69 1.72 1l.78.44.76-1.27-.8-.46c-.48-.27-1.11-.66-1.77-1s-1.31-.68-1.8-.92zM269.56 59.86l-1.49-1c-.88-.59-2.13-1.26-3.35-2s-2.51-1.31-3.45-1.8c-.47-.24-.88-.41-1.16-.54l-.44-.2-1.18 2.68.43.19c.27.13.66.29 1.12.52.9.47 2.13 1.06 3.31 1.73s2.37 1.33 3.22 1.9l1.43.9zM280.59 68.75l-1.3-1.24c-.76-.76-1.87-1.67-2.95-2.61s-2.24-1.78-3.08-2.45l-1.45-1-1.66 2.33 1.4 1c.81.64 1.91 1.47 3 2.36s2.1 1.78 2.83 2.51l1.25 1.19zM291 81.58s-.94-1.51-2-3c-.52-.73-1-1.46-1.45-2l-.69-.88-2.24 1.77.66.84c.41.5.9 1.2 1.4 1.9 1 1.38 1.92 2.84 1.92 2.84zM284.49 72.88l-.35-.4c-.21-.24-.48-.57-.78-.87l-1.17-1.23-2.06 2 1.13 1.19c.29.29.55.61.75.84l.34.39zM280.62 88.29L279.8 87l-1-1.4-.61-.86-.73-.92a61.61 61.61 0 00-18-15.65l-1-.59c-.33-.18-.65-.34-.94-.49l-1.53-.79c-.42-.23-.77-.36-1-.47l-.36-.16-.2.43.36.16c.23.11.58.24 1 .47l1.52.78c.29.15.61.3.93.49l1 .58a61.14 61.14 0 0117.9 15.53l.67.89.61.86 1 1.39.81 1.25zM276.37 91l-.75-1.16-.92-1.29-.56-.79-.67-.85a56.56 56.56 0 00-16.56-14.37L256 72c-.3-.17-.59-.31-.86-.45l-1.41-.72c-.39-.21-.71-.33-.92-.43l-.33-.15-.2.43.33.15c.21.1.53.22.91.43l1.38.74c.27.14.56.28.86.44l.93.56a56.1 56.1 0 0116.42 14.25l.66.84.56.79.91 1.28.76 1.11z" transform="translate(-155.36 -47.73)"/><path class="cls-1" d="M253.42 70.71l-.15-.91-.17-.91-.17.38.23 1.32zM254.48 71.25s-.13-1-.29-2-.37-2-.37-2l-.17.38s.17.86.32 1.7.26 1.73.26 1.73zM254.37 66.11l.28.13s.3 1.37.51 2.79.38 2.77.38 2.77l-.26-.13s-.16-1.37-.39-2.77c-.11-.71-.24-1.4-.35-1.91zM255.55 66.65l.28.14s.26 1.42.45 2.8c.1.69.19 1.37.24 1.91l.08.87-.25-.14-.08-.87c-.06-.52-.15-1.2-.25-1.9-.21-1.39-.47-2.81-.47-2.81zM256.69 67.24l.31.14.14.88c.08.52.18 1.21.26 1.93.16 1.41.26 2.79.26 2.79l-.25-.14s-.1-1.38-.27-2.79-.45-2.81-.45-2.81zM257.84 67.83l.28.17s.19 1.43.33 2.83c.07.7.12 1.39.16 1.91v.88l-.24-.16s0-.36-.05-.87-.1-1.21-.17-1.91-.15-1.44-.15-1.97-.16-.88-.16-.88zM259 68.46l.27.15s.18 1.41.28 2.81.13 2.81.13 2.81l-.24-.15s0-1.39-.15-2.8-.29-2.82-.29-2.82zM260.09 69.1l.27.15s0 .34.08.89.09 1.25.13 2 .06 1.4.08 1.92 0 .87 0 .87l-.12-.08-.12-.08s0-1.37-.1-2.78c0-.7-.09-1.42-.13-2zM261.19 69.78l.26.17s.11 1.43.16 2.82v2.81l-.23-.17v-.87-1.93c-.08-1.4-.19-2.83-.19-2.83zM262.27 70.47l.26.17v5.67l-.23-.17v-2.79c0-.71 0-1.43-.06-1.95zM263.35 71.18l.25.18v2.83c0 .69 0 1.4-.05 1.93v.87l-.23-.18s.09-1.41.08-2.8-.05-2.83-.05-2.83zM264.4 71.93l.25.18v2.84c0 1.42-.15 2.79-.15 2.79l-.23-.18s.1-1.38.14-2.8v-2.83zM265.46 72.68l.24.19s0 1.44-.09 2.84-.21 2.79-.21 2.79l-.22-.19.08-.87c0-.52.08-1.21.11-1.91.07-1.41.09-2.85.09-2.85zM266.47 73.48l.24.19v.89c0 .53 0 1.22-.11 1.94a69.28 69.28 0 01-.28 2.79l-.22-.19s.16-1.37.27-2.8.1-2.82.1-2.82zM267.48 74.27l.24.19s-.08 1.44-.22 2.84c-.07.7-.14 1.39-.2 1.9l-.12.87-.21-.2s.05-.35.11-.86.13-1.21.2-1.91.12-1.41.15-1.95l.05-.88zM268.47 75.11l.23.2s-.1 1.43-.25 2.81-.45 2.78-.45 2.78l-.21-.2.13-.86c.07-.52.18-1.23.25-1.92.2-1.38.3-2.81.3-2.81zM269.45 76l.23.2s0 .35-.09.88-.15 1.24-.25 1.94-.2 1.39-.29 1.9l-.15.85-.1-.1-.1-.1s.24-1.35.43-2.76c.09-.7.19-1.41.24-1.94zM270.4 76.82l.23.18s-.16 1.43-.38 2.8c-.1.68-.24 1.39-.34 1.9l-.17.86-.2-.21.17-.86c.1-.52.23-1.21.33-1.9.2-1.34.36-2.77.36-2.77zM271.34 77.71l.22.21-.12.87c-.07.52-.2 1.24-.33 1.93-.25 1.39-.56 2.73-.56 2.73l-.2-.21s.3-1.34.55-2.74c.13-.7.24-1.4.31-1.92zM272.26 78.61l.21.22s-.23 1.42-.5 2.79c-.13.68-.28 1.36-.41 1.88l-.21.85-.19-.22s.35-1.36.61-2.73.49-2.79.49-2.79zM273.15 79.54l.21.22-.16.87c-.09.52-.24 1.21-.4 1.91-.32 1.38-.68 2.71-.68 2.71l-.18-.25s.36-1.33.67-2.72c.17-.7.28-1.38.38-1.9zM274 80.48l.2.23s-.29 1.41-.63 2.77-.74 2.7-.74 2.7l-.12-.18.24-.84c.13-.5.31-1.17.47-1.86l.44-1.9zM274.89 81.45l.2.23-.2.87c-.13.52-.27 1.19-.47 1.88-.38 1.37-.8 2.69-.8 2.69l-.18-.23s.42-1.32.79-2.7.66-2.74.66-2.74zM275.74 82.43l.2.23-.22.87c-.14.52-.33 1.21-.52 1.88s-.4 1.34-.56 1.83-.28.83-.28.83l-.17-.23.27-.82c.16-.49.36-1.16.56-1.84s.38-1.37.52-1.89.2-.86.2-.86zM276.55 83.43l.19.24s-.37 1.38-.78 2.71S275 89 275 89l-.17-.23.29-.82c.17-.49.41-1.17.61-1.84.45-1.29.82-2.68.82-2.68zM277.35 84.45l.19.24-.25.85c-.16.51-.38 1.19-.61 1.86-.45 1.34-.95 2.62-.95 2.62l-.16-.23s.49-1.28.94-2.63.84-2.71.84-2.71zM278.12 85.48s-.43 1.37-.9 2.69c-.23.66-.47 1.31-.68 1.8l-.33.81.16.22.33-.81c.19-.48.47-1.15.69-1.8.47-1.31.9-2.68.9-2.68zM279 86.78l-.18-.25s-.31 1-.65 1.9-.73 1.88-.73 1.88l.35-.23s.33-.81.64-1.64c.16-.42.3-.83.41-1.14zM279.78 87.85l-.17-.26-.33.9-.34.89.35-.23zM296 121.43v-1.64l-.05-1.88-.18-2.44a67.79 67.79 0 00-2.44-12.9 66 66 0 00-4.92-12.18c-.4-.81-.81-1.51-1.18-2.14l-.95-1.63-.89-1.38.21-.13.89 1.39.95 1.64c.36.63.78 1.34 1.18 2.15a66.21 66.21 0 014.94 12.22 68 68 0 012.44 12.93l.19 2.45.05 1.89v1.65H296z" transform="translate(-155.36 -47.73)"/><path class="cls-1" d="M297.17 121.43v-1.67l-.05-1.92-.19-2.48a69 69 0 00-2.48-13.12 67.11 67.11 0 00-5-12.39c-.4-.82-.83-1.54-1.2-2.18s-.69-1.2-1-1.66l-.9-1.41 1.24-.8.92 1.44c.28.47.6 1 1 1.7s.81 1.39 1.22 2.23a68.6 68.6 0 015.11 12.65 70.44 70.44 0 012.53 13.41l.19 2.53.06 2v1.7h-1.47z" transform="translate(-155.36 -47.73)"/><path class="cls-1" d="M126.56 40.6l-.39-.62 3.08-1.98.42.65-3.11 1.95zM127.52 42.17l-.37-.63 3.14-1.9.39.68-3.16 1.85z"/><path class="cls-1" d="M285.46 94.77l-.15-.33-.16-.33 3.29-1.61.17.35.16.35z" transform="translate(-155.36 -47.73)"/><path class="cls-1" d="M130.86 48.72l-.3-.67 3.34-1.5.32.7-3.36 1.47zM132.24 52.13l-.27-.68 3.43-1.31.28.72-3.44 1.27zM132.84 53.87l-.24-.7 3.46-1.2.25.74-3.47 1.16zM133.91 57.39l-.2-.71 3.52-.99.21.74-3.53.96zM134.77 60.97l-.16-.72 3.57-.79.18.76-3.59.75zM135.1 62.77l-.13-.72 3.6-.68.14.77-3.61.63z"/><path class="cls-1" d="M290.76 112.31v-.36l-.06-.36 3.62-.57.07.38v.39z" transform="translate(-155.36 -47.73)"/><path class="cls-1" d="M135.64 66.41l-.09-.73 3.63-.46.1.77-3.64.42zM135.82 68.24l-.05-.73 3.64-.36.06.78-3.65.31zM135.97 70.08l-.06-.74 3.65-.25.06.78-3.65.21z"/><path class="cls-1" d="M283.82 121.42v-2.9l-.13-1.67c-.06-1.14-.25-2.27-.34-3.12 0-.43-.1-.78-.15-1l-.07-.39-.39.06.07.38c.05.24.1.59.15 1 .09.85.29 2 .34 3.1l.13 1.66v2.88h.39zM275.13 91.84l-.33.21.46.72c.31.45.68 1.14 1.15 1.94s1 1.79 1.5 2.82c.27.52.5 1.08.76 1.63s.52 1.12.74 1.71l.68 1.73c.21.58.39 1.15.58 1.7.4 1.1.65 2.16.92 3.05s.39 1.67.53 2.19l.19.83.38-.08-.2-.84c-.14-.53-.27-1.31-.53-2.21s-.52-2-.93-3.08c-.19-.56-.38-1.13-.59-1.72l-.69-1.74c-.21-.59-.49-1.15-.74-1.72s-.49-1.13-.76-1.65c-.55-1-1-2-1.51-2.84s-.84-1.51-1.16-2z" transform="translate(-155.36 -47.73)"/><path class="cls-1" d="M122.99 52.88l-1.37.58.92 2.33 1.39-.51-.94-2.4z"/><path class="cls-1" d="M282.54 121.42l-.07-2.62-.2-2.67c-.11-1-.24-2-.39-3l-.28-1.53c-.09-.51-.17-1-.29-1.48l-.31-1.41-.14-.64-.17-.59-.51-1.82c-.13-.43-.18-.66-.18-.66l-1.41.46s.09.24.22.66l.5 1.77.16.57.14.62.31 1.33c.12.46.2.95.28 1.44l.27 1.49c.14 1 .27 2 .38 3l.19 2.6.06 2.54h1.49zM274.06 92.54l-1.25.8s.8 1.19 1.48 2.45l.52.91.41.82.41.8 1.33-.66-.42-.82-.42-.84-.54-.94c-.71-1.3-1.52-2.52-1.52-2.52zM296.41 91.51l-.73-1.61c-.44-1-1.11-2.21-1.75-3.47S292.54 84 292 83.07l-1-1.49-2.4 1.55.91 1.43c.52.88 1.2 2.05 1.86 3.24s1.26 2.41 1.68 3.33l.7 1.55zM300.89 105l-.41-1.75c-.27-1-.67-2.42-1.07-3.8s-.9-2.73-1.28-3.73l-.65-1.72-2.65 1.06.63 1.6c.37 1 .79 2.28 1.23 3.59s.77 2.65 1 3.65l.39 1.68zM302.76 121.43l-.09-3.56c-.11-1.78-.26-3.55-.26-3.55l-2.84.27s.14 1.71.25 3.42l.09 3.42h2.86zM302 110.57s0-.21-.08-.53l-.2-1.16-.3-1.68-2.8.55.29 1.61.2 1.11c.05.3.07.51.07.51zM290.36 121.42V118.2l-.26-2.2a62.09 62.09 0 00-2.22-11.79 60.31 60.31 0 00-4.49-11.12c-.36-.74-.74-1.38-1.07-2l-.86-1.49-.81-1.26-.39.25.81 1.25.85 1.48c.33.57.71 1.21 1.07 1.95a59.83 59.83 0 014.45 11 61.62 61.62 0 012.2 11.7l.17 2.21v3.2h.47zM285.31 121.42v-2.96l-.16-2a57 57 0 00-2-10.81 55.24 55.24 0 00-4.11-10.2c-.33-.68-.68-1.27-1-1.8l-.79-1.37-.75-1.16-.39.25.74 1.15.78 1.36c.3.52.65 1.11 1 1.78a54.76 54.76 0 014.08 10.12 56.55 56.55 0 012 10.72l.16 2V121.44h.47z" transform="translate(-155.36 -47.73)"/><path class="cls-1" d="M277 91.95l.36-.85.35-.86-.35.23-.52 1.24zM277.58 93l.26-.56c.16-.34.37-.8.55-1.25.38-.91.75-1.85.75-1.85l-.35.22s-.32.82-.65 1.61-.7 1.59-.7 1.59zM280.25 88.59l.17.26-.32.83c-.19.49-.45 1.14-.75 1.79-.57 1.3-1.18 2.54-1.18 2.54l-.17-.25s.61-1.24 1.18-2.55 1.07-2.62 1.07-2.62zM281 89.68l.16.26s-.55 1.34-1.14 2.61c-.29.64-.59 1.26-.82 1.73l-.41.78-.13-.26s.17-.31.39-.78.53-1.09.82-1.74.58-1.29.79-1.79l.34-.81zM281.6 90.79l.15.27s-.56 1.31-1.17 2.57-1.3 2.49-1.3 2.49l-.13-.25s.67-1.22 1.28-2.5 1.17-2.58 1.17-2.58zM282.25 91.91l.15.27s-.14.32-.37.81-.55 1.12-.87 1.75-.65 1.24-.9 1.69-.42.76-.42.76l-.06-.13-.06-.13s.67-1.2 1.31-2.46c.32-.63.64-1.27.87-1.75zM282.86 93l.14.32s-.63 1.29-1.28 2.52c-.32.61-.69 1.23-1 1.68l-.45.75-.07-.27.45-.75c.27-.46.62-1.07.94-1.68.65-1.23 1.27-2.57 1.27-2.57zM283.45 94.19l.14.28-.4.79a71.672 71.672 0 01-2.38 4.1l-.12-.26s.73-1.17 1.43-2.4c.35-.62.7-1.24.93-1.71zM284 95.35l.13.28s-.68 1.27-1.4 2.47c-.35.6-.72 1.19-1 1.64l-.48.73-.1-.27s.79-1.17 1.48-2.37 1.37-2.48 1.37-2.48zM284.56 96.52l.13.28-.44.77c-.26.46-.62 1.06-1 1.66-.76 1.2-1.54 2.33-1.54 2.33l-.11-.27s.78-1.14 1.54-2.34c.39-.6.72-1.2 1-1.67zM285.09 97.7l.11.3s-.74 1.24-1.51 2.41c-.39.59-.76 1.16-1.07 1.59l-.52.71-.09-.27s.21-.28.51-.71.68-1 1.06-1.59c.77-1.2 1.51-2.44 1.51-2.44zM285.56 98.9l.11.29-.47.75c-.29.45-.65 1-1.07 1.62-.81 1.17-1.65 2.27-1.65 2.27l-.09-.27s.84-1.11 1.65-2.28 1.52-2.38 1.52-2.38zM286 100.1l.11.29s-.19.3-.5.74-.71 1-1.12 1.6-.83 1.13-1.14 1.54-.54.69-.54.69l-.08-.28s.84-1.08 1.66-2.23c.41-.57.82-1.16 1.12-1.61zM286.47 101.31l.1.29s-.81 1.18-1.64 2.3-1.75 2.2-1.75 2.2l-.08-.28.55-.68c.33-.41.78-1 1.18-1.53.83-1.11 1.64-2.3 1.64-2.3zM286.88 102.54l.1.29-.51.72c-.32.43-.76 1-1.2 1.55-.88 1.11-1.77 2.15-1.77 2.15l-.08-.28s.89-1 1.77-2.16 1.69-2.27 1.69-2.27zM287.28 103.76l.08.3s-.86 1.15-1.75 2.23c-.43.54-.9 1.07-1.25 1.47l-.58.65-.06-.28s1-1 1.82-2.13 1.74-2.24 1.74-2.24zM287.63 105l.08.3-.55.69c-.32.41-.78 1-1.25 1.5-.93 1.07-1.87 2.08-1.87 2.08l-.06-.28s.94-1 1.87-2.09c.47-.54.9-1.08 1.23-1.5zM288 106.25l.07.3s-.92 1.11-1.85 2.16c-.47.52-.93 1-1.3 1.41l-.62.63v-.28l.61-.63c.35-.38.82-.89 1.29-1.42.86-1.05 1.8-2.17 1.8-2.17zM288.27 107.5l.07.3-.58.67c-.36.4-.8.92-1.3 1.44l-2 2-.05-.28 2-2c1-1 1.86-2.13 1.86-2.13zM288.56 108.76l.07.3-.6.66c-.37.39-.86.91-1.35 1.41s-1 1-1.36 1.35-.63.6-.63.6v-.28s1-.95 2-2c.49-.51 1-1 1.35-1.42s.52-.62.52-.62zM288.81 110l.05.3-2 2c-1 1-2.06 1.91-2.06 1.91v-.28l.65-.59c.39-.36.91-.84 1.39-1.33.99-.93 1.97-2.01 1.97-2.01zM289 111.3l.05.3-.61.63c-.38.38-.9.87-1.41 1.36-1 1-2.07 1.87-2.07 1.87v-.28s1-.9 2.07-1.88 1.97-2 1.97-2zM289.24 112.57v.31s-1 1-2.06 1.95c-.51.47-1 .93-1.45 1.27l-.68.56v-.29s1.09-.89 2.11-1.83 2.08-1.97 2.08-1.97zM289.4 113.85v.31l-.64.61c-.38.36-.91.83-1.45 1.29-1.08.92-2.16 1.78-2.16 1.78v-.29s1.08-.86 2.16-1.79c.55-.46 1-.94 1.44-1.3zM289.57 115.13v.31s-1.08 1-2.16 1.86c-.54.45-1.08.88-1.49 1.2l-.7.53v-.29s.29-.21.69-.53.95-.76 1.49-1.21 1.08-.92 1.48-1.27zM289.67 116.42v.31s-1.07.94-2.16 1.81-2.25 1.69-2.25 1.69v-.29s1.13-.82 2.24-1.7 2.17-1.82 2.17-1.82zM289.77 117.71l-.67.57c-.42.34-1 .78-1.54 1.21-1.12.86-2.25 1.65-2.25 1.65v.29s1.12-.79 2.25-1.64c.56-.43 1.12-.87 1.54-1.2s.69-.56.69-.56zM289.84 119.31V119s-.8.64-1.6 1.25-1.6 1.18-1.6 1.18h.36l1.4-1zM289.87 120.6v-.31l-.75.58-.75.56h.42z" transform="translate(-155.36 -47.73)"/></svg>