<svg preserveAspectRatio="none" id="Layer_1" data-name="Layer 1" xmlns="http://www.w3.org/2000/svg" xmlns:xlink="http://www.w3.org/1999/xlink" viewBox="0 0 102.67 102.67"><defs><style>.cls-1{fill:#2e2855;}.cls-2{fill:url(#linear-gradient);}.cls-3{fill:url(#linear-gradient-2);}.cls-4{fill:#3d6db8;}.cls-5{fill:#d13954;}</style><linearGradient id="linear-gradient" x1="388.65" y1="134.33" x2="388.65" y2="45.67" gradientUnits="userSpaceOnUse"><stop offset="0.03" stop-color="#71ebb2"/><stop offset="0.99" stop-color="#339567"/></linearGradient><linearGradient id="linear-gradient-2" x1="389.24" y1="58.67" x2="389.24" y2="121.33" gradientUnits="userSpaceOnUse"><stop offset="0.03" stop-color="#a87c40"/><stop offset="0.99" stop-color="#eebe77"/></linearGradient></defs><title>circle3</title><path class="cls-1" d="M389,136.33A46.33,46.33,0,1,1,435.32,90,46.39,46.39,0,0,1,389,136.33Zm0-84.67A38.33,38.33,0,1,0,427.32,90,38.38,38.38,0,0,0,389,51.67Z" transform="translate(-337.65 -38.67)"/><path class="cls-2" d="M389,134.33v-4a40.06,40.06,0,0,0,28.51-11.83l2.83,2.83A44,44,0,0,1,389,134.33Zm-7.7-.67a44.16,44.16,0,0,1-7.46-2l1.37-3.76a40.12,40.12,0,0,0,6.78,1.82Zm-14.46-5.28a44.66,44.66,0,0,1-6.32-4.44l2.57-3.06a40.61,40.61,0,0,0,5.76,4ZM345.32,97.7a44.53,44.53,0,0,1-.67-7.7,44,44,0,0,1,13-31.33l2.83,2.83A40.06,40.06,0,0,0,348.65,90a40.62,40.62,0,0,0,.61,7ZM428.71,83A40.4,40.4,0,0,0,414.9,59.12l2.57-3.06A44.42,44.42,0,0,1,432.65,82.3ZM409.15,55.08a40.28,40.28,0,0,0-6.36-3l1.37-3.76a44.26,44.26,0,0,1,7,3.28ZM396,50.27a40.56,40.56,0,0,0-7-.61v-4a44.6,44.6,0,0,1,7.7.67Z" transform="translate(-337.65 -38.67)"/><path class="cls-1" d="M389,124.33A34.33,34.33,0,1,1,423.32,90,34.37,34.37,0,0,1,389,124.33Zm0-60.67A26.33,26.33,0,1,0,415.32,90,26.36,26.36,0,0,0,389,63.67Z" transform="translate(-337.65 -38.67)"/><path class="cls-3" d="M389,121.33a31.32,31.32,0,0,1-30.82-25.68l2-.36a29.32,29.32,0,0,0,28.86,24v2Zm22.41-9.45-1.43-1.4A29.16,29.16,0,0,0,418.32,90a29.51,29.51,0,0,0-.6-5.9l2-.4a31.48,31.48,0,0,1,.64,6.31A31.16,31.16,0,0,1,411.4,111.88ZM368.1,69.43L366.67,68a31.28,31.28,0,0,1,42.23-2.19l-1.27,1.54A29.28,29.28,0,0,0,368.1,69.43Z" transform="translate(-337.65 -38.67)"/><path class="cls-1" d="M389,141.33A51.33,51.33,0,1,1,440.32,90,51.39,51.39,0,0,1,389,141.33Zm0-100.67A49.33,49.33,0,1,0,438.32,90,49.39,49.39,0,0,0,389,40.67Z" transform="translate(-337.65 -38.67)"/><path class="cls-4" d="M349,61.15L347.34,60A51.51,51.51,0,0,1,389,38.67,50.9,50.9,0,0,1,426,54.48l-1.44,1.38A48.92,48.92,0,0,0,389,40.67,49.51,49.51,0,0,0,349,61.15Z" transform="translate(-337.65 -38.67)"/><path class="cls-5" d="M420.48,130.54L419.25,129a49.05,49.05,0,0,0,19.07-39,49.58,49.58,0,0,0-1.52-12.19l1.94-.49A51.42,51.42,0,0,1,420.48,130.54Z" transform="translate(-337.65 -38.67)"/><path class="cls-4" d="M389,141.33A51.39,51.39,0,0,1,337.65,90h2A49.39,49.39,0,0,0,389,139.33a50,50,0,0,0,6.41-.41l0.26,2A52,52,0,0,1,389,141.33Z" transform="translate(-337.65 -38.67)"/></svg>