<svg preserveAspectRatio="none" id="Layer_1" data-name="Layer 1" xmlns="http://www.w3.org/2000/svg" viewBox="0 0 116.36 111.94"><defs><style>.cls-1{fill:#feb113}.cls-2{fill:#065977}.cls-3{fill:#00b3ea}</style></defs><path class="cls-1" d="M592.65 278.89l1.88 1.58.34.29c.08.06-.1.2-.15.26-.6.72-1.18 1.46-1.71 2.23a41.41 41.41 0 00-3.14 5.32c-.32.65-.61 1.31-.9 2s-.65 1.54-.9 2.33c-.38 1.19-.76 2.38-1 3.6a32.12 32.12 0 00-.69 3.69l-2.43-.34-.44-.06.09-.56c.15-.93.33-1.85.52-2.77a36.17 36.17 0 011.44-5c.36-1 .75-1.92 1.15-2.86.27-.64.6-1.26.9-1.89.37-.78.81-1.55 1.26-2.29s.91-1.48 1.4-2.19c.78-1.14 1.61-2.23 2.49-3.3zM625.76 261.13l-.09 2.45v.44c0 .1-.18 0-.25 0h-2.69a39.85 39.85 0 00-11.64 2.12 40.89 40.89 0 00-5.62 2.36c-.75.39-1.49.79-2.23 1.22a4.85 4.85 0 01-.45.25l-.18-.29-1.34-2.22c1.34-.78 2.68-1.55 4.09-2.19a47.53 47.53 0 015.74-2.24 43.31 43.31 0 0111.64-2h3z" transform="translate(-562.13 -244.03)"/><path class="cls-2" d="M575.4 329.1l4.32-2.1 1.77-.86.06.06.28.55c.41.79.81 1.57 1.26 2.33a49.25 49.25 0 003.31 5 48.18 48.18 0 003.45 4.05 47 47 0 009.61 7.74 48 48 0 0011.14 5 47.42 47.42 0 0053.9-20.39A47.41 47.41 0 00671 297a42.49 42.49 0 00-1.52-6.1c-.35-1-.7-2-1.1-3s-.83-2-1.27-2.93-1-1.93-1.48-2.86-1.07-1.82-1.64-2.71a48 48 0 00-3.73-5 47.17 47.17 0 00-9-8.1 45.08 45.08 0 00-5.31-3.18c-.93-.47-1.86-.91-2.82-1.32s-2-.79-2.94-1.16a42.74 42.74 0 00-6-1.71 48.13 48.13 0 00-5.43-.84 46.26 46.26 0 00-10.12.12h-.11l-.15-1.2-.06-.47.91-.12a46.12 46.12 0 015.87-.24 47.66 47.66 0 016.15.49c1 .16 2.06.33 3.08.55s2 .47 3 .73a48 48 0 0111.17 4.62 49.21 49.21 0 0124.84 40 46.66 46.66 0 010 5.28 54.65 54.65 0 01-.66 5.85 47.24 47.24 0 01-3.05 10.51l2.21.92.95.39.21-.52c.14-.34.27-.7.4-1a56.4 56.4 0 001.73-5.47 45.33 45.33 0 001.2-6.11c.23-1.86.4-3.72.46-5.59a51.25 51.25 0 00-.13-5.37 52.67 52.67 0 00-15.12-33.08 52.66 52.66 0 00-20.35-12.72A53.83 53.83 0 00629 253a51.26 51.26 0 00-11.13.17l-.15-1.2-.06-.47.83-.11c.92-.11 1.84-.17 2.76-.22s2-.09 3-.08a56.42 56.42 0 016.16.36 57.14 57.14 0 016 1 54.36 54.36 0 0140.92 41.71 53.54 53.54 0 011.16 12.07 55.54 55.54 0 01-1.49 11.61 48.78 48.78 0 01-1.71 5.78c-.34.93-.69 1.85-1.07 2.76l-.52 1.21c-.08.19-.17.39-.26.58l-.12.26a.47.47 0 01-.06.12.5.5 0 01-.15-.07l-.4-.19-1.27-.6-2.53-1.19-.23-.11a1.14 1.14 0 00-.19.34c-.4.83-.83 1.65-1.27 2.47q-1.13 2.05-2.45 4a49 49 0 01-7.45 8.55 47.78 47.78 0 01-10.25 7.17c-1.49.77-3 1.49-4.55 2.11a51.38 51.38 0 01-5.69 1.9 48.44 48.44 0 01-12.3 1.65 49.07 49.07 0 01-11.26-1.23c-1.56-.36-3.1-.81-4.62-1.3-.74-.24-1.46-.51-2.19-.79a3.37 3.37 0 00-.21.5l-1.07 2.78-.45 1.15-.11.27a.79.79 0 01-.44-.13c-.83-.31-1.64-.69-2.46-1-.47-.2-.92-.44-1.38-.66s-.9-.43-1.34-.67c-.9-.49-1.8-1-2.68-1.5s-1.76-1.09-2.63-1.68a53.31 53.31 0 01-9.43-8.11 52.66 52.66 0 01-6.65-8.91c-.5-.86-1-1.71-1.45-2.59l-.8-1.55z" transform="translate(-562.13 -244.03)"/><path class="cls-1" d="M583.32 325.25c.68 1.32 1.37 2.63 2.14 3.9a43.19 43.19 0 002.8 4.06 45.6 45.6 0 0030.9 17.34 45.4 45.4 0 0028.41-6.18 43.06 43.06 0 005.22-3.63 45 45 0 006.77-6.77 45.44 45.44 0 009.09-19 44.43 44.43 0 001-8.34v-3.46c0-1.15-.19-2.54-.35-3.81a41.21 41.21 0 00-1.19-5.9 50 50 0 00-1.63-4.86 49 49 0 00-2.08-4.5 49.77 49.77 0 00-2.62-4.36c-.29-.45-.61-.87-.93-1.3-.19-.26-.37-.52-.56-.77-.69-.86-1.37-1.71-2.1-2.53a47.07 47.07 0 00-5.65-5.36 45.6 45.6 0 00-6.68-4.39c-1.38-.76-2.81-1.41-4.26-2-1-.41-1.95-.78-2.94-1.1a50.78 50.78 0 00-6-1.55 45.78 45.78 0 00-5.84-.73 46.53 46.53 0 00-9.25.4 45.85 45.85 0 00-21.76 9.47c-.82.66-1.62 1.35-2.41 2.06-.39.35-.76.71-1.13 1.08s-.75.71-1.09 1.1a46.29 46.29 0 00-3.82 4.62 45.24 45.24 0 00-5.61 10.36 46.08 46.08 0 00-2.75 11.65 44.18 44.18 0 00.41 12.27 47.6 47.6 0 001.35 5.67c.44 1.43 1 2.82 1.53 4.2.3.76.66 1.49 1 2.23a.37.37 0 010 .12l-.22.11-.51.25c-.62-1.34-1.22-2.69-1.74-4.07a44.06 44.06 0 01-1.47-4.66 46.29 46.29 0 0112.35-44.49 46.73 46.73 0 0114.63-9.73 50.59 50.59 0 016-2 44 44 0 0110-1.51 48 48 0 0111.2.93 46.52 46.52 0 018.9 2.8c1.31.56 2.59 1.17 3.83 1.86 1.48.81 2.91 1.7 4.31 2.65a43 43 0 016.29 5.25c.62.62 1.22 1.25 1.8 1.91.75.85 1.47 1.72 2.18 2.61.2.25.38.51.56.76.33.45.67.9 1 1.37.46.7.93 1.39 1.36 2.11a46 46 0 012.24 4.17 50.54 50.54 0 012 4.81 51.47 51.47 0 011.56 5.62 45.84 45.84 0 01.84 6 43.61 43.61 0 01-.17 8.51 45.82 45.82 0 01-1.78 8.54 48.3 48.3 0 01-3.86 9 46.08 46.08 0 01-3.2 4.94 39 39 0 01-2.46 3c-.51.56-1 1.13-1.53 1.66-.75.74-1.5 1.47-2.28 2.18a40.58 40.58 0 01-5 3.89c-.89.58-1.78 1.14-2.7 1.68s-1.87 1-2.82 1.51a45.38 45.38 0 01-5.91 2.4 44.52 44.52 0 01-11 2.19 46.18 46.18 0 01-23.19-4.3 45.53 45.53 0 01-10.12-6.49 47 47 0 01-8.13-8.92q-1-1.44-1.89-3c-.62-1.06-1.19-2.15-1.75-3.25l.74-.36z" transform="translate(-562.13 -244.03)"/><path class="cls-2" d="M599.53 268.63l2.71 4 .28.42a36.42 36.42 0 00-4.31 3.35c-.76.67-1.5 1.37-2.19 2.12l-.8.87s-.13.21-.19.16l-2-1.74-.42-.37c-.08-.07-.11-.15-.19-.07-.57.64-1.13 1.31-1.64 2a41.67 41.67 0 00-3.4 5.1c-.47.87-.93 1.74-1.36 2.62-.31.64-.59 1.29-.87 1.94a41.84 41.84 0 00-3 11.41v.18l3.38.38a37.84 37.84 0 00-.23 5.49 33.79 33.79 0 00.46 5 39.82 39.82 0 001.25 5.36c.32 1 .66 1.93 1 2.88s.69 1.63 1.06 2.43c0 .06.13.17.06.21l-.26.13-1.08.53-2.74 1.33-.72.35a50.8 50.8 0 01-2-4.81c-.33-1-.64-2-.92-3s-.47-1.85-.66-2.79a44.7 44.7 0 01-.79-5.82 46.3 46.3 0 010-6.26 42.59 42.59 0 012-10.19 44.18 44.18 0 0113.2-19.84 41.21 41.21 0 014.37-3.35z" transform="translate(-562.13 -244.03)"/><path class="cls-3" d="M663.34 284.69c-.25-.48-.51-1-.78-1.42s-.53-.93-.82-1.38c-.57-.88-1.14-1.77-1.77-2.61s-1.27-1.66-1.92-2.47-1.39-1.58-2.12-2.33a44.75 44.75 0 00-4.71-4.19 46.16 46.16 0 00-5-3.32 44.16 44.16 0 00-10.38-4.31c-.89-.24-1.78-.44-2.68-.64s-2-.4-3-.52c-.79-.1-1.58-.2-2.37-.26a1.94 1.94 0 00-.06.51l-.4 4.85c.53 0 1.06.1 1.59.17a39.11 39.11 0 0110.78 2.95 43.1 43.1 0 015.5 2.92c.42.26.82.55 1.22.83s.63.43.93.67l.76.57a.4.4 0 00.16-.17l.91-1.17.33-.42c0-.05 0-.05.09 0l.42.34a49.78 49.78 0 013.83 3.5 39.52 39.52 0 013.73 4.47 40.07 40.07 0 013.27 5.36 41.11 41.11 0 013.94 11.84 43.79 43.79 0 01.56 5.72v2.88c0 .08 0 .86-.05.86h-.35l-1.51-.1h-.43a3.52 3.52 0 00-.06.61 37.47 37.47 0 01-.82 5.46 39 39 0 01-3.9 10.29l-2.23-1.29-.07.13a35.74 35.74 0 01-7.41 9.31A36.68 36.68 0 01637.9 339c-.94.37-1.89.71-2.84 1a29.44 29.44 0 01-2.94.78c-.43.1-.86.19-1.29.27a3.46 3.46 0 00-.68.14l.19 1.15.22 1.31a.24.24 0 010 .08 1.32 1.32 0 01-.38.07c-.39.07-.79.11-1.18.16a39 39 0 01-28-7.38l-.3.41-2.9 3.91a44.19 44.19 0 0044.07 5c.95-.43 1.89-.87 2.81-1.35s1.88-1 2.79-1.59a42.94 42.94 0 005.16-3.72 44.36 44.36 0 0015.73-31.06 43.9 43.9 0 00-.95-12.42 53.28 53.28 0 00-1.6-5.51c-.31-.91-.69-1.81-1.08-2.68s-.91-2-1.4-2.91zm-26.43 56.48l1.6 4.5a47.78 47.78 0 01-4.61 1.33l-.06-.24-1.09-4.65c1-.23 2-.5 3-.82l1.08-.37.08.23zm6.11 2.61c-.79.39-1.6.77-2.42 1.09l-.1-.23-1.83-4.41c.66-.26 1.29-.57 1.94-.87s1.27-.62 1.89-1l1.33 2.41 1.09 2-1.89 1zm5.93-3.52c-.68.5-1.4.94-2.11 1.4l-1.34-2.15-1.29-2.07c-.06-.1 0-.11.13-.16l1.15-.75c.74-.48 1.46-1 2.14-1.58l1.75 2.21 1.36 1.72s-1.67 1.27-1.81 1.37zm3.54-2.79l-2.38-2.71-.78-.88-.15-.18a6.2 6.2 0 01.49-.45c.72-.66 1.4-1.34 2.08-2a6 6 0 01.45-.48l.18.16 3.54 3.21a51.76 51.76 0 01-3.42 3.37zm6.49-7.16c-.51.71-1 1.42-1.61 2.1l-.19-.16-3.71-3a31.69 31.69 0 002.5-3.43l2.32 1.49 1.89 1.22s-1.09 1.65-1.2 1.8z" transform="translate(-562.13 -244.03)"/><path class="cls-1" d="M612.93 316.46a9.67 9.67 0 01-.84-.92l-.78-1a11.92 11.92 0 01-.76-1.19c-.05-.09 0-.12-.11-.08l-.18.11-.72.41-2.4 1.37-3.65 2.08-1.28.73-.14.08-2.07 1.18-5.34 3-2.27 1.29-4.86 2.77-2.77 1.58-.71.41.19.32.13.23.49.83.37.58.07.1.74 1.13v.06c.47.7 1 1.39 1.5 2.06l.11.14.17.21c.57.71 1.15 1.41 1.75 2.09l.25.28c.68.75 1.38 1.48 2.1 2.19s1.26 1.21 1.93 1.77a.16.16 0 00.1.07l.14-.16.36-.42.18-.21 1.8-2.09 3.7-4.3 1.67-1.94 4-4.66 1.68-1.95 1-1.21 2.61-3 2.62-3a10 10 0 01-.94-.88zm-18.23 17.62a3.26 3.26 0 01-2.52.93 3.46 3.46 0 01-2.28-1.14 3.51 3.51 0 01-.92-2.52 3.25 3.25 0 01.85-2 3.65 3.65 0 014.94-.33 3.53 3.53 0 010 5.05z" transform="translate(-562.13 -244.03)"/><path class="cls-2" d="M608.54 245.3a62.56 62.56 0 00-11.68 4.35c-1.8.9-3.58 1.86-5.3 2.92s-3.5 2.33-5.19 3.58-3.29 2.67-4.83 4.13-2.94 2.93-4.29 4.49a62.09 62.09 0 00-14.91 45.54q.25 3 .78 6c.37 2.05.85 4.07 1.41 6.07a57.92 57.92 0 002 5.82c.58 1.46 1.23 2.89 1.89 4.32l13.11-6.38-.58-1.3a47.57 47.57 0 012.86-44.37A47.54 47.54 0 01611 259.76a46.11 46.11 0 014.79-1.13l1-.18h.05l-.04-.45-.74-4.68-1-6.21-.46-3.11c-2 .35-4.06.73-6.06 1.27zm5 .77l1 5.5 1 5.4.11.63v.14c0 .05-.07 0-.11 0-.83.15-1.65.33-2.47.52s-1.91.5-2.86.77-1.92.61-2.85 1-1.91.75-2.85 1.17-1.9.89-2.83 1.38-1.82 1-2.71 1.53a44.26 44.26 0 00-5 3.54 46.77 46.77 0 00-4.52 4.11 48.52 48.52 0 00-13.53 31.78 47.68 47.68 0 001.08 12.3 48.73 48.73 0 003.19 9.52c.08.18.11.16-.06.24l-.56.26-2.1 1-5.72 2.63-3.14 1.44c-.42-.93-.83-1.86-1.21-2.81a61 61 0 01-2.93-35.95 62.2 62.2 0 013.53-10.99 60.48 60.48 0 015.81-10.53 62.47 62.47 0 018.06-9.49 59.87 59.87 0 014.83-4.16c1.63-1.26 3.32-2.42 5.05-3.53.86-.55 1.76-1.06 2.65-1.57s1.89-1 2.84-1.49A61.9 61.9 0 01603 248a59.88 59.88 0 0110.38-2.83l.17.92z" transform="translate(-562.13 -244.03)"/><path class="cls-3" d="M578 321.65c.38 1.11.81 2.22 1.29 3.28l-3.4 1.48-5.6 2.44-1.46.64h-.08s-.38-.89-.41-1c-.37-.93-.76-1.86-1.09-2.81a.5.5 0 01-.08-.28h.14l.65-.23 2.35-.83 5.83-2.06 1.87-.66zM576.69 317.43c.13.59.33 1.18.49 1.76s.33 1.09.51 1.63l-3.51 1.18-5.8 1.93-1.51.5h-.08l-.28-.85c-.31-.94-.56-1.9-.83-2.85a1.75 1.75 0 01-.12-.5h.14l.65-.17 2.4-.61 6-1.53zM575.8 313.11c.13.76.25 1.52.42 2.27l.27 1.18h-.05l-1.47.35-5.91 1.39-3.76.89c-.33-1.42-.61-2.85-.85-4.29l3.67-.59 6-1 1.66-.27zM575.3 308.72c.07.86.14 1.72.25 2.57l.12.94h-.06l-1.49.21-6 .85-3.83.54c-.19-1.45-.34-2.9-.45-4.35l3.7-.25 6.1-.42 1.68-.11zM575.2 304.31v3.52h-.06l-1.5.08-6.07.31-3.86.19c-.05-1.46-.08-2.91-.05-4.37l3.71.08 6.11.14zM575.5 299.91c-.07.59-.12 1.17-.17 1.76s-.1 1.18-.11 1.77l-3.71-.15-6.11-.24-1.59-.06h-.09v-.89c.07-1 .12-2 .24-3a3.5 3.5 0 01.07-.49h.13l.64.07 2.43.27 6.16.69 2.07.23zM576.18 295.56c-.24 1.15-.44 2.32-.58 3.49l-3.68-.48-6.06-.79-1.58-.21h-.09s.11-.82.12-.88c.16-1 .3-2 .51-3a2 2 0 01.1-.43h.13l.64.13 2.41.49 6.07 1.24 2 .41zM577.26 291.29a39.92 39.92 0 00-.89 3.42l-3.62-.81-6-1.33-1.56-.35h-.08l.19-.86c.22-1 .49-1.92.76-2.87a1.71 1.71 0 01.16-.48h.14l.65.19 2.38.71 5.92 1.78 1.92.58zM578.7 287.13c-.27.72-.54 1.43-.8 2.16-.14.38-.25.77-.37 1.15h-.06L576 290l-5.79-1.85-3.65-1.15c.44-1.38.94-2.75 1.46-4.1l3.45 1.38 5.67 2.27 1.56.62zM580.52 283.12c-.33.69-.69 1.37-1 2.07l-.48 1.11h-.06l-1.39-.58-5.6-2.36-3.56-1.5c.57-1.34 1.18-2.65 1.83-4l3.31 1.68 5.45 2.77 1.5.76zM582.7 279.29c-.41.67-.82 1.33-1.19 2l-.54 1c0 .06 0 .07-.07 0l-1.27-.67-5.34-2.83-3.52-1.79q1-1.92 2.18-3.78l3.15 2 5.18 3.24 1.43.89zM585.21 275.67c-.52.69-1 1.38-1.51 2.1l-.53.78h-.06l-1.26-.82-5.09-3.32-3.24-2.11c.81-1.21 1.64-2.4 2.52-3.57l3 2.25 4.86 3.7 1.34 1zM588 272.28c-.37.41-.74.81-1.09 1.23s-.83 1-1.21 1.46l-2.92-2.3-4.8-3.78-1.25-1-.07-.05.66-.81c.64-.77 1.28-1.53 2-2.27l.23-.25 2.74 2.5 4.51 4.12 1.24 1.14zM591.15 269.16c-.88.79-1.73 1.61-2.53 2.48l-2.7-2.55-4.44-4.2-1.16-1.1-.06-.06s.67-.69.72-.75c.7-.69 1.38-1.39 2.11-2.05a1.31 1.31 0 01.3-.25l.09.1.45.49 1.66 1.82 4.17 4.57 1.37 1.5z" transform="translate(-562.13 -244.03)"/><path class="cls-3" d="M591.15 269.16c-.88.79-1.73 1.61-2.53 2.48l-2.7-2.55-4.44-4.2-1.16-1.1-.06-.06s.67-.69.72-.75c.7-.69 1.38-1.39 2.11-2.05a1.31 1.31 0 01.3-.25l.09.1.45.49 1.66 1.82 4.17 4.57 1.37 1.5zM594.54 266.33c-.95.7-1.86 1.46-2.74 2.25l-2.45-2.79-4-4.59-1.05-1.2-.06-.07.66-.59c.74-.64 1.51-1.24 2.27-1.85a2.45 2.45 0 01.46-.33l.08.11.4.53 1.49 2 3.74 4.93 1.23 1.62zM598.17 263.83c-.65.42-1.31.83-1.94 1.28l-1 .7h-.05l-.89-1.22-3.58-4.9-2.28-3.12c1.18-.86 2.39-1.67 3.61-2.45l2 3.15 3.24 5.18zM602 261.67c-.76.39-1.52.79-2.26 1.23l-.81.47-.82-1.37-3.13-5.2-2-3.31q1.88-1.11 3.8-2.1l1.68 3.31 2.77 5.45.76 1.5zM606 259.86c-.8.32-1.58.66-2.36 1l-.85.39-.66-1.35-2.65-5.46-1.69-3.48c.38-.18 4-1.81 4-1.74l.45 1.12 2.21 5.5 1.61 4zM610.16 258.4a36.7 36.7 0 00-3.35 1.14l-1.32-3.47-2.17-5.71-.57-1.49v-.08l.83-.32c.95-.33 1.9-.68 2.87-1a1.21 1.21 0 01.44-.11v.14l.2.66.72 2.39 1.78 5.92.57 1.9zM614.44 257.31c-1.15.26-2.3.52-3.44.84l-1-3.57-1.65-5.88-.46-1.62c1.41-.39 2.82-.73 4.25-1l.74 3.64 1.22 6 .34 1.65zM671.21 323.49c.55-1.49 1.07-3 1.51-4.51s.75-2.92 1-4.41a50.88 50.88 0 00.8-11.57 49.79 49.79 0 00-2-12 51 51 0 00-5.08-11.55 50 50 0 00-17.27-17.3 52.3 52.3 0 00-11-4.92 47.82 47.82 0 00-6.19-1.5 55.77 55.77 0 00-5.82-.68 46.61 46.61 0 00-9 .29l-.07-.57v-.33c0-.09 0-.08.07-.09.86-.11 1.72-.18 2.59-.25a46.54 46.54 0 016.05-.07 52.74 52.74 0 0112 2c1 .31 2 .62 3 1s1.83.69 2.73 1.08a51.64 51.64 0 015.42 2.7 51 51 0 0117.65 16.83 52.09 52.09 0 015.46 11.42 50.69 50.69 0 012.48 12 51.89 51.89 0 01-.39 11.87 49 49 0 01-2.41 9.65l-.47 1.27-.92-.35z" transform="translate(-562.13 -244.03)"/><path class="cls-2" d="M607.39 334l1.08-1.84c.29.19.62.35.92.51s.85.45 1.28.66c.79.39 1.6.74 2.43 1.06a31.76 31.76 0 005.49 1.54 31 31 0 0011.73-.08 31.46 31.46 0 005.86-1.8 29 29 0 004.74-2.47 28.36 28.36 0 002.36-1.66c.62-.5 1.22-1 1.82-1.53a28.36 28.36 0 003.79-4.12 30 30 0 003.69-6.21 32.46 32.46 0 001.47-4c.19-.67.36-1.34.51-2s.27-1.37.39-2.06c.17-1 .23-2 .3-3a21.34 21.34 0 000-2.25c0-1-.09-2-.21-3.06a31 31 0 00-2.46-8.89 30.39 30.39 0 00-2.86-5.12 32.83 32.83 0 00-3.48-4.18l-1.51 1.5c-.24-.25-.48-.49-.74-.72l1.5-1.6 1-1.07.31-.33c.06-.06.07-.12.13-.06a29.36 29.36 0 013.8 4.25c.6.82 1.2 1.64 1.72 2.51l.78 1.34c.24.47.48.94.73 1.4s.43.93.64 1.39.38.92.56 1.38c.36.92.67 1.86.95 2.8a30.52 30.52 0 011.15 6.16c.08 1.05.15 2.11.13 3.17a30.44 30.44 0 01-.17 3.1c-.11.87-.2 1.73-.36 2.59s-.35 1.72-.58 2.57a33.2 33.2 0 01-12.68 18.43 33.17 33.17 0 01-31.7 3.91c-.82-.33-1.62-.69-2.42-1.08a21.8 21.8 0 01-2.11-1.13z" transform="translate(-562.13 -244.03)"/><path class="cls-3" d="M609.54 330.29c.3.19.62.35.93.52s.8.41 1.21.61a29.66 29.66 0 002.79 1.17c.46.19 1 .32 1.43.47s.9.25 1.35.37a28.65 28.65 0 0014.73-.2 29.8 29.8 0 0010.26-5.23 28.92 28.92 0 009.15-32.48c-.35-1-.77-1.89-1.19-2.83a29.67 29.67 0 00-1.47-2.65c-.55-.83-1.09-1.67-1.72-2.45s-1.11-1.33-1.68-2l-.16-.17.87-.83c.07-.06.05-.06.13 0s.26.29.39.43c.29.33.6.66.88 1 .6.76 1.22 1.52 1.75 2.34.28.43.57.85.83 1.29s.53.86.75 1.32c.47.9.92 1.81 1.31 2.75s.74 1.91 1 2.88a29.35 29.35 0 011.18 6 30.74 30.74 0 01-1.26 11.78 29.91 29.91 0 01-5.63 10.34A30.31 30.31 0 01643 329a29.17 29.17 0 01-2.56 1.82c-.9.57-1.83 1.07-2.78 1.57a30.43 30.43 0 01-5.91 2.22 25.91 25.91 0 01-3.06.62 29.17 29.17 0 01-3 .29 30.07 30.07 0 01-15.84-3.62c-.29-.16-.59-.31-.87-.48 0 0-.06 0 0-.07l.11-.19.52-.88z" transform="translate(-562.13 -244.03)"/><path class="cls-2" d="M643.33 278.23c.93.63 1.8 1.36 2.66 2.08l-1.45 1.69-1 1.11-.3.34c-.06.08-.06.11-.14 0-.74-.61-1.47-1.23-2.26-1.76zM639.33 275.81c.81.39 1.58.86 2.35 1.33l.5.3s.09 0 .06.07l-.17.27-1.59 2.46-.54.83c-.4-.28-.84-.51-1.26-.77s-.86-.49-1.3-.7l1.94-3.8zM635 274c.74.28 1.48.55 2.21.86.07 0 .93.39.92.41l-.1.21-1.2 2.6-.49 1.06a26.77 26.77 0 00-2.51-1c-.09 0-.25 0-.21-.14l.12-.35 1-2.8.26-.85zM630.5 272.77c.83.18 1.65.37 2.47.59a5.8 5.8 0 01.8.24l-.08.26-.83 2.76-.32 1c-.86-.28-1.75-.47-2.63-.66-.14 0-.24 0-.21-.13l.08-.4.57-2.92.15-.79zM625.85 272.21c.87.06 1.72.13 2.58.24a4 4 0 01.77.13v.28l-.44 2.86-.16 1.05c-.89-.15-1.79-.22-2.7-.28-.14 0-.24 0-.23-.1v-.4q.07-1.49.15-3v-.8zM621.18 272.31c.85-.06 1.69-.11 2.53-.13h.84v4.26c-.87 0-1.73 0-2.6.09h-.34v-.44l-.27-2.94-.08-.87zM616.57 273.06c.84-.19 1.69-.36 2.54-.51.07 0 .77-.12.78-.1v.26l.37 2.84.15 1.12a25 25 0 00-2.56.45l-.33.08v-.06l-.09-.37-.69-2.89-.2-.83zM612.11 274.47a32.66 32.66 0 013.2-1.08l.6 2.13.4 1.42.12.43c0 .1.06.11 0 .14a27.23 27.23 0 00-2.72.92l-1.56-4zM607.88 276.47a32.84 32.84 0 013-1.51l.89 2 .59 1.35.18.41c0 .09.08.1 0 .15a27.37 27.37 0 00-2.58 1.29l-2.09-3.71zM604 279c.64-.46 1.27-.93 1.94-1.36l.85-.55.12.2 1.49 2.42.62 1c-.37.21-.72.47-1.07.7s-.77.55-1.16.83c-.07.05-.16.19-.23.1l-.22-.29-1.8-2.35-.54-.7zM600.48 282.15c.62-.61 1.24-1.2 1.89-1.78a3.88 3.88 0 01.61-.5l.19.22 1.86 2.24.67.81a26.33 26.33 0 00-2 1.83c-.1.1-.12.2-.23.11l-.29-.28-2.13-2.08-.57-.56zM597.46 285.71c.51-.68 1-1.34 1.58-2 0-.05.54-.64.56-.62l.18.17 2.12 1.92.86.77a26.09 26.09 0 00-1.69 2.05l-.17.23h-.06l-.32-.23-2.4-1.76-.67-.49zM595 289.67c.42-.76.85-1.51 1.31-2.24 0-.06.43-.66.44-.65l.22.15 2.39 1.61.92.62c-.49.72-.94 1.46-1.36 2.22l-.16.3h-.06l-.34-.18-2.62-1.4-.75-.4zM593.06 293.94c.3-.81.62-1.62 1-2.41 0-.06.34-.71.35-.7l.24.12 2.6 1.26 1 .48c-.37.76-.72 1.54-1 2.34a1.39 1.39 0 01-.14.37h-.05l-.35-.13-2.78-1zM591.76 298.44c.24-1.1.53-2.19.87-3.27l2.09.67 1.4.45.44.14c.07 0 .14 0 .11.09-.28.86-.52 1.73-.71 2.62 0 .15 0 .19-.13.16l-.4-.09-2.9-.62-.77-.17zM591.11 303.07c.08-1.13.22-2.24.41-3.35l2.16.38 1.45.25.45.08c.07 0 .14 0 .13.07-.16 1-.28 1.91-.35 2.87l-4.25-.3zM591.11 307.74c-.09-1.12-.09-2.25-.07-3.37l2.2.07h1.93c.07 0 .14 0 .13.05a28.46 28.46 0 00.06 2.89zM591.77 312.36a33.5 33.5 0 01-.55-3.33l2.2-.25 1.46-.16.45-.05c.1 0 .12 0 .13.06a27.9 27.9 0 00.47 2.82l-4.17.9zM593.08 316.85c-.1-.24-.17-.49-.26-.74s-.24-.69-.34-1l-.41-1.44 2.13-.55 1.42-.37.44-.11s.12-.06.14 0l.38 1.32c.08.28.18.55.28.82s.13.43.22.63l-4 1.48z" transform="translate(-562.13 -244.03)"/><path class="cls-1" d="M613.06 282.07a25.68 25.68 0 00-12 34l1.44-.79a24 24 0 118.34 9.78l-1.08 1.25a25.68 25.68 0 103.29-44.28z" transform="translate(-562.13 -244.03)"/><path class="cls-3" d="M624.39 295.69a9.55 9.55 0 109.31 9.54 9.43 9.43 0 00-9.31-9.54zm0 18.27a8.73 8.73 0 118.51-8.73 8.62 8.62 0 01-8.51 8.73z" transform="translate(-562.13 -244.03)"/><path class="cls-1" d="M622.87 305.24a1.52 1.52 0 111.52 1.56 1.54 1.54 0 01-1.52-1.56z" transform="translate(-562.13 -244.03)"/><path class="cls-2" d="M63.82 44.81H60.7v.92h1.11v11.35h.9V45.73h1.11v-.92zM78.66 62.77v-3.12h-.92v1.11H66.38v.9h11.36v1.11h.92zM60.7 77.61h3.12v-.92h-1.11V65.33h-.9v11.36H60.7v.92zM45.86 59.65v3.12h.92v-1.11h11.35v-.9H46.78v-1.11h-.92z"/><path class="cls-3" d="M65.04 40.93V42h-5.56v-1.09h-.63v2.77h.63v-1.06h5.56v1.07h.62v-2.76h-.62zM82.54 63.99h-1.07v-5.57h1.08v-.62H79.78v.62h1.07v5.57h-1.08v.62h2.77v-.62zM59.48 81.49v-1.08h5.56v1.09h.62v-2.77h-.62v1.06h-5.56v-1.07h-.63v2.77h.63zM41.98 58.42h1.07v5.57h-1.09v.62h2.77v-.62h-1.06v-5.57h1.07v-.62h-2.76v.62z"/></svg>