<svg preserveAspectRatio="none" xmlns="http://www.w3.org/2000/svg" viewBox="0 0 271.34 278.11"><defs><radialGradient id="radial-gradient" cx="134.8" cy="127.94" r="127.94" gradientUnits="userSpaceOnUse"><stop offset="0" stop-color="#66e9fc"/><stop offset=".44" stop-color="#86ebfd"/><stop offset="1" stop-color="#b4eeff"/></radialGradient><filter id="luminosity-noclip" x="453.72" y="384.96" width="255.88" height="255.88" filterUnits="userSpaceOnUse" color-interpolation-filters="sRGB"><feFlood flood-color="#fff" result="bg"/><feBlend in="SourceGraphic" in2="bg"/></filter><style>.cls-3{opacity:.3}.cls-4{fill:#0ff}.cls-6{mask:url(#mask)}</style></defs><g style="isolation:isolate"><g id="Layer_1" data-name="Layer 1"><path d="M582.53 391.74c-74.81 0-135.67 60.86-135.67 135.67s60.86 135.67 135.67 135.67S718.2 602.22 718.2 527.41s-60.86-135.67-135.67-135.67zm0 260.89a125.43 125.43 0 01-117.6-82.19l21.45-7.85a102.82 102.82 0 01.74-72.33L465.85 482a125.17 125.17 0 0116.53-29.64L500.62 466a102.64 102.64 0 0157.48-38l-5.43-22.19a125.24 125.24 0 01148.24 80.79l-21.59 7.4A102.61 102.61 0 01669 582.12l19.27 12.21a125.23 125.23 0 01-105.74 58.29z" transform="translate(-446.86 -384.96)" style="mix-blend-mode:overlay" opacity=".7" fill="#fff"/><g class="cls-3"><path class="cls-4" d="M582.44 587.28A60.28 60.28 0 11642.73 527a60.35 60.35 0 01-60.29 60.28zm0-118A57.76 57.76 0 10640.2 527a57.82 57.82 0 00-57.76-57.76z" transform="translate(-446.86 -384.96)"/></g><path class="cls-4" d="M582.44 587.28a60.32 60.32 0 01-29.35-7.62l1.23-2.21a57.78 57.78 0 1028.34-108.21v-2.53a60.28 60.28 0 11-.22 120.57z" transform="translate(-446.86 -384.96)"/><g class="cls-3"><path class="cls-4" d="M582.44 598.24A71.25 71.25 0 11653.69 527a71.33 71.33 0 01-71.25 71.24zm0-134.9A63.66 63.66 0 10646.1 527a63.73 63.73 0 00-63.66-63.67z" transform="translate(-446.86 -384.96)"/></g><path class="cls-4" d="M642.4 565.48l-6.4-4.1A63.53 63.53 0 00646.21 527c0-35.1-29.55-63.66-63.55-63.66v-7.59a71.13 71.13 0 0159.74 109.73z" transform="translate(-446.86 -384.96)"/><g opacity=".5"><path class="cls-4" d="M135.8 83.35h1v3h-1z"/><path class="cls-4" d="M582.66 463.34h1v-7.59h-1v7.59z" transform="translate(-446.86 -384.96)"/><path class="cls-4" transform="rotate(-45 -64.184 834.076)" d="M622.1 486.54h3.79v1.26h-3.79z"/><path class="cls-4" d="M191.8 142.35h4v1h-4z"/><path class="cls-4" transform="rotate(-45 -64.959 915.497)" d="M622.47 566.65h1.26v3.79h-1.26z"/><path class="cls-4" d="M628.17 572.71l-.92.87 5.37 5.37.92-.87z" transform="translate(-446.86 -384.96)"/><path class="cls-4" d="M134.8 198.35h1v3h-1z"/><path class="cls-4" d="M582.66 591.48h-1V599h1v-7.59z" transform="translate(-446.86 -384.96)"/><path class="cls-4" transform="rotate(-45.02 -146.13 914.328)" d="M539.83 567.02h3.79v1.26h-3.79z"/><path class="cls-4" d="M537.56 572.72s-.88-.91-.87-.92l-5.37 5.37.87.92z" transform="translate(-446.86 -384.96)"/><path class="cls-4" d="M76.8 141.35h3v1h-3z"/><path class="cls-4" d="M518.79 527.31v-1h-7.59v1h7.59z" transform="translate(-446.86 -384.96)"/><path class="cls-4" transform="rotate(-45 -145.507 833.2)" d="M541.99 484.38h1.26v3.79h-1.26z"/><path class="cls-4" d="M537.56 482.11s.91-.88.92-.87l-5.37-5.37s-.91.87-.92.87z" transform="translate(-446.86 -384.96)"/><path class="cls-4" transform="rotate(-68.52 98.435 609.621)" d="M602.58 473.44h3.79v1.26h-3.79z"/><path class="cls-4" d="M606.27 467.77l1.17.49 2.77-7.06-1.17-.49z" transform="translate(-446.86 -384.96)"/><path class="cls-4" transform="rotate(-23.56 -510.517 1383.892)" d="M633.96 504.35h3.79v1.26h-3.79z"/><path class="cls-4" transform="rotate(-68.6 130.587 684.082)" d="M635.57 547.13h1.27v3.79h-1.27z"/><path class="cls-4" transform="rotate(-23.6 -539.492 1457.424)" d="M604.66 578.51h1.26v3.79h-1.26z"/><path class="cls-4" d="M608.48 586.13l-1.17.48 3 7 1.17-.48z" transform="translate(-446.86 -384.96)"/><path class="cls-4" transform="rotate(-68.57 55.514 715.992)" d="M559.35 580.12h3.79v1.26h-3.79z"/><path class="cls-4" d="M559.46 587.05s-1.17-.48-1.17-.49l-2.77 7.06s1.16.49 1.17.49z" transform="translate(-446.86 -384.96)"/><path class="cls-4" transform="rotate(-23.59 -615.395 1427.283)" d="M527.97 549.21h3.79v1.26h-3.79z"/><path class="cls-4" d="M524.14 553s-.49-1.17-.48-1.18l-7 3 .48 1.17z" transform="translate(-446.86 -384.96)"/><path class="cls-4" transform="rotate(-68.58 23.765 640.97)" d="M528.9 503.9h1.26v3.79h-1.26z"/><path class="cls-4" d="M523.22 504s.48-1.17.49-1.17l-7.07-2.77s-.49 1.17-.49 1.16z" transform="translate(-446.86 -384.96)"/><path class="cls-4" transform="rotate(-23.56 -586.038 1353.256)" d="M559.8 472.52h1.26v3.79h-1.26z"/><path class="cls-4" d="M557.24 468.69s1.16-.49 1.17-.48l-3-7-1.17.48z" transform="translate(-446.86 -384.96)"/></g><g class="cls-6"><g class="cls-6"><circle cx="134.8" cy="127.94" r="127.94" style="mix-blend-mode:overlay" fill="url(#radial-gradient)" opacity=".7"/></g></g></g></g></svg>