<svg preserveAspectRatio="none" id="Layer_1" data-name="Layer 1" xmlns="http://www.w3.org/2000/svg" viewBox="0 0 131.64 131.64"><defs><style>.cls-1{fill:#5cdeff}.cls-2{fill:#ba5bb2}.cls-3{fill:#154666}.cls-4{fill:#ff7df5}</style></defs><path class="cls-1" d="M66.09 6.84l-.37 21.29-.38-21.29h.75zM65.72 103.78l.37 21.29h-.75l.38-21.29z"/><path class="cls-2" d="M58.22 7.34l1.28 11.63L57.73 7.4l.49-.06z"/><path class="cls-3" d="M71.88 112.99l1.78 11.57-.5.07-1.28-11.64z"/><path class="cls-4" d="M50.61 8.85l2.78 11.37-3.27-11.24.49-.13z"/><path class="cls-1" d="M77.94 111.81l3.27 11.24-.49.13-2.78-11.37z"/><path class="cls-4" d="M43.25 11.34l4.25 10.9-4.71-10.71.46-.19z"/><path class="cls-3" d="M83.79 109.86l4.71 10.71-.46.19-4.25-10.9z"/><path class="cls-2" d="M36.29 14.76l5.63 10.26-6.07-10.01.44-.25z"/><path class="cls-3" d="M89.34 107.15l6.06 10.01-.43.25-5.63-10.26z"/><path class="cls-2" d="M29.83 19.07l6.92 9.44-7.32-9.13.4-.31z"/><path class="cls-3" d="M94.48 103.74l7.33 9.14-.4.3-6.93-9.44z"/><path class="cls-4" d="M23.99 24.19l8.09 8.45-8.45-8.1.36-.35z"/><path class="cls-1" d="M99.14 99.69l8.45 8.1-.35.35-8.1-8.45z"/><path class="cls-2" d="M18.86 30.02l9.13 7.32-9.43-6.92.3-.4z"/><path class="cls-3" d="M103.23 95.07l9.44 6.93-.31.39-9.13-7.32z"/><path class="cls-2" d="M14.54 36.47l10.01 6.07-10.26-5.64.25-.43z"/><path class="cls-3" d="M106.68 89.95l10.26 5.64-.25.43-10.01-6.07z"/><path class="cls-4" d="M11.1 43.43l10.72 4.71-10.91-4.25.19-.46z"/><path class="cls-1" d="M109.43 84.43l10.91 4.25-.19.46-10.72-4.71z"/><path class="cls-4" d="M8.6 50.78l11.24 3.27-11.37-2.79.13-.48z"/><path class="cls-3" d="M111.44 78.59l11.37 2.79-.13.48-11.24-3.27z"/><path class="cls-2" d="M7.08 58.39l11.57 1.78-11.63-1.28.06-.5z"/><path class="cls-3" d="M112.67 72.55l11.64 1.28-.07.49-11.57-1.77z"/><path class="cls-2" d="M6.57 66.14l11.7.25-11.7.25v-.5z"/><path class="cls-1" d="M113.1 66.39l11.7-.25v.5l-11.7-.25z"/><path class="cls-2" d="M7.07 73.89l11.63-1.28-11.57 1.77-.06-.49z"/><path class="cls-3" d="M112.72 60.23l11.57-1.78.07.5-11.64 1.28z"/><path class="cls-2" d="M8.58 81.5l11.37-2.78-11.24 3.27-.13-.49z"/><path class="cls-1" d="M111.54 54.17l11.24-3.27.13.49-11.37 2.78z"/><path class="cls-4" d="M11.06 88.86l10.91-4.25-10.71 4.71-.2-.46z"/><path class="cls-3" d="M109.58 48.32l10.72-4.71.19.46-10.91 4.25z"/><path class="cls-4" d="M14.49 95.82l10.26-5.63-10.01 6.07-.25-.44z"/><path class="cls-3" d="M106.88 42.77l10.01-6.06.25.43-10.26 5.63z"/><path class="cls-4" d="M18.8 102.28l9.44-6.92-9.13 7.32-.31-.4z"/><path class="cls-3" d="M103.47 37.63l9.13-7.32.31.39-9.44 6.93z"/><path class="cls-2" d="M23.91 108.12l8.46-8.09-8.1 8.45-.36-.36z"/><path class="cls-3" d="M99.42 32.97l8.1-8.45.35.35-8.45 8.1z"/><path class="cls-2" d="M29.75 113.25l7.32-9.13-6.93 9.43-.39-.3z"/><path class="cls-1" d="M94.8 28.88l6.92-9.43.4.3-7.32 9.13z"/><path class="cls-4" d="M36.2 117.57l6.07-10.01-5.64 10.26-.43-.25z"/><path class="cls-3" d="M89.68 25.43l5.64-10.26.43.25-6.07 10.01z"/><path class="cls-2" d="M43.16 121.01l4.71-10.72-4.25 10.91-.46-.19z"/><path class="cls-3" d="M84.16 22.68l4.25-10.91.46.19-4.71 10.72z"/><path class="cls-4" d="M50.51 123.51l3.27-11.24-2.79 11.37-.48-.13z"/><path class="cls-1" d="M78.32 20.67L81.11 9.3l.48.13-3.27 11.24z"/><path class="cls-2" d="M58.12 125.03l1.78-11.57-1.28 11.63-.5-.06z"/><path class="cls-3" d="M72.28 19.44l1.28-11.63.49.06-1.77 11.57zM60.39 23.82l.85 8.37-1.34-8.31.49-.06zM54.91 24.89l1.94 8.19-2.42-8.06.48-.13zM49.63 26.67l2.99 7.87-3.46-7.68.47-.19zM44.62 29.13l3.98 7.41-4.42-7.16.44-.25zM39.97 32.22l4.92 6.82-5.32-6.52.4-.3zM35.76 35.88l5.77 6.13-6.12-5.77.35-.36zM32.07 40.07l6.52 5.32-6.82-4.92.3-.4zM28.96 44.7l7.16 4.43-7.41-3.99.25-.44zM26.48 49.7l7.68 3.45-7.87-2.99.19-.46zM24.68 54.98l8.05 2.42-8.18-1.94.13-.48zM23.57 60.45l8.31 1.35-8.37-.85.06-.5zM23.19 66.02l8.42.25-8.42.25v-.5zM23.55 71.59l8.37-.85-8.31 1.34-.06-.49zM24.62 77.06l8.19-1.93-8.06 2.42-.13-.49zM26.4 82.35l7.87-2.99-7.68 3.45-.19-.46zM28.86 87.36l7.41-3.99-7.16 4.43-.25-.44zM31.95 92.01l6.82-4.92-6.52 5.32-.3-.4zM35.61 96.21l6.13-5.77-5.77 6.13-.36-.36zM39.8 99.9l5.32-6.52-4.92 6.83-.4-.31zM44.43 103.02l4.42-7.16-3.98 7.41-.44-.25zM49.43 105.5l3.45-7.68-2.99 7.87-.46-.19zM54.71 107.3l2.42-8.06-1.94 8.19-.48-.13zM60.18 108.41l1.35-8.31-.85 8.37-.5-.06z"/><path class="cls-1" d="M157.27 360l.08-3.48a71.81 71.81 0 011.19-9.75 65.67 65.67 0 0115.6-31 66.74 66.74 0 0118.5-14.29 65.55 65.55 0 0125.06-7.2 65.76 65.76 0 0171 71 65.54 65.54 0 01-7.2 25.06 66.74 66.74 0 01-14.29 18.5 65.66 65.66 0 01-31 15.6 71.81 71.81 0 01-9.75 1.19l-3.48.08 3.47-.11a71.72 71.72 0 009.73-1.28 65.51 65.51 0 0014.42-4.84 67.25 67.25 0 0016.36-10.93 66.3 66.3 0 0014.14-18.43 65 65 0 007.07-24.88 65.43 65.43 0 00-70.39-70.39 65 65 0 00-24.88 7.07A66.3 66.3 0 00174.44 316a67.23 67.23 0 00-10.93 16.36 65.51 65.51 0 00-4.84 14.42 71.71 71.71 0 00-1.28 9.73z" transform="translate(-157.27 -294.05)"/><circle class="cls-3" cx="227.93" cy="397.47" r="1.64" transform="rotate(-7.5 -2093.887 1450.257)"/><circle class="cls-1" cx="232.77" cy="396.5" r="1.64" transform="rotate(-15 -962.652 846.763)"/><circle class="cls-3" cx="237.45" cy="394.91" r="1.64" transform="rotate(-22.5 -580.332 643.234)"/><circle class="cls-3" cx="241.88" cy="392.72" r="1.64" transform="rotate(-30 -385.452 539.178)"/><circle class="cls-1" cx="245.99" cy="389.97" r="1.64" transform="rotate(-37.5 -265.791 474.595)"/><circle class="cls-1" cx="249.7" cy="386.7" r="1.64" transform="rotate(-45 -183.884 429.527)"/><circle class="cls-3" cx="252.96" cy="382.99" r="1.64" transform="rotate(-52.5 -123.82 395.419)"/><circle class="cls-3" cx="255.7" cy="378.87" r="1.64" transform="rotate(-60 -77.592 368.054)"/><circle class="cls-1" cx="257.88" cy="374.44" r="1.64" transform="rotate(-67.5 -40.803 345.101)"/><circle class="cls-3" cx="259.47" cy="369.76" r="1.64" transform="rotate(-75 -10.779 325.212)"/><circle class="cls-3" cx="260.43" cy="364.91" r="1.64" transform="rotate(-82.5 14.128 307.545)"/><circle class="cls-1" cx="103.47" cy="65.92" r="1.64"/><circle class="cls-3" cx="260.42" cy="355.04" r="1.64" transform="rotate(-7.5 -2061.455 1407.794)"/><circle class="cls-1" cx="259.45" cy="350.2" r="1.64" transform="rotate(-15 -936.003 800.468)"/><circle class="cls-3" cx="257.86" cy="345.52" r="1.64" transform="rotate(-22.5 -559.921 593.83)"/><circle class="cls-3" cx="255.67" cy="341.09" r="1.64" transform="rotate(-30 -371.692 487.525)"/><circle class="cls-3" cx="252.92" cy="336.98" r="1.64" transform="rotate(-37.5 -258.845 421.611)"/><circle class="cls-1" cx="249.65" cy="333.27" r="1.64" transform="rotate(-45 -183.938 376.09)"/><circle class="cls-1" cx="245.93" cy="330.01" r="1.64" transform="rotate(-52.5 -130.846 342.443)"/><circle class="cls-3" cx="241.82" cy="327.27" r="1.64" transform="rotate(-60 -91.479 316.446)"/><circle class="cls-3" cx="237.39" cy="325.09" r="1.64" transform="rotate(-67.5 -61.294 295.745)"/><circle class="cls-1" cx="232.7" cy="323.5" r="1.64" transform="rotate(-75 -37.547 278.956)"/><circle class="cls-3" cx="227.86" cy="322.54" r="1.64" transform="rotate(-82.5 -18.43 265.185)"/><path class="cls-3" d="M217.75 402.73a42.47 42.47 0 01-25.06-12.24 42.94 42.94 0 010-60.66 42.49 42.49 0 0124.73-12.2.26.26 0 01.28.22.25.25 0 01-.22.28 42.4 42.4 0 00.33 84.11.25.25 0 01-.06.49z" transform="translate(-157.27 -294.05)"/><path class="cls-3" d="M93.42 66.07H85.7v-.3h7.59l1.9-1.9h.06l3.11-.07v.3l-3.04.07-1.9 1.9zM85.25 68.12h5.9v.3h-5.9zM45.67 66.11h-4.95l-1.69-1.69h-5.17v-.3h5.3l1.68 1.69h4.83v.3zM42 69.49h-2.86v-.3h2.74l1.78-1.78h2.22v.3h-2.1L42 69.49zM66.19 98.03h-.3v-5.58l-1.94-1.94v-4.75h.3v4.62l1.94 1.94v5.71zM68.66 93.42h-.3v-4.83h-2.83v-2.62h.3v2.32h2.83v5.13zM65.58 46.04l-2.92-2.91v-8.14h.3V43l2.83 2.83-.21.21zM67.16 46.08h-.3v-4.51h-2.09v-9.38h.29v9.08h2.1v4.81z"/><path class="cls-1" d="M223 380.18a6.3 6.3 0 114.45-10.75 6.3 6.3 0 01-4.45 10.75zm0-12.3a6 6 0 104.24 1.76 6 6 0 00-4.24-1.76z" transform="translate(-157.27 -294.05)"/><circle class="cls-3" cx="222.96" cy="373.88" r="4.35" transform="rotate(-45 -210.63 416.695)"/><path class="cls-1" d="M236.83 366.31a6.29 6.29 0 114.45-1.84 6.28 6.28 0 01-4.45 1.84zm0-12.29a6 6 0 104.24 1.75 6 6 0 00-4.24-1.77z" transform="translate(-157.27 -294.05)"/><circle class="cls-3" cx="236.83" cy="360.01" r="4.35" transform="rotate(-45 -196.765 402.823)"/><path class="cls-1" d="M209.09 366.31a6.29 6.29 0 114.45-1.84 6.28 6.28 0 01-4.45 1.84zm0-12.29a6 6 0 104.24 1.75 6 6 0 00-4.24-1.77z" transform="translate(-157.27 -294.05)"/><circle class="cls-3" cx="209.09" cy="360.01" r="4.35" transform="rotate(-45 -224.502 402.832)"/><path class="cls-1" d="M223 352.44a6.3 6.3 0 114.45-10.75 6.3 6.3 0 01-4.45 10.75zm0-12.3a6 6 0 104.24 1.76 6 6 0 00-4.24-1.76z" transform="translate(-157.27 -294.05)"/><circle class="cls-3" cx="222.96" cy="346.14" r="4.35" transform="rotate(-45 -210.626 388.964)"/></svg>