<svg preserveAspectRatio="none" id="Layer_1" data-name="Layer 1" xmlns="http://www.w3.org/2000/svg" viewBox="0 0 104.67 111.46"><defs><linearGradient id="linear-gradient" x1="37.59" y1="389.04" x2="142.27" y2="389.04" gradientUnits="userSpaceOnUse"><stop offset=".02" stop-color="#a13246"/><stop offset=".98" stop-color="#dd697d"/></linearGradient><linearGradient id="linear-gradient-2" x1="43.22" y1="392.01" x2="135.12" y2="392.01" gradientUnits="userSpaceOnUse"><stop offset="0" stop-color="#334f7e"/><stop offset=".99" stop-color="#5d85c4"/></linearGradient><style>.cls-1{fill:#2e2855}</style></defs><path class="cls-1" d="M90 441.33a51.34 51.34 0 01-7.23-102.16 52 52 0 017.23-.5 51.34 51.34 0 017.06 102.18 51.91 51.91 0 01-7.06.48zm0-100.67A49.28 49.28 0 0040.67 390 49.39 49.39 0 0090 439.33a50.11 50.11 0 006.79-.46 49.34 49.34 0 00-6.79-98.2z" transform="translate(-37.59 -336.28)"/><path d="M75.5 440.3a52.86 52.86 0 01-6.94-2.53l1.63-3.65a49 49 0 006.41 2.33zm-10.14-4.1a53.11 53.11 0 01-6.26-3.91l2.35-3.24a49.18 49.18 0 005.79 3.62zm55.39-3.91l-2.35-3.24a49 49 0 005.12-4.28l2.77 2.89a53.23 53.23 0 01-5.54 4.63zm-64.46-2.21A53 53 0 0151 425l3-2.68a49 49 0 004.86 4.68zm72.57-5.08l-3-2.68A49.14 49.14 0 00130 417l3.31 2.25a52.86 52.86 0 01-4.45 5.75zm-80.18-2.74a52.86 52.86 0 01-4.13-6.12l3.46-2a48.85 48.85 0 003.81 5.66zm86.6-6.12l-3.46-2a49 49 0 002.93-6l3.7 1.51a53 53 0 01-3.17 6.45zm-92.39-3.16a53 53 0 01-2.77-6.84l3.8-1.24a48.94 48.94 0 002.56 6.33zm96.83-6.84l-3.8-1.24a49 49 0 001.62-6.47l3.94.71a53.06 53.06 0 01-1.76 6.96zm-100.57-3.48a53 53 0 01-1.28-7.27l4-.42a48.89 48.89 0 001.13 6.72zM142 395.39l-4-.42a48.93 48.93 0 00.24-6.66l4-.13a53 53 0 01-.24 7.21zm-104.38-3.56a53.14 53.14 0 01.26-7.38l4 .42a49.1 49.1 0 00-.24 6.82zm100.36-7a49 49 0 00-1.15-6.57l3.88-1a53.12 53.12 0 011.24 7.11zm-95.65-3.26l-3.94-.69a53 53 0 011.79-7.16L44 375a48.94 48.94 0 00-1.67 6.61zm2.78-9.71l-3.71-1.5a52.89 52.89 0 013.24-6.63l3.46 2a48.89 48.89 0 00-2.99 6.17zm4.74-8.86l-3.32-2.24a53.13 53.13 0 014.55-5.82l3 2.68a49.15 49.15 0 00-4.23 5.38zm6.5-7.74l-2.78-2.88a53 53 0 015.66-4.75l2.35 3.24a48.89 48.89 0 00-5.23 4.37zm53.16-9.42a49 49 0 00-6.26-2.29l1.11-3.84a53 53 0 016.78 2.48zm-9.62-3.11a48.94 48.94 0 00-6.6-.94l.29-4a53 53 0 017.14 1z" transform="translate(-37.59 -336.28)" fill="url(#linear-gradient)"/><path d="M101.1 447.74l-5.32-21.89 1.94-.47 5.28 21.88zm5.82-2.15L99.49 425l1.88-.68 7.43 20.63zM94 445.36l-2-19 2-.21 2 19zm-3.84-4h-2v-14.95h2v14.92zm21.09-2.12l-8.15-15.49 1.77-.93 8.13 15.46zm-30.66-4.1l-2-.42 2-9.29 2 .42zM75.92 434l-1.9-.62 2.94-9 1.9.62zm-4.53-1.62l-1.83-.81 3.86-8.68 1.83.81zm14.41-.82l-2-.21.55-5.21 2 .21zm-18.75-1.27l-1.73-1 4.76-8.29 1.73 1zm44.22 0l-4.74-8.29 1.73-1 4.75 8.23zM63 427.72l-1.62-1.18 5.58-7.69 1.59 1.15zm-3.8-2.95l-1.49-1.34 6.29-7.05 1.49 1.34zm60 0l-6.36-7.06 1.49-1.34 6.36 7.06zm-6-.08l-3.42-4.69 1.62-1.18 3.39 4.66zm-57.48-3.25L54.35 420l7.06-6.36 1.34 1.49zm67 0l-7.06-6.36 1.34-1.49 7 6.41zm-70.07-3.67l-1.18-1.62 7.69-5.58 1.18 1.62zm73.17 0l-7.69-5.58 1.18-1.62 7.69 5.58zm2.71-4l-8.3-4.77 1-1.73 8.23 4.75zm-78.59 0l-1-1.73 8.23-4.75 1 1.73zm80.87-4.24l-8.68-3.86.81-1.83 8.68 3.86zm-83.14 0l-.81-1.83 8.68-3.87.81 1.83zm-1.82-4.45l-.62-1.9 9-2.94.62 1.9zm86.78 0l-9-2.94.62-1.9 9 2.94zm1.35-4.62l-9.29-2 .42-2 9.29 2zm-89.48 0l-.42-2 9.29-2 .42 2zm90.33-4.73l-9.45-1 .21-2 9.45 1zm-91.19 0l-.21-2 9.45-1 .21 2zm91.54-4.8h-9.5v-2h9.5v2zm-82.4 0h-9.5v-2h9.5v2zm72.8-3.82l-.21-2 9.45-1 .21 2zm-72.71 0l-9.45-1 .21-2 9.45 1zm72.13-3.75l-.42-2 9.29-2 .42 2zm-71.72 0l-9.29-2 .42-2 9.29 2zm.89-3.71l-9-2.94.62-1.9 9 2.94zm69.95 0l-.62-1.9 9-2.94.62 1.9zm-1.27-3.6l-.81-1.83 4.34-1.93.81 1.83zm-67.41 0l-8.68-3.86.81-1.83 8.68 3.86zm65.75-3.44l-1-1.75 11.27-6.17 1 1.75zm-64.11 0l-8.23-4.75 1-1.73 8.23 4.75zm2-3.26l-7.69-5.59 1.18-1.62 7.69 5.58zm60.16 0l-1.18-1.61 11.71-8.6 1.18 1.61zm-2.34-3l-1.31-1.51 13.89-12.06 1.31 1.51zm-55.5 0L54.35 360l1.34-1.49 7.06 6.36zm52.89-2.77l-1.49-1.34 6.36-7.06 1.49 1.34zm-50.27 0l-6.36-7.06 1.49-1.34 6.36 7.06zm47.36-2.47l-1.6-1.2 7.74-10.31 1.6 1.2zm-44.46 0l-3.39-4.66 1.62-1.18 3.39 4.66zm41.31-2.15l-1.71-1 2.94-4.88 1.71 1zm-38.17 0l-4.75-8.23 1.73-1 4.75 8.23zm34.83-1.83l-1.83-.81 3.86-8.68 1.83.81zm-31.48 0l-5.77-13.49 1.84-.79 5.77 13.49zm3.59-1.51L71.3 339l1.89-.64L78.85 355zm24.42 0l-1.9-.62 2.94-9 1.9.62zm-20.77-1.07l-3.72-15.65 1.95-.46 3.69 15.64zm17.11 0l-2-.42 2-9.29 2 .42zm-3.75-.7l-2-.21 1-9.45 2 .21zm-9.61 0l-1-17.38 2-.11 1 17.38zm5.81-.26h-2V347h2v6.53z" transform="translate(-37.59 -336.28)" fill="url(#linear-gradient-2)"/><path class="cls-1" d="M90 422.33A32.33 32.33 0 11122.33 390 32.37 32.37 0 0190 422.33zm0-56.67A24.33 24.33 0 10114.33 390 24.36 24.36 0 0090 365.67z" transform="translate(-37.59 -336.28)"/><path d="M82.32 419.35a30.32 30.32 0 01-11.29-53l2.5 3.12a26.35 26.35 0 009.8 46z" transform="translate(-37.59 -336.28)" fill="#3ee497"/><path d="M111.33 414.29l-5.28-6a24.31 24.31 0 006.83-26.58l7.52-2.74a32.31 32.31 0 01-9.07 35.32z" transform="translate(-37.59 -336.28)" fill="#e9aa4f"/><path d="M100.79 367.08A25 25 0 0090 364.67v-6a31 31 0 0113.35 3z" transform="translate(-37.59 -336.28)" fill="#d13954"/></svg>