<svg preserveAspectRatio="none" id="Layer_1" data-name="Layer 1" xmlns="http://www.w3.org/2000/svg" viewBox="0 0 117.37 120.21"><defs><style>.cls-1{fill:#12aac2}.cls-2{fill:#ff8a29}.cls-4{fill:#0e8092}</style></defs><path class="cls-1" d="M378.5 271.15v6.64A47.81 47.81 0 00411.88 264l-4.72-4.72a41.2 41.2 0 01-28.66 11.87zm7.83 4.63a1.68 1.68 0 111.36-1.94 1.68 1.68 0 01-1.36 1.94zm7.86-2.1a1.68 1.68 0 111-2.15 1.68 1.68 0 01-1 2.15zm7.37-3.43a1.68 1.68 0 11.61-2.29 1.68 1.68 0 01-.61 2.28zM407.52 259l4.72 4.72a47.82 47.82 0 0014-33.61h-6.66A41.2 41.2 0 01407.52 259zM336.88 229.9h-6.61a47.8 47.8 0 0013.26 33h9.95a41.31 41.31 0 01-16.6-33zM419.56 229.57h6.66a48 48 0 00-47-47.7V188.51a41.38 41.38 0 0140.34 41.06zm4.65-7.83a1.68 1.68 0 11-1.94-1.36 1.68 1.68 0 011.94 1.36zm-4.21-8.87a1.68 1.68 0 11-1 2.15 1.68 1.68 0 011-2.15zm-3.58-7a1.68 1.68 0 11-.61 2.29 1.68 1.68 0 01.57-2.27zm-4.73-6.26a1.68 1.68 0 11-.21 2.36 1.68 1.68 0 01.17-2.34zm-23.91-13.82a1.68 1.68 0 11-1.36-1.94 1.68 1.68 0 011.32 1.96zm7.5 2.32a1.68 1.68 0 11-1-2.15 1.68 1.68 0 01.96 2.16zm7 3.58a1.68 1.68 0 11-.62-2.29 1.68 1.68 0 01.56 2.31zm3.89 4.95a1.68 1.68 0 112.37-.21 1.68 1.68 0 01-2.43.22zM344 263.41a47.82 47.82 0 0034 14.37v-6.64a41.1 41.1 0 01-23.82-7.74H344zm24.75 10.41a1.68 1.68 0 111.36 1.95 1.68 1.68 0 01-1.35-1.95zm-7.5-2.32a1.68 1.68 0 111 2.15 1.68 1.68 0 01-.99-2.14zm-4.69-4.2a1.68 1.68 0 11-2.29.61 1.68 1.68 0 012.31-.6z" transform="translate(-320.7 -169.43)"/><path class="cls-2" d="M378 213.33a16.43 16.43 0 00-11.24 4.67l9.7 9.7a2.76 2.76 0 011.54-.7v-13.67z" transform="translate(-320.7 -169.43)"/><circle class="cls-2" cx="60.26" cy="50.82" r=".91"/><path class="cls-2" d="M366.41 218.32a16.43 16.43 0 00-4.67 11.24h13.72a2.76 2.76 0 01.64-1.54zM381 229.81a2.75 2.75 0 01-.08.65l4.86-4.86-4.13-4.13a1.4 1.4 0 01-.69.19 1.41 1.41 0 111.41-1.41 1.4 1.4 0 01-.33.9l4.3 4.3H390a.25.25 0 01.25.25v15.4a16.47 16.47 0 00-11.74-27.77V227a2.78 2.78 0 012.49 2.81zM372.68 239.31a.25.25 0 01-.18-.43l6.37-6.37a2.75 2.75 0 01-3.41-2.46h-13.72a16.48 16.48 0 0027.86 11.69l-9.6-9.62-7.11 7.11a.25.25 0 01-.21.08z" transform="translate(-320.7 -169.43)"/><path class="cls-2" d="M65.45 56.52l-5.82 5.82 9.4 9.41V56.52h-3.58z"/><circle class="cls-2" cx="406.77" cy="279.21" r="2.54" transform="rotate(-30 -69.783 792.922)"/><circle class="cls-2" cx="420.53" cy="214.45" r="1.68" transform="rotate(-20 -221.664 1045.265)"/><circle class="cls-2" cx="417.22" cy="207.34" r="1.68" transform="rotate(-30 -59.31 721.068)"/><circle class="cls-2" cx="400.77" cy="190.87" r="1.68" transform="rotate(-60 93.69 383.886)"/><circle class="cls-2" cx="393.66" cy="187.55" r="1.68" transform="rotate(-70 112.316 331.845)"/><path class="cls-2" d="M401 206.26a1.67 1.67 0 00-2.34 2.34 1.65 1.65 0 00.35.36 1.68 1.68 0 002.59-1.96 1.87 1.87 0 00-.6-.74zM354.4 253.18a1.15 1.15 0 00.12-1 1.17 1.17 0 00-1.5-.7 1.1 1.1 0 00-.2.12 1.18 1.18 0 00-.51 1.39 1.1 1.1 0 001.74.56 1.15 1.15 0 00.35-.37zM357.94 256.72a1.15 1.15 0 00.12-1 1.17 1.17 0 00-1.5-.7 1.21 1.21 0 00-.2.12 1.18 1.18 0 00-.51 1.39 1.18 1.18 0 002.09.19z" transform="translate(-320.7 -169.43)"/><path d="M336.86 228.9a41.39 41.39 0 0141.34-41.34v-.69a32.19 32.19 0 00-4.57.33l-.74-5.1a37.57 37.57 0 015.32-.38v-.79a48 48 0 00-48 48h6.61zm0-7.28a32.18 32.18 0 00-.47 4.55l-5.15-.16a37.54 37.54 0 01.54-5.31l5.08.89zm1.89-7.08a32.35 32.35 0 00-1.25 4.4l-5-1.05a37.47 37.47 0 011.46-5.13l4.84 1.76zm3.09-6.64a32.24 32.24 0 00-2 4.12l-4.84-1.91a37.54 37.54 0 012.33-4.8l4.46 2.58zm4.2-6a32.18 32.18 0 00-2.68 3.71l-4.36-2.72a37.58 37.58 0 013.13-4.32l3.95 3.31zm5.19-5.2a32.2 32.2 0 00-3.29 3.19l-3.84-3.43a37.62 37.62 0 013.83-3.71zM370 182.43l.9 5.07a32.24 32.24 0 00-4.44 1.12l-1.61-4.89a37.57 37.57 0 015.15-1.3zm-6.18 7a32.27 32.27 0 00-4.18 1.87l-2.43-4.54a37.59 37.59 0 014.87-2.18zm-6.64 3.1a32.31 32.31 0 00-3.79 2.57l-3.19-4a37.63 37.63 0 014.42-3z" transform="translate(-320.7 -169.43)" fill="#095561"/><path class="cls-4" d="M435.29 227a2.78 2.78 0 00-2.76 2.54h-.93v-1.25c0-1.47-.08-2.95-.2-4.41a1.17 1.17 0 001-1.15 1.19 1.19 0 10-2.37 0 1.17 1.17 0 00.87 1.12c.12 1.48.2 3 .2 4.44v1.25h-1.87a51 51 0 00-50.72-50.72V175a2.78 2.78 0 10-3-2.76v.09A57.59 57.59 0 00345.4 277.1a1.16 1.16 0 00-.13.52 1.19 1.19 0 101.19-1.19 1.17 1.17 0 00-.74.28 57.09 57.09 0 0129.81-103.91A2.79 2.79 0 00378 175v3.86a51 51 0 000 101.94v1.87h-1.25a54.06 54.06 0 01-29.23-8.52 1.17 1.17 0 00.12-.5 1.19 1.19 0 10-1.19 1.19 1.17 1.17 0 00.76-.29 54.56 54.56 0 0029.54 8.62H378v.93a2.78 2.78 0 10.5 0v-.94a54.69 54.69 0 0036.74-15.76l1.11 1.11a2.75 2.75 0 10.33-.38L415.6 267a54.7 54.7 0 0016-37h.94a2.78 2.78 0 102.75-3zm-54.74 59.83a2.29 2.29 0 11-2.29-2.29 2.29 2.29 0 012.28 2.31zM417 268.52a2.29 2.29 0 113.24 3.24 2.34 2.34 0 01-3.24 0 2.29 2.29 0 010-3.24zm9.25-39h-6.66a41.38 41.38 0 00-40.39-41.02V181.86a48 48 0 0147.02 47.71zm-24.86-22.95l5.34-5.34a40.22 40.22 0 0111.85 28.29H412v-.1l-16.72-16.72L399 209a1.65 1.65 0 01-.35-.36l-3.79 3.79-16.26-16.32h-.1v-6.63a40.2 40.2 0 0127.85 11.45l-5.35 5.33a1.66 1.66 0 01.37.36zm-56.21 32.12v-8l10.47 10.47h-8a2.77 2.77 0 00-2.5-2.43zm-.5 5a2.28 2.28 0 010-4.53v4.53zm.5-4.53a2.28 2.28 0 010 4.53v-4.53zm66.8-9.06v-.1h2.42v9L401 252.43l-5.65-5.65zm-51.87 14.12a23.12 23.12 0 01-5.11-14.16h3.55a19.72 19.72 0 0033.37 14l2.35 2.35-1.35 1.35a23.17 23.17 0 01-29.18.18zm34.56 1.79l-2.34-2.34a19.71 19.71 0 00-.1-27.95l2.33-2.33 1.71 1.71a23.18 23.18 0 010 29.36zm-30.83-34.46a23.11 23.11 0 0114.2-5v3.48a19.68 19.68 0 00-13.51 5.63l-2.39-2.39zm22.34 14.33h3.59v15.23l-9.41-9.41zm-7.92 6.15a2.29 2.29 0 112.29-2.29 2.29 2.29 0 01-2.32 2.36zm-.26-18.7V227a2.76 2.76 0 00-1.54.62l-9.7-9.7-2.09-2.09a19.43 19.43 0 0113.33-5.51v3zm-11.59 5l9.7 9.7a2.76 2.76 0 00-.64 1.54H358.8a19.43 19.43 0 015.52-13.33zm-4.67 11.74h13.72a2.75 2.75 0 003.41 2.46l-6.37 6.37a.25.25 0 10.35.35l7.11-7.11 9.63 9.63 2.15 2.15a19.47 19.47 0 01-32.95-13.84h2.93zm28.5 11.62v-16a.25.25 0 00-.25-.25h-3.65l-4.3-4.3a1.4 1.4 0 00.33-.9 1.41 1.41 0 10-1.41 1.41 1.4 1.4 0 00.69-.19l4.13 4.13-4.86 4.86a2.75 2.75 0 00.08-.65 2.78 2.78 0 00-2.5-2.8v-16.69a19.49 19.49 0 0113.62 33.25zM381 221.16a.91.91 0 11.91-.91.91.91 0 01-.91.91zm13.22-8.06l-2.35 2.35a19.66 19.66 0 00-13.33-5.39v-3.48a23.11 23.11 0 0114.38 5.21zM378 195.64h-21.18a40.08 40.08 0 0121.18-6.16v6.16zm0 1.78v8.66a23.58 23.58 0 00-12.15 3.48zm-16.25 16.25l2.39 2.39a19.68 19.68 0 00-5.59 13.5H355a23.11 23.11 0 015-14.17zm36.6 28.68a23.66 23.66 0 000-25.05l12.51 12.51zm-19.85-36.26v-8.66l12.23 12.23a23.58 23.58 0 00-12.23-3.57zm-22.5-9.95h21.82l-16.42 16.47-11.49-11.49a40.6 40.6 0 016.09-4.98zm-1.54 33.42h-8.64L358 217.44a23.59 23.59 0 00-3.5 12.12zm-8.65.5h8.65a23.59 23.59 0 003.54 12.16zm32.38 23.48a23.58 23.58 0 0012.54-3.6l-12.52 12.52L365.82 250a23.58 23.58 0 0012.41 3.54zm16.76-6.4l5.83 5.83 5.64 5.64a40.2 40.2 0 01-28 11.55v-6.63h.1zm6.36 5.65l13.45-13.45a.25.25 0 00.07-.18v-9.09h3.69a40.2 40.2 0 01-11.75 28.19zm-23.12-71.07v5.85a41.39 41.39 0 00-41.34 41.34h-6.61a48 48 0 0148-48v.79zm-28.67 19.76L361 213l-16.5 16.5v.71l.1.1v8.46a2.78 2.78 0 00.13 5.54l7.66 7.67a1.15 1.15 0 01.36-.34l-7.37-7.37a2.78 2.78 0 002.21-2.48h8.46l21.17 21.17h-13.45l.18-.18-6-6a1.16 1.16 0 01-.35.36l5.84 5.84h-8.24a40.28 40.28 0 01-5.65-61.51zm28.24 61.95l.1.1h.14v6.63a40.1 40.1 0 01-22.07-6.74h21.87zm.71 7.74a41.2 41.2 0 0028.66-11.84l4.72 4.72a47.81 47.81 0 01-33.38 13.76v-6.64zm29-12.19a41.2 41.2 0 0012-28.89h6.66a47.82 47.82 0 01-14 33.61zM376 172.22a2.29 2.29 0 112.29 2.29 2.29 2.29 0 01-2.29-2.29zm-45.73 57.68h6.61a41.31 41.31 0 0016.6 33h-9.95a47.8 47.8 0 01-13.26-33zM344 263.41h10.17a41.1 41.1 0 0023.83 7.74v6.64a47.82 47.82 0 01-34-14.38zm34.49 19.23v-1.86A50.8 50.8 0 00414 266.13l.9.9a54.19 54.19 0 01-36.4 15.62zm36.74-16l-.9-.9a50.81 50.81 0 0014.88-35.72h1.86a54.2 54.2 0 01-15.83 36.66zm20-34.59a2.29 2.29 0 112.29-2.29 2.29 2.29 0 01-2.23 2.34z" transform="translate(-320.7 -169.43)"/><path class="cls-4" d="M434.07 241.88a2.79 2.79 0 102 3.41 2.79 2.79 0 00-2-3.41zm1.49 3.29a2.29 2.29 0 01-2.21 1.7 2.32 2.32 0 01-.59-.08 2.29 2.29 0 01.59-4.5 2.32 2.32 0 01.59.08 2.29 2.29 0 011.62 2.79zM429 255.91a2.79 2.79 0 101.3 1.69 2.79 2.79 0 00-1.3-1.69zm.59 3.56a2.29 2.29 0 01-3.13.84 2.29 2.29 0 113.17-.84zM393 282.12a2.79 2.79 0 102.69 2.07 2.78 2.78 0 00-2.69-2.07zm.59 5a2.29 2.29 0 111.62-2.8 2.31 2.31 0 01-1.6 2.8zM364.21 282.22a2.79 2.79 0 102 3.41 2.79 2.79 0 00-2-3.41zm1.49 3.29a2.29 2.29 0 11-2.21-2.88 2.32 2.32 0 01.59.08 2.29 2.29 0 011.62 2.79zM356.35 255.13l-2-2a1.15 1.15 0 01-.35.36l1.94 1.94a1.15 1.15 0 01.41-.3zM383.95 173.94a1.18 1.18 0 001.11-.8 57.29 57.29 0 0149.75 48.53 1.18 1.18 0 10.49-.11 57.79 57.79 0 00-50.18-48.92 1.18 1.18 0 10-1.17 1.3z" transform="translate(-320.7 -169.43)"/><path d="M372.91 182.09l.74 5.1a32.19 32.19 0 014.57-.33v-5.15a37.57 37.57 0 00-5.31.38z" transform="translate(-320.7 -169.43)" fill="#ffc69d"/><path d="M366.47 188.62a32.24 32.24 0 014.44-1.12l-.9-5.07a37.57 37.57 0 00-5.17 1.3z" transform="translate(-320.7 -169.43)" fill="#ffb884"/><path d="M357.22 186.74l2.43 4.54a32.27 32.27 0 014.18-1.87l-1.76-4.84a37.59 37.59 0 00-4.85 2.17z" transform="translate(-320.7 -169.43)" fill="#ffa665"/><path d="M350.21 191l3.19 4a32.31 32.31 0 013.79-2.57l-2.56-4.43a37.63 37.63 0 00-4.42 3z" transform="translate(-320.7 -169.43)" fill="#ff903e"/><path class="cls-2" d="M344.06 196.47l3.84 3.43a32.2 32.2 0 013.29-3.19l-3.31-3.95a37.62 37.62 0 00-3.82 3.71z" transform="translate(-320.7 -169.43)"/><path d="M339 202.89l4.38 2.71a32.18 32.18 0 012.68-3.71l-3.95-3.31a37.58 37.58 0 00-3.11 4.31z" transform="translate(-320.7 -169.43)" fill="#bf681f"/><path d="M335 210.11l4.78 1.91a32.24 32.24 0 012-4.12l-4.46-2.58a37.54 37.54 0 00-2.32 4.79z" transform="translate(-320.7 -169.43)" fill="#8d4b16"/><path d="M332.42 217.89l5 1.05a32.35 32.35 0 011.25-4.4l-4.84-1.76a37.47 37.47 0 00-1.41 5.11z" transform="translate(-320.7 -169.43)" fill="#693810"/><path d="M331.21 226l5.15.16a32.18 32.18 0 01.47-4.55l-5.08-.89a37.54 37.54 0 00-.54 5.28z" transform="translate(-320.7 -169.43)" fill="#40220a"/></svg>