<svg preserveAspectRatio="none" id="Layer_1" data-name="Layer 1" xmlns="http://www.w3.org/2000/svg" viewBox="0 0 1242.12 1244.05"><defs><style>.cls-1{fill:#20ffff;}.cls-2{opacity:0.5;}</style></defs><title>circle87</title><path class="cls-1" d="M4505.27,2810a560.11,560.11,0,0,0,53.63-82.38q11.56-21.72,21.18-44.39t17.07-46.13a554.78,554.78,0,0,0-123.26-549.44,46.81,46.81,0,0,0-10-8.26,43,43,0,0,0-5.2-2.75,34.45,34.45,0,0,0-5.16-1.71c-6.73-1.64-12.68-.63-16.41,3.31s-4.5,9.92-2.95,16.38a33.39,33.39,0,0,0,1.62,4.91,40,40,0,0,0,2.4,5,54.34,54.34,0,0,0,7.21,9.75A517.26,517.26,0,0,1,4560,2625.15q-7,21.76-15.86,42.86t-19.69,41.26a515.63,515.63,0,0,1-355.09,264.42c-3.75.7-7.48,1.47-11.23,2.12l-11.28,1.87-11.33,1.58c-3.78.51-7.58,0.88-11.36,1.34q-22.75,2.43-45.69,2.9c-15.28.35-30.57-.06-45.8-1.1s-30.4-2.73-45.47-5.08a512.44,512.44,0,0,1-88.59-22.16q-21.59-7.5-42.48-16.87t-40.79-20.65a54.38,54.38,0,0,0-11.18-4.69,39.91,39.91,0,0,0-5.46-1.13,33.71,33.71,0,0,0-5.15-.41c-6.64,0-12.3,2.25-15.21,6.75h0c-2.94,4.55-2.51,10.57.67,16.72a34.11,34.11,0,0,0,2.89,4.61,43,43,0,0,0,3.9,4.4,46.71,46.71,0,0,0,10.4,7.78q21.44,12.06,43.89,22.21t45.71,18.16a551.48,551.48,0,0,0,95.34,23.84q13.17,2.06,26.43,3.48l-3,27.25a578.77,578.77,0,0,1-248-86.66q-19.43-12.34-37.89-26.12T3683,2904.78c-2.85-2.56-5.77-5.05-8.57-7.68l-8.42-7.84-8.24-8c-1.38-1.33-2.73-2.69-4.07-4.07l-4-4.12c-10.67-11-21-22.42-30.75-34.24a579.93,579.93,0,0,1-132.81-336.94,69.3,69.3,0,0,0-2.17-13.48,49.3,49.3,0,0,0-2-5.88,40.68,40.68,0,0,0-2.46-5.14c-3.61-6.29-8.54-10.28-13.93-10.29h0c-5.39,0-10.22,4-13.67,10.76a39.55,39.55,0,0,0-2.3,5.5,52.07,52.07,0,0,0-1.56,6.33,57.83,57.83,0,0,0-.85,14.48,619,619,0,0,0,141.72,359.56c10.44,12.61,21.41,24.76,32.79,36.52l4.29,4.39q2.13,2.21,4.34,4.34l8.79,8.57,9,8.36c3,2.8,6.1,5.46,9.14,8.19q18.44,16.2,38.07,31t40.43,27.86a618.86,618.86,0,0,0,179.83,77.31l11.94,2.91,12,2.62c4,0.91,8,1.6,12,2.4l6,1.15,6.06,1c4,0.65,8.07,1.39,12.13,1.95l12.16,1.7c8.13,1,16.25,2,24.41,2.62,8.15,0.8,16.32,1.23,24.48,1.73l12.26,0.47,3.06,0.11,3.07,0,6.13,0.08c16.34,0.17,32.7-.22,49-1.38a624.15,624.15,0,0,0,97.1-14.24q23.94-5.55,47.42-12.87c15.64-4.89,31-10.5,46.25-16.61,3.78-1.57,7.6-3,11.35-4.7l11.26-4.93c7.43-3.44,14.87-6.87,22.17-10.58,14.64-7.35,29-15.18,43-23.67s27.69-17.49,41-27,26.21-19.62,38.74-30.15a628.3,628.3,0,0,0,69.85-68.87q16-18.59,30.62-38.37t27.54-40.65a60.37,60.37,0,0,0,3.6-6.57,62.58,62.58,0,0,0,2.57-6.58,52.22,52.22,0,0,0,1.64-6.32,38.67,38.67,0,0,0,.61-5.94c0.17-7.56-2.12-13.42-6.89-16s-11-1.39-17.15,2.42a42,42,0,0,0-4.62,3.35,49.34,49.34,0,0,0-4.58,4.21,56.54,56.54,0,0,0-4.31,5.05c-1.38,1.82-2.77,3.72-4,5.76A583.22,583.22,0,0,1,4432,2922.51l-17.09-21.37A563.61,563.61,0,0,0,4505.27,2810Z" transform="translate(-3447.02 -1845.03)"/><path class="cls-1" d="M4689,2430.15a622.28,622.28,0,0,0-468.24-566.2l-11.94-2.91-12-2.62c-4-.91-8-1.61-12-2.4l-6-1.15c-2-.37-4-0.68-6.06-1-4-.65-8.07-1.39-12.13-2l-12.16-1.7c-4.06-.52-8.13-1-12.19-1.43s-8.14-.84-12.22-1.2c-8.15-.8-16.32-1.24-24.48-1.74l-12.26-.47-3.06-.11-3.06,0-6.13-.08-6.13-.07c-2,0-4.09,0-6.13.05-4.09.07-8.17,0.07-12.26,0.2l-12.26.47c-4.09.16-8.17,0.48-12.25,0.72a623.76,623.76,0,0,0-97.11,14.22q-23.94,5.54-47.43,12.86c-15.64,4.89-31,10.49-46.25,16.6a620.76,620.76,0,0,0-167.59,101,621.74,621.74,0,0,0-128,147.85,61.41,61.41,0,0,0-3.6,6.57,62.55,62.55,0,0,0-2.57,6.58,52.17,52.17,0,0,0-1.64,6.32,38.06,38.06,0,0,0-.61,5.94c-0.17,7.56,2.12,13.42,6.89,16h0c4.72,2.55,11,1.39,17.15-2.42a42.73,42.73,0,0,0,4.62-3.34,49.34,49.34,0,0,0,4.58-4.21,56.56,56.56,0,0,0,4.31-5.05c1.39-1.81,2.77-3.71,4-5.76a577.53,577.53,0,0,1,73.73-95.1l19.82,18.92c-7.78,8.21-15.42,16.57-22.68,25.25-3.86,4.47-7.52,9.1-11.23,13.69-1.88,2.28-3.61,4.67-5.43,7s-3.64,4.65-5.35,7.06a555,555,0,0,0-91.23,190.47,569.48,569.48,0,0,0-13.39,69.5,562.69,562.69,0,0,0,.1,142.11l1.24,8.86,0.62,4.43,0.73,4.41,1.46,8.83,1.68,8.79c1.05,5.87,2.44,11.68,3.68,17.52,0.65,2.91,1.4,5.8,2.09,8.7s1.38,5.81,2.19,8.68a547.46,547.46,0,0,0,22.66,67.86c4.44,11.08,9.41,21.94,14.55,32.7,2.67,5.34,5.25,10.72,8.1,16,1.41,2.63,2.75,5.29,4.21,7.9l4.37,7.81c4.55,8,10.69,14,16.87,17.11a21.68,21.68,0,0,0,9,2.61,13.11,13.11,0,0,0,7.78-2,13.38,13.38,0,0,0,5-6.21,23.44,23.44,0,0,0,1.67-9,45.5,45.5,0,0,0-6.33-21.76l-4.06-7.26c-1.35-2.42-2.6-4.9-3.91-7.34-2.65-4.88-5-9.88-7.53-14.84-4.78-10-9.4-20.09-13.52-30.39a508.43,508.43,0,0,1-21.05-63.06c-0.76-2.67-1.37-5.37-2-8.06s-1.35-5.38-1.95-8.09c-1.14-5.43-2.44-10.82-3.41-16.28l-1.56-8.17-1.36-8.21-0.68-4.1-0.58-4.12-1.16-8.24a523.66,523.66,0,0,1-.1-132.22,530.45,530.45,0,0,1,12.45-64.6,516,516,0,0,1,84.81-177c1.59-2.24,3.32-4.37,5-6.56s3.3-4.39,5-6.51c3.45-4.27,6.85-8.58,10.45-12.74,7-8.43,14.47-16.53,22-24.49a518.49,518.49,0,0,1,48.54-44.51c8.5-7,17.34-13.48,26.26-19.88,4.52-3.11,9-6.31,13.61-9.27,2.3-1.5,4.57-3,6.89-4.5l7-4.36c2.31-1.48,4.69-2.85,7-4.25s4.71-2.82,7.1-4.17c4.81-2.65,9.54-5.43,14.43-7.92,9.65-5.22,19.58-9.91,29.53-14.53l7.54-3.29,3.77-1.65,3.81-1.55,7.61-3.11,7.69-2.92,3.84-1.46,3.88-1.37,7.76-2.74c2.6-.88,5.21-1.7,7.82-2.55s5.21-1.72,7.85-2.47a507.94,507.94,0,0,1,64-15.07l8.12-1.34,8.15-1.14,4.08-.57c1.36-.18,2.73-0.32,4.09-0.48l8.18-.94c2.73-.3,5.47-0.5,8.2-0.76s5.46-.54,8.21-0.68c5.48-.32,11-0.76,16.46-0.9a515.32,515.32,0,0,1,65.89,1.48l8.21,0.73,8.18,0.94c5.46,0.55,10.88,1.44,16.32,2.16,2.72,0.38,5.42.88,8.12,1.31s5.42,0.84,8.11,1.4c5.38,1,10.79,2,16.13,3.24,10.74,2.24,21.35,5,31.93,7.95l7.88,2.35,3.94,1.17,3.91,1.27,7.82,2.54,7.76,2.73a511.74,511.74,0,0,1,60.44,25.94,45.31,45.31,0,0,0,22,5.31c6.67-.37,12.16-2.71,14.9-7.37h0c2.72-4.64,2.11-10.75-1.37-16.69a36.48,36.48,0,0,0-7.16-8.73,50,50,0,0,0-10.72-7.33,550.79,550.79,0,0,0-65-27.91l-8.35-2.93-8.42-2.73-4.21-1.37-4.24-1.26-8.49-2.53c-11.38-3.13-22.8-6.14-34.36-8.55-5.75-1.32-11.57-2.36-17.36-3.48-2.89-.59-5.82-1-8.72-1.5s-5.82-1-8.74-1.41c-5.85-.78-11.68-1.73-17.56-2.32l-8.8-1-8.82-.78a548.69,548.69,0,0,0-62.08-1.87l-0.68-27.39a586.47,586.47,0,0,1,157.87,17.49,580,580,0,0,1,168.47,72.48A581.64,581.64,0,0,1,4650,2432.43a69.16,69.16,0,0,0,2.17,13.48,49.33,49.33,0,0,0,2,5.88,39.91,39.91,0,0,0,2.45,5.14c3.61,6.29,8.54,10.29,13.93,10.29s10.23-4,13.67-10.76a40.19,40.19,0,0,0,2.31-5.5,52,52,0,0,0,1.56-6.33A57.93,57.93,0,0,0,4689,2430.15Z" transform="translate(-3447.02 -1845.03)"/><g class="cls-2"><path class="cls-1" d="M3989.42,2893.85a444.54,444.54,0,0,0,78.67,7.25,432.68,432.68,0,0,1-84.33,32.55,473.46,473.46,0,0,1-83.2-22.92A423.09,423.09,0,0,0,3989.42,2893.85Z" transform="translate(-3447.02 -1845.03)"/><path class="cls-1" d="M3855.78,2845.59a433.36,433.36,0,0,0,72.07,32.21,423,423,0,0,1-90.37,3.6,476.18,476.18,0,0,1-71.27-48.63A425.62,425.62,0,0,0,3855.78,2845.59Z" transform="translate(-3447.02 -1845.03)"/><path class="cls-1" d="M3744.86,2756.65a437.86,437.86,0,0,0,57.87,53.77,427.25,427.25,0,0,1-86.73-25.74,468.17,468.17,0,0,1-51.75-69l9.93,6.2,4.92,3c1.65,1,3.23,2,5,2.94q10.16,5.63,20.07,10.9,10.28,5,20.31,9.6c1.64,0.79,3.41,1.47,5.12,2.19l5.14,2.1Z" transform="translate(-3447.02 -1845.03)"/><path class="cls-1" d="M3668.49,2636.74a429.72,429.72,0,0,0,37.46,69.52,416,416,0,0,1-73.77-52.34,472.63,472.63,0,0,1-26.55-82.12A422.49,422.49,0,0,0,3668.49,2636.74Z" transform="translate(-3447.02 -1845.03)"/><path class="cls-1" d="M3635.32,2498.55a436.27,436.27,0,0,0,12.66,77.94,426,426,0,0,1-52.61-73.48,488.18,488.18,0,0,1,1.19-86.23A435.41,435.41,0,0,0,3635.32,2498.55Z" transform="translate(-3447.02 -1845.03)"/><path class="cls-1" d="M3648.19,2356.95a436.33,436.33,0,0,0-12.81,77.92,425.76,425.76,0,0,1-26.49-86.54,472.77,472.77,0,0,1,29.22-81.22l0.23,11.68,0.15,5.76c0,1.91.24,3.87,0.36,5.79l0.88,11.46,0.47,5.65,0.24,2.81c0.1,0.94.24,1.89,0.35,2.83,1,7.55,2,14.95,3.1,22.21Q3646,2346.35,3648.19,2356.95Z" transform="translate(-3447.02 -1845.03)"/><path class="cls-1" d="M3706.35,2227.27a425.53,425.53,0,0,0-37.55,69.47q-0.61-10.81-1.06-22,0-11,.2-22.43c0-1.92.14-3.78,0.25-5.66l0.36-5.66,0.81-11.47c0.23-3.89.74-7.65,1.2-11.5l1.47-11.59a477.61,477.61,0,0,1,53.85-67.39A427,427,0,0,0,3706.35,2227.27Z" transform="translate(-3447.02 -1845.03)"/><path class="cls-1" d="M3803.31,2123.28a437.87,437.87,0,0,0-58,53.66,427.41,427.41,0,0,1,32.17-84.49,476,476,0,0,1,72.66-46.51A425.38,425.38,0,0,0,3803.31,2123.28Z" transform="translate(-3447.02 -1845.03)"/><path class="cls-1" d="M3928.54,2056.11a433.27,433.27,0,0,0-72.13,32.08,423.19,423.19,0,0,1,57.7-69.61,475.74,475.74,0,0,1,83.83-20.5A424.54,424.54,0,0,0,3928.54,2056.11Z" transform="translate(-3447.02 -1845.03)"/><path class="cls-1" d="M4068.81,2033.07a444.5,444.5,0,0,0-78.68,7.1,428.62,428.62,0,0,1,77.15-47.27,484.69,484.69,0,0,1,85.91,7.75A429,429,0,0,0,4068.81,2033.07Z" transform="translate(-3447.02 -1845.03)"/><path class="cls-1" d="M4209,2056.58a435.55,435.55,0,0,0-76.68-18.76,424.78,424.78,0,0,1,88.21-19.75,473.44,473.44,0,0,1,78.84,35.07A423.12,423.12,0,0,0,4209,2056.58Z" transform="translate(-3447.02 -1845.03)"/><path class="cls-1" d="M4334,2124.19a435.8,435.8,0,0,0-66.51-42.57,425.33,425.33,0,0,1,89.89,9.86,478,478,0,0,1,63.3,58.61A427.26,427.26,0,0,0,4334,2124.19Z" transform="translate(-3447.02 -1845.03)"/><path class="cls-1" d="M4430.61,2228.51a437.43,437.43,0,0,0-49.31-61.7,426.89,426.89,0,0,1,82,38.24,465.68,465.68,0,0,1,41,75.92q-9-7.69-17.79-15-9.23-7.07-18.3-13.72c-1.48-1.13-3.08-2.17-4.65-3.23l-4.7-3.14-9.32-6.13c-3-2-6.3-3.9-9.47-5.77Z" transform="translate(-3447.02 -1845.03)"/><path class="cls-1" d="M4488.38,2358.36a432.59,432.59,0,0,0-26.73-74.29l8.59,6.82,4.33,3.49c1.46,1.17,2.77,2.4,4.17,3.62l8.32,7.43,4.19,3.79,2.1,1.92c0.69,0.65,1.33,1.31,2,2,5.31,5.28,10.7,10.69,16.09,16.26q7.64,8.49,15.39,17.43a476.49,476.49,0,0,1,14,85.14A426,426,0,0,0,4488.38,2358.36Z" transform="translate(-3447.02 -1845.03)"/><path class="cls-1" d="M4500.73,2500a448.06,448.06,0,0,0-1.08-79,435.65,435.65,0,0,1,41.26,80.42,476.44,476.44,0,0,1-13.85,85.17A425.79,425.79,0,0,0,4500.73,2500Z" transform="translate(-3447.02 -1845.03)"/><path class="cls-1" d="M4467.07,2638.07a432.45,432.45,0,0,0,24.27-75.12,422.26,422.26,0,0,1,13.3,89.5,469.88,469.88,0,0,1-40.93,76A416,416,0,0,0,4467.07,2638.07Z" transform="translate(-3447.02 -1845.03)"/><path class="cls-1" d="M4390.35,2757.75a428,428,0,0,0,47.38-63.21l-1,10.9-0.56,5.52c-0.21,1.84-.34,3.73-0.64,5.53q-1.61,10.91-3.46,22.2-2.24,11-4.77,22.33c-0.39,1.91-.92,3.72-1.41,5.58l-1.51,5.58-3.13,11.28a478,478,0,0,1-63.19,58.72A427.42,427.42,0,0,0,4390.35,2757.75Z" transform="translate(-3447.02 -1845.03)"/><path class="cls-1" d="M4279.12,2846.32a436,436,0,0,0,65.25-44.51,425.84,425.84,0,0,1-44.29,78.8,473.54,473.54,0,0,1-78.78,35.21A423.15,423.15,0,0,0,4279.12,2846.32Z" transform="translate(-3447.02 -1845.03)"/><path class="cls-1" d="M4145.31,2894.11a433.28,433.28,0,0,0,76.1-21,423.18,423.18,0,0,1-67.43,60.22,484.72,484.72,0,0,1-85.9,7.91A432.23,432.23,0,0,0,4145.31,2894.11Z" transform="translate(-3447.02 -1845.03)"/></g></svg>