<svg preserveAspectRatio="none" id="Layer_1" data-name="Layer 1" xmlns="http://www.w3.org/2000/svg" viewBox="0 0 19.62 19.62"><defs><style>.cls-1{fill:#00b3ea;}.cls-2{fill:#feb113;}.cls-3{fill:#065977;}</style></defs><title>circle58</title><rect class="cls-1" x="8.89" y="2.86" width="1.84" height="1.51"/><rect class="cls-1" x="169.03" y="293.43" width="1.51" height="1.84" transform="translate(-314 -82.66) rotate(-45)"/><rect class="cls-1" x="15.24" y="8.89" width="1.51" height="1.84"/><rect class="cls-1" x="168.87" y="302.34" width="1.84" height="1.51" transform="translate(-320.2 -80.07) rotate(-45)"/><rect class="cls-1" x="8.89" y="15.24" width="1.84" height="1.51"/><rect class="cls-1" x="160.28" y="302.18" width="1.51" height="1.84" transform="translate(-322.76 -86.28) rotate(-45)"/><rect class="cls-1" x="2.86" y="8.89" width="1.51" height="1.84"/><rect class="cls-1" x="160.11" y="293.59" width="1.84" height="1.51" transform="translate(-316.58 -88.81) rotate(-45)"/><rect class="cls-1" x="167.04" y="292.09" width="1.51" height="1.84" transform="translate(-322.87 45.8) rotate(-67.3)"/><rect class="cls-1" x="170.38" y="295.45" width="1.51" height="1.84" transform="translate(-255.23 -201.84) rotate(-22.29)"/><rect class="cls-1" x="170.2" y="300.35" width="1.84" height="1.51" transform="translate(-328.3 53.86) rotate(-67.3)"/><rect class="cls-1" x="166.84" y="303.69" width="1.84" height="1.51" transform="translate(-258.59 -202.48) rotate(-22.3)"/><rect class="cls-1" x="162.26" y="303.51" width="1.51" height="1.84" transform="translate(-336.34 48.44) rotate(-67.3)"/><rect class="cls-1" x="158.93" y="300.15" width="1.51" height="1.84" transform="translate(-257.9 -205.81) rotate(-22.3)"/><rect class="cls-1" x="158.78" y="295.58" width="1.84" height="1.51" transform="translate(-330.91 40.38) rotate(-67.3)"/><rect class="cls-1" x="162.14" y="292.24" width="1.84" height="1.51" transform="translate(-254.58 -205.13) rotate(-22.3)"/><circle class="cls-2" cx="9.81" cy="9.81" r="0.95"/><path class="cls-1" d="M165.41,303.45a4.73,4.73,0,1,1,4.73-4.73A4.74,4.74,0,0,1,165.41,303.45Zm0-9.32a4.59,4.59,0,1,0,4.59,4.59A4.59,4.59,0,0,0,165.41,294.13Z" transform="translate(-155.6 -288.91)"/><path class="cls-3" d="M169.57,305.49l0.12-.08,0.34-.23a7.88,7.88,0,0,0,1.11-1,8.14,8.14,0,0,0,.63-0.74,8.46,8.46,0,0,0,.59-0.92,8.1,8.1,0,0,0,.49-1.06,8.35,8.35,0,0,0,.34-1.16,8.64,8.64,0,0,0,.16-1.19,8.47,8.47,0,0,0,0-1.17,8.05,8.05,0,0,0-.45-2,8,8,0,0,0-.63-1.32l-0.22-.35-0.08-.12,0.7-.49,0.09,0.13c0.06,0.09.14,0.22,0.24,0.38a8.81,8.81,0,0,1,.7,1.46,8.91,8.91,0,0,1,.5,2.23,9.28,9.28,0,0,1,0,1.29,9.44,9.44,0,0,1-.17,1.32,9.22,9.22,0,0,1-.37,1.28,9,9,0,0,1-.54,1.17,9.32,9.32,0,0,1-.66,1,9,9,0,0,1-.7.82,8.72,8.72,0,0,1-1.22,1.06l-0.38.25-0.14.09Z" transform="translate(-155.6 -288.91)"/><path class="cls-3" d="M168.93,291.59s-0.18-.09-0.51-0.23a7.83,7.83,0,0,0-1.4-.43,8.25,8.25,0,0,0-2.06-.15,7.85,7.85,0,0,0-2.31.48,8,8,0,0,0-2.07,1.14,7.87,7.87,0,0,0-1.46,1.46,7.74,7.74,0,0,0-.78,1.23c-0.08.16-.14,0.28-0.18,0.37l-0.06.13-0.78-.33,0.07-.15c0-.1.1-0.24,0.2-0.41a8.61,8.61,0,0,1,.87-1.37,8.83,8.83,0,0,1,3.91-2.88,8.7,8.7,0,0,1,2.56-.53,9.1,9.1,0,0,1,2.28.17,8.67,8.67,0,0,1,1.55.47c0.36,0.15.56,0.25,0.56,0.25Z" transform="translate(-155.6 -288.91)"/><path class="cls-3" d="M157.46,298.72v0.15c0,0.09,0,.23,0,0.41a7.7,7.7,0,0,0,.23,1.44,8,8,0,0,0,.78,1.91,7.58,7.58,0,0,0,.65,1,7.49,7.49,0,0,0,.81.89,7.93,7.93,0,0,0,3.89,2,7.82,7.82,0,0,0,1.45.15h0.56l0,0.85h-0.61a8.7,8.7,0,0,1-1.61-.17,8.78,8.78,0,0,1-4.31-2.24,8.33,8.33,0,0,1-.9-1,8.43,8.43,0,0,1-.72-1.07,8.83,8.83,0,0,1-.86-2.12,8.56,8.56,0,0,1-.26-1.6c0-.19,0-0.35,0-0.45v-0.16h0.85Z" transform="translate(-155.6 -288.91)"/><path class="cls-3" d="M166.6,306.58l0.1,0,0.27,0,0.38-.09,0.43-.12,0.42-.15,0.36-.15,0.25-.11,0.09,0,0.37,0.76-0.1.05-0.28.13-0.4.16-0.47.16-0.47.13-0.42.09-0.3.05-0.11,0Z" transform="translate(-155.6 -288.91)"/><path class="cls-3" d="M171.48,293.59a8,8,0,0,0-.85-0.86l-0.17-.15-0.17-.14-0.31-.23-0.23-.15-0.09-.06,0.46-.72,0.1,0.06,0.25,0.17,0.35,0.26,0.19,0.15,0.19,0.16a8.9,8.9,0,0,1,.94,1Z" transform="translate(-155.6 -288.91)"/><path class="cls-3" d="M157.83,296.33l0,0.1-0.08.26c0,0.11-.06.24-0.09,0.38s-0.05.29-.08,0.44,0,0.3-.05.44,0,0.27,0,.39v0.38h-0.85V298.3c0-.13,0-0.27,0-0.43s0-.32.06-0.49,0.06-.33.09-0.48,0.07-.3.1-0.42l0.08-.29,0-.11Z" transform="translate(-155.6 -288.91)"/><path class="cls-1" d="M155.86,301a0.59,0.59,0,0,0-.09.27,2.14,2.14,0,0,0,0,.42,4.67,4.67,0,0,0,.11.55,6.27,6.27,0,0,0,.22.66,9.9,9.9,0,0,0,5.22,5.18,4.82,4.82,0,0,0,1.22.32,1,1,0,0,0,.69-0.09,9,9,0,0,0,1,.18l0.39,0,0.34,0h0.82l0.34,0,0.39,0,0.38-.05,0.33-.06,0.23,0,0.09,0a1,1,0,0,0,.69.09,4.82,4.82,0,0,0,1.22-.32,9.9,9.9,0,0,0,5.22-5.18,6.28,6.28,0,0,0,.22-0.66,4.68,4.68,0,0,0,.11-0.55,2.14,2.14,0,0,0,0-.42A0.59,0.59,0,0,0,175,301a9.15,9.15,0,0,0,.2-1.12c0-.14,0-0.28,0-0.41s0-.26,0-0.36v-0.71c0-.11,0-0.23,0-0.36s0-.27,0-0.41a9.13,9.13,0,0,0-.2-1.12,0.58,0.58,0,0,0,.09-0.27,2.15,2.15,0,0,0,0-.42,4.72,4.72,0,0,0-.11-0.55,6.31,6.31,0,0,0-.22-0.66,9.9,9.9,0,0,0-5.22-5.18,4.83,4.83,0,0,0-1.22-.32,1,1,0,0,0-.69.09,9,9,0,0,0-1-.18l-0.39,0-0.34,0H165l-0.34,0-0.39,0-0.38,0-0.33.06-0.23,0-0.09,0a1,1,0,0,0-.69-0.09,4.84,4.84,0,0,0-1.22.32,9.9,9.9,0,0,0-5.22,5.18,6.27,6.27,0,0,0-.22.66,4.67,4.67,0,0,0-.11.55,2.15,2.15,0,0,0,0,.42,0.58,0.58,0,0,0,.09.27,9.12,9.12,0,0,0-.2,1.12c0,0.14,0,.28,0,0.41s0,0.26,0,.36v0.35h0.5v-0.16c0-.11,0-0.26,0-0.46a9,9,0,0,1,.25-1.63,9.35,9.35,0,0,1,.84-2.17,9.39,9.39,0,0,1,1.59-2.14,10.16,10.16,0,0,1,1-.89,10,10,0,0,1,1.1-.71,9.5,9.5,0,0,1,2.16-.86,9,9,0,0,1,1.62-.26l0.46,0h0.48l0.46,0a9,9,0,0,1,1.62.26,9.51,9.51,0,0,1,2.16.86,10,10,0,0,1,1.1.71,10.17,10.17,0,0,1,1,.89,9.39,9.39,0,0,1,1.59,2.14,9.34,9.34,0,0,1,.84,2.17,9,9,0,0,1,.25,1.63c0,0.2,0,.36,0,0.46v0.33c0,0.11,0,.26,0,0.46a9,9,0,0,1-.25,1.63,9.34,9.34,0,0,1-.84,2.17,9.33,9.33,0,0,1-3.71,3.74,9.52,9.52,0,0,1-2.16.86,9,9,0,0,1-1.62.26l-0.46,0h-0.48l-0.46,0a9,9,0,0,1-1.62-.26,9.51,9.51,0,0,1-2.16-.86,10,10,0,0,1-1.1-.71,10.15,10.15,0,0,1-1-.89,9.38,9.38,0,0,1-1.59-2.14,9.35,9.35,0,0,1-.84-2.17,9,9,0,0,1-.25-1.63c0-.2,0-0.35,0-0.46v-0.16h-0.5v0.35c0,0.11,0,.23,0,0.36s0,0.27,0,.41A9.14,9.14,0,0,0,155.86,301Z" transform="translate(-155.6 -288.91)"/><polygon class="cls-1" points="10.99 8.74 10.88 8.62 12.32 7.18 12.64 7.51 11.7 8.03 10.99 8.74"/><polygon class="cls-1" points="10.88 10.99 10.99 10.88 12.44 12.32 12.11 12.64 11.58 11.7 10.88 10.99"/><polygon class="cls-1" points="8.62 10.88 8.74 10.99 7.3 12.44 6.97 12.11 7.92 11.58 8.62 10.88"/><polygon class="cls-1" points="8.74 8.62 8.62 8.74 7.18 7.3 7.51 6.97 8.03 7.92 8.74 8.62"/></svg>