<svg preserveAspectRatio="none" id="Layer_1" data-name="Layer 1" xmlns="http://www.w3.org/2000/svg" viewBox="0 0 119.01 119.28"><defs><style>.cls-1{fill:#2f99e0}.cls-2{fill:#154666}.cls-3{fill:#5cdeff}</style></defs><path class="cls-1" transform="rotate(-45 136.696 250.779)" d="M251.46 59.59h2.41V62h-2.41z"/><path class="cls-2" transform="rotate(45 203.247 -158.462)" d="M254.38 56.67h2.41v2.41h-2.41z"/><path class="cls-2" transform="rotate(45 206.162 -161.395)" d="M257.3 53.74h2.41v2.41h-2.41z"/><path class="cls-2" transform="rotate(45 209.087 -164.303)" d="M260.22 50.82h2.41v2.41h-2.41z"/><path class="cls-2" transform="rotate(45 212.001 -167.236)" d="M263.15 47.9h2.41v2.41h-2.41z"/><path class="cls-2" transform="rotate(45 138.442 -93.676)" d="M189.59 121.46H192v2.41h-2.41z"/><path class="cls-2" transform="rotate(45 141.379 -96.59)" d="M192.51 118.54h2.41v2.41h-2.41z"/><path class="cls-2" transform="rotate(45 144.293 -99.522)" d="M195.43 115.61h2.41v2.41h-2.41z"/><path class="cls-1" transform="rotate(-45 83.597 303.893)" d="M198.35 112.69h2.41v2.41h-2.41z"/><path class="cls-1" transform="rotate(-45 86.522 300.961)" d="M201.27 109.77h2.41v2.41h-2.41z"/><path class="cls-1" transform="rotate(-30 124.984 369.01)" d="M257.12 66.92h2.41v2.41h-2.41z"/><path class="cls-1" transform="matrix(.87 -.5 .5 .87 -166.25 113.46)" d="M260.7 64.85h2.41v2.41h-2.41z"/><path class="cls-2" transform="rotate(60 204.144 -94.953)" d="M264.28 62.78h2.41v2.41h-2.41z"/><path class="cls-2" transform="rotate(60 207.725 -97.01)" d="M267.85 60.72h2.41v2.41h-2.41z"/><path class="cls-2" transform="rotate(60 211.31 -99.08)" d="M271.43 58.65h2.41v2.41h-2.41z"/><path class="cls-2" transform="rotate(60 121.218 -47.064)" d="M181.34 110.67h2.41v2.41h-2.41z"/><path class="cls-2" transform="rotate(60 124.79 -49.138)" d="M184.92 108.6h2.41v2.41h-2.41z"/><path class="cls-1" transform="rotate(-30 56.388 408.63)" d="M188.5 106.53h2.41v2.41h-2.41z"/><path class="cls-1" transform="rotate(-30 59.96 406.566)" d="M192.08 104.47h2.41v2.41h-2.41z"/><path class="cls-1" transform="rotate(-30 63.534 404.504)" d="M195.66 102.4h2.41v2.41h-2.41z"/><path class="cls-1" transform="rotate(-15 77.644 702.714)" d="M260.69 75.46h2.41v2.41h-2.41z"/><path class="cls-1" transform="rotate(-15 81.651 701.618)" d="M264.68 74.39h2.41v2.41h-2.41z"/><path class="cls-1" transform="rotate(-15 85.616 700.556)" d="M268.67 73.32h2.41v2.41h-2.41z"/><path class="cls-1" transform="rotate(-15 89.62 699.5)" d="M272.66 72.25h2.41v2.41h-2.41z"/><path class="cls-2" transform="rotate(75 210.877 -50.458)" d="M276.66 71.18h2.41v2.41h-2.41z"/><path class="cls-2" transform="rotate(75 110.397 -23.536)" d="M176.17 98.11h2.41v2.41h-2.41z"/><path class="cls-2" transform="rotate(75 113.905 -24.498)" d="M180.16 97.04h2.41v2.41h-2.41z"/><path class="cls-2" transform="rotate(75 118.37 -25.679)" d="M184.16 95.97h2.41v2.41h-2.41z"/><path class="cls-2" transform="rotate(75 122.37 -26.74)" d="M188.15 94.9h2.41v2.41h-2.41z"/><path class="cls-1" transform="rotate(-15 9.117 721.085)" d="M192.14 93.83h2.41v2.41h-2.41z"/><path class="cls-1" d="M93.62 58.29h2.41v2.41h-2.41zM97.75 58.29h2.41v2.41h-2.41z"/><path class="cls-2" transform="rotate(90 200.42 -11.49)" d="M270.19 84.64h2.41v2.41h-2.41z"/><path class="cls-2" transform="rotate(90 204.55 -11.49)" d="M274.32 84.64h2.41v2.41h-2.41z"/><path class="cls-2" transform="rotate(90 208.685 -11.485)" d="M278.46 84.64h2.41v2.41h-2.41z"/><path class="cls-2" transform="rotate(90 104.655 -11.485)" d="M174.43 84.64h2.41v2.41h-2.41z"/><path class="cls-2" transform="rotate(90 108.79 -11.49)" d="M178.56 84.64h2.41v2.41h-2.41z"/><path class="cls-1" d="M14.39 58.29h2.41v2.41h-2.41zM18.52 58.29h2.41v2.41h-2.41zM22.65 58.29h2.41v2.41h-2.41z"/><path class="cls-1" transform="rotate(-75 160.63 191.522)" d="M260.75 93.82h2.41v2.41h-2.41z"/><path class="cls-1" transform="rotate(-75 164.614 192.591)" d="M264.74 94.89h2.41v2.41h-2.41z"/><path class="cls-1" transform="rotate(-75 168.616 193.664)" d="M268.73 95.96h2.41v2.41h-2.41z"/><path class="cls-2" transform="scale(-1) rotate(-75 -26.57 259.408)" d="M272.72 97.03h2.41v2.41h-2.41z"/><path class="cls-2" transform="rotate(105 203.876 21.551)" d="M276.71 98.1h2.41v2.41h-2.41z"/><path class="cls-2" transform="scale(-1) rotate(-75 6.973 134.185)" d="M176.23 71.17h2.41v2.41h-2.41z"/><path class="cls-2" transform="rotate(105 107.384 -4.294)" d="M180.22 72.24h2.41v2.41h-2.41z"/><path class="cls-2" transform="rotate(105 111.376 -3.232)" d="M184.21 73.31h2.41v2.41h-2.41z"/><path class="cls-2" transform="scale(-1) rotate(-75 2.813 149.725)" d="M188.21 74.38h2.41v2.41h-2.41z"/><path class="cls-1" transform="rotate(-75 92.077 173.156)" d="M192.2 75.45h2.41v2.41h-2.41z"/><path class="cls-1" transform="rotate(-60 151.465 236.174)" d="M257.23 102.39h2.41v2.41h-2.41z"/><path class="cls-2" transform="rotate(120 185.473 43.903)" d="M260.81 104.45h2.41v2.41h-2.41z"/><path class="cls-2" transform="rotate(120 189.05 45.962)" d="M264.39 106.52h2.41v2.41h-2.41z"/><path class="cls-2" transform="rotate(120 192.626 48.026)" d="M267.97 108.59h2.41V111h-2.41z"/><path class="cls-2" transform="rotate(120 196.203 50.098)" d="M271.55 110.65h2.41v2.41h-2.41z"/><path class="cls-2" transform="rotate(120 106.113 -1.916)" d="M181.46 58.64h2.41v2.41h-2.41z"/><path class="cls-2" transform="rotate(120 109.693 .151)" d="M185.04 60.7h2.41v2.41h-2.41z"/><path class="cls-2" transform="rotate(120 113.27 2.21)" d="M188.61 62.77h2.41v2.41h-2.41z"/><path class="cls-1" transform="rotate(-60 86.427 198.624)" d="M192.19 64.84h2.41v2.41h-2.41z"/><path class="cls-1" transform="rotate(-60 90.004 200.69)" d="M195.77 66.9h2.41v2.41h-2.41z"/><path class="cls-1" transform="rotate(-45 136.875 300.944)" d="M251.62 109.75h2.41v2.41h-2.41z"/><path class="cls-1" transform="rotate(-45 139.778 303.872)" d="M254.54 112.67h2.41v2.41h-2.41z"/><path class="cls-1" transform="rotate(-45 142.71 306.798)" d="M257.46 115.6h2.41v2.41h-2.41z"/><path class="cls-1" transform="rotate(-45 145.63 309.718)" d="M260.39 118.52h2.41v2.41h-2.41z"/><path class="cls-1" transform="rotate(-45 148.55 312.639)" d="M263.31 121.44h2.41v2.41h-2.41z"/><path class="cls-2" transform="rotate(135 112.26 1.048)" d="M189.75 47.88h2.41v2.41h-2.41z"/><path class="cls-1" transform="rotate(-45 77.91 241.999)" d="M192.67 50.8h2.41v2.41h-2.41z"/><path class="cls-1" transform="rotate(-45 80.841 244.925)" d="M195.59 53.73H198v2.41h-2.41z"/><path class="cls-1" transform="rotate(-45 83.76 247.845)" d="M198.51 56.65h2.41v2.41h-2.41z"/><path class="cls-1" transform="rotate(-45 86.68 250.766)" d="M201.44 59.57h2.41v2.41h-2.41z"/><path class="cls-1" transform="rotate(-30 112.167 417.515)" d="M244.29 115.41h2.41v2.41h-2.41z"/><path class="cls-1" transform="rotate(-30 114.249 421.093)" d="M246.36 118.99h2.41v2.41h-2.41z"/><path class="cls-2" transform="rotate(150 169.005 88.044)" d="M248.42 122.57h2.41v2.41h-2.41z"/><path class="cls-2" transform="rotate(150 171.072 91.631)" d="M250.49 126.15h2.41v2.41h-2.41z"/><path class="cls-2" transform="rotate(150 173.135 95.212)" d="M252.56 129.73h2.41v2.41h-2.41z"/><path class="cls-2" transform="rotate(150 121.124 5.119)" d="M200.54 39.64h2.41v2.41h-2.41z"/><path class="cls-2" transform="rotate(150 123.19 8.69)" d="M202.61 43.22h2.41v2.41h-2.41z"/><path class="cls-2" transform="rotate(150 125.256 12.276)" d="M204.67 46.79h2.41v2.41h-2.41z"/><path class="cls-1" transform="rotate(-30 74.615 352.473)" d="M206.74 50.37h2.41v2.41h-2.41z"/><path class="cls-1" transform="rotate(-30 76.696 356.05)" d="M208.81 53.95h2.41v2.41h-2.41z"/><path class="cls-1" transform="rotate(-15 52.441 742.83)" d="M235.75 118.98h2.41v2.41h-2.41z"/><path class="cls-1" transform="rotate(-15 53.494 746.814)" d="M236.82 122.98h2.41v2.41h-2.41z"/><path class="cls-1" transform="rotate(-15 54.903 754.237)" d="M237.89 126.97h2.41v2.41h-2.41z"/><path class="cls-2" transform="rotate(165 157.743 107.912)" d="M238.96 130.96h2.41v2.41h-2.41z"/><path class="cls-2" transform="rotate(165 158.81 111.903)" d="M240.03 134.95h2.41v2.41h-2.41z"/><path class="cls-2" transform="rotate(165 131.89 11.417)" d="M213.1 34.47h2.41v2.41h-2.41z"/><path class="cls-2" transform="rotate(165 132.956 15.408)" d="M214.17 38.46h2.41v2.41h-2.41z"/><path class="cls-2" transform="matrix(-.97 .26 -.26 -.97 268.51 3.45)" d="M215.24 42.45h2.41v2.41h-2.41z"/><path class="cls-2" transform="rotate(165 135.095 23.391)" d="M216.31 46.44h2.41v2.41h-2.41z"/><path class="cls-1" transform="rotate(-15 34.16 674.576)" d="M217.38 50.43h2.41v2.41h-2.41z"/><path class="cls-1" d="M58.26 93.87h2.41v2.41h-2.41z"/><path class="cls-2" transform="rotate(180 143.62 112.385)" d="M226.57 124.35h2.41v2.41h-2.41z"/><path class="cls-2" transform="rotate(180 143.62 116.515)" d="M226.57 128.49h2.41v2.41h-2.41z"/><path class="cls-2" transform="rotate(180 143.62 120.65)" d="M226.57 132.62h2.41v2.41h-2.41z"/><path class="cls-2" transform="rotate(180 143.62 124.78)" d="M226.57 136.75h2.41v2.41h-2.41z"/><path class="cls-2" transform="rotate(180 143.62 20.755)" d="M226.57 32.72h2.41v2.41h-2.41z"/><path class="cls-2" transform="rotate(180 143.62 24.885)" d="M226.57 36.86h2.41v2.41h-2.41z"/><path class="cls-1" d="M58.26 14.64h2.41v2.41h-2.41zM58.26 18.77h2.41v2.41h-2.41zM58.26 22.9h2.41v2.41h-2.41z"/><path class="cls-1" transform="rotate(-75 117.27 216.743)" d="M217.39 119.04h2.41v2.41h-2.41z"/><path class="cls-1" transform="rotate(-75 116.19 220.74)" d="M216.32 123.03h2.41v2.41h-2.41z"/><path class="cls-1" transform="rotate(-75 114.658 223.787)" d="M215.25 127.03h2.41v2.41h-2.41z"/><path class="cls-2" transform="rotate(-165 129.496 130.124)" d="M214.18 131.02h2.41v2.41h-2.41z"/><path class="cls-2" transform="rotate(-165 128.424 134.12)" d="M213.11 135.01h2.41v2.41h-2.41z"/><path class="cls-2" transform="rotate(-165 155.35 33.634)" d="M240.03 34.53h2.41v2.41h-2.41z"/><path class="cls-2" transform="rotate(-165 154.278 37.631)" d="M238.96 38.52h2.41v2.41h-2.41z"/><path class="cls-2" transform="rotate(-165 153.21 41.617)" d="M237.89 42.51h2.41v2.41h-2.41z"/><path class="cls-1" transform="rotate(-75 136.71 144.2)" d="M236.82 46.5h2.41v2.41h-2.41z"/><path class="cls-1" transform="rotate(-75 135.636 148.19)" d="M235.75 50.49h2.41v2.41h-2.41z"/><path class="cls-1" transform="rotate(-60 103.056 249.32)" d="M208.82 115.53h2.41v2.41h-2.41z"/><path class="cls-1" transform="rotate(-60 100.983 252.893)" d="M206.75 119.11h2.41v2.41h-2.41z"/><path class="cls-1" transform="rotate(-60 98.918 256.47)" d="M204.69 122.68h2.41v2.41h-2.41z"/><path class="cls-1" transform="rotate(-60 96.861 260.051)" d="M202.62 126.26h2.41v2.41h-2.41z"/><path class="cls-2" transform="rotate(-150 114.077 140.422)" d="M200.55 129.84h2.41v2.41h-2.41z"/><path class="cls-2" transform="rotate(-150 166.093 50.328)" d="M252.57 39.75h2.41v2.41h-2.41z"/><path class="cls-1" transform="rotate(-60 144.728 177.124)" d="M250.5 43.33h2.41v2.41h-2.41z"/><path class="cls-1" transform="rotate(-60 142.668 180.692)" d="M248.44 46.91h2.41v2.41h-2.41z"/><path class="cls-1" transform="rotate(-60 140.598 184.277)" d="M246.37 50.49h2.41v2.41h-2.41z"/><path class="cls-1" transform="rotate(-60 138.533 187.854)" d="M244.3 54.07h2.41v2.41h-2.41z"/><path class="cls-2" d="M227.64 142a56.08 56.08 0 1139.66-16.43A55.71 55.71 0 01227.64 142zm0-111.66a55.58 55.58 0 1039.3 16.28 55.22 55.22 0 00-39.3-16.24z" transform="translate(-168.31 -26.35)"/><path class="cls-2" d="M207.08 106.52A29.08 29.08 0 01248.2 65.4l-.35.35a28.58 28.58 0 00-40.41 40.41z" transform="translate(-168.31 -26.35)"/><path class="cls-3" d="M287.25 88.82h-.75a59.28 59.28 0 00-1-14.08 58.63 58.63 0 00-16.18-30.41l.53-.53a59.38 59.38 0 0116.39 30.8 60.11 60.11 0 011.01 14.22zM259.79 36.56a58.84 58.84 0 00-29.23-9.46v-.75a59.59 59.59 0 0129.61 9.58zM186 44.29l-.53-.53a59.27 59.27 0 0132.26-16.66l.12.74A58.53 58.53 0 00186 44.29zM185.44 128.16a59.82 59.82 0 01-17.14-35.79l.75-.08A59.07 59.07 0 00186 127.63zM217.19 144.72a59.54 59.54 0 01-15-4.77l.32-.68a58.78 58.78 0 0014.81 4.73zM227.66 145.63v-.75a58.87 58.87 0 0030.28-8.37l.39.64a59.62 59.62 0 01-30.67 8.48zM269.84 128.16l-.53-.53a58.83 58.83 0 0015.53-27.47l.73.18a59.59 59.59 0 01-15.73 27.82zM227.64 111.33a25.31 25.31 0 01-18-7.42l.53-.53a24.64 24.64 0 100-34.84l-.48-.54a25.39 25.39 0 1117.95 43.33z" transform="translate(-168.31 -26.35)"/></svg>