<svg preserveAspectRatio="none" xmlns="http://www.w3.org/2000/svg" viewBox="0 0 192.03 155.04"><defs><style>.cls-2{mix-blend-mode:overlay}.cls-3{fill:#0ff}.cls-4{opacity:.53}.cls-5{opacity:.48}.cls-6{opacity:.16}</style></defs><g style="isolation:isolate"><g id="Layer_1" data-name="Layer 1"><g id="_编组_" data-name="&lt;编组&gt;"><g id="_编组_2" data-name="&lt;编组&gt;" class="cls-2"><g id="_编组_3" data-name="&lt;编组&gt;"><g id="_编组_4" data-name="&lt;编组&gt;"><path class="cls-3" d="M249.41 209.23h-30.35l-15.17-25.38.12-.2 15.05-25.19h30.35l15.17 25.38-.12.2zm-29.87-.79h29.4l14.7-24.59-14.7-24.59h-29.4l-14.7 24.59z" transform="translate(-122.46 -106.32)" id="_编组_5" data-name="&lt;编组&gt;"/></g></g><g id="_编组_6" data-name="&lt;编组&gt;"><g id="_编组_7" data-name="&lt;编组&gt;"><path class="cls-3" d="M234.23 213.15L208 198.5v-29.31l.2-.11 26.08-14.54 26.28 14.66v29.3l-.2.11zM208.77 198l25.46 14.2 25.46-14.2v-28.4l-25.46-14.2-25.46 14.2V198z" transform="translate(-122.46 -106.32)" id="_编组_8" data-name="&lt;编组&gt;"/></g></g><g id="_编组_9" data-name="&lt;编组&gt;" class="cls-4"><g id="_编组_10" data-name="&lt;编组&gt;"><path class="cls-3" d="M234.23 216.8c-18.82 0-34.13-14.79-34.13-33s15.31-33 34.13-33 34.13 14.79 34.13 33-15.31 33-34.13 33zm0-65.53c-18.59 0-33.72 14.61-33.72 32.57s15.12 32.57 33.72 32.57 33.72-14.61 33.72-32.57-15.13-32.56-33.72-32.56z" transform="translate(-122.46 -106.32)" id="_编组_11" data-name="&lt;编组&gt;"/></g></g><g id="_编组_12" data-name="&lt;编组&gt;"><g id="_编组_13" data-name="&lt;编组&gt;"><g id="_编组_14" data-name="&lt;编组&gt;"><path class="cls-3" d="M123 193.78l-.07-.34c-.29-3.19-.44-6.42-.44-9.59a105 105 0 0113.6-51.64l.18-.31.32.17 68.63 36.16-.17.27a31 31 0 00-4 15.35c0 1 0 2 .13 2.91v.37h-.35zm13.52-61.05a104.45 104.45 0 00-13.39 51.11c0 3.07.14 6.19.41 9.27l77-6.58c-.07-.85-.11-1.76-.11-2.7a31.61 31.61 0 014-15.38z" transform="translate(-122.46 -106.32)" id="_编组_15" data-name="&lt;编组&gt;"/></g></g><g id="_编组_16" data-name="&lt;编组&gt;"><g id="_编组_17" data-name="&lt;编组&gt;"><path class="cls-3" d="M148.56 254.1v-.78a107.1 107.1 0 01-16.95-26.44 104.31 104.31 0 01-8.55-31v-.36l.44-.12 77.79-8.4v.44a31.32 31.32 0 007.57 17l.07.08.07.4-.21.13zm-24.64-58a103.57 103.57 0 008.45 30.44 106.29 106.29 0 0016.69 26.09l58.94-48a32.11 32.11 0 01-7.48-16.78z" transform="translate(-122.46 -106.32)" id="_编组_18" data-name="&lt;编组&gt;"/></g></g></g><g id="_编组_19" data-name="&lt;编组&gt;"><g id="_编组_20" data-name="&lt;编组&gt;" class="cls-4"><g id="_编组_21" data-name="&lt;编组&gt;"><path class="cls-3" d="M217.07 139.63h-.17l-.24-.11-.11-.17-3.55-9.16.73-.46v.09a61.93 61.93 0 0133.28-2.14l.4.09-.05.39-2.19 9.66-.44-.08a50.81 50.81 0 00-10.54-1.1 50.17 50.17 0 00-17.1 3zm-3-9.05l3.16 8.16a51 51 0 0117-2.9 51.71 51.71 0 0110.36 1l1.93-8.51a61.07 61.07 0 00-32.52 2.25z" transform="translate(-122.46 -106.32)" id="_编组_22" data-name="&lt;编组&gt;"/></g></g><g id="_编组_23" data-name="&lt;编组&gt;" class="cls-4"><g id="_编组_24" data-name="&lt;编组&gt;"><path class="cls-3" d="M185.19 178.34l-.88-.1.1-.78.55.06c0-.15 0-.29.06-.44l.81.11c0 .25-.08.51-.11.76l.06.06-.55-.07zm-2.45-.29l-.88-.1.1-.78.88.1zm-2.44-.29l-.88-.1.1-.78.88.1zm-2.44-.29l-.88-.11.11-.78.87.1zm-1.9-.71l-.81-.1c0-.29.08-.55.11-.79l.81.11c0 .25-.07.5-.11.78zm10.12-1.09l-.81-.14c0-.25.1-.52.15-.78l.81.15c-.05.26-.1.52-.15.77zm-9.77-1.25l-.81-.13c0-.26.1-.53.14-.78l.81.14c0 .23-.08.47-.14.77zm10.25-1.07l-.81-.18c.06-.26.12-.52.19-.78l.79.19c-.08.29-.13.53-.18.76zm-9.79-1.25l-.81-.16.18-.78.8.17-.17.77zm10.39-1l-.79-.21c.06-.23.14-.48.23-.77l.78.23-.23.75zm-9.84-1.26l-.79-.2c.06-.25.13-.51.21-.77l.79.2c-.08.26-.15.52-.21.76zm10.55-1l-.78-.26c.08-.24.17-.48.27-.75l.77.26-.27.74zm-9.9-1.29l-.79-.23c.06-.2.15-.47.24-.73h-.22.27l.75.23q-.12.36-.23.72zm10.73-.93l-.76-.29c.11-.28.21-.52.3-.74l.76.3c-.1.24-.21.48-.31.73zm-10-1.32l-.7-.3.28-.75.74.26-.27.74zm10.93-.85l-.74-.35.34-.72.74.34-.34.71zm-10.08-1.36l-.76-.29c.11-.26.2-.51.31-.74l.76.3c-.09.24-.2.48-.3.73zm11.13-.77L190 162l.39-.71.72.37-.37.67h-.08zm-10.19-1.4l-.75-.33.34-.73.74.33-.34.72zm11.37-.66l-.71-.4c.12-.21.25-.43.42-.69l.71.41-.42.67zm-10.34-1.48l-.74-.35.37-.71.73.36-.37.71zm11.61-.53l-.69-.43v-.07l.43-.64.68.44-.45.66zm-10.48-1.56l-.72-.38.4-.69.71.39-.39.69zm11.85-.39l-.64-.44.49-.64.66.47-.46.6h.09-.13zm-10.64-1.66l-.7-.4.43-.68.69.44-.43.67zm12.12-.21l-.69-.53h.08l.51-.61.63.5-.51.61zm-.6-1.64l-.68-.55.53-.61.67.55zm-10.21-.15l-.69-.44.05-.08.43-.61.68.45-.45.66zm8.33-1.38l-.67-.55.53-.61.68.55zm-6.94-.56l-.66-.46c.16-.22.32-.44.49-.64l.66.47-.48.63zm5.06-1l-.67-.55.53-.6.67.55zm-3.59-.91l-.64-.49.51-.62.64.5-.51.61zm1.71-.61l-.67-.55.53-.61.67.55z" transform="translate(-122.46 -106.32)" id="_编组_25" data-name="&lt;编组&gt;"/></g></g></g><g id="_编组_26" data-name="&lt;编组&gt;"><g id="_编组_27" data-name="&lt;编组&gt;"><g id="_编组_28" data-name="&lt;编组&gt;"><path class="cls-3" d="M193.67 188.75c-.09-.73-.17-1.5-.22-2.3l-2.45.16c.06.79.13 1.61.24 2.43l2.36-.28z" transform="translate(-122.46 -106.32)" id="_编组_29" data-name="&lt;编组&gt;"/></g></g><g id="_编组_30" data-name="&lt;编组&gt;"><g id="_编组_31" data-name="&lt;编组&gt;"><path class="cls-3" d="M193.33 185v-1.08-1.23l-2.47-.07v2.44z" transform="translate(-122.46 -106.32)" id="_编组_32" data-name="&lt;编组&gt;"/></g></g><g id="_编组_33" data-name="&lt;编组&gt;"><g id="_编组_34" data-name="&lt;编组&gt;"><path class="cls-3" d="M193.92 177.26c.13-.76.29-1.52.46-2.26l-2.39-.53c-.19.78-.35 1.58-.49 2.4l2.43.39z" transform="translate(-122.46 -106.32)" id="_编组_35" data-name="&lt;编组&gt;"/></g></g><g id="_编组_36" data-name="&lt;编组&gt;"><g id="_编组_37" data-name="&lt;编组&gt;"><path class="cls-3" d="M193.45 181.12c.06-.77.13-1.54.23-2.3l-2.44-.3c-.11.79-.19 1.62-.25 2.43l2.42.17z" transform="translate(-122.46 -106.32)" id="_编组_38" data-name="&lt;编组&gt;"/></g></g><g id="_编组_39" data-name="&lt;编组&gt;"><g id="_编组_40" data-name="&lt;编组&gt;"><path class="cls-3" d="M194.76 173.51c.21-.73.43-1.47.7-2.21l-2.33-.75c-.27.78-.51 1.55-.72 2.31h-.28l2.63.68z" transform="translate(-122.46 -106.32)" id="_编组_41" data-name="&lt;编组&gt;"/></g></g><g id="_编组_42" data-name="&lt;编组&gt;"><g id="_编组_43" data-name="&lt;编组&gt;"><path class="cls-3" d="M197.59 166.32c.35-.68.73-1.36 1.12-2l-2.14-1.18c-.41.69-.81 1.42-1.2 2.16l2.21 1.05z" transform="translate(-122.46 -106.32)" id="_编组_44" data-name="&lt;编组&gt;"/></g></g><g id="_编组_45" data-name="&lt;编组&gt;"><g id="_编组_46" data-name="&lt;编组&gt;"><path class="cls-3" d="M196 169.88c.29-.73.59-1.45.91-2.14l-2.24-1c-.34.71-.66 1.46-1 2.23h-.2l2.43.89z" transform="translate(-122.46 -106.32)" id="_编组_47" data-name="&lt;编组&gt;"/></g></g><g id="_编组_48" data-name="&lt;编组&gt;"><g id="_编组_49" data-name="&lt;编组&gt;"><path class="cls-3" d="M199.53 163c.42-.65.87-1.3 1.32-1.92l-2-1.38c-.49.67-1 1.35-1.41 2l2.06 1.3z" transform="translate(-122.46 -106.32)" id="_编组_50" data-name="&lt;编组&gt;"/></g></g><g id="_编组_51" data-name="&lt;编组&gt;"><g id="_编组_52" data-name="&lt;编组&gt;"><path class="cls-3" d="M200.74 206.49c-.45-.63-.89-1.27-1.31-1.92l-2.09 1.24c.45.71.92 1.39 1.39 2l2-1.35z" transform="translate(-122.46 -106.32)" id="_编组_53" data-name="&lt;编组&gt;"/></g></g><g id="_编组_54" data-name="&lt;编组&gt;"><g id="_编组_55" data-name="&lt;编组&gt;"><path class="cls-3" d="M203.18 209.52c-.51-.58-1-1.18-1.5-1.8l-2 1.44c.5.63 1 1.28 1.58 1.9l1.86-1.55z" transform="translate(-122.46 -106.32)" id="_编组_56" data-name="&lt;编组&gt;"/></g></g><g id="_编组_57" data-name="&lt;编组&gt;"><g id="_编组_58" data-name="&lt;编组&gt;"><path class="cls-3" d="M194.35 192.54c-.17-.74-.32-1.5-.45-2.27l-2.43.39c.13.78.29 1.58.47 2.4l2.39-.52z" transform="translate(-122.46 -106.32)" id="_编组_59" data-name="&lt;编组&gt;"/></g></g><g id="_编组_60" data-name="&lt;编组&gt;"><g id="_编组_61" data-name="&lt;编组&gt;"><path class="cls-3" d="M205.91 212.31a43.31 43.31 0 01-1.67-1.65l-1.8 1.62c.57.59 1.17 1.18 1.77 1.75l1.71-1.71z" transform="translate(-122.46 -106.32)" id="_编组_62" data-name="&lt;编组&gt;"/></g></g><g id="_编组_63" data-name="&lt;编组&gt;"><g id="_编组_64" data-name="&lt;编组&gt;"><path class="cls-3" d="M195.4 196.21c-.25-.72-.47-1.45-.67-2.19l-2.38.61c.22.78.46 1.55.71 2.3l-.12.06h.18l2.3-.74z" transform="translate(-122.46 -106.32)" id="_编组_65" data-name="&lt;编组&gt;"/></g></g><g id="_编组_66" data-name="&lt;编组&gt;"><g id="_编组_67" data-name="&lt;编组&gt;"><path class="cls-3" d="M198.64 203.28c-.39-.68-.77-1.36-1.11-2l-2.21 1c.37.73.77 1.46 1.18 2.15l2.11-1.15z" transform="translate(-122.46 -106.32)" id="_编组_68" data-name="&lt;编组&gt;"/></g></g><g id="_编组_69" data-name="&lt;编组&gt;"><g id="_编组_70" data-name="&lt;编组&gt;"><path class="cls-3" d="M196.86 199.87l.14-.06h-.17c-.32-.7-.62-1.41-.89-2.11l-2.3.83c.3.76.62 1.52 1 2.26l2.21-.94h.06z" transform="translate(-122.46 -106.32)" id="_编组_71" data-name="&lt;编组&gt;"/></g></g><g id="_编组_72" data-name="&lt;编组&gt;"><g id="_编组_73" data-name="&lt;编组&gt;"><path class="cls-3" d="M201.8 159.81c.49-.62 1-1.22 1.51-1.79l-1.86-1.55c-.53.59-1.06 1.2-1.6 1.89l2 1.45z" transform="translate(-122.46 -106.32)" id="_编组_74" data-name="&lt;编组&gt;"/></g></g><g id="_编组_75" data-name="&lt;编组&gt;"><g id="_编组_76" data-name="&lt;编组&gt;"><path class="cls-3" d="M269.29 163.52c.4.64.8 1.32 1.16 2l2.18-1.11c-.39-.71-.8-1.43-1.24-2.13l-2.11 1.23z" transform="translate(-122.46 -106.32)" id="_编组_77" data-name="&lt;编组&gt;"/></g></g><g id="_编组_78" data-name="&lt;编组&gt;"><g id="_编组_79" data-name="&lt;编组&gt;"><path class="cls-3" d="M271.18 166.85c.33.68.66 1.39 1 2.11l2.28-.89c-.31-.74-.66-1.49-1-2.23l-2.18 1z" transform="translate(-122.46 -106.32)" id="_编组_80" data-name="&lt;编组&gt;"/></g></g><g id="_编组_81" data-name="&lt;编组&gt;"><g id="_编组_82" data-name="&lt;编组&gt;"><path class="cls-3" d="M267.08 160.33c.47.6.93 1.24 1.36 1.89l2.06-1.31c-.45-.67-.94-1.35-1.44-2l-2 1.42z" transform="translate(-122.46 -106.32)" id="_编组_83" data-name="&lt;编组&gt;"/></g></g><g id="_编组_84" data-name="&lt;编组&gt;"><g id="_编组_85" data-name="&lt;编组&gt;"><path class="cls-3" d="M264.55 157.36q.81.87 1.55 1.76l1.92-1.49c-.5-.6-1-1.22-1.62-1.83h.07-.12l-1.82 1.58z" transform="translate(-122.46 -106.32)" id="_编组_86" data-name="&lt;编组&gt;"/></g></g><g id="_编组_87" data-name="&lt;编组&gt;"><g id="_编组_88" data-name="&lt;编组&gt;"><path class="cls-3" d="M272.69 170.44c.27.71.52 1.44.75 2.19l2.36-.67c-.24-.77-.5-1.54-.78-2.28l.28-.07h-.3l-2.29.8z" transform="translate(-122.46 -106.32)" id="_编组_89" data-name="&lt;编组&gt;"/></g></g><g id="_编组_90" data-name="&lt;编组&gt;"><g id="_编组_91" data-name="&lt;编组&gt;"><path class="cls-3" d="M261.75 154.64c.58.51 1.16 1.05 1.71 1.6l1.75-1.66c-.58-.57-1.19-1.14-1.82-1.69l-1.66 1.76z" transform="translate(-122.46 -106.32)" id="_编组_92" data-name="&lt;编组&gt;"/></g></g><g id="_编组_93" data-name="&lt;编组&gt;"><g id="_编组_94" data-name="&lt;编组&gt;"><path class="cls-3" d="M274.64 177.84c.12.78.22 1.54.3 2.29l2.45-.22c-.07-.8-.18-1.62-.3-2.42z" transform="translate(-122.46 -106.32)" id="_编组_95" data-name="&lt;编组&gt;"/></g></g><g id="_编组_96" data-name="&lt;编组&gt;"><g id="_编组_97" data-name="&lt;编组&gt;"><path class="cls-3" d="M208.91 214.84c-.63-.48-1.25-1-1.83-1.48l-1.63 1.77c.61.53 1.26 1.06 1.93 1.58l1.51-1.85z" transform="translate(-122.46 -106.32)" id="_编组_98" data-name="&lt;编组&gt;"/></g></g><g id="_编组_99" data-name="&lt;编组&gt;"><g id="_编组_100" data-name="&lt;编组&gt;"><path class="cls-3" d="M273.86 174.11c.2.74.37 1.5.52 2.25l2.42-.44c-.16-.81-.34-1.62-.55-2.38l-2.39.58z" transform="translate(-122.46 -106.32)" id="_编组_101" data-name="&lt;编组&gt;"/></g></g><g id="_编组_102" data-name="&lt;编组&gt;"><g id="_编组_103" data-name="&lt;编组&gt;"><path class="cls-3" d="M207.23 154.2c.6-.51 1.21-1 1.84-1.47l-1.52-1.88c-.67.51-1.32 1-1.94 1.56l1.62 1.78z" transform="translate(-122.46 -106.32)" id="_编组_104" data-name="&lt;编组&gt;"/></g></g><g id="_编组_105" data-name="&lt;编组&gt;"><g id="_编组_106" data-name="&lt;编组&gt;"><path class="cls-3" d="M210.34 151.8c.63-.44 1.3-.88 2-1.29l-1.32-2c-.72.44-1.42.9-2.09 1.37l1.44 1.92z" transform="translate(-122.46 -106.32)" id="_编组_107" data-name="&lt;编组&gt;"/></g></g><g id="_编组_108" data-name="&lt;编组&gt;"><g id="_编组_109" data-name="&lt;编组&gt;"><path class="cls-3" d="M204.37 156.87c.53-.54 1.09-1.09 1.68-1.63l-1.69-1.72c-.61.57-1.22 1.16-1.78 1.73l1.8 1.62z" transform="translate(-122.46 -106.32)" id="_编组_110" data-name="&lt;编组&gt;"/></g></g><g id="_编组_111" data-name="&lt;编组&gt;"><g id="_编组_112" data-name="&lt;编组&gt;"><path class="cls-3" d="M258.67 152.19c.63.45 1.26.93 1.87 1.43l1.58-1.82c-.64-.51-1.3-1-1.94-1.49h-.1l-1.48 1.89z" transform="translate(-122.46 -106.32)" id="_编组_113" data-name="&lt;编组&gt;"/></g></g><g id="_编组_114" data-name="&lt;编组&gt;"><g id="_编组_115" data-name="&lt;编组&gt;"><path class="cls-3" d="M220.87 146.51c.75-.25 1.51-.48 2.28-.69l-.66-2.29c-.81.22-1.62.47-2.42.74l.8 2.25z" transform="translate(-122.46 -106.32)" id="_编组_116" data-name="&lt;编组&gt;"/></g></g><g id="_编组_117" data-name="&lt;编组&gt;"><g id="_编组_118" data-name="&lt;编组&gt;"><path class="cls-3" d="M257.38 151.29l1.39-2c-.7-.46-1.42-.91-2.13-1.32l-1.28 2c.64.46 1.36.88 2.02 1.32z" transform="translate(-122.46 -106.32)" id="_编组_119" data-name="&lt;编组&gt;"/></g></g><g id="_编组_120" data-name="&lt;编组&gt;"><g id="_编组_121" data-name="&lt;编组&gt;"><path class="cls-3" d="M254 149.27l1.19-2.08a52.4 52.4 0 00-2.25-1.12l-1 2.11v.06h.06l2 1.03z" transform="translate(-122.46 -106.32)" id="_编组_122" data-name="&lt;编组&gt;"/></g></g><g id="_编组_123" data-name="&lt;编组&gt;"><g id="_编组_124" data-name="&lt;编组&gt;"><path class="cls-3" d="M224.54 222.21l-.58 2.3c.82.2 1.65.36 2.48.51l.43-2.3c-.79-.17-1.58-.33-2.33-.51z" transform="translate(-122.46 -106.32)" id="_编组_125" data-name="&lt;编组&gt;"/></g></g><g id="_编组_126" data-name="&lt;编组&gt;"><g id="_编组_127" data-name="&lt;编组&gt;"><path class="cls-3" d="M260.43 214.17c-.64.51-1.27 1-1.88 1.42l1.46 1.92c.69-.49 1.35-1 2-1.5H262l-1.57-1.83z" transform="translate(-122.46 -106.32)" id="_编组_128" data-name="&lt;编组&gt;"/></g></g><g id="_编组_129" data-name="&lt;编组&gt;"><g id="_编组_130" data-name="&lt;编组&gt;"><path class="cls-3" d="M263.39 211.52v.08c-.53.52-1.09 1-1.71 1.58l1.64 1.77c.63-.55 1.25-1.12 1.83-1.69l-1.71-1.63v-.08z" transform="translate(-122.46 -106.32)" id="_编组_131" data-name="&lt;编组&gt;"/></g></g><g id="_编组_132" data-name="&lt;编组&gt;"><g id="_编组_133" data-name="&lt;编组&gt;"><path class="cls-3" d="M257.22 216.5c-.66.43-1.33.85-2 1.24l1.26 2c.7-.4 1.42-.85 2.13-1.31l-1.39-2z" transform="translate(-122.46 -106.32)" id="_编组_134" data-name="&lt;编组&gt;"/></g></g><g id="_编组_135" data-name="&lt;编组&gt;"><g id="_编组_136" data-name="&lt;编组&gt;"><path class="cls-3" d="M250.26 220.18c-.71.29-1.46.58-2.21.84l.83 2.23c.79-.28 1.57-.58 2.35-.89l-1-2.19z" transform="translate(-122.46 -106.32)" id="_编组_137" data-name="&lt;编组&gt;"/></g></g><g id="_编组_138" data-name="&lt;编组&gt;"><g id="_编组_139" data-name="&lt;编组&gt;"><path class="cls-3" d="M253.83 218.51c-.72.37-1.43.73-2.13 1l1.06 2.15c.78-.36 1.53-.73 2.25-1.11l-1.18-2.08z" transform="translate(-122.46 -106.32)" id="_编组_140" data-name="&lt;编组&gt;"/></g></g><g id="_编组_141" data-name="&lt;编组&gt;"><g id="_编组_142" data-name="&lt;编组&gt;"><path class="cls-3" d="M245 143.28l-.61 2.3c.75.19 1.52.4 2.29.63l.75-2.27c-.79-.22-1.61-.45-2.43-.66z" transform="translate(-122.46 -106.32)" id="_编组_143" data-name="&lt;编组&gt;"/></g></g><g id="_编组_144" data-name="&lt;编组&gt;"><g id="_编组_145" data-name="&lt;编组&gt;"><path class="cls-3" d="M249 144.49l-.84 2.23c.72.25 1.48.55 2.22.86l1-2.19c-.78-.33-1.56-.63-2.38-.9z" transform="translate(-122.46 -106.32)" id="_编组_146" data-name="&lt;编组&gt;"/></g></g><g id="_编组_147" data-name="&lt;编组&gt;"><g id="_编组_148" data-name="&lt;编组&gt;"><path class="cls-3" d="M266 208.72c-.52.62-1 1.2-1.56 1.75l1.82 1.61a42 42 0 001.66-1.85l-1.91-1.5z" transform="translate(-122.46 -106.32)" id="_编组_149" data-name="&lt;编组&gt;"/></g></g><g id="_编组_150" data-name="&lt;编组&gt;"><g id="_编组_151" data-name="&lt;编组&gt;"><path class="cls-3" d="M268.4 205.52v.14c-.43.63-.89 1.26-1.37 1.88l2 1.43c.5-.64 1-1.3 1.44-2v-.06l-2-1.29v-.11z" transform="translate(-122.46 -106.32)" id="_编组_152" data-name="&lt;编组&gt;"/></g></g><g id="_编组_153" data-name="&lt;编组&gt;"><g id="_编组_154" data-name="&lt;编组&gt;"><path class="cls-3" d="M274.92 187.68c-.08.76-.18 1.53-.3 2.29l2.43.36c.13-.83.24-1.65.31-2.42l-2.45-.23z" transform="translate(-122.46 -106.32)" id="_编组_155" data-name="&lt;编组&gt;"/></g></g><g id="_编组_156" data-name="&lt;编组&gt;"><g id="_编组_157" data-name="&lt;编组&gt;"><path class="cls-3" d="M277.51 181.57l-2.46.13c0 .7.06 1.42.06 2.15s0 1.55-.07 2.3l2.46.14c0-.8.07-1.62.07-2.45s-.02-1.52-.06-2.27z" transform="translate(-122.46 -106.32)" id="_编组_158" data-name="&lt;编组&gt;"/></g></g><g id="_编组_159" data-name="&lt;编组&gt;"><g id="_编组_160" data-name="&lt;编组&gt;"><path class="cls-3" d="M274.35 191.48c-.16.76-.34 1.52-.53 2.25l2.39.59c.2-.78.39-1.58.56-2.38l-2.41-.46z" transform="translate(-122.46 -106.32)" id="_编组_161" data-name="&lt;编组&gt;"/></g></g><g id="_编组_162" data-name="&lt;编组&gt;"><g id="_编组_163" data-name="&lt;编组&gt;"><path class="cls-3" d="M270.41 202.3c-.37.67-.76 1.35-1.18 2l2.1 1.24c.43-.68.84-1.39 1.24-2.11h.14l-2.25-1.15z" transform="translate(-122.46 -106.32)" id="_编组_164" data-name="&lt;编组&gt;"/></g></g><g id="_编组_165" data-name="&lt;编组&gt;"><g id="_编组_166" data-name="&lt;编组&gt;"><path class="cls-3" d="M272.06 198.84c-.3.69-.62 1.4-1 2.11l2.21 1c.36-.74.71-1.49 1-2.23l-2.26-.93z" transform="translate(-122.46 -106.32)" id="_编组_167" data-name="&lt;编组&gt;"/></g></g><g id="_编组_168" data-name="&lt;编组&gt;"><g id="_编组_169" data-name="&lt;编组&gt;"><path class="cls-3" d="M273.44 195.18c-.23.74-.48 1.47-.75 2.19l2.3.82c.29-.75.56-1.54.8-2.32l-2.31-.67z" transform="translate(-122.46 -106.32)" id="_编组_170" data-name="&lt;编组&gt;"/></g></g><g id="_编组_171" data-name="&lt;编组&gt;"><g id="_编组_172" data-name="&lt;编组&gt;"><path class="cls-3" d="M217 219.67l-1 2.15c.73.33 1.52.66 2.33 1l.89-2.17c-.73-.35-1.47-.65-2.22-.98z" transform="translate(-122.46 -106.32)" id="_编组_173" data-name="&lt;编组&gt;"/></g></g><g id="_编组_174" data-name="&lt;编组&gt;"><g id="_编组_175" data-name="&lt;编组&gt;"><path class="cls-3" d="M223 221.82c-.75-.21-1.52-.44-2.27-.7l-.81 2.25c.8.27 1.61.52 2.41.74l.67-2.21h.26l-.25-.07z" transform="translate(-122.46 -106.32)" id="_编组_176" data-name="&lt;编组&gt;"/></g></g><g id="_编组_177" data-name="&lt;编组&gt;"><g id="_编组_178" data-name="&lt;编组&gt;"><path class="cls-3" d="M218.49 144.83c-.8.31-1.58.63-2.33 1l1 2.16c.71-.32 1.44-.62 2.19-.9l-.89-2.21z" transform="translate(-122.46 -106.32)" id="_编组_179" data-name="&lt;编组&gt;"/></g></g><g id="_编组_180" data-name="&lt;编组&gt;"><g id="_编组_181" data-name="&lt;编组&gt;"><path class="cls-3" d="M226.6 142.63c-.84.14-1.66.31-2.48.5l.57 2.3c.78-.17 1.57-.33 2.34-.47l-.43-2.34z" transform="translate(-122.46 -106.32)" id="_编组_182" data-name="&lt;编组&gt;"/></g></g><g id="_编组_183" data-name="&lt;编组&gt;"><g id="_编组_184" data-name="&lt;编组&gt;"><path class="cls-3" d="M228.44 222.93l-.35 2.35c.84.12 1.68.21 2.52.27l.2-2.34c-.81-.09-1.59-.21-2.37-.28z" transform="translate(-122.46 -106.32)" id="_编组_185" data-name="&lt;编组&gt;"/></g></g><g id="_编组_186" data-name="&lt;编组&gt;"><g id="_编组_187" data-name="&lt;编组&gt;"><path class="cls-3" d="M210.18 215.77l-1.43 1.89c.7.49 1.39 1 2.09 1.39l1.3-1.94c-.67-.46-1.34-.89-1.96-1.34z" transform="translate(-122.46 -106.32)" id="_编组_188" data-name="&lt;编组&gt;"/></g></g><g id="_编组_189" data-name="&lt;编组&gt;"><g id="_编组_190" data-name="&lt;编组&gt;"><path class="cls-3" d="M213.51 217.88l-1.25 2c.75.42 1.49.82 2.22 1.18l1.12-2.1c-.73-.33-1.44-.7-2.09-1.08z" transform="translate(-122.46 -106.32)" id="_编组_191" data-name="&lt;编组&gt;"/></g></g><g id="_编组_192" data-name="&lt;编组&gt;"><g id="_编组_193" data-name="&lt;编组&gt;"><path class="cls-3" d="M214.65 146.49c-.75.37-1.51.77-2.22 1.17l1.24 2.05c.68-.38 1.39-.75 2.09-1.1l-1.12-2.12z" transform="translate(-122.46 -106.32)" id="_编组_194" data-name="&lt;编组&gt;"/></g></g><g id="_编组_195" data-name="&lt;编组&gt;"><g id="_编组_196" data-name="&lt;编组&gt;"><path class="cls-3" d="M236.68 142l-.14 2.37c.79 0 1.59.1 2.38.19l.28-2.36c-.83-.03-1.67-.11-2.52-.2z" transform="translate(-122.46 -106.32)" id="_编组_197" data-name="&lt;编组&gt;"/></g></g><g id="_编组_198" data-name="&lt;编组&gt;"><g id="_编组_199" data-name="&lt;编组&gt;"><path class="cls-3" d="M242.69 222.48c-.79.16-1.58.3-2.35.41l.37 2.35c.82-.12 1.66-.26 2.48-.43l-.5-2.33z" transform="translate(-122.46 -106.32)" id="_编组_200" data-name="&lt;编组&gt;"/></g></g><g id="_编组_201" data-name="&lt;编组&gt;"><g id="_编组_202" data-name="&lt;编组&gt;"><path class="cls-3" d="M240.87 142.47l-.38 2.34c.79.12 1.57.25 2.35.41l.51-2.33c-.81-.15-1.64-.3-2.48-.42z" transform="translate(-122.46 -106.32)" id="_编组_203" data-name="&lt;编组&gt;"/></g></g><g id="_编组_204" data-name="&lt;编组&gt;"><g id="_编组_205" data-name="&lt;编组&gt;"><path class="cls-3" d="M246.54 221.51c-.77.24-1.54.44-2.3.63l.6 2.3c.81-.2 1.63-.42 2.44-.67l-.75-2.26z" transform="translate(-122.46 -106.32)" id="_编组_206" data-name="&lt;编组&gt;"/></g></g><g id="_编组_207" data-name="&lt;编组&gt;"><g id="_编组_208" data-name="&lt;编组&gt;"><path class="cls-3" d="M232.4 223.29l-.11 2.37h2.52v-2.38c-.81.05-1.61.04-2.41.01z" transform="translate(-122.46 -106.32)" id="_编组_209" data-name="&lt;编组&gt;"/></g></g><g id="_编组_210" data-name="&lt;编组&gt;"><g id="_编组_211" data-name="&lt;编组&gt;"><path class="cls-3" d="M230.78 142.11c-.84.06-1.68.16-2.51.27l.32 2.3v.07h.07v.06-.06c.77-.1 1.56-.19 2.36-.25l-.2-2.37z" transform="translate(-122.46 -106.32)" id="_编组_212" data-name="&lt;编组&gt;"/></g></g><g id="_编组_213" data-name="&lt;编组&gt;"><g id="_编组_214" data-name="&lt;编组&gt;"><path class="cls-3" d="M238.76 223.09c-.79.08-1.58.14-2.38.18l.12 2.38c.85 0 1.7-.11 2.52-.2l-.27-2.33z" transform="translate(-122.46 -106.32)" id="_编组_215" data-name="&lt;编组&gt;"/></g></g><g id="_编组_216" data-name="&lt;编组&gt;"><g id="_编组_217" data-name="&lt;编组&gt;"><path class="cls-3" d="M232.47 142l.09 2.34.16.11v-.07h2.32V142h-2.57z" transform="translate(-122.46 -106.32)" id="_编组_218" data-name="&lt;编组&gt;"/></g></g></g><g id="_编组_219" data-name="&lt;编组&gt;" class="cls-5"><g id="_编组_220" data-name="&lt;编组&gt;"><path class="cls-3" d="M229.79 228.47a47.32 47.32 0 01-13.79-3.39 46.58 46.58 0 01-11.77-7 45.4 45.4 0 01-9.07-10 44 44 0 01-5.68-12.31l.39-.1c5 17.67 21.06 30.72 39.94 32.46zm21-2.72l-.15-.37c17.7-6.53 29.59-23.22 29.59-41.52h.38a43.49 43.49 0 01-8.38 25.71 45.6 45.6 0 01-9.44 9.61 46.65 46.65 0 01-12 6.58zm29.34-45.2c-1.4-18.26-14.55-34-32.74-39.27l.16-.37a46.91 46.91 0 0112.57 5.73 46.08 46.08 0 0110.17 9 43.63 43.63 0 0110.26 24.91zm-91-5.21l-.37-.07a43.53 43.53 0 014.76-12.78 45 45 0 018.32-10.64A46.18 46.18 0 01213 144a47.19 47.19 0 0113.36-4.34l.07.39c-18.69 3.1-33.69 17.27-37.3 35.26z" transform="translate(-122.46 -106.32)" id="_编组_221" data-name="&lt;编组&gt;"/></g></g><g id="_编组_222" data-name="&lt;编组&gt;"><g id="_编组_223" data-name="&lt;编组&gt;"><g id="_编组_224" data-name="&lt;编组&gt;"><path class="cls-3" d="M277 165.78l.16.4 11.31-4.67c-.06-.13-.12-.26-.18-.4L277 165.78z" transform="translate(-122.46 -106.32)" id="_编组_225" data-name="&lt;编组&gt;"/></g></g><g id="_编组_226" data-name="&lt;编组&gt;"><g id="_编组_227" data-name="&lt;编组&gt;"><path class="cls-3" d="M273.27 159.39h.11l.17.26 10.45-6.34-.11-.18-.13-.19-10.28 6.45z" transform="translate(-122.46 -106.32)" id="_编组_228" data-name="&lt;编组&gt;"/></g></g><g id="_编组_229" data-name="&lt;编组&gt;"><g id="_编组_230" data-name="&lt;编组&gt;"><path class="cls-3" d="M279.43 172.78V173.09l11.91-2.81c0-.14-.07-.28-.11-.43l-12.2 3h.29z" transform="translate(-122.46 -106.32)" id="_编组_231" data-name="&lt;编组&gt;"/></g></g><g id="_编组_232" data-name="&lt;编组&gt;"><g id="_编组_233" data-name="&lt;编组&gt;"><path class="cls-3" d="M280.68 180v.35l12.27-.91V179z" transform="translate(-122.46 -106.32)" id="_编组_234" data-name="&lt;编组&gt;"/></g></g><g id="_编组_235" data-name="&lt;编组&gt;"><g id="_编组_236" data-name="&lt;编组&gt;"><path class="cls-3" d="M268.73 153.52l.25.25 9.16-7.92-.23-.25-.11-.11-9.07 8z" transform="translate(-122.46 -106.32)" id="_编组_237" data-name="&lt;编组&gt;"/></g></g><g id="_编组_238" data-name="&lt;编组&gt;"><g id="_编组_239" data-name="&lt;编组&gt;"><path class="cls-3" d="M263.17 148.49l.15.12.16.13 7.72-9.25-.34-.26v-.1z" transform="translate(-122.46 -106.32)" id="_编组_240" data-name="&lt;编组&gt;"/></g></g><g id="_编组_241" data-name="&lt;编组&gt;"><g id="_编组_242" data-name="&lt;编组&gt;"><path class="cls-3" d="M271.3 211.15l-.27.34 9.68 7.27.12-.15.16-.2-9.74-7.2z" transform="translate(-122.46 -106.32)" id="_编组_243" data-name="&lt;编组&gt;"/></g></g><g id="_编组_244" data-name="&lt;编组&gt;"><g id="_编组_245" data-name="&lt;编组&gt;"><path class="cls-3" d="M266.22 216.6l-.26.24 8.34 8.68.24-.21.12-.11-8.4-8.62z" transform="translate(-122.46 -106.32)" id="_编组_246" data-name="&lt;编组&gt;"/></g></g><g id="_编组_247" data-name="&lt;编组&gt;"><g id="_编组_248" data-name="&lt;编组&gt;"><path class="cls-3" d="M253.66 224.79l-.15.06-.18.08 5 10.84.49-.21-5.1-10.77z" transform="translate(-122.46 -106.32)" id="_编组_249" data-name="&lt;编组&gt;"/></g></g><g id="_编组_250" data-name="&lt;编组&gt;"><g id="_编组_251" data-name="&lt;编组&gt;"><path class="cls-3" d="M260.28 221.19l-.3.19 6.77 9.87.38-.25-6.85-9.82z" transform="translate(-122.46 -106.32)" id="_编组_252" data-name="&lt;编组&gt;"/></g></g><g id="_编组_253" data-name="&lt;编组&gt;"><g id="_编组_254" data-name="&lt;编组&gt;"><path class="cls-3" d="M275.46 204.87l-.06.1v.03l-.16.3L286 211l.12-.21.11-.21-10.77-5.58v-.13z" transform="translate(-122.46 -106.32)" id="_编组_255" data-name="&lt;编组&gt;"/></g></g><g id="_编组_256" data-name="&lt;编组&gt;"><g id="_编组_257" data-name="&lt;编组&gt;"><path class="cls-3" d="M280.89 183.8v.36l12.3.13v-.48z" transform="translate(-122.46 -106.32)" id="_编组_258" data-name="&lt;编组&gt;"/></g></g><g id="_编组_259" data-name="&lt;编组&gt;"><g id="_编组_260" data-name="&lt;编组&gt;"><path class="cls-3" d="M278.42 198.24l-.12.32 11.62 3.9a1.62 1.62 0 01.07-.19c0-.08 0-.15.08-.23l-11.61-3.79z" transform="translate(-122.46 -106.32)" id="_编组_261" data-name="&lt;编组&gt;"/></g></g><g id="_编组_262" data-name="&lt;编组&gt;"><g id="_编组_263" data-name="&lt;编组&gt;"><path class="cls-3" d="M280.25 191.13c0 .11 0 .23-.06.34l12.09 2v-.12c0-.12 0-.24.07-.36l-12.09-1.91z" transform="translate(-122.46 -106.32)" id="_编组_264" data-name="&lt;编组&gt;"/></g></g><g id="_编组_265" data-name="&lt;编组&gt;"><g id="_编组_266" data-name="&lt;编组&gt;"><path class="cls-3" d="M246.54 227.29l-.35.09 3.12 11.44.44-.11-3.21-11.42z" transform="translate(-122.46 -106.32)" id="_编组_267" data-name="&lt;编组&gt;"/></g></g><g id="_编组_268" data-name="&lt;编组&gt;"><g id="_编组_269" data-name="&lt;编组&gt;"><path class="cls-3" d="M239.08 228.63h-.44l1.15 11.78h.46L239 228.63z" transform="translate(-122.46 -106.32)" id="_编组_270" data-name="&lt;编组&gt;"/></g></g></g><g id="_编组_271" data-name="&lt;编组&gt;"><g id="_编组_272" data-name="&lt;编组&gt;"><path class="cls-3" d="M234.24 231.86c-19.25 0-36.95-10.89-45.08-27.75l.4-.18c8.06 16.71 25.6 27.51 44.68 27.51v.29zm20.94-4.46l-.18-.4c17.32-7.78 28.5-24.73 28.5-43.17v-.12h.44v.12c0 18.62-11.29 35.71-28.76 43.57zm-70.66-43.49v-.07c0-18.58 11.27-35.66 28.7-43.53l.19.38c-17.28 7.8-28.41 24.74-28.41 43.15v.06h-.44zm99.42-.19zm-5.05-20c-8.07-16.68-25.6-27.45-44.65-27.45h-.09v-.42h.09c19.22 0 36.9 10.87 45.05 27.7z" transform="translate(-122.46 -106.32)" id="_编组_273" data-name="&lt;编组&gt;"/></g></g><g id="_编组_274" data-name="&lt;编组&gt;"><g id="_编组_275" data-name="&lt;编组&gt;"><path class="cls-3" d="M253.85 216.9l-2-3.41a34.08 34.08 0 0017.74-29.61h4.07a37.09 37.09 0 01-5.47 19.36 39 39 0 01-14.33 13.68zM199.61 177l-4-.8a38.66 38.66 0 0126.32-28.49l1.28 3.76A34.62 34.62 0 00199.63 177z" transform="translate(-122.46 -106.32)" id="_编组_276" data-name="&lt;编组&gt;"/></g></g><g id="_编组_277" data-name="&lt;编组&gt;"><g id="_编组_278" data-name="&lt;编组&gt;"><g id="_编组_279" data-name="&lt;编组&gt;"><path class="cls-3" d="M234.23 251.1a72.51 72.51 0 01-14.23-1.4l.13-.6a71.75 71.75 0 0014.1 1.39h2.24v.61c-.7-.01-1.47 0-2.24 0zm3.5-.09v-.61a71.28 71.28 0 0016.16-2.66l.18.58a71.59 71.59 0 01-16.3 2.68zm-18.94-1.58a70.54 70.54 0 01-15.58-5.38l.29-.55a70.28 70.28 0 0015.44 5.33zm36.47-1.43l-.19-.58a70.36 70.36 0 0014.93-6.58l.32.53a70.62 70.62 0 01-15.04 6.63zm-53.19-4.48a70.15 70.15 0 01-13.65-9l.42-.47a69.73 69.73 0 0013.48 8.95zm83-13.73l-.46-.42a67.15 67.15 0 009.7-12.77l.56.31a67.66 67.66 0 01-9.79 12.89zm10.41-14l-.56-.29a65.13 65.13 0 006-14.73l.62.16a65.44 65.44 0 01-6.07 14.87zm6.39-16.06l-.62-.15a64.68 64.68 0 001.93-15.72 65.94 65.94 0 00-.56-8.6l.63-.07a65.76 65.76 0 01-1.38 24.55zm.58-25.68a64.42 64.42 0 00-4.31-15.27l.58-.23a65.33 65.33 0 014.36 15.41zm-4.79-16.4a66.13 66.13 0 00-8.19-13.69h-.08l.57-.39a66.58 66.58 0 018.27 13.83zM276.24 131a69.77 69.77 0 00-14.1-8.08l.3-.55a70 70 0 0114.21 8.15zm-65.9-9.67l-.22-.56a71.1 71.1 0 0116.08-3.7l.07.61a71.12 71.12 0 00-15.95 3.67zm33.66-3.47a72.15 72.15 0 00-16.39-.34l-.06-.61a73.45 73.45 0 0116.54.35z" transform="translate(-122.46 -106.32)" id="_编组_280" data-name="&lt;编组&gt;"/></g></g></g><g id="_编组_281" data-name="&lt;编组&gt;" class="cls-6"><g id="_编组_282" data-name="&lt;编组&gt;"><path class="cls-3" d="M234.23 261.36A81.43 81.43 0 01186 245.82l4.2-5.39a74.34 74.34 0 0044 14.18c40.4 0 73.27-31.75 73.27-70.77s-32.87-70.77-73.27-70.77v-6.75c44.25 0 80.26 34.77 80.26 77.52s-35.97 77.52-80.23 77.52z" transform="translate(-122.46 -106.32)" id="_编组_283" data-name="&lt;编组&gt;"/></g></g><g id="_编组_284" data-name="&lt;编组&gt;"><g id="_编组_285" data-name="&lt;编组&gt;"><path class="cls-3" d="M234.23 248.59a68.64 68.64 0 01-26.09-5.09 67 67 0 01-21.31-13.88A64.45 64.45 0 01172.47 209a62.92 62.92 0 010-50.41 64.46 64.46 0 0114.37-20.58 67 67 0 0121.31-13.88 69.45 69.45 0 0152.18 0 67 67 0 0121.31 13.88A64.46 64.46 0 01296 158.64a62.92 62.92 0 010 50.36 64.45 64.45 0 01-14.37 20.58 67 67 0 01-21.31 13.88 68.64 68.64 0 01-26.09 5.13zm0-129.37c-36.89 0-66.91 29-66.91 64.63s30 64.63 66.91 64.63 66.91-29 66.91-64.62-30.01-64.64-66.91-64.64z" transform="translate(-122.46 -106.32)" id="_编组_286" data-name="&lt;编组&gt;"/></g></g><g id="_编组_287" data-name="&lt;编组&gt;"><g id="_编组_288" data-name="&lt;编组&gt;"><ellipse class="cls-3" cx="156.15" cy="56.59" rx="1.47" ry="1.42" id="_编组_289" data-name="&lt;编组&gt;"/></g></g><g id="_编组_290" data-name="&lt;编组&gt;"><g id="_编组_291" data-name="&lt;编组&gt;"><ellipse class="cls-3" cx="67.13" cy="98.12" rx="1.47" ry="1.42" id="_编组_292" data-name="&lt;编组&gt;"/></g></g><g id="_编组_293" data-name="&lt;编组&gt;"><g id="_编组_294" data-name="&lt;编组&gt;"><path class="cls-3" d="M261 123.57a1.73 1.73 0 111.79-1.73 1.76 1.76 0 01-1.79 1.73zm0-2.84a1.11 1.11 0 101.15 1.11 1.13 1.13 0 00-1.15-1.1z" transform="translate(-122.46 -106.32)" id="_编组_295" data-name="&lt;编组&gt;"/></g></g><g id="_编组_296" data-name="&lt;编组&gt;"><g id="_编组_297" data-name="&lt;编组&gt;"><path class="cls-3" d="M277.59 133.29a1.73 1.73 0 111.79-1.73 1.76 1.76 0 01-1.79 1.73zm0-2.84a1.11 1.11 0 101.15 1.11 1.13 1.13 0 00-1.15-1.1z" transform="translate(-122.46 -106.32)" id="_编组_298" data-name="&lt;编组&gt;"/></g></g><g id="_编组_299" data-name="&lt;编组&gt;"><g id="_编组_300" data-name="&lt;编组&gt;"><path class="cls-3" d="M89.92 32.86l3.18.44-1.98 2.44-1.2-2.88z" id="_编组_301" data-name="&lt;编组&gt;"/></g></g><g id="_编组_302" data-name="&lt;编组&gt;"><g id="_编组_303" data-name="&lt;编组&gt;"><path class="cls-3" d="M121.43 9.66l2.46 1.99-3.02 1.06.56-3.05z" id="_编组_304" data-name="&lt;编组&gt;"/></g></g><g id="_编组_305" data-name="&lt;编组&gt;"><g id="_编组_306" data-name="&lt;编组&gt;"><path class="cls-3" d="M163.88 124.03l-3.04.98.64-3.03 2.4 2.05z" id="_编组_307" data-name="&lt;编组&gt;"/></g></g><g id="_编组_308" data-name="&lt;编组&gt;"><g id="_编组_309" data-name="&lt;编组&gt;"><path class="cls-3" d="M65.45 129.6l-1.09-2.92 3.16.55-2.07 2.37z" id="_编组_310" data-name="&lt;编组&gt;"/></g></g></g><g id="_编组_311" data-name="&lt;编组&gt;" class="cls-2"><g id="_编组_312" data-name="&lt;编组&gt;"><g id="_编组_313" data-name="&lt;编组&gt;"><path class="cls-3" d="M249.41 209.23h-30.35l-15.17-25.38.12-.2 15.05-25.19h30.35l15.17 25.38-.12.2zm-29.87-.79h29.4l14.7-24.59-14.7-24.59h-29.4l-14.7 24.59z" transform="translate(-122.46 -106.32)" id="_编组_314" data-name="&lt;编组&gt;"/></g></g><g id="_编组_315" data-name="&lt;编组&gt;"><g id="_编组_316" data-name="&lt;编组&gt;"><path class="cls-3" d="M234.23 213.15L208 198.5v-29.31l.2-.11 26.08-14.54 26.28 14.66v29.3l-.2.11zM208.77 198l25.46 14.2 25.46-14.2v-28.4l-25.46-14.2-25.46 14.2V198z" transform="translate(-122.46 -106.32)" id="_编组_317" data-name="&lt;编组&gt;"/></g></g><g id="_编组_318" data-name="&lt;编组&gt;" class="cls-4"><g id="_编组_319" data-name="&lt;编组&gt;"><path class="cls-3" d="M234.23 216.8c-18.82 0-34.13-14.79-34.13-33s15.31-33 34.13-33 34.13 14.79 34.13 33-15.31 33-34.13 33zm0-65.53c-18.59 0-33.72 14.61-33.72 32.57s15.12 32.57 33.72 32.57 33.72-14.61 33.72-32.57-15.13-32.56-33.72-32.56z" transform="translate(-122.46 -106.32)" id="_编组_320" data-name="&lt;编组&gt;"/></g></g><g id="_编组_321" data-name="&lt;编组&gt;"><g id="_编组_322" data-name="&lt;编组&gt;"><g id="_编组_323" data-name="&lt;编组&gt;"><path class="cls-3" d="M123 193.78l-.07-.34c-.29-3.19-.44-6.42-.44-9.59a105 105 0 0113.6-51.64l.18-.31.32.17 68.63 36.16-.17.27a31 31 0 00-4 15.35c0 1 0 2 .13 2.91v.37h-.35zm13.52-61.05a104.45 104.45 0 00-13.39 51.11c0 3.07.14 6.19.41 9.27l77-6.58c-.07-.85-.11-1.76-.11-2.7a31.61 31.61 0 014-15.38z" transform="translate(-122.46 -106.32)" id="_编组_324" data-name="&lt;编组&gt;"/></g></g><g id="_编组_325" data-name="&lt;编组&gt;"><g id="_编组_326" data-name="&lt;编组&gt;"><path class="cls-3" d="M148.56 254.1v-.78a107.1 107.1 0 01-16.95-26.44 104.31 104.31 0 01-8.55-31v-.36l.44-.12 77.79-8.4v.44a31.32 31.32 0 007.57 17l.07.08.07.4-.21.13zm-24.64-58a103.57 103.57 0 008.45 30.44 106.29 106.29 0 0016.69 26.09l58.94-48a32.11 32.11 0 01-7.48-16.78z" transform="translate(-122.46 -106.32)" id="_编组_327" data-name="&lt;编组&gt;"/></g></g></g><g id="_编组_328" data-name="&lt;编组&gt;"><g id="_编组_329" data-name="&lt;编组&gt;" class="cls-4"><g id="_编组_330" data-name="&lt;编组&gt;"><path class="cls-3" d="M217.07 139.63h-.17l-.24-.11-.11-.17-3.55-9.16.73-.46v.09a61.93 61.93 0 0133.28-2.14l.4.09-.05.39-2.19 9.66-.44-.08a50.81 50.81 0 00-10.54-1.1 50.17 50.17 0 00-17.1 3zm-3-9.05l3.16 8.16a51 51 0 0117-2.9 51.71 51.71 0 0110.36 1l1.93-8.51a61.07 61.07 0 00-32.52 2.25z" transform="translate(-122.46 -106.32)" id="_编组_331" data-name="&lt;编组&gt;"/></g></g><g id="_编组_332" data-name="&lt;编组&gt;" class="cls-4"><g id="_编组_333" data-name="&lt;编组&gt;"><path class="cls-3" d="M185.19 178.34l-.88-.1.1-.78.55.06c0-.15 0-.29.06-.44l.81.11c0 .25-.08.51-.11.76l.06.06-.55-.07zm-2.45-.29l-.88-.1.1-.78.88.1zm-2.44-.29l-.88-.1.1-.78.88.1zm-2.44-.29l-.88-.11.11-.78.87.1zm-1.9-.71l-.81-.1c0-.29.08-.55.11-.79l.81.11c0 .25-.07.5-.11.78zm10.12-1.09l-.81-.14c0-.25.1-.52.15-.78l.81.15c-.05.26-.1.52-.15.77zm-9.77-1.25l-.81-.13c0-.26.1-.53.14-.78l.81.14c0 .23-.08.47-.14.77zm10.25-1.07l-.81-.18c.06-.26.12-.52.19-.78l.79.19c-.08.29-.13.53-.18.76zm-9.79-1.25l-.81-.16.18-.78.8.17-.17.77zm10.39-1l-.79-.21c.06-.23.14-.48.23-.77l.78.23-.23.75zm-9.84-1.26l-.79-.2c.06-.25.13-.51.21-.77l.79.2c-.08.26-.15.52-.21.76zm10.55-1l-.78-.26c.08-.24.17-.48.27-.75l.77.26-.27.74zm-9.9-1.29l-.79-.23c.06-.2.15-.47.24-.73h-.22.27l.75.23q-.12.36-.23.72zm10.73-.93l-.76-.29c.11-.28.21-.52.3-.74l.76.3c-.1.24-.21.48-.31.73zm-10-1.32l-.7-.3.28-.75.74.26-.27.74zm10.93-.85l-.74-.35.34-.72.74.34-.34.71zm-10.08-1.36l-.76-.29c.11-.26.2-.51.31-.74l.76.3c-.09.24-.2.48-.3.73zm11.13-.77L190 162l.39-.71.72.37-.37.67h-.08zm-10.19-1.4l-.75-.33.34-.73.74.33-.34.72zm11.37-.66l-.71-.4c.12-.21.25-.43.42-.69l.71.41-.42.67zm-10.34-1.48l-.74-.35.37-.71.73.36-.37.71zm11.61-.53l-.69-.43v-.07l.43-.64.68.44-.45.66zm-10.48-1.56l-.72-.38.4-.69.71.39-.39.69zm11.85-.39l-.64-.44.49-.64.66.47-.46.6h.09-.13zm-10.64-1.66l-.7-.4.43-.68.69.44-.43.67zm12.12-.21l-.69-.53h.08l.51-.61.63.5-.51.61zm-.6-1.64l-.68-.55.53-.61.67.55zm-10.21-.15l-.69-.44.05-.08.43-.61.68.45-.45.66zm8.33-1.38l-.67-.55.53-.61.68.55zm-6.94-.56l-.66-.46c.16-.22.32-.44.49-.64l.66.47-.48.63zm5.06-1l-.67-.55.53-.6.67.55zm-3.59-.91l-.64-.49.51-.62.64.5-.51.61zm1.71-.61l-.67-.55.53-.61.67.55z" transform="translate(-122.46 -106.32)" id="_编组_334" data-name="&lt;编组&gt;"/></g></g></g><g id="_编组_335" data-name="&lt;编组&gt;"><g id="_编组_336" data-name="&lt;编组&gt;"><g id="_编组_337" data-name="&lt;编组&gt;"><path class="cls-3" d="M193.67 188.75c-.09-.73-.17-1.5-.22-2.3l-2.45.16c.06.79.13 1.61.24 2.43l2.36-.28z" transform="translate(-122.46 -106.32)" id="_编组_338" data-name="&lt;编组&gt;"/></g></g><g id="_编组_339" data-name="&lt;编组&gt;"><g id="_编组_340" data-name="&lt;编组&gt;"><path class="cls-3" d="M193.33 185v-1.08-1.23l-2.47-.07v2.44z" transform="translate(-122.46 -106.32)" id="_编组_341" data-name="&lt;编组&gt;"/></g></g><g id="_编组_342" data-name="&lt;编组&gt;"><g id="_编组_343" data-name="&lt;编组&gt;"><path class="cls-3" d="M193.92 177.26c.13-.76.29-1.52.46-2.26l-2.39-.53c-.19.78-.35 1.58-.49 2.4l2.43.39z" transform="translate(-122.46 -106.32)" id="_编组_344" data-name="&lt;编组&gt;"/></g></g><g id="_编组_345" data-name="&lt;编组&gt;"><g id="_编组_346" data-name="&lt;编组&gt;"><path class="cls-3" d="M193.45 181.12c.06-.77.13-1.54.23-2.3l-2.44-.3c-.11.79-.19 1.62-.25 2.43l2.42.17z" transform="translate(-122.46 -106.32)" id="_编组_347" data-name="&lt;编组&gt;"/></g></g><g id="_编组_348" data-name="&lt;编组&gt;"><g id="_编组_349" data-name="&lt;编组&gt;"><path class="cls-3" d="M194.76 173.51c.21-.73.43-1.47.7-2.21l-2.33-.75c-.27.78-.51 1.55-.72 2.31h-.28l2.63.68z" transform="translate(-122.46 -106.32)" id="_编组_350" data-name="&lt;编组&gt;"/></g></g><g id="_编组_351" data-name="&lt;编组&gt;"><g id="_编组_352" data-name="&lt;编组&gt;"><path class="cls-3" d="M197.59 166.32c.35-.68.73-1.36 1.12-2l-2.14-1.18c-.41.69-.81 1.42-1.2 2.16l2.21 1.05z" transform="translate(-122.46 -106.32)" id="_编组_353" data-name="&lt;编组&gt;"/></g></g><g id="_编组_354" data-name="&lt;编组&gt;"><g id="_编组_355" data-name="&lt;编组&gt;"><path class="cls-3" d="M196 169.88c.29-.73.59-1.45.91-2.14l-2.24-1c-.34.71-.66 1.46-1 2.23h-.2l2.43.89z" transform="translate(-122.46 -106.32)" id="_编组_356" data-name="&lt;编组&gt;"/></g></g><g id="_编组_357" data-name="&lt;编组&gt;"><g id="_编组_358" data-name="&lt;编组&gt;"><path class="cls-3" d="M199.53 163c.42-.65.87-1.3 1.32-1.92l-2-1.38c-.49.67-1 1.35-1.41 2l2.06 1.3z" transform="translate(-122.46 -106.32)" id="_编组_359" data-name="&lt;编组&gt;"/></g></g><g id="_编组_360" data-name="&lt;编组&gt;"><g id="_编组_361" data-name="&lt;编组&gt;"><path class="cls-3" d="M200.74 206.49c-.45-.63-.89-1.27-1.31-1.92l-2.09 1.24c.45.71.92 1.39 1.39 2l2-1.35z" transform="translate(-122.46 -106.32)" id="_编组_362" data-name="&lt;编组&gt;"/></g></g><g id="_编组_363" data-name="&lt;编组&gt;"><g id="_编组_364" data-name="&lt;编组&gt;"><path class="cls-3" d="M203.18 209.52c-.51-.58-1-1.18-1.5-1.8l-2 1.44c.5.63 1 1.28 1.58 1.9l1.86-1.55z" transform="translate(-122.46 -106.32)" id="_编组_365" data-name="&lt;编组&gt;"/></g></g><g id="_编组_366" data-name="&lt;编组&gt;"><g id="_编组_367" data-name="&lt;编组&gt;"><path class="cls-3" d="M194.35 192.54c-.17-.74-.32-1.5-.45-2.27l-2.43.39c.13.78.29 1.58.47 2.4l2.39-.52z" transform="translate(-122.46 -106.32)" id="_编组_368" data-name="&lt;编组&gt;"/></g></g><g id="_编组_369" data-name="&lt;编组&gt;"><g id="_编组_370" data-name="&lt;编组&gt;"><path class="cls-3" d="M205.91 212.31a43.31 43.31 0 01-1.67-1.65l-1.8 1.62c.57.59 1.17 1.18 1.77 1.75l1.71-1.71z" transform="translate(-122.46 -106.32)" id="_编组_371" data-name="&lt;编组&gt;"/></g></g><g id="_编组_372" data-name="&lt;编组&gt;"><g id="_编组_373" data-name="&lt;编组&gt;"><path class="cls-3" d="M195.4 196.21c-.25-.72-.47-1.45-.67-2.19l-2.38.61c.22.78.46 1.55.71 2.3l-.12.06h.18l2.3-.74z" transform="translate(-122.46 -106.32)" id="_编组_374" data-name="&lt;编组&gt;"/></g></g><g id="_编组_375" data-name="&lt;编组&gt;"><g id="_编组_376" data-name="&lt;编组&gt;"><path class="cls-3" d="M198.64 203.28c-.39-.68-.77-1.36-1.11-2l-2.21 1c.37.73.77 1.46 1.18 2.15l2.11-1.15z" transform="translate(-122.46 -106.32)" id="_编组_377" data-name="&lt;编组&gt;"/></g></g><g id="_编组_378" data-name="&lt;编组&gt;"><g id="_编组_379" data-name="&lt;编组&gt;"><path class="cls-3" d="M196.86 199.87l.14-.06h-.17c-.32-.7-.62-1.41-.89-2.11l-2.3.83c.3.76.62 1.52 1 2.26l2.21-.94h.06z" transform="translate(-122.46 -106.32)" id="_编组_380" data-name="&lt;编组&gt;"/></g></g><g id="_编组_381" data-name="&lt;编组&gt;"><g id="_编组_382" data-name="&lt;编组&gt;"><path class="cls-3" d="M201.8 159.81c.49-.62 1-1.22 1.51-1.79l-1.86-1.55c-.53.59-1.06 1.2-1.6 1.89l2 1.45z" transform="translate(-122.46 -106.32)" id="_编组_383" data-name="&lt;编组&gt;"/></g></g><g id="_编组_384" data-name="&lt;编组&gt;"><g id="_编组_385" data-name="&lt;编组&gt;"><path class="cls-3" d="M269.29 163.52c.4.64.8 1.32 1.16 2l2.18-1.11c-.39-.71-.8-1.43-1.24-2.13l-2.11 1.23z" transform="translate(-122.46 -106.32)" id="_编组_386" data-name="&lt;编组&gt;"/></g></g><g id="_编组_387" data-name="&lt;编组&gt;"><g id="_编组_388" data-name="&lt;编组&gt;"><path class="cls-3" d="M271.18 166.85c.33.68.66 1.39 1 2.11l2.28-.89c-.31-.74-.66-1.49-1-2.23l-2.18 1z" transform="translate(-122.46 -106.32)" id="_编组_389" data-name="&lt;编组&gt;"/></g></g><g id="_编组_390" data-name="&lt;编组&gt;"><g id="_编组_391" data-name="&lt;编组&gt;"><path class="cls-3" d="M267.08 160.33c.47.6.93 1.24 1.36 1.89l2.06-1.31c-.45-.67-.94-1.35-1.44-2l-2 1.42z" transform="translate(-122.46 -106.32)" id="_编组_392" data-name="&lt;编组&gt;"/></g></g><g id="_编组_393" data-name="&lt;编组&gt;"><g id="_编组_394" data-name="&lt;编组&gt;"><path class="cls-3" d="M264.55 157.36q.81.87 1.55 1.76l1.92-1.49c-.5-.6-1-1.22-1.62-1.83h.07-.12l-1.82 1.58z" transform="translate(-122.46 -106.32)" id="_编组_395" data-name="&lt;编组&gt;"/></g></g><g id="_编组_396" data-name="&lt;编组&gt;"><g id="_编组_397" data-name="&lt;编组&gt;"><path class="cls-3" d="M272.69 170.44c.27.71.52 1.44.75 2.19l2.36-.67c-.24-.77-.5-1.54-.78-2.28l.28-.07h-.3l-2.29.8z" transform="translate(-122.46 -106.32)" id="_编组_398" data-name="&lt;编组&gt;"/></g></g><g id="_编组_399" data-name="&lt;编组&gt;"><g id="_编组_400" data-name="&lt;编组&gt;"><path class="cls-3" d="M261.75 154.64c.58.51 1.16 1.05 1.71 1.6l1.75-1.66c-.58-.57-1.19-1.14-1.82-1.69l-1.66 1.76z" transform="translate(-122.46 -106.32)" id="_编组_401" data-name="&lt;编组&gt;"/></g></g><g id="_编组_402" data-name="&lt;编组&gt;"><g id="_编组_403" data-name="&lt;编组&gt;"><path class="cls-3" d="M274.64 177.84c.12.78.22 1.54.3 2.29l2.45-.22c-.07-.8-.18-1.62-.3-2.42z" transform="translate(-122.46 -106.32)" id="_编组_404" data-name="&lt;编组&gt;"/></g></g><g id="_编组_405" data-name="&lt;编组&gt;"><g id="_编组_406" data-name="&lt;编组&gt;"><path class="cls-3" d="M208.91 214.84c-.63-.48-1.25-1-1.83-1.48l-1.63 1.77c.61.53 1.26 1.06 1.93 1.58l1.51-1.85z" transform="translate(-122.46 -106.32)" id="_编组_407" data-name="&lt;编组&gt;"/></g></g><g id="_编组_408" data-name="&lt;编组&gt;"><g id="_编组_409" data-name="&lt;编组&gt;"><path class="cls-3" d="M273.86 174.11c.2.74.37 1.5.52 2.25l2.42-.44c-.16-.81-.34-1.62-.55-2.38l-2.39.58z" transform="translate(-122.46 -106.32)" id="_编组_410" data-name="&lt;编组&gt;"/></g></g><g id="_编组_411" data-name="&lt;编组&gt;"><g id="_编组_412" data-name="&lt;编组&gt;"><path class="cls-3" d="M207.23 154.2c.6-.51 1.21-1 1.84-1.47l-1.52-1.88c-.67.51-1.32 1-1.94 1.56l1.62 1.78z" transform="translate(-122.46 -106.32)" id="_编组_413" data-name="&lt;编组&gt;"/></g></g><g id="_编组_414" data-name="&lt;编组&gt;"><g id="_编组_415" data-name="&lt;编组&gt;"><path class="cls-3" d="M210.34 151.8c.63-.44 1.3-.88 2-1.29l-1.32-2c-.72.44-1.42.9-2.09 1.37l1.44 1.92z" transform="translate(-122.46 -106.32)" id="_编组_416" data-name="&lt;编组&gt;"/></g></g><g id="_编组_417" data-name="&lt;编组&gt;"><g id="_编组_418" data-name="&lt;编组&gt;"><path class="cls-3" d="M204.37 156.87c.53-.54 1.09-1.09 1.68-1.63l-1.69-1.72c-.61.57-1.22 1.16-1.78 1.73l1.8 1.62z" transform="translate(-122.46 -106.32)" id="_编组_419" data-name="&lt;编组&gt;"/></g></g><g id="_编组_420" data-name="&lt;编组&gt;"><g id="_编组_421" data-name="&lt;编组&gt;"><path class="cls-3" d="M258.67 152.19c.63.45 1.26.93 1.87 1.43l1.58-1.82c-.64-.51-1.3-1-1.94-1.49h-.1l-1.48 1.89z" transform="translate(-122.46 -106.32)" id="_编组_422" data-name="&lt;编组&gt;"/></g></g><g id="_编组_423" data-name="&lt;编组&gt;"><g id="_编组_424" data-name="&lt;编组&gt;"><path class="cls-3" d="M220.87 146.51c.75-.25 1.51-.48 2.28-.69l-.66-2.29c-.81.22-1.62.47-2.42.74l.8 2.25z" transform="translate(-122.46 -106.32)" id="_编组_425" data-name="&lt;编组&gt;"/></g></g><g id="_编组_426" data-name="&lt;编组&gt;"><g id="_编组_427" data-name="&lt;编组&gt;"><path class="cls-3" d="M257.38 151.29l1.39-2c-.7-.46-1.42-.91-2.13-1.32l-1.28 2c.64.46 1.36.88 2.02 1.32z" transform="translate(-122.46 -106.32)" id="_编组_428" data-name="&lt;编组&gt;"/></g></g><g id="_编组_429" data-name="&lt;编组&gt;"><g id="_编组_430" data-name="&lt;编组&gt;"><path class="cls-3" d="M254 149.27l1.19-2.08a52.4 52.4 0 00-2.25-1.12l-1 2.11v.06h.06l2 1.03z" transform="translate(-122.46 -106.32)" id="_编组_431" data-name="&lt;编组&gt;"/></g></g><g id="_编组_432" data-name="&lt;编组&gt;"><g id="_编组_433" data-name="&lt;编组&gt;"><path class="cls-3" d="M224.54 222.21l-.58 2.3c.82.2 1.65.36 2.48.51l.43-2.3c-.79-.17-1.58-.33-2.33-.51z" transform="translate(-122.46 -106.32)" id="_编组_434" data-name="&lt;编组&gt;"/></g></g><g id="_编组_435" data-name="&lt;编组&gt;"><g id="_编组_436" data-name="&lt;编组&gt;"><path class="cls-3" d="M260.43 214.17c-.64.51-1.27 1-1.88 1.42l1.46 1.92c.69-.49 1.35-1 2-1.5H262l-1.57-1.83z" transform="translate(-122.46 -106.32)" id="_编组_437" data-name="&lt;编组&gt;"/></g></g><g id="_编组_438" data-name="&lt;编组&gt;"><g id="_编组_439" data-name="&lt;编组&gt;"><path class="cls-3" d="M263.39 211.52v.08c-.53.52-1.09 1-1.71 1.58l1.64 1.77c.63-.55 1.25-1.12 1.83-1.69l-1.71-1.63v-.08z" transform="translate(-122.46 -106.32)" id="_编组_440" data-name="&lt;编组&gt;"/></g></g><g id="_编组_441" data-name="&lt;编组&gt;"><g id="_编组_442" data-name="&lt;编组&gt;"><path class="cls-3" d="M257.22 216.5c-.66.43-1.33.85-2 1.24l1.26 2c.7-.4 1.42-.85 2.13-1.31l-1.39-2z" transform="translate(-122.46 -106.32)" id="_编组_443" data-name="&lt;编组&gt;"/></g></g><g id="_编组_444" data-name="&lt;编组&gt;"><g id="_编组_445" data-name="&lt;编组&gt;"><path class="cls-3" d="M250.26 220.18c-.71.29-1.46.58-2.21.84l.83 2.23c.79-.28 1.57-.58 2.35-.89l-1-2.19z" transform="translate(-122.46 -106.32)" id="_编组_446" data-name="&lt;编组&gt;"/></g></g><g id="_编组_447" data-name="&lt;编组&gt;"><g id="_编组_448" data-name="&lt;编组&gt;"><path class="cls-3" d="M253.83 218.51c-.72.37-1.43.73-2.13 1l1.06 2.15c.78-.36 1.53-.73 2.25-1.11l-1.18-2.08z" transform="translate(-122.46 -106.32)" id="_编组_449" data-name="&lt;编组&gt;"/></g></g><g id="_编组_450" data-name="&lt;编组&gt;"><g id="_编组_451" data-name="&lt;编组&gt;"><path class="cls-3" d="M245 143.28l-.61 2.3c.75.19 1.52.4 2.29.63l.75-2.27c-.79-.22-1.61-.45-2.43-.66z" transform="translate(-122.46 -106.32)" id="_编组_452" data-name="&lt;编组&gt;"/></g></g><g id="_编组_453" data-name="&lt;编组&gt;"><g id="_编组_454" data-name="&lt;编组&gt;"><path class="cls-3" d="M249 144.49l-.84 2.23c.72.25 1.48.55 2.22.86l1-2.19c-.78-.33-1.56-.63-2.38-.9z" transform="translate(-122.46 -106.32)" id="_编组_455" data-name="&lt;编组&gt;"/></g></g><g id="_编组_456" data-name="&lt;编组&gt;"><g id="_编组_457" data-name="&lt;编组&gt;"><path class="cls-3" d="M266 208.72c-.52.62-1 1.2-1.56 1.75l1.82 1.61a42 42 0 001.66-1.85l-1.91-1.5z" transform="translate(-122.46 -106.32)" id="_编组_458" data-name="&lt;编组&gt;"/></g></g><g id="_编组_459" data-name="&lt;编组&gt;"><g id="_编组_460" data-name="&lt;编组&gt;"><path class="cls-3" d="M268.4 205.52v.14c-.43.63-.89 1.26-1.37 1.88l2 1.43c.5-.64 1-1.3 1.44-2v-.06l-2-1.29v-.11z" transform="translate(-122.46 -106.32)" id="_编组_461" data-name="&lt;编组&gt;"/></g></g><g id="_编组_462" data-name="&lt;编组&gt;"><g id="_编组_463" data-name="&lt;编组&gt;"><path class="cls-3" d="M274.92 187.68c-.08.76-.18 1.53-.3 2.29l2.43.36c.13-.83.24-1.65.31-2.42l-2.45-.23z" transform="translate(-122.46 -106.32)" id="_编组_464" data-name="&lt;编组&gt;"/></g></g><g id="_编组_465" data-name="&lt;编组&gt;"><g id="_编组_466" data-name="&lt;编组&gt;"><path class="cls-3" d="M277.51 181.57l-2.46.13c0 .7.06 1.42.06 2.15s0 1.55-.07 2.3l2.46.14c0-.8.07-1.62.07-2.45s-.02-1.52-.06-2.27z" transform="translate(-122.46 -106.32)" id="_编组_467" data-name="&lt;编组&gt;"/></g></g><g id="_编组_468" data-name="&lt;编组&gt;"><g id="_编组_469" data-name="&lt;编组&gt;"><path class="cls-3" d="M274.35 191.48c-.16.76-.34 1.52-.53 2.25l2.39.59c.2-.78.39-1.58.56-2.38l-2.41-.46z" transform="translate(-122.46 -106.32)" id="_编组_470" data-name="&lt;编组&gt;"/></g></g><g id="_编组_471" data-name="&lt;编组&gt;"><g id="_编组_472" data-name="&lt;编组&gt;"><path class="cls-3" d="M270.41 202.3c-.37.67-.76 1.35-1.18 2l2.1 1.24c.43-.68.84-1.39 1.24-2.11h.14l-2.25-1.15z" transform="translate(-122.46 -106.32)" id="_编组_473" data-name="&lt;编组&gt;"/></g></g><g id="_编组_474" data-name="&lt;编组&gt;"><g id="_编组_475" data-name="&lt;编组&gt;"><path class="cls-3" d="M272.06 198.84c-.3.69-.62 1.4-1 2.11l2.21 1c.36-.74.71-1.49 1-2.23l-2.26-.93z" transform="translate(-122.46 -106.32)" id="_编组_476" data-name="&lt;编组&gt;"/></g></g><g id="_编组_477" data-name="&lt;编组&gt;"><g id="_编组_478" data-name="&lt;编组&gt;"><path class="cls-3" d="M273.44 195.18c-.23.74-.48 1.47-.75 2.19l2.3.82c.29-.75.56-1.54.8-2.32l-2.31-.67z" transform="translate(-122.46 -106.32)" id="_编组_479" data-name="&lt;编组&gt;"/></g></g><g id="_编组_480" data-name="&lt;编组&gt;"><g id="_编组_481" data-name="&lt;编组&gt;"><path class="cls-3" d="M217 219.67l-1 2.15c.73.33 1.52.66 2.33 1l.89-2.17c-.73-.35-1.47-.65-2.22-.98z" transform="translate(-122.46 -106.32)" id="_编组_482" data-name="&lt;编组&gt;"/></g></g><g id="_编组_483" data-name="&lt;编组&gt;"><g id="_编组_484" data-name="&lt;编组&gt;"><path class="cls-3" d="M223 221.82c-.75-.21-1.52-.44-2.27-.7l-.81 2.25c.8.27 1.61.52 2.41.74l.67-2.21h.26l-.25-.07z" transform="translate(-122.46 -106.32)" id="_编组_485" data-name="&lt;编组&gt;"/></g></g><g id="_编组_486" data-name="&lt;编组&gt;"><g id="_编组_487" data-name="&lt;编组&gt;"><path class="cls-3" d="M218.49 144.83c-.8.31-1.58.63-2.33 1l1 2.16c.71-.32 1.44-.62 2.19-.9l-.89-2.21z" transform="translate(-122.46 -106.32)" id="_编组_488" data-name="&lt;编组&gt;"/></g></g><g id="_编组_489" data-name="&lt;编组&gt;"><g id="_编组_490" data-name="&lt;编组&gt;"><path class="cls-3" d="M226.6 142.63c-.84.14-1.66.31-2.48.5l.57 2.3c.78-.17 1.57-.33 2.34-.47l-.43-2.34z" transform="translate(-122.46 -106.32)" id="_编组_491" data-name="&lt;编组&gt;"/></g></g><g id="_编组_492" data-name="&lt;编组&gt;"><g id="_编组_493" data-name="&lt;编组&gt;"><path class="cls-3" d="M228.44 222.93l-.35 2.35c.84.12 1.68.21 2.52.27l.2-2.34c-.81-.09-1.59-.21-2.37-.28z" transform="translate(-122.46 -106.32)" id="_编组_494" data-name="&lt;编组&gt;"/></g></g><g id="_编组_495" data-name="&lt;编组&gt;"><g id="_编组_496" data-name="&lt;编组&gt;"><path class="cls-3" d="M210.18 215.77l-1.43 1.89c.7.49 1.39 1 2.09 1.39l1.3-1.94c-.67-.46-1.34-.89-1.96-1.34z" transform="translate(-122.46 -106.32)" id="_编组_497" data-name="&lt;编组&gt;"/></g></g><g id="_编组_498" data-name="&lt;编组&gt;"><g id="_编组_499" data-name="&lt;编组&gt;"><path class="cls-3" d="M213.51 217.88l-1.25 2c.75.42 1.49.82 2.22 1.18l1.12-2.1c-.73-.33-1.44-.7-2.09-1.08z" transform="translate(-122.46 -106.32)" id="_编组_500" data-name="&lt;编组&gt;"/></g></g><g id="_编组_501" data-name="&lt;编组&gt;"><g id="_编组_502" data-name="&lt;编组&gt;"><path class="cls-3" d="M214.65 146.49c-.75.37-1.51.77-2.22 1.17l1.24 2.05c.68-.38 1.39-.75 2.09-1.1l-1.12-2.12z" transform="translate(-122.46 -106.32)" id="_编组_503" data-name="&lt;编组&gt;"/></g></g><g id="_编组_504" data-name="&lt;编组&gt;"><g id="_编组_505" data-name="&lt;编组&gt;"><path class="cls-3" d="M236.68 142l-.14 2.37c.79 0 1.59.1 2.38.19l.28-2.36c-.83-.03-1.67-.11-2.52-.2z" transform="translate(-122.46 -106.32)" id="_编组_506" data-name="&lt;编组&gt;"/></g></g><g id="_编组_507" data-name="&lt;编组&gt;"><g id="_编组_508" data-name="&lt;编组&gt;"><path class="cls-3" d="M242.69 222.48c-.79.16-1.58.3-2.35.41l.37 2.35c.82-.12 1.66-.26 2.48-.43l-.5-2.33z" transform="translate(-122.46 -106.32)" id="_编组_509" data-name="&lt;编组&gt;"/></g></g><g id="_编组_510" data-name="&lt;编组&gt;"><g id="_编组_511" data-name="&lt;编组&gt;"><path class="cls-3" d="M240.87 142.47l-.38 2.34c.79.12 1.57.25 2.35.41l.51-2.33c-.81-.15-1.64-.3-2.48-.42z" transform="translate(-122.46 -106.32)" id="_编组_512" data-name="&lt;编组&gt;"/></g></g><g id="_编组_513" data-name="&lt;编组&gt;"><g id="_编组_514" data-name="&lt;编组&gt;"><path class="cls-3" d="M246.54 221.51c-.77.24-1.54.44-2.3.63l.6 2.3c.81-.2 1.63-.42 2.44-.67l-.75-2.26z" transform="translate(-122.46 -106.32)" id="_编组_515" data-name="&lt;编组&gt;"/></g></g><g id="_编组_516" data-name="&lt;编组&gt;"><g id="_编组_517" data-name="&lt;编组&gt;"><path class="cls-3" d="M232.4 223.29l-.11 2.37h2.52v-2.38c-.81.05-1.61.04-2.41.01z" transform="translate(-122.46 -106.32)" id="_编组_518" data-name="&lt;编组&gt;"/></g></g><g id="_编组_519" data-name="&lt;编组&gt;"><g id="_编组_520" data-name="&lt;编组&gt;"><path class="cls-3" d="M230.78 142.11c-.84.06-1.68.16-2.51.27l.32 2.3v.07h.07v.06-.06c.77-.1 1.56-.19 2.36-.25l-.2-2.37z" transform="translate(-122.46 -106.32)" id="_编组_521" data-name="&lt;编组&gt;"/></g></g><g id="_编组_522" data-name="&lt;编组&gt;"><g id="_编组_523" data-name="&lt;编组&gt;"><path class="cls-3" d="M238.76 223.09c-.79.08-1.58.14-2.38.18l.12 2.38c.85 0 1.7-.11 2.52-.2l-.27-2.33z" transform="translate(-122.46 -106.32)" id="_编组_524" data-name="&lt;编组&gt;"/></g></g><g id="_编组_525" data-name="&lt;编组&gt;"><g id="_编组_526" data-name="&lt;编组&gt;"><path class="cls-3" d="M232.47 142l.09 2.34.16.11v-.07h2.32V142h-2.57z" transform="translate(-122.46 -106.32)" id="_编组_527" data-name="&lt;编组&gt;"/></g></g></g><g id="_编组_528" data-name="&lt;编组&gt;" class="cls-5"><g id="_编组_529" data-name="&lt;编组&gt;"><path class="cls-3" d="M229.79 228.47a47.32 47.32 0 01-13.79-3.39 46.58 46.58 0 01-11.77-7 45.4 45.4 0 01-9.07-10 44 44 0 01-5.68-12.31l.39-.1c5 17.67 21.06 30.72 39.94 32.46zm21-2.72l-.15-.37c17.7-6.53 29.59-23.22 29.59-41.52h.38a43.49 43.49 0 01-8.38 25.71 45.6 45.6 0 01-9.44 9.61 46.65 46.65 0 01-12 6.58zm29.34-45.2c-1.4-18.26-14.55-34-32.74-39.27l.16-.37a46.91 46.91 0 0112.57 5.73 46.08 46.08 0 0110.17 9 43.63 43.63 0 0110.26 24.91zm-91-5.21l-.37-.07a43.53 43.53 0 014.76-12.78 45 45 0 018.32-10.64A46.18 46.18 0 01213 144a47.19 47.19 0 0113.36-4.34l.07.39c-18.69 3.1-33.69 17.27-37.3 35.26z" transform="translate(-122.46 -106.32)" id="_编组_530" data-name="&lt;编组&gt;"/></g></g><g id="_编组_531" data-name="&lt;编组&gt;"><g id="_编组_532" data-name="&lt;编组&gt;"><g id="_编组_533" data-name="&lt;编组&gt;"><path class="cls-3" d="M277 165.78l.16.4 11.31-4.67c-.06-.13-.12-.26-.18-.4L277 165.78z" transform="translate(-122.46 -106.32)" id="_编组_534" data-name="&lt;编组&gt;"/></g></g><g id="_编组_535" data-name="&lt;编组&gt;"><g id="_编组_536" data-name="&lt;编组&gt;"><path class="cls-3" d="M273.27 159.39h.11l.17.26 10.45-6.34-.11-.18-.13-.19-10.28 6.45z" transform="translate(-122.46 -106.32)" id="_编组_537" data-name="&lt;编组&gt;"/></g></g><g id="_编组_538" data-name="&lt;编组&gt;"><g id="_编组_539" data-name="&lt;编组&gt;"><path class="cls-3" d="M279.43 172.78V173.09l11.91-2.81c0-.14-.07-.28-.11-.43l-12.2 3h.29z" transform="translate(-122.46 -106.32)" id="_编组_540" data-name="&lt;编组&gt;"/></g></g><g id="_编组_541" data-name="&lt;编组&gt;"><g id="_编组_542" data-name="&lt;编组&gt;"><path class="cls-3" d="M280.68 180v.35l12.27-.91V179z" transform="translate(-122.46 -106.32)" id="_编组_543" data-name="&lt;编组&gt;"/></g></g><g id="_编组_544" data-name="&lt;编组&gt;"><g id="_编组_545" data-name="&lt;编组&gt;"><path class="cls-3" d="M268.73 153.52l.25.25 9.16-7.92-.23-.25-.11-.11-9.07 8z" transform="translate(-122.46 -106.32)" id="_编组_546" data-name="&lt;编组&gt;"/></g></g><g id="_编组_547" data-name="&lt;编组&gt;"><g id="_编组_548" data-name="&lt;编组&gt;"><path class="cls-3" d="M263.17 148.49l.15.12.16.13 7.72-9.25-.34-.26v-.1z" transform="translate(-122.46 -106.32)" id="_编组_549" data-name="&lt;编组&gt;"/></g></g><g id="_编组_550" data-name="&lt;编组&gt;"><g id="_编组_551" data-name="&lt;编组&gt;"><path class="cls-3" d="M271.3 211.15l-.27.34 9.68 7.27.12-.15.16-.2-9.74-7.2z" transform="translate(-122.46 -106.32)" id="_编组_552" data-name="&lt;编组&gt;"/></g></g><g id="_编组_553" data-name="&lt;编组&gt;"><g id="_编组_554" data-name="&lt;编组&gt;"><path class="cls-3" d="M266.22 216.6l-.26.24 8.34 8.68.24-.21.12-.11-8.4-8.62z" transform="translate(-122.46 -106.32)" id="_编组_555" data-name="&lt;编组&gt;"/></g></g><g id="_编组_556" data-name="&lt;编组&gt;"><g id="_编组_557" data-name="&lt;编组&gt;"><path class="cls-3" d="M253.66 224.79l-.15.06-.18.08 5 10.84.49-.21-5.1-10.77z" transform="translate(-122.46 -106.32)" id="_编组_558" data-name="&lt;编组&gt;"/></g></g><g id="_编组_559" data-name="&lt;编组&gt;"><g id="_编组_560" data-name="&lt;编组&gt;"><path class="cls-3" d="M260.28 221.19l-.3.19 6.77 9.87.38-.25-6.85-9.82z" transform="translate(-122.46 -106.32)" id="_编组_561" data-name="&lt;编组&gt;"/></g></g><g id="_编组_562" data-name="&lt;编组&gt;"><g id="_编组_563" data-name="&lt;编组&gt;"><path class="cls-3" d="M275.46 204.87l-.06.1v.03l-.16.3L286 211l.12-.21.11-.21-10.77-5.58v-.13z" transform="translate(-122.46 -106.32)" id="_编组_564" data-name="&lt;编组&gt;"/></g></g><g id="_编组_565" data-name="&lt;编组&gt;"><g id="_编组_566" data-name="&lt;编组&gt;"><path class="cls-3" d="M280.89 183.8v.36l12.3.13v-.48z" transform="translate(-122.46 -106.32)" id="_编组_567" data-name="&lt;编组&gt;"/></g></g><g id="_编组_568" data-name="&lt;编组&gt;"><g id="_编组_569" data-name="&lt;编组&gt;"><path class="cls-3" d="M278.42 198.24l-.12.32 11.62 3.9a1.62 1.62 0 01.07-.19c0-.08 0-.15.08-.23l-11.61-3.79z" transform="translate(-122.46 -106.32)" id="_编组_570" data-name="&lt;编组&gt;"/></g></g><g id="_编组_571" data-name="&lt;编组&gt;"><g id="_编组_572" data-name="&lt;编组&gt;"><path class="cls-3" d="M280.25 191.13c0 .11 0 .23-.06.34l12.09 2v-.12c0-.12 0-.24.07-.36l-12.09-1.91z" transform="translate(-122.46 -106.32)" id="_编组_573" data-name="&lt;编组&gt;"/></g></g><g id="_编组_574" data-name="&lt;编组&gt;"><g id="_编组_575" data-name="&lt;编组&gt;"><path class="cls-3" d="M246.54 227.29l-.35.09 3.12 11.44.44-.11-3.21-11.42z" transform="translate(-122.46 -106.32)" id="_编组_576" data-name="&lt;编组&gt;"/></g></g><g id="_编组_577" data-name="&lt;编组&gt;"><g id="_编组_578" data-name="&lt;编组&gt;"><path class="cls-3" d="M239.08 228.63h-.44l1.15 11.78h.46L239 228.63z" transform="translate(-122.46 -106.32)" id="_编组_579" data-name="&lt;编组&gt;"/></g></g></g><g id="_编组_580" data-name="&lt;编组&gt;"><g id="_编组_581" data-name="&lt;编组&gt;"><path class="cls-3" d="M234.24 231.86c-19.25 0-36.95-10.89-45.08-27.75l.4-.18c8.06 16.71 25.6 27.51 44.68 27.51v.29zm20.94-4.46l-.18-.4c17.32-7.78 28.5-24.73 28.5-43.17v-.12h.44v.12c0 18.62-11.29 35.71-28.76 43.57zm-70.66-43.49v-.07c0-18.58 11.27-35.66 28.7-43.53l.19.38c-17.28 7.8-28.41 24.74-28.41 43.15v.06h-.44zm99.42-.19zm-5.05-20c-8.07-16.68-25.6-27.45-44.65-27.45h-.09v-.42h.09c19.22 0 36.9 10.87 45.05 27.7z" transform="translate(-122.46 -106.32)" id="_编组_582" data-name="&lt;编组&gt;"/></g></g><g id="_编组_583" data-name="&lt;编组&gt;"><g id="_编组_584" data-name="&lt;编组&gt;"><path class="cls-3" d="M253.85 216.9l-2-3.41a34.08 34.08 0 0017.74-29.61h4.07a37.09 37.09 0 01-5.47 19.36 39 39 0 01-14.33 13.68zM199.61 177l-4-.8a38.66 38.66 0 0126.32-28.49l1.28 3.76A34.62 34.62 0 00199.63 177z" transform="translate(-122.46 -106.32)" id="_编组_585" data-name="&lt;编组&gt;"/></g></g><g id="_编组_586" data-name="&lt;编组&gt;"><g id="_编组_587" data-name="&lt;编组&gt;"><g id="_编组_588" data-name="&lt;编组&gt;"><path class="cls-3" d="M234.23 251.1a72.51 72.51 0 01-14.23-1.4l.13-.6a71.75 71.75 0 0014.1 1.39h2.24v.61c-.7-.01-1.47 0-2.24 0zm3.5-.09v-.61a71.28 71.28 0 0016.16-2.66l.18.58a71.59 71.59 0 01-16.3 2.68zm-18.94-1.58a70.54 70.54 0 01-15.58-5.38l.29-.55a70.28 70.28 0 0015.44 5.33zm36.47-1.43l-.19-.58a70.36 70.36 0 0014.93-6.58l.32.53a70.62 70.62 0 01-15.04 6.63zm-53.19-4.48a70.15 70.15 0 01-13.65-9l.42-.47a69.73 69.73 0 0013.48 8.95zm83-13.73l-.46-.42a67.15 67.15 0 009.7-12.77l.56.31a67.66 67.66 0 01-9.79 12.89zm10.41-14l-.56-.29a65.13 65.13 0 006-14.73l.62.16a65.44 65.44 0 01-6.07 14.87zm6.39-16.06l-.62-.15a64.68 64.68 0 001.93-15.72 65.94 65.94 0 00-.56-8.6l.63-.07a65.76 65.76 0 01-1.38 24.55zm.58-25.68a64.42 64.42 0 00-4.31-15.27l.58-.23a65.33 65.33 0 014.36 15.41zm-4.79-16.4a66.13 66.13 0 00-8.19-13.69h-.08l.57-.39a66.58 66.58 0 018.27 13.83zM276.24 131a69.77 69.77 0 00-14.1-8.08l.3-.55a70 70 0 0114.21 8.15zm-65.9-9.67l-.22-.56a71.1 71.1 0 0116.08-3.7l.07.61a71.12 71.12 0 00-15.95 3.67zm33.66-3.47a72.15 72.15 0 00-16.39-.34l-.06-.61a73.45 73.45 0 0116.54.35z" transform="translate(-122.46 -106.32)" id="_编组_589" data-name="&lt;编组&gt;"/></g></g></g><g id="_编组_590" data-name="&lt;编组&gt;" class="cls-6"><g id="_编组_591" data-name="&lt;编组&gt;"><path class="cls-3" d="M234.23 261.36A81.43 81.43 0 01186 245.82l4.2-5.39a74.34 74.34 0 0044 14.18c40.4 0 73.27-31.75 73.27-70.77s-32.87-70.77-73.27-70.77v-6.75c44.25 0 80.26 34.77 80.26 77.52s-35.97 77.52-80.23 77.52z" transform="translate(-122.46 -106.32)" id="_编组_592" data-name="&lt;编组&gt;"/></g></g><g id="_编组_593" data-name="&lt;编组&gt;"><g id="_编组_594" data-name="&lt;编组&gt;"><path class="cls-3" d="M234.23 248.59a68.64 68.64 0 01-26.09-5.09 67 67 0 01-21.31-13.88A64.45 64.45 0 01172.47 209a62.92 62.92 0 010-50.41 64.46 64.46 0 0114.37-20.58 67 67 0 0121.31-13.88 69.45 69.45 0 0152.18 0 67 67 0 0121.31 13.88A64.46 64.46 0 01296 158.64a62.92 62.92 0 010 50.36 64.45 64.45 0 01-14.37 20.58 67 67 0 01-21.31 13.88 68.64 68.64 0 01-26.09 5.13zm0-129.37c-36.89 0-66.91 29-66.91 64.63s30 64.63 66.91 64.63 66.91-29 66.91-64.62-30.01-64.64-66.91-64.64z" transform="translate(-122.46 -106.32)" id="_编组_595" data-name="&lt;编组&gt;"/></g></g><g id="_编组_596" data-name="&lt;编组&gt;"><g id="_编组_597" data-name="&lt;编组&gt;"><ellipse class="cls-3" cx="156.15" cy="56.59" rx="1.47" ry="1.42" id="_编组_598" data-name="&lt;编组&gt;"/></g></g><g id="_编组_599" data-name="&lt;编组&gt;"><g id="_编组_600" data-name="&lt;编组&gt;"><ellipse class="cls-3" cx="67.13" cy="98.12" rx="1.47" ry="1.42" id="_编组_601" data-name="&lt;编组&gt;"/></g></g><g id="_编组_602" data-name="&lt;编组&gt;"><g id="_编组_603" data-name="&lt;编组&gt;"><path class="cls-3" d="M261 123.57a1.73 1.73 0 111.79-1.73 1.76 1.76 0 01-1.79 1.73zm0-2.84a1.11 1.11 0 101.15 1.11 1.13 1.13 0 00-1.15-1.1z" transform="translate(-122.46 -106.32)" id="_编组_604" data-name="&lt;编组&gt;"/></g></g><g id="_编组_605" data-name="&lt;编组&gt;"><g id="_编组_606" data-name="&lt;编组&gt;"><path class="cls-3" d="M277.59 133.29a1.73 1.73 0 111.79-1.73 1.76 1.76 0 01-1.79 1.73zm0-2.84a1.11 1.11 0 101.15 1.11 1.13 1.13 0 00-1.15-1.1z" transform="translate(-122.46 -106.32)" id="_编组_607" data-name="&lt;编组&gt;"/></g></g><g id="_编组_608" data-name="&lt;编组&gt;"><g id="_编组_609" data-name="&lt;编组&gt;"><path class="cls-3" d="M89.92 32.86l3.18.44-1.98 2.44-1.2-2.88z" id="_编组_610" data-name="&lt;编组&gt;"/></g></g><g id="_编组_611" data-name="&lt;编组&gt;"><g id="_编组_612" data-name="&lt;编组&gt;"><path class="cls-3" d="M121.43 9.66l2.46 1.99-3.02 1.06.56-3.05z" id="_编组_613" data-name="&lt;编组&gt;"/></g></g><g id="_编组_614" data-name="&lt;编组&gt;"><g id="_编组_615" data-name="&lt;编组&gt;"><path class="cls-3" d="M163.88 124.03l-3.04.98.64-3.03 2.4 2.05z" id="_编组_616" data-name="&lt;编组&gt;"/></g></g><g id="_编组_617" data-name="&lt;编组&gt;"><g id="_编组_618" data-name="&lt;编组&gt;"><path class="cls-3" d="M65.45 129.6l-1.09-2.92 3.16.55-2.07 2.37z" id="_编组_619" data-name="&lt;编组&gt;"/></g></g></g><g id="_编组_620" data-name="&lt;编组&gt;" class="cls-2"><g id="_编组_621" data-name="&lt;编组&gt;"><g id="_编组_622" data-name="&lt;编组&gt;"><path class="cls-3" d="M249.41 209.23h-30.35l-15.17-25.38.12-.2 15.05-25.19h30.35l15.17 25.38-.12.2zm-29.87-.79h29.4l14.7-24.59-14.7-24.59h-29.4l-14.7 24.59z" transform="translate(-122.46 -106.32)" id="_编组_623" data-name="&lt;编组&gt;"/></g></g><g id="_编组_624" data-name="&lt;编组&gt;"><g id="_编组_625" data-name="&lt;编组&gt;"><path class="cls-3" d="M234.23 213.15L208 198.5v-29.31l.2-.11 26.08-14.54 26.28 14.66v29.3l-.2.11zM208.77 198l25.46 14.2 25.46-14.2v-28.4l-25.46-14.2-25.46 14.2V198z" transform="translate(-122.46 -106.32)" id="_编组_626" data-name="&lt;编组&gt;"/></g></g><g id="_编组_627" data-name="&lt;编组&gt;" class="cls-4"><g id="_编组_628" data-name="&lt;编组&gt;"><path class="cls-3" d="M234.23 216.8c-18.82 0-34.13-14.79-34.13-33s15.31-33 34.13-33 34.13 14.79 34.13 33-15.31 33-34.13 33zm0-65.53c-18.59 0-33.72 14.61-33.72 32.57s15.12 32.57 33.72 32.57 33.72-14.61 33.72-32.57-15.13-32.56-33.72-32.56z" transform="translate(-122.46 -106.32)" id="_编组_629" data-name="&lt;编组&gt;"/></g></g><g id="_编组_630" data-name="&lt;编组&gt;"><g id="_编组_631" data-name="&lt;编组&gt;"><g id="_编组_632" data-name="&lt;编组&gt;"><path class="cls-3" d="M123 193.78l-.07-.34c-.29-3.19-.44-6.42-.44-9.59a105 105 0 0113.6-51.64l.18-.31.32.17 68.63 36.16-.17.27a31 31 0 00-4 15.35c0 1 0 2 .13 2.91v.37h-.35zm13.52-61.05a104.45 104.45 0 00-13.39 51.11c0 3.07.14 6.19.41 9.27l77-6.58c-.07-.85-.11-1.76-.11-2.7a31.61 31.61 0 014-15.38z" transform="translate(-122.46 -106.32)" id="_编组_633" data-name="&lt;编组&gt;"/></g></g><g id="_编组_634" data-name="&lt;编组&gt;"><g id="_编组_635" data-name="&lt;编组&gt;"><path class="cls-3" d="M148.56 254.1v-.78a107.1 107.1 0 01-16.95-26.44 104.31 104.31 0 01-8.55-31v-.36l.44-.12 77.79-8.4v.44a31.32 31.32 0 007.57 17l.07.08.07.4-.21.13zm-24.64-58a103.57 103.57 0 008.45 30.44 106.29 106.29 0 0016.69 26.09l58.94-48a32.11 32.11 0 01-7.48-16.78z" transform="translate(-122.46 -106.32)" id="_编组_636" data-name="&lt;编组&gt;"/></g></g></g><g id="_编组_637" data-name="&lt;编组&gt;"><g id="_编组_638" data-name="&lt;编组&gt;" class="cls-4"><g id="_编组_639" data-name="&lt;编组&gt;"><path class="cls-3" d="M217.07 139.63h-.17l-.24-.11-.11-.17-3.55-9.16.73-.46v.09a61.93 61.93 0 0133.28-2.14l.4.09-.05.39-2.19 9.66-.44-.08a50.81 50.81 0 00-10.54-1.1 50.17 50.17 0 00-17.1 3zm-3-9.05l3.16 8.16a51 51 0 0117-2.9 51.71 51.71 0 0110.36 1l1.93-8.51a61.07 61.07 0 00-32.52 2.25z" transform="translate(-122.46 -106.32)" id="_编组_640" data-name="&lt;编组&gt;"/></g></g><g id="_编组_641" data-name="&lt;编组&gt;" class="cls-4"><g id="_编组_642" data-name="&lt;编组&gt;"><path class="cls-3" d="M185.19 178.34l-.88-.1.1-.78.55.06c0-.15 0-.29.06-.44l.81.11c0 .25-.08.51-.11.76l.06.06-.55-.07zm-2.45-.29l-.88-.1.1-.78.88.1zm-2.44-.29l-.88-.1.1-.78.88.1zm-2.44-.29l-.88-.11.11-.78.87.1zm-1.9-.71l-.81-.1c0-.29.08-.55.11-.79l.81.11c0 .25-.07.5-.11.78zm10.12-1.09l-.81-.14c0-.25.1-.52.15-.78l.81.15c-.05.26-.1.52-.15.77zm-9.77-1.25l-.81-.13c0-.26.1-.53.14-.78l.81.14c0 .23-.08.47-.14.77zm10.25-1.07l-.81-.18c.06-.26.12-.52.19-.78l.79.19c-.08.29-.13.53-.18.76zm-9.79-1.25l-.81-.16.18-.78.8.17-.17.77zm10.39-1l-.79-.21c.06-.23.14-.48.23-.77l.78.23-.23.75zm-9.84-1.26l-.79-.2c.06-.25.13-.51.21-.77l.79.2c-.08.26-.15.52-.21.76zm10.55-1l-.78-.26c.08-.24.17-.48.27-.75l.77.26-.27.74zm-9.9-1.29l-.79-.23c.06-.2.15-.47.24-.73h-.22.27l.75.23q-.12.36-.23.72zm10.73-.93l-.76-.29c.11-.28.21-.52.3-.74l.76.3c-.1.24-.21.48-.31.73zm-10-1.32l-.7-.3.28-.75.74.26-.27.74zm10.93-.85l-.74-.35.34-.72.74.34-.34.71zm-10.08-1.36l-.76-.29c.11-.26.2-.51.31-.74l.76.3c-.09.24-.2.48-.3.73zm11.13-.77L190 162l.39-.71.72.37-.37.67h-.08zm-10.19-1.4l-.75-.33.34-.73.74.33-.34.72zm11.37-.66l-.71-.4c.12-.21.25-.43.42-.69l.71.41-.42.67zm-10.34-1.48l-.74-.35.37-.71.73.36-.37.71zm11.61-.53l-.69-.43v-.07l.43-.64.68.44-.45.66zm-10.48-1.56l-.72-.38.4-.69.71.39-.39.69zm11.85-.39l-.64-.44.49-.64.66.47-.46.6h.09-.13zm-10.64-1.66l-.7-.4.43-.68.69.44-.43.67zm12.12-.21l-.69-.53h.08l.51-.61.63.5-.51.61zm-.6-1.64l-.68-.55.53-.61.67.55zm-10.21-.15l-.69-.44.05-.08.43-.61.68.45-.45.66zm8.33-1.38l-.67-.55.53-.61.68.55zm-6.94-.56l-.66-.46c.16-.22.32-.44.49-.64l.66.47-.48.63zm5.06-1l-.67-.55.53-.6.67.55zm-3.59-.91l-.64-.49.51-.62.64.5-.51.61zm1.71-.61l-.67-.55.53-.61.67.55z" transform="translate(-122.46 -106.32)" id="_编组_643" data-name="&lt;编组&gt;"/></g></g></g><g id="_编组_644" data-name="&lt;编组&gt;"><g id="_编组_645" data-name="&lt;编组&gt;"><g id="_编组_646" data-name="&lt;编组&gt;"><path class="cls-3" d="M193.67 188.75c-.09-.73-.17-1.5-.22-2.3l-2.45.16c.06.79.13 1.61.24 2.43l2.36-.28z" transform="translate(-122.46 -106.32)" id="_编组_647" data-name="&lt;编组&gt;"/></g></g><g id="_编组_648" data-name="&lt;编组&gt;"><g id="_编组_649" data-name="&lt;编组&gt;"><path class="cls-3" d="M193.33 185v-1.08-1.23l-2.47-.07v2.44z" transform="translate(-122.46 -106.32)" id="_编组_650" data-name="&lt;编组&gt;"/></g></g><g id="_编组_651" data-name="&lt;编组&gt;"><g id="_编组_652" data-name="&lt;编组&gt;"><path class="cls-3" d="M193.92 177.26c.13-.76.29-1.52.46-2.26l-2.39-.53c-.19.78-.35 1.58-.49 2.4l2.43.39z" transform="translate(-122.46 -106.32)" id="_编组_653" data-name="&lt;编组&gt;"/></g></g><g id="_编组_654" data-name="&lt;编组&gt;"><g id="_编组_655" data-name="&lt;编组&gt;"><path class="cls-3" d="M193.45 181.12c.06-.77.13-1.54.23-2.3l-2.44-.3c-.11.79-.19 1.62-.25 2.43l2.42.17z" transform="translate(-122.46 -106.32)" id="_编组_656" data-name="&lt;编组&gt;"/></g></g><g id="_编组_657" data-name="&lt;编组&gt;"><g id="_编组_658" data-name="&lt;编组&gt;"><path class="cls-3" d="M194.76 173.51c.21-.73.43-1.47.7-2.21l-2.33-.75c-.27.78-.51 1.55-.72 2.31h-.28l2.63.68z" transform="translate(-122.46 -106.32)" id="_编组_659" data-name="&lt;编组&gt;"/></g></g><g id="_编组_660" data-name="&lt;编组&gt;"><g id="_编组_661" data-name="&lt;编组&gt;"><path class="cls-3" d="M197.59 166.32c.35-.68.73-1.36 1.12-2l-2.14-1.18c-.41.69-.81 1.42-1.2 2.16l2.21 1.05z" transform="translate(-122.46 -106.32)" id="_编组_662" data-name="&lt;编组&gt;"/></g></g><g id="_编组_663" data-name="&lt;编组&gt;"><g id="_编组_664" data-name="&lt;编组&gt;"><path class="cls-3" d="M196 169.88c.29-.73.59-1.45.91-2.14l-2.24-1c-.34.71-.66 1.46-1 2.23h-.2l2.43.89z" transform="translate(-122.46 -106.32)" id="_编组_665" data-name="&lt;编组&gt;"/></g></g><g id="_编组_666" data-name="&lt;编组&gt;"><g id="_编组_667" data-name="&lt;编组&gt;"><path class="cls-3" d="M199.53 163c.42-.65.87-1.3 1.32-1.92l-2-1.38c-.49.67-1 1.35-1.41 2l2.06 1.3z" transform="translate(-122.46 -106.32)" id="_编组_668" data-name="&lt;编组&gt;"/></g></g><g id="_编组_669" data-name="&lt;编组&gt;"><g id="_编组_670" data-name="&lt;编组&gt;"><path class="cls-3" d="M200.74 206.49c-.45-.63-.89-1.27-1.31-1.92l-2.09 1.24c.45.71.92 1.39 1.39 2l2-1.35z" transform="translate(-122.46 -106.32)" id="_编组_671" data-name="&lt;编组&gt;"/></g></g><g id="_编组_672" data-name="&lt;编组&gt;"><g id="_编组_673" data-name="&lt;编组&gt;"><path class="cls-3" d="M203.18 209.52c-.51-.58-1-1.18-1.5-1.8l-2 1.44c.5.63 1 1.28 1.58 1.9l1.86-1.55z" transform="translate(-122.46 -106.32)" id="_编组_674" data-name="&lt;编组&gt;"/></g></g><g id="_编组_675" data-name="&lt;编组&gt;"><g id="_编组_676" data-name="&lt;编组&gt;"><path class="cls-3" d="M194.35 192.54c-.17-.74-.32-1.5-.45-2.27l-2.43.39c.13.78.29 1.58.47 2.4l2.39-.52z" transform="translate(-122.46 -106.32)" id="_编组_677" data-name="&lt;编组&gt;"/></g></g><g id="_编组_678" data-name="&lt;编组&gt;"><g id="_编组_679" data-name="&lt;编组&gt;"><path class="cls-3" d="M205.91 212.31a43.31 43.31 0 01-1.67-1.65l-1.8 1.62c.57.59 1.17 1.18 1.77 1.75l1.71-1.71z" transform="translate(-122.46 -106.32)" id="_编组_680" data-name="&lt;编组&gt;"/></g></g><g id="_编组_681" data-name="&lt;编组&gt;"><g id="_编组_682" data-name="&lt;编组&gt;"><path class="cls-3" d="M195.4 196.21c-.25-.72-.47-1.45-.67-2.19l-2.38.61c.22.78.46 1.55.71 2.3l-.12.06h.18l2.3-.74z" transform="translate(-122.46 -106.32)" id="_编组_683" data-name="&lt;编组&gt;"/></g></g><g id="_编组_684" data-name="&lt;编组&gt;"><g id="_编组_685" data-name="&lt;编组&gt;"><path class="cls-3" d="M198.64 203.28c-.39-.68-.77-1.36-1.11-2l-2.21 1c.37.73.77 1.46 1.18 2.15l2.11-1.15z" transform="translate(-122.46 -106.32)" id="_编组_686" data-name="&lt;编组&gt;"/></g></g><g id="_编组_687" data-name="&lt;编组&gt;"><g id="_编组_688" data-name="&lt;编组&gt;"><path class="cls-3" d="M196.86 199.87l.14-.06h-.17c-.32-.7-.62-1.41-.89-2.11l-2.3.83c.3.76.62 1.52 1 2.26l2.21-.94h.06z" transform="translate(-122.46 -106.32)" id="_编组_689" data-name="&lt;编组&gt;"/></g></g><g id="_编组_690" data-name="&lt;编组&gt;"><g id="_编组_691" data-name="&lt;编组&gt;"><path class="cls-3" d="M201.8 159.81c.49-.62 1-1.22 1.51-1.79l-1.86-1.55c-.53.59-1.06 1.2-1.6 1.89l2 1.45z" transform="translate(-122.46 -106.32)" id="_编组_692" data-name="&lt;编组&gt;"/></g></g><g id="_编组_693" data-name="&lt;编组&gt;"><g id="_编组_694" data-name="&lt;编组&gt;"><path class="cls-3" d="M269.29 163.52c.4.64.8 1.32 1.16 2l2.18-1.11c-.39-.71-.8-1.43-1.24-2.13l-2.11 1.23z" transform="translate(-122.46 -106.32)" id="_编组_695" data-name="&lt;编组&gt;"/></g></g><g id="_编组_696" data-name="&lt;编组&gt;"><g id="_编组_697" data-name="&lt;编组&gt;"><path class="cls-3" d="M271.18 166.85c.33.68.66 1.39 1 2.11l2.28-.89c-.31-.74-.66-1.49-1-2.23l-2.18 1z" transform="translate(-122.46 -106.32)" id="_编组_698" data-name="&lt;编组&gt;"/></g></g><g id="_编组_699" data-name="&lt;编组&gt;"><g id="_编组_700" data-name="&lt;编组&gt;"><path class="cls-3" d="M267.08 160.33c.47.6.93 1.24 1.36 1.89l2.06-1.31c-.45-.67-.94-1.35-1.44-2l-2 1.42z" transform="translate(-122.46 -106.32)" id="_编组_701" data-name="&lt;编组&gt;"/></g></g><g id="_编组_702" data-name="&lt;编组&gt;"><g id="_编组_703" data-name="&lt;编组&gt;"><path class="cls-3" d="M264.55 157.36q.81.87 1.55 1.76l1.92-1.49c-.5-.6-1-1.22-1.62-1.83h.07-.12l-1.82 1.58z" transform="translate(-122.46 -106.32)" id="_编组_704" data-name="&lt;编组&gt;"/></g></g><g id="_编组_705" data-name="&lt;编组&gt;"><g id="_编组_706" data-name="&lt;编组&gt;"><path class="cls-3" d="M272.69 170.44c.27.71.52 1.44.75 2.19l2.36-.67c-.24-.77-.5-1.54-.78-2.28l.28-.07h-.3l-2.29.8z" transform="translate(-122.46 -106.32)" id="_编组_707" data-name="&lt;编组&gt;"/></g></g><g id="_编组_708" data-name="&lt;编组&gt;"><g id="_编组_709" data-name="&lt;编组&gt;"><path class="cls-3" d="M261.75 154.64c.58.51 1.16 1.05 1.71 1.6l1.75-1.66c-.58-.57-1.19-1.14-1.82-1.69l-1.66 1.76z" transform="translate(-122.46 -106.32)" id="_编组_710" data-name="&lt;编组&gt;"/></g></g><g id="_编组_711" data-name="&lt;编组&gt;"><g id="_编组_712" data-name="&lt;编组&gt;"><path class="cls-3" d="M274.64 177.84c.12.78.22 1.54.3 2.29l2.45-.22c-.07-.8-.18-1.62-.3-2.42z" transform="translate(-122.46 -106.32)" id="_编组_713" data-name="&lt;编组&gt;"/></g></g><g id="_编组_714" data-name="&lt;编组&gt;"><g id="_编组_715" data-name="&lt;编组&gt;"><path class="cls-3" d="M208.91 214.84c-.63-.48-1.25-1-1.83-1.48l-1.63 1.77c.61.53 1.26 1.06 1.93 1.58l1.51-1.85z" transform="translate(-122.46 -106.32)" id="_编组_716" data-name="&lt;编组&gt;"/></g></g><g id="_编组_717" data-name="&lt;编组&gt;"><g id="_编组_718" data-name="&lt;编组&gt;"><path class="cls-3" d="M273.86 174.11c.2.74.37 1.5.52 2.25l2.42-.44c-.16-.81-.34-1.62-.55-2.38l-2.39.58z" transform="translate(-122.46 -106.32)" id="_编组_719" data-name="&lt;编组&gt;"/></g></g><g id="_编组_720" data-name="&lt;编组&gt;"><g id="_编组_721" data-name="&lt;编组&gt;"><path class="cls-3" d="M207.23 154.2c.6-.51 1.21-1 1.84-1.47l-1.52-1.88c-.67.51-1.32 1-1.94 1.56l1.62 1.78z" transform="translate(-122.46 -106.32)" id="_编组_722" data-name="&lt;编组&gt;"/></g></g><g id="_编组_723" data-name="&lt;编组&gt;"><g id="_编组_724" data-name="&lt;编组&gt;"><path class="cls-3" d="M210.34 151.8c.63-.44 1.3-.88 2-1.29l-1.32-2c-.72.44-1.42.9-2.09 1.37l1.44 1.92z" transform="translate(-122.46 -106.32)" id="_编组_725" data-name="&lt;编组&gt;"/></g></g><g id="_编组_726" data-name="&lt;编组&gt;"><g id="_编组_727" data-name="&lt;编组&gt;"><path class="cls-3" d="M204.37 156.87c.53-.54 1.09-1.09 1.68-1.63l-1.69-1.72c-.61.57-1.22 1.16-1.78 1.73l1.8 1.62z" transform="translate(-122.46 -106.32)" id="_编组_728" data-name="&lt;编组&gt;"/></g></g><g id="_编组_729" data-name="&lt;编组&gt;"><g id="_编组_730" data-name="&lt;编组&gt;"><path class="cls-3" d="M258.67 152.19c.63.45 1.26.93 1.87 1.43l1.58-1.82c-.64-.51-1.3-1-1.94-1.49h-.1l-1.48 1.89z" transform="translate(-122.46 -106.32)" id="_编组_731" data-name="&lt;编组&gt;"/></g></g><g id="_编组_732" data-name="&lt;编组&gt;"><g id="_编组_733" data-name="&lt;编组&gt;"><path class="cls-3" d="M220.87 146.51c.75-.25 1.51-.48 2.28-.69l-.66-2.29c-.81.22-1.62.47-2.42.74l.8 2.25z" transform="translate(-122.46 -106.32)" id="_编组_734" data-name="&lt;编组&gt;"/></g></g><g id="_编组_735" data-name="&lt;编组&gt;"><g id="_编组_736" data-name="&lt;编组&gt;"><path class="cls-3" d="M257.38 151.29l1.39-2c-.7-.46-1.42-.91-2.13-1.32l-1.28 2c.64.46 1.36.88 2.02 1.32z" transform="translate(-122.46 -106.32)" id="_编组_737" data-name="&lt;编组&gt;"/></g></g><g id="_编组_738" data-name="&lt;编组&gt;"><g id="_编组_739" data-name="&lt;编组&gt;"><path class="cls-3" d="M254 149.27l1.19-2.08a52.4 52.4 0 00-2.25-1.12l-1 2.11v.06h.06l2 1.03z" transform="translate(-122.46 -106.32)" id="_编组_740" data-name="&lt;编组&gt;"/></g></g><g id="_编组_741" data-name="&lt;编组&gt;"><g id="_编组_742" data-name="&lt;编组&gt;"><path class="cls-3" d="M224.54 222.21l-.58 2.3c.82.2 1.65.36 2.48.51l.43-2.3c-.79-.17-1.58-.33-2.33-.51z" transform="translate(-122.46 -106.32)" id="_编组_743" data-name="&lt;编组&gt;"/></g></g><g id="_编组_744" data-name="&lt;编组&gt;"><g id="_编组_745" data-name="&lt;编组&gt;"><path class="cls-3" d="M260.43 214.17c-.64.51-1.27 1-1.88 1.42l1.46 1.92c.69-.49 1.35-1 2-1.5H262l-1.57-1.83z" transform="translate(-122.46 -106.32)" id="_编组_746" data-name="&lt;编组&gt;"/></g></g><g id="_编组_747" data-name="&lt;编组&gt;"><g id="_编组_748" data-name="&lt;编组&gt;"><path class="cls-3" d="M263.39 211.52v.08c-.53.52-1.09 1-1.71 1.58l1.64 1.77c.63-.55 1.25-1.12 1.83-1.69l-1.71-1.63v-.08z" transform="translate(-122.46 -106.32)" id="_编组_749" data-name="&lt;编组&gt;"/></g></g><g id="_编组_750" data-name="&lt;编组&gt;"><g id="_编组_751" data-name="&lt;编组&gt;"><path class="cls-3" d="M257.22 216.5c-.66.43-1.33.85-2 1.24l1.26 2c.7-.4 1.42-.85 2.13-1.31l-1.39-2z" transform="translate(-122.46 -106.32)" id="_编组_752" data-name="&lt;编组&gt;"/></g></g><g id="_编组_753" data-name="&lt;编组&gt;"><g id="_编组_754" data-name="&lt;编组&gt;"><path class="cls-3" d="M250.26 220.18c-.71.29-1.46.58-2.21.84l.83 2.23c.79-.28 1.57-.58 2.35-.89l-1-2.19z" transform="translate(-122.46 -106.32)" id="_编组_755" data-name="&lt;编组&gt;"/></g></g><g id="_编组_756" data-name="&lt;编组&gt;"><g id="_编组_757" data-name="&lt;编组&gt;"><path class="cls-3" d="M253.83 218.51c-.72.37-1.43.73-2.13 1l1.06 2.15c.78-.36 1.53-.73 2.25-1.11l-1.18-2.08z" transform="translate(-122.46 -106.32)" id="_编组_758" data-name="&lt;编组&gt;"/></g></g><g id="_编组_759" data-name="&lt;编组&gt;"><g id="_编组_760" data-name="&lt;编组&gt;"><path class="cls-3" d="M245 143.28l-.61 2.3c.75.19 1.52.4 2.29.63l.75-2.27c-.79-.22-1.61-.45-2.43-.66z" transform="translate(-122.46 -106.32)" id="_编组_761" data-name="&lt;编组&gt;"/></g></g><g id="_编组_762" data-name="&lt;编组&gt;"><g id="_编组_763" data-name="&lt;编组&gt;"><path class="cls-3" d="M249 144.49l-.84 2.23c.72.25 1.48.55 2.22.86l1-2.19c-.78-.33-1.56-.63-2.38-.9z" transform="translate(-122.46 -106.32)" id="_编组_764" data-name="&lt;编组&gt;"/></g></g><g id="_编组_765" data-name="&lt;编组&gt;"><g id="_编组_766" data-name="&lt;编组&gt;"><path class="cls-3" d="M266 208.72c-.52.62-1 1.2-1.56 1.75l1.82 1.61a42 42 0 001.66-1.85l-1.91-1.5z" transform="translate(-122.46 -106.32)" id="_编组_767" data-name="&lt;编组&gt;"/></g></g><g id="_编组_768" data-name="&lt;编组&gt;"><g id="_编组_769" data-name="&lt;编组&gt;"><path class="cls-3" d="M268.4 205.52v.14c-.43.63-.89 1.26-1.37 1.88l2 1.43c.5-.64 1-1.3 1.44-2v-.06l-2-1.29v-.11z" transform="translate(-122.46 -106.32)" id="_编组_770" data-name="&lt;编组&gt;"/></g></g><g id="_编组_771" data-name="&lt;编组&gt;"><g id="_编组_772" data-name="&lt;编组&gt;"><path class="cls-3" d="M274.92 187.68c-.08.76-.18 1.53-.3 2.29l2.43.36c.13-.83.24-1.65.31-2.42l-2.45-.23z" transform="translate(-122.46 -106.32)" id="_编组_773" data-name="&lt;编组&gt;"/></g></g><g id="_编组_774" data-name="&lt;编组&gt;"><g id="_编组_775" data-name="&lt;编组&gt;"><path class="cls-3" d="M277.51 181.57l-2.46.13c0 .7.06 1.42.06 2.15s0 1.55-.07 2.3l2.46.14c0-.8.07-1.62.07-2.45s-.02-1.52-.06-2.27z" transform="translate(-122.46 -106.32)" id="_编组_776" data-name="&lt;编组&gt;"/></g></g><g id="_编组_777" data-name="&lt;编组&gt;"><g id="_编组_778" data-name="&lt;编组&gt;"><path class="cls-3" d="M274.35 191.48c-.16.76-.34 1.52-.53 2.25l2.39.59c.2-.78.39-1.58.56-2.38l-2.41-.46z" transform="translate(-122.46 -106.32)" id="_编组_779" data-name="&lt;编组&gt;"/></g></g><g id="_编组_780" data-name="&lt;编组&gt;"><g id="_编组_781" data-name="&lt;编组&gt;"><path class="cls-3" d="M270.41 202.3c-.37.67-.76 1.35-1.18 2l2.1 1.24c.43-.68.84-1.39 1.24-2.11h.14l-2.25-1.15z" transform="translate(-122.46 -106.32)" id="_编组_782" data-name="&lt;编组&gt;"/></g></g><g id="_编组_783" data-name="&lt;编组&gt;"><g id="_编组_784" data-name="&lt;编组&gt;"><path class="cls-3" d="M272.06 198.84c-.3.69-.62 1.4-1 2.11l2.21 1c.36-.74.71-1.49 1-2.23l-2.26-.93z" transform="translate(-122.46 -106.32)" id="_编组_785" data-name="&lt;编组&gt;"/></g></g><g id="_编组_786" data-name="&lt;编组&gt;"><g id="_编组_787" data-name="&lt;编组&gt;"><path class="cls-3" d="M273.44 195.18c-.23.74-.48 1.47-.75 2.19l2.3.82c.29-.75.56-1.54.8-2.32l-2.31-.67z" transform="translate(-122.46 -106.32)" id="_编组_788" data-name="&lt;编组&gt;"/></g></g><g id="_编组_789" data-name="&lt;编组&gt;"><g id="_编组_790" data-name="&lt;编组&gt;"><path class="cls-3" d="M217 219.67l-1 2.15c.73.33 1.52.66 2.33 1l.89-2.17c-.73-.35-1.47-.65-2.22-.98z" transform="translate(-122.46 -106.32)" id="_编组_791" data-name="&lt;编组&gt;"/></g></g><g id="_编组_792" data-name="&lt;编组&gt;"><g id="_编组_793" data-name="&lt;编组&gt;"><path class="cls-3" d="M223 221.82c-.75-.21-1.52-.44-2.27-.7l-.81 2.25c.8.27 1.61.52 2.41.74l.67-2.21h.26l-.25-.07z" transform="translate(-122.46 -106.32)" id="_编组_794" data-name="&lt;编组&gt;"/></g></g><g id="_编组_795" data-name="&lt;编组&gt;"><g id="_编组_796" data-name="&lt;编组&gt;"><path class="cls-3" d="M218.49 144.83c-.8.31-1.58.63-2.33 1l1 2.16c.71-.32 1.44-.62 2.19-.9l-.89-2.21z" transform="translate(-122.46 -106.32)" id="_编组_797" data-name="&lt;编组&gt;"/></g></g><g id="_编组_798" data-name="&lt;编组&gt;"><g id="_编组_799" data-name="&lt;编组&gt;"><path class="cls-3" d="M226.6 142.63c-.84.14-1.66.31-2.48.5l.57 2.3c.78-.17 1.57-.33 2.34-.47l-.43-2.34z" transform="translate(-122.46 -106.32)" id="_编组_800" data-name="&lt;编组&gt;"/></g></g><g id="_编组_801" data-name="&lt;编组&gt;"><g id="_编组_802" data-name="&lt;编组&gt;"><path class="cls-3" d="M228.44 222.93l-.35 2.35c.84.12 1.68.21 2.52.27l.2-2.34c-.81-.09-1.59-.21-2.37-.28z" transform="translate(-122.46 -106.32)" id="_编组_803" data-name="&lt;编组&gt;"/></g></g><g id="_编组_804" data-name="&lt;编组&gt;"><g id="_编组_805" data-name="&lt;编组&gt;"><path class="cls-3" d="M210.18 215.77l-1.43 1.89c.7.49 1.39 1 2.09 1.39l1.3-1.94c-.67-.46-1.34-.89-1.96-1.34z" transform="translate(-122.46 -106.32)" id="_编组_806" data-name="&lt;编组&gt;"/></g></g><g id="_编组_807" data-name="&lt;编组&gt;"><g id="_编组_808" data-name="&lt;编组&gt;"><path class="cls-3" d="M213.51 217.88l-1.25 2c.75.42 1.49.82 2.22 1.18l1.12-2.1c-.73-.33-1.44-.7-2.09-1.08z" transform="translate(-122.46 -106.32)" id="_编组_809" data-name="&lt;编组&gt;"/></g></g><g id="_编组_810" data-name="&lt;编组&gt;"><g id="_编组_811" data-name="&lt;编组&gt;"><path class="cls-3" d="M214.65 146.49c-.75.37-1.51.77-2.22 1.17l1.24 2.05c.68-.38 1.39-.75 2.09-1.1l-1.12-2.12z" transform="translate(-122.46 -106.32)" id="_编组_812" data-name="&lt;编组&gt;"/></g></g><g id="_编组_813" data-name="&lt;编组&gt;"><g id="_编组_814" data-name="&lt;编组&gt;"><path class="cls-3" d="M236.68 142l-.14 2.37c.79 0 1.59.1 2.38.19l.28-2.36c-.83-.03-1.67-.11-2.52-.2z" transform="translate(-122.46 -106.32)" id="_编组_815" data-name="&lt;编组&gt;"/></g></g><g id="_编组_816" data-name="&lt;编组&gt;"><g id="_编组_817" data-name="&lt;编组&gt;"><path class="cls-3" d="M242.69 222.48c-.79.16-1.58.3-2.35.41l.37 2.35c.82-.12 1.66-.26 2.48-.43l-.5-2.33z" transform="translate(-122.46 -106.32)" id="_编组_818" data-name="&lt;编组&gt;"/></g></g><g id="_编组_819" data-name="&lt;编组&gt;"><g id="_编组_820" data-name="&lt;编组&gt;"><path class="cls-3" d="M240.87 142.47l-.38 2.34c.79.12 1.57.25 2.35.41l.51-2.33c-.81-.15-1.64-.3-2.48-.42z" transform="translate(-122.46 -106.32)" id="_编组_821" data-name="&lt;编组&gt;"/></g></g><g id="_编组_822" data-name="&lt;编组&gt;"><g id="_编组_823" data-name="&lt;编组&gt;"><path class="cls-3" d="M246.54 221.51c-.77.24-1.54.44-2.3.63l.6 2.3c.81-.2 1.63-.42 2.44-.67l-.75-2.26z" transform="translate(-122.46 -106.32)" id="_编组_824" data-name="&lt;编组&gt;"/></g></g><g id="_编组_825" data-name="&lt;编组&gt;"><g id="_编组_826" data-name="&lt;编组&gt;"><path class="cls-3" d="M232.4 223.29l-.11 2.37h2.52v-2.38c-.81.05-1.61.04-2.41.01z" transform="translate(-122.46 -106.32)" id="_编组_827" data-name="&lt;编组&gt;"/></g></g><g id="_编组_828" data-name="&lt;编组&gt;"><g id="_编组_829" data-name="&lt;编组&gt;"><path class="cls-3" d="M230.78 142.11c-.84.06-1.68.16-2.51.27l.32 2.3v.07h.07v.06-.06c.77-.1 1.56-.19 2.36-.25l-.2-2.37z" transform="translate(-122.46 -106.32)" id="_编组_830" data-name="&lt;编组&gt;"/></g></g><g id="_编组_831" data-name="&lt;编组&gt;"><g id="_编组_832" data-name="&lt;编组&gt;"><path class="cls-3" d="M238.76 223.09c-.79.08-1.58.14-2.38.18l.12 2.38c.85 0 1.7-.11 2.52-.2l-.27-2.33z" transform="translate(-122.46 -106.32)" id="_编组_833" data-name="&lt;编组&gt;"/></g></g><g id="_编组_834" data-name="&lt;编组&gt;"><g id="_编组_835" data-name="&lt;编组&gt;"><path class="cls-3" d="M232.47 142l.09 2.34.16.11v-.07h2.32V142h-2.57z" transform="translate(-122.46 -106.32)" id="_编组_836" data-name="&lt;编组&gt;"/></g></g></g><g id="_编组_837" data-name="&lt;编组&gt;" class="cls-5"><g id="_编组_838" data-name="&lt;编组&gt;"><path class="cls-3" d="M229.79 228.47a47.32 47.32 0 01-13.79-3.39 46.58 46.58 0 01-11.77-7 45.4 45.4 0 01-9.07-10 44 44 0 01-5.68-12.31l.39-.1c5 17.67 21.06 30.72 39.94 32.46zm21-2.72l-.15-.37c17.7-6.53 29.59-23.22 29.59-41.52h.38a43.49 43.49 0 01-8.38 25.71 45.6 45.6 0 01-9.44 9.61 46.65 46.65 0 01-12 6.58zm29.34-45.2c-1.4-18.26-14.55-34-32.74-39.27l.16-.37a46.91 46.91 0 0112.57 5.73 46.08 46.08 0 0110.17 9 43.63 43.63 0 0110.26 24.91zm-91-5.21l-.37-.07a43.53 43.53 0 014.76-12.78 45 45 0 018.32-10.64A46.18 46.18 0 01213 144a47.19 47.19 0 0113.36-4.34l.07.39c-18.69 3.1-33.69 17.27-37.3 35.26z" transform="translate(-122.46 -106.32)" id="_编组_839" data-name="&lt;编组&gt;"/></g></g><g id="_编组_840" data-name="&lt;编组&gt;"><g id="_编组_841" data-name="&lt;编组&gt;"><g id="_编组_842" data-name="&lt;编组&gt;"><path class="cls-3" d="M277 165.78l.16.4 11.31-4.67c-.06-.13-.12-.26-.18-.4L277 165.78z" transform="translate(-122.46 -106.32)" id="_编组_843" data-name="&lt;编组&gt;"/></g></g><g id="_编组_844" data-name="&lt;编组&gt;"><g id="_编组_845" data-name="&lt;编组&gt;"><path class="cls-3" d="M273.27 159.39h.11l.17.26 10.45-6.34-.11-.18-.13-.19-10.28 6.45z" transform="translate(-122.46 -106.32)" id="_编组_846" data-name="&lt;编组&gt;"/></g></g><g id="_编组_847" data-name="&lt;编组&gt;"><g id="_编组_848" data-name="&lt;编组&gt;"><path class="cls-3" d="M279.43 172.78V173.09l11.91-2.81c0-.14-.07-.28-.11-.43l-12.2 3h.29z" transform="translate(-122.46 -106.32)" id="_编组_849" data-name="&lt;编组&gt;"/></g></g><g id="_编组_850" data-name="&lt;编组&gt;"><g id="_编组_851" data-name="&lt;编组&gt;"><path class="cls-3" d="M280.68 180v.35l12.27-.91V179z" transform="translate(-122.46 -106.32)" id="_编组_852" data-name="&lt;编组&gt;"/></g></g><g id="_编组_853" data-name="&lt;编组&gt;"><g id="_编组_854" data-name="&lt;编组&gt;"><path class="cls-3" d="M268.73 153.52l.25.25 9.16-7.92-.23-.25-.11-.11-9.07 8z" transform="translate(-122.46 -106.32)" id="_编组_855" data-name="&lt;编组&gt;"/></g></g><g id="_编组_856" data-name="&lt;编组&gt;"><g id="_编组_857" data-name="&lt;编组&gt;"><path class="cls-3" d="M263.17 148.49l.15.12.16.13 7.72-9.25-.34-.26v-.1z" transform="translate(-122.46 -106.32)" id="_编组_858" data-name="&lt;编组&gt;"/></g></g><g id="_编组_859" data-name="&lt;编组&gt;"><g id="_编组_860" data-name="&lt;编组&gt;"><path class="cls-3" d="M271.3 211.15l-.27.34 9.68 7.27.12-.15.16-.2-9.74-7.2z" transform="translate(-122.46 -106.32)" id="_编组_861" data-name="&lt;编组&gt;"/></g></g><g id="_编组_862" data-name="&lt;编组&gt;"><g id="_编组_863" data-name="&lt;编组&gt;"><path class="cls-3" d="M266.22 216.6l-.26.24 8.34 8.68.24-.21.12-.11-8.4-8.62z" transform="translate(-122.46 -106.32)" id="_编组_864" data-name="&lt;编组&gt;"/></g></g><g id="_编组_865" data-name="&lt;编组&gt;"><g id="_编组_866" data-name="&lt;编组&gt;"><path class="cls-3" d="M253.66 224.79l-.15.06-.18.08 5 10.84.49-.21-5.1-10.77z" transform="translate(-122.46 -106.32)" id="_编组_867" data-name="&lt;编组&gt;"/></g></g><g id="_编组_868" data-name="&lt;编组&gt;"><g id="_编组_869" data-name="&lt;编组&gt;"><path class="cls-3" d="M260.28 221.19l-.3.19 6.77 9.87.38-.25-6.85-9.82z" transform="translate(-122.46 -106.32)" id="_编组_870" data-name="&lt;编组&gt;"/></g></g><g id="_编组_871" data-name="&lt;编组&gt;"><g id="_编组_872" data-name="&lt;编组&gt;"><path class="cls-3" d="M275.46 204.87l-.06.1v.03l-.16.3L286 211l.12-.21.11-.21-10.77-5.58v-.13z" transform="translate(-122.46 -106.32)" id="_编组_873" data-name="&lt;编组&gt;"/></g></g><g id="_编组_874" data-name="&lt;编组&gt;"><g id="_编组_875" data-name="&lt;编组&gt;"><path class="cls-3" d="M280.89 183.8v.36l12.3.13v-.48z" transform="translate(-122.46 -106.32)" id="_编组_876" data-name="&lt;编组&gt;"/></g></g><g id="_编组_877" data-name="&lt;编组&gt;"><g id="_编组_878" data-name="&lt;编组&gt;"><path class="cls-3" d="M278.42 198.24l-.12.32 11.62 3.9a1.62 1.62 0 01.07-.19c0-.08 0-.15.08-.23l-11.61-3.79z" transform="translate(-122.46 -106.32)" id="_编组_879" data-name="&lt;编组&gt;"/></g></g><g id="_编组_880" data-name="&lt;编组&gt;"><g id="_编组_881" data-name="&lt;编组&gt;"><path class="cls-3" d="M280.25 191.13c0 .11 0 .23-.06.34l12.09 2v-.12c0-.12 0-.24.07-.36l-12.09-1.91z" transform="translate(-122.46 -106.32)" id="_编组_882" data-name="&lt;编组&gt;"/></g></g><g id="_编组_883" data-name="&lt;编组&gt;"><g id="_编组_884" data-name="&lt;编组&gt;"><path class="cls-3" d="M246.54 227.29l-.35.09 3.12 11.44.44-.11-3.21-11.42z" transform="translate(-122.46 -106.32)" id="_编组_885" data-name="&lt;编组&gt;"/></g></g><g id="_编组_886" data-name="&lt;编组&gt;"><g id="_编组_887" data-name="&lt;编组&gt;"><path class="cls-3" d="M239.08 228.63h-.44l1.15 11.78h.46L239 228.63z" transform="translate(-122.46 -106.32)" id="_编组_888" data-name="&lt;编组&gt;"/></g></g></g><g id="_编组_889" data-name="&lt;编组&gt;"><g id="_编组_890" data-name="&lt;编组&gt;"><path class="cls-3" d="M234.24 231.86c-19.25 0-36.95-10.89-45.08-27.75l.4-.18c8.06 16.71 25.6 27.51 44.68 27.51v.29zm20.94-4.46l-.18-.4c17.32-7.78 28.5-24.73 28.5-43.17v-.12h.44v.12c0 18.62-11.29 35.71-28.76 43.57zm-70.66-43.49v-.07c0-18.58 11.27-35.66 28.7-43.53l.19.38c-17.28 7.8-28.41 24.74-28.41 43.15v.06h-.44zm99.42-.19zm-5.05-20c-8.07-16.68-25.6-27.45-44.65-27.45h-.09v-.42h.09c19.22 0 36.9 10.87 45.05 27.7z" transform="translate(-122.46 -106.32)" id="_编组_891" data-name="&lt;编组&gt;"/></g></g><g id="_编组_892" data-name="&lt;编组&gt;"><g id="_编组_893" data-name="&lt;编组&gt;"><path class="cls-3" d="M253.85 216.9l-2-3.41a34.08 34.08 0 0017.74-29.61h4.07a37.09 37.09 0 01-5.47 19.36 39 39 0 01-14.33 13.68zM199.61 177l-4-.8a38.66 38.66 0 0126.32-28.49l1.28 3.76A34.62 34.62 0 00199.63 177z" transform="translate(-122.46 -106.32)" id="_编组_894" data-name="&lt;编组&gt;"/></g></g><g id="_编组_895" data-name="&lt;编组&gt;"><g id="_编组_896" data-name="&lt;编组&gt;"><g id="_编组_897" data-name="&lt;编组&gt;"><path class="cls-3" d="M234.23 251.1a72.51 72.51 0 01-14.23-1.4l.13-.6a71.75 71.75 0 0014.1 1.39h2.24v.61c-.7-.01-1.47 0-2.24 0zm3.5-.09v-.61a71.28 71.28 0 0016.16-2.66l.18.58a71.59 71.59 0 01-16.3 2.68zm-18.94-1.58a70.54 70.54 0 01-15.58-5.38l.29-.55a70.28 70.28 0 0015.44 5.33zm36.47-1.43l-.19-.58a70.36 70.36 0 0014.93-6.58l.32.53a70.62 70.62 0 01-15.04 6.63zm-53.19-4.48a70.15 70.15 0 01-13.65-9l.42-.47a69.73 69.73 0 0013.48 8.95zm83-13.73l-.46-.42a67.15 67.15 0 009.7-12.77l.56.31a67.66 67.66 0 01-9.79 12.89zm10.41-14l-.56-.29a65.13 65.13 0 006-14.73l.62.16a65.44 65.44 0 01-6.07 14.87zm6.39-16.06l-.62-.15a64.68 64.68 0 001.93-15.72 65.94 65.94 0 00-.56-8.6l.63-.07a65.76 65.76 0 01-1.38 24.55zm.58-25.68a64.42 64.42 0 00-4.31-15.27l.58-.23a65.33 65.33 0 014.36 15.41zm-4.79-16.4a66.13 66.13 0 00-8.19-13.69h-.08l.57-.39a66.58 66.58 0 018.27 13.83zM276.24 131a69.77 69.77 0 00-14.1-8.08l.3-.55a70 70 0 0114.21 8.15zm-65.9-9.67l-.22-.56a71.1 71.1 0 0116.08-3.7l.07.61a71.12 71.12 0 00-15.95 3.67zm33.66-3.47a72.15 72.15 0 00-16.39-.34l-.06-.61a73.45 73.45 0 0116.54.35z" transform="translate(-122.46 -106.32)" id="_编组_898" data-name="&lt;编组&gt;"/></g></g></g><g id="_编组_899" data-name="&lt;编组&gt;" class="cls-6"><g id="_编组_900" data-name="&lt;编组&gt;"><path class="cls-3" d="M234.23 261.36A81.43 81.43 0 01186 245.82l4.2-5.39a74.34 74.34 0 0044 14.18c40.4 0 73.27-31.75 73.27-70.77s-32.87-70.77-73.27-70.77v-6.75c44.25 0 80.26 34.77 80.26 77.52s-35.97 77.52-80.23 77.52z" transform="translate(-122.46 -106.32)" id="_编组_901" data-name="&lt;编组&gt;"/></g></g><g id="_编组_902" data-name="&lt;编组&gt;"><g id="_编组_903" data-name="&lt;编组&gt;"><path class="cls-3" d="M234.23 248.59a68.64 68.64 0 01-26.09-5.09 67 67 0 01-21.31-13.88A64.45 64.45 0 01172.47 209a62.92 62.92 0 010-50.41 64.46 64.46 0 0114.37-20.58 67 67 0 0121.31-13.88 69.45 69.45 0 0152.18 0 67 67 0 0121.31 13.88A64.46 64.46 0 01296 158.64a62.92 62.92 0 010 50.36 64.45 64.45 0 01-14.37 20.58 67 67 0 01-21.31 13.88 68.64 68.64 0 01-26.09 5.13zm0-129.37c-36.89 0-66.91 29-66.91 64.63s30 64.63 66.91 64.63 66.91-29 66.91-64.62-30.01-64.64-66.91-64.64z" transform="translate(-122.46 -106.32)" id="_编组_904" data-name="&lt;编组&gt;"/></g></g><g id="_编组_905" data-name="&lt;编组&gt;"><g id="_编组_906" data-name="&lt;编组&gt;"><ellipse class="cls-3" cx="156.15" cy="56.59" rx="1.47" ry="1.42" id="_编组_907" data-name="&lt;编组&gt;"/></g></g><g id="_编组_908" data-name="&lt;编组&gt;"><g id="_编组_909" data-name="&lt;编组&gt;"><ellipse class="cls-3" cx="67.13" cy="98.12" rx="1.47" ry="1.42" id="_编组_910" data-name="&lt;编组&gt;"/></g></g><g id="_编组_911" data-name="&lt;编组&gt;"><g id="_编组_912" data-name="&lt;编组&gt;"><path class="cls-3" d="M261 123.57a1.73 1.73 0 111.79-1.73 1.76 1.76 0 01-1.79 1.73zm0-2.84a1.11 1.11 0 101.15 1.11 1.13 1.13 0 00-1.15-1.1z" transform="translate(-122.46 -106.32)" id="_编组_913" data-name="&lt;编组&gt;"/></g></g><g id="_编组_914" data-name="&lt;编组&gt;"><g id="_编组_915" data-name="&lt;编组&gt;"><path class="cls-3" d="M277.59 133.29a1.73 1.73 0 111.79-1.73 1.76 1.76 0 01-1.79 1.73zm0-2.84a1.11 1.11 0 101.15 1.11 1.13 1.13 0 00-1.15-1.1z" transform="translate(-122.46 -106.32)" id="_编组_916" data-name="&lt;编组&gt;"/></g></g><g id="_编组_917" data-name="&lt;编组&gt;"><g id="_编组_918" data-name="&lt;编组&gt;"><path class="cls-3" d="M89.92 32.86l3.18.44-1.98 2.44-1.2-2.88z" id="_编组_919" data-name="&lt;编组&gt;"/></g></g><g id="_编组_920" data-name="&lt;编组&gt;"><g id="_编组_921" data-name="&lt;编组&gt;"><path class="cls-3" d="M121.43 9.66l2.46 1.99-3.02 1.06.56-3.05z" id="_编组_922" data-name="&lt;编组&gt;"/></g></g><g id="_编组_923" data-name="&lt;编组&gt;"><g id="_编组_924" data-name="&lt;编组&gt;"><path class="cls-3" d="M163.88 124.03l-3.04.98.64-3.03 2.4 2.05z" id="_编组_925" data-name="&lt;编组&gt;"/></g></g><g id="_编组_926" data-name="&lt;编组&gt;"><g id="_编组_927" data-name="&lt;编组&gt;"><path class="cls-3" d="M65.45 129.6l-1.09-2.92 3.16.55-2.07 2.37z" id="_编组_928" data-name="&lt;编组&gt;"/></g></g></g></g></g></g></svg>