<svg preserveAspectRatio="none" id="Layer_1" data-name="Layer 1" xmlns="http://www.w3.org/2000/svg" viewBox="0 0 1259.15 1195.72"><defs><style>.cls-1{fill:#20ffff;}.cls-2{opacity:0.5;}</style></defs><title>circle82</title><polygon class="cls-1" points="1166.02 488.39 1164.33 480.07 1244.52 462.48 1246.47 472.05 1166.02 488.39"/><path class="cls-1" d="M1508.88,932.79c-0.5-2.79-.91-5.59-1.48-8.36l80.66-15.32c0.65,3.19,1.13,6.41,1.7,9.61Z" transform="translate(-340 -429.26)"/><path class="cls-1" d="M1511.31,948c-0.4-2.8-.75-5.61-1.27-8.4l81.05-13.05c0.59,3.2,1,6.43,1.46,9.65Z" transform="translate(-340 -429.26)"/><polygon class="cls-1" points="1173.32 534.04 1172.86 529.82 1172.27 525.61 1253.66 514.83 1254.33 519.67 1254.87 524.52 1173.32 534.04"/><path class="cls-1" d="M1514.91,978.63c-0.18-2.83-.55-5.64-0.84-8.45l81.66-8.49c0.33,3.24.75,6.47,1,9.71Z" transform="translate(-340 -429.26)"/><path class="cls-1" d="M1516.07,994c-0.15-2.83-.42-5.65-0.63-8.47l81.86-6.2c0.23,3.25.54,6.49,0.71,9.74Z" transform="translate(-340 -429.26)"/><polygon class="cls-1" points="1176.79 580.15 1176.39 571.66 1258.4 567.75 1258.85 577.5 1176.79 580.15"/><polygon class="cls-1" points="1177.05 595.56 1176.91 587.07 1258.99 585.46 1259.15 595.22 1177.05 595.56"/><polygon class="cls-1" points="1176.89 610.98 1177.01 602.49 1259.1 603.17 1258.96 612.93 1176.89 610.98"/><polygon class="cls-1" points="1176.29 626.39 1176.67 617.9 1258.72 620.88 1258.28 630.63 1176.29 626.39"/><polygon class="cls-1" points="1175.27 641.77 1175.91 633.3 1257.84 638.57 1257.11 648.31 1175.27 641.77"/><polygon class="cls-1" points="1173.82 657.12 1174.72 648.67 1256.47 656.24 1255.45 665.94 1173.82 657.12"/><polygon class="cls-1" points="1171.95 672.42 1173.1 664 1254.6 673.85 1253.29 683.53 1171.95 672.42"/><path class="cls-1" d="M1509.66,1116.91l0.71-4.19c0.25-1.39.47-2.79,0.65-4.2l81.2,12.13c-0.21,1.61-.46,3.22-0.74,4.82l-0.81,4.81Z" transform="translate(-340 -429.26)"/><path class="cls-1" d="M1506.94,1132.09c0.57-2.77,1.14-5.55,1.57-8.35l80.82,14.41c-0.51,3.22-1.16,6.41-1.8,9.6Z" transform="translate(-340 -429.26)"/><path class="cls-1" d="M1503.8,1147.18c0.31-1.38.67-2.75,0.95-4.14l0.83-4.16,80.39,16.67-1,4.79c-0.32,1.59-.72,3.17-1.08,4.76Z" transform="translate(-340 -429.26)"/><polygon class="cls-1" points="1160.23 732.91 1160.78 730.86 1161.26 728.79 1162.22 724.66 1242.11 743.59 1241 748.34 1240.44 750.72 1239.82 753.08 1160.23 732.91"/><polygon class="cls-1" points="449.47 1115.06 457.51 1117.76 431.78 1195.72 422.52 1192.61 449.47 1115.06"/><path class="cls-1" d="M775,1539.05c2.64,1,5.32,1.94,8,2.92L755,1619.18c-3.06-1.12-6.13-2.2-9.17-3.37Z" transform="translate(-340 -429.26)"/><path class="cls-1" d="M760.67,1533.37c2.6,1.13,5.24,2.13,7.88,3.16l-30.1,76.38c-3-1.19-6.07-2.35-9.07-3.64Z" transform="translate(-340 -429.26)"/><path class="cls-1" d="M746.52,1527.28c2.58,1.16,5.15,2.34,7.78,3.4L722,1606.19c-3-1.23-6-2.58-9-3.92Z" transform="translate(-340 -429.26)"/><path class="cls-1" d="M732.54,1520.81c2.56,1.21,5.09,2.48,7.67,3.64L705.83,1599c-3-1.34-5.89-2.79-8.83-4.19Z" transform="translate(-340 -429.26)"/><polygon class="cls-1" points="378.75 1084.7 386.31 1088.55 349.83 1162.11 341.12 1157.67 378.75 1084.7"/><polygon class="cls-1" points="365.15 1077.46 372.61 1081.5 334.07 1153.98 325.47 1149.33 365.15 1077.46"/><polygon class="cls-1" points="351.76 1069.84 359.13 1074.06 318.54 1145.43 310.06 1140.56 351.76 1069.84"/><path class="cls-1" d="M678.62,1491.07c2.38,1.53,4.83,3,7.24,4.44l-42.6,70.18c-2.77-1.71-5.59-3.35-8.33-5.11Z" transform="translate(-340 -429.26)"/><path class="cls-1" d="M665.7,1482.68c2.32,1.62,4.72,3.13,7.1,4.66l-44.57,68.95c-2.74-1.76-5.49-3.51-8.17-5.36Z" transform="translate(-340 -429.26)"/><path class="cls-1" d="M653,1473.93c2.3,1.66,4.6,3.31,7,4.87l-46.5,67.66c-2.71-1.81-5.36-3.7-8-5.6Z" transform="translate(-340 -429.26)"/><path class="cls-1" d="M640.59,1464.82c2.27,1.69,4.49,3.45,6.81,5.08L599,1536.22c-2.66-1.88-5.22-3.89-7.83-5.84Z" transform="translate(-340 -429.26)"/><polygon class="cls-1" points="288.41 1026.12 295.06 1031.4 244.81 1096.33 237.16 1090.26 288.41 1026.12"/><polygon class="cls-1" points="276.49 1016.33 283.01 1021.79 230.96 1085.28 223.48 1079.02 276.49 1016.33"/><polygon class="cls-1" points="264.86 1006.22 271.23 1011.84 217.43 1073.85 210.11 1067.4 264.86 1006.22"/><polygon class="cls-1" points="253.5 995.78 259.73 1001.56 204.22 1062.05 197.07 1055.42 253.5 995.78"/><polygon class="cls-1" points="242.43 985.04 248.51 990.97 191.35 1049.9 184.37 1043.09 242.43 985.04"/><path class="cls-1" d="M799.22,1572.1a567.73,567.73,0,0,0,100,21.59c5.4-3.17,10.72-6.51,15.94-9.77a561.4,561.4,0,0,0,509.49-231.32,568.72,568.72,0,0,0,43.44-71.43c5.72-2.55,11.17-5.35,16.8-8.17l2.77-5.77c0.93-1.92,1.74-3.9,2.62-5.84l5.17-11.72c3.16-7.93,6.54-15.78,9.37-23.83l2.22-6,1.11-3,1-3,4.05-12.15c1.34-4.05,2.48-8.17,3.73-12.25l1.84-6.13,1.66-6.19L1497.9,1171c-0.59,2.17-1.12,4.35-1.76,6.51l-1.94,6.46c-1.31,4.3-2.5,8.64-4,12.88l-4.29,12.79-4.67,12.65q-9.67,25.17-21.62,49.39-12.15,24.07-26.45,47c-9.58,15.22-20,29.89-31,44.13A557.72,557.72,0,0,1,1328,1441a546.66,546.66,0,0,1-87.9,62.27l-6-2-6-2.1q-1.45,6.15-3,12.38a545.4,545.4,0,0,1-205.59,60.81,550.45,550.45,0,0,1-213.29-22.58Z" transform="translate(-340 -429.26)"/><polygon class="cls-1" points="93.3 708.21 95 716.53 14.83 734.24 12.87 724.67 93.3 708.21"/><path class="cls-1" d="M430.42,1122.31c0.5,2.79.91,5.59,1.49,8.37l-80.63,15.45c-0.66-3.19-1.14-6.41-1.72-9.62Z" transform="translate(-340 -429.26)"/><path class="cls-1" d="M428,1107.09c0.4,2.8.76,5.62,1.28,8.4l-81,13.18c-0.59-3.2-1-6.43-1.47-9.66Z" transform="translate(-340 -429.26)"/><polygon class="cls-1" points="85.92 662.54 86.39 666.77 86.99 670.97 5.61 681.87 4.93 677.03 4.39 672.18 85.92 662.54"/><path class="cls-1" d="M424.31,1076.46c0.18,2.83.56,5.64,0.85,8.46l-81.65,8.61c-0.34-3.24-.76-6.47-1-9.72Z" transform="translate(-340 -429.26)"/><path class="cls-1" d="M423.13,1061.08c0.15,2.83.43,5.65,0.64,8.48l-81.86,6.32c-0.24-3.25-.55-6.49-0.73-9.74Z" transform="translate(-340 -429.26)"/><polygon class="cls-1" points="82.38 616.41 82.79 624.9 0.79 628.93 0.33 619.17 82.38 616.41"/><polygon class="cls-1" points="82.1 600.99 82.25 609.49 0.17 611.21 0 601.45 82.1 600.99"/><polygon class="cls-1" points="82.24 585.56 82.13 594.06 0.04 593.49 0.17 583.72 82.24 585.56"/><polygon class="cls-1" points="82.82 570.14 82.45 578.64 0.4 575.77 0.82 566.01 82.82 570.14"/><polygon class="cls-1" points="83.82 554.75 83.19 563.23 1.25 558.06 1.97 548.32 83.82 554.75"/><polygon class="cls-1" points="85.25 539.39 84.35 547.85 2.59 540.39 3.61 530.67 85.25 539.39"/><path class="cls-1" d="M427.1,953.34c-0.37,2.81-.79,5.61-1.13,8.42L344.45,952c0.39-3.23.86-6.46,1.29-9.68Z" transform="translate(-340 -429.26)"/><polygon class="cls-1" points="89.38 508.83 88.67 513.02 88.32 515.11 88.03 517.22 6.82 505.19 7.15 502.77 7.55 500.36 8.36 495.54 89.38 508.83"/><path class="cls-1" d="M432.08,922.9l-0.84,4.17c-0.27,1.39-.48,2.79-0.72,4.19L349.68,917c0.28-1.6.52-3.21,0.83-4.81l1-4.79Z" transform="translate(-340 -429.26)"/><path class="cls-1" d="M435.2,907.8c-0.68,2.75-1.22,5.53-1.77,8.31L353,899.54c0.63-3.19,1.26-6.39,2-9.56Z" transform="translate(-340 -429.26)"/><path class="cls-1" d="M438.74,892.79c-0.75,2.73-1.31,5.51-2,8.26l-79.91-18.83c0.76-3.17,1.42-6.36,2.28-9.5Z" transform="translate(-340 -429.26)"/><polygon class="cls-1" points="809.54 80.67 801.49 77.97 827.2 0 836.46 3.12 809.54 80.67"/><path class="cls-1" d="M1164,515.19c-2.65-1-5.32-1.94-8-2.92l27.9-77.21c3.06,1.12,6.13,2.21,9.18,3.36Z" transform="translate(-340 -429.26)"/><path class="cls-1" d="M1178.36,520.88c-2.6-1.13-5.25-2.13-7.88-3.16l30.08-76.39c3,1.19,6.08,2.35,9.07,3.64Z" transform="translate(-340 -429.26)"/><path class="cls-1" d="M1192.53,527c-2.58-1.17-5.16-2.33-7.78-3.4L1217,448c3,1.24,6,2.57,9,3.92Z" transform="translate(-340 -429.26)"/><path class="cls-1" d="M1206.51,533.43c-2.56-1.21-5.09-2.48-7.67-3.64l34.36-74.56c3,1.34,5.89,2.79,8.84,4.19Z" transform="translate(-340 -429.26)"/><polygon class="cls-1" points="880.31 111.03 872.75 107.17 909.21 33.62 917.92 38.05 880.31 111.03"/><polygon class="cls-1" points="893.91 118.28 886.45 114.23 924.98 41.74 933.58 46.4 893.91 118.28"/><polygon class="cls-1" points="907.31 125.9 899.95 121.67 940.52 50.3 949 55.17 907.31 125.9"/><path class="cls-1" d="M1260.48,563.18c-2.38-1.53-4.83-3-7.24-4.44l42.59-70.19c2.78,1.71,5.59,3.36,8.33,5.11Z" transform="translate(-340 -429.26)"/><path class="cls-1" d="M1273.4,571.57c-2.33-1.62-4.72-3.13-7.1-4.66l44.56-69c2.74,1.76,5.49,3.51,8.17,5.36Z" transform="translate(-340 -429.26)"/><path class="cls-1" d="M1286.09,580.33l-3.45-2.47c-1.15-.82-2.34-1.6-3.51-2.4l46.49-67.67c1.34,0.92,2.71,1.82,4,2.76l4,2.84Z" transform="translate(-340 -429.26)"/><path class="cls-1" d="M1298.53,589.44c-2.27-1.69-4.49-3.45-6.81-5.08L1340.11,518c2.66,1.88,5.22,3.9,7.84,5.84Z" transform="translate(-340 -429.26)"/><polygon class="cls-1" points="970.71 169.63 964.05 164.35 1014.29 99.42 1021.95 105.49 970.71 169.63"/><polygon class="cls-1" points="982.63 179.43 976.11 173.97 1028.15 110.47 1035.65 116.74 982.63 179.43"/><polygon class="cls-1" points="994.28 189.54 987.9 183.92 1041.69 121.91 1049.02 128.36 994.28 189.54"/><polygon class="cls-1" points="1005.64 199.99 999.4 194.21 1054.91 133.71 1062.07 140.35 1005.64 199.99"/><polygon class="cls-1" points="1016.72 210.74 1010.63 204.8 1067.79 145.87 1074.77 152.69 1016.72 210.74"/><path class="cls-1" d="M1139.78,482.14a568.18,568.18,0,0,0-100.09-21.57c-5.4,3.18-10.73,6.51-15.94,9.77a562.84,562.84,0,0,0-166.69,8.79A556.31,556.31,0,0,0,567.84,638a554.4,554.4,0,0,0-97.08,135.72l-4.25,2c-1.41.67-2.78,1.36-4.17,2l-8.37,4.2-2.77,5.78c-0.91,1.93-1.74,3.9-2.61,5.85l-5.16,11.73c-3.16,7.93-6.52,15.8-9.36,23.86l-2.21,6-1.1,3-1,3-4,12.16c-1.32,4.06-2.47,8.18-3.71,12.27l-1.83,6.14-1.64,6.19L441.08,884c0.59-2.17,1.13-4.36,1.75-6.52l1.93-6.46c1.32-4.3,2.49-8.65,4-12.89l4.27-12.8,4.66-12.66q9.65-25.2,21.58-49.44,12.12-24.1,26.41-47c9.59-15.22,20-29.92,31-44.19l8.4-10.57c1.37-1.79,2.89-3.45,4.33-5.18l4.37-5.15c1.46-1.71,2.9-3.44,4.38-5.14l4.54-5,4.54-5c1.5-1.67,3-3.35,4.6-4.94q18.55-19.66,39-37.39a546.61,546.61,0,0,1,87.9-62.38c4,1.3,8,2.62,12.06,4.07q1.45-6.15,3-12.38a545.31,545.31,0,0,1,205.67-61,550.47,550.47,0,0,1,213.43,22.51Z" transform="translate(-340 -429.26)"/><g class="cls-2"><path class="cls-1" d="M1438.83,927A478.17,478.17,0,0,0,1062.9,551.08a479.57,479.57,0,0,0-186.64,0A478.17,478.17,0,0,0,500.33,927a479.57,479.57,0,0,0,0,186.64,478.17,478.17,0,0,0,375.93,375.93,479.56,479.56,0,0,0,186.64,0,478.17,478.17,0,0,0,375.93-375.93A479.57,479.57,0,0,0,1438.83,927Zm-144,418.56a459,459,0,0,1-231,125c-8.37-9.73-16.36-19.83-23.86-29.86l-3.76.68c-0.63.11-1.25,0.24-1.88,0.33l-1.9.24-7.58,1-7.58,1-3.79.49c-1.27.13-2.54,0.2-3.81,0.3l-15.24,1.16c-2.54.25-5.09,0.28-7.64,0.34l-7.65.19-7.65.2-1.91.05-1.91-.05-3.82-.1-15.29-.38c-5.09-.29-10.16-0.76-15.25-1.12l-7.62-.59-7.58-1a423.09,423.09,0,0,1-117.57-31.7l-13.92-6.29-1.74-.78-1.7-.87-3.4-1.74-6.8-3.48-6.8-3.49-6.62-3.81-6.62-3.81c-2.2-1.28-4.45-2.49-6.56-3.91l-12.87-8.25c-2.18-1.33-4.22-2.85-6.3-4.32l-6.23-4.43-6.23-4.42-6-4.72-6-4.72c-2-1.6-4.06-3.08-5.94-4.8l-11.55-10c-1-.85-2-1.63-2.86-2.53l-2.76-2.64-5.53-5.28-5.54-5.27c-1.79-1.81-3.52-3.68-5.29-5.52L658,1311l-2.64-2.76-1.32-1.38-1.25-1.45-10-11.56c-0.82-1-1.69-1.9-2.48-2.9l-2.36-3-4.72-6-4.73-6c-1.54-2-3-4.14-4.45-6.21l-4.43-6.23-2.22-3.11c-0.75-1-1.48-2.07-2.15-3.16q-12.88,1.45-26.13,2.36-5.93.41-11.93,0.7a457.54,457.54,0,0,1-58.74-150.25,461.11,461.11,0,0,1,0-179.47,457.24,457.24,0,0,1,47-130c4,0,8,0,11.93.09q13.29,0.24,26.24,1c1.22-2.24,2.64-4.36,4-6.5l4.13-6.43,4.12-6.44c1.44-2.1,2.95-4.15,4.42-6.24l4.43-6.23,2.21-3.12,1.11-1.56,1.18-1.5,9.45-12c0.8-1,1.55-2,2.38-3l2.51-2.89,5-5.78,5-5.78c1.71-1.89,3.51-3.7,5.25-5.55l5.27-5.53,2.63-2.77,1.32-1.38c0.45-.45.92-0.88,1.38-1.32l11.07-10.55c0.93-.87,1.83-1.77,2.78-2.63l2.89-2.5,5.78-5,5.77-5c1.94-1.65,4-3.16,6-4.75l6-4.72,3-2.36c1-.79,2-1.59,3-2.31L728.22,669l3.11-2.22,3.22-2.06,6.43-4.12,6.43-4.13c1.06-.71,2.17-1.32,3.28-2l3.31-1.9c4.43-2.52,8.81-5.12,13.27-7.58l13.6-7,3.4-1.75c1.13-.58,2.31-1.06,3.47-1.6l7-3.14c4.64-2.09,9.24-4.29,14-6L822.93,620l14.47-4.89c19.39-6.18,39.13-11.43,59.25-14.65l7.52-1.35c2.52-.37,5.05-0.65,7.58-1,5.06-.62,10.1-1.33,15.16-1.88l15.24-1.15,3.81-.29c0.64,0,1.27-.11,1.91-0.13l1.91,0,7.65-.19,7.65-.2,3.82-.1c1.27,0,2.55,0,3.82.07L988,594.55c1.27,0,2.55,0,3.82.11l3.81,0.29,7.62,0.58c5.08,0.4,10.17.66,15.21,1.42,7-10.39,14.45-20.89,22.31-31q9.29,1.45,18.53,3.27a459.89,459.89,0,0,1,279.3,176.62q-2.51,5.46-5.09,10.82-5.77,12-11.92,23.4c1.53,2,2.83,4.23,4.22,6.37l4.12,6.43,4.13,6.43,3.81,6.62,3.81,6.62c1.25,2.22,2.61,4.38,3.72,6.67l7,13.6c0.57,1.14,1.2,2.25,1.71,3.41l1.57,3.48,3.14,7,3.15,7c1,2.33,1.89,4.73,2.84,7.09l2.8,7.1,1.4,3.55c0.46,1.19,1,2.36,1.35,3.57l4.89,14.47,1.23,3.62c0.41,1.21.71,2.44,1.07,3.67l2.08,7.35c1.36,4.9,2.9,9.76,3.93,14.76l3.44,14.88c1,5,1.8,10,2.72,15,0.43,2.51.94,5,1.31,7.53l1,7.58,1,7.58c0.29,2.53.73,5,.85,7.59l1.16,15.24,0.29,3.81c0.07,1.27.07,2.55,0.11,3.82l0.19,7.65,0.2,7.65c0,1.27.1,2.55,0.07,3.82l-0.1,3.82-0.38,15.29c0,2.55-.31,5.09-0.47,7.63l-0.58,7.62-0.57,7.62c-0.22,2.54-.62,5.06-0.92,7.59l-1.94,15.16-2.69,15-0.67,3.76-0.34,1.88-0.43,1.86-1.72,7.44-1.71,7.44-0.85,3.72-1,3.67-4.17,14.69-0.52,1.84-0.61,1.81-1.23,3.62-2.45,7.23-2.44,7.24-2.81,7.1-2.8,7.11-1.4,3.55c-0.24.59-.45,1.19-0.71,1.77l-0.79,1.74-6.29,13.92c-0.53,1.16-1,2.33-1.59,3.47l-1.75,3.4-3.48,6.8-3.48,6.8c-1.18,2.26-2.52,4.43-3.77,6.64l-3.81,6.62-1.9,3.31c-0.64,1.1-1.24,2.22-2,3.28q6.7,11.09,13.06,22.74,2.85,5.22,5.63,10.56A461.69,461.69,0,0,1,1294.82,1345.56Z" transform="translate(-340 -429.26)"/></g><path class="cls-1" d="M1279.35,1023.94l128.94-.16v-8l-128.94.16A301.25,301.25,0,0,0,1258,908.52l30.45-12.57-3.05-7.39L1255,901.12a305.91,305.91,0,0,0-61.18-91.8l51.67-51.49-5.65-5.67-51.67,51.49a305.24,305.24,0,0,0-91.58-61.51l12.68-30.41-7.38-3.08-12.68,30.41a299.73,299.73,0,0,0-107.35-21.65l0.6-128.92-8,0-0.6,128.93a301.22,301.22,0,0,0-108.26,20.93l-12.46-30.49-7.41,3,12.46,30.49a305.78,305.78,0,0,0-92,60.85l-51.31-51.84L709.18,756l51.31,51.84a301,301,0,0,0-61.87,91.35l-30.37-12.79-3.1,7.37,30.37,12.79a298.67,298.67,0,0,0-22,108l-128.93-.72,0,8,128.91,0.72h0a298.76,298.76,0,0,0,22.06,111.51l-30.37,12.79,3.11,7.37,30.37-12.79a301,301,0,0,0,61.87,91.35l-51.31,51.84,5.69,5.63,51.31-51.84a305.8,305.8,0,0,0,92,60.86l-12.46,30.49,7.41,3,12.46-30.49a301.15,301.15,0,0,0,107.5,20.92l0.28,129,8,0-0.28-128.95a299.75,299.75,0,0,0,108.12-21.66l12.68,30.41,7.38-3.08-12.68-30.41a305.23,305.23,0,0,0,91.58-61.51l51.67,51.49,5.65-5.67-51.67-51.49a305.9,305.9,0,0,0,61.18-91.8l30.45,12.57,3.05-7.39L1258,1132.13A301.31,301.31,0,0,0,1279.35,1023.94Zm-94.07,204.67a296.87,296.87,0,0,1-95.41,64.07,295.81,295.81,0,0,1-225.37.61,296.62,296.62,0,0,1-132.68-108,294.24,294.24,0,0,1-27.47-50.74A290.92,290.92,0,0,1,681.45,1022v-3.4a290.92,290.92,0,0,1,22.89-112.55,294.45,294.45,0,0,1,64.38-95.21,297.46,297.46,0,0,1,95.78-63.51,293.36,293.36,0,0,1,112.12-22h0.63A292,292,0,0,1,1089.87,748a295.76,295.76,0,0,1,159.2,159.68,295.49,295.49,0,0,1,0,225.37A297.56,297.56,0,0,1,1185.28,1228.62Z" transform="translate(-340 -429.26)"/></svg>