<svg preserveAspectRatio="none" id="Layer_1" data-name="Layer 1" xmlns="http://www.w3.org/2000/svg" viewBox="0 0 111.39 111.38"><defs><style>.cls-1{fill:#00eadb}.cls-2{fill:#08e5db}.cls-4{fill:#fe6a13}</style></defs><path class="cls-1" d="M19.93 55.05h.43v1.28h-.43zM20.89 55.05h.43v1.28h-.43zM21.84 55.05h.43v1.28h-.43zM22.79 55.05h.43v1.28h-.43zM23.75 55.05h.43v1.28h-.43zM24.7 55.05h.43v1.28h-.43zM25.66 55.05h.43v1.28h-.43zM26.61 55.05h.43v1.28h-.43zM27.56 55.05h.43v1.28h-.43zM28.52 55.05h.43v1.28h-.43zM29.47 55.05h.43v1.28h-.43zM30.42 55.05h.43v1.28h-.43zM31.38 55.05h.43v1.28h-.43zM32.33 55.05h.43v1.28h-.43zM33.28 55.05h.43v1.28h-.43zM34.24 55.05h.43v1.28h-.43zM35.19 55.05h.43v1.28h-.43zM36.15 55.05h.43v1.28h-.43zM37.1 55.05h.43v1.28h-.43zM38.05 55.05h.43v1.28h-.43zM39.01 55.05h.43v1.28h-.43zM39.96 55.05h.43v1.28h-.43zM40.91 55.05h.43v1.28h-.43zM41.87 55.05h.43v1.28h-.43zM42.82 55.05h.43v1.28h-.43zM43.78 55.05h.43v1.28h-.43zM44.73 55.05h.43v1.28h-.43zM45.68 55.05h.43v1.28h-.43zM46.64 55.05h.43v1.28h-.43zM47.59 55.05h.43v1.28h-.43zM48.54 55.05h.43v1.28h-.43zM62.02 55.05h.43v1.28h-.43zM62.97 55.05h.43v1.28h-.43zM63.92 55.05h.43v1.28h-.43zM64.88 55.05h.43v1.28h-.43zM65.83 55.05h.43v1.28h-.43zM66.79 55.05h.43v1.28h-.43zM67.74 55.05h.43v1.28h-.43zM68.69 55.05h.43v1.28h-.43zM69.65 55.05h.43v1.28h-.43zM70.6 55.05h.43v1.28h-.43zM71.55 55.05h.43v1.28h-.43zM72.51 55.05h.43v1.28h-.43zM73.46 55.05h.43v1.28h-.43zM74.42 55.05h.43v1.28h-.43zM75.37 55.05h.43v1.28h-.43zM76.32 55.05h.43v1.28h-.43zM77.28 55.05h.43v1.28h-.43zM78.23 55.05h.43v1.28h-.43zM79.18 55.05h.43v1.28h-.43zM80.14 55.05h.43v1.28h-.43zM81.09 55.05h.43v1.28h-.43zM82.05 55.05h.43v1.28h-.43zM83 55.05h.43v1.28H83zM83.95 55.05h.43v1.28h-.43zM84.91 55.05h.43v1.28h-.43zM85.86 55.05h.43v1.28h-.43zM86.81 55.05h.43v1.28h-.43zM87.77 55.05h.43v1.28h-.43zM88.72 55.05h.43v1.28h-.43zM89.68 55.05h.43v1.28h-.43zM90.63 55.05h.43v1.28h-.43zM55.24 90.82h1.28v.43h-1.28zM55.24 89.87h1.28v.43h-1.28zM55.24 88.92h1.28v.43h-1.28zM55.24 87.96h1.28v.43h-1.28zM55.24 87.01h1.28v.43h-1.28zM55.24 86.05h1.28v.43h-1.28zM55.24 85.1h1.28v.43h-1.28zM55.24 84.15h1.28v.43h-1.28zM55.24 83.19h1.28v.43h-1.28zM55.24 82.24h1.28v.43h-1.28zM55.24 81.29h1.28v.43h-1.28zM55.24 80.33h1.28v.43h-1.28zM55.24 79.38h1.28v.43h-1.28zM55.24 78.42h1.28v.43h-1.28zM55.24 77.47h1.28v.43h-1.28zM55.24 76.52h1.28v.43h-1.28zM55.24 75.56h1.28v.43h-1.28zM55.24 74.61h1.28v.43h-1.28zM55.24 73.66h1.28v.43h-1.28zM55.24 72.7h1.28v.43h-1.28zM55.24 71.75h1.28v.43h-1.28zM55.24 70.79h1.28v.43h-1.28zM55.24 69.84h1.28v.43h-1.28zM55.24 68.89h1.28v.43h-1.28zM55.24 67.93h1.28v.43h-1.28zM55.24 66.98h1.28v.43h-1.28zM55.24 66.03h1.28v.43h-1.28zM55.24 65.07h1.28v.43h-1.28zM55.24 64.12h1.28v.43h-1.28zM55.24 63.16h1.28v.43h-1.28zM55.24 62.21h1.28v.43h-1.28zM55.24 48.74h1.28v.43h-1.28zM55.24 47.78h1.28v.43h-1.28zM55.24 46.83h1.28v.43h-1.28zM55.24 45.88h1.28v.43h-1.28zM55.24 44.92h1.28v.43h-1.28zM55.24 43.97h1.28v.43h-1.28zM55.24 43.02h1.28v.43h-1.28zM55.24 42.06h1.28v.43h-1.28zM55.24 41.11h1.28v.43h-1.28zM55.24 40.15h1.28v.43h-1.28zM55.24 39.2h1.28v.43h-1.28zM55.24 38.25h1.28v.43h-1.28zM55.24 37.29h1.28v.43h-1.28zM55.24 36.34h1.28v.43h-1.28zM55.24 35.39h1.28v.43h-1.28zM55.24 34.43h1.28v.43h-1.28zM55.24 33.48h1.28v.43h-1.28zM55.24 32.53h1.28v.43h-1.28zM55.24 31.57h1.28V32h-1.28zM55.24 30.62h1.28v.43h-1.28zM55.24 29.66h1.28v.43h-1.28zM55.24 28.71h1.28v.43h-1.28zM55.24 27.76h1.28v.43h-1.28zM55.24 26.8h1.28v.43h-1.28zM55.24 25.85h1.28v.43h-1.28zM55.24 24.9h1.28v.43h-1.28zM55.24 23.94h1.28v.43h-1.28zM55.24 22.99h1.28v.43h-1.28zM55.24 22.03h1.28v.43h-1.28zM55.24 21.08h1.28v.43h-1.28zM55.24 20.13h1.28v.43h-1.28z"/><path class="cls-2" d="M49.64 66s.63-.18 1.59-.36c.48-.09 1-.2 1.61-.29s1.22-.16 1.84-.23S55.93 65 56.5 65h3.05v-1.49-1.56c0-.57.05-1.2.12-1.82s.14-1.24.23-1.84.2-1.13.29-1.61c.19-1 .36-1.59.36-1.59l.78-.5c.25-.17.56-.34.92-.55s.76-.45 1.21-.68a36.72 36.72 0 016.89-2.82 38.06 38.06 0 017.31-1.4l1.38-.1h1.07L81 49h2l1.38.1a38.07 38.07 0 017.31 1.4 36.75 36.75 0 016.89 2.82c.45.23.85.48 1.21.68s.67.38.92.55l.79.5s.18.63.36 1.59c.09.48.2 1 .29 1.61s.16 1.22.23 1.84.09 1.25.12 1.82v3.05h3.05c.57 0 1.2.05 1.82.12s1.24.14 1.84.23 1.13.2 1.61.29c1 .19 1.59.36 1.59.36l.5.79c.17.25.34.56.55.92s.45.76.68 1.21a36.72 36.72 0 012.82 6.89 38 38 0 011.4 7.31l.1 1.38v4l-.1 1.38a38 38 0 01-1.4 7.31 36.72 36.72 0 01-2.82 6.89c-.23.45-.48.85-.68 1.21s-.38.67-.55.92l-.5.78s-.63.18-1.59.36c-.48.09-1 .2-1.61.29s-1.22.16-1.84.23-1.25.09-1.82.12h-3.04V111c0 .57-.05 1.2-.12 1.81s-.14 1.24-.23 1.84-.2 1.13-.29 1.61c-.19 1-.36 1.59-.36 1.59l-.79.5c-.25.17-.56.34-.92.55s-.76.45-1.21.68a36.76 36.76 0 01-6.89 2.82 38 38 0 01-7.31 1.4l-1.38.1h-1.07l-.94.1h-2l-1.38-.1a38 38 0 01-7.31-1.4 36.72 36.72 0 01-6.89-2.82c-.46-.23-.85-.48-1.21-.68s-.67-.38-.92-.55l-.78-.5s-.18-.63-.36-1.59c-.09-.48-.2-1-.29-1.61s-.16-1.22-.23-1.84-.09-1.25-.12-1.81v-.82-.74-1.49h-3.02c-.57 0-1.2-.05-1.82-.12s-1.24-.14-1.84-.23-1.13-.2-1.61-.29c-1-.19-1.59-.36-1.59-.36l-.5-.78c-.17-.25-.34-.56-.55-.92s-.45-.76-.68-1.21a36.75 36.75 0 01-2.82-6.89 38.06 38.06 0 01-1.4-7.31l-.1-1.38v-2h-1v2.1l.14 1.34a39 39 0 001.44 7.51 37.68 37.68 0 002.9 7.07c.23.47.49.87.7 1.24s.39.69.56.94l.52.8.7.18.71.16s.56.13 1.38.28 1.93.31 3 .41 2.14.14 2.94.12 1.3 0 1.3 0v3.09c0 .58.07 1.22.15 1.84s.16 1.26.26 1.86.22 1.15.32 1.63c.2 1 .39 1.61.39 1.61l.81.52c.25.17.58.35.94.56s.78.46 1.24.7a37.75 37.75 0 007.07 2.9 39 39 0 007.51 1.43l1.44.05h4.2l1.42-.11a39 39 0 007.38-1.43 37.76 37.76 0 007.07-2.9c.47-.23.87-.49 1.24-.7s.69-.39.94-.56l.81-.52.19-.7.16-.71s.13-.56.28-1.38.31-1.93.41-3 .14-2.14.12-2.94 0-1.3 0-1.3h3.09c.58 0 1.22-.07 1.84-.15s1.26-.16 1.86-.26 1.15-.22 1.63-.32c1-.2 1.61-.39 1.61-.39l.52-.8c.17-.25.35-.58.56-.94s.46-.78.7-1.24a37.71 37.71 0 002.9-7.07 39 39 0 001.39-7.48l.11-1.42v-1.1-1-2.1l-.11-1.38a39 39 0 00-1.44-7.51 37.73 37.73 0 00-2.9-7.07c-.23-.47-.49-.87-.7-1.24s-.39-.69-.56-.94l-.52-.81-.7-.18-.71-.16s-.56-.13-1.38-.28-1.93-.31-3-.41-2.14-.14-2.94-.12-1.3 0-1.3 0v-1.51-1.58c0-.58-.07-1.22-.15-1.84s-.16-1.26-.26-1.86-.22-1.15-.32-1.63c-.2-1-.39-1.61-.39-1.61l-.81-.52c-.25-.17-.58-.35-.94-.56s-.78-.46-1.24-.7A37.72 37.72 0 0092 49.63a39 39 0 00-7.51-1.44l-1.42-.11h-4.2l-1.42.11A39 39 0 0070 49.63a37.71 37.71 0 00-7 2.9c-.47.23-.87.49-1.24.7s-.69.39-.94.56l-.82.52-.2.69-.16.71s-.13.56-.28 1.38-.31 1.93-.41 3-.14 2.14-.12 2.94 0 1.3 0 1.3H55.76c-.58 0-1.22.07-1.84.15s-1.26.16-1.86.26-1.15.22-1.63.32c-1 .2-1.61.39-1.61.39l-.52.81c-.17.25-.35.58-.56.94s-.46.78-.7 1.24a37.71 37.71 0 00-2.9 7.07A39 39 0 0042.72 83l-.11 1.42v2.1h1v-2l.1-1.38a38.06 38.06 0 011.4-7.31 36.75 36.75 0 012.82-6.89c.23-.46.48-.85.68-1.21s.38-.67.55-.92z" transform="translate(-25.32 -30.81)"/><path class="cls-2" d="M76.63 85.58h-.05l-.13.08-.19.13L76 86l-.2.18-.09.09-.08.08-.16.17.16.17.08.08.09.09.2.14.21.16.19.13.13.08h.05v.39a4.43 4.43 0 00.34.82 4.56 4.56 0 00.5.74l.11.13.09.09.08.08.08.08.22.14.13.11a4.56 4.56 0 00.74.5 4.36 4.36 0 00.82.34h.39v.05l.08.13.13.19.16.21.18.2.09.09.08.08.2.26.17-.16.08-.08.09-.09.18-.2.16-.21.13-.19.08-.13v-.05h.39a4.35 4.35 0 00.82-.34 4.53 4.53 0 00.74-.5l.16-.21.09-.09.08-.08.08-.08.09-.09.11-.13a4.58 4.58 0 00.5-.74 4.37 4.37 0 00.34-.82v-.39h.05l.13-.08.19-.13L86 87l.2-.18.09-.09.08-.08.16-.17-.16-.17-.08-.08-.09-.09L86 86l-.21-.16-.19-.13-.13-.08h-.05v-.39a4.37 4.37 0 00-.42-.88 4.56 4.56 0 00-.5-.74l-.11-.13-.09-.09-.08-.08-.08-.08-.14-.08-.13-.11a4.53 4.53 0 00-.74-.5 4.38 4.38 0 00-.82-.34h-.39v-.05l-.08-.13-.13-.19-.16-.21-.18-.2-.09-.09-.08-.08L81 81l-.17.16-.08.08-.09.09-.18.2-.16.21-.13.19-.08.13v.05h-.39a4.4 4.4 0 00-.82.34 4.58 4.58 0 00-.74.5l-.16.21-.09.09-.08.08.1.1.07-.08.09-.09.12-.1a4.42 4.42 0 01.71-.48 4.25 4.25 0 01.8-.33h.38v-.16l.1-.16.11-.16.14-.18c.1-.12.21-.24.29-.32l.26-.24.17.16.08.08.08.09.17.2.16.21.12.19.08.13v.05h.38a4.24 4.24 0 01.8.33 4.39 4.39 0 01.71.48l.12.1.13.2.08.07.07.08.09.09.1.12a4.42 4.42 0 01.48.71 4.2 4.2 0 01.33.8v.38h.16l.16.1.16.11.18.14.32.29.14.15-.16.17-.08.08-.03.19-.2.17-.21.16-.19.13-.13.08h-.05v.38a4.26 4.26 0 01-.33.8 4.41 4.41 0 01-.48.71l-.1.12-.09.09-.07.08-.15.1-.09.09-.12.1a4.37 4.37 0 01-.71.48 4.22 4.22 0 01-.8.33h-.38v.16l-.1.16-.11.16-.14.18c-.1.12-.21.24-.29.32l-.26.23-.17-.16-.08-.08-.08-.09-.17-.2-.16-.21-.12-.19-.08-.13v-.05h-.38a4.25 4.25 0 01-.8-.33 4.41 4.41 0 01-.71-.48l-.12-.1-.13-.19-.08-.07-.07-.08-.09-.09-.1-.12a4.41 4.41 0 01-.48-.71 4.26 4.26 0 01-.33-.8v-.38h-.16l-.16-.1-.16-.11-.18-.14-.32-.29-.14-.15.16-.17.08-.08.03-.19.2-.17.21-.16.19-.12.13-.08h.05v-.38a4.25 4.25 0 01.33-.8 4.42 4.42 0 01.48-.71l.1-.12.09-.09.07-.08-.1-.1-.08.08-.09.09-.11.13a4.54 4.54 0 00-.5.74 4.43 4.43 0 00-.34.82v.28z" transform="translate(-25.32 -30.81)"/><path d="M39 109.21l.1.18.3.51.48.84.31.54.39.6c.28.42.57.91.92 1.42l1.17 1.7c.44.58.94 1.2 1.46 1.86s1.12 1.32 1.76 2 1.32 1.4 2.11 2.14c.38.35.75.74 1.17 1.09l1.26 1.1a51 51 0 006 4.28 47.62 47.62 0 0016.48 6.12 48.39 48.39 0 0010.07.65c.44 0 .87 0 1.31-.07l1.32-.1c.88-.08 1.77-.22 2.66-.32s1.78-.3 2.68-.49l1.34-.31.67-.16.67-.19a47.86 47.86 0 0033.13-32.31l.44-1.54c.15-.51.25-1 .37-1.55.26-1 .42-2.09.62-3.14a48.81 48.81 0 00-.86-19.23c-.12-.52-.29-1-.43-1.56s-.29-1-.47-1.55l-.52-1.53-.59-1.51-.3-.75-.33-.74c-.22-.49-.44-1-.67-1.47-.5-1-1-1.93-1.52-2.85A47.71 47.71 0 0070.2 40 46.73 46.73 0 0060 43.59a48.11 48.11 0 00-20.12 18.6 45.77 45.77 0 00-3.25 6.61 47.8 47.8 0 00-1.94 5.94l-.31 1.34c-.1.44-.2.86-.27 1.27l-.21 1.2c-.07.39-.14.76-.18 1.13l-.25 2-.13 1.69c0 .25 0 .49-.05.71v2.41h-3.71v-2.52c0-.24 0-.5.05-.77l.14-1.82c.07-.67.17-1.39.27-2.17 0-.39.11-.8.19-1.21l.23-1.3c.07-.45.18-.9.29-1.37l.33-1.45a51.61 51.61 0 012.09-6.41 49.4 49.4 0 013.5-7.12 51.78 51.78 0 0121.67-20 50.41 50.41 0 0111-3.89A51.41 51.41 0 01125.68 61c.6 1 1.1 2 1.63 3.07.25.52.48 1.06.72 1.58l.36.79.32.81.64 1.62.56 1.65c.2.55.35 1.11.51 1.67s.33 1.12.46 1.68a52.46 52.46 0 01.92 20.7c-.21 1.13-.38 2.27-.66 3.39-.14.56-.24 1.12-.4 1.67l-.47 1.65a51.44 51.44 0 01-35.69 34.8l-.72.2-.73.17-1.45.33c-1 .2-1.93.36-2.89.53s-1.92.26-2.87.35l-1.42.11c-.47 0-.94.08-1.41.08a52.12 52.12 0 01-10.84-.7 51.32 51.32 0 01-17.75-6.59 54.67 54.67 0 01-6.46-4.6l-1.34-1.16c-.45-.38-.85-.8-1.26-1.18-.83-.76-1.55-1.56-2.25-2.29s-1.31-1.49-1.9-2.17-1.09-1.38-1.57-2l-1.27-1.79c-.37-.56-.69-1.07-1-1.53l-.45-.65-.34-.58-.52-.91-.32-.55-.06-.15z" transform="translate(-25.32 -30.81)" fill="#067773"/><path class="cls-2" d="M27.14 86.5V89.19c0 .25 0 .52.06.8l.15 1.9c.08.7.18 1.46.28 2.28 0 .41.12.84.2 1.27l.24 1.36c.08.47.19.95.3 1.44l.35 1.52a54.06 54.06 0 002.28 6.71 51.85 51.85 0 003.67 7.46 54.23 54.23 0 0022.7 21A52.87 52.87 0 0068.82 139a53.86 53.86 0 0059-25.77c.63-1 1.15-2.14 1.71-3.22.26-.55.51-1.11.76-1.66l.38-.83.34-.85.67-1.7.59-1.73c.21-.57.37-1.16.53-1.75s.34-1.17.49-1.76a54.91 54.91 0 001-21.68c-.22-1.19-.4-2.38-.69-3.55-.14-.59-.26-1.18-.42-1.75l-.56-1.75a53.89 53.89 0 00-37.39-36.47l-.75-.21-.76-.18-1.52-.35c-1-.21-2-.38-3-.55s-2-.27-3-.36l-1.49-.11c-.49 0-1-.08-1.48-.08a54.53 54.53 0 00-11.35.74 53.75 53.75 0 00-18.6 6.91 57.08 57.08 0 00-6.76 4.82l-1.43 1.24c-.47.4-.89.83-1.32 1.23-.87.8-1.62 1.63-2.36 2.4s-1.37 1.56-2 2.28-1.14 1.44-1.64 2.1l-1.33 1.87c-.39.58-.73 1.12-1 1.6l-.44.65-.35.61-.55 1-.33.58-.11.2L32 60l.11-.2.34-.6.57-1 .37-.63.45-.7c.32-.5.67-1.06 1.07-1.66l1.37-1.93c.52-.68 1.09-1.4 1.7-2.17s1.32-1.53 2.02-2.34 1.54-1.65 2.44-2.48c.45-.41.88-.86 1.36-1.27l1.47-1.28a58.85 58.85 0 017-5A55.57 55.57 0 0171.5 31.6a56.32 56.32 0 0111.73-.76c.51 0 1 0 1.53.09l1.54.12c1 .09 2.06.25 3.11.38s2.08.35 3.13.57l1.57.36.79.18.78.22a55.8 55.8 0 0138.65 37.69l.51 1.79c.17.6.29 1.21.44 1.81.3 1.21.49 2.44.72 3.67a56.73 56.73 0 01-1 22.41c-.15.61-.34 1.22-.5 1.82s-.34 1.21-.55 1.81l-.61 1.79-.69 1.76-.35.88-.39.86c-.26.57-.51 1.15-.79 1.72-.58 1.12-1.12 2.25-1.77 3.33a55.66 55.66 0 01-61 26.64 54.66 54.66 0 01-11.87-4.21 56 56 0 01-23.46-21.68 53.7 53.7 0 01-3.79-7.71 55.79 55.79 0 01-2.23-6.93l-.36-1.57c-.12-.51-.23-1-.31-1.49l-.25-1.4c-.08-.45-.16-.89-.21-1.32-.11-.85-.21-1.63-.29-2.35l-.15-2c0-.29 0-.57-.06-.83s0-.5 0-.73v-2.05h1.82z" transform="translate(-25.32 -30.81)"/><path class="cls-4" d="M77.85 43.69h-.47c-.3 0-.75 0-1.32.13a41 41 0 00-4.64.8 42.67 42.67 0 00-13.16 5.44 43.61 43.61 0 00-6.1 4.61 45.63 45.63 0 00-4.57 4.86l-.87 1.1c-.27.35-.51.71-.74 1s-.45.62-.64.91l-.51.8c-.3.48-.56.85-.7 1.12l-.23.41-2.9-1.64.25-.44c.15-.29.43-.69.76-1.21l.55-.86c.21-.31.44-.63.69-1s.5-.73.8-1.1l.95-1.15a48.88 48.88 0 014.92-5.23 46.87 46.87 0 016.56-5 46 46 0 0114.18-5.86 44.32 44.32 0 015-.86c.61-.09 1.09-.11 1.42-.14h.5zM116.11 61.76l-.27-.38c-.18-.25-.43-.62-.79-1.06l-.58-.74-.33-.42-.38-.43-.83-1c-.29-.34-.63-.66-1-1a41.59 41.59 0 00-5-4.44 43.16 43.16 0 00-13.54-6.92A41.86 41.86 0 0086.95 44l-1.39-.18c-.44 0-.87-.07-1.26-.1l-1.11-.08h-2.74v-3.31h2.92l1.19.09c.43 0 .88.06 1.36.11l1.5.19a45.2 45.2 0 017 1.53A46.5 46.5 0 01109 49.67a45 45 0 015.36 4.78c.36.38.72.74 1 1.1l.89 1 .44.45.31.5.63.8c.39.48.66.87.85 1.14l.29.41zM120.29 103.86s.29-.58.69-1.65l.35-.88c.12-.32.23-.68.36-1s.27-.77.4-1.2l.38-1.35a42.77 42.77 0 001.24-6.54 45 45 0 00.15-7.65 41.74 41.74 0 00-1.19-7.59 46.37 46.37 0 00-2.12-6.31 45.15 45.15 0 00-2.09-4.22l-.66-1.15c-.16-.26-.25-.4-.25-.4l2.82-1.75s.1.14.27.43l.71 1.23a48.45 48.45 0 012.25 4.55 49.71 49.71 0 012.28 6.8 45.08 45.08 0 011.27 8.13 48.33 48.33 0 01-.16 8.23 46.1 46.1 0 01-1.33 7.05l-.41 1.45c-.13.46-.29.89-.43 1.29s-.26.78-.39 1.13l-.37.94c-.23.57-.39 1-.53 1.32l-.21.46zM86.33 129.1l.46-.06c.3 0 .75-.08 1.31-.19a40.9 40.9 0 004.6-1 42.68 42.68 0 0012.87-6.1 43.83 43.83 0 005.86-4.91 44.71 44.71 0 004.32-5.08l.81-1.14c.25-.37.47-.73.69-1.06s.42-.64.59-.94l.47-.82c.28-.49.51-.88.64-1.15l.21-.42 2.94 1.52-.23.45c-.14.3-.39.71-.69 1.24l-.51.88c-.18.32-.41.65-.64 1s-.47.75-.74 1.14l-.88 1.23a48 48 0 01-4.66 5.47 47.16 47.16 0 01-6.31 5.28A46 46 0 0193.6 131a44.17 44.17 0 01-5 1.11c-.6.12-1.08.16-1.41.21l-.5.06zM47.21 113l.29.37.35.44.5.58c.38.42.81 1 1.37 1.53l.87.92c.32.31.66.63 1 1a42.08 42.08 0 005.19 4.19 43.11 43.11 0 0013.87 6.23 42 42 0 006.57 1.09l1.4.11h5.12l.21 3.31h-5.48l-1.51-.11a45.32 45.32 0 01-7.08-1.17 46.44 46.44 0 01-14.94-6.71 45.45 45.45 0 01-5.59-4.51c-.38-.36-.75-.71-1.09-1l-.94-1c-.6-.61-1.07-1.19-1.48-1.65l-.53-.62-.37-.48-.34-.52z" transform="translate(-25.32 -30.81)"/></svg>