<svg preserveAspectRatio="none" xmlns="http://www.w3.org/2000/svg" viewBox="0 0 188.41 190.89"><defs><style>.cls-1{isolation:isolate;}.cls-2{mix-blend-mode:overlay;}.cls-3{fill:aqua;}.cls-4{opacity:0.46;}.cls-5{opacity:0.67;}.cls-6{opacity:0.35;}.cls-7{opacity:0.31;}</style></defs><title>circle105</title><g class="cls-1"><g id="Layer_1" data-name="Layer 1"><g id="_编组_" data-name="&lt;编组&gt;" class="cls-2"><g id="_编组_2" data-name="&lt;编组&gt;"><g id="_编组_3" data-name="&lt;编组&gt;"><g id="_编组_4" data-name="&lt;编组&gt;"><path class="cls-3" d="M735.88,216.84a23,23,0,1,1,23-23A23.07,23.07,0,0,1,735.88,216.84Zm0-43.84a20.8,20.8,0,1,0,20.8,20.8A20.83,20.83,0,0,0,735.88,173Z" transform="translate(-633.8 -84.88)"/></g></g></g><g id="_编组_5" data-name="&lt;编组&gt;"><g id="_编组_6" data-name="&lt;编组&gt;" class="cls-4"><g id="_编组_7" data-name="&lt;编组&gt;"><g id="_编组_8" data-name="&lt;编组&gt;"><path class="cls-3" d="M694.42,178.69l-60.63-23,0.19-.51a109,109,0,0,1,129.12-66.9l0.53,0.14-16.17,62.78-0.53-.14a44.21,44.21,0,0,0-52.32,27.09ZM635.2,155.1l58.6,22.2a45.3,45.3,0,0,1,52.89-27.38l15.63-60.68A107.9,107.9,0,0,0,635.2,155.1Z" transform="translate(-633.8 -84.88)"/></g></g></g><g id="_编组_9" data-name="&lt;编组&gt;" class="cls-5"><g id="_编组_10" data-name="&lt;编组&gt;"><g id="_编组_11" data-name="&lt;编组&gt;"><path class="cls-3" d="M765.08,160.76l-0.41-.36a44.22,44.22,0,0,0-9.36-6.2l-0.49-.24L783.47,95.8,784,96A109.11,109.11,0,0,1,807,111.33l0.41,0.36Zm-8.8-7.29a45.3,45.3,0,0,1,8.69,5.76l41-47.43a108,108,0,0,0-22-14.55Z" transform="translate(-633.8 -84.88)"/></g></g></g></g><g id="_编组_12" data-name="&lt;编组&gt;"><g id="_编组_13" data-name="&lt;编组&gt;"><g id="_编组_14" data-name="&lt;编组&gt;"><path class="cls-3" d="M735.88,266.31a72.51,72.51,0,1,1,72.51-72.51A72.59,72.59,0,0,1,735.88,266.31Zm0-144.54a72,72,0,1,0,72,72A72.11,72.11,0,0,0,735.88,121.77Z" transform="translate(-633.8 -84.88)"/></g></g></g><g id="_编组_15" data-name="&lt;编组&gt;" class="cls-6"><g id="_编组_16" data-name="&lt;编组&gt;"><g id="_编组_17" data-name="&lt;编组&gt;"><path class="cls-3" d="M741.32,271.57l-0.08-1.09h0.05l1.07-.08h0.05l0.09,1.09h-0.05l-1.05.09h-0.09Zm2.17-.17-0.1-1.09h0.05l1.07-.12v0.05h0.05l0.12,1h-0.17l-1,.1h-0.05Zm2.18-.25-0.14-1.07h0.05l1.08-.15h0.05l0.14,1.07h0l-1.09.15h-0.05Zm2.16-.3-0.16-1.06h0.05l1.06-.17h0.05l0.17,1.07H749l-1.08.17h-0.05Zm2.16-.36-0.2-1.06h0.05l1.05-.21,0.07,0,0.2,1h0l-1.07.21H750Zm2.14-.42L751.91,269H752l1-.22v-0.45l0.33,1.49h0l-1.06.24h-0.05Zm3.29-.36-0.1-.39-1,.25h-0.05L754,268.52h0.05l1-.25v-0.39l0.09,0.37h0v0.07l0.24,1v0.46Zm1-.67-0.29-1h0.05l1-.29,0.05,0,0.29,1,0,0-1.05.29h-0.05Zm2.1-.6-0.31-1h0.05l1-.33h0.05l0.33,1h-0.05q-0.52.18-1,.33Zm2.08-.66-0.35-1,0.05,0,0.77-.26,0.3-.1,0.36,1-0.05,0-1,.35Zm2.06-.73-0.37-1h0.05l1-.38,0,0,0.39,1-0.05,0-1,.38Zm2-.78-0.4-1,0.05,0,1-.41h0l0.42,1-0.05,0-1,.41h-0.05Zm2-.82-0.43-1,0.05,0,1-.43,0.05,0,0.45,1-0.05,0-1,.45Zm2-.89-0.46-1,0,0,1-.46h0.07v0l0.46,0.93-0.05,0-1,.47Zm2-.94-0.49-1,0,0,0.93-.48v-0.18l0.08,0.15,0,0v0.08l0.47,0.91,0,0-1,.49Zm1.93-1-0.51-1,0,0,0.94-.51,0,0,0.53,1,0,0-1,.52Zm1.91-1.05-0.54-.94,0,0,0.93-.54,0,0,0.55,0.93,0,0c-0.3.18-.61,0.37-0.94,0.55Zm1.88-1.12-0.56-.92,0,0,0.91-.56,0,0,0.59,0.91-0.05,0-0.92.58Zm1.85-1.16-0.59-.91,0.15-.1c0.26-.17.52-0.34,0.78-0.52l0,0,0.61,0.9,0,0-0.91.61Zm1.81-1.2-0.62-.9,0,0,0.89-.62,0,0,0.63,0.88,0,0-0.9.63Zm1.78-1.26-0.64-.88,0,0,0.81-.61,0,0h0.15l0,0,0.62,0.82,0,0-0.88.65Zm1.75-1.31-0.66-.86,0,0,0.85-.67,0,0,0.66,0.87,0,0c-0.29.22-.58,0.44-0.86,0.67Zm1.7-1.37-0.69-.84,0,0,0.84-.68,0,0,0.71,0.84,0,0c-0.27.24-.55,0.47-0.84,0.69Zm1.67-1.4-0.72-.82,0,0,0.81-.72,0,0,0.71,0.8v0.13l-0.05-.05-0.78.68Zm1.63-1.45-0.74-.8,0.12-.11,0.72-.66,0,0,0.75,0.78,0,0-0.72.67Zm1.59-1.5L789.4,249l0,0,0.77-.75,0,0,0.76,0.77,0,0-0.78.77Zm1.55-1.55-0.78-.75,0,0,0.73-.76v-0.11l0.05,0.05,0.05-.07v0.12l0.74,0.69,0,0c-0.25.27-.5,0.53-0.76,0.79Zm1.5-1.59-0.79-.73,0,0c0.27-.28.52-0.56,0.73-0.8h0.08l0.77,0.68,0,0-0.74.81Zm1.47-1.63-0.81-.71,0,0,0.7-.81,0.07,0h0l0.78,0.66,0,0-0.72.84Zm1.41-1.66-0.84-.69,0,0,0.68-.84,0,0,0.85,0.68,0,0.05-0.68.84Zm1.37-1.72-0.86-.66,0,0c0.23-.28.45-0.56,0.66-0.86l0,0,0.87,0.66,0,0-0.67.86Zm1.32-1.74-0.88-.65,0,0c0.22-.28.42-0.58,0.63-0.87l0,0,0,0,0.84,0.6,0,0c-0.22.29-.43,0.59-0.64,0.89ZM800,238.1l-0.9-.61,0,0c0.21-.3.41-0.6,0.61-0.9l0,0,0.9,0.61,0,0c-0.21.3-.4,0.61-0.61,0.9Zm1.22-1.81-0.91-.59,0-.05,0.58-.89v-0.09l0,0,0.08-.11v0.15l1,0.61h-0.15l-0.58.9Zm1.17-1.85-0.93-.58,0,0,0.55-.92,0,0,0.91,0.59h0c-0.18.31-.37,0.63-0.56,0.93Zm1.12-1.89L802.6,232l0,0,0.53-.94,0,0,1,0.52,0,0.05c-0.18.31-.36,0.64-0.54,1Zm1.06-1.91-1-.52,0,0,0.48-.91-0.11-.08h0.21l0.91,0.48,0,0c-0.16.33-.34,0.65-0.51,1Zm1-2-1-.48,0-.05c0.16-.31.33-0.64,0.48-1l0-.05,1,0.48,0,0.05c-0.15.33-.31,0.65-0.48,1Zm0.94-2-1-.47,0,0,0.44-1,0,0,1,0.44,0,0c-0.14.34-.29,0.67-0.45,1Zm0.9-2-1-.43,0-.05c0.15-.33.29-0.66,0.42-1l0-.05,1,0.41v0.05l-0.43,1Zm0.85-2-1-.4,0-.05,0.39-1,0-.05,1.24,0.48h-0.26l-0.38,1Zm0.78-2.05-1-.37,0-.05,0.36-1,0,0,1,0.36v0c-0.12.35-.25,0.69-0.37,1Zm0.73-2.06-1-.35,0-.05c0.11-.34.22-0.68,0.34-1v0l1,0.33v0.05c-0.1.3-.21,0.64-0.35,1v0.05Zm0.66-2.1-1-.31,0-.13c0.1-.31.2-0.64,0.28-1l0-.05,1,0.3,0,0.05c-0.1.35-.2,0.69-0.3,1Zm0.61-2.11-1-.28V214c0.1-.34.18-0.68,0.27-1l0.06,0,0.2,0,0.79,0.25h0c-0.09.36-.18,0.71-0.27,1.06Zm0.54-2.12-1.05-.25V212c0.09-.35.17-0.69,0.25-1.05v-0.05l1.05,0.34h0c-0.08.31-.15,0.65-0.24,1Zm0.49-2.13-1.05-.23v-0.05c0.07-.35.14-0.69,0.21-1.05v-0.05l1.07,0.22V209l-0.23,1.06v0.05Zm0.42-2.14-1.06-.21v0c0.05-.29.1-0.58,0.15-0.86l0-.26,1.07,0.19v0l-0.2,1.09V208Zm0.37-2.16-1.08-.16v-0.05c0.07-.43.12-0.76,0.15-1.06V204.5l1.07,0.14v0.05c0,0.3-.1.69-0.15,1.09v0.05Zm0.3-2.16-1.07-.14v-0.05c0-.36.08-0.72,0.12-1.06v-0.05l1.07,0.12v0.14c0,0.34-.08.66-0.12,1v0.05Zm0.24-2.18-1.08-.1v-0.05c0-.42.08-0.76,0.1-1.08v-0.05l1.09,0.2h0l-0.1,1v0.05Zm0.18-2.17-1.09-.08v-0.05c0-.33,0-0.66.07-1.08v-0.05l1.09,0.05v0.05l-0.07,1.1v0.05Zm0.13-2.18-1.09-.05v0c0-.36,0-0.72,0-1.09V195.9l1.09,0V196c0,0.33,0,.65,0,1v0.16Zm0.05-2.19h-1.09v-0.05c0-.36,0-0.72,0-1.07l0.05-.23h1v0.24c0,0.36,0,.73,0,1.09v0.05Zm-1.09-2.35v-0.05c0-.31,0-0.66,0-1.08v-0.05l1.09,0v0.05c0,0.43,0,.78,0,1.1v0.05h-1.09Zm-0.07-2.15V190.4c0-.36,0-0.72-0.05-1.08v-0.05l1.09-.07v0.05c0,0.37,0,.73.05,1.1v0.05Zm-0.12-2.15v-0.15c0-.33,0-0.65-0.08-1v-0.05l1.08-.09v0.05c0,0.36.05,0.72,0.09,1.09v0.05Zm-0.18-2.15V186.1c0-.36-0.08-0.72-0.12-1.06V185l1.08-.13v0.05c0,0.4.09,0.79,0.11,1.09V186ZM812.13,184V184c-0.05-.36-0.1-0.72-0.15-1.06v-0.05l1.09-.16v0.05c0.05,0.37.1,0.73,0.15,1.09v0.05Zm-0.3-2.14v-0.05c-0.07-.35-0.12-0.71-0.17-1.06h0V180.7l1-.17v0.05c0.07,0.36.12,0.72,0.17,1.07v0.05Zm-0.36-2.13v0c-0.06-.36-0.13-0.71-0.21-1.06l0-.07,1.14-.23-0.11.11c0.07,0.31.13,0.64,0.2,1v0.05ZM811,177.64v-0.05c-0.09-.41-0.16-0.75-0.23-1.05v-0.05l1.06-.25v0.08c0.09,0.34.16,0.69,0.24,1.05v0.05Zm-0.48-2.11v-0.05c-0.09-.35-0.17-0.69-0.27-1v-0.05l1.05-.27v0.05c0.1,0.35.18,0.71,0.27,1.06v0ZM810,173.45V173.4l-0.29-1v-0.05l1-.3v0.05l0.29,1.05,0,0.05Zm-0.6-2.07v0l-0.33-1,0-.05,1-.34V170c0.12,0.35.22,0.69,0.33,1l0,0.05Zm-146.85-.8h-0.07l-1-.31v0c0.11-.35.23-0.71,0.34-1l0-.05,1,0.34,0,0.05c-0.12.37-.23,0.71-0.33,1v0Zm146.2-1.25,0-.05c-0.12-.34-0.23-0.67-0.35-1l0,0,1-.35v0l0.36,1V169Zm-145.52-.79-1-.35,0-.05c0.12-.35.24-0.69,0.37-1l0-.05,1,0.37,0,0.05c-0.12.34-.25,0.67-0.37,1v0Zm144.81-1.24,0-.05c-0.12-.33-0.24-0.65-0.37-1h-0.25l1.24-.47v0c0.13,0.33.26,0.66,0.39,1l0,0ZM664,166.5l-1-.38v-0.05c0.13-.35.27-0.68,0.4-1l0-.05,1,0.4,0,0.05-0.39,1Zm143.3-1.22,0-.05c-0.13-.34-0.27-0.66-0.41-1v0l1-.42,0,0.05,0.41,1,0,0Zm-142.5-.81h-0.05l-1-.39,0.07-.15c0.12-.3.25-0.61,0.38-0.91l0-.05,1,0.43,0,0.05-0.42,1v0Zm141.67-1.17,0-.05-0.43-1,0-.05,1-.45,0,0.05c0.13,0.29.29,0.64,0.43,1l0,0Zm-140.82-.79-1-.45,0,0,0.4-.91,0.08-.14,1,0.46,0,0.05c-0.15.33-.3,0.65-0.44,1Zm139.94-1.16,0-.05-0.46-1,0-.05,1-.47,0,0c0.15,0.33.31,0.65,0.47,1l0,0Zm-139-.8-1-.47,0,0c0.16-.36.33-0.68,0.48-1l0-.05,1,0.49,0,0c-0.16.33-.33,0.65-0.48,1Zm138.09-1.14,0,0-0.49-1,0-.05,1-.5,0,0.05,0.49,1,0,0.05Zm-137.13-.79-1-.5,0,0c0.16-.33.34-0.65,0.51-1l0,0,1,0.51,0,0.05c-0.17.31-.34,0.63-0.5,1Zm136.14-1.11,0-.05-0.52-.94,0,0,0.94-.53,0,0.05,0.42,0.78,0.12,0.22Zm-135.12-.79-0.94-.53,0,0,0.42-.76,0.14-.25,0.94,0.54,0,0.05c-0.15.26-.31,0.55-0.52,0.93Zm134.08-1.09,0-.05-0.54-.92,0-.05,0.93-.55,0,0.05c0.18,0.3.37,0.62,0.54,0.93l0,0.05Zm-133-.79-0.93-.55,0,0,0.56-.94,0,0,0.92,0.56,0,0-0.55.92Zm131.91-1.06,0,0-0.55-.89h-0.16l1-.65,0,0,0.49,0.78,0.11,0.2ZM670.72,153l-0.91-.58,0-.05,0.59-.91,0-.05,0.91,0.6,0,0c-0.2.3-.39,0.61-0.58,0.91Zm129.64-1,0,0-0.48-.72-0.15-.23,0.94-.63v0.09l0.6,0.9,0,0Zm-128.43-.75-0.94-.63,0-.11,0,0,0.58-.86,0,0,0.9,0.61,0,0.05c-0.21.28-.4,0.58-0.6,0.87v0.09Zm127.23-1,0,0-0.62-.88,0,0,0.89-.64,0,0.05L800,149.5l0,0Zm-126-.77-0.89-.63,0,0,0.64-.88,0,0,0.88,0.64,0,0c-0.22.28-.42,0.58-0.63,0.87Zm124.8-1,0,0-0.6-.81-0.05.05v-0.16h0l0.82-.62,0,0,0.65,0.87,0,0Zm-123.53-.75-0.87-.66,0-.11,0,0,0.47-.62,0.19-.26,0.86,0.67,0,0c-0.23.29-.45,0.58-0.65,0.86Zm122.24-1,0,0-0.67-.85,0,0,0.84-.65h0.13l-0.05.05c0.21,0.25.4,0.5,0.6,0.76l0.09,0.11Zm-120.91-.74-0.86-.68,0,0,0.68-.85,0,0,0.84,0.69,0,0c-0.23.27-.44,0.55-0.67,0.84ZM795.28,145l0,0-0.7-.82,0,0,0.82-.69,0.13,0.14c0.2,0.25.4,0.49,0.61,0.74l0,0Zm-118.2-.73-0.84-.71,0,0c0.23-.28.47-0.55,0.71-0.84l0,0,0.83,0.72,0,0-0.7.81Zm116.81-.91,0,0-0.72-.81,0,0,0.81-.73,0,0,0.73,0.81,0,0Zm-115.38-.74h-0.07l-0.77-.69,0,0c0.24-.28.49-0.54,0.73-0.81l0,0,0.79,0.74,0,0-0.73.8v0Zm113.93-.87,0,0c-0.24-.25-0.48-0.52-0.74-0.78l0,0,0.78-.75,0,0,0.75,0.79,0,0Zm-112.5-.69-0.79-.75,0,0,0.76-.78,0,0,0.78,0.76,0,0L680,141Zm111-.87,0,0-0.75-.76,0,0,0.77-.77,0,0c0.26,0.25.51,0.51,0.76,0.76l0.05,0.05Zm-109.47-.63-0.81-.82,0,0v-0.11l0.05,0.05,0.74-.73,0,0,0.76,0.78,0,0-0.75.74v0.11Zm107.95-.9,0,0q-0.37-.37-0.78-0.75l0,0,0.76-.77,0,0,0.79,0.75,0,0ZM683,138l-0.74-.78,0,0c0.27-.25.53-0.5,0.8-0.74l0,0,0.73,0.8,0,0L683,138Zm104.89-.81,0,0-0.76-.69-0.07.05v-0.15h0l0.69-.77,0,0c0.26,0.25.53,0.49,0.8,0.74l0,0Zm-103.3-.64-0.72-.8,0,0,0.83-.72,0,0,0.71,0.82,0,0-0.8.72Zm101.7-.79,0,0-0.81-.69,0-.07h0l0.66-.79,0,0,0.84,0.72,0,0Zm-100.07-.62-0.71-.84,0,0,0.84-.69,0,0,0.69,0.85,0,0-0.82.68Zm98.42-.78,0,0-0.85-.67,0,0,0.68-.86,0,0,0.85,0.68,0,0Zm-96.76-.6-0.67-.85,0,0,0.86-.67,0,0L688.8,133l0,0-0.85.66Zm95.07-.75,0,0-0.86-.65,0-.05v0l0.62-.83,0,0,0.87,0.66,0,0Zm-93.37-.56-0.66-.87,0,0,0.88-.65,0,0,0.64,0.88,0,0c-0.29.21-.58,0.42-0.86,0.64Zm91.64-.73,0,0c-0.28-.22-0.58-0.42-0.87-0.63l0,0,0.63-.89,0,0,0.88,0.64,0,0Zm-89.92-.55-0.63-.88,0,0,0.9-.63,0,0,0.62,0.9,0,0c-0.3.2-.6,0.4-0.89,0.61Zm88.16-.69,0,0-0.89-.61,0,0,0.6-.9,0,0,0.91,0.62,0,0Zm-86.39-.53-0.6-.9,0,0,0.91-.61,0,0,0.59,0.91,0,0-0.9.6Zm84.6-.67,0,0-0.91-.58,0,0,0.58-.91,0,0,0.92,0.6,0,0Zm-82.79-.5-0.58-.91,0,0,0.92-.58,0.05,0,0.56,0.92,0,0-0.91.58Zm81-.65-0.05,0-0.92-.55,0,0,0.55-.93,0,0,0.93,0.55,0.05,0Zm-79.14-.47-0.55-.93,0.05,0,0.88-.51,0.11-.07,0.54,0.94-0.05,0-0.92.54ZM774,127l0,0-0.94-.53,0,0,0.52-1,0.05,0,1,0.53,0,0Zm-75.32-.3L698,125.63l0.05,0,1-.52,0,0,0.52,1-0.05,0-0.91.5v0.18Zm73.44-.74,0,0-1-.51-0.05,0,0.5-1,0.05,0,1,0.5,0,0Zm-71.59-.43-0.05,0-0.48-.91,0.05,0,1-.49,0.05,0,0.49,1-0.05,0-0.91.47,0,0h-0.09Zm69.67-.55,0,0-1-.47-0.05,0,0.47-1,0.05,0,1,0.48,0,0Zm-67.78-.39-0.47-1,0,0,1-.47,0,0,0.47,1-0.05,0-1,.46Zm65.84-.55,0,0-0.94-.42-0.08.15v-0.24h0l0.42-.93,0.05,0,1,0.44,0,0Zm-2-.88,0,0-1-.42-0.05,0,0.42-1,0,0,1,0.42,0.05,0Zm-2-.82,0,0-1-.39-0.05,0,0.38-1,0.18-.2-0.08.2,1,0.38,0.05,0Zm-2-.77-0.05,0-1-.36-0.05,0,0.45-1.28v0.28l1,0.36,0.05,0Zm-2-.72h-0.05l-1-.34-0.05,0,0.34-1h0l1,0.34,0.08,0Z" transform="translate(-633.8 -84.88)"/></g></g></g><g id="_编组_18" data-name="&lt;编组&gt;" class="cls-7"><g id="_编组_19" data-name="&lt;编组&gt;"><g id="_编组_20" data-name="&lt;编组&gt;"><path class="cls-3" d="M735.88,258.25A64.4,64.4,0,0,1,681,227.53v0l5.21-3.21v0a58,58,0,0,0,49.71,27.81,58.66,58.66,0,0,0,7.33-.45h0l0.75,6.07h0A66.57,66.57,0,0,1,735.88,258.25Zm26.53-5.7L759.89,247h0A58.36,58.36,0,0,0,787,165.7h0v-0.07h0l5.33-2.94v0a64.48,64.48,0,0,1-29.89,89.82h0Zm-88.95-42.66v0a65,65,0,0,1-.31-30.81A64,64,0,0,1,678,165.49a65.07,65.07,0,0,1,17.55-21.94l0,0,3.83,4.77,0,0a58.4,58.4,0,0,0-20,60h0.27Zm103-58,0,0a58.42,58.42,0,0,0-62-12.3l0,0-2.26-5.69h0a64.38,64.38,0,0,1,68.55,13.59l0,0Z" transform="translate(-633.8 -84.88)"/></g></g></g><g id="_编组_21" data-name="&lt;编组&gt;"><g id="_编组_22" data-name="&lt;编组&gt;"><g id="_编组_23" data-name="&lt;编组&gt;"><path class="cls-3" d="M737.57,247.49l-0.16-5.07h0.43l0.2,5.07h-0.48Zm-13.14-1.2h0l-0.34-.07-0.1,0,1.11-5,0.17,0,0.22,0.05,0,0h0Zm26.64-1-1.44-4.86h0l0.34-.1h0l1.48,4.85Zm-39.53-3.63,0,0-0.36-.18,0,0,2.34-4.5h0l0.32,0.16h0Zm52-1.88L761,235.49l0.37-.22,2.66,4.32-0.09.05-0.28.18ZM700.24,234l0,0-0.3-.27,0,0,3.4-3.77,0.32,0.29Zm74.06-2.66-3.63-3.54,0,0,0.22-.22,0.06-.06,3.65,3.51-0.16.17-0.13.14Zm-83.05-7.64-0.26-.39,4.24-2.8,0,0,0.17,0.26,0,0v0.09h0Zm91.29-3.27-4.41-2.52,0,0,0.17-.31,0,0,4.42,2.48Zm-97.4-9v0l-0.13-.37v0l4.8-1.63,0.06,0.18,0.07,0.2v0Zm102.62-3.69-4.91-1.32v0l0.07-.26,0-.12,4.91,1.34h0c0,0.12-.07.24-0.1,0.36v0Zm-105.43-9.69v0a2.19,2.19,0,0,0,0-.22v-0.21l5.06-.36,0,0.43Zm107.26-3.85-5.07-.07,0-.39,5,0v0.44ZM784,186.51l-0.07-.43,5-.8v0c0,0.12,0,.24.05,0.36v0.07Zm-96-1.18-5-.89v0c0-.07,0-0.15,0-0.22l0-.21,5,0.92v0l-0.07.36v0Zm92.62-10.72v0l-0.09-.2-0.07-.16,4.65-2,0,0.09,0.13,0.31v0Zm-88.93-1.1L687,171.39v0l0.14-.31,0-.08,4.59,2.16v0l-0.08.19ZM774.28,164l0-.06-0.2-.25,0,0,4-3.15,0,0,0.24,0.3,0,0ZM698.22,163l-3.91-3.23v-0.09l0,0,0.22-.28,0,0,3.9,3.24,0,0-0.23.28Zm67.28-7.79-0.13-.1-0.19-.14,0,0,3.06-4,0,0,0.32,0.24,0,0Zm-58.28-.72-3-4.1,0.38-.28,3,4.12,0,0-0.16.11ZM754.81,149h0l-0.2-.08-0.16-.07v0l2-4.65h0l0.2,0.08,0.17,0.07h0Zm-36.75-.45-1.86-4.73,0.11,0,0.3-.11h0l1.82,4.73-0.13.05-0.25.1h0Zm24.82-2.86h0l-0.28,0h-0.12l0.69-5h0l0.4,0.06h0Zm-12.82-.16-0.59-5h0v0h0l0.4,0h0l0.56,5h-0.16l-0.24,0h0Z" transform="translate(-633.8 -84.88)"/></g></g></g><g id="_编组_24" data-name="&lt;编组&gt;"><g id="_编组_25" data-name="&lt;编组&gt;"><g id="_编组_26" data-name="&lt;编组&gt;"><path class="cls-3" d="M736.32,244.41V243.5h0.44v0.91h-0.45Zm-15.07-2.15h0l-0.37-.1h0l0.27-.87,0,0,0.35,0.1,0,0h0Zm30.53-.4-0.28-.86,0.19-.06,0.19-.07h0l0.29,0.86Zm-44.65-6.41,0,0-0.19-.13-0.12-.09h0l0.52-.75,0,0,0.18,0.13,0.17,0.08Zm58.58-.76-0.53-.73,0,0,0.29-.22,0,0,0,0h0l0.51,0.71-0.15.11-0.17.13Zm-69.93-10,0,0-0.23-.3,0,0,0.72-.54,0,0,0.11,0.14,0.11,0.15,0,0Zm81-1.06-0.73-.53,0,0c0.07-.1.14-0.2,0.22-0.3v0l0.74,0.52,0,0-0.21.3Zm-88.55-12.68v0c0-.12-0.09-0.23-0.13-0.35v0l0.85-.3v0c0,0.1.07,0.22,0.12,0.32h0.19l-0.17.06h0Zm95.71-1.25-0.86-.28,0.13-.43,0.86,0.28ZM685.3,195.54v0c0-.12,0-0.25,0-0.37v0l0.9,0v0c0,0.07,0,.14,0,0.21v0.12h0.05l-0.05.06h0Zm101.18-1.32h-0.9v-0.4l0,0,0.86,0v0.41Zm-1-3.35v0l0-.37v0l0.9-.06v0a3.22,3.22,0,0,1,0,.37v0ZM688,180.24l-0.86-.25,0.13-.43,0.86,0.25,0,0.11c0,0.09-.06.18-0.08,0.28v0Zm94.19-4.4v0c0-.11-0.09-0.22-0.13-0.34v0l0.83-.34v0c0,0.12.09,0.24,0.14,0.35v0Zm-87.74-9.57-0.75-.51,0,0,0.21-.31,0,0h0l0.72,0.48,0,0-0.17.25Zm80-3.74,0,0-0.23-.28,0,0,0.69-.57,0,0,0.24,0.29,0,0Zm-69.61-7.61-0.56-.7,0,0,0.17-.14,0.12-.1,0,0,0.56,0.72,0,0-0.29.22Zm58.19-2.71,0,0-0.31-.2,0,0,0.5-.75h0.06v0l0.28,0.19,0,0Zm-44.82-4.9-0.32-.85,0.07,0,0.32-.12h0l0.31,0.85h0l-0.34.13Zm30.8-1.44h0l-0.36-.1h0l0.23-.88L749.3,145Zm-15.73-1.71,0-.9,0.45,0,0,0.9h-0.45Z" transform="translate(-633.8 -84.88)"/></g></g></g><g id="_编组_27" data-name="&lt;编组&gt;"><g id="_编组_28" data-name="&lt;编组&gt;"><g id="_编组_29" data-name="&lt;编组&gt;"><path class="cls-3" d="M689.81,275.76v-0.24l2.08-3.68L692,271.9ZM665,255.36l0,0a93.51,93.51,0,0,1-23-61.51,94.62,94.62,0,0,1,2.76-22.68v0l4.22,1,0,0.05a89.71,89.71,0,0,0,19.28,80.3l0,0Z" transform="translate(-633.8 -84.88)"/></g></g></g><g id="_编组_30" data-name="&lt;编组&gt;"><g id="_编组_31" data-name="&lt;编组&gt;"><g id="_编组_32" data-name="&lt;编组&gt;"><path class="cls-3" d="M780.68,267.61l-0.56-.92,0,0a84.71,84.71,0,0,0,41-72.85l0.05-.05,1,0.05a86.27,86.27,0,0,1-41.48,73.78ZM662.22,238.85l0,0a86.33,86.33,0,0,1-3-84.61l0,0,1,0.5,0,0a85.41,85.41,0,0,0,3,83.51h0.16l-0.12.08,0,0h-0.08Zm158.69-51.1v-0.05a85.73,85.73,0,0,0-46.09-69.74l0,0,0.5-1,0,0A86.33,86.33,0,0,1,822,187.62v0.05ZM745.08,109H745l0.11-1h0.11Z" transform="translate(-633.8 -84.88)"/></g></g></g></g><g id="_编组_33" data-name="&lt;编组&gt;" class="cls-2"><g id="_编组_34" data-name="&lt;编组&gt;"><g id="_编组_35" data-name="&lt;编组&gt;"><g id="_编组_36" data-name="&lt;编组&gt;"><path class="cls-3" d="M735.88,216.84a23,23,0,1,1,23-23A23.07,23.07,0,0,1,735.88,216.84Zm0-43.84a20.8,20.8,0,1,0,20.8,20.8A20.83,20.83,0,0,0,735.88,173Z" transform="translate(-633.8 -84.88)"/></g></g></g><g id="_编组_37" data-name="&lt;编组&gt;"><g id="_编组_38" data-name="&lt;编组&gt;" class="cls-4"><g id="_编组_39" data-name="&lt;编组&gt;"><g id="_编组_40" data-name="&lt;编组&gt;"><path class="cls-3" d="M694.42,178.69l-60.63-23,0.19-.51a109,109,0,0,1,129.12-66.9l0.53,0.14-16.17,62.78-0.53-.14a44.21,44.21,0,0,0-52.32,27.09ZM635.2,155.1l58.6,22.2a45.3,45.3,0,0,1,52.89-27.38l15.63-60.68A107.9,107.9,0,0,0,635.2,155.1Z" transform="translate(-633.8 -84.88)"/></g></g></g><g id="_编组_41" data-name="&lt;编组&gt;" class="cls-5"><g id="_编组_42" data-name="&lt;编组&gt;"><g id="_编组_43" data-name="&lt;编组&gt;"><path class="cls-3" d="M765.08,160.76l-0.41-.36a44.22,44.22,0,0,0-9.36-6.2l-0.49-.24L783.47,95.8,784,96A109.11,109.11,0,0,1,807,111.33l0.41,0.36Zm-8.8-7.29a45.3,45.3,0,0,1,8.69,5.76l41-47.43a108,108,0,0,0-22-14.55Z" transform="translate(-633.8 -84.88)"/></g></g></g></g><g id="_编组_44" data-name="&lt;编组&gt;"><g id="_编组_45" data-name="&lt;编组&gt;"><g id="_编组_46" data-name="&lt;编组&gt;"><path class="cls-3" d="M735.88,266.31a72.51,72.51,0,1,1,72.51-72.51A72.59,72.59,0,0,1,735.88,266.31Zm0-144.54a72,72,0,1,0,72,72A72.11,72.11,0,0,0,735.88,121.77Z" transform="translate(-633.8 -84.88)"/></g></g></g><g id="_编组_47" data-name="&lt;编组&gt;" class="cls-6"><g id="_编组_48" data-name="&lt;编组&gt;"><g id="_编组_49" data-name="&lt;编组&gt;"><path class="cls-3" d="M741.32,271.57l-0.08-1.09h0.05l1.07-.08h0.05l0.09,1.09h-0.05l-1.05.09h-0.09Zm2.17-.17-0.1-1.09h0.05l1.07-.12v0.05h0.05l0.12,1h-0.17l-1,.1h-0.05Zm2.18-.25-0.14-1.07h0.05l1.08-.15h0.05l0.14,1.07h0l-1.09.15h-0.05Zm2.16-.3-0.16-1.06h0.05l1.06-.17h0.05l0.17,1.07H749l-1.08.17h-0.05Zm2.16-.36-0.2-1.06h0.05l1.05-.21,0.07,0,0.2,1h0l-1.07.21H750Zm2.14-.42L751.91,269H752l1-.22v-0.45l0.33,1.49h0l-1.06.24h-0.05Zm3.29-.36-0.1-.39-1,.25h-0.05L754,268.52h0.05l1-.25v-0.39l0.09,0.37h0v0.07l0.24,1v0.46Zm1-.67-0.29-1h0.05l1-.29,0.05,0,0.29,1,0,0-1.05.29h-0.05Zm2.1-.6-0.31-1h0.05l1-.33h0.05l0.33,1h-0.05q-0.52.18-1,.33Zm2.08-.66-0.35-1,0.05,0,0.77-.26,0.3-.1,0.36,1-0.05,0-1,.35Zm2.06-.73-0.37-1h0.05l1-.38,0,0,0.39,1-0.05,0-1,.38Zm2-.78-0.4-1,0.05,0,1-.41h0l0.42,1-0.05,0-1,.41h-0.05Zm2-.82-0.43-1,0.05,0,1-.43,0.05,0,0.45,1-0.05,0-1,.45Zm2-.89-0.46-1,0,0,1-.46h0.07v0l0.46,0.93-0.05,0-1,.47Zm2-.94-0.49-1,0,0,0.93-.48v-0.18l0.08,0.15,0,0v0.08l0.47,0.91,0,0-1,.49Zm1.93-1-0.51-1,0,0,0.94-.51,0,0,0.53,1,0,0-1,.52Zm1.91-1.05-0.54-.94,0,0,0.93-.54,0,0,0.55,0.93,0,0c-0.3.18-.61,0.37-0.94,0.55Zm1.88-1.12-0.56-.92,0,0,0.91-.56,0,0,0.59,0.91-0.05,0-0.92.58Zm1.85-1.16-0.59-.91,0.15-.1c0.26-.17.52-0.34,0.78-0.52l0,0,0.61,0.9,0,0-0.91.61Zm1.81-1.2-0.62-.9,0,0,0.89-.62,0,0,0.63,0.88,0,0-0.9.63Zm1.78-1.26-0.64-.88,0,0,0.81-.61,0,0h0.15l0,0,0.62,0.82,0,0-0.88.65Zm1.75-1.31-0.66-.86,0,0,0.85-.67,0,0,0.66,0.87,0,0c-0.29.22-.58,0.44-0.86,0.67Zm1.7-1.37-0.69-.84,0,0,0.84-.68,0,0,0.71,0.84,0,0c-0.27.24-.55,0.47-0.84,0.69Zm1.67-1.4-0.72-.82,0,0,0.81-.72,0,0,0.71,0.8v0.13l-0.05-.05-0.78.68Zm1.63-1.45-0.74-.8,0.12-.11,0.72-.66,0,0,0.75,0.78,0,0-0.72.67Zm1.59-1.5L789.4,249l0,0,0.77-.75,0,0,0.76,0.77,0,0-0.78.77Zm1.55-1.55-0.78-.75,0,0,0.73-.76v-0.11l0.05,0.05,0.05-.07v0.12l0.74,0.69,0,0c-0.25.27-.5,0.53-0.76,0.79Zm1.5-1.59-0.79-.73,0,0c0.27-.28.52-0.56,0.73-0.8h0.08l0.77,0.68,0,0-0.74.81Zm1.47-1.63-0.81-.71,0,0,0.7-.81,0.07,0h0l0.78,0.66,0,0-0.72.84Zm1.41-1.66-0.84-.69,0,0,0.68-.84,0,0,0.85,0.68,0,0.05-0.68.84Zm1.37-1.72-0.86-.66,0,0c0.23-.28.45-0.56,0.66-0.86l0,0,0.87,0.66,0,0-0.67.86Zm1.32-1.74-0.88-.65,0,0c0.22-.28.42-0.58,0.63-0.87l0,0,0,0,0.84,0.6,0,0c-0.22.29-.43,0.59-0.64,0.89ZM800,238.1l-0.9-.61,0,0c0.21-.3.41-0.6,0.61-0.9l0,0,0.9,0.61,0,0c-0.21.3-.4,0.61-0.61,0.9Zm1.22-1.81-0.91-.59,0-.05,0.58-.89v-0.09l0,0,0.08-.11v0.15l1,0.61h-0.15l-0.58.9Zm1.17-1.85-0.93-.58,0,0,0.55-.92,0,0,0.91,0.59h0c-0.18.31-.37,0.63-0.56,0.93Zm1.12-1.89L802.6,232l0,0,0.53-.94,0,0,1,0.52,0,0.05c-0.18.31-.36,0.64-0.54,1Zm1.06-1.91-1-.52,0,0,0.48-.91-0.11-.08h0.21l0.91,0.48,0,0c-0.16.33-.34,0.65-0.51,1Zm1-2-1-.48,0-.05c0.16-.31.33-0.64,0.48-1l0-.05,1,0.48,0,0.05c-0.15.33-.31,0.65-0.48,1Zm0.94-2-1-.47,0,0,0.44-1,0,0,1,0.44,0,0c-0.14.34-.29,0.67-0.45,1Zm0.9-2-1-.43,0-.05c0.15-.33.29-0.66,0.42-1l0-.05,1,0.41v0.05l-0.43,1Zm0.85-2-1-.4,0-.05,0.39-1,0-.05,1.24,0.48h-0.26l-0.38,1Zm0.78-2.05-1-.37,0-.05,0.36-1,0,0,1,0.36v0c-0.12.35-.25,0.69-0.37,1Zm0.73-2.06-1-.35,0-.05c0.11-.34.22-0.68,0.34-1v0l1,0.33v0.05c-0.1.3-.21,0.64-0.35,1v0.05Zm0.66-2.1-1-.31,0-.13c0.1-.31.2-0.64,0.28-1l0-.05,1,0.3,0,0.05c-0.1.35-.2,0.69-0.3,1Zm0.61-2.11-1-.28V214c0.1-.34.18-0.68,0.27-1l0.06,0,0.2,0,0.79,0.25h0c-0.09.36-.18,0.71-0.27,1.06Zm0.54-2.12-1.05-.25V212c0.09-.35.17-0.69,0.25-1.05v-0.05l1.05,0.34h0c-0.08.31-.15,0.65-0.24,1Zm0.49-2.13-1.05-.23v-0.05c0.07-.35.14-0.69,0.21-1.05v-0.05l1.07,0.22V209l-0.23,1.06v0.05Zm0.42-2.14-1.06-.21v0c0.05-.29.1-0.58,0.15-0.86l0-.26,1.07,0.19v0l-0.2,1.09V208Zm0.37-2.16-1.08-.16v-0.05c0.07-.43.12-0.76,0.15-1.06V204.5l1.07,0.14v0.05c0,0.3-.1.69-0.15,1.09v0.05Zm0.3-2.16-1.07-.14v-0.05c0-.36.08-0.72,0.12-1.06v-0.05l1.07,0.12v0.14c0,0.34-.08.66-0.12,1v0.05Zm0.24-2.18-1.08-.1v-0.05c0-.42.08-0.76,0.1-1.08v-0.05l1.09,0.2h0l-0.1,1v0.05Zm0.18-2.17-1.09-.08v-0.05c0-.33,0-0.66.07-1.08v-0.05l1.09,0.05v0.05l-0.07,1.1v0.05Zm0.13-2.18-1.09-.05v0c0-.36,0-0.72,0-1.09V195.9l1.09,0V196c0,0.33,0,.65,0,1v0.16Zm0.05-2.19h-1.09v-0.05c0-.36,0-0.72,0-1.07l0.05-.23h1v0.24c0,0.36,0,.73,0,1.09v0.05Zm-1.09-2.35v-0.05c0-.31,0-0.66,0-1.08v-0.05l1.09,0v0.05c0,0.43,0,.78,0,1.1v0.05h-1.09Zm-0.07-2.15V190.4c0-.36,0-0.72-0.05-1.08v-0.05l1.09-.07v0.05c0,0.37,0,.73.05,1.1v0.05Zm-0.12-2.15v-0.15c0-.33,0-0.65-0.08-1v-0.05l1.08-.09v0.05c0,0.36.05,0.72,0.09,1.09v0.05Zm-0.18-2.15V186.1c0-.36-0.08-0.72-0.12-1.06V185l1.08-.13v0.05c0,0.4.09,0.79,0.11,1.09V186ZM812.13,184V184c-0.05-.36-0.1-0.72-0.15-1.06v-0.05l1.09-.16v0.05c0.05,0.37.1,0.73,0.15,1.09v0.05Zm-0.3-2.14v-0.05c-0.07-.35-0.12-0.71-0.17-1.06h0V180.7l1-.17v0.05c0.07,0.36.12,0.72,0.17,1.07v0.05Zm-0.36-2.13v0c-0.06-.36-0.13-0.71-0.21-1.06l0-.07,1.14-.23-0.11.11c0.07,0.31.13,0.64,0.2,1v0.05ZM811,177.64v-0.05c-0.09-.41-0.16-0.75-0.23-1.05v-0.05l1.06-.25v0.08c0.09,0.34.16,0.69,0.24,1.05v0.05Zm-0.48-2.11v-0.05c-0.09-.35-0.17-0.69-0.27-1v-0.05l1.05-.27v0.05c0.1,0.35.18,0.71,0.27,1.06v0ZM810,173.45V173.4l-0.29-1v-0.05l1-.3v0.05l0.29,1.05,0,0.05Zm-0.6-2.07v0l-0.33-1,0-.05,1-.34V170c0.12,0.35.22,0.69,0.33,1l0,0.05Zm-146.85-.8h-0.07l-1-.31v0c0.11-.35.23-0.71,0.34-1l0-.05,1,0.34,0,0.05c-0.12.37-.23,0.71-0.33,1v0Zm146.2-1.25,0-.05c-0.12-.34-0.23-0.67-0.35-1l0,0,1-.35v0l0.36,1V169Zm-145.52-.79-1-.35,0-.05c0.12-.35.24-0.69,0.37-1l0-.05,1,0.37,0,0.05c-0.12.34-.25,0.67-0.37,1v0Zm144.81-1.24,0-.05c-0.12-.33-0.24-0.65-0.37-1h-0.25l1.24-.47v0c0.13,0.33.26,0.66,0.39,1l0,0ZM664,166.5l-1-.38v-0.05c0.13-.35.27-0.68,0.4-1l0-.05,1,0.4,0,0.05-0.39,1Zm143.3-1.22,0-.05c-0.13-.34-0.27-0.66-0.41-1v0l1-.42,0,0.05,0.41,1,0,0Zm-142.5-.81h-0.05l-1-.39,0.07-.15c0.12-.3.25-0.61,0.38-0.91l0-.05,1,0.43,0,0.05-0.42,1v0Zm141.67-1.17,0-.05-0.43-1,0-.05,1-.45,0,0.05c0.13,0.29.29,0.64,0.43,1l0,0Zm-140.82-.79-1-.45,0,0,0.4-.91,0.08-.14,1,0.46,0,0.05c-0.15.33-.3,0.65-0.44,1Zm139.94-1.16,0-.05-0.46-1,0-.05,1-.47,0,0c0.15,0.33.31,0.65,0.47,1l0,0Zm-139-.8-1-.47,0,0c0.16-.36.33-0.68,0.48-1l0-.05,1,0.49,0,0c-0.16.33-.33,0.65-0.48,1Zm138.09-1.14,0,0-0.49-1,0-.05,1-.5,0,0.05,0.49,1,0,0.05Zm-137.13-.79-1-.5,0,0c0.16-.33.34-0.65,0.51-1l0,0,1,0.51,0,0.05c-0.17.31-.34,0.63-0.5,1Zm136.14-1.11,0-.05-0.52-.94,0,0,0.94-.53,0,0.05,0.42,0.78,0.12,0.22Zm-135.12-.79-0.94-.53,0,0,0.42-.76,0.14-.25,0.94,0.54,0,0.05c-0.15.26-.31,0.55-0.52,0.93Zm134.08-1.09,0-.05-0.54-.92,0-.05,0.93-.55,0,0.05c0.18,0.3.37,0.62,0.54,0.93l0,0.05Zm-133-.79-0.93-.55,0,0,0.56-.94,0,0,0.92,0.56,0,0-0.55.92Zm131.91-1.06,0,0-0.55-.89h-0.16l1-.65,0,0,0.49,0.78,0.11,0.2ZM670.72,153l-0.91-.58,0-.05,0.59-.91,0-.05,0.91,0.6,0,0c-0.2.3-.39,0.61-0.58,0.91Zm129.64-1,0,0-0.48-.72-0.15-.23,0.94-.63v0.09l0.6,0.9,0,0Zm-128.43-.75-0.94-.63,0-.11,0,0,0.58-.86,0,0,0.9,0.61,0,0.05c-0.21.28-.4,0.58-0.6,0.87v0.09Zm127.23-1,0,0-0.62-.88,0,0,0.89-.64,0,0.05L800,149.5l0,0Zm-126-.77-0.89-.63,0,0,0.64-.88,0,0,0.88,0.64,0,0c-0.22.28-.42,0.58-0.63,0.87Zm124.8-1,0,0-0.6-.81-0.05.05v-0.16h0l0.82-.62,0,0,0.65,0.87,0,0Zm-123.53-.75-0.87-.66,0-.11,0,0,0.47-.62,0.19-.26,0.86,0.67,0,0c-0.23.29-.45,0.58-0.65,0.86Zm122.24-1,0,0-0.67-.85,0,0,0.84-.65h0.13l-0.05.05c0.21,0.25.4,0.5,0.6,0.76l0.09,0.11Zm-120.91-.74-0.86-.68,0,0,0.68-.85,0,0,0.84,0.69,0,0c-0.23.27-.44,0.55-0.67,0.84ZM795.28,145l0,0-0.7-.82,0,0,0.82-.69,0.13,0.14c0.2,0.25.4,0.49,0.61,0.74l0,0Zm-118.2-.73-0.84-.71,0,0c0.23-.28.47-0.55,0.71-0.84l0,0,0.83,0.72,0,0-0.7.81Zm116.81-.91,0,0-0.72-.81,0,0,0.81-.73,0,0,0.73,0.81,0,0Zm-115.38-.74h-0.07l-0.77-.69,0,0c0.24-.28.49-0.54,0.73-0.81l0,0,0.79,0.74,0,0-0.73.8v0Zm113.93-.87,0,0c-0.24-.25-0.48-0.52-0.74-0.78l0,0,0.78-.75,0,0,0.75,0.79,0,0Zm-112.5-.69-0.79-.75,0,0,0.76-.78,0,0,0.78,0.76,0,0L680,141Zm111-.87,0,0-0.75-.76,0,0,0.77-.77,0,0c0.26,0.25.51,0.51,0.76,0.76l0.05,0.05Zm-109.47-.63-0.81-.82,0,0v-0.11l0.05,0.05,0.74-.73,0,0,0.76,0.78,0,0-0.75.74v0.11Zm107.95-.9,0,0q-0.37-.37-0.78-0.75l0,0,0.76-.77,0,0,0.79,0.75,0,0ZM683,138l-0.74-.78,0,0c0.27-.25.53-0.5,0.8-0.74l0,0,0.73,0.8,0,0L683,138Zm104.89-.81,0,0-0.76-.69-0.07.05v-0.15h0l0.69-.77,0,0c0.26,0.25.53,0.49,0.8,0.74l0,0Zm-103.3-.64-0.72-.8,0,0,0.83-.72,0,0,0.71,0.82,0,0-0.8.72Zm101.7-.79,0,0-0.81-.69,0-.07h0l0.66-.79,0,0,0.84,0.72,0,0Zm-100.07-.62-0.71-.84,0,0,0.84-.69,0,0,0.69,0.85,0,0-0.82.68Zm98.42-.78,0,0-0.85-.67,0,0,0.68-.86,0,0,0.85,0.68,0,0Zm-96.76-.6-0.67-.85,0,0,0.86-.67,0,0L688.8,133l0,0-0.85.66Zm95.07-.75,0,0-0.86-.65,0-.05v0l0.62-.83,0,0,0.87,0.66,0,0Zm-93.37-.56-0.66-.87,0,0,0.88-.65,0,0,0.64,0.88,0,0c-0.29.21-.58,0.42-0.86,0.64Zm91.64-.73,0,0c-0.28-.22-0.58-0.42-0.87-0.63l0,0,0.63-.89,0,0,0.88,0.64,0,0Zm-89.92-.55-0.63-.88,0,0,0.9-.63,0,0,0.62,0.9,0,0c-0.3.2-.6,0.4-0.89,0.61Zm88.16-.69,0,0-0.89-.61,0,0,0.6-.9,0,0,0.91,0.62,0,0Zm-86.39-.53-0.6-.9,0,0,0.91-.61,0,0,0.59,0.91,0,0-0.9.6Zm84.6-.67,0,0-0.91-.58,0,0,0.58-.91,0,0,0.92,0.6,0,0Zm-82.79-.5-0.58-.91,0,0,0.92-.58,0.05,0,0.56,0.92,0,0-0.91.58Zm81-.65-0.05,0-0.92-.55,0,0,0.55-.93,0,0,0.93,0.55,0.05,0Zm-79.14-.47-0.55-.93,0.05,0,0.88-.51,0.11-.07,0.54,0.94-0.05,0-0.92.54ZM774,127l0,0-0.94-.53,0,0,0.52-1,0.05,0,1,0.53,0,0Zm-75.32-.3L698,125.63l0.05,0,1-.52,0,0,0.52,1-0.05,0-0.91.5v0.18Zm73.44-.74,0,0-1-.51-0.05,0,0.5-1,0.05,0,1,0.5,0,0Zm-71.59-.43-0.05,0-0.48-.91,0.05,0,1-.49,0.05,0,0.49,1-0.05,0-0.91.47,0,0h-0.09Zm69.67-.55,0,0-1-.47-0.05,0,0.47-1,0.05,0,1,0.48,0,0Zm-67.78-.39-0.47-1,0,0,1-.47,0,0,0.47,1-0.05,0-1,.46Zm65.84-.55,0,0-0.94-.42-0.08.15v-0.24h0l0.42-.93,0.05,0,1,0.44,0,0Zm-2-.88,0,0-1-.42-0.05,0,0.42-1,0,0,1,0.42,0.05,0Zm-2-.82,0,0-1-.39-0.05,0,0.38-1,0.18-.2-0.08.2,1,0.38,0.05,0Zm-2-.77-0.05,0-1-.36-0.05,0,0.45-1.28v0.28l1,0.36,0.05,0Zm-2-.72h-0.05l-1-.34-0.05,0,0.34-1h0l1,0.34,0.08,0Z" transform="translate(-633.8 -84.88)"/></g></g></g><g id="_编组_50" data-name="&lt;编组&gt;" class="cls-7"><g id="_编组_51" data-name="&lt;编组&gt;"><g id="_编组_52" data-name="&lt;编组&gt;"><path class="cls-3" d="M735.88,258.25A64.4,64.4,0,0,1,681,227.53v0l5.21-3.21v0a58,58,0,0,0,49.71,27.81,58.66,58.66,0,0,0,7.33-.45h0l0.75,6.07h0A66.57,66.57,0,0,1,735.88,258.25Zm26.53-5.7L759.89,247h0A58.36,58.36,0,0,0,787,165.7h0v-0.07h0l5.33-2.94v0a64.48,64.48,0,0,1-29.89,89.82h0Zm-88.95-42.66v0a65,65,0,0,1-.31-30.81A64,64,0,0,1,678,165.49a65.07,65.07,0,0,1,17.55-21.94l0,0,3.83,4.77,0,0a58.4,58.4,0,0,0-20,60h0.27Zm103-58,0,0a58.42,58.42,0,0,0-62-12.3l0,0-2.26-5.69h0a64.38,64.38,0,0,1,68.55,13.59l0,0Z" transform="translate(-633.8 -84.88)"/></g></g></g><g id="_编组_53" data-name="&lt;编组&gt;" class="cls-7"><g id="_编组_54" data-name="&lt;编组&gt;"><g id="_编组_55" data-name="&lt;编组&gt;"><path class="cls-3" d="M735.88,258.25A64.4,64.4,0,0,1,681,227.53v0l5.21-3.21v0a58,58,0,0,0,49.71,27.81,58.66,58.66,0,0,0,7.33-.45h0l0.75,6.07h0A66.57,66.57,0,0,1,735.88,258.25Zm26.53-5.7L759.89,247h0A58.36,58.36,0,0,0,787,165.7h0v-0.07h0l5.33-2.94v0a64.48,64.48,0,0,1-29.89,89.82h0Zm-88.95-42.66v0a65,65,0,0,1-.31-30.81A64,64,0,0,1,678,165.49a65.07,65.07,0,0,1,17.55-21.94l0,0,3.83,4.77,0,0a58.4,58.4,0,0,0-20,60h0.27Zm103-58,0,0a58.42,58.42,0,0,0-62-12.3l0,0-2.26-5.69h0a64.38,64.38,0,0,1,68.55,13.59l0,0Z" transform="translate(-633.8 -84.88)"/></g></g></g><g id="_编组_56" data-name="&lt;编组&gt;"><g id="_编组_57" data-name="&lt;编组&gt;"><g id="_编组_58" data-name="&lt;编组&gt;"><path class="cls-3" d="M735.88,258.25A64.4,64.4,0,0,1,681,227.53v0l5.21-3.21v0a58,58,0,0,0,49.71,27.81,58.66,58.66,0,0,0,7.33-.45h0l0.75,6.07h0A66.57,66.57,0,0,1,735.88,258.25Zm26.53-5.7L759.89,247h0A58.36,58.36,0,0,0,787,165.7h0v-0.07h0l5.33-2.94v0a64.48,64.48,0,0,1-29.89,89.82h0Zm-88.95-42.66v0a65,65,0,0,1-.31-30.81A64,64,0,0,1,678,165.49a65.07,65.07,0,0,1,17.55-21.94l0,0,3.83,4.77,0,0a58.4,58.4,0,0,0-20,60h0.27Zm103-58,0,0a58.42,58.42,0,0,0-62-12.3l0,0-2.26-5.69h0a64.38,64.38,0,0,1,68.55,13.59l0,0Z" transform="translate(-633.8 -84.88)"/></g></g></g><g id="_编组_59" data-name="&lt;编组&gt;"><g id="_编组_60" data-name="&lt;编组&gt;"><g id="_编组_61" data-name="&lt;编组&gt;"><path class="cls-3" d="M735.88,258.25A64.4,64.4,0,0,1,681,227.53v0l5.21-3.21v0a58,58,0,0,0,49.71,27.81,58.66,58.66,0,0,0,7.33-.45h0l0.75,6.07h0A66.57,66.57,0,0,1,735.88,258.25Zm26.53-5.7L759.89,247h0A58.36,58.36,0,0,0,787,165.7h0v-0.07h0l5.33-2.94v0a64.48,64.48,0,0,1-29.89,89.82h0Zm-88.95-42.66v0a65,65,0,0,1-.31-30.81A64,64,0,0,1,678,165.49a65.07,65.07,0,0,1,17.55-21.94l0,0,3.83,4.77,0,0a58.4,58.4,0,0,0-20,60h0.27Zm103-58,0,0a58.42,58.42,0,0,0-62-12.3l0,0-2.26-5.69h0a64.38,64.38,0,0,1,68.55,13.59l0,0Z" transform="translate(-633.8 -84.88)"/></g></g></g><g id="_编组_62" data-name="&lt;编组&gt;"><g id="_编组_63" data-name="&lt;编组&gt;"><g id="_编组_64" data-name="&lt;编组&gt;"><path class="cls-3" d="M735.88,258.25A64.4,64.4,0,0,1,681,227.53v0l5.21-3.21v0a58,58,0,0,0,49.71,27.81,58.66,58.66,0,0,0,7.33-.45h0l0.75,6.07h0A66.57,66.57,0,0,1,735.88,258.25Zm26.53-5.7L759.89,247h0A58.36,58.36,0,0,0,787,165.7h0v-0.07h0l5.33-2.94v0a64.48,64.48,0,0,1-29.89,89.82h0Zm-88.95-42.66v0a65,65,0,0,1-.31-30.81A64,64,0,0,1,678,165.49a65.07,65.07,0,0,1,17.55-21.94l0,0,3.83,4.77,0,0a58.4,58.4,0,0,0-20,60h0.27Zm103-58,0,0a58.42,58.42,0,0,0-62-12.3l0,0-2.26-5.69h0a64.38,64.38,0,0,1,68.55,13.59l0,0Z" transform="translate(-633.8 -84.88)"/></g></g></g><g id="_编组_65" data-name="&lt;编组&gt;"><g id="_编组_66" data-name="&lt;编组&gt;"><g id="_编组_67" data-name="&lt;编组&gt;"><path class="cls-3" d="M737.57,247.49l-0.16-5.07h0.43l0.2,5.07h-0.48Zm-13.14-1.2h0l-0.34-.07-0.1,0,1.11-5,0.17,0,0.22,0.05,0,0h0Zm26.64-1-1.44-4.86h0l0.34-.1h0l1.48,4.85Zm-39.53-3.63,0,0-0.36-.18,0,0,2.34-4.5h0l0.32,0.16h0Zm52-1.88L761,235.49l0.37-.22,2.66,4.32-0.09.05-0.28.18ZM700.24,234l0,0-0.3-.27,0,0,3.4-3.77,0.32,0.29Zm74.06-2.66-3.63-3.54,0,0,0.22-.22,0.06-.06,3.65,3.51-0.16.17-0.13.14Zm-83.05-7.64-0.26-.39,4.24-2.8,0,0,0.17,0.26,0,0v0.09h0Zm91.29-3.27-4.41-2.52,0,0,0.17-.31,0,0,4.42,2.48Zm-97.4-9v0l-0.13-.37v0l4.8-1.63,0.06,0.18,0.07,0.2v0Zm102.62-3.69-4.91-1.32v0l0.07-.26,0-.12,4.91,1.34h0c0,0.12-.07.24-0.1,0.36v0Zm-105.43-9.69v0a2.19,2.19,0,0,0,0-.22v-0.21l5.06-.36,0,0.43Zm107.26-3.85-5.07-.07,0-.39,5,0v0.44ZM784,186.51l-0.07-.43,5-.8v0c0,0.12,0,.24.05,0.36v0.07Zm-96-1.18-5-.89v0c0-.07,0-0.15,0-0.22l0-.21,5,0.92v0l-0.07.36v0Zm92.62-10.72v0l-0.09-.2-0.07-.16,4.65-2,0,0.09,0.13,0.31v0Zm-88.93-1.1L687,171.39v0l0.14-.31,0-.08,4.59,2.16v0l-0.08.19ZM774.28,164l0-.06-0.2-.25,0,0,4-3.15,0,0,0.24,0.3,0,0ZM698.22,163l-3.91-3.23v-0.09l0,0,0.22-.28,0,0,3.9,3.24,0,0-0.23.28Zm67.28-7.79-0.13-.1-0.19-.14,0,0,3.06-4,0,0,0.32,0.24,0,0Zm-58.28-.72-3-4.1,0.38-.28,3,4.12,0,0-0.16.11ZM754.81,149h0l-0.2-.08-0.16-.07v0l2-4.65h0l0.2,0.08,0.17,0.07h0Zm-36.75-.45-1.86-4.73,0.11,0,0.3-.11h0l1.82,4.73-0.13.05-0.25.1h0Zm24.82-2.86h0l-0.28,0h-0.12l0.69-5h0l0.4,0.06h0Zm-12.82-.16-0.59-5h0v0h0l0.4,0h0l0.56,5h-0.16l-0.24,0h0Z" transform="translate(-633.8 -84.88)"/></g></g></g><g id="_编组_68" data-name="&lt;编组&gt;"><g id="_编组_69" data-name="&lt;编组&gt;"><g id="_编组_70" data-name="&lt;编组&gt;"><path class="cls-3" d="M736.32,244.41V243.5h0.44v0.91h-0.45Zm-15.07-2.15h0l-0.37-.1h0l0.27-.87,0,0,0.35,0.1,0,0h0Zm30.53-.4-0.28-.86,0.19-.06,0.19-.07h0l0.29,0.86Zm-44.65-6.41,0,0-0.19-.13-0.12-.09h0l0.52-.75,0,0,0.18,0.13,0.17,0.08Zm58.58-.76-0.53-.73,0,0,0.29-.22,0,0,0,0h0l0.51,0.71-0.15.11-0.17.13Zm-69.93-10,0,0-0.23-.3,0,0,0.72-.54,0,0,0.11,0.14,0.11,0.15,0,0Zm81-1.06-0.73-.53,0,0c0.07-.1.14-0.2,0.22-0.3v0l0.74,0.52,0,0-0.21.3Zm-88.55-12.68v0c0-.12-0.09-0.23-0.13-0.35v0l0.85-.3v0c0,0.1.07,0.22,0.12,0.32h0.19l-0.17.06h0Zm95.71-1.25-0.86-.28,0.13-.43,0.86,0.28ZM685.3,195.54v0c0-.12,0-0.25,0-0.37v0l0.9,0v0c0,0.07,0,.14,0,0.21v0.12h0.05l-0.05.06h0Zm101.18-1.32h-0.9v-0.4l0,0,0.86,0v0.41Zm-1-3.35v0l0-.37v0l0.9-.06v0a3.22,3.22,0,0,1,0,.37v0ZM688,180.24l-0.86-.25,0.13-.43,0.86,0.25,0,0.11c0,0.09-.06.18-0.08,0.28v0Zm94.19-4.4v0c0-.11-0.09-0.22-0.13-0.34v0l0.83-.34v0c0,0.12.09,0.24,0.14,0.35v0Zm-87.74-9.57-0.75-.51,0,0,0.21-.31,0,0h0l0.72,0.48,0,0-0.17.25Zm80-3.74,0,0-0.23-.28,0,0,0.69-.57,0,0,0.24,0.29,0,0Zm-69.61-7.61-0.56-.7,0,0,0.17-.14,0.12-.1,0,0,0.56,0.72,0,0-0.29.22Zm58.19-2.71,0,0-0.31-.2,0,0,0.5-.75h0.06v0l0.28,0.19,0,0Zm-44.82-4.9-0.32-.85,0.07,0,0.32-.12h0l0.31,0.85h0l-0.34.13Zm30.8-1.44h0l-0.36-.1h0l0.23-.88L749.3,145Zm-15.73-1.71,0-.9,0.45,0,0,0.9h-0.45Z" transform="translate(-633.8 -84.88)"/></g></g></g><g id="_编组_71" data-name="&lt;编组&gt;"><g id="_编组_72" data-name="&lt;编组&gt;"><g id="_编组_73" data-name="&lt;编组&gt;"><path class="cls-3" d="M689.81,275.76v-0.24l2.08-3.68L692,271.9ZM665,255.36l0,0a93.51,93.51,0,0,1-23-61.51,94.62,94.62,0,0,1,2.76-22.68v0l4.22,1,0,0.05a89.71,89.71,0,0,0,19.28,80.3l0,0Z" transform="translate(-633.8 -84.88)"/></g></g></g><g id="_编组_74" data-name="&lt;编组&gt;"><g id="_编组_75" data-name="&lt;编组&gt;"><g id="_编组_76" data-name="&lt;编组&gt;"><path class="cls-3" d="M780.68,267.61l-0.56-.92,0,0a84.71,84.71,0,0,0,41-72.85l0.05-.05,1,0.05a86.27,86.27,0,0,1-41.48,73.78ZM662.22,238.85l0,0a86.33,86.33,0,0,1-3-84.61l0,0,1,0.5,0,0a85.41,85.41,0,0,0,3,83.51h0.16l-0.12.08,0,0h-0.08Zm158.69-51.1v-0.05a85.73,85.73,0,0,0-46.09-69.74l0,0,0.5-1,0,0A86.33,86.33,0,0,1,822,187.62v0.05ZM745.08,109H745l0.11-1h0.11Z" transform="translate(-633.8 -84.88)"/></g></g></g></g><g id="_编组_77" data-name="&lt;编组&gt;" class="cls-2"><g id="_编组_78" data-name="&lt;编组&gt;"><g id="_编组_79" data-name="&lt;编组&gt;"><g id="_编组_80" data-name="&lt;编组&gt;"><path class="cls-3" d="M735.88,216.84a23,23,0,1,1,23-23A23.07,23.07,0,0,1,735.88,216.84Zm0-43.84a20.8,20.8,0,1,0,20.8,20.8A20.83,20.83,0,0,0,735.88,173Z" transform="translate(-633.8 -84.88)"/></g></g></g><g id="_编组_81" data-name="&lt;编组&gt;"><g id="_编组_82" data-name="&lt;编组&gt;" class="cls-4"><g id="_编组_83" data-name="&lt;编组&gt;"><g id="_编组_84" data-name="&lt;编组&gt;"><path class="cls-3" d="M694.42,178.69l-60.63-23,0.19-.51a109,109,0,0,1,129.12-66.9l0.53,0.14-16.17,62.78-0.53-.14a44.21,44.21,0,0,0-52.32,27.09ZM635.2,155.1l58.6,22.2a45.3,45.3,0,0,1,52.89-27.38l15.63-60.68A107.9,107.9,0,0,0,635.2,155.1Z" transform="translate(-633.8 -84.88)"/></g></g></g><g id="_编组_85" data-name="&lt;编组&gt;" class="cls-5"><g id="_编组_86" data-name="&lt;编组&gt;"><g id="_编组_87" data-name="&lt;编组&gt;"><path class="cls-3" d="M765.08,160.76l-0.41-.36a44.22,44.22,0,0,0-9.36-6.2l-0.49-.24L783.47,95.8,784,96A109.11,109.11,0,0,1,807,111.33l0.41,0.36Zm-8.8-7.29a45.3,45.3,0,0,1,8.69,5.76l41-47.43a108,108,0,0,0-22-14.55Z" transform="translate(-633.8 -84.88)"/></g></g></g></g><g id="_编组_88" data-name="&lt;编组&gt;"><g id="_编组_89" data-name="&lt;编组&gt;"><g id="_编组_90" data-name="&lt;编组&gt;"><path class="cls-3" d="M735.88,266.31a72.51,72.51,0,1,1,72.51-72.51A72.59,72.59,0,0,1,735.88,266.31Zm0-144.54a72,72,0,1,0,72,72A72.11,72.11,0,0,0,735.88,121.77Z" transform="translate(-633.8 -84.88)"/></g></g></g><g id="_编组_91" data-name="&lt;编组&gt;" class="cls-6"><g id="_编组_92" data-name="&lt;编组&gt;"><g id="_编组_93" data-name="&lt;编组&gt;"><path class="cls-3" d="M741.32,271.57l-0.08-1.09h0.05l1.07-.08h0.05l0.09,1.09h-0.05l-1.05.09h-0.09Zm2.17-.17-0.1-1.09h0.05l1.07-.12v0.05h0.05l0.12,1h-0.17l-1,.1h-0.05Zm2.18-.25-0.14-1.07h0.05l1.08-.15h0.05l0.14,1.07h0l-1.09.15h-0.05Zm2.16-.3-0.16-1.06h0.05l1.06-.17h0.05l0.17,1.07H749l-1.08.17h-0.05Zm2.16-.36-0.2-1.06h0.05l1.05-.21,0.07,0,0.2,1h0l-1.07.21H750Zm2.14-.42L751.91,269H752l1-.22v-0.45l0.33,1.49h0l-1.06.24h-0.05Zm3.29-.36-0.1-.39-1,.25h-0.05L754,268.52h0.05l1-.25v-0.39l0.09,0.37h0v0.07l0.24,1v0.46Zm1-.67-0.29-1h0.05l1-.29,0.05,0,0.29,1,0,0-1.05.29h-0.05Zm2.1-.6-0.31-1h0.05l1-.33h0.05l0.33,1h-0.05q-0.52.18-1,.33Zm2.08-.66-0.35-1,0.05,0,0.77-.26,0.3-.1,0.36,1-0.05,0-1,.35Zm2.06-.73-0.37-1h0.05l1-.38,0,0,0.39,1-0.05,0-1,.38Zm2-.78-0.4-1,0.05,0,1-.41h0l0.42,1-0.05,0-1,.41h-0.05Zm2-.82-0.43-1,0.05,0,1-.43,0.05,0,0.45,1-0.05,0-1,.45Zm2-.89-0.46-1,0,0,1-.46h0.07v0l0.46,0.93-0.05,0-1,.47Zm2-.94-0.49-1,0,0,0.93-.48v-0.18l0.08,0.15,0,0v0.08l0.47,0.91,0,0-1,.49Zm1.93-1-0.51-1,0,0,0.94-.51,0,0,0.53,1,0,0-1,.52Zm1.91-1.05-0.54-.94,0,0,0.93-.54,0,0,0.55,0.93,0,0c-0.3.18-.61,0.37-0.94,0.55Zm1.88-1.12-0.56-.92,0,0,0.91-.56,0,0,0.59,0.91-0.05,0-0.92.58Zm1.85-1.16-0.59-.91,0.15-.1c0.26-.17.52-0.34,0.78-0.52l0,0,0.61,0.9,0,0-0.91.61Zm1.81-1.2-0.62-.9,0,0,0.89-.62,0,0,0.63,0.88,0,0-0.9.63Zm1.78-1.26-0.64-.88,0,0,0.81-.61,0,0h0.15l0,0,0.62,0.82,0,0-0.88.65Zm1.75-1.31-0.66-.86,0,0,0.85-.67,0,0,0.66,0.87,0,0c-0.29.22-.58,0.44-0.86,0.67Zm1.7-1.37-0.69-.84,0,0,0.84-.68,0,0,0.71,0.84,0,0c-0.27.24-.55,0.47-0.84,0.69Zm1.67-1.4-0.72-.82,0,0,0.81-.72,0,0,0.71,0.8v0.13l-0.05-.05-0.78.68Zm1.63-1.45-0.74-.8,0.12-.11,0.72-.66,0,0,0.75,0.78,0,0-0.72.67Zm1.59-1.5L789.4,249l0,0,0.77-.75,0,0,0.76,0.77,0,0-0.78.77Zm1.55-1.55-0.78-.75,0,0,0.73-.76v-0.11l0.05,0.05,0.05-.07v0.12l0.74,0.69,0,0c-0.25.27-.5,0.53-0.76,0.79Zm1.5-1.59-0.79-.73,0,0c0.27-.28.52-0.56,0.73-0.8h0.08l0.77,0.68,0,0-0.74.81Zm1.47-1.63-0.81-.71,0,0,0.7-.81,0.07,0h0l0.78,0.66,0,0-0.72.84Zm1.41-1.66-0.84-.69,0,0,0.68-.84,0,0,0.85,0.68,0,0.05-0.68.84Zm1.37-1.72-0.86-.66,0,0c0.23-.28.45-0.56,0.66-0.86l0,0,0.87,0.66,0,0-0.67.86Zm1.32-1.74-0.88-.65,0,0c0.22-.28.42-0.58,0.63-0.87l0,0,0,0,0.84,0.6,0,0c-0.22.29-.43,0.59-0.64,0.89ZM800,238.1l-0.9-.61,0,0c0.21-.3.41-0.6,0.61-0.9l0,0,0.9,0.61,0,0c-0.21.3-.4,0.61-0.61,0.9Zm1.22-1.81-0.91-.59,0-.05,0.58-.89v-0.09l0,0,0.08-.11v0.15l1,0.61h-0.15l-0.58.9Zm1.17-1.85-0.93-.58,0,0,0.55-.92,0,0,0.91,0.59h0c-0.18.31-.37,0.63-0.56,0.93Zm1.12-1.89L802.6,232l0,0,0.53-.94,0,0,1,0.52,0,0.05c-0.18.31-.36,0.64-0.54,1Zm1.06-1.91-1-.52,0,0,0.48-.91-0.11-.08h0.21l0.91,0.48,0,0c-0.16.33-.34,0.65-0.51,1Zm1-2-1-.48,0-.05c0.16-.31.33-0.64,0.48-1l0-.05,1,0.48,0,0.05c-0.15.33-.31,0.65-0.48,1Zm0.94-2-1-.47,0,0,0.44-1,0,0,1,0.44,0,0c-0.14.34-.29,0.67-0.45,1Zm0.9-2-1-.43,0-.05c0.15-.33.29-0.66,0.42-1l0-.05,1,0.41v0.05l-0.43,1Zm0.85-2-1-.4,0-.05,0.39-1,0-.05,1.24,0.48h-0.26l-0.38,1Zm0.78-2.05-1-.37,0-.05,0.36-1,0,0,1,0.36v0c-0.12.35-.25,0.69-0.37,1Zm0.73-2.06-1-.35,0-.05c0.11-.34.22-0.68,0.34-1v0l1,0.33v0.05c-0.1.3-.21,0.64-0.35,1v0.05Zm0.66-2.1-1-.31,0-.13c0.1-.31.2-0.64,0.28-1l0-.05,1,0.3,0,0.05c-0.1.35-.2,0.69-0.3,1Zm0.61-2.11-1-.28V214c0.1-.34.18-0.68,0.27-1l0.06,0,0.2,0,0.79,0.25h0c-0.09.36-.18,0.71-0.27,1.06Zm0.54-2.12-1.05-.25V212c0.09-.35.17-0.69,0.25-1.05v-0.05l1.05,0.34h0c-0.08.31-.15,0.65-0.24,1Zm0.49-2.13-1.05-.23v-0.05c0.07-.35.14-0.69,0.21-1.05v-0.05l1.07,0.22V209l-0.23,1.06v0.05Zm0.42-2.14-1.06-.21v0c0.05-.29.1-0.58,0.15-0.86l0-.26,1.07,0.19v0l-0.2,1.09V208Zm0.37-2.16-1.08-.16v-0.05c0.07-.43.12-0.76,0.15-1.06V204.5l1.07,0.14v0.05c0,0.3-.1.69-0.15,1.09v0.05Zm0.3-2.16-1.07-.14v-0.05c0-.36.08-0.72,0.12-1.06v-0.05l1.07,0.12v0.14c0,0.34-.08.66-0.12,1v0.05Zm0.24-2.18-1.08-.1v-0.05c0-.42.08-0.76,0.1-1.08v-0.05l1.09,0.2h0l-0.1,1v0.05Zm0.18-2.17-1.09-.08v-0.05c0-.33,0-0.66.07-1.08v-0.05l1.09,0.05v0.05l-0.07,1.1v0.05Zm0.13-2.18-1.09-.05v0c0-.36,0-0.72,0-1.09V195.9l1.09,0V196c0,0.33,0,.65,0,1v0.16Zm0.05-2.19h-1.09v-0.05c0-.36,0-0.72,0-1.07l0.05-.23h1v0.24c0,0.36,0,.73,0,1.09v0.05Zm-1.09-2.35v-0.05c0-.31,0-0.66,0-1.08v-0.05l1.09,0v0.05c0,0.43,0,.78,0,1.1v0.05h-1.09Zm-0.07-2.15V190.4c0-.36,0-0.72-0.05-1.08v-0.05l1.09-.07v0.05c0,0.37,0,.73.05,1.1v0.05Zm-0.12-2.15v-0.15c0-.33,0-0.65-0.08-1v-0.05l1.08-.09v0.05c0,0.36.05,0.72,0.09,1.09v0.05Zm-0.18-2.15V186.1c0-.36-0.08-0.72-0.12-1.06V185l1.08-.13v0.05c0,0.4.09,0.79,0.11,1.09V186ZM812.13,184V184c-0.05-.36-0.1-0.72-0.15-1.06v-0.05l1.09-.16v0.05c0.05,0.37.1,0.73,0.15,1.09v0.05Zm-0.3-2.14v-0.05c-0.07-.35-0.12-0.71-0.17-1.06h0V180.7l1-.17v0.05c0.07,0.36.12,0.72,0.17,1.07v0.05Zm-0.36-2.13v0c-0.06-.36-0.13-0.71-0.21-1.06l0-.07,1.14-.23-0.11.11c0.07,0.31.13,0.64,0.2,1v0.05ZM811,177.64v-0.05c-0.09-.41-0.16-0.75-0.23-1.05v-0.05l1.06-.25v0.08c0.09,0.34.16,0.69,0.24,1.05v0.05Zm-0.48-2.11v-0.05c-0.09-.35-0.17-0.69-0.27-1v-0.05l1.05-.27v0.05c0.1,0.35.18,0.71,0.27,1.06v0ZM810,173.45V173.4l-0.29-1v-0.05l1-.3v0.05l0.29,1.05,0,0.05Zm-0.6-2.07v0l-0.33-1,0-.05,1-.34V170c0.12,0.35.22,0.69,0.33,1l0,0.05Zm-146.85-.8h-0.07l-1-.31v0c0.11-.35.23-0.71,0.34-1l0-.05,1,0.34,0,0.05c-0.12.37-.23,0.71-0.33,1v0Zm146.2-1.25,0-.05c-0.12-.34-0.23-0.67-0.35-1l0,0,1-.35v0l0.36,1V169Zm-145.52-.79-1-.35,0-.05c0.12-.35.24-0.69,0.37-1l0-.05,1,0.37,0,0.05c-0.12.34-.25,0.67-0.37,1v0Zm144.81-1.24,0-.05c-0.12-.33-0.24-0.65-0.37-1h-0.25l1.24-.47v0c0.13,0.33.26,0.66,0.39,1l0,0ZM664,166.5l-1-.38v-0.05c0.13-.35.27-0.68,0.4-1l0-.05,1,0.4,0,0.05-0.39,1Zm143.3-1.22,0-.05c-0.13-.34-0.27-0.66-0.41-1v0l1-.42,0,0.05,0.41,1,0,0Zm-142.5-.81h-0.05l-1-.39,0.07-.15c0.12-.3.25-0.61,0.38-0.91l0-.05,1,0.43,0,0.05-0.42,1v0Zm141.67-1.17,0-.05-0.43-1,0-.05,1-.45,0,0.05c0.13,0.29.29,0.64,0.43,1l0,0Zm-140.82-.79-1-.45,0,0,0.4-.91,0.08-.14,1,0.46,0,0.05c-0.15.33-.3,0.65-0.44,1Zm139.94-1.16,0-.05-0.46-1,0-.05,1-.47,0,0c0.15,0.33.31,0.65,0.47,1l0,0Zm-139-.8-1-.47,0,0c0.16-.36.33-0.68,0.48-1l0-.05,1,0.49,0,0c-0.16.33-.33,0.65-0.48,1Zm138.09-1.14,0,0-0.49-1,0-.05,1-.5,0,0.05,0.49,1,0,0.05Zm-137.13-.79-1-.5,0,0c0.16-.33.34-0.65,0.51-1l0,0,1,0.51,0,0.05c-0.17.31-.34,0.63-0.5,1Zm136.14-1.11,0-.05-0.52-.94,0,0,0.94-.53,0,0.05,0.42,0.78,0.12,0.22Zm-135.12-.79-0.94-.53,0,0,0.42-.76,0.14-.25,0.94,0.54,0,0.05c-0.15.26-.31,0.55-0.52,0.93Zm134.08-1.09,0-.05-0.54-.92,0-.05,0.93-.55,0,0.05c0.18,0.3.37,0.62,0.54,0.93l0,0.05Zm-133-.79-0.93-.55,0,0,0.56-.94,0,0,0.92,0.56,0,0-0.55.92Zm131.91-1.06,0,0-0.55-.89h-0.16l1-.65,0,0,0.49,0.78,0.11,0.2ZM670.72,153l-0.91-.58,0-.05,0.59-.91,0-.05,0.91,0.6,0,0c-0.2.3-.39,0.61-0.58,0.91Zm129.64-1,0,0-0.48-.72-0.15-.23,0.94-.63v0.09l0.6,0.9,0,0Zm-128.43-.75-0.94-.63,0-.11,0,0,0.58-.86,0,0,0.9,0.61,0,0.05c-0.21.28-.4,0.58-0.6,0.87v0.09Zm127.23-1,0,0-0.62-.88,0,0,0.89-.64,0,0.05L800,149.5l0,0Zm-126-.77-0.89-.63,0,0,0.64-.88,0,0,0.88,0.64,0,0c-0.22.28-.42,0.58-0.63,0.87Zm124.8-1,0,0-0.6-.81-0.05.05v-0.16h0l0.82-.62,0,0,0.65,0.87,0,0Zm-123.53-.75-0.87-.66,0-.11,0,0,0.47-.62,0.19-.26,0.86,0.67,0,0c-0.23.29-.45,0.58-0.65,0.86Zm122.24-1,0,0-0.67-.85,0,0,0.84-.65h0.13l-0.05.05c0.21,0.25.4,0.5,0.6,0.76l0.09,0.11Zm-120.91-.74-0.86-.68,0,0,0.68-.85,0,0,0.84,0.69,0,0c-0.23.27-.44,0.55-0.67,0.84ZM795.28,145l0,0-0.7-.82,0,0,0.82-.69,0.13,0.14c0.2,0.25.4,0.49,0.61,0.74l0,0Zm-118.2-.73-0.84-.71,0,0c0.23-.28.47-0.55,0.71-0.84l0,0,0.83,0.72,0,0-0.7.81Zm116.81-.91,0,0-0.72-.81,0,0,0.81-.73,0,0,0.73,0.81,0,0Zm-115.38-.74h-0.07l-0.77-.69,0,0c0.24-.28.49-0.54,0.73-0.81l0,0,0.79,0.74,0,0-0.73.8v0Zm113.93-.87,0,0c-0.24-.25-0.48-0.52-0.74-0.78l0,0,0.78-.75,0,0,0.75,0.79,0,0Zm-112.5-.69-0.79-.75,0,0,0.76-.78,0,0,0.78,0.76,0,0L680,141Zm111-.87,0,0-0.75-.76,0,0,0.77-.77,0,0c0.26,0.25.51,0.51,0.76,0.76l0.05,0.05Zm-109.47-.63-0.81-.82,0,0v-0.11l0.05,0.05,0.74-.73,0,0,0.76,0.78,0,0-0.75.74v0.11Zm107.95-.9,0,0q-0.37-.37-0.78-0.75l0,0,0.76-.77,0,0,0.79,0.75,0,0ZM683,138l-0.74-.78,0,0c0.27-.25.53-0.5,0.8-0.74l0,0,0.73,0.8,0,0L683,138Zm104.89-.81,0,0-0.76-.69-0.07.05v-0.15h0l0.69-.77,0,0c0.26,0.25.53,0.49,0.8,0.74l0,0Zm-103.3-.64-0.72-.8,0,0,0.83-.72,0,0,0.71,0.82,0,0-0.8.72Zm101.7-.79,0,0-0.81-.69,0-.07h0l0.66-.79,0,0,0.84,0.72,0,0Zm-100.07-.62-0.71-.84,0,0,0.84-.69,0,0,0.69,0.85,0,0-0.82.68Zm98.42-.78,0,0-0.85-.67,0,0,0.68-.86,0,0,0.85,0.68,0,0Zm-96.76-.6-0.67-.85,0,0,0.86-.67,0,0L688.8,133l0,0-0.85.66Zm95.07-.75,0,0-0.86-.65,0-.05v0l0.62-.83,0,0,0.87,0.66,0,0Zm-93.37-.56-0.66-.87,0,0,0.88-.65,0,0,0.64,0.88,0,0c-0.29.21-.58,0.42-0.86,0.64Zm91.64-.73,0,0c-0.28-.22-0.58-0.42-0.87-0.63l0,0,0.63-.89,0,0,0.88,0.64,0,0Zm-89.92-.55-0.63-.88,0,0,0.9-.63,0,0,0.62,0.9,0,0c-0.3.2-.6,0.4-0.89,0.61Zm88.16-.69,0,0-0.89-.61,0,0,0.6-.9,0,0,0.91,0.62,0,0Zm-86.39-.53-0.6-.9,0,0,0.91-.61,0,0,0.59,0.91,0,0-0.9.6Zm84.6-.67,0,0-0.91-.58,0,0,0.58-.91,0,0,0.92,0.6,0,0Zm-82.79-.5-0.58-.91,0,0,0.92-.58,0.05,0,0.56,0.92,0,0-0.91.58Zm81-.65-0.05,0-0.92-.55,0,0,0.55-.93,0,0,0.93,0.55,0.05,0Zm-79.14-.47-0.55-.93,0.05,0,0.88-.51,0.11-.07,0.54,0.94-0.05,0-0.92.54ZM774,127l0,0-0.94-.53,0,0,0.52-1,0.05,0,1,0.53,0,0Zm-75.32-.3L698,125.63l0.05,0,1-.52,0,0,0.52,1-0.05,0-0.91.5v0.18Zm73.44-.74,0,0-1-.51-0.05,0,0.5-1,0.05,0,1,0.5,0,0Zm-71.59-.43-0.05,0-0.48-.91,0.05,0,1-.49,0.05,0,0.49,1-0.05,0-0.91.47,0,0h-0.09Zm69.67-.55,0,0-1-.47-0.05,0,0.47-1,0.05,0,1,0.48,0,0Zm-67.78-.39-0.47-1,0,0,1-.47,0,0,0.47,1-0.05,0-1,.46Zm65.84-.55,0,0-0.94-.42-0.08.15v-0.24h0l0.42-.93,0.05,0,1,0.44,0,0Zm-2-.88,0,0-1-.42-0.05,0,0.42-1,0,0,1,0.42,0.05,0Zm-2-.82,0,0-1-.39-0.05,0,0.38-1,0.18-.2-0.08.2,1,0.38,0.05,0Zm-2-.77-0.05,0-1-.36-0.05,0,0.45-1.28v0.28l1,0.36,0.05,0Zm-2-.72h-0.05l-1-.34-0.05,0,0.34-1h0l1,0.34,0.08,0Z" transform="translate(-633.8 -84.88)"/></g></g></g><g id="_编组_94" data-name="&lt;编组&gt;" class="cls-7"><g id="_编组_95" data-name="&lt;编组&gt;"><g id="_编组_96" data-name="&lt;编组&gt;"><path class="cls-3" d="M735.88,258.25A64.4,64.4,0,0,1,681,227.53v0l5.21-3.21v0a58,58,0,0,0,49.71,27.81,58.66,58.66,0,0,0,7.33-.45h0l0.75,6.07h0A66.57,66.57,0,0,1,735.88,258.25Zm26.53-5.7L759.89,247h0A58.36,58.36,0,0,0,787,165.7h0v-0.07h0l5.33-2.94v0a64.48,64.48,0,0,1-29.89,89.82h0Zm-88.95-42.66v0a65,65,0,0,1-.31-30.81A64,64,0,0,1,678,165.49a65.07,65.07,0,0,1,17.55-21.94l0,0,3.83,4.77,0,0a58.4,58.4,0,0,0-20,60h0.27Zm103-58,0,0a58.42,58.42,0,0,0-62-12.3l0,0-2.26-5.69h0a64.38,64.38,0,0,1,68.55,13.59l0,0Z" transform="translate(-633.8 -84.88)"/></g></g></g><g id="_编组_97" data-name="&lt;编组&gt;" class="cls-7"><g id="_编组_98" data-name="&lt;编组&gt;"><g id="_编组_99" data-name="&lt;编组&gt;"><path class="cls-3" d="M735.88,258.25A64.4,64.4,0,0,1,681,227.53v0l5.21-3.21v0a58,58,0,0,0,49.71,27.81,58.66,58.66,0,0,0,7.33-.45h0l0.75,6.07h0A66.57,66.57,0,0,1,735.88,258.25Zm26.53-5.7L759.89,247h0A58.36,58.36,0,0,0,787,165.7h0v-0.07h0l5.33-2.94v0a64.48,64.48,0,0,1-29.89,89.82h0Zm-88.95-42.66v0a65,65,0,0,1-.31-30.81A64,64,0,0,1,678,165.49a65.07,65.07,0,0,1,17.55-21.94l0,0,3.83,4.77,0,0a58.4,58.4,0,0,0-20,60h0.27Zm103-58,0,0a58.42,58.42,0,0,0-62-12.3l0,0-2.26-5.69h0a64.38,64.38,0,0,1,68.55,13.59l0,0Z" transform="translate(-633.8 -84.88)"/></g></g></g><g id="_编组_100" data-name="&lt;编组&gt;"><g id="_编组_101" data-name="&lt;编组&gt;"><g id="_编组_102" data-name="&lt;编组&gt;"><path class="cls-3" d="M735.88,258.25A64.4,64.4,0,0,1,681,227.53v0l5.21-3.21v0a58,58,0,0,0,49.71,27.81,58.66,58.66,0,0,0,7.33-.45h0l0.75,6.07h0A66.57,66.57,0,0,1,735.88,258.25Zm26.53-5.7L759.89,247h0A58.36,58.36,0,0,0,787,165.7h0v-0.07h0l5.33-2.94v0a64.48,64.48,0,0,1-29.89,89.82h0Zm-88.95-42.66v0a65,65,0,0,1-.31-30.81A64,64,0,0,1,678,165.49a65.07,65.07,0,0,1,17.55-21.94l0,0,3.83,4.77,0,0a58.4,58.4,0,0,0-20,60h0.27Zm103-58,0,0a58.42,58.42,0,0,0-62-12.3l0,0-2.26-5.69h0a64.38,64.38,0,0,1,68.55,13.59l0,0Z" transform="translate(-633.8 -84.88)"/></g></g></g><g id="_编组_103" data-name="&lt;编组&gt;"><g id="_编组_104" data-name="&lt;编组&gt;"><g id="_编组_105" data-name="&lt;编组&gt;"><path class="cls-3" d="M735.88,258.25A64.4,64.4,0,0,1,681,227.53v0l5.21-3.21v0a58,58,0,0,0,49.71,27.81,58.66,58.66,0,0,0,7.33-.45h0l0.75,6.07h0A66.57,66.57,0,0,1,735.88,258.25Zm26.53-5.7L759.89,247h0A58.36,58.36,0,0,0,787,165.7h0v-0.07h0l5.33-2.94v0a64.48,64.48,0,0,1-29.89,89.82h0Zm-88.95-42.66v0a65,65,0,0,1-.31-30.81A64,64,0,0,1,678,165.49a65.07,65.07,0,0,1,17.55-21.94l0,0,3.83,4.77,0,0a58.4,58.4,0,0,0-20,60h0.27Zm103-58,0,0a58.42,58.42,0,0,0-62-12.3l0,0-2.26-5.69h0a64.38,64.38,0,0,1,68.55,13.59l0,0Z" transform="translate(-633.8 -84.88)"/></g></g></g><g id="_编组_106" data-name="&lt;编组&gt;"><g id="_编组_107" data-name="&lt;编组&gt;"><g id="_编组_108" data-name="&lt;编组&gt;"><path class="cls-3" d="M735.88,258.25A64.4,64.4,0,0,1,681,227.53v0l5.21-3.21v0a58,58,0,0,0,49.71,27.81,58.66,58.66,0,0,0,7.33-.45h0l0.75,6.07h0A66.57,66.57,0,0,1,735.88,258.25Zm26.53-5.7L759.89,247h0A58.36,58.36,0,0,0,787,165.7h0v-0.07h0l5.33-2.94v0a64.48,64.48,0,0,1-29.89,89.82h0Zm-88.95-42.66v0a65,65,0,0,1-.31-30.81A64,64,0,0,1,678,165.49a65.07,65.07,0,0,1,17.55-21.94l0,0,3.83,4.77,0,0a58.4,58.4,0,0,0-20,60h0.27Zm103-58,0,0a58.42,58.42,0,0,0-62-12.3l0,0-2.26-5.69h0a64.38,64.38,0,0,1,68.55,13.59l0,0Z" transform="translate(-633.8 -84.88)"/></g></g></g><g id="_编组_109" data-name="&lt;编组&gt;"><g id="_编组_110" data-name="&lt;编组&gt;"><g id="_编组_111" data-name="&lt;编组&gt;"><path class="cls-3" d="M737.57,247.49l-0.16-5.07h0.43l0.2,5.07h-0.48Zm-13.14-1.2h0l-0.34-.07-0.1,0,1.11-5,0.17,0,0.22,0.05,0,0h0Zm26.64-1-1.44-4.86h0l0.34-.1h0l1.48,4.85Zm-39.53-3.63,0,0-0.36-.18,0,0,2.34-4.5h0l0.32,0.16h0Zm52-1.88L761,235.49l0.37-.22,2.66,4.32-0.09.05-0.28.18ZM700.24,234l0,0-0.3-.27,0,0,3.4-3.77,0.32,0.29Zm74.06-2.66-3.63-3.54,0,0,0.22-.22,0.06-.06,3.65,3.51-0.16.17-0.13.14Zm-83.05-7.64-0.26-.39,4.24-2.8,0,0,0.17,0.26,0,0v0.09h0Zm91.29-3.27-4.41-2.52,0,0,0.17-.31,0,0,4.42,2.48Zm-97.4-9v0l-0.13-.37v0l4.8-1.63,0.06,0.18,0.07,0.2v0Zm102.62-3.69-4.91-1.32v0l0.07-.26,0-.12,4.91,1.34h0c0,0.12-.07.24-0.1,0.36v0Zm-105.43-9.69v0a2.19,2.19,0,0,0,0-.22v-0.21l5.06-.36,0,0.43Zm107.26-3.85-5.07-.07,0-.39,5,0v0.44ZM784,186.51l-0.07-.43,5-.8v0c0,0.12,0,.24.05,0.36v0.07Zm-96-1.18-5-.89v0c0-.07,0-0.15,0-0.22l0-.21,5,0.92v0l-0.07.36v0Zm92.62-10.72v0l-0.09-.2-0.07-.16,4.65-2,0,0.09,0.13,0.31v0Zm-88.93-1.1L687,171.39v0l0.14-.31,0-.08,4.59,2.16v0l-0.08.19ZM774.28,164l0-.06-0.2-.25,0,0,4-3.15,0,0,0.24,0.3,0,0ZM698.22,163l-3.91-3.23v-0.09l0,0,0.22-.28,0,0,3.9,3.24,0,0-0.23.28Zm67.28-7.79-0.13-.1-0.19-.14,0,0,3.06-4,0,0,0.32,0.24,0,0Zm-58.28-.72-3-4.1,0.38-.28,3,4.12,0,0-0.16.11ZM754.81,149h0l-0.2-.08-0.16-.07v0l2-4.65h0l0.2,0.08,0.17,0.07h0Zm-36.75-.45-1.86-4.73,0.11,0,0.3-.11h0l1.82,4.73-0.13.05-0.25.1h0Zm24.82-2.86h0l-0.28,0h-0.12l0.69-5h0l0.4,0.06h0Zm-12.82-.16-0.59-5h0v0h0l0.4,0h0l0.56,5h-0.16l-0.24,0h0Z" transform="translate(-633.8 -84.88)"/></g></g></g><g id="_编组_112" data-name="&lt;编组&gt;"><g id="_编组_113" data-name="&lt;编组&gt;"><g id="_编组_114" data-name="&lt;编组&gt;"><path class="cls-3" d="M736.32,244.41V243.5h0.44v0.91h-0.45Zm-15.07-2.15h0l-0.37-.1h0l0.27-.87,0,0,0.35,0.1,0,0h0Zm30.53-.4-0.28-.86,0.19-.06,0.19-.07h0l0.29,0.86Zm-44.65-6.41,0,0-0.19-.13-0.12-.09h0l0.52-.75,0,0,0.18,0.13,0.17,0.08Zm58.58-.76-0.53-.73,0,0,0.29-.22,0,0,0,0h0l0.51,0.71-0.15.11-0.17.13Zm-69.93-10,0,0-0.23-.3,0,0,0.72-.54,0,0,0.11,0.14,0.11,0.15,0,0Zm81-1.06-0.73-.53,0,0c0.07-.1.14-0.2,0.22-0.3v0l0.74,0.52,0,0-0.21.3Zm-88.55-12.68v0c0-.12-0.09-0.23-0.13-0.35v0l0.85-.3v0c0,0.1.07,0.22,0.12,0.32h0.19l-0.17.06h0Zm95.71-1.25-0.86-.28,0.13-.43,0.86,0.28ZM685.3,195.54v0c0-.12,0-0.25,0-0.37v0l0.9,0v0c0,0.07,0,.14,0,0.21v0.12h0.05l-0.05.06h0Zm101.18-1.32h-0.9v-0.4l0,0,0.86,0v0.41Zm-1-3.35v0l0-.37v0l0.9-.06v0a3.22,3.22,0,0,1,0,.37v0ZM688,180.24l-0.86-.25,0.13-.43,0.86,0.25,0,0.11c0,0.09-.06.18-0.08,0.28v0Zm94.19-4.4v0c0-.11-0.09-0.22-0.13-0.34v0l0.83-.34v0c0,0.12.09,0.24,0.14,0.35v0Zm-87.74-9.57-0.75-.51,0,0,0.21-.31,0,0h0l0.72,0.48,0,0-0.17.25Zm80-3.74,0,0-0.23-.28,0,0,0.69-.57,0,0,0.24,0.29,0,0Zm-69.61-7.61-0.56-.7,0,0,0.17-.14,0.12-.1,0,0,0.56,0.72,0,0-0.29.22Zm58.19-2.71,0,0-0.31-.2,0,0,0.5-.75h0.06v0l0.28,0.19,0,0Zm-44.82-4.9-0.32-.85,0.07,0,0.32-.12h0l0.31,0.85h0l-0.34.13Zm30.8-1.44h0l-0.36-.1h0l0.23-.88L749.3,145Zm-15.73-1.71,0-.9,0.45,0,0,0.9h-0.45Z" transform="translate(-633.8 -84.88)"/></g></g></g><g id="_编组_115" data-name="&lt;编组&gt;"><g id="_编组_116" data-name="&lt;编组&gt;"><g id="_编组_117" data-name="&lt;编组&gt;"><path class="cls-3" d="M689.81,275.76v-0.24l2.08-3.68L692,271.9ZM665,255.36l0,0a93.51,93.51,0,0,1-23-61.51,94.62,94.62,0,0,1,2.76-22.68v0l4.22,1,0,0.05a89.71,89.71,0,0,0,19.28,80.3l0,0Z" transform="translate(-633.8 -84.88)"/></g></g></g><g id="_编组_118" data-name="&lt;编组&gt;"><g id="_编组_119" data-name="&lt;编组&gt;"><g id="_编组_120" data-name="&lt;编组&gt;"><path class="cls-3" d="M780.68,267.61l-0.56-.92,0,0a84.71,84.71,0,0,0,41-72.85l0.05-.05,1,0.05a86.27,86.27,0,0,1-41.48,73.78ZM662.22,238.85l0,0a86.33,86.33,0,0,1-3-84.61l0,0,1,0.5,0,0a85.41,85.41,0,0,0,3,83.51h0.16l-0.12.08,0,0h-0.08Zm158.69-51.1v-0.05a85.73,85.73,0,0,0-46.09-69.74l0,0,0.5-1,0,0A86.33,86.33,0,0,1,822,187.62v0.05ZM745.08,109H745l0.11-1h0.11Z" transform="translate(-633.8 -84.88)"/></g></g></g></g></g></g></svg>