<svg preserveAspectRatio="none" id="Layer_1" data-name="Layer 1" xmlns="http://www.w3.org/2000/svg" viewBox="0 0 125.61 125.16"><defs><style>.cls-1{fill:#bf681f;}.cls-2{fill:#804515;}.cls-3{fill:#40220a;}.cls-4{fill:#12aac2;}.cls-5{fill:#ff8a29;}.cls-6{fill:#0e8092;}</style></defs><title>circle74</title><circle class="cls-1" cx="241.12" cy="38.9" r="2.03" transform="translate(-30.32 245.6) rotate(-74.99)"/><circle class="cls-2" cx="250.35" cy="42.74" r="2.03" transform="translate(-83.28 222.04) rotate(-60)"/><circle class="cls-3" cx="258.26" cy="48.83" r="2.03" transform="translate(-130.33 180.79) rotate(-45)"/><circle class="cls-1" cx="221.26" cy="38.87" r="2.03" transform="translate(-173.96 42.46) rotate(-15)"/><circle class="cls-2" cx="211.97" cy="42.7" r="2.03" transform="translate(-164.4 95.57) rotate(-30)"/><circle class="cls-3" cx="203.98" cy="48.8" r="2.03" transform="translate(-146.21 142.4) rotate(-45)"/><path class="cls-4" d="M231.16,135.56a59.33,59.33,0,0,1-29.75-8l-3.74,4.62A65.14,65.14,0,0,0,227,141.29s0-.06,0-0.09a4.16,4.16,0,0,1,8.32,0s0,0.06,0,.09a65.14,65.14,0,0,0,29.43-9.13l-3.35-4.84A59.33,59.33,0,0,1,231.16,135.56Z" transform="translate(-171.44 -16.13)"/><path class="cls-4" d="M292.8,75.89A4.16,4.16,0,0,1,297,71.73h0.09a65.16,65.16,0,0,0-9.13-29.43l-5.15,3.57a59.5,59.5,0,0,1,.25,59.5l4.95,4A65.14,65.14,0,0,0,297.05,80H297A4.16,4.16,0,0,1,292.8,75.89Z" transform="translate(-171.44 -16.13)"/><path class="cls-4" d="M231.23,88.32a10.71,10.71,0,0,0,10.7-10.7h-0.75a9.95,9.95,0,1,1-19.89,0h-0.75A10.71,10.71,0,0,0,231.23,88.32Z" transform="translate(-171.44 -16.13)"/><path class="cls-4" d="M231.23,70.95L224.56,81.8H237.9Zm0.13,2.11,3.85,6.26-3.82-3.82,0,0V73.06Zm-0.25,0v2.41l-3.85,3.85Zm-4.41,7.18,4.41-4.41v5h-4.76Zm4.66,0.56v-5l4.41,4.41,0.35,0.56h-4.76Z" transform="translate(-171.44 -16.13)"/><circle class="cls-4" cx="238.43" cy="82.26" r="0.59" transform="translate(-184.61 48.46) rotate(-15.02)"/><circle class="cls-4" cx="231.23" cy="70.31" r="0.59" transform="matrix(0.97, -0.26, 0.26, 0.97, -181.76, 46.07)"/><circle class="cls-4" cx="224.19" cy="82.26" r="0.59" transform="translate(-185.1 44.75) rotate(-15.01)"/><path class="cls-4" d="M268.23,35.23a0.25,0.25,0,0,0,0-.36,0.25,0.25,0,1,0-.33.37,0.2,0.2,0,0,0,.16.07A0.27,0.27,0,0,0,268.23,35.23Z" transform="translate(-171.44 -16.13)"/><path class="cls-4" d="M210.1,126.82a0.23,0.23,0,0,0,.13.32,0.16,0.16,0,0,0,.1,0,0.26,0.26,0,0,0,.23-0.15,0.25,0.25,0,0,0-.14-0.33A0.24,0.24,0,0,0,210.1,126.82Z" transform="translate(-171.44 -16.13)"/><path class="cls-4" d="M208.26,126a0.24,0.24,0,0,0,.12.32,0.23,0.23,0,0,0,.11,0,0.28,0.28,0,0,0,.23-0.15,0.26,0.26,0,0,0-.13-0.33A0.25,0.25,0,0,0,208.26,126Z" transform="translate(-171.44 -16.13)"/><path class="cls-4" d="M212,127.55a0.24,0.24,0,0,0,.15.32h0.08a0.26,0.26,0,0,0,.24-0.16A0.25,0.25,0,0,0,212,127.55Z" transform="translate(-171.44 -16.13)"/><path class="cls-4" d="M202.95,123.21a0.26,0.26,0,0,0,.09.35,0.27,0.27,0,0,0,.13,0,0.25,0.25,0,0,0,.12-0.46A0.24,0.24,0,0,0,202.95,123.21Z" transform="translate(-171.44 -16.13)"/><path class="cls-4" d="M206.46,125.14a0.23,0.23,0,0,0,.11.33,0.2,0.2,0,0,0,.11,0,0.24,0.24,0,0,0,.22-0.14,0.26,0.26,0,0,0-.11-0.34A0.24,0.24,0,0,0,206.46,125.14Z" transform="translate(-171.44 -16.13)"/><path class="cls-4" d="M213.85,128.22a0.26,0.26,0,0,0,.16.32h0.07a0.25,0.25,0,0,0,.24-0.17A0.25,0.25,0,1,0,213.85,128.22Z" transform="translate(-171.44 -16.13)"/><path class="cls-4" d="M204.69,124.21a0.25,0.25,0,0,0,.1.34,0.24,0.24,0,0,0,.12,0,0.25,0.25,0,0,0,.12-0.47A0.25,0.25,0,0,0,204.69,124.21Z" transform="translate(-171.44 -16.13)"/><path class="cls-4" d="M201.26,122.14a0.25,0.25,0,0,0,.07.35,0.23,0.23,0,0,0,.14,0,0.25,0.25,0,0,0,.13-0.46A0.24,0.24,0,0,0,201.26,122.14Z" transform="translate(-171.44 -16.13)"/><path class="cls-4" d="M215.76,128.82a0.23,0.23,0,0,0,.17.3H216a0.27,0.27,0,0,0,.24-0.18,0.26,0.26,0,0,0-.18-0.31A0.24,0.24,0,0,0,215.76,128.82Z" transform="translate(-171.44 -16.13)"/><path class="cls-4" d="M221.59,130.18a0.25,0.25,0,0,0,.2.29h0a0.24,0.24,0,0,0,.24-0.21,0.23,0.23,0,0,0-.2-0.28A0.24,0.24,0,0,0,221.59,130.18Z" transform="translate(-171.44 -16.13)"/><path class="cls-4" d="M225.55,130.73a0.23,0.23,0,0,0,.22.27h0a0.24,0.24,0,0,0,.24-0.22A0.25,0.25,0,0,0,225.55,130.73Z" transform="translate(-171.44 -16.13)"/><path class="cls-4" d="M223.56,130.49a0.25,0.25,0,0,0,.22.28h0a0.26,0.26,0,0,0,.25-0.21,0.24,0.24,0,0,0-.22-0.28A0.25,0.25,0,0,0,223.56,130.49Z" transform="translate(-171.44 -16.13)"/><path class="cls-4" d="M217.68,129.34a0.25,0.25,0,0,0,.18.3h0.07a0.26,0.26,0,0,0,.24-0.19A0.25,0.25,0,0,0,217.68,129.34Z" transform="translate(-171.44 -16.13)"/><path class="cls-4" d="M219.63,129.8a0.25,0.25,0,0,0,.19.29h0a0.26,0.26,0,0,0,.25-0.2A0.25,0.25,0,1,0,219.63,129.8Z" transform="translate(-171.44 -16.13)"/><path class="cls-4" d="M176.19,75.33a0.25,0.25,0,0,0,.25-0.24,0.26,0.26,0,0,0-.25-0.26A0.25,0.25,0,0,0,176.19,75.33Z" transform="translate(-171.44 -16.13)"/><path class="cls-4" d="M227.54,130.89a0.24,0.24,0,0,0,.23.26h0a0.25,0.25,0,0,0,.25-0.23,0.26,0.26,0,0,0-.24-0.27A0.24,0.24,0,0,0,227.54,130.89Z" transform="translate(-171.44 -16.13)"/><path class="cls-4" d="M176.24,73.34h0a0.26,0.26,0,0,0,.26-0.24,0.25,0.25,0,0,0-.24-0.26,0.24,0.24,0,0,0-.26.23A0.25,0.25,0,0,0,176.24,73.34Z" transform="translate(-171.44 -16.13)"/><path class="cls-4" d="M176.37,71.34h0a0.26,0.26,0,0,0,.25-0.23,0.27,0.27,0,0,0-.23-0.27,0.25,0.25,0,0,0-.27.23A0.24,0.24,0,0,0,176.37,71.34Z" transform="translate(-171.44 -16.13)"/><path class="cls-4" d="M176.2,77.33a0.24,0.24,0,0,0,.24-0.25,0.25,0.25,0,0,0-.25-0.25,0.26,0.26,0,0,0-.25.26,0.26,0.26,0,0,0,.25.24h0Z" transform="translate(-171.44 -16.13)"/><path class="cls-4" d="M176.58,69.35h0a0.25,0.25,0,1,0-.25-0.28A0.24,0.24,0,0,0,176.58,69.35Z" transform="translate(-171.44 -16.13)"/><path class="cls-4" d="M176.28,79.33a0.25,0.25,0,1,0,0-.5,0.25,0.25,0,0,0-.23.26,0.25,0.25,0,0,0,.25.24h0Z" transform="translate(-171.44 -16.13)"/><path class="cls-4" d="M199.6,121a0.26,0.26,0,0,0,.06.35,0.23,0.23,0,0,0,.14,0A0.25,0.25,0,1,0,199.6,121Z" transform="translate(-171.44 -16.13)"/><path class="cls-4" d="M178.1,61.51h0.07a0.25,0.25,0,0,0,.24-0.18,0.26,0.26,0,0,0-.18-0.31,0.24,0.24,0,0,0-.3.18A0.24,0.24,0,0,0,178.1,61.51Z" transform="translate(-171.44 -16.13)"/><path class="cls-4" d="M196.41,118.62a0.25,0.25,0,0,0,0,.35,0.24,0.24,0,0,0,.16,0,0.25,0.25,0,0,0,.19-0.09,0.25,0.25,0,0,0,0-.35A0.26,0.26,0,0,0,196.41,118.62Z" transform="translate(-171.44 -16.13)"/><path class="cls-4" d="M198,119.85a0.25,0.25,0,0,0,0,.35,0.23,0.23,0,0,0,.15,0,0.23,0.23,0,0,0,.2-0.1,0.24,0.24,0,0,0-.05-0.35A0.25,0.25,0,0,0,198,119.85Z" transform="translate(-171.44 -16.13)"/><path class="cls-4" d="M176.85,67.38h0a0.26,0.26,0,0,0,.25-0.21,0.25,0.25,0,0,0-.5-0.08A0.26,0.26,0,0,0,176.85,67.38Z" transform="translate(-171.44 -16.13)"/><path class="cls-4" d="M177.61,63.45h0.06a0.25,0.25,0,0,0,.24-0.19,0.25,0.25,0,0,0-.48-0.12A0.25,0.25,0,0,0,177.61,63.45Z" transform="translate(-171.44 -16.13)"/><path class="cls-4" d="M177.2,65.41h0.05a0.25,0.25,0,0,0,.24-0.2,0.25,0.25,0,0,0-.49-0.1A0.25,0.25,0,0,0,177.2,65.41Z" transform="translate(-171.44 -16.13)"/><path class="cls-4" d="M254.78,26.45a0.26,0.26,0,0,0,.23-0.14,0.26,0.26,0,0,0-.12-0.33,0.25,0.25,0,0,0-.34.11,0.26,0.26,0,0,0,.12.34Z" transform="translate(-171.44 -16.13)"/><path class="cls-4" d="M261.74,30.39a0.23,0.23,0,0,0,.2-0.11,0.24,0.24,0,0,0-.06-0.34,0.24,0.24,0,0,0-.35.07,0.24,0.24,0,0,0,.07.34A0.23,0.23,0,0,0,261.74,30.39Z" transform="translate(-171.44 -16.13)"/><path class="cls-4" d="M263.38,31.54a0.23,0.23,0,0,0,.2-0.1,0.25,0.25,0,1,0-.35.06A0.28,0.28,0,0,0,263.38,31.54Z" transform="translate(-171.44 -16.13)"/><path class="cls-4" d="M265.18,32.64a0.25,0.25,0,0,0,0-.35,0.24,0.24,0,0,0-.35,0,0.25,0.25,0,0,0,0,.35,0.27,0.27,0,0,0,.15.05A0.25,0.25,0,0,0,265.18,32.64Z" transform="translate(-171.44 -16.13)"/><path class="cls-4" d="M256.57,27.35a0.25,0.25,0,0,0,.22-0.13,0.25,0.25,0,0,0-.1-0.34,0.25,0.25,0,0,0-.34.11,0.24,0.24,0,0,0,.11.33A0.2,0.2,0,0,0,256.57,27.35Z" transform="translate(-171.44 -16.13)"/><path class="cls-4" d="M260,29.32a0.24,0.24,0,0,0,.21-0.11,0.25,0.25,0,0,0-.08-0.35,0.24,0.24,0,0,0-.34.08,0.26,0.26,0,0,0,.08.35A0.31,0.31,0,0,0,260,29.32Z" transform="translate(-171.44 -16.13)"/><path class="cls-4" d="M258.33,28.31a0.26,0.26,0,0,0,.22-0.13,0.25,0.25,0,0,0-.1-0.34,0.25,0.25,0,1,0-.24.43A0.19,0.19,0,0,0,258.33,28.31Z" transform="translate(-171.44 -16.13)"/><path class="cls-4" d="M266.73,33.91a0.25,0.25,0,0,0,0-.35,0.25,0.25,0,1,0-.32.38,0.23,0.23,0,0,0,.16.06A0.25,0.25,0,0,0,266.73,33.91Z" transform="translate(-171.44 -16.13)"/><path class="cls-4" d="M273.74,41a0.26,0.26,0,0,0,0-.36,0.25,0.25,0,0,0-.35,0,0.24,0.24,0,0,0,0,.35,0.26,0.26,0,0,0,.19.1A0.27,0.27,0,0,0,273.74,41Z" transform="translate(-171.44 -16.13)"/><path class="cls-4" d="M277.29,45.83a0.27,0.27,0,0,0,.07-0.35,0.25,0.25,0,0,0-.35-0.07,0.25,0.25,0,0,0-.07.35,0.26,0.26,0,0,0,.21.11A0.37,0.37,0,0,0,277.29,45.83Z" transform="translate(-171.44 -16.13)"/><path class="cls-4" d="M276.16,44.18a0.25,0.25,0,1,0-.35-0.06,0.25,0.25,0,0,0,.21.1A0.23,0.23,0,0,0,276.16,44.18Z" transform="translate(-171.44 -16.13)"/><path class="cls-4" d="M271.09,38a0.26,0.26,0,0,0,0-.36,0.25,0.25,0,0,0-.36,0,0.24,0.24,0,0,0,0,.35,0.25,0.25,0,0,0,.18.08A0.28,0.28,0,0,0,271.09,38Z" transform="translate(-171.44 -16.13)"/><path class="cls-4" d="M229.53,131a0.25,0.25,0,0,0,.24.26h0A0.25,0.25,0,0,0,230,131a0.24,0.24,0,0,0-.24-0.26A0.26,0.26,0,0,0,229.53,131Z" transform="translate(-171.44 -16.13)"/><path class="cls-4" d="M269.69,36.6a0.26,0.26,0,0,0,0-.36,0.25,0.25,0,0,0-.35,0,0.24,0.24,0,0,0,.18.42A0.26,0.26,0,0,0,269.69,36.6Z" transform="translate(-171.44 -16.13)"/><path class="cls-4" d="M272.44,39.49a0.25,0.25,0,0,0,0-.35,0.24,0.24,0,0,0-.35,0,0.24,0.24,0,0,0,0,.35A0.25,0.25,0,0,0,272.44,39.49Z" transform="translate(-171.44 -16.13)"/><path class="cls-4" d="M241.45,22.13h0a0.26,0.26,0,0,0,.24-0.21,0.25,0.25,0,0,0-.2-0.29,0.25,0.25,0,0,0-.29.2A0.24,0.24,0,0,0,241.45,22.13Z" transform="translate(-171.44 -16.13)"/><path class="cls-4" d="M235.54,21.35h0a0.24,0.24,0,0,0,.24-0.23,0.25,0.25,0,0,0-.23-0.27,0.24,0.24,0,0,0-.26.23A0.24,0.24,0,0,0,235.54,21.35Z" transform="translate(-171.44 -16.13)"/><path class="cls-4" d="M239.49,21.8h0a0.25,0.25,0,0,0,.24-0.21,0.25,0.25,0,0,0-.21-0.29h0A0.25,0.25,0,0,0,239.49,21.8Z" transform="translate(-171.44 -16.13)"/><path class="cls-4" d="M237.52,21.54h0a0.24,0.24,0,0,0,.25-0.22,0.25,0.25,0,0,0-.22-0.28,0.24,0.24,0,0,0-.27.22A0.25,0.25,0,0,0,237.52,21.54Z" transform="translate(-171.44 -16.13)"/><path class="cls-4" d="M176.44,81.32a0.25,0.25,0,0,0-.05-0.5,0.24,0.24,0,0,0-.22.27,0.25,0.25,0,0,0,.25.23h0Z" transform="translate(-171.44 -16.13)"/><path class="cls-4" d="M233.55,21.23h0a0.25,0.25,0,0,0,.25-0.24,0.25,0.25,0,1,0-.5,0A0.25,0.25,0,0,0,233.55,21.23Z" transform="translate(-171.44 -16.13)"/><path class="cls-4" d="M231.56,21.18h0a0.25,0.25,0,0,0,.24-0.25,0.25,0.25,0,0,0-.24-0.25h0A0.25,0.25,0,0,0,231.56,21.18Z" transform="translate(-171.44 -16.13)"/><path class="cls-4" d="M249.14,24.16l0.08,0a0.25,0.25,0,0,0,.08-0.49,0.26,0.26,0,0,0-.32.16A0.25,0.25,0,0,0,249.14,24.16Z" transform="translate(-171.44 -16.13)"/><path class="cls-4" d="M251,24.86l0.09,0a0.25,0.25,0,0,0,.23-0.16,0.26,0.26,0,0,0-.14-0.33,0.26,0.26,0,0,0-.33.15A0.26,0.26,0,0,0,251,24.86Z" transform="translate(-171.44 -16.13)"/><path class="cls-4" d="M253,25.64a0.25,0.25,0,0,0,.23-0.16,0.23,0.23,0,0,0-.13-0.32,0.25,0.25,0,0,0-.33.13,0.26,0.26,0,0,0,.14.33Z" transform="translate(-171.44 -16.13)"/><path class="cls-4" d="M245.33,23h0.06a0.25,0.25,0,0,0,.07-0.49,0.25,0.25,0,0,0-.31.18A0.24,0.24,0,0,0,245.33,23Z" transform="translate(-171.44 -16.13)"/><path class="cls-4" d="M247.24,23.56h0.07a0.25,0.25,0,0,0,.08-0.49,0.25,0.25,0,0,0-.32.16A0.26,0.26,0,0,0,247.24,23.56Z" transform="translate(-171.44 -16.13)"/><path class="cls-4" d="M243.4,22.54h0.05a0.25,0.25,0,0,0,.24-0.19,0.25,0.25,0,0,0-.18-0.3,0.25,0.25,0,0,0-.3.19A0.25,0.25,0,0,0,243.4,22.54Z" transform="translate(-171.44 -16.13)"/><path class="cls-4" d="M275,42.57a0.24,0.24,0,0,0,0-.35,0.25,0.25,0,0,0-.35-0.05,0.26,0.26,0,0,0,0,.36,0.25,0.25,0,0,0,.2.09A0.22,0.22,0,0,0,275,42.57Z" transform="translate(-171.44 -16.13)"/><path class="cls-4" d="M193.66,36.09a0.25,0.25,0,1,0-.35,0,0.24,0.24,0,0,0,.18.07A0.27,0.27,0,0,0,193.66,36.09Z" transform="translate(-171.44 -16.13)"/><path class="cls-4" d="M198.06,32.29a0.25,0.25,0,0,0,.15,0,0.25,0.25,0,1,0-.35-0.05A0.24,0.24,0,0,0,198.06,32.29Z" transform="translate(-171.44 -16.13)"/><path class="cls-4" d="M203,28.93a0.28,0.28,0,0,0,.13,0,0.25,0.25,0,0,0,.09-0.34A0.25,0.25,0,1,0,203,28.93Z" transform="translate(-171.44 -16.13)"/><path class="cls-4" d="M196.65,33.47a0.25,0.25,0,1,0-.32-0.39h0a0.25,0.25,0,0,0,.15.44A0.3,0.3,0,0,0,196.65,33.47Z" transform="translate(-171.44 -16.13)"/><path class="cls-4" d="M199.68,31.11a0.23,0.23,0,0,0,.14,0,0.25,0.25,0,1,0-.35-0.06A0.25,0.25,0,0,0,199.68,31.11Z" transform="translate(-171.44 -16.13)"/><path class="cls-4" d="M201.33,30a0.23,0.23,0,0,0,.14,0,0.26,0.26,0,0,0,.07-0.35,0.24,0.24,0,0,0-.34-0.07h0a0.24,0.24,0,0,0-.07.34A0.25,0.25,0,0,0,201.33,30Z" transform="translate(-171.44 -16.13)"/><path class="cls-4" d="M195.13,34.75a0.23,0.23,0,0,0,0-.35,0.24,0.24,0,0,0-.35,0,0.26,0.26,0,0,0,0,.36,0.27,0.27,0,0,0,.19.08A0.25,0.25,0,0,0,195.13,34.75Z" transform="translate(-171.44 -16.13)"/><path class="cls-4" d="M186.87,43.62a0.23,0.23,0,0,0,.2-0.1,0.25,0.25,0,1,0-.4-0.29h0a0.25,0.25,0,0,0,0,.35A0.23,0.23,0,0,0,186.87,43.62Z" transform="translate(-171.44 -16.13)"/><path class="cls-4" d="M185.71,45.26a0.26,0.26,0,0,0,.21-0.11,0.25,0.25,0,0,0-.06-0.35,0.25,0.25,0,0,0-.35.07,0.24,0.24,0,0,0,.06.34A0.29,0.29,0,0,0,185.71,45.26Z" transform="translate(-171.44 -16.13)"/><path class="cls-4" d="M188.08,42a0.26,0.26,0,0,0,.2-0.1,0.25,0.25,0,1,0-.35,0A0.22,0.22,0,0,0,188.08,42Z" transform="translate(-171.44 -16.13)"/><path class="cls-4" d="M190.87,38.91a0.26,0.26,0,0,0,0-.36,0.25,0.25,0,0,0-.35,0,0.24,0.24,0,0,0,0,.35,0.23,0.23,0,0,0,.17.07A0.27,0.27,0,0,0,190.87,38.91Z" transform="translate(-171.44 -16.13)"/><path class="cls-4" d="M192.24,37.48a0.26,0.26,0,0,0,0-.36,0.25,0.25,0,0,0-.35,0,0.26,0.26,0,0,0,0,.36,0.26,0.26,0,0,0,.18.07A0.31,0.31,0,0,0,192.24,37.48Z" transform="translate(-171.44 -16.13)"/><path class="cls-4" d="M176.88,83h0a0.25,0.25,0,0,0-.28-0.21,0.24,0.24,0,0,0-.21.28,0.25,0.25,0,0,0,.25.22h0A0.25,0.25,0,0,0,176.88,83Z" transform="translate(-171.44 -16.13)"/><path class="cls-4" d="M225.58,21.47h0a0.26,0.26,0,0,0,.23-0.28A0.25,0.25,0,1,0,225.58,21.47Z" transform="translate(-171.44 -16.13)"/><path class="cls-4" d="M227.57,21.3h0a0.25,0.25,0,0,0,0-.5h0A0.25,0.25,0,0,0,227.57,21.3Z" transform="translate(-171.44 -16.13)"/><path class="cls-4" d="M229.56,21.2h0a0.25,0.25,0,0,0,0-.49,0.25,0.25,0,0,0-.25.25A0.26,0.26,0,0,0,229.56,21.2Z" transform="translate(-171.44 -16.13)"/><path class="cls-4" d="M219.66,22.39h0.05a0.25,0.25,0,0,0,.2-0.29,0.26,0.26,0,0,0-.3-0.2A0.25,0.25,0,0,0,219.66,22.39Z" transform="translate(-171.44 -16.13)"/><path class="cls-4" d="M184.62,46.93a0.25,0.25,0,0,0,.21-0.12,0.24,0.24,0,0,0-.08-0.34,0.24,0.24,0,0,0-.34.08,0.24,0.24,0,0,0,.07.34A0.23,0.23,0,0,0,184.62,46.93Z" transform="translate(-171.44 -16.13)"/><path class="cls-4" d="M223.6,21.7h0a0.25,0.25,0,0,0-.07-0.49A0.25,0.25,0,0,0,223.6,21.7Z" transform="translate(-171.44 -16.13)"/><path class="cls-4" d="M221.62,22h0.05a0.25,0.25,0,0,0-.09-0.49,0.24,0.24,0,0,0-.2.29A0.25,0.25,0,0,0,221.62,22Z" transform="translate(-171.44 -16.13)"/><path class="cls-4" d="M210.14,25.36a0.16,0.16,0,0,0,.1,0,0.24,0.24,0,0,0,.13-0.32,0.25,0.25,0,0,0-.32-0.14,0.26,0.26,0,0,0-.14.33A0.24,0.24,0,0,0,210.14,25.36Z" transform="translate(-171.44 -16.13)"/><path class="cls-4" d="M204.76,27.95a0.27,0.27,0,0,0,.12,0h0a0.24,0.24,0,0,0,.1-0.34,0.25,0.25,0,0,0-.34-0.1,0.25,0.25,0,0,0-.09.34A0.23,0.23,0,0,0,204.76,27.95Z" transform="translate(-171.44 -16.13)"/><path class="cls-4" d="M217.72,22.85h0.06a0.25,0.25,0,0,0,.18-0.3,0.26,0.26,0,0,0-.3-0.18,0.25,0.25,0,0,0-.19.3A0.25,0.25,0,0,0,217.72,22.85Z" transform="translate(-171.44 -16.13)"/><path class="cls-4" d="M208.32,26.16l0.1,0a0.25,0.25,0,1,0-.33-0.13A0.24,0.24,0,0,0,208.32,26.16Z" transform="translate(-171.44 -16.13)"/><path class="cls-4" d="M212,24.63h0.08A0.27,0.27,0,1,0,212,24.63Z" transform="translate(-171.44 -16.13)"/><path class="cls-4" d="M215.79,23.38l0.07,0a0.24,0.24,0,0,0,.17-0.3,0.24,0.24,0,0,0-.31-0.17h0a0.25,0.25,0,0,0-.17.32A0.26,0.26,0,0,0,215.79,23.38Z" transform="translate(-171.44 -16.13)"/><path class="cls-4" d="M213.88,24H214A0.26,0.26,0,1,0,213.88,24Z" transform="translate(-171.44 -16.13)"/><path class="cls-4" d="M189.55,40.39a0.25,0.25,0,1,0-.36,0,0.27,0.27,0,0,0,.16.06A0.25,0.25,0,0,0,189.55,40.39Z" transform="translate(-171.44 -16.13)"/><path class="cls-4" d="M180.08,55.84a0.24,0.24,0,0,0,.23-0.16,0.26,0.26,0,0,0-.14-0.33,0.25,0.25,0,0,0-.32.14,0.26,0.26,0,0,0,.14.33Z" transform="translate(-171.44 -16.13)"/><path class="cls-4" d="M194.89,117.32a0.26,0.26,0,0,0,0,.36,0.27,0.27,0,0,0,.17.06,0.25,0.25,0,0,0,.19-0.09,0.24,0.24,0,0,0,0-.35A0.25,0.25,0,0,0,194.89,117.32Z" transform="translate(-171.44 -16.13)"/><path class="cls-4" d="M183.58,48.64a0.25,0.25,0,0,0,.22-0.12,0.26,0.26,0,0,0-.09-0.35,0.25,0.25,0,0,0-.25.44A0.26,0.26,0,0,0,183.58,48.64Z" transform="translate(-171.44 -16.13)"/><path class="cls-4" d="M180.06,96.32a0.25,0.25,0,0,0-.13.33,0.25,0.25,0,0,0,.23.15,0.15,0.15,0,0,0,.09,0,0.24,0.24,0,0,0,.14-0.32A0.25,0.25,0,0,0,180.06,96.32Z" transform="translate(-171.44 -16.13)"/><path class="cls-4" d="M180.83,98.16a0.25,0.25,0,0,0-.12.33,0.25,0.25,0,0,0,.23.15,0.19,0.19,0,0,0,.1,0A0.25,0.25,0,0,0,180.83,98.16Z" transform="translate(-171.44 -16.13)"/><path class="cls-4" d="M180.86,54a0.28,0.28,0,0,0,.23-0.15,0.26,0.26,0,0,0-.13-0.33,0.25,0.25,0,0,0-.33.13,0.25,0.25,0,0,0,.13.33Z" transform="translate(-171.44 -16.13)"/><path class="cls-4" d="M179.36,94.45a0.25,0.25,0,0,0-.15.32,0.26,0.26,0,0,0,.23.17l0.09,0A0.25,0.25,0,0,0,179.36,94.45Z" transform="translate(-171.44 -16.13)"/><path class="cls-4" d="M177.53,86.95a0.25,0.25,0,0,0-.29-0.2,0.25,0.25,0,0,0-.2.3,0.25,0.25,0,0,0,.25.2h0A0.24,0.24,0,0,0,177.53,86.95Z" transform="translate(-171.44 -16.13)"/><path class="cls-4" d="M177.17,85a0.24,0.24,0,0,0-.29-0.2,0.25,0.25,0,0,0,0,.49h0A0.25,0.25,0,0,0,177.17,85Z" transform="translate(-171.44 -16.13)"/><path class="cls-4" d="M178.72,92.56a0.25,0.25,0,0,0-.16.31,0.24,0.24,0,0,0,.24.17h0.08a0.25,0.25,0,0,0,.16-0.31A0.25,0.25,0,0,0,178.72,92.56Z" transform="translate(-171.44 -16.13)"/><path class="cls-4" d="M177.66,88.7a0.25,0.25,0,0,0-.18.31,0.25,0.25,0,0,0,.24.19h0.06A0.25,0.25,0,0,0,177.66,88.7Z" transform="translate(-171.44 -16.13)"/><path class="cls-4" d="M178.74,59.61a0.24,0.24,0,0,0,.23-0.18,0.25,0.25,0,1,0-.47-0.15,0.26,0.26,0,0,0,.16.32h0.08Z" transform="translate(-171.44 -16.13)"/><path class="cls-4" d="M178.16,90.64a0.26,0.26,0,0,0-.18.31,0.25,0.25,0,0,0,.24.18h0.07a0.26,0.26,0,0,0,.18-0.31A0.25,0.25,0,0,0,178.16,90.64Z" transform="translate(-171.44 -16.13)"/><path class="cls-4" d="M179.37,57.7a0.25,0.25,0,0,0,.24-0.17,0.25,0.25,0,1,0-.47-0.16,0.25,0.25,0,0,0,.15.32h0.08Z" transform="translate(-171.44 -16.13)"/><path class="cls-4" d="M182.57,101.74a0.25,0.25,0,0,0-.1.34,0.24,0.24,0,0,0,.22.13,0.25,0.25,0,0,0,.12,0A0.26,0.26,0,0,0,182.57,101.74Z" transform="translate(-171.44 -16.13)"/><path class="cls-4" d="M183.54,103.49a0.25,0.25,0,0,0-.09.34,0.25,0.25,0,0,0,.22.12,0.27,0.27,0,0,0,.12,0A0.25,0.25,0,1,0,183.54,103.49Z" transform="translate(-171.44 -16.13)"/><path class="cls-4" d="M181.67,100a0.25,0.25,0,0,0-.11.33,0.24,0.24,0,0,0,.22.14,0.2,0.2,0,0,0,.11,0,0.24,0.24,0,0,0,.12-0.33A0.25,0.25,0,0,0,181.67,100Z" transform="translate(-171.44 -16.13)"/><path class="cls-4" d="M184.92,105.27a0.26,0.26,0,0,0-.35-0.07,0.25,0.25,0,0,0,.13.46,0.23,0.23,0,0,0,.14,0,0.26,0.26,0,0,0,.08-0.34h0Z" transform="translate(-171.44 -16.13)"/><path class="cls-4" d="M181.7,52.16a0.26,0.26,0,0,0,.23-0.14,0.25,0.25,0,0,0-.12-0.33,0.25,0.25,0,0,0-.33.11,0.26,0.26,0,0,0,.11.34Z" transform="translate(-171.44 -16.13)"/><path class="cls-4" d="M182.61,50.39a0.25,0.25,0,1,0-.12,0A0.27,0.27,0,0,0,182.61,50.39Z" transform="translate(-171.44 -16.13)"/><path class="cls-4" d="M189.29,111.63a0.24,0.24,0,0,0,0,.35,0.25,0.25,0,0,0,.19.09,0.23,0.23,0,0,0,.16-0.06A0.25,0.25,0,0,0,189.29,111.63Z" transform="translate(-171.44 -16.13)"/><path class="cls-4" d="M190.61,113.13a0.24,0.24,0,0,0,0,.35,0.25,0.25,0,0,0,.18.08,0.27,0.27,0,0,0,.17-0.06,0.25,0.25,0,0,0,0-.36A0.24,0.24,0,0,0,190.61,113.13Z" transform="translate(-171.44 -16.13)"/><path class="cls-4" d="M185.66,106.87a0.25,0.25,0,0,0-.06.35,0.22,0.22,0,0,0,.2.1,0.23,0.23,0,0,0,.14,0,0.25,0.25,0,0,0,.07-0.35A0.25,0.25,0,0,0,185.66,106.87Z" transform="translate(-171.44 -16.13)"/><path class="cls-4" d="M193.41,116a0.25,0.25,0,0,0,0,.35,0.28,0.28,0,0,0,.17.07,0.27,0.27,0,0,0,.19-0.08A0.25,0.25,0,1,0,193.41,116Z" transform="translate(-171.44 -16.13)"/><path class="cls-4" d="M192,114.58a0.25,0.25,0,0,0,0,.35,0.26,0.26,0,0,0,.18.07A0.25,0.25,0,1,0,192,114.58Z" transform="translate(-171.44 -16.13)"/><path class="cls-4" d="M188,110.09a0.25,0.25,0,0,0,.16.44,0.27,0.27,0,0,0,.15-0.05A0.25,0.25,0,0,0,188,110.09Z" transform="translate(-171.44 -16.13)"/><path class="cls-4" d="M186.81,108.5a0.25,0.25,0,0,0-.05.35,0.28,0.28,0,0,0,.2.1,0.27,0.27,0,0,0,.15-0.05,0.24,0.24,0,0,0,0-.35A0.25,0.25,0,0,0,186.81,108.5Z" transform="translate(-171.44 -16.13)"/><path class="cls-4" d="M206.52,27a0.2,0.2,0,0,0,.11,0,0.26,0.26,0,0,0,.11-0.34A0.25,0.25,0,1,0,206.52,27Z" transform="translate(-171.44 -16.13)"/><path class="cls-4" d="M282.62,56.48l0.09,0a0.25,0.25,0,0,0,.15-0.32,0.25,0.25,0,0,0-.33-0.14,0.24,0.24,0,0,0-.14.32A0.25,0.25,0,0,0,282.62,56.48Z" transform="translate(-171.44 -16.13)"/><path class="cls-4" d="M249.18,128a0.25,0.25,0,0,0,.24.17h0.08a0.25,0.25,0,0,0,.15-0.32A0.25,0.25,0,0,0,249.18,128Z" transform="translate(-171.44 -16.13)"/><path class="cls-4" d="M285.38,86.16a0.25,0.25,0,0,0,.24-0.2,0.25,0.25,0,0,0-.49-0.09,0.25,0.25,0,0,0,.2.29h0Z" transform="translate(-171.44 -16.13)"/><path class="cls-4" d="M251.06,127.34a0.25,0.25,0,0,0,.23.16l0.09,0A0.25,0.25,0,1,0,251.06,127.34Z" transform="translate(-171.44 -16.13)"/><path class="cls-4" d="M283.85,59.77a0.25,0.25,0,0,0,.07.49H284a0.25,0.25,0,0,0,.17-0.31A0.25,0.25,0,0,0,283.85,59.77Z" transform="translate(-171.44 -16.13)"/><path class="cls-4" d="M284.93,88.11h0a0.25,0.25,0,0,0,.05-0.49,0.24,0.24,0,0,0-.29.19A0.24,0.24,0,0,0,284.93,88.11Z" transform="translate(-171.44 -16.13)"/><path class="cls-4" d="M282.46,95.44a0.25,0.25,0,0,0,.15.32l0.09,0a0.25,0.25,0,0,0,.23-0.16,0.26,0.26,0,0,0-.14-0.33A0.27,0.27,0,0,0,282.46,95.44Z" transform="translate(-171.44 -16.13)"/><path class="cls-4" d="M241.66,129.78a0.24,0.24,0,0,0-.2.29,0.26,0.26,0,0,0,.25.2h0A0.25,0.25,0,0,0,242,130,0.24,0.24,0,0,0,241.66,129.78Z" transform="translate(-171.44 -16.13)"/><path class="cls-4" d="M284.58,89.57a0.26,0.26,0,0,0-.31.18,0.25,0.25,0,0,0,.18.3h0.06a0.26,0.26,0,0,0,.25-0.18A0.26,0.26,0,0,0,284.58,89.57Z" transform="translate(-171.44 -16.13)"/><path class="cls-4" d="M243.42,129.66a0.24,0.24,0,0,0,.24.2h0.06a0.25,0.25,0,0,0,.19-0.3,0.26,0.26,0,0,0-.3-0.19A0.25,0.25,0,0,0,243.42,129.66Z" transform="translate(-171.44 -16.13)"/><path class="cls-4" d="M239.49,130.39a0.25,0.25,0,0,0,.25.21h0a0.25,0.25,0,0,0,.21-0.28,0.25,0.25,0,0,0-.29-0.21A0.25,0.25,0,0,0,239.49,130.39Z" transform="translate(-171.44 -16.13)"/><path class="cls-4" d="M281.87,54.63a0.16,0.16,0,0,0,.1,0,0.24,0.24,0,0,0,.13-0.33,0.26,0.26,0,0,0-.33-0.13,0.27,0.27,0,0,0-.13.33A0.25,0.25,0,0,0,281.87,54.63Z" transform="translate(-171.44 -16.13)"/><path class="cls-4" d="M245.36,129.18a0.25,0.25,0,0,0,.24.18h0.07a0.24,0.24,0,0,0,.17-0.3A0.25,0.25,0,1,0,245.36,129.18Z" transform="translate(-171.44 -16.13)"/><path class="cls-4" d="M281.72,97.29a0.26,0.26,0,0,0,.13.33l0.1,0a0.25,0.25,0,0,0,.23-0.16,0.25,0.25,0,0,0-.13-0.32A0.24,0.24,0,0,0,281.72,97.29Z" transform="translate(-171.44 -16.13)"/><path class="cls-4" d="M247.28,128.64a0.25,0.25,0,0,0,.24.18h0.07a0.25,0.25,0,0,0,.17-0.32A0.25,0.25,0,0,0,247.28,128.64Z" transform="translate(-171.44 -16.13)"/><path class="cls-4" d="M252.9,126.59a0.26,0.26,0,0,0,.23.15l0.1,0a0.26,0.26,0,0,0,.13-0.33,0.24,0.24,0,0,0-.33-0.13A0.26,0.26,0,0,0,252.9,126.59Z" transform="translate(-171.44 -16.13)"/><path class="cls-4" d="M280,100.89a0.26,0.26,0,0,0,.11.34,0.25,0.25,0,0,0,.12,0,0.23,0.23,0,0,0,.22-0.13A0.25,0.25,0,1,0,280,100.89Z" transform="translate(-171.44 -16.13)"/><path class="cls-4" d="M285.9,69.53a0.25,0.25,0,0,0-.22.28,0.24,0.24,0,0,0,.24.22h0a0.26,0.26,0,0,0,.23-0.28h0A0.25,0.25,0,0,0,285.9,69.53Z" transform="translate(-171.44 -16.13)"/><path class="cls-4" d="M285.29,65.58a0.25,0.25,0,0,0-.2.29,0.25,0.25,0,0,0,.25.21h0A0.25,0.25,0,0,0,285.29,65.58Z" transform="translate(-171.44 -16.13)"/><path class="cls-4" d="M279.09,102.66h0a0.25,0.25,0,0,0,.09.34,0.27,0.27,0,0,0,.12,0,0.26,0.26,0,0,0,.22-0.13,0.24,0.24,0,0,0-.1-0.34A0.25,0.25,0,0,0,279.09,102.66Z" transform="translate(-171.44 -16.13)"/><path class="cls-4" d="M283.74,91.66a0.24,0.24,0,0,0,.17.31H284a0.25,0.25,0,0,0,.24-0.18A0.25,0.25,0,0,0,284,91.5,0.24,0.24,0,0,0,283.74,91.66Z" transform="translate(-171.44 -16.13)"/><path class="cls-4" d="M278.09,104.38a0.25,0.25,0,0,0,.09.34,0.19,0.19,0,0,0,.12,0,0.25,0.25,0,0,0,.14-0.46A0.25,0.25,0,0,0,278.09,104.38Z" transform="translate(-171.44 -16.13)"/><path class="cls-4" d="M283.14,93.56a0.25,0.25,0,0,0,.15.32h0.08a0.25,0.25,0,0,0,.08-0.48A0.23,0.23,0,0,0,283.14,93.56Z" transform="translate(-171.44 -16.13)"/><path class="cls-4" d="M284.4,61.68a0.25,0.25,0,0,0-.18.31,0.25,0.25,0,0,0,.24.18h0.06a0.24,0.24,0,0,0,.18-0.3h0A0.25,0.25,0,0,0,284.4,61.68Z" transform="translate(-171.44 -16.13)"/><path class="cls-4" d="M277,106.06a0.25,0.25,0,0,0,.07.35,0.23,0.23,0,0,0,.14,0,0.26,0.26,0,0,0,.21-0.11,0.26,0.26,0,0,0-.08-0.35A0.25,0.25,0,0,0,277,106.06Z" transform="translate(-171.44 -16.13)"/><path class="cls-4" d="M275.9,107.7a0.25,0.25,0,0,0,.06.35,0.22,0.22,0,0,0,.15,0,0.26,0.26,0,0,0,.2-0.11,0.24,0.24,0,0,0-.06-0.34A0.25,0.25,0,0,0,275.9,107.7Z" transform="translate(-171.44 -16.13)"/><path class="cls-4" d="M285.7,84.18A0.26,0.26,0,0,0,286,84a0.27,0.27,0,0,0-.22-0.29,0.25,0.25,0,0,0-.28.21,0.25,0.25,0,0,0,.21.29h0Z" transform="translate(-171.44 -16.13)"/><path class="cls-4" d="M274.72,109.31a0.25,0.25,0,0,0,0,.35,0.27,0.27,0,0,0,.15,0,0.28,0.28,0,0,0,.2-0.1A0.25,0.25,0,0,0,274.72,109.31Z" transform="translate(-171.44 -16.13)"/><path class="cls-4" d="M254.72,125.77a0.24,0.24,0,0,0,.23.14l0.1,0a0.25,0.25,0,0,0,.12-0.34,0.25,0.25,0,0,0-.33-0.11A0.24,0.24,0,0,0,254.72,125.77Z" transform="translate(-171.44 -16.13)"/><path class="cls-4" d="M256.61,124.55a0.25,0.25,0,0,0-.11.33,0.26,0.26,0,0,0,.23.14,0.2,0.2,0,0,0,.11,0A0.25,0.25,0,1,0,256.61,124.55Z" transform="translate(-171.44 -16.13)"/><path class="cls-4" d="M283.22,57.87a0.25,0.25,0,0,0,.09.49l0.08,0A0.25,0.25,0,0,0,283.22,57.87Z" transform="translate(-171.44 -16.13)"/><path class="cls-4" d="M286.27,75.51a0.25,0.25,0,0,0-.25.25,0.21,0.21,0,0,1,0,.22,0.25,0.25,0,0,0,.5,0,0.32,0.32,0,0,1,0-.22A0.25,0.25,0,0,0,286.27,75.51Z" transform="translate(-171.44 -16.13)"/><path class="cls-4" d="M269.44,115.25a0.25,0.25,0,0,0,.17.43,0.26,0.26,0,0,0,.17-0.07,0.25,0.25,0,0,0,0-.36A0.24,0.24,0,0,0,269.44,115.25Z" transform="translate(-171.44 -16.13)"/><path class="cls-4" d="M231.53,131a0.25,0.25,0,0,0,.25.25A0.26,0.26,0,0,0,232,131a0.24,0.24,0,0,0-.25-0.24A0.25,0.25,0,0,0,231.53,131Z" transform="translate(-171.44 -16.13)"/><path class="cls-4" d="M268,116.61a0.24,0.24,0,0,0,0,.35,0.22,0.22,0,0,0,.18.08,0.27,0.27,0,0,0,.17-0.06,0.25,0.25,0,0,0,0-.35A0.24,0.24,0,0,0,268,116.61Z" transform="translate(-171.44 -16.13)"/><path class="cls-4" d="M266.49,117.91a0.24,0.24,0,0,0,0,.35,0.24,0.24,0,0,0,.35,0A0.25,0.25,0,0,0,266.49,117.91Z" transform="translate(-171.44 -16.13)"/><path class="cls-4" d="M233.53,131a0.24,0.24,0,0,0,.25.24h0A0.25,0.25,0,1,0,233.53,131Z" transform="translate(-171.44 -16.13)"/><path class="cls-4" d="M270.84,113.84a0.23,0.23,0,0,0,0,.35,0.21,0.21,0,0,0,.17.07,0.27,0.27,0,0,0,.18-0.08,0.25,0.25,0,0,0,0-.35A0.24,0.24,0,0,0,270.84,113.84Z" transform="translate(-171.44 -16.13)"/><path class="cls-4" d="M278.22,47.55a0.2,0.2,0,0,0,.13,0,0.24,0.24,0,0,0,.08-0.34,0.25,0.25,0,0,0-.42.26A0.23,0.23,0,0,0,278.22,47.55Z" transform="translate(-171.44 -16.13)"/><path class="cls-4" d="M264.94,119.16a0.26,0.26,0,0,0,0,.35,0.25,0.25,0,0,0,.2.09,0.21,0.21,0,0,0,.15-0.05A0.25,0.25,0,0,0,264.94,119.16Z" transform="translate(-171.44 -16.13)"/><path class="cls-4" d="M284.88,63.63a0.25,0.25,0,0,0,0,.49H285A0.25,0.25,0,0,0,284.88,63.63Z" transform="translate(-171.44 -16.13)"/><path class="cls-4" d="M280.18,51a0.23,0.23,0,0,0,.11,0,0.26,0.26,0,0,0,.11-0.34,0.25,0.25,0,1,0-.45.23A0.27,0.27,0,0,0,280.18,51Z" transform="translate(-171.44 -16.13)"/><path class="cls-4" d="M279.23,49.27a0.27,0.27,0,0,0,.12,0,0.25,0.25,0,0,0,.1-0.34,0.25,0.25,0,0,0-.44.24A0.24,0.24,0,0,0,279.23,49.27Z" transform="translate(-171.44 -16.13)"/><path class="cls-4" d="M286.09,71.52a0.25,0.25,0,0,0,0,.5h0A0.25,0.25,0,0,0,286.09,71.52Z" transform="translate(-171.44 -16.13)"/><path class="cls-4" d="M272.19,112.37a0.25,0.25,0,0,0,0,.36,0.23,0.23,0,0,0,.16.06,0.25,0.25,0,0,0,.19-0.09A0.25,0.25,0,1,0,272.19,112.37Z" transform="translate(-171.44 -16.13)"/><path class="cls-4" d="M285.63,67.55a0.25,0.25,0,0,0,0,.5h0A0.25,0.25,0,0,0,285.63,67.55Z" transform="translate(-171.44 -16.13)"/><path class="cls-4" d="M237.51,130.66a0.26,0.26,0,0,0,.25.22h0a0.25,0.25,0,1,0-.06-0.49A0.24,0.24,0,0,0,237.51,130.66Z" transform="translate(-171.44 -16.13)"/><path class="cls-4" d="M286.22,73.51a0.25,0.25,0,0,0-.24.26,0.24,0.24,0,0,0,.24.24h0a0.25,0.25,0,0,0,.24-0.25A0.27,0.27,0,0,0,286.22,73.51Z" transform="translate(-171.44 -16.13)"/><path class="cls-4" d="M263.36,120.36a0.25,0.25,0,0,0-.06.35,0.26,0.26,0,0,0,.2.11,0.24,0.24,0,0,0,.15-0.05A0.25,0.25,0,1,0,263.36,120.36Z" transform="translate(-171.44 -16.13)"/><path class="cls-4" d="M273.48,110.86a0.25,0.25,0,0,0,0,.35,0.25,0.25,0,0,0,.32-0.38A0.25,0.25,0,0,0,273.48,110.86Z" transform="translate(-171.44 -16.13)"/><path class="cls-4" d="M258.35,123.59a0.25,0.25,0,0,0-.09.34,0.26,0.26,0,0,0,.22.13,0.27,0.27,0,0,0,.12,0,0.25,0.25,0,0,0,.09-0.34A0.26,0.26,0,0,0,258.35,123.59Z" transform="translate(-171.44 -16.13)"/><path class="cls-4" d="M286.2,82A0.26,0.26,0,0,0,286,81.7a0.24,0.24,0,0,0-.28.22,0.26,0.26,0,0,0,.22.28h0A0.27,0.27,0,0,0,286.2,82Z" transform="translate(-171.44 -16.13)"/><path class="cls-4" d="M280.91,99.11a0.24,0.24,0,0,0,.12.33,0.2,0.2,0,0,0,.11,0,0.25,0.25,0,0,0,.22-0.15,0.24,0.24,0,0,0-.12-0.33A0.25,0.25,0,0,0,280.91,99.11Z" transform="translate(-171.44 -16.13)"/><path class="cls-4" d="M281.06,52.82l0.11,0a0.26,0.26,0,0,0,.12-0.33h0a0.24,0.24,0,0,0-.33-0.12A0.25,0.25,0,0,0,281.06,52.82Z" transform="translate(-171.44 -16.13)"/><path class="cls-4" d="M260.06,122.58a0.25,0.25,0,0,0,.13.46,0.2,0.2,0,0,0,.13,0,0.24,0.24,0,0,0,.08-0.34A0.24,0.24,0,0,0,260.06,122.58Z" transform="translate(-171.44 -16.13)"/><path class="cls-4" d="M261.73,121.5a0.25,0.25,0,0,0-.07.35,0.26,0.26,0,0,0,.21.11,0.25,0.25,0,0,0,.14,0,0.27,0.27,0,0,0,.07-0.35A0.25,0.25,0,0,0,261.73,121.5Z" transform="translate(-171.44 -16.13)"/><path class="cls-4" d="M286.48,78a0.25,0.25,0,0,0-.24-0.26,0.25,0.25,0,1,0,0,.5A0.24,0.24,0,0,0,286.48,78Z" transform="translate(-171.44 -16.13)"/><path class="cls-4" d="M235.52,130.86a0.24,0.24,0,0,0,.25.22h0a0.25,0.25,0,0,0,.23-0.27,0.26,0.26,0,0,0-.27-0.23A0.26,0.26,0,0,0,235.52,130.86Z" transform="translate(-171.44 -16.13)"/><path class="cls-4" d="M286.38,80a0.26,0.26,0,0,0-.24-0.27,0.24,0.24,0,0,0-.26.23,0.25,0.25,0,0,0,.23.27h0A0.26,0.26,0,0,0,286.38,80Z" transform="translate(-171.44 -16.13)"/><path class="cls-5" d="M242.48,77.6a11.25,11.25,0,1,1-22.5,0h-1.5a12.75,12.75,0,1,0,25.5,0h-1.5Z" transform="translate(-171.44 -16.13)"/><path class="cls-5" d="M221.67,77.61a9.56,9.56,0,0,0,19.12,0h-0.25a9.31,9.31,0,0,1-18.62,0h-0.25Z" transform="translate(-171.44 -16.13)"/><circle class="cls-5" cx="59.78" cy="49.47" r="0.59"/><circle class="cls-5" cx="59.78" cy="46.37" r="0.29"/><circle class="cls-5" cx="235.15" cy="63.02" r="0.29" transform="translate(-57.98 257.74) rotate(-75.01)"/><circle class="cls-5" cx="238.81" cy="64.53" r="0.29" transform="translate(-107.98 222.89) rotate(-59.98)"/><circle class="cls-5" cx="241.95" cy="66.94" r="0.29" transform="translate(-147.97 174.45) rotate(-44.97)"/><circle class="cls-5" cx="244.36" cy="70.08" r="0.29" transform="translate(-173.73 115.52) rotate(-30.02)"/><circle class="cls-5" cx="245.87" cy="73.74" r="0.29" transform="translate(-182.16 50.24) rotate(-15.05)"/><circle class="cls-5" cx="74.95" cy="61.53" r="0.29"/><circle class="cls-5" cx="245.87" cy="81.59" r="0.29" transform="translate(-68.11 281.77) rotate(-74.97)"/><circle class="cls-5" cx="244.36" cy="85.25" r="0.29" transform="translate(-123.15 238.05) rotate(-59.98)"/><circle class="cls-5" cx="241.95" cy="88.39" r="0.29" transform="translate(-163.09 180.81) rotate(-44.99)"/><circle class="cls-5" cx="238.81" cy="90.8" r="0.29" transform="translate(-184.87 115.26) rotate(-29.96)"/><circle class="cls-5" cx="235.15" cy="92.31" r="0.29" transform="translate(-187.35 48.08) rotate(-15.05)"/><circle class="cls-5" cx="59.78" cy="76.69" r="0.29"/><circle class="cls-5" cx="227.3" cy="92.31" r="0.29" transform="translate(-92.1 271.87) rotate(-75.01)"/><circle class="cls-5" cx="223.65" cy="90.8" r="0.29" transform="matrix(0.5, -0.87, 0.87, 0.5, -138.24, 222.97)"/><circle class="cls-5" cx="220.5" cy="88.39" r="0.29" transform="translate(-169.36 165.68) rotate(-45)"/><circle class="cls-5" cx="218.1" cy="85.25" r="0.29" transform="translate(-184.85 104.35) rotate(-30)"/><circle class="cls-5" cx="216.58" cy="81.59" r="0.29" transform="translate(-185.19 42.8) rotate(-15.03)"/><circle class="cls-5" cx="44.62" cy="61.53" r="0.29"/><circle class="cls-5" cx="216.58" cy="73.74" r="0.29" transform="translate(-82.23 247.67) rotate(-74.97)"/><circle class="cls-5" cx="218.1" cy="70.08" r="0.29" transform="translate(-123.1 207.78) rotate(-60)"/><circle class="cls-5" cx="220.5" cy="66.94" r="0.29" transform="translate(-154.26 159.27) rotate(-44.97)"/><circle class="cls-5" cx="223.65" cy="64.53" r="0.29" transform="translate(-173.74 104.35) rotate(-30)"/><circle class="cls-5" cx="227.3" cy="63.02" r="0.29" transform="translate(-180.01 45) rotate(-15.04)"/><circle class="cls-5" cx="234.35" cy="66.01" r="0.59" transform="translate(-61.47 259.18) rotate(-75.01)"/><circle class="cls-5" cx="237.26" cy="67.22" r="0.59" transform="translate(-110.95 223.03) rotate(-60.03)"/><circle class="cls-5" cx="239.76" cy="69.13" r="0.59" transform="translate(-150.1 173.65) rotate(-45)"/><circle class="cls-5" cx="241.67" cy="71.63" r="0.59" transform="translate(-174.89 114.24) rotate(-29.99)"/><circle class="cls-5" cx="242.88" cy="74.54" r="0.59" transform="translate(-182.47 49.46) rotate(-15.04)"/><circle class="cls-5" cx="219.57" cy="74.54" r="0.59" transform="translate(-80.69 251.22) rotate(-75)"/><circle class="cls-5" cx="220.78" cy="71.63" r="0.59" transform="translate(-123.05 210.92) rotate(-60.01)"/><circle class="cls-5" cx="222.7" cy="69.13" r="0.59" transform="translate(-155.1 161.59) rotate(-45)"/><circle class="cls-5" cx="225.19" cy="67.22" r="0.59" transform="translate(-174.89 105.42) rotate(-29.99)"/><circle class="cls-5" cx="228.1" cy="66.01" r="0.59" transform="translate(-180.76 45.23) rotate(-15.02)"/><path class="cls-5" d="M233.25,37.58a2,2,0,0,0-1.77-2l-0.25,0-0.25,0a2,2,0,0,0,0,4l0.25,0,0.25,0A2,2,0,0,0,233.25,37.58Z" transform="translate(-171.44 -16.13)"/><circle class="cls-5" cx="64.74" cy="17.24" r="0.02"/><circle class="cls-5" cx="69.62" cy="18.1" r="0.04"/><circle class="cls-5" cx="74.38" cy="19.52" r="0.06"/><circle class="cls-5" cx="78.93" cy="21.48" r="0.09"/><circle class="cls-5" cx="83.22" cy="23.97" r="0.11"/><circle class="cls-5" cx="87.2" cy="26.93" r="0.13"/><circle class="cls-5" cx="90.8" cy="30.33" r="0.15"/><circle class="cls-5" cx="93.99" cy="34.13" r="0.2"/><circle class="cls-5" cx="96.72" cy="38.26" r="0.25"/><circle class="cls-5" cx="98.95" cy="42.69" r="0.31"/><circle class="cls-5" cx="100.65" cy="47.35" r="0.36"/><circle class="cls-5" cx="101.79" cy="52.17" r="0.42"/><circle class="cls-5" cx="102.37" cy="57.1" r="0.47"/><circle class="cls-5" cx="102.37" cy="62.06" r="0.53"/><circle class="cls-5" cx="101.8" cy="66.99" r="0.58"/><circle class="cls-5" cx="100.67" cy="71.82" r="0.63"/><circle class="cls-5" cx="98.97" cy="76.48" r="0.69"/><circle class="cls-5" cx="96.75" cy="80.91" r="0.74"/><circle class="cls-5" cx="94.02" cy="85.06" r="0.8"/><circle class="cls-5" cx="90.84" cy="88.86" r="0.85"/><circle class="cls-5" cx="87.24" cy="92.26" r="0.87"/><circle class="cls-5" cx="83.26" cy="95.23" r="0.89"/><circle class="cls-5" cx="78.98" cy="97.72" r="0.91"/><circle class="cls-5" cx="74.43" cy="99.69" r="0.93"/><circle class="cls-5" cx="69.68" cy="101.11" r="0.96"/><circle class="cls-5" cx="64.8" cy="101.98" r="0.98"/><path class="cls-5" d="M230.29,118.4a1,1,0,0,0,1,1,0.93,0.93,0,0,0,.19,0,1,1,0,0,0,0-1.92,0.93,0.93,0,0,0-.19,0A1,1,0,0,0,230.29,118.4Z" transform="translate(-171.44 -16.13)"/><circle class="cls-5" cx="54.89" cy="101.99" r="0.98"/><circle class="cls-5" cx="50" cy="101.14" r="0.96"/><circle class="cls-5" cx="45.25" cy="99.73" r="0.94"/><circle class="cls-5" cx="40.69" cy="97.77" r="0.92"/><circle class="cls-5" cx="36.4" cy="95.29" r="0.89"/><circle class="cls-5" cx="32.42" cy="92.33" r="0.87"/><circle class="cls-5" cx="28.81" cy="88.94" r="0.85"/><circle class="cls-5" cx="25.61" cy="85.15" r="0.81"/><circle class="cls-5" cx="22.88" cy="81.01" r="0.75"/><circle class="cls-5" cx="20.64" cy="76.59" r="0.7"/><circle class="cls-5" cx="18.93" cy="71.93" r="0.64"/><circle class="cls-5" cx="17.79" cy="67.11" r="0.59"/><circle class="cls-5" cx="17.2" cy="62.18" r="0.53"/><circle class="cls-5" cx="17.19" cy="57.22" r="0.47"/><circle class="cls-5" cx="17.75" cy="52.29" r="0.42"/><circle class="cls-5" cx="18.88" cy="47.46" r="0.36"/><circle class="cls-5" cx="20.57" cy="42.8" r="0.31"/><circle class="cls-5" cx="22.79" cy="38.36" r="0.25"/><circle class="cls-5" cx="25.51" cy="34.22" r="0.2"/><circle class="cls-5" cx="28.69" cy="30.41" r="0.15"/><circle class="cls-5" cx="32.29" cy="27" r="0.13"/><circle class="cls-5" cx="36.25" cy="24.03" r="0.11"/><circle class="cls-5" cx="40.54" cy="21.54" r="0.09"/><circle class="cls-5" cx="45.08" cy="19.56" r="0.06"/><circle class="cls-5" cx="49.83" cy="18.12" r="0.04"/><circle class="cls-5" cx="54.71" cy="17.25" r="0.02"/><path class="cls-5" d="M264.85,109.47l-0.35-.35a46.73,46.73,0,0,1-33,13.77H231a46.73,46.73,0,0,1-33-13.77l-0.35.35-1.41,1.41-0.35.35A49.71,49.71,0,0,0,231,125.89h0.5a49.71,49.71,0,0,0,35.14-14.65l-0.35-.35Z" transform="translate(-171.44 -16.13)"/><path class="cls-5" d="M197.6,42.23L198,42.58a46.74,46.74,0,0,1,33-13.77h0.5a46.73,46.73,0,0,1,33,13.77l1.06-1.06,0.71-.71,0.35-.35a50,50,0,0,0-70.77,0l0.35,0.35Z" transform="translate(-171.44 -16.13)"/><path class="cls-6" d="M231.23,91.8a14.14,14.14,0,1,0-14.14-14.14A14.15,14.15,0,0,0,231.23,91.8Zm0-27.27a13.14,13.14,0,1,1-13.14,13.14A13.15,13.15,0,0,1,231.23,64.53Z" transform="translate(-171.44 -16.13)"/><path class="cls-6" d="M282.77,45.87a59.5,59.5,0,1,0,8.1,30A59.73,59.73,0,0,0,282.77,45.87Zm-51.29,88.68v-8.66H231v8.67A59.11,59.11,0,1,1,231.48,134.55Z" transform="translate(-171.44 -16.13)"/><path class="cls-6" d="M266.25,40.81l-0.71.71-0.71.71a47.55,47.55,0,0,1,0,67.25l1.41,1.41A49.55,49.55,0,0,0,266.25,40.81Z" transform="translate(-171.44 -16.13)"/><path class="cls-6" d="M197.6,42.23l-1.41-1.41a49.55,49.55,0,0,0,0,70.07l1.41-1.41A47.55,47.55,0,0,1,197.6,42.23Z" transform="translate(-171.44 -16.13)"/><path class="cls-6" d="M231,119.34v3.55h0.5v-3.53a0.93,0.93,0,0,1-.19,0A1,1,0,0,1,231,119.34Z" transform="translate(-171.44 -16.13)"/><path class="cls-6" d="M231.48,35.57V28.81H231v6.77l0.25,0Z" transform="translate(-171.44 -16.13)"/><path class="cls-6" d="M267.79,75.85a0.25,0.25,0,0,0-.27-0.23,0.25,0.25,0,0,0-.23.27c0.06,0.85.09,1.71,0.09,2.56a36,36,0,0,1-9.2,24.07L253,97.37a29.73,29.73,0,0,0,5-7.57h0a0.25,0.25,0,0,0,.07-0.18,29.38,29.38,0,0,0,2.13-6.68,5.45,5.45,0,0,0,.1-10.79V59.76a0.23,0.23,0,0,0,0-.24l0,0h0l-6.47-6.32h0l-2.4-2.4a1.31,1.31,0,0,0,.24-0.72,1.34,1.34,0,1,0-1.34,1.34,1.31,1.31,0,0,0,.75-0.26l2.23,2.23-2.41,2.41H235.1a25.13,25.13,0,0,1-3.62-11.94V39.58l-0.25,0-0.25,0v4.25a25.13,25.13,0,0,1-3.62,11.94H211.43L209.69,54l2.9-2.9a1.31,1.31,0,0,0,.75.26A1.34,1.34,0,1,0,212,50a1.31,1.31,0,0,0,.24.72l-3.08,3.08L202,61a0.23,0.23,0,0,0-.06.22V72.07a5.45,5.45,0,0,0,.1,10.84,29.52,29.52,0,0,0,2.06,6.59,0.24,0.24,0,0,0,.06.21l0,0a29.63,29.63,0,0,0,5.08,7.67l-5.07,5.07a36,36,0,0,1-9.16-24c0-.86,0-1.73.09-2.58a0.25,0.25,0,0,0-.23-0.27,0.26,0.26,0,0,0-.27.23c-0.06.87-.09,1.75-0.09,2.62A36.72,36.72,0,0,0,231,115.12v2.34a1,1,0,0,1,.31-0.06,0.93,0.93,0,0,1,.19,0v-2.32a36.72,36.72,0,0,0,36.41-36.68C267.88,77.58,267.85,76.7,267.79,75.85Zm-17.48-25a0.84,0.84,0,1,1,.84-0.84A0.84,0.84,0,0,1,250.31,50.88Zm-37-1.69a0.84,0.84,0,1,1-.84.84A0.84,0.84,0,0,1,213.34,49.19ZM245.14,103l-7-7h13.13V83.31l6.35,6.35A29.29,29.29,0,0,1,245.14,103Zm-11.24-1.44a38.72,38.72,0,0,1,3.25-5.6h0.24l7.3,7.3a29,29,0,0,1-8,2.8A5.45,5.45,0,0,0,233.9,101.53ZM225.78,106a29,29,0,0,1-8.14-2.8L225,95.93h0.33a38.63,38.63,0,0,1,3.25,5.6A5.45,5.45,0,0,0,225.78,106ZM207.5,75.21a37.46,37.46,0,0,0,3.57-1.94v8.44a37.46,37.46,0,0,0-3.57-1.94A5.39,5.39,0,0,0,207.5,75.21Zm4.57-18.09,8.11,8.11-0.6.62A49.19,49.19,0,0,1,212.07,72V57.12Zm7.86,9.08a48.14,48.14,0,0,0,7.41-9.44h7.75a48.15,48.15,0,0,0,7.41,9.44,49.54,49.54,0,0,0,7.72,6.34v9.89a49.53,49.53,0,0,0-7.72,6.34,50.73,50.73,0,0,0-5.26,6.15H225.2a50.78,50.78,0,0,0-5.26-6.15,49.43,49.43,0,0,0-7.86-6.43V72.63A49.42,49.42,0,0,0,219.94,66.2Zm34.72,13.7a37.86,37.86,0,0,0-3.42,1.89V73.18a37.88,37.88,0,0,0,3.46,1.91A5.39,5.39,0,0,0,254.66,79.9Zm-23.44,20.92a5.42,5.42,0,0,0-2.24.48,38.86,38.86,0,0,0-3.09-5.38h10.65a38.86,38.86,0,0,0-3.09,5.38A5.42,5.42,0,0,0,231.23,100.82Zm1.82,1.4a25.76,25.76,0,0,0-1.82,6,25.76,25.76,0,0,0-1.82-6A4.36,4.36,0,0,1,233,102.22Zm17.19-7.65-6.39-6.39A48.6,48.6,0,0,1,250.24,83V94.57Zm-6.75-6,6.4,6.4h-12a50.47,50.47,0,0,1,5-5.8Zm6.75-16.59a49.33,49.33,0,0,1-7.37-6.1l-0.68-.71,0.05,0,8-8V71.94Zm-38.16,11a48.42,48.42,0,0,1,6.46,5.17l-6.46,6.46V82.94Zm6.82,5.52,0.69,0.67a50.51,50.51,0,0,1,5,5.8H212.43Zm10.07,14a22.74,22.74,0,0,1,2,8.24A4.43,4.43,0,0,1,229,102.46Zm4.53,0a4.43,4.43,0,0,1-2,8.24A22.74,22.74,0,0,1,233.49,102.46Zm24.33-13.28-6.58-6.58V82.37a37.45,37.45,0,0,1,3.67-2A5.45,5.45,0,0,0,259.57,83h0.19A29,29,0,0,1,257.82,89.18Zm-2.7-11.65a4.4,4.4,0,0,1,.5-2,26.15,26.15,0,0,0,6.33,2,26.15,26.15,0,0,0-6.37,2A4.4,4.4,0,0,1,255.11,77.53ZM259.57,82a4.45,4.45,0,0,1-3.75-2.07A23.54,23.54,0,0,1,264,77.77,4.45,4.45,0,0,1,259.57,82ZM264,77.2a23.5,23.5,0,0,1-8.13-2.13A4.44,4.44,0,0,1,264,77.2ZM253.65,53.7l0.5,0.5,0,0,5.69,5.56V72.09l-0.31,0a5.45,5.45,0,0,0-4.62,2.57,37.33,37.33,0,0,1-3.71-2.05V56.12Zm-3.77,3.06-8,8a0.3,0.3,0,0,0,0,0,47.09,47.09,0,0,1-6.18-8h14.2Zm-18.66-10a28.58,28.58,0,0,0,3.3,9h-6.61A28.56,28.56,0,0,0,231.23,46.76Zm-4.46,10a47.1,47.1,0,0,1-6.24,8.1l-8.1-8.1h14.34Zm-17.44-2.39,1.74,1.74V72.68a37.1,37.1,0,0,1-3.8,2.08A5.45,5.45,0,0,0,202.55,72H202.4V61.3ZM207,77.49a4.4,4.4,0,0,1-.42,1.86,25.88,25.88,0,0,0-6.09-1.86,25.88,25.88,0,0,0,6.09-1.86A4.41,4.41,0,0,1,207,77.49ZM202.55,73a4.44,4.44,0,0,1,3.79,2.15,22.94,22.94,0,0,1-8.22,2A4.45,4.45,0,0,1,202.55,73Zm-4.43,4.73a22.93,22.93,0,0,1,8.22,2A4.43,4.43,0,0,1,198.12,77.76Zm4.39,5.18h0a5.45,5.45,0,0,0,4.72-2.73,37.08,37.08,0,0,1,3.8,2.08V82.4l-6.67,6.67A29,29,0,0,1,202.51,82.94Zm2.12,6.61,6.44-6.44V95.93h13.18L217.19,103A29.2,29.2,0,0,1,204.63,89.55Zm-0.13,13.3,5.08-5.08a29.58,29.58,0,0,0,16.19,8.8,5.45,5.45,0,0,0,5.19,5.16v2.9A36.09,36.09,0,0,1,204.51,102.85Zm27,11.78v-2.9a5.45,5.45,0,0,0,5.19-5.19,29.6,29.6,0,0,0,16-8.79l5.15,5.15A36.09,36.09,0,0,1,231.48,114.62Z" transform="translate(-171.44 -16.13)"/></svg>