<svg preserveAspectRatio="none" id="BACKGROUND_2" data-name="BACKGROUND 2" xmlns="http://www.w3.org/2000/svg" viewBox="0 0 306.78 304.98"><defs><style>.cls-2{fill:none;stroke:#11cfe7;stroke-miterlimit:10}.cls-5{fill:#11cfe7}</style></defs><g opacity=".91"><circle class="cls-2" cx="744.9" cy="372.82" r="97.22" transform="rotate(-16.66 -299.843 2278.208)"/><path class="cls-2" d="M769.86 483.75l15.14-4.52.33-11.65a102.49 102.49 0 0015-7.88L810 466l12.27-9.91-4.11-10.88a103.14 103.14 0 0011.29-13.65l11.48 2 7.49-13.88-8-8.47a103.18 103.18 0 005-16.14l11.38-2.46 1.73-15.61-10.61-4.8a102.48 102.48 0 00-1.64-17.64l9.55-6.67-4.52-15.11-11.65-.33a102.46 102.46 0 00-7.88-15l6.31-9.79-9.91-12.27-10.88 4.11a103.15 103.15 0 00-13.65-11.29l2-11.48-13.88-7.49-8.48 8a103.15 103.15 0 00-16.14-5l-2.46-11.38L749 259.2l-4.8 10.61a102.47 102.47 0 00-17.64 1.64l-6.67-9.55-15.11 4.52-.33 11.65a102.49 102.49 0 00-15 7.88l-9.79-6.31-12.27 9.91 4.11 10.88a103.16 103.16 0 00-11.29 13.65l-11.48-2-7.49 13.88 8 8.48a103.14 103.14 0 00-5 16.14l-11.3 2.42-1.67 15.69 10.61 4.8a102.5 102.5 0 001.64 17.64l-9.52 6.65 4.52 15.11 11.65.33a102.48 102.48 0 007.88 15l-6.34 9.78 9.91 12.27 10.88-4.11a103.14 103.14 0 0013.65 11.29l-2 11.48L698 476.4l8.48-8a103.14 103.14 0 0016.14 5l2.46 11.38 15.69 1.67 4.8-10.61a102.51 102.51 0 0017.64-1.64z" transform="translate(-590.12 -219.5)"/><circle cx="744.9" cy="372.82" r="64.56" transform="rotate(-16.66 -299.843 2278.208)" stroke-width="7" fill="none" stroke="#11cfe7" stroke-miterlimit="10"/><circle cx="744.9" cy="372.82" r="32.46" transform="matrix(.96 -.29 .29 .96 -665.73 9.67)" opacity=".18" fill="#11cfe7"/><path class="cls-5" d="M621.65 409.71c-.26-.88-.51-1.75-.76-2.62l8.45-2.34q.64 2.32 1.38 4.63l-8.34 2.62q-.38-1.12-.73-2.29zm2 6l8.27-2.92c.53 1.5 1.1 3 1.7 4.52l-8.15 3.24c-.67-1.55-1.28-3.21-1.85-4.82zm-3.7-12.41c-.41-1.68-.79-3.38-1.13-5.06l8.59-1.74c.32 1.56.67 3.15 1.06 4.72zm-1.85-8.88c-.29-1.69-.55-3.42-.77-5.13l8.7-1.13c.21 1.59.45 3.2.72 4.78zm70.24 93.92l3.86-7.87c1.44.71 2.91 1.39 4.38 2l-3.54 8c-1.6-.62-3.18-1.35-4.73-2.11zm8.28 3.7l3.3-8.12c1.48.6 3 1.18 4.52 1.73l-3 8.25c-1.63-.57-3.26-1.19-4.85-1.84zm8.53 3.12l2.72-8.34c1.54.5 3.09 1 4.63 1.41l-2.38 8.44c-1.68-.44-3.35-.95-5-1.49zm8.73 2.51l2.12-8.51c1.56.39 3.15.75 4.72 1.08l-1.78 8.59a96.11 96.11 0 01-5.09-1.14zm8.89 1.89l1.51-8.64c1.59.28 3.2.53 4.79.74l-1.17 8.69c-1.73-.21-3.46-.47-5.15-.77zm9 1.26l.9-8.72c1.6.17 3.23.3 4.83.4l-.55 8.75c-1.74-.1-3.48-.25-5.2-.42zm9.08.61l.27-8.76c1.61 0 3.23.07 4.83.05l.05 8.78c-1.7.02-3.44 0-5.17-.06zm-46-247.16c1.59-.67 3.21-1.31 4.82-1.91l3.07 8.21c-1.5.56-3 1.16-4.49 1.78zm8.48-3.22c1.54-.53 3.12-1 4.67-1.49l.26-.08 2.51 8.4-.26.08c-1.45.43-2.92.9-4.36 1.39zm10.92 5.85l-2.25-8.47c1.68-.44 3.37-.86 5-1.23l1.9 8.56c-1.48.35-3.06.74-4.62 1.15zm8.25-1.88l-1.65-8.61c1.7-.33 3.42-.62 5.11-.87l1.3 8.67c-1.55.25-3.15.52-4.73.79zm8.35-1.29l-1-8.71c1.71-.2 3.44-.37 5.16-.51l.68 8.74c-1.6.14-3.22.3-4.81.49zm8.42-.7l-.42-8.76c1.73-.08 3.48-.13 5.19-.14l.06 8.77c-1.56.02-3.18.1-4.79.1zm8.45-.1l.21-8.77c1.72 0 3.46.12 5.19.23l-.56 8.75c-1.56-.14-3.2-.14-4.8-.2zm8.46.5l.83-8.73c1.71.16 3.45.36 5.16.6L761 254c-1.57-.22-3.18-.41-4.78-.56zm102.2 158c.52-1.52 1-3.07 1.47-4.61l8.41 2.49c-.49 1.65-1 3.32-1.58 4.95zm2.45-8.1c.41-1.56.79-3.14 1.14-4.7l8.56 1.89c-.37 1.68-.78 3.38-1.22 5zm1.87-8.26c.3-1.57.57-3.18.8-4.77l8.67 1.28c-.25 1.71-.54 3.44-.86 5.12zm1.28-8.37c.19-1.59.34-3.21.46-4.82l8.74.66c-.13 1.72-.3 3.47-.5 5.18zm.68-8.45c.07-1.6.11-3.23.12-4.84h8.77c0 1.73-.05 3.48-.13 5.2zM626.94 424.18l8-3.49c.64 1.47 1.31 2.95 2 4.39l-7.9 3.81c-.69-1.55-1.42-3.14-2.1-4.71zM630.84 432.37l7.78-4c.74 1.42 1.52 2.84 2.32 4.24l-7.61 4.36c-.86-1.55-1.7-3.08-2.49-4.6zM635.31 440.26l7.47-4.59c.84 1.37 1.72 2.74 2.61 4.06l-7.28 4.89c-.95-1.41-1.89-2.88-2.8-4.36zM640.34 447.83l7.12-5.12c.95 1.32 1.92 2.62 2.9 3.87l-6.92 5.42c-1.04-1.36-2.09-2.76-3.1-4.17zM645.87 455l6.75-5.6c1 1.21 2.07 2.44 3.15 3.64l-6.51 5.87c-1.16-1.3-2.26-2.61-3.39-3.91zM651.9 461.75l6.33-6.07c1.11 1.16 2.26 2.31 3.41 3.42l-6.08 6.31c-1.24-1.18-2.47-2.41-3.66-3.66zM658.39 468.06l5.9-6.49c1.17 1.06 2.39 2.12 3.63 3.16l-5.62 6.73c-1.3-1.11-2.65-2.26-3.91-3.4zM665.32 473.91l5.41-6.9c1.26 1 2.56 2 3.86 2.91l-5.14 7.1c-1.39-1.02-2.78-2.02-4.13-3.11zM672.63 479.26l4.92-7.26c1.33.9 2.7 1.79 4.05 2.63l-4.6 7.45c-1.48-.9-2.94-1.85-4.37-2.82zM680.31 484.08l4.4-7.58c1.4.81 2.82 1.6 4.22 2.34l-4.09 7.76c-1.5-.8-3.03-1.6-4.53-2.52zM634.37 307c.88-1.48 1.8-3 2.74-4.4l7.35 4.78c-.87 1.34-1.73 2.72-2.56 4.1zM639.28 299.36c1-1.4 2-2.81 3-4.19l7 5.28c-1 1.29-1.93 2.6-2.83 3.91zM644.71 292.1c1.08-1.35 2.2-2.69 3.33-4l6.6 5.77c-1 1.2-2.09 2.44-3.1 3.7zM650.63 285.25c1.16-1.25 2.37-2.5 3.59-3.72l6.19 6.21c-1.14 1.14-2.27 2.31-3.35 3.47zM657 278.83c1.26-1.18 2.55-2.34 3.85-3.46l5.73 6.64c-1.21 1-2.41 2.13-3.58 3.22zM663.84 272.88c1.34-1.09 2.72-2.16 4.09-3.19l5.25 7c-1.28 1-2.56 2-3.81 3zM671.08 267.41c1.41-1 2.86-2 4.31-2.89l4.73 7.38c-1.35.87-2.7 1.77-4 2.69zM749.91 501.41l-.35-8.76c1.62-.07 3.25-.16 4.82-.29l.7 8.74c-1.69.13-3.43.24-5.17.31zM678.7 262.47c1.47-.88 3-1.75 4.5-2.57l4.2 7.7c-1.41.77-2.82 1.58-4.19 2.4zM759 500.72l-1-8.72c1.6-.18 3.21-.39 4.79-.63l1.31 8.63c-1.7.31-3.42.53-5.1.72zM686.64 258.09c1.52-.77 3.09-1.53 4.67-2.25l3.64 8c-1.47.67-2.93 1.38-4.35 2.1zM767.93 499.41l-1.58-8.62c1.57-.29 3.16-.61 4.73-1l1.93 8.55c-1.68.41-3.39.76-5.08 1.07zM776.79 497.46l-2.18-8.46c1.56-.4 3.12-.84 4.66-1.3l.66-.2 2.56 8.39-.7.21c-1.65.47-3.33.9-5 1.36zM783.38 486.36c1.53-.52 3.06-1.07 4.55-1.64l3.14 8.19c-1.6.61-3.24 1.2-4.88 1.76zM791.29 483.38c1.48-.62 3-1.27 4.42-2l3.7 7.95c-1.56.73-3.16 1.43-4.74 2.1zM799 479.85c1.43-.72 2.87-1.48 4.27-2.26l4.26 7.66c-1.51.84-3.05 1.65-4.59 2.43zM806.38 475.78c1.38-.82 2.76-1.68 4.1-2.56l4.79 7.34c-1.44.94-2.92 1.86-4.4 2.75zM813.48 471.2c1.31-.91 2.63-1.87 3.91-2.84l5.3 7c-1.37 1-2.79 2.07-4.2 3.05zM820.24 466.12c1.24-1 2.48-2 3.68-3.1l5.78 6.59c-1.3 1.14-2.63 2.26-4 3.33zM830.93 289.28l6.28-6.12c1.2 1.24 2.39 2.51 3.53 3.78l-6.53 5.85c-1.06-1.18-2.21-2.36-3.28-3.51zM836.59 295.53l6.7-5.66c1.1 1.31 2.2 2.66 3.26 4l-6.92 5.38c-.99-1.25-2.01-2.51-3.04-3.72zM841.8 302.16l7.08-5.17c1 1.4 2 2.83 3 4.25l-7.29 4.87c-.91-1.31-1.84-2.64-2.79-3.95zM846.53 309.17l7.43-4.65c.91 1.45 1.8 3 2.66 4.45l-7.62 4.34c-.78-1.4-1.62-2.79-2.47-4.14zM864.78 369.76c0-1.6-.12-3.22-.22-4.82l8.75-.58c.11 1.72.2 3.46.24 5.18zM850.76 316.49l7.75-4.11c.81 1.52 1.59 3.08 2.34 4.63l-7.9 3.8c-.71-1.46-1.44-2.91-2.19-4.32zM864.26 361.32c-.16-1.59-.35-3.21-.57-4.8l8.69-1.2c.24 1.71.44 3.44.61 5.15zM854.46 324.09l8-3.55c.69 1.57 1.37 3.18 2 4.78l-8.15 3.23c-.58-1.55-1.21-3-1.85-4.46zM863.14 352.94c-.27-1.57-.57-3.17-.9-4.75l8.58-1.81c.36 1.69.68 3.41 1 5.09zM857.61 331.94l8.25-3c.59 1.62 1.15 3.27 1.67 4.91l-8.36 2.65c-.49-1.5-1.02-3.05-1.56-4.56zM861.44 344.66c-.38-1.56-.79-3.13-1.23-4.67l8.43-2.4c.47 1.66.92 3.34 1.32 5zM616.85 385.45c-.17-1.7-.31-3.44-.41-5.17l8.75-.52c.09 1.61.22 3.23.38 4.82zM616.27 376.39c0-1.72-.06-3.46 0-5.19l8.77.11v4.83zM616.34 367.3c.07-1.73.18-3.48.33-5.19l8.74.73c-.13 1.6-.24 3.22-.31 4.83zM617.05 358.23c.2-1.72.43-3.45.7-5.15l8.66 1.35c-.25 1.59-.46 3.2-.65 4.8zM618.41 349.24c.32-1.69.67-3.4 1.06-5.08l8.55 2c-.36 1.57-.69 3.16-1 4.74zM620.39 340.37c.43-1.66.91-3.34 1.42-5l8.39 2.56c-.47 1.54-.91 3.11-1.32 4.66zM623 331.67c.55-1.63 1.14-3.27 1.76-4.88l8.19 3.14c-.58 1.5-1.13 3-1.64 4.55zM626.21 323.18c.66-1.58 1.37-3.17 2.1-4.74l7.95 3.7c-.68 1.46-1.34 3-2 4.42zM630 314.94c.77-1.53 1.58-3.07 2.42-4.58l7.67 4.25c-.78 1.41-1.54 2.85-2.26 4.27zM764.62 254.54l1.45-8.65c1.7.28 3.42.61 5.11 1l-1.8 8.58c-1.58-.37-3.18-.67-4.76-.93zM826.61 460.59c1.17-1.09 2.33-2.22 3.46-3.36l6.23 6.17c-1.21 1.22-2.46 2.44-3.71 3.6zM772.92 256.23l2.06-8.52c1.67.4 3.36.85 5 1.32l-2.4 8.43c-1.58-.46-3.11-.85-4.66-1.23zM832.57 454.62c1.09-1.17 2.17-2.38 3.22-3.6l6.65 5.71c-1.12 1.3-2.28 2.6-3.45 3.86zM781.07 258.51l2.65-8.36c1.64.52 3.29 1.08 4.91 1.67l-3 8.24c-1.49-.55-3.03-1.06-4.56-1.55zM838.1 448.25c1-1.25 2-2.53 3-3.81l7 5.23c-1 1.38-2.09 2.75-3.17 4.09zM789 261.35l3.23-8.15c1.59.63 3.2 1.31 4.78 2l-3.56 8c-1.45-.63-2.92-1.26-4.45-1.85zM843.18 441.5c.92-1.32 1.83-2.67 2.69-4l7.39 4.73c-.92 1.44-1.89 2.89-2.88 4.31zM796.79 264.74l3.8-7.9c1.55.74 3.1 1.53 4.63 2.34l-4.11 7.75c-1.42-.76-2.88-1.49-4.32-2.19zM847.77 434.4c.82-1.38 1.63-2.79 2.4-4.19l7.7 4.2c-.82 1.51-1.69 3-2.57 4.5zM804.28 268.67l4.34-7.62c1.5.85 3 1.75 4.45 2.66l-4.64 7.44c-1.36-.85-2.75-1.68-4.15-2.48zM851.86 427c.72-1.42 1.43-2.88 2.1-4.35l8 3.65c-.72 1.58-1.48 3.15-2.25 4.67zM811.47 273.11l4.87-7.29c1.44 1 2.87 2 4.25 3l-5.15 7.09c-1.29-.98-2.62-1.91-3.97-2.8zM855.41 419.32c.62-1.48 1.23-3 1.79-4.49l8.21 3.08c-.6 1.61-1.25 3.23-1.92 4.82zM818.34 278l5.36-6.94c1.36 1.05 2.72 2.15 4 3.25l-5.64 6.71c-1.19-1.02-2.46-2.02-3.72-3.02zM824.83 283.44l5.84-6.54c1.28 1.14 2.56 2.33 3.79 3.53l-6.1 6.3c-1.15-1.12-2.36-2.23-3.53-3.29z" transform="translate(-590.12 -219.5)"/><g opacity=".45"><circle cx="744.8" cy="371.92" r="151.07" transform="rotate(-61.66 265.817 756.548)" stroke-width="2" fill="none" stroke="#11cfe7" stroke-miterlimit="10"/><path class="cls-5" d="M614.17 411a136 136 0 0110.57-103.85c35.71-66.2 118.63-91 184.83-55.3a136.42 136.42 0 0155.3 184.83c-35.71 66.21-118.62 91-184.83 55.3A136 136 0 01614.17 411zm14.88-101.52c-34.42 63.83-10.51 143.75 53.31 178.18s143.76 10.51 178.18-53.31a131.52 131.52 0 00-53.31-178.18c-63.82-34.42-143.76-10.51-178.18 53.31z" transform="translate(-590.12 -219.5)"/><path class="cls-5" d="M814 245.19h.07q1.35.73 2.68 1.48l-5.93 10.44q-1.21-.69-2.45-1.35zm-15.87-7.36L793.7 249q-1.34-.53-2.69-1l4.14-11.27q1.47.52 2.94 1.1zm33.29 18.4q1.27.94 2.51 1.9l-7.34 9.5q-1.13-.88-2.29-1.73zm-53-24.55l-2.75 11.69q-1.4-.33-2.81-.63l2.46-11.74q1.54.31 3.07.67zm68.68 38q1.12 1.11 2.21 2.24l-8.62 8.35-2-2zM758 228.41l-1 12q-1.43-.12-2.86-.22l.79-12q1.51.08 3.07.22zm102.68 56.76q1 1.26 1.87 2.53l-9.73 7q-.84-1.17-1.71-2.32zm-123.29-57.08l.67 12q-1.44.08-2.87.19l-.93-12q1.57-.1 3.13-.19zm134.55 74.4q.76 1.37 1.49 2.76l-10.63 5.58q-.67-1.28-1.37-2.54zm-155-71.78l2.36 11.77q-1.41.28-2.81.6l-2.62-11.71q1.52-.37 3.06-.67zM697 236.19l4 11.31q-1.36.48-2.7 1l-4.25-11.23q1.51-.56 2.95-1.08zm189.94 166.25q-.32 1.54-.68 3.06l-11.69-2.74q.33-1.4.63-2.81zm-5.71 19.84q-.54 1.47-1.11 2.93l-11.18-4.38q.53-1.34 1-2.7zm-8.47 18.81l-.12.21c-.43.8-.91 1.67-1.4 2.53l-10.45-5.91q.67-1.18 1.32-2.39zm-20.69 10.3l9.66 7.12q-.93 1.26-1.89 2.51l-9.51-7.32q.88-1.15 1.74-2.31zm-12.28 14.39l8.54 8.43q-1.1 1.12-2.23 2.21l-8.36-8.61q1.03-1 2.05-2.03zm-14.23 12.49l7.25 9.57q-1.26 1-2.53 1.88l-7-9.73q1.13-.85 2.28-1.73zm-212.67-98.19q.08 1.43.2 2.86l-12 1q-.12-1.56-.21-3.13zm196.8 108.5l5.81 10.51q-1.38.76-2.77 1.49L807.15 490l2.54-1.41zm-194.37-89.74q.28 1.41.6 2.81l-11.71 2.65q-.35-1.53-.66-3.08zm177.19 97.71l4.26 11.22q-1.47.56-3 1.08l-4-11.31q1.4-.48 2.74-.99zm-172.13-79.48q.48 1.36 1 2.7l-11.22 4.28q-.56-1.47-1.09-3zm7.6 17.34q.67 1.28 1.37 2.54l-10.5 5.82q-.76-1.37-1.49-2.77zm10 16.08q.85 1.17 1.72 2.32l-9.56 7.26q-1-1.25-1.88-2.53zM650.15 465l2 2-8.43 8.55q-1.12-1.1-2.21-2.23zm14.13 12.59q1.14.88 2.3 1.73l-7.12 9.68q-1.27-.93-2.51-1.89zM680.05 488l2.32 1.28.22.12-5.7 10.6-.22-.12q-1.27-.68-2.52-1.39z" transform="translate(-590.12 -219.5)"/><path class="cls-5" d="M801.7 230.46L793.14 251a129.82 129.82 0 00-36.88-9.36l2.25-22.13a152 152 0 0143.19 10.95zm87.7 97.2a153.2 153.2 0 016.48 44.08h-22.24a131 131 0 00-5.54-37.68zm-254.32-64.35l15.71 15.75A130.78 130.78 0 00628 309.6l-.16.29-19.57-10.56.16-.29a152.94 152.94 0 0126.65-35.73zm-12.78 58.37a129.74 129.74 0 00-9.29 36.9l-22.13-2.21a152 152 0 0110.88-43.22zm-9.93 49.94a131 131 0 005.59 37.67l-21.29 6.42a153.23 153.23 0 01-6.53-44.07zm168.25 125.06L787 518a153.21 153.21 0 01-44.07 6.5v-22.26a131 131 0 0037.69-5.56zm-50.72 4.92l-2.22 22.13a152 152 0 01-43.21-10.91l8.53-20.54a129.78 129.78 0 0036.9 9.32z" transform="translate(-590.12 -219.5)"/></g><path class="cls-5" d="M667.94 396.2c-.16-.55-.32-1.09-.47-1.63l5.26-1.45q.4 1.44.86 2.88l-5.2 1.66q-.23-.73-.45-1.46zm1.22 3.75l5.14-1.81c.33.93.68 1.88 1.06 2.81l-5.07 2c-.39-.95-.78-1.95-1.13-2.95zm-2.3-7.72c-.26-1-.49-2.1-.71-3.15l5.35-1.08c.2 1 .42 2 .66 2.93zm-1.15-5.53c-.18-1.05-.34-2.13-.48-3.19l5.41-.71c.13 1 .28 2 .45 3zm43.7 58.43l2.4-4.9c.9.44 1.81.87 2.73 1.27l-2.2 5c-.98-.43-1.97-.89-2.93-1.36zm5.15 2.31l2.05-5.05c.92.37 1.87.74 2.81 1.08l-1.85 5.13c-1-.37-2.02-.76-3.01-1.16zm5.31 1.94l1.69-5.19c1 .31 1.92.61 2.88.87l-1.44 5.26c-1.07-.32-2.11-.6-3.13-.94zm5.43 1.56l1.32-5.29c1 .24 2 .47 2.94.67l-1.11 5.34c-1.05-.21-2.1-.46-3.15-.72zm5.53 1.18l.94-5.37c1 .17 2 .33 3 .46l-.77 5.4c-1-.14-2.11-.31-3.17-.49zm5.6.78l.56-5.43c1 .1 2 .19 3 .25l-.34 5.44c-1.06-.06-2.14-.16-3.21-.26zm5.65.38l.17-5.45h3v5.45c-1 .04-2.09.03-3.16 0zM713.5 299.5c1-.42 2-.82 3-1.19l1.91 5.11c-.93.35-1.87.72-2.79 1.11zm5.28-2c1-.33 1.94-.64 2.91-.93h.16l1.56 5.23h-.16c-.9.27-1.81.56-2.71.87zm6.8 3.64l-1.4-5.27c1-.28 2.1-.53 3.13-.76l1.18 5.33c-.97.2-1.95.44-2.92.7zm5.12-1.14l-1-5.36c1.06-.2 2.13-.38 3.18-.54l.81 5.39c-1.01.12-2.01.29-2.99.51zm5.2-.81l-.65-5.42c1.06-.13 2.14-.23 3.21-.32l.42 5.44c-.99.06-1.99.11-2.98.28zm5.24-.44l-.26-5.45c1.08-.05 2.16-.08 3.23-.09v5.45c-.96-.01-1.97.02-2.97.07zm5.26-.06l.13-5.45c1.07 0 2.15.07 3.23.14l-.35 5.44c-1.01-.09-2.02-.13-3.01-.15zm5.26.31l.52-5.43c1.07.1 2.15.23 3.21.37l-.74 5.41c-.99-.16-2-.28-2.99-.35zm63.59 98.28c.32-.94.63-1.91.91-2.87l5.23 1.55c-.3 1-.63 2.06-1 3.08zm1.52-5c.26-1 .49-2 .71-2.93l5.33 1.18c-.23 1-.49 2.1-.76 3.14zm1.16-5.14c.19-1 .35-2 .5-3l5.4.8c-.16 1.07-.34 2.14-.54 3.19zm.8-5.21c.12-1 .21-2 .29-3l5.44.41c-.08 1.07-.19 2.16-.31 3.22zm.42-5.26c0-1 .07-2 .07-3h5.45c0 1.08 0 2.17-.08 3.24zM671.22 405.21l5-2.17c.4.91.82 1.83 1.25 2.73l-4.91 2.37c-.46-.97-.91-1.95-1.34-2.93zM673.65 410.3l4.84-2.52c.46.88.94 1.77 1.44 2.64l-4.73 2.71c-.53-.93-1.05-1.88-1.55-2.83zM676.44 415.21l4.65-2.86c.52.85 1.07 1.7 1.62 2.53l-4.53 3c-.59-.88-1.18-1.75-1.74-2.67zM679.56 419.92l4.43-3.18c.59.82 1.2 1.63 1.8 2.41l-4.3 3.36a145.5 145.5 0 01-1.93-2.59zM683 424.38l4.2-3.48c.63.76 1.29 1.52 2 2.27l-4.05 3.65a66 66 0 01-2.15-2.44zM686.76 428.58l3.94-3.77c.69.72 1.4 1.44 2.12 2.12l-3.82 3.93c-.74-.74-1.5-1.5-2.24-2.28zM690.79 432.51l3.67-4c.72.66 1.49 1.32 2.26 2l-3.5 4.19c-.83-.77-1.64-1.48-2.43-2.19zM695.1 436.15l3.37-4.29c.79.62 1.59 1.23 2.4 1.81l-3.2 4.42c-.86-.62-1.72-1.28-2.57-1.94zM699.66 439.48l3.06-4.51c.83.56 1.68 1.11 2.52 1.64l-2.88 4.63c-.91-.57-1.82-1.16-2.7-1.76zM704.43 442.48l2.74-4.72c.87.5 1.75 1 2.63 1.46l-2.55 4.78c-.93-.45-1.88-1-2.82-1.52zM675.85 332.3c.55-.92 1.12-1.84 1.7-2.74l4.57 3c-.54.83-1.08 1.69-1.59 2.55zM678.91 327.55c.61-.87 1.24-1.75 1.89-2.61l4.35 3.29c-.6.8-1.2 1.62-1.76 2.43zM682.28 323c.67-.84 1.37-1.67 2.07-2.47l4.11 3.59c-.65.74-1.3 1.52-1.93 2.3zM686 318.77c.72-.78 1.47-1.56 2.23-2.32l3.85 3.86c-.71.71-1.41 1.44-2.09 2.16zM689.94 314.78c.78-.73 1.59-1.46 2.39-2.15l3.56 4.13c-.75.65-1.5 1.32-2.23 2zM694.18 311.07c.83-.68 1.69-1.34 2.55-2l3.26 4.37c-.8.59-1.59 1.22-2.37 1.85zM698.69 307.67c.87-.61 1.78-1.22 2.68-1.8l2.95 4.59c-.84.54-1.68 1.1-2.5 1.67zM747.73 453.26l-.22-5.45c1 0 2-.1 3-.18l.44 5.44c-1.05.08-2.13.14-3.22.19zM703.43 304.6c.92-.55 1.86-1.09 2.8-1.6l2.61 4.79c-.88.48-1.76 1-2.61 1.49zM753.36 452.83l-.6-5.42c1-.11 2-.24 3-.39l.82 5.39c-1.07.16-2.15.3-3.22.42zM708.37 301.87c.95-.48 1.93-1 2.91-1.4l2.27 5c-.91.42-1.82.86-2.71 1.3zM758.95 452l-1-5.37c1-.18 2-.38 2.94-.6l1.2 5.32c-1.03.25-2.09.47-3.14.65zM764.46 450.8l-1.36-5.28c1-.25 1.94-.52 2.9-.81l.41-.12 1.59 5.22-.44.13c-1.02.3-2.06.6-3.1.86zM768.56 443.9c.95-.32 1.9-.66 2.83-1l2 5.09c-1 .38-2 .75-3 1.09zM773.48 442c.92-.38 1.84-.79 2.75-1.22l2.3 4.94c-1 .45-2 .89-3 1.3zM778.26 439.84c.89-.45 1.78-.92 2.66-1.4l2.65 4.77c-.94.52-1.9 1-2.85 1.51zM782.87 437.31c.86-.51 1.72-1 2.55-1.59l3 4.57c-.89.58-1.82 1.16-2.74 1.71zM787.29 434.46c.82-.57 1.63-1.16 2.43-1.77L793 437c-.85.65-1.73 1.29-2.61 1.9zM791.49 431.3c.77-.62 1.54-1.27 2.29-1.93l3.6 4.1c-.81.71-1.63 1.4-2.46 2.07zM798.14 321.28l3.91-3.8c.75.77 1.49 1.56 2.2 2.35l-4.06 3.64c-.66-.74-1.35-1.47-2.05-2.19zM801.66 325.16l4.17-3.52a52.1 52.1 0 012 2.5l-4.31 3.35c-.58-.78-1.22-1.57-1.86-2.33zM804.9 329.29l4.41-3.21c.64.87 1.26 1.76 1.85 2.65l-4.54 3c-.54-.8-1.12-1.62-1.72-2.44zM807.85 333.65l4.62-2.89c.57.9 1.12 1.84 1.66 2.77l-4.74 2.7c-.49-.87-1.01-1.74-1.54-2.58zM819.21 371.35c0-1-.07-2-.14-3l5.44-.36c.07 1.07.12 2.15.15 3.22zM810.48 338.21l4.82-2.56c.5.94 1 1.91 1.45 2.88l-4.92 2.36c-.43-.89-.88-1.8-1.35-2.68zM818.88 366.1c-.1-1-.22-2-.35-3l5.4-.75c.15 1.06.27 2.14.38 3.2zM812.78 342.94l5-2.21c.43 1 .85 2 1.25 3l-5.07 2c-.39-.95-.78-1.89-1.18-2.79zM818.19 360.89c-.17-1-.35-2-.56-3l5.34-1.13c.22 1.05.42 2.12.6 3.17zM814.74 347.82l5.13-1.86c.36 1 .71 2 1 3.05l-5.2 1.65c-.26-.94-.59-1.9-.93-2.84zM817.12 355.73c-.23-1-.49-1.95-.77-2.91l5.25-1.49c.29 1 .57 2.08.82 3.12zM665 381.11a83.87 83.87 0 01-.26-3.22l5.45-.32c.06 1 .14 2 .24 3zM664.59 375.48v-3.23l5.45.07v3zM664.63 369.82c0-1.08.11-2.16.2-3.23l5.44.45c-.08 1-.15 2-.19 3zM665.08 364.18c.12-1.07.27-2.14.43-3.2l5.39.84c-.15 1-.29 2-.4 3zM665.92 358.58c.2-1.05.42-2.12.66-3.16l5.32 1.22c-.22 1-.43 2-.61 2.95zM667.15 353.07c.27-1 .57-2.08.88-3.11l5.22 1.59c-.29 1-.57 1.93-.82 2.9zM668.78 347.65c.34-1 .71-2 1.1-3l5.09 2c-.36.93-.7 1.89-1 2.83zM670.77 342.37c.41-1 .85-2 1.3-2.95l4.94 2.31c-.42.91-.83 1.84-1.22 2.75zM673.14 337.24c.48-.95 1-1.91 1.51-2.85l4.77 2.65c-.49.88-1 1.77-1.41 2.66zM756.89 299.66l.9-5.38c1.06.18 2.13.38 3.18.6l-1.12 5.34c-.98-.22-1.98-.39-2.96-.56zM795.45 427.86c.73-.68 1.45-1.38 2.15-2.09l3.88 3.84c-.75.76-1.53 1.52-2.31 2.24zM762 300.72l1.28-5.3c1 .25 2.09.53 3.12.82l-1.4 5.24c-1-.27-2-.48-3-.76zM799.16 424.15c.68-.73 1.35-1.48 2-2.24l4.14 3.56c-.7.81-1.42 1.62-2.15 2.4zM767.12 302.13l1.65-5.2c1 .32 2 .67 3.06 1L770 303.1c-1-.34-1.93-.67-2.88-.97zM802.61 420.18c.63-.78 1.25-1.58 1.84-2.37l4.38 3.25c-.64.86-1.3 1.71-2 2.55zM772.08 303.9l2-5.07c1 .39 2 .81 3 1.25l-2.21 5c-.93-.42-1.87-.81-2.79-1.18zM805.76 416c.57-.82 1.14-1.66 1.67-2.5l4.6 2.94c-.57.9-1.18 1.8-1.79 2.68zM776.9 306l2.36-4.92c1 .46 1.93 1 2.88 1.45l-2.56 4.82c-.88-.45-1.78-.91-2.68-1.35zM808.62 411.56c.51-.86 1-1.74 1.49-2.61l4.79 2.61c-.51.94-1 1.88-1.6 2.8zM781.56 308.46l2.7-4.74c.93.53 1.86 1.09 2.77 1.65l-2.89 4.63c-.84-.53-1.71-1-2.58-1.54zM811.16 407c.45-.88.89-1.79 1.3-2.71l5 2.27c-.45 1-.92 2-1.4 2.91zM786 311.22l3-4.54c.9.6 1.79 1.22 2.65 1.84l-3.21 4.41c-.74-.58-1.57-1.15-2.44-1.71zM813.37 402.18c.39-.92.76-1.86 1.11-2.8l5.11 1.92c-.38 1-.78 2-1.19 3zM790.31 314.29l3.34-4.32c.85.66 1.69 1.34 2.51 2l-3.51 4.18c-.77-.62-1.55-1.25-2.34-1.86zM794.35 317.65l3.63-4.07c.8.71 1.59 1.45 2.36 2.19l-3.79 3.92c-.72-.69-1.46-1.38-2.2-2.04z" transform="translate(-590.12 -219.5)"/></g></svg>