<svg preserveAspectRatio="none" id="Layer_1" data-name="Layer 1" xmlns="http://www.w3.org/2000/svg" viewBox="0 0 126.09 126.09"><defs><style>.cls-1{fill:#ff8a29;}.cls-2{fill:#095561;}.cls-3{fill:#d7f1f5;}.cls-4{fill:#cdedf2;}.cls-5{fill:#c1e9ef;}.cls-6{fill:#b1e4eb;}.cls-7{fill:#9ddde6;}.cls-8{fill:#85d4e0;}.cls-9{fill:#67c9d8;}.cls-10{fill:#41bbce;}.cls-11{fill:#12aac2;}.cls-12{fill:#0e8092;}</style></defs><title>circle73</title><path class="cls-1" d="M81.18,135.8H82v-6.17H80.43v6.27l0.75,0V135.8Z" transform="translate(-20.08 -14.71)"/><path class="cls-1" d="M86.7,129.35l-1.58.14,0.55,6.24,1.58-.1Z" transform="translate(-20.08 -14.71)"/><path class="cls-1" d="M91.34,128.67l-1.56.27,1.11,6.31c0.52-.07,1-0.14,1.57-0.23Z" transform="translate(-20.08 -14.71)"/><path class="cls-1" d="M95.9,127.58l-1.53.41,1.69,6.31c0.51-.12,1-0.23,1.54-0.36Z" transform="translate(-20.08 -14.71)"/><path class="cls-1" d="M100.35,126.17l-1.49.54,2.25,6.18,1.5-.51Z" transform="translate(-20.08 -14.71)"/><path class="cls-1" d="M104.79,124.37l-1.43.67,2.77,5.94,1.44-.66Z" transform="translate(-20.08 -14.71)"/><path class="cls-1" d="M109,122.25l-1.37.79,3.24,5.61c0.46-.25.92-0.52,1.37-0.79Z" transform="translate(-20.08 -14.71)"/><path class="cls-1" d="M112.85,119.62l-1.3.91,3.78,5.4c0.44-.29.86-0.61,1.29-0.91Z" transform="translate(-20.08 -14.71)"/><path class="cls-1" d="M116.56,116.64l-1.21,1,4.27,5.09c0.41-.33.81-0.68,1.21-1Z" transform="translate(-20.08 -14.71)"/><path class="cls-1" d="M124.62,118.17l-4.73-4.73-1.12,1.12,4.73,4.73Q124.07,118.74,124.62,118.17Z" transform="translate(-20.08 -14.71)"/><path class="cls-1" d="M123.09,110l-1,1.21,5.06,4.25c0.34-.4.68-0.8,1-1.21Z" transform="translate(-20.08 -14.71)"/><path class="cls-1" d="M126,106.23l-0.91,1.3,5.33,3.73c0.31-.43.61-0.86,0.91-1.3Z" transform="translate(-20.08 -14.71)"/><path class="cls-1" d="M128.35,102.13l-0.79,1.37,5.71,3.3c0.27-.46.54-0.91,0.79-1.37Z" transform="translate(-20.08 -14.71)"/><path class="cls-1" d="M130.47,97.83l-0.67,1.43,6,2.78c0.22-.48.45-1,0.66-1.44Z" transform="translate(-20.08 -14.71)"/><path class="cls-1" d="M132.11,93.47L131.57,95l6.18,2.25q0.27-.74.52-1.5Z" transform="translate(-20.08 -14.71)"/><path class="cls-1" d="M133.33,89l-0.41,1.53,6.39,1.71c0.13-.51.25-1,0.37-1.54Z" transform="translate(-20.08 -14.71)"/><path class="cls-1" d="M134.27,84.38L134,85.94l6.4,1.13c0.08-.52.15-1,0.22-1.57Z" transform="translate(-20.08 -14.71)"/><path class="cls-1" d="M134.81,79.72l-0.14,1.58L141,81.85q0.06-.79.09-1.58Z" transform="translate(-20.08 -14.71)"/><path class="cls-1" d="M141.28,75.86c0-.28,0-0.56,0-0.83h-6.32v1.58h6.22V75.86h0.12Z" transform="translate(-20.08 -14.71)"/><path class="cls-2" d="M110.14,59.43a33.3,33.3,0,0,1-46.26,44.89l-5.73,9.39A44.3,44.3,0,0,0,119.7,54ZM83.31,118.12H79v-7.34h4.26v7.34Zm3.11-.27-1.28-7.23,4.2-.74,1.28,7.23Zm7.21-1.55-2.51-6.9,4-1.46,2.51,6.9Zm6.83-2.78-3.67-6.36,3.69-2.13,3.67,6.36Zm6.25-3.92L102,104l3.26-2.74,4.72,5.63Zm5.47-4.95-5.63-4.72,2.74-3.26,5.63,4.72Zm4.53-5.82-6.36-3.67,2.13-3.69,6.36,3.67Zm3.45-6.52-6.9-2.51,1.46-4,6.9,2.51Zm2.27-7L115.19,84l0.74-4.2,7.23,1.28Zm1-7.3h-7.34V73.73h7.34V78Z" transform="translate(-20.08 -14.71)"/><path class="cls-2" d="M36.89,75.86a44.29,44.29,0,0,0,5.88,22.07l9.53-5.49A33.3,33.3,0,0,1,97.92,47.08l5.54-9.5A44.3,44.3,0,0,0,36.89,75.86ZM46.27,78H38.92V73.73h7.34V78Zm0.16-6.09-7.23-1.28,0.74-4.2,7.23,1.28Zm1.22-6-6.9-2.51,1.46-4,6.9,2.51Zm2.23-5.67-6.36-3.67,2.13-3.69L52,56.56Zm3.19-5.2-5.63-4.72,2.74-3.26,5.63,4.72Zm4-4.57-4.72-5.63,3.26-2.74,4.72,5.63Zm4.77-3.79-3.67-6.36L61.9,38.2l3.67,6.36Zm5.36-2.91-2.51-6.9,4-1.46,2.51,6.9ZM73,41.85l-1.28-7.23,4.2-.74,1.28,7.23ZM83.31,41H79V33.61h4.26V41Z" transform="translate(-20.08 -14.71)"/><path class="cls-1" d="M122.19,106.31a57.76,57.76,0,0,1-4.87,5.68,57.77,57.77,0,0,1-11.74,8.85l-3.11,1.53c-0.51.25-1,.52-1.51,0.74l-1.53.58-2.94,1.12-2.84.78c-0.92.23-1.78,0.53-2.63,0.66l-2.41.42-2.12.37-1.82.14-3,.23v0l3-.07,1.84-.06,2.15-.28,2.45-.32c0.87-.09,1.74-0.39,2.67-0.59l2.9-.71,3-1.06,1.57-.55c0.52-.21,1-0.47,1.55-0.7L106,121.6a58.53,58.53,0,0,0,12-8.91,58.62,58.62,0,0,0,8.91-12l1.51-3.19c0.24-.52.5-1,0.7-1.55l0.55-1.57,1.06-3,0.71-2.9c0.2-.93.5-1.8,0.59-2.67l0.32-2.45,0.28-2.15,0.06-1.83,0.07-3h0l-0.23,3-0.14,1.83L132,83.28l-0.42,2.41c-0.13.85-.44,1.71-0.66,2.63l-0.78,2.84L129,94.1l-0.58,1.53c-0.22.51-.49,1-0.74,1.51l-1.53,3.11A57.84,57.84,0,0,1,122.19,106.31Z" transform="translate(-20.08 -14.71)"/><path class="cls-1" d="M84.56,71.11A5.89,5.89,0,0,1,86,72.53H98.22A17.88,17.88,0,0,0,84.56,58.47V71.11Zm7.17-7a1.23,1.23,0,1,1-1.23,1.23A1.23,1.23,0,0,1,91.73,64.08ZM88,67.83a1.23,1.23,0,1,1-1.23,1.23A1.23,1.23,0,0,1,88,67.83Z" transform="translate(-20.08 -14.71)"/><path class="cls-1" d="M77.8,80.71a5.9,5.9,0,0,1-1.42-1.42H63.13A17.87,17.87,0,0,0,77.8,93.54V80.71Zm-7.17,6.93a1.23,1.23,0,1,1,1.23-1.23A1.23,1.23,0,0,1,70.63,87.65ZM74.32,84a1.23,1.23,0,1,1,1.23-1.23A1.23,1.23,0,0,1,74.32,84Z" transform="translate(-20.08 -14.71)"/><circle class="cls-1" cx="61.1" cy="61.15" r="2.98"/><path class="cls-1" d="M76.8,72L65.38,66.71c-0.21.35-.41,0.7-0.59,1.06l11.94,4.35Z" transform="translate(-20.08 -14.71)"/><path class="cls-1" d="M66,65.7L76.86,72l0.06-.07L66.75,64.75Q66.37,65.21,66,65.7Z" transform="translate(-20.08 -14.71)"/><path class="cls-1" d="M76.38,72.53l0.12-.14L63.43,71.25c-0.11.42-.22,0.85-0.3,1.28H76.38Z" transform="translate(-20.08 -14.71)"/><path class="cls-1" d="M77.8,71.11V58.29c-0.4.07-.8,0.15-1.2,0.24l1.11,12.66Z" transform="translate(-20.08 -14.71)"/><path class="cls-1" d="M63.81,70l12.78,2.25,0.08-.09-12.4-3.32C64.1,69.26,63.95,69.64,63.81,70Z" transform="translate(-20.08 -14.71)"/><path class="cls-1" d="M72.11,60.26l5.24,11.23,0.08-.07-4.26-11.7Q72.63,60,72.11,60.26Z" transform="translate(-20.08 -14.71)"/><path class="cls-1" d="M74.27,59.26l3.24,12.1,0.09-.08L75.42,58.86C75,59,74.65,59.11,74.27,59.26Z" transform="translate(-20.08 -14.71)"/><path class="cls-1" d="M70.12,61.51l7.07,10.1,0.07-.06-6.18-10.7C70.76,61.06,70.44,61.28,70.12,61.51Z" transform="translate(-20.08 -14.71)"/><path class="cls-1" d="M85.53,79.78L96.63,85q0.3-.5.58-1L85.59,79.7Z" transform="translate(-20.08 -14.71)"/><path class="cls-1" d="M85.41,79.93l9.9,6.93q0.36-.45.69-0.92L85.47,79.86Z" transform="translate(-20.08 -14.71)"/><path class="cls-1" d="M85.82,79.43l12.7,1.11c0.11-.41.21-0.83,0.29-1.25H85.94Z" transform="translate(-20.08 -14.71)"/><path class="cls-1" d="M84.56,80.67V93.14c0.39-.06.78-0.15,1.16-0.24L84.65,80.6Z" transform="translate(-20.08 -14.71)"/><path class="cls-1" d="M85.66,79.62l12.05,3.23c0.16-.37.31-0.75,0.44-1.13L85.74,79.53Z" transform="translate(-20.08 -14.71)"/><path class="cls-1" d="M84.92,80.37l4.14,11.38c0.35-.16.69-0.33,1-0.52L85,80.31Z" transform="translate(-20.08 -14.71)"/><path class="cls-1" d="M84.75,80.52l2.13,12.07c0.38-.12.75-0.25,1.11-0.39L84.84,80.44Z" transform="translate(-20.08 -14.71)"/><path class="cls-1" d="M85.07,80.24l6,10.4c0.32-.2.64-0.42,0.94-0.64l-6.88-9.82Z" transform="translate(-20.08 -14.71)"/><path class="cls-1" d="M80.82,23.89a0.5,0.5,0,0,0-.14.35h0v0a0.47,0.47,0,0,0,.49.46,0.51,0.51,0,0,0,.5-0.5,0.49,0.49,0,0,0-.15-0.35A0.51,0.51,0,0,0,80.82,23.89Z" transform="translate(-20.08 -14.71)"/><path class="cls-1" d="M101,28.7a0.5,0.5,0,0,0,.19-1,0.49,0.49,0,0,0-.65.27,0.49,0.49,0,0,0,.26.65A0.47,0.47,0,0,0,101,28.7Z" transform="translate(-20.08 -14.71)"/><path class="cls-1" d="M86.27,25a0.5,0.5,0,1,0-.5-0.55,0.5,0.5,0,0,0,.45.55h0.05Z" transform="translate(-20.08 -14.71)"/><path class="cls-1" d="M96.24,27a0.5,0.5,0,0,0,.15-1,0.5,0.5,0,0,0-.62.33,0.49,0.49,0,0,0,.33.62Z" transform="translate(-20.08 -14.71)"/><path class="cls-1" d="M91.3,25.74a0.5,0.5,0,1,0-.49-0.59,0.51,0.51,0,0,0,.4.59H91.3Z" transform="translate(-20.08 -14.71)"/><path class="cls-1" d="M105.4,30.84a0.46,0.46,0,0,0,.23.06,0.49,0.49,0,0,0,.44-0.26,0.5,0.5,0,1,0-.88-0.48A0.5,0.5,0,0,0,105.4,30.84Z" transform="translate(-20.08 -14.71)"/><path class="cls-1" d="M110.34,33.39a0.47,0.47,0,0,0,.15-0.35,0.48,0.48,0,0,0-.14-0.35,0.52,0.52,0,0,0-.71,0,0.49,0.49,0,0,0-.15.36,0.47,0.47,0,0,0,.15.35A0.48,0.48,0,0,0,110.34,33.39Z" transform="translate(-20.08 -14.71)"/><path class="cls-1" d="M124.43,47.5a0.52,0.52,0,0,0,.14-0.35,0.51,0.51,0,0,0-.15-0.36,0.52,0.52,0,0,0-.71,0,0.51,0.51,0,0,0,0,.7A0.51,0.51,0,0,0,124.43,47.5Z" transform="translate(-20.08 -14.71)"/><path class="cls-1" d="M130.42,60.37a0.5,0.5,0,0,0-.33.62,0.49,0.49,0,0,0,.48.36,0.36,0.36,0,0,0,.14,0A0.49,0.49,0,0,0,131,60.7h0A0.51,0.51,0,0,0,130.42,60.37Z" transform="translate(-20.08 -14.71)"/><path class="cls-1" d="M128.86,56.57a0.63,0.63,0,0,0,.19,0,0.5,0.5,0,1,0-.66-0.27A0.5,0.5,0,0,0,128.86,56.57Z" transform="translate(-20.08 -14.71)"/><path class="cls-1" d="M131.7,65.27a0.5,0.5,0,0,0-.39.59,0.49,0.49,0,0,0,.49.41h0.1a0.51,0.51,0,0,0,.39-0.59A0.51,0.51,0,0,0,131.7,65.27Z" transform="translate(-20.08 -14.71)"/><path class="cls-1" d="M132.54,71.28h0a0.51,0.51,0,0,0,.45-0.55,0.52,0.52,0,0,0-.55-0.45A0.5,0.5,0,0,0,132.54,71.28Z" transform="translate(-20.08 -14.71)"/><path class="cls-1" d="M126.68,52a0.53,0.53,0,0,0,.24-0.06,0.5,0.5,0,0,0-.48-0.88,0.51,0.51,0,0,0-.2.68A0.49,0.49,0,0,0,126.68,52Z" transform="translate(-20.08 -14.71)"/><path class="cls-1" d="M132.78,76.36a0.53,0.53,0,0,0,.36-0.15,0.51,0.51,0,0,0,.14-0.35,0.54,0.54,0,0,0-.14-0.36,0.51,0.51,0,0,0-.86.36,0.53,0.53,0,0,0,.15.35,0.49,0.49,0,0,0,.31.14h0Z" transform="translate(-20.08 -14.71)"/><rect class="cls-1" x="107.15" y="48.2" width="2.88" height="0.5" transform="translate(-22.53 76.26) rotate(-45)"/><path class="cls-1" d="M117.27,40.13l-0.35-.35-7.13,7.13,0.35,0.35Z" transform="translate(-20.08 -14.71)"/><path class="cls-1" d="M104,53.44L107.39,50,107,49.65l-3.44,3.44Z" transform="translate(-20.08 -14.71)"/><path class="cls-1" d="M109.65,52.26A0.25,0.25,0,0,0,110,51.9l-2.25-2.25-0.35-.35-2.17-2.17a0.25,0.25,0,1,0-.35.35L107,49.65,107.39,50Z" transform="translate(-20.08 -14.71)"/><path class="cls-1" d="M113.33,51.16a0.25,0.25,0,0,0,.35-0.35l-3.55-3.55-0.35-.35-3.51-3.51a0.25,0.25,0,1,0-.35.35l3.51,3.51,0.35,0.35Z" transform="translate(-20.08 -14.71)"/><path class="cls-1" d="M117.27,40.13a19.58,19.58,0,0,1,3,3.93,0.5,0.5,0,1,0,.87-0.5,20.64,20.64,0,0,0-7.64-7.64,0.5,0.5,0,1,0-.5.87,19.62,19.62,0,0,1,3.94,3Z" transform="translate(-20.08 -14.71)"/><path class="cls-1" d="M62.57,95.61l-0.72.77h0a1.2,1.2,0,1,0,0-2.41,1.19,1.19,0,0,0-1.14.91l0.58-.54Q61.93,95,62.57,95.61Z" transform="translate(-20.08 -14.71)"/><rect class="cls-3" x="58.97" y="18.9" width="4.26" height="7.34"/><rect class="cls-4" x="72.35" y="34.19" width="4.26" height="7.34" transform="translate(-25.52 -1.2) rotate(-10)"/><rect class="cls-4" x="65.85" y="35.94" width="4.26" height="7.34" transform="translate(-29.52 10.93) rotate(-20)"/><rect class="cls-5" x="59.76" y="38.78" width="4.26" height="7.34" transform="translate(-33.01 21.92) rotate(-30)"/><rect class="cls-6" x="54.25" y="42.64" width="4.26" height="7.34" transform="translate(-36.65 32.36) rotate(-40)"/><rect class="cls-7" x="49.49" y="47.39" width="4.26" height="7.34" transform="translate(-40.75 43.07) rotate(-50)"/><rect class="cls-8" x="45.63" y="52.9" width="4.26" height="7.34" transform="translate(-45.19 54.94) rotate(-60)"/><rect class="cls-9" x="42.79" y="59" width="4.26" height="7.34" transform="translate(-49.4 68.74) rotate(-70)"/><rect class="cls-10" x="41.05" y="65.49" width="4.26" height="7.34" transform="translate(-52.5 84.97) rotate(-80)"/><rect class="cls-3" x="58.97" y="96.06" width="4.26" height="7.34"/><rect class="cls-4" x="85.75" y="110.19" width="4.26" height="7.34" transform="matrix(0.98, -0.17, 0.17, 0.98, -38.51, 2.28)"/><rect class="cls-4" x="92.24" y="108.45" width="4.26" height="7.34" transform="translate(-52.73 24.33) rotate(-20)"/><rect class="cls-5" x="98.34" y="105.6" width="4.26" height="7.34" transform="translate(-61.25 50.16) rotate(-30)"/><rect class="cls-6" x="103.85" y="101.75" width="4.26" height="7.34" transform="translate(-63.04 78.07) rotate(-40)"/><rect class="cls-7" x="108.6" y="96.99" width="4.26" height="7.34" transform="translate(-57.63 106.07) rotate(-50)"/><rect class="cls-8" x="112.46" y="91.48" width="4.26" height="7.34" transform="translate(-45.19 132.11) rotate(-60)"/><rect class="cls-9" x="115.3" y="85.39" width="4.26" height="7.34" transform="translate(-26.49 154.25) rotate(-70)"/><rect class="cls-10" x="117.04" y="78.89" width="4.26" height="7.34" transform="translate(-2.9 170.88) rotate(-80)"/><path class="cls-1" d="M120.86,33.46a2.72,2.72,0,0,0,4.69,1.87q-1.83-2-3.84-3.84A2.71,2.71,0,0,0,120.86,33.46Z" transform="translate(-20.08 -14.71)"/><path class="cls-1" d="M123.58,30.73a2.71,2.71,0,0,0-1,.2q1.84,1.7,3.53,3.54a2.7,2.7,0,0,0,.2-1A2.73,2.73,0,0,0,123.58,30.73Z" transform="translate(-20.08 -14.71)"/><path class="cls-11" d="M123.58,30.73a2.73,2.73,0,0,1,2.72,2.72,2.7,2.7,0,0,1-.2,1c0.48,0.52.95,1.06,1.41,1.6A4.72,4.72,0,0,0,121,29.52c0.54,0.46,1.07.93,1.6,1.41A2.71,2.71,0,0,1,123.58,30.73Z" transform="translate(-20.08 -14.71)"/><path class="cls-11" d="M123.58,36.18a2.72,2.72,0,0,1-1.87-4.69c-0.49-.45-1-0.89-1.51-1.32a4.72,4.72,0,0,0,6.66,6.67c-0.43-.51-0.87-1-1.32-1.51A2.71,2.71,0,0,1,123.58,36.18Z" transform="translate(-20.08 -14.71)"/><path class="cls-1" d="M38.67,115.62a2.71,2.71,0,0,1,2,4.55c0.49,0.45,1,.88,1.5,1.31a4.7,4.7,0,0,0-6.65-6.64c0.43,0.5.86,1,1.31,1.5A2.7,2.7,0,0,1,38.67,115.62Z" transform="translate(-20.08 -14.71)"/><path class="cls-1" d="M38.67,121.06A2.73,2.73,0,0,1,36,118.34a2.69,2.69,0,0,1,.28-1.19c-0.47-.51-0.93-1-1.38-1.57a4.71,4.71,0,0,0,6.58,6.57c-0.53-.45-1.06-0.91-1.57-1.38A2.69,2.69,0,0,1,38.67,121.06Z" transform="translate(-20.08 -14.71)"/><path class="cls-1" d="M26.06,74.71a54.82,54.82,0,0,1,54.36-54h0.76v-3H80.4A57.35,57.35,0,0,0,42.18,32.56a3,3,0,0,1-4.25,4.26A57.31,57.31,0,0,0,23.06,74.68c0,0.2,0,1,0,1.18h3C26.06,75.67,26.06,74.91,26.06,74.71Z" transform="translate(-20.08 -14.71)"/><path class="cls-11" d="M82.56,51a1.38,1.38,0,1,0-2.76,0V70.21a5.68,5.68,0,0,1,2.76,0V51Z" transform="translate(-20.08 -14.71)"/><path class="cls-11" d="M75.3,75.91a5.85,5.85,0,0,1,.17-1.38H56.31a1.38,1.38,0,0,0,0,2.76H75.47A5.85,5.85,0,0,1,75.3,75.91Z" transform="translate(-20.08 -14.71)"/><path class="cls-11" d="M79.8,81.62v19.16a1.38,1.38,0,0,0,2.76,0V81.62A5.7,5.7,0,0,1,79.8,81.62Z" transform="translate(-20.08 -14.71)"/><path class="cls-11" d="M87.05,75.91a5.86,5.86,0,0,1-.17,1.38H106a1.38,1.38,0,1,0,0-2.76H86.88A5.85,5.85,0,0,1,87.05,75.91Z" transform="translate(-20.08 -14.71)"/><path class="cls-11" d="M84.31,52.91a0.25,0.25,0,0,0,.21.28,22.9,22.9,0,0,1,4.38,1.09H89a0.25,0.25,0,0,0,.08-0.49A23.39,23.39,0,0,0,84.6,52.7,0.25,0.25,0,0,0,84.31,52.91Z" transform="translate(-20.08 -14.71)"/><path class="cls-11" d="M73.59,54.23a22.83,22.83,0,0,1,4.25-1A0.25,0.25,0,0,0,78,52.91a0.25,0.25,0,0,0-.28-0.21,23.32,23.32,0,0,0-4.34,1.07,0.25,0.25,0,0,0,.08.49h0.08Z" transform="translate(-20.08 -14.71)"/><path class="cls-11" d="M63.8,60.92a22.84,22.84,0,0,1,3.16-3,0.25,0.25,0,0,0-.31-0.39,23.36,23.36,0,0,0-3.23,3.09A0.25,0.25,0,1,0,63.8,60.92Z" transform="translate(-20.08 -14.71)"/><path class="cls-11" d="M58.42,71.82a0.25,0.25,0,0,0,.25-0.2,22.88,22.88,0,0,1,1.22-4.2,0.25,0.25,0,0,0-.46-0.18,23.38,23.38,0,0,0-1.25,4.29,0.25,0.25,0,0,0,.2.29h0Z" transform="translate(-20.08 -14.71)"/><path class="cls-11" d="M58.24,79a0.25,0.25,0,0,0-.21.28,23.32,23.32,0,0,0,1.07,4.34,0.25,0.25,0,0,0,.24.17h0.08a0.25,0.25,0,0,0,.15-0.32,22.83,22.83,0,0,1-1-4.25A0.25,0.25,0,0,0,58.24,79Z" transform="translate(-20.08 -14.71)"/><path class="cls-11" d="M65.93,93.61a0.25,0.25,0,1,0,.33-0.38,22.93,22.93,0,0,1-3-3.16,0.25,0.25,0,0,0-.39.31A23.37,23.37,0,0,0,65.93,93.61Z" transform="translate(-20.08 -14.71)"/><path class="cls-11" d="M76.9,98.86a0.25,0.25,0,0,0,0-.5,22.91,22.91,0,0,1-4.2-1.22,0.25,0.25,0,0,0-.18.46,23.4,23.4,0,0,0,4.29,1.25h0Z" transform="translate(-20.08 -14.71)"/><path class="cls-11" d="M84.52,98.51a0.25,0.25,0,0,0,0,.5h0a23.4,23.4,0,0,0,4.34-1.07,0.25,0.25,0,0,0-.17-0.47A22.9,22.9,0,0,1,84.52,98.51Z" transform="translate(-20.08 -14.71)"/><path class="cls-11" d="M98.56,90.77a22.88,22.88,0,0,1-3.16,3,0.25,0.25,0,1,0,.31.39,23.37,23.37,0,0,0,3.23-3.09A0.25,0.25,0,0,0,98.56,90.77Z" transform="translate(-20.08 -14.71)"/><path class="cls-11" d="M103.69,80.08a22.88,22.88,0,0,1-1.22,4.2,0.25,0.25,0,0,0,.14.32l0.09,0a0.25,0.25,0,0,0,.23-0.16,23.38,23.38,0,0,0,1.25-4.29A0.25,0.25,0,1,0,103.69,80.08Z" transform="translate(-20.08 -14.71)"/><path class="cls-11" d="M102.95,67.94a0.25,0.25,0,0,0-.15.32,22.83,22.83,0,0,1,1,4.25,0.25,0.25,0,0,0,.25.21h0a0.25,0.25,0,0,0,.21-0.28,23.33,23.33,0,0,0-1.07-4.34A0.25,0.25,0,0,0,102.95,67.94Z" transform="translate(-20.08 -14.71)"/><path class="cls-11" d="M96.43,58.09a0.25,0.25,0,1,0-.33.38,22.87,22.87,0,0,1,3,3.16,0.25,0.25,0,0,0,.39-0.31A23.33,23.33,0,0,0,96.43,58.09Z" transform="translate(-20.08 -14.71)"/><path class="cls-11" d="M68.33,63c-0.28.27-.55,0.55-0.82,0.84l9.48,8,0.07-.07,0.07-.06L69.2,62.23C68.9,62.48,68.61,62.75,68.33,63Z" transform="translate(-20.08 -14.71)"/><path class="cls-11" d="M93.76,88.55c0.27-.26.54-0.54,0.8-0.82L85.35,80l-0.06.07-0.07.06,7.71,9.18C93.21,89.07,93.49,88.81,93.76,88.55Z" transform="translate(-20.08 -14.71)"/><path class="cls-11" d="M81.67,127.42a0.48,0.48,0,0,0-.14-0.31,0.5,0.5,0,0,0-.85.35,0.48,0.48,0,0,0,.5.5,0.51,0.51,0,0,0,.36-0.15,0.5,0.5,0,0,0,.14-0.35h0v0Z" transform="translate(-20.08 -14.71)"/><path class="cls-11" d="M65.63,125.08a0.5,0.5,0,0,0,.34.63l0.14,0a0.51,0.51,0,0,0,.48-0.36,0.5,0.5,0,0,0-.33-0.62A0.51,0.51,0,0,0,65.63,125.08Z" transform="translate(-20.08 -14.71)"/><path class="cls-11" d="M60.86,123.31a0.5,0.5,0,0,0,.27.66,0.58,0.58,0,0,0,.19,0,0.5,0.5,0,0,0,.19-1A0.5,0.5,0,0,0,60.86,123.31Z" transform="translate(-20.08 -14.71)"/><path class="cls-11" d="M76,127.71h0a0.5,0.5,0,0,0,0-1A0.5,0.5,0,1,0,76,127.71Z" transform="translate(-20.08 -14.71)"/><path class="cls-11" d="M57,120.87a0.5,0.5,0,0,0-.68.21,0.49,0.49,0,0,0,.21.67,0.47,0.47,0,0,0,.23.06,0.49,0.49,0,0,0,.44-0.26A0.51,0.51,0,0,0,57,120.87Z" transform="translate(-20.08 -14.71)"/><path class="cls-11" d="M70.95,127H71a0.5,0.5,0,0,0,.1-1,0.49,0.49,0,0,0-.59.39A0.5,0.5,0,0,0,70.95,127Z" transform="translate(-20.08 -14.71)"/><path class="cls-11" d="M52,118.32a0.54,0.54,0,0,0-.14.36A0.49,0.49,0,0,0,52,119a0.46,0.46,0,0,0,.34.15,0.51,0.51,0,0,0,.36-0.15,0.52,0.52,0,0,0,0-.71A0.52,0.52,0,0,0,52,118.32Z" transform="translate(-20.08 -14.71)"/><path class="cls-11" d="M37.93,104.21a0.52,0.52,0,0,0-.14.36,0.47,0.47,0,0,0,.15.35,0.51,0.51,0,0,0,.7,0,0.48,0.48,0,0,0,.15-0.35,0.51,0.51,0,0,0-.15-0.36A0.52,0.52,0,0,0,37.93,104.21Z" transform="translate(-20.08 -14.71)"/><path class="cls-11" d="M33.31,95.18a0.49,0.49,0,0,0-.27.65,0.5,0.5,0,0,0,.46.31,0.43,0.43,0,0,0,.19,0A0.5,0.5,0,1,0,33.31,95.18Z" transform="translate(-20.08 -14.71)"/><path class="cls-11" d="M35.44,99.78a0.5,0.5,0,0,0,.23.94,0.53,0.53,0,0,0,.24-0.06,0.5,0.5,0,0,0,.21-0.67h0A0.49,0.49,0,0,0,35.44,99.78Z" transform="translate(-20.08 -14.71)"/><path class="cls-11" d="M30.56,86.45h0.1A0.5,0.5,0,0,0,31,85.85,0.5,0.5,0,1,0,30.56,86.45Z" transform="translate(-20.08 -14.71)"/><path class="cls-11" d="M30.32,80.88a0.5,0.5,0,0,0-.55-0.44,0.49,0.49,0,0,0-.45.54,0.5,0.5,0,0,0,.5.45h0a0.51,0.51,0,0,0,.45-0.54h0Z" transform="translate(-20.08 -14.71)"/><path class="cls-11" d="M31.64,90.39a0.5,0.5,0,0,0-.33.62,0.51,0.51,0,0,0,.48.36l0.14,0A0.5,0.5,0,1,0,31.64,90.39Z" transform="translate(-20.08 -14.71)"/><path class="cls-11" d="M29.57,76.36a0.55,0.55,0,0,0,.36-0.15,0.5,0.5,0,0,0,.14-0.35,0.54,0.54,0,0,0-.14-0.36,0.51,0.51,0,0,0-.32-0.13l0.23-3L30,70.55l0.37-2.12L30.78,66c0.13-.85.44-1.71,0.66-2.63l0.78-2.84,1.12-2.94,0.58-1.53c0.22-.51.49-1,0.74-1.51l1.53-3.11A57.66,57.66,0,0,1,45,39.71a57.75,57.75,0,0,1,11.74-8.85l3.11-1.53c0.51-.25,1-0.52,1.51-0.74L62.94,28l2.94-1.12,2.84-.78c0.92-.23,1.78-0.53,2.63-0.66L73.76,25l2.12-.37,1.82-.14,3-.23v0l-3,.07-1.84.06-2.15.28L71.25,25c-0.87.09-1.74,0.39-2.67,0.59l-2.9.71-3,1.06-1.57.55c-0.52.21-1,.47-1.55,0.7L56.36,30.1a58.53,58.53,0,0,0-12,8.91,58.65,58.65,0,0,0-8.91,12l-1.51,3.19c-0.24.53-.5,1-0.7,1.55l-0.55,1.57-1.06,3-0.71,2.9c-0.2.93-.5,1.8-0.59,2.67L30,68.38l-0.28,2.15c0,0.67,0,1.28-.06,1.83l-0.07,3a0.51,0.51,0,0,0-.36.14,0.55,0.55,0,0,0-.15.36,0.51,0.51,0,0,0,.15.35A0.53,0.53,0,0,0,29.57,76.36Z" transform="translate(-20.08 -14.71)"/><rect class="cls-11" x="18.85" y="59.02" width="7.34" height="4.26"/><rect class="cls-11" x="96.01" y="59.02" width="7.34" height="4.26"/><path class="cls-11" d="M107,68q0.26,0.84.46,1.71l4.87-1.14c-0.16-.68-0.34-1.35-0.54-2Z" transform="translate(-20.08 -14.71)"/><path class="cls-11" d="M113,72.66c-0.07-.69-0.16-1.39-0.27-2.07l-4.93.82q0.14,0.87.23,1.75Z" transform="translate(-20.08 -14.71)"/><path class="cls-11" d="M103.6,53.09c-0.21-.21-0.41-0.42-0.62-0.62l-2.7,2.88a1.19,1.19,0,0,0-1,1.17,1.2,1.2,0,0,0,2.39.06l2.8-2.63c-0.16-.17-0.34-0.33-0.5-0.5Z" transform="translate(-20.08 -14.71)"/><path class="cls-11" d="M88.37,44.64l-1.13,4.87q0.86,0.2,1.7.46l1.45-4.78C89.72,45,89,44.8,88.37,44.64Z" transform="translate(-20.08 -14.71)"/><path class="cls-11" d="M90.61,50.54q0.83,0.31,1.63.68l2.07-4.55c-0.63-.29-1.28-0.56-1.94-0.8Z" transform="translate(-20.08 -14.71)"/><path class="cls-11" d="M102,58.69q0.56,0.68,1.08,1.4l4.06-2.92c-0.4-.56-0.83-1.12-1.28-1.66Z" transform="translate(-20.08 -14.71)"/><path class="cls-11" d="M93.83,52q0.78,0.42,1.53.89L98,48.64c-0.59-.37-1.2-0.72-1.81-1Z" transform="translate(-20.08 -14.71)"/><path class="cls-11" d="M83.75,48.94q0.88,0.09,1.75.23l0.81-4.93c-0.68-.11-1.38-0.2-2.08-0.27Z" transform="translate(-20.08 -14.71)"/><path class="cls-11" d="M105.71,64.67q0.36,0.8.68,1.63l4.68-1.77c-0.25-.65-0.52-1.3-0.8-1.93Z" transform="translate(-20.08 -14.71)"/><path class="cls-11" d="M104,61.56q0.47,0.75.89,1.53l4.41-2.37c-0.33-.61-0.68-1.22-1-1.81Z" transform="translate(-20.08 -14.71)"/><path class="cls-11" d="M96.83,53.87q0.72,0.52,1.4,1.08l3.17-3.86c-0.54-.44-1.1-0.87-1.66-1.27Z" transform="translate(-20.08 -14.71)"/><path class="cls-11" d="M108.11,74.95q0,0.46,0,.92a27.09,27.09,0,0,1-27.06,27.06l-0.92,0-0.17,5,1.08,0a32.09,32.09,0,0,0,32.06-32.06q0-.54,0-1.08Z" transform="translate(-20.08 -14.71)"/><path class="cls-11" d="M49,75.86q0,0.54,0,1.08l5-.17q0-.46,0-0.92A27.09,27.09,0,0,1,81.07,48.81l0.92,0,0.17-5-1.08,0A32.09,32.09,0,0,0,49,75.86Z" transform="translate(-20.08 -14.71)"/><path class="cls-11" d="M59.15,99.26l2.69-2.88,0.72-.77q-0.64-.6-1.25-1.25l-0.58.54-3.07,2.88c0.19,0.21.4,0.4,0.61,0.6L55,101.7l-2.25-2.25a0.25,0.25,0,0,0-.35.35l2.25,2.25-2,2L49,100.54a0.25,0.25,0,0,0-.35.35l3.55,3.55-7.13,7.13a19.63,19.63,0,0,1-3-3.93,0.5,0.5,0,0,0-.87.5,20.63,20.63,0,0,0,7.64,7.64,0.5,0.5,0,0,0,.5-0.87,19.62,19.62,0,0,1-3.94-3l7.13-7.13,3.51,3.51a0.25,0.25,0,0,0,.35-0.35l-3.51-3.51,2-2,2.17,2.17a0.25,0.25,0,0,0,.35-0.35l-2.17-2.17,3.32-3.31C58.81,98.91,59,99.09,59.15,99.26Z" transform="translate(-20.08 -14.71)"/><path class="cls-11" d="M49.17,79.07c0.07,0.69.16,1.39,0.27,2.07l4.93-.82q-0.14-.87-0.23-1.75Z" transform="translate(-20.08 -14.71)"/><path class="cls-11" d="M65.3,97.86q-0.72-.52-1.4-1.08l-3.17,3.86c0.54,0.44,1.1.87,1.66,1.27Z" transform="translate(-20.08 -14.71)"/><path class="cls-11" d="M66.77,98.84l-2.65,4.24c0.59,0.37,1.2.72,1.81,1l2.36-4.41Q67.52,99.31,66.77,98.84Z" transform="translate(-20.08 -14.71)"/><path class="cls-11" d="M51.07,87.2c0.25,0.65.52,1.3,0.8,1.93l4.55-2.07q-0.36-.8-0.68-1.63Z" transform="translate(-20.08 -14.71)"/><path class="cls-11" d="M73.77,107.08l1.13-4.87q-0.86-.2-1.7-0.46l-1.45,4.78C72.41,106.74,73.09,106.93,73.77,107.08Z" transform="translate(-20.08 -14.71)"/><path class="cls-11" d="M71.52,101.19q-0.83-.31-1.63-0.68l-2.07,4.55c0.63,0.29,1.28.56,1.94,0.8Z" transform="translate(-20.08 -14.71)"/><path class="cls-11" d="M49.85,83.19c0.16,0.68.34,1.36,0.54,2l4.78-1.46q-0.26-.84-0.46-1.71Z" transform="translate(-20.08 -14.71)"/><path class="cls-11" d="M52.8,91c0.33,0.61.68,1.22,1,1.81l4.24-2.65q-0.47-.75-0.89-1.53Z" transform="translate(-20.08 -14.71)"/><path class="cls-11" d="M55,94.55c0.4,0.56.83,1.12,1.28,1.66L60.16,93q-0.56-.68-1.08-1.4Z" transform="translate(-20.08 -14.71)"/><path class="cls-11" d="M78.38,102.79q-0.88-.09-1.75-0.23l-0.81,4.93c0.68,0.11,1.38.2,2.08,0.27Z" transform="translate(-20.08 -14.71)"/><path class="cls-11" d="M127.51,36.07c-0.46-.54-0.93-1.08-1.41-1.6q-1.69-1.84-3.53-3.54c-0.52-.48-1.06-0.95-1.6-1.41a60.79,60.79,0,0,0-39.8-14.81v1a59.8,59.8,0,0,1,39,14.46c0.51,0.44,1,.87,1.51,1.32q2,1.83,3.84,3.84c0.45,0.49.88,1,1.32,1.51A59.9,59.9,0,0,1,141.26,75c0,0.28,0,.55,0,0.83h1A60.9,60.9,0,0,0,127.51,36.07Z" transform="translate(-20.08 -14.71)"/><path class="cls-11" d="M42.17,121.49c-0.5-.43-1-0.86-1.5-1.31a2.71,2.71,0,0,0-3.83-3.83c-0.45-.49-0.88-1-1.31-1.5a59.83,59.83,0,0,1-14.45-39h-1a60.82,60.82,0,0,0,14.78,39.78c0.45,0.53.91,1.06,1.38,1.57a2.69,2.69,0,0,0-.28,1.19,2.73,2.73,0,0,0,2.72,2.72,2.69,2.69,0,0,0,1.19-.28c0.51,0.47,1,.93,1.57,1.38a60.82,60.82,0,0,0,39.75,14.75v-1l-0.75,0A59.82,59.82,0,0,1,42.17,121.49Z" transform="translate(-20.08 -14.71)"/><path class="cls-12" d="M146.16,75.86h-5v0.75c0,0.62,0,1.41,0,1.5,0,0.72,0,1.44-.07,2.16q0,0.79-.09,1.58-0.13,1.84-.38,3.65c-0.07.52-.14,1-0.22,1.57-0.2,1.22-.45,2.42-0.72,3.61-0.12.51-.23,1-0.37,1.54-0.31,1.18-.66,2.35-1,3.5q-0.25.75-.52,1.5c-0.41,1.15-.85,2.28-1.34,3.4-0.21.48-.44,1-0.66,1.44-0.53,1.15-1.09,2.28-1.7,3.39-0.25.46-.53,0.91-0.79,1.37-0.63,1.07-1.28,2.13-2,3.16-0.29.44-.6,0.87-0.91,1.3q-1.07,1.51-2.23,2.94c-0.33.41-.67,0.81-1,1.21q-1.22,1.42-2.52,2.75-0.55.57-1.12,1.12-1.3,1.26-2.67,2.44c-0.4.34-.8,0.69-1.21,1-1,.79-2,1.54-3,2.27-0.43.31-.86,0.62-1.29,0.91-1,.67-2,1.31-3.08,1.92-0.45.27-.91,0.54-1.37,0.79-1.08.6-2.19,1.15-3.32,1.68l-1.44.66q-1.73.76-3.52,1.4l-1.5.51c-1.16.38-2.32,0.74-3.51,1-0.51.13-1,.24-1.54,0.36-1.19.27-2.39,0.52-3.61,0.72-0.52.09-1,.16-1.57,0.23q-1.81.25-3.65,0.38l-1.58.1c-0.79,0-1.57.07-2.37,0.07H81.18v5h2.13a62.84,62.84,0,0,0,42.11-16.45,3,3,0,0,1,4.29-4.3,62.82,62.82,0,0,0,16.45-41.91C146.16,78,146.16,76,146.16,75.86Z" transform="translate(-20.08 -14.71)"/><path class="cls-1" d="M42.84,34.43a3,3,0,1,0-3,3A3,3,0,0,0,42.84,34.43Z" transform="translate(-20.08 -14.71)"/><path class="cls-12" d="M124.56,122.23a3,3,0,1,0,3-3A3,3,0,0,0,124.56,122.23Z" transform="translate(-20.08 -14.71)"/></svg>