<svg preserveAspectRatio="none" id="BACKGROUND_2" data-name="BACKGROUND 2" xmlns="http://www.w3.org/2000/svg" viewBox="0 0 98.88 99.38"><defs><style>.cls-1,.cls-2{fill:none;stroke:#0071bc;stroke-miterlimit:10;}.cls-2{stroke-width:0.84px;stroke-dasharray:1 1;}.cls-3{fill:#0071bc;}</style></defs><title>circle18</title><circle class="cls-1" cx="49.44" cy="49.94" r="42.72"/><circle class="cls-2" cx="49.44" cy="49.94" r="35.93"/><line class="cls-1" x1="49.44" y1="23.28" x2="49.44" y2="76.61"/><path class="cls-1" d="M1513.7,358.05l-1.51,6.54a43.11,43.11,0,0,0-19-.06l-1.48-6.55A49.57,49.57,0,0,1,1513.7,358.05Z" transform="translate(-1453.11 -356.28)"/><line class="cls-1" x1="76.11" y1="49.94" x2="22.78" y2="49.94"/><path class="cls-3" d="M1502.56,356.78a49.09,49.09,0,0,0-10.85,1.2l1.48,6.55a43.11,43.11,0,0,1,19,.06l1.51-6.54A49.28,49.28,0,0,0,1502.56,356.78Z" transform="translate(-1453.11 -356.28)"/><path class="cls-3" d="M1467.6,371.26a49.09,49.09,0,0,0-6.82,8.52l5.68,3.58A43.11,43.11,0,0,1,1479.93,370l-3.56-5.69A49.28,49.28,0,0,0,1467.6,371.26Z" transform="translate(-1453.11 -356.28)"/><path class="cls-3" d="M1453.11,406.22a49.09,49.09,0,0,0,1.2,10.85l6.55-1.48a43.11,43.11,0,0,1,.06-19l-6.54-1.51A49.28,49.28,0,0,0,1453.11,406.22Z" transform="translate(-1453.11 -356.28)"/><path class="cls-3" d="M1467.59,441.18a49.09,49.09,0,0,0,8.52,6.82l3.59-5.68a43.11,43.11,0,0,1-13.39-13.48l-5.69,3.56A49.28,49.28,0,0,0,1467.59,441.18Z" transform="translate(-1453.11 -356.28)"/><path class="cls-3" d="M1502.55,455.66a49.1,49.1,0,0,0,10.85-1.2l-1.48-6.55a43.11,43.11,0,0,1-19-.06l-1.51,6.54A49.28,49.28,0,0,0,1502.55,455.66Z" transform="translate(-1453.11 -356.28)"/><path class="cls-3" d="M1537.52,441.19a49.09,49.09,0,0,0,6.82-8.52l-5.68-3.59a43.11,43.11,0,0,1-13.48,13.39l3.56,5.69A49.28,49.28,0,0,0,1537.52,441.19Z" transform="translate(-1453.11 -356.28)"/><path class="cls-3" d="M1552,406.23a49.09,49.09,0,0,0-1.2-10.85l-6.55,1.48a43.11,43.11,0,0,1-.06,19l6.54,1.51A49.28,49.28,0,0,0,1552,406.23Z" transform="translate(-1453.11 -356.28)"/><path class="cls-3" d="M1537.52,371.26a49.09,49.09,0,0,0-8.52-6.82l-3.59,5.68a43.11,43.11,0,0,1,13.39,13.48l5.69-3.56A49.28,49.28,0,0,0,1537.52,371.26Z" transform="translate(-1453.11 -356.28)"/></svg>