<svg preserveAspectRatio="none" data-name="图层 1" xmlns="http://www.w3.org/2000/svg" viewBox="0 0 103.17 103.17"><defs><linearGradient id="a" x1="29.91" y1="99.37" x2="29.91" gradientUnits="userSpaceOnUse"><stop offset=".03" stop-color="#71ebb2"/><stop offset=".99" stop-color="#339567"/></linearGradient><linearGradient id="b" x1="69.27" y1="103.17" x2="69.27" y2="4.35" gradientUnits="userSpaceOnUse"><stop offset=".01" stop-color="#5d85c4"/><stop offset="1" stop-color="#334f7e"/></linearGradient></defs><path d="M52.83 95.67a42.83 42.83 0 1142.84-42.84 42.88 42.88 0 01-42.84 42.84zm0-80.67a37.83 37.83 0 1037.84 37.83A37.88 37.88 0 0052.83 15z" fill="#2e2855"/><path d="M36.36 80.65a32.43 32.43 0 01-12.5-13.47l3.58-1.78a28.45 28.45 0 0011 11.81z" fill="#d13954"/><path d="M58.58 83.64l-.37-2a29.44 29.44 0 0021.23-16.45 29.34 29.34 0 001.08-22.07 29.52 29.52 0 00-10.21-13.84l1.19-1.6a31.51 31.51 0 0110.9 14.78A31.34 31.34 0 0181.25 66a31.43 31.43 0 01-22.67 17.64z" fill="#3ee497"/><path d="M28.71 40l-5.29-2.83a33.62 33.62 0 0116-14.84 33 33 0 0113.41-2.83 33.66 33.66 0 014 .24l-.72 6a27.54 27.54 0 00-3.3-.2 27.06 27.06 0 00-11 2.31A27.59 27.59 0 0028.71 40z" fill="#3d6db8"/><path d="M27.81 99.37A52.84 52.84 0 0152.83 0a53.48 53.48 0 017 .46l-.66 5A48.48 48.48 0 0052.83 5a47.84 47.84 0 00-22.65 90z" fill="url(#a)"/><path d="M54.83 103.17h-4v-10h4v10zm3.9-.31L57.17 93l4-.63 1.56 9.88zm-11.8 0l-4-.63 1.56-9.88 4 .63zm19.55-1.54l-3.08-9.51 3.8-1.24 3.09 9.51zm-27.3 0l-3.8-1.24 3.09-9.51 3.8 1.24zm34.72-2.73l-4.54-8.91 3.56-1.82 4.54 8.91zm6.9-3.86l-5.88-8.09 3.24-2.35L84 92.38zm6.2-4.89l-7.07-7.07 2.83-2.83L89.84 87zM92.38 84l-8.09-5.88 2.35-3.24 8.09 5.88zm4.39-6.57l-8.91-4.54 1.82-3.56 8.91 4.54zm3.31-7.18l-9.51-3.05 1.24-3.8 9.51 3.09zm2.15-7.61l-9.88-1.56.63-4 9.88 1.56zm.93-7.85h-10v-4h10v4zM93 48.5l-.63-4 9.86-1.5.63 4zm-1.17-6.23l-1.24-3.8 9.51-3.09 1.24 3.8zm-2.13-6l-1.82-3.56 8.91-4.54 1.82 3.56zm-3-5.56l-2.35-3.24 8.09-5.88 2.35 3.24zm-3.87-5l-2.89-2.81L87 15.83l2.83 2.83zm-4.61-4.35L74.92 19l5.88-8.09 3.2 2.38zm-5.29-3.56L69.36 16l4.54-8.92 3.56 1.82zm-5.73-2.71l-3.8-1.24 3.09-9.51 3.8 1.24z" fill="url(#b)"/></svg>