<svg preserveAspectRatio="none" xmlns="http://www.w3.org/2000/svg" xmlns:xlink="http://www.w3.org/1999/xlink" viewBox="0 0 240.46 254.89"><defs><style>.cls-1{isolation:isolate;}.cls-2{opacity:0.23;}.cls-3,.cls-7{fill:#fff;}.cls-3,.cls-8{mix-blend-mode:overlay;}.cls-4,.cls-5,.cls-6{mix-blend-mode:screen;}.cls-4{fill:url(#linear-gradient);}.cls-5{fill:url(#linear-gradient-2);}.cls-6{fill:url(#linear-gradient-3);}</style><linearGradient id="linear-gradient" x1="328.55" y1="224.98" x2="359.56" y2="171.87" gradientUnits="userSpaceOnUse"><stop offset="0" stop-color="#2974e2"/><stop offset="0.8"/></linearGradient><linearGradient id="linear-gradient-2" x1="263.11" y1="132.31" x2="316.43" y2="132.31" gradientUnits="userSpaceOnUse"><stop offset="0.22"/><stop offset="1" stop-color="#2974e2"/></linearGradient><linearGradient id="linear-gradient-3" x1="240.53" y1="178.05" x2="282.23" y2="231.88" gradientUnits="userSpaceOnUse"><stop offset="0" stop-color="#2974e2"/><stop offset="0.84"/></linearGradient></defs><title>circle100</title><g class="cls-1"><g id="Layer_5" data-name="Layer 5"><g class="cls-2"><path class="cls-3" d="M300,286.51A106.47,106.47,0,1,1,406.47,180,106.59,106.59,0,0,1,300,286.51Zm0-211.25A104.78,104.78,0,1,0,404.78,180,104.9,104.9,0,0,0,300,75.26Z" transform="translate(-183.88 -60.43)"/><path class="cls-3" d="M300,259.57A79.53,79.53,0,1,1,379.53,180,79.62,79.62,0,0,1,300,259.57Zm0-158.21A78.68,78.68,0,1,0,378.68,180,78.77,78.77,0,0,0,300,101.35Z" transform="translate(-183.88 -60.43)"/><path class="cls-3" d="M300,240.25h0a60.19,60.19,0,0,1-39.38-14.67l5.53-6.39A51.73,51.73,0,0,0,300,231.79Zm4.29-.15-0.6-8.44a51.69,51.69,0,0,0,32.88-15l6,6A60.15,60.15,0,0,1,304.33,240.1Zm-46.86-17.44a60.14,60.14,0,0,1-17.52-38.25l8.44-.61a51.68,51.68,0,0,0,15.06,32.87Zm88-3.2-6.39-5.54A51.73,51.73,0,0,0,351.75,180v-0.16h8.46V180A60.23,60.23,0,0,1,345.52,219.45ZM239.79,180.12V180a60.2,60.2,0,0,1,14.64-39.35l6.4,5.53A51.74,51.74,0,0,0,248.25,180Zm111.83-3.92a51.68,51.68,0,0,0-15.11-32.84l6-6A60.14,60.14,0,0,1,360,175.58Zm-88.27-32.69-6-6A60.14,60.14,0,0,1,295.58,120l0.61,8.44A51.69,51.69,0,0,0,263.34,143.51Zm70.46-2.67A51.74,51.74,0,0,0,300,128.28h-0.12v-8.46H300a60.2,60.2,0,0,1,39.32,14.61Z" transform="translate(-183.88 -60.43)"/><path class="cls-3" d="M300,237.29A57.25,57.25,0,1,1,357.25,180,57.32,57.32,0,0,1,300,237.29Zm0-112A54.71,54.71,0,1,0,354.71,180,54.78,54.78,0,0,0,300,125.32Z" transform="translate(-183.88 -60.43)"/><path class="cls-3" d="M300,214.38A34.34,34.34,0,1,1,334.34,180,34.38,34.38,0,0,1,300,214.38Zm0-66.14A31.8,31.8,0,1,0,331.8,180,31.84,31.84,0,0,0,300,148.24Z" transform="translate(-183.88 -60.43)"/><path class="cls-3" d="M300.05,270v-7.61a82.28,82.28,0,0,0,41.14-11l3.81,6.59A89.91,89.91,0,0,1,300.05,270Zm-45-12a90.39,90.39,0,0,1-32.94-32.88l6.59-3.82a82.77,82.77,0,0,0,30.16,30.11Zm122.83-33-6.59-3.81a82.29,82.29,0,0,0,11-41.15v-0.2h7.61V180A90,90,0,0,1,377.91,225ZM217.68,180.14h-7.61V180a89.92,89.92,0,0,1,12-44.87l6.59,3.8a82.29,82.29,0,0,0-11,41.07v0.1Zm153.55-41.41A82.76,82.76,0,0,0,341,108.65l3.8-6.6a90.4,90.4,0,0,1,33,32.84Zm-112.5-29.93-3.82-6.58A89.9,89.9,0,0,1,299.84,90.1v7.61A82.28,82.28,0,0,0,258.73,108.79Z" transform="translate(-183.88 -60.43)"/><path class="cls-3" d="M300,270h-0.88l0.07-7.61H300Zm0.88,0-0.07-7.61h0.8L301.8,270h-0.89Zm-2.64,0-0.89,0,0.22-7.61,0.8,0Zm4.4,0-0.22-7.61,0.81,0,0.29,7.61Zm-6.17,0-0.88,0,0.36-7.6,0.81,0Zm7.94,0-0.38-7.6,0.81,0,0.45,7.6Zm-9.7,0-0.88-.06,0.51-7.59,0.81,0.05Zm11.46-.06-0.51-7.6,0.81-.06,0.58,7.59ZM293,269.71l-0.89-.07,0.67-7.58,0.8,0.07Zm15-.08L307.29,262l0.81-.07,0.74,7.58Zm-16.74-.08-0.88-.09,0.8-7.57L292,262Zm18.49-.09-0.8-7.57,0.8-.09,0.89,7.56Zm-20.25-.09-0.87-.11,1-7.55,0.81,0.1Zm22-.11-1-7.55,0.8-.11,1,7.54Zm-23.75-.11-0.88-.13,1.12-7.53,0.79,0.11Zm25.5-.13-1.11-7.53,0.8-.12,1.18,7.52ZM286,268.89l-0.87-.14,1.25-7.51,0.8,0.13Zm29-.15-1.25-7.51,0.79-.14,1.34,7.49Zm-30.74-.14-0.87-.16,1.41-7.48,0.8,0.15Zm32.48-.17-1.4-7.48,0.79-.15,1.48,7.47Zm-34.21-.16-0.86-.17,1.54-7.46L284,260.8Zm35.95-.19-1.56-7.45,0.79-.17,1.63,7.44Zm-37.68-.17-0.86-.19,1.7-7.42,0.79,0.18Zm39.4-.2-1.69-7.42,0.79-.19,1.76,7.41ZM279,267.52l-0.87-.21,1.85-7.38,0.78,0.19Zm42.84-.22L320,259.91l0.79-.2,1.92,7.37Zm-44.56-.21-0.86-.23,2-7.34,0.77,0.21Zm46.26-.24-2-7.35,0.78-.21,2.06,7.33Zm-48-.22-0.86-.25,2.14-7.31,0.77,0.22Zm49.67-.26-2.14-7.31,0.77-.23,2.21,7.28Zm-51.36-.23-0.86-.26,2.29-7.26,0.77,0.24Zm53-.28-2.27-7.27,0.77-.25,2.35,7.24Zm-54.75-.26-0.84-.28,2.42-7.22,0.77,0.26Zm56.42-.29-2.41-7.22,0.75-.26,2.5,7.19Zm-58.1-.27-0.85-.3,2.58-7.16,0.76,0.27Zm59.77-.31-2.55-7.17,0.75-.27,2.63,7.14Zm-61.44-.29-0.83-.31,2.71-7.12,0.76,0.29Zm63.1-.32-2.7-7.12,0.76-.29,2.77,7.09Zm-64.76-.31-0.83-.33,2.87-7.05,0.74,0.3Zm66.41-.33-2.85-7.06,0.75-.31,2.91,7Zm-68-.33-0.83-.35,3-7,0.74,0.31Zm69.68-.35-3-7,0.75-.32,3,7Zm-71.31-.34-0.81-.36,3.12-6.94,0.74,0.33Zm72.92-.36-3.13-6.94,0.74-.34,3.19,6.91Zm-74.54-.37-0.8-.37,3.25-6.88,0.74,0.35Zm76.14-.37-3.27-6.87,0.73-.35,3.33,6.84ZM260.73,261l-0.79-.39,3.39-6.82,0.73,0.36Zm79.32-.38-3.4-6.81,0.72-.36,3.47,6.78Zm-80.91-.41-0.78-.4,3.52-6.75,0.73,0.38Zm82.47-.39L338.08,253l0.72-.38,3.58,6.72Zm-84-.43-0.77-.42,3.65-6.68,0.72,0.39Zm85.59-.4-3.67-6.67,0.72-.4,3.71,6.64ZM256,258.51l-0.77-.44,3.79-6.6,0.7,0.4Zm88.67-.41-3.79-6.6,0.7-.41,3.85,6.57Zm-90.2-.47-0.77-.46,3.93-6.52,0.69,0.41Zm91.72-.42-3.91-6.53,0.69-.42,4,6.49ZM253,256.72l-0.75-.47,4.06-6.44,0.69,0.43Zm94.75-.43-4.05-6.44,0.68-.43,4.11,6.41Zm-96.25-.51-0.73-.48,4.17-6.37,0.69,0.45Zm97.73-.44L345,249l0.68-.45,4.23,6.33Zm-99.2-.53-0.74-.5,4.3-6.28,0.67,0.45Zm100.66-.45-4.28-6.29,0.66-.45,4.36,6.24Zm-102.12-.55-0.72-.51,4.42-6.2,0.67,0.47Zm103.58-.46-4.43-6.19,0.67-.48,4.47,6.16Zm-105-.56-0.71-.52,4.54-6.11,0.65,0.48Zm106.44-.47L349,246.2l0.65-.49,4.6,6.07Zm-107.85-.58-0.7-.54,4.66-6,0.64,0.49Zm109.26-.48-4.66-6,0.64-.5,4.71,6Zm-110.66-.6-0.69-.55,4.77-5.93,0.64,0.51Zm112-.49-4.78-5.92,0.63-.51L357,249.6Zm-113.42-.62-0.68-.56,4.89-5.83,0.62,0.52ZM357.69,249l-4.88-5.84,0.62-.52,4.94,5.79Zm-116.13-.64-0.68-.58,5-5.72,0.6,0.52ZM359,247.89l-5-5.74,0.61-.54,5,5.7Zm-118.81-.65-0.66-.59,5.13-5.63,0.6,0.54Zm120.13-.52-5.12-5.63,0.61-.55,5.15,5.6Zm-121.44-.66-0.65-.6,5.23-5.53,0.59,0.55Zm122.73-.53L356.43,240l0.59-.56,5.27,5.49Zm-124-.68-0.63-.61,5.33-5.43,0.58,0.57Zm125.28-.53-5.32-5.45,0.57-.56,5.38,5.38Zm-126.54-.7-0.63-.63,5.45-5.32,0.56,0.57Zm127.79-.55-5.43-5.34,0.56-.58,5.48,5.28Zm-129-.71-0.61-.64,5.54-5.22,0.56,0.59Zm130.25-.56-5.54-5.23,0.56-.59,5.58,5.18Zm-131.46-.72-0.59-.65,5.63-5.13,0.55,0.6Zm132.66-.57L361,235.37l0.54-.6,5.69,5.06Zm-133.84-.74-0.58-.66,5.73-5,0.54,0.61Zm135-.58-5.74-5,0.53-.62,5.78,5Zm-136.18-.74-0.57-.68,5.84-4.88,0.52,0.61Zm137.32-.59-5.82-4.91,0.51-.61,5.88,4.83Zm-138.45-.76-0.56-.69,5.94-4.76,0.5,0.62ZM370,236.46l-5.93-4.77,0.51-.64,6,4.72Zm-140.69-.77-0.54-.69,6-4.66,0.5,0.64Zm141.79-.62-6-4.66,0.5-.65,6.06,4.61Zm-142.87-.78-0.52-.7,6.11-4.54,0.49,0.65Zm143.93-.63-6.11-4.55,0.48-.65,6.15,4.48Zm-145-.78-0.52-.72,6.21-4.41,0.47,0.65Zm146-.65-6.2-4.42,0.47-.67,6.24,4.37Zm-147-.79-0.51-.73,6.29-4.28,0.45,0.66Zm148.05-.65L368,226.49l0.45-.66,6.33,4.23Zm-149-.8-0.49-.74,6.37-4.17,0.44,0.67Zm150-.67-6.37-4.18,0.44-.68,6.4,4.11Zm-151-.81-0.47-.74,6.45-4,0.43,0.68Zm152-.68-6.45-4,0.43-.69,6.48,4ZM223.3,227l-0.46-.75,6.52-3.92,0.42,0.69Zm153.82-.7-6.52-3.93,0.41-.69,6.57,3.85Zm-154.72-.81-0.45-.77,6.61-3.78,0.4,0.69ZM378,224.81l-6.6-3.79,0.4-.71,6.63,3.74ZM221.52,224l-0.42-.76,6.67-3.67,0.39,0.71Zm157.37-.73-6.67-3.66,0.39-.72,6.7,3.61Zm-158.22-.81-0.41-.78,6.74-3.53,0.38,0.71Zm159.05-.75L373,218.18l0.37-.72,6.78,3.47Zm-159.87-.82-0.39-.78,6.81-3.4,0.37,0.73Zm160.67-.76-6.81-3.39,0.36-.73,6.84,3.33Zm-161.46-.81-0.38-.79,6.88-3.26,0.35,0.73Zm162.24-.78-6.88-3.25,0.35-.74,6.91,3.2Zm-163-.81-0.37-.8,6.94-3.12,0.33,0.73Zm163.73-.8-6.94-3.12,0.33-.74,7,3Zm-164.45-.8-0.35-.81,7-3,0.32,0.74Zm165.16-.81-7-3,0.31-.74,7,2.92ZM216.9,214.5l-0.33-.81,7.06-2.86,0.31,0.75Zm166.53-.83-7.06-2.84,0.3-.76,7.09,2.78Zm-167.19-.8-0.32-.82,7.11-2.71,0.29,0.76ZM384.08,212L377,209.31l0.29-.76,7.14,2.65Zm-168.47-.8-0.3-.83,7.16-2.58,0.28,0.76Zm169.08-.86-7.16-2.58,0.27-.75,7.19,2.49ZM215,209.56l-0.29-.84L222,206.3l0.26,0.76Zm170.26-.87-7.21-2.44,0.25-.76,7.24,2.35Zm-170.82-.81-0.27-.84,7.26-2.28,0.25,0.77ZM385.83,207l-7.26-2.29,0.24-.77,7.29,2.2Zm-171.9-.8-0.25-.85,7.31-2.14,0.23,0.77Zm172.41-.89-7.3-2.14,0.22-.77,7.33,2.05Zm-172.91-.8-0.24-.85,7.35-2,0.22,0.78Zm173.39-.9-7.35-2,0.21-.78,7.37,1.92ZM213,202.8l-0.22-.85,7.38-1.85,0.2,0.79Zm174.29-.9L379.88,200l0.19-.78,7.41,1.76Zm-174.72-.81-0.2-.86,7.42-1.69,0.18,0.78Zm175.13-.9-7.42-1.72c0.06-.26.12-0.52,0.17-0.78l7.44,1.63Zm-175.53-.82L212,198.5l7.45-1.55,0.17,0.79Zm175.9-.91-7.45-1.56,0.16-.78,7.47,1.47C388.17,197.87,388.11,198.16,388,198.45Zm-176.26-.81-0.17-.88,7.48-1.39q0.07,0.39.15,0.78Zm176.61-.92-7.48-1.41,0.15-.8,7.49,1.34Zm-176.94-.82-0.15-.87,7.51-1.26,0.14,0.8ZM388.7,195l-7.51-1.25,0.13-.8,7.52,1.18Zm-177.54-.82-0.13-.87,7.53-1.11,0.12,0.8ZM389,193.23l-7.53-1.12c0-.26.08-0.53,0.11-0.79l7.54,1C389.06,192.65,389,192.94,389,193.23Zm-178.07-.83q-0.06-.44-0.12-0.88l7.55-1q0.05,0.4.11,0.8Zm178.31-.93-7.55-1,0.1-.81,7.56,0.89Zm-178.53-.82q-0.05-.44-0.1-0.88l7.57-.81,0.09,0.8Zm178.74-.94-7.57-.8,0.08-.81,7.58,0.74Zm-178.93-.82-0.08-.88,7.58-.67,0.08,0.81Zm179.1-.93L382,187.3c0-.27,0-0.53.07-0.8l7.59,0.58Q389.63,187.53,389.59,188Zm-179.25-.83q0-.44-0.06-0.88l7.59-.51,0.06,0.8Zm179.39-.93-7.59-.51,0.05-.81,7.6,0.45Zm-179.51-.83q0-.44,0-0.88l7.6-.37,0,0.8Zm179.61-.93-7.6-.38c0-.27,0-0.53,0-0.8l7.61,0.29C389.86,183.86,389.85,184.16,389.83,184.45Zm-179.7-.83q0-.44,0-0.88l7.61-.22,0,0.8Zm179.77-.94-7.61-.22,0-.81,7.61,0.16Zm-179.82-.82q0-.44,0-0.88l7.61-.08v0.8Zm179.85-.95-7.61-.07V180l7.61-.11v1Zm-179.87-.82v-0.88l7.61,0.07V180Zm172.26-1v-0.81l7.61-.16V179Zm-164.63-.65-7.61-.14,0-.88,7.61,0.21Zm164.6-1q0-.4,0-0.8l7.61-.31q0,0.44,0,.89Zm-164.55-.65-7.61-.29q0-.44,0-0.88l7.6,0.37Zm164.49-1,0-.81,7.6-.45,0,0.88Zm-164.41-.65-7.6-.43q0-.44.05-0.88l7.59,0.51Zm164.31-1q0-.4-0.06-0.8l7.59-.6q0,0.44.07,0.89Zm-164.21-.65-7.59-.58q0-.44.07-0.88l7.58,0.66Zm164.08-1-0.08-.81,7.58-.74,0.08,0.88ZM218.06,172l-7.58-.74,0.09-.88,7.57,0.8Zm163.78-1-0.09-.81,7.56-.89,0.1,0.87Zm-163.61-.65-7.56-.88q0.05-.44.11-0.88l7.55,1Zm163.42-1q-0.05-.4-0.11-0.79l7.54-1q0.06,0.44.12,0.88Zm-163.22-.64-7.54-1q0.06-.44.12-0.88l7.53,1.11Zm163-1-0.12-.8,7.52-1.18,0.13,0.87Zm-162.76-.64L211.15,166l0.14-.87,7.51,1.25Zm162.51-1-0.14-.8,7.49-1.34,0.15,0.87Zm-162.24-.64-7.5-1.33,0.16-.87,7.48,1.39Zm162-1c0-.26-0.1-0.52-0.15-0.79l7.46-1.5,0.17,0.87ZM219.23,164l-7.47-1.47,0.18-.87,7.45,1.55Zm161.35-1-0.17-.78,7.44-1.63,0.19,0.87Zm-161-.63-7.44-1.62,0.19-.87,7.42,1.71Zm160.67-.95-0.18-.78,7.4-1.79q0.11,0.43.2,0.87Zm-160.31-.63-7.41-1.76,0.21-.86,7.39,1.84Zm159.93-.94-0.2-.78,7.37-1.92,0.22,0.85Zm-159.54-.63-7.37-1.92,0.22-.85,7.35,2Zm159.13-.94-0.21-.77,7.32-2.08,0.24,0.86Zm-158.71-.62-7.33-2.06,0.24-.84L221,157ZM379,156.81l-0.23-.78,7.29-2.21,0.25,0.84Zm-157.82-.63-7.29-2.2,0.26-.85,7.27,2.27Zm157.35-.92-0.24-.76,7.24-2.36L385.8,153Zm-156.87-.62-7.24-2.34,0.28-.84,7.22,2.42ZM378,153.72l-0.26-.76,7.19-2.5,0.29,0.84Zm-155.85-.62L215,150.61l0.3-.84,7.17,2.57Zm155.32-.9-0.28-.76,7.14-2.63,0.3,0.83Zm-154.77-.63-7.14-2.63,0.31-.83,7.12,2.7Zm154.21-.89-0.29-.74,7.08-2.79,0.32,0.84Zm-153.63-.62-7.09-2.78,0.33-.82,7.06,2.84Zm153.05-.87-0.31-.75,7-2.92,0.33,0.8Zm-152.44-.64-7-2.91,0.34-.82,7,3Zm151.83-.85-0.32-.74,7-3.07,0.35,0.81Zm-151.19-.64-7-3.06,0.36-.8,6.94,3.12Zm150.54-.84-0.33-.73,6.91-3.2,0.37,0.8Zm-149.88-.64-6.91-3.19,0.38-.8,6.88,3.26Zm149.2-.82-0.35-.73,6.84-3.34,0.38,0.79Zm-148.51-.65-6.85-3.32,0.39-.8,6.81,3.4Zm147.8-.8-0.36-.72,6.77-3.47,0.4,0.79Zm-147.08-.65-6.78-3.46,0.41-.79L227,142ZM373,141.88l-0.38-.71,6.71-3.6,0.41,0.78Zm-145.6-.65-6.71-3.59,0.42-.78,6.67,3.66Zm144.84-.77-0.39-.7,6.63-3.74,0.43,0.77Zm-144.06-.65-6.64-3.73,0.43-.76,6.6,3.79Zm143.27-.76-0.41-.7,6.57-3.85,0.44,0.76ZM229,138.41l-6.57-3.85,0.45-.77,6.52,3.92Zm141.64-.73-0.42-.7,6.49-4,0.45,0.74ZM229.79,137l-6.49-4,0.46-.75,6.45,4Zm140-.72-0.43-.68,6.4-4.11,0.47,0.74Zm-139.1-.65-6.41-4.11,0.48-.74L231.1,135Zm138.23-.71-0.45-.67,6.32-4.24,0.49,0.73Zm-137.34-.65-6.33-4.23,0.5-.73,6.28,4.3ZM368,133.6l-0.46-.66,6.24-4.36,0.5,0.73ZM232.45,133l-6.24-4.36,0.51-.72,6.2,4.42Zm134.61-.68-0.47-.65,6.15-4.49,0.52,0.71Zm-133.67-.64-6.15-4.48,0.52-.71,6.11,4.53ZM366.11,131l-0.48-.65,6.06-4.6,0.53,0.7Zm-131.76-.63-6.06-4.6,0.53-.7,6,4.65Zm130.78-.66-0.5-.64,6-4.71,0.54,0.69Zm-129.79-.63-6-4.72,0.55-.69,5.93,4.78Zm128.79-.64-0.52-.63,5.89-4.83,0.55,0.68Zm-127.77-.62L230.48,123l0.56-.68,5.83,4.89Zm126.74-.63-0.52-.61,5.78-5,0.57,0.68Zm-125.71-.6-5.78-4.95,0.58-.67,5.73,5Zm124.66-.62-0.53-.6,5.68-5.07,0.59,0.67Zm-123.59-.6-5.69-5.06,0.59-.65,5.64,5.11ZM361,124.74l-0.54-.59L366,119l0.6,0.65Zm-121.43-.59L234,119l0.6-.65,5.54,5.22Zm120.33-.6-0.56-.59,5.49-5.27,0.6,0.63ZM240.66,123l-5.49-5.28,0.62-.63,5.43,5.33Zm118.11-.58-0.57-.58,5.38-5.38,0.62,0.63Zm-117-.57-5.38-5.38,0.63-.62,5.33,5.43Zm115.83-.57-0.58-.56,5.28-5.49,0.63,0.61Zm-114.68-.56-5.28-5.49,0.64-.61,5.22,5.54Zm113.52-.56-0.59-.55L361,114l0.65,0.6Zm-112.34-.55L239,114l0.65-.6,5.11,5.64ZM355.28,119l-0.6-.54,5.06-5.69,0.66,0.59Zm-110-.53-5.06-5.69,0.66-.58,5,5.74ZM354.07,118l-0.61-.53,4.94-5.79,0.67,0.58Zm-107.53-.52-4.95-5.79,0.67-.57,4.89,5.83Zm106.3-.53-0.62-.51L357,110.5l0.68,0.57Zm-105.06-.51-4.83-5.88,0.68-.56,4.78,5.93Zm103.81-.52-0.63-.51,4.72-6,0.69,0.55ZM249,115.38l-4.71-6,0.69-.54,4.66,6Zm101.29-.51-0.65-.5,4.6-6.06,0.7,0.53Zm-100-.48-4.6-6.06,0.71-.53,4.54,6.11ZM349,113.9l-0.66-.48,4.48-6.15,0.71,0.52Zm-97.43-.47-4.48-6.16,0.71-.51,4.43,6.19Zm96.12-.48-0.67-.47,4.36-6.24,0.72,0.5Zm-94.8-.45-4.36-6.24,0.73-.5,4.3,6.28Zm93.47-.47-0.67-.45,4.23-6.33,0.73,0.49Zm-92.14-.43L250,105.26l0.73-.48,4.18,6.36Zm90.79-.47-0.68-.44,4.11-6.41,0.75,0.48Zm-89.44-.42-4.11-6.41,0.75-.47,4,6.45Zm88.08-.45-0.69-.43,4-6.48,0.75,0.46Zm-86.72-.4-4-6.49,0.75-.46,3.92,6.52Zm85.34-.44-0.7-.41,3.85-6.57,0.76,0.45Zm-84-.39-3.86-6.56,0.76-.44,3.79,6.6Zm82.56-.43-0.71-.4,3.73-6.64,0.77,0.44Zm-81.16-.37L256,101.57l0.77-.42,3.67,6.67Zm79.75-.42-0.71-.38,3.59-6.71,0.78,0.42Zm-78.33-.35-3.6-6.71,0.78-.41,3.52,6.75Zm76.9-.41-0.71-.37,3.46-6.78,0.79,0.41Zm-75.47-.33-3.46-6.78,0.79-.4,3.39,6.82Zm74-.4-0.73-.36,3.32-6.85L340,99.47ZM264,106l-3.33-6.85,0.8-.38,3.26,6.88Zm71.15-.39-0.74-.35,3.19-6.91,0.8,0.37Zm-69.69-.3-3.19-6.91,0.8-.36,3.13,6.94Zm68.21-.38-0.74-.33,3-7L336.82,98Zm-66.74-.28-3.06-7,0.81-.35,3,7Zm65.26-.36-0.75-.31,2.92-7,0.81,0.34ZM268.43,104l-2.93-7,0.82-.34,2.85,7.06Zm62.28-.35-0.75-.3,2.77-7.09,0.83,0.33Zm-60.79-.25-2.78-7.09L268,96l2.72,7.11ZM329.2,103l-0.76-.29,2.63-7.14,0.83,0.31Zm-57.77-.24-2.64-7.14,0.83-.3,2.57,7.17Zm56.25-.32-0.77-.27L329.4,95l0.84,0.29ZM273,102.26l-2.5-7.19,0.84-.29,2.43,7.21Zm53.2-.31-0.78-.26,2.34-7.24,0.84,0.28Zm-51.67-.21-2.35-7.24,0.83-.27,2.3,7.26Zm50.11-.29-0.77-.24,2.2-7.29,0.85,0.26ZM276,101.26L273.82,94l0.84-.25,2.15,7.3Zm47-.28-0.77-.22,2.05-7.33,0.85,0.24Zm-45.47-.18-2.07-7.33,0.84-.23,2,7.34Zm43.92-.26-0.78-.2,1.9-7.37,0.86,0.23Zm-42.36-.17L277.21,93l0.85-.22,1.86,7.38Zm40.78-.24-0.77-.19,1.76-7.41,0.87,0.21ZM280.7,100l-1.78-7.4,0.86-.2,1.7,7.42Zm37.65-.22-0.78-.17,1.61-7.44,0.87,0.19Zm-36.08-.14-1.63-7.44,0.87-.19,1.55,7.45Zm34.5-.2L316,99.26l1.47-7.47L318.33,92Zm-32.91-.13-1.48-7.47,0.87-.17,1.4,7.48Zm31.33-.18L314.4,99l1.33-7.5,0.87,0.16ZM285.45,99l-1.34-7.49,0.87-.15,1.26,7.51Zm28.15-.16-0.79-.13L314,91.18l0.87,0.14ZM287,98.73l-1.18-7.52,0.87-.13,1.12,7.53Zm25-.15-0.8-.11,1-7.54L313.11,91Zm-23.36-.09-1-7.54,0.87-.12,1,7.55Zm21.77-.13-0.81-.1,0.88-7.56,0.87,0.11Zm-20.16-.08-0.89-7.56,0.88-.1L291,98.19Zm18.56-.11L308,98.1l0.72-7.58,0.88,0.09Zm-16.95-.07-0.75-7.58,0.88-.08L292.65,98ZM307.18,98l-0.8-.07L307,90.37l0.89,0.07ZM293.46,98l-0.59-7.59,0.88-.06,0.52,7.59Zm12.11-.07-0.8,0,0.43-7.6,0.88,0.05Zm-10.5,0-0.45-7.6,0.88,0,0.37,7.6Zm8.89-.05-0.81,0,0.29-7.61,0.88,0Zm-7.27,0-0.3-7.61,0.89,0,0.21,7.61Zm5.66,0-0.81,0,0.13-7.61,0.88,0Zm-4,0-0.16-7.61H299l0.08,7.61H298.3Zm2.43,0h-0.81V90.1h0.88Z" transform="translate(-183.88 -60.43)"/></g><path class="cls-3" d="M276,314.53a1.33,1.33,0,0,0,1.23-.83h0.83a2.13,2.13,0,1,1,0-1h-0.83A1.33,1.33,0,1,0,276,314.53Zm145.67-87.47v0.83a2.13,2.13,0,1,1,1,0v-0.83A1.33,1.33,0,1,0,421.71,227.06Z" transform="translate(-183.88 -60.43)"/></g><g id="Layer_2" data-name="Layer 2"><path class="cls-4" d="M324.09,221.75l2.51,4.33a53.57,53.57,0,0,0,26.63-46.22v-0.17h-5v0.21A48.54,48.54,0,0,1,324.09,221.75Z" transform="translate(-183.88 -60.43)"/><path class="cls-5" d="M299.89,131.54a48.35,48.35,0,0,1,24,6.38l2.49-4.34a53.41,53.41,0,0,0-53.32.17l2.52,4.32A48.31,48.31,0,0,1,299.89,131.54Z" transform="translate(-183.88 -60.43)"/><path class="cls-6" d="M273.28,226.13l2.5-4.33A48.53,48.53,0,0,1,251.55,180h-5A53.55,53.55,0,0,0,273.28,226.13Z" transform="translate(-183.88 -60.43)"/><path class="cls-3" d="M299.89,114.73a65.14,65.14,0,0,0-35.44,119.81,64.56,64.56,0,0,0,29.36,10.22q3,0.28,6.08.29A65.16,65.16,0,1,0,299.89,114.73Zm0,128.32a63.72,63.72,0,0,1-8.34-.55A63.18,63.18,0,1,1,299.89,243.05Z" transform="translate(-183.88 -60.43)"/><path class="cls-7" d="M299.89,122.3a57.59,57.59,0,0,0-18.17,112.24c0.89,0.3,1.78.57,2.69,0.82A57.59,57.59,0,1,0,299.89,122.3Zm0,114.43a56.84,56.84,0,1,1,56.84-56.84A56.91,56.91,0,0,1,299.89,236.73Z" transform="translate(-183.88 -60.43)"/><path class="cls-3" d="M408.67,133.35A118.93,118.93,0,0,0,233.73,79.88V85.1A114.59,114.59,0,0,1,404.67,135q1.44,3.42,2.62,6.88h4.58Q410.45,137.58,408.67,133.35ZM405,222.53a114.41,114.41,0,0,1-108.18,71.31l-0.73.73c1,0,2,.05,3,0.05a114.65,114.65,0,0,0,44.4-9l1.39,3.31a118,118,0,0,0,63.88-64.7q0.36-.87.69-1.74H405Zm-220.4-36.22h-0.74a114.49,114.49,0,0,0,8.74,37.54,112,112,0,0,0,5.14,10.69h0.85A114.79,114.79,0,0,1,184.62,186.31Z" transform="translate(-183.88 -60.43)"/><path class="cls-3" d="M299.89,132.46a47.43,47.43,0,1,0,47.43,47.43A47.48,47.48,0,0,0,299.89,132.46Zm0,94a46.6,46.6,0,1,1,46.6-46.6A46.66,46.66,0,0,1,299.89,226.49Z" transform="translate(-183.88 -60.43)"/><path class="cls-3" d="M309.53,259.66a81.52,81.52,0,0,1-9.64.58h0a80.29,80.29,0,0,1-73.68-48.38l3.67-1.59a76.32,76.32,0,0,0,70,46h0a77.66,77.66,0,0,0,9.16-.55Z" transform="translate(-183.88 -60.43)"/><g class="cls-8"><circle class="cls-7" cx="116.39" cy="27.37" r="0.83"/><circle class="cls-7" cx="295.45" cy="87.92" r="0.83" transform="translate(-188.07 -44.86) rotate(-3)"/><circle class="cls-7" cx="290.63" cy="88.3" r="0.83" transform="translate(-191.52 -29.56) rotate(-6)"/><circle class="cls-7" cx="285.85" cy="88.92" r="0.83" transform="translate(-194.27 -14.62) rotate(-9)"/><circle class="cls-7" cx="281.1" cy="89.79" r="0.83" transform="translate(-196.41 -0.03) rotate(-12)"/><circle class="cls-7" cx="276.41" cy="90.92" r="0.83" transform="translate(-197.99 14.2) rotate(-15)"/><circle class="cls-7" cx="271.78" cy="92.28" r="0.83" transform="translate(-199.09 28.07) rotate(-18)"/><circle class="cls-7" cx="267.22" cy="93.89" r="0.83" transform="translate(-199.78 41.57) rotate(-21)"/><circle class="cls-7" cx="262.76" cy="95.73" r="0.83" transform="translate(-200.1 54.71) rotate(-24)"/><circle class="cls-7" cx="258.4" cy="97.8" r="0.83" transform="translate(-200.12 67.56) rotate(-27)"/><circle class="cls-7" cx="254" cy="100.1" r="0.83" transform="translate(-199.9 79.98) rotate(-30)"/><circle class="cls-7" cx="249.88" cy="102.62" r="0.83" transform="translate(-199.45 92.23) rotate(-33)"/><circle class="cls-7" cx="245.9" cy="105.35" r="0.83" transform="translate(-198.84 104.22) rotate(-36)"/><circle class="cls-7" cx="242.06" cy="108.28" r="0.83" transform="translate(-198.08 116.03) rotate(-39)"/><circle class="cls-7" cx="238.39" cy="111.41" r="0.83" transform="translate(-197.2 127.69) rotate(-42)"/><circle class="cls-7" cx="234.88" cy="114.73" r="0.83" transform="translate(-196.21 139.27) rotate(-45)"/><circle class="cls-7" cx="231.72" cy="118.23" r="0.83" transform="translate(-195.07 150.89) rotate(-48)"/><circle class="cls-7" cx="228.58" cy="121.89" r="0.83" transform="translate(-193.88 162.4) rotate(-51)"/><circle class="cls-7" cx="225.64" cy="125.72" r="0.83" transform="translate(-192.58 173.94) rotate(-54)"/><circle class="cls-7" cx="208.3" cy="189.53" r="0.83" transform="translate(-202.54 -37.63) rotate(-6)"/><circle class="cls-7" cx="208.92" cy="194.32" r="0.83" transform="translate(-211.71 -25.34) rotate(-9)"/><circle class="cls-7" cx="209.79" cy="199.06" r="0.83" transform="translate(-220.68 -12.47) rotate(-12)"/><circle class="cls-7" cx="210.92" cy="203.76" r="0.83" transform="translate(-229.44 1.11) rotate(-15)"/><circle class="cls-7" cx="212.28" cy="208.39" r="0.83" transform="translate(-237.89 15.38) rotate(-18)"/><circle class="cls-7" cx="213.89" cy="212.94" r="0.83" transform="translate(-245.98 30.36) rotate(-21)"/><circle class="cls-7" cx="215.73" cy="217.4" r="0.83" transform="translate(-253.66 46.12) rotate(-24)"/><circle class="cls-7" cx="217.8" cy="221.76" r="0.83" transform="translate(-260.81 62.61) rotate(-27)"/><circle class="cls-7" cx="220.1" cy="226" r="0.83" transform="translate(-267.4 79.9) rotate(-30)"/><circle class="cls-7" cx="222.62" cy="230.12" r="0.83" transform="translate(-273.3 97.95) rotate(-33)"/><path class="cls-7" d="M300.88,272.2a0.83,0.83,0,0,1-.83.83h0a0.83,0.83,0,0,1,0-1.66h0A0.83,0.83,0,0,1,300.88,272.2Z" transform="translate(-183.88 -60.43)"/><circle class="cls-7" cx="304.88" cy="272.08" r="0.83" transform="translate(-197.69 -44.11) rotate(-3)"/><circle class="cls-7" cx="309.69" cy="271.7" r="0.83" transform="translate(-210.59 -26.56) rotate(-6)"/><circle class="cls-7" cx="314.48" cy="271.08" r="0.83" transform="matrix(0.99, -0.16, 0.16, 0.99, -222.41, -7.9)"/><circle class="cls-7" cx="319.23" cy="270.21" r="0.83" transform="translate(-233.08 11.84) rotate(-12)"/><circle class="cls-7" cx="323.92" cy="269.08" r="0.83" transform="matrix(0.97, -0.26, 0.26, 0.97, -242.48, 32.56)"/><circle class="cls-7" cx="328.55" cy="267.72" r="0.83" transform="translate(-250.53 54.2) rotate(-18)"/><circle class="cls-7" cx="333.1" cy="266.11" r="0.83" transform="translate(-257.12 76.63) rotate(-21)"/><circle class="cls-7" cx="337.56" cy="264.27" r="0.83" transform="translate(-262.19 99.74) rotate(-24)"/><circle class="cls-7" cx="341.92" cy="262.2" r="0.83" transform="translate(-265.65 123.4) rotate(-27)"/><circle class="cls-7" cx="346.17" cy="259.9" r="0.83" transform="translate(-267.45 147.46) rotate(-30)"/><circle class="cls-7" cx="350.29" cy="257.38" r="0.83" transform="translate(-267.55 171.88) rotate(-33)"/><circle class="cls-7" cx="354.27" cy="254.65" r="0.83" transform="translate(-265.9 196.46) rotate(-36)"/><circle class="cls-7" cx="358.1" cy="251.72" r="0.83" transform="translate(-262.49 221.05) rotate(-39)"/><circle class="cls-7" cx="361.78" cy="248.59" r="0.83" transform="translate(-257.29 245.52) rotate(-42)"/><circle class="cls-7" cx="365.28" cy="245.27" r="0.83" transform="translate(-250.32 269.7) rotate(-45)"/><circle class="cls-7" cx="368.61" cy="241.77" r="0.83" transform="matrix(0.67, -0.74, 0.74, 0.67, -241.6, 293.47)"/><circle class="cls-7" cx="371.75" cy="238.11" r="0.83" transform="translate(-231.12 316.74) rotate(-51)"/><circle class="cls-7" cx="374.69" cy="234.28" r="0.83" transform="translate(-218.96 339.28) rotate(-54)"/><circle class="cls-7" cx="377.43" cy="230.31" r="0.83" transform="translate(-205.17 360.97) rotate(-57)"/><circle class="cls-7" cx="379.96" cy="226.19" r="0.83" transform="translate(-189.79 381.71) rotate(-60)"/><circle class="cls-7" cx="382.26" cy="221.95" r="0.83" transform="translate(-172.93 401.35) rotate(-63)"/><circle class="cls-7" cx="384.35" cy="217.6" r="0.83" transform="translate(-154.64 419.8) rotate(-66)"/><circle class="cls-7" cx="386.2" cy="213.14" r="0.83" transform="translate(-135.07 436.88) rotate(-69)"/><circle class="cls-7" cx="387.82" cy="208.59" r="0.83" transform="translate(-114.29 452.54) rotate(-72)"/><circle class="cls-7" cx="389.19" cy="203.97" r="0.83" transform="translate(-92.43 466.68) rotate(-75)"/><circle class="cls-7" cx="390.32" cy="199.28" r="0.83" transform="translate(-69.62 479.22) rotate(-78)"/><circle class="cls-7" cx="391.21" cy="194.53" r="0.83" transform="translate(-46 490.06) rotate(-81)"/><circle class="cls-7" cx="391.85" cy="189.75" r="0.83" transform="translate(-21.71 499.18) rotate(-84)"/><circle class="cls-7" cx="392.23" cy="184.93" r="0.83" transform="translate(3.13 506.51) rotate(-87)"/><circle class="cls-7" cx="208.48" cy="119.68" r="0.83"/><circle class="cls-7" cx="392.24" cy="175.28" r="0.83" transform="translate(-192.52 -39.65) rotate(-3)"/><circle class="cls-7" cx="391.87" cy="170.47" r="0.83" transform="translate(-199.56 -18.53) rotate(-6)"/><circle class="cls-7" cx="391.24" cy="165.68" r="0.83" transform="translate(-204.98 2.81) rotate(-9)"/><circle class="cls-7" cx="390.37" cy="160.94" r="0.83" transform="translate(-208.81 24.27) rotate(-12)"/><circle class="cls-7" cx="389.25" cy="156.24" r="0.83" transform="translate(-211.05 45.64) rotate(-15)"/><circle class="cls-7" cx="387.88" cy="151.61" r="0.83" transform="translate(-211.75 66.85) rotate(-18)"/><circle class="cls-7" cx="386.28" cy="147.06" r="0.83" transform="translate(-210.93 87.77) rotate(-21)"/><circle class="cls-7" cx="384.44" cy="142.6" r="0.83" transform="translate(-208.64 108.28) rotate(-24)"/><circle class="cls-7" cx="382.36" cy="138.24" r="0.83" transform="translate(-204.97 128.22) rotate(-27)"/><circle class="cls-7" cx="380.06" cy="134" r="0.83" transform="translate(-199.96 147.55) rotate(-30)"/><circle class="cls-7" cx="377.55" cy="129.88" r="0.83" transform="translate(-193.71 166.14) rotate(-33)"/><circle class="cls-7" cx="374.82" cy="125.9" r="0.83" transform="translate(-186.3 183.92) rotate(-36)"/><circle class="cls-7" cx="371.88" cy="122.06" r="0.83" transform="translate(-177.83 200.79) rotate(-39)"/><circle class="cls-7" cx="368.75" cy="118.39" r="0.83" transform="translate(-168.38 216.73) rotate(-42)"/><circle class="cls-7" cx="365.43" cy="114.88" r="0.83" transform="translate(-158.09 231.61) rotate(-45)"/><circle class="cls-7" cx="361.94" cy="111.56" r="0.83" transform="translate(-147.03 245.45) rotate(-48)"/><circle class="cls-7" cx="358.27" cy="108.42" r="0.83" transform="translate(-135.34 258.18) rotate(-51)"/><circle class="cls-7" cx="354.44" cy="105.47" r="0.83" transform="translate(-123.1 269.8) rotate(-54)"/><circle class="cls-7" cx="350.47" cy="102.74" r="0.83" transform="translate(-110.46 280.27) rotate(-57)"/><circle class="cls-7" cx="346.36" cy="100.21" r="0.83" transform="translate(-97.48 289.63) rotate(-60)"/><circle class="cls-7" cx="342.12" cy="97.9" r="0.83" transform="translate(-84.32 297.84) rotate(-63)"/><circle class="cls-7" cx="337.76" cy="95.82" r="0.83" transform="translate(-71.04 304.97) rotate(-66)"/><circle class="cls-7" cx="333.31" cy="93.96" r="0.83" transform="translate(-57.74 311.03) rotate(-69)"/><circle class="cls-7" cx="328.76" cy="92.35" r="0.83" transform="translate(-44.54 316.05) rotate(-72)"/><circle class="cls-7" cx="324.13" cy="90.97" r="0.83" transform="translate(-31.51 320.09) rotate(-75)"/><circle class="cls-7" cx="319.44" cy="89.84" r="0.83" transform="translate(-18.74 323.19) rotate(-78)"/><circle class="cls-7" cx="314.69" cy="88.95" r="0.83" transform="translate(-6.27 325.43) rotate(-81)"/><circle class="cls-7" cx="309.91" cy="88.32" r="0.83" transform="translate(5.8 326.87) rotate(-84)"/><circle class="cls-7" cx="305.1" cy="87.93" r="0.83" transform="translate(17.45 327.59) rotate(-87)"/></g><circle class="cls-7" cx="230.73" cy="190.89" r="0.63" transform="translate(-210.9 -21.98) rotate(-9)"/><circle class="cls-7" cx="231.4" cy="194.5" r="0.63" transform="translate(-219.26 -8.07) rotate(-12)"/><circle class="cls-7" cx="232.25" cy="198.07" r="0.63" transform="translate(-227.24 6.44) rotate(-15)"/><circle class="cls-7" cx="233.29" cy="201.59" r="0.63" transform="translate(-234.76 21.55) rotate(-18)"/><circle class="cls-7" cx="234.51" cy="205.05" r="0.63" transform="translate(-241.79 37.24) rotate(-21)"/><circle class="cls-7" cx="235.91" cy="208.44" r="0.63" transform="translate(-248.27 53.56) rotate(-24)"/><circle class="cls-7" cx="237.49" cy="211.76" r="0.63" transform="translate(-254.12 70.44) rotate(-26.99)"/><circle class="cls-7" cx="239.23" cy="214.99" r="0.63" transform="matrix(0.87, -0.5, 0.5, 0.87, -259.32, 87.99)"/><circle class="cls-7" cx="241.15" cy="218.12" r="0.63" transform="translate(-263.77 106.11) rotate(-33)"/><circle class="cls-7" cx="243.22" cy="221.15" r="0.63" transform="translate(-267.42 124.77) rotate(-36)"/><circle class="cls-7" cx="245.46" cy="224.06" r="0.63" transform="translate(-270.19 143.97) rotate(-39)"/><circle class="cls-7" cx="247.84" cy="226.86" r="0.63" transform="translate(-272.02 163.66) rotate(-42)"/><circle class="cls-7" cx="250.36" cy="229.52" r="0.63" transform="translate(-272.85 183.83) rotate(-45)"/><circle class="cls-7" cx="253.02" cy="232.05" r="0.63" transform="translate(-272.61 204.41) rotate(-48.01)"/><circle class="cls-7" cx="255.81" cy="234.44" r="0.63" transform="translate(-271.25 225.29) rotate(-51)"/><circle class="cls-7" cx="258.72" cy="236.68" r="0.63" transform="translate(-268.71 246.43) rotate(-54)"/><circle class="cls-7" cx="261.74" cy="238.76" r="0.63" transform="translate(-264.94 267.8) rotate(-57)"/><circle class="cls-7" cx="264.87" cy="240.68" r="0.63" transform="matrix(0.5, -0.87, 0.87, 0.5, -259.88, 289.29)"/><circle class="cls-7" cx="268.09" cy="242.44" r="0.63" transform="translate(-253.51 310.81) rotate(-63)"/><circle class="cls-7" cx="271.4" cy="244.02" r="0.63" transform="translate(-245.79 332.29) rotate(-66)"/><circle class="cls-7" cx="274.79" cy="245.43" r="0.63" transform="translate(-236.69 353.6) rotate(-69)"/><circle class="cls-7" cx="278.25" cy="246.66" r="0.63" transform="matrix(0.31, -0.95, 0.95, 0.31, -226.21, 374.62)"/><circle class="cls-7" cx="281.77" cy="247.71" r="0.63" transform="translate(-214.3 395.34) rotate(-75)"/><circle class="cls-7" cx="285.34" cy="248.57" r="0.63" transform="translate(-201 415.57) rotate(-78)"/><circle class="cls-7" cx="288.95" cy="249.24" r="0.63" transform="translate(-186.29 435.24) rotate(-81)"/><circle class="cls-7" cx="292.59" cy="249.73" r="0.63" transform="translate(-170.23 454.18) rotate(-84)"/><circle class="cls-7" cx="296.25" cy="250.02" r="0.63" transform="translate(-152.81 472.35) rotate(-87)"/><circle class="cls-7" cx="116.04" cy="189.69" r="0.63"/><circle class="cls-7" cx="303.59" cy="250.03" r="0.63" transform="translate(-196.55 -44.2) rotate(-3)"/><circle class="cls-7" cx="307.25" cy="249.74" r="0.63" transform="translate(-208.32 -26.93) rotate(-6)"/><circle class="cls-7" cx="310.89" cy="249.27" r="0.63" transform="matrix(0.99, -0.16, 0.16, 0.99, -219.05, -8.72)"/><circle class="cls-7" cx="314.5" cy="248.6" r="0.63" transform="translate(-228.69 10.39) rotate(-12)"/><circle class="cls-7" cx="318.07" cy="247.75" r="0.63" transform="translate(-237.16 30.33) rotate(-15)"/><circle class="cls-7" cx="321.59" cy="246.71" r="0.63" transform="translate(-244.38 51.02) rotate(-18)"/><circle class="cls-7" cx="325.05" cy="245.49" r="0.63" transform="translate(-250.27 72.38) rotate(-21)"/><circle class="cls-7" cx="328.44" cy="244.09" r="0.63" transform="translate(-254.77 94.28) rotate(-24)"/><circle class="cls-7" cx="331.76" cy="242.51" r="0.63" transform="translate(-257.82 116.61) rotate(-27)"/><circle class="cls-7" cx="334.99" cy="240.77" r="0.63" transform="matrix(0.87, -0.5, 0.5, 0.87, -259.38, 139.32)"/><circle class="cls-7" cx="338.12" cy="238.85" r="0.63" transform="translate(-259.42 162.28) rotate(-33)"/><circle class="cls-7" cx="341.15" cy="236.78" r="0.63" transform="translate(-257.9 185.28) rotate(-36)"/><circle class="cls-7" cx="344.06" cy="234.54" r="0.63" transform="translate(-254.81 208.37) rotate(-39)"/><circle class="cls-7" cx="346.86" cy="232.16" r="0.63" transform="translate(-250.13 231.3) rotate(-42)"/><circle class="cls-7" cx="349.52" cy="229.64" r="0.63" transform="translate(-243.89 253.98) rotate(-45)"/><circle class="cls-7" cx="352.05" cy="226.98" r="0.63" transform="translate(-236.08 276.29) rotate(-48)"/><circle class="cls-7" cx="354.44" cy="224.19" r="0.63" transform="translate(-226.73 298.12) rotate(-51)"/><circle class="cls-7" cx="356.68" cy="221.28" r="0.63" transform="translate(-215.87 319.36) rotate(-54)"/><circle class="cls-7" cx="358.76" cy="218.26" r="0.63" transform="matrix(0.54, -0.84, 0.84, 0.54, -203.58, 339.8)"/><circle class="cls-7" cx="360.68" cy="215.13" r="0.63" transform="matrix(0.5, -0.87, 0.87, 0.5, -189.85, 359.49)"/><circle class="cls-7" cx="362.44" cy="211.91" r="0.63" transform="translate(-174.79 378.22) rotate(-63)"/><circle class="cls-7" cx="364.02" cy="208.6" r="0.63" transform="translate(-158.47 395.89) rotate(-66)"/><circle class="cls-7" cx="365.43" cy="205.21" r="0.63" transform="translate(-140.97 412.41) rotate(-69)"/><circle class="cls-7" cx="366.66" cy="201.75" r="0.63" transform="translate(-122.41 427.67) rotate(-72)"/><circle class="cls-7" cx="367.71" cy="198.23" r="0.63" transform="translate(-102.81 441.67) rotate(-75)"/><circle class="cls-7" cx="368.57" cy="194.66" r="0.63" transform="translate(-82.35 454.27) rotate(-78)"/><circle class="cls-7" cx="369.24" cy="191.05" r="0.63" transform="translate(-61.1 465.43) rotate(-81)"/><g class="cls-8"><polygon class="cls-7" points="45.12 91.84 49.78 93.65 49.95 93.2 45.31 91.36 45.12 91.84"/><path class="cls-7" d="M348.21,128l0.7,0.66,3.46-3.61-0.75-.71Z" transform="translate(-183.88 -60.43)"/><path class="cls-7" d="M346.78,126.65l0.72,0.64,3.36-3.7-0.77-.69Z" transform="translate(-183.88 -60.43)"/><path class="cls-7" d="M349.61,129.29l0.68,0.68,3.55-3.52-0.73-.73Z" transform="translate(-183.88 -60.43)"/><path class="cls-7" d="M342.29,123l0.77,0.59,3-4-0.82-.62Z" transform="translate(-183.88 -60.43)"/><path class="cls-7" d="M351,130.66l0.66,0.69,3.65-3.42-0.71-.75Z" transform="translate(-183.88 -60.43)"/><path class="cls-7" d="M357.18,138l0.56,0.78,4.07-2.91-0.61-.84Z" transform="translate(-183.88 -60.43)"/><path class="cls-7" d="M345.32,125.4l0.74,0.63,3.25-3.8-0.78-.66Z" transform="translate(-183.88 -60.43)"/><path class="cls-7" d="M343.82,124.18l0.75,0.61,3.15-3.88-0.8-.65Z" transform="translate(-183.88 -60.43)"/><path class="cls-7" d="M358.3,139.59l0.54,0.79,4.15-2.79-0.58-.85Z" transform="translate(-183.88 -60.43)"/><path class="cls-7" d="M352.29,132.06l0.65,0.72,3.73-3.33-0.69-.76Z" transform="translate(-183.88 -60.43)"/><path class="cls-7" d="M356,136.49l0.59,0.77,4-3-0.63-.82Z" transform="translate(-183.88 -60.43)"/><path class="cls-7" d="M359.38,141.19l0.52,0.8,4.22-2.68-0.56-.87Z" transform="translate(-183.88 -60.43)"/><path class="cls-7" d="M353.57,133.5l0.63,0.74L358,131l-0.67-.78Z" transform="translate(-183.88 -60.43)"/><path class="cls-7" d="M360.42,142.81l0.5,0.81,4.29-2.56-0.54-.89Z" transform="translate(-183.88 -60.43)"/><path class="cls-7" d="M354.81,135l0.61,0.75,3.91-3.12-0.65-.8Z" transform="translate(-183.88 -60.43)"/><path class="cls-7" d="M340.73,121.86l0.79,0.56,2.94-4-0.84-.6Z" transform="translate(-183.88 -60.43)"/><path class="cls-7" d="M321.83,112.31l0.92,0.31,1.63-4.73-1-.33Z" transform="translate(-183.88 -60.43)"/><path class="cls-7" d="M323.66,112.94l0.91,0.33,1.76-4.68-1-.36Z" transform="translate(-183.88 -60.43)"/><path class="cls-7" d="M314.37,110.31l0.94,0.2,1.1-4.88-1-.22Z" transform="translate(-183.88 -60.43)"/><path class="cls-7" d="M318.12,111.21l0.93,0.26,1.36-4.81-1-.28Z" transform="translate(-183.88 -60.43)"/><path class="cls-7" d="M325.47,113.62l0.9,0.36,1.88-4.63-1-.38Z" transform="translate(-183.88 -60.43)"/><path class="cls-7" d="M316.25,110.73l0.94,0.23,1.23-4.85-1-.25Z" transform="translate(-183.88 -60.43)"/><path class="cls-7" d="M312.47,109.94l0.94,0.18,1-4.91-1-.19Z" transform="translate(-183.88 -60.43)"/><path class="cls-7" d="M339.14,120.77l0.8,0.54,2.84-4.12-0.86-.58Z" transform="translate(-183.88 -60.43)"/><path class="cls-7" d="M327.26,114.35l0.88,0.38,2-4.58-1-.41Z" transform="translate(-183.88 -60.43)"/><path class="cls-7" d="M337.52,119.71l0.81,0.52,2.72-4.2-0.87-.56Z" transform="translate(-183.88 -60.43)"/><path class="cls-7" d="M334.2,117.74l0.84,0.48,2.5-4.33-0.9-.51Z" transform="translate(-183.88 -60.43)"/><path class="cls-7" d="M335.88,118.71l0.82,0.5,2.62-4.26-0.89-.53Z" transform="translate(-183.88 -60.43)"/><path class="cls-7" d="M329,115.13l0.88,0.41L332,111l-0.94-.43Z" transform="translate(-183.88 -60.43)"/><path class="cls-7" d="M332.5,116.82l0.85,0.45,2.38-4.4-0.92-.49Z" transform="translate(-183.88 -60.43)"/><path class="cls-7" d="M330.78,116l0.87,0.43,2.25-4.46-0.93-.46Z" transform="translate(-183.88 -60.43)"/><path class="cls-7" d="M320,111.73l0.93,0.28,1.49-4.77-1-.3Z" transform="translate(-183.88 -60.43)"/><path class="cls-7" d="M307.23,104.16l-0.48,5,1,0.1,0.56-5Z" transform="translate(-183.88 -60.43)"/><path class="cls-7" d="M305.18,104l-0.35,5,1,0.07,0.42-5Z" transform="translate(-183.88 -60.43)"/><path class="cls-7" d="M309.29,104.39l-0.62,5,1,0.13,0.7-5Z" transform="translate(-183.88 -60.43)"/><path class="cls-7" d="M361.4,144.46l0.48,0.84,4.36-2.46-0.51-.89Z" transform="translate(-183.88 -60.43)"/><path class="cls-7" d="M302.9,108.87l1,0,0.28-5-1-.05Z" transform="translate(-183.88 -60.43)"/><path class="cls-7" d="M312.35,104.84l-1-.16-0.76,4.94,0.95,0.15Z" transform="translate(-183.88 -60.43)"/><path class="cls-7" d="M370.84,175.5q0,0.48.05,1l5-.24c0-.34,0-0.69-0.06-1Z" transform="translate(-183.88 -60.43)"/><path class="cls-7" d="M370.93,177.43c0,0.32,0,.64,0,1l5-.1q0-.52,0-1Z" transform="translate(-183.88 -60.43)"/><path class="cls-7" d="M290.76,104.36l0.6,5,1-.11-0.53-5Z" transform="translate(-183.88 -60.43)"/><path class="cls-7" d="M294.24,109l-0.4-5-1,.09,0.47,5Z" transform="translate(-183.88 -60.43)"/><path class="cls-7" d="M286.69,105l0.87,4.92,1-.16-0.81-4.93Z" transform="translate(-183.88 -60.43)"/><path class="cls-7" d="M290.41,109.44l-0.68-5-1,.14,0.74,4.95Z" transform="translate(-183.88 -60.43)"/><path class="cls-7" d="M299,103.81l0.06,5h1v-5h-1Z" transform="translate(-183.88 -60.43)"/><path class="cls-7" d="M294.87,104l0.33,5,1-.06-0.26-5Z" transform="translate(-183.88 -60.43)"/><path class="cls-7" d="M370.69,173.58q0,0.48.08,1l5-.38q0-.51-0.09-1Z" transform="translate(-183.88 -60.43)"/><path class="cls-7" d="M298.08,108.83l-0.12-5-1,0,0.2,5Z" transform="translate(-183.88 -60.43)"/><path class="cls-7" d="M301,103.82l-0.07,5,1,0,0.15-5Z" transform="translate(-183.88 -60.43)"/><path class="cls-7" d="M365.66,153.07L366,154l4.64-1.85-0.38-.95Z" transform="translate(-183.88 -60.43)"/><path class="cls-7" d="M364.91,151.31l0.38,0.88,4.6-2-0.41-.94Z" transform="translate(-183.88 -60.43)"/><path class="cls-7" d="M366.37,154.86l0.34,0.9L371.4,154l-0.36-1Z" transform="translate(-183.88 -60.43)"/><path class="cls-7" d="M362.35,146.14L362.8,147l4.42-2.34-0.49-.91Z" transform="translate(-183.88 -60.43)"/><path class="cls-7" d="M367,156.67l0.31,0.91,4.74-1.6-0.33-1Z" transform="translate(-183.88 -60.43)"/><path class="cls-7" d="M363.25,147.84l0.43,0.85,4.49-2.21-0.47-.93Z" transform="translate(-183.88 -60.43)"/><path class="cls-7" d="M364.1,149.56l0.41,0.88,4.54-2.1-0.43-.93Z" transform="translate(-183.88 -60.43)"/><path class="cls-7" d="M368.21,160.34c0.09,0.31.17,0.61,0.26,0.92l4.83-1.31q-0.14-.5-0.28-1Z" transform="translate(-183.88 -60.43)"/><path class="cls-7" d="M369.94,167.85q0.08,0.48.16,1L375,168q-0.08-.51-0.17-1Z" transform="translate(-183.88 -60.43)"/><path class="cls-7" d="M370.25,169.75q0.07,0.47.13,1l5-.65q-0.07-.51-0.14-1Z" transform="translate(-183.88 -60.43)"/><path class="cls-7" d="M369.58,166q0.1,0.47.18,0.95l4.91-.92q-0.1-.51-0.2-1Z" transform="translate(-183.88 -60.43)"/><path class="cls-7" d="M367.64,158.5l0.29,0.92,4.79-1.45-0.31-1Z" transform="translate(-183.88 -60.43)"/><path class="cls-7" d="M369.18,164.07q0.11,0.47.21,0.94l4.89-1.05q-0.11-.51-0.23-1Z" transform="translate(-183.88 -60.43)"/><path class="cls-7" d="M370.5,171.67q0.06,0.48.1,1l5-.51c0-.34-0.07-0.69-0.11-1Z" transform="translate(-183.88 -60.43)"/><path class="cls-7" d="M368.72,162.2q0.12,0.46.23,0.92l4.86-1.17c-0.08-.34-0.17-0.68-0.25-1Z" transform="translate(-183.88 -60.43)"/><path class="cls-7" d="M259.9,115.2l2.63,4.25,0.83-.5-2.58-4.29Z" transform="translate(-183.88 -60.43)"/><path class="cls-7" d="M258.16,116.31l2.74,4.18,0.81-.53L259,115.75Z" transform="translate(-183.88 -60.43)"/><path class="cls-7" d="M267.13,111.24l2.16,4.51,0.87-.41-2.09-4.54Z" transform="translate(-183.88 -60.43)"/><path class="cls-7" d="M261.67,114.14l2.52,4.32L265,118l-2.45-4.36Z" transform="translate(-183.88 -60.43)"/><path class="cls-7" d="M265.29,112.16l2.28,4.45,0.86-.43-2.22-4.48Z" transform="translate(-183.88 -60.43)"/><path class="cls-7" d="M263.47,113.12l2.39,4.39,0.85-.46-2.34-4.42Z" transform="translate(-183.88 -60.43)"/><path class="cls-7" d="M256.45,117.46l2.86,4.1,0.8-.55-2.81-4.14Z" transform="translate(-183.88 -60.43)"/><path class="cls-7" d="M253.13,119.91l3.07,3.94,0.77-.59-3-4Z" transform="translate(-183.88 -60.43)"/><path class="cls-7" d="M254.77,118.66l3,4,0.78-.57-2.91-4.06Z" transform="translate(-183.88 -60.43)"/><path class="cls-7" d="M272.82,108.8l1.79,4.67,0.9-.33-1.71-4.7Z" transform="translate(-183.88 -60.43)"/><path class="cls-7" d="M280.66,106.29l1.27,4.84,0.93-.24-1.2-4.85Z" transform="translate(-183.88 -60.43)"/><path class="cls-7" d="M284.67,105.35l1,4.9,0.95-.19-0.94-4.91Z" transform="translate(-183.88 -60.43)"/><path class="cls-7" d="M278.68,106.83l1.4,4.8,0.93-.26-1.34-4.82Z" transform="translate(-183.88 -60.43)"/><path class="cls-7" d="M282.66,105.79l1.13,4.87,0.94-.21-1.07-4.88Z" transform="translate(-183.88 -60.43)"/><path class="cls-7" d="M274.75,108.09l1.65,4.72,0.91-.31-1.59-4.74Z" transform="translate(-183.88 -60.43)"/><path class="cls-7" d="M269,110.38l2,4.57,0.88-.39-2-4.59Z" transform="translate(-183.88 -60.43)"/><path class="cls-7" d="M270.9,109.57l1.91,4.62,0.89-.36-1.85-4.65Z" transform="translate(-183.88 -60.43)"/><path class="cls-7" d="M251.51,121.2l3.18,3.86,0.75-.61-3.12-3.91Z" transform="translate(-183.88 -60.43)"/><path class="cls-7" d="M276.7,107.44l1.53,4.76,0.92-.29-1.46-4.78Z" transform="translate(-183.88 -60.43)"/><path class="cls-7" d="M233.15,143.36l4.38,2.4,0.47-.85-4.35-2.46Z" transform="translate(-183.88 -60.43)"/><path class="cls-7" d="M235.24,139.78l4.25,2.64,0.52-.82-4.21-2.7Z" transform="translate(-183.88 -60.43)"/><path class="cls-7" d="M234.17,141.56l4.32,2.52,0.49-.83-4.28-2.58Z" transform="translate(-183.88 -60.43)"/><path class="cls-7" d="M236.36,138l4.18,2.75,0.54-.8-4.13-2.81Z" transform="translate(-183.88 -60.43)"/><path class="cls-7" d="M249.94,122.53l3.28,3.77,0.73-.63-3.23-3.82Z" transform="translate(-183.88 -60.43)"/><path class="cls-7" d="M229.58,150.83l4.62,1.91,0.38-.89-4.6-2Z" transform="translate(-183.88 -60.43)"/><path class="cls-7" d="M231.26,147l4.51,2.16,0.43-.87-4.48-2.22Z" transform="translate(-183.88 -60.43)"/><path class="cls-7" d="M230.39,148.93l4.57,2,0.4-.88L230.82,148Z" transform="translate(-183.88 -60.43)"/><path class="cls-7" d="M237.52,136.33l4.1,2.87,0.56-.79-4.06-2.92Z" transform="translate(-183.88 -60.43)"/><path class="cls-7" d="M246.89,125.33l3.48,3.59,0.7-.67-3.44-3.63Z" transform="translate(-183.88 -60.43)"/><path class="cls-7" d="M245.43,126.79l3.58,3.5,0.68-.68-3.52-3.55Z" transform="translate(-183.88 -60.43)"/><path class="cls-7" d="M248.4,123.91l3.38,3.68,0.72-.65-3.33-3.73Z" transform="translate(-183.88 -60.43)"/><path class="cls-7" d="M238.73,134.65l4,3,0.58-.77-4-3Z" transform="translate(-183.88 -60.43)"/><path class="cls-7" d="M244,128.28l3.67,3.4,0.66-.7-3.62-3.45Z" transform="translate(-183.88 -60.43)"/><path class="cls-7" d="M240,133l3.93,3.09,0.6-.76-3.9-3.13Z" transform="translate(-183.88 -60.43)"/><path class="cls-7" d="M241.28,131.4l3.85,3.19,0.62-.74-3.8-3.25Z" transform="translate(-183.88 -60.43)"/><path class="cls-7" d="M242.62,129.82l3.76,3.3,0.64-.72L243.31,129Z" transform="translate(-183.88 -60.43)"/><path class="cls-7" d="M232.18,145.19l4.45,2.28,0.45-.86-4.42-2.35Z" transform="translate(-183.88 -60.43)"/><polygon class="cls-7" points="192.1 119.46 192.09 118.95 187.09 118.98 187.1 119.46 192.1 119.46"/></g><path class="cls-3" d="M299.89,132.46a47.43,47.43,0,1,0,47.43,47.43A47.48,47.48,0,0,0,299.89,132.46Zm0,94a46.6,46.6,0,1,1,46.6-46.6A46.66,46.66,0,0,1,299.89,226.49Z" transform="translate(-183.88 -60.43)"/></g></g></svg>