<svg preserveAspectRatio="none" id="Layer_1" data-name="Layer 1" xmlns="http://www.w3.org/2000/svg" viewBox="0 0 65.78 65.78"><defs><style>.cls-1{fill:aqua;}</style></defs><title>circle91</title><g id="_编组_" data-name="&lt;编组&gt;"><path id="_复合路径_" data-name="&lt;复合路径&gt;" class="cls-1" d="M88.66,96.57h0a27.09,27.09,0,0,1-14.27-4l2.47-4a22.41,22.41,0,0,0,11.8,3.34Zm6.21-.72L93.8,91.28a22.4,22.4,0,0,0,10.73-6l3.32,3.32A27.09,27.09,0,0,1,94.88,95.85ZM69.46,88.64a27.09,27.09,0,0,1-7.25-13l4.57-1.08a22.42,22.42,0,0,0,6,10.72Zm42.27-4.94-4-2.47a22.4,22.4,0,0,0,3.36-11.82l4.69-.1v0.1A27.09,27.09,0,0,1,111.73,83.7ZM61.48,69.46v0a27.11,27.11,0,0,1,4-14.25l4,2.46a22.41,22.41,0,0,0-3.33,11.78Zm49-5.28a22.42,22.42,0,0,0-6-10.71l3.31-3.33a27.1,27.1,0,0,1,7.28,13ZM72.71,53.56l-3.33-3.31a27.1,27.1,0,0,1,13-7.27l1.08,4.56A22.42,22.42,0,0,0,72.71,53.56Zm27.68-3.3a22.41,22.41,0,0,0-11.76-3.32l-0.07-4.69H88.7a27,27,0,0,1,14.16,4Z" transform="translate(-55.75 -36.52)"/><path id="_复合路径_2" data-name="&lt;复合路径&gt;" class="cls-1" d="M88.67,102.3h0a32.93,32.93,0,0,1-15.89-4.09l2.75-5a27.22,27.22,0,0,0,13.14,3.38Zm2.28-.08-0.39-5.67a27.14,27.14,0,0,0,5.62-1L97.76,101A32.84,32.84,0,0,1,91,102.22Zm-23.86-8c-0.57-.5-1.13-1-1.67-1.56l4-4Q70.1,89.35,70.81,90Zm44.82-1.6-4-4q0.67-.67,1.29-1.38L113.46,91C113,91.56,112.44,92.12,111.9,92.66Zm5.52-7.33-5-2.75a27.22,27.22,0,0,0,3.39-13.16V69.29h5.68v0.12A32.93,32.93,0,0,1,117.43,85.33ZM57,78.56a32.94,32.94,0,0,1-1.21-6.8l5.67-.4a27.2,27.2,0,0,0,1,5.63Zm-0.52-9.1H55.75a33,33,0,0,1,4.07-15.91l5,2.74a27.22,27.22,0,0,0-3.36,13.11Zm59.25-2.05a27.18,27.18,0,0,0-1-5.62l5.46-1.59a32.88,32.88,0,0,1,1.22,6.8ZM68.06,51.61l-4.3-3.72c0.49-.57,1-1.13,1.55-1.67l4,4Q68.69,50.89,68.06,51.61Zm39.74-1.5q-0.67-.67-1.39-1.29l3.72-4.3c0.57,0.49,1.14,1,1.68,1.55Zm-6.08-4.55A27.23,27.23,0,0,0,88.64,42.2l-0.09-5.68h0.09a32.94,32.94,0,0,1,15.83,4.05ZM81,43.28l-1.58-5.46a32.81,32.81,0,0,1,6.8-1.21l0.4,5.67A27.15,27.15,0,0,0,81,43.28Z" transform="translate(-55.75 -36.52)"/><path id="_复合路径_3" data-name="&lt;复合路径&gt;" class="cls-1" d="M88.64,84.33a15.68,15.68,0,1,1,15.68-15.68A15.7,15.7,0,0,1,88.64,84.33Zm0-27.84A12.16,12.16,0,1,0,100.8,68.65,12.17,12.17,0,0,0,88.64,56.49Z" transform="translate(-55.75 -36.52)"/></g></svg>