<svg preserveAspectRatio="none" id="Layer_1" data-name="Layer 1" xmlns="http://www.w3.org/2000/svg" viewBox="0 0 114.24 114.24"><defs><style>.cls-1{fill:#fe6a13}.cls-11{fill:#00eadb}.cls-12{fill:#067773}</style></defs><path class="cls-1" d="M170.37 76.92l-.09.42-.2 1.11c-.07.46-.19 1-.26 1.57l-.23 1.81c-.06.62-.1 1.23-.15 1.81s-.07 1.12-.08 1.58v1.55h-8.84v-1.83c0-.55 0-1.19.09-1.88s.1-1.42.18-2.15l.27-2.15c.08-.69.22-1.32.31-1.86l.24-1.32.11-.5zM175 64.42l-.71 1.38-.34.67-.35.76c-.23.53-.51 1.09-.73 1.67l-.67 1.7-.51 1.5c-.15.44-.27.81-.34 1.07l-.12.41-8.49-2.48.14-.49c.08-.31.23-.75.41-1.27s.38-1.14.61-1.79l.79-2c.27-.69.59-1.35.87-2l.41-.91.4-.8.84-1.64zM182.94 53.76l-1.07 1.12c-.33.33-.68.74-1.06 1.18s-.79.9-1.17 1.39a44.12 44.12 0 00-2.89 4l-7.44-4.78a53.23 53.23 0 013.44-4.78c.45-.58.94-1.13 1.39-1.66s.87-1 1.26-1.4l1.27-1.33zM193.56 45.75l-1.34.77c-.41.22-.86.53-1.35.84s-1 .65-1.51 1-1 .71-1.47 1.07l-1.25 1c-.37.28-.65.55-.86.72l-.32.28-5.8-6.67.38-.33c.25-.21.58-.52 1-.86l1.48-1.17c.54-.43 1.15-.84 1.75-1.27s1.21-.83 1.8-1.2 1.12-.73 1.6-1l1.6-.92zM206 41.05l-1.51.35-1.53.43-.86.25-.88.3c-1.18.38-2.33.86-3.2 1.2s-1.42.63-1.42.63l-3.69-8s.67-.31 1.69-.75 2.39-1 3.8-1.42l1-.35 1-.3 1.82-.51 1.8-.42z" transform="translate(-159.02 -29.64)"/><path class="cls-1" d="M219.27 40.05h-4.94c-.62 0-1.24.07-1.81.11s-1.12.08-1.58.14l-1.54.2-1.27-8.75 1.83-.23c.55-.08 1.19-.12 1.88-.17s1.42-.12 2.15-.13l2.15-.05h1.88c.55 0 1 0 1.33.05h.5z" transform="translate(-159.02 -29.64)" opacity=".9"/><path class="cls-1" d="M232.29 42.8l-.4-.14-1.07-.36-.71-.24-.81-.23c-.56-.15-1.15-.34-1.76-.48l-1.78-.41c-.57-.12-1.11-.21-1.56-.29-.91-.17-1.53-.24-1.53-.24l1.23-8.76s.73.08 1.82.29c.54.1 1.18.2 1.86.35l2.11.49c.72.17 1.42.39 2.09.57l1 .28.85.28 1.27.43.48.17z" transform="translate(-159.02 -29.64)" opacity=".8"/><path class="cls-1" d="M244 49.13l-1.26-.9c-.37-.28-.83-.56-1.32-.88s-1-.66-1.55-1a44.08 44.08 0 00-4.4-2.28l3.65-8.05a53.07 53.07 0 015.23 2.72c.64.36 1.26.76 1.84 1.14s1.13.72 1.57 1l1.5 1.07z" transform="translate(-159.02 -29.64)" opacity=".7"/><path class="cls-1" d="M253.45 58.49l-1-1.22c-.28-.37-.65-.77-1-1.21s-.79-.91-1.22-1.35-.84-.91-1.27-1.3l-1.15-1.09c-.33-.32-.64-.56-.84-.75l-.32-.28 5.77-6.7.38.33c.24.22.6.5 1 .89l1.36 1.3c.5.47 1 1 1.51 1.55s1 1.08 1.45 1.6.88 1 1.22 1.44l1.14 1.45z" transform="translate(-159.02 -29.64)" opacity=".6"/><path class="cls-1" d="M259.91 70.12l-.57-1.44c-.18-.43-.41-.92-.65-1.45l-.37-.82-.42-.82c-.55-1.12-1.18-2.18-1.65-3s-.83-1.31-.83-1.31l7.42-4.82s.41.62 1 1.56 1.31 2.23 2 3.55l.5 1 .45 1c.28.63.56 1.22.77 1.73l.61 1.7z" transform="translate(-159.02 -29.64)" opacity=".5"/><path class="cls-1" d="M262.8 83.12v-.42c0-.27 0-.66-.11-1.12l-.22-1.58c-.07-.58-.2-1.18-.3-1.8l-.17-.91-.2-.87c-.13-.57-.25-1.1-.37-1.55l-.43-1.49 8.48-2.52.5 1.78c.15.53.28 1.17.44 1.84l.24 1 .2 1.08c.12.73.27 1.45.36 2.14l.24 1.87c.08.55.1 1 .13 1.33v.5z" transform="translate(-159.02 -29.64)" opacity=".4"/><path class="cls-1" d="M262 96.38s0-.15.08-.42l.2-1.11c.18-.91.32-2.15.47-3.38s.2-2.47.21-3.4L263 87v-.43h8.84v1.83c0 1.1-.13 2.57-.25 4s-.35 2.93-.56 4l-.24 1.32c-.06.32-.1.5-.1.5z" transform="translate(-159.02 -29.64)" opacity=".3"/><path class="cls-1" d="M257.4 108.89l.71-1.38c.22-.41.44-.91.68-1.44s.5-1.09.72-1.67a43.76 43.76 0 001.62-4.69l8.5 2.44a52.83 52.83 0 01-1.93 5.58c-.26.69-.58 1.36-.86 2s-.55 1.22-.81 1.71l-.84 1.64z" transform="translate(-159.02 -29.64)" opacity=".2"/><path class="cls-1" d="M249.5 119.59l1.07-1.12c.33-.33.67-.75 1.05-1.19l.58-.68c.2-.23.38-.48.58-.72.38-.49.78-1 1.11-1.44l.92-1.29c.27-.38.47-.71.62-.94l.23-.36 7.46 4.75-.27.43c-.18.27-.42.66-.73 1.11l-1.12 1.54c-.4.57-.87 1.13-1.32 1.72-.23.29-.45.58-.69.86l-.69.81c-.46.52-.87 1-1.25 1.41l-1.27 1.33z" transform="translate(-159.02 -29.64)" opacity=".1"/><path class="cls-11" d="M170.93 86.75v.81c0 .54 0 1.33.1 2.37a43.33 43.33 0 001.52 8.87l.41 1.44.5 1.49c.16.51.37 1 .58 1.54s.41 1.06.66 1.59a43.62 43.62 0 003.61 6.65A45.56 45.56 0 00191 124.34a46 46 0 009.22 4.74 45.12 45.12 0 0010.78 2.59c.47.07.95.1 1.43.13l1.44.1h4.38c.49 0 1-.07 1.48-.1 1-.06 2-.2 3-.33a44.69 44.69 0 005.93-1.29c1-.26 2-.62 2.93-.94l1.45-.56.72-.29.71-.32a45.22 45.22 0 0010.72-6.69A45.3 45.3 0 00257 106a46 46 0 002.38-6.17 46.69 46.69 0 001.45-6.48 45.24 45.24 0 000-13.25 46.68 46.68 0 00-1.45-6.48 45 45 0 00-5.61-11.9 45.39 45.39 0 00-8.62-9.64 45.22 45.22 0 00-10.72-6.69l-.71-.32-.72-.25-1.45-.56c-1-.33-1.94-.68-2.93-.94a44.82 44.82 0 00-5.9-1.32c-1-.12-2-.27-3-.33-.49 0-1-.08-1.48-.1h-4.38l-1.44.1c-.48 0-1 .07-1.43.13a45.1 45.1 0 00-10.79 2.59 46 46 0 00-9.2 4.78A45.57 45.57 0 00178.33 62a43.61 43.61 0 00-3.61 6.65c-.25.53-.45 1.07-.66 1.59s-.41 1-.58 1.54l-.48 1.48-.41 1.44a43.33 43.33 0 00-1.52 8.87c-.1 1-.08 1.83-.1 2.37v.81h-.48v-.82c0-.54 0-1.35.1-2.39a43.76 43.76 0 011.53-9l.42-1.45.46-1.48c.17-.52.38-1 .58-1.56s.41-1.07.66-1.61a44 44 0 013.65-6.72 46.05 46.05 0 0112.83-13 46.52 46.52 0 019.36-4.72A45.58 45.58 0 01211 41.37c.48-.07 1-.1 1.44-.14l1.46-.11h4.43c.5 0 1 .07 1.49.1 1 .06 2 .2 3 .33a45.22 45.22 0 016 1.3c1 .26 2 .62 3 1l1.46.57.73.29.65.29a45.69 45.69 0 0110.83 6.76 45.78 45.78 0 0112 15.52 46.54 46.54 0 012.4 6.24 47.08 47.08 0 011.46 6.55 45.74 45.74 0 010 13.39 47.09 47.09 0 01-1.46 6.55 45.51 45.51 0 01-5.67 12 45.83 45.83 0 01-8.71 9.74 45.68 45.68 0 01-10.83 6.76l-.72.32-.73.29-1.46.57c-1 .33-2 .69-3 1a45.19 45.19 0 01-6 1.3c-1 .13-2 .27-3 .33-.5 0-1 .08-1.49.1h-4.43l-1.46-.11c-.48 0-1-.07-1.44-.14a45.55 45.55 0 01-10.9-2.62 46.52 46.52 0 01-9.32-4.79 46 46 0 01-12.83-13 44 44 0 01-3.65-6.72c-.25-.54-.45-1.08-.66-1.61s-.42-1-.58-1.56l-.51-1.51-.42-1.45a43.76 43.76 0 01-1.53-9c-.1-1-.08-1.85-.1-2.39v-.82h.48z" transform="translate(-159.02 -29.64)"/><path class="cls-11" d="M159.5 86.75v1c0 .67 0 1.66.13 3a54.73 54.73 0 001.9 11.12l.52 1.8.63 1.87c.21.64.47 1.28.72 1.94s.51 1.33.82 2a55 55 0 004.52 8.34 56.53 56.53 0 0041 25.23c.59.08 1.19.12 1.79.17l1.8.13h5.51c.61 0 1.23-.08 1.85-.12 1.24-.08 2.47-.25 3.72-.41a56.1 56.1 0 007.44-1.61c1.24-.33 2.45-.77 3.68-1.19.61-.22 1.21-.47 1.81-.7l.91-.36.89-.4a56.66 56.66 0 0013.43-8.38 56.73 56.73 0 0014.85-19.24A56.4 56.4 0 00272.18 95a56.64 56.64 0 000-16.58 56.66 56.66 0 00-19.65-35.11A56.64 56.64 0 00239.11 35l-.89-.4-.91-.36c-.61-.24-1.21-.48-1.81-.7-1.23-.42-2.44-.85-3.68-1.19a56.19 56.19 0 00-7.44-1.61c-1.24-.16-2.48-.34-3.72-.41-.62 0-1.23-.1-1.85-.12H213.34l-1.8.13c-.6 0-1.2.09-1.79.17a56.55 56.55 0 00-13.53 3.25 56.65 56.65 0 00-27.45 22 55 55 0 00-4.52 8.34c-.31.67-.56 1.34-.82 2s-.51 1.3-.72 1.94l-.63 1.87-.52 1.8a54.73 54.73 0 00-1.9 11.12c-.11 1.3-.1 2.29-.13 3v1H159v-1c0-.68 0-1.68.13-3a55.19 55.19 0 011.92-11.21l.52-1.82.63-1.89c.21-.65.47-1.29.73-2s.52-1.34.83-2a55.48 55.48 0 014.56-8.41A57 57 0 01209.69 30c.6-.08 1.2-.12 1.8-.17l1.82-.13 1.83-.05H218.83c.62 0 1.24.08 1.86.13 1.25.08 2.49.25 3.75.41a56.66 56.66 0 017.5 1.62c1.25.34 2.48.78 3.71 1.2.61.23 1.22.47 1.83.71l.91.37.9.4A57.13 57.13 0 01252.84 43a57 57 0 0119.81 35.4 57.17 57.17 0 010 16.72 58.58 58.58 0 01-1.83 8.2 57 57 0 01-7.09 15 57.29 57.29 0 01-10.89 12.17A57.14 57.14 0 01239.3 139l-.9.4-.91.37c-.61.24-1.22.48-1.83.71-1.24.42-2.46.86-3.71 1.2a56.61 56.61 0 01-7.5 1.62c-1.25.16-2.5.34-3.75.42-.62 0-1.24.1-1.86.13h-3.69l-1.83-.05-1.82-.13c-.6 0-1.21-.09-1.8-.17a57 57 0 01-13.64-3.27 57.12 57.12 0 01-27.68-22.17 55.44 55.44 0 01-4.56-8.41c-.31-.67-.57-1.35-.83-2s-.52-1.31-.73-2l-.63-1.89-.54-1.76a55.19 55.19 0 01-1.92-11.21c-.11-1.31-.11-2.31-.13-3v-1h.48z" transform="translate(-159.02 -29.64)"/><path class="cls-11" d="M208.5 57.28l.67-.15c.4-.09.93-.22 1.47-.31l.79-.14.7-.09.68-.09-1.38-12.63h.87l.87-.07 1.35 19.86-.82.06c-.48.08-1.14.13-1.78.26l-.48.08-.44.04c-.3.08-.58.12-.81.19l-.78.22-5.76-19.05 1.69-.48zM246.11 83.34a6 6 0 01.07.68c0 .41.09.95.1 1.49s0 1.09 0 1.5v.68l12.72.38v.87l-.06.87-19.94-1.4v-.22a5.06 5.06 0 000-.59v-.84-1c0-.37 0-.65-.06-1v-.44l.01-.32-.1-.8 19.67-3 .22 1.73zM215.32 117h-.68l-1.5-.11-1.49-.18c-.2 0-.37-.06-.49-.08h-.18l-2.15 12.53-.86-.15c-.43-.07-.86-.17-.86-.17l4.16-19.46.22.05.58.1c.47.1 1.12.17 1.76.25l1 .07h.84a7.76 7.76 0 00.82 0l.27 19.9h-1.74z" transform="translate(-159.02 -29.64)"/><path class="cls-11" d="M210.11 44l1.38 9.86-.41.05-.91.16c-.66.1-1.31.26-1.31.26l-2.17-9.71s.85-.21 1.71-.34l1.18-.21zM259 86.76h-10v-1.33c0-.33 0-.66-.05-.91v-.41l9.92-.79v.54c0 .32.06.75.07 1.19zM210.14 129.28l1.38-9.86 1.32.16 1.33.1-.58 9.94-1.73-.13z" transform="translate(-159.02 -29.64)"/><path class="cls-12" d="M194.71 48l3.21 5.78-.52.3c-.33.19-.8.45-1.34.81l-.88.57c-.31.21-.62.44-1 .67-.67.45-1.33 1-2 1.54s-1.33 1.12-1.9 1.69l-.84.81-.72.76c-.46.46-.8.88-1.05 1.16l-.39.45L189 64l-.18.21-.48.62c-.2.27-.48.58-.74 1s-.59.81-.91 1.29A35.07 35.07 0 00181 82.9c-.11 1.15-.19 2.12-.19 2.79v1.06h-8.87l.05-2c0-.64.1-1.42.16-2.32 0-.45.11-.92.17-1.42s.12-1 .23-1.57a42.6 42.6 0 011.88-7.31 44.26 44.26 0 018.75-14.82A44.93 44.93 0 01193 49c.55-.34 1-.58 1.29-.76zm-18.15 34.29a1.12 1.12 0 10-.19 2.23 1.14 1.14 0 001.21-1 1.15 1.15 0 00-1.02-1.23zm.63-3.91a1.09 1.09 0 00-1.32.9 1.11 1.11 0 00.91 1.31 1.14 1.14 0 001.31-.9 1.11 1.11 0 00-.19-.82 1.13 1.13 0 00-.7-.49zm1-3.83a1.09 1.09 0 00-1.41.76 1.11 1.11 0 00.78 1.39 1.14 1.14 0 001.39-.76 1.11 1.11 0 00-.1-.84 1.13 1.13 0 00-.63-.55zm1.4-3.7a1.12 1.12 0 10-.84 2.08 1.12 1.12 0 00.87-2.08zm1.76-3.55a1.12 1.12 0 10-1 2 1.12 1.12 0 001.03-2zm2.14-3.3a1.12 1.12 0 10-1.24 1.87 1.12 1.12 0 001.24-1.87zM256.92 69.48l-6.09 2.58-.25-.54c-.16-.34-.36-.85-.66-1.42s-.62-1.26-1-2c-.21-.35-.4-.72-.63-1.08l-.74-1.02a37.4 37.4 0 00-2.88-3.79l-.58-.67c-.17-.2-.34-.36-.47-.5l-.41-.43-1.62 1.57-.19-.18c-.12-.13-.31-.32-.56-.55l-.84-.89-1.19-1a35.2 35.2 0 00-15.11-7.37c-.56-.14-1.09-.2-1.55-.3s-.87-.14-1.2-.18l-1.05-.14.23-2.24.68-6.58 2 .26c.64.1 1.41.25 2.29.4l1.4.32.76.18.74.19c.53.16 1.09.29 1.65.49l1.75.59 1.81.72c.61.26 1.23.55 1.86.83A44.18 44.18 0 01253.48 63c.61.92 1.09 1.82 1.54 2.59s.77 1.49 1.06 2.07zm-32.2-21.63a1.12 1.12 0 10-2.2-.42 1.12 1.12 0 002.2.42zm3.82 1a1.12 1.12 0 10-2.15-.64 1.12 1.12 0 002.15.68zm3.7 1.42a1.12 1.12 0 10-2.07-.85 1.12 1.12 0 002.07.89zm3.54 1.78a1.12 1.12 0 10-2-1.05 1.12 1.12 0 001.99 1.09zm3.34 2.12a1.12 1.12 0 10-1.87-1.17 1.12 1.12 0 001.86 1.22zm3.12 2.44a1.12 1.12 0 10-1.57.14 1.12 1.12 0 001.56-.09zM226 129.91l-1.47-6.45.58-.13c.37-.07.89-.23 1.51-.41a37 37 0 004.48-1.61l1.18-.53c.39-.18.75-.38 1.12-.56.73-.35 1.38-.75 1.94-1.07s1-.63 1.33-.83l.5-.32-1.26-1.87.87-.62c.28-.19.61-.43 1-.73l.59-.46.32-.25.32-.28a35.92 35.92 0 005.78-6.21l.67-.94c.22-.32.42-.65.62-1 .43-.63.77-1.29 1.14-1.92s.66-1.26.95-1.86.55-1.17.75-1.71.42-1 .57-1.47l.39-1.15c.12-.32.18-.58.23-.75l.08-.27 2.17.62 6.32 1.87-.15.51c-.09.34-.25.81-.46 1.43l-.34 1-.46 1.17c-.31.84-.75 1.76-1.2 2.77a45.69 45.69 0 01-3.84 6.49 44.48 44.48 0 01-12.5 11.82 45.12 45.12 0 01-6.7 3.47l-1.48.58c-.47.18-.93.32-1.35.47-.85.3-1.6.5-2.23.68l-.83.23-.62.14zM252.95 102a1.12 1.12 0 10.8-2.1 1.12 1.12 0 00-.8 2.1zm-1.7 3.58a1.12 1.12 0 101-2 1.12 1.12 0 00-1 2.01zm-2 3.39a1.11 1.11 0 001.56-.34 1.1 1.1 0 00-.36-1.56 1.13 1.13 0 00-.85-.13 1.11 1.11 0 00-.7.48 1.14 1.14 0 00.31 1.58zm-2.37 3.17a1.12 1.12 0 101.38-1.77 1.12 1.12 0 00-1.42 1.78zm-2.68 2.92a1.12 1.12 0 101.55-1.62 1.12 1.12 0 00-1.59 1.63zm-3 2.64a1.09 1.09 0 001.59.13 1.11 1.11 0 00.11-1.59 1.15 1.15 0 00-1.58-.12 1.11 1.11 0 00-.37.76 1.13 1.13 0 00.26.83z" transform="translate(-159.02 -29.64)"/><path class="cls-11" d="M180.27 125.8a2.11 2.11 0 001.5.58 2.08 2.08 0 001.43-.59l.67.58.9.7c.6.46 1.19.94 1.83 1.36 1.23.89 2.52 1.7 3.83 2.48a49.52 49.52 0 008.26 3.86 51.51 51.51 0 0017.89 3.06A51 51 0 00250 125c.41-.34.78-.71 1.17-1.07l1.15-1.09-.29-.29-1.14 1.08c-.38.36-.75.73-1.16 1.06a50.59 50.59 0 01-33.09 12.68 51.11 51.11 0 01-17.75-3 49.15 49.15 0 01-8.19-3.83c-1.29-.77-2.57-1.58-3.8-2.46-.63-.42-1.22-.89-1.81-1.35l-.89-.69-.67-.58a2.23 2.23 0 00.39-1.49 2.14 2.14 0 00-3.69-1.25 2.12 2.12 0 00.04 3.08zM230.72 82.43a.49.49 0 00-.15-.34.49.49 0 00-.33-.14v-.47c0-.18 0-.35-.08-.53-.06-.35-.14-.7-.22-1a11.56 11.56 0 00-.73-2 12 12 0 00-2.45-3.46 11.91 11.91 0 00-7.62-3.4h-.74v.1h.74a11.82 11.82 0 017.56 3.37 11.94 11.94 0 012.43 3.43 11.51 11.51 0 01.72 2c.09.34.16.69.22 1 0 .17.05.35.08.52v.47a.52.52 0 00-.31.18.5.5 0 00.4.82.5.5 0 00.48-.55z" transform="translate(-159.02 -29.64)"/><path class="cls-11" transform="rotate(-32.24 57.722 363.845)" d="M178.92 102.48h19.24v2.16h-19.24z"/><path class="cls-1" d="M223.29 88.63l.08-.29c0-.16 0-.35.09-.54V86.62l11.84.6v1.04l-.06.54c0 .37-.09.75-.15 1.1l-.08.5c0 .16-.06.31-.08.41l-.18.74zM222.27 91l.15-.25a4 4 0 00.31-.57 4.68 4.68 0 00.27-.59l.1-.28 11.19 3.9-.26.71a15.82 15.82 0 01-.68 1.53 14.34 14.34 0 01-.8 1.46l-.4.64zM220.52 92.81l.24-.18.48-.44c.17-.17.32-.35.44-.48a1.35 1.35 0 00.19-.23l9.28 7.37a6.76 6.76 0 01-.48.58c-.3.34-.7.79-1.13 1.22s-.89.82-1.23 1.11l-.6.46zM218.28 94l.28-.1.29-.1.31-.15a4.28 4.28 0 00.58-.3l.25-.15 6.36 10-.65.39a15.07 15.07 0 01-1.48.77c-.28.13-.55.26-.81.37l-.73.28-.72.26zM215.85 94.37h.87l.64-.1a1.17 1.17 0 00.21 0h.08l2.69 11.54h-.2c-.13 0-.31.08-.54.11-.45.08-1 .17-1.65.25s-1.2.08-1.65.1h-1zM213.27 93.89l.28.1c.17.07.4.1.63.17a4.3 4.3 0 00.56.11h.24l-.65 11.83-.93-.1-1-.14-.52-.09-.44-.11c-.59-.15-1.18-.29-1.61-.45l-.72-.26zM211.07 92.63l.24.18a4.67 4.67 0 00.53.37 6.32 6.32 0 00.83.46l-5.06 10.72-.68-.33c-.41-.19-.92-.52-1.44-.83a15.8 15.8 0 01-1.36-1l-.6-.46zM209.41 90.7l.15.3c.1.15.25.33.39.53s.32.35.43.49l.14.16.06.05-8.3 8.46-.15-.14-.37-.4c-.3-.34-.73-.77-1.09-1.25s-.73-1-1-1.34l-.4-.64zM208.46 88.35l.08.29a4.19 4.19 0 00.19.62 5.23 5.23 0 00.24.61l.13.27-10.62 5.26-.33-.69a16.63 16.63 0 01-.61-1.55 14.76 14.76 0 01-.48-1.6l-.18-.74zM208.37 85.71V87.37a1.62 1.62 0 000 .29l-11.77 1.5v-.21c0-.13 0-.32-.05-.54v-3.7zM209.09 83.38l-.13.27a5.21 5.21 0 00-.24.6 4.19 4.19 0 00-.19.62l-.08.29-11.59-2.47.18-.74a14.76 14.76 0 01.48-1.6 16.6 16.6 0 01.61-1.55l.33-.69zM210.58 81.32l-.06.05-.14.16c-.11.14-.29.3-.43.49s-.29.38-.39.53l-.15.25-10.12-6.16.4-.64c.25-.38.61-.86 1-1.34s.79-.92 1.09-1.25l.38-.4.15-.14zM212.67 79.87a6.33 6.33 0 00-.83.46 4.69 4.69 0 00-.53.37l-.24.18-7.55-9.14.6-.46a15.67 15.67 0 011.36-1c.52-.31 1-.64 1.44-.83l.68-.33zM215.11 79.18h-.29a4.56 4.56 0 00-.64.12c-.23.07-.46.1-.63.17l-.28.1-4.11-11.07.72-.26c.43-.15 1-.29 1.61-.45a15.59 15.59 0 011.64-.31l.75-.1z" transform="translate(-159.02 -29.64)"/><path class="cls-12" d="M209.2 86.77v.16-.14zM216.08 93.47zM215.91 80zM222.62 86.72v-.14-.3V85.71c0-.11 0-.23-.06-.36l-.1-.39a6.43 6.43 0 00-.85-1.88 6.87 6.87 0 00-1.89-1.91 7 7 0 00-1.37-.69l-.38-.14-.4-.1-.2-.05h-.16l-.31-.06a1.31 1.31 0 00-.26 0h-.75a7 7 0 00-2.62.57 7.19 7.19 0 00-1.59 1 7.55 7.55 0 00-1.36 1.3 7.44 7.44 0 00-.83 1.76l-.12.48V85.81a.29.29 0 000 .05v1.35a2.66 2.66 0 00.06.49 6.89 6.89 0 00.21 1 7.44 7.44 0 00.83 1.76 7.55 7.55 0 001.28 1.43 7.18 7.18 0 001.59 1 3.29 3.29 0 00.43.17 2.82 2.82 0 00.43.14l.44.11c.14 0 .23 0 .34.06a6.72 6.72 0 001.1.09h.74a7 7 0 003-1.08 6.87 6.87 0 001.89-1.91 6.43 6.43 0 00.85-1.88l.1-.39v-.27-.23a.87.87 0 000-.17v-.77zm-.67.73a.75.75 0 010 .16v.4c0 .09-.06.23-.09.36a5.82 5.82 0 01-.77 1.7 6.23 6.23 0 01-1.71 1.73 6.31 6.31 0 01-2.68 1h-.7a5.83 5.83 0 01-1-.09h-.13a.65.65 0 01-.15 0l-.39-.1a2.45 2.45 0 01-.39-.13 2.84 2.84 0 01-.39-.15 6.56 6.56 0 01-1.44-.9 7 7 0 01-1.16-1.3 6.87 6.87 0 01-.75-1.59 6.42 6.42 0 01-.18-.87 2.28 2.28 0 01-.05-.44v-1.44-.37c0-.14.08-.29.11-.43a6.87 6.87 0 01.75-1.59 7 7 0 011.17-1.3 6.55 6.55 0 011.44-.9 6.39 6.39 0 012.37-.52h.71a1.13 1.13 0 01.25 0l.23.11h.13l.18.05.4.16.29.08a6.39 6.39 0 011.24.63 6.23 6.23 0 011.76 1.72 5.81 5.81 0 01.77 1.7c0 .13.06.24.09.36s0 .22 0 .32v.28a2.28 2.28 0 010 .23V87.45z" transform="translate(-159.02 -29.64)"/><path class="cls-12" d="M236.05 88v.49c0 .22-.08.74-.14 1.16l-.1.65-.06.34c0 .12 0 .23-.06.32q-.13.57-.3 1.2a19.9 19.9 0 01-2.57 5.69 20.15 20.15 0 01-14.61 9c-.42.06-.85.07-1.28.1H214.63c-.08 0-.8-.06-1.32-.13l-.83-.12c-.27 0-.59-.09-.78-.15l-1.33-.34c-.44-.11-.87-.27-1.31-.43s-.87-.31-1.29-.52a20.64 20.64 0 01-4.79-3 20.19 20.19 0 01-6.35-9.62 20.44 20.44 0 01-.64-2.9 13.47 13.47 0 01-.16-1.47V86.8a4.1 4.1 0 110-.55v-1.24q0-.46.11-.92t.14-.92l.08-.46.09-.36q.17-.72.37-1.44a20.19 20.19 0 016.35-9.62 20.65 20.65 0 014.79-3 20.49 20.49 0 017.89-1.73h2.14c.53.05 1.06.12 1.57.2l.39.06.31.18.61.15 1.19.32c.39.13.77.26 1.15.4a20 20 0 019.78 7.82 19.9 19.9 0 012.57 5.69q.17.63.3 1.2c.08.38.13.74.19 1.07l.15.92c0 .28 0 .54.06.77.05.92.06 1.41.06 1.41h.64s0-.51-.06-1.46c0-.24 0-.5-.06-.79l-.14-1c-.06-.34-.11-.71-.19-1.1s-.19-.8-.31-1.24a20.54 20.54 0 00-2.65-5.87 20.68 20.68 0 00-10.09-8.07c-.39-.14-.78-.29-1.18-.42l-1.23-.33-.63-.15-.37-.07-.4-.07c-.54-.09-1.08-.16-1.63-.21h-.5L217 66h-1.33a21.12 21.12 0 00-8.14 1.78 21.26 21.26 0 00-4.94 3.08 20.83 20.83 0 00-6.59 9.86q-.21.74-.39 1.49l-.09.38-.08.47q-.08.47-.14 1t-.11 1v1.25a4.11 4.11 0 100 .59v1.47a14.05 14.05 0 00.17 1.52 21.1 21.1 0 00.66 3 20.82 20.82 0 006.55 9.92 21.28 21.28 0 004.94 3.08c.43.21.89.36 1.33.53s.89.33 1.35.44l1.37.35c.2.05.53.11.81.15l.86.13.86.1h2.87c.44 0 .88 0 1.32-.1a20.79 20.79 0 0015.07-9.27A20.54 20.54 0 00236 92.3c.12-.43.22-.85.31-1.24V90.73l.06-.35.1-.67c.06-.43.11-.84.14-1.2s0-.23 0-.31V87.29h-.64z" transform="translate(-159.02 -29.64)"/><path class="cls-11" d="M211 86.76v.26-.26zM215.92 91.66zM219.9 87.53h-.24a3.63 3.63 0 00.08-.75 3.57 3.57 0 00-.48-1.8l.22-.16c.4-.3.66-.52.66-.52l-.08-.14a2.33 2.33 0 00-.24-.35 4.72 4.72 0 00-.39-.46c-.07-.08-.17-.15-.25-.23L219 83l-.14-.1a5.09 5.09 0 00-1.1-.65l-.4-.14h-.16s-.15.31-.34.78l-.15.39a3.42 3.42 0 00-1.26 0c0-.17-.08-.34-.12-.49-.14-.49-.25-.81-.25-.81h-.16l-.41.1a1.26 1.26 0 00-.27.09l-.3.11a6.11 6.11 0 00-1.17.71l-.23.22a1.28 1.28 0 00-.21.2c-.11.14-.23.23-.28.32l-.09.13s.23.25.6.6l.5.45a3.56 3.56 0 00-.43 1l-.63-.11c-.51-.05-.86-.06-.86-.06a.38.38 0 000 .08.41.41 0 010 .08v1.27c0 .11 0 .23.06.34a1.57 1.57 0 00.07.34 3.09 3.09 0 00.09.32 4.59 4.59 0 00.22.55 2.37 2.37 0 00.19.38l.08.14s.32-.13.77-.34l.6-.31a3.62 3.62 0 00.78.87l-.29.54c-.12.23-.21.43-.27.56l-.09.21.14.08a2.09 2.09 0 00.37.2l.14.23.3.1.15.06h.17l.32.08a.43.43 0 01.16 0h1.11a2.1 2.1 0 00.42 0h.16v-.18-.62-.43a3.57 3.57 0 001.21-.44l.24.27c.34.37.58.61.58.61l.13-.1.15-.11.18-.17a4.63 4.63 0 00.83-1 5.35 5.35 0 00.55-1.16c0-.17.07-.31.1-.41v-.06s-.37-.11-.86-.19z" transform="translate(-159.02 -29.64)"/></svg>