<svg preserveAspectRatio="none" id="Layer_1" data-name="Layer 1" xmlns="http://www.w3.org/2000/svg" viewBox="0 0 117.57 149.57"><defs><style>.cls-1{fill:#12aac2}.cls-2{fill:#40220a}.cls-4{fill:#8d4b16}.cls-5{fill:#bf681f}.cls-6{fill:#ff903e}.cls-7{fill:#ffa665}.cls-8{fill:#ffb884}.cls-9{fill:#ffc69d}.cls-10{fill:#ffd1b1}.cls-11{fill:#ffdac1}.cls-12{fill:#ffe1cd}.cls-13{fill:#ffe7d7}.cls-14{fill:#ffecdf}.cls-16{fill:#0e8092}.cls-17{fill:#ff8a29}</style></defs><path class="cls-1" d="M231.23 171.67a7.94 7.94 0 10-7.94-7.94 7.94 7.94 0 007.94 7.94zm0-12.52a4.58 4.58 0 11-4.58 4.58 4.58 4.58 0 014.58-4.58z" transform="translate(-172.45 -155.79)"/><path class="cls-2" d="M225.26 180.36zM231.13 180h-.5.5zM227.89 180.14h.34zM231.13 188.77a45 45 0 015.12.31l.65-5.74a49.6 49.6 0 00-11.31 0l.64 5.71a45.12 45.12 0 014.9-.28z" transform="translate(-172.45 -155.79)"/><path d="M246.51 191.45a45.08 45.08 0 014.7 2l2.57-5.16a50.25 50.25 0 00-10.62-3.88l-1.35 5.59a45.1 45.1 0 014.7 1.45z" transform="translate(-172.45 -155.79)" fill="#693810"/><path class="cls-4" d="M265.66 192.52l-.11-.09.38.33zM260 199.22a45.06 45.06 0 013.72 3.53l4.16-4a51 51 0 00-8.65-7.28l-3.17 4.77a45.11 45.11 0 013.94 2.98z" transform="translate(-172.45 -155.79)"/><path class="cls-5" d="M277.67 206.78l-.11-.17.21.36zM270.09 211.15a45.13 45.13 0 012.29 4.59l5.29-2.31a50.69 50.69 0 00-5.66-9.78L267.4 207a45 45 0 012.69 4.15zM276.06 204.18l.18.29z" transform="translate(-172.45 -155.79)"/><path class="cls-6" d="M284.56 239.81c0 .19 0 .38-.07.58.02-.2.05-.39.07-.58zM275.5 241.41a45 45 0 01-1.2 5l5.54 1.63a50.39 50.39 0 002-11.13l-5.73-.36a45 45 0 01-.61 4.86zM284.81 237.08v.46c-.03-.15-.01-.3 0-.46zM284.12 242.93v-.23c0 .16-.06.32-.08.47.04-.08.06-.17.08-.24z" transform="translate(-172.45 -155.79)"/><path class="cls-7" d="M279.19 257.82v.08zM270.2 256.08a44.87 44.87 0 01-2.83 4.28l4.63 3.42a50.72 50.72 0 005.66-9.78l-5.26-2.3a44.9 44.9 0 01-2.2 4.38zM277.78 260.46l.12-.23-.24.41z" transform="translate(-172.45 -155.79)"/><path class="cls-8" d="M260.19 268.06a45.16 45.16 0 01-4.12 3.05l3.19 4.8a51.07 51.07 0 008.65-7.27l-4.14-3.94a45.22 45.22 0 01-3.58 3.36zM270.1 270.73l-.29.3zM268.41 272.41l-.65.62zM265.82 274.76l.48-.43-.64.55z" transform="translate(-172.45 -155.79)"/><path class="cls-9" d="M246.7 275.89a45.19 45.19 0 01-4.92 1.46l1.36 5.62a50.29 50.29 0 0010.62-3.87l-2.55-5.1a45.24 45.24 0 01-4.51 1.89zM231.34 278.64a45 45 0 01-5.12-.31l-.65 5.74a49.6 49.6 0 0011.31 0l-.64-5.71a45.12 45.12 0 01-4.9.28zM231.34 287.39h.5-.5zM237.21 287zM234.57 287.27h-.33z" transform="translate(-172.45 -155.79)"/><path class="cls-10" d="M216 276a45.29 45.29 0 01-4.71-2l-2.57 5.17a50.34 50.34 0 0010.59 3.83l1.35-5.58A45.18 45.18 0 01216 276zM196.81 274.89l.11.09-.39-.34zM202.43 268.19a45 45 0 01-3.72-3.53l-4.16 4a51.07 51.07 0 008.65 7.28l3.17-4.77a45.16 45.16 0 01-3.94-2.98z" transform="translate(-172.45 -155.79)"/><path class="cls-11" d="M192.37 256.26a45.09 45.09 0 01-2.29-4.59l-5.29 2.33a50.71 50.71 0 005.66 9.78l4.61-3.4a45.2 45.2 0 01-2.69-4.12zM186.4 263.22l-.16-.26zM184.79 260.63l.1.16-.19-.34z" transform="translate(-172.45 -155.79)"/><path class="cls-12" d="M187 241.61a45 45 0 01-.58-5.1l-5.76.36a50.39 50.39 0 002 11.13l5.51-1.62a45.06 45.06 0 01-1.17-4.77zM178.38 243.13c0 .09 0 .18.06.28l-.09-.5c.02.09.02.14.03.22zM179 246.07v-.11zM178.35 224.48v.23l.08-.46c-.04.07-.07.15-.08.23zM177.91 227.59c0-.19 0-.37.07-.55.02.18-.05.37-.07.55zM187 226a45.1 45.1 0 011.2-5l-5.54-1.63a50.35 50.35 0 00-2 11.13l5.73.36A45.21 45.21 0 01187 226zM177.66 230.33v-.42c.03.09.01.28 0 .42z" transform="translate(-172.45 -155.79)"/><path class="cls-13" d="M183.28 209.58v-.05zM184.69 207l-.11.21.21-.37zM192.27 211.33a45 45 0 012.83-4.33l-4.63-3.42a50.69 50.69 0 00-5.66 9.78l5.26 2.3a45.14 45.14 0 012.2-4.33z" transform="translate(-172.45 -155.79)"/><path class="cls-14" d="M194.06 195l.64-.61zM192.37 196.68l.28-.3zM196.65 192.65l-.47.42.62-.54zM202.28 199.35a45 45 0 014.12-3.05l-3.19-4.8a51 51 0 00-8.65 7.27l4.14 3.94a45.1 45.1 0 013.58-3.36z" transform="translate(-172.45 -155.79)"/><path d="M215.77 191.52a45 45 0 014.92-1.46l-1.36-5.61a50.32 50.32 0 00-10.62 3.87l2.55 5.14a45 45 0 014.51-1.94z" transform="translate(-172.45 -155.79)" fill="#fff1e7"/><path class="cls-16" d="M231.23 174.92A58.79 58.79 0 10290 233.7a58.79 58.79 0 00-58.77-58.78zm0 116.57A57.79 57.79 0 11289 233.7a57.85 57.85 0 01-57.77 57.79z" transform="translate(-172.45 -155.79)"/><path class="cls-16" d="M231.23 190.88a42.83 42.83 0 1042.83 42.83 42.83 42.83 0 00-42.83-42.83zm0 84.66a41.68 41.68 0 01-29.33-12l.78-.78a40.54 40.54 0 0057.11 0l.38.38.18-.18-.37-.37a40.55 40.55 0 00.12-57.25l.5-.5-.18-.18-.49.49a40.55 40.55 0 00-57.37 0l-.75-.75-.18.18.75.75a40.54 40.54 0 00.12 57.22l-.78.78a41.81 41.81 0 1129.51 12.2zm-26.36-59.11v-7a2 2 0 012-2H214a31.59 31.59 0 0134.56 0h7.07a2 2 0 012 2v7a31.61 31.61 0 010 35v6.76a2 2 0 01-2 2h-6.7a31.57 31.57 0 01-6.48 3.35l-1-2.81a31.62 31.62 0 01-20.58 0l-.95 2.75a31.55 31.55 0 01-6.32-3.28h-6.72a2 2 0 01-2-2v-6.79a31.61 31.61 0 010-34.99zm-1.71-10a1 1 0 111 1 1 1 0 01-.99-.97zm7.63-6.81l1.3-.75 3.31 5.73-1.3.75zm6.22-3l1.41-.51 2.26 6.22-1.41.51zm6.66-1.9l1.48-.26 1.15 6.54-1.48.26zm6.89 5.9V194h1.5v6.62h-1.5zm5.76.39l1.15-6.52 1.48.26-1.15 6.52zm5.6 1.38l2.26-6.22 1.41.51-2.26 6.22zm5.28 2.33l3.31-5.73 1.3.75-3.31 5.73zm10.28 1.75a1 1 0 111 1 1 1 0 01-1-1.01zM262 245.8l.51-1.41 6.22 2.26-.51 1.41zm4 7.2l-.75 1.3-5.77-3.3.75-1.3zm-2.28-12.71l.26-1.48 6.52 1.15-.26 1.48zm.65-5.73V233h6.62v1.5h-6.62zm-.37-5.79l-.26-1.48 6.52-1.15.26 1.48zm-1.35-5.61l-.51-1.41 6.22-2.26.51 1.41zm-2.31-5.29l-.75-1.3 5.73-3.31.75 1.3zm-.83 42.89a1 1 0 11-1-1 1 1 0 01.97 1.01zm-7.81 7l-1.3.75-3.31-5.73 1.3-.75zm-12.88 4.94l-1.48.26-1.15-6.52 1.48-.26zm-12.64-6.29l-1.18 6.52-1.48-.26 1.15-6.52zm4.26.39h1.5v6.62h-1.5v-6.62zm15 4l-1.41.51-2.26-6.22 1.41-.51zm-24.89-5.8l-2.26 6.22-1.41-.51 2.26-6.22zm-5.28-2.33l-3.27 5.76-1.3-.75 3.31-5.73zm-10.22-1.93a1 1 0 11-1-1 1 1 0 011 1.03zm-2.81-43l-5.73-3.31.75-1.3 5.73 3.31zm-1.82 3.87l-.51 1.39-6.22-2.26.51-1.41zm-1.63 5.53l-.26 1.48-6.53-1.15.26-1.48zm-.65 5.73v1.5h-6.62v-1.5h6.62zm.36 5.76l.26 1.48-6.52 1.15-.24-1.47zm1.35 5.61l.51 1.41-6.22 2.26-.51-1.41zm2.31 5.29l.75 1.3-5.73 3.31-.75-1.3z" transform="translate(-172.45 -155.79)"/><path class="cls-16" d="M213.15 251.84h.06l-3.77 3.77h.35l3.77-3.77h35.34l3.77 3.77h.33l-3.77-3.77h.07v-35.76l3.77-3.77V212l-3.77 3.77v-.07h-36.15v.07l-3.77-3.77v.35l3.77 3.77v35.76zm.67-.25l6.7-6.7a15.36 15.36 0 0021.36-.07l6.77 6.77h-34.84zm32.52-17.84a15.13 15.13 0 01-4.44 10.72l-7-7v-.12l5.93.3-4.41-4 4.41-4-5.44.28 6.72-6.72a15.11 15.11 0 014.22 10.54zm-4-10.64l6.78-6.78v35.26H249l-6.94-6.94a15.37 15.37 0 00.23-21.54zm-11.11 15.79l4 4.41-.28-5.44 6.77 6.77a15.11 15.11 0 01-21 .07l6.84-6.84-.28 5.44zm-1.14-5a1 1 0 111 1 1 1 0 01-.99-1.03zM235 230h-.11l.3-5.93-4 4.41-4-4.41.3 5.93h-.12l-7-7a15.14 15.14 0 0121.51.08zm-8 0l-5.44-.28 4.4 4-4.4 4 5.93-.3v.11l-7 7a15.12 15.12 0 01-.24-21.34zm-13.67-14.1h35.68v.1l-6.95 6.95a15.39 15.39 0 00-21.86-.08l-6.8-6.87v-.07zm0 .42l6.7 6.7a15.37 15.37 0 00.24 21.69l-6.87 6.87v-35.25z" transform="translate(-172.45 -155.79)"/><path class="cls-1" d="M284.56 239.81c.08-.75.15-1.51.2-2.27v-.46c.07-1.12.12-2.24.12-3.38a54 54 0 00-.8-9.2l-.08-.5q-.23-1.28-.53-2.55v-.13a53.35 53.35 0 00-5.7-14.32l-.21-.36q-.64-1.09-1.32-2.14l-.18-.29a54 54 0 00-10.12-11.41l-.38-.33A53.46 53.46 0 00231.23 180h-.6c-.8 0-1.6 0-2.4.07h-.34q-1.31.08-2.61.22a53.44 53.44 0 00-28.46 12.17l-.62.54c-.5.43-1 .87-1.47 1.32l-.64.61q-.71.68-1.4 1.4l-.28.3a53.85 53.85 0 00-7.58 10.1l-.21.37q-.67 1.17-1.27 2.37v.05a53.27 53.27 0 00-4.88 14.67l-.08.46q-.19 1.16-.34 2.33c0 .18 0 .37-.07.55-.09.77-.15 1.54-.21 2.31v.42a53.97 53.97 0 00-.12 3.38 53.94 53.94 0 00.8 9.2l.09.5q.24 1.29.53 2.55v.11a53.31 53.31 0 005.7 14.39l.19.34q.65 1.1 1.34 2.17l.16.26a53.93 53.93 0 0010.12 11.42l.39.34a53.46 53.46 0 0034.32 12.41h.6c.8 0 1.61 0 2.4-.07h.33q1.32-.08 2.62-.22a53.43 53.43 0 0028.46-12.16l.64-.55c.5-.43 1-.86 1.46-1.3l.65-.62q.71-.68 1.39-1.38l.29-.3a53.84 53.84 0 007.57-10.08l.24-.41q.65-1.15 1.25-2.32v-.08a53.29 53.29 0 004.88-14.65c0-.16.06-.32.08-.47.13-.76.24-1.53.34-2.31.02-.22.05-.41.07-.6zm-25.31 36.1a50.66 50.66 0 01-78.59-39c-.06-1-.11-2.1-.11-3.16s0-2.13.11-3.19a50.5 50.5 0 019.81-26.89 50.86 50.86 0 0118.24-15.31 50.49 50.49 0 0116.88-5 49.6 49.6 0 0111.31 0 50.6 50.6 0 0122.37 8.17 50.88 50.88 0 0118.4 21.92 50.44 50.44 0 014.13 17.11c.06 1 .11 2.1.11 3.16s0 2.13-.11 3.19a50.52 50.52 0 01-9.8 26.87 51.68 51.68 0 01-12.75 12.13z" transform="translate(-172.45 -155.79)"/><circle class="cls-1" cx="68.39" cy="78.08" r="1"/><circle class="cls-17" cx="58.79" cy="144.99" r="4.58"/><path class="cls-17" d="M274.34 221a42.44 42.44 0 011.66 9.9l5.76-.36a50.4 50.4 0 00-2-11.14zM284.08 224.28c0-.09 0-.18-.06-.27l.09.5c-.01-.08-.01-.15-.03-.23zM206.88 258.11h48.72v-48.72h-48.72v48.72zm.5-48.22h47.72v47.72h-47.72v-47.72z" transform="translate(-172.45 -155.79)"/><path class="cls-17" transform="rotate(-60 41.558 323.419)" d="M261.97 248.66h1.5v6.62h-1.5z"/><path class="cls-17" transform="rotate(-70.01 67.948 291.449)" d="M264.66 242.92h1.5v6.62h-1.5z"/><path class="cls-17" transform="rotate(-80 88.024 264.964)" d="M266.32 236.79h1.5v6.62h-1.5z"/><path class="cls-17" d="M91.88 77.24h6.62v1.5h-6.62z"/><path class="cls-17" transform="rotate(-10 -709.561 1135.055)" d="M263.78 226.71h6.62v1.5h-6.62z"/><path class="cls-17" transform="rotate(-20 -262.554 632.407)" d="M262.15 220.58h6.62v1.5h-6.62z"/><path class="cls-17" transform="matrix(.87 -.5 .5 .87 -245.03 4.52)" d="M259.49 214.82h6.62v1.5h-6.62z"/><circle class="cls-17" cx="49.18" cy="78.08" r="1"/></svg>