<svg preserveAspectRatio="none" id="Layer_1" data-name="Layer 1" xmlns="http://www.w3.org/2000/svg" xmlns:xlink="http://www.w3.org/1999/xlink" viewBox="0 0 121.28 123.37"><defs><style>.cls-1{fill:url(#linear-gradient);}.cls-2{fill:url(#linear-gradient-2);}.cls-3{fill:url(#linear-gradient-3);}.cls-4{fill:url(#linear-gradient-4);}.cls-5{fill:url(#linear-gradient-5);}.cls-6{fill:url(#linear-gradient-6);}.cls-7{fill:url(#linear-gradient-7);}.cls-8{fill:url(#linear-gradient-8);}.cls-9{fill:url(#linear-gradient-9);}.cls-10{fill:url(#linear-gradient-10);}.cls-11{fill:url(#linear-gradient-11);}.cls-12{fill:url(#linear-gradient-12);}.cls-13{fill:url(#linear-gradient-13);}.cls-14{fill:url(#linear-gradient-14);}.cls-15{fill:url(#linear-gradient-15);}.cls-16{fill:url(#linear-gradient-16);}.cls-17{fill:url(#linear-gradient-17);}.cls-18{fill:url(#linear-gradient-18);}.cls-19{fill:url(#linear-gradient-19);}.cls-20{fill:url(#linear-gradient-20);}.cls-21{fill:url(#linear-gradient-21);}.cls-22{fill:url(#linear-gradient-22);}.cls-23{fill:url(#linear-gradient-23);}.cls-24{fill:url(#linear-gradient-24);}.cls-25{fill:url(#linear-gradient-25);}.cls-26{fill:url(#linear-gradient-26);}.cls-27{fill:url(#linear-gradient-27);}.cls-28{fill:url(#linear-gradient-28);}.cls-29{fill:url(#linear-gradient-29);}.cls-30{fill:url(#linear-gradient-30);}.cls-31{fill:url(#linear-gradient-31);}.cls-32{fill:url(#linear-gradient-32);}.cls-33{fill:url(#linear-gradient-33);}.cls-34{fill:url(#linear-gradient-34);}.cls-35{fill:url(#linear-gradient-35);}.cls-36{fill:url(#linear-gradient-36);}.cls-37{fill:url(#linear-gradient-37);}.cls-38{fill:url(#linear-gradient-38);}.cls-39{fill:url(#linear-gradient-39);}.cls-40{fill:url(#linear-gradient-40);}.cls-41{fill:url(#linear-gradient-41);}.cls-42{fill:url(#linear-gradient-42);}.cls-43{fill:url(#linear-gradient-43);}.cls-44{fill:url(#linear-gradient-44);}.cls-45{fill:url(#linear-gradient-45);}.cls-46{fill:url(#linear-gradient-46);}.cls-47{fill:url(#linear-gradient-47);}.cls-48{fill:url(#linear-gradient-48);}.cls-49{fill:url(#linear-gradient-49);}.cls-50{fill:url(#linear-gradient-50);}.cls-51{fill:url(#linear-gradient-51);}.cls-52{fill:url(#linear-gradient-52);}.cls-53{fill:url(#linear-gradient-53);}.cls-54{fill:url(#linear-gradient-54);}.cls-55{fill:url(#linear-gradient-55);}.cls-56{fill:url(#linear-gradient-56);}.cls-57{fill:url(#linear-gradient-57);}.cls-58{fill:url(#linear-gradient-58);}.cls-59{fill:url(#linear-gradient-59);}.cls-60{fill:url(#linear-gradient-60);}.cls-61{fill:url(#linear-gradient-61);}.cls-62{fill:url(#linear-gradient-62);}.cls-63{fill:url(#linear-gradient-63);}.cls-64{fill:url(#linear-gradient-64);}.cls-65{fill:url(#linear-gradient-65);}.cls-66{fill:url(#linear-gradient-66);}.cls-67{fill:url(#linear-gradient-67);}.cls-68{fill:url(#linear-gradient-68);}.cls-69{fill:url(#linear-gradient-69);}.cls-70{fill:url(#linear-gradient-70);}.cls-71{fill:url(#linear-gradient-71);}.cls-72{fill:url(#linear-gradient-72);}.cls-73{fill:url(#linear-gradient-73);}.cls-74{fill:url(#linear-gradient-74);}.cls-75{fill:url(#linear-gradient-75);}.cls-76{fill:url(#linear-gradient-76);}.cls-77{fill:url(#linear-gradient-77);}.cls-78{fill:url(#linear-gradient-78);}.cls-79{fill:url(#linear-gradient-79);}.cls-80{fill:url(#linear-gradient-80);}.cls-81{fill:url(#linear-gradient-81);}.cls-82{fill:url(#linear-gradient-82);}.cls-83{fill:url(#linear-gradient-83);}.cls-84{fill:url(#linear-gradient-84);}.cls-85{fill:url(#linear-gradient-85);}.cls-86{fill:url(#linear-gradient-86);}.cls-87{fill:url(#linear-gradient-87);}.cls-88{fill:url(#linear-gradient-88);}.cls-89{fill:url(#linear-gradient-89);}.cls-90{fill:url(#linear-gradient-90);}.cls-91{fill:url(#linear-gradient-91);}.cls-92{fill:url(#linear-gradient-92);}.cls-93{fill:url(#linear-gradient-93);}.cls-94{fill:url(#linear-gradient-94);}.cls-95{fill:url(#linear-gradient-95);}.cls-96{fill:url(#linear-gradient-96);}.cls-97{fill:url(#linear-gradient-97);}.cls-98{fill:url(#linear-gradient-98);}.cls-99{fill:url(#linear-gradient-99);}.cls-100{fill:url(#linear-gradient-100);}.cls-101{fill:url(#linear-gradient-101);}.cls-102{fill:url(#linear-gradient-102);}.cls-103{fill:url(#linear-gradient-103);}.cls-104{fill:url(#linear-gradient-104);}.cls-105{fill:url(#linear-gradient-105);}.cls-106{fill:url(#linear-gradient-106);}.cls-107{fill:url(#linear-gradient-107);}.cls-108{fill:url(#linear-gradient-108);}.cls-109{fill:url(#linear-gradient-109);}.cls-110{fill:url(#linear-gradient-110);}.cls-111{fill:url(#linear-gradient-111);}.cls-112{fill:url(#linear-gradient-112);}.cls-113{fill:url(#linear-gradient-113);}.cls-114{fill:url(#linear-gradient-114);}.cls-115{fill:url(#linear-gradient-115);}.cls-116{fill:url(#linear-gradient-116);}.cls-117{fill:url(#linear-gradient-117);}.cls-118{fill:url(#linear-gradient-118);}.cls-119{fill:url(#linear-gradient-119);}.cls-120{fill:url(#linear-gradient-120);}.cls-121{fill:url(#linear-gradient-121);}.cls-122{fill:url(#linear-gradient-122);}.cls-123{fill:url(#linear-gradient-123);}.cls-124{fill:url(#linear-gradient-124);}.cls-125{fill:url(#linear-gradient-125);}.cls-126{fill:url(#linear-gradient-126);}.cls-127{fill:url(#linear-gradient-127);}.cls-128{fill:url(#linear-gradient-128);}.cls-129{fill:url(#linear-gradient-129);}.cls-130{fill:url(#linear-gradient-130);}.cls-131{fill:url(#linear-gradient-131);}.cls-132{fill:url(#linear-gradient-132);}.cls-133{fill:url(#linear-gradient-133);}.cls-134{fill:url(#linear-gradient-134);}.cls-135{fill:url(#linear-gradient-135);}.cls-136{fill:url(#linear-gradient-136);}.cls-137{fill:url(#linear-gradient-137);}.cls-138{fill:url(#linear-gradient-138);}.cls-139{fill:url(#linear-gradient-139);}.cls-140{fill:url(#linear-gradient-140);}.cls-141{fill:url(#linear-gradient-141);}.cls-142{fill:url(#linear-gradient-142);}.cls-143{fill:url(#linear-gradient-143);}.cls-144{fill:url(#linear-gradient-144);}.cls-145{fill:url(#linear-gradient-145);}.cls-146{fill:url(#linear-gradient-146);}.cls-147{fill:url(#linear-gradient-147);}.cls-148{fill:url(#linear-gradient-148);}.cls-149{fill:url(#linear-gradient-149);}.cls-150{fill:url(#linear-gradient-150);}.cls-151{fill:url(#linear-gradient-151);}.cls-152{fill:url(#linear-gradient-152);}.cls-153{fill:url(#linear-gradient-153);}.cls-154{fill:url(#linear-gradient-154);}.cls-155{fill:url(#linear-gradient-155);}.cls-156{fill:url(#linear-gradient-156);}.cls-157{fill:url(#linear-gradient-157);}.cls-158{fill:url(#linear-gradient-158);}.cls-159{fill:url(#linear-gradient-159);}.cls-160{fill:url(#linear-gradient-160);}.cls-161{fill:url(#linear-gradient-161);}.cls-162{fill:url(#linear-gradient-162);}.cls-163{fill:url(#linear-gradient-163);}.cls-164{fill:url(#linear-gradient-164);}.cls-165{fill:url(#linear-gradient-165);}.cls-166{fill:url(#linear-gradient-166);}.cls-167{fill:url(#linear-gradient-167);}.cls-168{fill:url(#linear-gradient-168);}.cls-169{fill:url(#linear-gradient-169);}.cls-170{fill:url(#linear-gradient-170);}.cls-171{fill:url(#linear-gradient-171);}.cls-172{fill:url(#linear-gradient-172);}.cls-173{fill:url(#linear-gradient-173);}.cls-174{fill:url(#linear-gradient-174);}.cls-175{fill:url(#linear-gradient-175);}.cls-176{fill:url(#linear-gradient-176);}.cls-177{fill:url(#linear-gradient-177);}.cls-178{fill:url(#linear-gradient-178);}.cls-179{fill:url(#linear-gradient-179);}.cls-180{fill:url(#linear-gradient-180);}.cls-181{fill:url(#linear-gradient-181);}.cls-182{fill:url(#linear-gradient-182);}.cls-183{fill:url(#linear-gradient-183);}.cls-184{fill:url(#linear-gradient-184);}.cls-185{fill:url(#linear-gradient-185);}.cls-186{fill:url(#linear-gradient-186);}.cls-187{fill:url(#linear-gradient-187);}.cls-188{fill:url(#linear-gradient-188);}.cls-189{fill:url(#linear-gradient-189);}.cls-190{fill:url(#linear-gradient-190);}.cls-191{fill:url(#linear-gradient-191);}.cls-192{fill:url(#linear-gradient-192);}.cls-193{fill:url(#linear-gradient-193);}.cls-194{fill:#154666;}.cls-195{fill:#ba5bb2;}.cls-196{fill:#5cdeff;}.cls-197{fill:#ff7df5;}</style><linearGradient id="linear-gradient" x1="31.54" y1="86.06" x2="132.64" y2="86.06" gradientUnits="userSpaceOnUse"><stop offset="0" stop-color="#154666"/><stop offset="0.11" stop-color="#274a71"/><stop offset="0.33" stop-color="#55558d"/><stop offset="0.64" stop-color="#9f66ba"/><stop offset="1" stop-color="#ff7df5"/></linearGradient><linearGradient id="linear-gradient-2" x1="31.54" y1="85.68" x2="132.64" y2="85.68" xlink:href="#linear-gradient"/><linearGradient id="linear-gradient-3" x1="31.54" y1="88.56" x2="132.64" y2="88.56" xlink:href="#linear-gradient"/><linearGradient id="linear-gradient-4" x1="31.54" y1="83.17" x2="132.64" y2="83.17" xlink:href="#linear-gradient"/><linearGradient id="linear-gradient-5" x1="31.54" y1="91.06" x2="132.64" y2="91.06" xlink:href="#linear-gradient"/><linearGradient id="linear-gradient-6" x1="31.54" y1="80.68" x2="132.64" y2="80.68" xlink:href="#linear-gradient"/><linearGradient id="linear-gradient-7" x1="31.54" y1="93.55" x2="132.64" y2="93.55" xlink:href="#linear-gradient"/><linearGradient id="linear-gradient-8" x1="31.54" y1="78.2" x2="132.64" y2="78.2" xlink:href="#linear-gradient"/><linearGradient id="linear-gradient-9" x1="31.54" y1="96.01" x2="132.64" y2="96.01" xlink:href="#linear-gradient"/><linearGradient id="linear-gradient-10" x1="31.54" y1="75.75" x2="132.64" y2="75.75" xlink:href="#linear-gradient"/><linearGradient id="linear-gradient-11" x1="31.54" y1="98.45" x2="132.64" y2="98.45" xlink:href="#linear-gradient"/><linearGradient id="linear-gradient-12" x1="31.54" y1="73.32" x2="132.64" y2="73.32" xlink:href="#linear-gradient"/><linearGradient id="linear-gradient-13" x1="31.54" y1="100.85" x2="132.64" y2="100.85" xlink:href="#linear-gradient"/><linearGradient id="linear-gradient-14" x1="31.54" y1="70.92" x2="132.64" y2="70.92" xlink:href="#linear-gradient"/><linearGradient id="linear-gradient-15" x1="31.54" y1="103.21" x2="132.64" y2="103.21" xlink:href="#linear-gradient"/><linearGradient id="linear-gradient-16" x1="31.54" y1="68.57" x2="132.64" y2="68.57" xlink:href="#linear-gradient"/><linearGradient id="linear-gradient-17" x1="31.54" y1="105.53" x2="132.64" y2="105.53" xlink:href="#linear-gradient"/><linearGradient id="linear-gradient-18" x1="31.54" y1="66.26" x2="132.64" y2="66.26" xlink:href="#linear-gradient"/><linearGradient id="linear-gradient-19" x1="31.54" y1="107.79" x2="132.64" y2="107.79" xlink:href="#linear-gradient"/><linearGradient id="linear-gradient-20" x1="31.54" y1="64.01" x2="132.64" y2="64.01" xlink:href="#linear-gradient"/><linearGradient id="linear-gradient-21" x1="31.54" y1="109.99" x2="132.64" y2="109.99" xlink:href="#linear-gradient"/><linearGradient id="linear-gradient-22" x1="31.54" y1="61.82" x2="132.64" y2="61.82" xlink:href="#linear-gradient"/><linearGradient id="linear-gradient-23" x1="31.54" y1="112.12" x2="132.64" y2="112.12" xlink:href="#linear-gradient"/><linearGradient id="linear-gradient-24" x1="31.54" y1="59.69" x2="132.64" y2="59.69" xlink:href="#linear-gradient"/><linearGradient id="linear-gradient-25" x1="31.54" y1="114.18" x2="132.64" y2="114.18" xlink:href="#linear-gradient"/><linearGradient id="linear-gradient-26" x1="31.54" y1="57.64" x2="132.64" y2="57.64" xlink:href="#linear-gradient"/><linearGradient id="linear-gradient-27" x1="31.54" y1="116.17" x2="132.64" y2="116.17" xlink:href="#linear-gradient"/><linearGradient id="linear-gradient-28" x1="31.54" y1="55.66" x2="132.64" y2="55.66" xlink:href="#linear-gradient"/><linearGradient id="linear-gradient-29" x1="31.54" y1="118.07" x2="132.64" y2="118.07" xlink:href="#linear-gradient"/><linearGradient id="linear-gradient-30" x1="31.54" y1="53.77" x2="132.64" y2="53.77" xlink:href="#linear-gradient"/><linearGradient id="linear-gradient-31" x1="31.54" y1="119.89" x2="132.64" y2="119.89" xlink:href="#linear-gradient"/><linearGradient id="linear-gradient-32" x1="31.54" y1="51.97" x2="132.64" y2="51.97" xlink:href="#linear-gradient"/><linearGradient id="linear-gradient-33" x1="31.54" y1="121.61" x2="132.64" y2="121.61" xlink:href="#linear-gradient"/><linearGradient id="linear-gradient-34" x1="31.54" y1="50.25" x2="132.64" y2="50.25" xlink:href="#linear-gradient"/><linearGradient id="linear-gradient-35" x1="31.54" y1="123.23" x2="132.64" y2="123.23" xlink:href="#linear-gradient"/><linearGradient id="linear-gradient-36" x1="31.55" y1="48.64" x2="132.64" y2="48.64" xlink:href="#linear-gradient"/><linearGradient id="linear-gradient-37" x1="31.54" y1="124.76" x2="132.64" y2="124.76" xlink:href="#linear-gradient"/><linearGradient id="linear-gradient-38" x1="31.54" y1="47.12" x2="132.64" y2="47.12" xlink:href="#linear-gradient"/><linearGradient id="linear-gradient-39" x1="31.54" y1="126.2" x2="132.65" y2="126.2" xlink:href="#linear-gradient"/><linearGradient id="linear-gradient-40" x1="31.55" y1="45.69" x2="132.64" y2="45.69" xlink:href="#linear-gradient"/><linearGradient id="linear-gradient-41" x1="31.54" y1="127.53" x2="132.64" y2="127.53" xlink:href="#linear-gradient"/><linearGradient id="linear-gradient-42" x1="31.54" y1="44.37" x2="132.64" y2="44.37" xlink:href="#linear-gradient"/><linearGradient id="linear-gradient-43" x1="31.54" y1="128.75" x2="132.65" y2="128.75" xlink:href="#linear-gradient"/><linearGradient id="linear-gradient-44" x1="31.54" y1="43.16" x2="132.64" y2="43.16" xlink:href="#linear-gradient"/><linearGradient id="linear-gradient-45" x1="31.54" y1="129.85" x2="132.64" y2="129.85" xlink:href="#linear-gradient"/><linearGradient id="linear-gradient-46" x1="31.54" y1="42.07" x2="132.64" y2="42.07" xlink:href="#linear-gradient"/><linearGradient id="linear-gradient-47" x1="31.54" y1="130.83" x2="132.64" y2="130.83" xlink:href="#linear-gradient"/><linearGradient id="linear-gradient-48" x1="31.55" y1="41.1" x2="132.64" y2="41.1" xlink:href="#linear-gradient"/><linearGradient id="linear-gradient-49" x1="31.54" y1="131.68" x2="132.64" y2="131.68" xlink:href="#linear-gradient"/><linearGradient id="linear-gradient-50" x1="31.54" y1="40.26" x2="132.64" y2="40.26" xlink:href="#linear-gradient"/><linearGradient id="linear-gradient-51" x1="31.54" y1="132.41" x2="132.64" y2="132.41" xlink:href="#linear-gradient"/><linearGradient id="linear-gradient-52" x1="31.54" y1="39.54" x2="132.64" y2="39.54" xlink:href="#linear-gradient"/><linearGradient id="linear-gradient-53" x1="31.54" y1="133.01" x2="132.64" y2="133.01" xlink:href="#linear-gradient"/><linearGradient id="linear-gradient-54" x1="31.54" y1="38.94" x2="132.64" y2="38.94" xlink:href="#linear-gradient"/><linearGradient id="linear-gradient-55" x1="31.54" y1="133.49" x2="132.64" y2="133.49" xlink:href="#linear-gradient"/><linearGradient id="linear-gradient-56" x1="31.54" y1="38.48" x2="132.64" y2="38.48" xlink:href="#linear-gradient"/><linearGradient id="linear-gradient-57" x1="31.54" y1="133.83" x2="132.64" y2="133.83" xlink:href="#linear-gradient"/><linearGradient id="linear-gradient-58" x1="31.54" y1="38.14" x2="132.64" y2="38.14" xlink:href="#linear-gradient"/><linearGradient id="linear-gradient-59" x1="31.54" y1="134.04" x2="132.64" y2="134.04" xlink:href="#linear-gradient"/><linearGradient id="linear-gradient-60" x1="31.54" y1="37.94" x2="132.64" y2="37.94" xlink:href="#linear-gradient"/><linearGradient id="linear-gradient-61" x1="31.54" y1="134.12" x2="132.64" y2="134.12" xlink:href="#linear-gradient"/><linearGradient id="linear-gradient-62" x1="31.54" y1="37.87" x2="132.64" y2="37.87" xlink:href="#linear-gradient"/><linearGradient id="linear-gradient-63" x1="31.54" y1="134.07" x2="132.64" y2="134.07" xlink:href="#linear-gradient"/><linearGradient id="linear-gradient-64" x1="31.54" y1="37.93" x2="132.64" y2="37.93" xlink:href="#linear-gradient"/><linearGradient id="linear-gradient-65" x1="31.54" y1="133.89" x2="132.64" y2="133.89" xlink:href="#linear-gradient"/><linearGradient id="linear-gradient-66" x1="31.54" y1="38.12" x2="132.64" y2="38.12" xlink:href="#linear-gradient"/><linearGradient id="linear-gradient-67" x1="31.54" y1="133.57" x2="132.64" y2="133.57" xlink:href="#linear-gradient"/><linearGradient id="linear-gradient-68" x1="31.54" y1="38.44" x2="132.64" y2="38.44" xlink:href="#linear-gradient"/><linearGradient id="linear-gradient-69" x1="31.54" y1="133.12" x2="132.64" y2="133.12" xlink:href="#linear-gradient"/><linearGradient id="linear-gradient-70" x1="31.54" y1="38.89" x2="132.64" y2="38.89" xlink:href="#linear-gradient"/><linearGradient id="linear-gradient-71" x1="31.54" y1="132.55" x2="132.64" y2="132.55" xlink:href="#linear-gradient"/><linearGradient id="linear-gradient-72" x1="31.54" y1="39.48" x2="132.64" y2="39.48" xlink:href="#linear-gradient"/><linearGradient id="linear-gradient-73" x1="31.54" y1="131.85" x2="132.64" y2="131.85" xlink:href="#linear-gradient"/><linearGradient id="linear-gradient-74" x1="31.54" y1="40.19" x2="132.64" y2="40.19" xlink:href="#linear-gradient"/><linearGradient id="linear-gradient-75" x1="31.54" y1="131.02" x2="132.64" y2="131.02" xlink:href="#linear-gradient"/><linearGradient id="linear-gradient-76" x1="31.54" y1="41.02" x2="132.64" y2="41.02" xlink:href="#linear-gradient"/><linearGradient id="linear-gradient-77" x1="31.54" y1="130.06" x2="132.64" y2="130.06" xlink:href="#linear-gradient"/><linearGradient id="linear-gradient-78" x1="31.54" y1="41.98" x2="132.64" y2="41.98" xlink:href="#linear-gradient"/><linearGradient id="linear-gradient-79" x1="31.54" y1="128.99" x2="132.64" y2="128.99" xlink:href="#linear-gradient"/><linearGradient id="linear-gradient-80" x1="31.54" y1="43.06" x2="132.64" y2="43.06" xlink:href="#linear-gradient"/><linearGradient id="linear-gradient-81" x1="31.54" y1="127.8" x2="132.64" y2="127.8" xlink:href="#linear-gradient"/><linearGradient id="linear-gradient-82" x1="31.54" y1="44.25" x2="132.64" y2="44.25" xlink:href="#linear-gradient"/><linearGradient id="linear-gradient-83" x1="31.54" y1="126.49" x2="132.64" y2="126.49" xlink:href="#linear-gradient"/><linearGradient id="linear-gradient-84" x1="31.54" y1="45.56" x2="132.64" y2="45.56" xlink:href="#linear-gradient"/><linearGradient id="linear-gradient-85" x1="31.54" y1="125.08" x2="132.64" y2="125.08" xlink:href="#linear-gradient"/><linearGradient id="linear-gradient-86" x1="31.54" y1="46.98" x2="132.64" y2="46.98" xlink:href="#linear-gradient"/><linearGradient id="linear-gradient-87" x1="31.54" y1="123.55" x2="132.64" y2="123.55" xlink:href="#linear-gradient"/><linearGradient id="linear-gradient-88" x1="31.54" y1="48.51" x2="132.64" y2="48.51" xlink:href="#linear-gradient"/><linearGradient id="linear-gradient-89" x1="31.54" y1="121.92" x2="132.64" y2="121.92" xlink:href="#linear-gradient"/><linearGradient id="linear-gradient-90" x1="31.54" y1="50.14" x2="132.64" y2="50.14" xlink:href="#linear-gradient"/><linearGradient id="linear-gradient-91" x1="31.54" y1="120.2" x2="132.64" y2="120.2" xlink:href="#linear-gradient"/><linearGradient id="linear-gradient-92" x1="31.54" y1="51.87" x2="132.64" y2="51.87" xlink:href="#linear-gradient"/><linearGradient id="linear-gradient-93" x1="31.54" y1="118.38" x2="132.64" y2="118.38" xlink:href="#linear-gradient"/><linearGradient id="linear-gradient-94" x1="31.54" y1="53.69" x2="132.64" y2="53.69" xlink:href="#linear-gradient"/><linearGradient id="linear-gradient-95" x1="31.54" y1="116.47" x2="132.64" y2="116.47" xlink:href="#linear-gradient"/><linearGradient id="linear-gradient-96" x1="31.54" y1="55.6" x2="132.64" y2="55.6" xlink:href="#linear-gradient"/><linearGradient id="linear-gradient-97" x1="31.54" y1="114.48" x2="132.64" y2="114.48" xlink:href="#linear-gradient"/><linearGradient id="linear-gradient-98" x1="31.54" y1="57.59" x2="132.64" y2="57.59" xlink:href="#linear-gradient"/><linearGradient id="linear-gradient-99" x1="31.54" y1="112.29" x2="132.64" y2="112.29" xlink:href="#linear-gradient"/><linearGradient id="linear-gradient-100" x1="31.54" y1="59.77" x2="132.64" y2="59.77" xlink:href="#linear-gradient"/><linearGradient id="linear-gradient-101" x1="31.54" y1="110" x2="132.64" y2="110" xlink:href="#linear-gradient"/><linearGradient id="linear-gradient-102" x1="31.54" y1="62.07" x2="132.64" y2="62.07" xlink:href="#linear-gradient"/><linearGradient id="linear-gradient-103" x1="31.54" y1="107.67" x2="132.64" y2="107.67" xlink:href="#linear-gradient"/><linearGradient id="linear-gradient-104" x1="31.54" y1="64.39" x2="132.64" y2="64.39" xlink:href="#linear-gradient"/><linearGradient id="linear-gradient-105" x1="31.54" y1="105.33" x2="132.64" y2="105.33" xlink:href="#linear-gradient"/><linearGradient id="linear-gradient-106" x1="31.54" y1="66.73" x2="132.64" y2="66.73" xlink:href="#linear-gradient"/><linearGradient id="linear-gradient-107" x1="31.54" y1="103" x2="132.64" y2="103" xlink:href="#linear-gradient"/><linearGradient id="linear-gradient-108" x1="31.54" y1="69.06" x2="132.64" y2="69.06" xlink:href="#linear-gradient"/><linearGradient id="linear-gradient-109" x1="31.54" y1="100.63" x2="132.64" y2="100.63" xlink:href="#linear-gradient"/><linearGradient id="linear-gradient-110" x1="31.54" y1="71.43" x2="132.64" y2="71.43" xlink:href="#linear-gradient"/><linearGradient id="linear-gradient-111" x1="31.54" y1="98.22" x2="132.64" y2="98.22" xlink:href="#linear-gradient"/><linearGradient id="linear-gradient-112" x1="31.54" y1="73.83" x2="132.64" y2="73.83" xlink:href="#linear-gradient"/><linearGradient id="linear-gradient-113" x1="31.54" y1="95.79" x2="132.64" y2="95.79" xlink:href="#linear-gradient"/><linearGradient id="linear-gradient-114" x1="31.54" y1="76.27" x2="132.64" y2="76.27" xlink:href="#linear-gradient"/><linearGradient id="linear-gradient-115" x1="31.54" y1="93.32" x2="132.64" y2="93.32" xlink:href="#linear-gradient"/><linearGradient id="linear-gradient-116" x1="31.54" y1="78.73" x2="132.64" y2="78.73" xlink:href="#linear-gradient"/><linearGradient id="linear-gradient-117" x1="31.54" y1="90.83" x2="132.64" y2="90.83" xlink:href="#linear-gradient"/><linearGradient id="linear-gradient-118" x1="31.54" y1="81.21" x2="132.64" y2="81.21" xlink:href="#linear-gradient"/><linearGradient id="linear-gradient-119" x1="31.54" y1="88.33" x2="132.64" y2="88.33" xlink:href="#linear-gradient"/><linearGradient id="linear-gradient-120" x1="31.54" y1="83.71" x2="132.64" y2="83.71" xlink:href="#linear-gradient"/><linearGradient id="linear-gradient-121" x1="325.49" y1="61.77" x2="407.69" y2="61.77" gradientTransform="translate(448.51 147.76) rotate(180)" xlink:href="#linear-gradient"/><linearGradient id="linear-gradient-122" x1="30.52" y1="85.99" x2="133.3" y2="85.99" xlink:href="#linear-gradient"/><linearGradient id="linear-gradient-123" x1="59.33" y1="4.37" x2="120.28" y2="65.32" xlink:href="#linear-gradient"/><linearGradient id="linear-gradient-124" x1="61.03" y1="2.68" x2="121.98" y2="63.62" xlink:href="#linear-gradient"/><linearGradient id="linear-gradient-125" x1="62.53" y1="1.18" x2="123.48" y2="62.12" xlink:href="#linear-gradient"/><linearGradient id="linear-gradient-126" x1="306.52" y1="55.73" x2="367.47" y2="116.67" gradientTransform="translate(429.16 233.32) rotate(180)" xlink:href="#linear-gradient"/><linearGradient id="linear-gradient-127" x1="308.22" y1="54.03" x2="369.17" y2="114.97" gradientTransform="translate(429.16 233.32) rotate(180)" xlink:href="#linear-gradient"/><linearGradient id="linear-gradient-128" x1="309.72" y1="52.53" x2="370.67" y2="113.47" gradientTransform="translate(429.16 233.32) rotate(180)" xlink:href="#linear-gradient"/><linearGradient id="linear-gradient-129" x1="81.61" y1="-8.43" x2="142.55" y2="52.51" gradientTransform="matrix(1, 0, 0, 1, -16.27, 38.98)" xlink:href="#linear-gradient"/><linearGradient id="linear-gradient-130" x1="83.31" y1="-10.13" x2="144.25" y2="50.82" gradientTransform="translate(-17.15 39.09)" xlink:href="#linear-gradient"/><linearGradient id="linear-gradient-131" x1="84.81" y1="-11.63" x2="145.75" y2="49.31" gradientTransform="matrix(1, 0, 0, 1, -17.93, 39.2)" xlink:href="#linear-gradient"/><linearGradient id="linear-gradient-132" x1="305.15" y1="93.13" x2="366.1" y2="154.07" gradientTransform="matrix(-1, 0, 0, -1, 462.21, 293.17)" xlink:href="#linear-gradient"/><linearGradient id="linear-gradient-133" x1="306.85" y1="91.43" x2="367.8" y2="152.37" gradientTransform="translate(463.1 293.02) rotate(180)" xlink:href="#linear-gradient"/><linearGradient id="linear-gradient-134" x1="308.35" y1="89.93" x2="369.3" y2="150.87" gradientTransform="translate(463.87 292.94) rotate(-180)" xlink:href="#linear-gradient"/><linearGradient id="linear-gradient-135" x1="92.65" y1="-43.84" x2="153.59" y2="17.11" gradientTransform="translate(-40.57 79.88)" xlink:href="#linear-gradient"/><linearGradient id="linear-gradient-136" x1="94.35" y1="-45.54" x2="155.29" y2="15.41" gradientTransform="matrix(1, 0, 0, 1, -42.27, 80.34)" xlink:href="#linear-gradient"/><linearGradient id="linear-gradient-137" x1="95.85" y1="-47.04" x2="156.79" y2="13.91" gradientTransform="translate(-43.77 80.74)" xlink:href="#linear-gradient"/><linearGradient id="linear-gradient-138" x1="293.59" y1="128.81" x2="354.53" y2="189.75" gradientTransform="translate(463.92 323.33) rotate(180)" xlink:href="#linear-gradient"/><linearGradient id="linear-gradient-139" x1="295.29" y1="127.11" x2="356.23" y2="188.05" gradientTransform="translate(465.6 322.91) rotate(-180)" xlink:href="#linear-gradient"/><linearGradient id="linear-gradient-140" x1="296.79" y1="125.61" x2="357.73" y2="186.55" gradientTransform="translate(467.12 322.46) rotate(180)" xlink:href="#linear-gradient"/><linearGradient id="linear-gradient-141" x1="112.76" y1="-75.44" x2="173.71" y2="-14.5" gradientTransform="translate(-72.07 120.21)" xlink:href="#linear-gradient"/><linearGradient id="linear-gradient-142" x1="114.46" y1="-77.14" x2="175.4" y2="-16.2" gradientTransform="translate(-74.46 121.22)" xlink:href="#linear-gradient"/><linearGradient id="linear-gradient-143" x1="115.96" y1="-78.64" x2="176.91" y2="-17.69" gradientTransform="translate(-76.58 122.11) rotate(-0.01)" xlink:href="#linear-gradient"/><linearGradient id="linear-gradient-144" x1="273.48" y1="160.01" x2="334.42" y2="220.95" gradientTransform="translate(455.19 345.8) rotate(180)" xlink:href="#linear-gradient"/><linearGradient id="linear-gradient-145" x1="275.18" y1="158.31" x2="336.12" y2="219.25" gradientTransform="translate(457.59 344.81) rotate(180)" xlink:href="#linear-gradient"/><linearGradient id="linear-gradient-146" x1="276.67" y1="156.81" x2="337.62" y2="217.75" gradientTransform="translate(459.71 343.93) rotate(180)" xlink:href="#linear-gradient"/><linearGradient id="linear-gradient-147" x1="140.52" y1="-100.58" x2="201.46" y2="-39.63" gradientTransform="matrix(1, 0, 0, 1, -108.56, 156.73)" xlink:href="#linear-gradient"/><linearGradient id="linear-gradient-148" x1="142.22" y1="-102.28" x2="203.16" y2="-41.33" gradientTransform="matrix(1, 0, 0, 1, -111.5, 158.43)" xlink:href="#linear-gradient"/><linearGradient id="linear-gradient-149" x1="143.72" y1="-103.78" x2="204.66" y2="-42.83" gradientTransform="translate(-114.1 159.93)" xlink:href="#linear-gradient"/><linearGradient id="linear-gradient-150" x1="246.13" y1="185.13" x2="307.07" y2="246.08" gradientTransform="translate(436.57 359.55) rotate(-180)" xlink:href="#linear-gradient"/><linearGradient id="linear-gradient-151" x1="247.83" y1="183.43" x2="308.77" y2="244.38" gradientTransform="translate(439.51 357.85) rotate(-180)" xlink:href="#linear-gradient"/><linearGradient id="linear-gradient-152" x1="249.33" y1="181.93" x2="310.27" y2="242.88" gradientTransform="translate(442.1 356.36) rotate(-180)" xlink:href="#linear-gradient"/><linearGradient id="linear-gradient-153" x1="173.51" y1="-117.46" x2="234.46" y2="-56.51" gradientTransform="translate(-147.04 186.87)" xlink:href="#linear-gradient"/><linearGradient id="linear-gradient-154" x1="175.21" y1="-119.16" x2="236.16" y2="-58.21" gradientTransform="translate(-150.31 189.4)" xlink:href="#linear-gradient"/><linearGradient id="linear-gradient-155" x1="176.71" y1="-120.66" x2="237.65" y2="-59.72" gradientTransform="translate(-153.21 191.62)" xlink:href="#linear-gradient"/><linearGradient id="linear-gradient-156" x1="212.87" y1="202.54" x2="273.81" y2="263.48" gradientTransform="translate(408.81 363.69) rotate(180)" xlink:href="#linear-gradient"/><linearGradient id="linear-gradient-157" x1="214.57" y1="200.84" x2="275.51" y2="261.78" gradientTransform="translate(412.11 361.15) rotate(180)" xlink:href="#linear-gradient"/><linearGradient id="linear-gradient-158" x1="216.07" y1="199.34" x2="277.01" y2="260.28" gradientTransform="matrix(-1, 0, 0, -1, 414.99, 358.95)" xlink:href="#linear-gradient"/><linearGradient id="linear-gradient-159" x1="209.79" y1="-125.77" x2="270.73" y2="-64.83" gradientTransform="translate(130.15 273.83) rotate(-90)" xlink:href="#linear-gradient"/><linearGradient id="linear-gradient-160" x1="211.49" y1="-127.47" x2="272.43" y2="-66.53" gradientTransform="translate(130.15 273.83) rotate(-90)" xlink:href="#linear-gradient"/><linearGradient id="linear-gradient-161" x1="212.99" y1="-128.97" x2="273.93" y2="-68.03" gradientTransform="translate(130.15 273.83) rotate(-90)" xlink:href="#linear-gradient"/><linearGradient id="linear-gradient-162" x1="176.3" y1="210.19" x2="237.24" y2="271.13" gradientTransform="translate(387.77 -175.55) rotate(90)" xlink:href="#linear-gradient"/><linearGradient id="linear-gradient-163" x1="177.99" y1="208.49" x2="238.94" y2="269.43" gradientTransform="translate(387.77 -175.55) rotate(90)" xlink:href="#linear-gradient"/><linearGradient id="linear-gradient-164" x1="247.38" y1="-123.92" x2="308.32" y2="-62.98" gradientTransform="matrix(0, -1, 1, 0, 150.38, 349.94)" xlink:href="#linear-gradient"/><linearGradient id="linear-gradient-165" x1="249.08" y1="-125.62" x2="310.02" y2="-64.67" gradientTransform="translate(150.48 350.83) rotate(-90)" xlink:href="#linear-gradient"/><linearGradient id="linear-gradient-166" x1="250.58" y1="-127.12" x2="311.52" y2="-66.17" gradientTransform="matrix(0, -1, 1, 0, 150.6, 351.6)" xlink:href="#linear-gradient"/><linearGradient id="linear-gradient-167" x1="139.38" y1="208.62" x2="200.32" y2="269.56" gradientTransform="translate(404.55 -128.55) rotate(90)" xlink:href="#linear-gradient"/><linearGradient id="linear-gradient-168" x1="141.08" y1="206.92" x2="202.02" y2="267.86" gradientTransform="translate(404.45 -129.41) rotate(90)" xlink:href="#linear-gradient"/><linearGradient id="linear-gradient-169" x1="142.58" y1="205.42" x2="203.52" y2="266.36" gradientTransform="matrix(0, 1, -1, 0, 404.34, -130.2)" xlink:href="#linear-gradient"/><linearGradient id="linear-gradient-170" x1="282.66" y1="-112.48" x2="343.61" y2="-51.54" gradientTransform="translate(144.45 398.48) rotate(-90)" xlink:href="#linear-gradient"/><linearGradient id="linear-gradient-171" x1="284.36" y1="-114.18" x2="345.31" y2="-53.24" gradientTransform="translate(144.9 400.18) rotate(-90)" xlink:href="#linear-gradient"/><linearGradient id="linear-gradient-172" x1="285.86" y1="-115.68" x2="346.8" y2="-54.74" gradientTransform="translate(145.31 401.68) rotate(-90)" xlink:href="#linear-gradient"/><linearGradient id="linear-gradient-173" x1="103.57" y1="197.45" x2="164.52" y2="258.4" gradientTransform="translate(387.89 -106.01) rotate(90)" xlink:href="#linear-gradient"/><linearGradient id="linear-gradient-174" x1="105.27" y1="195.75" x2="166.22" y2="256.7" gradientTransform="matrix(0, 1, -1, 0, 387.44, -107.71)" xlink:href="#linear-gradient"/><linearGradient id="linear-gradient-175" x1="106.77" y1="194.25" x2="167.72" y2="255.2" gradientTransform="matrix(0, 1, -1, 0, 387.03, -109.21)" xlink:href="#linear-gradient"/><linearGradient id="linear-gradient-176" x1="314.07" y1="-92.57" x2="375.01" y2="-31.63" gradientTransform="matrix(0, -1, 1, 0, 133.27, 441.27)" xlink:href="#linear-gradient"/><linearGradient id="linear-gradient-177" x1="315.77" y1="-94.27" x2="376.71" y2="-33.33" gradientTransform="translate(134.26 443.67) rotate(-90)" xlink:href="#linear-gradient"/><linearGradient id="linear-gradient-178" x1="317.27" y1="-95.77" x2="378.21" y2="-34.83" gradientTransform="matrix(0, -1, 1, 0, 135.11, 445.81)" xlink:href="#linear-gradient"/><linearGradient id="linear-gradient-179" x1="72.17" y1="177.14" x2="133.12" y2="238.08" gradientTransform="translate(358.84 -86) rotate(90)" xlink:href="#linear-gradient"/><linearGradient id="linear-gradient-180" x1="73.87" y1="175.43" x2="134.82" y2="236.38" gradientTransform="translate(357.86 -88.37) rotate(90)" xlink:href="#linear-gradient"/><linearGradient id="linear-gradient-181" x1="75.37" y1="173.93" x2="136.32" y2="234.88" gradientTransform="translate(356.98 -90.51) rotate(90)" xlink:href="#linear-gradient"/><linearGradient id="linear-gradient-182" x1="339.4" y1="-65.02" x2="400.34" y2="-4.08" gradientTransform="translate(117.09 475.33) rotate(-90)" xlink:href="#linear-gradient"/><linearGradient id="linear-gradient-183" x1="341.1" y1="-66.72" x2="402.04" y2="-5.78" gradientTransform="translate(118.82 478.27) rotate(-90)" xlink:href="#linear-gradient"/><linearGradient id="linear-gradient-184" x1="342.6" y1="-68.22" x2="403.54" y2="-7.28" gradientTransform="matrix(0, -1, 1, 0, 120.28, 480.88)" xlink:href="#linear-gradient"/><linearGradient id="linear-gradient-185" x1="47.25" y1="149.58" x2="108.19" y2="210.52" gradientTransform="translate(319.9 -69.8) rotate(90)" xlink:href="#linear-gradient"/><linearGradient id="linear-gradient-186" x1="48.95" y1="147.88" x2="109.89" y2="208.82" gradientTransform="translate(318.21 -72.73) rotate(90)" xlink:href="#linear-gradient"/><linearGradient id="linear-gradient-187" x1="50.45" y1="146.38" x2="111.39" y2="207.32" gradientTransform="translate(316.71 -75.32) rotate(90)" xlink:href="#linear-gradient"/><linearGradient id="linear-gradient-188" x1="356.41" y1="-31.64" x2="417.36" y2="29.31" gradientTransform="translate(96.99 497.83) rotate(-90)" xlink:href="#linear-gradient"/><linearGradient id="linear-gradient-189" x1="358.11" y1="-33.34" x2="419.06" y2="27.61" gradientTransform="translate(99.48 501.12) rotate(-90)" xlink:href="#linear-gradient"/><linearGradient id="linear-gradient-190" x1="359.61" y1="-34.84" x2="420.55" y2="26.11" gradientTransform="matrix(0, -1, 1, 0, 101.72, 504.01)" xlink:href="#linear-gradient"/><linearGradient id="linear-gradient-191" x1="29.97" y1="116.72" x2="90.91" y2="177.66" gradientTransform="translate(273.79 -58) rotate(90)" xlink:href="#linear-gradient"/><linearGradient id="linear-gradient-192" x1="31.67" y1="115.02" x2="92.61" y2="175.96" gradientTransform="translate(271.27 -61.3) rotate(90)" xlink:href="#linear-gradient"/><linearGradient id="linear-gradient-193" x1="33.17" y1="113.52" x2="94.11" y2="174.46" gradientTransform="translate(269.05 -64.19) rotate(90)" xlink:href="#linear-gradient"/></defs><title>circle114</title><path class="cls-1" d="M30.65,87.24l0.92-.58c0.56-.34,1.32-0.77,2.1-1.15,1.55-.78,3.15-1.4,3.15-1.4s-1.51.84-2.91,1.81c-0.7.48-1.38,1-1.87,1.4L31.22,88Z" transform="translate(-20.22 -24.31)"/><path class="cls-2" d="M133.07,84.49l-0.92.58c-0.56.34-1.32,0.77-2.09,1.15-1.55.78-3.15,1.4-3.15,1.4s1.51-.84,2.91-1.81c0.7-.48,1.38-1,1.87-1.4l0.81-.69Z" transform="translate(-20.22 -24.31)"/><path class="cls-3" d="M30.78,89.93l0.89-.63c0.54-.37,1.28-0.83,2-1.26,1.51-.86,3.08-1.56,3.08-1.56s-1.46.92-2.81,2c-0.68.52-1.33,1.07-1.8,1.5l-0.77.73Z" transform="translate(-20.22 -24.31)"/><path class="cls-4" d="M132.92,81.81l-0.89.63c-0.54.37-1.28,0.83-2,1.26-1.5.86-3.08,1.56-3.08,1.56s1.46-.92,2.81-2c0.68-.52,1.33-1.07,1.8-1.5l0.77-.73Z" transform="translate(-20.22 -24.31)"/><path class="cls-5" d="M31.06,92.6l0.85-.68c0.52-.4,1.23-0.9,2-1.37,1.46-.94,3-1.72,3-1.72s-1.41,1-2.71,2.11c-0.65.55-1.27,1.14-1.72,1.59l-0.73.77Z" transform="translate(-20.22 -24.31)"/><path class="cls-6" d="M132.64,79.15l-0.85.68c-0.52.4-1.23,0.9-2,1.37-1.46.94-3,1.72-3,1.72s1.41-1,2.71-2.11c0.65-.55,1.27-1.14,1.72-1.59l0.73-.77Z" transform="translate(-20.22 -24.31)"/><path class="cls-7" d="M31.48,95.25l0.82-.72c0.5-.42,1.18-1,1.89-1.47,1.41-1,2.9-1.88,2.9-1.88s-1.36,1.06-2.59,2.25c-0.62.59-1.21,1.2-1.63,1.68l-0.69.8Z" transform="translate(-20.22 -24.31)"/><path class="cls-8" d="M132.21,76.5l-0.82.72c-0.5.42-1.18,1-1.89,1.47-1.41,1-2.9,1.88-2.9,1.88s1.36-1.06,2.59-2.25c0.62-.59,1.21-1.2,1.63-1.68l0.69-.8Z" transform="translate(-20.22 -24.31)"/><path class="cls-9" d="M32,97.87l0.78-.76c0.48-.45,1.13-1,1.81-1.56,1.35-1.09,2.79-2,2.79-2s-1.3,1.13-2.47,2.38c-0.59.62-1.14,1.26-1.54,1.76l-0.65.84Z" transform="translate(-20.22 -24.31)"/><path class="cls-10" d="M131.65,73.88l-0.78.76c-0.48.45-1.13,1-1.81,1.56-1.35,1.09-2.79,2-2.79,2s1.3-1.13,2.47-2.38c0.59-.62,1.14-1.26,1.54-1.76l0.65-.84Z" transform="translate(-20.22 -24.31)"/><path class="cls-11" d="M32.73,100.47l0.74-.8c0.45-.47,1.08-1.08,1.73-1.66,1.29-1.16,2.68-2.17,2.68-2.17s-1.24,1.2-2.34,2.5c-0.56.65-1.08,1.32-1.45,1.84l-0.6.87Z" transform="translate(-20.22 -24.31)"/><path class="cls-12" d="M130.95,71.3l-0.74.8c-0.45.47-1.08,1.08-1.73,1.66-1.29,1.16-2.68,2.17-2.68,2.17s1.24-1.2,2.34-2.5c0.56-.65,1.08-1.32,1.45-1.84l0.6-.87Z" transform="translate(-20.22 -24.31)"/><path class="cls-13" d="M33.56,103l0.7-.84c0.43-.5,1-1.14,1.64-1.74,1.23-1.22,2.57-2.31,2.57-2.31s-1.17,1.26-2.21,2.62c-0.52.68-1,1.38-1.35,1.91l-0.56.9Z" transform="translate(-20.22 -24.31)"/><path class="cls-14" d="M130.12,68.75l-0.69.84c-0.43.5-1,1.14-1.64,1.74-1.23,1.22-2.57,2.31-2.57,2.31s1.17-1.26,2.21-2.62c0.52-.68,1-1.38,1.35-1.91l0.56-.9Z" transform="translate(-20.22 -24.31)"/><path class="cls-15" d="M34.52,105.53l0.65-.88c0.4-.52,1-1.19,1.54-1.83,1.17-1.28,2.44-2.44,2.44-2.44s-1.11,1.32-2.07,2.74c-0.48.7-.93,1.43-1.25,2l-0.51.93Z" transform="translate(-20.22 -24.31)"/><path class="cls-16" d="M129.15,66.25l-0.65.88c-0.4.52-1,1.19-1.54,1.83-1.16,1.28-2.44,2.44-2.44,2.44s1.11-1.32,2.07-2.74c0.48-.7.93-1.43,1.25-2l0.51-.93Z" transform="translate(-20.22 -24.31)"/><path class="cls-17" d="M35.61,108l0.6-.91c0.37-.54.89-1.24,1.45-1.91,1.1-1.34,2.31-2.56,2.31-2.56s-1,1.38-1.92,2.84c-0.45.73-.86,1.47-1.14,2l-0.46,1Z" transform="translate(-20.22 -24.31)"/><path class="cls-18" d="M128.05,63.81l-0.6.91c-0.37.54-.89,1.24-1.45,1.91-1.1,1.34-2.31,2.56-2.31,2.56s1-1.38,1.92-2.84c0.45-.73.86-1.47,1.14-2l0.46-1Z" transform="translate(-20.22 -24.31)"/><path class="cls-19" d="M36.82,110.38l0.55-.94c0.34-.56.83-1.28,1.34-2,1-1.4,2.17-2.68,2.17-2.68s-1,1.43-1.77,2.94c-0.41.75-.78,1.52-1,2.1l-0.41,1Z" transform="translate(-20.22 -24.31)"/><path class="cls-20" d="M126.83,61.42l-0.55.94c-0.34.56-.83,1.28-1.34,2-1,1.4-2.17,2.68-2.17,2.68s1-1.43,1.77-2.94c0.41-.75.78-1.52,1-2.1L126,61Z" transform="translate(-20.22 -24.31)"/><path class="cls-21" d="M38.17,112.7l0.51-1c0.31-.58.76-1.32,1.24-2,0.95-1.45,2-2.79,2-2.79s-0.89,1.48-1.61,3c-0.37.77-.7,1.56-0.92,2.15l-0.36,1Z" transform="translate(-20.22 -24.31)"/><path class="cls-22" d="M125.49,59.1l-0.5,1c-0.31.58-.76,1.32-1.24,2-0.95,1.45-2,2.79-2,2.79s0.89-1.48,1.61-3c0.37-.77.7-1.56,0.92-2.15l0.36-1Z" transform="translate(-20.22 -24.31)"/><path class="cls-23" d="M39.63,115l0.45-1c0.28-.59.69-1.36,1.13-2.11,0.87-1.5,1.88-2.89,1.88-2.89s-0.81,1.52-1.45,3.11c-0.33.79-.62,1.59-0.81,2.19l-0.3,1Z" transform="translate(-20.22 -24.31)"/><path class="cls-24" d="M124,56.86l-0.45,1c-0.28.59-.69,1.36-1.13,2.11-0.87,1.5-1.88,2.89-1.88,2.89s0.81-1.52,1.45-3.11c0.33-.79.62-1.59,0.81-2.2l0.3-1Z" transform="translate(-20.22 -24.31)"/><path class="cls-25" d="M41.2,117.13l0.4-1c0.25-.6.62-1.4,1-2.16,0.79-1.54,1.73-3,1.73-3s-0.73,1.56-1.29,3.18c-0.29.81-.53,1.62-0.69,2.23l-0.25,1Z" transform="translate(-20.22 -24.31)"/><path class="cls-26" d="M122.44,54.7l-0.4,1c-0.25.6-.62,1.4-1,2.16-0.79,1.54-1.73,3-1.73,3s0.73-1.56,1.29-3.18c0.29-.81.53-1.62,0.69-2.23l0.25-1Z" transform="translate(-20.22 -24.31)"/><path class="cls-27" d="M42.89,119.22l0.35-1c0.22-.62.54-1.43,0.9-2.21,0.71-1.58,1.57-3.07,1.57-3.07s-0.64,1.6-1.12,3.24c-0.24.82-.45,1.65-0.57,2.27l-0.19,1Z" transform="translate(-20.22 -24.31)"/><path class="cls-28" d="M120.75,52.62l-0.35,1c-0.22.62-.54,1.43-0.9,2.21-0.71,1.58-1.57,3.07-1.57,3.07s0.64-1.6,1.12-3.24c0.24-.82.45-1.65,0.57-2.27l0.19-1Z" transform="translate(-20.22 -24.31)"/><path class="cls-29" d="M44.69,121.21L45,120.16c0.19-.63.47-1.45,0.79-2.26,0.63-1.62,1.41-3.15,1.41-3.15s-0.56,1.63-1,3.29c-0.2.83-.36,1.67-0.46,2.29l-0.14,1.05Z" transform="translate(-20.22 -24.31)"/><path class="cls-30" d="M119,50.63l-0.29,1.05c-0.19.63-.47,1.45-0.79,2.26-0.63,1.62-1.41,3.15-1.41,3.15s0.56-1.63,1-3.29c0.2-.83.36-1.67,0.45-2.29L118,50.45Z" transform="translate(-20.22 -24.31)"/><path class="cls-31" d="M46.58,123.11L46.82,122c0.15-.64.39-1.47,0.67-2.3,0.54-1.65,1.24-3.22,1.24-3.22s-0.47,1.66-.78,3.34c-0.16.84-.27,1.68-0.33,2.32l-0.09,1.06Z" transform="translate(-20.22 -24.31)"/><path class="cls-32" d="M117.06,48.74l-0.24,1.06c-0.15.64-.39,1.47-0.67,2.3-0.54,1.65-1.24,3.22-1.24,3.22s0.47-1.66.78-3.34c0.16-.84.27-1.68,0.33-2.32l0.09-1.06Z" transform="translate(-20.22 -24.31)"/><path class="cls-33" d="M48.58,124.91l0.18-1.08c0.12-.64.31-1.49,0.55-2.33,0.45-1.67,1.07-3.28,1.07-3.28s-0.39,1.68-.6,3.38c-0.11.85-.18,1.7-0.21,2.33l0,1.06Z" transform="translate(-20.22 -24.31)"/><path class="cls-34" d="M115.06,47L114.88,48c-0.12.64-.31,1.49-0.55,2.33-0.45,1.67-1.07,3.28-1.07,3.28s0.39-1.68.6-3.38c0.11-.85.18-1.7,0.21-2.33l0-1.06Z" transform="translate(-20.22 -24.31)"/><path class="cls-35" d="M50.66,126.6l0.13-1.08c0.09-.65.24-1.51,0.42-2.35,0.37-1.7.9-3.33,0.9-3.33s-0.3,1.7-.42,3.4c-0.07.85-.09,1.7-0.09,2.34l0,1.06Z" transform="translate(-20.22 -24.31)"/><path class="cls-36" d="M113,45.27l-0.12,1.08c-0.09.65-.24,1.51-0.42,2.35-0.37,1.7-.9,3.33-0.9,3.33s0.3-1.7.42-3.4c0.07-.85.09-1.7,0.09-2.34l0-1.06Z" transform="translate(-20.22 -24.31)"/><path class="cls-37" d="M52.83,128.18l0.07-1.09c0.05-.65.16-1.52,0.3-2.37,0.28-1.71.72-3.37,0.72-3.37s-0.21,1.71-.24,3.42c0,0.85,0,1.71,0,2.34l0.08,1.06Z" transform="translate(-20.22 -24.31)"/><path class="cls-38" d="M110.8,43.7l-0.07,1.09c-0.05.65-.16,1.52-0.3,2.37-0.28,1.71-.72,3.38-0.72,3.38s0.21-1.71.24-3.42c0-.85,0-1.7,0-2.34l-0.08-1.06Z" transform="translate(-20.22 -24.31)"/><path class="cls-39" d="M55.08,129.65v-1.09c0-.65.08-1.52,0.17-2.38,0.19-1.72.54-3.41,0.54-3.41s-0.12,1.72-.07,3.43c0,0.85.08,1.7,0.15,2.33L56,129.58Z" transform="translate(-20.22 -24.31)"/><path class="cls-40" d="M108.55,42.25v1.09c0,0.66-.08,1.52-0.17,2.38-0.19,1.72-.54,3.41-0.54,3.41s0.12-1.72.07-3.43c0-.85-0.08-1.7-0.15-2.33l-0.14-1.05Z" transform="translate(-20.22 -24.31)"/><path class="cls-41" d="M57.41,131l0-1.09c0-.66,0-1.53,0-2.39,0.1-1.73.36-3.43,0.36-3.43s0,1.72.11,3.43c0.07,0.85.17,1.7,0.28,2.32l0.19,1Z" transform="translate(-20.22 -24.31)"/><path class="cls-42" d="M106.23,40.91l0,1.09c0,0.66,0,1.53,0,2.39-0.1,1.73-.36,3.43-0.36,3.43s0-1.72-.11-3.43c-0.07-.85-0.17-1.7-0.28-2.32l-0.19-1Z" transform="translate(-20.22 -24.31)"/><path class="cls-43" d="M59.8,132.21l-0.1-1.09c0-.65-0.08-1.52-0.08-2.39,0-1.73.18-3.45,0.18-3.45s0.06,1.72.29,3.42c0.11,0.85.26,1.68,0.4,2.31l0.25,1Z" transform="translate(-20.22 -24.31)"/><path class="cls-44" d="M103.84,39.7l0.1,1.09c0,0.65.08,1.52,0.08,2.39,0,1.73-.18,3.45-0.18,3.45s-0.06-1.72-.29-3.42c-0.11-.85-0.26-1.68-0.4-2.31l-0.25-1Z" transform="translate(-20.22 -24.31)"/><path class="cls-45" d="M62.25,133.3l-0.16-1.08c-0.08-.65-0.16-1.52-0.2-2.38-0.08-1.73,0-3.45,0-3.45s0.15,1.72.47,3.4c0.16,0.84.35,1.67,0.52,2.28l0.3,1Z" transform="translate(-20.22 -24.31)"/><path class="cls-46" d="M101.39,38.62l0.16,1.08c0.08,0.65.16,1.52,0.2,2.38,0.08,1.73,0,3.45,0,3.45s-0.15-1.72-.47-3.4c-0.16-.84-0.35-1.67-0.52-2.28l-0.3-1Z" transform="translate(-20.22 -24.31)"/><path class="cls-47" d="M64.76,134.27l-0.22-1.07c-0.12-.64-0.24-1.51-0.33-2.37C64,129.11,64,127.38,64,127.38s0.24,1.71.65,3.37c0.2,0.83.44,1.65,0.64,2.25l0.35,1Z" transform="translate(-20.22 -24.31)"/><path class="cls-48" d="M98.89,37.66l0.22,1.07c0.12,0.64.24,1.51,0.33,2.37,0.18,1.73.18,3.45,0.18,3.45s-0.24-1.71-.65-3.37c-0.2-.83-0.44-1.65-0.64-2.25l-0.35-1Z" transform="translate(-20.22 -24.31)"/><path class="cls-49" d="M67.31,135.1L67,134c-0.15-.64-0.32-1.49-0.45-2.35-0.27-1.71-.36-3.43-0.36-3.43s0.33,1.69.82,3.33c0.24,0.82.52,1.62,0.75,2.21l0.4,1Z" transform="translate(-20.22 -24.31)"/><path class="cls-50" d="M96.34,36.84l0.27,1.06c0.15,0.64.32,1.49,0.45,2.35,0.27,1.71.36,3.43,0.36,3.43s-0.33-1.69-.82-3.33c-0.24-.82-0.52-1.62-0.75-2.21l-0.4-1Z" transform="translate(-20.22 -24.31)"/><path class="cls-51" d="M69.9,135.8l-0.33-1c-0.18-.63-0.4-1.47-0.57-2.32-0.35-1.7-.54-3.41-0.54-3.41s0.42,1.67,1,3.28c0.28,0.81.61,1.59,0.87,2.17l0.45,1Z" transform="translate(-20.22 -24.31)"/><path class="cls-52" d="M93.75,36.15l0.33,1c0.18,0.63.4,1.47,0.57,2.32,0.35,1.7.54,3.41,0.54,3.41s-0.42-1.67-1-3.28c-0.28-.81-0.61-1.59-0.87-2.17l-0.45-1Z" transform="translate(-20.22 -24.31)"/><path class="cls-53" d="M72.53,136.36l-0.38-1c-0.22-.62-0.48-1.45-0.69-2.29-0.44-1.68-.71-3.38-0.71-3.38s0.51,1.65,1.17,3.22c0.33,0.79.69,1.56,1,2.12l0.5,0.93Z" transform="translate(-20.22 -24.31)"/><path class="cls-54" d="M91.13,35.6l0.38,1c0.22,0.62.47,1.45,0.69,2.29,0.44,1.68.71,3.38,0.71,3.38s-0.51-1.65-1.17-3.22c-0.33-.79-0.69-1.56-1-2.12L90.26,36Z" transform="translate(-20.22 -24.31)"/><path class="cls-55" d="M75.18,136.78l-0.43-1c-0.25-.61-0.55-1.42-0.81-2.25-0.53-1.65-.89-3.33-0.89-3.33s0.59,1.62,1.34,3.16c0.37,0.77.77,1.52,1.09,2.07l0.55,0.9Z" transform="translate(-20.22 -24.31)"/><path class="cls-56" d="M88.48,35.19l0.43,1c0.25,0.61.55,1.42,0.81,2.25,0.53,1.65.89,3.33,0.89,3.33S90,40.15,89.28,38.61c-0.37-.77-0.77-1.52-1.09-2.07l-0.55-.9Z" transform="translate(-20.22 -24.31)"/><path class="cls-57" d="M77.85,137.06l-0.49-1c-0.28-.59-0.62-1.39-0.93-2.2-0.62-1.62-1.06-3.28-1.06-3.28s0.68,1.59,1.5,3.08c0.41,0.75.85,1.48,1.2,2l0.6,0.87Z" transform="translate(-20.22 -24.31)"/><path class="cls-58" d="M85.81,34.91l0.49,1c0.28,0.59.62,1.39,0.93,2.2,0.62,1.62,1.06,3.28,1.06,3.28s-0.68-1.59-1.5-3.08c-0.41-.75-0.85-1.48-1.2-2L85,35.41Z" transform="translate(-20.22 -24.31)"/><path class="cls-59" d="M80.53,137.2l-0.54-1c-0.31-.58-0.7-1.36-1-2.15-0.7-1.59-1.23-3.22-1.23-3.22s0.76,1.55,1.66,3c0.45,0.73.92,1.43,1.3,1.94l0.64,0.84Z" transform="translate(-20.22 -24.31)"/><path class="cls-60" d="M83.14,34.78l0.54,1c0.31,0.58.7,1.36,1,2.15,0.7,1.59,1.23,3.22,1.23,3.22s-0.76-1.55-1.66-3c-0.45-.73-0.92-1.43-1.3-1.94l-0.64-.84Z" transform="translate(-20.22 -24.31)"/><path class="cls-61" d="M83.22,137.21l-0.58-.92c-0.34-.56-0.77-1.32-1.15-2.1-0.78-1.55-1.4-3.15-1.4-3.15s0.84,1.51,1.81,2.91c0.48,0.7,1,1.38,1.4,1.87L84,136.63Z" transform="translate(-20.22 -24.31)"/><path class="cls-62" d="M80.46,34.78L81,35.7c0.34,0.56.77,1.32,1.15,2.1C83,39.35,83.6,41,83.6,41S82.76,39.45,81.78,38c-0.48-.7-1-1.38-1.4-1.87l-0.69-.81Z" transform="translate(-20.22 -24.31)"/><path class="cls-63" d="M85.9,137.07l-0.63-.89c-0.37-.54-0.83-1.28-1.26-2-0.86-1.5-1.56-3.08-1.56-3.08s0.92,1.46,2,2.81c0.52,0.68,1.07,1.33,1.5,1.8l0.73,0.77Z" transform="translate(-20.22 -24.31)"/><path class="cls-64" d="M77.78,34.93l0.63,0.89c0.37,0.54.83,1.28,1.26,2,0.86,1.5,1.56,3.08,1.56,3.08s-0.92-1.46-2-2.81c-0.52-.68-1.07-1.33-1.5-1.8l-0.73-.77Z" transform="translate(-20.22 -24.31)"/><path class="cls-65" d="M88.57,136.79l-0.68-.85c-0.4-.52-0.9-1.23-1.37-2-0.94-1.46-1.72-3-1.72-3s1,1.41,2.11,2.71c0.55,0.65,1.14,1.27,1.59,1.72l0.77,0.73Z" transform="translate(-20.22 -24.31)"/><path class="cls-66" d="M75.12,35.22l0.68,0.85c0.4,0.52.9,1.23,1.37,2,0.94,1.46,1.72,3,1.72,3s-1-1.41-2.11-2.71c-0.55-.65-1.14-1.27-1.59-1.72l-0.77-.73Z" transform="translate(-20.22 -24.31)"/><path class="cls-67" d="M91.22,136.37l-0.72-.82c-0.42-.5-1-1.18-1.47-1.89-1-1.41-1.88-2.9-1.88-2.9s1.06,1.36,2.25,2.59C90,134,90.6,134.57,91.08,135l0.8,0.69Z" transform="translate(-20.22 -24.31)"/><path class="cls-68" d="M72.47,35.64l0.72,0.82c0.42,0.5,1,1.18,1.47,1.89,1,1.41,1.88,2.9,1.88,2.9s-1.06-1.36-2.25-2.59C73.7,38,73.09,37.44,72.62,37l-0.8-.69Z" transform="translate(-20.22 -24.31)"/><path class="cls-69" d="M93.85,135.82L93.08,135c-0.45-.48-1-1.13-1.56-1.81-1.09-1.35-2-2.79-2-2.79s1.13,1.3,2.38,2.47c0.62,0.59,1.26,1.14,1.76,1.54l0.84,0.65Z" transform="translate(-20.22 -24.31)"/><path class="cls-70" d="M69.85,36.2L70.62,37c0.45,0.48,1,1.13,1.56,1.81,1.09,1.35,2,2.79,2,2.79s-1.13-1.3-2.38-2.47c-0.62-.59-1.26-1.14-1.76-1.54l-0.84-.65Z" transform="translate(-20.22 -24.31)"/><path class="cls-71" d="M96.44,135.12l-0.8-.74c-0.47-.45-1.08-1.08-1.66-1.73-1.16-1.29-2.17-2.68-2.17-2.68s1.2,1.24,2.5,2.34c0.65,0.56,1.32,1.08,1.84,1.45l0.87,0.6Z" transform="translate(-20.22 -24.31)"/><path class="cls-72" d="M67.27,36.9l0.8,0.74c0.47,0.45,1.08,1.08,1.66,1.73,1.16,1.29,2.17,2.68,2.17,2.68s-1.2-1.24-2.5-2.34c-0.65-.56-1.32-1.08-1.84-1.45l-0.87-.6Z" transform="translate(-20.22 -24.31)"/><path class="cls-73" d="M99,134.29l-0.84-.69c-0.5-.43-1.14-1-1.74-1.64-1.22-1.23-2.31-2.57-2.31-2.57s1.26,1.17,2.62,2.21c0.68,0.52,1.38,1,1.91,1.35l0.9,0.56Z" transform="translate(-20.22 -24.31)"/><path class="cls-74" d="M64.72,37.74l0.84,0.69c0.5,0.43,1.14,1,1.74,1.64,1.22,1.23,2.31,2.57,2.31,2.57S68.35,41.46,67,40.43c-0.68-.52-1.38-1-1.91-1.35l-0.9-.56Z" transform="translate(-20.22 -24.31)"/><path class="cls-75" d="M101.5,133.33l-0.88-.65c-0.52-.4-1.19-1-1.83-1.54-1.28-1.16-2.44-2.44-2.44-2.44s1.32,1.11,2.74,2.07c0.7,0.48,1.43.93,2,1.25l0.93,0.51Z" transform="translate(-20.22 -24.31)"/><path class="cls-76" d="M62.22,38.7l0.88,0.65c0.52,0.4,1.19,1,1.83,1.54,1.28,1.16,2.44,2.44,2.44,2.44S66,42.23,64.63,41.27c-0.7-.48-1.43-0.93-2-1.25l-0.93-.51Z" transform="translate(-20.22 -24.31)"/><path class="cls-77" d="M104,132.24l-0.91-.6c-0.54-.37-1.24-0.89-1.91-1.45-1.34-1.1-2.56-2.31-2.56-2.31s1.38,1,2.84,1.92c0.73,0.45,1.47.86,2,1.14l1,0.46Z" transform="translate(-20.22 -24.31)"/><path class="cls-78" d="M59.78,39.8l0.91,0.6c0.54,0.37,1.24.89,1.9,1.45,1.34,1.1,2.56,2.31,2.56,2.31s-1.38-1-2.84-1.92c-0.73-.45-1.47-0.86-2-1.14l-1-.46Z" transform="translate(-20.22 -24.31)"/><path class="cls-79" d="M106.35,131l-0.94-.55c-0.56-.34-1.28-0.83-2-1.34-1.4-1-2.68-2.17-2.68-2.17s1.43,1,2.94,1.77c0.75,0.41,1.52.78,2.1,1l1,0.41Z" transform="translate(-20.22 -24.31)"/><path class="cls-80" d="M57.39,41l0.94,0.55c0.56,0.34,1.28.83,2,1.34,1.4,1,2.68,2.17,2.68,2.17s-1.43-1-2.94-1.77c-0.75-.41-1.52-0.78-2.1-1l-1-.41Z" transform="translate(-20.22 -24.31)"/><path class="cls-81" d="M108.67,129.69l-1-.5c-0.58-.31-1.32-0.76-2-1.24-1.45-.95-2.79-2-2.79-2s1.48,0.89,3,1.61c0.77,0.37,1.56.7,2.15,0.92l1,0.36Z" transform="translate(-20.22 -24.31)"/><path class="cls-82" d="M55.07,42.36l1,0.51c0.58,0.31,1.32.76,2,1.24,1.45,0.95,2.79,2,2.79,2s-1.48-.89-3-1.61c-0.77-.37-1.56-0.7-2.15-0.92l-1-.36Z" transform="translate(-20.22 -24.31)"/><path class="cls-83" d="M110.93,128.23l-1-.45c-0.59-.28-1.36-0.69-2.11-1.13-1.5-.87-2.89-1.88-2.89-1.88s1.52,0.81,3.11,1.45c0.79,0.33,1.59.62,2.19,0.81l1,0.3Z" transform="translate(-20.22 -24.31)"/><path class="cls-84" d="M52.83,43.83l1,0.45c0.59,0.28,1.36.69,2.11,1.13,1.5,0.87,2.89,1.88,2.89,1.88s-1.52-.81-3.11-1.45c-0.79-.33-1.59-0.62-2.2-0.81l-1-.3Z" transform="translate(-20.22 -24.31)"/><path class="cls-85" d="M113.1,126.65l-1-.4c-0.6-.25-1.4-0.62-2.16-1-1.54-.79-3-1.73-3-1.73s1.56,0.73,3.18,1.29c0.81,0.29,1.62.53,2.23,0.69l1,0.25Z" transform="translate(-20.22 -24.31)"/><path class="cls-86" d="M50.67,45.41l1,0.4c0.6,0.25,1.4.62,2.16,1,1.54,0.79,3,1.73,3,1.73s-1.56-.73-3.18-1.29C52.85,47,52,46.73,51.42,46.57l-1-.25Z" transform="translate(-20.22 -24.31)"/><path class="cls-87" d="M115.19,125l-1-.35c-0.62-.22-1.43-0.54-2.21-0.9-1.58-.71-3.07-1.57-3.07-1.57s1.6,0.64,3.24,1.12c0.82,0.24,1.65.45,2.27,0.57l1,0.19Z" transform="translate(-20.22 -24.31)"/><path class="cls-88" d="M48.59,47.1l1,0.35c0.62,0.22,1.43.54,2.21,0.9,1.58,0.71,3.07,1.57,3.07,1.57s-1.6-.64-3.24-1.12c-0.82-.24-1.65-0.45-2.27-0.57l-1-.2Z" transform="translate(-20.22 -24.31)"/><path class="cls-89" d="M117.18,123.17l-1.05-.29c-0.63-.19-1.45-0.47-2.26-0.79-1.62-.63-3.15-1.41-3.15-1.41s1.63,0.56,3.29,1c0.83,0.2,1.67.36,2.29,0.45l1.05,0.14Z" transform="translate(-20.22 -24.31)"/><path class="cls-90" d="M46.6,48.9l1.05,0.29c0.63,0.19,1.45.47,2.26,0.79,1.62,0.63,3.15,1.41,3.15,1.41s-1.63-.56-3.29-1c-0.83-.2-1.67-0.36-2.29-0.46l-1.05-.14Z" transform="translate(-20.22 -24.31)"/><path class="cls-91" d="M119.08,121.27L118,121c-0.64-.15-1.47-0.39-2.3-0.67-1.65-.54-3.22-1.24-3.22-1.24s1.66,0.47,3.34.78c0.84,0.16,1.68.27,2.32,0.33l1.06,0.08Z" transform="translate(-20.22 -24.31)"/><path class="cls-92" d="M44.71,50.8L45.77,51c0.64,0.15,1.47.39,2.3,0.67,1.65,0.54,3.22,1.24,3.22,1.24s-1.66-.47-3.34-0.78c-0.84-.16-1.68-0.27-2.32-0.33l-1.06-.08Z" transform="translate(-20.22 -24.31)"/><path class="cls-93" d="M120.88,119.28l-1.08-.18c-0.64-.12-1.49-0.31-2.33-0.55-1.67-.45-3.28-1.07-3.28-1.07s1.68,0.39,3.38.6c0.85,0.11,1.7.18,2.33,0.21l1.06,0Z" transform="translate(-20.22 -24.31)"/><path class="cls-94" d="M42.92,52.79L44,53c0.64,0.12,1.49.31,2.33,0.55C48,54,49.61,54.59,49.61,54.59s-1.68-.39-3.38-0.6c-0.85-.11-1.7-0.18-2.33-0.21l-1.06,0Z" transform="translate(-20.22 -24.31)"/><path class="cls-95" d="M122.57,117.19l-1.08-.12c-0.65-.09-1.51-0.24-2.35-0.42-1.69-.37-3.33-0.9-3.33-0.9s1.7,0.3,3.4.42c0.85,0.07,1.7.09,2.34,0.09l1.06,0Z" transform="translate(-20.22 -24.31)"/><path class="cls-96" d="M41.24,54.88L42.32,55c0.65,0.09,1.51.24,2.35,0.42,1.7,0.37,3.33.9,3.33,0.9s-1.7-.3-3.4-0.42c-0.85-.07-1.7-0.09-2.34-0.09l-1.06,0Z" transform="translate(-20.22 -24.31)"/><path class="cls-97" d="M124.15,115l-1.09-.07c-0.65-.05-1.52-0.16-2.37-0.3-1.71-.28-3.37-0.72-3.37-0.72s1.71,0.21,3.42.24c0.85,0,1.7,0,2.34,0l1.06-.08Z" transform="translate(-20.22 -24.31)"/><path class="cls-98" d="M39.67,57l1.09,0.07c0.65,0.05,1.52.16,2.37,0.3,1.71,0.28,3.38.72,3.38,0.72s-1.71-.21-3.42-0.24c-0.85,0-1.71,0-2.34,0L39.69,58Z" transform="translate(-20.22 -24.31)"/><path class="cls-99" d="M125.62,112.77h-1.09c-0.66,0-1.52-.08-2.38-0.17-1.72-.19-3.41-0.54-3.41-0.54s1.72,0.12,3.43.07c0.85,0,1.7-.08,2.33-0.15l1.05-.14Z" transform="translate(-20.22 -24.31)"/><path class="cls-100" d="M38.22,59.3h1.09c0.66,0,1.52.08,2.38,0.17C43.42,59.67,45.1,60,45.1,60s-1.72-.12-3.43-0.07c-0.85,0-1.7.08-2.33,0.15l-1.05.14Z" transform="translate(-20.22 -24.31)"/><path class="cls-101" d="M127,110.44l-1.09,0c-0.66,0-1.53,0-2.39,0-1.73-.1-3.43-0.36-3.43-0.36s1.72,0,3.43-.11c0.85-.07,1.7-0.17,2.32-0.28l1-.19Z" transform="translate(-20.22 -24.31)"/><path class="cls-102" d="M36.88,61.62l1.09,0c0.66,0,1.53,0,2.39,0,1.73,0.1,3.43.36,3.43,0.36s-1.72,0-3.43.11c-0.85.07-1.7,0.17-2.32,0.28l-1,.19Z" transform="translate(-20.22 -24.31)"/><path class="cls-103" d="M128.18,108.05l-1.09.1c-0.65,0-1.52.08-2.39,0.08-1.73,0-3.45-.18-3.45-0.18s1.72-.06,3.42-0.29c0.85-.11,1.68-0.26,2.31-0.4l1-.25Z" transform="translate(-20.22 -24.31)"/><path class="cls-104" d="M35.67,64l1.09-.1c0.65,0,1.52-.08,2.39-0.08,1.73,0,3.45.18,3.45,0.18s-1.72.06-3.42,0.29c-0.85.11-1.68,0.26-2.31,0.4l-1,.25Z" transform="translate(-20.22 -24.31)"/><path class="cls-105" d="M129.28,105.6l-1.08.16c-0.65.08-1.52,0.16-2.38,0.2-1.73.08-3.45,0-3.45,0s1.72-.15,3.4-0.47c0.84-.16,1.67-0.35,2.28-0.52l1-.3Z" transform="translate(-20.22 -24.31)"/><path class="cls-106" d="M34.59,66.46l1.08-.16c0.65-.08,1.52-0.16,2.38-0.2,1.73-.08,3.45,0,3.45,0s-1.72.15-3.4,0.47c-0.84.16-1.67,0.35-2.28,0.52l-1,.3Z" transform="translate(-20.22 -24.31)"/><path class="cls-107" d="M130.24,103.1l-1.07.22c-0.64.12-1.51,0.24-2.37,0.33-1.73.18-3.45,0.18-3.45,0.18s1.71-.24,3.37-0.65c0.83-.2,1.65-0.44,2.25-0.64l1-.35Z" transform="translate(-20.22 -24.31)"/><path class="cls-108" d="M33.63,69l1.07-.22c0.64-.12,1.51-0.24,2.37-0.33,1.73-.18,3.45-0.18,3.45-0.18s-1.71.24-3.37,0.65c-0.83.2-1.65,0.44-2.25,0.64l-1,.35Z" transform="translate(-20.22 -24.31)"/><path class="cls-109" d="M131.07,100.54l-1.06.27c-0.64.15-1.49,0.32-2.35,0.45-1.71.27-3.43,0.36-3.43,0.36s1.69-.33,3.33-0.82c0.82-.24,1.62-0.52,2.21-0.75l1-.4Z" transform="translate(-20.22 -24.31)"/><path class="cls-110" d="M32.81,71.51l1.06-.27c0.64-.15,1.49-0.32,2.35-0.45,1.71-.27,3.43-0.36,3.43-0.36s-1.69.33-3.33,0.82c-0.82.24-1.62,0.52-2.21,0.75l-1,.4Z" transform="translate(-20.22 -24.31)"/><path class="cls-111" d="M131.77,98l-1,.33c-0.63.18-1.47,0.4-2.32,0.57-1.7.35-3.41,0.54-3.41,0.54s1.67-.42,3.28-1c0.81-.28,1.59-0.61,2.17-0.87l1-.45Z" transform="translate(-20.22 -24.31)"/><path class="cls-112" d="M32.12,74.1l1-.33c0.63-.18,1.47-0.4,2.32-0.57,1.7-.35,3.41-0.54,3.41-0.54s-1.67.42-3.28,1c-0.81.28-1.59,0.61-2.17,0.87l-1,.45Z" transform="translate(-20.22 -24.31)"/><path class="cls-113" d="M132.33,95.32l-1,.38c-0.62.22-1.45,0.47-2.29,0.69-1.68.44-3.38,0.71-3.38,0.71s1.65-.51,3.22-1.17c0.79-.33,1.56-0.69,2.12-1l0.93-.5Z" transform="translate(-20.22 -24.31)"/><path class="cls-114" d="M31.57,76.73l1-.38c0.62-.22,1.45-0.47,2.29-0.69,1.68-.44,3.38-0.71,3.38-0.71s-1.65.51-3.22,1.17c-0.79.33-1.56,0.69-2.12,1l-0.93.5Z" transform="translate(-20.22 -24.31)"/><path class="cls-115" d="M132.75,92.67l-1,.43c-0.61.25-1.42,0.55-2.25,0.81-1.65.53-3.33,0.89-3.33,0.89s1.62-.59,3.16-1.33c0.77-.37,1.52-0.77,2.07-1.09l0.9-.55Z" transform="translate(-20.22 -24.31)"/><path class="cls-116" d="M31.16,79.37l1-.43c0.61-.25,1.42-0.55,2.25-0.81,1.65-.53,3.33-0.89,3.33-0.89s-1.62.59-3.16,1.33c-0.77.37-1.52,0.77-2.07,1.09l-0.9.55Z" transform="translate(-20.22 -24.31)"/><path class="cls-117" d="M133,90l-1,.49c-0.59.28-1.39,0.62-2.2,0.93-1.62.62-3.28,1.06-3.28,1.06s1.59-.68,3.08-1.5c0.75-.41,1.48-0.85,2-1.2l0.87-.6Z" transform="translate(-20.22 -24.31)"/><path class="cls-118" d="M30.88,82l1-.49c0.59-.28,1.39-0.62,2.2-0.93,1.62-.62,3.28-1.06,3.28-1.06s-1.59.68-3.08,1.5c-0.75.41-1.48,0.85-2,1.2l-0.87.6Z" transform="translate(-20.22 -24.31)"/><path class="cls-119" d="M133.18,87.32l-0.95.54c-0.58.31-1.36,0.7-2.15,1-1.59.7-3.22,1.23-3.22,1.23s1.55-.76,3-1.66c0.73-.45,1.43-0.92,1.94-1.3l0.84-.64Z" transform="translate(-20.22 -24.31)"/><path class="cls-120" d="M30.75,84.71l1-.54c0.58-.31,1.36-0.7,2.15-1,1.59-.7,3.22-1.23,3.22-1.23s-1.55.76-3,1.66c-0.73.45-1.43,0.92-1.94,1.3l-0.84.64Z" transform="translate(-20.22 -24.31)"/><path class="cls-121" d="M81.91,127.09A41.1,41.1,0,1,1,123,86,41.15,41.15,0,0,1,81.91,127.09Zm0-81.7A40.6,40.6,0,1,0,122.51,86,40.65,40.65,0,0,0,81.91,45.39Z" transform="translate(-20.22 -24.31)"/><path class="cls-122" d="M81.91,137.38A51.39,51.39,0,1,1,133.3,86,51.45,51.45,0,0,1,81.91,137.38Zm0-102A50.64,50.64,0,1,0,132.55,86,50.69,50.69,0,0,0,81.91,35.36Z" transform="translate(-20.22 -24.31)"/><circle class="cls-123" cx="61.69" cy="6.73" r="0.73"/><circle class="cls-124" cx="61.69" cy="3.33" r="0.48"/><circle class="cls-125" cx="61.69" cy="0.33" r="0.33"/><circle class="cls-126" cx="61.69" cy="116.65" r="0.73"/><circle class="cls-127" cx="61.69" cy="120.04" r="0.48"/><circle class="cls-128" cx="61.69" cy="123.04" r="0.33"/><circle class="cls-129" cx="67.69" cy="32.91" r="0.73" transform="translate(-26.43 -5.67) rotate(-15)"/><circle class="cls-130" cx="66.81" cy="29.62" r="0.48" transform="translate(-25.62 -6) rotate(-15)"/><circle class="cls-131" cx="66.03" cy="26.72" r="0.33" transform="translate(-24.89 -6.3) rotate(-15)"/><circle class="cls-132" cx="96.13" cy="139.08" r="0.73" transform="translate(-52.95 5.32) rotate(-15)"/><circle class="cls-133" cx="97.01" cy="142.36" r="0.48" transform="matrix(0.97, -0.26, 0.26, 0.97, -53.76, 5.65)"/><circle class="cls-134" cx="97.79" cy="145.26" r="0.33" transform="translate(-54.49 5.96) rotate(-15)"/><circle class="cls-135" cx="54.43" cy="38.4" r="0.73" transform="translate(-32.13 8.06) rotate(-30)"/><circle class="cls-136" cx="52.73" cy="35.45" r="0.48" transform="translate(-30.89 6.81) rotate(-30)"/><circle class="cls-137" cx="51.23" cy="32.85" r="0.33" transform="translate(-29.79 5.71) rotate(-30)"/><circle class="cls-138" cx="109.39" cy="133.59" r="0.73" transform="translate(-72.36 48.28) rotate(-30)"/><circle class="cls-139" cx="111.09" cy="136.53" r="0.48" transform="matrix(0.87, -0.5, 0.5, 0.87, -73.61, 49.54)"/><circle class="cls-140" cx="112.59" cy="139.13" r="0.33" transform="translate(-74.7 50.62) rotate(-30)"/><circle class="cls-141" cx="43.05" cy="47.13" r="0.73" transform="translate(-40.94 19.94) rotate(-45)"/><circle class="cls-142" cx="40.65" cy="44.73" r="0.48" transform="translate(-39.95 17.53) rotate(-45)"/><circle class="cls-143" cx="38.52" cy="42.61" r="0.33" transform="translate(-39.07 15.41) rotate(-44.99)"/><circle class="cls-144" cx="120.77" cy="124.85" r="0.73" transform="translate(-73.14 97.66) rotate(-45)"/><circle class="cls-145" cx="123.18" cy="127.26" r="0.48" transform="translate(-74.13 100.07) rotate(-45)"/><circle class="cls-146" cx="125.3" cy="129.38" r="0.33" transform="translate(-75.01 102.19) rotate(-45)"/><circle class="cls-147" cx="34.31" cy="58.51" r="0.73" transform="translate(-53.74 34.67) rotate(-60)"/><circle class="cls-148" cx="31.37" cy="56.81" r="0.48" transform="translate(-53.74 31.27) rotate(-60)"/><circle class="cls-149" cx="28.77" cy="55.31" r="0.33" transform="translate(-53.74 28.27) rotate(-60)"/><circle class="cls-150" cx="129.51" cy="113.47" r="0.73" transform="translate(-53.74 144.59) rotate(-60)"/><circle class="cls-151" cx="132.45" cy="115.17" r="0.48" transform="translate(-53.74 147.99) rotate(-60)"/><circle class="cls-152" cx="135.05" cy="116.67" r="0.33" transform="translate(-53.74 150.99) rotate(-60)"/><circle class="cls-153" cx="28.82" cy="71.77" r="0.73" transform="matrix(0.26, -0.97, 0.97, 0.26, -68.18, 56.73)"/><circle class="cls-154" cx="25.54" cy="70.89" r="0.48" transform="translate(-69.77 52.9) rotate(-75)"/><circle class="cls-155" cx="22.64" cy="70.11" r="0.33" transform="translate(-71.16 49.53) rotate(-75)"/><circle class="cls-156" cx="135" cy="100.22" r="0.73" transform="translate(-16.97 180.37) rotate(-75)"/><circle class="cls-157" cx="138.28" cy="101.1" r="0.48" transform="translate(-15.39 184.18) rotate(-75)"/><circle class="cls-158" cx="141.18" cy="101.87" r="0.33" transform="translate(-13.99 187.57) rotate(-75)"/><circle class="cls-159" cx="6.73" cy="61.69" r="0.73"/><circle class="cls-160" cx="3.33" cy="61.69" r="0.48"/><circle class="cls-161" cx="0.33" cy="61.69" r="0.33"/><circle class="cls-162" cx="116.65" cy="61.69" r="0.73"/><circle class="cls-163" cx="120.04" cy="61.69" r="0.48"/><circle class="cls-164" cx="28.82" cy="100.22" r="0.73" transform="matrix(0.97, -0.26, 0.26, 0.97, -45.18, -13.43)"/><circle class="cls-165" cx="25.54" cy="101.1" r="0.48" transform="translate(-45.53 -14.25) rotate(-15)"/><circle class="cls-166" cx="22.64" cy="101.87" r="0.33" transform="translate(-45.82 -14.97) rotate(-15)"/><circle class="cls-167" cx="135" cy="71.77" r="0.73" transform="matrix(0.97, -0.26, 0.26, 0.97, -34.2, 13.08)"/><circle class="cls-168" cx="138.28" cy="70.89" r="0.48" transform="translate(-33.86 13.91) rotate(-15)"/><circle class="cls-169" cx="141.18" cy="70.11" r="0.33" transform="translate(-33.56 14.62) rotate(-15)"/><circle class="cls-170" cx="34.31" cy="113.47" r="0.73" transform="translate(-72.36 8.05) rotate(-30)"/><circle class="cls-171" cx="31.37" cy="115.17" r="0.48" transform="translate(-73.61 6.81) rotate(-30)"/><circle class="cls-172" cx="28.77" cy="116.67" r="0.33" transform="translate(-74.7 5.71) rotate(-30)"/><circle class="cls-173" cx="129.51" cy="58.51" r="0.73" transform="translate(-32.13 48.29) rotate(-30)"/><circle class="cls-174" cx="132.45" cy="56.81" r="0.48" transform="translate(-30.89 49.53) rotate(-30)"/><circle class="cls-175" cx="135.05" cy="55.31" r="0.33" transform="translate(-29.79 50.62) rotate(-30)"/><circle class="cls-176" cx="43.05" cy="124.85" r="0.73" transform="translate(-95.9 42.7) rotate(-45)"/><circle class="cls-177" cx="40.65" cy="127.26" r="0.48" transform="translate(-98.3 41.71) rotate(-45)"/><circle class="cls-178" cx="38.52" cy="129.38" r="0.33" transform="translate(-100.43 40.84) rotate(-45.01)"/><circle class="cls-179" cx="120.77" cy="47.13" r="0.73" transform="translate(-18.18 74.89) rotate(-45)"/><circle class="cls-180" cx="123.18" cy="44.73" r="0.48" transform="translate(-15.77 75.9) rotate(-45)"/><circle class="cls-181" cx="125.3" cy="42.61" r="0.33" transform="translate(-13.65 76.77) rotate(-45)"/><circle class="cls-182" cx="54.43" cy="133.59" r="0.73" transform="translate(-108.7 89.63) rotate(-60)"/><circle class="cls-183" cx="52.73" cy="136.53" r="0.48" transform="translate(-112.1 89.62) rotate(-60)"/><circle class="cls-184" cx="51.23" cy="139.13" r="0.33" transform="translate(-115.1 89.63) rotate(-60)"/><circle class="cls-185" cx="109.39" cy="38.4" r="0.73" transform="translate(1.22 89.62) rotate(-60)"/><circle class="cls-186" cx="111.09" cy="35.45" r="0.48" transform="translate(4.62 89.63) rotate(-60)"/><circle class="cls-187" cx="112.59" cy="32.85" r="0.33" transform="translate(7.62 89.63) rotate(-60)"/><circle class="cls-188" cx="67.69" cy="139.08" r="0.73" transform="translate(-104.4 144.15) rotate(-75)"/><circle class="cls-189" cx="66.81" cy="142.36" r="0.48" transform="translate(-108.22 145.74) rotate(-75)"/><circle class="cls-190" cx="66.03" cy="145.26" r="0.33" transform="translate(-111.59 147.14) rotate(-75)"/><circle class="cls-191" cx="96.13" cy="32.91" r="0.73" transform="translate(19.25 92.94) rotate(-75)"/><circle class="cls-192" cx="97.01" cy="29.62" r="0.48" transform="matrix(0.26, -0.97, 0.97, 0.26, 23.06, 91.36)"/><circle class="cls-193" cx="97.79" cy="26.72" r="0.33" transform="translate(26.44 89.96) rotate(-75)"/><path class="cls-194" d="M108.72,83.31h-5.4l0-.22A21.6,21.6,0,0,0,84.81,64.61l-0.22,0v-5.4l0.28,0A27.07,27.07,0,0,1,108.69,83Zm-5-.5h4.4A26.57,26.57,0,0,0,85.09,59.75v4.4A22.1,22.1,0,0,1,103.75,82.81Z" transform="translate(-20.22 -24.31)"/><path class="cls-195" d="M60.5,83.31h-5.4l0-.28A27.07,27.07,0,0,1,79,59.22l0.28,0v5.4l-0.22,0A21.6,21.6,0,0,0,60.53,83.09Zm-4.84-.5h4.4A22.1,22.1,0,0,1,78.73,64.15v-4.4A26.57,26.57,0,0,0,55.66,82.81Z" transform="translate(-20.22 -24.31)"/><path class="cls-195" d="M84.59,112.8v-5.4l0.22,0a21.6,21.6,0,0,0,18.48-18.48l0-.22h5.4l0,0.28a27.07,27.07,0,0,1-23.81,23.81Zm0.5-5v4.4a26.57,26.57,0,0,0,23.06-23.06h-4.4A22.1,22.1,0,0,1,85.09,107.84Z" transform="translate(-20.22 -24.31)"/><path class="cls-194" d="M79.23,112.8l-0.28,0A27.07,27.07,0,0,1,55.14,89l0-.28h5.4l0,0.22A21.6,21.6,0,0,0,79,107.37l0.22,0v5.4ZM55.66,89.18a26.57,26.57,0,0,0,23.06,23.06v-4.4A22.1,22.1,0,0,1,60.07,89.18h-4.4Z" transform="translate(-20.22 -24.31)"/><path class="cls-196" d="M99,73a21.3,21.3,0,0,0-14.19-8.27l-0.33,0V61h0.75v3a22,22,0,0,1,14.36,8.51Z" transform="translate(-20.22 -24.31)"/><path class="cls-197" d="M60.28,83.43H55L55,83a27.06,27.06,0,0,1,4.32-11.95L60,71.49a26.31,26.31,0,0,0-4.15,11.2h4.48v0.75Z" transform="translate(-20.22 -24.31)"/><path class="cls-197" d="M70.24,62.4l-0.33-.67a26.82,26.82,0,0,1,9-2.64l0.42,0v3H78.6V59.89A26.08,26.08,0,0,0,70.24,62.4Z" transform="translate(-20.22 -24.31)"/><path class="cls-197" d="M102,95.39l-0.68-.32a21.32,21.32,0,0,0,1.82-6.2l0-.33h3.27V89.3h-2.62A22.09,22.09,0,0,1,102,95.39Z" transform="translate(-20.22 -24.31)"/><path class="cls-197" d="M85.22,110.5H84.47v-3.21l0.33,0a21.35,21.35,0,0,0,11-4.93l0.49,0.57a22.11,22.11,0,0,1-11.09,5.05v2.55Z" transform="translate(-20.22 -24.31)"/><path class="cls-196" d="M79.35,112.94l-0.42,0a26.79,26.79,0,0,1-9.85-3.06l0.36-.66a26.06,26.06,0,0,0,9.16,2.93v-4.48h0.75v5.32Z" transform="translate(-20.22 -24.31)"/><path class="cls-196" d="M62.25,104.58A26.8,26.8,0,0,1,55,89l0-.42h5.32V89.3H55.81a26,26,0,0,0,7,14.77Z" transform="translate(-20.22 -24.31)"/><polygon class="cls-195" points="61.31 59.25 61.69 47.86 62.06 59.25 61.31 59.25"/><polygon class="cls-195" points="61.69 75.52 61.31 64.12 62.06 64.12 61.69 75.52"/><polygon class="cls-195" points="64.12 61.31 75.52 61.69 64.12 62.06 64.12 61.31"/><polygon class="cls-195" points="47.86 61.69 59.25 61.31 59.25 62.06 47.86 61.69"/><path class="cls-194" d="M48.57,72.24a1.16,1.16,0,0,1,.59.16l3,1.75a1.2,1.2,0,0,1,.51,1.45,30.93,30.93,0,0,0-1.29,4.79,1.2,1.2,0,0,1-1.17,1H46.75a1.16,1.16,0,0,1-.9-0.42,1.21,1.21,0,0,1-.27-1,36.65,36.65,0,0,1,1.87-7,1.21,1.21,0,0,1,1.12-.78h0Zm0-.5A1.7,1.7,0,0,0,47,72.84a37.05,37.05,0,0,0-1.89,7.08,1.69,1.69,0,0,0,1.66,2h3.49a1.7,1.7,0,0,0,1.66-1.42,30.32,30.32,0,0,1,1.27-4.71,1.7,1.7,0,0,0-.73-2.05L49.4,72a1.67,1.67,0,0,0-.84-0.23h0Z" transform="translate(-20.22 -24.31)"/><path class="cls-194" d="M76.11,49.64a1.19,1.19,0,0,1,1.2,1.18v3.49a1.2,1.2,0,0,1-1,1.17,30.94,30.94,0,0,0-4.79,1.29,1.27,1.27,0,0,1-.43.07,1.17,1.17,0,0,1-1-.58l-1.75-3a1.18,1.18,0,0,1-.09-1,1.2,1.2,0,0,1,.71-0.72,36.66,36.66,0,0,1,7-1.87l0.2,0h0Zm0-.5-0.28,0a37.05,37.05,0,0,0-7.07,1.89,1.69,1.69,0,0,0-.88,2.43l1.75,3a1.67,1.67,0,0,0,1.46.83,1.77,1.77,0,0,0,.6-0.1A30.32,30.32,0,0,1,76.39,56a1.7,1.7,0,0,0,1.42-1.66V50.83a1.69,1.69,0,0,0-1.7-1.68h0Z" transform="translate(-20.22 -24.31)"/><path class="cls-194" d="M59.32,57.26a1.17,1.17,0,0,1,1,.59l1.75,3a1.2,1.2,0,0,1-.29,1.51,31.23,31.23,0,0,0-3.5,3.5,1.23,1.23,0,0,1-.94.44,1.15,1.15,0,0,1-.58-0.15l-3-1.75a1.18,1.18,0,0,1-.57-0.81,1.2,1.2,0,0,1,.26-1,37.11,37.11,0,0,1,5.1-5.1,1.19,1.19,0,0,1,.77-0.28h0Zm0-.5a1.7,1.7,0,0,0-1.08.39,37.52,37.52,0,0,0-5.17,5.17,1.69,1.69,0,0,0,.45,2.54l3,1.75a1.65,1.65,0,0,0,.83.22,1.73,1.73,0,0,0,1.32-.62,30.61,30.61,0,0,1,3.45-3.45,1.7,1.7,0,0,0,.4-2.14l-1.75-3a1.68,1.68,0,0,0-1.46-.84h0Z" transform="translate(-20.22 -24.31)"/><path class="cls-195" d="M57.38,105.65a1.23,1.23,0,0,1,.94.44,31.22,31.22,0,0,0,3.5,3.5,1.2,1.2,0,0,1,.29,1.51l-1.75,3a1.17,1.17,0,0,1-1,.59,1.19,1.19,0,0,1-.77-0.28,37.11,37.11,0,0,1-5.1-5.1,1.2,1.2,0,0,1-.26-1,1.18,1.18,0,0,1,.57-0.81l3-1.75a1.14,1.14,0,0,1,.58-0.16h0Zm0-.5a1.65,1.65,0,0,0-.83.22l-3,1.75a1.69,1.69,0,0,0-.45,2.54,37.52,37.52,0,0,0,5.17,5.17,1.7,1.7,0,0,0,1.08.39,1.68,1.68,0,0,0,1.46-.84l1.75-3a1.7,1.7,0,0,0-.4-2.14,30.62,30.62,0,0,1-3.45-3.45,1.73,1.73,0,0,0-1.32-.62h0Z" transform="translate(-20.22 -24.31)"/><path class="cls-195" d="M71.08,115.14a1.27,1.27,0,0,1,.43.07,30.94,30.94,0,0,0,4.79,1.29,1.2,1.2,0,0,1,1,1.17v3.49a1.19,1.19,0,0,1-1.2,1.18l-0.2,0a36.65,36.65,0,0,1-7-1.87,1.2,1.2,0,0,1-.71-0.72,1.18,1.18,0,0,1,.09-1l1.75-3a1.17,1.17,0,0,1,1-.58h0Zm0-.5a1.67,1.67,0,0,0-1.46.83l-1.75,3a1.69,1.69,0,0,0,.88,2.43,37.05,37.05,0,0,0,7.08,1.89l0.28,0a1.69,1.69,0,0,0,1.7-1.68v-3.49A1.7,1.7,0,0,0,76.39,116a30.31,30.31,0,0,1-4.71-1.27,1.77,1.77,0,0,0-.6-0.1h0Z" transform="translate(-20.22 -24.31)"/><path class="cls-195" d="M50.23,90.59a1.2,1.2,0,0,1,1.17,1,30.92,30.92,0,0,0,1.29,4.79,1.2,1.2,0,0,1-.51,1.45l-3,1.75a1.16,1.16,0,0,1-.59.16A1.21,1.21,0,0,1,47.45,99a36.65,36.65,0,0,1-1.87-7,1.21,1.21,0,0,1,.27-1,1.16,1.16,0,0,1,.9-0.42h3.49Zm0-.5H46.75a1.69,1.69,0,0,0-1.66,2A37.06,37.06,0,0,0,47,99.15a1.7,1.7,0,0,0,1.59,1.1A1.67,1.67,0,0,0,49.4,100l3-1.75a1.7,1.7,0,0,0,.73-2.05,30.33,30.33,0,0,1-1.27-4.71,1.7,1.7,0,0,0-1.66-1.41h0Z" transform="translate(-20.22 -24.31)"/></svg>