<svg preserveAspectRatio="none" id="Layer_1" data-name="Layer 1" xmlns="http://www.w3.org/2000/svg" viewBox="0 0 418.88 436.21"><defs><style>.cls-1{fill:#065876;}.cls-2{fill:#76e5ff;}.cls-3{fill:#08b3ea;}.cls-4{fill:#251d4f;}.cls-5{fill:#ff6d00;}</style></defs><title>circle34</title><path class="cls-1" d="M708.66,431.34A135.58,135.58,0,1,0,844.25,566.93,135.58,135.58,0,0,0,708.66,431.34Zm0,264.9A129.32,129.32,0,1,1,838,566.93,129.32,129.32,0,0,1,708.66,696.25Z" transform="translate(-497.44 -355.09)"/><polygon class="cls-2" points="223.02 146.77 221.7 146.63 222.28 137.98 224.25 138.19 223.02 146.77"/><polygon class="cls-2" points="229.76 148.3 228.46 148.02 229.94 139.48 231.88 139.89 229.76 148.3"/><polygon class="cls-2" points="236.3 150.52 235.04 150.11 237.41 141.77 239.29 142.38 236.3 150.52"/><polygon class="cls-2" points="242.58 153.42 241.37 152.88 244.59 144.83 246.4 145.64 242.58 153.42"/><polygon class="cls-2" points="248.52 156.95 247.37 156.29 251.41 148.63 253.13 149.62 248.52 156.95"/><polygon class="cls-2" points="148.27 193.89 147.99 195.19 139.45 193.71 139.86 191.78 148.27 193.89"/><polygon class="cls-2" points="150.49 187.35 150.08 188.61 141.74 186.25 142.35 184.37 150.49 187.35"/><polygon class="cls-2" points="153.39 181.07 152.85 182.29 144.8 179.06 145.61 177.25 153.39 181.07"/><polygon class="cls-2" points="156.92 175.13 156.26 176.29 148.59 172.24 149.58 170.52 156.92 175.13"/><polygon class="cls-2" points="161.06 169.6 160.28 170.67 153.08 165.85 154.24 164.25 161.06 169.6"/><polygon class="cls-2" points="165.75 164.53 164.87 165.51 158.21 159.96 159.53 158.49 165.75 164.53"/><polygon class="cls-2" points="170.95 159.97 169.96 160.86 163.93 154.64 165.4 153.32 170.95 159.97"/><polygon class="cls-2" points="176.6 155.98 175.52 156.76 170.17 149.95 171.77 148.79 176.6 155.98"/><polygon class="cls-2" points="182.63 152.61 181.48 153.27 176.87 145.94 178.58 144.95 182.63 152.61"/><polygon class="cls-2" points="188.98 149.88 187.77 150.42 183.95 142.64 185.75 141.84 188.98 149.88"/><polygon class="cls-2" points="195.58 147.84 194.32 148.25 191.33 140.11 193.22 139.5 195.58 147.84"/><polygon class="cls-2" points="202.36 146.49 201.06 146.77 198.94 138.36 200.88 137.95 202.36 146.49"/><polygon class="cls-2" points="208.66 137.21 206.69 137.42 207.92 146 209.24 145.86 208.66 137.21"/><polygon class="cls-2" points="214.5 137.29 214.83 145.95 216.16 145.95 216.48 137.29 214.5 137.29"/><polygon class="cls-3" points="214.68 190.71 214.26 190.66 214.45 187.97 215.06 188.03 214.68 190.71"/><polygon class="cls-3" points="216.78 191.19 216.38 191.1 216.84 188.43 217.44 188.56 216.78 191.19"/><polygon class="cls-3" points="218.82 191.88 218.43 191.75 219.17 189.15 219.75 189.34 218.82 191.88"/><polygon class="cls-3" points="220.78 192.78 220.4 192.62 221.41 190.1 221.97 190.35 220.78 192.78"/><polygon class="cls-3" points="222.64 193.89 222.28 193.68 223.54 191.29 224.07 191.6 222.64 193.89"/><polygon class="cls-3" points="224.37 195.18 224.03 194.94 225.53 192.69 226.03 193.05 224.37 195.18"/><polygon class="cls-3" points="225.95 196.64 225.64 196.37 227.37 194.29 227.83 194.7 225.95 196.64"/><polygon class="cls-3" points="227.37 198.27 227.09 197.96 229.03 196.07 229.45 196.53 227.37 198.27"/><polygon class="cls-3" points="228.62 200.03 228.37 199.69 230.5 198.02 230.86 198.52 228.62 200.03"/><polygon class="cls-3" points="229.67 201.91 229.46 201.55 231.75 200.11 232.06 200.65 229.67 201.91"/><polygon class="cls-3" points="230.52 203.89 230.35 203.51 232.78 202.32 233.03 202.89 230.52 203.89"/><polygon class="cls-3" points="231.16 205.95 231.03 205.56 233.57 204.63 233.76 205.22 231.16 205.95"/><polygon class="cls-3" points="231.58 208.07 231.49 207.66 234.11 207 234.24 207.61 231.58 208.07"/><polygon class="cls-3" points="231.73 209.81 231.77 210.22 234.47 210.04 234.41 209.42 231.73 209.81"/><polygon class="cls-3" points="231.74 211.96 231.74 212.38 234.45 212.48 234.45 211.86 231.74 211.96"/><polygon class="cls-3" points="231.49 214.52 231.53 214.1 234.23 214.29 234.17 214.9 231.49 214.52"/><polygon class="cls-3" points="231.01 216.62 231.1 216.22 233.76 216.68 233.64 217.28 231.01 216.62"/><polygon class="cls-3" points="230.32 218.66 230.45 218.27 233.05 219.01 232.86 219.6 230.32 218.66"/><polygon class="cls-3" points="229.41 220.62 229.58 220.25 232.09 221.25 231.84 221.82 229.41 220.62"/><polygon class="cls-3" points="228.31 222.48 228.52 222.12 230.91 223.38 230.6 223.92 228.31 222.48"/><polygon class="cls-3" points="227.02 224.21 227.26 223.87 229.51 225.38 229.15 225.88 227.02 224.21"/><polygon class="cls-3" points="225.56 225.79 225.83 225.48 227.91 227.21 227.5 227.67 225.56 225.79"/><polygon class="cls-3" points="223.93 227.21 224.24 226.93 226.12 228.87 225.67 229.29 223.93 227.21"/><polygon class="cls-3" points="222.17 228.46 222.51 228.21 224.18 230.34 223.68 230.7 222.17 228.46"/><polygon class="cls-3" points="220.29 229.51 220.65 229.3 222.09 231.59 221.55 231.9 220.29 229.51"/><polygon class="cls-3" points="218.31 230.36 218.68 230.19 219.88 232.62 219.31 232.87 218.31 230.36"/><polygon class="cls-3" points="216.24 231 216.64 230.87 217.57 233.41 216.98 233.6 216.24 231"/><polygon class="cls-3" points="214.13 231.42 214.53 231.33 215.2 233.96 214.59 234.08 214.13 231.42"/><polygon class="cls-3" points="211.98 231.62 212.16 234.31 212.78 234.25 212.39 231.57 211.98 231.62"/><polygon class="cls-3" points="209.82 231.59 209.72 234.29 210.34 234.29 210.24 231.59 209.82 231.59"/><polygon class="cls-3" points="207.68 231.33 208.09 231.37 207.91 234.07 207.3 234.01 207.68 231.33"/><polygon class="cls-3" points="205.58 230.85 205.98 230.94 205.52 233.6 204.91 233.48 205.58 230.85"/><polygon class="cls-3" points="203.53 230.16 203.93 230.29 203.19 232.89 202.6 232.7 203.53 230.16"/><polygon class="cls-3" points="201.57 229.25 201.95 229.43 200.95 231.94 200.38 231.69 201.57 229.25"/><polygon class="cls-3" points="199.72 228.15 200.08 228.36 198.82 230.75 198.28 230.44 199.72 228.15"/><polygon class="cls-3" points="197.99 226.86 198.33 227.1 196.82 229.35 196.32 228.99 197.99 226.86"/><polygon class="cls-3" points="196.41 225.4 196.72 225.67 194.99 227.75 194.53 227.34 196.41 225.4"/><polygon class="cls-3" points="194.99 223.77 195.27 224.08 193.32 225.97 192.91 225.51 194.99 223.77"/><polygon class="cls-3" points="193.74 222.01 193.99 222.35 191.86 224.02 191.5 223.52 193.74 222.01"/><polygon class="cls-3" points="192.69 220.13 192.9 220.49 190.61 221.93 190.3 221.39 192.69 220.13"/><polygon class="cls-3" points="191.84 218.15 192.01 218.53 189.58 219.72 189.33 219.15 191.84 218.15"/><polygon class="cls-3" points="191.2 216.09 191.33 216.48 188.79 217.41 188.6 216.82 191.2 216.09"/><polygon class="cls-3" points="190.78 213.97 190.87 214.37 188.24 215.04 188.12 214.43 190.78 213.97"/><polygon class="cls-3" points="187.88 212 187.95 212.62 190.63 212.23 190.58 211.82 187.88 212"/><polygon class="cls-3" points="187.91 210.18 190.61 210.08 190.61 209.66 187.91 209.56 187.91 210.18"/><polygon class="cls-3" points="190.87 207.52 190.82 207.93 188.13 207.75 188.19 207.14 190.87 207.52"/><polygon class="cls-3" points="191.34 205.42 191.26 205.82 188.59 205.36 188.72 204.76 191.34 205.42"/><polygon class="cls-3" points="192.04 203.37 191.91 203.77 189.31 203.03 189.5 202.44 192.04 203.37"/><polygon class="cls-3" points="192.94 201.41 192.77 201.79 190.26 200.79 190.51 200.22 192.94 201.41"/><polygon class="cls-3" points="194.05 199.56 193.84 199.92 191.45 198.66 191.76 198.12 194.05 199.56"/><polygon class="cls-3" points="195.34 197.83 195.09 198.17 192.85 196.66 193.21 196.16 195.34 197.83"/><polygon class="cls-3" points="196.8 196.25 196.53 196.56 194.45 194.83 194.86 194.37 196.8 196.25"/><polygon class="cls-3" points="198.43 194.83 198.12 195.11 196.23 193.16 196.69 192.75 198.43 194.83"/><polygon class="cls-3" points="200.19 193.58 199.85 193.83 198.18 191.7 198.68 191.34 200.19 193.58"/><polygon class="cls-3" points="202.07 192.53 201.71 192.74 200.27 190.45 200.81 190.14 202.07 192.53"/><polygon class="cls-3" points="204.05 191.68 203.67 191.85 202.48 189.42 203.05 189.17 204.05 191.68"/><polygon class="cls-3" points="206.11 191.04 205.72 191.17 204.79 188.63 205.37 188.44 206.11 191.04"/><polygon class="cls-3" points="208.23 190.62 207.82 190.71 207.16 188.08 207.77 187.96 208.23 190.62"/><polygon class="cls-3" points="210.2 187.73 209.58 187.79 209.97 190.47 210.38 190.42 210.2 187.73"/><polygon class="cls-3" points="212.02 187.75 212.12 190.45 212.53 190.45 212.64 187.75 212.02 187.75"/><path class="cls-2" d="M773.83,497.47a14.94,14.94,0,1,0,14.94,14.94A14.94,14.94,0,0,0,773.83,497.47Zm0,27.59a12.65,12.65,0,1,1,12.65-12.65A12.65,12.65,0,0,1,773.83,525.06Z" transform="translate(-497.44 -355.09)"/><path class="cls-2" d="M773.83,503.7a8.7,8.7,0,1,0,8.7,8.7A8.7,8.7,0,0,0,773.83,503.7Zm0,16.07a7.37,7.37,0,1,1,7.37-7.37A7.37,7.37,0,0,1,773.83,519.77Z" transform="translate(-497.44 -355.09)"/><path class="cls-2" d="M707.81,552a14.13,14.13,0,1,0,14.13,14.13A14.13,14.13,0,0,0,707.81,552Zm0,26.1a12,12,0,1,1,12-12A12,12,0,0,1,707.81,578.07Z" transform="translate(-497.44 -355.09)"/><path class="cls-2" d="M707.81,557.87a8.23,8.23,0,1,0,8.23,8.23A8.23,8.23,0,0,0,707.81,557.87Zm0,15.21a7,7,0,1,1,7-7A7,7,0,0,1,707.81,573.08Z" transform="translate(-497.44 -355.09)"/><polygon class="cls-3" points="237.99 56.44 234.83 56.11 236.22 35.46 240.92 35.96 237.99 56.44"/><polygon class="cls-3" points="254.09 60.09 250.98 59.43 254.53 39.04 259.14 40.02 254.09 60.09"/><polygon class="cls-3" points="269.71 65.4 266.7 64.42 272.35 44.51 276.84 45.97 269.71 65.4"/><polygon class="cls-3" points="284.7 72.32 281.8 71.03 289.51 51.82 293.82 53.74 284.7 72.32"/><polygon class="cls-3" points="298.88 80.76 296.13 79.18 305.8 60.88 309.89 63.24 298.88 80.76"/><polygon class="cls-3" points="312.1 90.64 309.54 88.78 321.07 71.59 324.89 74.37 312.1 90.64"/><polygon class="cls-3" points="324.22 101.85 321.86 99.73 335.12 83.84 338.63 87 324.22 101.85"/><polygon class="cls-3" points="335.1 114.27 332.98 111.91 347.82 97.5 350.99 101 335.1 114.27"/><polygon class="cls-3" points="344.62 127.75 342.75 125.18 359.03 112.4 361.81 116.22 344.62 127.75"/><polygon class="cls-3" points="352.68 142.15 351.09 139.41 368.61 128.4 370.98 132.49 352.68 142.15"/><polygon class="cls-3" points="359.19 157.32 357.9 154.42 376.48 145.3 378.4 149.62 359.19 157.32"/><polygon class="cls-3" points="364.08 173.09 363.1 170.07 382.52 162.94 383.98 167.43 364.08 173.09"/><polygon class="cls-3" points="367.29 189.27 366.63 186.17 386.7 181.11 387.68 185.73 367.29 189.27"/><polygon class="cls-3" points="368.46 202.56 368.79 205.71 389.44 204.32 388.95 199.62 368.46 202.56"/><polygon class="cls-3" points="368.57 219.04 368.57 222.22 389.25 222.99 389.25 218.27 368.57 219.04"/><polygon class="cls-3" points="366.63 238.6 366.96 235.45 387.61 236.84 387.11 241.54 366.63 238.6"/><polygon class="cls-3" points="362.98 254.71 363.64 251.6 384.03 255.14 383.04 259.76 362.98 254.71"/><polygon class="cls-3" points="357.66 270.33 358.65 267.31 378.55 272.97 377.09 277.46 357.66 270.33"/><polygon class="cls-3" points="350.75 285.32 352.04 282.42 371.25 290.12 369.33 294.44 350.75 285.32"/><polygon class="cls-3" points="342.3 299.5 343.89 296.75 362.19 306.42 359.82 310.51 342.3 299.5"/><polygon class="cls-3" points="332.42 312.72 334.29 310.15 351.48 321.68 348.7 325.5 332.42 312.72"/><polygon class="cls-3" points="321.21 324.84 323.34 322.48 339.23 335.74 336.06 339.25 321.21 324.84"/><polygon class="cls-3" points="308.8 335.72 311.16 333.59 325.57 348.44 322.06 351.6 308.8 335.72"/><polygon class="cls-3" points="295.32 345.24 297.88 343.37 310.67 359.65 306.85 362.42 295.32 345.24"/><polygon class="cls-3" points="280.91 353.29 283.66 351.71 294.67 369.23 290.58 371.59 280.91 353.29"/><polygon class="cls-3" points="265.75 359.8 268.64 358.51 277.76 377.09 273.45 379.01 265.75 359.8"/><polygon class="cls-3" points="249.98 364.69 253 363.71 260.13 383.14 255.63 384.6 249.98 364.69"/><polygon class="cls-3" points="233.79 367.91 236.89 367.25 241.95 387.32 237.33 388.3 233.79 367.91"/><polygon class="cls-3" points="217.35 369.41 218.75 390.06 223.44 389.57 220.51 369.08 217.35 369.41"/><polygon class="cls-3" points="200.85 369.19 200.07 389.87 204.8 389.87 204.02 369.19 200.85 369.19"/><polygon class="cls-3" points="184.46 367.24 187.62 367.57 186.22 388.22 181.53 387.73 184.46 367.24"/><polygon class="cls-3" points="168.36 363.59 171.47 364.25 167.92 384.64 163.31 383.66 168.36 363.59"/><polygon class="cls-3" points="152.74 358.28 155.75 359.26 150.1 379.17 145.61 377.71 152.74 358.28"/><polygon class="cls-3" points="137.75 351.37 140.65 352.66 132.94 371.86 128.63 369.94 137.75 351.37"/><polygon class="cls-3" points="123.57 342.92 126.31 344.51 116.65 362.8 112.56 360.44 123.57 342.92"/><polygon class="cls-3" points="110.35 333.04 112.91 334.91 101.38 352.09 97.56 349.32 110.35 333.04"/><polygon class="cls-3" points="98.23 321.83 100.59 323.95 87.33 339.84 83.82 336.68 98.23 321.83"/><polygon class="cls-3" points="87.35 309.42 89.47 311.77 74.62 326.19 71.46 322.68 87.35 309.42"/><polygon class="cls-3" points="77.83 295.94 79.7 298.5 63.42 311.29 60.65 307.46 77.83 295.94"/><polygon class="cls-3" points="69.77 281.53 71.36 284.28 53.84 295.29 51.47 291.2 69.77 281.53"/><polygon class="cls-3" points="63.26 266.37 64.55 269.26 45.98 278.38 44.05 274.07 63.26 266.37"/><polygon class="cls-3" points="58.37 250.6 59.35 253.62 39.92 260.74 38.47 256.25 58.37 250.6"/><polygon class="cls-3" points="55.16 234.41 55.82 237.51 35.75 242.57 34.77 237.95 55.16 234.41"/><polygon class="cls-3" points="33.01 219.36 33.5 224.06 53.99 221.13 53.66 217.97 33.01 219.36"/><polygon class="cls-3" points="33.2 205.41 53.88 204.64 53.88 201.47 33.2 200.69 33.2 205.41"/><polygon class="cls-3" points="55.82 185.08 55.49 188.23 34.84 186.84 35.34 182.14 55.82 185.08"/><polygon class="cls-3" points="59.47 168.98 58.81 172.08 38.42 168.54 39.41 163.92 59.47 168.98"/><polygon class="cls-3" points="64.78 153.35 63.8 156.37 43.9 150.72 45.36 146.22 64.78 153.35"/><polygon class="cls-3" points="71.7 138.37 70.41 141.26 51.2 133.56 53.12 129.25 71.7 138.37"/><polygon class="cls-3" points="80.15 124.19 78.56 126.93 60.26 117.26 62.62 113.17 80.15 124.19"/><polygon class="cls-3" points="90.03 110.96 88.16 113.53 70.97 102 73.75 98.18 90.03 110.96"/><polygon class="cls-3" points="101.24 98.85 99.11 101.2 83.22 87.94 86.39 84.43 101.24 98.85"/><polygon class="cls-3" points="113.65 87.97 111.29 90.09 96.88 75.24 100.39 72.08 113.65 87.97"/><polygon class="cls-3" points="127.13 78.45 124.56 80.31 111.78 64.04 115.6 61.26 127.13 78.45"/><polygon class="cls-3" points="141.53 70.39 138.79 71.97 127.78 54.45 131.87 52.09 141.53 70.39"/><polygon class="cls-3" points="156.7 63.88 153.81 65.17 144.69 46.59 149 44.67 156.7 63.88"/><polygon class="cls-3" points="172.47 58.99 169.45 59.97 162.32 40.54 166.81 39.08 172.47 58.99"/><polygon class="cls-3" points="188.66 55.78 185.56 56.44 180.5 36.37 185.12 35.39 188.66 55.78"/><polygon class="cls-3" points="203.7 33.63 199.01 34.12 201.94 54.6 205.09 54.27 203.7 33.63"/><polygon class="cls-3" points="217.65 33.81 218.43 54.5 221.6 54.5 222.37 33.81 217.65 33.81"/><path class="cls-4" d="M708.62,359.48c-114.68,0-207.65,93-207.65,207.65s93,207.65,207.65,207.65,207.65-93,207.65-207.65S823.3,359.48,708.62,359.48Zm0,409.87c-111.68,0-202.21-90.53-202.21-202.21s90.53-202.21,202.21-202.21,202.21,90.53,202.21,202.21S820.29,769.35,708.62,769.35Z" transform="translate(-497.44 -355.09)"/><path class="cls-4" d="M806.07,730a189.93,189.93,0,0,1-194.92,0l-20.39,27.8a224.23,224.23,0,0,0,237-.8Z" transform="translate(-497.44 -355.09)"/><path class="cls-4" d="M526,461.43c-45.79,79.31-34.67,175.84,20.65,242.36l9.92-8.19a199.05,199.05,0,0,1-45.79-127.31c0-110.39,89.49-199.87,199.87-199.87a201.15,201.15,0,0,1,33.22,2.76L746,358.12C660.81,343.52,571.72,382.17,526,461.43Z" transform="translate(-497.44 -355.09)"/><path class="cls-1" d="M708.66,359.27C594,359.27,501,452.24,501,566.93s93,207.65,207.65,207.65,207.65-93,207.65-207.65S823.35,359.27,708.66,359.27Zm0,409.87c-111.68,0-202.21-90.53-202.21-202.21S597,364.72,708.66,364.72s202.21,90.53,202.21,202.21S820.34,769.14,708.66,769.14Z" transform="translate(-497.44 -355.09)"/><path class="cls-1" d="M806.07,730a189.93,189.93,0,0,1-194.92,0l-20.39,27.8a224.23,224.23,0,0,0,237-.8Z" transform="translate(-497.44 -355.09)"/><path class="cls-5" d="M526,461.43c-45.79,79.31-34.67,175.84,20.65,242.36l9.92-8.19a199.05,199.05,0,0,1-45.79-127.31c0-110.39,89.49-199.87,199.87-199.87a201.15,201.15,0,0,1,33.22,2.76L746,358.12C660.81,343.52,571.72,382.17,526,461.43Z" transform="translate(-497.44 -355.09)"/><path class="cls-3" d="M708.66,450.55A116.37,116.37,0,1,0,825,566.93,116.37,116.37,0,0,0,708.66,450.55Zm0,230A113.66,113.66,0,1,1,822.32,566.93,113.66,113.66,0,0,1,708.66,680.59Z" transform="translate(-497.44 -355.09)"/><polygon class="cls-5" points="90.7 222.99 84.39 212.05 90.7 201.11 103.33 201.11 109.65 212.05 103.33 222.99 90.7 222.99"/><polygon class="cls-5" points="275.39 299.64 279.29 287.62 291.65 285 300.1 294.38 296.2 306.39 283.85 309.02 275.39 299.64"/><path class="cls-2" d="M780.82,524.2a84,84,0,1,1-17.41-20.77l1.9-1.34a86,86,0,1,0,17.32,20.74Z" transform="translate(-497.44 -355.09)"/><path class="cls-5" d="M632.76,546.63a78.77,78.77,0,0,1,58.12-56.19l-1.93-14.17a93,93,0,0,0-70.43,68.55Z" transform="translate(-497.44 -355.09)"/><path class="cls-3" d="M744.56,545.68a41.79,41.79,0,1,1-8.66-10.33l0.95-.67A42.75,42.75,0,1,0,745.46,545Z" transform="translate(-497.44 -355.09)"/><path class="cls-1" d="M743.78,582.61a39,39,0,0,1-33.15,23.09l0.54,8.39A47.42,47.42,0,0,0,751.46,586Z" transform="translate(-497.44 -355.09)"/><path class="cls-1" d="M748.15,541.35a47.42,47.42,0,0,0-19.88-17.5l-3.57,7.61a39,39,0,0,1,22.44,35.32h8.4a47.42,47.42,0,0,0-7.39-25.43" transform="translate(-497.44 -355.09)"/><path class="cls-1" d="M669.13,566.77a39,39,0,0,1,27.35-37.23l-2.51-8a47.41,47.41,0,0,0-3.72,89.15l3.17-7.78a39,39,0,0,1-24.29-36.13" transform="translate(-497.44 -355.09)"/><path class="cls-5" d="M750,633.24a78.76,78.76,0,0,1-80.84,0l-8.46,11.53a93,93,0,0,0,98.28-.33Z" transform="translate(-497.44 -355.09)"/></svg>