<svg preserveAspectRatio="none" id="Layer_1" data-name="Layer 1" xmlns="http://www.w3.org/2000/svg" viewBox="0 0 129.97 126.87"><defs><style>.cls-1{fill:#065876;}.cls-2{fill:#76e5ff;}.cls-3{fill:#ff6d00;}.cls-4{fill:#08b3ea;}</style></defs><title>circle30</title><path class="cls-1" d="M1307.72,1028a53.48,53.48,0,0,1-45.44,31.64l0.74,11.5a65,65,0,0,0,55.23-38.47Z" transform="translate(-1193.87 -944.31)"/><path class="cls-1" d="M1313.7,971.48a65,65,0,0,0-27.25-24l-4.89,10.43a53.47,53.47,0,0,1,30.76,48.41h11.52a65,65,0,0,0-10.14-34.86" transform="translate(-1193.87 -944.31)"/><path class="cls-1" d="M1205.39,1006.33a53.49,53.49,0,0,1,37.49-51l-3.44-11a65,65,0,0,0-5.1,122.2l4.34-10.66a53.48,53.48,0,0,1-33.29-49.52" transform="translate(-1193.87 -944.31)"/><path class="cls-2" d="M1280.08,984.94a31.5,31.5,0,0,1,8.15,31.58l6.5,2a38.28,38.28,0,0,0-9.91-38.39Z" transform="translate(-1193.87 -944.31)"/><path class="cls-3" d="M1250.08,970a38.28,38.28,0,0,0-18.83,10.12L1236,985a31.49,31.49,0,0,1,33-7l2.36-6.36a38.27,38.27,0,0,0-21.32-1.56" transform="translate(-1193.87 -944.31)"/><path class="cls-4" d="M1247.1,1037a31.51,31.51,0,0,1-20.49-31.17l-6.77-.35a38.28,38.28,0,0,0,66.42,27.89l-5-4.59a31.5,31.5,0,0,1-34.17,8.22" transform="translate(-1193.87 -944.31)"/></svg>