<svg preserveAspectRatio="none" id="Layer_1" data-name="Layer 1" xmlns="http://www.w3.org/2000/svg" xmlns:xlink="http://www.w3.org/1999/xlink" viewBox="0 0 115.02 116.26"><defs><style>.cls-1{fill:#e9aa4f;}.cls-2{fill:#d13954;}.cls-3{fill:url(#linear-gradient);}</style><linearGradient id="linear-gradient" x1="480.95" y1="90.23" x2="595.97" y2="90.23" gradientUnits="userSpaceOnUse"><stop offset="0.01" stop-color="#5d85c4"/><stop offset="1" stop-color="#334f7e"/></linearGradient></defs><title>circle4</title><path class="cls-1" d="M538.48,134.33A44.33,44.33,0,1,1,582.81,90,44.38,44.38,0,0,1,538.48,134.33Zm0-84.67A40.33,40.33,0,1,0,578.81,90,40.38,40.38,0,0,0,538.48,49.67Z" transform="translate(-480.95 -32.1)"/><path class="cls-2" d="M534.93,125.66a35.63,35.63,0,0,1-8-1.73l1-2.84a32.65,32.65,0,0,0,7.3,1.58Zm7.12,0-0.3-3A32.66,32.66,0,0,0,549,121.1l1,2.84A35.65,35.65,0,0,1,542,125.66Zm11.74-3.26-1.29-2.71a32.94,32.94,0,0,0,7-4.45l1.92,2.3A35.92,35.92,0,0,1,553.79,122.4Zm-37.22-4.06a36.2,36.2,0,0,1-6.21-6.15l2.35-1.86a33.21,33.21,0,0,0,5.69,5.64Zm49.18-5.12-2.28-1.95a33,33,0,0,0,4.46-6.76l2.69,1.33A36.08,36.08,0,0,1,565.75,113.22ZM502.84,93.74a36.12,36.12,0,0,1,.31-9.76l3,0.5a33.1,33.1,0,0,0-.29,8.95Zm68.42-5.58A32.73,32.73,0,0,0,570,80.73l2.88-.85a35.77,35.77,0,0,1,1.4,8.12Zm-63.9-8.65-2.84-1a35.74,35.74,0,0,1,4-8.16L511,72A32.72,32.72,0,0,0,507.36,79.52Zm59-6.76a33.09,33.09,0,0,0-4.71-6l2.12-2.12A36.15,36.15,0,0,1,569,71.18Zm-48.91-8-1.92-2.3a35.88,35.88,0,0,1,8.06-5.07l1.25,2.73A32.92,32.92,0,0,0,517.5,64.76Zm40-1.5a32.88,32.88,0,0,0-7.12-3.86l1.09-2.79a35.86,35.86,0,0,1,7.77,4.21Zm-27.73-4.93L529,55.44a35.81,35.81,0,0,1,9.49-1.28v3A32.82,32.82,0,0,0,529.78,58.34Z" transform="translate(-480.95 -32.1)"/><path class="cls-3" d="M540.71,148.36l-0.55-20,2-.05,0.55,20Zm-1.23-4.69h-2V128.44h2v15.23Zm21.62-1.57-7.89-16.55,1.8-.86,7.89,16.55Zm-44.22-.37-1.84-.78L522,124.61l1.84,0.78Zm19.37-.68-2-.09,0.56-12.78,2,0.09ZM521,139.95l-1.86-.73,5.29-13.58,1.86,0.73Zm-7.13-1.64-1.76-.94,7.49-14,1.76,0.94Zm40.86-1.6-4-10.21,1.86-.74,4,10.21ZM533,136l-2-.28,1.12-7.94,2,0.28Zm10.92,0-1.1-7.82,2-.28,1.1,7.82Zm3.2-.49-1.64-7.72,2-.42,1.64,7.72Zm-17.31,0-2-.42,1.67-7.85,2,0.42Zm20.46-.71-2.18-7.59,1.92-.55,2.18,7.59Zm-23.62,0-1.92-.55,2.21-7.71,1.92,0.55Zm-14.57-.22-1.72-1L517.32,122l1.72,1Zm47.25-3.22-3.71-7,1.77-.94,3.71,7Zm17.6,0-12.49-13L565.9,117l12.49,13Zm-66.12-1.5-1.62-1.17,6-8.3,1.62,1.17Zm51.36-.05-4.18-6.7,1.7-1.06,4.18,6.7Zm6.7-1.71-6.48-8,1.56-1.25,6.48,8Zm-4,0-4.64-6.39,1.62-1.18,4.64,6.39Zm12.95-1.33-11.47-10.28,1.33-1.49,11.47,10.28Zm-68.39-.61-1.53-1.29,5.16-6.14,1.53,1.29ZM507,124l-1.44-1.39,5.57-5.77,1.44,1.39Zm-2.3-2.28-1.34-1.49,6-5.37,1.34,1.49Zm-3.65-1.13-1.25-1.57,7.85-6.25,1.25,1.57Zm-4.23-.89-1.16-1.63,10.47-7.49,1.16,1.63Zm77.54-.42-6.22-4.86,1.23-1.58,6.22,4.86Zm-82.44-.9-1-1.71,13.88-8.4,1,1.71Zm84.4-1.68-6.55-4.42,1.12-1.66,6.55,4.42Zm-89.3-.21-0.9-1.78,17.46-8.84,0.9,1.78Zm-5.32-2.25-0.77-1.85,21.62-9,0.77,1.85Zm96.39-.25-6.84-3.95,1-1.73,6.84,3.95Zm5.45-.64-11-5.65,0.91-1.78,11,5.65Zm4.82-2.15-14.63-5.91,0.75-1.85,14.63,5.91Zm6.31-1.71-20-6.7,0.64-1.9,20,6.7Zm-109.94-.67L484.09,107l17.63-6.08,0.65,1.89Zm104.49-4.8-13.72-3.8L576,98.34l13.72,3.8Zm-103.18-.25-0.45-1.95,15.47-3.57,0.45,1.95Zm107-2.58-16.92-3.58,0.41-2,16.92,3.58Zm-105.69-1-0.38-2,13.58-2.62,0.38,2Zm108.42-3.38L576.61,95l0.19-2L596,94.88ZM489.2,96.33l-0.23-2L500.26,93l0.23,2Zm104-3.2-16.36-.78,0.1-2,16.36,0.78Zm-101-.51-0.07-2,8-.28,0.07,2Zm7.95-3-8-.28,0.07-2,8,0.28Zm76.76,0,0-2,14.23-.28,0,2ZM500.27,87l-8-.84,0.21-2,8,0.84Zm76.54,0-0.21-2,7.85-.83,0.21,2Zm-76.23-2.64-15.75-2.62,0.33-2,15.75,2.62Zm75.92,0-0.35-2L583.94,81l0.35,2ZM501.06,81.7l-18.93-4.79L482.62,75l18.93,4.79Zm75,0-0.48-1.94,7.66-1.91,0.48,1.94Zm-74.29-2.56-15.23-5,0.62-1.9,15.23,5Zm73.61,0-0.61-1.9,12-3.87,0.61,1.9Zm-72.76-2.5-7.44-3,0.75-1.85,7.44,3Zm71.89,0-0.72-1.87L588.56,69l0.72,1.87ZM503.61,74.1l-7.21-3.52,0.88-1.8,7.21,3.52Zm69.84,0-0.83-1.82,16.55-7.57L590,66.49ZM504.8,71.71l-6.95-4,1-1.73,6.95,4Zm67.46-.06-1-1.74,9.15-5.2,1,1.74Zm-66.09-2.24-10.53-6.9,1.1-1.67,10.53,6.9Zm64.74-.08-1.12-1.66,6.55-4.42,1.12,1.66ZM507.67,67.2l-12.42-9.74,1.23-1.57,12.41,9.74Zm61.71-.08-1.23-1.58,6.22-4.86,1.23,1.58Zm-60-2-10.13-8.86,1.32-1.51,10.13,8.86ZM567.71,65l-1.34-1.49,5.87-5.28,1.34,1.49Zm-56.57-1.89L499.78,51.4,501.22,50l11.37,11.73ZM565.9,63l-1.43-1.4L575.86,50l1.43,1.4Zm-52.81-1.76-8-9.65,1.54-1.28,8,9.65Zm50.86-.08-1.51-1.31,11.8-13.6,1.51,1.31Zm-48.79-1.62-4.71-6.49,1.62-1.18,4.71,6.49Zm46.72-.09-1.6-1.2,6.51-8.67,1.6,1.2ZM517.33,58l-4.25-6.8,1.7-1.06L519,57Zm42.37-.11L558,56.87l4.18-6.7,1.7,1.06Zm-40.09-1.29-3.77-7.08,1.77-.94,3.77,7.08Zm37.8-.11-1.77-.94,3.71-7,1.77,0.94ZM522,55.39l-5.09-12.16,1.85-.77,5.09,12.16ZM555,55.29l-1.83-.81,3.21-7.21,1.83,0.81Zm-30.59-1L518.87,39l1.88-.68,5.56,15.33Zm28.13-.11-1.88-.69,4.9-13.3,1.88,0.69ZM527,53.45L523.6,41.78l1.92-.55,3.36,11.67ZM550,53.34l-1.92-.57,5.25-17.55,1.92,0.57Zm-20.5-.6-1.67-7.85,2-.42,1.67,7.85Zm17.91-.1-1.95-.46,2.6-10.9L550,41.73Zm-15.29-.44L531,44.26l2-.28,1.12,7.94Zm12.66-.12-2-.29,2.25-15.19,2,0.29Zm-10-.23-0.56-8,2-.14,0.56,8Zm7.35-.13-2-.13,1.25-19.49,2,0.13Zm-2.68,0h-2v-13h2v13Z" transform="translate(-480.95 -32.1)"/></svg>