<svg preserveAspectRatio="none" xmlns="http://www.w3.org/2000/svg" xmlns:xlink="http://www.w3.org/1999/xlink" viewBox="0 0 388.73 388.73"><defs><style>.cls-1{isolation:isolate;}.cls-11,.cls-12,.cls-14,.cls-2,.cls-5,.cls-6,.cls-8,.cls-9{fill:none;stroke:#11cfe7;}.cls-11,.cls-12,.cls-14,.cls-2,.cls-5,.cls-6,.cls-9{stroke-miterlimit:10;}.cls-3{opacity:0.5;}.cls-4{fill:#11cfe7;}.cls-5{stroke-width:6px;}.cls-10,.cls-5{opacity:0.65;}.cls-6{stroke-width:2px;}.cls-7{opacity:0.41;}.cls-8{stroke-linecap:round;stroke-linejoin:round;stroke-width:1.55px;}.cls-9{stroke-width:0.7px;}.cls-11{stroke-width:4px;stroke-dasharray:1 2;}.cls-12{stroke-width:20px;stroke-dasharray:0 5;}.cls-13{mix-blend-mode:multiply;fill:url(#radial-gradient);}.cls-14{stroke-width:0.85px;}</style><radialGradient id="radial-gradient" cx="193.67" cy="193.81" r="84.46" gradientUnits="userSpaceOnUse"><stop offset="0.95" stop-color="#fff" stop-opacity="0"/><stop offset="1" stop-color="#516b71"/></radialGradient></defs><title>circle64</title><g class="cls-1"><g id="BACKGROUND_2" data-name="BACKGROUND 2"><circle class="cls-2" cx="193.5" cy="193.93" r="73.79"/><g class="cls-3"><path class="cls-4" d="M143.18,317.4a71.29,71.29,0,1,1,25.71-4.84A70.94,70.94,0,0,1,143.18,317.4Zm0-131.27a60.1,60.1,0,1,0,21.69,116.15h0A60.12,60.12,0,0,0,143.22,186.13Z" transform="translate(50.32 -52.32)"/></g><circle class="cls-2" cx="193.48" cy="194.15" r="124.27"/><circle class="cls-2" cx="193.48" cy="194.17" r="94.54"/><circle class="cls-5" cx="193.48" cy="194.15" r="109.28"/><path class="cls-4" d="M127.16,291.86a48.53,48.53,0,0,1-25.47-19.32l11.85-7.86a34.25,34.25,0,0,0,18,13.64ZM179.68,276l-11.1-8.89a34.09,34.09,0,0,0,.8-41.52l11.43-8.45a47.91,47.91,0,0,1,9.44,28.69A48.43,48.43,0,0,1,179.68,276Zm-65.39-50-11.54-8.31a48.5,48.5,0,0,1,26.19-18.32l3.83,13.69A34.22,34.22,0,0,0,114.29,226Zm48.78-6.87A33.71,33.71,0,0,0,142,211.8h-0.21l-0.1-14.22H142A47.8,47.8,0,0,1,171.88,208Z" transform="translate(50.32 -52.32)"/><path class="cls-4" d="M101.46,204.63l0,0,0.88-.86,3.33,3.48-0.8.79Zm-4.66,5.26,3.79,3-0.7.92L96,210.89Zm10.91-10.69,1-.75,2.81,3.92-0.93.68ZM92.17,216.76l4.18,2.4-0.56,1-4.23-2.31Zm22.51-22.06,1.12-.59,2.22,4.28-1,.54ZM88.56,224.23L93,226q-0.21.54-.41,1.08l-4.52-1.68Q88.33,224.81,88.56,224.23Zm33.66-33,1.19-.43,1.58,4.55-1.09.39ZM86.07,232.12l4.69,1.12q-0.13.56-.26,1.13l-4.71-1Q85.92,232.74,86.07,232.12Zm44.11-43.2,1.24-.25,0.93,4.73-1.14.23ZM84.72,240.3l4.8,0.45q-0.05.58-.09,1.15l-4.81-.34Q84.66,240.92,84.72,240.3Zm-0.18,8.28,4.81-.24q0,0.58.07,1.15l-4.81.34Q84.57,249.21,84.54,248.58Zm85.83-53.92,1.1,0.62-2.4,4.18-1-.56Zm7,4.48,1,0.77-3,3.8-0.92-.7Zm6.26,5.43,0.07,0.07,0.81,0.83L181,208.8l-0.77-.78Zm1.58,9.15,3.85-2.9,0.75,1-3.91,2.82Zm4.12,6.38,4.23-2.32,0.59,1.11-4.28,2.23Zm3.17,6.91,4.52-1.69q0.22,0.59.43,1.19l-4.55,1.59Q192.68,227.54,192.48,227Zm-62.26,70.53,1.12,0.25-1,4.71-1.23-.28Zm64.41-63.23,4.71-1q0.13,0.62.26,1.24l-4.73.92Q194.75,234.86,194.62,234.3Zm-56.91,64.46,1.15,0.09-0.33,4.81-1.26-.1Zm58-56.93,4.81-.35q0,0.63.08,1.26l-4.81.24Q195.75,242.4,195.71,241.82Zm-50.4,57.08,1.15-.07,0.35,4.81-1.26.08Zm7.55-.93,1.14-.24,1,4.71-1.24.26Zm7.34-2,1.09-.4L163,300.1l-1.19.43Zm7-3,1-.55,2.32,4.23-1.11.6Zm6.47-4,0.93-.69,2.9,3.85-1,.75Zm5.84-4.87,0.76-.75,0.07-.07,3.41,3.41-0.07.07-0.83.81Z" transform="translate(50.32 -52.32)"/><path class="cls-4" d="M142.52,364.4h-0.07l-2.5,0,0.21-9.8,2.29,0Zm14.27-.86-1.18-9.73,2.33-.31,1.39,9.71Zm-31.07-.32-2.54-.39,1.6-9.67,2.32,0.36Zm47.62-2.9-2.56-9.47,2.26-.64,2.77,9.41Q174.57,360,173.33,360.32Zm-64.1-.66q-1.24-.36-2.46-0.75l3-9.35,2.25,0.68Zm80-4.9-3.89-9,2.14-1,4.08,8.92Q190.43,354.26,189.26,354.77Zm-95.84-1q-1.17-.53-2.33-1.09l4.27-8.83q1.06,0.51,2.13,1ZM204.2,347l-5.13-8.36q1-.61,2-1.25l5.31,8.24Q205.29,346.33,204.2,347ZM78.61,345.69q-1.08-.69-2.14-1.41l5.47-8.14q1,0.66,2,1.3Zm139.28-8.5-6.26-7.54q0.9-.75,1.79-1.52l6.43,7.4Q218.88,336.37,217.89,337.19Zm12.17-11.66-7.27-6.58q0.79-.87,1.56-1.76l7.41,6.42Q230.93,324.58,230.07,325.53Zm-201-45.89q-0.36-1.23-.7-2.47l9.46-2.56q0.31,1.14.64,2.26Zm-3.59-16.48q-0.18-1.26-.34-2.54l9.73-1.19q0.14,1.17.31,2.34Zm-1.21-16.81v-0.2c0-.75,0-1.55,0-2.36l9.8,0.2q0,1.11,0,2.23Zm10.88-15.43-9.71-1.37q0.18-1.27.39-2.53l9.68,1.58Q35.31,229.75,35.15,230.92Zm3.25-15.11L29,213.07q0.36-1.23.74-2.45l9.35,2.95Q38.73,214.68,38.4,215.82Zm5.39-14.49-8.92-4.07q0.53-1.17,1.09-2.33l8.83,4.26Q44.27,200.25,43.78,201.32Zm191-11.89q-0.62-1-1.25-2l8.23-5.32q0.7,1.08,1.37,2.17ZM51.19,187.74l-8.25-5.3q0.69-1.08,1.41-2.15l8.13,5.48Q51.83,186.75,51.19,187.74Zm174.55-10.86q-0.75-.9-1.52-1.79l7.39-6.44q0.84,1,1.67,2ZM60.45,175.36L53,168.94q0.84-1,1.7-1.92L62,173.59Q61.22,174.47,60.45,175.36ZM215,165.74q-0.87-.79-1.76-1.56l6.41-7.42q1,0.84,1.93,1.7Zm-12.19-9.52q-1-.66-2-1.29l5.3-8.25q1.08,0.69,2.15,1.41Zm-13.42-7.69-2.14-1,4.06-8.93q1.17,0.53,2.33,1.09ZM175,142.84l-2.25-.68,2.74-9.41,2.46,0.74Zm-15-3.57-2.33-.35L159,129.2l2.54,0.39Zm-15.39-1.39-2.17,0h-0.2V128h0.2l2.35,0Z" transform="translate(50.32 -52.32)"/><path class="cls-4" d="M142.52,364.4h-0.07l-2.5,0,0.21-9.8,2.29,0Zm14.27-.86-1.18-9.73,2.33-.31,1.39,9.71Zm-31.07-.32-2.54-.39,1.6-9.67,2.32,0.36Zm47.62-2.9-2.56-9.47,2.26-.64,2.77,9.41Q174.57,360,173.33,360.32Zm-64.1-.66q-1.24-.36-2.46-0.75l3-9.35,2.25,0.68Zm80-4.9-3.89-9,2.14-1,4.08,8.92Q190.43,354.26,189.26,354.77Zm-95.84-1q-1.17-.53-2.33-1.09l4.27-8.83q1.06,0.51,2.13,1ZM204.2,347l-5.13-8.36q1-.61,2-1.25l5.31,8.24Q205.29,346.33,204.2,347ZM78.61,345.69q-1.08-.69-2.14-1.41l5.47-8.14q1,0.66,2,1.3Zm139.28-8.5-6.26-7.54q0.9-.75,1.79-1.52l6.43,7.4Q218.88,336.37,217.89,337.19Zm12.17-11.66-7.27-6.58q0.79-.87,1.56-1.76l7.41,6.42Q230.93,324.58,230.07,325.53Zm-201-45.89q-0.36-1.23-.7-2.47l9.46-2.56q0.31,1.14.64,2.26Zm-3.59-16.48q-0.18-1.26-.34-2.54l9.73-1.19q0.14,1.17.31,2.34Zm-1.21-16.81v-0.2c0-.75,0-1.55,0-2.36l9.8,0.2q0,1.11,0,2.23Zm10.88-15.43-9.71-1.37q0.18-1.27.39-2.53l9.68,1.58Q35.31,229.75,35.15,230.92Zm3.25-15.11L29,213.07q0.36-1.23.74-2.45l9.35,2.95Q38.73,214.68,38.4,215.82Zm5.39-14.49-8.92-4.07q0.53-1.17,1.09-2.33l8.83,4.26Q44.27,200.25,43.78,201.32Zm191-11.89q-0.62-1-1.25-2l8.23-5.32q0.7,1.08,1.37,2.17ZM51.19,187.74l-8.25-5.3q0.69-1.08,1.41-2.15l8.13,5.48Q51.83,186.75,51.19,187.74Zm174.55-10.86q-0.75-.9-1.52-1.79l7.39-6.44q0.84,1,1.67,2ZM60.45,175.36L53,168.94q0.84-1,1.7-1.92L62,173.59Q61.22,174.47,60.45,175.36ZM215,165.74q-0.87-.79-1.76-1.56l6.41-7.42q1,0.84,1.93,1.7Zm-12.19-9.52q-1-.66-2-1.29l5.3-8.25q1.08,0.69,2.15,1.41Zm-13.42-7.69-2.14-1,4.06-8.93q1.17,0.53,2.33,1.09ZM175,142.84l-2.25-.68,2.74-9.41,2.46,0.74Zm-15-3.57-2.33-.35L159,129.2l2.54,0.39Zm-15.39-1.39-2.17,0h-0.2V128h0.2l2.35,0Z" transform="translate(50.32 -52.32)"/><path class="cls-6" d="M253.43,328.68a137.13,137.13,0,1,1,24.3-53.19" transform="translate(50.32 -52.32)"/><circle class="cls-4" cx="253.32" cy="328.73" r="2.26" transform="translate(-111.37 274.05) rotate(-52.06)"/><polygon class="cls-4" points="325.26 221.66 327.08 227.36 331.1 222.93 325.26 221.66"/><g class="cls-7"><path class="cls-8" d="M22,192.71a131.85,131.85,0,0,1,38.6-49.58" transform="translate(50.32 -52.32)"/><path class="cls-8" d="M154.83,376.08a131.28,131.28,0,0,1-43.15-2.76" transform="translate(50.32 -52.32)"/><path class="cls-8" d="M271.5,261.25a130.22,130.22,0,0,1-30.77,70" transform="translate(50.32 -52.32)"/><path class="cls-8" d="M226.9,146.77a130.41,130.41,0,0,1,31.89,41" transform="translate(50.32 -52.32)"/><path class="cls-8" d="M98.33,122.43q4.05-1.42,8.18-2.56" transform="translate(50.32 -52.32)"/></g><path class="cls-9" d="M150.3,194.53a52.66,52.66,0,0,1,43.32,61.13" transform="translate(50.32 -52.32)"/><path class="cls-9" d="M179,283.7a52.64,52.64,0,1,1-42.3-89.62" transform="translate(50.32 -52.32)"/><g class="cls-10"><circle class="cls-11" cx="193.5" cy="193.93" r="100.4"/></g><path class="cls-4" d="M230.6,252.57V240.41l-8.53-2.81a79,79,0,0,0-2.51-12.79l6.82-5.83-4.61-11.25-8.94.63A79.51,79.51,0,0,0,205.24,197l4-8-8.6-8.6-8,4a79.54,79.54,0,0,0-10.81-7.27l0.7-8.95-11.22-4.7-5.89,6.77A79,79,0,0,0,152,167.58L149.23,159H137.07l-2.81,8.53a79,79,0,0,0-12.79,2.51l-5.83-6.82-11.25,4.61,0.63,8.94a79.53,79.53,0,0,0-11.36,7.58l-8-4L77,189l4,8A79.53,79.53,0,0,0,73.8,207.8l-8.95-.7-4.7,11.22,6.77,5.89a79,79,0,0,0-2.68,13.39l-8.53,2.81v12.16l8.53,2.81a79,79,0,0,0,2.51,12.79L59.94,274l4.61,11.25,8.94-.63A79.53,79.53,0,0,0,81.07,296l-4,8,8.6,8.6,8-4a79.51,79.51,0,0,0,10.81,7.27l-0.7,8.95,11.22,4.7,5.89-6.77a79,79,0,0,0,13.39,2.68l2.81,8.53h12.16L152,325.4a79,79,0,0,0,12.79-2.51l5.83,6.82,11.25-4.61-0.63-8.94a79.5,79.5,0,0,0,11.36-7.58l8,4,8.6-8.6-4-8a79.52,79.52,0,0,0,7.27-10.81l8.95,0.7,4.7-11.22-6.77-5.89a79,79,0,0,0,2.68-13.39Zm-87.41,70.35a76.67,76.67,0,1,1,76.67-76.67A76.67,76.67,0,0,1,143.18,322.92Z" transform="translate(50.32 -52.32)"/><circle class="cls-12" cx="194.36" cy="194.36" r="184.36"/><circle class="cls-13" cx="193.67" cy="193.81" r="84.46"/><path class="cls-14" d="M158.52,403.24l-2.28-22.88a134.23,134.23,0,0,0,38.16-9.59L203.21,392A157.12,157.12,0,0,1,158.52,403.24ZM31,357.83A158.39,158.39,0,0,1,3.47,320.9L23.71,310a135.45,135.45,0,0,0,23.54,31.57Zm263-66.27-22-6.62a135.21,135.21,0,0,0,5.7-39v-0.34h23V246A158.13,158.13,0,0,1,294,291.56Zm-17-59.39A134.14,134.14,0,0,0,267.34,194l21.22-8.85a157.11,157.11,0,0,1,11.31,44.67Zm-15.47-50.32a135.45,135.45,0,0,0-23.57-31.54L254.18,134a158.43,158.43,0,0,1,27.57,36.89ZM47,150.64L30.74,134.4a158.41,158.41,0,0,1,36.91-27.55l10.93,20.23A135.4,135.4,0,0,0,47,150.64Zm43.74-29.37L81.93,100a157.16,157.16,0,0,1,44.68-11.29l2.31,22.88A134.17,134.17,0,0,0,90.77,121.27Z" transform="translate(50.32 -52.32)"/><rect class="cls-4" x="140.17" y="240.97" width="3.34" height="17.76" transform="translate(442.01 55.7) rotate(90)"/><rect class="cls-4" x="190.49" y="188.65" width="3.34" height="17.76"/></g></g></svg>