<svg preserveAspectRatio="none" id="Layer_1" data-name="Layer 1" xmlns="http://www.w3.org/2000/svg" viewBox="0 0 51.24 53.26"><defs><style>.cls-1{fill:#feb113;}.cls-2{fill:#065977;}.cls-3{fill:#00b3ea;}</style></defs><title>circle44</title><path class="cls-1" d="M887.87,232l-0.72.86-0.13.16s-0.09,0-.12-0.07c-0.33-.27-0.67-0.54-1-0.78a19,19,0,0,0-2.44-1.44l-0.91-.41c-0.35-.15-0.71-0.3-1.07-0.41-0.55-.17-1.09-0.35-1.65-0.48a14.71,14.71,0,0,0-1.69-.32l0.15-1.11,0-.2s0,0,0,0l0.26,0c0.43,0.07.85,0.15,1.27,0.24a16.57,16.57,0,0,1,2.27.66c0.44,0.16.88,0.34,1.31,0.53s0.58,0.27.87,0.41,0.71,0.37,1,.58,0.68,0.42,1,.64c0.52,0.36,1,.74,1.51,1.14h0Z" transform="translate(-852.59 -218.07)"/><path class="cls-1" d="M896,247.19l-1.12,0h-0.2s0-.08,0-0.12c0-.41,0-0.82,0-1.23a18.24,18.24,0,0,0-1-5.33,18.78,18.78,0,0,0-1.08-2.57c-0.18-.35-0.36-0.68-0.56-1a2.25,2.25,0,0,1-.12-0.21l0.13-.08,1-.62c0.36,0.61.71,1.23,1,1.87a21.87,21.87,0,0,1,1,2.63,19.82,19.82,0,0,1,.9,5.33c0,0.46,0,.92,0,1.39h0Z" transform="translate(-852.59 -218.07)"/><path class="cls-2" d="M864.89,224.14l1,2,0.39,0.81s0,0,0,0l-0.25.13c-0.36.19-.72,0.37-1.07,0.58a22.59,22.59,0,0,0-2.29,1.52,22.15,22.15,0,0,0-1.85,1.58,21.52,21.52,0,0,0-3.54,4.4,22,22,0,0,0-2.27,5.1,21.71,21.71,0,0,0,9.33,24.67,21.71,21.71,0,0,0,15.3,2.95,19.43,19.43,0,0,0,2.79-.69c0.47-.16.93-0.32,1.39-0.5s0.9-.38,1.34-0.58,0.88-.44,1.31-0.68,0.83-.49,1.24-0.75a21.94,21.94,0,0,0,2.27-1.7,21.61,21.61,0,0,0,3.71-4.12,20.61,20.61,0,0,0,1.46-2.43c0.21-.42.42-0.85,0.6-1.29s0.36-.89.53-1.35A19.55,19.55,0,0,0,897,251a22,22,0,0,0,.38-2.49,21.17,21.17,0,0,0-.05-4.63v0l0.55-.07,0.21,0s0,0.38.05,0.42a21.1,21.1,0,0,1,.11,2.69,21.78,21.78,0,0,1-.22,2.81c-0.07.47-.15,0.94-0.25,1.41s-0.21.92-.34,1.38a22,22,0,0,1-2.11,5.11A22.53,22.53,0,0,1,877,268.95a21.45,21.45,0,0,1-2.41,0,24.92,24.92,0,0,1-2.68-.3,21.62,21.62,0,0,1-4.81-1.4l-0.42,1-0.18.43s0,0,0,0l0.25,0.11,0.48,0.18a25.85,25.85,0,0,0,2.5.79,20.81,20.81,0,0,0,2.8.55c0.85,0.1,1.7.18,2.56,0.21a23.53,23.53,0,0,0,2.46-.06,24.07,24.07,0,0,0,21-16.23,24.63,24.63,0,0,0,1.19-5.6,23.45,23.45,0,0,0-.08-5.09l0.55-.07,0.21,0s0,0.35,0,.38c0,0.42.08,0.84,0.1,1.27s0,0.91,0,1.37a25.22,25.22,0,0,1-.64,5.58,24.88,24.88,0,0,1-19.09,18.73,24.5,24.5,0,0,1-5.52.53,25.45,25.45,0,0,1-5.3-.67,22.46,22.46,0,0,1-2.64-.78c-0.42-.16-0.85-0.31-1.26-0.49l-0.55-.24-0.27-.12L865.2,269l-0.06,0a0.22,0.22,0,0,1,0-.07l0.09-.18,0.27-.58,0.55-1.16,0.05-.11a0.51,0.51,0,0,0-.16-0.08c-0.38-.19-0.76-0.38-1.13-0.58q-0.94-.52-1.83-1.12a22.44,22.44,0,0,1-3.92-3.41,21.86,21.86,0,0,1-3.28-4.69c-0.35-.68-0.68-1.37-1-2.08a23.46,23.46,0,0,1-.87-2.6,22.17,22.17,0,0,1-.76-5.63,22.46,22.46,0,0,1,.56-5.15c0.16-.72.37-1.42,0.59-2.12,0.11-.34.24-0.67,0.36-1a1.54,1.54,0,0,0-.23-0.09l-1.27-.49-0.53-.2-0.13,0a0.36,0.36,0,0,1,.06-0.2c0.14-.38.32-0.75,0.48-1.12,0.09-.21.2-0.42,0.3-0.63s0.2-.41.31-0.62c0.22-.41.45-0.82,0.69-1.23s0.5-.81.77-1.2a24.41,24.41,0,0,1,3.71-4.32,24.09,24.09,0,0,1,4.08-3c0.39-.23.78-0.45,1.19-0.67l0.71-.36h0Z" transform="translate(-852.59 -218.07)"/><path class="cls-1" d="M866.65,227.77c-0.6.31-1.2,0.63-1.78,1A19.8,19.8,0,0,0,863,230a20.87,20.87,0,0,0-7.94,14.14,20.78,20.78,0,0,0,2.83,13,19.68,19.68,0,0,0,1.66,2.39,20.6,20.6,0,0,0,3.1,3.1,20.87,20.87,0,0,0,4.57,2.81,20.63,20.63,0,0,0,4.13,1.35,20.33,20.33,0,0,0,3.82.46c0.53,0,1.06,0,1.58,0s1.16-.09,1.74-0.16a18.87,18.87,0,0,0,2.7-.55,21.13,21.13,0,0,0,6.28-2.89c0.2-.13.4-0.28,0.6-0.42l0.35-.26c0.39-.31.78-0.63,1.16-1a21.54,21.54,0,0,0,2.45-2.59,20.88,20.88,0,0,0,2-3.06c0.35-.63.64-1.29,0.93-2,0.19-.44.36-0.89,0.5-1.34a23.16,23.16,0,0,0,.71-2.73,21,21,0,0,0,.33-2.67,21.31,21.31,0,0,0-.18-4.24,21,21,0,0,0-4.33-10c-0.3-.38-0.62-0.74-0.94-1.1-0.16-.18-0.33-0.35-0.49-0.52s-0.33-.34-0.5-0.5a21.19,21.19,0,0,0-2.11-1.75,20.7,20.7,0,0,0-4.74-2.57,21.08,21.08,0,0,0-5.35-1.28,20.21,20.21,0,0,0-5.62.19,21.83,21.83,0,0,0-2.6.62c-0.65.2-1.29,0.45-1.92,0.7-0.35.14-.68,0.3-1,0.46l-0.06,0,0-.1-0.11-.23c0.61-.28,1.23-0.56,1.86-0.8a20.16,20.16,0,0,1,2.13-.67,21.18,21.18,0,0,1,20.36,5.65,21.38,21.38,0,0,1,4.45,6.7,23.07,23.07,0,0,1,.93,2.74,20.11,20.11,0,0,1,.69,4.59,22,22,0,0,1-.42,5.13,21.3,21.3,0,0,1-1.28,4.07c-0.26.6-.54,1.18-0.85,1.76s-0.78,1.33-1.21,2a19.67,19.67,0,0,1-2.4,2.88c-0.28.28-.57,0.56-0.87,0.82s-0.79.67-1.19,1l-0.35.26c-0.21.15-.41,0.31-0.63,0.45s-0.64.43-1,.62a20.93,20.93,0,0,1-1.91,1,23,23,0,0,1-2.2.9,23.5,23.5,0,0,1-2.57.71,21,21,0,0,1-2.76.38,20,20,0,0,1-3.89-.08,20.94,20.94,0,0,1-3.91-.82,22.1,22.1,0,0,1-4.12-1.77,21,21,0,0,1-2.26-1.46,17.9,17.9,0,0,1-1.39-1.13c-0.25-.23-0.52-0.46-0.76-0.7s-0.67-.69-1-1a18.58,18.58,0,0,1-1.78-2.29c-0.27-.41-0.52-0.82-0.77-1.24s-0.47-.85-0.69-1.29a20.74,20.74,0,0,1-1.1-2.7,20.36,20.36,0,0,1-1-5,21.13,21.13,0,0,1,2-10.61,20.84,20.84,0,0,1,3-4.63,21.5,21.5,0,0,1,4.08-3.72q0.66-.46,1.36-0.86c0.49-.28,1-0.54,1.49-0.8l0.16,0.34h0Z" transform="translate(-852.59 -218.07)"/><path class="cls-2" d="M892.57,235.19l-1.85,1.24-0.19.13a16.7,16.7,0,0,0-1.53-2c-0.31-.35-0.63-0.69-1-1l-0.4-.37s-0.09-.06-0.07-0.09l0.8-.9,0.17-.19s0.07,0,0-.09c-0.29-.26-0.6-0.52-0.91-0.75a19.06,19.06,0,0,0-2.34-1.55c-0.4-.22-0.79-0.43-1.2-0.62s-0.59-.27-0.89-0.4a19.15,19.15,0,0,0-5.22-1.36H877.9l-0.17,1.55a17.3,17.3,0,0,0-2.51-.1,15.48,15.48,0,0,0-2.27.21,18.26,18.26,0,0,0-2.45.57c-0.44.14-.88,0.3-1.32,0.47s-0.74.32-1.11,0.48c0,0-.08.06-0.1,0l-0.06-.12-0.24-.5-0.61-1.25-0.16-.33a23.3,23.3,0,0,1,2.2-.91c0.45-.15.9-0.29,1.35-0.42s0.85-.22,1.28-0.3a20.47,20.47,0,0,1,2.66-.36,21.21,21.21,0,0,1,2.87,0,19.48,19.48,0,0,1,4.66.91,20.22,20.22,0,0,1,9.12,6,18.73,18.73,0,0,1,1.53,2h0Z" transform="translate(-852.59 -218.07)"/><path class="cls-3" d="M885.21,264.39l0.65-.36c0.21-.12.43-0.24,0.63-0.37,0.4-.26.81-0.52,1.19-0.81s0.76-.58,1.13-0.88,0.73-.63,1.07-1a20.53,20.53,0,0,0,1.92-2.15,21.2,21.2,0,0,0,1.52-2.28,20.2,20.2,0,0,0,2-4.75c0.11-.41.2-0.82,0.29-1.23s0.18-.91.24-1.37,0.09-.72.12-1.08a0.87,0.87,0,0,0-.23,0l-2.22-.18c0,0.24,0,.49-0.08.73a17.91,17.91,0,0,1-1.35,4.93,19.68,19.68,0,0,1-1.34,2.52c-0.12.19-.25,0.37-0.38,0.56s-0.2.29-.31,0.42l-0.26.35a0.18,0.18,0,0,0,.08.07l0.54,0.42,0.19,0.15s0,0,0,0l-0.15.19a22.76,22.76,0,0,1-1.6,1.75,18.1,18.1,0,0,1-2,1.71,18.3,18.3,0,0,1-2.46,1.5,18.81,18.81,0,0,1-5.42,1.81,20,20,0,0,1-2.62.26c-0.44,0-.88,0-1.32,0l-0.4,0v-0.16l0-.69v-0.2a1.61,1.61,0,0,0-.28,0,17.23,17.23,0,0,1-2.5-.38,17.89,17.89,0,0,1-4.71-1.78l0.57-1-0.06,0a16.34,16.34,0,0,1-4.26-3.39,16.78,16.78,0,0,1-3-4.85c-0.17-.43-0.32-0.86-0.47-1.3a13.53,13.53,0,0,1-.36-1.34c0-.2-0.09-0.39-0.12-0.59a1.58,1.58,0,0,0-.06-0.31l-0.52.09-0.6.1h0a0.6,0.6,0,0,1,0-.17c0-.18,0-0.36-0.07-0.54a17.85,17.85,0,0,1,3.38-12.82l-0.19-.14-1.79-1.33a20.23,20.23,0,0,0-2.31,20.17c0.2,0.43.4,0.86,0.62,1.29s0.47,0.86.73,1.28a19.63,19.63,0,0,0,1.7,2.36,20.3,20.3,0,0,0,14.22,7.2,20.09,20.09,0,0,0,5.68-.43,24.43,24.43,0,0,0,2.52-.73c0.42-.14.83-0.32,1.23-0.5s0.89-.42,1.33-0.64h0Zm-25.85-12.1-2.06.73a22,22,0,0,1-.62-2.11l0.11,0,2.13-.5c0.11,0.46.23,0.92,0.38,1.37l0.17,0.49-0.11,0h0Zm-1.19,2.8c-0.18-.36-0.35-0.73-0.5-1.11l0.1,0,2-.84c0.12,0.3.26,0.59,0.4,0.89s0.29,0.58.44,0.86l-1.11.61-0.9.5s-0.42-.79-0.46-0.87h0Zm1.61,2.72c-0.23-.31-0.43-0.64-0.64-1l1-.61,0.95-.59s0,0,.07.06l0.34,0.53c0.22,0.34.47,0.67,0.72,1l-1,.8-0.79.62s-0.58-.77-0.63-0.83h0Zm1.28,1.62,1.24-1.09,0.4-.35,0.08-.07a3,3,0,0,1,.21.22c0.3,0.33.61,0.64,0.94,1a2.73,2.73,0,0,1,.22.21l-0.07.08L862.6,261c-0.54-.5-1.05-1-1.54-1.57h0Zm3.28,3c-0.33-.23-0.65-0.48-1-0.74l0.07-.09,1.38-1.7A14.5,14.5,0,0,0,866.4,261l-0.68,1.06-0.56.87s-0.75-.5-0.82-0.55h0Z" transform="translate(-852.59 -218.07)"/><path class="cls-1" d="M870.68,241.32a4.41,4.41,0,0,1,.42-0.38l0.46-.36a5.51,5.51,0,0,1,.54-0.35s0.05,0,0-.05l0-.08-0.19-.33-0.63-1.1-1-1.67-0.33-.59,0-.07-0.54-1L868,233l-0.59-1-1.27-2.22-0.73-1.27-0.19-.33h0l-0.15.09-0.11.06-0.38.23-0.27.17,0,0-0.51.34,0,0c-0.32.21-.64,0.45-0.94,0.69l-0.06,0-0.1.08c-0.32.26-.64,0.53-1,0.8h0l-0.13.11c-0.34.31-.68,0.63-1,1s-0.56.58-.81,0.88a0.07,0.07,0,0,0,0,0v0l0.07,0.06,0.19,0.16,0.1,0.08,1,0.83,2,1.69,0.89,0.76,2.13,1.84,0.89,0.77h0l0.55,0.48,1.39,1.19,1.39,1.2a4.62,4.62,0,0,1,.4-0.43h0ZM862.61,233v0a1.49,1.49,0,0,1-.42-1.15,1.58,1.58,0,0,1,.52-1,1.6,1.6,0,0,1,1.15-.42,1.49,1.49,0,0,1,.93.39,1.67,1.67,0,0,1,.15,2.26,1.62,1.62,0,0,1-2.31,0h0Z" transform="translate(-852.59 -218.07)"/><path class="cls-2" d="M903.25,239.31a28.65,28.65,0,0,0-2-5.35c-0.41-.83-0.85-1.64-1.34-2.42s-1.06-1.6-1.64-2.38-1.22-1.51-1.89-2.21a28.42,28.42,0,0,0-22.9-8.79q-1.38.11-2.74,0.36c-0.94.17-1.86,0.39-2.78,0.65a26.49,26.49,0,0,0-2.66.91c-0.67.27-1.32,0.56-2,.86l2.92,6s0.55-.24.6-0.27A21.77,21.77,0,0,1,887.15,228a21.76,21.76,0,0,1,9.47,12.46,21.11,21.11,0,0,1,.52,2.19l0.08,0.46s0,0,0,0l0.18,0,2.14-.34,2.84-.45,1.42-.22c-0.16-.93-0.33-1.86-0.58-2.77h0Zm-0.35,2.29-2.52.45-2.47.44-0.29.05h-0.07s0,0,0,0c-0.07-.38-0.15-0.75-0.24-1.13s-0.23-.88-0.35-1.31-0.28-.88-0.44-1.3-0.34-.88-0.54-1.3-0.41-.87-0.63-1.3-0.46-.83-0.7-1.24a20.27,20.27,0,0,0-1.62-2.31,21.41,21.41,0,0,0-1.88-2.07,22.21,22.21,0,0,0-14.55-6.19,21.84,21.84,0,0,0-5.63.51,22.32,22.32,0,0,0-4.36,1.46c-0.08,0-.07,0-0.11,0l-0.12-.26-0.44-1-1.2-2.62L864.08,221c0.43-.19.85-0.38,1.28-0.55a27.93,27.93,0,0,1,16.45-1.34,28.5,28.5,0,0,1,5,1.62,27.68,27.68,0,0,1,4.82,2.66,28.58,28.58,0,0,1,4.34,3.69,27.36,27.36,0,0,1,1.89,2.2c0.58,0.75,1.11,1.52,1.62,2.31,0.25,0.39.48,0.81,0.72,1.21s0.46,0.86.68,1.3a28.36,28.36,0,0,1,1.13,2.63,27.39,27.39,0,0,1,1.29,4.75l-0.42.08h0Z" transform="translate(-852.59 -218.07)"/><path class="cls-3" d="M868.3,225.32c-0.51.17-1,.37-1.5,0.59l-0.68-1.56L865,221.79l-0.29-.67,0,0,0.44-.19c0.43-.17.85-0.35,1.28-0.5a0.23,0.23,0,0,1,.13,0l0,0.06,0.1,0.3,0.38,1.08,0.94,2.67,0.3,0.85h0Z" transform="translate(-852.59 -218.07)"/><path class="cls-3" d="M870.23,224.73c-0.27.06-.54,0.15-0.81,0.23l-0.75.24-0.54-1.61-0.88-2.65-0.23-.69v0l0.39-.13c0.43-.14.87-0.26,1.3-0.38a0.8,0.8,0,0,1,.23-0.05l0,0.06L869,220l0.28,1.1,0.7,2.74Z" transform="translate(-852.59 -218.07)"/><path class="cls-3" d="M872.21,224.33c-0.35.06-.7,0.11-1,0.19l-0.54.12s0,0,0,0l-0.16-.67-0.64-2.71-0.41-1.72h0c0.65-.15,1.31-0.28,2-0.39l0.27,1.68,0.44,2.76,0.12,0.76h0Z" transform="translate(-852.59 -218.07)"/><path class="cls-3" d="M874.22,224.1c-0.39,0-.79.06-1.18,0.11l-0.43.05s0,0,0,0l-0.1-.68-0.39-2.75-0.25-1.75h0c0.66-.09,1.33-0.16,2-0.21l0.12,1.7,0.19,2.79,0.05,0.77h0Z" transform="translate(-852.59 -218.07)"/><path class="cls-3" d="M876.24,224.05h-1.61s0,0,0,0l0-.69-0.14-2.78-0.09-1.77h0c0.67,0,1.33,0,2,0q0,0.85,0,1.7,0,1.4-.06,2.8Z" transform="translate(-852.59 -218.07)"/><path class="cls-3" d="M878.25,224.19l-0.81-.08c-0.27,0-.54,0-0.81,0l0.07-1.7,0.11-2.79,0-.73v0l0.41,0c0.45,0,.91.06,1.36,0.11a1.64,1.64,0,0,1,.23,0V219l0,0.29-0.13,1.11-0.32,2.82-0.11.95h0Z" transform="translate(-852.59 -218.07)"/><path class="cls-3" d="M880.24,224.5c-0.53-.11-1.06-0.2-1.6-0.27l0.22-1.69,0.36-2.77,0.09-.72v0l0.4,0.05c0.46,0.07.91,0.14,1.37,0.23a0.93,0.93,0,0,1,.2,0v0.06l-0.06.29L881,220.8l-0.57,2.78-0.19.92h0Z" transform="translate(-852.59 -218.07)"/><path class="cls-3" d="M882.2,225c-0.51-.16-1-0.29-1.56-0.41l0.37-1.66,0.61-2.73,0.16-.71v0l0.39,0.09c0.44,0.1.88,0.23,1.32,0.35a0.79,0.79,0,0,1,.22.08l0,0.06-0.09.3-0.33,1.09-0.81,2.71-0.26.88h0Z" transform="translate(-852.59 -218.07)"/><path class="cls-3" d="M884.1,225.65l-1-.37-0.53-.17s0,0,0,0l0.21-.66,0.85-2.65,0.54-1.69h0c0.63,0.2,1.26.43,1.88,0.67l-0.63,1.58-1,2.6-0.29.71h0Z" transform="translate(-852.59 -218.07)"/><path class="cls-3" d="M885.93,226.49c-0.32-.15-0.63-0.32-0.95-0.46l-0.51-.22s0,0,0,0l0.27-.64,1.08-2.56,0.69-1.63h0c0.61,0.26,1.21.54,1.81,0.84l-0.77,1.52-1.27,2.49-0.35.69h0Z" transform="translate(-852.59 -218.07)"/><path class="cls-3" d="M887.69,227.48c-0.3-.19-0.61-0.37-0.92-0.55l-0.45-.25s0,0,0,0l0.31-.58,1.3-2.44,0.85-1.61h0q0.88,0.48,1.73,1l-0.9,1.44-1.49,2.37-0.41.65h0Z" transform="translate(-852.59 -218.07)"/><path class="cls-3" d="M889.35,228.63c-0.32-.24-0.63-0.47-1-0.69L888,227.7s0,0,0,0l0.38-.58,1.52-2.33,1-1.48h0c0.55,0.37,1.1.75,1.63,1.15l-1,1.35L889.81,228l-0.47.61h0Z" transform="translate(-852.59 -218.07)"/><path class="cls-3" d="M890.9,229.92l-0.56-.5c-0.22-.18-0.44-0.38-0.67-0.55l1.05-1.33,1.73-2.2,0.45-.57,0,0,0.37,0.3c0.35,0.29.7,0.58,1,.89l0.11,0.11-1.15,1.25-1.89,2.06-0.52.57h0Z" transform="translate(-852.59 -218.07)"/><path class="cls-3" d="M892.32,231.35c-0.36-.4-0.74-0.79-1.13-1.16l1.17-1.23,1.92-2,0.5-.53,0,0s0.32,0.3.34,0.33c0.32,0.32.64,0.63,0.94,1a0.6,0.6,0,0,1,.12.14l0,0-0.23.21-0.83.76L893,230.73l-0.69.63h0Z" transform="translate(-852.59 -218.07)"/><path class="cls-3" d="M892.32,231.35c-0.36-.4-0.74-0.79-1.13-1.16l1.17-1.23,1.92-2,0.5-.53,0,0s0.32,0.3.34,0.33c0.32,0.32.64,0.63,0.94,1a0.6,0.6,0,0,1,.12.14l0,0-0.23.21-0.83.76L893,230.73l-0.69.63h0Z" transform="translate(-852.59 -218.07)"/><path class="cls-3" d="M893.62,232.9c-0.32-.43-0.67-0.85-1-1.25l1.28-1.12,2.1-1.85,0.55-.48,0,0,0.27,0.3c0.29,0.34.57,0.69,0.85,1a1.11,1.11,0,0,1,.15.21l-0.05,0-0.24.18-0.9.68-2.26,1.71-0.74.56h0Z" transform="translate(-852.59 -218.07)"/><path class="cls-3" d="M894.77,234.56c-0.19-.3-0.38-0.6-0.59-0.89l-0.32-.44s0,0,0,0l0.56-.41,2.24-1.64,1.43-1h0c0.39,0.54.76,1.09,1.12,1.65l-1.44.9-2.37,1.48Z" transform="translate(-852.59 -218.07)"/><path class="cls-3" d="M895.75,236.32c-0.18-.35-0.36-0.7-0.56-1l-0.22-.37s0,0,0,0l0.59-.36L898,233.1l1.52-.91h0q0.51,0.86,1,1.74l-1.52.77L896.44,236l-0.69.35h0Z" transform="translate(-852.59 -218.07)"/><path class="cls-3" d="M896.58,238.15c-0.15-.37-0.3-0.72-0.47-1.08l-0.18-.39s0,0,0,0l0.62-.3,2.5-1.22,1.59-.77h0c0.08,0.17.83,1.81,0.8,1.82l-0.51.21-2.52,1-1.83.74h0Z" transform="translate(-852.59 -218.07)"/><path class="cls-3" d="M897.25,240.05c-0.15-.52-0.33-1-0.52-1.53l1.59-.6,2.61-1,0.68-.26h0L901.8,237c0.15,0.43.31,0.87,0.44,1.31a0.56,0.56,0,0,1,0,.2l-0.07,0-0.3.09-1.09.33-2.71.81-0.87.26h0Z" transform="translate(-852.59 -218.07)"/><path class="cls-3" d="M897.75,242c-0.12-.53-0.24-1.05-0.39-1.57L899,240l2.69-.76,0.74-.21c0.18,0.64.33,1.29,0.48,1.94l-1.67.34-2.74.56-0.75.15h0Z" transform="translate(-852.59 -218.07)"/><path class="cls-3" d="M867.46,268c0.68,0.25,1.37.49,2.07,0.69s1.34,0.34,2,.47a23.29,23.29,0,0,0,5.3.37,22.79,22.79,0,0,0,5.49-.93,23.36,23.36,0,0,0,5.29-2.33,22.91,22.91,0,0,0,7.92-7.91,24,24,0,0,0,2.25-5,21.89,21.89,0,0,0,.69-2.84,25.62,25.62,0,0,0,.31-2.66,21.34,21.34,0,0,0-.13-4.12l0.26,0,0.15,0s0,0,0,0c0,0.39.08,0.79,0.11,1.19a21.28,21.28,0,0,1,0,2.77,24.14,24.14,0,0,1-.93,5.49c-0.14.46-.28,0.91-0.45,1.36s-0.32.84-.49,1.25a23.69,23.69,0,0,1-1.23,2.48,23.35,23.35,0,0,1-7.7,8.08,23.83,23.83,0,0,1-5.23,2.5,23.19,23.19,0,0,1-5.49,1.13,23.8,23.8,0,0,1-5.43-.18,22.45,22.45,0,0,1-4.42-1.1l-0.58-.22,0.16-.42h0Z" transform="translate(-852.59 -218.07)"/><path class="cls-2" d="M862.66,238.78l0.84,0.49c-0.09.13-.16,0.28-0.24,0.42s-0.2.39-.3,0.59c-0.18.36-.34,0.73-0.48,1.11a14.53,14.53,0,0,0-.71,2.51,14.19,14.19,0,0,0,0,5.37,14.39,14.39,0,0,0,.82,2.68,13.27,13.27,0,0,0,1.13,2.17,13,13,0,0,0,.76,1.08c0.23,0.28.46,0.56,0.7,0.83a13,13,0,0,0,1.89,1.73,13.74,13.74,0,0,0,2.84,1.69,14.85,14.85,0,0,0,1.83.67c0.31,0.08.61,0.16,0.92,0.23l0.94,0.18c0.45,0.08.91,0.1,1.36,0.14a9.89,9.89,0,0,0,1,0c0.47,0,.93,0,1.4-0.1a14.2,14.2,0,0,0,4.07-1.13,13.92,13.92,0,0,0,2.34-1.31,15,15,0,0,0,1.91-1.59l-0.69-.69,0.33-.34,0.73,0.69,0.49,0.46,0.15,0.14s0.06,0,0,.06a13.39,13.39,0,0,1-1.95,1.74c-0.37.27-.75,0.55-1.15,0.79l-0.61.36-0.64.33c-0.21.11-.43,0.2-0.64,0.3l-0.63.26c-0.42.17-.85,0.31-1.28,0.43a14,14,0,0,1-2.82.52c-0.48,0-1,.07-1.45.06a14,14,0,0,1-1.42-.08c-0.4,0-.79-0.09-1.18-0.16s-0.79-.16-1.18-0.26a15.2,15.2,0,0,1-8.44-5.8,15.18,15.18,0,0,1-1.79-14.51c0.15-.38.32-0.74,0.5-1.11a9.94,9.94,0,0,1,.52-1h0Z" transform="translate(-852.59 -218.07)"/><path class="cls-3" d="M864.35,239.77c-0.09.14-.16,0.28-0.24,0.43s-0.19.37-.28,0.55a13.57,13.57,0,0,0-.53,1.28c-0.09.21-.15,0.44-0.22,0.65s-0.12.41-.17,0.62A13.11,13.11,0,0,0,863,250a13.65,13.65,0,0,0,2.4,4.7,13.24,13.24,0,0,0,14.86,4.19c0.44-.16.87-0.35,1.29-0.55a13.53,13.53,0,0,0,1.21-.67c0.38-.25.77-0.5,1.12-0.79s0.61-.51.9-0.77l0.08-.08,0.38,0.4s0,0,0,.06l-0.2.18c-0.15.14-.3,0.27-0.46,0.4-0.35.28-.7,0.56-1.07,0.8-0.19.13-.39,0.26-0.59,0.38s-0.39.25-.6,0.34c-0.41.22-.83,0.42-1.26,0.6s-0.87.34-1.32,0.48a13.45,13.45,0,0,1-2.75.54,14.07,14.07,0,0,1-5.38-.58,13.69,13.69,0,0,1-4.73-2.58,13.9,13.9,0,0,1-2-2,13.38,13.38,0,0,1-.83-1.17c-0.26-.41-0.49-0.84-0.72-1.27a13.93,13.93,0,0,1-1-2.7,11.9,11.9,0,0,1-.29-1.4,13.34,13.34,0,0,1-.13-1.39,13.77,13.77,0,0,1,1.66-7.25c0.07-.13.14-0.27,0.22-0.4s0,0,0,0l0.09,0.05,0.4,0.24h0Z" transform="translate(-852.59 -218.07)"/><path class="cls-2" d="M888.17,255.23c-0.29.43-.62,0.82-1,1.22l-0.76-.66-0.51-.44-0.16-.14s-0.05,0,0-.06c0.28-.34.56-0.67,0.81-1Z" transform="translate(-852.59 -218.07)"/><path class="cls-2" d="M889.28,253.4c-0.18.37-.4,0.73-0.61,1.08l-0.14.23s0,0,0,0l-0.12-.08-1.13-.73-0.38-.25c0.13-.18.24-0.39,0.35-0.58s0.22-.39.32-0.59l1.74,0.89h0Z" transform="translate(-852.59 -218.07)"/><path class="cls-2" d="M890.12,251.43c-0.13.34-.25,0.68-0.39,1,0,0-.18.43-0.19,0.42l-0.1,0-1.19-.55-0.48-.22a12.24,12.24,0,0,0,.47-1.15s0-.11.06-0.1l0.16,0.05,1.28,0.44,0.38,0.13h0Z" transform="translate(-852.59 -218.07)"/><path class="cls-2" d="M890.67,249.36c-0.08.38-.17,0.76-0.27,1.13a2.65,2.65,0,0,1-.11.37l-0.12,0-1.26-.38-0.48-.14c0.13-.39.21-0.8,0.3-1.21,0-.06,0-0.11.06-0.1l0.18,0,1.34,0.26,0.36,0.07h0Z" transform="translate(-852.59 -218.07)"/><path class="cls-2" d="M890.93,247.23c0,0.4-.06.79-0.11,1.18a1.83,1.83,0,0,1-.06.35l-0.13,0-1.31-.2-0.48-.07c0.07-.41.1-0.82,0.13-1.23,0-.06,0-0.11,0-0.1h0.18l1.36,0.07,0.37,0h0Z" transform="translate(-852.59 -218.07)"/><path class="cls-2" d="M890.88,245.1c0,0.39.05,0.77,0.06,1.16,0,0,0,.38,0,0.38H889c0-.4,0-0.79,0-1.19v-0.15h0l0.17,0,1.35-.12,0.4,0h0Z" transform="translate(-852.59 -218.07)"/><path class="cls-2" d="M890.54,243c0.09,0.39.17,0.77,0.23,1.16,0,0,.05.35,0,0.36l-0.12,0-1.3.17-0.51.07a11.29,11.29,0,0,0-.21-1.17l0-.15h0l0.17,0,1.32-.31,0.38-.09h0Z" transform="translate(-852.59 -218.07)"/><path class="cls-2" d="M889.9,240.95a14.85,14.85,0,0,1,.49,1.47l-1,.27-0.65.18-0.2.06s-0.05,0-.06,0a12.51,12.51,0,0,0-.42-1.24l1.82-.71h0Z" transform="translate(-852.59 -218.07)"/><path class="cls-2" d="M889,239a14.89,14.89,0,0,1,.69,1.39l-0.93.41-0.62.27-0.19.08s0,0-.07,0a12.56,12.56,0,0,0-.59-1.18l1.7-1h0Z" transform="translate(-852.59 -218.07)"/><path class="cls-2" d="M887.8,237.22c0.21,0.29.43,0.58,0.62,0.89l0.25,0.39-0.09.06-1.11.68-0.46.28c-0.1-.17-0.21-0.33-0.32-0.49s-0.25-.35-0.38-0.53-0.09-.07,0-0.1l0.13-.1,1.07-.82,0.32-.25h0Z" transform="translate(-852.59 -218.07)"/><path class="cls-2" d="M886.38,235.62c0.28,0.28.55,0.57,0.81,0.86a1.75,1.75,0,0,1,.23.28l-0.1.09-1,.85-0.37.31a12,12,0,0,0-.84-0.91S885,237,885,237l0.13-.13,1-1,0.26-.26h0Z" transform="translate(-852.59 -218.07)"/><path class="cls-2" d="M884.75,234.24c0.31,0.23.61,0.47,0.91,0.72,0,0,.29.25,0.29,0.26l-0.08.08-0.88,1-0.35.39a12,12,0,0,0-.94-0.77l-0.1-.08,0,0,0.11-.15,0.8-1.1,0.22-.31h0Z" transform="translate(-852.59 -218.07)"/><path class="cls-2" d="M882.94,233.1c0.35,0.19.69,0.39,1,.6,0,0,.3.2,0.3,0.2l-0.07.1-0.74,1.09-0.28.42c-0.33-.22-0.67-0.43-1-0.62l-0.14-.07v0l0.08-.15,0.64-1.2,0.18-.34h0Z" transform="translate(-852.59 -218.07)"/><path class="cls-2" d="M881,232.22c0.37,0.14.74,0.28,1.1,0.45l0.32,0.16-0.05.11-0.58,1.19-0.22.46c-0.35-.17-0.71-0.33-1.07-0.46a0.64,0.64,0,0,1-.17-0.06v0l0.06-.16,0.47-1.27Z" transform="translate(-852.59 -218.07)"/><path class="cls-2" d="M878.92,231.63c0.51,0.11,1,.24,1.49.4l-0.31,1-0.21.64-0.06.2s0,0.06,0,.05a12.39,12.39,0,0,0-1.2-.32c-0.07,0-.09,0-0.08-0.06l0-.18,0.28-1.33,0.08-.35h0Z" transform="translate(-852.59 -218.07)"/><path class="cls-2" d="M876.8,231.33c0.52,0,1,.1,1.54.19l-0.17,1-0.12.66,0,0.21s0,0.06,0,.06c-0.44-.07-0.87-0.13-1.32-0.16l0.14-1.95h0Z" transform="translate(-852.59 -218.07)"/><path class="cls-2" d="M874.67,231.33c0.51,0,1,0,1.54,0l0,1,0,0.67c0,0.07,0,.14,0,0.21s0,0.06,0,.06a13,13,0,0,0-1.32,0Z" transform="translate(-852.59 -218.07)"/><path class="cls-2" d="M872.55,231.63a15.34,15.34,0,0,1,1.52-.25l0.11,1,0.07,0.67,0,0.2s0,0.06,0,.06a12.76,12.76,0,0,0-1.29.21l-0.41-1.91h0Z" transform="translate(-852.59 -218.07)"/><path class="cls-2" d="M870.5,232.23l0.34-.12,0.48-.16,0.66-.19,0.25,1,0.17,0.65,0.05,0.2s0,0.06,0,.06l-0.61.17-0.38.13-0.29.1-0.68-1.83h0Z" transform="translate(-852.59 -218.07)"/><path class="cls-1" d="M886.42,241.38a11.75,11.75,0,0,0-15.58-5.49l0.36,0.66a11,11,0,1,1-4.48,3.82l-0.57-.49a11.76,11.76,0,1,0,20.27,1.51h0Z" transform="translate(-852.59 -218.07)"/><path class="cls-3" d="M880.18,246.56a4.37,4.37,0,1,0-4.37,4.26,4.32,4.32,0,0,0,4.37-4.26h0Zm-8.36,0a4,4,0,1,1,4,3.9,3.95,3.95,0,0,1-4-3.9h0Z" transform="translate(-852.59 -218.07)"/><path class="cls-1" d="M875.81,245.87a0.7,0.7,0,1,1-.71.7,0.7,0.7,0,0,1,.71-0.7h0Z" transform="translate(-852.59 -218.07)"/><polygon class="cls-2" points="30.73 29.21 30.73 27.78 30.31 27.78 30.31 28.29 25.11 28.29 25.11 28.7 30.31 28.7 30.31 29.21 30.73 29.21"/><polygon class="cls-2" points="22.51 36 23.93 36 23.93 35.58 23.43 35.58 23.43 30.38 23.02 30.38 23.02 35.58 22.51 35.58 22.51 36"/><polygon class="cls-2" points="15.71 27.78 15.71 29.21 16.14 29.21 16.14 28.7 21.33 28.7 21.33 28.29 16.14 28.29 16.14 27.78 15.71 27.78"/><polygon class="cls-2" points="23.93 20.99 22.51 20.99 22.51 21.41 23.02 21.41 23.02 26.61 23.43 26.61 23.43 21.41 23.93 21.41 23.93 20.99"/><polygon class="cls-3" points="32.5 29.77 32.01 29.77 32.01 27.22 32.51 27.22 32.51 26.94 32.01 26.94 31.73 26.94 31.24 26.94 31.24 27.22 31.73 27.22 31.73 29.77 31.24 29.77 31.24 30.05 32.5 30.05 32.5 29.77"/><polygon class="cls-3" points="21.95 37.78 21.95 37.29 24.5 37.29 24.5 37.78 24.78 37.78 24.78 37.29 24.78 37 24.78 36.52 24.5 36.52 24.5 37 21.95 37 21.95 36.51 21.66 36.51 21.66 37.78 21.95 37.78"/><polygon class="cls-3" points="13.94 27.22 14.43 27.22 14.43 29.77 13.93 29.77 13.93 30.05 14.43 30.05 14.71 30.05 15.2 30.05 15.2 29.77 14.71 29.77 14.71 27.22 15.21 27.22 15.21 26.94 13.94 26.94 13.94 27.22"/><polygon class="cls-3" points="24.5 19.21 24.5 19.7 21.95 19.7 21.95 19.21 21.66 19.21 21.66 19.7 21.66 19.99 21.66 20.47 21.95 20.47 21.95 19.99 24.5 19.99 24.5 20.48 24.78 20.48 24.78 19.21 24.5 19.21"/></svg>