<svg preserveAspectRatio="none" id="Layer_1" data-name="Layer 1" xmlns="http://www.w3.org/2000/svg" viewBox="0 0 360.59 377.34"><defs><style>.cls-1{opacity:.5}.cls-2{fill:#49d3f7}</style></defs><g class="cls-1"><path class="cls-2" d="M573.19 145.64l-2.66-1.21a178.67 178.67 0 00-16.8-6.78l-5.54-1.87c-1.93-.6-4-1.14-6-1.73l-3.14-.89c-1.07-.27-2.16-.51-3.26-.77-2.2-.5-4.44-1.06-6.74-1.52a199.86 199.86 0 00-29.12-3.51 191.88 191.88 0 00-29.3 1 186.66 186.66 0 00-25.2 4.53c-7.27 1.86-13.22 3.8-17.34 5.28l-6.44 2.41 8.61 21.52 5.65-2.1c3.61-1.29 8.82-3 15.19-4.63a163.49 163.49 0 0122.09-4 168.76 168.76 0 0125.74-.88 176.77 176.77 0 0125.55 3.08c2 .41 4 .91 5.9 1.34 1 .23 1.92.43 2.86.67l2.75.78c1.81.52 3.58 1 5.27 1.52l4.86 1.65a155.67 155.67 0 0114.72 5.94l2.33 1.05c.67.32 1.23.62 1.69.85l1.4.72 10.47-20.68-1.6-.82c-.54-.24-1.13-.59-1.94-.95zM678.2 287.39c-.27-1.69-.57-3.28-.84-4.78l-.75-4.2c-.24-1.3-.55-2.47-.78-3.54l-1.14-4.95c-.25-1.15-.43-1.74-.43-1.74L651.82 274s.16.52.38 1.53l1 4.34c.2.94.48 2 .69 3.1l.65 3.68.74 4.19.59 4.68a167.06 167.06 0 01-1.08 48.07 156.31 156.31 0 01-6.26 24.94c-1.23 3.92-2.77 7.59-4.14 11.1-.72 1.74-1.52 3.39-2.23 5s-1.41 3.18-2.2 4.63c-1.51 2.92-2.82 5.64-4.21 7.92s-2.44 4.37-3.52 6l-3.23 5.07 19.22 13 3.71-5.78c1.22-1.81 2.48-4.16 4-6.79s3.09-5.7 4.81-9c.89-1.65 1.68-3.44 2.51-5.28s1.72-3.73 2.54-5.72c1.57-4 3.31-8.19 4.73-12.66a179.26 179.26 0 007.14-28.46 190.23 190.23 0 001.23-54.75zM508.2 480.52l-6.9.52c-2.67.18-5.69.17-9 .28a165.78 165.78 0 01-71.62-15.94c-1.87-.86-3.64-1.84-5.41-2.72l-2.61-1.34-2.48-1.43c-1.63-.95-3.23-1.83-4.75-2.75l-4.32-2.77-2-1.3-1.88-1.34-3.47-2.47c-1.11-.75-2.07-1.55-3-2.26l-2.5-2-2-1.59-1.43-1.24-1.19-1-15.14 17.55 1.36 1.17 1.63 1.41 2.29 1.81 2.85 2.24c1 .81 2.14 1.71 3.4 2.58l4 2.81 2.14 1.52 2.31 1.49 4.92 3.15c1.73 1 3.55 2.06 5.41 3.14l2.83 1.62 3 1.53c2 1 4 2.12 6.17 3.1a189 189 0 0081.66 18.18c3.74-.12 7.18-.12 10.22-.32l7.86-.6 6.82-.84-3.13-23z" transform="translate(-319.71 -127.17)"/><path class="cls-2" d="M637.38 224.62a174 174 0 00-22.29-28.42 171.57 171.57 0 00-54-37.67 174.83 174.83 0 00-27.83-9.53l-6.74-1.56-6.63-1.19c-2.17-.44-4.35-.64-6.48-.93s-4.23-.58-6.31-.69l-6.14-.47c-2-.1-4-.11-5.95-.17l-2.89-.07h-2.84l-5.52.13c-1.8.08-3.56.24-5.29.36s-3.42.2-5.06.44c-3.28.43-6.43.69-9.37 1.26s-5.75.93-8.34 1.56-5.06 1.06-7.29 1.71-4.33 1.13-6.21 1.71l-5.11 1.64c-1.54.46-2.86 1-4 1.4l-2.89 1.08-2.35.88 2.39 6 2.27-.84 2.78-1c1.1-.42 2.37-.9 3.85-1.35l4.91-1.58c1.81-.56 3.82-1 6-1.65s4.51-1.09 7-1.65 5.19-1 8-1.5 5.86-.8 9-1.22c1.58-.23 3.21-.29 4.87-.42s3.36-.27 5.09-.35l5.32-.13c.9 0 1.82-.07 2.74 0l2.79.07c1.87.06 3.79.07 5.73.16l5.91.45c2 .1 4 .42 6.08.67s4.15.47 6.24.89l6.38 1.15 6.49 1.5a168.44 168.44 0 0126.76 9.18 165.14 165.14 0 0152 36.26A167.53 167.53 0 01631.93 228a160.51 160.51 0 0115.79 32.67 166.48 166.48 0 01-1 113 169.76 169.76 0 01-18.05 35 166 166 0 01-57.63 52.42 166.37 166.37 0 01-35.63 14.38l-2.29.65-2.31.54-4.62 1.07c-3.08.68-6.2 1.14-9.28 1.72-3.11.37-6.2.84-9.3 1.14l-4.65.35c-1.55.12-3.09.26-4.63.26A165 165 0 01375.85 434a168.64 168.64 0 01-18.46-21.47l-1.94-2.73c-.65-.9-1.29-1.8-1.86-2.74l-3.5-5.46c-2.11-3.7-4.25-7.25-6-10.87-1.92-3.53-3.37-7.14-5-10.53l-2-5.13-1-2.5-.84-2.49-1.64-4.83-1.34-4.69c-.94-3-1.57-6-2.22-8.82a171.79 171.79 0 01-3.67-26.47c-.17-3.08-.16-5.46-.22-7.05l-.06-2.42h-6.43s0 .86.06 2.51.05 4.12.23 7.32a178.25 178.25 0 003.81 27.5c.67 2.92 1.33 6 2.3 9.16l1.4 4.88 1.7 5 .87 2.59 1 2.59 2.1 5.34c1.64 3.53 3.16 7.28 5.15 10.94 1.82 3.75 4 7.45 6.23 11.29l3.64 5.67c.6 1 1.25 1.91 1.93 2.84l2 2.84a175.1 175.1 0 0019.17 22.3 171.37 171.37 0 00127.26 49c1.6 0 3.21-.14 4.81-.27l4.83-.37c3.22-.31 6.43-.79 9.66-1.18 3.2-.6 6.44-1.08 9.64-1.79l4.8-1.11 2.4-.56 2.38-.68a172.93 172.93 0 0037-14.94 172.47 172.47 0 0059.96-54.4 176.24 176.24 0 0018.76-36.34 172.9 172.9 0 001-117.36 166.94 166.94 0 00-16.38-33.95z" transform="translate(-319.71 -127.17)"/></g><path class="cls-2" d="M375.58 289.47l-.24 1.06-.51 2.82c-.19 1.17-.49 2.53-.66 4l-.59 4.65c-.16 1.57-.26 3.15-.38 4.63s-.17 2.86-.2 4c-.06 2.37-.09 3.94-.09 3.94h-22.56s0-1.87.11-4.68c0-1.4.08-3 .23-4.79s.26-3.63.45-5.49l.69-5.48c.21-1.75.55-3.36.79-4.76l.61-3.36.28-1.26zM387.35 257.6l-1.81 3.52-.87 1.71-.89 1.95c-.59 1.36-1.3 2.78-1.87 4.26l-1.7 4.33-1.31 3.84c-.38 1.12-.7 2.06-.87 2.73l-.3 1-21.65-6.34.36-1.25c.21-.8.59-1.91 1-3.25s1-2.9 1.57-4.57l2-5.15c.68-1.76 1.51-3.45 2.22-5.07l1.06-2.31 1-2 2.15-4.18zM407.63 230.39l-2.73 2.86c-.83.84-1.73 1.9-2.7 3s-2 2.3-3 3.56a112.59 112.59 0 00-7.38 10.26l-19-12.2a135.81 135.81 0 018.77-12.19c1.14-1.49 2.39-2.89 3.54-4.23s2.22-2.57 3.21-3.58l3.24-3.39zM434.72 210l-3.43 2c-1 .57-2.18 1.35-3.44 2.14s-2.58 1.65-3.86 2.58-2.6 1.81-3.76 2.72l-3.19 2.5c-.94.72-1.66 1.4-2.19 1.84l-.82.71-14.8-17 1-.84c.63-.53 1.49-1.33 2.61-2.19l3.78-3c1.39-1.09 2.94-2.14 4.47-3.24s3.1-2.12 4.59-3.07 2.86-1.86 4.09-2.55l4.08-2.34zM466.51 198l-3.86.89-3.91 1.1c-.71.21-1.46.4-2.2.64l-2.24.75c-3 1-5.94 2.18-8.15 3s-3.61 1.61-3.61 1.61l-9.42-20.5s1.71-.79 4.3-1.91 6.11-2.48 9.7-3.63l2.67-.89c.88-.29 1.76-.52 2.61-.77l4.65-1.3 4.59-1.07z" transform="translate(-319.71 -127.17)"/><path class="cls-2" d="M500.32 195.42l-1.08-.08c-.69-.07-1.68-.08-2.86-.11l-4-.1-4.63.11c-1.58 0-3.15.17-4.63.27s-2.86.19-4 .37l-3.92.5-3.23-22.33 4.66-.59c1.4-.2 3-.29 4.79-.44s3.63-.3 5.5-.32l5.5-.13 4.79.11c1.4 0 2.57.06 3.39.14l1.29.09z" transform="translate(-319.71 -127.17)" opacity=".9"/><path class="cls-2" d="M533.55 202.44l-1-.36-2.72-.92-1.82-.61-2.06-.59c-1.43-.39-2.94-.87-4.48-1.23l-4.53-1c-1.45-.31-2.82-.52-4-.74-2.33-.44-3.91-.62-3.91-.62l3.12-22.37s1.87.21 4.64.74c1.39.26 3 .52 4.74.89l5.39 1.24c1.83.44 3.63 1 5.34 1.46l2.44.71 2.17.72 3.23 1.1 1.22.43z" transform="translate(-319.71 -127.17)" opacity=".8"/><path class="cls-2" d="M563.42 218.59l-3.22-2.29c-1-.7-2.13-1.44-3.37-2.24s-2.57-1.67-4-2.44a112.44 112.44 0 00-11.23-5.83l9.4-20.55a135.35 135.35 0 0113.35 6.93c1.64.92 3.21 2 4.7 2.9s2.87 1.83 4 2.66l3.83 2.73z" transform="translate(-319.71 -127.17)" opacity=".7"/><path class="cls-2" d="M587.53 242.45l-2.44-3.11c-.71-.95-1.66-2-2.61-3.09s-2-2.32-3.11-3.44-2.16-2.31-3.24-3.33l-2.93-2.79c-.85-.83-1.63-1.44-2.14-1.9l-.82-.71L585 207l1 .85c.61.55 1.52 1.29 2.54 2.26l3.46 3.29c1.28 1.21 2.54 2.6 3.85 4s2.55 2.76 3.69 4.09 2.25 2.55 3.1 3.67l2.9 3.69z" transform="translate(-319.71 -127.17)" opacity=".6"/><g class="cls-1"><path class="cls-2" d="M604 272.14l-1.45-3.68c-.45-1.1-1-2.35-1.65-3.7l-1-2.08-1.07-2.1c-1.39-2.84-3-5.56-4.2-7.62s-2.12-3.34-2.12-3.34l18.92-12.29s1 1.57 2.51 4 3.33 5.68 5 9.06l1.27 2.5 1.14 2.47c.72 1.61 1.42 3.11 2 4.41l1.73 4.38z" transform="translate(-319.71 -127.17)"/></g><path class="cls-2" d="M611.39 305.29l-.08-1.08c-.06-.69-.1-1.68-.27-2.85l-.51-4c-.17-1.47-.51-3-.77-4.58l-.42-2.32-.51-2.23c-.34-1.44-.63-2.8-.94-3.95l-1.08-3.81 21.62-6.47 1.28 4.53c.37 1.36.72 3 1.12 4.69l.6 2.66.51 2.76c.32 1.85.7 3.7.91 5.45l.61 4.78c.19 1.4.25 2.57.32 3.39l.1 1.29z" transform="translate(-319.71 -127.17)" opacity=".4"/><path class="cls-2" d="M609.24 339.13s.1-.38.22-1.07l.51-2.82c.47-2.33.82-5.47 1.21-8.61s.52-6.3.53-8.67c0-1.18.05-2.17.07-2.86s0-1.08 0-1.08l22.56-.1v1.29c0 .82 0 2-.08 3.39 0 2.81-.32 6.55-.63 10.29s-.89 7.47-1.44 10.24l-.61 3.36c-.14.81-.26 1.27-.26 1.27z" transform="translate(-319.71 -127.17)" opacity=".3"/><path class="cls-2" d="M597.59 371l1.81-3.52c.56-1 1.12-2.32 1.73-3.67s1.29-2.78 1.84-4.27a111.62 111.62 0 004.14-12l21.68 6.24a134.79 134.79 0 01-4.93 14.24c-.67 1.76-1.47 3.47-2.19 5.08s-1.4 3.11-2.06 4.36l-2.15 4.19z" transform="translate(-319.71 -127.17)" opacity=".2"/><path class="cls-2" d="M577.44 398.35l2.73-2.86c.83-.85 1.7-1.92 2.68-3l1.49-1.73c.5-.6 1-1.23 1.47-1.84 1-1.25 2-2.46 2.83-3.68l2.35-3.3c.69-1 1.19-1.82 1.58-2.39l.59-.92 19 12.11-.7 1.09c-.45.68-1.06 1.69-1.87 2.84l-2.79 3.92c-1 1.45-2.21 2.89-3.36 4.38-.58.73-1.16 1.48-1.75 2.19l-1.77 2.06c-1.16 1.32-2.21 2.59-3.19 3.6l-3.24 3.4z" transform="translate(-319.71 -127.17)" opacity=".1"/><path class="cls-2" d="M377 314.57v2.07c0 1.36 0 3.4.26 6a110.53 110.53 0 003.87 22.64l1.05 3.67 1.28 3.8c.42 1.31.95 2.6 1.47 3.94s1 2.71 1.68 4.06a111.3 111.3 0 009.21 17 116.25 116.25 0 0032.38 32.7 117.44 117.44 0 0023.52 12.09 115.12 115.12 0 0027.52 6.6c1.2.17 2.42.25 3.64.34l3.67.27 3.7.1h3.72l3.75-.1c1.25 0 2.51-.17 3.76-.26 2.52-.14 5-.52 7.57-.83a114 114 0 0015.13-3.28c2.53-.66 5-1.57 7.49-2.41 1.23-.46 2.46-1 3.69-1.44l1.85-.73 1.81-.82a115.37 115.37 0 0027.34-17.06 115.58 115.58 0 0030.25-39.19 117.45 117.45 0 006.14-15.73 119.1 119.1 0 003.7-16.53 115.43 115.43 0 000-33.81 119.08 119.08 0 00-3.7-16.54 114.87 114.87 0 00-14.31-30.35 115.8 115.8 0 00-22-24.59 115.36 115.36 0 00-27.34-17.06l-1.81-.82-1.85-.73c-1.23-.48-2.45-1-3.69-1.44-2.5-.83-5-1.74-7.49-2.41a114.35 114.35 0 00-15.13-3.28c-2.54-.32-5.05-.69-7.57-.83-1.26-.09-2.51-.21-3.76-.26l-3.75-.1h-3.72l-3.7.1-3.67.27c-1.22.1-2.44.17-3.64.34a115.07 115.07 0 00-27.52 6.6 117.44 117.44 0 00-23.52 12.09 116.27 116.27 0 00-32.38 32.7 111.27 111.27 0 00-9.21 17c-.64 1.35-1.14 2.73-1.68 4.06s-1.06 2.63-1.47 3.94l-1.28 3.8-1.05 3.67a110.52 110.52 0 00-3.87 22.64c-.25 2.64-.21 4.68-.26 6s0 2.07 0 2.07h-1.21v-2.1c0-1.39 0-3.44.27-6.11a111.64 111.64 0 013.86-22.83l1.06-3.71 1.3-3.84c.42-1.32 1-2.63 1.49-4s1-2.73 1.69-4.1a112.36 112.36 0 019.3-17.16 117.48 117.48 0 0132.72-33 118.68 118.68 0 0123.77-12.21 116.26 116.26 0 0127.81-6.67c1.22-.18 2.45-.25 3.68-.35l3.71-.27 3.74-.1h3.76l3.79.1c1.27 0 2.53.17 3.81.26 2.55.14 5.09.52 7.65.84a115.39 115.39 0 0115.29 3.31c2.55.67 5 1.59 7.56 2.43 1.25.46 2.48 1 3.73 1.45l1.86.74 1.83.83a116.56 116.56 0 0127.63 17.24 116.8 116.8 0 0130.57 39.61 118.74 118.74 0 016.13 15.92 120.12 120.12 0 013.74 16.71 116.69 116.69 0 010 34.16 120.13 120.13 0 01-3.74 16.71A116.08 116.08 0 01589.45 379a116.91 116.91 0 01-22.23 24.85 116.54 116.54 0 01-27.63 17.24l-1.83.82-1.86.74c-1.24.49-2.48 1-3.73 1.45-2.52.84-5 1.76-7.56 2.43a115.31 115.31 0 01-15.29 3.31c-2.56.32-5.1.7-7.65.84-1.27.09-2.54.21-3.81.26l-3.79.1h-3.76l-3.74-.1-3.71-.27c-1.23-.1-2.46-.17-3.68-.35a116.21 116.21 0 01-27.81-6.67 118.68 118.68 0 01-23.77-12.21 117.48 117.48 0 01-32.72-33 112.33 112.33 0 01-9.3-17.15c-.65-1.37-1.15-2.76-1.69-4.1s-1.07-2.66-1.49-4l-1.3-3.84-1.1-3.7a111.65 111.65 0 01-3.91-22.88c-.25-2.67-.21-4.72-.27-6.11s0-2.1 0-2.1H377z" transform="translate(-319.71 -127.17)"/><path class="cls-2" d="M347.83 314.57s0 .88.05 2.59 0 4.25.33 7.56a139.63 139.63 0 004.85 28.37l1.33 4.6 1.61 4.77c.53 1.63 1.19 3.27 1.84 4.94s1.31 3.39 2.1 5.09a140.44 140.44 0 0011.54 21.28A144.21 144.21 0 00476 458.14c1.51.21 3 .31 4.56.43s3.06.24 4.6.33l4.62.13h4.65l4.68-.13c1.57-.06 3.14-.21 4.71-.32 3.15-.19 6.31-.64 9.48-1a143.16 143.16 0 0019-4.11c3.16-.85 6.26-2 9.39-3 1.55-.57 3.09-1.19 4.63-1.8l2.31-.93 2.28-1a144.56 144.56 0 0034.25-21.37 144.21 144.21 0 0050.12-89.58 144.5 144.5 0 000-42.3 144.56 144.56 0 00-50.12-89.58 144.52 144.52 0 00-34.25-21.37l-2.28-1-2.31-.93c-1.54-.61-3.08-1.23-4.63-1.8-3.13-1.06-6.23-2.18-9.39-3a143.37 143.37 0 00-19-4.11c-3.17-.41-6.33-.86-9.48-1-1.57-.11-3.14-.26-4.71-.32l-4.68-.13h-4.65l-4.62.13c-1.54.09-3.07.21-4.6.33s-3 .22-4.56.43a144.28 144.28 0 00-34.51 8.28 144.54 144.54 0 00-70 56.09 140.38 140.38 0 00-11.54 21.28c-.79 1.7-1.44 3.42-2.1 5.09s-1.31 3.3-1.84 4.94l-1.61 4.77-1.33 4.6a139.64 139.64 0 00-4.85 28.37c-.29 3.31-.27 5.85-.33 7.56s-.05 2.59-.05 2.59h-1.21s0-.89.05-2.61 0-4.28.33-7.62a140.8 140.8 0 014.89-28.61l1.34-4.64 1.62-4.81c.54-1.65 1.2-3.29 1.86-5s1.32-3.42 2.12-5.13a141.53 141.53 0 0111.63-21.46 145.45 145.45 0 01105.42-64.91c1.52-.21 3.06-.31 4.6-.44s3.08-.24 4.63-.33l4.66-.13H494.47l4.73-.02c1.58.06 3.16.21 4.75.32 3.18.2 6.36.64 9.56 1.06a144.55 144.55 0 0119.14 4.14c3.19.86 6.31 2 9.47 3.05 1.56.58 3.11 1.2 4.67 1.81l2.33.93 2.3 1a145.74 145.74 0 0134.58 21.6 145.44 145.44 0 0150.54 90.34 145.87 145.87 0 010 42.65 149.45 149.45 0 01-4.68 20.91 145.38 145.38 0 01-18.09 38.38 146.17 146.17 0 01-27.77 31 145.78 145.78 0 01-34.54 21.55l-2.3 1-2.33.93c-1.56.61-3.11 1.24-4.67 1.81-3.15 1.07-6.28 2.2-9.47 3.05a144.43 144.43 0 01-19.14 4.14c-3.2.42-6.38.86-9.56 1.06-1.59.11-3.17.26-4.75.32l-4.72.13H489.83l-4.66-.13c-1.55-.09-3.09-.21-4.63-.33s-3.07-.22-4.6-.44a145.45 145.45 0 01-34.8-8.35 145.74 145.74 0 01-70.62-56.56A141.45 141.45 0 01358.84 373c-.8-1.71-1.45-3.45-2.12-5.13s-1.32-3.33-1.86-5l-1.62-4.81-1.34-4.64a140.81 140.81 0 01-4.9-28.62c-.29-3.34-.27-5.89-.33-7.62s-.05-2.61-.05-2.61h1.21z" transform="translate(-319.71 -127.17)"/><path class="cls-2" d="M472.85 239.38l1.7-.39c1-.24 2.37-.57 3.75-.78l2-.37c.65-.1 1.25-.16 1.77-.23l1.73-.22-3.51-32.23.69-.09 1.53-.12 2.23-.17 3.45 50.66-2.09.15c-1.24.19-2.91.33-4.53.67l-1.22.21-1.17.28c-.75.19-1.48.3-2.07.49l-2 .57-14.7-48.6 4.31-1.22zM568.8 305.84a15.32 15.32 0 01.17 1.72c0 1 .23 2.42.25 3.81s.11 2.78.07 3.83 0 1.74 0 1.74l32.41 1s0 1.11-.06 2.22l-.16 2.22-50.65-3.57v-.57a13 13 0 00.07-1.51c0-.63 0-1.36.07-2.14s-.06-1.62-.07-2.45-.13-1.66-.16-2.43c0-.39-.05-.76-.07-1.12l-.14-1-.25-2 50.19-7.72.57 4.41zM490.24 391.66h-1.74l-3.81-.28-3.79-.47c-.52-.05-.94-.16-1.24-.21l-.47-.08-5.48 32-2.19-.39c-1.1-.18-2.18-.44-2.18-.44L480 372l.55.13 1.47.25c1.21.27 2.86.42 4.5.64.83 0 1.66.11 2.44.18s1.52 0 2.14.06a19.87 19.87 0 002.09 0l.68 50.78h-2.23l-2.22-.05z" transform="translate(-319.71 -127.17)"/><path class="cls-2" d="M477 205.59l3.52 25.14-1.06.13-2.31.42c-1.69.26-3.34.67-3.34.67l-5.54-24.78s2.16-.53 4.35-.88l3-.53zM601.74 314.57h-25.39l-.09-3.4c0-.85-.08-1.7-.13-2.33l-.13-1.06 25.31-2 .1 1.37c.06.83.16 1.92.17 3zM477 423.06l3.52-25.14 3.37.42 3.39.26-1.49 25.35-4.4-.34zM437.67 215.74l8.18 14.75-1.32.76c-.84.48-2 1.14-3.43 2.06l-2.25 1.44c-.79.53-1.59 1.13-2.44 1.72-1.72 1.16-3.41 2.59-5.16 3.94s-3.38 2.85-4.85 4.31c-.75.72-1.48 1.4-2.15 2.07l-1.84 1.94c-1.17 1.18-2 2.24-2.68 3l-1 1.15 4.4 3.7-.46.53-1.24 1.57c-.52.69-1.21 1.48-1.9 2.47s-1.5 2.07-2.32 3.3a89.48 89.48 0 00-14.66 40.31c-.27 2.94-.47 5.4-.47 7.13s-.07 2.71-.07 2.71H379.4l.13-5.16c.06-1.64.25-3.63.42-5.91.1-1.14.28-2.35.43-3.62s.32-2.62.59-4a108.68 108.68 0 014.79-18.66 112.92 112.92 0 0122.32-37.81 114.63 114.63 0 0125.12-21c1.39-.87 2.54-1.48 3.29-1.93zm-46.3 87.43a2.86 2.86 0 10-.48 5.7 2.91 2.91 0 003.08-2.61 2.94 2.94 0 00-2.61-3.1zm1.62-10a2.79 2.79 0 00-3.37 2.28 2.82 2.82 0 002.32 3.34 2.92 2.92 0 003.33-2.29 2.83 2.83 0 00-.48-2.1 2.89 2.89 0 00-1.79-1.21zm2.61-9.76a2.79 2.79 0 00-3.59 1.94 2.82 2.82 0 002 3.55 2.92 2.92 0 003.54-1.95 2.84 2.84 0 00-.26-2.14 2.88 2.88 0 00-1.7-1.38zm3.57-9.45a2.86 2.86 0 10-2.15 5.3 2.86 2.86 0 002.14-5.26zm4.5-9A2.86 2.86 0 10401 270a2.86 2.86 0 002.66-5.06zm5.37-8.55a2.86 2.86 0 10-3.15 4.77 2.86 2.86 0 003.11-4.79zM596.37 270.49l-15.53 6.59-.63-1.38c-.42-.87-.92-2.16-1.69-3.63s-1.59-3.22-2.66-5c-.53-.89-1-1.84-1.61-2.75l-1.78-2.77a95.39 95.39 0 00-7.34-9.67l-1.48-1.71c-.44-.51-.87-.92-1.19-1.27l-1-1.1-4.13 4-.49-.51c-.31-.34-.79-.82-1.42-1.41l-2.25-2.15-3-2.64a89.81 89.81 0 00-38.56-18.8c-1.43-.36-2.78-.52-4-.76s-2.21-.36-3.07-.46l-2.69-.34.59-5.72 1.74-16.78 5.13.65c1.62.26 3.59.63 5.85 1l3.56.82 1.93.45 2 .56c1.35.4 2.78.75 4.22 1.25l4.46 1.52 4.63 1.82c1.57.66 3.14 1.4 4.74 2.12a112.73 112.73 0 0146.95 41.43c1.57 2.35 2.78 4.64 3.94 6.61s2 3.81 2.71 5.28zm-82.14-55.18a2.86 2.86 0 10-5.62-1.08 2.86 2.86 0 005.62 1.09zM524 218a2.86 2.86 0 10-5.48-1.63A2.86 2.86 0 00524 218zm9.43 3.62a2.86 2.86 0 10-5.29-2.17 2.86 2.86 0 005.26 2.14zm9 4.54a2.86 2.86 0 10-5-2.69 2.86 2.86 0 004.99 2.67zm8.53 5.42a2.86 2.86 0 10-4.76-3.18 2.86 2.86 0 004.75 3.15zm7.95 6.23a2.86 2.86 0 10-4 .36 2.86 2.86 0 003.99-.38zM517.5 424.67l-3.74-16.45 1.48-.34c.95-.19 2.27-.59 3.86-1a94.46 94.46 0 0011.42-4.09l3-1.36c1-.45 1.92-1 2.85-1.43 1.86-.9 3.51-1.92 5-2.74s2.57-1.62 3.39-2.12l1.28-.82-3.22-4.77 2.21-1.57c.71-.5 1.56-1.09 2.5-1.86l1.5-1.18.82-.64.82-.71a91.62 91.62 0 0014.74-15.83l1.71-2.4c.55-.81 1.06-1.65 1.59-2.46 1.09-1.61 2-3.3 2.91-4.89s1.69-3.22 2.42-4.74 1.4-3 1.92-4.36 1.07-2.62 1.45-3.76l1-2.94c.3-.81.45-1.47.58-1.91l.19-.68 5.53 1.59 16.21 4.66-.37 1.3c-.22.86-.65 2.08-1.17 3.64l-.88 2.58-1.17 3c-.8 2.15-1.91 4.49-3.07 7.06A116.53 116.53 0 01584.4 380a113.48 113.48 0 01-31.88 30.16 115.14 115.14 0 01-17.1 8.85l-3.77 1.48c-1.2.46-2.37.82-3.45 1.2-2.16.77-4.09 1.28-5.68 1.74-.79.22-1.5.43-2.12.59l-1.58.37zm68.74-71.17a2.86 2.86 0 102-5.35 2.86 2.86 0 00-1.99 5.34zm-4.33 9.13a2.86 2.86 0 102.55-5.12 2.86 2.86 0 00-2.54 5.11zm-5.21 8.65a2.82 2.82 0 004-.87 2.79 2.79 0 00-.93-4 2.88 2.88 0 00-2.16-.33 2.84 2.84 0 00-1.78 1.22 2.92 2.92 0 00.87 3.97zm-6.05 8.09a2.86 2.86 0 103.52-4.51 2.86 2.86 0 00-3.52 4.5zm-6.83 7.45a2.86 2.86 0 104-4.13 2.86 2.86 0 00-4 4.12zm-7.53 6.74a2.79 2.79 0 004.06.34 2.82 2.82 0 00.29-4.06 2.92 2.92 0 00-4-.31 2.83 2.83 0 00-1 1.94 2.89 2.89 0 00.65 2.08z" transform="translate(-319.71 -127.17)"/><path class="cls-2" d="M400.82 414.19a5.37 5.37 0 003.83 1.48 5.3 5.3 0 003.66-1.51l1.72 1.48 2.3 1.78c1.54 1.18 3 2.4 4.66 3.48 3.15 2.27 6.44 4.33 9.77 6.32a126.33 126.33 0 0021.06 9.85 131.43 131.43 0 0045.65 7.81 130.05 130.05 0 0085.11-32.63c1-.86 2-1.81 3-2.74l2.93-2.79-.74-.74-2.91 2.76c-1 .92-1.92 1.86-3 2.71a129.07 129.07 0 01-84.42 32.36 130.4 130.4 0 01-45.29-7.74 125.39 125.39 0 01-20.89-9.77c-3.3-2-6.57-4-9.69-6.27-1.6-1.07-3.1-2.28-4.63-3.45l-2.28-1.77-1.66-1.46a5.68 5.68 0 001-3.81 5.46 5.46 0 00-9.42-3.19 5.42 5.42 0 00.24 7.84zM529.54 303.53a1.26 1.26 0 00-.39-.88 1.24 1.24 0 00-.85-.35v-.53l-.08-.67c-.06-.45-.11-.9-.2-1.35-.14-.89-.35-1.78-.57-2.66a29.5 29.5 0 00-1.85-5.1 30.73 30.73 0 00-6.25-8.83 30.38 30.38 0 00-19.44-8.67h-1.88v.24h1.88a30.14 30.14 0 0119.29 8.6 30.46 30.46 0 016.2 8.76 29.36 29.36 0 011.84 5.06c.22.87.42 1.75.56 2.64.09.44.14.89.19 1.33l.08.67v.52a1.33 1.33 0 00-.79.47 1.28 1.28 0 001 2.08 1.26 1.26 0 001.26-1.33z" transform="translate(-319.71 -127.17)"/><path class="cls-2" transform="rotate(-32.23 42.063 847.169)" d="M397.39 354.69h49.09v5.5h-49.09z"/><path class="cls-2" d="M510.57 319.36l.19-.73c.09-.41.13-.88.23-1.38l.07-.38v-.58c0-.38 0-.73.05-1 0-.6.05-1 .05-1l30.2 1.53s0 .4-.05 1l-.05 1v.58l-.14 1.38c-.11 1-.24 1.91-.37 2.8l-.21 1.28c-.07.41-.14.8-.21 1.05l-.46 1.88zM508 325.28l.39-.65a10.07 10.07 0 00.8-1.45 12 12 0 00.68-1.51l.26-.71 28.55 9.95-.68 1.81a40.35 40.35 0 01-1.73 3.89 36.58 36.58 0 01-2.05 3.72l-1 1.64zM503.52 330l.61-.45 1.23-1.12c.43-.42.81-.9 1.13-1.22a3.44 3.44 0 00.48-.58l23.68 18.8a17.27 17.27 0 01-1.23 1.48c-.77.86-1.79 2-2.89 3.1s-2.27 2.09-3.14 2.84l-1.52 1.15zM497.8 333l.71-.26.73-.26c.26-.1.53-.26.8-.38a10.94 10.94 0 001.47-.77l.65-.39 16.21 25.52-1.65 1a38.43 38.43 0 01-3.77 2c-.7.33-1.4.67-2.07.95l-1.86.71-1.83.65zM491.59 334h.55l1.67-.09 1.64-.25a3 3 0 00.54-.11l.2-.05 6.87 29.45-.52.13c-.33.08-.8.2-1.37.29-1.14.2-2.67.44-4.21.63s-3.07.2-4.22.24h-2.66zM485 332.77l.71.26c.42.17 1 .27 1.6.44a11 11 0 001.44.28l.62.12-1.66 30.19s-1-.08-2.38-.27c-.71-.09-1.55-.21-2.43-.36-.42-.07-.95-.15-1.32-.24l-1.12-.27c-1.5-.38-3-.74-4.11-1.14l-1.83-.65zM479.39 329.57l.61.43a11.93 11.93 0 001.36 1 16.14 16.14 0 002.12 1.16l-12.91 27.34-1.74-.85c-1.05-.49-2.35-1.33-3.68-2.13a40.38 40.38 0 01-3.48-2.43l-1.53-1.18zM475.17 324.64l.39.65c.24.38.64.85 1 1.34s.81.9 1.09 1.25l.35.42.15.14L457 350l-.38-.37-1-1c-.77-.86-1.85-2-2.78-3.2S451 343 450.36 342l-1-1.64zM472.76 318.64l.19.73a10.69 10.69 0 00.47 1.59 13.33 13.33 0 00.61 1.54l.33.68-27.09 13.44-.83-1.75a42.41 42.41 0 01-1.57-4 37.66 37.66 0 01-1.22-4.08l-.46-1.88zM472.52 311.89v.78c0 .6-.07 1.41-.11 2.22v-.33V316.22a4.13 4.13 0 00.08.75l-30 3.72-.07-.53c-.05-.34-.1-.81-.13-1.39l-.11-2v-3.41c0-.81.08-1.61.11-2.22v-.41l.07-.72.07-.66zM474.36 306l-.33.68a13.28 13.28 0 00-.61 1.54 10.69 10.69 0 00-.47 1.59l-.19.73-29.57-6.3.46-1.88a37.65 37.65 0 011.22-4.08 42.34 42.34 0 011.57-4l.83-1.75zM478.15 300.7l-.15.14-.37.41c-.29.35-.75.75-1.09 1.25s-.74 1-1 1.34l-.39.65-25.83-15.72 1-1.64c.63-1 1.57-2.2 2.5-3.43s2-2.34 2.78-3.2l1-1 .38-.37zM483.48 297a16.15 16.15 0 00-2.12 1.16 12 12 0 00-1.36 1l-.61.45-19.25-23.32 1.53-1.18a40.1 40.1 0 013.48-2.43c1.32-.8 2.63-1.64 3.68-2.13l1.74-.85zM489.71 295.24l-.75.12a11.67 11.67 0 00-1.63.3c-.58.17-1.18.27-1.6.44l-.71.26L474.53 268l1.83-.65c1.09-.39 2.61-.75 4.11-1.14a39.72 39.72 0 014.18-.78l1.91-.27zM474.64 314.61v.41-.36zM492.19 331.7zM491.75 297.45h-.4.4zM508.87 314.48v-.36-.76-.66l-.13-.78c0-.28-.07-.59-.14-.91l-.27-1a16.4 16.4 0 00-2.16-4.8 17.53 17.53 0 00-4.81-4.87 18 18 0 00-3.49-1.77l-1-.36-1-.25-.51-.14c-.17 0-.27 0-.41-.06s-.52-.09-.78-.15a3.33 3.33 0 00-.67-.06h-2a17.9 17.9 0 00-6.68 1.46 18.35 18.35 0 00-4.06 2.53 19.27 19.27 0 00-3.28 3.66 19 19 0 00-2.12 4.49q-.14.61-.31 1.21l-.08.3v.23c0 .15 0 .31-.07.46s-.06.3-.1.46a.76.76 0 000 .13v.72l-.08 1.55V315.93a6.77 6.77 0 00.14 1.25 17.54 17.54 0 00.52 2.45 19 19 0 002.12 4.49 19.26 19.26 0 003.28 3.66 18.32 18.32 0 004.06 2.53 8.42 8.42 0 001.09.43 7.22 7.22 0 001.1.37l1.11.29c.36.09.58.08.87.15a17.11 17.11 0 002.81.24h.76c.37 0 .74 0 1.09-.07a17.73 17.73 0 007.56-2.76 17.52 17.52 0 004.81-4.87 16.4 16.4 0 002.16-4.8l.27-1c.06-.29.06-.48.11-.7s.08-.4.12-.57a2.21 2.21 0 000-.43v-.47c0-.61.05-1.07.07-1.38v-.09zm-1.72 1.86a1.91 1.91 0 010 .42c0 .14-.08.29-.11.46s0 .32-.09.57-.16.59-.24.91a14.84 14.84 0 01-2 4.34 15.89 15.89 0 01-4.36 4.41 16.1 16.1 0 01-6.83 2.5c-.32.06-.66 0-1 .06h-.67a14.88 14.88 0 01-2.66-.23l-.34-.06a1.64 1.64 0 01-.39-.07l-1-.26a6.23 6.23 0 01-1-.33 7.24 7.24 0 01-1-.38 16.73 16.73 0 01-3.67-2.29 17.76 17.76 0 01-3-3.31 17.51 17.51 0 01-1.92-4.06 16.41 16.41 0 01-.47-2.21 5.85 5.85 0 01-.13-1.13V314.63l.08-1.48v-.72a.52.52 0 010-.11c0-.12.07-.24.09-.37s0-.25.06-.37v-.19l.08-.27c.1-.36.19-.73.28-1.1a17.52 17.52 0 011.92-4.06 17.72 17.72 0 013-3.31 16.72 16.72 0 013.67-2.28 16.3 16.3 0 016-1.32H493.27a2.86 2.86 0 01.65.06 4.47 4.47 0 00.63.13 2.76 2.76 0 01.34 0l.46.13.91.22.87.32a16.31 16.31 0 013.16 1.6 15.9 15.9 0 014.36 4.41 14.83 14.83 0 012 4.34c.08.32.16.62.24.91s.08.57.12.82l.12.71a5.87 5.87 0 010 .6c0 .52 0 .85.06 1 0 .31 0 .77-.07 1.4.05.3.04.47.03.64z" transform="translate(-319.71 -127.17)"/><path class="cls-2" d="M543.14 317.69v.47c0 .16 0 .21-.06.78-.09.9-.2 1.89-.35 3l-.25 1.65-.15.87c-.05.3-.11.6-.16.81q-.34 1.44-.77 3.06a50.78 50.78 0 01-6.56 14.51 51.41 51.41 0 01-37.26 22.93c-1.08.15-2.16.18-3.25.24l-1.65.07h-2.58l-1.69-.09c-.2 0-2-.16-3.38-.34q-1.06-.14-2.12-.31c-.68-.11-1.5-.24-2-.37q-1.69-.4-3.38-.86c-1.13-.28-2.23-.7-3.34-1.1s-2.23-.79-3.3-1.31a52.65 52.65 0 01-12.22-7.7 51.51 51.51 0 01-16.2-24.54 52.13 52.13 0 01-1.63-7.4 34.31 34.31 0 01-.42-3.76l-.1-1.88V314.66a10.47 10.47 0 110-1.41l.1-1.91v-1.26q.12-1.18.27-2.35t.35-2.34l.2-1.16.22-.93q.44-1.85 1-3.67a51.51 51.51 0 0116.2-24.54 52.67 52.67 0 0112.21-7.61 52.26 52.26 0 0120.13-4.4H496.41c1.35.14 2.69.31 4 .52l1 .16c.31.06.69.12.92.18l1.55.38q1.54.38 3 .81c1 .32 2 .67 2.93 1a51.15 51.15 0 0125 20 50.78 50.78 0 016.56 14.51q.43 1.61.77 3.06c.21 1 .34 1.88.47 2.73L543 309c.09.72.11 1.38.15 2 .14 2.35.15 3.61.15 3.61h1.63s0-1.3-.16-3.72c0-.61-.07-1.28-.16-2l-.35-2.44c-.14-.88-.28-1.82-.49-2.81s-.49-2-.79-3.15a52.4 52.4 0 00-6.77-15 52.76 52.76 0 00-25.74-20.59c-1-.37-2-.73-3-1.06s-2.08-.57-3.14-.84l-1.6-.38c-.24-.06-.63-.13-1-.18l-1-.17c-1.37-.22-2.77-.4-4.17-.54l-.53-.05H491a53.9 53.9 0 00-20.78 4.32 54.24 54.24 0 00-12.6 7.85 53.14 53.14 0 00-16.72 25.31q-.53 1.88-1 3.79l-.22 1-.21 1.21q-.2 1.21-.36 2.43t-.27 2.41l-.05.56v.72l-.1 1.91a10.68 10.68 0 100 1.5v1.85l.1 1.94a35.84 35.84 0 00.43 3.87 53.83 53.83 0 001.68 7.63 53.12 53.12 0 0016.72 25.31 54.29 54.29 0 0012.6 7.85c1.1.54 2.26.92 3.4 1.36s2.28.84 3.45 1.13 2.33.61 3.49.89c.51.14 1.36.27 2.06.39s1.47.23 2.21.32 1.47.18 2.2.25c.93.1.93.07 1.28.1l1.69.09h2.69l1.7-.07c1.13-.07 2.25-.1 3.36-.25a53 53 0 0038.44-23.66 52.41 52.41 0 006.77-15c.3-1.11.56-2.16.79-3.15l.09-.38.08-.46.15-.9.26-1.72c.15-1.11.27-2.13.36-3.07.06-.59 0-.58.06-.79s0-.32 0-.47l.09-1.83-1.62-.08zM479.24 314.57v.67-.36-.28zM491.77 327.09h.68H491.79z" transform="translate(-319.71 -127.17)"/><path class="cls-2" d="M501.92 316.55l-.61-.09a9.28 9.28 0 00.2-1.9 9.1 9.1 0 00-1.23-4.58l.57-.41c1-.77 1.69-1.34 1.69-1.34l-.21-.35a6 6 0 00-.62-.89 12.1 12.1 0 00-1-1.17c-.18-.22-.43-.38-.64-.59l-.32-.31c-.12-.09-.25-.17-.37-.26a13 13 0 00-2.82-1.66c-.42-.13-.77-.27-1-.37a3 3 0 00-.4-.1s-.38.79-.87 2c-.12.31-.25.65-.39 1a8.73 8.73 0 00-3.22 0c-.11-.44-.21-.87-.32-1.24-.35-1.25-.64-2.07-.64-2.07l-.41.05c-.26 0-.61.18-1 .26a3.23 3.23 0 00-.68.23l-.75.27a15.61 15.61 0 00-3 1.82l-.6.55a3.25 3.25 0 00-.52.51c-.28.35-.58.59-.72.81l-.24.34s.6.64 1.53 1.53c.36.34.8.73 1.27 1.14a9.09 9.09 0 00-1.11 2.62 38.36 38.36 0 00-3.95-.38 1 1 0 000 .22 1 1 0 010 .21l-.05.13a.22.22 0 000 .1v.34l-.08 1.5v1.4c0 .29.11.58.15.88a4 4 0 00.19.86 7.85 7.85 0 00.22.83 11.72 11.72 0 00.57 1.41 6.06 6.06 0 00.49 1l.22.35s.81-.32 2-.88c.45-.22 1-.49 1.52-.78a9.23 9.23 0 002 2.21c-.27.49-.53 1-.74 1.38-.3.59-.53 1.08-.68 1.42l-.24.54.35.21a5.33 5.33 0 00.94.52l.64.33c.25.08.5.16.76.26l.39.16.42.09c.26.05.61.18.81.21a1.1 1.1 0 01.4.08h2.93a5.33 5.33 0 001.08-.12l.41-.05v-.59c0-.38 0-.91-.09-1.58 0-.34-.06-.71-.1-1.1a9.1 9.1 0 003.08-1.11l.6.69c.86.95 1.49 1.55 1.49 1.55l.33-.25c.1-.08.24-.16.38-.28l.45-.42a11.8 11.8 0 002.11-2.52 13.65 13.65 0 001.39-2.95c.09-.44.18-.79.26-1V317s-.96-.24-2.22-.45z" transform="translate(-319.71 -127.17)"/></svg>