<svg preserveAspectRatio="none" id="Layer_6" data-name="Layer 6" xmlns="http://www.w3.org/2000/svg" viewBox="0 0 112.94 112.94"><defs><style>.cls-1{fill:#0ff}</style></defs><path class="cls-1" d="M105.86 57.18l.02-.71h7.06l-.02.81-7.06-.1zM105.82 58.73l.02-.71 7.05.21-.02.82-7.05-.32zM105.72 60.28l.05-.71 7.05.43-.06.82-7.04-.54zM104.87 66.43l.13-.71 6.93 1.32-.14.8-6.92-1.41zM104.53 67.94l.16-.7 6.89 1.54-.19.79-6.86-1.63z"/><path class="cls-1" d="M131.39 137.31l.1-.34.09-.35 6.84 1.75-.11.4-.11.39z" transform="translate(-27.24 -67.86)"/><path class="cls-1" d="M103.72 70.94l.2-.69 6.77 1.97-.22.78-6.75-2.06zM103.23 72.42l.23-.68 6.71 2.18-.26.77-6.68-2.27z"/><path class="cls-1" d="M130 141.74l.13-.33c.07-.17.12-.34.12-.34l6.64 2.39s-.06.2-.14.39l-.15.38z" transform="translate(-27.24 -67.86)"/><path class="cls-1" d="M101.52 76.75l.3-.66 6.47 2.81-.33.75-6.44-2.9z"/><path class="cls-1" d="M128.11 146l.16-.32.15-.33 6.38 3-.17.37-.18.37z" transform="translate(-27.24 -67.86)"/><path class="cls-1" d="M100.16 79.54l.33-.64 6.28 3.21-.37.73-6.24-3.3zM99.41 80.9l.36-.62 6.18 3.4-.41.71-6.13-3.49z"/><path class="cls-1" d="M125.87 150.1s.1-.15.19-.31l.18-.31 6.07 3.6-.21.35c-.1.18-.21.35-.21.35z" transform="translate(-27.24 -67.86)"/><path class="cls-1" d="M96.92 84.83l.41-.59 5.84 3.98-.48.66-5.77-4.05zM95.06 87.31l.44-.56 5.57 4.33-.5.64-5.51-4.41zM94.07 88.51l.47-.54 5.43 4.5-.53.62-5.37-4.58zM93.05 89.68l.47-.54 5.29 4.67-.53.61-5.23-4.74zM91.98 90.8l.5-.52 5.14 4.84-.56.59-5.08-4.91zM96.28 57.05l.01-.58h2.53l-.01.61-2.53-.03zM96.25 58.3l.01-.58 2.53.08-.02.61-2.52-.11zM96.16 59.55l.05-.58 2.52.16-.05.61-2.52-.19z"/><path class="cls-1" d="M123.3 128.66v-.58l2.52.23v.61z" transform="translate(-27.24 -67.86)"/><path class="cls-1" d="M95.7 63.27l.11-.57 2.49.4-.11.6-2.49-.43zM95.48 64.5l.1-.56 2.49.47-.11.6-2.48-.51zM95.2 65.72l.13-.56 2.47.55-.14.6-2.46-.59zM94.16 69.32l.19-.54 2.4.78-.2.58-2.39-.82z"/><path class="cls-1" d="M121 138.37l.11-.27c.05-.13.1-.27.1-.27l2.38.86s0 .15-.1.29l-.11.29z" transform="translate(-27.24 -67.86)"/><path class="cls-1" d="M93.29 71.66l.21-.53 2.35.93-.23.57-2.33-.97zM92.78 72.81l.24-.53 2.32 1.01-.25.56-2.31-1.04z"/><path class="cls-1" d="M119.5 141.81l.13-.26.12-.26 2.29 1.08-.13.28-.14.27zM117.7 145.1s.08-.12.15-.25l.14-.25 2.17 1.29-.15.27c-.07.13-.16.26-.16.26z" transform="translate(-27.24 -67.86)"/><path class="cls-1" d="M89.78 78.29l.31-.49 2.13 1.36-.33.51-2.11-1.38zM89.08 79.32l.33-.47 2.09 1.42-.36.5-2.06-1.45z"/><path class="cls-1" d="M115.59 148.2l.17-.23.17-.24 2 1.49-.18.25-.18.25z" transform="translate(-27.24 -67.86)"/><path class="cls-1" d="M87.57 81.32l.36-.45 2 1.55-.38.48-1.98-1.58zM85.96 83.23l.38-.43 1.89 1.67-.4.46-1.87-1.7z"/><path class="cls-1" d="M117.08 157.71l1.1-1.15c.17-.19.37-.38.57-.61l.65-.75.73-.85.77-1a46.83 46.83 0 003.36-4.89 48.59 48.59 0 003.05-6.08 49.26 49.26 0 002.15-6.46c.24-1.06.5-2.08.66-3.06l.25-1.43.17-1.34c.13-.86.17-1.66.23-2.36l.07-1v-2.43h.79v2.47l-.08 1c-.05.72-.1 1.52-.23 2.4l-.17 1.37-.25 1.46c-.16 1-.42 2-.67 3.11a50.06 50.06 0 01-2.23 6.59 49.39 49.39 0 01-3.1 6.18 47.61 47.61 0 01-3.41 5l-.78 1-.75.86-.66.76c-.2.24-.41.43-.58.62l-1.12 1.17z" transform="translate(-27.24 -67.86)"/><path class="cls-1" d="M114.4 155l1-1.06c.16-.17.34-.35.53-.56l.6-.69.68-.78.71-.9a43 43 0 003.09-4.5 44.82 44.82 0 002.81-5.59 45.47 45.47 0 002-5.93c.22-1 .46-1.91.6-2.81l.23-1.31.16-1.24c.12-.79.16-1.52.21-2.17l.07-.91v-2.24h2.66v2.37l-.07 1c-.05.69-.1 1.46-.22 2.3l-.17 1.31-.29 1.39c-.15 1-.41 2-.64 3a48.16 48.16 0 01-2.09 6.3 47.48 47.48 0 01-3 5.93 45.68 45.68 0 01-3.28 4.77l-.75 1-.72.83-.63.73c-.19.23-.39.42-.56.6l-1.07 1.12zM121 124.33h-.79v2.21l-.21 1.52-.09.68.78.09.09-.7.12-1.55V125.03zM110.08 150.7l.63-.67c.2-.22.46-.46.72-.77l.9-1a38.63 38.63 0 004.14-6.07 38.25 38.25 0 002.86-6.76c.26-1 .52-1.76.63-2.34l.21-.89-.77-.2-.2.88c-.11.56-.36 1.34-.62 2.29a37.46 37.46 0 01-2.8 6.61 37.85 37.85 0 01-4.05 5.94l-.88 1c-.26.3-.51.54-.71.75l-.62.65z" transform="translate(-27.24 -67.86)"/><path class="cls-1" d="M108.72 149.34l.67-.71c.42-.41.92-1 1.44-1.6.26-.29.49-.61.72-.9s.45-.55.61-.79l.57-.8-2.19-1.54-.52.74c-.15.22-.36.46-.57.73s-.42.56-.66.83c-.48.54-.94 1.1-1.33 1.48l-.62.66z" transform="translate(-27.24 -67.86)"/><path class="cls-1" d="M90.89 91.9l.52-.49 4.99 4.99-.59.56-4.92-5.06zM89.77 92.97l.51-.49 4.84 5.14-.6.56-4.75-5.21zM88.6 93.99l.54-.47 4.67 5.29-.62.54-4.59-5.36z"/><path class="cls-1" d="M110.89 165.59l.3-.19.3-.2 4 5.83-.34.23-.34.22z" transform="translate(-27.24 -67.86)"/><path class="cls-1" d="M82.34 98.56l.6-.38 3.79 5.95-.69.44-3.7-6.01zM81 99.35l.62-.36 3.6 6.07-.71.41L81 99.35z"/><path class="cls-1" d="M106.89 168l.32-.16.31-.18 3.4 6.18-.36.2-.36.19z" transform="translate(-27.24 -67.86)"/><path class="cls-1" d="M78.26 100.81l.64-.32 3.21 6.28-.73.38-3.12-6.34zM76.86 101.47l.65-.29 3.01 6.38-.75.34-2.91-6.43zM73.99 102.67l.67-.26 2.6 6.56-.77.3-2.5-6.6zM72.53 103.19l.68-.23 2.39 6.64-.78.27-2.29-6.68z"/><path class="cls-1" d="M98.3 171.55h.11l.23-.08.34-.11 2.18 6.71-.39.13-.27.09h-.12z" transform="translate(-27.24 -67.86)"/><path class="cls-1" d="M69.56 104.11l.69-.19 1.97 6.77-.79.23-1.87-6.81zM68.06 104.5l.69-.16 1.75 6.83-.79.19-1.65-6.86zM65.02 105.13l.7-.13 1.32 6.93-.81.15-1.21-6.95zM61.94 105.57l.71-.09.88 7-.81.1-.78-7.01zM60.4 105.71l.71-.05.66 7.02-.82.07-.55-7.04z"/><path class="cls-1" d="M86.09 173.68h.72l.44 7h-.82z" transform="translate(-27.24 -67.86)"/><path class="cls-1" d="M57.3 105.86l.72-.02.21 7.05-.81.03-.12-7.06zM84.21 85.03l.42-.4 1.79 1.79-.45.42-1.76-1.81zM83.31 85.89l.41-.4 1.73 1.84-.44.43-1.7-1.87zM82.36 86.71l.44-.37 1.67 1.89-.47.4-1.64-1.92z"/><path class="cls-1" d="M108.64 155.38l.23-.18.23-.18 1.6 1.98-.24.19-.24.19z" transform="translate(-27.24 -67.86)"/><path class="cls-1" d="M79.4 89.02l.47-.33 1.49 2.04-.5.35-1.46-2.06z"/><path class="cls-1" d="M105.61 157.59l.24-.16.24-.16 1.42 2.09-.25.17-.26.17z" transform="translate(-27.24 -67.86)"/><path class="cls-1" d="M77.31 90.4l.49-.31 1.36 2.13-.52.34-1.33-2.16zM74.03 92.22l.51-.27 1.15 2.25-.54.28-1.12-2.26zM72.9 92.75l.52-.24 1.08 2.29-.56.25-1.04-2.3z"/><path class="cls-1" d="M99 161.12l.27-.11.26-.12 1 2.32-.28.13-.28.12z" transform="translate(-27.24 -67.86)"/><path class="cls-1" d="M70.59 93.71l.54-.21.93 2.35-.57.22-.9-2.36zM69.41 94.13l.55-.18.86 2.38-.59.19-.82-2.39zM65.82 95.18l.56-.13.62 2.45-.59.14-.59-2.46zM64.6 95.46l.56-.13.55 2.47-.6.14-.51-2.48zM63.37 95.69l.57-.11.47 2.49-.61.11-.43-2.49z"/><path class="cls-1" d="M89.37 163.75h.58l.39 2.5h-.6z" transform="translate(-27.24 -67.86)"/><path class="cls-1" d="M60.89 96.04l.57-.07.32 2.51-.61.08-.28-2.52z"/><path class="cls-1" d="M85.64 164.11h.58l.16 2.52h-.62zM83.71 171.53h2.43l1-.07c.7-.05 1.5-.1 2.36-.23l1.34-.17 1.43-.25c1-.15 2-.42 3.06-.66a49.29 49.29 0 006.46-2.15 48.6 48.6 0 006.08-3.05 46.82 46.82 0 004.89-3.36l1-.77.85-.73.75-.65c.23-.2.43-.4.61-.57l1.15-1.1.56.56-1.17 1.12c-.19.18-.39.38-.62.58l-.76.66-.87.75-1 .78a47.61 47.61 0 01-5 3.41 49.4 49.4 0 01-6.18 3.1 50.06 50.06 0 01-6.56 2.18c-1.08.24-2.11.51-3.11.67l-1.45.25-1.37.17c-.87.13-1.68.18-2.4.23l-1 .08h-2.47v-.79zM110.08 150.7l-.56-.56-.5.47c-.31.28-.68.68-1.11 1s-.83.73-1.15 1l-.54.43.49.62.55-.43c.33-.26.75-.64 1.18-1s.82-.77 1.14-1.05zM83.71 161.62h1.98l1.37-.11a37.88 37.88 0 007.21-1.37 36.43 36.43 0 006.8-2.76c.45-.22.84-.46 1.2-.66s.67-.37.91-.53l.77-.5-.43-.66-.76.49c-.24.16-.55.32-.89.52s-.73.44-1.17.65a35.63 35.63 0 01-6.65 2.7 37.07 37.07 0 01-7.05 1.29l-1.34.1h-1.9v.79z" transform="translate(-27.24 -67.86)"/><path class="cls-1" d="M83.71 159.7h2l1.15-.09h.58l.56-.07 1-.12c.29 0 .53-.09.7-.12h.26l-.46-2.62h-.24c-.16 0-.38.08-.64.11l-.92.11-.52.07h-.54l-1.06.08h-1.84v2.66zM108.72 149.34l-1.88-1.88-1.19 1.13c-.38.32-.8.71-1.28 1.1l-.75.59-.38.3-.4.28-.8.57-.8.51c-.51.35-1 .62-1.44.87-.21.12-.4.24-.58.33l-.46.23-.4.21 1.17 2.42.43-.22.5-.25c.19-.1.4-.23.63-.36.46-.27 1-.56 1.56-.94l.86-.55.86-.62.44-.31.42-.33.81-.63c.52-.42 1-.84 1.38-1.19z" transform="translate(-27.24 -67.86)"/><path class="cls-1" d="M55.75 105.86l.72.02v7.06l-.82-.02.1-7.06zM54.2 105.82l.72.02-.22 7.05-.82-.02.32-7.05zM52.66 105.72l.71.05-.44 7.05-.81-.06.54-7.04zM46.51 104.87l.7.13-1.31 6.93-.81-.14 1.42-6.92zM44.99 104.53l.7.16-1.53 6.89-.8-.19 1.63-6.86z"/><path class="cls-1" d="M70.73 172l.35.1.35.09-1.76 6.81-.4-.11-.39-.11z" transform="translate(-27.24 -67.86)"/><path class="cls-1" d="M41.99 103.72l.7.2-1.97 6.77-.79-.22 2.06-6.75zM40.52 103.23l.68.23-2.18 6.71-.78-.26 2.28-6.68z"/><path class="cls-1" d="M66.3 170.58l.33.13.37.12-2.39 6.64-.39-.14-.38-.15z" transform="translate(-27.24 -67.86)"/><path class="cls-1" d="M36.19 101.52l.65.3-2.8 6.47-.75-.33 2.9-6.44z"/><path class="cls-1" d="M62 168.73l.32.16.35.11-3 6.38-.37-.17-.37-.18z" transform="translate(-27.24 -67.86)"/><path class="cls-1" d="M33.4 100.16l.63.33-3.2 6.28-.73-.37 3.3-6.24zM32.04 99.41l.62.36-3.41 6.18-.71-.41 3.5-6.13z"/><path class="cls-1" d="M57.94 166.49l.31.19.31.18-3.56 6.07-.35-.21-.35-.21z" transform="translate(-27.24 -67.86)"/><path class="cls-1" d="M28.11 96.92l.58.41-3.97 5.84-.67-.48 4.06-5.77zM25.62 95.06l.57.44-4.33 5.57-.64-.5 4.4-5.51zM24.43 94.07l.54.47-4.5 5.43-.62-.53 4.58-5.37zM23.26 93.05l.54.47-4.67 5.29-.62-.53 4.75-5.23zM22.13 91.98l.52.5-4.83 5.14-.59-.56 4.9-5.08zM55.89 96.28l.58.01v2.53l-.62-.01.04-2.53zM54.64 96.25l.58.01-.08 2.53-.62-.02.12-2.52zM53.39 96.16l.57.05-.15 2.52-.62-.05.2-2.52z"/><path class="cls-1" d="M79.38 163.92h.29l.33.08-.23 2.52h-.61z" transform="translate(-27.24 -67.86)"/><path class="cls-1" d="M49.66 95.7l.57.11-.39 2.49-.61-.11.43-2.49zM48.43 95.48l.57.1-.47 2.49-.61-.11.51-2.48zM47.21 95.2l.57.13-.55 2.47-.6-.14.58-2.46zM43.61 94.16l.55.19-.78 2.4-.58-.2.81-2.39z"/><path class="cls-1" d="M69.68 161.61l.27.11.27.1-.86 2.38-.29-.1-.29-.1z" transform="translate(-27.24 -67.86)"/><path class="cls-1" d="M41.27 93.29l.54.21-.93 2.35-.57-.23.96-2.33zM40.13 92.78l.52.24-1 2.32-.56-.25 1.04-2.31z"/><path class="cls-1" d="M66.23 160.12l.26.13.26.12-1.08 2.29-.28-.13-.27-.14zM62.94 158.32l.25.15.25.14-1.29 2.17-.27-.15-.26-.16z" transform="translate(-27.24 -67.86)"/><path class="cls-1" d="M34.65 89.78l.49.31-1.36 2.13-.52-.33 1.39-2.11zM33.62 89.08l.47.33-1.43 2.09-.5-.36 1.46-2.06z"/><path class="cls-1" d="M59.84 156.21l.23.17.24.17-1.49 2-.25-.18-.25-.18z" transform="translate(-27.24 -67.86)"/><path class="cls-1" d="M31.61 87.58l.46.35-1.55 2-.49-.38 1.58-1.97zM29.7 85.96l.44.38-1.67 1.89-.47-.4 1.7-1.87z"/><path class="cls-1" d="M50.33 157.71l1.15 1.1c.19.17.38.37.61.57l.76.62.85.73 1 .77a46.83 46.83 0 004.89 3.36 48.6 48.6 0 006.08 3.05 49.28 49.28 0 006.46 2.15c1.06.24 2.08.5 3.06.66l1.4.28 1.34.17c.86.13 1.66.17 2.36.23l1 .07h2.43v.79h-2.47l-1-.08c-.72-.05-1.52-.1-2.4-.23l-1.37-.17-1.48-.26c-1-.16-2-.42-3.11-.67a50.06 50.06 0 01-6.56-2.18 49.4 49.4 0 01-6.18-3.1 47.62 47.62 0 01-5-3.41l-1-.78-.87-.75-.71-.63c-.24-.2-.43-.41-.62-.58l-1.17-1.12z" transform="translate(-27.24 -67.86)"/><path class="cls-1" d="M53 155l1.06 1c.17.16.35.34.56.53l.69.6.78.68.9.71a43 43 0 004.5 3.09 44.8 44.8 0 005.59 2.81 45.48 45.48 0 005.93 2c1 .22 1.91.46 2.81.6l1.31.23 1.24.16c.79.12 1.52.16 2.17.21l.91.07h2.24v2.66h-2.37l-1-.07c-.69-.05-1.46-.1-2.3-.22l-1.31-.17-1.39-.25c-1-.15-2-.41-3-.64a48.14 48.14 0 01-6.3-2.09 47.45 47.45 0 01-5.93-3 45.67 45.67 0 01-4.77-3.28l-1-.75-.83-.72-.73-.63c-.23-.19-.42-.39-.6-.56l-1.12-1.07zM83.71 161.62v-.79H81.5l-1.5-.19-.68-.09-.09.78.7.09 1.55.12H83.03zM57.34 150.7l.66.63c.22.2.46.46.77.72l1 .9a38.64 38.64 0 006.07 4.14 38.24 38.24 0 006.8 2.91c1 .26 1.76.52 2.34.63l.89.21.13-.84-.88-.2c-.56-.11-1.34-.36-2.29-.62a37.45 37.45 0 01-6.61-2.8 37.84 37.84 0 01-5.94-4.05l-1-.88c-.3-.26-.54-.51-.75-.71l-.65-.62zM83.71 159.7V157h-1.65l-1.68-.13-.94-.12c-.32 0-.65-.06-1-.13-.64-.13-1.3-.21-1.89-.37l-.86-.2c-.28-.06-.53-.15-.77-.21-.47-.14-.87-.23-1.14-.33l-.43-.15-.84 2.52.49.12c.29.11.72.21 1.23.36.26.07.53.17.83.23l.94.26c.64.17 1.35.26 2 .4.35.07.7.1 1 .15l1 .13 1.82.14z" transform="translate(-27.24 -67.86)"/><path class="cls-1" d="M21.03 90.89l.5.52-4.99 4.99-.57-.59 5.06-4.92zM19.96 89.77l.5.51-5.15 4.84-.56-.6 5.21-4.75zM18.94 88.6l.47.54-5.29 4.67-.53-.62 5.35-4.59z"/><path class="cls-1" d="M42.45 151.51l.19.3c.09.15.2.3.2.3l-5.83 4s-.12-.17-.23-.34l-.22-.34z" transform="translate(-27.24 -67.86)"/><path class="cls-1" d="M14.37 82.34l.39.6-5.96 3.79-.44-.69 6.01-3.7zM13.58 81l.36.62-6.07 3.6-.41-.71L13.58 81z"/><path class="cls-1" d="M40.07 147.51l.16.32.18.31-6.18 3.41-.2-.36-.19-.36z" transform="translate(-27.24 -67.86)"/><path class="cls-1" d="M12.12 78.26l.33.64-6.29 3.21-.37-.73 6.33-3.12zM11.46 76.86l.3.65-6.38 3.01-.34-.75 6.42-2.91zM10.27 73.99l.26.67-6.56 2.6-.3-.77 6.6-2.5zM9.74 72.53l.23.68-6.64 2.39-.26-.78 6.67-2.29z"/><path class="cls-1" d="M36.49 138.92v.11l.08.23.11.34-6.68 2.18-.13-.39-.09-.27V141z" transform="translate(-27.24 -67.86)"/><path class="cls-1" d="M8.82 69.56l.2.69-6.78 1.97-.22-.79 6.8-1.87zM8.44 68.06l.16.69-6.84 1.75-.18-.79 6.86-1.65zM7.81 65.02l.12.7L1 67.04l-.14-.81 6.95-1.21zM7.37 61.94l.09.71-7.01.88-.1-.81 7.02-.78zM7.22 60.4l.06.71-7.03.66-.06-.82 7.03-.55z"/><path class="cls-1" d="M34.36 126.72v.72l-7 .44v-.41-.41z" transform="translate(-27.24 -67.86)"/><path class="cls-1" d="M7.08 57.3l.01.72-7.05.21-.02-.81 7.06-.12zM27.91 84.21l.4.42-1.79 1.79-.43-.45 1.82-1.76zM27.04 83.31l.4.41-1.84 1.73-.42-.44 1.86-1.7zM26.22 82.36l.38.44-1.9 1.67-.4-.47 1.92-1.64z"/><path class="cls-1" d="M52.66 149.26l.18.23.16.23-1.95 1.61-.19-.24-.19-.24z" transform="translate(-27.24 -67.86)"/><path class="cls-1" d="M23.92 79.4l.33.47-2.04 1.49-.36-.5 2.07-1.46z"/><path class="cls-1" d="M50.45 146.23l.16.24.16.24-2.09 1.42s-.09-.12-.17-.25l-.17-.26z" transform="translate(-27.24 -67.86)"/><path class="cls-1" d="M22.53 77.31l.31.49-2.13 1.36-.33-.52 2.15-1.33zM20.72 74.03l.26.51-2.25 1.15-.28-.54 2.27-1.12zM20.19 72.9l.24.52-2.29 1.08-.25-.56 2.3-1.04z"/><path class="cls-1" d="M46.93 139.62s0 .14.11.27l.12.26-2.32 1-.13-.28-.12-.28z" transform="translate(-27.24 -67.86)"/><path class="cls-1" d="M19.23 70.59l.21.54-2.35.93-.23-.57 2.37-.9zM18.8 69.41l.19.55-2.38.86-.2-.59 2.39-.82zM17.76 65.82l.12.56-2.44.62-.14-.59 2.46-.59zM17.47 64.6l.13.56-2.46.55-.14-.6 2.47-.51zM17.25 63.37l.1.57-2.48.47-.11-.61 2.49-.43z"/><path class="cls-1" d="M44.29 130v.58l-2.5.39v-.6z" transform="translate(-27.24 -67.86)"/><path class="cls-1" d="M16.89 60.89l.07.58-2.5.31-.08-.61 2.51-.28z"/><path class="cls-1" d="M43.93 126.26v.58l-2.52.16v-.31-.31zM36.51 124.33v2.43l.07 1c.05.7.1 1.5.23 2.36l.19 1.33.25 1.43c.15 1 .42 2 .66 3.06a49.27 49.27 0 002.15 6.46 48.6 48.6 0 003.05 6.08 46.8 46.8 0 003.36 4.89l.77 1 .76.83.65.75c.2.23.4.43.57.61l1.1 1.15-.56.56-1.12-1.17c-.18-.19-.38-.39-.58-.62l-.66-.76-.75-.86-.78-1a47.59 47.59 0 01-3.41-5 49.37 49.37 0 01-3.1-6.18 50.06 50.06 0 01-2.18-6.56c-.24-1.08-.51-2.11-.67-3.11l-.26-1.45-.17-1.37c-.13-.87-.18-1.68-.23-2.4l-.08-1v-2.47h.79z" transform="translate(-27.24 -67.86)"/><path class="cls-1" d="M40.3 124.33v2.24l.07.91c0 .65.09 1.38.21 2.17l.16 1.24.26 1.31c.14.91.39 1.84.6 2.81a45.5 45.5 0 002 5.93 44.8 44.8 0 002.81 5.59A43 43 0 0049.5 151l.71.9.68.78.6.69c.18.21.37.39.53.56L53 155l-1.88 1.88-1.07-1.12c-.17-.18-.37-.37-.56-.6l-.63-.73-.72-.83-.75-1a45.68 45.68 0 01-3.28-4.77 47.45 47.45 0 01-3-5.93 48.13 48.13 0 01-2.09-6.3c-.23-1-.49-2-.64-3l-.25-1.39L38 130c-.12-.84-.17-1.62-.22-2.3l-.07-1v-2.37h2.59zM57.34 150.7l.56-.56-.47-.5c-.28-.31-.68-.68-1-1.11s-.73-.83-1-1.15l-.43-.55-.62.49.43.55c.26.33.64.75 1 1.18s.77.82 1.05 1.14zM46.42 124.33v1.98l.11 1.37a37.87 37.87 0 001.37 7.21 36.43 36.43 0 002.76 6.8c.22.45.46.84.66 1.2s.37.67.53.91l.5.77.66-.43-.49-.76c-.16-.24-.32-.55-.52-.89s-.44-.73-.65-1.17a35.64 35.64 0 01-2.7-6.65 37.08 37.08 0 01-1.34-7.06l-.1-1.34v-1.9h-.79z" transform="translate(-27.24 -67.86)"/><path class="cls-1" d="M48.34 124.33v2l.09 1.15v.58l.07.56.12 1c0 .29.09.53.12.7v.26l2.62-.46v-.24c0-.16-.08-.38-.11-.64l-.11-.92-.07-.52v-.54l-.08-1.06v-1.84h-2.65z" transform="translate(-27.24 -67.86)"/><path class="cls-1" d="M7.07 55.75l-.01.72H0l.02-.82 7.05.1zM7.11 54.2l-.02.72-7.05-.22.02-.82 7.05.32zM7.22 52.66l-.06.71-7.04-.44.06-.81 7.04.54zM8.06 46.51l-.13.7L1 45.9l.15-.81 6.91 1.42zM8.41 44.99l-.16.7-6.89-1.53.18-.8 6.87 1.63z"/><path class="cls-1" d="M36 111.35l-.1.34-.09.35-6.81-1.75.11-.4.11-.39z" transform="translate(-27.24 -67.86)"/><path class="cls-1" d="M9.22 41.99l-.2.7-6.78-1.97.23-.79 6.75 2.06zM9.7 40.52l-.23.68-6.71-2.18.26-.78 6.68 2.28z"/><path class="cls-1" d="M37.46 106.92l-.13.33c-.07.17-.12.34-.12.34l-6.64-2.39s.06-.2.14-.39l.15-.38z" transform="translate(-27.24 -67.86)"/><path class="cls-1" d="M11.41 36.19l-.29.65-6.48-2.81.34-.74 6.43 2.9z"/><path class="cls-1" d="M39.31 102.64l-.16.32-.15.33-6.38-3 .17-.37.21-.38z" transform="translate(-27.24 -67.86)"/><path class="cls-1" d="M12.77 33.4l-.32.63-6.29-3.2.38-.73 6.23 3.3zM13.52 32.04l-.35.62-6.18-3.41.4-.71 6.13 3.5z"/><path class="cls-1" d="M41.55 98.56s-.1.15-.19.31l-.18.31-6.07-3.6.21-.35c.1-.18.21-.35.21-.35z" transform="translate(-27.24 -67.86)"/><path class="cls-1" d="M16.02 28.11l-.42.58-5.83-3.97.47-.67 5.78 4.06zM17.88 25.62l-.45.57-5.57-4.33.51-.64 5.51 4.4zM18.87 24.43l-.47.54-5.44-4.5.54-.62 5.37 4.58zM19.88 23.26l-.47.54-5.29-4.67.54-.62 5.22 4.75zM20.95 22.13l-.49.52-5.15-4.83.57-.59 5.07 4.9zM16.66 55.89l-.02.58h-2.53l.02-.62 2.53.04zM16.69 54.64l-.02.58-2.52-.08.01-.62 2.53.12zM16.77 53.39l-.04.57-2.52-.15.04-.62 2.52.2z"/><path class="cls-1" d="M44.12 120v.58l-2.52-.23v-.61z" transform="translate(-27.24 -67.86)"/><path class="cls-1" d="M17.23 49.66l-.1.57-2.5-.39.11-.61 2.49.43zM17.45 48.43l-.1.57-2.48-.47.1-.61 2.48.51zM17.73 47.21l-.13.57-2.46-.55.14-.6 2.45.58zM18.77 43.61l-.18.55-2.41-.78.2-.58 2.39.81z"/><path class="cls-1" d="M46.43 110.3l-.11.27c-.05.13-.1.27-.1.27l-2.37-.84s0-.15.1-.29l.11-.29z" transform="translate(-27.24 -67.86)"/><path class="cls-1" d="M19.65 41.27l-.21.54-2.35-.93.22-.57 2.34.96zM20.15 40.13l-.24.52-2.32-1 .26-.56 2.3 1.04z"/><path class="cls-1" d="M47.92 106.86l-.13.26-.12.26-2.29-1.08.13-.28.14-.27zM49.72 103.57s-.08.12-.15.25l-.14.25-2.17-1.29.15-.27c.07-.13.16-.26.16-.26z" transform="translate(-27.24 -67.86)"/><path class="cls-1" d="M23.16 34.65l-.32.49-2.13-1.36.33-.52 2.12 1.39zM23.86 33.62l-.34.47-2.09-1.43.36-.5 2.07 1.46z"/><path class="cls-1" d="M51.83 100.46l-.17.23-.17.24-2-1.49.18-.25.18-.25z" transform="translate(-27.24 -67.86)"/><path class="cls-1" d="M25.36 31.61l-.36.46-1.99-1.55.38-.49 1.97 1.58zM26.98 29.7l-.38.44-1.9-1.67.41-.47 1.87 1.7z"/><path class="cls-1" d="M50.33 91l-1.1 1.15c-.17.19-.37.38-.57.61l-.66.71-.73.85-.77 1a46.8 46.8 0 00-3.36 4.89 48.6 48.6 0 00-3.05 6.08 49.27 49.27 0 00-2.09 6.43c-.24 1.06-.5 2.08-.66 3.06l-.34 1.43-.17 1.34c-.13.86-.17 1.66-.23 2.36l-.07 1v2.43h-.81v-2.47l.08-1c.05-.72.1-1.52.23-2.4l.17-1.37.26-1.45c.16-1 .42-2 .67-3.11a50.06 50.06 0 012.24-6.54 49.37 49.37 0 013.1-6.18 47.59 47.59 0 013.41-5l.78-1 .76-.82.66-.76c.2-.24.41-.43.58-.62l1.12-1.17zM46.42 124.33h.79v-1.4-.81l.11-1.51.09-.68-.78-.09-.09.7-.12 1.55V123.64zM57.34 98l-.63.67c-.2.22-.46.46-.72.77l-.9 1a38.64 38.64 0 00-4.14 6.07 38.25 38.25 0 00-2.86 6.76c-.26 1-.52 1.76-.63 2.34l-.21.89.75.16.2-.88c.11-.56.36-1.34.62-2.29a37.45 37.45 0 012.8-6.61 37.84 37.84 0 014.05-5.94l.88-1c.26-.3.51-.54.71-.75l.62-.65z" transform="translate(-27.24 -67.86)"/><path class="cls-1" d="M58.7 99.32l-.7.68c-.42.41-.92 1-1.44 1.6-.26.29-.49.61-.72.9s-.45.55-.61.79l-.57.8 2.18 1.52.52-.74c.15-.22.36-.46.57-.73s.42-.56.66-.83c.48-.54.94-1.1 1.33-1.48l.62-.66zM48.34 124.33H51v-1.65l.17-1.68.12-.94c0-.32.06-.65.13-1 .13-.64.21-1.3.37-1.89l.2-.86c.06-.28.15-.53.21-.77.14-.47.23-.87.33-1.14l.15-.43-2.52-.84-.16.46c-.11.29-.21.72-.36 1.23-.07.26-.17.53-.23.83l-.21.93c-.17.64-.26 1.35-.4 2-.07.35-.1.7-.15 1l-.13 1-.14 1.82z" transform="translate(-27.24 -67.86)"/><path class="cls-1" d="M22.05 21.03l-.52.5-4.99-4.99.59-.57 4.92 5.06zM23.17 19.96l-.52.5-4.83-5.15.59-.56 4.76 5.21zM24.34 18.94l-.54.47-4.67-5.29.62-.53 4.59 5.35z"/><path class="cls-1" d="M56.53 83.07l-.3.19-.3.2-4-5.83.34-.23.34-.22z" transform="translate(-27.24 -67.86)"/><path class="cls-1" d="M30.6 14.37l-.61.39-3.78-5.96.69-.44 3.7 6.01zM31.93 13.58l-.62.36-3.59-6.07.71-.41 3.5 6.12z"/><path class="cls-1" d="M60.53 80.69l-.32.16-.31.15-3.4-6.15.36-.2.36-.19z" transform="translate(-27.24 -67.86)"/><path class="cls-1" d="M34.67 12.12l-.64.33-3.2-6.29.73-.37 3.11 6.33zM36.08 11.46l-.65.3-3.01-6.38.74-.34 2.92 6.42zM38.95 10.27l-.67.26-2.6-6.56.76-.3 2.51 6.6zM40.41 9.74l-.68.23-2.39-6.64.77-.26 2.3 6.67z"/><path class="cls-1" d="M69.12 77.11h-.11l-.23.08-.34.11-2.18-6.71.39-.13.27-.09h.12z" transform="translate(-27.24 -67.86)"/><path class="cls-1" d="M43.37 8.82l-.68.2-1.97-6.78.79-.22 1.86 6.8zM44.88 8.44l-.7.16-1.75-6.84.8-.18 1.65 6.86zM47.92 7.81l-.71.12L45.9 1l.81-.14 1.21 6.95zM50.99 7.37l-.71.09-.87-7.01.81-.1.77 7.02zM52.54 7.22l-.72.06-.65-7.03.81-.06.56 7.03z"/><path class="cls-1" d="M81.33 75h-.69l-.44-7h.82z" transform="translate(-27.24 -67.86)"/><path class="cls-1" d="M55.63 7.08l-.71.01L54.7.04l.82-.02.11 7.06zM28.73 27.91l-.42.4-1.79-1.79.44-.43 1.77 1.82zM29.63 27.04l-.42.4-1.73-1.84.45-.42 1.7 1.86zM30.57 26.22l-.43.38-1.67-1.9.46-.4 1.64 1.92z"/><path class="cls-1" d="M58.78 93.29l-.23.18-.23.18-1.61-1.95.29-.2.24-.19z" transform="translate(-27.24 -67.86)"/><path class="cls-1" d="M33.54 23.92l-.47.33-1.49-2.04.5-.36 1.46 2.07z"/><path class="cls-1" d="M61.81 91.07l-.24.16-.24.16-1.43-2.09.25-.17.27-.13z" transform="translate(-27.24 -67.86)"/><path class="cls-1" d="M35.62 22.53l-.48.31-1.36-2.13.52-.33 1.32 2.15zM38.91 20.72l-.52.26-1.15-2.25.55-.28 1.12 2.27zM40.04 20.19l-.53.24-1.07-2.29.55-.25 1.05 2.3z"/><path class="cls-1" d="M68.42 87.55l-.27.11-.26.12-1-2.32.28-.13.28-.12z" transform="translate(-27.24 -67.86)"/><path class="cls-1" d="M42.34 19.23l-.53.21-.93-2.35.57-.23.89 2.37zM43.52 18.8l-.54.19-.86-2.38.58-.2.82 2.39zM47.12 17.76l-.56.12-.63-2.44.6-.14.59 2.46zM48.34 17.47l-.56.13-.55-2.46.6-.14.51 2.47zM49.57 17.25l-.57.1-.47-2.48.6-.11.44 2.49z"/><path class="cls-1" d="M78 84.91H77.43l-.39-2.5h.6z" transform="translate(-27.24 -67.86)"/><path class="cls-1" d="M52.04 16.89l-.57.07-.31-2.5.61-.08.27 2.51z"/><path class="cls-1" d="M81.78 84.55h-.58l-.2-2.48h.62zM83.71 77.13h-2.43l-1 .07c-.7.05-1.5.1-2.36.23l-1.34.17-1.43.25c-1 .15-2 .42-3.06.66a49.28 49.28 0 00-6.46 2.15 48.6 48.6 0 00-6.08 3.05 46.83 46.83 0 00-4.89 3.36l-1 .77-.85.73-.75.65c-.23.2-.43.4-.61.57L50.33 91l-.56-.56 1.17-1.12c.19-.18.39-.38.62-.58l.77-.74.87-.75 1-.78a47.62 47.62 0 015-3.41A49.4 49.4 0 0165.34 80a50.06 50.06 0 016.56-2.18c1.1-.25 2.1-.52 3.1-.68l1.45-.26 1.37-.17c.87-.13 1.68-.18 2.4-.23l1-.08h2.47v.79z" transform="translate(-27.24 -67.86)"/><path class="cls-1" d="M83.71 80.92h-2.24l-.91.07c-.65 0-1.38.09-2.17.21l-1.24.16-1.31.23c-.9.2-1.84.41-2.84.66a45.49 45.49 0 00-5.93 2A44.8 44.8 0 0061.51 87 43 43 0 0057 90.12l-.9.71-.78.68-.69.6c-.21.18-.39.37-.56.53l-1.06 1-1.88-1.88 1.12-1.07c.18-.17.37-.36.6-.56l.73-.63.83-.72 1-.75a45.67 45.67 0 014.77-3.28 47.45 47.45 0 015.93-3 48.14 48.14 0 016.3-2.09c1-.23 2-.49 3-.64l1.39-.25 1.31-.17c.84-.12 1.62-.17 2.3-.22l1-.07h2.37v2.66zM57.34 98l.56.56.5-.56c.31-.28.68-.68 1.11-1s.83-.73 1.15-1l.54-.43-.48-.57-.55.43c-.33.26-.75.64-1.18 1s-.82.77-1.14 1.05zM83.71 87h-1.98l-1.37.11a37.88 37.88 0 00-7.21 1.37 36.43 36.43 0 00-6.8 2.76c-.45.22-.84.46-1.2.66s-.67.37-.91.53l-.77.5.43.66.76-.49c.24-.16.55-.32.89-.52s.73-.44 1.17-.65a35.63 35.63 0 016.65-2.7A37.08 37.08 0 0180.43 88l1.34-.1h1.9V87z" transform="translate(-27.24 -67.86)"/><path class="cls-1" d="M83.71 89h-2l-1.15.09h-.58l-.56.07-1 .12c-.29 0-.53.09-.7.12h-.26l.46 2.62h.24c.16 0 .38-.08.64-.11l.92-.11.52-.07h.54l1.06-.08h1.84V89zM58.7 99.32l1.88 1.88 1.19-1.13c.38-.32.8-.71 1.28-1.1l.75-.59.38-.3.4-.28.8-.57.8-.51c.51-.35 1-.62 1.44-.87.21-.12.41-.24.58-.33l.46-.23.4-.21-1.17-2.38-.43.22-.5.25c-.19.1-.4.23-.63.36-.46.27-1 .56-1.56.94l-.87.53-.9.65-.4.35-.42.33-.81.63c-.52.42-1 .84-1.38 1.19z" transform="translate(-27.24 -67.86)"/><path class="cls-1" d="M57.18 7.07l-.71-.01V0l.81.02-.1 7.05zM58.73 7.11l-.71-.02.21-7.05.82.02-.32 7.05zM60.28 7.22l-.71-.06L60 .12l.82.06-.54 7.04zM66.43 8.06l-.71-.13L67.04 1l.8.15-1.41 6.91zM67.94 8.41l-.7-.16 1.54-6.89.79.18-1.63 6.87z"/><path class="cls-1" d="M96.69 76.66l-.34-.1-.35-.1 1.75-6.84.4.11.39.11z" transform="translate(-27.24 -67.86)"/><path class="cls-1" d="M70.94 9.22l-.69-.2 1.97-6.78.78.23-2.06 6.75zM72.42 9.7l-.68-.23 2.18-6.71.77.26-2.27 6.68z"/><path class="cls-1" d="M101.12 78.09l-.33-.09-.34-.12 2.39-6.64.39.14.38.15z" transform="translate(-27.24 -67.86)"/><path class="cls-1" d="M76.75 11.41l-.66-.29 2.81-6.48.75.34-2.9 6.43z"/><path class="cls-1" d="M105.4 79.93l-.32-.16-.33-.15 3-6.38.37.17.37.18z" transform="translate(-27.24 -67.86)"/><path class="cls-1" d="M79.54 12.77l-.64-.32 3.21-6.29.73.38-3.3 6.23zM80.9 13.52l-.62-.35 3.4-6.18.71.4-3.49 6.13z"/><path class="cls-1" d="M109.48 82.17l-.31-.17-.31-.18 3.6-6.07.35.21.35.21z" transform="translate(-27.24 -67.86)"/><path class="cls-1" d="M84.83 16.02l-.59-.42 3.98-5.83.66.47-4.05 5.78zM87.31 17.88l-.56-.45 4.33-5.57.64.51-4.41 5.51zM88.51 18.87l-.54-.47 4.5-5.44.62.54-4.58 5.37zM89.68 19.88l-.54-.47 4.67-5.29.61.54-4.74 5.22zM90.8 20.95l-.52-.49 4.84-5.15.59.57-4.91 5.07zM57.05 16.66l-.58-.02v-2.53l.61.02-.03 2.53zM58.3 16.69l-.58-.02.08-2.52.61.01-.11 2.53zM59.55 16.77l-.58-.04.16-2.52.61.04-.19 2.52z"/><path class="cls-1" d="M88 84.74h-.58l.24-2.52h.61z" transform="translate(-27.24 -67.86)"/><path class="cls-1" d="M63.27 17.23l-.57-.1.4-2.5.6.11-.43 2.49zM64.5 17.45l-.56-.1.47-2.48.6.1-.51 2.48zM65.72 17.73l-.56-.13.55-2.46.6.14-.59 2.45zM69.32 18.77l-.54-.18.78-2.41.58.2-.82 2.39z"/><path class="cls-1" d="M97.74 87.06l-.27-.11-.27-.1.86-2.38.29.1.29.11z" transform="translate(-27.24 -67.86)"/><path class="cls-1" d="M71.66 19.65l-.53-.21.93-2.35.57.22-.97 2.34zM72.81 20.15l-.53-.24 1.01-2.32.56.26-1.04 2.3z"/><path class="cls-1" d="M101.18 88.54l-.26-.13-.26-.12 1.08-2.29.26.13.27.14zM104.47 90.34l-.25-.15-.22-.14 1.29-2.17.24.12.26.16z" transform="translate(-27.24 -67.86)"/><path class="cls-1" d="M78.29 23.16l-.49-.32 1.36-2.13.51.33-1.38 2.12zM79.32 23.86l-.47-.34 1.42-2.09.5.36-1.45 2.07z"/><path class="cls-1" d="M107.58 92.45l-.23-.17-.24-.17 1.49-2 .25.18.25.18z" transform="translate(-27.24 -67.86)"/><path class="cls-1" d="M81.32 25.36l-.45-.36 1.55-1.99.48.38-1.58 1.97zM83.23 26.98l-.43-.38 1.67-1.9.46.41-1.7 1.87z"/><path class="cls-1" d="M117.08 91l-1.15-1.1c-.19-.17-.38-.37-.61-.57l-.75-.65-.85-.73-1-.77a46.82 46.82 0 00-4.89-3.36 48.6 48.6 0 00-6.08-3.05 49.29 49.29 0 00-6.46-2.15c-1.06-.24-2.08-.5-3.06-.66l-1.43-.25-1.34-.17c-.86-.13-1.66-.17-2.36-.23l-1-.07h-2.43v-.9h2.47l1 .08c.72.05 1.52.1 2.4.23l1.37.17 1.45.26c1 .16 2 .42 3.11.67a50.06 50.06 0 016.61 2.25 49.4 49.4 0 016.18 3.1 47.61 47.61 0 015 3.41l1 .78.83.71.76.66c.24.2.43.41.62.58l1.17 1.12z" transform="translate(-27.24 -67.86)"/><path class="cls-1" d="M114.4 93.64l-1.06-1c-.17-.16-.35-.34-.56-.53l-.69-.6-.78-.68-.9-.71a43 43 0 00-4.5-3.09 44.8 44.8 0 00-5.59-2.81 45.5 45.5 0 00-5.93-2c-1-.22-1.91-.46-2.81-.6l-1.31-.23-1.27-.13c-.79-.12-1.52-.16-2.17-.21l-.88-.05h-2.24v-2.73h2.37l1 .07c.69.05 1.46.1 2.3.22l1.31.17 1.36.27c1 .15 2 .41 3 .64a48.13 48.13 0 016.3 2.09 47.46 47.46 0 015.93 3A45.67 45.67 0 01112 88l1 .75.83.72.73.63c.23.19.42.39.6.56l1.12 1.07zM83.71 87v.79h2.21l1.51.21.68.09.09-.78-.7-.09-1.5-.1H84.45zM110.08 98l-.67-.63c-.22-.2-.46-.46-.77-.72l-1-.9a38.63 38.63 0 00-6.07-4.14 38.24 38.24 0 00-6.76-2.86c-1-.26-1.76-.52-2.34-.63l-.89-.21-.16.77.88.2c.56.11 1.34.36 2.29.62a37.45 37.45 0 016.61 2.8 37.84 37.84 0 015.94 4.05l1 .88c.3.26.54.51.75.71l.65.62zM83.71 89v2.66h1.65l1.64.13 1 .12c.32 0 .65.06 1 .13.64.13 1.3.21 1.89.37l.86.2c.28.06.53.15.76.21.47.14.87.23 1.14.33l.35.15.84-2.52-.46-.16c-.29-.11-.72-.21-1.23-.36-.26-.07-.53-.17-.83-.23l-.93-.21c-.64-.17-1.35-.26-2-.4-.35-.07-.7-.1-1-.15l-1-.13-1.9-.14z" transform="translate(-27.24 -67.86)"/><path class="cls-1" d="M91.9 22.05l-.49-.52 4.99-4.99.56.59-5.06 4.92zM92.97 23.17l-.49-.52 5.14-4.83.56.59-5.21 4.76zM93.99 24.34l-.47-.54 5.29-4.67.54.62-5.36 4.59z"/><path class="cls-1" d="M125 97.15l-.19-.3c-.09-.15-.2-.3-.2-.3l5.83-4s.12.17.23.34l.22.34z" transform="translate(-27.24 -67.86)"/><path class="cls-1" d="M98.56 30.6l-.38-.61 5.95-3.78.44.69-6.01 3.7zM99.35 31.93l-.36-.62 6.07-3.59.41.71-6.12 3.5z"/><path class="cls-1" d="M127.35 101.16l-.16-.32-.18-.31 6.18-3.4.2.36.19.36z" transform="translate(-27.24 -67.86)"/><path class="cls-1" d="M100.81 34.67l-.32-.64 6.28-3.2.38.73-6.34 3.11zM101.47 36.08l-.29-.65 6.38-3.01.34.74-6.43 2.92zM102.67 38.95l-.26-.67 6.56-2.6.3.76-6.6 2.51zM103.19 40.41l-.23-.68 6.64-2.39.27.77-6.68 2.3z"/><path class="cls-1" d="M130.93 109.74v-.11l-.08-.23-.11-.34 6.71-2.18.13.39.09.27v.12z" transform="translate(-27.24 -67.86)"/><path class="cls-1" d="M104.11 43.37l-.19-.68 6.77-1.97.23.79-6.81 1.86zM104.5 44.88l-.16-.7 6.83-1.75.19.8-6.86 1.65zM105.13 47.92l-.13-.71 6.93-1.31.15.81-6.95 1.21zM105.57 50.99l-.09-.71 7-.87.1.81-7.01.77zM105.71 52.54l-.05-.72 7.02-.65.07.81-7.04.56z"/><path class="cls-1" d="M133.06 121.95v-.72l7-.44v.82z" transform="translate(-27.24 -67.86)"/><path class="cls-1" d="M105.86 55.63l-.02-.71 7.05-.22.03.82-7.06.11zM85.03 28.73l-.4-.42 1.79-1.79.42.44-1.81 1.77zM85.89 29.63l-.4-.42 1.84-1.73.43.45-1.87 1.7zM86.71 30.57l-.37-.43 1.89-1.67.4.46-1.92 1.64z"/><path class="cls-1" d="M114.76 99.4l-.18-.23-.18-.23 1.95-1.61.19.24.19.24z" transform="translate(-27.24 -67.86)"/><path class="cls-1" d="M89.02 33.54l-.33-.47 2.04-1.49.35.5-2.06 1.46z"/><path class="cls-1" d="M117 102.43l-.16-.24-.16-.24 2.09-1.42s.09.12.17.25l.17.26z" transform="translate(-27.24 -67.86)"/><path class="cls-1" d="M90.4 35.62l-.31-.48 2.13-1.36.34.52-2.16 1.32zM92.22 38.91l-.27-.52 2.25-1.15.28.55-2.26 1.12zM92.75 40.04l-.24-.53 2.29-1.07.25.55-2.3 1.05z"/><path class="cls-1" d="M120.49 109s0-.14-.11-.27l-.12-.26 2.32-1 .13.28.12.28z" transform="translate(-27.24 -67.86)"/><path class="cls-1" d="M93.71 42.34l-.21-.53 2.35-.93.22.57-2.36.89zM94.13 43.52l-.18-.54 2.38-.86.19.58-2.39.82zM95.18 47.12l-.13-.56 2.45-.63.14.6-2.46.59zM95.46 48.34l-.13-.56 2.47-.55.14.6-2.48.51zM95.69 49.57l-.11-.57 2.49-.47.11.6-2.49.44z"/><path class="cls-1" d="M123.13 118.67v-.29a2.86 2.86 0 000-.29l2.5-.39v.6z" transform="translate(-27.24 -67.86)"/><path class="cls-1" d="M96.04 52.04l-.07-.57 2.51-.31.08.61-2.52.27z"/><path class="cls-1" d="M123.49 122.4v-.58l2.52-.16v.62zM130.91 124.33v-2.43l-.07-1c-.05-.7-.1-1.5-.23-2.36l-.17-1.34-.25-1.43c-.15-1-.42-2-.66-3.06a49.26 49.26 0 00-2.15-6.46 48.59 48.59 0 00-3.05-6.08 46.83 46.83 0 00-3.36-4.89l-.77-1-.73-.85-.65-.75c-.2-.23-.4-.43-.57-.61L117.08 91l.56-.56 1.12 1.17c.18.19.38.39.58.62l.66.77.75.86.78 1a47.61 47.61 0 013.41 5A49.39 49.39 0 01128 106a50.06 50.06 0 012.18 6.56c.24 1.08.51 2.11.67 3.11l.25 1.45.17 1.37c.13.87.18 1.68.23 2.4l.08 1v2.47h-.79z" transform="translate(-27.24 -67.86)"/><path class="cls-1" d="M127.12 124.33v-2.24l-.07-.91c0-.65-.09-1.38-.21-2.17l-.16-1.24-.23-1.31c-.14-.91-.39-1.84-.6-2.81a45.47 45.47 0 00-2-5.93 44.82 44.82 0 00-2.81-5.59 43 43 0 00-3.09-4.5l-.71-.9-.7-.73-.6-.69c-.18-.21-.37-.39-.53-.56l-1-1.06 1.88-1.88 1.07 1.12c.17.18.37.37.56.6l.63.73.71.74.74 1a45.68 45.68 0 013.28 4.77 47.48 47.48 0 013 5.93 48.16 48.16 0 012.09 6.3c.23 1 .49 2 .64 3l.25 1.39.17 1.31c.12.84.17 1.62.22 2.3l.07 1v2.37h-2.66zM110.08 98l-.56.56.48.44c.28.31.68.68 1 1.11s.73.83 1 1.15l.43.54.62-.49-.43-.55c-.26-.33-.64-.75-1-1.18s-.77-.82-1.05-1.14zM121 124.33v-1.98l-.16-1.35a37.87 37.87 0 00-1.37-7.21 36.43 36.43 0 00-2.76-6.8c-.22-.45-.46-.84-.66-1.2s-.37-.67-.53-.91l-.5-.77-.66.43.49.76c.16.24.32.55.52.89s.44.73.65 1.17a35.64 35.64 0 012.7 6.65 37.08 37.08 0 011.34 7.06l.1 1.34v1.9h.84z" transform="translate(-27.24 -67.86)"/><path class="cls-1" d="M119.08 124.33v-1-1l-.09-1.15v-.58l-.07-.56-.12-1c0-.29-.09-.53-.12-.7v-.26l-2.62.46v.24c0 .16.08.38.11.64l.11.92.07.52v.54l.08 1.06v1.84h2.66z" transform="translate(-27.24 -67.86)"/></svg>