<svg preserveAspectRatio="none" id="Layer_1" data-name="Layer 1" xmlns="http://www.w3.org/2000/svg" viewBox="0 0 58.47 56.04"><defs><style>.cls-1{fill:#08ade5}.cls-2{fill:#065977}.cls-4{opacity:.1}.cls-5{fill:#feb113}.cls-6{opacity:.2}.cls-7{opacity:.3}.cls-8{opacity:.4}.cls-9{opacity:.5}.cls-10{opacity:.6}.cls-11{opacity:.7}.cls-12{opacity:.8}.cls-13{opacity:.9}</style></defs><path class="cls-1" d="M111.06 248.32v-.05-.89V246.69l-.1-.75v-.05l-.08-.45-.05-.3v-.19l-.07-.3v-.05l-.13-.59-.06-.2-.12-.42-.09-.31-.1-.31v-.23l-.13-.37-.24-.6c0-.1-.07-.2-.12-.3l-.13-.29c-.09-.19-.17-.39-.26-.58l-.15-.29-.15-.3-.15-.28a16.46 16.46 0 00-1.18-1.86c-.39-.55-.76-1-1.06-1.36l-.19-.22-.06-.07-.12-.14-.11-.12-.41-.43a19.68 19.68 0 00-2.37-2l-.41-.29-.16-.12-.14-.09-.26-.17-.39.61.25.16.14.09.16.11.39.28a18.86 18.86 0 012.28 2l.12.12-1.71 1.65.12.13.15.15.09.1.1.12a15.71 15.71 0 011.1 1.38c.22.29.42.63.65 1l.09.44c.06.09.11.19.16.29l.15.3a16.23 16.23 0 011 2.65c.14.46.25.94.35 1.41l.12.7q0 .35.09.69a18.17 18.17 0 01.08 2.51v1c0 .29-.07.55-.1.76-.08.42-.12.66-.12.66l2.33.46v.17c-.07.3-.13.59-.2.87l-.22.77c-.08.24-.16.46-.22.67s-.06.2-.1.3l-.11.27-.18.45c-.05.13-.11.24-.14.33l-.12.27.66.3.13-.28c0-.09.1-.2.15-.34l.18-.47.11-.28c0-.1.07-.2.11-.31s.15-.45.23-.7l.23-.8c.07-.29.14-.59.21-.9v-.18l.13-.74v-.14c0-.14 0-.29.06-.46s0-.25 0-.38v-.17-.68-.32-.41c.1-.33.1-.64.09-.95z" transform="translate(-61.32 -219.01)"/><path class="cls-2" d="M80 262.92v.08l.17.14.28.22.18.14.21.16a19 19 0 002.55 1.58l.42.22.45.2.23.11.12.05h.12l.53.18.25.1.26.09.52.18.54.16.28.08h.28a18.49 18.49 0 004.83.54h1.86l.61-.08.6-.11.3-.05.29-.07.58-.13.56-.16.28-.08.27-.09.54-.18.26-.1.26-.1.5-.2.48-.22.23-.1.23-.11.44-.22.21-.11.2-.12c.27-.16.53-.3.77-.46l.35-.22.17-.11.16-.11.58-.41.47-.37.2-.16.17-.15.27-.23.23-.19.49.54-.23.2-.28.24-.18.15-.21.16-.49.39-.6.43-.16.12-.17.11-.36.23c-.24.17-.52.31-.8.47l-.21.12-.22.12-.46.23-.23.12-.24.11-.5.23-.52.21-.27.11-.27.1-.56.19-.28.09-.29.08-.59.17-.6.14-.3.07-.31.05-.62.11-.63.08h-.64l-.64.05h-.65a19.24 19.24 0 01-5-.56H86.98l-.29-.08-.56-.16-.55-.19-.27-.09-.31-.15-.51-.2h-.12l-.12-.05-.25-.16-.47-.21-.44-.23a19.7 19.7 0 01-2.65-1.64l-.21-.16-.23-.15-.29-.23-.18-.14-.06-.05zM91.73 230.26h-1.04l-.74.06-.87.11-1 .18-.5.12c-.17 0-.34.07-.51.13-.34.1-.69.19-1 .31l-.51.17-.5.2c-.33.12-.65.28-1 .41l-.23.1-.22.11-.43.22c-.14.07-.27.15-.4.22l-.37.21-.33.21-.3.19-.26.17-.21.15-.41.29-.43-.58.42-.3.22-.16.27-.17.31-.2.35-.21.38-.22c.13-.07.27-.16.41-.23l.44-.23.23-.12.24-.11c.32-.14.65-.3 1-.43l.52-.21.54-.18c.35-.13.72-.22 1.08-.32.18-.06.36-.09.53-.13l.52-.12 1-.18.91-.11.77-.06h1.11v.73z" transform="translate(-61.32 -219.01)"/><path class="cls-2" d="M69.35 257.67l.18.46.24.54.16.33c.05.12.11.25.18.38a23.37 23.37 0 002.64 4.21 23.66 23.66 0 002.25 2.49l.65.62.69.6.18.15.18.14.3.3.38.29.39.28c.26.19.52.38.8.55l.43.26c.14.09.28.18.42.26l.88.47.9.46A24.56 24.56 0 0085 272l.5.14.25.07.25.03 1 .23 1 .18.5.07.5.06c.33 0 .67.07 1 .09h3a26 26 0 003.68-.45l.85-.19.42-.1.4-.11.79-.23.75-.25.36-.12.35-.14.67-.27.63-.28.3-.14.29-.14.54-.28.26-.13.24-.13.86-.5.68-.43c.2-.13.37-.23.49-.33l.4-.29 2.17 3 .28-.2c.18-.13.44-.33.77-.59l.54-.43.61-.53.34-.29.34-.33.36-.34c.12-.12.25-.23.37-.37a28.11 28.11 0 005.82-8.61 27.62 27.62 0 001.68-5.32 28.2 28.2 0 00.57-4.83V249v-1.42-.81l-.05-.69v-.55l-.05-.41v-.34l-3.94.54V251.54c0 .34-.08.63-.11.83l-.06.31-1.46-.25-.05.28c0 .18-.07.43-.15.74l-.11.49-.06.27c0 .09-.05.18-.08.28l-.16.58-.09.3-.1.29-.2.58v.14l-.06.14-.11.27-.2.52c-.07.17-.14.32-.2.46s-.23.52-.31.68l-.13.25-.78-.39-.09.18c-.06.11-.14.29-.26.5l-.44.76-.14.22-.15.23-.32.5-.38.53-.2.28-.22.28-.45.58-.5.58c-.17.2-.35.39-.54.58s-.37.39-.57.58l-.6.57-.63.55a23.72 23.72 0 01-2.65 1.9c-.45.26-.88.52-1.31.73l-.31.16-.31.15-.59.27-.28.12-.27.11-.5.2-.45.16-.38.13-.31.1-.23.07-.19.05.24.83-.36.1-.2.06-.24.06-.59.14a22.12 22.12 0 01-3.72.51 22.67 22.67 0 01-5.3-.35l-.36-.06-.55.03-.73-.17-.73-.2-.37-.1-.36-.12-.73-.25-.72-.28-.36-.15-.35-.16-.35-.16-.3-.17-.69-.35-.17-.09-.14-.1-.34-.19-.38-.21-.33-.2-.65-.41-.62-.39-.31-.22-.3-.23-.57-.55-.56-.48c-.19-.15-.36-.33-.53-.49s-.35-.32-.51-.49l-.48-.5-.23-.25-.19-.23-.43-.5-.4-.5-.19-.25-.1-.12-.09-.12-.35-.49a23.05 23.05 0 01-1.89-3.25l-.25-.55c-.07-.16-.14-.3-.18-.41L71 257z" transform="translate(-61.32 -219.01)"/><path d="M114.94 234.2l-.26-.41-.17-.26-.2-.29-.47-.66-.13-.18-.15-.19-.31-.39-.33-.42-.37-.43c-.25-.29-.51-.6-.81-.9a27.6 27.6 0 00-4.35-3.76 27 27 0 00-5.83-3.08l-.39-.15-.4-.14-.8-.27-.81-.23c-.27-.08-.54-.16-.81-.21l-.81-.19h-.4l-.4-.07-.8-.14-.79-.1a27.41 27.41 0 00-5.74-.09h-.61l-.59.07-.56.07-.52.09-.49.09-.45.09-.79.18-.34.08-.3.08-.47.13-.39.11-1.08-3.63h-.09l-.27.09-1 .34c-.22.07-.46.17-.72.27l-.84.33c-.3.12-.61.27-.94.42l-.51.23-.52.26a30.52 30.52 0 00-4.61 2.84l-1.19.93-1.17 1c-.38.36-.76.72-1.13 1.09l-.55.57-.28.33-.14.14-.13.15a31.33 31.33 0 00-3.66 5 30.87 30.87 0 00-2.33 4.89c-.08.18-.13.37-.2.55l-.18.53-.17.5c-.05.16-.1.32-.14.48l-.25.87c0 .13-.07.26-.1.39l-.08.36c-.1.45-.19.81-.23 1l-.07.37 3.72.7-.14.78c0 .12 0 .25-.06.38l-.05.43-.06.46v.47l-.07.93v1.71h1v.52c0 .34 0 .83.07 1.45a25.69 25.69 0 00.89 5.12c.07.26.15.52.23.79l.15.77c0 .14.09.28.14.42l.16.42.17.42c.06.14.11.29.18.42l.41.88.1.22.11.21.22.43.22.43.29.41.25.43c.08.14.17.29.26.43l.49.86.6.84.15.21.16.21.32.41.33.41.35.4a25.68 25.68 0 003 3 27.19 27.19 0 003.49 2.47 25.38 25.38 0 003.72 1.83c.62.26 1.25.46 1.87.67s1.23.36 1.84.49l.45.1.22.05h.22l.87.16h.42l.42.05.41.05h.41a27.7 27.7 0 005.19 0l.83-.1.61-.08.51-.09-.13-.71-.49.09-.6.08-.81.1a26.93 26.93 0 01-5.05 0h-.39l-.4-.05-.41-.05-.11.04h-.21l-.85-.15h-.44l-.44-.1c-.59-.12-1.18-.31-1.78-.48s-1.21-.4-1.82-.65a24.65 24.65 0 01-3.62-1.77 26.48 26.48 0 01-3.4-2.41 24.92 24.92 0 01-3-2.93l-.31-.51-.32-.4-.31-.4-.16-.2-.15-.21-.58-.79-.53-.83c-.09-.14-.17-.28-.25-.42l-.24-.42-.24-.42-.22-.42-.21-.42-.11-.21-.1-.21-.38-.83c-.06-.14-.11-.28-.17-.41L68 258l-.16-.4c-.05-.13-.09-.27-.14-.4l-.27-.79c-.08-.26-.15-.52-.22-.77a24.92 24.92 0 01-.87-5c-.06-.61-.06-1.09-.07-1.42s0-.5 0-.5h2.09v-1.13-1.26-.29l.08-.62v-.33l.06-.34.12-.7c0-.24.11-.48.16-.72.1-.49.26-1 .4-1.5 0-.13.08-.25.12-.38l.13-.38.13-.38c0-.13.1-.25.15-.38l.3-.75.33-.73c.06-.12.11-.24.17-.36l.18-.35c.12-.23.23-.46.35-.68l.37-.64.18-.31.19-.3.36-.57.36-.51.34-.47.32-.41c.2-.26.37-.48.53-.66l.48-.56 1.41 1.27s.08-.09.24-.26l.29-.3.18-.19.1-.11.11-.11.51-.48.14-.13.15-.13.32-.28.35-.3.38-.3.4-.31.43-.31.45-.32.49-.31c.32-.22.68-.41 1-.62.18-.11.37-.2.56-.3l.58-.3.6-.27.31-.14.31-.13.64-.25.66-.23.33-.11.34-.1.68-.19.7-.16.35-.08.35-.07.71-.13.72-.09a21.76 21.76 0 015.68 0h.34l.33.06.65.12.63.15c.21 0 .41.09.61.15l.8.25.29.08.28.1.55.18h.13l.13.05.26.1.5.2.24.1.23.1c.3.14.59.26.85.4l.73.38.61.35.26.15.22.14.35.22.22.14h.07l1.06-1.57.35.25c.22.16.55.38.92.68a22.51 22.51 0 012.57 2.32l.33.34.16.17.15.18.3.35c.1.12.2.23.29.34l.53.67c.09.1.16.21.23.32l.21.3.2.28.09.13.08.12.27.42.23.37 3.23-2zM82 225.14l-.18.07-.67.3-.48.22-.55.28-.31.16-.16.08-.16.09-.68.39c-.24.13-.48.29-.72.45l-.38.24-.19.13-.19.13-.78.56-.79.62a26.29 26.29 0 00-3.08 3 24.76 24.76 0 00-2.55 3.43l-.14.21-.13.22-.25.43-.24.42-.22.42-.21.41c-.07.14-.14.27-.2.4l-.35.78c-.12.25-.21.49-.3.72l-.26.66-.36 1.04c-.05.15-.09.29-.12.41l-.09.3-.07.25-3.19-.84.08-.28.1-.34c0-.13.08-.29.14-.46.11-.34.25-.76.42-1.23l.29-.74c.11-.26.21-.54.34-.82l.4-.88c.07-.15.15-.3.22-.45l.24-.47.25-.48.27-.48.25-.49.14-.25.15-.24a28.06 28.06 0 012.88-3.86 29.57 29.57 0 013.48-3.33l.89-.7.88-.63.21-.15.22-.14.43-.27c.28-.18.55-.36.82-.51l.77-.44.18-.1.18-.09.34-.18.63-.32.54-.25.76-.34.2-.08h.07l1.26 3z" transform="translate(-61.32 -219.01)" fill="#00b3ea"/><path class="cls-1" d="M45.47 30.34v-.16M16.53 30.18v.16"/><g class="cls-4"><path class="cls-5" d="M18.43 40.75l.25.27-1.82 1.82-.3-.31 1.87-1.78z"/></g><g class="cls-6"><path class="cls-5" d="M17.87 40.14l.24.28-1.91 1.73-.28-.33 1.95-1.68z"/></g><g class="cls-7"><path class="cls-5" d="M17.35 39.5l.22.29-2 1.63-.26-.34 2.04-1.58z"/></g><g class="cls-8"><path class="cls-5" d="M16.86 38.83l.21.3-2.09 1.53-.24-.35 2.12-1.48z"/></g><g class="cls-9"><path class="cls-5" d="M16.4 38.14l.2.31-2.16 1.42-.23-.36 2.19-1.37z"/></g><g class="cls-10"><path class="cls-5" d="M15.98 37.43l.18.32-2.23 1.3-.21-.37 2.26-1.25z"/></g><g class="cls-11"><path class="cls-5" d="M15.6 36.7l.17.33-2.3 1.18-.19-.38 2.32-1.13z"/></g><g class="cls-12"><path class="cls-5" d="M15.26 35.94l.15.34-2.36 1.06-.17-.39 2.38-1.01z"/></g><g class="cls-13"><path class="cls-5" d="M14.96 35.17l.13.35-2.41.94-.15-.4 2.43-.89z"/></g><path class="cls-5" d="M14.7 34.39l.11.35-2.45.82-.14-.41 2.48-.76zM14.47 33.59l.1.36-2.49.69-.11-.42 2.5-.63zM14.29 32.79l.08.36-2.52.55-.09-.42 2.53-.49zM14.15 31.97l.06.37-2.54.42-.07-.42 2.55-.37z"/><path class="cls-5" d="M75.38 250.16v.36l-2.57.29v-.21-.21zM75.32 249.33v.37l-2.58.16v-.21-.21zM75.31 248.51v.37h-2.58v-.43zM75.34 247.68v.36l-2.58-.1v-.42zM75.42 246.86v.36L72.8 247v-.42z" transform="translate(-61.32 -219.01)"/><path class="cls-5" d="M14.21 27.03l-.06.36-2.55-.37.07-.42 2.54.43zM14.37 26.22l-.08.36-2.53-.5.09-.42 2.52.56zM14.57 25.41l-.1.36-2.5-.63.11-.41 2.49.68zM14.81 24.62l-.11.35-2.48-.75.14-.41 2.45.81z"/><g class="cls-13"><path class="cls-5" d="M15.09 23.84l-.13.35-2.43-.88.15-.4 2.41.93z"/></g><g class="cls-12"><path class="cls-5" d="M15.41 23.08l-.15.34-2.38-1.01.17-.39 2.36 1.06z"/></g><g class="cls-11"><path class="cls-5" d="M15.77 22.34l-.17.33-2.32-1.13.19-.39 2.3 1.19z"/></g><g class="cls-10"><path class="cls-5" d="M16.16 21.61l-.18.33-2.26-1.25.21-.38 2.23 1.3z"/></g><g class="cls-9"><path class="cls-5" d="M16.6 20.91l-.2.31-2.19-1.36.23-.37 2.16 1.42z"/></g><g class="cls-8"><path class="cls-5" d="M17.07 20.23l-.21.3-2.12-1.47.24-.36 2.09 1.53z"/></g><g class="cls-7"><path class="cls-5" d="M17.57 19.57l-.22.3-2.04-1.59.26-.34 2 1.63z"/></g><g class="cls-6"><path class="cls-5" d="M18.11 18.95l-.24.28-1.95-1.69.28-.33 1.91 1.74z"/></g><g class="cls-4"><path class="cls-5" d="M18.68 18.35l-.25.26-1.87-1.78.3-.31 1.82 1.83z"/></g></svg>