<svg preserveAspectRatio="none" id="Layer_1" data-name="Layer 1" xmlns="http://www.w3.org/2000/svg" viewBox="0 0 1220.68 1210.37"><defs><style>.cls-1{fill:none}.cls-2{fill:#20ffff}</style></defs><path class="cls-1" d="M4551.85 4218.63a533.41 533.41 0 0030.53-100.77 541.57 541.57 0 000-209.88 535.69 535.69 0 00-137.43-265.13 542.31 542.31 0 00-99.66-82.43l-.34-.22q-2.85-1.83-5.73-3.63l-.85-.53q-2.66-1.66-5.35-3.28l-1.09-.67q-2.87-1.73-5.76-3.42l-3.81-2.2-2.48-1.42q-2.24-1.27-4.49-2.51l-1.41-.79q-2.47-1.36-5-2.69l-.84-.45q-2.73-1.46-5.48-2.89h-.05q-20.46-10.64-41.79-19.48a533.19 533.19 0 00-66.24-22.49l-2.49-.67-.57-.15q-3.44-.9-6.9-1.75-3.68-.91-7.37-1.77-3.69-.85-7.38-1.66h-.06q-3.69-.8-7.39-1.55h-.08q-10.93-2.21-21.95-4l-4.84-.74-1.62-.25q-9.62-1.41-19.29-2.48l-.5-.05q-3-.32-5.91-.61l-3.05-.28-3.52-.32a551.61 551.61 0 00-99 .55l-2.39.24q-23.42 2.38-46.55 6.79l-3.68.71-1.24.25q-3.15.63-6.29 1.3l-.54.12q-3.45.74-6.89 1.53l-.42.1q-3.5.8-7 1.65l-.36.09q-3.52.86-7 1.77l-.3.08q-3.54.92-7.06 1.88l-.26.07q-3.57 1-7.13 2-2.83.82-5.65 1.67l-.79.23q-22 6.66-43.33 15.19l-.21.08-2.8 1.14c-1.5.61-3 1.22-4.5 1.85l-1 .43q-10.23 4.31-20.29 9c-1.8.83-3.58 1.69-5.36 2.55l-2.05 1c-6 2.93-11.9 6-17.79 9.11q-2.78 1.49-5.54 3l-3.19 1.79-1.51.84q-3.36 1.9-6.7 3.84l-4.77 2.82q-3.21 1.91-6.39 3.87l-.37.23q-2.88 1.77-5.73 3.58a540.93 540.93 0 00-47.69 34l-.83.66q-1.87 1.5-3.73 3l-2.42 2-2.5 2.08q-2.2 1.84-4.38 3.7l-.68.58a543.08 543.08 0 00-91.54 101.31l-.42.61q-1.81 2.6-3.59 5.23l-.8 1.18q-1.63 2.42-3.22 4.85l-.91 1.38q-1.94 3-3.83 6a536.56 536.56 0 00-31.5 57l-.54 1.14q-1.1 2.32-2.17 4.66l-.88 1.92q-1 2.12-1.92 4.25l-1 2.32c-.6 1.36-1.19 2.72-1.78 4.08l-.92 2.17c-.6 1.42-1.2 2.83-1.79 4.26s-1.16 2.83-1.73 4.24c-.26.64-.53 1.28-.78 1.92-.35.89-.7 1.78-1 2.67-.55 1.39-1.09 2.77-1.63 4.16-.31.81-.61 1.61-.92 2.42q-.84 2.23-1.67 4.47l-.83 2.27q-.85 2.35-1.69 4.72l-.73 2.08q-.88 2.53-1.74 5.08l-.6 1.77q-1 2.93-1.92 5.88l-.32 1q-2.21 7-4.23 14l-.6 2.12q-.66 2.33-1.31 4.67c-.26 1-.52 1.93-.78 2.9q-.52 1.94-1 3.88-.43 1.67-.86 3.35t-.83 3.33q-.47 1.89-.92 3.79c-.21.88-.41 1.76-.62 2.65-.34 1.47-.69 2.95-1 4.42l-.19.87q-1.35 6.06-2.55 12.14-.62 3.16-1.21 6.32v.19q-.53 2.85-1 5.71l-.21 1.18q-.45 2.65-.88 5.3l-.26 1.66q-.39 2.48-.76 5c-.11.78-.23 1.55-.34 2.33-.21 1.44-.41 2.88-.61 4.32q-.35 2.6-.67 5.2c-.06.48-.13 1-.19 1.45q-.46 3.73-.86 7.46-.39 3.51-.73 7c-.09.93-.17 1.86-.25 2.79l-.34 3.81q-.18 2.14-.34 4.29l-.18 2.43q-.17 2.33-.31 4.66c0 .77-.09 1.55-.14 2.33q-.13 2.26-.25 4.51c-.06 1.14-.1 2.28-.15 3.41s-.1 2.23-.14 3.34a549 549 0 003.32 83.44q1.31 11.15 3.06 22.24 1.56 9.79 3.49 19.52 2.9 14.68 6.64 29.17c.3 1.15.59 2.3.89 3.45.18.69.37 1.38.56 2.07.47 1.76 1 3.53 1.45 5.29l.39 1.39q.84 3 1.72 6l.3 1q.95 3.18 1.93 6.36l.22.71q1 3.33 2.12 6.65l.15.47q1.14 3.5 2.34 7v.15q1.13 3.3 2.31 6.59 4.43 12.38 9.47 24.53 3 7.34 6.3 14.57c.58 1.28 1.15 2.56 1.73 3.84v.1q3.18 6.89 6.54 13.69 6.5 13.11 13.68 25.87 8.32 14.73 17.55 28.93l1.34 2q1 1.56 2.06 3.12 14.7 22 31.45 42.49 2.41 3 4.87 5.87l.07.08q2.33 2.76 4.69 5.49l.72.82c9.87 11.33 20.23 22.23 31 32.71 7.12 7 14.53 13.68 22 20.29l.73.64 5.56 4.72c1 .79 1.9 1.61 2.84 2.41l.27.23c.9.77 1.81 1.53 2.74 2.26l6 4.79 1.17.94 2.73 2.16 2.11 1.62q14.93 11.52 30.61 22l2.65 1.75 2.68 1.76q2.53 1.64 5.07 3.26 8.31 5.27 16.81 10.24 22.43 13.06 46 24l.47.22c1.61.74 3.23 1.47 4.84 2.19q6.79 3 13.67 5.89 16.82 7 34.1 12.78c1.32.44 2.64.89 4 1.32a533.49 533.49 0 0062.7 16.42 541.57 541.57 0 00209.88 0 533.41 533.41 0 00100.77-30.53 539.06 539.06 0 00290.82-291.03z" transform="translate(-3439.66 -3407.73)"/><path class="cls-2" d="M4607 4065.59q2.48-26.24 2.5-52.67a559.16 559.16 0 00-10.59-108.22A551.74 551.74 0 004493 3672.92c.51-1.23 1-2.45 1.54-3.68 2-4.88 3.9-9.75 5.8-14.71s3.76-10 5.52-15 3.47-10.06 5.15-15.16a602.53 602.53 0 00-79-77q4.16-30.06 5.66-61.12-23.61-17.18-48.71-32.21-7.43 1.37-14.71 2.83t-14.54 3.23c-4.78 1.08-9.57 2.3-14.31 3.55s-9.4 2.46-14.08 3.85q-8.64 2.48-17.11 5.24a594.63 594.63 0 00-87-33.71c-109.74-33-228.91-33.45-339-1.58-1.93 7.17-3.76 14.25-5.45 21.37q-6.51 2-13 4.17a580.17 580.17 0 00-61.12 24.59c-10 4.62-19.73 9.66-29.43 14.83-2.42 1.31-4.8 2.67-7.2 4s-4.82 2.64-7.17 4.06l-7.09 4.19-3.55 2.1-3.49 2.18a583.19 583.19 0 00-186 183.79 571.38 571.38 0 00-35.67 65.14q-4.84 1.28-9.72 2.63c-18.26 5.24-36.78 11.37-55 18.61a630.48 630.48 0 00-24.78 81.63c3.73 8.49 7.36 16.77 11.4 24.93 2 4.08 3.92 8.09 6 12.09s4.18 7.94 6.29 11.84A597.81 597.81 0 003603 4405.82q10.94-1.87 21.68-4.05 12.62 13.93 26.09 27c7.84 7.7 16 15.07 24.25 22.33l6.28 5.33c2.11 1.76 4.17 3.58 6.32 5.29l6.42 5.17 3.21 2.58 3.27 2.51a590.54 590.54 0 0054.3 37.33 578.21 578.21 0 00119.53 54.93l8-24.47a550.34 550.34 0 0064.57 16.91 558.46 558.46 0 00216.44 0 551.44 551.44 0 00220.35-97.26l26.48 35.93a597.14 597.14 0 00241.27-425.6zm-346.17 444a533.41 533.41 0 01-100.77 30.53 541.57 541.57 0 01-209.88 0 533.49 533.49 0 01-62.7-16.42c-1.33-.43-2.65-.88-4-1.32q-17.26-5.81-34.1-12.78-6.88-2.85-13.67-5.89c-1.62-.73-3.24-1.45-4.84-2.19l-.47-.22q-23.56-10.88-46-24-8.5-5-16.81-10.24-2.54-1.61-5.07-3.26l-2.68-1.76-2.65-1.75q-15.67-10.48-30.61-22l-2.11-1.62-2.73-2.16-1.17-.94-6-4.79c-.93-.73-1.84-1.5-2.74-2.26l-.27-.23c-.95-.81-1.89-1.62-2.84-2.41l-5.56-4.72-.73-.64c-7.48-6.6-14.89-13.29-22-20.29-10.75-10.49-21.12-21.39-31-32.71l-.72-.82q-2.37-2.73-4.69-5.49l-.07-.08q-2.46-2.92-4.87-5.87-16.73-20.48-31.45-42.49-1-1.55-2.06-3.12l-1.34-2q-9.23-14.19-17.55-28.93-7.18-12.76-13.68-25.87-3.37-6.8-6.54-13.69v-.1c-.59-1.27-1.16-2.56-1.73-3.84q-3.26-7.24-6.3-14.57-5-12.15-9.47-24.53-1.17-3.29-2.31-6.59v-.15q-1.19-3.48-2.34-7l-.15-.47q-1.08-3.32-2.12-6.65l-.22-.71q-1-3.17-1.93-6.36l-.3-1q-.88-3-1.72-6l-.39-1.39c-.49-1.76-1-3.52-1.45-5.29-.19-.69-.38-1.38-.56-2.07-.3-1.15-.6-2.3-.89-3.45q-3.72-14.49-6.64-29.17-1.93-9.73-3.49-19.52-1.75-11.09-3.06-22.24a549 549 0 01-3.32-83.44c0-1.11.09-2.23.14-3.34s.1-2.28.15-3.41q.11-2.26.25-4.51c0-.78.09-1.55.14-2.33q.15-2.33.31-4.66l.18-2.43q.16-2.14.34-4.29.16-1.9.34-3.81c.08-.93.17-1.86.25-2.79q.34-3.52.73-7 .4-3.73.86-7.46c.06-.48.13-1 .19-1.45q.33-2.6.67-5.2c.2-1.44.4-2.88.61-4.32.11-.78.22-1.55.34-2.33q.37-2.48.76-5l.26-1.66q.43-2.65.88-5.3l.21-1.18 1-5.71v-.19q.59-3.16 1.21-6.32 1.2-6.09 2.55-12.14l.19-.87c.33-1.48.68-3 1-4.42.21-.88.41-1.77.62-2.65q.45-1.9.92-3.79.41-1.67.83-3.33t.86-3.35l1-3.88c.26-1 .52-1.93.78-2.9q.64-2.34 1.31-4.67c.2-.71.4-1.42.6-2.12q2-7 4.23-14l.32-1q.94-2.94 1.92-5.88l.6-1.77q.86-2.54 1.74-5.08l.73-2.08q.83-2.36 1.69-4.72l.83-2.27q.83-2.24 1.67-4.47c.31-.81.61-1.62.92-2.42.53-1.39 1.08-2.78 1.63-4.16.35-.89.69-1.78 1-2.67l.78-1.92c.57-1.42 1.14-2.83 1.73-4.24s1.19-2.84 1.79-4.26l.92-2.17c.59-1.36 1.18-2.72 1.78-4.08l1-2.32q.95-2.13 1.92-4.25l.88-1.92q1.08-2.33 2.17-4.66l.54-1.14a536.56 536.56 0 0131.5-57q1.9-3 3.83-6l.91-1.38q1.6-2.43 3.22-4.85l.8-1.18q1.78-2.63 3.59-5.23l.42-.61a543.08 543.08 0 0191.54-101.31l.68-.58q2.18-1.86 4.38-3.7l2.5-2.08 2.42-2q1.86-1.52 3.73-3l.83-.66a540.93 540.93 0 0147.69-34q2.85-1.81 5.73-3.58l.37-.23q3.18-2 6.39-3.87l4.77-2.82q3.34-1.95 6.7-3.84l1.51-.84 3.19-1.79q2.76-1.52 5.54-3c5.89-3.12 11.8-6.18 17.79-9.11l2.05-1c1.78-.86 3.57-1.72 5.36-2.55q10.05-4.71 20.29-9l1-.43c1.5-.63 3-1.24 4.5-1.85l2.8-1.14.21-.08q21.33-8.53 43.33-15.19l.79-.23q2.82-.85 5.65-1.67 3.56-1 7.13-2l.26-.07q3.53-1 7.06-1.88l.3-.08q3.51-.91 7-1.77l.36-.09q3.49-.85 7-1.65l.42-.1q3.44-.79 6.89-1.53l.54-.12q3.14-.67 6.29-1.3l1.24-.25 3.68-.71q23.1-4.41 46.55-6.79l2.39-.24a551.61 551.61 0 0199-.55l3.52.32 3.05.28q3 .29 5.91.61l.5.05q9.67 1.06 19.29 2.48l1.62.25 4.84.74q11 1.76 21.95 4h.08q3.7.75 7.39 1.55h.06q3.7.8 7.38 1.66 3.69.86 7.37 1.77 3.46.85 6.9 1.75l.57.15 2.49.67a533.19 533.19 0 0166.24 22.49q21.3 8.82 41.79 19.48h.05q2.75 1.43 5.48 2.89l.84.45q2.48 1.33 5 2.69l1.41.79q2.25 1.25 4.49 2.51l2.48 1.42 3.81 2.2q2.89 1.69 5.76 3.42l1.09.67q2.68 1.63 5.35 3.28l.85.53q2.88 1.8 5.73 3.63l.34.22a542.31 542.31 0 0199.66 82.43 537.76 537.76 0 01-183.89 866.84z" transform="translate(-3439.66 -3407.73)"/><path class="cls-2" transform="rotate(-87.62 225.609 4087.726)" d="M3717.52 3982.33h8.53v32.96h-8.53z"/><path class="cls-2" transform="rotate(-84.04 112.628 4182.753)" d="M3719.05 3961.4h8.53v32.96h-8.53z"/><path class="cls-2" transform="rotate(-80.44 -8.467 4286.935)" d="M3721.83 3940.61h8.53v32.96h-8.53z"/><path class="cls-2" transform="rotate(-76.82 -138.624 4401.763)" d="M3725.97 3920.05h8.53v32.96h-8.53z"/><path class="cls-2" transform="rotate(-73.19 -288.891 4525.536)" d="M3721.3 3886.15h8.53v54.15h-8.53z"/><path class="cls-2" transform="rotate(-69.56 -430.996 4668.858)" d="M3738.12 3879.92h8.53v32.96h-8.53z"/><path class="cls-2" transform="rotate(-65.93 -596.493 4825.024)" d="M3746 3860.49h8.53v32.96H3746z"/><path class="cls-2" transform="rotate(-62.32 -778.437 4998.457)" d="M3755.22 3841.65h8.53v32.96h-8.53z"/><path class="cls-2" transform="rotate(-58.71 -979.61 5193.777)" d="M3765.54 3823.39h8.53v32.96h-8.53z"/><path class="cls-2" transform="rotate(-55.11 -1212.671 5408.389)" d="M3768.24 3789.11h8.53v54.14h-8.53z"/><path class="cls-2" transform="rotate(-51.52 -1456.858 5665.617)" d="M3789.53 3788.99h8.53v32.96h-8.53z"/><path class="cls-2" transform="rotate(-47.94 -1745.196 5953.711)" d="M3803.09 3772.98h8.53v32.96h-8.53z"/><path class="cls-2" transform="rotate(-44.36 -2077.638 6288.825)" d="M3817.57 3757.8h8.53v32.96h-8.53z"/><path class="cls-2" transform="rotate(-40.78 -2467.085 6682.977)" d="M3833.08 3743.66h8.53v32.96h-8.53z"/><path class="cls-2" transform="rotate(-37.19 -2936.788 7146.579)" d="M3842.98 3711.43h8.53v54.14h-8.53z"/><path class="cls-2" transform="rotate(-33.6 -3493.05 7726.98)" d="M3866.44 3718.25h8.53v32.96h-8.53z"/><path class="cls-2" transform="rotate(-30 -4190.47 8438.207)" d="M3884.31 3707.26h8.53v32.96h-8.53z"/><path class="cls-2" transform="rotate(-26.38 -5082.168 9348.724)" d="M3902.8 3697.36h8.53v32.96h-8.53z"/><path class="cls-2" transform="rotate(-22.77 -6256.194 10541.636)" d="M3921.85 3688.57h8.53v32.96h-8.53z"/><path class="cls-2" transform="rotate(-19.14 -7884.118 12184.116)" d="M3937.98 3660.52h8.53v54.14h-8.53z"/><path class="cls-2" transform="rotate(-15.51 -10266.953 14615.485)" d="M3961.48 3674.9h8.53v32.96h-8.53z"/><path class="cls-2" transform="rotate(-11.5 -13685.373 18282.917)" d="M3981.84 3669.9h8.53v32.96h-8.53z"/><path class="cls-2" transform="rotate(-8.26 -21307.562 25798.792)" d="M4002.49 3666.21h8.53v32.96h-8.53z"/><path class="cls-2" transform="rotate(-4.67 -39476.436 44155.512)" d="M4023.35 3663.91h8.53v32.96h-8.53z"/><path class="cls-2" transform="rotate(-1.11 -173558.556 179513.801)" d="M4044.1 3641.67h8.53v54.14h-8.53z"/><path class="cls-2" transform="rotate(-87.57 572.082 3770.027)" d="M4053.08 3675.27h32.96v8.53h-32.96z"/><path class="cls-2" transform="rotate(-83.99 478.087 3887.578)" d="M4074 3676.78h32.96v8.53H4074z"/><path class="cls-2" transform="rotate(-80.39 375.15 4015.603)" d="M4094.78 3679.69h32.96v8.53h-32.96z"/><path class="cls-2" transform="rotate(-76.77 261.241 4155.309)" d="M4115.33 3683.85h32.96v8.53h-32.96z"/><path class="cls-2" transform="rotate(-73.14 138.703 4297.81)" d="M4128.08 3679.11h54.14v8.53h-54.14z"/><path class="cls-2" transform="rotate(-69.51 -3.875 4474.979)" d="M4155.47 3695.96h32.96v8.53h-32.96z"/><path class="cls-2" transform="rotate(-65.88 -158.003 4658.786)" d="M4174.85 3703.97h32.96v8.53h-32.96z"/><path class="cls-2" transform="rotate(-62.26 -330.721 4861.154)" d="M4193.72 3713.12h32.96v8.53h-32.96z"/><path class="cls-2" transform="rotate(-58.66 -524.03 5084.706)" d="M4212.01 3723.4h32.96v8.53h-32.96z"/><path class="cls-2" transform="rotate(-55.06 -736.16 5326.32)" d="M4225.01 3726.25h54.14v8.53h-54.14z"/><path class="cls-2" transform="rotate(-51.47 -991.584 5615.925)" d="M4246.34 3747.48h32.96v8.53h-32.96z"/><path class="cls-2" transform="rotate(-47.89 -1278.077 5934.128)" d="M4262.39 3761.01h32.96v8.53h-32.96z"/><path class="cls-2" transform="rotate(-44.3 -1610.975 6301.033)" d="M4277.47 3775.59h32.96v8.53h-32.96z"/><path class="cls-2" transform="rotate(-40.73 -2002.203 6724.481)" d="M4291.63 3791.07h32.96v8.53h-32.96z"/><path class="cls-2" transform="rotate(-37.14 -2461.32 7220.798)" d="M4302.71 3800.96h54.14v8.53h-54.14z"/><path class="cls-2" transform="rotate(-33.55 -3039.337 7829.973)" d="M4316.98 3824.48h32.96v8.53h-32.96z"/><path class="cls-2" transform="rotate(-29.95 -3745.3 8572.496)" d="M4327.98 3842.34h32.96v8.53h-32.96z"/><path class="cls-2" transform="rotate(-26.33 -4649.228 9514.334)" d="M4337.9 3860.82h32.96v8.53h-32.96z"/><path class="cls-2" transform="rotate(-22.72 -5837.924 10740.278)" d="M4346.65 3879.89h32.96v8.53h-32.96z"/><path class="cls-2" transform="rotate(-19.09 -7473.15 12423.833)" d="M4353.48 3896.04h54.14v8.53h-54.14z"/><path class="cls-2" transform="rotate(-15.46 -9896.48 14889.52)" d="M4360.29 3919.53h32.96v8.53h-32.96z"/><path class="cls-2" transform="rotate(-11.83 -13783.838 18840.305)" d="M4365.3 3939.89h32.96v8.53h-32.96z"/><path class="cls-2" transform="rotate(-8.22 -21048.218 26193.977)" d="M4368.92 3960.55h32.96v8.53h-32.96z"/><path class="cls-2" transform="rotate(-4.62 -39572.809 44914.611)" d="M4371.22 3981.41h32.96v8.53h-32.96z"/><path class="cls-2" transform="rotate(-1.06 -181496.481 188233.895)" d="M4372.26 4002.17h54.14v8.53h-54.14z"/><path class="cls-2" transform="rotate(-87.7 882.383 4112.038)" d="M4384.27 4011.13h8.53v32.96h-8.53z"/><path class="cls-2" transform="rotate(-83.94 773.198 4256.759)" d="M4382.73 4032.06h8.53v32.96h-8.53z"/><path class="cls-2" transform="rotate(-80.34 645.696 4402.745)" d="M4379.8 4052.83h8.53v32.96h-8.53z"/><path class="cls-2" transform="rotate(-76.72 507.24 4559.003)" d="M4375.62 4073.39h8.53v32.96h-8.53z"/><path class="cls-2" transform="rotate(-73.09 365.892 4729.746)" d="M4380.35 4086.14h8.53v54.14h-8.53z"/><path class="cls-2" transform="rotate(-69.46 190.115 4907.119)" d="M4363.48 4113.51h8.53v32.96h-8.53z"/><path class="cls-2" transform="rotate(-65.83 8.088 5102.51)" d="M4355.46 4132.89h8.53v32.96h-8.53z"/><path class="cls-2" transform="rotate(-62.21 -192.782 5314.908)" d="M4346.29 4151.75h8.53v32.96h-8.53z"/><path class="cls-2" transform="rotate(-58.61 -415.34 5546.677)" d="M4335.99 4170.02h8.53v32.96h-8.53z"/><path class="cls-2" transform="rotate(-55.01 -654.692 5809.335)" d="M4333.12 4183.02h8.53v54.14h-8.53z"/><path class="cls-2" transform="matrix(.62 -.78 .78 .62 -5114.62 1555.49)" d="M4311.88 4204.34h8.53v32.96h-8.53z"/><path class="cls-2" transform="rotate(-47.84 -1258.873 6410.249)" d="M4298.34 4220.37h8.53v32.96h-8.53z"/><path class="cls-2" transform="rotate(-44.26 -1621.748 6777.09)" d="M4283.74 4235.44h8.53v32.96h-8.53z"/><path class="cls-2" transform="rotate(-40.68 -2043.761 7201.483)" d="M4268.25 4249.59h8.53v32.96h-8.53z"/><path class="cls-2" transform="rotate(-37.09 -2536.21 7710.559)" d="M4258.34 4260.66h8.53v54.14h-8.53z"/><path class="cls-2" transform="rotate(-33.5 -3142.114 8301.872)" d="M4234.82 4274.91h8.53v32.96h-8.53z"/><path class="cls-2" transform="rotate(-29.9 -3880.188 9039.268)" d="M4216.95 4285.9h8.53v32.96h-8.53z"/><path class="cls-2" transform="rotate(-26.28 -4815.008 9976.248)" d="M4198.46 4295.81h8.53v32.96h-8.53z"/><path class="cls-2" transform="rotate(-22.67 -6037.159 11196.088)" d="M4179.39 4304.52h8.53v32.96h-8.53z"/><path class="cls-2" transform="rotate(-19.04 -7713.412 12889.16)" d="M4163.22 4311.35h8.53v54.14h-8.53z"/><path class="cls-2" transform="rotate(-15.41 -10170.552 15341.832)" d="M4139.73 4318.14h8.53v32.96h-8.53z"/><path class="cls-2" transform="rotate(-11.78 -14113.637 19305.582)" d="M4119.36 4323.13h8.53v32.96h-8.53z"/><path class="cls-2" transform="rotate(-8.17 -21476.41 26718.973)" d="M4098.7 4326.73h8.53v32.96h-8.53z"/><path class="cls-2" transform="rotate(-4.57 -40337.422 45744.776)" d="M4077.85 4329.01h8.53v32.96h-8.53z"/><path class="cls-2" transform="rotate(-1.01 -190957.967 197786.856)" d="M4057.07 4330.04h8.53v54.15h-8.53z"/><path class="cls-2" transform="rotate(-87.47 539.716 4439.94)" d="M4023.69 4342.03h32.96v8.53h-32.96z"/><path class="cls-2" transform="rotate(-83.9 403.643 4554.267)" d="M4002.76 4340.46h32.96v8.53h-32.96z"/><path class="cls-2" transform="rotate(-80.29 258.324 4677.007)" d="M3981.99 4337.52h32.96v8.53h-32.96z"/><path class="cls-2" transform="rotate(-76.67 103.487 4808.702)" d="M3961.44 4333.33h32.96v8.53h-32.96z"/><path class="cls-2" transform="rotate(-73.04 -66.334 4960.933)" d="M3927.5 4338.04h54.14v8.53h-54.14z"/><path class="cls-2" transform="rotate(-69.41 -241.877 5104.913)" d="M3921.33 4321.14h32.96v8.53h-32.96z"/><path class="cls-2" transform="rotate(-65.79 -435.962 5272.393)" d="M3901.96 4313.1h32.96v8.53h-32.96z"/><path class="cls-2" transform="rotate(-62.16 -646.638 5457.683)" d="M3883.1 4303.93h32.96v8.53h-32.96z"/><path class="cls-2" transform="rotate(-58.56 -876.92 5661.323)" d="M3864.84 4293.6h32.96v8.53h-32.96z"/><path class="cls-2" transform="rotate(-54.96 -1137.838 5897.748)" d="M3830.66 4290.71h54.14v8.53h-54.14z"/><path class="cls-2" transform="rotate(-51.37 -1415.07 6146.007)" d="M3830.54 4269.47h32.96v8.53h-32.96z"/><path class="cls-2" transform="rotate(-47.79 -1734.249 6438.474)" d="M3814.52 4255.92h32.96v8.53h-32.96z"/><path class="cls-2" transform="rotate(-44.21 -2098.794 6776.143)" d="M3799.47 4241.29h32.96v8.53h-32.96z"/><path class="cls-2" transform="rotate(-40.62 -2521.087 7173.33)" d="M3785.33 4225.8h32.96v8.53h-32.96z"/><path class="cls-2" transform="rotate(-37.04 -3026.078 7650.356)" d="M3753.08 4215.87h54.15v8.53h-54.15z"/><path class="cls-2" transform="matrix(.83 -.55 .55 .83 -5127.4 -630.8)" d="M3760.05 4192.34h32.96v8.53h-32.96z"/><path class="cls-2" transform="rotate(-29.85 -4347.417 8926.637)" d="M3749.07 4174.47h32.96v8.53h-32.96z"/><path class="cls-2" transform="rotate(-26.24 -5275.197 9834.776)" d="M3739.17 4155.97h32.96v8.53h-32.96z"/><path class="cls-2" transform="rotate(-22.62 -6492.575 11036.067)" d="M3730.48 4136.88h32.96v8.53h-32.96z"/><path class="cls-2" transform="rotate(-18.99 -8178.391 12703.333)" d="M3702.48 4120.7h54.14v8.53h-54.14z"/><path class="cls-2" transform="rotate(-15.35 -10628.953 15160.666)" d="M3716.89 4097.22h32.96v8.53h-32.96z"/><path class="cls-2" transform="rotate(-11.73 -14578.67 19119.56)" d="M3711.91 4076.85h32.96v8.53h-32.96z"/><path class="cls-2" transform="rotate(-8.11 -22029.202 26617.282)" d="M3708.35 4056.18h32.96v8.53h-32.96z"/><path class="cls-2" transform="rotate(-4.53 -41080.194 45814.02)" d="M3706.08 4035.32h32.96v8.53h-32.96z"/><path class="cls-2" transform="rotate(-.96 -201369.021 207620.073)" d="M3683.88 4014.54h54.15v8.53h-54.15z"/><g opacity=".5"><path class="cls-1" d="M4437.27 3855a414.84 414.84 0 00-223.11-223.76 409.26 409.26 0 00-157.82-31.67h-1.26a410 410 0 00-156.75 30.78 414.54 414.54 0 00-224.41 222.47 408.57 408.57 0 00-32.1 157.72v4.76a410.95 410.95 0 0070.6 228.81 415.61 415.61 0 00185.9 151.37 414.92 414.92 0 00315.83-.89 414.84 414.84 0 00223.11-223.76 414.69 414.69 0 00.01-315.83z" transform="translate(-3439.66 -3407.73)"/><path class="cls-2" d="M4479.69 4018l180.65-.22v-11.21l-180.65.22a421.14 421.14 0 00-29.82-150.56l42.64-17.61-4.28-10.36-42.64 17.61a428.55 428.55 0 00-85.77-128.63l72.38-72.13-7.91-7.94-72.38 72.13a428.13 428.13 0 00-128.34-86.22l17.76-42.58-10.35-4.31-17.76 42.58a420.06 420.06 0 00-150.45-30.32l.84-180.64-11.21-.05-.84 180.65a421.08 421.08 0 00-151.74 29.29l-17.45-42.7-10.38 4.24 17.46 42.7a428.44 428.44 0 00-128.92 85.32l-71.88-72.63-8 7.88 71.9 72.65a423.58 423.58 0 00-86.71 128l-42.52-17.91-4.35 10.33 42.52 17.91a419.43 419.43 0 00-30.85 151.41l-180.64-1-.06 11.21 180.62 1a419.63 419.63 0 0030.91 156.27l-42.47 17.9 4.35 10.33 42.52-17.91a423.56 423.56 0 0086.71 128l-71.9 72.65 8 7.88 71.88-72.63a428.43 428.43 0 00128.92 85.32l-17.46 42.7 10.38 4.24 17.46-42.71a420.94 420.94 0 00150.66 29.28l.39 180.66h11.21l-.39-180.65a420.16 420.16 0 00151.52-30.34l17.76 42.58 10.35-4.31-17.76-42.58a428.12 428.12 0 00128.34-86.22l72.38 72.13 7.91-7.94-72.38-72.13a428.55 428.55 0 0085.73-128.63l42.64 17.61 4.28-10.36-42.64-17.61a421.22 421.22 0 0029.83-151.64zm-131.84 286.8a416.35 416.35 0 01-133.7 89.8 414.92 414.92 0 01-315.83.89 414.55 414.55 0 01-224.4-222.49 408.56 408.56 0 01-32.1-157.72v-4.76a410.95 410.95 0 0170.6-228.81 415.6 415.6 0 01185.91-151.37 410 410 0 01156.75-30.78h1.26a409.26 409.26 0 01157.82 31.67A414.84 414.84 0 014437.27 3855a414.69 414.69 0 010 315.83 416.77 416.77 0 01-89.42 133.96z" transform="translate(-3439.66 -3407.73)"/></g></svg>