<svg preserveAspectRatio="none" id="Layer_1" data-name="Layer 1" xmlns="http://www.w3.org/2000/svg" viewBox="0 0 66.87 66.27"><defs><style>.cls-1{fill:#0ff}</style></defs><g id="_编组_" data-name="&lt;编组&gt;"><path id="_复合路径_" data-name="&lt;复合路径&gt;" class="cls-1" d="M589.5 91.56a19.82 19.82 0 1119.82-19.82 19.84 19.84 0 01-19.82 19.82zm0-37.17a17.35 17.35 0 1017.35 17.35 17.37 17.37 0 00-17.35-17.35z" transform="translate(-558.08 -36.9)"/><path id="_复合路径_2" data-name="&lt;复合路径&gt;" class="cls-1" d="M569.14 79.91a21.94 21.94 0 1142.11-11.13l-1.22.17a20.71 20.71 0 10-39.74 10.5zm41.63-2.72l-1.2-.31a20.77 20.77 0 00.64-5.14h1.24a22 22 0 01-.69 5.45z" transform="translate(-558.08 -36.9)"/><path id="_路径_" data-name="&lt;路径&gt;" class="cls-1" d="M589.5 97.3a25.56 25.56 0 01-16.63-6.15l.8-.94a24.32 24.32 0 1017.67-42.72l.09-1.23a25.56 25.56 0 01-1.93 51.04z" transform="translate(-558.08 -36.9)"/><path id="_路径_2" data-name="&lt;路径&gt;" class="cls-1" d="M623.82 80.62l-12-3.09a23.12 23.12 0 00-18.09-28.48L596 36.9a35.48 35.48 0 0127.82 43.72z" transform="translate(-558.08 -36.9)"/><path id="_复合路径_3" data-name="&lt;复合路径&gt;" class="cls-1" d="M589.5 103.17a31.43 31.43 0 1131.43-31.43 31.46 31.46 0 01-31.43 31.43zm0-62.6a31.18 31.18 0 1031.18 31.18 31.21 31.21 0 00-31.18-31.18z" transform="translate(-558.08 -36.9)"/><g id="_编组_2" data-name="&lt;编组&gt;"><g id="_编组_3" data-name="&lt;编组&gt;"><path id="_复合路径_4" data-name="&lt;复合路径&gt;" class="cls-1" d="M589.5 89.64a17.89 17.89 0 1117.9-17.9 17.91 17.91 0 01-17.9 17.9zm0-35.54a17.64 17.64 0 1017.64 17.64A17.66 17.66 0 00589.5 54.1z" transform="translate(-558.08 -36.9)"/><path id="_复合路径_5" data-name="&lt;复合路径&gt;" class="cls-1" d="M589.5 86.67a14.93 14.93 0 1114.93-14.93 14.95 14.95 0 01-14.93 14.93zm0-29.61a14.68 14.68 0 1014.68 14.68 14.7 14.7 0 00-14.68-14.68z" transform="translate(-558.08 -36.9)"/><path id="_复合路径_6" data-name="&lt;复合路径&gt;" class="cls-1" d="M589.5 83.71a12 12 0 1112-12 12 12 0 01-12 12zm0-23.69a11.72 11.72 0 1011.72 11.72A11.73 11.73 0 00589.5 60z" transform="translate(-558.08 -36.9)"/><path id="_复合路径_7" data-name="&lt;复合路径&gt;" class="cls-1" d="M589.5 80.75a9 9 0 119-9 9 9 0 01-9 9zm0-17.77a8.76 8.76 0 108.76 8.76A8.77 8.77 0 00589.5 63z" transform="translate(-558.08 -36.9)"/><path id="_复合路径_8" data-name="&lt;复合路径&gt;" class="cls-1" d="M589.5 77.79a6 6 0 116-6 6.05 6.05 0 01-6 6zm0-11.85a5.8 5.8 0 105.8 5.8 5.81 5.81 0 00-5.8-5.8z" transform="translate(-558.08 -36.9)"/><path id="_复合路径_9" data-name="&lt;复合路径&gt;" class="cls-1" d="M589.5 74.83a3.08 3.08 0 113.08-3.08 3.09 3.09 0 01-3.08 3.08zm0-5.92a2.84 2.84 0 102.84 2.84 2.84 2.84 0 00-2.84-2.84z" transform="translate(-558.08 -36.9)"/></g><g id="_编组_4" data-name="&lt;编组&gt;"><path id="_路径_3" data-name="&lt;路径&gt;" class="cls-1" d="M31.3 34.84h.25v17.77h-.25z"/><path id="_路径_4" data-name="&lt;路径&gt;" class="cls-1" d="M48.29 40.45l-16.9-5.49.07-.23 16.9 5.49-.07.23z"/><path id="_路径_5" data-name="&lt;路径&gt;" class="cls-1" d="M31.52 34.91l-.19-.14L41.77 20.4l.2.14-10.45 14.37z"/><path id="_路径_6" data-name="&lt;路径&gt;" class="cls-1" d="M31.33 34.91L20.88 20.54l.2-.14 10.44 14.37-.19.14z"/><path id="_路径_7" data-name="&lt;路径&gt;" class="cls-1" d="M14.56 40.45l-.07-.23 16.9-5.49.07.23-16.9 5.49z"/></g></g></g></svg>