<svg preserveAspectRatio="none" id="Layer_1" data-name="Layer 1" xmlns="http://www.w3.org/2000/svg" viewBox="0 0 58.47 56.04"><defs><style>.cls-1{fill:#08ade5;}.cls-2{fill:#065977;}.cls-3{fill:#00b3ea;}.cls-4{opacity:0.1;}.cls-5{fill:#feb113;}.cls-6{opacity:0.2;}.cls-7{opacity:0.3;}.cls-8{opacity:0.4;}.cls-9{opacity:0.5;}.cls-10{opacity:0.6;}.cls-11{opacity:0.7;}.cls-12{opacity:0.8;}.cls-13{opacity:0.9;}</style></defs><title>circle61</title><path class="cls-1" d="M111.06,248.32v0s0,0,0-.05c0-.17,0-0.34,0-0.52l0-.37c0-.11,0-0.22,0-0.33l0-.23,0-.13-0.1-.75v-0.05l-0.08-.45-0.05-.3,0-.19-0.07-.3v-0.05l-0.13-.59-0.06-.2-0.12-.42-0.09-.31-0.1-.31,0-.14,0-.09-0.13-.37-0.24-.6c0-.1-0.07-0.2-0.12-0.3l-0.13-.29c-0.09-.19-0.17-0.39-0.26-0.58l-0.15-.29-0.15-.3-0.15-.28a16.46,16.46,0,0,0-1.18-1.86c-0.39-.55-0.76-1-1.06-1.36l-0.19-.22-0.06-.07-0.12-.14-0.11-.12,0,0-0.41-.43a19.68,19.68,0,0,0-2.37-2l-0.41-.29-0.16-.12-0.14-.09-0.26-.17-0.39.61,0.25,0.16,0.14,0.09,0.16,0.11,0.39,0.28a18.86,18.86,0,0,1,2.28,2l0.12,0.12-1.71,1.65,0.12,0.13,0.15,0.15,0.09,0.1,0.1,0.12a15.71,15.71,0,0,1,1.1,1.38c0.22,0.29.42,0.63,0.65,1L106,241c0.06,0.09.11,0.19,0.16,0.29l0.15,0.3a16.23,16.23,0,0,1,1,2.65c0.14,0.46.25,0.94,0.35,1.41l0.12,0.7q0,0.35.09,0.69a18.17,18.17,0,0,1,.08,2.51c0,0.09,0,.18,0,0.27l0,0.26,0,0.24v0.23c0,0.29-.07.55-0.1,0.76-0.08.42-.12,0.66-0.12,0.66l2.33,0.46c0,0.06,0,.11,0,0.17-0.07.3-.13,0.59-0.2,0.87l-0.22.77c-0.08.24-.16,0.46-0.22,0.67s-0.06.2-.1,0.3l-0.11.27-0.18.45c-0.05.13-.11,0.24-0.14,0.33l-0.12.27,0.66,0.3,0.13-.28c0-.09.1-0.2,0.15-0.34l0.18-.47,0.11-.28c0-.1.07-0.2,0.11-0.31s0.15-.45.23-0.7l0.23-.8c0.07-.29.14-0.59,0.21-0.9,0-.06,0-0.12,0-0.18h0l0.13-.74v-0.14c0-.14,0-0.29.06-0.46s0-.25,0-0.38v-0.17c0-.19,0-0.37,0-0.56V250c0-.1,0-0.21,0-0.32s0-.27,0-0.41C111.07,248.94,111.07,248.63,111.06,248.32Z" transform="translate(-61.32 -219.01)"/><path class="cls-2" d="M80,262.92L80,263l0.17,0.14,0.28,0.22,0.18,0.14,0.21,0.16a19,19,0,0,0,2.55,1.58l0.42,0.22,0.45,0.2,0.23,0.11,0.12,0.05,0.12,0L85.26,266l0.25,0.1,0.26,0.09,0.52,0.18,0.54,0.16,0.28,0.08,0.14,0,0.14,0a18.49,18.49,0,0,0,4.83.54l0.62,0,0.62,0,0.31,0,0.31,0,0.61-.08,0.6-.11,0.3-.05,0.29-.07,0.58-.13,0.56-.16,0.28-.08,0.27-.09,0.54-.18,0.26-.1,0.26-.1,0.5-.2,0.48-.22,0.23-.1,0.23-.11,0.44-.22,0.21-.11,0.2-.12c0.27-.16.53-0.3,0.77-0.46l0.35-.22,0.17-.11,0.16-.11,0.58-.41,0.47-.37,0.2-.16,0.17-.15,0.27-.23,0.23-.19,0.49,0.54-0.23.2-0.28.24-0.18.15-0.21.16-0.49.39-0.6.43-0.16.12-0.17.11-0.36.23c-0.24.17-.52,0.31-0.8,0.47l-0.21.12-0.22.12-0.46.23-0.23.12-0.24.11-0.5.23-0.52.21-0.27.11-0.27.1-0.56.19-0.28.09-0.29.08-0.59.17-0.6.14-0.3.07-0.31.05-0.62.11-0.63.08-0.32,0-0.32,0-0.64.05-0.65,0a19.24,19.24,0,0,1-5-.56l-0.15,0-0.14,0-0.29-.08-0.56-.16-0.55-.19-0.27-.09L85,266.7l-0.51-.2-0.12,0-0.12-.05L84,266.29l-0.47-.21-0.44-.23a19.7,19.7,0,0,1-2.65-1.64l-0.21-.16L80,263.9l-0.29-.23-0.18-.14-0.06-.05Z" transform="translate(-61.32 -219.01)"/><path class="cls-2" d="M91.73,230.26H91l-0.31,0-0.74.06-0.87.11-1,.18-0.5.12c-0.17,0-.34.07-0.51,0.13-0.34.1-.69,0.19-1,0.31l-0.51.17-0.5.2c-0.33.12-.65,0.28-1,0.41l-0.23.1-0.22.11-0.43.22c-0.14.07-.27,0.15-0.4,0.22l-0.37.21-0.33.21-0.3.19-0.26.17-0.21.15-0.41.29-0.43-.58,0.42-.3,0.22-.16,0.27-.17,0.31-.2,0.35-.21,0.38-.22c0.13-.07.27-0.16,0.41-0.23l0.44-.23,0.23-.12,0.24-.11c0.32-.14.65-0.3,1-0.43l0.52-.21,0.54-.18c0.35-.13.72-0.22,1.08-0.32,0.18-.06.36-0.09,0.53-0.13l0.52-.12,1-.18,0.91-.11,0.77-.06,0.32,0h0.79v0.73Z" transform="translate(-61.32 -219.01)"/><path class="cls-2" d="M69.35,257.67l0.18,0.46,0.24,0.54L69.93,259c0.05,0.12.11,0.25,0.18,0.38a23.37,23.37,0,0,0,2.64,4.21A23.66,23.66,0,0,0,75,266.08l0.65,0.62,0.69,0.6,0.18,0.15,0.18,0.14L77,267.89l0.38,0.29,0.39,0.28c0.26,0.19.52,0.38,0.8,0.55L79,269.27c0.14,0.09.28,0.18,0.42,0.26L80.3,270l0.9,0.46A24.56,24.56,0,0,0,85,272l0.5,0.14,0.25,0.07L86,272.24l1,0.23,1,0.18,0.5,0.07,0.5,0.06c0.33,0,.67.07,1,0.09l0.5,0,0.5,0h1l1,0a26,26,0,0,0,3.68-.45l0.85-.19,0.42-.1,0.4-.11,0.79-.23,0.75-.25,0.36-.12,0.35-.14,0.67-.27,0.63-.28,0.3-.14,0.29-.14,0.54-.28,0.26-.13,0.24-.13,0.86-.5,0.68-.43c0.2-.13.37-0.23,0.49-0.33l0.4-.29,2.17,3,0.28-.2c0.18-.13.44-0.33,0.77-0.59l0.54-.43,0.61-.53,0.34-.29,0.34-.33,0.36-.34c0.12-.12.25-0.23,0.37-0.37a28.11,28.11,0,0,0,5.82-8.61,27.62,27.62,0,0,0,1.68-5.32,28.2,28.2,0,0,0,.57-4.83c0-.18,0-0.35,0-0.52s0-.34,0-0.5l0-.92c0-.14,0-0.28,0-0.42l0-.39-0.05-.69,0-.29,0-.26-0.05-.41,0-.34-3.94.54,0,0.31,0,0.36c0,0.07,0,.14,0,0.22l0,0.25,0,0.56,0,0.3c0,0.1,0,.21,0,0.32s0,0.44,0,.67,0,0.23,0,.34v0.35l0,0.69v0.34l0,0.33,0,0.62c0,0.1,0,.19,0,0.29l0,0.27c0,0.34-.08.63-0.11,0.83l-0.06.31-1.46-.25-0.05.28c0,0.18-.07.43-0.15,0.74l-0.11.49-0.06.27c0,0.09-.05.18-0.08,0.28l-0.16.58-0.09.3-0.1.29-0.2.58,0,0.14-0.06.14-0.11.27-0.2.52c-0.07.17-.14,0.32-0.2,0.46s-0.23.52-.31,0.68l-0.13.25-0.78-.39-0.09.18c-0.06.11-.14,0.29-0.26,0.5l-0.44.76-0.14.22-0.15.23-0.32.5-0.38.53-0.2.28-0.22.28-0.45.58-0.5.58c-0.17.2-.35,0.39-0.54,0.58s-0.37.39-.57,0.58l-0.6.57-0.63.55a23.72,23.72,0,0,1-2.65,1.9c-0.45.26-.88,0.52-1.31,0.73l-0.31.16-0.31.15-0.59.27-0.28.12-0.27.11-0.5.2-0.45.16-0.38.13-0.31.1-0.23.07-0.19.05,0.24,0.83-0.36.1-0.2.06-0.24.06-0.59.14a22.12,22.12,0,0,1-3.72.51,22.67,22.67,0,0,1-5.3-.35l-0.36-.06L87,270.7l-0.73-.17-0.73-.2-0.37-.1-0.36-.12-0.73-.25-0.72-.28L83,269.43l-0.35-.16-0.35-.16L82,268.94l-0.69-.35-0.17-.09L81,268.4l-0.34-.19L80.28,268l-0.33-.2-0.65-.41L78.68,267l-0.31-.22-0.3-.23L77.5,266l-0.56-.48c-0.19-.15-0.36-0.33-0.53-0.49s-0.35-.32-0.51-0.49l-0.48-.5-0.23-.25L75,263.56l-0.43-.5-0.4-.5-0.19-.25-0.1-.12-0.09-.12-0.35-.49a23.05,23.05,0,0,1-1.89-3.25l-0.25-.55c-0.07-.16-0.14-0.3-0.18-0.41L71,257Z" transform="translate(-61.32 -219.01)"/><path class="cls-3" d="M114.94,234.2l-0.26-.41-0.17-.26-0.2-.29-0.47-.66-0.13-.18-0.15-.19-0.31-.39-0.33-.42-0.37-.43c-0.25-.29-0.51-0.6-0.81-0.9a27.6,27.6,0,0,0-4.35-3.76,27,27,0,0,0-5.83-3.08l-0.39-.15-0.4-.14-0.8-.27-0.81-.23c-0.27-.08-0.54-0.16-0.81-0.21l-0.81-.19-0.2,0-0.2,0-0.4-.07-0.8-.14-0.79-.1a27.41,27.41,0,0,0-5.74-.09l-0.31,0-0.3,0-0.59.07-0.56.07-0.52.09-0.49.09-0.45.09-0.79.18-0.34.08-0.3.08-0.47.13-0.39.11L82.82,219l-0.09,0-0.27.09-1,.34c-0.22.07-.46,0.17-0.72,0.27l-0.84.33c-0.3.12-.61,0.27-0.94,0.42l-0.51.23-0.52.26a30.52,30.52,0,0,0-4.61,2.84l-1.19.93-1.17,1c-0.38.36-.76,0.72-1.13,1.09l-0.55.57L69,227.7l-0.14.14-0.13.15a31.33,31.33,0,0,0-3.66,5,30.87,30.87,0,0,0-2.33,4.89c-0.08.18-.13,0.37-0.2,0.55l-0.18.53-0.17.5c-0.05.16-.1,0.32-0.14,0.48l-0.25.87c0,0.13-.07.26-0.1,0.39l-0.08.36c-0.1.45-.19,0.81-0.23,1l-0.07.37,3.72,0.7-0.14.78c0,0.12,0,.25-0.06.38l-0.05.43-0.06.46,0,0.23,0,0.24-0.07.93,0,0.22V248l0,0.79h1v0.52c0,0.34,0,.83.07,1.45a25.69,25.69,0,0,0,.89,5.12c0.07,0.26.15,0.52,0.23,0.79L67,257.44c0,0.14.09,0.28,0.14,0.42l0.16,0.42,0.17,0.42c0.06,0.14.11,0.29,0.18,0.42L68.06,260l0.1,0.22,0.11,0.21,0.22,0.43,0.22,0.43L69,261.7l0.25,0.43c0.08,0.14.17,0.29,0.26,0.43L70,263.42l0.6,0.84,0.15,0.21,0.16,0.21,0.32,0.41,0.33,0.41,0.35,0.4a25.68,25.68,0,0,0,3,3,27.19,27.19,0,0,0,3.49,2.47,25.38,25.38,0,0,0,3.72,1.83c0.62,0.26,1.25.46,1.87,0.67s1.23,0.36,1.84.49l0.45,0.1,0.22,0.05,0.22,0,0.87,0.16,0.21,0,0.21,0,0.42,0.05,0.41,0.05,0.41,0a27.7,27.7,0,0,0,5.19,0l0.83-.1,0.61-.08,0.51-.09-0.13-.71-0.49.09-0.6.08-0.81.1a26.93,26.93,0,0,1-5.05,0l-0.39,0-0.4-.05-0.41-.05L88,274l-0.21,0-0.85-.15-0.22,0-0.22,0-0.44-.1c-0.59-.12-1.18-0.31-1.78-0.48s-1.21-.4-1.82-0.65a24.65,24.65,0,0,1-3.62-1.77,26.48,26.48,0,0,1-3.4-2.41,24.92,24.92,0,0,1-3-2.93L72.13,265l-0.32-.4-0.31-.4-0.16-.2-0.15-.21L70.61,263l-0.53-.83c-0.09-.14-0.17-0.28-0.25-0.42l-0.24-.42-0.24-.42-0.22-.42-0.21-.42-0.11-.21-0.1-.21-0.38-.83c-0.06-.14-0.11-0.28-0.17-0.41L68,258l-0.16-.4c-0.05-.13-0.09-0.27-0.14-0.4l-0.27-.79c-0.08-.26-0.15-0.52-0.22-0.77a24.92,24.92,0,0,1-.87-5c-0.06-.61-0.06-1.09-0.07-1.42s0-.5,0-0.5h2.09l0-.74v-0.39c0-.14,0-0.29,0-0.46l0-.52,0-.28c0-.1,0-0.19,0-0.29l0.08-.62c0-.11,0-0.22,0-0.33l0.06-.34,0.12-.7c0-.24.11-0.48,0.16-0.72,0.1-.49.26-1,0.4-1.5,0-.13.08-0.25,0.12-0.38l0.13-.38,0.13-.38c0-.13.1-0.25,0.15-0.38l0.3-.75,0.33-.73c0.06-.12.11-0.24,0.17-0.36l0.18-.35c0.12-.23.23-0.46,0.35-0.68l0.37-.64,0.18-.31,0.19-.3,0.36-.57,0.36-.51,0.34-.47,0.32-.41c0.2-.26.37-0.48,0.53-0.66l0.48-.56,1.41,1.27s0.08-.09.24-0.26l0.29-.3,0.18-.19,0.1-.11,0.11-.11,0.51-.48,0.14-.13,0.15-.13,0.32-.28,0.35-.3,0.38-.3,0.4-.31,0.43-.31,0.45-.32,0.49-.31c0.32-.22.68-0.41,1-0.62,0.18-.11.37-0.2,0.56-0.3l0.58-.3,0.6-.27,0.31-.14,0.31-.13,0.64-.25,0.66-.23,0.33-.11,0.34-.1,0.68-.19,0.7-.16,0.35-.08,0.35-.07,0.71-.13,0.72-.09a21.76,21.76,0,0,1,5.68,0l0.34,0,0.33,0.06,0.65,0.12,0.63,0.15c0.21,0,.41.09,0.61,0.15L98,228l0.29,0.08,0.28,0.1,0.55,0.18,0.13,0,0.13,0.05,0.26,0.1,0.5,0.2,0.24,0.1,0.23,0.1c0.3,0.14.59,0.26,0.85,0.4l0.73,0.38,0.61,0.35,0.26,0.15,0.22,0.14,0.35,0.22,0.22,0.14,0.07,0,1.06-1.57,0.35,0.25c0.22,0.16.55,0.38,0.92,0.68a22.51,22.51,0,0,1,2.57,2.32l0.33,0.34,0.16,0.17,0.15,0.18,0.3,0.35c0.1,0.12.2,0.23,0.29,0.34l0.53,0.67c0.09,0.1.16,0.21,0.23,0.32l0.21,0.3,0.2,0.28,0.09,0.13,0.08,0.12,0.27,0.42,0.23,0.37,3.23-2ZM82,225.14l-0.18.07-0.67.3-0.48.22-0.55.28-0.31.16-0.16.08-0.16.09-0.68.39c-0.24.13-.48,0.29-0.72,0.45l-0.38.24-0.19.13-0.19.13-0.78.56-0.79.62a26.29,26.29,0,0,0-3.08,3,24.76,24.76,0,0,0-2.55,3.43l-0.14.21-0.13.22-0.25.43-0.24.42-0.22.42-0.21.41c-0.07.14-.14,0.27-0.2,0.4l-0.35.78c-0.12.25-.21,0.49-0.3,0.72l-0.26.66L67.47,241c-0.05.15-.09,0.29-0.12,0.41l-0.09.3-0.07.25L64,241.12l0.08-.28,0.1-.34c0-.13.08-0.29,0.14-0.46,0.11-.34.25-0.76,0.42-1.23l0.29-.74c0.11-.26.21-0.54,0.34-0.82l0.4-.88c0.07-.15.15-0.3,0.22-0.45l0.24-.47,0.25-.48,0.27-.48L67,234l0.14-.25,0.15-.24a28.06,28.06,0,0,1,2.88-3.86,29.57,29.57,0,0,1,3.48-3.33l0.89-.7,0.88-.63,0.21-.15,0.22-.14,0.43-.27c0.28-.18.55-0.36,0.82-0.51l0.77-.44,0.18-.1,0.18-.09,0.34-.18,0.63-.32,0.54-.25,0.76-.34,0.2-.08,0.07,0,1.26,3Z" transform="translate(-61.32 -219.01)"/><line class="cls-1" x1="45.47" y1="30.34" x2="45.47" y2="30.18"/><line class="cls-1" x1="16.53" y1="30.18" x2="16.53" y2="30.34"/><g class="cls-4"><polygon class="cls-5" points="18.43 40.75 18.68 41.02 16.86 42.84 16.56 42.53 18.43 40.75"/></g><g class="cls-6"><polygon class="cls-5" points="17.87 40.14 18.11 40.42 16.2 42.15 15.92 41.82 17.87 40.14"/></g><g class="cls-7"><polygon class="cls-5" points="17.35 39.5 17.57 39.79 15.57 41.42 15.31 41.08 17.35 39.5"/></g><g class="cls-8"><polygon class="cls-5" points="16.86 38.83 17.07 39.13 14.98 40.66 14.74 40.31 16.86 38.83"/></g><g class="cls-9"><polygon class="cls-5" points="16.4 38.14 16.6 38.45 14.44 39.87 14.21 39.51 16.4 38.14"/></g><g class="cls-10"><polygon class="cls-5" points="15.98 37.43 16.16 37.75 13.93 39.05 13.72 38.68 15.98 37.43"/></g><g class="cls-11"><polygon class="cls-5" points="15.6 36.7 15.77 37.03 13.47 38.21 13.28 37.83 15.6 36.7"/></g><g class="cls-12"><polygon class="cls-5" points="15.26 35.94 15.41 36.28 13.05 37.34 12.88 36.95 15.26 35.94"/></g><g class="cls-13"><polygon class="cls-5" points="14.96 35.17 15.09 35.52 12.68 36.46 12.53 36.06 14.96 35.17"/></g><polygon class="cls-5" points="14.7 34.39 14.81 34.74 12.36 35.56 12.22 35.15 14.7 34.39"/><polygon class="cls-5" points="14.47 33.59 14.57 33.95 12.08 34.64 11.97 34.22 14.47 33.59"/><polygon class="cls-5" points="14.29 32.79 14.37 33.15 11.85 33.7 11.76 33.28 14.29 32.79"/><polygon class="cls-5" points="14.15 31.97 14.21 32.34 11.67 32.76 11.6 32.34 14.15 31.97"/><path class="cls-5" d="M75.38,250.16s0,0.09,0,.18l0,0.18-2.57.29,0-.21c0-.11,0-0.21,0-0.21Z" transform="translate(-61.32 -219.01)"/><path class="cls-5" d="M75.32,249.33s0,0.09,0,.19v0.18l-2.58.16,0-.21c0-.11,0-0.21,0-0.21Z" transform="translate(-61.32 -219.01)"/><path class="cls-5" d="M75.31,248.51v0.37l-2.58,0v-0.43Z" transform="translate(-61.32 -219.01)"/><path class="cls-5" d="M75.34,247.68v0.18c0,0.09,0,.18,0,0.18l-2.58-.1s0-.11,0-0.21l0-.21Z" transform="translate(-61.32 -219.01)"/><path class="cls-5" d="M75.42,246.86l0,0.18c0,0.09,0,.18,0,0.18L72.8,247s0-.11,0-0.21l0-.21Z" transform="translate(-61.32 -219.01)"/><polygon class="cls-5" points="14.21 27.03 14.15 27.39 11.6 27.02 11.67 26.6 14.21 27.03"/><polygon class="cls-5" points="14.37 26.22 14.29 26.58 11.76 26.08 11.85 25.66 14.37 26.22"/><polygon class="cls-5" points="14.57 25.41 14.47 25.77 11.97 25.14 12.08 24.73 14.57 25.41"/><polygon class="cls-5" points="14.81 24.62 14.7 24.97 12.22 24.22 12.36 23.81 14.81 24.62"/><g class="cls-13"><polygon class="cls-5" points="15.09 23.84 14.96 24.19 12.53 23.31 12.68 22.91 15.09 23.84"/></g><g class="cls-12"><polygon class="cls-5" points="15.41 23.08 15.26 23.42 12.88 22.41 13.05 22.02 15.41 23.08"/></g><g class="cls-11"><polygon class="cls-5" points="15.77 22.34 15.6 22.67 13.28 21.54 13.47 21.15 15.77 22.34"/></g><g class="cls-10"><polygon class="cls-5" points="16.16 21.61 15.98 21.94 13.72 20.69 13.93 20.31 16.16 21.61"/></g><g class="cls-9"><polygon class="cls-5" points="16.6 20.91 16.4 21.22 14.21 19.86 14.44 19.49 16.6 20.91"/></g><g class="cls-8"><polygon class="cls-5" points="17.07 20.23 16.86 20.53 14.74 19.06 14.98 18.7 17.07 20.23"/></g><g class="cls-7"><polygon class="cls-5" points="17.57 19.57 17.35 19.87 15.31 18.28 15.57 17.94 17.57 19.57"/></g><g class="cls-6"><polygon class="cls-5" points="18.11 18.95 17.87 19.23 15.92 17.54 16.2 17.21 18.11 18.95"/></g><g class="cls-4"><polygon class="cls-5" points="18.68 18.35 18.43 18.61 16.56 16.83 16.86 16.52 18.68 18.35"/></g></svg>