<svg preserveAspectRatio="none" xmlns="http://www.w3.org/2000/svg" viewBox="0 0 394.93 373.14"><defs><style>.cls-1{isolation:isolate;}.cls-2{mix-blend-mode:screen;}.cls-3{fill:#03a6ff;}</style></defs><title>circle51</title><g class="cls-1"><g id="Layer_7" data-name="Layer 7"><g class="cls-2"><path class="cls-3" d="M240,1591.4A140.56,140.56,0,0,1,257.17,1577c3-2.22,6.19-4.19,9.35-6.18l4.86-2.79c1.62-.93,3.31-1.73,5-2.6a142.92,142.92,0,0,1,20.73-8.48,152.31,152.31,0,0,1,21.8-5.17l0.92,5.91a146.35,146.35,0,0,0-20.89,5,136.91,136.91,0,0,0-19.87,8.13c-1.58.83-3.21,1.59-4.76,2.49l-4.66,2.68c-3,1.91-6.08,3.8-9,5.93a134.59,134.59,0,0,0-16.47,13.78Z" transform="translate(-133.5 -1508.15)"/><path class="cls-3" d="M202.2,1654.13c0.23-.79.44-1.58,0.68-2.36l0.79-2.33c0.54-1.55,1-3.11,1.6-4.65,1.22-3,2.34-6.12,3.75-9.08a139.73,139.73,0,0,1,9.25-17.32l5.07,3.17a133.79,133.79,0,0,0-8.86,16.61c-1.36,2.83-2.43,5.79-3.6,8.7-0.55,1.47-1,3-1.53,4.45l-0.76,2.23c-0.24.75-.44,1.51-0.65,2.26Z" transform="translate(-133.5 -1508.15)"/><path class="cls-3" d="M268.78,1820.77a144.82,144.82,0,0,1-71-105.27l5.92-.83a138.84,138.84,0,0,0,68.12,100.93Z" transform="translate(-133.5 -1508.15)"/><path class="cls-3" d="M486.48,1695.17a148.94,148.94,0,0,1-4.16,34.48A145.35,145.35,0,0,1,394,1830.38c-2.68,1.12-5.45,2-8.2,2.93-1.36.5-2.77,0.85-4.17,1.25l-4.19,1.18a149.92,149.92,0,0,1-17.09,3.25,146.47,146.47,0,0,1-34.72.41,148.54,148.54,0,0,1-33.84-7.83l2-5.62a142.56,142.56,0,0,0,32.44,7.51,140.5,140.5,0,0,0,33.3-.4,143.93,143.93,0,0,0,16.38-3.11l4-1.13c1.33-.39,2.69-0.72,4-1.2,2.63-.9,5.29-1.73,7.85-2.81a136.18,136.18,0,0,0,29.34-15.72,139.1,139.1,0,0,0,55.33-80.86,142.94,142.94,0,0,0,4-33.06h6Z" transform="translate(-133.5 -1508.15)"/><path class="cls-3" d="M495.39,1695.75v-1.1a153.88,153.88,0,0,0-31.09-92.28l-0.66-.88,18.68-14.13,0.67,0.89a177.3,177.3,0,0,1,35.82,106.31v1.12Zm-28.66-93.83a156,156,0,0,1,30.86,91.6l19-.06a175,175,0,0,0-34.7-103Z" transform="translate(-133.5 -1508.15)"/><path class="cls-3" d="M416.9,1535.81a178.79,178.79,0,0,1,49.88,35.43l-15.08,14.9A157.6,157.6,0,0,0,407.81,1555Z" transform="translate(-133.5 -1508.15)"/><path class="cls-3" d="M179.28,1625.69a182.16,182.16,0,0,1,20.83-36.07,184.11,184.11,0,0,1,28.72-30.19,180.74,180.74,0,0,1,35-22.63A175.15,175.15,0,0,1,303.1,1523l4.58,20.7a154,154,0,0,0-34.55,12.09,159.56,159.56,0,0,0-30.77,19.91,163,163,0,0,0-25.29,26.58,161,161,0,0,0-18.32,31.73Z" transform="translate(-133.5 -1508.15)"/><path class="cls-3" d="M135.25,1722.12l-0.14-1.1a207.94,207.94,0,0,1,5.75-80.84l0.29-1.07,52,14.23-0.29,1.07a156.19,156.19,0,0,0-4.25,60l0.14,1.1Zm7.47-80.28a205.69,205.69,0,0,0-5.53,77.8l49.07-6.1a158.54,158.54,0,0,1,4.16-58.65Z" transform="translate(-133.5 -1508.15)"/><path class="cls-3" d="M217.61,1862.24l-0.89-.67a210.28,210.28,0,0,1-54.15-60.32l-0.57-1,46.32-27.54,0.57,1a155.92,155.92,0,0,0,40.16,44.74l0.89,0.67Zm-52.56-61.16a208.17,208.17,0,0,0,52.12,58.05l29.67-39.56a158.28,158.28,0,0,1-39.28-43.76Z" transform="translate(-133.5 -1508.15)"/><path class="cls-3" d="M410,1857.63a176.94,176.94,0,0,1-139.67-1.06l8.55-19.4a155.74,155.74,0,0,0,122.86.94Z" transform="translate(-133.5 -1508.15)"/><path class="cls-3" d="M419.82,1829a154.88,154.88,0,0,0,39.66-33.3l16.13,13.75a176.09,176.09,0,0,1-45.06,37.83Z" transform="translate(-133.5 -1508.15)"/><path class="cls-3" d="M487.88,1746.2l1-3.07c0.35-1,.71-2,1-3.09l1.77-6.25,1.46-6.33c0.49-2.11.78-4.26,1.19-6.38a165.61,165.61,0,0,0,2.2-25.91h21.2a186.78,186.78,0,0,1-2.49,29.42c-0.46,2.42-.81,4.86-1.36,7.26l-1.66,7.2-2,7.11c-0.31,1.19-.71,2.36-1.11,3.52l-1.18,3.5Z" transform="translate(-133.5 -1508.15)"/><path class="cls-3" d="M446.66,1695.87v-1.11a105.34,105.34,0,0,0-21-62.75,107.39,107.39,0,0,0-33.73-29.24,103,103,0,0,0-20.64-8.57,105.54,105.54,0,0,0-22-4,107.45,107.45,0,0,0-22.49.71l-1.1.15-11.23-81,1.1-.15a189.88,189.88,0,0,1,39.7-1.26,187.25,187.25,0,0,1,39.19,7.12,184.61,184.61,0,0,1,36.82,15.3A189.16,189.16,0,0,1,491,1582.89a187.11,187.11,0,0,1,37.42,111.56v1.11ZM341.34,1587.7q4,0,8.05.29a107.8,107.8,0,0,1,22.49,4.08,105.18,105.18,0,0,1,21.09,8.76,109.61,109.61,0,0,1,34.43,29.85,107.56,107.56,0,0,1,21.47,63l77.33-.29a184.89,184.89,0,0,0-37-109.12A186.93,186.93,0,0,0,430.15,1533a182.44,182.44,0,0,0-36.37-15.11,185,185,0,0,0-38.72-7,187.72,187.72,0,0,0-38.13,1.1l10.62,76.6A109.41,109.41,0,0,1,341.34,1587.7Z" transform="translate(-133.5 -1508.15)"/><path class="cls-3" d="M156,1719.55l-0.16-1.08c-0.5-3.45-.75-7-1-10.34l-0.12-1.66c-0.13-1.42-.16-2.85-0.2-4.25,0-.59,0-1.18,0-1.77s0-1.25,0-1.87c0-1.36-.07-2.76-0.06-4.16l0.24-9,0.68-9c0.17-1.53.36-3,.55-4.52l0.19-1.48a185.15,185.15,0,0,1,12.44-46.56c0.49-1.3,1.08-2.59,1.65-3.84,0.26-.56.51-1.12,0.76-1.69s0.55-1.21.82-1.81c0.55-1.22,1.11-2.48,1.75-3.7l0.6-1.18c1.59-3.13,3.24-6.38,5.08-9.46a184.72,184.72,0,0,1,13.29-20.08l0.47-.61c2.28-2.92,4.63-5.94,7.15-8.75s5-5.6,7.57-8.25l0.57-.59a185.77,185.77,0,0,1,18-16l0.87-.67,50.43,64.38-0.9.68a106,106,0,0,0-10.16,9l-1.15,1.21c-1.16,1.21-2.36,2.47-3.43,3.77s-2.26,2.67-3.3,4l-1,1.31a105.07,105.07,0,0,0-7.46,11.3c-0.87,1.42-1.63,2.91-2.36,4.35l-0.86,1.67c-0.33.6-.59,1.21-0.87,1.85-0.18.41-.36,0.82-0.55,1.22s-0.33.73-.51,1.12A20.55,20.55,0,0,0,244,1655a103.88,103.88,0,0,0-7,26.16l-0.43,3.41-0.39,5.1-0.13,5.12c0,0.66,0,1.33,0,2,0,0.47,0,.93,0,1.4s0,0.79,0,1.2a21,21,0,0,0,.1,2.13c0.06,0.69.11,1.34,0.16,2,0.12,1.59.24,3.23,0.49,4.8l0.18,1.13Zm70.66-169.25a186.52,186.52,0,0,0-16.9,15.16l-0.55.58c-2.52,2.63-5.13,5.34-7.5,8.16s-4.82,5.78-7.08,8.67l-0.46.59A182.72,182.72,0,0,0,181,1603.3c-1.82,3-3.45,6.25-5,9.36l-0.6,1.19c-0.61,1.17-1.16,2.4-1.7,3.59-0.27.61-.54,1.21-0.82,1.81s-0.5,1.12-.76,1.69c-0.55,1.22-1.13,2.48-1.6,3.73a183,183,0,0,0-12.3,46l-0.19,1.48c-0.19,1.48-.38,3-0.54,4.45l-0.68,8.92-0.24,8.91c0,1.34,0,2.72.06,4.06q0,0.93,0,1.87c0,0.58,0,1.18,0,1.78,0,1.35.06,2.75,0.19,4.11L157,1708c0.22,3,.45,6.08.84,9.11l76.73-9.55c-0.16-1.29-.26-2.59-0.35-3.85,0-.64-0.09-1.29-0.15-1.93a22.71,22.71,0,0,1-.11-2.33c0-.39,0-0.78,0-1.17s0-.94,0-1.39c0-.71,0-1.42,0-2.13l0.13-5.19,0.39-5.2,0.44-3.46a105.94,105.94,0,0,1,7.11-26.66,22.19,22.19,0,0,1,.89-2.07c0.17-.36.34-0.72,0.5-1.09s0.37-.81.54-1.19c0.29-.66.59-1.34,1-2l0.84-1.63c0.75-1.48,1.53-3,2.42-4.46a107,107,0,0,1,7.62-11.53l1-1.33c1.07-1.36,2.17-2.77,3.37-4.08s2.31-2.61,3.5-3.85l1.16-1.22a113.33,113.33,0,0,1,9.51-8.57Z" transform="translate(-133.5 -1508.15)"/><path class="cls-3" d="M285.59,1873.74l-1.06-.34a187.29,187.29,0,0,1-71.88-42.56l-0.8-.76,56.29-59.32,0.81,0.77a105.3,105.3,0,0,0,40.42,24l1.05,0.34ZM215,1830a185.12,185.12,0,0,0,69.16,40.94l23.48-73.68a107.59,107.59,0,0,1-39.41-23.36Z" transform="translate(-133.5 -1508.15)"/><path class="cls-3" d="M352,1881.29l-5.24-81.6,1.11-.07a106.1,106.1,0,0,0,57.74-21.81,103.71,103.71,0,0,0,35.56-50.34l0.34-1.06L519.15,1752,518.8,1753a186.3,186.3,0,0,1-24.87,49.49A202.19,202.19,0,0,1,476.22,1824a199.65,199.65,0,0,1-20.68,18.56,188.56,188.56,0,0,1-102.48,38.69Zm-2.88-79.53,5,77.17a186.35,186.35,0,0,0,100.15-38.15,197.26,197.26,0,0,0,20.44-18.34,183.78,183.78,0,0,0,31.63-44.78,201.82,201.82,0,0,0,10.09-24.28l-73.45-24.17a105.91,105.91,0,0,1-36,50.36A108.41,108.41,0,0,1,349.07,1801.76Z" transform="translate(-133.5 -1508.15)"/><path class="cls-3" d="M319.31,1826.29a132.36,132.36,0,0,1-63.66-29.51l6.44-7.64a122.37,122.37,0,0,0,58.88,27.3Z" transform="translate(-133.5 -1508.15)"/><path class="cls-3" d="M431.55,1792.88A128.79,128.79,0,0,1,414.9,1806a126,126,0,0,1-18.52,10.26l-4.13-9.1a116,116,0,0,0,17.12-9.49,118.79,118.79,0,0,0,15.4-12.08Z" transform="translate(-133.5 -1508.15)"/><path class="cls-3" d="M474.34,1693.58a139.58,139.58,0,0,1-1.42,21.13,132.77,132.77,0,0,1-4.8,20.62l-9.53-3a122.78,122.78,0,0,0,4.44-19.06,129.62,129.62,0,0,0,1.31-19.53Z" transform="translate(-133.5 -1508.15)"/><path class="cls-3" d="M411,1581.93a131,131,0,0,1,33.61,29.45,133.07,133.07,0,0,1,12.65,18.53,136.09,136.09,0,0,1,9.27,20.43l-9.41,3.36a126.11,126.11,0,0,0-8.57-18.88,123.09,123.09,0,0,0-11.69-17.13,121,121,0,0,0-31.09-27.25Z" transform="translate(-133.5 -1508.15)"/><path class="cls-3" d="M313.84,1565.08a139.77,139.77,0,0,1,22.25-2.76c1.87,0,3.74-.17,5.61-0.12l5.61,0.11,5.6,0.38c1.87,0.14,3.72.41,5.58,0.62a132.17,132.17,0,0,1,42.72,13.15l-4.5,8.92a122.17,122.17,0,0,0-39.5-12.16c-1.72-.18-3.43-0.45-5.16-0.57l-5.18-.35-5.19-.1c-1.73,0-3.46.08-5.19,0.12a129.81,129.81,0,0,0-20.59,2.56Z" transform="translate(-133.5 -1508.15)"/><path class="cls-3" d="M295.21,1612.08a101.7,101.7,0,0,1,12.88-5.93,105.29,105.29,0,0,1,13.61-4l1.88,8.9a96.27,96.27,0,0,0-12.31,3.58,92.68,92.68,0,0,0-11.64,5.36Z" transform="translate(-133.5 -1508.15)"/><path class="cls-3" d="M251.59,1664a95.94,95.94,0,0,1,22.13-35.56l6.48,6.38a86.85,86.85,0,0,0-20,32.17Z" transform="translate(-133.5 -1508.15)"/><path class="cls-3" d="M246.66,1702.73c-0.24-2.35-.25-4.72-0.34-7.08s0-4.73.25-7.09,0.45-4.71.73-7.06,0.75-4.67,1.3-7l8.87,2c-0.5,2.08-.82,4.19-1.18,6.3s-0.56,4.24-.66,6.38-0.18,4.27-.23,6.41,0.08,4.28.31,6.4Z" transform="translate(-133.5 -1508.15)"/><path class="cls-3" d="M355.19,1789.17a94.31,94.31,0,0,1-36.34-1.66,95.41,95.41,0,0,1-33-15.24l5.31-7.38A86.32,86.32,0,0,0,321,1778.68a85.21,85.21,0,0,0,32.85,1.5Z" transform="translate(-133.5 -1508.15)"/><path class="cls-3" d="M423.41,1743.15a95.41,95.41,0,0,1-24,27.31,94.31,94.31,0,0,1-32.55,16.24l-2.43-8.76a85.2,85.2,0,0,0,29.42-14.68,86.32,86.32,0,0,0,21.72-24.71Z" transform="translate(-133.5 -1508.15)"/><polygon class="cls-3" points="295.83 223.02 294.09 227.01 292.17 230.91 284.1 226.71 285.84 223.18 287.42 219.57 295.83 223.02"/><polygon class="cls-3" points="301.94 200.68 301.22 204.97 300.29 209.23 291.45 207.1 292.29 203.25 292.94 199.37 301.94 200.68"/><polygon class="cls-3" points="302.43 177.52 302.78 181.86 302.92 186.21 293.83 186.3 293.7 182.36 293.38 178.44 302.43 177.52"/><path class="cls-3" d="M384.93,1611.53a94.49,94.49,0,0,1,39.34,38.68l-7.06,3.82a86.46,86.46,0,0,0-36-35.38Z" transform="translate(-133.5 -1508.15)"/><path class="cls-3" d="M321.85,1602.92A104.13,104.13,0,0,1,335.7,1601a93.85,93.85,0,0,1,27.79,2.45,103.17,103.17,0,0,1,13.31,4.28l-3,7.44a86.16,86.16,0,0,0-50.27-4.44Z" transform="translate(-133.5 -1508.15)"/><path class="cls-3" d="M302.52,1693.43a38.22,38.22,0,0,1,2.63-12.49,40.09,40.09,0,0,1,6.56-10.94,39,39,0,0,1,21.6-12.93l1.49,7a31.82,31.82,0,0,0-17.6,10.54,32.91,32.91,0,0,0-5.36,8.92,31,31,0,0,0-2.14,10.17Z" transform="translate(-133.5 -1508.15)"/><path class="cls-3" d="M380.09,1691a39.07,39.07,0,0,1-5.57,24.56,40.05,40.05,0,0,1-8.36,9.63,37.64,37.64,0,0,1-11.05,6.38l-2.53-6.73a30.44,30.44,0,0,0,9-5.19,32.86,32.86,0,0,0,6.81-7.86,31.86,31.86,0,0,0,4.55-20Z" transform="translate(-133.5 -1508.15)"/><polygon class="cls-3" points="199.81 148.93 202.42 148.51 203.73 148.3 205.05 148.22 207.7 148.08 210.34 148.19 209.89 155.37 207.74 155.28 205.58 155.4 204.5 155.46 203.44 155.63 201.3 155.97 199.81 148.93"/><path class="cls-3" d="M273.35,1680.29A69.69,69.69,0,0,1,327,1627l1.92,9.09a60.39,60.39,0,0,0-46.45,46.15Z" transform="translate(-133.5 -1508.15)"/><path class="cls-3" d="M275.7,1718.27a69,69,0,0,1-3.69-17.09,68,68,0,0,1,.68-17.47l9.17,1.53a58.69,58.69,0,0,0-.59,15.13,59.75,59.75,0,0,0,3.2,14.83Z" transform="translate(-133.5 -1508.15)"/><path class="cls-3" d="M319.64,1761.32a70.05,70.05,0,0,1-29.24-18.7l6.8-6.34a60.76,60.76,0,0,0,25.35,16.21Z" transform="translate(-133.5 -1508.15)"/><path class="cls-3" d="M406.48,1719.85a70.13,70.13,0,0,1-20,28.38l-6-7.07a60.84,60.84,0,0,0,17.32-24.6Z" transform="translate(-133.5 -1508.15)"/><path class="cls-3" d="M408.37,1657.45a77.19,77.19,0,0,1,8.68,24.34,79.43,79.43,0,0,1,1.21,12.91,78.45,78.45,0,0,1-1,12.94l-16.3-2.68a60.73,60.73,0,0,0-7-39.4Z" transform="translate(-133.5 -1508.15)"/><path class="cls-3" d="M325.24,1619a80.68,80.68,0,0,1,19.64-1.62,78,78,0,0,1,52.7,23.91l-11.91,11.45a61.53,61.53,0,0,0-41.52-18.85,64.19,64.19,0,0,0-15.48,1.28Z" transform="translate(-133.5 -1508.15)"/><path class="cls-3" d="M233.77,1820.51a163.76,163.76,0,0,1-38.51-48.26,165.85,165.85,0,0,1-18.18-59l5.75-.64a160.05,160.05,0,0,0,17.54,56.94,158,158,0,0,0,37.16,46.57Z" transform="translate(-133.5 -1508.15)"/><path class="cls-3" d="M278.6,1847.9a164.12,164.12,0,0,1-35-19.59l3.42-4.67a158.33,158.33,0,0,0,33.77,18.91Z" transform="translate(-133.5 -1508.15)"/><path class="cls-3" d="M377.28,1856.39a164.78,164.78,0,0,1-58.23,2.38l0.79-5.73a159,159,0,0,0,56.18-2.3Z" transform="translate(-133.5 -1508.15)"/><path class="cls-3" d="M424.82,1837.7A170.36,170.36,0,0,1,388,1853.6l-1.64-5.55a164.59,164.59,0,0,0,35.55-15.34Z" transform="translate(-133.5 -1508.15)"/><path class="cls-3" d="M502.43,1732c-0.55,2.19-1,4.39-1.63,6.56l-1.9,6.49-2.2,6.4c-0.72,2.14-1.64,4.2-2.45,6.3a171,171,0,0,1-12.22,24.1,164.41,164.41,0,0,1-16,21.75,158.15,158.15,0,0,1-19.35,18.86l-3.68-4.47a152.38,152.38,0,0,0,18.67-18.19,158.61,158.61,0,0,0,15.47-21,165.2,165.2,0,0,0,11.8-23.26c0.78-2,1.67-4,2.36-6.08l2.12-6.17,1.83-6.26c0.6-2.09,1-4.22,1.58-6.33Z" transform="translate(-133.5 -1508.15)"/><path class="cls-3" d="M504.63,1669.29a166.85,166.85,0,0,1,1.69,36.39l-5.78-.38a161,161,0,0,0-1.63-35.11Z" transform="translate(-133.5 -1508.15)"/><path class="cls-3" d="M431.4,1556.44a162.85,162.85,0,0,1,28.2,23.05l-4.14,4a157.06,157.06,0,0,0-27.21-22.24Z" transform="translate(-133.5 -1508.15)"/><path class="cls-3" d="M265.5,1548.18A165.4,165.4,0,0,1,351.29,1530l-0.35,5.78a159.6,159.6,0,0,0-82.78,17.5Z" transform="translate(-133.5 -1508.15)"/></g></g></g></svg>