<svg preserveAspectRatio="none" id="Layer_1" data-name="Layer 1" xmlns="http://www.w3.org/2000/svg" viewBox="0 0 108.67 108.67"><defs><linearGradient id="linear-gradient" x1="591.31" y1="390" x2="486.43" y2="390" gradientUnits="userSpaceOnUse"><stop offset=".03" stop-color="#3ee497"/><stop offset="1" stop-color="#2e2855"/></linearGradient><style>.cls-1{fill:#2e2855}</style></defs><path class="cls-1" d="M538.48 444.33A54.33 54.33 0 11592.81 390a54.39 54.39 0 01-54.33 54.33zm0-100.67A46.33 46.33 0 10584.81 390a46.39 46.39 0 00-46.33-46.33z" transform="translate(-484.15 -335.67)"/><path d="M538.48 442.83a52.71 52.71 0 01-52-43.7l4.93-.86a47.81 47.81 0 1028.5-52.35l-1.95-4.61a52.84 52.84 0 1120.52 101.52z" transform="translate(-484.15 -335.67)" fill="url(#linear-gradient)"/><path class="cls-1" d="M524.56 358.64l-3.24-7.31a42.55 42.55 0 015.5-2L529 357a34.77 34.77 0 00-4.44 1.64zM550.15 430.71l-2.2-7.69a34.32 34.32 0 004.54-1.66l3.26 7.31a42.6 42.6 0 01-5.6 2.04zM518.34 362.23l-4.69-6.48a42.41 42.41 0 015-3.1l3.75 7.06a34.54 34.54 0 00-4.06 2.52zM558.36 427.4l-3.76-7.06a34.86 34.86 0 004.09-2.57l4.71 6.47a42.62 42.62 0 01-5.04 3.16zM513 367l-5.94-5.36a42.65 42.65 0 014.21-4.07l5.14 6.13A34.74 34.74 0 00513 367zM565.7 422.46l-5.14-6.13A34.72 34.72 0 00564 413l5.95 5.35a42.64 42.64 0 01-4.25 4.11zM508.79 372.84l-6.92-4a42.87 42.87 0 013.27-4.85l6.31 4.92a34.74 34.74 0 00-2.66 3.93zM571.86 416.1l-6.3-4.93a34.59 34.59 0 002.7-4l6.93 4a42.78 42.78 0 01-3.33 4.93zM505.87 379.4l-7.6-2.49a42.71 42.71 0 012.19-5.43l7.19 3.51a34.69 34.69 0 00-1.78 4.41zM576.56 408.6l-7.19-3.51a34.72 34.72 0 001.8-4.49l7.61 2.47a42.83 42.83 0 01-2.22 5.53zM504.38 386.42l-8-.85a42.82 42.82 0 011-5.76l7.76 1.93a34.75 34.75 0 00-.76 4.68zM579.59 400.28l-7.76-1.93a34.62 34.62 0 00.83-4.76l8 .83a42.75 42.75 0 01-1.07 5.86zM496.42 394.41a42.85 42.85 0 01-.21-5.85l8 .28a34.77 34.77 0 00.17 4.75zM580.83 391.52l-8-.28a34.59 34.59 0 00-.18-4.83l8-.84a42.34 42.34 0 01.18 5.95zM498.26 403.07a42.7 42.7 0 01-1.42-5.67l7.88-1.39a34.91 34.91 0 001.15 4.61zM572.35 384.08a34.59 34.59 0 00-1.18-4.69l7.61-2.48a42.81 42.81 0 011.45 5.77zM501.86 411.16a42.67 42.67 0 01-2.57-5.26l7.42-3a34.63 34.63 0 002.09 4.27zM570.38 377.18a34.55 34.55 0 00-2.13-4.34l6.93-4a42.6 42.6 0 012.62 5.35zM507.06 418.32a42.81 42.81 0 01-3.61-4.61l6.63-4.47A34.51 34.51 0 00513 413zM567 370.84a34.47 34.47 0 00-3-3.8l5.94-5.36a42.62 42.62 0 013.67 4.69zM513.64 424.24a42.72 42.72 0 01-4.48-3.76l5.56-5.76a34.64 34.64 0 003.64 3.05zM562.41 365.33a34.7 34.7 0 00-3.71-3.1l4.7-6.48a42.41 42.41 0 014.57 3.82zM521.3 428.67a42.61 42.61 0 01-5.17-2.74l4.24-6.79a34.59 34.59 0 004.2 2.23zM556.76 360.91a34.68 34.68 0 00-4.27-2.26l3.25-7.31a42.7 42.7 0 015.26 2.79zM529.72 431.4a42.74 42.74 0 01-5.62-1.61l2.73-7.52a34.78 34.78 0 004.57 1.3zM550.31 357.75a34.37 34.37 0 00-4.65-1.32l1.66-7.83a42.68 42.68 0 015.73 1.63zM538.52 432.33a42.54 42.54 0 01-5.84-.41l1.12-7.92a34.67 34.67 0 004.74.33v8zM543.35 356a34.71 34.71 0 00-4.8-.33v-8a42.71 42.71 0 015.91.41zM541.52 432.23l-.56-8a34.75 34.75 0 004.7-.66l1.65 7.83a42.61 42.61 0 01-5.79.83zM531.39 356.43l-1.67-7.82a42.85 42.85 0 015.89-.84l.56 8a34.87 34.87 0 00-4.78.66z" transform="translate(-484.15 -335.67)"/><path d="M538.52 432.33a42.54 42.54 0 01-5.84-.41l1.12-7.92a34.67 34.67 0 004.74.33v8zm3-.11l-.56-8a34.75 34.75 0 004.7-.66l1.65 7.83a42.61 42.61 0 01-5.79.84zm-11.81-.82a42.74 42.74 0 01-5.62-1.61l2.73-7.52a34.78 34.78 0 004.57 1.3zm-8.41-2.74a42.61 42.61 0 01-5.17-2.74l4.24-6.79a34.59 34.59 0 004.2 2.23zm-7.67-4.43a42.72 42.72 0 01-4.48-3.76l5.56-5.76a34.64 34.64 0 003.64 3.05zm-6.58-5.92a42.81 42.81 0 01-3.61-4.61l6.63-4.47A34.51 34.51 0 00513 413zm-5.2-7.16a42.67 42.67 0 01-2.57-5.26l7.42-3a34.63 34.63 0 002.09 4.27zm-3.6-8.09a42.7 42.7 0 01-1.42-5.67l7.88-1.39a34.91 34.91 0 001.15 4.61zm72.11-25.89a34.55 34.55 0 00-2.13-4.34l6.93-4a42.6 42.6 0 012.62 5.35zm-3.36-6.33a34.47 34.47 0 00-3-3.8l5.94-5.36a42.62 42.62 0 013.67 4.69zm-4.6-5.5a34.7 34.7 0 00-3.71-3.1l4.7-6.48a42.41 42.41 0 014.57 3.82zm-5.65-4.43a34.68 34.68 0 00-4.27-2.26l3.25-7.31a42.7 42.7 0 015.26 2.79zm-32.2-2.27l-3.24-7.31a42.55 42.55 0 015.5-2L529 357a34.77 34.77 0 00-4.44 1.64zm25.75-.88a34.52 34.52 0 00-4.65-1.32l1.66-7.83a42.68 42.68 0 015.73 1.63zm-18.92-1.32l-1.67-7.82a42.85 42.85 0 015.89-.84l.56 8a34.87 34.87 0 00-4.77.65zm12-.42a42.6 42.6 0 00-4.82-.33v-8a42.71 42.71 0 015.92.41z" transform="translate(-484.15 -335.67)" fill="#d13954"/></svg>