<svg preserveAspectRatio="none" id="Layer_1" data-name="Layer 1" xmlns="http://www.w3.org/2000/svg" viewBox="0 0 66.87 66.27"><defs><style>.cls-1{fill:aqua;}</style></defs><title>circle96</title><g id="_编组_" data-name="&lt;编组&gt;"><path id="_复合路径_" data-name="&lt;复合路径&gt;" class="cls-1" d="M589.5,91.56a19.82,19.82,0,1,1,19.82-19.82A19.84,19.84,0,0,1,589.5,91.56Zm0-37.17a17.35,17.35,0,1,0,17.35,17.35A17.37,17.37,0,0,0,589.5,54.39Z" transform="translate(-558.08 -36.9)"/><path id="_复合路径_2" data-name="&lt;复合路径&gt;" class="cls-1" d="M569.14,79.91a21.94,21.94,0,1,1,42.11-11.13l-1.22.17a20.71,20.71,0,1,0-39.74,10.5Zm41.63-2.72-1.2-.31a20.77,20.77,0,0,0,.64-5.14h1.24A22,22,0,0,1,610.76,77.19Z" transform="translate(-558.08 -36.9)"/><path id="_路径_" data-name="&lt;路径&gt;" class="cls-1" d="M589.5,97.3a25.56,25.56,0,0,1-16.63-6.15l0.8-.94a24.32,24.32,0,1,0,17.67-42.72l0.09-1.23A25.56,25.56,0,0,1,589.5,97.3Z" transform="translate(-558.08 -36.9)"/><path id="_路径_2" data-name="&lt;路径&gt;" class="cls-1" d="M623.82,80.62l-12-3.09a23.12,23.12,0,0,0-18.09-28.48L596,36.9A35.48,35.48,0,0,1,623.82,80.62Z" transform="translate(-558.08 -36.9)"/><path id="_复合路径_3" data-name="&lt;复合路径&gt;" class="cls-1" d="M589.5,103.17a31.43,31.43,0,1,1,31.43-31.43A31.46,31.46,0,0,1,589.5,103.17Zm0-62.6a31.18,31.18,0,1,0,31.18,31.18A31.21,31.21,0,0,0,589.5,40.57Z" transform="translate(-558.08 -36.9)"/><g id="_编组_2" data-name="&lt;编组&gt;"><g id="_编组_3" data-name="&lt;编组&gt;"><path id="_复合路径_4" data-name="&lt;复合路径&gt;" class="cls-1" d="M589.5,89.64A17.89,17.89,0,1,1,607.4,71.74,17.91,17.91,0,0,1,589.5,89.64Zm0-35.54a17.64,17.64,0,1,0,17.64,17.64A17.66,17.66,0,0,0,589.5,54.1Z" transform="translate(-558.08 -36.9)"/><path id="_复合路径_5" data-name="&lt;复合路径&gt;" class="cls-1" d="M589.5,86.67a14.93,14.93,0,1,1,14.93-14.93A14.95,14.95,0,0,1,589.5,86.67Zm0-29.61a14.68,14.68,0,1,0,14.68,14.68A14.7,14.7,0,0,0,589.5,57.06Z" transform="translate(-558.08 -36.9)"/><path id="_复合路径_6" data-name="&lt;复合路径&gt;" class="cls-1" d="M589.5,83.71a12,12,0,1,1,12-12A12,12,0,0,1,589.5,83.71Zm0-23.69a11.72,11.72,0,1,0,11.72,11.72A11.73,11.73,0,0,0,589.5,60Z" transform="translate(-558.08 -36.9)"/><path id="_复合路径_7" data-name="&lt;复合路径&gt;" class="cls-1" d="M589.5,80.75a9,9,0,1,1,9-9A9,9,0,0,1,589.5,80.75Zm0-17.77a8.76,8.76,0,1,0,8.76,8.76A8.77,8.77,0,0,0,589.5,63Z" transform="translate(-558.08 -36.9)"/><path id="_复合路径_8" data-name="&lt;复合路径&gt;" class="cls-1" d="M589.5,77.79a6,6,0,1,1,6-6A6.05,6.05,0,0,1,589.5,77.79Zm0-11.85a5.8,5.8,0,1,0,5.8,5.8A5.81,5.81,0,0,0,589.5,65.94Z" transform="translate(-558.08 -36.9)"/><path id="_复合路径_9" data-name="&lt;复合路径&gt;" class="cls-1" d="M589.5,74.83a3.08,3.08,0,1,1,3.08-3.08A3.09,3.09,0,0,1,589.5,74.83Zm0-5.92a2.84,2.84,0,1,0,2.84,2.84A2.84,2.84,0,0,0,589.5,68.91Z" transform="translate(-558.08 -36.9)"/></g><g id="_编组_4" data-name="&lt;编组&gt;"><rect id="_路径_3" data-name="&lt;路径&gt;" class="cls-1" x="31.3" y="34.84" width="0.25" height="17.77"/><polygon id="_路径_4" data-name="&lt;路径&gt;" class="cls-1" points="48.29 40.45 31.39 34.96 31.46 34.73 48.36 40.22 48.29 40.45"/><polygon id="_路径_5" data-name="&lt;路径&gt;" class="cls-1" points="31.52 34.91 31.33 34.77 41.77 20.4 41.97 20.54 31.52 34.91"/><polygon id="_路径_6" data-name="&lt;路径&gt;" class="cls-1" points="31.33 34.91 20.88 20.54 21.08 20.4 31.52 34.77 31.33 34.91"/><polygon id="_路径_7" data-name="&lt;路径&gt;" class="cls-1" points="14.56 40.45 14.49 40.22 31.39 34.73 31.46 34.96 14.56 40.45"/></g></g></g></svg>