<svg preserveAspectRatio="none" id="Layer_1" data-name="Layer 1" xmlns="http://www.w3.org/2000/svg" viewBox="0 0 71.22 68.26"><defs><style>.cls-1{fill:#08ade5;}.cls-2{fill:#065977;}.cls-3{fill:#00b3ea;}.cls-10,.cls-11,.cls-12,.cls-13,.cls-4,.cls-5,.cls-6,.cls-7,.cls-8,.cls-9{fill:#feb113;}.cls-4{opacity:0.1;}.cls-5{opacity:0.2;}.cls-6{opacity:0.3;}.cls-7{opacity:0.4;}.cls-8{opacity:0.5;}.cls-9{opacity:0.6;}.cls-10{opacity:0.7;}.cls-11{opacity:0.8;}.cls-12{opacity:0.9;}</style></defs><title>circle42</title><path class="cls-1" d="M405.51,345.6v-0.05s0,0,0-.06c0-.21,0-0.42,0-0.63l0-.46c0-.13,0-0.27,0-0.4l0-.28,0-.16-0.12-.92v-0.07l-0.1-.55-0.06-.37,0-.23c0-.12-0.06-0.24-0.08-0.36l0-.07-0.16-.71-0.07-.25q-0.07-.26-0.14-0.51l-0.11-.38-0.13-.37-0.06-.17,0-.11-0.15-.46-0.29-.73c0-.12-0.09-0.24-0.14-0.36l-0.16-.35c-0.11-.23-0.21-0.47-0.32-0.7l-0.18-.35-0.19-.36c-0.06-.12-0.12-0.23-0.19-0.35a20.07,20.07,0,0,0-1.43-2.27c-0.47-.67-0.92-1.22-1.29-1.66l-0.23-.27-0.07-.08-0.14-.17-0.13-.14,0,0-0.5-.53a24,24,0,0,0-2.88-2.48l-0.5-.35-0.2-.14-0.17-.11-0.32-.2-0.48.75,0.31,0.19,0.17,0.11,0.19,0.14,0.48,0.34a23,23,0,0,1,2.77,2.39l0.15,0.15-2.08,2,0.15,0.16,0.18,0.18,0.11,0.12,0.12,0.14a19.13,19.13,0,0,1,1.34,1.69c0.27,0.36.52,0.77,0.8,1.2l0.39,0.68c0.07,0.11.13,0.24,0.19,0.36l0.19,0.37a19.76,19.76,0,0,1,1.27,3.23c0.17,0.57.3,1.14,0.42,1.71l0.15,0.85q0,0.43.11,0.84a22.16,22.16,0,0,1,.09,3.05c0,0.11,0,.22,0,0.33l0,0.31,0,0.3v0.14l0,0.14c-0.05.36-.08,0.67-0.12,0.93-0.1.51-.14,0.8-0.14,0.8l2.84,0.57c0,0.07,0,.14,0,0.21-0.09.37-.16,0.72-0.25,1.06l-0.27.94c-0.09.29-.19,0.56-0.27,0.81s-0.08.25-.13,0.36l-0.13.32-0.21.55c-0.06.16-.13,0.29-0.18,0.4l-0.15.33,0.8,0.37,0.16-.34c0-.11.12-0.25,0.18-0.41l0.22-.57,0.13-.34c0-.12.08-0.24,0.13-0.37s0.19-.54.28-0.85l0.28-1c0.09-.35.16-0.72,0.26-1.1,0-.07,0-0.14,0-0.21h0l0.16-.91,0-.09v-0.09c0-.17,0-0.36.07-0.56s0-.3.06-0.46,0-.09,0-0.13v-0.07c0-.23,0-0.45.05-0.69v-0.13c0-.13,0-0.26,0-0.39s0-.33,0-0.5C405.52,346.36,405.52,346,405.51,345.6Z" transform="translate(-344.91 -309.9)"/><path class="cls-2" d="M367.65,363.39l0.07,0.06,0.21,0.17,0.34,0.27,0.22,0.17,0.25,0.19a23.2,23.2,0,0,0,3.11,1.92l0.51,0.27,0.55,0.25,0.28,0.13,0.14,0.06,0.15,0.06,0.6,0.23,0.3,0.12,0.31,0.1,0.64,0.22L376,367.8l0.34,0.1,0.17,0,0.17,0a22.53,22.53,0,0,0,5.88.65l0.76,0,0.75-.06,0.38,0,0.37,0,0.74-.09,0.73-.13,0.36-.06,0.36-.08,0.71-.16,0.69-.19,0.34-.1,0.33-.11,0.65-.22,0.32-.12,0.31-.12,0.61-.24,0.58-.26,0.29-.13,0.28-.14,0.54-.27,0.26-.14,0.25-.14c0.33-.19.65-0.36,0.93-0.56l0.42-.27,0.2-.13,0.19-.14,0.7-.5,0.57-.45,0.25-.19,0.21-.18L397,363l0.28-.24,0.59,0.66-0.29.25-0.34.3-0.22.19-0.26.2-0.6.47-0.73.52-0.2.14-0.21.14-0.44.28c-0.3.2-.63,0.38-1,0.58l-0.26.15-0.27.14-0.56.28-0.29.14-0.3.13-0.61.28-0.63.25-0.32.13-0.33.12-0.68.23-0.35.11-0.35.1-0.71.2-0.73.17-0.37.09-0.38.07-0.76.14-0.77.1-0.39.05-0.39,0-0.78.06-0.79,0a23.44,23.44,0,0,1-6.11-.68l-0.18,0-0.18,0-0.35-.1-0.69-.2-0.66-.23-0.33-.11-0.32-.13-0.62-.24-0.15-.06-0.15-.07-0.29-.13-0.57-.26-0.54-.27a24,24,0,0,1-3.23-2l-0.26-.2-0.23-.18-0.36-.28-0.22-.18-0.07-.06Z" transform="translate(-344.91 -309.9)"/><path class="cls-2" d="M382,323.6l-0.61,0H381l-0.38,0-0.9.07-1.06.13-1.17.21-0.61.14c-0.21,0-.42.09-0.63,0.15-0.42.12-.85,0.23-1.26,0.38l-0.63.21-0.61.24c-0.41.15-.79,0.34-1.17,0.51l-0.28.13L372,326l-0.52.27c-0.17.08-.33,0.18-0.48,0.27l-0.45.26c-0.15.08-.28,0.17-0.41,0.25l-0.36.23-0.32.2-0.26.19-0.5.35-0.53-.71,0.52-.37,0.27-.19,0.33-.21,0.38-.24c0.13-.09.27-0.18,0.42-0.26l0.47-.27c0.16-.09.32-0.19,0.5-0.28l0.54-.28,0.28-.14,0.29-.13c0.39-.17.79-0.37,1.22-0.53l0.63-.25,0.65-.22c0.43-.16.88-0.27,1.31-0.4,0.22-.07.44-0.11,0.65-0.16l0.64-.15,1.22-.22,1.11-.14,0.94-.07,0.39,0h0.33l0.63,0v0.88Z" transform="translate(-344.91 -309.9)"/><path class="cls-2" d="M354.7,357l0.22,0.56c0.08,0.18.18,0.4,0.29,0.66l0.19,0.42c0.07,0.15.14,0.31,0.22,0.47a28.46,28.46,0,0,0,3.21,5.13,28.83,28.83,0,0,0,2.69,3l0.79,0.75,0.85,0.73,0.22,0.18,0.22,0.18,0.45,0.35,0.46,0.36,0.48,0.34c0.32,0.23.64,0.46,1,.67l0.5,0.32c0.17,0.11.34,0.22,0.51,0.32L368,372l1.09,0.56a29.91,29.91,0,0,0,4.64,1.8l0.6,0.17,0.3,0.09,0.3,0.07L376.2,375l1.23,0.22c0.2,0,.41.06,0.61,0.09l0.61,0.08c0.41,0.06.82,0.08,1.22,0.12l0.61,0,0.61,0,0.6,0c0.2,0,.4,0,0.6,0l1.18,0A31.72,31.72,0,0,0,388,375l1-.23,0.51-.12,0.49-.14,1-.28,0.91-.31,0.44-.15,0.42-.17,0.82-.32,0.76-.34,0.36-.16,0.35-.17,0.66-.34,0.31-.16,0.3-.16,1.05-.6,0.82-.52c0.24-.15.44-0.28,0.6-0.4l0.49-.35,2.64,3.69,0.34-.24c0.22-.15.53-0.4,0.93-0.71l0.66-.52,0.75-.65,0.41-.36,0.42-.4,0.44-.42c0.15-.14.31-0.29,0.45-0.45a34.26,34.26,0,0,0,7.08-10.49,33.66,33.66,0,0,0,2-6.48,34.35,34.35,0,0,0,.69-5.88c0-.22,0-0.43,0-0.64s0-.41,0-0.61l0-1.12c0-.18,0-0.35,0-0.51l0-.47L416,343l0-.36,0-.31-0.06-.5-0.05-.41-4.8.66,0,0.38,0.06,0.44c0,0.09,0,.18,0,0.27l0,0.3,0.05,0.68,0,0.37c0,0.13,0,.26,0,0.39s0,0.54,0,.81,0,0.28,0,.42v0.42l0,0.84c0,0.07,0,.14,0,0.21v0.2l0,0.4-0.06.76c0,0.12,0,.24,0,0.35l0,0.33c-0.06.42-.09,0.77-0.13,1l-0.07.38-1.78-.3-0.06.34c0,0.22-.09.53-0.18,0.9l-0.14.59-0.07.32c0,0.11-.06.22-0.09,0.34l-0.2.7c0,0.12-.07.24-0.1,0.36l-0.12.36-0.24.71-0.06.18-0.07.17-0.13.33-0.25.63c-0.08.2-.17,0.38-0.25,0.56-0.16.34-.28,0.63-0.38,0.83l-0.16.31-0.95-.47-0.11.22c-0.07.14-.17,0.35-0.32,0.61l-0.53.93c0,0.09-.11.18-0.17,0.27l-0.18.28-0.39.61-0.46.65-0.24.34-0.26.34-0.55.7-0.61.71c-0.2.24-.43,0.47-0.66,0.71s-0.45.48-.69,0.71-0.48.47-.73,0.69l-0.77.66a28.91,28.91,0,0,1-3.23,2.31c-0.55.31-1.07,0.63-1.6,0.89l-0.38.2-0.37.18-0.72.33-0.34.15-0.33.13-0.61.24c-0.19.08-.37,0.14-0.54,0.2l-0.46.16-0.37.13-0.28.08-0.23.07,0.3,1-0.44.12-0.24.07-0.29.07-0.72.17a26.93,26.93,0,0,1-4.53.63,27.62,27.62,0,0,1-6.45-.42l-0.44-.08-0.44-.1-0.88-.2-0.89-.25-0.45-.13-0.44-.15-0.89-.3-0.88-.35-0.44-.18-0.43-.19-0.43-.19-0.43-.2-0.84-.43-0.21-.11-0.21-.12-0.41-.24-0.41-.23c-0.14-.08-0.27-0.17-0.4-0.25l-0.79-.51-0.76-.54-0.37-.27-0.36-.28c-0.24-.19-0.48-0.37-0.71-0.56l-0.68-.59c-0.23-.19-0.44-0.4-0.65-0.6s-0.42-.4-0.62-0.6l-0.58-.61-0.28-.3-0.27-.31-0.53-.61-0.48-.61-0.24-.3-0.12-.15-0.11-.15-0.42-.59a28.08,28.08,0,0,1-2.3-4l-0.3-.67c-0.09-.2-0.17-0.36-0.22-0.5l-0.17-.42Z" transform="translate(-344.91 -309.9)"/><path class="cls-3" d="M410.23,328.41l-0.32-.5-0.2-.32-0.24-.35-0.58-.81-0.16-.22-0.18-.23-0.37-.48-0.4-.51-0.45-.52c-0.31-.35-0.62-0.73-1-1.1a33.62,33.62,0,0,0-5.3-4.58,32.93,32.93,0,0,0-7.1-3.75l-0.48-.18-0.49-.17-1-.33-1-.28c-0.33-.09-0.65-0.19-1-0.26l-1-.23-0.24-.06-0.25,0-0.49-.09-1-.17-1-.12a33.39,33.39,0,0,0-7-.12l-0.38,0-0.37,0-0.71.09-0.68.09-0.64.11-0.6.11-0.55.11-1,.22-0.41.1-0.36.1-0.57.16-0.47.14-1.34-4.42-0.11,0-0.33.1-1.24.42c-0.27.09-.56,0.2-0.88,0.33l-1,.41c-0.36.15-.74,0.33-1.14,0.51l-0.62.28-0.63.32a37.17,37.17,0,0,0-5.61,3.46l-1.45,1.13-1.42,1.23c-0.46.44-.93,0.87-1.38,1.32l-0.67.7-0.33.35-0.17.18-0.16.18a38.16,38.16,0,0,0-4.46,6.09,37.61,37.61,0,0,0-2.84,6c-0.09.22-.16,0.45-0.24,0.67l-0.22.64-0.2.61c-0.06.2-.12,0.4-0.17,0.58l-0.3,1.06c0,0.16-.09.32-0.12,0.47l-0.1.43c-0.13.55-.23,1-0.29,1.28l-0.08.46,4.54,0.85-0.17,1c0,0.14,0,.3-0.07.47l-0.07.52-0.07.56,0,0.29,0,0.29-0.09,1.14,0,0.27v0.72l0,1h1.19l0,0.63c0,0.41,0,1,.08,1.77a31.28,31.28,0,0,0,1.09,6.24c0.09,0.31.18,0.64,0.28,1l0.33,1c0.06,0.17.11,0.34,0.18,0.51l0.2,0.51,0.2,0.51c0.07,0.17.13,0.35,0.21,0.52l0.47,1,0.12,0.26,0.13,0.26,0.27,0.52,0.27,0.53,0.3,0.52,0.3,0.53c0.1,0.18.2,0.35,0.32,0.52l0.67,1,0.73,1,0.18,0.26,0.2,0.25L357,366l0.4,0.5,0.42,0.49a31.28,31.28,0,0,0,3.71,3.66,33.13,33.13,0,0,0,4.25,3,30.92,30.92,0,0,0,4.54,2.22c0.76,0.32,1.53.56,2.28,0.81s1.5,0.44,2.24.6l0.55,0.13,0.27,0.06,0.27,0,1.06,0.19,0.26,0,0.26,0L378,377.9l0.5,0.06L379,378a33.73,33.73,0,0,0,6.32,0l1-.13,0.75-.1,0.62-.11-0.15-.87-0.6.11-0.73.1-1,.12a32.8,32.8,0,0,1-6.15,0l-0.48-.05-0.49-.06-0.5-.06-0.25,0-0.25,0-1-.18-0.26,0-0.26-.06-0.53-.12c-0.72-.15-1.43-0.37-2.17-0.58s-1.48-.48-2.21-0.79a30,30,0,0,1-4.41-2.16,32.27,32.27,0,0,1-4.14-2.93,30.36,30.36,0,0,1-3.6-3.56l-0.41-.47-0.39-.49-0.38-.49-0.19-.24-0.18-.25-0.71-1-0.65-1c-0.11-.17-0.21-0.34-0.31-0.51l-0.29-.51-0.29-.51-0.26-.52-0.26-.51-0.13-.25-0.12-.26-0.46-1c-0.08-.16-0.14-0.34-0.21-0.5l-0.2-.5-0.19-.49c-0.06-.16-0.11-0.33-0.17-0.49l-0.32-1c-0.1-.32-0.18-0.63-0.27-0.94a30.35,30.35,0,0,1-1.06-6.06c-0.07-.74-0.07-1.33-0.08-1.72v-0.61h2.54l0-.9q0-.21,0-0.47c0-.17,0-0.36,0-0.56l0-.63,0-.34c0-.12,0-0.24,0-0.36l0.1-.76c0-.13,0-0.26.05-0.4l0.07-.41,0.15-.85c0.06-.29.13-0.58,0.2-0.88,0.12-.6.32-1.21,0.49-1.83,0-.16.1-0.31,0.15-0.46l0.16-.46,0.16-.46c0.05-.15.12-0.3,0.18-0.46l0.36-.91,0.4-.89c0.07-.15.13-0.29,0.2-0.44l0.22-.42c0.15-.28.28-0.56,0.43-0.83l0.45-.78,0.22-.38,0.23-.36,0.44-.69c0.15-.22.3-0.42,0.44-0.63l0.41-.57,0.39-.5c0.25-.31.46-0.59,0.65-0.8l0.59-.68,1.72,1.54s0.09-.11.29-0.31l0.35-.37,0.22-.23,0.12-.13,0.14-.13,0.62-.59,0.17-.16,0.19-.16,0.39-.34,0.42-.36,0.46-.36,0.49-.38,0.53-.38,0.55-.39,0.59-.38c0.4-.27.83-0.5,1.27-0.76,0.22-.13.45-0.24,0.68-0.36l0.7-.36,0.73-.33,0.37-.17,0.38-.15,0.78-.31,0.8-.28,0.4-.14,0.41-.12,0.83-.24,0.85-.2,0.43-.1,0.43-.08,0.87-.16,0.88-.12a26.51,26.51,0,0,1,6.91.06l0.41,0.06,0.4,0.07,0.79,0.14,0.77,0.18c0.25,0.06.5,0.11,0.75,0.18l0.72,0.2L390,321l0.34,0.12,0.67,0.22,0.16,0.05,0.16,0.06,0.31,0.12,0.6,0.24,0.29,0.12,0.28,0.13c0.37,0.17.72,0.31,1,.49l0.89,0.46,0.74,0.43,0.32,0.18,0.27,0.17,0.43,0.27,0.27,0.17,0.09,0.06,1.29-1.91,0.43,0.31c0.27,0.2.67,0.46,1.12,0.83a27.45,27.45,0,0,1,3.13,2.83l0.4,0.42L403.4,327l0.19,0.22,0.37,0.42c0.12,0.14.24,0.28,0.35,0.42l0.64,0.82c0.1,0.13.19,0.26,0.28,0.39l0.26,0.37,0.24,0.34,0.11,0.16,0.1,0.15,0.33,0.51,0.29,0.44,3.94-2.4Zm-40.11-11-0.22.09-0.82.37-0.58.27-0.67.35-0.37.19-0.19.1-0.19.11-0.83.48c-0.29.16-.58,0.35-0.88,0.55l-0.46.29-0.23.15-0.23.16-1,.68-1,.76a32,32,0,0,0-3.75,3.6,30.15,30.15,0,0,0-3.11,4.17l-0.17.26-0.15.27-0.3.53-0.3.52-0.27.52-0.26.5c-0.08.17-.17,0.33-0.24,0.49l-0.43.95c-0.14.3-.25,0.6-0.36,0.88l-0.32.8-0.45,1.33c-0.07.18-.11,0.35-0.15,0.5l-0.1.37-0.09.31-3.87-1.06,0.1-.35,0.12-.42c0-.16.1-0.35,0.17-0.56,0.14-.42.31-0.92,0.51-1.5l0.36-.91c0.13-.32.25-0.66,0.41-1l0.48-1.07c0.08-.19.18-0.37,0.27-0.55l0.29-.57,0.3-.58,0.33-.58,0.34-.59,0.18-.3,0.19-.3a34.2,34.2,0,0,1,3.51-4.71,36,36,0,0,1,4.24-4.06l1.09-.85,1.08-.77,0.26-.18,0.26-.17,0.52-.33c0.34-.22.67-0.43,1-0.62l0.93-.54,0.22-.13,0.22-.11,0.42-.22,0.76-.39,0.66-.31,0.93-.42,0.25-.1,0.09,0,1.53,3.7Z" transform="translate(-344.91 -309.9)"/><polygon class="cls-4" points="22.45 49.63 22.76 49.96 20.53 52.19 20.17 51.81 22.45 49.63"/><polygon class="cls-5" points="21.77 48.89 22.06 49.23 19.73 51.34 19.39 50.94 21.77 48.89"/><polygon class="cls-6" points="21.13 48.11 21.41 48.47 18.97 50.45 18.65 50.04 21.13 48.11"/><polygon class="cls-7" points="20.53 47.3 20.79 47.67 18.25 49.53 17.95 49.1 20.53 47.3"/><polygon class="cls-8" points="19.98 46.46 20.22 46.84 17.59 48.56 17.31 48.12 19.98 46.46"/><polygon class="cls-9" points="19.47 45.59 19.69 45.98 16.97 47.57 16.72 47.11 19.47 45.59"/><polygon class="cls-10" points="19.01 44.7 19.21 45.1 16.41 46.54 16.18 46.07 19.01 44.7"/><polygon class="cls-11" points="18.59 43.78 18.77 44.19 15.9 45.49 15.69 45.01 18.59 43.78"/><polygon class="cls-12" points="18.22 42.84 18.38 43.27 15.45 44.41 15.26 43.92 18.22 42.84"/><polygon class="cls-13" points="17.9 41.89 18.04 42.32 15.05 43.31 14.89 42.81 17.9 41.89"/><polygon class="cls-13" points="17.63 40.92 17.75 41.35 14.71 42.19 14.58 41.68 17.63 40.92"/><polygon class="cls-13" points="17.41 39.94 17.5 40.38 14.43 41.05 14.32 40.54 17.41 39.94"/><polygon class="cls-13" points="17.24 38.94 17.31 39.39 14.21 39.91 14.12 39.39 17.24 38.94"/><path class="cls-13" d="M362,347.84s0,0.11,0,.22l0,0.22-3.13.36,0-.26c0-.13,0-0.26,0-0.26Z" transform="translate(-344.91 -309.9)"/><path class="cls-13" d="M362,346.84s0,0.11,0,.23l0,0.22-3.14.2,0-.26c0-.13,0-0.26,0-0.26Z" transform="translate(-344.91 -309.9)"/><path class="cls-13" d="M362,345.83v0.45l-3.15,0v-0.52Z" transform="translate(-344.91 -309.9)"/><path class="cls-13" d="M362,344.82l0,0.22c0,0.11,0,.23,0,0.23l-3.14-.13s0-.13,0-0.26l0-.26Z" transform="translate(-344.91 -309.9)"/><path class="cls-13" d="M362.09,343.82l0,0.22c0,0.11,0,.22,0,0.22L358.9,344s0-.13,0-0.26l0-.26Z" transform="translate(-344.91 -309.9)"/><polygon class="cls-13" points="17.31 32.92 17.24 33.37 14.12 32.92 14.21 32.4 17.31 32.92"/><polygon class="cls-13" points="17.5 31.93 17.41 32.37 14.32 31.77 14.43 31.25 17.5 31.93"/><polygon class="cls-13" points="17.75 30.95 17.63 31.39 14.58 30.62 14.71 30.12 17.75 30.95"/><polygon class="cls-13" points="18.04 29.99 17.9 30.42 14.89 29.5 15.05 29 18.04 29.99"/><polygon class="cls-12" points="18.38 29.04 18.22 29.46 15.26 28.39 15.45 27.9 18.38 29.04"/><polygon class="cls-11" points="18.77 28.11 18.59 28.53 15.69 27.3 15.9 26.82 18.77 28.11"/><polygon class="cls-10" points="19.21 27.21 19.01 27.61 16.18 26.23 16.41 25.77 19.21 27.21"/><polygon class="cls-9" points="19.69 26.32 19.47 26.72 16.72 25.2 16.97 24.74 19.69 26.32"/><polygon class="cls-8" points="20.22 25.47 19.98 25.85 17.31 24.19 17.59 23.74 20.22 25.47"/><polygon class="cls-7" points="20.79 24.64 20.53 25.01 17.95 23.21 18.25 22.78 20.79 24.64"/><polygon class="cls-6" points="21.41 23.84 21.13 24.2 18.65 22.27 18.97 21.86 21.41 23.84"/><polygon class="cls-5" points="22.06 23.08 21.77 23.42 19.39 21.36 19.73 20.97 22.06 23.08"/><polygon class="cls-4" points="22.76 22.35 22.45 22.67 20.17 20.5 20.53 20.12 22.76 22.35"/></svg>