<svg preserveAspectRatio="none" id="Layer_1" data-name="Layer 1" xmlns="http://www.w3.org/2000/svg" viewBox="0 0 1147.98 1147.98"><defs><style>.cls-1{fill:#20ffff}</style></defs><path class="cls-1" transform="rotate(-87.62 1561.654 2607.442)" d="M3546.19 994.81h13.18v50.93h-13.18z"/><path class="cls-1" transform="rotate(-84.04 1548.515 2692.711)" d="M3548.54 962.46h13.18v50.93h-13.18z"/><path class="cls-1" transform="rotate(-80.44 1535.75 2787.616)" d="M3552.92 930.33h13.18v50.93h-13.18z"/><path class="cls-1" transform="rotate(-76.82 1523.68 2893.39)" d="M3559.31 898.55h13.18v50.93h-13.18z"/><path class="cls-1" transform="rotate(-73.19 1496.379 3006.738)" d="M3552.01 846.13h13.18v83.68h-13.18z"/><path class="cls-1" transform="rotate(-69.56 1500.605 3143.483)" d="M3578.05 836.52h13.18v50.93h-13.18z"/><path class="cls-1" transform="rotate(-65.93 1489.234 3291.642)" d="M3590.3 806.51h13.18v50.93h-13.18z"/><path class="cls-1" transform="rotate(-62.32 1476.69 3458.12)" d="M3604.47 777.35h13.18v50.93h-13.18z"/><path class="cls-1" transform="rotate(-58.71 1463.678 3646.807)" d="M3620.43 749.13h13.18v50.93h-13.18z"/><path class="cls-1" transform="rotate(-55.11 1435.727 3852.18)" d="M3624.68 696.21h13.18v83.68h-13.18z"/><path class="cls-1" transform="rotate(-51.52 1432.1 4107.746)" d="M3657.51 695.96h13.18v50.93h-13.18z"/><path class="cls-1" transform="rotate(-47.94 1411.438 4392.136)" d="M3678.47 671.22h13.18v50.93h-13.18z"/><path class="cls-1" transform="rotate(-44.36 1386.165 4724.556)" d="M3700.92 647.81h13.18v50.93h-13.18z"/><path class="cls-1" transform="rotate(-40.78 1354.373 5117.55)" d="M3724.82 625.9H3738v50.93h-13.18z"/><path class="cls-1" transform="rotate(-37.19 1304.138 5576.589)" d="M3740.13 576.08h13.18v83.68h-13.18z"/><path class="cls-1" transform="rotate(-33.6 1260.667 6164.624)" d="M3776.45 586.69h13.18v50.93h-13.18z"/><path class="cls-1" transform="rotate(-30 1189.826 6881.133)" d="M3804.02 569.63h13.18v50.93h-13.18z"/><path class="cls-1" transform="rotate(-26.39 1093.24 7797.26)" d="M3832.59 554.31h13.18v50.93h-13.18z"/><path class="cls-1" transform="rotate(-22.76 959.57 9012.204)" d="M3862.07 540.81h13.18v50.93h-13.18z"/><path class="cls-1" transform="rotate(-19.14 757.695 10667.353)" d="M3886.98 497.4h13.18v83.68h-13.18z"/><path class="cls-1" transform="matrix(.96 -.27 .27 .96 -3496.76 602.35)" d="M3923.28 519.56h13.18v50.93h-13.18z"/><path class="cls-1" transform="rotate(-11.88 -35.792 17094.476)" d="M3954.78 511.92h13.18v50.93h-13.18z"/><path class="cls-1" transform="rotate(-8.26 -992.857 24492.687)" d="M3986.7 506.24h13.18v50.93h-13.18z"/><path class="cls-1" transform="rotate(-4.67 -3461.634 43138.934)" d="M4018.92 502.59h13.18v50.93h-13.18z"/><path class="cls-1" transform="rotate(-1.11 -21855.596 180627.144)" d="M4051 468.22h13.18v83.68H4051z"/><path class="cls-1" transform="rotate(-87.57 2099.04 2115.565)" d="M4064.88 520.22h50.93v13.18h-50.93z"/><path class="cls-1" transform="rotate(-83.99 2115.845 2235.63)" d="M4097.22 522.58h50.93v13.18h-50.93z"/><path class="cls-1" transform="rotate(-80.39 2130.798 2367.23)" d="M4129.34 527h50.93v13.18h-50.93z"/><path class="cls-1" transform="rotate(-76.77 2144.107 2511.348)" d="M4161.12 533.41h50.93v13.18h-50.93z"/><path class="cls-1" transform="rotate(-73.14 2160.058 2653.704)" d="M4180.8 526.16h83.68v13.18h-83.68z"/><path class="cls-1" transform="rotate(-69.51 2164.203 2842.652)" d="M4223.13 552.21h50.93v13.18h-50.93z"/><path class="cls-1" transform="rotate(-65.88 2170.563 3033.318)" d="M4253.13 564.5h50.93v13.18h-50.93z"/><path class="cls-1" transform="rotate(-62.27 2172.932 3243.477)" d="M4282.28 578.69h50.93v13.18h-50.93z"/><path class="cls-1" transform="rotate(-58.66 2172.23 3476.623)" d="M4310.5 594.65h50.93v13.18h-50.93z"/><path class="cls-1" transform="rotate(-55.3 2163.794 3722.672)" d="M4330.64 598.98h83.68v13.18h-83.68z"/><path class="cls-1" transform="rotate(-51.47 2156.534 4028.747)" d="M4363.63 631.79h50.93v13.18h-50.93z"/><path class="cls-1" transform="rotate(-47.89 2139.494 4359.46)" d="M4388.36 652.76h50.93v13.18h-50.93z"/><path class="cls-1" transform="rotate(-44.31 2115.227 4738.47)" d="M4411.71 675.27h50.93v13.18h-50.93z"/><path class="cls-1" transform="rotate(-40.73 2081.22 5178.224)" d="M4433.65 699.16h50.93v13.18h-50.93z"/><path class="cls-1" transform="rotate(-37.14 2048.992 5687.27)" d="M4450.69 714.5h83.68v13.18h-83.68z"/><path class="cls-1" transform="rotate(-33.5 1985.41 6349.626)" d="M4472.77 750.84h50.93v13.18h-50.93z"/><path class="cls-1" transform="rotate(-29.95 1892.989 7082.422)" d="M4489.86 778.4h50.93v13.18h-50.93z"/><path class="cls-1" transform="rotate(-26.34 1782.719 8045.734)" d="M4505.12 807h50.93v13.18h-50.93z"/><path class="cls-1" transform="rotate(-22.72 1631.088 9304.754)" d="M4518.59 836.49h50.93v13.18h-50.93z"/><path class="cls-1" transform="rotate(-19.09 1431.36 11023.738)" d="M4529.25 861.42h83.68v13.18h-83.68z"/><path class="cls-1" transform="rotate(-15.46 1092.707 13540.862)" d="M4539.77 897.73h50.93v13.18h-50.93z"/><path class="cls-1" transform="rotate(-11.83 565.815 17564.33)" d="M4547.42 929.23h50.93v13.18h-50.93z"/><path class="cls-1" transform="rotate(-8.21 -427.195 25076.818)" d="M4553.05 961.15h50.93v13.18h-50.93z"/><path class="cls-1" transform="rotate(-4.62 -2971.13 44074.297)" d="M4556.69 993.38h50.93v13.18h-50.93z"/><path class="cls-1" transform="translate(-3512.4 -382.83)" d="M4558.28 1025.47h83.68v13.18h-83.68z"/><path class="cls-1" transform="rotate(-87.52 2591.83 2655.137)" d="M4576.76 1039.33h13.18v50.93h-13.18z"/><path class="cls-1" transform="rotate(-83.94 2573.92 2805.298)" d="M4574.36 1071.68h13.18v50.93h-13.18z"/><path class="cls-1" transform="rotate(-80.34 2552.27 2964.723)" d="M4569.91 1103.79h13.18v50.93h-13.18z"/><path class="cls-1" transform="rotate(-76.72 2527.332 3134.354)" d="M4563.48 1135.56h13.18v50.93h-13.18z"/><path class="cls-1" transform="rotate(-73.09 2514.458 3320.164)" d="M4570.7 1155.25h13.18v83.68h-13.18z"/><path class="cls-1" transform="rotate(-69.46 2466.466 3509.24)" d="M4544.62 1197.56h13.18v50.93h-13.18z"/><path class="cls-1" transform="rotate(-65.83 2430.57 3717.84)" d="M4532.31 1227.55h13.18v50.93h-13.18z"/><path class="cls-1" transform="rotate(-62.22 2389.487 3943.153)" d="M4518.09 1256.68h13.18v50.93h-13.18z"/><path class="cls-1" transform="rotate(-58.61 2344.522 4188.903)" d="M4502.11 1284.89h13.18v50.93h-13.18z"/><path class="cls-1" transform="rotate(-55.01 2307.85 4468.138)" d="M4497.75 1305.03h13.18v83.68h-13.18z"/><path class="cls-1" transform="rotate(-51.42 2238.505 4757.857)" d="M4464.92 1337.98h13.18v50.93h-13.18z"/><path class="cls-1" transform="rotate(-47.84 2175.722 5092.858)" d="M4443.93 1362.7h13.18v50.93h-13.18z"/><path class="cls-1" transform="rotate(-44.26 2105.17 5473.47)" d="M4421.4 1386.03h13.18v50.93h-13.18z"/><path class="cls-1" transform="rotate(-40.68 2025.538 5912.132)" d="M4397.49 1407.94h13.18v50.93h-13.18z"/><path class="cls-1" transform="rotate(-37.09 1944.202 6440.548)" d="M4382.12 1424.98h13.18v83.68h-13.18z"/><path class="cls-1" transform="rotate(-33.5 1827.599 7043.232)" d="M4345.78 1447.02h13.18v50.93h-13.18z"/><path class="cls-1" transform="rotate(-29.9 1700.882 7798.392)" d="M4318.21 1464.09h13.18v50.93h-13.18z"/><path class="cls-1" transform="rotate(-26.29 1546.247 8751.522)" d="M4289.59 1479.32h13.18v50.93h-13.18z"/><path class="cls-1" transform="rotate(-22.67 1351.12 9999.45)" d="M4260.09 1492.77h13.18v50.93h-13.18z"/><path class="cls-1" transform="rotate(-19.04 1098.245 11728.643)" d="M4235.13 1503.41h13.18v83.68h-13.18z"/><path class="cls-1" transform="rotate(-15.41 727.51 14218.058)" d="M4198.83 1513.89h13.18v50.93h-13.18z"/><path class="cls-1" transform="rotate(-11.78 157.499 18247.503)" d="M4167.33 1521.52h13.18v50.93h-13.18z"/><path class="cls-1" transform="rotate(-8.16 -885.003 25811.356)" d="M4135.39 1527.12h13.18v50.93h-13.18z"/><path class="cls-1" transform="rotate(-4.57 -3502.433 45105.8)" d="M4103.17 1530.73h13.18v50.93h-13.18z"/><path class="cls-1" transform="rotate(-1.01 -24221.676 199550.362)" d="M4071.06 1532.29h13.18v83.68h-13.18z"/><path class="cls-1" transform="rotate(-87.47 2053.302 3149.214)" d="M4019.45 1550.74h50.93v13.18h-50.93z"/><path class="cls-1" transform="rotate(-83.9 2004.994 3264.61)" d="M3987.12 1548.31h50.93v13.18h-50.93z"/><path class="cls-1" transform="rotate(-80.29 1956.022 3387.729)" d="M3955 1543.84h50.93v13.18H3955z"/><path class="cls-1" transform="rotate(-76.67 1905.764 3519.258)" d="M3923.24 1537.38h50.93v13.18h-50.93z"/><path class="cls-1" transform="matrix(.29 -.96 .96 .29 -2206.37 4373.14)" d="M3870.8 1544.57h83.68v13.18h-83.68z"/><path class="cls-1" transform="rotate(-69.41 1801.652 3813.61)" d="M3861.26 1518.47h50.93v13.18h-50.93z"/><path class="cls-1" transform="rotate(-65.78 1748.022 3980.178)" d="M3831.28 1506.13h50.93v13.18h-50.93z"/><path class="cls-1" transform="rotate(-62.17 1692.054 4162.305)" d="M3802.16 1491.89h50.93v13.18h-50.93z"/><path class="cls-1" transform="rotate(-58.56 1634.846 4364.18)" d="M3773.97 1475.87h50.93v13.18h-50.93z"/><path class="cls-1" transform="rotate(-54.96 1566 4602.928)" d="M3721.08 1471.49h83.68v13.18h-83.68z"/><path class="cls-1" transform="rotate(-51.37 1512.824 4843.696)" d="M3720.9 1438.64h50.93v13.18h-50.93z"/><path class="cls-1" transform="rotate(-47.79 1446.288 5133.542)" d="M3696.2 1417.64h50.93v13.18h-50.93z"/><path class="cls-1" transform="rotate(-44.21 1374.99 5469.003)" d="M3672.89 1395.09h50.93v13.18h-50.93z"/><path class="cls-1" transform="rotate(-40.63 1296.99 5862.778)" d="M3651.01 1371.15h50.93v13.18h-50.93z"/><path class="cls-1" transform="rotate(-37.04 1197.6 6343.63)" d="M3601.23 1355.76h83.68v13.18h-83.68z"/><path class="cls-1" transform="rotate(-33.45 1111.504 6905.93)" d="M3611.97 1319.41h50.93v13.18h-50.93z"/><path class="cls-1" transform="rotate(-29.85 994.967 7618.715)" d="M3594.93 1291.82h50.93V1305h-50.93z"/><path class="cls-1" transform="rotate(-26.24 853.364 8531.294)" d="M3579.71 1263.19h50.93v13.18h-50.93z"/><path class="cls-1" transform="rotate(-22.61 674.679 9745.457)" d="M3566.3 1233.68h50.93v13.18h-50.93z"/><path class="cls-1" transform="rotate(-18.99 417.632 11426.656)" d="M3522.93 1208.7h83.68v13.18h-83.68z"/><path class="cls-1" transform="rotate(-15.35 87.78 13909.132)" d="M3545.23 1172.4h50.93v13.18h-50.93z"/><path class="cls-1" transform="rotate(-11.73 -462.807 17920.783)" d="M3537.62 1140.89h50.93v13.18h-50.93z"/><path class="cls-1" transform="rotate(-8.12 -1488.797 25494.551)" d="M3532.06 1108.95h50.93v13.18h-50.93z"/><path class="cls-1" transform="rotate(-4.52 -4123.503 45117.715)" d="M3528.47 1076.73h50.93v13.18h-50.93z"/><path class="cls-1" transform="rotate(-.96 -26140.372 209352.508)" d="M3494.2 1044.6h83.68v13.18h-83.68z"/><path d="M4068.08 1483.74A440.29 440.29 0 114240 1449a438.89 438.89 0 01-171.92 34.74zm0-866.41a423.4 423.4 0 10165.33 33.38 422.09 422.09 0 00-165.33-33.38z" transform="translate(-3494.09 -468.1)" fill="#0ff" opacity=".4"/><path class="cls-1" d="M4371 1045.7l128.94-.16v-8l-128.94.16a301.26 301.26 0 00-21.31-107.43l30.45-12.57-3.05-7.39-30.45 12.57a305.93 305.93 0 00-61.18-91.8l51.67-51.49-5.65-5.67-51.67 51.49a305.24 305.24 0 00-91.58-61.51l12.68-30.41-7.38-3.08-12.68 30.41a299.72 299.72 0 00-107.35-21.65l.6-128.92h-8l-.6 128.93a301.23 301.23 0 00-108.26 20.93l-12.46-30.49-7.4 3 12.46 30.49a305.79 305.79 0 00-92 60.86l-51.31-51.85-5.69 5.63 51.31 51.84a305.17 305.17 0 00-35.3 43 302.14 302.14 0 00-26.57 48.32l-30.37-12.79-3.11 7.37 30.37 12.79a298.63 298.63 0 00-22 108l-128.93-.72v8l128.91.72a298.74 298.74 0 0022.06 111.51l-30.37 12.79 3.11 7.37 30.37-12.79a302.14 302.14 0 0026.57 48.32 305.24 305.24 0 0035.3 43l-51.31 51.84 5.69 5.63 51.31-51.84a305.81 305.81 0 0092 60.85l-12.46 30.49 7.4 3 12.46-30.49a301.14 301.14 0 00107.5 20.92l.28 129h8l-.3-128.88a299.73 299.73 0 00108.12-21.66l12.68 30.41 7.38-3.08-12.68-30.41a305.23 305.23 0 0091.59-61.51l51.67 51.49 5.65-5.67-51.67-51.49a305.93 305.93 0 0061.18-91.8l30.45 12.57 3.05-7.39-30.45-12.57A301.32 301.32 0 004371 1045.7zm-94 204.68a296.86 296.86 0 01-95.41 64.07 295.81 295.81 0 01-225.37.61 296.6 296.6 0 01-132.68-108 294.24 294.24 0 01-27.47-50.74 290.91 290.91 0 01-22.89-112.55v-3.4A290.9 290.9 0 013796 927.83a294.23 294.23 0 0127.47-50.74 296.61 296.61 0 01132.69-108 293.36 293.36 0 01112.12-22h.63a292 292 0 01112.62 22.61 295.76 295.76 0 01159.2 159.68 295.49 295.49 0 010 225.37 297.56 297.56 0 01-63.73 95.63z" transform="translate(-3494.09 -468.1)"/></svg>