<svg preserveAspectRatio="none" id="Layer_1" data-name="Layer 1" xmlns="http://www.w3.org/2000/svg" viewBox="0 0 89.89 91.04"><defs><style>.cls-1,.cls-4{fill:#00b4e9}.cls-2,.cls-4{opacity:.5}.cls-3{fill:#f9b900}.cls-5{fill:#00b3ea}</style></defs><path class="cls-1" d="M145.07 121.2c-.19.19-.43.41-.72.66s-.61.55-1 .85a29.21 29.21 0 01-31.08 3.36 28.9 28.9 0 01-5.64-3.64 30.09 30.09 0 01-4.54-4.68 29.13 29.13 0 01-6.12-18.37c0-1 .09-1.76.12-2.29l.1-.81L94 96l-.1.87c0 .57-.12 1.4-.13 2.46a31.3 31.3 0 006.57 19.74 32.23 32.23 0 004.88 5 31 31 0 006.06 3.91 31.33 31.33 0 0033.4-3.62c.42-.32.77-.65 1.09-.91s.57-.5.78-.7l.63-.6-1.53-1.55z" transform="translate(-80.05 -53.91)"/><path class="cls-1" d="M153.72 130.42l-.56.52-.7.6-.81.7c-.29.24-.62.49-1 .75a40 40 0 01-5.15 3.4 41.44 41.44 0 01-7.33 3.22 42.17 42.17 0 01-9.26 1.92c-.84.05-1.69.14-2.55.15h-3.95l-1.34-.1-1.35-.16-.68-.08-.68-.11a41.66 41.66 0 01-5.44-1.25 44.11 44.11 0 01-5.35-2 41.86 41.86 0 01-9.79-6.31 42.38 42.38 0 01-7.69-8.73A42 42 0 0186 85.12a39.72 39.72 0 012.6-5.6c.21-.37.4-.73.6-1.06l.57-.91c.18-.28.34-.54.49-.78l.44-.63.6-.86c.13-.2.21-.29.21-.29l-.79-.58s-.08.1-.22.3l-.61.88-.45.65-.5.8-.62.96c-.2.33-.4.7-.61 1.08a40.7 40.7 0 00-2.66 5.74 42.9 42.9 0 004.28 38.6 43.36 43.36 0 007.86 8.93 42.83 42.83 0 0010 6.46 45.21 45.21 0 005.48 2.08 42.73 42.73 0 005.57 1.28l.69.12.69.09 1.38.12 1.37.1h4.04c.88 0 1.75-.1 2.61-.15a43.17 43.17 0 009.48-2 42.43 42.43 0 007.5-3.29 40.87 40.87 0 005.27-3.48c.34-.27.68-.52 1-.77l.83-.71.71-.62.57-.54 1-1-.69-.69z" transform="translate(-80.05 -53.91)"/><g class="cls-2"><path class="cls-1" d="M146.39 122.95c-.25.26-.61.53-1 .88s-.87.71-1.4 1.12a31 31 0 01-4.08 2.61 31.93 31.93 0 01-5.81 2.39 32.62 32.62 0 01-7.33 1.25 31.91 31.91 0 01-4.07-.06h-.52l-.52-.06-1-.13c-.7-.13-1.41-.22-2.11-.39a29.92 29.92 0 01-4.21-1.22 30.27 30.27 0 01-4.09-1.85l-1-.55-1-.6c-.33-.19-.64-.42-1-.64s-.64-.42-.93-.67a33.57 33.57 0 01-3.48-3 35 35 0 01-3-3.49 33.62 33.62 0 01-2.44-3.86 32.19 32.19 0 01-1.82-4.1 30.89 30.89 0 01-1.19-4.22c-.08-.35-.14-.7-.2-1.06s-.13-.7-.17-1.05c-.08-.7-.18-1.4-.21-2.09s-.06-1.38-.08-2.06v-1-1a31.21 31.21 0 013.72-13.11c.23-.41.44-.81.67-1.18l.67-1.07c.22-.34.45-.65.66-1l.31-.45.32-.41.58-.75.55-.64.47-.55c.15-.17.29-.31.41-.44l.76-.8-5-5-.34.3c-.25.27-.63.65-1.09 1.16A41.62 41.62 0 0093 78.68a37.74 37.74 0 00-3.68 7.13 38.62 38.62 0 00-2.43 18.09 39 39 0 001.67 7.85 36.74 36.74 0 002.09 5.25c.15.31.29.58.41.82l.33.59.27.49 2.2-1.25.14.27c.09.17.23.4.42.7l.68 1.08.94 1.36a36.86 36.86 0 006.06 6.45 36 36 0 007.44 4.79c.54.28 1.06.48 1.5.68s.85.35 1.18.48l.77.29.27.1-.83 2.39 1.76.57c.57.15 1.25.35 2 .54l1.27.28c.45.1.93.16 1.42.25a38.71 38.71 0 0014.66-.44 38.05 38.05 0 0013.44-5.9c.84-.56 1.56-1.14 2.2-1.64s1.17-1 1.61-1.37l1.34-1.27-5-5.08zm-24.16 14.18h-.36c-.23 0-.56-.05-1-.1s-.85-.09-1.34-.17l-1.53-.26-1.52-.33c-.48-.1-.93-.24-1.31-.34-.77-.2-1.27-.37-1.27-.37l1.46-4.66s.43.15 1.1.32c.33.08.72.21 1.14.29l1.32.29 1.33.22c.43.07.83.1 1.17.15s.63.08.83.09h.31zm8.37-.28c-.79.1-1.83.25-2.89.3l-.79.06H123.49l.21-4.87H127.37c.92 0 1.83-.18 2.51-.26l1.13-.19.88 4.8zm10.2-3l-.88.38c-.36.16-.79.35-1.25.51s-1 .38-1.46.53l-1.48.47-1.31.35c-.38.11-.71.17-.93.22l-.35.08-1-4.77.31-.07c.2 0 .48-.1.81-.19l1.14-.31 1.28-.41c.44-.14.86-.32 1.27-.46s.77-.31 1.09-.45l.76-.33.28-.14 2.08 4.41zm8.2-5.17c-.17.15-.43.36-.75.6s-.68.53-1.07.82l-1.27.89c-.89.57-1.78 1.14-2.48 1.51l-.84.47-.32.16-2.27-4.36.28-.14.73-.41c.61-.32 1.38-.82 2.15-1.31l1.11-.77.93-.72c.27-.21.5-.38.65-.52l.24-.21 3.15 3.72z" transform="translate(-80.05 -53.91)"/></g><path class="cls-3" d="M138.85 120.79l-.46.28c-.19.11-.41.26-.65.4l-.76.42c-.25.16-.53.27-.78.4s-.48.25-.69.33l-.68.3.89 2.13.75-.32c.23-.09.47-.23.75-.36s.57-.26.85-.43l.83-.46c.27-.15.5-.31.71-.44l.5-.31.19-.13-1.3-1.92zM132.51 123.76c-.21.08-.46.14-.73.21s-.55.16-.85.22l-.86.19c-.27.06-.53.09-.75.13l-.53.09h-.2l.32 2.29h.22l.58-.1c.24 0 .52-.08.82-.15l.94-.2c.32-.06.63-.17.93-.24s.57-.15.8-.23l.77-.25-.74-2.19zM124.47 124.86c-.6 0-1.19-.07-1.64-.09l-.74-.09-.28 2.32h.22l.59.07c.49 0 1.14.1 1.79.1a25.14 25.14 0 002.61-.05l-.16-2.31a22.78 22.78 0 01-2.39.05zM119.65 124.26c-.44-.08-1-.26-1.59-.4l-.83-.27-.38-.12-.34-.13-.7-.26-.81 2.14.76.29.37.14.42.13.91.29c.63.16 1.25.35 1.74.44l.58.13h.22l.44-2.27h-.2zM112.91 121.68c-.24-.14-.51-.27-.75-.44l-.74-.46-.63-.44-.44-.31-.16-.13-1.39 1.85.18.14.48.34.68.48.81.5c.27.18.56.33.83.48l.73.4.73.36 1-2.08-.67-.33zM108.27 118.32c-.32-.32-.78-.71-1.18-1.16-.2-.22-.42-.43-.61-.64l-.5-.58a6.68 6.68 0 01-.47-.58l-1.81 1.44a7.69 7.69 0 00.52.63l.54.64c.2.23.44.46.66.7.44.49.94.92 1.28 1.26.17.18.34.3.44.39l.17.15 1.51-1.75-.16-.13c-.08-.09-.23-.2-.39-.37zM104.24 113.62l-.16-.26-.4-.64c-.15-.23-.28-.5-.43-.76-.31-.51-.54-1.06-.75-1.45-.1-.2-.16-.37-.22-.49l-.08-.19-2.12.92.09.21c.06.13.13.32.24.54.23.43.49 1 .82 1.59.16.28.3.57.47.83l.44.71.18.28.15.21.13.18 1.9-1.3-.12-.17zM101.33 107.51c-.15-.42-.29-1-.45-1.57-.08-.29-.13-.58-.19-.86s-.12-.53-.15-.75l-.13-.74-2.29.34.14.8c0 .24.09.52.16.82s.13.62.21.93c.17.63.33 1.26.5 1.72l.18.56a2.11 2.11 0 00.07.21l2.18-.77a1.78 1.78 0 01-.07-.19zM98 97.07v.59l-.06.83v2.84l.06.81 2.3-.18-.06-.75v-.77-1.76l.06-.76v-.74l-2.3-.33zM99.38 90.73c-.08.23-.16.5-.26.79s-.2.6-.28.92l-.25.92-.18.82c-.11.47-.16.8-.16.8l2.27.41a7.43 7.43 0 01.14-.73l.16-.75.23-.85c.07-.29.17-.57.25-.84s.16-.52.24-.73l.26-.69-2.13-.8z" transform="translate(-80.05 -53.91)"/><path class="cls-4" d="M93 75.8c-.27.33-.6.83-1 1.42s-.86 1.32-1.34 2.08c-.24.39-.45.8-.69 1.21l-.35.63c-.11.21-.22.43-.32.65a40.81 40.81 0 00-2.08 4.89l-.52 1.67c-.12.41-.18.64-.18.64l1.54.43s.06-.22.17-.61l.52-1.6a39.22 39.22 0 012-4.69c.1-.21.2-.42.31-.62l.34-.6c.23-.4.43-.8.66-1.17.47-.73.87-1.44 1.29-2s.72-1.05 1-1.37l.39-.5-1.26-1z" transform="translate(-80.05 -53.91)"/><path class="cls-1" d="M106.42 135.15l-1.16-.64a40.54 40.54 0 01-5.81-4.07 39.62 39.62 0 01-5-5c-.32-.36-.58-.72-.83-1l-.62-.85c-.17-.22-.29-.41-.38-.53l-.13-.19-2.11 1.49.14.2c.09.13.22.33.41.57l.66.87c.26.33.54.71.88 1.1a42.22 42.22 0 005.32 5.34 43.23 43.23 0 006.18 4.33l1.23.69c.37.2.7.35 1 .49l.85.42 1.1-2.33-.8-.39c-.27-.17-.59-.31-.93-.5zM150.55 133.73c-.3.24-.69.51-1.13.81s-.93.66-1.5 1a41.93 41.93 0 01-18.11 6.39c-.65.09-1.26.12-1.79.16s-1 .07-1.39.07h-1.21v2.75h1.29c.41 0 .91 0 1.48-.08s1.21-.08 1.91-.17a44.68 44.68 0 0019.29-6.81c.6-.36 1.12-.75 1.59-1.07s.88-.61 1.2-.87l1-.79-1.67-2.12zM84.68 87.73L81 86.62a.46.46 0 00-.52.47l-.16 1.37c-.05.41-.08.89-.11 1.4s-.08 1.06-.08 1.6v4.36a.42.42 0 00.34.42l2.57.21a.42.42 0 00.42-.45v-.34l.11-.89c.07-.73.24-1.7.41-2.67.08-.48.2-1 .3-1.41s.19-.87.29-1.23l.32-1.19a.43.43 0 00-.21-.54z" transform="translate(-80.05 -53.91)"/><path class="cls-3" d="M143.91 128a1.14 1.14 0 00-.31 1.55 1.12 1.12 0 101.87-1.24 1.13 1.13 0 00-1.56-.31zM136.05 131.87a1.14 1.14 0 00-.7 1.42 1.12 1.12 0 102.12-.73 1.14 1.14 0 00-1.42-.69zM127.46 133.59a1.11 1.11 0 00-.75.39 1.15 1.15 0 00-.29.81 1.13 1.13 0 00.37.8 1.13 1.13 0 001.87-.94 1.16 1.16 0 00-1.2-1.06zM118.72 133.06a1.14 1.14 0 10.89 1.3 1.13 1.13 0 00-.89-1.3z" transform="translate(-80.05 -53.91)"/><path class="cls-1" d="M149.65 80.92a32.23 32.23 0 00-4.88-5 31 31 0 00-6.06-3.92 31.33 31.33 0 00-33.4 3.62c-.42.32-.77.65-1.09.91s-.57.5-.78.7l-.63.6 1.53 1.55.59-.56c.19-.19.43-.41.72-.66s.62-.55 1-.85a29.2 29.2 0 0131.08-3.36 28.85 28.85 0 015.64 3.64 30.08 30.08 0 014.54 4.68 29.12 29.12 0 016.11 18.37c0 1-.09 1.76-.12 2.29l-.1.81 2.2.26.1-.87c0-.57.12-1.4.13-2.46a31.31 31.31 0 00-6.58-19.75z" transform="translate(-80.05 -53.91)"/><path class="cls-1" d="M165.64 87.05a42.84 42.84 0 00-5-10.43 43.37 43.37 0 00-7.86-8.93 42.84 42.84 0 00-10-6.46 45.29 45.29 0 00-5.48-2.08 42.66 42.66 0 00-5.57-1.28l-.73-.12-.69-.09-1.31-.16-1.37-.1h-4.04c-.88 0-1.75.1-2.61.15a43.2 43.2 0 00-9.48 2 42.41 42.41 0 00-7.5 3.29 40.87 40.87 0 00-5.27 3.48c-.35.27-.68.52-1 .77l-.83.71-.71.62-.57.54-1 1 .69.69 1-1 .56-.53.7-.6.81-.7c.29-.24.62-.49 1-.75a39.9 39.9 0 015.15-3.4 41.42 41.42 0 017.33-3.22 42.22 42.22 0 019.14-1.99c.84-.05 1.69-.14 2.55-.15h3.95l1.34.1 1.35.16.68.08.68.11a41.75 41.75 0 015.45 1.33 44.26 44.26 0 015.35 2 41.83 41.83 0 019.79 6.31 42.38 42.38 0 017.69 8.73 41.95 41.95 0 014.17 37.75 39.68 39.68 0 01-2.6 5.61c-.21.37-.4.73-.6 1.06l-.57.91-.49.78-.44.63-.6.86c-.13.2-.21.29-.21.29l.79.58s.08-.1.22-.3l.61-.88.45-.65c.16-.24.32-.51.51-.8l.58-.93c.2-.33.4-.7.61-1.08a40.72 40.72 0 002.66-5.74 42.9 42.9 0 00.72-28.17z" transform="translate(-80.05 -53.91)"/><g class="cls-2"><path class="cls-1" d="M161.5 88.25a36.81 36.81 0 00-2.15-5.25c-.15-.31-.29-.58-.41-.82l-.33-.59-.27-.49-2.2 1.25-.14-.27c-.09-.17-.24-.4-.42-.7l-.68-1.08-.9-1.35a36.88 36.88 0 00-6.06-6.45 36 36 0 00-7.44-4.79c-.54-.28-1.06-.48-1.5-.68s-.85-.35-1.18-.48l-.82-.3-.27-.1.83-2.39-1.76-.57c-.57-.15-1.25-.35-2-.54l-1.27-.28c-.45-.1-.93-.16-1.42-.25a38.69 38.69 0 00-14.66.44 38 38 0 00-13.45 5.9c-.84.56-1.56 1.14-2.2 1.64s-1.17 1-1.61 1.37l-1.34 1.27 5 5.08.8-.76c.25-.26.61-.53 1-.88s.87-.71 1.4-1.12a31 31 0 014.08-2.61 31.89 31.89 0 015.81-2.39 32.61 32.61 0 017.33-1.25 32 32 0 014.07.06h.52l.47.13 1.05.13c.7.13 1.41.22 2.11.39a29.86 29.86 0 014.21 1.22 30.25 30.25 0 014.09 1.85l1 .55 1 .6c.33.19.64.42 1 .64s.64.42.93.67a33.55 33.55 0 013.48 3 35 35 0 013 3.49 33.58 33.58 0 012.44 3.86 32.11 32.11 0 011.82 4.1 30.76 30.76 0 011.19 4.22c.09.35.14.7.2 1.06s.13.7.17 1.05c.08.7.18 1.4.21 2.09s.06 1.38.08 2.06v2a31.18 31.18 0 01-3.72 13.11c-.23.41-.44.81-.67 1.18l-.67 1.07c-.22.34-.45.65-.66 1l-.31.45-.32.41-.58.76-.55.64-.47.55c-.15.17-.29.31-.41.44l-.76.8 5 5 .39-.41c.25-.27.63-.65 1.09-1.16a41.66 41.66 0 003.47-4.5 37.77 37.77 0 003.68-7.13 38.59 38.59 0 00.68-25.94zm-51.8-16.88l-.73.41c-.61.32-1.38.82-2.15 1.31l-1.11.77-.93.72c-.27.21-.5.38-.65.52l-.24.21-3.15-3.72.28-.24c.17-.16.43-.36.75-.6s.68-.53 1.07-.82l1.26-.93c.89-.57 1.78-1.14 2.48-1.51l.84-.47.32-.16 2.26 4.37zm7.9-2.92c-.2 0-.48.1-.81.19l-1.14.31-1.28.41c-.44.14-.86.32-1.27.46s-.77.31-1.09.45l-.76.33-.28.14-2.08-4.41.33-.16.88-.38c.36-.16.79-.35 1.25-.51s1-.38 1.46-.53l1.48-.47 1.31-.35c.38-.11.71-.17.93-.22l.35-.08 1 4.77zm8.7-.79H122.63c-.92 0-1.83.18-2.51.26l-1.13.19-.88-4.8 1.3-.22c.79-.1 1.83-.25 2.89-.3l.79-.06H126.52zm8.3 1.46s-.43-.15-1.1-.32c-.33-.08-.72-.21-1.14-.3l-1.36-.28-1.29-.22c-.42-.07-.83-.1-1.17-.15s-.63-.08-.83-.09h-.31l.38-4.86h.36c.23 0 .56.05 1 .1s.85.09 1.34.17l1.52.26 1.52.33c.48.1.93.24 1.31.34.77.2 1.27.37 1.27.37z" transform="translate(-80.05 -53.91)"/></g><path class="cls-3" d="M113.53 75.27c-.23.09-.47.23-.75.36s-.57.26-.85.43l-.83.46c-.27.15-.5.31-.71.44l-.5.31-.19.13 1.3 1.92.17-.12.46-.28c.19-.12.4-.26.65-.4l.72-.42c.25-.16.53-.27.78-.4s.48-.25.69-.33l.68-.3-.89-2.13zM120.88 73.11l-.58.1c-.24 0-.52.08-.82.15l-.94.2c-.32.06-.63.17-.93.24s-.57.15-.8.23l-.77.25.74 2.19.71-.23c.21-.08.46-.14.73-.21s.55-.16.85-.22l.86-.19c.27-.06.53-.09.75-.13l.53-.09h.2l-.32-2.29zM127.38 72.93c-.49 0-1.14-.1-1.79-.1a25.15 25.15 0 00-2.61.05l.16 2.31a22.74 22.74 0 012.39 0c.6 0 1.19.07 1.64.09l.74.09.28-2.37H128zM133.92 74.35l-.42-.13-.91-.29c-.63-.16-1.25-.35-1.74-.44l-.58-.13h-.22l-.44 2.27h.2l.53.12c.44.08 1 .26 1.59.4l.83.27.38.12.34.13.7.26.82-2.15-.76-.29zM140.54 77.77l-.68-.48-.81-.5c-.27-.18-.56-.33-.82-.48l-.73-.4-.73-.36-1 2.08.66.37.67.37c.24.14.51.27.75.44l.74.46.63.44.44.29.16.13 1.39-1.85-.21-.17zM145.23 81.93c-.2-.23-.44-.46-.66-.7-.44-.49-.94-.91-1.28-1.26-.17-.18-.34-.3-.44-.39l-.17-.15-1.51 1.75.16.13c.1.09.25.2.41.36.32.32.78.71 1.18 1.16.2.22.42.43.61.64l.5.58a6.7 6.7 0 01.47.58l1.81-1.44a7.78 7.78 0 00-.52-.63zM149.59 88.52c-.23-.43-.49-1-.82-1.59-.16-.28-.3-.57-.47-.83l-.44-.71-.17-.28-.15-.21-.13-.18L145.5 86l.12.17.14.19.16.26.4.65c.15.23.28.5.43.76.31.51.54 1.06.75 1.45.1.2.16.37.22.49l.08.19 2.12-.92-.09-.2c-.06-.11-.12-.31-.24-.52zM151.58 94.44c-.07-.3-.13-.62-.21-.93-.17-.63-.33-1.26-.5-1.72l-.18-.56a2.15 2.15 0 00-.07-.21l-2.18.77a1.84 1.84 0 01.07.19l.16.51c.15.42.29 1 .45 1.57.08.29.13.58.19.86s.12.53.15.75l.13.74 2.29-.34-.14-.8c-.03-.27-.09-.54-.16-.83zM152.15 98.75l-.06-.81-2.3.19.06.75v2.53l-.06.76v.74l2.3.25v-.22-.59l.06-.83v-1-1c0-.35.01-.52 0-.77zM149.32 105.34l-.16.75-.23.85c-.07.29-.17.57-.25.84s-.16.52-.24.73l-.26.7 2.16.83.29-.76c.08-.23.16-.5.26-.79s.2-.6.28-.92l.25-.92.18-.82c.11-.48.16-.8.16-.8l-2.27-.41s-.06.29-.17.72z" transform="translate(-80.05 -53.91)"/><path class="cls-4" d="M161.77 111.2l-.52 1.6a39.2 39.2 0 01-2 4.69l-.31.62-.34.6c-.23.4-.43.8-.66 1.17-.47.73-.87 1.44-1.29 2s-.72 1.05-1 1.37l-.39.5 1.26 1 .41-.52c.27-.33.6-.83 1-1.42s.86-1.32 1.34-2.08c.24-.39.45-.8.69-1.21l.35-.63.32-.65a40.82 40.82 0 002.08-4.89l.54-1.67c.12-.41.18-.64.18-.64l-1.54-.43s-.01.2-.12.59z" transform="translate(-80.05 -53.91)"/><path class="cls-1" d="M159.07 74.88l-.66-.88c-.26-.33-.54-.71-.88-1.1a42.17 42.17 0 00-5.32-5.34 43.18 43.18 0 00-6.21-4.3l-1.23-.69c-.37-.2-.7-.35-1-.49l-.77-.42-1.12 2.34.8.39c.25.13.56.27.91.46l1.16.64a40.6 40.6 0 015.81 4.07 39.59 39.59 0 015 5c.32.36.58.72.83 1l.61.85c.17.22.29.41.38.53l.13.19 2.11-1.49-.14-.2c-.1-.12-.23-.32-.41-.56zM123.27 55.08c-.41 0-.91 0-1.48.08s-1.21.08-1.91.17a44.68 44.68 0 00-19.29 6.81c-.6.36-1.12.75-1.59 1.07s-.88.61-1.2.87l-1 .79L98.49 67l1-.74c.3-.24.69-.51 1.13-.81s.93-.66 1.5-1a42 42 0 0118.11-6.39c.65-.09 1.26-.12 1.79-.16s1-.07 1.39-.07h1.21v-2.76zM169.88 104.58v-.37a.42.42 0 00-.34-.42l-2.57-.21a.42.42 0 00-.41.42v.34l-.11.88c-.07.74-.24 1.71-.41 2.67-.08.48-.2 1-.3 1.41s-.19.87-.29 1.23l-.32 1.19a.43.43 0 00.24.54l3.73 1.11a.47.47 0 00.52-.47l.16-1.37c.05-.41.08-.89.11-1.4s.08-1.06.08-1.6v-1.6-1.39z" transform="translate(-80.05 -53.91)"/><path class="cls-3" d="M104.83 70.12a1.14 1.14 0 101.58.34 1.13 1.13 0 00-1.58-.34zM113.21 66a1.12 1.12 0 00-.69 1.46 1.12 1.12 0 002.12-.73 1.12 1.12 0 00-1.43-.73zM122.38 64.14a1.11 1.11 0 00-1 1.22 1.16 1.16 0 001.2 1 1.11 1.11 0 00.75-.39 1.15 1.15 0 00.29-.81 1.13 1.13 0 00-.37-.8 1.12 1.12 0 00-.87-.22zM131.71 64.7a1.14 1.14 0 10.88 1.36 1.13 1.13 0 00-.88-1.36z" transform="translate(-80.05 -53.91)"/><path class="cls-5" d="M132.14 97.23a7.42 7.42 0 01-9.5 9.57l-.16.6a8 8 0 0010.26-10.33zM127.77 92.86l.16-.6a8 8 0 00-10.33 10.26l.6-.16a7.42 7.42 0 019.57-9.5z" transform="translate(-80.05 -53.91)"/><path class="cls-5" d="M127.77 92.86l-1.6 6 6-1.6a7.4 7.4 0 00-4.4-4.4z" transform="translate(-80.05 -53.91)"/><path class="cls-5" d="M127.93 92.26a8.05 8.05 0 014.81 4.81l2.8-.75-6.86-6.86zM119.93 105.07a7.36 7.36 0 002.72 1.73l1.63-6.07-6.07 1.63a7.36 7.36 0 001.72 2.71z" transform="translate(-80.05 -53.91)"/><path class="cls-5" d="M117.6 102.52l-2.71.73 6.86 6.86.73-2.71a8 8 0 01-4.88-4.88zM128.32 82l-.51-.08-1.23-.18-1.47-.07h-1.65a18.39 18.39 0 00-3.51.59 18.12 18.12 0 00-3.33 1.25 12.92 12.92 0 00-1.44.79l-.65.39-.57.42c-.36.27-.71.51-1 .74l-.71.64-.62.56 2 2 .53-.47.6-.55c.24-.2.54-.4.85-.63l.49-.36.56-.33a10.36 10.36 0 011.22-.67 15.35 15.35 0 012.81-1.04 15.62 15.62 0 013-.5H125.08l1.25.06 1 .15.44.06.36.09.72.14.71-2.68-.81-.2zM143.25 98.35l-.18-1.23c0-.18 0-.36-.08-.51l-.1-.43-.2-.81-2.69.73.17.69.09.36c0 .13 0 .28.07.44l.15 1c0 .39 0 .81.07 1.25v1.4a16 16 0 01-.49 3 12.27 12.27 0 01-.46 1.47 11.62 11.62 0 01-.59 1.37 9.74 9.74 0 01-.66 1.22l-.33.56c-.12.17-.24.33-.36.49l-.63.85-.55.6-.48.53 2 2 .56-.62.64-.71c.23-.29.47-.63.74-1 .13-.18.28-.37.42-.58l.39-.65a12.25 12.25 0 00.78-1.44 14.3 14.3 0 00.69-1.61 18.49 18.49 0 00.92-3.49 14.46 14.46 0 00.2-1.74v-1.65c-.04-.54-.05-1.04-.09-1.49zM120.2 115.33l-.77-.27a7 7 0 01-1-.39c-.35-.17-.74-.33-1.13-.54l-1.2-.71-1.2-.88c-.39-.32-.76-.68-1.15-1l-.14-.13-.13-.14-.26-.29-.52-.57a5.1 5.1 0 01-.47-.59l-.44-.59-.21-.29-.18-.3-.35-.59c-.11-.19-.23-.37-.32-.56l-.25-.55-.23-.5-.11-.23c0-.08-.05-.16-.08-.23l-.27-.77c-.07-.21-.14-.38-.17-.49v-.18l-2.67.75.05.21c0 .14.11.33.2.58l.32.9c0 .09.06.18.1.27l.13.28.27.59.3.64c.1.22.25.43.37.66l.41.69.21.36.25.34.51.7a6.6 6.6 0 00.55.69l.6.67.3.34.15.17.17.15c.45.4.89.82 1.35 1.2l1.42 1 1.41.84c.46.25.92.44 1.33.63a9 9 0 001.15.46l.9.31c.25.08.46.12.59.16l.21.05.68-2.69h-.18c-.11-.06-.29-.09-.5-.16z" transform="translate(-80.05 -53.91)"/><path class="cls-5" d="M141.12 97.6c0-.19-.05-.39-.09-.58l-.14-.56c-.1-.37-.17-.76-.29-1.12l-.38-1.08a17.06 17.06 0 00-3.57-5.57l-.18-.2-.2-.18-.4-.36-.39-.36a3.72 3.72 0 00-.4-.34A16.5 16.5 0 00121.4 84a16.08 16.08 0 00-4.78 1.81l-.87.51c-.27.17-.5.36-.72.52l-.62.45c-.19.14-.34.3-.48.42l-.87.78.54.54.83-.75c.14-.12.28-.27.46-.4l.59-.43c.21-.15.43-.33.69-.5l.83-.49a15.32 15.32 0 014.55-1.72 15.72 15.72 0 0113 3.1 3.39 3.39 0 01.38.32l.37.34.38.34.25.16.17.19a16.32 16.32 0 013.4 5.31l.36 1c.12.35.18.71.28 1.07l.13.54c0 .18.05.37.08.55 0 .37.12.74.15 1.11a17.19 17.19 0 01-.25 4.51 17 17 0 01-1.55 4.32 15.74 15.74 0 01-6.47 6.47 15.78 15.78 0 01-8.83 1.8c-.37 0-.74-.1-1.11-.15l-.55-.08-.54-.13c-.36-.1-.72-.16-1.07-.28l-1-.36a16.29 16.29 0 01-5.31-3.4l-.19-.17-.17-.19-.34-.38-.34-.37a3.4 3.4 0 01-.32-.38 15.73 15.73 0 01-3.1-13 15.32 15.32 0 011.72-4.55l.49-.83c.16-.25.34-.47.5-.69l.43-.59c.13-.18.28-.32.4-.46l.75-.83-.54-.54-.78.87c-.12.14-.28.29-.42.48l-.45.62c-.16.22-.35.46-.52.72l-.51.87a16.07 16.07 0 00-1.81 4.78 16.49 16.49 0 003.25 13.68 3.76 3.76 0 00.34.4l.36.39.36.4.18.2.2.18a17.06 17.06 0 005.57 3.57l1.08.38c.36.12.75.19 1.12.29l.56.14.58.09c.39 0 .77.12 1.16.16a16.56 16.56 0 009.26-1.89 16.53 16.53 0 006.79-6.79 17.78 17.78 0 001.57-4.53 18 18 0 00.26-4.73c-.02-.39-.09-.77-.14-1.17z" transform="translate(-80.05 -53.91)"/><circle class="cls-3" cx="124.78" cy="100.22" r="1.29" transform="rotate(-45 19.66 169.887)"/><path class="cls-1" d="M154.47 64.32a2.09 2.09 0 102.09 2.09 2.09 2.09 0 00-2.09-2.09zm0 3.8a1.71 1.71 0 111.7-1.71 1.71 1.71 0 01-1.7 1.71z" transform="translate(-80.05 -53.91)"/><path class="cls-1" d="M154.47 65.24a1.18 1.18 0 101.18 1.18 1.18 1.18 0 00-1.18-1.18zm0 2.14a1 1 0 111-1 1 1 0 01-1 1zM133.23 53.91a2.09 2.09 0 102.09 2.09 2.09 2.09 0 00-2.09-2.09zm0 3.8a1.71 1.71 0 111.7-1.71 1.71 1.71 0 01-1.7 1.71z" transform="translate(-80.05 -53.91)"/><path class="cls-1" d="M133.23 54.83a1.18 1.18 0 101.18 1.17 1.18 1.18 0 00-1.18-1.17zm0 2.14a1 1 0 111-1 1 1 0 01-1 1.03zM147.37 138.91a2.09 2.09 0 102.09 2.09 2.09 2.09 0 00-2.09-2.09zm0 3.8a1.71 1.71 0 111.7-1.71 1.71 1.71 0 01-1.7 1.71z" transform="translate(-80.05 -53.91)"/><path class="cls-1" d="M147.37 139.82a1.18 1.18 0 101.18 1.18 1.18 1.18 0 00-1.18-1.18zm0 2.14a1 1 0 111-1 1 1 0 01-1 1.04z" transform="translate(-80.05 -53.91)"/><path d="M133.12 56z" transform="translate(-80.05 -53.91)" fill="#00b4eb"/><path class="cls-5" d="M53.06 1.97h25.09v.25H53.06z"/></svg>