<svg preserveAspectRatio="none" id="Layer_1" data-name="Layer 1" xmlns="http://www.w3.org/2000/svg" viewBox="0 0 1196.88 1172.1"><defs><style>.cls-1{fill:#20ffff;}.cls-2{opacity:0.5;}.cls-3{fill:aqua;}</style></defs><title>circle86</title><path class="cls-1" d="M3008.58,2282.33a531.84,531.84,0,0,0-71.23-131.59l182.5-140.4-12.2-15.85-221.22,170.18a485.08,485.08,0,0,0-192.35-144.53,479.4,479.4,0,0,0-90.57-27.44,487.8,487.8,0,0,0-189,0,479.4,479.4,0,0,0-90.57,27.44A485.23,485.23,0,0,0,2062.08,2282a479.4,479.4,0,0,0-27.44,90.57,487.79,487.79,0,0,0,0,189,479.86,479.86,0,0,0,61.69,157.74q-4.84,6.53-9.59,13.22l-5.26,7.51c-1.73,2.51-3.42,5-5.12,7.56q-5.08,7.61-10,15.42a534.73,534.73,0,0,0,231.54,193,529.24,529.24,0,0,0,146.8,39.65l9.49,1.09,9.52,0.85,4.76,0.42,4.77,0.3c3.18,0.19,6.36.44,9.54,0.58,6.37,0.22,12.74.55,19.12,0.55l4.79,0.06,2.39,0,2.39,0,9.57-.12c3.19,0,6.37-.22,9.56-0.32s6.37-.21,9.55-0.45l9.54-.6,9.52-.84,4.76-.43,4.74-.55c3.16-.38,6.33-0.69,9.48-1.11,6.3-.9,12.61-1.7,18.88-2.82,1.53-6,3-11.86,4.35-17.84s2.64-12,3.85-17.92c1.09-5.32,2.09-10.68,3-16a479.39,479.39,0,0,0,85.83-26.47,485.28,485.28,0,0,0,217.25-178.49q25.76,5.43,52.26,9a527.87,527.87,0,0,0,61.8-147,536.9,536.9,0,0,0,15.35-159A529.11,529.11,0,0,0,3008.58,2282.33Zm-176.51,507.8a455.39,455.39,0,1,1,99.17-148.23A458.26,458.26,0,0,1,2832.08,2790.12Z" transform="translate(-1922.98 -1881.03)"/><path class="cls-1" d="M2138,2131.16c1.07-1.19,2.17-2.36,3.26-3.52l2.26-2.43,0.1-.11c2.25-2.49,4.65-4.93,7.19-7.51q2-2,3.92-4l8.74-8.56c0.54-.52,1.1-1,1.65-1.54l1.17-1.09,6-5.57,9.09-8.08,9.28-7.85,9.46-7.62,9.65-7.39,9.82-7.15,10-6.92,6.78-4.46,1.39-.91c0.62-.41,1.24-0.83,1.87-1.23l10.42-6.49,7-4.12,1.42-.84c0.64-.38,1.28-0.77,1.89-1.11l10.78-6,7.15-3.77,1.49-.79c0.64-.34,1.27-0.68,1.92-1l3.74-1.85,0.18-.09c9.77-5,20.2-9.57,29.22-13.48l7.51-3.06,1.55-.64c0.68-.28,1.37-0.57,2-0.81l11.52-4.37,7.68-2.7-10.61-30.19-7.87,2.77-12.12,4.59c-0.95.36-1.89,0.75-2.83,1.14l-1.35.55-7.73,3.15-0.31.13c-9.49,4.11-20.5,8.95-31.13,14.38l-3.65,1.81c-0.94.46-1.86,1-2.78,1.45l-1.27.67-7.39,3.89-11.31,6.3c-0.9.5-1.78,1-2.67,1.56l-1.23.73-7.19,4.25-11.07,6.89c-0.83.53-1.65,1.07-2.47,1.61l-1.24.82-7,4.59-10.62,7.34-10.45,7.61-10.25,7.85-10.08,8.11-9.87,8.35-9.67,8.59-7.48,7c-0.73.67-1.45,1.34-2.17,2l-9.06,8.87-0.35.35c-1.27,1.33-2.56,2.64-3.85,4-2.63,2.68-5.34,5.44-8,8.39l-2.06,2.21c-1.24,1.32-2.48,2.65-3.69,4l-5.64,6.36,23.94,21.23Z" transform="translate(-1922.98 -1881.03)"/><path class="cls-1" d="M2010.42,2297.53c-4.19,12.48-8,25.29-11.36,38.09l19.35,5.06c3.23-12.36,6.92-24.74,11-36.78Z" transform="translate(-1922.98 -1881.03)"/><path class="cls-1" d="M2096.37,2180.34l-23-16a527.57,527.57,0,0,0-47.31,82.93l25.5,11.57A499.52,499.52,0,0,1,2096.37,2180.34Z" transform="translate(-1922.98 -1881.03)"/><g class="cls-2"><path class="cls-3" d="M2509,3053.12a584.25,584.25,0,1,1,228.12-46.06A582.38,582.38,0,0,1,2509,3053.12Zm0-1154.1a566.24,566.24,0,1,0,221.11,44.64A564.49,564.49,0,0,0,2509,1899Z" transform="translate(-1922.98 -1881.03)"/></g><g class="cls-2"><path class="cls-1" d="M2139.36,2467.07c0.29-34.3,4.62-68.62,14.24-101.54,2.15-8.3,5.13-16.35,7.82-24.48,1.47-4,3.12-8,4.67-12l2.36-6,2.65-5.85a359,359,0,0,1,24.05-45.4l-33-20.56a397.84,397.84,0,0,0-26.59,50.18l-2.92,6.48-2.62,6.61c-1.71,4.42-3.53,8.8-5.15,13.25-3,9-6.26,17.9-8.66,27.07-10.62,36.41-15.44,74.37-15.73,112.2h38.87Z" transform="translate(-1922.98 -1881.03)"/><path class="cls-1" d="M2214.64,2243.55l7.43-9.45c0.62-.78,1.23-1.59,1.87-2.36l2-2.27,3.94-4.54,3.93-4.55c0.66-.75,1.29-1.53,2-2.26l2.08-2.17,8.3-8.7-27.64-27.32-9.17,9.61-2.29,2.41c-0.77.8-1.46,1.66-2.2,2.49l-4.35,5-4.35,5L2194,2207c-0.71.85-1.38,1.73-2.06,2.6L2183.7,2220Z" transform="translate(-1922.98 -1881.03)"/><path class="cls-1" d="M2271.41,2184l2.27-2c0.77-.64,1.57-1.24,2.36-1.87l4.73-3.71,4.73-3.72,2.36-1.86,2.45-1.74,9.8-7c0.82-.58,1.63-1.17,2.45-1.73l2.53-1.62,5.06-3.24-20.95-32.74-5.59,3.59-2.79,1.8c-0.92.62-1.81,1.28-2.72,1.91l-10.83,7.7-2.7,1.93-2.61,2-5.22,4.1-5.22,4.11c-0.87.69-1.75,1.36-2.6,2.06l-2.51,2.17Z" transform="translate(-1922.98 -1881.03)"/><path class="cls-1" d="M2339.92,2138.39c14.16-7.53,29-13.63,44-19.23l-13.15-36.58c-16.6,6.18-33,13-48.67,21.26Z" transform="translate(-1922.98 -1881.03)"/><path class="cls-1" d="M2416.75,2109l11.71-2.7,5.85-1.36,5.92-1.06,11.83-2.12c4-.57,7.95-1,11.92-1.54l-4.69-38.59c-4.39.57-8.79,1.08-13.17,1.72L2433,2065.7l-6.54,1.18-6.48,1.49-12.95,3Z" transform="translate(-1922.98 -1881.03)"/><path class="cls-1" d="M2498.25,2097.69l6-.15,3-.08c1,0,2-.06,3,0l12,0.31,6,0.16,6,0.46,12,0.91,3.87-38.68-13.24-1-6.62-.5-6.63-.19-13.27-.33c-1.11,0-2.21,0-3.32,0l-3.32.08-6.64.17Z" transform="translate(-1922.98 -1881.03)"/><path class="cls-1" d="M2580.29,2104.34l3,0.53c1,0.2,2,.44,2.93.66l5.85,1.35,5.86,1.35c2,0.44,3.91.87,5.83,1.47,7.69,2.23,15.46,4.21,23,7l12.37-36.85c-8.34-3-16.92-5.24-25.44-7.69-2.12-.64-4.28-1.13-6.44-1.62l-6.47-1.5-6.48-1.49c-1.08-.24-2.16-0.51-3.24-0.73l-3.27-.59Z" transform="translate(-1922.98 -1881.03)"/><path class="cls-1" d="M2658.72,2129.08l10.94,5,10.7,5.48c1.78,0.92,3.58,1.8,5.34,2.76l5.21,3c3.46,2,7,4,10.41,6l20.25-33.18c-3.8-2.28-7.66-4.44-11.5-6.66l-5.76-3.31c-1.94-1.06-3.93-2-5.9-3.06l-11.83-6.05c-4-1.87-8.06-3.67-12.1-5.5Z" transform="translate(-1922.98 -1881.03)"/><path class="cls-1" d="M2729.78,2170.55c3.18,2.44,6.31,4.95,9.47,7.41l4.73,3.71,4.55,3.93,9.09,7.87,8.7,8.3,27.06-27.9-9.62-9.16-10-8.7-5-4.34-5.22-4.11c-3.49-2.73-6.95-5.49-10.46-8.18Z" transform="translate(-1922.98 -1881.03)"/><path class="cls-1" d="M2789.85,2226.82l3.94,4.54c1.3,1.53,2.49,3.14,3.74,4.71l7.43,9.45c2.36,3.24,4.65,6.53,7,9.79l3.49,4.9,3.25,5.06,32.54-21.25-3.6-5.58-3.85-5.42c-2.57-3.6-5.11-7.23-7.72-10.81l-8.2-10.45c-1.38-1.73-2.71-3.5-4.14-5.19l-4.34-5Z" transform="translate(-1922.98 -1881.03)"/><path class="cls-1" d="M2836.12,2294.86l5.48,10.7,0.68,1.34,0.62,1.37,1.24,2.74,2.47,5.48,2.48,5.47c0.43,0.9.81,1.83,1.16,2.77l1.1,2.8,4.41,11.18,36.45-13.5-4.87-12.37-1.22-3.09c-0.4-1-.81-2.06-1.29-3.06l-2.73-6.06-2.74-6.05-1.37-3-0.69-1.51-0.75-1.48-6.06-11.83Z" transform="translate(-1922.98 -1881.03)"/><path class="cls-1" d="M2866.13,2371.44l0.82,2.89c0.26,1,.46,1.95.69,2.92l1.35,5.86,1.35,5.85c0.46,2,.93,3.9,1.24,5.88,1.35,7.9,3,15.75,3.83,23.73l38.54-5.05c-0.93-8.81-2.73-17.5-4.24-26.23-0.35-2.19-.87-4.34-1.37-6.5l-1.49-6.48-1.5-6.47c-0.26-1.08-.48-2.16-0.77-3.23l-0.9-3.2Z" transform="translate(-1922.98 -1881.03)"/><path class="cls-1" d="M2878.33,2452.8l0.31,12c0.1,2,0,4,0,6l-0.15,6-0.15,6-0.07,3c-0.05,1-.15,2-0.22,3l-0.91,12,38.71,3.51,1-13.24c0.08-1.1.18-2.21,0.24-3.31l0.09-3.32,0.17-6.64,0.17-6.64c0.05-2.21.14-4.42,0-6.64l-0.33-13.27Z" transform="translate(-1922.98 -1881.03)"/><path class="cls-1" d="M2872.37,2534.9l-1.05,5.92c-0.37,2-.88,3.91-1.32,5.86l-2.7,11.71c-1,3.88-2.17,7.71-3.23,11.57l-1.64,5.78c-0.25,1-.57,1.92-0.9,2.87l-1,2.84,37,12,1.06-3.15c0.36-1,.71-2.1,1-3.17l1.82-6.39c1.19-4.27,2.48-8.51,3.57-12.8l3-12.95c0.48-2.16,1-4.31,1.45-6.48l1.17-6.54Z" transform="translate(-1922.98 -1881.03)"/><polygon class="cls-1" points="925.48 732.56 920.53 743.51 919.29 746.25 917.92 748.93 915.18 754.27 912.45 759.63 911.08 762.3 909.57 764.9 903.58 775.32 936.95 795.26 943.57 783.74 945.23 780.86 946.75 777.91 949.78 771.99 952.8 766.08 954.31 763.12 955.68 760.09 961.16 747.98 925.48 732.56"/><path class="cls-1" d="M2807.57,2685c-2.25,3.32-4.82,6.4-7.28,9.57l-3.71,4.73c-1.24,1.58-2.45,3.17-3.8,4.66l-7.87,9.09-2,2.27c-0.66.75-1.38,1.46-2.06,2.19l-4.15,4.35,28.15,26.8,4.58-4.81c0.76-.81,1.54-1.59,2.27-2.42l2.18-2.51,8.7-10c1.48-1.65,2.83-3.4,4.2-5.14l4.11-5.22c2.72-3.5,5.54-6.91,8-10.57Z" transform="translate(-1922.98 -1881.03)"/><path class="cls-1" d="M2751.91,2745.61c-12,10.7-24.92,20.19-38.14,29.24l21.56,32.34c14.62-10,28.92-20.49,42.14-32.3Z" transform="translate(-1922.98 -1881.03)"/><path class="cls-1" d="M2684.35,2792.58l-10.7,5.48c-1.79.89-3.54,1.88-5.37,2.69l-5.48,2.47c-3.66,1.62-7.28,3.36-11,4.9l-11.18,4.41,13.85,36.32,12.36-4.88c4.09-1.71,8.09-3.61,12.14-5.41l6.05-2.74c2-.91,4-2,5.94-3l11.83-6.06Z" transform="translate(-1922.98 -1881.03)"/><path class="cls-1" d="M2608,2823.22l-5.78,1.65c-1.93.53-3.9,0.92-5.85,1.39l-11.71,2.71c-1,.25-2,0.41-2.95.58l-3,.53-5.92,1.06c-3.94.7-7.88,1.48-11.87,1.9l5.42,38.49c4.41-.47,8.76-1.32,13.12-2.09l6.54-1.17,3.27-.59c1.09-.19,2.18-0.38,3.26-0.65l13-3c2.15-.52,4.33-1,6.46-1.54l6.39-1.81Z" transform="translate(-1922.98 -1881.03)"/><path class="cls-1" d="M2526.79,2836.29l-12,.3c-2,0-4,.12-6,0.14l-6-.16-12-.3c-4-.23-8-0.59-12-0.88l-3.15,38.74c4.41,0.32,8.83.71,13.25,1l13.27,0.34,6.64,0.16c2.21,0,4.42-.1,6.64-0.15l13.27-.34Z" transform="translate(-1922.98 -1881.03)"/><path class="cls-1" d="M2444.64,2831l-5.92-1.05c-2-.37-4-0.64-5.9-1.14l-11.71-2.7-2.93-.67-1.46-.34-1.45-.41-5.78-1.65-5.78-1.64-2.89-.82c-1-.27-1.93-0.53-2.87-0.88l-11.67,37.08c1,0.37,2.11.67,3.18,1l3.2,0.91,6.39,1.82,6.39,1.81,1.6,0.45,1.62,0.38,3.24,0.75,13,3c2.15,0.55,4.35.85,6.52,1.26l6.54,1.17Z" transform="translate(-1922.98 -1881.03)"/><path class="cls-1" d="M2313.69,2801.89l-10.53,18c3.84,2.2,7.67,4.43,11.53,6.6l11.83,6.06c2,1,3.93,2,5.93,3l6.05,2.74c4,1.81,8.06,3.68,12.12,5.44l15.08-35.82c-3-1.31-6-2.71-9-4.05l-4.51-2-2.25-1q-1.14-.49-2.23-1.07l-8.8-4.51c-2.92-1.53-5.91-2.93-8.74-4.64l-7.37-4.24-5.22-3-5.07-3.24-10.14-6.5-9.81-7c-1.63-1.17-3.28-2.31-4.9-3.5l-4.73-3.73c-3.15-2.49-6.34-4.94-9.46-7.46l-9.1-7.89c-1.5-1.33-3.07-2.59-4.53-4l-4.36-4.16-4.36-4.16-2.18-2.08c-0.73-.69-1.46-1.38-2.14-2.12l-8.31-8.72-2.08-2.18-1-1.09-1-1.14-3.94-4.56-3.95-4.55c-1.3-1.53-2.67-3-3.88-4.61l-7.44-9.47c-2.56-3.1-4.77-6.46-7.13-9.71l-3.49-4.91-1.75-2.45c-0.58-.82-1.09-1.68-1.64-2.52l-6.5-10.14L2193,2659c-0.52-.86-1-1.74-1.51-2.61l-3-5.22-3-5.22-1.5-2.61-1.37-2.68-5.49-10.72-1.37-2.68-1.24-2.74L2172,2619l-2.48-5.49c-0.41-.92-0.84-1.82-1.23-2.75l-1.1-2.8-4.42-11.2c-0.36-.94-0.75-1.86-1.1-2.8l-1-2.85-1.93-5.7-1.93-5.7-1-2.85-0.82-2.9-3.29-11.58-0.83-2.89-0.67-2.93-1.35-5.87-1.36-5.87-0.68-2.93c-0.2-1-.36-2-0.54-3-1.37-7.91-3-15.78-3.82-23.78l-0.76-6c-0.23-2-.58-4-0.68-6l-0.91-12c-0.13-2-.36-4-0.41-6l-0.15-6-0.31-12.05h-18l0.32,12.63,0.16,6.31c0.06,2.1.29,4.2,0.43,6.3l1,12.6c0.11,2.1.47,4.18,0.71,6.27l0.8,6.27c0.88,8.38,2.56,16.64,4,24.94,0.19,1,.36,2.08.57,3.11l0.71,3.08,1.42,6.15,1.42,6.15,0.71,3.08,0.86,3,3.45,12.15,0.86,3,1,3,2,6,2,6,1,3c0.36,1,.77,2,1.15,2.94l4.63,11.75,1.16,2.94c0.41,1,.86,1.92,1.29,2.88l2.6,5.75,2.6,5.76,1.3,2.88,1.43,2.81,5.76,11.24,1.44,2.81,1.57,2.74,3.15,5.48,3.15,5.48c0.53,0.91,1,1.83,1.58,2.73l1.7,2.66,6.82,10.63c0.58,0.88,1.11,1.79,1.73,2.64l1.83,2.57,3.66,5.15c2.47,3.41,4.8,6.92,7.47,10.18l7.8,9.93c1.27,1.68,2.69,3.23,4.06,4.84l4.14,4.77,4.14,4.77,1,1.19,1.09,1.15,2.18,2.29,8.72,9.14c0.71,0.78,1.47,1.5,2.24,2.22l2.29,2.18,4.57,4.36,4.57,4.36c1.53,1.45,3.17,2.78,4.74,4.17l9.55,8.27c3.27,2.65,6.61,5.22,9.91,7.83l5,3.9c1.7,1.24,3.43,2.45,5.14,3.67l10.29,7.32,10.63,6.82,5.32,3.4Z" transform="translate(-1922.98 -1881.03)"/></g></svg>