<svg preserveAspectRatio="none" id="Layer_1" data-name="Layer 1" xmlns="http://www.w3.org/2000/svg" viewBox="0 0 116.81 116.84"><defs><style>.cls-1{fill:#12aac2}.cls-4{fill:#05292f}.cls-7{fill:#0e8092}.cls-10{fill:#ff8a29}</style></defs><path class="cls-1" d="M356.61 372.8a18.55 18.55 0 005 12.67l.33-.33a.5.5 0 01.71.71l-.34.34a18.61 18.61 0 0030.7-7.76l-1-.21a17.64 17.64 0 110-10.83l1-.21a18.65 18.65 0 00-4.38-7.31l-.29.29a.5.5 0 01-.71-.71l.28-.28a18.61 18.61 0 00-31.3 13.63z" transform="translate(-316.87 -314.69)"/><path class="cls-1" d="M362.31 386.19l.34-.34a.5.5 0 00-.71-.71l-.33.33-3.51 3.53-7.1 7.12-11 11a2.82 2.82 0 01.75.66l10.92-10.92 7.12-7.12zM409.29 337.79l-10.71 10.71-7.12 7.12-3.55 3.55-.28.28a.5.5 0 10.71.71l.29-.29 3.52-3.52 7.12-7.12L410 338.55a2.82 2.82 0 01-.71-.76z" transform="translate(-316.87 -314.69)"/><circle cx="58.3" cy="16.65" r="2.83" fill="#03171a"/><circle cx="364.44" cy="332.74" r="2.83" transform="rotate(-15 -989.084 1378.87)" fill="#041f23"/><circle class="cls-4" cx="354.44" cy="336.89" r="2.83" transform="rotate(-30 -391.275 770.798)"/><circle class="cls-4" cx="345.85" cy="343.47" r="2.83" transform="rotate(-45 -192.444 568.633)"/><circle cx="339.25" cy="352.06" r="2.83" transform="rotate(-60 -91.715 469.135)" fill="#06363e"/><circle cx="335.11" cy="362.06" r="2.83" transform="rotate(-75 -28.379 411.197)" fill="#084853"/><circle class="cls-7" cx="335.1" cy="383.53" r="2.83" transform="rotate(-15 -1018.448 1429.637)"/><circle class="cls-1" cx="339.25" cy="393.53" r="2.83" transform="rotate(-30 -406.436 827.456)"/><circle cx="395.91" cy="336.89" r="2.83" transform="rotate(-60 -35.093 453.963)" fill="#020d0f"/><circle cx="385.91" cy="332.75" r="2.83" transform="rotate(-75 22.41 381.882)" fill="#021114"/><path class="cls-7" d="M393 367.18l-1 .21-5.42 1.16a2.89 2.89 0 00-2.27 2.59h16.59a1.67 1.67 0 010 3.33h-16.57a2.88 2.88 0 002.27 2.59l5.42 1.16 1 .21 4.35.93 9.83 2.1 9 1.91a2.89 2.89 0 003.5-2.83v-15.47a2.89 2.89 0 00-3.5-2.83l-9 1.91-9.83 2.1zm20 .69a4.94 4.94 0 11-5 4.93 4.94 4.94 0 015-4.94zM426.81 367.86a4.94 4.94 0 104.94 4.94 4.94 4.94 0 00-4.94-4.94zm0 7.41a2.47 2.47 0 112.47-2.47 2.47 2.47 0 01-2.47 2.47z" transform="translate(-316.87 -314.69)"/><path class="cls-1" d="M413 383.83l-2.92-.7a36.33 36.33 0 01-8 14.28l2.12 2.12a39.31 39.31 0 008.8-15.7zM375.17 409.31v3a39.33 39.33 0 0026.73-10.42l-2.12-2.12a36.33 36.33 0 01-24.61 9.54zM375.17 375.27a2.47 2.47 0 111.81-4.14h2.9a4.94 4.94 0 100 3.33H377a2.45 2.45 0 01-1.83.81z" transform="translate(-316.87 -314.69)"/><path class="cls-10" d="M351 396.12l7.1-7.12a22.65 22.65 0 01-5.6-14.92h-10.05a32.68 32.68 0 008.55 22.04zM342.45 371.55h10.05a22.73 22.73 0 0139-15.92l7.12-7.12a32.79 32.79 0 00-56.17 23.04zM378 343.87a2.83 2.83 0 11-2.83-2.83 2.83 2.83 0 012.83 2.83zM407.2 364.15a32.7 32.7 0 00-7.93-14.92l-7.12 7.12a22.71 22.71 0 015.21 9.9z" transform="translate(-316.87 -314.69)"/><circle class="cls-10" cx="17.02" cy="58.11" r="2.64"/><path class="cls-10" d="M425.39 384.9a.25.25 0 00-.3.18 51.37 51.37 0 01-84.18 26 2.83 2.83 0 00-3.92-3.91 51.19 51.19 0 01-13.15-31.92 2.51 2.51 0 01-.31 0h-.19a51.68 51.68 0 0013.26 32.22 2.82 2.82 0 104 4 51.87 51.87 0 0085-26.26.25.25 0 00-.21-.31zM323.83 370.37a51.44 51.44 0 0185.71-35.82 2.81 2.81 0 004 4 51.28 51.28 0 0111.6 22.1.25.25 0 00.49-.12 51.77 51.77 0 00-11.73-22.33 2.81 2.81 0 00-4-4 51.94 51.94 0 00-86.57 36.16h.19a2.51 2.51 0 01.31.01z" transform="translate(-316.87 -314.69)"/><circle class="cls-10" cx="109.94" cy="58.12" r="2.47"/><circle class="cls-10" cx="96.16" cy="58.12" r="2.47"/><path class="cls-10" d="M375.17 423.11a49.75 49.75 0 0048.14-36.81l-8.75-2.11a40.79 40.79 0 01-9.1 16.53l-1.2-1.2-2.12-2.12-2-2a32.68 32.68 0 007.06-14l-9.83-2.1a22.72 22.72 0 01-38.58 10.36l-7.12 7.12a32.77 32.77 0 0046.18 1l1.93 1.93 2.12 2.12 1.22 1.22a40.8 40.8 0 01-27.95 11v9zm0-18.5a2.83 2.83 0 112.83-2.83 2.83 2.83 0 01-2.83 2.84zm40.91-18.91l5.88 1.7-.42 1.44-5.88-1.7zm-.9 2.89l5.66 2.33-.57 1.39-5.66-2.31zm-1.47 3.29l5.47 2.76-.68 1.36-5.5-2.77zM412 395l5 3.51-.86 1.23-5-3.51zm-2.07 3l4.69 3.94-1 1.15-4.62-3.89zm-2.35 3l4.33 4.33-1.06 1.06-3.45-3.45-.88-.88.12-.12zm-2.58 2.7l1.17 1.39 2.77 3.3-1.15 1-3.94-4.69.44-.37zm-2.81 2.48l3.51 5-1.23.86L401 407zm-3 2.23l3.06 5.3-1.3.75-3.06-5.3zm-3.19 2l2.59 5.55-1.36.63-2.6-5.59zm-3.36 1.59l2.09 5.76-1.41.51-2.09-5.76zm-3.49 1.37l1.59 5.92-1.45.39-1.58-5.92zm-3.59 1.06l1.06 6-1.48.26-1.06-6zm-3.67.75l.53 6.1-1.49.13-.53-6.1zm-5.22.42h1.5v6.13h-1.5v-6.12zM372.69 372.8a2.46 2.46 0 102.47-2.47 2.47 2.47 0 00-2.47 2.47zM432.73 381.78a.39.39 0 00-.43.31.38.38 0 00.32.43.38.38 0 00.37-.32.36.36 0 00-.26-.42zM431.41 358.08a.37.37 0 00-.27.45.38.38 0 00.36.28h.1a.38.38 0 00.27-.46.37.37 0 00-.46-.27zM431.54 387.63a.36.36 0 00-.45.26.37.37 0 00.26.46h.1a.38.38 0 00.36-.28.37.37 0 00-.27-.44zM427.39 398.82a.39.39 0 00-.51.17.37.37 0 00.17.5.33.33 0 00.17 0 .36.36 0 00.33-.2.38.38 0 00-.16-.47zM429.76 393.33a.37.37 0 00-.49.21.37.37 0 00.22.48.29.29 0 00.13 0 .37.37 0 00.14-.69zM433.31 375.83a.38.38 0 000 .75.38.38 0 000-.75zM362.14 316.91h.09a.37.37 0 00.28-.45.38.38 0 00-.45-.28.38.38 0 00.08.73zM356.4 318.57a.25.25 0 00.12 0 .37.37 0 10-.24-.71.37.37 0 00-.23.48.37.37 0 00.35.23zM340.61 326.92a.35.35 0 00.22-.08.38.38 0 00-.45-.6.38.38 0 00-.08.53.37.37 0 00.31.15zM345.58 323.6a.34.34 0 00.19-.05.37.37 0 00.13-.51.37.37 0 00-.51-.13.37.37 0 00.19.69zM350.86 320.81a.32.32 0 00.16 0 .37.37 0 00.18-.5.39.39 0 00-.5-.18.38.38 0 00.16.68zM385.81 316.37h.07a.37.37 0 00.37-.3.37.37 0 00-.3-.44.38.38 0 00-.44.3.39.39 0 00.3.44zM374 315.44a.39.39 0 00.37-.39.38.38 0 10-.37.39zM368 315.87a.37.37 0 10-.42-.32.39.39 0 00.42.32zM324.69 344.66a.37.37 0 00.18 0 .39.39 0 00.33-.19.38.38 0 00-.14-.51.37.37 0 00-.51.14.37.37 0 00.14.56zM317.52 378.7a.38.38 0 00-.34.41.37.37 0 00.37.34.37.37 0 00.34-.41.38.38 0 00-.37-.34zM317.62 373.11a.35.35 0 000-.11.39.39 0 000-.11.37.37 0 00-.37-.38.38.38 0 00-.38.37.39.39 0 000 .12.42.42 0 000 .11.38.38 0 00.38.38.37.37 0 00.37-.38zM331.83 335a.37.37 0 00.28-.13.37.37 0 10-.56-.49.37.37 0 000 .53.38.38 0 00.28.09zM336 330.74a.43.43 0 00.26-.09.39.39 0 000-.54.37.37 0 10-.55.51.36.36 0 00.29.12zM328.1 339.67a.34.34 0 00.3-.16.37.37 0 10-.52.09.36.36 0 00.22.07zM322.33 349.32a.39.39 0 00-.5.19.39.39 0 00.2.5.35.35 0 00.15 0 .36.36 0 00.34-.23.37.37 0 00-.19-.46zM402.56 322.25a.35.35 0 00.17 0 .39.39 0 00.34-.19.38.38 0 00-.16-.51.36.36 0 00-.5.15.38.38 0 00.15.55zM407.64 325.32a.32.32 0 00.21.07.38.38 0 00.21-.69.38.38 0 00-.52.1.37.37 0 00.1.52zM412.61 329a.37.37 0 00.29-.14.37.37 0 000-.52.38.38 0 00-.49.57.38.38 0 00.2.09zM416.72 332.95a.39.39 0 00.27.11.38.38 0 10-.27-.12zM391.59 317.75h.1a.38.38 0 00.36-.27.37.37 0 00-.25-.47.37.37 0 10-.21.74zM379.93 315.6a.37.37 0 00.37-.35.36.36 0 00-.34-.4.37.37 0 10-.03.75zM397.19 319.71h.14a.37.37 0 00.35-.23.37.37 0 10-.49.23zM432.71 364.66h.06a.37.37 0 10-.43-.31.38.38 0 00.37.31zM420.92 337.54a.35.35 0 00.24-.08.37.37 0 10-.53-.06.34.34 0 00.29.14zM432.93 370.25a.37.37 0 00.38.36.38.38 0 10-.38-.36zM429.57 352.38a.37.37 0 00-.22.48.39.39 0 00.35.25.3.3 0 00.13 0 .37.37 0 00-.26-.73zM424.38 342.42a.36.36 0 00.2-.06.37.37 0 00.12-.52.38.38 0 10-.32.58zM427.32 347.62a.42.42 0 00.16 0 .38.38 0 00.17-.51.37.37 0 00-.5-.16.37.37 0 00-.17.5.38.38 0 00.34.17zM318.39 384.61a.38.38 0 00-.29.45.36.36 0 00.36.3h.08a.38.38 0 00-.15-.75zM373.77 430.78a.36.36 0 00-.38.36.37.37 0 00.36.39.38.38 0 00.38-.37.38.38 0 00-.36-.38zM379.71 430.62a.38.38 0 00-.35.41.37.37 0 00.37.34.38.38 0 00-.02-.75zM385.59 429.87a.38.38 0 00-.3.44.37.37 0 00.37.31h.07a.37.37 0 00.3-.43.38.38 0 00-.44-.32zM391.38 428.53a.38.38 0 00.11.74h.1a.37.37 0 00.26-.46.37.37 0 00-.47-.28zM367.85 430.32a.37.37 0 10-.09.74.39.39 0 00.38-.33.38.38 0 00-.29-.41zM356.32 427.6a.36.36 0 00-.47.23.38.38 0 00.23.48h.12a.39.39 0 00.36-.25.38.38 0 00-.24-.46zM362 429.25a.37.37 0 00-.45.28.38.38 0 00.28.45h.09a.37.37 0 00.36-.29.36.36 0 00-.28-.44zM416.57 413.42a.38.38 0 000 .53.41.41 0 00.27.11.38.38 0 00.26-.11.37.37 0 10-.53-.53zM412.21 417.46a.37.37 0 000 .53.35.35 0 00.28.13.44.44 0 00.25-.08.38.38 0 00-.53-.58zM420.49 409a.38.38 0 00.07.53.38.38 0 00.23.08.37.37 0 00.29-.14.38.38 0 10-.59-.47zM397 426.58a.37.37 0 00-.2.49.38.38 0 00.35.23h.14a.37.37 0 00-.29-.72zM402.36 424.07a.38.38 0 00.18.71.39.39 0 00.18 0 .38.38 0 00.15-.51.39.39 0 00-.51-.2zM407.45 421a.38.38 0 00.21.69.33.33 0 00.21-.07.37.37 0 00.11-.52.38.38 0 00-.53-.1zM424.46 404a.35.35 0 00-.51.11.37.37 0 00.11.52.37.37 0 00.52-.12.37.37 0 00-.12-.51zM320.16 354.88a.37.37 0 00-.23.71.26.26 0 00.12 0 .36.36 0 00.35-.26.38.38 0 00-.24-.45zM350.82 425.35a.39.39 0 00-.5.19.36.36 0 00.18.49.31.31 0 00.16 0 .38.38 0 00.34-.22.37.37 0 00-.18-.46zM321.94 396a.37.37 0 00-.19.5.38.38 0 00.34.22.42.42 0 00.15 0 .38.38 0 00.19-.5.37.37 0 00-.49-.22zM319.87 390.4a.39.39 0 00-.25.48.37.37 0 00.36.26h.12a.38.38 0 00-.23-.74zM317.62 366.54a.37.37 0 00-.42.33.37.37 0 00.34.41.39.39 0 00.46-.28.38.38 0 00-.38-.46zM318.59 360.65a.38.38 0 10-.16.74h.08a.38.38 0 00.37-.29.38.38 0 00-.29-.45zM324.58 401.37a.37.37 0 00-.14.51.37.37 0 00.32.19.32.32 0 00.19 0 .37.37 0 00-.37-.7zM327.76 406.42a.38.38 0 00-.09.53.37.37 0 00.3.15.34.34 0 00.22-.07.37.37 0 10-.43-.61zM345.58 422.56a.36.36 0 00-.51.13.37.37 0 00.13.51.32.32 0 00.19 0 .36.36 0 00.32-.18.37.37 0 00-.13-.46zM340.14 419.31a.38.38 0 00.07.53.39.39 0 00.23.07.38.38 0 00.3-.15.38.38 0 00-.6-.45zM331.44 411.13a.38.38 0 000 .53.37.37 0 00.28.13.38.38 0 00.25-.09.38.38 0 10-.53-.57zM335.58 415.45a.38.38 0 000 .53.35.35 0 00.25.1.39.39 0 00.28-.12.37.37 0 10-.53-.51z" transform="translate(-316.87 -314.69)"/></svg>