<svg preserveAspectRatio="none" data-name="Layer 1" xmlns="http://www.w3.org/2000/svg" viewBox="0 0 109.38 111.67"><defs><linearGradient id="a" x1="388.99" y1="497.67" x2="388.99" y2="582.33" gradientUnits="userSpaceOnUse"><stop offset=".01" stop-color="#5d85c4"/><stop offset="1" stop-color="#334f7e"/></linearGradient><linearGradient id="b" x1="386.63" y1="480.67" x2="386.63" y2="592.33" gradientUnits="userSpaceOnUse"><stop offset=".03" stop-color="#71ebb2"/><stop offset=".99" stop-color="#339567"/></linearGradient><linearGradient id="c" x1="388.99" y1="509.9" x2="388.99" y2="570.1" gradientUnits="userSpaceOnUse"><stop offset=".02" stop-color="#dd697d"/><stop offset=".98" stop-color="#a13246"/></linearGradient></defs><path d="M389 582.33A42.33 42.33 0 11431.32 540 42.38 42.38 0 01389 582.33zm0-76.67A34.33 34.33 0 10423.32 540 34.37 34.37 0 00389 505.67z" transform="translate(-331.94 -480.67)" fill="url(#a)"/><path d="M389 592.33A52.39 52.39 0 01336.65 540h4a48.33 48.33 0 1059-47.15l.88-3.9A52.34 52.34 0 01389 592.33zm-44.7-64.74l-12.36-4 1.24-3.8 12.36 4zm3.56-9l-11.26-6.5 2-3.46 11.26 6.5zm5.36-8.08l-9.66-8.7 2.68-3 9.66 8.7zm6.92-6.79l-7.64-10.52 3.24-2.35 7.64 10.52zm8.18-5.21l-5.32-11.9 3.65-1.63 5.35 11.88zm9.08-3.39l-2.7-12.72 3.91-.83 2.7 12.72zm13.6-1.45h-4v-13h4v13z" transform="translate(-331.94 -480.67)" fill="url(#b)"/><path d="M389 513.43a1.76 1.76 0 111.76-1.76 1.76 1.76 0 01-1.76 1.76zm1.76 54.9a1.76 1.76 0 10-1.76 1.77 1.76 1.76 0 001.75-1.77zm-5.93-56.41a1.76 1.76 0 10-1.36 2.09 1.76 1.76 0 001.35-2.09zm11.78 55.43a1.76 1.76 0 10-1.36 2.09 1.76 1.76 0 001.35-2.09zm-17.54-53.95a1.76 1.76 0 10-.89 2.33 1.76 1.76 0 00.89-2.33zm23 51.77a1.76 1.76 0 10-.89 2.33 1.76 1.76 0 00.94-2.33zM373.76 516a1.76 1.76 0 10-.39 2.46 1.76 1.76 0 00.39-2.46zm33.31 45.84a1.76 1.76 0 10-.39 2.46 1.76 1.76 0 00.39-2.41zm-38-42.15a1.76 1.76 0 10.13 2.49 1.76 1.76 0 00-.09-2.45zm42.11 37.92a1.76 1.76 0 10.13 2.49 1.76 1.76 0 00-.09-2.45zm-45.89-33.34a1.76 1.76 0 10.65 2.41 1.76 1.76 0 00-.61-2.37zm49.07 28.33a1.76 1.76 0 10.65 2.41 1.76 1.76 0 00-.6-2.37zm-51.82-23.07a1.76 1.76 0 101.13 2.22 1.76 1.76 0 00-1.08-2.18zm53.89 17.51a1.76 1.76 0 101.13 2.22 1.76 1.76 0 00-1.08-2.18zM361 535.29a1.76 1.76 0 101.57 1.94 1.76 1.76 0 00-1.57-1.94zm56.36 5.92a1.76 1.76 0 101.57 1.94 1.76 1.76 0 00-1.58-1.94zm-56.72 0a1.76 1.76 0 101.94 1.57 1.76 1.76 0 00-1.95-1.57zm56.36-5.92a1.76 1.76 0 101.94 1.57 1.76 1.76 0 00-1.94-1.57zm-55.5 11.79a1.76 1.76 0 102.22 1.13 1.76 1.76 0 00-2.22-1.13zm53.89-17.51a1.76 1.76 0 102.22 1.13 1.76 1.76 0 00-2.22-1.13zm-51.82 23.07a1.76 1.76 0 102.41.65 1.76 1.76 0 00-2.41-.65zm49.07-28.33a1.76 1.76 0 102.41.65 1.76 1.76 0 00-2.41-.65zm-45.89 33.34a1.76 1.76 0 102.49.13 1.76 1.76 0 00-2.49-.13zm42.11-37.92a1.76 1.76 0 102.49.13 1.76 1.76 0 00-2.49-.13zm-38 42.15a1.76 1.76 0 102.46-.39 1.76 1.76 0 00-2.41.4zM404.22 516a1.76 1.76 0 102.46-.39 1.76 1.76 0 00-2.46.39zm-28.36 49.12a1.76 1.76 0 102.33-.89 1.76 1.76 0 00-2.34.94zm23-51.77a1.76 1.76 0 102.33-.89 1.76 1.76 0 00-2.29.94zm-17.53 53.95a1.76 1.76 0 102.09-1.36 1.76 1.76 0 00-2.05 1.41zm11.78-55.43a1.76 1.76 0 102.09-1.36 1.76 1.76 0 00-2.05 1.41z" transform="translate(-331.94 -480.67)" fill="url(#c)"/></svg>