<svg preserveAspectRatio="none" id="OBJECTS" xmlns="http://www.w3.org/2000/svg" viewBox="0 0 237.45 237.45"><defs><style>.cls-1{fill:#7783ff}.cls-2{fill:#d000c1}</style></defs><path class="cls-1" d="M251 365.6a116.31 116.31 0 11116.28-116.31A116.44 116.44 0 01251 365.6zm0-231.21a114.9 114.9 0 10114.9 114.9A115 115 0 00251 134.39z" transform="translate(-132.25 -130.57)"/><path class="cls-1" d="M251.13 357.25h-.94v-1.87h.93v1.87zm7.53-.27l-.14-1.87.93-.07.15 1.87zm-16 0l-.94-.08.16-1.86.92.07zm24.42-.88l-.28-1.85.92-.14.29 1.85zm-32.83-.1l-.93-.15.3-1.85.91.15zm41.16-1.49l-.41-1.86.9-.21.44 1.82zm-49.48-.14l-.91-.22.45-1.82.9.22zm57.65-2.1l-.58-1.82.88-.28.58 1.78zm-65.82-.18l-.9-.29.59-1.78.89.29zm73.79-2.69l-.71-1.73.85-.35.72 1.73zm-81.76-.24l-.87-.36.73-1.72.86.36zm89.47-3.25l-.84-1.67.82-.42.86 1.67zm-97.18-.29l-.84-.43.86-1.66.83.42zm104.59-3.79l-1-1.61.79-.48 1 1.59zm-112-.35l-.8-.5 1-1.59.79.49zm119.07-4.31l-1.1-1.52.75-.54 1.1 1.51zm-126.13-.39l-.76-.56 1.12-1.5.75.55zm132.81-4.8l-1.21-1.43.71-.6 1.22 1.42zM181 331.49l-.71-.62 1.23-1.41.7.6zm145.74-5.26l-1.32-1.33.66-.65 1.32 1.32zm-152-.48l-.66-.67 1.33-1.31.65.65zM332.52 320l-1.41-1.23.6-.7 1.42 1.22zM169 319.53l-.61-.72 1.43-1.2.6.7zm168.84-6.09l-1.5-1.12.55-.74 1.52 1.1zm-174.1-.55l-.55-.76 1.52-1.09.54.75zm178.87-6.46l-1.58-1 .49-.78 1.6 1zM159 305.86l-.49-.8 1.6-1 .48.79zm187.81-6.8l-1.66-.86.43-.83 1.67.85zm-192-.58l-.43-.84 1.67-.84.42.82zm195.58-7.1l-1.72-.73.36-.86 1.73.72zm-199.14-.58l-.36-.87 1.74-.7.35.85zm202.14-7.36l-1.78-.59.29-.88 1.78.57zm-205.09-.59l-.3-.85 1.78-.56.28.88zm207.45-7.56l-1.82-.45.22-.9 1.82.43zM146 274.7l-.22-.92 1.82-.42.21.9zm211.49-7.7l-1.85-.3.15-.92 1.85.29zm-213.13-.6l-.14-.93 1.85-.28.14.91zm214.18-7.8l-1.86-.16.07-.92 1.87.14zm-215.19-.6l-.07-.94 1.87-.13.07.92zm215.57-7.86h-1.87v-.93h1.87v.94zm-214-.61H143v-1.16h1.87v1.14zm211.92-7.72l-.07-.92 1.87-.15.07.94zM145.2 241l-1.87-.15.08-.94 1.87.16zm210.69-7.47l-.14-.91 1.85-.29.14.93zm-209.72-.81l-1.85-.29.15-.93 1.85.31zm208.17-7.37l-.21-.9 1.82-.44.22.92zm-206.55-.8l-1.79-.45.22-.92 1.82.45zm204.36-7.24l-.28-.88 1.78-.58.29.9zM150 216.52l-1.78-.58.3-.9 1.78.59zm199.28-7.06l-.28-.86 1.73-.72.36.87zm-196.4-.77l-1.68-.69.37-.87 1.72.73zm193-6.81l-.42-.82 1.67-.85.42.84zm-189.48-.76l-1.67-.85.43-.84 1.66.86zm185.46-6.53l-.48-.79 1.59-1 .49.8zm-181.38-.74l-1.6-1 .5-.8 1.59 1zm176.81-6.21l-.54-.75 1.51-1.1.55.76zm-172.17-.72l-1.51-1.1.56-.76 1.5 1.12zm167.07-5.86l-.6-.71 1.42-1.22.61.72zm-161.91-.68l-1.42-1.22.62-.71 1.41 1.23zm156.3-5.48l-.65-.66 1.32-1.32.66.67zM176 174.27l-1.33-1.32.67-.66 1.31 1.34zm144.58-5.07l-.7-.6 1.22-1.42.71.62zm-138.46-.58l-1.22-1.42.72-.61 1.2 1.43zM314 164l-.74-.55 1.1-1.52.76.56zm-125.43-.52l-1.1-1.51.76-.55 1.09 1.52zm118.54-4.17l-.78-.49 1-1.6.8.5zm-111.62-.46l-1-1.59.81-.49 1 1.61zm104.39-3.68l-.83-.43.85-1.67.84.43zm-97.14-.39l-.85-1.67.84-.42.84 1.67zm89.6-3.16l-.86-.36.72-1.73.87.36zm-82-.32l-.72-1.73.87-.36.7 1.74zm74.25-2.63l-.88-.29.57-1.78.9.3zm-66.44-.26l-.58-1.78.9-.29.53 1.76zm58.44-2.07l-.9-.22.44-1.82.87.2zm-50.42-.19l-.43-1.82.91-.22.42 1.82zm42.27-1.49l-.92-.15.29-1.85.93.15zm-34.1-.13l-.34-1.88.93-.14.27 1.85zm25.84-.91l-.92-.07.14-1.87.94.08zm-17.57-.07l-.14-1.87.94-.07.13 1.87zm9.25-.32H251l-.05-1.87h.94z" transform="translate(-132.25 -130.57)"/><path class="cls-2" d="M339.28 244.3h9.38a97.94 97.94 0 00-94.57-92.77v9.37a88.57 88.57 0 0185.19 83.4zM245.35 161v-9.38a98 98 0 00-92.07 92.66h9.38A88.58 88.58 0 01245.35 161zM162.6 253h-9.37a97.94 97.94 0 0092.12 93.91v-9.38A88.57 88.57 0 01162.6 253zM254.09 337.69v9.37a97.93 97.93 0 0094.62-94h-9.37a88.56 88.56 0 01-85.25 84.63z" transform="translate(-132.25 -130.57)"/><path class="cls-1" d="M52.78 111.79l-.22 2.77-10.27-.64.25-3.2 10.24 1.07z"/><path class="cls-1" d="M186.11 235.5c-.21.9-.34 1.82-.51 2.73l-10.15-1.71c.2-1.05.35-2.11.59-3.15zM187.91 228.8c-.32.87-.53 1.77-.8 2.66l-9.92-2.76c.3-1 .56-2.07.92-3.07zM190.4 222.33c-.4.84-.75 1.69-1.08 2.56l-9.57-3.79c.38-1 .79-2 1.24-3zM193.55 216.15c-.46.8-.94 1.6-1.34 2.43l-9.12-4.78c.47-1 1-1.88 1.55-2.81zM197.33 210.33c-.53.76-1.09 1.5-1.59 2.28l-8.57-5.71c.58-.9 1.23-1.75 1.84-2.63z" transform="translate(-132.25 -130.57)"/><path class="cls-1" d="M69.45 74.36l-1.81 2.11-7.94-6.57 2.1-2.43 7.65 6.89z"/><path class="cls-1" d="M206.61 200c-.69.62-1.34 1.27-2 1.91l-7.2-7.36c.78-.73 1.54-1.49 2.33-2.2zM212 195.66c-.77.52-1.48 1.12-2.21 1.68l-6.4-8.07c.85-.65 1.67-1.34 2.55-1.94z" transform="translate(-132.25 -130.57)"/><path class="cls-1" d="M85.58 61.31l-1.2.69-1.17.75-5.53-8.69 1.36-.86 1.39-.8 5.15 8.91z"/><path class="cls-1" d="M224 188.72c-.84.39-1.7.74-2.51 1.18l-4.59-9.22c.94-.51 1.93-.91 2.9-1.36zM230.48 186.23c-.87.31-1.76.58-2.62.9l-3.59-9.65c1-.38 2-.7 3-1z" transform="translate(-132.25 -130.57)"/><path class="cls-1" d="M104.93 53.87l-2.7.62-2.56-9.97 3.13-.73 2.13 10.08zM111.79 52.78l-2.76.35-1.49-10.18 3.18-.41 1.07 10.24zM118.73 52.42l-2.78.07-.43-10.29 3.21-.08v10.3zM125.66 52.78l-2.77-.22.64-10.27 3.2.25-1.07 10.24z"/><path class="cls-1" d="M264.76 184.43c-.9-.21-1.82-.34-2.73-.51l1.71-10.15c1.05.2 2.11.35 3.15.59zM271.46 186.23c-.87-.32-1.77-.53-2.66-.8l2.76-9.92c1 .3 2.07.56 3.07.92zM277.94 188.72c-.84-.4-1.69-.75-2.56-1.08l3.79-9.57c1 .38 2 .79 3 1.24zM284.11 191.88c-.8-.46-1.6-.94-2.43-1.34l4.78-9.12c1 .47 1.88 1 2.81 1.55zM289.93 195.66c-.76-.53-1.5-1.09-2.28-1.59l5.71-8.57c.9.58 1.75 1.23 2.63 1.84z" transform="translate(-132.25 -130.57)"/><path class="cls-1" d="M163.09 69.45l-2.1-1.81 6.57-7.94 2.42 2.1-6.89 7.65z"/><path class="cls-1" d="M300.24 204.93c-.62-.69-1.27-1.34-1.91-2l7.36-7.2c.73.78 1.49 1.54 2.2 2.33zM304.61 210.33c-.52-.77-1.12-1.48-1.68-2.21l8.07-6.4c.65.85 1.34 1.67 1.94 2.55z" transform="translate(-132.25 -130.57)"/><path class="cls-1" d="M176.14 85.58l-.69-1.2-.75-1.17 8.69-5.53.86 1.36.81 1.39-8.92 5.15z"/><path class="cls-1" d="M311.54 222.33c-.39-.84-.74-1.7-1.18-2.51l9.22-4.59c.51.94.91 1.93 1.36 2.9zM314 228.8c-.31-.87-.58-1.76-.9-2.62l9.65-3.59c.38 1 .7 2 1 3z" transform="translate(-132.25 -130.57)"/><path class="cls-1" d="M183.59 104.93l-.63-2.7 9.98-2.56.72 3.13-10.07 2.13zM184.67 111.79l-.35-2.76 10.19-1.49.4 3.18-10.24 1.07zM185.03 118.73l-.07-2.78 10.29-.43.08 3.21h-10.3zM184.67 125.66l.22-2.77 10.27.64-.25 3.2-10.24-1.07z"/><path class="cls-1" d="M315.83 263.09c.21-.9.34-1.82.51-2.73l10.15 1.71c-.2 1.05-.35 2.11-.59 3.15zM314 269.78c.32-.87.53-1.77.8-2.66l9.92 2.76c-.3 1-.56 2.07-.92 3.07zM311.54 276.26c.4-.84.75-1.69 1.08-2.56l9.57 3.79c-.38 1-.79 2-1.24 3zM308.39 282.44c.46-.8.94-1.6 1.34-2.43l9.12 4.78c-.47 1-1 1.88-1.55 2.81zM304.61 288.26c.53-.76 1.09-1.5 1.59-2.28l8.57 5.71c-.58.9-1.23 1.75-1.84 2.63z" transform="translate(-132.25 -130.57)"/><path class="cls-1" d="M168 163.09l1.82-2.1 7.93 6.57-2.1 2.42-7.65-6.89z"/><path class="cls-1" d="M295.33 298.56c.69-.62 1.34-1.27 2-1.91l7.2 7.36c-.78.73-1.54 1.49-2.33 2.2zM289.93 302.93c.77-.52 1.48-1.12 2.21-1.68l6.4 8.07c-.85.65-1.67 1.34-2.55 1.94z" transform="translate(-132.25 -130.57)"/><path class="cls-1" d="M151.87 176.14l1.2-.69 1.17-.75 5.53 8.69-1.35.86-1.39.81-5.16-8.92z"/><path class="cls-1" d="M277.94 309.87c.84-.39 1.7-.74 2.51-1.18l4.55 9.21c-.94.51-1.93.91-2.9 1.36zM271.46 312.36c.87-.31 1.76-.58 2.62-.9l3.59 9.65c-1 .38-2 .7-3 1z" transform="translate(-132.25 -130.57)"/><path class="cls-1" d="M132.52 183.59l2.7-.63 2.56 9.98-3.13.72-2.13-10.07zM125.66 184.67l2.76-.35 1.49 10.19-3.18.4-1.07-10.24zM118.73 185.03l2.78-.07.42 10.29-3.2.08v-10.3zM111.79 184.67l2.77.22-.64 10.27-3.2-.25 1.07-10.24z"/><path class="cls-1" d="M237.18 314.15c.9.21 1.82.34 2.73.51l-1.71 10.15c-1.05-.2-2.11-.35-3.15-.59zM230.48 312.36c.87.32 1.77.53 2.66.8l-2.76 9.92c-1-.3-2.07-.56-3.07-.92zM224 309.87c.84.4 1.69.75 2.56 1.08l-3.79 9.57c-1-.38-2-.79-3-1.24zM217.83 306.71c.8.46 1.6.94 2.43 1.34l-4.78 9.12c-1-.47-1.88-1-2.81-1.55zM212 302.93c.76.53 1.5 1.09 2.28 1.59l-5.71 8.57c-.9-.58-1.75-1.23-2.63-1.84z" transform="translate(-132.25 -130.57)"/><path class="cls-1" d="M74.36 168l2.1 1.82-6.56 7.93-2.43-2.1 6.89-7.65z"/><path class="cls-1" d="M201.7 293.65c.62.69 1.27 1.34 1.91 2l-7.36 7.2c-.73-.78-1.49-1.54-2.2-2.33zM197.33 288.26c.52.77 1.12 1.48 1.68 2.21l-8.07 6.4c-.65-.85-1.34-1.67-1.94-2.55z" transform="translate(-132.25 -130.57)"/><path class="cls-1" d="M61.31 151.87l.69 1.2.75 1.17-8.69 5.53-.86-1.35-.8-1.39 8.91-5.16z"/><path class="cls-1" d="M190.4 276.26c.39.84.74 1.7 1.18 2.51l-9.22 4.59c-.51-.94-.91-1.93-1.36-2.9zM187.91 269.78c.3.87.58 1.76.9 2.62l-9.65 3.6c-.38-1-.7-2-1-3z" transform="translate(-132.25 -130.57)"/><path class="cls-1" d="M53.87 132.52l.62 2.7-9.97 2.56-.73-3.13 10.08-2.13zM52.78 125.66l.35 2.76-10.18 1.49-.41-3.18 10.24-1.07zM52.42 118.73l.07 2.78-10.29.42-.08-3.2h10.3z"/><path class="cls-1" d="M306.67 249.29h-5.62a50.08 50.08 0 00-100.16 0h-5.62a55.7 55.7 0 11111.4 0z" transform="translate(-132.25 -130.57)"/><path class="cls-1" d="M251 303.12a53.82 53.82 0 1153.82-53.82A53.89 53.89 0 01251 303.12zm0-105.78a52 52 0 1052 52 52 52 0 00-52-52z" transform="translate(-132.25 -130.57)"/><circle class="cls-1" cx="3.12" cy="118.73" r="3.12"/><circle class="cls-1" cx="234.33" cy="118.73" r="3.12"/><circle class="cls-1" cx="118.73" cy="234.33" r="3.12"/><circle class="cls-1" cx="118.73" cy="3.12" r="3.12"/></svg>