<svg preserveAspectRatio="none" id="Layer_1" data-name="Layer 1" xmlns="http://www.w3.org/2000/svg" viewBox="0 0 66.38 66.38"><defs><style>.cls-1{fill:aqua;}</style></defs><title>circle94</title><g id="_编组_" data-name="&lt;编组&gt;"><path id="_复合路径_" data-name="&lt;复合路径&gt;" class="cls-1" d="M389.35,94.26l-0.19-4.46h0.09l0.2,4.46h-0.1Zm-3.47,0h0c-0.56,0-1.15-.14-1.77-0.23a25,25,0,0,1-3.46-.86l0,0L382,88.76h0a21.35,21.35,0,0,0,2.81.71c0.48,0.08,1,.15,1.45.19h0Zm5.24,0-0.52-4.52h0a19.87,19.87,0,0,0,2.84-.55c0.45-.12.9-0.25,1.39-0.43l0.07,0v0.06l1.49,4.24,0,0c-0.57.2-1.16,0.38-1.71,0.52a24.22,24.22,0,0,1-3.5.67h0ZM379,92.45l-0.1,0,1.7-4.12,0.09,0Zm20.59-.93-2.06-4,0.08,0,2.07,4Zm-23.8-.61,0,0c-0.5-.3-1-0.62-1.5-1a24.58,24.58,0,0,1-2.77-2.25l0,0,3.12-3.32,0,0a19.56,19.56,0,0,0,2.25,1.83c0.4,0.27.81,0.53,1.21,0.79h0.07l0,0.07Zm25.38-.23-2.4-3.86,0,0a20.61,20.61,0,0,0,2.33-1.69V85L401.21,85c0.36-.3.71-0.62,1-0.94l0,0,3.17,3.26,0,0c-0.41.4-.85,0.8-1.32,1.19a24.56,24.56,0,0,1-2.88,2.1ZM370.29,86.4l-0.06-.07,3.27-3,0.07,0.07Zm37.43-1.69L404.19,82l0.06-.08,3.53,2.72ZM368,83.64l0,0c-0.32-.47-0.64-1-1-1.5l0,0h0a25,25,0,0,1-1.54-3.16l0,0,4.23-1.69,0,0A18.93,18.93,0,0,0,371,79.77l0,0h0l0,0c0.23,0.4.48,0.79,0.76,1.19l0,0Zm40.76-.36L405,80.78l0,0a19.61,19.61,0,0,0,1.42-2.53c0.2-.45.4-0.9,0.56-1.34l0,0,4.25,1.62v0c-0.21.54-.45,1.1-0.7,1.64a25,25,0,0,1-1.74,3.12Zm-43.86-6,0-.09,4.25-1.35,0,0.09Zm47.34-2.14h-0.06l-4.38-1L407.73,74l4.55,1v0.06ZM364.05,73.8v0c-0.1-.59-0.17-1.18-0.23-1.77v0c-0.07-.73-0.1-1.46-0.1-2.18,0-.45,0-0.89,0-1.33v0l4.54,0.24v0c0,0.36,0,.73,0,1.09,0,0.6,0,1.21.08,1.82h0c0,0.47.11,1,.18,1.44v0Zm48.54-.45-4.5-.65v0a20.79,20.79,0,0,0,.2-2.9l0,0,4.5,0a25.35,25.35,0,0,1-.25,3.55v0Zm-4.3-4.28v0a20.66,20.66,0,0,0-.32-2.89c-0.08-.46-0.18-0.92-0.3-1.38l0-.09,4.41-1.15v0c0.16,0.57.28,1.16,0.39,1.75a24.1,24.1,0,0,1,.38,3.54v0ZM368.4,67.26h0L364,66.7V66.6l4.53,0.57ZM369,64.41l-4.39-1.22,0,0c0.16-.55.34-1.13,0.53-1.7a25.1,25.1,0,0,1,1.46-3.26l0,0,4,2.15,0,0A21.68,21.68,0,0,0,369.45,63c-0.16.45-.31,0.91-0.44,1.38ZM406.8,62l0-.09,4.11-1.74,0,0.09Zm-0.66-1.29,0,0a20.45,20.45,0,0,0-1.5-2.49c-0.27-.37-0.56-0.76-0.88-1.15l0,0,3.51-2.9,0,0c0.38,0.46.75,0.93,1.09,1.42l0,0h0a24.41,24.41,0,0,1,1.82,3l0,0Zm-34.65-1.6H371.3l-3.77-2.38,0-.08Zm1.56-2.32-3.45-3,0,0c0.37-.43.76-0.86,1.17-1.28h0l0,0a25.84,25.84,0,0,1,2.69-2.35l0,0,2.74,3.64,0,0a20.87,20.87,0,0,0-2.16,1.87l0,0h-0.1c-0.33.34-.66,0.7-1,1.06Zm28.73-1.86-0.08-.07,3.08-3.4v0.17Zm-1.15-.9,0,0a19.82,19.82,0,0,0-2.42-1.62c-0.43-.24-0.86-0.48-1.28-0.67l0-.06h0l1.94-4.07,0,0c0.51,0.25,1,.52,1.53.81h0l0,0a26.39,26.39,0,0,1,3,2l0,0Zm-23.12-1.08-0.13,0L375,49.14V49l1,1.6h0ZM380,51.55l-1.89-4.15,0,0c0.51-.23,1.08-0.47,1.64-0.68a25.36,25.36,0,0,1,3.44-1h0l0.94,4.46h0a19.1,19.1,0,0,0-2.8.81c-0.46.17-.91,0.36-1.34,0.55Zm14.29-1-0.1,0,1.34-4.34,0.08,0.09v0Zm-1.42-.33h0a19.33,19.33,0,0,0-2.86-.45q-0.73-.06-1.46-0.06h0l0-4.55h0c0.57,0,1.17,0,1.78.08a24.27,24.27,0,0,1,3.53.54h0Zm-7.33-.38-0.6-4.41,0.1,0,0.6,4.42h-0.1Z" transform="translate(-355.1 -36.56)"/><path id="_复合路径_2" data-name="&lt;复合路径&gt;" class="cls-1" d="M388.29,87.73a18,18,0,1,1,18-18A18,18,0,0,1,388.29,87.73Zm0-34.89a16.92,16.92,0,1,0,16.92,16.92A16.94,16.94,0,0,0,388.29,52.83Z" transform="translate(-355.1 -36.56)"/><path id="_复合路径_3" data-name="&lt;复合路径&gt;" class="cls-1" d="M389.61,96.94l0-.57h0A26.63,26.63,0,0,0,399.38,94V93.85L399.44,94h0v0l0.21,0.47v0.21l-0.06-.17a26.85,26.85,0,0,1-10,2.42h0Zm-10.13-1.43h0a27,27,0,0,1-8.92-5.13l0,0,0.37-.44,0,0a26.43,26.43,0,0,0,8.74,5l0,0Zm28.49-7-0.41-.39,0,0A26.35,26.35,0,0,0,413,79.65l0,0,0.52,0.21v0A27.21,27.21,0,0,1,408,88.52Zm-43.79-6.19h-0.14l0.08,0a27.17,27.17,0,0,1-2.92-9.79V72.43l0.56-.06v0a26.45,26.45,0,0,0,2.87,9.66l0,0Zm51.28-12.55H415V69.72h0.5v0.07Zm-1.06-5.29v0a26.41,26.41,0,0,0-3.83-9.32l0,0,0.48-.31,0,0A26.87,26.87,0,0,1,415,64.36v0Zm-51.74-2.1h0l-0.73-.21h0.23a26.9,26.9,0,0,1,4.66-9.13l0,0h0l0.42,0.33,0,0a26.44,26.44,0,0,0-4.57,9v0ZM403.6,47.94l0,0a26.62,26.62,0,0,0-9.19-4.12l0,0,0.18-.79v0.28a27.07,27.07,0,0,1,9.37,4.19v0Zm-28.81-1.17-0.29-.49h0a26.66,26.66,0,0,1,9.7-3.43v0h0l0.07,0.49v0.29l-0.06-.24a26.43,26.43,0,0,0-9.46,3.35Z" transform="translate(-355.1 -36.56)"/><path id="_复合路径_4" data-name="&lt;复合路径&gt;" class="cls-1" d="M388.29,102.94h-0.36a33.08,33.08,0,0,1-21.75-8.44l0,0,0,0,8.31-9.3,0,0a20.66,20.66,0,0,0,13.54,5.25h0.23c0.45,0,.86,0,1.28,0h0l0.76,12.49h0C389.65,102.92,389,102.94,388.29,102.94Zm23.27-9.59-8.74-8.83,0.07-.07,8.74,8.83Zm-47.05-.51-0.07-.07,8.93-8.64,0.06,0.07Zm48.74-1.2-9.43-8.24,0,0A20.39,20.39,0,0,0,409,69.75c0-.18,0-0.38,0-0.6v0l12.51-.36v0c0,0.37,0,.68,0,1a33.12,33.12,0,0,1-8.2,21.84ZM355.14,71.49v0c0-.55,0-1.13,0-1.69V69a33.13,33.13,0,0,1,8.68-21.66l0,0,9.24,8.45,0,0a20.68,20.68,0,0,0-5.4,13.48c0,0.15,0,.3,0,0.45,0,0.33,0,.67,0,1.06v0Zm48.38-15.78-0.07-.07,9.11-8.45,0.07,0.07Zm-29.51-1-8.55-9,0.08-.07,8.54,9Zm28.41-.07,0,0A20.65,20.65,0,0,0,389,49.1c-0.65,0-1.1,0-1.51,0h0l-0.5-12.51h0c0.8,0,1.7,0,2.41,0a33.11,33.11,0,0,1,21.56,8.9l0,0Z" transform="translate(-355.1 -36.56)"/><path id="_复合路径_5" data-name="&lt;复合路径&gt;" class="cls-1" d="M388.3,87.29h-0.15a17.55,17.55,0,0,1-11.55-4.46l-0.42-.38,0.28-.37-0.28.27-0.89-.88,10.27-9.94,0.17,0.17,0,0,0.43,0.42a3.08,3.08,0,0,0,2.07.81h0.86L390,87.26h-0.6C389,87.28,388.64,87.29,388.3,87.29Zm-10.54-5a16.38,16.38,0,0,0,10.36,3.83h0.67L388,74a4.17,4.17,0,0,1-2.19-.76Zm22.38,0.3-10-10.16,0.17-.17-0.05,0,0.44-.43a3.09,3.09,0,0,0,.78-2.06V69.09L392,69l13.86-.39v1.13a17.48,17.48,0,0,1-4.34,11.54l-0.37.43-0.38-.27L401,81.74Zm-8.32-10.47,9.15,8a16.38,16.38,0,0,0,3.73-10.36l-12.16.34A4.15,4.15,0,0,1,391.82,72.15Zm-21-.88V70.62c0-.27,0-0.57,0-0.87V69.39a17.5,17.5,0,0,1,4.59-11.46l0.38-.42,0.34,0.25-0.24-.26,0.89-.88L386.58,67l-0.18.16,0,0-0.43.42a3.06,3.06,0,0,0-.83,2.06v0.2l0.12,0.59-0.65.09Zm5.06-12.19a16.36,16.36,0,0,0-3.95,10.32v0.35c0,0.11,0,.22,0,0.32L384,69.46a4.18,4.18,0,0,1,.77-2.18Zm15.2,9-0.32-.36-0.25-.19a3.06,3.06,0,0,0-2.06-.88h-0.84l-0.06-.57L387,52.34l0.63-.12c0.41,0,.81,0,1.22,0a17.48,17.48,0,0,1,11.45,4.71l0.42,0.39-0.24.32,0.26-.24,0.83,0.95Zm-2.41-2.56a4.06,4.06,0,0,1,2.18.8l8.3-8.88a16.32,16.32,0,0,0-10.28-4.06h-0.68Z" transform="translate(-355.1 -36.56)"/></g></svg>