<svg preserveAspectRatio="none" id="_1" data-name="1" xmlns="http://www.w3.org/2000/svg" xmlns:xlink="http://www.w3.org/1999/xlink" viewBox="0 0 87.23 86.92"><defs><style>.cls-1{fill:#207398;}.cls-2{fill:#35a3c7;}.cls-3{fill:#4fe3d7;}.cls-4{fill:#53cfec;}.cls-5{fill:#8fffff;}.cls-6{fill:#8ff;}.cls-7{fill:#bdffff;}.cls-8{fill:#6ffef4;}.cls-9{fill:url(#铃琨眄_沭噤桢眚_111);}.cls-10{fill:azure;}.cls-11{fill:#43c9c2;}.cls-12{fill:#3ca5b4;}</style><linearGradient id="铃琨眄_沭噤桢眚_111" x1="38.12" y1="55.15" x2="102.46" y2="55.15" gradientUnits="userSpaceOnUse"><stop offset="0" stop-color="#3a939d"/><stop offset="0.62" stop-color="#4fe3d7"/><stop offset="1" stop-color="#86fafa"/></linearGradient></defs><title>circle72</title><path class="cls-1" d="M99,75.64a36.61,36.61,0,0,1-36.56,35.68q-1.22,0-2.42-.08l2.42-36.49Z" transform="translate(-18.64 -31.29)"/><path class="cls-1" d="M41.33,44.89L62.41,74.76,26.81,66.4A36.67,36.67,0,0,1,41.33,44.89Z" transform="translate(-18.64 -31.29)"/><path class="cls-1" d="M29.94,91.57L62.41,74.76,46.54,107.7A36.82,36.82,0,0,1,29.94,91.57Z" transform="translate(-18.64 -31.29)"/><path class="cls-2" d="M49.64,105a32.9,32.9,0,1,1,12.77,2.58A32.69,32.69,0,0,1,49.64,105ZM32.47,74.76A29.94,29.94,0,1,0,62.41,44.82,30,30,0,0,0,32.47,74.76Z" transform="translate(-18.64 -31.29)"/><path class="cls-3" d="M46.25,51.82L46,51.42a28.25,28.25,0,0,1,13.46-5.05l0,0.48A27.91,27.91,0,0,0,46.25,51.82Z" transform="translate(-18.64 -31.29)"/><path class="cls-3" d="M62.41,46.68q-1,0-2.06.08l0-.48q1-.08,2.1-0.08a29,29,0,0,1,3.46.21l-0.07.48A28.22,28.22,0,0,0,62.41,46.68Z" transform="translate(-18.64 -31.29)"/><path class="cls-3" d="M39.34,90.73l-0.4.29A28.25,28.25,0,0,1,34,77.82l0.48,0A27.9,27.9,0,0,0,39.34,90.73Z" transform="translate(-18.64 -31.29)"/><path class="cls-4" d="M37.6,61.63l-0.44-.22a28.64,28.64,0,0,1,5.06-6.84,29,29,0,0,1,3-2.62l0.29,0.4A28.27,28.27,0,0,0,37.6,61.63Z" transform="translate(-18.64 -31.29)"/><path class="cls-4" d="M90.48,74.76c0-.63,0-1.25-0.06-1.87l0.48,0c0,0.63.06,1.27,0.06,1.91a29,29,0,0,1-.2,3.38l-0.47-.07A28.23,28.23,0,0,0,90.48,74.76Z" transform="translate(-18.64 -31.29)"/><path class="cls-3" d="M87.2,87.91l0.44,0.22a28.65,28.65,0,0,1-5,6.8,29,29,0,0,1-3.08,2.67l-0.29-.4A28.27,28.27,0,0,0,87.2,87.91Z" transform="translate(-18.64 -31.29)"/><path class="cls-4" d="M78.5,97.74l0.29,0.4a28.26,28.26,0,0,1-13.51,5l0-.48A27.9,27.9,0,0,0,78.5,97.74Z" transform="translate(-18.64 -31.29)"/><path class="cls-3" d="M34.7,70.26l-0.48-.07a28.24,28.24,0,0,1,2.53-8l0.44,0.22A27.84,27.84,0,0,0,34.7,70.26Z" transform="translate(-18.64 -31.29)"/><path class="cls-3" d="M62.41,102.83c0.65,0,1.3,0,1.94-.07l0,0.48q-1,.07-2,0.07a29,29,0,0,1-3.59-.22l0.07-.47A28.22,28.22,0,0,0,62.41,102.83Z" transform="translate(-18.64 -31.29)"/><path class="cls-3" d="M85.43,58.71l0.4-.29a28.25,28.25,0,0,1,5,13.24l-0.48,0A27.9,27.9,0,0,0,85.43,58.71Z" transform="translate(-18.64 -31.29)"/><path class="cls-4" d="M34.34,74.76c0,0.62,0,1.23.06,1.84l-0.48,0c0-.62-0.06-1.25-0.06-1.88a29,29,0,0,1,.2-3.39l0.47,0.07A28.24,28.24,0,0,0,34.34,74.76Z" transform="translate(-18.64 -31.29)"/><path class="cls-3" d="M58,102.48l-0.07.48a28.25,28.25,0,0,1-8-2.51l0.22-.44A27.84,27.84,0,0,0,58,102.48Z" transform="translate(-18.64 -31.29)"/><path class="cls-3" d="M90.12,79.25l0.48,0.07a28.24,28.24,0,0,1-2.55,8l-0.44-.22A27.84,27.84,0,0,0,90.12,79.25Z" transform="translate(-18.64 -31.29)"/><path class="cls-4" d="M66.7,47l0.07-.47a28.26,28.26,0,0,1,8,2.48l-0.22.44A27.84,27.84,0,0,0,66.7,47Z" transform="translate(-18.64 -31.29)"/><path class="cls-4" d="M49.09,99.46l-0.22.44a28.66,28.66,0,0,1-6.64-5,29,29,0,0,1-2.59-3l0.4-.29A28.27,28.27,0,0,0,49.09,99.46Z" transform="translate(-18.64 -31.29)"/><path class="cls-3" d="M75.62,50l0.23-.44a28.65,28.65,0,0,1,6.75,5,29,29,0,0,1,2.53,2.89l-0.4.29A28.27,28.27,0,0,0,75.62,50Z" transform="translate(-18.64 -31.29)"/><path class="cls-5" d="M62.41,78.57a3.81,3.81,0,1,1,3.81-3.81A3.81,3.81,0,0,1,62.41,78.57Zm0-7a3.2,3.2,0,1,0,3.2,3.2A3.2,3.2,0,0,0,62.41,71.56Z" transform="translate(-18.64 -31.29)"/><path class="cls-6" d="M47.63,64.33l-2.35-1.66a21.21,21.21,0,0,1,2.31-2.74q0.56-.56,1.15-1.07L50.62,61A18.24,18.24,0,0,0,47.63,64.33Z" transform="translate(-18.64 -31.29)"/><path class="cls-7" d="M71.89,90.16L73.4,92.6a20.76,20.76,0,0,1-9.37,3l-0.22-2.85A18,18,0,0,0,71.89,90.16Z" transform="translate(-18.64 -31.29)"/><path class="cls-3" d="M60.62,92.76l-0.28,2.85A20.83,20.83,0,0,1,55,94.36l1-2.69A18,18,0,0,0,60.62,92.76Z" transform="translate(-18.64 -31.29)"/><path class="cls-6" d="M62.41,92.85q0.7,0,1.4-.05L64,95.65q-0.8.06-1.62,0.06-1,0-2.08-.1l0.28-2.85Q61.5,92.85,62.41,92.85Z" transform="translate(-18.64 -31.29)"/><path class="cls-6" d="M79.29,81.26l2.68,1A20.74,20.74,0,0,1,79.43,87L77.1,85.3A18.08,18.08,0,0,0,79.29,81.26Z" transform="translate(-18.64 -31.29)"/><path class="cls-6" d="M76,86.63l2.16,1.88q-0.47.54-1,1.06a21.12,21.12,0,0,1-3.83,3l-1.51-2.45A18.23,18.23,0,0,0,76,86.63Z" transform="translate(-18.64 -31.29)"/><path class="cls-7" d="M47,84.25l-2.45,1.51a20.72,20.72,0,0,1-1.07-2l2.59-1.24A18.05,18.05,0,0,0,47,84.25Z" transform="translate(-18.64 -31.29)"/><path class="cls-6" d="M54.68,91.11l-1.23,2.6A20.85,20.85,0,0,1,49,90.88l1.83-2.21A18.15,18.15,0,0,0,54.68,91.11Z" transform="translate(-18.64 -31.29)"/><path class="cls-3" d="M44.32,74.76c0,0.34,0,.67,0,1l-2.86.16c0-.39,0-0.77,0-1.16a21,21,0,0,1,1-6.31l2.74,0.86A18,18,0,0,0,44.32,74.76Z" transform="translate(-18.64 -31.29)"/><path class="cls-6" d="M49.56,87.48l-2,2a21.11,21.11,0,0,1-3-3.75L47,84.25A18.21,18.21,0,0,0,49.56,87.48Z" transform="translate(-18.64 -31.29)"/><path class="cls-3" d="M80.5,74.76c0-.54,0-1.07-0.07-1.6l2.85-.25c0.05,0.61.08,1.23,0.08,1.85A21,21,0,0,1,82,82.29l-2.68-1A18,18,0,0,0,80.5,74.76Z" transform="translate(-18.64 -31.29)"/><path class="cls-7" d="M62.41,56.66c-0.53,0-1.05,0-1.57.07l-0.25-2.85c0.6-.05,1.21-0.08,1.82-0.08a20.91,20.91,0,0,1,8.18,1.65L69.47,58.1A18,18,0,0,0,62.41,56.66Z" transform="translate(-18.64 -31.29)"/><path class="cls-6" d="M45.16,69.31l-2.74-.86a20.69,20.69,0,0,1,2.14-4.67L47,65.28A18,18,0,0,0,45.16,69.31Z" transform="translate(-18.64 -31.29)"/><path class="cls-7" d="M50.62,61l-1.87-2.18A20.89,20.89,0,0,1,53.08,56l1.28,2.57A18.16,18.16,0,0,0,50.62,61Z" transform="translate(-18.64 -31.29)"/><path class="cls-6" d="M78.25,66l2.52-1.39a20.72,20.72,0,0,1,2.36,7L80.3,72A18,18,0,0,0,78.25,66Z" transform="translate(-18.64 -31.29)"/><path class="cls-6" d="M69.47,58.1l1.12-2.64a20.86,20.86,0,0,1,5.81,3.7l-1.92,2.14A18.14,18.14,0,0,0,69.47,58.1Z" transform="translate(-18.64 -31.29)"/><path class="cls-7" d="M80.3,72l2.83-.43q0.1,0.66.16,1.33l-2.85.25C80.4,72.78,80.35,72.39,80.3,72Z" transform="translate(-18.64 -31.29)"/><path class="cls-3" d="M74.48,61.29l1.92-2.14q0.42,0.38.83,0.79A21.16,21.16,0,0,1,80,63.29l-2.4,1.57A18.24,18.24,0,0,0,74.48,61.29Z" transform="translate(-18.64 -31.29)"/><path class="cls-6" d="M62.41,98.85c0.54,0,1.08,0,1.61-.06l0.19,2.85c-0.6,0-1.2.06-1.8,0.06a27.07,27.07,0,0,1-7.58-1.08l0.81-2.75A24,24,0,0,0,62.41,98.85Z" transform="translate(-18.64 -31.29)"/><path class="cls-5" d="M69.48,97.79l0.84,2.75a26.93,26.93,0,0,1-6.11,1.11L64,98.8A24,24,0,0,0,69.48,97.79Z" transform="translate(-18.64 -31.29)"/><path class="cls-8" d="M79.49,91.74l2,2-0.05.05a27.06,27.06,0,0,1-6.26,4.68L73.85,96A24.24,24.24,0,0,0,79.49,91.74Z" transform="translate(-18.64 -31.29)"/><path class="cls-5" d="M82.29,88.36L84.66,90a27.25,27.25,0,0,1-3.13,3.78l-2-2A24.29,24.29,0,0,0,82.29,88.36Z" transform="translate(-18.64 -31.29)"/><path class="cls-6" d="M84.88,83.47l2.68,1A26.67,26.67,0,0,1,84.66,90l-2.37-1.62A24.06,24.06,0,0,0,84.88,83.47Z" transform="translate(-18.64 -31.29)"/><path class="cls-5" d="M38.67,70.63a24.15,24.15,0,0,0-.35,4.12H35.45a27.29,27.29,0,0,1,.39-4.61Z" transform="translate(-18.64 -31.29)"/><path class="cls-6" d="M38.31,74.76a24.26,24.26,0,0,0,.15,2.65l-2.84.31a27.41,27.41,0,0,1-.16-3h2.86Z" transform="translate(-18.64 -31.29)"/><path class="cls-8" d="M50.71,95.82l-1.4,2.52a27.08,27.08,0,0,1-6-4.51l-0.45-.46,2.08-2A24.25,24.25,0,0,0,50.71,95.82Z" transform="translate(-18.64 -31.29)"/><path class="cls-5" d="M45,91.37l-2.08,2A26.93,26.93,0,0,1,38,86.22L40.6,85A24.2,24.2,0,0,0,45,91.37Z" transform="translate(-18.64 -31.29)"/><path class="cls-8" d="M40.6,85L38,86.22a26.73,26.73,0,0,1-2.38-8.5l2.84-.31A23.9,23.9,0,0,0,40.6,85Z" transform="translate(-18.64 -31.29)"/><path class="cls-8" d="M81.28,59.79L83.53,58a26.7,26.7,0,0,1,4.67,8.88l-2.75.84A24.06,24.06,0,0,0,81.28,59.79Z" transform="translate(-18.64 -31.29)"/><path class="cls-6" d="M86.51,74.76a24,24,0,0,0-1-7l2.75-.84a27.27,27.27,0,0,1,.68,13l-2.81-.54A24.12,24.12,0,0,0,86.51,74.76Z" transform="translate(-18.64 -31.29)"/><path class="cls-8" d="M42.27,61.54L39.86,60a27.21,27.21,0,0,1,3.49-4.27l0.46-.44,2,2.08A24.29,24.29,0,0,0,42.27,61.54Z" transform="translate(-18.64 -31.29)"/><path class="cls-6" d="M40,65.86L37.34,64.8A26.66,26.66,0,0,1,39.86,60l2.41,1.58A24.06,24.06,0,0,0,40,65.86Z" transform="translate(-18.64 -31.29)"/><path class="cls-6" d="M56.1,51.5l-0.75-2.77a27,27,0,0,1,5.76-.9l0.14,2.86A24,24,0,0,0,56.1,51.5Z" transform="translate(-18.64 -31.29)"/><path class="cls-8" d="M50.28,53.94l-1.45-2.49a26.62,26.62,0,0,1,6.51-2.72L56.1,51.5A24,24,0,0,0,50.28,53.94Z" transform="translate(-18.64 -31.29)"/><path class="cls-6" d="M77,55.6l1.74-2.29A27.25,27.25,0,0,1,83.53,58l-2.25,1.79A24.3,24.3,0,0,0,77,55.6Z" transform="translate(-18.64 -31.29)"/><path class="cls-8" d="M71.9,52.61L73,50a26.74,26.74,0,0,1,5.72,3.35L77,55.6A24.12,24.12,0,0,0,71.9,52.61Z" transform="translate(-18.64 -31.29)"/><path class="cls-5" d="M62.41,50.66l-1.17,0-0.14-2.86q0.65,0,1.3,0a27.42,27.42,0,0,1,3.16.18l-0.34,2.84A24.24,24.24,0,0,0,62.41,50.66Z" transform="translate(-18.64 -31.29)"/><path class="cls-2" d="M55.56,53.47L55.4,53a22.85,22.85,0,0,1,6.42-1.08v0.48A22.25,22.25,0,0,0,55.56,53.47Z" transform="translate(-18.64 -31.29)"/><path class="cls-8" d="M63,52.41V51.93a22.72,22.72,0,0,1,9.25,2.21L72,54.57A22.21,22.21,0,0,0,63,52.41Z" transform="translate(-18.64 -31.29)"/><path class="cls-2" d="M50.95,55.57l-0.26-.42a22.55,22.55,0,0,1,3.86-1.84l0.16,0.46A22.27,22.27,0,0,0,50.95,55.57Z" transform="translate(-18.64 -31.29)"/><path class="cls-8" d="M42.7,64.21L42.26,64a23.09,23.09,0,0,1,7.66-8.36L50.19,56A22.52,22.52,0,0,0,42.7,64.21Z" transform="translate(-18.64 -31.29)"/><path class="cls-2" d="M40.06,74.31H39.58a22.72,22.72,0,0,1,2.27-9.52L42.29,65A22.21,22.21,0,0,0,40.06,74.31Z" transform="translate(-18.64 -31.29)"/><path class="cls-2" d="M73.08,55.11l0.22-.44a23.1,23.1,0,0,1,8.16,7.48L81,62.41A22.52,22.52,0,0,0,73.08,55.11Z" transform="translate(-18.64 -31.29)"/><path class="cls-2" d="M69.26,96l0.16,0.46A22.85,22.85,0,0,1,63,97.58V97.11A22.24,22.24,0,0,0,69.26,96Z" transform="translate(-18.64 -31.29)"/><path class="cls-8" d="M83.74,68l0.46-.16a22.87,22.87,0,0,1,1,6.43H84.76A22.26,22.26,0,0,0,83.74,68Z" transform="translate(-18.64 -31.29)"/><path class="cls-8" d="M51.74,94.4l-0.22.44a23.1,23.1,0,0,1-8.16-7.48l0.42-.26A22.52,22.52,0,0,0,51.74,94.4Z" transform="translate(-18.64 -31.29)"/><path class="cls-2" d="M84.76,75.21h0.48A22.72,22.72,0,0,1,83,84.72l-0.44-.22A22.21,22.21,0,0,0,84.76,75.21Z" transform="translate(-18.64 -31.29)"/><path class="cls-2" d="M73.87,93.95l0.26,0.42a22.56,22.56,0,0,1-3.86,1.84l-0.16-.46A22.27,22.27,0,0,0,73.87,93.95Z" transform="translate(-18.64 -31.29)"/><path class="cls-2" d="M61.82,97.11v0.48a22.72,22.72,0,0,1-9.25-2.21l0.22-.44A22.21,22.21,0,0,0,61.82,97.11Z" transform="translate(-18.64 -31.29)"/><path class="cls-8" d="M82.12,85.3l0.44,0.22a23.1,23.1,0,0,1-7.66,8.36l-0.26-.42A22.52,22.52,0,0,0,82.12,85.3Z" transform="translate(-18.64 -31.29)"/><path class="cls-2" d="M40.06,75.21a22.26,22.26,0,0,0,1,6.27l-0.46.16a22.87,22.87,0,0,1-1-6.42h0.48Z" transform="translate(-18.64 -31.29)"/><path class="cls-2" d="M81.67,63.42l0.42-.26a22.55,22.55,0,0,1,1.72,3.6l-0.46.16A22.28,22.28,0,0,0,81.67,63.42Z" transform="translate(-18.64 -31.29)"/><path class="cls-2" d="M43.15,86.09l-0.42.26A22.55,22.55,0,0,1,41,82.75l0.46-.16A22.27,22.27,0,0,0,43.15,86.09Z" transform="translate(-18.64 -31.29)"/><path class="cls-8" d="M62.41,60.54h0.14v3.14H62.27V60.83a13.9,13.9,0,0,0-3.32.44L59.68,64l-0.28.07-0.74-2.75a13.84,13.84,0,0,0-3.1,1.29L57,65.09l-0.25.14-1.42-2.47a14,14,0,0,0-2.66,2l2,2-0.2.2-2-2a14,14,0,0,0-2,2.66l2.47,1.42-0.14.25-2.47-1.42A13.85,13.85,0,0,0,49,71l2.75,0.74L51.67,72l-2.75-.74a13.9,13.9,0,0,0-.44,3.32h2.85s0,0.1,0,.14,0,0.1,0,.14H48.48a13.91,13.91,0,0,0,.43,3.32l2.75-.74,0.07,0.28L49,78.5a13.85,13.85,0,0,0,1.29,3.1l2.47-1.42,0.14,0.25-2.47,1.42a14,14,0,0,0,2,2.66l2-2,0.2,0.2-2,2a14,14,0,0,0,2.66,2l1.42-2.47L57,84.42l-1.42,2.47a13.84,13.84,0,0,0,3.1,1.29l0.74-2.75,0.28,0.07-0.74,2.75a13.9,13.9,0,0,0,3.32.43V85.83h0.29v2.85a13.91,13.91,0,0,0,3.32-.44l-0.74-2.75,0.28-.07,0.74,2.75a13.85,13.85,0,0,0,3.1-1.29l-1.42-2.47,0.25-.14,1.42,2.47a14,14,0,0,0,2.66-2l-2-2,0.2-.2,2,2a14,14,0,0,0,2-2.66l-2.47-1.42,0.14-.25,2.47,1.42a13.85,13.85,0,0,0,1.29-3.1l-2.75-.74,0.07-.28,2.75,0.74a13.89,13.89,0,0,0,.44-3.32H73.49s0-.1,0-0.14,0-.1,0-0.14h2.9c0.1,0,.23,0,0.23.14A14.22,14.22,0,1,1,62.41,60.54Z" transform="translate(-18.64 -31.29)"/><path class="cls-8" d="M53.14,69.24l-0.25-.14A11.16,11.16,0,0,1,54.48,67l0.2,0.2A10.86,10.86,0,0,0,53.14,69.24Z" transform="translate(-18.64 -31.29)"/><path class="cls-8" d="M59.75,64.29L59.68,64a11.06,11.06,0,0,1,2.59-.34V64A10.77,10.77,0,0,0,59.75,64.29Z" transform="translate(-18.64 -31.29)"/><path class="cls-8" d="M57.14,65.34L57,65.09a11,11,0,0,1,2.41-1l0.07,0.28A10.73,10.73,0,0,0,57.14,65.34Z" transform="translate(-18.64 -31.29)"/><path class="cls-8" d="M54.88,67l-0.2-.2a11.15,11.15,0,0,1,2.07-1.59l0.14,0.25A10.86,10.86,0,0,0,54.88,67Z" transform="translate(-18.64 -31.29)"/><path class="cls-8" d="M69.94,82.48l0.2,0.2a11.15,11.15,0,0,1-2.07,1.59L67.93,84A10.86,10.86,0,0,0,69.94,82.48Z" transform="translate(-18.64 -31.29)"/><path class="cls-8" d="M67.68,84.17l0.14,0.25a11,11,0,0,1-2.41,1l-0.07-.28A10.73,10.73,0,0,0,67.68,84.17Z" transform="translate(-18.64 -31.29)"/><path class="cls-8" d="M54.68,82.28l-0.2.2a11.15,11.15,0,0,1-1.59-2.07l0.25-.14A10.86,10.86,0,0,0,54.68,82.28Z" transform="translate(-18.64 -31.29)"/><path class="cls-8" d="M65.06,85.22l0.07,0.28a11.05,11.05,0,0,1-2.59.34V85.55A10.77,10.77,0,0,0,65.06,85.22Z" transform="translate(-18.64 -31.29)"/><path class="cls-8" d="M62.27,85.55v0.29a11.05,11.05,0,0,1-2.59-.34l0.07-.28A10.77,10.77,0,0,0,62.27,85.55Z" transform="translate(-18.64 -31.29)"/><path class="cls-8" d="M56.89,84l-0.14.25a11.15,11.15,0,0,1-2.07-1.59l0.2-.2A10.86,10.86,0,0,0,56.89,84Z" transform="translate(-18.64 -31.29)"/><path class="cls-8" d="M59.48,85.14l-0.07.28a11,11,0,0,1-2.41-1l0.14-.25A10.73,10.73,0,0,0,59.48,85.14Z" transform="translate(-18.64 -31.29)"/><path class="cls-8" d="M71.68,80.27l0.25,0.14a11.15,11.15,0,0,1-1.59,2.07l-0.2-.2A10.86,10.86,0,0,0,71.68,80.27Z" transform="translate(-18.64 -31.29)"/><path class="cls-8" d="M73.2,74.9h0.29a11.05,11.05,0,0,1-.34,2.59l-0.28-.07A10.77,10.77,0,0,0,73.2,74.9Z" transform="translate(-18.64 -31.29)"/><path class="cls-8" d="M52,71.82l-0.28-.07a11,11,0,0,1,1-2.41L53,69.48A10.73,10.73,0,0,0,52,71.82Z" transform="translate(-18.64 -31.29)"/><path class="cls-8" d="M51.62,74.61H51.33A11.06,11.06,0,0,1,51.67,72l0.28,0.07A10.77,10.77,0,0,0,51.62,74.61Z" transform="translate(-18.64 -31.29)"/><path class="cls-8" d="M51.95,77.41l-0.28.07a11.06,11.06,0,0,1-.34-2.59h0.29A10.77,10.77,0,0,0,51.95,77.41Z" transform="translate(-18.64 -31.29)"/><path class="cls-8" d="M53,80l-0.25.14a11,11,0,0,1-1-2.41L52,77.69A10.73,10.73,0,0,0,53,80Z" transform="translate(-18.64 -31.29)"/><path class="cls-8" d="M72.8,77.69l0.28,0.07a11,11,0,0,1-1,2.41L71.83,80A10.73,10.73,0,0,0,72.8,77.69Z" transform="translate(-18.64 -31.29)"/><path class="cls-8" d="M62.41,85.55h0.14v0.29H62.27V85.55h0.14Z" transform="translate(-18.64 -31.29)"/><path class="cls-8" d="M53,69.48l-0.25-.14,0.14-.25,0.25,0.14Z" transform="translate(-18.64 -31.29)"/><path class="cls-8" d="M51.95,72.1L51.67,72l0.07-.28L52,71.82Z" transform="translate(-18.64 -31.29)"/><path class="cls-8" d="M51.62,74.76s0,0.1,0,.14H51.33s0-.1,0-0.14,0-.1,0-0.14h0.29S51.62,74.71,51.62,74.76Z" transform="translate(-18.64 -31.29)"/><path class="cls-8" d="M54.68,67.23l-0.2-.2,0.2-.2,0.2,0.2Z" transform="translate(-18.64 -31.29)"/><path class="cls-8" d="M72.87,77.41l0.28,0.07-0.07.28-0.28-.07Z" transform="translate(-18.64 -31.29)"/><path class="cls-8" d="M62.41,64H62.27V63.68h0.29V64H62.41Z" transform="translate(-18.64 -31.29)"/><path class="cls-8" d="M73.49,74.9H73.2s0-.1,0-0.14,0-.1,0-0.14h0.29s0,0.1,0,.14S73.49,74.85,73.49,74.9Z" transform="translate(-18.64 -31.29)"/><path class="cls-8" d="M52,77.69l-0.28.07-0.07-.28,0.28-.07Z" transform="translate(-18.64 -31.29)"/><path class="cls-8" d="M56.89,65.48l-0.14-.25L57,65.09l0.14,0.25Z" transform="translate(-18.64 -31.29)"/><path class="cls-8" d="M59.48,64.37l-0.07-.28L59.68,64l0.07,0.28Z" transform="translate(-18.64 -31.29)"/><path class="cls-8" d="M67.93,84l0.14,0.25-0.25.14-0.14-.25Z" transform="translate(-18.64 -31.29)"/><path class="cls-8" d="M70.14,82.28l0.2,0.2-0.2.2-0.2-.2Z" transform="translate(-18.64 -31.29)"/><path class="cls-8" d="M71.83,80l0.25,0.14-0.14.25-0.25-.14Z" transform="translate(-18.64 -31.29)"/><path class="cls-8" d="M65.34,85.14l0.07,0.28-0.28.07-0.07-.28Z" transform="translate(-18.64 -31.29)"/><path class="cls-8" d="M53.14,80.27l-0.25.14-0.14-.25L53,80Z" transform="translate(-18.64 -31.29)"/><path class="cls-8" d="M54.88,82.48l-0.2.2-0.2-.2,0.2-.2Z" transform="translate(-18.64 -31.29)"/><path class="cls-8" d="M59.75,85.22l-0.07.28-0.28-.07,0.07-.28Z" transform="translate(-18.64 -31.29)"/><path class="cls-8" d="M57.14,84.17L57,84.42l-0.25-.14L56.89,84Z" transform="translate(-18.64 -31.29)"/><polygon class="cls-6" points="44.23 12.81 43.32 12.81 43.18 11.28 44.36 11.28 44.23 12.81"/><polygon class="cls-6" points="52.67 12.53 52.15 13.97 51.27 13.73 51.53 12.22 52.67 12.53"/><polygon class="cls-6" points="60.38 15.89 59.49 17.14 58.7 16.68 59.35 15.3 60.38 15.89"/><polygon class="cls-6" points="66.94 21.12 65.77 22.11 65.13 21.46 66.11 20.29 66.94 21.12"/><polygon class="cls-6" points="71.94 27.88 70.55 28.53 70.09 27.74 71.34 26.86 71.94 27.88"/><polygon class="cls-6" points="75.01 35.7 73.5 35.97 73.26 35.09 74.7 34.56 75.01 35.7"/><polygon class="cls-6" points="74.43 43.01 75.95 42.87 75.95 44.05 74.43 43.92 74.43 43.01"/><polygon class="cls-6" points="75.01 51.22 74.7 52.36 73.26 51.84 73.5 50.95 75.01 51.22"/><polygon class="cls-6" points="71.94 59.04 71.34 60.06 70.09 59.18 70.55 58.39 71.94 59.04"/><polygon class="cls-6" points="66.94 65.8 66.11 66.64 65.13 65.46 65.77 64.82 66.94 65.8"/><polygon class="cls-6" points="60.38 71.03 59.35 71.63 58.7 70.24 59.49 69.78 60.38 71.03"/><polygon class="cls-6" points="52.67 74.39 51.53 74.7 51.27 73.19 52.15 72.95 52.67 74.39"/><polygon class="cls-6" points="44.23 74.12 44.36 75.64 43.18 75.64 43.32 74.12 44.23 74.12"/><polygon class="cls-6" points="36.28 73.19 36.01 74.7 34.87 74.39 35.4 72.95 36.28 73.19"/><polygon class="cls-6" points="28.84 70.24 28.19 71.63 27.17 71.03 28.05 69.78 28.84 70.24"/><polygon class="cls-6" points="22.42 65.46 21.43 66.64 20.6 65.8 21.77 64.82 22.42 65.46"/><polygon class="cls-6" points="17.45 59.18 16.2 60.06 15.61 59.04 17 58.39 17.45 59.18"/><polygon class="cls-6" points="14.28 51.84 12.84 52.36 12.53 51.22 14.04 50.95 14.28 51.84"/><polygon class="cls-6" points="13.12 43.01 13.12 43.92 11.59 44.05 11.59 42.87 13.12 43.01"/><polygon class="cls-6" points="12.53 35.7 12.84 34.56 14.28 35.09 14.04 35.97 12.53 35.7"/><polygon class="cls-6" points="17.45 27.74 17 28.53 15.61 27.88 16.2 26.86 17.45 27.74"/><polygon class="cls-6" points="22.42 21.46 21.77 22.11 20.6 21.12 21.43 20.29 22.42 21.46"/><polygon class="cls-6" points="28.84 16.68 28.05 17.14 27.17 15.89 28.19 15.3 28.84 16.68"/><polygon class="cls-6" points="36.28 13.73 35.4 13.97 34.87 12.53 36.01 12.22 36.28 13.73"/><path class="cls-7" d="M22.08,57.72A43.62,43.62,0,0,1,31.46,43.8l0.2-.2,7.76,7.76-0.4.4-7.35-7.35a43.22,43.22,0,0,0-6.83,51.68l9-5.2,0.29,0.5-9.51,5.48-0.14-.25A43.86,43.86,0,0,1,22.08,57.72Z" transform="translate(-18.64 -31.29)"/><path class="cls-7" d="M75.44,104.86l2.76,6.49A40,40,0,0,0,100,88l-6.66-2.32,0.13-.36,6.84,2.38,0.18,0.06-0.06.18a40.34,40.34,0,0,1-22.24,23.81l-0.18.07L75.09,105Z" transform="translate(-18.64 -31.29)"/><path class="cls-5" d="M50.32,112.73a40.12,40.12,0,0,0,23.93.07l-0.63-2A37.79,37.79,0,0,1,32.68,98L31,99.29a39.71,39.71,0,0,0,2.7,3.1" transform="translate(-18.64 -31.29)"/><path class="cls-5" d="M33.72,102.39a40.2,40.2,0,0,0,10.95,8,39.77,39.77,0,0,0,5.65,2.3" transform="translate(-18.64 -31.29)"/><path class="cls-5" d="M38.69,107.11l0.56-.77a39.21,39.21,0,0,1-9.85-10.49l-0.8.51A40.16,40.16,0,0,0,38.69,107.11Z" transform="translate(-18.64 -31.29)"/><path class="cls-5" d="M47.3,111.93l0.36-.88a39.14,39.14,0,0,1-3.84-1.81l-0.45.84A40.08,40.08,0,0,0,47.3,111.93Z" transform="translate(-18.64 -31.29)"/><path class="cls-5" d="M53.86,114l0.2-.93-1.3-.31-0.23.92Z" transform="translate(-18.64 -31.29)"/><path class="cls-5" d="M62.41,114.87l1.21,0,0-1c-0.92,0-1.84,0-2.76,0l0,1C61.33,114.86,61.88,114.87,62.41,114.87Z" transform="translate(-18.64 -31.29)"/><path class="cls-5" d="M63.62,114.86a40.46,40.46,0,0,0,5.38-.52l-0.16-.94a39.51,39.51,0,0,1-5.25.51Z" transform="translate(-18.64 -31.29)"/><path class="cls-9" d="M101.51,72.48l1-.05a40.28,40.28,0,0,0-.85-6.23l-0.9.2q-0.27-1.24-.61-2.45l-1.16.33q-0.33-1.15-.73-2.27l1.14-.4q-0.18-.49-0.37-1l0.86-.33a40.07,40.07,0,0,0-3.46-6.88l-0.78.49q-0.71-1.13-1.49-2.2l0.74-.54a40.43,40.43,0,0,0-4.6-5.28l-0.64.66q-0.73-.71-1.5-1.37l-0.79.91q-1.4-1.22-2.9-2.29l0.7-1q-1.27-.91-2.6-1.7L83,40.31a40.08,40.08,0,0,0-6.17-3l-0.33.86q-1.27-.49-2.58-0.89l0.27-.88c-0.74-.23-1.49-0.43-2.24-0.61l-0.22.89c-0.55-.13-1.11-0.26-1.67-0.37l-0.23,1.18a37.81,37.81,0,0,0-4-.57l0.11-1.2c-0.94-.08-1.9-0.13-2.86-0.15l0-.92c-1.14,0-2.3,0-3.44.09l0.06,0.92q-1.9.13-3.77,0.44l-0.15-.91a40.07,40.07,0,0,0-4.13.91L51.91,37l-0.79.23,0.35,1.15a37.84,37.84,0,0,0-3.85,1.39l-0.42.19-0.48-1.11q-1.53.67-3,1.47l-0.44-.81a40.3,40.3,0,0,0-4.68,3l0.55,0.74-1,.78,0.94,1.19q0.79-.63,1.62-1.21l0.65,0.92A36.55,36.55,0,0,1,99,74.76q0,0.44,0,.88l1.43,0q0-.46,0-0.92,0-1.58-.13-3.14l1.16-.1C101.47,71.84,101.49,72.16,101.51,72.48Z" transform="translate(-18.64 -31.29)"/><path class="cls-2" d="M35.05,41c0.42-.34.84-0.67,1.27-1l0.44,0.59c-0.42.31-.84,0.64-1.24,1Z" transform="translate(-18.64 -31.29)"/><path class="cls-4" d="M105,71.56l0.73-.05c0.08,1.06.12,2.13,0.12,3.2h-0.73C105.13,73.65,105.09,72.6,105,71.56Z" transform="translate(-18.64 -31.29)"/><path class="cls-5" d="M104.17,83.82L104.89,84c-0.22,1-.49,2.08-0.79,3.1l-0.71-.21C103.69,85.87,104,84.84,104.17,83.82Z" transform="translate(-18.64 -31.29)"/><path class="cls-5" d="M104.84,79.77l0.73,0.09c-0.12,1.06-.29,2.12-0.49,3.16l-0.72-.14C104.56,81.85,104.72,80.81,104.84,79.77Z" transform="translate(-18.64 -31.29)"/><path class="cls-4" d="M105.13,75.67l0.73,0c0,1.06-.08,2.14-0.18,3.19l-0.73-.07C105,77.77,105.1,76.71,105.13,75.67Z" transform="translate(-18.64 -31.29)"/><path class="cls-7" d="M103.11,87.79l0.7,0.22c-0.32,1-.69,2-1.09,3L102,90.75C102.43,89.78,102.79,88.79,103.11,87.79Z" transform="translate(-18.64 -31.29)"/><path class="cls-4" d="M90.78,42.81l0.49-.55c0.79,0.71,1.57,1.45,2.31,2.21L93.06,45C92.33,44.24,91.57,43.51,90.78,42.81Z" transform="translate(-18.64 -31.29)"/><path class="cls-7" d="M93,105.68c-0.76.75-1.55,1.47-2.36,2.16l-0.48-.56c0.79-.68,1.57-1.39,2.32-2.13Z" transform="translate(-18.64 -31.29)"/><path class="cls-7" d="M101.67,91.65l0.67,0.29c-0.42,1-.88,1.95-1.37,2.89l-0.65-.34C100.8,93.56,101.25,92.61,101.67,91.65Z" transform="translate(-18.64 -31.29)"/><path class="cls-7" d="M95.78,102.6c-0.68.81-1.4,1.62-2.14,2.38l-0.53-.51c0.73-.75,1.43-1.54,2.1-2.34Z" transform="translate(-18.64 -31.29)"/><path class="cls-10" d="M98.31,99.26c-0.6.88-1.24,1.74-1.9,2.57l-0.57-.46c0.65-.82,1.28-1.67,1.87-2.53Z" transform="translate(-18.64 -31.29)"/><path class="cls-10" d="M99.86,95.34l0.64,0.35c-0.51.93-1.07,1.85-1.65,2.74L98.24,98C98.81,97.17,99.35,96.26,99.86,95.34Z" transform="translate(-18.64 -31.29)"/><path class="cls-2" d="M40.62,37.14c0.92-.53,1.87-1,2.82-1.5l0.32,0.66c-0.94.46-1.87,1-2.78,1.48Z" transform="translate(-18.64 -31.29)"/><path class="cls-2" d="M44.34,35.22c1-.44,2-0.85,3-1.22l0.26,0.69c-1,.36-2,0.77-2.91,1.2Z" transform="translate(-18.64 -31.29)"/><path class="cls-2" d="M48.22,33.66c1-.35,2-0.66,3.06-0.93l0.19,0.71c-1,.27-2,0.57-3,0.92Z" transform="translate(-18.64 -31.29)"/><path class="cls-4" d="M88,39.64c0.86,0.63,1.7,1.29,2.51,2l-0.48.56c-0.8-.68-1.63-1.33-2.47-1.95Z" transform="translate(-18.64 -31.29)"/><path class="cls-2" d="M104.52,67.48l0.72-.12c0.18,1,.32,2.11.42,3.17l-0.73.07C104.84,69.55,104.69,68.5,104.52,67.48Z" transform="translate(-18.64 -31.29)"/><path class="cls-2" d="M37.11,39.41c0.86-.62,1.76-1.21,2.67-1.77l0.38,0.63c-0.89.54-1.77,1.13-2.62,1.74Z" transform="translate(-18.64 -31.29)"/><path class="cls-2" d="M52.23,32.49c1-.25,2.09-0.46,3.14-0.63l0.12,0.73c-1,.17-2.07.38-3.08,0.62Z" transform="translate(-18.64 -31.29)"/><path class="cls-2" d="M102.35,59.56L103,59.3c0.38,1,.72,2,1,3l-0.7.21C103.06,61.53,102.72,60.53,102.35,59.56Z" transform="translate(-18.64 -31.29)"/><path class="cls-2" d="M93.72,45.69l0.54-.5C95,46,95.69,46.78,96.35,47.61l-0.57.46C95.13,47.25,94.43,46.45,93.72,45.69Z" transform="translate(-18.64 -31.29)"/><path class="cls-2" d="M103.63,63.47l0.71-.19c0.28,1,.52,2.07.73,3.11l-0.72.14C104.14,65.5,103.9,64.47,103.63,63.47Z" transform="translate(-18.64 -31.29)"/><path class="cls-2" d="M100.71,55.79l0.66-.33c0.47,1,.91,1.93,1.31,2.91l-0.68.28C101.61,57.69,101.17,56.73,100.71,55.79Z" transform="translate(-18.64 -31.29)"/><path class="cls-2" d="M96.37,48.83L97,48.38C97.6,49.23,98.22,50.1,98.8,51l-0.62.4C97.62,50.52,97,49.66,96.37,48.83Z" transform="translate(-18.64 -31.29)"/><path class="cls-2" d="M98.71,52.21l0.62-.39c0.56,0.9,1.1,1.83,1.59,2.77l-0.65.34C99.79,54,99.26,53.09,98.71,52.21Z" transform="translate(-18.64 -31.29)"/><path class="cls-4" d="M56.34,31.72c1-.15,2.12-0.26,3.18-0.33l0,0.73c-1,.07-2.1.18-3.13,0.32Z" transform="translate(-18.64 -31.29)"/><path class="cls-3" d="M50.63,115.84l-0.2.71c-1-.29-2-0.63-3-1l0.25-.69C48.62,115.22,49.63,115.55,50.63,115.84Z" transform="translate(-18.64 -31.29)"/><path class="cls-11" d="M54.64,116.78l-0.13.72c-1-.19-2.1-0.43-3.12-0.69l0.19-.71C52.58,116.36,53.61,116.59,54.64,116.78Z" transform="translate(-18.64 -31.29)"/><path class="cls-5" d="M89.84,108.47c-0.82.67-1.68,1.32-2.55,1.93l-0.42-.6c0.85-.6,1.7-1.23,2.51-1.89Z" transform="translate(-18.64 -31.29)"/><path class="cls-2" d="M62.83,117.48v0.74H62.41c-0.92,0-1.85,0-2.77-.09l0-.73C60.73,117.46,61.79,117.49,62.83,117.48Z" transform="translate(-18.64 -31.29)"/><path class="cls-4" d="M60.53,32.07l0-.73c1.06,0,2.14-.05,3.2,0l0,0.73C62.64,32,61.57,32,60.53,32.07Z" transform="translate(-18.64 -31.29)"/><path class="cls-8" d="M39.42,110.78l-0.4.62c-0.89-.57-1.78-1.19-2.63-1.82l0.44-.59C37.67,109.61,38.54,110.21,39.42,110.78Z" transform="translate(-18.64 -31.29)"/><path class="cls-6" d="M33,105.71l-0.51.53c-0.77-.73-1.52-1.5-2.23-2.29l0.54-.49C31.46,104.23,32.2,105,33,105.71Z" transform="translate(-18.64 -31.29)"/><path class="cls-3" d="M46.74,114.52l-0.27.68c-1-.39-2-0.82-2.93-1.28l0.32-.66C44.8,113.71,45.77,114.13,46.74,114.52Z" transform="translate(-18.64 -31.29)"/><path class="cls-6" d="M36.07,108.4l-0.45.58c-0.84-.66-1.66-1.35-2.44-2.06l0.49-.54C34.44,107.07,35.25,107.75,36.07,108.4Z" transform="translate(-18.64 -31.29)"/><path class="cls-8" d="M43,112.82l-0.33.65c-0.95-.48-1.89-1-2.79-1.56l0.38-.63C41.14,111.83,42.06,112.35,43,112.82Z" transform="translate(-18.64 -31.29)"/><path class="cls-2" d="M67,118c-1.05.11-2.13,0.18-3.19,0.22l0-.73c1,0,2.1-.11,3.14-0.21Z" transform="translate(-18.64 -31.29)"/><path class="cls-11" d="M58.72,117.32l-0.06.73c-1.06-.09-2.13-0.22-3.18-0.39l0.12-.73C56.63,117.11,57.68,117.24,58.72,117.32Z" transform="translate(-18.64 -31.29)"/><path class="cls-5" d="M80.82,35.38c1,0.45,1.92.94,2.85,1.46l-0.36.64c-0.91-.51-1.85-1-2.8-1.44Z" transform="translate(-18.64 -31.29)"/><path class="cls-4" d="M82.89,113.1c-0.94.5-1.9,1-2.87,1.4l-0.3-.67c1-.42,1.9-0.89,2.82-1.38Z" transform="translate(-18.64 -31.29)"/><path class="cls-5" d="M84.52,37.33c0.91,0.54,1.82,1.12,2.69,1.73l-0.42.6c-0.86-.6-1.75-1.17-2.65-1.7Z" transform="translate(-18.64 -31.29)"/><path class="cls-5" d="M86.48,110.95c-0.88.59-1.8,1.15-2.72,1.67L83.39,112c0.91-.51,1.81-1.07,2.68-1.65Z" transform="translate(-18.64 -31.29)"/><path class="cls-7" d="M77,33.79c1,0.36,2,.75,3,1.18l-0.3.67c-1-.42-1.94-0.81-2.92-1.16Z" transform="translate(-18.64 -31.29)"/><path class="cls-2" d="M71.14,117.34c-1,.21-2.1.39-3.15,0.52l-0.09-.73c1-.13,2.08-0.31,3.1-0.51Z" transform="translate(-18.64 -31.29)"/><path class="cls-5" d="M68.84,31.77c1.05,0.16,2.11.35,3.14,0.59l-0.16.72c-1-.23-2.06-0.42-3.09-0.58Z" transform="translate(-18.64 -31.29)"/><path class="cls-5" d="M64.68,31.35c1.06,0.05,2.13.15,3.19,0.28l-0.09.73c-1-.13-2.09-0.22-3.13-0.28Z" transform="translate(-18.64 -31.29)"/><path class="cls-2" d="M75.19,116.31c-1,.31-2.05.59-3.09,0.83l-0.16-.72c1-.23,2-0.51,3-0.81Z" transform="translate(-18.64 -31.29)"/><path class="cls-7" d="M72.94,32.58c1,0.26,2.06.56,3.07,0.89l-0.23.7c-1-.33-2-0.62-3-0.87Z" transform="translate(-18.64 -31.29)"/><path class="cls-4" d="M79.12,114.89c-1,.41-2,0.78-3,1.12l-0.23-.7c1-.33,2-0.7,2.94-1.1Z" transform="translate(-18.64 -31.29)"/><path class="cls-10" d="M29.07,101.48c0.33,0.41.67,0.82,1,1.21l-0.56.48c-0.35-.4-0.7-0.82-1-1.23Z" transform="translate(-18.64 -31.29)"/><path class="cls-8" d="M78.09,74.58h0.62v0.35H78.1C78.1,74.81,78.1,74.7,78.09,74.58Z" transform="translate(-18.64 -31.29)"/><path class="cls-7" d="M70.71,60.72l-0.5.87-0.31-.17,0.51-.88Z" transform="translate(-18.64 -31.29)"/><path class="cls-7" d="M69.46,60.05L69,61l-0.32-.14,0.44-.95Z" transform="translate(-18.64 -31.29)"/><path class="cls-6" d="M73,62.38l-0.6.72-0.27-.22,0.61-.72Z" transform="translate(-18.64 -31.29)"/><path class="cls-7" d="M68.15,59.49l-0.37,1-0.33-.11,0.37-1Z" transform="translate(-18.64 -31.29)"/><path class="cls-10" d="M65.41,58.73l-0.2,1.11-0.35-.05,0.2-1.12Z" transform="translate(-18.64 -31.29)"/><path class="cls-10" d="M64,58.53l-0.1,1.15-0.35,0,0.1-1.16Z" transform="translate(-18.64 -31.29)"/><path class="cls-6" d="M74.06,63.35L73.42,64l-0.25-.24,0.64-.64Z" transform="translate(-18.64 -31.29)"/><path class="cls-7" d="M66.8,59.05l-0.28,1.06L66.17,60,66.46,59Z" transform="translate(-18.64 -31.29)"/><path class="cls-6" d="M76.44,66.45l0.17,0.3-0.69.4-0.18-.3Z" transform="translate(-18.64 -31.29)"/><path class="cls-8" d="M77.44,70.55l0.68-.18L78.2,70.7l-0.67.18Z" transform="translate(-18.64 -31.29)"/><path class="cls-8" d="M77.77,71.87l0.66-.12L78.5,72.1l-0.66.12Z" transform="translate(-18.64 -31.29)"/><path class="cls-8" d="M77,69.27L77.67,69l0.12,0.33-0.68.25Z" transform="translate(-18.64 -31.29)"/><path class="cls-6" d="M75,64.41L74.35,65l-0.23-.26,0.67-.56Z" transform="translate(-18.64 -31.29)"/><path class="cls-8" d="M78,73.22l0.64-.06,0,0.35L78,73.56Q78,73.39,78,73.22Z" transform="translate(-18.64 -31.29)"/><path class="cls-6" d="M75.67,65.26l0.2,0.29L75.19,66,75,65.74Z" transform="translate(-18.64 -31.29)"/><path class="cls-6" d="M76.42,68l0.7-.32L77.26,68l-0.69.32Z" transform="translate(-18.64 -31.29)"/><path class="cls-10" d="M62.23,58.45h0.35v1.19H62.23V58.45Z" transform="translate(-18.64 -31.29)"/><path class="cls-7" d="M71.91,61.5l-0.56.79-0.29-.19,0.56-.8Z" transform="translate(-18.64 -31.29)"/><path class="cls-10" d="M49.32,67.4l-1.12-.64,0.17-.3,1.12,0.65Z" transform="translate(-18.64 -31.29)"/><path class="cls-10" d="M48.72,68.56L47.56,68l0.15-.32,1.16,0.54Z" transform="translate(-18.64 -31.29)"/><path class="cls-7" d="M48.21,69.77L47,69.34,47.15,69l1.19,0.43Z" transform="translate(-18.64 -31.29)"/><path class="cls-10" d="M50.8,65.25l-1-.84L50,64.14,51,65Z" transform="translate(-18.64 -31.29)"/><path class="cls-10" d="M50,66.29L49,65.55l0.2-.29L50.22,66Z" transform="translate(-18.64 -31.29)"/><path class="cls-7" d="M47.36,73.61l-1.2-.11,0-.35,1.21,0.11Q47.37,73.44,47.36,73.61Z" transform="translate(-18.64 -31.29)"/><path class="cls-10" d="M60.81,58.53l0.35,0,0.11,1.2-0.35,0Z" transform="translate(-18.64 -31.29)"/><path class="cls-7" d="M47.82,71l-1.2-.32,0.09-.34,1.21,0.32Z" transform="translate(-18.64 -31.29)"/><path class="cls-7" d="M47.53,72.31l-1.21-.21,0.06-.34L47.6,72Z" transform="translate(-18.64 -31.29)"/><path class="cls-10" d="M56.67,59.49L57,59.37l0.43,1.19-0.33.12Z" transform="translate(-18.64 -31.29)"/><path class="cls-10" d="M51,63.1L51.93,64l-0.25.25-0.92-.92Z" transform="translate(-18.64 -31.29)"/><path class="cls-10" d="M55.36,60.05l0.32-.15,0.54,1.16-0.32.15Z" transform="translate(-18.64 -31.29)"/><path class="cls-10" d="M59.41,58.73l0.34-.06L60,59.88l-0.34.07Z" transform="translate(-18.64 -31.29)"/><path class="cls-10" d="M58,59.05L58.36,59l0.32,1.2-0.34.09Z" transform="translate(-18.64 -31.29)"/><path class="cls-10" d="M52.06,62.15l0.84,1-0.27.23-0.84-1Z" transform="translate(-18.64 -31.29)"/><path class="cls-10" d="M52.91,61.5l0.29-.2,0.74,1.06-0.29.2Z" transform="translate(-18.64 -31.29)"/><path class="cls-10" d="M54.11,60.72l0.3-.17,0.64,1.12-0.3.18Z" transform="translate(-18.64 -31.29)"/><path class="cls-6" d="M47.34,76.25l-1.15.1,0-.35,1.16-.1C47.32,76,47.33,76.13,47.34,76.25Z" transform="translate(-18.64 -31.29)"/><path class="cls-8" d="M53.68,87.53l-0.48.68L52.91,88l0.48-.69Z" transform="translate(-18.64 -31.29)"/><path class="cls-3" d="M54.81,88.28l-0.4.69-0.3-.17,0.4-.7Z" transform="translate(-18.64 -31.29)"/><path class="cls-8" d="M52.62,86.7l-0.56.66-0.27-.22,0.56-.67Z" transform="translate(-18.64 -31.29)"/><path class="cls-3" d="M56,88.92l-0.32.69-0.32-.15,0.32-.7Z" transform="translate(-18.64 -31.29)"/><path class="cls-3" d="M59.87,90.19l-0.12.66-0.34-.06,0.12-.66Z" transform="translate(-18.64 -31.29)"/><path class="cls-3" d="M57.25,89.45L57,90.14,56.67,90l0.25-.69Z" transform="translate(-18.64 -31.29)"/><path class="cls-8" d="M51.64,85.77L51,86.41l-0.25-.25,0.64-.64Z" transform="translate(-18.64 -31.29)"/><path class="cls-3" d="M58.54,89.88l-0.18.67L58,90.46l0.18-.68Z" transform="translate(-18.64 -31.29)"/><path class="cls-7" d="M47.3,74.58c0,0.12,0,.23,0,0.35H46.1V74.58H47.3Z" transform="translate(-18.64 -31.29)"/><path class="cls-6" d="M47.5,77.56l-1.11.2-0.06-.34,1.12-.2Z" transform="translate(-18.64 -31.29)"/><path class="cls-8" d="M50.75,84.77l-0.72.6-0.22-.27,0.72-.61Z" transform="translate(-18.64 -31.29)"/><path class="cls-6" d="M47.77,78.86l-1.06.28-0.09-.34,1.07-.29Z" transform="translate(-18.64 -31.29)"/><path class="cls-3" d="M61.22,90.38L61.16,91l-0.35,0,0.06-.64Z" transform="translate(-18.64 -31.29)"/><path class="cls-6" d="M48.15,80.13l-1,.37L47,80.17l1-.37Z" transform="translate(-18.64 -31.29)"/><path class="cls-6" d="M48.64,81.37l-0.94.44-0.15-.32L48.5,81Z" transform="translate(-18.64 -31.29)"/><path class="cls-8" d="M49.95,83.69l-0.79.56L49,84l0.8-.56Z" transform="translate(-18.64 -31.29)"/><path class="cls-8" d="M49.25,82.56l-0.87.5-0.17-.3,0.88-.51Z" transform="translate(-18.64 -31.29)"/><path class="cls-3" d="M77.93,77.32l0.56,0.1-0.06.34-0.56-.1Z" transform="translate(-18.64 -31.29)"/><path class="cls-11" d="M76.62,82.76l-0.17.3L76,82.81l0.17-.3Z" transform="translate(-18.64 -31.29)"/><path class="cls-11" d="M75.87,84l-0.2.29L75.26,84l0.2-.29Z" transform="translate(-18.64 -31.29)"/><path class="cls-3" d="M77.26,81.49l-0.15.32-0.47-.22,0.15-.32Z" transform="translate(-18.64 -31.29)"/><path class="cls-11" d="M75,85.1l-0.22.27-0.38-.32,0.22-.27Z" transform="translate(-18.64 -31.29)"/><path class="cls-3" d="M77.29,80l0.5,0.18-0.12.33-0.5-.18Z" transform="translate(-18.64 -31.29)"/><path class="cls-8" d="M78.07,76L78.67,76l0,0.35-0.59-.05Q78.06,76.13,78.07,76Z" transform="translate(-18.64 -31.29)"/><path class="cls-3" d="M77.67,78.66l0.53,0.14-0.09.34L77.59,79Z" transform="translate(-18.64 -31.29)"/><path class="cls-11" d="M74.06,86.16l-0.25.25-0.35-.35,0.25-.25Z" transform="translate(-18.64 -31.29)"/><path class="cls-12" d="M70.71,88.79l-0.3.17-0.25-.44,0.3-.17Z" transform="translate(-18.64 -31.29)"/><path class="cls-12" d="M66.8,90.46l-0.34.09L66.32,90l0.34-.09Z" transform="translate(-18.64 -31.29)"/><path class="cls-12" d="M68.15,90l-0.33.12-0.18-.5L68,89.52Z" transform="translate(-18.64 -31.29)"/><path class="cls-12" d="M65.41,90.78l-0.34.06L65,90.28l0.35-.06Z" transform="translate(-18.64 -31.29)"/><path class="cls-11" d="M73,87.13l-0.27.22L72.44,87l0.27-.22Z" transform="translate(-18.64 -31.29)"/><path class="cls-11" d="M64,91l-0.35,0-0.05-.59,0.35,0Z" transform="translate(-18.64 -31.29)"/><path class="cls-12" d="M71.91,88l-0.29.2-0.29-.41,0.29-.2Z" transform="translate(-18.64 -31.29)"/><path class="cls-11" d="M62.58,91.06H62.23V90.44h0.35v0.61Z" transform="translate(-18.64 -31.29)"/><path class="cls-12" d="M69.46,89.46l-0.32.15-0.22-.47L69.24,89Z" transform="translate(-18.64 -31.29)"/></svg>