<svg preserveAspectRatio="none" id="Layer_1" data-name="Layer 1" xmlns="http://www.w3.org/2000/svg" viewBox="0 0 662 662"><defs><style>.cls-1{fill:#76e5ff;}.cls-2{fill:#065876;}.cls-3{fill:#08b3ea;}.cls-4{fill:#251d4f;}.cls-5{fill:#ff6d00;}</style></defs><title>circle33</title><path class="cls-1" d="M956.48,611.49a37.12,37.12,0,1,0,37.12,37.12A37.12,37.12,0,0,0,956.48,611.49Zm0,68.55a31.43,31.43,0,1,1,31.43-31.43A31.43,31.43,0,0,1,956.48,680Z" transform="translate(-377.66 -235.93)"/><path class="cls-2" d="M708.66,235.93c-182.81,0-331,148.19-331,331s148.19,331,331,331,331-148.2,331-331S891.47,235.93,708.66,235.93Zm0,646.7c-174.36,0-315.7-141.34-315.7-315.7s141.34-315.7,315.7-315.7,315.7,141.34,315.7,315.7S883,882.63,708.66,882.63Z" transform="translate(-377.66 -235.93)"/><path class="cls-2" d="M708.66,431.34A135.58,135.58,0,1,0,844.25,566.93,135.58,135.58,0,0,0,708.66,431.34Zm0,264.9A129.32,129.32,0,1,1,838,566.93,129.32,129.32,0,0,1,708.66,696.25Z" transform="translate(-377.66 -235.93)"/><polygon class="cls-1" points="342.79 265.93 341.47 265.79 342.06 257.14 344.02 257.35 342.79 265.93"/><polygon class="cls-1" points="349.54 267.45 348.24 267.18 349.72 258.64 351.65 259.05 349.54 267.45"/><polygon class="cls-1" points="356.08 269.68 354.81 269.27 357.18 260.93 359.06 261.54 356.08 269.68"/><polygon class="cls-1" points="362.36 272.57 361.14 272.04 364.37 263.99 366.17 264.8 362.36 272.57"/><polygon class="cls-1" points="368.29 276.11 367.14 275.45 371.19 267.79 372.9 268.77 368.29 276.11"/><polygon class="cls-1" points="268.04 313.05 267.77 314.35 259.23 312.87 259.64 310.94 268.04 313.05"/><polygon class="cls-1" points="270.27 306.51 269.86 307.77 261.52 305.4 262.13 303.52 270.27 306.51"/><polygon class="cls-1" points="273.16 300.23 272.62 301.45 264.58 298.22 265.38 296.41 273.16 300.23"/><polygon class="cls-1" points="276.7 294.29 276.03 295.44 268.37 291.4 269.36 289.68 276.7 294.29"/><polygon class="cls-1" points="280.83 288.76 280.05 289.83 272.86 285 274.02 283.4 280.83 288.76"/><polygon class="cls-1" points="285.53 283.68 284.64 284.67 277.99 279.12 279.31 277.65 285.53 283.68"/><polygon class="cls-1" points="290.73 279.13 289.74 280.02 283.7 273.8 285.17 272.48 290.73 279.13"/><polygon class="cls-1" points="296.37 275.14 295.3 275.92 289.95 269.11 291.55 267.94 296.37 275.14"/><polygon class="cls-1" points="302.4 271.77 301.25 272.43 296.64 265.09 298.36 264.11 302.4 271.77"/><polygon class="cls-1" points="308.76 269.04 307.54 269.58 303.72 261.8 305.53 261 308.76 269.04"/><polygon class="cls-1" points="315.36 266.99 314.09 267.4 311.11 259.27 312.99 258.66 315.36 266.99"/><polygon class="cls-1" points="322.14 265.65 320.84 265.93 318.72 257.52 320.65 257.11 322.14 265.65"/><polygon class="cls-1" points="328.44 256.37 326.47 256.58 327.7 265.16 329.02 265.02 328.44 256.37"/><polygon class="cls-1" points="334.28 256.45 334.6 265.11 335.93 265.11 336.26 256.45 334.28 256.45"/><polygon class="cls-1" points="582.32 392.37 581.91 392.33 582.09 389.63 582.71 389.69 582.32 392.37"/><polygon class="cls-1" points="584.42 392.85 584.02 392.76 584.48 390.1 585.09 390.23 584.42 392.85"/><polygon class="cls-1" points="586.47 393.55 586.07 393.42 586.81 390.81 587.4 391 586.47 393.55"/><polygon class="cls-1" points="588.43 394.45 588.05 394.28 589.05 391.77 589.62 392.02 588.43 394.45"/><polygon class="cls-1" points="590.28 395.55 589.92 395.34 591.18 392.95 591.72 393.26 590.28 395.55"/><polygon class="cls-1" points="592.01 396.84 591.67 396.6 593.18 394.35 593.68 394.72 592.01 396.84"/><polygon class="cls-1" points="593.59 398.31 593.28 398.03 595.02 395.95 595.48 396.37 593.59 398.31"/><polygon class="cls-1" points="595.01 399.93 594.74 399.62 596.68 397.74 597.09 398.2 595.01 399.93"/><polygon class="cls-1" points="596.26 401.69 596.01 401.36 598.14 399.69 598.5 400.19 596.26 401.69"/><polygon class="cls-1" points="597.31 403.58 597.1 403.22 599.39 401.78 599.7 402.31 597.31 403.58"/><polygon class="cls-1" points="598.16 405.56 597.99 405.18 600.42 403.99 600.67 404.55 598.16 405.56"/><polygon class="cls-1" points="598.8 407.62 598.67 407.23 601.21 406.29 601.4 406.88 598.8 407.62"/><polygon class="cls-1" points="599.22 409.73 599.13 409.33 601.76 408.67 601.89 409.27 599.22 409.73"/><polygon class="cls-1" points="599.37 411.47 599.42 411.88 602.12 411.7 602.05 411.09 599.37 411.47"/><polygon class="cls-1" points="599.39 413.63 599.39 414.04 602.09 414.14 602.09 413.52 599.39 413.63"/><polygon class="cls-1" points="599.13 416.18 599.18 415.77 601.88 415.95 601.81 416.57 599.13 416.18"/><polygon class="cls-1" points="598.66 418.29 598.74 417.88 601.41 418.34 601.28 418.95 598.66 418.29"/><polygon class="cls-1" points="597.96 420.33 598.09 419.94 600.69 420.67 600.5 421.26 597.96 420.33"/><polygon class="cls-1" points="597.06 422.29 597.23 421.91 599.74 422.92 599.49 423.48 597.06 422.29"/><polygon class="cls-1" points="595.96 424.14 596.16 423.78 598.55 425.05 598.25 425.58 595.96 424.14"/><polygon class="cls-1" points="594.66 425.87 594.91 425.54 597.15 427.04 596.79 427.54 594.66 425.87"/><polygon class="cls-1" points="593.2 427.45 593.48 427.14 595.55 428.88 595.14 429.34 593.2 427.45"/><polygon class="cls-1" points="591.58 428.88 591.88 428.6 593.77 430.54 593.31 430.95 591.58 428.88"/><polygon class="cls-1" points="589.81 430.12 590.15 429.88 591.82 432 591.32 432.37 589.81 430.12"/><polygon class="cls-1" points="587.93 431.17 588.29 430.96 589.73 433.26 589.2 433.56 587.93 431.17"/><polygon class="cls-1" points="585.95 432.02 586.33 431.86 587.52 434.28 586.96 434.54 585.95 432.02"/><polygon class="cls-1" points="583.89 432.66 584.28 432.54 585.21 435.07 584.63 435.27 583.89 432.66"/><polygon class="cls-1" points="581.77 433.08 582.18 433 582.84 435.62 582.24 435.75 581.77 433.08"/><polygon class="cls-1" points="579.62 433.28 579.81 435.98 580.42 435.91 580.04 433.24 579.62 433.28"/><polygon class="cls-1" points="577.47 433.25 577.37 435.95 577.98 435.95 577.88 433.25 577.47 433.25"/><polygon class="cls-1" points="575.33 433 575.74 433.04 575.55 435.74 574.94 435.67 575.33 433"/><polygon class="cls-1" points="573.22 432.52 573.63 432.61 573.16 435.27 572.56 435.14 573.22 432.52"/><polygon class="cls-1" points="571.18 431.82 571.57 431.95 570.83 434.56 570.25 434.36 571.18 431.82"/><polygon class="cls-1" points="569.22 430.92 569.6 431.09 568.59 433.6 568.03 433.35 569.22 430.92"/><polygon class="cls-1" points="567.37 429.82 567.73 430.02 566.46 432.42 565.93 432.11 567.37 429.82"/><polygon class="cls-1" points="565.64 428.52 565.97 428.77 564.47 431.02 563.97 430.65 565.64 428.52"/><polygon class="cls-1" points="564.05 427.06 564.36 427.34 562.63 429.41 562.17 429 564.05 427.06"/><polygon class="cls-1" points="562.63 425.44 562.91 425.75 560.97 427.63 560.55 427.17 562.63 425.44"/><polygon class="cls-1" points="561.39 423.68 561.63 424.01 559.5 425.68 559.14 425.18 561.39 423.68"/><polygon class="cls-1" points="560.33 421.79 560.54 422.15 558.25 423.59 557.94 423.06 560.33 421.79"/><polygon class="cls-1" points="559.48 419.81 559.65 420.19 557.22 421.38 556.97 420.82 559.48 419.81"/><polygon class="cls-1" points="558.84 417.75 558.97 418.14 556.43 419.08 556.24 418.49 558.84 417.75"/><polygon class="cls-1" points="558.42 415.63 558.51 416.04 555.89 416.7 555.76 416.1 558.42 415.63"/><polygon class="cls-1" points="555.53 413.67 555.59 414.28 558.27 413.9 558.23 413.49 555.53 413.67"/><polygon class="cls-1" points="555.55 411.84 558.26 411.74 558.26 411.33 555.55 411.23 555.55 411.84"/><polygon class="cls-1" points="558.51 409.19 558.47 409.6 555.77 409.42 555.83 408.8 558.51 409.19"/><polygon class="cls-1" points="558.99 407.08 558.9 407.49 556.24 407.02 556.37 406.42 558.99 407.08"/><polygon class="cls-1" points="559.68 405.04 559.55 405.43 556.95 404.69 557.14 404.11 559.68 405.04"/><polygon class="cls-1" points="560.59 403.08 560.42 403.46 557.91 402.45 558.16 401.89 560.59 403.08"/><polygon class="cls-1" points="561.69 401.23 561.48 401.59 559.09 400.32 559.4 399.79 561.69 401.23"/><polygon class="cls-1" points="562.98 399.5 562.74 399.83 560.49 398.33 560.85 397.83 562.98 399.5"/><polygon class="cls-1" points="564.45 397.92 564.17 398.23 562.09 396.49 562.5 396.03 564.45 397.92"/><polygon class="cls-1" points="566.07 396.49 565.76 396.77 563.88 394.83 564.34 394.42 566.07 396.49"/><polygon class="cls-1" points="567.83 395.25 567.5 395.49 565.83 393.37 566.33 393 567.83 395.25"/><polygon class="cls-1" points="569.71 394.19 569.36 394.4 567.92 392.11 568.45 391.81 569.71 394.19"/><polygon class="cls-1" points="571.7 393.35 571.32 393.51 570.13 391.09 570.69 390.83 571.7 393.35"/><polygon class="cls-1" points="573.76 392.71 573.36 392.83 572.43 390.3 573.02 390.1 573.76 392.71"/><polygon class="cls-1" points="575.87 392.29 575.47 392.37 574.81 389.75 575.41 389.62 575.87 392.29"/><polygon class="cls-1" points="577.84 389.39 577.23 389.45 577.61 392.13 578.02 392.09 577.84 389.39"/><polygon class="cls-1" points="579.66 389.42 579.76 392.12 580.18 392.12 580.28 389.42 579.66 389.42"/><polygon class="cls-3" points="334.45 309.87 334.04 309.82 334.22 307.13 334.84 307.19 334.45 309.87"/><polygon class="cls-3" points="336.56 310.34 336.15 310.26 336.61 307.59 337.22 307.72 336.56 310.34"/><polygon class="cls-3" points="338.6 311.04 338.2 310.91 338.94 308.31 339.53 308.5 338.6 311.04"/><polygon class="cls-3" points="340.56 311.94 340.18 311.77 341.19 309.26 341.75 309.51 340.56 311.94"/><polygon class="cls-3" points="342.41 313.05 342.05 312.84 343.32 310.45 343.85 310.76 342.41 313.05"/><polygon class="cls-3" points="344.14 314.34 343.8 314.09 345.31 311.85 345.81 312.21 344.14 314.34"/><polygon class="cls-3" points="345.72 315.8 345.42 315.52 347.15 313.45 347.61 313.86 345.72 315.8"/><polygon class="cls-3" points="347.14 317.43 346.87 317.12 348.81 315.23 349.22 315.69 347.14 317.43"/><polygon class="cls-3" points="348.39 319.19 348.15 318.85 350.27 317.18 350.64 317.68 348.39 319.19"/><polygon class="cls-3" points="349.44 321.07 349.24 320.71 351.53 319.27 351.83 319.81 349.44 321.07"/><polygon class="cls-3" points="350.29 323.05 350.13 322.67 352.55 321.48 352.8 322.05 350.29 323.05"/><polygon class="cls-3" points="350.93 325.11 350.81 324.72 353.34 323.79 353.54 324.37 350.93 325.11"/><polygon class="cls-3" points="351.35 327.23 351.27 326.82 353.89 326.16 354.02 326.77 351.35 327.23"/><polygon class="cls-3" points="351.51 328.96 351.55 329.38 354.25 329.19 354.18 328.58 351.51 328.96"/><polygon class="cls-3" points="351.52 331.12 351.52 331.53 354.22 331.64 354.22 331.02 351.52 331.12"/><polygon class="cls-3" points="351.27 333.68 351.31 333.26 354.01 333.45 353.94 334.06 351.27 333.68"/><polygon class="cls-3" points="350.79 335.78 350.88 335.38 353.54 335.84 353.41 336.44 350.79 335.78"/><polygon class="cls-3" points="350.1 337.82 350.22 337.43 352.82 338.17 352.63 338.76 350.1 337.82"/><polygon class="cls-3" points="349.19 339.78 349.36 339.4 351.87 340.41 351.62 340.98 349.19 339.78"/><polygon class="cls-3" points="348.09 341.64 348.29 341.28 350.69 342.54 350.38 343.08 348.09 341.64"/><polygon class="cls-3" points="346.8 343.36 347.04 343.03 349.29 344.54 348.92 345.04 346.8 343.36"/><polygon class="cls-3" points="345.33 344.95 345.61 344.64 347.69 346.37 347.27 346.83 345.33 344.95"/><polygon class="cls-3" points="343.71 346.37 344.02 346.09 345.9 348.03 345.44 348.44 343.71 346.37"/><polygon class="cls-3" points="341.95 347.61 342.28 347.37 343.95 349.5 343.45 349.86 341.95 347.61"/><polygon class="cls-3" points="340.06 348.67 340.42 348.46 341.86 350.75 341.33 351.06 340.06 348.67"/><polygon class="cls-3" points="338.08 349.52 338.46 349.35 339.65 351.78 339.09 352.03 338.08 349.52"/><polygon class="cls-3" points="336.02 350.16 336.42 350.03 337.35 352.57 336.76 352.76 336.02 350.16"/><polygon class="cls-3" points="333.9 350.58 334.31 350.49 334.97 353.11 334.37 353.24 333.9 350.58"/><polygon class="cls-3" points="331.75 350.77 331.94 353.47 332.55 353.41 332.17 350.73 331.75 350.77"/><polygon class="cls-3" points="329.6 350.74 329.5 353.45 330.12 353.45 330.01 350.74 329.6 350.74"/><polygon class="cls-3" points="327.46 350.49 327.87 350.53 327.69 353.23 327.07 353.17 327.46 350.49"/><polygon class="cls-3" points="325.35 350.01 325.76 350.1 325.3 352.76 324.69 352.64 325.35 350.01"/><polygon class="cls-3" points="323.31 349.32 323.7 349.45 322.96 352.05 322.38 351.86 323.31 349.32"/><polygon class="cls-3" points="321.35 348.41 321.73 348.58 320.72 351.09 320.16 350.84 321.35 348.41"/><polygon class="cls-3" points="319.5 347.31 319.86 347.52 318.59 349.91 318.06 349.6 319.5 347.31"/><polygon class="cls-3" points="317.77 346.02 318.11 346.26 316.6 348.51 316.1 348.15 317.77 346.02"/><polygon class="cls-3" points="316.19 344.56 316.49 344.83 314.76 346.91 314.3 346.5 316.19 344.56"/><polygon class="cls-3" points="314.76 342.93 315.04 343.24 313.1 345.13 312.69 344.67 314.76 342.93"/><polygon class="cls-3" points="313.52 341.17 313.76 341.51 311.64 343.18 311.27 342.68 313.52 341.17"/><polygon class="cls-3" points="312.47 339.29 312.67 339.65 310.38 341.09 310.07 340.55 312.47 339.29"/><polygon class="cls-3" points="311.62 337.31 311.78 337.68 309.36 338.88 309.11 338.31 311.62 337.31"/><polygon class="cls-3" points="310.98 335.24 311.1 335.64 308.56 336.57 308.37 335.98 310.98 335.24"/><polygon class="cls-3" points="310.56 333.13 310.64 333.53 308.02 334.19 307.89 333.59 310.56 333.13"/><polygon class="cls-3" points="307.66 331.16 307.73 331.77 310.4 331.39 310.36 330.98 307.66 331.16"/><polygon class="cls-3" points="307.69 329.34 310.39 329.24 310.39 328.82 307.69 328.72 307.69 329.34"/><polygon class="cls-3" points="310.64 326.68 310.6 327.09 307.9 326.91 307.96 326.3 310.64 326.68"/><polygon class="cls-3" points="311.12 324.58 311.03 324.98 308.37 324.52 308.5 323.92 311.12 324.58"/><polygon class="cls-3" points="311.81 322.53 311.69 322.93 309.08 322.19 309.27 321.6 311.81 322.53"/><polygon class="cls-3" points="312.72 320.57 312.55 320.95 310.04 319.95 310.29 319.38 312.72 320.57"/><polygon class="cls-3" points="313.82 318.72 313.62 319.08 311.22 317.82 311.53 317.28 313.82 318.72"/><polygon class="cls-3" points="315.11 316.99 314.87 317.33 312.62 315.82 312.99 315.32 315.11 316.99"/><polygon class="cls-3" points="316.58 315.41 316.3 315.72 314.22 313.98 314.64 313.52 316.58 315.41"/><polygon class="cls-3" points="318.2 313.99 317.89 314.26 316.01 312.32 316.47 311.91 318.2 313.99"/><polygon class="cls-3" points="319.96 312.74 319.63 312.99 317.96 310.86 318.46 310.5 319.96 312.74"/><polygon class="cls-3" points="321.85 311.69 321.49 311.9 320.05 309.61 320.58 309.3 321.85 311.69"/><polygon class="cls-3" points="323.83 310.84 323.45 311.01 322.26 308.58 322.82 308.33 323.83 310.84"/><polygon class="cls-3" points="325.89 310.2 325.5 310.33 324.56 307.79 325.15 307.6 325.89 310.2"/><polygon class="cls-3" points="328 309.78 327.6 309.87 326.94 307.24 327.54 307.12 328 309.78"/><polygon class="cls-3" points="329.97 306.88 329.36 306.95 329.74 309.63 330.15 309.58 329.97 306.88"/><polygon class="cls-3" points="331.79 306.91 331.9 309.61 332.31 309.61 332.41 306.91 331.79 306.91"/><path class="cls-1" d="M773.83,497.47a14.94,14.94,0,1,0,14.94,14.94A14.94,14.94,0,0,0,773.83,497.47Zm0,27.59a12.65,12.65,0,1,1,12.65-12.65A12.65,12.65,0,0,1,773.83,525.06Z" transform="translate(-377.66 -235.93)"/><path class="cls-1" d="M773.83,503.7a8.7,8.7,0,1,0,8.7,8.7A8.7,8.7,0,0,0,773.83,503.7Zm0,16.07a7.37,7.37,0,1,1,7.37-7.37A7.37,7.37,0,0,1,773.83,519.77Z" transform="translate(-377.66 -235.93)"/><path class="cls-1" d="M707.81,552a14.13,14.13,0,1,0,14.13,14.13A14.13,14.13,0,0,0,707.81,552Zm0,26.1a12,12,0,1,1,12-12A12,12,0,0,1,707.81,578.07Z" transform="translate(-377.66 -235.93)"/><path class="cls-1" d="M707.81,557.87a8.23,8.23,0,1,0,8.23,8.23A8.23,8.23,0,0,0,707.81,557.87Zm0,15.21a7,7,0,1,1,7-7A7,7,0,0,1,707.81,573.08Z" transform="translate(-377.66 -235.93)"/><polygon class="cls-3" points="357.76 175.6 354.61 175.27 356 154.62 360.7 155.12 357.76 175.6"/><polygon class="cls-3" points="373.86 179.25 370.76 178.59 374.3 158.2 378.92 159.18 373.86 179.25"/><polygon class="cls-3" points="389.49 184.56 386.47 183.58 392.13 163.67 396.62 165.13 389.49 184.56"/><polygon class="cls-3" points="404.48 191.48 401.58 190.19 409.28 170.98 413.6 172.9 404.48 191.48"/><polygon class="cls-3" points="418.66 199.92 415.91 198.34 425.58 180.04 429.67 182.4 418.66 199.92"/><polygon class="cls-3" points="431.88 209.8 429.31 207.94 440.84 190.75 444.66 193.53 431.88 209.8"/><polygon class="cls-3" points="444 221.01 441.64 218.89 454.9 203 458.41 206.16 444 221.01"/><polygon class="cls-3" points="454.87 233.43 452.75 231.07 467.6 216.65 470.76 220.16 454.87 233.43"/><polygon class="cls-3" points="464.39 246.91 462.53 244.34 478.8 231.56 481.58 235.38 464.39 246.91"/><polygon class="cls-3" points="472.45 261.31 470.87 258.56 488.39 247.55 490.75 251.64 472.45 261.31"/><polygon class="cls-3" points="478.96 276.48 477.67 273.58 496.25 264.46 498.17 268.78 478.96 276.48"/><polygon class="cls-3" points="483.85 292.25 482.87 289.23 502.3 282.1 503.76 286.59 483.85 292.25"/><polygon class="cls-3" points="487.07 308.43 486.41 305.33 506.47 300.27 507.46 304.89 487.07 308.43"/><polygon class="cls-3" points="488.24 321.72 488.57 324.87 509.22 323.48 508.72 318.78 488.24 321.72"/><polygon class="cls-3" points="488.35 338.2 488.35 341.38 509.03 342.15 509.03 337.43 488.35 338.2"/><polygon class="cls-3" points="486.4 357.76 486.73 354.61 507.38 356 506.89 360.7 486.4 357.76"/><polygon class="cls-3" points="482.75 373.86 483.41 370.76 503.8 374.3 502.82 378.92 482.75 373.86"/><polygon class="cls-3" points="477.44 389.49 478.42 386.47 498.33 392.13 496.87 396.62 477.44 389.49"/><polygon class="cls-3" points="470.52 404.48 471.81 401.58 491.02 409.28 489.1 413.6 470.52 404.48"/><polygon class="cls-3" points="462.08 418.66 463.67 415.91 481.96 425.58 479.6 429.67 462.08 418.66"/><polygon class="cls-3" points="452.2 431.88 454.06 429.31 471.25 440.84 468.47 444.66 452.2 431.88"/><polygon class="cls-3" points="440.99 444 443.11 441.64 459 454.9 455.84 458.41 440.99 444"/><polygon class="cls-3" points="428.58 454.88 430.93 452.75 445.35 467.6 441.84 470.76 428.58 454.88"/><polygon class="cls-3" points="415.09 464.4 417.66 462.53 430.44 478.81 426.62 481.58 415.09 464.4"/><polygon class="cls-3" points="400.69 472.45 403.44 470.87 414.45 488.39 410.36 490.75 400.69 472.45"/><polygon class="cls-3" points="385.52 478.96 388.42 477.67 397.54 496.25 393.23 498.17 385.52 478.96"/><polygon class="cls-3" points="369.76 483.85 372.77 482.87 379.9 502.3 375.41 503.76 369.76 483.85"/><polygon class="cls-3" points="353.57 487.07 356.67 486.41 361.73 506.48 357.11 507.46 353.57 487.07"/><polygon class="cls-3" points="337.13 488.57 338.52 509.22 343.22 508.73 340.29 488.24 337.13 488.57"/><polygon class="cls-3" points="320.63 488.35 319.85 509.03 324.57 509.03 323.8 488.35 320.63 488.35"/><polygon class="cls-3" points="304.24 486.4 307.39 486.73 306 507.38 301.3 506.89 304.24 486.4"/><polygon class="cls-3" points="288.14 482.75 291.24 483.41 287.7 503.8 283.08 502.82 288.14 482.75"/><polygon class="cls-3" points="272.51 477.44 275.53 478.42 269.87 498.33 265.38 496.87 272.51 477.44"/><polygon class="cls-3" points="257.52 470.52 260.42 471.81 252.72 491.02 248.41 489.1 257.52 470.52"/><polygon class="cls-3" points="243.34 462.08 246.09 463.67 236.42 481.96 232.33 479.6 243.34 462.08"/><polygon class="cls-3" points="230.12 452.2 232.69 454.06 221.16 471.25 217.34 468.48 230.12 452.2"/><polygon class="cls-3" points="218 440.99 220.36 443.11 207.1 459 203.59 455.84 218 440.99"/><polygon class="cls-3" points="207.13 428.58 209.25 430.93 194.4 445.35 191.24 441.84 207.13 428.58"/><polygon class="cls-3" points="197.61 415.09 199.47 417.66 183.2 430.44 180.42 426.62 197.61 415.09"/><polygon class="cls-3" points="189.55 400.69 191.13 403.44 173.61 414.45 171.25 410.36 189.55 400.69"/><polygon class="cls-3" points="183.04 385.52 184.33 388.42 165.75 397.54 163.83 393.23 183.04 385.52"/><polygon class="cls-3" points="178.15 369.76 179.13 372.77 159.7 379.9 158.24 375.41 178.15 369.76"/><polygon class="cls-3" points="174.93 353.57 175.59 356.67 155.53 361.73 154.54 357.11 174.93 353.57"/><polygon class="cls-3" points="152.78 338.52 153.28 343.22 173.76 340.29 173.43 337.13 152.78 338.52"/><polygon class="cls-3" points="152.97 324.57 173.65 323.8 173.65 320.63 152.97 319.85 152.97 324.57"/><polygon class="cls-3" points="175.6 304.24 175.27 307.39 154.62 306 155.11 301.3 175.6 304.24"/><polygon class="cls-3" points="179.25 288.14 178.59 291.24 158.2 287.7 159.18 283.08 179.25 288.14"/><polygon class="cls-3" points="184.56 272.51 183.58 275.53 163.67 269.88 165.13 265.38 184.56 272.51"/><polygon class="cls-3" points="191.48 257.52 190.19 260.42 170.98 252.72 172.9 248.41 191.48 257.52"/><polygon class="cls-3" points="199.92 243.34 198.33 246.09 180.04 236.42 182.4 232.33 199.92 243.34"/><polygon class="cls-3" points="209.8 230.12 207.94 232.69 190.75 221.16 193.53 217.34 209.8 230.12"/><polygon class="cls-3" points="221.01 218.01 218.89 220.36 203 207.1 206.16 203.59 221.01 218.01"/><polygon class="cls-3" points="233.42 207.13 231.07 209.25 216.65 194.4 220.16 191.24 233.42 207.13"/><polygon class="cls-3" points="246.91 197.61 244.34 199.47 231.56 183.2 235.38 180.42 246.91 197.61"/><polygon class="cls-3" points="261.31 189.55 258.56 191.13 247.55 173.61 251.64 171.25 261.31 189.55"/><polygon class="cls-3" points="276.48 183.04 273.58 184.33 264.46 165.75 268.78 163.83 276.48 183.04"/><polygon class="cls-3" points="292.25 178.15 289.23 179.13 282.1 159.7 286.59 158.24 292.25 178.15"/><polygon class="cls-3" points="308.43 174.94 305.33 175.59 300.27 155.53 304.89 154.55 308.43 174.94"/><polygon class="cls-3" points="323.48 152.78 318.78 153.28 321.72 173.76 324.87 173.43 323.48 152.78"/><polygon class="cls-3" points="337.43 152.97 338.2 173.65 341.37 173.65 342.15 152.97 337.43 152.97"/><path class="cls-4" d="M708.62,359.48c-114.68,0-207.65,93-207.65,207.65s93,207.65,207.65,207.65,207.65-93,207.65-207.65S823.3,359.48,708.62,359.48Zm0,409.87c-111.68,0-202.21-90.53-202.21-202.21s90.53-202.21,202.21-202.21,202.21,90.53,202.21,202.21S820.29,769.35,708.62,769.35Z" transform="translate(-377.66 -235.93)"/><path class="cls-4" d="M806.07,730a189.93,189.93,0,0,1-194.92,0l-20.39,27.8a224.23,224.23,0,0,0,237-.8Z" transform="translate(-377.66 -235.93)"/><path class="cls-4" d="M526,461.43c-45.79,79.31-34.67,175.84,20.65,242.36l9.92-8.19a199.05,199.05,0,0,1-45.79-127.31c0-110.39,89.49-199.87,199.87-199.87a201.15,201.15,0,0,1,33.22,2.76L746,358.12C660.81,343.52,571.72,382.17,526,461.43Z" transform="translate(-377.66 -235.93)"/><path class="cls-2" d="M708.66,359.27C594,359.27,501,452.24,501,566.93s93,207.65,207.65,207.65,207.65-93,207.65-207.65S823.35,359.27,708.66,359.27Zm0,409.87c-111.68,0-202.21-90.53-202.21-202.21S597,364.72,708.66,364.72s202.21,90.53,202.21,202.21S820.34,769.14,708.66,769.14Z" transform="translate(-377.66 -235.93)"/><path class="cls-2" d="M806.07,730a189.93,189.93,0,0,1-194.92,0l-20.39,27.8a224.23,224.23,0,0,0,237-.8Z" transform="translate(-377.66 -235.93)"/><path class="cls-5" d="M526,461.43c-45.79,79.31-34.67,175.84,20.65,242.36l9.92-8.19a199.05,199.05,0,0,1-45.79-127.31c0-110.39,89.49-199.87,199.87-199.87a201.15,201.15,0,0,1,33.22,2.76L746,358.12C660.81,343.52,571.72,382.17,526,461.43Z" transform="translate(-377.66 -235.93)"/><path class="cls-1" d="M699.87,825.37v-0.89c-138.26-4.64-248.93-118.16-248.93-257.55,0-142.33,115.38-257.72,257.72-257.72S966.38,424.59,966.38,566.93a259,259,0,0,1-4.65,48.9h7.06a266.06,266.06,0,0,0,4.53-48.9c0-146.16-118.49-264.65-264.65-264.65S444,420.76,444,566.93,562.5,831.58,708.66,831.58a265.55,265.55,0,0,0,57.17-6.21h-66Z" transform="translate(-377.66 -235.93)"/><path class="cls-3" d="M708.62,327.8C840.8,327.8,947.95,435,947.95,567.14h43.32c0-156.11-126.55-282.65-282.65-282.65S426,411,426,567.14h43.32C469.28,435,576.44,327.8,708.62,327.8Z" transform="translate(-377.66 -235.93)"/><path class="cls-3" d="M713.17,814.05A264.53,264.53,0,0,1,484.62,682.89l-16.13,9.31c76.58,132.64,244.43,179.72,378.43,107.72l-9.66-16.72A263.47,263.47,0,0,1,713.17,814.05Z" transform="translate(-377.66 -235.93)"/><circle class="cls-1" cx="916.52" cy="719.69" r="11.2" transform="translate(-542.66 917.66) rotate(-60)"/><circle class="cls-1" cx="880.68" cy="759.49" r="11.2" transform="translate(-650.68 669.83) rotate(-48)"/><path class="cls-3" d="M708.66,450.55A116.37,116.37,0,1,0,825,566.93,116.37,116.37,0,0,0,708.66,450.55Zm0,230A113.66,113.66,0,1,1,822.32,566.93,113.66,113.66,0,0,1,708.66,680.59Z" transform="translate(-377.66 -235.93)"/><polygon class="cls-5" points="210.48 342.15 204.16 331.21 210.48 320.27 223.11 320.27 229.42 331.21 223.11 342.15 210.48 342.15"/><polygon class="cls-5" points="395.17 418.8 399.07 406.78 411.42 404.15 419.88 413.54 415.98 425.55 403.62 428.18 395.17 418.8"/><path class="cls-1" d="M780.82,524.2a84,84,0,1,1-17.41-20.77l1.9-1.34a86,86,0,1,0,17.32,20.74Z" transform="translate(-377.66 -235.93)"/><path class="cls-5" d="M632.76,546.63a78.77,78.77,0,0,1,58.12-56.19l-1.93-14.17a93,93,0,0,0-70.43,68.55Z" transform="translate(-377.66 -235.93)"/><path class="cls-3" d="M744.56,545.68a41.79,41.79,0,1,1-8.66-10.33l0.95-.67A42.75,42.75,0,1,0,745.46,545Z" transform="translate(-377.66 -235.93)"/><path class="cls-2" d="M743.78,582.61a39,39,0,0,1-33.15,23.09l0.54,8.39A47.42,47.42,0,0,0,751.46,586Z" transform="translate(-377.66 -235.93)"/><path class="cls-2" d="M748.15,541.35a47.42,47.42,0,0,0-19.88-17.5l-3.57,7.61a39,39,0,0,1,22.44,35.32h8.4a47.42,47.42,0,0,0-7.39-25.43" transform="translate(-377.66 -235.93)"/><path class="cls-2" d="M669.13,566.77a39,39,0,0,1,27.35-37.23l-2.51-8a47.41,47.41,0,0,0-3.72,89.15l3.17-7.78a39,39,0,0,1-24.29-36.13" transform="translate(-377.66 -235.93)"/><path class="cls-5" d="M750,633.24a78.76,78.76,0,0,1-80.84,0l-8.46,11.53a93,93,0,0,0,98.28-.33Z" transform="translate(-377.66 -235.93)"/></svg>