<svg preserveAspectRatio="none" xmlns="http://www.w3.org/2000/svg" xmlns:xlink="http://www.w3.org/1999/xlink" viewBox="0 0 396.33 405.27"><defs><style>.cls-1{isolation:isolate;}.cls-2{opacity:0.25;fill:url(#linear-gradient);}.cls-12,.cls-3,.cls-4,.cls-5,.cls-7,.cls-8,.cls-9{fill:none;stroke-miterlimit:10;}.cls-3{stroke:aqua;stroke-width:0.75px;}.cls-12,.cls-4,.cls-5,.cls-9{stroke:#0071bc;}.cls-4{stroke-width:0.52px;}.cls-5,.cls-8{stroke-width:1.72px;}.cls-6{mix-blend-mode:overlay;}.cls-7,.cls-8{stroke:#fff;}.cls-7{stroke-width:2.09px;}.cls-12,.cls-9{stroke-width:1.99px;}.cls-10{fill:url(#linear-gradient-2);}.cls-11{fill:url(#linear-gradient-3);}.cls-12{stroke-dasharray:2.99 9.97;mix-blend-mode:color-dodge;}.cls-13{fill:aqua;}</style><linearGradient id="linear-gradient" x1="203.37" y1="-4.16" x2="203.37" y2="281.94" gradientUnits="userSpaceOnUse"><stop offset="0" stop-color="#29abe2"/><stop offset="0.13" stop-color="#47b7e6" stop-opacity="0.86"/><stop offset="0.56" stop-color="#a9ddf3" stop-opacity="0.4"/><stop offset="0.86" stop-color="#e7f6fc" stop-opacity="0.11"/><stop offset="1" stop-color="#fff" stop-opacity="0"/></linearGradient><linearGradient id="linear-gradient-2" x1="1152.94" y1="290" x2="1114.4" y2="328.54" gradientUnits="userSpaceOnUse"><stop offset="0" stop-color="#16fff5"/><stop offset="0.03" stop-color="#14f5f1"/><stop offset="0.16" stop-color="#0dd9e4"/><stop offset="0.29" stop-color="#07c2da"/><stop offset="0.43" stop-color="#03b2d3"/><stop offset="0.6" stop-color="#01a9cf"/><stop offset="0.82" stop-color="#00a6ce"/></linearGradient><linearGradient id="linear-gradient-3" x1="1246.56" y1="169.56" x2="1178.12" y2="264.57" xlink:href="#linear-gradient-2"/></defs><title>circle21</title><g class="cls-1"><g id="BACKGROUND_2" data-name="BACKGROUND 2"><circle class="cls-2" cx="203.37" cy="214.77" r="163.95"/><circle class="cls-3" cx="203.37" cy="214.77" r="163.95"/><circle class="cls-4" cx="203.37" cy="214.77" r="130.17"/><path class="cls-5" d="M1189,190.17A63.79,63.79,0,1,0,1252.77,254,63.79,63.79,0,0,0,1189,190.17Zm0,112A48.26,48.26,0,1,1,1237.24,254,48.26,48.26,0,0,1,1189,302.22Z" transform="translate(-985.61 -39.19)"/><g class="cls-6"><circle class="cls-7" cx="203.37" cy="214.77" r="26.41"/><line class="cls-7" x1="203.87" y1="181.39" x2="203.87" y2="196.33"/><line class="cls-7" x1="191.05" y1="183.74" x2="196.78" y2="197.55"/><line class="cls-7" x1="180.11" y1="190.81" x2="190.69" y2="201.38"/><line class="cls-7" x1="172.71" y1="201.54" x2="186.53" y2="207.26"/><line class="cls-7" x1="169.98" y1="214.27" x2="184.93" y2="214.27"/><line class="cls-7" x1="172.33" y1="227.09" x2="186.15" y2="221.37"/><line class="cls-7" x1="179.41" y1="238.03" x2="189.98" y2="227.46"/><line class="cls-7" x1="190.13" y1="245.43" x2="195.85" y2="231.62"/><line class="cls-7" x1="202.87" y1="248.16" x2="202.87" y2="233.21"/><line class="cls-7" x1="215.69" y1="245.81" x2="209.97" y2="232"/><line class="cls-7" x1="226.63" y1="238.73" x2="216.06" y2="228.16"/><line class="cls-7" x1="234.03" y1="228.01" x2="220.21" y2="222.29"/><line class="cls-7" x1="236.76" y1="215.27" x2="221.81" y2="215.27"/><line class="cls-7" x1="234.41" y1="202.46" x2="220.6" y2="208.18"/><line class="cls-7" x1="227.33" y1="191.52" x2="216.76" y2="202.09"/><line class="cls-7" x1="216.61" y1="184.12" x2="210.89" y2="197.93"/></g><g class="cls-6"><path class="cls-8" d="M1285.32,149.62l-1-.89,29.47-32.47,1.24,1.13Z" transform="translate(-985.61 -39.19)"/><path class="cls-8" d="M1277.57,143q-1-.83-2.1-1.65l26.73-34.76q1.39,1.07,2.75,2.16Zm-9.33-6.86q-1.11-.75-2.23-1.47l23.82-36.82q1.47,0.95,2.92,1.93Zm-9.87-6.08q-1.16-.65-2.34-1.28l20.75-38.63q1.54,0.83,3.07,1.69Zm-10.31-5.24-2.44-1.09,17.51-40.2q1.61,0.7,3.2,1.43Zm-10.7-4.38-2.51-.88L1249,78q1.66,0.57,3.3,1.16Zm-93.55-1.12-13.92-41.58q1.66-.55,3.32-1.08l13.15,41.83Zm82.53-2.37-2.58-.67,10.69-42.53q1.7,0.43,3.39.89Zm-71.42-.85-10.47-42.58q1.69-.42,3.4-0.8l9.67,42.77Zm60.15-1.72-2.64-.46,7.2-43.26q1.72,0.29,3.43.6Zm-48.81-.59-7-43.3q1.73-.28,3.47-0.52l6.13,43.42Zm37.35-1.06-2.65-.25,3.63-43.7q1.74,0.14,3.48.32Zm-25.84-.31-3.41-43.72q1.74-.14,3.49-0.24l2.59,43.78Zm14.28-.4-2.68,0,0.12-43.85q1.75,0,3.49,0Z" transform="translate(-985.61 -39.19)"/><path class="cls-8" d="M1134.21,122.88l-16.93-40.45,1.58-.65,16.54,40.61Z" transform="translate(-985.61 -39.19)"/><path class="cls-8" d="M1101.49,418q-1.5-.8-3-1.63l21.38-38.29,2.26,1.23Zm-12.68-7.44q-1.42-.91-2.82-1.85l24.31-36.49,2.18,1.42Zm-12-8.39q-1.36-1-2.69-2.08l27.13-34.45,2,1.57Zm-11.35-9.33q-1.26-1.13-2.51-2.27l29.74-32.23q1,0.88,1.92,1.74Zm-10.57-10.18q-1.17-1.22-2.32-2.46l32.18-29.79q0.88,1,1.78,1.89Zm-9.74-11q-1.07-1.31-2.11-2.63l34.41-27.18q0.81,1,1.64,2Zm-8.84-11.7q-1-1.39-1.91-2.8l36.45-24.38q0.72,1.08,1.46,2.14Zm-7.9-12.38q-0.86-1.47-1.69-2.95L1065,323.21q0.63,1.13,1.29,2.25Zm-6.91-13q-0.73-1.52-1.44-3.06l39.84-18.34q0.54,1.18,1.11,2.35Zm-5.85-13.48q-0.62-1.59-1.2-3.19l41.18-15.08q0.45,1.21.91,2.42Zm-4.77-13.94q-0.48-1.61-.93-3.24l42.24-11.78q0.35,1.27.73,2.52Zm-3.63-14.2q-0.36-1.67-.69-3.36l43-8.35q0.25,1.26.51,2.52Zm-2.5-14.52q-0.22-1.67-.41-3.34l43.57-5q0.15,1.3.32,2.6Z" transform="translate(-985.61 -39.19)"/><path class="cls-8" d="M1252.57,428.66l-15-41.21,2.42-.91,15.76,40.92Q1254.17,428.07,1252.57,428.66Zm13.62-5.58L1248,383.19l2.35-1.1,19,39.54Q1267.73,422.37,1266.19,423.08Zm13.12-6.64L1258,378.13l2.26-1.29,22,37.92Q1280.78,415.62,1279.3,416.44Zm12.55-7.66-24.31-36.5,2.16-1.46,24.94,36.07Q1293.26,407.85,1291.85,408.78Zm11.88-8.6-27.08-34.49q1-.79,2-1.6l27.75,34Q1305.08,399.13,1303.74,400.18Zm11.18-9.52-29.72-32.25q1-.88,1.89-1.78l30.29,31.71Q1316.16,389.52,1314.92,390.66Zm10.38-10.35-32.14-29.83q0.88-1,1.75-1.92l32.67,29.25Q1326.45,379.07,1325.3,380.31Zm9.55-11.14L1300.47,342q0.8-1,1.58-2l34.88,26.58Q1335.9,367.84,1334.85,369.17Zm8.65-11.87-36.43-24.41q0.72-1.07,1.41-2.15l36.89,23.72Q1344.44,355.89,1343.5,357.31Zm7.68-12.51-38.24-21.46q0.63-1.12,1.24-2.26l38.63,20.75Q1352,343.32,1351.18,344.8Zm6.67-13.07L1318,313.35q0.54-1.16,1.05-2.34l40.16,17.61Q1358.56,330.19,1357.85,331.73Zm5.62-13.58L1322.31,303q0.45-1.22.88-2.45L1364.6,315Q1364,316.58,1363.47,318.15Zm4.52-14-42.23-11.83q0.35-1.25.68-2.51l42.43,11.08Q1368.44,302.57,1368,304.2Zm3.4-14.29-43-8.45q0.25-1.25.47-2.52l43.19,7.61Q1371.71,288.23,1371.38,289.91Zm2.25-14.51-43.56-5q0.15-1.27.27-2.56L1374,272Q1373.83,273.7,1373.63,275.39Z" transform="translate(-985.61 -39.19)"/></g><path class="cls-9" d="M1003.51,266c-0.27-4.14-.4-8.2-0.4-12.08A185.81,185.81,0,0,1,1096,93l22,38a142.59,142.59,0,0,0-71,123c0,3,.1,6,0.31,9.28Z" transform="translate(-985.61 -39.19)"/><path class="cls-9" d="M1330.94,249.89a140.68,140.68,0,0,0-30.75-84.25l34.32-27.3a184.21,184.21,0,0,1,40.26,110.32Z" transform="translate(-985.61 -39.19)"/><path class="cls-9" d="M1189,439.84a185,185,0,0,1-67.5-12.66l15.93-40.86a142.67,142.67,0,0,0,88.15,4.9l11.26,42.38A186.38,186.38,0,0,1,1189,439.84Z" transform="translate(-985.61 -39.19)"/><path class="cls-10" d="M1189,352.63A98.78,98.78,0,0,1,1090.31,254a5.48,5.48,0,1,1,11,0A87.8,87.8,0,0,0,1189,341.67,5.48,5.48,0,0,1,1189,352.63Z" transform="translate(-985.61 -39.19)"/><path class="cls-11" d="M1282.17,259.44a5.48,5.48,0,0,1-5.48-5.48A87.75,87.75,0,0,0,1152.79,174a5.48,5.48,0,0,1-4.53-10A98.71,98.71,0,0,1,1287.65,254,5.48,5.48,0,0,1,1282.17,259.44Z" transform="translate(-985.61 -39.19)"/><circle class="cls-12" cx="203.37" cy="214.77" r="116.11"/><path class="cls-13" d="M1310.86,90.59l6.53-8.81a213.82,213.82,0,0,0-127.91-42.59v11A202.9,202.9,0,0,1,1310.86,90.59Z" transform="translate(-985.61 -39.19)"/><path class="cls-13" d="M1283.19,434.73l5.06,9.73a215.68,215.68,0,0,0,93.7-96.1l-9.85-4.81A204.68,204.68,0,0,1,1283.19,434.73Z" transform="translate(-985.61 -39.19)"/><path class="cls-13" d="M996,319.69l-10.39,3.5a215.31,215.31,0,0,0,81.24,107.44l6.26-9A204.32,204.32,0,0,1,996,319.69Z" transform="translate(-985.61 -39.19)"/></g></g></svg>