<svg preserveAspectRatio="none" xmlns="http://www.w3.org/2000/svg" viewBox="0 0 240.46 254.89"><defs><linearGradient id="linear-gradient" x1="328.55" y1="224.98" x2="359.56" y2="171.87" gradientUnits="userSpaceOnUse"><stop offset="0" stop-color="#2974e2"/><stop offset=".8"/></linearGradient><linearGradient id="linear-gradient-2" x1="263.11" y1="132.31" x2="316.43" y2="132.31" gradientUnits="userSpaceOnUse"><stop offset=".22"/><stop offset="1" stop-color="#2974e2"/></linearGradient><linearGradient id="linear-gradient-3" x1="240.53" y1="178.05" x2="282.23" y2="231.88" gradientUnits="userSpaceOnUse"><stop offset="0" stop-color="#2974e2"/><stop offset=".84"/></linearGradient><style>.cls-3,.cls-7{fill:#fff}.cls-3,.cls-8{mix-blend-mode:overlay}</style></defs><g style="isolation:isolate"><g id="Layer_5" data-name="Layer 5"><g opacity=".23"><path class="cls-3" d="M300 286.51A106.47 106.47 0 11406.47 180 106.59 106.59 0 01300 286.51zm0-211.25A104.78 104.78 0 10404.78 180 104.9 104.9 0 00300 75.26z" transform="translate(-183.88 -60.43)"/><path class="cls-3" d="M300 259.57A79.53 79.53 0 11379.53 180 79.62 79.62 0 01300 259.57zm0-158.21A78.68 78.68 0 10378.68 180 78.77 78.77 0 00300 101.35z" transform="translate(-183.88 -60.43)"/><path class="cls-3" d="M300 240.25a60.19 60.19 0 01-39.38-14.67l5.53-6.39a51.73 51.73 0 0033.85 12.6zm4.29-.15l-.6-8.44a51.69 51.69 0 0032.88-15l6 6a60.15 60.15 0 01-38.24 17.44zm-46.86-17.44a60.14 60.14 0 01-17.52-38.25l8.44-.61a51.68 51.68 0 0015.06 32.87zm88-3.2l-6.39-5.54A51.73 51.73 0 00351.75 180v-.16h8.46v.16a60.23 60.23 0 01-14.69 39.45zm-105.64-39.34V180a60.2 60.2 0 0114.64-39.35l6.4 5.53A51.74 51.74 0 00248.25 180zm111.83-3.92a51.68 51.68 0 00-15.11-32.84l6-6A60.14 60.14 0 01360 175.58zm-88.27-32.69l-6-6A60.14 60.14 0 01295.58 120l.61 8.44a51.69 51.69 0 00-32.85 15.07zm70.46-2.67A51.74 51.74 0 00300 128.28h-.12v-8.46h.12a60.2 60.2 0 0139.32 14.61z" transform="translate(-183.88 -60.43)"/><path class="cls-3" d="M300 237.29A57.25 57.25 0 11357.25 180 57.32 57.32 0 01300 237.29zm0-112A54.71 54.71 0 10354.71 180 54.78 54.78 0 00300 125.32z" transform="translate(-183.88 -60.43)"/><path class="cls-3" d="M300 214.38A34.34 34.34 0 11334.34 180 34.38 34.38 0 01300 214.38zm0-66.14A31.8 31.8 0 10331.8 180a31.84 31.84 0 00-31.8-31.76zM300.05 270v-7.61a82.28 82.28 0 0041.14-11l3.81 6.59A89.91 89.91 0 01300.05 270zm-45-12a90.39 90.39 0 01-32.94-32.88l6.59-3.82a82.77 82.77 0 0030.16 30.11zm122.83-33l-6.59-3.81a82.29 82.29 0 0011-41.15v-.2h7.61v.16a90 90 0 01-11.99 45zm-160.2-44.86h-7.61V180a89.92 89.92 0 0112-44.87l6.59 3.8a82.29 82.29 0 00-11 41.07v.1zm153.55-41.41A82.76 82.76 0 00341 108.65l3.8-6.6a90.4 90.4 0 0133 32.84zm-112.5-29.93l-3.82-6.58a89.9 89.9 0 0144.93-12.12v7.61a82.28 82.28 0 00-41.11 11.08z" transform="translate(-183.88 -60.43)"/><path class="cls-3" d="M300 270h-.88l.07-7.61h.81zm.88 0l-.07-7.61h.8l.19 7.61h-.89zm-2.64 0h-.89l.22-7.61h.8zm4.4 0l-.22-7.61h.81l.29 7.61zm-6.17 0h-.88l.36-7.6h.81zm7.94 0l-.38-7.6h.81l.45 7.6zm-9.7 0l-.88-.06.51-7.59.81.05zm11.46-.06l-.51-7.6.81-.06.58 7.59zm-13.17-.23l-.89-.07.67-7.58.8.07zm15-.08l-.71-7.63.81-.07.74 7.58zm-16.74-.08l-.88-.09.8-7.57.82.11zm18.49-.09l-.8-7.57.8-.09.89 7.56zm-20.25-.09l-.87-.11 1-7.55.81.1zm22-.11l-1-7.55.8-.11 1 7.54zm-23.75-.11l-.88-.13 1.12-7.53.79.11zm25.5-.13l-1.11-7.53.8-.12 1.18 7.52zm-27.25-.13l-.87-.14 1.25-7.51.8.13zm29-.15l-1.25-7.51.79-.14 1.34 7.49zm-30.74-.14l-.87-.16 1.41-7.48.8.15zm32.48-.17l-1.4-7.48.79-.15 1.48 7.47zm-34.21-.16l-.86-.17 1.54-7.46.79.16zm35.95-.19l-1.56-7.45.79-.17 1.63 7.44zm-37.68-.17l-.86-.19 1.7-7.42.79.18zm39.4-.2l-1.69-7.42.79-.19 1.76 7.41zm-41.2-.19l-.87-.21 1.85-7.38.78.19zm42.84-.22l-1.84-7.39.79-.2 1.92 7.37zm-44.56-.21l-.86-.23 2-7.34.77.21zm46.26-.24l-2-7.35.78-.21 2.06 7.33zm-48-.22l-.86-.25 2.14-7.31.77.22zm49.67-.26l-2.14-7.31.77-.23 2.21 7.28zm-51.36-.23l-.86-.26 2.29-7.26.77.24zm53-.28l-2.27-7.27.77-.25 2.35 7.24zm-54.75-.26l-.84-.28 2.42-7.22.77.26zm56.42-.29l-2.41-7.22.75-.26 2.5 7.19zm-58.1-.27l-.85-.3 2.58-7.16.76.27zm59.77-.31l-2.55-7.17.75-.27 2.63 7.14zm-61.44-.29l-.83-.31 2.71-7.12.76.29zm63.1-.32l-2.7-7.12.76-.29 2.77 7.09zm-64.76-.31l-.83-.33 2.87-7.05.74.3zm66.41-.33l-2.85-7.06.75-.31 2.91 7zm-68-.33l-.83-.35 3-7 .74.31zm69.68-.35l-3-7 .75-.32 3 7zm-71.31-.34l-.81-.36 3.12-6.94.74.33zm72.92-.36l-3.13-6.94.74-.34 3.19 6.91zm-74.54-.37l-.8-.37 3.25-6.88.74.35zm76.14-.37l-3.27-6.87.73-.35 3.33 6.84zm-77.66-.36l-.79-.39 3.39-6.82.73.36zm79.32-.38l-3.4-6.81.72-.36 3.47 6.78zm-80.91-.41l-.78-.4 3.52-6.75.73.38zm82.47-.39l-3.53-6.82.72-.38 3.58 6.72zm-84-.43l-.77-.42 3.65-6.68.72.39zm85.59-.4l-3.67-6.67.72-.4 3.71 6.64zm-87.2-.48l-.77-.44 3.79-6.6.7.4zm88.67-.41l-3.79-6.6.7-.41 3.85 6.57zm-90.2-.47l-.77-.46 3.93-6.52.69.41zm91.72-.42l-3.91-6.53.69-.42 4 6.49zm-93.19-.49l-.75-.47 4.06-6.44.69.43zm94.75-.43l-4.05-6.44.68-.43 4.11 6.41zm-96.25-.51l-.73-.48 4.17-6.37.69.45zm97.73-.44L345 249l.68-.45 4.23 6.33zm-99.2-.53l-.74-.5 4.3-6.28.67.45zm100.66-.45l-4.28-6.29.66-.45 4.36 6.24zm-102.12-.55l-.72-.51 4.42-6.2.67.47zm103.58-.46l-4.43-6.19.67-.48 4.47 6.16zm-105-.56l-.71-.52 4.54-6.11.65.48zm106.44-.47L349 246.2l.65-.49 4.6 6.07zm-107.85-.58l-.7-.54 4.66-6 .64.49zm109.26-.48l-4.66-6 .64-.5 4.71 6zm-110.66-.6l-.69-.55 4.77-5.93.64.51zm112-.49l-4.78-5.92.63-.51 4.81 5.86zm-113.42-.62l-.68-.56 4.89-5.83.62.52zm114.77-.55l-4.88-5.84.62-.52 4.94 5.79zm-116.13-.64l-.68-.58 5-5.72.6.52zm117.44-.47l-5-5.74.61-.54 5 5.7zm-118.81-.65l-.66-.59 5.13-5.63.6.54zm120.13-.52l-5.12-5.63.61-.55 5.15 5.6zm-121.44-.66l-.65-.6 5.23-5.53.59.55zm122.73-.53l-5.18-5.53.59-.56 5.27 5.49zm-124-.68l-.63-.61 5.33-5.43.58.57zm125.28-.53l-5.32-5.45.57-.56 5.38 5.38zm-126.54-.7l-.63-.63 5.45-5.32.56.57zm127.79-.55l-5.43-5.34.56-.58 5.48 5.28zm-129-.71l-.61-.64 5.54-5.22.56.59zm130.25-.56l-5.54-5.23.56-.59 5.58 5.18zm-131.46-.72l-.59-.65 5.63-5.13.55.6zm132.66-.57l-5.59-5.14.54-.6 5.69 5.06zm-133.84-.74l-.58-.66 5.73-5 .54.61zm135-.58l-5.74-5 .53-.62 5.78 5zm-136.18-.74l-.57-.68 5.84-4.88.52.61zm137.32-.59l-5.82-4.91.51-.61 5.88 4.83zm-138.45-.76l-.56-.69 5.94-4.76.5.62zm139.56-.64l-5.93-4.77.51-.64 6 4.72zm-140.69-.77l-.54-.69 6-4.66.5.64zm141.79-.62l-6-4.66.5-.65 6.06 4.61zm-142.87-.78l-.52-.7 6.11-4.54.49.65zm143.93-.63l-6.11-4.55.48-.65 6.15 4.48zm-145-.78l-.52-.72 6.21-4.41.47.65zm146-.65l-6.2-4.42.47-.67 6.24 4.37zm-147-.79l-.51-.73 6.29-4.28.45.66zm148.05-.65l-6.21-4.3.45-.66 6.33 4.23zm-149-.8l-.49-.74 6.37-4.17.44.67zm150-.67l-6.37-4.18.44-.68 6.4 4.11zm-151-.81l-.47-.74 6.45-4 .43.68zm152-.68l-6.45-4 .43-.69 6.48 4zM223.3 227l-.46-.75 6.52-3.92.42.69zm153.82-.7l-6.52-3.93.41-.69 6.57 3.85zm-154.72-.81l-.45-.77 6.61-3.78.4.69zm155.6-.68l-6.6-3.79.4-.71 6.63 3.74zM221.52 224l-.42-.76 6.67-3.67.39.71zm157.37-.73l-6.67-3.66.39-.72 6.7 3.61zm-158.22-.81l-.41-.78 6.74-3.53.38.71zm159.05-.75l-6.72-3.53.37-.72 6.78 3.47zm-159.87-.82l-.39-.78 6.81-3.4.37.73zm160.67-.76l-6.81-3.39.36-.73 6.84 3.33zm-161.46-.81l-.38-.79 6.88-3.26.35.73zm162.24-.78l-6.88-3.25.35-.74 6.91 3.2zm-163-.81l-.37-.8 6.94-3.12.33.73zm163.73-.8l-6.94-3.12.33-.74 7 3zm-164.45-.8l-.35-.81 7-3 .32.74zm165.16-.81l-7-3 .31-.74 7 2.92zm-165.84-.82l-.33-.81 7.06-2.86.31.75zm166.53-.83l-7.06-2.84.3-.76 7.09 2.78zm-167.19-.8l-.32-.82 7.11-2.71.29.76zm167.84-.87l-7.08-2.69.29-.76 7.14 2.65zm-168.47-.8l-.3-.83 7.16-2.58.28.76zm169.08-.86l-7.16-2.58.27-.75 7.19 2.49zM215 209.56l-.29-.84 7.29-2.42.26.76zm170.26-.87l-7.21-2.44.25-.76 7.24 2.35zm-170.82-.81l-.27-.84 7.26-2.28.25.77zm171.39-.88l-7.26-2.29.24-.77 7.29 2.2zm-171.9-.8l-.25-.85 7.31-2.14.23.77zm172.41-.89l-7.3-2.14.22-.77 7.33 2.05zm-172.91-.8l-.24-.85 7.35-2 .22.78zm173.39-.9l-7.35-2 .21-.78 7.37 1.92zM213 202.8l-.22-.85 7.38-1.85.2.79zm174.29-.9l-7.41-1.9.19-.78 7.41 1.76zm-174.72-.81l-.2-.86 7.42-1.69.18.78zm175.13-.9l-7.42-1.72c.06-.26.12-.52.17-.78l7.44 1.63zm-175.53-.82l-.17-.87 7.45-1.55.17.79zm175.9-.91l-7.45-1.56.16-.78 7.47 1.47c-.08.28-.14.57-.25.86zm-176.26-.81l-.17-.88 7.48-1.39q.07.39.15.78zm176.61-.92l-7.48-1.41.15-.8 7.49 1.34zm-176.94-.82l-.15-.87 7.51-1.26.14.8zM388.7 195l-7.51-1.25.13-.8 7.52 1.18zm-177.54-.82l-.13-.87 7.53-1.11.12.8zm177.84-.95l-7.53-1.12c0-.26.08-.53.11-.79l7.54 1c-.06.33-.12.62-.12.91zm-178.07-.83l-.12-.88 7.55-1q.05.4.11.8zm178.31-.93l-7.55-1 .1-.81 7.56.89zm-178.53-.82l-.1-.88 7.57-.81.09.8zm178.74-.94l-7.57-.8.08-.81 7.58.74zm-178.93-.82l-.08-.88 7.58-.67.08.81zm179.1-.93l-7.62-.66c0-.27 0-.53.07-.8l7.59.58q-.03.45-.07.92zm-179.25-.83q0-.44-.06-.88l7.59-.51.06.8zm179.39-.93l-7.59-.51.05-.81 7.6.45zm-179.51-.83v-.88l7.6-.37v.8zm179.61-.93l-7.6-.38v-.8l7.61.29c-.01.31-.02.61-.04.9zm-179.7-.83v-.88l7.61-.22v.8zm179.77-.94l-7.61-.22v-.81l7.61.16zm-179.82-.82v-.88l7.61-.08v.8zm179.85-.95l-7.61-.07V180l7.61-.11v1zm-179.87-.82v-.88l7.61.07v.73zm172.26-1v-.81l7.61-.16v.89zm-164.63-.65l-7.61-.14v-.88l7.61.21zm164.6-1v-.8l7.61-.31v.89zm-164.55-.65l-7.61-.29v-.88l7.6.37zm164.49-1v-.81l7.6-.45v.88zm-164.41-.65l-7.6-.43q0-.44.05-.88l7.59.51zm164.31-1q0-.4-.06-.8l7.59-.6q0 .44.07.89zm-164.21-.65l-7.59-.58q0-.44.07-.88l7.58.66zm164.08-1l-.08-.81 7.58-.74.08.88zM218.06 172l-7.58-.74.09-.88 7.57.8zm163.78-1l-.09-.81 7.56-.89.1.87zm-163.61-.65l-7.56-.88q.05-.44.11-.88l7.55 1zm163.42-1q-.05-.4-.11-.79l7.54-1 .12.88zm-163.22-.64l-7.54-1 .12-.88 7.53 1.11zm163-1l-.12-.8 7.52-1.18.13.87zm-162.76-.64l-7.52-1.07.14-.87 7.51 1.25zm162.51-1l-.14-.8 7.49-1.34.15.87zm-162.24-.64l-7.5-1.33.16-.87 7.48 1.39zm162-1c0-.26-.1-.52-.15-.79l7.46-1.5.17.87zM219.23 164l-7.47-1.47.18-.87 7.45 1.55zm161.35-1l-.17-.78 7.44-1.63.19.87zm-161-.63l-7.44-1.62.19-.87 7.42 1.71zm160.67-.95l-.18-.78 7.4-1.79q.11.43.2.87zm-160.31-.63l-7.41-1.76.21-.86 7.39 1.84zm159.93-.94l-.2-.78 7.37-1.92.22.85zm-159.54-.63l-7.37-1.92.22-.85 7.35 2zm159.13-.94l-.21-.77 7.32-2.08.24.86zm-158.71-.62l-7.33-2.06.24-.84L221 157zm158.25-.85l-.23-.78 7.29-2.21.25.84zm-157.82-.63l-7.29-2.2.26-.85 7.27 2.27zm157.35-.92l-.24-.76 7.24-2.36.27.86zm-156.87-.62l-7.24-2.34.28-.84 7.22 2.42zm156.34-.92l-.26-.76 7.19-2.5.29.84zm-155.85-.62l-7.15-2.49.3-.84 7.17 2.57zm155.32-.9l-.28-.76 7.14-2.63.3.83zm-154.77-.63l-7.14-2.63.31-.83 7.12 2.7zm154.21-.89l-.29-.74 7.08-2.79.32.84zm-153.63-.62l-7.09-2.78.33-.82 7.06 2.84zm153.05-.87l-.31-.75 7-2.92.33.8zm-152.44-.64l-7-2.91.34-.82 7 3zm151.83-.85l-.32-.74 7-3.07.35.81zm-151.19-.64l-7-3.06.36-.8 6.94 3.12zm150.54-.84l-.33-.73 6.91-3.2.37.8zm-149.88-.64l-6.91-3.19.38-.8 6.88 3.26zm149.2-.82l-.35-.73 6.84-3.34.38.79zm-148.51-.65l-6.85-3.32.39-.8 6.81 3.4zm147.8-.8l-.36-.72 6.77-3.47.4.79zm-147.08-.65l-6.78-3.46.41-.79L227 142zm146.4-.78l-.38-.71 6.71-3.6.41.78zm-145.6-.65l-6.71-3.59.42-.78 6.67 3.66zm144.84-.77l-.39-.7 6.63-3.74.43.77zm-144.06-.65l-6.64-3.73.43-.76 6.6 3.79zm143.27-.76l-.41-.7 6.57-3.85.44.76zM229 138.41l-6.57-3.85.45-.77 6.52 3.92zm141.64-.73l-.42-.7 6.49-4 .45.74zM229.79 137l-6.49-4 .46-.75 6.45 4zm140-.72l-.43-.68 6.4-4.11.47.74zm-139.1-.65l-6.41-4.11.48-.74 6.34 4.22zm138.23-.71l-.45-.67 6.32-4.24.49.73zm-137.34-.65l-6.33-4.23.5-.73 6.28 4.3zM368 133.6l-.46-.66 6.24-4.36.5.73zm-135.55-.6l-6.24-4.36.51-.72 6.2 4.42zm134.61-.68l-.47-.65 6.15-4.49.52.71zm-133.67-.64l-6.15-4.48.52-.71 6.11 4.53zm132.72-.68l-.48-.65 6.06-4.6.53.7zm-131.76-.63l-6.06-4.6.53-.7 6 4.65zm130.78-.66l-.5-.64 6-4.71.54.69zm-129.79-.63l-6-4.72.55-.69 5.93 4.78zm128.79-.64l-.52-.63 5.89-4.83.55.68zm-127.77-.62l-5.88-4.82.56-.68 5.83 4.89zm126.74-.63l-.52-.61 5.78-5 .57.68zm-125.71-.6l-5.78-4.95.58-.67 5.73 5zm124.66-.62l-.53-.6 5.68-5.07.59.67zm-123.59-.6l-5.69-5.06.59-.65 5.64 5.11zm122.54-.63l-.54-.59L366 119l.6.65zm-121.43-.59L234 119l.6-.65 5.54 5.22zm120.33-.6l-.56-.59 5.49-5.27.6.63zM240.66 123l-5.49-5.28.62-.63 5.43 5.33zm118.11-.58l-.57-.58 5.38-5.38.62.63zm-117-.57l-5.38-5.38.63-.62 5.33 5.43zm115.83-.57l-.58-.56 5.28-5.49.63.61zm-114.68-.56l-5.28-5.49.64-.61 5.22 5.54zm113.52-.56l-.59-.55L361 114l.65.6zm-112.34-.55L239 114l.65-.6 5.11 5.64zm111.18-.61l-.6-.54 5.06-5.69.66.59zm-110-.53l-5.06-5.69.66-.58 5 5.74zm108.79-.47l-.61-.53 4.94-5.79.67.58zm-107.53-.52l-4.95-5.79.67-.57 4.89 5.83zm106.3-.53l-.62-.51 4.78-5.94.68.57zm-105.06-.51l-4.83-5.88.68-.56 4.78 5.93zm103.81-.52l-.63-.51 4.72-6 .69.55zM249 115.38l-4.71-6 .69-.54 4.66 6zm101.29-.51l-.65-.5 4.6-6.06.7.53zm-100-.48l-4.6-6.06.71-.53 4.54 6.11zm98.71-.49l-.66-.48 4.48-6.15.71.52zm-97.43-.47l-4.48-6.16.71-.51 4.43 6.19zm96.12-.48l-.67-.47 4.36-6.24.72.5zm-94.8-.45l-4.36-6.24.73-.5 4.3 6.28zm93.47-.47l-.67-.45 4.23-6.33.73.49zm-92.14-.43l-4.22-6.34.73-.48 4.18 6.36zm90.79-.47l-.68-.44 4.11-6.41.75.48zm-89.44-.42l-4.11-6.41.75-.47 4 6.45zm88.08-.45l-.69-.43 4-6.48.75.46zm-86.72-.4l-4-6.49.75-.46 3.92 6.52zm85.34-.44l-.7-.41 3.85-6.57.76.45zm-84-.39l-3.86-6.56.76-.44 3.79 6.6zm82.56-.43l-.71-.4 3.73-6.64.77.44zm-81.16-.37l-3.67-6.66.77-.42 3.67 6.67zm79.75-.42l-.71-.38 3.59-6.71.78.42zm-78.33-.35l-3.6-6.71.78-.41 3.52 6.75zm76.9-.41l-.71-.37 3.46-6.78.79.41zm-75.47-.33l-3.46-6.78.79-.4 3.39 6.82zm74-.4l-.73-.36 3.32-6.85.89.36zM264 106l-3.33-6.85.8-.38 3.26 6.88zm71.15-.39l-.74-.35 3.19-6.91.8.37zm-69.69-.3l-3.19-6.91.8-.36 3.13 6.94zm68.21-.38l-.74-.33 3-7 .89.4zm-66.74-.28l-3.06-7 .81-.35 3 7zm65.26-.36l-.75-.31 2.92-7 .81.34zm-63.76-.29l-2.93-7 .82-.34 2.85 7.06zm62.28-.35l-.75-.3 2.77-7.09.83.33zm-60.79-.25l-2.78-7.09.86-.31 2.72 7.11zm59.28-.4l-.76-.29 2.63-7.14.83.31zm-57.77-.24l-2.64-7.14.83-.3 2.57 7.17zm56.25-.32l-.77-.27L329.4 95l.84.29zm-54.68-.18l-2.5-7.19.84-.29 2.43 7.21zm53.2-.31l-.78-.26 2.34-7.24.84.28zm-51.67-.21l-2.35-7.24.83-.27 2.3 7.26zm50.11-.29l-.77-.24 2.2-7.29.85.26zm-48.64-.19L273.82 94l.84-.25 2.15 7.3zm47-.28l-.77-.22 2.05-7.33.85.24zm-45.47-.18l-2.07-7.33.84-.23 2 7.34zm43.92-.26l-.78-.2 1.9-7.37.86.23zm-42.36-.17L277.21 93l.85-.22 1.86 7.38zm40.78-.24l-.77-.19 1.76-7.41.87.21zM280.7 100l-1.78-7.4.86-.2 1.7 7.42zm37.65-.22l-.78-.17 1.61-7.44.87.19zm-36.08-.14l-1.63-7.44.87-.19 1.55 7.45zm34.5-.2l-.77-.18 1.47-7.47.86.21zm-32.91-.13l-1.48-7.47.87-.17 1.4 7.48zm31.33-.18l-.79-.13 1.33-7.5.87.16zM285.45 99l-1.34-7.49.87-.15 1.26 7.51zm28.15-.16l-.79-.13 1.19-7.53.87.14zm-26.6-.11l-1.18-7.52.87-.13 1.12 7.53zm25-.15l-.8-.11 1-7.54.91.07zm-23.36-.09l-1-7.54.87-.12 1 7.55zm21.77-.13l-.81-.1.88-7.56.87.11zm-20.16-.08l-.89-7.56.88-.1.76 7.57zm18.56-.11l-.81-.07.72-7.58.88.09zm-16.95-.07l-.75-7.58.88-.08.66 7.56zm15.32-.1l-.8-.07.62-7.56.89.07zm-13.72 0l-.59-7.59.88-.06.52 7.59zm12.11-.07h-.8l.43-7.6.88.05zm-10.5 0l-.45-7.6h.88l.37 7.6zm8.89-.05h-.81l.29-7.61h.88zm-7.27 0l-.3-7.61h.89l.21 7.61zm5.66 0h-.81l.13-7.61h.88zm-4 0l-.16-7.61h.81l.08 7.61h-.78zm2.43 0h-.81V90.1h.88z" transform="translate(-183.88 -60.43)"/></g><path class="cls-3" d="M276 314.53a1.33 1.33 0 001.23-.83h.83a2.13 2.13 0 110-1h-.83a1.33 1.33 0 10-1.23 1.83zm145.67-87.47v.83a2.13 2.13 0 111 0v-.83a1.33 1.33 0 10-.96 0z" transform="translate(-183.88 -60.43)"/></g><g id="Layer_2" data-name="Layer 2"><path d="M324.09 221.75l2.51 4.33a53.57 53.57 0 0026.63-46.22v-.17h-5v.21a48.54 48.54 0 01-24.14 41.85z" transform="translate(-183.88 -60.43)" style="mix-blend-mode:screen" fill="url(#linear-gradient)"/><path d="M299.89 131.54a48.35 48.35 0 0124 6.38l2.49-4.34a53.41 53.41 0 00-53.32.17l2.52 4.32a48.31 48.31 0 0124.31-6.53z" transform="translate(-183.88 -60.43)" style="mix-blend-mode:screen" fill="url(#linear-gradient-2)"/><path d="M273.28 226.13l2.5-4.33a48.53 48.53 0 01-24.23-41.8h-5a53.55 53.55 0 0026.73 46.13z" transform="translate(-183.88 -60.43)" style="mix-blend-mode:screen" fill="url(#linear-gradient-3)"/><path class="cls-3" d="M299.89 114.73a65.14 65.14 0 00-35.44 119.81 64.56 64.56 0 0029.36 10.22q3 .28 6.08.29a65.16 65.16 0 100-130.32zm0 128.32a63.72 63.72 0 01-8.34-.55 63.18 63.18 0 118.34.55z" transform="translate(-183.88 -60.43)"/><path class="cls-7" d="M299.89 122.3a57.59 57.59 0 00-18.17 112.24c.89.3 1.78.57 2.69.82a57.59 57.59 0 1015.48-113.06zm0 114.43a56.84 56.84 0 1156.84-56.84 56.91 56.91 0 01-56.84 56.84z" transform="translate(-183.88 -60.43)"/><path class="cls-3" d="M408.67 133.35a118.93 118.93 0 00-174.94-53.47v5.22A114.59 114.59 0 01404.67 135q1.44 3.42 2.62 6.88h4.58q-1.42-4.3-3.2-8.53zM405 222.53a114.41 114.41 0 01-108.18 71.31l-.73.73c1 0 2 .05 3 .05a114.65 114.65 0 0044.4-9l1.39 3.31a118 118 0 0063.88-64.7q.36-.87.69-1.74H405zm-220.4-36.22h-.74a114.49 114.49 0 008.74 37.54 112 112 0 005.14 10.69h.85a114.79 114.79 0 01-13.97-48.23zM299.89 132.46a47.43 47.43 0 1047.43 47.43 47.48 47.48 0 00-47.43-47.43zm0 94a46.6 46.6 0 1146.6-46.6 46.66 46.66 0 01-46.6 46.63zM309.53 259.66a81.52 81.52 0 01-9.64.58 80.29 80.29 0 01-73.68-48.38l3.67-1.59a76.32 76.32 0 0070 46 77.66 77.66 0 009.16-.55z" transform="translate(-183.88 -60.43)"/><g class="cls-8"><circle class="cls-7" cx="116.39" cy="27.37" r=".83"/><circle class="cls-7" cx="295.45" cy="87.92" r=".83" transform="rotate(-3 -950.602 3568.622)"/><circle class="cls-7" cx="290.63" cy="88.3" r=".83" transform="rotate(-6 -377.78 1812.43)"/><circle class="cls-7" cx="285.85" cy="88.92" r=".83" transform="rotate(-9 -190.017 1226.907)"/><circle class="cls-7" cx="281.1" cy="89.79" r=".83" transform="rotate(-12 -98.348 934.343)"/><circle class="cls-7" cx="276.41" cy="90.92" r=".83" transform="rotate(-15 -45.065 759.042)"/><circle class="cls-7" cx="271.78" cy="92.28" r=".83" transform="rotate(-18 -10.931 642.537)"/><circle class="cls-7" cx="267.22" cy="93.89" r=".83" transform="rotate(-21 12.256 559.743)"/><circle class="cls-7" cx="262.76" cy="95.73" r=".83" transform="rotate(-24 28.645 498.053)"/><circle class="cls-7" cx="258.4" cy="97.8" r=".83" transform="rotate(-27 40.644 450.56)"/><circle class="cls-7" cx="254" cy="100.1" r=".83" transform="rotate(-30 49.295 413.008)"/><circle class="cls-7" cx="249.88" cy="102.62" r=".83" transform="rotate(-33 55.957 382.781)"/><circle class="cls-7" cx="245.9" cy="105.35" r=".83" transform="rotate(-36 60.958 358.093)"/><circle class="cls-7" cx="242.06" cy="108.28" r=".83" transform="rotate(-39 64.79 337.695)"/><circle class="cls-7" cx="238.39" cy="111.41" r=".83" transform="rotate(-42 67.722 320.707)"/><circle class="cls-7" cx="234.88" cy="114.73" r=".83" transform="rotate(-45 70.009 306.481)"/><circle class="cls-7" cx="231.72" cy="118.23" r=".83" transform="rotate(-48 71.917 294.512)"/><circle class="cls-7" cx="228.58" cy="121.89" r=".83" transform="rotate(-51 73.3 284.439)"/><circle class="cls-7" cx="225.64" cy="125.72" r=".83" transform="rotate(-54 74.398 275.95)"/><circle class="cls-7" cx="208.3" cy="189.53" r=".83" transform="rotate(-6 -460.282 1913.532)"/><circle class="cls-7" cx="208.92" cy="194.32" r=".83" transform="rotate(-9 -266.843 1332.345)"/><circle class="cls-7" cx="209.79" cy="199.06" r=".83" transform="rotate(-12 -169.662 1043.58)"/><circle class="cls-7" cx="210.92" cy="203.76" r=".83" transform="rotate(-15 -110.504 871.94)"/><circle class="cls-7" cx="212.28" cy="208.39" r=".83" transform="rotate(-18 -70.392 758.68)"/><circle class="cls-7" cx="213.89" cy="212.94" r=".83" transform="rotate(-21 -41.086 678.775)"/><circle class="cls-7" cx="215.73" cy="217.4" r=".83" transform="rotate(-24 -18.341 619.748)"/><circle class="cls-7" cx="217.8" cy="221.76" r=".83" transform="rotate(-27 -.01 574.48)"/><circle class="cls-7" cx="220.1" cy="226" r=".83" transform="rotate(-30 15.395 538.925)"/><circle class="cls-7" cx="222.62" cy="230.12" r=".83" transform="rotate(-33 28.687 510.298)"/><path class="cls-7" d="M300.88 272.2a.83.83 0 01-.83.83.83.83 0 010-1.66.83.83 0 01.83.83z" transform="translate(-183.88 -60.43)"/><circle class="cls-7" cx="304.88" cy="272.08" r=".83" transform="rotate(-3 -941.091 3752.683)"/><circle class="cls-7" cx="309.69" cy="271.7" r=".83" transform="rotate(-6 -358.692 1995.868)"/><circle class="cls-7" cx="314.48" cy="271.08" r=".83" transform="matrix(.99 -.16 .16 .99 -222.41 -7.9)"/><circle class="cls-7" cx="319.23" cy="270.21" r=".83" transform="rotate(-12 -60.215 1114.724)"/><circle class="cls-7" cx="323.92" cy="269.08" r=".83" transform="rotate(-15 2.368 932.927)"/><circle class="cls-7" cx="328.55" cy="267.72" r=".83" transform="rotate(-18 45.838 817.992)"/><circle class="cls-7" cx="333.1" cy="266.11" r=".83" transform="rotate(-21 78.17 731.963)"/><circle class="cls-7" cx="337.56" cy="264.27" r=".83" transform="rotate(-24 103.525 666.623)"/><circle class="cls-7" cx="341.92" cy="262.2" r=".83" transform="rotate(-27 124.174 614.956)"/><circle class="cls-7" cx="346.17" cy="259.9" r=".83" transform="rotate(-30 141.44 572.798)"/><circle class="cls-7" cx="350.29" cy="257.38" r=".83" transform="rotate(-33 156.354 537.557)"/><circle class="cls-7" cx="354.27" cy="254.65" r=".83" transform="rotate(-36 169.37 507.408)"/><circle class="cls-7" cx="358.1" cy="251.72" r=".83" transform="rotate(-39 180.868 481.15)"/><circle class="cls-7" cx="361.78" cy="248.59" r=".83" transform="rotate(-42 191.156 457.892)"/><circle class="cls-7" cx="365.28" cy="245.27" r=".83" transform="rotate(-45 200.397 437.013)"/><circle class="cls-7" cx="368.61" cy="241.77" r=".83" transform="rotate(-48 209.352 419.846)"/><circle class="cls-7" cx="371.75" cy="238.11" r=".83" transform="rotate(-51 216.47 400.647)"/><circle class="cls-7" cx="374.69" cy="234.28" r=".83" transform="rotate(-54 223.457 384.507)"/><circle class="cls-7" cx="377.43" cy="230.31" r=".83" transform="rotate(-57 229.827 369.423)"/><circle class="cls-7" cx="379.96" cy="226.19" r=".83" transform="rotate(-60 235.676 355.218)"/><circle class="cls-7" cx="382.26" cy="221.95" r=".83" transform="rotate(-63 241.007 341.773)"/><circle class="cls-7" cx="384.35" cy="217.6" r=".83" transform="rotate(-66 245.898 328.962)"/><circle class="cls-7" cx="386.2" cy="213.14" r=".83" transform="rotate(-69 250.297 316.704)"/><circle class="cls-7" cx="387.82" cy="208.59" r=".83" transform="rotate(-72 254.289 304.923)"/><circle class="cls-7" cx="389.19" cy="203.97" r=".83" transform="rotate(-75 257.88 293.569)"/><circle class="cls-7" cx="390.32" cy="199.28" r=".83" transform="rotate(-78 261.084 282.597)"/><circle class="cls-7" cx="391.21" cy="194.53" r=".83" transform="rotate(-81 263.893 271.96)"/><circle class="cls-7" cx="391.85" cy="189.75" r=".83" transform="rotate(-84 266.343 261.646)"/><circle class="cls-7" cx="392.23" cy="184.93" r=".83" transform="rotate(-87 268.44 251.606)"/><circle class="cls-7" cx="208.48" cy="119.68" r=".83"/><circle class="cls-7" cx="392.24" cy="175.28" r=".83" transform="rotate(-3 -853.346 3656.196)"/><circle class="cls-7" cx="391.87" cy="170.47" r=".83" transform="rotate(-6 -276.567 1894.65)"/><circle class="cls-7" cx="391.24" cy="165.68" r=".83" transform="rotate(-9 -84.638 1303.664)"/><circle class="cls-7" cx="390.37" cy="160.94" r=".83" transform="rotate(-12 11.052 1005.482)"/><circle class="cls-7" cx="389.25" cy="156.24" r=".83" transform="rotate(-15 67.81 824.362)"/><circle class="cls-7" cx="387.88" cy="151.61" r=".83" transform="rotate(-18 105.162 701.893)"/><circle class="cls-7" cx="386.28" cy="147.06" r=".83" transform="rotate(-21 131.317 612.923)"/><circle class="cls-7" cx="384.44" cy="142.6" r=".83" transform="rotate(-24 150.389 544.927)"/><circle class="cls-7" cx="382.36" cy="138.24" r=".83" transform="rotate(-27 164.552 490.99)"/><circle class="cls-7" cx="380.06" cy="134" r=".83" transform="rotate(-30 175.352 446.905)"/><circle class="cls-7" cx="377.55" cy="129.88" r=".83" transform="rotate(-33 183.585 410.047)"/><circle class="cls-7" cx="374.82" cy="125.9" r=".83" transform="rotate(-36 189.874 378.646)"/><circle class="cls-7" cx="371.88" cy="122.06" r=".83" transform="rotate(-39 194.592 351.483)"/><circle class="cls-7" cx="368.75" cy="118.39" r=".83" transform="rotate(-42 198.11 327.687)"/><circle class="cls-7" cx="365.43" cy="114.88" r=".83" transform="rotate(-45 200.533 306.637)"/><circle class="cls-7" cx="361.94" cy="111.56" r=".83" transform="rotate(-48 202.13 287.842)"/><circle class="cls-7" cx="358.27" cy="108.42" r=".83" transform="rotate(-51 202.973 270.963)"/><circle class="cls-7" cx="354.44" cy="105.47" r=".83" transform="rotate(-54 203.206 255.699)"/><circle class="cls-7" cx="350.47" cy="102.74" r=".83" transform="rotate(-57 202.867 241.856)"/><circle class="cls-7" cx="346.36" cy="100.21" r=".83" transform="rotate(-60 202.087 229.235)"/><circle class="cls-7" cx="342.12" cy="97.9" r=".83" transform="rotate(-63 200.855 217.719)"/><circle class="cls-7" cx="337.76" cy="95.82" r=".83" transform="rotate(-66 199.286 207.181)"/><circle class="cls-7" cx="333.31" cy="93.96" r=".83" transform="rotate(-69 197.406 197.521)"/><circle class="cls-7" cx="328.76" cy="92.35" r=".83" transform="rotate(-72 195.233 188.677)"/><circle class="cls-7" cx="324.13" cy="90.97" r=".83" transform="rotate(-75 192.82 180.577)"/><circle class="cls-7" cx="319.44" cy="89.84" r=".83" transform="rotate(-78 190.183 173.166)"/><circle class="cls-7" cx="314.69" cy="88.95" r=".83" transform="rotate(-81 187.38 166.386)"/><circle class="cls-7" cx="309.91" cy="88.32" r=".83" transform="rotate(-84 184.413 160.214)"/><circle class="cls-7" cx="305.1" cy="87.93" r=".83" transform="rotate(-87 181.329 154.6)"/></g><circle class="cls-7" cx="230.73" cy="190.89" r=".63" transform="rotate(-9 -245.091 1328.88)"/><circle class="cls-7" cx="231.4" cy="194.5" r=".63" transform="rotate(-12 -148.02 1039.025)"/><circle class="cls-7" cx="232.25" cy="198.07" r=".63" transform="rotate(-15 -89.162 866.25)"/><circle class="cls-7" cx="233.29" cy="201.59" r=".63" transform="rotate(-18 -49.35 751.883)"/><circle class="cls-7" cx="234.51" cy="205.05" r=".63" transform="rotate(-21 -20.43 670.911)"/><circle class="cls-7" cx="235.91" cy="208.44" r=".63" transform="rotate(-24 1.855 610.79)"/><circle class="cls-7" cx="237.49" cy="211.76" r=".63" transform="rotate(-26.99 19.698 564.667)"/><circle class="cls-7" cx="239.23" cy="214.99" r=".63" transform="matrix(.87 -.5 .5 .87 -259.32 87.99)"/><circle class="cls-7" cx="241.15" cy="218.12" r=".63" transform="rotate(-33 47.226 498.291)"/><circle class="cls-7" cx="243.22" cy="221.15" r=".63" transform="rotate(-36 58.291 473.902)"/><circle class="cls-7" cx="245.46" cy="224.06" r=".63" transform="rotate(-39 68.184 453.482)"/><circle class="cls-7" cx="247.84" cy="226.86" r=".63" transform="rotate(-42 77.164 436.148)"/><circle class="cls-7" cx="250.36" cy="229.52" r=".63" transform="rotate(-45 85.477 421.274)"/><circle class="cls-7" cx="253.02" cy="232.05" r=".63" transform="rotate(-48.01 93.197 408.28)"/><circle class="cls-7" cx="255.81" cy="234.44" r=".63" transform="rotate(-51 100.54 396.989)"/><circle class="cls-7" cx="258.72" cy="236.68" r=".63" transform="rotate(-54 107.468 386.902)"/><circle class="cls-7" cx="261.74" cy="238.76" r=".63" transform="rotate(-57 114.143 377.88)"/><circle class="cls-7" cx="264.87" cy="240.68" r=".63" transform="matrix(.5 -.87 .87 .5 -259.88 289.29)"/><circle class="cls-7" cx="268.09" cy="242.44" r=".63" transform="rotate(-63 126.843 362.25)"/><circle class="cls-7" cx="271.4" cy="244.02" r=".63" transform="rotate(-66 132.946 355.387)"/><circle class="cls-7" cx="274.79" cy="245.43" r=".63" transform="rotate(-69 138.9 348.993)"/><circle class="cls-7" cx="278.25" cy="246.66" r=".63" transform="rotate(-72 144.933 343.383)"/><circle class="cls-7" cx="281.77" cy="247.71" r=".63" transform="rotate(-75 150.459 337.31)"/><circle class="cls-7" cx="285.34" cy="248.57" r=".63" transform="rotate(-78 156.093 331.892)"/><circle class="cls-7" cx="288.95" cy="249.24" r=".63" transform="rotate(-81 161.655 326.679)"/><circle class="cls-7" cx="292.59" cy="249.73" r=".63" transform="rotate(-84 167.094 321.62)"/><circle class="cls-7" cx="296.25" cy="250.02" r=".63" transform="rotate(-87 172.472 316.69)"/><circle class="cls-7" cx="116.04" cy="189.69" r=".63"/><circle class="cls-7" cx="303.59" cy="250.03" r=".63" transform="rotate(-3 -942.24 3730.87)"/><circle class="cls-7" cx="307.25" cy="249.74" r=".63" transform="rotate(-6 -361.088 1974.026)"/><circle class="cls-7" cx="310.89" cy="249.27" r=".63" transform="matrix(.99 -.16 .16 .99 -219.05 -8.72)"/><circle class="cls-7" cx="314.5" cy="248.6" r=".63" transform="rotate(-12 -64.918 1093.115)"/><circle class="cls-7" cx="318.07" cy="247.75" r=".63" transform="rotate(-15 -3.39 915.87)"/><circle class="cls-7" cx="321.59" cy="246.71" r=".63" transform="rotate(-18 38.874 796.987)"/><circle class="cls-7" cx="325.05" cy="245.49" r=".63" transform="rotate(-21 70.129 711.358)"/><circle class="cls-7" cx="328.44" cy="244.09" r=".63" transform="rotate(-24 94.391 646.44)"/><circle class="cls-7" cx="331.76" cy="242.51" r=".63" transform="rotate(-27 113.948 595.254)"/><circle class="cls-7" cx="334.99" cy="240.77" r=".63" transform="matrix(.87 -.5 .5 .87 -259.38 139.32)"/><circle class="cls-7" cx="338.12" cy="238.85" r=".63" transform="rotate(-33 144.214 519.034)"/><circle class="cls-7" cx="341.15" cy="236.78" r=".63" transform="rotate(-36 156.167 489.507)"/><circle class="cls-7" cx="344.06" cy="234.54" r=".63" transform="rotate(-39 166.804 463.966)"/><circle class="cls-7" cx="346.86" cy="232.16" r=".63" transform="rotate(-42 176.214 441.455)"/><circle class="cls-7" cx="349.52" cy="229.64" r=".63" transform="rotate(-45 184.636 421.391)"/><circle class="cls-7" cx="352.05" cy="226.98" r=".63" transform="rotate(-48 192.239 403.267)"/><circle class="cls-7" cx="354.44" cy="224.19" r=".63" transform="rotate(-51 199.146 386.735)"/><circle class="cls-7" cx="356.68" cy="221.28" r=".63" transform="rotate(-54 205.455 371.514)"/><circle class="cls-7" cx="358.76" cy="218.26" r=".63" transform="rotate(-57.3 209.099 356.863)"/><circle class="cls-7" cx="360.68" cy="215.13" r=".63" transform="matrix(.5 -.87 .87 .5 -189.85 359.49)"/><circle class="cls-7" cx="362.44" cy="211.91" r=".63" transform="rotate(-63 221.204 331.726)"/><circle class="cls-7" cx="364.02" cy="208.6" r=".63" transform="rotate(-66 225.574 319.956)"/><circle class="cls-7" cx="365.43" cy="205.21" r=".63" transform="rotate(-69 229.545 308.761)"/><circle class="cls-7" cx="366.66" cy="201.75" r=".63" transform="rotate(-72 233.114 298.076)"/><circle class="cls-7" cx="367.71" cy="198.23" r=".63" transform="rotate(-75 236.393 287.827)"/><circle class="cls-7" cx="368.57" cy="194.66" r=".63" transform="rotate(-78 239.313 277.982)"/><circle class="cls-7" cx="369.24" cy="191.05" r=".63" transform="rotate(-81 241.924 268.484)"/><g class="cls-8"><path class="cls-7" d="M45.12 91.84l4.66 1.81.17-.45-4.64-1.84-.19.48z"/><path class="cls-7" d="M348.21 128l.7.66 3.46-3.61-.75-.71zM346.78 126.65l.72.64 3.36-3.7-.77-.69zM349.61 129.29l.68.68 3.55-3.52-.73-.73zM342.29 123l.77.59 3-4-.82-.62zM351 130.66l.66.69 3.65-3.42-.71-.75zM357.18 138l.56.78 4.07-2.91-.61-.84zM345.32 125.4l.74.63 3.25-3.8-.78-.66zM343.82 124.18l.75.61 3.15-3.88-.8-.65zM358.3 139.59l.54.79 4.15-2.79-.58-.85zM352.29 132.06l.65.72 3.73-3.33-.69-.76zM356 136.49l.59.77 4-3-.63-.82zM359.38 141.19l.52.8 4.22-2.68-.56-.87zM353.57 133.5l.63.74L358 131l-.67-.78zM360.42 142.81l.5.81 4.29-2.56-.54-.89zM354.81 135l.61.75 3.91-3.12-.65-.8zM340.73 121.86l.79.56 2.94-4-.84-.6zM321.83 112.31l.92.31 1.63-4.73-1-.33zM323.66 112.94l.91.33 1.76-4.68-1-.36zM314.37 110.31l.94.2 1.1-4.88-1-.22zM318.12 111.21l.93.26 1.36-4.81-1-.28zM325.47 113.62l.9.36 1.88-4.63-1-.38zM316.25 110.73l.94.23 1.23-4.85-1-.25zM312.47 109.94l.94.18 1-4.91-1-.19zM339.14 120.77l.8.54 2.84-4.12-.86-.58zM327.26 114.35l.88.38 2-4.58-1-.41zM337.52 119.71l.81.52 2.72-4.2-.87-.56zM334.2 117.74l.84.48 2.5-4.33-.9-.51zM335.88 118.71l.82.5 2.62-4.26-.89-.53zM329 115.13l.88.41L332 111l-.94-.43zM332.5 116.82l.85.45 2.38-4.4-.92-.49zM330.78 116l.87.43 2.25-4.46-.93-.46zM320 111.73l.93.28 1.49-4.77-1-.3zM307.23 104.16l-.48 5 1 .1.56-5zM305.18 104l-.35 5 1 .07.42-5zM309.29 104.39l-.62 5 1 .13.7-5zM361.4 144.46l.48.84 4.36-2.46-.51-.89zM302.9 108.87h1l.28-5-1-.05zM312.35 104.84l-1-.16-.76 4.94.95.15zM370.84 175.5q0 .48.05 1l5-.24c0-.34 0-.69-.06-1zM370.93 177.43v1l5-.1v-1zM290.76 104.36l.6 5 1-.11-.53-5zM294.24 109l-.4-5-1 .09.47 5zM286.69 105l.87 4.92 1-.16-.81-4.93zM290.41 109.44l-.68-5-1 .14.74 4.95zM299 103.81l.06 5h1v-5h-1zM294.87 104l.33 5 1-.06-.26-5zM370.69 173.58q0 .48.08 1l5-.38q0-.51-.09-1zM298.08 108.83l-.12-5h-1l.2 5zM301 103.82l-.07 5h1l.15-5zM365.66 153.07l.34.93 4.64-1.85-.38-.95zM364.91 151.31l.38.88 4.6-2-.41-.94zM366.37 154.86l.34.9 4.69-1.76-.36-1zM362.35 146.14l.45.86 4.42-2.34-.49-.91zM367 156.67l.31.91 4.74-1.6-.33-1zM363.25 147.84l.43.85 4.49-2.21-.47-.93zM364.1 149.56l.41.88 4.54-2.1-.43-.93zM368.21 160.34c.09.31.17.61.26.92l4.83-1.31-.28-1zM369.94 167.85q.08.48.16 1l4.9-.85q-.08-.51-.17-1zM370.25 169.75q.07.47.13 1l5-.65q-.07-.51-.14-1zM369.58 166q.1.47.18.95l4.91-.92q-.1-.51-.2-1zM367.64 158.5l.29.92 4.79-1.45-.31-1zM369.18 164.07q.11.47.21.94l4.89-1.05q-.11-.51-.23-1zM370.5 171.67q.06.48.1 1l5-.51c0-.34-.07-.69-.11-1zM368.72 162.2q.12.46.23.92l4.86-1.17c-.08-.34-.17-.68-.25-1zM259.9 115.2l2.63 4.25.83-.5-2.58-4.29zM258.16 116.31l2.74 4.18.81-.53-2.71-4.21zM267.13 111.24l2.16 4.51.87-.41-2.09-4.54zM261.67 114.14l2.52 4.32.81-.46-2.45-4.36zM265.29 112.16l2.28 4.45.86-.43-2.22-4.48zM263.47 113.12l2.39 4.39.85-.46-2.34-4.42zM256.45 117.46l2.86 4.1.8-.55-2.81-4.14zM253.13 119.91l3.07 3.94.77-.59-3-4zM254.77 118.66l3 4 .78-.57-2.91-4.06zM272.82 108.8l1.79 4.67.9-.33-1.71-4.7zM280.66 106.29l1.27 4.84.93-.24-1.2-4.85zM284.67 105.35l1 4.9.95-.19-.94-4.91zM278.68 106.83l1.4 4.8.93-.26-1.34-4.82zM282.66 105.79l1.13 4.87.94-.21-1.07-4.88zM274.75 108.09l1.65 4.72.91-.31-1.59-4.74zM269 110.38l2 4.57.88-.39-2-4.59zM270.9 109.57l1.91 4.62.89-.36-1.85-4.65zM251.51 121.2l3.18 3.86.75-.61-3.12-3.91zM276.7 107.44l1.53 4.76.92-.29-1.46-4.78zM233.15 143.36l4.38 2.4.47-.85-4.35-2.46zM235.24 139.78l4.25 2.64.52-.82-4.21-2.7zM234.17 141.56l4.32 2.52.49-.83-4.28-2.58zM236.36 138l4.18 2.75.54-.8-4.13-2.81zM249.94 122.53l3.28 3.77.73-.63-3.23-3.82zM229.58 150.83l4.62 1.91.38-.89-4.6-2zM231.26 147l4.51 2.16.43-.87-4.48-2.22zM230.39 148.93l4.57 2 .4-.88-4.54-2.05zM237.52 136.33l4.1 2.87.56-.79-4.06-2.92zM246.89 125.33l3.48 3.59.7-.67-3.44-3.63zM245.43 126.79l3.58 3.5.68-.68-3.52-3.55zM248.4 123.91l3.38 3.68.72-.65-3.33-3.73zM238.73 134.65l4 3 .58-.77-4-3zM244 128.28l3.67 3.4.66-.7-3.62-3.45zM240 133l3.93 3.09.6-.76-3.9-3.13zM241.28 131.4l3.85 3.19.62-.74-3.8-3.25zM242.62 129.82l3.76 3.3.64-.72-3.71-3.4zM232.18 145.19l4.45 2.28.45-.86-4.42-2.35z" transform="translate(-183.88 -60.43)"/><path class="cls-7" d="M192.1 119.46l-.01-.51-5 .03.01.48h5z"/></g><path class="cls-3" d="M299.89 132.46a47.43 47.43 0 1047.43 47.43 47.48 47.48 0 00-47.43-47.43zm0 94a46.6 46.6 0 1146.6-46.6 46.66 46.66 0 01-46.6 46.63z" transform="translate(-183.88 -60.43)"/></g></g></svg>