<svg preserveAspectRatio="none" id="央铋_1" data-name="央铋 1" xmlns="http://www.w3.org/2000/svg" xmlns:xlink="http://www.w3.org/1999/xlink" viewBox="0 0 50.71 50.59"><defs><style>.cls-1,.cls-33{fill:none;stroke:#464450;stroke-miterlimit:10;}.cls-1{stroke-width:1.2px;}.cls-2{fill:url(#铃琨眄_沭噤桢眚_2);}.cls-3{fill:#7ff;}.cls-4{opacity:0.5;}.cls-5{fill:#464450;}.cls-6{fill:url(#铃琨眄_沭噤桢眚_2-2);}.cls-7{fill:url(#铃琨眄_沭噤桢眚_2-3);}.cls-8{fill:url(#铃琨眄_沭噤桢眚_2-4);}.cls-9{fill:url(#铃琨眄_沭噤桢眚_2-5);}.cls-10{fill:url(#铃琨眄_沭噤桢眚_2-6);}.cls-11{fill:url(#铃琨眄_沭噤桢眚_2-7);}.cls-12{fill:url(#铃琨眄_沭噤桢眚_2-8);}.cls-13{fill:url(#铃琨眄_沭噤桢眚_2-9);}.cls-14{fill:url(#铃琨眄_沭噤桢眚_2-10);}.cls-15{fill:url(#铃琨眄_沭噤桢眚_2-11);}.cls-16{fill:url(#铃琨眄_沭噤桢眚_2-12);}.cls-17{fill:url(#铃琨眄_沭噤桢眚_2-13);}.cls-18{fill:url(#铃琨眄_沭噤桢眚_2-14);}.cls-19{fill:url(#铃琨眄_沭噤桢眚_2-15);}.cls-20{fill:url(#铃琨眄_沭噤桢眚_2-16);}.cls-21{fill:url(#铃琨眄_沭噤桢眚_2-17);}.cls-22{fill:url(#铃琨眄_沭噤桢眚_2-18);}.cls-23{fill:url(#铃琨眄_沭噤桢眚_2-19);}.cls-24{fill:url(#铃琨眄_沭噤桢眚_2-20);}.cls-25{fill:url(#铃琨眄_沭噤桢眚_2-21);}.cls-26{fill:url(#铃琨眄_沭噤桢眚_2-22);}.cls-27{fill:url(#铃琨眄_沭噤桢眚_2-23);}.cls-28{fill:url(#铃琨眄_沭噤桢眚_2-24);}.cls-29{fill:url(#铃琨眄_沭噤桢眚_2-25);}.cls-30{fill:url(#铃琨眄_沭噤桢眚_2-26);}.cls-31{fill:url(#铃琨眄_沭噤桢眚_2-27);}.cls-32{fill:url(#铃琨眄_沭噤桢眚_2-28);}.cls-33{stroke-width:0.4px;}.cls-34{fill:url(#铃琨眄_沭噤桢眚_28);}</style><linearGradient id="铃琨眄_沭噤桢眚_2" x1="96.85" y1="41.67" x2="130.9" y2="41.67" gradientUnits="userSpaceOnUse"><stop offset="0" stop-color="#009fff"/><stop offset="1" stop-color="#7ff"/></linearGradient><linearGradient id="铃琨眄_沭噤桢眚_2-2" x1="114.62" y1="21.96" x2="134.96" y2="42.3" xlink:href="#铃琨眄_沭噤桢眚_2"/><linearGradient id="铃琨眄_沭噤桢眚_2-3" x1="115.08" y1="21.51" x2="135.42" y2="41.85" xlink:href="#铃琨眄_沭噤桢眚_2"/><linearGradient id="铃琨眄_沭噤桢眚_2-4" x1="115.5" y1="21.09" x2="135.84" y2="41.43" xlink:href="#铃琨眄_沭噤桢眚_2"/><linearGradient id="铃琨眄_沭噤桢眚_2-5" x1="115.88" y1="20.7" x2="136.23" y2="41.04" xlink:href="#铃琨眄_沭噤桢眚_2"/><linearGradient id="铃琨眄_沭噤桢眚_2-6" x1="116.23" y1="20.35" x2="136.58" y2="40.69" xlink:href="#铃琨眄_沭噤桢眚_2"/><linearGradient id="铃琨眄_沭噤桢眚_2-7" x1="116.55" y1="20.04" x2="136.89" y2="40.38" xlink:href="#铃琨眄_沭噤桢眚_2"/><linearGradient id="铃琨眄_沭噤桢眚_2-8" x1="116.82" y1="19.76" x2="137.16" y2="40.1" xlink:href="#铃琨眄_沭噤桢眚_2"/><linearGradient id="铃琨眄_沭噤桢眚_2-9" x1="117.06" y1="19.53" x2="137.4" y2="39.87" xlink:href="#铃琨眄_沭噤桢眚_2"/><linearGradient id="铃琨眄_沭噤桢眚_2-10" x1="117.25" y1="19.33" x2="137.6" y2="39.67" xlink:href="#铃琨眄_沭噤桢眚_2"/><linearGradient id="铃琨眄_沭噤桢眚_2-11" x1="117.41" y1="19.17" x2="137.75" y2="39.51" xlink:href="#铃琨眄_沭噤桢眚_2"/><linearGradient id="铃琨眄_沭噤桢眚_2-12" x1="117.53" y1="19.06" x2="137.87" y2="39.4" xlink:href="#铃琨眄_沭噤桢眚_2"/><linearGradient id="铃琨眄_沭噤桢眚_2-13" x1="117.61" y1="18.98" x2="137.95" y2="39.32" xlink:href="#铃琨眄_沭噤桢眚_2"/><linearGradient id="铃琨眄_沭噤桢眚_2-14" x1="117.64" y1="18.94" x2="137.98" y2="39.29" xlink:href="#铃琨眄_沭噤桢眚_2"/><linearGradient id="铃琨眄_沭噤桢眚_2-15" x1="117.64" y1="18.95" x2="137.98" y2="39.29" xlink:href="#铃琨眄_沭噤桢眚_2"/><linearGradient id="铃琨眄_沭噤桢眚_2-16" x1="117.59" y1="19" x2="137.93" y2="39.34" xlink:href="#铃琨眄_沭噤桢眚_2"/><linearGradient id="铃琨眄_沭噤桢眚_2-17" x1="117.5" y1="19.08" x2="137.84" y2="39.42" xlink:href="#铃琨眄_沭噤桢眚_2"/><linearGradient id="铃琨眄_沭噤桢眚_2-18" x1="117.37" y1="19.21" x2="137.72" y2="39.55" xlink:href="#铃琨眄_沭噤桢眚_2"/><linearGradient id="铃琨眄_沭噤桢眚_2-19" x1="117.21" y1="19.38" x2="137.55" y2="39.72" xlink:href="#铃琨眄_沭噤桢眚_2"/><linearGradient id="铃琨眄_沭噤桢眚_2-20" x1="117" y1="19.58" x2="137.34" y2="39.93" xlink:href="#铃琨眄_沭噤桢眚_2"/><linearGradient id="铃琨眄_沭噤桢眚_2-21" x1="116.75" y1="19.83" x2="137.09" y2="40.17" xlink:href="#铃琨眄_沭噤桢眚_2"/><linearGradient id="铃琨眄_沭噤桢眚_2-22" x1="116.46" y1="20.12" x2="136.81" y2="40.46" xlink:href="#铃琨眄_沭噤桢眚_2"/><linearGradient id="铃琨眄_沭噤桢眚_2-23" x1="116.14" y1="20.44" x2="136.48" y2="40.79" xlink:href="#铃琨眄_沭噤桢眚_2"/><linearGradient id="铃琨眄_沭噤桢眚_2-24" x1="115.78" y1="20.8" x2="136.12" y2="41.15" xlink:href="#铃琨眄_沭噤桢眚_2"/><linearGradient id="铃琨眄_沭噤桢眚_2-25" x1="115.38" y1="21.2" x2="135.73" y2="41.54" xlink:href="#铃琨眄_沭噤桢眚_2"/><linearGradient id="铃琨眄_沭噤桢眚_2-26" x1="114.95" y1="21.63" x2="135.3" y2="41.97" xlink:href="#铃琨眄_沭噤桢眚_2"/><linearGradient id="铃琨眄_沭噤桢眚_2-27" x1="114.49" y1="22.09" x2="134.83" y2="42.43" xlink:href="#铃琨眄_沭噤桢眚_2"/><linearGradient id="铃琨眄_沭噤桢眚_2-28" x1="114" y1="22.59" x2="134.34" y2="42.93" xlink:href="#铃琨眄_沭噤桢眚_2"/><linearGradient id="铃琨眄_沭噤桢眚_28" x1="99.38" y1="41.67" x2="128.37" y2="41.67" gradientUnits="userSpaceOnUse"><stop offset="0" stop-color="#b9004c"/><stop offset="1" stop-color="#fc5f80"/></linearGradient></defs><title>circle101</title><circle class="cls-1" cx="25.36" cy="25.3" r="16.42"/><path class="cls-2" d="M113.88,58.69a17,17,0,1,1,0-34,0.6,0.6,0,0,1,0,1.2A15.82,15.82,0,1,0,129.7,41.67a0.6,0.6,0,1,1,1.2,0A17,17,0,0,1,113.88,58.69Z" transform="translate(-88.52 -16.37)"/><circle class="cls-3" cx="25.41" cy="4.4" r="0.43"/><circle class="cls-3" cx="25.41" cy="46.2" r="0.43"/><circle class="cls-3" cx="40.19" cy="40.07" r="0.43"/><circle class="cls-3" cx="10.64" cy="10.52" r="0.43"/><circle class="cls-3" cx="40.08" cy="10.52" r="0.43"/><circle class="cls-3" cx="10.51" cy="40.09" r="0.43"/><circle class="cls-3" cx="46.31" cy="25.3" r="0.43"/><circle class="cls-3" cx="4.41" cy="25.3" r="0.43"/><g class="cls-4"><circle class="cls-3" cx="121.8" cy="22.33" r="0.34" transform="translate(-33.31 110.36) rotate(-67.86)"/><circle class="cls-3" cx="106.05" cy="61.05" r="0.34" transform="translate(-78.98 119.9) rotate(-67.86)"/><circle class="cls-3" cx="122.05" cy="60.94" r="0.34" transform="translate(-68.92 134.65) rotate(-67.86)"/><circle class="cls-3" cx="105.81" cy="22.43" r="0.34" transform="translate(-43.36 95.61) rotate(-67.86)"/><circle class="cls-3" cx="133.08" cy="33.53" r="0.34" transform="translate(-36.64 127.79) rotate(-67.86)"/><circle class="cls-3" cx="94.54" cy="49.77" r="0.34" transform="translate(-75.71 102.22) rotate(-67.86)"/><circle class="cls-3" cx="133.28" cy="49.56" r="0.34" transform="translate(-51.37 137.97) rotate(-67.86)"/><circle class="cls-3" cx="94.47" cy="33.77" r="0.34" transform="translate(-60.93 92.18) rotate(-67.86)"/></g><path class="cls-5" d="M114.07,61.8a0.16,0.16,0,0,1-.12-0.18v-2a0.13,0.13,0,1,1,.23,0l0,2A0.16,0.16,0,0,1,114.07,61.8Zm-1-.2a0.13,0.13,0,1,1-.25,0l0.11-2a0.13,0.13,0,1,1,.23,0Zm2.09,0.16a0.16,0.16,0,0,1-.14-0.17l-0.11-2a0.13,0.13,0,1,1,.23,0l0.14,2A0.16,0.16,0,0,1,115.17,61.76ZM112,61.52a0.14,0.14,0,1,1-.26,0l0.23-2a0.13,0.13,0,1,1,.22,0Zm4.29,0.14a0.16,0.16,0,0,1-.15-0.16l-0.22-2a0.13,0.13,0,1,1,.23,0l0.25,2A0.16,0.16,0,0,1,116.28,61.66Zm-5.38-.28a0.14,0.14,0,1,1-.25,0l0.34-2a0.13,0.13,0,1,1,.22,0Zm6.49,0.12a0.16,0.16,0,0,1-.16-0.16l-0.34-2a0.13,0.13,0,1,1,.23,0l0.36,2A0.16,0.16,0,0,1,117.38,61.5Zm-7.57-.32a0.13,0.13,0,1,1-.25-0.05l0.45-2a0.13,0.13,0,1,1,.23,0Zm8.66,0.1a0.16,0.16,0,0,1-.16-0.15l-0.45-2a0.13,0.13,0,1,1,.23-0.05l0.46,2A0.16,0.16,0,0,1,118.47,61.28Zm-9.73-.36a0.14,0.14,0,1,1-.25-0.07l0.56-1.95a0.13,0.13,0,1,1,.22.06ZM119.55,61a0.16,0.16,0,0,1-.17-0.14l-0.55-2a0.13,0.13,0,1,1,.22-0.06l0.58,1.94A0.16,0.16,0,0,1,119.55,61Zm-11.87-.4a0.14,0.14,0,1,1-.24-0.08l0.67-1.91a0.13,0.13,0,1,1,.21.07Zm12.92,0.06a0.16,0.16,0,0,1-.18-0.13l-0.66-1.92a0.13,0.13,0,1,1,.22-0.08l0.69,1.91A0.16,0.16,0,0,1,120.61,60.66Zm-14-.44a0.14,0.14,0,1,1-.24-0.1l0.78-1.87a0.13,0.13,0,1,1,.21.09Zm15,0a0.16,0.16,0,0,1-.19-0.12l-0.77-1.88a0.13,0.13,0,1,1,.21-0.09L121.69,60A0.16,0.16,0,0,1,121.65,60.26Zm-16-.47a0.13,0.13,0,1,1-.23-0.11l0.87-1.83a0.13,0.13,0,1,1,.21.1Zm17,0a0.16,0.16,0,0,1-.19-0.11l-0.88-1.83a0.13,0.13,0,1,1,.21-0.1l0.9,1.82A0.16,0.16,0,0,1,122.66,59.8Zm-18-.51a0.13,0.13,0,1,1-.22-0.12l1-1.78a0.13,0.13,0,1,1,.21.11Zm19,0a0.16,0.16,0,0,1-.2-0.1l-1-1.78a0.13,0.13,0,1,1,.2-0.11l1,1.77A0.16,0.16,0,0,1,123.64,59.29Zm-20-.55a0.13,0.13,0,1,1-.21-0.13l1.07-1.72a0.13,0.13,0,1,1,.2.12Zm20.92,0a0.16,0.16,0,0,1-.2-0.09l-1.07-1.72a0.13,0.13,0,1,1,.19-0.12l1.09,1.71A0.16,0.16,0,0,1,124.6,58.73Zm-21.84-.58a0.13,0.13,0,1,1-.21-0.14l1.17-1.66a0.13,0.13,0,1,1,.19.13Zm22.77,0a0.16,0.16,0,0,1-.21-0.07l-1.16-1.66a0.12,0.12,0,1,1,.18-0.13l1.19,1.64A0.16,0.16,0,0,1,125.52,58.11Zm-23.66-.61a0.13,0.13,0,1,1-.2-0.16l1.26-1.59a0.13,0.13,0,1,1,.18.14Zm24.55-.06a0.16,0.16,0,0,1-.21-0.06l-1.26-1.59a0.13,0.13,0,1,1,.18-0.14l1.27,1.58A0.16,0.16,0,0,1,126.41,57.44ZM101,56.8a0.14,0.14,0,1,1-.19-0.17l1.35-1.52a0.13,0.13,0,1,1,.17.15Zm26.25-.08a0.16,0.16,0,0,1-.21-0.05l-1.34-1.52a0.13,0.13,0,1,1,.17-0.15l1.36,1.51A0.16,0.16,0,0,1,127.26,56.72Zm-27.06-.66a0.14,0.14,0,1,1-.18-0.18l1.43-1.44a0.13,0.13,0,1,1,.16.16Zm27.87-.1a0.16,0.16,0,0,1-.22,0l-1.42-1.45a0.12,0.12,0,1,1,.16-0.16L128,55.74A0.16,0.16,0,0,1,128.07,56Zm-28.64-.69a0.14,0.14,0,1,1-.17-0.19l1.51-1.36a0.13,0.13,0,1,1,.15.17Zm29.41-.12a0.16,0.16,0,0,1-.22,0l-1.5-1.36a0.13,0.13,0,1,1,.15-0.17l1.52,1.35A0.16,0.16,0,0,1,128.83,55.15ZM98.7,54.45a0.14,0.14,0,1,1-.17-0.2L100.12,53a0.12,0.12,0,1,1,.14.17Zm30.85-.14a0.16,0.16,0,0,1-.22,0L127.76,53a0.13,0.13,0,1,1,.14-0.18l1.59,1.26A0.16,0.16,0,0,1,129.55,54.31ZM98,53.58a0.14,0.14,0,1,1-.15-0.21l1.65-1.18a0.12,0.12,0,1,1,.13.18Zm32.2-.16a0.16,0.16,0,0,1-.22,0l-1.64-1.19a0.13,0.13,0,1,1,.13-0.19l1.66,1.17A0.16,0.16,0,0,1,130.22,53.42Zm-32.83-.74a0.13,0.13,0,1,1-.14-0.21L99,51.37a0.13,0.13,0,1,1,.13.2Zm33.46-.18a0.16,0.16,0,0,1-.22,0l-1.7-1.1a0.12,0.12,0,1,1,.12-0.19l1.72,1.07A0.16,0.16,0,0,1,130.84,52.49Zm-34-.76a0.13,0.13,0,1,1-.12-0.22l1.76-1a0.13,0.13,0,1,1,.12.2Zm34.61-.2a0.16,0.16,0,0,1-.22,0l-1.76-1a0.12,0.12,0,1,1,.11-0.19l1.78,1A0.16,0.16,0,0,1,131.41,51.53Zm-35.13-.77a0.13,0.13,0,1,1-.11-0.22l1.82-.9a0.13,0.13,0,1,1,.1.21Zm35.64-.22a0.16,0.16,0,0,1-.22,0l-1.81-.91a0.12,0.12,0,1,1,.1-0.2l1.83,0.87A0.16,0.16,0,0,1,131.93,50.55Zm-36.11-.77a0.13,0.13,0,1,1-.1-0.23l1.87-.79a0.13,0.13,0,1,1,.09.21Zm36.58-.25a0.16,0.16,0,0,1-.22,0l-1.87-.79a0.13,0.13,0,1,1,.09-0.21l1.88,0.77A0.16,0.16,0,0,1,132.39,49.53Zm-37-.77a0.14,0.14,0,1,1-.09-0.25l1.91-.67a0.12,0.12,0,1,1,.08.21Zm37.39-.27a0.16,0.16,0,0,1-.21.06l-1.91-.69a0.13,0.13,0,1,1,.08-0.22l1.91,0.67A0.16,0.16,0,0,1,132.79,48.49ZM95,47.71A0.14,0.14,0,1,1,95,47.47l1.95-.57a0.13,0.13,0,1,1,.07.21Zm38.09-.29a0.16,0.16,0,0,1-.21.07L131,46.92A0.13,0.13,0,1,1,131,46.7l2,0.55A0.16,0.16,0,0,1,133.13,47.43Zm-38.39-.78a0.14,0.14,0,1,1-.06-0.25l2-.46a0.12,0.12,0,1,1,.05.21Zm38.67-.3a0.16,0.16,0,0,1-.2.08l-2-.47a0.13,0.13,0,1,1,.05-0.23l2,0.45A0.16,0.16,0,0,1,133.41,46.36ZM94.5,45.58a0.14,0.14,0,1,1,0-.25l2-.36a0.13,0.13,0,1,1,0,.22Zm39.13-.31a0.16,0.16,0,0,1-.2.09l-2-.36a0.13,0.13,0,1,1,0-.23l2,0.34A0.16,0.16,0,0,1,133.64,45.26Zm-39.31-.78a0.13,0.13,0,1,1,0-.25l2-.25a0.13,0.13,0,1,1,0,.23Zm39.47-.32a0.16,0.16,0,0,1-.2.11l-2-.26a0.12,0.12,0,1,1,0-.22l2,0.22A0.16,0.16,0,0,1,133.8,44.16Zm-39.59-.77a0.14,0.14,0,1,1,0-.26l2-.13a0.13,0.13,0,1,1,0,.23Zm39.68-.33a0.16,0.16,0,0,1-.19.11l-2-.14a0.13,0.13,0,1,1,0-.23l2,0.12A0.16,0.16,0,0,1,133.89,43.06Zm-39.74-.77a0.14,0.14,0,1,1,0-.26h2a0.12,0.12,0,1,1,0,.22Zm39.78-.35a0.16,0.16,0,0,1-.18.12l-2,0a0.13,0.13,0,1,1,0-.23h2A0.16,0.16,0,0,1,133.93,41.94Zm-37.56-.8a0.16,0.16,0,0,1-.19.11l-2-.06a0.14,0.14,0,1,1,0-.26l2,0.09A0.16,0.16,0,0,1,96.37,41.15Zm35.34,0a0.12,0.12,0,1,1,0-.22l2-.1a0.14,0.14,0,1,1,0,.26Zm-35.28-1a0.16,0.16,0,0,1-.19.1l-2-.18a0.13,0.13,0,1,1,0-.25l2,0.2A0.16,0.16,0,0,1,96.43,40.17Zm0.12-1a0.16,0.16,0,0,1-.2.08l-2-.29a0.14,0.14,0,1,1,0-.25l2,0.32A0.16,0.16,0,0,1,96.55,39.2Zm0.17-1a0.16,0.16,0,0,1-.2.07l-2-.4a0.14,0.14,0,1,1,.05-0.26l2,0.44A0.16,0.16,0,0,1,96.72,38.23Zm0.23-1a0.16,0.16,0,0,1-.2.06l-2-.51a0.14,0.14,0,1,1,.07-0.25l2,0.54A0.16,0.16,0,0,1,96.95,37.28Zm0.28-.94a0.16,0.16,0,0,1-.21.05l-1.93-.62a0.13,0.13,0,1,1,.08-0.24l1.92,0.64A0.16,0.16,0,0,1,97.23,36.34Zm0.33-.92a0.16,0.16,0,0,1-.21,0l-1.89-.73a0.13,0.13,0,1,1,.09-0.24l1.88,0.75A0.16,0.16,0,0,1,97.56,35.42Zm0.38-.9a0.16,0.16,0,0,1-.21,0l-1.85-.83A0.14,0.14,0,1,1,96,33.47l1.83,0.87A0.16,0.16,0,0,1,97.94,34.52Zm0.44-.89a0.16,0.16,0,0,1-.21,0l-1.8-.93a0.13,0.13,0,1,1,.12-0.22l1.79,1A0.16,0.16,0,0,1,98.37,33.63Zm0.48-.86a0.16,0.16,0,0,1-.21,0l-1.75-1A0.14,0.14,0,1,1,97,31.53l1.73,1.05A0.16,0.16,0,0,1,98.86,32.77ZM99.38,32a0.16,0.16,0,0,1-.21,0l-1.68-1.13a0.13,0.13,0,1,1,.14-0.21l1.67,1.15A0.16,0.16,0,0,1,99.38,32Zm0.57-.8a0.16,0.16,0,0,1-.21,0l-1.62-1.22a0.14,0.14,0,1,1,.16-0.21L99.88,31A0.16,0.16,0,0,1,100,31.16Zm0.62-.76a0.16,0.16,0,0,1-.21,0l-1.55-1.31a0.14,0.14,0,1,1,.17-0.2l1.53,1.33A0.16,0.16,0,0,1,100.57,30.39Zm0.66-.73a0.16,0.16,0,0,1-.21,0l-1.47-1.39A0.14,0.14,0,1,1,99.72,28l1.45,1.41A0.16,0.16,0,0,1,101.23,29.67Zm0.7-.69a0.16,0.16,0,0,1-.21-0.06l-1.4-1.47a0.14,0.14,0,1,1,.19-0.18l1.37,1.49A0.16,0.16,0,0,1,101.92,29Zm0.73-.65a0.16,0.16,0,0,1-.2-0.06l-1.31-1.55a0.13,0.13,0,1,1,.19-0.16l1.29,1.56A0.16,0.16,0,0,1,102.66,28.33Zm0.77-.61a0.16,0.16,0,0,1-.2-0.07L102,26a0.13,0.13,0,1,1,.2-0.15l1.21,1.63A0.16,0.16,0,0,1,103.42,27.72Zm0.8-.57a0.16,0.16,0,0,1-.2-0.09l-1.13-1.68a0.13,0.13,0,1,1,.21-0.14l1.12,1.69A0.16,0.16,0,0,1,104.23,27.15Zm0.83-.52a0.16,0.16,0,0,1-.19-0.1l-1-1.74a0.14,0.14,0,1,1,.22-0.13l1,1.75A0.16,0.16,0,0,1,105.06,26.63Zm0.86-.47a0.16,0.16,0,0,1-.19-0.11l-0.94-1.8a0.13,0.13,0,1,1,.22-0.12l0.92,1.81A0.16,0.16,0,0,1,105.91,26.16Zm0.88-.42a0.16,0.16,0,0,1-.18-0.12l-0.84-1.85a0.13,0.13,0,1,1,.23-0.1l0.82,1.85A0.16,0.16,0,0,1,106.79,25.74Zm0.9-.37a0.16,0.16,0,0,1-.17-0.13l-0.73-1.89a0.14,0.14,0,1,1,.24-0.09l0.7,1.9A0.16,0.16,0,0,1,107.69,25.37Zm0.93-.32a0.16,0.16,0,0,1-.16-0.14L107.83,23a0.13,0.13,0,1,1,.24-0.08l0.6,1.94A0.16,0.16,0,0,1,108.62,25Zm0.94-.27a0.16,0.16,0,0,1-.16-0.15l-0.52-2a0.13,0.13,0,1,1,.25-0.06l0.49,2A0.16,0.16,0,0,1,109.56,24.78Zm1-.22a0.16,0.16,0,0,1-.14-0.16l-0.41-2a0.14,0.14,0,1,1,.26-0.05l0.37,2A0.16,0.16,0,0,1,110.51,24.56Zm1-.16a0.16,0.16,0,0,1-.13-0.16l-0.3-2a0.14,0.14,0,1,1,.26,0l0.25,2A0.16,0.16,0,0,1,111.47,24.4Zm1-.11a0.16,0.16,0,0,1-.13-0.17l-0.18-2a0.13,0.13,0,1,1,.25,0l0.16,2A0.16,0.16,0,0,1,112.45,24.29Zm1-.06a0.16,0.16,0,0,1-.12-0.18l-0.07-2a0.13,0.13,0,1,1,.25,0l0,2A0.16,0.16,0,0,1,113.43,24.23Z" transform="translate(-88.52 -16.37)"/><path class="cls-6" d="M131.65,40.2a0.13,0.13,0,1,1,0-.23l2-.2a0.13,0.13,0,1,1,0,.25Z" transform="translate(-88.52 -16.37)"/><path class="cls-7" d="M131.54,39.22a0.13,0.13,0,1,1,0-.23l2-.32a0.13,0.13,0,1,1,0,.25Z" transform="translate(-88.52 -16.37)"/><path class="cls-8" d="M131.36,38.24a0.12,0.12,0,1,1,0-.22l2-.44a0.14,0.14,0,1,1,.05.26Z" transform="translate(-88.52 -16.37)"/><path class="cls-9" d="M131.14,37.28a0.13,0.13,0,1,1-.06-0.22l2-.54a0.13,0.13,0,1,1,.07.25Z" transform="translate(-88.52 -16.37)"/><path class="cls-10" d="M130.86,36.33a0.12,0.12,0,1,1-.07-0.21l1.92-.65a0.14,0.14,0,1,1,.08.25Z" transform="translate(-88.52 -16.37)"/><path class="cls-11" d="M130.53,35.4a0.13,0.13,0,1,1-.08-0.21l1.88-.75a0.14,0.14,0,1,1,.09.24Z" transform="translate(-88.52 -16.37)"/><path class="cls-12" d="M130.15,34.49a0.13,0.13,0,1,1-.1-0.21l1.84-.86a0.13,0.13,0,1,1,.11.23Z" transform="translate(-88.52 -16.37)"/><path class="cls-13" d="M129.72,33.6a0.13,0.13,0,1,1-.11-0.2l1.79-1a0.13,0.13,0,1,1,.12.22Z" transform="translate(-88.52 -16.37)"/><path class="cls-14" d="M129.24,32.74a0.13,0.13,0,1,1-.12-0.2l1.73-1.06a0.13,0.13,0,1,1,.13.22Z" transform="translate(-88.52 -16.37)"/><path class="cls-15" d="M128.7,31.9a0.12,0.12,0,1,1-.12-0.18l1.67-1.15a0.14,0.14,0,1,1,.15.21Z" transform="translate(-88.52 -16.37)"/><path class="cls-16" d="M128.13,31.1a0.12,0.12,0,1,1-.13-0.17l1.6-1.25a0.14,0.14,0,1,1,.16.21Z" transform="translate(-88.52 -16.37)"/><path class="cls-17" d="M127.51,30.33a0.13,0.13,0,1,1-.15-0.17l1.53-1.33a0.14,0.14,0,1,1,.17.2Z" transform="translate(-88.52 -16.37)"/><path class="cls-18" d="M126.86,29.6a0.13,0.13,0,1,1-.17-0.17L128.15,28a0.13,0.13,0,1,1,.17.18Z" transform="translate(-88.52 -16.37)"/><path class="cls-19" d="M126.16,28.9a0.13,0.13,0,1,1-.17-0.16l1.38-1.49a0.13,0.13,0,1,1,.18.17Z" transform="translate(-88.52 -16.37)"/><path class="cls-20" d="M125.41,28.23a0.12,0.12,0,1,1-.17-0.14l1.29-1.57a0.14,0.14,0,1,1,.2.17Z" transform="translate(-88.52 -16.37)"/><path class="cls-21" d="M124.64,27.62a0.13,0.13,0,1,1-.18-0.13l1.2-1.64a0.14,0.14,0,1,1,.21.16Z" transform="translate(-88.52 -16.37)"/><path class="cls-22" d="M123.83,27a0.13,0.13,0,1,1-.19-0.13l1.11-1.7a0.14,0.14,0,1,1,.21.14Z" transform="translate(-88.52 -16.37)"/><path class="cls-23" d="M123,26.51a0.13,0.13,0,1,1-.19-0.11l1-1.76a0.14,0.14,0,1,1,.22.13Z" transform="translate(-88.52 -16.37)"/><path class="cls-24" d="M122.13,26a0.13,0.13,0,1,1-.2-0.1l0.91-1.81a0.14,0.14,0,1,1,.23.12Z" transform="translate(-88.52 -16.37)"/><path class="cls-25" d="M121.24,25.6a0.13,0.13,0,1,1-.21-0.09l0.81-1.86a0.14,0.14,0,1,1,.23.1Z" transform="translate(-88.52 -16.37)"/><path class="cls-26" d="M120.32,25.22a0.12,0.12,0,1,1-.21-0.08l0.7-1.9a0.14,0.14,0,1,1,.24.09Z" transform="translate(-88.52 -16.37)"/><path class="cls-27" d="M119.39,24.89a0.13,0.13,0,1,1-.22-0.07l0.59-1.94A0.14,0.14,0,1,1,120,23Z" transform="translate(-88.52 -16.37)"/><path class="cls-28" d="M118.44,24.61a0.13,0.13,0,1,1-.22-0.06l0.48-2a0.14,0.14,0,1,1,.25.06Z" transform="translate(-88.52 -16.37)"/><path class="cls-29" d="M117.47,24.39a0.13,0.13,0,1,1-.22,0l0.37-2a0.14,0.14,0,1,1,.25,0Z" transform="translate(-88.52 -16.37)"/><path class="cls-30" d="M116.5,24.22a0.13,0.13,0,1,1-.23,0l0.27-2a0.13,0.13,0,1,1,.25,0Z" transform="translate(-88.52 -16.37)"/><path class="cls-31" d="M115.51,24.11a0.12,0.12,0,1,1-.22,0l0.15-2a0.14,0.14,0,1,1,.26,0Z" transform="translate(-88.52 -16.37)"/><path class="cls-32" d="M114.53,24.05a0.13,0.13,0,1,1-.23,0l0-2a0.14,0.14,0,1,1,.26,0Z" transform="translate(-88.52 -16.37)"/><circle class="cls-3" cx="103.36" cy="23.6" r="0.43" transform="translate(-86.28 39.09) rotate(-30.35)"/><circle class="cls-3" cx="124.48" cy="59.68" r="0.43" transform="translate(-101.61 54.71) rotate(-30.35)"/><circle class="cls-3" cx="134.14" cy="46.92" r="0.43" transform="translate(-93.84 57.84) rotate(-30.35)"/><circle class="cls-3" cx="93.7" cy="36.35" r="0.43" transform="translate(-94.04 35.96) rotate(-30.35)"/><circle class="cls-3" cx="119.11" cy="21.47" r="0.43" transform="translate(-83.04 46.76) rotate(-30.35)"/><circle class="cls-3" cx="108.53" cy="61.94" r="0.43" transform="translate(-104.94 46.96) rotate(-30.35)"/><circle class="cls-3" cx="131.95" cy="31.08" r="0.43" transform="translate(-86.14 54.57) rotate(-30.35)"/><circle class="cls-3" cx="95.79" cy="52.25" r="0.43" transform="translate(-101.79 39.19) rotate(-30.35)"/><g class="cls-4"><circle class="cls-3" cx="110.94" cy="20.97" r="0.34" transform="translate(-90.38 -0.31) rotate(-8.21)"/><circle class="cls-3" cx="116.91" cy="62.35" r="0.34" transform="translate(-96.22 0.96) rotate(-8.21)"/><circle class="cls-3" cx="130.66" cy="54.17" r="0.34" transform="translate(-94.91 2.84) rotate(-8.21)"/><circle class="cls-3" cx="97.19" cy="29.14" r="0.34" transform="matrix(0.99, -0.14, 0.14, 0.99, -91.68, -2.19)"/><circle class="cls-3" cx="126.34" cy="24.93" r="0.34" transform="translate(-90.78 1.93) rotate(-8.21)"/><circle class="cls-3" cx="101.29" cy="58.43" r="0.34" transform="translate(-95.82 -1.3) rotate(-8.21)"/><circle class="cls-3" cx="134.61" cy="38.67" r="0.34" transform="translate(-92.66 3.25) rotate(-8.21)"/><circle class="cls-3" cx="93.14" cy="44.65" r="0.34" transform="matrix(0.99, -0.14, 0.14, 0.99, -93.94, -2.61)"/></g><circle class="cls-33" cx="25.36" cy="25.3" r="14.29"/><path class="cls-34" d="M113.88,56.16A14.51,14.51,0,0,1,99.38,41.67a0.2,0.2,0,1,1,.4,0,14.09,14.09,0,1,0,14.09-14.09,0.2,0.2,0,1,1,0-.4A14.49,14.49,0,1,1,113.88,56.16Z" transform="translate(-88.52 -16.37)"/><circle class="cls-3" cx="94.75" cy="29.15" r="0.47" transform="translate(-69.87 76.31) rotate(-56.96)"/><circle class="cls-3" cx="133.07" cy="54.08" r="0.47" transform="translate(-73.34 119.77) rotate(-56.96)"/><circle class="cls-3" cx="136.26" cy="36.88" r="0.47" transform="translate(-57.47 114.63) rotate(-56.96)"/><circle class="cls-3" cx="91.54" cy="46.35" r="0.47" transform="translate(-85.75 81.44) rotate(-56.95)"/><circle class="cls-3" cx="109.11" cy="19.35" r="0.47" transform="translate(-55.13 83.89) rotate(-56.96)"/><circle class="cls-3" cx="118.58" cy="64.11" r="0.47" transform="translate(-88.34 112.18) rotate(-56.95)"/><circle class="cls-3" cx="126.37" cy="22.46" r="0.47" transform="translate(-49.88 99.77) rotate(-56.96)"/><circle class="cls-3" cx="101.37" cy="60.87" r="0.47" transform="translate(-93.45 96.29) rotate(-56.96)"/><g class="cls-4"><circle class="cls-3" cx="112.6" cy="16.78" r="0.41" transform="translate(-89.26 -10.26) rotate(-3.09)"/><circle class="cls-3" cx="115.28" cy="66.55" r="0.41" transform="translate(-91.94 -10.05) rotate(-3.09)"/><circle class="cls-3" cx="132.48" cy="58.3" r="0.41" transform="translate(-91.47 -9.15) rotate(-3.09)"/><circle class="cls-3" cx="95.4" cy="25.01" r="0.41" transform="translate(-89.73 -11.19) rotate(-3.09)"/><circle class="cls-3" cx="130.46" cy="23.12" r="0.41" transform="translate(-89.58 -9.29) rotate(-3.09)"/><circle class="cls-3" cx="97.14" cy="60.24" r="0.41" transform="translate(-91.62 -11.05) rotate(-3.09)"/><circle class="cls-3" cx="138.82" cy="40.31" r="0.41" transform="translate(-90.49 -8.83) rotate(-3.09)"/><circle class="cls-3" cx="88.93" cy="43.01" r="0.41" transform="translate(-90.71 -11.51) rotate(-3.09)"/></g><circle class="cls-3" cx="103.85" cy="19.51" r="0.5" transform="translate(-87.26 28.45) rotate(-24.5)"/><circle class="cls-3" cx="124.02" cy="63.77" r="0.5" transform="translate(-103.8 40.79) rotate(-24.5)"/><circle class="cls-3" cx="136.71" cy="50.15" r="0.5" transform="translate(-97.01 44.83) rotate(-24.5)"/><circle class="cls-3" cx="91.16" cy="33.12" r="0.5" transform="translate(-94.04 24.41) rotate(-24.49)"/><circle class="cls-3" cx="122.34" cy="18.91" r="0.5" transform="translate(-85.35 36.06) rotate(-24.5)"/><circle class="cls-3" cx="105.29" cy="64.5" r="0.5" transform="translate(-105.78 33.09) rotate(-24.49)"/><circle class="cls-3" cx="136.06" cy="31.55" r="0.5" transform="translate(-89.36 42.88) rotate(-24.49)"/><circle class="cls-3" cx="91.69" cy="51.77" r="0.5" transform="translate(-101.73 26.31) rotate(-24.5)"/></svg>