<svg preserveAspectRatio="none" id="BACKGROUND_2" data-name="BACKGROUND 2" xmlns="http://www.w3.org/2000/svg" viewBox="0 0 98.88 99.38"><defs><style>.cls-1{fill:none;stroke:#0071bc;stroke-miterlimit:10}.cls-3{fill:#0071bc}</style></defs><circle class="cls-1" cx="49.44" cy="49.94" r="42.72"/><circle cx="49.44" cy="49.94" r="35.93" stroke-width=".84" stroke-dasharray="1 1" fill="none" stroke="#0071bc" stroke-miterlimit="10"/><path class="cls-1" d="M49.44 23.28v53.33"/><path class="cls-1" d="M1513.7 358.05l-1.51 6.54a43.11 43.11 0 00-19-.06l-1.48-6.55a49.57 49.57 0 0121.99.07z" transform="translate(-1453.11 -356.28)"/><path class="cls-1" d="M76.11 49.94H22.78"/><path class="cls-3" d="M1502.56 356.78a49.09 49.09 0 00-10.85 1.2l1.48 6.55a43.11 43.11 0 0119 .06l1.51-6.54a49.28 49.28 0 00-11.14-1.27zM1467.6 371.26a49.09 49.09 0 00-6.82 8.52l5.68 3.58a43.11 43.11 0 0113.47-13.36l-3.56-5.69a49.28 49.28 0 00-8.77 6.95zM1453.11 406.22a49.09 49.09 0 001.2 10.85l6.55-1.48a43.11 43.11 0 01.06-19l-6.54-1.51a49.28 49.28 0 00-1.27 11.14zM1467.59 441.18a49.09 49.09 0 008.52 6.82l3.59-5.68a43.11 43.11 0 01-13.39-13.48l-5.69 3.56a49.28 49.28 0 006.97 8.78zM1502.55 455.66a49.1 49.1 0 0010.85-1.2l-1.48-6.55a43.11 43.11 0 01-19-.06l-1.51 6.54a49.28 49.28 0 0011.14 1.27zM1537.52 441.19a49.09 49.09 0 006.82-8.52l-5.68-3.59a43.11 43.11 0 01-13.48 13.39l3.56 5.69a49.28 49.28 0 008.78-6.97zM1552 406.23a49.09 49.09 0 00-1.2-10.85l-6.55 1.48a43.11 43.11 0 01-.06 19l6.54 1.51a49.28 49.28 0 001.27-11.14zM1537.52 371.26a49.09 49.09 0 00-8.52-6.82l-3.59 5.68a43.11 43.11 0 0113.39 13.48l5.69-3.56a49.28 49.28 0 00-6.97-8.78z" transform="translate(-1453.11 -356.28)"/></svg>