<svg preserveAspectRatio="none" xmlns="http://www.w3.org/2000/svg" viewBox="0 0 388.41 383.46"><defs><style>.cls-1{isolation:isolate;}.cls-2{mix-blend-mode:screen;}.cls-3{fill:#03a6ff;}</style></defs><title>circle52</title><g class="cls-1"><g id="Layer_7" data-name="Layer 7"><g class="cls-2"><path class="cls-3" d="M951.26,1690.76A156.79,156.79,0,0,0,919.9,1598a158.72,158.72,0,0,0-50.15-43.47,155.1,155.1,0,0,0-30.86-12.83,159.18,159.18,0,0,0-66.18-4.91l-0.58.08,6.59,47.63,0.59-.08a110.38,110.38,0,0,1,46,3.4,108.32,108.32,0,0,1,40.35,22.12,111.94,111.94,0,0,1,15.83,16.94,108.79,108.79,0,0,1-46,166l-0.54.22L853,1837.63l0.54-.22a158.12,158.12,0,0,0,71.22-58,156.33,156.33,0,0,0,19.88-42,155.17,155.17,0,0,0,6.59-45.24h0v-1.34h0Zm-1.16,0v1.49a172.61,172.61,0,0,1-1.58,22.11,154.75,154.75,0,0,1-13.28,44.21,168.73,168.73,0,0,1-11.43,20.1,156.87,156.87,0,0,1-70.13,57.39l-17.27-42.36a109.94,109.94,0,0,0,68-101.46V1691h0a109.54,109.54,0,0,0-38-82,109.3,109.3,0,0,0-40.78-22.37,111.48,111.48,0,0,0-45.87-3.5l-6.28-45.31a157.74,157.74,0,0,1,65.09,4.95,153.85,153.85,0,0,1,30.64,12.73A157.82,157.82,0,0,1,919,1598.67a155.77,155.77,0,0,1,31.14,92.09v0Z" transform="translate(-601.32 -1502.99)"/><path class="cls-3" d="M686.49,1705.7c-0.26-1.7-.39-3.46-0.52-5.16,0-.61-0.09-1.22-0.14-1.85s-0.09-1.53-.11-2.28c0-.41,0-0.81,0-1.2s0-.91,0-1.37c0-.72,0-1.44,0-2.15l0.14-5.28,0.4-5.26,0.44-3.5a107.42,107.42,0,0,1,7.22-27c0.25-.69.57-1.38,0.88-2.05,0.18-.38.35-0.76,0.51-1.12s0.37-.8.54-1.2c0.29-.66.59-1.33,0.93-2l0.79-1.53c0.79-1.55,1.61-3.15,2.53-4.67a105.16,105.16,0,0,1,7.73-11.69,109.07,109.07,0,0,1,19.68-19.95l0.47-.36-29.65-37.86-0.46.36a157.23,157.23,0,0,0-28.32,28.72,155.18,155.18,0,0,0-11.15,16.85c-1.5,2.51-2.84,5.15-4.14,7.7l-0.62,1.22c-0.53,1-1,2-1.44,3.05-0.23.52-.46,1-0.71,1.56s-0.43,1-.65,1.45c-0.47,1-1,2.11-1.37,3.18a155.17,155.17,0,0,0-10.42,39l-0.18,1.42c-0.15,1.2-.31,2.4-0.44,3.61l-0.57,7.56-0.2,7.55c0,1.13,0,2.27.05,3.4,0,0.55,0,1.1,0,1.65s0,1,0,1.55c0,1.15.05,2.33,0.16,3.5l0.12,1.65c0.2,2.76.41,5.61,0.82,8.42l0.08,0.57,47.73-5.94Zm-2-11.81c0,0.45,0,.9,0,1.36s0,0.79,0,1.19c0,0.78,0,1.59.11,2.37,0.05,0.61.09,1.21,0.14,1.82,0.11,1.53.23,3.1,0.44,4.65l-45.38,5.65c-0.35-2.58-.54-5.21-0.73-7.76L639,1701.5c-0.11-1.13-.13-2.3-0.16-3.42,0-.52,0-1,0-1.56s0-1.1,0-1.66c0-1.12-.06-2.24,0-3.35l0.2-7.51,0.57-7.51c0.13-1.19.28-2.38,0.43-3.57l0.18-1.42a154.06,154.06,0,0,1,10.35-38.75c0.39-1.06.88-2.11,1.34-3.12,0.22-.49.45-1,0.66-1.46s0.48-1,.71-1.56c0.44-1,.9-2,1.41-3l0.63-1.23c1.29-2.53,2.62-5.16,4.11-7.64A154.09,154.09,0,0,1,670.37,1598,156.24,156.24,0,0,1,698,1569.87l28.2,36a110.54,110.54,0,0,0-19.43,19.81,106.32,106.32,0,0,0-7.81,11.81c-0.94,1.54-1.76,3.16-2.56,4.73l-0.78,1.52c-0.37.67-.67,1.37-1,2.05-0.17.39-.34,0.79-0.54,1.19s-0.33.74-.5,1.11c-0.32.69-.65,1.41-0.91,2.13a108.51,108.51,0,0,0-7.28,27.3L685,1681l-0.4,5.31-0.14,5.31C684.44,1692.41,684.46,1693.15,684.48,1693.89Z" transform="translate(-601.32 -1502.99)"/><path class="cls-3" d="M719.56,1771l-0.43-.41L686,1805.5l0.42,0.4a157.05,157.05,0,0,0,60.27,35.69l0.56,0.18,14.6-45.82-0.56-.18A108.86,108.86,0,0,1,719.56,1771Zm27,69.27a155.9,155.9,0,0,1-58.84-34.84l31.48-33.18a110.07,110.07,0,0,0,41.24,24.44Z" transform="translate(-601.32 -1502.99)"/><path class="cls-3" d="M754.48,1555.86a141.67,141.67,0,0,1,65.18-3.45,141.62,141.62,0,0,1,59.87,26.06,146.82,146.82,0,0,1,23.83,22.62,141.9,141.9,0,0,1,33,91h-18.3a126.08,126.08,0,0,0-3.33-28.44,119.46,119.46,0,0,0-9.75-26.9,124.06,124.06,0,0,0-15.69-23.94,128.54,128.54,0,0,0-20.77-19.72,123.3,123.3,0,0,0-52.13-22.69,123.37,123.37,0,0,0-56.81,3Z" transform="translate(-601.32 -1502.99)"/><path class="cls-3" d="M726,1816.56a142,142,0,0,1-73.6-124.69l18.3,0a123.75,123.75,0,0,0,64.13,108.62Z" transform="translate(-601.32 -1502.99)"/><path class="cls-3" d="M884.57,1801.8a153.86,153.86,0,0,1-17,12,149.4,149.4,0,0,1-18.63,9.41,147.56,147.56,0,0,1-19.82,6.57,150.8,150.8,0,0,1-20.57,3.58l-1.8-18.22a123.42,123.42,0,0,0,66.24-27.52Z" transform="translate(-601.32 -1502.99)"/><path class="cls-3" d="M936.39,1692.12a155.47,155.47,0,0,1-1.53,20.81,141.3,141.3,0,0,1-12.07,39.86,148.53,148.53,0,0,1-10.29,18.16l-15.22-10.17a130.26,130.26,0,0,0,9-15.82,123,123,0,0,0,10.5-34.69,137.32,137.32,0,0,0,1.34-18.15h18.3Z" transform="translate(-601.32 -1502.99)"/><path class="cls-3" d="M673.61,1617.48a151.36,151.36,0,0,1,11.33-15.81,154.08,154.08,0,0,1,13.39-14.1l12.39,13.47A135.93,135.93,0,0,0,699,1613.34a133.18,133.18,0,0,0-9.87,13.78Z" transform="translate(-601.32 -1502.99)"/><path class="cls-3" d="M849.36,1653.78a71,71,0,0,1,9,18.23,74.07,74.07,0,0,1,3.08,20.1H851.19a63.93,63.93,0,0,0-2.6-17,60.74,60.74,0,0,0-7.63-15.43Z" transform="translate(-601.32 -1502.99)"/><path class="cls-3" d="M770.52,1629.53a67.27,67.27,0,0,1,31.43-4,68.65,68.65,0,0,1,29.78,10.91l-5.72,8.52a58.4,58.4,0,0,0-25.2-9.23,57,57,0,0,0-26.63,3.39Z" transform="translate(-601.32 -1502.99)"/><path class="cls-3" d="M730.37,1672.19a67.63,67.63,0,0,1,19.24-29.86l6.86,7.62a57.37,57.37,0,0,0-16.3,25.28Z" transform="translate(-601.32 -1502.99)"/><path class="cls-3" d="M732.92,1718.81c-0.63-1.36-1.07-2.8-1.61-4.2l-0.77-2.11c-0.27-.7-0.4-1.44-0.61-2.16l-1.12-4.36c-0.3-1.47-.48-3-0.72-4.44l-0.33-2.22c-0.11-.74-0.1-1.49-0.15-2.24l-0.22-4.49c0-1.49.12-3,.17-4.49a33.13,33.13,0,0,1,.39-4.47l10.18,1.29a25.71,25.71,0,0,0-.33,3.79c0,1.27-.17,2.54-0.16,3.81l0.2,3.81c0,0.63,0,1.27.12,1.9l0.29,1.88c0.21,1.25.35,2.52,0.6,3.76l1,3.68a18.23,18.23,0,0,0,.51,1.83l0.66,1.78c0.46,1.18.81,2.41,1.35,3.55Z" transform="translate(-601.32 -1502.99)"/><polygon class="cls-3" points="140.19 230.23 138.42 227.86 137.54 226.67 136.76 225.42 145.38 219.85 146.03 220.92 146.79 221.92 148.29 223.93 140.19 230.23"/><path class="cls-3" d="M763.18,1751.42a26.3,26.3,0,0,1-2.57-1.46l-2.53-1.54,5.57-8.62,2.14,1.3a20.13,20.13,0,0,0,2.17,1.24Z" transform="translate(-601.32 -1502.99)"/><path class="cls-3" d="M833.49,1746.52a66.61,66.61,0,0,1-23.43,10.73,67.75,67.75,0,0,1-25.74,1.07l1.53-10.14a57.51,57.51,0,0,0,21.81-.91,56.35,56.35,0,0,0,19.83-9.08Z" transform="translate(-601.32 -1502.99)"/><path class="cls-3" d="M861.45,1692.12A67.06,67.06,0,0,1,842.32,1739L835,1731.8a56.8,56.8,0,0,0,16.2-39.68h10.26Z" transform="translate(-601.32 -1502.99)"/><path class="cls-3" d="M710.4,1664.92a88.58,88.58,0,0,1,24.93-38.41l4.37,4.85a82.05,82.05,0,0,0-23.09,35.57Z" transform="translate(-601.32 -1502.99)"/><path class="cls-3" d="M720.69,1740.7a85.24,85.24,0,0,1-6.68-12.09,83.14,83.14,0,0,1-4.71-13l6.29-1.73a76.68,76.68,0,0,0,4.36,12,78.72,78.72,0,0,0,6.18,11.19Z" transform="translate(-601.32 -1502.99)"/><path class="cls-3" d="M779.87,1779.2a84.86,84.86,0,0,1-13.4-3.33c-2.2-.7-4.33-1.57-6.47-2.42s-4.21-1.87-6.24-3l3-5.79c1.88,1,3.83,1.87,5.78,2.75s4,1.6,6,2.24a78.37,78.37,0,0,0,12.41,3.08Z" transform="translate(-601.32 -1502.99)"/><path class="cls-3" d="M859.21,1752.07a88,88,0,0,1-50.68,27.21l-1-6.44a81.48,81.48,0,0,0,46.92-25.2Z" transform="translate(-601.32 -1502.99)"/><path class="cls-3" d="M882.7,1692.12a88.15,88.15,0,0,1-18.75,54.37l-5.14-4a81.61,81.61,0,0,0,17.37-50.35h6.52Z" transform="translate(-601.32 -1502.99)"/><path class="cls-3" d="M833.14,1760.71a79.13,79.13,0,0,1-12.9,5.83l-1.39-4a74.9,74.9,0,0,0,12.21-5.51Z" transform="translate(-601.32 -1502.99)"/><path class="cls-3" d="M858.63,1737.69a78.24,78.24,0,0,1-14.33,15.4l-2.68-3.27a74,74,0,0,0,13.56-14.57Z" transform="translate(-601.32 -1502.99)"/><path class="cls-3" d="M867.91,1720.43a80.08,80.08,0,0,1-6.26,12.69l-3.61-2.21a75.85,75.85,0,0,0,5.92-12Z" transform="translate(-601.32 -1502.99)"/><path class="cls-3" d="M858.58,1646.42A78.43,78.43,0,0,1,872.23,1680l-4.18.65a74.2,74.2,0,0,0-12.92-31.76Z" transform="translate(-601.32 -1502.99)"/><path class="cls-3" d="M826,1619.95a78.56,78.56,0,0,1,29,21.75l-3.25,2.71a74.32,74.32,0,0,0-27.42-20.59Z" transform="translate(-601.32 -1502.99)"/><path class="cls-3" d="M819.74,1617.52c1.39,0.43,2.72,1,4.08,1.51l-1.58,3.92c-1.29-.47-2.55-1-3.86-1.43Z" transform="translate(-601.32 -1502.99)"/><path class="cls-3" d="M808.52,1614.61c1.43,0.22,2.84.6,4.26,0.89l-1,4.12c-1.34-.27-2.67-0.63-4-0.84Z" transform="translate(-601.32 -1502.99)"/><path class="cls-3" d="M797,1613.39c1.45,0,2.89.17,4.34,0.25l-0.37,4.22c-1.37-.07-2.73-0.24-4.11-0.24Z" transform="translate(-601.32 -1502.99)"/><path class="cls-3" d="M752.47,1625.83a77.73,77.73,0,0,1,25.87-10.47l0.76,3.66a74,74,0,0,0-24.64,10Z" transform="translate(-601.32 -1502.99)"/><path class="cls-3" d="M729.31,1648.37a79.47,79.47,0,0,1,19.44-20l2.17,3a75.73,75.73,0,0,0-18.51,19.08Z" transform="translate(-601.32 -1502.99)"/><path class="cls-3" d="M831.84,1665.9a48,48,0,0,1,6.18,12.47,50.15,50.15,0,0,1,2.11,13.75H829.2a39.36,39.36,0,0,0-1.61-10.47,37.1,37.1,0,0,0-4.7-9.47Z" transform="translate(-601.32 -1502.99)"/><path class="cls-3" d="M803.36,1647.28a45.66,45.66,0,0,1,16.48,6.84l-6.09,9.07a34.73,34.73,0,0,0-12.53-5.2Z" transform="translate(-601.32 -1502.99)"/><path class="cls-3" d="M779.3,1649a37.08,37.08,0,0,1,4.59-1.34,39.72,39.72,0,0,1,4.71-.85l1.38,10.84a29,29,0,0,0-3.58.65,26.62,26.62,0,0,0-3.49,1Z" transform="translate(-601.32 -1502.99)"/><path class="cls-3" d="M793.69,1737.81c-1.51-.09-3-0.1-4.53-0.29l1.24-10.85c1.14,0.15,2.31.13,3.46,0.22Z" transform="translate(-601.32 -1502.99)"/><path class="cls-3" d="M832.4,1717.56c-0.31.46-.66,0.9-1,1.35l-8.84-6.41c0.25-.34.52-0.67,0.76-1Z" transform="translate(-601.32 -1502.99)"/><path class="cls-3" d="M838.83,1702.78a35.51,35.51,0,0,1-1.4,4.7l-0.85,2.3c-0.33.75-.7,1.48-1,2.22l-9.83-4.76c0.26-.56.55-1.11,0.81-1.68l0.64-1.75a25.24,25.24,0,0,0,1.06-3.57Z" transform="translate(-601.32 -1502.99)"/><path class="cls-3" d="M840.13,1692.12c-0.08,1.63-.14,3.27-0.27,4.89s-0.44,3.25-.79,4.84l-10.68-2.32c0.27-1.21.39-2.46,0.6-3.68s0.13-2.49.21-3.73h10.92Z" transform="translate(-601.32 -1502.99)"/><path class="cls-3" d="M817.25,1731.69a44.54,44.54,0,0,1-19.83,6l-0.72-10.9a33.6,33.6,0,0,0,15.07-4.56Z" transform="translate(-601.32 -1502.99)"/><path class="cls-3" d="M751.36,1676.79c0.32-.87.63-1.75,1-2.62l1.21-2.52,0.61-1.26c0.23-.41.48-0.8,0.71-1.2l1.45-2.38a46.49,46.49,0,0,1,7.27-8.43l7.37,8.07a35.58,35.58,0,0,0-5.55,6.42l-1.1,1.82c-0.18.3-.38,0.6-0.55,0.91l-0.46,1-0.93,1.91c-0.26.66-.49,1.33-0.74,2Z" transform="translate(-601.32 -1502.99)"/><path class="cls-3" d="M772.24,1732.1a47.55,47.55,0,0,1-10.7-8.24A45.71,45.71,0,0,1,749,1686.55l10.85,1.32a34.78,34.78,0,0,0,9.5,28.4,36.66,36.66,0,0,0,8.15,6.28Z" transform="translate(-601.32 -1502.99)"/><path class="cls-3" d="M823.95,1685.55c0.26,1.07.36,2.18,0.55,3.27s0.13,2.2.19,3.3h-5.5c-0.06-.9-0.08-1.81-0.16-2.71s-0.23-1.79-.45-2.67Z" transform="translate(-601.32 -1502.99)"/><path class="cls-3" d="M810.56,1666.53a28.45,28.45,0,0,1,2.7,1.91c0.88,0.67,1.65,1.46,2.48,2.19l-3.88,3.9c-0.68-.59-1.31-1.25-2-1.79a23,23,0,0,0-2.21-1.56Z" transform="translate(-601.32 -1502.99)"/><path class="cls-3" d="M764.26,1689.33c0.1-1.1.31-2.19,0.47-3.28s0.52-2.15.85-3.2l5.24,1.68c-0.27.86-.46,1.75-0.69,2.62s-0.3,1.78-.38,2.68Z" transform="translate(-601.32 -1502.99)"/><path class="cls-3" d="M806.24,1720c-1,.38-2.06.79-3.12,1.12s-2.13.61-3.22,0.77l-1-5.41c0.9-.12,1.75-0.43,2.63-0.62s1.7-.61,2.55-0.91Z" transform="translate(-601.32 -1502.99)"/><path class="cls-3" d="M824.68,1692.12c-0.06,1.1-.09,2.21-0.19,3.3s-0.29,2.19-.55,3.27l-5.37-1.19c0.22-.88.29-1.78,0.45-2.67s0.1-1.81.16-2.71h5.5Z" transform="translate(-601.32 -1502.99)"/><path class="cls-3" d="M808.86,1675.59a22.05,22.05,0,0,1,7.52,16.53h-5a17,17,0,0,0-5.81-12.75Z" transform="translate(-601.32 -1502.99)"/><path class="cls-3" d="M794.73,1670.16a21.44,21.44,0,0,1,8,1.63l-1.9,4.64a16.43,16.43,0,0,0-6.17-1.25Z" transform="translate(-601.32 -1502.99)"/><path class="cls-3" d="M773.15,1697.61a22.1,22.1,0,0,1,.8-13.47,22.54,22.54,0,0,1,3.43-5.91,23.14,23.14,0,0,1,5.09-4.55l2.73,4.21a18.14,18.14,0,0,0-3.94,3.51,17.53,17.53,0,0,0-2.65,4.56,17.09,17.09,0,0,0-.61,10.39Z" transform="translate(-601.32 -1502.99)"/><path class="cls-3" d="M816.38,1692.12a22,22,0,0,1-30.81,20.11,22.29,22.29,0,0,1-10.5-9.67l4.41-2.39a17.28,17.28,0,0,0,8.11,7.46,17,17,0,0,0,11,.9,16.83,16.83,0,0,0,9.21-6,17,17,0,0,0,3.59-10.41h5Z" transform="translate(-601.32 -1502.99)"/><path class="cls-3" d="M724.88,1611.69a106.22,106.22,0,0,1,47.89-23.7l2.28,11a95,95,0,0,0-42.81,21.19Z" transform="translate(-601.32 -1502.99)"/><path class="cls-3" d="M725.69,1773.24a105.82,105.82,0,0,1-17.61-19.07,105.79,105.79,0,0,1-19-47.9,106.86,106.86,0,0,1-.3-26l11.19,1.24a95.63,95.63,0,0,0,.27,23.23,94.53,94.53,0,0,0,17,42.81A94.56,94.56,0,0,0,733,1764.66Z" transform="translate(-601.32 -1502.99)"/><path class="cls-3" d="M811,1797.15a106.13,106.13,0,0,1-22.95,1.1l0.66-11.24a94.88,94.88,0,0,0,20.54-1Z" transform="translate(-601.32 -1502.99)"/><path class="cls-3" d="M900.74,1692.12a107.91,107.91,0,0,1-6.61,37,106.42,106.42,0,0,1-19.1,32.33l-8.53-7.34a95.16,95.16,0,0,0,17.08-28.9,96.64,96.64,0,0,0,5.91-33.05h11.26Z" transform="translate(-601.32 -1502.99)"/><polygon class="cls-3" points="233.56 287.47 230.03 288.86 226.12 278.31 229.28 277.06 233.56 287.47"/><path class="cls-3" d="M850.42,1782.49c-1.05.71-2.18,1.29-3.27,1.94l-5.59-9.77c1-.58,2-1.1,2.92-1.73Z" transform="translate(-601.32 -1502.99)"/><polygon class="cls-3" points="265.97 266.52 264.6 267.83 263.16 269.08 255.74 260.61 257.02 259.5 258.25 258.33 265.97 266.52"/><path class="cls-3" d="M881.43,1826a159.51,159.51,0,0,1-130.19,19.86l2.3-8.19a151,151,0,0,0,123.27-18.81Z" transform="translate(-601.32 -1502.99)"/><path class="cls-3" d="M951.58,1720.4a165.55,165.55,0,0,1-11.25,36.71,162.85,162.85,0,0,1-19.73,33l-6.72-5.22a154.35,154.35,0,0,0,18.68-31.19,157.06,157.06,0,0,0,10.66-34.78Z" transform="translate(-601.32 -1502.99)"/><path class="cls-3" d="M932,1611.09a159.55,159.55,0,0,1,22,87.62l-8.5-.36a151,151,0,0,0-20.8-83Z" transform="translate(-601.32 -1502.99)"/><path class="cls-3" d="M836.63,1538.07l5.48,1.65c0.91,0.28,1.83.53,2.73,0.84l2.7,1c1.79,0.66,3.61,1.25,5.37,2l5.29,2.2a156.9,156.9,0,0,1,20.27,10.61A153,153,0,0,1,897,1569.71l2.2,1.83,2.11,1.93c1.4,1.3,2.84,2.55,4.2,3.89l4,4.06c1.36,1.34,2.58,2.81,3.87,4.21l-6.34,5.66c-1.23-1.33-2.38-2.72-3.67-4l-3.82-3.85c-1.28-1.27-2.65-2.45-4-3.68l-2-1.83-2.09-1.73A144.45,144.45,0,0,0,874,1563.53a148.41,148.41,0,0,0-19.19-10l-5-2.08c-1.67-.68-3.4-1.24-5.09-1.86l-2.55-.91c-0.85-.29-1.73-0.53-2.59-0.8l-5.19-1.57Z" transform="translate(-601.32 -1502.99)"/><path class="cls-3" d="M973.18,1668.95a189.16,189.16,0,0,1,1.53,23.17H961.27a175.8,175.8,0,0,0-1.42-21.46Z" transform="translate(-601.32 -1502.99)"/><path class="cls-3" d="M614.09,1692.12a189.18,189.18,0,0,1,1.53-23.17l13.33,1.71a175.78,175.78,0,0,0-1.42,21.46H614.09Z" transform="translate(-601.32 -1502.99)"/><path class="cls-3" d="M947.59,1597a175.48,175.48,0,0,1,17.05,35.66L952,1637.12a162,162,0,0,0-15.78-33Z" transform="translate(-601.32 -1502.99)"/><path class="cls-3" d="M711.62,1531.95a181.12,181.12,0,0,1,36.89-14.23l3.41,13a167.68,167.68,0,0,0-34.12,13.16Z" transform="translate(-601.32 -1502.99)"/><path class="cls-3" d="M615.62,1715.28a189.18,189.18,0,0,1-1.53-23.17h13.44a175.78,175.78,0,0,0,1.42,21.46Z" transform="translate(-601.32 -1502.99)"/><path class="cls-3" d="M974.72,1692.12a189.16,189.16,0,0,1-1.53,23.17l-13.33-1.71a175.8,175.8,0,0,0,1.42-21.46h13.44Z" transform="translate(-601.32 -1502.99)"/><path class="cls-3" d="M641.22,1787.21a175.48,175.48,0,0,1-17.05-35.66l12.69-4.43a162,162,0,0,0,15.78,33Z" transform="translate(-601.32 -1502.99)"/><path class="cls-3" d="M877.18,1852.29a181.12,181.12,0,0,1-36.89,14.23l-3.41-13A167.69,167.69,0,0,0,871,1840.35Z" transform="translate(-601.32 -1502.99)"/><path class="cls-3" d="M843.35,1503a199.82,199.82,0,0,1,30.34,10.63A187.55,187.55,0,0,1,901.88,1529a195.6,195.6,0,0,1,46.94,43.53c26.48,33.77,40.95,76.7,40.91,119.54H961.16a167,167,0,0,0-75-139.24,159,159,0,0,0-24.06-13.16,171.26,171.26,0,0,0-25.87-9.07Z" transform="translate(-601.32 -1502.99)"/><path class="cls-3" d="M774.71,1886.45a196.11,196.11,0,0,1-136.22-76.71,200.73,200.73,0,0,1-17.17-27.15c-1.2-2.4-2.51-4.74-3.6-7.19l-3.31-7.33-3-7.48c-1-2.49-1.76-5.07-2.65-7.6a202.36,202.36,0,0,1-7.49-31.26l28.24-4.3a173.84,173.84,0,0,0,6.39,26.66c0.76,2.16,1.41,4.35,2.25,6.48l2.52,6.38,2.83,6.25c0.92,2.09,2.06,4.09,3.07,6.14a172.2,172.2,0,0,0,14.66,23.19A167.54,167.54,0,0,0,777.56,1858Z" transform="translate(-601.32 -1502.99)"/><path class="cls-3" d="M989.72,1692.12l-0.16,6.63-0.09,3.32-0.24,3.31-0.51,6.62-0.83,6.59-0.43,3.29-0.58,3.27-1.18,6.54-1.49,6.48c-0.26,1.08-.48,2.16-0.77,3.23l-0.9,3.2L955,1736.95l0.78-2.73c0.26-.91.43-1.84,0.66-2.76l1.28-5.52,1-5.58,0.5-2.79,0.36-2.81,0.72-5.63,0.43-5.66,0.22-2.83,0.07-2.84,0.15-5.68h28.57Z" transform="translate(-601.32 -1502.99)"/></g></g></g></svg>