<svg id="Layer_5" data-name="Layer 5" xmlns="http://www.w3.org/2000/svg" viewBox="0 0 515.16 574.9"><defs><style>.cls-1,.cls-2{fill:#03a6ff;}.cls-1,.cls-3{opacity:0.3;}.cls-3{fill:#00558d;}</style></defs><title>border34</title><polygon class="cls-1" points="147.27 2.98 82.78 67.46 82.78 215.64 50.4 248.02 50.97 118.98 22.44 90.45 22.44 31.2 82.78 31.2 111.31 2.69 147.27 2.98"/><polygon class="cls-1" points="492.72 484.45 492.72 543.69 432.38 543.69 403.86 572.22 367.9 571.92 432.38 507.44 432.38 359.25 464.76 326.88 464.2 455.92 464.2 455.93 492.72 484.45"/><polygon class="cls-2" points="324.14 34.37 307.54 17.78 290.86 17.82 307.42 34.37 324.14 34.37"/><polygon class="cls-2" points="349.44 34.37 332.84 17.78 316.16 17.82 332.72 34.37 349.44 34.37"/><polygon class="cls-2" points="374.74 34.37 358.14 17.78 341.46 17.82 358.02 34.37 374.74 34.37"/><polygon class="cls-2" points="400.04 34.37 383.44 17.78 366.76 17.82 383.32 34.37 400.04 34.37"/><polygon class="cls-2" points="425.34 34.37 408.75 17.78 392.06 17.82 408.62 34.37 425.34 34.37"/><polygon class="cls-2" points="60.8 22.3 77.1 22.3 96.72 2.68 62.76 2.68 71.58 11.51 60.8 22.3"/><polygon class="cls-2" points="49.63 22.3 55.54 22.3 66.33 11.5 57.52 2.68 51.72 2.68 60.41 11.51 49.63 22.3"/><polygon class="cls-2" points="39.49 22.3 45.41 22.3 56.2 11.5 47.39 2.68 41.59 2.68 50.28 11.51 39.49 22.3"/><polygon class="cls-2" points="35.27 22.3 46.07 11.5 37.26 2.68 31.46 2.68 40.15 11.51 29.36 22.3 35.27 22.3"/><path class="cls-2" d="M2866.68,382.16V175.38l-11.25-11.25h-203l-39.72-39.71h-151l-28.53,28.53h-61.92v63l28.53,28.53v148.8l-48.28,48.27V648.37l11.25,11.25h203l39.72,39.71h151L2785,670.8h61.92v-63l-28.53-28.53V430.43Zm-51,47.16v151l28.53,28.53V645.5l-22.6,22.61H2783.9l-28.53,28.53h-148.8l-48.28-48.27H2364V432.89l38.46-38.46v-151L2374,214.87V178.24l22.61-22.6h37.73l28.53-28.53h148.8l48.28,48.27h194.28V390.85Z" transform="translate(-2351.52 -124.42)"/><polygon class="cls-2" points="191.03 540.52 207.63 557.12 224.31 557.08 207.75 540.52 191.03 540.52"/><polygon class="cls-2" points="165.73 540.52 182.32 557.12 199.01 557.08 182.45 540.52 165.73 540.52"/><polygon class="cls-2" points="140.43 540.52 157.02 557.12 173.71 557.08 157.15 540.52 140.43 540.52"/><polygon class="cls-2" points="115.13 540.52 131.72 557.12 148.41 557.08 131.85 540.52 115.13 540.52"/><polygon class="cls-2" points="89.82 540.52 106.42 557.12 123.11 557.08 106.55 540.52 89.82 540.52"/><polygon class="cls-2" points="454.37 552.6 438.06 552.6 418.45 572.21 452.41 572.21 443.58 563.38 454.37 552.6"/><polygon class="cls-2" points="465.54 552.6 459.63 552.6 448.83 563.4 457.65 572.21 463.45 572.21 454.76 563.38 465.54 552.6"/><polygon class="cls-2" points="475.67 552.6 469.76 552.6 458.96 563.4 467.78 572.21 473.58 572.21 464.89 563.38 475.67 552.6"/><polygon class="cls-2" points="479.89 552.6 469.1 563.4 477.91 572.21 483.71 572.21 475.02 563.38 485.81 552.6 479.89 552.6"/><polygon class="cls-3" points="502.66 50.96 502.66 266.43 464.2 304.9 464.2 327.44 432.38 359.25 432.38 507.44 367.9 571.92 403.86 572.22 255.05 572.22 206.78 523.95 12.5 523.95 12.5 308.47 50.97 270 50.97 247.46 82.78 215.64 82.78 67.46 147.27 2.98 111.31 2.69 260.11 2.69 308.39 50.96 502.66 50.96"/></svg>