<svg id="Layer_1" data-name="Layer 1" xmlns="http://www.w3.org/2000/svg" viewBox="0 0 926.7 471.46"><defs><style>.cls-1{fill:#02a6ff;}</style></defs><title>border18</title><g id="_编组_" data-name="&lt;编组&gt;"><g id="_编组_2" data-name="&lt;编组&gt;"><path id="_复合路径_" data-name="&lt;复合路径&gt;" class="cls-1" d="M3182.93,468.3H2926.31v-1.67h256.61v1.67Zm-275,0H2651.36v-1.67H2908v1.67Zm-275,0H2451.72v-77h1.67v75.32H2633v1.67Zm564.76-10.12-1.18-1.18,107.5-107.5V245.62h1.67V350.2l-0.24.25ZM2453.38,373h-1.67V181.66L2582.2,51.18h73.11v1.67h-72.42L2453.38,182.35V373Zm852.38-145.7h-1.67V52.85h-80.52V51.18h82.19V227.27ZM3205.23,52.85H2948.62V51.18h256.61v1.67Zm-275,0H2673.66V51.18h256.61v1.67Z" transform="translate(-2414.79 -26.06)"/></g><polygon id="_路径_" data-name="&lt;路径&gt;" class="cls-1" points="0 365.65 5.27 365.65 5.27 155.06 0 162.03 0 365.65"/><polygon id="_路径_2" data-name="&lt;路径&gt;" class="cls-1" points="16.69 310.12 9.41 310.12 9.41 152.19 161.6 0 345 0 345 7.28 164.61 7.28 16.69 155.2 16.69 310.12"/><polygon id="_路径_3" data-name="&lt;路径&gt;" class="cls-1" points="919.43 161.34 926.7 161.34 926.7 319.27 774.51 471.46 591.12 471.46 591.12 464.19 771.5 464.19 919.43 316.26 919.43 161.34"/></g></svg>