<svg id="Layer_1" data-name="Layer 1" xmlns="http://www.w3.org/2000/svg" viewBox="0 0 111.5 88.33"><defs><style>.cls-1,.cls-2{fill:#00aeef;}.cls-2{opacity:0.3;}</style></defs><title>border11</title><path class="cls-1" d="M580.21,167l-21.39,0-5-4-52.27,0-4.62,4H475.12V152.46l6-5.67V103.55l-6-5.33,0.05-15h21.25l5,4,52.27,0,4.62-4,21.94,0,0,15-6,5.33v43.24l6,5.68V167Zm-21-1,20,0V152.88l-6-5.67V103.1l6-5.33,0-13.52-20.56,0-4.62,4-53,0-5-4H476.17l0,13.59,6,5.33v44.12l-6,5.67v13h20.44l4.62-4,53,0Z" transform="translate(-475 -83.17)"/><rect class="cls-1" y="20.32" width="1" height="42.68"/><path class="cls-1" d="M481.92,100.85l-3.58-3.12,0-11.57,17.2,0L500,89.79l-18,0v11.08Zm-2.58-3.58,1.58,1.38V88.77h16.21l-2-1.58-15.84,0,0,2.11v8Z" transform="translate(-475 -83.17)"/><path class="cls-1" d="M481.92,162.92h-3.58v-9.48l3.58-3.12v12.6Zm-2.58-1h1.58v-9.4l-1.58,1.38v8Z" transform="translate(-475 -83.17)"/><rect class="cls-1" x="37.17" y="83" width="2.16" height="1"/><polygon class="cls-1" points="90.5 88.33 83.33 88.33 77.67 84 43 84 43 83 78 83 83.67 87.33 90.5 87.33 90.5 88.33"/><rect class="cls-1" x="92.38" y="87.33" width="5.87" height="1"/><polygon class="cls-1" points="111.5 88.33 100.38 88.33 100.38 87.33 110.5 87.33 110.5 69.54 104.25 63.2 104.25 54.33 105.25 54.33 105.25 62.79 111.5 69.13 111.5 88.33"/><rect class="cls-1" x="104.25" y="48" width="1" height="3.66"/><rect class="cls-1" x="104.25" y="20.32" width="1" height="25.01"/><path class="cls-1" d="M573.34,99.85V87.25h3.58v9.48Zm1-11.6v9.4l1.58-1.38v-8h-1.58Z" transform="translate(-475 -83.17)"/><path class="cls-1" d="M576.92,162.92h-3.58v-12.6l3.58,3.12v9.48Zm-2.58-1h1.58v-8l-1.58-1.38v9.4Z" transform="translate(-475 -83.17)"/><rect class="cls-2" x="12" y="9.16" width="81.33" height="66"/><rect class="cls-1" x="26.33" y="0.16" width="51.5" height="1"/></svg>