<svg xmlns="http://www.w3.org/2000/svg" viewBox="0 0 489.45 292.24"><defs><style>.cls-1{isolation:isolate;}.cls-2{fill:#0071bc;}.cls-3,.cls-4,.cls-6{fill:#fff;}.cls-4,.cls-6{mix-blend-mode:overlay;}.cls-5{fill:#29abe2;}.cls-6{opacity:0.69;}</style></defs><title>border4</title><g class="cls-1"><polygon class="cls-2" points="76.02 17.47 104.75 17.47 112.37 9.86 405.38 9.86 397.96 17.26 110.64 17.26 103.18 24.73 71.56 24.73 56.61 9.78 68.33 9.78 76.02 17.47"/><polygon class="cls-2" points="423.52 9.79 453.51 9.79 467.74 24.01 467.74 36.2 477.31 45.77 481.22 45.77 485.56 50.11 485.56 41.73 474.91 31.08 474.91 19.72 457.16 1.97 417.63 1.97 409.78 9.82 423.52 9.79"/><path class="cls-3" d="M537,100.1V299.64l0,0-27.6,27.6H470.88L455.66,342.5H101.51l-2.76,2.08H68.68l0,0-9.31-9.31V92.06l0,0,24-24h36.46l0,0,7.64,7.64H172.4l7.69-7.69H505l0,0Zm-0.33,199.41V100.23L504.84,68.39H180.23l-7.69,7.69h-45.2l0,0-7.64-7.64H83.46L59.65,92.2V335.08l9.17,9.17H98.64l2.76-2.08H455.52L470.74,327h38.48Z" transform="translate(-51.39 -58.44)"/><polygon class="cls-4" points="49.24 281.81 19.88 281.81 17.77 283.89 46.49 283.89 49.24 281.81"/><polygon class="cls-2" points="8.07 276.71 8.07 252.43 2.85 257.64 2.85 282.87 12.23 292.24 66.86 292.24 75.22 283.89 82.4 276.71 65.92 276.71 58.74 283.89 50.06 283.89 47.31 285.98 18.59 285.98 18.57 285.99 17.35 285.99 8.07 276.71"/><polygon class="cls-3" points="445.66 257.94 445.66 259.26 416.59 259.26 391.29 284.55 78.4 284.55 78.4 283.23 390.75 283.23 416.04 257.94 445.66 257.94"/><polygon class="cls-3" points="14.54 39.74 14.54 76.01 8.99 81.56 8.99 230 3.19 235.8 3.19 248.14 2.52 248.14 2.52 235.52 8.33 229.72 8.33 81.28 13.88 75.73 13.88 39.74 14.54 39.74"/><polygon class="cls-3" points="489.29 244.76 459.73 274.32 435.6 274.32 435.6 273 459.19 273 488.35 243.83 489.29 244.76"/><path class="cls-3" d="M540.84,287.79h-1.27v-2.54h1.27v2.54Zm0-3.81h-1.27v-6.35h1.27V284Zm0-8.88h-1.27v-1.27h1.27v1.27Zm0-7.62h-1.27v-2.54h1.27v2.54Zm0-3.81h-1.27v-6.35h1.27v6.35Zm0-8.88h-1.27v-1.27h1.27v1.27Zm0-7.62h-1.27v-2.54h1.27v2.54Zm0-3.81h-1.27V237h1.27v6.35Zm0-8.88h-1.27v-1.27h1.27v1.27Zm0-7.62h-1.27v-2.54h1.27v2.54Zm0-3.81h-1.27v-6.35h1.27v6.35Zm0-8.88h-1.27V212.9h1.27v1.27Zm0-7.62h-1.27V204h1.27v2.54Zm0-3.81h-1.27V196.4h1.27v6.35Zm0-8.88h-1.27V192.6h1.27v1.27Zm0-7.62h-1.27v-2.54h1.27v2.54Zm0-3.81h-1.27V176.1h1.27v6.35Zm0-8.88h-1.27v-1.27h1.27v1.27Zm0-7.62h-1.27V163.4h1.27v2.54Zm0-3.81h-1.27v-6.35h1.27v6.35Zm0-8.88h-1.27V152h1.27v1.27Zm0-7.62h-1.27V143.1h1.27v2.54Zm0-3.81h-1.27v-6.35h1.27v6.35Zm0-8.88h-1.27v-1.27h1.27v1.27Zm0-7.62h-1.27v-2.54h1.27v2.54Zm0-3.81h-1.27v-6.35h1.27v6.35Zm0-8.88h-1.27v-1.27h1.27v1.27Z" transform="translate(-51.39 -58.44)"/><polygon class="cls-3" points="101.06 11.21 101.06 12.53 82.25 12.53 71.04 1.32 32.23 1.32 1.32 32.23 1.32 43.36 0 43.36 0 31.68 31.68 0 71.59 0 82.79 11.21 101.06 11.21"/><polygon class="cls-5" points="419.36 268.52 444.23 268.52 439.42 263.71 419.36 263.71 406.33 276.74 406.33 281.77 419.36 268.52"/><polygon class="cls-4" points="7.93 74.8 5.84 72.71 5.84 33.38 14.53 24.69 17.33 24.69 10.3 31.72 10.3 51.92 7.95 54.28 7.93 74.8"/><path class="cls-3" d="M57.87,138.22v1.14H57.21v-1.14h0.66Zm0,2.47v6.61H57.21v-6.61h0.66Zm0,9.25v1.32H57.21v-1.32h0.66Zm0,126.14v2.64H57.21v-2.64h0.66Zm0,4v6l-0.59.59-0.47-.47,0.4-.4V280h0.66Zm-2.46,8.5-0.93.93L54,289l0.93-.93Z" transform="translate(-51.39 -58.44)"/><path class="cls-3" d="M108,338.52v0.66h-1.32v-0.66H108Zm-4,0v0.66H97.43v-0.66H104Zm-7.93,0v0.66H93.46v-0.66H96.1Zm-9.25,0v0.66H85.53v-0.66h1.32Zm-4,0v0.66H76.28v-0.66h6.61Zm-7.93,0v0.66H72.32v-0.66H75Zm-7.82-2.79-0.47.47-0.93-.93,0.47-.47Zm-2.8-2.8-0.47.47-1.11-1.11V327h0.66v5ZM63.42,304v0.52H62.76V304h0.66Zm0,1.84v6.61H62.76v-6.61h0.66Zm0,9.25v1.32H62.76v-1.32h0.66Zm0,7.93v2.64H62.76V323h0.66Z" transform="translate(-51.39 -58.44)"/><polygon class="cls-3" points="405.4 286.63 412.46 279.57 443.45 279.57 438.85 284.17 415.65 284.17 408.61 291.2 133.41 291.2 128.84 286.63 405.4 286.63"/><rect class="cls-3" x="422.01" y="277.88" width="30.07" height="0.66"/><rect class="cls-3" x="416.08" y="276" width="41.18" height="0.66"/><rect class="cls-3" x="76.26" y="286.91" width="48.04" height="0.66"/><polygon class="cls-3" points="87.64 14.8 87.64 15.46 78.83 15.46 68.58 5.21 33.5 5.21 33.5 4.55 68.86 4.55 79.1 14.8 87.64 14.8"/><path class="cls-4" d="M497.14,308.82H102.86a4,4,0,0,1-4-4V103.22a4,4,0,0,1,4-4H497.14a4,4,0,0,1,4,4v201.6A4,4,0,0,1,497.14,308.82ZM102.86,99.72a3.51,3.51,0,0,0-3.5,3.5v201.6a3.51,3.51,0,0,0,3.5,3.5H497.14a3.5,3.5,0,0,0,3.5-3.5V103.22a3.51,3.51,0,0,0-3.5-3.5H102.86Z" transform="translate(-51.39 -58.44)"/><path class="cls-6" d="M497.14,308.82H102.86a4,4,0,0,1-4-4V103.22a4,4,0,0,1,4-4H497.14a4,4,0,0,1,4,4v201.6A4,4,0,0,1,497.14,308.82ZM102.86,99.72a3.51,3.51,0,0,0-3.5,3.5v201.6a3.51,3.51,0,0,0,3.5,3.5H497.14a3.5,3.5,0,0,0,3.5-3.5V103.22a3.51,3.51,0,0,0-3.5-3.5H102.86Z" transform="translate(-51.39 -58.44)"/></g></svg>