<svg id="Layer_1" data-name="Layer 1" xmlns="http://www.w3.org/2000/svg" viewBox="0 0 325.13 138.02"><defs><style>.cls-1{fill:#02a6ff;}</style></defs><title>border21</title><g id="_编组_" data-name="&lt;编组&gt;"><polygon id="_路径_" data-name="&lt;路径&gt;" class="cls-1" points="325.13 54.93 322.53 54.93 322.53 2.6 266.3 2.6 266.3 0 325.13 0 325.13 54.93"/><g id="_编组_2" data-name="&lt;编组&gt;"><polygon id="_路径_2" data-name="&lt;路径&gt;" class="cls-1" points="5.2 16.66 22.54 16.66 22.54 11.46 0 11.46 0 133.67 198.48 133.67 198.48 128.47 5.2 128.47 5.2 16.66"/><polygon id="_路径_3" data-name="&lt;路径&gt;" class="cls-1" points="49.41 11.46 49.41 16.66 310.29 16.66 310.29 128.47 260.02 128.47 260.02 133.67 315.49 133.67 315.49 11.46 49.41 11.46"/></g></g><g id="_编组_3" data-name="&lt;编组&gt;"><polygon id="_路径_4" data-name="&lt;路径&gt;" class="cls-1" points="17.07 128.47 26.62 138.02 137.13 138.02 146.68 128.47 17.07 128.47"/></g></svg>