<svg id="Layer_1" data-name="Layer 1" xmlns="http://www.w3.org/2000/svg" viewBox="0 0 94.34 126.48"><defs><style>.cls-1{fill:#ba5bb2;}.cls-2{fill:#ff7df5;}</style></defs><title>border8</title><path class="cls-1" d="M120.47,282H36.19a4.91,4.91,0,0,1-4.91-4.91V160.68a4.91,4.91,0,0,1,4.91-4.91h84.28a4.91,4.91,0,0,1,4.91,4.91V277.09A4.91,4.91,0,0,1,120.47,282ZM36.19,156.27a4.41,4.41,0,0,0-4.41,4.41V277.09a4.41,4.41,0,0,0,4.41,4.41h84.28a4.41,4.41,0,0,0,4.41-4.41V160.68a4.41,4.41,0,0,0-4.41-4.41H36.19Z" transform="translate(-31.16 -155.65)"/><path class="cls-2" d="M120.47,282.13H101.23v-0.75h19.24a4.29,4.29,0,0,0,4.28-4.28V266.24h0.75v10.85A5,5,0,0,1,120.47,282.13Z" transform="translate(-31.16 -155.65)"/><path class="cls-2" d="M44.66,282.13H36.19a5,5,0,0,1-5-5V254.82h0.75v22.28a4.29,4.29,0,0,0,4.28,4.28h8.46v0.75Z" transform="translate(-31.16 -155.65)"/><path class="cls-2" d="M31.91,170.08H31.16v-9.4a5,5,0,0,1,5-5H53.57v0.75H36.19a4.29,4.29,0,0,0-4.28,4.28v9.4Z" transform="translate(-31.16 -155.65)"/><path class="cls-2" d="M125.5,186.92h-0.75V160.68a4.29,4.29,0,0,0-4.28-4.28h-11.4v-0.75h11.4a5,5,0,0,1,5,5v26.24Z" transform="translate(-31.16 -155.65)"/></svg>