<svg id="Layer_1" data-name="Layer 1" xmlns="http://www.w3.org/2000/svg" viewBox="0 0 66.2 27.45"><defs><style>.cls-1{fill:#154666;}.cls-2{fill:#5cdeff;}</style></defs><title>border6</title><path class="cls-1" d="M412.35,343.21H346.91a0.25,0.25,0,0,1-.25-0.25v-26.7a0.25,0.25,0,0,1,.25-0.25h65.45a0.25,0.25,0,0,1,.25.25V343A0.25,0.25,0,0,1,412.35,343.21Zm-65.2-.5H412.1v-26.2H347.16v26.2Z" transform="translate(-346.53 -315.89)"/><polygon class="cls-2" points="0.75 9.94 0 9.94 0 0 12.96 0 12.96 0.75 0.75 0.75 0.75 9.94"/><polygon class="cls-2" points="66.2 27.45 36.89 27.45 36.89 26.7 65.45 26.7 65.45 20.79 66.2 20.79 66.2 27.45"/></svg>