<svg id="Layer_1" data-name="Layer 1" xmlns="http://www.w3.org/2000/svg" viewBox="0 0 224.18 138.66"><defs><style>.cls-1{fill:aqua;}</style></defs><title>border46</title><path id="_复合路径_" data-name="&lt;复合路径&gt;" class="cls-1" d="M618.24,516.86h-181L437,422l32.5-27.48H650.1v95.15l-0.17.14Zm-180-1H617.89l31.25-26.63V395.52H469.82l-31.89,27Z" transform="translate(-429.04 -387.72)"/><polygon id="_路径_" data-name="&lt;路径&gt;" class="cls-1" points="2.8 60.78 1.84 60.78 1.84 34.32 37.68 3.32 61.85 3.32 61.85 4.28 38.04 4.28 2.8 34.76 2.8 60.78"/><rect id="_矩形_" data-name="&lt;矩形&gt;" class="cls-1" x="2.32" y="36.62" width="1.44" height="2.96"/><rect id="_矩形_2" data-name="&lt;矩形&gt;" class="cls-1" x="2.32" y="41.66" width="1.44" height="2.96"/><rect id="_矩形_3" data-name="&lt;矩形&gt;" class="cls-1" x="2.32" y="46.7" width="1.44" height="2.96"/><rect id="_矩形_4" data-name="&lt;矩形&gt;" class="cls-1" x="2.32" y="51.74" width="1.44" height="2.96"/><rect id="_矩形_5" data-name="&lt;矩形&gt;" class="cls-1" x="2.32" y="56.79" width="1.44" height="2.96"/><rect id="_矩形_6" data-name="&lt;矩形&gt;" class="cls-1" x="39.2" y="1.8" width="2.46" height="2"/><rect id="_矩形_7" data-name="&lt;矩形&gt;" class="cls-1" x="43.88" y="1.8" width="2.46" height="2"/><rect id="_矩形_8" data-name="&lt;矩形&gt;" class="cls-1" x="48.56" y="1.8" width="2.46" height="2"/><rect id="_矩形_9" data-name="&lt;矩形&gt;" class="cls-1" x="53.25" y="1.8" width="2.46" height="2"/><rect id="_矩形_10" data-name="&lt;矩形&gt;" class="cls-1" x="57.93" y="1.8" width="2.46" height="2"/><rect id="_矩形_11" data-name="&lt;矩形&gt;" class="cls-1" x="221.23" y="22.69" width="2.96" height="65.31"/><polygon id="_路径_2" data-name="&lt;路径&gt;" class="cls-1" points="73 7.32 78.3 2.02 156.83 2.02 162.16 7.36 73 7.32"/><polygon id="_路径_3" data-name="&lt;路径&gt;" class="cls-1" points="161.59 5.27 157.28 0.96 88.72 0.96 88.72 0 157.68 0 162.27 4.59 161.59 5.27"/><polygon id="_路径_4" data-name="&lt;路径&gt;" class="cls-1" points="29.33 128.66 34.39 133.73 161.93 133.73 167.78 128.66 29.33 128.66"/><rect id="_路径_5" data-name="&lt;路径&gt;" class="cls-1" x="34.98" y="134.9" width="120.7" height="0.96"/><rect id="_矩形_12" data-name="&lt;矩形&gt;" class="cls-1" x="127.26" y="135.38" width="28.41" height="3.28"/><rect id="_矩形_13" data-name="&lt;矩形&gt;" class="cls-1" x="174.52" y="127.62" width="8.14" height="0.86"/><polygon id="_路径_6" data-name="&lt;路径&gt;" class="cls-1" points="0.96 128.01 0 128.01 0 77.15 7.74 69.41 8.42 70.09 0.96 77.55 0.96 128.01"/><rect id="_矩形_14" data-name="&lt;矩形&gt;" class="cls-1" x="6.81" y="64.07" width="2.48" height="6.44"/><rect id="_矩形_15" data-name="&lt;矩形&gt;" class="cls-1" x="170.96" y="3.41" width="0.48" height="7.82"/><rect id="_矩形_16" data-name="&lt;矩形&gt;" class="cls-1" x="174.53" y="3.41" width="0.48" height="7.82"/><rect id="_矩形_17" data-name="&lt;矩形&gt;" class="cls-1" x="178.1" y="3.41" width="0.48" height="7.82"/><rect id="_矩形_18" data-name="&lt;矩形&gt;" class="cls-1" x="181.68" y="3.41" width="0.48" height="7.82"/><rect id="_矩形_19" data-name="&lt;矩形&gt;" class="cls-1" x="185.25" y="3.41" width="0.48" height="7.82"/><rect id="_矩形_20" data-name="&lt;矩形&gt;" class="cls-1" x="188.82" y="3.41" width="0.48" height="7.82"/><rect id="_矩形_21" data-name="&lt;矩形&gt;" class="cls-1" x="192.39" y="3.41" width="0.48" height="7.82"/><rect id="_矩形_22" data-name="&lt;矩形&gt;" class="cls-1" x="195.96" y="3.41" width="0.48" height="7.82"/><rect id="_矩形_23" data-name="&lt;矩形&gt;" class="cls-1" x="199.53" y="3.41" width="0.48" height="7.82"/><rect id="_矩形_24" data-name="&lt;矩形&gt;" class="cls-1" x="203.11" y="3.41" width="0.48" height="7.82"/><rect id="_矩形_25" data-name="&lt;矩形&gt;" class="cls-1" x="206.68" y="3.41" width="0.48" height="7.82"/><rect id="_矩形_26" data-name="&lt;矩形&gt;" class="cls-1" x="210.25" y="3.41" width="0.48" height="7.82"/><rect id="_矩形_27" data-name="&lt;矩形&gt;" class="cls-1" x="213.82" y="3.41" width="0.48" height="7.82"/><rect id="_矩形_28" data-name="&lt;矩形&gt;" class="cls-1" x="217.39" y="3.41" width="0.48" height="7.82"/><rect id="_矩形_29" data-name="&lt;矩形&gt;" class="cls-1" x="33.3" y="127.14" width="9.12" height="3.2"/><rect id="_矩形_30" data-name="&lt;矩形&gt;" class="cls-1" x="50.91" y="127.14" width="9.12" height="3.2"/><rect id="_矩形_31" data-name="&lt;矩形&gt;" class="cls-1" x="68.51" y="127.14" width="9.12" height="3.2"/><rect id="_矩形_32" data-name="&lt;矩形&gt;" class="cls-1" x="86.12" y="127.14" width="9.12" height="3.2"/><rect id="_矩形_33" data-name="&lt;矩形&gt;" class="cls-1" x="103.73" y="127.14" width="9.12" height="3.2"/><rect id="_矩形_34" data-name="&lt;矩形&gt;" class="cls-1" x="121.34" y="127.14" width="9.12" height="3.2"/><rect id="_矩形_35" data-name="&lt;矩形&gt;" class="cls-1" x="138.95" y="127.14" width="9.12" height="3.2"/><rect id="_矩形_36" data-name="&lt;矩形&gt;" class="cls-1" x="156.55" y="127.14" width="9.12" height="3.2"/><polygon id="_路径_7" data-name="&lt;路径&gt;" class="cls-1" points="8.57 81.2 10.29 82.92 10.29 124.58 8.87 126 8.57 81.2"/><polygon id="_路径_8" data-name="&lt;路径&gt;" class="cls-1" points="12.41 106.41 11.45 106.41 11.45 83.24 8.07 79.86 8.74 79.18 12.41 82.84 12.41 106.41"/></svg>