<svg xmlns="http://www.w3.org/2000/svg" viewBox="0 0 410 291.89"><defs><style>.cls-1{isolation:isolate;}.cls-2,.cls-5{mix-blend-mode:overlay;}.cls-3,.cls-5{fill:#fff;}.cls-4{fill:#00c2ff;}</style></defs><title>border2</title><g class="cls-1"><g id="Layer_1" data-name="Layer 1"><g class="cls-2"><path class="cls-3" d="M173.93,295.54a23.81,23.81,0,0,0-7.37-16.64l-0.09-.08-0.1.1a23.62,23.62,0,0,0-13.08-6.34l-0.29,2a21.47,21.47,0,0,0-6.77.1l-0.38-2.08-0.1,0a23.91,23.91,0,0,0-19.63,22.82v0.11h0.06c0,0.19,0,.37,0,0.56a23.66,23.66,0,0,0,4.07,13.31l1.7-1.14a22,22,0,0,0,5.31,5.47L136,315.52l0.09,0.07A23.68,23.68,0,0,0,150,320.06a24,24,0,0,0,19.48-10l0.06-.09-0.15-.11a23.64,23.64,0,0,0,4.39-13.75h-2c0-.15,0-0.29,0-0.44l2.22-.06v-0.11Zm-28.24-22.65,0.34,1.86a21.78,21.78,0,0,0-11.7,6.28L133,279.72A23.57,23.57,0,0,1,145.69,272.89ZM150,319.83a23.43,23.43,0,0,1-13.64-4.36l1.11-1.56a21.62,21.62,0,0,0,12.53,4v1.93Zm0-2.39a21.3,21.3,0,1,1,21.31-21.3A21.33,21.33,0,0,1,150,317.45Zm21.75-22A21.64,21.64,0,0,0,167.28,283l1.59-1.21a23.62,23.62,0,0,1,4.83,13.63Z" transform="translate(-102.03 -46.1)"/><path class="cls-3" d="M175.39,296.15A25.43,25.43,0,1,0,150,321.57,25.46,25.46,0,0,0,175.39,296.15ZM150,321.26a25.11,25.11,0,1,1,25.11-25.11A25.14,25.14,0,0,1,150,321.26Z" transform="translate(-102.03 -46.1)"/><path class="cls-3" d="M150,271.24a24.9,24.9,0,1,0,24.91,24.9A24.93,24.93,0,0,0,150,271.24Zm0,49.48a24.58,24.58,0,1,1,24.59-24.58A24.61,24.61,0,0,1,150,320.73Z" transform="translate(-102.03 -46.1)"/><path class="cls-3" d="M150,276.63h-0.1v5.18H150v0.35a13.92,13.92,0,0,0-9.14,3.42l-2.58-3,0,0-1.07-1.25-0.09.07a19.59,19.59,0,0,0-6.19,10,19.69,19.69,0,0,0,2.76,15.86l0.07,0.09,4.29-2.89-0.07-.1s0-.09-0.09-0.13l0.54-.36a14,14,0,0,0,9.16,5.95l-0.68,3.87a18,18,0,0,0,14.31-3.67l1.25,1.5,0.08-.07a19.57,19.57,0,0,0,7.08-13.22v-0.1l-1.82-.18s0-.06,0-0.09l-3.91-.4a13.68,13.68,0,0,0,.07-1.41,13.9,13.9,0,0,0-2.09-7.35l0.38-.24,0.09,0.13,0.06,0.1,4.4-2.73-0.06-.09A19.61,19.61,0,0,0,150,276.63Zm-16.22,30.51a19.39,19.39,0,0,1-3.27-10.81,19.79,19.79,0,0,1,.59-4.79,19.35,19.35,0,0,1,6.05-9.87l0.94,1.09a17.89,17.89,0,0,0-2.95,23.38l2.54-1.71,0,0Zm34-8.9,1.61,0.16a19.39,19.39,0,0,1-6.91,12.91l-1.1-1.34h0A17.82,17.82,0,0,0,167.74,298.25Zm-5.16-2.1A12.62,12.62,0,1,1,150,283.53,12.63,12.63,0,0,1,162.58,296.15Zm-0.13-7.65,0,0,2.77-1.72a17.79,17.79,0,0,0-15.11-8.48v-1.4A19.38,19.38,0,0,1,166.48,286Z" transform="translate(-102.03 -46.1)"/><path class="cls-3" d="M163.26,288.36l0.2,0.38,1.61-.83-0.22-.42Z" transform="translate(-102.03 -46.1)"/><path class="cls-3" d="M165.14,295.69c0,0.16,0,.32,0,0.48l1.81,0.05c0-.18,0-0.35,0-0.53s0-.28,0-0.42l-1.81,0C165.14,295.44,165.14,295.57,165.14,295.69Z" transform="translate(-102.03 -46.1)"/><path class="cls-3" d="M165.12,294.88l1.81-.1q0-.48-0.08-1l-1.8.2Q165.1,294.45,165.12,294.88Z" transform="translate(-102.03 -46.1)"/><path class="cls-3" d="M164.86,292.76q0.08,0.42.14,0.84l1.8-.25q-0.06-.48-0.16-0.94Z" transform="translate(-102.03 -46.1)"/><path class="cls-3" d="M166.17,290.56q-0.14-.46-0.32-0.9l-1.69.64q0.15,0.4.28,0.81Z" transform="translate(-102.03 -46.1)"/><path class="cls-3" d="M165.67,289.21q-0.18-.44-0.39-0.88l-1.63.79q0.19,0.38.35,0.78Z" transform="translate(-102.03 -46.1)"/><path class="cls-3" d="M166.54,291.95q-0.1-.47-0.24-0.93l-1.74.5q0.12,0.41.21,0.83Z" transform="translate(-102.03 -46.1)"/><path class="cls-3" d="M165.09,297l1.81,0.16c0-.16,0-0.32,0-0.48l-1.81-.11C165.11,296.74,165.1,296.88,165.09,297Z" transform="translate(-102.03 -46.1)"/><path class="cls-3" d="M140.63,283.71l-1.12-1.43-0.37.3,1.16,1.4Z" transform="translate(-102.03 -46.1)"/><path class="cls-3" d="M143.81,281.81l-0.73-1.66-0.84.4,0.83,1.61Z" transform="translate(-102.03 -46.1)"/><path class="cls-3" d="M145,281.35l-0.6-1.71-0.86.33,0.69,1.68Z" transform="translate(-102.03 -46.1)"/><path class="cls-3" d="M147.35,280.73L147,278.95l-0.91.18,0.41,1.77Z" transform="translate(-102.03 -46.1)"/><path class="cls-3" d="M146.14,281l-0.46-1.75-0.89.26,0.55,1.73Z" transform="translate(-102.03 -46.1)"/><path class="cls-3" d="M142.7,282.36l-0.87-1.59q-0.41.22-.8,0.47l1,1.54Z" transform="translate(-102.03 -46.1)"/><path class="cls-3" d="M148.58,280.57l-0.16-1.81-0.92.11,0.26,1.79Z" transform="translate(-102.03 -46.1)"/><path class="cls-3" d="M141.63,283l-1-1.52q-0.39.25-.76,0.53l1.08,1.46Z" transform="translate(-102.03 -46.1)"/><path class="cls-3" d="M149.43,280.52l-0.06-1.81-0.48,0,0.11,1.81Z" transform="translate(-102.03 -46.1)"/><path class="cls-3" d="M146.56,310.49l-0.4,1.77,0.47,0.1,0.36-1.78Z" transform="translate(-102.03 -46.1)"/><path class="cls-3" d="M143.11,309.25l-0.82,1.62,0.83,0.39,0.73-1.66Z" transform="translate(-102.03 -46.1)"/><path class="cls-3" d="M142,308.65l-0.94,1.55,0.79,0.46,0.86-1.59Z" transform="translate(-102.03 -46.1)"/><path class="cls-3" d="M141,308L140,309.43,140.7,310l1-1.52Z" transform="translate(-102.03 -46.1)"/><path class="cls-3" d="M144.22,309.75l-0.69,1.68,0.86,0.32L145,310Z" transform="translate(-102.03 -46.1)"/><path class="cls-3" d="M139.16,306.37l-1.29,1.28q0.32,0.32.66,0.63l1.22-1.34Z" transform="translate(-102.03 -46.1)"/><path class="cls-3" d="M140.06,307.21l-1.18,1.37q0.35,0.3.71,0.58l1.11-1.44Z" transform="translate(-102.03 -46.1)"/><path class="cls-3" d="M145.37,310.17l-0.55,1.73,0.88,0.25,0.45-1.76Z" transform="translate(-102.03 -46.1)"/><path class="cls-3" d="M138.34,305.46L137,306.63q0.29,0.35.61,0.68l1.32-1.24Q138.6,305.78,138.34,305.46Z" transform="translate(-102.03 -46.1)"/><path class="cls-3" d="M137.82,304.81l-1.45,1.09,0.29,0.38,1.42-1.13Z" transform="translate(-102.03 -46.1)"/><path class="cls-3" d="M131.24,321.76c0.65,0.48,1.32.93,2,1.35l2.15-3.47c-0.59-.37-1.18-0.77-1.75-1.18Z" transform="translate(-102.03 -46.1)"/><path class="cls-3" d="M131.68,316.88l-2.7,3.06c0.6,0.53,1.23,1,1.87,1.53l2.46-3.25C132.75,317.8,132.2,317.35,131.68,316.88Z" transform="translate(-102.03 -46.1)"/><path class="cls-3" d="M122.9,301.84l-4,.84c0.17,0.79.36,1.58,0.59,2.35l3.92-1.14C123.21,303.22,123,302.53,122.9,301.84Z" transform="translate(-102.03 -46.1)"/><path class="cls-3" d="M128.2,313.21L125,315.73c0.5,0.63,1,1.25,1.56,1.84l3-2.75C129.1,314.3,128.64,313.76,128.2,313.21Z" transform="translate(-102.03 -46.1)"/><path class="cls-3" d="M126.73,311.15l-3.42,2.22c0.44,0.68.91,1.34,1.39,2l3.25-2.47C127.52,312.32,127.11,311.73,126.73,311.15Z" transform="translate(-102.03 -46.1)"/><path class="cls-3" d="M123.53,304.29l-3.9,1.2c0.24,0.77.51,1.54,0.8,2.28l3.79-1.5C124,305.63,123.74,305,123.53,304.29Z" transform="translate(-102.03 -46.1)"/><path class="cls-3" d="M125.45,309l-3.61,1.89c0.37,0.71.78,1.42,1.21,2.1l3.46-2.16C126.13,310.19,125.78,309.58,125.45,309Z" transform="translate(-102.03 -46.1)"/><path class="cls-3" d="M124.38,306.67l-3.77,1.56c0.31,0.74.65,1.48,1,2.2l3.64-1.84C124.95,308,124.65,307.32,124.38,306.67Z" transform="translate(-102.03 -46.1)"/><path class="cls-3" d="M181.11,302.18l-4-.77c-0.13.68-.29,1.38-0.48,2.06l3.93,1.07C180.78,303.76,181,303,181.11,302.18Z" transform="translate(-102.03 -46.1)"/><path class="cls-3" d="M171.31,319.61l-2.75-3-0.32.29,2.7,3.06Z" transform="translate(-102.03 -46.1)"/><path class="cls-3" d="M176.88,312.94l-3.46-2.16c-0.37.59-.77,1.18-1.19,1.75l3.29,2.42C176,314.29,176.46,313.62,176.88,312.94Z" transform="translate(-102.03 -46.1)"/><path class="cls-3" d="M175.23,315.33L172,312.86c-0.42.56-.88,1.11-1.34,1.63l3.05,2.71C174.23,316.6,174.74,316,175.23,315.33Z" transform="translate(-102.03 -46.1)"/><path class="cls-3" d="M178.31,310.41l-3.64-1.84c-0.31.62-.66,1.24-1,1.85l3.49,2.11C177.55,311.84,177.95,311.12,178.31,310.41Z" transform="translate(-102.03 -46.1)"/><path class="cls-3" d="M173.37,317.56l-3-2.75c-0.47.52-1,1-1.48,1.5l2.79,3C172.26,318.73,172.83,318.15,173.37,317.56Z" transform="translate(-102.03 -46.1)"/><path class="cls-3" d="M153.5,264.61c-0.8-.09-1.61-0.15-2.42-0.18l-0.14,4.08c0.7,0,1.41.08,2.11,0.15Z" transform="translate(-102.03 -46.1)"/><path class="cls-3" d="M162.69,271.6l1.88-3.62c-0.71-.37-1.45-0.72-2.19-1l-1.6,3.75C161.43,271,162.07,271.28,162.69,271.6Z" transform="translate(-102.03 -46.1)"/><path class="cls-3" d="M155.56,269.06l0.82-4c-0.79-.16-1.59-0.3-2.39-0.4l-0.51,4C154.17,268.81,154.87,268.92,155.56,269.06Z" transform="translate(-102.03 -46.1)"/><path class="cls-3" d="M170.64,277.8l3-2.71c-0.54-.6-1.1-1.19-1.67-1.75l-2.84,2.93C169.68,276.76,170.17,277.27,170.64,277.8Z" transform="translate(-102.03 -46.1)"/><path class="cls-3" d="M160.39,270.53l1.54-3.78c-0.74-.3-1.51-0.58-2.28-0.83l-1.25,3.88C159.08,270,159.75,270.27,160.39,270.53Z" transform="translate(-102.03 -46.1)"/><path class="cls-3" d="M164.88,272.87l2.2-3.43c-0.68-.43-1.38-0.85-2.09-1.23l-1.94,3.59C163.68,272.13,164.29,272.49,164.88,272.87Z" transform="translate(-102.03 -46.1)"/><path class="cls-3" d="M166.95,274.33l2.51-3.22c-0.63-.49-1.29-1-2-1.42l-2.26,3.4C165.82,273.49,166.4,273.9,166.95,274.33Z" transform="translate(-102.03 -46.1)"/><path class="cls-3" d="M168.87,276l2.79-3c-0.59-.55-1.2-1.08-1.83-1.59l-2.56,3.18C167.83,275,168.36,275.5,168.87,276Z" transform="translate(-102.03 -46.1)"/><path class="cls-3" d="M133.25,274.11l-2.47-3.25c-0.64.49-1.27,1-1.87,1.54l2.71,3.05C132.15,275,132.7,274.54,133.25,274.11Z" transform="translate(-102.03 -46.1)"/><path class="cls-3" d="M127.9,279.48L124.65,277c-0.48.64-1,1.31-1.39,2l3.43,2.21C127.07,280.62,127.48,280,127.9,279.48Z" transform="translate(-102.03 -46.1)"/><path class="cls-3" d="M123,279.41c-0.42.68-.83,1.39-1.2,2.1l3.62,1.88c0.32-.62.68-1.24,1-1.83Z" transform="translate(-102.03 -46.1)"/><path class="cls-3" d="M129.52,277.53l-3-2.75c-0.54.59-1.07,1.21-1.56,1.85l3.21,2.51C128.59,278.59,129,278,129.52,277.53Z" transform="translate(-102.03 -46.1)"/><path class="cls-3" d="M131.31,275.74l-2.75-3c-0.59.54-1.17,1.11-1.72,1.7l3,2.79C130.29,276.71,130.79,276.21,131.31,275.74Z" transform="translate(-102.03 -46.1)"/><path class="cls-3" d="M495.7,49.32H419.51L408.22,60.62H293L278.45,46.1H124.06l-22,22v45.82l11.5,11.5V170l-11,11v99.45l13.86,13.86c0,0.73-.08,1.45-0.08,2.2a33.36,33.36,0,0,0,27.36,32.77l8.72,8.72h26.68l5-5h7.35l5-5,25.08-25.09h256l24.33-24.33V208.24L512,198.12V65.65Zm-0.91,5.16a1.43,1.43,0,1,1-1.43,1.43A1.42,1.42,0,0,1,494.78,54.48Zm1.61,16v2L484.92,84v8.55L481,96.51V81.34l-3.6-3.6H459.53l3.09-3.09h15.29l8.36-8.36h5.89Zm-346.29,181a4.16,4.16,0,0,1-4.16-4.16v-159a4.16,4.16,0,0,1,4.16-4.16H472.55a4.16,4.16,0,0,1,4.16,4.16v159a4.16,4.16,0,0,1-4.16,4.16H150.1Zm-7.43,12.41c-1,.21-2,0.46-2.91.76V246.89l1.88-1.88v9.26l3.6,3.6H167l-1.81,1.81H144.76l-2.09,2.09v2.15ZM156.78,58.51h49.94L203,62.23H162.75l-5.34,5.34V77.73h-6V63.24A56.38,56.38,0,0,0,156.78,58.51Zm75.67-4.69h42.81l14.51,14.52H411.43l11.29-11.3H456.6l9.23,9.24h19.09l-7.41,7.41H462.23l-4,4H450l-4.59,4.59H177.21l-4.59-4.59H158.36V68l4.78-4.78H203.4l4.66-4.66h19.69Zm-77,4.69c-1.32,1.25-3.1,2.77-4.8,4.12l-0.18.14v15h-5.19l-0.36.36V76l-9.62-9.62H126.4l7.81-7.81h21.2ZM120.3,72.43l5.15-5.15h9.42l9.07,9.07V79l-2.3,2.3v21.19l2.4,2.4V230.68l-2.4,2.4v10.59l-2.83,2.83V265q-1.26.43-2.47,1V245.61l-19.72-19.72c0.11-7.64.55-40.25,0.14-48.2l4.5-4.5V152.26l5.61-5.61V116.88l-6.57-6.57V72.43Zm-10.06,155.4V184.21l5.62-5.62c0.25,7.34,0,31.05-.2,47.5v0.2L135.38,246v20.38a33.52,33.52,0,0,0-16,16.17l-2.17-2.16V234.79Zm12.86,87.29-0.24-.34-0.24-.35a32.33,32.33,0,0,1-4.84-11.77l5.23-1a27,27,0,0,0,6.76,13l-0.56.53-3.39,3.24A32.2,32.2,0,0,1,123.1,315.12Zm27.67,8.1-1.17,0a26.78,26.78,0,0,1-13.14-3.44l-2.78,4.91a32.43,32.43,0,0,1-7.61-6l0.48-.46q0.83,0.87,1.71,1.68l2.75-3c-0.52-.47-1-1-1.5-1.47l0.86-.83-0.14-.15a25.55,25.55,0,0,1-3.14-4A26.24,26.24,0,0,1,123,299l0-.21h0c-0.06-.75-0.09-1.5-0.09-2.25a26.51,26.51,0,0,1,2.84-12l-5-2.54a32.52,32.52,0,0,1,10.83-12.31l0.32,0.48-0.64.46,2.42,3.29,0.51-.36,0.56,0.83a26.54,26.54,0,0,1,14.94-4.57v-5.66a32.36,32.36,0,0,1,9.26,1.36l-0.2.64c-0.71-.21-1.44-0.4-2.17-0.56l-0.87,4c0.61,0.13,1.22.29,1.82,0.48l-0.26.81,0.2,0.07a26.57,26.57,0,0,1,16.16,14.29l0.09,0.19,0.24-.1a26.73,26.73,0,0,1,2.21,15.09l5.61,0.81a33.09,33.09,0,0,1-1,4.37l-5.89-1.8-0.07.21a26.56,26.56,0,0,1-23.82,18.73h-0.22Zm8.5-57.66a32.62,32.62,0,0,1,15.25,10.23l-4.14,3.45a27,27,0,0,0-12.66-8.73Zm-8.08,57.63v-0.13a27,27,0,0,0,23.92-18.82l1,0.29c-0.17.56-.36,1.13-0.57,1.69l0.19,0.07c-0.25.64-.53,1.28-0.83,1.89l3.67,1.78c0.35-.72.68-1.47,1-2.22l-1.43-.56,1.24,0.47c0.24-.64.46-1.29,0.66-1.94l0.37,0.11a32.44,32.44,0,0,1-10,15.1l-3.42-4A26.71,26.71,0,0,1,151.19,323.19Zm39.23-28.07h-3.63a38.35,38.35,0,0,1-8.19,23.26,0.82,0.82,0,0,1-.07.1,20.9,20.9,0,0,1-7.36,5.83L169.82,323a33.26,33.26,0,0,0,11.68-36.07h10.31l8.65-8.65h8.9l5.06,5.06H202.25Zm57.09,0L235.68,283.3H215.76l-6-6h-9.69l-8.65,8.65H181.19a33.17,33.17,0,0,0-3.39-7.15h13.06l6.51-6.51h53.1L264,285.8h-0.6l8.12,8.12h2.71l-8.1-8.1h-0.77l-14.48-14.48H197l-6.51,6.51H177.18a33.12,33.12,0,0,0-33.56-14.09v-1.58l1.54-1.54H165.6l2.76-2.76h4.24l4.46-4.46H445.58l4.46,4.46h6.91l3.31,3.31h12.36l4.92,4.92v9l-7.21,7.21H361.16l-9.59-9.59H304.41L288,289.18H277.11l-3.37-3.37-2.72,0,8.12,8.12h2.71l-3.78-3.78h10.31l8.22-8.22h24.89l4.58,4.58h15.82l-8.63,8.63H247.51Zm95.32-9.58H326.46L321.87,281H297.54l7.26-7.26h46.38l8.64,8.64H346Zm122.49,8.73H352.53l6.55-6.55H465.63l6.24,0Zm20.32-23.49h-3.77l-3.39,3.39V265.7L473,260.23H460.64l-2.36-2.36H477.4l3.6-3.6V239l3,3v16.1l3.94,3.94v6.51Zm18.66-83.7-16.39,16.39v57.19l-3-3v-16.1L481,237.65v-4.58l-2.4-2.4V104.92l2.4-2.4V97.85L485.87,93V84.43l10.52-10.52V125l7.91,7.91v54.18Zm1.43-119.47a1.43,1.43,0,1,1,1.43-1.43A1.42,1.42,0,0,1,505.72,67.61Z" transform="translate(-102.03 -46.1)"/><polygon class="cls-3" points="138.46 239.69 146.57 247.81 149.28 247.81 141.18 239.71 138.46 239.69"/><polygon class="cls-3" points="142.27 239.69 150.39 247.81 153.1 247.81 144.99 239.71 142.27 239.69"/><polygon class="cls-3" points="146.09 239.69 154.21 247.81 156.91 247.81 148.81 239.71 146.09 239.69"/><polygon class="cls-3" points="149.91 239.69 158.02 247.81 160.73 247.81 152.63 239.71 149.91 239.69"/><polygon class="cls-3" points="153.72 239.69 161.84 247.81 164.55 247.81 156.45 239.71 153.72 239.69"/><polygon class="cls-3" points="157.54 239.69 165.66 247.81 168.37 247.81 160.26 239.71 157.54 239.69"/><polygon class="cls-3" points="165.18 239.69 173.29 247.81 176 247.81 167.9 239.71 165.18 239.69"/><path class="cls-3" d="M473,90.53a3.21,3.21,0,0,0-3.21-3.21H152.61a3.21,3.21,0,0,0-3.21,3.21V245.22a3.21,3.21,0,0,0,3.21,3.21H469.83a3.21,3.21,0,0,0,3.21-3.21V90.53Zm-0.48,154.69a2.74,2.74,0,0,1-2.73,2.73H152.61a2.74,2.74,0,0,1-2.73-2.73V90.53a2.74,2.74,0,0,1,2.73-2.73H469.83a2.74,2.74,0,0,1,2.73,2.73V245.22Z" transform="translate(-102.03 -46.1)"/></g><circle class="cls-4" cx="392.75" cy="9.81" r="1.43"/><circle class="cls-4" cx="403.69" cy="20.08" r="1.43"/><polygon class="cls-4" points="61.12 17.08 56.34 21.86 56.34 31.63 70.58 31.63 75.18 36.23 343.41 36.23 348 31.63 356.16 31.63 360.2 27.59 375.49 27.59 382.89 20.19 363.8 20.19 354.57 10.95 320.69 10.95 309.4 22.25 187.74 22.25 173.22 7.73 130.41 7.73 125.73 12.41 106.04 12.41 101.37 17.08 61.12 17.08"/><path class="cls-4" d="M151.39,77.73h6V67.57l5.34-5.34H203l3.71-3.71H156.78a56.38,56.38,0,0,1-5.39,4.72v14.5Z" transform="translate(-102.03 -46.1)"/><polygon class="cls-4" points="360.6 28.54 357.51 31.63 375.37 31.63 378.97 35.24 378.97 50.41 382.89 46.49 382.89 37.93 394.36 26.46 394.36 24.42 390.13 20.19 384.24 20.19 375.88 28.54 360.6 28.54"/><path class="cls-4" d="M476.7,247.35v-159a4.16,4.16,0,0,0-4.16-4.16H150.1a4.16,4.16,0,0,0-4.16,4.16v159a4.16,4.16,0,0,0,4.16,4.16H472.55A4.16,4.16,0,0,0,476.7,247.35Zm-6.87,1.07H152.61a3.21,3.21,0,0,1-3.21-3.21V90.53a3.21,3.21,0,0,1,3.21-3.21H469.83A3.21,3.21,0,0,1,473,90.53V245.22A3.21,3.21,0,0,1,469.83,248.42Z" transform="translate(-102.03 -46.1)"/><path class="cls-4" d="M144.89,76v2.14l0.36-.36h5.19v-15l0.18-.14c1.7-1.35,3.48-2.87,4.8-4.12h-21.2l-7.81,7.81h8.87Z" transform="translate(-102.03 -46.1)"/><polygon class="cls-4" points="249.16 227.59 202.77 227.59 195.51 234.86 219.85 234.86 224.43 239.44 240.8 239.44 244.01 236.23 257.79 236.23 249.16 227.59"/><polygon class="cls-4" points="257.05 241.62 250.5 248.17 363.29 248.17 369.85 241.6 363.6 241.62 257.05 241.62"/><polygon class="cls-4" points="381.94 195.87 378.97 192.9 378.97 208.16 375.37 211.77 356.26 211.77 358.62 214.13 370.97 214.13 376.45 219.6 376.45 228.07 379.84 224.68 383.61 224.68 385.88 222.41 385.88 215.91 381.94 211.97 381.94 195.87"/><path class="cls-4" d="M460.25,261.18l-3.31-3.31H450l-4.46-4.46H177.07l-4.46,4.46h-4.24l-2.76,2.76H145.16l-1.54,1.54v1.58a33.12,33.12,0,0,1,33.56,14.09h13.28l6.51-6.51h53.89l14.48,14.48h0.77l8.1,8.1H271.5l-8.12-8.12H264l-13.52-13.52h-53.1l-6.51,6.51H177.79a33.17,33.17,0,0,1,3.39,7.15h10.22l8.65-8.65h9.69l6,6h19.93l11.82,11.82h85.74l8.63-8.63H326.06l-4.58-4.58H296.59l-8.22,8.22H278.06l3.78,3.78h-2.71L271,285.79l2.72,0,3.37,3.37H288l16.43-16.43h47.17l9.59,9.59H470.32l7.21-7.21v-9l-4.92-4.92H460.25ZM248.6,293.91l-8.12-8.12,2.72,0,8.1,8.1H248.6Zm3.82,0-8.12-8.12,2.72,0,8.1,8.1h-2.71Zm3.82,0-8.12-8.12,2.72,0,8.1,8.1h-2.71Zm3.82,0-8.12-8.12,2.72,0,8.1,8.1h-2.71Zm3.82,0-8.12-8.12,2.72,0,8.1,8.1h-2.71Zm3.82,0-8.12-8.12,2.72,0,8.1,8.1h-2.71Zm10.34,0h-2.71l-8.12-8.12,2.72,0Z" transform="translate(-102.03 -46.1)"/><polygon class="cls-4" points="394.36 27.81 383.84 38.33 383.84 46.88 378.97 51.75 378.97 56.42 376.58 58.82 376.58 184.58 378.97 186.98 378.97 191.55 382.89 195.47 382.89 211.57 385.88 214.56 385.88 157.37 402.27 140.98 402.27 86.81 394.36 78.9 394.36 27.81"/><path class="cls-4" d="M136.34,245.61V266q1.21-.53,2.47-1V246.5l2.83-2.83V233.08l2.4-2.4V104.92l-2.4-2.4V81.34l2.3-2.3V76.35l-9.07-9.07h-9.42l-5.15,5.15v37.89l6.57,6.57v29.77l-5.61,5.61v20.93l-4.5,4.5c0.41,8,0,40.56-.14,48.2Z" transform="translate(-102.03 -46.1)"/><path class="cls-4" d="M139.76,246.89v17.79c1-.3,1.92-0.55,2.91-0.76v-2.15l2.09-2.09h20.45l1.81-1.81H145.25l-3.6-3.6V245Z" transform="translate(-102.03 -46.1)"/><path class="cls-4" d="M200.45,278.24l-8.65,8.65H181.49A33.26,33.26,0,0,1,169.82,323l1.35,1.35a20.9,20.9,0,0,0,7.36-5.83,0.82,0.82,0,0,0,.07-0.1,38.35,38.35,0,0,0,8.19-23.26h3.63l11.83-11.82h12.17l-5.06-5.06h-8.9Z" transform="translate(-102.03 -46.1)"/><path class="cls-4" d="M135.38,246l-19.73-19.73v-0.2c0.24-16.45.45-40.16,0.2-47.5l-5.62,5.62v43.63l7,7V280.4l2.17,2.16a33.52,33.52,0,0,1,16-16.17V246Z" transform="translate(-102.03 -46.1)"/><path class="cls-5" d="M149.94,285.58h-0.05v2.7h0v0.18a7.26,7.26,0,0,0-4.77,1.79l-1.34-1.55h0l-0.56-.65,0,0a10.22,10.22,0,0,0-3.23,5.24,10.27,10.27,0,0,0,1.44,8.28l0,0,2.24-1.51,0,0,0-.07,0.28-.19a7.3,7.3,0,0,0,4.78,3.1l-0.36,2a9.39,9.39,0,0,0,7.47-1.91l0.65,0.78,0,0a10.21,10.21,0,0,0,3.7-6.9v-0.05l-0.95-.09v0l-2-.21a7.14,7.14,0,0,0,0-.73,7.25,7.25,0,0,0-1.09-3.83l0.2-.12,0,0.07,0,0,2.3-1.42,0,0A10.23,10.23,0,0,0,149.94,285.58Zm-8.46,15.92a10.12,10.12,0,0,1-1.71-5.64,10.33,10.33,0,0,1,.31-2.5,10.1,10.1,0,0,1,3.16-5.15l0.49,0.57a9.34,9.34,0,0,0-1.54,12.2l1.32-.89v0Zm17.74-4.64,0.84,0.08a10.12,10.12,0,0,1-3.61,6.74l-0.58-.7h0A9.3,9.3,0,0,0,159.22,296.86Zm-2.69-1.1a6.58,6.58,0,1,1-6.59-6.59A6.59,6.59,0,0,1,156.52,295.76Zm-0.07-4v0l1.44-.9a9.28,9.28,0,0,0-7.89-4.42v-0.73a10.11,10.11,0,0,1,8.57,4.77Z" transform="translate(-102.03 -46.1)"/><path class="cls-5" d="M161.58,293.63v-0.06l-3.09.56v0.06l-0.21,0a8.43,8.43,0,0,0-3-5.08l1.49-1.86h0l0.63-.77,0,0a11.86,11.86,0,0,0-6.65-2.6,11.92,11.92,0,0,0-9.16,3.35l0,0,2.18,2.24,0,0,0.07-.07,0.27,0.28a8.47,8.47,0,0,0-2.56,6.1H139.1a10.9,10.9,0,0,0,3.73,8.13l-0.76.9,0,0a11.85,11.85,0,0,0,8.64,2.79h0.06l-0.09-1.1h0.05l-0.18-2.37a8.3,8.3,0,0,0,.85-0.11,8.42,8.42,0,0,0,4.15-2l0.18,0.2-0.07.07-0.05,0,2.1,2.33,0.05,0A11.88,11.88,0,0,0,161.58,293.63Zm-19.93-6.37a11.75,11.75,0,0,1,6.09-3.11,12,12,0,0,1,2.92-.17,11.72,11.72,0,0,1,6.53,2.54l-0.55.68a10.84,10.84,0,0,0-14.25.77l1.29,1.33,0,0Zm9,19.3,0.08,1a11.74,11.74,0,0,1-8.44-2.73l0.68-.8h0A10.79,10.79,0,0,0,150.61,306.56Zm0.69-3.3a7.64,7.64,0,1,1,6.16-8.88A7.65,7.65,0,0,1,151.31,303.26Zm4.55-.9,0,0,1.32,1.46a10.77,10.77,0,0,0,3.42-9.92l0.83-.15a11.73,11.73,0,0,1-3.68,10.77Z" transform="translate(-102.03 -46.1)"/><g class="cls-2"><path class="cls-3" d="M237.42,289.7a1.39,1.39,0,0,0-1.37,1.16H218.54l-40.67,40.67H161.15l-5.22-5.22a1.37,1.37,0,0,0-.13-1.77,1.39,1.39,0,0,0-2,2,1.37,1.37,0,0,0,1.77.13L161,332h17.1l40.67-40.67h17.32A1.39,1.39,0,1,0,237.42,289.7Z" transform="translate(-102.03 -46.1)"/><path class="cls-3" d="M119.88,289.26l-9.12-9.12V236.65L108,233.88a1.37,1.37,0,0,0-.13-1.77,1.39,1.39,0,0,0-2,2,1.37,1.37,0,0,0,1.77.13l2.63,2.63v43.49l9.26,9.26a1.37,1.37,0,0,0,.13,1.77,1.39,1.39,0,0,0,2-2A1.37,1.37,0,0,0,119.88,289.26Z" transform="translate(-102.03 -46.1)"/></g></g></g></svg>