<svg xmlns="http://www.w3.org/2000/svg" viewBox="0 0 180.38 76.19"><defs><style>.cls-2,.cls-3{fill:#fff}.cls-3{mix-blend-mode:overlay}.cls-4{fill:#f2f2f2}</style></defs><g style="isolation:isolate"><g id="Layer_4" data-name="Layer 4"><path class="cls-2" d="M34.01 0l-3.58 3.56H17.61L2.39 18.78v26.93L0 48.1V16.66L16.67 0h17.34z"/><path class="cls-3" d="M7.3 24.15v29.34l-3.57-3.56V20.58l3.57 3.57z"/><path class="cls-4" d="M81.63 73.06H16.24l-.06-.06L2.35 59.17V48.65h.42v10.34l13.65 13.65h65.03l7.46-7.46h21.52v.43H89.09l-7.46 7.45zM1.56 48.65v1.92L.17 51.96v-1.92l1.39-1.39zM1.56 51.44v1.92l-1.39 1.4v-1.93l1.39-1.39zM1.56 54.23v1.93L.17 57.55v-1.92l1.39-1.4z"/><path class="cls-4" d="M21.37 76.19h-6.59l-.02-.02-8.31-8.31v-3.27l-4.96-4.96v-2.26h.14v2.21l4.96 4.95v3.28l8.25 8.24h6.48l1.72-1.72h8.41v.14h-8.36l-1.72 1.72z"/><path class="cls-4" d="M22.23 74.27l-1.09 1.09h-6.01L7.3 67.53v-1.37l8.12 8.11h6.81z"/><path class="cls-4" transform="rotate(-45 -217.39 323.866)" d="M124.23 300.76h.28v.28h-.28z"/><path class="cls-4" d="M126.73 303.45l-.47-.47.2-.2.47.47zm-.71-.71l-1.18-1.18.2-.2 1.18 1.18zM130.49 307.21l-.47-.47.2-.2.47.47zm-.71-.71l-1.18-1.18.2-.2 1.18 1.18zm-1.65-1.65l-.24-.24.2-.2.24.24z" transform="translate(-116.34 -234.93)"/><path class="cls-4" transform="rotate(-45.01 -209.802 331.341)" d="M131.72 308.25h.28v.28h-.28z"/><path class="cls-3" d="M74.55 8.07l-2-1.99h-8.07l-3.95-3.95h-16.4l-1.64 1.65h-3.78l-.94.94h4.87l3.35 3.35h28.56z"/><path class="cls-4" d="M38.93 3.51l1.36-1.36h.32l-1.36 1.37-.32-.01zM39.72 3.51l1.36-1.36h.32l-1.36 1.37-.32-.01zM40.52 3.51l1.35-1.36h.32l-1.36 1.37-.31-.01zM41.31 3.51l1.35-1.36h.32l-1.35 1.37-.32-.01zM42.1 3.51l1.35-1.36h.33l-1.36 1.37-.32-.01zM45.01 1.21h14.75v.28H45.01zM42.94.43h14.75v.28H42.94z"/><path class="cls-3" d="M179.38 37.27v16.18l-4.59 4.57-2.87 2.88v3.34l-2.95 2.95h-6.71l-2.54-2.55-.41-.4h-15.22l2.92-2.92h16.14l6.61-6.62h4.74l3.87-3.87V38.27l1.01-1z"/><path style="mix-blend-mode:overlay" opacity=".49" fill="#fff" d="M174.79 58.02l-2.87 2.88v3.34l-2.95 2.95h-6.71l-2.54-2.55h5.99l6.62-6.62h2.46z"/><path class="cls-2" d="M166.2 65.45h-11.27v-.28h11.16l7.99-8h2.8l3.21-3.21V44.6h.29v9.47l-3.39 3.39h-2.79l-8 7.99zM153.1 66.13h6.62v.28h-6.62z"/><path fill="#29e5e2" d="M105.69 6.77H80.46L77.48 3.8H67.1v-.57h10.62l2.97 2.97h24.77l3.65-3.64h17.27l.63.57h-17.67l-3.65 3.64z"/><path class="cls-3" d="M141.45 62.89h-25.37v-.57h25.13l3.42-3.41h10.54v.57h-10.31l-3.41 3.41zM174.13 52.07l-.4-.4L176.4 49V26.05h.57v23.18l-2.84 2.84z"/><path style="mix-blend-mode:overlay" fill="#f2f2f2" d="M81.27 71.61h-7.2l1.48-1.48h4.64l7.75-7.75h4.78l1.9 1.9h-5.98l-7.37 7.33z"/><path class="cls-3" d="M12.14 66.74L17 71.61h10.07l-1.21-1.22H23.3l-1.28-1.28h-4.31l-3.87-3.87h-3.21l1.51 1.5zM3.73 51.21v1.11l2.16 2.16v-1.64l-2.15-2.15-.01.52zM3.73 53.77v1.11l2.16 2.16V55.4l-2.15-2.15-.01.52zM3.73 56.33v1.11l2.16 2.15v-1.63l-2.15-2.15-.01.52z"/><path class="cls-4" d="M8.42 14.72l-.2-.2 8.02-8.02h10.7l1.98-1.98h6.9v.28h-6.78l-1.98 1.98h-10.7l-7.94 7.94z"/><path class="cls-4" d="M186 305.84h-1v-.28h1v.28zm-2 0h-.57v-.28h.57v.28zm-3.4 0h-1.13v-.28h1.13v.28zm-1.7 0H176v-.28h2.83v.28zm-4 0h-.57v-.28h.57v.28zm-3.4 0h-1.13v-.28h1.13v.28zm-1.7 0h-2.83v-.28h2.83v.28zm-4 0h-.57v-.28h.57v.28zm-3.4 0h-1.13v-.28h1.13v.28zm-1.7 0h-2.83v-.28h2.83v.28zm-4 0h-.57v-.28h.57v.28zm-3.4 0h-1.13v-.28h1.13v.28zm-1.7 0h-2.83v-.28h2.83v.28zm-4 0h-.57v-.28h.57v.28zM183.44 245.13h-.08v-.28h.08v.28zm-.65 0H180v-.28h2.83v.28zm-4 0h-.57v-.28h.57v.28zm-3.4 0h-1.13v-.28h1.13v.28zm-1.7 0h-2.83v-.28h2.83v.28zm-4 0h-.57v-.28h.57v.28zm-3.4 0h-1.13v-.28h1.13v.28zm-1.7 0h-2.83v-.28h2.83v.28zm-3.89-.48l-.4-.4.2-.2.4.4zm-2.4-2.4l-.68-.68h-.05v-.28h.17l.76.76zm-1.3-.68h-2.83v-.28H157v.28zm-4 0h-.57v-.28h.57v.28zM216.8 237.23h-.5v-.28h.5v.28zm-1.63 0h-.57v-.28h.57v.28zm-3.4 0h-1.13v-.28h1.13v.28zm-1.7 0h-2.83v-.28h2.83v.28zm-4 0h-.57v-.28h.57v.28zm-3.4 0h-1.13v-.28h1.13v.28zm-1.7 0h-2.83v-.28H201v.28zm-4 0h-.57v-.28h.6v.28z" transform="translate(-116.34 -234.93)"/></g></g></svg>