<svg data-name="央铋 1" xmlns="http://www.w3.org/2000/svg" viewBox="0 0 198.05 119.16"><defs><linearGradient id="a" x1="698.91" y1="549.92" x2="818.07" y2="549.92" gradientTransform="rotate(90 1022.665 491.695)" gradientUnits="userSpaceOnUse"><stop offset="0" stop-color="#009fe3"/><stop offset="1" stop-color="#009fe3"/></linearGradient></defs><g data-name="&lt;编组&gt;" opacity=".5"><path data-name="&lt;路径&gt;" d="M113.07 115.43l1.74 3.58h80.61c1.37 0 2.48-1.63 2.48-3.64v-61l-3.09-1.74a2.47 2.47 0 01-1.48-2v-28.1c0-.92.79-1.79 2.13-2.32l2.44-1V3.79c0-2-1.11-3.64-2.48-3.64h-7.71l-3.08 4.53a4.44 4.44 0 01-3.58 2.18H95.22c-1.64 0-3.18-1.16-4.13-3.12L89.35.16H2.58C1.21.16.1 1.79.1 3.8v25.49l3.09 2.06a3 3 0 011.48 2.39v33.32a3.24 3.24 0 01-2.13 2.75L.1 70.97v44.41c0 2 1.11 3.64 2.48 3.64h49.69l3.08-4.53a4.44 4.44 0 013.58-2.18h50c1.65-.01 3.19 1.16 4.14 3.12z" fill="#19172c"/><path data-name="&lt;复合路径&gt;" d="M1060.84 287.1h-80.71l-1.78-3.67c-.92-1.9-2.41-3-4-3h-50a4.27 4.27 0 00-3.46 2.11l-3.13 4.6h-49.71c-1.45 0-2.63-1.7-2.63-3.79v-44.5l2.53-1.2a3.1 3.1 0 002-2.62v-33.36a2.79 2.79 0 00-1.42-2.26l-3.15-2.1v-25.58c0-2.09 1.18-3.79 2.63-3.79h86.82l1.78 3.67c.92 1.9 2.41 3 4 3h85.81a4.27 4.27 0 003.46-2.11l3.13-4.6h7.79c1.45 0 2.63 1.7 2.63 3.79v15.54l-2.54 1c-1.27.51-2 1.33-2 2.18v28.12a2.35 2.35 0 001.41 1.88l3.16 1.78v61.06c.01 2.15-1.17 3.85-2.62 3.85zm-80.52-.3h80.52c1.28 0 2.33-1.56 2.33-3.49v-60.88l-3-1.69a2.6 2.6 0 01-1.56-2.15v-28.12c0-1 .83-1.91 2.22-2.46l2.34-.94v-15.34c0-1.92-1-3.49-2.33-3.49h-7.63l-3 4.46a4.56 4.56 0 01-3.7 2.24h-85.87c-1.7 0-3.29-1.2-4.26-3.21l-1.7-3.5h-86.51v-.15.15h-.07c-1.28 0-2.33 1.56-2.33 3.49v25.4l3 2a3.12 3.12 0 011.55 2.51V235a3.4 3.4 0 01-2.21 2.89l-2.39 1.11v44.31c0 1.92 1 3.49 2.33 3.49h49.61l3-4.46a4.62 4.62 0 013.71-2.24h50c1.69 0 3.29 1.2 4.26 3.21z" transform="translate(-865.42 -167.94)" fill="url(#a)"/></g></svg>