<svg xmlns="http://www.w3.org/2000/svg" viewBox="0 0 410 291.89"><defs><style>.cls-2,.cls-5{mix-blend-mode:overlay}.cls-3,.cls-5{fill:#fff}.cls-4{fill:#00c2ff}</style></defs><g style="isolation:isolate"><g id="Layer_1" data-name="Layer 1"><g class="cls-2"><path class="cls-3" d="M173.93 295.54a23.81 23.81 0 00-7.37-16.64l-.09-.08-.1.1a23.62 23.62 0 00-13.08-6.34l-.29 2a21.47 21.47 0 00-6.77.1l-.38-2.08h-.1a23.91 23.91 0 00-19.63 22.82v.11h.06v.56a23.66 23.66 0 004.07 13.31l1.7-1.14a22 22 0 005.31 5.47l-1.26 1.79.09.07a23.68 23.68 0 0013.91 4.47 24 24 0 0019.48-10l.06-.09-.15-.11a23.64 23.64 0 004.39-13.75h-2v-.44l2.22-.06v-.11zm-28.24-22.65l.34 1.86a21.78 21.78 0 00-11.7 6.28l-1.33-1.31a23.57 23.57 0 0112.69-6.83zm4.31 46.94a23.43 23.43 0 01-13.64-4.36l1.11-1.56a21.62 21.62 0 0012.53 4v1.93zm0-2.39a21.3 21.3 0 1121.31-21.3A21.33 21.33 0 01150 317.45zm21.75-22a21.64 21.64 0 00-4.47-12.44l1.59-1.21a23.62 23.62 0 014.83 13.63z" transform="translate(-102.03 -46.1)"/><path class="cls-3" d="M175.39 296.15A25.43 25.43 0 10150 321.57a25.46 25.46 0 0025.39-25.42zM150 321.26a25.11 25.11 0 1125.11-25.11A25.14 25.14 0 01150 321.26z" transform="translate(-102.03 -46.1)"/><path class="cls-3" d="M150 271.24a24.9 24.9 0 1024.91 24.9 24.93 24.93 0 00-24.91-24.9zm0 49.48a24.58 24.58 0 1124.59-24.58A24.61 24.61 0 01150 320.73z" transform="translate(-102.03 -46.1)"/><path class="cls-3" d="M150 276.63h-.1v5.18h.1v.35a13.92 13.92 0 00-9.14 3.42l-2.58-3-1.07-1.25-.09.07a19.59 19.59 0 00-6.19 10 19.69 19.69 0 002.76 15.86l.07.09 4.29-2.89-.07-.1s0-.09-.09-.13l.54-.36a14 14 0 009.16 5.95l-.68 3.87a18 18 0 0014.31-3.67l1.25 1.5.08-.07a19.57 19.57 0 007.08-13.22v-.1l-1.82-.18v-.09l-3.91-.4a13.68 13.68 0 00.07-1.41 13.9 13.9 0 00-2.09-7.35l.38-.24.09.13.06.1 4.4-2.73-.06-.09a19.61 19.61 0 00-16.75-9.24zm-16.22 30.51a19.39 19.39 0 01-3.27-10.81 19.79 19.79 0 01.59-4.79 19.35 19.35 0 016.05-9.87l.94 1.09a17.89 17.89 0 00-2.95 23.38l2.54-1.71zm34-8.9l1.61.16a19.39 19.39 0 01-6.91 12.91l-1.1-1.34a17.82 17.82 0 006.36-11.72zm-5.16-2.1A12.62 12.62 0 11150 283.53a12.63 12.63 0 0112.58 12.62zm-.13-7.65l2.77-1.72a17.79 17.79 0 00-15.11-8.48v-1.4a19.38 19.38 0 0116.33 9.11z" transform="translate(-102.03 -46.1)"/><path class="cls-3" d="M163.26 288.36l.2.38 1.61-.83-.22-.42zM165.14 295.69v.48l1.81.05v-.53-.42h-1.81v.42zM165.12 294.88l1.81-.1q0-.48-.08-1l-1.8.2q.05.47.07.9zM164.86 292.76q.08.42.14.84l1.8-.25q-.06-.48-.16-.94zM166.17 290.56q-.14-.46-.32-.9l-1.69.64q.15.4.28.81zM165.67 289.21q-.18-.44-.39-.88l-1.63.79q.19.38.35.78zM166.54 291.95q-.1-.47-.24-.93l-1.74.5q.12.41.21.83zM165.09 297l1.81.16v-.48l-1.81-.11c.02.17.01.31 0 .43zM140.63 283.71l-1.12-1.43-.37.3 1.16 1.4zM143.81 281.81l-.73-1.66-.84.4.83 1.61zM145 281.35l-.6-1.71-.86.33.69 1.68zM147.35 280.73l-.35-1.78-.91.18.41 1.77zM146.14 281l-.46-1.75-.89.26.55 1.73zM142.7 282.36l-.87-1.59q-.41.22-.8.47l1 1.54zM148.58 280.57l-.16-1.81-.92.11.26 1.79zM141.63 283l-1-1.52q-.39.25-.76.53l1.08 1.46zM149.43 280.52l-.06-1.81h-.48l.11 1.81zM146.56 310.49l-.4 1.77.47.1.36-1.78zM143.11 309.25l-.82 1.62.83.39.73-1.66zM142 308.65l-.94 1.55.79.46.86-1.59zM141 308l-1 1.43.7.57 1-1.52zM144.22 309.75l-.69 1.68.86.32.61-1.75zM139.16 306.37l-1.29 1.28q.32.32.66.63l1.22-1.34zM140.06 307.21l-1.18 1.37q.35.3.71.58l1.11-1.44zM145.37 310.17l-.55 1.73.88.25.45-1.76zM138.34 305.46l-1.34 1.17q.29.35.61.68l1.32-1.24q-.33-.29-.59-.61zM137.82 304.81l-1.45 1.09.29.38 1.42-1.13zM131.24 321.76c.65.48 1.32.93 2 1.35l2.15-3.47c-.59-.37-1.18-.77-1.75-1.18zM131.68 316.88l-2.7 3.06c.6.53 1.23 1 1.87 1.53l2.46-3.25c-.56-.42-1.11-.87-1.63-1.34zM122.9 301.84l-4 .84c.17.79.36 1.58.59 2.35l3.92-1.14c-.2-.67-.41-1.36-.51-2.05zM128.2 313.21l-3.2 2.52c.5.63 1 1.25 1.56 1.84l3-2.75c-.46-.52-.92-1.06-1.36-1.61zM126.73 311.15l-3.42 2.22c.44.68.91 1.34 1.39 2l3.25-2.47c-.43-.58-.84-1.17-1.22-1.75zM123.53 304.29l-3.9 1.2c.24.77.51 1.54.8 2.28l3.79-1.5c-.22-.64-.48-1.27-.69-1.98zM125.45 309l-3.61 1.89c.37.71.78 1.42 1.21 2.1l3.46-2.16c-.38-.64-.73-1.25-1.06-1.83zM124.38 306.67l-3.77 1.56c.31.74.65 1.48 1 2.2l3.64-1.84c-.3-.59-.6-1.27-.87-1.92zM181.11 302.18l-4-.77c-.13.68-.29 1.38-.48 2.06l3.93 1.07c.22-.78.44-1.54.55-2.36zM171.31 319.61l-2.75-3-.32.29 2.7 3.06zM176.88 312.94l-3.46-2.16c-.37.59-.77 1.18-1.19 1.75l3.29 2.42c.48-.66.94-1.33 1.36-2.01zM175.23 315.33l-3.23-2.47c-.42.56-.88 1.11-1.34 1.63l3.05 2.71c.52-.6 1.03-1.2 1.52-1.87zM178.31 310.41l-3.64-1.84c-.31.62-.66 1.24-1 1.85l3.49 2.11c.39-.69.79-1.41 1.15-2.12zM173.37 317.56l-3-2.75c-.47.52-1 1-1.48 1.5l2.79 3c.58-.58 1.15-1.16 1.69-1.75zM153.5 264.61c-.8-.09-1.61-.15-2.42-.18l-.14 4.08c.7 0 1.41.08 2.11.15zM162.69 271.6l1.88-3.62a20.5 20.5 0 00-2.19-1l-1.6 3.75c.65.27 1.29.55 1.91.87zM155.56 269.06l.82-4c-.79-.16-1.59-.3-2.39-.4l-.51 4c.69.15 1.39.26 2.08.4zM170.64 277.8l3-2.71c-.54-.6-1.1-1.19-1.67-1.75l-2.84 2.93c.55.49 1.04 1 1.51 1.53zM160.39 270.53l1.54-3.78c-.74-.3-1.51-.58-2.28-.83l-1.25 3.88c.68.2 1.35.47 1.99.73zM164.88 272.87l2.2-3.43c-.68-.43-1.38-.85-2.09-1.23l-1.94 3.59c.63.33 1.24.69 1.83 1.07zM166.95 274.33l2.51-3.22c-.63-.49-1.29-1-2-1.42l-2.26 3.4c.62.4 1.2.81 1.75 1.24zM168.87 276l2.79-3c-.59-.55-1.2-1.08-1.83-1.59l-2.56 3.18c.56.41 1.09.91 1.6 1.41zM133.25 274.11l-2.47-3.25c-.64.49-1.27 1-1.87 1.54l2.71 3.05c.53-.45 1.08-.91 1.63-1.34zM127.9 279.48l-3.25-2.48c-.48.64-1 1.31-1.39 2l3.43 2.21c.38-.59.79-1.21 1.21-1.73zM123 279.41c-.42.68-.83 1.39-1.2 2.1l3.62 1.88c.32-.62.68-1.24 1-1.83zM129.52 277.53l-3-2.75c-.54.59-1.07 1.21-1.56 1.85l3.21 2.51c.42-.55.83-1.14 1.35-1.61zM131.31 275.74l-2.75-3c-.59.54-1.17 1.11-1.72 1.7l3 2.79c.45-.52.95-1.02 1.47-1.49z" transform="translate(-102.03 -46.1)"/><path class="cls-3" d="M495.7 49.32h-76.19l-11.29 11.3H293L278.45 46.1H124.06l-22 22v45.82l11.5 11.5V170l-11 11v99.45l13.86 13.86c0 .73-.08 1.45-.08 2.2a33.36 33.36 0 0027.36 32.77l8.72 8.72h26.68l5-5h7.35l5-5 25.08-25.09h256l24.33-24.33v-70.34L512 198.12V65.65zm-.91 5.16a1.43 1.43 0 11-1.43 1.43 1.42 1.42 0 011.42-1.43zm1.61 16v2L484.92 84v8.55L481 96.51V81.34l-3.6-3.6h-17.87l3.09-3.09h15.29l8.36-8.36h5.89zm-346.29 181a4.16 4.16 0 01-4.16-4.16v-159a4.16 4.16 0 014.16-4.16h322.44a4.16 4.16 0 014.16 4.16v159a4.16 4.16 0 01-4.16 4.16H150.1zm-7.43 12.41c-1 .21-2 .46-2.91.76v-17.76l1.88-1.88v9.26l3.6 3.6H167l-1.81 1.81h-20.43l-2.09 2.09v2.15zm14.1-205.38h49.94L203 62.23h-40.25l-5.34 5.34v10.16h-6V63.24a56.38 56.38 0 005.37-4.73zm75.67-4.69h42.81l14.51 14.52h121.66l11.29-11.3h33.88l9.23 9.24h19.09l-7.41 7.41h-15.28l-4 4H450l-4.59 4.59h-268.2l-4.59-4.59h-14.26V68l4.78-4.78h40.26l4.66-4.66h19.69zm-77 4.69c-1.32 1.25-3.1 2.77-4.8 4.12l-.18.14v15h-5.19l-.36.36V76l-9.62-9.62h-8.9l7.81-7.81h21.2zM120.3 72.43l5.15-5.15h9.42l9.07 9.07V79l-2.3 2.3v21.19l2.4 2.4v125.79l-2.4 2.4v10.59l-2.83 2.83V265q-1.26.43-2.47 1v-20.39l-19.72-19.72c.11-7.64.55-40.25.14-48.2l4.5-4.5v-20.93l5.61-5.61v-29.77l-6.57-6.57V72.43zm-10.06 155.4v-43.62l5.62-5.62c.25 7.34 0 31.05-.2 47.5v.2L135.38 246v20.38a33.52 33.52 0 00-16 16.17l-2.17-2.16v-45.6zm12.86 87.29l-.24-.34-.24-.35a32.33 32.33 0 01-4.84-11.77l5.23-1a27 27 0 006.76 13l-.56.53-3.39 3.24a32.2 32.2 0 01-2.72-3.31zm27.67 8.1h-1.17a26.78 26.78 0 01-13.14-3.44l-2.78 4.91a32.43 32.43 0 01-7.61-6l.48-.46q.83.87 1.71 1.68l2.75-3c-.52-.47-1-1-1.5-1.47l.86-.83-.14-.15a25.55 25.55 0 01-3.14-4A26.24 26.24 0 01123 299v-.21c-.06-.75-.09-1.5-.09-2.25a26.51 26.51 0 012.84-12l-5-2.54a32.52 32.52 0 0110.83-12.31l.32.48-.64.46 2.42 3.29.51-.36.56.83a26.54 26.54 0 0114.94-4.57v-5.66a32.36 32.36 0 019.26 1.36l-.2.64c-.71-.21-1.44-.4-2.17-.56l-.87 4c.61.13 1.22.29 1.82.48l-.26.81.2.07a26.57 26.57 0 0116.16 14.29l.09.19.24-.1a26.73 26.73 0 012.21 15.09l5.61.81a33.09 33.09 0 01-1 4.37l-5.89-1.8-.07.21A26.56 26.56 0 01151 322.75h-.22zm8.5-57.66a32.62 32.62 0 0115.25 10.23l-4.14 3.45a27 27 0 00-12.66-8.73zm-8.08 57.63v-.13a27 27 0 0023.92-18.82l1 .29c-.17.56-.36 1.13-.57 1.69l.19.07c-.25.64-.53 1.28-.83 1.89l3.67 1.78c.35-.72.68-1.47 1-2.22l-1.43-.56 1.24.47c.24-.64.46-1.29.66-1.94l.37.11a32.44 32.44 0 01-10 15.1l-3.42-4a26.71 26.71 0 01-15.8 6.27zm39.23-28.07h-3.63a38.35 38.35 0 01-8.19 23.26.82.82 0 01-.07.1 20.9 20.9 0 01-7.36 5.83l-1.35-1.31a33.26 33.26 0 0011.68-36.07h10.31l8.65-8.65h8.9l5.06 5.06h-12.17zm57.09 0l-11.83-11.82h-19.92l-6-6h-9.69l-8.65 8.65h-10.23a33.17 33.17 0 00-3.39-7.15h13.06l6.51-6.51h53.1L264 285.8h-.6l8.12 8.12h2.71l-8.1-8.1h-.77l-14.48-14.48H197l-6.51 6.51h-13.31a33.12 33.12 0 00-33.56-14.09v-1.58l1.54-1.54h20.44l2.76-2.76h4.24l4.46-4.46h268.52l4.46 4.46h6.91l3.31 3.31h12.36l4.92 4.92v9l-7.21 7.21H361.16l-9.59-9.59h-47.16L288 289.18h-10.89l-3.37-3.37h-2.72l8.12 8.12h2.71l-3.78-3.78h10.31l8.22-8.22h24.89l4.58 4.58h15.82l-8.63 8.63h-85.75zm95.32-9.58h-16.37l-4.59-4.54h-24.33l7.26-7.26h46.38l8.64 8.64H346zm122.49 8.73H352.53l6.55-6.55H471.87zm20.32-23.49h-3.77l-3.39 3.39v-8.47l-5.48-5.47h-12.36l-2.36-2.36h19.12l3.6-3.6V239l3 3v16.1l3.94 3.94v6.51zm18.66-83.7l-16.39 16.39v57.19l-3-3v-16.1l-3.91-3.91v-4.58l-2.4-2.4V104.92l2.4-2.4v-4.67l4.87-4.85v-8.57l10.52-10.52V125l7.91 7.91v54.18zm1.43-119.47a1.43 1.43 0 111.43-1.43 1.42 1.42 0 01-1.44 1.43z" transform="translate(-102.03 -46.1)"/><path class="cls-3" d="M138.46 239.69l8.11 8.12h2.71l-8.1-8.1-2.72-.02zM142.27 239.69l8.12 8.12h2.71l-8.11-8.1-2.72-.02zM146.09 239.69l8.12 8.12h2.7l-8.1-8.1-2.72-.02zM149.91 239.69l8.11 8.12h2.71l-8.1-8.1-2.72-.02zM153.72 239.69l8.12 8.12h2.71l-8.1-8.1-2.73-.02zM157.54 239.69l8.12 8.12h2.71l-8.11-8.1-2.72-.02zM165.18 239.69l8.11 8.12H176l-8.1-8.1-2.72-.02z"/><path class="cls-3" d="M473 90.53a3.21 3.21 0 00-3.21-3.21H152.61a3.21 3.21 0 00-3.21 3.21v154.69a3.21 3.21 0 003.21 3.21h317.22a3.21 3.21 0 003.21-3.21V90.53zm-.48 154.69a2.74 2.74 0 01-2.73 2.73H152.61a2.74 2.74 0 01-2.73-2.73V90.53a2.74 2.74 0 012.73-2.73h317.22a2.74 2.74 0 012.73 2.73v154.69z" transform="translate(-102.03 -46.1)"/></g><circle class="cls-4" cx="392.75" cy="9.81" r="1.43"/><circle class="cls-4" cx="403.69" cy="20.08" r="1.43"/><path class="cls-4" d="M61.12 17.08l-4.78 4.78v9.77h14.24l4.6 4.6h268.23l4.59-4.6h8.16l4.04-4.04h15.29l7.4-7.4H363.8l-9.23-9.24h-33.88l-11.29 11.3H187.74L173.22 7.73h-42.81l-4.68 4.68h-19.69l-4.67 4.67H61.12z"/><path class="cls-4" d="M151.39 77.73h6V67.57l5.34-5.34H203l3.71-3.71h-49.93a56.38 56.38 0 01-5.39 4.72v14.5z" transform="translate(-102.03 -46.1)"/><path class="cls-4" d="M360.6 28.54l-3.09 3.09h17.86l3.6 3.61v15.17l3.92-3.92v-8.56l11.47-11.47v-2.04l-4.23-4.23h-5.89l-8.36 8.35H360.6z"/><path class="cls-4" d="M476.7 247.35v-159a4.16 4.16 0 00-4.16-4.16H150.1a4.16 4.16 0 00-4.16 4.16v159a4.16 4.16 0 004.16 4.16h322.45a4.16 4.16 0 004.15-4.16zm-6.87 1.07H152.61a3.21 3.21 0 01-3.21-3.21V90.53a3.21 3.21 0 013.21-3.21h317.22a3.21 3.21 0 013.17 3.21v154.69a3.21 3.21 0 01-3.17 3.2zM144.89 76v2.14l.36-.36h5.19v-15l.18-.14c1.7-1.35 3.48-2.87 4.8-4.12h-21.2l-7.81 7.81h8.87z" transform="translate(-102.03 -46.1)"/><path class="cls-4" d="M249.16 227.59h-46.39l-7.26 7.27h24.34l4.58 4.58h16.37l3.21-3.21h13.78l-8.63-8.64zM257.05 241.62l-6.55 6.55h112.79l6.56-6.57-6.25.02H257.05zM381.94 195.87l-2.97-2.97v15.26l-3.6 3.61h-19.11l2.36 2.36h12.35l5.48 5.47v8.47l3.39-3.39h3.77l2.27-2.27v-6.5l-3.94-3.94v-16.1z"/><path class="cls-4" d="M460.25 261.18l-3.31-3.31H450l-4.46-4.46H177.07l-4.46 4.46h-4.24l-2.76 2.76h-20.45l-1.54 1.54v1.58a33.12 33.12 0 0133.56 14.09h13.28l6.51-6.51h53.89l14.48 14.48h.77l8.1 8.1h-2.71l-8.12-8.12h.62l-13.52-13.52h-53.1l-6.51 6.51h-13.08a33.17 33.17 0 013.39 7.15h10.22l8.65-8.65h9.69l6 6h19.93l11.82 11.82h85.74l8.63-8.63h-15.8l-4.58-4.58h-24.89l-8.22 8.22h-10.31l3.78 3.78h-2.71l-8.13-8.1h2.72l3.37 3.37H288l16.43-16.43h47.17l9.59 9.59h109.13l7.21-7.21v-9l-4.92-4.92h-12.36zM248.6 293.91l-8.12-8.12h2.72l8.1 8.1h-2.7zm3.82 0l-8.12-8.12h2.72l8.1 8.1h-2.71zm3.82 0l-8.12-8.12h2.72l8.1 8.1h-2.71zm3.82 0l-8.12-8.12h2.72l8.1 8.1h-2.71zm3.82 0l-8.12-8.12h2.72l8.1 8.1h-2.71zm3.82 0l-8.12-8.12h2.72l8.1 8.1h-2.71zm10.34 0h-2.71l-8.12-8.12h2.72z" transform="translate(-102.03 -46.1)"/><path class="cls-4" d="M394.36 27.81l-10.52 10.52v8.55l-4.87 4.87v4.67l-2.39 2.4v125.76l2.39 2.4v4.57l3.92 3.92v16.1l2.99 2.99v-57.19l16.39-16.39V86.81l-7.91-7.91V27.81z"/><path class="cls-4" d="M136.34 245.61V266q1.21-.53 2.47-1v-18.5l2.83-2.83v-10.59l2.4-2.4V104.92l-2.4-2.4V81.34l2.3-2.3v-2.69l-9.07-9.07h-9.42l-5.15 5.15v37.89l6.57 6.57v29.77l-5.61 5.61v20.93l-4.5 4.5c.41 8 0 40.56-.14 48.2z" transform="translate(-102.03 -46.1)"/><path class="cls-4" d="M139.76 246.89v17.79c1-.3 1.92-.55 2.91-.76v-2.15l2.09-2.09h20.45l1.81-1.81h-21.77l-3.6-3.6V245zM200.45 278.24l-8.65 8.65h-10.31A33.26 33.26 0 01169.82 323l1.35 1.35a20.9 20.9 0 007.36-5.83.82.82 0 00.07-.1 38.35 38.35 0 008.19-23.26h3.63l11.83-11.82h12.17l-5.06-5.06h-8.9zM135.38 246l-19.73-19.73v-.2c.24-16.45.45-40.16.2-47.5l-5.62 5.62v43.63l7 7v45.58l2.17 2.16a33.52 33.52 0 0116-16.17V246z" transform="translate(-102.03 -46.1)"/><path class="cls-5" d="M149.94 285.58h-.05V288.46a7.26 7.26 0 00-4.77 1.79l-1.34-1.55-.56-.65a10.22 10.22 0 00-3.23 5.24 10.27 10.27 0 001.44 8.28l2.24-1.51v-.07l.28-.19a7.3 7.3 0 004.78 3.1l-.36 2a9.39 9.39 0 007.47-1.91l.65.78a10.21 10.21 0 003.7-6.9v-.05l-.95-.09-2-.21a7.14 7.14 0 000-.73 7.25 7.25 0 00-1.09-3.83l.2-.12v.07l2.3-1.42a10.23 10.23 0 00-8.71-4.91zm-8.46 15.92a10.12 10.12 0 01-1.71-5.64 10.33 10.33 0 01.31-2.5 10.1 10.1 0 013.16-5.15l.49.57a9.34 9.34 0 00-1.54 12.2l1.32-.89zm17.74-4.64l.84.08a10.12 10.12 0 01-3.61 6.74l-.58-.7a9.3 9.3 0 003.35-6.12zm-2.69-1.1a6.58 6.58 0 11-6.59-6.59 6.59 6.59 0 016.58 6.59zm-.07-4l1.44-.9a9.28 9.28 0 00-7.89-4.42v-.73a10.11 10.11 0 018.57 4.77z" transform="translate(-102.03 -46.1)"/><path class="cls-5" d="M161.58 293.63v-.06l-3.09.56v.06h-.21a8.43 8.43 0 00-3-5.08l1.49-1.86.63-.77a11.86 11.86 0 00-6.65-2.6 11.92 11.92 0 00-9.16 3.35l2.18 2.24.07-.07.27.28a8.47 8.47 0 00-2.56 6.1h-2.45a10.9 10.9 0 003.73 8.13l-.76.9a11.85 11.85 0 008.64 2.79h.06l-.09-1.1h.05l-.18-2.37a8.3 8.3 0 00.85-.11 8.42 8.42 0 004.15-2l.18.2-.07.07h-.05l2.1 2.33h.05a11.88 11.88 0 003.82-10.99zm-19.93-6.37a11.75 11.75 0 016.09-3.11 12 12 0 012.92-.17 11.72 11.72 0 016.53 2.54l-.55.68a10.84 10.84 0 00-14.25.77l1.29 1.33zm9 19.3l.08 1a11.74 11.74 0 01-8.44-2.73l.68-.8a10.79 10.79 0 007.64 2.53zm.69-3.3a7.64 7.64 0 116.16-8.88 7.65 7.65 0 01-6.19 8.88zm4.55-.9l1.32 1.46a10.77 10.77 0 003.42-9.92l.83-.15a11.73 11.73 0 01-3.68 10.77z" transform="translate(-102.03 -46.1)"/><g class="cls-2"><path class="cls-3" d="M237.42 289.7a1.39 1.39 0 00-1.37 1.16h-17.51l-40.67 40.67h-16.72l-5.22-5.22a1.37 1.37 0 00-.13-1.77 1.39 1.39 0 00-2 2 1.37 1.37 0 001.77.13L161 332h17.1l40.67-40.67h17.32a1.39 1.39 0 101.33-1.63zM119.88 289.26l-9.12-9.12v-43.49l-2.76-2.77a1.37 1.37 0 00-.13-1.77 1.39 1.39 0 00-2 2 1.37 1.37 0 001.77.13l2.63 2.63v43.49l9.26 9.26a1.37 1.37 0 00.13 1.77 1.39 1.39 0 002-2 1.37 1.37 0 00-1.78-.13z" transform="translate(-102.03 -46.1)"/></g></g></g></svg>