<svg id="Layer_1" data-name="Layer 1" xmlns="http://www.w3.org/2000/svg" viewBox="0 0 224.24 160.23"><defs><style>.cls-1{fill:#f21d7a}</style></defs><path class="cls-1" d="M1001.37 264.5a.27.27 0 01-.27-.27v-7.82h7.82a.27.27 0 110 .54h-7.28v7.28a.27.27 0 01-.27.27zM1225.07 264.5a.27.27 0 01-.27-.27V257h-7.28a.27.27 0 010-.54h7.82v7.82a.27.27 0 01-.27.22zM1008.92 416.64h-7.82v-7.82a.27.27 0 01.54 0v7.28h7.28a.27.27 0 110 .54zM1225.34 416.64h-7.82a.27.27 0 010-.54h7.28v-7.28a.27.27 0 01.54 0v7.82z" transform="translate(-1001.1 -256.41)"/></svg>