<svg id="Layer_5" data-name="Layer 5" xmlns="http://www.w3.org/2000/svg" viewBox="0 0 483.67 799.73"><defs><style>.cls-1,.cls-2{fill:#03a6ff}.cls-2{opacity:.3}</style></defs><path class="cls-1" d="M2086.89 1262.31v-127.25l-22.54-22.54h-130l-22.3-22.3h-224.89v162.28l-59.33 59.33v272.46l26.55 26.55v76.53l5.32 5.33v76.3l60.07 60.06 10.3 10.3h97.49l50.57 50.57h196.67l5.43-5.42v-141.66l31.27-31.27v-424.66zm19.61 447.2l-36.7 36.7V1885h-189.6l-60.87-60.87h-97.49L1664.7 1767v-190.12l-9.08-9.08-22.79-22.8v-231.1l59.33-59.33v-159.35h193.74l22.3 22.3h154.08l15 15v127.28l29.22 29.2v420.52z" transform="translate(-1627.83 -1090.22)"/><path class="cls-1" d="M48.31 123.34L0 171.63v26.36l48.31-48.3v-26.35zM48.31 78.09L0 126.39v26.36l48.31-48.31V78.09zM48.31 33.69L0 81.98v26.36l48.31-48.3V33.69zM48.31 0H0v62.07l48.31-48.31V0zM31.88 738.52l46.45.34-46.45-46.47v46.13zM454.52 22.3h-11.6l11.56 11.55.04-11.55z"/><path class="cls-2" d="M441.97 760.12v34.61h-189.6l-60.87-60.87h84.96l26.27 26.26h139.24zM64.33 164.35v111.83l-36.54 36.53v164.87L5 454.78v-231.1l59.33-59.33z"/><path fill="#00558d" opacity=".3" d="M478.67 198.77v420.52l-36.7 36.7v104.13H302.73l-26.27-26.26H94.01l-57.14-57.13V486.66l-9.08-9.08V312.71l36.54-36.53V5h193.74l22.3 22.3h154.08l15.03 15.03v127.25l29.19 29.19z"/></svg>