<svg xmlns="http://www.w3.org/2000/svg" viewBox="0 0 368.12 257.07"><defs><clipPath id="clip-path" transform="translate(-190.94 -21.47)"><path fill="none" d="M213.84 61.09h322.32v177.82H213.84z"/></clipPath><style>.cls-6{fill:#29d3e2}.cls-10{fill:#29abe2}</style></defs><g style="isolation:isolate"><g id="Layer_3" data-name="Layer 3"><path style="mix-blend-mode:overlay" fill="#fff" opacity=".3" d="M22.9 39.62h322.32v177.82H22.9z"/><path d="M536.33 239.08H213.67V60.92h322.66v178.16zM214 238.74h322V61.26H214v177.48z" transform="translate(-190.94 -21.47)" fill="#0071bc"/><path d="M555.55 47.07l-5-5h-50.4l-4.24 4.23h-66.73l-7.42 7.44h-93.52l-7.42-7.44h-66.73l-4.24-4.23h-50.43l-5 5v55.17l3.31 3.31-.54.53v5.09l-.27.27v2.76l-2.37 2.37v13l3.35 3.43v34l-3.33 3.35v13l2.37 2.37v2.76l.27.27v5.09l.54.53-3.31 3.31v55.17l5 5h50.43l4.24-4.23h66.73l7.42-7.44h93.52l7.42 7.44h66.73l4.24 4.23h50.43l5-5v-55.09l-3.29-3.31.53-.53v-5.09l.27-.27v-2.76l2.37-2.37v-13L552.1 167v-34l3.33-3.35v-13l-2.37-2.37v-2.76l-.27-.27v-5.09l-.53-.53 3.29-3.31V47.07zm-356.17 6.87l6.14-6.12h18.8l3.25 3.25h12.35l3.26-3.25h49.89l4.43 4.43h20l2.68 2.68H217.22a8.41 8.41 0 00-8.41 8.41v12.29h-.27v5l-.85.85v.42l-.57.57h-.77l-2.64 2.64v4.82l.49.47v8.66l-2 2v.81l-2.79 2.79V53.94zm0 51.79l5.54-5.54V85.7l2.89-2.89.73.72v23.81l-2.83 2.83h-4.75l-1.57 1.57v-6zm0 82.52l1.57 1.57h4.75l2.83 2.83v23.81l-.73.72-2.89-2.89v-14.47l-5.54-5.54v-6zm118.11 59.51h-20l-4.43 4.43h-49.88l-3.26-3.25h-12.35l-3.25 3.25h-18.8l-6.14-6.12v-50.75l2.79 2.79v.81l2 2v8.66l-.49.47v4.82l2.64 2.64h.77l.57.57v.45l.85.85v5h.27v12.29a8.41 8.41 0 008.41 8.41h102.98zm111.62-3.41l-3.33-3.35H405l-3.32 3.32h-53.37L345 241h-20.78l-3.32 3.32H217.22a7.7 7.7 0 01-7.68-7.68v-12.27h.46V192l-2.45-2.47v-6l-4.46-4.46v-58.15l4.46-4.46v-6L210 108V75.63h-.47V63.34a7.7 7.7 0 017.68-7.68H320.9l3.32 3.34H345l3.32-3.32h53.37L405 59h20.78l3.32-3.32h103.68a7.7 7.7 0 017.68 7.68v12.27H540V108l2.45 2.47v6l4.46 4.46v58.15l-4.46 4.46v6L540 192v32.33h.47v12.29a7.7 7.7 0 01-7.68 7.68H429.1zm121.52 1.72l-6.14 6.12h-18.8l-3.25-3.25h-12.36l-3.26 3.25h-49.89l-4.43-4.43h-20l-2.68-2.68h102.96a8.41 8.41 0 008.41-8.41v-12.3h.27v-5l.85-.85v-.42l.57-.57h.77l2.64-2.64v-4.82l-.49-.47v-8.66l2-2v-.81l2.79-2.79v50.74zm0-51.79l-5.54 5.54v14.48l-2.89 2.89-.73-.72v-23.82l2.83-2.83h4.75l1.57-1.57v6zm0-82.52l-1.57-1.57h-4.76l-2.83-2.83V83.54l.73-.72 2.89 2.89v14.48l5.54 5.54v6zm0-7.07l-2.79-2.79v-.81l-2-2V90.4l.49-.47v-4.82l-2.64-2.64h-.77l-.57-.57v-.45l-.85-.85v-5h-.3V63.34a8.41 8.41 0 00-8.41-8.41H429.83l2.68-2.68h20l4.43-4.43h49.89l3.26 3.25h12.35l3.25-3.25h18.8l6.14 6.12v50.74z" transform="translate(-190.94 -21.47)" fill="#2981e2"/><path class="cls-6" d="M360.59 252l3.91-3.87h4.14l-3.91 3.84zM346.15 252.48l3.91-4 4.14-.13-3.91 3.94zM351 252.29l3.91-3.93 4.14-.1-3.91 3.9zM355.78 252.14l3.91-3.9 4.14-.08-3.91 3.84zM341.34 252.71l3.91-4 4.14-.16-3.91 4zM331.71 253.26l3.91-4.1 4.14-.22-3.91 4.06zM326.9 253.58l3.9-4.14 4.13-.24-3.9 4.1zM336.52 253l3.91-4.05 4.14-.19-3.91 4zM385.26 251.94l-3.91-3.84h4.14l3.91 3.87zM380.15 251.89h-14.73l3.91-3.84H380.68l3.91 3.84zM399.71 252.32l-3.91-3.94 4.14.13 3.91 4zM394.9 252.16l-3.91-3.9 4.14.1 3.91 3.93zM390.08 252l-3.91-3.87 4.14.08 3.91 3.9zM404.53 252.51l-3.91-4 4.14.16 3.91 4zM414.15 253l-3.91-4.06 4.14.22 3.91 4.1zM419 253.3l-3.9-4.1 4.13.24 3.9 4.14zM409.34 252.74l-3.91-4 4.14.19 3.91 4.05zM360.59 48l3.91 3.87h4.14l-3.91-3.84zM346.15 47.52l3.91 4 4.14.13-3.91-3.94zM351 47.71l3.91 3.93 4.14.1-3.91-3.9zM355.78 47.86l3.91 3.9 4.14.08-3.91-3.84zM341.34 47.29l3.91 4 4.14.16-3.91-4zM331.71 46.74l3.91 4.1 4.14.22-3.91-4.06zM326.9 46.42l3.9 4.14 4.13.24-3.93-4.1zM336.52 47l3.91 4.05 4.14.19-3.91-4zM385.26 48.06l-3.91 3.84h4.14l3.92-3.9zM380.15 48.11h-14.73l3.91 3.84H380.68l3.91-3.84zM399.71 47.68l-3.91 3.94 4.14-.13 3.91-4zM394.9 47.84l-3.9 3.91 4.14-.1 3.86-3.94zM390.08 48l-3.91 3.87 4.14-.08 3.91-3.9zM404.53 47.49l-3.91 4 4.14-.16 3.91-4zM414.15 47l-3.91 4.06 4.14-.22 3.91-4.1zM419 46.7l-3.9 4.1 4.13-.24 3.9-4.14zM409.34 47.26l-3.91 4 4.14-.19 3.91-4.07z" transform="translate(-190.94 -21.47)"/><g opacity=".43"><g opacity=".12" clip-path="url(#clip-path)"><path class="cls-10" d="M559.06 278.53H190.94V21.47h368.12v257.06zm-367.92-.2h367.72V21.67H191.14v256.66z" transform="translate(-190.94 -21.47)"/><path class="cls-10" d="M.1 247.35h367.92v.2H.1zM.1 237.84h367.92v.2H.1zM.1 228.32h367.92v.2H.1zM.1 218.81h367.92v.2H.1zM.1 209.3h367.92v.2H.1zM.1 199.78h367.92v.2H.1zM.1 190.27h367.92v.2H.1zM.1 180.76h367.92v.2H.1zM.1 171.24h367.92v.2H.1zM.1 161.73h367.92v.2H.1zM.1 152.22h367.92v.2H.1zM.1 142.7h367.92v.2H.1zM.1 133.19h367.92v.2H.1zM.1 123.68h367.92v.2H.1zM.1 114.16h367.92v.2H.1zM.1 104.65h367.92v.2H.1zM.1 95.13h367.92v.2H.1zM.1 85.62h367.92v.2H.1zM.1 76.11h367.92v.2H.1zM.1 66.59h367.92v.2H.1zM.1 57.08h367.92v.2H.1zM.1 47.57h367.92v.2H.1zM.1 38.05h367.92v.2H.1zM.1 28.54h367.92v.2H.1zM.1 19.03h367.92v.2H.1zM.1 9.51h367.92v.2H.1z"/><path class="cls-10" d="M358.94.1h.2v256.86h-.2zM349.97.1h.2v256.86h-.2zM341 .1h.2v256.86h-.2zM332.02.1h.2v256.86h-.2zM323.05.1h.2v256.86h-.2zM314.08.1h.2v256.86h-.2zM305.1.1h.2v256.86h-.2zM296.13.1h.2v256.86h-.2zM287.16.1h.2v256.86h-.2zM278.18.1h.2v256.86h-.2zM269.21.1h.2v256.86h-.2zM260.23.1h.2v256.86h-.2zM251.26.1h.2v256.86h-.2zM242.29.1h.2v256.86h-.2zM233.31.1h.2v256.86h-.2zM224.34.1h.2v256.86h-.2zM215.37.1h.2v256.86h-.2zM206.39.1h.2v256.86h-.2zM197.42.1h.2v256.86h-.2zM188.45.1h.2v256.86h-.2zM179.47.1h.2v256.86h-.2zM170.5.1h.2v256.86h-.2zM161.52.1h.2v256.86h-.2zM152.55.1h.2v256.86h-.2zM143.58.1h.2v256.86h-.2zM134.6.1h.2v256.86h-.2zM125.63.1h.2v256.86h-.2zM116.66.1h.2v256.86h-.2zM107.68.1h.2v256.86h-.2zM98.71.1h.2v256.86h-.2zM89.74.1h.2v256.86h-.2zM80.76.1h.2v256.86h-.2zM71.79.1h.2v256.86h-.2zM62.81.1h.2v256.86h-.2zM53.84.1h.2v256.86h-.2zM44.87.1h.2v256.86h-.2zM35.89.1h.2v256.86h-.2zM26.92.1h.2v256.86h-.2zM17.95.1h.2v256.86h-.2zM8.97.1h.2v256.86h-.2z"/></g></g></g></g></svg>