<svg id="Layer_5" data-name="Layer 5" xmlns="http://www.w3.org/2000/svg" viewBox="0 0 858.9 359.87"><defs><style>.cls-1,.cls-2{fill:#03a6ff}.cls-2{opacity:.3}</style></defs><path class="cls-1" d="M1911.1 692.72h-308.35l-35.17 35.17h-226.42l-48.82-48.82h-183.45v123.29l34.36 34.36v161.17l41 41.05h299.52l27.26-27.26h244.29l48.4-48.4h157.3V742.69zm45 265.56h-154.4l-48.4 48.4H1509l-27.27 27.26h-295.36l-38.12-38.12V834.65l-34.36-34.36V684.07h176.38l48.82 48.82h230.56l35.17-35.17H1909l47 47v213.56z" transform="translate(-1108.88 -679.07)"/><path class="cls-1" d="M0 139.18l27.2 27.2v19.79L0 158.97v-19.79zM0 171.51l27.2 27.2v19.79L0 191.31v-19.8zM0 203.85l27.2 27.2v19.79L0 223.64v-19.79zM0 236.19l27.2 27.2v19.79L0 255.98v-19.79zM0 268.52l27.2 27.2v19.79L0 288.32v-19.8zM59.39 359.87L.03 300.52v59.35h59.36zM374.93 359.87h20.39l20.86-20.85h240.24l57.04-57.04-18.57 2.23-48.41 48.4H402.19l-27.26 27.26zM852.18 284.21l6.72-6.72V61.12l-47.48-47.47h-9.21l49.97 49.97v220.59zM202.19 0l42.8 42.81h31.72L233.9 0h-31.71zM252.97 0l42.8 42.81h31.72L284.68 0h-31.71zM303.74 0l42.81 42.81h31.72L335.46 0h-31.72zM354.52 0l42.81 42.81h31.72L386.24 0h-31.72z"/><path class="cls-2" d="M230.21 53.82H70.41L39.37 84.86v70.72L5 121.22V5h176.38l48.83 48.82z"/><path class="cls-2" d="M1509 1006.68l-27.27 27.26h-295.36l-38.12-38.12.84-43 53.85 53.86c2.64 2.64 306.06 0 306.06 0z" transform="translate(-1108.88 -679.07)"/><path d="M1956.07 744.76v213.52H1801.7l-48.4 48.4H1509s-303.43 2.64-306.07 0l-53.85-53.86-.84 43V763.93l31-31h390.36l35.17-35.17H1909z" transform="translate(-1108.88 -679.07)" fill="#00558d" opacity=".3"/></svg>