<svg id="央铋_1" data-name="央铋 1" xmlns="http://www.w3.org/2000/svg" xmlns:xlink="http://www.w3.org/1999/xlink" viewBox="0 0 232.94 140.25"><defs><style>.cls-1{opacity:0.5;}.cls-2{fill:url(#铃琨眄_沭噤桢眚_36);}</style><linearGradient id="铃琨眄_沭噤桢眚_36" x1="900.13" y1="450.22" x2="1040.37" y2="450.22" gradientTransform="translate(1614.36 -630.97) rotate(90)" gradientUnits="userSpaceOnUse"><stop offset="0" stop-color="#009fe3"/><stop offset="1" stop-color="#009fe3"/></linearGradient></defs><title>border28</title><g id="_编组_" data-name="&lt;编组&gt;"><g id="_编组_2" data-name="&lt;编组&gt;" class="cls-1"><path id="_复合路径_" data-name="&lt;复合路径&gt;" class="cls-2" d="M1277.4,409.41h-94.9l-2.12-4.38c-1.06-2.2-2.78-3.51-4.59-3.51h-58.7a4.9,4.9,0,0,0-4,2.43l-3.71,5.45h-58.54c-1.77,0-3.2-2-3.2-4.57V352.48l3-1.44a3.54,3.54,0,0,0,2.33-3V308.9a3.16,3.16,0,0,0-1.61-2.56l-3.75-2.51v-30.1c0-2.52,1.44-4.57,3.2-4.57H1153l2.12,4.38c1.06,2.2,2.78,3.51,4.59,3.51h100.83a4.9,4.9,0,0,0,4-2.43l3.71-5.45h9.22c1.77,0,3.2,2,3.2,4.57v18.34l-3.05,1.22c-1.45.58-2.32,1.5-2.32,2.46v33a2.64,2.64,0,0,0,1.59,2.11l3.77,2.12v71.82C1280.61,407.36,1279.17,409.41,1277.4,409.41Zm-94.54-.59h94.54c1.44,0,2.62-1.79,2.62-4V333.36l-3.47-2a3.15,3.15,0,0,1-1.89-2.62v-33c0-1.2,1-2.33,2.68-3l2.69-1.08V273.73c0-2.2-1.17-4-2.62-4h-8.91l-3.53,5.2a5.54,5.54,0,0,1-4.45,2.69H1159.67c-2,0-3.95-1.43-5.11-3.83l-2-4H1050.87c-1.44,0-2.62,1.79-2.62,4v29.79l3.49,2.33a3.77,3.77,0,0,1,1.87,3v39.16a4.1,4.1,0,0,1-2.67,3.5l-2.7,1.28v52c0,2.2,1.18,4,2.62,4h58.23l3.53-5.2a5.54,5.54,0,0,1,4.45-2.69h58.7c2,0,3.95,1.43,5.11,3.83Z" transform="translate(-1047.67 -269.16)"/></g></g></svg>