<svg xmlns="http://www.w3.org/2000/svg" xmlns:xlink="http://www.w3.org/1999/xlink" viewBox="0 0 290.57 273.09"><defs><style>.cls-1{isolation:isolate;}.cls-2{fill:#0071bc;}.cls-3{fill:aqua;}.cls-4{fill:#2e3192;}.cls-5{fill:#29abe2;}.cls-6{fill:#ff4a00;}.cls-7{fill:url(#linear-gradient);}.cls-8{fill:url(#linear-gradient-2);}.cls-9{fill:#fff;opacity:0.34;mix-blend-mode:overlay;}.cls-10{fill:url(#linear-gradient-3);}.cls-11{fill:url(#linear-gradient-4);}</style><linearGradient id="linear-gradient" x1="406.77" y1="311.56" x2="446.3" y2="287.65" gradientUnits="userSpaceOnUse"><stop offset="0.37" stop-color="#dc0000"/><stop offset="0.4" stop-color="#e21200"/><stop offset="0.46" stop-color="#eb3000"/><stop offset="0.53" stop-color="#f24900"/><stop offset="0.6" stop-color="#f85c00"/><stop offset="0.69" stop-color="#fc6a00"/><stop offset="0.8" stop-color="#fe7200"/><stop offset="1" stop-color="#ff7400"/></linearGradient><linearGradient id="linear-gradient-2" x1="668.59" y1="311.56" x2="708.13" y2="287.65" gradientTransform="matrix(-1, 0, 0, 1, 861.82, 0)" xlink:href="#linear-gradient"/><linearGradient id="linear-gradient-3" x1="406.77" y1="88.29" x2="446.3" y2="64.38" gradientTransform="matrix(1, 0, 0, -1, 0, 136.73)" xlink:href="#linear-gradient"/><linearGradient id="linear-gradient-4" x1="668.59" y1="88.29" x2="708.13" y2="64.38" gradientTransform="translate(861.82 136.73) rotate(180)" xlink:href="#linear-gradient"/></defs><title>border26</title><g class="cls-1"><g id="Layer_5" data-name="Layer 5"><path class="cls-2" d="M197,310.29l-1.45,1.28-5.35-.31L189,310l-1.53-.09,2.25,2.51,3.64,0.21,1.62,1.8,7.93,0.43,0.43,0.47,5.25,0.28-4.48-4.89Z" transform="translate(-154.72 -43.45)"/><path class="cls-2" d="M255,314.18l1.43-1.35-2.62-.06-2.84,2.67q-10-.26-20.08-0.63l-1.8,1.64,2.56,0.1,0.82-.75q9.47,0.34,18.94.59l2.38-2.23Z" transform="translate(-154.72 -43.45)"/><path class="cls-3" d="M255.19,311.4l-0.83.78,3.57,0.08-2.8,2.65-1.4,0L252,316.46l2.35,0.06,3.65-3.44,2.12,0,0.62-.59,1.34,0,1.06-1Z" transform="translate(-154.72 -43.45)"/><path class="cls-4" d="M263.72,311.58l-1.05,1h0.74l1.05-1h-0.74Z" transform="translate(-154.72 -43.45)"/><path class="cls-4" d="M264.92,311.61l-1.05,1h0.73l1.06-1h-0.74Z" transform="translate(-154.72 -43.45)"/><path class="cls-4" d="M266.11,311.63l-1.05,1h0.74l1.05-1h-0.74Z" transform="translate(-154.72 -43.45)"/><path class="cls-4" d="M267.31,311.65l-1.05,1H267l1.06-1h-0.74Z" transform="translate(-154.72 -43.45)"/><path class="cls-4" d="M268.5,311.67l-1.05,1h0.74l1.05-1H268.5Z" transform="translate(-154.72 -43.45)"/><path class="cls-2" d="M410.46,311.23l-5.35.31-1.45-1.28-7.14.38L392,315.53l5.25-.28,0.43-.47,7.93-.43,1.62-1.8,3.64-.21,2.25-2.51-1.53.09Z" transform="translate(-154.72 -43.45)"/><path class="cls-2" d="M349.71,315.44l-2.84-2.65-2.62.06,1.43,1.33,1.21,0,2.38,2.22q9.47-.25,18.94-0.59l0.82,0.74,2.56-.1-1.8-1.63Q359.76,315.17,349.71,315.44Z" transform="translate(-154.72 -43.45)"/><path class="cls-3" d="M345.52,314.89l-2.8-2.64,3.57-.08-0.83-.78-8,.18,1.06,1,1.34,0,0.62,0.58,2.12,0,3.65,3.44,2.35-.06-1.69-1.59Z" transform="translate(-154.72 -43.45)"/><path class="cls-4" d="M336.18,311.59l1.05,1H338l-1.05-1h-0.74Z" transform="translate(-154.72 -43.45)"/><path class="cls-4" d="M335,311.61l1.06,1h0.73l-1.05-1H335Z" transform="translate(-154.72 -43.45)"/><path class="cls-4" d="M333.79,311.63l1.05,1h0.74l-1.05-1h-0.74Z" transform="translate(-154.72 -43.45)"/><path class="cls-4" d="M332.59,311.65l1.06,1h0.73l-1.05-1h-0.74Z" transform="translate(-154.72 -43.45)"/><path class="cls-4" d="M331.4,311.67l1.05,1h0.74l-1.05-1H331.4Z" transform="translate(-154.72 -43.45)"/><path class="cls-5" d="M418.61,294l-3.05,3.45-5.72.35q-3.72,4.17-7.48,8.33-7.59.42-15.19,0.77l-1.41-1.28q-6.33.29-12.66,0.54L370.51,309q-22.56.85-45.13,1.16l-2.12-2q-22.94.29-45.88,0l-2.12,2q-22.57-.3-45.13-1.14l-1.68-1.79-0.92-1q-6.33-.25-12.66-0.54l-1.41,1.28q-7.6-.35-15.19-0.77-3.76-4.15-7.48-8.32l-5.72-.35L182,294.06l-6.44-.42,3.1,3.52,1.75,0.11q2.95,3.34,5.91,6.66l-0.13,2.17,2,2.28,1.32,0.08L191,310l2.78,0.16,1.76-1.54,9.08,0.49q3,3.27,6,6.53,8.51,0.41,17,.74l2.8-2.56q10.1,0.38,20.21.64l4-3.79q45.68,1.11,91.38,0l4,3.78q10.1-.27,20.21-0.65l2.8,2.56q8.51-.33,17-0.74,3-3.26,6-6.53l9.08-.49,1.76,1.54,2.78-.16,1.4-1.57,1.32-.08,2-2.28-0.13-2.17q3-3.33,5.91-6.66l1.75-.11,3.09-3.52ZM276,310.13l1.63-1.57q22.74,0.27,45.48,0l1.63,1.57Q300.32,310.44,276,310.13Z" transform="translate(-154.72 -43.45)"/><path class="cls-6" d="M330.87,311.68q-15.27.25-30.55,0.25t-30.55-.24l-1,1,1.24,0,0.48-.46q7.17,0.11,14.34.17L287,314.7q6.64,0,13.29,0t13.29,0l2.26-2.27q7.17-.06,14.34-0.18l0.48,0.46,1.24,0Zm-17.46,2.53q-6.54,0-13.08,0t-13.08,0l-1.77-1.78q7.43,0.06,14.86.06t14.86-.06Z" transform="translate(-154.72 -43.45)"/><path class="cls-7" d="M408,314.77l3.83-.26h0q11.07-12.54,21.84-25.2l0.1-.11h0.16q5.45-.45,10.91-0.92a0.48,0.48,0,1,1,.08,1h0q-5.46.37-10.93,0.71l0.25-.13q-11,12.45-22.35,24.77h0Z" transform="translate(-154.72 -43.45)"/><path class="cls-8" d="M192,314.77l-3.83-.26h0Q177.17,302,166.4,289.32l-0.1-.11h-0.16q-5.45-.45-10.91-0.92a0.48,0.48,0,1,0-.08,1h0q5.46,0.37,10.93.71l-0.26-.13q11,12.45,22.35,24.77h0Z" transform="translate(-154.72 -43.45)"/><path class="cls-9" d="M371.58,307.81L370.51,309q-22.56.85-45.13,1.16l-2.12-2q-22.94.29-45.88,0l-2.12,2q-22.57-.3-45.13-1.14l-1.68-1.79q-4.84,4.44-9.72,8.85l8.87,0.36,2.8-2.56q10.1,0.38,20.21.64l4-3.79q45.68,1.11,91.38,0l4,3.78q10.1-.27,20.21-0.65l2.8,2.56,7.59-.31Q376.08,311.95,371.58,307.81ZM276,310.13l1.63-1.57q22.74,0.27,45.48,0l1.63,1.57Q300.32,310.44,276,310.13Z" transform="translate(-154.72 -43.45)"/><path class="cls-2" d="M197,49.71l-1.45-1.28-5.35.31L189,50l-1.53.09,2.25-2.51,3.64-.21,1.62-1.8,7.93-.43,0.43-.47,5.25-.28-4.48,4.89Z" transform="translate(-154.72 -43.45)"/><path class="cls-2" d="M255,45.82l1.43,1.35-2.62.06-2.84-2.67q-10,.26-20.08.63L229,43.55l2.56-.09,0.82,0.75q9.47-.34,18.94-0.59l2.38,2.23Z" transform="translate(-154.72 -43.45)"/><path class="cls-3" d="M255.19,48.6l-0.83-.78,3.57-.08-2.8-2.65-1.4,0L252,43.54l2.35-.06L258,46.91l2.12,0,0.62,0.58,1.34,0,1.06,1Z" transform="translate(-154.72 -43.45)"/><path class="cls-4" d="M263.72,48.42l-1.05-1h0.74l1.05,1h-0.74Z" transform="translate(-154.72 -43.45)"/><path class="cls-4" d="M264.92,48.39l-1.05-1h0.73l1.06,1h-0.74Z" transform="translate(-154.72 -43.45)"/><path class="cls-4" d="M266.11,48.37l-1.05-1h0.74l1.05,1h-0.74Z" transform="translate(-154.72 -43.45)"/><path class="cls-4" d="M267.31,48.35l-1.05-1H267l1.06,1h-0.74Z" transform="translate(-154.72 -43.45)"/><path class="cls-4" d="M268.5,48.33l-1.05-1h0.74l1.05,1H268.5Z" transform="translate(-154.72 -43.45)"/><path class="cls-2" d="M410.46,48.77l-5.35-.31-1.45,1.28-7.14-.38L392,44.47l5.25,0.28,0.43,0.47,7.93,0.43,1.62,1.8,3.64,0.21,2.25,2.51-1.53-.09Z" transform="translate(-154.72 -43.45)"/><path class="cls-2" d="M349.71,44.56l-2.84,2.65-2.62-.06,1.43-1.33,1.21,0,2.38-2.22q9.47,0.25,18.94.59l0.82-.74,2.56,0.1-1.8,1.63Q359.76,44.83,349.71,44.56Z" transform="translate(-154.72 -43.45)"/><path class="cls-3" d="M345.52,45.11l-2.8,2.64,3.57,0.08-0.83.78-8-.18,1.06-1,1.34,0,0.62-.58,2.12,0,3.65-3.44,2.35,0.06-1.69,1.59Z" transform="translate(-154.72 -43.45)"/><path class="cls-4" d="M336.18,48.41l1.05-1H338l-1.05,1h-0.74Z" transform="translate(-154.72 -43.45)"/><path class="cls-4" d="M335,48.39l1.06-1h0.73l-1.05,1H335Z" transform="translate(-154.72 -43.45)"/><path class="cls-4" d="M333.79,48.37l1.05-1h0.74l-1.05,1h-0.74Z" transform="translate(-154.72 -43.45)"/><path class="cls-4" d="M332.59,48.35l1.06-1h0.73l-1.05,1h-0.74Z" transform="translate(-154.72 -43.45)"/><path class="cls-4" d="M331.4,48.33l1.05-1h0.74l-1.05,1H331.4Z" transform="translate(-154.72 -43.45)"/><path class="cls-5" d="M425.05,66.4L422,62.88l-1.75-.11q-2.95-3.34-5.91-6.66l0.13-2.17-2-2.28-1.32-.08L409.66,50l-2.78-.16-1.76,1.54-9.08-.49q-3-3.27-6-6.53-8.51-.41-17-0.74l-2.8,2.56q-10.1-.38-20.21-0.65l-4,3.78q-45.68-1.12-91.38,0l-4-3.79q-10.1.27-20.21,0.64l-2.8-2.56q-8.51.33-17,.74-3,3.26-6,6.53l-9.08.49-1.76-1.54L191,50l-1.4,1.57-1.32.08-2,2.28,0.13,2.17q-3,3.33-5.91,6.66l-1.75.11-3.1,3.52,6.44-.42,3.05-3.45,5.72-.35q3.73-4.17,7.48-8.32,7.59-.41,15.19-0.77l1.41,1.28q6.33-.29,12.66-0.54l0.92-1L230.13,51q22.56-.84,45.13-1.14l2.12,2q22.94-.28,45.88,0l2.12-2Q347.95,50.2,370.51,51l2.59,2.77q6.33,0.25,12.66.54l1.41-1.28q7.6,0.36,15.19.77,3.76,4.16,7.48,8.33l5.72,0.35L418.61,66ZM324.69,49.88l-1.63,1.57q-22.74-.28-45.48,0L276,49.87Q300.32,49.56,324.69,49.88Z" transform="translate(-154.72 -43.45)"/><path class="cls-6" d="M331.92,47.31l-1.24,0-0.48.46q-7.17-.12-14.34-0.18l-2.26-2.27q-6.64,0-13.29,0T287,45.3l-2.26,2.27q-7.17.06-14.34,0.17L270,47.28l-1.24,0,1,1q15.27-.25,30.55-0.24t30.55,0.25Zm-16.74.25q-7.43-.06-14.86-0.06t-14.86.06l1.77-1.78q6.54,0,13.08,0t13.08,0Z" transform="translate(-154.72 -43.45)"/><path class="cls-10" d="M408,45.23l3.83,0.26h0Q422.83,58,433.6,70.68l0.1,0.11h0.16q5.45,0.45,10.91.92a0.48,0.48,0,1,0,.08-1h0q-5.46-.37-10.93-0.71l0.25,0.13q-11-12.45-22.35-24.77h0Z" transform="translate(-154.72 -43.45)"/><path class="cls-11" d="M192,45.23l-3.83.26h0Q177.17,58,166.4,70.68l-0.1.11h-0.16q-5.45.45-10.91,0.92a0.48,0.48,0,1,1-.08-1h0q5.46-.37,10.93-0.71l-0.26.13q11-12.45,22.35-24.77h0Z" transform="translate(-154.72 -43.45)"/><path class="cls-9" d="M380.63,43.94L373,43.63l-2.8,2.56q-10.1-.38-20.21-0.65l-4,3.78q-45.68-1.12-91.38,0l-4-3.79q-10.1.27-20.21,0.64l-2.8-2.56-8.87.36q4.88,4.41,9.72,8.85L230.13,51q22.56-.84,45.13-1.14l2.12,2q22.94-.28,45.88,0l2.12-2Q347.95,50.2,370.51,51l1.07,1.14Q376.08,48.05,380.63,43.94Zm-55.94,5.94-1.63,1.57q-22.74-.28-45.48,0L276,49.87Q300.32,49.56,324.69,49.88Z" transform="translate(-154.72 -43.45)"/></g></g></svg>