<svg id="Layer_1" data-name="Layer 1" xmlns="http://www.w3.org/2000/svg" viewBox="0 0 627.99 198.76"><defs><style>.cls-1{fill:#02a6ff}</style></defs><g id="_编组_" data-name="&lt;编组&gt;"><path id="_复合路径_" data-name="&lt;复合路径&gt;" class="cls-1" d="M2334.19 893h-348.54v-6.4H1900v6.4h-191.44V694.19h125.06v5.41h64.94v-5.41h215.49v5.9h120.55v-5.9h99.59v63h-19.4v30.5h19.4V893zm-336.73-11.81h324.92v-81.71H2303v-54.12h19.4V706h-76v5.9h-144.15V706h-191.88v5.41h-88.56V706h-101.44v175.15h167.86v-6.4h109.22v6.4z" transform="translate(-1706.2 -694.19)"/><path id="_复合路径_2" data-name="&lt;复合路径&gt;" class="cls-1" d="M1722.43 759.63h-16.23v-45.27h16.24v45.26zm-14.27-2h12.3v-41.3h-12.3v41.33z" transform="translate(-1706.2 -694.19)"/><path id="_矩形_" data-name="&lt;矩形&gt;" class="cls-1" d="M10.33 71.65h3.2v3.94h-3.2z"/><path id="_矩形_2" data-name="&lt;矩形&gt;" class="cls-1" d="M10.33 77.49h3.2v3.94h-3.2z"/><path id="_矩形_3" data-name="&lt;矩形&gt;" class="cls-1" d="M10.33 83.33h3.2v3.94h-3.2z"/><path id="_矩形_4" data-name="&lt;矩形&gt;" class="cls-1" d="M10.33 89.17h3.2v3.94h-3.2z"/><path id="_矩形_5" data-name="&lt;矩形&gt;" class="cls-1" d="M10.33 95.02h3.2v3.94h-3.2z"/><path id="_矩形_6" data-name="&lt;矩形&gt;" class="cls-1" d="M10.33 100.86h3.2v3.94h-3.2z"/><path id="_矩形_7" data-name="&lt;矩形&gt;" class="cls-1" d="M231.24 11.81h24.85v2.71h-24.85z"/><path id="_矩形_8" data-name="&lt;矩形&gt;" class="cls-1" d="M259.77 11.81h24.85v2.71h-24.85z"/><path id="_矩形_9" data-name="&lt;矩形&gt;" class="cls-1" d="M288.31 11.81h24.85v2.71h-24.85z"/><path id="_矩形_10" data-name="&lt;矩形&gt;" class="cls-1" d="M339.47 183.27h9.84v3.94h-9.84z"/><path id="_矩形_11" data-name="&lt;矩形&gt;" class="cls-1" d="M355.96 183.27h9.84v3.94h-9.84z"/><path id="_矩形_12" data-name="&lt;矩形&gt;" class="cls-1" d="M372.44 183.27h9.84v3.94h-9.84z"/><path id="_矩形_13" data-name="&lt;矩形&gt;" class="cls-1" d="M388.92 183.27h9.84v3.94h-9.84z"/></g></svg>