<svg id="Layer_1" data-name="Layer 1" xmlns="http://www.w3.org/2000/svg" viewBox="0 0 224.98 85.91"><defs><style>.cls-1{fill:aqua;}</style></defs><title>border45</title><path id="_复合路径_" data-name="&lt;复合路径&gt;" class="cls-1" d="M650.1,368.63H437.29V287h170L650.1,327.6v41Zm-211.85-1H649.14V328L606.93,288H438.25v79.72Z" transform="translate(-433.36 -286.8)"/><polygon id="_路径_" data-name="&lt;路径&gt;" class="cls-1" points="54.51 85.91 0 85.91 0 41.34 0.96 41.34 0.96 84.95 54.51 84.95 54.51 85.91"/><polygon id="_路径_2" data-name="&lt;路径&gt;" class="cls-1" points="4.41 0.67 7.49 3.75 57.53 3.75 60.66 0.62 4.41 0.67"/><polygon id="_路径_3" data-name="&lt;路径&gt;" class="cls-1" points="80.32 0.67 82.28 2.63 157.27 2.63 162.43 0.67 80.32 0.67"/><rect id="_路径_4" data-name="&lt;路径&gt;" class="cls-1" x="625.93" y="281.28" width="0.96" height="57.19" transform="translate(-461.1 269.05) rotate(-46.93)"/><polygon id="_路径_5" data-name="&lt;路径&gt;" class="cls-1" points="220.34 85.03 188.33 85.03 188.33 84.07 219.38 84.07 219.38 53.02 220.34 53.02 220.34 85.03"/><polygon id="_路径_6" data-name="&lt;路径&gt;" class="cls-1" points="63.23 81.35 65.79 84.23 115.97 84.23 119.17 81.35 63.23 81.35"/><polygon id="_路径_7" data-name="&lt;路径&gt;" class="cls-1" points="133.9 81.35 137.9 78.95 178.4 78.95 181.44 81.35 133.9 81.35"/><path id="_复合路径_2" data-name="&lt;复合路径&gt;" class="cls-1" d="M652.24,326.82L611,287.49l0.66-.7,22.56,21.48,4.63-.3,12.8,12.8Zm-17.12-17.63L651,324.32l-0.33-3.09L638.43,309Z" transform="translate(-433.36 -286.8)"/><polygon id="_路径_8" data-name="&lt;路径&gt;" class="cls-1" points="216.25 53.82 214.29 55.78 214.29 79.43 190.57 79.43 186.97 81.35 216.25 81.35 216.25 53.82"/><rect id="_矩形_" data-name="&lt;矩形&gt;" class="cls-1" x="219.86" y="53.02" width="5.12" height="20.09"/><rect id="_矩形_2" data-name="&lt;矩形&gt;" class="cls-1" x="7.2" y="79.61" width="3.06" height="1.74"/><rect id="_矩形_3" data-name="&lt;矩形&gt;" class="cls-1" x="11.32" y="79.61" width="3.06" height="1.74"/><rect id="_矩形_4" data-name="&lt;矩形&gt;" class="cls-1" x="15.44" y="79.61" width="3.06" height="1.74"/><rect id="_矩形_5" data-name="&lt;矩形&gt;" class="cls-1" x="19.55" y="79.61" width="3.06" height="1.74"/><rect id="_矩形_6" data-name="&lt;矩形&gt;" class="cls-1" x="23.67" y="79.61" width="3.06" height="1.74"/><rect id="_矩形_7" data-name="&lt;矩形&gt;" class="cls-1" x="192.75" y="78.44" width="0.54" height="3.06"/><rect id="_矩形_8" data-name="&lt;矩形&gt;" class="cls-1" x="194.73" y="78.44" width="0.54" height="3.06"/><rect id="_矩形_9" data-name="&lt;矩形&gt;" class="cls-1" x="196.72" y="78.44" width="0.54" height="3.06"/><rect id="_矩形_10" data-name="&lt;矩形&gt;" class="cls-1" x="198.71" y="78.44" width="0.54" height="3.06"/><rect id="_矩形_11" data-name="&lt;矩形&gt;" class="cls-1" x="200.69" y="78.44" width="0.54" height="3.06"/><rect id="_矩形_12" data-name="&lt;矩形&gt;" class="cls-1" x="202.68" y="78.44" width="0.54" height="3.06"/><rect id="_矩形_13" data-name="&lt;矩形&gt;" class="cls-1" x="204.66" y="78.44" width="0.54" height="3.06"/><rect id="_矩形_14" data-name="&lt;矩形&gt;" class="cls-1" x="206.65" y="78.44" width="0.54" height="3.06"/><rect id="_矩形_15" data-name="&lt;矩形&gt;" class="cls-1" x="208.64" y="78.44" width="0.54" height="3.06"/><rect id="_矩形_16" data-name="&lt;矩形&gt;" class="cls-1" x="210.62" y="78.44" width="0.54" height="3.06"/><rect id="_矩形_17" data-name="&lt;矩形&gt;" class="cls-1" x="212.61" y="78.44" width="0.54" height="3.06"/><rect id="_矩形_18" data-name="&lt;矩形&gt;" class="cls-1" x="4.41" y="7.24" width="1.84" height="18.33"/><rect id="_矩形_19" data-name="&lt;矩形&gt;" class="cls-1" x="1.52" y="28.45" width="2.56" height="11.53"/><rect id="_矩形_20" data-name="&lt;矩形&gt;" class="cls-1" x="85.72" y="2.19" width="6.32" height="0.89"/><rect id="_矩形_21" data-name="&lt;矩形&gt;" class="cls-1" x="94.72" y="2.19" width="6.32" height="0.89"/><rect id="_矩形_22" data-name="&lt;矩形&gt;" class="cls-1" x="103.73" y="2.19" width="6.32" height="0.89"/><rect id="_矩形_23" data-name="&lt;矩形&gt;" class="cls-1" x="112.73" y="2.19" width="6.32" height="0.89"/><rect id="_矩形_24" data-name="&lt;矩形&gt;" class="cls-1" x="121.74" y="2.19" width="6.32" height="0.89"/><rect id="_矩形_25" data-name="&lt;矩形&gt;" class="cls-1" x="130.74" y="2.19" width="6.32" height="0.89"/><rect id="_矩形_26" data-name="&lt;矩形&gt;" class="cls-1" x="139.74" y="2.19" width="6.32" height="0.89"/><rect id="_矩形_27" data-name="&lt;矩形&gt;" class="cls-1" x="148.75" y="2.19" width="6.32" height="0.89"/></svg>