<svg id="Layer_2" data-name="Layer 2" xmlns="http://www.w3.org/2000/svg" viewBox="0 0 221.84 125.47"><defs><style>.cls-1{fill:aqua;}</style></defs><title>border58</title><path class="cls-1" d="M396.57-34.42H371.85l-1.47-1.48h-5.7l-5.37,5.38h-9.74l-2.25,2.25H327l-1,1H302.76l-3.45-3.45H216.83l-1.41-1.41H200.18l-2.53-2.53h-3.13l-4.27,4.27V-0.14l6,6V15L192,19.26V45.34l4.24,4.24V66.29l-4,4V81.84l5.3,5.31,2.15,2.14h7.47l2.92-2.92h26.47L239,83.92h37.89l2.56,2.56h22l6.16-6.16H359l4,4,4,4h19.77L389.19,86h15.3l5.89-5.9V70.89L408,68.51v-85l4.07-4.06v-9.63l-6-6h-7.74ZM294.73,83.92l-0.12.13-3.34-.13h3.46ZM400-33.37l7,7v82l-6.47,6.47v7.87l-4.26,4.26v4.31l-2.29,2.29H374.22l-6.13-6.13H355.48l-4.6,4.6H298.55l-3.6,3.6H201.57l-4.24-4.23V-5.86l4.1-4.1v-10l3.28-3.28h5.75l2.91-2.91h5.4l2.3,2.31h4.28L229.55-28h65.61l6.31,6.31h19L325-26.2h28.61L354.74-25h5l7.08-7.08h3.41l1.25-1.24H400Z" transform="translate(-190.24 36.17)"/></svg>