<svg xmlns="http://www.w3.org/2000/svg" viewBox="0 0 180.38 76.19"><defs><style>.cls-1{isolation:isolate;}.cls-2,.cls-3,.cls-5{fill:#fff;}.cls-3,.cls-5,.cls-7{mix-blend-mode:overlay;}.cls-4,.cls-7{fill:#f2f2f2;}.cls-5{opacity:0.49;}.cls-6{fill:#29e5e2;}</style></defs><title>border53</title><g class="cls-1"><g id="Layer_4" data-name="Layer 4"><polygon class="cls-2" points="34.01 0 30.43 3.56 17.61 3.56 2.39 18.78 2.39 45.71 0 48.1 0 16.66 16.67 0 34.01 0"/><polygon class="cls-3" points="7.3 24.15 7.3 53.49 3.73 49.93 3.73 20.58 7.3 24.15"/><polygon class="cls-4" points="81.63 73.06 16.24 73.06 16.18 73 2.35 59.17 2.35 48.65 2.77 48.65 2.77 58.99 16.42 72.64 81.45 72.64 88.91 65.18 110.43 65.18 110.43 65.61 89.09 65.61 81.63 73.06"/><polygon class="cls-4" points="1.56 48.65 1.56 50.57 0.17 51.96 0.17 50.04 1.56 48.65"/><polygon class="cls-4" points="1.56 51.44 1.56 53.36 0.17 54.76 0.17 52.83 1.56 51.44"/><polygon class="cls-4" points="1.56 54.23 1.56 56.16 0.17 57.55 0.17 55.63 1.56 54.23"/><polygon class="cls-4" points="21.37 76.19 14.78 76.19 14.76 76.17 6.45 67.86 6.45 64.59 1.49 59.63 1.49 57.37 1.63 57.37 1.63 59.58 6.59 64.53 6.59 67.81 14.84 76.05 21.32 76.05 23.04 74.33 31.45 74.33 31.45 74.47 23.09 74.47 21.37 76.19"/><polygon class="cls-4" points="22.23 74.27 21.14 75.36 15.13 75.36 7.3 67.53 7.3 66.16 15.42 74.27 22.23 74.27"/><rect class="cls-4" x="124.23" y="300.76" width="0.28" height="0.28" transform="translate(-292.68 -58.86) rotate(-45)"/><path class="cls-4" d="M126.73,303.45l-0.47-.47,0.2-.2,0.47,0.47Zm-0.71-.71-1.18-1.18,0.2-.2,1.18,1.18Z" transform="translate(-116.34 -234.93)"/><path class="cls-4" d="M130.49,307.21l-0.47-.47,0.2-.2,0.47,0.47Zm-0.71-.71-1.18-1.18,0.2-.2,1.18,1.18Zm-1.65-1.65-0.24-.24,0.2-.2,0.24,0.24Z" transform="translate(-116.34 -234.93)"/><rect class="cls-4" x="131.72" y="308.25" width="0.28" height="0.28" transform="translate(-295.81 -51.29) rotate(-45.01)"/><polygon class="cls-3" points="74.55 8.07 72.55 6.08 64.48 6.08 60.53 2.13 44.13 2.13 42.49 3.78 38.71 3.78 37.77 4.72 42.64 4.72 45.99 8.07 74.55 8.07"/><polygon class="cls-4" points="38.93 3.51 40.29 2.15 40.61 2.15 39.25 3.52 38.93 3.51"/><polygon class="cls-4" points="39.72 3.51 41.08 2.15 41.4 2.15 40.04 3.52 39.72 3.51"/><polygon class="cls-4" points="40.52 3.51 41.87 2.15 42.19 2.15 40.83 3.52 40.52 3.51"/><polygon class="cls-4" points="41.31 3.51 42.66 2.15 42.98 2.15 41.63 3.52 41.31 3.51"/><polygon class="cls-4" points="42.1 3.51 43.45 2.15 43.78 2.15 42.42 3.52 42.1 3.51"/><rect class="cls-4" x="45.01" y="1.21" width="14.75" height="0.28"/><rect class="cls-4" x="42.94" y="0.43" width="14.75" height="0.28"/><polygon class="cls-3" points="179.38 37.27 179.38 53.45 174.79 58.02 171.92 60.9 171.92 64.24 168.97 67.19 162.26 67.19 159.72 64.64 159.31 64.24 144.09 64.24 147.01 61.32 163.15 61.32 169.76 54.7 174.5 54.7 178.37 50.83 178.37 38.27 179.38 37.27"/><polygon class="cls-5" points="174.79 58.02 171.92 60.9 171.92 64.24 168.97 67.19 162.26 67.19 159.72 64.64 165.71 64.64 172.33 58.02 174.79 58.02"/><polygon class="cls-2" points="166.2 65.45 154.93 65.45 154.93 65.17 166.09 65.17 174.08 57.17 176.88 57.17 180.09 53.96 180.09 44.6 180.38 44.6 180.38 54.07 176.99 57.46 174.2 57.46 166.2 65.45"/><rect class="cls-2" x="153.1" y="66.13" width="6.62" height="0.28"/><polygon class="cls-6" points="105.69 6.77 80.46 6.77 77.48 3.8 67.1 3.8 67.1 3.23 77.72 3.23 80.69 6.2 105.46 6.2 109.11 2.56 126.38 2.56 127.01 3.13 109.34 3.13 105.69 6.77"/><polygon class="cls-3" points="141.45 62.89 116.08 62.89 116.08 62.32 141.21 62.32 144.63 58.91 155.17 58.91 155.17 59.48 144.86 59.48 141.45 62.89"/><polygon class="cls-3" points="174.13 52.07 173.73 51.67 176.4 49 176.4 26.05 176.97 26.05 176.97 49.23 174.13 52.07"/><polygon class="cls-7" points="81.27 71.61 74.07 71.61 75.55 70.13 80.19 70.13 87.94 62.38 92.72 62.38 94.62 64.28 88.64 64.28 81.27 71.61"/><polygon class="cls-3" points="12.14 66.74 17 71.61 27.07 71.61 25.86 70.39 23.3 70.39 22.02 69.11 17.71 69.11 13.84 65.24 10.63 65.24 12.14 66.74"/><polygon class="cls-3" points="3.73 51.21 3.73 52.32 5.89 54.48 5.89 52.84 3.74 50.69 3.73 51.21"/><polygon class="cls-3" points="3.73 53.77 3.73 54.88 5.89 57.04 5.89 55.4 3.74 53.25 3.73 53.77"/><polygon class="cls-3" points="3.73 56.33 3.73 57.44 5.89 59.59 5.89 57.96 3.74 55.81 3.73 56.33"/><polygon class="cls-4" points="8.42 14.72 8.22 14.52 16.24 6.5 26.94 6.5 28.92 4.52 35.82 4.52 35.82 4.8 29.04 4.8 27.06 6.78 16.36 6.78 8.42 14.72"/><path class="cls-4" d="M186,305.84H185v-0.28H186v0.28Zm-2,0h-0.57v-0.28h0.57v0.28Zm-3.4,0h-1.13v-0.28h1.13v0.28Zm-1.7,0H176v-0.28h2.83v0.28Zm-4,0h-0.57v-0.28h0.57v0.28Zm-3.4,0h-1.13v-0.28h1.13v0.28Zm-1.7,0h-2.83v-0.28h2.83v0.28Zm-4,0h-0.57v-0.28h0.57v0.28Zm-3.4,0h-1.13v-0.28h1.13v0.28Zm-1.7,0h-2.83v-0.28h2.83v0.28Zm-4,0h-0.57v-0.28h0.57v0.28Zm-3.4,0h-1.13v-0.28h1.13v0.28Zm-1.7,0h-2.83v-0.28h2.83v0.28Zm-4,0h-0.57v-0.28h0.57v0.28Z" transform="translate(-116.34 -234.93)"/><path class="cls-4" d="M183.44,245.13h-0.08v-0.28h0.08v0.28Zm-0.65,0H180v-0.28h2.83v0.28Zm-4,0h-0.57v-0.28h0.57v0.28Zm-3.4,0h-1.13v-0.28h1.13v0.28Zm-1.7,0h-2.83v-0.28h2.83v0.28Zm-4,0h-0.57v-0.28h0.57v0.28Zm-3.4,0h-1.13v-0.28h1.13v0.28Zm-1.7,0h-2.83v-0.28h2.83v0.28Zm-3.89-.48-0.4-.4,0.2-.2,0.4,0.4Zm-2.4-2.4-0.68-.68h-0.05v-0.28h0.17l0.76,0.76Zm-1.3-.68h-2.83v-0.28h2.83v0.28Zm-4,0h-0.57v-0.28h0.57v0.28Z" transform="translate(-116.34 -234.93)"/><path class="cls-4" d="M216.8,237.23h-0.5v-0.28h0.5v0.28Zm-1.63,0H214.6v-0.28h0.57v0.28Zm-3.4,0h-1.13v-0.28h1.13v0.28Zm-1.7,0h-2.83v-0.28h2.83v0.28Zm-4,0h-0.57v-0.28h0.57v0.28Zm-3.4,0h-1.13v-0.28h1.13v0.28Zm-1.7,0h-2.83v-0.28H201v0.28Zm-4,0h-0.57v-0.28H197v0.28Z" transform="translate(-116.34 -234.93)"/></g></g></svg>