<svg id="Layer_2" data-name="Layer 2" xmlns="http://www.w3.org/2000/svg" viewBox="0 0 227.6 130.19"><defs><style>.cls-1{fill:#0ff}</style></defs><circle class="cls-1" cx="13.52" cy="14.51" r="2.87"/><path class="cls-1" d="M393.52 321h-16.64l-1.39 1.39H350.7l-2-2h-2l-6.13 6.13h-5.81l-3.52 3.22H304.1l-.81-.81h-11l-1.71-1.71h-16.49l-5.09-5.16h-39.3l-2.07 2.07h-29.87l-5.76 5.75v82.69l-4.64 4.64V426l7.4 7.4v6.71l8.38 8.38H219l4.25-4.25h23.17l4.93 4.93h16.74l8.38-8.38h16l12.3-12.3h9.58l18.29 18.29h40.46l1.75-1.75H395l3.05 3.05h6.18l5.61-5.61 5.09-5.09v-11l-2.12-2.12v-7.55l-2.49-2.49v-79V345l3.64-3.64v-10.85L402.46 319h-6.93zm3.93 2.39l11.9 11.9v91.26l-6.78 6.78v4.85l-5.86 5.82h-62l-16.54-16.54h-44.5l-15.75 15.75h-43.61L193 425.32v-37.43l3.25-3.25v-43.25l-3.25-3.25v-7.84l5.17-5.17h68.51l5.58 5.58H331l3.29 3.29h6.57l10.64-10.64h46z" transform="translate(-187.36 -318.96)"/><path class="cls-1" d="M408 335.83v90.82l-6.25 6.25v4.85l-4.8 4.81h-61.67l-16.5-16.5H273.1l-15.75 15.75h-42.53l-20.4-17.14v-36.92l2.75-2.75v-44l-2.75-2.75v-7.4l4.36-4.36h67.32l5.58 5.57h59.43l2.75 2.76h7.3l10.14-10.14h45.53zm-.25 90.72v-90.62l-11-10.95h-45.31l-10.14 10.15h-7.5l-2.8-2.8h-59.42l-5.58-5.57h-67.16l-4.21 4.24v7.2l2.75 2.75v44.15l-2.75 2.75v36.71l20.28 17h42.34L273 425.85h45.84l16.5 16.5h61.37l4.69-4.7v-4.85z" transform="translate(-187.36 -318.96)"/></svg>