<svg id="Layer_1" data-name="Layer 1" xmlns="http://www.w3.org/2000/svg" viewBox="0 0 365.18 73.78"><defs><style>.cls-1{fill:aqua;}</style></defs><title>border47</title><g id="_编组_" data-name="&lt;编组&gt;"><g id="_编组_2" data-name="&lt;编组&gt;"><rect id="_矩形_" data-name="&lt;矩形&gt;" class="cls-1" y="1.42" width="1.75" height="15.21"/><rect id="_矩形_2" data-name="&lt;矩形&gt;" class="cls-1" x="37.79" y="554.36" width="3.94" height="6.75" transform="translate(561.11 -37.57) rotate(90)"/></g><g id="_编组_3" data-name="&lt;编组&gt;"><rect id="_矩形_3" data-name="&lt;矩形&gt;" class="cls-1" x="38.42" y="623.26" width="3.94" height="6.75" transform="translate(-622.64 111.48) rotate(-90)"/><rect id="_矩形_4" data-name="&lt;矩形&gt;" class="cls-1" x="0.09" y="57.85" width="1.75" height="15.21"/></g><g id="_编组_4" data-name="&lt;编组&gt;"><polygon id="_路径_" data-name="&lt;路径&gt;" class="cls-1" points="364.63 16.19 364.19 16.19 364.19 2.35 1.25 2.35 1.25 16.19 0.8 16.19 0.8 1.35 364.63 1.35 364.63 16.19"/><polygon id="_路径_2" data-name="&lt;路径&gt;" class="cls-1" points="364.48 72.02 0.65 72.02 0.65 57.85 1.1 57.85 1.1 71.02 364.04 71.02 364.04 58.19 364.48 58.19 364.48 72.02"/><g id="_编组_5" data-name="&lt;编组&gt;"><rect id="_矩形_5" data-name="&lt;矩形&gt;" class="cls-1" x="399.82" y="612.92" width="1.75" height="15.21" transform="translate(765 685.51) rotate(180)"/><rect id="_矩形_6" data-name="&lt;矩形&gt;" class="cls-1" x="396.22" y="623.98" width="3.94" height="6.75" transform="translate(-265.55 470) rotate(-90)"/></g><rect id="_矩形_7" data-name="&lt;矩形&gt;" class="cls-1" x="395.6" y="554.13" width="3.94" height="6.75" transform="translate(918.69 -395.6) rotate(90)"/></g><rect id="_矩形_8" data-name="&lt;矩形&gt;" class="cls-1" x="399.72" y="555.54" width="1.75" height="16.19" transform="translate(764.81 571.73) rotate(180)"/></g><rect id="_矩形_9" data-name="&lt;矩形&gt;" class="cls-1" x="20.45" y="0.22" width="50" height="3.94"/><rect id="_矩形_10" data-name="&lt;矩形&gt;" class="cls-1" x="87.59" y="0.22" width="50" height="3.94"/><rect id="_矩形_11" data-name="&lt;矩形&gt;" class="cls-1" x="154.73" y="0.22" width="50" height="3.94"/><rect id="_矩形_12" data-name="&lt;矩形&gt;" class="cls-1" x="221.87" y="0.22" width="50" height="3.94"/><rect id="_矩形_13" data-name="&lt;矩形&gt;" class="cls-1" x="289.02" y="0.22" width="50" height="3.94"/><rect id="_矩形_14" data-name="&lt;矩形&gt;" class="cls-1" x="20.32" y="69.13" width="6.97" height="2.89"/><rect id="_矩形_15" data-name="&lt;矩形&gt;" class="cls-1" x="28.86" y="69.13" width="6.97" height="2.89"/><rect id="_矩形_16" data-name="&lt;矩形&gt;" class="cls-1" x="37.41" y="69.13" width="6.97" height="2.89"/><rect id="_矩形_17" data-name="&lt;矩形&gt;" class="cls-1" x="45.96" y="69.13" width="6.97" height="2.89"/><rect id="_矩形_18" data-name="&lt;矩形&gt;" class="cls-1" x="54.5" y="69.13" width="6.97" height="2.89"/><rect id="_矩形_19" data-name="&lt;矩形&gt;" class="cls-1" x="63.05" y="69.13" width="6.97" height="2.89"/><rect id="_矩形_20" data-name="&lt;矩形&gt;" class="cls-1" x="71.6" y="69.13" width="6.97" height="2.89"/><rect id="_矩形_21" data-name="&lt;矩形&gt;" class="cls-1" x="80.14" y="69.13" width="6.97" height="2.89"/></svg>