<svg xmlns="http://www.w3.org/2000/svg" xmlns:xlink="http://www.w3.org/1999/xlink" viewBox="0 0 481.3 289.3"><defs><style>.cls-1{isolation:isolate;}.cls-2,.cls-3{mix-blend-mode:screen;}.cls-2{fill:url(#linear-gradient);}.cls-3{fill:url(#linear-gradient-2);}.cls-4{fill:#2981e2;}.cls-5,.cls-7,.cls-8{fill:#fff;mix-blend-mode:overlay;}.cls-5{opacity:0.05;}.cls-6{fill:aqua;}.cls-8{opacity:0.46;}</style><linearGradient id="linear-gradient" x1="430.41" y1="288.41" x2="486.48" y2="65.05" gradientUnits="userSpaceOnUse"><stop offset="0" stop-color="red"/><stop offset="0.19" stop-color="#be0000"/><stop offset="0.41" stop-color="#7b0000"/><stop offset="0.61" stop-color="#460000"/><stop offset="0.78" stop-color="#200000"/><stop offset="0.91" stop-color="#090000"/><stop offset="1"/></linearGradient><linearGradient id="linear-gradient-2" x1="4.63" y1="162.86" x2="5.57" y2="274.3" gradientUnits="userSpaceOnUse"><stop offset="0" stop-color="red"/><stop offset="0.07" stop-color="#db0000"/><stop offset="0.2" stop-color="#a10000"/><stop offset="0.33" stop-color="#700000"/><stop offset="0.45" stop-color="#480000"/><stop offset="0.58" stop-color="#280000"/><stop offset="0.69" stop-color="#120000"/><stop offset="0.81" stop-color="#050000"/><stop offset="0.91"/></linearGradient></defs><title>border1</title><g class="cls-1"><g id="Layer_3" data-name="Layer 3"><polygon class="cls-2" points="470.8 144.79 457.21 131.2 457.21 66.35 452.36 61.5 452.36 126.35 452.35 126.35 452.35 134.42 466.12 148.18 466.12 260.58 446.4 280.3 405.51 280.3 411.21 286 440.7 286 448.78 286 454.48 280.3 470.93 263.85 471.82 262.96 471.82 254.89 471.82 153.88 471.82 145.81 470.8 144.79"/><polygon class="cls-3" points="9.65 176.36 9.65 249.59 0.38 240.32 0.38 167.09 9.65 176.36"/></g><g id="Layer_7" data-name="Layer 7"><path class="cls-4" d="M149.12,63.23a2.81,2.81,0,0,0-2.78,2.44H93.62L63.79,95.5V216.17l13,13V305.8l33.12,33.12a2.82,2.82,0,1,0,.53-0.53l-32.9-32.9V228.83l-13-13V95.81L93.93,66.42h52.41A2.81,2.81,0,1,0,149.12,63.23Z" transform="translate(-63.79 -54.14)"/><path class="cls-4" d="M454.11,336.47a2.81,2.81,0,0,0-2.78,2.45H423.46l-14-14-0.11-.11H300.15L286,339H263.7a2.82,2.82,0,1,0,0,.75h22.56l14.19-14.19H409l14,14,0.11,0.11h28.18A2.81,2.81,0,1,0,454.11,336.47Z" transform="translate(-63.79 -54.14)"/><path class="cls-4" d="M313.5,62.95h56a2.82,2.82,0,1,0,0-.75H313.19L295.1,80.29H241.77l-9.45-9.45H207.5a2.82,2.82,0,1,0,0,.75H232L241.46,81h54Z" transform="translate(-63.79 -54.14)"/><path class="cls-4" d="M542.65,221.53V197.36L525,179.66V111.83L469.82,56.7l-0.11-.11H438.83a2.82,2.82,0,1,0,0,.75H469.4l54.8,54.81V180l17.7,17.7v23.86A2.82,2.82,0,1,0,542.65,221.53Z" transform="translate(-63.79 -54.14)"/><path class="cls-4" d="M73.44,303.73" transform="translate(-63.79 -54.14)"/><path class="cls-4" d="M64.17,221.23" transform="translate(-63.79 -54.14)"/></g><g id="Layer_4" data-name="Layer 4"><polygon class="cls-5" points="52.44 272.71 27.7 247.97 27.7 167.31 15.76 155.38 15.76 48.4 35.46 28.71 165.67 28.71 172.79 35.84 236.5 35.84 253.32 19.01 402.65 19.01 443.7 60.07 443.7 139.43 456.65 152.36 456.65 256.75 441.14 272.25 365.18 272.25 351.76 258.84 231.39 258.84 217.52 272.71 52.44 272.71"/></g><g id="Layer_2" data-name="Layer 2"><path class="cls-6" d="M283.38,331.85H114.17L86.49,304.18V223.53L74.55,211.59V100.47L97.18,77.85H231.53L238.66,85h59.56L315,68.15H468.51l44,44v79.36l12.95,12.94V313L507,331.39H426.9L413.49,318H297.25Zm-168.39-2H282.56L296.42,316H414.31l13.41,13.41h78.45l17.27-17.26V205.26L510.5,192.32V113L467.69,70.15H315.87L299.05,87H237.83l-7.13-7.13H98L76.55,101.3V210.76L88.49,222.7v80.65Z" transform="translate(-63.79 -54.14)"/><path class="cls-7" d="M281.47,327.22H116.08l-0.11-.11L91.12,302.26V221.61L79.18,209.67V102.39L99.1,82.48H229.61l7.13,7.13h63.4L317,72.78H466.6l0.11,0.11,41.16,41.16v79.36l12.95,12.94V311l-15.73,15.72H428.81l-0.11-.11-13.3-13.3H295.33Zm-165.08-.75H281.16L295,312.61H415.71l0.11,0.11,13.3,13.3h75.65l15.29-15.29V206.66l-12.95-12.94V114.36L466.29,73.53h-149L300.45,90.36h-64l-7.13-7.13H99.41L79.93,102.7V209.36L91.87,221.3V302Z" transform="translate(-63.79 -54.14)"/><path class="cls-8" d="M281.47,327.22H116.08l-0.11-.11L91.12,302.26V221.61L79.18,209.67V102.39L99.1,82.48H229.61l7.13,7.13h63.4L317,72.78H466.6l0.11,0.11,41.16,41.16v79.36l12.95,12.94V311l-15.73,15.72H428.81l-0.11-.11-13.3-13.3H295.33Zm-165.08-.75H281.16L295,312.61H415.71l0.11,0.11,13.3,13.3h75.65l15.29-15.29V206.66l-12.95-12.94V114.36L466.29,73.53h-149L300.45,90.36h-64l-7.13-7.13H99.41L79.93,102.7V209.36L91.87,221.3V302Z" transform="translate(-63.79 -54.14)"/></g></g></svg>