<svg id="Layer_5" data-name="Layer 5" xmlns="http://www.w3.org/2000/svg" viewBox="0 0 665.18 755.29"><defs><style>.cls-1,.cls-2{fill:#03a6ff;}.cls-2,.cls-3{opacity:0.3;}.cls-3{fill:#00558d;}</style></defs><title>border39</title><polygon class="cls-1" points="17.55 0 17.55 31.3 48.84 0 17.55 0"/><polygon class="cls-1" points="665.18 510.8 641.52 534.45 641.52 558.2 665.18 534.54 665.18 510.8"/><polygon class="cls-1" points="665.18 546.79 641.52 570.45 641.52 594.19 665.18 570.54 665.18 546.79"/><polygon class="cls-1" points="665.18 582.79 641.52 606.45 641.52 630.19 665.18 606.54 665.18 582.79"/><polygon class="cls-1" points="665.18 618.79 641.52 642.45 641.52 666.19 665.18 642.54 665.18 618.79"/><polygon class="cls-1" points="665.18 654.79 641.52 678.45 641.52 702.19 665.18 678.54 665.18 654.79"/><path class="cls-1" d="M1533.4,1362.54V1339.8l-16.94-16.94V1141.71l-0.1-2-5.1-5.1v205.75l19,19-19-19V1134.66H1393.85L1372,1156.47H1099.16l-21.82-21.81H931.87l-46.1,46.09v136.3h0V1338l27.53,27.53v77.59l-4.78,4.78v60.89l-40.29,40.29v23.58h0v288.52h258.69l10.5,10.5h145.22l18.28,18.28h159l43.9-43.89V1662.65l29.6-29.59V1362.54h0ZM1086.93,1844.6h0ZM1528.41,1631l-29.6,29.59V1844l-41,41H1303l-45.36-45.35H1084.86l-16.57,16.57H873.23V1574.72l45.07-45.07V1342.51L890.77,1315V1182.82l43.17-43.16h141.33l21.82,21.81h277l21.81-21.81h110.35v202.82l22.14,22.13V1631Z" transform="translate(-868.23 -1134.66)"/><polygon class="cls-1" points="220.54 0 237.46 16.91 255.16 16.91 238.24 0 220.54 0"/><polygon class="cls-1" points="248.02 0 264.93 16.91 282.63 16.91 265.71 0 248.02 0"/><polygon class="cls-1" points="275.49 0 292.4 16.91 310.1 16.91 293.19 0 275.49 0"/><polygon class="cls-1" points="302.96 0 319.88 16.91 337.58 16.91 320.66 0 302.96 0"/><polygon class="cls-1" points="330.44 0 347.35 16.91 365.05 16.91 348.13 0 330.44 0"/><polygon class="cls-1" points="357.91 0 374.83 16.91 392.52 16.91 375.61 0 357.91 0"/><polygon class="cls-1" points="385.39 0 402.3 16.91 420 16.91 403.08 0 385.39 0"/><polygon class="cls-1" points="412.86 0 429.77 16.91 447.47 16.91 430.56 0 412.86 0"/><polygon class="cls-1" points="440.33 0 457.25 16.91 474.94 16.91 458.03 0 440.33 0"/><polygon class="cls-1" points="467.81 0 484.72 16.91 499.99 16.91 516.9 0 467.81 0"/><polygon class="cls-2" points="638.04 5 638.04 42.63 115.42 42.63 50.07 107.98 50.07 207.85 22.54 180.32 22.54 48.16 65.71 5 207.04 5 228.86 26.82 505.88 26.82 527.69 5 638.04 5"/><polygon class="cls-2" points="630.58 640.75 630.58 709.34 589.61 750.29 434.76 750.29 389.4 704.95 566.4 704.95 630.58 640.75"/><polygon class="cls-3" points="660.18 229.96 660.18 496.33 630.58 525.92 630.58 640.75 566.4 704.95 216.63 704.95 200.06 721.51 5 721.51 5 440.06 50.07 395 50.07 107.98 115.42 42.63 638.04 42.63 638.04 207.82 660.18 229.96"/></svg>