<svg data-name="Layer 5" xmlns="http://www.w3.org/2000/svg" viewBox="0 0 114.45 67.77"><path d="M114.03 63.1v-6.49l-1.33-1.33v-3.62l-1.14-1.14V17.24l1.14-1.14v-3.67l1.33-1.33V4.61a.68.68 0 10-.5 0v6.28l-.83.83V3.83l-2.67-2.67h-1.19L107.68 0h-8.54l-1.86 1.86h-4.13a.68.68 0 100 .5h4.34L99.35.5h8.13l.66.66h-8.3l-1.81 1.81h-5.6l-1.4 1.4H23.45l-1.42-1.4h-5.6l-1.81-1.81h-8.3L6.98.5h8.13l1.86 1.86h4.34a.68.68 0 100-.5h-4.13L15.32 0H6.78L5.62 1.16H4.43L1.76 3.83v7.95l-.83-.83V4.67a.68.68 0 10-.5 0v6.49l1.33 1.33v3.62l1.14 1.14v33.28l-1.14 1.14v3.62L.43 56.62v6.49a.68.68 0 10.5 0v-6.28l.83-.83v7.95l2.67 2.67h1.19l1.16 1.16h8.54l1.86-1.86h4.13a.68.68 0 100-.5h-4.34l-1.86 1.86H7.03l-.66-.66h8.3l1.81-1.81h5.55l1.41-1.41h67.59l1.41 1.41h5.59l1.81 1.81h8.3l-.66.66h-8.13l-1.86-1.85h-4.34a.68.68 0 100 .5h4.13l1.86 1.86h8.54l1.16-1.16h1.19l2.67-2.67v-7.95l.83.83v6.28a.68.68 0 10.5-.02zm-4.21-16.56a.67.67 0 00-.25 1.3v8.59l1.46 1.5v2.93l-2 2H5.43l-2-2v-2.93l1.49-1.49v-8.6a.68.68 0 10-.5 0v8.39l-1 1V10.54l1 1v8.39a.68.68 0 10.5 0v-8.6L3.43 9.84V6.91l2-2h103.6l2 2v2.93l-1.49 1.49v8.6a.68.68 0 10.5 0v-8.4l1-1v46.7l-1-1v-8.39a.67.67 0 00-.22-1.3z" fill="#0ff"/></svg>