<svg id="Layer_1" data-name="Layer 1" xmlns="http://www.w3.org/2000/svg" viewBox="0 0 926.7 471.46"><defs><style>.cls-1{fill:#02a6ff}</style></defs><g id="_编组_" data-name="&lt;编组&gt;"><g id="_编组_2" data-name="&lt;编组&gt;"><path id="_复合路径_" data-name="&lt;复合路径&gt;" class="cls-1" d="M3182.93 468.3h-256.62v-1.67h256.61v1.67zm-275 0h-256.57v-1.67H2908v1.67zm-275 0h-181.21v-77h1.67v75.32H2633v1.67zm564.76-10.12l-1.18-1.18 107.5-107.5V245.62h1.67V350.2l-.24.25zM2453.38 373h-1.67V181.66L2582.2 51.18h73.11v1.67h-72.42l-129.51 129.5V373zm852.38-145.7h-1.67V52.85h-80.52v-1.67h82.19v176.09zM3205.23 52.85h-256.61v-1.67h256.61v1.67zm-275 0h-256.57v-1.67h256.61v1.67z" transform="translate(-2414.79 -26.06)"/></g><path id="_路径_" data-name="&lt;路径&gt;" class="cls-1" d="M0 365.65h5.27V155.06L0 162.03v203.62z"/><path id="_路径_2" data-name="&lt;路径&gt;" class="cls-1" d="M16.69 310.12H9.41V152.19L161.6 0H345v7.28H164.61L16.69 155.2v154.92z"/><path id="_路径_3" data-name="&lt;路径&gt;" class="cls-1" d="M919.43 161.34h7.27v157.93L774.51 471.46H591.12v-7.27H771.5l147.93-147.93V161.34z"/></g></svg>