<svg id="Layer_5" data-name="Layer 5" xmlns="http://www.w3.org/2000/svg" viewBox="0 0 483.67 799.73"><defs><style>.cls-1,.cls-2{fill:#03a6ff;}.cls-2,.cls-3{opacity:0.3;}.cls-3{fill:#00558d;}</style></defs><title>border40</title><path class="cls-1" d="M2086.89,1262.31V1135.06l-22.54-22.54h-130l-22.3-22.3H1687.16V1252.5l-59.33,59.33v272.46l26.55,26.55v76.53l5.32,5.33V1769l60.07,60.06,10.3,10.3h97.49l50.57,50.57H2074.8l5.43-5.42V1742.85l31.27-31.27V1286.92Zm19.61,447.2-36.7,36.7V1885H1880.2l-60.87-60.87h-97.49L1664.7,1767V1576.88l-9.08-9.08-22.79-22.8V1313.9l59.33-59.33V1095.22H1885.9l22.3,22.3h154.08l15,15V1259.8L2106.5,1289v420.52Z" transform="translate(-1627.83 -1090.22)"/><polygon class="cls-1" points="48.31 123.34 0 171.63 0 197.99 48.31 149.69 48.31 123.34"/><polygon class="cls-1" points="48.31 78.09 0 126.39 0 152.75 48.31 104.44 48.31 78.09"/><polygon class="cls-1" points="48.31 33.69 0 81.98 0 108.34 48.31 60.04 48.31 33.69"/><polygon class="cls-1" points="48.31 0 0 0 0 62.07 48.31 13.76 48.31 0"/><polygon class="cls-1" points="31.88 738.52 78.33 738.86 31.88 692.39 31.88 738.52"/><polygon class="cls-1" points="454.52 22.3 442.92 22.3 454.48 33.85 454.52 22.3"/><polygon class="cls-2" points="441.97 760.12 441.97 794.73 252.37 794.73 191.5 733.86 276.46 733.86 302.73 760.12 441.97 760.12"/><polygon class="cls-2" points="64.33 164.35 64.33 276.18 27.79 312.71 27.79 477.58 5 454.78 5 223.68 64.33 164.35"/><polygon class="cls-3" points="478.67 198.77 478.67 619.29 441.97 655.99 441.97 760.12 302.73 760.12 276.46 733.86 94.01 733.86 36.87 676.73 36.87 486.66 27.79 477.58 27.79 312.71 64.33 276.18 64.33 5 258.07 5 280.37 27.3 434.45 27.3 449.48 42.33 449.48 169.58 478.67 198.77"/></svg>