<svg id="Layer_1" data-name="Layer 1" xmlns="http://www.w3.org/2000/svg" viewBox="0 0 94.34 126.48"><defs><style>.cls-2{fill:#ff7df5}</style></defs><path d="M120.47 282H36.19a4.91 4.91 0 01-4.91-4.91V160.68a4.91 4.91 0 014.91-4.91h84.28a4.91 4.91 0 014.91 4.91v116.41a4.91 4.91 0 01-4.91 4.91zM36.19 156.27a4.41 4.41 0 00-4.41 4.41v116.41a4.41 4.41 0 004.41 4.41h84.28a4.41 4.41 0 004.41-4.41V160.68a4.41 4.41 0 00-4.41-4.41H36.19z" transform="translate(-31.16 -155.65)" fill="#ba5bb2"/><path class="cls-2" d="M120.47 282.13h-19.24v-.75h19.24a4.29 4.29 0 004.28-4.28v-10.86h.75v10.85a5 5 0 01-5.03 5.04zM44.66 282.13h-8.47a5 5 0 01-5-5v-22.31h.75v22.28a4.29 4.29 0 004.28 4.28h8.46v.75zM31.91 170.08h-.75v-9.4a5 5 0 015-5h17.41v.75H36.19a4.29 4.29 0 00-4.28 4.28v9.4zM125.5 186.92h-.75v-26.24a4.29 4.29 0 00-4.28-4.28h-11.4v-.75h11.4a5 5 0 015 5v26.24z" transform="translate(-31.16 -155.65)"/></svg>