<svg xmlns="http://www.w3.org/2000/svg" viewBox="0 0 490.22 314.16"><defs><style>.cls-1{fill:aqua;}</style></defs><title>border61</title><path class="cls-1" d="M357.93,51.31H287.09v14h70.84v-14ZM357.38,64.8H287.63v-13h69.76v13Z" transform="translate(-54.89 -42.92)"/><polygon class="cls-1" points="476.32 213.88 460.43 229.77 460.41 240.9 476.32 224.99 476.32 213.88"/><polygon class="cls-1" points="476.32 200.36 460.43 216.26 460.41 227.39 476.32 211.48 476.32 200.36"/><polygon class="cls-1" points="476.32 186.85 460.43 202.75 460.41 213.88 476.32 197.97 476.32 186.85"/><polygon class="cls-1" points="476.32 173.34 460.43 189.23 460.41 200.36 476.32 184.45 476.32 173.34"/><polygon class="cls-1" points="476.32 159.83 460.43 175.72 460.41 186.85 476.32 170.94 476.32 159.83"/><polygon class="cls-1" points="476.32 146.31 460.43 162.21 460.41 173.34 476.32 157.43 476.32 146.31"/><polygon class="cls-1" points="377.94 284.52 359.53 302.94 375.82 302.94 394.24 284.52 377.94 284.52"/><polygon class="cls-1" points="359.24 284.52 340.82 302.94 357.12 302.94 375.53 284.52 359.24 284.52"/><polygon class="cls-1" points="340.53 284.52 322.11 302.94 338.41 302.94 356.83 284.52 340.53 284.52"/><polygon class="cls-1" points="321.82 284.52 303.41 302.94 319.7 302.94 338.12 284.52 321.82 284.52"/><path class="cls-1" d="M521.2,47.18H508.62l-4.39,4.39h-114l-6.73-6.73h-97l-1.78-1.78H278.4l-3,3v1.32L255.57,67.22h-3.66l-1.54,1.54h-2.64l-1.06,1.06H204.72l-7.5-7.5-18.53,0,4,4h11.67l7.18,7.18h67l-4,4H197.64l-6.74-6.74h-15l-8.39-8.39H149.06l5.14-5.14h9.67l-3.5-3.5H127.77L137.41,44h56.48L209.4,59.51h37a3.31,3.31,0,1,0,0-1.08H209.85L194.34,42.92H137L126.24,53.64h-25.8L85.35,68.73V80.47L70.7,95.12v33.94l2.88,2.88v23.22l-1.48-1.48h0l-4.21-4.21V124.69l-2,2v32.83L68.34,162v12.83l2.36,2.36V238.1l-9,9v61.84l-6.8,6.8v18.91L63.25,343h9.88l14.08,14.08H144.1l8.32-8.32H432.27l4.27-4.27h6.18l12.65-12.65h60.45l22.66-22.66V295l-5-5V118.35l5.64-5.64v-27l6-6V71.1ZM359.12,49.82V67.06H285.57V49.82h73.55Zm72.7,297.86H210.88l-9.82-9.82H142.48l-2.64-2.64h62.41l8.87,8.87h51.56a2.84,2.84,0,1,0,0-1.08H211.57l-8.87-8.87H138.76l-0.67-.67H94.73L75.5,314.23V240.87l5.67-5.67V162.75l-3.09-3.09V130.41l-2.59-2.59v-8.75L78,116.59V97.21l29.39-29.39H158l10.66,10.66h96.25l10.34-10.34h85.31L373,55.74h53.1l8.72,8.72h77.66l17.39,17.39V108.1l2.56,2.56V269.1l-17.1,17.1v26.07l-6.41,6.41H482.73l-3,3h-25l-1.06,1.06-4.89-4.89H375.95l-8.38,8.38H342.65a3.31,3.31,0,1,0,0,1.08H368l8.38-8.38h72l4.57,4.57L451.43,325v3ZM532.4,300.22l-0.21.21,0.21-.32v0.12Z" transform="translate(-54.89 -42.92)"/><circle class="cls-1" cx="217.33" cy="300.63" r="2.84"/><circle class="cls-1" cx="224.08" cy="300.63" r="2.84"/><path class="cls-1" d="M507.76,309.21H94.93V94.2H507.76v215ZM96,308.16H506.71V95.25H96V308.16Z" transform="translate(-54.89 -42.92)"/></svg>