<svg xmlns="http://www.w3.org/2000/svg" viewBox="0 0 120.08 78.54"><defs><style>.cls-1{isolation:isolate;}.cls-2,.cls-4,.cls-7{fill:#fff;}.cls-3{fill:#29abe2;}.cls-4,.cls-7{mix-blend-mode:overlay;}.cls-5{fill:#f2f2f2;}.cls-6{fill:#0071bc;}.cls-7{opacity:0.49;}.cls-8{fill:#29e5e2;}</style></defs><title>border52</title><g class="cls-1"><g id="Layer_4" data-name="Layer 4"><polygon class="cls-2" points="22.55 0 20.18 2.36 11.68 2.36 1.59 12.45 1.59 58.33 0 59.91 0 11.05 11.05 0 22.55 0"/><path class="cls-3" d="M449.11,218.91H406.44l-8.81-8.81v-54l9.63-9.63h25.38l1.55-1.55h27.64l1.55,1.55H494l0.88-.88h8.22l4.13,4.13v0.69L511.8,155h0.77l1.62,1.62v39.49h0l-0.65.65v8.33L504.61,214H454Zm-42.62-.09h42.58l4.89-4.89h50.61l8.86-8.86v-8.33h0l0.65-.65V156.66l-1.58-1.58h-0.77l-4.62-4.62v-0.69L503,145.66H494.9l-0.88.88H463.35L461.8,145H434.23l-1.55,1.55H407.3l-9.58,9.58V210Z" transform="translate(-395.2 -143.36)"/><polygon class="cls-4" points="4.84 63.49 4.84 68.37 2.48 66.01 2.48 61.12 4.84 63.49"/><polygon class="cls-5" points="54.13 76.47 10.77 76.47 10.73 76.43 1.56 67.25 1.56 60.28 1.84 60.28 1.84 67.14 10.89 76.19 54.01 76.19 58.96 71.24 73.23 71.24 73.23 71.52 59.08 71.52 54.13 76.47"/><polygon class="cls-5" points="1.04 60.28 1.04 61.55 0.11 62.47 0.11 61.2 1.04 60.28"/><polygon class="cls-5" points="1.04 62.13 1.04 63.4 0.11 64.33 0.11 63.05 1.04 62.13"/><polygon class="cls-5" points="1.04 63.98 1.04 65.26 0.11 66.18 0.11 64.91 1.04 63.98"/><polygon class="cls-5" points="14.17 78.54 9.8 78.54 9.79 78.53 4.28 73.02 4.28 70.85 0.99 67.56 0.99 66.06 1.08 66.06 1.08 67.52 4.37 70.81 4.37 72.98 9.84 78.45 14.13 78.45 15.28 77.31 20.85 77.31 20.85 77.4 15.31 77.4 14.17 78.54"/><polygon class="cls-5" points="14.74 77.27 14.02 77.99 10.03 77.99 4.84 72.8 4.84 71.89 10.22 77.27 14.74 77.27"/><rect class="cls-5" x="400.43" y="215.02" width="0.19" height="0.19" transform="translate(-430.05 202.7) rotate(-44.98)"/><path class="cls-5" d="M402.09,216.81l-0.31-.31,0.13-.13,0.31,0.31Zm-0.47-.47-0.78-.78,0.13-.13,0.78,0.78Z" transform="translate(-395.2 -143.36)"/><path class="cls-5" d="M404.58,219.3l-0.31-.31,0.13-.13,0.31,0.31Zm-0.47-.47-0.78-.78,0.13-.13,0.78,0.78ZM403,217.75l-0.16-.16,0.13-.13,0.16,0.16Z" transform="translate(-395.2 -143.36)"/><rect class="cls-5" x="405.4" y="219.99" width="0.19" height="0.19" transform="translate(-432.05 207.85) rotate(-45)"/><polygon class="cls-4" points="49.43 5.35 48.11 4.03 42.76 4.03 40.14 1.42 29.26 1.42 28.18 2.5 25.67 2.5 25.04 3.13 28.27 3.13 30.5 5.35 49.43 5.35"/><polygon class="cls-5" points="25.82 2.33 26.72 1.43 26.93 1.43 26.03 2.33 25.82 2.33"/><polygon class="cls-5" points="26.34 2.33 27.24 1.43 27.46 1.43 26.55 2.33 26.34 2.33"/><polygon class="cls-5" points="26.87 2.33 27.77 1.43 27.98 1.43 27.08 2.33 26.87 2.33"/><polygon class="cls-5" points="27.39 2.33 28.29 1.43 28.5 1.43 27.6 2.33 27.39 2.33"/><polygon class="cls-5" points="27.92 2.33 28.82 1.43 29.03 1.43 28.13 2.33 27.92 2.33"/><polygon class="cls-6" points="111.97 7.06 111.97 6.37 107.03 1.43 89.03 1.43 87.34 3.12 90.51 3.13 90.51 3.13 98.81 3.13 99.68 2.25 106.61 2.25 113.11 8.75 113.11 8.2 111.97 7.06"/><polygon class="cls-5" points="114.02 9.11 114.02 9.41 114.37 9.76 114.37 9.47 114.02 9.11"/><polygon class="cls-5" points="114.62 9.71 114.62 10.01 114.97 10.37 114.97 10.07 114.62 9.71"/><polygon class="cls-5" points="115.22 10.31 115.22 10.61 115.57 10.96 115.57 10.67 115.22 10.31"/><polygon class="cls-5" points="120.08 17.42 119.89 17.42 119.89 13.03 117.53 10.66 116.69 10.66 112.88 6.84 113.01 6.71 116.77 10.47 117.6 10.47 120.08 12.95 120.08 17.42"/><rect class="cls-5" x="29.85" y="0.8" width="9.78" height="0.19"/><rect class="cls-5" x="28.47" y="0.28" width="9.78" height="0.19"/><polygon class="cls-6" points="118.95 52.73 118.95 63.46 115.91 66.5 114 68.4 114 70.61 112.05 72.57 107.6 72.57 105.91 70.89 105.64 70.61 95.55 70.61 97.48 68.68 108.19 68.68 112.58 64.29 115.71 64.29 118.28 61.72 118.28 53.4 118.95 52.73"/><polygon class="cls-7" points="115.91 66.5 114 68.4 114 70.61 112.05 72.57 107.6 72.57 105.91 70.89 109.89 70.89 114.27 66.5 115.91 66.5"/><polygon class="cls-2" points="110.21 71.42 102.74 71.42 102.74 71.23 110.14 71.23 115.44 65.93 117.29 65.93 119.42 63.8 119.42 57.6 119.61 57.6 119.61 63.88 117.37 66.12 115.52 66.12 110.21 71.42"/><rect class="cls-2" x="101.52" y="71.87" width="4.39" height="0.19"/><polygon class="cls-8" points="70.09 4.49 53.35 4.49 51.38 2.52 44.49 2.52 44.49 2.14 51.54 2.14 53.51 4.11 69.93 4.11 72.35 1.7 83.81 1.7 83.81 2.07 72.51 2.07 70.09 4.49"/><polygon class="cls-6" points="93.8 69.72 76.98 69.72 76.98 69.35 93.64 69.35 95.91 67.08 102.9 67.08 102.9 67.46 96.06 67.46 93.8 69.72"/><polygon class="cls-6" points="115.47 62.55 115.2 62.28 116.97 60.51 116.97 14.18 117.35 14.18 117.35 60.67 115.47 62.55"/><polygon class="cls-6" points="53.89 75.5 49.12 75.5 50.1 74.52 53.18 74.52 58.31 69.39 61.48 69.39 62.75 70.65 58.78 70.65 53.89 75.5"/><polygon class="cls-4" points="8.05 72.28 11.27 75.5 17.95 75.5 17.14 74.7 15.45 74.7 14.6 73.85 11.74 73.85 9.18 71.28 7.05 71.28 8.05 72.28"/><polygon class="cls-4" points="2.48 61.98 2.48 62.71 3.91 64.14 3.91 63.06 2.48 61.63 2.48 61.98"/><polygon class="cls-4" points="2.48 63.67 2.48 64.41 3.91 65.84 3.91 64.76 2.48 63.33 2.48 63.67"/><polygon class="cls-4" points="2.48 65.37 2.48 66.11 3.91 67.54 3.91 66.45 2.48 65.03 2.48 65.37"/><polygon class="cls-5" points="5.59 9.76 5.45 9.63 10.77 4.31 17.87 4.31 19.18 3 23.75 3 23.75 3.18 19.26 3.18 17.94 4.5 10.85 4.5 5.59 9.76"/><path class="cls-5" d="M441.37,218.39h-0.61v-0.19h0.61v0.19Zm-1.36,0h-0.38v-0.19H440v0.19Zm-2.25,0H437v-0.19h0.75v0.19Zm-1.13,0h-1.88v-0.19h1.88v0.19Zm-2.63,0h-0.38v-0.19H434v0.19Zm-2.25,0H431v-0.19h0.75v0.19Zm-1.13,0h-1.88v-0.19h1.88v0.19Zm-2.63,0h-0.38v-0.19H428v0.19Zm-2.25,0H425v-0.19h0.75v0.19Zm-1.13,0h-1.88v-0.19h1.88v0.19Zm-2.63,0h-0.38v-0.19H422v0.19Zm-2.25,0H419v-0.19h0.75v0.19Zm-1.13,0h-1.88v-0.19h1.88v0.19Zm-2.63,0h-0.38v-0.19H416v0.19Z" transform="translate(-395.2 -143.36)"/><path class="cls-5" d="M439.69,150.12h-0.05v-0.19h0.05v0.19Zm-0.43,0h-1.88v-0.19h1.88v0.19Zm-2.63,0h-0.38v-0.19h0.38v0.19Zm-2.25,0h-0.75v-0.19h0.75v0.19Zm-1.13,0h-1.88v-0.19h1.88v0.19Zm-2.63,0h-0.38v-0.19h0.38v0.19Zm-2.25,0h-0.75v-0.19h0.75v0.19Zm-1.13,0h-1.88v-0.19h1.88v0.19Zm-2.58-.32-0.27-.27,0.13-.13,0.27,0.27Zm-1.59-1.59-0.45-.45h0v-0.19h0.11l0.51,0.51Zm-0.86-.45h-1.88v-0.19h1.88v0.19Zm-2.63,0H419.2v-0.19h0.38v0.19Z" transform="translate(-395.2 -143.36)"/><path class="cls-5" d="M461.81,144.88h-0.33v-0.19h0.33v0.19Zm-1.08,0h-0.38v-0.19h0.38v0.19Zm-2.25,0h-0.75v-0.19h0.75v0.19Zm-1.13,0h-1.88v-0.19h1.88v0.19Zm-2.63,0h-0.38v-0.19h0.38v0.19Zm-2.25,0h-0.75v-0.19h0.75v0.19Zm-1.13,0h-1.88v-0.19h1.88v0.19Zm-2.63,0h-0.38v-0.19h0.38v0.19Z" transform="translate(-395.2 -143.36)"/></g></g></svg>