<svg id="Layer_1" data-name="Layer 1" xmlns="http://www.w3.org/2000/svg" viewBox="0 0 638.98 587.19"><defs><style>.cls-1{fill:#02a6ff;}</style></defs><title>border15</title><g id="_编组_" data-name="&lt;编组&gt;"><path id="_复合路径_" data-name="&lt;复合路径&gt;" class="cls-1" d="M2335.17,611.12H2226.56V589.56H2181.3v21.55H2016.64V593.5H1845.43v17.62H1707.58V263.54h13.87V136.93h-13.87V28h627.59V202.53h-5.62V313.39h5.62V611.12Zm-94.84-13.78h81.06V327.17h-5.62V188.75h5.62V41.81h-600v81.34h13.87V277.31h-13.87v320h110.3V579.72h198.76v17.62h137.1V575.79h72.81v21.55Z" transform="translate(-1704.72 -24.59)"/><rect id="_矩形_" data-name="&lt;矩形&gt;" class="cls-1" x="52.15" width="5.9" height="10.33"/><rect id="_矩形_2" data-name="&lt;矩形&gt;" class="cls-1" x="60.76" width="5.9" height="10.33"/><rect id="_矩形_3" data-name="&lt;矩形&gt;" class="cls-1" x="69.37" width="5.9" height="10.33"/><rect id="_矩形_4" data-name="&lt;矩形&gt;" class="cls-1" x="77.98" width="5.9" height="10.33"/><rect id="_矩形_5" data-name="&lt;矩形&gt;" class="cls-1" x="86.59" width="5.9" height="10.33"/><rect id="_矩形_6" data-name="&lt;矩形&gt;" class="cls-1" x="95.2" width="5.9" height="10.33"/><g id="_编组_2" data-name="&lt;编组&gt;"><polygon id="_路径_" data-name="&lt;路径&gt;" class="cls-1" points="401.71 0 253.38 0 243.04 10.33 412.04 10.33 401.71 0"/></g><rect id="_矩形_7" data-name="&lt;矩形&gt;" class="cls-1" x="508.14" width="116.44" height="5.17"/><rect id="_矩形_8" data-name="&lt;矩形&gt;" class="cls-1" x="626.8" y="318.65" width="7.22" height="7.22"/><rect id="_矩形_9" data-name="&lt;矩形&gt;" class="cls-1" x="626.8" y="327.99" width="7.22" height="7.22"/><rect id="_矩形_10" data-name="&lt;矩形&gt;" class="cls-1" x="626.8" y="337.34" width="7.22" height="7.22"/><rect id="_矩形_11" data-name="&lt;矩形&gt;" class="cls-1" x="626.8" y="346.69" width="7.22" height="7.22"/><rect id="_矩形_12" data-name="&lt;矩形&gt;" class="cls-1" x="626.8" y="356.04" width="7.22" height="7.22"/><rect id="_矩形_13" data-name="&lt;矩形&gt;" class="cls-1" x="626.8" y="365.39" width="7.22" height="7.22"/><rect id="_矩形_14" data-name="&lt;矩形&gt;" class="cls-1" x="1.48" y="278.47" width="15.74" height="36.41"/><rect id="_矩形_15" data-name="&lt;矩形&gt;" class="cls-1" x="7.72" y="324.84" width="4.06" height="4.3"/><rect id="_矩形_16" data-name="&lt;矩形&gt;" class="cls-1" x="7.72" y="330.25" width="4.06" height="4.3"/><rect id="_矩形_17" data-name="&lt;矩形&gt;" class="cls-1" x="7.72" y="335.66" width="4.06" height="4.3"/><rect id="_矩形_18" data-name="&lt;矩形&gt;" class="cls-1" x="7.72" y="341.07" width="4.06" height="4.3"/><rect id="_矩形_19" data-name="&lt;矩形&gt;" class="cls-1" x="7.72" y="346.48" width="4.06" height="4.3"/><g id="_编组_3" data-name="&lt;编组&gt;"><polygon id="_路径_2" data-name="&lt;路径&gt;" class="cls-1" points="624.58 164.49 624.58 35.07 607.77 45.59 607.77 153.68 623.9 164.49 624.58 164.49"/></g><rect id="_矩形_20" data-name="&lt;矩形&gt;" class="cls-1" y="379.82" width="16.73" height="170.23"/><path id="_复合路径_2" data-name="&lt;复合路径&gt;" class="cls-1" d="M1804.84,611.78h-55.1V595.3h55.1v16.48Zm-53.13-2h51.17V597.27h-51.17v12.55Z" transform="translate(-1704.72 -24.59)"/><rect id="_路径_3" data-name="&lt;路径&gt;" class="cls-1" x="16.73" y="16.56" width="564.15" height="2.62"/><rect id="_路径_4" data-name="&lt;路径&gt;" class="cls-1" x="633.03" y="39.19" width="1.97" height="107.58"/><g id="_编组_4" data-name="&lt;编组&gt;"><polygon id="_路径_5" data-name="&lt;路径&gt;" class="cls-1" points="342 579.63 349.31 586.95 366.78 586.95 359.47 579.63 342 579.63"/><polygon id="_路径_6" data-name="&lt;路径&gt;" class="cls-1" points="382.35 579.63 389.66 586.95 408.27 586.95 400.96 579.63 382.35 579.63"/><polygon id="_路径_7" data-name="&lt;路径&gt;" class="cls-1" points="403.26 579.63 410.57 586.95 434.76 586.95 427.45 579.63 403.26 579.63"/><polygon id="_路径_8" data-name="&lt;路径&gt;" class="cls-1" points="455.02 579.63 429.74 579.63 437.05 586.95 447.71 586.95 455.02 579.63"/><polygon id="_路径_9" data-name="&lt;路径&gt;" class="cls-1" points="362.58 579.63 369.89 586.95 387.36 586.95 380.05 579.63 362.58 579.63"/></g><rect id="_矩形_21" data-name="&lt;矩形&gt;" class="cls-1" x="608.15" y="406.55" width="30.83" height="27.88"/><rect id="_矩形_22" data-name="&lt;矩形&gt;" class="cls-1" x="620.89" y="441.32" width="5.53" height="7.01"/><rect id="_矩形_23" data-name="&lt;矩形&gt;" class="cls-1" x="620.89" y="452.14" width="5.53" height="7.01"/><rect id="_矩形_24" data-name="&lt;矩形&gt;" class="cls-1" x="620.89" y="463.33" width="5.53" height="7.01"/><g id="_编组_5" data-name="&lt;编组&gt;"><rect id="_路径_10" data-name="&lt;路径&gt;" class="cls-1" x="214.51" y="544.63" width="22.63" height="17.38"/><polygon id="_路径_11" data-name="&lt;路径&gt;" class="cls-1" points="157.76 544.63 140.38 562.02 185.97 562.02 185.97 544.63 157.76 544.63"/><rect id="_路径_12" data-name="&lt;路径&gt;" class="cls-1" x="188.92" y="544.63" width="22.63" height="17.38"/><polygon id="_路径_13" data-name="&lt;路径&gt;" class="cls-1" points="303.56 562.02 286.18 544.63 240.09 544.63 240.09 562.02 303.56 562.02"/></g><g id="_编组_6" data-name="&lt;编组&gt;"><polygon id="_路径_14" data-name="&lt;路径&gt;" class="cls-1" points="117.5 17.88 127.92 28.29 292.32 28.29 302.74 17.88 117.5 17.88"/></g><g id="_编组_7" data-name="&lt;编组&gt;"><polygon id="_路径_15" data-name="&lt;路径&gt;" class="cls-1" points="601.21 490.21 601.21 579.63 620.89 579.63 620.89 470.53 601.21 490.21"/></g><g id="_编组_8" data-name="&lt;编组&gt;"><polygon id="_路径_16" data-name="&lt;路径&gt;" class="cls-1" points="571.69 559.39 553 578.09 553 579.63 623.56 579.63 623.56 559.39 571.69 559.39"/></g></g></svg>