<svg id="Layer_5" data-name="Layer 5" xmlns="http://www.w3.org/2000/svg" viewBox="0 0 665.18 755.29"><defs><style>.cls-1,.cls-2{fill:#03a6ff}.cls-2{opacity:.3}</style></defs><path class="cls-1" d="M17.55 0v31.3L48.84 0H17.55zM665.18 510.8l-23.66 23.65v23.75l23.66-23.66V510.8zM665.18 546.79l-23.66 23.66v23.74l23.66-23.65v-23.75zM665.18 582.79l-23.66 23.66v23.74l23.66-23.65v-23.75zM665.18 618.79l-23.66 23.66v23.74l23.66-23.65v-23.75zM665.18 654.79l-23.66 23.66v23.74l23.66-23.65v-23.75z"/><path class="cls-1" d="M1533.4 1362.54v-22.74l-16.94-16.94v-181.15l-.1-2-5.1-5.1v205.75l19 19-19-19v-205.7h-117.41l-21.85 21.81h-272.84l-21.82-21.81H931.87l-46.1 46.09V1338l27.53 27.53v77.59l-4.78 4.78v60.89l-40.29 40.29V1861.18h258.69l10.5 10.5h145.22l18.28 18.28h159l43.9-43.89v-183.42l29.6-29.59v-270.52zm-446.47 482.06zm441.48-213.6l-29.6 29.59V1844l-41 41H1303l-45.36-45.35h-172.78l-16.57 16.57H873.23v-281.5l45.07-45.07v-187.14L890.77 1315v-132.18l43.17-43.16h141.33l21.82 21.81h277l21.81-21.81h110.35v202.82l22.14 22.13V1631z" transform="translate(-868.23 -1134.66)"/><path class="cls-1" d="M220.54 0l16.92 16.91h17.7L238.24 0h-17.7zM248.02 0l16.91 16.91h17.7L265.71 0h-17.69zM275.49 0l16.91 16.91h17.7L293.19 0h-17.7zM302.96 0l16.92 16.91h17.7L320.66 0h-17.7zM330.44 0l16.91 16.91h17.7L348.13 0h-17.69zM357.91 0l16.92 16.91h17.69L375.61 0h-17.7zM385.39 0l16.91 16.91H420L403.08 0h-17.69zM412.86 0l16.91 16.91h17.7L430.56 0h-17.7zM440.33 0l16.92 16.91h17.69L458.03 0h-17.7zM467.81 0l16.91 16.91h15.27L516.9 0h-49.09z"/><path class="cls-2" d="M638.04 5v37.63H115.42l-65.35 65.35v99.87l-27.53-27.53V48.16L65.71 5h141.33l21.82 21.82h277.02L527.69 5h110.35zM630.58 640.75v68.59l-40.97 40.95H434.76l-45.36-45.34h177l64.18-64.2z"/><path fill="#00558d" opacity=".3" d="M660.18 229.96v266.37l-29.6 29.59v114.83l-64.18 64.2H216.63l-16.57 16.56H5V440.06L50.07 395V107.98l65.35-65.35h522.62v165.19l22.14 22.14z"/></svg>