<svg id="Layer_1" data-name="Layer 1" xmlns="http://www.w3.org/2000/svg" viewBox="0 0 325.13 133.21"><defs><style>.cls-1{fill:#02a6ff;}</style></defs><title>border19</title><g id="_编组_" data-name="&lt;编组&gt;"><polygon id="_路径_" data-name="&lt;路径&gt;" class="cls-1" points="325.13 54.93 322.53 54.93 322.53 2.6 266.3 2.6 266.3 0 325.13 0 325.13 54.93"/><g id="_编组_2" data-name="&lt;编组&gt;"><polygon id="_路径_2" data-name="&lt;路径&gt;" class="cls-1" points="173.35 128.01 5.2 128.01 5.2 16.2 17.34 16.2 17.34 11 0 11 0 133.21 173.35 133.21 173.35 128.01"/><polygon id="_路径_3" data-name="&lt;路径&gt;" class="cls-1" points="58.07 11 58.07 16.2 310.29 16.2 310.29 128.01 214.95 128.01 214.95 133.21 315.49 133.21 315.49 11 58.07 11"/></g></g><g id="_编组_3" data-name="&lt;编组&gt;"><polygon id="_路径_4" data-name="&lt;路径&gt;" class="cls-1" points="197.58 2.27 99.75 2.27 89.03 13 89.03 13.97 209.28 13.97 197.58 2.27"/></g></svg>