<svg xmlns="http://www.w3.org/2000/svg" xmlns:xlink="http://www.w3.org/1999/xlink" viewBox="0 0 368.12 257.07"><defs><style>.cls-1{fill:none;}.cls-2{isolation:isolate;}.cls-3{fill:#fff;opacity:0.3;mix-blend-mode:overlay;}.cls-4{fill:#0071bc;}.cls-5{fill:#2981e2;}.cls-6{fill:#29d3e2;}.cls-7{opacity:0.43;}.cls-8{clip-path:url(#clip-path);}.cls-9{opacity:0.12;}.cls-10{fill:#29abe2;}</style><clipPath id="clip-path" transform="translate(-190.94 -21.47)"><rect class="cls-1" x="213.84" y="61.09" width="322.32" height="177.82"/></clipPath></defs><title>border30</title><g class="cls-2"><g id="Layer_3" data-name="Layer 3"><rect class="cls-3" x="22.9" y="39.62" width="322.32" height="177.82"/><path class="cls-4" d="M536.33,239.08H213.67V60.92H536.33V239.08ZM214,238.74H536V61.26H214V238.74Z" transform="translate(-190.94 -21.47)"/><path class="cls-5" d="M555.55,47.07l-5-5H500.15l-4.24,4.23H429.18l-7.42,7.44H328.24l-7.42-7.44H254.09l-4.24-4.23H199.42l-5,5v55.17l3.31,3.31-0.54.53v5.09l-0.27.27v2.76l-2.37,2.37v13L197.9,133V167l-3.33,3.35v13l2.37,2.37v2.76l0.27,0.27v5.09l0.54,0.53-3.31,3.31v55.17l5,5h50.43l4.24-4.23h66.73l7.42-7.44h93.52l7.42,7.44h66.73l4.24,4.23h50.43l5-5V197.76l-3.29-3.31,0.53-.53v-5.09l0.27-.27V185.8l2.37-2.37v-13L552.1,167V133l3.33-3.35v-13l-2.37-2.37v-2.76l-0.27-.27v-5.09l-0.53-.53,3.29-3.31V47.07ZM199.38,53.94l6.14-6.12h18.8l3.25,3.25h12.35l3.26-3.25h49.89l4.43,4.43h20l2.68,2.68H217.22a8.41,8.41,0,0,0-8.41,8.41V75.63h-0.27v5l-0.85.85V81.9l-0.57.57h-0.77l-2.64,2.64v4.82l0.49,0.47v8.66l-2,2v0.81l-2.79,2.79V53.94Zm0,51.79,5.54-5.54V85.7l2.89-2.89,0.73,0.72v23.81l-2.83,2.83h-4.75l-1.57,1.57v-6Zm0,82.52,1.57,1.57h4.75l2.83,2.83v23.81l-0.73.72-2.89-2.89V199.82l-5.54-5.54v-6Zm118.11,59.51h-20l-4.43,4.43H243.18l-3.26-3.25H227.57l-3.25,3.25h-18.8l-6.14-6.12V195.32l2.79,2.79v0.81l2,2v8.66l-0.49.47v4.82l2.64,2.64h0.77l0.57,0.57v0.45l0.85,0.85v5h0.27v12.29a8.41,8.41,0,0,0,8.41,8.41H320.17Zm111.62-3.41L425.78,241H405l-3.32,3.32H348.31L345,241H324.22l-3.32,3.32H217.22a7.7,7.7,0,0,1-7.68-7.68V224.37H210V192l-2.45-2.47v-6l-4.46-4.46V120.92l4.46-4.46v-6L210,108V75.63h-0.47V63.34a7.7,7.7,0,0,1,7.68-7.68H320.9L324.22,59H345l3.32-3.32h53.37L405,59h20.78l3.32-3.32H532.78a7.7,7.7,0,0,1,7.68,7.68V75.63H540V108l2.45,2.47v6l4.46,4.46v58.15l-4.46,4.46v6L540,192v32.33h0.47v12.29a7.7,7.7,0,0,1-7.68,7.68H429.1Zm121.52,1.72-6.14,6.12h-18.8l-3.25-3.25H510.08l-3.26,3.25H456.93l-4.43-4.43h-20l-2.68-2.68H532.78a8.41,8.41,0,0,0,8.41-8.41V224.37h0.27v-5l0.85-.85V218.1l0.57-.57h0.77l2.64-2.64v-4.82l-0.49-.47v-8.66l2-2v-0.81l2.79-2.79v50.74Zm0-51.79-5.54,5.54V214.3l-2.89,2.89-0.73-.72V192.65l2.83-2.83h4.75l1.57-1.57v6Zm0-82.52-1.57-1.57H544.3l-2.83-2.83V83.54l0.73-.72,2.89,2.89v14.48l5.54,5.54v6Zm0-7.07-2.79-2.79v-0.81l-2-2V90.4l0.49-.47V85.11l-2.64-2.64h-0.77l-0.57-.57V81.45l-0.85-.85v-5H541.2V63.34a8.41,8.41,0,0,0-8.41-8.41H429.83l2.68-2.68h20l4.43-4.43h49.89l3.26,3.25h12.35l3.25-3.25h18.8l6.14,6.12v50.74Z" transform="translate(-190.94 -21.47)"/><path class="cls-6" d="M360.59,252l3.91-3.87,4.14,0-3.91,3.84Z" transform="translate(-190.94 -21.47)"/><path class="cls-6" d="M346.15,252.48l3.91-4,4.14-.13-3.91,3.94Z" transform="translate(-190.94 -21.47)"/><path class="cls-6" d="M351,252.29l3.91-3.93,4.14-.1-3.91,3.9Z" transform="translate(-190.94 -21.47)"/><path class="cls-6" d="M355.78,252.14l3.91-3.9,4.14-.08L359.92,252Z" transform="translate(-190.94 -21.47)"/><path class="cls-6" d="M341.34,252.71l3.91-4,4.14-.16-3.91,4Z" transform="translate(-190.94 -21.47)"/><path class="cls-6" d="M331.71,253.26l3.91-4.1,4.14-.22L335.85,253Z" transform="translate(-190.94 -21.47)"/><path class="cls-6" d="M326.9,253.58l3.9-4.14,4.13-.24-3.9,4.1Z" transform="translate(-190.94 -21.47)"/><path class="cls-6" d="M336.52,253l3.91-4.05,4.14-.19-3.91,4Z" transform="translate(-190.94 -21.47)"/><path class="cls-6" d="M385.26,251.94l-3.91-3.84,4.14,0,3.91,3.87Z" transform="translate(-190.94 -21.47)"/><path class="cls-6" d="M380.15,251.89q-5.15,0-10.29,0l-4.44,0,3.91-3.84h0.53q5.15,0,10.29,0h0.53l3.91,3.84Z" transform="translate(-190.94 -21.47)"/><path class="cls-6" d="M399.71,252.32l-3.91-3.94,4.14,0.13,3.91,4Z" transform="translate(-190.94 -21.47)"/><path class="cls-6" d="M394.9,252.16l-3.91-3.9,4.14,0.1,3.91,3.93Z" transform="translate(-190.94 -21.47)"/><path class="cls-6" d="M390.08,252l-3.91-3.87,4.14,0.08,3.91,3.9Z" transform="translate(-190.94 -21.47)"/><path class="cls-6" d="M404.53,252.51l-3.91-4,4.14,0.16,3.91,4Z" transform="translate(-190.94 -21.47)"/><path class="cls-6" d="M414.15,253l-3.91-4.06,4.14,0.22,3.91,4.1Z" transform="translate(-190.94 -21.47)"/><path class="cls-6" d="M419,253.3l-3.9-4.1,4.13,0.24,3.9,4.14Z" transform="translate(-190.94 -21.47)"/><path class="cls-6" d="M409.34,252.74l-3.91-4,4.14,0.19,3.91,4.05Z" transform="translate(-190.94 -21.47)"/><path class="cls-6" d="M360.59,48l3.91,3.87,4.14,0-3.91-3.84Z" transform="translate(-190.94 -21.47)"/><path class="cls-6" d="M346.15,47.52l3.91,4,4.14,0.13-3.91-3.94Z" transform="translate(-190.94 -21.47)"/><path class="cls-6" d="M351,47.71l3.91,3.93,4.14,0.1-3.91-3.9Z" transform="translate(-190.94 -21.47)"/><path class="cls-6" d="M355.78,47.86l3.91,3.9,4.14,0.08L359.92,48Z" transform="translate(-190.94 -21.47)"/><path class="cls-6" d="M341.34,47.29l3.91,4,4.14,0.16-3.91-4Z" transform="translate(-190.94 -21.47)"/><path class="cls-6" d="M331.71,46.74l3.91,4.1,4.14,0.22L335.85,47Z" transform="translate(-190.94 -21.47)"/><path class="cls-6" d="M326.9,46.42l3.9,4.14,4.13,0.24L331,46.7Z" transform="translate(-190.94 -21.47)"/><path class="cls-6" d="M336.52,47l3.91,4.05,4.14,0.19-3.91-4Z" transform="translate(-190.94 -21.47)"/><path class="cls-6" d="M385.26,48.06l-3.91,3.84,4.14,0L389.41,48Z" transform="translate(-190.94 -21.47)"/><path class="cls-6" d="M380.15,48.11q-5.15,0-10.29,0l-4.44,0,3.91,3.84h0.53q5.15,0,10.29,0h0.53l3.91-3.84Z" transform="translate(-190.94 -21.47)"/><path class="cls-6" d="M399.71,47.68l-3.91,3.94,4.14-.13,3.91-4Z" transform="translate(-190.94 -21.47)"/><path class="cls-6" d="M394.9,47.84L391,51.75l4.14-.1L399,47.71Z" transform="translate(-190.94 -21.47)"/><path class="cls-6" d="M390.08,48l-3.91,3.87,4.14-.08,3.91-3.9Z" transform="translate(-190.94 -21.47)"/><path class="cls-6" d="M404.53,47.49l-3.91,4,4.14-.16,3.91-4Z" transform="translate(-190.94 -21.47)"/><path class="cls-6" d="M414.15,47l-3.91,4.06,4.14-.22,3.91-4.1Z" transform="translate(-190.94 -21.47)"/><path class="cls-6" d="M419,46.7l-3.9,4.1,4.13-.24,3.9-4.14Z" transform="translate(-190.94 -21.47)"/><path class="cls-6" d="M409.34,47.26l-3.91,4,4.14-.19L413.48,47Z" transform="translate(-190.94 -21.47)"/><g class="cls-7"><g class="cls-8"><g class="cls-9"><path class="cls-10" d="M559.06,278.53H190.94V21.47H559.06V278.53Zm-367.92-.2H558.86V21.67H191.14V278.33Z" transform="translate(-190.94 -21.47)"/><rect class="cls-10" x="0.1" y="247.35" width="367.92" height="0.2"/><rect class="cls-10" x="0.1" y="237.84" width="367.92" height="0.2"/><rect class="cls-10" x="0.1" y="228.32" width="367.92" height="0.2"/><rect class="cls-10" x="0.1" y="218.81" width="367.92" height="0.2"/><rect class="cls-10" x="0.1" y="209.3" width="367.92" height="0.2"/><rect class="cls-10" x="0.1" y="199.78" width="367.92" height="0.2"/><rect class="cls-10" x="0.1" y="190.27" width="367.92" height="0.2"/><rect class="cls-10" x="0.1" y="180.76" width="367.92" height="0.2"/><rect class="cls-10" x="0.1" y="171.24" width="367.92" height="0.2"/><rect class="cls-10" x="0.1" y="161.73" width="367.92" height="0.2"/><rect class="cls-10" x="0.1" y="152.22" width="367.92" height="0.2"/><rect class="cls-10" x="0.1" y="142.7" width="367.92" height="0.2"/><rect class="cls-10" x="0.1" y="133.19" width="367.92" height="0.2"/><rect class="cls-10" x="0.1" y="123.68" width="367.92" height="0.2"/><rect class="cls-10" x="0.1" y="114.16" width="367.92" height="0.2"/><rect class="cls-10" x="0.1" y="104.65" width="367.92" height="0.2"/><rect class="cls-10" x="0.1" y="95.13" width="367.92" height="0.2"/><rect class="cls-10" x="0.1" y="85.62" width="367.92" height="0.2"/><rect class="cls-10" x="0.1" y="76.11" width="367.92" height="0.2"/><rect class="cls-10" x="0.1" y="66.59" width="367.92" height="0.2"/><rect class="cls-10" x="0.1" y="57.08" width="367.92" height="0.2"/><rect class="cls-10" x="0.1" y="47.57" width="367.92" height="0.2"/><rect class="cls-10" x="0.1" y="38.05" width="367.92" height="0.2"/><rect class="cls-10" x="0.1" y="28.54" width="367.92" height="0.2"/><rect class="cls-10" x="0.1" y="19.03" width="367.92" height="0.2"/><rect class="cls-10" x="0.1" y="9.51" width="367.92" height="0.2"/><rect class="cls-10" x="358.94" y="0.1" width="0.2" height="256.86"/><rect class="cls-10" x="349.97" y="0.1" width="0.2" height="256.86"/><rect class="cls-10" x="341" y="0.1" width="0.2" height="256.86"/><rect class="cls-10" x="332.02" y="0.1" width="0.2" height="256.86"/><rect class="cls-10" x="323.05" y="0.1" width="0.2" height="256.86"/><rect class="cls-10" x="314.08" y="0.1" width="0.2" height="256.86"/><rect class="cls-10" x="305.1" y="0.1" width="0.2" height="256.86"/><rect class="cls-10" x="296.13" y="0.1" width="0.2" height="256.86"/><rect class="cls-10" x="287.16" y="0.1" width="0.2" height="256.86"/><rect class="cls-10" x="278.18" y="0.1" width="0.2" height="256.86"/><rect class="cls-10" x="269.21" y="0.1" width="0.2" height="256.86"/><rect class="cls-10" x="260.23" y="0.1" width="0.2" height="256.86"/><rect class="cls-10" x="251.26" y="0.1" width="0.2" height="256.86"/><rect class="cls-10" x="242.29" y="0.1" width="0.2" height="256.86"/><rect class="cls-10" x="233.31" y="0.1" width="0.2" height="256.86"/><rect class="cls-10" x="224.34" y="0.1" width="0.2" height="256.86"/><rect class="cls-10" x="215.37" y="0.1" width="0.2" height="256.86"/><rect class="cls-10" x="206.39" y="0.1" width="0.2" height="256.86"/><rect class="cls-10" x="197.42" y="0.1" width="0.2" height="256.86"/><rect class="cls-10" x="188.45" y="0.1" width="0.2" height="256.86"/><rect class="cls-10" x="179.47" y="0.1" width="0.2" height="256.86"/><rect class="cls-10" x="170.5" y="0.1" width="0.2" height="256.86"/><rect class="cls-10" x="161.52" y="0.1" width="0.2" height="256.86"/><rect class="cls-10" x="152.55" y="0.1" width="0.2" height="256.86"/><rect class="cls-10" x="143.58" y="0.1" width="0.2" height="256.86"/><rect class="cls-10" x="134.6" y="0.1" width="0.2" height="256.86"/><rect class="cls-10" x="125.63" y="0.1" width="0.2" height="256.86"/><rect class="cls-10" x="116.66" y="0.1" width="0.2" height="256.86"/><rect class="cls-10" x="107.68" y="0.1" width="0.2" height="256.86"/><rect class="cls-10" x="98.71" y="0.1" width="0.2" height="256.86"/><rect class="cls-10" x="89.74" y="0.1" width="0.2" height="256.86"/><rect class="cls-10" x="80.76" y="0.1" width="0.2" height="256.86"/><rect class="cls-10" x="71.79" y="0.1" width="0.2" height="256.86"/><rect class="cls-10" x="62.81" y="0.1" width="0.2" height="256.86"/><rect class="cls-10" x="53.84" y="0.1" width="0.2" height="256.86"/><rect class="cls-10" x="44.87" y="0.1" width="0.2" height="256.86"/><rect class="cls-10" x="35.89" y="0.1" width="0.2" height="256.86"/><rect class="cls-10" x="26.92" y="0.1" width="0.2" height="256.86"/><rect class="cls-10" x="17.95" y="0.1" width="0.2" height="256.86"/><rect class="cls-10" x="8.97" y="0.1" width="0.2" height="256.86"/></g></g></g></g></g></svg>