<svg id="Layer_1" data-name="Layer 1" xmlns="http://www.w3.org/2000/svg" viewBox="0 0 211.77 103.54"><defs><style>.cls-1,.cls-2{fill:aqua;}.cls-2{fill-rule:evenodd;}</style></defs><title>border56</title><polygon class="cls-1" points="0.24 60.04 0.24 103.37 206.74 103.37 206.74 103.54 0.16 103.54 0.07 103.54 0.07 103.45 0.07 60.04 0.24 60.04"/><polygon class="cls-1" points="206.9 11.1 206.9 21.95 206.9 22.01 206.85 22.06 202.24 26.67 202.24 62.3 202.24 62.46 202.09 62.46 183.71 62.46 170.18 76 170.18 94.36 170.18 94.52 170.02 94.52 42.29 94.52 37.68 99.14 37.63 99.19 37.57 99.19 4.81 99.19 4.65 99.19 4.65 99.03 4.65 54.77 0.05 50.17 0 50.12 0 50.05 0 33.07 0.32 33.07 0.32 49.99 4.92 54.59 4.97 54.64 4.97 54.71 4.97 98.87 37.5 98.87 42.11 94.25 42.16 94.2 42.22 94.2 169.86 94.2 169.86 71.97 169.86 71.9 169.91 71.85 179.57 62.19 179.62 62.14 179.69 62.14 201.93 62.14 201.93 26.6 201.93 26.54 201.97 26.49 206.58 21.88 206.58 11.1 206.9 11.1"/><polygon class="cls-1" points="206.58 11.1 206.58 0.32 0.32 0.32 0.32 33.07 0 33.07 0 0.16 0 0 0.16 0 206.74 0 206.9 0 206.9 0.16 206.9 11.1 206.58 11.1"/><polygon class="cls-1" points="211.56 0.16 211.56 34.85 211.56 34.92 211.51 34.97 206.9 39.58 206.9 72.27 206.58 72.27 206.58 39.52 206.58 39.45 206.62 39.4 211.24 34.79 211.24 0.16 211.56 0.16"/><polygon class="cls-1" points="206.74 5.24 139.05 5.24 130.6 13.7 130.55 13.75 130.48 13.75 103.52 13.75 94.68 22.58 94.64 22.62 94.57 22.62 44.82 22.62 22.94 22.62 22.87 22.62 22.83 22.58 14 13.75 0.16 13.75 0.16 13.43 17.24 13.43 17.31 13.43 17.34 13.48 26.18 22.3 44.82 22.3 94.5 22.3 103.34 13.48 103.39 13.43 103.45 13.43 130.42 13.43 138.87 4.98 138.91 4.93 138.98 4.93 206.74 4.93 206.74 5.24"/><polygon class="cls-2" points="206.36 66.46 208.62 64.21 208.62 42.02 211.77 38.86 211.77 53.76 209.52 56.02 209.52 103.54 206.36 103.54 206.36 66.46"/><polygon class="cls-2" points="34.56 97.42 36.75 97.42 40.17 93.99 37.98 93.99 34.56 97.42"/><polygon class="cls-2" points="31.04 97.42 33.23 97.42 36.66 93.99 34.47 93.99 31.04 97.42"/><polygon class="cls-2" points="27.52 97.42 29.71 97.42 33.14 93.99 30.95 93.99 27.52 97.42"/><polygon class="cls-2" points="24.01 97.42 26.2 97.42 29.62 93.99 27.43 93.99 24.01 97.42"/><polygon class="cls-2" points="20.49 97.42 22.68 97.42 26.11 93.99 23.92 93.99 20.49 97.42"/><polygon class="cls-2" points="16.97 97.42 19.16 97.42 22.59 93.99 20.4 93.99 16.97 97.42"/><polygon class="cls-2" points="13.46 97.42 15.65 97.42 19.07 93.99 16.89 93.99 13.46 97.42"/><polygon class="cls-2" points="9.94 97.42 12.13 97.42 15.56 93.99 13.38 93.99 9.94 97.42"/><polygon class="cls-2" points="6.42 97.42 8.61 97.42 12.04 93.99 6.42 93.99 6.42 97.42"/><polygon class="cls-2" points="211.56 7.53 211.56 0 208.4 0 208.4 11.89 211.56 15.04 211.56 7.53"/><path class="cls-2" d="M172,14.51h-4.55l-7.12,7.13h4.55Zm52.09,0h-5.53l-7.12,7.13h12.65V14.51Zm-8.28,0h-4.55l-7.12,7.13h4.55Zm-7.3,0h-4.55l-7.12,7.13h4.55Zm-7.3,0h-4.55l-7.12,7.13H194Zm-7.3,0h-4.55l-7.12,7.13h4.55Zm-7.3,0H182l-7.12,7.13h4.55Zm-7.3,0h-4.55l-7.12,7.13h4.55Zm-14.6,0h-4.55L153,21.65h4.55Z" transform="translate(-19.11 -7.87)"/><polygon class="cls-2" points="0.07 59.9 0.07 72.96 3.23 69.8 3.23 55.54 0.07 52.39 0.07 59.9"/><path class="cls-1" d="M208.61,78.76v2.45H208V78.76h0.64Zm0,19.25v2.45H208V98h0.64Zm2.19,2.16-0.64-2.36,0.61-.17,0.64,2.37Zm-5-18.6-0.63-2.36,0.61-.17,0.64,2.37Zm7.64,17.6L212.22,97l0.54-.32L214,98.85Zm-9.63-16.68-1.23-2.12,0.55-.31,1.23,2.12Zm11.92,15L214,95.77l0.45-.44,1.73,1.73ZM202.13,83.9l-1.73-1.73,0.44-.45,1.73,1.73Zm15.4,11.42-2.12-1.23,0.32-.55,2.12,1.23Zm-16.67-9.63-2.12-1.23,0.32-.54,2.12,1.23Zm17.83,7-2.36-.63,0.16-.62,2.37,0.64Zm-18.6-5-2.36-.64,0.16-.61,2.37,0.64Zm19.06,2.19H216.7V89.3h2.45v0.64Zm-19.26,0h-2.44V89.3h2.44v0.64Zm19-2.83-2.37.64-0.16-.61,2.36-.64Zm-18.6,5-2.37.63-0.16-.61,2.36-.64Zm17.59-7.64-2.12,1.23-0.32-.54,2.12-1.23Zm-16.68,9.63-2.12,1.23-0.32-.55,2.12-1.23Zm15-11.93-1.73,1.73L214,83.45l1.73-1.73ZM202.57,95.77l-1.73,1.73-0.45-.44,1.73-1.73ZM214,80.38l-1.23,2.12-0.54-.32,1.23-2.12ZM204.36,97l-1.22,2.12-0.55-.32,1.23-2.12Zm7-17.83-0.64,2.36-0.61-.16L210.8,79Zm-5,18.6-0.63,2.36-0.62-.16,0.64-2.37Z" transform="translate(-19.11 -7.87)"/><path class="cls-1" d="M208.29,97.26a7.66,7.66,0,0,1-7.65-7.65h1.27a6.37,6.37,0,1,0,6.38-6.37V82A7.65,7.65,0,0,1,208.29,97.26Z" transform="translate(-19.11 -7.87)"/><path class="cls-1" d="M208.29,76a13.65,13.65,0,1,1-9.64,4,13.64,13.64,0,0,1,9.64-4h0Zm9.2,4.45a13,13,0,1,0,3.81,9.2,13,13,0,0,0-3.81-9.2h0Z" transform="translate(-19.11 -7.87)"/><path class="cls-1" d="M208.29,75.3A14.32,14.32,0,1,1,194,89.62h2a12.33,12.33,0,1,0,12.33-12.34v-2Z" transform="translate(-19.11 -7.87)"/><polygon class="cls-1" points="206.66 2.71 106.31 2.71 97.86 11.16 97.81 11.2 97.74 11.2 70.78 11.2 61.95 20.04 61.9 20.09 61.84 20.09 23.64 20.09 23.33 19.77 61.77 19.77 70.6 10.93 70.65 10.89 70.71 10.89 97.68 10.89 106.13 2.43 106.18 2.39 106.24 2.39 206.66 2.39 206.66 2.71"/><path class="cls-2" d="M63.85,103.86h1c-0.83,1-1.67,2-2.49,3h-1l2.49-3h0Zm-2.07,0h1l-2.49,3h-1Zm4.15,0h1l-2.49,3h-1q1.23-1.49,2.49-3h0Zm2.08,0h1l-2.49,3h-1l2.5-3h0Zm2.07,0h1l-2.5,3h-1l2.49-3h0Zm2.08,0h1l-2.49,3h-1l2.5-3h0Zm2.07,0h1q-1.25,1.47-2.49,3h-1l2.49-3h0Zm2.08,0h1l-2.49,3h-1c0.82-1,1.66-2,2.49-3h0Zm2.08,0h1c-0.83,1-1.67,2-2.49,3h-1l2.5-3h0Zm2.07,0h1l-2.5,3H78l2.49-3h0Zm2.08,0h1l-2.49,3H80l2.5-3h0Zm2.07,0h1l-2.5,3h-1l2.49-3h0Zm2.08,0h1l-2.49,3h-1c0.82-1,1.66-2,2.49-3h0Zm2.08,0h1c-0.83,1-1.67,2-2.49,3h-1l2.5-3h0Zm2.07,0h1l-2.5,3h-1l2.49-3h0Zm2.08,0h1l-2.49,3h-1l2.5-3h0Zm2.07,0h1l-2.5,3h-1l2.49-3h0Zm2.08,0h1l-2.49,3h-1q1.24-1.49,2.49-3h0Zm2.07,0h1q-1.25,1.47-2.49,3h-1l2.49-3h0Zm2.08,0h1l-2.5,3h-1l2.49-3h0Zm2.08,0h1l-2.49,3h-1l2.5-3h0Zm2.07,0h1l-2.5,3h-1l2.49-3h0Zm2.08,0h1l-2.49,3h-1c0.82-1,1.66-2,2.49-3h0Zm2.07,0h1c-0.83,1-1.67,2-2.49,3h-1l2.49-3h0Zm2.08,0h1l-2.5,3h-1l2.49-3h0Zm2.08,0h1l-2.49,3h-1l2.5-3h0Zm2.07,0h1l-2.5,3h-1l2.49-3h0Zm2.08,0h1l-2.49,3h-1q1.24-1.49,2.49-3h0Zm2.07,0h1q-1.25,1.47-2.49,3h-1l2.49-3h0Zm2.08,0h1l-2.5,3h-1l2.49-3h0Zm2.08,0h1l-2.49,3h-1l2.5-3h0Zm2.07,0h1l-2.5,3h-1l2.49-3h0Zm2.08,0h1l-2.49,3h-1c0.82-1,1.66-2,2.49-3h0Zm2.07,0h1q-1.25,1.47-2.49,3h-1l2.49-3h0Zm2.08,0h1l-2.5,3h-1q1.24-1.49,2.49-3h0Zm2.08,0h1l-2.49,3h-1l2.5-3h0Zm2.07,0h1l-2.5,3h-1l2.49-3h0Zm2.08,0h1l-2.49,3h-1l2.5-3h0Zm2.07,0h1c-0.83,1-1.67,2-2.49,3h-1l2.49-3h0Zm2.08,0h1l-2.5,3h-1c0.82-1,1.66-2,2.49-3h0Zm2.08,0h1l-2.49,3h-1l2.5-3h0Zm2.07,0h1l-2.5,3h-1l2.49-3h0Zm2.08,0h1l-2.49,3h-1l2.5-3h0Zm2.07,0h1q-1.25,1.47-2.49,3h-1l2.49-3h0Zm2.08,0h1l-2.5,3h-1c0.82-1,1.66-2,2.49-3h0Zm2.08,0h1l-2.49,3h-1l2.5-3h0Zm2.07,0h1l-2.5,3h-1l2.49-3h0Zm2.08,0h1l-2.49,3h-1l2.5-3h0Zm2.07,0h1c-0.83,1-1.67,2-2.49,3h-1l2.49-3h0Zm2.08,0h1l-2.5,3h-1q1.24-1.49,2.49-3h0Zm2.08,0h1l-2.49,3h-1l2.5-3h0Zm2.07,0h1l-2.5,3h-1l2.49-3h0Zm2.08,0h1l-2.49,3h-1l2.5-3h0Zm2.07,0h1c-0.83,1-1.66,2-2.49,3h-1l2.49-3h0Zm2.08,0h1l-2.5,3h-1q1.24-1.49,2.49-3h0Zm2.08,0h1l-2.49,3h-1l2.5-3h0Zm2.07,0h1l-2.5,3h-1l2.49-3h0Zm2.08,0h1l-2.49,3h-1l2.5-3h0Zm2.07,0h1c-0.83,1-1.66,2-2.49,3h-1l2.49-3h0Zm2.08,0h1l-2.49,3h-1q1.24-1.49,2.49-3h0Zm2.08,0h1l-2.49,3h-1l2.5-3h0Zm2.07,0h1l-2.5,3h-1Z" transform="translate(-19.11 -7.87)"/></svg>