<svg id="Layer_5" data-name="Layer 5" xmlns="http://www.w3.org/2000/svg" viewBox="0 0 405.53 288.81"><defs><style>.cls-1,.cls-2{fill:#03a6ff;}.cls-2,.cls-3{opacity:0.3;}.cls-3{fill:#00558d;}</style></defs><title>border32</title><polygon class="cls-1" points="0 104.45 10.15 114.6 10.15 108.52 0 98.37 0 104.45"/><polygon class="cls-1" points="0 115.25 10.15 125.4 10.15 119.32 0 109.17 0 115.25"/><polygon class="cls-1" points="0 126.05 10.15 136.2 10.15 130.12 0 119.97 0 126.05"/><polygon class="cls-1" points="0 136.85 10.15 147 10.15 140.92 0 130.77 0 136.85"/><polygon class="cls-1" points="0 147.65 10.15 157.8 10.15 151.72 0 141.57 0 147.65"/><polygon class="cls-1" points="0 158.45 10.15 168.6 10.15 162.52 0 152.37 0 158.45"/><polygon class="cls-1" points="0 169.25 10.15 179.4 10.15 173.32 0 163.17 0 169.25"/><polygon class="cls-1" points="0 180.05 10.15 190.2 10.15 184.12 0 173.97 0 180.05"/><polygon class="cls-1" points="0 190.85 10.15 201 10.15 194.92 0 184.77 0 190.85"/><polygon class="cls-1" points="0 201.65 10.15 211.8 10.15 205.72 0 195.57 0 201.65"/><polygon class="cls-1" points="0 212.45 10.15 222.6 10.15 216.52 0 206.37 0 212.45"/><polygon class="cls-1" points="0 223.25 10.15 233.4 10.15 227.32 0 217.17 0 223.25"/><polygon class="cls-1" points="0 234.05 10.15 244.2 10.15 238.12 0 227.97 0 234.05"/><polygon class="cls-1" points="0 244.85 10.15 255 10.15 248.92 0 238.77 0 244.85"/><path class="cls-1" d="M1245.87,312.28V219H1132.28l-10.86,10.86H969.36L958.5,219H848.07v91.45l13.36,13.35V481.72L887.5,507.8h227.63l30-30h60l48.51-48.51V320ZM1203,472.81h-79.65l-30,30H889.58l-23.15-23.15V321.72l-13.36-13.35V224h80.39l10.87,10.86h179.16L1134.36,224h106.51V435Z" transform="translate(-848.07 -218.99)"/><polygon class="cls-2" points="72.57 5.03 40.24 37.36 40.24 80.85 18.36 102.73 5 89.38 5 5 72.57 5.03"/><polygon class="cls-2" points="398.05 187.05 392.8 215.97 354.95 253.82 275.3 253.82 291.92 237.2 347.9 237.2 398.05 187.05"/><polygon class="cls-3" points="392.8 5 392.8 192.3 347.9 237.2 291.92 237.2 245.31 283.81 41.51 283.81 18.36 260.66 18.36 102.73 40.24 80.85 40.24 37.36 72.57 5.03 5 5 85.39 5 96.26 15.86 275.42 15.86 286.29 5 392.8 5"/></svg>