<svg id="Layer_5" data-name="Layer 5" xmlns="http://www.w3.org/2000/svg" viewBox="0 0 405.53 288.81"><defs><style>.cls-1,.cls-2{fill:#03a6ff}.cls-2{opacity:.3}</style></defs><path class="cls-1" d="M0 104.45l10.15 10.15v-6.08L0 98.37v6.08zM0 115.25l10.15 10.15v-6.08L0 109.17v6.08zM0 126.05l10.15 10.15v-6.08L0 119.97v6.08zM0 136.85L10.15 147v-6.08L0 130.77v6.08zM0 147.65l10.15 10.15v-6.08L0 141.57v6.08zM0 158.45l10.15 10.15v-6.08L0 152.37v6.08zM0 169.25l10.15 10.15v-6.08L0 163.17v6.08zM0 180.05l10.15 10.15v-6.08L0 173.97v6.08zM0 190.85L10.15 201v-6.08L0 184.77v6.08zM0 201.65l10.15 10.15v-6.08L0 195.57v6.08zM0 212.45l10.15 10.15v-6.08L0 206.37v6.08zM0 223.25l10.15 10.15v-6.08L0 217.17v6.08zM0 234.05l10.15 10.15v-6.08L0 227.97v6.08zM0 244.85L10.15 255v-6.08L0 238.77v6.08z"/><path class="cls-1" d="M1245.87 312.28V219h-113.59l-10.86 10.86H969.36L958.5 219H848.07v91.45l13.36 13.35v157.92l26.07 26.08h227.63l30-30h60l48.51-48.51V320zM1203 472.81h-79.65l-30 30H889.58l-23.15-23.15V321.72l-13.36-13.35V224h80.39l10.87 10.86h179.16l10.87-10.86h106.51v211z" transform="translate(-848.07 -218.99)"/><path class="cls-2" d="M72.57 5.03L40.24 37.36v43.49l-21.88 21.88L5 89.38V5l67.57.03zM398.05 187.05l-5.25 28.92-37.85 37.85H275.3l16.62-16.62h55.98l50.15-50.15z"/><path fill="#00558d" opacity=".3" d="M392.8 5v187.3l-44.9 44.9h-55.98l-46.61 46.61H41.51l-23.15-23.15V102.73l21.88-21.88V37.36L72.57 5.03 5 5h80.39l10.87 10.86h179.16L286.29 5H392.8z"/></svg>