<svg id="Layer_5" data-name="Layer 5" xmlns="http://www.w3.org/2000/svg" viewBox="0 0 823.45 448.36"><defs><style>.cls-1{fill:#00558d;}.cls-1,.cls-2{opacity:0.3;}.cls-2,.cls-3{fill:#03a6ff;}</style></defs><title>border35</title><polygon class="cls-1" points="810.38 128.78 810.38 443.99 732.57 443.99 643.1 354.52 114.65 354.52 4.36 244.24 4.36 54.26 36.27 22.35 484.25 22.35 561.33 99.43 721.44 99.43 750.78 128.78 810.38 128.78"/><polygon class="cls-2" points="343.85 354.52 305.84 392.53 43.81 392.53 43.81 320.17 4.36 280.73 4.36 244.24 114.65 354.52 343.85 354.52"/><polygon class="cls-2" points="810.38 128.78 750.78 128.78 721.44 99.43 561.33 99.43 484.25 22.35 532.25 22.35 585.47 75.58 757.18 75.58 810.38 128.78"/><polygon class="cls-2" points="532.25 22.35 484.25 22.35 483.11 21.22 532.25 22.35"/><polygon class="cls-3" points="0 294.97 0 320.38 33.69 354.07 33.69 328.66 0 294.97"/><polygon class="cls-3" points="0 330.01 0 355.43 33.69 389.12 33.69 363.7 0 330.01"/><polygon class="cls-3" points="316.9 396.89 346.88 366.91 375.76 366.91 345.78 396.89 316.9 396.89"/><polygon class="cls-3" points="357.24 396.89 387.22 366.91 416.1 366.91 386.12 396.89 357.24 396.89"/><polygon class="cls-3" points="397.57 396.89 427.56 366.91 456.43 366.91 426.45 396.89 397.57 396.89"/><polygon class="cls-3" points="437.91 396.89 467.89 366.91 496.77 366.91 466.79 396.89 437.91 396.89"/><polygon class="cls-3" points="478.25 396.89 508.23 366.91 537.1 366.91 507.12 396.89 478.25 396.89"/><polygon class="cls-3" points="519.11 396.89 591.83 396.89 561.85 366.91 549.2 366.91 519.11 396.89"/><polygon class="cls-3" points="573.53 367.13 603.51 397.11 667.35 397.11 637.37 367.13 573.53 367.13"/><polygon class="cls-3" points="814.74 104.6 781.36 71.22 814.74 71.22 814.74 104.6"/><path class="cls-3" d="M914.09,723.82l-8.71-8.71-55.75-55.75H696.71l-59.82-59.82h-71l-11.4-11.4H318.86l-6.19,6.19H125.81L90.64,629.5V870.68l39.44,39.44V985l6.86,6.86H391.42l6.86-6.86,38-38H731.93l89.47,89.47h84V926l8.71-8.71V723.82ZM901,1032.14H823.21l-89.47-89.47H434.48l-38,38h-262V908.31L95,868.87V642.4l31.91-31.91h496l53.22,53.23H847.82L901,716.92v315.22Z" transform="translate(-90.64 -588.14)"/></svg>