<svg id="Layer_1" data-name="Layer 1" xmlns="http://www.w3.org/2000/svg" viewBox="0 0 638.98 587.19"><defs><style>.cls-1{fill:#02a6ff}</style></defs><g id="_编组_" data-name="&lt;编组&gt;"><path id="_复合路径_" data-name="&lt;复合路径&gt;" class="cls-1" d="M2335.17 611.12h-108.61v-21.56h-45.26v21.55h-164.66V593.5h-171.21v17.62h-137.85V263.54h13.87V136.93h-13.87V28h627.59v174.53h-5.62v110.86h5.62v297.73zm-94.84-13.78h81.06V327.17h-5.62V188.75h5.62V41.81h-600v81.34h13.87v154.16h-13.87v320h110.3v-17.59h198.76v17.62h137.1v-21.55h72.81v21.55z" transform="translate(-1704.72 -24.59)"/><path id="_矩形_" data-name="&lt;矩形&gt;" class="cls-1" d="M52.15 0h5.9v10.33h-5.9z"/><path id="_矩形_2" data-name="&lt;矩形&gt;" class="cls-1" d="M60.76 0h5.9v10.33h-5.9z"/><path id="_矩形_3" data-name="&lt;矩形&gt;" class="cls-1" d="M69.37 0h5.9v10.33h-5.9z"/><path id="_矩形_4" data-name="&lt;矩形&gt;" class="cls-1" d="M77.98 0h5.9v10.33h-5.9z"/><path id="_矩形_5" data-name="&lt;矩形&gt;" class="cls-1" d="M86.59 0h5.9v10.33h-5.9z"/><path id="_矩形_6" data-name="&lt;矩形&gt;" class="cls-1" d="M95.2 0h5.9v10.33h-5.9z"/><g id="_编组_2" data-name="&lt;编组&gt;"><path id="_路径_" data-name="&lt;路径&gt;" class="cls-1" d="M401.71 0H253.38l-10.34 10.33h169L401.71 0z"/></g><path id="_矩形_7" data-name="&lt;矩形&gt;" class="cls-1" d="M508.14 0h116.44v5.17H508.14z"/><path id="_矩形_8" data-name="&lt;矩形&gt;" class="cls-1" d="M626.8 318.65h7.22v7.22h-7.22z"/><path id="_矩形_9" data-name="&lt;矩形&gt;" class="cls-1" d="M626.8 327.99h7.22v7.22h-7.22z"/><path id="_矩形_10" data-name="&lt;矩形&gt;" class="cls-1" d="M626.8 337.34h7.22v7.22h-7.22z"/><path id="_矩形_11" data-name="&lt;矩形&gt;" class="cls-1" d="M626.8 346.69h7.22v7.22h-7.22z"/><path id="_矩形_12" data-name="&lt;矩形&gt;" class="cls-1" d="M626.8 356.04h7.22v7.22h-7.22z"/><path id="_矩形_13" data-name="&lt;矩形&gt;" class="cls-1" d="M626.8 365.39h7.22v7.22h-7.22z"/><path id="_矩形_14" data-name="&lt;矩形&gt;" class="cls-1" d="M1.48 278.47h15.74v36.41H1.48z"/><path id="_矩形_15" data-name="&lt;矩形&gt;" class="cls-1" d="M7.72 324.84h4.06v4.3H7.72z"/><path id="_矩形_16" data-name="&lt;矩形&gt;" class="cls-1" d="M7.72 330.25h4.06v4.3H7.72z"/><path id="_矩形_17" data-name="&lt;矩形&gt;" class="cls-1" d="M7.72 335.66h4.06v4.3H7.72z"/><path id="_矩形_18" data-name="&lt;矩形&gt;" class="cls-1" d="M7.72 341.07h4.06v4.3H7.72z"/><path id="_矩形_19" data-name="&lt;矩形&gt;" class="cls-1" d="M7.72 346.48h4.06v4.3H7.72z"/><g id="_编组_3" data-name="&lt;编组&gt;"><path id="_路径_2" data-name="&lt;路径&gt;" class="cls-1" d="M624.58 164.49V35.07l-16.81 10.52v108.09l16.13 10.81h.68z"/></g><path id="_矩形_20" data-name="&lt;矩形&gt;" class="cls-1" d="M0 379.82h16.73v170.23H0z"/><path id="_复合路径_2" data-name="&lt;复合路径&gt;" class="cls-1" d="M1804.84 611.78h-55.1V595.3h55.1v16.48zm-53.13-2h51.17v-12.51h-51.17v12.55z" transform="translate(-1704.72 -24.59)"/><path id="_路径_3" data-name="&lt;路径&gt;" class="cls-1" d="M16.73 16.56h564.15v2.62H16.73z"/><path id="_路径_4" data-name="&lt;路径&gt;" class="cls-1" d="M633.03 39.19H635v107.58h-1.97z"/><g id="_编组_4" data-name="&lt;编组&gt;"><path id="_路径_5" data-name="&lt;路径&gt;" class="cls-1" d="M342 579.63l7.31 7.32h17.47l-7.31-7.32H342z"/><path id="_路径_6" data-name="&lt;路径&gt;" class="cls-1" d="M382.35 579.63l7.31 7.32h18.61l-7.31-7.32h-18.61z"/><path id="_路径_7" data-name="&lt;路径&gt;" class="cls-1" d="M403.26 579.63l7.31 7.32h24.19l-7.31-7.32h-24.19z"/><path id="_路径_8" data-name="&lt;路径&gt;" class="cls-1" d="M455.02 579.63h-25.28l7.31 7.32h10.66l7.31-7.32z"/><path id="_路径_9" data-name="&lt;路径&gt;" class="cls-1" d="M362.58 579.63l7.31 7.32h17.47l-7.31-7.32h-17.47z"/></g><path id="_矩形_21" data-name="&lt;矩形&gt;" class="cls-1" d="M608.15 406.55h30.83v27.88h-30.83z"/><path id="_矩形_22" data-name="&lt;矩形&gt;" class="cls-1" d="M620.89 441.32h5.53v7.01h-5.53z"/><path id="_矩形_23" data-name="&lt;矩形&gt;" class="cls-1" d="M620.89 452.14h5.53v7.01h-5.53z"/><path id="_矩形_24" data-name="&lt;矩形&gt;" class="cls-1" d="M620.89 463.33h5.53v7.01h-5.53z"/><g id="_编组_5" data-name="&lt;编组&gt;"><path id="_路径_10" data-name="&lt;路径&gt;" class="cls-1" d="M214.51 544.63h22.63v17.38h-22.63z"/><path id="_路径_11" data-name="&lt;路径&gt;" class="cls-1" d="M157.76 544.63l-17.38 17.39h45.59v-17.39h-28.21z"/><path id="_路径_12" data-name="&lt;路径&gt;" class="cls-1" d="M188.92 544.63h22.63v17.38h-22.63z"/><path id="_路径_13" data-name="&lt;路径&gt;" class="cls-1" d="M303.56 562.02l-17.38-17.39h-46.09v17.39h63.47z"/></g><g id="_编组_6" data-name="&lt;编组&gt;"><path id="_路径_14" data-name="&lt;路径&gt;" class="cls-1" d="M117.5 17.88l10.42 10.41h164.4l10.42-10.41H117.5z"/></g><g id="_编组_7" data-name="&lt;编组&gt;"><path id="_路径_15" data-name="&lt;路径&gt;" class="cls-1" d="M601.21 490.21v89.42h19.68v-109.1l-19.68 19.68z"/></g><g id="_编组_8" data-name="&lt;编组&gt;"><path id="_路径_16" data-name="&lt;路径&gt;" class="cls-1" d="M571.69 559.39L553 578.09v1.54h70.56v-20.24h-51.87z"/></g></g></svg>