<svg id="Layer_1" data-name="Layer 1" xmlns="http://www.w3.org/2000/svg" viewBox="0 0 377.3 369.92"><defs><style>.cls-1{fill:#0ff}</style></defs><path id="_复合路径_" data-name="&lt;复合路径&gt;" class="cls-1" d="M395.43 502.76H41.83V158.87h353.6v343.9zm-352.63-1h351.66v-342H42.79v342z" transform="translate(-31.28 -145.81)"/><path id="_路径_" data-name="&lt;路径&gt;" class="cls-1" d="M77.12 13.54L90.66 0h156.13l13.7 13.7-183.37-.16z"/><path id="_路径_2" data-name="&lt;路径&gt;" class="cls-1" d="M318.44 13.54l9.68-9.68h46.49v49.76l-10.44 10.44V13.7l-45.73-.16z"/><path id="_路径_3" data-name="&lt;路径&gt;" class="cls-1" d="M11.03 13.54L4.27 20.3v64.94l6.46 6.46.3-78.16z"/><path id="_路径_4" data-name="&lt;路径&gt;" class="cls-1" d="M11.03 101.33l4.76 4.75v156.27l-5.43 5.43.67-166.45z"/><path id="_路径_5" data-name="&lt;路径&gt;" class="cls-1" d="M11.03 316.14L0 327.17v42.75h54.4l13.58-13.58h-56.2l-.75-40.2z"/><path id="_路径_6" data-name="&lt;路径&gt;" class="cls-1" d="M108.99 356.8l4.52 4.52h169.24l4.86-4.86-178.62.34z"/><path id="_路径_7" data-name="&lt;路径&gt;" class="cls-1" d="M275.86 356.46l2.83-2.83h66.48l2.71 2.7-72.02.13z"/><path id="_路径_8" data-name="&lt;路径&gt;" class="cls-1" d="M363.34 165.35l13.96 13.97v150.26l-14.03 14.03.07-178.26z"/><path id="_路径_9" data-name="&lt;路径&gt;" class="cls-1" d="M363.66 70.83l-4.44 4.44v66.72l4.38 4.38.06-75.54z"/><path id="_路径_10" data-name="&lt;路径&gt;" class="cls-1" d="M17.82 13.54l4.72 4.71h99.01l4.36-4.35-108.09-.36z"/><path id="_矩形_" data-name="&lt;矩形&gt;" class="cls-1" d="M125.56 355.04h14.94v5.26h-14.94z"/><path id="_矩形_2" data-name="&lt;矩形&gt;" class="cls-1" d="M144.09 355.04h14.94v5.26h-14.94z"/><path id="_矩形_3" data-name="&lt;矩形&gt;" class="cls-1" d="M162.62 355.04h14.94v5.26h-14.94z"/><path id="_矩形_4" data-name="&lt;矩形&gt;" class="cls-1" d="M181.16 355.04h14.94v5.26h-14.94z"/><path id="_矩形_5" data-name="&lt;矩形&gt;" class="cls-1" d="M199.69 355.04h14.94v5.26h-14.94z"/><path id="_矩形_6" data-name="&lt;矩形&gt;" class="cls-1" d="M218.23 355.04h14.94v5.26h-14.94z"/><path id="_矩形_7" data-name="&lt;矩形&gt;" class="cls-1" d="M236.76 355.04h14.94v5.26h-14.94z"/><path id="_矩形_8" data-name="&lt;矩形&gt;" class="cls-1" d="M255.29 355.04h14.94v5.26h-14.94z"/><path id="_路径_11" data-name="&lt;路径&gt;" class="cls-1" d="M6.57 108.6h1v117.82h-1z"/><path id="_路径_12" data-name="&lt;路径&gt;" class="cls-1" d="M354.56 166.56h1v168.28h-1z"/><path id="_路径_13" data-name="&lt;路径&gt;" class="cls-1" d="M367.22 73.62h1v72.75h-1z"/><path id="_路径_14" data-name="&lt;路径&gt;" class="cls-1" d="M129.1 15.13h170.12v1H129.1z"/><path id="_路径_15" data-name="&lt;路径&gt;" class="cls-1" d="M125.56 367.41h191.27v1H125.56z"/><path id="_路径_16" data-name="&lt;路径&gt;" class="cls-1" d="M21.72 8.29h40.66v1H21.72z"/></svg>