<svg id="Layer_5" data-name="Layer 5" xmlns="http://www.w3.org/2000/svg" viewBox="0 0 823.45 448.36"><defs><style>.cls-2{opacity:.3}.cls-2,.cls-3{fill:#03a6ff}</style></defs><path opacity=".3" fill="#00558d" d="M810.38 128.78v315.21h-77.81l-89.47-89.47H114.65L4.36 244.24V54.26l31.91-31.91h447.98l77.08 77.08h160.11l29.34 29.35h59.6z"/><path class="cls-2" d="M343.85 354.52l-38.01 38.01H43.81v-72.36L4.36 280.73v-36.49l110.29 110.28h229.2zM810.38 128.78h-59.6l-29.34-29.35H561.33l-77.08-77.08h48l53.22 53.23h171.71l53.2 53.2zM532.25 22.35h-48l-1.14-1.13 49.14 1.13z"/><path class="cls-3" d="M0 294.97v25.41l33.69 33.69v-25.41L0 294.97zM0 330.01v25.42l33.69 33.69V363.7L0 330.01zM316.9 396.89l29.98-29.98h28.88l-29.98 29.98H316.9zM357.24 396.89l29.98-29.98h28.88l-29.98 29.98h-28.88zM397.57 396.89l29.99-29.98h28.87l-29.98 29.98h-28.88zM437.91 396.89l29.98-29.98h28.88l-29.98 29.98h-28.88zM478.25 396.89l29.98-29.98h28.87l-29.98 29.98h-28.87zM519.11 396.89h72.72l-29.98-29.98H549.2l-30.09 29.98zM573.53 367.13l29.98 29.98h63.84l-29.98-29.98h-63.84zM814.74 104.6l-33.38-33.38h33.38v33.38z"/><path class="cls-3" d="M914.09 723.82l-8.71-8.71-55.75-55.75H696.71l-59.82-59.82h-71l-11.4-11.4H318.86l-6.19 6.19H125.81L90.64 629.5v241.18l39.44 39.44V985l6.86 6.86h254.48l6.86-6.86 38-38h295.65l89.47 89.47h84V926l8.71-8.71V723.82zM901 1032.14h-77.79l-89.47-89.47H434.48l-38 38h-262v-72.36L95 868.87V642.4l31.91-31.91h496l53.22 53.23h171.69l53.18 53.2v315.22z" transform="translate(-90.64 -588.14)"/></svg>