<svg id="Layer_1" data-name="Layer 1" xmlns="http://www.w3.org/2000/svg" viewBox="0 0 761.97 673.02"><defs><style>.cls-1{fill:#02a6ff;}</style></defs><title>border14</title><g id="_编组_" data-name="&lt;编组&gt;"><path id="_复合路径_" data-name="&lt;复合路径&gt;" class="cls-1" d="M1634.62,685.44h-762V31.78h762V685.44Zm-748.2-13.77h734.44V45.55H886.42V671.67Z" transform="translate(-872.65 -31.78)"/><g id="_编组_2" data-name="&lt;编组&gt;"><polygon id="_路径_" data-name="&lt;路径&gt;" class="cls-1" points="6.88 6.88 6.88 46.15 156.18 46.15 195.44 6.88 6.88 6.88"/></g><g id="_编组_3" data-name="&lt;编组&gt;"><polygon id="_路径_2" data-name="&lt;路径&gt;" class="cls-1" points="47.76 6.88 6.88 6.88 6.88 171.75 47.76 140.28 47.76 6.88"/></g><g id="_编组_4" data-name="&lt;编组&gt;"><polygon id="_路径_3" data-name="&lt;路径&gt;" class="cls-1" points="712.92 439.11 712.92 614.65 755.09 614.65 755.09 396.94 712.92 439.11"/></g><g id="_编组_5" data-name="&lt;编组&gt;"><polygon id="_路径_4" data-name="&lt;路径&gt;" class="cls-1" points="749.64 596.29 549.14 596.29 498.66 646.78 749.64 646.78 749.64 596.29"/></g><polygon id="_路径_5" data-name="&lt;路径&gt;" class="cls-1" points="735.73 214.81 732.28 214.81 732.28 28.24 499.52 28.24 499.52 24.8 735.73 24.8 735.73 214.81"/><rect id="_矩形_" data-name="&lt;矩形&gt;" class="cls-1" x="498.8" y="19.33" width="17.21" height="13.77"/><rect id="_矩形_2" data-name="&lt;矩形&gt;" class="cls-1" x="525.34" y="24.28" width="13.62" height="4.45"/><rect id="_矩形_3" data-name="&lt;矩形&gt;" class="cls-1" x="542.26" y="24.28" width="13.62" height="4.45"/><rect id="_矩形_4" data-name="&lt;矩形&gt;" class="cls-1" x="559.18" y="24.28" width="13.62" height="4.45"/><rect id="_矩形_5" data-name="&lt;矩形&gt;" class="cls-1" x="576.1" y="24.28" width="13.62" height="4.45"/><rect id="_矩形_6" data-name="&lt;矩形&gt;" class="cls-1" x="593.03" y="24.28" width="13.62" height="4.45"/><rect id="_矩形_7" data-name="&lt;矩形&gt;" class="cls-1" x="36.14" y="617.52" width="3.87" height="55.5"/><rect id="_矩形_8" data-name="&lt;矩形&gt;" class="cls-1" x="65.4" y="617.52" width="3.87" height="55.5"/><rect id="_矩形_9" data-name="&lt;矩形&gt;" class="cls-1" x="94.65" y="617.52" width="3.87" height="55.5"/><rect id="_矩形_10" data-name="&lt;矩形&gt;" class="cls-1" x="123.91" y="617.52" width="3.87" height="55.5"/><rect id="_矩形_11" data-name="&lt;矩形&gt;" class="cls-1" x="153.17" y="617.52" width="3.87" height="55.5"/><rect id="_矩形_12" data-name="&lt;矩形&gt;" class="cls-1" x="182.43" y="617.52" width="3.87" height="55.5"/><rect id="_矩形_13" data-name="&lt;矩形&gt;" class="cls-1" x="727.05" y="206.2" width="13.91" height="13.48"/><rect id="_矩形_14" data-name="&lt;矩形&gt;" class="cls-1" x="729.99" y="191.86" width="8.03" height="5.16"/><rect id="_矩形_15" data-name="&lt;矩形&gt;" class="cls-1" x="729.99" y="182.11" width="8.03" height="5.16"/><rect id="_矩形_16" data-name="&lt;矩形&gt;" class="cls-1" x="729.99" y="172.35" width="8.03" height="5.16"/><rect id="_矩形_17" data-name="&lt;矩形&gt;" class="cls-1" x="729.99" y="162.6" width="8.03" height="5.16"/><rect id="_矩形_18" data-name="&lt;矩形&gt;" class="cls-1" x="729.99" y="152.85" width="8.03" height="5.16"/><rect id="_矩形_19" data-name="&lt;矩形&gt;" class="cls-1" x="729.99" y="143.1" width="8.03" height="5.16"/></g></svg>