<svg id="Layer_5" data-name="Layer 5" xmlns="http://www.w3.org/2000/svg" viewBox="0 0 702.94 481.49"><defs><style>.cls-1,.cls-2{fill:#03a6ff}.cls-1{opacity:.3}</style></defs><path class="cls-1" d="M45.57 120.74L69 97.32V70.17h86.44L224.67.93l-10.73 4.23-38.65 38.65H21.55l.15 53.07 23.87 23.86zM45.57 264.33v136.7l46.86 46.86h88.89l-12.17 12.17H55.73L5.16 409.49V304.75l40.41-40.42zM505.39 391.98l17.45-17.46h77.05l29.93 29.93h21.14l22.29-22.29V126.11l14.9 14.9v285.05H539.47l-34.08-34.08z"/><path class="cls-2" d="M194.61 465.22l59.19-59.19h33.04l-59.21 59.19h-33.02zM255.39 455.76l49.72-49.73h33.04l-49.74 49.73h-33.02zM315.09 447.37l41.34-41.34h33.04l-41.35 41.34h-33.03zM373.18 440.6l34.57-34.57h33.04L406.2 440.6h-33.02zM433.76 431.34l25.3-25.31h33.04l-25.32 25.31h-33.02zM16.38 33.32L49.7 0h26.01l33.33 33.32H16.38zM82.01.04l33.25 33.25h14.51L96.52.04H82.01zM102.33.04l33.25 33.25h14.51L116.84.04h-14.51zM122.65.04l33.25 33.25h14.51L137.17.04h-14.52zM147.23 0h54.45l-27.53 27.53L147.23 0zM646 77.43l47.31 48.68V77.43H646z"/><path fill="#00558d" opacity=".3" d="M45.57 120.74v280.29l46.86 46.86h88.89l55.91-55.91h268.16l17.45-17.46h77.05l29.93 29.93h21.14l22.29-22.29V126.11l-43.53-43.53H487.8L410.37 5.16H220.44l-65 65.01H69v27.15l-23.43 23.42z"/><path class="cls-2" d="M2905.06 927.5l-9.63-9.63-61.43-61.45h-124.2L2632.38 779h-218.46l-38.65 38.65H2218.5l.18 60.37v17.2l23.86 23.86v122.12l-40.42 40.42v130.8l48 48h107l16.27-16.27 68.08-68.08h263.89l34.08 34.08h156v-84.28l9.63-9.63V927.5zm-14.79 277.55h-148.68l-34.08-34.05h-268.16l-68.08 68.08h-113.43l-50.57-50.57v-104.76l40.42-40.41v-143.6l-23.87-23.87-.16-53.07h153.74l38.65-38.65h196.43l77.43 77.43h141.92l58.44 58.42v285.05z" transform="translate(-2202.12 -779)"/></svg>