<svg id="Layer_1" data-name="Layer 1" xmlns="http://www.w3.org/2000/svg" viewBox="0 0 1360.22 614.65"><defs><style>.cls-1{fill:#02a6ff;}</style></defs><title>border12</title><path id="_复合路径_" data-name="&lt;复合路径&gt;" class="cls-1" d="M1396.18,1860.57H50.49V1682H83.06v-94.65H50.49v-341.4h1345.7v190h-37.86V1694h37.86v166.54ZM53.93,1857.12H1392.74V1697.46h-37.86v-265h37.86V1249.36H53.93v334.52H86.5v101.54H53.93v171.71Z" transform="translate(-50.49 -1245.92)"/><g id="_编组_" data-name="&lt;编组&gt;"><polygon id="_路径_" data-name="&lt;路径&gt;" class="cls-1" points="1.72 1.72 1.72 21.3 214.57 21.3 234.14 1.72 1.72 1.72"/></g><g id="_编组_2" data-name="&lt;编组&gt;"><polygon id="_路径_2" data-name="&lt;路径&gt;" class="cls-1" points="57.65 1.72 1.72 1.72 1.72 130.74 57.65 74.81 57.65 1.72"/></g><g id="_编组_3" data-name="&lt;编组&gt;"><polygon id="_路径_3" data-name="&lt;路径&gt;" class="cls-1" points="1343.97 551.94 1213.46 551.94 1152.48 612.93 1343.97 612.93 1343.97 551.94"/></g><g id="_编组_4" data-name="&lt;编组&gt;"><polygon id="_路径_4" data-name="&lt;路径&gt;" class="cls-1" points="1343.97 1.72 1170.65 1.72 1203.42 34.49 1343.97 34.49 1343.97 1.72"/></g><g id="_编组_5" data-name="&lt;编组&gt;"><polygon id="_路径_5" data-name="&lt;路径&gt;" class="cls-1" points="693.02 582.43 260.51 582.43 230.02 612.93 723.51 612.93 693.02 582.43"/></g><g id="_编组_6" data-name="&lt;编组&gt;"><polygon id="_路径_6" data-name="&lt;路径&gt;" class="cls-1" points="613.43 1.72 633 21.3 969.08 21.3 988.66 1.72 613.43 1.72"/></g><g id="_编组_7" data-name="&lt;编组&gt;"><g id="_编组_8" data-name="&lt;编组&gt;"><line id="_路径_7" data-name="&lt;路径&gt;" class="cls-1" x1="1360.22" y1="281.56" x2="1356.54" y2="277.88"/></g></g></svg>