<svg id="Layer_1" data-name="Layer 1" xmlns="http://www.w3.org/2000/svg" viewBox="0 0 48.2 69.77"><defs><style>.cls-1{fill:#154666;}.cls-2{fill:#5cdeff;}</style></defs><title>border5</title><path class="cls-1" d="M235.87,418H188.42a0.25,0.25,0,0,1-.25-0.25v-69a0.25,0.25,0,0,1,.25-0.25h47.45a0.25,0.25,0,0,1,.25.25v69A0.25,0.25,0,0,1,235.87,418Zm-47.2-.5h46.95V349H188.67v68.52Z" transform="translate(-188.04 -348.33)"/><polygon class="cls-2" points="0.75 23.02 0 23.02 0 0 10.65 0.19 10.64 0.94 0.75 0.76 0.75 23.02"/><polygon class="cls-2" points="48.2 69.77 23.37 69.77 23.37 69.02 47.45 69.02 47.45 50.87 48.2 50.87 48.2 69.77"/></svg>