<svg id="Layer_1" data-name="Layer 1" xmlns="http://www.w3.org/2000/svg" viewBox="0 0 111.5 88.33"><defs><style>.cls-1{fill:#00aeef}</style></defs><path class="cls-1" d="M580.21 167h-21.39l-5-4h-52.27l-4.62 4h-21.81v-14.54l6-5.67v-43.24l-6-5.33.05-15h21.25l5 4h52.27l4.62-4h21.94v15l-6 5.33v43.24l6 5.68V167zm-21-1h20v-13.12l-6-5.67V103.1l6-5.33V84.25h-20.56l-4.62 4h-53l-5-4h-19.86v13.59l6 5.33v44.12l-6 5.67v13h20.44l4.62-4h53z" transform="translate(-475 -83.17)"/><path class="cls-1" d="M0 20.32h1V63H0z"/><path class="cls-1" d="M481.92 100.85l-3.58-3.12V86.16h17.2l4.46 3.63h-18v11.08zm-2.58-3.58l1.58 1.38v-9.88h16.21l-2-1.58h-15.84V97.3zM481.92 162.92h-3.58v-9.48l3.58-3.12v12.6zm-2.58-1h1.58v-9.4l-1.58 1.38v8z" transform="translate(-475 -83.17)"/><path class="cls-1" d="M37.17 83h2.16v1h-2.16zM90.5 88.33h-7.17L77.67 84H43v-1h35l5.67 4.33h6.83v1zM92.38 87.33h5.87v1h-5.87zM111.5 88.33h-11.12v-1h10.12V69.54l-6.25-6.34v-8.87h1v8.46l6.25 6.34v19.2zM104.25 48h1v3.66h-1zM104.25 20.32h1v25.01h-1z"/><path class="cls-1" d="M573.34 99.85v-12.6h3.58v9.48zm1-11.6v9.4l1.58-1.38v-8h-1.58zM576.92 162.92h-3.58v-12.6l3.58 3.12v9.48zm-2.58-1h1.58v-8l-1.58-1.38v9.4z" transform="translate(-475 -83.17)"/><path opacity=".3" fill="#00aeef" d="M12 9.16h81.33v66H12z"/><path class="cls-1" d="M26.33.16h51.5v1h-51.5z"/></svg>