<svg id="Layer_1" data-name="Layer 1" xmlns="http://www.w3.org/2000/svg" viewBox="0 0 224.24 160.23"><defs><style>.cls-1{fill:#f21d7a;}</style></defs><title>border42</title><path class="cls-1" d="M1001.37,264.5a0.27,0.27,0,0,1-.27-0.27v-7.82h7.82a0.27,0.27,0,1,1,0,.54h-7.28v7.28A0.27,0.27,0,0,1,1001.37,264.5Z" transform="translate(-1001.1 -256.41)"/><path class="cls-1" d="M1225.07,264.5a0.27,0.27,0,0,1-.27-0.27V257h-7.28a0.27,0.27,0,0,1,0-.54h7.82v7.82A0.27,0.27,0,0,1,1225.07,264.5Z" transform="translate(-1001.1 -256.41)"/><path class="cls-1" d="M1008.92,416.64h-7.82v-7.82a0.27,0.27,0,0,1,.54,0v7.28h7.28A0.27,0.27,0,1,1,1008.92,416.64Z" transform="translate(-1001.1 -256.41)"/><path class="cls-1" d="M1225.34,416.64h-7.82a0.27,0.27,0,0,1,0-.54h7.28v-7.28a0.27,0.27,0,0,1,.54,0v7.82Z" transform="translate(-1001.1 -256.41)"/></svg>