<svg id="Layer_5" data-name="Layer 5" xmlns="http://www.w3.org/2000/svg" viewBox="0 0 114.45 67.77"><defs><style>.cls-1{fill:aqua;}</style></defs><title>border48</title><path class="cls-1" d="M540,280.67v-6.49l-1.33-1.33v-3.62l-1.14-1.14V234.81l1.14-1.14V230l1.33-1.33v-6.49a0.68,0.68,0,1,0-.5,0v6.28l-0.83.83V221.4L536,218.73h-1.19l-1.16-1.16h-8.54l-1.86,1.86h-4.13a0.68,0.68,0,1,0,0,.5h4.34l1.86-1.86h8.13l0.66,0.66h-8.3L524,220.54h-5.6L517,221.94H449.42L448,220.54h-5.6l-1.81-1.81h-8.3l0.66-.66h8.13l1.86,1.86h4.34a0.68,0.68,0,1,0,0-.5h-4.13l-1.86-1.86h-8.54l-1.16,1.16H430.4l-2.67,2.67v7.95l-0.83-.83v-6.28a0.68,0.68,0,1,0-.5,0v6.49l1.33,1.33v3.62l1.14,1.14v33.28l-1.14,1.14v3.62l-1.33,1.33v6.49a0.68,0.68,0,1,0,.5,0v-6.28l0.83-.83v7.95l2.67,2.67h1.19l1.16,1.16h8.54l1.86-1.86h4.13a0.68,0.68,0,1,0,0-.5h-4.34l-1.86,1.86H433l-0.66-.66h8.3l1.81-1.81H448l1.41-1.41H517l1.41,1.41H524l1.81,1.81h8.3l-0.66.66h-8.13L523.46,283h-4.34a0.68,0.68,0,1,0,0,.5h4.13l1.86,1.86h8.54l1.16-1.16H536l2.67-2.67v-7.95l0.83,0.83v6.28A0.68,0.68,0,1,0,540,280.67Zm-4.21-16.56a0.67,0.67,0,0,0-.25,1.3V274L537,275.5v2.93l-2,2H431.4l-2-2V275.5l1.49-1.49v-8.6a0.68,0.68,0,1,0-.5,0v8.39l-1,1V228.11l1,1v8.39a0.68,0.68,0,1,0,.5,0v-8.6l-1.49-1.49v-2.93l2-2H535l2,2v2.93l-1.49,1.49v8.6a0.68,0.68,0,1,0,.5,0V229.1l1-1V274.8l-1-1v-8.39A0.67,0.67,0,0,0,535.79,264.11Z" transform="translate(-425.97 -217.57)"/></svg>