<svg xmlns="http://www.w3.org/2000/svg" viewBox="0 0 580.97 358.74"><defs><style>.cls-2,.cls-4{mix-blend-mode:screen}.cls-3,.cls-4{fill:#03a6ff}</style></defs><g style="isolation:isolate"><g id="Layer_3" data-name="Layer 3"><g class="cls-2"><path class="cls-3" d="M1701.19 1858.21h4.38v-3.83h-7.25v3.83h-6.1v-3.83H1685v3.83h-6.1v-3.83h-7.25v3.83h-36.3c-10.75-11-70.51-74.61-67.23-172.6 2.94-88 54.67-143.91 67.23-156.8h6.37v7.85h2.71v-7.85h8.82v7.85h2.71v-7.85h8.82v7.85h2.71v-7.85h6.61v2.94h39.51v-2.94h-12.39v-2h-69.63c-19.39 20.09-64.77 75.78-67.54 158.69-3.13 93.81 50.91 157.48 67.54 174.77h10.29v3.8h23v-3.8h36.36v-2z" transform="translate(-1563.89 -1514.89)"/><path class="cls-3" d="M74.91 6.7h3.31v3.31h-3.31zM84.58 6.7h3.31v3.31h-3.31zM94.24 6.7h3.31v3.31h-3.31zM103.91 6.7h3.31v3.31h-3.31zM111.79 0h58.64v.93h-58.64zM127.74 5.85h58.64v.93h-58.64zM112.36 353.49H171v.93h-58.64z"/><path class="cls-3" d="M1624.19 1836.66l1.62-1.24-1.23-1.61-1.58 1.19zM1620.53 1831.75l1.64-1.2-1.19-1.64-1.65 1.18zM1617 1826.75l1.67-1.16-1.14-1.67-1.68 1.14zM1613.56 1821.66l1.7-1.11-1.1-1.7-1.71 1.1zM1610.26 1816.5l1.73-1.07-1.06-1.72-1.74 1.06zM1607.09 1811.25l1.75-1-1-1.75-1.76 1zM1604.06 1805.92l1.78-1-1-1.78-1.79 1zM1601.15 1800.53l1.8-.94-.93-1.8-1.81.93zM1600.21 1794.16l-.88-1.82-1.83.88.89 1.84zM1597.6 1788.67l-.84-1.85-1.86.83.85 1.86zM1595.14 1783.12l-.79-1.87-1.88.78.8 1.88zM1592.81 1777.5l-.74-1.88-1.9.74.75 1.9zM1590.63 1771.83l-.69-1.9-1.91.69.7 1.92zM1588.61 1766.1l-.64-1.92-1.93.64.65 1.94zM1586.73 1760.33q-.3-1-.59-1.94l-1.95.59q.29 1 .6 2zM1585 1754.5l-.54-2-2 .53.54 2zM1583.44 1748.63q-.25-1-.49-2l-2 .48q.24 1 .49 2zM1582 1742.72q-.22-1-.43-2l-2 .43q.21 1 .44 2zM1580.78 1736.78l-.38-2-2 .37.38 2zM1579.7 1730.8q-.17-1-.33-2l-2 .32q.16 1 .33 2zM1578.77 1724.8q-.14-1-.27-2l-2 .26q.13 1 .27 2zM1578 1718.77l-.22-2-2 .21.22 2zM1577.41 1712.73q-.09-1-.16-2l-2 .15.16 2zM1577 1706.67q-.06-1-.11-2l-2 .1q.05 1 .11 2zM1574.62 1698.62q0 1 .05 2l2-.06q0-1-.05-2zM1574.62 1688.41h2q0-1 .05-2l-2-.06q-.03 1.03-.05 2.06zM1574.83 1682.28l2 .1q0-1 .11-2l-2-.12q-.06 1-.11 2.02zM1575.21 1676.17l2 .15.16-2-2-.17q-.08.99-.16 2.02zM1575.76 1670.06l2 .21q.1-1 .22-2l-2-.23q-.12.96-.22 2.02zM1576.47 1664l2 .26q.13-1 .27-2l-2-.28q-.14 1.02-.27 2.02zM1577.34 1657.91l2 .32.32-2-2-.33-.32 2.01zM1578.37 1651.87l2 .37q.18-1 .38-2l-2-.39-.38 2.02zM1579.57 1645.86l2 .43q.21-1 .43-2l-2-.44q-.21 1-.43 2.01zM1580.93 1639.88l2 .48.48-2-2-.5q-.23 1.02-.48 2.02zM1582.46 1633.94l2 .53.54-2-2-.55q-.28 1.08-.54 2.02zM1584.14 1628l1.95.58q.29-1 .59-1.94l-1.94-.6zM1586 1622.2l1.93.64.64-1.92-1.93-.65zM1588 1616.4l1.92.69.69-1.9-1.91-.7zM1590.11 1610.66l1.9.74.74-1.89-1.89-.75zM1592.4 1605l1.88.79.79-1.87-1.87-.8zM1594.84 1599.35l1.86.83.84-1.85-1.85-.85zM1600.13 1592.85l-1.83-.9-.89 1.84 1.83.88zM1601.08 1586.49l-.94 1.81 1.81.93.93-1.8zM1604 1581.09l-1 1.79 1.79 1 1-1.78zM1607 1575.77l-1 1.77 1.76 1 1-1.75zM1610.19 1570.52l-1.07 1.74 1.74 1.06 1.06-1.73zM1613.49 1565.36l-1.11 1.71 1.71 1.1 1.11-1.7zM1616.92 1560.28l-1.16 1.68 1.68 1.14 1.15-1.67zM1620.47 1555.28l-1.2 1.66 1.65 1.19 1.19-1.64zM1625.76 1551.61l-1.61-1.24-1.24 1.63 1.62 1.23z" transform="translate(-1563.89 -1514.89)"/><path class="cls-4" d="M1570.61 1692.49v2" transform="translate(-1563.89 -1514.89)"/></g><g class="cls-2"><path class="cls-3" d="M2007.55 1858.21h-4.38v-3.83h7.25v3.83h6.1v-3.83h7.25v3.83h6.1v-3.83h7.25v3.83h36.3c10.75-11 70.51-74.61 67.23-172.6-2.94-88-54.67-143.91-67.23-156.8h-6.37v7.85h-2.71v-7.85h-8.82v7.85h-2.71v-7.85H2044v7.85h-2.71v-7.85h-6.61v2.94h-39.51v-2.94h12.39v-2h69.63c19.39 20.09 64.77 75.78 67.54 158.69 3.13 93.81-50.91 157.48-67.54 174.77h-10.29v3.8h-23v-3.8h-36.36v-2z" transform="translate(-1563.89 -1514.89)"/><path class="cls-3" d="M502.75 6.7h3.31v3.31h-3.31zM493.08 6.7h3.31v3.31h-3.31zM483.42 6.7h3.31v3.31h-3.31zM473.75 6.7h3.31v3.31h-3.31zM410.54 0h58.64v.93h-58.64zM394.59 5.85h58.64v.93h-58.64zM409.97 353.49h58.64v.93h-58.64z"/><path class="cls-3" d="M2084.54 1836.66l-1.62-1.24 1.23-1.61 1.63 1.22zM2088.21 1831.75l-1.64-1.2 1.19-1.64 1.65 1.18zM2091.76 1826.75l-1.67-1.16 1.14-1.67 1.68 1.14zM2095.18 1821.66l-1.7-1.11 1.1-1.7 1.71 1.1zM2098.48 1816.5l-1.73-1.07 1.06-1.72 1.74 1.06zM2101.64 1811.25l-1.75-1 1-1.75 1.76 1zM2104.68 1805.92l-1.78-1 1-1.78 1.79 1zM2107.58 1800.53l-1.8-.94.93-1.8 1.81.93zM2108.53 1794.16l.88-1.82 1.83.88-.89 1.84zM2111.14 1788.67l.84-1.85 1.86.83-.84 1.86zM2113.6 1783.12l.79-1.87 1.88.78-.8 1.88zM2115.93 1777.5l.74-1.88 1.9.74-.75 1.9zM2118.1 1771.83l.69-1.9 1.91.69-.7 1.92zM2120.13 1766.1l.64-1.92 1.93.64-.65 1.94zM2122 1760.33q.3-1 .59-1.94l1.95.59q-.29 1-.6 2zM2123.73 1754.5l.54-2 2 .53-.54 2zM2125.3 1748.63q.25-1 .49-2l2 .48q-.24 1-.49 2zM2126.71 1742.72q.22-1 .43-2l2 .43q-.21 1-.44 2zM2128 1736.78l.38-2 2 .37-.38 2zM2129 1730.8q.17-1 .33-2l2 .32q-.16 1-.33 2zM2130 1724.8q.14-1 .27-2l2 .26q-.13 1-.27 2zM2130.73 1718.77l.22-2 2 .21q-.1 1-.22 2zM2131.33 1712.73q.09-1 .16-2l2 .15-.16 2zM2131.76 1706.67q.06-1 .11-2l2 .1q-.05 1-.11 2zM2134.12 1698.62q0 1-.05 2l-2-.06q0-1 .05-2zM2134.12 1688.41h-2q0-1-.05-2l2-.06q.03 1.03.05 2.06zM2133.9 1682.28l-2 .1q0-1-.11-2l2-.12q.06 1 .11 2.02zM2133.52 1676.17l-2 .15-.16-2 2-.17q.09.99.16 2.02zM2133 1670.06l-2 .21q-.1-1-.22-2l2-.23q.1.96.22 2.02zM2132.27 1664l-2 .26q-.13-1-.27-2l2-.28q.14 1.02.27 2.02zM2131.4 1657.91l-2 .32-.32-2 2-.33.32 2.01zM2130.36 1651.87l-2 .37q-.18-1-.38-2l2-.39q.2 1.01.38 2.02zM2129.16 1645.86l-2 .43q-.21-1-.43-2l2-.44q.22 1 .43 2.01zM2127.8 1639.88l-2 .48-.48-2 2-.5q.24 1.02.48 2.02zM2126.28 1633.94l-2 .53-.54-2 2-.55q.26 1.08.54 2.02zM2124.6 1628l-1.95.58q-.29-1-.59-1.94l1.94-.6zM2122.77 1622.2l-1.93.64-.64-1.92 1.93-.65zM2120.77 1616.4l-1.92.69-.69-1.9 1.91-.7zM2118.63 1610.66l-1.9.74-.74-1.89 1.89-.75zM2116.34 1605l-1.88.79-.79-1.87 1.87-.8zM2113.9 1599.35l-1.86.83-.84-1.85 1.85-.85zM2108.6 1592.85l1.83-.9.89 1.84-1.83.88zM2107.66 1586.49l.94 1.81-1.81.93-.93-1.8zM2104.76 1581.09l1 1.79-1.79 1-1-1.78zM2101.72 1575.77l1 1.77-1.76 1-1-1.75zM2098.55 1570.52l1.07 1.74-1.74 1.06-1.06-1.73zM2095.25 1565.36l1.11 1.71-1.71 1.1-1.11-1.7zM2091.82 1560.28l1.18 1.72-1.68 1.14-1.15-1.67zM2088.27 1555.28l1.2 1.66-1.65 1.19-1.19-1.64zM2083 1551.61l1.61-1.24 1.24 1.63-1.62 1.23z" transform="translate(-1563.89 -1514.89)"/><path class="cls-4" d="M2138.13 1694.54v-2" transform="translate(-1563.89 -1514.89)"/></g><path class="cls-3" d="M190.97 353.57h198.96v.76H190.97z"/><path class="cls-3" d="M190.47 349.16h1.02v9.58h-1.02zM289.94 349.16h1.02v9.58h-1.02zM244.73 351.71h1.02v4.49h-1.02zM249.81 351.71h1.02v4.49h-1.02zM254.9 351.71h1.02v4.49h-1.02zM259.99 351.71h1.02v4.49h-1.02zM265.07 351.71h1.02v4.49h-1.02zM270.16 351.71h1.02v4.49h-1.02zM275.25 351.71h1.02v4.49h-1.02zM280.33 351.71h1.02v4.49h-1.02zM285.42 351.71h1.02v4.49h-1.02zM294.47 351.71h1.02v4.49h-1.02zM299.55 351.71h1.02v4.49h-1.02zM304.64 351.71h1.02v4.49h-1.02zM309.73 351.71h1.02v4.49h-1.02zM314.81 351.71h1.02v4.49h-1.02zM319.9 351.71h1.02v4.49h-1.02zM324.99 351.71h1.02v4.49h-1.02zM330.07 351.71h1.02v4.49h-1.02zM335.16 351.71h1.02v4.49h-1.02zM344.21 351.71h1.02v4.49h-1.02zM349.29 351.71h1.02v4.49h-1.02zM354.38 351.71h1.02v4.49h-1.02zM359.47 351.71h1.02v4.49h-1.02zM364.55 351.71h1.02v4.49h-1.02zM369.64 351.71h1.02v4.49h-1.02zM374.73 351.71h1.02v4.49h-1.02zM379.81 351.71h1.02v4.49h-1.02zM384.9 351.71h1.02v4.49h-1.02zM194.99 351.71h1.02v4.49h-1.02zM200.07 351.71h1.02v4.49h-1.02zM205.16 351.71h1.02v4.49h-1.02zM210.25 351.71h1.02v4.49h-1.02zM215.33 351.71h1.02v4.49h-1.02zM220.42 351.71h1.02v4.49h-1.02zM225.51 351.71h1.02v4.49h-1.02zM230.59 351.71h1.02v4.49h-1.02zM235.68 351.71h1.02v4.49h-1.02zM240.2 349.16h1.02v9.58h-1.02zM339.68 349.16h1.02v9.58h-1.02zM389.42 349.16h1.02v9.58h-1.02zM288.33 345.03h4.24v2.23h-4.24zM338.07 345.03h4.24v2.23h-4.24zM387.81 345.03h4.24v2.23h-4.24zM238.59 345.03h4.24v2.23h-4.24zM188.85 345.03h4.24v2.23h-4.24zM190.97 19.57h198.96v.76H190.97z"/><path class="cls-3" d="M190.47 15.16h1.02v9.58h-1.02zM289.94 15.16h1.02v9.58h-1.02zM244.73 17.71h1.02v4.49h-1.02zM249.81 17.71h1.02v4.49h-1.02zM254.9 17.71h1.02v4.49h-1.02zM259.99 17.71h1.02v4.49h-1.02zM265.07 17.71h1.02v4.49h-1.02zM270.16 17.71h1.02v4.49h-1.02zM275.25 17.71h1.02v4.49h-1.02zM280.33 17.71h1.02v4.49h-1.02zM285.42 17.71h1.02v4.49h-1.02zM294.47 17.71h1.02v4.49h-1.02zM299.55 17.71h1.02v4.49h-1.02zM304.64 17.71h1.02v4.49h-1.02zM309.73 17.71h1.02v4.49h-1.02zM314.81 17.71h1.02v4.49h-1.02zM319.9 17.71h1.02v4.49h-1.02zM324.99 17.71h1.02v4.49h-1.02zM330.07 17.71h1.02v4.49h-1.02zM335.16 17.71h1.02v4.49h-1.02zM344.21 17.71h1.02v4.49h-1.02zM349.29 17.71h1.02v4.49h-1.02zM354.38 17.71h1.02v4.49h-1.02zM359.47 17.71h1.02v4.49h-1.02zM364.55 17.71h1.02v4.49h-1.02zM369.64 17.71h1.02v4.49h-1.02zM374.73 17.71h1.02v4.49h-1.02zM379.81 17.71h1.02v4.49h-1.02zM384.9 17.71h1.02v4.49h-1.02zM194.99 17.71h1.02v4.49h-1.02zM200.07 17.71h1.02v4.49h-1.02zM205.16 17.71h1.02v4.49h-1.02zM210.25 17.71h1.02v4.49h-1.02zM215.33 17.71h1.02v4.49h-1.02zM220.42 17.71h1.02v4.49h-1.02zM225.51 17.71h1.02v4.49h-1.02zM230.59 17.71h1.02v4.49h-1.02zM235.68 17.71h1.02v4.49h-1.02zM240.2 15.16h1.02v9.58h-1.02zM339.68 15.16h1.02v9.58h-1.02zM389.42 15.16h1.02v9.58h-1.02zM288.33 26.65h4.24v2.23h-4.24zM338.07 26.65h4.24v2.23h-4.24zM387.81 26.65h4.24v2.23h-4.24zM238.59 26.65h4.24v2.23h-4.24zM188.85 26.65h4.24v2.23h-4.24z"/></g></g></svg>