<svg id="Layer_1" data-name="Layer 1" xmlns="http://www.w3.org/2000/svg" viewBox="0 0 211.77 103.54"><defs><style>.cls-1,.cls-2{fill:#0ff}.cls-2{fill-rule:evenodd}</style></defs><path class="cls-1" d="M.24 60.04v43.33h206.5v.17H.07v-43.5h.17z"/><path class="cls-1" d="M206.9 11.1v10.91l-.05.05-4.61 4.61v35.79H183.71L170.18 76v18.52H42.29l-4.61 4.62-.05.05H4.65V54.77l-4.6-4.6-.05-.05V33.07h.32v16.92l4.6 4.6.05.05v44.23H37.5l4.61-4.62.05-.05h127.7V71.9l.05-.05 9.66-9.66.05-.05h22.31v-35.6l.04-.05 4.61-4.61V11.1h.32z"/><path class="cls-1" d="M206.58 11.1V.32H.32v32.75H0V0h206.9v11.1h-.32zM211.56.16v34.76l-.05.05-4.61 4.61v32.69h-.32V39.45l.04-.05 4.62-4.61V.16h.32z"/><path class="cls-1" d="M206.74 5.24h-67.69l-8.45 8.46-.05.05h-27.03l-8.84 8.83-.04.04H22.87l-.04-.04L14 13.75H.16v-.32h17.15l.03.05 8.84 8.82H94.5l8.84-8.82.05-.05H130.42l8.45-8.45.04-.05h67.83v.31z"/><path class="cls-2" d="M206.36 66.46l2.26-2.25V42.02l3.15-3.16v14.9l-2.25 2.26v47.52h-3.16V66.46zM34.56 97.42h2.19l3.42-3.43h-2.19l-3.42 3.43zM31.04 97.42h2.19l3.43-3.43h-2.19l-3.43 3.43zM27.52 97.42h2.19l3.43-3.43h-2.19l-3.43 3.43zM24.01 97.42h2.19l3.42-3.43h-2.19l-3.42 3.43zM20.49 97.42h2.19l3.43-3.43h-2.19l-3.43 3.43zM16.97 97.42h2.19l3.43-3.43H20.4l-3.43 3.43zM13.46 97.42h2.19l3.42-3.43h-2.18l-3.43 3.43zM9.94 97.42h2.19l3.43-3.43h-2.18l-3.44 3.43zM6.42 97.42h2.19l3.43-3.43H6.42v3.43zM211.56 7.53V0h-3.16v11.89l3.16 3.15V7.53z"/><path class="cls-2" d="M172 14.51h-4.55l-7.12 7.13h4.55zm52.09 0h-5.53l-7.12 7.13h12.65v-7.13zm-8.28 0h-4.55l-7.12 7.13h4.55zm-7.3 0h-4.55l-7.12 7.13h4.55zm-7.3 0h-4.55l-7.12 7.13H194zm-7.3 0h-4.55l-7.12 7.13h4.55zm-7.3 0H182l-7.12 7.13h4.55zm-7.3 0h-4.55l-7.12 7.13h4.55zm-14.6 0h-4.55L153 21.65h4.55z" transform="translate(-19.11 -7.87)"/><path class="cls-2" d="M.07 59.9v13.06l3.16-3.16V55.54L.07 52.39v7.51z"/><path class="cls-1" d="M208.61 78.76v2.45H208v-2.45h.64zm0 19.25v2.45H208V98h.64zm2.19 2.16l-.64-2.36.61-.17.64 2.37zm-5-18.6l-.63-2.36.61-.17.64 2.37zm7.64 17.6L212.22 97l.54-.32 1.24 2.17zm-9.63-16.68l-1.23-2.12.55-.31 1.23 2.12zm11.92 15L214 95.77l.45-.44 1.73 1.73zm-13.6-13.59l-1.73-1.73.44-.45 1.73 1.73zm15.4 11.42l-2.12-1.23.32-.55 2.12 1.23zm-16.67-9.63l-2.12-1.23.32-.54 2.12 1.23zm17.83 7l-2.36-.63.16-.62 2.37.64zm-18.6-5l-2.36-.64.16-.61 2.37.64zm19.06 2.19h-2.45v-.58h2.45v.64zm-19.26 0h-2.44v-.58h2.44v.64zm19-2.83l-2.37.64-.16-.61 2.36-.64zm-18.6 5l-2.37.63-.16-.61 2.36-.64zm17.59-7.64l-2.12 1.23-.32-.54 2.12-1.23zm-16.68 9.63l-2.12 1.23-.32-.55 2.12-1.23zm15-11.93l-1.73 1.73-.47-.39 1.73-1.73zm-13.63 13.66l-1.73 1.73-.45-.44 1.73-1.73zM214 80.38l-1.23 2.12-.54-.32 1.23-2.12zM204.36 97l-1.22 2.12-.55-.32 1.23-2.12zm7-17.83l-.64 2.36-.61-.16.69-2.37zm-5 18.6l-.63 2.36-.62-.16.64-2.37zM208.29 97.26a7.66 7.66 0 01-7.65-7.65h1.27a6.37 6.37 0 106.38-6.37V82a7.65 7.65 0 010 15.26z" transform="translate(-19.11 -7.87)"/><path class="cls-1" d="M208.29 76a13.65 13.65 0 11-9.64 4 13.64 13.64 0 019.64-4zm9.2 4.45a13 13 0 103.81 9.2 13 13 0 00-3.81-9.2z" transform="translate(-19.11 -7.87)"/><path class="cls-1" d="M208.29 75.3A14.32 14.32 0 11194 89.62h2a12.33 12.33 0 1012.33-12.34v-2z" transform="translate(-19.11 -7.87)"/><path class="cls-1" d="M206.66 2.71H106.31l-8.45 8.45-.05.04H70.78l-8.83 8.84-.05.05H23.64l-.31-.32h38.44l8.83-8.84.05-.04H97.68l8.45-8.46.05-.04h100.48v.32z"/><path class="cls-2" d="M63.85 103.86h1c-.83 1-1.67 2-2.49 3h-1l2.49-3zm-2.07 0h1l-2.49 3h-1zm4.15 0h1l-2.49 3h-1q1.23-1.49 2.49-3zm2.08 0h1l-2.49 3h-1l2.5-3zm2.07 0h1l-2.5 3h-1l2.49-3zm2.08 0h1l-2.49 3h-1l2.5-3zm2.07 0h1q-1.25 1.47-2.49 3h-1l2.49-3zm2.08 0h1l-2.49 3h-1c.82-1 1.66-2 2.49-3zm2.08 0h1c-.83 1-1.67 2-2.49 3h-1l2.5-3zm2.07 0h1l-2.5 3H78l2.49-3zm2.08 0h1l-2.49 3H80l2.5-3zm2.07 0h1l-2.5 3h-1l2.49-3zm2.08 0h1l-2.49 3h-1c.82-1 1.66-2 2.49-3zm2.08 0h1c-.83 1-1.67 2-2.49 3h-1l2.5-3zm2.07 0h1l-2.5 3h-1l2.49-3zm2.08 0h1l-2.49 3h-1l2.5-3zm2.07 0h1l-2.5 3h-1l2.49-3zm2.08 0h1l-2.49 3h-1q1.24-1.49 2.49-3zm2.07 0h1q-1.25 1.47-2.49 3h-1l2.49-3zm2.08 0h1l-2.5 3h-1l2.49-3zm2.08 0h1l-2.49 3h-1l2.5-3zm2.07 0h1l-2.5 3h-1l2.49-3zm2.08 0h1l-2.49 3h-1c.82-1 1.66-2 2.49-3zm2.07 0h1c-.83 1-1.67 2-2.49 3h-1l2.49-3zm2.08 0h1l-2.5 3h-1l2.49-3zm2.08 0h1l-2.49 3h-1l2.5-3zm2.07 0h1l-2.5 3h-1l2.49-3zm2.08 0h1l-2.49 3h-1q1.24-1.49 2.49-3zm2.07 0h1q-1.25 1.47-2.49 3h-1l2.49-3zm2.08 0h1l-2.5 3h-1l2.49-3zm2.08 0h1l-2.49 3h-1l2.5-3zm2.07 0h1l-2.5 3h-1l2.49-3zm2.08 0h1l-2.49 3h-1c.82-1 1.66-2 2.49-3zm2.07 0h1q-1.25 1.47-2.49 3h-1l2.49-3zm2.08 0h1l-2.5 3h-1q1.24-1.49 2.49-3zm2.08 0h1l-2.49 3h-1l2.5-3zm2.07 0h1l-2.5 3h-1l2.49-3zm2.08 0h1l-2.49 3h-1l2.5-3zm2.07 0h1c-.83 1-1.67 2-2.49 3h-1l2.49-3zm2.08 0h1l-2.5 3h-1c.82-1 1.66-2 2.49-3zm2.08 0h1l-2.49 3h-1l2.5-3zm2.07 0h1l-2.5 3h-1l2.49-3zm2.08 0h1l-2.49 3h-1l2.5-3zm2.07 0h1q-1.25 1.47-2.49 3h-1l2.49-3zm2.08 0h1l-2.5 3h-1c.82-1 1.66-2 2.49-3zm2.08 0h1l-2.49 3h-1l2.5-3zm2.07 0h1l-2.5 3h-1l2.49-3zm2.08 0h1l-2.49 3h-1l2.5-3zm2.07 0h1c-.83 1-1.67 2-2.49 3h-1l2.49-3zm2.08 0h1l-2.5 3h-1q1.24-1.49 2.49-3zm2.08 0h1l-2.49 3h-1l2.5-3zm2.07 0h1l-2.5 3h-1l2.49-3zm2.08 0h1l-2.49 3h-1l2.5-3zm2.07 0h1l-2.49 3h-1l2.49-3zm2.08 0h1l-2.5 3h-1q1.24-1.49 2.49-3zm2.08 0h1l-2.49 3h-1l2.5-3zm2.07 0h1l-2.5 3h-1l2.49-3zm2.08 0h1l-2.49 3h-1l2.5-3zm2.07 0h1l-2.49 3h-1l2.49-3zm2.08 0h1l-2.49 3h-1q1.24-1.49 2.49-3zm2.08 0h1l-2.49 3h-1l2.5-3zm2.07 0h1l-2.5 3h-1z" transform="translate(-19.11 -7.87)"/></svg>