<svg id="Layer_1" data-name="Layer 1" xmlns="http://www.w3.org/2000/svg" viewBox="0 0 224.18 138.66"><defs><style>.cls-1{fill:#0ff}</style></defs><path id="_复合路径_" data-name="&lt;复合路径&gt;" class="cls-1" d="M618.24 516.86h-181L437 422l32.5-27.48h180.6v95.15l-.17.14zm-180-1h179.65l31.25-26.63v-93.71H469.82l-31.89 27z" transform="translate(-429.04 -387.72)"/><path id="_路径_" data-name="&lt;路径&gt;" class="cls-1" d="M2.8 60.78h-.96V34.32l35.84-31h24.17v.96H38.04L2.8 34.76v26.02z"/><path id="_矩形_" data-name="&lt;矩形&gt;" class="cls-1" d="M2.32 36.62h1.44v2.96H2.32z"/><path id="_矩形_2" data-name="&lt;矩形&gt;" class="cls-1" d="M2.32 41.66h1.44v2.96H2.32z"/><path id="_矩形_3" data-name="&lt;矩形&gt;" class="cls-1" d="M2.32 46.7h1.44v2.96H2.32z"/><path id="_矩形_4" data-name="&lt;矩形&gt;" class="cls-1" d="M2.32 51.74h1.44v2.96H2.32z"/><path id="_矩形_5" data-name="&lt;矩形&gt;" class="cls-1" d="M2.32 56.79h1.44v2.96H2.32z"/><path id="_矩形_6" data-name="&lt;矩形&gt;" class="cls-1" d="M39.2 1.8h2.46v2H39.2z"/><path id="_矩形_7" data-name="&lt;矩形&gt;" class="cls-1" d="M43.88 1.8h2.46v2h-2.46z"/><path id="_矩形_8" data-name="&lt;矩形&gt;" class="cls-1" d="M48.56 1.8h2.46v2h-2.46z"/><path id="_矩形_9" data-name="&lt;矩形&gt;" class="cls-1" d="M53.25 1.8h2.46v2h-2.46z"/><path id="_矩形_10" data-name="&lt;矩形&gt;" class="cls-1" d="M57.93 1.8h2.46v2h-2.46z"/><path id="_矩形_11" data-name="&lt;矩形&gt;" class="cls-1" d="M221.23 22.69h2.96V88h-2.96z"/><path id="_路径_2" data-name="&lt;路径&gt;" class="cls-1" d="M73 7.32l5.3-5.3h78.53l5.33 5.34L73 7.32z"/><path id="_路径_3" data-name="&lt;路径&gt;" class="cls-1" d="M161.59 5.27L157.28.96H88.72V0h68.96l4.59 4.59-.68.68z"/><path id="_路径_4" data-name="&lt;路径&gt;" class="cls-1" d="M29.33 128.66l5.06 5.07h127.54l5.85-5.07H29.33z"/><path id="_路径_5" data-name="&lt;路径&gt;" class="cls-1" d="M34.98 134.9h120.7v.96H34.98z"/><path id="_矩形_12" data-name="&lt;矩形&gt;" class="cls-1" d="M127.26 135.38h28.41v3.28h-28.41z"/><path id="_矩形_13" data-name="&lt;矩形&gt;" class="cls-1" d="M174.52 127.62h8.14v.86h-8.14z"/><path id="_路径_6" data-name="&lt;路径&gt;" class="cls-1" d="M.96 128.01H0V77.15l7.74-7.74.68.68-7.46 7.46v50.46z"/><path id="_矩形_14" data-name="&lt;矩形&gt;" class="cls-1" d="M6.81 64.07h2.48v6.44H6.81z"/><path id="_矩形_15" data-name="&lt;矩形&gt;" class="cls-1" d="M170.96 3.41h.48v7.82h-.48z"/><path id="_矩形_16" data-name="&lt;矩形&gt;" class="cls-1" d="M174.53 3.41h.48v7.82h-.48z"/><path id="_矩形_17" data-name="&lt;矩形&gt;" class="cls-1" d="M178.1 3.41h.48v7.82h-.48z"/><path id="_矩形_18" data-name="&lt;矩形&gt;" class="cls-1" d="M181.68 3.41h.48v7.82h-.48z"/><path id="_矩形_19" data-name="&lt;矩形&gt;" class="cls-1" d="M185.25 3.41h.48v7.82h-.48z"/><path id="_矩形_20" data-name="&lt;矩形&gt;" class="cls-1" d="M188.82 3.41h.48v7.82h-.48z"/><path id="_矩形_21" data-name="&lt;矩形&gt;" class="cls-1" d="M192.39 3.41h.48v7.82h-.48z"/><path id="_矩形_22" data-name="&lt;矩形&gt;" class="cls-1" d="M195.96 3.41h.48v7.82h-.48z"/><path id="_矩形_23" data-name="&lt;矩形&gt;" class="cls-1" d="M199.53 3.41h.48v7.82h-.48z"/><path id="_矩形_24" data-name="&lt;矩形&gt;" class="cls-1" d="M203.11 3.41h.48v7.82h-.48z"/><path id="_矩形_25" data-name="&lt;矩形&gt;" class="cls-1" d="M206.68 3.41h.48v7.82h-.48z"/><path id="_矩形_26" data-name="&lt;矩形&gt;" class="cls-1" d="M210.25 3.41h.48v7.82h-.48z"/><path id="_矩形_27" data-name="&lt;矩形&gt;" class="cls-1" d="M213.82 3.41h.48v7.82h-.48z"/><path id="_矩形_28" data-name="&lt;矩形&gt;" class="cls-1" d="M217.39 3.41h.48v7.82h-.48z"/><path id="_矩形_29" data-name="&lt;矩形&gt;" class="cls-1" d="M33.3 127.14h9.12v3.2H33.3z"/><path id="_矩形_30" data-name="&lt;矩形&gt;" class="cls-1" d="M50.91 127.14h9.12v3.2h-9.12z"/><path id="_矩形_31" data-name="&lt;矩形&gt;" class="cls-1" d="M68.51 127.14h9.12v3.2h-9.12z"/><path id="_矩形_32" data-name="&lt;矩形&gt;" class="cls-1" d="M86.12 127.14h9.12v3.2h-9.12z"/><path id="_矩形_33" data-name="&lt;矩形&gt;" class="cls-1" d="M103.73 127.14h9.12v3.2h-9.12z"/><path id="_矩形_34" data-name="&lt;矩形&gt;" class="cls-1" d="M121.34 127.14h9.12v3.2h-9.12z"/><path id="_矩形_35" data-name="&lt;矩形&gt;" class="cls-1" d="M138.95 127.14h9.12v3.2h-9.12z"/><path id="_矩形_36" data-name="&lt;矩形&gt;" class="cls-1" d="M156.55 127.14h9.12v3.2h-9.12z"/><path id="_路径_7" data-name="&lt;路径&gt;" class="cls-1" d="M8.57 81.2l1.72 1.72v41.66L8.87 126l-.3-44.8z"/><path id="_路径_8" data-name="&lt;路径&gt;" class="cls-1" d="M12.41 106.41h-.96V83.24l-3.38-3.38.67-.68 3.67 3.66v23.57z"/></svg>