<svg xmlns="http://www.w3.org/2000/svg" viewBox="0 0 481.3 289.3"><defs><linearGradient id="linear-gradient" x1="430.41" y1="288.41" x2="486.48" y2="65.05" gradientUnits="userSpaceOnUse"><stop offset="0" stop-color="red"/><stop offset=".19" stop-color="#be0000"/><stop offset=".41" stop-color="#7b0000"/><stop offset=".61" stop-color="#460000"/><stop offset=".78" stop-color="#200000"/><stop offset=".91" stop-color="#090000"/><stop offset="1"/></linearGradient><linearGradient id="linear-gradient-2" x1="4.63" y1="162.86" x2="5.57" y2="274.3" gradientUnits="userSpaceOnUse"><stop offset="0" stop-color="red"/><stop offset=".07" stop-color="#db0000"/><stop offset=".2" stop-color="#a10000"/><stop offset=".33" stop-color="#700000"/><stop offset=".45" stop-color="#480000"/><stop offset=".58" stop-color="#280000"/><stop offset=".69" stop-color="#120000"/><stop offset=".81" stop-color="#050000"/><stop offset=".91"/></linearGradient><style>.cls-4{fill:#2981e2}</style></defs><g style="isolation:isolate"><g id="Layer_3" data-name="Layer 3"><path style="mix-blend-mode:screen" fill="url(#linear-gradient)" d="M470.8 144.79l-13.59-13.59V66.35l-4.85-4.85v64.85h-.01v8.07l13.77 13.76v112.4L446.4 280.3h-40.89l5.7 5.7h37.57l5.7-5.7 16.45-16.45.89-.89V145.81l-1.02-1.02z"/><path style="mix-blend-mode:screen" fill="url(#linear-gradient-2)" d="M9.65 176.36v73.23l-9.27-9.27v-73.23l9.27 9.27z"/></g><g id="Layer_7" data-name="Layer 7"><path class="cls-4" d="M149.12 63.23a2.81 2.81 0 00-2.78 2.44H93.62L63.79 95.5v120.67l13 13v76.63l33.12 33.12a2.82 2.82 0 10.53-.53l-32.9-32.9v-76.66l-13-13V95.81l29.39-29.39h52.41a2.81 2.81 0 102.78-3.19zM454.11 336.47a2.81 2.81 0 00-2.78 2.45h-27.87l-14-14-.11-.11h-109.2L286 339h-22.3a2.82 2.82 0 100 .75h22.56l14.19-14.19H409l14 14 .11.11h28.18a2.81 2.81 0 102.82-3.2zM313.5 62.95h56a2.82 2.82 0 100-.75h-56.31L295.1 80.29h-53.33l-9.45-9.45H207.5a2.82 2.82 0 100 .75H232l9.46 9.41h54zM542.65 221.53v-24.17L525 179.66v-67.83L469.82 56.7l-.11-.11h-30.88a2.82 2.82 0 100 .75h30.57l54.8 54.81V180l17.7 17.7v23.86a2.82 2.82 0 10.75-.03z" transform="translate(-63.79 -54.14)"/></g><path style="mix-blend-mode:overlay" opacity=".05" fill="#fff" d="M52.44 272.71L27.7 247.97v-80.66l-11.94-11.93V48.4l19.7-19.69h130.21l7.12 7.13h63.71l16.82-16.83h149.33l41.05 41.06v79.36l12.95 12.93v104.39l-15.51 15.5h-75.96l-13.42-13.41H231.39l-13.87 13.87H52.44z" id="Layer_4" data-name="Layer 4"/><g id="Layer_2" data-name="Layer 2"><path d="M283.38 331.85H114.17l-27.68-27.67v-80.65l-11.94-11.94V100.47l22.63-22.62h134.35l7.13 7.15h59.56L315 68.15h153.51l44 44v79.36l12.95 12.94V313L507 331.39h-80.1L413.49 318H297.25zm-168.39-2h167.57L296.42 316h117.89l13.41 13.41h78.45l17.27-17.26V205.26l-12.94-12.94V113l-42.81-42.85H315.87L299.05 87h-61.22l-7.13-7.13H98L76.55 101.3v109.46l11.94 11.94v80.65z" transform="translate(-63.79 -54.14)" fill="#0ff"/><path d="M281.47 327.22H116.08l-.11-.11-24.85-24.85v-80.65l-11.94-11.94V102.39L99.1 82.48h130.51l7.13 7.13h63.4L317 72.78h149.6l.11.11 41.16 41.16v79.36l12.95 12.94V311l-15.73 15.72h-76.28l-.11-.11-13.3-13.3H295.33zm-165.08-.75h164.77L295 312.61h120.71l.11.11 13.3 13.3h75.65l15.29-15.29V206.66l-12.95-12.94v-79.36l-40.82-40.83h-149l-16.84 16.83h-64l-7.13-7.13H99.41L79.93 102.7v106.66l11.94 11.94V302z" transform="translate(-63.79 -54.14)" style="mix-blend-mode:overlay" fill="#fff"/><path d="M281.47 327.22H116.08l-.11-.11-24.85-24.85v-80.65l-11.94-11.94V102.39L99.1 82.48h130.51l7.13 7.13h63.4L317 72.78h149.6l.11.11 41.16 41.16v79.36l12.95 12.94V311l-15.73 15.72h-76.28l-.11-.11-13.3-13.3H295.33zm-165.08-.75h164.77L295 312.61h120.71l.11.11 13.3 13.3h75.65l15.29-15.29V206.66l-12.95-12.94v-79.36l-40.82-40.83h-149l-16.84 16.83h-64l-7.13-7.13H99.41L79.93 102.7v106.66l11.94 11.94V302z" transform="translate(-63.79 -54.14)" style="mix-blend-mode:overlay" opacity=".46" fill="#fff"/></g></g></svg>