<svg id="Layer_2" data-name="Layer 2" xmlns="http://www.w3.org/2000/svg" viewBox="0 0 227.41 183.81"><defs><style>.cls-1{fill:#0ff}</style></defs><path class="cls-1" d="M296.23 121.31h-32.77l-10.76-10.77h-6l-3.52 3.52H202.6l-11.25 11.25v125.12l-5.19 5.19v19.16l15.89 15.89H210l4.16-4.16h32.81l.8-.8h5.75l3-3h6.69l1.66-1.66h20.55l7.45 7.45h2.81l5.89 5.89h45l7.55-7.55H357l4.63-4.63H383l2-2h16.74l1.84 1.84H410l3.24-3.24V250.1l-5.84-5.84v-90.19l6.16-6.16v-24l-13-13h-12.39l-3 3H352l-9.12 9.12h-45zm-69.46 163.44l-4.48-4.48h-12.05l-14.62-14.62-3.31-3.31v-44.09l3.83-3.83v-32.9l2.78-2.78v-50l6.25-6.25h13.76l3.73 3.73h15.48l6.22-6.22h9.6l3.94 3.94h68.41l3.05 3.05h15.04l10.25-10.25h4.8l1.93-1.93h32.39l12.69 12.69v113.64L404.6 243v18.34l1.86 1.86v7.66l-2.46 2.48-4.2 4.2h-6.24l-1.68 1.68h-31.49l-1 1H310l-5 5h-11.18l-6.72-6.72h-27.77l-6.24 6.24h-26.32z" transform="translate(-186.17 -110.54)"/><path class="cls-1" d="M405.61 127.81v113l-1.82 1.82v19l1.85 1.85v7l-6.15 6.15h-6.24l-1.68 1.68H360l-1 1h-49.4l-5 5h-10.44l-6.72-6.72H259l-6.24 6.24h-25.64l-4.48-4.48h-12.06L193.15 262v-43.4l3.8-3.79v-32.94l2.74-2.74v-50l5.72-5.72h13.07l3.69 3.69h16.17l6.22-6.22h8.9l3.9 3.91h68.41l3.23 3.01h15.74L355 117.55h4.8l1.93-1.93h31.7zm-.24 112.89V127.91l-12-12.06h-31.5l-1.93 1.93h-4.8L344.85 128H328.9l-3-3h-68.46l-3.9-3.91h-8.74l-6.22 6.22h-16.37l-3.69-3.69h-12.91l-5.61 5.53v50l-2.78 2.85v32.91l-3.8 3.79v43.2l17.29 17.29h12.05l4.48 4.48h25.42l6.24-6.24h28.66l6.72 6.72h10.28l5-5h49.4l1-1h31.44l1.68-1.68h6.24l6-6v-6.78l-1.85-1.85v-19.29z" transform="translate(-186.17 -110.54)"/></svg>