<svg id="Layer_5" data-name="Layer 5" xmlns="http://www.w3.org/2000/svg" viewBox="0 0 743.05 515.93"><defs><style>.cls-1{fill:#00558d;}.cls-1,.cls-3{opacity:0.3;}.cls-2,.cls-3{fill:#03a6ff;}</style></defs><title>border41</title><polygon class="cls-1" points="730.21 83.96 730.21 295.37 684.89 340.69 684.89 411.81 624.46 472.25 332.38 472.25 330.1 469.97 103.37 469.97 29.38 395.97 29.38 206.21 27.1 203.93 27.1 104.17 78.41 52.86 364.16 52.86 366.43 55.13 701.38 55.13 730.21 83.96"/><path class="cls-2" d="M2905.38,1438.07H2570.43l-50.57-50.58H2202.12v183.27l24.82,24.82v189.76l76.66,76.67h226.73l41.42,41.41h270.81l49-49V1730.06l45.31-45.31V1469.56Zm26.94,244.79L2887,1728.17v124.36l-46.33,46.33h-267l-41.42-41.41H2305.49l-74-74V1593.7l-24.82-24.82V1392H2518l50.57,50.58H2903.5l28.83,28.83v211.41Z" transform="translate(-2202.12 -1387.49)"/><polygon class="cls-3" points="364.16 52.86 78.41 52.86 27.1 104.17 27.1 203.93 4.55 181.39 4.55 4.55 315.86 4.55 364.16 52.86"/><polygon class="cls-3" points="367.38 52.86 364.16 52.86 315.86 4.55 4.55 4.55 4.55 181.39 27.1 203.93 27.1 207.15 2.28 182.32 2.28 2.27 316.8 2.27 367.38 52.86"/><polygon class="cls-3" points="684.89 411.81 684.89 465.05 638.56 511.38 371.52 511.38 332.38 472.25 624.46 472.25 684.89 411.81"/><polygon class="cls-2" points="0 194.39 0 223.01 18.13 241.14 18.13 211.99 0 194.05 0 194.39"/><polygon class="cls-2" points="0 234.77 0 263.39 18.13 281.51 18.13 252.36 0 234.42 0 234.77"/><polygon class="cls-2" points="0 275.14 0 303.76 18.13 321.89 18.13 292.74 0 274.8 0 275.14"/><polygon class="cls-2" points="0 315.52 0 344.14 18.13 362.26 18.13 333.11 0 315.17 0 315.52"/><polygon class="cls-2" points="340.65 0 378.37 37.72 412.38 37.72 374.73 0.07 340.65 0"/><polygon class="cls-2" points="391.69 0 429.4 37.72 463.41 37.72 425.76 0.07 391.69 0"/><polygon class="cls-2" points="442.72 0 480.43 37.72 514.44 37.72 476.79 0.07 442.72 0"/><polygon class="cls-2" points="493.75 0 531.47 37.72 565.48 37.72 527.83 0.07 493.75 0"/><polygon class="cls-2" points="544.79 0 582.5 37.72 616.51 37.72 578.86 0.07 544.79 0"/><polygon class="cls-3" points="597.08 0 634.8 37.72 693.35 37.72 676.32 20.68 696.99 0 597.08 0"/><polygon class="cls-2" points="734.76 66.29 689.14 20.68 709.41 0 734.76 0 734.76 66.29"/><polygon class="cls-2" points="689.44 515.93 689.44 480.59 654.1 515.93 689.44 515.93"/><polygon class="cls-2" points="684.89 411.81 684.89 465.05 638.56 511.38 371.52 511.38 332.38 472.25 329.16 472.25 370.57 513.66 639.5 513.66 687.17 465.99 686.72 409.98 684.89 411.81"/><polygon class="cls-2" points="29.38 194.05 9.37 174.04 9.37 29.63 37.09 1.91 4.55 4.55 4.55 181.39 29.38 206.21 29.38 194.05"/><polygon class="cls-2" points="99.21 472.25 24.83 397.85 24.83 420.63 99.83 495.64 349.34 495.64 328.22 474.52 99.21 472.25"/><polygon class="cls-2" points="734.76 82.08 734.76 297.26 689.44 342.57 686.58 364.58 743.05 308.11 743.05 90.37 734.76 82.08"/></svg>