<svg xmlns="http://www.w3.org/2000/svg" viewBox="0 0 580.97 358.74"><defs><style>.cls-1{isolation:isolate;}.cls-2,.cls-4{mix-blend-mode:screen;}.cls-3,.cls-4{fill:#03a6ff;}</style></defs><title>border22</title><g class="cls-1"><g id="Layer_3" data-name="Layer 3"><g class="cls-2"><path class="cls-3" d="M1701.19,1858.21h4.38v-3.83h-7.25v3.83h-6.1v-3.83H1685v3.83h-6.1v-3.83h-7.25v3.83h-36.3c-10.75-11-70.51-74.61-67.23-172.6,2.94-88,54.67-143.91,67.23-156.8h6.37v7.85h2.71v-7.85h8.82v7.85h2.71v-7.85h8.82v7.85h2.71v-7.85h6.61v2.94h39.51v-2.94h-12.39v-2h-69.63c-19.39,20.09-64.77,75.78-67.54,158.69-3.13,93.81,50.91,157.48,67.54,174.77h10.29v3.8h23v-3.8h36.36v-2Z" transform="translate(-1563.89 -1514.89)"/><rect class="cls-3" x="74.91" y="6.7" width="3.31" height="3.31"/><rect class="cls-3" x="84.58" y="6.7" width="3.31" height="3.31"/><rect class="cls-3" x="94.24" y="6.7" width="3.31" height="3.31"/><rect class="cls-3" x="103.91" y="6.7" width="3.31" height="3.31"/><rect class="cls-3" x="111.79" width="58.64" height="0.93"/><rect class="cls-3" x="127.74" y="5.85" width="58.64" height="0.93"/><rect class="cls-3" x="112.36" y="353.49" width="58.64" height="0.93"/><path class="cls-3" d="M1624.19,1836.66l1.62-1.24-1.23-1.61L1623,1835Z" transform="translate(-1563.89 -1514.89)"/><path class="cls-3" d="M1620.53,1831.75l1.64-1.2-1.19-1.64-1.65,1.18Z" transform="translate(-1563.89 -1514.89)"/><path class="cls-3" d="M1617,1826.75l1.67-1.16-1.14-1.67-1.68,1.14Z" transform="translate(-1563.89 -1514.89)"/><path class="cls-3" d="M1613.56,1821.66l1.7-1.11-1.1-1.7-1.71,1.1Z" transform="translate(-1563.89 -1514.89)"/><path class="cls-3" d="M1610.26,1816.5l1.73-1.07-1.06-1.72-1.74,1.06Z" transform="translate(-1563.89 -1514.89)"/><path class="cls-3" d="M1607.09,1811.25l1.75-1-1-1.75-1.76,1Z" transform="translate(-1563.89 -1514.89)"/><path class="cls-3" d="M1604.06,1805.92l1.78-1-1-1.78-1.79,1Z" transform="translate(-1563.89 -1514.89)"/><path class="cls-3" d="M1601.15,1800.53l1.8-.94-0.93-1.8-1.81.93Z" transform="translate(-1563.89 -1514.89)"/><path class="cls-3" d="M1600.21,1794.16l-0.88-1.82-1.83.88,0.89,1.84Z" transform="translate(-1563.89 -1514.89)"/><path class="cls-3" d="M1597.6,1788.67l-0.84-1.85-1.86.83,0.85,1.86Z" transform="translate(-1563.89 -1514.89)"/><path class="cls-3" d="M1595.14,1783.12l-0.79-1.87-1.88.78,0.8,1.88Z" transform="translate(-1563.89 -1514.89)"/><path class="cls-3" d="M1592.81,1777.5l-0.74-1.88-1.9.74,0.75,1.9Z" transform="translate(-1563.89 -1514.89)"/><path class="cls-3" d="M1590.63,1771.83l-0.69-1.9-1.91.69,0.7,1.92Z" transform="translate(-1563.89 -1514.89)"/><path class="cls-3" d="M1588.61,1766.1l-0.64-1.92-1.93.64,0.65,1.94Z" transform="translate(-1563.89 -1514.89)"/><path class="cls-3" d="M1586.73,1760.33q-0.3-1-.59-1.94l-1.95.59q0.29,1,.6,2Z" transform="translate(-1563.89 -1514.89)"/><path class="cls-3" d="M1585,1754.5q-0.27-1-.54-2l-2,.53q0.27,1,.54,2Z" transform="translate(-1563.89 -1514.89)"/><path class="cls-3" d="M1583.44,1748.63q-0.25-1-.49-2l-2,.48q0.24,1,.49,2Z" transform="translate(-1563.89 -1514.89)"/><path class="cls-3" d="M1582,1742.72q-0.22-1-.43-2l-2,.43q0.21,1,.44,2Z" transform="translate(-1563.89 -1514.89)"/><path class="cls-3" d="M1580.78,1736.78q-0.19-1-.38-2l-2,.37q0.19,1,.38,2Z" transform="translate(-1563.89 -1514.89)"/><path class="cls-3" d="M1579.7,1730.8q-0.17-1-.33-2l-2,.32q0.16,1,.33,2Z" transform="translate(-1563.89 -1514.89)"/><path class="cls-3" d="M1578.77,1724.8q-0.14-1-.27-2l-2,.26q0.13,1,.27,2Z" transform="translate(-1563.89 -1514.89)"/><path class="cls-3" d="M1578,1718.77q-0.11-1-.22-2l-2,.21q0.11,1,.22,2Z" transform="translate(-1563.89 -1514.89)"/><path class="cls-3" d="M1577.41,1712.73q-0.09-1-.16-2l-2,.15q0.08,1,.16,2Z" transform="translate(-1563.89 -1514.89)"/><path class="cls-3" d="M1577,1706.67q-0.06-1-.11-2l-2,.1q0.05,1,.11,2Z" transform="translate(-1563.89 -1514.89)"/><path class="cls-3" d="M1574.62,1698.62q0,1,.05,2l2-.06q0-1-.05-2Z" transform="translate(-1563.89 -1514.89)"/><path class="cls-3" d="M1574.62,1688.41l2,0q0-1,.05-2l-2-.06Q1574.64,1687.38,1574.62,1688.41Z" transform="translate(-1563.89 -1514.89)"/><path class="cls-3" d="M1574.83,1682.28l2,0.1q0-1,.11-2l-2-.12Q1574.88,1681.26,1574.83,1682.28Z" transform="translate(-1563.89 -1514.89)"/><path class="cls-3" d="M1575.21,1676.17l2,0.15q0.08-1,.16-2l-2-.17Q1575.29,1675.14,1575.21,1676.17Z" transform="translate(-1563.89 -1514.89)"/><path class="cls-3" d="M1575.76,1670.06l2,0.21q0.1-1,.22-2l-2-.23Q1575.86,1669,1575.76,1670.06Z" transform="translate(-1563.89 -1514.89)"/><path class="cls-3" d="M1576.47,1664l2,0.26q0.13-1,.27-2l-2-.28Q1576.6,1663,1576.47,1664Z" transform="translate(-1563.89 -1514.89)"/><path class="cls-3" d="M1577.34,1657.91l2,0.32q0.16-1,.32-2l-2-.33Q1577.5,1656.9,1577.34,1657.91Z" transform="translate(-1563.89 -1514.89)"/><path class="cls-3" d="M1578.37,1651.87l2,0.37q0.18-1,.38-2l-2-.39Q1578.56,1650.86,1578.37,1651.87Z" transform="translate(-1563.89 -1514.89)"/><path class="cls-3" d="M1579.57,1645.86l2,0.43q0.21-1,.43-2l-2-.44Q1579.79,1644.85,1579.57,1645.86Z" transform="translate(-1563.89 -1514.89)"/><path class="cls-3" d="M1580.93,1639.88l2,0.48q0.24-1,.48-2l-2-.5Q1581.18,1638.88,1580.93,1639.88Z" transform="translate(-1563.89 -1514.89)"/><path class="cls-3" d="M1582.46,1633.94l2,0.53,0.54-2-2-.55Q1582.72,1633,1582.46,1633.94Z" transform="translate(-1563.89 -1514.89)"/><path class="cls-3" d="M1584.14,1628l1.95,0.58q0.29-1,.59-1.94l-1.94-.6Z" transform="translate(-1563.89 -1514.89)"/><path class="cls-3" d="M1586,1622.2l1.93,0.64,0.64-1.92-1.93-.65Z" transform="translate(-1563.89 -1514.89)"/><path class="cls-3" d="M1588,1616.4l1.92,0.69,0.69-1.9-1.91-.7Z" transform="translate(-1563.89 -1514.89)"/><path class="cls-3" d="M1590.11,1610.66l1.9,0.74,0.74-1.89-1.89-.75Z" transform="translate(-1563.89 -1514.89)"/><path class="cls-3" d="M1592.4,1605l1.88,0.79,0.79-1.87-1.87-.8Z" transform="translate(-1563.89 -1514.89)"/><path class="cls-3" d="M1594.84,1599.35l1.86,0.83,0.84-1.85-1.85-.85Z" transform="translate(-1563.89 -1514.89)"/><path class="cls-3" d="M1600.13,1592.85l-1.83-.9-0.89,1.84,1.83,0.88Z" transform="translate(-1563.89 -1514.89)"/><path class="cls-3" d="M1601.08,1586.49l-0.94,1.81,1.81,0.93,0.93-1.8Z" transform="translate(-1563.89 -1514.89)"/><path class="cls-3" d="M1604,1581.09l-1,1.79,1.79,1,1-1.78Z" transform="translate(-1563.89 -1514.89)"/><path class="cls-3" d="M1607,1575.77l-1,1.77,1.76,1,1-1.75Z" transform="translate(-1563.89 -1514.89)"/><path class="cls-3" d="M1610.19,1570.52l-1.07,1.74,1.74,1.06,1.06-1.73Z" transform="translate(-1563.89 -1514.89)"/><path class="cls-3" d="M1613.49,1565.36l-1.11,1.71,1.71,1.1,1.11-1.7Z" transform="translate(-1563.89 -1514.89)"/><path class="cls-3" d="M1616.92,1560.28l-1.16,1.68,1.68,1.14,1.15-1.67Z" transform="translate(-1563.89 -1514.89)"/><path class="cls-3" d="M1620.47,1555.28l-1.2,1.66,1.65,1.19,1.19-1.64Z" transform="translate(-1563.89 -1514.89)"/><path class="cls-3" d="M1625.76,1551.61l-1.61-1.24-1.24,1.63,1.62,1.23Z" transform="translate(-1563.89 -1514.89)"/><path class="cls-4" d="M1570.61,1692.49v2" transform="translate(-1563.89 -1514.89)"/></g><g class="cls-2"><path class="cls-3" d="M2007.55,1858.21h-4.38v-3.83h7.25v3.83h6.1v-3.83h7.25v3.83h6.1v-3.83h7.25v3.83h36.3c10.75-11,70.51-74.61,67.23-172.6-2.94-88-54.67-143.91-67.23-156.8h-6.37v7.85h-2.71v-7.85h-8.82v7.85h-2.71v-7.85H2044v7.85h-2.71v-7.85h-6.61v2.94h-39.51v-2.94h12.39v-2h69.63c19.39,20.09,64.77,75.78,67.54,158.69,3.13,93.81-50.91,157.48-67.54,174.77h-10.29v3.8h-23v-3.8h-36.36v-2Z" transform="translate(-1563.89 -1514.89)"/><rect class="cls-3" x="502.75" y="6.7" width="3.31" height="3.31"/><rect class="cls-3" x="493.08" y="6.7" width="3.31" height="3.31"/><rect class="cls-3" x="483.42" y="6.7" width="3.31" height="3.31"/><rect class="cls-3" x="473.75" y="6.7" width="3.31" height="3.31"/><rect class="cls-3" x="410.54" width="58.64" height="0.93"/><rect class="cls-3" x="394.59" y="5.85" width="58.64" height="0.93"/><rect class="cls-3" x="409.97" y="353.49" width="58.64" height="0.93"/><path class="cls-3" d="M2084.54,1836.66l-1.62-1.24,1.23-1.61,1.63,1.22Z" transform="translate(-1563.89 -1514.89)"/><path class="cls-3" d="M2088.21,1831.75l-1.64-1.2,1.19-1.64,1.65,1.18Z" transform="translate(-1563.89 -1514.89)"/><path class="cls-3" d="M2091.76,1826.75l-1.67-1.16,1.14-1.67,1.68,1.14Z" transform="translate(-1563.89 -1514.89)"/><path class="cls-3" d="M2095.18,1821.66l-1.7-1.11,1.1-1.7,1.71,1.1Z" transform="translate(-1563.89 -1514.89)"/><path class="cls-3" d="M2098.48,1816.5l-1.73-1.07,1.06-1.72,1.74,1.06Z" transform="translate(-1563.89 -1514.89)"/><path class="cls-3" d="M2101.64,1811.25l-1.75-1,1-1.75,1.76,1Z" transform="translate(-1563.89 -1514.89)"/><path class="cls-3" d="M2104.68,1805.92l-1.78-1,1-1.78,1.79,1Z" transform="translate(-1563.89 -1514.89)"/><path class="cls-3" d="M2107.58,1800.53l-1.8-.94,0.93-1.8,1.81,0.93Z" transform="translate(-1563.89 -1514.89)"/><path class="cls-3" d="M2108.53,1794.16l0.88-1.82,1.83,0.88-0.89,1.84Z" transform="translate(-1563.89 -1514.89)"/><path class="cls-3" d="M2111.14,1788.67l0.84-1.85,1.86,0.83-0.84,1.86Z" transform="translate(-1563.89 -1514.89)"/><path class="cls-3" d="M2113.6,1783.12l0.79-1.87,1.88,0.78-0.8,1.88Z" transform="translate(-1563.89 -1514.89)"/><path class="cls-3" d="M2115.93,1777.5l0.74-1.88,1.9,0.74-0.75,1.9Z" transform="translate(-1563.89 -1514.89)"/><path class="cls-3" d="M2118.1,1771.83l0.69-1.9,1.91,0.69-0.7,1.92Z" transform="translate(-1563.89 -1514.89)"/><path class="cls-3" d="M2120.13,1766.1l0.64-1.92,1.93,0.64-0.65,1.94Z" transform="translate(-1563.89 -1514.89)"/><path class="cls-3" d="M2122,1760.33q0.3-1,.59-1.94l1.95,0.59q-0.29,1-.6,2Z" transform="translate(-1563.89 -1514.89)"/><path class="cls-3" d="M2123.73,1754.5q0.27-1,.54-2l2,0.53q-0.27,1-.54,2Z" transform="translate(-1563.89 -1514.89)"/><path class="cls-3" d="M2125.3,1748.63q0.25-1,.49-2l2,0.48q-0.24,1-.49,2Z" transform="translate(-1563.89 -1514.89)"/><path class="cls-3" d="M2126.71,1742.72q0.22-1,.43-2l2,0.43q-0.21,1-.44,2Z" transform="translate(-1563.89 -1514.89)"/><path class="cls-3" d="M2128,1736.78q0.19-1,.38-2l2,0.37q-0.19,1-.38,2Z" transform="translate(-1563.89 -1514.89)"/><path class="cls-3" d="M2129,1730.8q0.17-1,.33-2l2,0.32q-0.16,1-.33,2Z" transform="translate(-1563.89 -1514.89)"/><path class="cls-3" d="M2130,1724.8q0.14-1,.27-2l2,0.26q-0.13,1-.27,2Z" transform="translate(-1563.89 -1514.89)"/><path class="cls-3" d="M2130.73,1718.77q0.11-1,.22-2l2,0.21q-0.1,1-.22,2Z" transform="translate(-1563.89 -1514.89)"/><path class="cls-3" d="M2131.33,1712.73q0.09-1,.16-2l2,0.15q-0.08,1-.16,2Z" transform="translate(-1563.89 -1514.89)"/><path class="cls-3" d="M2131.76,1706.67q0.06-1,.11-2l2,0.1q-0.05,1-.11,2Z" transform="translate(-1563.89 -1514.89)"/><path class="cls-3" d="M2134.12,1698.62q0,1-.05,2l-2-.06q0-1,.05-2Z" transform="translate(-1563.89 -1514.89)"/><path class="cls-3" d="M2134.12,1688.41l-2,0q0-1-.05-2l2-.06Q2134.1,1687.38,2134.12,1688.41Z" transform="translate(-1563.89 -1514.89)"/><path class="cls-3" d="M2133.9,1682.28l-2,.1q0-1-.11-2l2-.12Q2133.85,1681.26,2133.9,1682.28Z" transform="translate(-1563.89 -1514.89)"/><path class="cls-3" d="M2133.52,1676.17l-2,.15q-0.08-1-.16-2l2-.17Q2133.45,1675.14,2133.52,1676.17Z" transform="translate(-1563.89 -1514.89)"/><path class="cls-3" d="M2133,1670.06l-2,.21q-0.1-1-.22-2l2-.23Q2132.88,1669,2133,1670.06Z" transform="translate(-1563.89 -1514.89)"/><path class="cls-3" d="M2132.27,1664l-2,.26q-0.13-1-.27-2l2-.28Q2132.14,1663,2132.27,1664Z" transform="translate(-1563.89 -1514.89)"/><path class="cls-3" d="M2131.4,1657.91l-2,.32q-0.16-1-.32-2l2-.33Q2131.24,1656.9,2131.4,1657.91Z" transform="translate(-1563.89 -1514.89)"/><path class="cls-3" d="M2130.36,1651.87l-2,.37q-0.18-1-.38-2l2-.39Q2130.18,1650.86,2130.36,1651.87Z" transform="translate(-1563.89 -1514.89)"/><path class="cls-3" d="M2129.16,1645.86l-2,.43q-0.21-1-.43-2l2-.44Q2128.95,1644.85,2129.16,1645.86Z" transform="translate(-1563.89 -1514.89)"/><path class="cls-3" d="M2127.8,1639.88l-2,.48q-0.24-1-.48-2l2-.5Q2127.56,1638.88,2127.8,1639.88Z" transform="translate(-1563.89 -1514.89)"/><path class="cls-3" d="M2126.28,1633.94l-2,.53-0.54-2,2-.55Q2126,1633,2126.28,1633.94Z" transform="translate(-1563.89 -1514.89)"/><path class="cls-3" d="M2124.6,1628l-1.95.58q-0.29-1-.59-1.94l1.94-.6Z" transform="translate(-1563.89 -1514.89)"/><path class="cls-3" d="M2122.77,1622.2l-1.93.64-0.64-1.92,1.93-.65Z" transform="translate(-1563.89 -1514.89)"/><path class="cls-3" d="M2120.77,1616.4l-1.92.69-0.69-1.9,1.91-.7Z" transform="translate(-1563.89 -1514.89)"/><path class="cls-3" d="M2118.63,1610.66l-1.9.74-0.74-1.89,1.89-.75Z" transform="translate(-1563.89 -1514.89)"/><path class="cls-3" d="M2116.34,1605l-1.88.79-0.79-1.87,1.87-.8Z" transform="translate(-1563.89 -1514.89)"/><path class="cls-3" d="M2113.9,1599.35l-1.86.83-0.84-1.85,1.85-.85Z" transform="translate(-1563.89 -1514.89)"/><path class="cls-3" d="M2108.6,1592.85l1.83-.9,0.89,1.84-1.83.88Z" transform="translate(-1563.89 -1514.89)"/><path class="cls-3" d="M2107.66,1586.49l0.94,1.81-1.81.93-0.93-1.8Z" transform="translate(-1563.89 -1514.89)"/><path class="cls-3" d="M2104.76,1581.09l1,1.79-1.79,1-1-1.78Z" transform="translate(-1563.89 -1514.89)"/><path class="cls-3" d="M2101.72,1575.77l1,1.77-1.76,1-1-1.75Z" transform="translate(-1563.89 -1514.89)"/><path class="cls-3" d="M2098.55,1570.52l1.07,1.74-1.74,1.06-1.06-1.73Z" transform="translate(-1563.89 -1514.89)"/><path class="cls-3" d="M2095.25,1565.36l1.11,1.71-1.71,1.1-1.11-1.7Z" transform="translate(-1563.89 -1514.89)"/><path class="cls-3" d="M2091.82,1560.28L2093,1562l-1.68,1.14-1.15-1.67Z" transform="translate(-1563.89 -1514.89)"/><path class="cls-3" d="M2088.27,1555.28l1.2,1.66-1.65,1.19-1.19-1.64Z" transform="translate(-1563.89 -1514.89)"/><path class="cls-3" d="M2083,1551.61l1.61-1.24,1.24,1.63-1.62,1.23Z" transform="translate(-1563.89 -1514.89)"/><path class="cls-4" d="M2138.13,1694.54v-2" transform="translate(-1563.89 -1514.89)"/></g><rect class="cls-3" x="190.97" y="353.57" width="198.96" height="0.76"/><rect class="cls-3" x="190.47" y="349.16" width="1.02" height="9.58"/><rect class="cls-3" x="289.94" y="349.16" width="1.02" height="9.58"/><rect class="cls-3" x="244.73" y="351.71" width="1.02" height="4.49"/><rect class="cls-3" x="249.81" y="351.71" width="1.02" height="4.49"/><rect class="cls-3" x="254.9" y="351.71" width="1.02" height="4.49"/><rect class="cls-3" x="259.99" y="351.71" width="1.02" height="4.49"/><rect class="cls-3" x="265.07" y="351.71" width="1.02" height="4.49"/><rect class="cls-3" x="270.16" y="351.71" width="1.02" height="4.49"/><rect class="cls-3" x="275.25" y="351.71" width="1.02" height="4.49"/><rect class="cls-3" x="280.33" y="351.71" width="1.02" height="4.49"/><rect class="cls-3" x="285.42" y="351.71" width="1.02" height="4.49"/><rect class="cls-3" x="294.47" y="351.71" width="1.02" height="4.49"/><rect class="cls-3" x="299.55" y="351.71" width="1.02" height="4.49"/><rect class="cls-3" x="304.64" y="351.71" width="1.02" height="4.49"/><rect class="cls-3" x="309.73" y="351.71" width="1.02" height="4.49"/><rect class="cls-3" x="314.81" y="351.71" width="1.02" height="4.49"/><rect class="cls-3" x="319.9" y="351.71" width="1.02" height="4.49"/><rect class="cls-3" x="324.99" y="351.71" width="1.02" height="4.49"/><rect class="cls-3" x="330.07" y="351.71" width="1.02" height="4.49"/><rect class="cls-3" x="335.16" y="351.71" width="1.02" height="4.49"/><rect class="cls-3" x="344.21" y="351.71" width="1.02" height="4.49"/><rect class="cls-3" x="349.29" y="351.71" width="1.02" height="4.49"/><rect class="cls-3" x="354.38" y="351.71" width="1.02" height="4.49"/><rect class="cls-3" x="359.47" y="351.71" width="1.02" height="4.49"/><rect class="cls-3" x="364.55" y="351.71" width="1.02" height="4.49"/><rect class="cls-3" x="369.64" y="351.71" width="1.02" height="4.49"/><rect class="cls-3" x="374.73" y="351.71" width="1.02" height="4.49"/><rect class="cls-3" x="379.81" y="351.71" width="1.02" height="4.49"/><rect class="cls-3" x="384.9" y="351.71" width="1.02" height="4.49"/><rect class="cls-3" x="194.99" y="351.71" width="1.02" height="4.49"/><rect class="cls-3" x="200.07" y="351.71" width="1.02" height="4.49"/><rect class="cls-3" x="205.16" y="351.71" width="1.02" height="4.49"/><rect class="cls-3" x="210.25" y="351.71" width="1.02" height="4.49"/><rect class="cls-3" x="215.33" y="351.71" width="1.02" height="4.49"/><rect class="cls-3" x="220.42" y="351.71" width="1.02" height="4.49"/><rect class="cls-3" x="225.51" y="351.71" width="1.02" height="4.49"/><rect class="cls-3" x="230.59" y="351.71" width="1.02" height="4.49"/><rect class="cls-3" x="235.68" y="351.71" width="1.02" height="4.49"/><rect class="cls-3" x="240.2" y="349.16" width="1.02" height="9.58"/><rect class="cls-3" x="339.68" y="349.16" width="1.02" height="9.58"/><rect class="cls-3" x="389.42" y="349.16" width="1.02" height="9.58"/><rect class="cls-3" x="288.33" y="345.03" width="4.24" height="2.23"/><rect class="cls-3" x="338.07" y="345.03" width="4.24" height="2.23"/><rect class="cls-3" x="387.81" y="345.03" width="4.24" height="2.23"/><rect class="cls-3" x="238.59" y="345.03" width="4.24" height="2.23"/><rect class="cls-3" x="188.85" y="345.03" width="4.24" height="2.23"/><rect class="cls-3" x="190.97" y="19.57" width="198.96" height="0.76"/><rect class="cls-3" x="190.47" y="15.16" width="1.02" height="9.58"/><rect class="cls-3" x="289.94" y="15.16" width="1.02" height="9.58"/><rect class="cls-3" x="244.73" y="17.71" width="1.02" height="4.49"/><rect class="cls-3" x="249.81" y="17.71" width="1.02" height="4.49"/><rect class="cls-3" x="254.9" y="17.71" width="1.02" height="4.49"/><rect class="cls-3" x="259.99" y="17.71" width="1.02" height="4.49"/><rect class="cls-3" x="265.07" y="17.71" width="1.02" height="4.49"/><rect class="cls-3" x="270.16" y="17.71" width="1.02" height="4.49"/><rect class="cls-3" x="275.25" y="17.71" width="1.02" height="4.49"/><rect class="cls-3" x="280.33" y="17.71" width="1.02" height="4.49"/><rect class="cls-3" x="285.42" y="17.71" width="1.02" height="4.49"/><rect class="cls-3" x="294.47" y="17.71" width="1.02" height="4.49"/><rect class="cls-3" x="299.55" y="17.71" width="1.02" height="4.49"/><rect class="cls-3" x="304.64" y="17.71" width="1.02" height="4.49"/><rect class="cls-3" x="309.73" y="17.71" width="1.02" height="4.49"/><rect class="cls-3" x="314.81" y="17.71" width="1.02" height="4.49"/><rect class="cls-3" x="319.9" y="17.71" width="1.02" height="4.49"/><rect class="cls-3" x="324.99" y="17.71" width="1.02" height="4.49"/><rect class="cls-3" x="330.07" y="17.71" width="1.02" height="4.49"/><rect class="cls-3" x="335.16" y="17.71" width="1.02" height="4.49"/><rect class="cls-3" x="344.21" y="17.71" width="1.02" height="4.49"/><rect class="cls-3" x="349.29" y="17.71" width="1.02" height="4.49"/><rect class="cls-3" x="354.38" y="17.71" width="1.02" height="4.49"/><rect class="cls-3" x="359.47" y="17.71" width="1.02" height="4.49"/><rect class="cls-3" x="364.55" y="17.71" width="1.02" height="4.49"/><rect class="cls-3" x="369.64" y="17.71" width="1.02" height="4.49"/><rect class="cls-3" x="374.73" y="17.71" width="1.02" height="4.49"/><rect class="cls-3" x="379.81" y="17.71" width="1.02" height="4.49"/><rect class="cls-3" x="384.9" y="17.71" width="1.02" height="4.49"/><rect class="cls-3" x="194.99" y="17.71" width="1.02" height="4.49"/><rect class="cls-3" x="200.07" y="17.71" width="1.02" height="4.49"/><rect class="cls-3" x="205.16" y="17.71" width="1.02" height="4.49"/><rect class="cls-3" x="210.25" y="17.71" width="1.02" height="4.49"/><rect class="cls-3" x="215.33" y="17.71" width="1.02" height="4.49"/><rect class="cls-3" x="220.42" y="17.71" width="1.02" height="4.49"/><rect class="cls-3" x="225.51" y="17.71" width="1.02" height="4.49"/><rect class="cls-3" x="230.59" y="17.71" width="1.02" height="4.49"/><rect class="cls-3" x="235.68" y="17.71" width="1.02" height="4.49"/><rect class="cls-3" x="240.2" y="15.16" width="1.02" height="9.58"/><rect class="cls-3" x="339.68" y="15.16" width="1.02" height="9.58"/><rect class="cls-3" x="389.42" y="15.16" width="1.02" height="9.58"/><rect class="cls-3" x="288.33" y="26.65" width="4.24" height="2.23"/><rect class="cls-3" x="338.07" y="26.65" width="4.24" height="2.23"/><rect class="cls-3" x="387.81" y="26.65" width="4.24" height="2.23"/><rect class="cls-3" x="238.59" y="26.65" width="4.24" height="2.23"/><rect class="cls-3" x="188.85" y="26.65" width="4.24" height="2.23"/></g></g></svg>