<svg id="Layer_2" data-name="Layer 2" xmlns="http://www.w3.org/2000/svg" viewBox="0 0 200 100.96"><defs><style>.cls-1{opacity:0.5;}.cls-2{fill:#3fa9f5;}</style></defs><title>border62</title><g class="cls-1"><path class="cls-2" d="M428,574v98H230V574H428Zm1-1H229V673H429V573h0Z" transform="translate(-229 -572.04)"/></g><polygon class="cls-2" points="184 3.96 197 3.96 197 16.96 196.9 16.96 199.9 19.96 200 19.96 200 0.96 181 0.96 181 0 184 3 184 3.96"/><polygon class="cls-2" points="18.9 100.96 15.9 97.96 3 97.96 3 84 0 81 0 100.96 18.9 100.96"/><polygon class="cls-2" points="184 97.96 197 97.96 197 84.96 196.9 84.96 199.9 81.96 200 81.96 200 100.96 181 100.96 181 99.92 184 96.92 184 97.96"/><polygon class="cls-2" points="18.9 0.96 15.9 3.96 3 3.96 3 15.92 0 18.92 0 0.96 18.9 0.96"/></svg>