<svg id="Layer_1" data-name="Layer 1" xmlns="http://www.w3.org/2000/svg" viewBox="0 0 492.72 281.93"><defs><style>.cls-2{fill:#29abe2}</style></defs><path d="M242.29 335.72H87a8.8 8.8 0 01-6.27-2.6L65.6 318a8.81 8.81 0 01-2.6-6.27v-84a8.81 8.81 0 012.6-6.27l10.3-10.3a6.81 6.81 0 002-4.84V95.18A8.82 8.82 0 0180.4 89l19.36-20a8.91 8.91 0 016.37-2.7h40.59a8.8 8.8 0 016.27 2.6l13.93 13.93a6.81 6.81 0 004.85 2h73.8a6.81 6.81 0 004.84-2l8.6-8.6a8.8 8.8 0 016.27-2.6h69a8.8 8.8 0 016.27 2.6l6.21 6.21a6.81 6.81 0 004.85 2h49a6.9 6.9 0 004.84-2l9.65-9.65a8.8 8.8 0 016.27-2.6h87.07a8.8 8.8 0 016.27 2.6L534.4 90.5a8.8 8.8 0 012.6 6.27v83a8.8 8.8 0 01-2.6 6.27l-9.25 9.24a6.81 6.81 0 00-2 4.85V246a6.9 6.9 0 002 4.85l9.25 9.25a8.81 8.81 0 012.6 6.27V310a8.81 8.81 0 01-2.6 6.27l-16 16a8.8 8.8 0 01-6.27 2.6H386.87a8.8 8.8 0 01-6.27-2.6l-16.92-16.93a6.81 6.81 0 00-4.85-2h-87.66a6.81 6.81 0 00-4.84 2l-17.77 17.77a8.81 8.81 0 01-6.27 2.61zM106.14 68.29a6.89 6.89 0 00-4.93 2.09l-19.37 20a6.82 6.82 0 00-1.93 4.76v111.2a8.8 8.8 0 01-2.6 6.27L67 223a6.81 6.81 0 00-2 4.85v84a6.81 6.81 0 002 4.85l15.1 15.1a6.81 6.81 0 004.85 2h155.34a6.81 6.81 0 004.85-2l17.77-17.77a8.81 8.81 0 016.27-2.59h87.66a8.81 8.81 0 016.27 2.59L382 330.86a6.81 6.81 0 004.85 2h125.3a6.9 6.9 0 004.84-2l16-16a6.9 6.9 0 002-4.85v-43.65a6.81 6.81 0 00-2-4.85l-9.25-9.25a8.81 8.81 0 01-2.6-6.27v-45.91a8.81 8.81 0 012.6-6.27l9.25-9.24a6.81 6.81 0 002-4.85v-83a6.81 6.81 0 00-2-4.84L513.25 72.2a6.9 6.9 0 00-4.84-2h-87.07a6.81 6.81 0 00-4.85 2l-9.65 9.65a8.8 8.8 0 01-6.27 2.6h-49a8.8 8.8 0 01-6.27-2.6l-6.21-6.21a6.81 6.81 0 00-4.84-2h-69a6.81 6.81 0 00-4.85 2l-8.6 8.6a8.8 8.8 0 01-6.27 2.6h-73.8a8.81 8.81 0 01-6.27-2.6L151.57 70.3a6.81 6.81 0 00-4.84-2h-40.59z" transform="translate(-56.18 -58.63)" fill="#29e3e2"/><path class="cls-2" d="M66.46 97a2.58 2.58 0 00-1.78 1.73 2.64 2.64 0 002 3.38v99a11.11 11.11 0 01-3.25 7.85l-3.14 3.14a2.64 2.64 0 00-3.81 1 2.58 2.58 0 000 2.48 2.63 2.63 0 104.52-2.8l3.44-3.44a11.11 11.11 0 003.25-7.85v-99.41A2.63 2.63 0 1066.46 97zM239.47 74.05a2.64 2.64 0 00-3.38 2h-57.83a12.53 12.53 0 01-8.86-3.67l-7.88-7.88a2.64 2.64 0 00-1-3.81 2.58 2.58 0 00-2.48 0 2.63 2.63 0 102.74 4.49l8.22 8.21a12.53 12.53 0 008.86 3.67h58.24a2.63 2.63 0 105.11-1.24 2.58 2.58 0 00-1.74-1.77zM546.73 257.71l-10.09-10.09a7.39 7.39 0 01-2.16-5.22v-39a7.39 7.39 0 012.16-5.22l4.7-4.69a2.64 2.64 0 003.81-1 2.58 2.58 0 000-2.48 2.63 2.63 0 10-4.49 2.74l-5 5a7.39 7.39 0 00-2.16 5.22v39.8a7.39 7.39 0 002.16 5.22l10.09 10.09a7.39 7.39 0 012.16 5.22v51.1a7.39 7.39 0 01-2.16 5.22l-8 8a2.64 2.64 0 00-3.81 1 2.58 2.58 0 000 2.48 2.63 2.63 0 104.49-2.74l8.3-8.31a7.39 7.39 0 002.16-5.22v-51.89a7.39 7.39 0 00-2.16-5.23zM544.35 91.87v30a2.79 2.79 0 00-2.13 3.58 2.73 2.73 0 001.88 1.83 2.79 2.79 0 101.31-5.41V91.43a8.22 8.22 0 00-2.41-5.82l-22.32-22.32a8.22 8.22 0 00-5.81-2.41H433a2.79 2.79 0 00-3.58-2.13 2.73 2.73 0 00-1.83 1.88 2.79 2.79 0 105.41 1.31h81.42a8.22 8.22 0 015.81 2.41l21.7 21.7a8.22 8.22 0 012.42 5.82zM365.3 327.87a2.64 2.64 0 00-3.38 2h-45.78a5.71 5.71 0 01-4-1.67l-6.72-6.72a5.71 5.71 0 00-4-1.67h-25.65a5.71 5.71 0 00-4 1.67l-14.26 14.26a2.64 2.64 0 00-3.81 1 2.58 2.58 0 000 2.48 2.63 2.63 0 104.49-2.74l14-14a5.71 5.71 0 014-1.67h24.74a5.71 5.71 0 014 1.67l6.72 6.72a5.71 5.71 0 004 1.67h46.19a2.63 2.63 0 105.11-1.24 2.58 2.58 0 00-1.65-1.76z" transform="translate(-56.18 -58.63)"/></svg>