<svg id="Layer_1" data-name="Layer 1" xmlns="http://www.w3.org/2000/svg" viewBox="0 0 625.62 201.22"><defs><style>.cls-1{fill:#02a6ff}</style></defs><g id="_编组_" data-name="&lt;编组&gt;"><path id="_复合路径_" data-name="&lt;复合路径&gt;" class="cls-1" d="M2334.19 1158.63h-227V1139h-248v19.68h-150.63v-87.57h16.82v-26.57h-16.82v-84.67H1811v4.92h56.09v-4.92h268.63v4.92h28.54v-4.92h169.95v81.67h-14.48v42.31h14.48v74.78zM2119 1146.82h203.4v-51.17h-14.5v-65.93h14.48v-58.04H2176v4.92h-52.1v-4.92h-245v4.92h-79.7v-4.92h-78.81v61h16.82v50.18h-16.82v64h127v-19.68H2119v19.68z" transform="translate(-1708.56 -959.87)"/><path id="_矩形_" data-name="&lt;矩形&gt;" class="cls-1" d="M39.95 185.48h28.37v15.74H39.95z"/><g id="_编组_2" data-name="&lt;编组&gt;"><path id="_复合路径_2" data-name="&lt;复合路径&gt;" class="cls-1" d="M1846.82 1150.76h-52.15l6.4-6.4h39.35zm-47.4-2h42.64l-2.46-2.46h-37.72z" transform="translate(-1708.56 -959.87)"/></g><path id="_复合路径_3" data-name="&lt;复合路径&gt;" class="cls-1" d="M1907.91 1153.71h-44V1138h44v15.74zm-42.07-2h40.1v-11.81h-40.1v11.81z" transform="translate(-1708.56 -959.87)"/><path id="_复合路径_4" data-name="&lt;复合路径&gt;" class="cls-1" d="M1956.87 1153.71h-44V1138h44v15.74zm-42.07-2h40.1v-11.81h-40.1v11.81z" transform="translate(-1708.56 -959.87)"/><path id="_复合路径_5" data-name="&lt;复合路径&gt;" class="cls-1" d="M2005.82 1153.71h-44V1138h44v15.74zm-42.07-2h40.1v-11.81h-40.1v11.81z" transform="translate(-1708.56 -959.87)"/><path id="_复合路径_6" data-name="&lt;复合路径&gt;" class="cls-1" d="M2054.77 1153.71h-44V1138h44v15.74zm-42.07-2h40.1v-11.81h-40.1v11.81z" transform="translate(-1708.56 -959.87)"/><path id="_复合路径_7" data-name="&lt;复合路径&gt;" class="cls-1" d="M2103.73 1153.71h-44V1138h44v15.74zm-42.07-2h40.1v-11.81h-40.1v11.81z" transform="translate(-1708.56 -959.87)"/><path id="_矩形_2" data-name="&lt;矩形&gt;" class="cls-1" d="M588.64 89.79h33.7v2.46h-33.7z"/><path id="_矩形_3" data-name="&lt;矩形&gt;" class="cls-1" d="M588.64 85.36h33.7v2.46h-33.7z"/><path id="_矩形_4" data-name="&lt;矩形&gt;" class="cls-1" d="M588.64 94.95h33.7v2.46h-33.7z"/><path id="_矩形_5" data-name="&lt;矩形&gt;" class="cls-1" d="M588.64 100.12h33.7v2.46h-33.7z"/><path id="_矩形_6" data-name="&lt;矩形&gt;" class="cls-1" d="M588.64 105.29h33.7v2.46h-33.7z"/><path id="_矩形_7" data-name="&lt;矩形&gt;" class="cls-1" d="M588.64 110.45h33.7v2.46h-33.7z"/><path id="_矩形_8" data-name="&lt;矩形&gt;" class="cls-1" d="M588.64 115.62h33.7v2.46h-33.7z"/><path id="_矩形_9" data-name="&lt;矩形&gt;" class="cls-1" d="M588.64 120.78h33.7v2.46h-33.7z"/><path id="_路径_" data-name="&lt;路径&gt;" class="cls-1" d="M389.67 20.99H188.94L174.55 6.6l1.39-1.39 13.81 13.81h199.1l13.41-13.4 1.39 1.39-13.98 13.98z"/><path id="_矩形_10" data-name="&lt;矩形&gt;" class="cls-1" d="M432.88 181.05h6.56v7.54h-6.56z"/><path id="_矩形_11" data-name="&lt;矩形&gt;" class="cls-1" d="M443.71 181.05h6.56v7.54h-6.56z"/><path id="_矩形_12" data-name="&lt;矩形&gt;" class="cls-1" d="M454.53 181.05h6.56v7.54h-6.56z"/><path id="_矩形_13" data-name="&lt;矩形&gt;" class="cls-1" d="M465.35 181.05h6.56v7.54h-6.56z"/><path id="_矩形_14" data-name="&lt;矩形&gt;" class="cls-1" d="M476.18 181.05h6.56v7.54h-6.56z"/><path id="_矩形_15" data-name="&lt;矩形&gt;" class="cls-1" d="M487 181.05h6.56v7.54H487z"/><path id="_矩形_16" data-name="&lt;矩形&gt;" class="cls-1" d="M497.82 181.05h6.56v7.54h-6.56z"/><path id="_矩形_17" data-name="&lt;矩形&gt;" class="cls-1" d="M508.65 181.05h6.56v7.54h-6.56z"/><path id="_矩形_18" data-name="&lt;矩形&gt;" class="cls-1" d="M519.47 181.05h6.56v7.54h-6.56z"/><path id="_矩形_19" data-name="&lt;矩形&gt;" class="cls-1" d="M530.3 181.05h6.56v7.54h-6.56z"/><path id="_矩形_20" data-name="&lt;矩形&gt;" class="cls-1" d="M541.12 181.05h6.56v7.54h-6.56z"/><path id="_矩形_21" data-name="&lt;矩形&gt;" class="cls-1" d="M551.94 181.05h6.56v7.54h-6.56z"/><path id="_矩形_22" data-name="&lt;矩形&gt;" class="cls-1" d="M562.77 181.05h6.56v7.54h-6.56z"/><path id="_矩形_23" data-name="&lt;矩形&gt;" class="cls-1" d="M429.44 184.25h142.19v1.15H429.44z"/></g></svg>