<svg xmlns="http://www.w3.org/2000/svg" viewBox="0 0 446.04 291.75"><defs><style>.cls-2,.cls-5{fill:#fff}.cls-6{fill:#f2f2f2}.cls-5{mix-blend-mode:overlay}.cls-7{fill:#0071bc}</style></defs><g style="isolation:isolate"><g id="Layer_2" data-name="Layer 2"><path class="cls-2" d="M83.76 0l-8.79 8.78h-31.6L5.89 46.26v170.4L0 222.55V41.04L41.05 0h42.71z"/><path style="mix-blend-mode:overlay" opacity=".2" fill="#f2f2f2" d="M441.83 49.33l-5.97-5.97h-2.82l-17.13-17.12v-2.57l-15.3-15.3h-30.35l-3.25 3.25H253.22l-5.77-5.77H144.92l-5.77 5.77H44.88L9.2 47.3v200.48l32.68 32.67h158.31l18.16-18.16h187.98l33.03-33.03v-30.93l2.47-2.47V49.33z"/><path d="M277.2 332.23H118.75l-.05-.05L86 299.45V98.83L121.75 63H216l5.77-5.77h102.7l5.77 5.77h113.64l3.26-3.25h30.49l.05.05L493 75.2v2.57l17 17h2.82l.05.05 6 6v146.71l-.05.05-2.34 2.42v30.94l-33.13 33.13h-188zm-158.31-.35h158.17l18.16-18.16h188l32.93-32.93v-30.93l.05-.05 2.42-2.41V101l-5.87-5.87h-2.82l-.05-.05-17.2-17.17v-2.57l-15.2-15.2h-30.2L444 63.4H330.09l-5.77-5.77H221.94l-5.77 5.77h-94.28L86.32 99v200.3z" transform="translate(-76.94 -51.6)" fill="#29abe2"/><path class="cls-5" d="M18 235.82v18.14l-8.8-8.78v-18.14l8.8 8.78z"/><path class="cls-6" d="M201.06 284.04H40l-.15-.16-34.07-34.07v-25.92h1.05v25.49l33.61 33.61h160.19L219 264.62h53v1.05h-52.57l-18.37 18.37zM3.85 223.89v4.73l-3.43 3.44v-4.73l3.43-3.44zM3.85 230.77v4.74l-3.43 3.43v-4.73l3.43-3.44zM3.85 237.66v4.73l-3.43 3.43v-4.73l3.43-3.43z"/><path class="cls-6" d="M52.65 291.75H36.4l-.05-.05-20.46-20.47v-8.06L3.68 250.96v-5.59h.35v5.44l12.21 12.21v8.07l20.31 20.31H52.5l4.24-4.24h20.71v.35H56.88l-4.23 4.24z"/><path class="cls-6" d="M54.76 287.01l-2.68 2.68H37.27l-19.28-19.27v-3.38l19.99 19.97h16.78z"/><path class="cls-6" transform="rotate(-44.99 -4.014 385.278)" d="M96.39 317.8h.7v.7h-.7z"/><path class="cls-6" d="M102.53 324.44l-1.16-1.16.49-.49 1.16 1.16zm-1.74-1.74l-2.89-2.9.49-.49 2.89 2.9zM111.8 333.7l-1.16-1.16.49-.49 1.16 1.16zm-1.74-1.7l-2.9-2.9.49-.49 2.9 2.9zm-4.06-4.09l-.58-.58.49-.49.58.58z" transform="translate(-76.94 -51.6)"/><path class="cls-6" transform="rotate(-45.01 14.424 403.626)" d="M114.84 336.25h.7v.7h-.7z"/><path class="cls-5" d="M183.62 19.89l-4.92-4.92h-19.88l-9.73-9.71H108.7l-4.05 4.04h-9.3l-2.33 2.33h12l8.26 8.26h70.34z"/><path class="cls-6" d="M95.9 8.65l3.34-3.34h.79l-3.35 3.35-.78-.01zM97.85 8.65l3.34-3.34h.79l-3.35 3.35-.78-.01zM99.8 8.65l3.34-3.34h.79l-3.35 3.35-.78-.01zM101.74 8.65l3.35-3.34h.79l-3.35 3.35-.79-.01zM103.69 8.65l3.35-3.34h.79l-3.35 3.35-.79-.01z"/><path class="cls-7" d="M415.91 26.24v-2.57L397.55 5.31h-66.84l-6.3 6.3h42.6l3.25-3.25h25.75l24.13 24.14v-2.03l-4.23-4.23z"/><path class="cls-6" d="M423.52 33.85v1.11l1.31 1.31v-1.11l-1.31-1.31zM425.75 36.08v1.11l1.31 1.31v-1.11l-1.31-1.31zM427.98 38.31v1.11l1.31 1.31v-1.11l-1.31-1.31z"/><path class="cls-6" d="M446.04 64.72h-.7V48.39l-8.8-8.8h-3.08l-14.19-14.18.5-.5 13.98 13.99h3.08l9.21 9.2v16.62zM110.87 2.98h36.32v.7h-36.32zM105.76 1.06h36.32v.7h-36.32z"/><path class="cls-7" d="M441.83 195.86v39.85l-11.29 11.28-7.08 7.08v8.22l-7.27 7.27h-16.52l-6.26-6.26-1.01-1.01h-37.48l7.18-7.17h39.75l16.31-16.31h11.65l9.55-9.55v-30.93l2.47-2.47z"/><path style="mix-blend-mode:overlay" opacity=".49" fill="#fff" d="M430.54 246.99l-7.08 7.08v8.22l-7.27 7.27h-16.52l-6.26-6.26h14.75l16.31-16.31h6.07z"/><path class="cls-2" d="M409.38 265.29h-27.76v-.7h27.47l19.7-19.69h6.88l7.92-7.93v-23.03h.7v23.32l-8.33 8.33h-6.88l-19.7 19.7zM377.1 266.95h16.3v.7h-16.3z"/><path fill="#29e5e2" d="M260.34 16.68h-62.17l-7.32-7.32h-25.58v-1.4h26.16l7.32 7.32h61.01l8.98-8.98h42.56v1.4h-41.98l-8.98 8.98z"/><path class="cls-7" d="M348.41 258.98h-62.48v-1.4h61.9l8.41-8.4h25.97v1.39h-25.4l-8.4 8.41zM428.91 232.33l-.99-.99 6.58-6.58V52.65h1.39v172.69l-6.98 6.99zM200.19 280.45h-17.75l3.65-3.65h11.44l19.07-19.07h11.78l4.68 4.68h-14.71l-18.16 18.04z"/><path class="cls-5" d="M29.89 268.47l11.99 11.98h24.79l-2.99-2.99h-6.3l-3.15-3.15H43.62l-9.53-9.54h-7.9l3.7 3.7zM9.2 230.2v2.74l5.31 5.32v-4.03l-5.3-5.3-.01 1.27zM9.2 236.51v2.74l5.31 5.31v-4.03l-5.3-5.3-.01 1.28zM9.2 242.81v2.74l5.31 5.31v-4.02l-5.3-5.31-.01 1.28z"/><path class="cls-6" d="M20.75 36.25l-.5-.5L40.01 16h26.35l4.87-4.87h17v.69H71.52l-4.87 4.88H40.3L20.75 36.25z"/><path class="cls-6" d="M248.43 330.31h-2.25v-.7h2.25v.7zm-5 0H242v-.7h1.4v.7zm-8.38 0h-2.79v-.7H235v.7zm-4.19 0h-7v-.7h7v.7zm-9.77 0h-1.4v-.7h1.4v.7zm-8.38 0h-2.79v-.7h2.79v.7zm-4.19 0h-7v-.7h7v.7zm-9.77 0h-1.4v-.7h1.4v.7zm-8.38 0h-2.79v-.7h2.79v.7zm-4.19 0h-7v-.7h7v.7zm-9.77 0H175v-.7h1.4v.7zm-8.38 0h-2.79v-.7H168v.7zm-4.19 0h-7v-.7h7v.7zm-9.77 0h-1.4v-.7h1.4v.7zM242.21 76.71H242V76h.2v.7zm-1.59 0h-7V76h7v.7zm-9.77 0h-1.4V76h1.4v.7zm-8.38 0h-2.79V76h2.79v.7zm-4.19 0h-7V76h7v.7zm-9.77 0h-1.4V76h1.4v.7zm-8.38 0h-2.79V76h2.79v.7zm-4.19 0h-7V76h7v.7zm-9.57-1.18l-1-1 .49-.49 1 1zm-5.92-5.92l-1.68-1.68h-.13v-.7h.42l1.94 1.88zm-3.2-1.68h-7v-.7h7v.7zm-9.77 0h-1.4v-.7h1.4v.7zM324.39 57.25h-1.23v-.7h1.23v.7zm-4 0H319v-.7h1.4v.7zm-8.38 0h-2.81v-.7h2.8v.7zm-4.19 0h-7v-.7h7v.7zm-9.77 0h-1.4v-.7H298v.7zm-8.38 0h-2.79v-.7h2.79v.7zm-4.19 0h-7v-.7h7v.7zm-9.77 0h-1.4v-.7h1.4v.7z" transform="translate(-76.94 -51.6)"/></g></g></svg>