<svg id="Layer_5" data-name="Layer 5" xmlns="http://www.w3.org/2000/svg" viewBox="0 0 515.16 574.9"><defs><style>.cls-1,.cls-2{fill:#03a6ff}.cls-1{opacity:.3}</style></defs><path class="cls-1" d="M147.27 2.98L82.78 67.46v148.18L50.4 248.02l.57-129.04-28.53-28.53V31.2h60.34l28.53-28.51 35.96.29zM492.72 484.45v59.24h-60.34l-28.52 28.53-35.96-.3 64.48-64.48V359.25l32.38-32.37-.56 129.04v.01l28.52 28.52z"/><path class="cls-2" d="M324.14 34.37l-16.6-16.59-16.68.04 16.56 16.55h16.72zM349.44 34.37l-16.6-16.59-16.68.04 16.56 16.55h16.72zM374.74 34.37l-16.6-16.59-16.68.04 16.56 16.55h16.72zM400.04 34.37l-16.6-16.59-16.68.04 16.56 16.55h16.72zM425.34 34.37l-16.59-16.59-16.69.04 16.56 16.55h16.72zM60.8 22.3h16.3L96.72 2.68H62.76l8.82 8.83L60.8 22.3z"/><path class="cls-2" d="M49.63 22.3h5.91l10.79-10.8-8.81-8.82h-5.8l8.69 8.83L49.63 22.3z"/><path class="cls-2" d="M39.49 22.3h5.92L56.2 11.5l-8.81-8.82h-5.8l8.69 8.83L39.49 22.3z"/><path class="cls-2" d="M35.27 22.3l10.8-10.8-8.81-8.82h-5.8l8.69 8.83L29.36 22.3h5.91z"/><path class="cls-2" d="M2866.68 382.16V175.38l-11.25-11.25h-203l-39.72-39.71h-151l-28.53 28.53h-61.92v63l28.53 28.53v148.8l-48.28 48.27v206.82l11.25 11.25h203l39.72 39.71h151L2785 670.8h61.92v-63l-28.53-28.53V430.43zm-51 47.16v151l28.53 28.53v36.65l-22.6 22.61h-37.71l-28.53 28.53h-148.8l-48.28-48.27H2364V432.89l38.46-38.46v-151L2374 214.87v-36.63l22.61-22.6h37.73l28.53-28.53h148.8l48.28 48.27h194.28v215.47z" transform="translate(-2351.52 -124.42)"/><path class="cls-2" d="M191.03 540.52l16.6 16.6 16.68-.04-16.56-16.56h-16.72zM165.73 540.52l16.59 16.6 16.69-.04-16.56-16.56h-16.72zM140.43 540.52l16.59 16.6 16.69-.04-16.56-16.56h-16.72zM115.13 540.52l16.59 16.6 16.69-.04-16.56-16.56h-16.72zM89.82 540.52l16.6 16.6 16.69-.04-16.56-16.56H89.82zM454.37 552.6h-16.31l-19.61 19.61h33.96l-8.83-8.83 10.79-10.78z"/><path class="cls-2" d="M465.54 552.6h-5.91l-10.8 10.8 8.82 8.81h5.8l-8.69-8.83 10.78-10.78z"/><path class="cls-2" d="M475.67 552.6h-5.91l-10.8 10.8 8.82 8.81h5.8l-8.69-8.83 10.78-10.78z"/><path class="cls-2" d="M479.89 552.6l-10.79 10.8 8.81 8.81h5.8l-8.69-8.83 10.79-10.78h-5.92z"/><path fill="#00558d" opacity=".3" d="M502.66 50.96v215.47L464.2 304.9v22.54l-31.82 31.81v148.19l-64.48 64.48 35.96.3H255.05l-48.27-48.27H12.5V308.47L50.97 270v-22.54l31.81-31.82V67.46l64.49-64.48-35.96-.29h148.8l48.28 48.27h194.27z"/></svg>