<svg id="Layer_5" data-name="Layer 5" xmlns="http://www.w3.org/2000/svg" viewBox="0 0 743.05 515.93"><defs><style>.cls-3{opacity:.3}.cls-2,.cls-3{fill:#03a6ff}</style></defs><path opacity=".3" fill="#00558d" d="M730.21 83.96v211.41l-45.32 45.32v71.12l-60.43 60.44H332.38l-2.28-2.28H103.37l-73.99-74V206.21l-2.28-2.28v-99.76l51.31-51.31h285.75l2.27 2.27h334.95l28.83 28.83z"/><path class="cls-2" d="M2905.38 1438.07h-334.95l-50.57-50.58h-317.74v183.27l24.82 24.82v189.76l76.66 76.67h226.73l41.42 41.41h270.81l49-49v-124.36l45.31-45.31v-215.19zm26.94 244.79l-45.32 45.31v124.36l-46.33 46.33h-267l-41.42-41.41h-226.76l-74-74V1593.7l-24.82-24.82V1392H2518l50.57 50.58h334.93l28.83 28.83v211.41z" transform="translate(-2202.12 -1387.49)"/><path class="cls-3" d="M364.16 52.86H78.41L27.1 104.17v99.76L4.55 181.39V4.55h311.31l48.3 48.31z"/><path class="cls-3" d="M367.38 52.86h-3.22l-48.3-48.31H4.55v176.84l22.55 22.54v3.22L2.28 182.32V2.27H316.8l50.58 50.59zM684.89 411.81v53.24l-46.33 46.33H371.52l-39.14-39.13h292.08l60.43-60.44z"/><path class="cls-2" d="M0 194.39v28.62l18.13 18.13v-29.15L0 194.05v.34zM0 234.77v28.62l18.13 18.12v-29.15L0 234.42v.35zM0 275.14v28.62l18.13 18.13v-29.15L0 274.8v.34zM0 315.52v28.62l18.13 18.12v-29.15L0 315.17v.35zM340.65 0l37.72 37.72h34.01L374.73.07 340.65 0zM391.69 0l37.71 37.72h34.01L425.76.07 391.69 0zM442.72 0l37.71 37.72h34.01L476.79.07 442.72 0zM493.75 0l37.72 37.72h34.01L527.83.07 493.75 0zM544.79 0l37.71 37.72h34.01L578.86.07 544.79 0z"/><path class="cls-3" d="M597.08 0l37.72 37.72h58.55l-17.03-17.04L696.99 0h-99.91z"/><path class="cls-2" d="M734.76 66.29l-45.62-45.61L709.41 0h25.35v66.29zM689.44 515.93v-35.34l-35.34 35.34h35.34zM684.89 411.81v53.24l-46.33 46.33H371.52l-39.14-39.13h-3.22l41.41 41.41H639.5l47.67-47.67-.45-56.01-1.83 1.83zM29.38 194.05L9.37 174.04V29.63L37.09 1.91 4.55 4.55v176.84l24.83 24.82v-12.16zM99.21 472.25l-74.38-74.4v22.78l75 75.01h249.51l-21.12-21.12-229.01-2.27zM734.76 82.08v215.18l-45.32 45.31-2.86 22.01 56.47-56.47V90.37l-8.29-8.29z"/></svg>