<svg id="Layer_5" data-name="Layer 5" xmlns="http://www.w3.org/2000/svg" viewBox="0 0 819.18 454.74"><defs><style>.cls-1,.cls-2{fill:#03a6ff;}.cls-1,.cls-3{opacity:0.3;}.cls-3{fill:#00558d;}</style></defs><title>border33</title><polygon class="cls-1" points="548.2 450.25 518.79 451.86 520.39 450.25 548.2 450.25"/><polygon class="cls-2" points="165.71 454.74 123.51 454.74 76.01 407.24 118.21 407.24 165.71 454.74"/><polygon class="cls-2" points="114.31 454.74 72.12 454.74 24.56 407.17 66.75 407.17 114.31 454.74"/><polygon class="cls-2" points="819.18 404.62 819.18 372.41 786.97 404.62 819.18 404.62"/><polygon class="cls-2" points="382.52 0 354 28.5 331.35 28.5 359.85 0 382.52 0"/><polygon class="cls-2" points="350.25 0 321.74 28.5 299.09 28.5 327.59 0 350.25 0"/><polygon class="cls-2" points="317.99 0 289.48 28.5 266.82 28.5 295.33 0 317.99 0"/><polygon class="cls-2" points="285.73 0 257.21 28.5 234.56 28.5 263.06 0 285.73 0"/><polygon class="cls-2" points="253.47 0 224.95 28.5 202.3 28.5 230.8 0 253.47 0"/><polygon class="cls-2" points="221.2 0 192.69 28.5 170.04 28.5 198.54 0 221.2 0"/><polygon class="cls-2" points="188.94 0 160.43 28.5 137.77 28.5 166.28 0 188.94 0"/><polygon class="cls-2" points="128.72 28.5 157.21 0 112.99 0 84.48 28.5 128.72 28.5"/><polygon class="cls-2" points="5.83 35.62 5.83 69.6 39.8 35.62 5.83 35.62"/><polygon class="cls-3" points="793.79 143.17 793.79 351.81 763.5 382.1 588.55 382.1 520.39 450.25 178.2 450.25 120 392.05 10.3 392.05 10.3 92.34 387.16 92.34 474.73 4.77 399.67 4.48 655.11 4.48 793.79 143.17"/><polygon class="cls-1" points="474.73 4.77 387.16 92.34 10.3 92.34 62.54 40.1 364.06 40.1 399.67 4.48 474.73 4.77"/><polygon class="cls-1" points="814.7 97.82 814.7 358.53 773.1 400.13 598.32 400.13 548.2 450.25 520.39 450.25 588.55 382.1 763.5 382.1 793.79 351.81 793.79 143.17 748.45 97.82 814.7 97.82"/><path class="cls-2" d="M2186.15,229.36L2092.81,136H1807.55l-35.61,35.61H1470.43l-54.86,54.86-5.82,5.82V406.43l5.82,5.82v120.3h112.32l58.21,58.21H1959.8l14.08-14.08h0l36-36H2184.7l44.23-44.23v-267h-42.77Zm38.29,265.19-41.6,41.6H2008.06l-40.52,40.52h-370l-52.06-52.06H1420V228.36l52.24-52.24h301.51l35.61-35.61h255.44l93.34,93.34h66.26V494.56Z" transform="translate(-1409.74 -136.03)"/></svg>