<svg id="Layer_1" data-name="Layer 1" xmlns="http://www.w3.org/2000/svg" viewBox="0 0 768.86 347.64"><defs><style>.cls-1{fill:#02a6ff;}</style></defs><title>border13</title><g id="_编组_" data-name="&lt;编组&gt;"><path id="_复合路径_" data-name="&lt;复合路径&gt;" class="cls-1" d="M1638.07,1161.09H869.21V813.45h768.86v347.64Zm-748.2-20.65h727.55V834.1H889.86v306.34Z" transform="translate(-869.21 -813.45)"/><rect id="_矩形_" data-name="&lt;矩形&gt;" class="cls-1" x="36.57" y="35.28" width="341.62" height="6.88"/><rect id="_矩形_2" data-name="&lt;矩形&gt;" class="cls-1" x="391.38" y="26.68" width="18.07" height="20.08"/><rect id="_矩形_3" data-name="&lt;矩形&gt;" class="cls-1" x="428.1" y="26.68" width="18.07" height="20.08"/><rect id="_矩形_4" data-name="&lt;矩形&gt;" class="cls-1" x="464.81" y="26.68" width="18.07" height="20.08"/><rect id="_矩形_5" data-name="&lt;矩形&gt;" class="cls-1" x="501.53" y="26.68" width="18.07" height="20.08"/><polygon id="_路径_" data-name="&lt;路径&gt;" class="cls-1" points="731 314.51 637.2 314.51 637.2 311.07 727.55 311.07 727.55 240.94 731 240.94 731 314.51"/><g id="_编组_2" data-name="&lt;编组&gt;"><polygon id="_路径_2" data-name="&lt;路径&gt;" class="cls-1" points="57.8 294 31.12 320.68 55.86 320.68 82.54 294 57.8 294"/></g><g id="_编组_3" data-name="&lt;编组&gt;"><polygon id="_路径_3" data-name="&lt;路径&gt;" class="cls-1" points="98.81 294 72.14 320.68 96.88 320.68 123.55 294 98.81 294"/></g><g id="_编组_4" data-name="&lt;编组&gt;"><polygon id="_路径_4" data-name="&lt;路径&gt;" class="cls-1" points="139.83 294 113.16 320.68 137.9 320.68 164.57 294 139.83 294"/></g><g id="_编组_5" data-name="&lt;编组&gt;"><polygon id="_路径_5" data-name="&lt;路径&gt;" class="cls-1" points="180.85 294 154.17 320.68 178.91 320.68 205.59 294 180.85 294"/></g><g id="_编组_6" data-name="&lt;编组&gt;"><polygon id="_路径_6" data-name="&lt;路径&gt;" class="cls-1" points="221.87 294 195.19 320.68 219.93 320.68 246.6 294 221.87 294"/></g></g></svg>