<svg id="Layer_2" data-name="Layer 2" xmlns="http://www.w3.org/2000/svg" viewBox="0 0 449.11 281.22"><defs><style>.cls-1{fill:#29abe2}</style></defs><path class="cls-1" d="M515.25 296.93v-26.58l-9.6-9.6v-62.9l9.61-9.61V99.6L497.69 82H453l-9.67-9.67H166l-1.73-1.73h-.6l-10.49-10.41H90.81l-10.2 10.2v16.38a3.32 3.32 0 00-2.95 3.29h-2.22v2.45h11.08v-2.45h-2.21a3.32 3.32 0 00-3-3.3V70.67l9.81-9.81h61.78l8.39 8.39v.55l1.17 1.2v.76l-.67.67-50.42.33-16 16v227.52l11.52 11.52h26.51l12.22-12.22h84.18l8.8 8.8h249.2zM80.61 87.22v.66a2.22 2.22 0 00-1.84 2.18h-.66a2.87 2.87 0 012.5-2.84zm3.25 2.84h-.66a2.21 2.21 0 00-1.92-2.19v-.66a2.87 2.87 0 012.58 2.85zm155.08 233.42l-8.8-8.8h-84.92L133 326.91h-25.77l-11-11V89.14l15.52-15.52L160 73.3v1.33l1.35 1.37-6.23 6.23h-5l-1.46 1.46H137l-2.1-2.09H128l-2.9 2.9v3.78l-8.66 8.66h-2.63l-2.87 2.87v1.89l1.17 1.17v4.89l1.52 1.52v49.63l-3.08 3.09v9.71l3.67 3.67v13.84l-.64.64v4.69l4.62 4.62h3.49l1.54 1.54v8.75l2 2v64.82l-1 1v-52.75l-1-1v54.73l-.44.44v-16.46l-1.34-1.34v1.74l.59.59v4.28l-1.39-1.39v4.11l1.21 1.21v8.17l-.17.17v2.66l3.29 3.29h3.09l2.36-2.36a5.79 5.79 0 001.43.18h350.67l1 1h5.28l1.09 1.09-1 1h-74.6l-1.78-1.78h-7.42l1.7 1.7 1.24 1.24h81.86l3.26-3.26h2.88l4.22-4.22v-22.15l-3.52-3.52v-12l-2-2V110.48a5.77 5.77 0 00-5.76-5.77h-364.1a5.77 5.77 0 00-5.77 5.77v56.45l-4.59-4.59v-52.68l1.42-1.42v-5.85l4.2-4.2v-1.88l11.7-11.7h20.25l1.19 1.19H156l4.57-4.57v-1.4l3.57-3.57h.62l1.2-1.2h2.31l1.8-1.8H443l9.67 9.67h44.68l17 17v87.9l-9.61 9.61v63.65l9.6 9.6v25.83l-26.92 26.92H238.94zm255.19-45.69a5.1 5.1 0 01-5.09 5.09H131.87a5.13 5.13 0 01-.86-.08l.55-.55v-9.88l-3.22-3.22v-66.91s-4.94-4.61-8.36-8l-.2-.24v-83.5a5.1 5.1 0 015.09-5.09H489a5.1 5.1 0 015.09 5.09v167.29z" transform="translate(-75.44 -60.19)"/><path class="cls-1" d="M0 34.43h11.08v2.45H0zM0 38.99h11.08v2.45H0zM0 43.55h11.08V46H0zM0 48.11h11.08v2.45H0zM0 52.67h11.08v2.45H0zM0 57.23h11.08v2.45H0zM0 61.79h11.08v2.45H0zM0 66.35h11.08v2.45H0zM0 70.91h11.08v2.45H0zM0 75.47h11.08v2.45H0zM0 80.03h11.08v2.45H0zM0 84.58h11.08v2.45H0zM0 89.14h11.08v2.45H0zM0 93.7h11.08v2.45H0zM0 98.26h11.08v2.45H0zM0 102.82h11.08v2.45H0zM0 107.38h11.08v2.45H0zM0 111.94h11.08v2.45H0zM0 116.5h11.08v2.45H0zM0 121.06h11.08v2.45H0zM0 125.62h11.08v2.45H0zM0 130.18h11.08v2.45H0zM0 134.74h11.08v2.45H0zM0 139.3h11.08v2.45H0zM0 143.86h11.08v2.45H0zM0 148.42h11.08v2.45H0zM0 152.98h11.08v2.45H0zM0 157.54h11.08v2.45H0zM0 162.1h11.08v2.45H0zM0 166.66h11.08v2.45H0zM0 171.22h11.08v2.45H0zM0 175.77h11.08v2.45H0zM0 180.33h11.08v2.45H0zM0 184.89h11.08v2.45H0zM0 189.45h11.08v2.45H0zM0 194.01h11.08v2.45H0zM0 198.57h11.08v2.45H0zM0 203.13h11.08v2.45H0zM0 207.69h11.08v2.45H0zM0 212.25h11.08v2.45H0zM0 216.81h11.08v2.45H0zM0 221.37h11.08v2.45H0zM0 225.93h11.08v2.45H0zM0 230.49h11.08v2.45H0zM0 235.05h11.08v2.45H0zM0 239.61h11.08v2.45H0zM0 244.17h11.08v2.45H0zM38.34 115.66l-.38-.37-.01 13.65.39-.39v-12.89zM46.49 141.31v3.16l-.92.92v1.96l1.6 1.6v-8.1l-1.22-1.21H43.2l.81.92h1.72l.76.75z"/><path class="cls-1" d="M205.23 323.93a2.23 2.23 0 00-2.2 1.9h-33.17L155.65 340H98.76l-17.44-17.4v-8.07a3.31 3.31 0 003-3.17h2.23v-2.45H75.44v2.45h2.23a3.31 3.31 0 003 3.17v8.35l17.73 17.73.1.1h57.45l14.21-14.21H203a2.23 2.23 0 102.23-2.57zm-123.91-9.84v-.66a2.21 2.21 0 001.87-2.07h.66a2.87 2.87 0 01-2.53 2.73zm-3.2-2.72h.66a2.21 2.21 0 001.87 2.07v.66a2.87 2.87 0 01-2.53-2.74zM514.38 256.49a2.25 2.25 0 10-1.05 1.89l8.54 8.54v31L490 329.82h-62.81l-8.9 8.9H361.4a2.24 2.24 0 100 .9h57.26l8.9-8.9h62.82l32.38-32.38v-31.79l-8.76-8.79a2.22 2.22 0 00.38-1.27zM524.56 84.11a2.24 2.24 0 10-2.69 2.19v102.94l-11.2 11.2v35.06a2.24 2.24 0 10.9 0v-34.7l11.2-11.2V86.3a2.24 2.24 0 001.79-2.19z" transform="translate(-75.44 -60.19)"/></svg>