<svg id="央铋_1" data-name="央铋 1" xmlns="http://www.w3.org/2000/svg" xmlns:xlink="http://www.w3.org/1999/xlink" viewBox="0 0 198.05 119.16"><defs><style>.cls-1{opacity:0.5;}.cls-2{fill:#19172c;}.cls-3{fill:url(#铃琨眄_沭噤桢眚_36);}</style><linearGradient id="铃琨眄_沭噤桢眚_36" x1="698.91" y1="549.92" x2="818.07" y2="549.92" gradientTransform="translate(1514.36 -530.97) rotate(90)" gradientUnits="userSpaceOnUse"><stop offset="0" stop-color="#009fe3"/><stop offset="1" stop-color="#009fe3"/></linearGradient></defs><title>border3</title><g id="_编组_" data-name="&lt;编组&gt;"><g id="_编组_2" data-name="&lt;编组&gt;" class="cls-1"><path id="_路径_" data-name="&lt;路径&gt;" class="cls-2" d="M978.49,283.37l1.74,3.58h80.61c1.37,0,2.48-1.63,2.48-3.64v-61l-3.09-1.74a2.47,2.47,0,0,1-1.48-2V190.47c0-.92.79-1.79,2.13-2.32l2.44-1V171.73c0-2-1.11-3.64-2.48-3.64h-7.71l-3.08,4.53a4.44,4.44,0,0,1-3.58,2.18H960.64c-1.64,0-3.18-1.16-4.13-3.12l-1.74-3.58H868c-1.37,0-2.48,1.63-2.48,3.64v25.49l3.09,2.06a3,3,0,0,1,1.48,2.39V235a3.24,3.24,0,0,1-2.13,2.75l-2.44,1.16v44.41c0,2,1.11,3.64,2.48,3.64h49.69l3.08-4.53a4.44,4.44,0,0,1,3.58-2.18h50C976,280.24,977.54,281.41,978.49,283.37Z" transform="translate(-865.42 -167.94)"/><path id="_复合路径_" data-name="&lt;复合路径&gt;" class="cls-3" d="M1060.84,287.1H980.13l-1.78-3.67c-0.92-1.9-2.41-3-4-3h-50a4.27,4.27,0,0,0-3.46,2.11l-3.13,4.6H868.05c-1.45,0-2.63-1.7-2.63-3.79v-44.5l2.53-1.2a3.1,3.1,0,0,0,2-2.62V201.67a2.79,2.79,0,0,0-1.42-2.26l-3.15-2.1V171.73c0-2.09,1.18-3.79,2.63-3.79h86.82l1.78,3.67c0.92,1.9,2.41,3,4,3h85.81a4.27,4.27,0,0,0,3.46-2.11l3.13-4.6h7.79c1.45,0,2.63,1.7,2.63,3.79v15.54l-2.54,1c-1.27.51-2,1.33-2,2.18v28.12a2.35,2.35,0,0,0,1.41,1.88l3.16,1.78v61.06C1063.47,285.4,1062.29,287.1,1060.84,287.1Zm-80.52-.3h80.52c1.28,0,2.33-1.56,2.33-3.49V222.43l-3-1.69a2.6,2.6,0,0,1-1.56-2.15V190.47c0-1,.83-1.91,2.22-2.46l2.34-.94V171.73c0-1.92-1-3.49-2.33-3.49h-7.63l-3,4.46a4.56,4.56,0,0,1-3.7,2.24H960.64c-1.7,0-3.29-1.2-4.26-3.21l-1.7-3.5H868.17l0-.15v0.15h-0.07c-1.28,0-2.33,1.56-2.33,3.49v25.4l3,2a3.12,3.12,0,0,1,1.55,2.51V235a3.4,3.4,0,0,1-2.21,2.89L865.72,239v44.31c0,1.92,1,3.49,2.33,3.49h49.61l3-4.46a4.62,4.62,0,0,1,3.71-2.24h50c1.69,0,3.29,1.2,4.26,3.21Z" transform="translate(-865.42 -167.94)"/></g></g></svg>