<svg id="Layer_1" data-name="Layer 1" xmlns="http://www.w3.org/2000/svg" viewBox="0 0 494.08 291.76"><defs><style>.cls-1{fill:#2986e2}</style></defs><path class="cls-1" d="M40.72 3.17h-2.48L35.06 0h2.49l3.17 3.17zM44.43 3.17h-2.48L38.77 0h2.49l3.17 3.17zM48.14 3.17h-2.49L42.47 0h2.49l3.18 3.17zM51.84 3.17h-2.48L46.18 0h2.49l3.17 3.17zM55.55 3.17h-2.48L49.89 0h2.49l3.17 3.17zM6.08 82.31v3.43L.04 79.71 0 76.24l6.08 6.07zM6.08 88.45v3.43L.04 85.84 0 82.37l6.08 6.08zM6.08 94.58v3.43L.04 91.98 0 88.51l6.08 6.07zM15.03 239.4h-2.68l-8.83-8.82v-24.83l1.8 1.8v22.15l9.71 9.7z"/><path class="cls-1" d="M544.28 200.64v55.14l2.76 2.77v-37l5.71-5.71v-63.46l-3.75-3.73 1.9-1.91v-21.06l-33.18-33.19h-8.63l-32.61-32.62h-40.37l-4.7 4.7H205.15L202 61.44h-16.34l-4.56-4.56h-51.25L127.79 59H95.48l-4.83-4.83H70.14L58.67 65.58v60.81l8.43 8.42v113l-1.26 1.27-.28-.28v-.7a1.64 1.64 0 00.71-.32 1.86 1.86 0 000-3 2.08 2.08 0 00-.39-.22v-90.23l-1.49 1.5v1.64l-2.08 2.08v26.39l2.07 2.06v56.57a1.62 1.62 0 00-.39.21 1.88 1.88 0 00-.74 1.5 1.84 1.84 0 001.45 1.8v.83l-2.51 2.52v7.94l2.19 2.18v14.94l9.54 9.54h4.24l31.31 31.32V320l18.63 18.6h19.33l1.89-1.89h17.32l-4.27 4.29h-44.11l-17.36-17.38v-3.57l18.24 18.24h5.37l-60.13-60.13v5.33l35.43 35.43v5.17l18 18h45l5.4-5.4h278.27l4 4h40.1l5.15 5.15h27l17.33-17.32v-4.42l9.28-9.28v-35l-4-4v-16.26l-2.64-2.64v-57l3.44-3.44v-45l2-2 3.41 3.4v62.53L547 220v-22zM65.56 247.46a1.13 1.13 0 00.32-.19 1.21 1.21 0 00.49-1 1.18 1.18 0 00-.5-1v-.4a1.14 1.14 0 01.22.12 1.58 1.58 0 010 2.53 1.59 1.59 0 01-.54.26v-.36zm-2.69-61.75v-25.93l1.51-1.51v28.95zm1.83 62.1a1.42 1.42 0 01-.54-.26 1.53 1.53 0 01-.63-1.25 1.61 1.61 0 01.63-1.28 1.5 1.5 0 01.22-.11v.4a1.23 1.23 0 000 2 1.14 1.14 0 00.32.18v.36zm408.2-181l37.77 37.78h-5.77L472.67 72.4H371l-5.56-5.56h107.5zM69.37 72.62l5.77-5.78h28.28L102 68.29H76.12L71.2 73.2v70.33l-1.83 1.83V72.62zm118.3 261.82l-1.2-1.2H167.1l-2.74-2.74h-31.58l-2.91-2.91h37.36l3.47 3.47h24.83l3.39 3.38h-11.25zM539 328.09l-16.66 16.66h-26.1l-5.15-5.16H451l-2.88-2.88h43.78l5.74 5.74h24.13L539 325.24v2.85zm1.47-59.1l-5.8 5.8v36.29l-8.91 8.92h-14.61l-8.74 8.73h-67.78l-4.35 4.35h86.84l8.54-8.54h-11.37l-4.16 4.16H504l7.6-7.6h14.61l9.55-9.55v-36.29l4.67-4.67v41.47l-22.39 22.38H200.52l-4.52-4.52h-24.83l-3.47-3.47h-39l-4.14-4.14h-7L89.11 293.8v-4.42l-14.46-14.46V268l-3.31-3.31v-36.26l-2-2v-79.86l2.66-2.69V73.55l4.42-4.41h25.86l2.3-2.3h259.21l6.69 6.69H472.2l32.22 32.23h7.38l28.65 28.65V269z" transform="translate(-58.67 -54.12)"/><path class="cls-1" d="M6.08 85.74L.04 79.71 0 76.24l6.08 6.07v3.43zM.04 85.84L0 82.37l6.08 6.08v3.43L.04 85.84zM6.08 98.01L.04 91.98 0 88.51l6.08 6.07v3.43zM5.32 229.7l9.71 9.7h-2.68l-8.83-8.82v-24.83l1.8 1.8v22.15zM38.24 3.17L35.06 0h2.49l3.17 3.17h-2.48zM41.95 3.17L38.77 0h2.49l3.17 3.17h-2.48zM45.65 3.17L42.47 0h2.49l3.18 3.17h-2.49zM49.36 3.17L46.18 0h2.49l3.17 3.17h-2.48zM53.07 3.17L49.89 0h2.49l3.17 3.17h-2.48z"/></svg>