<svg xmlns="http://www.w3.org/2000/svg" viewBox="0 0 120.08 78.54"><defs><style>.cls-2,.cls-4{fill:#fff}.cls-4{mix-blend-mode:overlay}.cls-5{fill:#f2f2f2}.cls-6{fill:#0071bc}</style></defs><g style="isolation:isolate"><g id="Layer_4" data-name="Layer 4"><path class="cls-2" d="M22.55 0l-2.37 2.36h-8.5L1.59 12.45v45.88L0 59.91V11.05L11.05 0h11.5z"/><path d="M449.11 218.91h-42.67l-8.81-8.81v-54l9.63-9.63h25.38l1.55-1.55h27.64l1.55 1.55H494l.88-.88h8.22l4.13 4.13v.69l4.57 4.59h.77l1.62 1.62v39.49l-.65.65v8.33l-8.93 8.91H454zm-42.62-.09h42.58l4.89-4.89h50.61l8.86-8.86v-8.33l.65-.65v-39.43l-1.58-1.58h-.77l-4.62-4.62v-.69l-4.11-4.11h-8.1l-.88.88h-30.67L461.8 145h-27.57l-1.55 1.55H407.3l-9.58 9.58V210z" transform="translate(-395.2 -143.36)" fill="#29abe2"/><path class="cls-4" d="M4.84 63.49v4.88l-2.36-2.36v-4.89l2.36 2.37z"/><path class="cls-5" d="M54.13 76.47H10.77l-.04-.04-9.17-9.18v-6.97h.28v6.86l9.05 9.05h43.12l4.95-4.95h14.27v.28H59.08l-4.95 4.95zM1.04 60.28v1.27l-.93.92V61.2l.93-.92zM1.04 62.13v1.27l-.93.93v-1.28l.93-.92zM1.04 63.98v1.28l-.93.92v-1.27l.93-.93z"/><path class="cls-5" d="M14.17 78.54H9.8l-.01-.01-5.51-5.51v-2.17L.99 67.56v-1.5h.09v1.46l3.29 3.29v2.17l5.47 5.47h4.29l1.15-1.14h5.57v.09h-5.54l-1.14 1.14z"/><path class="cls-5" d="M14.74 77.27l-.72.72h-3.99L4.84 72.8v-.91l5.38 5.38h4.52z"/><path class="cls-5" transform="rotate(-44.98 29.776 620.723)" d="M400.43 215.02h.19v.19h-.19z"/><path class="cls-5" d="M402.09 216.81l-.31-.31.13-.13.31.31zm-.47-.47l-.78-.78.13-.13.78.78zM404.58 219.3l-.31-.31.13-.13.31.31zm-.47-.47l-.78-.78.13-.13.78.78zm-1.11-1.08l-.16-.16.13-.13.16.16z" transform="translate(-395.2 -143.36)"/><path class="cls-5" transform="rotate(-45 34.872 625.455)" d="M405.4 219.99h.19v.19h-.19z"/><path class="cls-4" d="M49.43 5.35l-1.32-1.32h-5.35l-2.62-2.61H29.26L28.18 2.5h-2.51l-.63.63h3.23l2.23 2.22h18.93z"/><path class="cls-5" d="M25.82 2.33l.9-.9h.21l-.9.9h-.21zM26.34 2.33l.9-.9h.22l-.91.9h-.21zM26.87 2.33l.9-.9h.21l-.9.9h-.21zM27.39 2.33l.9-.9h.21l-.9.9h-.21zM27.92 2.33l.9-.9h.21l-.9.9h-.21z"/><path class="cls-6" d="M111.97 7.06v-.69l-4.94-4.94h-18l-1.69 1.69 3.17.01h8.3l.87-.88h6.93l6.5 6.5V8.2l-1.14-1.14z"/><path class="cls-5" d="M114.02 9.11v.3l.35.35v-.29l-.35-.36zM114.62 9.71v.3l.35.36v-.3l-.35-.36zM115.22 10.31v.3l.35.35v-.29l-.35-.36z"/><path class="cls-5" d="M120.08 17.42h-.19v-4.39l-2.36-2.37h-.84l-3.81-3.82.13-.13 3.76 3.76h.83l2.48 2.48v4.47zM29.85.8h9.78v.19h-9.78zM28.47.28h9.78v.19h-9.78z"/><path class="cls-6" d="M118.95 52.73v10.73l-3.04 3.04-1.91 1.9v2.21l-1.95 1.96h-4.45l-1.69-1.68-.27-.28H95.55l1.93-1.93h10.71l4.39-4.39h3.13l2.57-2.57V53.4l.67-.67z"/><path style="mix-blend-mode:overlay" opacity=".49" fill="#fff" d="M115.91 66.5L114 68.4v2.21l-1.95 1.96h-4.45l-1.69-1.68h3.98l4.38-4.39h1.64z"/><path class="cls-2" d="M110.21 71.42h-7.47v-.19h7.4l5.3-5.3h1.85l2.13-2.13v-6.2h.19v6.28l-2.24 2.24h-1.85l-5.31 5.3zM101.52 71.87h4.39v.19h-4.39z"/><path fill="#29e5e2" d="M70.09 4.49H53.35l-1.97-1.97h-6.89v-.38h7.05l1.97 1.97h16.42l2.42-2.41h11.46v.37h-11.3l-2.42 2.42z"/><path class="cls-6" d="M93.8 69.72H76.98v-.37h16.66l2.27-2.27h6.99v.38h-6.84l-2.26 2.26zM115.47 62.55l-.27-.27 1.77-1.77V14.18h.38v46.49l-1.88 1.88zM53.89 75.5h-4.77l.98-.98h3.08l5.13-5.13h3.17l1.27 1.26h-3.97l-4.89 4.85z"/><path class="cls-4" d="M8.05 72.28l3.22 3.22h6.68l-.81-.8h-1.69l-.85-.85h-2.86l-2.56-2.57H7.05l1 1zM2.48 61.98v.73l1.43 1.43v-1.08l-1.43-1.43v.35zM2.48 63.67v.74l1.43 1.43v-1.08l-1.43-1.43v.34zM2.48 65.37v.74l1.43 1.43v-1.09l-1.43-1.42v.34z"/><path class="cls-5" d="M5.59 9.76l-.14-.13 5.32-5.32h7.1L19.18 3h4.57v.18h-4.49L17.94 4.5h-7.09L5.59 9.76z"/><path class="cls-5" d="M441.37 218.39h-.61v-.19h.61v.19zm-1.36 0h-.38v-.19h.37v.19zm-2.25 0H437v-.19h.75v.19zm-1.13 0h-1.88v-.19h1.88v.19zm-2.63 0h-.38v-.19h.38v.19zm-2.25 0H431v-.19h.75v.19zm-1.13 0h-1.88v-.19h1.88v.19zm-2.63 0h-.38v-.19h.39v.19zm-2.25 0H425v-.19h.75v.19zm-1.13 0h-1.88v-.19h1.88v.19zm-2.63 0h-.38v-.19h.4v.19zm-2.25 0H419v-.19h.75v.19zm-1.13 0h-1.88v-.19h1.88v.19zm-2.63 0h-.38v-.19h.41v.19zM439.69 150.12h-.05v-.19h.05v.19zm-.43 0h-1.88v-.19h1.88v.19zm-2.63 0h-.38v-.19h.38v.19zm-2.25 0h-.75v-.19h.75v.19zm-1.13 0h-1.88v-.19h1.88v.19zm-2.63 0h-.38v-.19h.38v.19zm-2.25 0h-.75v-.19h.75v.19zm-1.13 0h-1.88v-.19h1.88v.19zm-2.58-.32l-.27-.27.13-.13.27.27zm-1.59-1.59l-.45-.45v-.19h.11l.51.51zm-.86-.45h-1.88v-.19h1.88v.19zm-2.63 0h-.38v-.19h.38v.19zM461.81 144.88h-.33v-.19h.33v.19zm-1.08 0h-.38v-.19h.38v.19zm-2.25 0h-.75v-.19h.75v.19zm-1.13 0h-1.88v-.19h1.88v.19zm-2.63 0h-.38v-.19h.38v.19zm-2.25 0h-.75v-.19h.75v.19zm-1.13 0h-1.88v-.19h1.88v.19zm-2.63 0h-.38v-.19h.38v.19z" transform="translate(-395.2 -143.36)"/></g></g></svg>