<svg id="Layer_1" data-name="Layer 1" xmlns="http://www.w3.org/2000/svg" viewBox="0 0 224.98 85.91"><defs><style>.cls-1{fill:#0ff}</style></defs><path id="_复合路径_" data-name="&lt;复合路径&gt;" class="cls-1" d="M650.1 368.63H437.29V287h170l42.81 40.6v41zm-211.85-1h210.89V328l-42.21-40H438.25v79.72z" transform="translate(-433.36 -286.8)"/><path id="_路径_" data-name="&lt;路径&gt;" class="cls-1" d="M54.51 85.91H0V41.34h.96v43.61h53.55v.96z"/><path id="_路径_2" data-name="&lt;路径&gt;" class="cls-1" d="M4.41.67l3.08 3.08h50.04L60.66.62 4.41.67z"/><path id="_路径_3" data-name="&lt;路径&gt;" class="cls-1" d="M80.32.67l1.96 1.96h74.99l5.16-1.96H80.32z"/><path id="_路径_4" data-name="&lt;路径&gt;" class="cls-1" transform="rotate(-46.93 79.354 665.64)" d="M625.93 281.28h.96v57.19h-.96z"/><path id="_路径_5" data-name="&lt;路径&gt;" class="cls-1" d="M220.34 85.03h-32.01v-.96h31.05V53.02h.96v32.01z"/><path id="_路径_6" data-name="&lt;路径&gt;" class="cls-1" d="M63.23 81.35l2.56 2.88h50.18l3.2-2.88H63.23z"/><path id="_路径_7" data-name="&lt;路径&gt;" class="cls-1" d="M133.9 81.35l4-2.4h40.5l3.04 2.4H133.9z"/><path id="_复合路径_2" data-name="&lt;复合路径&gt;" class="cls-1" d="M652.24 326.82L611 287.49l.66-.7 22.56 21.48 4.63-.3 12.8 12.8zm-17.12-17.63L651 324.32l-.33-3.09L638.43 309z" transform="translate(-433.36 -286.8)"/><path id="_路径_8" data-name="&lt;路径&gt;" class="cls-1" d="M216.25 53.82l-1.96 1.96v23.65h-23.72l-3.6 1.92h29.28V53.82z"/><path id="_矩形_" data-name="&lt;矩形&gt;" class="cls-1" d="M219.86 53.02h5.12v20.09h-5.12z"/><path id="_矩形_2" data-name="&lt;矩形&gt;" class="cls-1" d="M7.2 79.61h3.06v1.74H7.2z"/><path id="_矩形_3" data-name="&lt;矩形&gt;" class="cls-1" d="M11.32 79.61h3.06v1.74h-3.06z"/><path id="_矩形_4" data-name="&lt;矩形&gt;" class="cls-1" d="M15.44 79.61h3.06v1.74h-3.06z"/><path id="_矩形_5" data-name="&lt;矩形&gt;" class="cls-1" d="M19.55 79.61h3.06v1.74h-3.06z"/><path id="_矩形_6" data-name="&lt;矩形&gt;" class="cls-1" d="M23.67 79.61h3.06v1.74h-3.06z"/><path id="_矩形_7" data-name="&lt;矩形&gt;" class="cls-1" d="M192.75 78.44h.54v3.06h-.54z"/><path id="_矩形_8" data-name="&lt;矩形&gt;" class="cls-1" d="M194.73 78.44h.54v3.06h-.54z"/><path id="_矩形_9" data-name="&lt;矩形&gt;" class="cls-1" d="M196.72 78.44h.54v3.06h-.54z"/><path id="_矩形_10" data-name="&lt;矩形&gt;" class="cls-1" d="M198.71 78.44h.54v3.06h-.54z"/><path id="_矩形_11" data-name="&lt;矩形&gt;" class="cls-1" d="M200.69 78.44h.54v3.06h-.54z"/><path id="_矩形_12" data-name="&lt;矩形&gt;" class="cls-1" d="M202.68 78.44h.54v3.06h-.54z"/><path id="_矩形_13" data-name="&lt;矩形&gt;" class="cls-1" d="M204.66 78.44h.54v3.06h-.54z"/><path id="_矩形_14" data-name="&lt;矩形&gt;" class="cls-1" d="M206.65 78.44h.54v3.06h-.54z"/><path id="_矩形_15" data-name="&lt;矩形&gt;" class="cls-1" d="M208.64 78.44h.54v3.06h-.54z"/><path id="_矩形_16" data-name="&lt;矩形&gt;" class="cls-1" d="M210.62 78.44h.54v3.06h-.54z"/><path id="_矩形_17" data-name="&lt;矩形&gt;" class="cls-1" d="M212.61 78.44h.54v3.06h-.54z"/><path id="_矩形_18" data-name="&lt;矩形&gt;" class="cls-1" d="M4.41 7.24h1.84v18.33H4.41z"/><path id="_矩形_19" data-name="&lt;矩形&gt;" class="cls-1" d="M1.52 28.45h2.56v11.53H1.52z"/><path id="_矩形_20" data-name="&lt;矩形&gt;" class="cls-1" d="M85.72 2.19h6.32v.89h-6.32z"/><path id="_矩形_21" data-name="&lt;矩形&gt;" class="cls-1" d="M94.72 2.19h6.32v.89h-6.32z"/><path id="_矩形_22" data-name="&lt;矩形&gt;" class="cls-1" d="M103.73 2.19h6.32v.89h-6.32z"/><path id="_矩形_23" data-name="&lt;矩形&gt;" class="cls-1" d="M112.73 2.19h6.32v.89h-6.32z"/><path id="_矩形_24" data-name="&lt;矩形&gt;" class="cls-1" d="M121.74 2.19h6.32v.89h-6.32z"/><path id="_矩形_25" data-name="&lt;矩形&gt;" class="cls-1" d="M130.74 2.19h6.32v.89h-6.32z"/><path id="_矩形_26" data-name="&lt;矩形&gt;" class="cls-1" d="M139.74 2.19h6.32v.89h-6.32z"/><path id="_矩形_27" data-name="&lt;矩形&gt;" class="cls-1" d="M148.75 2.19h6.32v.89h-6.32z"/></svg>