<svg id="Layer_1" data-name="Layer 1" xmlns="http://www.w3.org/2000/svg" viewBox="0 0 211.89 103.57"><defs><style>.cls-1{fill:aqua;}</style></defs><title>border57</title><path class="cls-1" d="M226.07,149.67v10.92l0,0-4.61,4.61V201H202.88l-13.55,13.55v18.53H60.66V214.59L47.12,201H28.59v-35.8L24,160.63l0,0v-22H226.07v11.1ZM125,242H24.47V205l-0.22-.21V178l0,0-4.62-4.61V153.29l2.84-2.83V138.56H19.27V173.5l0,0,4.62,4.62v26.36l-1.72-1.72v-22.2l-3.16-3.16v14.91l2.26,2.26v47.53H228.69V194.6l2.26-2.26V177.44l-3.16,3.16v22.2l-1.72,1.72V178.16l4.61-4.62,0,0V138.56h-3.15v11.89l2.83,2.83v20.07L225.79,178l0,0v26.81l-0.21.21V242H125Zm0-9.17h64V210.48l0,0,9.68-9.67,0,0H221.1V165.11l0,0,4.61-4.61V143.81H158.19l-8.45,8.46,0,0H100.3l0,0-8.45-8.46H24.25v16.65l4.61,4.61,0,0v35.61H51.22l0,0,9.67,9.67,0,0V232.8h64ZM24.25,143.5H91.93l0,0,8.45,8.45h49.12l8.46-8.45,0,0h67.69v-2.23H125.45l-0.45.45-0.45-.45H24.25v2.23Zm0-2.55H124.68l0,0,0.27,0.27,0.27-.27,0,0H225.75v-2.07H24.25V141ZM78,145.21h4.55l7.12,7.13H85.12Zm-52.1,0h5.53l7.12,7.13H25.89v-7.13Zm8.29,0h4.55l7.12,7.13H41.3Zm7.3,0H46l7.12,7.13H48.6Zm7.3,0h4.55l7.13,7.13H55.91Zm7.3,0h4.55l7.12,7.13H63.21Zm7.3,0h4.55l7.12,7.13H70.51Zm7.3,0h4.55l7.13,7.13H77.81Zm14.6,0h4.55L97,152.34H92.42Zm-44,64.26v2.45H42v-2.45H41.34Zm0,19.26v2.45H42v-2.45H41.34Zm-2.19,2.16,0.64-2.36-0.61-.17-0.64,2.37Zm5-18.6,0.63-2.36-0.61-.17-0.64,2.37ZM36.5,229.9l1.23-2.13-0.54-.32L36,229.58Zm9.63-16.69,1.23-2.12-0.55-.31-1.23,2.12Zm-11.93,15,1.73-1.73-0.45-.44-1.73,1.73Zm13.61-13.61,1.73-1.73-0.44-.45-1.73,1.73ZM32.42,226l2.12-1.23-0.32-.55-2.12,1.22Zm16.67-9.63,2.13-1.23-0.32-.54-2.12,1.23Zm-17.84,7,2.36-.63-0.16-.62-2.37.64Zm18.6-5,2.36-.64-0.16-.61-2.37.64ZM30.8,220.65h2.45V220H30.8v0.64Zm19.27,0h2.44V220H50.06v0.64Zm-19-2.83,2.37,0.64,0.16-.61-2.36-.64Zm18.6,5,2.37,0.63,0.16-.61-2.36-.64ZM32.1,215.18l2.12,1.23,0.32-.54-2.12-1.23Zm16.68,9.63L50.9,226l0.32-.55-2.12-1.22Zm-15-11.93,1.73,1.73,0.45-.45-1.73-1.73ZM47.38,226.5l1.73,1.73,0.45-.44-1.73-1.73ZM36,211.09l1.23,2.12,0.54-.32-1.23-2.12Zm9.63,16.67,1.22,2.13,0.55-.32-1.23-2.13Zm-7.05-17.83,0.64,2.36,0.61-.16-0.64-2.37Zm5,18.6,0.63,2.36,0.62-.16-0.64-2.37Zm-1.87-14.59A6.39,6.39,0,1,0,48,220.34h1.27a7.65,7.65,0,1,1-7.65-7.65v1.26Zm13.64,6.39a13.65,13.65,0,0,0-13.64-13.65V206A14.32,14.32,0,1,0,56,220.34H55.3Zm-13.64-13a13,13,0,0,1,13,13H54A12.33,12.33,0,1,1,41.66,208v-0.67ZM172,145.21h-4.54l-7.13,7.13h4.55Zm36.66,64.26v2.45H208v-2.45h0.64Zm-0.32,3.21a7.65,7.65,0,1,1-7.65,7.65H202a6.38,6.38,0,1,0,6.39-6.39v-1.26Zm-13.64,7.65a13.64,13.64,0,0,1,13.64-13.65V206A14.33,14.33,0,1,1,194,220.34h0.67Zm0.63,0H196A12.33,12.33,0,1,0,208.34,208v-0.67a13,13,0,0,0-13,13h0ZM125,234.58h2.09L125,237.07l-2.1-2.48H125Zm-3.18,0h-1l2.49,3h1c-0.82-1-1.66-2-2.49-3h0Zm-2.07,0h-1c0.83,1,1.67,2,2.49,3h1l-2.49-3h0Zm-3.07,0,2.5,3h1l-2.49-3h-1Zm-1.08,0h-1l2.49,3h1l-2.5-3h0Zm-2.07,0h-1l2.5,3h1l-2.49-3h0Zm-2.08,0h-1l2.49,3h1q-1.24-1.49-2.49-3h0Zm-2.07,0h-1c0.83,1,1.67,2,2.49,3h1l-2.49-3h0Zm-2.08,0h-1l2.5,3h1l-2.49-3h0Zm-2.08,0h-1l2.49,3h1l-2.5-3h0Zm-2.07,0h-1l2.5,3h1l-2.49-3h0Zm-2.08,0h-1l2.49,3h1c-0.82-1-1.66-2-2.49-3h0Zm-2.07,0H98q1.25,1.48,2.49,3h1l-2.49-3h0Zm-2.08,0h-1l2.5,3h1q-1.24-1.49-2.49-3h0Zm-2.08,0h-1l2.49,3h1l-2.5-3h0Zm-2.07,0h-1l2.5,3h1l-2.49-3h0Zm-2.08,0h-1l2.49,3h1l-2.5-3h0Zm-2.07,0h-1q1.25,1.48,2.49,3h1l-2.49-3h0Zm-2.08,0h-1l2.5,3h1c-0.82-1-1.66-2-2.49-3h0Zm-2.08,0h-1l2.49,3h1l-2.5-3h0Zm-2.07,0h-1l2.5,3h1l-2.49-3h0Zm-2.08,0h-1l2.49,3h1l-2.5-3h0Zm-2.07,0h-1q1.25,1.48,2.49,3h1l-2.49-3h0Zm-2.08,0h-1l2.5,3h1q-1.24-1.49-2.49-3h0Zm-2.08,0h-1l2.49,3h1l-2.5-3h0Zm-2.07,0H71l2.5,3h1l-2.49-3h0Zm-2.08,0H69l2.49,3h1l-2.5-3h0Zm-2.07,0h-1q1.25,1.48,2.49,3h1l-2.49-3h0Zm-2.08,0h-1l2.5,3h1q-1.24-1.49-2.49-3h0Zm-2.08,0h-1l2.49,3h1l-2.5-3h0Zm-2.07,0h-1l2.5,3h1Zm66.52,0h1q-1.25,1.48-2.49,3h-1l2.49-3h0Zm2.08,0h1l-2.5,3h-1l2.49-3h0Zm3.06,0-2.49,3h-1l2.5-3h1Zm1.09,0h1l-2.5,3h-1l2.49-3h0Zm2.08,0h1l-2.49,3h-1q1.23-1.49,2.49-3h0Zm2.07,0h1c-0.83,1-1.67,2-2.49,3h-1l2.49-3h0Zm2.08,0h1l-2.5,3h-1l2.49-3h0Zm2.08,0h1l-2.49,3h-1l2.5-3h0Zm2.07,0h1l-2.5,3h-1l2.49-3h0Zm2.08,0h1l-2.49,3h-1c0.82-1,1.66-2,2.49-3h0Zm2.07,0h1q-1.25,1.48-2.49,3h-1l2.49-3h0Zm2.08,0h1l-2.5,3h-1q1.24-1.49,2.49-3h0Zm2.08,0h1l-2.49,3h-1l2.5-3h0Zm2.07,0h1l-2.5,3h-1l2.49-3h0Zm2.08,0h1l-2.49,3h-1c0.82-1,1.66-2,2.49-3h0Zm2.07,0h1q-1.25,1.48-2.49,3h-1l2.49-3h0Zm2.08,0h1l-2.5,3h-1c0.82-1,1.66-2,2.49-3h0Zm2.08,0h1l-2.49,3h-1l2.5-3h0Zm2.07,0h1l-2.5,3h-1l2.49-3h0Zm2.08,0h1l-2.49,3h-1l2.5-3h0Zm2.07,0h1q-1.25,1.48-2.49,3h-1l2.49-3h0Zm2.08,0h1l-2.5,3h-1c0.82-1,1.66-2,2.49-3h0Zm2.08,0h1l-2.49,3h-1l2.5-3h0Zm2.07,0h1l-2.5,3h-1l2.49-3h0Zm2.08,0h1l-2.49,3h-1l2.5-3h0Zm2.07,0h1q-1.25,1.48-2.49,3h-1l2.49-3h0Zm2.08,0h1l-2.5,3h-1c0.82-1,1.66-2,2.49-3h0Zm2.08,0h1l-2.49,3h-1l2.5-3h0Zm2.07,0h1l-2.5,3h-1l2.49-3h0Zm2.08,0h1l-2.49,3h-1Zm20.32-5.85v2.45H208v-2.45h0.64Zm2.18,2.16-0.63-2.36,0.61-.17,0.64,2.37Zm-5-18.6-0.64-2.36,0.62-.17,0.63,2.37Zm7.63,17.6-1.23-2.13,0.55-.32,1.23,2.13Zm-9.62-16.69-1.23-2.12,0.54-.31,1.23,2.12Zm11.93,15-1.73-1.73,0.45-.44,1.73,1.73Zm-13.62-13.61-1.73-1.73,0.45-.45,1.73,1.73ZM217.58,226l-2.12-1.23,0.32-.55,2.13,1.22ZM200.9,216.4l-2.12-1.23,0.32-.54,2.12,1.23Zm17.84,7-2.37-.63,0.17-.62,2.36,0.64Zm-18.6-5-2.37-.64,0.17-.61,2.36,0.64Zm19.05,2.19h-2.44V220h2.44v0.64Zm-19.26,0h-2.45V220h2.45v0.64Zm19-2.83-2.36.64-0.17-.61,2.37-.64Zm-18.6,5-2.36.63-0.17-.61,2.37-.64Zm17.6-7.64-2.12,1.23-0.32-.54,2.13-1.23Zm-16.68,9.63L199.1,226l-0.32-.55,2.12-1.22Zm15-11.93-1.73,1.73-0.44-.45,1.73-1.73ZM202.62,226.5l-1.73,1.73-0.45-.44,1.73-1.73ZM214,211.09l-1.23,2.12-0.55-.32,1.23-2.12Zm-9.63,16.67-1.23,2.13-0.54-.32,1.23-2.13Zm7-17.83-0.64,2.36-0.62-.16,0.64-2.37Zm-5,18.6-0.64,2.36-0.61-.16,0.64-2.37Zm17.63-83.33h-5.52l-7.13,7.13H224.1v-7.13Zm-8.29,0h-4.54l-7.14,7.13h4.55Zm-7.3,0H204l-7.13,7.13h4.55Zm-7.3,0h-4.54l-7.13,7.13h4.55Zm-7.3,0h-4.54l-7.13,7.13h4.55Zm-7.3,0h-4.54l-7.13,7.13h4.55Zm-7.3,0h-4.54l-7.13,7.13h4.55Zm-14.6,0h-4.54L153,152.34h4.55Z" transform="translate(-19.06 -138.56)"/></svg>