<svg id="Layer_1" data-name="Layer 1" xmlns="http://www.w3.org/2000/svg" viewBox="0 0 625.62 201.22"><defs><style>.cls-1{fill:#02a6ff;}</style></defs><title>border17</title><g id="_编组_" data-name="&lt;编组&gt;"><path id="_复合路径_" data-name="&lt;复合路径&gt;" class="cls-1" d="M2334.19,1158.63h-227V1139h-248v19.68H1708.56v-87.57h16.82v-26.57h-16.82V959.87H1811v4.92h56.09v-4.92h268.63v4.92h28.54v-4.92h169.95v81.67h-14.48v42.31h14.48v74.78ZM2119,1146.82h203.4v-51.17H2307.9v-65.93h14.48V971.68H2176v4.92H2123.9v-4.92h-245v4.92h-79.7v-4.92h-78.81v61h16.82v50.18h-16.82v64h127v-19.68H2119v19.68Z" transform="translate(-1708.56 -959.87)"/><rect id="_矩形_" data-name="&lt;矩形&gt;" class="cls-1" x="39.95" y="185.48" width="28.37" height="15.74"/><g id="_编组_2" data-name="&lt;编组&gt;"><path id="_复合路径_2" data-name="&lt;复合路径&gt;" class="cls-1" d="M1846.82,1150.76h-52.15l6.4-6.4h39.35Zm-47.4-2h42.64l-2.46-2.46h-37.72Z" transform="translate(-1708.56 -959.87)"/></g><path id="_复合路径_3" data-name="&lt;复合路径&gt;" class="cls-1" d="M1907.91,1153.71h-44V1138h44v15.74Zm-42.07-2h40.1v-11.81h-40.1v11.81Z" transform="translate(-1708.56 -959.87)"/><path id="_复合路径_4" data-name="&lt;复合路径&gt;" class="cls-1" d="M1956.87,1153.71h-44V1138h44v15.74Zm-42.07-2h40.1v-11.81h-40.1v11.81Z" transform="translate(-1708.56 -959.87)"/><path id="_复合路径_5" data-name="&lt;复合路径&gt;" class="cls-1" d="M2005.82,1153.71h-44V1138h44v15.74Zm-42.07-2h40.1v-11.81h-40.1v11.81Z" transform="translate(-1708.56 -959.87)"/><path id="_复合路径_6" data-name="&lt;复合路径&gt;" class="cls-1" d="M2054.77,1153.71h-44V1138h44v15.74Zm-42.07-2h40.1v-11.81h-40.1v11.81Z" transform="translate(-1708.56 -959.87)"/><path id="_复合路径_7" data-name="&lt;复合路径&gt;" class="cls-1" d="M2103.73,1153.71h-44V1138h44v15.74Zm-42.07-2h40.1v-11.81h-40.1v11.81Z" transform="translate(-1708.56 -959.87)"/><rect id="_矩形_2" data-name="&lt;矩形&gt;" class="cls-1" x="588.64" y="89.79" width="33.7" height="2.46"/><rect id="_矩形_3" data-name="&lt;矩形&gt;" class="cls-1" x="588.64" y="85.36" width="33.7" height="2.46"/><rect id="_矩形_4" data-name="&lt;矩形&gt;" class="cls-1" x="588.64" y="94.95" width="33.7" height="2.46"/><rect id="_矩形_5" data-name="&lt;矩形&gt;" class="cls-1" x="588.64" y="100.12" width="33.7" height="2.46"/><rect id="_矩形_6" data-name="&lt;矩形&gt;" class="cls-1" x="588.64" y="105.29" width="33.7" height="2.46"/><rect id="_矩形_7" data-name="&lt;矩形&gt;" class="cls-1" x="588.64" y="110.45" width="33.7" height="2.46"/><rect id="_矩形_8" data-name="&lt;矩形&gt;" class="cls-1" x="588.64" y="115.62" width="33.7" height="2.46"/><rect id="_矩形_9" data-name="&lt;矩形&gt;" class="cls-1" x="588.64" y="120.78" width="33.7" height="2.46"/><polygon id="_路径_" data-name="&lt;路径&gt;" class="cls-1" points="389.67 20.99 188.94 20.99 174.55 6.6 175.94 5.21 189.75 19.02 388.85 19.02 402.26 5.62 403.65 7.01 389.67 20.99"/><rect id="_矩形_10" data-name="&lt;矩形&gt;" class="cls-1" x="432.88" y="181.05" width="6.56" height="7.54"/><rect id="_矩形_11" data-name="&lt;矩形&gt;" class="cls-1" x="443.71" y="181.05" width="6.56" height="7.54"/><rect id="_矩形_12" data-name="&lt;矩形&gt;" class="cls-1" x="454.53" y="181.05" width="6.56" height="7.54"/><rect id="_矩形_13" data-name="&lt;矩形&gt;" class="cls-1" x="465.35" y="181.05" width="6.56" height="7.54"/><rect id="_矩形_14" data-name="&lt;矩形&gt;" class="cls-1" x="476.18" y="181.05" width="6.56" height="7.54"/><rect id="_矩形_15" data-name="&lt;矩形&gt;" class="cls-1" x="487" y="181.05" width="6.56" height="7.54"/><rect id="_矩形_16" data-name="&lt;矩形&gt;" class="cls-1" x="497.82" y="181.05" width="6.56" height="7.54"/><rect id="_矩形_17" data-name="&lt;矩形&gt;" class="cls-1" x="508.65" y="181.05" width="6.56" height="7.54"/><rect id="_矩形_18" data-name="&lt;矩形&gt;" class="cls-1" x="519.47" y="181.05" width="6.56" height="7.54"/><rect id="_矩形_19" data-name="&lt;矩形&gt;" class="cls-1" x="530.3" y="181.05" width="6.56" height="7.54"/><rect id="_矩形_20" data-name="&lt;矩形&gt;" class="cls-1" x="541.12" y="181.05" width="6.56" height="7.54"/><rect id="_矩形_21" data-name="&lt;矩形&gt;" class="cls-1" x="551.94" y="181.05" width="6.56" height="7.54"/><rect id="_矩形_22" data-name="&lt;矩形&gt;" class="cls-1" x="562.77" y="181.05" width="6.56" height="7.54"/><rect id="_矩形_23" data-name="&lt;矩形&gt;" class="cls-1" x="429.44" y="184.25" width="142.19" height="1.15"/></g></svg>