<svg id="Layer_5" data-name="Layer 5" xmlns="http://www.w3.org/2000/svg" viewBox="0 0 819.18 454.74"><defs><style>.cls-1,.cls-2{fill:#03a6ff}.cls-1{opacity:.3}</style></defs><path class="cls-1" d="M548.2 450.25l-29.41 1.61 1.6-1.61h27.81z"/><path class="cls-2" d="M165.71 454.74h-42.2l-47.5-47.5h42.2l47.5 47.5zM114.31 454.74H72.12l-47.56-47.57h42.19l47.56 47.57zM819.18 404.62v-32.21l-32.21 32.21h32.21zM382.52 0L354 28.5h-22.65L359.85 0h22.67zM350.25 0l-28.51 28.5h-22.65L327.59 0h22.66zM317.99 0l-28.51 28.5h-22.66L295.33 0h22.66zM285.73 0l-28.52 28.5h-22.65L263.06 0h22.67zM253.47 0l-28.52 28.5H202.3L230.8 0h22.67zM221.2 0l-28.51 28.5h-22.65L198.54 0h22.66zM188.94 0l-28.51 28.5h-22.66L166.28 0h22.66zM128.72 28.5L157.21 0h-44.22L84.48 28.5h44.24zM5.83 35.62V69.6L39.8 35.62H5.83z"/><path fill="#00558d" opacity=".3" d="M793.79 143.17v208.64L763.5 382.1H588.55l-68.16 68.15H178.2l-58.2-58.2H10.3V92.34h376.86l87.57-87.57-75.06-.29h255.44l138.68 138.69z"/><path class="cls-1" d="M474.73 4.77l-87.57 87.57H10.3L62.54 40.1h301.52l35.61-35.62 75.06.29zM814.7 97.82v260.71l-41.6 41.6H598.32l-50.12 50.12h-27.81l68.16-68.15H763.5l30.29-30.29V143.17l-45.34-45.35h66.25z"/><path class="cls-2" d="M2186.15 229.36L2092.81 136h-285.26l-35.61 35.61h-301.51l-54.86 54.86-5.82 5.82v174.14l5.82 5.82v120.3h112.32l58.21 58.21h373.7l14.08-14.08 36-36h174.82l44.23-44.23v-267h-42.77zm38.29 265.19l-41.6 41.6h-174.78l-40.52 40.52h-370l-52.06-52.06H1420V228.36l52.24-52.24h301.51l35.61-35.61h255.44l93.34 93.34h66.26v260.71z" transform="translate(-1409.74 -136.03)"/></svg>