<svg id="Layer_1" data-name="Layer 1" xmlns="http://www.w3.org/2000/svg" viewBox="0 0 221.64 116.21"><defs><style>.cls-1{fill:#0ff}</style></defs><path id="_复合路径_" data-name="&lt;复合路径&gt;" class="cls-1" d="M650.1 268.74H436.64V166H650.1v102.74zm-212.5-1h211.54v-100.8H437.6v100.84z" transform="translate(-432.62 -158.62)"/><path id="_路径_" data-name="&lt;路径&gt;" class="cls-1" d="M4.5 42.17l6.96-6.96V16.48h22.9l8.88-8.88H4.5v34.57z"/><path id="_路径_2" data-name="&lt;路径&gt;" class="cls-1" d="M216.99 109.64l-10.62 5.77h-84.68l-11.46-5.77h106.76z"/><path id="_路径_3" data-name="&lt;路径&gt;" class="cls-1" d="M221.64 71.23h-.96V4.24h-78.06v-.96h79.02v67.95z"/><path id="_路径_4" data-name="&lt;路径&gt;" class="cls-1" d="M26.07 116.21H.02V88.84h.96v26.41h25.09v.96z"/><path id="_矩形_" data-name="&lt;矩形&gt;" class="cls-1" d="M142.62 0h24.91v2.32h-24.91z"/><path id="_路径_5" data-name="&lt;路径&gt;" class="cls-1" d="M1 37.49H0V1.64h92.82v1H1v34.85z"/><path id="_路径_6" data-name="&lt;路径&gt;" class="cls-1" d="M100.13 7.84l2.78 2.77h67.01l2.59-2.58-72.38-.19z"/><path id="_路径_7" data-name="&lt;路径&gt;" class="cls-1" d="M21.01 109.64l2.54 2.55h43.58l2.88-2.55h-49z"/><path id="_路径_8" data-name="&lt;路径&gt;" class="cls-1" d="M216.99 35.06l-2.82 6.72v36.03l2.82 6V35.06z"/></svg>