<svg xmlns="http://www.w3.org/2000/svg" xmlns:xlink="http://www.w3.org/1999/xlink" viewBox="0 0 273.09 290.57"><defs><style>.cls-1{isolation:isolate;}.cls-2{fill:#0071bc;}.cls-3{fill:aqua;}.cls-4{fill:#2e3192;}.cls-5{fill:#29abe2;}.cls-6{fill:#ff4a00;}.cls-7{fill:url(#linear-gradient);}.cls-8{fill:url(#linear-gradient-2);}.cls-9{fill:#fff;opacity:0.34;mix-blend-mode:overlay;}.cls-10{fill:url(#linear-gradient-3);}.cls-11{fill:url(#linear-gradient-4);}</style><linearGradient id="linear-gradient" x1="406.77" y1="311.56" x2="446.3" y2="287.65" gradientTransform="translate(120 480) rotate(-90)" gradientUnits="userSpaceOnUse"><stop offset="0.37" stop-color="#dc0000"/><stop offset="0.4" stop-color="#e21200"/><stop offset="0.46" stop-color="#eb3000"/><stop offset="0.53" stop-color="#f24900"/><stop offset="0.6" stop-color="#f85c00"/><stop offset="0.69" stop-color="#fc6a00"/><stop offset="0.8" stop-color="#fe7200"/><stop offset="1" stop-color="#ff7400"/></linearGradient><linearGradient id="linear-gradient-2" x1="668.59" y1="311.56" x2="708.13" y2="287.65" gradientTransform="matrix(0, 1, 1, 0, 120, -381.82)" xlink:href="#linear-gradient"/><linearGradient id="linear-gradient-3" x1="406.77" y1="88.29" x2="446.3" y2="64.38" gradientTransform="matrix(0, -1, -1, 0, 256.73, 480)" xlink:href="#linear-gradient"/><linearGradient id="linear-gradient-4" x1="668.59" y1="88.29" x2="708.13" y2="64.38" gradientTransform="translate(256.73 -381.82) rotate(90)" xlink:href="#linear-gradient"/></defs><title>border27</title><g class="cls-1"><g id="Layer_5" data-name="Layer 5"><path class="cls-2" d="M430.29,283l1.28,1.45q-0.15,2.68-.31,5.35L430,291l-0.09,1.53,2.51-2.25q0.11-1.82.21-3.64l1.8-1.62q0.22-4,.43-7.93l0.47-.43q0.14-2.62.28-5.25l-4.89,4.48Q430.49,279.45,430.29,283Z" transform="translate(-163.45 -34.72)"/><path class="cls-2" d="M434.18,225l-1.35-1.43q0,1.31-.06,2.62l2.67,2.84q-0.26,10-.63,20.08l1.64,1.8q0-1.28.1-2.56l-0.75-.82q0.34-9.47.59-18.94l-2.23-2.38Z" transform="translate(-163.45 -34.72)"/><path class="cls-3" d="M431.4,224.81l0.78,0.83q0-1.78.08-3.57l2.65,2.8q0,0.7,0,1.4l1.59,1.69q0-1.18.06-2.35L433.09,222q0-1.06,0-2.12l-0.59-.62,0-1.34-1-1.06Q431.49,220.83,431.4,224.81Z" transform="translate(-163.45 -34.72)"/><path class="cls-4" d="M431.58,216.28l1,1.05v-0.74l-1-1.05v0.74Z" transform="translate(-163.45 -34.72)"/><path class="cls-4" d="M431.61,215.08l1,1.05V215.4l-1-1.06v0.74Z" transform="translate(-163.45 -34.72)"/><path class="cls-4" d="M431.63,213.89l1,1.05V214.2l-1-1.05v0.74Z" transform="translate(-163.45 -34.72)"/><path class="cls-4" d="M431.65,212.69l1,1.05V213l-1-1.06v0.74Z" transform="translate(-163.45 -34.72)"/><path class="cls-4" d="M431.67,211.5l1,1.05v-0.74l-1-1.05v0.74Z" transform="translate(-163.45 -34.72)"/><path class="cls-2" d="M431.23,69.54q0.16,2.68.31,5.35l-1.28,1.45q0.2,3.57.38,7.14L435.53,88q-0.14-2.62-.28-5.25l-0.47-.43q-0.21-4-.43-7.93l-1.8-1.62q-0.1-1.82-.21-3.64l-2.51-2.25,0.09,1.53Z" transform="translate(-163.45 -34.72)"/><path class="cls-2" d="M435.44,130.29l-2.65,2.84q0,1.31.06,2.62l1.33-1.43,0-1.21,2.22-2.38q-0.25-9.47-.59-18.94l0.74-.82q0-1.28-.1-2.56l-1.63,1.8Q435.17,120.24,435.44,130.29Z" transform="translate(-163.45 -34.72)"/><path class="cls-3" d="M434.89,134.48l-2.64,2.8q0-1.78-.08-3.57l-0.78.83q0.1,4,.18,8l1-1.06q0-.67,0-1.34l0.58-.62q0-1.06,0-2.12l3.44-3.65q0-1.18-.06-2.35l-1.59,1.69Z" transform="translate(-163.45 -34.72)"/><path class="cls-4" d="M431.59,143.82l1-1.05V142l-1,1.05v0.74Z" transform="translate(-163.45 -34.72)"/><path class="cls-4" d="M431.61,145l1-1.06v-0.73l-1,1.05V145Z" transform="translate(-163.45 -34.72)"/><path class="cls-4" d="M431.63,146.21l1-1.05v-0.74l-1,1.05v0.74Z" transform="translate(-163.45 -34.72)"/><path class="cls-4" d="M431.65,147.41l1-1.06v-0.73l-1,1.05v0.74Z" transform="translate(-163.45 -34.72)"/><path class="cls-4" d="M431.67,148.6l1-1.05v-0.74l-1,1.05v0.74Z" transform="translate(-163.45 -34.72)"/><path class="cls-5" d="M414,61.39l3.45,3.05q0.18,2.86.35,5.72,4.17,3.72,8.33,7.48,0.42,7.59.77,15.19l-1.28,1.41q0.29,6.33.54,12.66l2.77,2.59q0.85,22.56,1.16,45.13l-2,2.12q0.29,22.94,0,45.88l2,2.12q-0.3,22.57-1.14,45.13l-1.79,1.68-1,.92q-0.25,6.33-.54,12.66l1.28,1.41q-0.35,7.6-.77,15.19-4.15,3.76-8.32,7.48-0.17,2.86-.35,5.72L414.06,298q-0.21,3.22-.42,6.44l3.52-3.1,0.11-1.75q3.34-2.95,6.66-5.91l2.17,0.13,2.28-2,0.08-1.32L430,289q0.08-1.39.16-2.78l-1.54-1.76q0.25-4.54.49-9.08,3.27-3,6.53-6,0.41-8.51.74-17l-2.56-2.8q0.38-10.1.64-20.21l-3.79-4q1.11-45.68,0-91.38l3.78-4q-0.27-10.1-.65-20.21l2.56-2.8q-0.33-8.51-.74-17-3.26-3-6.53-6-0.23-4.54-.49-9.08l1.54-1.76q-0.08-1.39-.16-2.78l-1.57-1.4-0.08-1.32-2.28-2-2.17.13q-3.33-3-6.66-5.91L417.12,58l-3.52-3.09Q413.81,58.17,414,61.39ZM430.13,204l-1.57-1.63q0.27-22.74,0-45.48l1.57-1.63Q430.44,179.68,430.13,204Z" transform="translate(-163.45 -34.72)"/><path class="cls-6" d="M431.68,149.13q0.25,15.27.25,30.55t-0.24,30.55l1,1q0-.62,0-1.24l-0.46-.48q0.11-7.17.17-14.34L434.7,193q0-6.64,0-13.29t0-13.29l-2.27-2.26q-0.06-7.17-.18-14.34l0.46-.48,0-1.24Zm2.53,17.46q0,6.54,0,13.08t0,13.08l-1.78,1.77q0.06-7.43.06-14.86t-0.06-14.86Z" transform="translate(-163.45 -34.72)"/><path class="cls-7" d="M434.77,72q-0.13-1.91-.26-3.83v0Q422,57.17,409.32,46.4l-0.11-.1V46.15q-0.45-5.45-.92-10.91a0.48,0.48,0,1,1,1-.08h0q0.37,5.46.71,10.93l-0.13-.25q12.45,11,24.77,22.35h0v0Q434.68,70.13,434.77,72Z" transform="translate(-163.45 -34.72)"/><path class="cls-8" d="M434.77,288q-0.13,1.91-.26,3.83v0Q422,302.83,409.32,313.6l-0.11.1v0.16q-0.45,5.45-.92,10.91a0.48,0.48,0,1,0,1,.08h0q0.37-5.46.71-10.93l-0.13.26q12.45-11,24.77-22.35h0v0Q434.68,289.87,434.77,288Z" transform="translate(-163.45 -34.72)"/><path class="cls-9" d="M427.81,108.42l1.14,1.07q0.85,22.56,1.16,45.13l-2,2.12q0.29,22.94,0,45.88l2,2.12q-0.3,22.57-1.14,45.13l-1.79,1.68q4.44,4.84,8.85,9.72,0.19-4.43.36-8.87l-2.56-2.8q0.38-10.1.64-20.21l-3.79-4q1.11-45.68,0-91.38l3.78-4q-0.27-10.1-.65-20.21l2.56-2.8q-0.15-3.8-.31-7.59Q431.95,103.92,427.81,108.42ZM430.13,204l-1.57-1.63q0.27-22.74,0-45.48l1.57-1.63Q430.44,179.68,430.13,204Z" transform="translate(-163.45 -34.72)"/><path class="cls-2" d="M169.71,283l-1.28,1.45q0.15,2.68.31,5.35L170,291l0.09,1.53-2.51-2.25q-0.11-1.82-.21-3.64l-1.8-1.62q-0.22-4-.43-7.93l-0.47-.43q-0.14-2.62-.28-5.25l4.89,4.48Q169.51,279.45,169.71,283Z" transform="translate(-163.45 -34.72)"/><path class="cls-2" d="M165.82,225l1.35-1.43q0,1.31.06,2.62l-2.67,2.84q0.26,10,.63,20.08l-1.64,1.8q0-1.28-.09-2.56l0.75-.82q-0.34-9.47-.59-18.94l2.23-2.38Z" transform="translate(-163.45 -34.72)"/><path class="cls-3" d="M168.6,224.81l-0.78.83q0-1.78-.08-3.57l-2.65,2.8q0,0.7,0,1.4L163.54,228q0-1.18-.06-2.35l3.44-3.65q0-1.06,0-2.12l0.59-.62,0-1.34,1-1.06Q168.51,220.83,168.6,224.81Z" transform="translate(-163.45 -34.72)"/><path class="cls-4" d="M168.42,216.28l-1,1.05v-0.74l1-1.05v0.74Z" transform="translate(-163.45 -34.72)"/><path class="cls-4" d="M168.39,215.08l-1,1.05V215.4l1-1.06v0.74Z" transform="translate(-163.45 -34.72)"/><path class="cls-4" d="M168.37,213.89l-1,1.05V214.2l1-1.05v0.74Z" transform="translate(-163.45 -34.72)"/><path class="cls-4" d="M168.35,212.69l-1,1.05V213l1-1.06v0.74Z" transform="translate(-163.45 -34.72)"/><path class="cls-4" d="M168.33,211.5l-1,1.05v-0.74l1-1.05v0.74Z" transform="translate(-163.45 -34.72)"/><path class="cls-2" d="M168.77,69.54q-0.16,2.68-.31,5.35l1.28,1.45q-0.2,3.57-.38,7.14L164.47,88q0.14-2.62.28-5.25l0.47-.43q0.21-4,.43-7.93l1.8-1.62q0.1-1.82.21-3.64l2.51-2.25-0.09,1.53Z" transform="translate(-163.45 -34.72)"/><path class="cls-2" d="M164.56,130.29l2.65,2.84q0,1.31-.06,2.62l-1.33-1.43,0-1.21-2.22-2.38q0.25-9.47.59-18.94l-0.74-.82q0-1.28.1-2.56l1.63,1.8Q164.83,120.24,164.56,130.29Z" transform="translate(-163.45 -34.72)"/><path class="cls-3" d="M165.11,134.48l2.64,2.8q0-1.78.08-3.57l0.78,0.83q-0.1,4-.18,8l-1-1.06q0-.67,0-1.34l-0.58-.62q0-1.06,0-2.12l-3.44-3.65q0-1.18.06-2.35l1.59,1.69Z" transform="translate(-163.45 -34.72)"/><path class="cls-4" d="M168.41,143.82l-1-1.05V142l1,1.05v0.74Z" transform="translate(-163.45 -34.72)"/><path class="cls-4" d="M168.39,145l-1-1.06v-0.73l1,1.05V145Z" transform="translate(-163.45 -34.72)"/><path class="cls-4" d="M168.37,146.21l-1-1.05v-0.74l1,1.05v0.74Z" transform="translate(-163.45 -34.72)"/><path class="cls-4" d="M168.35,147.41l-1-1.06v-0.73l1,1.05v0.74Z" transform="translate(-163.45 -34.72)"/><path class="cls-4" d="M168.33,148.6l-1-1.05v-0.74l1,1.05v0.74Z" transform="translate(-163.45 -34.72)"/><path class="cls-5" d="M186.4,54.95L182.88,58l-0.11,1.75q-3.34,2.95-6.66,5.91l-2.17-.13-2.28,2-0.08,1.32L170,70.34q-0.08,1.39-.16,2.78l1.54,1.76q-0.26,4.54-.49,9.08-3.27,3-6.53,6-0.41,8.51-.74,17l2.56,2.8q-0.38,10.1-.65,20.21l3.78,4q-1.12,45.68,0,91.38l-3.79,4q0.27,10.1.64,20.21l-2.56,2.8q0.33,8.51.74,17,3.26,3,6.53,6,0.23,4.54.49,9.08l-1.54,1.76q0.08,1.39.16,2.78l1.57,1.4,0.08,1.32,2.28,2,2.17-.13q3.33,3,6.66,5.91l0.11,1.75,3.52,3.1q-0.22-3.22-.42-6.44l-3.45-3.05q-0.18-2.86-.35-5.72-4.17-3.73-8.32-7.48-0.41-7.59-.77-15.19l1.28-1.41q-0.29-6.33-.54-12.66l-1-.92L171,249.87q-0.84-22.56-1.14-45.13l2-2.12q-0.28-22.94,0-45.88l-2-2.12q0.31-22.57,1.16-45.13l2.77-2.59q0.25-6.33.54-12.66l-1.28-1.41q0.36-7.6.77-15.19,4.16-3.76,8.33-7.48,0.17-2.86.35-5.72L186,61.39Q186.19,58.17,186.4,54.95ZM169.88,155.31l1.57,1.63q-0.28,22.74,0,45.48L169.87,204Q169.56,179.68,169.88,155.31Z" transform="translate(-163.45 -34.72)"/><path class="cls-6" d="M167.31,148.08l0,1.24,0.46,0.48q-0.12,7.17-.18,14.34l-2.27,2.26q0,6.64,0,13.29t0,13.29l2.27,2.26q0.06,7.17.17,14.34l-0.46.48q0,0.62,0,1.24l1-1q-0.25-15.27-.24-30.55t0.25-30.55Zm0.25,16.74q-0.06,7.43-.06,14.86t0.06,14.86l-1.78-1.77q0-6.54,0-13.08t0-13.08Z" transform="translate(-163.45 -34.72)"/><path class="cls-10" d="M165.23,72q0.13-1.91.26-3.83v0Q178,57.17,190.68,46.4l0.11-.1V46.15q0.45-5.45.92-10.91a0.48,0.48,0,1,0-1-.08h0q-0.37,5.46-.71,10.93l0.13-.25q-12.45,11-24.77,22.35h0v0Q165.32,70.13,165.23,72Z" transform="translate(-163.45 -34.72)"/><path class="cls-11" d="M165.23,288q0.13,1.91.26,3.83v0q12.54,11.07,25.2,21.84l0.11,0.1v0.16q0.45,5.45.92,10.91a0.48,0.48,0,1,1-1,.08h0q-0.37-5.46-.71-10.93l0.13,0.26q-12.45-11-24.77-22.35h0v0Q165.32,289.87,165.23,288Z" transform="translate(-163.45 -34.72)"/><path class="cls-9" d="M163.94,99.37q-0.16,3.79-.31,7.59l2.56,2.8q-0.38,10.1-.65,20.21l3.78,4q-1.12,45.68,0,91.38l-3.79,4q0.27,10.1.64,20.21l-2.56,2.8q0.17,4.44.36,8.87,4.41-4.88,8.85-9.72L171,249.87q-0.84-22.56-1.14-45.13l2-2.12q-0.28-22.94,0-45.88l-2-2.12q0.31-22.57,1.16-45.13l1.14-1.07Q168.05,103.92,163.94,99.37Zm5.94,55.94,1.57,1.63q-0.28,22.74,0,45.48L169.87,204Q169.56,179.68,169.88,155.31Z" transform="translate(-163.45 -34.72)"/></g></g></svg>