<svg id="Layer_1" data-name="Layer 1" xmlns="http://www.w3.org/2000/svg" viewBox="0 0 221.64 116.21"><defs><style>.cls-1{fill:aqua;}</style></defs><title>border44</title><path id="_复合路径_" data-name="&lt;复合路径&gt;" class="cls-1" d="M650.1,268.74H436.64V166H650.1V268.74Zm-212.5-1H649.14V166.94H437.6V267.78Z" transform="translate(-432.62 -158.62)"/><polygon id="_路径_" data-name="&lt;路径&gt;" class="cls-1" points="4.5 42.17 11.46 35.21 11.46 16.48 34.36 16.48 43.24 7.6 4.5 7.6 4.5 42.17"/><polygon id="_路径_2" data-name="&lt;路径&gt;" class="cls-1" points="216.99 109.64 206.37 115.41 121.69 115.41 110.23 109.64 216.99 109.64"/><polygon id="_路径_3" data-name="&lt;路径&gt;" class="cls-1" points="221.64 71.23 220.68 71.23 220.68 4.24 142.62 4.24 142.62 3.28 221.64 3.28 221.64 71.23"/><polygon id="_路径_4" data-name="&lt;路径&gt;" class="cls-1" points="26.07 116.21 0.02 116.21 0.02 88.84 0.98 88.84 0.98 115.25 26.07 115.25 26.07 116.21"/><rect id="_矩形_" data-name="&lt;矩形&gt;" class="cls-1" x="142.62" width="24.91" height="2.32"/><polygon id="_路径_5" data-name="&lt;路径&gt;" class="cls-1" points="1 37.49 0 37.49 0 1.64 92.82 1.64 92.82 2.64 1 2.64 1 37.49"/><polygon id="_路径_6" data-name="&lt;路径&gt;" class="cls-1" points="100.13 7.84 102.91 10.61 169.92 10.61 172.51 8.03 100.13 7.84"/><polygon id="_路径_7" data-name="&lt;路径&gt;" class="cls-1" points="21.01 109.64 23.55 112.19 67.13 112.19 70.01 109.64 21.01 109.64"/><polygon id="_路径_8" data-name="&lt;路径&gt;" class="cls-1" points="216.99 35.06 214.17 41.78 214.17 77.81 216.99 83.81 216.99 35.06"/></svg>