<svg id="Layer_1" data-name="Layer 1" xmlns="http://www.w3.org/2000/svg" viewBox="0 0 494.08 291.76"><defs><style>.cls-1{fill:#2986e2;}</style></defs><title>border51</title><polygon class="cls-1" points="40.72 3.17 38.24 3.17 35.06 0 37.55 0 40.72 3.17"/><polygon class="cls-1" points="44.43 3.17 41.95 3.17 38.77 0 41.26 0 44.43 3.17"/><polygon class="cls-1" points="48.14 3.17 45.65 3.17 42.47 0 44.96 0 48.14 3.17"/><polygon class="cls-1" points="51.84 3.17 49.36 3.17 46.18 0 48.67 0 51.84 3.17"/><polygon class="cls-1" points="55.55 3.17 53.07 3.17 49.89 0 52.38 0 55.55 3.17"/><polygon class="cls-1" points="6.08 82.31 6.08 85.74 0.04 79.71 0 76.24 6.08 82.31"/><polygon class="cls-1" points="6.08 88.45 6.08 91.88 0.04 85.84 0 82.37 6.08 88.45"/><polygon class="cls-1" points="6.08 94.58 6.08 98.01 0.04 91.98 0 88.51 6.08 94.58"/><polygon class="cls-1" points="15.03 239.4 12.35 239.4 3.52 230.58 3.52 205.75 5.32 207.55 5.32 229.7 15.03 239.4"/><path class="cls-1" d="M544.28,200.64v55.14l2.76,2.77v-37l5.71-5.71V152.38L549,148.65l1.9-1.91V125.68L517.72,92.49h-8.63L476.48,59.87H436.11l-4.7,4.7H205.15L202,61.44H185.66l-4.56-4.56H129.85L127.79,59H95.48l-4.83-4.83H70.14L58.67,65.58v60.81l8.43,8.42v113l-1.26,1.27-0.28-.28V248.1a1.64,1.64,0,0,0,.71-0.32,1.86,1.86,0,0,0,0-3,2.08,2.08,0,0,0-.39-0.22V154.33l-1.49,1.5v1.64l-2.08,2.08v26.39L64.38,188v56.57a1.62,1.62,0,0,0-.39.21,1.88,1.88,0,0,0-.74,1.5,1.84,1.84,0,0,0,1.45,1.8v0.83l-2.51,2.52v7.94l2.19,2.18v14.94l9.54,9.54h4.24l31.31,31.32V320L128.1,338.6h19.33l1.89-1.89h17.32L162.37,341H118.26L100.9,323.62v-3.57l18.24,18.24h5.37L64.38,278.16l0,5.33,35.43,35.43v5.17l18,18h45l5.4-5.4H446.48l4,4h40.1l5.15,5.15h27l17.33-17.32V324.1l9.28-9.28v-35l-4-4V259.56l-2.64-2.64v-57l3.44-3.44v-45l2-2,3.41,3.4v62.53L547,220V198ZM65.56,247.46a1.13,1.13,0,0,0,.32-0.19,1.21,1.21,0,0,0,.49-1,1.18,1.18,0,0,0-.5-1v-0.4a1.14,1.14,0,0,1,.22.12,1.58,1.58,0,0,1,0,2.53,1.59,1.59,0,0,1-.54.26v-0.36Zm-2.69-61.75V159.78l1.51-1.51v28.95Zm1.83,62.1a1.42,1.42,0,0,1-.54-0.26,1.53,1.53,0,0,1-.63-1.25,1.61,1.61,0,0,1,.63-1.28,1.5,1.5,0,0,1,.22-0.11v0.4a1.23,1.23,0,0,0,0,2,1.14,1.14,0,0,0,.32.18v0.36Zm408.2-181,37.77,37.78h-5.77L472.67,72.4H371l-5.56-5.56h107.5ZM69.37,72.62l5.77-5.78h28.28L102,68.29H76.12L71.2,73.2v70.33l-1.83,1.83V72.62Zm118.3,261.82-1.2-1.2H167.1l-2.74-2.74H132.78l-2.91-2.91h37.36l3.47,3.47h24.83l3.39,3.38H187.67ZM539,328.09l-16.66,16.66h-26.1l-5.15-5.16H451l-2.88-2.88H491.9l5.74,5.74h24.13L539,325.24v2.85Zm1.47-59.1-5.8,5.8v36.29L525.76,320H511.15l-8.74,8.73H434.63l-4.35,4.35h86.84l8.54-8.54H514.29l-4.16,4.16-2.92,0H504l7.6-7.6h14.61l9.55-9.55V275.26l4.67-4.67v41.47l-22.39,22.38H200.52L196,329.92H171.17l-3.47-3.47h-39l-4.14-4.14h-7L89.11,293.8v-4.42L74.65,274.92V268l-3.31-3.31V228.43l-2-2V146.57L72,143.88V73.55l4.42-4.41h25.86l2.3-2.3H363.79l6.69,6.69H472.2l32.22,32.23h7.38l28.65,28.65V269Z" transform="translate(-58.67 -54.12)"/><polygon class="cls-1" points="6.08 85.74 0.04 79.71 0 76.24 6.08 82.31 6.08 85.74"/><polygon class="cls-1" points="0.04 85.84 0 82.37 6.08 88.45 6.08 91.88 0.04 85.84"/><polygon class="cls-1" points="6.08 98.01 0.04 91.98 0 88.51 6.08 94.58 6.08 98.01"/><polygon class="cls-1" points="5.32 229.7 15.03 239.4 12.35 239.4 3.52 230.58 3.52 205.75 5.32 207.55 5.32 229.7"/><polygon class="cls-1" points="38.24 3.17 35.06 0 37.55 0 40.72 3.17 38.24 3.17"/><polygon class="cls-1" points="41.95 3.17 38.77 0 41.26 0 44.43 3.17 41.95 3.17"/><polygon class="cls-1" points="45.65 3.17 42.47 0 44.96 0 48.14 3.17 45.65 3.17"/><polygon class="cls-1" points="49.36 3.17 46.18 0 48.67 0 51.84 3.17 49.36 3.17"/><polygon class="cls-1" points="53.07 3.17 49.89 0 52.38 0 55.55 3.17 53.07 3.17"/></svg>