<svg xmlns="http://www.w3.org/2000/svg" viewBox="0 0 490.22 314.16"><defs><style>.cls-1{fill:#0ff}</style></defs><path class="cls-1" d="M303.04 8.39H232.2v14h70.84v-14zm-.55 13.49h-69.75v-13h69.76v13zM476.32 213.88l-15.89 15.89-.02 11.13 15.91-15.91v-11.11zM476.32 200.36l-15.89 15.9-.02 11.13 15.91-15.91v-11.12zM476.32 186.85l-15.89 15.9-.02 11.13 15.91-15.91v-11.12zM476.32 173.34l-15.89 15.89-.02 11.13 15.91-15.91v-11.11zM476.32 159.83l-15.89 15.89-.02 11.13 15.91-15.91v-11.11zM476.32 146.31l-15.89 15.9-.02 11.13 15.91-15.91v-11.12zM377.94 284.52l-18.41 18.42h16.29l18.42-18.42h-16.3zM359.24 284.52l-18.42 18.42h16.3l18.41-18.42h-16.29zM340.53 284.52l-18.42 18.42h16.3l18.42-18.42h-16.3zM321.82 284.52l-18.41 18.42h16.29l18.42-18.42h-16.3z"/><path class="cls-1" d="M466.31 4.26h-12.58l-4.39 4.39h-114l-6.73-6.73h-97L229.83.14h-6.32l-3 3v1.32L200.68 24.3h-3.66l-1.54 1.54h-2.64l-1.06 1.06h-41.95l-7.5-7.5H123.8l4 4h11.67l7.18 7.18h67l-4 4h-66.9l-6.74-6.74h-15l-8.39-8.39H94.17l5.14-5.14h9.67l-3.5-3.5h-32.6l9.64-9.73H139l15.51 15.51h37a3.31 3.31 0 100-1.08h-36.55L139.45 0H82.11L71.35 10.72h-25.8L30.46 25.81v11.74L15.81 52.2v33.94l2.88 2.88v23.22l-1.48-1.48-4.21-4.21V81.77l-2 2v32.83l2.45 2.48v12.83l2.36 2.36v60.91l-9 9v61.84l-6.8 6.8v18.91l8.35 8.35h9.88l14.08 14.08h56.89l8.32-8.32h279.85l4.27-4.27h6.18l12.65-12.65h60.45l22.66-22.66v-14.18l-5-5V75.43l5.64-5.64v-27l6-6v-8.61zM304.23 6.9v17.24h-73.55V6.9h73.55zm72.7 297.86H155.99l-9.82-9.82H87.59l-2.64-2.64h62.41l8.87 8.87h51.56a2.84 2.84 0 100-1.08h-51.11l-8.87-8.87H83.87l-.67-.67H39.84l-19.23-19.24v-73.36l5.67-5.67v-72.45l-3.09-3.09V87.49L20.6 84.9v-8.75l2.51-2.48V54.29L52.5 24.9h50.61l10.66 10.66h96.25l10.34-10.34h85.31l12.44-12.4h53.1l8.72 8.72h77.66l17.39 17.39v26.25l2.56 2.56v158.44l-17.1 17.1v26.07l-6.41 6.41h-26.19l-3 3h-25l-1.06 1.06-4.89-4.89h-72.83l-8.38 8.38h-24.92a3.31 3.31 0 100 1.08h25.35l8.38-8.38h72l4.57 4.57-1.52 1.5v3zm100.58-47.46l-.21.21.21-.32v.12z"/><circle class="cls-1" cx="217.33" cy="300.63" r="2.84"/><circle class="cls-1" cx="224.08" cy="300.63" r="2.84"/><path class="cls-1" d="M452.87 266.29H40.04V51.28h412.83v215zm-411.76-1.05h410.71V52.33H41.11v212.91z"/></svg>