<svg id="Layer_1" data-name="Layer 1" xmlns="http://www.w3.org/2000/svg" viewBox="0 0 627.99 198.76"><defs><style>.cls-1{fill:#02a6ff;}</style></defs><title>border16</title><g id="_编组_" data-name="&lt;编组&gt;"><path id="_复合路径_" data-name="&lt;复合路径&gt;" class="cls-1" d="M2334.19,893H1985.65v-6.4H1900V893H1708.56V694.19h125.06v5.41h64.94v-5.41h215.49v5.9H2234.6v-5.9h99.59v63h-19.4v30.5h19.4V893Zm-336.73-11.81h324.92V799.48H2303V745.36h19.4V706h-76v5.9H2102.25V706H1910.37v5.41h-88.56V706H1720.37V881.15h167.86v-6.4h109.22v6.4Z" transform="translate(-1706.2 -694.19)"/><path id="_复合路径_2" data-name="&lt;复合路径&gt;" class="cls-1" d="M1722.43,759.63H1706.2V714.36h16.24v45.26Zm-14.27-2h12.3V716.33h-12.3v41.33Z" transform="translate(-1706.2 -694.19)"/><rect id="_矩形_" data-name="&lt;矩形&gt;" class="cls-1" x="10.33" y="71.65" width="3.2" height="3.94"/><rect id="_矩形_2" data-name="&lt;矩形&gt;" class="cls-1" x="10.33" y="77.49" width="3.2" height="3.94"/><rect id="_矩形_3" data-name="&lt;矩形&gt;" class="cls-1" x="10.33" y="83.33" width="3.2" height="3.94"/><rect id="_矩形_4" data-name="&lt;矩形&gt;" class="cls-1" x="10.33" y="89.17" width="3.2" height="3.94"/><rect id="_矩形_5" data-name="&lt;矩形&gt;" class="cls-1" x="10.33" y="95.02" width="3.2" height="3.94"/><rect id="_矩形_6" data-name="&lt;矩形&gt;" class="cls-1" x="10.33" y="100.86" width="3.2" height="3.94"/><rect id="_矩形_7" data-name="&lt;矩形&gt;" class="cls-1" x="231.24" y="11.81" width="24.85" height="2.71"/><rect id="_矩形_8" data-name="&lt;矩形&gt;" class="cls-1" x="259.77" y="11.81" width="24.85" height="2.71"/><rect id="_矩形_9" data-name="&lt;矩形&gt;" class="cls-1" x="288.31" y="11.81" width="24.85" height="2.71"/><rect id="_矩形_10" data-name="&lt;矩形&gt;" class="cls-1" x="339.47" y="183.27" width="9.84" height="3.94"/><rect id="_矩形_11" data-name="&lt;矩形&gt;" class="cls-1" x="355.96" y="183.27" width="9.84" height="3.94"/><rect id="_矩形_12" data-name="&lt;矩形&gt;" class="cls-1" x="372.44" y="183.27" width="9.84" height="3.94"/><rect id="_矩形_13" data-name="&lt;矩形&gt;" class="cls-1" x="388.92" y="183.27" width="9.84" height="3.94"/></g></svg>