<svg id="Layer_1" data-name="Layer 1" xmlns="http://www.w3.org/2000/svg" viewBox="0 0 377.3 369.92"><defs><style>.cls-1{fill:aqua;}</style></defs><title>border43</title><path id="_复合路径_" data-name="&lt;复合路径&gt;" class="cls-1" d="M395.43,502.76H41.83V158.87H395.43v343.9Zm-352.63-1H394.46v-342H42.79v342Z" transform="translate(-31.28 -145.81)"/><polygon id="_路径_" data-name="&lt;路径&gt;" class="cls-1" points="77.12 13.54 90.66 0 246.79 0 260.49 13.7 77.12 13.54"/><polygon id="_路径_2" data-name="&lt;路径&gt;" class="cls-1" points="318.44 13.54 328.12 3.86 374.61 3.86 374.61 53.62 364.17 64.06 364.17 13.7 318.44 13.54"/><polygon id="_路径_3" data-name="&lt;路径&gt;" class="cls-1" points="11.03 13.54 4.27 20.3 4.27 85.24 10.73 91.7 11.03 13.54"/><polygon id="_路径_4" data-name="&lt;路径&gt;" class="cls-1" points="11.03 101.33 15.79 106.08 15.79 262.35 10.36 267.78 11.03 101.33"/><polygon id="_路径_5" data-name="&lt;路径&gt;" class="cls-1" points="11.03 316.14 0 327.17 0 369.92 54.4 369.92 67.98 356.34 11.78 356.34 11.03 316.14"/><polygon id="_路径_6" data-name="&lt;路径&gt;" class="cls-1" points="108.99 356.8 113.51 361.32 282.75 361.32 287.61 356.46 108.99 356.8"/><polygon id="_路径_7" data-name="&lt;路径&gt;" class="cls-1" points="275.86 356.46 278.69 353.63 345.17 353.63 347.88 356.33 275.86 356.46"/><polygon id="_路径_8" data-name="&lt;路径&gt;" class="cls-1" points="363.34 165.35 377.3 179.32 377.3 329.58 363.27 343.61 363.34 165.35"/><polygon id="_路径_9" data-name="&lt;路径&gt;" class="cls-1" points="363.66 70.83 359.22 75.27 359.22 141.99 363.6 146.37 363.66 70.83"/><polygon id="_路径_10" data-name="&lt;路径&gt;" class="cls-1" points="17.82 13.54 22.54 18.25 121.55 18.25 125.91 13.9 17.82 13.54"/><rect id="_矩形_" data-name="&lt;矩形&gt;" class="cls-1" x="125.56" y="355.04" width="14.94" height="5.26"/><rect id="_矩形_2" data-name="&lt;矩形&gt;" class="cls-1" x="144.09" y="355.04" width="14.94" height="5.26"/><rect id="_矩形_3" data-name="&lt;矩形&gt;" class="cls-1" x="162.62" y="355.04" width="14.94" height="5.26"/><rect id="_矩形_4" data-name="&lt;矩形&gt;" class="cls-1" x="181.16" y="355.04" width="14.94" height="5.26"/><rect id="_矩形_5" data-name="&lt;矩形&gt;" class="cls-1" x="199.69" y="355.04" width="14.94" height="5.26"/><rect id="_矩形_6" data-name="&lt;矩形&gt;" class="cls-1" x="218.23" y="355.04" width="14.94" height="5.26"/><rect id="_矩形_7" data-name="&lt;矩形&gt;" class="cls-1" x="236.76" y="355.04" width="14.94" height="5.26"/><rect id="_矩形_8" data-name="&lt;矩形&gt;" class="cls-1" x="255.29" y="355.04" width="14.94" height="5.26"/><rect id="_路径_11" data-name="&lt;路径&gt;" class="cls-1" x="6.57" y="108.6" width="1" height="117.82"/><rect id="_路径_12" data-name="&lt;路径&gt;" class="cls-1" x="354.56" y="166.56" width="1" height="168.28"/><rect id="_路径_13" data-name="&lt;路径&gt;" class="cls-1" x="367.22" y="73.62" width="1" height="72.75"/><rect id="_路径_14" data-name="&lt;路径&gt;" class="cls-1" x="129.1" y="15.13" width="170.12" height="1"/><rect id="_路径_15" data-name="&lt;路径&gt;" class="cls-1" x="125.56" y="367.41" width="191.27" height="1"/><rect id="_路径_16" data-name="&lt;路径&gt;" class="cls-1" x="21.72" y="8.29" width="40.66" height="1"/></svg>