<svg id="Layer_5" data-name="Layer 5" xmlns="http://www.w3.org/2000/svg" viewBox="0 0 126.36 51.38"><defs><style>.cls-1{fill:aqua;}</style></defs><title>border49</title><path class="cls-1" d="M166,282.41H75.16A7.45,7.45,0,0,1,67.72,275V250.79a7.45,7.45,0,0,1,7.44-7.44H166a7.45,7.45,0,0,1,7.44,7.44V275A7.45,7.45,0,0,1,166,282.41ZM75.16,243.85a7,7,0,0,0-6.94,6.94V275a7,7,0,0,0,6.94,6.94H166A7,7,0,0,0,173,275V250.79a7,7,0,0,0-6.94-6.94H75.16Z" transform="translate(-61.69 -231.04)"/><path class="cls-1" d="M188,243.23l-0.31-.31a6.23,6.23,0,0,0-.05,2.45,6.13,6.13,0,0,0-2.45.06l0.31,0.31a5.65,5.65,0,0,1,2.55.05A5.44,5.44,0,0,1,188,243.23Z" transform="translate(-61.69 -231.04)"/><path class="cls-1" d="M187.31,245a5.44,5.44,0,0,1-.05-2.55l-0.31-.31a6.36,6.36,0,0,0-.1,2L181.57,239H152.43l-1.55-1.55v-0.83l0.87-.87h13a1.88,1.88,0,1,0,0-1H151.47l-0.48-.48h-7.83l-1.45-1.45h-0.9L139.08,231H108.82l-3.89,3.89H86.11a1.88,1.88,0,1,0,0,1h7.2l1,1h1.47l0.33,0.33-1.36,1.36H93.86l-0.16.16H69.64l-6.35,6.35v0.36l-0.66.66v4.77l-0.94.94v3.36l1.6,1.6v1.69a0.93,0.93,0,0,0-.69.89,0.94,0.94,0,0,0,1.88,0,0.93,0.93,0,0,0-.69-0.89V245.36l6.06-6.06H93.61l0.27,0.27h1.54l1.51-1.51,0.46-.46h0.37l1-1H99.8l0.7-.7h4.84l3.89-3.89H134.7l0.79,0.79h2.36l3.65,3.65h6.82l1.27,1.27h0.93l1.7,1.7h29.15l5.11,5.11a6.38,6.38,0,0,0-2,.11l0.31,0.31A5.65,5.65,0,0,1,187.31,245Z" transform="translate(-61.69 -231.04)"/><rect class="cls-1" x="48.34" y="1.72" width="1.52" height="5.35"/><rect class="cls-1" x="50.93" y="1.72" width="1.52" height="5.35"/><rect class="cls-1" x="53.53" y="1.72" width="1.52" height="5.35"/><rect class="cls-1" x="56.12" y="1.72" width="1.52" height="5.35"/><rect class="cls-1" x="58.72" y="1.72" width="1.52" height="5.35"/><rect class="cls-1" x="61.31" y="1.72" width="1.52" height="5.35"/><rect class="cls-1" x="63.91" y="1.72" width="1.52" height="5.35"/><rect class="cls-1" x="66.5" y="1.72" width="1.52" height="5.35"/><rect class="cls-1" x="69.1" y="1.72" width="1.52" height="5.35"/><rect class="cls-1" x="45.39" y="8.16" width="29.68" height="0.25"/></svg>