<svg xmlns="http://www.w3.org/2000/svg" xmlns:xlink="http://www.w3.org/1999/xlink" viewBox="0 0 290.57 273.09"><defs><linearGradient id="linear-gradient" x1="406.77" y1="311.56" x2="446.3" y2="287.65" gradientUnits="userSpaceOnUse"><stop offset=".37" stop-color="#dc0000"/><stop offset=".4" stop-color="#e21200"/><stop offset=".46" stop-color="#eb3000"/><stop offset=".53" stop-color="#f24900"/><stop offset=".6" stop-color="#f85c00"/><stop offset=".69" stop-color="#fc6a00"/><stop offset=".8" stop-color="#fe7200"/><stop offset="1" stop-color="#ff7400"/></linearGradient><linearGradient id="linear-gradient-2" x1="668.59" y1="311.56" x2="708.13" y2="287.65" gradientTransform="matrix(-1 0 0 1 861.82 0)" xlink:href="#linear-gradient"/><linearGradient id="linear-gradient-3" x1="406.77" y1="88.29" x2="446.3" y2="64.38" gradientTransform="matrix(1 0 0 -1 0 136.73)" xlink:href="#linear-gradient"/><linearGradient id="linear-gradient-4" x1="668.59" y1="88.29" x2="708.13" y2="64.38" gradientTransform="rotate(180 430.91 68.365)" xlink:href="#linear-gradient"/><style>.cls-2{fill:#0071bc}.cls-3{fill:#0ff}.cls-4{fill:#2e3192}.cls-5{fill:#29abe2}.cls-6{fill:#ff4a00}.cls-9{fill:#fff;opacity:.34;mix-blend-mode:overlay}</style></defs><g style="isolation:isolate"><g id="Layer_5" data-name="Layer 5"><path class="cls-2" d="M197 310.29l-1.45 1.28-5.35-.31L189 310l-1.53-.09 2.25 2.51 3.64.21 1.62 1.8 7.93.43.43.47 5.25.28-4.48-4.89zM255 314.18l1.43-1.35-2.62-.06-2.84 2.67q-10-.26-20.08-.63l-1.8 1.64 2.56.1.82-.75q9.47.34 18.94.59l2.38-2.23z" transform="translate(-154.72 -43.45)"/><path class="cls-3" d="M255.19 311.4l-.83.78 3.57.08-2.8 2.65h-1.4l-1.73 1.55 2.35.06 3.65-3.44h2.12l.62-.59h1.34l1.06-1z" transform="translate(-154.72 -43.45)"/><path class="cls-4" d="M263.72 311.58l-1.05 1h.74l1.05-1h-.74zM264.92 311.61l-1.05 1h.73l1.06-1h-.74zM266.11 311.63l-1.05 1h.74l1.05-1h-.74zM267.31 311.65l-1.05 1h.74l1.06-1h-.74zM268.5 311.67l-1.05 1h.74l1.05-1h-.74z" transform="translate(-154.72 -43.45)"/><path class="cls-2" d="M410.46 311.23l-5.35.31-1.45-1.28-7.14.38-4.52 4.89 5.25-.28.43-.47 7.93-.43 1.62-1.8 3.64-.21 2.25-2.51-1.53.09zM349.71 315.44l-2.84-2.65-2.62.06 1.43 1.33h1.21l2.38 2.22q9.47-.25 18.94-.59l.82.74 2.56-.1-1.8-1.63q-10.03.35-20.08.62z" transform="translate(-154.72 -43.45)"/><path class="cls-3" d="M345.52 314.89l-2.8-2.64 3.57-.08-.83-.78-8 .18 1.06 1h1.34l.62.58h2.12l3.65 3.44 2.35-.06-1.69-1.59z" transform="translate(-154.72 -43.45)"/><path class="cls-4" d="M336.18 311.59l1.05 1h.77l-1.05-1h-.74zM335 311.61l1.06 1h.73l-1.05-1H335zM333.79 311.63l1.05 1h.74l-1.05-1h-.74zM332.59 311.65l1.06 1h.73l-1.05-1h-.74zM331.4 311.67l1.05 1h.74l-1.05-1h-.74z" transform="translate(-154.72 -43.45)"/><path class="cls-5" d="M418.61 294l-3.05 3.45-5.72.35q-3.72 4.17-7.48 8.33-7.59.42-15.19.77l-1.41-1.28q-6.33.29-12.66.54l-2.59 2.84q-22.56.85-45.13 1.16l-2.12-2q-22.94.29-45.88 0l-2.12 2q-22.57-.3-45.13-1.14l-1.68-1.79-.92-1q-6.33-.25-12.66-.54l-1.41 1.28q-7.6-.35-15.19-.77-3.76-4.15-7.48-8.32l-5.72-.35-3.07-3.47-6.44-.42 3.1 3.52 1.75.11q2.95 3.34 5.91 6.66l-.13 2.17 2 2.28 1.32.08L191 310l2.78.16 1.76-1.54 9.08.49q3 3.27 6 6.53 8.51.41 17 .74l2.8-2.56q10.1.38 20.21.64l4-3.79q45.68 1.11 91.38 0l4 3.78q10.1-.27 20.21-.65l2.8 2.56q8.51-.33 17-.74 3-3.26 6-6.53l9.08-.49 1.76 1.54 2.78-.16 1.4-1.57 1.32-.08 2-2.28-.13-2.17q3-3.33 5.91-6.66l1.75-.11 3.09-3.52zM276 310.13l1.63-1.57q22.74.27 45.48 0l1.63 1.57q-24.42.31-48.74 0z" transform="translate(-154.72 -43.45)"/><path class="cls-6" d="M330.87 311.68q-15.27.25-30.55.25t-30.55-.24l-1 1h1.24l.48-.46q7.17.11 14.34.17l2.17 2.3h26.58l2.26-2.27q7.17-.06 14.34-.18l.48.46h1.24zm-17.46 2.53h-26.16l-1.77-1.78q7.43.06 14.86.06t14.86-.06z" transform="translate(-154.72 -43.45)"/><path d="M408 314.77l3.83-.26q11.07-12.54 21.84-25.2l.1-.11h.16q5.45-.45 10.91-.92a.48.48 0 11.08 1q-5.46.37-10.93.71l.25-.13q-11 12.45-22.35 24.77z" transform="translate(-154.72 -43.45)" fill="url(#linear-gradient)"/><path d="M192 314.77l-3.83-.26q-11-12.51-21.77-25.19l-.1-.11h-.16q-5.45-.45-10.91-.92a.48.48 0 10-.08 1q5.46.37 10.93.71l-.26-.13q11 12.45 22.35 24.77z" transform="translate(-154.72 -43.45)" fill="url(#linear-gradient-2)"/><path class="cls-9" d="M371.58 307.81l-1.07 1.19q-22.56.85-45.13 1.16l-2.12-2q-22.94.29-45.88 0l-2.12 2q-22.57-.3-45.13-1.14l-1.68-1.79q-4.84 4.44-9.72 8.85l8.87.36 2.8-2.56q10.1.38 20.21.64l4-3.79q45.68 1.11 91.38 0l4 3.78q10.1-.27 20.21-.65l2.8 2.56 7.59-.31q-4.51-4.16-9.01-8.3zM276 310.13l1.63-1.57q22.74.27 45.48 0l1.63 1.57q-24.42.31-48.74 0z" transform="translate(-154.72 -43.45)"/><path class="cls-2" d="M197 49.71l-1.45-1.28-5.35.31L189 50l-1.53.09 2.25-2.51 3.64-.21 1.62-1.8 7.93-.43.43-.47 5.25-.28-4.48 4.89zM255 45.82l1.43 1.35-2.62.06-2.84-2.67q-10 .26-20.08.63L229 43.55l2.56-.09.82.75q9.47-.34 18.94-.59l2.38 2.23z" transform="translate(-154.72 -43.45)"/><path class="cls-3" d="M255.19 48.6l-.83-.78 3.57-.08-2.8-2.65h-1.4L252 43.54l2.35-.06 3.65 3.43h2.12l.62.58h1.34l1.06 1z" transform="translate(-154.72 -43.45)"/><path class="cls-4" d="M263.72 48.42l-1.05-1h.74l1.05 1h-.74zM264.92 48.39l-1.05-1h.73l1.06 1h-.74zM266.11 48.37l-1.05-1h.74l1.05 1h-.74zM267.31 48.35l-1.05-1h.74l1.06 1h-.74zM268.5 48.33l-1.05-1h.74l1.05 1h-.74z" transform="translate(-154.72 -43.45)"/><path class="cls-2" d="M410.46 48.77l-5.35-.31-1.45 1.28-7.14-.38-4.52-4.89 5.25.28.43.47 7.93.43 1.62 1.8 3.64.21 2.25 2.51-1.53-.09zM349.71 44.56l-2.84 2.65-2.62-.06 1.43-1.33h1.21l2.38-2.22q9.47.25 18.94.59l.82-.74 2.56.1-1.8 1.63q-10.03-.35-20.08-.62z" transform="translate(-154.72 -43.45)"/><path class="cls-3" d="M345.52 45.11l-2.8 2.64 3.57.08-.83.78-8-.18 1.06-1h1.34l.62-.58h2.12l3.65-3.44 2.35.06-1.69 1.59z" transform="translate(-154.72 -43.45)"/><path class="cls-4" d="M336.18 48.41l1.05-1h.77l-1.05 1h-.74zM335 48.39l1.06-1h.73l-1.05 1H335zM333.79 48.37l1.05-1h.74l-1.05 1h-.74zM332.59 48.35l1.06-1h.73l-1.05 1h-.74zM331.4 48.33l1.05-1h.74l-1.05 1h-.74z" transform="translate(-154.72 -43.45)"/><path class="cls-5" d="M425.05 66.4L422 62.88l-1.75-.11q-2.95-3.34-5.91-6.66l.13-2.17-2-2.28-1.32-.08-1.49-1.58-2.78-.16-1.76 1.54-9.08-.49q-3-3.27-6-6.53-8.51-.41-17-.74l-2.8 2.56q-10.1-.38-20.21-.65l-4 3.78q-45.68-1.12-91.38 0l-4-3.79q-10.1.27-20.21.64l-2.8-2.56q-8.51.33-17 .74-3 3.26-6 6.53l-9.08.49-1.76-1.54-2.8.18-1.4 1.57-1.32.08-2 2.28.13 2.17q-3 3.33-5.91 6.66l-1.75.11-3.1 3.52 6.44-.42 3.05-3.45 5.72-.35q3.73-4.17 7.48-8.32 7.59-.41 15.19-.77l1.41 1.28q6.33-.29 12.66-.54l.92-1 1.61-1.82q22.56-.84 45.13-1.14l2.12 2q22.94-.28 45.88 0l2.12-2q22.57.34 45.13 1.14l2.59 2.77q6.33.25 12.66.54l1.41-1.28q7.6.36 15.19.77 3.76 4.16 7.48 8.33l5.72.35 3.05 3.52zM324.69 49.88l-1.63 1.57q-22.74-.28-45.48 0L276 49.87q24.32-.31 48.69.01z" transform="translate(-154.72 -43.45)"/><path class="cls-6" d="M331.92 47.31h-1.24l-.48.46q-7.17-.12-14.34-.18l-2.26-2.27h-13.29q-6.65 0-13.31-.02l-2.26 2.27q-7.17.06-14.34.17l-.4-.46h-1.24l1 1q15.27-.25 30.55-.24t30.55.25zm-16.74.25q-7.43-.06-14.86-.06t-14.86.06l1.77-1.78h26.16z" transform="translate(-154.72 -43.45)"/><path d="M408 45.23l3.83.26q11 12.51 21.77 25.19l.1.11h.16q5.45.45 10.91.92a.48.48 0 10.08-1q-5.46-.37-10.93-.71l.25.13q-11-12.45-22.35-24.77z" transform="translate(-154.72 -43.45)" fill="url(#linear-gradient-3)"/><path d="M192 45.23l-3.83.26q-11 12.51-21.77 25.19l-.1.11h-.16q-5.45.45-10.91.92a.48.48 0 11-.08-1q5.46-.37 10.93-.71l-.26.13q11-12.45 22.35-24.77z" transform="translate(-154.72 -43.45)" fill="url(#linear-gradient-4)"/><path class="cls-9" d="M380.63 43.94l-7.63-.31-2.8 2.56q-10.1-.38-20.21-.65l-4 3.78q-45.68-1.12-91.38 0l-4-3.79q-10.1.27-20.21.64l-2.8-2.56-8.87.36q4.88 4.41 9.72 8.85l1.68-1.82q22.56-.84 45.13-1.14l2.12 2q22.94-.28 45.88 0l2.12-2q22.57.34 45.13 1.14l1.07 1.14q4.5-4.09 9.05-8.2zm-55.94 5.94l-1.63 1.57q-22.74-.28-45.48 0L276 49.87q24.32-.31 48.69.01z" transform="translate(-154.72 -43.45)"/></g></g></svg>