<svg xmlns="http://www.w3.org/2000/svg" viewBox="0 0 489.45 292.24"><defs><style>.cls-2{fill:#0071bc}.cls-3,.cls-4{fill:#fff}.cls-4{mix-blend-mode:overlay}</style></defs><g style="isolation:isolate"><path class="cls-2" d="M76.02 17.47h28.73l7.62-7.61h293.01l-7.42 7.4H110.64l-7.46 7.47H71.56L56.61 9.78h11.72l7.69 7.69zM423.52 9.79h29.99l14.23 14.22V36.2l9.57 9.57h3.91l4.34 4.34v-8.38l-10.65-10.65V19.72L457.16 1.97h-39.53l-7.85 7.85 13.74-.03z"/><path class="cls-3" d="M485.61 41.66V241.2l-27.6 27.6h-38.52l-15.22 15.26H50.12l-2.76 2.08H17.29l-9.31-9.31V33.62l24-24h36.46l7.64 7.64h44.93l7.69-7.69h324.91zm-.33 199.41V41.79L453.45 9.95H128.84l-7.69 7.69h-45.2L68.31 10H32.07L8.26 33.76v242.88l9.17 9.17h29.82l2.76-2.08h354.12l15.22-15.17h38.48z"/><path class="cls-4" d="M49.24 281.81H19.88l-2.11 2.08h28.72l2.75-2.08z"/><path class="cls-2" d="M8.07 276.71v-24.28l-5.22 5.21v25.23l9.38 9.37h54.63l8.36-8.35 7.18-7.18H65.92l-7.18 7.18h-8.68l-2.75 2.09H18.59l-.02.01h-1.22l-9.28-9.28z"/><path class="cls-3" d="M445.66 257.94v1.32h-29.07l-25.3 25.29H78.4v-1.32h312.35l25.29-25.29h29.62zM14.54 39.74v36.27l-5.55 5.55V230l-5.8 5.8v12.34h-.67v-12.62l5.81-5.8V81.28l5.55-5.55V39.74h.66zM489.29 244.76l-29.56 29.56H435.6V273h23.59l29.16-29.17.94.93zM489.45 229.35h-1.27v-2.54h1.27v2.54zm0-3.81h-1.27v-6.35h1.27v6.37zm0-8.88h-1.27v-1.27h1.27v1.27zm0-7.62h-1.27v-2.54h1.27v2.54zm0-3.81h-1.27v-6.35h1.27v6.35zm0-8.88h-1.27v-1.27h1.27v1.27zm0-7.62h-1.27v-2.54h1.27v2.54zm0-3.81h-1.27v-6.36h1.27v6.35zm0-8.88h-1.27v-1.27h1.27v1.27zm0-7.62h-1.27v-2.54h1.27v2.54zm0-3.81h-1.27v-6.35h1.27v6.35zm0-8.88h-1.27v-1.27h1.27v1.27zm0-7.62h-1.27v-2.55h1.27v2.54zm0-3.81h-1.27v-6.34h1.27v6.35zm0-8.88h-1.27v-1.26h1.27v1.27zm0-7.62h-1.27v-2.54h1.27v2.54zm0-3.81h-1.27v-6.33h1.27v6.35zm0-8.88h-1.27v-1.27h1.27v1.27zm0-7.62h-1.27v-2.53h1.27v2.54zm0-3.81h-1.27v-6.35h1.27v6.35zm0-8.88h-1.27v-1.24h1.27v1.27zm0-7.62h-1.27v-2.52h1.27v2.54zm0-3.81h-1.27v-6.35h1.27v6.35zm0-8.88h-1.27v-1.27h1.27v1.27zm0-7.62h-1.27v-2.54h1.27v2.54zm0-3.81h-1.27v-6.35h1.27v6.35zm0-8.88h-1.27v-1.27h1.27v1.27zM101.06 11.21v1.32H82.25L71.04 1.32H32.23L1.32 32.23v11.13H0V31.68L31.68 0h39.91l11.2 11.21h18.27z"/><path fill="#29abe2" d="M419.36 268.52h24.87l-4.81-4.81h-20.06l-13.03 13.03v5.03l13.03-13.25z"/><path class="cls-4" d="M7.93 74.8l-2.09-2.09V33.38l8.69-8.69h2.8l-7.03 7.03v20.2l-2.35 2.36-.02 20.52z"/><path class="cls-3" d="M6.48 79.78v1.14h-.66v-1.14h.66zm0 2.47v6.61h-.66v-6.61h.66zm0 9.25v1.32h-.66V91.5h.66zm0 126.14v2.64h-.66v-2.64h.66zm0 4v6l-.59.59-.47-.47.4-.4v-5.8h.66zm-2.46 8.5l-.93.93-.48-.51.93-.93zM56.61 280.08v.66h-1.32v-.66h1.32zm-4 0v.66h-6.57v-.66h6.57zm-7.93 0v.66h-2.61v-.66h2.64zm-9.25 0v.66h-1.29v-.66h1.32zm-4 0v.66h-6.54v-.66h6.61zm-7.93 0v.66h-2.57v-.66h2.68zm-7.82-2.79l-.47.47-.93-.93.47-.47zm-2.8-2.8l-.47.47-1.11-1.11v-5.29h.66v5zm-.85-28.93v.52h-.66v-.52h.66zm0 1.84v6.61h-.66v-6.61h.66zm0 9.25v1.32h-.66v-1.32h.66zm0 7.93v2.64h-.66v-2.66h.66zM405.4 286.63l7.06-7.06h30.99l-4.6 4.6h-23.2l-7.04 7.03h-275.2l-4.57-4.57H405.4zM422.01 277.88h30.07v.66h-30.07zM416.08 276h41.18v.66h-41.18zM76.26 286.91h48.04v.66H76.26zM87.64 14.8v.66h-8.81L68.58 5.21H33.5v-.66h35.36L79.1 14.8h8.54z"/><path class="cls-4" d="M445.75 250.38H51.47a4 4 0 01-4-4V44.78a4 4 0 014-4h394.28a4 4 0 014 4v201.6a4 4 0 01-4 4zM51.47 41.28a3.51 3.51 0 00-3.5 3.5v201.6a3.51 3.51 0 003.5 3.5h394.28a3.5 3.5 0 003.5-3.5V44.78a3.51 3.51 0 00-3.5-3.5H51.47z"/><path d="M445.75 250.38H51.47a4 4 0 01-4-4V44.78a4 4 0 014-4h394.28a4 4 0 014 4v201.6a4 4 0 01-4 4zM51.47 41.28a3.51 3.51 0 00-3.5 3.5v201.6a3.51 3.51 0 003.5 3.5h394.28a3.5 3.5 0 003.5-3.5V44.78a3.51 3.51 0 00-3.5-3.5H51.47z" style="mix-blend-mode:overlay" opacity=".69" fill="#fff"/></g></svg>