<svg id="Layer_1" data-name="Layer 1" xmlns="http://www.w3.org/2000/svg" viewBox="0 0 1360.22 614.65"><defs><style>.cls-1{fill:#02a6ff}</style></defs><path id="_复合路径_" data-name="&lt;复合路径&gt;" class="cls-1" d="M1396.18 1860.57H50.49V1682h32.57v-94.65H50.49v-341.4h1345.7v190h-37.86V1694h37.86v166.54zm-1342.25-3.45h1338.81v-159.66h-37.86v-265h37.86v-183.1H53.93v334.52H86.5v101.54H53.93v171.71z" transform="translate(-50.49 -1245.92)"/><g id="_编组_" data-name="&lt;编组&gt;"><path id="_路径_" data-name="&lt;路径&gt;" class="cls-1" d="M1.72 1.72V21.3h212.85l19.57-19.58H1.72z"/></g><g id="_编组_2" data-name="&lt;编组&gt;"><path id="_路径_2" data-name="&lt;路径&gt;" class="cls-1" d="M57.65 1.72H1.72v129.02l55.93-55.93V1.72z"/></g><g id="_编组_3" data-name="&lt;编组&gt;"><path id="_路径_3" data-name="&lt;路径&gt;" class="cls-1" d="M1343.97 551.94h-130.51l-60.98 60.99h191.49v-60.99z"/></g><g id="_编组_4" data-name="&lt;编组&gt;"><path id="_路径_4" data-name="&lt;路径&gt;" class="cls-1" d="M1343.97 1.72h-173.32l32.77 32.77h140.55V1.72z"/></g><g id="_编组_5" data-name="&lt;编组&gt;"><path id="_路径_5" data-name="&lt;路径&gt;" class="cls-1" d="M693.02 582.43H260.51l-30.49 30.5h493.49l-30.49-30.5z"/></g><g id="_编组_6" data-name="&lt;编组&gt;"><path id="_路径_6" data-name="&lt;路径&gt;" class="cls-1" d="M613.43 1.72L633 21.3h336.08l19.58-19.58H613.43z"/></g><g id="_编组_7" data-name="&lt;编组&gt;"><g id="_编组_8" data-name="&lt;编组&gt;"><path id="_路径_7" data-name="&lt;路径&gt;" class="cls-1" d="M1360.22 281.56l-3.68-3.68"/></g></g></svg>