<svg id="Layer_5" data-name="Layer 5" xmlns="http://www.w3.org/2000/svg" viewBox="0 0 702.94 481.49"><defs><style>.cls-1,.cls-2{fill:#03a6ff;}.cls-1,.cls-3{opacity:0.3;}.cls-3{fill:#00558d;}</style></defs><title>border37</title><polygon class="cls-1" points="45.57 120.74 69 97.32 69 70.17 155.44 70.17 224.67 0.93 213.94 5.16 175.29 43.81 21.55 43.81 21.7 96.88 45.57 120.74"/><polygon class="cls-1" points="45.57 264.33 45.57 401.03 92.43 447.89 181.32 447.89 169.15 460.06 55.73 460.06 5.16 409.49 5.16 304.75 45.57 264.33"/><polygon class="cls-1" points="505.39 391.98 522.84 374.52 599.89 374.52 629.82 404.45 650.96 404.45 673.25 382.16 673.25 126.11 688.15 141.01 688.15 426.06 539.47 426.06 505.39 391.98"/><polygon class="cls-2" points="194.61 465.22 253.8 406.03 286.84 406.03 227.63 465.22 194.61 465.22"/><polygon class="cls-2" points="255.39 455.76 305.11 406.03 338.15 406.03 288.41 455.76 255.39 455.76"/><polygon class="cls-2" points="315.09 447.37 356.43 406.03 389.47 406.03 348.12 447.37 315.09 447.37"/><polygon class="cls-2" points="373.18 440.6 407.75 406.03 440.79 406.03 406.2 440.6 373.18 440.6"/><polygon class="cls-2" points="433.76 431.34 459.06 406.03 492.1 406.03 466.78 431.34 433.76 431.34"/><polygon class="cls-2" points="16.38 33.32 49.7 0 75.71 0 109.04 33.32 16.38 33.32"/><polygon class="cls-2" points="82.01 0.04 115.26 33.29 129.77 33.29 96.52 0.04 82.01 0.04"/><polygon class="cls-2" points="102.33 0.04 135.58 33.29 150.09 33.29 116.84 0.04 102.33 0.04"/><polygon class="cls-2" points="122.65 0.04 155.9 33.29 170.41 33.29 137.17 0.04 122.65 0.04"/><polygon class="cls-2" points="147.23 0 201.68 0 174.15 27.53 147.23 0"/><polygon class="cls-2" points="646 77.43 693.31 126.11 693.31 77.43 646 77.43"/><polygon class="cls-3" points="45.57 120.74 45.57 401.03 92.43 447.89 181.32 447.89 237.23 391.98 505.39 391.98 522.84 374.52 599.89 374.52 629.82 404.45 650.96 404.45 673.25 382.16 673.25 126.11 629.72 82.58 487.8 82.58 410.37 5.16 220.44 5.16 155.44 70.17 69 70.17 69 97.32 45.57 120.74"/><path class="cls-2" d="M2905.06,927.5l-9.63-9.63L2834,856.42H2709.8L2632.38,779H2413.92l-38.65,38.65H2218.5l0.18,60.37v17.2l23.86,23.86V1041.2l-40.42,40.42v130.8l48,48,107,0,16.27-16.27,68.08-68.08h263.89l34.08,34.08h156v-84.28l9.63-9.63V927.5Zm-14.79,277.55H2741.59L2707.51,1171H2439.35l-68.08,68.08H2257.84l-50.57-50.57V1083.75l40.42-40.41V899.74l-23.87-23.87-0.16-53.07H2377.4l38.65-38.65h196.43l77.43,77.43h141.92L2890.27,920v285.05Z" transform="translate(-2202.12 -779)"/></svg>