<svg data-name="Layer 1" xmlns="http://www.w3.org/2000/svg" viewBox="0 0 211.89 103.57"><path d="M207.01 11.11v10.92l-4.61 4.61v35.8h-18.58l-13.55 13.55v18.53H41.6V76.03L28.06 62.44H9.53v-35.8l-4.59-4.57v-22h202.07v11.1zm-101.07 92.33H5.41v-37l-.22-.21V39.44L.57 34.83v-20.1l2.84-2.83V0H.21v34.94l4.62 4.62v26.36L3.11 64.2V42l-3.16-3.16v14.91l2.26 2.26v47.53h207.42v-47.5l2.26-2.26v-14.9l-3.16 3.16v22.2l-1.72 1.72V39.6l4.61-4.62V0h-3.15v11.89l2.83 2.83v20.07l-4.57 4.65v26.81l-.21.21v36.98H105.94zm0-9.17h64V71.92l9.68-9.67h22.42v-35.7l4.61-4.61V5.25h-67.52l-8.45 8.46H81.24l-8.45-8.46H5.19V21.9l4.61 4.61v35.61h22.36l9.67 9.67v22.45h64zM5.19 4.94h67.68l8.45 8.45h49.12l8.46-8.45h67.69V2.71h-100.2l-.45.45-.45-.45H5.19v2.23zm0-2.55h100.43l.27.27.27-.27h100.53V.32H5.19v2.12zm53.75 4.26h4.55l7.12 7.13h-4.55zm-52.1 0h5.53l7.12 7.13H6.83V6.65zm8.29 0h4.55l7.12 7.13h-4.56zm7.3 0h4.51l7.12 7.13h-4.52zm7.3 0h4.55l7.13 7.13h-4.56zm7.3 0h4.55l7.12 7.13h-4.55zm7.3 0h4.55L56 13.78h-4.55zm7.3 0h4.55l7.13 7.13h-4.56zm14.6 0h4.55l7.16 7.13h-4.58zm-44 64.26v2.45h.71v-2.45h-.66zm0 19.26v2.45h.71v-2.45h-.66zm-2.19 2.16l.64-2.36-.61-.17-.64 2.37zm5-18.6l.63-2.36-.61-.17-.64 2.37zm-7.6 17.61l1.23-2.13-.54-.32-1.19 2.13zm9.63-16.69l1.23-2.12-.55-.31-1.23 2.12zm-11.93 15l1.73-1.73-.45-.44-1.73 1.73zm13.61-13.61l1.73-1.73-.44-.45-1.73 1.73zm-15.39 11.4l2.12-1.23-.32-.55-2.12 1.22zm16.67-9.63l2.13-1.23-.32-.54-2.12 1.23zm-17.84 7l2.36-.63-.16-.62-2.37.64zm18.6-5l2.36-.64-.16-.61-2.37.64zm-19.05 2.28h2.45v-.65h-2.45v.64zm19.27 0h2.44v-.65H31v.64zm-19-2.83l2.37.64.16-.61-2.36-.64zm18.6 5l2.37.63.16-.61-2.36-.64zm-17.57-7.64l2.12 1.23.32-.54-2.12-1.23zm16.68 9.63l2.12 1.19.32-.55-2.12-1.22zm-15-11.93l1.73 1.73.45-.45-1.73-1.73zm13.6 13.62l1.73 1.73.45-.44-1.73-1.73zM16.94 72.53l1.23 2.12.54-.32-1.23-2.12zm9.63 16.67l1.22 2.13.55-.32-1.23-2.13zm-7.05-17.83l.64 2.36.61-.16-.64-2.37zm5 18.6l.63 2.36.62-.16-.64-2.37zm-1.87-14.59a6.39 6.39 0 106.29 6.4h1.27a7.65 7.65 0 11-7.65-7.65v1.26zm13.64 6.39a13.65 13.65 0 00-13.64-13.65v-.68a14.32 14.32 0 1014.29 14.34h-.7zm-13.64-13a13 13 0 0113 13h-.71A12.33 12.33 0 1122.6 69.44v-.67zM152.94 6.65h-4.54l-7.13 7.13h4.55zm36.66 64.26v2.45h-.66v-2.45h.64zm-.32 3.21a7.65 7.65 0 11-7.65 7.65h1.31a6.38 6.38 0 106.39-6.39v-1.26zm-13.64 7.65a13.64 13.64 0 0113.64-13.65v-.68a14.33 14.33 0 11-14.34 14.34h.67zm.63 0h.67a12.33 12.33 0 1012.34-12.33v-.67a13 13 0 00-13 13zm-70.33 14.25h2.09l-2.09 2.49-2.1-2.48h2.1zm-3.18 0h-1l2.49 3h1c-.82-1-1.66-2-2.49-3zm-2.07 0h-1c.83 1 1.67 2 2.49 3h1l-2.49-3zm-3.07 0l2.5 3h1l-2.49-3h-1zm-1.08 0h-1l2.49 3h1l-2.5-3zm-2.07 0h-1l2.5 3h1l-2.49-3zm-2.08 0h-1l2.49 3h1q-1.24-1.49-2.49-3zm-2.07 0h-1c.83 1 1.67 2 2.49 3h1l-2.49-3zm-2.08 0h-1l2.5 3h1l-2.49-3zm-2.08 0h-1l2.49 3h1l-2.5-3zm-2.07 0h-1l2.5 3h1l-2.49-3zm-2.08 0h-1l2.49 3h1c-.82-1-1.66-2-2.49-3zm-2.07 0h-1q1.25 1.48 2.49 3h1l-2.49-3zm-2.08 0h-1l2.5 3h1q-1.24-1.49-2.49-3zm-2.08 0h-1l2.49 3h1l-2.5-3zm-2.07 0h-1l2.5 3h1l-2.49-3zm-2.08 0h-1l2.49 3h1l-2.5-3zm-2.07 0h-1q1.25 1.48 2.49 3h1l-2.49-3zm-2.08 0h-1l2.5 3h1c-.82-1-1.66-2-2.49-3zm-2.08 0h-1l2.49 3h1l-2.5-3zm-2.07 0h-1l2.5 3h1l-2.49-3zm-2.08 0h-1l2.49 3h1l-2.5-3zm-2.07 0h-1q1.25 1.48 2.49 3h1l-2.49-3zm-2.08 0h-1l2.5 3h1q-1.24-1.49-2.49-3zm-2.08 0h-1l2.49 3h1l-2.5-3zm-2.07 0h-1.01l2.5 3h1l-2.49-3zm-2.08 0h-.93l2.49 3h1l-2.5-3zm-2.07 0h-1q1.25 1.48 2.49 3h1l-2.49-3zm-2.08 0h-1l2.5 3h1q-1.24-1.49-2.49-3zm-2.08 0h-1l2.49 3h1l-2.5-3zm-2.07 0h-1l2.5 3h1zm66.52 0h1q-1.25 1.48-2.49 3h-1l2.49-3zm2.08 0h1l-2.5 3h-1l2.49-3zm3.06 0l-2.49 3h-1l2.5-3h1zm1.09 0h1l-2.5 3h-1l2.49-3zm2.08 0h1l-2.49 3h-1q1.23-1.49 2.49-3zm2.07 0h1c-.83 1-1.67 2-2.49 3h-1l2.49-3zm2.08 0h1l-2.5 3h-1l2.49-3zm2.08 0h1l-2.49 3h-1l2.5-3zm2.07 0h1l-2.5 3h-1l2.49-3zm2.08 0h1l-2.49 3h-1c.82-1 1.66-2 2.49-3zm2.07 0h1q-1.25 1.48-2.49 3h-1l2.49-3zm2.08 0h1l-2.5 3h-1q1.24-1.49 2.49-3zm2.08 0h1l-2.49 3h-1l2.5-3zm2.07 0h1l-2.5 3h-1l2.49-3zm2.08 0h1l-2.49 3h-1c.82-1 1.66-2 2.49-3zm2.07 0h1q-1.25 1.48-2.49 3h-1l2.49-3zm2.08 0h1l-2.5 3h-1c.82-1 1.66-2 2.49-3zm2.08 0h1l-2.49 3h-1l2.5-3zm2.07 0h1l-2.5 3h-1l2.49-3zm2.08 0h1l-2.49 3h-1l2.5-3zm2.07 0h1q-1.25 1.48-2.49 3h-1l2.49-3zm2.08 0h1l-2.5 3h-1c.82-1 1.66-2 2.49-3zm2.08 0h1l-2.49 3h-1l2.5-3zm2.07 0h1l-2.5 3h-1l2.49-3zm2.08 0h1l-2.49 3h-1l2.5-3zm2.07 0h1q-1.25 1.48-2.49 3h-1l2.49-3zm2.08 0h1l-2.5 3h-1c.82-1 1.66-2 2.49-3zm2.08 0h1l-2.49 3h-1l2.5-3zm2.07 0h1l-2.5 3h-1l2.49-3zm2.08 0h1l-2.49 3h-1zm20.32-5.85v2.45h-.68v-2.45h.64zm2.18 2.16l-.63-2.36.61-.17.64 2.37zm-5-18.6l-.64-2.36.62-.17.63 2.37zm7.63 17.6l-1.23-2.13.55-.32 1.23 2.13zm-9.62-16.69l-1.23-2.12.54-.31 1.23 2.12zm11.93 15l-1.73-1.73.45-.44 1.73 1.73zm-13.62-13.61l-1.73-1.73.45-.45 1.73 1.73zm15.4 11.41l-2.12-1.23.32-.55 2.13 1.22zm-16.68-9.6l-2.12-1.23.32-.54 2.12 1.23zm17.84 7l-2.37-.63.17-.62 2.36.64zm-18.6-5l-2.37-.64.17-.61 2.36.64zm19.05 2.19h-2.44v-.59h2.44v.64zm-19.26 0h-2.45v-.59h2.45v.64zm19-2.83l-2.36.64-.17-.61 2.37-.64zm-18.6 5l-2.36.63-.17-.61 2.37-.64zm17.6-7.64l-2.12 1.23-.32-.54 2.13-1.23zm-16.68 9.63l-2.15 1.25-.32-.55 2.12-1.22zm15-11.93l-1.73 1.73-.44-.45 1.73-1.73zm-13.63 13.68l-1.73 1.73-.45-.44 1.73-1.73zm11.38-15.41l-1.23 2.12-.55-.32 1.23-2.12zm-9.63 16.67l-1.23 2.13-.54-.32 1.23-2.13zm7-17.83l-.64 2.36-.62-.16.64-2.37zm-5 18.6l-.64 2.36-.61-.16.64-2.37zm17.63-83.33h-5.52l-7.13 7.13h12.75V6.64zm-8.29 0h-4.54l-7.14 7.13h4.55zm-7.3 0h-4.41l-7.13 7.13h4.55zm-7.3 0h-4.54l-7.13 7.13h4.55zm-7.3 0h-4.54l-7.13 7.13h4.55zm-7.3 0h-4.54l-7.13 7.13h4.55zm-7.3 0h-4.54l-7.13 7.13h4.55zm-14.6 0h-4.54l-7.07 7.14h4.55z" fill="#0ff"/></svg>