<svg id="Layer_2" data-name="Layer 2" xmlns="http://www.w3.org/2000/svg" viewBox="0 0 227.6 130.19"><defs><style>.cls-1{fill:aqua;}</style></defs><title>border60</title><circle class="cls-1" cx="13.52" cy="14.51" r="2.87"/><path class="cls-1" d="M393.52,321H376.88l-1.39,1.39H350.7l-2-2h-2l-6.13,6.13h-5.81l-3.52,3.22H304.1l-0.81-.81h-11l-1.71-1.71H274.09L269,322.06h-39.3l-2.07,2.07H197.76L192,329.88v82.69l-4.64,4.64V426l7.4,7.4v6.71l8.38,8.38H219l4.25-4.25h23.17l4.93,4.93h16.74l8.38-8.38h16l12.3-12.3h9.58l18.29,18.29h40.46l1.75-1.75H395l3.05,3.05h6.18l5.61-5.61,5.09-5.09v-11l-2.12-2.12v-7.55l-2.49-2.49v-79l0,0V345l3.64-3.64V330.51L402.46,319h-6.93Zm3.93,2.39,11.9,11.9v91.26l-6.78,6.78v4.85L396.71,444h-62l-16.54-16.54h-44.5l-15.75,15.75H214.31L193,425.32V387.89l3.25-3.25V341.39L193,338.14V330.3l5.17-5.17h68.51l5.58,5.58H331l3.29,3.29h6.57l10.64-10.64h46Z" transform="translate(-187.36 -318.96)"/><path class="cls-1" d="M408,335.83v90.82l0,0-6.25,6.25v4.85l0,0-4.8,4.81H335.28l0,0-16.5-16.5H273.1l-15.75,15.75H214.82l0,0-20.4-17.14V387.75l2.75-2.75V341l-2.75-2.75v-7.4l4.36-4.36H266.1l5.58,5.57h59.43l0,0,2.75,2.76h7.3l10.14-10.14h45.53l0,0Zm-0.25,90.72V335.93l-11-10.95H351.44L341.3,335.13h-7.5l0,0L331,332.33H271.58L266,326.76H198.84L194.63,331v7.2l2.75,2.75V385.1l-2.75,2.75v36.71l20.28,17h42.34L273,425.85h45.84l0,0,16.5,16.5h61.37l4.69-4.7v-4.85l0,0Z" transform="translate(-187.36 -318.96)"/></svg>