<svg data-name="Layer 2" xmlns="http://www.w3.org/2000/svg" viewBox="0 0 221.84 125.47"><path d="M206.33 1.75h-24.72L180.14.27h-5.7l-5.37 5.38h-9.74l-2.25 2.25h-20.32l-1 1h-23.24l-3.45-3.45H26.59l-1.41-1.41H9.94L7.41 1.51H4.28L.01 5.78v30.25l6 6v9.14l-4.25 4.26v26.08L6 85.75v16.71l-4 4v11.55l5.3 5.31 2.15 2.14h7.47l2.92-2.92h26.47l2.45-2.45h37.89l2.56 2.56h22l6.16-6.16h51.39l4 4 4 4h19.77l2.42-2.32h15.3l5.89-5.9v-9.21l-2.38-2.38v-85l4.07-4.06V5.99l-6-6h-7.74zM104.49 120.09l-.12.13-3.34-.13h3.46zM209.76 2.8l7 7v82l-6.47 6.47v7.87l-4.26 4.26v4.31l-2.29 2.29h-19.76l-6.13-6.13h-12.61l-4.6 4.6h-52.33l-3.6 3.6H11.33l-4.24-4.23V30.31l4.1-4.1v-10l3.28-3.28h5.75l2.91-2.91h5.4l2.3 2.31h4.28l4.2-4.16h65.61l6.31 6.31h19l4.53-4.51h28.61l1.13 1.2h5l7.08-7.08h3.41l1.25-1.24h28.52z" fill="#0ff"/></svg>