<svg xmlns="http://www.w3.org/2000/svg" xmlns:xlink="http://www.w3.org/1999/xlink" viewBox="0 0 273.09 290.57"><defs><linearGradient id="linear-gradient" x1="406.77" y1="311.56" x2="446.3" y2="287.65" gradientTransform="rotate(-90 300 180)" gradientUnits="userSpaceOnUse"><stop offset=".37" stop-color="#dc0000"/><stop offset=".4" stop-color="#e21200"/><stop offset=".46" stop-color="#eb3000"/><stop offset=".53" stop-color="#f24900"/><stop offset=".6" stop-color="#f85c00"/><stop offset=".69" stop-color="#fc6a00"/><stop offset=".8" stop-color="#fe7200"/><stop offset="1" stop-color="#ff7400"/></linearGradient><linearGradient id="linear-gradient-2" x1="668.59" y1="311.56" x2="708.13" y2="287.65" gradientTransform="matrix(0 1 1 0 120 -381.82)" xlink:href="#linear-gradient"/><linearGradient id="linear-gradient-3" x1="406.77" y1="88.29" x2="446.3" y2="64.38" gradientTransform="matrix(0 -1 -1 0 256.73 480)" xlink:href="#linear-gradient"/><linearGradient id="linear-gradient-4" x1="668.59" y1="88.29" x2="708.13" y2="64.38" gradientTransform="rotate(90 319.275 -62.545)" xlink:href="#linear-gradient"/><style>.cls-2{fill:#0071bc}.cls-3{fill:#0ff}.cls-4{fill:#2e3192}.cls-5{fill:#29abe2}.cls-6{fill:#ff4a00}.cls-9{fill:#fff;opacity:.34;mix-blend-mode:overlay}</style></defs><g style="isolation:isolate"><g id="Layer_5" data-name="Layer 5"><path class="cls-2" d="M430.29 283l1.28 1.45q-.15 2.68-.31 5.35L430 291l-.09 1.53 2.51-2.25q.11-1.82.21-3.64l1.8-1.62q.22-4 .43-7.93l.47-.43.28-5.25-4.89 4.48q-.23 3.56-.43 7.11zM434.18 225l-1.35-1.43q0 1.31-.06 2.62l2.67 2.84q-.26 10-.63 20.08l1.64 1.8q0-1.28.1-2.56l-.75-.82q.34-9.47.59-18.94l-2.23-2.38z" transform="translate(-163.45 -34.72)"/><path class="cls-3" d="M431.4 224.81l.78.83q0-1.78.08-3.57l2.65 2.8v1.4l1.59 1.69q0-1.18.06-2.35l-3.47-3.61v-2.12l-.59-.62v-1.34l-1-1.06q-.01 3.97-.1 7.95z" transform="translate(-163.45 -34.72)"/><path class="cls-4" d="M431.58 216.28l1 1.05v-.74l-1-1.05v.74zM431.61 215.08l1 1.05v-.73l-1-1.06v.74zM431.63 213.89l1 1.05v-.74l-1-1.05v.74zM431.65 212.69l1 1.05V213l-1-1.06v.74zM431.67 211.5l1 1.05v-.74l-1-1.05v.74z" transform="translate(-163.45 -34.72)"/><path class="cls-2" d="M431.23 69.54q.16 2.68.31 5.35l-1.28 1.45q.2 3.57.38 7.14l4.89 4.52-.28-5.25-.47-.43q-.21-4-.43-7.93l-1.8-1.62q-.1-1.82-.21-3.64l-2.51-2.25.09 1.53zM435.44 130.29l-2.65 2.84q0 1.31.06 2.62l1.33-1.43v-1.21l2.22-2.38q-.25-9.47-.59-18.94l.74-.82q0-1.28-.1-2.56l-1.63 1.8q.35 10.03.62 20.08z" transform="translate(-163.45 -34.72)"/><path class="cls-3" d="M434.89 134.48l-2.64 2.8q0-1.78-.08-3.57l-.78.83q.1 4 .18 8l1-1.06v-1.34l.58-.62v-2.12l3.44-3.65q0-1.18-.06-2.35l-1.59 1.69z" transform="translate(-163.45 -34.72)"/><path class="cls-4" d="M431.59 143.82l1-1.05V142l-1 1.05v.74zM431.61 145l1-1.06v-.73l-1 1.05v.74zM431.63 146.21l1-1.05v-.74l-1 1.05v.74zM431.65 147.41l1-1.06v-.73l-1 1.05v.74zM431.67 148.6l1-1.05v-.74l-1 1.05v.74z" transform="translate(-163.45 -34.72)"/><path class="cls-5" d="M414 61.39l3.45 3.05q.18 2.86.35 5.72 4.17 3.72 8.33 7.48.42 7.59.77 15.19l-1.28 1.41q.29 6.33.54 12.66l2.77 2.59q.85 22.56 1.16 45.13l-2 2.12q.29 22.94 0 45.88l2 2.12q-.3 22.57-1.14 45.13l-1.79 1.68-1 .92q-.25 6.33-.54 12.66l1.28 1.41q-.35 7.6-.77 15.19-4.15 3.76-8.32 7.48-.17 2.86-.35 5.72l-3.4 3.07-.42 6.44 3.52-3.1.11-1.75q3.34-2.95 6.66-5.91l2.17.13 2.28-2 .08-1.32L430 289l.16-2.78-1.54-1.76q.25-4.54.49-9.08 3.27-3 6.53-6 .41-8.51.74-17l-2.56-2.8q.38-10.1.64-20.21l-3.79-4q1.11-45.68 0-91.38l3.78-4q-.27-10.1-.65-20.21l2.56-2.8q-.33-8.51-.74-17-3.26-3-6.53-6-.23-4.54-.49-9.08l1.54-1.76-.16-2.78-1.57-1.4-.08-1.32-2.28-2-2.17.13q-3.33-3-6.66-5.91l-.1-1.86-3.52-3.09q.21 3.26.4 6.48zM430.13 204l-1.57-1.63q.27-22.74 0-45.48l1.57-1.63q.31 24.42 0 48.74z" transform="translate(-163.45 -34.72)"/><path class="cls-6" d="M431.68 149.13q.25 15.27.25 30.55t-.24 30.55l1 1v-1.24l-.46-.48q.11-7.17.17-14.34l2.3-2.17v-13.29-13.29l-2.27-2.26q-.06-7.17-.18-14.34l.46-.48v-1.24zm2.53 17.46v26.16l-1.78 1.77q.06-7.43.06-14.86t-.06-14.86z" transform="translate(-163.45 -34.72)"/><path d="M434.77 72l-.26-3.83q-12.51-11-25.19-21.77l-.11-.1v-.15q-.45-5.45-.92-10.91a.48.48 0 111-.08q.37 5.46.71 10.93l-.13-.25q12.45 11 24.77 22.35.04 1.94.13 3.81z" transform="translate(-163.45 -34.72)" fill="url(#linear-gradient)"/><path d="M434.77 288l-.26 3.83q-12.51 11-25.19 21.77l-.11.1v.16q-.45 5.45-.92 10.91a.48.48 0 101 .08q.37-5.46.71-10.93l-.13.26q12.45-11 24.77-22.35.04-1.96.13-3.83z" transform="translate(-163.45 -34.72)" fill="url(#linear-gradient-2)"/><path class="cls-9" d="M427.81 108.42l1.14 1.07q.85 22.56 1.16 45.13l-2 2.12q.29 22.94 0 45.88l2 2.12q-.3 22.57-1.14 45.13l-1.79 1.68q4.44 4.84 8.85 9.72.19-4.43.36-8.87l-2.56-2.8q.38-10.1.64-20.21l-3.79-4q1.11-45.68 0-91.38l3.78-4q-.27-10.1-.65-20.21l2.56-2.8q-.15-3.8-.31-7.59-4.11 4.51-8.25 9.01zm2.32 95.58l-1.57-1.63q.27-22.74 0-45.48l1.57-1.63q.31 24.42 0 48.74z" transform="translate(-163.45 -34.72)"/><path class="cls-2" d="M169.71 283l-1.28 1.45q.15 2.68.31 5.35L170 291l.09 1.53-2.51-2.25q-.11-1.82-.21-3.64l-1.8-1.62q-.22-4-.43-7.93l-.47-.43-.28-5.25 4.89 4.48q.23 3.56.43 7.11zM165.82 225l1.35-1.43q0 1.31.06 2.62l-2.67 2.84q.26 10 .63 20.08l-1.64 1.8q0-1.28-.09-2.56l.75-.82q-.34-9.47-.59-18.94l2.23-2.38z" transform="translate(-163.45 -34.72)"/><path class="cls-3" d="M168.6 224.81l-.78.83q0-1.78-.08-3.57l-2.65 2.8v1.4l-1.55 1.73q0-1.18-.06-2.35l3.44-3.65v-2.12l.59-.62v-1.34l1-1.06q0 3.97.09 7.95z" transform="translate(-163.45 -34.72)"/><path class="cls-4" d="M168.42 216.28l-1 1.05v-.74l1-1.05v.74zM168.39 215.08l-1 1.05v-.73l1-1.06v.74zM168.37 213.89l-1 1.05v-.74l1-1.05v.74zM168.35 212.69l-1 1.05V213l1-1.06v.74zM168.33 211.5l-1 1.05v-.74l1-1.05v.74z" transform="translate(-163.45 -34.72)"/><path class="cls-2" d="M168.77 69.54q-.16 2.68-.31 5.35l1.28 1.45q-.2 3.57-.38 7.14L164.47 88l.28-5.25.47-.43q.21-4 .43-7.93l1.8-1.62q.1-1.82.21-3.64l2.51-2.25-.09 1.53zM164.56 130.29l2.65 2.84q0 1.31-.06 2.62l-1.33-1.43v-1.21l-2.22-2.38q.25-9.47.59-18.94l-.74-.82q0-1.28.1-2.56l1.63 1.8q-.35 10.03-.62 20.08z" transform="translate(-163.45 -34.72)"/><path class="cls-3" d="M165.11 134.48l2.64 2.8q0-1.78.08-3.57l.78.83q-.1 4-.18 8l-1-1.06v-1.34l-.58-.62v-2.12l-3.44-3.65q0-1.18.06-2.35l1.59 1.69z" transform="translate(-163.45 -34.72)"/><path class="cls-4" d="M168.41 143.82l-1-1.05V142l1 1.05v.74zM168.39 145l-1-1.06v-.73l1 1.05v.74zM168.37 146.21l-1-1.05v-.74l1 1.05v.74zM168.35 147.41l-1-1.06v-.73l1 1.05v.74zM168.33 148.6l-1-1.05v-.74l1 1.05v.74z" transform="translate(-163.45 -34.72)"/><path class="cls-5" d="M186.4 54.95L182.88 58l-.11 1.75q-3.34 2.95-6.66 5.91l-2.17-.13-2.28 2-.08 1.32-1.58 1.49-.16 2.78 1.54 1.76q-.26 4.54-.49 9.08-3.27 3-6.53 6-.41 8.51-.74 17l2.56 2.8q-.38 10.1-.65 20.21l3.78 4q-1.12 45.68 0 91.38l-3.79 4q.27 10.1.64 20.21l-2.56 2.8q.33 8.51.74 17 3.26 3 6.53 6 .23 4.54.49 9.08l-1.54 1.76.16 2.78 1.57 1.4.08 1.32 2.28 2 2.17-.13q3.33 3 6.66 5.91l.11 1.75 3.52 3.1q-.22-3.22-.42-6.44l-3.45-3.05q-.18-2.86-.35-5.72-4.17-3.73-8.32-7.48-.41-7.59-.77-15.19l1.28-1.41q-.29-6.33-.54-12.66l-1-.92-1.8-1.59q-.84-22.56-1.14-45.13l2-2.12q-.28-22.94 0-45.88l-2-2.12q.31-22.57 1.16-45.13l2.77-2.59q.25-6.33.54-12.66l-1.28-1.41q.36-7.6.77-15.19 4.16-3.76 8.33-7.48.17-2.86.35-5.72l3.5-3.05q.19-3.22.4-6.44zm-16.52 100.36l1.57 1.63q-.28 22.74 0 45.48l-1.58 1.58q-.31-24.32.01-48.69z" transform="translate(-163.45 -34.72)"/><path class="cls-6" d="M167.31 148.08v1.24l.46.48q-.12 7.17-.18 14.34l-2.27 2.26v26.58l2.27 2.26q.06 7.17.17 14.34l-.46.48v1.24l1-1q-.25-15.27-.24-30.55t.25-30.55zm.25 16.74q-.06 7.43-.06 14.86t.06 14.86l-1.78-1.77v-13.08-13.08z" transform="translate(-163.45 -34.72)"/><path d="M165.23 72l.26-3.83q12.51-11 25.19-21.77l.11-.1v-.15q.45-5.45.92-10.91a.48.48 0 10-1-.08q-.37 5.46-.71 10.93l.13-.25q-12.45 11-24.77 22.35-.04 1.94-.13 3.81z" transform="translate(-163.45 -34.72)" fill="url(#linear-gradient-3)"/><path d="M165.23 288l.26 3.83q12.54 11.07 25.2 21.84l.11.1v.16q.45 5.45.92 10.91a.48.48 0 11-1 .08q-.37-5.46-.71-10.93l.13.26q-12.45-11-24.77-22.35-.05-2.03-.14-3.9z" transform="translate(-163.45 -34.72)" fill="url(#linear-gradient-4)"/><path class="cls-9" d="M163.94 99.37q-.16 3.79-.31 7.59l2.56 2.8q-.38 10.1-.65 20.21l3.78 4q-1.12 45.68 0 91.38l-3.79 4q.27 10.1.64 20.21l-2.56 2.8q.17 4.44.36 8.87 4.41-4.88 8.85-9.72l-1.82-1.64q-.84-22.56-1.14-45.13l2-2.12q-.28-22.94 0-45.88l-2-2.12q.31-22.57 1.16-45.13l1.14-1.07q-4.11-4.5-8.22-9.05zm5.94 55.94l1.57 1.63q-.28 22.74 0 45.48l-1.58 1.58q-.31-24.32.01-48.69z" transform="translate(-163.45 -34.72)"/></g></g></svg>