<svg preserveAspectRatio="none" id="Layer_1" data-name="Layer 1"
    xmlns="http://www.w3.org/2000/svg" viewBox="0 0 45.62 6.9">
    <defs>
        <style>.cls-1{fill:#00b3ea;}.cls-2{opacity:0.6;}.cls-3{opacity:0.2;}.cls-4{fill:#08ade5;}</style>
    </defs>
    <title>head3</title>
    <path class="cls-1" d="M59.84,306.59H14.22v-6.9H59.84v6.9Zm-45.17-.46H59.39v-6H14.68v6Z" transform="translate(-14.22 -299.69)"/>
    <g class="cls-2">
        <rect x="1.15" y="6.44" width="43.33" height="0.46"/>
        <rect x="1.15" width="43.33" height="0.46"/>
        <rect y="0.98" width="0.46" height="4.94"/>
        <rect x="45.17" y="0.98" width="0.46" height="4.94"/>
    </g>
    <g class="cls-3">
        <polygon class="cls-4" points="16.65 0.46 15.75 0.46 13 6.45 13.89 6.45 16.65 0.46"/>
        <polygon class="cls-4" points="18.13 0.46 17.24 0.46 14.48 6.45 15.38 6.45 18.13 0.46"/>
        <polygon class="cls-4" points="15.16 0.46 14.27 0.46 11.52 6.45 12.41 6.45 15.16 0.46"/>
        <polygon class="cls-4" points="24.07 0.46 23.17 0.46 20.42 6.45 21.31 6.45 24.07 0.46"/>
        <polygon class="cls-4" points="13.68 0.46 12.79 0.46 10.03 6.45 10.93 6.45 13.68 0.46"/>
        <polygon class="cls-4" points="22.58 0.46 21.69 0.46 18.93 6.45 19.83 6.45 22.58 0.46"/>
        <polygon class="cls-4" points="21.1 0.46 20.2 0.46 17.45 6.45 18.34 6.45 21.1 0.46"/>
        <polygon class="cls-4" points="2.4 0.46 0.46 4.68 0.46 6.45 0.54 6.45 3.29 0.46 2.4 0.46"/>
        <polygon class="cls-4" points="4.78 0.46 3.88 0.46 1.13 6.45 2.02 6.45 4.78 0.46"/>
        <polygon class="cls-4" points="25.55 0.46 24.66 0.46 21.9 6.45 22.8 6.45 25.55 0.46"/>
        <polygon class="cls-4" points="6.26 0.46 5.37 0.46 2.61 6.45 3.51 6.45 6.26 0.46"/>
        <polygon class="cls-4" points="12.2 0.46 11.3 0.46 8.55 6.45 9.44 6.45 12.2 0.46"/>
        <polygon class="cls-4" points="7.74 0.46 6.85 0.46 4.1 6.45 4.99 6.45 7.74 0.46"/>
        <polygon class="cls-4" points="10.71 0.46 9.82 0.46 7.06 6.45 7.96 6.45 10.71 0.46"/>
        <polygon class="cls-4" points="9.23 0.46 8.34 0.46 5.58 6.45 6.47 6.45 9.23 0.46"/>
        <polygon class="cls-4" points="19.61 0.46 18.72 0.46 15.97 6.45 16.86 6.45 19.61 0.46"/>
        <polygon class="cls-4" points="43.36 0.46 42.46 0.46 39.71 6.45 40.6 6.45 43.36 0.46"/>
        <polygon class="cls-4" points="41.87 0.46 40.98 0.46 38.22 6.45 39.12 6.45 41.87 0.46"/>
        <polygon class="cls-4" points="40.39 0.46 39.49 0.46 36.74 6.45 37.63 6.45 40.39 0.46"/>
        <polygon class="cls-4" points="44.84 0.46 43.95 0.46 41.19 6.45 42.09 6.45 44.84 0.46"/>
        <polygon class="cls-4" points="1.81 0.46 0.46 0.46 0.46 3.4 1.81 0.46"/>
        <polygon class="cls-4" points="45.17 2.98 45.17 1.03 42.68 6.45 43.57 6.45 45.17 2.98"/>
        <polygon class="cls-4" points="44.16 6.45 45.17 6.45 45.17 4.26 44.16 6.45"/>
        <polygon class="cls-4" points="38.91 0.46 38.01 0.46 35.26 6.45 36.15 6.45 38.91 0.46"/>
        <polygon class="cls-4" points="31.49 0.46 30.59 0.46 27.84 6.45 28.73 6.45 31.49 0.46"/>
        <polygon class="cls-4" points="27.03 0.46 26.14 0.46 23.39 6.45 24.28 6.45 27.03 0.46"/>
        <polygon class="cls-4" points="30 0.46 29.11 0.46 26.35 6.45 27.25 6.45 30 0.46"/>
        <polygon class="cls-4" points="28.52 0.46 27.62 0.46 24.87 6.45 25.76 6.45 28.52 0.46"/>
        <polygon class="cls-4" points="34.45 0.46 33.56 0.46 30.8 6.45 31.7 6.45 34.45 0.46"/>
        <polygon class="cls-4" points="32.97 0.46 32.08 0.46 29.32 6.45 30.21 6.45 32.97 0.46"/>
        <polygon class="cls-4" points="35.94 0.46 35.04 0.46 32.29 6.45 33.18 6.45 35.94 0.46"/>
        <polygon class="cls-4" points="37.42 0.46 36.53 0.46 33.77 6.45 34.67 6.45 37.42 0.46"/>
    </g>
</svg>