<svg preserveAspectRatio="none" id="Layer_1" data-name="Layer 1" xmlns="http://www.w3.org/2000/svg" viewBox="0 0 45.62 6.9"><defs><style>.cls-4{fill:#08ade5}</style></defs><path d="M59.84 306.59H14.22v-6.9h45.62v6.9zm-45.17-.46h44.72v-6H14.68v6z" transform="translate(-14.22 -299.69)" fill="#00b3ea"/><g opacity=".6"><path d="M1.15 6.44h43.33v.46H1.15zM1.15 0h43.33v.46H1.15zM0 .98h.46v4.94H0zM45.17.98h.46v4.94h-.46z"/></g><g opacity=".2"><path class="cls-4" d="M16.65.46h-.9L13 6.45h.89L16.65.46zM18.13.46h-.89l-2.76 5.99h.9L18.13.46zM15.16.46h-.89l-2.75 5.99h.89L15.16.46zM24.07.46h-.9l-2.75 5.99h.89L24.07.46zM13.68.46h-.89l-2.76 5.99h.9L13.68.46zM22.58.46h-.89l-2.76 5.99h.9L22.58.46zM21.1.46h-.9l-2.75 5.99h.89L21.1.46zM2.4.46L.46 4.68v1.77h.08L3.29.46H2.4zM4.78.46h-.9L1.13 6.45h.89L4.78.46zM25.55.46h-.89L21.9 6.45h.9L25.55.46zM6.26.46h-.89L2.61 6.45h.9L6.26.46zM12.2.46h-.9L8.55 6.45h.89L12.2.46zM7.74.46h-.89L4.1 6.45h.89L7.74.46zM10.71.46h-.89L7.06 6.45h.9L10.71.46zM9.23.46h-.89L5.58 6.45h.89L9.23.46zM19.61.46h-.89l-2.75 5.99h.89L19.61.46zM43.36.46h-.9l-2.75 5.99h.89L43.36.46zM41.87.46h-.89l-2.76 5.99h.9L41.87.46zM40.39.46h-.9l-2.75 5.99h.89L40.39.46zM44.84.46h-.89l-2.76 5.99h.9L44.84.46zM1.81.46H.46V3.4L1.81.46zM45.17 2.98V1.03l-2.49 5.42h.89l1.6-3.47zM44.16 6.45h1.01V4.26l-1.01 2.19zM38.91.46h-.9l-2.75 5.99h.89L38.91.46zM31.49.46h-.9l-2.75 5.99h.89L31.49.46zM27.03.46h-.89l-2.75 5.99h.89L27.03.46zM30 .46h-.89l-2.76 5.99h.9L30 .46zM28.52.46h-.9l-2.75 5.99h.89L28.52.46zM34.45.46h-.89L30.8 6.45h.9L34.45.46zM32.97.46h-.89l-2.76 5.99h.89L32.97.46zM35.94.46h-.9l-2.75 5.99h.89L35.94.46zM37.42.46h-.89l-2.76 5.99h.9L37.42.46z"/></g></svg>