<svg preserveAspectRatio="none" id="Layer_1" data-name="Layer 1" xmlns="http://www.w3.org/2000/svg" viewBox="0 0 10.81 10.13"><defs><style>.cls-1{fill:#00b4eb;}.cls-2,.cls-3{fill:#feb113;}.cls-3{opacity:0.3;}</style></defs><title>shape51</title><path class="cls-1" d="M362.63,255.47l0.05-.11,0.06-.13,0.07-.18a3.74,3.74,0,0,0,.22-1.16,3.81,3.81,0,0,0-2.31-3.62,3.78,3.78,0,0,0-1.79-.29,3.78,3.78,0,0,0-1.84.64l-0.16.11-0.11.09-0.09.08-0.61-.7,0,0,0.08-.07,0.14-.11,0.19-.14a4.74,4.74,0,0,1,1.32-.63,4.73,4.73,0,0,1,3.18.19,4.72,4.72,0,0,1,2.87,4.5,4.87,4.87,0,0,1-.1.82,5,5,0,0,1-.17.62l-0.09.22-0.07.16-0.06.13Z" transform="translate(-353.82 -248.37)"/><path class="cls-1" d="M361.75,256.61l0,0,0.08-.08,0.11-.12,0.06-.07,0.06-.07,0.12-.14,0.1-.13,0.09-.13,0.77,0.51-0.11.16-0.12.16-0.15.18-0.08.09-0.08.08-0.14.14-0.1.1,0,0Z" transform="translate(-353.82 -248.37)"/><path class="cls-1" d="M360.7,257.28l0.14-.06,0.31-.16,0.29-.19,0.09-.07,0,0,0.57,0.73,0,0-0.11.08-0.36.24-0.38.2-0.18.08Z" transform="translate(-353.82 -248.37)"/><path class="cls-1" d="M359.49,257.57a3.73,3.73,0,0,0,.5-0.07l0.18,0,0.16,0,0.11,0h0l0.3,0.87-0.05,0-0.14,0-0.19.05-0.22.05a4.67,4.67,0,0,1-.62.08Z" transform="translate(-353.82 -248.37)"/><path class="cls-1" d="M358.25,257.45a4.09,4.09,0,0,0,.5.09h0.5v0.92h-0.63l-0.23,0-0.2,0-0.14,0H358Z" transform="translate(-353.82 -248.37)"/><path class="cls-1" d="M357.12,256.94l0.13,0.09,0.14,0.08,0.16,0.09a3.7,3.7,0,0,0,.47.19l-0.29.88a4.67,4.67,0,0,1-.58-0.24l-0.2-.11-0.17-.1-0.17-.11Z" transform="translate(-353.82 -248.37)"/><path class="cls-1" d="M356.21,256.09l0,0,0.07,0.09,0.11,0.12,0.13,0.13,0.13,0.13,0.12,0.11,0.12,0.1-0.56.74-0.15-.12-0.15-.13-0.17-.16-0.16-.17-0.13-.15-0.09-.11,0,0Z" transform="translate(-353.82 -248.37)"/><path class="cls-1" d="M355.62,255v0l0,0.11c0,0.09.08,0.2,0.14,0.32s0.12,0.22.17,0.3l0.09,0.13-0.76.52-0.11-.17c-0.06-.1-0.14-0.24-0.21-0.38s-0.13-.28-0.17-0.39l0-.13,0-.05Z" transform="translate(-353.82 -248.37)"/><path class="cls-1" d="M355.42,253.77v0.16s0,0.1,0,.16,0,0.12,0,.18,0,0.12,0,.18v0.08l0,0.07,0,0.11v0l-0.89.24V255l0-.14,0-.09,0-.1c0-.07,0-0.15,0-0.23s0-.16,0-0.23,0-.14,0-0.2v-0.2h0.92Z" transform="translate(-353.82 -248.37)"/><path class="cls-2" d="M361.79,249l-0.11-.06-0.13-.06-0.17-.08a5.44,5.44,0,0,0-.93-0.31,5.58,5.58,0,0,0-1-.14h-0.54l-0.26,0a5.58,5.58,0,0,0-.92.17,5.31,5.31,0,0,0-1.22.51,5.18,5.18,0,0,0-.62.42,5.26,5.26,0,0,0-.58.52,5.41,5.41,0,0,0-.89,1.23,5.38,5.38,0,0,0-.61,2.17c0,0.11,0,.2,0,0.26v0.09H354v-0.09c0-.06,0-0.14,0-0.25a5.16,5.16,0,0,1,.59-2.09,5.21,5.21,0,0,1,.86-1.18,5,5,0,0,1,.55-0.5,5,5,0,0,1,.6-0.4,5.11,5.11,0,0,1,1.18-.49,5.38,5.38,0,0,1,.89-0.17l0.25,0h0.52a5.37,5.37,0,0,1,.93.13,5.23,5.23,0,0,1,.89.3l0.16,0.07,0.12,0.06,0.11,0.05,0.08,0,0.22,0.13a5.11,5.11,0,0,1,.72.54,5.33,5.33,0,0,1,.83,1,5.58,5.58,0,0,1,.36.63,5.48,5.48,0,0,1,.28.69,5.19,5.19,0,0,1,.24,1.44,5.06,5.06,0,0,1-.12,1.27,5.25,5.25,0,0,1-.27.86l-0.1.23,0,0.08,0.19,0.09,0-.08,0.11-.24a5.48,5.48,0,0,0,.28-0.9,5.29,5.29,0,0,0,.13-1.32,5.4,5.4,0,0,0-.25-1.5,5.74,5.74,0,0,0-.29-0.72,5.83,5.83,0,0,0-.37-0.65,5.54,5.54,0,0,0-.87-1,5.32,5.32,0,0,0-.75-0.57l-0.23-.13Z" transform="translate(-353.82 -248.37)"/><path class="cls-1" d="M357.16,253.65a2,2,0,1,0,2-2A2,2,0,0,0,357.16,253.65Zm3.69,0a1.71,1.71,0,1,1-1.71-1.71A1.71,1.71,0,0,1,360.85,253.65Z" transform="translate(-353.82 -248.37)"/><circle class="cls-3" cx="5.32" cy="5.28" r="1.71"/></svg>