<svg preserveAspectRatio="none" id="Layer_1" data-name="Layer 1" xmlns="http://www.w3.org/2000/svg" viewBox="0 0 107.89 107.89"><defs><style>.cls-1{fill:#02a6ff;}</style></defs><title>shape41</title><g id="_编组_" data-name="&lt;编组&gt;"><path id="_复合路径_" data-name="&lt;复合路径&gt;" class="cls-1" d="M2795.06,1902.12l-4.28-.41a2.45,2.45,0,0,1-2.07-2L2788,1896a2.45,2.45,0,0,1,1.19-2.6l3.81-2a2,2,0,0,0,.93-2.51l-1.91-4.73a2,2,0,0,0-2.41-1.17l-4.12,1.21a2.47,2.47,0,0,1-2.67-1l-2.63-4a2.46,2.46,0,0,1,.08-2.86L2783,1873a2,2,0,0,0-.13-2.68l-3.61-3.61a2,2,0,0,0-2.68-.13l-3.32,2.74a2.45,2.45,0,0,1-2.86.08l-3.39-2.28a2.46,2.46,0,0,1-1-2.68l1.28-4.11a2,2,0,0,0-1.13-2.43l-4.71-2a2,2,0,0,0-2.53.89l-2,3.78a2.46,2.46,0,0,1-2.62,1.16l-4.43-.88a2.46,2.46,0,0,1-2-2.08l-0.41-4.28a2,2,0,0,0-2-1.8h-5.1a2,2,0,0,0-2,1.8l-0.41,4.28a2.46,2.46,0,0,1-2,2.08l-4.32.86a2.46,2.46,0,0,1-2.61-1.16l-2-3.79a2,2,0,0,0-2.53-.9l-4.71,2a2,2,0,0,0-1.14,2.43l1.27,4.11a2.46,2.46,0,0,1-1,2.68l-3.48,2.33a2.46,2.46,0,0,1-2.86-.08l-3.32-2.74a2,2,0,0,0-2.68.13l-3.61,3.61a2,2,0,0,0-.13,2.68l2.74,3.32a2.45,2.45,0,0,1,.08,2.86l-2.27,3.37a2.46,2.46,0,0,1-2.68,1l-4.11-1.28a2,2,0,0,0-2.43,1.13l-2,4.71a2,2,0,0,0,.89,2.53l3.78,2a2.46,2.46,0,0,1,1.16,2.62l-0.89,4.45a2.46,2.46,0,0,1-2.08,2l-4.28.41a2,2,0,0,0-1.8,2v5.1a2,2,0,0,0,1.8,2l4.28,0.41a2.45,2.45,0,0,1,2.07,2l0.72,3.77a2.45,2.45,0,0,1-1.19,2.6l-3.81,2a2,2,0,0,0-.93,2.51l1.91,4.74a2,2,0,0,0,2.41,1.17l4.12-1.21a2.47,2.47,0,0,1,2.67,1l2.63,4a2.46,2.46,0,0,1-.08,2.86l-2.74,3.32a2,2,0,0,0,.13,2.68l3.61,3.61a2,2,0,0,0,2.68.13l3.32-2.74a2.45,2.45,0,0,1,2.86-.08l3.39,2.28a2.46,2.46,0,0,1,1,2.68l-1.28,4.11a2,2,0,0,0,1.13,2.43l4.71,2a2,2,0,0,0,2.53-.89l2-3.78a2.46,2.46,0,0,1,2.62-1.16l4.43,0.88a2.46,2.46,0,0,1,2,2.08l0.41,4.28a2,2,0,0,0,2,1.8h5.1a2,2,0,0,0,2-1.8l0.41-4.28a2.46,2.46,0,0,1,2-2.08l4.32-.86a2.46,2.46,0,0,1,2.61,1.16l2,3.79a2,2,0,0,0,2.53.9l4.71-2a2,2,0,0,0,1.14-2.43l-1.27-4.11a2.46,2.46,0,0,1,1-2.68l3.48-2.33a2.46,2.46,0,0,1,2.86.08l3.32,2.74a2,2,0,0,0,2.68-.13l3.61-3.61a2,2,0,0,0,.13-2.68l-2.74-3.32a2.45,2.45,0,0,1-.08-2.86l2.27-3.37a2.46,2.46,0,0,1,2.68-1l4.11,1.28a2,2,0,0,0,2.43-1.13l2-4.71a2,2,0,0,0-.89-2.53l-3.78-2a2.46,2.46,0,0,1-1.16-2.62l0.89-4.45a2.46,2.46,0,0,1,2.08-2l4.28-.41a2,2,0,0,0,1.8-2v-5.1A2,2,0,0,0,2795.06,1902.12Zm-52.14,42a37.45,37.45,0,1,1,37.45-37.45A37.45,37.45,0,0,1,2742.92,1944.11Z" transform="translate(-2688.98 -1852.71)"/><path id="_复合路径_2" data-name="&lt;复合路径&gt;" class="cls-1" d="M2742.92,1879.62a27.62,27.62,0,1,0,27.62,27.62A27.65,27.65,0,0,0,2742.92,1879.62Zm0,49.8a22.18,22.18,0,1,1,22.18-22.18A22.21,22.21,0,0,1,2742.92,1929.43Z" transform="translate(-2688.98 -1852.71)"/></g><g id="_编组_2" data-name="&lt;编组&gt;"><path id="_复合路径_3" data-name="&lt;复合路径&gt;" class="cls-1" d="M2795.06,1902.12l-4.28-.41a2.45,2.45,0,0,1-2.07-2L2788,1896a2.45,2.45,0,0,1,1.19-2.6l3.81-2a2,2,0,0,0,.93-2.51l-1.91-4.73a2,2,0,0,0-2.41-1.17l-4.12,1.21a2.47,2.47,0,0,1-2.67-1l-2.63-4a2.46,2.46,0,0,1,.08-2.86L2783,1873a2,2,0,0,0-.13-2.68l-3.61-3.61a2,2,0,0,0-2.68-.13l-3.32,2.74a2.45,2.45,0,0,1-2.86.08l-3.39-2.28a2.46,2.46,0,0,1-1-2.68l1.28-4.11a2,2,0,0,0-1.13-2.43l-4.71-2a2,2,0,0,0-2.53.89l-2,3.78a2.46,2.46,0,0,1-2.62,1.16l-4.43-.88a2.46,2.46,0,0,1-2-2.08l-0.41-4.28a2,2,0,0,0-2-1.8h-5.1a2,2,0,0,0-2,1.8l-0.41,4.28a2.46,2.46,0,0,1-2,2.08l-4.32.86a2.46,2.46,0,0,1-2.61-1.16l-2-3.79a2,2,0,0,0-2.53-.9l-4.71,2a2,2,0,0,0-1.14,2.43l1.27,4.11a2.46,2.46,0,0,1-1,2.68l-3.48,2.33a2.46,2.46,0,0,1-2.86-.08l-3.32-2.74a2,2,0,0,0-2.68.13l-3.61,3.61a2,2,0,0,0-.13,2.68l2.74,3.32a2.45,2.45,0,0,1,.08,2.86l-2.27,3.37a2.46,2.46,0,0,1-2.68,1l-4.11-1.28a2,2,0,0,0-2.43,1.13l-2,4.71a2,2,0,0,0,.89,2.53l3.78,2a2.46,2.46,0,0,1,1.16,2.62l-0.89,4.45a2.46,2.46,0,0,1-2.08,2l-4.28.41a2,2,0,0,0-1.8,2v5.1a2,2,0,0,0,1.8,2l4.28,0.41a2.45,2.45,0,0,1,2.07,2l0.72,3.77a2.45,2.45,0,0,1-1.19,2.6l-3.81,2a2,2,0,0,0-.93,2.51l1.91,4.74a2,2,0,0,0,2.41,1.17l4.12-1.21a2.47,2.47,0,0,1,2.67,1l2.63,4a2.46,2.46,0,0,1-.08,2.86l-2.74,3.32a2,2,0,0,0,.13,2.68l3.61,3.61a2,2,0,0,0,2.68.13l3.32-2.74a2.45,2.45,0,0,1,2.86-.08l3.39,2.28a2.46,2.46,0,0,1,1,2.68l-1.28,4.11a2,2,0,0,0,1.13,2.43l4.71,2a2,2,0,0,0,2.53-.89l2-3.78a2.46,2.46,0,0,1,2.62-1.16l4.43,0.88a2.46,2.46,0,0,1,2,2.08l0.41,4.28a2,2,0,0,0,2,1.8h5.1a2,2,0,0,0,2-1.8l0.41-4.28a2.46,2.46,0,0,1,2-2.08l4.32-.86a2.46,2.46,0,0,1,2.61,1.16l2,3.79a2,2,0,0,0,2.53.9l4.71-2a2,2,0,0,0,1.14-2.43l-1.27-4.11a2.46,2.46,0,0,1,1-2.68l3.48-2.33a2.46,2.46,0,0,1,2.86.08l3.32,2.74a2,2,0,0,0,2.68-.13l3.61-3.61a2,2,0,0,0,.13-2.68l-2.74-3.32a2.45,2.45,0,0,1-.08-2.86l2.27-3.37a2.46,2.46,0,0,1,2.68-1l4.11,1.28a2,2,0,0,0,2.43-1.13l2-4.71a2,2,0,0,0-.89-2.53l-3.78-2a2.46,2.46,0,0,1-1.16-2.62l0.89-4.45a2.46,2.46,0,0,1,2.08-2l4.28-.41a2,2,0,0,0,1.8-2v-5.1A2,2,0,0,0,2795.06,1902.12Zm-52.14,42a37.45,37.45,0,1,1,37.45-37.45A37.45,37.45,0,0,1,2742.92,1944.11Z" transform="translate(-2688.98 -1852.71)"/><path id="_复合路径_4" data-name="&lt;复合路径&gt;" class="cls-1" d="M2742.92,1879.62a27.62,27.62,0,1,0,27.62,27.62A27.65,27.65,0,0,0,2742.92,1879.62Zm0,49.8a22.18,22.18,0,1,1,22.18-22.18A22.21,22.21,0,0,1,2742.92,1929.43Z" transform="translate(-2688.98 -1852.71)"/></g></svg>