<svg preserveAspectRatio="none" id="央铋_1" data-name="央铋 1" xmlns="http://www.w3.org/2000/svg" viewBox="0 0 52.5 52.47"><defs><style>.cls-1{fill:aqua;}</style></defs><title>shape58</title><path class="cls-1" d="M358.73,81.85a26.42,26.42,0,0,1-3-.33l0.12-.74a25.72,25.72,0,0,0,2.94.32Zm3,0,0-.75a25.52,25.52,0,0,0,2.93-.36l0.13,0.74A26.23,26.23,0,0,1,361.77,81.83Zm-9-1a25.94,25.94,0,0,1-2.87-1l0.29-.69a25.34,25.34,0,0,0,2.78,1Zm15-.09L367.53,80a25.31,25.31,0,0,0,2.77-1l0.3,0.69A26.24,26.24,0,0,1,367.75,80.75Zm-20.6-2.27a26.4,26.4,0,0,1-2.55-1.65l0.44-.61a25.47,25.47,0,0,0,2.48,1.6Zm26.16-.16-0.38-.65A25.41,25.41,0,0,0,375.39,76l0.45,0.6A26.46,26.46,0,0,1,373.31,78.32Zm-31.06-3.43a26.59,26.59,0,0,1-2.11-2.19l0.57-.49a25.73,25.73,0,0,0,2,2.13Zm35.91-.22-0.52-.54a25.83,25.83,0,0,0,2-2.15l0.58,0.48A26.91,26.91,0,0,1,378.16,74.68ZM338.3,70.28a26.12,26.12,0,0,1-1.55-2.62l0.67-.34a25.42,25.42,0,0,0,1.5,2.54ZM382.06,70l-0.63-.41A25.73,25.73,0,0,0,382.9,67l0.67,0.34A26.07,26.07,0,0,1,382.06,70Zm-46.54-5.13a26.09,26.09,0,0,1-.9-2.9l0.73-.18a25.25,25.25,0,0,0,.88,2.82Zm49.26-.3-0.71-.25a25.55,25.55,0,0,0,.84-2.83l0.73,0.17A26.38,26.38,0,0,1,384.78,64.58ZM334.05,59a26.8,26.8,0,0,1-.21-3h0.75a26,26,0,0,0,.21,2.95Zm52.11-.32-0.74-.09a25.94,25.94,0,0,0,.17-2.95c0-.21,0-0.42,0-0.63l0.75,0q0,0.32,0,.65A26.56,26.56,0,0,1,386.17,58.67ZM334.72,53L334,52.92a26.27,26.27,0,0,1,.49-3l0.73,0.16A25.42,25.42,0,0,0,334.72,53Zm50.62-.94a25.87,25.87,0,0,0-.58-2.9l0.72-.19a26,26,0,0,1,.6,3ZM336,47.24L335.29,47a26.29,26.29,0,0,1,1.17-2.81l0.67,0.33A25.55,25.55,0,0,0,336,47.24Zm47.84-.89a25.24,25.24,0,0,0-1.23-2.68l0.66-.35a26.25,26.25,0,0,1,1.27,2.76Zm-45.27-4.42-0.63-.4a26.66,26.66,0,0,1,1.78-2.46l0.58,0.47A25.77,25.77,0,0,0,338.58,41.94Zm42.5-.78a25.8,25.8,0,0,0-1.82-2.33l0.56-.49a26.63,26.63,0,0,1,1.87,2.4Zm-38.77-3.79-0.52-.54a26.16,26.16,0,0,1,2.3-2l0.46,0.59A25.56,25.56,0,0,0,342.31,37.36Zm34.88-.64a25.62,25.62,0,0,0-2.3-1.85l0.44-.61a26.51,26.51,0,0,1,2.37,1.91Zm-30.21-3-0.39-.64a26.34,26.34,0,0,1,2.69-1.41l0.31,0.68A25.58,25.58,0,0,0,347,33.76Zm25.41-.47A25.54,25.54,0,0,0,369.72,32l0.28-.69a26.18,26.18,0,0,1,2.74,1.31Zm-20-2-0.23-.71a26.18,26.18,0,0,1,2.95-.75l0.14,0.74A25.58,25.58,0,0,0,352.35,31.33Zm14.57-.27a25.42,25.42,0,0,0-2.89-.62l0.12-.74a26.16,26.16,0,0,1,3,.64Zm-8.78-.85-0.06-.75a27,27,0,0,1,3-.06l0,0.75A26.58,26.58,0,0,0,358.14,30.21Z" transform="translate(-333.84 -29.39)"/></svg>