<svg preserveAspectRatio="none" xmlns="http://www.w3.org/2000/svg" xmlns:xlink="http://www.w3.org/1999/xlink" viewBox="0 0 659.72 381.94"><defs><style>.cls-1{fill:#03a6ff;}.cls-2{isolation:isolate;}.cls-3{clip-path:url(#clip-path);}.cls-4{clip-path:url(#clip-path-2);}.cls-5{clip-path:url(#clip-path-3);}.cls-6{clip-path:url(#clip-path-4);}.cls-7{clip-path:url(#clip-path-5);}.cls-8{clip-path:url(#clip-path-6);}.cls-9{clip-path:url(#clip-path-7);}.cls-10{clip-path:url(#clip-path-8);}.cls-11{clip-path:url(#clip-path-9);}.cls-12{clip-path:url(#clip-path-10);}.cls-13{clip-path:url(#clip-path-11);}.cls-14{clip-path:url(#clip-path-12);}.cls-15{clip-path:url(#clip-path-13);}.cls-16{clip-path:url(#clip-path-14);}.cls-17{clip-path:url(#clip-path-15);}.cls-18{clip-path:url(#clip-path-16);}.cls-19{clip-path:url(#clip-path-17);}.cls-20{clip-path:url(#clip-path-18);}.cls-21{clip-path:url(#clip-path-19);}.cls-22{clip-path:url(#clip-path-20);}.cls-23{clip-path:url(#clip-path-21);}.cls-24{clip-path:url(#clip-path-22);}.cls-25{clip-path:url(#clip-path-23);}.cls-26{clip-path:url(#clip-path-24);}.cls-27{clip-path:url(#clip-path-25);}.cls-28{clip-path:url(#clip-path-26);}.cls-29{clip-path:url(#clip-path-27);}.cls-30{clip-path:url(#clip-path-28);}.cls-31{clip-path:url(#clip-path-29);}.cls-32{clip-path:url(#clip-path-30);}.cls-33{clip-path:url(#clip-path-31);}.cls-34{clip-path:url(#clip-path-32);}.cls-35{clip-path:url(#clip-path-33);}.cls-36{clip-path:url(#clip-path-34);}.cls-37{clip-path:url(#clip-path-35);}.cls-38{clip-path:url(#clip-path-36);}.cls-39{clip-path:url(#clip-path-37);}.cls-40{clip-path:url(#clip-path-38);}.cls-41{clip-path:url(#clip-path-39);}.cls-42{clip-path:url(#clip-path-40);}.cls-43{clip-path:url(#clip-path-41);}.cls-44{clip-path:url(#clip-path-42);}.cls-45{clip-path:url(#clip-path-43);}.cls-46{clip-path:url(#clip-path-44);}.cls-47{clip-path:url(#clip-path-45);}.cls-48{clip-path:url(#clip-path-46);}.cls-49{clip-path:url(#clip-path-47);}.cls-50{clip-path:url(#clip-path-48);}.cls-51{clip-path:url(#clip-path-49);}.cls-52{clip-path:url(#clip-path-50);}.cls-53{mix-blend-mode:screen;}.cls-54{clip-path:url(#clip-path-51);}.cls-55{clip-path:url(#clip-path-52);}.cls-56{clip-path:url(#clip-path-53);}.cls-57{clip-path:url(#clip-path-54);}.cls-58{clip-path:url(#clip-path-55);}.cls-59{clip-path:url(#clip-path-56);}.cls-60{clip-path:url(#clip-path-57);}.cls-61{clip-path:url(#clip-path-58);}.cls-62{clip-path:url(#clip-path-59);}.cls-63{clip-path:url(#clip-path-60);}.cls-64{clip-path:url(#clip-path-61);}.cls-65{clip-path:url(#clip-path-62);}.cls-66{clip-path:url(#clip-path-63);}.cls-67{clip-path:url(#clip-path-64);}.cls-68{clip-path:url(#clip-path-65);}.cls-69{clip-path:url(#clip-path-66);}.cls-70{clip-path:url(#clip-path-67);}.cls-71{clip-path:url(#clip-path-68);}.cls-72{clip-path:url(#clip-path-69);}.cls-73{clip-path:url(#clip-path-70);}.cls-74{clip-path:url(#clip-path-71);}.cls-75{clip-path:url(#clip-path-72);}.cls-76{clip-path:url(#clip-path-73);}.cls-77{clip-path:url(#clip-path-74);}.cls-78{clip-path:url(#clip-path-75);}.cls-79{clip-path:url(#clip-path-76);}.cls-80{clip-path:url(#clip-path-77);}.cls-81{clip-path:url(#clip-path-78);}.cls-82{clip-path:url(#clip-path-79);}.cls-83{clip-path:url(#clip-path-80);}</style><clipPath id="clip-path" transform="translate(-2208.05 -1505.01)"><rect class="cls-1" x="2354.71" y="1527.16" width="2.89" height="1.16"/></clipPath><clipPath id="clip-path-2" transform="translate(-2208.05 -1505.01)"><path class="cls-1" d="M2351.34,1528.32h-5.61v-1.16h5.61v1.16Zm-9,0h-5.61v-1.16h5.61v1.16Zm-9,0h-5.61v-1.16h5.61v1.16Zm-9,0h-5.61v-1.16h5.61v1.16Zm-9,0h-5.61v-1.16h5.61v1.16Zm-9,0h-5.61v-1.16h5.61v1.16Z"/></clipPath><clipPath id="clip-path-3" transform="translate(-2208.05 -1505.01)"><polygon class="cls-1" points="2292.92 1530.19 2292.1 1529.37 2294.31 1527.16 2297.45 1527.16 2297.45 1528.32 2294.79 1528.32 2292.92 1530.19"/></clipPath><clipPath id="clip-path-4" transform="translate(-2208.05 -1505.01)"><rect class="cls-1" x="2284.44" y="1534.12" width="6.31" height="1.16" transform="translate(-415.17 2067.08) rotate(-45)"/></clipPath><clipPath id="clip-path-5" transform="translate(-2208.05 -1505.01)"><rect class="cls-1" x="2280.21" y="1540.05" width="2.89" height="1.16" transform="translate(-421.11 2064.62) rotate(-45)"/></clipPath><clipPath id="clip-path-6" transform="translate(-2208.05 -1505.01)"><polygon class="cls-1" points="2398.07 1525.21 2400.45 1527.6 2402.89 1527.6 2400.51 1525.21 2398.07 1525.21"/></clipPath><clipPath id="clip-path-7" transform="translate(-2208.05 -1505.01)"><polygon class="cls-1" points="2402.89 1525.21 2405.27 1527.6 2407.7 1527.6 2405.32 1525.21 2402.89 1525.21"/></clipPath><clipPath id="clip-path-8" transform="translate(-2208.05 -1505.01)"><polygon class="cls-1" points="2407.7 1525.21 2410.08 1527.6 2412.52 1527.6 2410.14 1525.21 2407.7 1525.21"/></clipPath><clipPath id="clip-path-9" transform="translate(-2208.05 -1505.01)"><polygon class="cls-1" points="2412.52 1525.21 2414.9 1527.6 2417.33 1527.6 2414.95 1525.21 2412.52 1525.21"/></clipPath><clipPath id="clip-path-10" transform="translate(-2208.05 -1505.01)"><polygon class="cls-1" points="2417.33 1525.21 2419.71 1527.6 2422.15 1527.6 2419.77 1525.21 2417.33 1525.21"/></clipPath><clipPath id="clip-path-11" transform="translate(-2208.05 -1505.01)"><circle class="cls-1" cx="2241.02" cy="1588.48" r="2.01"/></clipPath><clipPath id="clip-path-12" transform="translate(-2208.05 -1505.01)"><circle class="cls-1" cx="2236.22" cy="1593.27" r="1.64"/></clipPath><clipPath id="clip-path-13" transform="translate(-2208.05 -1505.01)"><circle class="cls-1" cx="2232.52" cy="1596.97" r="0.83"/></clipPath><clipPath id="clip-path-14" transform="translate(-2208.05 -1505.01)"><rect class="cls-1" x="2354.71" y="1855.86" width="2.89" height="1.16"/></clipPath><clipPath id="clip-path-15" transform="translate(-2208.05 -1505.01)"><path class="cls-1" d="M2351.34,1857h-5.61v-1.16h5.61V1857Zm-9,0h-5.61v-1.16h5.61V1857Zm-9,0h-5.61v-1.16h5.61V1857Zm-9,0h-5.61v-1.16h5.61V1857Zm-9,0h-5.61v-1.16h5.61V1857Zm-9,0h-5.61v-1.16h5.61V1857Z"/></clipPath><clipPath id="clip-path-16" transform="translate(-2208.05 -1505.01)"><polygon class="cls-1" points="2297.45 1857.01 2294.31 1857.01 2292.1 1854.8 2292.92 1853.98 2294.79 1855.86 2297.45 1855.86 2297.45 1857.01"/></clipPath><clipPath id="clip-path-17" transform="translate(-2208.05 -1505.01)"><rect class="cls-1" x="2287.02" y="1846.32" width="1.16" height="6.32" transform="translate(-637.78 2159.08) rotate(-45)"/></clipPath><clipPath id="clip-path-18" transform="translate(-2208.05 -1505.01)"><rect class="cls-1" x="2281.08" y="1842.1" width="1.16" height="2.89" transform="translate(-635.34 2152.91) rotate(-44.99)"/></clipPath><clipPath id="clip-path-19" transform="translate(-2208.05 -1505.01)"><polygon class="cls-1" points="2398.07 1858.96 2400.45 1856.58 2402.89 1856.58 2400.51 1858.96 2398.07 1858.96"/></clipPath><clipPath id="clip-path-20" transform="translate(-2208.05 -1505.01)"><polygon class="cls-1" points="2402.89 1858.96 2405.27 1856.58 2407.7 1856.58 2405.32 1858.96 2402.89 1858.96"/></clipPath><clipPath id="clip-path-21" transform="translate(-2208.05 -1505.01)"><polygon class="cls-1" points="2407.7 1858.96 2410.08 1856.58 2412.52 1856.58 2410.14 1858.96 2407.7 1858.96"/></clipPath><clipPath id="clip-path-22" transform="translate(-2208.05 -1505.01)"><polygon class="cls-1" points="2412.52 1858.96 2414.9 1856.58 2417.33 1856.58 2414.95 1858.96 2412.52 1858.96"/></clipPath><clipPath id="clip-path-23" transform="translate(-2208.05 -1505.01)"><polygon class="cls-1" points="2417.33 1858.96 2419.71 1856.58 2422.15 1856.58 2419.77 1858.96 2417.33 1858.96"/></clipPath><clipPath id="clip-path-24" transform="translate(-2208.05 -1505.01)"><circle class="cls-1" cx="2241.02" cy="1795.7" r="2.01"/></clipPath><clipPath id="clip-path-25" transform="translate(-2208.05 -1505.01)"><circle class="cls-1" cx="2236.22" cy="1790.9" r="1.64"/></clipPath><clipPath id="clip-path-26" transform="translate(-2208.05 -1505.01)"><circle class="cls-1" cx="2232.52" cy="1787.2" r="0.83"/></clipPath><clipPath id="clip-path-27" transform="translate(-2208.05 -1505.01)"><rect class="cls-1" x="2722.41" y="1527.16" width="2.89" height="1.16"/></clipPath><clipPath id="clip-path-28" transform="translate(-2208.05 -1505.01)"><path class="cls-1" d="M2794.48,1537.58l-4.06-4.06,0.82-.82,4.06,4.06Zm-6.5-6.5-2.77-2.77h-1.35v-1.16h1.83l3.11,3.11Zm-7.56-2.77h-5.74v-1.16h5.74v1.16Zm-9.19,0h-5.74v-1.16h5.74v1.16Zm-9.19,0h-5.74v-1.16h5.74v1.16Zm-9.19,0h-5.74v-1.16h5.74v1.16Zm-9.19,0h-5.74v-1.16h5.74v1.16Zm-9.19,0h-5.74v-1.16h5.74v1.16Z"/></clipPath><clipPath id="clip-path-29" transform="translate(-2208.05 -1505.01)"><rect class="cls-1" x="2797.77" y="1539.18" width="1.16" height="2.89" transform="translate(-269.75 2430.05) rotate(-45)"/></clipPath><clipPath id="clip-path-30" transform="translate(-2208.05 -1505.01)"><polygon class="cls-1" points="2681.94 1525.21 2679.56 1527.6 2677.13 1527.6 2679.51 1525.21 2681.94 1525.21"/></clipPath><clipPath id="clip-path-31" transform="translate(-2208.05 -1505.01)"><polygon class="cls-1" points="2677.13 1525.21 2674.75 1527.6 2672.31 1527.6 2674.69 1525.21 2677.13 1525.21"/></clipPath><clipPath id="clip-path-32" transform="translate(-2208.05 -1505.01)"><polygon class="cls-1" points="2672.31 1525.21 2669.93 1527.6 2667.5 1527.6 2669.88 1525.21 2672.31 1525.21"/></clipPath><clipPath id="clip-path-33" transform="translate(-2208.05 -1505.01)"><polygon class="cls-1" points="2667.5 1525.21 2665.12 1527.6 2662.68 1527.6 2665.06 1525.21 2667.5 1525.21"/></clipPath><clipPath id="clip-path-34" transform="translate(-2208.05 -1505.01)"><polygon class="cls-1" points="2662.68 1525.21 2660.3 1527.6 2657.87 1527.6 2660.25 1525.21 2662.68 1525.21"/></clipPath><clipPath id="clip-path-35" transform="translate(-2208.05 -1505.01)"><circle class="cls-1" cx="2839" cy="1588.48" r="2.01"/></clipPath><clipPath id="clip-path-36" transform="translate(-2208.05 -1505.01)"><circle class="cls-1" cx="2843.79" cy="1593.27" r="1.64"/></clipPath><clipPath id="clip-path-37" transform="translate(-2208.05 -1505.01)"><circle class="cls-1" cx="2847.49" cy="1596.97" r="0.83"/></clipPath><clipPath id="clip-path-38" transform="translate(-2208.05 -1505.01)"><rect class="cls-1" x="2722.41" y="1855.86" width="2.89" height="1.16"/></clipPath><clipPath id="clip-path-39" transform="translate(-2208.05 -1505.01)"><path class="cls-1" d="M2779.2,1857h-5.61v-1.16h5.61V1857Zm-9,0h-5.61v-1.16h5.61V1857Zm-9,0h-5.61v-1.16h5.61V1857Zm-9,0h-5.61v-1.16h5.61V1857Zm-9,0h-5.61v-1.16h5.61V1857Zm-9,0h-5.61v-1.16h5.61V1857Z"/></clipPath><clipPath id="clip-path-40" transform="translate(-2208.05 -1505.01)"><polygon class="cls-1" points="2785.7 1857.01 2782.57 1857.01 2782.57 1855.86 2785.22 1855.86 2787.1 1853.98 2787.91 1854.8 2785.7 1857.01"/></clipPath><clipPath id="clip-path-41" transform="translate(-2208.05 -1505.01)"><rect class="cls-1" x="2789.26" y="1848.9" width="6.32" height="1.16" transform="translate(-489.82 2516.64) rotate(-45.01)"/></clipPath><clipPath id="clip-path-42" transform="translate(-2208.05 -1505.01)"><rect class="cls-1" x="2796.9" y="1842.96" width="2.89" height="1.16" transform="translate(-484 2518.49) rotate(-45)"/></clipPath><clipPath id="clip-path-43" transform="translate(-2208.05 -1505.01)"><polygon class="cls-1" points="2681.94 1858.96 2679.56 1856.58 2677.13 1856.58 2679.51 1858.96 2681.94 1858.96"/></clipPath><clipPath id="clip-path-44" transform="translate(-2208.05 -1505.01)"><polygon class="cls-1" points="2677.13 1858.96 2674.75 1856.58 2672.31 1856.58 2674.69 1858.96 2677.13 1858.96"/></clipPath><clipPath id="clip-path-45" transform="translate(-2208.05 -1505.01)"><polygon class="cls-1" points="2672.31 1858.96 2669.93 1856.58 2667.5 1856.58 2669.88 1858.96 2672.31 1858.96"/></clipPath><clipPath id="clip-path-46" transform="translate(-2208.05 -1505.01)"><polygon class="cls-1" points="2667.5 1858.96 2665.12 1856.58 2662.68 1856.58 2665.06 1858.96 2667.5 1858.96"/></clipPath><clipPath id="clip-path-47" transform="translate(-2208.05 -1505.01)"><polygon class="cls-1" points="2662.68 1858.96 2660.3 1856.58 2657.87 1856.58 2660.25 1858.96 2662.68 1858.96"/></clipPath><clipPath id="clip-path-48" transform="translate(-2208.05 -1505.01)"><circle class="cls-1" cx="2839" cy="1795.7" r="2.01"/></clipPath><clipPath id="clip-path-49" transform="translate(-2208.05 -1505.01)"><circle class="cls-1" cx="2843.79" cy="1790.9" r="1.64"/></clipPath><clipPath id="clip-path-50" transform="translate(-2208.05 -1505.01)"><circle class="cls-1" cx="2847.49" cy="1787.2" r="0.83"/></clipPath><clipPath id="clip-path-51" transform="translate(-2208.05 -1505.01)"><rect class="cls-1" x="2488.77" y="1659.52" width="2.89" height="1.16" transform="translate(-192.43 2986.95) rotate(-60.01)"/></clipPath><clipPath id="clip-path-52" transform="translate(-2208.05 -1505.01)"><path class="cls-1" d="M2475.8,1686.23l-1-.58,2.63-4.55,1,0.58Zm4.73-8.2-1-.58,2.63-4.55,1,0.58Zm4.73-8.2-1-.58,2.63-4.55,1,0.58Z"/></clipPath><clipPath id="clip-path-53" transform="translate(-2208.05 -1505.01)"><polygon class="cls-1" points="2472.7 1694.88 2471.08 1692.09 2472.7 1689.29 2473.7 1689.87 2472.42 1692.09 2473.7 1694.3 2472.7 1694.88"/></clipPath><clipPath id="clip-path-54" transform="translate(-2208.05 -1505.01)"><path class="cls-1" d="M2486.89,1719.46l-2.63-4.55,1-.58,2.63,4.55Zm-4.73-8.19-2.63-4.55,1-.58,2.63,4.55Zm-4.73-8.19-2.63-4.55,1-.58,2.63,4.55Z"/></clipPath><clipPath id="clip-path-55" transform="translate(-2208.05 -1505.01)"><rect class="cls-1" x="2489.64" y="1722.62" width="1.16" height="2.89" transform="translate(-528.41 1476.16) rotate(-30)"/></clipPath><clipPath id="clip-path-56" transform="translate(-2208.05 -1505.01)"><rect class="cls-1" x="2589.22" y="1658.65" width="1.16" height="2.89" transform="translate(-483.07 1517.09) rotate(-30)"/></clipPath><clipPath id="clip-path-57" transform="translate(-2208.05 -1505.01)"><path class="cls-1" d="M2601.58,1681.68l1-.58,2.63,4.55-1,.58Zm-4.73-8.2,1-.58,2.63,4.55-1,.58Zm-4.73-8.19,1-.58,2.63,4.55-1,.58Z"/></clipPath><clipPath id="clip-path-58" transform="translate(-2208.05 -1505.01)"><polygon class="cls-1" points="2607.32 1694.88 2608.93 1692.09 2607.32 1689.29 2606.31 1689.87 2607.59 1692.09 2606.31 1694.3 2607.32 1694.88"/></clipPath><clipPath id="clip-path-59" transform="translate(-2208.05 -1505.01)"><path class="cls-1" d="M2592.12,1718.89l2.63-4.55,1,0.58-2.63,4.55Zm4.73-8.19,2.63-4.55,1,0.58-2.63,4.55Zm4.73-8.19,2.63-4.55,1,0.58-2.63,4.55Z"/></clipPath><clipPath id="clip-path-60" transform="translate(-2208.05 -1505.01)"><rect class="cls-1" x="2588.35" y="1723.49" width="2.89" height="1.16" transform="translate(-198.18 3104.88) rotate(-60)"/></clipPath><clipPath id="clip-path-61" transform="translate(-2208.05 -1505.01)"><path class="cls-1" d="M2502,1857.87a0.61,0.61,0,0,0-.15-0.1,0.52,0.52,0,0,0-.52.1,0.5,0.5,0,0,0-.09.15,0.45,0.45,0,0,0,0,.19,0.47,0.47,0,0,0,.13.33,0.5,0.5,0,0,0,.34.14,0.48,0.48,0,0,0,.33-0.14,0.46,0.46,0,0,0,.14-0.33,0.67,0.67,0,0,0,0-.19A0.53,0.53,0,0,0,2502,1857.87Z"/></clipPath><clipPath id="clip-path-62" transform="translate(-2208.05 -1505.01)"><path class="cls-1" d="M2493.84,1857.74a0.47,0.47,0,0,0-.47.47,0.48,0.48,0,0,0,.47.47,0.47,0.47,0,0,0,.47-0.47A0.47,0.47,0,0,0,2493.84,1857.74Z"/></clipPath><clipPath id="clip-path-63" transform="translate(-2208.05 -1505.01)"><path class="cls-1" d="M2491.23,1857.74a0.47,0.47,0,0,0-.47.47,0.48,0.48,0,0,0,.47.47,0.47,0.47,0,0,0,.47-0.47A0.47,0.47,0,0,0,2491.23,1857.74Z"/></clipPath><clipPath id="clip-path-64" transform="translate(-2208.05 -1505.01)"><path class="cls-1" d="M2488.63,1857.74a0.47,0.47,0,0,0-.48.47,0.48,0.48,0,0,0,1,0A0.47,0.47,0,0,0,2488.63,1857.74Z"/></clipPath><clipPath id="clip-path-65" transform="translate(-2208.05 -1505.01)"><path class="cls-1" d="M2496.46,1857.74a0.47,0.47,0,0,0-.47.47,0.47,0.47,0,1,0,.94,0A0.47,0.47,0,0,0,2496.46,1857.74Z"/></clipPath><clipPath id="clip-path-66" transform="translate(-2208.05 -1505.01)"><path class="cls-1" d="M2499.07,1857.74a0.47,0.47,0,0,0-.47.47,0.47,0.47,0,0,0,.47.47,0.48,0.48,0,0,0,.47-0.47A0.47,0.47,0,0,0,2499.07,1857.74Z"/></clipPath><clipPath id="clip-path-67" transform="translate(-2208.05 -1505.01)"><path class="cls-1" d="M2486.35,1857.87a0.5,0.5,0,0,0-.67,0,0.85,0.85,0,0,0-.1.15,0.65,0.65,0,0,0,0,.19,0.49,0.49,0,0,0,.13.33,0.6,0.6,0,0,0,.16.1,0.56,0.56,0,0,0,.18,0,0.48,0.48,0,0,0,.33-0.14,0.53,0.53,0,0,0,.1-0.15,0.61,0.61,0,0,0,0-.18,0.67,0.67,0,0,0,0-.19A0.53,0.53,0,0,0,2486.35,1857.87Z"/></clipPath><clipPath id="clip-path-68" transform="translate(-2208.05 -1505.01)"><path class="cls-1" d="M2578.67,1857.87a0.66,0.66,0,0,0-.16-0.1,0.49,0.49,0,0,0-.51.1,0.52,0.52,0,0,0-.1.15,0.65,0.65,0,0,0,0,.19,0.48,0.48,0,0,0,.14.33,0.56,0.56,0,0,0,.15.1,0.63,0.63,0,0,0,.18,0,0.5,0.5,0,0,0,.34-0.14,0.51,0.51,0,0,0,.09-0.15,0.42,0.42,0,0,0,0-.18,0.46,0.46,0,0,0,0-.19A0.51,0.51,0,0,0,2578.67,1857.87Z"/></clipPath><clipPath id="clip-path-69" transform="translate(-2208.05 -1505.01)"><path class="cls-1" d="M2586.17,1857.74a0.47,0.47,0,0,0-.47.47,0.47,0.47,0,0,0,.47.47,0.48,0.48,0,0,0,.47-0.47A0.47,0.47,0,0,0,2586.17,1857.74Z"/></clipPath><clipPath id="clip-path-70" transform="translate(-2208.05 -1505.01)"><path class="cls-1" d="M2583.56,1857.74a0.47,0.47,0,0,0-.47.47,0.47,0.47,0,0,0,.47.47,0.48,0.48,0,0,0,.47-0.47A0.47,0.47,0,0,0,2583.56,1857.74Z"/></clipPath><clipPath id="clip-path-71" transform="translate(-2208.05 -1505.01)"><path class="cls-1" d="M2588.78,1857.74a0.47,0.47,0,0,0-.47.47,0.47,0.47,0,1,0,.93,0A0.46,0.46,0,0,0,2588.78,1857.74Z"/></clipPath><clipPath id="clip-path-72" transform="translate(-2208.05 -1505.01)"><path class="cls-1" d="M2591.38,1857.74a0.47,0.47,0,0,0-.47.47,0.48,0.48,0,0,0,.47.47,0.47,0.47,0,0,0,.47-0.47A0.47,0.47,0,0,0,2591.38,1857.74Z"/></clipPath><clipPath id="clip-path-73" transform="translate(-2208.05 -1505.01)"><path class="cls-1" d="M2580.95,1857.74a0.47,0.47,0,0,0-.47.47,0.47,0.47,0,1,0,.94,0A0.47,0.47,0,0,0,2580.95,1857.74Z"/></clipPath><clipPath id="clip-path-74" transform="translate(-2208.05 -1505.01)"><path class="cls-1" d="M2594.33,1857.87a0.49,0.49,0,0,0-.67,0,0.54,0.54,0,0,0-.1.15,0.69,0.69,0,0,0,0,.19,0.62,0.62,0,0,0,0,.18,0.54,0.54,0,0,0,.1.15,0.48,0.48,0,0,0,.33.14,0.5,0.5,0,0,0,.34-0.14,0.47,0.47,0,0,0,.13-0.33,0.45,0.45,0,0,0,0-.19A0.49,0.49,0,0,0,2594.33,1857.87Z"/></clipPath><clipPath id="clip-path-75" transform="translate(-2208.05 -1505.01)"><rect class="cls-1" x="2468.02" y="1524.63" width="2.31" height="1.16"/></clipPath><clipPath id="clip-path-76" transform="translate(-2208.05 -1505.01)"><path class="cls-1" d="M2523.61,1525.79h-4.44v-1.16h4.44v1.16Zm-8.88,0h-4.44v-1.16h4.44v1.16Zm-8.88,0h-4.44v-1.16h4.44v1.16Zm-8.88,0h-4.44v-1.16H2497v1.16Zm-8.88,0h-4.44v-1.16h4.44v1.16Zm-8.88,0h-4.44v-1.16h4.44v1.16Z"/></clipPath><clipPath id="clip-path-77" transform="translate(-2208.05 -1505.01)"><rect class="cls-1" x="2528.05" y="1524.63" width="2.31" height="1.16"/></clipPath><clipPath id="clip-path-78" transform="translate(-2208.05 -1505.01)"><rect class="cls-1" x="2609.68" y="1524.63" width="2.31" height="1.16"/></clipPath><clipPath id="clip-path-79" transform="translate(-2208.05 -1505.01)"><path class="cls-1" d="M2605.24,1525.79h-4.44v-1.16h4.44v1.16Zm-8.88,0h-4.44v-1.16h4.44v1.16Zm-8.88,0H2583v-1.16h4.44v1.16Zm-8.88,0h-4.44v-1.16h4.44v1.16Zm-8.88,0h-4.44v-1.16h4.44v1.16Zm-8.88,0h-4.44v-1.16h4.44v1.16Z"/></clipPath><clipPath id="clip-path-80" transform="translate(-2208.05 -1505.01)"><rect class="cls-1" x="2549.64" y="1524.63" width="2.31" height="1.16"/></clipPath></defs><title>shape46</title><g class="cls-2"><g id="Layer_3" data-name="Layer 3"><path class="cls-1" d="M2652.17,1717.49h-26.46l0.6-1.16h25.19l14-24.25-14-24.25h-25.33l-0.67-1.16h26.66l0.17,0.29,14.5,25.12Z" transform="translate(-2208.05 -1505.01)"/><path class="cls-1" d="M2413.18,1692.09l14.5-25.12,0.17-.29h26.66l-0.67,1.16h-25.33l-14,24.25,14,24.25h25.19l0.6,1.16h-26.46Z" transform="translate(-2208.05 -1505.01)"/><rect class="cls-1" x="146.66" y="22.15" width="2.89" height="1.16"/><g class="cls-3"><rect class="cls-1" x="138.89" width="34.72" height="34.72"/><rect class="cls-1" x="138.89" width="34.72" height="34.72"/></g><path class="cls-1" d="M2351.34,1528.32h-5.61v-1.16h5.61v1.16Zm-9,0h-5.61v-1.16h5.61v1.16Zm-9,0h-5.61v-1.16h5.61v1.16Zm-9,0h-5.61v-1.16h5.61v1.16Zm-9,0h-5.61v-1.16h5.61v1.16Zm-9,0h-5.61v-1.16h5.61v1.16Z" transform="translate(-2208.05 -1505.01)"/><g class="cls-4"><rect class="cls-1" x="138.89" width="34.72" height="34.72"/><rect class="cls-1" x="138.89" width="34.72" height="34.72"/><rect class="cls-1" x="104.17" width="34.72" height="34.72"/><rect class="cls-1" x="104.17" width="34.72" height="34.72"/><rect class="cls-1" x="104.17" width="34.72" height="34.72"/><rect class="cls-1" x="104.17" width="34.72" height="34.72"/><rect class="cls-1" x="104.17" width="34.72" height="34.72"/><rect class="cls-1" x="104.17" width="34.72" height="34.72"/><rect class="cls-1" x="104.17" width="34.72" height="34.72"/><rect class="cls-1" x="104.17" width="34.72" height="34.72"/><rect class="cls-1" x="104.17" width="34.72" height="34.72"/><rect class="cls-1" x="104.17" width="34.72" height="34.72"/><rect class="cls-1" x="69.44" width="34.72" height="34.72"/><rect class="cls-1" x="69.44" width="34.72" height="34.72"/><rect class="cls-1" x="69.44" width="34.72" height="34.72"/><rect class="cls-1" x="69.44" width="34.72" height="34.72"/></g><polygon class="cls-1" points="84.86 25.18 84.05 24.36 86.26 22.15 89.39 22.15 89.39 23.31 86.74 23.31 84.86 25.18"/><g class="cls-5"><rect class="cls-1" x="69.44" width="34.72" height="34.72"/><rect class="cls-1" x="69.44" width="34.72" height="34.72"/></g><rect class="cls-1" x="2284.44" y="1534.12" width="6.31" height="1.16" transform="translate(-2623.22 562.07) rotate(-45)"/><g class="cls-6"><rect class="cls-1" x="69.44" width="34.72" height="34.72"/><rect class="cls-1" x="69.44" width="34.72" height="34.72"/></g><rect class="cls-1" x="2280.21" y="1540.05" width="2.89" height="1.16" transform="translate(-2629.16 559.61) rotate(-45)"/><g class="cls-7"><rect class="cls-1" x="69.44" width="34.72" height="34.72"/><rect class="cls-1" x="69.44" width="34.72" height="34.72"/><rect class="cls-1" x="69.44" y="34.72" width="34.72" height="34.72"/><rect class="cls-1" x="69.44" y="34.72" width="34.72" height="34.72"/></g><path class="cls-1" d="M2479.41,1571.93l0,0h0v0Z" transform="translate(-2208.05 -1505.01)"/><polygon class="cls-1" points="41.08 75.34 49.94 75.34 45.71 79.58 36.85 79.58 36.85 70.72 41.08 66.5 41.08 75.34"/><polygon class="cls-1" points="48.12 68.32 56.97 68.32 52.26 73.03 43.39 73.03 43.39 64.19 48.12 59.46 48.12 68.32"/><polygon class="cls-1" points="55.14 61.29 63.99 61.29 59.28 66 50.43 66 50.43 57.15 55.14 52.44 55.14 61.29"/><polygon class="cls-1" points="62.17 54.27 71.01 54.27 66.3 58.98 57.46 58.98 57.46 50.12 62.17 45.41 62.17 54.27"/><polygon class="cls-1" points="69.19 47.23 78.05 47.23 73.32 51.95 64.48 51.95 64.48 43.1 69.19 38.39 69.19 47.23"/><path class="cls-1" d="M2479.45,1559.87q0,6,0,12l-12,0-9.29-9.29v-7.13l-21.24-21.24v-2.64h-9.16l-0.89.89h-29.43l-3.32,3.32h-34l-2.51-2.52h-28l-1.68-1.68h-27.65V1533l-9.42,9.43v5.19l-2.34,2.34h-8.85v-8.84l2.34-2.34h5.2l9.43-9.42h31.37l1.61-1.6h28l2.51-2.52h34l3.32,3.32h29.43l0.79,0.79h14.21l21.24,21.23h7.13Z" transform="translate(-2208.05 -1505.01)"/><rect class="cls-1" x="82.7" y="36.81" width="71.43" height="1.16"/><circle class="cls-1" cx="154.13" cy="37.39" r="1.77"/><circle class="cls-1" cx="128.75" cy="42.58" r="1.77"/><circle class="cls-1" cx="56.4" cy="76.08" r="1.77"/><rect class="cls-1" x="81.42" y="42" width="47.33" height="1.16"/><rect class="cls-1" x="2256.31" y="1561.21" width="54.87" height="1.16" transform="translate(-2643.51 567.28) rotate(-45)"/><path class="cls-1" d="M2433.42,1540.59l7.24,7.19v3.42l13.44,13.33-6.24,0-19.55-19.39-3.85,3.88-6.69,0,8.4-8.47Z" transform="translate(-2208.05 -1505.01)"/><path class="cls-1" d="M2414.34,1549.09l8.4-8.47-6.43,0-8.42,8.49Z" transform="translate(-2208.05 -1505.01)"/><path class="cls-1" d="M2404.53,1549.13l8.4-8.47-6.43,0-8.42,8.49Z" transform="translate(-2208.05 -1505.01)"/><path class="cls-1" d="M2394.71,1549.17l8.4-8.47-6.43,0-8.42,8.49Z" transform="translate(-2208.05 -1505.01)"/><polygon class="cls-1" points="190.02 20.21 192.4 22.59 194.83 22.59 192.45 20.21 190.02 20.21"/><g class="cls-8"><rect class="cls-1" x="173.61" width="34.72" height="34.72"/><rect class="cls-1" x="173.61" width="34.72" height="34.72"/></g><polygon class="cls-1" points="194.83 20.21 197.21 22.59 199.65 22.59 197.27 20.21 194.83 20.21"/><g class="cls-9"><rect class="cls-1" x="173.61" width="34.72" height="34.72"/><rect class="cls-1" x="173.61" width="34.72" height="34.72"/></g><polygon class="cls-1" points="199.65 20.21 202.03 22.59 204.47 22.59 202.09 20.21 199.65 20.21"/><g class="cls-10"><rect class="cls-1" x="173.61" width="34.72" height="34.72"/><rect class="cls-1" x="173.61" width="34.72" height="34.72"/></g><polygon class="cls-1" points="204.47 20.21 206.84 22.59 209.28 22.59 206.9 20.21 204.47 20.21"/><g class="cls-11"><rect class="cls-1" x="208.33" width="34.72" height="34.72"/><rect class="cls-1" x="208.33" width="34.72" height="34.72"/><rect class="cls-1" x="173.61" width="34.72" height="34.72"/><rect class="cls-1" x="173.61" width="34.72" height="34.72"/></g><polygon class="cls-1" points="209.28 20.21 211.66 22.59 214.1 22.59 211.72 20.21 209.28 20.21"/><g class="cls-12"><rect class="cls-1" x="208.33" width="34.72" height="34.72"/><rect class="cls-1" x="208.33" width="34.72" height="34.72"/></g><circle class="cls-1" cx="32.96" cy="83.47" r="2.01"/><g class="cls-13"><rect class="cls-1" x="34.72" y="69.44" width="34.72" height="34.72"/><rect class="cls-1" x="34.72" y="69.44" width="34.72" height="34.72"/><rect class="cls-1" y="69.44" width="34.72" height="34.72"/><rect class="cls-1" y="69.44" width="34.72" height="34.72"/></g><circle class="cls-1" cx="28.17" cy="88.27" r="1.64"/><g class="cls-14"><rect class="cls-1" y="69.44" width="34.72" height="34.72"/><rect class="cls-1" y="69.44" width="34.72" height="34.72"/></g><circle class="cls-1" cx="24.47" cy="91.96" r="0.83"/><g class="cls-15"><rect class="cls-1" y="69.44" width="34.72" height="34.72"/><rect class="cls-1" y="69.44" width="34.72" height="34.72"/></g><rect class="cls-1" x="146.66" y="350.85" width="2.89" height="1.16"/><g class="cls-16"><rect class="cls-1" x="138.89" y="347.22" width="34.72" height="34.72"/><rect class="cls-1" x="138.89" y="347.22" width="34.72" height="34.72"/></g><path class="cls-1" d="M2351.34,1857h-5.61v-1.16h5.61V1857Zm-9,0h-5.61v-1.16h5.61V1857Zm-9,0h-5.61v-1.16h5.61V1857Zm-9,0h-5.61v-1.16h5.61V1857Zm-9,0h-5.61v-1.16h5.61V1857Zm-9,0h-5.61v-1.16h5.61V1857Z" transform="translate(-2208.05 -1505.01)"/><g class="cls-17"><rect class="cls-1" x="138.89" y="347.22" width="34.72" height="34.72"/><rect class="cls-1" x="138.89" y="347.22" width="34.72" height="34.72"/><rect class="cls-1" x="104.17" y="347.22" width="34.72" height="34.72"/><rect class="cls-1" x="104.17" y="347.22" width="34.72" height="34.72"/><rect class="cls-1" x="104.17" y="347.22" width="34.72" height="34.72"/><rect class="cls-1" x="104.17" y="347.22" width="34.72" height="34.72"/><rect class="cls-1" x="104.17" y="347.22" width="34.72" height="34.72"/><rect class="cls-1" x="104.17" y="347.22" width="34.72" height="34.72"/><rect class="cls-1" x="104.17" y="347.22" width="34.72" height="34.72"/><rect class="cls-1" x="104.17" y="347.22" width="34.72" height="34.72"/><rect class="cls-1" x="104.17" y="347.22" width="34.72" height="34.72"/><rect class="cls-1" x="104.17" y="347.22" width="34.72" height="34.72"/><rect class="cls-1" x="69.44" y="347.22" width="34.72" height="34.72"/><rect class="cls-1" x="69.44" y="347.22" width="34.72" height="34.72"/><rect class="cls-1" x="69.44" y="347.22" width="34.72" height="34.72"/><rect class="cls-1" x="69.44" y="347.22" width="34.72" height="34.72"/></g><polygon class="cls-1" points="89.39 352.01 86.26 352.01 84.05 349.79 84.86 348.97 86.74 350.85 89.39 350.85 89.39 352.01"/><g class="cls-18"><rect class="cls-1" x="69.44" y="347.22" width="34.72" height="34.72"/><rect class="cls-1" x="69.44" y="347.22" width="34.72" height="34.72"/></g><rect class="cls-1" x="2287.02" y="1846.32" width="1.16" height="6.32" transform="translate(-2845.83 654.07) rotate(-45)"/><g class="cls-19"><rect class="cls-1" x="69.44" y="312.5" width="34.72" height="34.72"/><rect class="cls-1" x="69.44" y="312.5" width="34.72" height="34.72"/></g><rect class="cls-1" x="2281.08" y="1842.1" width="1.16" height="2.89" transform="translate(-2843.4 647.9) rotate(-44.99)"/><g class="cls-20"><rect class="cls-1" x="69.44" y="312.5" width="34.72" height="34.72"/><rect class="cls-1" x="69.44" y="312.5" width="34.72" height="34.72"/></g><path class="cls-1" d="M2479.41,1812.24l0,0h0v0Z" transform="translate(-2208.05 -1505.01)"/><polygon class="cls-1" points="41.08 298.81 49.94 298.81 45.71 294.58 36.85 294.58 36.85 303.43 41.08 307.66 41.08 298.81"/><polygon class="cls-1" points="48.12 305.84 56.97 305.84 52.26 301.13 43.39 301.13 43.39 309.97 48.12 314.69 48.12 305.84"/><polygon class="cls-1" points="55.14 312.86 63.99 312.86 59.28 308.15 50.43 308.15 50.43 317.01 55.14 321.72 55.14 312.86"/><polygon class="cls-1" points="62.17 319.89 71.01 319.89 66.3 315.18 57.46 315.18 57.46 324.03 62.17 328.74 62.17 319.89"/><polygon class="cls-1" points="69.19 326.93 78.05 326.93 73.32 322.2 64.48 322.2 64.48 331.06 69.19 335.77 69.19 326.93"/><path class="cls-1" d="M2479.45,1824.31q0-6,0-12l-12,0-9.29,9.29v7.13l-21.24,21.24v2.64h-9.16l-0.89-.89h-29.43l-3.32-3.32h-34l-2.51,2.52h-28l-1.68,1.68h-27.65v-1.33l-9.42-9.43v-5.19l-2.34-2.34h-8.85v8.84l2.34,2.34h5.2l9.43,9.42h31.37l1.61,1.6h28L2360,1859h34l3.32-3.32h29.43l0.79-.79h14.21L2463,1833.6h7.13Z" transform="translate(-2208.05 -1505.01)"/><rect class="cls-1" x="82.7" y="336.19" width="71.43" height="1.16"/><circle class="cls-1" cx="154.13" cy="336.77" r="1.77"/><circle class="cls-1" cx="128.75" cy="331.57" r="1.77"/><circle class="cls-1" cx="56.4" cy="298.08" r="1.77"/><rect class="cls-1" x="81.42" y="331" width="47.33" height="1.16"/><rect class="cls-1" x="2283.16" y="1794.95" width="1.16" height="54.87" transform="translate(-2827.78 643.61) rotate(-45)"/><path class="cls-1" d="M2433.42,1843.58l7.24-7.19V1833l13.44-13.33-6.24,0L2428.33,1839l-3.85-3.88-6.69,0,8.4,8.47Z" transform="translate(-2208.05 -1505.01)"/><path class="cls-1" d="M2414.34,1835.09l8.4,8.47-6.43,0-8.42-8.49Z" transform="translate(-2208.05 -1505.01)"/><path class="cls-1" d="M2404.53,1835l8.4,8.47-6.43,0-8.42-8.49Z" transform="translate(-2208.05 -1505.01)"/><path class="cls-1" d="M2394.71,1835l8.4,8.47-6.43,0-8.42-8.49Z" transform="translate(-2208.05 -1505.01)"/><polygon class="cls-1" points="190.02 353.95 192.4 351.57 194.83 351.57 192.45 353.95 190.02 353.95"/><g class="cls-21"><rect class="cls-1" x="173.61" y="347.22" width="34.72" height="34.72"/><rect class="cls-1" x="173.61" y="347.22" width="34.72" height="34.72"/></g><polygon class="cls-1" points="194.83 353.95 197.21 351.57 199.65 351.57 197.27 353.95 194.83 353.95"/><g class="cls-22"><rect class="cls-1" x="173.61" y="347.22" width="34.72" height="34.72"/><rect class="cls-1" x="173.61" y="347.22" width="34.72" height="34.72"/></g><polygon class="cls-1" points="199.65 353.95 202.03 351.57 204.47 351.57 202.09 353.95 199.65 353.95"/><g class="cls-23"><rect class="cls-1" x="173.61" y="347.22" width="34.72" height="34.72"/><rect class="cls-1" x="173.61" y="347.22" width="34.72" height="34.72"/></g><polygon class="cls-1" points="204.47 353.95 206.84 351.57 209.28 351.57 206.9 353.95 204.47 353.95"/><g class="cls-24"><rect class="cls-1" x="208.33" y="347.22" width="34.72" height="34.72"/><rect class="cls-1" x="208.33" y="347.22" width="34.72" height="34.72"/><rect class="cls-1" x="173.61" y="347.22" width="34.72" height="34.72"/><rect class="cls-1" x="173.61" y="347.22" width="34.72" height="34.72"/></g><polygon class="cls-1" points="209.28 353.95 211.66 351.57 214.1 351.57 211.72 353.95 209.28 353.95"/><g class="cls-25"><rect class="cls-1" x="208.33" y="347.22" width="34.72" height="34.72"/><rect class="cls-1" x="208.33" y="347.22" width="34.72" height="34.72"/></g><circle class="cls-1" cx="32.96" cy="290.69" r="2.01"/><g class="cls-26"><rect class="cls-1" x="34.72" y="277.77" width="34.72" height="34.72"/><rect class="cls-1" x="34.72" y="277.77" width="34.72" height="34.72"/><rect class="cls-1" y="277.77" width="34.72" height="34.72"/><rect class="cls-1" y="277.77" width="34.72" height="34.72"/></g><circle class="cls-1" cx="28.17" cy="285.89" r="1.64"/><g class="cls-27"><rect class="cls-1" y="277.77" width="34.72" height="34.72"/><rect class="cls-1" y="277.77" width="34.72" height="34.72"/></g><circle class="cls-1" cx="24.47" cy="282.19" r="0.83"/><g class="cls-28"><rect class="cls-1" y="277.77" width="34.72" height="34.72"/><rect class="cls-1" y="277.77" width="34.72" height="34.72"/></g><rect class="cls-1" x="514.36" y="22.15" width="2.89" height="1.16"/><g class="cls-29"><rect class="cls-1" x="486.11" width="34.72" height="34.72"/><rect class="cls-1" x="486.11" width="34.72" height="34.72"/></g><path class="cls-1" d="M2794.48,1537.58l-4.06-4.06,0.82-.82,4.06,4.06Zm-6.5-6.5-2.77-2.77h-1.35v-1.16h1.83l3.11,3.11Zm-7.56-2.77h-5.74v-1.16h5.74v1.16Zm-9.19,0h-5.74v-1.16h5.74v1.16Zm-9.19,0h-5.74v-1.16h5.74v1.16Zm-9.19,0h-5.74v-1.16h5.74v1.16Zm-9.19,0h-5.74v-1.16h5.74v1.16Zm-9.19,0h-5.74v-1.16h5.74v1.16Z" transform="translate(-2208.05 -1505.01)"/><g class="cls-30"><rect class="cls-1" x="555.55" width="34.72" height="34.72"/><rect class="cls-1" x="555.55" width="34.72" height="34.72"/><rect class="cls-1" x="555.55" width="34.72" height="34.72"/><rect class="cls-1" x="555.55" width="34.72" height="34.72"/><rect class="cls-1" x="555.55" width="34.72" height="34.72"/><rect class="cls-1" x="555.55" width="34.72" height="34.72"/><rect class="cls-1" x="555.55" width="34.72" height="34.72"/><rect class="cls-1" x="555.55" width="34.72" height="34.72"/><rect class="cls-1" x="520.83" width="34.72" height="34.72"/><rect class="cls-1" x="520.83" width="34.72" height="34.72"/><rect class="cls-1" x="520.83" width="34.72" height="34.72"/><rect class="cls-1" x="520.83" width="34.72" height="34.72"/><rect class="cls-1" x="520.83" width="34.72" height="34.72"/><rect class="cls-1" x="520.83" width="34.72" height="34.72"/><rect class="cls-1" x="520.83" width="34.72" height="34.72"/><rect class="cls-1" x="520.83" width="34.72" height="34.72"/><rect class="cls-1" x="486.11" width="34.72" height="34.72"/><rect class="cls-1" x="486.11" width="34.72" height="34.72"/></g><rect class="cls-1" x="2797.77" y="1539.18" width="1.16" height="2.89" transform="translate(-2477.8 925.04) rotate(-45)"/><g class="cls-31"><rect class="cls-1" x="590.27" width="34.72" height="34.72"/><rect class="cls-1" x="590.27" width="34.72" height="34.72"/><rect class="cls-1" x="590.27" y="34.72" width="34.72" height="34.72"/><rect class="cls-1" x="590.27" y="34.72" width="34.72" height="34.72"/><rect class="cls-1" x="555.55" width="34.72" height="34.72"/><rect class="cls-1" x="555.55" width="34.72" height="34.72"/><rect class="cls-1" x="555.55" y="34.72" width="34.72" height="34.72"/><rect class="cls-1" x="555.55" y="34.72" width="34.72" height="34.72"/></g><path class="cls-1" d="M2600.6,1571.93l0,0h0v0Z" transform="translate(-2208.05 -1505.01)"/><polygon class="cls-1" points="622.83 75.34 613.97 75.34 618.2 79.58 627.06 79.58 627.06 70.72 622.83 66.5 622.83 75.34"/><polygon class="cls-1" points="615.79 68.32 606.94 68.32 611.65 73.03 620.52 73.03 620.52 64.19 615.79 59.46 615.79 68.32"/><polygon class="cls-1" points="608.77 61.29 599.91 61.29 604.63 66 613.48 66 613.48 57.15 608.77 52.44 608.77 61.29"/><polygon class="cls-1" points="601.74 54.27 592.9 54.27 597.61 58.98 606.45 58.98 606.45 50.12 601.74 45.41 601.74 54.27"/><polygon class="cls-1" points="594.72 47.23 585.86 47.23 590.59 51.95 599.43 51.95 599.43 43.1 594.72 38.39 594.72 47.23"/><path class="cls-1" d="M2600.56,1559.87q0,6,0,12l12,0,9.29-9.29v-7.13l21.24-21.24v-2.64h9.16l0.89,0.89h29.43l3.32,3.32h34l2.51-2.52h28l1.68-1.68h27.65V1533l9.42,9.43v5.19l2.34,2.34h8.85v-8.84l-2.34-2.34h-5.2l-9.43-9.42h-31.37l-1.61-1.6h-28l-2.51-2.52h-34l-3.32,3.32h-29.43l-0.79.79h-14.21L2617,1550.57h-7.13Z" transform="translate(-2208.05 -1505.01)"/><rect class="cls-1" x="509.78" y="36.81" width="71.43" height="1.16"/><circle class="cls-1" cx="509.78" cy="37.39" r="1.77"/><circle class="cls-1" cx="535.16" cy="42.58" r="1.77"/><circle class="cls-1" cx="607.51" cy="76.08" r="1.77"/><rect class="cls-1" x="535.16" y="42" width="47.33" height="1.16"/><rect class="cls-1" x="2795.69" y="1534.36" width="1.16" height="54.87" transform="translate(-2493.39 929.72) rotate(-45)"/><path class="cls-1" d="M2646.59,1540.59l-7.24,7.19v3.42l-13.44,13.33,6.24,0,19.55-19.39,3.85,3.88,6.69,0-8.4-8.47Z" transform="translate(-2208.05 -1505.01)"/><path class="cls-1" d="M2665.67,1549.09l-8.4-8.47,6.43,0,8.42,8.49Z" transform="translate(-2208.05 -1505.01)"/><path class="cls-1" d="M2675.49,1549.13l-8.4-8.47,6.43,0,8.42,8.49Z" transform="translate(-2208.05 -1505.01)"/><path class="cls-1" d="M2685.3,1549.17l-8.4-8.47,6.43,0,8.42,8.49Z" transform="translate(-2208.05 -1505.01)"/><polygon class="cls-1" points="473.89 20.21 471.51 22.59 469.08 22.59 471.46 20.21 473.89 20.21"/><g class="cls-32"><rect class="cls-1" x="451.38" width="34.72" height="34.72"/><rect class="cls-1" x="451.38" width="34.72" height="34.72"/></g><polygon class="cls-1" points="469.08 20.21 466.7 22.59 464.26 22.59 466.64 20.21 469.08 20.21"/><g class="cls-33"><rect class="cls-1" x="451.38" width="34.72" height="34.72"/><rect class="cls-1" x="451.38" width="34.72" height="34.72"/></g><polygon class="cls-1" points="464.26 20.21 461.88 22.59 459.44 22.59 461.82 20.21 464.26 20.21"/><g class="cls-34"><rect class="cls-1" x="451.38" width="34.72" height="34.72"/><rect class="cls-1" x="451.38" width="34.72" height="34.72"/></g><polygon class="cls-1" points="459.44 20.21 457.06 22.59 454.63 22.59 457.01 20.21 459.44 20.21"/><g class="cls-35"><rect class="cls-1" x="451.38" width="34.72" height="34.72"/><rect class="cls-1" x="451.38" width="34.72" height="34.72"/></g><polygon class="cls-1" points="454.63 20.21 452.25 22.59 449.81 22.59 452.19 20.21 454.63 20.21"/><g class="cls-36"><rect class="cls-1" x="451.38" width="34.72" height="34.72"/><rect class="cls-1" x="451.38" width="34.72" height="34.72"/><rect class="cls-1" x="416.66" width="34.72" height="34.72"/><rect class="cls-1" x="416.66" width="34.72" height="34.72"/></g><circle class="cls-1" cx="630.95" cy="83.47" r="2.01"/><g class="cls-37"><rect class="cls-1" x="624.99" y="69.44" width="34.72" height="34.72"/><rect class="cls-1" x="624.99" y="69.44" width="34.72" height="34.72"/></g><circle class="cls-1" cx="635.74" cy="88.27" r="1.64"/><g class="cls-38"><rect class="cls-1" x="624.99" y="69.44" width="34.72" height="34.72"/><rect class="cls-1" x="624.99" y="69.44" width="34.72" height="34.72"/></g><circle class="cls-1" cx="639.44" cy="91.96" r="0.83"/><g class="cls-39"><rect class="cls-1" x="624.99" y="69.44" width="34.72" height="34.72"/><rect class="cls-1" x="624.99" y="69.44" width="34.72" height="34.72"/></g><rect class="cls-1" x="514.36" y="350.85" width="2.89" height="1.16"/><g class="cls-40"><rect class="cls-1" x="486.11" y="347.22" width="34.72" height="34.72"/><rect class="cls-1" x="486.11" y="347.22" width="34.72" height="34.72"/></g><path class="cls-1" d="M2779.2,1857h-5.61v-1.16h5.61V1857Zm-9,0h-5.61v-1.16h5.61V1857Zm-9,0h-5.61v-1.16h5.61V1857Zm-9,0h-5.61v-1.16h5.61V1857Zm-9,0h-5.61v-1.16h5.61V1857Zm-9,0h-5.61v-1.16h5.61V1857Z" transform="translate(-2208.05 -1505.01)"/><g class="cls-41"><rect class="cls-1" x="555.55" y="347.22" width="34.72" height="34.72"/><rect class="cls-1" x="555.55" y="347.22" width="34.72" height="34.72"/><rect class="cls-1" x="555.55" y="347.22" width="34.72" height="34.72"/><rect class="cls-1" x="555.55" y="347.22" width="34.72" height="34.72"/><rect class="cls-1" x="520.83" y="347.22" width="34.72" height="34.72"/><rect class="cls-1" x="520.83" y="347.22" width="34.72" height="34.72"/><rect class="cls-1" x="520.83" y="347.22" width="34.72" height="34.72"/><rect class="cls-1" x="520.83" y="347.22" width="34.72" height="34.72"/><rect class="cls-1" x="520.83" y="347.22" width="34.72" height="34.72"/><rect class="cls-1" x="520.83" y="347.22" width="34.72" height="34.72"/><rect class="cls-1" x="520.83" y="347.22" width="34.72" height="34.72"/><rect class="cls-1" x="520.83" y="347.22" width="34.72" height="34.72"/><rect class="cls-1" x="486.11" y="347.22" width="34.72" height="34.72"/><rect class="cls-1" x="486.11" y="347.22" width="34.72" height="34.72"/></g><polygon class="cls-1" points="577.65 352.01 574.51 352.01 574.51 350.85 577.17 350.85 579.04 348.97 579.86 349.79 577.65 352.01"/><g class="cls-42"><rect class="cls-1" x="555.55" y="347.22" width="34.72" height="34.72"/><rect class="cls-1" x="555.55" y="347.22" width="34.72" height="34.72"/></g><rect class="cls-1" x="2789.26" y="1848.9" width="6.32" height="1.16" transform="translate(-2697.87 1011.63) rotate(-45.01)"/><g class="cls-43"><rect class="cls-1" x="555.55" y="312.5" width="34.72" height="34.72"/><rect class="cls-1" x="555.55" y="312.5" width="34.72" height="34.72"/></g><rect class="cls-1" x="2796.9" y="1842.96" width="2.89" height="1.16" transform="translate(-2692.06 1013.49) rotate(-45)"/><g class="cls-44"><rect class="cls-1" x="590.27" y="312.5" width="34.72" height="34.72"/><rect class="cls-1" x="590.27" y="312.5" width="34.72" height="34.72"/><rect class="cls-1" x="555.55" y="312.5" width="34.72" height="34.72"/><rect class="cls-1" x="555.55" y="312.5" width="34.72" height="34.72"/></g><path class="cls-1" d="M2600.6,1812.24l0,0h0v0Z" transform="translate(-2208.05 -1505.01)"/><polygon class="cls-1" points="622.83 298.81 613.97 298.81 618.2 294.58 627.06 294.58 627.06 303.43 622.83 307.66 622.83 298.81"/><polygon class="cls-1" points="615.79 305.84 606.94 305.84 611.65 301.13 620.52 301.13 620.52 309.97 615.79 314.69 615.79 305.84"/><polygon class="cls-1" points="608.77 312.86 599.91 312.86 604.63 308.15 613.48 308.15 613.48 317.01 608.77 321.72 608.77 312.86"/><polygon class="cls-1" points="601.74 319.89 592.9 319.89 597.61 315.18 606.45 315.18 606.45 324.03 601.74 328.74 601.74 319.89"/><polygon class="cls-1" points="594.72 326.93 585.86 326.93 590.59 322.2 599.43 322.2 599.43 331.06 594.72 335.77 594.72 326.93"/><path class="cls-1" d="M2600.56,1824.31q0-6,0-12l12,0,9.29,9.29v7.13l21.24,21.24v2.64h9.16l0.89-.89h29.43l3.32-3.32h34l2.51,2.52h28l1.68,1.68h27.65v-1.33l9.42-9.43v-5.19l2.34-2.34h8.85v8.84l-2.34,2.34h-5.2l-9.43,9.42h-31.37l-1.61,1.6h-28L2720,1859h-34l-3.32-3.32h-29.43l-0.79-.79h-14.21L2617,1833.6h-7.13Z" transform="translate(-2208.05 -1505.01)"/><rect class="cls-1" x="509.78" y="336.19" width="71.43" height="1.16"/><circle class="cls-1" cx="509.78" cy="336.77" r="1.77"/><circle class="cls-1" cx="535.16" cy="331.57" r="1.77"/><circle class="cls-1" cx="607.51" cy="298.08" r="1.77"/><rect class="cls-1" x="535.16" y="331" width="47.33" height="1.16"/><rect class="cls-1" x="2768.84" y="1821.8" width="54.87" height="1.16" transform="translate(-2677.7 1005.82) rotate(-45)"/><path class="cls-1" d="M2646.59,1843.58l-7.24-7.19V1833l-13.44-13.33,6.24,0,19.55,19.39,3.85-3.88,6.69,0-8.4,8.47Z" transform="translate(-2208.05 -1505.01)"/><path class="cls-1" d="M2665.67,1835.09l-8.4,8.47,6.43,0,8.42-8.49Z" transform="translate(-2208.05 -1505.01)"/><path class="cls-1" d="M2675.49,1835l-8.4,8.47,6.43,0,8.42-8.49Z" transform="translate(-2208.05 -1505.01)"/><path class="cls-1" d="M2685.3,1835l-8.4,8.47,6.43,0,8.42-8.49Z" transform="translate(-2208.05 -1505.01)"/><polygon class="cls-1" points="473.89 353.95 471.51 351.57 469.08 351.57 471.46 353.95 473.89 353.95"/><g class="cls-45"><rect class="cls-1" x="451.38" y="347.22" width="34.72" height="34.72"/><rect class="cls-1" x="451.38" y="347.22" width="34.72" height="34.72"/></g><polygon class="cls-1" points="469.08 353.95 466.7 351.57 464.26 351.57 466.64 353.95 469.08 353.95"/><g class="cls-46"><rect class="cls-1" x="451.38" y="347.22" width="34.72" height="34.72"/><rect class="cls-1" x="451.38" y="347.22" width="34.72" height="34.72"/></g><polygon class="cls-1" points="464.26 353.95 461.88 351.57 459.44 351.57 461.82 353.95 464.26 353.95"/><g class="cls-47"><rect class="cls-1" x="451.38" y="347.22" width="34.72" height="34.72"/><rect class="cls-1" x="451.38" y="347.22" width="34.72" height="34.72"/></g><polygon class="cls-1" points="459.44 353.95 457.06 351.57 454.63 351.57 457.01 353.95 459.44 353.95"/><g class="cls-48"><rect class="cls-1" x="451.38" y="347.22" width="34.72" height="34.72"/><rect class="cls-1" x="451.38" y="347.22" width="34.72" height="34.72"/></g><polygon class="cls-1" points="454.63 353.95 452.25 351.57 449.81 351.57 452.19 353.95 454.63 353.95"/><g class="cls-49"><rect class="cls-1" x="451.38" y="347.22" width="34.72" height="34.72"/><rect class="cls-1" x="451.38" y="347.22" width="34.72" height="34.72"/><rect class="cls-1" x="416.66" y="347.22" width="34.72" height="34.72"/><rect class="cls-1" x="416.66" y="347.22" width="34.72" height="34.72"/></g><circle class="cls-1" cx="630.95" cy="290.69" r="2.01"/><g class="cls-50"><rect class="cls-1" x="624.99" y="277.77" width="34.72" height="34.72"/><rect class="cls-1" x="624.99" y="277.77" width="34.72" height="34.72"/></g><circle class="cls-1" cx="635.74" cy="285.89" r="1.64"/><g class="cls-51"><rect class="cls-1" x="624.99" y="277.77" width="34.72" height="34.72"/><rect class="cls-1" x="624.99" y="277.77" width="34.72" height="34.72"/></g><circle class="cls-1" cx="639.44" cy="282.19" r="0.83"/><g class="cls-52"><rect class="cls-1" x="624.99" y="277.77" width="34.72" height="34.72"/><rect class="cls-1" x="624.99" y="277.77" width="34.72" height="34.72"/></g><g class="cls-53"><path class="cls-1" d="M2631.85,1677.68l-6-10.42-20.6-35.67-13.92-25.09-3.46-3.33h-28.51l-2-1.91h-5.9l-2.8,2.7h-17.29l-2.8-2.7h-5.9l-2,1.91h-28.51l-3.46,3.33-13.91,25.07-20.61,35.69-6,10.42-8.32,14.41,8.32,14.41,4.33,7.5,1.5,2.92,33.15,64.2,2.47,2.47h13.06l2.25-2.25h14.31l6,6h11.92l2.86-2.87,2.86,2.87h11.92l6-6h14.31l2.25,2.25h13.06l2.47-2.47,33.15-64.2,1.5-2.92,4.33-7.5,8-13.83,0.34-.58Zm-2.67,28.82-6,10.42-34.41,59.61h-97.5l-34.41-59.61-6-10.42-8.32-14.41,8.32-14.41,6-10.42,34.41-59.61h97.5l34.41,59.61,6,10.42,8.32,14.41Z" transform="translate(-2208.05 -1505.01)"/></g><polygon class="cls-1" points="323.27 251.73 294.63 251.73 257.3 187.08 257.47 186.79 294.63 122.43 323.27 122.43 323.27 123.59 295.3 123.59 258.64 187.08 295.3 250.57 323.27 250.57 323.27 251.73"/><rect class="cls-1" x="2488.77" y="1659.52" width="2.89" height="1.16" transform="translate(-2400.48 1481.94) rotate(-60.01)"/><g class="cls-54"><rect class="cls-1" x="277.77" y="138.89" width="34.72" height="34.72"/><rect class="cls-1" x="277.77" y="138.89" width="34.72" height="34.72"/></g><path class="cls-1" d="M2475.8,1686.23l-1-.58,2.63-4.55,1,0.58Zm4.73-8.2-1-.58,2.63-4.55,1,0.58Zm4.73-8.2-1-.58,2.63-4.55,1,0.58Z" transform="translate(-2208.05 -1505.01)"/><g class="cls-55"><rect class="cls-1" x="243.05" y="173.61" width="34.72" height="34.72"/><rect class="cls-1" x="243.05" y="173.61" width="34.72" height="34.72"/><rect class="cls-1" x="243.05" y="138.89" width="34.72" height="34.72"/><rect class="cls-1" x="243.05" y="138.89" width="34.72" height="34.72"/><rect class="cls-1" x="277.77" y="138.89" width="34.72" height="34.72"/><rect class="cls-1" x="277.77" y="138.89" width="34.72" height="34.72"/><rect class="cls-1" x="243.05" y="138.89" width="34.72" height="34.72"/><rect class="cls-1" x="243.05" y="138.89" width="34.72" height="34.72"/></g><polygon class="cls-1" points="264.65 189.87 263.03 187.08 264.65 184.28 265.65 184.86 264.37 187.08 265.65 189.29 264.65 189.87"/><g class="cls-56"><rect class="cls-1" x="243.05" y="173.61" width="34.72" height="34.72"/><rect class="cls-1" x="243.05" y="173.61" width="34.72" height="34.72"/></g><path class="cls-1" d="M2486.89,1719.46l-2.63-4.55,1-.58,2.63,4.55Zm-4.73-8.19-2.63-4.55,1-.58,2.63,4.55Zm-4.73-8.19-2.63-4.55,1-.58,2.63,4.55Z" transform="translate(-2208.05 -1505.01)"/><g class="cls-57"><rect class="cls-1" x="277.77" y="208.33" width="34.72" height="34.72"/><rect class="cls-1" x="277.77" y="208.33" width="34.72" height="34.72"/><rect class="cls-1" x="243.05" y="208.33" width="34.72" height="34.72"/><rect class="cls-1" x="243.05" y="208.33" width="34.72" height="34.72"/><rect class="cls-1" x="243.05" y="173.61" width="34.72" height="34.72"/><rect class="cls-1" x="243.05" y="173.61" width="34.72" height="34.72"/><rect class="cls-1" x="243.05" y="173.61" width="34.72" height="34.72"/><rect class="cls-1" x="243.05" y="173.61" width="34.72" height="34.72"/></g><rect class="cls-1" x="2489.64" y="1722.62" width="1.16" height="2.89" transform="translate(-2736.47 -28.85) rotate(-30)"/><g class="cls-58"><rect class="cls-1" x="277.77" y="208.33" width="34.72" height="34.72"/><rect class="cls-1" x="277.77" y="208.33" width="34.72" height="34.72"/></g><polygon class="cls-1" points="269.43 167.24 269.43 206.92 257.97 187.08 269.43 167.24"/><rect class="cls-1" x="321.58" y="249.46" width="3.37" height="3.37"/><rect class="cls-1" x="321.58" y="121.32" width="3.37" height="3.37"/><polygon class="cls-1" points="296.62 248.28 293.31 248.28 291.65 251.15 293.31 254.02 296.62 254.02 298.28 251.15 296.62 248.28"/><polygon class="cls-1" points="296.77 120.14 293.45 120.14 291.8 123.01 293.45 125.88 296.77 125.88 298.42 123.01 296.77 120.14"/><circle class="cls-1" cx="282.89" cy="153.84" r="1.6"/><circle class="cls-1" cx="282.89" cy="220.32" r="1.6"/><polygon class="cls-1" points="340.64 251.73 369.28 251.73 406.61 187.08 406.44 186.79 369.28 122.43 340.64 122.43 340.64 123.59 368.61 123.59 405.27 187.08 368.61 250.57 340.64 250.57 340.64 251.73"/><rect class="cls-1" x="2589.22" y="1658.65" width="1.16" height="2.89" transform="translate(-2691.13 12.09) rotate(-30)"/><g class="cls-59"><rect class="cls-1" x="381.94" y="138.89" width="34.72" height="34.72"/><rect class="cls-1" x="381.94" y="138.89" width="34.72" height="34.72"/><rect class="cls-1" x="347.22" y="138.89" width="34.72" height="34.72"/><rect class="cls-1" x="347.22" y="138.89" width="34.72" height="34.72"/></g><path class="cls-1" d="M2601.58,1681.68l1-.58,2.63,4.55-1,.58Zm-4.73-8.2,1-.58,2.63,4.55-1,.58Zm-4.73-8.19,1-.58,2.63,4.55-1,.58Z" transform="translate(-2208.05 -1505.01)"/><g class="cls-60"><rect class="cls-1" x="381.94" y="173.61" width="34.72" height="34.72"/><rect class="cls-1" x="381.94" y="173.61" width="34.72" height="34.72"/><rect class="cls-1" x="381.94" y="138.89" width="34.72" height="34.72"/><rect class="cls-1" x="381.94" y="138.89" width="34.72" height="34.72"/><rect class="cls-1" x="381.94" y="138.89" width="34.72" height="34.72"/><rect class="cls-1" x="381.94" y="138.89" width="34.72" height="34.72"/></g><polygon class="cls-1" points="399.26 189.87 400.88 187.08 399.26 184.28 398.26 184.86 399.54 187.08 398.26 189.29 399.26 189.87"/><g class="cls-61"><rect class="cls-1" x="381.94" y="173.61" width="34.72" height="34.72"/><rect class="cls-1" x="381.94" y="173.61" width="34.72" height="34.72"/></g><path class="cls-1" d="M2592.12,1718.89l2.63-4.55,1,0.58-2.63,4.55Zm4.73-8.19,2.63-4.55,1,0.58-2.63,4.55Zm4.73-8.19,2.63-4.55,1,0.58-2.63,4.55Z" transform="translate(-2208.05 -1505.01)"/><g class="cls-62"><rect class="cls-1" x="381.94" y="208.33" width="34.72" height="34.72"/><rect class="cls-1" x="381.94" y="208.33" width="34.72" height="34.72"/><rect class="cls-1" x="381.94" y="173.61" width="34.72" height="34.72"/><rect class="cls-1" x="381.94" y="173.61" width="34.72" height="34.72"/><rect class="cls-1" x="381.94" y="173.61" width="34.72" height="34.72"/><rect class="cls-1" x="381.94" y="173.61" width="34.72" height="34.72"/></g><rect class="cls-1" x="2588.35" y="1723.49" width="2.89" height="1.16" transform="translate(-2406.23 1599.87) rotate(-60)"/><g class="cls-63"><rect class="cls-1" x="381.94" y="208.33" width="34.72" height="34.72"/><rect class="cls-1" x="381.94" y="208.33" width="34.72" height="34.72"/><rect class="cls-1" x="347.22" y="208.33" width="34.72" height="34.72"/><rect class="cls-1" x="347.22" y="208.33" width="34.72" height="34.72"/></g><polygon class="cls-1" points="394.48 167.24 394.48 206.92 405.94 187.08 394.48 167.24"/><rect class="cls-1" x="2547.01" y="1754.47" width="3.37" height="3.37" transform="translate(2889.33 2007.31) rotate(180)"/><rect class="cls-1" x="2547.01" y="1626.33" width="3.37" height="3.37" transform="translate(2889.33 1751.02) rotate(180)"/><polygon class="cls-1" points="367.29 248.28 370.6 248.28 372.26 251.15 370.6 254.02 367.29 254.02 365.63 251.15 367.29 248.28"/><polygon class="cls-1" points="367.14 120.14 370.46 120.14 372.11 123.01 370.46 125.88 367.14 125.88 365.49 123.01 367.14 120.14"/><circle class="cls-1" cx="381.02" cy="153.84" r="1.6"/><circle class="cls-1" cx="381.02" cy="220.32" r="1.6"/><g class="cls-53"><path class="cls-1" d="M2540,1727a34.88,34.88,0,1,1,34.88-34.88A34.92,34.92,0,0,1,2540,1727Zm0-69.18a34.3,34.3,0,1,0,34.3,34.3A34.34,34.34,0,0,0,2540,1657.79Z" transform="translate(-2208.05 -1505.01)"/></g><g class="cls-53"><circle class="cls-1" cx="331.95" cy="187.08" r="2.21"/></g><g class="cls-53"><path class="cls-1" d="M2540,1827.94l-16.55-16.55,16.55-16.55,16.55,16.55Zm-14.91-16.55L2540,1826.3l14.91-14.91L2540,1796.48Z" transform="translate(-2208.05 -1505.01)"/><rect class="cls-1" x="2537.04" y="1808.42" width="5.93" height="5.93" transform="translate(847.17 3383.28) rotate(-135)"/></g><polygon class="cls-1" points="246.29 350.57 247.84 356.34 245.3 358.88 243.75 353.11 237.98 351.56 240.52 349.02 246.29 350.57"/><polygon class="cls-1" points="251.22 345.64 252.76 351.41 250.23 353.95 248.68 348.18 242.91 346.63 245.45 344.09 251.22 345.64"/><polygon class="cls-1" points="256.15 340.71 257.69 346.48 255.15 349.02 253.61 343.25 247.84 341.7 250.38 339.17 256.15 340.71"/><polygon class="cls-1" points="261.07 335.78 262.62 341.55 260.08 344.09 258.53 338.32 252.76 336.78 255.31 334.24 261.07 335.78"/><polygon class="cls-1" points="417.62 350.57 416.07 356.34 418.61 358.88 420.16 353.11 425.93 351.56 423.39 349.02 417.62 350.57"/><polygon class="cls-1" points="412.69 345.64 411.14 351.41 413.68 353.95 415.23 348.18 421 346.63 418.46 344.09 412.69 345.64"/><polygon class="cls-1" points="407.76 340.71 406.22 346.48 408.76 349.02 410.3 343.25 416.07 341.7 413.53 339.17 407.76 340.71"/><polygon class="cls-1" points="402.84 335.78 401.29 341.55 403.83 344.09 405.38 338.32 411.14 336.78 408.61 334.24 402.84 335.78"/><polygon class="cls-1" points="330.12 334.03 331.95 332.39 333.79 334.03 333.79 334.03 333.79 334.03 333.79 332.06 331.95 330.43 330.12 332.06 330.12 334.03 330.12 334.03 330.12 334.03"/><polygon class="cls-1" points="294.61 348.08 291.69 350.99 276.64 350.99 277.54 351.89 294.4 351.89 296.77 349.52 307.49 349.52 312.13 354.16 316.99 354.16 310.91 348.08 294.61 348.08"/><polygon class="cls-1" points="298.02 340.95 296.8 342.17 304.55 342.17 304.55 343.06 295.91 343.06 294.63 344.33 301.83 344.33 301.83 345.22 293.74 345.22 292.61 346.35 280.33 346.35 276.64 350.05 291.3 350.05 294.21 347.13 311.29 347.13 318.32 354.16 322.85 354.16 309.63 340.95 298.02 340.95"/><path class="cls-1" d="M2502,1857.87a0.61,0.61,0,0,0-.15-0.1,0.52,0.52,0,0,0-.52.1,0.5,0.5,0,0,0-.09.15,0.45,0.45,0,0,0,0,.19,0.47,0.47,0,0,0,.13.33,0.5,0.5,0,0,0,.34.14,0.48,0.48,0,0,0,.33-0.14,0.46,0.46,0,0,0,.14-0.33,0.67,0.67,0,0,0,0-.19A0.53,0.53,0,0,0,2502,1857.87Z" transform="translate(-2208.05 -1505.01)"/><g class="cls-64"><rect class="cls-1" x="277.77" y="347.22" width="34.72" height="34.72"/><rect class="cls-1" x="277.77" y="347.22" width="34.72" height="34.72"/></g><path class="cls-1" d="M2493.84,1857.74a0.47,0.47,0,0,0-.47.47,0.48,0.48,0,0,0,.47.47,0.47,0.47,0,0,0,.47-0.47A0.47,0.47,0,0,0,2493.84,1857.74Z" transform="translate(-2208.05 -1505.01)"/><g class="cls-65"><rect class="cls-1" x="277.77" y="347.22" width="34.72" height="34.72"/><rect class="cls-1" x="277.77" y="347.22" width="34.72" height="34.72"/></g><path class="cls-1" d="M2491.23,1857.74a0.47,0.47,0,0,0-.47.47,0.48,0.48,0,0,0,.47.47,0.47,0.47,0,0,0,.47-0.47A0.47,0.47,0,0,0,2491.23,1857.74Z" transform="translate(-2208.05 -1505.01)"/><g class="cls-66"><rect class="cls-1" x="277.77" y="347.22" width="34.72" height="34.72"/><rect class="cls-1" x="277.77" y="347.22" width="34.72" height="34.72"/></g><path class="cls-1" d="M2488.63,1857.74a0.47,0.47,0,0,0-.48.47,0.48,0.48,0,0,0,1,0A0.47,0.47,0,0,0,2488.63,1857.74Z" transform="translate(-2208.05 -1505.01)"/><g class="cls-67"><rect class="cls-1" x="277.77" y="347.22" width="34.72" height="34.72"/><rect class="cls-1" x="277.77" y="347.22" width="34.72" height="34.72"/></g><path class="cls-1" d="M2496.46,1857.74a0.47,0.47,0,0,0-.47.47,0.47,0.47,0,1,0,.94,0A0.47,0.47,0,0,0,2496.46,1857.74Z" transform="translate(-2208.05 -1505.01)"/><g class="cls-68"><rect class="cls-1" x="277.77" y="347.22" width="34.72" height="34.72"/><rect class="cls-1" x="277.77" y="347.22" width="34.72" height="34.72"/></g><path class="cls-1" d="M2499.07,1857.74a0.47,0.47,0,0,0-.47.47,0.47,0.47,0,0,0,.47.47,0.48,0.48,0,0,0,.47-0.47A0.47,0.47,0,0,0,2499.07,1857.74Z" transform="translate(-2208.05 -1505.01)"/><g class="cls-69"><rect class="cls-1" x="277.77" y="347.22" width="34.72" height="34.72"/><rect class="cls-1" x="277.77" y="347.22" width="34.72" height="34.72"/></g><path class="cls-1" d="M2486.35,1857.87a0.5,0.5,0,0,0-.67,0,0.85,0.85,0,0,0-.1.15,0.65,0.65,0,0,0,0,.19,0.49,0.49,0,0,0,.13.33,0.6,0.6,0,0,0,.16.1,0.56,0.56,0,0,0,.18,0,0.48,0.48,0,0,0,.33-0.14,0.53,0.53,0,0,0,.1-0.15,0.61,0.61,0,0,0,0-.18,0.67,0.67,0,0,0,0-.19A0.53,0.53,0,0,0,2486.35,1857.87Z" transform="translate(-2208.05 -1505.01)"/><g class="cls-70"><rect class="cls-1" x="277.77" y="347.22" width="34.72" height="34.72"/><rect class="cls-1" x="277.77" y="347.22" width="34.72" height="34.72"/><rect class="cls-1" x="243.05" y="347.22" width="34.72" height="34.72"/><rect class="cls-1" x="243.05" y="347.22" width="34.72" height="34.72"/></g><polygon class="cls-1" points="293.54 344.3 294.74 343.1 293.27 343.1 292.06 344.3 293.54 344.3"/><polygon class="cls-1" points="291.02 344.3 292.23 343.1 290.75 343.1 289.55 344.3 291.02 344.3"/><polygon class="cls-1" points="288.5 344.3 289.71 343.1 288.24 343.1 287.03 344.3 288.5 344.3"/><polygon class="cls-1" points="285.99 344.3 287.19 343.1 285.72 343.1 284.51 344.3 285.99 344.3"/><polygon class="cls-1" points="284.68 343.1 283.2 343.1 282 344.3 283.47 344.3 284.68 343.1"/><polygon class="cls-1" points="369.7 347.13 372.61 350.05 387.27 350.05 383.58 346.35 371.3 346.35 370.17 345.22 362.08 345.22 362.08 344.33 369.28 344.33 368 343.06 359.36 343.06 359.36 342.17 367.11 342.17 365.89 340.95 354.28 340.95 341.06 354.16 345.59 354.16 352.62 347.13 369.7 347.13"/><polygon class="cls-1" points="369.3 348.08 353 348.08 346.92 354.16 351.78 354.16 356.42 349.52 367.14 349.52 369.51 351.89 386.37 351.89 387.27 350.99 372.22 350.99 369.3 348.08"/><path class="cls-1" d="M2559.45,1846l-2.82,2.82h-11.26l-1.85-1.85h0v-4.06l-3.52-3.53-3.52,3.53v4.06h0l-1.85,1.85h-11.26l-2.82-2.82H2519l12.87,12.88,2.14-2.15h12l2.14,2.15L2561,1846h-1.54Zm-34.38,4.52-0.76-.76h9.38l-0.76.76h-7.86Zm15.35,4.29a2.07,2.07,0,0,1-2.49-2,2.07,2.07,0,0,1,1.65-2,2.12,2.12,0,0,1,.84,0A2.07,2.07,0,0,1,2540.43,1854.77Zm6.65-4.29-0.76-.76h9.38l-0.76.76h-7.86Z" transform="translate(-2208.05 -1505.01)"/><path class="cls-1" d="M2578.67,1857.87a0.66,0.66,0,0,0-.16-0.1,0.49,0.49,0,0,0-.51.1,0.52,0.52,0,0,0-.1.15,0.65,0.65,0,0,0,0,.19,0.48,0.48,0,0,0,.14.33,0.56,0.56,0,0,0,.15.1,0.63,0.63,0,0,0,.18,0,0.5,0.5,0,0,0,.34-0.14,0.51,0.51,0,0,0,.09-0.15,0.42,0.42,0,0,0,0-.18,0.46,0.46,0,0,0,0-.19A0.51,0.51,0,0,0,2578.67,1857.87Z" transform="translate(-2208.05 -1505.01)"/><g class="cls-71"><rect class="cls-1" x="347.22" y="347.22" width="34.72" height="34.72"/><rect class="cls-1" x="347.22" y="347.22" width="34.72" height="34.72"/></g><path class="cls-1" d="M2586.17,1857.74a0.47,0.47,0,0,0-.47.47,0.47,0.47,0,0,0,.47.47,0.48,0.48,0,0,0,.47-0.47A0.47,0.47,0,0,0,2586.17,1857.74Z" transform="translate(-2208.05 -1505.01)"/><g class="cls-72"><rect class="cls-1" x="347.22" y="347.22" width="34.72" height="34.72"/><rect class="cls-1" x="347.22" y="347.22" width="34.72" height="34.72"/></g><path class="cls-1" d="M2583.56,1857.74a0.47,0.47,0,0,0-.47.47,0.47,0.47,0,0,0,.47.47,0.48,0.48,0,0,0,.47-0.47A0.47,0.47,0,0,0,2583.56,1857.74Z" transform="translate(-2208.05 -1505.01)"/><g class="cls-73"><rect class="cls-1" x="347.22" y="347.22" width="34.72" height="34.72"/><rect class="cls-1" x="347.22" y="347.22" width="34.72" height="34.72"/></g><path class="cls-1" d="M2588.78,1857.74a0.47,0.47,0,0,0-.47.47,0.47,0.47,0,1,0,.93,0A0.46,0.46,0,0,0,2588.78,1857.74Z" transform="translate(-2208.05 -1505.01)"/><g class="cls-74"><rect class="cls-1" x="347.22" y="347.22" width="34.72" height="34.72"/><rect class="cls-1" x="347.22" y="347.22" width="34.72" height="34.72"/></g><path class="cls-1" d="M2591.38,1857.74a0.47,0.47,0,0,0-.47.47,0.48,0.48,0,0,0,.47.47,0.47,0.47,0,0,0,.47-0.47A0.47,0.47,0,0,0,2591.38,1857.74Z" transform="translate(-2208.05 -1505.01)"/><g class="cls-75"><rect class="cls-1" x="381.94" y="347.22" width="34.72" height="34.72"/><rect class="cls-1" x="381.94" y="347.22" width="34.72" height="34.72"/></g><path class="cls-1" d="M2580.95,1857.74a0.47,0.47,0,0,0-.47.47,0.47,0.47,0,1,0,.94,0A0.47,0.47,0,0,0,2580.95,1857.74Z" transform="translate(-2208.05 -1505.01)"/><g class="cls-76"><rect class="cls-1" x="347.22" y="347.22" width="34.72" height="34.72"/><rect class="cls-1" x="347.22" y="347.22" width="34.72" height="34.72"/></g><path class="cls-1" d="M2594.33,1857.87a0.49,0.49,0,0,0-.67,0,0.54,0.54,0,0,0-.1.15,0.69,0.69,0,0,0,0,.19,0.62,0.62,0,0,0,0,.18,0.54,0.54,0,0,0,.1.15,0.48,0.48,0,0,0,.33.14,0.5,0.5,0,0,0,.34-0.14,0.47,0.47,0,0,0,.13-0.33,0.45,0.45,0,0,0,0-.19A0.49,0.49,0,0,0,2594.33,1857.87Z" transform="translate(-2208.05 -1505.01)"/><g class="cls-77"><rect class="cls-1" x="381.94" y="347.22" width="34.72" height="34.72"/><rect class="cls-1" x="381.94" y="347.22" width="34.72" height="34.72"/></g><polygon class="cls-1" points="328.89 353.2 330.42 355.86 331.95 358.51 333.49 355.86 335.02 353.2 331.95 353.2 328.89 353.2"/><polygon class="cls-1" points="371.85 344.3 370.64 343.1 369.17 343.1 370.38 344.3 371.85 344.3"/><polygon class="cls-1" points="374.36 344.3 373.16 343.1 371.69 343.1 372.89 344.3 374.36 344.3"/><polygon class="cls-1" points="376.88 344.3 375.67 343.1 374.2 343.1 375.41 344.3 376.88 344.3"/><polygon class="cls-1" points="379.39 344.3 378.19 343.1 376.72 343.1 377.92 344.3 379.39 344.3"/><polygon class="cls-1" points="381.91 344.3 380.7 343.1 379.23 343.1 380.44 344.3 381.91 344.3"/><rect class="cls-1" x="284.53" y="90.82" width="27.78" height="2.92"/><rect class="cls-1" x="288.4" y="82.78" width="20.03" height="2.92"/><rect class="cls-1" x="292.57" y="74.74" width="11.7" height="2.92"/><rect class="cls-1" x="2559.66" y="1595.83" width="27.78" height="2.92" transform="translate(2939.04 1689.57) rotate(180)"/><rect class="cls-1" x="2563.53" y="1587.79" width="20.03" height="2.92" transform="translate(2939.04 1673.49) rotate(180)"/><rect class="cls-1" x="2567.7" y="1579.75" width="11.7" height="2.92" transform="translate(2939.04 1657.41) rotate(180)"/><path class="cls-1" d="M2492.15,1554.1l-0.82-.82,0.82-.82,0.82,0.82Zm-1.64-1.64-0.82-.82,0.82-.82,0.82,0.82Zm-1.64-1.64-0.82-.82,0.82-.82,0.82,0.82Zm-1.64-1.64-0.82-.82,0.82-.82,0.82,0.82Zm-1.64-1.64-0.82-.82,0.82-.82,0.82,0.82Zm-1.64-1.64-0.82-.82,0.82-.82,0.82,0.82Zm-1.64-1.64-0.82-.82,0.82-.82,0.82,0.82Zm-1.64-1.64-0.82-.82,0.82-.82,0.82,0.82Zm-1.64-1.64-0.82-.82,0.82-.82,0.82,0.82Zm-1.64-1.64-0.82-.82,0.82-.82,0.82,0.82Zm-1.64-1.64-0.82-.82,0.82-.82,0.82,0.82Zm-1.64-1.64-0.82-.82,0.82-.82,0.82,0.82Zm-1.64-1.64-0.61-.61,0.82-.82,0.61,0.61Z" transform="translate(-2208.05 -1505.01)"/><polygon class="cls-1" points="282.35 50.84 253.52 22.01 304.26 22.01 304.26 23.16 256.32 23.16 283.17 50.02 282.35 50.84"/><rect class="cls-1" x="280.6" y="48.26" width="4.33" height="4.33"/><rect class="cls-1" x="259.96" y="19.63" width="2.31" height="1.16"/><g class="cls-78"><rect class="cls-1" x="243.05" width="34.72" height="34.72"/><rect class="cls-1" x="243.05" width="34.72" height="34.72"/></g><path class="cls-1" d="M2523.61,1525.79h-4.44v-1.16h4.44v1.16Zm-8.88,0h-4.44v-1.16h4.44v1.16Zm-8.88,0h-4.44v-1.16h4.44v1.16Zm-8.88,0h-4.44v-1.16H2497v1.16Zm-8.88,0h-4.44v-1.16h4.44v1.16Zm-8.88,0h-4.44v-1.16h4.44v1.16Z" transform="translate(-2208.05 -1505.01)"/><g class="cls-79"><rect class="cls-1" x="312.5" width="34.72" height="34.72"/><rect class="cls-1" x="312.5" width="34.72" height="34.72"/><rect class="cls-1" x="277.77" width="34.72" height="34.72"/><rect class="cls-1" x="277.77" width="34.72" height="34.72"/><rect class="cls-1" x="277.77" width="34.72" height="34.72"/><rect class="cls-1" x="277.77" width="34.72" height="34.72"/><rect class="cls-1" x="277.77" width="34.72" height="34.72"/><rect class="cls-1" x="277.77" width="34.72" height="34.72"/><rect class="cls-1" x="277.77" width="34.72" height="34.72"/><rect class="cls-1" x="277.77" width="34.72" height="34.72"/><rect class="cls-1" x="277.77" width="34.72" height="34.72"/><rect class="cls-1" x="277.77" width="34.72" height="34.72"/><rect class="cls-1" x="243.05" width="34.72" height="34.72"/><rect class="cls-1" x="243.05" width="34.72" height="34.72"/><rect class="cls-1" x="243.05" width="34.72" height="34.72"/><rect class="cls-1" x="243.05" width="34.72" height="34.72"/></g><rect class="cls-1" x="320" y="19.63" width="2.31" height="1.16"/><g class="cls-80"><rect class="cls-1" x="312.5" width="34.72" height="34.72"/><rect class="cls-1" x="312.5" width="34.72" height="34.72"/></g><polygon class="cls-1" points="270.93 22.59 262.93 30.59 254.92 22.59 270.93 22.59"/><polygon class="cls-1" points="293.27 27.36 291.72 30.04 289.86 30.04 291.41 27.36 289.86 24.68 291.72 24.68 293.27 27.36"/><polygon class="cls-1" points="296.88 27.36 295.33 30.04 293.47 30.04 295.02 27.36 293.47 24.68 295.33 24.68 296.88 27.36"/><polygon class="cls-1" points="300.49 27.36 298.95 30.04 297.08 30.04 298.63 27.36 297.08 24.68 298.95 24.68 300.49 27.36"/><polygon class="cls-1" points="304.1 27.36 302.56 30.04 300.7 30.04 302.24 27.36 300.7 24.68 302.56 24.68 304.1 27.36"/><rect class="cls-1" x="2482.14" y="1541.9" width="0.58" height="18.15" transform="translate(-2577.65 704.67) rotate(-45)"/><rect class="cls-1" x="2475.73" y="1544.27" width="0.58" height="0.58" transform="translate(-391.02 -2803.34) rotate(44.99)"/><rect class="cls-1" x="2474.63" y="1543.17" width="0.58" height="0.58" transform="translate(-391.77 -2802.97) rotate(45)"/><rect class="cls-1" x="2473.53" y="1542.07" width="0.58" height="0.58" transform="translate(-392.87 -2802.51) rotate(45)"/><rect class="cls-1" x="2472.43" y="1540.97" width="0.58" height="0.58" transform="translate(-393.97 -2802.06) rotate(45)"/><rect class="cls-1" x="2471.33" y="1539.88" width="0.58" height="0.58" transform="translate(-395.07 -2801.6) rotate(45)"/><rect class="cls-1" x="2470.23" y="1538.78" width="0.58" height="0.58" transform="translate(-396.52 -2801.07) rotate(44.99)"/><rect class="cls-1" x="2469.14" y="1537.68" width="0.58" height="0.58" transform="translate(-397.27 -2800.69) rotate(45)"/><rect class="cls-1" x="2468.04" y="1536.58" width="0.58" height="0.58" transform="translate(-398.37 -2800.24) rotate(45)"/><rect class="cls-1" x="2466.94" y="1535.48" width="0.58" height="0.58" transform="translate(-399.12 -2799.87) rotate(45.01)"/><rect class="cls-1" x="2465.84" y="1534.38" width="0.58" height="0.58" transform="translate(-400.56 -2799.33) rotate(45)"/><rect class="cls-1" x="2464.74" y="1533.28" width="0.58" height="0.58" transform="translate(-402.01 -2798.79) rotate(44.99)"/><rect class="cls-1" x="2463.64" y="1532.19" width="0.58" height="0.58" transform="translate(-402.76 -2798.42) rotate(45)"/><rect class="cls-1" x="2462.54" y="1531.09" width="0.58" height="0.58" transform="translate(-403.86 -2797.96) rotate(45)"/><rect class="cls-1" x="2461.45" y="1529.99" width="0.58" height="0.58" transform="translate(-404.26 -2797.67) rotate(45.01)"/><rect class="cls-1" x="2460.35" y="1528.89" width="0.58" height="0.58" transform="translate(-406.06 -2797.05) rotate(45)"/><path class="cls-1" d="M2587,1553.28l0.82-.82,0.82,0.82-0.82.82Zm1.64-1.64,0.82-.82,0.82,0.82-0.82.82Zm1.64-1.64,0.82-.82L2592,1550l-0.82.82Zm1.64-1.64,0.82-.82,0.82,0.82-0.82.82Zm1.64-1.64,0.82-.82,0.82,0.82-0.82.82Zm1.64-1.64,0.82-.82,0.82,0.82-0.82.82Zm1.64-1.64,0.82-.82,0.82,0.82-0.82.82Zm1.64-1.64,0.82-.82,0.82,0.82-0.82.82Zm1.64-1.64,0.82-.82,0.82,0.82-0.82.82Zm1.64-1.64,0.82-.82,0.82,0.82-0.82.82Zm1.64-1.64,0.82-.82,0.82,0.82-0.82.82Zm1.64-1.64,0.82-.82,0.82,0.82-0.82.82Zm1.64-1.64,0.61-.61,0.82,0.82-0.61.61Z" transform="translate(-2208.05 -1505.01)"/><polygon class="cls-1" points="381.56 50.84 380.74 50.02 407.59 23.16 359.65 23.16 359.65 22.01 410.38 22.01 381.56 50.84"/><rect class="cls-1" x="2587.04" y="1553.27" width="4.33" height="4.33" transform="translate(2970.35 1605.86) rotate(180)"/><rect class="cls-1" x="401.63" y="19.63" width="2.31" height="1.16"/><g class="cls-81"><rect class="cls-1" x="381.94" width="34.72" height="34.72"/><rect class="cls-1" x="381.94" width="34.72" height="34.72"/></g><path class="cls-1" d="M2605.24,1525.79h-4.44v-1.16h4.44v1.16Zm-8.88,0h-4.44v-1.16h4.44v1.16Zm-8.88,0H2583v-1.16h4.44v1.16Zm-8.88,0h-4.44v-1.16h4.44v1.16Zm-8.88,0h-4.44v-1.16h4.44v1.16Zm-8.88,0h-4.44v-1.16h4.44v1.16Z" transform="translate(-2208.05 -1505.01)"/><g class="cls-82"><rect class="cls-1" x="381.94" width="34.72" height="34.72"/><rect class="cls-1" x="381.94" width="34.72" height="34.72"/><rect class="cls-1" x="381.94" width="34.72" height="34.72"/><rect class="cls-1" x="381.94" width="34.72" height="34.72"/><rect class="cls-1" x="347.22" width="34.72" height="34.72"/><rect class="cls-1" x="347.22" width="34.72" height="34.72"/><rect class="cls-1" x="347.22" width="34.72" height="34.72"/><rect class="cls-1" x="347.22" width="34.72" height="34.72"/><rect class="cls-1" x="347.22" width="34.72" height="34.72"/><rect class="cls-1" x="347.22" width="34.72" height="34.72"/><rect class="cls-1" x="347.22" width="34.72" height="34.72"/><rect class="cls-1" x="347.22" width="34.72" height="34.72"/></g><rect class="cls-1" x="341.59" y="19.63" width="2.31" height="1.16"/><g class="cls-83"><rect class="cls-1" x="312.5" width="34.72" height="34.72"/><rect class="cls-1" x="312.5" width="34.72" height="34.72"/></g><polygon class="cls-1" points="392.98 22.59 400.98 30.59 408.99 22.59 392.98 22.59"/><polygon class="cls-1" points="370.64 27.36 372.19 30.04 374.05 30.04 372.5 27.36 374.05 24.68 372.19 24.68 370.64 27.36"/><polygon class="cls-1" points="367.03 27.36 368.57 30.04 370.44 30.04 368.89 27.36 370.44 24.68 368.57 24.68 367.03 27.36"/><polygon class="cls-1" points="363.42 27.36 364.96 30.04 366.82 30.04 365.28 27.36 366.82 24.68 364.96 24.68 363.42 27.36"/><polygon class="cls-1" points="359.81 27.36 361.35 30.04 363.21 30.04 361.67 27.36 363.21 24.68 361.35 24.68 359.81 27.36"/><rect class="cls-1" x="2588.51" y="1550.69" width="18.15" height="0.58" transform="translate(-2543.96 785.96) rotate(-45)"/><rect class="cls-1" x="2603.71" y="1544.27" width="0.58" height="0.58" transform="translate(3329.51 -709.23) rotate(135.01)"/><rect class="cls-1" x="2604.81" y="1543.17" width="0.58" height="0.58" transform="translate(3330.52 -712.24) rotate(135)"/><rect class="cls-1" x="2605.91" y="1542.07" width="0.58" height="0.58" transform="translate(3331.62 -714.89) rotate(135)"/><rect class="cls-1" x="2607" y="1540.97" width="0.58" height="0.58" transform="translate(3332.71 -717.54) rotate(135)"/><rect class="cls-1" x="2608.1" y="1539.88" width="0.58" height="0.58" transform="translate(3333.72 -720.55) rotate(134.99)"/><rect class="cls-1" x="2609.2" y="1538.78" width="0.58" height="0.58" transform="translate(3335 -722.49) rotate(135.01)"/><rect class="cls-1" x="2610.3" y="1537.68" width="0.58" height="0.58" transform="translate(3336.01 -725.5) rotate(135)"/><rect class="cls-1" x="2611.4" y="1536.58" width="0.58" height="0.58" transform="translate(3337.11 -728.15) rotate(135)"/><rect class="cls-1" x="2612.5" y="1535.48" width="0.58" height="0.58" transform="translate(3338.11 -731.16) rotate(134.99)"/><rect class="cls-1" x="2613.6" y="1534.38" width="0.58" height="0.58" transform="translate(3339.31 -733.46) rotate(135)"/><rect class="cls-1" x="2614.7" y="1533.28" width="0.58" height="0.58" transform="translate(3340.5 -735.75) rotate(135.01)"/><rect class="cls-1" x="2615.79" y="1532.19" width="0.58" height="0.58" transform="translate(3341.5 -738.76) rotate(135)"/><rect class="cls-1" x="2616.89" y="1531.09" width="0.58" height="0.58" transform="translate(3342.6 -741.41) rotate(135)"/><rect class="cls-1" x="2617.99" y="1529.99" width="0.58" height="0.58" transform="translate(3343.51 -744.78) rotate(134.99)"/><rect class="cls-1" x="2619.09" y="1528.89" width="0.58" height="0.58" transform="translate(3344.8 -746.72) rotate(135)"/><polygon class="cls-1" points="331.95 39.27 330.54 36.81 329.12 34.36 331.95 34.36 334.79 34.36 333.37 36.81 331.95 39.27"/><polygon class="cls-1" points="331.95 51.2 329.79 47.45 327.63 43.71 331.95 43.71 336.28 43.71 334.12 47.45 331.95 51.2"/><polygon class="cls-1" points="331.95 65.6 329.08 60.62 326.2 55.64 331.95 55.64 337.7 55.64 334.83 60.62 331.95 65.6"/><g class="cls-53"><polygon class="cls-1" points="446.09 187.08 437.76 201.49 421.12 201.49 429.44 187.08 421.12 172.67 437.76 172.67 446.09 187.08"/></g><g class="cls-53"><polygon class="cls-1" points="234.47 187.08 242.79 201.49 226.15 201.49 217.82 187.08 226.15 172.67 242.79 172.67 234.47 187.08"/></g></g></g></svg>