<svg preserveAspectRatio="none" id="Layer_1" data-name="Layer 1" xmlns="http://www.w3.org/2000/svg" viewBox="0 0 107.09 107.57"><defs><style>.cls-1{fill:#02a6ff}</style></defs><circle id="_路径_" data-name="&lt;路径&gt;" class="cls-1" cx="53.53" cy="53.41" r="10.67"/><path id="_复合路径_" data-name="&lt;复合路径&gt;" class="cls-1" d="M1672.36 1938.78a34.53 34.53 0 1134.53-34.53 34.57 34.57 0 01-34.53 34.53zm0-67.18a32.65 32.65 0 1032.65 32.65 32.68 32.68 0 00-32.65-32.65z" transform="translate(-1618.84 -1850.84)"/><path id="_复合路径_2" data-name="&lt;复合路径&gt;" class="cls-1" d="M1672.36 1949.1a44.86 44.86 0 1144.86-44.86 44.91 44.91 0 01-44.86 44.86zm0-87.26a42.41 42.41 0 1042.41 42.41 42.46 42.46 0 00-42.41-42.41z" transform="translate(-1618.84 -1850.84)"/><path id="_复合路径_3" data-name="&lt;复合路径&gt;" class="cls-1" d="M1672.36 1958.4a53.74 53.74 0 01-44.94-24.69l-.06-.22 2.45-1.68.06-.07a50.39 50.39 0 0042.49 22.89h.85l.13.52v3.25h-1zm28.35-8.69l-1.56-2.47.09-.06a50.44 50.44 0 0023.77-42.94c0-1.11 0-2.26-.11-3.37l.09-.13 2.81-.19v.11c.08 1.19.11 2.39.11 3.58a53.55 53.55 0 01-25.14 45.41zm-81.82-43.56v.92-1c0-.56-.05-1.17-.05-1.79a53.56 53.56 0 0123.62-44.45h.08l1.62 2.41-.08.06a50.67 50.67 0 00-22.36 42v1.8zm95.06-30.81v-.08a50.75 50.75 0 00-41.55-21.66q-1.3 0-2.54.06l-.11.17-.15-2.78h.13c.85 0 1.71-.21 2.68-.21a53.63 53.63 0 0143.94 22.82h.06z" transform="translate(-1618.84 -1850.84)"/><circle id="_路径_2" data-name="&lt;路径&gt;" class="cls-1" cx="53.53" cy="53.41" r="10.67"/><path id="_复合路径_4" data-name="&lt;复合路径&gt;" class="cls-1" d="M1672.36 1938.78a34.53 34.53 0 1134.53-34.53 34.57 34.57 0 01-34.53 34.53zm0-67.18a32.65 32.65 0 1032.65 32.65 32.68 32.68 0 00-32.65-32.65z" transform="translate(-1618.84 -1850.84)"/><path id="_复合路径_5" data-name="&lt;复合路径&gt;" class="cls-1" d="M1672.36 1949.1a44.86 44.86 0 1144.86-44.86 44.91 44.91 0 01-44.86 44.86zm0-87.26a42.41 42.41 0 1042.41 42.41 42.46 42.46 0 00-42.41-42.41z" transform="translate(-1618.84 -1850.84)"/><path id="_复合路径_6" data-name="&lt;复合路径&gt;" class="cls-1" d="M1672.36 1958.4a53.74 53.74 0 01-44.94-24.69l-.06-.22 2.45-1.68.06-.07a50.39 50.39 0 0042.49 22.89h.85l.13.52v3.25h-1zm28.35-8.69l-1.56-2.47.09-.06a50.44 50.44 0 0023.77-42.94c0-1.11 0-2.26-.11-3.37l.09-.13 2.81-.19v.11c.08 1.19.11 2.39.11 3.58a53.55 53.55 0 01-25.14 45.41zm-81.82-43.56v.92-1c0-.56-.05-1.17-.05-1.79a53.56 53.56 0 0123.62-44.45h.08l1.62 2.41-.08.06a50.67 50.67 0 00-22.36 42v1.8zm95.06-30.81v-.08a50.75 50.75 0 00-41.55-21.66q-1.3 0-2.54.06l-.11.17-.15-2.78h.13c.85 0 1.71-.21 2.68-.21a53.63 53.63 0 0143.94 22.82h.06z" transform="translate(-1618.84 -1850.84)"/></svg>