<svg preserveAspectRatio="none" xmlns="http://www.w3.org/2000/svg" viewBox="0 0 16.78 17.01"><defs><style>.cls-2{fill:#00aeef}</style></defs><g style="isolation:isolate"><g id="Layer_1" data-name="Layer 1"><path class="cls-2" d="M491.17 35a8.73 8.73 0 01-5.74-5.19l1.41-.55a7.21 7.21 0 004.74 4.29zm7.6-1.44l-.91-1.2a7.18 7.18 0 00.93-10.6l1.11-1a8.69 8.69 0 01-1.13 12.84zM487.4 22.93l-1.29-.79a8.73 8.73 0 016.56-4.14l.15 1.5a7.22 7.22 0 00-5.42 3.43z" transform="translate(-485.43 -18.03)"/><circle class="cls-2" cx="8.09" cy="8.65" r="1.53"/><g style="mix-blend-mode:color-dodge"><path class="cls-2" d="M491.17 35a8.73 8.73 0 01-5.74-5.19l1.41-.55a7.21 7.21 0 004.74 4.29zm7.6-1.44l-.91-1.2a7.18 7.18 0 00.93-10.6l1.11-1a8.69 8.69 0 01-1.13 12.84zM487.4 22.93l-1.29-.79a8.73 8.73 0 016.56-4.14l.15 1.5a7.22 7.22 0 00-5.42 3.43z" transform="translate(-485.43 -18.03)"/><circle class="cls-2" cx="8.09" cy="8.65" r="1.53"/></g></g></g></svg>