<svg preserveAspectRatio="none" id="Layer_1" data-name="Layer 1" xmlns="http://www.w3.org/2000/svg" viewBox="0 0 200.59 221.63"><defs><style>.cls-1{fill:#76e5ff}.cls-2{fill:#ff6d00}</style></defs><path class="cls-1" d="M115.9 9.55l-1.32-.13.58-8.65 1.97.21-1.23 8.57zM122.64 11.08l-1.3-.27 1.48-8.54 1.94.41-2.12 8.4zM129.18 13.31l-1.26-.41 2.37-8.34 1.88.61-2.99 8.14zM135.46 16.2l-1.22-.54 3.23-8.04 1.81.81-3.82 7.77zM141.4 19.74l-1.15-.67 4.04-7.66 1.72.99-4.61 7.34zM41.15 56.68l-.28 1.3-8.54-1.48.41-1.94 8.41 2.12zM43.37 50.14l-.41 1.26-8.34-2.37.61-1.88 8.14 2.99zM46.27 43.86l-.54 1.21-8.05-3.22.8-1.81 7.79 3.82zM49.8 37.92l-.66 1.15-7.67-4.05.99-1.71 7.34 4.61zM53.94 32.38l-.78 1.08-7.2-4.83 1.16-1.6 6.82 5.35zM58.63 27.31l-.89.99-6.65-5.55 1.32-1.47 6.22 6.03zM63.83 22.76l-.99.89-6.03-6.22 1.47-1.32 5.55 6.65zM69.48 18.77l-1.08.78-5.35-6.82 1.6-1.16 4.83 7.2zM75.51 15.4l-1.15.66-4.61-7.34 1.71-.99 4.05 7.67zM81.86 12.67l-1.21.54-3.82-7.78 1.8-.8 3.23 8.04zM88.46 10.62l-1.26.41-2.99-8.13 1.88-.61 2.37 8.33zM95.24 9.28l-1.3.27-2.12-8.4 1.94-.41 1.48 8.54zM101.54 0l-1.97.21 1.23 8.57 1.32-.13-.58-8.65zM107.38.08l.33 8.66h1.32l.33-8.66h-1.98z"/><path class="cls-1" d="M1200.43 811.4a21 21 0 1012.33-27 21 21 0 00-12.33 27zm36.34-13.57a17.79 17.79 0 11-22.89-10.44 17.79 17.79 0 0122.89 10.44z" transform="translate(-1132.68 -635.12)"/><path class="cls-1" d="M75.97 171.1l.06.23-1.47.44-.09-.34 1.5-.33zM75.8 169.89l.04.23-1.51.29-.05-.35 1.52-.17zM75.77 168.67l.01.24-1.53.12-.02-.35 1.54-.01zM75.86 167.46l-.02.23-1.53-.04.02-.35 1.53.16zM76.08 166.25l-.04.24-1.52-.2.06-.35 1.5.31zM76.42 165.08l-.06.23-1.49-.36.09-.33 1.46.46zM76.88 163.95l-.08.22-1.45-.51.13-.32 1.4.61zM77.46 162.88l-.11.2-1.38-.65.16-.31 1.33.76zM78.15 161.87l-.13.19-1.31-.79.19-.3 1.25.9zM78.94 160.94l-.15.18-1.22-.93.23-.27 1.14 1.02zM79.82 160.09l-.17.17-1.11-1.05.25-.25 1.03 1.13zM80.79 159.35l-.19.14-.99-1.16.27-.22.91 1.24zM81.82 158.71l-.19.12-.87-1.26.29-.19.77 1.33zM82.72 158.28l.2-.11-.63-1.39-.31.16.74 1.34zM83.85 157.85l.22-.09-.48-1.45-.32.12.58 1.42zM85.26 157.47l-.23.06-.44-1.47.34-.08.33 1.49zM86.47 157.31l-.23.03-.28-1.5.34-.05.17 1.52zM87.69 157.27l-.23.01-.13-1.52.35-.02.01 1.53zM88.91 157.36l-.23-.01.03-1.53.35.02-.15 1.52zM90.11 157.58l-.23-.04.2-1.51.34.05-.31 1.5zM91.28 157.93l-.22-.07.35-1.49.34.1-.47 1.46zM92.41 158.39l-.22-.09.51-1.44.33.13-.62 1.4zM93.49 158.97l-.21-.11.65-1.39.31.17-.75 1.33zM94.5 159.66l-.2-.14.8-1.3.29.19-.89 1.25zM95.43 160.44l-.18-.14.92-1.22.27.22-1.01 1.14zM96.27 161.33l-.16-.17 1.05-1.11.24.25-1.13 1.03zM97.02 162.29l-.15-.18 1.16-1 .22.28-1.23.9zM97.66 163.33l-.13-.2 1.26-.87.19.3-1.32.77zM98.19 164.43l1.39-.63-.15-.31-1.35.73.11.21zM98.6 165.58l1.45-.48-.12-.33-1.41.59.08.22zM98.89 166.77l-.06-.23 1.47-.44.08.34-1.49.33zM99.05 167.98l-.03-.24 1.5-.28.05.35-1.52.17zM99.09 169.2l-.01-.24 1.52-.12.02.35-1.53.01zM99 170.41l.01-.23 1.53.04-.02.34-1.52-.15zM98.78 171.62l.04-.24 1.52.2-.06.35-1.5-.31zM98.44 172.79l.06-.23 1.49.36-.1.33-1.45-.46zM97.97 173.92l.09-.22 1.44.51-.12.32-1.41-.61zM97.39 174.99l.11-.21 1.39.66-.16.31-1.34-.76zM96.71 176l.13-.19 1.3.79-.19.3-1.24-.9zM95.92 176.93l.15-.18 1.21.93-.22.27-1.14-1.02zM95.04 177.78l.16-.17 1.12 1.05-.25.25-1.03-1.13zM94.07 178.52l.18-.14 1 1.16-.27.22-.91-1.24zM93.03 179.16l.2-.12.87 1.26-.3.19-.77-1.33zM92.56 181.09l.32-.16-.74-1.34-.21.1.63 1.4zM91.59 181.44l-.59-1.42-.22.09.48 1.45.33-.12zM89.59 180.4l.23-.06.44 1.46-.34.09-.33-1.49zM88.39 180.56l.23-.03.28 1.5-.35.05-.16-1.52zM87.16 180.6l.24-.01.12 1.52-.35.02-.01-1.53zM85.95 180.5l.23.02-.04 1.53-.34-.02.15-1.53zM84.75 180.29l.23.03-.2 1.52-.34-.06.31-1.49zM83.58 179.94l.22.07-.35 1.49-.34-.1.47-1.46zM82.44 179.48l.22.09-.5 1.44-.33-.13.61-1.4zM81.37 178.9l.21.11-.66 1.39-.31-.17.76-1.33zM80.36 178.21l.2.13-.8 1.31-.29-.19.89-1.25zM79.43 177.43l.18.14-.93 1.22-.27-.22 1.02-1.14zM78.59 176.54l.16.17-1.05 1.11-.25-.25 1.14-1.03zM77.84 175.58l.14.18-1.16 1-.21-.28 1.23-.9zM77.2 174.54l.13.2-1.27.86-.18-.29 1.32-.77zM75.27 174.07l.16.31 1.34-.73-.1-.21-1.4.63zM74.93 173.1l1.41-.59-.08-.22-1.46.48.13.33z"/><path class="cls-1" d="M1304.28 772.61a15 15 0 108.78-19.25 15 15 0 00-8.78 19.25zm25.88-9.67a12.67 12.67 0 11-16.3-7.44 12.67 12.67 0 0116.31 7.45z" transform="translate(-1132.68 -635.12)"/><path class="cls-1" d="M177.46 133.8l.04.17-1.05.31-.06-.24 1.07-.24zM177.34 132.94l.02.17-1.07.2-.03-.25 1.08-.12zM177.31 132.07l.01.17-1.08.09-.02-.25 1.09-.01zM177.38 131.21l-.01.16-1.09-.02.02-.25 1.08.11zM177.53 130.35l-.02.16-1.08-.13.04-.25 1.06.22zM177.78 129.52l-.04.16-1.07-.26.07-.23 1.04.33zM178.11 128.71l-.06.16-1.03-.37.09-.23 1 .44zM178.52 127.94l-.08.15-.98-.46.11-.22.95.53zM179.01 127.23l-.09.14-.93-.57.14-.21.88.64zM179.57 126.56l-.1.13-.87-.66.16-.19.81.72zM180.2 125.96l-.12.12-.79-.75.18-.17.73.8zM180.89 125.43l-.13.1-.71-.82.19-.16.65.88zM181.63 124.97l-.14.09-.62-.89.21-.14.55.94zM182.26 124.67l.15-.07-.45-1-.22.11.52.96zM183.07 124.36l.16-.06-.34-1.03-.23.09.41 1zM184.08 124.1l-.17.04-.31-1.05.24-.06.24 1.07zM184.94 123.98l-.17.02-.2-1.07.25-.03.12 1.08zM185.81 123.95l-.17.01-.09-1.09.25-.01.01 1.09zM186.68 124.02l-.17-.01.02-1.09.25.02-.1 1.08zM187.53 124.17l-.16-.02.14-1.09.24.05-.22 1.06zM188.37 124.42l-.17-.05.26-1.06.24.07-.33 1.04zM189.17 124.75l-.16-.06.37-1.03.23.09-.44 1zM189.94 125.16l-.15-.08.47-.98.21.11-.53.95zM190.65 125.65l-.14-.09.57-.93.21.14-.64.88zM191.32 126.21l-.13-.1.66-.87.19.16-.72.81zM191.92 126.84l-.12-.12.75-.79.17.18-.8.73zM192.45 127.53l-.11-.13.83-.71.16.2-.88.64zM192.91 128.27l-.09-.14.89-.62.14.21-.94.55zM193.28 129.05l1-.45-.11-.22-.96.52.07.15zM193.58 129.87l1.03-.34-.08-.23-1.01.42.06.15zM193.78 130.72l-.04-.16 1.05-.32.06.24-1.07.24zM193.9 131.58l-.02-.17 1.07-.2.03.25-1.08.12zM193.93 132.45l-.01-.17 1.09-.09.01.25-1.09.01zM193.86 133.31l.01-.16 1.09.02-.01.25-1.09-.11zM193.71 134.17l.02-.17 1.08.15-.04.24-1.06-.22zM193.46 135.01l.05-.17 1.06.26-.07.24-1.04-.33zM193.13 135.81l.06-.16 1.03.37-.09.23-1-.44zM192.72 136.57l.08-.14.98.46-.11.23-.95-.55zM192.23 137.29l.09-.13.93.56-.13.21-.89-.64zM191.67 137.96l.1-.13.87.66-.16.19-.81-.72zM191.04 138.56l.12-.12.79.75-.18.17-.73-.8zM190.35 139.09l.13-.1.71.82-.19.16-.65-.88zM189.61 139.55l.14-.09.62.89-.21.14-.55-.94zM189.28 140.92l.22-.11-.52-.96-.15.07.45 1zM188.59 141.17l-.42-1.01-.16.06.34 1.03.24-.08zM187.16 140.42l.17-.04.31 1.05-.24.06-.24-1.07zM186.3 140.54l.17-.02.2 1.07-.25.03-.12-1.08zM185.43 140.56h.17l.09 1.09-.25.01-.01-1.1zM184.56 140.5l.17.01-.02 1.09-.25-.01.1-1.09zM183.71 140.35l.17.02-.15 1.09-.24-.05.22-1.06zM182.88 140.1l.16.05-.26 1.06-.24-.07.34-1.04zM182.07 139.77l.16.06-.37 1.03-.23-.09.44-1zM181.31 139.36l.14.08-.46.98-.22-.11.54-.95zM180.59 138.87l.13.09-.56.93-.21-.14.64-.88zM179.92 138.31l.13.1-.66.87-.19-.16.72-.81zM179.32 137.68l.12.12-.75.79-.17-.18.8-.73zM178.79 136.99l.1.13-.82.71-.16-.19.88-.65zM178.33 136.25l.09.14-.89.62-.14-.21.94-.55zM176.96 135.92l.11.22.96-.52-.07-.15-1 .45zM176.72 135.22l1-.41-.06-.16-1.03.34.09.23zM76.47 84.71l.16.6-3.89 1.16-.23-.89 3.96-.87zM76.04 81.5l.09.62-3.99.74-.14-.91 4.04-.45zM75.94 78.27l.03.62-4.05.33-.04-.93 4.06-.02zM76.18 75.04l-.04.62-4.05-.1.05-.92 4.04.4zM76.76 71.86l-.1.61-4.03-.52.16-.92 3.97.83zM77.67 68.75l-.17.6-3.94-.94.24-.89 3.87 1.23zM78.9 65.75l-.23.58-3.83-1.34.34-.86 3.72 1.62zM80.43 62.9l-.29.55-3.67-1.73.43-.82 3.53 2zM82.25 60.23l-.34.52-3.46-2.11.51-.78 3.29 2.37zM84.35 57.76l-.4.48-3.22-2.46.58-.72 3.04 2.7zM86.69 55.53l-.45.43-2.95-2.79.66-.64 2.74 3zM89.25 53.55l-.49.38-2.64-3.08.72-.57 2.41 3.27zM92 51.85l-.53.33-2.3-3.34.78-.5L92 51.85zM94.36 50.72l.56-.28-1.68-3.7-.82.42 1.94 3.56zM97.38 49.57l.58-.22-1.27-3.85-.87.32 1.56 3.75zM101.11 48.58l-.61.16-1.16-3.89.9-.23.87 3.96zM104.31 48.15l-.61.09-.75-3.99.92-.13.44 4.03zM107.55 48.05l-.62.03-.33-4.05.93-.04.02 4.06zM110.78 48.29l-.62-.03.09-4.06.93.06-.4 4.03zM113.96 48.87l-.61-.1.52-4.03.91.16-.82 3.97zM117.07 49.78l-.6-.17.94-3.94.89.24-1.23 3.87zM120.06 51.01l-.58-.23 1.35-3.83.86.34-1.63 3.72zM122.91 52.54l-.55-.28 1.74-3.67.82.43-2.01 3.52zM125.58 54.37l-.51-.35 2.11-3.46.77.51-2.37 3.3zM128.06 56.46l-.49-.4 2.47-3.22.71.59-2.69 3.03zM130.29 58.8l-.44-.45 2.79-2.95.65.66-3 2.74zM132.27 61.36l-.39-.49 3.08-2.64.58.72-3.27 2.41zM133.97 64.11l-.34-.52 3.34-2.31.5.78-3.5 2.05zM135.37 67.03l3.7-1.67-.41-.83-3.56 1.94.27.56zM136.47 70.07l3.85-1.27-.33-.87-3.74 1.56.22.58zM137.23 73.22l-.15-.6 3.89-1.17.23.9-3.97.87zM137.67 76.43l-.1-.62 3.99-.75.14.92-4.03.45zM137.76 79.66l-.02-.62 4.04-.33.04.93-4.06.02zM137.52 82.89l.04-.62 4.06.09-.06.93-4.04-.4zM136.94 86.07l.11-.61 4.02.52-.15.91-3.98-.82zM136.03 89.18l.17-.6 3.95.94-.25.89-3.87-1.23zM134.81 92.17l.23-.57 3.82 1.34-.33.86-3.72-1.63zM133.27 95.02l.29-.55 3.67 1.74-.43.82-3.53-2.01zM131.45 97.7l.34-.52 3.47 2.11-.51.77-3.3-2.36zM129.36 100.17l.39-.48 3.23 2.46-.59.71-3.03-2.69zM127.02 102.4l.44-.43 2.95 2.78-.66.65-2.73-3zM124.46 104.38l.48-.39 2.65 3.08-.73.58-2.4-3.27zM121.7 106.08l.53-.33 2.3 3.34-.78.49-2.05-3.5zM120.46 111.18l.83-.41-1.95-3.56-.55.27 1.67 3.7zM117.88 112.11l-1.55-3.75-.59.22 1.28 3.85.86-.32zM112.6 109.34l.6-.15 1.16 3.89-.9.23-.86-3.97zM109.39 109.78l.62-.09.74 3.98-.91.14-.45-4.03zM106.15 109.88l.63-.03.32 4.04-.92.04-.03-4.05zM102.93 109.63l.62.04-.1 4.06-.92-.06.4-4.04zM99.74 109.06l.62.1-.52 4.02-.92-.15.82-3.97zM96.64 108.15l.59.16-.93 3.95-.89-.25 1.23-3.86zM93.64 106.92l.58.23-1.34 3.83-.87-.34 1.63-3.72zM90.79 105.39l.55.28-1.73 3.67-.83-.43 2.01-3.52zM88.12 103.56l.52.35-2.12 3.46-.77-.51 2.37-3.3zM85.65 101.47l.48.39-2.46 3.23-.72-.59 2.7-3.03zM83.42 99.13l.43.44-2.79 2.95-.65-.66 3.01-2.73zM81.43 96.57l.39.49-3.08 2.64-.57-.73 3.26-2.4zM79.73 93.81l.34.53-3.34 2.31-.5-.79 3.5-2.05zM74.63 92.57l.42.83 3.56-1.94-.28-.56-3.7 1.67zM73.71 90l3.75-1.56-.22-.59-3.85 1.28.32.87z"/><path class="cls-1" d="M1199.58 729a42.64 42.64 0 1025-54.87 42.64 42.64 0 00-25 54.87zm78-29.14a40.64 40.64 0 11-52.27-23.86 40.64 40.64 0 0152.29 23.86zM1223.31 782.74a.57.57 0 010 .35l-.08.27a.57.57 0 11-1.09-.31l.08-.27a.57.57 0 011.09-.04z" transform="translate(-1132.68 -635.12)"/><path class="cls-1" d="M1230.74 756.77a.56.56 0 010 .35l-.15.52a.57.57 0 01-1.09-.31l.15-.52a.57.57 0 011.09-.04zm-.74 2.6a.57.57 0 010 .35l-.15.52a.57.57 0 01-1.09-.31l.15-.52a.57.57 0 011.09-.05zm-.74 2.6a.57.57 0 010 .35l-.15.52a.57.57 0 01-1.09-.31l.15-.52a.57.57 0 011.08-.01zm-.74 2.6a.56.56 0 010 .35l-.15.52a.57.57 0 01-1.09-.31l.15-.52a.57.57 0 011.08-.05zm-.74 2.6a.57.57 0 010 .35l-.15.52a.57.57 0 01-1.09-.31l.15-.52a.57.57 0 01.7-.39.57.57 0 01.38.34zm-.74 2.6a.57.57 0 010 .35l-.15.52a.57.57 0 11-1.09-.31l.15-.52a.57.57 0 011.05-.06zm-.74 2.6a.56.56 0 010 .35l-.15.52a.57.57 0 11-1.09-.31l.15-.52a.57.57 0 011.07-.06zm-.74 2.6a.56.56 0 010 .35l-.15.52a.57.57 0 01-1.09-.31l.15-.52a.57.57 0 011.07-.06zm-.74 2.6a.57.57 0 010 .35l-.15.52a.57.57 0 11-1.09-.31l.15-.52a.57.57 0 011.07-.06zm-.74 2.6a.56.56 0 010 .35l-.15.52a.57.57 0 01-1.09-.31l.15-.52a.57.57 0 011.07-.07zM1231.41 754.42a.57.57 0 010 .35l-.08.27a.57.57 0 01-1.09-.31l.08-.27a.57.57 0 011.09-.04zM1308.65 758.46a.57.57 0 01-.84.67l-.24-.15a.57.57 0 11.61-1l.24.15a.56.56 0 01.23.33zM1306.48 757.06a.56.56 0 01-.84.67l-.48-.31a.57.57 0 11.61-1l.48.31a.56.56 0 01.23.33zm-2.41-1.56a.57.57 0 01-.84.68l-.48-.31a.57.57 0 11.61-1l.48.31a.56.56 0 01.22.33zm-2.41-1.55a.57.57 0 01-.84.68l-.48-.31a.57.57 0 01.61-1l.48.31a.57.57 0 01.22.37zm-2.41-1.55a.57.57 0 01-.84.67l-.48-.31a.57.57 0 01.61-1l.48.31a.55.55 0 01.22.33zm-2.41-1.55a.57.57 0 01-.84.67l-.48-.31a.57.57 0 11.61-1l.48.31a.56.56 0 01.22.33zm-2.41-1.55a.57.57 0 01-.84.67l-.48-.31a.57.57 0 01.61-1l.48.31a.56.56 0 01.21.32zm-2.41-1.55a.57.57 0 01-.84.67l-.48-.31a.57.57 0 01.61-1l.48.31a.55.55 0 01.21.32zm-2.41-1.55a.56.56 0 01-.05.5.57.57 0 01-.78.17l-.48-.31a.57.57 0 11.61-1l.48.31a.57.57 0 01.2.32zm-2.41-1.55a.57.57 0 01-.84.67l-.48-.31a.57.57 0 11.61-1l.48.31a.56.56 0 01.21.31zm-2.41-1.55a.57.57 0 01-.84.67l-.48-.31a.57.57 0 01.61-1l.48.31a.56.56 0 01.2.31zm-2.41-1.55a.57.57 0 01-.84.67l-.48-.31a.57.57 0 01.61-1l.48.31a.57.57 0 01.2.3zm-2.41-1.55a.57.57 0 01-.84.68l-.48-.31a.57.57 0 01.61-1l.48.31a.56.56 0 01.2.32zm-2.41-1.55a.57.57 0 01-.84.67l-.48-.31a.57.57 0 01.61-1l.48.31a.57.57 0 01.19.29zM1275.11 736.86a.56.56 0 01-.84.67l-.24-.15a.57.57 0 11.61-1l.24.15a.58.58 0 01.23.33zM1162.27 827.76a15 15 0 108.78 19.25 15 15 0 00-8.78-19.25zm-.8 2.15a12.67 12.67 0 11-16.3 7.44 12.67 12.67 0 0116.3-7.44z" transform="translate(-1132.68 -635.12)"/><path class="cls-1" d="M32.52 208.2l-.04.17 1.04.31.07-.24-1.07-.24zM32.64 207.34l-.03.17 1.07.2.04-.25-1.08-.12zM32.66 206.47v.17l1.08.09.01-.25-1.09-.01zM32.6 205.6l.01.17 1.09-.02-.02-.25-1.08.1zM32.44 204.75l.03.16 1.08-.14-.04-.24-1.07.22zM32.2 203.91l.04.16 1.06-.25-.06-.24-1.04.33zM31.87 203.11l.06.15 1.03-.36-.09-.23-1 .44zM31.46 202.34l.07.15.99-.47-.11-.21-.95.53zM30.97 201.63l.09.14.93-.57-.14-.21-.88.64zM30.41 200.96l.1.13.87-.66-.16-.19-.81.72zM29.78 200.36l.11.12.8-.75-.18-.17-.73.8zM29.09 199.83l.13.1.71-.83-.2-.15-.64.88zM28.35 199.37l.14.09.62-.9-.21-.13-.55.94zM27.71 199.07l-.14-.07.44-1 .22.11-.52.96zM26.9 198.76l-.15-.06.34-1.03.23.08-.42 1.01zM25.9 198.5l.16.04.32-1.05-.25-.06-.23 1.07zM25.04 198.38l.16.02.21-1.07-.25-.03-.12 1.08zM24.17 198.35l.17.01.09-1.09-.25-.01-.01 1.09zM23.3 198.42l.17-.01-.03-1.09-.24.01.1 1.09zM22.45 198.57l.16-.02-.14-1.08-.24.04.22 1.06zM21.61 198.82l.16-.05-.25-1.06-.24.07.33 1.04zM20.81 199.15l.15-.06-.36-1.03-.23.09.44 1zM20.04 199.56l.15-.08-.47-.98-.22.11.54.95zM19.32 200.05l.14-.09-.57-.93-.2.13.63.89zM18.66 200.61l.13-.1-.66-.87-.2.16.73.81zM18.06 201.24l.12-.12-.75-.79-.18.18.81.73zM17.53 201.93l.1-.13-.83-.71-.15.19.88.65zM17.07 202.67l.09-.14-.9-.62-.13.21.94.55zM16.69 203.45l-.99-.45.11-.22.96.52-.08.15zM16.4 204.27l-1.03-.34.08-.24 1.01.42-.06.16zM16.19 205.12l.05-.17-1.05-.31-.06.24 1.06.24zM16.08 205.98l.02-.17-1.07-.2-.04.25 1.09.12zM16.05 206.85l.01-.17-1.09-.09-.01.25 1.09.01zM16.12 207.71l-.01-.16-1.09.02.01.25 1.09-.11zM16.27 208.57l-.03-.17-1.08.14.04.25 1.07-.22zM16.52 209.4l-.05-.16-1.06.26.07.24 1.04-.34zM16.84 210.21l-.06-.16-1.02.36.09.24.99-.44zM17.26 210.97l-.08-.14-.98.46.11.22.95-.54zM17.75 211.69l-.09-.13-.94.56.14.21.89-.64zM18.31 212.36l-.11-.13-.86.66.16.19.81-.72zM18.94 212.96l-.12-.12-.79.75.17.17.74-.8zM19.63 213.49l-.13-.11-.71.83.19.16.65-.88zM20.37 213.95l-.14-.09-.62.89.21.14.55-.94zM20.7 215.32l-.22-.11.52-.96.15.07-.45 1zM21.39 215.56l.42-1 .16.06-.34 1.03-.24-.09zM22.81 214.82l-.16-.04-.31 1.05.24.06.23-1.07zM23.68 214.94l-.17-.02-.2 1.07.24.03.13-1.08zM24.55 214.97l-.17-.01-.09 1.08.25.02.01-1.09zM25.41 214.9l-.16.01.02 1.09.25-.01-.11-1.09zM26.27 214.75l-.17.02.14 1.08.25-.04-.22-1.06zM27.1 214.5l-.16.05.25 1.05.24-.06-.33-1.04zM27.91 214.17l-.16.06.36 1.03.23-.09-.43-1zM28.67 213.76l-.15.08.47.98.22-.11-.54-.95zM29.39 213.27l-.14.09.57.93.21-.14-.64-.88zM30.05 212.71l-.12.1.66.87.19-.16-.73-.81zM30.66 212.08l-.12.12.75.79.17-.18-.8-.73zM31.19 211.39l-.11.13.83.71.16-.19-.88-.65zM31.64 210.65l-.09.14.9.62.14-.21-.95-.55zM33.02 210.32l-.11.22-.96-.52.07-.15 1 .45zM33.26 209.62l-1-.42.05-.15 1.04.34-.09.23z"/><path class="cls-2" d="M1174.54 756.11a21 21 0 10-23.4 18.3 21 21 0 0023.4-18.3zm-3.2-.39a17.79 17.79 0 11-15.49-19.82 17.78 17.78 0 0115.49 19.82z" transform="translate(-1132.68 -635.12)"/><path class="cls-2" d="M21.58 130.09h-.24l-.08 1.53h.35l-.03-1.53zM22.79 129.97l-.23.02.07 1.53.35-.03-.19-1.52zM23.99 129.72l-.23.04.23 1.51.35-.06-.35-1.49zM25.15 129.35l-.22.06.39 1.48.33-.1-.5-1.44zM26.27 128.85l-.22.1.55 1.43.32-.14-.65-1.39zM27.33 128.25l-.21.11.69 1.37.31-.17-.79-1.31zM28.32 127.53l-.2.14.84 1.28.28-.2-.92-1.22zM29.23 126.72l-.18.15.96 1.19.26-.22-1.04-1.12zM30.05 125.81l-.16.18 1.08 1.08.24-.26-1.16-1zM30.77 124.83l-.14.19 1.19.96.2-.28-1.25-.87zM31.38 123.77l-.12.2 1.28.84.18-.29-1.34-.75zM31.88 122.66l-.1.21 1.37.7.15-.32-1.42-.59zM32.26 121.5l-.07.22 1.43.56.11-.34-1.47-.44zM32.47 120.54l.05-.23 1.51.29-.08.34-1.48-.4zM32.63 119.33l.03-.24 1.52.13-.04.35-1.51-.24zM32.66 117.87v.24l1.52.08.01-.35-1.53.03zM32.54 116.66l.02.23 1.53-.07-.04-.35-1.51.19zM32.29 115.46l.04.23 1.51-.23-.06-.35-1.49.35zM31.91 114.3l.07.22 1.48-.39-.1-.33-1.45.5zM31.42 113.18l.09.22 1.43-.55-.13-.32-1.39.65zM30.81 112.12l.12.21 1.37-.69-.17-.31-1.32.79zM30.1 111.13l.14.2 1.28-.84-.2-.28-1.22.92zM29.29 110.22l.15.18 1.19-.96-.23-.26-1.11 1.04zM28.38 109.4l.17.16 1.09-1.08-.25-.23-1.01 1.15zM27.4 108.68l.19.14.96-1.18-.28-.22-.87 1.26zM26.34 108.07l.2.12.84-1.28-.3-.19-.74 1.35zM25.23 107.57l.21.1.7-1.37-.32-.14-.59 1.41zM24.07 107.19l.22.07.55-1.43-.33-.11-.44 1.47zM22.88 106.93l.29-1.51.33.08-.39 1.48-.23-.05zM21.66 106.8l.13-1.53.35.04-.25 1.51-.23-.02zM20.44 106.79h.24l.08-1.52-.35-.01.03 1.53zM19.23 106.91l.23-.02-.08-1.53-.34.03.19 1.52zM18.03 107.16l.23-.04-.23-1.51-.35.06.35 1.49zM16.87 107.54l.22-.07-.39-1.48-.33.1.5 1.45zM15.75 108.03l.22-.09-.55-1.43-.32.13.65 1.39zM14.69 108.64l.21-.12-.69-1.36-.31.17.79 1.31zM13.7 109.35l.19-.13-.83-1.29-.28.2.92 1.22zM12.79 110.16l.18-.15-.96-1.19-.27.23 1.05 1.11zM11.97 111.07l.16-.17-1.08-1.09-.24.26 1.16 1zM11.25 112.05l.14-.19-1.19-.96-.21.28 1.26.87zM10.64 113.11l.12-.2-1.29-.84-.17.3 1.34.74zM10.13 114.22l.1-.21-1.36-.7-.15.32 1.41.59zM9.75 115.38l.08-.22-1.43-.55-.11.33 1.46.44zM7.99 116.28l.08-.34 1.48.4-.05.23-1.51-.29zM7.88 117.31l1.51.24-.03.24-1.52-.13.04-.35zM9.36 119.01v-.24l-1.53-.08v.35l1.53-.03zM9.48 120.22l-.02-.23-1.53.08.03.34 1.52-.19zM9.73 121.42l-.04-.23-1.51.23.06.35 1.49-.35zM10.11 122.58l-.08-.22-1.47.39.1.33 1.45-.5zM10.6 123.7l-.09-.22-1.44.55.14.32 1.39-.65zM11.2 124.76l-.11-.21-1.37.69.17.31 1.31-.79zM11.92 125.75l-.14-.19-1.28.83.2.28 1.22-.92zM12.73 126.66l-.15-.18-1.2.96.24.26 1.11-1.04zM13.63 127.48l-.17-.16-1.08 1.08.25.24 1-1.16zM14.62 128.2l-.19-.14-.96 1.19.28.21.87-1.26zM15.68 128.81l-.21-.12-.83 1.29.3.18.74-1.35zM16.79 129.31l-.21-.09-.7 1.36.32.15.59-1.42zM17.95 129.7l-.22-.08-.55 1.43.33.11.44-1.46zM18.85 131.46l-.34-.08.4-1.48.23.06-.29 1.5zM19.88 131.57l.24-1.51.24.03-.13 1.52-.35-.04z"/><path class="cls-2" d="M1171.43 740.68a.57.57 0 00-.35.07l-.25.14a.57.57 0 00.56 1l.25-.14a.57.57 0 00-.21-1.07zM1195.38 727.69a.57.57 0 01-.21.77l-.47.26a.57.57 0 11-.56-1l.47-.27a.57.57 0 01.77.24zM1193 729a.57.57 0 01-.21.77l-.47.27a.57.57 0 11-.56-1l.47-.26a.56.56 0 01.77.22zm-2.35 1.33a.57.57 0 01-.21.77l-.47.26a.57.57 0 01-.56-1l.47-.27a.57.57 0 01.8.25zm-2.35 1.33a.56.56 0 01-.21.77l-.47.27a.57.57 0 11-.56-1l.47-.26a.56.56 0 01.79.23zM1186 733a.57.57 0 01-.21.77l-.47.27a.57.57 0 11-.56-1l.47-.27a.57.57 0 01.77.23zm-2.35 1.33a.57.57 0 01-.21.77l-.47.27a.57.57 0 11-.56-1l.47-.26a.56.56 0 01.74.22zm-2.35 1.33a.57.57 0 01-.21.77l-.47.26a.57.57 0 11-.56-1l.47-.26a.56.56 0 01.74.22zm-2.35 1.33a.57.57 0 01-.21.77l-.47.27a.57.57 0 01-.56-1l.47-.27a.57.57 0 01.73.24zm-2.35 1.33a.57.57 0 01-.21.77l-.47.26a.57.57 0 11-.56-1l.47-.27a.57.57 0 01.73.23zm-2.35 1.33a.57.57 0 01-.21.77l-.47.26a.57.57 0 01-.56-1l.47-.27a.57.57 0 01.73.23zM1197.08 726.2a.56.56 0 00-.35.07l-.25.14a.57.57 0 10.56 1l.25-.14a.57.57 0 00-.21-1.07z" transform="translate(-1132.68 -635.12)"/><path class="cls-1" d="M1166.69 832.86a.57.57 0 00.84.67l.24-.15a.57.57 0 00-.61-1l-.24.15a.55.55 0 00-.23.33zM1169.08 831.18l.48-.31a.57.57 0 11.61 1l-.48.31a.57.57 0 01-.61-1zm2.41-1.55l.48-.31a.57.57 0 11.61 1l-.48.31a.57.57 0 01-.84-.68.56.56 0 01.23-.32zm2.41-1.55l.48-.31a.57.57 0 01.61 1l-.48.31a.57.57 0 01-.84-.68.56.56 0 01.23-.32zm2.41-1.55l.48-.31a.57.57 0 01.78.17.56.56 0 01-.17.78l-.48.31a.57.57 0 11-.61-.96zm2.41-1.55l.48-.31a.57.57 0 11.61 1l-.48.31a.57.57 0 01-.84-.67.56.56 0 01.24-.31zm2.41-1.55l.48-.31a.57.57 0 01.61 1l-.48.31a.57.57 0 01-.84-.67.55.55 0 01.24-.35zm2.41-1.55l.48-.31a.57.57 0 11.61 1l-.48.31a.57.57 0 01-.84-.67.55.55 0 01.24-.35zm2.41-1.55l.48-.31a.57.57 0 11.61 1l-.48.31a.57.57 0 01-.78-.17.57.57 0 01.22-.85zm2.41-1.55l.48-.31a.57.57 0 11.61 1l-.48.31a.57.57 0 11-.59-1.03zm2.41-1.55l.48-.31a.57.57 0 01.61 1l-.48.31a.57.57 0 01-.83-.67.56.56 0 01.24-.36zm2.41-1.55l.48-.31a.57.57 0 11.61 1l-.48.31a.57.57 0 01-.84-.67.56.56 0 01.25-.36zm2.41-1.56l.48-.31a.57.57 0 01.61 1l-.48.31a.57.57 0 01-.58-1.03zm2.41-1.55l.48-.31a.57.57 0 01.61 1l-.48.31a.57.57 0 01-.61-1.03zM1200.22 811.26a.56.56 0 00.84.67l.24-.15a.57.57 0 10-.61-1l-.24.15a.57.57 0 00-.23.33z" transform="translate(-1132.68 -635.12)"/></svg>