<svg preserveAspectRatio="none" xmlns="http://www.w3.org/2000/svg" viewBox="0 0 13.04 17.38"><defs><style>.cls-1{isolation:isolate;}.cls-2{fill:#00aeef;}.cls-3{mix-blend-mode:color-dodge;}</style></defs><title>shape15</title><g class="cls-1"><g id="Layer_1" data-name="Layer 1"><path class="cls-2" d="M549.65,36.5a8.69,8.69,0,0,1-4.35-1.16L546.07,34a7.18,7.18,0,1,0,0-12.44l-0.76-1.31A8.69,8.69,0,1,1,549.65,36.5Z" transform="translate(-545.31 -19.12)"/><circle class="cls-2" cx="4.35" cy="8.69" r="1.53"/><g class="cls-3"><path class="cls-2" d="M549.65,36.5a8.69,8.69,0,0,1-4.35-1.16L546.07,34a7.18,7.18,0,1,0,0-12.44l-0.76-1.31A8.69,8.69,0,1,1,549.65,36.5Z" transform="translate(-545.31 -19.12)"/><circle class="cls-2" cx="4.35" cy="8.69" r="1.53"/></g></g></g></svg>