<svg preserveAspectRatio="none" id="央铋_1" data-name="央铋 1" xmlns="http://www.w3.org/2000/svg" viewBox="0 0 52.75 52.75"><defs><style>.cls-1{fill:#006379}</style></defs><path class="cls-1" d="M300.71 145a26.38 26.38 0 1126.37-26.38A26.4 26.4 0 01300.71 145zm0-51.75a25.38 25.38 0 1025.37 25.38 25.4 25.4 0 00-25.37-25.4z" transform="translate(-274.34 -92.23)"/><path class="cls-1" d="M300.71 142.47a23.87 23.87 0 1123.87-23.87 23.89 23.89 0 01-23.87 23.87zm0-43.73a19.87 19.87 0 1019.87 19.87 19.89 19.89 0 00-19.87-19.87z" transform="translate(-274.34 -92.23)"/><path class="cls-1" d="M300.73 137.29v-3h.91l.17 3h-1.08zm-1.09 0q-.54 0-1.08-.09l.34-3 .91.08zm3.25-.1l-.34-3 .9-.13.52 3q-.54.04-1.08.1zm-5.41-.15q-.54-.09-1.06-.22l.68-2.92.9.18zm7.55-.22l-.69-2.92.88-.24.86 2.87q-.52.13-1.08.26zm-9.66-.28q-.52-.16-1-.34l1-2.82.87.29zm11.75-.35l-1-2.82.84-.33 1.19 2.75q-.52.21-1.04.38zm-13.79-.4q-.5-.22-1-.46l1.35-2.68q.41.2.83.39zm15.78-.47l-1.35-2.68q.41-.21.8-.43l1.5 2.6q-.47.25-.95.49zm-17.73-.51q-.47-.27-.92-.57l1.65-2.51q.38.25.78.48zm19.61-.58l-1.65-2.5q.38-.25.75-.52l1.79 2.41-.88.6zm-21.43-.62q-.44-.33-.85-.68l1.93-2.3q.35.29.71.57zm23.17-.68l-1.93-2.3q.35-.29.68-.61l2.06 2.18q-.4.37-.81.72zm-24.83-.72q-.4-.37-.77-.77l2.18-2.06q.31.33.64.64zm26.41-.77l-2.18-2.06q.31-.33.61-.68l2.29 1.93q-.35.37-.73.8zm-27.9-.81q-.35-.42-.68-.85l2.41-1.79q.27.36.56.71zm29.3-.86l-2.4-1.8q.27-.36.52-.75l2.51 1.65q-.34.46-.64.9zm-30.6-.88q-.3-.45-.57-.92l2.6-1.5q.23.39.48.77zm31.79-.89l-2.6-1.5q.23-.39.43-.8l2.68 1.35q-.24.43-.51.95zm-32.9-1q-.24-.48-.46-1l2.75-1.19q.18.42.39.82zm33.86-1l-2.75-1.19q.18-.42.34-.85l2.82 1q-.18.55-.39 1.04zm-34.72-1q-.19-.51-.34-1l2.87-.86q.13.44.29.87zm35.48-1l-2.87-.86q.13-.44.24-.88l2.92.69q-.13.49-.29 1.05zm-36.09-1q-.13-.53-.22-1.07l3-.52q.08.45.18.89zm36.59-1.08l-3-.52q.08-.45.13-.9l3 .34q-.04.47-.13 1.01zm-37-1.06q-.06-.54-.09-1.08l3-.17q0 .46.08.91zm37.22-1.11l-3-.17v-.91h3c.06.33.05.66.03 1.02zM282 118.62v-1.06l3 .17v.9zm34.35-1q0-.46-.08-.91l3-.35q.06.54.1 1.08zm-31.24-.86l-3-.34q.06-.54.15-1.07l3 .51q-.08.48-.13.94zm31-1q-.08-.45-.19-.89l2.92-.7q.13.53.22 1.06zm-30.67-.76l-2.92-.69q.12-.53.28-1l2.88.85q-.13.4-.24.84zm30.29-.93q-.13-.44-.29-.87l2.82-1q.19.51.34 1zm-29.73-.81l-2.82-1q.19-.51.4-1l2.76 1.18q-.22.38-.34.82zm29.15-.89q-.18-.42-.39-.83l2.68-1.35q.24.48.46 1zm-28.43-.78l-2.72-1.36q.25-.49.52-1l2.6 1.5q-.23.44-.44.85zm27.61-.84q-.23-.39-.48-.78l2.5-1.66q.3.45.57.92zM287.6 110l-2.51-1.65q.3-.45.62-.89l2.41 1.79q-.27.36-.52.75zm25.69-.78q-.27-.37-.57-.71l2.29-1.94c.23.28.46.56.68.85zm-24.6-.68l-2.3-1.93q.35-.42.72-.81l2.19 2.05q-.3.33-.61.68zm23.42-.71q-.32-.33-.65-.65l2.05-2.19q.4.37.77.77zm-22.17-.62l-2.06-2.21q.4-.37.81-.72l1.93 2.3q-.35.31-.68.62zm20.84-.63q-.35-.3-.72-.57l1.79-2.41c.29.22.57.44.85.67zm-19.45-.58l-1.8-2.4q.43-.32.89-.62l1.66 2.5q-.38.28-.75.52zm18-.55q-.38-.25-.78-.48l1.5-2.6q.47.27.92.57zm-16.47-.45l-1.51-2.59q.47-.27 1-.52l1.35 2.68-.84.43zm14.88-.45l-.83-.39 1.19-2.76q.5.22 1 .46zm-13.25-.37l-1.19-2.75q.5-.22 1-.4l1 2.82zm11.58-.35l-.87-.29.86-2.88q.52.16 1 .34zm-9.87-.27l-.87-2.87q.52-.16 1.05-.28l.69 2.92zm8.12-.25l-.89-.18.51-3c.36.06.71.13 1.07.22zm-6.35-.17l-.52-3q.53-.09 1.07-.16l.35 3zm4.55-.14l-.91-.08.17-3q.54 0 1.08.09zm-2.74-.07l-.18-3h1.09v3z" transform="translate(-274.34 -92.23)"/></svg>