<svg preserveAspectRatio="none" id="Layer_1" data-name="Layer 1" xmlns="http://www.w3.org/2000/svg" viewBox="0 0 122.86 153.53"><defs><style>.cls-1{opacity:0.6;}.cls-2{fill:#00aeef;}</style></defs><title>shape11</title><g class="cls-1"><path class="cls-2" d="M300.34,319.3h-0.71l-0.07-.3-0.06.3h-0.27l0-.3-0.06.3h-0.3l-0.07-.3,0,0.3h-0.08l0-.3,0,0.3h-0.25l-0.07-.3v-0.3h0.17l0.11,0.3v-0.3h0.16V319l0.08-.3H299l0.08,0.3v-0.3h1.18l0.09,0.3,0-.3h0.57L301,319v-0.3c1,0,2,0,2.91-.06l-0.33-9.39c-1.21,0-2.42.06-3.61,0.06a107.69,107.69,0,0,1-60.86-18.7l-5.31,7.76A116.35,116.35,0,0,0,279.68,317l0.68,0.12h0l0.55,0.09,0.09,0.32,0-.3,0.45,0.07v0.31l0.07-.29,0,0.31,0.09-.29,1.68,0.25,0.05,0.31,0.07-.3,0.66,0.1,0,0.3-0.06.29-0.11,0,0-.3-0.08.29-2.79-.42-0.09-.32,0,0.3-0.44-.08h0l-0.42-.08h0l-0.38-.06h0l-0.13,0v-0.08l0,0.08a117,117,0,0,1-46.33-18.86l-0.25-.17,6-8.75,0.25,0.17A107.09,107.09,0,0,0,300,308.7c1.28,0,2.59,0,3.89-.07h0.3l0.38,10.59h-0.3c-1.05,0-2.1.06-3.16,0.07h-0.76Zm-2.21,0h-0.39l-0.06-.3,0,0.3,0-.3-0.06.3,0-.3,0,0.3H297.4l-0.07-.3,0,0.3-0.06-.3,0,0.3-0.06-.3,0,0.3h-0.25l-0.05-.3,0,0.3h-0.1l-0.06-.3,0,0.3-0.34,0h-0.08l-0.29,0h-0.27l0-.29-0.07.3h-0.81l-0.05-.3,0,0.3-0.06-.3,0,0.3h-0.21l-0.2,0,0-.3,0,0.3h-0.13v-0.59h0.72l0.86,0,0.07,0.3v-0.3h0.34l0.29,0h0.44l0,0.3,0-.3,0.07,0.3,0-.3h0.08l0,0.3,0-.3h0.2l0,0.3,0-.3h0.08l0.06,0.3,0-.3h0.23l0.07,0.3,0-.3,0.08,0.3v-0.3l0.1,0.3,0-.3h0.17l0.07,0.3Zm-4.24-.14-0.28,0,0-.3,0,0.3h-0.16l0-.3-0.08.3-0.3,0,0-.3-0.05.3-0.53,0h-0.07L291,319l-0.07-.31,0,0.3-0.05-.3,0,0.3-0.89-.07h-0.06l-0.27,0,0-.3-0.05.3-0.3,0,0-.3-0.09.29,0-.3-0.1.29-0.75-.08,0-.3-0.06.3H288l-0.71-.07h0l-0.26,0h-0.18v-0.3L287,318h0l0.41,0v0.3l0-.3,0.63,0.07h0l0.26,0,0,0.3,0.06-.3h0.15l0,0.31,0.09-.29,0.58,0.05,0.1,0.31v-0.3l0.08,0.31,0-.3h0.28l0.42,0h0.06l0.35,0h0l0.44,0,0,0.3,0.08-.29,0.66,0,0,0.3,0.05-.3,0,0.3,0.07-.3,0.21,0h0.07l0.39,0,0,0.3,0.08-.3,0.6,0,0.09,0.3v-0.3h0.36v0.6Zm-7.26-.59-0.74-.09v-0.3l-0.13.29-0.15,0v-0.3l-0.11.29-0.63-.08-0.1-.32,0,0.3h-0.09l0-.31,0,0.3H284.5l-0.09-.31,0.1-.29,0.15,0,0,0.31,0-.3,0.61,0.08,0,0.3,0.1-.29,0.32,0,0,0.3,0.07-.29H286l0.66,0.07,0,0.31Zm-2.25-.28-0.2,0,0-.31,0.07-.29,0.19,0Zm-18.57-37.47a0.3,0.3,0,1,1,.3-0.3A0.3,0.3,0,0,1,265.81,280.81Zm-77.43-40.54-0.1-.28c-0.53-1.53-1-3.08-1.51-4.62l-0.67-2.31,0.26-.18-0.29.08-0.76-2.84,0.26-.18-0.29.09-0.34-1.39,0.27-.15-0.29.07-0.07-.28,0.28-.11-0.3,0-0.24-1,0.27-.17-0.29.07-0.06-.26,0.28-.15-0.29.07-0.15-.7,0.28-.13h-0.3l-0.05-.26-0.42-2.06,0.28-.12-0.3,0,0-.25,0.28-.13h-0.3l0-.09,0.27-.19-0.29.06v-0.07l0.27-.18-0.29.05h0l0-.17,0.29-.11h-0.31v-0.08l0.27-.18-0.29.06-0.13-.72,0.28-.13-0.3.05-0.07-.41,0.28-.14-0.29.06,0-.23,0.29-.1h-0.31l-0.05-.32,0.29-.09-0.3,0-0.06-.36,0.29-.11-0.3,0,0-.2,0.29-.09h-0.3v-0.08l0.28-.12-0.3,0-0.12-.83,0.29-.11-0.3,0,0-.27,0.29-.1h-0.3v-0.08l0.29-.1-0.3,0,0.29-.1h-0.3v-0.08l0.29-.08-0.31,0,0-.16,0.29-.08-0.31,0V217.2l0.29-.12-0.3,0,0-.17,0.29-.12-0.3,0V216.8l0.28-.13-0.3,0,0.28-.15-0.3,0,0-.17,0.29-.12-0.3,0,0-.17,0.29-.11h-0.3l0.29-.11-0.3,0v-0.1l0.29-.13-0.3,0,0.29-.11-0.3,0,0-.25,0.29-.11-0.3,0,0-.2,0.29-.11-0.3,0V215l0.29-.1h-0.3v-0.08l0.29-.1-0.31,0,0-.34,0.29-.1-0.3,0,0.29-.1-0.3,0v-0.09l0.29-.09h-0.3l0.29-.11-0.3,0v-0.08l0.29-.1-0.31,0,0.29-.1-0.3,0-0.05-.52,0.29-.08-0.3,0v-0.08l0.29-.13-0.3,0,0.29-.11-0.3,0v-0.08l0.29-.11-0.3,0,0-.18,0.29-.13-0.3,0,0-.16,0.29-.1-0.3,0V212l0.29-.1-0.3,0-0.06-.73,0.29-.12-0.3,0V211l0.29-.11-0.3,0,0.29-.11h-0.3v-0.09l0.29-.1-0.3,0v-0.18l0.29-.1-0.3,0,0-.41,0.29-.08H182l0.29-.11-0.3,0v-0.08l0.29-.09H182v-0.09l0.29-.08-0.3,0v-0.1l0.29-.09H182v-0.11l0.29-.09H182V209l0.29-.08H182v-0.08l0.3-.08-0.3,0,0.3-.08h-0.3v-0.17l0.3-.09h-0.3v-0.09l0.29-.09h-0.3l0.29-.1-0.3,0V208l0.29-.09h-0.3l0-.64,0.3-.08h-0.3l0-.36,0.3-.08h-0.3v-0.09l0.3-.08h-0.3v-0.17l0.3-.09h-0.3v-0.18l0.3-.08-0.3,0V205.9l0.3-.08h-0.3l0.3-.08h-0.3v-0.16l0.3-.09h-0.3V205.4l0.3-.08h-0.3l0-.59,0.3-.08-0.3,0v-0.09l0.3-.08h-0.3V204l0.3-.06-0.3,0v-0.16l0.3-.08h-0.3v-0.44l0.3-.07h-0.3V203l0.3,0-0.3,0v-0.09l0.3-.06-0.3,0V202.3l0.3-.08h-0.3v-1.87l0.3-.12h-0.3v-0.16L182,200h-0.3l0.3-.09h-0.3l0.3-.09h-0.3v-0.1l0.3-.09h-0.3v-0.08l0.3-.14h-0.3v-0.08l0.3-.07h-0.3l0.3-.09-0.3,0V199l0.3-.09h-0.3v-0.08l0.3-.07h-0.3v-0.24l0.3-.09-0.3,0v-0.27l0.3-.05-0.3,0v-0.2l0.3-.07h-0.3v-0.08l0.3-.12h-0.3v-0.17l0.3-.08h-0.3v-0.08l0.3-.09h-0.3V196.8l0-.56,0.3-.05-0.3-.07,0.3-.06h-0.3l0.3-.06-0.3-.08,0.3-.1h-0.3l0.3-.09h-0.3v-0.27l0.3-.08h-0.3v-0.08l0.3-.06-0.3-.08,0-.37,0.31-.12-0.3,0,0-.35,0.31-.12h-0.3l0.06-1c0-.4.05-0.79,0.08-1.19a118.13,118.13,0,0,1,4.91-25.9l0.09-.29,10.13,3.13-0.09.29a108.34,108.34,0,0,0,1.21,67.31l0.1,0.28Zm-1-5.08c0.44,1.44.91,2.88,1.4,4.31l8.88-3.1a109,109,0,0,1-1.21-67.12l-9-2.77A117.51,117.51,0,0,0,182.64,192q0,0.59-.08,1.18l-0.05.84-0.31.12h0.3l0,0.43-0.31.12h0.3l0,0.59-0.3.1h0.3l-0.3,0,0.3,0v0.11l-0.3.09h0.3v0.15l-0.31.12h0.3v0.24l-0.3,0,0.3,0.08-0.3.07h0.3v0.31l-0.3,0,0.3,0v0.43l-0.3.05h0.3l-0.3.07h0.3l-0.3.08h0.3v0.16l-0.3.12h0.3v0.44l-0.3.09h0.3v0.08l-0.3.09h0.3v0.09l-0.3.05,0.3,0-0.3.1h0.3l-0.3.07h0.3v0.08L182,199l0.3,0v0.17l-0.3.1h0.3v0.16l-0.3.06,0.3,0-0.3,0,0.3,0.05V200l-0.3.14h0.3v0.44l-0.3.13h0.3v1.42l-0.3.08h0.3v0.16l-0.3.08h0.3v0.4l-0.3.06,0.3,0v0.71l-0.3.09,0.3,0v0.16L182,204h0.3v0.58l-0.3.08h0.3l-0.3.07h0.3V205l-0.3.06,0.3,0v0.25l-0.3.1h0.3v0.28l-0.3.08,0.3,0v0.05l-0.3.09h0.3v0.28l-0.3.08h0.3l-0.3.08h0.3v0.08l-0.3.1,0.3,0v0.09l-0.29.1h0.3v0.08l-0.3.09,0.3,0V207l-0.29.11h0.3v0.09l-0.3.09h0.3l-0.3.09h0.3l-0.3.09h0.3v0.08l-0.3.1,0.3,0-0.29.11h0.3v0.16l-0.29.1h0.3V208l-0.3.09h0.3v0.09l-0.3.08h0.3l-0.29.09h0.3v0.17l-0.3.08h0.3l0,0.27-0.29.08,0.3,0-0.29.09h0.3l0,0.25-0.29.09h0.3v0.16l-0.29.1h0.3v0.08l-0.29.09h0.3v0.11l-0.29.11,0.3,0v0.09l-0.29.08h0.3l-0.29.09,0.3,0v0.08l-0.29.09h0.3l-0.29.09h0.3v0.16l-0.29.09h0.3l0,0.26-0.29.1,0.3,0v0.16l-0.29.11,0.3,0,0,0.38-0.29.08h0.3l-0.29.09h0.3V212l-0.29.08h0.3l0,0.18-0.29.13,0.3,0v0.08l-0.29.1,0.3,0-0.29.08h0.3l0,0.18-0.29.14,0.3,0,0,0.28-0.29.12,0.3,0-0.29.15,0.3,0,0,0.17-0.29.1,0.3,0,0,0.28-0.29.11,0.3,0-0.29.07H183l-0.29.11,0.3,0-0.29.1,0.3,0,0.05,0.49-0.29.09,0.31,0v0.07l-0.29.1,0.3,0V215l-0.29.12,0.3,0v0.08l-0.29.1,0.3,0-0.29.11,0.3,0v0.08l-0.29.1,0.3,0v0.09l-0.29.1h0.3l-0.29.1,0.3,0-0.29.1,0.3,0v0.08l-0.29.08h0.3l0,0.16-0.29.1,0.3,0v0.09l-0.29.11,0.3,0,0,0.19-0.29.1,0.3,0v0.08l-0.29.11h0.3v0.08l-0.28.16,0.3,0,0,0.16-0.28.13,0.3,0,0,0.24-0.29.11,0.3,0-0.29.07h0.3l0,0.17-0.29.09h0.3v0.09l-0.29.11,0.3,0,0,0.28-0.29.1,0.3,0-0.29.1,0.3,0,0.11,0.7-0.28.14,0.3,0-0.28.13,0.3-.05,0.09,0.54-0.29.09,0.3,0,0,0.16-0.29.12,0.3,0-0.28.12,0.3,0-0.29.1,0.3,0-0.28.13,0.3,0,0.05,0.32-0.28.12,0.3,0,0.05,0.31-0.28.13,0.3-.06,0,0.25-0.28.14,0.3-.05,0,0.28-0.28.13,0.3-.05,0,0.19-0.28.13,0.3,0-0.28.13,0.29-.05,0.11,0.59-0.28.11h0.3l0.07,0.36-0.28.15,0.29-.06,0.11,0.51v0l0.2,1-0.28.12h0.31l0.1,0.48-0.28.14,0.3-.05,0.27,1.21-0.27.16,0.29-.07,0.22,0.94-0.27.16,0.29-.07,0,0.21-0.28.11h0.31l-0.27.15,0.29-.07,0.14,0.59-0.27.15,0.29-.07,0.11,0.45-0.27.15,0.29-.07,0,0.09-0.27.15,0.29-.07,0,0.11-0.27.15,0.29-.07-0.27.15,0.29-.08,0.15,0.58,0.3,1.12-0.26.19,0.29-.08,0.23,0.84-0.26.17,0.29-.08-0.26.17,0.29-.08Z" transform="translate(-181.7 -165.77)"/></g></svg>