<svg preserveAspectRatio="none" id="Layer_1" data-name="Layer 1" xmlns="http://www.w3.org/2000/svg" viewBox="0 0 99.06 99.06"><defs><style>.cls-1{fill:#02a6ff;}</style></defs><title>shape35</title><path id="_复合路径_" data-name="&lt;复合路径&gt;" class="cls-1" d="M1802.32,1915.86a11.61,11.61,0,1,1,11.61-11.61A11.63,11.63,0,0,1,1802.32,1915.86Zm0-21.34a9.73,9.73,0,1,0,9.73,9.73A9.74,9.74,0,0,0,1802.32,1894.52Z" transform="translate(-1752.79 -1854.72)"/><path id="_复合路径_2" data-name="&lt;复合路径&gt;" class="cls-1" d="M1802.32,1934a29.72,29.72,0,1,1,29.72-29.72A29.75,29.75,0,0,1,1802.32,1934Zm0-54.62a24.9,24.9,0,1,0,24.9,24.9A24.93,24.93,0,0,0,1802.32,1879.35Z" transform="translate(-1752.79 -1854.72)"/><path id="_复合路径_3" data-name="&lt;复合路径&gt;" class="cls-1" d="M1802.32,1953.78a49.85,49.85,0,0,1-10.22-1.06l1.65-7.86a41.5,41.5,0,1,0,8.57-82.11c-1.07,0-2.16,0-3.22.12l-0.61-8c1.26-.1,2.55-0.15,3.83-0.15A49.53,49.53,0,0,1,1802.32,1953.78Zm-33.64-13.18a49.54,49.54,0,0,1,5-76.77l4.65,6.55a41.51,41.51,0,0,0-4.2,64.33Z" transform="translate(-1752.79 -1854.72)"/><path id="_复合路径_4" data-name="&lt;复合路径&gt;" class="cls-1" d="M1802.32,1915.86a11.61,11.61,0,1,1,11.61-11.61A11.63,11.63,0,0,1,1802.32,1915.86Zm0-21.34a9.73,9.73,0,1,0,9.73,9.73A9.74,9.74,0,0,0,1802.32,1894.52Z" transform="translate(-1752.79 -1854.72)"/><path id="_复合路径_5" data-name="&lt;复合路径&gt;" class="cls-1" d="M1802.32,1934a29.72,29.72,0,1,1,29.72-29.72A29.75,29.75,0,0,1,1802.32,1934Zm0-54.62a24.9,24.9,0,1,0,24.9,24.9A24.93,24.93,0,0,0,1802.32,1879.35Z" transform="translate(-1752.79 -1854.72)"/><path id="_复合路径_6" data-name="&lt;复合路径&gt;" class="cls-1" d="M1802.32,1953.78a49.85,49.85,0,0,1-10.22-1.06l1.65-7.86a41.5,41.5,0,1,0,8.57-82.11c-1.07,0-2.16,0-3.22.12l-0.61-8c1.26-.1,2.55-0.15,3.83-0.15A49.53,49.53,0,0,1,1802.32,1953.78Zm-33.64-13.18a49.54,49.54,0,0,1,5-76.77l4.65,6.55a41.51,41.51,0,0,0-4.2,64.33Z" transform="translate(-1752.79 -1854.72)"/></svg>