<svg preserveAspectRatio="none" xmlns="http://www.w3.org/2000/svg" viewBox="0 0 17.38 16.51"><defs><style>.cls-2{fill:#00aeef}</style></defs><g style="isolation:isolate"><g id="Layer_1" data-name="Layer 1"><path class="cls-2" d="M522.46 35.78l-.21-1.5a7.18 7.18 0 005-11l1.27-.82a8.69 8.69 0 01-6.06 13.32zm-9.57-6.15a8.69 8.69 0 014.73-10.35l.63 1.37a7.19 7.19 0 00-3.91 8.55z" transform="translate(-512.53 -19.27)"/><circle class="cls-2" cx="8.69" cy="7.91" r="1.53"/><g style="mix-blend-mode:color-dodge"><path class="cls-2" d="M522.46 35.78l-.21-1.5a7.18 7.18 0 005-11l1.27-.82a8.69 8.69 0 01-6.06 13.32zm-9.57-6.15a8.69 8.69 0 014.73-10.35l.63 1.37a7.19 7.19 0 00-3.91 8.55z" transform="translate(-512.53 -19.27)"/><circle class="cls-2" cx="8.69" cy="7.91" r="1.53"/></g></g></g></svg>