<svg preserveAspectRatio="none" xmlns="http://www.w3.org/2000/svg" viewBox="0 0 320.93 265.25"><defs><style>.cls-2,.cls-3{fill:#03a6ff}.cls-3{mix-blend-mode:screen}</style></defs><g style="isolation:isolate"><g id="Layer_3" data-name="Layer 3"><path class="cls-2" d="M1854.32 1694a3.75 3.75 0 113.75-3.75 3.75 3.75 0 01-3.75 3.75zm0-6.87a3.12 3.12 0 103.12 3.12 3.12 3.12 0 00-3.12-3.11z" transform="translate(-1693.85 -1567.99)"/><circle class="cls-2" cx="160.47" cy="122.27" r=".73"/><path class="cls-2" d="M176.95 110.17l-4.75-8.23h-9.49v-.62h9.85l4.93 8.54-.54.31zM143.98 110.17l-.54-.31 4.93-8.54h9.85v.62h-9.49l-4.75 8.23zM141.2 130.81l-4.93-8.54 4.93-8.53.54.31-4.75 8.22 4.75 8.23-.54.31zM158.22 143.23h-9.85l-4.93-8.54.54-.31 4.75 8.22h9.49v.63zM172.56 143.23h-9.85v-.63h9.49l4.75-8.22.54.31-4.93 8.54zM179.73 130.81l-.54-.31 4.75-8.23-4.75-8.22.54-.31 4.93 8.53-4.93 8.54z"/><path class="cls-2" transform="matrix(.87 -.5 .5 .87 -2300.64 -423.41)" d="M1832.12 1692.67h.62v23.83h-.62z"/><path class="cls-2" transform="matrix(.5 -.87 .87 .5 -2232.26 908.23)" d="M1864.28 1704.28h23.83v.62h-23.83z"/><path class="cls-2" d="M148.55 96.37h23.83v.62h-23.83zM185.65 139.03l5.96-10.23 5.89 10.28 5.88 10.28-11.85-.05-11.84-.04 5.96-10.24zM135.28 139.03l-5.96-10.23-5.88 10.28-5.89 10.28 11.85-.05 11.85-.04-5.97-10.24zM160.47 93.23l11.84-.02-5.94-10.25-5.94-10.24-5.9 10.26-5.91 10.27 11.85-.02z"/><path class="cls-2" d="M165.03 73.46l-4.56-7.91-4.57 7.91-.54-.32 5.11-8.84 5.1 8.84-.54.32z"/><path class="cls-2" transform="rotate(-60.01 -376.049 2359.888)" d="M1818.7 1676.98h19.98v.62h-19.98z"/><path class="cls-2" d="M118.89 154h-10.22l5.11-8.84.54.31-4.56 7.91h9.13v.62zM150.48 153.38h19.98v.62h-19.98zM212.26 154h-10.22v-.62h9.14l-4.57-7.91.54-.31 5.11 8.84z"/><path class="cls-2" transform="matrix(.87 -.5 .5 .87 -2280.63 -403.34)" d="M1879.63 1667.3h.62v19.98h-.62z"/><path class="cls-2" d="M165.03 73.46l-4.56-7.91-4.57 7.91-.54-.32 5.11-8.84 5.1 8.84-.54.32z"/><path class="cls-2" transform="rotate(-60.01 -376.049 2359.888)" d="M1818.7 1676.98h19.98v.62h-19.98z"/><path class="cls-2" d="M118.89 154h-10.22l5.11-8.84.54.31-4.56 7.91h9.13v.62zM150.48 153.38h19.98v.62h-19.98zM212.26 154h-10.22v-.62h9.14l-4.57-7.91.54-.31 5.11 8.84z"/><path class="cls-2" transform="matrix(.87 -.5 .5 .87 -2280.63 -403.34)" d="M1879.63 1667.3h.62v19.98h-.62z"/><path class="cls-2" d="M1849.08 1762.23a74.71 74.71 0 01-28.31-7.7l1-2a72.5 72.5 0 0027.48 7.47 72.9 72.9 0 0037.09-7.21l1 2a75.11 75.11 0 01-38.26 7.44zm-67.53-80l-2.2-.15v-.08a74.67 74.67 0 0133.45-57.4l1.22 1.84a72.48 72.48 0 00-32.47 55.72v.08zm145.57.46a73.36 73.36 0 00-32.13-56l1.23-1.83a75.58 75.58 0 0133.1 57.71z" transform="translate(-1693.85 -1567.99)"/><path class="cls-3" d="M1782 1582.64v-3.55a132 132 0 00-48.86 50.06c-34.95 63.06-13 142.53 48.86 178.84v-3.57c-59.22-35.86-80-112.71-46.19-173.78a128.81 128.81 0 0146.19-48zM1972.83 1630.64c33.86 61.07 13 137.92-46.19 173.78v3.58c61.82-36.31 83.81-115.78 48.86-178.84a131.94 131.94 0 00-48.86-50.06v3.55a128.81 128.81 0 0146.19 47.99z" transform="translate(-1693.85 -1567.99)"/><path class="cls-3" d="M27.34 222.6h53.92v2.65H27.34zM27.34 25.81h53.92v2.65H27.34z"/><path class="cls-2" d="M1750.75 1774l-1.23-1.63 2.46-1.81q.59.8 1.2 1.59zM1747.15 1769l-1.15-1.69 2.54-1.7q.55.82 1.12 1.65zM1743.79 1763.9q-.54-.87-1.07-1.74l2.62-1.57q.51.85 1 1.7zM1740.68 1758.63q-.5-.89-1-1.79l2.68-1.45 1 1.75zM1737.81 1753.23q-.46-.92-.9-1.83l2.75-1.33q.43.89.88 1.79zM1735.19 1747.7q-.42-.94-.82-1.87l2.8-1.2q.39.91.8 1.83zM1732.82 1742.06q-.38-1-.74-1.9l2.85-1.08q.35.93.72 1.86zM1730.69 1736.33q-.34-1-.65-1.93l2.9-1q.31.94.64 1.89zM1728.81 1730.51q-.29-1-.57-2l2.93-.84q.27 1 .56 1.92zM1727.18 1724.62q-.26-1-.49-2l3-.72q.23 1 .48 1.94zM1725.78 1718.67q-.22-1-.41-2l3-.6q.19 1 .4 2zM1724.62 1712.67q-.18-1-.33-2l3-.48q.15 1 .33 2zM1723.7 1706.62q-.14-1-.25-2l3-.35q.11 1 .25 2zM1726 1682.41l-3-.27q.09-1 .2-2l3 .32q-.1.95-.2 1.95zM1726.68 1676.48l-3-.42q.14-1 .3-2l3 .47q-.16.96-.3 1.95zM1727.65 1670.58l-3-.57q.19-1 .39-2l3 .62q-.21.97-.39 1.95zM1728.9 1664.74l-3-.71q.24-1 .49-2l3 .76q-.26.98-.49 1.95zM1730.43 1659l-2.93-.85q.29-1 .59-2l2.92.9q-.3.95-.58 1.95zM1732.23 1653.27l-2.89-1q.33-1 .68-1.92l2.87 1q-.33.97-.66 1.92zM1734.31 1647.66l-2.84-1.12q.38-1 .77-1.89l2.82 1.17q-.39.91-.75 1.84zM1736.64 1642.16l-2.78-1.25q.42-.94.85-1.85l2.76 1.3q-.47.88-.83 1.8zM1739.21 1636.76l-2.72-1.38q.46-.92.93-1.81l2.7 1.42zM1742 1631.49l-2.66-1.5q.51-.9 1-1.77l2.64 1.54q-.45.85-.98 1.73zM1745.09 1626.34l-2.59-1.62 1.09-1.72 2.57 1.65zM1748.37 1621.34l-2.52-1.73 1.17-1.67 2.49 1.77z" transform="translate(-1693.85 -1567.99)"/><path class="cls-2" d="M58.01 48.51l-2.43-1.85 1.24-1.61 2.41 1.87-1.22 1.59zM48.4 121.84l-6.44-3.72-6.43 3.72-6.44 3.71 6.44 3.72 6.43 3.71 6.44-3.71 6.43-3.72-6.43-3.71zM61.44 0h2.43v2.43h-2.43zM66.56 0h2.43v2.43h-2.43zM71.67 0h2.43v2.43h-2.43zM76.79 0h2.43v2.43h-2.43zM61.44 6.01h2.43v2.43h-2.43zM66.56 6.01h2.43v2.43h-2.43zM71.67 6.01h2.43v2.43h-2.43zM76.79 6.01h2.43v2.43h-2.43zM61.44 248.67h2.43v2.43h-2.43zM66.56 248.67h2.43v2.43h-2.43zM71.67 248.67h2.43v2.43h-2.43zM76.79 248.67h2.43v2.43h-2.43zM61.44 242.66h2.43v2.43h-2.43zM66.56 242.66h2.43v2.43h-2.43zM71.67 242.66h2.43v2.43h-2.43zM76.79 242.66h2.43v2.43h-2.43zM0 34.1h29.76v1.02H0zM0 39.91h29.76v1.02H0zM0 215.99h29.76v1.02H0zM0 210.18h29.76v1.02H0zM12.34 64.3h1.02v122.47h-1.02zM6.17 82.93h1.02v85.21H6.17z"/><path class="cls-2" transform="rotate(-90 136.27 1895.66)" d="M1766.68 1790.12h1.02v85.21h-1.02z"/><path class="cls-2" d="M95.02 223.93l-3.04 1.76-3.05 1.75V220.41l3.05 1.76 3.04 1.76zM95.02 27.14l-3.04 1.75-3.05 1.76V23.62l3.05 1.76 3.04 1.76z"/><path class="cls-3" transform="rotate(180 1113.555 1007.92)" d="M1933.52 1790.59h53.92v2.65h-53.92z"/><path class="cls-3" transform="rotate(180 1113.555 811.13)" d="M1933.52 1593.8h53.92v2.65h-53.92z"/><path class="cls-2" d="M1955.46 1772.11l1.2-1.59 2.46 1.81-1.23 1.63zM1959 1767.28q.57-.82 1.12-1.65l2.54 1.7-1.15 1.69zM1962.26 1762.29q.53-.85 1-1.7l2.62 1.57q-.52.87-1.07 1.74zM1965.3 1757.14l1-1.75 2.68 1.45q-.48.89-1 1.79zM1968.1 1751.86q.45-.9.88-1.79l2.75 1.33q-.44.91-.9 1.83zM1970.66 1746.46q.41-.92.8-1.83l2.8 1.2q-.4.93-.82 1.87zM1973 1740.94q.37-.93.72-1.86l2.85 1.08q-.36.95-.74 1.9zM1975.06 1735.33q.33-.95.64-1.89l2.9 1q-.32 1-.65 1.93zM1976.9 1729.63q.29-1 .56-1.92l2.93.84q-.28 1-.57 2zM1978.51 1723.86q.25-1 .48-1.94l3 .72q-.24 1-.49 2zM1979.87 1718q.21-1 .4-2l3 .6q-.2 1-.41 2zM1981 1712.15q.17-1 .33-2l3 .48q-.16 1-.33 2zM1981.91 1706.23q.13-1 .25-2l3 .35q-.11 1-.25 2zM1982.44 1680.43l3-.32q.11 1 .2 2l-3 .27-.2-1.95zM1981.66 1674.51l3-.47q.16 1 .3 2l-3 .42q-.14-.97-.3-1.95zM1980.6 1668.63l3-.62q.2 1 .39 2l-3 .57q-.19-.98-.39-1.95zM1979.26 1662.81l3-.76q.25 1 .49 2l-3 .71q-.25-.99-.49-1.95zM1977.64 1657.06l2.92-.9q.3 1 .59 2l-2.93.85q-.29-1.01-.58-1.95zM1975.74 1651.39l2.87-1q.34 1 .68 1.92l-2.89 1q-.32-.99-.66-1.92zM1973.58 1645.82l2.82-1.17q.39.94.77 1.89l-2.84 1.12q-.33-.93-.75-1.84zM1971.17 1640.35l2.76-1.3q.43.92.85 1.85l-2.78 1.25q-.41-.91-.83-1.8zM1968.51 1635l2.7-1.42q.47.89.93 1.81l-2.72 1.38q-.42-.9-.91-1.77zM1965.61 1629.76l2.64-1.54q.51.87 1 1.77l-2.66 1.5q-.48-.88-.98-1.73zM1962.48 1624.66l2.52-1.66 1.09 1.72-2.59 1.62zM1959.13 1619.71l2.49-1.77 1.17 1.67-2.52 1.73z" transform="translate(-1693.85 -1567.99)"/><path class="cls-2" d="M261.71 46.92l2.4-1.87 1.24 1.61-2.43 1.85-1.21-1.59zM272.54 121.84l6.43-3.72 6.44 3.72 6.43 3.71-6.43 3.72-6.44 3.71-6.43-3.71-6.44-3.72 6.44-3.71z"/><path class="cls-2" transform="rotate(180 1105.205 785.21)" d="M1950.91 1567.99h2.43v2.43h-2.43z"/><path class="cls-2" transform="rotate(180 1100.085 785.21)" d="M1945.8 1567.99h2.43v2.43h-2.43z"/><path class="cls-2" transform="rotate(180 1094.965 785.21)" d="M1940.68 1567.99h2.43v2.43h-2.43z"/><path class="cls-2" transform="rotate(180 1089.85 785.21)" d="M1935.56 1567.99h2.43v2.43h-2.43z"/><path class="cls-2" transform="rotate(180 1105.205 791.225)" d="M1950.91 1574h2.43v2.43h-2.43z"/><path class="cls-2" transform="rotate(180 1100.085 791.225)" d="M1945.8 1574h2.43v2.43h-2.43z"/><path class="cls-2" transform="rotate(180 1094.965 791.225)" d="M1940.68 1574h2.43v2.43h-2.43z"/><path class="cls-2" transform="rotate(180 1089.85 791.225)" d="M1935.56 1574h2.43v2.43h-2.43z"/><path class="cls-2" transform="rotate(180 1105.205 1033.88)" d="M1950.91 1816.66h2.43v2.43h-2.43z"/><path class="cls-2" transform="rotate(180 1100.085 1033.88)" d="M1945.8 1816.66h2.43v2.43h-2.43z"/><path class="cls-2" transform="rotate(180 1094.965 1033.88)" d="M1940.68 1816.66h2.43v2.43h-2.43z"/><path class="cls-2" transform="rotate(180 1089.85 1033.88)" d="M1935.56 1816.66h2.43v2.43h-2.43z"/><path class="cls-2" transform="rotate(180 1105.205 1027.865)" d="M1950.91 1810.64h2.43v2.43h-2.43z"/><path class="cls-2" transform="rotate(180 1100.085 1027.865)" d="M1945.8 1810.64h2.43v2.43h-2.43z"/><path class="cls-2" transform="rotate(180 1094.965 1027.865)" d="M1940.68 1810.64h2.43v2.43h-2.43z"/><path class="cls-2" transform="rotate(180 1089.85 1027.865)" d="M1935.56 1810.64h2.43v2.43h-2.43z"/><path class="cls-2" transform="rotate(180 1152.98 818.6)" d="M1985.03 1602.08h29.76v1.02h-29.76z"/><path class="cls-2" transform="rotate(180 1152.98 824.405)" d="M1985.03 1607.89h29.76v1.02h-29.76z"/><path class="cls-2" transform="rotate(180 1152.98 1000.49)" d="M1985.03 1783.98h29.76v1.02h-29.76z"/><path class="cls-2" transform="rotate(180 1152.98 994.685)" d="M1985.03 1778.17h29.76v1.02h-29.76z"/><path class="cls-2" transform="rotate(180 1155.015 909.525)" d="M2001.43 1632.28h1.02v122.47h-1.02z"/><path class="cls-2" transform="rotate(180 1161.18 909.525)" d="M2007.6 1650.91h1.02v85.21h-1.02z"/><path class="cls-2" transform="rotate(-90 310.53 1895.66)" d="M1940.94 1790.12h1.02v85.21h-1.02z"/><path class="cls-2" d="M225.91 223.93l3.05 1.76 3.04 1.75V220.41l-3.04 1.76-3.05 1.76zM225.91 27.14l3.05 1.75 3.04 1.76V23.62l-3.04 1.76-3.05 1.76z"/></g></g></svg>