<svg preserveAspectRatio="none" id="Layer_4" data-name="Layer 4" xmlns="http://www.w3.org/2000/svg" viewBox="0 0 22.89 18.15"><defs><style>.cls-1{fill:#00558d;}.cls-2{fill:#1e9af0;}.cls-3{fill:#1ec0ff;}</style></defs><title>shape32</title><polygon class="cls-1" points="7.09 3.29 4.98 1.9 6.03 1.38 8.14 2.76 7.09 3.29"/><polygon class="cls-1" points="2 6.44 4.11 7.83 4.04 9 1.93 7.61 2 6.44"/><polygon class="cls-2" points="2.18 3.31 4.37 2.21 6.49 3.6 4.29 4.7 4.15 7.15 2.04 5.76 2.18 3.31"/><polygon class="cls-1" points="10.57 5.58 8.46 4.19 9.51 3.66 11.62 5.05 10.57 5.58"/><polygon class="cls-1" points="5.48 8.72 7.59 10.11 7.52 11.29 5.41 9.9 5.48 8.72"/><polygon class="cls-2" points="5.66 5.6 7.85 4.5 9.96 5.88 7.77 6.99 7.63 9.44 5.52 8.05 5.66 5.6"/><polygon class="cls-1" points="14.05 7.87 11.94 6.48 12.99 5.95 15.1 7.34 14.05 7.87"/><polygon class="cls-1" points="8.96 11.01 11.07 12.4 11 13.58 8.89 12.19 8.96 11.01"/><polygon class="cls-2" points="9.14 7.89 11.33 6.79 13.45 8.17 11.25 9.28 11.11 11.72 9 10.34 9.14 7.89"/><polygon class="cls-1" points="17.53 10.16 15.42 8.77 16.47 8.24 18.58 9.63 17.53 10.16"/><polygon class="cls-1" points="12.44 13.3 14.55 14.69 14.48 15.87 12.37 14.48 12.44 13.3"/><polygon class="cls-2" points="12.62 10.17 14.81 9.07 16.93 10.46 14.73 11.56 14.59 14.01 12.48 12.62 12.62 10.17"/><polygon class="cls-1" points="21.02 12.44 18.9 11.05 19.95 10.53 22.06 11.92 21.02 12.44"/><polygon class="cls-1" points="15.92 15.59 18.03 16.98 17.96 18.16 15.85 16.77 15.92 15.59"/><polygon class="cls-2" points="16.1 12.46 18.3 11.36 20.41 12.75 18.21 13.85 18.07 16.3 15.96 14.91 16.1 12.46"/><circle class="cls-3" cx="66.62" cy="97.41" r="0.55" transform="translate(-98.05 17.14) rotate(-56.68)"/><circle class="cls-2" cx="68.17" cy="98.43" r="0.35" transform="translate(-98.2 18.9) rotate(-56.68)"/><circle class="cls-1" cx="69.4" cy="99.24" r="0.18" transform="translate(-98.33 20.28) rotate(-56.68)"/><polygon class="cls-2" points="0.86 2.37 4.78 0.4 5.37 0.79 1.45 2.75 1.2 7.13 0.61 6.75 0.86 2.37"/><polygon class="cls-3" points="4.17 0 4.32 0.1 0.4 2.06 0.14 6.44 0 6.35 0.25 1.97 4.17 0"/><polygon class="cls-3" points="5.67 0.98 5.81 1.08 1.89 3.05 1.64 7.42 1.49 7.33 1.75 2.95 5.67 0.98"/></svg>