<svg preserveAspectRatio="none" id="Layer_1" data-name="Layer 1" xmlns="http://www.w3.org/2000/svg" viewBox="0 0 99.06 99.06"><defs><style>.cls-1{fill:#02a6ff}</style></defs><path id="_复合路径_" data-name="&lt;复合路径&gt;" class="cls-1" d="M1802.32 1915.86a11.61 11.61 0 1111.61-11.61 11.63 11.63 0 01-11.61 11.61zm0-21.34a9.73 9.73 0 109.73 9.73 9.74 9.74 0 00-9.73-9.73z" transform="translate(-1752.79 -1854.72)"/><path id="_复合路径_2" data-name="&lt;复合路径&gt;" class="cls-1" d="M1802.32 1934a29.72 29.72 0 1129.72-29.72 29.75 29.75 0 01-29.72 29.72zm0-54.62a24.9 24.9 0 1024.9 24.9 24.93 24.93 0 00-24.9-24.93z" transform="translate(-1752.79 -1854.72)"/><path id="_复合路径_3" data-name="&lt;复合路径&gt;" class="cls-1" d="M1802.32 1953.78a49.85 49.85 0 01-10.22-1.06l1.65-7.86a41.5 41.5 0 108.57-82.11c-1.07 0-2.16 0-3.22.12l-.61-8c1.26-.1 2.55-.15 3.83-.15a49.53 49.53 0 010 99.06zm-33.64-13.18a49.54 49.54 0 015-76.77l4.65 6.55a41.51 41.51 0 00-4.2 64.33z" transform="translate(-1752.79 -1854.72)"/><path id="_复合路径_4" data-name="&lt;复合路径&gt;" class="cls-1" d="M1802.32 1915.86a11.61 11.61 0 1111.61-11.61 11.63 11.63 0 01-11.61 11.61zm0-21.34a9.73 9.73 0 109.73 9.73 9.74 9.74 0 00-9.73-9.73z" transform="translate(-1752.79 -1854.72)"/><path id="_复合路径_5" data-name="&lt;复合路径&gt;" class="cls-1" d="M1802.32 1934a29.72 29.72 0 1129.72-29.72 29.75 29.75 0 01-29.72 29.72zm0-54.62a24.9 24.9 0 1024.9 24.9 24.93 24.93 0 00-24.9-24.93z" transform="translate(-1752.79 -1854.72)"/><path id="_复合路径_6" data-name="&lt;复合路径&gt;" class="cls-1" d="M1802.32 1953.78a49.85 49.85 0 01-10.22-1.06l1.65-7.86a41.5 41.5 0 108.57-82.11c-1.07 0-2.16 0-3.22.12l-.61-8c1.26-.1 2.55-.15 3.83-.15a49.53 49.53 0 010 99.06zm-33.64-13.18a49.54 49.54 0 015-76.77l4.65 6.55a41.51 41.51 0 00-4.2 64.33z" transform="translate(-1752.79 -1854.72)"/></svg>