<svg preserveAspectRatio="none" xmlns="http://www.w3.org/2000/svg" viewBox="0 0 9.6 4.78"><defs><style>.cls-1{isolation:isolate;}.cls-2{fill:#00aeef;}.cls-3{mix-blend-mode:color-dodge;}</style></defs><title>arrow1</title><g class="cls-1"><g id="Layer_1" data-name="Layer 1"><polygon class="cls-2" points="7.85 4.78 6.42 2.43 7.86 0.01 9.6 0.01 8.01 2.4 9.59 4.78 7.85 4.78"/><polygon class="cls-2" points="4.67 4.77 3.24 2.42 4.68 0.01 6.42 0.01 4.83 2.39 6.42 4.78 4.67 4.77"/><polygon class="cls-2" points="1.43 4.77 0 2.42 1.44 0 3.18 0 1.59 2.38 3.18 4.77 1.43 4.77"/><g class="cls-3"><polygon class="cls-2" points="7.85 4.78 6.42 2.43 7.86 0.01 9.6 0.01 8.01 2.4 9.59 4.78 7.85 4.78"/><polygon class="cls-2" points="4.67 4.77 3.24 2.42 4.68 0.01 6.42 0.01 4.83 2.39 6.42 4.78 4.67 4.77"/><polygon class="cls-2" points="1.43 4.77 0 2.42 1.44 0 3.18 0 1.59 2.38 3.18 4.77 1.43 4.77"/></g></g></g></svg>