<svg preserveAspectRatio="none" id="Layer_1" data-name="Layer 1" xmlns="http://www.w3.org/2000/svg" viewBox="0 0 200.59 221.63"><defs><style>.cls-1{fill:#76e5ff;}.cls-2{fill:#ff6d00;}</style></defs><title>shape18</title><polygon class="cls-1" points="115.9 9.55 114.58 9.42 115.16 0.77 117.13 0.98 115.9 9.55"/><polygon class="cls-1" points="122.64 11.08 121.34 10.81 122.82 2.27 124.76 2.68 122.64 11.08"/><polygon class="cls-1" points="129.18 13.31 127.92 12.9 130.29 4.56 132.17 5.17 129.18 13.31"/><polygon class="cls-1" points="135.46 16.2 134.24 15.66 137.47 7.62 139.28 8.43 135.46 16.2"/><polygon class="cls-1" points="141.4 19.74 140.25 19.07 144.29 11.41 146.01 12.4 141.4 19.74"/><polygon class="cls-1" points="41.15 56.68 40.87 57.98 32.33 56.5 32.74 54.56 41.15 56.68"/><polygon class="cls-1" points="43.37 50.14 42.96 51.4 34.62 49.03 35.23 47.15 43.37 50.14"/><polygon class="cls-1" points="46.27 43.86 45.73 45.07 37.68 41.85 38.48 40.04 46.27 43.86"/><polygon class="cls-1" points="49.8 37.92 49.14 39.07 41.47 35.02 42.46 33.31 49.8 37.92"/><polygon class="cls-1" points="53.94 32.38 53.16 33.46 45.96 28.63 47.12 27.03 53.94 32.38"/><polygon class="cls-1" points="58.63 27.31 57.74 28.3 51.09 22.75 52.41 21.28 58.63 27.31"/><polygon class="cls-1" points="63.83 22.76 62.84 23.65 56.81 17.43 58.28 16.11 63.83 22.76"/><polygon class="cls-1" points="69.48 18.77 68.4 19.55 63.05 12.73 64.65 11.57 69.48 18.77"/><polygon class="cls-1" points="75.51 15.4 74.36 16.06 69.75 8.72 71.46 7.73 75.51 15.4"/><polygon class="cls-1" points="81.86 12.67 80.65 13.21 76.83 5.43 78.63 4.63 81.86 12.67"/><polygon class="cls-1" points="88.46 10.62 87.2 11.03 84.21 2.9 86.09 2.29 88.46 10.62"/><polygon class="cls-1" points="95.24 9.28 93.94 9.55 91.82 1.15 93.76 0.74 95.24 9.28"/><polygon class="cls-1" points="101.54 0 99.57 0.21 100.8 8.78 102.12 8.65 101.54 0"/><polygon class="cls-1" points="107.38 0.08 107.71 8.74 109.03 8.74 109.36 0.08 107.38 0.08"/><path class="cls-1" d="M1200.43,811.4a21,21,0,1,0,12.33-27A21,21,0,0,0,1200.43,811.4Zm36.34-13.57a17.79,17.79,0,1,1-22.89-10.44A17.79,17.79,0,0,1,1236.77,797.83Z" transform="translate(-1132.68 -635.12)"/><polygon class="cls-1" points="75.97 171.1 76.03 171.33 74.56 171.77 74.47 171.43 75.97 171.1"/><polygon class="cls-1" points="75.8 169.89 75.84 170.12 74.33 170.41 74.28 170.06 75.8 169.89"/><polygon class="cls-1" points="75.77 168.67 75.78 168.91 74.25 169.03 74.23 168.68 75.77 168.67"/><polygon class="cls-1" points="75.86 167.46 75.84 167.69 74.31 167.65 74.33 167.3 75.86 167.46"/><polygon class="cls-1" points="76.08 166.25 76.04 166.49 74.52 166.29 74.58 165.94 76.08 166.25"/><polygon class="cls-1" points="76.42 165.08 76.36 165.31 74.87 164.95 74.96 164.62 76.42 165.08"/><polygon class="cls-1" points="76.88 163.95 76.8 164.17 75.35 163.66 75.48 163.34 76.88 163.95"/><polygon class="cls-1" points="77.46 162.88 77.35 163.08 75.97 162.43 76.13 162.12 77.46 162.88"/><polygon class="cls-1" points="78.15 161.87 78.02 162.06 76.71 161.27 76.9 160.97 78.15 161.87"/><polygon class="cls-1" points="78.94 160.94 78.79 161.12 77.57 160.19 77.8 159.92 78.94 160.94"/><polygon class="cls-1" points="79.82 160.09 79.65 160.26 78.54 159.21 78.79 158.96 79.82 160.09"/><polygon class="cls-1" points="80.79 159.35 80.6 159.49 79.61 158.33 79.88 158.11 80.79 159.35"/><polygon class="cls-1" points="81.82 158.71 81.63 158.83 80.76 157.57 81.05 157.38 81.82 158.71"/><polygon class="cls-1" points="82.72 158.28 82.92 158.17 82.29 156.78 81.98 156.94 82.72 158.28"/><polygon class="cls-1" points="83.85 157.85 84.07 157.76 83.59 156.31 83.27 156.43 83.85 157.85"/><polygon class="cls-1" points="85.26 157.47 85.03 157.53 84.59 156.06 84.93 155.98 85.26 157.47"/><polygon class="cls-1" points="86.47 157.31 86.24 157.34 85.96 155.84 86.3 155.79 86.47 157.31"/><polygon class="cls-1" points="87.69 157.27 87.46 157.28 87.33 155.76 87.68 155.74 87.69 157.27"/><polygon class="cls-1" points="88.91 157.36 88.68 157.35 88.71 155.82 89.06 155.84 88.91 157.36"/><polygon class="cls-1" points="90.11 157.58 89.88 157.54 90.08 156.03 90.42 156.08 90.11 157.58"/><polygon class="cls-1" points="91.28 157.93 91.06 157.86 91.41 156.37 91.75 156.47 91.28 157.93"/><polygon class="cls-1" points="92.41 158.39 92.19 158.3 92.7 156.86 93.03 156.99 92.41 158.39"/><polygon class="cls-1" points="93.49 158.97 93.28 158.86 93.93 157.47 94.24 157.64 93.49 158.97"/><polygon class="cls-1" points="94.5 159.66 94.3 159.52 95.1 158.22 95.39 158.41 94.5 159.66"/><polygon class="cls-1" points="95.43 160.44 95.25 160.3 96.17 159.08 96.44 159.3 95.43 160.44"/><polygon class="cls-1" points="96.27 161.33 96.11 161.16 97.16 160.05 97.4 160.3 96.27 161.33"/><polygon class="cls-1" points="97.02 162.29 96.87 162.11 98.03 161.11 98.25 161.39 97.02 162.29"/><polygon class="cls-1" points="97.66 163.33 97.53 163.13 98.79 162.26 98.98 162.56 97.66 163.33"/><polygon class="cls-1" points="98.19 164.43 99.58 163.8 99.43 163.49 98.08 164.22 98.19 164.43"/><polygon class="cls-1" points="98.6 165.58 100.05 165.1 99.93 164.77 98.52 165.36 98.6 165.58"/><polygon class="cls-1" points="98.89 166.77 98.83 166.54 100.3 166.1 100.38 166.44 98.89 166.77"/><polygon class="cls-1" points="99.05 167.98 99.02 167.74 100.52 167.46 100.57 167.81 99.05 167.98"/><polygon class="cls-1" points="99.09 169.2 99.08 168.96 100.6 168.84 100.62 169.19 99.09 169.2"/><polygon class="cls-1" points="99 170.41 99.01 170.18 100.54 170.22 100.52 170.56 99 170.41"/><polygon class="cls-1" points="98.78 171.62 98.82 171.38 100.34 171.58 100.28 171.93 98.78 171.62"/><polygon class="cls-1" points="98.44 172.79 98.5 172.56 99.99 172.92 99.89 173.25 98.44 172.79"/><polygon class="cls-1" points="97.97 173.92 98.06 173.7 99.5 174.21 99.38 174.53 97.97 173.92"/><polygon class="cls-1" points="97.39 174.99 97.5 174.78 98.89 175.44 98.73 175.75 97.39 174.99"/><polygon class="cls-1" points="96.71 176 96.84 175.81 98.14 176.6 97.95 176.9 96.71 176"/><polygon class="cls-1" points="95.92 176.93 96.07 176.75 97.28 177.68 97.06 177.95 95.92 176.93"/><polygon class="cls-1" points="95.04 177.78 95.2 177.61 96.32 178.66 96.07 178.91 95.04 177.78"/><polygon class="cls-1" points="94.07 178.52 94.25 178.38 95.25 179.54 94.98 179.76 94.07 178.52"/><polygon class="cls-1" points="93.03 179.16 93.23 179.04 94.1 180.3 93.8 180.49 93.03 179.16"/><polygon class="cls-1" points="92.56 181.09 92.88 180.93 92.14 179.59 91.93 179.69 92.56 181.09"/><polygon class="cls-1" points="91.59 181.44 91 180.02 90.78 180.11 91.26 181.56 91.59 181.44"/><polygon class="cls-1" points="89.59 180.4 89.82 180.34 90.26 181.8 89.92 181.89 89.59 180.4"/><polygon class="cls-1" points="88.39 180.56 88.62 180.53 88.9 182.03 88.55 182.08 88.39 180.56"/><polygon class="cls-1" points="87.16 180.6 87.4 180.59 87.52 182.11 87.17 182.13 87.16 180.6"/><polygon class="cls-1" points="85.95 180.5 86.18 180.52 86.14 182.05 85.8 182.03 85.95 180.5"/><polygon class="cls-1" points="84.75 180.29 84.98 180.32 84.78 181.84 84.44 181.78 84.75 180.29"/><polygon class="cls-1" points="83.58 179.94 83.8 180.01 83.45 181.5 83.11 181.4 83.58 179.94"/><polygon class="cls-1" points="82.44 179.48 82.66 179.57 82.16 181.01 81.83 180.88 82.44 179.48"/><polygon class="cls-1" points="81.37 178.9 81.58 179.01 80.92 180.4 80.61 180.23 81.37 178.9"/><polygon class="cls-1" points="80.36 178.21 80.56 178.34 79.76 179.65 79.47 179.46 80.36 178.21"/><polygon class="cls-1" points="79.43 177.43 79.61 177.57 78.68 178.79 78.41 178.57 79.43 177.43"/><polygon class="cls-1" points="78.59 176.54 78.75 176.71 77.7 177.82 77.45 177.57 78.59 176.54"/><polygon class="cls-1" points="77.84 175.58 77.98 175.76 76.82 176.76 76.61 176.48 77.84 175.58"/><polygon class="cls-1" points="77.2 174.54 77.33 174.74 76.06 175.6 75.88 175.31 77.2 174.54"/><polygon class="cls-1" points="75.27 174.07 75.43 174.38 76.77 173.65 76.67 173.44 75.27 174.07"/><polygon class="cls-1" points="74.93 173.1 76.34 172.51 76.26 172.29 74.8 172.77 74.93 173.1"/><path class="cls-1" d="M1304.28,772.61a15,15,0,1,0,8.78-19.25A15,15,0,0,0,1304.28,772.61Zm25.88-9.67a12.67,12.67,0,1,1-16.3-7.44A12.67,12.67,0,0,1,1330.17,762.95Z" transform="translate(-1132.68 -635.12)"/><polygon class="cls-1" points="177.46 133.8 177.5 133.97 176.45 134.28 176.39 134.04 177.46 133.8"/><polygon class="cls-1" points="177.34 132.94 177.36 133.11 176.29 133.31 176.26 133.06 177.34 132.94"/><polygon class="cls-1" points="177.31 132.07 177.32 132.24 176.24 132.33 176.22 132.08 177.31 132.07"/><polygon class="cls-1" points="177.38 131.21 177.37 131.37 176.28 131.35 176.3 131.1 177.38 131.21"/><polygon class="cls-1" points="177.53 130.35 177.51 130.51 176.43 130.38 176.47 130.13 177.53 130.35"/><polygon class="cls-1" points="177.78 129.52 177.74 129.68 176.67 129.42 176.74 129.19 177.78 129.52"/><polygon class="cls-1" points="178.11 128.71 178.05 128.87 177.02 128.5 177.11 128.27 178.11 128.71"/><polygon class="cls-1" points="178.52 127.94 178.44 128.09 177.46 127.63 177.57 127.41 178.52 127.94"/><polygon class="cls-1" points="179.01 127.23 178.92 127.37 177.99 126.8 178.13 126.59 179.01 127.23"/><polygon class="cls-1" points="179.57 126.56 179.47 126.69 178.6 126.03 178.76 125.84 179.57 126.56"/><polygon class="cls-1" points="180.2 125.96 180.08 126.08 179.29 125.33 179.47 125.16 180.2 125.96"/><polygon class="cls-1" points="180.89 125.43 180.76 125.53 180.05 124.71 180.24 124.55 180.89 125.43"/><polygon class="cls-1" points="181.63 124.97 181.49 125.06 180.87 124.17 181.08 124.03 181.63 124.97"/><polygon class="cls-1" points="182.26 124.67 182.41 124.6 181.96 123.6 181.74 123.71 182.26 124.67"/><polygon class="cls-1" points="183.07 124.36 183.23 124.3 182.89 123.27 182.66 123.36 183.07 124.36"/><polygon class="cls-1" points="184.08 124.1 183.91 124.14 183.6 123.09 183.84 123.03 184.08 124.1"/><polygon class="cls-1" points="184.94 123.98 184.77 124 184.57 122.93 184.82 122.9 184.94 123.98"/><polygon class="cls-1" points="185.81 123.95 185.64 123.96 185.55 122.87 185.8 122.86 185.81 123.95"/><polygon class="cls-1" points="186.68 124.02 186.51 124.01 186.53 122.92 186.78 122.94 186.68 124.02"/><polygon class="cls-1" points="187.53 124.17 187.37 124.15 187.51 123.06 187.75 123.11 187.53 124.17"/><polygon class="cls-1" points="188.37 124.42 188.2 124.37 188.46 123.31 188.7 123.38 188.37 124.42"/><polygon class="cls-1" points="189.17 124.75 189.01 124.69 189.38 123.66 189.61 123.75 189.17 124.75"/><polygon class="cls-1" points="189.94 125.16 189.79 125.08 190.26 124.1 190.47 124.21 189.94 125.16"/><polygon class="cls-1" points="190.65 125.65 190.51 125.56 191.08 124.63 191.29 124.77 190.65 125.65"/><polygon class="cls-1" points="191.32 126.21 191.19 126.11 191.85 125.24 192.04 125.4 191.32 126.21"/><polygon class="cls-1" points="191.92 126.84 191.8 126.72 192.55 125.93 192.72 126.11 191.92 126.84"/><polygon class="cls-1" points="192.45 127.53 192.34 127.4 193.17 126.69 193.33 126.89 192.45 127.53"/><polygon class="cls-1" points="192.91 128.27 192.82 128.13 193.71 127.51 193.85 127.72 192.91 128.27"/><polygon class="cls-1" points="193.28 129.05 194.28 128.6 194.17 128.38 193.21 128.9 193.28 129.05"/><polygon class="cls-1" points="193.58 129.87 194.61 129.53 194.53 129.3 193.52 129.72 193.58 129.87"/><polygon class="cls-1" points="193.78 130.72 193.74 130.56 194.79 130.24 194.85 130.48 193.78 130.72"/><polygon class="cls-1" points="193.9 131.58 193.88 131.41 194.95 131.21 194.98 131.46 193.9 131.58"/><polygon class="cls-1" points="193.93 132.45 193.92 132.28 195.01 132.19 195.02 132.44 193.93 132.45"/><polygon class="cls-1" points="193.86 133.31 193.87 133.15 194.96 133.17 194.95 133.42 193.86 133.31"/><polygon class="cls-1" points="193.71 134.17 193.73 134 194.81 134.15 194.77 134.39 193.71 134.17"/><polygon class="cls-1" points="193.46 135.01 193.51 134.84 194.57 135.1 194.5 135.34 193.46 135.01"/><polygon class="cls-1" points="193.13 135.81 193.19 135.65 194.22 136.02 194.13 136.25 193.13 135.81"/><polygon class="cls-1" points="192.72 136.57 192.8 136.43 193.78 136.89 193.67 137.12 192.72 136.57"/><polygon class="cls-1" points="192.23 137.29 192.32 137.16 193.25 137.72 193.12 137.93 192.23 137.29"/><polygon class="cls-1" points="191.67 137.96 191.77 137.83 192.64 138.49 192.48 138.68 191.67 137.96"/><polygon class="cls-1" points="191.04 138.56 191.16 138.44 191.95 139.19 191.77 139.36 191.04 138.56"/><polygon class="cls-1" points="190.35 139.09 190.48 138.99 191.19 139.81 191 139.97 190.35 139.09"/><polygon class="cls-1" points="189.61 139.55 189.75 139.46 190.37 140.35 190.16 140.49 189.61 139.55"/><polygon class="cls-1" points="189.28 140.92 189.5 140.81 188.98 139.85 188.83 139.92 189.28 140.92"/><polygon class="cls-1" points="188.59 141.17 188.17 140.16 188.01 140.22 188.35 141.25 188.59 141.17"/><polygon class="cls-1" points="187.16 140.42 187.33 140.38 187.64 141.43 187.4 141.49 187.16 140.42"/><polygon class="cls-1" points="186.3 140.54 186.47 140.52 186.67 141.59 186.42 141.62 186.3 140.54"/><polygon class="cls-1" points="185.43 140.56 185.6 140.56 185.69 141.65 185.44 141.66 185.43 140.56"/><polygon class="cls-1" points="184.56 140.5 184.73 140.51 184.71 141.6 184.46 141.59 184.56 140.5"/><polygon class="cls-1" points="183.71 140.35 183.88 140.37 183.73 141.46 183.49 141.41 183.71 140.35"/><polygon class="cls-1" points="182.88 140.1 183.04 140.15 182.78 141.21 182.54 141.14 182.88 140.1"/><polygon class="cls-1" points="182.07 139.77 182.23 139.83 181.86 140.86 181.63 140.77 182.07 139.77"/><polygon class="cls-1" points="181.31 139.36 181.45 139.44 180.99 140.42 180.77 140.31 181.31 139.36"/><polygon class="cls-1" points="180.59 138.87 180.72 138.96 180.16 139.89 179.95 139.75 180.59 138.87"/><polygon class="cls-1" points="179.92 138.31 180.05 138.41 179.39 139.28 179.2 139.12 179.92 138.31"/><polygon class="cls-1" points="179.32 137.68 179.44 137.8 178.69 138.59 178.52 138.41 179.32 137.68"/><polygon class="cls-1" points="178.79 136.99 178.89 137.12 178.07 137.83 177.91 137.64 178.79 136.99"/><polygon class="cls-1" points="178.33 136.25 178.42 136.39 177.53 137.01 177.39 136.8 178.33 136.25"/><polygon class="cls-1" points="176.96 135.92 177.07 136.14 178.03 135.62 177.96 135.47 176.96 135.92"/><polygon class="cls-1" points="176.72 135.22 177.72 134.81 177.66 134.65 176.63 134.99 176.72 135.22"/><polygon class="cls-1" points="76.47 84.71 76.63 85.31 72.74 86.47 72.51 85.58 76.47 84.71"/><polygon class="cls-1" points="76.04 81.5 76.13 82.12 72.14 82.86 72 81.95 76.04 81.5"/><polygon class="cls-1" points="75.94 78.27 75.97 78.89 71.92 79.22 71.88 78.29 75.94 78.27"/><polygon class="cls-1" points="76.18 75.04 76.14 75.66 72.09 75.56 72.14 74.64 76.18 75.04"/><polygon class="cls-1" points="76.76 71.86 76.66 72.47 72.63 71.95 72.79 71.03 76.76 71.86"/><polygon class="cls-1" points="77.67 68.75 77.5 69.35 73.56 68.41 73.8 67.52 77.67 68.75"/><polygon class="cls-1" points="78.9 65.75 78.67 66.33 74.84 64.99 75.18 64.13 78.9 65.75"/><polygon class="cls-1" points="80.43 62.9 80.14 63.45 76.47 61.72 76.9 60.9 80.43 62.9"/><polygon class="cls-1" points="82.25 60.23 81.91 60.75 78.45 58.64 78.96 57.86 82.25 60.23"/><polygon class="cls-1" points="84.35 57.76 83.95 58.24 80.73 55.78 81.31 55.06 84.35 57.76"/><polygon class="cls-1" points="86.69 55.53 86.24 55.96 83.29 53.17 83.95 52.53 86.69 55.53"/><polygon class="cls-1" points="89.25 53.55 88.76 53.93 86.12 50.85 86.84 50.28 89.25 53.55"/><polygon class="cls-1" points="92 51.85 91.47 52.18 89.17 48.84 89.95 48.34 92 51.85"/><polygon class="cls-1" points="94.36 50.72 94.92 50.44 93.24 46.74 92.42 47.16 94.36 50.72"/><polygon class="cls-1" points="97.38 49.57 97.96 49.35 96.69 45.5 95.82 45.82 97.38 49.57"/><polygon class="cls-1" points="101.11 48.58 100.5 48.74 99.34 44.85 100.24 44.62 101.11 48.58"/><polygon class="cls-1" points="104.31 48.15 103.7 48.24 102.95 44.25 103.87 44.12 104.31 48.15"/><polygon class="cls-1" points="107.55 48.05 106.93 48.08 106.6 44.03 107.53 43.99 107.55 48.05"/><polygon class="cls-1" points="110.78 48.29 110.16 48.26 110.25 44.2 111.18 44.26 110.78 48.29"/><polygon class="cls-1" points="113.96 48.87 113.35 48.77 113.87 44.74 114.78 44.9 113.96 48.87"/><polygon class="cls-1" points="117.07 49.78 116.47 49.61 117.41 45.67 118.3 45.91 117.07 49.78"/><polygon class="cls-1" points="120.06 51.01 119.48 50.78 120.83 46.95 121.69 47.29 120.06 51.01"/><polygon class="cls-1" points="122.91 52.54 122.36 52.26 124.1 48.59 124.92 49.02 122.91 52.54"/><polygon class="cls-1" points="125.58 54.37 125.07 54.02 127.18 50.56 127.95 51.07 125.58 54.37"/><polygon class="cls-1" points="128.06 56.46 127.57 56.06 130.04 52.84 130.75 53.43 128.06 56.46"/><polygon class="cls-1" points="130.29 58.8 129.85 58.35 132.64 55.4 133.29 56.06 130.29 58.8"/><polygon class="cls-1" points="132.27 61.36 131.88 60.87 134.96 58.23 135.54 58.95 132.27 61.36"/><polygon class="cls-1" points="133.97 64.11 133.63 63.59 136.97 61.28 137.47 62.06 133.97 64.11"/><polygon class="cls-1" points="135.37 67.03 139.07 65.36 138.66 64.53 135.1 66.47 135.37 67.03"/><polygon class="cls-1" points="136.47 70.07 140.32 68.8 139.99 67.93 136.25 69.49 136.47 70.07"/><polygon class="cls-1" points="137.23 73.22 137.08 72.62 140.97 71.45 141.2 72.35 137.23 73.22"/><polygon class="cls-1" points="137.67 76.43 137.57 75.81 141.56 75.06 141.7 75.98 137.67 76.43"/><polygon class="cls-1" points="137.76 79.66 137.74 79.04 141.78 78.71 141.82 79.64 137.76 79.66"/><polygon class="cls-1" points="137.52 82.89 137.56 82.27 141.62 82.36 141.56 83.29 137.52 82.89"/><polygon class="cls-1" points="136.94 86.07 137.05 85.46 141.07 85.98 140.92 86.89 136.94 86.07"/><polygon class="cls-1" points="136.03 89.18 136.2 88.58 140.15 89.52 139.9 90.41 136.03 89.18"/><polygon class="cls-1" points="134.81 92.17 135.04 91.6 138.86 92.94 138.53 93.8 134.81 92.17"/><polygon class="cls-1" points="133.27 95.02 133.56 94.47 137.23 96.21 136.8 97.03 133.27 95.02"/><polygon class="cls-1" points="131.45 97.7 131.79 97.18 135.26 99.29 134.75 100.06 131.45 97.7"/><polygon class="cls-1" points="129.36 100.17 129.75 99.69 132.98 102.15 132.39 102.86 129.36 100.17"/><polygon class="cls-1" points="127.02 102.4 127.46 101.97 130.41 104.75 129.75 105.4 127.02 102.4"/><polygon class="cls-1" points="124.46 104.38 124.94 103.99 127.59 107.07 126.86 107.65 124.46 104.38"/><polygon class="cls-1" points="121.7 106.08 122.23 105.75 124.53 109.09 123.75 109.58 121.7 106.08"/><polygon class="cls-1" points="120.46 111.18 121.29 110.77 119.34 107.21 118.79 107.48 120.46 111.18"/><polygon class="cls-1" points="117.88 112.11 116.33 108.36 115.74 108.58 117.02 112.43 117.88 112.11"/><polygon class="cls-1" points="112.6 109.34 113.2 109.19 114.36 113.08 113.46 113.31 112.6 109.34"/><polygon class="cls-1" points="109.39 109.78 110.01 109.69 110.75 113.67 109.84 113.81 109.39 109.78"/><polygon class="cls-1" points="106.15 109.88 106.78 109.85 107.1 113.89 106.18 113.93 106.15 109.88"/><polygon class="cls-1" points="102.93 109.63 103.55 109.67 103.45 113.73 102.53 113.67 102.93 109.63"/><polygon class="cls-1" points="99.74 109.06 100.36 109.16 99.84 113.18 98.92 113.03 99.74 109.06"/><polygon class="cls-1" points="96.64 108.15 97.23 108.31 96.3 112.26 95.41 112.01 96.64 108.15"/><polygon class="cls-1" points="93.64 106.92 94.22 107.15 92.88 110.98 92.01 110.64 93.64 106.92"/><polygon class="cls-1" points="90.79 105.39 91.34 105.67 89.61 109.34 88.78 108.91 90.79 105.39"/><polygon class="cls-1" points="88.12 103.56 88.64 103.91 86.52 107.37 85.75 106.86 88.12 103.56"/><polygon class="cls-1" points="85.65 101.47 86.13 101.86 83.67 105.09 82.95 104.5 85.65 101.47"/><polygon class="cls-1" points="83.42 99.13 83.85 99.57 81.06 102.52 80.41 101.86 83.42 99.13"/><polygon class="cls-1" points="81.43 96.57 81.82 97.06 78.74 99.7 78.17 98.97 81.43 96.57"/><polygon class="cls-1" points="79.73 93.81 80.07 94.34 76.73 96.65 76.23 95.86 79.73 93.81"/><polygon class="cls-1" points="74.63 92.57 75.05 93.4 78.61 91.46 78.33 90.9 74.63 92.57"/><polygon class="cls-1" points="73.71 90 77.46 88.44 77.24 87.85 73.39 89.13 73.71 90"/><path class="cls-1" d="M1199.58,729a42.64,42.64,0,1,0,25-54.87A42.64,42.64,0,0,0,1199.58,729Zm78-29.14A40.64,40.64,0,1,1,1225.31,676,40.64,40.64,0,0,1,1277.6,699.86Z" transform="translate(-1132.68 -635.12)"/><path class="cls-1" d="M1223.31,782.74a0.57,0.57,0,0,1,0,.35l-0.08.27a0.57,0.57,0,1,1-1.09-.31l0.08-.27A0.57,0.57,0,0,1,1223.31,782.74Z" transform="translate(-1132.68 -635.12)"/><path class="cls-1" d="M1230.74,756.77a0.56,0.56,0,0,1,0,.35l-0.15.52a0.57,0.57,0,0,1-1.09-.31l0.15-.52A0.57,0.57,0,0,1,1230.74,756.77Zm-0.74,2.6a0.57,0.57,0,0,1,0,.35l-0.15.52a0.57,0.57,0,0,1-1.09-.31l0.15-.52A0.57,0.57,0,0,1,1230,759.36Zm-0.74,2.6a0.57,0.57,0,0,1,0,.35l-0.15.52a0.57,0.57,0,0,1-1.09-.31l0.15-.52A0.57,0.57,0,0,1,1229.25,762Zm-0.74,2.6a0.56,0.56,0,0,1,0,.35l-0.15.52a0.57,0.57,0,0,1-1.09-.31l0.15-.52A0.57,0.57,0,0,1,1228.51,764.56Zm-0.74,2.6a0.57,0.57,0,0,1,0,.35l-0.15.52a0.57,0.57,0,0,1-1.09-.31l0.15-.52a0.57,0.57,0,0,1,.7-0.39A0.57,0.57,0,0,1,1227.77,767.16Zm-0.74,2.6a0.57,0.57,0,0,1,0,.35l-0.15.52a0.57,0.57,0,1,1-1.09-.31l0.15-.52A0.57,0.57,0,0,1,1227,769.75Zm-0.74,2.6a0.56,0.56,0,0,1,0,.35l-0.15.52a0.57,0.57,0,1,1-1.09-.31l0.15-.52A0.57,0.57,0,0,1,1226.28,772.35Zm-0.74,2.6a0.56,0.56,0,0,1,0,.35l-0.15.52a0.57,0.57,0,0,1-1.09-.31l0.15-.52A0.57,0.57,0,0,1,1225.54,774.95Zm-0.74,2.6a0.57,0.57,0,0,1,0,.35l-0.15.52a0.57,0.57,0,1,1-1.09-.31l0.15-.52A0.57,0.57,0,0,1,1224.8,777.55Zm-0.74,2.6a0.56,0.56,0,0,1,0,.35l-0.15.52a0.57,0.57,0,0,1-1.09-.31l0.15-.52A0.57,0.57,0,0,1,1224.06,780.14Z" transform="translate(-1132.68 -635.12)"/><path class="cls-1" d="M1231.41,754.42a0.57,0.57,0,0,1,0,.35l-0.08.27a0.57,0.57,0,0,1-1.09-.31l0.08-.27A0.57,0.57,0,0,1,1231.41,754.42Z" transform="translate(-1132.68 -635.12)"/><path class="cls-1" d="M1308.65,758.46a0.57,0.57,0,0,1-.84.67l-0.24-.15a0.57,0.57,0,1,1,.61-1l0.24,0.15A0.56,0.56,0,0,1,1308.65,758.46Z" transform="translate(-1132.68 -635.12)"/><path class="cls-1" d="M1306.48,757.06a0.56,0.56,0,0,1-.84.67l-0.48-.31a0.57,0.57,0,1,1,.61-1l0.48,0.31A0.56,0.56,0,0,1,1306.48,757.06Zm-2.41-1.56a0.57,0.57,0,0,1-.84.68l-0.48-.31a0.57,0.57,0,1,1,.61-1l0.48,0.31A0.56,0.56,0,0,1,1304.06,755.51Zm-2.41-1.55a0.57,0.57,0,0,1-.84.68l-0.48-.31a0.57,0.57,0,0,1,.61-1l0.48,0.31A0.57,0.57,0,0,1,1301.65,754Zm-2.41-1.55a0.57,0.57,0,0,1-.84.67l-0.48-.31a0.57,0.57,0,0,1,.61-1l0.48,0.31A0.55,0.55,0,0,1,1299.24,752.4Zm-2.41-1.55a0.57,0.57,0,0,1-.84.67l-0.48-.31a0.57,0.57,0,1,1,.61-1l0.48,0.31A0.56,0.56,0,0,1,1296.83,750.85Zm-2.41-1.55a0.57,0.57,0,0,1-.84.67l-0.48-.31a0.57,0.57,0,0,1,.61-1l0.48,0.31A0.56,0.56,0,0,1,1294.41,749.29Zm-2.41-1.55a0.57,0.57,0,0,1-.84.67l-0.48-.31a0.57,0.57,0,0,1,.61-1l0.48,0.31A0.55,0.55,0,0,1,1292,747.74Zm-2.41-1.55a0.56,0.56,0,0,1-.05.5,0.57,0.57,0,0,1-.78.17l-0.48-.31a0.57,0.57,0,1,1,.61-1l0.48,0.31A0.57,0.57,0,0,1,1289.59,746.19Zm-2.41-1.55a0.57,0.57,0,0,1-.84.67l-0.48-.31a0.57,0.57,0,1,1,.61-1l0.48,0.31A0.56,0.56,0,0,1,1287.18,744.63Zm-2.41-1.55a0.57,0.57,0,0,1-.84.67l-0.48-.31a0.57,0.57,0,0,1,.61-1l0.48,0.31A0.56,0.56,0,0,1,1284.76,743.08Zm-2.41-1.55a0.57,0.57,0,0,1-.84.67l-0.48-.31a0.57,0.57,0,0,1,.61-1l0.48,0.31A0.57,0.57,0,0,1,1282.35,741.52Zm-2.41-1.55a0.57,0.57,0,0,1-.84.68l-0.48-.31a0.57,0.57,0,0,1,.61-1l0.48,0.31A0.56,0.56,0,0,1,1279.94,740Zm-2.41-1.55a0.57,0.57,0,0,1-.84.67l-0.48-.31a0.57,0.57,0,0,1,.61-1l0.48,0.31A0.57,0.57,0,0,1,1277.52,738.41Z" transform="translate(-1132.68 -635.12)"/><path class="cls-1" d="M1275.11,736.86a0.56,0.56,0,0,1-.84.67l-0.24-.15a0.57,0.57,0,1,1,.61-1l0.24,0.15A0.58,0.58,0,0,1,1275.11,736.86Z" transform="translate(-1132.68 -635.12)"/><path class="cls-1" d="M1162.27,827.76a15,15,0,1,0,8.78,19.25A15,15,0,0,0,1162.27,827.76Zm-0.8,2.15a12.67,12.67,0,1,1-16.3,7.44A12.67,12.67,0,0,1,1161.47,829.91Z" transform="translate(-1132.68 -635.12)"/><polygon class="cls-1" points="32.52 208.2 32.48 208.37 33.52 208.68 33.59 208.44 32.52 208.2"/><polygon class="cls-1" points="32.64 207.34 32.61 207.51 33.68 207.71 33.72 207.46 32.64 207.34"/><polygon class="cls-1" points="32.66 206.47 32.66 206.64 33.74 206.73 33.75 206.48 32.66 206.47"/><polygon class="cls-1" points="32.6 205.6 32.61 205.77 33.7 205.75 33.68 205.5 32.6 205.6"/><polygon class="cls-1" points="32.44 204.75 32.47 204.91 33.55 204.77 33.51 204.53 32.44 204.75"/><polygon class="cls-1" points="32.2 203.91 32.24 204.07 33.3 203.82 33.24 203.58 32.2 203.91"/><polygon class="cls-1" points="31.87 203.11 31.93 203.26 32.96 202.9 32.87 202.67 31.87 203.11"/><polygon class="cls-1" points="31.46 202.34 31.53 202.49 32.52 202.02 32.41 201.81 31.46 202.34"/><polygon class="cls-1" points="30.97 201.63 31.06 201.77 31.99 201.2 31.85 200.99 30.97 201.63"/><polygon class="cls-1" points="30.41 200.96 30.51 201.09 31.38 200.43 31.22 200.24 30.41 200.96"/><polygon class="cls-1" points="29.78 200.36 29.89 200.48 30.69 199.73 30.51 199.56 29.78 200.36"/><polygon class="cls-1" points="29.09 199.83 29.22 199.93 29.93 199.1 29.73 198.95 29.09 199.83"/><polygon class="cls-1" points="28.35 199.37 28.49 199.46 29.11 198.56 28.9 198.43 28.35 199.37"/><polygon class="cls-1" points="27.71 199.07 27.57 199 28.01 198 28.23 198.11 27.71 199.07"/><polygon class="cls-1" points="26.9 198.76 26.75 198.7 27.09 197.67 27.32 197.75 26.9 198.76"/><polygon class="cls-1" points="25.9 198.5 26.06 198.54 26.38 197.49 26.13 197.43 25.9 198.5"/><polygon class="cls-1" points="25.04 198.38 25.2 198.4 25.41 197.33 25.16 197.3 25.04 198.38"/><polygon class="cls-1" points="24.17 198.35 24.34 198.36 24.43 197.27 24.18 197.26 24.17 198.35"/><polygon class="cls-1" points="23.3 198.42 23.47 198.41 23.44 197.32 23.2 197.33 23.3 198.42"/><polygon class="cls-1" points="22.45 198.57 22.61 198.55 22.47 197.47 22.23 197.51 22.45 198.57"/><polygon class="cls-1" points="21.61 198.82 21.77 198.77 21.52 197.71 21.28 197.78 21.61 198.82"/><polygon class="cls-1" points="20.81 199.15 20.96 199.09 20.6 198.06 20.37 198.15 20.81 199.15"/><polygon class="cls-1" points="20.04 199.56 20.19 199.48 19.72 198.5 19.5 198.61 20.04 199.56"/><polygon class="cls-1" points="19.32 200.05 19.46 199.96 18.89 199.03 18.69 199.16 19.32 200.05"/><polygon class="cls-1" points="18.66 200.61 18.79 200.51 18.13 199.64 17.93 199.8 18.66 200.61"/><polygon class="cls-1" points="18.06 201.24 18.18 201.12 17.43 200.33 17.25 200.51 18.06 201.24"/><polygon class="cls-1" points="17.53 201.93 17.63 201.8 16.8 201.09 16.65 201.28 17.53 201.93"/><polygon class="cls-1" points="17.07 202.67 17.16 202.53 16.26 201.91 16.13 202.12 17.07 202.67"/><polygon class="cls-1" points="16.69 203.45 15.7 203 15.81 202.78 16.77 203.3 16.69 203.45"/><polygon class="cls-1" points="16.4 204.27 15.37 203.93 15.45 203.69 16.46 204.11 16.4 204.27"/><polygon class="cls-1" points="16.19 205.12 16.24 204.95 15.19 204.64 15.13 204.88 16.19 205.12"/><polygon class="cls-1" points="16.08 205.98 16.1 205.81 15.03 205.61 14.99 205.86 16.08 205.98"/><polygon class="cls-1" points="16.05 206.85 16.06 206.68 14.97 206.59 14.96 206.84 16.05 206.85"/><polygon class="cls-1" points="16.12 207.71 16.11 207.55 15.02 207.57 15.03 207.82 16.12 207.71"/><polygon class="cls-1" points="16.27 208.57 16.24 208.4 15.16 208.54 15.2 208.79 16.27 208.57"/><polygon class="cls-1" points="16.52 209.4 16.47 209.24 15.41 209.5 15.48 209.74 16.52 209.4"/><polygon class="cls-1" points="16.84 210.21 16.78 210.05 15.76 210.41 15.85 210.65 16.84 210.21"/><polygon class="cls-1" points="17.26 210.97 17.18 210.83 16.2 211.29 16.31 211.51 17.26 210.97"/><polygon class="cls-1" points="17.75 211.69 17.66 211.56 16.72 212.12 16.86 212.33 17.75 211.69"/><polygon class="cls-1" points="18.31 212.36 18.2 212.23 17.34 212.89 17.5 213.08 18.31 212.36"/><polygon class="cls-1" points="18.94 212.96 18.82 212.84 18.03 213.59 18.2 213.76 18.94 212.96"/><polygon class="cls-1" points="19.63 213.49 19.5 213.38 18.79 214.21 18.98 214.37 19.63 213.49"/><polygon class="cls-1" points="20.37 213.95 20.23 213.86 19.61 214.75 19.82 214.89 20.37 213.95"/><polygon class="cls-1" points="20.7 215.32 20.48 215.21 21 214.25 21.15 214.32 20.7 215.32"/><polygon class="cls-1" points="21.39 215.56 21.81 214.56 21.97 214.62 21.63 215.65 21.39 215.56"/><polygon class="cls-1" points="22.81 214.82 22.65 214.78 22.34 215.83 22.58 215.89 22.81 214.82"/><polygon class="cls-1" points="23.68 214.94 23.51 214.92 23.31 215.99 23.55 216.02 23.68 214.94"/><polygon class="cls-1" points="24.55 214.97 24.38 214.96 24.29 216.04 24.54 216.06 24.55 214.97"/><polygon class="cls-1" points="25.41 214.9 25.25 214.91 25.27 216 25.52 215.99 25.41 214.9"/><polygon class="cls-1" points="26.27 214.75 26.1 214.77 26.24 215.85 26.49 215.81 26.27 214.75"/><polygon class="cls-1" points="27.1 214.5 26.94 214.55 27.19 215.6 27.43 215.54 27.1 214.5"/><polygon class="cls-1" points="27.91 214.17 27.75 214.23 28.11 215.26 28.34 215.17 27.91 214.17"/><polygon class="cls-1" points="28.67 213.76 28.52 213.84 28.99 214.82 29.21 214.71 28.67 213.76"/><polygon class="cls-1" points="29.39 213.27 29.25 213.36 29.82 214.29 30.03 214.15 29.39 213.27"/><polygon class="cls-1" points="30.05 212.71 29.93 212.81 30.59 213.68 30.78 213.52 30.05 212.71"/><polygon class="cls-1" points="30.66 212.08 30.54 212.2 31.29 212.99 31.46 212.81 30.66 212.08"/><polygon class="cls-1" points="31.19 211.39 31.08 211.52 31.91 212.23 32.07 212.04 31.19 211.39"/><polygon class="cls-1" points="31.64 210.65 31.55 210.79 32.45 211.41 32.59 211.2 31.64 210.65"/><polygon class="cls-1" points="33.02 210.32 32.91 210.54 31.95 210.02 32.02 209.87 33.02 210.32"/><polygon class="cls-1" points="33.26 209.62 32.26 209.2 32.31 209.05 33.35 209.39 33.26 209.62"/><path class="cls-2" d="M1174.54,756.11a21,21,0,1,0-23.4,18.3A21,21,0,0,0,1174.54,756.11Zm-3.2-.39a17.79,17.79,0,1,1-15.49-19.82A17.78,17.78,0,0,1,1171.34,755.72Z" transform="translate(-1132.68 -635.12)"/><polygon class="cls-2" points="21.58 130.09 21.34 130.09 21.26 131.62 21.61 131.62 21.58 130.09"/><polygon class="cls-2" points="22.79 129.97 22.56 129.99 22.63 131.52 22.98 131.49 22.79 129.97"/><polygon class="cls-2" points="23.99 129.72 23.76 129.76 23.99 131.27 24.34 131.21 23.99 129.72"/><polygon class="cls-2" points="25.15 129.35 24.93 129.41 25.32 130.89 25.65 130.79 25.15 129.35"/><polygon class="cls-2" points="26.27 128.85 26.05 128.95 26.6 130.38 26.92 130.24 26.27 128.85"/><polygon class="cls-2" points="27.33 128.25 27.12 128.36 27.81 129.73 28.12 129.56 27.33 128.25"/><polygon class="cls-2" points="28.32 127.53 28.12 127.67 28.96 128.95 29.24 128.75 28.32 127.53"/><polygon class="cls-2" points="29.23 126.72 29.05 126.87 30.01 128.06 30.27 127.84 29.23 126.72"/><polygon class="cls-2" points="30.05 125.81 29.89 125.99 30.97 127.07 31.21 126.81 30.05 125.81"/><polygon class="cls-2" points="30.77 124.83 30.63 125.02 31.82 125.98 32.02 125.7 30.77 124.83"/><polygon class="cls-2" points="31.38 123.77 31.26 123.97 32.54 124.81 32.72 124.52 31.38 123.77"/><polygon class="cls-2" points="31.88 122.66 31.78 122.87 33.15 123.57 33.3 123.25 31.88 122.66"/><polygon class="cls-2" points="32.26 121.5 32.19 121.72 33.62 122.28 33.73 121.94 32.26 121.5"/><polygon class="cls-2" points="32.47 120.54 32.52 120.31 34.03 120.6 33.95 120.94 32.47 120.54"/><polygon class="cls-2" points="32.63 119.33 32.66 119.09 34.18 119.22 34.14 119.57 32.63 119.33"/><polygon class="cls-2" points="32.66 117.87 32.66 118.11 34.18 118.19 34.19 117.84 32.66 117.87"/><polygon class="cls-2" points="32.54 116.66 32.56 116.89 34.09 116.82 34.05 116.47 32.54 116.66"/><polygon class="cls-2" points="32.29 115.46 32.33 115.69 33.84 115.46 33.78 115.11 32.29 115.46"/><polygon class="cls-2" points="31.91 114.3 31.98 114.52 33.46 114.13 33.36 113.8 31.91 114.3"/><polygon class="cls-2" points="31.42 113.18 31.51 113.4 32.94 112.85 32.81 112.53 31.42 113.18"/><polygon class="cls-2" points="30.81 112.12 30.93 112.33 32.3 111.64 32.13 111.33 30.81 112.12"/><polygon class="cls-2" points="30.1 111.13 30.24 111.33 31.52 110.49 31.32 110.21 30.1 111.13"/><polygon class="cls-2" points="29.29 110.22 29.44 110.4 30.63 109.44 30.4 109.18 29.29 110.22"/><polygon class="cls-2" points="28.38 109.4 28.55 109.56 29.64 108.48 29.39 108.25 28.38 109.4"/><polygon class="cls-2" points="27.4 108.68 27.59 108.82 28.55 107.64 28.27 107.42 27.4 108.68"/><polygon class="cls-2" points="26.34 108.07 26.54 108.19 27.38 106.91 27.08 106.72 26.34 108.07"/><polygon class="cls-2" points="25.23 107.57 25.44 107.67 26.14 106.3 25.82 106.16 25.23 107.57"/><polygon class="cls-2" points="24.07 107.19 24.29 107.26 24.84 105.83 24.51 105.72 24.07 107.19"/><polygon class="cls-2" points="22.88 106.93 23.17 105.42 23.5 105.5 23.11 106.98 22.88 106.93"/><polygon class="cls-2" points="21.66 106.8 21.79 105.27 22.14 105.31 21.89 106.82 21.66 106.8"/><polygon class="cls-2" points="20.44 106.79 20.68 106.79 20.76 105.27 20.41 105.26 20.44 106.79"/><polygon class="cls-2" points="19.23 106.91 19.46 106.89 19.38 105.36 19.04 105.39 19.23 106.91"/><polygon class="cls-2" points="18.03 107.16 18.26 107.12 18.03 105.61 17.68 105.67 18.03 107.16"/><polygon class="cls-2" points="16.87 107.54 17.09 107.47 16.7 105.99 16.37 106.09 16.87 107.54"/><polygon class="cls-2" points="15.75 108.03 15.97 107.94 15.42 106.51 15.1 106.64 15.75 108.03"/><polygon class="cls-2" points="14.69 108.64 14.9 108.52 14.21 107.16 13.9 107.33 14.69 108.64"/><polygon class="cls-2" points="13.7 109.35 13.89 109.22 13.06 107.93 12.78 108.13 13.7 109.35"/><polygon class="cls-2" points="12.79 110.16 12.97 110.01 12.01 108.82 11.74 109.05 12.79 110.16"/><polygon class="cls-2" points="11.97 111.07 12.13 110.9 11.05 109.81 10.81 110.07 11.97 111.07"/><polygon class="cls-2" points="11.25 112.05 11.39 111.86 10.2 110.9 9.99 111.18 11.25 112.05"/><polygon class="cls-2" points="10.64 113.11 10.76 112.91 9.47 112.07 9.3 112.37 10.64 113.11"/><polygon class="cls-2" points="10.13 114.22 10.23 114.01 8.87 113.31 8.72 113.63 10.13 114.22"/><polygon class="cls-2" points="9.75 115.38 9.83 115.16 8.4 114.61 8.29 114.94 9.75 115.38"/><polygon class="cls-2" points="7.99 116.28 8.07 115.94 9.55 116.34 9.5 116.57 7.99 116.28"/><polygon class="cls-2" points="7.88 117.31 9.39 117.55 9.36 117.79 7.84 117.66 7.88 117.31"/><polygon class="cls-2" points="9.36 119.01 9.36 118.77 7.83 118.69 7.83 119.04 9.36 119.01"/><polygon class="cls-2" points="9.48 120.22 9.46 119.99 7.93 120.07 7.96 120.41 9.48 120.22"/><polygon class="cls-2" points="9.73 121.42 9.69 121.19 8.18 121.42 8.24 121.77 9.73 121.42"/><polygon class="cls-2" points="10.11 122.58 10.03 122.36 8.56 122.75 8.66 123.08 10.11 122.58"/><polygon class="cls-2" points="10.6 123.7 10.51 123.48 9.07 124.03 9.21 124.35 10.6 123.7"/><polygon class="cls-2" points="11.2 124.76 11.09 124.55 9.72 125.24 9.89 125.55 11.2 124.76"/><polygon class="cls-2" points="11.92 125.75 11.78 125.56 10.5 126.39 10.7 126.67 11.92 125.75"/><polygon class="cls-2" points="12.73 126.66 12.58 126.48 11.38 127.44 11.62 127.7 12.73 126.66"/><polygon class="cls-2" points="13.63 127.48 13.46 127.32 12.38 128.4 12.63 128.64 13.63 127.48"/><polygon class="cls-2" points="14.62 128.2 14.43 128.06 13.47 129.25 13.75 129.46 14.62 128.2"/><polygon class="cls-2" points="15.68 128.81 15.47 128.69 14.64 129.98 14.94 130.16 15.68 128.81"/><polygon class="cls-2" points="16.79 129.31 16.58 129.22 15.88 130.58 16.2 130.73 16.79 129.31"/><polygon class="cls-2" points="17.95 129.7 17.73 129.62 17.18 131.05 17.51 131.16 17.95 129.7"/><polygon class="cls-2" points="18.85 131.46 18.51 131.38 18.91 129.9 19.14 129.96 18.85 131.46"/><polygon class="cls-2" points="19.88 131.57 20.12 130.06 20.36 130.09 20.23 131.61 19.88 131.57"/><path class="cls-2" d="M1171.43,740.68a0.57,0.57,0,0,0-.35.07l-0.25.14a0.57,0.57,0,0,0,.56,1l0.25-.14A0.57,0.57,0,0,0,1171.43,740.68Z" transform="translate(-1132.68 -635.12)"/><path class="cls-2" d="M1195.38,727.69a0.57,0.57,0,0,1-.21.77l-0.47.26a0.57,0.57,0,1,1-.56-1l0.47-.27A0.57,0.57,0,0,1,1195.38,727.69ZM1193,729a0.57,0.57,0,0,1-.21.77l-0.47.27a0.57,0.57,0,1,1-.56-1l0.47-.26A0.56,0.56,0,0,1,1193,729Zm-2.35,1.33a0.57,0.57,0,0,1-.21.77l-0.47.26a0.57,0.57,0,0,1-.56-1l0.47-.27A0.57,0.57,0,0,1,1190.68,730.34Zm-2.35,1.33a0.56,0.56,0,0,1-.21.77l-0.47.27a0.57,0.57,0,1,1-.56-1l0.47-.26A0.56,0.56,0,0,1,1188.32,731.67ZM1186,733a0.57,0.57,0,0,1-.21.77l-0.47.27a0.57,0.57,0,1,1-.56-1l0.47-.27A0.57,0.57,0,0,1,1186,733Zm-2.35,1.33a0.57,0.57,0,0,1-.21.77l-0.47.27a0.57,0.57,0,1,1-.56-1l0.47-.26A0.56,0.56,0,0,1,1183.62,734.33Zm-2.35,1.33a0.57,0.57,0,0,1-.21.77l-0.47.26a0.57,0.57,0,1,1-.56-1l0.47-.26A0.56,0.56,0,0,1,1181.27,735.65Zm-2.35,1.33a0.57,0.57,0,0,1-.21.77l-0.47.27a0.57,0.57,0,0,1-.56-1l0.47-.27A0.57,0.57,0,0,1,1178.91,737Zm-2.35,1.33a0.57,0.57,0,0,1-.21.77l-0.47.26a0.57,0.57,0,1,1-.56-1l0.47-.27A0.57,0.57,0,0,1,1176.56,738.31Zm-2.35,1.33a0.57,0.57,0,0,1-.21.77l-0.47.26a0.57,0.57,0,0,1-.56-1l0.47-.27A0.57,0.57,0,0,1,1174.21,739.64Z" transform="translate(-1132.68 -635.12)"/><path class="cls-2" d="M1197.08,726.2a0.56,0.56,0,0,0-.35.07l-0.25.14a0.57,0.57,0,1,0,.56,1l0.25-.14A0.57,0.57,0,0,0,1197.08,726.2Z" transform="translate(-1132.68 -635.12)"/><path class="cls-1" d="M1166.69,832.86a0.57,0.57,0,0,0,.84.67l0.24-.15a0.57,0.57,0,0,0-.61-1l-0.24.15A0.55,0.55,0,0,0,1166.69,832.86Z" transform="translate(-1132.68 -635.12)"/><path class="cls-1" d="M1169.08,831.18l0.48-.31a0.57,0.57,0,1,1,.61,1l-0.48.31A0.57,0.57,0,0,1,1169.08,831.18Zm2.41-1.55,0.48-.31a0.57,0.57,0,1,1,.61,1l-0.48.31a0.57,0.57,0,0,1-.84-0.68A0.56,0.56,0,0,1,1171.49,829.63Zm2.41-1.55,0.48-.31a0.57,0.57,0,0,1,.61,1l-0.48.31a0.57,0.57,0,0,1-.84-0.68A0.56,0.56,0,0,1,1173.9,828.08Zm2.41-1.55,0.48-.31a0.57,0.57,0,0,1,.78.17,0.56,0.56,0,0,1-.17.78l-0.48.31A0.57,0.57,0,1,1,1176.31,826.52Zm2.41-1.55,0.48-.31a0.57,0.57,0,1,1,.61,1l-0.48.31a0.57,0.57,0,0,1-.84-0.67A0.56,0.56,0,0,1,1178.73,825Zm2.41-1.55,0.48-.31a0.57,0.57,0,0,1,.61,1l-0.48.31a0.57,0.57,0,0,1-.84-0.67A0.55,0.55,0,0,1,1181.14,823.41Zm2.41-1.55,0.48-.31a0.57,0.57,0,1,1,.61,1l-0.48.31a0.57,0.57,0,0,1-.84-0.67A0.55,0.55,0,0,1,1183.55,821.86Zm2.41-1.55,0.48-.31a0.57,0.57,0,1,1,.61,1l-0.48.31a0.57,0.57,0,0,1-.78-0.17A0.57,0.57,0,0,1,1186,820.31Zm2.41-1.55,0.48-.31a0.57,0.57,0,1,1,.61,1l-0.48.31A0.57,0.57,0,1,1,1188.38,818.75Zm2.41-1.55,0.48-.31a0.57,0.57,0,0,1,.61,1l-0.48.31a0.57,0.57,0,0,1-.83-0.67A0.56,0.56,0,0,1,1190.79,817.2Zm2.41-1.55,0.48-.31a0.57,0.57,0,1,1,.61,1l-0.48.31a0.57,0.57,0,0,1-.84-0.67A0.56,0.56,0,0,1,1193.2,815.65Zm2.41-1.56,0.48-.31a0.57,0.57,0,0,1,.61,1l-0.48.31A0.57,0.57,0,0,1,1195.62,814.09Zm2.41-1.55,0.48-.31a0.57,0.57,0,0,1,.61,1l-0.48.31A0.57,0.57,0,0,1,1198,812.54Z" transform="translate(-1132.68 -635.12)"/><path class="cls-1" d="M1200.22,811.26a0.56,0.56,0,0,0,.84.67l0.24-.15a0.57,0.57,0,1,0-.61-1l-0.24.15A0.57,0.57,0,0,0,1200.22,811.26Z" transform="translate(-1132.68 -635.12)"/></svg>