<svg preserveAspectRatio="none" id="Layer_1" data-name="Layer 1" xmlns="http://www.w3.org/2000/svg" viewBox="0 0 97.31 97.31"><defs><style>.cls-1{fill:#02a6ff;}</style></defs><title>shape37</title><path id="_复合路径_" data-name="&lt;复合路径&gt;" class="cls-1" d="M2115.49,1919.62a17.57,17.57,0,1,1,17.57-17.57A17.59,17.59,0,0,1,2115.49,1919.62Zm0-33.32a15.75,15.75,0,1,0,15.75,15.75A15.77,15.77,0,0,0,2115.49,1886.3Z" transform="translate(-2066.84 -1853.4)"/><path id="_复合路径_2" data-name="&lt;复合路径&gt;" class="cls-1" d="M2108.22,1927.29a26.41,26.41,0,0,1-16-13l2.4-1.27a23.68,23.68,0,0,0,14.31,11.65Zm20.33-2.45-1.21-2.42,0.15,0.24-0.13-.26,1.38,2.33h0Zm5.14-3.86-1.88-2a23.55,23.55,0,0,0,1.25-32.65l2-1.81A26.26,26.26,0,0,1,2133.69,1921ZM2090,1908.45v0l2.61-.74Zm0,0v0l2.61-.74Zm5.54-18.92-2.3-1.45a26.39,26.39,0,0,1,16.9-11.74l0.55,2.66A23.65,23.65,0,0,0,2095.55,1889.52Zm20.86-12.23v-0.12l0,0.12v-1.48h0l0.24,0Z" transform="translate(-2066.84 -1853.4)"/><path id="_复合路径_3" data-name="&lt;复合路径&gt;" class="cls-1" d="M2115.53,1937.08v-1.88q0.94,0,1.86-.05l0.11,1.88C2116.84,1937.06,2116.19,1937.08,2115.53,1937.08Zm-1.89,0h-0.15l0.24-1.87v0.25l0-.25Zm-2-.16q-1-.11-1.95-0.27l0.31-1.86c0.61,0.1,1.22.19,1.84,0.25Zm7.71,0V1935l0,0.2V1935l0.17,1.87Zm2.07-.28-0.31-1.86q0.92-.15,1.82-0.36l0.42,1.84Q2122.37,1936.42,2121.39,1936.58Zm-13.56-.35,0.11-.84h0l-0.12.82,0.09-.74-0.24.71,0.25-.81-0.27.8,0.27-.8,0.13-1,0.22,0.05-0.3.9Zm-2-.5q-0.95-.27-1.87-0.59l0.62-1.78q0.87,0.31,1.77.56Zm19.33,0-0.46-1.83,0.12,0.41-0.1-.41,0.54,1.8-0.09,0h0Zm1.92-.61-0.62-1.78q0.87-.31,1.73-0.66l0.72,1.74Q2128,1934.78,2127.09,1935.11Zm-24.83-.63,0.21-.83h0l-0.22.81,0.18-.74-0.34.68,0.36-.77-0.38.76,0.38-.76,0.25-1,0.23,0.09-0.42.84Zm-1.93-.85q-0.89-.43-1.75-0.9l0.91-1.65q0.81,0.45,1.65.85Zm30.38,0-0.84-1.68,0.84,1.64-0.82-1.65,0.86,1.68h0Zm1.74-.9-0.91-1.65q0.81-.45,1.6-0.94l1,1.59Q2133.31,1932.23,2132.45,1932.7Zm-37.19-2.06q-0.8-.57-1.57-1.18l1.17-1.47q0.73,0.58,1.49,1.12Zm40.49,0-0.48-.71-0.73-.73,0.16-.13h0l0.53,0.79,0.65,0.67-0.6-.6h0l0.58,0.6-0.54-.54,0.42,0.63-0.49-.7Zm1.59-1.19-1.17-1.48q0.73-.58,1.42-1.2l1.26,1.4Q2138.1,1928.82,2137.33,1929.43Zm-45.11-1.2-0.09-.08,1.33-1.33-0.22.24,0.23-.23Zm48-1.34-1.21-1.45,0.12,0.12-0.11-.13,1.35,1.3Zm-49.43,0q-0.69-.69-1.35-1.42l1.4-1.26q0.63,0.69,1.28,1.35Zm50.85-1.46-1.4-1.26q0.62-.69,1.2-1.42l1.47,1.17Q2142.26,1924.66,2141.61,1925.39Zm-53.46-1.45v0h0l-0.06-.08,1.57-1-0.29.22,0.31-.2Zm55.87-1.56-1.47-1.18,0.26,0.19-0.25-.2,1.53,1.1h0Zm-57.07,0q-0.57-.8-1.09-1.63l1.59-1c0.33,0.52.67,1,1,1.54Zm58.2-1.67-1.59-1q0.5-.78.95-1.6l1.65,0.91C2145.83,1919.57,2145.5,1920.13,2145.15,1920.69Zm-60.24-1.56-0.12-.24h0v0l0.89-.3,0.79-.51-0.72.48,0.73-.47-0.67.44,0.76-.25-0.89.32,0.07,0Zm62.09-1.77-0.73-.49-1-.28,0.14-.3,0.79,0.52,0.89,0.27-0.84-.24h0l0.84,0.26-0.79-.22,0.68,0.45-0.74-.47Zm-63-.06q-0.42-.88-0.8-1.78l1.74-.73q0.36,0.86.76,1.69Zm63.91-1.85-1.74-.72q0.35-.86.66-1.74l1.78,0.62Q2148.23,1914.54,2147.86,1915.45Zm-65.42-1.8,0.91-.26-0.91.26,0.53-.17-0.54.15,0.57-.16-0.57.16,1.8-.57-0.56.2,0.56-.18Zm-0.59-1.83q-0.27-.94-0.49-1.9l1.84-.42q0.21,0.91.47,1.8Zm67.3,0-1.79-.6,0.58,0.17-0.57-.19,1.8,0.54Zm0.51-2-1.84-.42q0.2-.9.36-1.82l1.86,0.31Q2149.86,1908.89,2149.65,1909.84Zm-68.65-1.73,0-.3h0.94l0.91-.24-0.84.24h0l0.83-.22-0.77.22h0.8l-0.87,0h0Zm69.27-2-1-.28h0.07l-0.14,0h0.07l-0.84-.24,0.84,0.24h1Zm-69.57-.09c-0.07-.65-0.13-1.3-0.17-2l1.88-.11q0.06,0.93.16,1.85Zm69.77-2-1.88-.1c0-.62.05-1.24,0.05-1.86h1.88Q2150.52,1903,2150.46,1904Zm-70-1.87v0h1.88Zm0,0v0h1.88Zm68.17-.22q0-.94-0.06-1.86l1.88-.11c0,0.65.06,1.3,0.06,2h-1.88Zm-66.24-1.64-1.88-.1q0-1,.16-2l1.87,0.21Q2082.44,1899.33,2082.4,1900.27Zm66-1.9,0-.3h0.94l0.9-.24-0.84.24h0l0.84-.22-0.77.22h0.81l-0.87,0h0Zm-65.67-1.66-0.91-.26-0.94,0h0.86l-0.86,0h0.81l-0.77-.22,0.84,0.22-0.84-.24,0.84,0.24h1Zm65.38-.34q-0.16-.92-0.37-1.82l1.84-.43q0.22,1,.39,1.92Zm-65-1.61-1.84-.41q0.22-1,.49-1.9l1.81,0.52C2083.44,1893.55,2083.29,1894.14,2083.16,1894.75Zm64.17-2,0.57-.2-0.57.18,1.79-.57-0.9.26,0.91-.26-0.54.17,0.55-.16-0.58.17,0.58-.16Zm-63.15-1.62-1.8-.54,0-.06h0v0l1.79,0.6-0.59-.18Zm62.56-.2q-0.31-.87-0.67-1.73l1.74-.73q0.38,0.9.71,1.83Zm-61.9-1.53-1.74-.72q0.38-.91.8-1.8l1.7,0.82Q2085.19,1888.58,2084.83,1889.44Zm61.2-2.25,0.11-.05-0.06,0,0.84-.56,0.14,0.3-1,.28h0Zm-59.65-1-0.79-.52-0.88-.31,0.83,0.28h0l-0.81-.29,0.76,0.25-0.67-.45,0.73,0.47-0.72-.48,0.73,0.48,1,0.32v0h0Zm58.05-.26q-0.46-.81-1-1.6l1.59-1q0.52,0.83,1,1.68Zm-57.06-1.43-1.6-1q0.52-.83,1.09-1.64l1.53,1.09Q2087.87,1883.69,2087.38,1884.48Zm55.11-1.65,0.95-.77-1,.76,1.47-1.18-0.57.45,0.58-.44-0.4.32,0.42-.28-0.59.42,0.6-.4-0.62.42Zm-52.92-1.45-1.57-1,0.61,0.41-0.6-.42,0.43,0.29-0.41-.33,0.58,0.44-0.57-.46,0.58,0.47,0.95,0.63-1-.66,0.06,0Zm51.76-.09q-0.58-.72-1.2-1.41l1.4-1.26q0.66,0.73,1.27,1.5Zm-50.6-1.27-1.41-1.25q0.65-.74,1.35-1.43l1.34,1.33C2091.56,1879.11,2091.14,1879.56,2090.73,1880Zm48.19-1.42v0h0l-0.15-.15,0.74-.59,0.61-.71-0.54.65,0,0,0.54-.62-0.48.57,0.58-.46-0.65.54,0.66-.53-0.66.53Zm-45.53-1.25-1.33-1.33,0.52,0.52-0.5-.53,0.37,0.37-0.33-.4,0.48,0.55-0.47-.56,0.49,0.58,0.79,0.79-0.68-.65Zm44.11-.09c-0.46-.41-0.94-0.81-1.42-1.19l1.17-1.48q0.77,0.61,1.5,1.26Zm-42.73-1.07-1.18-1.47q0.76-.61,1.56-1.18l1.1,1.53Q2095.49,1875.61,2094.76,1876.19Zm39.85-1.21,0.95-1.46-1,1.45,1-1.58,0,0Zm-36.91-.9-1-1.62h0l0.12-.07,0.84,1.68-0.14-.24Zm35.33-.15q-0.79-.49-1.61-0.94l0.91-1.65q0.86,0.47,1.69,1Zm-33.65-.84-0.92-1.65q0.86-.48,1.74-0.91l0.82,1.69Q2100.19,1872.63,2099.38,1873.08Zm30.39-.95,0.83-1.69h0Zm0,0,0.83-1.69h0Zm-27.17-.62-0.67-1.75,0.23-.09,0.46,1.83-0.06-.15Zm25.48-.13q-0.86-.35-1.74-0.66l0.61-1.78c0.62,0.21,1.24.45,1.84,0.7Zm-23.62-.58-0.63-1.78q0.92-.33,1.87-0.6l0.53,1.81Q2105.32,1870.49,2104.44,1870.79Zm20.16-.62,0.31-1.27-0.33,1.27,0.46-1.83-0.17.67,0.19-.67-0.1.41,0.13-.4-0.2.66,0.22-.66Zm-16.69-.4-0.43-1.82,0.2,0h0l0.24,1.87,0-.18Zm14.84-.07c-0.6-.14-1.21-0.25-1.82-0.35l0.31-1.86q1,0.16,1.93.37Zm-12.92-.32-0.32-1.86c0.64-.11,1.29-0.2,1.94-0.28l0.22,1.87Q2110.74,1869.23,2109.83,1869.39Zm7.4-.44q-0.87,0-1.75,0l-0.11-1.88h0.11q0.93,0,1.84,0Z" transform="translate(-2066.84 -1853.4)"/><path id="_复合路径_4" data-name="&lt;复合路径&gt;" class="cls-1" d="M2115.49,1950.71a48.65,48.65,0,1,1,48.65-48.65A48.71,48.71,0,0,1,2115.49,1950.71Zm0-89.78a41.12,41.12,0,1,0,41.12,41.12A41.17,41.17,0,0,0,2115.49,1860.93Z" transform="translate(-2066.84 -1853.4)"/><circle id="_路径_" data-name="&lt;路径&gt;" class="cls-1" cx="48.65" cy="48.65" r="3.01"/><path id="_复合路径_5" data-name="&lt;复合路径&gt;" class="cls-1" d="M2115.49,1919.62a17.57,17.57,0,1,1,17.57-17.57A17.59,17.59,0,0,1,2115.49,1919.62Zm0-33.32a15.75,15.75,0,1,0,15.75,15.75A15.77,15.77,0,0,0,2115.49,1886.3Z" transform="translate(-2066.84 -1853.4)"/><path id="_复合路径_6" data-name="&lt;复合路径&gt;" class="cls-1" d="M2108.22,1927.29a26.41,26.41,0,0,1-16-13l2.4-1.27a23.68,23.68,0,0,0,14.31,11.65Zm20.33-2.45-1.21-2.42,0.15,0.24-0.13-.26,1.38,2.33h0Zm5.14-3.86-1.88-2a23.55,23.55,0,0,0,1.25-32.65l2-1.81A26.26,26.26,0,0,1,2133.69,1921ZM2090,1908.45v0l2.61-.74Zm0,0v0l2.61-.74Zm5.54-18.92-2.3-1.45a26.39,26.39,0,0,1,16.9-11.74l0.55,2.66A23.65,23.65,0,0,0,2095.55,1889.52Zm20.86-12.23v-0.12l0,0.12v-1.48h0l0.24,0Z" transform="translate(-2066.84 -1853.4)"/><path id="_复合路径_7" data-name="&lt;复合路径&gt;" class="cls-1" d="M2115.53,1937.08v-1.88q0.94,0,1.86-.05l0.11,1.88C2116.84,1937.06,2116.19,1937.08,2115.53,1937.08Zm-1.89,0h-0.15l0.24-1.87v0.25l0-.25Zm-2-.16q-1-.11-1.95-0.27l0.31-1.86c0.61,0.1,1.22.19,1.84,0.25Zm7.71,0V1935l0,0.2V1935l0.17,1.87Zm2.07-.28-0.31-1.86q0.92-.15,1.82-0.36l0.42,1.84Q2122.37,1936.42,2121.39,1936.58Zm-13.56-.35,0.11-.84h0l-0.12.82,0.09-.74-0.24.71,0.25-.81-0.27.8,0.27-.8,0.13-1,0.22,0.05-0.3.9Zm-2-.5q-0.95-.27-1.87-0.59l0.62-1.78q0.87,0.31,1.77.56Zm19.33,0-0.46-1.83,0.12,0.41-0.1-.41,0.54,1.8-0.09,0h0Zm1.92-.61-0.62-1.78q0.87-.31,1.73-0.66l0.72,1.74Q2128,1934.78,2127.09,1935.11Zm-24.83-.63,0.21-.83h0l-0.22.81,0.18-.74-0.34.68,0.36-.77-0.38.76,0.38-.76,0.25-1,0.23,0.09-0.42.84Zm-1.93-.85q-0.89-.43-1.75-0.9l0.91-1.65q0.81,0.45,1.65.85Zm30.38,0-0.84-1.68,0.84,1.64-0.82-1.65,0.86,1.68h0Zm1.74-.9-0.91-1.65q0.81-.45,1.6-0.94l1,1.59Q2133.31,1932.23,2132.45,1932.7Zm-37.19-2.06q-0.8-.57-1.57-1.18l1.17-1.47q0.73,0.58,1.49,1.12Zm40.49,0-0.48-.71-0.73-.73,0.16-.13h0l0.53,0.79,0.65,0.67-0.6-.6h0l0.58,0.6-0.54-.54,0.42,0.63-0.49-.7Zm1.59-1.19-1.17-1.48q0.73-.58,1.42-1.2l1.26,1.4Q2138.1,1928.82,2137.33,1929.43Zm-45.11-1.2-0.09-.08,1.33-1.33-0.22.24,0.23-.23Zm48-1.34-1.21-1.45,0.12,0.12-0.11-.13,1.35,1.3Zm-49.43,0q-0.69-.69-1.35-1.42l1.4-1.26q0.63,0.69,1.28,1.35Zm50.85-1.46-1.4-1.26q0.62-.69,1.2-1.42l1.47,1.17Q2142.26,1924.66,2141.61,1925.39Zm-53.46-1.45v0h0l-0.06-.08,1.57-1-0.29.22,0.31-.2Zm55.87-1.56-1.47-1.18,0.26,0.19-0.25-.2,1.53,1.1h0Zm-57.07,0q-0.57-.8-1.09-1.63l1.59-1c0.33,0.52.67,1,1,1.54Zm58.2-1.67-1.59-1q0.5-.78.95-1.6l1.65,0.91C2145.83,1919.57,2145.5,1920.13,2145.15,1920.69Zm-60.24-1.56-0.12-.24h0v0l0.89-.3,0.79-.51-0.72.48,0.73-.47-0.67.44,0.76-.25-0.89.32,0.07,0Zm62.09-1.77-0.73-.49-1-.28,0.14-.3,0.79,0.52,0.89,0.27-0.84-.24h0l0.84,0.26-0.79-.22,0.68,0.45-0.74-.47Zm-63-.06q-0.42-.88-0.8-1.78l1.74-.73q0.36,0.86.76,1.69Zm63.91-1.85-1.74-.72q0.35-.86.66-1.74l1.78,0.62Q2148.23,1914.54,2147.86,1915.45Zm-65.42-1.8,0.91-.26-0.91.26,0.53-.17-0.54.15,0.57-.16-0.57.16,1.8-.57-0.56.2,0.56-.18Zm-0.59-1.83q-0.27-.94-0.49-1.9l1.84-.42q0.21,0.91.47,1.8Zm67.3,0-1.79-.6,0.58,0.17-0.57-.19,1.8,0.54Zm0.51-2-1.84-.42q0.2-.9.36-1.82l1.86,0.31Q2149.86,1908.89,2149.65,1909.84Zm-68.65-1.73,0-.3h0.94l0.91-.24-0.84.24h0l0.83-.22-0.77.22h0.8l-0.87,0h0Zm69.27-2-1-.28h0.07l-0.14,0h0.07l-0.84-.24,0.84,0.24h1Zm-69.57-.09c-0.07-.65-0.13-1.3-0.17-2l1.88-.11q0.06,0.93.16,1.85Zm69.77-2-1.88-.1c0-.62.05-1.24,0.05-1.86h1.88Q2150.52,1903,2150.46,1904Zm-70-1.87v0h1.88Zm0,0v0h1.88Zm68.17-.22q0-.94-0.06-1.86l1.88-.11c0,0.65.06,1.3,0.06,2h-1.88Zm-66.24-1.64-1.88-.1q0-1,.16-2l1.87,0.21Q2082.44,1899.33,2082.4,1900.27Zm66-1.9,0-.3h0.94l0.9-.24-0.84.24h0l0.84-.22-0.77.22h0.81l-0.87,0h0Zm-65.67-1.66-0.91-.26-0.94,0h0.86l-0.86,0h0.81l-0.77-.22,0.84,0.22-0.84-.24,0.84,0.24h1Zm65.38-.34q-0.16-.92-0.37-1.82l1.84-.43q0.22,1,.39,1.92Zm-65-1.61-1.84-.41q0.22-1,.49-1.9l1.81,0.52C2083.44,1893.55,2083.29,1894.14,2083.16,1894.75Zm64.17-2,0.57-.2-0.57.18,1.79-.57-0.9.26,0.91-.26-0.54.17,0.55-.16-0.58.17,0.58-.16Zm-63.15-1.62-1.8-.54,0-.06h0v0l1.79,0.6-0.59-.18Zm62.56-.2q-0.31-.87-0.67-1.73l1.74-.73q0.38,0.9.71,1.83Zm-61.9-1.53-1.74-.72q0.38-.91.8-1.8l1.7,0.82Q2085.19,1888.58,2084.83,1889.44Zm61.2-2.25,0.11-.05-0.06,0,0.84-.56,0.14,0.3-1,.28h0Zm-59.65-1-0.79-.52-0.88-.31,0.83,0.28h0l-0.81-.29,0.76,0.25-0.67-.45,0.73,0.47-0.72-.48,0.73,0.48,1,0.32v0h0Zm58.05-.26q-0.46-.81-1-1.6l1.59-1q0.52,0.83,1,1.68Zm-57.06-1.43-1.6-1q0.52-.83,1.09-1.64l1.53,1.09Q2087.87,1883.69,2087.38,1884.48Zm55.11-1.65,0.95-.77-1,.76,1.47-1.18-0.57.45,0.58-.44-0.4.32,0.42-.28-0.59.42,0.6-.4-0.62.42Zm-52.92-1.45-1.57-1,0.61,0.41-0.6-.42,0.43,0.29-0.41-.33,0.58,0.44-0.57-.46,0.58,0.47,0.95,0.63-1-.66,0.06,0Zm51.76-.09q-0.58-.72-1.2-1.41l1.4-1.26q0.66,0.73,1.27,1.5Zm-50.6-1.27-1.41-1.25q0.65-.74,1.35-1.43l1.34,1.33C2091.56,1879.11,2091.14,1879.56,2090.73,1880Zm48.19-1.42v0h0l-0.15-.15,0.74-.59,0.61-.71-0.54.65,0,0,0.54-.62-0.48.57,0.58-.46-0.65.54,0.66-.53-0.66.53Zm-45.53-1.25-1.33-1.33,0.52,0.52-0.5-.53,0.37,0.37-0.33-.4,0.48,0.55-0.47-.56,0.49,0.58,0.79,0.79-0.68-.65Zm44.11-.09c-0.46-.41-0.94-0.81-1.42-1.19l1.17-1.48q0.77,0.61,1.5,1.26Zm-42.73-1.07-1.18-1.47q0.76-.61,1.56-1.18l1.1,1.53Q2095.49,1875.61,2094.76,1876.19Zm39.85-1.21,0.95-1.46-1,1.45,1-1.58,0,0Zm-36.91-.9-1-1.62h0l0.12-.07,0.84,1.68-0.14-.24Zm35.33-.15q-0.79-.49-1.61-0.94l0.91-1.65q0.86,0.47,1.69,1Zm-33.65-.84-0.92-1.65q0.86-.48,1.74-0.91l0.82,1.69Q2100.19,1872.63,2099.38,1873.08Zm30.39-.95,0.83-1.69h0Zm0,0,0.83-1.69h0Zm-27.17-.62-0.67-1.75,0.23-.09,0.46,1.83-0.06-.15Zm25.48-.13q-0.86-.35-1.74-0.66l0.61-1.78c0.62,0.21,1.24.45,1.84,0.7Zm-23.62-.58-0.63-1.78q0.92-.33,1.87-0.6l0.53,1.81Q2105.32,1870.49,2104.44,1870.79Zm20.16-.62,0.31-1.27-0.33,1.27,0.46-1.83-0.17.67,0.19-.67-0.1.41,0.13-.4-0.2.66,0.22-.66Zm-16.69-.4-0.43-1.82,0.2,0h0l0.24,1.87,0-.18Zm14.84-.07c-0.6-.14-1.21-0.25-1.82-0.35l0.31-1.86q1,0.16,1.93.37Zm-12.92-.32-0.32-1.86c0.64-.11,1.29-0.2,1.94-0.28l0.22,1.87Q2110.74,1869.23,2109.83,1869.39Zm7.4-.44q-0.87,0-1.75,0l-0.11-1.88h0.11q0.93,0,1.84,0Z" transform="translate(-2066.84 -1853.4)"/><path id="_复合路径_8" data-name="&lt;复合路径&gt;" class="cls-1" d="M2115.49,1950.71a48.65,48.65,0,1,1,48.65-48.65A48.71,48.71,0,0,1,2115.49,1950.71Zm0-89.78a41.12,41.12,0,1,0,41.12,41.12A41.17,41.17,0,0,0,2115.49,1860.93Z" transform="translate(-2066.84 -1853.4)"/><circle id="_路径_2" data-name="&lt;路径&gt;" class="cls-1" cx="48.65" cy="48.65" r="3.01"/></svg>