<svg preserveAspectRatio="none" xmlns="http://www.w3.org/2000/svg" viewBox="0 0 659.72 381.94"><defs><clipPath id="clip-path" transform="translate(-2208.05 -1505.01)"><path class="cls-1" d="M2354.71 1527.16h2.89v1.16h-2.89z"/></clipPath><clipPath id="clip-path-2" transform="translate(-2208.05 -1505.01)"><path class="cls-1" d="M2351.34 1528.32h-5.61v-1.16h5.61v1.16zm-9 0h-5.61v-1.16h5.61v1.16zm-9 0h-5.61v-1.16h5.61v1.16zm-9 0h-5.61v-1.16h5.61v1.16zm-9 0h-5.61v-1.16h5.61v1.16zm-9 0h-5.61v-1.16h5.61v1.16z"/></clipPath><clipPath id="clip-path-3" transform="translate(-2208.05 -1505.01)"><path class="cls-1" d="M2292.92 1530.19l-.82-.82 2.21-2.21h3.14v1.16h-2.66l-1.87 1.87z"/></clipPath><clipPath id="clip-path-4" transform="translate(-2208.05 -1505.01)"><path class="cls-1" transform="rotate(-45 2287.601 1534.695)" d="M2284.44 1534.12h6.31v1.16h-6.31z"/></clipPath><clipPath id="clip-path-5" transform="translate(-2208.05 -1505.01)"><path class="cls-1" transform="rotate(-45 2281.662 1540.635)" d="M2280.21 1540.05h2.89v1.16h-2.89z"/></clipPath><clipPath id="clip-path-6" transform="translate(-2208.05 -1505.01)"><path class="cls-1" d="M2398.07 1525.21l2.38 2.39h2.44l-2.38-2.39h-2.44z"/></clipPath><clipPath id="clip-path-7" transform="translate(-2208.05 -1505.01)"><path class="cls-1" d="M2402.89 1525.21l2.38 2.39h2.43l-2.38-2.39h-2.43z"/></clipPath><clipPath id="clip-path-8" transform="translate(-2208.05 -1505.01)"><path class="cls-1" d="M2407.7 1525.21l2.38 2.39h2.44l-2.38-2.39h-2.44z"/></clipPath><clipPath id="clip-path-9" transform="translate(-2208.05 -1505.01)"><path class="cls-1" d="M2412.52 1525.21l2.38 2.39h2.43l-2.38-2.39h-2.43z"/></clipPath><clipPath id="clip-path-10" transform="translate(-2208.05 -1505.01)"><path class="cls-1" d="M2417.33 1525.21l2.38 2.39h2.44l-2.38-2.39h-2.44z"/></clipPath><clipPath id="clip-path-11" transform="translate(-2208.05 -1505.01)"><circle class="cls-1" cx="2241.02" cy="1588.48" r="2.01"/></clipPath><clipPath id="clip-path-12" transform="translate(-2208.05 -1505.01)"><circle class="cls-1" cx="2236.22" cy="1593.27" r="1.64"/></clipPath><clipPath id="clip-path-13" transform="translate(-2208.05 -1505.01)"><circle class="cls-1" cx="2232.52" cy="1596.97" r=".83"/></clipPath><clipPath id="clip-path-14" transform="translate(-2208.05 -1505.01)"><path class="cls-1" d="M2354.71 1855.86h2.89v1.16h-2.89z"/></clipPath><clipPath id="clip-path-15" transform="translate(-2208.05 -1505.01)"><path class="cls-1" d="M2351.34 1857h-5.61v-1.16h5.61v1.16zm-9 0h-5.61v-1.16h5.61v1.16zm-9 0h-5.61v-1.16h5.61v1.16zm-9 0h-5.61v-1.16h5.61v1.16zm-9 0h-5.61v-1.16h5.61v1.16zm-9 0h-5.61v-1.16h5.61v1.16z"/></clipPath><clipPath id="clip-path-16" transform="translate(-2208.05 -1505.01)"><path class="cls-1" d="M2297.45 1857.01h-3.14l-2.21-2.21.82-.82 1.87 1.88h2.66v1.15z"/></clipPath><clipPath id="clip-path-17" transform="translate(-2208.05 -1505.01)"><path class="cls-1" transform="rotate(-45 2287.35 1849.409)" d="M2287.02 1846.32h1.16v6.32h-1.16z"/></clipPath><clipPath id="clip-path-18" transform="translate(-2208.05 -1505.01)"><path class="cls-1" transform="rotate(-44.99 2281.764 1843.568)" d="M2281.08 1842.1h1.16v2.89h-1.16z"/></clipPath><clipPath id="clip-path-19" transform="translate(-2208.05 -1505.01)"><path class="cls-1" d="M2398.07 1858.96l2.38-2.38h2.44l-2.38 2.38h-2.44z"/></clipPath><clipPath id="clip-path-20" transform="translate(-2208.05 -1505.01)"><path class="cls-1" d="M2402.89 1858.96l2.38-2.38h2.43l-2.38 2.38h-2.43z"/></clipPath><clipPath id="clip-path-21" transform="translate(-2208.05 -1505.01)"><path class="cls-1" d="M2407.7 1858.96l2.38-2.38h2.44l-2.38 2.38h-2.44z"/></clipPath><clipPath id="clip-path-22" transform="translate(-2208.05 -1505.01)"><path class="cls-1" d="M2412.52 1858.96l2.38-2.38h2.43l-2.38 2.38h-2.43z"/></clipPath><clipPath id="clip-path-23" transform="translate(-2208.05 -1505.01)"><path class="cls-1" d="M2417.33 1858.96l2.38-2.38h2.44l-2.38 2.38h-2.44z"/></clipPath><clipPath id="clip-path-24" transform="translate(-2208.05 -1505.01)"><circle class="cls-1" cx="2241.02" cy="1795.7" r="2.01"/></clipPath><clipPath id="clip-path-25" transform="translate(-2208.05 -1505.01)"><circle class="cls-1" cx="2236.22" cy="1790.9" r="1.64"/></clipPath><clipPath id="clip-path-26" transform="translate(-2208.05 -1505.01)"><circle class="cls-1" cx="2232.52" cy="1787.2" r=".83"/></clipPath><clipPath id="clip-path-27" transform="translate(-2208.05 -1505.01)"><path class="cls-1" d="M2722.41 1527.16h2.89v1.16h-2.89z"/></clipPath><clipPath id="clip-path-28" transform="translate(-2208.05 -1505.01)"><path class="cls-1" d="M2794.48 1537.58l-4.06-4.06.82-.82 4.06 4.06zm-6.5-6.5l-2.77-2.77h-1.35v-1.16h1.83l3.11 3.11zm-7.56-2.77h-5.74v-1.16h5.74v1.16zm-9.19 0h-5.74v-1.16h5.74v1.16zm-9.19 0h-5.74v-1.16h5.74v1.16zm-9.19 0h-5.74v-1.16h5.74v1.16zm-9.19 0h-5.74v-1.16h5.74v1.16zm-9.19 0h-5.74v-1.16h5.74v1.16z"/></clipPath><clipPath id="clip-path-29" transform="translate(-2208.05 -1505.01)"><path class="cls-1" transform="rotate(-45 2798.455 1540.642)" d="M2797.77 1539.18h1.16v2.89h-1.16z"/></clipPath><clipPath id="clip-path-30" transform="translate(-2208.05 -1505.01)"><path class="cls-1" d="M2681.94 1525.21l-2.38 2.39h-2.43l2.38-2.39h2.43z"/></clipPath><clipPath id="clip-path-31" transform="translate(-2208.05 -1505.01)"><path class="cls-1" d="M2677.13 1525.21l-2.38 2.39h-2.44l2.38-2.39h2.44z"/></clipPath><clipPath id="clip-path-32" transform="translate(-2208.05 -1505.01)"><path class="cls-1" d="M2672.31 1525.21l-2.38 2.39h-2.43l2.38-2.39h2.43z"/></clipPath><clipPath id="clip-path-33" transform="translate(-2208.05 -1505.01)"><path class="cls-1" d="M2667.5 1525.21l-2.38 2.39h-2.44l2.38-2.39h2.44z"/></clipPath><clipPath id="clip-path-34" transform="translate(-2208.05 -1505.01)"><path class="cls-1" d="M2662.68 1525.21l-2.38 2.39h-2.43l2.38-2.39h2.43z"/></clipPath><clipPath id="clip-path-35" transform="translate(-2208.05 -1505.01)"><circle class="cls-1" cx="2839" cy="1588.48" r="2.01"/></clipPath><clipPath id="clip-path-36" transform="translate(-2208.05 -1505.01)"><circle class="cls-1" cx="2843.79" cy="1593.27" r="1.64"/></clipPath><clipPath id="clip-path-37" transform="translate(-2208.05 -1505.01)"><circle class="cls-1" cx="2847.49" cy="1596.97" r=".83"/></clipPath><clipPath id="clip-path-38" transform="translate(-2208.05 -1505.01)"><path class="cls-1" d="M2722.41 1855.86h2.89v1.16h-2.89z"/></clipPath><clipPath id="clip-path-39" transform="translate(-2208.05 -1505.01)"><path class="cls-1" d="M2779.2 1857h-5.61v-1.16h5.61v1.16zm-9 0h-5.61v-1.16h5.61v1.16zm-9 0h-5.61v-1.16h5.61v1.16zm-9 0h-5.61v-1.16h5.61v1.16zm-9 0h-5.61v-1.16h5.61v1.16zm-9 0h-5.61v-1.16h5.61v1.16z"/></clipPath><clipPath id="clip-path-40" transform="translate(-2208.05 -1505.01)"><path class="cls-1" d="M2785.7 1857.01h-3.13v-1.15h2.65l1.88-1.88.81.82-2.21 2.21z"/></clipPath><clipPath id="clip-path-41" transform="translate(-2208.05 -1505.01)"><path class="cls-1" transform="rotate(-45.01 2792.194 1849.44)" d="M2789.26 1848.9h6.32v1.16h-6.32z"/></clipPath><clipPath id="clip-path-42" transform="translate(-2208.05 -1505.01)"><path class="cls-1" transform="rotate(-45 2798.086 1843.485)" d="M2796.9 1842.96h2.89v1.16h-2.89z"/></clipPath><clipPath id="clip-path-43" transform="translate(-2208.05 -1505.01)"><path class="cls-1" d="M2681.94 1858.96l-2.38-2.38h-2.43l2.38 2.38h2.43z"/></clipPath><clipPath id="clip-path-44" transform="translate(-2208.05 -1505.01)"><path class="cls-1" d="M2677.13 1858.96l-2.38-2.38h-2.44l2.38 2.38h2.44z"/></clipPath><clipPath id="clip-path-45" transform="translate(-2208.05 -1505.01)"><path class="cls-1" d="M2672.31 1858.96l-2.38-2.38h-2.43l2.38 2.38h2.43z"/></clipPath><clipPath id="clip-path-46" transform="translate(-2208.05 -1505.01)"><path class="cls-1" d="M2667.5 1858.96l-2.38-2.38h-2.44l2.38 2.38h2.44z"/></clipPath><clipPath id="clip-path-47" transform="translate(-2208.05 -1505.01)"><path class="cls-1" d="M2662.68 1858.96l-2.38-2.38h-2.43l2.38 2.38h2.43z"/></clipPath><clipPath id="clip-path-48" transform="translate(-2208.05 -1505.01)"><circle class="cls-1" cx="2839" cy="1795.7" r="2.01"/></clipPath><clipPath id="clip-path-49" transform="translate(-2208.05 -1505.01)"><circle class="cls-1" cx="2843.79" cy="1790.9" r="1.64"/></clipPath><clipPath id="clip-path-50" transform="translate(-2208.05 -1505.01)"><circle class="cls-1" cx="2847.49" cy="1787.2" r=".83"/></clipPath><clipPath id="clip-path-51" transform="translate(-2208.05 -1505.01)"><path class="cls-1" transform="rotate(-60.01 2490.038 1660.09)" d="M2488.77 1659.52h2.89v1.16h-2.89z"/></clipPath><clipPath id="clip-path-52" transform="translate(-2208.05 -1505.01)"><path class="cls-1" d="M2475.8 1686.23l-1-.58 2.63-4.55 1 .58zm4.73-8.2l-1-.58 2.63-4.55 1 .58zm4.73-8.2l-1-.58 2.63-4.55 1 .58z"/></clipPath><clipPath id="clip-path-53" transform="translate(-2208.05 -1505.01)"><path class="cls-1" d="M2472.7 1694.88l-1.62-2.79 1.62-2.8 1 .58-1.28 2.22 1.28 2.21-1 .58z"/></clipPath><clipPath id="clip-path-54" transform="translate(-2208.05 -1505.01)"><path class="cls-1" d="M2486.89 1719.46l-2.63-4.55 1-.58 2.63 4.55zm-4.73-8.19l-2.63-4.55 1-.58 2.63 4.55zm-4.73-8.19l-2.63-4.55 1-.58 2.63 4.55z"/></clipPath><clipPath id="clip-path-55" transform="translate(-2208.05 -1505.01)"><path class="cls-1" transform="rotate(-30 2490.347 1724.106)" d="M2489.64 1722.62h1.16v2.89h-1.16z"/></clipPath><clipPath id="clip-path-56" transform="translate(-2208.05 -1505.01)"><path class="cls-1" transform="rotate(-30 2589.393 1659.966)" d="M2589.22 1658.65h1.16v2.89h-1.16z"/></clipPath><clipPath id="clip-path-57" transform="translate(-2208.05 -1505.01)"><path class="cls-1" d="M2601.58 1681.68l1-.58 2.63 4.55-1 .58zm-4.73-8.2l1-.58 2.63 4.55-1 .58zm-4.73-8.19l1-.58 2.63 4.55-1 .58z"/></clipPath><clipPath id="clip-path-58" transform="translate(-2208.05 -1505.01)"><path class="cls-1" d="M2607.32 1694.88l1.61-2.79-1.61-2.8-1.01.58 1.28 2.22-1.28 2.21 1.01.58z"/></clipPath><clipPath id="clip-path-59" transform="translate(-2208.05 -1505.01)"><path class="cls-1" d="M2592.12 1718.89l2.63-4.55 1 .58-2.63 4.55zm4.73-8.19l2.63-4.55 1 .58-2.63 4.55zm4.73-8.19l2.63-4.55 1 .58-2.63 4.55z"/></clipPath><clipPath id="clip-path-60" transform="translate(-2208.05 -1505.01)"><path class="cls-1" transform="rotate(-60 2589.815 1724.069)" d="M2588.35 1723.49h2.89v1.16h-2.89z"/></clipPath><clipPath id="clip-path-61" transform="translate(-2208.05 -1505.01)"><path class="cls-1" d="M2502 1857.87a.61.61 0 00-.15-.1.52.52 0 00-.52.1.5.5 0 00-.09.15.45.45 0 000 .19.47.47 0 00.13.33.5.5 0 00.34.14.48.48 0 00.33-.14.46.46 0 00.14-.33.67.67 0 000-.19.53.53 0 00-.18-.15z"/></clipPath><clipPath id="clip-path-62" transform="translate(-2208.05 -1505.01)"><path class="cls-1" d="M2493.84 1857.74a.47.47 0 00-.47.47.48.48 0 00.47.47.47.47 0 00.47-.47.47.47 0 00-.47-.47z"/></clipPath><clipPath id="clip-path-63" transform="translate(-2208.05 -1505.01)"><path class="cls-1" d="M2491.23 1857.74a.47.47 0 00-.47.47.48.48 0 00.47.47.47.47 0 00.47-.47.47.47 0 00-.47-.47z"/></clipPath><clipPath id="clip-path-64" transform="translate(-2208.05 -1505.01)"><path class="cls-1" d="M2488.63 1857.74a.47.47 0 00-.48.47.48.48 0 001 0 .47.47 0 00-.52-.47z"/></clipPath><clipPath id="clip-path-65" transform="translate(-2208.05 -1505.01)"><path class="cls-1" d="M2496.46 1857.74a.47.47 0 00-.47.47.47.47 0 10.94 0 .47.47 0 00-.47-.47z"/></clipPath><clipPath id="clip-path-66" transform="translate(-2208.05 -1505.01)"><path class="cls-1" d="M2499.07 1857.74a.47.47 0 00-.47.47.47.47 0 00.47.47.48.48 0 00.47-.47.47.47 0 00-.47-.47z"/></clipPath><clipPath id="clip-path-67" transform="translate(-2208.05 -1505.01)"><path class="cls-1" d="M2486.35 1857.87a.5.5 0 00-.67 0 .85.85 0 00-.1.15.65.65 0 000 .19.49.49 0 00.13.33.6.6 0 00.16.1.56.56 0 00.18 0 .48.48 0 00.33-.14.53.53 0 00.1-.15.61.61 0 000-.18.67.67 0 000-.19.53.53 0 00-.13-.11z"/></clipPath><clipPath id="clip-path-68" transform="translate(-2208.05 -1505.01)"><path class="cls-1" d="M2578.67 1857.87a.66.66 0 00-.16-.1.49.49 0 00-.51.1.52.52 0 00-.1.15.65.65 0 000 .19.48.48 0 00.14.33.56.56 0 00.15.1.63.63 0 00.18 0 .5.5 0 00.34-.14.51.51 0 00.09-.15.42.42 0 000-.18.46.46 0 000-.19.51.51 0 00-.13-.11z"/></clipPath><clipPath id="clip-path-69" transform="translate(-2208.05 -1505.01)"><path class="cls-1" d="M2586.17 1857.74a.47.47 0 00-.47.47.47.47 0 00.47.47.48.48 0 00.47-.47.47.47 0 00-.47-.47z"/></clipPath><clipPath id="clip-path-70" transform="translate(-2208.05 -1505.01)"><path class="cls-1" d="M2583.56 1857.74a.47.47 0 00-.47.47.47.47 0 00.47.47.48.48 0 00.47-.47.47.47 0 00-.47-.47z"/></clipPath><clipPath id="clip-path-71" transform="translate(-2208.05 -1505.01)"><path class="cls-1" d="M2588.78 1857.74a.47.47 0 00-.47.47.47.47 0 10.93 0 .46.46 0 00-.46-.47z"/></clipPath><clipPath id="clip-path-72" transform="translate(-2208.05 -1505.01)"><path class="cls-1" d="M2591.38 1857.74a.47.47 0 00-.47.47.48.48 0 00.47.47.47.47 0 00.47-.47.47.47 0 00-.47-.47z"/></clipPath><clipPath id="clip-path-73" transform="translate(-2208.05 -1505.01)"><path class="cls-1" d="M2580.95 1857.74a.47.47 0 00-.47.47.47.47 0 10.94 0 .47.47 0 00-.47-.47z"/></clipPath><clipPath id="clip-path-74" transform="translate(-2208.05 -1505.01)"><path class="cls-1" d="M2594.33 1857.87a.49.49 0 00-.67 0 .54.54 0 00-.1.15.69.69 0 000 .19.62.62 0 000 .18.54.54 0 00.1.15.48.48 0 00.33.14.5.5 0 00.34-.14.47.47 0 00.13-.33.45.45 0 000-.19.49.49 0 00-.13-.15z"/></clipPath><clipPath id="clip-path-75" transform="translate(-2208.05 -1505.01)"><path class="cls-1" d="M2468.02 1524.63h2.31v1.16h-2.31z"/></clipPath><clipPath id="clip-path-76" transform="translate(-2208.05 -1505.01)"><path class="cls-1" d="M2523.61 1525.79h-4.44v-1.16h4.44v1.16zm-8.88 0h-4.44v-1.16h4.44v1.16zm-8.88 0h-4.44v-1.16h4.44v1.16zm-8.88 0h-4.44v-1.16h4.47v1.16zm-8.88 0h-4.44v-1.16h4.44v1.16zm-8.88 0h-4.44v-1.16h4.44v1.16z"/></clipPath><clipPath id="clip-path-77" transform="translate(-2208.05 -1505.01)"><path class="cls-1" d="M2528.05 1524.63h2.31v1.16h-2.31z"/></clipPath><clipPath id="clip-path-78" transform="translate(-2208.05 -1505.01)"><path class="cls-1" d="M2609.68 1524.63h2.31v1.16h-2.31z"/></clipPath><clipPath id="clip-path-79" transform="translate(-2208.05 -1505.01)"><path class="cls-1" d="M2605.24 1525.79h-4.44v-1.16h4.44v1.16zm-8.88 0h-4.44v-1.16h4.44v1.16zm-8.88 0H2583v-1.16h4.44v1.16zm-8.88 0h-4.44v-1.16h4.44v1.16zm-8.88 0h-4.44v-1.16h4.44v1.16zm-8.88 0h-4.44v-1.16h4.44v1.16z"/></clipPath><clipPath id="clip-path-80" transform="translate(-2208.05 -1505.01)"><path class="cls-1" d="M2549.64 1524.63h2.31v1.16h-2.31z"/></clipPath><style>.cls-1{fill:#03a6ff}.cls-53{mix-blend-mode:screen}</style></defs><g style="isolation:isolate"><g id="Layer_3" data-name="Layer 3"><path class="cls-1" d="M2652.17 1717.49h-26.46l.6-1.16h25.19l14-24.25-14-24.25h-25.33l-.67-1.16h26.66l.17.29 14.5 25.12zM2413.18 1692.09l14.5-25.12.17-.29h26.66l-.67 1.16h-25.33l-14 24.25 14 24.25h25.19l.6 1.16h-26.46z" transform="translate(-2208.05 -1505.01)"/><path class="cls-1" d="M146.66 22.15h2.89v1.16h-2.89z"/><g clip-path="url(#clip-path)"><path class="cls-1" d="M138.89 0h34.72v34.72h-34.72z"/><path class="cls-1" d="M138.89 0h34.72v34.72h-34.72z"/></g><path class="cls-1" d="M2351.34 1528.32h-5.61v-1.16h5.61v1.16zm-9 0h-5.61v-1.16h5.61v1.16zm-9 0h-5.61v-1.16h5.61v1.16zm-9 0h-5.61v-1.16h5.61v1.16zm-9 0h-5.61v-1.16h5.61v1.16zm-9 0h-5.61v-1.16h5.61v1.16z" transform="translate(-2208.05 -1505.01)"/><g clip-path="url(#clip-path-2)"><path class="cls-1" d="M138.89 0h34.72v34.72h-34.72z"/><path class="cls-1" d="M138.89 0h34.72v34.72h-34.72zM104.17 0h34.72v34.72h-34.72z"/><path class="cls-1" d="M104.17 0h34.72v34.72h-34.72z"/><path class="cls-1" d="M104.17 0h34.72v34.72h-34.72z"/><path class="cls-1" d="M104.17 0h34.72v34.72h-34.72z"/><path class="cls-1" d="M104.17 0h34.72v34.72h-34.72z"/><path class="cls-1" d="M104.17 0h34.72v34.72h-34.72z"/><path class="cls-1" d="M104.17 0h34.72v34.72h-34.72z"/><path class="cls-1" d="M104.17 0h34.72v34.72h-34.72z"/><path class="cls-1" d="M104.17 0h34.72v34.72h-34.72z"/><path class="cls-1" d="M104.17 0h34.72v34.72h-34.72zM69.44 0h34.72v34.72H69.44z"/><path class="cls-1" d="M69.44 0h34.72v34.72H69.44z"/><path class="cls-1" d="M69.44 0h34.72v34.72H69.44z"/><path class="cls-1" d="M69.44 0h34.72v34.72H69.44z"/></g><path class="cls-1" d="M84.86 25.18l-.81-.82 2.21-2.21h3.13v1.16h-2.65l-1.88 1.87z"/><g clip-path="url(#clip-path-3)"><path class="cls-1" d="M69.44 0h34.72v34.72H69.44z"/><path class="cls-1" d="M69.44 0h34.72v34.72H69.44z"/></g><path class="cls-1" transform="rotate(-45 -633.131 3447.542)" d="M2284.44 1534.12h6.31v1.16h-6.31z"/><g clip-path="url(#clip-path-4)"><path class="cls-1" d="M69.44 0h34.72v34.72H69.44z"/><path class="cls-1" d="M69.44 0h34.72v34.72H69.44z"/></g><path class="cls-1" transform="rotate(-45 -639.071 3453.482)" d="M2280.21 1540.05h2.89v1.16h-2.89z"/><g clip-path="url(#clip-path-5)"><path class="cls-1" d="M69.44 0h34.72v34.72H69.44z"/><path class="cls-1" d="M69.44 0h34.72v34.72H69.44zM69.44 34.72h34.72v34.72H69.44z"/><path class="cls-1" d="M69.44 34.72h34.72v34.72H69.44z"/></g><path class="cls-1" d="M2479.41 1571.93z" transform="translate(-2208.05 -1505.01)"/><path class="cls-1" d="M41.08 75.34h8.86l-4.23 4.24h-8.86v-8.86l4.23-4.22v8.84z"/><path class="cls-1" d="M48.12 68.32h8.85l-4.71 4.71h-8.87v-8.84l4.73-4.73v8.86z"/><path class="cls-1" d="M55.14 61.29h8.85L59.28 66h-8.85v-8.85l4.71-4.71v8.85z"/><path class="cls-1" d="M62.17 54.27h8.84l-4.71 4.71h-8.84v-8.86l4.71-4.71v8.86z"/><path class="cls-1" d="M69.19 47.23h8.86l-4.73 4.72h-8.84V43.1l4.71-4.71v8.84z"/><path class="cls-1" d="M2479.45 1559.87v12h-12l-9.29-9.29v-7.13l-21.24-21.24v-2.64h-9.16l-.89.89h-29.43l-3.32 3.32h-34l-2.51-2.52h-28l-1.68-1.68h-27.65v1.42l-9.42 9.43v5.19l-2.34 2.34h-8.85v-8.84l2.34-2.34h5.2l9.43-9.42h31.37l1.61-1.6h28l2.51-2.52h34l3.32 3.32h29.43l.79.79h14.21l21.24 21.23h7.13z" transform="translate(-2208.05 -1505.01)"/><path class="cls-1" d="M82.7 36.81h71.43v1.16H82.7z"/><circle class="cls-1" cx="154.13" cy="37.39" r="1.77"/><circle class="cls-1" cx="128.75" cy="42.58" r="1.77"/><circle class="cls-1" cx="56.4" cy="76.08" r="1.77"/><path class="cls-1" d="M81.42 42h47.33v1.16H81.42z"/><path class="cls-1" transform="rotate(-45 -636.987 3474.639)" d="M2256.31 1561.21h54.87v1.16h-54.87z"/><path class="cls-1" d="M2433.42 1540.59l7.24 7.19v3.42l13.44 13.33h-6.24l-19.55-19.39-3.85 3.88h-6.69l8.4-8.47zM2414.34 1549.09l8.4-8.47h-6.43l-8.42 8.49zM2404.53 1549.13l8.4-8.47h-6.43l-8.42 8.49zM2394.71 1549.17l8.4-8.47h-6.43l-8.42 8.49z" transform="translate(-2208.05 -1505.01)"/><path class="cls-1" d="M190.02 20.21l2.38 2.38h2.43l-2.38-2.38h-2.43z"/><g clip-path="url(#clip-path-6)"><path class="cls-1" d="M173.61 0h34.72v34.72h-34.72z"/><path class="cls-1" d="M173.61 0h34.72v34.72h-34.72z"/></g><path class="cls-1" d="M194.83 20.21l2.38 2.38h2.44l-2.38-2.38h-2.44z"/><g clip-path="url(#clip-path-7)"><path class="cls-1" d="M173.61 0h34.72v34.72h-34.72z"/><path class="cls-1" d="M173.61 0h34.72v34.72h-34.72z"/></g><path class="cls-1" d="M199.65 20.21l2.38 2.38h2.44l-2.38-2.38h-2.44z"/><g clip-path="url(#clip-path-8)"><path class="cls-1" d="M173.61 0h34.72v34.72h-34.72z"/><path class="cls-1" d="M173.61 0h34.72v34.72h-34.72z"/></g><path class="cls-1" d="M204.47 20.21l2.37 2.38h2.44l-2.38-2.38h-2.43z"/><g clip-path="url(#clip-path-9)"><path class="cls-1" d="M208.33 0h34.72v34.72h-34.72z"/><path class="cls-1" d="M208.33 0h34.72v34.72h-34.72zM173.61 0h34.72v34.72h-34.72z"/><path class="cls-1" d="M173.61 0h34.72v34.72h-34.72z"/></g><path class="cls-1" d="M209.28 20.21l2.38 2.38h2.44l-2.38-2.38h-2.44z"/><g clip-path="url(#clip-path-10)"><path class="cls-1" d="M208.33 0h34.72v34.72h-34.72z"/><path class="cls-1" d="M208.33 0h34.72v34.72h-34.72z"/></g><circle class="cls-1" cx="32.96" cy="83.47" r="2.01"/><g clip-path="url(#clip-path-11)"><path class="cls-1" d="M34.72 69.44h34.72v34.72H34.72z"/><path class="cls-1" d="M34.72 69.44h34.72v34.72H34.72zM0 69.44h34.72v34.72H0z"/><path class="cls-1" d="M0 69.44h34.72v34.72H0z"/></g><circle class="cls-1" cx="28.17" cy="88.27" r="1.64"/><g clip-path="url(#clip-path-12)"><path class="cls-1" d="M0 69.44h34.72v34.72H0z"/><path class="cls-1" d="M0 69.44h34.72v34.72H0z"/></g><circle class="cls-1" cx="24.47" cy="91.96" r=".83"/><g clip-path="url(#clip-path-13)"><path class="cls-1" d="M0 69.44h34.72v34.72H0z"/><path class="cls-1" d="M0 69.44h34.72v34.72H0z"/></g><path class="cls-1" d="M146.66 350.85h2.89v1.16h-2.89z"/><g clip-path="url(#clip-path-14)"><path class="cls-1" d="M138.89 347.22h34.72v34.72h-34.72z"/><path class="cls-1" d="M138.89 347.22h34.72v34.72h-34.72z"/></g><path class="cls-1" d="M2351.34 1857h-5.61v-1.16h5.61v1.16zm-9 0h-5.61v-1.16h5.61v1.16zm-9 0h-5.61v-1.16h5.61v1.16zm-9 0h-5.61v-1.16h5.61v1.16zm-9 0h-5.61v-1.16h5.61v1.16zm-9 0h-5.61v-1.16h5.61v1.16z" transform="translate(-2208.05 -1505.01)"/><g clip-path="url(#clip-path-15)"><path class="cls-1" d="M138.89 347.22h34.72v34.72h-34.72z"/><path class="cls-1" d="M138.89 347.22h34.72v34.72h-34.72zM104.17 347.22h34.72v34.72h-34.72z"/><path class="cls-1" d="M104.17 347.22h34.72v34.72h-34.72z"/><path class="cls-1" d="M104.17 347.22h34.72v34.72h-34.72z"/><path class="cls-1" d="M104.17 347.22h34.72v34.72h-34.72z"/><path class="cls-1" d="M104.17 347.22h34.72v34.72h-34.72z"/><path class="cls-1" d="M104.17 347.22h34.72v34.72h-34.72z"/><path class="cls-1" d="M104.17 347.22h34.72v34.72h-34.72z"/><path class="cls-1" d="M104.17 347.22h34.72v34.72h-34.72z"/><path class="cls-1" d="M104.17 347.22h34.72v34.72h-34.72z"/><path class="cls-1" d="M104.17 347.22h34.72v34.72h-34.72zM69.44 347.22h34.72v34.72H69.44z"/><path class="cls-1" d="M69.44 347.22h34.72v34.72H69.44z"/><path class="cls-1" d="M69.44 347.22h34.72v34.72H69.44z"/><path class="cls-1" d="M69.44 347.22h34.72v34.72H69.44z"/></g><path class="cls-1" d="M89.39 352.01h-3.13l-2.21-2.22.81-.82 1.88 1.88h2.65v1.16z"/><g clip-path="url(#clip-path-16)"><path class="cls-1" d="M69.44 347.22h34.72v34.72H69.44z"/><path class="cls-1" d="M69.44 347.22h34.72v34.72H69.44z"/></g><path class="cls-1" transform="rotate(-45 -633.383 3762.256)" d="M2287.02 1846.32h1.16v6.32h-1.16z"/><g clip-path="url(#clip-path-17)"><path class="cls-1" d="M69.44 312.5h34.72v34.72H69.44z"/><path class="cls-1" d="M69.44 312.5h34.72v34.72H69.44z"/></g><path class="cls-1" transform="rotate(-44.99 -639.422 3757.085)" d="M2281.08 1842.1h1.16v2.89h-1.16z"/><g clip-path="url(#clip-path-18)"><path class="cls-1" d="M69.44 312.5h34.72v34.72H69.44z"/><path class="cls-1" d="M69.44 312.5h34.72v34.72H69.44z"/></g><path class="cls-1" d="M2479.41 1812.24z" transform="translate(-2208.05 -1505.01)"/><path class="cls-1" d="M41.08 298.81h8.86l-4.23-4.23h-8.86v8.85l4.23 4.23v-8.85z"/><path class="cls-1" d="M48.12 305.84h8.85l-4.71-4.71h-8.87v8.84l4.73 4.72v-8.85z"/><path class="cls-1" d="M55.14 312.86h8.85l-4.71-4.71h-8.85v8.86l4.71 4.71v-8.86z"/><path class="cls-1" d="M62.17 319.89h8.84l-4.71-4.71h-8.84v8.85l4.71 4.71v-8.85z"/><path class="cls-1" d="M69.19 326.93h8.86l-4.73-4.73h-8.84v8.86l4.71 4.71v-8.84z"/><path class="cls-1" d="M2479.45 1824.31v-12h-12l-9.29 9.29v7.13l-21.24 21.24v2.64h-9.16l-.89-.89h-29.43l-3.32-3.32h-34l-2.51 2.52h-28l-1.68 1.68h-27.65v-1.33l-9.42-9.43v-5.19l-2.34-2.34h-8.85v8.84l2.34 2.34h5.2l9.43 9.42h31.37l1.61 1.6h28l2.38 2.49h34l3.32-3.32h29.43l.79-.79h14.21l21.25-21.29h7.13z" transform="translate(-2208.05 -1505.01)"/><path class="cls-1" d="M82.7 336.19h71.43v1.16H82.7z"/><circle class="cls-1" cx="154.13" cy="336.77" r="1.77"/><circle class="cls-1" cx="128.75" cy="331.57" r="1.77"/><circle class="cls-1" cx="56.4" cy="298.08" r="1.77"/><path class="cls-1" d="M81.42 331h47.33v1.16H81.42z"/><path class="cls-1" transform="rotate(-45 -636.984 3735.237)" d="M2283.16 1794.95h1.16v54.87h-1.16z"/><path class="cls-1" d="M2433.42 1843.58l7.24-7.19V1833l13.44-13.33h-6.24l-19.53 19.33-3.85-3.88h-6.69l8.4 8.47zM2414.34 1835.09l8.4 8.47h-6.43l-8.42-8.49zM2404.53 1835l8.4 8.47h-6.43l-8.42-8.49zM2394.71 1835l8.4 8.47h-6.43l-8.42-8.49z" transform="translate(-2208.05 -1505.01)"/><path class="cls-1" d="M190.02 353.95l2.38-2.38h2.43l-2.38 2.38h-2.43z"/><g clip-path="url(#clip-path-19)"><path class="cls-1" d="M173.61 347.22h34.72v34.72h-34.72z"/><path class="cls-1" d="M173.61 347.22h34.72v34.72h-34.72z"/></g><path class="cls-1" d="M194.83 353.95l2.38-2.38h2.44l-2.38 2.38h-2.44z"/><g clip-path="url(#clip-path-20)"><path class="cls-1" d="M173.61 347.22h34.72v34.72h-34.72z"/><path class="cls-1" d="M173.61 347.22h34.72v34.72h-34.72z"/></g><path class="cls-1" d="M199.65 353.95l2.38-2.38h2.44l-2.38 2.38h-2.44z"/><g clip-path="url(#clip-path-21)"><path class="cls-1" d="M173.61 347.22h34.72v34.72h-34.72z"/><path class="cls-1" d="M173.61 347.22h34.72v34.72h-34.72z"/></g><path class="cls-1" d="M204.47 353.95l2.37-2.38h2.44l-2.38 2.38h-2.43z"/><g clip-path="url(#clip-path-22)"><path class="cls-1" d="M208.33 347.22h34.72v34.72h-34.72z"/><path class="cls-1" d="M208.33 347.22h34.72v34.72h-34.72zM173.61 347.22h34.72v34.72h-34.72z"/><path class="cls-1" d="M173.61 347.22h34.72v34.72h-34.72z"/></g><path class="cls-1" d="M209.28 353.95l2.38-2.38h2.44l-2.38 2.38h-2.44z"/><g clip-path="url(#clip-path-23)"><path class="cls-1" d="M208.33 347.22h34.72v34.72h-34.72z"/><path class="cls-1" d="M208.33 347.22h34.72v34.72h-34.72z"/></g><circle class="cls-1" cx="32.96" cy="290.69" r="2.01"/><g clip-path="url(#clip-path-24)"><path class="cls-1" d="M34.72 277.77h34.72v34.72H34.72z"/><path class="cls-1" d="M34.72 277.77h34.72v34.72H34.72zM0 277.77h34.72v34.72H0z"/><path class="cls-1" d="M0 277.77h34.72v34.72H0z"/></g><circle class="cls-1" cx="28.17" cy="285.89" r="1.64"/><g clip-path="url(#clip-path-25)"><path class="cls-1" d="M0 277.77h34.72v34.72H0z"/><path class="cls-1" d="M0 277.77h34.72v34.72H0z"/></g><circle class="cls-1" cx="24.47" cy="282.19" r=".83"/><g clip-path="url(#clip-path-26)"><path class="cls-1" d="M0 277.77h34.72v34.72H0z"/><path class="cls-1" d="M0 277.77h34.72v34.72H0z"/></g><path class="cls-1" d="M514.36 22.15h2.89v1.16h-2.89z"/><g clip-path="url(#clip-path-27)"><path class="cls-1" d="M486.11 0h34.72v34.72h-34.72z"/><path class="cls-1" d="M486.11 0h34.72v34.72h-34.72z"/></g><path class="cls-1" d="M2794.48 1537.58l-4.06-4.06.82-.82 4.06 4.06zm-6.5-6.5l-2.77-2.77h-1.35v-1.16h1.83l3.11 3.11zm-7.56-2.77h-5.74v-1.16h5.74v1.16zm-9.19 0h-5.74v-1.16h5.74v1.16zm-9.19 0h-5.74v-1.16h5.74v1.16zm-9.19 0h-5.74v-1.16h5.74v1.16zm-9.19 0h-5.74v-1.16h5.74v1.16zm-9.19 0h-5.74v-1.16h5.74v1.16z" transform="translate(-2208.05 -1505.01)"/><g clip-path="url(#clip-path-28)"><path class="cls-1" d="M555.55 0h34.72v34.72h-34.72z"/><path class="cls-1" d="M555.55 0h34.72v34.72h-34.72z"/><path class="cls-1" d="M555.55 0h34.72v34.72h-34.72z"/><path class="cls-1" d="M555.55 0h34.72v34.72h-34.72z"/><path class="cls-1" d="M555.55 0h34.72v34.72h-34.72z"/><path class="cls-1" d="M555.55 0h34.72v34.72h-34.72z"/><path class="cls-1" d="M555.55 0h34.72v34.72h-34.72z"/><path class="cls-1" d="M555.55 0h34.72v34.72h-34.72z"/><path class="cls-1" d="M520.83 0h34.72v34.72h-34.72z"/><path class="cls-1" d="M520.83 0h34.72v34.72h-34.72z"/><path class="cls-1" d="M520.83 0h34.72v34.72h-34.72z"/><path class="cls-1" d="M520.83 0h34.72v34.72h-34.72z"/><path class="cls-1" d="M520.83 0h34.72v34.72h-34.72z"/><path class="cls-1" d="M520.83 0h34.72v34.72h-34.72z"/><path class="cls-1" d="M520.83 0h34.72v34.72h-34.72z"/><path class="cls-1" d="M520.83 0h34.72v34.72h-34.72zM486.11 0h34.72v34.72h-34.72z"/><path class="cls-1" d="M486.11 0h34.72v34.72h-34.72z"/></g><path class="cls-1" transform="rotate(-45 -122.278 3453.49)" d="M2797.77 1539.18h1.16v2.89h-1.16z"/><g clip-path="url(#clip-path-29)"><path class="cls-1" d="M590.27 0h34.72v34.72h-34.72z"/><path class="cls-1" d="M590.27 0h34.72v34.72h-34.72zM590.27 34.72h34.72v34.72h-34.72z"/><path class="cls-1" d="M590.27 34.72h34.72v34.72h-34.72zM555.55 0h34.72v34.72h-34.72z"/><path class="cls-1" d="M555.55 0h34.72v34.72h-34.72zM555.55 34.72h34.72v34.72h-34.72z"/><path class="cls-1" d="M555.55 34.72h34.72v34.72h-34.72z"/></g><path class="cls-1" d="M2600.6 1571.93z" transform="translate(-2208.05 -1505.01)"/><path class="cls-1" d="M622.83 75.34h-8.86l4.23 4.24h8.86v-8.86l-4.23-4.22v8.84z"/><path class="cls-1" d="M615.79 68.32h-8.85l4.71 4.71h8.87v-8.84l-4.73-4.73v8.86z"/><path class="cls-1" d="M608.77 61.29h-8.86l4.72 4.71h8.85v-8.85l-4.71-4.71v8.85z"/><path class="cls-1" d="M601.74 54.27h-8.84l4.71 4.71h8.84v-8.86l-4.71-4.71v8.86z"/><path class="cls-1" d="M594.72 47.23h-8.86l4.73 4.72h8.84V43.1l-4.71-4.71v8.84z"/><path class="cls-1" d="M2600.56 1559.87v12h12l9.29-9.29v-7.13l21.24-21.24v-2.64h9.16l.89.89h29.43l3.32 3.32h34l2.51-2.52h28l1.68-1.68h27.65v1.42l9.42 9.43v5.19l2.34 2.34h8.85v-8.84l-2.34-2.34h-5.2l-9.43-9.42H2752l-1.61-1.6h-28l-2.51-2.52h-34l-3.32 3.32h-29.43l-.79.79h-14.21l-21.13 21.22h-7.13z" transform="translate(-2208.05 -1505.01)"/><path class="cls-1" d="M509.78 36.81h71.43v1.16h-71.43z"/><circle class="cls-1" cx="509.78" cy="37.39" r="1.77"/><circle class="cls-1" cx="535.16" cy="42.58" r="1.77"/><circle class="cls-1" cx="607.51" cy="76.08" r="1.77"/><path class="cls-1" d="M535.16 42h47.33v1.16h-47.33z"/><path class="cls-1" transform="rotate(-45 -124.424 3474.648)" d="M2795.69 1534.36h1.16v54.87h-1.16z"/><path class="cls-1" d="M2646.59 1540.59l-7.24 7.19v3.42l-13.44 13.33h6.24l19.55-19.39 3.85 3.88h6.69l-8.4-8.47zM2665.67 1549.09l-8.4-8.47h6.43l8.42 8.49zM2675.49 1549.13l-8.4-8.47h6.43l8.42 8.49zM2685.3 1549.17l-8.4-8.47h6.43l8.42 8.49z" transform="translate(-2208.05 -1505.01)"/><path class="cls-1" d="M473.89 20.21l-2.38 2.38h-2.43l2.38-2.38h2.43z"/><g clip-path="url(#clip-path-30)"><path class="cls-1" d="M451.38 0h34.72v34.72h-34.72z"/><path class="cls-1" d="M451.38 0h34.72v34.72h-34.72z"/></g><path class="cls-1" d="M469.08 20.21l-2.38 2.38h-2.44l2.38-2.38h2.44z"/><g clip-path="url(#clip-path-31)"><path class="cls-1" d="M451.38 0h34.72v34.72h-34.72z"/><path class="cls-1" d="M451.38 0h34.72v34.72h-34.72z"/></g><path class="cls-1" d="M464.26 20.21l-2.38 2.38h-2.44l2.38-2.38h2.44z"/><g clip-path="url(#clip-path-32)"><path class="cls-1" d="M451.38 0h34.72v34.72h-34.72z"/><path class="cls-1" d="M451.38 0h34.72v34.72h-34.72z"/></g><path class="cls-1" d="M459.44 20.21l-2.38 2.38h-2.43l2.38-2.38h2.43z"/><g clip-path="url(#clip-path-33)"><path class="cls-1" d="M451.38 0h34.72v34.72h-34.72z"/><path class="cls-1" d="M451.38 0h34.72v34.72h-34.72z"/></g><path class="cls-1" d="M454.63 20.21l-2.38 2.38h-2.44l2.38-2.38h2.44z"/><g clip-path="url(#clip-path-34)"><path class="cls-1" d="M451.38 0h34.72v34.72h-34.72z"/><path class="cls-1" d="M451.38 0h34.72v34.72h-34.72zM416.66 0h34.72v34.72h-34.72z"/><path class="cls-1" d="M416.66 0h34.72v34.72h-34.72z"/></g><circle class="cls-1" cx="630.95" cy="83.47" r="2.01"/><g clip-path="url(#clip-path-35)"><path class="cls-1" d="M624.99 69.44h34.72v34.72h-34.72z"/><path class="cls-1" d="M624.99 69.44h34.72v34.72h-34.72z"/></g><circle class="cls-1" cx="635.74" cy="88.27" r="1.64"/><g clip-path="url(#clip-path-36)"><path class="cls-1" d="M624.99 69.44h34.72v34.72h-34.72z"/><path class="cls-1" d="M624.99 69.44h34.72v34.72h-34.72z"/></g><circle class="cls-1" cx="639.44" cy="91.96" r=".83"/><g clip-path="url(#clip-path-37)"><path class="cls-1" d="M624.99 69.44h34.72v34.72h-34.72z"/><path class="cls-1" d="M624.99 69.44h34.72v34.72h-34.72z"/></g><path class="cls-1" d="M514.36 350.85h2.89v1.16h-2.89z"/><g clip-path="url(#clip-path-38)"><path class="cls-1" d="M486.11 347.22h34.72v34.72h-34.72z"/><path class="cls-1" d="M486.11 347.22h34.72v34.72h-34.72z"/></g><path class="cls-1" d="M2779.2 1857h-5.61v-1.16h5.61v1.16zm-9 0h-5.61v-1.16h5.61v1.16zm-9 0h-5.61v-1.16h5.61v1.16zm-9 0h-5.61v-1.16h5.61v1.16zm-9 0h-5.61v-1.16h5.61v1.16zm-9 0h-5.61v-1.16h5.61v1.16z" transform="translate(-2208.05 -1505.01)"/><g clip-path="url(#clip-path-39)"><path class="cls-1" d="M555.55 347.22h34.72v34.72h-34.72z"/><path class="cls-1" d="M555.55 347.22h34.72v34.72h-34.72z"/><path class="cls-1" d="M555.55 347.22h34.72v34.72h-34.72z"/><path class="cls-1" d="M555.55 347.22h34.72v34.72h-34.72z"/><path class="cls-1" d="M520.83 347.22h34.72v34.72h-34.72z"/><path class="cls-1" d="M520.83 347.22h34.72v34.72h-34.72z"/><path class="cls-1" d="M520.83 347.22h34.72v34.72h-34.72z"/><path class="cls-1" d="M520.83 347.22h34.72v34.72h-34.72z"/><path class="cls-1" d="M520.83 347.22h34.72v34.72h-34.72z"/><path class="cls-1" d="M520.83 347.22h34.72v34.72h-34.72z"/><path class="cls-1" d="M520.83 347.22h34.72v34.72h-34.72z"/><path class="cls-1" d="M520.83 347.22h34.72v34.72h-34.72zM486.11 347.22h34.72v34.72h-34.72z"/><path class="cls-1" d="M486.11 347.22h34.72v34.72h-34.72z"/></g><path class="cls-1" d="M577.65 352.01h-3.14v-1.16h2.66l1.87-1.88.82.82-2.21 2.22z"/><g clip-path="url(#clip-path-40)"><path class="cls-1" d="M555.55 347.22h34.72v34.72h-34.72z"/><path class="cls-1" d="M555.55 347.22h34.72v34.72h-34.72z"/></g><path class="cls-1" transform="rotate(-45.01 -128.09 3761.629)" d="M2789.26 1848.9h6.32v1.16h-6.32z"/><g clip-path="url(#clip-path-41)"><path class="cls-1" d="M555.55 312.5h34.72v34.72h-34.72z"/><path class="cls-1" d="M555.55 312.5h34.72v34.72h-34.72z"/></g><path class="cls-1" transform="rotate(-45 -122.64 3756.349)" d="M2796.9 1842.96h2.89v1.16h-2.89z"/><g clip-path="url(#clip-path-42)"><path class="cls-1" d="M590.27 312.5h34.72v34.72h-34.72z"/><path class="cls-1" d="M590.27 312.5h34.72v34.72h-34.72zM555.55 312.5h34.72v34.72h-34.72z"/><path class="cls-1" d="M555.55 312.5h34.72v34.72h-34.72z"/></g><path class="cls-1" d="M2600.6 1812.24z" transform="translate(-2208.05 -1505.01)"/><path class="cls-1" d="M622.83 298.81h-8.86l4.23-4.23h8.86v8.85l-4.23 4.23v-8.85z"/><path class="cls-1" d="M615.79 305.84h-8.85l4.71-4.71h8.87v8.84l-4.73 4.72v-8.85z"/><path class="cls-1" d="M608.77 312.86h-8.86l4.72-4.71h8.85v8.86l-4.71 4.71v-8.86z"/><path class="cls-1" d="M601.74 319.89h-8.84l4.71-4.71h8.84v8.85l-4.71 4.71v-8.85z"/><path class="cls-1" d="M594.72 326.93h-8.86l4.73-4.73h8.84v8.86l-4.71 4.71v-8.84z"/><path class="cls-1" d="M2600.56 1824.31v-12h12l9.29 9.29v7.13l21.24 21.24v2.64h9.16l.89-.89h29.43l3.32-3.32h34l2.51 2.52h28l1.68 1.68h27.65v-1.33l9.42-9.43v-5.19l2.34-2.34h8.85v8.84l-2.34 2.34h-5.2l-9.43 9.42H2752l-1.61 1.6h-28L2720 1859h-34l-3.32-3.32h-29.43l-.79-.79h-14.21L2617 1833.6h-7.13z" transform="translate(-2208.05 -1505.01)"/><path class="cls-1" d="M509.78 336.19h71.43v1.16h-71.43z"/><circle class="cls-1" cx="509.78" cy="336.77" r="1.77"/><circle class="cls-1" cx="535.16" cy="331.57" r="1.77"/><circle class="cls-1" cx="607.51" cy="298.08" r="1.77"/><path class="cls-1" d="M535.16 331h47.33v1.16h-47.33z"/><path class="cls-1" transform="rotate(-45 -124.718 3735.18)" d="M2768.84 1821.8h54.87v1.16h-54.87z"/><path class="cls-1" d="M2646.59 1843.58l-7.24-7.19V1833l-13.44-13.33h6.24l19.55 19.39 3.85-3.88h6.69l-8.4 8.47zM2665.67 1835.09l-8.4 8.47h6.43l8.42-8.49zM2675.49 1835l-8.4 8.47h6.43l8.42-8.49zM2685.3 1835l-8.4 8.47h6.43l8.42-8.49z" transform="translate(-2208.05 -1505.01)"/><path class="cls-1" d="M473.89 353.95l-2.38-2.38h-2.43l2.38 2.38h2.43z"/><g clip-path="url(#clip-path-43)"><path class="cls-1" d="M451.38 347.22h34.72v34.72h-34.72z"/><path class="cls-1" d="M451.38 347.22h34.72v34.72h-34.72z"/></g><path class="cls-1" d="M469.08 353.95l-2.38-2.38h-2.44l2.38 2.38h2.44z"/><g clip-path="url(#clip-path-44)"><path class="cls-1" d="M451.38 347.22h34.72v34.72h-34.72z"/><path class="cls-1" d="M451.38 347.22h34.72v34.72h-34.72z"/></g><path class="cls-1" d="M464.26 353.95l-2.38-2.38h-2.44l2.38 2.38h2.44z"/><g clip-path="url(#clip-path-45)"><path class="cls-1" d="M451.38 347.22h34.72v34.72h-34.72z"/><path class="cls-1" d="M451.38 347.22h34.72v34.72h-34.72z"/></g><path class="cls-1" d="M459.44 353.95l-2.38-2.38h-2.43l2.38 2.38h2.43z"/><g clip-path="url(#clip-path-46)"><path class="cls-1" d="M451.38 347.22h34.72v34.72h-34.72z"/><path class="cls-1" d="M451.38 347.22h34.72v34.72h-34.72z"/></g><path class="cls-1" d="M454.63 353.95l-2.38-2.38h-2.44l2.38 2.38h2.44z"/><g clip-path="url(#clip-path-47)"><path class="cls-1" d="M451.38 347.22h34.72v34.72h-34.72z"/><path class="cls-1" d="M451.38 347.22h34.72v34.72h-34.72zM416.66 347.22h34.72v34.72h-34.72z"/><path class="cls-1" d="M416.66 347.22h34.72v34.72h-34.72z"/></g><circle class="cls-1" cx="630.95" cy="290.69" r="2.01"/><g clip-path="url(#clip-path-48)"><path class="cls-1" d="M624.99 277.77h34.72v34.72h-34.72z"/><path class="cls-1" d="M624.99 277.77h34.72v34.72h-34.72z"/></g><circle class="cls-1" cx="635.74" cy="285.89" r="1.64"/><g clip-path="url(#clip-path-49)"><path class="cls-1" d="M624.99 277.77h34.72v34.72h-34.72z"/><path class="cls-1" d="M624.99 277.77h34.72v34.72h-34.72z"/></g><circle class="cls-1" cx="639.44" cy="282.19" r=".83"/><g clip-path="url(#clip-path-50)"><path class="cls-1" d="M624.99 277.77h34.72v34.72h-34.72z"/><path class="cls-1" d="M624.99 277.77h34.72v34.72h-34.72z"/></g><g class="cls-53"><path class="cls-1" d="M2631.85 1677.68l-6-10.42-20.6-35.67-13.92-25.09-3.46-3.33h-28.51l-2-1.91h-5.9l-2.8 2.7h-17.29l-2.8-2.7h-5.9l-2 1.91h-28.51l-3.46 3.33-13.91 25.07-20.61 35.69-6 10.42-8.32 14.41 8.32 14.41 4.33 7.5 1.5 2.92 33.15 64.2 2.47 2.47h13.06l2.25-2.25h14.31l6 6h11.92l2.86-2.87 2.86 2.87h11.92l6-6h14.31l2.25 2.25h13.06l2.47-2.47 33.15-64.2 1.5-2.92 4.33-7.5 8-13.83.34-.58zm-2.67 28.82l-6 10.42-34.41 59.61h-97.5l-34.41-59.61-6-10.42-8.32-14.41 8.32-14.41 6-10.42 34.41-59.61h97.5l34.41 59.61 6 10.42 8.32 14.41z" transform="translate(-2208.05 -1505.01)"/></g><path class="cls-1" d="M323.27 251.73h-28.64l-37.33-64.65.17-.29 37.16-64.36h28.64v1.16H295.3l-36.66 63.49 36.66 63.49h27.97v1.16z"/><path class="cls-1" transform="rotate(-60.01 82.9 2819.428)" d="M2488.77 1659.52h2.89v1.16h-2.89z"/><g clip-path="url(#clip-path-51)"><path class="cls-1" d="M277.77 138.89h34.72v34.72h-34.72z"/><path class="cls-1" d="M277.77 138.89h34.72v34.72h-34.72z"/></g><path class="cls-1" d="M2475.8 1686.23l-1-.58 2.63-4.55 1 .58zm4.73-8.2l-1-.58 2.63-4.55 1 .58zm4.73-8.2l-1-.58 2.63-4.55 1 .58z" transform="translate(-2208.05 -1505.01)"/><g clip-path="url(#clip-path-52)"><path class="cls-1" d="M243.05 173.61h34.72v34.72h-34.72z"/><path class="cls-1" d="M243.05 173.61h34.72v34.72h-34.72zM243.05 138.89h34.72v34.72h-34.72z"/><path class="cls-1" d="M243.05 138.89h34.72v34.72h-34.72zM277.77 138.89h34.72v34.72h-34.72z"/><path class="cls-1" d="M277.77 138.89h34.72v34.72h-34.72zM243.05 138.89h34.72v34.72h-34.72z"/><path class="cls-1" d="M243.05 138.89h34.72v34.72h-34.72z"/></g><path class="cls-1" d="M264.65 189.87l-1.62-2.79 1.62-2.8 1 .58-1.28 2.22 1.28 2.21-1 .58z"/><g clip-path="url(#clip-path-53)"><path class="cls-1" d="M243.05 173.61h34.72v34.72h-34.72z"/><path class="cls-1" d="M243.05 173.61h34.72v34.72h-34.72z"/></g><path class="cls-1" d="M2486.89 1719.46l-2.63-4.55 1-.58 2.63 4.55zm-4.73-8.19l-2.63-4.55 1-.58 2.63 4.55zm-4.73-8.19l-2.63-4.55 1-.58 2.63 4.55z" transform="translate(-2208.05 -1505.01)"/><g clip-path="url(#clip-path-54)"><path class="cls-1" d="M277.77 208.33h34.72v34.72h-34.72z"/><path class="cls-1" d="M277.77 208.33h34.72v34.72h-34.72zM243.05 208.33h34.72v34.72h-34.72z"/><path class="cls-1" d="M243.05 208.33h34.72v34.72h-34.72zM243.05 173.61h34.72v34.72h-34.72z"/><path class="cls-1" d="M243.05 173.61h34.72v34.72h-34.72z"/><path class="cls-1" d="M243.05 173.61h34.72v34.72h-34.72z"/><path class="cls-1" d="M243.05 173.61h34.72v34.72h-34.72z"/></g><path class="cls-1" transform="rotate(-30 -1422.07 5091.898)" d="M2489.64 1722.62h1.16v2.89h-1.16z"/><g clip-path="url(#clip-path-55)"><path class="cls-1" d="M277.77 208.33h34.72v34.72h-34.72z"/><path class="cls-1" d="M277.77 208.33h34.72v34.72h-34.72z"/></g><path class="cls-1" d="M269.43 167.24v39.68l-11.46-19.84 11.46-19.84zM321.58 249.46h3.37v3.37h-3.37zM321.58 121.32h3.37v3.37h-3.37zM296.62 248.28h-3.31l-1.66 2.87 1.66 2.87h3.31l1.66-2.87-1.66-2.87zM296.77 120.14h-3.32l-1.65 2.87 1.65 2.87h3.32l1.65-2.87-1.65-2.87z"/><circle class="cls-1" cx="282.89" cy="153.84" r="1.6"/><circle class="cls-1" cx="282.89" cy="220.32" r="1.6"/><path class="cls-1" d="M340.64 251.73h28.64l37.33-64.65-.17-.29-37.16-64.36h-28.64v1.16h27.97l36.66 63.49-36.66 63.49h-27.97v1.16z"/><path class="cls-1" transform="rotate(-30 -1323.005 5027.762)" d="M2589.22 1658.65h1.16v2.89h-1.16z"/><g clip-path="url(#clip-path-56)"><path class="cls-1" d="M381.94 138.89h34.72v34.72h-34.72z"/><path class="cls-1" d="M381.94 138.89h34.72v34.72h-34.72z"/><path class="cls-1" d="M347.22 138.89h34.72v34.72h-34.72z"/><path class="cls-1" d="M347.22 138.89h34.72v34.72h-34.72z"/></g><path class="cls-1" d="M2601.58 1681.68l1-.58 2.63 4.55-1 .58zm-4.73-8.2l1-.58 2.63 4.55-1 .58zm-4.73-8.19l1-.58 2.63 4.55-1 .58z" transform="translate(-2208.05 -1505.01)"/><g clip-path="url(#clip-path-57)"><path class="cls-1" d="M381.94 173.61h34.72v34.72h-34.72z"/><path class="cls-1" d="M381.94 173.61h34.72v34.72h-34.72zM381.94 138.89h34.72v34.72h-34.72z"/><path class="cls-1" d="M381.94 138.89h34.72v34.72h-34.72z"/><path class="cls-1" d="M381.94 138.89h34.72v34.72h-34.72z"/><path class="cls-1" d="M381.94 138.89h34.72v34.72h-34.72z"/></g><path class="cls-1" d="M399.26 189.87l1.62-2.79-1.62-2.8-1 .58 1.28 2.22-1.28 2.21 1 .58z"/><g clip-path="url(#clip-path-58)"><path class="cls-1" d="M381.94 173.61h34.72v34.72h-34.72z"/><path class="cls-1" d="M381.94 173.61h34.72v34.72h-34.72z"/></g><path class="cls-1" d="M2592.12 1718.89l2.63-4.55 1 .58-2.63 4.55zm4.73-8.19l2.63-4.55 1 .58-2.63 4.55zm4.73-8.19l2.63-4.55 1 .58-2.63 4.55z" transform="translate(-2208.05 -1505.01)"/><g clip-path="url(#clip-path-59)"><path class="cls-1" d="M381.94 208.33h34.72v34.72h-34.72z"/><path class="cls-1" d="M381.94 208.33h34.72v34.72h-34.72zM381.94 173.61h34.72v34.72h-34.72z"/><path class="cls-1" d="M381.94 173.61h34.72v34.72h-34.72z"/><path class="cls-1" d="M381.94 173.61h34.72v34.72h-34.72z"/><path class="cls-1" d="M381.94 173.61h34.72v34.72h-34.72z"/></g><path class="cls-1" transform="rotate(-60 182.413 2883.791)" d="M2588.35 1723.49h2.89v1.16h-2.89z"/><g clip-path="url(#clip-path-60)"><path class="cls-1" d="M381.94 208.33h34.72v34.72h-34.72z"/><path class="cls-1" d="M381.94 208.33h34.72v34.72h-34.72z"/><path class="cls-1" d="M347.22 208.33h34.72v34.72h-34.72z"/><path class="cls-1" d="M347.22 208.33h34.72v34.72h-34.72z"/></g><path class="cls-1" d="M394.48 167.24v39.68l11.46-19.84-11.46-19.84z"/><path class="cls-1" transform="rotate(180 1444.665 1003.655)" d="M2547.01 1754.47h3.37v3.37h-3.37z"/><path class="cls-1" transform="rotate(180 1444.665 875.51)" d="M2547.01 1626.33h3.37v3.37h-3.37z"/><path class="cls-1" d="M367.29 248.28h3.31l1.66 2.87-1.66 2.87h-3.31l-1.66-2.87 1.66-2.87zM367.14 120.14h3.32l1.65 2.87-1.65 2.87h-3.32l-1.65-2.87 1.65-2.87z"/><circle class="cls-1" cx="381.02" cy="153.84" r="1.6"/><circle class="cls-1" cx="381.02" cy="220.32" r="1.6"/><g class="cls-53"><path class="cls-1" d="M2540 1727a34.88 34.88 0 1134.88-34.88A34.92 34.92 0 012540 1727zm0-69.18a34.3 34.3 0 1034.3 34.3 34.34 34.34 0 00-34.3-34.33z" transform="translate(-2208.05 -1505.01)"/></g><g class="cls-53"><circle class="cls-1" cx="331.95" cy="187.08" r="2.21"/></g><g class="cls-53"><path class="cls-1" d="M2540 1827.94l-16.55-16.55 16.55-16.55 16.55 16.55zm-14.91-16.55l14.91 14.91 14.91-14.91-14.91-14.91z" transform="translate(-2208.05 -1505.01)"/><path class="cls-1" transform="rotate(-135 1124.285 1516.185)" d="M2537.04 1808.42h5.93v5.93h-5.93z"/></g><path class="cls-1" d="M246.29 350.57l1.55 5.77-2.54 2.54-1.55-5.77-5.77-1.55 2.54-2.54 5.77 1.55zM251.22 345.64l1.54 5.77-2.53 2.54-1.55-5.77-5.77-1.55 2.54-2.54 5.77 1.55zM256.15 340.71l1.54 5.77-2.54 2.54-1.54-5.77-5.77-1.55 2.54-2.53 5.77 1.54zM261.07 335.78l1.55 5.77-2.54 2.54-1.55-5.77-5.77-1.54 2.55-2.54 5.76 1.54zM417.62 350.57l-1.55 5.77 2.54 2.54 1.55-5.77 5.77-1.55-2.54-2.54-5.77 1.55zM412.69 345.64l-1.55 5.77 2.54 2.54 1.55-5.77 5.77-1.55-2.54-2.54-5.77 1.55zM407.76 340.71l-1.54 5.77 2.54 2.54 1.54-5.77 5.77-1.55-2.54-2.53-5.77 1.54zM402.84 335.78l-1.55 5.77 2.54 2.54 1.55-5.77 5.76-1.54-2.53-2.54-5.77 1.54zM330.12 334.03l1.83-1.64 1.84 1.64v-1.97l-1.84-1.63-1.83 1.63v1.97zM294.61 348.08l-2.92 2.91h-15.05l.9.9h16.86l2.37-2.37h10.72l4.64 4.64h4.86l-6.08-6.08h-16.3z"/><path class="cls-1" d="M298.02 340.95l-1.22 1.22h7.75v.89h-8.64l-1.28 1.27h7.2v.89h-8.09l-1.13 1.13h-12.28l-3.69 3.7h14.66l2.91-2.92h17.08l7.03 7.03h4.53l-13.22-13.21h-11.61z"/><path class="cls-1" d="M2502 1857.87a.61.61 0 00-.15-.1.52.52 0 00-.52.1.5.5 0 00-.09.15.45.45 0 000 .19.47.47 0 00.13.33.5.5 0 00.34.14.48.48 0 00.33-.14.46.46 0 00.14-.33.67.67 0 000-.19.53.53 0 00-.18-.15z" transform="translate(-2208.05 -1505.01)"/><g clip-path="url(#clip-path-61)"><path class="cls-1" d="M277.77 347.22h34.72v34.72h-34.72z"/><path class="cls-1" d="M277.77 347.22h34.72v34.72h-34.72z"/></g><path class="cls-1" d="M2493.84 1857.74a.47.47 0 00-.47.47.48.48 0 00.47.47.47.47 0 00.47-.47.47.47 0 00-.47-.47z" transform="translate(-2208.05 -1505.01)"/><g clip-path="url(#clip-path-62)"><path class="cls-1" d="M277.77 347.22h34.72v34.72h-34.72z"/><path class="cls-1" d="M277.77 347.22h34.72v34.72h-34.72z"/></g><path class="cls-1" d="M2491.23 1857.74a.47.47 0 00-.47.47.48.48 0 00.47.47.47.47 0 00.47-.47.47.47 0 00-.47-.47z" transform="translate(-2208.05 -1505.01)"/><g clip-path="url(#clip-path-63)"><path class="cls-1" d="M277.77 347.22h34.72v34.72h-34.72z"/><path class="cls-1" d="M277.77 347.22h34.72v34.72h-34.72z"/></g><path class="cls-1" d="M2488.63 1857.74a.47.47 0 00-.48.47.48.48 0 001 0 .47.47 0 00-.52-.47z" transform="translate(-2208.05 -1505.01)"/><g clip-path="url(#clip-path-64)"><path class="cls-1" d="M277.77 347.22h34.72v34.72h-34.72z"/><path class="cls-1" d="M277.77 347.22h34.72v34.72h-34.72z"/></g><path class="cls-1" d="M2496.46 1857.74a.47.47 0 00-.47.47.47.47 0 10.94 0 .47.47 0 00-.47-.47z" transform="translate(-2208.05 -1505.01)"/><g clip-path="url(#clip-path-65)"><path class="cls-1" d="M277.77 347.22h34.72v34.72h-34.72z"/><path class="cls-1" d="M277.77 347.22h34.72v34.72h-34.72z"/></g><path class="cls-1" d="M2499.07 1857.74a.47.47 0 00-.47.47.47.47 0 00.47.47.48.48 0 00.47-.47.47.47 0 00-.47-.47z" transform="translate(-2208.05 -1505.01)"/><g clip-path="url(#clip-path-66)"><path class="cls-1" d="M277.77 347.22h34.72v34.72h-34.72z"/><path class="cls-1" d="M277.77 347.22h34.72v34.72h-34.72z"/></g><path class="cls-1" d="M2486.35 1857.87a.5.5 0 00-.67 0 .85.85 0 00-.1.15.65.65 0 000 .19.49.49 0 00.13.33.6.6 0 00.16.1.56.56 0 00.18 0 .48.48 0 00.33-.14.53.53 0 00.1-.15.61.61 0 000-.18.67.67 0 000-.19.53.53 0 00-.13-.11z" transform="translate(-2208.05 -1505.01)"/><g clip-path="url(#clip-path-67)"><path class="cls-1" d="M277.77 347.22h34.72v34.72h-34.72z"/><path class="cls-1" d="M277.77 347.22h34.72v34.72h-34.72zM243.05 347.22h34.72v34.72h-34.72z"/><path class="cls-1" d="M243.05 347.22h34.72v34.72h-34.72z"/></g><path class="cls-1" d="M293.54 344.3l1.2-1.2h-1.47l-1.21 1.2h1.48zM291.02 344.3l1.21-1.2h-1.48l-1.2 1.2h1.47zM288.5 344.3l1.21-1.2h-1.47l-1.21 1.2h1.47zM285.99 344.3l1.2-1.2h-1.47l-1.21 1.2h1.48zM284.68 343.1h-1.48l-1.2 1.2h1.47l1.21-1.2zM369.7 347.13l2.91 2.92h14.66l-3.69-3.7H371.3l-1.13-1.13h-8.09v-.89h7.2l-1.28-1.27h-8.64v-.89h7.75l-1.22-1.22h-11.61l-13.22 13.21h4.53l7.03-7.03h17.08z"/><path class="cls-1" d="M369.3 348.08H353l-6.08 6.08h4.86l4.64-4.64h10.72l2.37 2.37h16.86l.9-.9h-15.05l-2.92-2.91z"/><path class="cls-1" d="M2559.45 1846l-2.82 2.82h-11.26l-1.85-1.85v-4.06l-3.52-3.53-3.52 3.53v4.06l-1.85 1.85h-11.26l-2.82-2.82H2519l12.87 12.88 2.14-2.15h12l2.14 2.15L2561 1846h-1.54zm-34.38 4.52l-.76-.76h9.38l-.76.76h-7.86zm15.35 4.29a2.07 2.07 0 01-2.49-2 2.07 2.07 0 011.65-2 2.12 2.12 0 01.84 0 2.07 2.07 0 01.01 3.96zm6.65-4.29l-.76-.76h9.38l-.76.76h-7.86zM2578.67 1857.87a.66.66 0 00-.16-.1.49.49 0 00-.51.1.52.52 0 00-.1.15.65.65 0 000 .19.48.48 0 00.14.33.56.56 0 00.15.1.63.63 0 00.18 0 .5.5 0 00.34-.14.51.51 0 00.09-.15.42.42 0 000-.18.46.46 0 000-.19.51.51 0 00-.13-.11z" transform="translate(-2208.05 -1505.01)"/><g clip-path="url(#clip-path-68)"><path class="cls-1" d="M347.22 347.22h34.72v34.72h-34.72z"/><path class="cls-1" d="M347.22 347.22h34.72v34.72h-34.72z"/></g><path class="cls-1" d="M2586.17 1857.74a.47.47 0 00-.47.47.47.47 0 00.47.47.48.48 0 00.47-.47.47.47 0 00-.47-.47z" transform="translate(-2208.05 -1505.01)"/><g clip-path="url(#clip-path-69)"><path class="cls-1" d="M347.22 347.22h34.72v34.72h-34.72z"/><path class="cls-1" d="M347.22 347.22h34.72v34.72h-34.72z"/></g><path class="cls-1" d="M2583.56 1857.74a.47.47 0 00-.47.47.47.47 0 00.47.47.48.48 0 00.47-.47.47.47 0 00-.47-.47z" transform="translate(-2208.05 -1505.01)"/><g clip-path="url(#clip-path-70)"><path class="cls-1" d="M347.22 347.22h34.72v34.72h-34.72z"/><path class="cls-1" d="M347.22 347.22h34.72v34.72h-34.72z"/></g><path class="cls-1" d="M2588.78 1857.74a.47.47 0 00-.47.47.47.47 0 10.93 0 .46.46 0 00-.46-.47z" transform="translate(-2208.05 -1505.01)"/><g clip-path="url(#clip-path-71)"><path class="cls-1" d="M347.22 347.22h34.72v34.72h-34.72z"/><path class="cls-1" d="M347.22 347.22h34.72v34.72h-34.72z"/></g><path class="cls-1" d="M2591.38 1857.74a.47.47 0 00-.47.47.48.48 0 00.47.47.47.47 0 00.47-.47.47.47 0 00-.47-.47z" transform="translate(-2208.05 -1505.01)"/><g clip-path="url(#clip-path-72)"><path class="cls-1" d="M381.94 347.22h34.72v34.72h-34.72z"/><path class="cls-1" d="M381.94 347.22h34.72v34.72h-34.72z"/></g><path class="cls-1" d="M2580.95 1857.74a.47.47 0 00-.47.47.47.47 0 10.94 0 .47.47 0 00-.47-.47z" transform="translate(-2208.05 -1505.01)"/><g clip-path="url(#clip-path-73)"><path class="cls-1" d="M347.22 347.22h34.72v34.72h-34.72z"/><path class="cls-1" d="M347.22 347.22h34.72v34.72h-34.72z"/></g><path class="cls-1" d="M2594.33 1857.87a.49.49 0 00-.67 0 .54.54 0 00-.1.15.69.69 0 000 .19.62.62 0 000 .18.54.54 0 00.1.15.48.48 0 00.33.14.5.5 0 00.34-.14.47.47 0 00.13-.33.45.45 0 000-.19.49.49 0 00-.13-.15z" transform="translate(-2208.05 -1505.01)"/><g clip-path="url(#clip-path-74)"><path class="cls-1" d="M381.94 347.22h34.72v34.72h-34.72z"/><path class="cls-1" d="M381.94 347.22h34.72v34.72h-34.72z"/></g><path class="cls-1" d="M328.89 353.2l1.53 2.66 1.53 2.65 1.54-2.65 1.53-2.66h-6.13zM371.85 344.3l-1.21-1.2h-1.47l1.21 1.2h1.47zM374.36 344.3l-1.2-1.2h-1.47l1.2 1.2h1.47zM376.88 344.3l-1.21-1.2h-1.47l1.21 1.2h1.47zM379.39 344.3l-1.2-1.2h-1.47l1.2 1.2h1.47zM381.91 344.3l-1.21-1.2h-1.47l1.21 1.2h1.47zM284.53 90.82h27.78v2.92h-27.78zM288.4 82.78h20.03v2.92H288.4zM292.57 74.74h11.7v2.92h-11.7z"/><path class="cls-1" transform="rotate(180 1469.52 844.785)" d="M2559.66 1595.83h27.78v2.92h-27.78z"/><path class="cls-1" transform="rotate(180 1469.52 836.745)" d="M2563.53 1587.79h20.03v2.92h-20.03z"/><path class="cls-1" transform="rotate(180 1469.52 828.705)" d="M2567.7 1579.75h11.7v2.92h-11.7z"/><path class="cls-1" d="M2492.15 1554.1l-.82-.82.82-.82.82.82zm-1.64-1.64l-.82-.82.82-.82.82.82zm-1.64-1.64l-.82-.82.82-.82.82.82zm-1.64-1.64l-.82-.82.82-.82.82.82zm-1.64-1.64l-.82-.82.82-.82.82.82zm-1.64-1.64l-.82-.82.82-.82.82.82zm-1.64-1.64l-.82-.82.82-.82.82.82zm-1.64-1.64l-.82-.82.82-.82.82.82zm-1.64-1.64l-.82-.82.82-.82.82.82zm-1.64-1.64l-.82-.82.82-.82.82.82zm-1.64-1.64l-.82-.82.82-.82.82.82zm-1.64-1.64l-.82-.82.82-.82.82.82zm-1.64-1.64l-.61-.61.82-.82.61.61z" transform="translate(-2208.05 -1505.01)"/><path class="cls-1" d="M282.35 50.84l-28.83-28.83h50.74v1.15h-47.94l26.85 26.86-.82.82z"/><path class="cls-1" d="M280.6 48.26h4.33v4.33h-4.33zM259.96 19.63h2.31v1.16h-2.31z"/><g clip-path="url(#clip-path-75)"><path class="cls-1" d="M243.05 0h34.72v34.72h-34.72z"/><path class="cls-1" d="M243.05 0h34.72v34.72h-34.72z"/></g><path class="cls-1" d="M2523.61 1525.79h-4.44v-1.16h4.44v1.16zm-8.88 0h-4.44v-1.16h4.44v1.16zm-8.88 0h-4.44v-1.16h4.44v1.16zm-8.88 0h-4.44v-1.16h4.47v1.16zm-8.88 0h-4.44v-1.16h4.44v1.16zm-8.88 0h-4.44v-1.16h4.44v1.16z" transform="translate(-2208.05 -1505.01)"/><g clip-path="url(#clip-path-76)"><path class="cls-1" d="M312.5 0h34.72v34.72H312.5z"/><path class="cls-1" d="M312.5 0h34.72v34.72H312.5zM277.77 0h34.72v34.72h-34.72z"/><path class="cls-1" d="M277.77 0h34.72v34.72h-34.72z"/><path class="cls-1" d="M277.77 0h34.72v34.72h-34.72z"/><path class="cls-1" d="M277.77 0h34.72v34.72h-34.72z"/><path class="cls-1" d="M277.77 0h34.72v34.72h-34.72z"/><path class="cls-1" d="M277.77 0h34.72v34.72h-34.72z"/><path class="cls-1" d="M277.77 0h34.72v34.72h-34.72z"/><path class="cls-1" d="M277.77 0h34.72v34.72h-34.72z"/><path class="cls-1" d="M277.77 0h34.72v34.72h-34.72z"/><path class="cls-1" d="M277.77 0h34.72v34.72h-34.72zM243.05 0h34.72v34.72h-34.72z"/><path class="cls-1" d="M243.05 0h34.72v34.72h-34.72z"/><path class="cls-1" d="M243.05 0h34.72v34.72h-34.72z"/><path class="cls-1" d="M243.05 0h34.72v34.72h-34.72z"/></g><path class="cls-1" d="M320 19.63h2.31v1.16H320z"/><g clip-path="url(#clip-path-77)"><path class="cls-1" d="M312.5 0h34.72v34.72H312.5z"/><path class="cls-1" d="M312.5 0h34.72v34.72H312.5z"/></g><path class="cls-1" d="M270.93 22.59l-8 8-8.01-8h16.01zM293.27 27.36l-1.55 2.68h-1.86l1.55-2.68-1.55-2.68h1.86l1.55 2.68zM296.88 27.36l-1.55 2.68h-1.86l1.55-2.68-1.55-2.68h1.86l1.55 2.68zM300.49 27.36l-1.54 2.68h-1.87l1.55-2.68-1.55-2.68h1.87l1.54 2.68zM304.1 27.36l-1.54 2.68h-1.86l1.54-2.68-1.54-2.68h1.86l1.54 2.68z"/><path class="cls-1" transform="rotate(-45 -438.213 3463.834)" d="M2482.14 1541.9h.58v18.15h-.58z"/><path class="cls-1" transform="rotate(44.99 3189.256 -1873.79)" d="M2475.73 1544.27h.58v.58h-.58z"/><path class="cls-1" transform="rotate(45 3187.6 -1874.393)" d="M2474.63 1543.17h.58v.58h-.58z"/><path class="cls-1" transform="rotate(45 3186.494 -1875.491)" d="M2473.53 1542.07h.58v.58h-.58z"/><path class="cls-1" transform="rotate(45 3185.4 -1876.594)" d="M2472.43 1540.97h.58v.58h-.58z"/><path class="cls-1" transform="rotate(45 3184.295 -1877.692)" d="M2471.33 1539.88h.58v.58h-.58z"/><path class="cls-1" transform="rotate(44.99 3183.765 -1879.295)" d="M2470.23 1538.78h.58v.58h-.58z"/><path class="cls-1" transform="rotate(45 3182.097 -1879.892)" d="M2469.14 1537.68h.58v.58h-.58z"/><path class="cls-1" transform="rotate(45 3181.004 -1880.995)" d="M2468.04 1536.58h.58v.58h-.58z"/><path class="cls-1" transform="rotate(45.01 3179.348 -1881.597)" d="M2466.94 1535.48h.58v.58h-.58z"/><path class="cls-1" transform="rotate(45 3178.81 -1883.184)" d="M2465.84 1534.38h.58v.58h-.58z"/><path class="cls-1" transform="rotate(44.99 3178.267 -1884.784)" d="M2464.74 1533.28h.58v.58h-.58z"/><path class="cls-1" transform="rotate(45 3176.612 -1885.384)" d="M2463.64 1532.19h.58v.58h-.58z"/><path class="cls-1" transform="rotate(45 3175.506 -1886.482)" d="M2462.54 1531.09h.58v.58h-.58z"/><path class="cls-1" transform="rotate(45.01 3174.123 -1886.7)" d="M2461.45 1529.99h.58v.58h-.58z"/><path class="cls-1" transform="rotate(45 3173.308 -1888.683)" d="M2460.35 1528.89h.58v.58h-.58z"/><path class="cls-1" d="M2587 1553.28l.82-.82.82.82-.82.82zm1.64-1.64l.82-.82.82.82-.82.82zm1.64-1.64l.82-.82.9.82-.82.82zm1.64-1.64l.82-.82.82.82-.82.82zm1.64-1.64l.82-.82.82.82-.82.82zm1.64-1.64l.82-.82.82.82-.82.82zm1.64-1.64l.82-.82.82.82-.82.82zm1.64-1.64l.82-.82.82.82-.82.82zm1.64-1.64l.82-.82.82.82-.82.82zm1.64-1.64l.82-.82.82.82-.82.82zm1.64-1.64l.82-.82.82.82-.82.82zm1.64-1.64l.82-.82.82.82-.82.82zm1.64-1.64l.61-.61.82.82-.61.61z" transform="translate(-2208.05 -1505.01)"/><path class="cls-1" d="M381.56 50.84l-.82-.82 26.85-26.86h-47.94v-1.15h50.73l-28.82 28.83z"/><path class="cls-1" transform="rotate(180 1485.175 802.93)" d="M2587.04 1553.27h4.33v4.33h-4.33z"/><path class="cls-1" d="M401.63 19.63h2.31v1.16h-2.31z"/><g clip-path="url(#clip-path-78)"><path class="cls-1" d="M381.94 0h34.72v34.72h-34.72z"/><path class="cls-1" d="M381.94 0h34.72v34.72h-34.72z"/></g><path class="cls-1" d="M2605.24 1525.79h-4.44v-1.16h4.44v1.16zm-8.88 0h-4.44v-1.16h4.44v1.16zm-8.88 0H2583v-1.16h4.44v1.16zm-8.88 0h-4.44v-1.16h4.44v1.16zm-8.88 0h-4.44v-1.16h4.44v1.16zm-8.88 0h-4.44v-1.16h4.44v1.16z" transform="translate(-2208.05 -1505.01)"/><g clip-path="url(#clip-path-79)"><path class="cls-1" d="M381.94 0h34.72v34.72h-34.72z"/><path class="cls-1" d="M381.94 0h34.72v34.72h-34.72z"/><path class="cls-1" d="M381.94 0h34.72v34.72h-34.72z"/><path class="cls-1" d="M381.94 0h34.72v34.72h-34.72z"/><path class="cls-1" d="M347.22 0h34.72v34.72h-34.72z"/><path class="cls-1" d="M347.22 0h34.72v34.72h-34.72z"/><path class="cls-1" d="M347.22 0h34.72v34.72h-34.72z"/><path class="cls-1" d="M347.22 0h34.72v34.72h-34.72z"/><path class="cls-1" d="M347.22 0h34.72v34.72h-34.72z"/><path class="cls-1" d="M347.22 0h34.72v34.72h-34.72z"/><path class="cls-1" d="M347.22 0h34.72v34.72h-34.72z"/><path class="cls-1" d="M347.22 0h34.72v34.72h-34.72z"/></g><path class="cls-1" d="M341.59 19.63h2.31v1.16h-2.31z"/><g clip-path="url(#clip-path-80)"><path class="cls-1" d="M312.5 0h34.72v34.72H312.5z"/><path class="cls-1" d="M312.5 0h34.72v34.72H312.5z"/></g><path class="cls-1" d="M392.98 22.59l8 8 8.01-8h-16.01zM370.64 27.36l1.55 2.68h1.86l-1.55-2.68 1.55-2.68h-1.86l-1.55 2.68zM367.03 27.36l1.54 2.68h1.87l-1.55-2.68 1.55-2.68h-1.87l-1.54 2.68zM363.42 27.36l1.54 2.68h1.86l-1.54-2.68 1.54-2.68h-1.86l-1.54 2.68zM359.81 27.36l1.54 2.68h1.86l-1.54-2.68 1.54-2.68h-1.86l-1.54 2.68z"/><path class="cls-1" transform="rotate(-45 -323.242 3463.811)" d="M2588.51 1550.69h18.15v.58h-18.15z"/><path class="cls-1" transform="rotate(135.01 1811.605 334.779)" d="M2603.71 1544.27h.58v.58h-.58z"/><path class="cls-1" transform="rotate(135 1812.77 333.653)" d="M2604.81 1543.17h.58v.58h-.58z"/><path class="cls-1" transform="rotate(135 1813.869 332.556)" d="M2605.91 1542.07h.58v.58h-.58z"/><path class="cls-1" transform="rotate(135 1814.962 331.457)" d="M2607 1540.97h.58v.58h-.58z"/><path class="cls-1" transform="rotate(134.99 1816.128 330.331)" d="M2608.1 1539.88h.58v.58h-.58z"/><path class="cls-1" transform="rotate(135.01 1817.096 329.286)" d="M2609.2 1538.78h.58v.58h-.58z"/><path class="cls-1" transform="rotate(135 1818.261 328.16)" d="M2610.3 1537.68h.58v.58h-.58z"/><path class="cls-1" transform="rotate(135 1819.36 327.063)" d="M2611.4 1536.58h.58v.58h-.58z"/><path class="cls-1" transform="rotate(134.99 1820.52 325.936)" d="M2612.5 1535.48h.58v.58h-.58z"/><path class="cls-1" transform="rotate(135 1821.56 324.864)" d="M2613.6 1534.38h.58v.58h-.58z"/><path class="cls-1" transform="rotate(135.01 1822.591 323.794)" d="M2614.7 1533.28h.58v.58h-.58z"/><path class="cls-1" transform="rotate(135 1823.752 322.667)" d="M2615.79 1532.19h.58v.58h-.58z"/><path class="cls-1" transform="rotate(135 1824.851 321.57)" d="M2616.89 1531.09h.58v.58h-.58z"/><path class="cls-1" transform="rotate(134.99 1826.042 320.245)" d="M2617.99 1529.99h.58v.58h-.58z"/><path class="cls-1" transform="rotate(135 1827.05 319.37)" d="M2619.09 1528.89h.58v.58h-.58z"/><path class="cls-1" d="M331.95 39.27l-1.41-2.46-1.42-2.45h5.67l-1.42 2.45-1.42 2.46zM331.95 51.2l-2.16-3.75-2.16-3.74h8.65l-2.16 3.74-2.17 3.75zM331.95 65.6l-2.87-4.98-2.88-4.98h11.5l-2.87 4.98-2.88 4.98z"/><g class="cls-53"><path class="cls-1" d="M446.09 187.08l-8.33 14.41h-16.64l8.32-14.41-8.32-14.41h16.64l8.33 14.41z"/></g><g class="cls-53"><path class="cls-1" d="M234.47 187.08l8.32 14.41h-16.64l-8.33-14.41 8.33-14.41h16.64l-8.32 14.41z"/></g></g></g></svg>