<svg preserveAspectRatio="none" id="Layer_1" data-name="Layer 1" xmlns="http://www.w3.org/2000/svg" viewBox="0 0 111.12 111.12"><defs><style>.cls-1{fill:#02a6ff}</style></defs><path id="_复合路径_" data-name="&lt;复合路径&gt;" class="cls-1" d="M3055.71 1939.2a38.85 38.85 0 1138.85-38.85 38.89 38.89 0 01-38.85 38.85zm0-71.85a33 33 0 1033 33 33 33 0 00-33-33z" transform="translate(-3000.15 -1844.79)"/><path id="_复合路径_2" data-name="&lt;复合路径&gt;" class="cls-1" d="M3055.71 1937.25a36.9 36.9 0 1136.9-36.9 36.94 36.94 0 01-36.9 36.9zm0-71.85a35 35 0 1035 35 35 35 0 00-35-35z" transform="translate(-3000.15 -1844.79)"/><path id="_复合路径_3" data-name="&lt;复合路径&gt;" class="cls-1" d="M3055.71 1950.14a49.88 49.88 0 01-31.49-11.22l1.66-2a47.25 47.25 0 0029.83 10.63c1 0 2 0 3-.09l.16 2.62c-1.05.02-2.11.06-3.16.06zm3.15-.1l-.16-2.62a47 47 0 0035.33-19.57l2.13 1.53a49.6 49.6 0 01-37.3 20.62zm44.94-36.76l-2.54-.68a47.28 47.28 0 001.61-12.24v-.1h2.63v.1a49.94 49.94 0 01-1.7 12.92zm-97.87-12.87v-.05a49.93 49.93 0 011.68-12.87l2.54.68a47.31 47.31 0 00-1.59 12.19zm11.44-27.5l-2.13-1.53a49.6 49.6 0 0137.28-20.7c1.06-.07 2.14-.1 3.21-.1a49.88 49.88 0 0131.45 11.19l-1.66 2a47.25 47.25 0 00-29.79-10.6c-1 0-2 0-3 .1l-.07-1.17.07 1.17a47 47 0 00-35.37 19.63z" transform="translate(-3000.15 -1844.79)"/><path id="_复合路径_4" data-name="&lt;复合路径&gt;" class="cls-1" d="M3055.71 1953a52.57 52.57 0 01-17.39-2.94l2.78-8a44.29 44.29 0 0058.86-41.79v-.08h8.43v.1a52.75 52.75 0 01-52.68 52.71zm-43-63l-8.2-2a53 53 0 0134.93-37.84 52.82 52.82 0 0143.78 5.13l-4.4 7.2a44.38 44.38 0 00-36.77-4.3 44.49 44.49 0 00-29.39 31.81z" transform="translate(-3000.15 -1844.79)"/><path id="_复合路径_5" data-name="&lt;复合路径&gt;" class="cls-1" d="M3055.71 1955.91a55.56 55.56 0 1155.56-55.56 55.62 55.62 0 01-55.56 55.56zm0-110.47a54.91 54.91 0 1054.91 54.91 55 55 0 00-54.91-54.91z" transform="translate(-3000.15 -1844.79)"/></svg>