<svg preserveAspectRatio="none" id="央铋_1" data-name="央铋 1" xmlns="http://www.w3.org/2000/svg" viewBox="0 0 52.75 52.75"><defs><style>.cls-1{fill:#006379;}</style></defs><title>shape55</title><path class="cls-1" d="M538.22,145A26.38,26.38,0,1,1,564.6,118.6,26.41,26.41,0,0,1,538.22,145Zm0-51.75A25.38,25.38,0,1,0,563.6,118.6,25.4,25.4,0,0,0,538.22,93.23Z" transform="translate(-511.84 -92.23)"/><path class="cls-1" d="M529,98.88l-0.85-1.81a23.78,23.78,0,0,1,11-2.22l-0.07,2A21.86,21.86,0,0,0,529,98.88Z" transform="translate(-511.84 -92.23)"/><path class="cls-1" d="M522.22,103.84l-1.47-1.36a23.84,23.84,0,0,1,2.38-2.24l1.27,1.54A21.92,21.92,0,0,0,522.22,103.84Z" transform="translate(-511.84 -92.23)"/><path class="cls-1" d="M515,123.53a23.93,23.93,0,0,1-.51-4.93,23.64,23.64,0,0,1,4.18-13.46l1.65,1.13a21.65,21.65,0,0,0-3.82,12.33,21.92,21.92,0,0,0,.47,4.52Z" transform="translate(-511.84 -92.23)"/><path class="cls-1" d="M523,136.9a23.86,23.86,0,0,1-6.94-9.57l1.86-.73a21.86,21.86,0,0,0,6.36,8.77Z" transform="translate(-511.84 -92.23)"/><path class="cls-1" d="M538.22,142.37a24.12,24.12,0,0,1-3-.19l0.25-2a22.24,22.24,0,0,0,6.39-.12l0.33,2A24,24,0,0,1,538.22,142.37Z" transform="translate(-511.84 -92.23)"/><path class="cls-1" d="M547.55,140.47l-0.79-1.84a21.81,21.81,0,0,0,9.4-7.7l1.65,1.13A23.79,23.79,0,0,1,547.55,140.47Z" transform="translate(-511.84 -92.23)"/><path class="cls-1" d="M560.13,127.85l-1.84-.78A21.64,21.64,0,0,0,560,118.6a21.87,21.87,0,0,0-.75-5.69l1.93-.52A23.89,23.89,0,0,1,560.13,127.85Z" transform="translate(-511.84 -92.23)"/><path class="cls-1" d="M553.12,102.73a21.92,21.92,0,0,0-3.78-2.85l1-1.72a23.9,23.9,0,0,1,4.12,3.11Z" transform="translate(-511.84 -92.23)"/><path class="cls-1" d="M544.61,97.79a21.75,21.75,0,0,0-5.57-.94l0.07-2a23.76,23.76,0,0,1,6.08,1Z" transform="translate(-511.84 -92.23)"/><path class="cls-1" d="M526,134.44a20,20,0,0,1,12.25-35.86l1,0-0.24,5-0.74,0a15,15,0,0,0-9.19,26.9Z" transform="translate(-511.84 -92.23)"/><path class="cls-1" d="M538.22,138.62v-5a14.9,14.9,0,0,0,8.88-2.91l3,4A19.86,19.86,0,0,1,538.22,138.62Z" transform="translate(-511.84 -92.23)"/><path class="cls-1" d="M554.54,130.2l-4.07-2.9a14.9,14.9,0,0,0,2.22-4.65L557.5,124A19.91,19.91,0,0,1,554.54,130.2Z" transform="translate(-511.84 -92.23)"/><path class="cls-1" d="M558.24,118.6h-5a15.09,15.09,0,0,0-7.45-13l2.53-4.32A20.11,20.11,0,0,1,558.24,118.6Z" transform="translate(-511.84 -92.23)"/><path class="cls-1" d="M525.87,123.46a13.29,13.29,0,0,1,2-13.13l0.59,0.47a12.54,12.54,0,0,0-1.86,12.38Z" transform="translate(-511.84 -92.23)"/><path class="cls-1" d="M538.22,131.87a13.3,13.3,0,0,1-10.84-5.62l0.61-.43a12.54,12.54,0,0,0,14.63,4.5l0.26,0.7A13.23,13.23,0,0,1,538.22,131.87Z" transform="translate(-511.84 -92.23)"/><path class="cls-1" d="M547.31,128.27l-0.51-.55a12.54,12.54,0,0,0,3-13.88l0.69-.29A13.28,13.28,0,0,1,547.31,128.27Z" transform="translate(-511.84 -92.23)"/><path class="cls-1" d="M546.44,109.16a12.53,12.53,0,0,0-14.75-1.24l-0.39-.64a13.28,13.28,0,0,1,15.64,1.31Z" transform="translate(-511.84 -92.23)"/><path class="cls-1" d="M538.22,128a9.35,9.35,0,1,1,9.35-9.35A9.36,9.36,0,0,1,538.22,128Zm0-16.71a7.35,7.35,0,1,0,7.35,7.35A7.36,7.36,0,0,0,538.22,111.25Z" transform="translate(-511.84 -92.23)"/></svg>