<svg preserveAspectRatio="none" id="Layer_1" data-name="Layer 1" xmlns="http://www.w3.org/2000/svg" viewBox="0 0 15.25 15.65"><defs><style>.cls-1{fill:#3cd7e4;}</style></defs><title>shape4</title><path class="cls-1" d="M14.82,221.11l-4.27,0-2.12-3.71,2.15-3.69,4.27,0L17,217.42Zm-4.11-.29,4,0,2-3.42-2-3.44-4,0-2,3.42Z" transform="translate(-8.44 -205.46)"/><path class="cls-1" d="M14.93,212.88H10.65l-2.12-3.71,2.16-3.69,4.26,0,2.12,3.71Zm-4.11-.29,4,0,2-3.42-2-3.44-4,0-2,3.42Z" transform="translate(-8.44 -205.46)"/><path class="cls-1" d="M21.54,217.28l-4.27,0-2.12-3.71,2.15-3.69,4.27,0,2.12,3.71ZM17.43,217l4,0,2-3.42-2-3.44-4,0-2,3.42Z" transform="translate(-8.44 -205.46)"/></svg>