<svg preserveAspectRatio="none" xmlns="http://www.w3.org/2000/svg" viewBox="0 0 17.38 17.38"><defs><style>.cls-1{isolation:isolate;}.cls-2{fill:#00aeef;}.cls-3{mix-blend-mode:color-dodge;}</style></defs><title>shape12</title><g class="cls-1"><g id="Layer_1" data-name="Layer 1"><path class="cls-2" d="M578.81,35.64h0a8.69,8.69,0,0,1-5.69-2.12l1-1.14a7.18,7.18,0,0,0,4.7,1.75h0.34l0.07,1.51h-0.39Zm6.26-2.69-1.09-1a7.15,7.15,0,0,0,2-5,7.27,7.27,0,0,0-.13-1.36l1.48-.28a8.8,8.8,0,0,1,.16,1.64A8.65,8.65,0,0,1,585.07,32.95Zm-14.94-5.17q0-.41,0-0.83a8.61,8.61,0,0,1,1.86-5.37l1.19,0.93A7.1,7.1,0,0,0,571.6,27q0,0.35,0,.68Zm12.81-6.67a7.2,7.2,0,0,0-5.19-1.26l-0.21-1.5a8.72,8.72,0,0,1,6.28,1.52Z" transform="translate(-570.09 -18.27)"/><circle class="cls-2" cx="8.69" cy="8.69" r="1.53"/><g class="cls-3"><path class="cls-2" d="M578.81,35.64h0a8.69,8.69,0,0,1-5.69-2.12l1-1.14a7.18,7.18,0,0,0,4.7,1.75h0.34l0.07,1.51h-0.39Zm6.26-2.69-1.09-1a7.15,7.15,0,0,0,2-5,7.27,7.27,0,0,0-.13-1.36l1.48-.28a8.8,8.8,0,0,1,.16,1.64A8.65,8.65,0,0,1,585.07,32.95Zm-14.94-5.17q0-.41,0-0.83a8.61,8.61,0,0,1,1.86-5.37l1.19,0.93A7.1,7.1,0,0,0,571.6,27q0,0.35,0,.68Zm12.81-6.67a7.2,7.2,0,0,0-5.19-1.26l-0.21-1.5a8.72,8.72,0,0,1,6.28,1.52Z" transform="translate(-570.09 -18.27)"/><circle class="cls-2" cx="8.69" cy="8.69" r="1.53"/></g></g></g></svg>