<svg preserveAspectRatio="none" id="Layer_1" data-name="Layer 1" xmlns="http://www.w3.org/2000/svg" viewBox="0 0 34 34"><defs><style>.cls-2{fill:#5cdeff}</style></defs><path d="M254.72 198.25a14.43 14.43 0 1114.43-14.43 14.44 14.44 0 01-14.43 14.43zm0-28.35a13.93 13.93 0 1013.93 13.93 13.94 13.94 0 00-13.93-13.94z" transform="translate(-237.72 -166.82)" fill="#154666"/><path class="cls-2" d="M243.65 186.29a11.34 11.34 0 0119.54-10l-1.49 1.33a9.34 9.34 0 00-16.1 8.24zM254.72 195.16a11.24 11.24 0 01-6.79-2.26l1.2-1.6a9.35 9.35 0 009 1.22l.73 1.86a11.29 11.29 0 01-4.14.78zM263.2 191.35l-1.5-1.33a9.32 9.32 0 002.35-6.2h2a11.32 11.32 0 01-2.85 7.53zM267.19 173.39a16.22 16.22 0 00-12.47-5.83v-.75a17 17 0 0113 6.09zM238.47 183.82h-.75a16.83 16.83 0 011.79-7.6l.67.34a16.1 16.1 0 00-1.71 7.26zM254.72 200.82a17 17 0 01-15.65-10.35l.69-.29a16.24 16.24 0 0015 9.89v.75zM265.29 197.13l-.47-.59a16.18 16.18 0 006.18-12.72h.75a16.92 16.92 0 01-6.46 13.31z" transform="translate(-237.72 -166.82)"/></svg>