<svg preserveAspectRatio="none" id="央铋_1" data-name="央铋 1" xmlns="http://www.w3.org/2000/svg" viewBox="0 0 52.75 52.75"><defs><style>.cls-1{fill:#006379;}</style></defs><title>shape56</title><path class="cls-1" d="M300.71,145a26.38,26.38,0,1,1,26.37-26.38A26.4,26.4,0,0,1,300.71,145Zm0-51.75a25.38,25.38,0,1,0,25.37,25.38A25.4,25.4,0,0,0,300.71,93.23Z" transform="translate(-274.34 -92.23)"/><path class="cls-1" d="M300.71,142.47a23.87,23.87,0,1,1,23.87-23.87A23.89,23.89,0,0,1,300.71,142.47Zm0-43.73a19.87,19.87,0,1,0,19.87,19.87A19.89,19.89,0,0,0,300.71,98.74Z" transform="translate(-274.34 -92.23)"/><path class="cls-1" d="M300.73,137.29v-3l0.91,0,0.17,3Q301.27,137.29,300.73,137.29Zm-1.09,0q-0.54,0-1.08-.09l0.34-3,0.91,0.08Zm3.25-.1-0.34-3,0.9-.13,0.52,3Q303.43,137.1,302.89,137.16Zm-5.41-.15q-0.54-.09-1.06-0.22l0.68-2.92,0.9,0.18Zm7.55-.22-0.69-2.92,0.88-.24,0.86,2.87Q305.56,136.66,305,136.79Zm-9.66-.28q-0.52-.16-1-0.34l1-2.82,0.87,0.29Zm11.75-.35-1-2.82,0.84-.33,1.19,2.75Q307.63,136,307.11,136.17Zm-13.79-.4q-0.5-.22-1-0.46l1.35-2.68q0.41,0.2.83,0.39Zm15.78-.47-1.35-2.68q0.41-.21.8-0.43l1.5,2.6Q309.59,135.06,309.11,135.3Zm-17.73-.51q-0.47-.27-0.92-0.57l1.65-2.51q0.38,0.25.78,0.48Zm19.61-.58-1.65-2.5q0.38-.25.75-0.52l1.79,2.41Q311.44,133.92,311,134.22Zm-21.43-.62q-0.44-.33-0.85-0.68l1.93-2.3q0.35,0.29.71,0.57Zm23.17-.68-1.93-2.3q0.35-.29.68-0.61l2.06,2.18Q313.14,132.57,312.73,132.92Zm-24.83-.72q-0.4-.37-0.77-0.77l2.18-2.06q0.31,0.33.64,0.64Zm26.41-.77-2.18-2.06q0.31-.33.61-0.68l2.29,1.93Q314.68,131,314.3,131.43Zm-27.9-.81q-0.35-.42-0.68-0.85l2.41-1.79q0.27,0.36.56,0.71Zm29.3-.86-2.4-1.8q0.27-.36.52-0.75l2.51,1.65Q316,129.33,315.7,129.77Zm-30.6-.88q-0.3-.45-0.57-0.92l2.6-1.5q0.23,0.39.48,0.77ZM316.9,128l-2.6-1.5q0.23-.39.43-0.8l2.68,1.35Q317.17,127.48,316.9,128ZM284,127q-0.24-.48-0.46-1l2.75-1.19q0.18,0.42.39,0.82Zm33.86-1-2.75-1.19q0.18-.42.34-0.85l2.82,1Q318.09,125.51,317.88,126Zm-34.72-1q-0.19-.51-0.34-1l2.87-.86q0.13,0.44.29,0.87ZM318.62,124l-2.87-.86q0.13-.44.24-0.88l2.92,0.69Q318.78,123.44,318.62,124Zm-36.09-1q-0.13-.53-0.22-1.07l3-.52q0.08,0.45.18,0.89Zm36.59-1.08-3-.52q0.08-.45.13-0.9l3,0.34Q319.21,121.31,319.12,121.85Zm-37-1.06q-0.06-.54-0.09-1.08l3-.17q0,0.46.08,0.91Zm37.22-1.11-3-.17q0-.45,0-0.91l3,0v0C319.4,119,319.39,119.33,319.37,119.69ZM282,118.62v0q0-.54,0-1.06l3,0.17q0,0.44,0,.9Zm34.35-1q0-.46-0.08-0.91l3-.35q0.06,0.54.1,1.08Zm-31.24-.86-3-.34q0.06-.54.15-1.07l3,0.51Q285.18,116.34,285.13,116.8Zm31-1q-0.08-.45-0.19-0.89l2.92-.7q0.13,0.53.22,1.06ZM285.44,115l-2.92-.69q0.12-.53.28-1l2.88,0.85Q285.55,114.56,285.44,115Zm30.29-.93q-0.13-.44-0.29-0.87l2.82-1q0.19,0.51.34,1ZM286,113.26l-2.82-1q0.19-.51.4-1l2.76,1.18Q286.12,112.82,286,113.26Zm29.15-.89q-0.18-.42-0.39-0.83l2.68-1.35q0.24,0.48.46,1Zm-28.43-.78L284,110.23q0.25-.49.52-1l2.6,1.5Q286.89,111.17,286.68,111.58Zm27.61-.84q-0.23-.39-0.48-0.78l2.5-1.66q0.3,0.45.57,0.92ZM287.6,110l-2.51-1.65q0.3-.45.62-0.89l2.41,1.79Q287.85,109.61,287.6,110Zm25.69-.78q-0.27-.37-0.57-0.71l2.29-1.94c0.23,0.28.46,0.56,0.68,0.85Zm-24.6-.68-2.3-1.93q0.35-.42.72-0.81l2.19,2.05Q289,108.18,288.69,108.53Zm23.42-.71q-0.32-.33-0.65-0.65l2.05-2.19q0.4,0.37.77,0.77Zm-22.17-.62L287.88,105q0.4-.37.81-0.72l1.93,2.3Q290.27,106.89,289.94,107.2Zm20.84-.63q-0.35-.3-0.72-0.57l1.79-2.41c0.29,0.22.57,0.44,0.85,0.67ZM291.33,106l-1.8-2.4q0.43-.32.89-0.62l1.66,2.5Q291.7,105.76,291.33,106Zm18-.55q-0.38-.25-0.78-0.48l1.5-2.6q0.47,0.27.92,0.57ZM292.86,105l-1.51-2.59q0.47-.27,1-0.52l1.35,2.68Q293.25,104.8,292.86,105Zm14.88-.45-0.83-.39,1.19-2.76q0.5,0.22,1,.46Zm-13.25-.37-1.19-2.75q0.5-.22,1-0.4l1,2.82Zm11.58-.35-0.87-.29,0.86-2.88q0.52,0.16,1,.34Zm-9.87-.27-0.87-2.87q0.52-.16,1.05-0.28l0.69,2.92Zm8.12-.25-0.89-.18,0.51-3c0.36,0.06.71,0.13,1.07,0.22Zm-6.35-.17-0.52-3q0.53-.09,1.07-0.16l0.35,3Zm4.55-.14-0.91-.08,0.17-3q0.54,0,1.08.09Zm-2.74-.07-0.18-3q0.54,0,1.09,0v3Z" transform="translate(-274.34 -92.23)"/></svg>