<svg preserveAspectRatio="none" id="Layer_1" data-name="Layer 1" xmlns="http://www.w3.org/2000/svg" viewBox="0 0 12.97 12.97"><defs><style>.cls-1{fill:#00b4e9}</style></defs><path class="cls-1" d="M224.3 91.76l1.52-1.52-1.52-1.52-1.52 1.52zm.92-1.52l-.92.92-.91-.92.91-.92zM226.88 87.83v-2.15h-2.14v2.14h2.14zm-1.72-.42v-1.3h1.29v1.29h-1.3zM229.35 86.87l1.52-1.52-1.52-1.52-1.52 1.52zm0-2.43l.92.92-.92.92-.92-.92zM231.77 87.94h2.14V85.8h-2.14v2.14zm1.72-1.72v1.29h-1.29v-1.3h1.29zM234.23 91.92l1.52-1.52-1.52-1.52-1.52 1.52zm0-2.43l.92.92-.92.92-.92-.92zM233.79 95v-2.18h-2.14V95h2.14zm-1.72-1.72h1.29v1.29h-1.29v-1.32zM229.19 96.81l1.52-1.52-1.52-1.52-1.52 1.52zm.92-1.52l-.92.92-.92-.92.92-.92zM226.77 94.85v-2.14h-2.14v2.14h2.14zm-1.77-.42v-1.3h1.29v1.3H225z" transform="translate(-222.78 -83.84)"/><circle class="cls-1" cx="6.53" cy="6.4" r="1.22"/></svg>