<svg preserveAspectRatio="none" xmlns="http://www.w3.org/2000/svg" xmlns:xlink="http://www.w3.org/1999/xlink" viewBox="0 0 290.57 28.28"><defs><linearGradient id="linear-gradient" x1="406.77" y1="88.29" x2="446.3" y2="64.38" gradientTransform="matrix(1 0 0 -1 0 136.73)" gradientUnits="userSpaceOnUse"><stop offset=".37" stop-color="#dc0000"/><stop offset=".4" stop-color="#e21200"/><stop offset=".46" stop-color="#eb3000"/><stop offset=".53" stop-color="#f24900"/><stop offset=".6" stop-color="#f85c00"/><stop offset=".69" stop-color="#fc6a00"/><stop offset=".8" stop-color="#fe7200"/><stop offset="1" stop-color="#ff7400"/></linearGradient><linearGradient id="linear-gradient-2" x1="668.59" y1="88.29" x2="708.13" y2="64.38" gradientTransform="rotate(180 430.91 68.365)" xlink:href="#linear-gradient"/><style>.cls-2{fill:#0071bc}.cls-3{fill:#0ff}.cls-4{fill:#2e3192}</style></defs><g style="isolation:isolate"><g id="Layer_5" data-name="Layer 5"><path class="cls-2" d="M197 49.71l-1.45-1.28-5.35.31L189 50l-1.53.09 2.25-2.51 3.64-.21 1.62-1.8 7.93-.43.43-.47 5.25-.28-4.48 4.89zM255 45.82l1.43 1.35-2.62.06-2.84-2.67q-10 .26-20.08.63L229 43.55l2.56-.09.82.75q9.47-.34 18.94-.59l2.38 2.23z" transform="translate(-154.72 -43.45)"/><path class="cls-3" d="M255.19 48.6l-.83-.78 3.57-.08-2.8-2.65h-1.4L252 43.54l2.35-.06 3.65 3.43h2.12l.62.58h1.34l1.06 1z" transform="translate(-154.72 -43.45)"/><path class="cls-4" d="M263.72 48.42l-1.05-1h.74l1.05 1h-.74zM264.92 48.39l-1.05-1h.73l1.06 1h-.74zM266.11 48.37l-1.05-1h.74l1.05 1h-.74zM267.31 48.35l-1.05-1h.74l1.06 1h-.74zM268.5 48.33l-1.05-1h.74l1.05 1h-.74z" transform="translate(-154.72 -43.45)"/><path class="cls-2" d="M410.46 48.77l-5.35-.31-1.45 1.28-7.14-.38-4.52-4.89 5.25.28.43.47 7.93.43 1.62 1.8 3.64.21 2.25 2.51-1.53-.09zM349.71 44.56l-2.84 2.65-2.62-.06 1.43-1.33h1.21l2.38-2.22q9.47.25 18.94.59l.82-.74 2.56.1-1.8 1.63q-10.03-.35-20.08-.62z" transform="translate(-154.72 -43.45)"/><path class="cls-3" d="M345.52 45.11l-2.8 2.64 3.57.08-.83.78-8-.18 1.06-1h1.34l.62-.58h2.12l3.65-3.44 2.35.06-1.69 1.59z" transform="translate(-154.72 -43.45)"/><path class="cls-4" d="M336.18 48.41l1.05-1h.77l-1.05 1h-.74zM335 48.39l1.06-1h.73l-1.05 1H335zM333.79 48.37l1.05-1h.74l-1.05 1h-.74zM332.59 48.35l1.06-1h.73l-1.05 1h-.74zM331.4 48.33l1.05-1h.74l-1.05 1h-.74z" transform="translate(-154.72 -43.45)"/><path d="M425.05 66.4L422 62.88l-1.75-.11q-2.95-3.34-5.91-6.66l.13-2.17-2-2.28-1.32-.08-1.49-1.58-2.78-.16-1.76 1.54-9.08-.49q-3-3.27-6-6.53-8.51-.41-17-.74l-2.8 2.56q-10.1-.38-20.21-.65l-4 3.78q-45.68-1.12-91.38 0l-4-3.79q-10.1.27-20.21.64l-2.8-2.56q-8.51.33-17 .74-3 3.26-6 6.53l-9.08.49-1.76-1.54-2.8.18-1.4 1.57-1.32.08-2 2.28.13 2.17q-3 3.33-5.91 6.66l-1.75.11-3.1 3.52 6.44-.42 3.05-3.45 5.72-.35q3.73-4.17 7.48-8.32 7.59-.41 15.19-.77l1.41 1.28q6.33-.29 12.66-.54l.92-1 1.61-1.82q22.56-.84 45.13-1.14l2.12 2q22.94-.28 45.88 0l2.12-2q22.57.34 45.13 1.14l2.59 2.77q6.33.25 12.66.54l1.41-1.28q7.6.36 15.19.77 3.76 4.16 7.48 8.33l5.72.35 3.05 3.52zM324.69 49.88l-1.63 1.57q-22.74-.28-45.48 0L276 49.87q24.32-.31 48.69.01z" transform="translate(-154.72 -43.45)" fill="#29abe2"/><path d="M331.92 47.31h-1.24l-.48.46q-7.17-.12-14.34-.18l-2.26-2.27h-13.29q-6.65 0-13.31-.02l-2.26 2.27q-7.17.06-14.34.17l-.4-.46h-1.24l1 1q15.27-.25 30.55-.24t30.55.25zm-16.74.25q-7.43-.06-14.86-.06t-14.86.06l1.77-1.78h26.16z" transform="translate(-154.72 -43.45)" fill="#ff4a00"/><path d="M408 45.23l3.83.26q11 12.51 21.77 25.19l.1.11h.16q5.45.45 10.91.92a.48.48 0 10.08-1q-5.46-.37-10.93-.71l.25.13q-11-12.45-22.35-24.77z" transform="translate(-154.72 -43.45)" fill="url(#linear-gradient)"/><path d="M192 45.23l-3.83.26q-11 12.51-21.77 25.19l-.1.11h-.16q-5.45.45-10.91.92a.48.48 0 11-.08-1q5.46-.37 10.93-.71l-.26.13q11-12.45 22.35-24.77z" transform="translate(-154.72 -43.45)" fill="url(#linear-gradient-2)"/><path d="M380.63 43.94l-7.63-.31-2.8 2.56q-10.1-.38-20.21-.65l-4 3.78q-45.68-1.12-91.38 0l-4-3.79q-10.1.27-20.21.64l-2.8-2.56-8.87.36q4.88 4.41 9.72 8.85l1.68-1.82q22.56-.84 45.13-1.14l2.12 2q22.94-.28 45.88 0l2.12-2q22.57.34 45.13 1.14l1.07 1.14q4.5-4.09 9.05-8.2zm-55.94 5.94l-1.63 1.57q-22.74-.28-45.48 0L276 49.87q24.32-.31 48.69.01z" transform="translate(-154.72 -43.45)" style="mix-blend-mode:overlay" fill="#fff" opacity=".34"/></g></g></svg>