<svg preserveAspectRatio="none" id="Layer_1" data-name="Layer 1" xmlns="http://www.w3.org/2000/svg" viewBox="0 0 22.86 26.42"><defs><style>.cls-1{fill:#0bcddd;}.cls-2,.cls-3{fill:#00aeef;}.cls-2{opacity:0.35;}.cls-3{opacity:0.26;}</style></defs><title>shape7</title><path class="cls-1" d="M333.33,311.59a0.18,0.18,0,0,1,.13-0.07l5.54-.23a0.19,0.19,0,0,1,.16.09l3,4.68a0.18,0.18,0,0,1,0,.18l-2.57,4.91a0.19,0.19,0,0,1-.15.1l-5.54.23a0.19,0.19,0,0,1-.16-0.09l-3-4.68a0.18,0.18,0,0,1,0-.18l2.57-4.91Zm5.58,0.07-5.33.21-2.47,4.73,2.85,4.51,5.33-.22,2.48-4.72Zm-8,4.95h0Z" transform="translate(-329.93 -300.03)"/><path class="cls-1" d="M334.88,313.92l2.91-.12,1.56,2.46L338,318.85l-2.91.12-1.56-2.47Zm2.72,0.25-2.5.1-1.16,2.22,1.33,2.11,2.5-.1,1.17-2.22Z" transform="translate(-329.93 -300.03)"/><polygon class="cls-1" points="5.26 16.4 5.92 17.44 7.16 17.4 7.73 16.3 7.07 15.26 5.84 15.31 5.26 16.4"/><path class="cls-2" d="M344.69,326.45l-3.58-4.69,2.26-5.45,5.85-.76,3.58,4.69-2.27,5.45Zm-2.72-4.8,3.05,4,5-.65,1.93-4.65-3.05-4-5,.65Z" transform="translate(-329.93 -300.03)"/><path class="cls-2" d="M333.07,310.47l-3.14-5,2.75-5.22,5.9-.22,3.14,5L339,310.25Zm-2.27-5,2.67,4.26,5-.19,2.35-4.45-2.67-4.26-5,.19Z" transform="translate(-329.93 -300.03)"/><polygon class="cls-3" points="18.94 14.46 21.29 9.52 18.18 5.03 12.74 5.47 10.4 10.41 13.5 14.9 18.94 14.46"/></svg>