<svg preserveAspectRatio="none" xmlns="http://www.w3.org/2000/svg" viewBox="0 0 67.81 4.24"><defs><style>.cls-1{isolation:isolate;}.cls-2{fill:#00aeef;}.cls-3{mix-blend-mode:color-dodge;}</style></defs><title>arrow3</title><g class="cls-1"><g id="Layer_1" data-name="Layer 1"><polygon class="cls-2" points="60.84 0.01 62.12 2.08 60.85 4.23 59.31 4.24 60.71 2.12 59.3 0.01 60.84 0.01"/><polygon class="cls-2" points="63.66 0 64.94 2.08 63.67 4.23 62.12 4.23 63.53 2.12 62.12 0.01 63.66 0"/><polygon class="cls-2" points="66.53 0 67.81 2.08 66.54 4.22 65 4.23 66.4 2.11 64.99 0 66.53 0"/><g class="cls-3"><polygon class="cls-2" points="60.84 0.01 62.12 2.08 60.85 4.23 59.31 4.24 60.71 2.12 59.3 0.01 60.84 0.01"/><polygon class="cls-2" points="63.66 0 64.94 2.08 63.67 4.23 62.12 4.23 63.53 2.12 62.12 0.01 63.66 0"/><polygon class="cls-2" points="66.53 0 67.81 2.08 66.54 4.22 65 4.23 66.4 2.11 64.99 0 66.53 0"/></g><polygon class="cls-2" points="1.54 0.01 2.82 2.08 1.55 4.23 0 4.24 1.41 2.12 0 0.01 1.54 0.01"/><polygon class="cls-2" points="4.36 0 5.63 2.08 4.36 4.23 2.82 4.23 4.23 2.12 2.82 0.01 4.36 0"/><polygon class="cls-2" points="7.23 0 8.51 2.08 7.24 4.22 5.69 4.23 7.1 2.11 5.69 0 7.23 0"/></g></g></svg>