<svg preserveAspectRatio="none" id="Layer_1" data-name="Layer 1" xmlns="http://www.w3.org/2000/svg" viewBox="0 0 8.3 8.68"><defs><style>.cls-1{opacity:0.44;}.cls-2{fill:#00aeef;}</style></defs><title>shape5</title><g class="cls-1"><path class="cls-2" d="M23,238.78l0.46,3.5a4.33,4.33,0,0,0,3.37-2.48l-3.23-1.5A0.85,0.85,0,0,1,23,238.78Z" transform="translate(-18.57 -233.6)"/><path class="cls-2" d="M22.06,238a0.81,0.81,0,0,1,0-.27l-3.34-1a4.37,4.37,0,0,0,.83,4.11l2.67-2.26A0.84,0.84,0,0,1,22.06,238Z" transform="translate(-18.57 -233.6)"/><path class="cls-2" d="M21.78,233.75l0.93,3.42,0.17,0a0.79,0.79,0,0,1,.69.39l3-1.93A4.35,4.35,0,0,0,21.78,233.75Z" transform="translate(-18.57 -233.6)"/></g></svg>