<svg preserveAspectRatio="none" id="Layer_1" data-name="Layer 1" xmlns="http://www.w3.org/2000/svg" viewBox="0 0 22.86 26.42"><defs><style>.cls-1{fill:#0bcddd}.cls-2{fill:#00aeef;opacity:.35}</style></defs><path class="cls-1" d="M333.33 311.59a.18.18 0 01.13-.07l5.54-.23a.19.19 0 01.16.09l3 4.68a.18.18 0 010 .18l-2.57 4.91a.19.19 0 01-.15.1l-5.54.23a.19.19 0 01-.16-.09l-3-4.68a.18.18 0 010-.18l2.57-4.91zm5.58.07l-5.33.21-2.47 4.73 2.85 4.51 5.33-.22 2.48-4.72zm-8 4.95z" transform="translate(-329.93 -300.03)"/><path class="cls-1" d="M334.88 313.92l2.91-.12 1.56 2.46-1.35 2.59-2.91.12-1.56-2.47zm2.72.25l-2.5.1-1.16 2.22 1.33 2.11 2.5-.1 1.17-2.22z" transform="translate(-329.93 -300.03)"/><path class="cls-1" d="M5.26 16.4l.66 1.04 1.24-.04.57-1.1-.66-1.04-1.23.05-.58 1.09z"/><path class="cls-2" d="M344.69 326.45l-3.58-4.69 2.26-5.45 5.85-.76 3.58 4.69-2.27 5.45zm-2.72-4.8l3.05 4 5-.65 1.93-4.65-3.05-4-5 .65zM333.07 310.47l-3.14-5 2.75-5.22 5.9-.22 3.14 5-2.72 5.22zm-2.27-5l2.67 4.26 5-.19 2.35-4.45-2.67-4.26-5 .19z" transform="translate(-329.93 -300.03)"/><path opacity=".26" fill="#00aeef" d="M18.94 14.46l2.35-4.94-3.11-4.49-5.44.44-2.34 4.94 3.1 4.49 5.44-.44z"/></svg>