<svg preserveAspectRatio="none" id="Layer_1" data-name="Layer 1" xmlns="http://www.w3.org/2000/svg" viewBox="0 0 111.12 111.12"><defs><style>.cls-1{fill:#02a6ff;}</style></defs><title>shape43</title><path id="_复合路径_" data-name="&lt;复合路径&gt;" class="cls-1" d="M3055.71,1939.2a38.85,38.85,0,1,1,38.85-38.85A38.89,38.89,0,0,1,3055.71,1939.2Zm0-71.85a33,33,0,1,0,33,33A33,33,0,0,0,3055.71,1867.35Z" transform="translate(-3000.15 -1844.79)"/><path id="_复合路径_2" data-name="&lt;复合路径&gt;" class="cls-1" d="M3055.71,1937.25a36.9,36.9,0,1,1,36.9-36.9A36.94,36.94,0,0,1,3055.71,1937.25Zm0-71.85a35,35,0,1,0,35,35A35,35,0,0,0,3055.71,1865.4Z" transform="translate(-3000.15 -1844.79)"/><path id="_复合路径_3" data-name="&lt;复合路径&gt;" class="cls-1" d="M3055.71,1950.14a49.88,49.88,0,0,1-31.49-11.22l1.66-2a47.25,47.25,0,0,0,29.83,10.63c1,0,2,0,3-.09l0.16,2.62C3057.82,1950.1,3056.76,1950.14,3055.71,1950.14Zm3.15-.1-0.16-2.62a47,47,0,0,0,35.33-19.57l2.13,1.53A49.6,49.6,0,0,1,3058.86,1950Zm44.94-36.76-2.54-.68a47.28,47.28,0,0,0,1.61-12.24v-0.1h2.63v0.1A49.94,49.94,0,0,1,3103.8,1913.28Zm-97.87-12.87v-0.05a49.93,49.93,0,0,1,1.68-12.87l2.54,0.68a47.31,47.31,0,0,0-1.59,12.19Zm11.44-27.5-2.13-1.53a49.6,49.6,0,0,1,37.28-20.7h0c1.06-.07,2.14-0.1,3.21-0.1a49.88,49.88,0,0,1,31.45,11.19l-1.66,2a47.25,47.25,0,0,0-29.79-10.6c-1,0-2,0-3,.1l-0.07-1.17,0.07,1.17A47,47,0,0,0,3017.36,1872.9Z" transform="translate(-3000.15 -1844.79)"/><path id="_复合路径_4" data-name="&lt;复合路径&gt;" class="cls-1" d="M3055.71,1953a52.57,52.57,0,0,1-17.39-2.94l2.78-8a44.29,44.29,0,0,0,58.86-41.79v-0.08l8.43,0v0.1A52.75,52.75,0,0,1,3055.71,1953Zm-43-63-8.2-2a53,53,0,0,1,34.93-37.84h0a52.82,52.82,0,0,1,43.78,5.13l-4.4,7.2a44.38,44.38,0,0,0-36.77-4.3h0A44.49,44.49,0,0,0,3012.66,1890Z" transform="translate(-3000.15 -1844.79)"/><path id="_复合路径_5" data-name="&lt;复合路径&gt;" class="cls-1" d="M3055.71,1955.91a55.56,55.56,0,1,1,55.56-55.56A55.62,55.62,0,0,1,3055.71,1955.91Zm0-110.47a54.91,54.91,0,1,0,54.91,54.91A55,55,0,0,0,3055.71,1845.44Z" transform="translate(-3000.15 -1844.79)"/></svg>