<svg preserveAspectRatio="none" id="Layer_1" data-name="Layer 1" xmlns="http://www.w3.org/2000/svg" viewBox="0 0 15.25 15.65"><defs><style>.cls-1{fill:#3cd7e4}</style></defs><path class="cls-1" d="M14.82 221.11h-4.27l-2.12-3.71 2.15-3.69h4.27l2.15 3.71zm-4.11-.29h4l2-3.42-2-3.44h-4l-2 3.42zM14.93 212.88h-4.28l-2.12-3.71 2.16-3.69h4.26l2.12 3.71zm-4.11-.29h4l2-3.42-2-3.44h-4l-2 3.42zM21.54 217.28h-4.27l-2.12-3.71 2.15-3.69h4.27l2.12 3.71zm-4.11-.28h4l2-3.42-2-3.44h-4l-2 3.42z" transform="translate(-8.44 -205.46)"/></svg>