<svg preserveAspectRatio="none" id="Layer_1" data-name="Layer 1" xmlns="http://www.w3.org/2000/svg" viewBox="0 0 15.3 16"><defs><style>.cls-2{fill:#00aeef}</style></defs><g opacity=".44"><path class="cls-2" d="M447.8 304.48l.85 6.45a8 8 0 006.22-4.57l-6-2.77a1.57 1.57 0 01-1.07.89zM446 303a1.49 1.49 0 01.09-.5l-6.16-1.92a8.06 8.06 0 001.53 7.57l4.92-4.16a1.55 1.55 0 01-.38-.99zM445.49 295.22l1.71 6.31a1.66 1.66 0 01.32 0 1.47 1.47 0 011.28.72l5.56-3.56a8 8 0 00-8.87-3.47z" transform="translate(-439.57 -294.94)"/></g></svg>