<svg preserveAspectRatio="none" xmlns="http://www.w3.org/2000/svg" viewBox="0 0 16.78 17.01"><defs><style>.cls-1{isolation:isolate;}.cls-2{fill:#00aeef;}.cls-3{mix-blend-mode:color-dodge;}</style></defs><title>shape13</title><g class="cls-1"><g id="Layer_1" data-name="Layer 1"><path class="cls-2" d="M491.17,35a8.73,8.73,0,0,1-5.74-5.19l1.41-.55a7.21,7.21,0,0,0,4.74,4.29Zm7.6-1.44-0.91-1.2a7.18,7.18,0,0,0,.93-10.6l1.11-1A8.69,8.69,0,0,1,498.77,33.6ZM487.4,22.93l-1.29-.79A8.73,8.73,0,0,1,492.67,18l0.15,1.5A7.22,7.22,0,0,0,487.4,22.93Z" transform="translate(-485.43 -18.03)"/><circle class="cls-2" cx="8.09" cy="8.65" r="1.53"/><g class="cls-3"><path class="cls-2" d="M491.17,35a8.73,8.73,0,0,1-5.74-5.19l1.41-.55a7.21,7.21,0,0,0,4.74,4.29Zm7.6-1.44-0.91-1.2a7.18,7.18,0,0,0,.93-10.6l1.11-1A8.69,8.69,0,0,1,498.77,33.6ZM487.4,22.93l-1.29-.79A8.73,8.73,0,0,1,492.67,18l0.15,1.5A7.22,7.22,0,0,0,487.4,22.93Z" transform="translate(-485.43 -18.03)"/><circle class="cls-2" cx="8.09" cy="8.65" r="1.53"/></g></g></g></svg>