<svg preserveAspectRatio="none" id="央铋_1" data-name="央铋 1" xmlns="http://www.w3.org/2000/svg" viewBox="0 0 54.75 54.75"><defs><style>.cls-1{fill:aqua;}</style></defs><title>shape57</title><path class="cls-1" d="M478.84,83h-0.36l0-3h0.94l0.07,3h-0.7Zm-1.42,0-1.06-.07,0.27-3L477.58,80Zm3.17,0-0.19-3,0.94-.08,0.3,3Zm-5.27-.17-1.05-.16,0.5-3,0.93,0.14Zm7.38,0-0.42-3,0.93-.15,0.53,3Zm-9.46-.31-1-.24,0.73-2.91,0.92,0.21Zm11.54-.07-0.65-2.93,0.91-.22,0.76,2.9Zm-13.6-.44-1-.32,1-2.84L472,79Zm15.65-.1L486,79l0.89-.29,1,2.83Zm-17.65-.57-1-.4,1.17-2.76,0.87,0.35Zm19.65-.12-1.09-2.79L488.6,78l1.2,2.75Zm-21.61-.71-1-.47,1.38-2.66,0.85,0.42Zm23.54-.14-1.31-2.7,0.84-.43,1.41,2.65Zm-25.42-.84-0.91-.54L466,76.36l0.81,0.48Zm27.28-.16-1.51-2.59,0.8-.49,1.61,2.53Zm-29.08-1-0.86-.61,1.77-2.42,0.77,0.54Zm30.87-.17L492.7,75.7l0.77-.55,1.8,2.4Zm-32.57-1.08L461,76.41l2-2.28,0.73,0.6Zm34.26-.19-1.89-2.33,0.72-.61,2,2.25Zm-35.87-1.19L459.47,75l2.12-2.12,0.68,0.66Zm37.45-.21-2.06-2.18,0.67-.66,2.15,2.09Zm-38.95-1.29q-0.36-.39-0.7-0.79l2.28-2,0.63,0.71ZM499.16,74l-2.23-2,0.62-.71,2.3,1.92Q499.51,73.59,499.16,74Zm-41.8-1.38-0.64-.84L459.14,70l0.57,0.75Zm43.16-.24-2.37-1.83,0.56-.76,2.44,1.74Q500.84,71.95,500.51,72.36Zm-44.4-1.47q-0.29-.44-0.57-0.89l2.55-1.58q0.25,0.4.51,0.79Zm45.63-.26L499.24,69q0.26-.39.5-0.79l2.57,1.54Q502,70.2,501.74,70.64ZM455,69.1q-0.26-.46-0.5-0.93l2.67-1.37q0.21,0.42.45,0.82Zm47.83-.28-2.63-1.45q0.23-.41.44-0.83l2.68,1.34Q503.09,68.36,502.84,68.83ZM454,67.23q-0.22-.48-0.43-1l2.76-1.17c0.12,0.29.25,0.58,0.38,0.86Zm49.75-.29-2.73-1.24q0.19-.43.37-0.86L504.21,66Q504,66.45,503.79,66.94Zm-50.57-1.65q-0.19-.49-0.35-1l2.85-.95q0.15,0.45.31,0.89ZM504.58,65l-2.82-1c0.11-.29.21-0.59,0.3-0.89L504.93,64Q504.77,64.47,504.58,65Zm-52-1.7q-0.15-.51-0.28-1l2.91-.72c0.08,0.31.16,0.61,0.24,0.91ZM505.23,63l-2.89-.8q0.12-.45.23-0.91l2.92,0.68Q505.37,62.44,505.23,63ZM452,61.22c-0.07-.34-0.14-0.69-0.19-1l3-.49q0.08,0.47.17,0.92Zm53.68-.33-2.95-.57c0.06-.31.11-0.62,0.16-0.93l3,0.46Q505.82,60.37,505.71,60.89Zm-54-1.76q-0.07-.52-0.11-1.05l3-.26q0,0.47.1,0.94ZM506,58.8l-3-.34c0-.31.07-0.63,0.09-0.94l3,0.23C506.11,58.1,506.08,58.45,506,58.8ZM451.5,57c0-.35,0-0.7,0-1.06l3,0q0,0.47,0,.94Zm54.7-.34-3-.11c0-.31,0-0.63,0-0.94s0-.4,0-0.6l3-.07q0,0.33,0,.67Q506.22,56.17,506.2,56.69ZM454.48,55l-3-.08q0-.53,0-1.06l3,0.19C454.5,54.37,454.49,54.68,454.48,55Zm48.69-.9q0-.47-0.08-0.94l3-.3c0,0.35.06,0.7,0.09,1.05Zm-48.57-1-3-.31q0.05-.53.13-1.05l3,0.42C454.67,52.49,454.63,52.8,454.6,53.11ZM503,52.23q-0.07-.47-0.15-0.93l3-.53q0.09,0.52.17,1Zm-48.12-1-3-.54c0.06-.35.13-0.69,0.21-1L455,50.32Q454.95,50.78,454.86,51.25Zm47.78-.88q-0.1-.46-0.22-0.91l2.9-.76q0.13,0.51.25,1Zm-47.38-1-2.9-.76q0.14-.51.29-1l2.87,0.88Q455.39,49,455.27,49.41Zm46.9-.86q-0.14-.45-0.29-0.9l2.84-1q0.17,0.5.33,1Zm-46.35-.94-2.83-1q0.17-.5.37-1l2.79,1.1Q456,47.16,455.82,47.61Zm45.74-.84q-0.17-.44-0.36-0.87l2.75-1.2q0.21,0.48.4,1Zm-45-.91-2.75-1.21q0.21-.49.45-1l2.7,1.32C456.77,45.28,456.64,45.57,456.51,45.86ZM500.81,45q-0.2-.42-0.42-0.84L503,42.8q0.25,0.47.48,0.94Zm-43.47-.89-2.65-1.41q0.25-.47.52-0.93l2.59,1.52Q457.56,43.74,457.34,44.16Zm42.59-.76c-0.16-.27-0.32-0.54-0.49-0.8L502,41q0.28,0.45.55,0.9Zm-41.64-.86-2.53-1.62c0.19-.3.39-0.59,0.59-0.88l2.47,1.71Q458.54,42.13,458.29,42.53Zm40.63-.72c-0.18-.26-0.36-0.52-0.55-0.77l2.4-1.8,0.61,0.85ZM459.36,41L457,39.18q0.32-.42.65-0.83l2.33,1.89Zm38.42-.69q-0.29-.36-0.61-0.72l2.26-2q0.35,0.4.68,0.81Zm-37.23-.77-2.25-2,0.71-.78,2.18,2.07Zm36-.64-0.66-.67,2.1-2.15,0.74,0.75Zm-34.69-.72L459.76,36l0.77-.72,2,2.23Zm33.35-.59-0.71-.62,1.93-2.3,0.8,0.69Zm-31.95-.67-1.92-2.31,0.82-.66L464,36.31Zm30.5-.54L493,35.79l1.74-2.44L495.59,34Zm-29-.6L463,33.3l0.87-.59,1.65,2.51Zm27.48-.49-0.8-.5L493,32.19l0.9,0.56Zm-25.9-.54-1.54-2.57,0.91-.52,1.45,2.63Zm24.29-.44-0.83-.44,1.35-2.68,0.94,0.49ZM468,33.82l-1.34-2.68,1-.45,1.23,2.73Zm21-.38-0.87-.37,1.13-2.78,1,0.42ZM469.68,33l-1.13-2.78,1-.38,1,2.82Zm17.5-.32-0.89-.3,0.91-2.86,1,0.34Zm-15.73-.32-0.91-2.86,1-.3,0.8,2.89Zm13.93-.26-0.91-.23L485.16,29l1,0.26Zm-12.11-.24L472.58,29l1-.22,0.57,2.95Zm10.28-.19-0.93-.16,0.46-3,1,0.18Zm-8.44-.17-0.46-3,1-.14,0.34,3Zm6.58-.12-0.94-.09,0.23-3,1.05,0.1ZM477,31.33l-0.22-3,1.05-.06,0.11,3Zm2.83-.05-0.94,0v-3l1.05,0Z" transform="translate(-451.47 -28.26)"/></svg>