<svg preserveAspectRatio="none" id="Layer_1" data-name="Layer 1" xmlns="http://www.w3.org/2000/svg" viewBox="0 0 10.81 10.13"><defs><style>.cls-1{fill:#00b4eb}</style></defs><path class="cls-1" d="M362.63 255.47l.05-.11.06-.13.07-.18a3.74 3.74 0 00.22-1.16 3.81 3.81 0 00-2.31-3.62 3.78 3.78 0 00-1.79-.29 3.78 3.78 0 00-1.84.64l-.16.11-.11.09-.09.08-.61-.7.08-.07.14-.11.19-.14a4.74 4.74 0 011.32-.63 4.73 4.73 0 013.18.19 4.72 4.72 0 012.87 4.5 4.87 4.87 0 01-.1.82 5 5 0 01-.17.62l-.09.22-.07.16-.06.13zM361.75 256.61l.08-.08.11-.12.06-.07.06-.07.12-.14.1-.13.09-.13.77.51-.11.16-.12.16-.15.18-.08.09-.08.08-.14.14-.1.1zM360.7 257.28l.14-.06.31-.16.29-.19.09-.07.57.73-.11.08-.36.24-.38.2-.18.08zM359.49 257.57a3.73 3.73 0 00.5-.07H360.44l.3.87h-.19l-.19.05-.22.05a4.67 4.67 0 01-.62.08zM358.25 257.45a4.09 4.09 0 00.5.09h.5v.92H358zM357.12 256.94l.13.09.14.08.16.09a3.7 3.7 0 00.47.19l-.29.88a4.67 4.67 0 01-.58-.24l-.2-.11-.17-.1-.17-.11zM356.21 256.09l.07.09.11.12.13.13.13.13.12.11.12.1-.56.74-.15-.12-.15-.13-.17-.16-.16-.17-.13-.15-.09-.11zM355.62 255v.11c0 .09.08.2.14.32s.12.22.17.3l.09.13-.76.52-.11-.17c-.06-.1-.14-.24-.21-.38s-.13-.28-.17-.39v-.18zM355.42 253.77V254.71l-.89.24v.05-.33-.23-.23-.4h.92z" transform="translate(-353.82 -248.37)"/><path d="M361.79 249l-.11-.06-.13-.06-.17-.08a5.44 5.44 0 00-.93-.31 5.58 5.58 0 00-1-.14h-.8a5.58 5.58 0 00-.92.17 5.31 5.31 0 00-1.22.51 5.18 5.18 0 00-.62.42 5.26 5.26 0 00-.58.52 5.41 5.41 0 00-.89 1.23 5.38 5.38 0 00-.61 2.17v.35h.19v-.09-.25a5.16 5.16 0 01.59-2.09 5.21 5.21 0 01.86-1.18 5 5 0 01.55-.5 5 5 0 01.6-.4 5.11 5.11 0 011.18-.49 5.38 5.38 0 01.89-.17h.77a5.37 5.37 0 01.93.13 5.23 5.23 0 01.89.3l.16.07.12.06.11.05h.08l.22.13a5.11 5.11 0 01.72.54 5.33 5.33 0 01.83 1 5.58 5.58 0 01.36.63 5.48 5.48 0 01.28.69 5.19 5.19 0 01.24 1.44 5.06 5.06 0 01-.12 1.27 5.25 5.25 0 01-.27.86l-.1.23v.08l.19.09v-.08l.11-.24a5.48 5.48 0 00.28-.9 5.29 5.29 0 00.13-1.32 5.4 5.4 0 00-.25-1.5 5.74 5.74 0 00-.29-.72 5.83 5.83 0 00-.37-.65 5.54 5.54 0 00-.87-1 5.32 5.32 0 00-.75-.57l-.23-.13z" transform="translate(-353.82 -248.37)" fill="#feb113"/><path class="cls-1" d="M357.16 253.65a2 2 0 102-2 2 2 0 00-2 2zm3.69 0a1.71 1.71 0 11-1.71-1.71 1.71 1.71 0 011.71 1.71z" transform="translate(-353.82 -248.37)"/><circle cx="5.32" cy="5.28" r="1.71" opacity=".3" fill="#feb113"/></svg>