<svg preserveAspectRatio="none" id="央铋_1" data-name="央铋 1" xmlns="http://www.w3.org/2000/svg" viewBox="0 0 52.75 52.75"><defs><style>.cls-1{fill:#006379}</style></defs><path class="cls-1" d="M538.22 145a26.38 26.38 0 1126.38-26.4 26.41 26.41 0 01-26.38 26.4zm0-51.75a25.38 25.38 0 1025.38 25.35 25.4 25.4 0 00-25.38-25.37z" transform="translate(-511.84 -92.23)"/><path class="cls-1" d="M529 98.88l-.85-1.81a23.78 23.78 0 0111-2.22l-.07 2A21.86 21.86 0 00529 98.88zM522.22 103.84l-1.47-1.36a23.84 23.84 0 012.38-2.24l1.27 1.54a21.92 21.92 0 00-2.18 2.06zM515 123.53a23.93 23.93 0 01-.51-4.93 23.64 23.64 0 014.18-13.46l1.65 1.13a21.65 21.65 0 00-3.82 12.33 21.92 21.92 0 00.47 4.52zM523 136.9a23.86 23.86 0 01-6.94-9.57l1.86-.73a21.86 21.86 0 006.36 8.77zM538.22 142.37a24.12 24.12 0 01-3-.19l.25-2a22.24 22.24 0 006.39-.12l.33 2a24 24 0 01-3.97.31zM547.55 140.47l-.79-1.84a21.81 21.81 0 009.4-7.7l1.65 1.13a23.79 23.79 0 01-10.26 8.41zM560.13 127.85l-1.84-.78a21.64 21.64 0 001.71-8.47 21.87 21.87 0 00-.75-5.69l1.93-.52a23.89 23.89 0 01-1.05 15.46zM553.12 102.73a21.92 21.92 0 00-3.78-2.85l1-1.72a23.9 23.9 0 014.12 3.11z" transform="translate(-511.84 -92.23)"/><path class="cls-1" d="M544.61 97.79a21.75 21.75 0 00-5.57-.94l.07-2a23.76 23.76 0 016.08 1zM526 134.44a20 20 0 0112.25-35.86h1l-.24 5h-.74a15 15 0 00-9.19 26.9zM538.22 138.62v-5a14.9 14.9 0 008.88-2.91l3 4a19.86 19.86 0 01-11.88 3.91zM554.54 130.2l-4.07-2.9a14.9 14.9 0 002.22-4.65l4.81 1.35a19.91 19.91 0 01-2.96 6.2zM558.24 118.6h-5a15.09 15.09 0 00-7.45-13l2.53-4.32a20.11 20.11 0 019.92 17.32z" transform="translate(-511.84 -92.23)"/><path class="cls-1" d="M525.87 123.46a13.29 13.29 0 012-13.13l.59.47a12.54 12.54 0 00-1.86 12.38zM538.22 131.87a13.3 13.3 0 01-10.84-5.62l.61-.43a12.54 12.54 0 0014.63 4.5l.26.7a13.23 13.23 0 01-4.66.85zM547.31 128.27l-.51-.55a12.54 12.54 0 003-13.88l.69-.29a13.28 13.28 0 01-3.18 14.72zM546.44 109.16a12.53 12.53 0 00-14.75-1.24l-.39-.64a13.28 13.28 0 0115.64 1.31z" transform="translate(-511.84 -92.23)"/><path class="cls-1" d="M538.22 128a9.35 9.35 0 119.35-9.35 9.36 9.36 0 01-9.35 9.35zm0-16.71a7.35 7.35 0 107.35 7.35 7.36 7.36 0 00-7.35-7.39z" transform="translate(-511.84 -92.23)"/></svg>