<svg preserveAspectRatio="none" id="Layer_1" data-name="Layer 1" xmlns="http://www.w3.org/2000/svg" viewBox="0 0 13.13 13.13"><defs><style>.cls-1{fill:#00b4e9;}</style></defs><title>shape48</title><path class="cls-1" d="M225.77,75.48V72l-3,1.76Zm-0.32-.61-2-1.15,2-1.15v2.3Z" transform="translate(-222.72 -67.25)"/><path class="cls-1" d="M228.11,70l-3.4-.91,0.91,3.4Zm-0.66.2-1.63,1.63-0.59-2.22Z" transform="translate(-222.72 -67.25)"/><path class="cls-1" d="M231.14,70.3l-1.76-3-1.76,3h3.52ZM228.23,70l1.15-2,1.15,2h-2.3Z" transform="translate(-222.72 -67.25)"/><path class="cls-1" d="M233.08,72.64l0.91-3.4-3.4.91Zm-0.2-.66-1.63-1.63,2.22-.59Z" transform="translate(-222.72 -67.25)"/><path class="cls-1" d="M235.85,73.91l-3-1.76v3.52Zm-0.74,0-2,1.15v-2.3Z" transform="translate(-222.72 -67.25)"/><path class="cls-1" d="M233.86,78.53l-0.91-3.4-2.49,2.49Zm-1.12-2.74L233.34,78l-2.22-.6Z" transform="translate(-222.72 -67.25)"/><path class="cls-1" d="M231,77.33h-3.52l1.76,3Zm-0.61.32-1.15,2-1.15-2h2.3Z" transform="translate(-222.72 -67.25)"/><path class="cls-1" d="M228,77.48L225.49,75l-0.91,3.4Zm-0.66-.2-2.22.59,0.6-2.22Z" transform="translate(-222.72 -67.25)"/><circle class="cls-1" cx="6.47" cy="6.47" r="0.97"/></svg>