<svg preserveAspectRatio="none" id="Layer_1" data-name="Layer 1" xmlns="http://www.w3.org/2000/svg" viewBox="0 0 107.09 107.57"><defs><style>.cls-1{fill:#02a6ff;}</style></defs><title>shape34</title><circle id="_路径_" data-name="&lt;路径&gt;" class="cls-1" cx="53.53" cy="53.41" r="10.67"/><path id="_复合路径_" data-name="&lt;复合路径&gt;" class="cls-1" d="M1672.36,1938.78a34.53,34.53,0,1,1,34.53-34.53A34.57,34.57,0,0,1,1672.36,1938.78Zm0-67.18a32.65,32.65,0,1,0,32.65,32.65A32.68,32.68,0,0,0,1672.36,1871.6Z" transform="translate(-1618.84 -1850.84)"/><path id="_复合路径_2" data-name="&lt;复合路径&gt;" class="cls-1" d="M1672.36,1949.1a44.86,44.86,0,1,1,44.86-44.86A44.91,44.91,0,0,1,1672.36,1949.1Zm0-87.26a42.41,42.41,0,1,0,42.41,42.41A42.46,42.46,0,0,0,1672.36,1861.84Z" transform="translate(-1618.84 -1850.84)"/><path id="_复合路径_3" data-name="&lt;复合路径&gt;" class="cls-1" d="M1672.36,1958.4a53.74,53.74,0,0,1-44.94-24.69l-0.06-.22,2.45-1.68,0.06-.07a50.39,50.39,0,0,0,42.49,22.89h0.85l0.13,0.52,0,3.25h-1Zm28.35-8.69-1.56-2.47,0.09-.06a50.44,50.44,0,0,0,23.77-42.94c0-1.11,0-2.26-.11-3.37l0.09-.13,2.81-.19,0,0.11c0.08,1.19.11,2.39,0.11,3.58a53.55,53.55,0,0,1-25.14,45.41Zm-81.82-43.56v0.92h0v-1c0-.56-0.05-1.17-0.05-1.79a53.56,53.56,0,0,1,23.62-44.45l0.08,0,1.62,2.41-0.08.06a50.67,50.67,0,0,0-22.36,42c0,0.6,0,1.19,0,1.69l0,0.11Zm95.06-30.81,0-.08a50.75,50.75,0,0,0-41.55-21.66q-1.3,0-2.54.06l-0.11.17-0.15-2.78h0.13c0.85,0,1.71-.21,2.68-0.21a53.63,53.63,0,0,1,43.94,22.82l0.06,0Z" transform="translate(-1618.84 -1850.84)"/><circle id="_路径_2" data-name="&lt;路径&gt;" class="cls-1" cx="53.53" cy="53.41" r="10.67"/><path id="_复合路径_4" data-name="&lt;复合路径&gt;" class="cls-1" d="M1672.36,1938.78a34.53,34.53,0,1,1,34.53-34.53A34.57,34.57,0,0,1,1672.36,1938.78Zm0-67.18a32.65,32.65,0,1,0,32.65,32.65A32.68,32.68,0,0,0,1672.36,1871.6Z" transform="translate(-1618.84 -1850.84)"/><path id="_复合路径_5" data-name="&lt;复合路径&gt;" class="cls-1" d="M1672.36,1949.1a44.86,44.86,0,1,1,44.86-44.86A44.91,44.91,0,0,1,1672.36,1949.1Zm0-87.26a42.41,42.41,0,1,0,42.41,42.41A42.46,42.46,0,0,0,1672.36,1861.84Z" transform="translate(-1618.84 -1850.84)"/><path id="_复合路径_6" data-name="&lt;复合路径&gt;" class="cls-1" d="M1672.36,1958.4a53.74,53.74,0,0,1-44.94-24.69l-0.06-.22,2.45-1.68,0.06-.07a50.39,50.39,0,0,0,42.49,22.89h0.85l0.13,0.52,0,3.25h-1Zm28.35-8.69-1.56-2.47,0.09-.06a50.44,50.44,0,0,0,23.77-42.94c0-1.11,0-2.26-.11-3.37l0.09-.13,2.81-.19,0,0.11c0.08,1.19.11,2.39,0.11,3.58a53.55,53.55,0,0,1-25.14,45.41Zm-81.82-43.56v0.92h0v-1c0-.56-0.05-1.17-0.05-1.79a53.56,53.56,0,0,1,23.62-44.45l0.08,0,1.62,2.41-0.08.06a50.67,50.67,0,0,0-22.36,42c0,0.6,0,1.19,0,1.69l0,0.11Zm95.06-30.81,0-.08a50.75,50.75,0,0,0-41.55-21.66q-1.3,0-2.54.06l-0.11.17-0.15-2.78h0.13c0.85,0,1.71-.21,2.68-0.21a53.63,53.63,0,0,1,43.94,22.82l0.06,0Z" transform="translate(-1618.84 -1850.84)"/></svg>