<svg preserveAspectRatio="none" id="Layer_1" data-name="Layer 1" xmlns="http://www.w3.org/2000/svg" viewBox="0 0 99.06 99.05"><defs><style>.cls-1{fill:#02a6ff}</style></defs><path id="_路径_" data-name="&lt;路径&gt;" class="cls-1" d="M37.59 55.65l11.94-20.67 11.94 20.67H37.59z"/><path id="_复合路径_" data-name="&lt;复合路径&gt;" class="cls-1" d="M2287.76 1930.15H2258l-14.88-26.37 14.88-26.37h29.8l14.88 26.37zm-28.7-1.88h27.6l13.82-24.48-13.82-24.48h-27.6l-13.82 24.48z" transform="translate(-2223.33 -1853.78)"/><path id="_复合路径_2" data-name="&lt;复合路径&gt;" class="cls-1" d="M2264.75 1932.49l-21.07-21.07 8.12-29.17 29.17-8.12 21.03 21.07-8.12 29.17zm-19-21.62l19.52 19.51 27.08-7.54 7.54-27.08-19.52-19.51-27.08 7.54z" transform="translate(-2223.33 -1853.78)"/><path id="_复合路径_3" data-name="&lt;复合路径&gt;" class="cls-1" d="M2272.86 1942.54a39.24 39.24 0 1139.24-39.24 39.28 39.28 0 01-39.24 39.24zm0-76.59a37.35 37.35 0 1037.36 37.35 37.4 37.4 0 00-37.36-37.3z" transform="translate(-2223.33 -1853.78)"/><path id="_复合路径_4" data-name="&lt;复合路径&gt;" class="cls-1" d="M2272.86 1952.84a49.48 49.48 0 01-32.72-12.35l1.57-1.78a47.22 47.22 0 0048.15 8.6l.86 2.22a49.35 49.35 0 01-17.86 3.31zm20.33-4.35l-.88-2.21.21.45-.19-.46 1 2.16zm2.56-1.24l-1.1-2.11a47.23 47.23 0 0023.64-54.48l2.29-.64a49.62 49.62 0 01-24.83 57.22zm-57.59-8.59l.66-.76-.65.71.54-.62-.62.53.74-.67-.76.65.77-.66.9-1 .16.16-.91.78zm-2-2a49.59 49.59 0 01-9.81-50.44l2.23.82a47.21 47.21 0 009.34 48zm82.22-48.78l.22-.07h-.11l1.2-.53.09.28-1.29.26h.06zm-1.82-2.16a47 47 0 00-39.18-29.29l.23-2.37a49.34 49.34 0 0141.15 30.76zm-87-1.12l-2.19-.94 2.17 1-2.12-.91zm1.12-2.4l-2.12-1.07a49.4 49.4 0 0143.53-27.29v2.38a47 47 0 00-41.38 25.92zm44-26v-.45.45l.09-2.37h.23z" transform="translate(-2223.33 -1853.78)"/><path id="_路径_2" data-name="&lt;路径&gt;" class="cls-1" d="M37.59 55.65l11.94-20.67 11.94 20.67H37.59z"/><path id="_复合路径_5" data-name="&lt;复合路径&gt;" class="cls-1" d="M2287.76 1930.15H2258l-14.88-26.37 14.88-26.37h29.8l14.88 26.37zm-28.7-1.88h27.6l13.82-24.48-13.82-24.48h-27.6l-13.82 24.48z" transform="translate(-2223.33 -1853.78)"/><path id="_复合路径_6" data-name="&lt;复合路径&gt;" class="cls-1" d="M2264.75 1932.49l-21.07-21.07 8.12-29.17 29.17-8.12 21.03 21.07-8.12 29.17zm-19-21.62l19.52 19.51 27.08-7.54 7.54-27.08-19.52-19.51-27.08 7.54z" transform="translate(-2223.33 -1853.78)"/><path id="_复合路径_7" data-name="&lt;复合路径&gt;" class="cls-1" d="M2272.86 1942.54a39.24 39.24 0 1139.24-39.24 39.28 39.28 0 01-39.24 39.24zm0-76.59a37.35 37.35 0 1037.36 37.35 37.4 37.4 0 00-37.36-37.3z" transform="translate(-2223.33 -1853.78)"/><path id="_复合路径_8" data-name="&lt;复合路径&gt;" class="cls-1" d="M2272.86 1952.84a49.48 49.48 0 01-32.72-12.35l1.57-1.78a47.22 47.22 0 0048.15 8.6l.86 2.22a49.35 49.35 0 01-17.86 3.31zm20.33-4.35l-.88-2.21.21.45-.19-.46 1 2.16zm2.56-1.24l-1.1-2.11a47.23 47.23 0 0023.64-54.48l2.29-.64a49.62 49.62 0 01-24.83 57.22zm-57.59-8.59l.66-.76-.65.71.54-.62-.62.53.74-.67-.76.65.77-.66.9-1 .16.16-.91.78zm-2-2a49.59 49.59 0 01-9.81-50.44l2.23.82a47.21 47.21 0 009.34 48zm82.22-48.78l.22-.07h-.11l1.2-.53.09.28-1.29.26h.06zm-1.82-2.16a47 47 0 00-39.18-29.29l.23-2.37a49.34 49.34 0 0141.15 30.76zm-87-1.12l-2.19-.94 2.17 1-2.12-.91zm1.12-2.4l-2.12-1.07a49.4 49.4 0 0143.53-27.29v2.38a47 47 0 00-41.38 25.92zm44-26v-.45.45l.09-2.37h.23z" transform="translate(-2223.33 -1853.78)"/></svg>