<svg preserveAspectRatio="none" id="Layer_1" data-name="Layer 1" xmlns="http://www.w3.org/2000/svg" viewBox="0 0 106.01 106.01"><defs><style>.cls-1{fill:#02a6ff;}</style></defs><title>shape39</title><path id="_复合路径_" data-name="&lt;复合路径&gt;" class="cls-1" d="M2487.25,1897.42L2483,1897a2.41,2.41,0,0,1-2-1.92l-0.71-3.7a2.4,2.4,0,0,1,1.17-2.55l3.74-2a2,2,0,0,0,.92-2.47l-1.88-4.65a2,2,0,0,0-2.37-1.15l-4,1.19a2.44,2.44,0,0,1-2.62-1l-2.58-3.9a2.43,2.43,0,0,1,.08-2.82l2.69-3.26a2,2,0,0,0-.13-2.63l-3.54-3.55a2,2,0,0,0-2.63-.12l-3.27,2.69a2.38,2.38,0,0,1-2.8.08l-3.33-2.24a2.41,2.41,0,0,1-1-2.62l1.25-4a2,2,0,0,0-1.11-2.39l-4.63-1.94a2,2,0,0,0-2.48.88l-2,3.72a2.43,2.43,0,0,1-2.57,1.14l-4.36-.87a2.44,2.44,0,0,1-1.93-2l-0.4-4.22a2,2,0,0,0-2-1.77h-5a2,2,0,0,0-2,1.77l-0.4,4.22a2.44,2.44,0,0,1-1.93,2l-4.25.84a2.41,2.41,0,0,1-2.56-1.15l-2-3.73a2,2,0,0,0-2.48-.88l-4.63,1.93a2,2,0,0,0-1.12,2.39l1.24,4a2.41,2.41,0,0,1-1,2.62l-3.42,2.29a2.39,2.39,0,0,1-2.81-.08l-3.27-2.69a2,2,0,0,0-2.63.12l-3.54,3.55a2,2,0,0,0-.13,2.63l2.69,3.26a2.42,2.42,0,0,1,.08,2.81l-2.23,3.31a2.39,2.39,0,0,1-2.62,1l-4-1.25a2,2,0,0,0-2.39,1.11l-1.94,4.63a2,2,0,0,0,.87,2.48l3.72,2a2.41,2.41,0,0,1,1.14,2.57l-0.87,4.37a2.42,2.42,0,0,1-2,1.92l-4.21.41a2,2,0,0,0-1.77,2v5a2,2,0,0,0,1.77,2l4.21,0.41a2.4,2.4,0,0,1,2,1.92l0.72,3.7a2.42,2.42,0,0,1-1.17,2.55l-3.75,2a2,2,0,0,0-.91,2.47l1.87,4.65a2,2,0,0,0,2.37,1.15l4-1.19a2.44,2.44,0,0,1,2.62,1l2.58,3.9a2.43,2.43,0,0,1-.08,2.82l-2.69,3.26a2,2,0,0,0,.13,2.63l3.54,3.55a2,2,0,0,0,2.63.12l3.27-2.68a2.39,2.39,0,0,1,2.81-.08l3.32,2.23a2.43,2.43,0,0,1,1,2.63l-1.25,4a2,2,0,0,0,1.11,2.39l4.63,1.94a2,2,0,0,0,2.48-.88l2-3.72a2.42,2.42,0,0,1,2.57-1.14l4.35,0.87a2.44,2.44,0,0,1,1.93,2l0.4,4.22a2,2,0,0,0,2,1.77h5a2,2,0,0,0,2-1.77l0.4-4.22a2.44,2.44,0,0,1,1.93-2l4.25-.84a2.4,2.4,0,0,1,2.56,1.15l2,3.72a2,2,0,0,0,2.48.89l4.63-1.93a2,2,0,0,0,1.12-2.39l-1.24-4a2.4,2.4,0,0,1,1-2.62l3.41-2.29a2.39,2.39,0,0,1,2.81.08l3.27,2.68a2,2,0,0,0,2.63-.12l3.54-3.55a2,2,0,0,0,.13-2.63l-2.69-3.26a2.42,2.42,0,0,1-.08-2.81l2.23-3.31a2.4,2.4,0,0,1,2.63-1l4,1.25a2,2,0,0,0,2.39-1.11l1.94-4.63a2,2,0,0,0-.87-2.48l-3.72-2a2.42,2.42,0,0,1-1.14-2.57l0.87-4.37a2.42,2.42,0,0,1,2-1.92l4.21-.41a2,2,0,0,0,1.78-2v-5A2,2,0,0,0,2487.25,1897.42Zm-14.47,2.67h-13.63a23,23,0,0,0-5.51-13.3l9.64-9.63A36.63,36.63,0,0,1,2472.78,1900.09Zm-25.41,0a11.5,11.5,0,0,1,0,3.58,11.36,11.36,0,0,1-2.06,5,11.78,11.78,0,0,1-2.53,2.54,11.55,11.55,0,0,1-5,2.06,11.56,11.56,0,0,1-3.59,0,11.41,11.41,0,0,1-5-2.06,11.63,11.63,0,0,1-2.54-2.54,11.36,11.36,0,0,1-2.06-5,11.5,11.5,0,0,1,0-3.58,11.41,11.41,0,0,1,2.06-5,11.63,11.63,0,0,1,2.54-2.54,11.41,11.41,0,0,1,5-2.06,11.55,11.55,0,0,1,3.59,0,11.55,11.55,0,0,1,5,2.06,12,12,0,0,1,2.53,2.54A11.42,11.42,0,0,1,2447.37,1900.09Zm-1.49-10.61a15.66,15.66,0,0,0-8.07-3.36v-4.76a20.51,20.51,0,0,1,11.44,4.75h0Zm-11.66-3.36a15.66,15.66,0,0,0-8.07,3.36l-3.37-3.37a20.51,20.51,0,0,1,11.44-4.75v4.76Zm-10.61,5.89h0a15.69,15.69,0,0,0-3.36,8.08h-4.75a20.53,20.53,0,0,1,4.75-11.44Zm-3.36,11.66a15.61,15.61,0,0,0,3.36,8.08l-3.37,3.37a20.59,20.59,0,0,1-4.74-11.45h4.75Zm5.89,10.61a15.66,15.66,0,0,0,8.07,3.36v4.76a20.51,20.51,0,0,1-11.44-4.75Zm11.66,3.36a15.66,15.66,0,0,0,8.07-3.36l3.37,3.37h0a20.51,20.51,0,0,1-11.44,4.75v-4.76Zm10.61-5.89a15.61,15.61,0,0,0,3.36-8.08h4.75a20.5,20.5,0,0,1-4.74,11.44Zm3.36-11.66a15.69,15.69,0,0,0-3.36-8.08l3.36-3.36h0a20.53,20.53,0,0,1,4.75,11.44h-4.75Zm9-25.47-9.64,9.64a23,23,0,0,0-13.29-5.52v-13.62A36.66,36.66,0,0,1,2460.75,1874.62Zm-26.52-9.5v13.62a23,23,0,0,0-13.29,5.52l-9.64-9.64A36.66,36.66,0,0,1,2434.23,1865.12Zm-25.46,12,9.63,9.63a23.07,23.07,0,0,0-5.51,13.3h-13.63A36.59,36.59,0,0,1,2408.77,1877.16Zm-9.51,26.51h13.63a23,23,0,0,0,5.51,13.3l-9.63,9.63A36.62,36.62,0,0,1,2399.26,1903.66Zm12,25.47,9.64-9.64a23,23,0,0,0,13.29,5.52v13.62A36.66,36.66,0,0,1,2411.3,1929.13Zm26.52,9.5V1925a23,23,0,0,0,13.29-5.52l9.64,9.64A36.66,36.66,0,0,1,2437.81,1938.63Zm25.47-12-9.64-9.63a23,23,0,0,0,5.51-13.3h13.63A36.66,36.66,0,0,1,2463.28,1926.6Z" transform="translate(-2383.02 -1848.87)"/><path id="_复合路径_2" data-name="&lt;复合路径&gt;" class="cls-1" d="M2487.25,1897.42L2483,1897a2.41,2.41,0,0,1-2-1.92l-0.71-3.7a2.4,2.4,0,0,1,1.17-2.55l3.74-2a2,2,0,0,0,.92-2.47l-1.88-4.65a2,2,0,0,0-2.37-1.15l-4,1.19a2.44,2.44,0,0,1-2.62-1l-2.58-3.9a2.43,2.43,0,0,1,.08-2.82l2.69-3.26a2,2,0,0,0-.13-2.63l-3.54-3.55a2,2,0,0,0-2.63-.12l-3.27,2.69a2.38,2.38,0,0,1-2.8.08l-3.33-2.24a2.41,2.41,0,0,1-1-2.62l1.25-4a2,2,0,0,0-1.11-2.39l-4.63-1.94a2,2,0,0,0-2.48.88l-2,3.72a2.43,2.43,0,0,1-2.57,1.14l-4.36-.87a2.44,2.44,0,0,1-1.93-2l-0.4-4.22a2,2,0,0,0-2-1.77h-5a2,2,0,0,0-2,1.77l-0.4,4.22a2.44,2.44,0,0,1-1.93,2l-4.25.84a2.41,2.41,0,0,1-2.56-1.15l-2-3.73a2,2,0,0,0-2.48-.88l-4.63,1.93a2,2,0,0,0-1.12,2.39l1.24,4a2.41,2.41,0,0,1-1,2.62l-3.42,2.29a2.39,2.39,0,0,1-2.81-.08l-3.27-2.69a2,2,0,0,0-2.63.12l-3.54,3.55a2,2,0,0,0-.13,2.63l2.69,3.26a2.42,2.42,0,0,1,.08,2.81l-2.23,3.31a2.39,2.39,0,0,1-2.62,1l-4-1.25a2,2,0,0,0-2.39,1.11l-1.94,4.63a2,2,0,0,0,.87,2.48l3.72,2a2.41,2.41,0,0,1,1.14,2.57l-0.87,4.37a2.42,2.42,0,0,1-2,1.92l-4.21.41a2,2,0,0,0-1.77,2v5a2,2,0,0,0,1.77,2l4.21,0.41a2.4,2.4,0,0,1,2,1.92l0.72,3.7a2.42,2.42,0,0,1-1.17,2.55l-3.75,2a2,2,0,0,0-.91,2.47l1.87,4.65a2,2,0,0,0,2.37,1.15l4-1.19a2.44,2.44,0,0,1,2.62,1l2.58,3.9a2.43,2.43,0,0,1-.08,2.82l-2.69,3.26a2,2,0,0,0,.13,2.63l3.54,3.55a2,2,0,0,0,2.63.12l3.27-2.68a2.39,2.39,0,0,1,2.81-.08l3.32,2.23a2.43,2.43,0,0,1,1,2.63l-1.25,4a2,2,0,0,0,1.11,2.39l4.63,1.94a2,2,0,0,0,2.48-.88l2-3.72a2.42,2.42,0,0,1,2.57-1.14l4.35,0.87a2.44,2.44,0,0,1,1.93,2l0.4,4.22a2,2,0,0,0,2,1.77h5a2,2,0,0,0,2-1.77l0.4-4.22a2.44,2.44,0,0,1,1.93-2l4.25-.84a2.4,2.4,0,0,1,2.56,1.15l2,3.72a2,2,0,0,0,2.48.89l4.63-1.93a2,2,0,0,0,1.12-2.39l-1.24-4a2.4,2.4,0,0,1,1-2.62l3.41-2.29a2.39,2.39,0,0,1,2.81.08l3.27,2.68a2,2,0,0,0,2.63-.12l3.54-3.55a2,2,0,0,0,.13-2.63l-2.69-3.26a2.42,2.42,0,0,1-.08-2.81l2.23-3.31a2.4,2.4,0,0,1,2.63-1l4,1.25a2,2,0,0,0,2.39-1.11l1.94-4.63a2,2,0,0,0-.87-2.48l-3.72-2a2.42,2.42,0,0,1-1.14-2.57l0.87-4.37a2.42,2.42,0,0,1,2-1.92l4.21-.41a2,2,0,0,0,1.78-2v-5A2,2,0,0,0,2487.25,1897.42Zm-14.47,2.67h-13.63a23,23,0,0,0-5.51-13.3l9.64-9.63A36.63,36.63,0,0,1,2472.78,1900.09Zm-25.41,0a11.5,11.5,0,0,1,0,3.58,11.36,11.36,0,0,1-2.06,5,11.78,11.78,0,0,1-2.53,2.54,11.55,11.55,0,0,1-5,2.06,11.56,11.56,0,0,1-3.59,0,11.41,11.41,0,0,1-5-2.06,11.63,11.63,0,0,1-2.54-2.54,11.36,11.36,0,0,1-2.06-5,11.5,11.5,0,0,1,0-3.58,11.41,11.41,0,0,1,2.06-5,11.63,11.63,0,0,1,2.54-2.54,11.41,11.41,0,0,1,5-2.06,11.55,11.55,0,0,1,3.59,0,11.55,11.55,0,0,1,5,2.06,12,12,0,0,1,2.53,2.54A11.42,11.42,0,0,1,2447.37,1900.09Zm-1.49-10.61a15.66,15.66,0,0,0-8.07-3.36v-4.76a20.51,20.51,0,0,1,11.44,4.75h0Zm-11.66-3.36a15.66,15.66,0,0,0-8.07,3.36l-3.37-3.37a20.51,20.51,0,0,1,11.44-4.75v4.76Zm-10.61,5.89h0a15.69,15.69,0,0,0-3.36,8.08h-4.75a20.53,20.53,0,0,1,4.75-11.44Zm-3.36,11.66a15.61,15.61,0,0,0,3.36,8.08l-3.37,3.37a20.59,20.59,0,0,1-4.74-11.45h4.75Zm5.89,10.61a15.66,15.66,0,0,0,8.07,3.36v4.76a20.51,20.51,0,0,1-11.44-4.75Zm11.66,3.36a15.66,15.66,0,0,0,8.07-3.36l3.37,3.37h0a20.51,20.51,0,0,1-11.44,4.75v-4.76Zm10.61-5.89a15.61,15.61,0,0,0,3.36-8.08h4.75a20.5,20.5,0,0,1-4.74,11.44Zm3.36-11.66a15.69,15.69,0,0,0-3.36-8.08l3.36-3.36h0a20.53,20.53,0,0,1,4.75,11.44h-4.75Zm9-25.47-9.64,9.64a23,23,0,0,0-13.29-5.52v-13.62A36.66,36.66,0,0,1,2460.75,1874.62Zm-26.52-9.5v13.62a23,23,0,0,0-13.29,5.52l-9.64-9.64A36.66,36.66,0,0,1,2434.23,1865.12Zm-25.46,12,9.63,9.63a23.07,23.07,0,0,0-5.51,13.3h-13.63A36.59,36.59,0,0,1,2408.77,1877.16Zm-9.51,26.51h13.63a23,23,0,0,0,5.51,13.3l-9.63,9.63A36.62,36.62,0,0,1,2399.26,1903.66Zm12,25.47,9.64-9.64a23,23,0,0,0,13.29,5.52v13.62A36.66,36.66,0,0,1,2411.3,1929.13Zm26.52,9.5V1925a23,23,0,0,0,13.29-5.52l9.64,9.64A36.66,36.66,0,0,1,2437.81,1938.63Zm25.47-12-9.64-9.63a23,23,0,0,0,5.51-13.3h13.63A36.66,36.66,0,0,1,2463.28,1926.6Z" transform="translate(-2383.02 -1848.87)"/></svg>