<svg preserveAspectRatio="none" id="央铋_1" data-name="央铋 1" xmlns="http://www.w3.org/2000/svg" viewBox="0 0 55.21 55.21"><defs><style>.cls-1{fill:#0ff}</style></defs><path class="cls-1" d="M478.84 144.85a26.25 26.25 0 1126.25-26.25 26.28 26.28 0 01-26.25 26.25zm0-51.75a25.5 25.5 0 1025.5 25.5 25.53 25.53 0 00-25.5-25.5z" transform="translate(-451.24 -91)"/><path class="cls-1" d="M27.1 0h1v3.46h-1z"/><path class="cls-1" transform="rotate(-45.01 125.07 599.377)" d="M460.05 98.58h1v3.46h-1z"/><path class="cls-1" d="M0 27.1h3.46v1H0z"/><path class="cls-1" transform="rotate(-45 125.078 636.091)" d="M458.82 136.4h3.46v1h-3.46z"/><path class="cls-1" d="M27.1 51.75h1v3.46h-1z"/><path class="cls-1" transform="rotate(-45 161.724 636.082)" d="M496.64 135.17h1v3.46h-1z"/><path class="cls-1" d="M51.75 27.1h3.46v1h-3.46z"/><path class="cls-1" transform="rotate(-45 161.672 599.503)" d="M495.41 99.81h3.46v1h-3.46z"/><path class="cls-1" d="M477.36 140.7a22.11 22.11 0 01-3-.4l.15-.73a21.54 21.54 0 002.89.39zm3 0l-.05-.75a21.42 21.42 0 002.89-.4l.15.73a22.12 22.12 0 01-2.97.42zm-8.93-1.21a22.15 22.15 0 01-2.77-1.2l.35-.67a21.33 21.33 0 002.68 1.16zm14.83 0l-.25-.71a21.47 21.47 0 002.68-1.17l.35.67a22.05 22.05 0 01-2.76 1.19zm-20.18-2.76a22.41 22.41 0 01-2.35-1.9l.51-.55a21.81 21.81 0 002.27 1.84zm25.53 0l-.43-.61a21.5 21.5 0 002.26-1.84l.51.55a22.25 22.25 0 01-2.33 1.86zm-29.94-4.09a22.35 22.35 0 01-1.75-2.46l.64-.39a21.87 21.87 0 001.69 2.38zm34.34 0l-.58-.47a21.34 21.34 0 001.69-2.38l.64.39a22.26 22.26 0 01-1.76 2.39zm-37.49-5.11a22 22 0 01-1-2.85l.72-.2a21.16 21.16 0 001 2.75zm40.62 0l-.69-.3a21.24 21.24 0 001-2.75l.72.2a21.94 21.94 0 01-1.01 2.74zm-42.25-5.77a22.31 22.31 0 01-.21-3h.75a21.78 21.78 0 00.2 2.91zm43.88 0l-.74-.1a21.77 21.77 0 00.2-2.91l.75-.09v.09a22.33 22.33 0 01-.19 2.87zm-43.15-5.88l-.74-.1a22.23 22.23 0 01.61-3l.72.2a21.37 21.37 0 00-.57 2.75zm42.39-.13a21.5 21.5 0 00-.6-2.86l.72-.2a22 22 0 01.62 3zm-40.84-5.49l-.69-.3a22.1 22.1 0 011.39-2.69l.64.39a21.57 21.57 0 00-1.31 2.46zm39.25-.11a21.44 21.44 0 00-1.35-2.58l.64-.39a22.23 22.23 0 011.4 2.67zm-36.23-4.87l-.58-.47a22.35 22.35 0 012.06-2.21l.53.4a21.6 21.6 0 00-1.98 2.14zm33.21-.28a21.81 21.81 0 00-2-2.13l.51-.55a22.44 22.44 0 012.07 2.2zm-28.93-3.89l-.44-.61a22.25 22.25 0 012.57-1.5l.4.63a21.36 21.36 0 00-2.54 1.52zm24.66-.07a21.47 21.47 0 00-2.5-1.51l.34-.67a22.43 22.43 0 012.59 1.56zm-19.5-2.63l-.25-.71a22 22 0 012.91-.82l.15.73a21.26 21.26 0 00-2.82.85zm14.33 0a21.34 21.34 0 00-2.82-.78l.15-.74a22.23 22.23 0 012.91.81zm-8.63-1.16l-.05-.75a22.6 22.6 0 013 0v.75a21.67 21.67 0 00-2.96.01zM471.29 102.34l-.32-.68a18.51 18.51 0 017.87-1.73v.75a17.77 17.77 0 00-7.55 1.66zM466.4 105.7l-.52-.54q.54-.52 1.12-1l.48.58q-.57.46-1.08.96zM460.92 118.6h-.75a18.71 18.71 0 014.22-11.83l.58.48a18 18 0 00-4.05 11.35zM463 128.44c-.33-.53-.63-1.08-.91-1.63l.67-.33c.26.53.55 1.06.87 1.57zM478.84 137.28a18.58 18.58 0 01-10.44-3.19l.42-.62a17.84 17.84 0 0010 3.06v.75zM485.21 136.17l-.26-.71a17.88 17.88 0 001.84-.79l.33.67a18.84 18.84 0 01-1.91.83zM489.09 134.23l-.41-.63a17.89 17.89 0 006.82-8.32l.7.28a18.63 18.63 0 01-7.11 8.67zM497.43 120.51l-.75-.08a18.23 18.23 0 00.09-1.83 17.77 17.77 0 00-1.66-7.54l.68-.32a18.51 18.51 0 011.73 7.86 18.9 18.9 0 01-.09 1.91zM493.61 108.43a18.12 18.12 0 00-6-5.46l.37-.65a18.86 18.86 0 016.23 5.69z" transform="translate(-451.24 -91)"/><path class="cls-1" d="M483.81 101.37a18 18 0 00-5-.7v-.75a18.7 18.7 0 015.17.72z" transform="translate(-451.24 -91)"/></svg>