<svg preserveAspectRatio="none" id="央铋_1" data-name="央铋 1" xmlns="http://www.w3.org/2000/svg" viewBox="0 0 52.75 52.75"><defs><style>.cls-1{fill:#006379}.cls-2{fill:#0ff}</style></defs><path class="cls-1" d="M419.47 145a26.38 26.38 0 1126.38-26.38A26.41 26.41 0 01419.47 145zm0-51.75a25.38 25.38 0 1025.38 25.38 25.4 25.4 0 00-25.38-25.4z" transform="translate(-393.09 -92.23)"/><path class="cls-1" d="M419.47 137.79a19.19 19.19 0 1119.19-19.19 19.21 19.21 0 01-19.19 19.19zm0-37.87a18.69 18.69 0 1018.69 18.69 18.71 18.71 0 00-18.69-18.69z" transform="translate(-393.09 -92.23)"/><path class="cls-2" d="M403.31 110.8l-1.8-.87a19.88 19.88 0 0115.29-11.09l.27 2a17.89 17.89 0 00-13.76 9.96zM419.47 138.54a20 20 0 01-19.94-19.94h2a18 18 0 0017.94 17.94v2zM428.75 136.25l-.93-1.77a18 18 0 001.79-1.08l1.13 1.65a20 20 0 01-1.99 1.2zM433.7 132.56l-1.43-1.4a17.84 17.84 0 005.13-12.56h2a19.83 19.83 0 01-5.7 13.96zM435 109.56a18 18 0 00-3.06-3.88l1.39-1.44a20 20 0 013.4 4.32zM425.93 101.87a17.86 17.86 0 00-6.46-1.2v-2a19.85 19.85 0 017.18 1.33z" transform="translate(-393.09 -92.23)"/></svg>