<svg preserveAspectRatio="none" xmlns="http://www.w3.org/2000/svg" viewBox="0 0 67.81 4.24"><defs><style>.cls-2{fill:#00aeef}</style></defs><g style="isolation:isolate"><g id="Layer_1" data-name="Layer 1"><path class="cls-2" d="M60.84.01l1.28 2.07-1.27 2.15-1.54.01 1.4-2.12L59.3.01h1.54z"/><path class="cls-2" d="M63.66 0l1.28 2.08-1.27 2.15h-1.55l1.41-2.11L62.12.01 63.66 0zM66.53 0l1.28 2.08-1.27 2.14-1.54.01 1.4-2.12L64.99 0h1.54z"/><g style="mix-blend-mode:color-dodge"><path class="cls-2" d="M60.84.01l1.28 2.07-1.27 2.15-1.54.01 1.4-2.12L59.3.01h1.54z"/><path class="cls-2" d="M63.66 0l1.28 2.08-1.27 2.15h-1.55l1.41-2.11L62.12.01 63.66 0zM66.53 0l1.28 2.08-1.27 2.14-1.54.01 1.4-2.12L64.99 0h1.54z"/></g><path class="cls-2" d="M1.54.01l1.28 2.07-1.27 2.15L0 4.24l1.41-2.12L0 .01h1.54z"/><path class="cls-2" d="M4.36 0l1.27 2.08-1.27 2.15H2.82l1.41-2.11L2.82.01 4.36 0zM7.23 0l1.28 2.08-1.27 2.14-1.55.01L7.1 2.11 5.69 0h1.54z"/></g></g></svg>