<svg preserveAspectRatio="none" id="Layer_1" data-name="Layer 1" xmlns="http://www.w3.org/2000/svg" viewBox="0 0 197.18 196.69"><defs><style>.cls-1{fill:#76e5ff}</style></defs><path class="cls-1" d="M168.92 636.31a29.35 29.35 0 1029.35 29.35 29.35 29.35 0 00-29.35-29.35zm0 54.2a24.85 24.85 0 1124.85-24.85 24.85 24.85 0 01-24.85 24.85z" transform="translate(-139.58 -636.31)"/><path class="cls-1" d="M32.11 13.29l-.32-.03.14-2.14.49.05-.31 2.12zM33.78 13.66l-.32-.06.36-2.11.48.1-.52 2.07zM35.39 14.21l-.31-.1.58-2.05.47.15-.74 2zM36.94 14.93l-.3-.13.8-1.99.44.2-.94 1.92zM38.41 15.8l-.29-.16 1-1.89.43.24-1.14 1.81zM39.77 16.82l-.26-.19 1.19-1.78.39.29-1.32 1.68zM41.02 17.98l-.24-.22 1.37-1.64.37.33-1.5 1.53zM42.15 19.27l-.22-.25 1.54-1.49.32.36-1.64 1.38zM43.13 20.66l-.19-.27 1.68-1.32.29.4-1.78 1.19zM43.97 22.15l-.17-.29 1.81-1.13.25.42-1.89 1zM44.64 23.71l-.13-.3 1.91-.94.2.45-1.98.79zM45.15 25.34l-.11-.31 2.01-.73.15.46-2.05.58zM45.48 27.02l-.07-.32 2.07-.53.1.48-2.1.37zM45.6 28.39l.03.32 2.14-.14-.05-.48-2.12.3zM45.61 30.09v.33l2.14.08v-.49l-2.14.08zM45.41 32.12l.03-.33 2.14.14-.06.49-2.11-.3zM45.03 33.78l.07-.32 2.11.36-.11.48-2.07-.52zM44.48 35.39l.1-.31 2.06.59-.15.46-2.01-.74zM43.77 36.94l.13-.3 1.98.8-.19.44-1.92-.94zM42.9 38.41l.16-.29 1.89 1-.25.43-1.8-1.14zM41.87 39.77l.2-.26 1.77 1.19-.28.4-1.69-1.33zM40.72 41.02l.21-.24 1.65 1.37-.33.37-1.53-1.5zM39.43 42.15l.24-.22 1.49 1.54-.36.32-1.37-1.64zM38.04 43.13l.26-.19 1.33 1.68-.4.29-1.19-1.78zM36.55 43.97l.28-.17 1.14 1.81-.42.25-1-1.89zM34.98 44.64l.3-.13.95 1.92-.45.2-.8-1.99zM33.35 45.14l.31-.1.74 2.01-.46.15-.59-2.06zM31.68 45.48l.32-.07.52 2.07-.47.11-.37-2.11zM29.98 45.63l.15 2.14.48-.05-.3-2.12-.33.03zM28.28 45.61l-.08 2.14h.48l-.08-2.14h-.32zM26.58 45.41l.33.03-.15 2.14-.48-.06.3-2.11zM24.92 45.03l.32.07-.37 2.11-.47-.11.52-2.07zM23.3 44.48l.31.1-.58 2.06-.46-.15.73-2.01zM21.75 43.77l.3.13-.79 1.99-.45-.2.94-1.92zM20.29 42.89l.28.17-1 1.89-.42-.24 1.14-1.82zM18.92 41.87l.27.2L18 43.84l-.4-.28 1.32-1.69zM17.67 40.72l.24.22-1.37 1.64-.36-.33 1.49-1.53zM16.55 39.43l.22.25-1.54 1.49-.33-.37 1.65-1.37zM15.56 38.04l.2.26-1.69 1.33-.28-.4 1.77-1.19zM14.73 36.55l.16.29-1.81 1.13-.24-.42 1.89-1zM14.06 34.98l.13.3-1.92.95-.2-.45 1.99-.8zM13.55 33.35l.1.32-2.01.73-.15-.46 2.06-.59zM13.22 31.68l.07.32-2.08.52-.1-.47 2.11-.37zM10.93 30.13l.05.48 2.12-.3-.04-.33-2.13.15zM10.95 28.68l2.14-.07v-.33l-2.14-.08v.48zM13.29 26.58l-.04.33-2.13-.14.05-.49 2.12.3zM13.66 24.92l-.06.32-2.11-.37.1-.47 2.07.52zM14.21 23.3l-.1.31-2.05-.58.15-.46 2 .73zM14.93 21.75l-.14.3-1.98-.79.2-.45 1.92.94zM15.8 20.29l-.16.28-1.89-1 .24-.42 1.81 1.14zM16.82 18.92l-.19.27L14.85 18l.29-.4 1.68 1.32zM17.98 17.67l-.22.24-1.64-1.37.33-.36 1.53 1.49zM19.26 16.55l-.24.22-1.49-1.54.36-.33 1.37 1.65zM20.66 15.56l-.27.2-1.32-1.69.4-.28 1.19 1.77zM22.15 14.73l-.29.16-1.14-1.81.43-.24 1 1.89zM23.71 14.06l-.3.13-.94-1.92.45-.2.79 1.99zM25.34 13.55l-.31.1-.74-2.01.47-.15.58 2.06zM27.02 13.22l-.32.07-.53-2.08.48-.1.37 2.11zM28.57 10.93l-.48.05.3 2.12.32-.04-.14-2.13zM30.01 10.95l.08 2.14h.33l.08-2.14h-.49z"/><path class="cls-1" d="M168.92 791.19a20.9 20.9 0 1020.9 20.9 20.9 20.9 0 00-20.9-20.9zm0 38.6a17.7 17.7 0 1117.7-17.7 17.7 17.7 0 01-17.7 17.71z" transform="translate(-139.58 -636.31)"/><path class="cls-1" d="M31.32 164.35l-.23-.02.1-1.52.35.03-.22 1.51zM32.5 164.62l-.23-.05.26-1.5.35.07-.38 1.48zM33.65 165.01l-.22-.07.42-1.47.33.11-.53 1.43zM34.76 165.52l-.22-.09.57-1.42.32.14-.67 1.37zM35.8 166.14l-.2-.12.71-1.34.3.17-.81 1.29zM36.77 166.87l-.19-.14.85-1.26.29.2-.95 1.2zM37.67 167.69l-.18-.15.98-1.17.26.23-1.06 1.09zM38.47 168.61l-.16-.18 1.09-1.06.24.26-1.17.98zM39.17 169.6l-.14-.19 1.2-.94.2.28-1.26.85zM39.76 170.66l-.12-.2 1.29-.81.18.3-1.35.71zM40.24 171.78l-.09-.22 1.36-.67.14.32-1.41.57zM40.6 172.94l-.07-.22 1.43-.53.1.33-1.46.42zM40.84 174.13l-.05-.23 1.47-.37.08.34-1.5.26zM40.92 175.11l.03.23 1.52-.1-.04-.35-1.51.22zM40.93 176.32v.23l1.52.06v-.35l-1.52.06zM40.79 177.76l.02-.23 1.52.1-.03.35-1.51-.22zM40.52 178.94l.05-.22 1.5.26-.07.34-1.48-.38zM40.13 180.1l.07-.23 1.46.42-.1.33-1.43-.52zM39.62 181.2l.09-.21 1.42.56-.14.32-1.37-.67zM39 182.24l.11-.2 1.35.71-.17.3-1.29-.81zM38.27 183.22l.14-.19 1.26.85-.2.28-1.2-.94zM37.45 184.11l.15-.18 1.17.98-.23.26-1.09-1.06zM36.53 184.91l.17-.16 1.07 1.1-.26.23-.98-1.17zM35.54 185.61l.19-.14.94 1.2-.28.2-.85-1.26zM34.48 186.2l.2-.11.81 1.29-.3.17-.71-1.35zM33.36 186.68l.22-.09.67 1.36-.32.15-.57-1.42zM32.2 187.04l.22-.07.53 1.43-.33.11-.42-1.47zM31.01 187.28l.23-.05.37 1.48-.34.07-.26-1.5zM29.8 187.39l.1 1.52.35-.04-.22-1.51-.23.03zM28.59 187.37l-.06 1.52h.35l-.06-1.52h-.23zM27.38 187.23l.23.02-.1 1.52-.35-.03.22-1.51zM26.19 186.96l.23.05-.26 1.5-.34-.07.37-1.48zM25.04 186.57l.23.07-.42 1.47-.33-.11.52-1.43zM23.94 186.06l.21.1-.56 1.41-.32-.14.67-1.37zM22.9 185.44l.2.12-.71 1.34-.3-.17.81-1.29zM21.92 184.71l.19.14-.85 1.26-.28-.2.94-1.2zM21.03 183.89l.17.15-.97 1.17-.26-.23 1.06-1.09zM20.23 182.97l.16.18-1.1 1.06-.23-.26 1.17-.98zM19.53 181.98l.14.19-1.2.94-.21-.28 1.27-.85zM18.94 180.92l.11.2-1.29.81-.17-.3 1.35-.71zM18.46 179.8l.09.22-1.37.67-.14-.32 1.42-.57zM18.1 178.64l.07.22-1.43.53-.11-.33 1.47-.42zM17.86 177.45l.05.23-1.48.37-.07-.34 1.5-.26zM16.23 176.34l.04.35 1.5-.22-.02-.23-1.52.1zM16.24 175.32l1.53-.06v-.23l-1.53-.06v.35zM17.91 173.82l-.02.23-1.53-.1.04-.35 1.51.22zM18.18 172.63l-.05.23-1.5-.26.07-.34 1.48.37zM18.57 171.48l-.07.23-1.47-.42.11-.33 1.43.52zM19.08 170.38l-.1.21-1.41-.56.14-.32 1.37.67zM19.7 169.34l-.12.2-1.34-.71.17-.3 1.29.81zM20.43 168.37l-.14.18-1.27-.84.21-.29 1.2.95zM21.25 167.47l-.15.18-1.17-.98.23-.26 1.09 1.06zM22.17 166.67l-.18.16-1.06-1.09.26-.24.98 1.17zM23.16 165.97l-.19.14-.94-1.2.28-.2.85 1.26zM24.22 165.38l-.2.12-.81-1.3.3-.17.71 1.35zM25.34 164.9l-.22.09-.67-1.36.32-.15.57 1.42zM26.5 164.54l-.23.07-.52-1.43.33-.11.42 1.47zM27.69 164.3l-.23.05-.37-1.48.34-.07.26 1.5zM28.79 162.67l-.34.04.21 1.51.24-.03-.11-1.52zM29.82 162.69l.06 1.52h.23l.06-1.52h-.35zM144.94 56.18l-.87-.09.39-5.66 1.28.14-.8 5.61zM149.35 57.18l-.85-.18.97-5.58 1.26.26-1.38 5.5zM153.63 58.64l-.83-.27 1.55-5.46 1.23.4-1.95 5.33zM157.73 60.53l-.79-.35 2.11-5.27 1.18.53-2.5 5.09zM161.62 62.84l-.75-.43 2.64-5.01 1.13.64-3.02 4.8zM165.24 65.55l-.7-.51 3.16-4.71 1.04.76-3.5 4.46zM168.56 68.62l-.65-.58 3.64-4.35.96.86-3.95 4.07zM171.54 72.02l-.58-.64 4.07-3.95.86.96-4.35 3.63zM174.15 75.72l-.51-.71 4.46-3.5.76 1.05-4.71 3.16zM176.36 79.66l-.44-.75 4.8-3.02.65 1.12-5.01 2.65zM178.14 83.81l-.35-.79 5.09-2.5.52 1.18-5.26 2.11zM179.48 88.14l-.27-.83 5.32-1.96.4 1.24-5.45 1.55zM180.36 92.57l-.18-.85 5.5-1.39.26 1.27-5.58.97zM180.68 96.21l.09.86 5.66-.38-.14-1.29-5.61.81zM180.71 100.72v.87l5.67.22v-1.3l-5.67.21zM180.18 106.08l.09-.86 5.66.38-.14 1.29-5.61-.81zM179.18 110.49l.18-.85 5.58.97-.27 1.27-5.49-1.39zM177.72 114.77l.27-.82 5.45 1.55-.4 1.23-5.32-1.96zM175.83 118.88l.35-.79 5.26 2.1-.52 1.19-5.09-2.5zM173.51 122.77l.44-.76 5.01 2.65-.65 1.12-4.8-3.01zM170.81 126.38l.51-.69 4.71 3.15-.76 1.05-4.46-3.51zM167.74 129.7l.58-.64 4.35 3.63-.86.97-4.07-3.96zM164.34 132.68l.64-.58 3.95 4.07-.96.87-3.63-4.36zM160.64 135.29l.71-.51 3.5 4.46-1.05.76-3.16-4.71zM156.7 137.5l.75-.44 3.02 4.81-1.13.64-2.64-5.01zM152.54 139.28l.8-.35 2.5 5.09-1.19.53-2.11-5.27zM148.22 140.62l.83-.26 1.95 5.32-1.23.4-1.55-5.46zM143.79 141.5l.85-.18 1.39 5.5-1.27.27-.97-5.59zM139.28 141.91l.39 5.66 1.28-.13-.8-5.62-.87.09zM134.77 141.85l-.22 5.67h1.3l-.22-5.67h-.86zM130.28 141.32l.86.09-.38 5.66-1.29-.14.81-5.61zM125.86 140.32l.86.18-.97 5.59-1.27-.27 1.38-5.5zM121.58 138.87l.83.27-1.55 5.45-1.23-.4 1.95-5.32zM117.48 136.97l.79.36-2.11 5.26-1.18-.53 2.5-5.09zM113.59 134.66l.76.44-2.65 5-1.12-.64 3.01-4.8zM109.97 131.95l.7.51-3.15 4.71-1.05-.76 3.5-4.46zM106.65 128.88l.65.58-3.63 4.35-.97-.86 3.95-4.07zM103.67 125.48l.58.65-4.06 3.95-.87-.96 4.35-3.64zM101.06 121.79l.52.7-4.46 3.5-.76-1.05 4.7-3.15zM98.86 117.84l.43.75-4.8 3.02-.65-1.12 5.02-2.65zM97.07 113.69l.36.79-5.09 2.5-.53-1.18 5.26-2.11zM95.73 109.37l.27.82-5.32 1.96-.4-1.23 5.45-1.55zM94.85 104.93l.18.85-5.49 1.39-.27-1.26 5.58-.98zM88.78 100.81l.14 1.29 5.61-.8-.09-.87-5.66.38zM88.84 96.99l5.66-.21v-.87l-5.66-.22v1.3zM95.04 91.42l-.1.86-5.65-.38.13-1.29 5.62.81zM96.03 87.01l-.18.85-5.58-.97.27-1.26 5.49 1.38zM97.49 82.73l-.27.83-5.45-1.55.4-1.24 5.32 1.96zM99.39 78.62l-.36.8-5.26-2.11.53-1.19 5.09 2.5zM101.7 74.74l-.44.75-5.01-2.65.65-1.12 4.8 3.02zM104.41 71.12l-.52.7-4.7-3.16.75-1.05 4.47 3.51zM107.48 67.8l-.59.64-4.35-3.63.87-.96 4.07 3.95zM110.88 64.82l-.65.58-3.95-4.07.96-.86 3.64 4.35zM114.57 62.21l-.71.51-3.5-4.46 1.05-.76 3.16 4.71zM118.52 60l-.76.44-3.01-4.8 1.12-.65 2.65 5.01zM122.67 58.22l-.79.35-2.5-5.09 1.18-.53 2.11 5.27zM126.99 56.88l-.83.27-1.95-5.32 1.23-.41 1.55 5.46zM131.43 56l-.86.18-1.38-5.5 1.27-.27.97 5.59zM135.54 49.93l-1.28.13.8 5.62.87-.09-.39-5.66zM139.37 49.98l.21 5.67h.87l.21-5.67h-1.29z"/><path class="cls-1" d="M277.18 675.48a59.58 59.58 0 1059.57 59.57 59.57 59.57 0 00-59.57-59.57zm0 116.36A56.78 56.78 0 11334 735.06a56.78 56.78 0 01-56.82 56.78zM195.25 680.28a.79.79 0 01-.47-.15l-.32-.24a.79.79 0 11.94-1.27l.32.24a.79.79 0 01-.47 1.42z" transform="translate(-139.58 -636.31)"/><path class="cls-1" d="M225.61 702.69a.79.79 0 01-.47-.15l-.61-.45a.79.79 0 01.94-1.27l.61.45a.79.79 0 01-.47 1.42zm-3-2.24a.79.79 0 01-.47-.16l-.61-.45a.79.79 0 11.94-1.27l.53.43a.79.79 0 01-.42 1.45zm-3-2.24a.78.78 0 01-.47-.15l-.61-.45a.79.79 0 11.94-1.27l.61.45a.79.79 0 01-.54 1.41zm-3-2.24a.79.79 0 01-.47-.15l-.61-.45a.79.79 0 01.94-1.27l.61.45a.79.79 0 01-.57 1.45zm-3-2.24a.79.79 0 01-.47-.15l-.61-.45a.79.79 0 01.94-1.27l.61.45a.79.79 0 01-.61 1.41zm-3-2.24a.79.79 0 01-.47-.16l-.61-.45a.79.79 0 11.94-1.27l.61.45a.79.79 0 01-.65 1.42zm-3-2.24a.79.79 0 01-.47-.15l-.61-.45a.79.79 0 11.94-1.27l.61.45a.79.79 0 01-.68 1.41zm-3-2.24a.79.79 0 01-.47-.15l-.61-.45a.79.79 0 01.94-1.27l.61.45a.79.79 0 01-.72 1.41zm-3-2.24a.79.79 0 01-.47-.16l-.61-.45a.79.79 0 11.94-1.27l.61.45a.79.79 0 01-.76 1.42zm-3-2.24a.78.78 0 01-.47-.15l-.61-.45a.79.79 0 01.94-1.27l.61.45a.79.79 0 01-.79 1.41zM228.36 704.71a.78.78 0 01-.47-.15l-.32-.23a.79.79 0 01.94-1.27l.32.23a.79.79 0 01-.47 1.42zM185.32 803.83a.79.79 0 01-.47-1.42l.32-.24a.79.79 0 01.94 1.27l-.32.24a.79.79 0 01-.47.15zM188.21 801.67a.79.79 0 01-.47-1.42l.64-.48a.79.79 0 01.95 1.27l-.64.48a.79.79 0 01-.48.15zm3.21-2.4a.79.79 0 01-.47-1.42l.64-.48a.79.79 0 11.95 1.27l-.64.48a.79.79 0 01-.48.15zm3.21-2.4a.79.79 0 01-.47-1.42l.64-.48a.79.79 0 11.95 1.27l-.64.48a.79.79 0 01-.48.16zm3.21-2.4a.79.79 0 01-.47-1.42l.64-.48a.79.79 0 01.95 1.27l-.64.48a.79.79 0 01-.47.16zm3.21-2.4a.79.79 0 01-.47-1.42l.64-.48a.79.79 0 11.95 1.27l-.64.48a.79.79 0 01-.47.16zm3.21-2.4a.79.79 0 01-.47-1.42l.64-.48a.79.79 0 11.95 1.27l-.64.48a.78.78 0 01-.47.16zm3.21-2.4a.79.79 0 01-.47-1.42l.64-.48a.79.79 0 11.95 1.27l-.64.48a.79.79 0 01-.47.16zm3.21-2.4a.79.79 0 01-.47-1.42l.64-.48a.79.79 0 11.95 1.27l-.64.48a.78.78 0 01-.46.17zm3.21-2.4a.79.79 0 01-.47-1.42l.64-.48a.79.79 0 01.95 1.27l-.64.48a.79.79 0 01-.46.17zm3.21-2.4a.79.79 0 01-.47-1.42l.64-.48a.79.79 0 01.95 1.27l-.64.48a.78.78 0 01-.46.17zm3.21-2.4a.79.79 0 01-.47-1.42l.64-.48a.79.79 0 01.95 1.27l-.64.48a.79.79 0 01-.45.17zm3.21-2.4a.79.79 0 01-.47-1.42l.64-.48a.79.79 0 01.95 1.27l-.64.48a.79.79 0 01-.45.17zm3.21-2.4a.79.79 0 01-.47-1.42l.64-.48a.79.79 0 01.95 1.27l-.64.48a.79.79 0 01-.45.18zM230 770.5a.79.79 0 01-.47-1.42l.32-.24a.79.79 0 11.95 1.27l-.32.24a.79.79 0 01-.48.15z" transform="translate(-139.58 -636.31)"/></svg>