<svg preserveAspectRatio="none" id="Layer_1" data-name="Layer 1" xmlns="http://www.w3.org/2000/svg" viewBox="0 0 11.43 10.18"><defs><style>.cls-1{fill:#0bcddd;}</style></defs><title>shape8</title><path class="cls-1" d="M442.47,241.78a0.18,0.18,0,0,1,.13-0.07l5.54-.23a0.19,0.19,0,0,1,.16.09l3,4.68a0.18,0.18,0,0,1,0,.18l-2.57,4.91a0.19,0.19,0,0,1-.15.1l-5.54.23a0.19,0.19,0,0,1-.16-0.09l-3-4.68a0.18,0.18,0,0,1,0-.18l2.57-4.91Zm5.58,0.07-5.33.21-2.47,4.73,2.85,4.51,5.33-.22,2.48-4.72Zm-8,4.95h0Z" transform="translate(-439.86 -241.49)"/><path class="cls-1" d="M444,244.11l2.91-.12,1.56,2.46L447.13,249l-2.91.12-1.56-2.47Zm2.72,0.25-2.5.1-1.16,2.22,1.33,2.11,2.5-.1,1.17-2.22Z" transform="translate(-439.86 -241.49)"/><polygon class="cls-1" points="4.48 5.14 5.14 6.18 6.38 6.13 6.95 5.04 6.29 3.99 5.06 4.05 4.48 5.14"/></svg>