<svg preserveAspectRatio="none" id="Layer_1" data-name="Layer 1" xmlns="http://www.w3.org/2000/svg" viewBox="0 0 12.97 12.97"><defs><style>.cls-1{fill:#00b4e9;}</style></defs><title>shape49</title><path class="cls-1" d="M224.3,91.76l1.52-1.52-1.52-1.52-1.52,1.52Zm0.92-1.52-0.92.92-0.91-.92,0.91-.92Z" transform="translate(-222.78 -83.84)"/><path class="cls-1" d="M226.88,87.83V85.68h-2.14v2.14h2.14Zm-1.72-.42V86.11h1.29V87.4h-1.3Z" transform="translate(-222.78 -83.84)"/><path class="cls-1" d="M229.35,86.87l1.52-1.52-1.52-1.52-1.52,1.52Zm0-2.43,0.92,0.92-0.92.92-0.92-.92Z" transform="translate(-222.78 -83.84)"/><path class="cls-1" d="M231.77,87.94h2.14V85.8h-2.14v2.14Zm1.72-1.72v1.29h-1.29v-1.3h1.29Z" transform="translate(-222.78 -83.84)"/><path class="cls-1" d="M234.23,91.92l1.52-1.52-1.52-1.52-1.52,1.52Zm0-2.43,0.92,0.92-0.92.92-0.92-.92Z" transform="translate(-222.78 -83.84)"/><path class="cls-1" d="M233.79,95V92.82h-2.14V95h2.14Zm-1.72-1.72h1.29v1.29h-1.29V93.25Z" transform="translate(-222.78 -83.84)"/><path class="cls-1" d="M229.19,96.81l1.52-1.52-1.52-1.52-1.52,1.52Zm0.92-1.52-0.92.92-0.92-.92,0.92-.92Z" transform="translate(-222.78 -83.84)"/><path class="cls-1" d="M226.77,94.85V92.71h-2.14v2.14h2.14ZM225,94.43V93.13h1.29v1.3H225Z" transform="translate(-222.78 -83.84)"/><circle class="cls-1" cx="6.53" cy="6.4" r="1.22"/></svg>