<svg preserveAspectRatio="none" id="Layer_4" data-name="Layer 4" xmlns="http://www.w3.org/2000/svg" viewBox="0 0 38.18 28.23"><defs><style>.cls-2{fill:#03a6ff}.cls-3{fill:#00558d}</style></defs><path transform="rotate(-56.86 -98.738 207.157)" fill="#1ec0ff" d="M126.3 182.04h.6v37.07h-.6z"/><path class="cls-2" d="M33.92 24.64l2.47-1.25 1.26.83-2.47 1.25-.15 2.76-1.26-.83.15-2.76z"/><path class="cls-2" d="M32.13 23.48l2.28-1.16 1.16.77-2.27 1.15-.14 2.54-1.17-.76.14-2.54z"/><path class="cls-2" d="M30.36 22.32l2.06-1.05 1.05.69-2.06 1.05-.12 2.3-1.06-.68.13-2.31zM4.13 3.77l.65-1.01-2.39-.13L0 2.5l1.08 2.14 1.08 2.13.66-1 .48.95.94-1.45.95-1.45-1.06-.05z"/><path class="cls-3" d="M8.47 16.18l.3-.45-1.07-.06-1.07-.06.48.96.49.95.29-.45.48.96.59-.9.58-.89-1.07-.06zM23.63 22.9l.29-.45-1.07-.05-1.07-.06.49.95.48.96.29-.45.48.95.59-.89.59-.9-1.07-.06zM12.94.56l.29-.44-1.07-.06L11.1 0l.48.95.48.96.29-.45.49.96.58-.9.59-.9-1.07-.06zM21.79 11.34l.29-.45-1.07-.06-1.06-.05.48.95.48.95.29-.45.49.96.58-.9.59-.89-1.07-.06zM37.11 15.95l.29-.45-1.07-.05-1.07-.06.49.95.48.96.29-.45.49.95.58-.89.58-.9-1.06-.06z"/></svg>