<svg preserveAspectRatio="none" id="Layer_1" data-name="Layer 1" xmlns="http://www.w3.org/2000/svg" viewBox="0 0 197.18 196.69"><defs><style>.cls-1{fill:#76e5ff;}</style></defs><title>shape17</title><path class="cls-1" d="M168.92,636.31a29.35,29.35,0,1,0,29.35,29.35A29.35,29.35,0,0,0,168.92,636.31Zm0,54.2a24.85,24.85,0,1,1,24.85-24.85A24.85,24.85,0,0,1,168.92,690.51Z" transform="translate(-139.58 -636.31)"/><polygon class="cls-1" points="32.11 13.29 31.79 13.26 31.93 11.12 32.42 11.17 32.11 13.29"/><polygon class="cls-1" points="33.78 13.66 33.46 13.6 33.82 11.49 34.3 11.59 33.78 13.66"/><polygon class="cls-1" points="35.39 14.21 35.08 14.11 35.66 12.06 36.13 12.21 35.39 14.21"/><polygon class="cls-1" points="36.94 14.93 36.64 14.8 37.44 12.81 37.88 13.01 36.94 14.93"/><polygon class="cls-1" points="38.41 15.8 38.12 15.64 39.12 13.75 39.55 13.99 38.41 15.8"/><polygon class="cls-1" points="39.77 16.82 39.51 16.63 40.7 14.85 41.09 15.14 39.77 16.82"/><polygon class="cls-1" points="41.02 17.98 40.78 17.76 42.15 16.12 42.52 16.45 41.02 17.98"/><polygon class="cls-1" points="42.15 19.27 41.93 19.02 43.47 17.53 43.79 17.89 42.15 19.27"/><polygon class="cls-1" points="43.13 20.66 42.94 20.39 44.62 19.07 44.91 19.47 43.13 20.66"/><polygon class="cls-1" points="43.97 22.15 43.8 21.86 45.61 20.73 45.86 21.15 43.97 22.15"/><polygon class="cls-1" points="44.64 23.71 44.51 23.41 46.42 22.47 46.62 22.92 44.64 23.71"/><polygon class="cls-1" points="45.15 25.34 45.04 25.03 47.05 24.3 47.2 24.76 45.15 25.34"/><polygon class="cls-1" points="45.48 27.02 45.41 26.7 47.48 26.17 47.58 26.65 45.48 27.02"/><polygon class="cls-1" points="45.6 28.39 45.63 28.71 47.77 28.57 47.72 28.09 45.6 28.39"/><polygon class="cls-1" points="45.61 30.09 45.61 30.42 47.75 30.5 47.75 30.01 45.61 30.09"/><polygon class="cls-1" points="45.41 32.12 45.44 31.79 47.58 31.93 47.52 32.42 45.41 32.12"/><polygon class="cls-1" points="45.03 33.78 45.1 33.46 47.21 33.82 47.1 34.3 45.03 33.78"/><polygon class="cls-1" points="44.48 35.39 44.58 35.08 46.64 35.67 46.49 36.13 44.48 35.39"/><polygon class="cls-1" points="43.77 36.94 43.9 36.64 45.88 37.44 45.69 37.88 43.77 36.94"/><polygon class="cls-1" points="42.9 38.41 43.06 38.12 44.95 39.12 44.7 39.55 42.9 38.41"/><polygon class="cls-1" points="41.87 39.77 42.07 39.51 43.84 40.7 43.56 41.1 41.87 39.77"/><polygon class="cls-1" points="40.72 41.02 40.93 40.78 42.58 42.15 42.25 42.52 40.72 41.02"/><polygon class="cls-1" points="39.43 42.15 39.67 41.93 41.16 43.47 40.8 43.79 39.43 42.15"/><polygon class="cls-1" points="38.04 43.13 38.3 42.94 39.63 44.62 39.23 44.91 38.04 43.13"/><polygon class="cls-1" points="36.55 43.97 36.83 43.8 37.97 45.61 37.55 45.86 36.55 43.97"/><polygon class="cls-1" points="34.98 44.64 35.28 44.51 36.23 46.43 35.78 46.63 34.98 44.64"/><polygon class="cls-1" points="33.35 45.14 33.66 45.04 34.4 47.05 33.94 47.2 33.35 45.14"/><polygon class="cls-1" points="31.68 45.48 32 45.41 32.52 47.48 32.05 47.59 31.68 45.48"/><polygon class="cls-1" points="29.98 45.63 30.13 47.77 30.61 47.72 30.31 45.6 29.98 45.63"/><polygon class="cls-1" points="28.28 45.61 28.2 47.75 28.68 47.75 28.6 45.61 28.28 45.61"/><polygon class="cls-1" points="26.58 45.41 26.91 45.44 26.76 47.58 26.28 47.52 26.58 45.41"/><polygon class="cls-1" points="24.92 45.03 25.24 45.1 24.87 47.21 24.4 47.1 24.92 45.03"/><polygon class="cls-1" points="23.3 44.48 23.61 44.58 23.03 46.64 22.57 46.49 23.3 44.48"/><polygon class="cls-1" points="21.75 43.77 22.05 43.9 21.26 45.89 20.81 45.69 21.75 43.77"/><polygon class="cls-1" points="20.29 42.89 20.57 43.06 19.57 44.95 19.15 44.71 20.29 42.89"/><polygon class="cls-1" points="18.92 41.87 19.19 42.07 18 43.84 17.6 43.56 18.92 41.87"/><polygon class="cls-1" points="17.67 40.72 17.91 40.94 16.54 42.58 16.18 42.25 17.67 40.72"/><polygon class="cls-1" points="16.55 39.43 16.77 39.68 15.23 41.17 14.9 40.8 16.55 39.43"/><polygon class="cls-1" points="15.56 38.04 15.76 38.3 14.07 39.63 13.79 39.23 15.56 38.04"/><polygon class="cls-1" points="14.73 36.55 14.89 36.84 13.08 37.97 12.84 37.55 14.73 36.55"/><polygon class="cls-1" points="14.06 34.98 14.19 35.28 12.27 36.23 12.07 35.78 14.06 34.98"/><polygon class="cls-1" points="13.55 33.35 13.65 33.67 11.64 34.4 11.49 33.94 13.55 33.35"/><polygon class="cls-1" points="13.22 31.68 13.29 32 11.21 32.52 11.11 32.05 13.22 31.68"/><polygon class="cls-1" points="10.93 30.13 10.98 30.61 13.1 30.31 13.06 29.98 10.93 30.13"/><polygon class="cls-1" points="10.95 28.68 13.09 28.61 13.09 28.28 10.95 28.2 10.95 28.68"/><polygon class="cls-1" points="13.29 26.58 13.25 26.91 11.12 26.77 11.17 26.28 13.29 26.58"/><polygon class="cls-1" points="13.66 24.92 13.6 25.24 11.49 24.87 11.59 24.4 13.66 24.92"/><polygon class="cls-1" points="14.21 23.3 14.11 23.61 12.06 23.03 12.21 22.57 14.21 23.3"/><polygon class="cls-1" points="14.93 21.75 14.79 22.05 12.81 21.26 13.01 20.81 14.93 21.75"/><polygon class="cls-1" points="15.8 20.29 15.64 20.57 13.75 19.57 13.99 19.15 15.8 20.29"/><polygon class="cls-1" points="16.82 18.92 16.63 19.19 14.85 18 15.14 17.6 16.82 18.92"/><polygon class="cls-1" points="17.98 17.67 17.76 17.91 16.12 16.54 16.45 16.18 17.98 17.67"/><polygon class="cls-1" points="19.26 16.55 19.02 16.77 17.53 15.23 17.89 14.9 19.26 16.55"/><polygon class="cls-1" points="20.66 15.56 20.39 15.76 19.07 14.07 19.47 13.79 20.66 15.56"/><polygon class="cls-1" points="22.15 14.73 21.86 14.89 20.72 13.08 21.15 12.84 22.15 14.73"/><polygon class="cls-1" points="23.71 14.06 23.41 14.19 22.47 12.27 22.92 12.07 23.71 14.06"/><polygon class="cls-1" points="25.34 13.55 25.03 13.65 24.29 11.64 24.76 11.49 25.34 13.55"/><polygon class="cls-1" points="27.02 13.22 26.7 13.29 26.17 11.21 26.65 11.11 27.02 13.22"/><polygon class="cls-1" points="28.57 10.93 28.09 10.98 28.39 13.1 28.71 13.06 28.57 10.93"/><polygon class="cls-1" points="30.01 10.95 30.09 13.09 30.42 13.09 30.5 10.95 30.01 10.95"/><path class="cls-1" d="M168.92,791.19a20.9,20.9,0,1,0,20.9,20.9A20.9,20.9,0,0,0,168.92,791.19Zm0,38.6a17.7,17.7,0,1,1,17.7-17.7A17.7,17.7,0,0,1,168.92,829.8Z" transform="translate(-139.58 -636.31)"/><polygon class="cls-1" points="31.32 164.35 31.09 164.33 31.19 162.81 31.54 162.84 31.32 164.35"/><polygon class="cls-1" points="32.5 164.62 32.27 164.57 32.53 163.07 32.88 163.14 32.5 164.62"/><polygon class="cls-1" points="33.65 165.01 33.43 164.94 33.85 163.47 34.18 163.58 33.65 165.01"/><polygon class="cls-1" points="34.76 165.52 34.54 165.43 35.11 164.01 35.43 164.15 34.76 165.52"/><polygon class="cls-1" points="35.8 166.14 35.6 166.02 36.31 164.68 36.61 164.85 35.8 166.14"/><polygon class="cls-1" points="36.77 166.87 36.58 166.73 37.43 165.47 37.72 165.67 36.77 166.87"/><polygon class="cls-1" points="37.67 167.69 37.49 167.54 38.47 166.37 38.73 166.6 37.67 167.69"/><polygon class="cls-1" points="38.47 168.61 38.31 168.43 39.4 167.37 39.64 167.63 38.47 168.61"/><polygon class="cls-1" points="39.17 169.6 39.03 169.41 40.23 168.47 40.43 168.75 39.17 169.6"/><polygon class="cls-1" points="39.76 170.66 39.64 170.46 40.93 169.65 41.11 169.95 39.76 170.66"/><polygon class="cls-1" points="40.24 171.78 40.15 171.56 41.51 170.89 41.65 171.21 40.24 171.78"/><polygon class="cls-1" points="40.6 172.94 40.53 172.72 41.96 172.19 42.06 172.52 40.6 172.94"/><polygon class="cls-1" points="40.84 174.13 40.79 173.9 42.26 173.53 42.34 173.87 40.84 174.13"/><polygon class="cls-1" points="40.92 175.11 40.95 175.34 42.47 175.24 42.43 174.89 40.92 175.11"/><polygon class="cls-1" points="40.93 176.32 40.93 176.55 42.45 176.61 42.45 176.26 40.93 176.32"/><polygon class="cls-1" points="40.79 177.76 40.81 177.53 42.33 177.63 42.3 177.98 40.79 177.76"/><polygon class="cls-1" points="40.52 178.94 40.57 178.72 42.07 178.98 42 179.32 40.52 178.94"/><polygon class="cls-1" points="40.13 180.1 40.2 179.87 41.66 180.29 41.56 180.62 40.13 180.1"/><polygon class="cls-1" points="39.62 181.2 39.71 180.99 41.13 181.55 40.99 181.87 39.62 181.2"/><polygon class="cls-1" points="39 182.24 39.11 182.04 40.46 182.75 40.29 183.05 39 182.24"/><polygon class="cls-1" points="38.27 183.22 38.41 183.03 39.67 183.88 39.47 184.16 38.27 183.22"/><polygon class="cls-1" points="37.45 184.11 37.6 183.93 38.77 184.91 38.54 185.17 37.45 184.11"/><polygon class="cls-1" points="36.53 184.91 36.7 184.75 37.77 185.85 37.51 186.08 36.53 184.91"/><polygon class="cls-1" points="35.54 185.61 35.73 185.47 36.67 186.67 36.39 186.87 35.54 185.61"/><polygon class="cls-1" points="34.48 186.2 34.68 186.09 35.49 187.38 35.19 187.55 34.48 186.2"/><polygon class="cls-1" points="33.36 186.68 33.58 186.59 34.25 187.95 33.93 188.1 33.36 186.68"/><polygon class="cls-1" points="32.2 187.04 32.42 186.97 32.95 188.4 32.62 188.51 32.2 187.04"/><polygon class="cls-1" points="31.01 187.28 31.24 187.23 31.61 188.71 31.27 188.78 31.01 187.28"/><polygon class="cls-1" points="29.8 187.39 29.9 188.91 30.25 188.87 30.03 187.36 29.8 187.39"/><polygon class="cls-1" points="28.59 187.37 28.53 188.89 28.88 188.89 28.82 187.37 28.59 187.37"/><polygon class="cls-1" points="27.38 187.23 27.61 187.25 27.51 188.77 27.16 188.74 27.38 187.23"/><polygon class="cls-1" points="26.19 186.96 26.42 187.01 26.16 188.51 25.82 188.44 26.19 186.96"/><polygon class="cls-1" points="25.04 186.57 25.27 186.64 24.85 188.11 24.52 188 25.04 186.57"/><polygon class="cls-1" points="23.94 186.06 24.15 186.16 23.59 187.57 23.27 187.43 23.94 186.06"/><polygon class="cls-1" points="22.9 185.44 23.1 185.56 22.39 186.9 22.09 186.73 22.9 185.44"/><polygon class="cls-1" points="21.92 184.71 22.11 184.85 21.26 186.11 20.98 185.91 21.92 184.71"/><polygon class="cls-1" points="21.03 183.89 21.2 184.04 20.23 185.21 19.97 184.98 21.03 183.89"/><polygon class="cls-1" points="20.23 182.97 20.39 183.15 19.29 184.21 19.06 183.95 20.23 182.97"/><polygon class="cls-1" points="19.53 181.98 19.67 182.17 18.47 183.11 18.26 182.83 19.53 181.98"/><polygon class="cls-1" points="18.94 180.92 19.05 181.12 17.76 181.93 17.59 181.63 18.94 180.92"/><polygon class="cls-1" points="18.46 179.8 18.55 180.02 17.18 180.69 17.04 180.37 18.46 179.8"/><polygon class="cls-1" points="18.1 178.64 18.17 178.86 16.74 179.39 16.63 179.06 18.1 178.64"/><polygon class="cls-1" points="17.86 177.45 17.91 177.68 16.43 178.05 16.36 177.71 17.86 177.45"/><polygon class="cls-1" points="16.23 176.34 16.27 176.69 17.77 176.47 17.75 176.24 16.23 176.34"/><polygon class="cls-1" points="16.24 175.32 17.77 175.26 17.77 175.03 16.24 174.97 16.24 175.32"/><polygon class="cls-1" points="17.91 173.82 17.89 174.05 16.36 173.95 16.4 173.6 17.91 173.82"/><polygon class="cls-1" points="18.18 172.63 18.13 172.86 16.63 172.6 16.7 172.26 18.18 172.63"/><polygon class="cls-1" points="18.57 171.48 18.5 171.71 17.03 171.29 17.14 170.96 18.57 171.48"/><polygon class="cls-1" points="19.08 170.38 18.98 170.59 17.57 170.03 17.71 169.71 19.08 170.38"/><polygon class="cls-1" points="19.7 169.34 19.58 169.54 18.24 168.83 18.41 168.53 19.7 169.34"/><polygon class="cls-1" points="20.43 168.37 20.29 168.55 19.02 167.71 19.23 167.42 20.43 168.37"/><polygon class="cls-1" points="21.25 167.47 21.1 167.65 19.93 166.67 20.16 166.41 21.25 167.47"/><polygon class="cls-1" points="22.17 166.67 21.99 166.83 20.93 165.74 21.19 165.5 22.17 166.67"/><polygon class="cls-1" points="23.16 165.97 22.97 166.11 22.03 164.91 22.31 164.71 23.16 165.97"/><polygon class="cls-1" points="24.22 165.38 24.02 165.5 23.21 164.2 23.51 164.03 24.22 165.38"/><polygon class="cls-1" points="25.34 164.9 25.12 164.99 24.45 163.63 24.77 163.48 25.34 164.9"/><polygon class="cls-1" points="26.5 164.54 26.27 164.61 25.75 163.18 26.08 163.07 26.5 164.54"/><polygon class="cls-1" points="27.69 164.3 27.46 164.35 27.09 162.87 27.43 162.8 27.69 164.3"/><polygon class="cls-1" points="28.79 162.67 28.45 162.71 28.66 164.22 28.9 164.19 28.79 162.67"/><polygon class="cls-1" points="29.82 162.69 29.88 164.21 30.11 164.21 30.17 162.69 29.82 162.69"/><polygon class="cls-1" points="144.94 56.18 144.07 56.09 144.46 50.43 145.74 50.57 144.94 56.18"/><polygon class="cls-1" points="149.35 57.18 148.5 57 149.47 51.42 150.73 51.68 149.35 57.18"/><polygon class="cls-1" points="153.63 58.64 152.8 58.37 154.35 52.91 155.58 53.31 153.63 58.64"/><polygon class="cls-1" points="157.73 60.53 156.94 60.18 159.05 54.91 160.23 55.44 157.73 60.53"/><polygon class="cls-1" points="161.62 62.84 160.87 62.41 163.51 57.4 164.64 58.04 161.62 62.84"/><polygon class="cls-1" points="165.24 65.55 164.54 65.04 167.7 60.33 168.74 61.09 165.24 65.55"/><polygon class="cls-1" points="168.56 68.62 167.91 68.04 171.55 63.69 172.51 64.55 168.56 68.62"/><polygon class="cls-1" points="171.54 72.02 170.96 71.38 175.03 67.43 175.89 68.39 171.54 72.02"/><polygon class="cls-1" points="174.15 75.72 173.64 75.01 178.1 71.51 178.86 72.56 174.15 75.72"/><polygon class="cls-1" points="176.36 79.66 175.92 78.91 180.72 75.89 181.37 77.01 176.36 79.66"/><polygon class="cls-1" points="178.14 83.81 177.79 83.02 182.88 80.52 183.4 81.7 178.14 83.81"/><polygon class="cls-1" points="179.48 88.14 179.21 87.31 184.53 85.35 184.93 86.59 179.48 88.14"/><polygon class="cls-1" points="180.36 92.57 180.18 91.72 185.68 90.33 185.94 91.6 180.36 92.57"/><polygon class="cls-1" points="180.68 96.21 180.77 97.07 186.43 96.69 186.29 95.4 180.68 96.21"/><polygon class="cls-1" points="180.71 100.72 180.71 101.59 186.38 101.81 186.38 100.51 180.71 100.72"/><polygon class="cls-1" points="180.18 106.08 180.27 105.22 185.93 105.6 185.79 106.89 180.18 106.08"/><polygon class="cls-1" points="179.18 110.49 179.36 109.64 184.94 110.61 184.67 111.88 179.18 110.49"/><polygon class="cls-1" points="177.72 114.77 177.99 113.95 183.44 115.5 183.04 116.73 177.72 114.77"/><polygon class="cls-1" points="175.83 118.88 176.18 118.09 181.44 120.19 180.92 121.38 175.83 118.88"/><polygon class="cls-1" points="173.51 122.77 173.95 122.01 178.96 124.66 178.31 125.78 173.51 122.77"/><polygon class="cls-1" points="170.81 126.38 171.32 125.69 176.03 128.84 175.27 129.89 170.81 126.38"/><polygon class="cls-1" points="167.74 129.7 168.32 129.06 172.67 132.69 171.81 133.66 167.74 129.7"/><polygon class="cls-1" points="164.34 132.68 164.98 132.1 168.93 136.17 167.97 137.04 164.34 132.68"/><polygon class="cls-1" points="160.64 135.29 161.35 134.78 164.85 139.24 163.8 140 160.64 135.29"/><polygon class="cls-1" points="156.7 137.5 157.45 137.06 160.47 141.87 159.34 142.51 156.7 137.5"/><polygon class="cls-1" points="152.54 139.28 153.34 138.93 155.84 144.02 154.65 144.55 152.54 139.28"/><polygon class="cls-1" points="148.22 140.62 149.05 140.36 151 145.68 149.77 146.08 148.22 140.62"/><polygon class="cls-1" points="143.79 141.5 144.64 141.32 146.03 146.82 144.76 147.09 143.79 141.5"/><polygon class="cls-1" points="139.28 141.91 139.67 147.57 140.95 147.44 140.15 141.82 139.28 141.91"/><polygon class="cls-1" points="134.77 141.85 134.55 147.52 135.85 147.52 135.63 141.85 134.77 141.85"/><polygon class="cls-1" points="130.28 141.32 131.14 141.41 130.76 147.07 129.47 146.93 130.28 141.32"/><polygon class="cls-1" points="125.86 140.32 126.72 140.5 125.75 146.09 124.48 145.82 125.86 140.32"/><polygon class="cls-1" points="121.58 138.87 122.41 139.14 120.86 144.59 119.63 144.19 121.58 138.87"/><polygon class="cls-1" points="117.48 136.97 118.27 137.33 116.16 142.59 114.98 142.06 117.48 136.97"/><polygon class="cls-1" points="113.59 134.66 114.35 135.1 111.7 140.1 110.58 139.46 113.59 134.66"/><polygon class="cls-1" points="109.97 131.95 110.67 132.46 107.52 137.17 106.47 136.41 109.97 131.95"/><polygon class="cls-1" points="106.65 128.88 107.3 129.46 103.67 133.81 102.7 132.95 106.65 128.88"/><polygon class="cls-1" points="103.67 125.48 104.25 126.13 100.19 130.08 99.32 129.12 103.67 125.48"/><polygon class="cls-1" points="101.06 121.79 101.58 122.49 97.12 125.99 96.36 124.94 101.06 121.79"/><polygon class="cls-1" points="98.86 117.84 99.29 118.59 94.49 121.61 93.84 120.49 98.86 117.84"/><polygon class="cls-1" points="97.07 113.69 97.43 114.48 92.34 116.98 91.81 115.8 97.07 113.69"/><polygon class="cls-1" points="95.73 109.37 96 110.19 90.68 112.15 90.28 110.92 95.73 109.37"/><polygon class="cls-1" points="94.85 104.93 95.03 105.78 89.54 107.17 89.27 105.91 94.85 104.93"/><polygon class="cls-1" points="88.78 100.81 88.92 102.1 94.53 101.3 94.44 100.43 88.78 100.81"/><polygon class="cls-1" points="88.84 96.99 94.5 96.78 94.5 95.91 88.84 95.69 88.84 96.99"/><polygon class="cls-1" points="95.04 91.42 94.94 92.28 89.29 91.9 89.42 90.61 95.04 91.42"/><polygon class="cls-1" points="96.03 87.01 95.85 87.86 90.27 86.89 90.54 85.63 96.03 87.01"/><polygon class="cls-1" points="97.49 82.73 97.22 83.56 91.77 82.01 92.17 80.77 97.49 82.73"/><polygon class="cls-1" points="99.39 78.62 99.03 79.42 93.77 77.31 94.3 76.12 99.39 78.62"/><polygon class="cls-1" points="101.7 74.74 101.26 75.49 96.25 72.84 96.9 71.72 101.7 74.74"/><polygon class="cls-1" points="104.41 71.12 103.89 71.82 99.19 68.66 99.94 67.61 104.41 71.12"/><polygon class="cls-1" points="107.48 67.8 106.89 68.44 102.54 64.81 103.41 63.85 107.48 67.8"/><polygon class="cls-1" points="110.88 64.82 110.23 65.4 106.28 61.33 107.24 60.47 110.88 64.82"/><polygon class="cls-1" points="114.57 62.21 113.86 62.72 110.36 58.26 111.41 57.5 114.57 62.21"/><polygon class="cls-1" points="118.52 60 117.76 60.44 114.75 55.64 115.87 54.99 118.52 60"/><polygon class="cls-1" points="122.67 58.22 121.88 58.57 119.38 53.48 120.56 52.95 122.67 58.22"/><polygon class="cls-1" points="126.99 56.88 126.16 57.15 124.21 51.83 125.44 51.42 126.99 56.88"/><polygon class="cls-1" points="131.43 56 130.57 56.18 129.19 50.68 130.46 50.41 131.43 56"/><polygon class="cls-1" points="135.54 49.93 134.26 50.06 135.06 55.68 135.93 55.59 135.54 49.93"/><polygon class="cls-1" points="139.37 49.98 139.58 55.65 140.45 55.65 140.66 49.98 139.37 49.98"/><path class="cls-1" d="M277.18,675.48a59.58,59.58,0,1,0,59.57,59.57A59.57,59.57,0,0,0,277.18,675.48Zm0,116.36A56.78,56.78,0,1,1,334,735.06,56.78,56.78,0,0,1,277.18,791.84Z" transform="translate(-139.58 -636.31)"/><path class="cls-1" d="M195.25,680.28a0.79,0.79,0,0,1-.47-0.15l-0.32-.24a0.79,0.79,0,1,1,.94-1.27l0.32,0.24A0.79,0.79,0,0,1,195.25,680.28Z" transform="translate(-139.58 -636.31)"/><path class="cls-1" d="M225.61,702.69a0.79,0.79,0,0,1-.47-0.15l-0.61-.45a0.79,0.79,0,0,1,.94-1.27l0.61,0.45A0.79,0.79,0,0,1,225.61,702.69Zm-3-2.24a0.79,0.79,0,0,1-.47-0.16l-0.61-.45a0.79,0.79,0,1,1,.94-1.27L223,699A0.79,0.79,0,0,1,222.58,700.45Zm-3-2.24a0.78,0.78,0,0,1-.47-0.15l-0.61-.45a0.79,0.79,0,1,1,.94-1.27l0.61,0.45A0.79,0.79,0,0,1,219.54,698.2Zm-3-2.24a0.79,0.79,0,0,1-.47-0.15l-0.61-.45a0.79,0.79,0,0,1,.94-1.27l0.61,0.45A0.79,0.79,0,0,1,216.51,696Zm-3-2.24a0.79,0.79,0,0,1-.47-0.15l-0.61-.45a0.79,0.79,0,0,1,.94-1.27l0.61,0.45A0.79,0.79,0,0,1,213.47,693.72Zm-3-2.24a0.79,0.79,0,0,1-.47-0.16l-0.61-.45a0.79,0.79,0,1,1,.94-1.27l0.61,0.45A0.79,0.79,0,0,1,210.43,691.48Zm-3-2.24a0.79,0.79,0,0,1-.47-0.15l-0.61-.45a0.79,0.79,0,1,1,.94-1.27l0.61,0.45A0.79,0.79,0,0,1,207.4,689.24Zm-3-2.24a0.79,0.79,0,0,1-.47-0.15l-0.61-.45a0.79,0.79,0,0,1,.94-1.27l0.61,0.45A0.79,0.79,0,0,1,204.36,687Zm-3-2.24a0.79,0.79,0,0,1-.47-0.16l-0.61-.45a0.79,0.79,0,1,1,.94-1.27l0.61,0.45A0.79,0.79,0,0,1,201.32,684.76Zm-3-2.24a0.78,0.78,0,0,1-.47-0.15l-0.61-.45a0.79,0.79,0,0,1,.94-1.27l0.61,0.45A0.79,0.79,0,0,1,198.29,682.52Z" transform="translate(-139.58 -636.31)"/><path class="cls-1" d="M228.36,704.71a0.78,0.78,0,0,1-.47-0.15l-0.32-.23a0.79,0.79,0,0,1,.94-1.27l0.32,0.23A0.79,0.79,0,0,1,228.36,704.71Z" transform="translate(-139.58 -636.31)"/><path class="cls-1" d="M185.32,803.83a0.79,0.79,0,0,1-.47-1.42l0.32-.24a0.79,0.79,0,0,1,.94,1.27l-0.32.24A0.79,0.79,0,0,1,185.32,803.83Z" transform="translate(-139.58 -636.31)"/><path class="cls-1" d="M188.21,801.67a0.79,0.79,0,0,1-.47-1.42l0.64-.48a0.79,0.79,0,0,1,.95,1.27l-0.64.48A0.79,0.79,0,0,1,188.21,801.67Zm3.21-2.4a0.79,0.79,0,0,1-.47-1.42l0.64-.48a0.79,0.79,0,1,1,.95,1.27l-0.64.48A0.79,0.79,0,0,1,191.42,799.27Zm3.21-2.4a0.79,0.79,0,0,1-.47-1.42l0.64-.48a0.79,0.79,0,1,1,.95,1.27l-0.64.48A0.79,0.79,0,0,1,194.63,796.88Zm3.21-2.4a0.79,0.79,0,0,1-.47-1.42l0.64-.48a0.79,0.79,0,0,1,.95,1.27l-0.64.48A0.79,0.79,0,0,1,197.85,794.48Zm3.21-2.4a0.79,0.79,0,0,1-.47-1.42l0.64-.48a0.79,0.79,0,1,1,.95,1.27l-0.64.48A0.79,0.79,0,0,1,201.06,792.08Zm3.21-2.4a0.79,0.79,0,0,1-.47-1.42l0.64-.48a0.79,0.79,0,1,1,.95,1.27l-0.64.48A0.78,0.78,0,0,1,204.27,789.68Zm3.21-2.4a0.79,0.79,0,0,1-.47-1.42l0.64-.48a0.79,0.79,0,1,1,.95,1.27l-0.64.48A0.79,0.79,0,0,1,207.48,787.28Zm3.21-2.4a0.79,0.79,0,0,1-.47-1.42l0.64-.48a0.79,0.79,0,1,1,.95,1.27l-0.64.48A0.78,0.78,0,0,1,210.7,784.89Zm3.21-2.4a0.79,0.79,0,0,1-.47-1.42l0.64-.48a0.79,0.79,0,0,1,.95,1.27l-0.64.48A0.79,0.79,0,0,1,213.91,782.49Zm3.21-2.4a0.79,0.79,0,0,1-.47-1.42l0.64-.48a0.79,0.79,0,0,1,.95,1.27l-0.64.48A0.78,0.78,0,0,1,217.12,780.09Zm3.21-2.4a0.79,0.79,0,0,1-.47-1.42l0.64-.48a0.79,0.79,0,0,1,.95,1.27l-0.64.48A0.79,0.79,0,0,1,220.34,777.69Zm3.21-2.4a0.79,0.79,0,0,1-.47-1.42l0.64-.48a0.79,0.79,0,0,1,.95,1.27l-0.64.48A0.79,0.79,0,0,1,223.55,775.29Zm3.21-2.4a0.79,0.79,0,0,1-.47-1.42l0.64-.48a0.79,0.79,0,0,1,.95,1.27l-0.64.48A0.79,0.79,0,0,1,226.76,772.9Z" transform="translate(-139.58 -636.31)"/><path class="cls-1" d="M230,770.5a0.79,0.79,0,0,1-.47-1.42l0.32-.24a0.79,0.79,0,1,1,.95,1.27l-0.32.24A0.79,0.79,0,0,1,230,770.5Z" transform="translate(-139.58 -636.31)"/></svg>