<svg preserveAspectRatio="none" id="Layer_1" data-name="Layer 1" xmlns="http://www.w3.org/2000/svg" viewBox="0 0 379.46 54.24"><defs><style>.cls-1{fill:#08b3ea;}.cls-2{fill:#ff6d00;}.cls-3{fill:#76e5ff;}</style></defs><title>shape16</title><path class="cls-1" d="M451.77,166h-1l0-2h1Zm4.07-.06-0.08-2,1,0,0.1,2Zm-9.16-.14-1-.08,0.16-2,1,0.08Zm14.24-.21-0.2-2,1-.1,0.22,2Zm-19.3-.29-1-.14,0.28-2,1,0.13ZM466,164.9l-0.31-2,1-.16,0.33,2Zm-29.37-.45-1-.2,0.4-2,1,0.19ZM471,164l-0.42-2,1-.22,0.45,1.95Zm-39.33-.6-1-.25,0.5-1.94,1,0.25Zm44.27-.62-0.54-1.93,1-.27,0.55,1.92ZM426.74,162l-1-.3,0.6-1.91,0.95,0.29Zm54-.76-0.64-1.89,0.95-.32,0.65,1.89Zm-58.84-.83-1-.34,0.68-1.88,0.94,0.34Zm63.61-.92-0.74-1.86,0.93-.37,0.76,1.85Zm-68.35-.87-0.94-.38,0.76-1.85,0.93,0.37Zm73-1.13-0.83-1.82,0.9-.42,0.85,1.81Zm-77.69-.83-0.93-.41,0.82-1.82,0.91,0.41Zm82.26-1.4-0.92-1.78,0.88-.46,0.94,1.77Zm-86.86-.71-0.91-.44,0.87-1.8,0.91,0.43Zm91.31-1.74-1-1.73,0.86-.51,1,1.72Zm-95.84-.48-0.9-.46,0.91-1.78,0.89,0.45Zm100.17-2.17-1.09-1.68,0.83-.54,1.1,1.67ZM398.88,150l-0.9-.47,0.94-1.77,0.89,0.47Zm-4.45-2.37-0.89-.48,1-1.76,0.88,0.48Zm113.31-.35-1.16-1.63,0.8-.58,1.2,1.6ZM390,145.24l-0.88-.48,1-1.75,0.88,0.48Zm121.76-1.08-1.29-1.53,0.76-.64,1.3,1.52Zm-126.17-1.34-0.88-.48,1-1.75,0.88,0.48Zm130-2-1.35-1.47,0.73-.68,1.37,1.46Zm-134.39-.39-0.88-.48,1-1.76,0.89,0.48ZM376.75,138l-0.89-.47,0.93-1.77,0.89,0.47Zm142.48-.72-1.39-1.44,0.71-.7,1.4,1.43ZM372.3,135.73l-0.89-.45,0.9-1.79,0.9,0.46Zm150.53-1.93-1.4-1.43,0.72-.71,1.4,1.43Zm-155-.32-0.9-.45,0.88-1.79,0.9,0.45Zm-129.14-2-1-1.71,0.88-.52,1,1.72Zm124.63-.21-0.9-.43,0.86-1.8,0.91,0.44Zm163.12-1L525,128.84l0.73-.7,1.38,1.45Zm-167.65-1.17-0.91-.42,0.83-1.82,0.92,0.42ZM243,129l-1-1.75,0.89-.48,1,1.76ZM354.21,127l-0.91-.4,0.8-1.83,0.93,0.41Zm175.88-.17-1.34-1.49,0.76-.68,1.32,1.5Zm-282.66-.21-0.9-1.79,0.91-.45,0.88,1.8Zm102.18-1.59-0.92-.38,0.76-1.85,0.94,0.39Zm-97.67-.56-0.83-1.82,0.93-.42,0.81,1.83Zm281.93-.88-1.26-1.55,0.8-.64,1.24,1.57ZM345,123.21l-0.93-.36,0.71-1.87,0.95,0.36Zm-88.43-.67-0.76-1.85,0.94-.38,0.74,1.86Zm83.75-1.08-0.95-.33,0.67-1.89,0.95,0.34Zm-79.09-.71-0.68-1.88,1-.34,0.67,1.88Zm276.64-.1L536.69,119l0.85-.58,1.11,1.66Zm-202.29-.8-0.95-.3,0.6-1.91,1,0.31Zm-69.62-.71-0.61-1.91,1-.3,0.59,1.91Zm64.85-.75-1-.27,0.54-1.93,1,0.28ZM542,118l-1-1.75,0.91-.49,0.93,1.77Zm-271.3-.32-0.53-1.93,1-.26,0.51,1.93Zm55.23-.62-1-.24,0.47-1.95,1,0.24Zm-50.39-.59-0.45-1.95,1-.22,0.43,2Zm45.52-.51-1-.2,0.39-2,1,0.2Zm225.36-.06-0.74-1.86,1-.37,0.68,1.88Zm-266-.44-0.36-2,1-.18,0.34,2Zm35.73-.41-1-.16,0.3-2,1,0.16Zm-30.79-.39-0.27-2,1-.13,0.26,2Zm265.7-.22-0.45-1.95,1-.22,0.39,2Zm-239.85-.08-1-.11,0.21-2,1,0.11Zm-20.9-.27-0.18-2,1-.09,0.16,2Zm15.94-.19-1-.06,0.12-2,1,0.06Zm-11-.14-0.09-2,1,0,0.06,2Zm6-.07h-1l0-2h1Z" transform="translate(-236.23 -111.72)"/><polygon class="cls-1" points="319.7 2.05 319.57 0.06 320.09 0.03 320.18 2.02 319.7 2.05"/><polygon class="cls-2" points="354.2 52.56 355.82 51.38 355.52 50.97 353.91 52.17 354.2 52.56"/><path class="cls-2" d="M340.87,164h1l0,2h-1Zm-5.07,1.89,0.1-2,1,0-0.08,2Zm10-2.09,1-.08,0.16,2-1,.08Zm-15.11,1.67,0.22-2,1,0.1-0.2,2Zm20.06-2.17,1-.13,0.28,2-1,.14Zm-25.09,1.46,0.33-2,1,0.16-0.31,2Zm30-2.25,1-.19,0.4,2-1,.2Zm-35,1.25,0.45-1.95,1,0.22-0.42,2Zm39.84-2.32,1-.25,0.5,1.94-1,.25Zm-44.76,1,0.55-1.92,1,0.27-0.54,1.93Zm49.56-2.37,0.95-.29,0.6,1.91-1,.3Zm-54.4.83,0.65-1.89,0.95,0.32-0.64,1.89Zm276.16-1,1.55-1.26,0.63,0.79-1.56,1.25Zm-217-1.42,0.94-.34,0.68,1.88-1,.34Zm-63.88.58,0.76-1.85,0.93,0.37-0.74,1.86Zm68.55-2.34,0.93-.37,0.76,1.85-0.94.38Zm-73.2.3,0.85-1.81,0.9,0.42-0.83,1.82Zm282.34-.92,1.5-1.32,0.67,0.76-1.51,1.31Zm-204.53-1.32,0.91-.41,0.82,1.82-0.93.41Zm-82.35,0,0.94-1.77,0.88,0.46-0.92,1.78Zm86.89-2,0.91-.43,0.87,1.8-0.91.44Zm196.6-.26,1.44-1.39,0.7,0.73-1.45,1.38Zm-287.92-.19,1-1.72,0.86,0.51-1,1.73Zm95.82-1.76,0.89-.45,0.91,1.78-0.9.46Zm-100.12-.94,1.1-1.67,0.83,0.54-1.09,1.68Zm104.58-1.35,0.89-.47,0.94,1.77-0.9.47ZM577,149l1.38-1.45,0.73,0.7-1.4,1.43Zm-179.68-3.08,0.88-.48,1,1.76-0.89.48Zm-113.19.81,1.2-1.6,0.8,0.58-1.16,1.63Zm289.2-1.1,1.32-1.5,0.76,0.67L574,146.25Zm-171.6-2.11,0.88-.48,1,1.75-0.88.48Zm-121.58,0,1.3-1.52,0.76,0.64-1.29,1.53Zm289.37-1.14,1.27-1.55,0.78,0.64L570.26,143Zm-163.38-1.3,0.88-.48,1,1.75-0.88.48Zm-129.76-1,1.37-1.46,0.73,0.68-1.35,1.47Zm134.18-1.46,0.89-.48,0.95,1.76-0.88.48Zm155,0.63,1.2-1.6,0.81,0.61-1.22,1.59Zm-150.6-3,0.89-.47,0.93,1.77-0.89.47Zm-142.27.34,1.4-1.43,0.71,0.7-1.39,1.44Zm288.82-.26,1.15-1.64,0.83,0.58-1.15,1.63Zm-142.08-2.41,0.9-.46,0.9,1.79-0.89.45Zm137.93-.37,1.08-1.68,0.85,0.55-1.09,1.67Zm-288.27-.49,1.4-1.43,0.72,0.71-1.4,1.43Zm154.84-1.41,0.9-.45,0.88,1.79-0.9.45ZM553.12,131l1-1.72,0.87,0.52-1,1.71Zm-124.64-1.51,0.91-.44,0.86,1.8-0.9.43Zm-163,.14,1.38-1.45,0.73,0.7-1.38,1.45ZM433,127.3l0.92-.42,0.83,1.82-0.91.42Zm115.73,1.21,1-1.76,0.89,0.48-1,1.75Zm-111.13-3.29,0.93-.41,0.8,1.83-0.92.4Zm-175.82,1,1.32-1.5,0.76,0.68-1.34,1.49Zm282.51,0,0.88-1.8,0.91,0.45-0.9,1.79Zm-102.05-3,0.94-.39,0.76,1.85-0.92.38Zm97.52,0.88,0.81-1.83,0.93,0.42-0.83,1.82ZM258,123l1.24-1.57,0.8,0.64-1.26,1.55Zm189-1.67,0.95-.36,0.71,1.87-0.93.36Zm88.24,0.83,0.74-1.86,0.94,0.38-0.76,1.85Zm-83.49-2.59,0.95-.34,0.67,1.89-0.95.33Zm78.82,0.83,0.67-1.88,1,0.34-0.68,1.88ZM254,120.1l1.11-1.66L256,119l-1.14,1.64Zm202.48-2.15,1-.31,0.6,1.91-0.95.3Zm69.29,0.89,0.59-1.91,1,0.3-0.6,1.91Zm-64.45-2.37,1-.28,0.54,1.93-1,.27Zm-211.56,1.11,0.93-1.77,0.91,0.49-1,1.75Zm271.2-.11,0.51-1.93,1,0.26-0.53,1.93Zm-54.75-2.3,1-.24,0.47,1.95-1,.24Zm49.9,1.13,0.43-2,1,0.22-0.45,1.95ZM471.17,114l1-.2,0.39,2-1,.2Zm-225.86,1.56,0.68-1.88,1,0.37-0.74,1.86Zm265.91-.27,0.34-2,1,0.18-0.36,2Zm-35.06-2.21,1-.16,0.3,2-1,.16Zm30.12,1.46,0.26-2,1,0.13-0.27,2Zm-265.67-.3,0.39-2,1,0.22-0.45,1.95Zm240.57-1.86,1-.11,0.21,2-1,.11Zm20.13,1.63,0.16-2,1,0.09-0.18,2ZM486.25,112l1-.06,0.12,2-1,.06Zm10.1,1.81,0.06-2,1,0-0.09,2Zm-5-2h1l0,2h-1Z" transform="translate(-236.23 -111.72)"/><polygon class="cls-2" points="0.48 2.05 0.61 0.06 0.09 0.03 0 2.02 0.48 2.05"/><polygon class="cls-3" points="377.85 1.68 379.46 2.86 379.16 3.27 377.55 2.08 377.85 1.68"/><path class="cls-3" d="M364.52,111.72h1l0,2h-1Zm-4.07.06,0.08,2-1,0-0.1-2Zm9.16,0.14,1,0.08-0.16,2-1-.08Zm-14.24.21,0.2,2-1,.1-0.22-2Zm19.3,0.29,1,0.14-0.28,2-1-.13Zm-24.35.36,0.31,2-1,.16-0.33-2Zm29.37,0.45,1,0.2-0.4,2-1-.19Zm-34.37.49,0.42,2-1,.22-0.45-1.95Zm39.33,0.6,1,0.25-0.5,1.94-1-.25Zm-44.27.62,0.54,1.93-1,.27-0.55-1.92Zm49.16,0.73,1,0.3-0.6,1.91L389,117.6Zm-54,.76,0.64,1.89-0.95.32-0.65-1.89ZM611.35,117l1.56,1.25-0.63.79-1.55-1.26Zm-217,.31,1,0.34-0.68,1.88-0.94-.34Zm-63.61.92,0.74,1.86-0.93.37-0.76-1.85Zm68.35,0.87,0.94,0.38-0.76,1.85-0.93-.37Zm-73,1.13,0.83,1.82-0.9.42-0.85-1.81Zm282.08,0.59,1.51,1.31-0.67.76-1.5-1.32ZM403.78,121l0.93,0.41-0.82,1.82-0.91-.41Zm-82.26,1.4,0.92,1.78-0.88.46-0.94-1.77Zm86.86,0.71,0.91,0.44-0.87,1.8-0.91-.43Zm196.43,1.34,1.45,1.38-0.7.73-1.44-1.39Zm-287.74.4,1,1.73-0.86.51-1-1.72Zm95.84,0.48,0.9,0.46-0.91,1.78-0.89-.45Zm-100.17,2.17,1.09,1.68-0.83.54-1.1-1.67Zm104.66,0.13,0.9,0.47-0.94,1.77-0.89-.47ZM601.32,128l1.4,1.43-0.73.7-1.38-1.45Zm-179.45,2,0.89,0.48-1,1.76-0.88-.48Zm-113.31.35,1.16,1.63-0.8.58-1.2-1.6Zm289.11,1,1.34,1.49-0.76.67-1.32-1.5Zm-171.38,1,0.88,0.48-1,1.75-0.88-.48Zm-121.76,1.08,1.29,1.53-0.76.64-1.3-1.52Zm289.37,1.17,1.28,1.54-0.78.64-1.27-1.55Zm-163.19.18,0.88,0.48-1,1.75-0.88-.48Zm-130,2,1.35,1.47-0.73.68L300,137.57Zm134.39,0.39,0.88,0.48L435,139.51l-0.89-.48ZM590,137.8l1.22,1.59-0.81.61-1.2-1.6Zm-150.46,1.85,0.89,0.47-0.93,1.77-0.89-.47Zm-142.48.72,1.39,1.44-0.71.7-1.4-1.43ZM586,140.76l1.15,1.63-0.83.58-1.15-1.64ZM444,142l0.89,0.45L444,144.2l-0.9-.46Zm137.86,1.61,1.09,1.67-0.85.55L581,144.1Zm-288.39.33,1.4,1.43-0.72.71-1.4-1.43Zm155,0.32,0.9,0.45-0.88,1.79-0.9-.45Zm129.14,2,1,1.71-0.87.52-1-1.72ZM453,146.42l0.9,0.43-0.86,1.8-0.91-.44Zm-163.12,1,1.38,1.45-0.73.7-1.38-1.45Zm167.65,1.17,0.91,0.42-0.83,1.82-0.92-.42Zm115.77,0.13,1,1.75-0.89.48-1-1.76Zm-111.2,1.94L463,151l-0.8,1.83-0.93-.41Zm-175.88.17,1.34,1.49-0.76.68-1.32-1.5ZM568.86,151l0.9,1.79-0.91.45-0.88-1.8Zm-102.18,1.59,0.92,0.38-0.76,1.85-0.94-.39Zm97.67,0.56,0.83,1.82-0.93.42-0.81-1.83ZM282.42,154l1.26,1.55-0.8.64-1.24-1.57Zm188.91,0.43,0.93,0.36-0.71,1.87-0.95-.36Zm88.43,0.67,0.76,1.85-0.94.38-0.74-1.86ZM476,156.22l0.95,0.33-0.67,1.89-0.95-.34Zm79.09,0.71,0.68,1.88-1,.34-0.67-1.88Zm-276.64.1,1.14,1.64-0.85.58-1.11-1.66Zm202.29,0.8,0.95,0.3-0.6,1.91-1-.31Zm69.62,0.71,0.6,1.91-1,.3-0.59-1.91Zm-64.85.75,1,0.27-0.54,1.93-1-.28Zm-211.24.35,1,1.75-0.91.49-0.93-1.77ZM545.58,160l0.53,1.93-1,.26-0.51-1.93Zm-55.23.62,1,0.24-0.47,1.95-1-.24Zm50.39,0.59,0.45,1.95-1,.22-0.43-2Zm-45.52.51,1,0.2-0.39,2-1-.2Zm-225.35.06,0.74,1.86-1,.37-0.68-1.88Zm266,0.44,0.36,2-1,.18-0.34-2Zm-35.73.41,1,0.16-0.3,2-1-.16ZM530.91,163l0.27,2-1,.13-0.26-2Zm-265.7.22,0.45,1.95-1,.22-0.39-2Zm239.85,0.08,1,0.11-0.21,2-1-.11Zm20.9,0.27,0.18,2-1,.09-0.16-2Zm-15.93.19,1,0.06-0.12,2-1-.06Zm11,0.14,0.09,2-1,0-0.06-2Zm-6,.07h1l0,2h-1Z" transform="translate(-236.23 -111.72)"/><polygon class="cls-3" points="24.12 52.19 24.25 54.19 23.73 54.22 23.64 52.22 24.12 52.19"/></svg>