<svg preserveAspectRatio="none" id="Layer_1" data-name="Layer 1" xmlns="http://www.w3.org/2000/svg" viewBox="0 0 97.31 97.31"><defs><style>.cls-1{fill:#02a6ff}</style></defs><path id="_复合路径_" data-name="&lt;复合路径&gt;" class="cls-1" d="M2115.49 1919.62a17.57 17.57 0 1117.57-17.57 17.59 17.59 0 01-17.57 17.57zm0-33.32a15.75 15.75 0 1015.75 15.75 15.77 15.77 0 00-15.75-15.75z" transform="translate(-2066.84 -1853.4)"/><path id="_复合路径_2" data-name="&lt;复合路径&gt;" class="cls-1" d="M2108.22 1927.29a26.41 26.41 0 01-16-13l2.4-1.27a23.68 23.68 0 0014.31 11.65zm20.33-2.45l-1.21-2.42.15.24-.13-.26 1.38 2.33zm5.14-3.86l-1.88-2a23.55 23.55 0 001.25-32.65l2-1.81a26.26 26.26 0 01-1.37 36.48zm-43.69-12.53l2.61-.74zm0 0l2.61-.74zm5.54-18.92l-2.3-1.45a26.39 26.39 0 0116.9-11.74l.55 2.66a23.65 23.65 0 00-15.14 10.52zm20.86-12.23v-.12.12-1.48h.24z" transform="translate(-2066.84 -1853.4)"/><path id="_复合路径_3" data-name="&lt;复合路径&gt;" class="cls-1" d="M2115.53 1937.08v-1.88q.94 0 1.86-.05l.11 1.88c-.66.03-1.31.05-1.97.05zm-1.89 0h-.15l.24-1.87v.25-.25zm-2-.16q-1-.11-1.95-.27l.31-1.86c.61.1 1.22.19 1.84.25zm7.71 0V1935v.2-.2l.17 1.87zm2.07-.28l-.31-1.86q.92-.15 1.82-.36l.42 1.84-1.96.32zm-13.56-.35l.11-.84-.12.82.09-.74-.24.71.25-.81-.27.8.27-.8.13-1 .22.05-.3.9zm-2-.5q-.95-.27-1.87-.59l.62-1.78q.87.31 1.77.56zm19.33 0l-.46-1.83.12.41-.1-.41.54 1.8h-.09zm1.92-.61l-.62-1.78q.87-.31 1.73-.66l.72 1.74q-.94.3-1.85.63zm-24.83-.63l.21-.83-.22.81.18-.74-.34.68.36-.77-.38.76.38-.76.25-1 .23.09-.42.84zm-1.93-.85q-.89-.43-1.75-.9l.91-1.65q.81.45 1.65.85zm30.38 0l-.84-1.68.84 1.64-.82-1.65.86 1.68zm1.74-.9l-.91-1.65q.81-.45 1.6-.94l1 1.59q-.85.43-1.71.9zm-37.19-2.06q-.8-.57-1.57-1.18l1.17-1.47q.73.58 1.49 1.12zm40.49 0l-.48-.71-.73-.73.16-.13.53.79.65.67-.6-.6.58.6-.54-.54.42.63-.49-.7zm1.59-1.19l-1.17-1.48q.73-.58 1.42-1.2l1.26 1.4q-.77.55-1.54 1.16zm-45.11-1.2l-.09-.08 1.33-1.33-.22.24.23-.23zm48-1.34l-1.21-1.45.12.12-.11-.13 1.35 1.3zm-49.43 0q-.69-.69-1.35-1.42l1.4-1.26q.63.69 1.28 1.35zm50.85-1.46l-1.4-1.26q.62-.69 1.2-1.42l1.47 1.17q-.68.62-1.33 1.35zm-53.46-1.45l-.06-.08 1.57-1-.29.22.31-.2zm55.87-1.56l-1.47-1.18.26.19-.25-.2 1.53 1.1zm-57.07 0q-.57-.8-1.09-1.63l1.59-1c.33.52.67 1 1 1.54zm58.2-1.67l-1.59-1q.5-.78.95-1.6l1.65.91c-.39.39-.72.95-1.07 1.51zm-60.24-1.56l-.12-.24.89-.3.79-.51-.72.48.73-.47-.67.44.76-.25-.89.32h.07zm62.09-1.77l-.73-.49-1-.28.14-.3.79.52.89.27-.84-.24.84.26-.79-.22.68.45-.74-.47zm-63-.06q-.42-.88-.8-1.78l1.74-.73q.36.86.76 1.69zm63.91-1.85l-1.74-.72q.35-.86.66-1.74l1.78.62q-.44.75-.81 1.66zm-65.42-1.8l.91-.26-.91.26.53-.17-.54.15.57-.16-.57.16 1.8-.57-.56.2.56-.18zm-.59-1.83q-.27-.94-.49-1.9l1.84-.42q.21.91.47 1.8zm67.3 0l-1.79-.6.58.17-.57-.19 1.8.54zm.51-2l-1.84-.42q.2-.9.36-1.82l1.86.31q-.29.82-.5 1.77zm-68.65-1.73v-.3h.94l.91-.24-.84.24.83-.22-.77.22h.8-.87zm69.27-2l-1-.28h.07-.14.07l-.84-.24.84.24h1zm-69.57-.09c-.07-.65-.13-1.3-.17-2l1.88-.11q.06.93.16 1.85zm69.77-2l-1.88-.1c0-.62.05-1.24.05-1.86h1.88q-.12.78-.18 1.78zm-70-1.87h1.88zm0 0h1.88zm68.17-.22q0-.94-.06-1.86l1.88-.11c0 .65.06 1.3.06 2h-1.88zm-66.24-1.64l-1.88-.1q0-1 .16-2l1.87.21q-.23.77-.27 1.71zm66-1.9v-.3h.94l.9-.24-.84.24.84-.22-.77.22h.81-.87zm-65.67-1.66l-.91-.26h-.94.86-.86.81l-.77-.22.84.22-.84-.24.84.24h1zm65.38-.34q-.16-.92-.37-1.82l1.84-.43q.22 1 .39 1.92zm-65-1.61l-1.84-.41q.22-1 .49-1.9l1.81.52c-.25.4-.4.99-.53 1.6zm64.17-2l.57-.2-.57.18 1.79-.57-.9.26.91-.26-.54.17.55-.16-.58.17.58-.16zm-63.15-1.62l-1.8-.54v-.06l1.79.6-.59-.18zm62.56-.2q-.31-.87-.67-1.73l1.74-.73q.38.9.71 1.83zm-61.9-1.53l-1.74-.72q.38-.91.8-1.8l1.7.82q-.48.69-.84 1.55zm61.2-2.25l.11-.05h-.06l.84-.56.14.3-1 .28zm-59.65-1l-.79-.52-.88-.31.83.28-.81-.29.76.25-.67-.45.73.47-.72-.48.73.48 1 .32zm58.05-.26q-.46-.81-1-1.6l1.59-1q.52.83 1 1.68zm-57.06-1.43l-1.6-1q.52-.83 1.09-1.64l1.53 1.09q-.6.59-1.09 1.38zm55.11-1.65l.95-.77-1 .76 1.47-1.18-.57.45.58-.44-.4.32.42-.28-.59.42.6-.4-.62.42zm-52.92-1.45l-1.57-1 .61.41-.6-.42.43.29-.41-.33.58.44-.57-.46.58.47.95.63-1-.66h.06zm51.76-.09q-.58-.72-1.2-1.41l1.4-1.26q.66.73 1.27 1.5zm-50.6-1.27l-1.41-1.25q.65-.74 1.35-1.43l1.34 1.33c-.52.27-.94.72-1.35 1.16zm48.19-1.42l-.15-.15.74-.59.61-.71-.54.65.54-.62-.48.57.58-.46-.65.54.66-.53-.66.53zm-45.53-1.25l-1.33-1.33.52.52-.5-.53.37.37-.33-.4.48.55-.47-.56.49.58.79.79-.68-.65zm44.11-.09c-.46-.41-.94-.81-1.42-1.19l1.17-1.48q.77.61 1.5 1.26zm-42.73-1.07l-1.18-1.47q.76-.61 1.56-1.18l1.1 1.53q-.83.37-1.56.95zm39.85-1.21l.95-1.46-1 1.45 1-1.58zm-36.91-.9l-1-1.62.12-.07.84 1.68-.14-.24zm35.33-.15q-.79-.49-1.61-.94l.91-1.65q.86.47 1.69 1zm-33.65-.84l-.92-1.65q.86-.48 1.74-.91l.82 1.69q-.91.24-1.72.69zm30.39-.95l.83-1.69zm0 0l.83-1.69zm-27.17-.62l-.67-1.75.23-.09.46 1.83-.06-.15zm25.48-.13q-.86-.35-1.74-.66l.61-1.78c.62.21 1.24.45 1.84.7zm-23.62-.58l-.63-1.78q.92-.33 1.87-.6l.53 1.81q-.99.08-1.87.38zm20.16-.62l.31-1.27-.33 1.27.46-1.83-.17.67.19-.67-.1.41.13-.4-.2.66.22-.66zm-16.69-.4l-.43-1.82h.2l.24 1.87v-.18zm14.84-.07c-.6-.14-1.21-.25-1.82-.35l.31-1.86q1 .16 1.93.37zm-12.92-.32l-.32-1.86c.64-.11 1.29-.2 1.94-.28l.22 1.87q-1.03-.07-1.94.09zm7.4-.44h-1.75l-.11-1.88H2117.42z" transform="translate(-2066.84 -1853.4)"/><path id="_复合路径_4" data-name="&lt;复合路径&gt;" class="cls-1" d="M2115.49 1950.71a48.65 48.65 0 1148.65-48.65 48.71 48.71 0 01-48.65 48.65zm0-89.78a41.12 41.12 0 1041.12 41.12 41.17 41.17 0 00-41.12-41.12z" transform="translate(-2066.84 -1853.4)"/><circle id="_路径_" data-name="&lt;路径&gt;" class="cls-1" cx="48.65" cy="48.65" r="3.01"/><path id="_复合路径_5" data-name="&lt;复合路径&gt;" class="cls-1" d="M2115.49 1919.62a17.57 17.57 0 1117.57-17.57 17.59 17.59 0 01-17.57 17.57zm0-33.32a15.75 15.75 0 1015.75 15.75 15.77 15.77 0 00-15.75-15.75z" transform="translate(-2066.84 -1853.4)"/><path id="_复合路径_6" data-name="&lt;复合路径&gt;" class="cls-1" d="M2108.22 1927.29a26.41 26.41 0 01-16-13l2.4-1.27a23.68 23.68 0 0014.31 11.65zm20.33-2.45l-1.21-2.42.15.24-.13-.26 1.38 2.33zm5.14-3.86l-1.88-2a23.55 23.55 0 001.25-32.65l2-1.81a26.26 26.26 0 01-1.37 36.48zm-43.69-12.53l2.61-.74zm0 0l2.61-.74zm5.54-18.92l-2.3-1.45a26.39 26.39 0 0116.9-11.74l.55 2.66a23.65 23.65 0 00-15.14 10.52zm20.86-12.23v-.12.12-1.48h.24z" transform="translate(-2066.84 -1853.4)"/><path id="_复合路径_7" data-name="&lt;复合路径&gt;" class="cls-1" d="M2115.53 1937.08v-1.88q.94 0 1.86-.05l.11 1.88c-.66.03-1.31.05-1.97.05zm-1.89 0h-.15l.24-1.87v.25-.25zm-2-.16q-1-.11-1.95-.27l.31-1.86c.61.1 1.22.19 1.84.25zm7.71 0V1935v.2-.2l.17 1.87zm2.07-.28l-.31-1.86q.92-.15 1.82-.36l.42 1.84-1.96.32zm-13.56-.35l.11-.84-.12.82.09-.74-.24.71.25-.81-.27.8.27-.8.13-1 .22.05-.3.9zm-2-.5q-.95-.27-1.87-.59l.62-1.78q.87.31 1.77.56zm19.33 0l-.46-1.83.12.41-.1-.41.54 1.8h-.09zm1.92-.61l-.62-1.78q.87-.31 1.73-.66l.72 1.74q-.94.3-1.85.63zm-24.83-.63l.21-.83-.22.81.18-.74-.34.68.36-.77-.38.76.38-.76.25-1 .23.09-.42.84zm-1.93-.85q-.89-.43-1.75-.9l.91-1.65q.81.45 1.65.85zm30.38 0l-.84-1.68.84 1.64-.82-1.65.86 1.68zm1.74-.9l-.91-1.65q.81-.45 1.6-.94l1 1.59q-.85.43-1.71.9zm-37.19-2.06q-.8-.57-1.57-1.18l1.17-1.47q.73.58 1.49 1.12zm40.49 0l-.48-.71-.73-.73.16-.13.53.79.65.67-.6-.6.58.6-.54-.54.42.63-.49-.7zm1.59-1.19l-1.17-1.48q.73-.58 1.42-1.2l1.26 1.4q-.77.55-1.54 1.16zm-45.11-1.2l-.09-.08 1.33-1.33-.22.24.23-.23zm48-1.34l-1.21-1.45.12.12-.11-.13 1.35 1.3zm-49.43 0q-.69-.69-1.35-1.42l1.4-1.26q.63.69 1.28 1.35zm50.85-1.46l-1.4-1.26q.62-.69 1.2-1.42l1.47 1.17q-.68.62-1.33 1.35zm-53.46-1.45l-.06-.08 1.57-1-.29.22.31-.2zm55.87-1.56l-1.47-1.18.26.19-.25-.2 1.53 1.1zm-57.07 0q-.57-.8-1.09-1.63l1.59-1c.33.52.67 1 1 1.54zm58.2-1.67l-1.59-1q.5-.78.95-1.6l1.65.91c-.39.39-.72.95-1.07 1.51zm-60.24-1.56l-.12-.24.89-.3.79-.51-.72.48.73-.47-.67.44.76-.25-.89.32h.07zm62.09-1.77l-.73-.49-1-.28.14-.3.79.52.89.27-.84-.24.84.26-.79-.22.68.45-.74-.47zm-63-.06q-.42-.88-.8-1.78l1.74-.73q.36.86.76 1.69zm63.91-1.85l-1.74-.72q.35-.86.66-1.74l1.78.62q-.44.75-.81 1.66zm-65.42-1.8l.91-.26-.91.26.53-.17-.54.15.57-.16-.57.16 1.8-.57-.56.2.56-.18zm-.59-1.83q-.27-.94-.49-1.9l1.84-.42q.21.91.47 1.8zm67.3 0l-1.79-.6.58.17-.57-.19 1.8.54zm.51-2l-1.84-.42q.2-.9.36-1.82l1.86.31q-.29.82-.5 1.77zm-68.65-1.73v-.3h.94l.91-.24-.84.24.83-.22-.77.22h.8-.87zm69.27-2l-1-.28h.07-.14.07l-.84-.24.84.24h1zm-69.57-.09c-.07-.65-.13-1.3-.17-2l1.88-.11q.06.93.16 1.85zm69.77-2l-1.88-.1c0-.62.05-1.24.05-1.86h1.88q-.12.78-.18 1.78zm-70-1.87h1.88zm0 0h1.88zm68.17-.22q0-.94-.06-1.86l1.88-.11c0 .65.06 1.3.06 2h-1.88zm-66.24-1.64l-1.88-.1q0-1 .16-2l1.87.21q-.23.77-.27 1.71zm66-1.9v-.3h.94l.9-.24-.84.24.84-.22-.77.22h.81-.87zm-65.67-1.66l-.91-.26h-.94.86-.86.81l-.77-.22.84.22-.84-.24.84.24h1zm65.38-.34q-.16-.92-.37-1.82l1.84-.43q.22 1 .39 1.92zm-65-1.61l-1.84-.41q.22-1 .49-1.9l1.81.52c-.25.4-.4.99-.53 1.6zm64.17-2l.57-.2-.57.18 1.79-.57-.9.26.91-.26-.54.17.55-.16-.58.17.58-.16zm-63.15-1.62l-1.8-.54v-.06l1.79.6-.59-.18zm62.56-.2q-.31-.87-.67-1.73l1.74-.73q.38.9.71 1.83zm-61.9-1.53l-1.74-.72q.38-.91.8-1.8l1.7.82q-.48.69-.84 1.55zm61.2-2.25l.11-.05h-.06l.84-.56.14.3-1 .28zm-59.65-1l-.79-.52-.88-.31.83.28-.81-.29.76.25-.67-.45.73.47-.72-.48.73.48 1 .32zm58.05-.26q-.46-.81-1-1.6l1.59-1q.52.83 1 1.68zm-57.06-1.43l-1.6-1q.52-.83 1.09-1.64l1.53 1.09q-.6.59-1.09 1.38zm55.11-1.65l.95-.77-1 .76 1.47-1.18-.57.45.58-.44-.4.32.42-.28-.59.42.6-.4-.62.42zm-52.92-1.45l-1.57-1 .61.41-.6-.42.43.29-.41-.33.58.44-.57-.46.58.47.95.63-1-.66h.06zm51.76-.09q-.58-.72-1.2-1.41l1.4-1.26q.66.73 1.27 1.5zm-50.6-1.27l-1.41-1.25q.65-.74 1.35-1.43l1.34 1.33c-.52.27-.94.72-1.35 1.16zm48.19-1.42l-.15-.15.74-.59.61-.71-.54.65.54-.62-.48.57.58-.46-.65.54.66-.53-.66.53zm-45.53-1.25l-1.33-1.33.52.52-.5-.53.37.37-.33-.4.48.55-.47-.56.49.58.79.79-.68-.65zm44.11-.09c-.46-.41-.94-.81-1.42-1.19l1.17-1.48q.77.61 1.5 1.26zm-42.73-1.07l-1.18-1.47q.76-.61 1.56-1.18l1.1 1.53q-.83.37-1.56.95zm39.85-1.21l.95-1.46-1 1.45 1-1.58zm-36.91-.9l-1-1.62.12-.07.84 1.68-.14-.24zm35.33-.15q-.79-.49-1.61-.94l.91-1.65q.86.47 1.69 1zm-33.65-.84l-.92-1.65q.86-.48 1.74-.91l.82 1.69q-.91.24-1.72.69zm30.39-.95l.83-1.69zm0 0l.83-1.69zm-27.17-.62l-.67-1.75.23-.09.46 1.83-.06-.15zm25.48-.13q-.86-.35-1.74-.66l.61-1.78c.62.21 1.24.45 1.84.7zm-23.62-.58l-.63-1.78q.92-.33 1.87-.6l.53 1.81q-.99.08-1.87.38zm20.16-.62l.31-1.27-.33 1.27.46-1.83-.17.67.19-.67-.1.41.13-.4-.2.66.22-.66zm-16.69-.4l-.43-1.82h.2l.24 1.87v-.18zm14.84-.07c-.6-.14-1.21-.25-1.82-.35l.31-1.86q1 .16 1.93.37zm-12.92-.32l-.32-1.86c.64-.11 1.29-.2 1.94-.28l.22 1.87q-1.03-.07-1.94.09zm7.4-.44h-1.75l-.11-1.88H2117.42z" transform="translate(-2066.84 -1853.4)"/><path id="_复合路径_8" data-name="&lt;复合路径&gt;" class="cls-1" d="M2115.49 1950.71a48.65 48.65 0 1148.65-48.65 48.71 48.71 0 01-48.65 48.65zm0-89.78a41.12 41.12 0 1041.12 41.12 41.17 41.17 0 00-41.12-41.12z" transform="translate(-2066.84 -1853.4)"/><circle id="_路径_2" data-name="&lt;路径&gt;" class="cls-1" cx="48.65" cy="48.65" r="3.01"/></svg>