<svg preserveAspectRatio="none" id="Layer_1" data-name="Layer 1" xmlns="http://www.w3.org/2000/svg" viewBox="0 0 99.06 99.05"><defs><style>.cls-1{fill:#02a6ff;}</style></defs><title>shape38</title><polygon id="_路径_" data-name="&lt;路径&gt;" class="cls-1" points="37.59 55.65 49.53 34.98 61.47 55.65 37.59 55.65"/><path id="_复合路径_" data-name="&lt;复合路径&gt;" class="cls-1" d="M2287.76,1930.15H2258l-14.88-26.37,14.88-26.37h29.8l14.88,26.37Zm-28.7-1.88h27.6l13.82-24.48-13.82-24.48h-27.6l-13.82,24.48Z" transform="translate(-2223.33 -1853.78)"/><path id="_复合路径_2" data-name="&lt;复合路径&gt;" class="cls-1" d="M2264.75,1932.49l-21.07-21.07,8.12-29.17,29.17-8.12L2302,1895.2l-8.12,29.17Zm-19-21.62,19.52,19.51,27.08-7.54,7.54-27.08-19.52-19.51-27.08,7.54Z" transform="translate(-2223.33 -1853.78)"/><path id="_复合路径_3" data-name="&lt;复合路径&gt;" class="cls-1" d="M2272.86,1942.54a39.24,39.24,0,1,1,39.24-39.24A39.28,39.28,0,0,1,2272.86,1942.54Zm0-76.59a37.35,37.35,0,1,0,37.36,37.35A37.4,37.4,0,0,0,2272.86,1866Z" transform="translate(-2223.33 -1853.78)"/><path id="_复合路径_4" data-name="&lt;复合路径&gt;" class="cls-1" d="M2272.86,1952.84a49.48,49.48,0,0,1-32.72-12.35l1.57-1.78a47.22,47.22,0,0,0,48.15,8.6l0.86,2.22A49.35,49.35,0,0,1,2272.86,1952.84Zm20.33-4.35-0.88-2.21,0.21,0.45-0.19-.46,1,2.16Zm2.56-1.24-1.1-2.11a47.23,47.23,0,0,0,23.64-54.48l2.29-.64A49.62,49.62,0,0,1,2295.75,1947.24Zm-57.59-8.59,0.66-.76,0,0-0.65.71,0.54-.62-0.62.53,0.74-.67-0.76.65,0.77-.66,0.9-1,0.16,0.16-0.91.78Zm-2-2a49.59,49.59,0,0,1-9.81-50.44l2.23,0.82a47.21,47.21,0,0,0,9.34,48Zm82.22-48.78,0.22-.07-0.11,0,1.2-.53,0.09,0.28h0v0l-1.29.26,0.06,0Zm-1.82-2.16a47,47,0,0,0-39.18-29.29l0.23-2.37a49.34,49.34,0,0,1,41.15,30.76Zm-87-1.12-2.19-.94v0h0v0l2.17,1-2.12-.91Zm1.12-2.4-2.12-1.07a49.4,49.4,0,0,1,43.53-27.29l0,2.38A47,47,0,0,0,2230.71,1882.14Zm44-26,0-.45,0,0.45,0.09-2.37H2275Z" transform="translate(-2223.33 -1853.78)"/><polygon id="_路径_2" data-name="&lt;路径&gt;" class="cls-1" points="37.59 55.65 49.53 34.98 61.47 55.65 37.59 55.65"/><path id="_复合路径_5" data-name="&lt;复合路径&gt;" class="cls-1" d="M2287.76,1930.15H2258l-14.88-26.37,14.88-26.37h29.8l14.88,26.37Zm-28.7-1.88h27.6l13.82-24.48-13.82-24.48h-27.6l-13.82,24.48Z" transform="translate(-2223.33 -1853.78)"/><path id="_复合路径_6" data-name="&lt;复合路径&gt;" class="cls-1" d="M2264.75,1932.49l-21.07-21.07,8.12-29.17,29.17-8.12L2302,1895.2l-8.12,29.17Zm-19-21.62,19.52,19.51,27.08-7.54,7.54-27.08-19.52-19.51-27.08,7.54Z" transform="translate(-2223.33 -1853.78)"/><path id="_复合路径_7" data-name="&lt;复合路径&gt;" class="cls-1" d="M2272.86,1942.54a39.24,39.24,0,1,1,39.24-39.24A39.28,39.28,0,0,1,2272.86,1942.54Zm0-76.59a37.35,37.35,0,1,0,37.36,37.35A37.4,37.4,0,0,0,2272.86,1866Z" transform="translate(-2223.33 -1853.78)"/><path id="_复合路径_8" data-name="&lt;复合路径&gt;" class="cls-1" d="M2272.86,1952.84a49.48,49.48,0,0,1-32.72-12.35l1.57-1.78a47.22,47.22,0,0,0,48.15,8.6l0.86,2.22A49.35,49.35,0,0,1,2272.86,1952.84Zm20.33-4.35-0.88-2.21,0.21,0.45-0.19-.46,1,2.16Zm2.56-1.24-1.1-2.11a47.23,47.23,0,0,0,23.64-54.48l2.29-.64A49.62,49.62,0,0,1,2295.75,1947.24Zm-57.59-8.59,0.66-.76,0,0-0.65.71,0.54-.62-0.62.53,0.74-.67-0.76.65,0.77-.66,0.9-1,0.16,0.16-0.91.78Zm-2-2a49.59,49.59,0,0,1-9.81-50.44l2.23,0.82a47.21,47.21,0,0,0,9.34,48Zm82.22-48.78,0.22-.07-0.11,0,1.2-.53,0.09,0.28h0v0l-1.29.26,0.06,0Zm-1.82-2.16a47,47,0,0,0-39.18-29.29l0.23-2.37a49.34,49.34,0,0,1,41.15,30.76Zm-87-1.12-2.19-.94v0h0v0l2.17,1-2.12-.91Zm1.12-2.4-2.12-1.07a49.4,49.4,0,0,1,43.53-27.29l0,2.38A47,47,0,0,0,2230.71,1882.14Zm44-26,0-.45,0,0.45,0.09-2.37H2275Z" transform="translate(-2223.33 -1853.78)"/></svg>