<svg preserveAspectRatio="none" xmlns="http://www.w3.org/2000/svg" viewBox="0 0 9.6 4.78"><defs><style>.cls-2{fill:#00aeef}</style></defs><g style="isolation:isolate"><g id="Layer_1" data-name="Layer 1"><path class="cls-2" d="M7.85 4.78L6.42 2.43 7.86.01H9.6L8.01 2.4l1.58 2.38H7.85zM4.67 4.77L3.24 2.42 4.68.01h1.74L4.83 2.39l1.59 2.39-1.75-.01zM1.43 4.77L0 2.42 1.44 0h1.74L1.59 2.38l1.59 2.39H1.43z"/><g style="mix-blend-mode:color-dodge"><path class="cls-2" d="M7.85 4.78L6.42 2.43 7.86.01H9.6L8.01 2.4l1.58 2.38H7.85zM4.67 4.77L3.24 2.42 4.68.01h1.74L4.83 2.39l1.59 2.39-1.75-.01zM1.43 4.77L0 2.42 1.44 0h1.74L1.59 2.38l1.59 2.39H1.43z"/></g></g></g></svg>