<svg preserveAspectRatio="none" id="Layer_1" data-name="Layer 1" xmlns="http://www.w3.org/2000/svg" viewBox="0 0 103.95 103.91"><defs><style>.cls-1{fill:#02a6ff;}</style></defs><title>shape36</title><path id="_路径_" data-name="&lt;路径&gt;" class="cls-1" d="M1956.76,1915.87a11.62,11.62,0,0,1-7.08-20.83l0.08-.06,1.15,1.49-0.08.06a9.69,9.69,0,0,0-3.8,7.72,9.74,9.74,0,1,0,19.47,0l0.09-.09,1.79,0.09A11.64,11.64,0,0,1,1956.76,1915.87Z" transform="translate(-1904.8 -1852.32)"/><path id="_复合路径_" data-name="&lt;复合路径&gt;" class="cls-1" d="M1956.76,1934.34a29.59,29.59,0,0,1-11-2.47l1.78-4.6c2.92,1.17,6,2.39,9.18,2.39,13.57,0,24.61-10.81,24.61-24h4.76C1986.14,1920.74,1973,1934.34,1956.76,1934.34Zm22.43-40.24a24.68,24.68,0,0,0-22.43-14.46,24.41,24.41,0,0,0-17.78,7.59l-3.44-3.3a29.13,29.13,0,0,1,21.22-9.06,29.45,29.45,0,0,1,26.77,17.26Z" transform="translate(-1904.8 -1852.32)"/><path id="_复合路径_2" data-name="&lt;复合路径&gt;" class="cls-1" d="M1956.76,1947.25a43,43,0,1,1,43-43A43.05,43.05,0,0,1,1956.76,1947.25Zm0-84.13a41.12,41.12,0,1,0,41.12,41.12A41.17,41.17,0,0,0,1956.76,1863.13Z" transform="translate(-1904.8 -1852.32)"/><path id="_复合路径_3" data-name="&lt;复合路径&gt;" class="cls-1" d="M1955.91,1956.23a51.8,51.8,0,0,1-17.54-3.34l0.81-2.13a49.51,49.51,0,0,0,16.77,3.19Zm17.61-2.76-0.72-2.16,0.72,2.12-0.71-2.12,0.74,2.15h0Zm5-2-1-2.07a49.67,49.67,0,0,0,14-9.71l1.6,1.62A51.9,51.9,0,0,1,1978.54,1951.47Zm-45.08-.73-0.11-.06,1.17-2-0.19.35,0.21-.34Zm-14.36-10.64a51.9,51.9,0,0,1-9.92-14.84l2.08-.92a49.65,49.65,0,0,0,9.48,14.19Zm84.36-13.07-0.89-.71-1.07-.38,1,0.34h0l-1-.36,1,0.33-0.81-.65,0.86,0.66-0.85-.68,0.85,0.68,1.13,0.38Zm2.23-4.48-2.14-.42a48.12,48.12,0,0,0,2.92-16.47h2.28A49.46,49.46,0,0,1,2005.7,1922.55Zm-98.41-2.29v0l2.16-.72-2.15.74,2.16-.72Zm-0.21-17.63-2.28-.07a51.69,51.69,0,0,1,3.62-17.48l2.12,0.84A49.43,49.43,0,0,0,1907.07,1902.63Zm97.5-12.06,2.15-.74v0Zm0,0,2.15-.74v0Zm-1.69-4.91a49.53,49.53,0,0,0-9-14.49l1.7-1.52a51.81,51.81,0,0,1,9.43,15.15Zm-90.23-4.35-2-1.08,0.06-.11,2,1.17-0.34-.18Zm10.42-13.61-1.54-1.67a51.87,51.87,0,0,1,15-9.67l0.89,2.1A49.63,49.63,0,0,0,1923.07,1867.69Zm57.29-7.22,0.09-.15-0.11.14,1.18-1.94,0.2,0.13Zm-4.52-2.14a49.36,49.36,0,0,0-16.66-3.74l0.11-2.28a51.68,51.68,0,0,1,17.42,3.91Zm-33.57-1.65-0.74-2.15h0l0.72,2.16-0.72-2.12Z" transform="translate(-1904.8 -1852.32)"/><path id="_复合路径_4" data-name="&lt;复合路径&gt;" class="cls-1" d="M1956.76,1954.12a49.88,49.88,0,1,1,49.88-49.88A49.93,49.93,0,0,1,1956.76,1954.12Zm0-97.94a48.06,48.06,0,1,0,48.06,48.06A48.12,48.12,0,0,0,1956.76,1856.19Z" transform="translate(-1904.8 -1852.32)"/><path id="_路径_2" data-name="&lt;路径&gt;" class="cls-1" d="M1956.76,1915.87a11.62,11.62,0,0,1-7.08-20.83l0.08-.06,1.15,1.49-0.08.06a9.69,9.69,0,0,0-3.8,7.72,9.74,9.74,0,1,0,19.47,0l0.09-.09,1.79,0.09A11.64,11.64,0,0,1,1956.76,1915.87Z" transform="translate(-1904.8 -1852.32)"/><path id="_复合路径_5" data-name="&lt;复合路径&gt;" class="cls-1" d="M1956.76,1934.34a29.59,29.59,0,0,1-11-2.47l1.78-4.6c2.92,1.17,6,2.39,9.18,2.39,13.57,0,24.61-10.81,24.61-24h4.76C1986.14,1920.74,1973,1934.34,1956.76,1934.34Zm22.43-40.24a24.68,24.68,0,0,0-22.43-14.46,24.41,24.41,0,0,0-17.78,7.59l-3.44-3.3a29.13,29.13,0,0,1,21.22-9.06,29.45,29.45,0,0,1,26.77,17.26Z" transform="translate(-1904.8 -1852.32)"/><path id="_复合路径_6" data-name="&lt;复合路径&gt;" class="cls-1" d="M1956.76,1947.25a43,43,0,1,1,43-43A43.05,43.05,0,0,1,1956.76,1947.25Zm0-84.13a41.12,41.12,0,1,0,41.12,41.12A41.17,41.17,0,0,0,1956.76,1863.13Z" transform="translate(-1904.8 -1852.32)"/><path id="_复合路径_7" data-name="&lt;复合路径&gt;" class="cls-1" d="M1955.91,1956.23a51.8,51.8,0,0,1-17.54-3.34l0.81-2.13a49.51,49.51,0,0,0,16.77,3.19Zm17.61-2.76-0.72-2.16,0.72,2.12-0.71-2.12,0.74,2.15h0Zm5-2-1-2.07a49.67,49.67,0,0,0,14-9.71l1.6,1.62A51.9,51.9,0,0,1,1978.54,1951.47Zm-45.08-.73-0.11-.06,1.17-2-0.19.35,0.21-.34Zm-14.36-10.64a51.9,51.9,0,0,1-9.92-14.84l2.08-.92a49.65,49.65,0,0,0,9.48,14.19Zm84.36-13.07-0.89-.71-1.07-.38,1,0.34h0l-1-.36,1,0.33-0.81-.65,0.86,0.66-0.85-.68,0.85,0.68,1.13,0.38Zm2.23-4.48-2.14-.42a48.12,48.12,0,0,0,2.92-16.47h2.28A49.46,49.46,0,0,1,2005.7,1922.55Zm-98.41-2.29v0l2.16-.72-2.15.74,2.16-.72Zm-0.21-17.63-2.28-.07a51.69,51.69,0,0,1,3.62-17.48l2.12,0.84A49.43,49.43,0,0,0,1907.07,1902.63Zm97.5-12.06,2.15-.74v0Zm0,0,2.15-.74v0Zm-1.69-4.91a49.53,49.53,0,0,0-9-14.49l1.7-1.52a51.81,51.81,0,0,1,9.43,15.15Zm-90.23-4.35-2-1.08,0.06-.11,2,1.17-0.34-.18Zm10.42-13.61-1.54-1.67a51.87,51.87,0,0,1,15-9.67l0.89,2.1A49.63,49.63,0,0,0,1923.07,1867.69Zm57.29-7.22,0.09-.15-0.11.14,1.18-1.94,0.2,0.13Zm-4.52-2.14a49.36,49.36,0,0,0-16.66-3.74l0.11-2.28a51.68,51.68,0,0,1,17.42,3.91Zm-33.57-1.65-0.74-2.15h0l0.72,2.16-0.72-2.12Z" transform="translate(-1904.8 -1852.32)"/><path id="_复合路径_8" data-name="&lt;复合路径&gt;" class="cls-1" d="M1956.76,1954.12a49.88,49.88,0,1,1,49.88-49.88A49.93,49.93,0,0,1,1956.76,1954.12Zm0-97.94a48.06,48.06,0,1,0,48.06,48.06A48.12,48.12,0,0,0,1956.76,1856.19Z" transform="translate(-1904.8 -1852.32)"/></svg>