<svg preserveAspectRatio="none" id="Layer_1" data-name="Layer 1" xmlns="http://www.w3.org/2000/svg" viewBox="0 0 13.13 13.13"><defs><style>.cls-1{fill:#00b4e9}</style></defs><path class="cls-1" d="M225.77 75.48V72l-3 1.76zm-.32-.61l-2-1.15 2-1.15v2.3z" transform="translate(-222.72 -67.25)"/><path class="cls-1" d="M228.11 70l-3.4-.91.91 3.4zm-.66.2l-1.63 1.63-.59-2.22z" transform="translate(-222.72 -67.25)"/><path class="cls-1" d="M231.14 70.3l-1.76-3-1.76 3h3.52zm-2.91-.3l1.15-2 1.15 2h-2.3z" transform="translate(-222.72 -67.25)"/><path class="cls-1" d="M233.08 72.64l.91-3.4-3.4.91zm-.2-.66l-1.63-1.63 2.22-.59z" transform="translate(-222.72 -67.25)"/><path class="cls-1" d="M235.85 73.91l-3-1.76v3.52zm-.74 0l-2 1.15v-2.3z" transform="translate(-222.72 -67.25)"/><path class="cls-1" d="M233.86 78.53l-.91-3.4-2.49 2.49zm-1.12-2.74l.6 2.21-2.22-.6z" transform="translate(-222.72 -67.25)"/><path class="cls-1" d="M231 77.33h-3.52l1.76 3zm-.61.32l-1.15 2-1.15-2h2.3z" transform="translate(-222.72 -67.25)"/><path class="cls-1" d="M228 77.48L225.49 75l-.91 3.4zm-.66-.2l-2.22.59.6-2.22z" transform="translate(-222.72 -67.25)"/><circle class="cls-1" cx="6.47" cy="6.47" r=".97"/></svg>