<svg preserveAspectRatio="none" data-name="Layer 1" xmlns="http://www.w3.org/2000/svg" viewBox="0 0 122.86 153.53"><path d="M118.64 153.53h-.71l-.07-.3-.06.3h-.27v-.3l-.06.3h-.3l-.07-.3v.3h-.08v-.3.3h-.25l-.07-.3v-.3h.17l.11.3v-.3h.16v.3l.08-.3h.08l.08.3v-.3h1.18l.09.3v-.3h.57l.08.3v-.3c1 0 2 0 2.91-.06l-.33-9.39c-1.21 0-2.42.06-3.61.06a107.69 107.69 0 01-60.86-18.7l-5.31 7.76a116.35 116.35 0 0045.88 18.63l.68.12.55.09.09.32v-.3l.45.07v.31l.07-.29v.31l.09-.29 1.68.25.05.31.07-.3.66.1v.3l-.06.29h-.11v-.3l-.08.29-2.79-.42-.09-.32v.3l-.44-.08-.42-.08-.38-.06h-.13v-.08.08a117 117 0 01-46.33-18.86l-.25-.17 6-8.75.25.17a107.09 107.09 0 0060.76 18.69c1.28 0 2.59 0 3.89-.07h.3l.38 10.59h-.3c-1.05 0-2.1.06-3.16.07h-.76zm-2.21 0h-.39l-.06-.3v.3-.3l-.06.3v-.3.3h-.22l-.07-.3v.3l-.06-.3v.3l-.06-.3v.3h-.25l-.05-.3v.3h-.1l-.06-.3v.3h-.98v-.29l-.07.3h-.81l-.05-.3v.3l-.06-.3v.3H112.67v-.3.3h-.13v-.59h1.58l.07.3v-.3h1.07v.3-.3l.07.3v-.3h.08v.3-.3h.2v.3-.3h.08l.06.3v-.3h.23l.07.3v-.3l.08.3v-.3l.1.3v-.3h.17l.07.3zm-4.24-.14h-.28v-.3.3h-.16v-.3l-.08.3h-.3v-.3l-.05.3H110.72l-1.42-.16-.07-.31v.3l-.05-.3v.3l-.89-.07h-.33v-.3l-.05.3h-.3v-.3l-.09.29v-.3l-.1.29-.75-.08v-.3l-.06.3h-.31l-.71-.07h-.44v-.3l.15-.45h.41v.3-.3l.63.07h.26v.3l.06-.3h.15v.31l.09-.29.58.05.1.31v-.3l.08.31v-.3H109.21v.3l.08-.29h.66v.3l.05-.3v.3l.07-.3h.67v.3l.08-.3h.6l.09.3v-.3h.36v.6zm-7.26-.59l-.74-.09v-.3l-.13.29h-.15v-.3l-.11.29-.63-.08-.1-.32v.3h-.09v-.31.3h-.18l-.09-.31.1-.29h.15v.31-.3l.61.08v.3l.1-.29h.32v.3l.07-.29h.24l.66.07v.31zm-2.25-.28h-.2v-.31l.07-.29h.19zm-18.57-37.47a.3.3 0 11.3-.3.3.3 0 01-.3.29zM6.68 74.51l-.1-.28c-.53-1.53-1-3.08-1.51-4.62L4.4 67.3l.26-.18-.29.08-.76-2.84.26-.18-.29.09-.34-1.39.27-.15-.29.07-.07-.28.28-.11h-.3l-.24-1 .27-.17-.29.07-.06-.26.28-.15-.29.07-.15-.7.28-.13h-.3l-.05-.26-.42-2.06.28-.12h-.3v-.25l.28-.13h-.3v-.09l.27-.19-.29.06v-.07l.27-.18-.29.05v-.17l.29-.11h-.31v-.08l.27-.18-.29.06-.13-.72.28-.13-.3.05-.07-.41.28-.14-.29.06v-.23l.29-.1h-.31l-.05-.32.29-.09h-.3l-.06-.36.29-.11h-.3v-.2l.29-.09h-.3v-.08l.28-.12h-.3l-.12-.83.29-.11h-.3v-.27l.29-.1h-.3v-.08l.29-.1h-.3l.29-.1h-.3v-.08l.29-.08h-.31v-.16l.29-.08h-.31v-.01l.29-.12h-.3v-.17l.29-.12h-.3v.01l.28-.13h-.3l.28-.15h-.3v-.17l.29-.12h-.3v-.17l.29-.11h-.3l.29-.11h-.3v-.1l.29-.13h-.3l.29-.11h-.3v-.25l.29-.11h-.3v-.2l.29-.11h-.3v.17l.29-.1h-.3v-.08l.29-.1h-.31v-.34l.29-.1h-.3l.29-.1h-.3v-.09l.29-.09h-.3l.29-.11h-.3v-.08l.29-.1h-.31l.29-.1h-.3l-.05-.52.29-.08h-.3v-.08l.29-.13h-.3l.29-.11h-.3v-.08l.29-.11h-.3v-.18l.29-.13h-.3v-.16l.29-.1h-.3v.07l.29-.1h-.3l-.06-.73.29-.12h-.3v-.05l.29-.11H1l.29-.11h-.3v-.09l.29-.1h-.3v-.18l.29-.1h-.3v-.41l.29-.08H.3l.29-.11h-.3v-.08l.29-.09H.3v-.09l.29-.08h-.3v-.1l.29-.09H.3v-.11l.29-.09H.3v.02l.29-.08H.3v-.08l.3-.08H.3l.3-.08H.3v-.17l.3-.09H.3v-.09l.29-.09h-.3l.29-.1h-.3v-.14l.29-.09h-.3v-.64l.3-.08h-.3v-.36l.3-.08h-.3v-.09l.3-.08h-.3v-.17l.3-.09h-.3v-.18l.3-.08h-.3v-.16l.3-.08h-.3l.3-.08h-.3v-.16l.3-.09h-.3v-.09l.3-.08h-.3v-.59l.3-.08h-.3v-.09l.3-.08h-.3v-.48l.3-.06h-.3v-.16l.3-.08h-.3v-.44l.3-.07h-.3v-.19h.3-.3v-.09l.3-.06h-.3v-.55l.3-.08h-.3v-1.87l.3-.12h-.3v-.16l.03-.07H0l.3-.09H0l.3-.09H0v-.1l.3-.09H0v-.08l.3-.14H0v-.08l.3-.07H0l.3-.09H0v-.17l.3-.09H0v-.08l.3-.07H0v-.24l.3-.09H0v-.27l.3-.05H0v-.2l.3-.07H0v-.08l.3-.12H0v-.17l.3-.08H0v-.08l.3-.09H0v-.98l.3-.05-.3-.07.3-.06H0l.3-.06-.3-.08.3-.1H0l.3-.09H0v-.27l.3-.08H0v-.08l.3-.06-.3-.08v-.37l.31-.12h-.3v-.35l.31-.12h-.3l.06-1c0-.4.05-.79.08-1.19A118.13 118.13 0 015.07.34l.09-.29 10.13 3.13-.09.29a108.34 108.34 0 001.21 67.31l.1.28zm-1-5.08c.44 1.44.91 2.88 1.4 4.31l8.88-3.1a109 109 0 01-1.21-67.12l-9-2.77A117.51 117.51 0 00.94 26.23q0 .59-.08 1.18l-.05.84-.31.12h.3v.43l-.31.12h.3v.59l-.3.1h.3-.3.3v.11l-.3.09h.3v.15l-.31.12h.3v.24h-.3l.3.08-.3.07h.3v.31h-.3.3v.43l-.3.05h.3l-.3.07h.3l-.3.08h.3v.16l-.3.12h.3v.44l-.3.09h.3v.08l-.3.09h.3v.09l-.3.05h.3l-.3.1h.3l-.3.07h.3v.08l-.48.45h.3v.17l-.3.1h.3v.16l-.3.06h.3-.3l.3.05v.46l-.3.14h.3v.44l-.3.13h.3v1.42l-.3.08h.3v.16l-.3.08h.3v.4l-.3.06h.3v.71l-.3.09h.3v.16l-.3.13h.3v.58l-.3.08h.3l-.3.07h.3v.27l-.3.06h.3v.25l-.3.1h.3v.28L.3 40h.3v.05l-.3.09h.3v.28l-.3.08h.3l-.3.08h.3v.08l-.3.1h.3v.09l-.29.1h.3v.08l-.3.09h.3v.11l-.29.11h.3v.09l-.3.09h.3l-.3.09h.3l-.3.09h.3v.08l-.3.1h.3l-.29.11h.3v.16l-.29.1h.3v-.02l-.3.09h.3v.09l-.3.08h.3l-.29.09h.3v.17l-.3.08h.3v.27l-.29.08h.3l-.29.09h.3v.25l-.29.09h.3v.16l-.29.1h.3v.08l-.29.09h.3v.11l-.29.11h.3v.09l-.29.08h.3l-.29.09h.3v.08l-.29.09h.3l-.29.09h.3v.16l-.29.09h.3v.26l-.29.1h.3v.16l-.29.11h.3v.38l-.29.08h.3l-.29.09h.3v.02l-.29.08h.3v.18l-.29.13h.3v.08l-.29.1h.3l-.29.08h.3v.18l-.29.14h.3v.28l-.29.12h.3l-.29.15h.3v.17l-.29.1h.3v.28l-.29.11h.3l-.29.07h.7l-.29.11h.3l-.29.1h.3l.05.49-.29.09h.31v.07l-.29.1h.3v-.21l-.29.12h.3v.08l-.29.1h.3l-.29.11h.3v.08l-.29.1h.3v.09l-.29.1h.3l-.29.1h.3l-.29.1h.3v.08l-.29.08h.3v.16l-.29.1h.3v.09l-.29.11h.3v.19l-.29.1h.3v.08l-.29.11h.3v.08l-.28.16h.3v.16l-.28.13h.3v.24l-.29.11h.3l-.29.07h.3v.17l-.29.09h.3v.09l-.29.11h.3V53l-.29.1h.3l-.29.1h.3l.11.7-.28.14h.3l-.28.13.3-.05.09.54-.29.09h.3v.16l-.29.12h.3l-.28.12h.3l-.29.1h.3l-.28.13h.3l.05.32-.28.12H2l.05.31-.28.13.3-.06v.25l-.28.14.3-.05v.28l-.28.13.3-.05v.19l-.28.13h.3l-.28.13.29-.05.11.59-.28.11h.3l.07.36-.28.15.29-.06.11.51.2 1-.28.12h.31l.1.48-.28.14.3-.05.27 1.21-.27.16.29-.07.22.94-.27.16.29-.07v.21l-.28.11h.31l-.27.15.29-.07.14.59-.27.15.29-.07.11.45-.27.15.29-.07v.09l-.27.15.29-.07v.11l-.27.15.29-.07-.27.15.29-.08.15.58.3 1.12-.26.19.29-.08.23.84-.26.17.29-.08-.26.17.29-.08z" fill="#00aeef" opacity=".6"/></svg>