<svg preserveAspectRatio="none" id="Layer_4" data-name="Layer 4" xmlns="http://www.w3.org/2000/svg" xmlns:xlink="http://www.w3.org/1999/xlink" viewBox="0 0 251.28 251.28"><defs><style>.cls-1{fill:none;}.cls-2{fill:#ff1493;}.cls-3{fill:url(#New_Pattern_Swatch_4);}.cls-4{fill:#f79139;}.cls-5{fill:#03a6ff;}.cls-6{fill:#00558d;}</style><pattern id="New_Pattern_Swatch_4" data-name="New Pattern Swatch 4" width="30" height="30" patternUnits="userSpaceOnUse" viewBox="0 0 30 30"><rect class="cls-1" width="30" height="30"/><rect class="cls-2" width="30" height="30"/></pattern></defs><title>shape59</title><path class="cls-3" d="M2267.76,547.59c-2.61,0-4.63-5.07-6.77-10.43-1.88-4.72-3.83-9.59-5.93-9.89s-5.48,3.9-8.67,8c-3.5,4.47-6.81,8.68-9.22,8s-3-6.13-3.52-11.85c-0.48-5.08-1-10.34-2.92-11.23s-6.32,2.18-10.51,5.17c-4.64,3.31-9,6.43-11.16,5.06s-1.12-6.7,0-12.32c1-5,2-10.24.36-11.65s-6.65.32-11.5,2c-5.4,1.88-10.5,3.65-12.18,1.72s0.8-6.72,3.42-11.79c2.36-4.57,4.79-9.29,3.62-11.12s-6.45-1.55-11.56-1.3c-5.73.28-11.14,0.55-12.21-1.78s2.66-6.19,6.59-10.3c3.56-3.73,7.25-7.59,6.63-9.69s-5.72-3.29-10.67-4.48c-5.6-1.36-10.89-2.64-11.26-5.2s4.28-5.14,9.18-8c4.5-2.59,9.15-5.26,9.15-7.48s-4.65-4.89-9.15-7.48c-4.9-2.82-9.54-5.48-9.18-8s5.66-3.85,11.26-5.2c4.95-1.2,10.07-2.44,10.67-4.48s-3.07-6-6.63-9.69c-3.93-4.11-7.64-8-6.59-10.3s6.48-2.07,12.21-1.78c5.11,0.25,10.39.51,11.56-1.3s-1.26-6.55-3.62-11.12c-2.62-5.07-5.09-9.87-3.42-11.79s6.78-.16,12.18,1.72c4.85,1.68,9.86,3.43,11.5,2s0.62-6.62-.36-11.65c-1.09-5.62-2.13-10.93,0-12.32s6.52,1.75,11.16,5.06c4.19,3,8.53,6.07,10.51,5.17s2.44-6.15,2.92-11.23c0.54-5.72,1-11.13,3.52-11.86s5.72,3.51,9.22,8c3.19,4.07,6.49,8.28,8.67,8s4-5.17,5.93-9.89c2.14-5.36,4.17-10.43,6.77-10.43s4.63,5.07,6.77,10.43c1.88,4.72,3.83,9.59,5.93,9.89s5.48-3.9,8.67-8c3.5-4.47,6.8-8.69,9.22-8s3,6.13,3.52,11.86c0.48,5.08,1,10.34,2.92,11.23s6.32-2.18,10.51-5.17c4.64-3.31,9-6.43,11.16-5.06s1.12,6.7,0,12.32c-1,5-2,10.23-.36,11.65s6.65-.32,11.5-2c5.4-1.88,10.5-3.65,12.18-1.72s-0.8,6.72-3.42,11.79c-2.36,4.57-4.79,9.29-3.62,11.12s6.45,1.55,11.56,1.3c5.73-.28,11.14-0.55,12.21,1.78s-2.66,6.19-6.59,10.3c-3.56,3.73-7.25,7.59-6.63,9.69s5.72,3.29,10.67,4.48c5.6,1.36,10.89,2.64,11.26,5.2s-4.28,5.14-9.18,8c-4.5,2.59-9.15,5.26-9.15,7.48s4.65,4.89,9.15,7.48c4.9,2.82,9.54,5.48,9.18,8s-5.66,3.85-11.26,5.2c-4.95,1.2-10.07,2.44-10.67,4.48s3.07,6,6.63,9.69c3.93,4.11,7.64,8,6.59,10.3s-6.48,2.07-12.21,1.78c-5.11-.25-10.4-0.51-11.56,1.3s1.26,6.55,3.62,11.12c2.62,5.07,5.09,9.87,3.42,11.79s-6.77.16-12.18-1.72c-4.85-1.68-9.86-3.43-11.5-2s-0.62,6.62.36,11.65c1.09,5.62,2.13,10.93,0,12.32s-6.52-1.75-11.16-5.06c-4.19-3-8.53-6.08-10.51-5.17s-2.44,6.15-2.92,11.23c-0.54,5.72-1,11.13-3.52,11.86s-5.72-3.51-9.22-8c-3.19-4.07-6.49-8.28-8.67-8s-4,5.17-5.93,9.89C2272.39,542.52,2270.36,547.59,2267.76,547.59Zm-12.93-20.82,0.3,0c2.38,0.34,4.29,5.12,6.31,10.19s4,10.13,6.32,10.13,4.33-5.15,6.32-10.13,3.94-9.85,6.31-10.19,5.7,3.78,9.12,8.15c3.25,4.14,6.61,8.43,8.7,7.81s2.68-6.12,3.18-11.43c0.51-5.46,1-10.62,3.2-11.63s6.49,2,11,5.22c4.31,3.07,8.76,6.24,10.62,5s0.83-6.6-.19-11.82c-1.05-5.41-2-10.51-.2-12.11s6.77,0.1,12,1.91c5,1.74,10.19,3.54,11.65,1.86s-1.06-6.54-3.49-11.25c-2.53-4.91-4.92-9.54-3.59-11.61s6.5-1.79,12-1.52c5.32,0.26,10.81.54,11.74-1.5s-2.85-5.95-6.5-9.76c-3.83-4-7.44-7.79-6.75-10.16s5.7-3.53,11-4.82,10.57-2.56,10.89-4.8-4.4-4.86-8.94-7.47c-4.83-2.78-9.39-5.4-9.39-7.9s4.56-5.12,9.39-7.9c4.55-2.62,9.25-5.32,8.94-7.47s-5.69-3.54-10.89-4.8-10.34-2.5-11-4.82,2.92-6.16,6.75-10.16c3.65-3.82,7.41-7.76,6.5-9.76s-6.43-1.77-11.74-1.5c-5.49.27-10.68,0.53-12-1.52s1.06-6.7,3.59-11.61c2.43-4.71,4.94-9.57,3.49-11.25s-6.64.12-11.65,1.86c-5.21,1.81-10.13,3.52-12,1.91s-0.85-6.71.2-12.11c1-5.22,2.06-10.61.19-11.82s-6.31,2-10.62,5c-4.5,3.21-8.76,6.24-11,5.22s-2.69-6.17-3.2-11.63c-0.5-5.31-1-10.8-3.18-11.43s-5.46,3.67-8.7,7.81c-3.43,4.37-6.66,8.51-9.12,8.15s-4.29-5.12-6.31-10.19-4-10.13-6.32-10.13-4.33,5.15-6.32,10.13-3.94,9.85-6.31,10.19-5.7-3.78-9.12-8.15c-3.25-4.14-6.6-8.43-8.7-7.81s-2.68,6.12-3.18,11.43c-0.51,5.46-1,10.62-3.2,11.63s-6.49-2-11-5.21c-4.31-3.07-8.76-6.24-10.62-5s-0.83,6.6.19,11.82c1.05,5.41,2,10.51.2,12.11s-6.77-.1-12-1.91c-5-1.74-10.19-3.54-11.65-1.86s1.06,6.54,3.49,11.25c2.53,4.91,4.92,9.54,3.59,11.61s-6.5,1.79-12,1.52c-5.32-.26-10.81-0.54-11.74,1.5s2.85,5.95,6.5,9.76c3.83,4,7.44,7.79,6.75,10.16s-5.7,3.53-11,4.82-10.57,2.56-10.89,4.8,4.4,4.86,8.94,7.47c4.83,2.78,9.39,5.4,9.39,7.9s-4.56,5.12-9.39,7.9c-4.55,2.62-9.25,5.32-8.94,7.47s5.69,3.54,10.89,4.8,10.34,2.5,11,4.82-2.92,6.16-6.75,10.16c-3.65,3.82-7.41,7.76-6.5,9.76s6.43,1.76,11.74,1.5c5.49-.27,10.68-0.53,12,1.52s-1.06,6.7-3.59,11.61c-2.43,4.71-4.94,9.57-3.49,11.25s6.64-.12,11.65-1.86c5.21-1.81,10.13-3.52,12-1.91s0.85,6.71-.2,12.11c-1,5.21-2.06,10.61-.19,11.82s6.31-2,10.62-5c4.5-3.21,8.76-6.24,11-5.22s2.69,6.17,3.21,11.63c0.5,5.31,1,10.8,3.18,11.43s5.46-3.67,8.7-7.81S2252.4,526.76,2254.82,526.76Z" transform="translate(-2142.12 -313.35)"/><path class="cls-4" d="M2267.76,541.41c-5,0-9.49-3.45-13.85-6.79-3.44-2.64-6.69-5.13-10.15-6.06-3.65-1-8-.41-12.25.13-5.33.68-10.85,1.39-15-1s-6.35-7.61-8.43-12.62c-1.62-3.9-3.29-7.93-5.9-10.54s-6.64-4.29-10.54-5.9c-5-2.08-10.19-4.23-12.62-8.43s-1.67-9.63-1-15c0.54-4.23,1.1-8.6.13-12.25-0.93-3.46-3.42-6.71-6.06-10.16-3.34-4.35-6.79-8.86-6.79-13.85s3.45-9.49,6.79-13.85c2.64-3.44,5.13-6.69,6.06-10.16,1-3.65.41-8-.13-12.25-0.68-5.33-1.39-10.85,1-15s7.61-6.35,12.62-8.43c3.9-1.62,7.93-3.29,10.54-5.9s4.29-6.64,5.9-10.54c2.08-5,4.23-10.19,8.43-12.62s9.63-1.67,15-1c4.23,0.54,8.6,1.1,12.25.13,3.46-.93,6.71-3.42,10.16-6.06,4.35-3.34,8.86-6.79,13.85-6.79s9.49,3.45,13.85,6.79c3.44,2.64,6.69,5.13,10.16,6.06,3.65,1,8,.41,12.25-0.13,5.33-.68,10.85-1.39,15,1s6.35,7.61,8.43,12.62c1.62,3.9,3.29,7.93,5.9,10.54s6.64,4.29,10.54,5.9c5,2.08,10.19,4.23,12.62,8.43s1.67,9.63,1,15c-0.54,4.23-1.1,8.6-.13,12.25,0.93,3.46,3.42,6.71,6.06,10.16,3.34,4.35,6.79,8.86,6.79,13.85s-3.45,9.49-6.79,13.85c-2.64,3.44-5.13,6.69-6.06,10.16-1,3.65-.41,8,0.13,12.25,0.68,5.33,1.39,10.85-1,15s-7.61,6.35-12.62,8.43c-3.9,1.62-7.93,3.29-10.54,5.9s-4.29,6.64-5.9,10.54c-2.08,5-4.23,10.19-8.43,12.62s-9.63,1.67-15,1c-4.23-.54-8.6-1.1-12.25-0.13-3.46.93-6.71,3.42-10.16,6.06C2277.25,538,2272.75,541.41,2267.76,541.41Zm-28.64-13.87a18.46,18.46,0,0,1,4.76.55c3.56,1,7,3.59,10.33,6.14,4.29,3.29,8.73,6.69,13.55,6.69s9.26-3.4,13.55-6.69c3.33-2.55,6.77-5.19,10.33-6.14,3.74-1,8.16-.43,12.44.12,5.25,0.67,10.68,1.37,14.66-.93s6.17-7.45,8.22-12.38c1.64-3.94,3.33-8,6-10.7s6.76-4.37,10.7-6c4.93-2,10-4.17,12.38-8.22s1.6-9.41.93-14.66c-0.55-4.28-1.12-8.7-.12-12.44,1-3.56,3.59-7,6.14-10.33,3.29-4.29,6.69-8.73,6.69-13.55s-3.4-9.26-6.69-13.55c-2.55-3.33-5.19-6.77-6.14-10.33-1-3.74-.43-8.16.12-12.44,0.67-5.25,1.37-10.68-.93-14.66s-7.45-6.17-12.38-8.22c-3.94-1.64-8-3.33-10.7-6s-4.37-6.76-6-10.7c-2-4.93-4.17-10-8.22-12.38s-9.4-1.6-14.66-.93c-4.28.55-8.7,1.12-12.44,0.12-3.56-1-7-3.59-10.33-6.14-4.29-3.29-8.73-6.69-13.55-6.69s-9.26,3.4-13.55,6.69c-3.33,2.55-6.77,5.19-10.33,6.14-3.74,1-8.16.43-12.44-.12-5.25-.67-10.68-1.37-14.66.93s-6.17,7.45-8.22,12.38c-1.64,3.94-3.33,8-6,10.7s-6.76,4.37-10.7,6c-4.93,2-10,4.17-12.38,8.22s-1.6,9.41-.93,14.66c0.55,4.28,1.12,8.7.12,12.44-1,3.56-3.59,7-6.14,10.33-3.29,4.29-6.69,8.73-6.69,13.55s3.4,9.26,6.69,13.55c2.55,3.33,5.19,6.77,6.14,10.33,1,3.74.43,8.16-.12,12.44-0.67,5.25-1.37,10.68.93,14.66s7.45,6.17,12.38,8.22c3.94,1.64,8,3.33,10.7,6s4.37,6.76,6,10.7c2,4.93,4.17,10,8.22,12.38s9.41,1.6,14.66.93A61.56,61.56,0,0,1,2239.12,527.54Z" transform="translate(-2142.12 -313.35)"/><path class="cls-5" d="M2250.6,559.54h-0.15c-2.47-.35-2.8-8.48-3.05-21.83-0.18-9.56-.38-20.39-2.47-21s-8.24,8.49-13.63,16.54c-7.32,11-11.93,17.54-14.15,16.52s-0.27-8.88,3.25-21.7c2.55-9.26,5.43-19.75,3.59-20.94s-10.26,5.8-17.67,12c-10.16,8.47-16.46,13.5-18.31,11.9s2.24-8.57,9.19-19.84c5.06-8.2,10.8-17.49,9.35-19.16s-11.44,2.69-20.26,6.54c-12.16,5.3-19.64,8.37-21,6.3s4.54-7.57,14.36-16.4c7.18-6.46,15.32-13.79,14.4-15.81s-11.68-.63-21.19.56c-13.21,1.66-21.29,2.49-22,.11s6.47-5.93,18.33-11.6c8.76-4.18,18.69-8.93,18.37-11.15s-11-3.87-20.37-5.4C2154,443,2146,441.5,2146,439s8-4,21.24-6.15c9.41-1.53,20.07-3.27,20.37-5.4s-9.61-7-18.37-11.15c-11.86-5.67-19-9.27-18.33-11.6s8.77-1.55,22,.11c9.51,1.19,20.28,2.55,21.19.56s-7.22-9.35-14.4-15.81c-9.82-8.83-15.68-14.35-14.36-16.4s8.82,1,21,6.3c8.82,3.84,18.81,8.2,20.26,6.54s-4.29-11-9.35-19.16c-7-11.27-11.05-18.23-9.19-19.84s8.15,3.42,18.31,11.9c7.41,6.18,15.8,13.19,17.67,12s-1-11.68-3.59-20.94c-3.52-12.81-5.5-20.67-3.25-21.7s6.82,5.57,14.15,16.52c5.38,8,11.47,17.18,13.63,16.54s2.29-11.44,2.47-21c0.25-13.35.58-21.48,3.05-21.83s4.93,7.23,8.84,19.74c2.91,9.29,6.2,19.83,8.46,19.83s5.56-10.54,8.46-19.83c3.91-12.51,6.48-20.08,8.84-19.74s2.8,8.48,3.05,21.83c0.18,9.56.38,20.39,2.47,21s8.24-8.49,13.63-16.54c7.32-11,11.93-17.54,14.15-16.52s0.27,8.88-3.25,21.7c-2.55,9.26-5.43,19.75-3.59,20.94s10.26-5.81,17.67-12c10.16-8.47,16.46-13.5,18.31-11.9s-2.24,8.57-9.19,19.84c-5.06,8.2-10.8,17.49-9.35,19.16s11.44-2.69,20.26-6.54c12.16-5.3,19.64-8.37,21-6.3s-4.54,7.57-14.36,16.4c-7.18,6.46-15.32,13.79-14.4,15.81s11.69,0.63,21.19-.56c13.21-1.66,21.29-2.49,22-.11s-6.47,5.93-18.33,11.6c-8.76,4.18-18.69,8.93-18.37,11.15s11,3.87,20.37,5.4c13.21,2.15,21.24,3.64,21.24,6.15s-8,4-21.24,6.15c-9.41,1.53-20.07,3.27-20.37,5.4s9.61,7,18.37,11.15c11.86,5.67,19,9.27,18.33,11.6s-8.77,1.55-22-.11c-9.51-1.19-20.28-2.55-21.19-.56s7.22,9.35,14.4,15.81c9.82,8.83,15.68,14.35,14.36,16.4s-8.82-1-21-6.3c-8.82-3.84-18.82-8.2-20.26-6.54s4.29,11,9.35,19.16c7,11.27,11.05,18.23,9.19,19.84s-8.15-3.42-18.31-11.9c-7.41-6.18-15.8-13.18-17.67-12s1,11.68,3.59,20.94c3.52,12.81,5.5,20.67,3.25,21.7s-6.82-5.57-14.15-16.52c-5.38-8-11.48-17.17-13.63-16.54s-2.29,11.44-2.47,21c-0.25,13.35-.58,21.48-3.05,21.83s-4.93-7.23-8.84-19.74c-2.91-9.3-6.2-19.83-8.46-19.83s-5.56,10.53-8.46,19.83C2255.47,552,2252.95,559.54,2250.6,559.54Zm-5.85-43.35a1.12,1.12,0,0,1,.32,0c2.26,0.66,2.57,8.55,2.82,21.45,0.19,9.86.4,21,2.63,21.36h0.09c2.15,0,5.37-10.3,8.22-19.41,3.24-10.37,6.31-20.17,8.92-20.17s5.68,9.8,8.93,20.17c2.89,9.24,6.14,19.71,8.31,19.4s2.45-11.5,2.63-21.36c0.24-12.91.55-20.79,2.82-21.45,2.48-.72,8.16,7.76,14.17,16.74,5.41,8.09,11.54,17.27,13.54,16.35s-0.92-11.66-3.52-21.13c-3.44-12.51-5.38-20.19-3.38-21.48,2.16-1.39,10,5.12,18.24,12,7.5,6.26,16,13.35,17.68,11.9s-4.15-10.89-9.29-19.22c-5.65-9.15-11-17.79-9.3-19.73s8.91,1.22,20.82,6.41c9,3.92,19.17,8.35,20.37,6.48s-7-9.25-14.27-15.78c-8-7.22-15.59-14-14.51-16.38,1-2.16,8.85-1.33,21.7.28,9.76,1.23,20.83,2.61,21.46.46s-9.32-6.84-18.08-11c-9.78-4.67-19-9.08-18.64-11.66,0.33-2.32,8.07-3.75,20.77-5.82,9.76-1.59,20.83-3.39,20.83-5.67s-11.07-4.08-20.83-5.67c-12.71-2.07-20.44-3.49-20.78-5.82-0.37-2.58,8.87-7,18.64-11.66,8.76-4.18,18.69-8.93,18.08-11s-11.7-.77-21.46.46c-12.84,1.61-20.71,2.43-21.69.28-1.07-2.35,6.5-9.16,14.51-16.38,7.25-6.53,15.47-13.92,14.27-15.78s-11.39,2.56-20.37,6.48c-11.91,5.19-19.25,8.21-20.82,6.41s3.66-10.58,9.3-19.73c5.14-8.33,11-17.76,9.29-19.22S2337,353,2329.5,359.25s-14.64,12.21-17.51,12.21a1.34,1.34,0,0,1-.74-0.19c-2-1.29-.06-9,3.38-21.48,2.6-9.47,5.55-20.2,3.52-21.13s-8.13,8.26-13.54,16.35c-6,9-11.68,17.47-14.17,16.74-2.26-.66-2.57-8.55-2.82-21.45-0.19-9.86-.4-21-2.63-21.36h-0.09c-2.15,0-5.37,10.3-8.22,19.41-3.24,10.37-6.31,20.17-8.93,20.17s-5.68-9.8-8.92-20.17c-2.89-9.24-6.18-19.72-8.31-19.41s-2.45,11.5-2.63,21.36c-0.24,12.91-.55,20.79-2.82,21.45a1.13,1.13,0,0,1-.32,0c-2.63,0-8.09-8.16-13.85-16.78-5.41-8.09-11.54-17.26-13.54-16.35s0.92,11.66,3.52,21.13c3.44,12.51,5.38,20.19,3.38,21.48-2.16,1.39-10-5.12-18.24-12-7.5-6.26-16-13.36-17.68-11.9s4.15,10.89,9.29,19.22c5.65,9.15,11,17.79,9.3,19.73s-8.91-1.22-20.82-6.41c-9-3.92-19.17-8.35-20.37-6.48s7,9.25,14.27,15.78c8,7.22,15.59,14,14.51,16.38-1,2.16-8.85,1.33-21.69-.28-9.76-1.22-20.83-2.61-21.46-.46s9.32,6.84,18.08,11c9.78,4.67,19,9.08,18.64,11.66-0.33,2.32-8.07,3.75-20.78,5.82-9.76,1.59-20.83,3.39-20.83,5.67s11.07,4.08,20.83,5.67c12.71,2.07,20.44,3.49,20.77,5.82,0.37,2.58-8.87,7-18.64,11.66-8.76,4.19-18.69,8.93-18.08,11s11.7,0.77,21.46-.46c12.84-1.61,20.71-2.43,21.69-.28,1.07,2.35-6.5,9.16-14.52,16.38-7.25,6.53-15.47,13.92-14.27,15.78s11.39-2.56,20.37-6.48c11.91-5.19,19.25-8.21,20.82-6.41s-3.65,10.58-9.3,19.73c-5.14,8.33-11,17.76-9.29,19.22s10.18-5.64,17.68-11.9c8.27-6.9,16.09-13.41,18.24-12,2,1.29.06,9-3.38,21.48-2.6,9.47-5.55,20.2-3.52,21.13s8.13-8.26,13.54-16.35C2236.66,524.35,2242.12,516.19,2244.75,516.19Z" transform="translate(-2142.12 -313.35)"/><path class="cls-6" d="M2267.76,544.63c-0.94,0-1.73-1.27-2.56-2.61-0.68-1.09-1.45-2.33-2.1-2.36s-1.55,1.14-2.33,2.17c-0.94,1.25-1.83,2.43-2.76,2.35s-1.6-1.42-2.31-2.83c-0.58-1.15-1.23-2.45-1.88-2.54s-1.64,1-2.52,1.95c-1.06,1.16-2,2.26-3,2.08s-1.46-1.56-2-3c-0.47-1.2-1-2.55-1.63-2.7s-1.73.83-2.68,1.7c-1.16,1.06-2.25,2.05-3.15,1.8s-1.31-1.69-1.74-3.2c-0.35-1.24-.75-2.64-1.38-2.85s-1.8.67-2.83,1.45c-1.25.94-2.44,1.84-3.31,1.5s-1.15-1.8-1.44-3.35c-0.24-1.27-.51-2.7-1.11-3s-1.85.5-2.95,1.18c-1.34.82-2.6,1.6-3.43,1.19s-1-1.9-1.12-3.46c-0.12-1.28-.25-2.73-0.83-3.06s-1.89.33-3,.9c-1.41.7-2.74,1.36-3.53,0.86s-0.79-2-.8-3.55c0-1.29,0-2.75-.54-3.12s-1.91.15-3.11,0.62c-1.47.56-2.85,1.1-3.6,0.53s-0.61-2-.46-3.61c0.12-1.28.25-2.74-.25-3.16s-1.91,0-3.15.33c-1.51.43-2.94,0.83-3.63,0.2s-0.42-2.09-.13-3.64c0.24-1.27.5-2.7,0-3.17s-1.9-.2-3.17,0c-1.55.29-3,.56-3.63-0.13s-0.23-2.12.2-3.63c0.35-1.24.75-2.65,0.33-3.15s-1.87-.37-3.16-0.25c-1.57.14-3,.28-3.61-0.46s0-2.13.53-3.6c0.46-1.2,1-2.57.62-3.11s-1.83-.54-3.12-0.54c-1.57,0-3.06,0-3.55-.8s0.17-2.12.86-3.53c0.57-1.16,1.22-2.47.9-3s-1.77-.71-3.06-0.83c-1.57-.15-3-0.28-3.46-1.12s0.36-2.1,1.19-3.43c0.68-1.1,1.45-2.34,1.18-2.95s-1.7-.87-3-1.11c-1.55-.29-3-0.56-3.35-1.44s0.55-2.05,1.5-3.31c0.78-1,1.66-2.2,1.45-2.83s-1.61-1-2.85-1.38c-1.51-.43-2.94-0.84-3.2-1.74s0.74-2,1.8-3.15c0.87-1,1.86-2,1.7-2.68s-1.51-1.17-2.7-1.63c-1.47-.57-2.86-1.11-3-2s0.92-1.91,2.08-3c1-.87,2-1.86,1.95-2.52s-1.39-1.3-2.54-1.88c-1.41-.71-2.74-1.37-2.83-2.31s1.1-1.82,2.35-2.76c1-.78,2.2-1.66,2.17-2.33s-1.27-1.42-2.36-2.1c-1.34-.83-2.61-1.62-2.61-2.56s1.27-1.73,2.61-2.56c1.09-.68,2.33-1.45,2.36-2.1s-1.14-1.55-2.17-2.33c-1.25-.94-2.43-1.84-2.35-2.76s1.42-1.6,2.83-2.31c1.15-.58,2.45-1.23,2.54-1.88s-1-1.64-1.95-2.52c-1.16-1.06-2.25-2.05-2.08-3s1.56-1.46,3-2c1.2-.47,2.56-1,2.7-1.63s-0.83-1.73-1.7-2.68c-1.06-1.16-2.05-2.26-1.8-3.15s1.69-1.31,3.2-1.74c1.24-.35,2.64-0.75,2.85-1.38s-0.67-1.8-1.45-2.83c-0.94-1.25-1.84-2.44-1.5-3.31s1.8-1.15,3.35-1.44c1.26-.24,2.7-0.51,3-1.11s-0.5-1.85-1.18-2.95c-0.82-1.34-1.6-2.6-1.19-3.43s1.9-1,3.46-1.12c1.28-.12,2.74-0.25,3.06-0.83s-0.33-1.89-.9-3c-0.7-1.41-1.36-2.74-.86-3.53s2-.8,3.55-0.8c1.29,0,2.75,0,3.12-.54s-0.15-1.91-.62-3.11c-0.56-1.47-1.1-2.85-.54-3.6s2-.61,3.61-0.46c1.28,0.12,2.74.25,3.16-.25s0-1.91-.33-3.15c-0.43-1.51-.83-2.94-0.2-3.63s2.09-.42,3.63-0.13c1.27,0.24,2.7.5,3.17,0s0.2-1.9,0-3.17c-0.29-1.55-.56-3,0.13-3.64s2.12-.23,3.63.2c1.24,0.35,2.65.75,3.15,0.33s0.37-1.88.25-3.16c-0.14-1.57-.28-3,0.46-3.61s2.13,0,3.6.54c1.2,0.46,2.57,1,3.11.62s0.54-1.83.54-3.12c0-1.57,0-3.06.8-3.55s2.12,0.17,3.53.86c1.16,0.57,2.47,1.22,3,.9s0.71-1.77.83-3.06c0.15-1.57.28-3,1.12-3.46s2.1,0.36,3.43,1.19c1.1,0.68,2.34,1.45,2.95,1.18s0.87-1.7,1.11-3c0.29-1.55.56-3,1.44-3.35s2.05,0.56,3.31,1.5c1,0.78,2.2,1.66,2.83,1.45s1-1.61,1.38-2.85c0.43-1.51.84-2.94,1.74-3.2s2,0.74,3.15,1.8c1,0.87,2,1.85,2.68,1.71s1.17-1.51,1.63-2.7c0.57-1.47,1.11-2.85,2-3s1.91,0.92,3,2.08c0.87,1,1.86,2,2.52,1.95s1.3-1.39,1.88-2.54c0.71-1.41,1.37-2.74,2.31-2.83s1.82,1.1,2.76,2.35c0.78,1,1.67,2.22,2.33,2.17s1.42-1.27,2.1-2.36c0.83-1.34,1.62-2.61,2.56-2.61s1.73,1.27,2.56,2.61c0.68,1.09,1.45,2.33,2.1,2.36s1.55-1.14,2.33-2.17c0.94-1.25,1.82-2.43,2.76-2.35s1.6,1.42,2.31,2.83c0.58,1.15,1.23,2.45,1.88,2.54s1.64-1,2.52-1.95c1.06-1.16,2.05-2.25,3-2.08s1.46,1.56,2,3c0.47,1.2,1,2.56,1.63,2.7s1.73-.83,2.68-1.71c1.16-1.06,2.26-2.05,3.15-1.8s1.31,1.69,1.74,3.2c0.35,1.24.76,2.64,1.38,2.85s1.8-.67,2.83-1.45c1.25-.94,2.44-1.83,3.31-1.5s1.15,1.8,1.44,3.35c0.24,1.26.51,2.7,1.11,3s1.85-.5,2.95-1.18c1.34-.82,2.6-1.6,3.43-1.19s1,1.9,1.12,3.46c0.12,1.28.25,2.73,0.83,3.06s1.89-.33,3-0.9c1.41-.7,2.74-1.36,3.53-0.86s0.79,2,.8,3.55c0,1.29,0,2.75.54,3.12s1.91-.15,3.11-0.62c1.47-.56,2.85-1.1,3.6-0.54s0.61,2,.46,3.61c-0.12,1.28-.25,2.74.25,3.16s1.91,0,3.15-.33c1.51-.43,2.94-0.83,3.63-0.2s0.42,2.09.13,3.63c-0.24,1.27-.5,2.7,0,3.17s1.9,0.2,3.17,0c1.55-.29,3-0.56,3.63.13s0.23,2.12-.2,3.63c-0.35,1.24-.75,2.65-0.33,3.15s1.88,0.37,3.16.25c1.57-.14,3-0.28,3.61.46s0,2.13-.54,3.6c-0.46,1.2-1,2.57-.62,3.11s1.83,0.54,3.12.54c1.57,0,3.06,0,3.55.8s-0.17,2.12-.86,3.53c-0.57,1.16-1.22,2.47-.9,3s1.77,0.71,3.06.83c1.57,0.15,3,.28,3.46,1.12s-0.36,2.1-1.19,3.43c-0.68,1.1-1.45,2.34-1.18,2.95s1.7,0.87,3,1.11c1.55,0.29,3,.56,3.35,1.44s-0.56,2.05-1.5,3.31c-0.78,1-1.66,2.2-1.45,2.83s1.61,1,2.85,1.38c1.51,0.43,2.95.84,3.2,1.74s-0.74,2-1.8,3.15c-0.87,1-1.86,2-1.7,2.68s1.51,1.17,2.7,1.63c1.47,0.57,2.86,1.11,3,2s-0.92,1.91-2.08,3c-1,.87-2,1.86-1.95,2.52s1.39,1.3,2.54,1.88c1.41,0.71,2.74,1.37,2.83,2.31s-1.1,1.82-2.35,2.76c-1,.78-2.2,1.66-2.17,2.33s1.27,1.42,2.36,2.1c1.34,0.83,2.61,1.62,2.61,2.56s-1.27,1.73-2.61,2.56c-1.09.68-2.33,1.45-2.36,2.1s1.14,1.55,2.17,2.33c1.25,0.94,2.43,1.84,2.35,2.76s-1.42,1.6-2.83,2.31c-1.15.58-2.45,1.23-2.54,1.88s1,1.64,1.95,2.52c1.16,1.06,2.25,2.05,2.08,3s-1.56,1.46-3,2c-1.2.47-2.56,1-2.7,1.63s0.83,1.73,1.7,2.68c1.06,1.16,2.05,2.26,1.8,3.15s-1.69,1.31-3.2,1.74c-1.24.35-2.64,0.75-2.85,1.38s0.67,1.8,1.45,2.83c0.94,1.25,1.84,2.44,1.5,3.31s-1.8,1.15-3.35,1.44c-1.26.24-2.7,0.51-3,1.11s0.5,1.85,1.18,2.95c0.82,1.34,1.6,2.6,1.19,3.43s-1.9,1-3.46,1.12c-1.28.12-2.74,0.25-3.06,0.83s0.33,1.89.9,3c0.7,1.41,1.36,2.74.86,3.53s-2,.79-3.55.8c-1.29,0-2.75,0-3.12.54s0.15,1.91.62,3.11c0.56,1.47,1.1,2.85.53,3.6s-2,.61-3.61.46c-1.28-.12-2.74-0.25-3.16.25s0,1.91.33,3.15c0.43,1.51.83,2.94,0.2,3.63s-2.09.42-3.63,0.13c-1.27-.24-2.7-0.5-3.17,0s-0.2,1.9,0,3.17c0.29,1.55.56,3-.13,3.63s-2.12.23-3.63-.2c-1.24-.35-2.65-0.75-3.15-0.33s-0.37,1.88-.25,3.16c0.14,1.57.28,3-.46,3.61s-2.13,0-3.6-.54c-1.2-.46-2.57-1-3.11-0.62s-0.54,1.83-.54,3.12c0,1.57,0,3.06-.8,3.55s-2.12-.17-3.53-0.86c-1.16-.57-2.47-1.22-3-0.9s-0.71,1.77-.83,3.06c-0.15,1.57-.28,3-1.12,3.46s-2.1-.36-3.43-1.19c-1.1-.68-2.34-1.45-2.95-1.18s-0.87,1.7-1.11,3c-0.29,1.55-.56,3-1.44,3.35s-2.05-.56-3.31-1.5c-1-.78-2.2-1.66-2.83-1.45s-1,1.61-1.38,2.85c-0.43,1.51-.84,2.94-1.74,3.2s-2-.74-3.15-1.8c-1-.87-2-1.85-2.68-1.7s-1.17,1.51-1.63,2.7c-0.57,1.47-1.11,2.86-2,3s-1.91-.92-3-2.08c-0.87-1-1.86-2-2.52-1.95s-1.3,1.39-1.88,2.54c-0.71,1.41-1.37,2.74-2.31,2.83s-1.82-1.1-2.76-2.35c-0.78-1-1.64-2.2-2.33-2.17s-1.42,1.27-2.1,2.36C2269.48,543.37,2268.7,544.63,2267.76,544.63Zm-4.68-5.45h0c0.91,0,1.68,1.28,2.49,2.59,0.69,1.11,1.48,2.38,2.15,2.38s1.45-1.26,2.15-2.38c0.81-1.31,1.58-2.54,2.49-2.59s1.8,1.13,2.74,2.36c0.78,1,1.69,2.21,2.33,2.15s1.33-1.39,1.92-2.56c0.69-1.38,1.34-2.68,2.24-2.8s1.9,1,2.94,2.1c0.88,1,1.86,2.05,2.52,1.93s1.2-1.5,1.67-2.72c0.56-1.44,1.09-2.79,2-3s2,0.78,3.12,1.82c1,0.88,2.06,1.87,2.69,1.69s1-1.61,1.41-2.87c0.42-1.48.83-2.88,1.69-3.17s2,0.59,3.27,1.52c1,0.78,2.22,1.67,2.84,1.43s0.89-1.7,1.14-3c0.28-1.52.55-3,1.39-3.32s2.08,0.4,3.4,1.21c1.11,0.68,2.37,1.46,3,1.17s0.73-1.77.85-3.08c0.14-1.54.28-3,1.08-3.43s2.11,0.2,3.5.89c1.17,0.58,2.5,1.24,3.06.89s0.57-1.83.57-3.14c0-1.54,0-3,.75-3.52s2.12,0,3.56.56c1.22,0.47,2.6,1,3.13.6s0.39-1.88.27-3.18c-0.14-1.54-.28-3,0.43-3.58s2.11-.19,3.6.23c1.26,0.35,2.68.76,3.17,0.31s0.22-1.9,0-3.19c-0.28-1.52-.55-3,0.1-3.6s2.08-.38,3.6-0.1c1.28,0.24,2.74.51,3.19,0s0-1.91-.31-3.17c-0.42-1.49-.82-2.89-0.23-3.6s2-.57,3.58-0.43c1.3,0.12,2.78.26,3.18-.27s-0.13-1.91-.6-3.13c-0.56-1.44-1.08-2.81-.56-3.56s2-.75,3.52-0.75c1.31,0,2.79,0,3.14-.57s-0.31-1.89-.89-3.06c-0.69-1.39-1.34-2.7-.89-3.5s1.9-.93,3.43-1.08c1.3-.12,2.78-0.26,3.08-0.85s-0.48-1.85-1.17-3c-0.81-1.32-1.58-2.56-1.21-3.4s1.8-1.1,3.32-1.39c1.29-.24,2.74-0.52,3-1.14s-0.65-1.8-1.43-2.84c-0.93-1.24-1.81-2.4-1.52-3.27s1.69-1.27,3.17-1.69c1.26-.36,2.68-0.77,2.87-1.41s-0.81-1.73-1.69-2.69c-1-1.15-2-2.23-1.82-3.12s1.57-1.42,3-2c1.22-.48,2.6-1,2.73-1.67s-1-1.64-1.93-2.52c-1.15-1-2.23-2-2.1-2.94s1.43-1.55,2.8-2.24c1.17-.59,2.5-1.25,2.56-1.92s-1.12-1.54-2.15-2.33c-1.24-.94-2.41-1.82-2.36-2.74s1.28-1.68,2.59-2.49c1.11-.69,2.38-1.48,2.38-2.15s-1.26-1.45-2.38-2.15c-1.31-.81-2.54-1.58-2.59-2.49s1.13-1.8,2.36-2.74c1-.78,2.22-1.67,2.16-2.33s-1.39-1.33-2.56-1.92c-1.38-.69-2.68-1.34-2.8-2.24s1-1.9,2.1-2.94c1-.88,2.05-1.87,1.93-2.52s-1.51-1.2-2.73-1.67c-1.44-.56-2.79-1.09-3-2s0.78-2,1.82-3.12c0.88-1,1.87-2.06,1.69-2.69s-1.61-1.05-2.87-1.41c-1.48-.42-2.88-0.82-3.17-1.69s0.59-2,1.52-3.27c0.78-1,1.67-2.22,1.44-2.84s-1.7-.89-3-1.14c-1.52-.28-2.95-0.55-3.32-1.39s0.4-2.08,1.21-3.4c0.68-1.11,1.46-2.37,1.17-3s-1.77-.73-3.08-0.85c-1.54-.14-3-0.28-3.43-1.08s0.2-2.11.89-3.5c0.58-1.17,1.24-2.49.89-3.06s-1.83-.57-3.14-0.57c-1.54,0-3,0-3.52-.75s0-2.12.56-3.56c0.47-1.22,1-2.6.6-3.13s-1.88-.39-3.18-0.27c-1.54.14-3,.28-3.58-0.43s-0.19-2.11.23-3.6c0.36-1.26.76-2.68,0.31-3.17s-1.9-.22-3.19,0c-1.52.28-3,.55-3.6-0.1s-0.38-2.08-.1-3.6c0.24-1.28.51-2.74,0-3.19s-1.92,0-3.17.31c-1.49.42-2.89,0.82-3.6,0.23s-0.57-2-.43-3.58c0.12-1.3.26-2.78-.27-3.18s-1.91.13-3.13,0.6c-1.44.56-2.81,1.08-3.56,0.56s-0.75-2-.75-3.52c0-1.31,0-2.79-.57-3.14s-1.89.31-3.06,0.89c-1.39.69-2.7,1.34-3.5,0.89s-0.93-1.9-1.08-3.43c-0.12-1.3-.26-2.78-0.85-3.08s-1.85.48-3,1.17c-1.32.81-2.56,1.58-3.4,1.21s-1.1-1.8-1.39-3.32c-0.24-1.29-.51-2.74-1.14-3s-1.8.65-2.84,1.43c-1.24.93-2.4,1.81-3.27,1.52s-1.27-1.69-1.69-3.17c-0.36-1.26-.77-2.68-1.41-2.87s-1.73.81-2.69,1.69c-1.15,1-2.23,2-3.12,1.82s-1.42-1.56-2-3c-0.48-1.22-1-2.6-1.67-2.73s-1.64,1-2.52,1.93c-1,1.15-2,2.23-2.94,2.1s-1.55-1.43-2.24-2.8c-0.59-1.17-1.25-2.5-1.92-2.56s-1.54,1.12-2.33,2.16c-0.92,1.22-1.79,2.37-2.69,2.37h0c-0.91,0-1.68-1.28-2.49-2.59-0.69-1.11-1.48-2.38-2.15-2.38s-1.45,1.26-2.15,2.38c-0.81,1.31-1.58,2.54-2.49,2.59s-1.8-1.13-2.74-2.36c-0.78-1-1.67-2.21-2.33-2.16s-1.33,1.39-1.92,2.56c-0.69,1.38-1.34,2.68-2.24,2.8s-1.9-1-2.94-2.1c-0.88-1-1.88-2.05-2.52-1.93s-1.2,1.51-1.67,2.73c-0.56,1.44-1.09,2.79-2,3s-2-.78-3.12-1.82c-1-.88-2.06-1.87-2.69-1.69s-1,1.61-1.41,2.87c-0.42,1.48-.82,2.88-1.69,3.17s-2-.59-3.28-1.52c-1-.78-2.22-1.67-2.84-1.43s-0.89,1.7-1.14,3c-0.28,1.52-.55,2.95-1.39,3.32s-2.08-.4-3.4-1.21c-1.11-.68-2.37-1.46-3-1.17s-0.73,1.77-.85,3.08c-0.14,1.54-.28,3-1.08,3.43s-2.11-.2-3.5-0.89c-1.17-.58-2.5-1.24-3.06-0.89s-0.57,1.83-.57,3.14c0,1.54,0,3-.75,3.52s-2.12,0-3.56-.56c-1.22-.47-2.6-1-3.13-0.6s-0.39,1.88-.27,3.18c0.14,1.54.28,3-.43,3.58s-2.11.19-3.6-.23c-1.26-.36-2.68-0.76-3.17-0.31s-0.22,1.9,0,3.19c0.28,1.52.55,3-.1,3.6s-2.08.38-3.6,0.1c-1.28-.24-2.74-0.51-3.19,0s0,1.91.31,3.17c0.42,1.49.82,2.89,0.23,3.6s-2,.57-3.58.43c-1.3-.12-2.78-0.26-3.18.27s0.13,1.91.6,3.13c0.56,1.44,1.08,2.81.56,3.56s-2,.75-3.52.75c-1.31,0-2.79,0-3.14.57s0.31,1.89.89,3.06c0.69,1.39,1.34,2.7.89,3.5s-1.9.93-3.43,1.08c-1.3.12-2.78,0.26-3.08,0.85s0.48,1.85,1.17,3c0.81,1.32,1.58,2.56,1.21,3.4s-1.8,1.1-3.32,1.39c-1.29.24-2.74,0.51-3,1.14s0.65,1.8,1.43,2.84c0.93,1.24,1.81,2.4,1.52,3.27s-1.69,1.27-3.17,1.69c-1.26.36-2.69,0.77-2.87,1.41s0.81,1.73,1.69,2.69c1,1.15,2,2.23,1.82,3.12s-1.56,1.42-3,2c-1.22.48-2.6,1-2.73,1.67s1,1.64,1.93,2.52c1.15,1,2.23,2,2.1,2.94s-1.43,1.55-2.8,2.24c-1.17.59-2.5,1.25-2.56,1.92s1.12,1.54,2.15,2.33c1.24,0.94,2.41,1.82,2.36,2.74s-1.28,1.68-2.59,2.49c-1.11.69-2.38,1.48-2.38,2.15s1.26,1.45,2.38,2.15c1.31,0.81,2.54,1.58,2.59,2.49s-1.13,1.8-2.36,2.74c-1,.78-2.22,1.67-2.15,2.33s1.39,1.33,2.56,1.92c1.38,0.69,2.68,1.34,2.8,2.24s-1,1.9-2.1,2.94c-1,.88-2.05,1.87-1.93,2.52s1.51,1.2,2.73,1.67c1.44,0.56,2.79,1.09,3,2s-0.78,2-1.82,3.12c-0.88,1-1.87,2.06-1.69,2.69s1.61,1,2.87,1.41c1.48,0.42,2.88.82,3.17,1.69s-0.59,2-1.52,3.27c-0.78,1-1.67,2.22-1.43,2.84s1.7,0.89,3,1.14c1.52,0.28,2.95.55,3.32,1.39s-0.4,2.08-1.21,3.4c-0.68,1.11-1.46,2.37-1.17,3s1.77,0.73,3.08.85c1.54,0.14,3,.28,3.43,1.08s-0.2,2.11-.89,3.5c-0.58,1.17-1.24,2.49-.89,3.06s1.83,0.57,3.14.57c1.54,0,3,0,3.52.75s0,2.12-.56,3.56c-0.47,1.22-1,2.6-.6,3.13s1.88,0.39,3.18.27c1.54-.14,3-0.28,3.58.43s0.19,2.11-.23,3.6c-0.36,1.26-.76,2.68-0.31,3.17s1.9,0.22,3.19,0c1.52-.28,3-0.55,3.6.1s0.38,2.08.1,3.6c-0.24,1.28-.51,2.74,0,3.19s1.91,0,3.17-.31c1.49-.42,2.89-0.82,3.6-0.23s0.57,2,.43,3.58c-0.12,1.3-.26,2.78.27,3.18s1.91-.13,3.13-0.6c1.44-.56,2.81-1.08,3.56-0.56s0.75,2,.75,3.52c0,1.31,0,2.79.57,3.14s1.89-.31,3.06-0.89c1.39-.69,2.7-1.34,3.5-0.89s0.93,1.9,1.08,3.43c0.12,1.3.26,2.78,0.85,3.08s1.85-.48,3-1.16c1.32-.81,2.56-1.58,3.4-1.21s1.1,1.8,1.39,3.32c0.24,1.29.51,2.74,1.14,3s1.8-.65,2.84-1.43c1.24-.93,2.4-1.81,3.28-1.52s1.26,1.69,1.69,3.17c0.36,1.26.77,2.69,1.41,2.87s1.73-.81,2.69-1.69c1.15-1,2.23-2,3.12-1.82s1.42,1.56,2,3c0.48,1.22,1,2.6,1.67,2.73s1.64-1,2.52-1.93c1-1.14,2-2.23,2.94-2.1s1.55,1.43,2.24,2.8c0.59,1.17,1.25,2.5,1.92,2.56s1.54-1.12,2.33-2.15C2261.3,540.34,2262.17,539.19,2263.07,539.19Z" transform="translate(-2142.12 -313.35)"/><path class="cls-5" d="M2267.76,564.63c-8.51,0-15-9.77-21.32-19.23-5.09-7.64-9.9-14.86-15.61-17.23-6-2.51-15.23-.71-24.11,1-10.87,2.13-22.11,4.32-27.8-1.37s-3.49-16.93-1.37-27.8c1.74-8.88,3.53-18.06,1-24.11-2.37-5.71-9.59-10.52-17.23-15.61-9.45-6.3-19.23-12.81-19.23-21.32s9.77-15,19.23-21.32c7.64-5.09,14.86-9.9,17.23-15.61,2.51-6,.71-15.23-1-24.11-2.13-10.87-4.32-22.11,1.37-27.8s16.93-3.49,27.8-1.37c8.88,1.74,18.06,3.53,24.11,1,5.71-2.37,10.52-9.59,15.61-17.23,6.3-9.45,12.81-19.23,21.32-19.23s15,9.77,21.32,19.23c5.09,7.64,9.9,14.86,15.61,17.23,6,2.51,15.23.71,24.11-1,10.87-2.13,22.11-4.32,27.8,1.37s3.49,16.93,1.37,27.8c-1.74,8.88-3.53,18.06-1,24.11,2.37,5.71,9.59,10.52,17.23,15.61,9.45,6.3,19.23,12.81,19.23,21.32s-9.77,15-19.23,21.32c-7.64,5.09-14.86,9.9-17.23,15.61-2.51,6-.71,15.23,1,24.11,2.13,10.87,4.32,22.11-1.37,27.8s-16.93,3.49-27.8,1.37c-8.88-1.74-18.06-3.53-24.11-1-5.71,2.37-10.52,9.59-15.61,17.23C2282.78,554.86,2276.26,564.63,2267.76,564.63Zm-44.42-38.18a20.1,20.1,0,0,1,7.67,1.28c5.85,2.43,10.7,9.7,15.83,17.41,6.23,9.35,12.67,19,20.92,19s14.69-9.66,20.92-19c5.13-7.7,10-15,15.83-17.41,6.18-2.56,15.44-.75,24.39,1,10.74,2.1,21.85,4.27,27.36-1.23s3.34-16.62,1.23-27.36c-1.75-8.95-3.56-18.2-1-24.39,2.43-5.85,9.7-10.7,17.41-15.83,9.35-6.23,19-12.67,19-20.92s-9.66-14.69-19-20.92c-7.71-5.13-15-10-17.41-15.83-2.56-6.18-.75-15.44,1-24.39,2.1-10.74,4.27-21.85-1.23-27.36s-16.62-3.34-27.36-1.23c-8.95,1.75-18.2,3.56-24.39,1-5.85-2.43-10.7-9.7-15.83-17.41-6.23-9.35-12.67-19-20.92-19s-14.69,9.66-20.92,19c-5.13,7.7-10,15-15.83,17.41-6.18,2.56-15.44.75-24.39-1-10.74-2.1-21.85-4.27-27.36,1.23s-3.34,16.62-1.23,27.36c1.75,8.95,3.56,18.2,1,24.39-2.43,5.85-9.7,10.7-17.41,15.83-9.35,6.23-19,12.67-19,20.92s9.66,14.69,19,20.92c7.7,5.13,15,10,17.41,15.83,2.56,6.18.75,15.44-1,24.39-2.1,10.74-4.27,21.85,1.23,27.36s16.62,3.34,27.36,1.23C2212.36,527.6,2218.24,526.45,2223.34,526.45Z" transform="translate(-2142.12 -313.35)"/></svg>