<svg preserveAspectRatio="none" id="Layer_1" data-name="Layer 1" xmlns="http://www.w3.org/2000/svg" viewBox="0 0 15.3 16"><defs><style>.cls-1{opacity:0.44;}.cls-2{fill:#00aeef;}</style></defs><title>shape9</title><g class="cls-1"><path class="cls-2" d="M447.8,304.48l0.85,6.45a8,8,0,0,0,6.22-4.57l-6-2.77A1.57,1.57,0,0,1,447.8,304.48Z" transform="translate(-439.57 -294.94)"/><path class="cls-2" d="M446,303a1.49,1.49,0,0,1,.09-0.5l-6.16-1.92a8.06,8.06,0,0,0,1.53,7.57l4.92-4.16A1.55,1.55,0,0,1,446,303Z" transform="translate(-439.57 -294.94)"/><path class="cls-2" d="M445.49,295.22l1.71,6.31a1.66,1.66,0,0,1,.32,0,1.47,1.47,0,0,1,1.28.72l5.56-3.56A8,8,0,0,0,445.49,295.22Z" transform="translate(-439.57 -294.94)"/></g></svg>