<svg preserveAspectRatio="none" id="Layer_4" data-name="Layer 4" xmlns="http://www.w3.org/2000/svg" viewBox="0 0 38.18 28.23"><defs><style>.cls-1{fill:#1ec0ff;}.cls-2{fill:#03a6ff;}.cls-3{fill:#00558d;}</style></defs><title>shape33</title><rect class="cls-1" x="126.3" y="182.04" width="0.6" height="37.07" transform="translate(-218.22 11.23) rotate(-56.86)"/><polygon class="cls-2" points="33.92 24.64 36.39 23.39 37.65 24.22 35.18 25.47 35.03 28.23 33.77 27.4 33.92 24.64"/><polygon class="cls-2" points="32.13 23.48 34.41 22.32 35.57 23.09 33.3 24.24 33.16 26.78 31.99 26.02 32.13 23.48"/><polygon class="cls-2" points="30.36 22.32 32.42 21.27 33.47 21.96 31.41 23.01 31.29 25.31 30.23 24.63 30.36 22.32"/><polygon class="cls-2" points="4.13 3.77 4.78 2.76 2.39 2.63 0 2.5 1.08 4.64 2.16 6.77 2.82 5.77 3.3 6.72 4.24 5.27 5.19 3.82 4.13 3.77"/><polygon class="cls-3" points="8.47 16.18 8.77 15.73 7.7 15.67 6.63 15.61 7.11 16.57 7.6 17.52 7.89 17.07 8.37 18.03 8.96 17.13 9.54 16.24 8.47 16.18"/><polygon class="cls-3" points="23.63 22.9 23.92 22.45 22.85 22.4 21.78 22.34 22.27 23.29 22.75 24.25 23.04 23.8 23.52 24.75 24.11 23.86 24.7 22.96 23.63 22.9"/><polygon class="cls-3" points="12.94 0.56 13.23 0.12 12.16 0.06 11.1 0 11.58 0.95 12.06 1.91 12.35 1.46 12.84 2.42 13.42 1.52 14.01 0.62 12.94 0.56"/><polygon class="cls-3" points="21.79 11.34 22.08 10.89 21.01 10.83 19.95 10.78 20.43 11.73 20.91 12.68 21.2 12.23 21.69 13.19 22.27 12.29 22.86 11.4 21.79 11.34"/><polygon class="cls-3" points="37.11 15.95 37.4 15.5 36.33 15.45 35.26 15.39 35.75 16.34 36.23 17.3 36.52 16.85 37.01 17.8 37.59 16.91 38.17 16.01 37.11 15.95"/></svg>