<svg preserveAspectRatio="none" id="Layer_5" data-name="Layer 5" xmlns="http://www.w3.org/2000/svg" viewBox="0 0 126.36 29.32"><defs><style>.cls-1{fill:#0ff}</style></defs><path class="cls-1" d="M188 243.23l-.31-.31a6.23 6.23 0 00-.05 2.45 6.13 6.13 0 00-2.45.06l.31.31a5.65 5.65 0 012.55.05 5.44 5.44 0 01-.05-2.56z" transform="translate(-61.69 -231.04)"/><path class="cls-1" d="M187.31 245a5.44 5.44 0 01-.05-2.55l-.31-.31a6.36 6.36 0 00-.1 2l-5.28-5.14h-29.14l-1.55-1.55v-.83l.87-.87h13a1.88 1.88 0 100-1h-13.28l-.48-.48h-7.83l-1.45-1.45h-.9l-1.73-1.82h-30.26l-3.89 3.89H86.11a1.88 1.88 0 100 1h7.2l1 1h1.47l.33.33-1.36 1.36h-.89l-.16.16H69.64l-6.35 6.35v.36l-.66.66v4.77l-.94.94v3.36l1.6 1.6v1.69a.93.93 0 00-.69.89.94.94 0 001.88 0 .93.93 0 00-.69-.89v-13.11l6.06-6.06h23.76l.27.27h1.54l1.51-1.51.46-.46h.37l1-1h1.04l.7-.7h4.84l3.89-3.89h25.47l.79.79h2.36l3.65 3.65h6.82l1.27 1.27h.93l1.7 1.7h29.15l5.11 5.11a6.38 6.38 0 00-2 .11l.31.31a5.65 5.65 0 012.52.05z" transform="translate(-61.69 -231.04)"/><path class="cls-1" d="M48.34 1.72h1.52v5.35h-1.52zM50.93 1.72h1.52v5.35h-1.52zM53.53 1.72h1.52v5.35h-1.52zM56.12 1.72h1.52v5.35h-1.52zM58.72 1.72h1.52v5.35h-1.52zM61.31 1.72h1.52v5.35h-1.52zM63.91 1.72h1.52v5.35h-1.52zM66.5 1.72h1.52v5.35H66.5zM69.1 1.72h1.52v5.35H69.1zM45.39 8.16h29.68v.25H45.39z"/></svg>