<svg preserveAspectRatio="none" id="央铋_1" data-name="央铋 1" xmlns="http://www.w3.org/2000/svg" viewBox="0 0 52.75 52.75"><defs><style>.cls-1{fill:#006379;}.cls-2{fill:aqua;}</style></defs><title>shape53</title><path class="cls-1" d="M419.47,145a26.38,26.38,0,1,1,26.38-26.38A26.41,26.41,0,0,1,419.47,145Zm0-51.75a25.38,25.38,0,1,0,25.38,25.38A25.4,25.4,0,0,0,419.47,93.23Z" transform="translate(-393.09 -92.23)"/><path class="cls-1" d="M419.47,137.79a19.19,19.19,0,1,1,19.19-19.19A19.21,19.21,0,0,1,419.47,137.79Zm0-37.87a18.69,18.69,0,1,0,18.69,18.69A18.71,18.71,0,0,0,419.47,99.92Z" transform="translate(-393.09 -92.23)"/><path class="cls-2" d="M403.31,110.8l-1.8-.87A19.88,19.88,0,0,1,416.8,98.84l0.27,2A17.89,17.89,0,0,0,403.31,110.8Z" transform="translate(-393.09 -92.23)"/><path class="cls-2" d="M419.47,138.54a20,20,0,0,1-19.94-19.94h2a18,18,0,0,0,17.94,17.94v2Z" transform="translate(-393.09 -92.23)"/><path class="cls-2" d="M428.75,136.25l-0.93-1.77a18,18,0,0,0,1.79-1.08l1.13,1.65A20,20,0,0,1,428.75,136.25Z" transform="translate(-393.09 -92.23)"/><path class="cls-2" d="M433.7,132.56l-1.43-1.4a17.84,17.84,0,0,0,5.13-12.56h2A19.83,19.83,0,0,1,433.7,132.56Z" transform="translate(-393.09 -92.23)"/><path class="cls-2" d="M435,109.56a18,18,0,0,0-3.06-3.88l1.39-1.44a20,20,0,0,1,3.4,4.32Z" transform="translate(-393.09 -92.23)"/><path class="cls-2" d="M425.93,101.87a17.86,17.86,0,0,0-6.46-1.2v-2a19.85,19.85,0,0,1,7.18,1.33Z" transform="translate(-393.09 -92.23)"/></svg>