<svg preserveAspectRatio="none" xmlns="http://www.w3.org/2000/svg" viewBox="0 0 17.38 16.51"><defs><style>.cls-1{isolation:isolate;}.cls-2{fill:#00aeef;}.cls-3{mix-blend-mode:color-dodge;}</style></defs><title>shape14</title><g class="cls-1"><g id="Layer_1" data-name="Layer 1"><path class="cls-2" d="M522.46,35.78l-0.21-1.5a7.18,7.18,0,0,0,5-11l1.27-.82A8.69,8.69,0,0,1,522.46,35.78Zm-9.57-6.15a8.69,8.69,0,0,1,4.73-10.35l0.63,1.37a7.19,7.19,0,0,0-3.91,8.55Z" transform="translate(-512.53 -19.27)"/><circle class="cls-2" cx="8.69" cy="7.91" r="1.53"/><g class="cls-3"><path class="cls-2" d="M522.46,35.78l-0.21-1.5a7.18,7.18,0,0,0,5-11l1.27-.82A8.69,8.69,0,0,1,522.46,35.78Zm-9.57-6.15a8.69,8.69,0,0,1,4.73-10.35l0.63,1.37a7.19,7.19,0,0,0-3.91,8.55Z" transform="translate(-512.53 -19.27)"/><circle class="cls-2" cx="8.69" cy="7.91" r="1.53"/></g></g></g></svg>