<svg preserveAspectRatio="none" id="Layer_1" data-name="Layer 1" xmlns="http://www.w3.org/2000/svg" viewBox="0 0 107.96 107.96"><defs><style>.cls-1{fill:#02a6ff}</style></defs><path id="_复合路径_" data-name="&lt;复合路径&gt;" class="cls-1" d="M2953.28 1902.95v-2.15l-6.7-1.22q-.11-2.37-.46-4.68l6.34-2.5-.42-2.11-6.81.11c-.35-1.4-.76-2.78-1.24-4.13l5.76-3.64-.8-2-6.67 1.38q-1-2.13-2.17-4.14l4.94-4.69-1.18-1.8-6.28 2.66a47.56 47.56 0 00-3.24-4l3.88-5.6-1.52-1.52-5.6 3.88q-1.72-1.57-3.6-3l2.72-6.25-1.78-1.19-4.74 4.89a47.21 47.21 0 00-4.63-2.44l1.37-6.67-2-.8-3.63 5.76a47 47 0 00-5.33-1.5l-.08-6.81-2.12-.36-2.33 6.41c-1.11-.13-2.23-.24-3.37-.29l-1.22-6.7h-2.15l-1.22 6.7c-1.42.07-2.82.21-4.21.4l-2.44-6.37-2.11.4v6.82a47 47 0 00-4.75 1.4l-3.66-5.74-2 .81 1.41 6.66q-1.93.9-3.76 2l-4.67-5-1.8 1.17 2.62 6.3a47.56 47.56 0 00-4.2 3.38l-5.6-3.88-1.52 1.52 3.88 5.6q-1.59 1.75-3 3.66L2855 1871l-1.19 1.79 4.9 4.73q-1.18 2-2.17 4l-6.65-1.45-.82 2 5.71 3.7c-.5 1.4-.95 2.83-1.32 4.29l-6.8-.16-.43 2.1 6.31 2.54a47.52 47.52 0 00-.5 5l-6.7 1.22v2.15l6.7 1.22q.11 2.37.46 4.68l-6.34 2.5.42 2.11 6.81-.11c.35 1.4.76 2.78 1.24 4.13l-5.76 3.64.8 2 6.67-1.38q1 2.13 2.17 4.14l-4.94 4.69 1.18 1.8 6.28-2.66a47.56 47.56 0 003.24 4l-3.88 5.6 1.52 1.52 5.6-3.88q1.72 1.57 3.6 3l-2.72 6.25 1.78 1.19 4.74-4.89a47.18 47.18 0 004.63 2.44l-1.37 6.67 2 .8 3.63-5.76a47 47 0 005.33 1.5l.08 6.81 2.12.36 2.33-6.41c1.11.13 2.23.24 3.37.29l1.22 6.7h2.15l1.22-6.7c1.42-.07 2.82-.21 4.21-.4l2.44 6.37 2.11-.4v-6.81a47 47 0 004.75-1.4l3.66 5.74 2-.81-1.41-6.66q1.93-.9 3.76-2l4.67 5 1.8-1.17-2.62-6.3a47.56 47.56 0 004.2-3.38l5.6 3.88 1.52-1.52-3.88-5.6q1.59-1.75 3-3.66l6.25 2.71 1.19-1.79-4.9-4.73q1.18-2 2.17-4l6.65 1.45.82-2-5.71-3.7c.5-1.4.95-2.83 1.32-4.29l6.8.16.43-2.1-6.31-2.54a47.52 47.52 0 00.5-5zm-17.2-1.07a36.69 36.69 0 01-2.3 12.82l-24.3-11.15a10.24 10.24 0 00-7.83-11.72v-26.65a36.77 36.77 0 0134.43 36.7zm-39.08-36.7v26.65a10.33 10.33 0 00-7.76 12.14l-23.1 13.71a36.78 36.78 0 0130.86-52.5zm2.35 73.47a36.74 36.74 0 01-30.92-16.87l22.8-13.53a10.3 10.3 0 0016.49-.35l24.18 11.09a36.76 36.76 0 01-32.59 19.66z" transform="translate(-2845.33 -1847.9)"/><path id="_复合路径_2" data-name="&lt;复合路径&gt;" class="cls-1" d="M2953.28 1902.95v-2.15l-6.7-1.22q-.11-2.37-.46-4.68l6.34-2.5-.42-2.11-6.81.11c-.35-1.4-.76-2.78-1.24-4.13l5.76-3.64-.8-2-6.67 1.38q-1-2.13-2.17-4.14l4.94-4.69-1.18-1.8-6.28 2.66a47.56 47.56 0 00-3.24-4l3.88-5.6-1.52-1.52-5.6 3.88q-1.72-1.57-3.6-3l2.72-6.25-1.78-1.19-4.74 4.89a47.21 47.21 0 00-4.63-2.44l1.37-6.67-2-.8-3.63 5.76a47 47 0 00-5.33-1.5l-.08-6.81-2.12-.36-2.33 6.41c-1.11-.13-2.23-.24-3.37-.29l-1.22-6.7h-2.15l-1.22 6.7c-1.42.07-2.82.21-4.21.4l-2.44-6.37-2.11.4v6.82a47 47 0 00-4.75 1.4l-3.66-5.74-2 .81 1.41 6.66q-1.93.9-3.76 2l-4.67-5-1.8 1.17 2.62 6.3a47.56 47.56 0 00-4.2 3.38l-5.6-3.88-1.52 1.52 3.88 5.6q-1.59 1.75-3 3.66L2855 1871l-1.19 1.79 4.9 4.73q-1.18 2-2.17 4l-6.65-1.45-.82 2 5.71 3.7c-.5 1.4-.95 2.83-1.32 4.29l-6.8-.16-.43 2.1 6.31 2.54a47.52 47.52 0 00-.5 5l-6.7 1.22v2.15l6.7 1.22q.11 2.37.46 4.68l-6.34 2.5.42 2.11 6.81-.11c.35 1.4.76 2.78 1.24 4.13l-5.76 3.64.8 2 6.67-1.38q1 2.13 2.17 4.14l-4.94 4.69 1.18 1.8 6.28-2.66a47.56 47.56 0 003.24 4l-3.88 5.6 1.52 1.52 5.6-3.88q1.72 1.57 3.6 3l-2.72 6.25 1.78 1.19 4.74-4.89a47.18 47.18 0 004.63 2.44l-1.37 6.67 2 .8 3.63-5.76a47 47 0 005.33 1.5l.08 6.81 2.12.36 2.33-6.41c1.11.13 2.23.24 3.37.29l1.22 6.7h2.15l1.22-6.7c1.42-.07 2.82-.21 4.21-.4l2.44 6.37 2.11-.4v-6.81a47 47 0 004.75-1.4l3.66 5.74 2-.81-1.41-6.66q1.93-.9 3.76-2l4.67 5 1.8-1.17-2.62-6.3a47.56 47.56 0 004.2-3.38l5.6 3.88 1.52-1.52-3.88-5.6q1.59-1.75 3-3.66l6.25 2.71 1.19-1.79-4.9-4.73q1.18-2 2.17-4l6.65 1.45.82-2-5.71-3.7c.5-1.4.95-2.83 1.32-4.29l6.8.16.43-2.1-6.31-2.54a47.52 47.52 0 00.5-5zm-17.2-1.07a36.69 36.69 0 01-2.3 12.82l-24.3-11.15a10.24 10.24 0 00-7.83-11.72v-26.65a36.77 36.77 0 0134.43 36.7zm-39.08-36.7v26.65a10.33 10.33 0 00-7.76 12.14l-23.1 13.71a36.78 36.78 0 0130.86-52.5zm2.35 73.47a36.74 36.74 0 01-30.92-16.87l22.8-13.53a10.3 10.3 0 0016.49-.35l24.18 11.09a36.76 36.76 0 01-32.59 19.66z" transform="translate(-2845.33 -1847.9)"/></svg>