<svg preserveAspectRatio="none" id="Layer_4" data-name="Layer 4" xmlns="http://www.w3.org/2000/svg" viewBox="0 0 22.89 18.15"><defs><style>.cls-1{fill:#00558d}.cls-2{fill:#1e9af0}.cls-3{fill:#1ec0ff}</style></defs><path class="cls-1" d="M7.09 3.29L4.98 1.9l1.05-.52 2.11 1.38-1.05.53zM2 6.44l2.11 1.39L4.04 9 1.93 7.61 2 6.44z"/><path class="cls-2" d="M2.18 3.31l2.19-1.1L6.49 3.6l-2.2 1.1-.14 2.45-2.11-1.39.14-2.45z"/><path class="cls-1" d="M10.57 5.58L8.46 4.19l1.05-.53 2.11 1.39-1.05.53zM5.48 8.72l2.11 1.39-.07 1.18L5.41 9.9l.07-1.18z"/><path class="cls-2" d="M5.66 5.6l2.19-1.1 2.11 1.38-2.19 1.11-.14 2.45-2.11-1.39.14-2.45z"/><path class="cls-1" d="M14.05 7.87l-2.11-1.39 1.05-.53 2.11 1.39-1.05.53zM8.96 11.01l2.11 1.39-.07 1.18-2.11-1.39.07-1.18z"/><path class="cls-2" d="M9.14 7.89l2.19-1.1 2.12 1.38-2.2 1.11-.14 2.44L9 10.34l.14-2.45z"/><path class="cls-1" d="M17.53 10.16l-2.11-1.39 1.05-.53 2.11 1.39-1.05.53zM12.44 13.3l2.11 1.39-.07 1.18-2.11-1.39.07-1.18z"/><path class="cls-2" d="M12.62 10.17l2.19-1.1 2.12 1.39-2.2 1.1-.14 2.45-2.11-1.39.14-2.45z"/><path class="cls-1" d="M21.02 12.44l-2.12-1.39 1.05-.52 2.11 1.39-1.04.52zM15.92 15.59l2.11 1.39-.07 1.18-2.11-1.39.07-1.18z"/><path class="cls-2" d="M16.1 12.46l2.2-1.1 2.11 1.39-2.2 1.1-.14 2.45-2.11-1.39.14-2.45z"/><circle class="cls-3" cx="66.62" cy="97.41" r=".55" transform="rotate(-56.68 -33.135 99.467)"/><circle class="cls-2" cx="68.17" cy="98.43" r=".35" transform="rotate(-56.68 -31.579 100.486)"/><circle class="cls-1" cx="69.4" cy="99.24" r=".18" transform="rotate(-56.68 -30.364 101.297)"/><path class="cls-2" d="M.86 2.37L4.78.4l.59.39-3.92 1.96-.25 4.38-.59-.38.25-4.38z"/><path class="cls-3" d="M4.17 0l.15.1L.4 2.06.14 6.44 0 6.35l.25-4.38L4.17 0z"/><path class="cls-3" d="M5.67.98l.14.1-3.92 1.97-.25 4.37-.15-.09.26-4.38L5.67.98z"/></svg>