<svg preserveAspectRatio="none" xmlns="http://www.w3.org/2000/svg" viewBox="0 0 599.99 409.03"><defs><style>.cls-2,.cls-4{fill:#0ff}.cls-2,.cls-3{mix-blend-mode:overlay}</style></defs><g style="isolation:isolate"><g id="Layer_3" data-name="Layer 3"><path class="cls-2" d="M546.67 25.62H600v-1h-53l-.61-.62h-10.81l-1-1h-4.13l-3.7 3.7v2.65l-31 31H492l-1.32-1.32 3.07-3.03v-.95L513 35.78V19.56l23.4-23.37-.71-.71L512 19.15v16.22l-24 24h-1.15l-1.06 1.06h-13.08l-.56-.56h-1.94l-3.16-3.16h-19.36l-2.82-2.82h-11l-9 9v9.41l-2.75 2.7v1.16l-.71.71h-2l-1.85 1.85H405.5l2.67-2.67v-4.2l2.64-2.64v-3.27l18-18H453l5.15 5.06h26.51L506 31.74v-13l4.93-4.93h4.63L533.2-3.81l-.71-.71-17.37 17.38h-4.63L505 18.38v13L484.24 52h-25.68l-5.12-5.12h-16.72l-3.47-3.47h-7l-4.31 4.31h-4.6l-19.57 19.6v10.24l-1.2 1.2H203.44l-1.22-1.21V67.32l-19.55-19.55h-4.6l-4.31-4.31h-7l-3.47 3.47h-16.74L141.43 52h-25.69L95 31.33v-13l-5.5-5.47h-4.63L67.49-4.52l-.71.71 17.68 17.67h4.63L94 18.79v13L115.33 53h26.51l5.16-5.08h24.2l18 18v3.27l2.64 2.64v4.25l2.67 2.67h-12.13l-1.85-1.85h-2l-.7-.7V75l-2.75-2.75V62.8l-9-9h-11l-2.82 2.82H139.1l-.88-.88h-4.79l-4.06 4.06h-1.57l-.56.56h-13.11l-1.06-1.06h-.13l-5.68-5.68h-1L88 35.37V19.15L64.29-4.52l-.71.71L87 19.56v16.22l19.27 19.27V56l2.73 2.73v.67l-1 1h-3.7l-31-31v-2.69L69.57 23h-4.12l-1 1H53.59l-.59.62H0v1h53.32l.87.87-.93.93H0v1h56.74l1.37 1.37h8.82l1.75 1.75h1.19L89 50.69v4.93l11.13 11.13h14l2.21-2.21h38.36l3.88 3.88h4l9.83 9.83-.51.51h-2.44l-1-1h-1.17l-5.16-5.16H159l-.3-.3h-5.36l-.28-.3h-.43l-.63-.67h-.3l-3.54-3.54h-26l-3.29 3.29H95.56L80.73 56.25v-6.74L64.33 33.1H0v1h63.92l15.81 15.82v6.75l15.42 15.41h24.15l3.29-3.29h25.15l3.16 3.16v1.4l-.76.76h-2.44l-1.18 1.18H142l-3-3h-11l-3.24 3.24H88.15L82.61 81v13.3l-.34.29v-17L71.88 67.28H30.07a.47.47 0 00-.47-.47h-9.89a.47.47 0 00-.47.47H0v.5h19.24v.45H0v.5h19.24v.37H0v.5h19.24v.49H0v.5h19.25a.46.46 0 00.46.42h9.89a.46.46 0 00.46-.42H70.5l8.63 8.63V99l1.71 1.71V103l-.93.93v2.23l8.44 8.44v3.4l-3.54 3.54v1.9l-9.61 9.61v20.57l-.87.87v9.93l.87.87v17.8l8.52 8.52v16.69l-8.52 8.52v17.8l-.87.87v9.93l.87.87v20.57l9.61 9.61v1.9l3.53 3.63v3.45l-8.44 8.44v2.23l.93.88v2.26l-1.7 1.74v19.78l-8.63 8.63H30.06a.46.46 0 00-.46-.41h-9.89a.46.46 0 00-.46.42H0v.5h19.24v.49H0v.5h19.24v.37H0v.5h19.24v.45H0v.5h19.24a.47.47 0 00.47.47h9.89a.47.47 0 00.47-.47h41.81l10.39-10.39v-17l.34.29v13.3l5.54 5.54h36.5l3.24 3.24h11l3-3h4.55l1.18 1.18h2.44l1.11 1.11v.71l-3.5 3.5h-25.08l-3.29-3.29H95.15l-15.42 15.4v6.75l-15.81 15.81H0v1h64.33l16.41-16.41v-6.75l14.82-14.82h23.32l3.29 3.29h26l4.21-4.21h.7l.61-.61h8.45l5.16-5.16h1.17l1-1h2.44l.51.51-9.83 9.83h-4l-3.88 3.88h-38.34l-2.21-2.21h-14L89 344.36v4.93l-19.12 19.16h-1.2l-1.75 1.75h-8.82l-1.37 1.37H0v1h53.26l.93.93-.87.87H0v1h53l.57.57h10.84l1 1h4.13l3.7-3.7v-2.65l31-31H108l1.32 1.32-3.08 3.09v.93L87 364.2v16.22L63.59 403.8l.71.71L88 380.84v-16.22l24-24h1.15l1.06-1.06h13.14l.56.56h1.94l3.16 3.16h19.29l2.82 2.82h11l9-9v-9.51l2.75-2.75v-1.16l.71-.71h2l1.85-1.85h12.11l-2.67 2.67v4.25l-2.64 2.64V334l-18 18H147l-5.12-5.12h-26.55L94 368.24v13l-4.94 4.94h-4.6L66.79 403.8l.71.71 17.38-17.38h4.62l5.5-5.52v-13l20.72-20.72h25.68l5.12 5.13h16.72l3.47 3.47h7l4.31-4.31h4.6l19.55-19.55v-10.21l1.2-1.2h193.2l1.2 1.2v10.24l19.55 19.55h4.6l4.31 4.31h7l3.47-3.47h16.72l5.12-5.12h25.68L505 368.66v13l5.52 5.52h4.63l17.38 17.38.71-.71-17.67-17.67h-4.67l-4.9-4.99v-13l-21.31-21.31h-26.54l-5.15 5.18h-24.2l-18-18v-3.27l-2.64-2.64v-4.25l-2.67-2.67h12.11l1.85 1.85h2l.71.71v1.16l2.75 2.75v9.51l9 9h11l2.82-2.82h19.37l3.16-3.16h1.94l.56-.56h13.14l1.06 1.06h1.15l24 24v16.22l23.67 23.67.71-.71L513 380.42V364.2l-19.27-19.27V344l-3.08-3.08 1.35-1.32h3.71l31 31v2.65l3.7 3.7h4.13l1-1h10.81l.57-.57h53v-1h-53.25l-.87-.87.93-.93H600v-1h-56.75l-1.37-1.37h-8.82l-1.75-1.75h-1.19L511 349.29v-4.93l-11.13-11.13h-14l-2.21 2.21h-38.41l-3.88-3.88h-4l-9.83-9.83.51-.51h2.44l1 1h1.17l5.16 5.16h8.45l.61.61h.7l4.21 4.21h26l3.29-3.29h23.33l14.83 14.83v6.75l16.41 16.41H600v-1h-63.93l-15.82-15.82v-6.75l-15.41-15.43h-24.16l-3.29 3.29h-25.14l-3.5-3.5V327l1.11-1.11h2.44l1.18-1.18H458l3 3h11l3.24-3.24h36.5l5.54-5.54v-13.3l.34-.29v17l10.39 10.39H600v-.5h-71.69l-10.09-10.09v-17.22l.3-.26v17.21l9.88 9.88H600v-.5h-71.39l-9.61-9.58v-17.44l.14-.12v-2.35l.18.18v19.36l9.58 9.58H600v-.5h-70.88l-9.29-9.29v-19.35l-.68-.68V300l1.21 1.21V321l8.92 8.92H600v-.5h-70.5l-8.63-8.63V301l-1.71-1.71V297l.93-.93v-2.23l-8.44-8.44V282l3.54-3.54v-1.9l9.61-9.61v-20.62l.87-.87v-9.93l-.87-.87v-17.8l-8.52-8.52v-16.69l8.52-8.52v-17.8l.87-.87v-9.93l-.87-.87v-20.57l-9.61-9.61v-1.9l-3.55-3.58v-3.46l8.44-8.44v-2.23l-.93-.93v-2.26l1.71-1.68V79.22l8.63-8.63h40.44a.46.46 0 00.46.42h9.89a.46.46 0 00.46-.42H600v-.5h-19.26v-.49H600v-.5h-19.26v-.37H600v-.5h-19.26v-.45H600v-.5h-19.26a.47.47 0 00-.47-.47h-9.89a.47.47 0 00-.47.47H528.1l-10.38 10.39v17l-.34-.29V81l-5.54-5.54h-36.5l-3.24-3.24h-11l-3 3h-4.55l-1.18-1.18h-2.44L448.74 73v-.71l3.5-3.5h25.15l3.29 3.29h24.15l15.41-15.41v-6.75l15.83-15.82H600v-1h-64.34l-16.41 16.41v6.75l-14.83 14.82H481.1l-3.29-3.29h-26L447.62 72h-.7l-.62.62h-8.45l-5.16 5.16h-1.17l-1 1h-2.44l-.51-.51 9.83-9.83h4l3.88-3.88h38.36l2.21 2.21h14L511 55.62v-4.93l19.16-19.16h1.19l1.75-1.75h8.82l1.37-1.37H600v-1h-53.28l-.93-.93zM434.23 54.85h10.22l2.82 2.82h14.61l1.12 1.11h3.07l1.6 1.6h-25.9l-.47-.47h-4.06l-2.33 2.33v1.19L429.34 69h-.95l-2 2h-.53v-7.79zm87 100.37l-.55.55v8.7l.55.55v15.76l-4.95 4.95v-4.43a5.43 5.43 0 00-4.63-5.37V132.5h6.74l2.84 2.84v19.89zm-4.95 59l4.95 4.95V235l-.55.55v8.7l.55.55v19.89l-2.84 2.84h-6.74v-43.47a5.43 5.43 0 004.63-5.37v-4.43zM78.76 244.77l.55-.55v-8.7l-.55-.52v-15.79l4.95-4.95v4.43a5.45 5.45 0 00.09 1 5.43 5.43 0 004.54 4.38v43.43H81.6l-2.84-2.84v-19.89zm8.75-68.64l-.31.11a5.4 5.4 0 00-.52.23l-.35.2q-.23.14-.44.29l-.3.24a5.49 5.49 0 00-.42.4l-.21.23a5.46 5.46 0 00-.4.55l-.15.25a5.42 5.42 0 00-.31.64l-.09.23a5.38 5.38 0 00-.21.75v.16a5.44 5.44 0 00-.08.87v4.45l-4.95-4.95V165l.55-.55v-8.7l-.55-.55v-19.87l2.84-2.84h6.74v43.43h-.18a5.4 5.4 0 00-.66.2zm5.85 132.35v-217a7.74 7.74 0 017.74-7.74h397.8a7.74 7.74 0 017.74 7.74v217a7.74 7.74 0 01-7.74 7.74H101.09a7.74 7.74 0 01-7.73-7.75zM82 131.43l-3.7 3.7v19.8h-.76l-.41-.41v-20.17l4.87-4.83v1.91zm-4.83 34.76h.46l.67-.67V181l5.45 5.45v1.76l-6.58-6.58v-15.44zm6.58 47.36L78.26 219v15.47l-.67-.67h-.46v-15.42l6.58-6.58v1.76zm-6.58 31.92l.41-.41h.72v19.8l3.7 3.7v1.91l-4.83-4.83v-20.17zM518 268.55l3.7-3.7v-19.8h.72l.41.41v20.16l-4.83 4.84v-1.91zm4.83-34.76h-.46l-.67.67V219l-5.45-5.45v-1.76l6.58 6.58v15.43zm-6.58-47.36l5.45-5.45v-15.46l.67.67h.46v15.42l-6.58 6.58v-1.76zm6.58-31.92l-.41.41h-.72v-19.8l-3.7-3.7v-1.91l4.83 4.83v20.16zM408.45 65.23l-5.31 5.31v1.65l-1.32 1.32V69.2l16.25-16.25h4.3L410.1 65.23h-1.65zm-9.69 2.51l19-19h4.6l4.31-4.31h6.19l2.47 2.47h-6.9l-5 5h-5.72l-16.89 16.89v5.71l-2.06 2.06v-8.82zm-207.23-2.51h-1.65l-12.27-12.28h4.3l16.25 16.25v4.3l-1.32-1.31v-1.65zm-26.84-18.31l2.47-2.47h6.19l4.31 4.31h4.6l19 19v8.82l-2.06-2.05v-5.74l-16.88-16.84h-5.72l-5-5h-6.9zm-12 10.75l2.82-2.82h10.22l8.37 8.37v7.14h-.21l-.32.32h-.32L171.6 69h-.95l-5.57-5.57v-1.19l-2.33-2.33h-4.06l-.47.47h-25.9l1.6-1.6H137l1.11-1.11h14.61zm6.31 9.76l-3.88-3.88H116l-2.21 2.21h-13.21L90 55.21v-4.93L70.76 31v-.94h1.8l31.32 31.32h3.8l.53.53h5.62l.53-.53h11.92l-.09.09h5.07l.09-.09h26.88l.64.62h2.52l2.1 2.1h.89l5.57 5.57v.74l6 6h.74l.79.79-.63.63h-3.41L163 67.43h-4zm-4 7.15h3.08l1-1h2.64l4.51 4.51-.51.51h-1.08l-.13.13h-3.09l-1.54-1.54H159l-1.93-1.93h-2.79zM88.56 76.5h36.5l3.24-3.24h10.22l3 3h4l.56.56h6.69l.56-.56h3.37l1.3 1.31-.6.6h-3.45l-.59.59h-52.28A12.74 12.74 0 0088.34 91.5v14.13h-1.2l-2.22-2.22v-7.68l-1.32-1.32v-13zm-58.49-8.72h41.61l10.09 10.09v17.19l-.3.26V78.11l-9.88-9.88H30.07v-.45zm0 .95h41.31L81 78.32v17.43l-.14.12v2.35l-.21-.22V78.68l-9.58-9.58h-41v-.37zM79.63 98.8V79l-8.93-8.91H30.07v-.49h40.8l9.28 9.29v19.36l.68.68V100zm.77 7.13v-1.81l.43-.43v1.43l7.51 7.51v1.25zm3.08 19.59v1.79l-6.84 6.84v20.1h-.5l-.45-.54V133.3zm-7.78 57.4v-17.35h.5l.43.43v15.81l7.08 7.08v2zm8 26.13v2l-7.08 7.08V234l-.43.43h-.5v-17.36zm-8 37.23l.45-.54h.49v20.1l6.84 6.84v1.79l-7.78-7.78v-20.41zm4.71 49.59v-1.81l7.94-7.94v1.25l-7.51 7.51v1.43zm-50.33 34H70.7l8.93-8.87v-19.81l1.2-1.19v1.08l-.68.68v19.34l-9.28 9.29h-40.8v-.49zm0 1h41l9.58-9.58v-19.35l.18-.18v2.35l.16.12v17.44l-9.59 9.59H30.07v-.37zm51.7-8.78l-10.1 10.12H30.07v-.45h41.52l9.88-9.88v-17.22l.3.26v17.19zm59.78 1.58l-3 3H128.3l-3.24-3.24h-36.5l-5-5v-13l1.32-1.32v-7.69l2.22-2.22h1.2v14.13a12.74 12.74 0 0012.74 12.74h52.26l.59.59h3.45l.6.6-1.28 1.28h-15.11zm20.17 2.68h-2.64l-1-1h-3.41l-.72-.72h3.12l1.93-1.93h.84l1.54-1.54h3.09l.13.13h1.08l.51.51zm-57.85 12.25l-31.31 31.32h-1.8V369L90 349.71v-4.93l10.55-10.55h13.16l2.21 2.21h39.19l3.88-3.88h4l10.47-10.47h3.41l.63.63-15.36 15.36h-.74l-.53.53h-46.51l-.53-.53h-5.62l-.53.53h-3.8zm61.87 6.53h-10.22l-2.82-2.82H138.1l-1.1-1.11h-3.07l-1.6-1.6h25.89l.47.47h4.06l2.33-2.33v-1.19l5.57-5.57h.95l2-2h.53v7.77zm25.78-10.38l5.31-5.31v-1.64l1.32-1.32v4.3L181.91 347h-4.31l12.28-12.28h1.65zm9.69-2.51l-19 19h-4.6l-4.31 4.31h-6.19l-2.47-2.47h6.9l5-5h5.72l16.84-16.84v-5.72l2.06-2.06v8.83zm207.23 2.51h1.65L422.38 347h-4.3l-16.25-16.25v-4.3l1.32 1.32v1.65zm26.85 18.31l-2.47 2.47h-6.19l-4.31-4.31h-4.6l-19-19v-8.83l2.06 2.06v5.72L417.66 348h5.72l5 5h6.9zm12-10.75l-2.82 2.82h-10.25l-8.37-8.37V329h.53l2 2h.95l5.57 5.57v1.19l2.33 2.33h4.06l.47-.47h25.89l-1.6 1.6H463l-1.11 1.11h-14.62zm-6.3-9.75l3.88 3.88H484l2.21-2.21h13.19l10.6 10.55v4.93L529.22 369v.94h-1.8L496.1 338.6h-3.8l-.53-.53h-5.62l-.53.53h-46.5l-.53-.53h-.75l-15.36-15.36.63-.63h3.41L437 332.56h4zm4.33-7.15h-3.41l-1 1h-2.64l-4.51-4.51.51-.51h1.08l.13-.13h3.09l1.54 1.54h.88l1.93 1.93H446zm66.14-1.92h-36.5l-3.24 3.24h-10.26l-3-3h-15.18l-1.29-1.32.6-.6h3.45l.59-.59h52.26a12.75 12.75 0 0012.74-12.74v-14.13h1.2l2.22 2.22v7.69l1.32 1.32v13zm8.16-29.43v1.81l-.43.43v-1.43l-7.51-7.51v-1.25zm-3.08-19.59v-1.79l6.84-6.84v-20.1h.49l.45.54v20.41zm7.78-57.4v17.34h-.51l-.43-.43v-15.81l-7.08-7.08v-2zm-8-26.13v-2l7.08-7.08V166l.43-.43h.51v17.34zm8-37.23l-.45.54h-.49v-20.1l-6.84-6.84v-1.79l7.78 7.78v20.41zm-4.71-49.59v1.81l-7.94 7.94v-1.25l7.51-7.51v-1.43zm50.33-34h-40.67L520.36 79v19.8l-1.2 1.2v-1.07l.68-.68V78.88l9.29-9.29h40.8v.49zm0-1h-41l-9.58 9.58V98l-.18.18v-2.31l-.19-.12V78.32l9.59-9.59h41.31v.37zm-51.7 8.78l10.09-10.09h41.61v.45H528.4l-9.88 9.88v17.18l-.3-.26V77.87zm-59.78-1.58l3-3h10.22l3.24 3.24h36.5l5 5v13l-1.32 1.32v7.69l-2.22 2.22h-1.2V91.5a12.74 12.74 0 00-12.74-12.74h-52.3l-.59-.59h-3.45l-.6-.6 1.28-1.28h15.15zm-20.17-2.68h2.64l1 1h3.41l.65.65h-3.12L441 77.22h-.84l-1.54 1.54h-3.09l-.13-.13h-1.08l-.51-.51zM510 50.28v4.93l-10.6 10.55h-13.16L484 63.54h-39.16L441 67.43h-4L426.53 77.9h-3.41l-.63-.63 15.36-15.36h.75l.53-.53h46.51l.53.53h5.62l.53-.53h3.8l31.32-31.32h1.8V31z" transform="translate(0 4.52)"/><path class="cls-2" d="M546.67 25.62H600v-1h-53l-.61-.62h-10.81l-1-1h-4.13l-3.7 3.7v2.65l-31 31H492l-1.32-1.32 3.07-3.03v-.95L513 35.78V19.56l23.4-23.37-.71-.71L512 19.15v16.22l-24 24h-1.15l-1.06 1.06h-13.08l-.56-.56h-1.94l-3.16-3.16h-19.36l-2.82-2.82h-11l-9 9v9.41l-2.75 2.7v1.16l-.71.71h-2l-1.85 1.85H405.5l2.67-2.67v-4.2l2.64-2.64v-3.27l18-18H453l5.15 5.06h26.51L506 31.74v-13l4.93-4.93h4.63L533.2-3.81l-.71-.71-17.37 17.38h-4.63L505 18.38v13L484.24 52h-25.68l-5.12-5.12h-16.72l-3.47-3.47h-7l-4.31 4.31h-4.6l-19.57 19.6v10.24l-1.2 1.2H203.44l-1.22-1.21V67.32l-19.55-19.55h-4.6l-4.31-4.31h-7l-3.47 3.47h-16.74L141.43 52h-25.69L95 31.33v-13l-5.5-5.47h-4.63L67.49-4.52l-.71.71 17.68 17.67h4.63L94 18.79v13L115.33 53h26.51l5.16-5.08h24.2l18 18v3.27l2.64 2.64v4.25l2.67 2.67h-12.13l-1.85-1.85h-2l-.7-.7V75l-2.75-2.75V62.8l-9-9h-11l-2.82 2.82H139.1l-.88-.88h-4.79l-4.06 4.06h-1.57l-.56.56h-13.11l-1.06-1.06h-.13l-5.68-5.68h-1L88 35.37V19.15L64.29-4.52l-.71.71L87 19.56v16.22l19.27 19.27V56l2.73 2.73v.67l-1 1h-3.7l-31-31v-2.69L69.57 23h-4.12l-1 1H53.59l-.59.62H0v1h53.32l.87.87-.93.93H0v1h56.74l1.37 1.37h8.82l1.75 1.75h1.19L89 50.69v4.93l11.13 11.13h14l2.21-2.21h38.36l3.88 3.88h4l9.83 9.83-.51.51h-2.44l-1-1h-1.17l-5.16-5.16H159l-.3-.3h-5.36l-.28-.3h-.43l-.63-.67h-.3l-3.54-3.54h-26l-3.29 3.29H95.56L80.73 56.25v-6.74L64.33 33.1H0v1h63.92l15.81 15.82v6.75l15.42 15.41h24.15l3.29-3.29h25.15l3.16 3.16v1.4l-.76.76h-2.44l-1.18 1.18H142l-3-3h-11l-3.24 3.24H88.15L82.61 81v13.3l-.34.29v-17L71.88 67.28H30.07a.47.47 0 00-.47-.47h-9.89a.47.47 0 00-.47.47H0v.5h19.24v.45H0v.5h19.24v.37H0v.5h19.24v.49H0v.5h19.25a.46.46 0 00.46.42h9.89a.46.46 0 00.46-.42H70.5l8.63 8.63V99l1.71 1.71V103l-.93.93v2.23l8.44 8.44v3.4l-3.54 3.54v1.9l-9.61 9.61v20.57l-.87.87v9.93l.87.87v17.8l8.52 8.52v16.69l-8.52 8.52v17.8l-.87.87v9.93l.87.87v20.57l9.61 9.61v1.9l3.53 3.63v3.45l-8.44 8.44v2.23l.93.88v2.26l-1.7 1.74v19.78l-8.63 8.63H30.06a.46.46 0 00-.46-.41h-9.89a.46.46 0 00-.46.42H0v.5h19.24v.49H0v.5h19.24v.37H0v.5h19.24v.45H0v.5h19.24a.47.47 0 00.47.47h9.89a.47.47 0 00.47-.47h41.81l10.39-10.39v-17l.34.29v13.3l5.54 5.54h36.5l3.24 3.24h11l3-3h4.55l1.18 1.18h2.44l1.11 1.11v.71l-3.5 3.5h-25.08l-3.29-3.29H95.15l-15.42 15.4v6.75l-15.81 15.81H0v1h64.33l16.41-16.41v-6.75l14.82-14.82h23.32l3.29 3.29h26l4.21-4.21h.7l.61-.61h8.45l5.16-5.16h1.17l1-1h2.44l.51.51-9.83 9.83h-4l-3.88 3.88h-38.34l-2.21-2.21h-14L89 344.36v4.93l-19.12 19.16h-1.2l-1.75 1.75h-8.82l-1.37 1.37H0v1h53.26l.93.93-.87.87H0v1h53l.57.57h10.84l1 1h4.13l3.7-3.7v-2.65l31-31H108l1.32 1.32-3.08 3.09v.93L87 364.2v16.22L63.59 403.8l.71.71L88 380.84v-16.22l24-24h1.15l1.06-1.06h13.14l.56.56h1.94l3.16 3.16h19.29l2.82 2.82h11l9-9v-9.51l2.75-2.75v-1.16l.71-.71h2l1.85-1.85h12.11l-2.67 2.67v4.25l-2.64 2.64V334l-18 18H147l-5.12-5.12h-26.55L94 368.24v13l-4.94 4.94h-4.6L66.79 403.8l.71.71 17.38-17.38h4.62l5.5-5.52v-13l20.72-20.72h25.68l5.12 5.13h16.72l3.47 3.47h7l4.31-4.31h4.6l19.55-19.55v-10.21l1.2-1.2h193.2l1.2 1.2v10.24l19.55 19.55h4.6l4.31 4.31h7l3.47-3.47h16.72l5.12-5.12h25.68L505 368.66v13l5.52 5.52h4.63l17.38 17.38.71-.71-17.67-17.67h-4.67l-4.9-4.99v-13l-21.31-21.31h-26.54l-5.15 5.18h-24.2l-18-18v-3.27l-2.64-2.64v-4.25l-2.67-2.67h12.11l1.85 1.85h2l.71.71v1.16l2.75 2.75v9.51l9 9h11l2.82-2.82h19.37l3.16-3.16h1.94l.56-.56h13.14l1.06 1.06h1.15l24 24v16.22l23.67 23.67.71-.71L513 380.42V364.2l-19.27-19.27V344l-3.08-3.08 1.35-1.32h3.71l31 31v2.65l3.7 3.7h4.13l1-1h10.81l.57-.57h53v-1h-53.25l-.87-.87.93-.93H600v-1h-56.75l-1.37-1.37h-8.82l-1.75-1.75h-1.19L511 349.29v-4.93l-11.13-11.13h-14l-2.21 2.21h-38.41l-3.88-3.88h-4l-9.83-9.83.51-.51h2.44l1 1h1.17l5.16 5.16h8.45l.61.61h.7l4.21 4.21h26l3.29-3.29h23.33l14.83 14.83v6.75l16.41 16.41H600v-1h-63.93l-15.82-15.82v-6.75l-15.41-15.43h-24.16l-3.29 3.29h-25.14l-3.5-3.5V327l1.11-1.11h2.44l1.18-1.18H458l3 3h11l3.24-3.24h36.5l5.54-5.54v-13.3l.34-.29v17l10.39 10.39H600v-.5h-71.69l-10.09-10.09v-17.22l.3-.26v17.21l9.88 9.88H600v-.5h-71.39l-9.61-9.58v-17.44l.14-.12v-2.35l.18.18v19.36l9.58 9.58H600v-.5h-70.88l-9.29-9.29v-19.35l-.68-.68V300l1.21 1.21V321l8.92 8.92H600v-.5h-70.5l-8.63-8.63V301l-1.71-1.71V297l.93-.93v-2.23l-8.44-8.44V282l3.54-3.54v-1.9l9.61-9.61v-20.62l.87-.87v-9.93l-.87-.87v-17.8l-8.52-8.52v-16.69l8.52-8.52v-17.8l.87-.87v-9.93l-.87-.87v-20.57l-9.61-9.61v-1.9l-3.55-3.58v-3.46l8.44-8.44v-2.23l-.93-.93v-2.26l1.71-1.68V79.22l8.63-8.63h40.44a.46.46 0 00.46.42h9.89a.46.46 0 00.46-.42H600v-.5h-19.26v-.49H600v-.5h-19.26v-.37H600v-.5h-19.26v-.45H600v-.5h-19.26a.47.47 0 00-.47-.47h-9.89a.47.47 0 00-.47.47H528.1l-10.38 10.39v17l-.34-.29V81l-5.54-5.54h-36.5l-3.24-3.24h-11l-3 3h-4.55l-1.18-1.18h-2.44L448.74 73v-.71l3.5-3.5h25.15l3.29 3.29h24.15l15.41-15.41v-6.75l15.83-15.82H600v-1h-64.34l-16.41 16.41v6.75l-14.83 14.82H481.1l-3.29-3.29h-26L447.62 72h-.7l-.62.62h-8.45l-5.16 5.16h-1.17l-1 1h-2.44l-.51-.51 9.83-9.83h4l3.88-3.88h38.36l2.21 2.21h14L511 55.62v-4.93l19.16-19.16h1.19l1.75-1.75h8.82l1.37-1.37H600v-1h-53.28l-.93-.93zM434.23 54.85h10.22l2.82 2.82h14.61l1.12 1.11h3.07l1.6 1.6h-25.9l-.47-.47h-4.06l-2.33 2.33v1.19L429.34 69h-.95l-2 2h-.53v-7.79zm87 100.37l-.55.55v8.7l.55.55v15.76l-4.95 4.95v-4.43a5.43 5.43 0 00-4.63-5.37V132.5h6.74l2.84 2.84v19.89zm-4.95 59l4.95 4.95V235l-.55.55v8.7l.55.55v19.89l-2.84 2.84h-6.74v-43.47a5.43 5.43 0 004.63-5.37v-4.43zM78.76 244.77l.55-.55v-8.7l-.55-.52v-15.79l4.95-4.95v4.43a5.45 5.45 0 00.09 1 5.43 5.43 0 004.54 4.38v43.43H81.6l-2.84-2.84v-19.89zm8.75-68.64l-.31.11a5.4 5.4 0 00-.52.23l-.35.2q-.23.14-.44.29l-.3.24a5.49 5.49 0 00-.42.4l-.21.23a5.46 5.46 0 00-.4.55l-.15.25a5.42 5.42 0 00-.31.64l-.09.23a5.38 5.38 0 00-.21.75v.16a5.44 5.44 0 00-.08.87v4.45l-4.95-4.95V165l.55-.55v-8.7l-.55-.55v-19.87l2.84-2.84h6.74v43.43h-.18a5.4 5.4 0 00-.66.2zm5.85 132.35v-217a7.74 7.74 0 017.74-7.74h397.8a7.74 7.74 0 017.74 7.74v217a7.74 7.74 0 01-7.74 7.74H101.09a7.74 7.74 0 01-7.73-7.75zM82 131.43l-3.7 3.7v19.8h-.76l-.41-.41v-20.17l4.87-4.83v1.91zm-4.83 34.76h.46l.67-.67V181l5.45 5.45v1.76l-6.58-6.58v-15.44zm6.58 47.36L78.26 219v15.47l-.67-.67h-.46v-15.42l6.58-6.58v1.76zm-6.58 31.92l.41-.41h.72v19.8l3.7 3.7v1.91l-4.83-4.83v-20.17zM518 268.55l3.7-3.7v-19.8h.72l.41.41v20.16l-4.83 4.84v-1.91zm4.83-34.76h-.46l-.67.67V219l-5.45-5.45v-1.76l6.58 6.58v15.43zm-6.58-47.36l5.45-5.45v-15.46l.67.67h.46v15.42l-6.58 6.58v-1.76zm6.58-31.92l-.41.41h-.72v-19.8l-3.7-3.7v-1.91l4.83 4.83v20.16zM408.45 65.23l-5.31 5.31v1.65l-1.32 1.32V69.2l16.25-16.25h4.3L410.1 65.23h-1.65zm-9.69 2.51l19-19h4.6l4.31-4.31h6.19l2.47 2.47h-6.9l-5 5h-5.72l-16.89 16.89v5.71l-2.06 2.06v-8.82zm-207.23-2.51h-1.65l-12.27-12.28h4.3l16.25 16.25v4.3l-1.32-1.31v-1.65zm-26.84-18.31l2.47-2.47h6.19l4.31 4.31h4.6l19 19v8.82l-2.06-2.05v-5.74l-16.88-16.84h-5.72l-5-5h-6.9zm-12 10.75l2.82-2.82h10.22l8.37 8.37v7.14h-.21l-.32.32h-.32L171.6 69h-.95l-5.57-5.57v-1.19l-2.33-2.33h-4.06l-.47.47h-25.9l1.6-1.6H137l1.11-1.11h14.61zm6.31 9.76l-3.88-3.88H116l-2.21 2.21h-13.21L90 55.21v-4.93L70.76 31v-.94h1.8l31.32 31.32h3.8l.53.53h5.62l.53-.53h11.92l-.09.09h5.07l.09-.09h26.88l.64.62h2.52l2.1 2.1h.89l5.57 5.57v.74l6 6h.74l.79.79-.63.63h-3.41L163 67.43h-4zm-4 7.15h3.08l1-1h2.64l4.51 4.51-.51.51h-1.08l-.13.13h-3.09l-1.54-1.54H159l-1.93-1.93h-2.79zM88.56 76.5h36.5l3.24-3.24h10.22l3 3h4l.56.56h6.69l.56-.56h3.37l1.3 1.31-.6.6h-3.45l-.59.59h-52.28A12.74 12.74 0 0088.34 91.5v14.13h-1.2l-2.22-2.22v-7.68l-1.32-1.32v-13zm-58.49-8.72h41.61l10.09 10.09v17.19l-.3.26V78.11l-9.88-9.88H30.07v-.45zm0 .95h41.31L81 78.32v17.43l-.14.12v2.35l-.21-.22V78.68l-9.58-9.58h-41v-.37zM79.63 98.8V79l-8.93-8.91H30.07v-.49h40.8l9.28 9.29v19.36l.68.68V100zm.77 7.13v-1.81l.43-.43v1.43l7.51 7.51v1.25zm3.08 19.59v1.79l-6.84 6.84v20.1h-.5l-.45-.54V133.3zm-7.78 57.4v-17.35h.5l.43.43v15.81l7.08 7.08v2zm8 26.13v2l-7.08 7.08V234l-.43.43h-.5v-17.36zm-8 37.23l.45-.54h.49v20.1l6.84 6.84v1.79l-7.78-7.78v-20.41zm4.71 49.59v-1.81l7.94-7.94v1.25l-7.51 7.51v1.43zm-50.33 34H70.7l8.93-8.87v-19.81l1.2-1.19v1.08l-.68.68v19.34l-9.28 9.29h-40.8v-.49zm0 1h41l9.58-9.58v-19.35l.18-.18v2.35l.16.12v17.44l-9.59 9.59H30.07v-.37zm51.7-8.78l-10.1 10.12H30.07v-.45h41.52l9.88-9.88v-17.22l.3.26v17.19zm59.78 1.58l-3 3H128.3l-3.24-3.24h-36.5l-5-5v-13l1.32-1.32v-7.69l2.22-2.22h1.2v14.13a12.74 12.74 0 0012.74 12.74h52.26l.59.59h3.45l.6.6-1.28 1.28h-15.11zm20.17 2.68h-2.64l-1-1h-3.41l-.72-.72h3.12l1.93-1.93h.84l1.54-1.54h3.09l.13.13h1.08l.51.51zm-57.85 12.25l-31.31 31.32h-1.8V369L90 349.71v-4.93l10.55-10.55h13.16l2.21 2.21h39.19l3.88-3.88h4l10.47-10.47h3.41l.63.63-15.36 15.36h-.74l-.53.53h-46.51l-.53-.53h-5.62l-.53.53h-3.8zm61.87 6.53h-10.22l-2.82-2.82H138.1l-1.1-1.11h-3.07l-1.6-1.6h25.89l.47.47h4.06l2.33-2.33v-1.19l5.57-5.57h.95l2-2h.53v7.77zm25.78-10.38l5.31-5.31v-1.64l1.32-1.32v4.3L181.91 347h-4.31l12.28-12.28h1.65zm9.69-2.51l-19 19h-4.6l-4.31 4.31h-6.19l-2.47-2.47h6.9l5-5h5.72l16.84-16.84v-5.72l2.06-2.06v8.83zm207.23 2.51h1.65L422.38 347h-4.3l-16.25-16.25v-4.3l1.32 1.32v1.65zm26.85 18.31l-2.47 2.47h-6.19l-4.31-4.31h-4.6l-19-19v-8.83l2.06 2.06v5.72L417.66 348h5.72l5 5h6.9zm12-10.75l-2.82 2.82h-10.25l-8.37-8.37V329h.53l2 2h.95l5.57 5.57v1.19l2.33 2.33h4.06l.47-.47h25.89l-1.6 1.6H463l-1.11 1.11h-14.62zm-6.3-9.75l3.88 3.88H484l2.21-2.21h13.19l10.6 10.55v4.93L529.22 369v.94h-1.8L496.1 338.6h-3.8l-.53-.53h-5.62l-.53.53h-46.5l-.53-.53h-.75l-15.36-15.36.63-.63h3.41L437 332.56h4zm4.33-7.15h-3.41l-1 1h-2.64l-4.51-4.51.51-.51h1.08l.13-.13h3.09l1.54 1.54h.88l1.93 1.93H446zm66.14-1.92h-36.5l-3.24 3.24h-10.26l-3-3h-15.18l-1.29-1.32.6-.6h3.45l.59-.59h52.26a12.75 12.75 0 0012.74-12.74v-14.13h1.2l2.22 2.22v7.69l1.32 1.32v13zm8.16-29.43v1.81l-.43.43v-1.43l-7.51-7.51v-1.25zm-3.08-19.59v-1.79l6.84-6.84v-20.1h.49l.45.54v20.41zm7.78-57.4v17.34h-.51l-.43-.43v-15.81l-7.08-7.08v-2zm-8-26.13v-2l7.08-7.08V166l.43-.43h.51v17.34zm8-37.23l-.45.54h-.49v-20.1l-6.84-6.84v-1.79l7.78 7.78v20.41zm-4.71-49.59v1.81l-7.94 7.94v-1.25l7.51-7.51v-1.43zm50.33-34h-40.67L520.36 79v19.8l-1.2 1.2v-1.07l.68-.68V78.88l9.29-9.29h40.8v.49zm0-1h-41l-9.58 9.58V98l-.18.18v-2.31l-.19-.12V78.32l9.59-9.59h41.31v.37zm-51.7 8.78l10.09-10.09h41.61v.45H528.4l-9.88 9.88v17.18l-.3-.26V77.87zm-59.78-1.58l3-3h10.22l3.24 3.24h36.5l5 5v13l-1.32 1.32v7.69l-2.22 2.22h-1.2V91.5a12.74 12.74 0 00-12.74-12.74h-52.3l-.59-.59h-3.45l-.6-.6 1.28-1.28h15.15zm-20.17-2.68h2.64l1 1h3.41l.65.65h-3.12L441 77.22h-.84l-1.54 1.54h-3.09l-.13-.13h-1.08l-.51-.51zM510 50.28v4.93l-10.6 10.55h-13.16L484 63.54h-39.16L441 67.43h-4L426.53 77.9h-3.41l-.63-.63 15.36-15.36h.75l.53-.53h46.51l.53.53h5.62l.53-.53h3.8l31.32-31.32h1.8V31z" transform="translate(0 4.52)"/></g><g id="Layer_1" data-name="Layer 1"><g class="cls-3"><path class="cls-4" d="M504.64 308.49V91.5a5.74 5.74 0 00-5.74-5.74H101.08a5.74 5.74 0 00-5.74 5.74v217a5.74 5.74 0 005.74 5.74h397.83a5.74 5.74 0 005.73-5.75zm-408.29 0v-217a4.74 4.74 0 014.74-4.74h397.8a4.74 4.74 0 014.74 4.74v217a4.74 4.74 0 01-4.74 4.74h-397.8a4.74 4.74 0 01-4.73-4.76z" transform="translate(0 4.52)"/></g><g class="cls-3"><path class="cls-4" d="M504.64 308.49V91.5a5.74 5.74 0 00-5.74-5.74H101.08a5.74 5.74 0 00-5.74 5.74v217a5.74 5.74 0 005.74 5.74h397.83a5.74 5.74 0 005.73-5.75zm-408.29 0v-217a4.74 4.74 0 014.74-4.74h397.8a4.74 4.74 0 014.74 4.74v217a4.74 4.74 0 01-4.74 4.74h-397.8a4.74 4.74 0 01-4.73-4.76z" transform="translate(0 4.52)"/></g></g></g></svg>