<svg preserveAspectRatio="none" id="Layer_1" data-name="Layer 1" xmlns="http://www.w3.org/2000/svg" viewBox="0 0 106.01 106.01"><defs><style>.cls-1{fill:#02a6ff}</style></defs><path id="_复合路径_" data-name="&lt;复合路径&gt;" class="cls-1" d="M2487.25 1897.42l-4.25-.42a2.41 2.41 0 01-2-1.92l-.71-3.7a2.4 2.4 0 011.17-2.55l3.74-2a2 2 0 00.92-2.47l-1.88-4.65a2 2 0 00-2.37-1.15l-4 1.19a2.44 2.44 0 01-2.62-1l-2.58-3.9a2.43 2.43 0 01.08-2.82l2.69-3.26a2 2 0 00-.13-2.63l-3.54-3.55a2 2 0 00-2.63-.12l-3.27 2.69a2.38 2.38 0 01-2.8.08l-3.33-2.24a2.41 2.41 0 01-1-2.62l1.25-4a2 2 0 00-1.11-2.39l-4.63-1.94a2 2 0 00-2.48.88l-2 3.72a2.43 2.43 0 01-2.57 1.14l-4.36-.87a2.44 2.44 0 01-1.93-2l-.4-4.22a2 2 0 00-2-1.77h-5a2 2 0 00-2 1.77l-.4 4.22a2.44 2.44 0 01-1.93 2l-4.25.84a2.41 2.41 0 01-2.56-1.15l-2-3.73a2 2 0 00-2.48-.88l-4.63 1.93a2 2 0 00-1.12 2.39l1.24 4a2.41 2.41 0 01-1 2.62l-3.42 2.29a2.39 2.39 0 01-2.81-.08l-3.27-2.69a2 2 0 00-2.63.12l-3.54 3.55a2 2 0 00-.13 2.63l2.69 3.26a2.42 2.42 0 01.08 2.81l-2.23 3.31a2.39 2.39 0 01-2.62 1l-4-1.25a2 2 0 00-2.39 1.11l-1.94 4.63a2 2 0 00.87 2.48l3.72 2a2.41 2.41 0 011.14 2.57l-.87 4.37a2.42 2.42 0 01-2 1.92l-4.21.41a2 2 0 00-1.77 2v5a2 2 0 001.77 2l4.21.41a2.4 2.4 0 012 1.92l.72 3.7a2.42 2.42 0 01-1.17 2.55l-3.75 2a2 2 0 00-.91 2.47l1.87 4.65a2 2 0 002.37 1.15l4-1.19a2.44 2.44 0 012.62 1l2.58 3.9a2.43 2.43 0 01-.08 2.82l-2.69 3.26a2 2 0 00.13 2.63l3.54 3.55a2 2 0 002.63.12l3.27-2.68a2.39 2.39 0 012.81-.08l3.32 2.23a2.43 2.43 0 011 2.63l-1.25 4a2 2 0 001.11 2.39l4.63 1.94a2 2 0 002.48-.88l2-3.72a2.42 2.42 0 012.57-1.14l4.35.87a2.44 2.44 0 011.93 2l.4 4.22a2 2 0 002 1.77h5a2 2 0 002-1.77l.4-4.22a2.44 2.44 0 011.93-2l4.25-.84a2.4 2.4 0 012.56 1.15l2 3.72a2 2 0 002.48.89l4.63-1.93a2 2 0 001.12-2.39l-1.24-4a2.4 2.4 0 011-2.62l3.41-2.29a2.39 2.39 0 012.81.08l3.27 2.68a2 2 0 002.63-.12l3.54-3.55a2 2 0 00.13-2.63l-2.69-3.26a2.42 2.42 0 01-.08-2.81l2.23-3.31a2.4 2.4 0 012.63-1l4 1.25a2 2 0 002.39-1.11l1.94-4.63a2 2 0 00-.87-2.48l-3.72-2a2.42 2.42 0 01-1.14-2.57l.87-4.37a2.42 2.42 0 012-1.92l4.21-.41a2 2 0 001.78-2v-5a2 2 0 00-1.73-1.99zm-14.47 2.67h-13.63a23 23 0 00-5.51-13.3l9.64-9.63a36.63 36.63 0 019.5 22.93zm-25.41 0a11.5 11.5 0 010 3.58 11.36 11.36 0 01-2.06 5 11.78 11.78 0 01-2.53 2.54 11.55 11.55 0 01-5 2.06 11.56 11.56 0 01-3.59 0 11.41 11.41 0 01-5-2.06 11.63 11.63 0 01-2.54-2.54 11.36 11.36 0 01-2.06-5 11.5 11.5 0 010-3.58 11.41 11.41 0 012.06-5 11.63 11.63 0 012.54-2.54 11.41 11.41 0 015-2.06 11.55 11.55 0 013.59 0 11.55 11.55 0 015 2.06 12 12 0 012.53 2.54 11.42 11.42 0 012.06 5zm-1.49-10.61a15.66 15.66 0 00-8.07-3.36v-4.76a20.51 20.51 0 0111.44 4.75zm-11.66-3.36a15.66 15.66 0 00-8.07 3.36l-3.37-3.37a20.51 20.51 0 0111.44-4.75v4.76zm-10.61 5.89a15.69 15.69 0 00-3.36 8.08h-4.75a20.53 20.53 0 014.75-11.44zm-3.36 11.66a15.61 15.61 0 003.36 8.08l-3.37 3.37a20.59 20.59 0 01-4.74-11.45h4.75zm5.89 10.61a15.66 15.66 0 008.07 3.36v4.76a20.51 20.51 0 01-11.44-4.75zm11.66 3.36a15.66 15.66 0 008.07-3.36l3.37 3.37a20.51 20.51 0 01-11.44 4.75v-4.76zm10.61-5.89a15.61 15.61 0 003.36-8.08h4.75a20.5 20.5 0 01-4.74 11.44zm3.36-11.66a15.69 15.69 0 00-3.36-8.08l3.36-3.36a20.53 20.53 0 014.75 11.44h-4.75zm9-25.47l-9.64 9.64a23 23 0 00-13.29-5.52v-13.62a36.66 36.66 0 0122.91 9.5zm-26.52-9.5v13.62a23 23 0 00-13.29 5.52l-9.64-9.64a36.66 36.66 0 0122.91-9.5zm-25.46 12l9.63 9.63a23.07 23.07 0 00-5.51 13.3h-13.63a36.59 36.59 0 019.49-22.89zm-9.51 26.51h13.63a23 23 0 005.51 13.3l-9.63 9.63a36.62 36.62 0 01-9.53-22.9zm12 25.47l9.64-9.64a23 23 0 0013.29 5.52v13.62a36.66 36.66 0 01-22.91-9.47zm26.52 9.5V1925a23 23 0 0013.29-5.52l9.64 9.64a36.66 36.66 0 01-22.92 9.51zm25.47-12l-9.64-9.63a23 23 0 005.51-13.3h13.63a36.66 36.66 0 01-9.49 22.93z" transform="translate(-2383.02 -1848.87)"/><path id="_复合路径_2" data-name="&lt;复合路径&gt;" class="cls-1" d="M2487.25 1897.42l-4.25-.42a2.41 2.41 0 01-2-1.92l-.71-3.7a2.4 2.4 0 011.17-2.55l3.74-2a2 2 0 00.92-2.47l-1.88-4.65a2 2 0 00-2.37-1.15l-4 1.19a2.44 2.44 0 01-2.62-1l-2.58-3.9a2.43 2.43 0 01.08-2.82l2.69-3.26a2 2 0 00-.13-2.63l-3.54-3.55a2 2 0 00-2.63-.12l-3.27 2.69a2.38 2.38 0 01-2.8.08l-3.33-2.24a2.41 2.41 0 01-1-2.62l1.25-4a2 2 0 00-1.11-2.39l-4.63-1.94a2 2 0 00-2.48.88l-2 3.72a2.43 2.43 0 01-2.57 1.14l-4.36-.87a2.44 2.44 0 01-1.93-2l-.4-4.22a2 2 0 00-2-1.77h-5a2 2 0 00-2 1.77l-.4 4.22a2.44 2.44 0 01-1.93 2l-4.25.84a2.41 2.41 0 01-2.56-1.15l-2-3.73a2 2 0 00-2.48-.88l-4.63 1.93a2 2 0 00-1.12 2.39l1.24 4a2.41 2.41 0 01-1 2.62l-3.42 2.29a2.39 2.39 0 01-2.81-.08l-3.27-2.69a2 2 0 00-2.63.12l-3.54 3.55a2 2 0 00-.13 2.63l2.69 3.26a2.42 2.42 0 01.08 2.81l-2.23 3.31a2.39 2.39 0 01-2.62 1l-4-1.25a2 2 0 00-2.39 1.11l-1.94 4.63a2 2 0 00.87 2.48l3.72 2a2.41 2.41 0 011.14 2.57l-.87 4.37a2.42 2.42 0 01-2 1.92l-4.21.41a2 2 0 00-1.77 2v5a2 2 0 001.77 2l4.21.41a2.4 2.4 0 012 1.92l.72 3.7a2.42 2.42 0 01-1.17 2.55l-3.75 2a2 2 0 00-.91 2.47l1.87 4.65a2 2 0 002.37 1.15l4-1.19a2.44 2.44 0 012.62 1l2.58 3.9a2.43 2.43 0 01-.08 2.82l-2.69 3.26a2 2 0 00.13 2.63l3.54 3.55a2 2 0 002.63.12l3.27-2.68a2.39 2.39 0 012.81-.08l3.32 2.23a2.43 2.43 0 011 2.63l-1.25 4a2 2 0 001.11 2.39l4.63 1.94a2 2 0 002.48-.88l2-3.72a2.42 2.42 0 012.57-1.14l4.35.87a2.44 2.44 0 011.93 2l.4 4.22a2 2 0 002 1.77h5a2 2 0 002-1.77l.4-4.22a2.44 2.44 0 011.93-2l4.25-.84a2.4 2.4 0 012.56 1.15l2 3.72a2 2 0 002.48.89l4.63-1.93a2 2 0 001.12-2.39l-1.24-4a2.4 2.4 0 011-2.62l3.41-2.29a2.39 2.39 0 012.81.08l3.27 2.68a2 2 0 002.63-.12l3.54-3.55a2 2 0 00.13-2.63l-2.69-3.26a2.42 2.42 0 01-.08-2.81l2.23-3.31a2.4 2.4 0 012.63-1l4 1.25a2 2 0 002.39-1.11l1.94-4.63a2 2 0 00-.87-2.48l-3.72-2a2.42 2.42 0 01-1.14-2.57l.87-4.37a2.42 2.42 0 012-1.92l4.21-.41a2 2 0 001.78-2v-5a2 2 0 00-1.73-1.99zm-14.47 2.67h-13.63a23 23 0 00-5.51-13.3l9.64-9.63a36.63 36.63 0 019.5 22.93zm-25.41 0a11.5 11.5 0 010 3.58 11.36 11.36 0 01-2.06 5 11.78 11.78 0 01-2.53 2.54 11.55 11.55 0 01-5 2.06 11.56 11.56 0 01-3.59 0 11.41 11.41 0 01-5-2.06 11.63 11.63 0 01-2.54-2.54 11.36 11.36 0 01-2.06-5 11.5 11.5 0 010-3.58 11.41 11.41 0 012.06-5 11.63 11.63 0 012.54-2.54 11.41 11.41 0 015-2.06 11.55 11.55 0 013.59 0 11.55 11.55 0 015 2.06 12 12 0 012.53 2.54 11.42 11.42 0 012.06 5zm-1.49-10.61a15.66 15.66 0 00-8.07-3.36v-4.76a20.51 20.51 0 0111.44 4.75zm-11.66-3.36a15.66 15.66 0 00-8.07 3.36l-3.37-3.37a20.51 20.51 0 0111.44-4.75v4.76zm-10.61 5.89a15.69 15.69 0 00-3.36 8.08h-4.75a20.53 20.53 0 014.75-11.44zm-3.36 11.66a15.61 15.61 0 003.36 8.08l-3.37 3.37a20.59 20.59 0 01-4.74-11.45h4.75zm5.89 10.61a15.66 15.66 0 008.07 3.36v4.76a20.51 20.51 0 01-11.44-4.75zm11.66 3.36a15.66 15.66 0 008.07-3.36l3.37 3.37a20.51 20.51 0 01-11.44 4.75v-4.76zm10.61-5.89a15.61 15.61 0 003.36-8.08h4.75a20.5 20.5 0 01-4.74 11.44zm3.36-11.66a15.69 15.69 0 00-3.36-8.08l3.36-3.36a20.53 20.53 0 014.75 11.44h-4.75zm9-25.47l-9.64 9.64a23 23 0 00-13.29-5.52v-13.62a36.66 36.66 0 0122.91 9.5zm-26.52-9.5v13.62a23 23 0 00-13.29 5.52l-9.64-9.64a36.66 36.66 0 0122.91-9.5zm-25.46 12l9.63 9.63a23.07 23.07 0 00-5.51 13.3h-13.63a36.59 36.59 0 019.49-22.89zm-9.51 26.51h13.63a23 23 0 005.51 13.3l-9.63 9.63a36.62 36.62 0 01-9.53-22.9zm12 25.47l9.64-9.64a23 23 0 0013.29 5.52v13.62a36.66 36.66 0 01-22.91-9.47zm26.52 9.5V1925a23 23 0 0013.29-5.52l9.64 9.64a36.66 36.66 0 01-22.92 9.51zm25.47-12l-9.64-9.63a23 23 0 005.51-13.3h13.63a36.66 36.66 0 01-9.49 22.93z" transform="translate(-2383.02 -1848.87)"/></svg>