<svg preserveAspectRatio="none" xmlns="http://www.w3.org/2000/svg" viewBox="0 0 320.93 265.25"><defs><style>.cls-1{isolation:isolate;}.cls-2,.cls-3{fill:#03a6ff;}.cls-3{mix-blend-mode:screen;}</style></defs><title>shape47</title><g class="cls-1"><g id="Layer_3" data-name="Layer 3"><path class="cls-2" d="M1854.32,1694a3.75,3.75,0,1,1,3.75-3.75A3.75,3.75,0,0,1,1854.32,1694Zm0-6.87a3.12,3.12,0,1,0,3.12,3.12A3.12,3.12,0,0,0,1854.32,1687.14Z" transform="translate(-1693.85 -1567.99)"/><circle class="cls-2" cx="160.47" cy="122.27" r="0.73"/><polygon class="cls-2" points="176.95 110.17 172.2 101.94 162.71 101.94 162.71 101.32 172.56 101.32 177.49 109.86 176.95 110.17"/><polygon class="cls-2" points="143.98 110.17 143.44 109.86 148.37 101.32 158.22 101.32 158.22 101.94 148.73 101.94 143.98 110.17"/><polygon class="cls-2" points="141.2 130.81 136.27 122.27 141.2 113.74 141.74 114.05 136.99 122.27 141.74 130.5 141.2 130.81"/><polygon class="cls-2" points="158.22 143.23 148.37 143.23 143.44 134.69 143.98 134.38 148.73 142.6 158.22 142.6 158.22 143.23"/><polygon class="cls-2" points="172.56 143.23 162.71 143.23 162.71 142.6 172.2 142.6 176.95 134.38 177.49 134.69 172.56 143.23"/><polygon class="cls-2" points="179.73 130.81 179.19 130.5 183.94 122.27 179.19 114.05 179.73 113.74 184.66 122.27 179.73 130.81"/><rect class="cls-2" x="1832.12" y="1692.67" width="0.62" height="23.83" transform="matrix(0.87, -0.5, 0.5, 0.87, -2300.64, -423.41)"/><rect class="cls-2" x="1864.28" y="1704.28" width="23.83" height="0.62" transform="matrix(0.5, -0.87, 0.87, 0.5, -2232.26, 908.23)"/><rect class="cls-2" x="148.55" y="96.37" width="23.83" height="0.62"/><polygon class="cls-2" points="185.65 139.03 191.61 128.8 197.5 139.08 203.38 149.36 191.53 149.31 179.69 149.27 185.65 139.03"/><polygon class="cls-2" points="135.28 139.03 129.32 128.8 123.44 139.08 117.55 149.36 129.4 149.31 141.25 149.27 135.28 139.03"/><polygon class="cls-2" points="160.47 93.23 172.31 93.21 166.37 82.96 160.43 72.72 154.53 82.98 148.62 93.25 160.47 93.23"/><polygon class="cls-2" points="165.03 73.46 160.47 65.55 155.9 73.46 155.36 73.14 160.47 64.3 165.57 73.14 165.03 73.46"/><rect class="cls-2" x="1818.7" y="1676.98" width="19.98" height="0.62" transform="translate(-2232.01 854.6) rotate(-60.01)"/><polygon class="cls-2" points="118.89 154 108.67 154 113.78 145.16 114.32 145.47 109.76 153.38 118.89 153.38 118.89 154"/><rect class="cls-2" x="150.48" y="153.38" width="19.98" height="0.62"/><polygon class="cls-2" points="212.26 154 202.04 154 202.04 153.38 211.18 153.38 206.61 145.47 207.15 145.16 212.26 154"/><rect class="cls-2" x="1879.63" y="1667.3" width="0.62" height="19.98" transform="matrix(0.87, -0.5, 0.5, 0.87, -2280.63, -403.34)"/><polygon class="cls-2" points="165.03 73.46 160.47 65.55 155.9 73.46 155.36 73.14 160.47 64.3 165.57 73.14 165.03 73.46"/><rect class="cls-2" x="1818.7" y="1676.98" width="19.98" height="0.62" transform="translate(-2232.01 854.6) rotate(-60.01)"/><polygon class="cls-2" points="118.89 154 108.67 154 113.78 145.16 114.32 145.47 109.76 153.38 118.89 153.38 118.89 154"/><rect class="cls-2" x="150.48" y="153.38" width="19.98" height="0.62"/><polygon class="cls-2" points="212.26 154 202.04 154 202.04 153.38 211.18 153.38 206.61 145.47 207.15 145.16 212.26 154"/><rect class="cls-2" x="1879.63" y="1667.3" width="0.62" height="19.98" transform="matrix(0.87, -0.5, 0.5, 0.87, -2280.63, -403.34)"/><path class="cls-2" d="M1849.08,1762.23h0a74.71,74.71,0,0,1-28.31-7.7l1-2a72.5,72.5,0,0,0,27.48,7.47h0a72.9,72.9,0,0,0,37.09-7.21l1,2A75.11,75.11,0,0,1,1849.08,1762.23Zm-67.53-80-2.2-.15V1682a74.67,74.67,0,0,1,33.45-57.4l1.22,1.84a72.48,72.48,0,0,0-32.47,55.72v0.08Zm145.57,0.46a73.36,73.36,0,0,0-32.13-56l1.23-1.83a75.58,75.58,0,0,1,33.1,57.71Z" transform="translate(-1693.85 -1567.99)"/><path class="cls-3" d="M1782,1582.64v-3.55a132,132,0,0,0-48.86,50.06c-34.95,63.06-13,142.53,48.86,178.84v-3.57c-59.22-35.86-80-112.71-46.19-173.78A128.81,128.81,0,0,1,1782,1582.64Z" transform="translate(-1693.85 -1567.99)"/><path class="cls-3" d="M1972.83,1630.64c33.86,61.07,13,137.92-46.19,173.78V1808c61.82-36.31,83.81-115.78,48.86-178.84a131.94,131.94,0,0,0-48.86-50.06v3.55A128.81,128.81,0,0,1,1972.83,1630.64Z" transform="translate(-1693.85 -1567.99)"/><rect class="cls-3" x="27.34" y="222.6" width="53.92" height="2.65"/><rect class="cls-3" x="27.34" y="25.81" width="53.92" height="2.65"/><path class="cls-2" d="M1750.75,1774l-1.23-1.63,2.46-1.81q0.59,0.8,1.2,1.59Z" transform="translate(-1693.85 -1567.99)"/><path class="cls-2" d="M1747.15,1769l-1.15-1.69,2.54-1.7q0.55,0.82,1.12,1.65Z" transform="translate(-1693.85 -1567.99)"/><path class="cls-2" d="M1743.79,1763.9q-0.54-.87-1.07-1.74l2.62-1.57q0.51,0.85,1,1.7Z" transform="translate(-1693.85 -1567.99)"/><path class="cls-2" d="M1740.68,1758.63q-0.5-.89-1-1.79l2.68-1.45,1,1.75Z" transform="translate(-1693.85 -1567.99)"/><path class="cls-2" d="M1737.81,1753.23q-0.46-.92-0.9-1.83l2.75-1.33q0.43,0.89.88,1.79Z" transform="translate(-1693.85 -1567.99)"/><path class="cls-2" d="M1735.19,1747.7q-0.42-.94-0.82-1.87l2.8-1.2q0.39,0.91.8,1.83Z" transform="translate(-1693.85 -1567.99)"/><path class="cls-2" d="M1732.82,1742.06q-0.38-1-.74-1.9l2.85-1.08q0.35,0.93.72,1.86Z" transform="translate(-1693.85 -1567.99)"/><path class="cls-2" d="M1730.69,1736.33q-0.34-1-.65-1.93l2.9-1q0.31,0.94.64,1.89Z" transform="translate(-1693.85 -1567.99)"/><path class="cls-2" d="M1728.81,1730.51q-0.29-1-.57-2l2.93-.84q0.27,1,.56,1.92Z" transform="translate(-1693.85 -1567.99)"/><path class="cls-2" d="M1727.18,1724.62q-0.26-1-.49-2l3-.72q0.23,1,.48,1.94Z" transform="translate(-1693.85 -1567.99)"/><path class="cls-2" d="M1725.78,1718.67q-0.22-1-.41-2l3-.6q0.19,1,.4,2Z" transform="translate(-1693.85 -1567.99)"/><path class="cls-2" d="M1724.62,1712.67q-0.18-1-.33-2l3-.48q0.15,1,.33,2Z" transform="translate(-1693.85 -1567.99)"/><path class="cls-2" d="M1723.7,1706.62q-0.14-1-.25-2l3-.35q0.11,1,.25,2Z" transform="translate(-1693.85 -1567.99)"/><path class="cls-2" d="M1726,1682.41l-3-.27q0.09-1,.2-2l3,0.32Q1726.1,1681.41,1726,1682.41Z" transform="translate(-1693.85 -1567.99)"/><path class="cls-2" d="M1726.68,1676.48l-3-.42q0.14-1,.3-2l3,0.47Q1726.82,1675.49,1726.68,1676.48Z" transform="translate(-1693.85 -1567.99)"/><path class="cls-2" d="M1727.65,1670.58l-3-.57q0.19-1,.39-2l3,0.62Q1727.83,1669.6,1727.65,1670.58Z" transform="translate(-1693.85 -1567.99)"/><path class="cls-2" d="M1728.9,1664.74l-3-.71q0.24-1,.49-2l3,0.76Q1729.13,1663.77,1728.9,1664.74Z" transform="translate(-1693.85 -1567.99)"/><path class="cls-2" d="M1730.43,1659l-2.93-.85q0.29-1,.59-2l2.92,0.9Q1730.71,1658,1730.43,1659Z" transform="translate(-1693.85 -1567.99)"/><path class="cls-2" d="M1732.23,1653.27l-2.89-1q0.33-1,.68-1.92l2.87,1Q1732.56,1652.32,1732.23,1653.27Z" transform="translate(-1693.85 -1567.99)"/><path class="cls-2" d="M1734.31,1647.66l-2.84-1.12q0.38-1,.77-1.89l2.82,1.17Q1734.67,1646.73,1734.31,1647.66Z" transform="translate(-1693.85 -1567.99)"/><path class="cls-2" d="M1736.64,1642.16l-2.78-1.25q0.42-.94.85-1.85l2.76,1.3Q1737,1641.24,1736.64,1642.16Z" transform="translate(-1693.85 -1567.99)"/><path class="cls-2" d="M1739.21,1636.76l-2.72-1.38q0.46-.92.93-1.81l2.7,1.42Z" transform="translate(-1693.85 -1567.99)"/><path class="cls-2" d="M1742,1631.49l-2.66-1.5q0.51-.9,1-1.77l2.64,1.54Q1742.53,1630.61,1742,1631.49Z" transform="translate(-1693.85 -1567.99)"/><path class="cls-2" d="M1745.09,1626.34l-2.59-1.62,1.09-1.72,2.57,1.65Z" transform="translate(-1693.85 -1567.99)"/><path class="cls-2" d="M1748.37,1621.34l-2.52-1.73,1.17-1.67,2.49,1.77Z" transform="translate(-1693.85 -1567.99)"/><polygon class="cls-2" points="58.01 48.51 55.58 46.66 56.82 45.05 59.23 46.92 58.01 48.51"/><polygon class="cls-2" points="48.4 121.84 41.96 118.12 35.53 121.84 29.09 125.55 35.53 129.27 41.96 132.98 48.4 129.27 54.83 125.55 48.4 121.84"/><rect class="cls-2" x="61.44" width="2.43" height="2.43"/><rect class="cls-2" x="66.56" width="2.43" height="2.43"/><rect class="cls-2" x="71.67" width="2.43" height="2.43"/><rect class="cls-2" x="76.79" width="2.43" height="2.43"/><rect class="cls-2" x="61.44" y="6.01" width="2.43" height="2.43"/><rect class="cls-2" x="66.56" y="6.01" width="2.43" height="2.43"/><rect class="cls-2" x="71.67" y="6.01" width="2.43" height="2.43"/><rect class="cls-2" x="76.79" y="6.01" width="2.43" height="2.43"/><rect class="cls-2" x="61.44" y="248.67" width="2.43" height="2.43"/><rect class="cls-2" x="66.56" y="248.67" width="2.43" height="2.43"/><rect class="cls-2" x="71.67" y="248.67" width="2.43" height="2.43"/><rect class="cls-2" x="76.79" y="248.67" width="2.43" height="2.43"/><rect class="cls-2" x="61.44" y="242.66" width="2.43" height="2.43"/><rect class="cls-2" x="66.56" y="242.66" width="2.43" height="2.43"/><rect class="cls-2" x="71.67" y="242.66" width="2.43" height="2.43"/><rect class="cls-2" x="76.79" y="242.66" width="2.43" height="2.43"/><rect class="cls-2" y="34.1" width="29.76" height="1.02"/><rect class="cls-2" y="39.91" width="29.76" height="1.02"/><rect class="cls-2" y="215.99" width="29.76" height="1.02"/><rect class="cls-2" y="210.18" width="29.76" height="1.02"/><rect class="cls-2" x="12.34" y="64.3" width="1.02" height="122.47"/><rect class="cls-2" x="6.17" y="82.93" width="1.02" height="85.21"/><rect class="cls-2" x="1766.68" y="1790.12" width="1.02" height="85.21" transform="translate(-1759.39 2031.93) rotate(-90)"/><polygon class="cls-2" points="95.02 223.93 91.98 225.69 88.93 227.44 88.93 223.93 88.93 220.41 91.98 222.17 95.02 223.93"/><polygon class="cls-2" points="95.02 27.14 91.98 28.89 88.93 30.65 88.93 27.14 88.93 23.62 91.98 25.38 95.02 27.14"/><rect class="cls-3" x="1933.52" y="1790.59" width="53.92" height="2.65" transform="translate(2227.11 2015.84) rotate(180)"/><rect class="cls-3" x="1933.52" y="1593.8" width="53.92" height="2.65" transform="translate(2227.11 1622.26) rotate(180)"/><path class="cls-2" d="M1955.46,1772.11l1.2-1.59,2.46,1.81-1.23,1.63Z" transform="translate(-1693.85 -1567.99)"/><path class="cls-2" d="M1959,1767.28q0.57-.82,1.12-1.65l2.54,1.7-1.15,1.69Z" transform="translate(-1693.85 -1567.99)"/><path class="cls-2" d="M1962.26,1762.29q0.53-.85,1-1.7l2.62,1.57q-0.52.87-1.07,1.74Z" transform="translate(-1693.85 -1567.99)"/><path class="cls-2" d="M1965.3,1757.14l1-1.75,2.68,1.45q-0.48.89-1,1.79Z" transform="translate(-1693.85 -1567.99)"/><path class="cls-2" d="M1968.1,1751.86q0.45-.9.88-1.79l2.75,1.33q-0.44.91-.9,1.83Z" transform="translate(-1693.85 -1567.99)"/><path class="cls-2" d="M1970.66,1746.46q0.41-.92.8-1.83l2.8,1.2q-0.4.93-.82,1.87Z" transform="translate(-1693.85 -1567.99)"/><path class="cls-2" d="M1973,1740.94q0.37-.93.72-1.86l2.85,1.08q-0.36.95-.74,1.9Z" transform="translate(-1693.85 -1567.99)"/><path class="cls-2" d="M1975.06,1735.33q0.33-.95.64-1.89l2.9,1q-0.32,1-.65,1.93Z" transform="translate(-1693.85 -1567.99)"/><path class="cls-2" d="M1976.9,1729.63q0.29-1,.56-1.92l2.93,0.84q-0.28,1-.57,2Z" transform="translate(-1693.85 -1567.99)"/><path class="cls-2" d="M1978.51,1723.86q0.25-1,.48-1.94l3,0.72q-0.24,1-.49,2Z" transform="translate(-1693.85 -1567.99)"/><path class="cls-2" d="M1979.87,1718q0.21-1,.4-2l3,0.6q-0.2,1-.41,2Z" transform="translate(-1693.85 -1567.99)"/><path class="cls-2" d="M1981,1712.15q0.17-1,.33-2l3,0.48q-0.16,1-.33,2Z" transform="translate(-1693.85 -1567.99)"/><path class="cls-2" d="M1981.91,1706.23q0.13-1,.25-2l3,0.35q-0.11,1-.25,2Z" transform="translate(-1693.85 -1567.99)"/><path class="cls-2" d="M1982.44,1680.43l3-.32q0.11,1,.2,2l-3,.27Q1982.54,1681.41,1982.44,1680.43Z" transform="translate(-1693.85 -1567.99)"/><path class="cls-2" d="M1981.66,1674.51l3-.47q0.16,1,.3,2l-3,.42Q1981.82,1675.49,1981.66,1674.51Z" transform="translate(-1693.85 -1567.99)"/><path class="cls-2" d="M1980.6,1668.63l3-.62q0.2,1,.39,2l-3,.57Q1980.8,1669.6,1980.6,1668.63Z" transform="translate(-1693.85 -1567.99)"/><path class="cls-2" d="M1979.26,1662.81l3-.76q0.25,1,.49,2l-3,.71Q1979.5,1663.77,1979.26,1662.81Z" transform="translate(-1693.85 -1567.99)"/><path class="cls-2" d="M1977.64,1657.06l2.92-.9q0.3,1,.59,2l-2.93.85Q1977.93,1658,1977.64,1657.06Z" transform="translate(-1693.85 -1567.99)"/><path class="cls-2" d="M1975.74,1651.39l2.87-1q0.34,1,.68,1.92l-2.89,1Q1976.08,1652.32,1975.74,1651.39Z" transform="translate(-1693.85 -1567.99)"/><path class="cls-2" d="M1973.58,1645.82l2.82-1.17q0.39,0.94.77,1.89l-2.84,1.12Q1974,1646.73,1973.58,1645.82Z" transform="translate(-1693.85 -1567.99)"/><path class="cls-2" d="M1971.17,1640.35l2.76-1.3q0.43,0.92.85,1.85l-2.78,1.25Q1971.59,1641.24,1971.17,1640.35Z" transform="translate(-1693.85 -1567.99)"/><path class="cls-2" d="M1968.51,1635l2.7-1.42q0.47,0.89.93,1.81l-2.72,1.38Q1969,1635.87,1968.51,1635Z" transform="translate(-1693.85 -1567.99)"/><path class="cls-2" d="M1965.61,1629.76l2.64-1.54q0.51,0.87,1,1.77l-2.66,1.5Q1966.11,1630.61,1965.61,1629.76Z" transform="translate(-1693.85 -1567.99)"/><path class="cls-2" d="M1962.48,1624.66L1965,1623l1.09,1.72-2.59,1.62Z" transform="translate(-1693.85 -1567.99)"/><path class="cls-2" d="M1959.13,1619.71l2.49-1.77,1.17,1.67-2.52,1.73Z" transform="translate(-1693.85 -1567.99)"/><polygon class="cls-2" points="261.71 46.92 264.11 45.05 265.35 46.66 262.92 48.51 261.71 46.92"/><polygon class="cls-2" points="272.54 121.84 278.97 118.12 285.41 121.84 291.84 125.55 285.41 129.27 278.97 132.98 272.54 129.27 266.1 125.55 272.54 121.84"/><rect class="cls-2" x="1950.91" y="1567.99" width="2.43" height="2.43" transform="translate(2210.41 1570.42) rotate(180)"/><rect class="cls-2" x="1945.8" y="1567.99" width="2.43" height="2.43" transform="translate(2200.17 1570.42) rotate(180)"/><rect class="cls-2" x="1940.68" y="1567.99" width="2.43" height="2.43" transform="translate(2189.93 1570.42) rotate(180)"/><rect class="cls-2" x="1935.56" y="1567.99" width="2.43" height="2.43" transform="translate(2179.7 1570.42) rotate(180)"/><rect class="cls-2" x="1950.91" y="1574" width="2.43" height="2.43" transform="translate(2210.41 1582.45) rotate(180)"/><rect class="cls-2" x="1945.8" y="1574" width="2.43" height="2.43" transform="translate(2200.17 1582.45) rotate(180)"/><rect class="cls-2" x="1940.68" y="1574" width="2.43" height="2.43" transform="translate(2189.93 1582.45) rotate(180)"/><rect class="cls-2" x="1935.56" y="1574" width="2.43" height="2.43" transform="translate(2179.7 1582.45) rotate(180)"/><rect class="cls-2" x="1950.91" y="1816.66" width="2.43" height="2.43" transform="translate(2210.41 2067.76) rotate(180)"/><rect class="cls-2" x="1945.8" y="1816.66" width="2.43" height="2.43" transform="translate(2200.17 2067.76) rotate(180)"/><rect class="cls-2" x="1940.68" y="1816.66" width="2.43" height="2.43" transform="translate(2189.93 2067.76) rotate(180)"/><rect class="cls-2" x="1935.56" y="1816.66" width="2.43" height="2.43" transform="translate(2179.7 2067.76) rotate(180)"/><rect class="cls-2" x="1950.91" y="1810.64" width="2.43" height="2.43" transform="translate(2210.41 2055.73) rotate(180)"/><rect class="cls-2" x="1945.8" y="1810.64" width="2.43" height="2.43" transform="translate(2200.17 2055.73) rotate(180)"/><rect class="cls-2" x="1940.68" y="1810.64" width="2.43" height="2.43" transform="translate(2189.93 2055.73) rotate(180)"/><rect class="cls-2" x="1935.56" y="1810.64" width="2.43" height="2.43" transform="translate(2179.7 2055.73) rotate(180)"/><rect class="cls-2" x="1985.03" y="1602.08" width="29.76" height="1.02" transform="translate(2305.96 1637.2) rotate(180)"/><rect class="cls-2" x="1985.03" y="1607.89" width="29.76" height="1.02" transform="translate(2305.96 1648.81) rotate(180)"/><rect class="cls-2" x="1985.03" y="1783.98" width="29.76" height="1.02" transform="translate(2305.96 2000.98) rotate(180)"/><rect class="cls-2" x="1985.03" y="1778.17" width="29.76" height="1.02" transform="translate(2305.96 1989.37) rotate(180)"/><rect class="cls-2" x="2001.43" y="1632.28" width="1.02" height="122.47" transform="translate(2310.03 1819.05) rotate(180)"/><rect class="cls-2" x="2007.6" y="1650.91" width="1.02" height="85.21" transform="translate(2322.36 1819.05) rotate(180)"/><rect class="cls-2" x="1940.94" y="1790.12" width="1.02" height="85.21" transform="translate(-1585.13 2206.19) rotate(-90)"/><polygon class="cls-2" points="225.91 223.93 228.96 225.69 232 227.44 232 223.93 232 220.41 228.96 222.17 225.91 223.93"/><polygon class="cls-2" points="225.91 27.14 228.96 28.89 232 30.65 232 27.14 232 23.62 228.96 25.38 225.91 27.14"/></g></g></svg>