<svg preserveAspectRatio="none" id="Layer_1" data-name="Layer 1" xmlns="http://www.w3.org/2000/svg" viewBox="0 0 12.51 12.51"><defs><style>.cls-1{fill:#00b4e9}</style></defs><path class="cls-1" d="M223 107.45a1.35 1.35 0 101.35-1.35 1.35 1.35 0 00-1.35 1.35zm2.44 0a1.1 1.1 0 11-1.1-1.1 1.1 1.1 0 011.06 1.1z" transform="translate(-222.95 -101.41)"/><path class="cls-1" d="M223.54 107.45a.76.76 0 10.76-.76.76.76 0 00-.76.76zm1.38 0a.62.62 0 11-.62-.62.62.62 0 01.62.62zM224.93 105a1.35 1.35 0 100-1.9 1.35 1.35 0 000 1.9zm1.73-1.73a1.1 1.1 0 11-1.55 0 1.1 1.1 0 011.55 0z" transform="translate(-222.95 -101.41)"/><path class="cls-1" d="M225.35 104.58a.76.76 0 100-1.07.76.76 0 000 1.07zm1-1a.62.62 0 11-.88 0 .62.62 0 01.85.03zM228.07 102.76a1.35 1.35 0 101.35-1.35 1.35 1.35 0 00-1.35 1.35zm2.44 0a1.1 1.1 0 11-1.1-1.1 1.1 1.1 0 011.1 1.1z" transform="translate(-222.95 -101.41)"/><path class="cls-1" d="M228.65 102.76a.76.76 0 10.76-.76.76.76 0 00-.76.76zm1.38 0a.62.62 0 11-.62-.62.62.62 0 01.59.62zM231.87 105.29a1.35 1.35 0 100-1.9 1.35 1.35 0 000 1.9zm1.73-1.73a1.1 1.1 0 11-1.55 0 1.1 1.1 0 011.55.01z" transform="translate(-222.95 -101.41)"/><path class="cls-1" d="M232.28 104.88a.76.76 0 100-1.07.76.76 0 000 1.07zm1-1a.62.62 0 11-.87 0 .62.62 0 01.85.02zM232.76 107.87a1.35 1.35 0 101.35-1.35 1.35 1.35 0 00-1.35 1.35zm2.44 0a1.1 1.1 0 11-1.1-1.1 1.1 1.1 0 011.11 1.1z" transform="translate(-222.95 -101.41)"/><path class="cls-1" d="M233.35 107.87a.76.76 0 10.76-.76.76.76 0 00-.76.76zm1.38 0a.62.62 0 11-.62-.62.62.62 0 01.62.62zM231.57 112.23a1.35 1.35 0 100-1.9 1.35 1.35 0 000 1.9zm1.73-1.73a1.1 1.1 0 11-1.55 0 1.1 1.1 0 011.55 0z" transform="translate(-222.95 -101.41)"/><path class="cls-1" d="M232 111.82a.76.76 0 100-1.07.76.76 0 000 1.07zm1-1a.62.62 0 11-.88 0 .62.62 0 01.88.02zM227.65 112.57a1.35 1.35 0 101.35-1.35 1.35 1.35 0 00-1.35 1.35zm2.44 0a1.1 1.1 0 11-1.1-1.1 1.1 1.1 0 011.1 1.1z" transform="translate(-222.95 -101.41)"/><path class="cls-1" d="M228.23 112.57a.76.76 0 10.76-.76.76.76 0 00-.76.76zm1.38 0a.62.62 0 11-.62-.62.62.62 0 01.62.62zM224.63 111.93a1.35 1.35 0 100-1.9 1.35 1.35 0 000 1.9zm1.73-1.73a1.1 1.1 0 11-1.55 0 1.1 1.1 0 011.55.01z" transform="translate(-222.95 -101.41)"/><path class="cls-1" d="M225 111.52a.76.76 0 100-1.07.76.76 0 000 1.07zm1-1a.62.62 0 11-.88 0 .62.62 0 01.88.03z" transform="translate(-222.95 -101.41)"/><circle class="cls-1" cx="6.15" cy="6.17" r="1.1"/></svg>