<svg preserveAspectRatio="none" xmlns="http://www.w3.org/2000/svg" viewBox="0 0 599.99 409.03"><defs><style>.cls-1{isolation:isolate;}.cls-2,.cls-4{fill:aqua;}.cls-2,.cls-3{mix-blend-mode:overlay;}</style></defs><title>shape61</title><g class="cls-1"><g id="Layer_3" data-name="Layer 3"><path class="cls-2" d="M546.67,25.62H600v-1H547L546.39,24H535.58l-1-1h-4.13l-3.7,3.7v2.65l-31,31H492l-1.32-1.32L493.75,56V55.05L513,35.78V19.56L536.4-3.81l-0.71-.71L512,19.15V35.37l-24,24h-1.15l-1.06,1.06H472.71l-0.56-.56h-1.94l-3.16-3.16H447.69l-2.82-2.82h-11l-9,9V72.3L422.12,75v1.16l-0.71.71h-2l-1.85,1.85H405.5l2.67-2.67V71.85l2.64-2.64V65.94l18-18H453L458.15,53h26.51L506,31.74v-13l4.93-4.93h4.63L533.2-3.81l-0.71-.71L515.12,12.86h-4.63L505,18.38v13L484.24,52H458.56l-5.12-5.12H436.72l-3.47-3.47h-7l-4.31,4.31h-4.6L397.77,67.32V77.56l-1.2,1.2H203.44l-1.22-1.21V67.32L182.67,47.77h-4.6l-4.31-4.31h-7l-3.47,3.47H146.55L141.43,52H115.74L95,31.33v-13L89.5,12.86H84.87L67.49-4.52l-0.71.71L84.46,13.86h4.63L94,18.79v13L115.33,53h26.51L147,47.92h24.2l18,18v3.27l2.64,2.64v4.25l2.67,2.67H182.38l-1.85-1.85h-2l-0.7-.7V75l-2.75-2.75V62.8l-9-9h-11l-2.82,2.82H139.1l0,0-0.88-.88h-4.79l-4.06,4.06h-1.57l-0.56.56H114.13l-1.06-1.06h-0.13l-5.68-5.68h-1L88,35.37V19.15L64.29-4.52l-0.71.71L87,19.56V35.78l19.27,19.27V56L109,58.73V59.4l-1,1H104.3l-31-31V26.71L69.57,23H65.45l-1,1H53.59L53,24.62H0v1H53.32l0.87,0.87-0.93.93H0v1H56.74l1.37,1.37h8.82l1.75,1.75h1.19L89,50.69v4.93l11.13,11.13h14l2.21-2.21h38.36l3.88,3.88h4l9.83,9.83-0.51.51h-2.44l-1-1h-1.17l-5.16-5.16H159l-0.3-.3h-5.36L153.06,72h-0.43L152,71.33H151.7l-3.54-3.54h-26l-3.29,3.29H95.56L80.73,56.25V49.51L64.33,33.1H0v1H63.92L79.73,49.92v6.75L95.15,72.08H119.3l3.29-3.29h25.15l3.16,3.16v1.4l-0.76.76h-2.44l-1.18,1.18H142l-3-3h-11l-3.24,3.24H88.15L82.61,81v13.3l-0.34.29v-17L71.88,67.28H30.07v0a0.47,0.47,0,0,0-.47-0.47H19.71a0.47,0.47,0,0,0-.47.47v0H0v0.5H19.24v0.45H0v0.5H19.24V69.1H0v0.5H19.24v0.49H0v0.5H19.25a0.46,0.46,0,0,0,.46.42H29.6a0.46,0.46,0,0,0,.46-0.42H70.5l8.63,8.63V99l1.71,1.71V103l-0.93.93v2.23l8.44,8.44V118l-3.54,3.54v1.9l-9.61,9.61v20.57l-0.87.87v9.93l0.87,0.87v17.8l8.52,8.52v16.69l-8.52,8.52v17.8l-0.87.87v9.93l0.87,0.87v20.57l9.61,9.61v1.9L88.34,282v3.45l-8.44,8.44v2.23L80.83,297v2.26L79.13,301v19.78l-8.63,8.63H30.06A0.46,0.46,0,0,0,29.6,329H19.71a0.46,0.46,0,0,0-.46.42H0v0.5H19.24v0.49H0v0.5H19.24v0.37H0v0.5H19.24v0.45H0v0.5H19.24v0a0.47,0.47,0,0,0,.47.47H29.6a0.47,0.47,0,0,0,.47-0.47v0H71.88l10.39-10.39v-17l0.34,0.29v13.3l5.54,5.54h36.5l3.24,3.24h11l3-3h4.55l1.18,1.18h2.44l1.11,1.11v0.71l-3.5,3.5H122.59l-3.29-3.29H95.15L79.73,343.32v6.75L63.92,365.88H0v1H64.33l16.41-16.41v-6.75L95.56,328.9h23.32l3.29,3.29h26l4.21-4.21h0.7l0.61-.61h8.45l5.16-5.16h1.17l1-1h2.44l0.51,0.51-9.83,9.83h-4l-3.88,3.88H116.37l-2.21-2.21h-14L89,344.36v4.93L69.88,368.45H68.68l-1.75,1.75H58.11l-1.37,1.37H0v1H53.26l0.93,0.93-0.87.87H0v1H53l0.57,0.57H64.41l1,1h4.13l3.7-3.7v-2.65l31-31H108l1.32,1.32L106.24,344v0.93L87,364.2v16.22L63.59,403.8l0.71,0.71L88,380.84V364.62l24-24h1.15l1.06-1.06h13.14l0.56,0.56h1.94l3.16,3.16H152.3l2.82,2.82h11l9-9v-9.51l2.75-2.75v-1.16l0.71-.71h2l1.85-1.85h12.11l-2.67,2.67v4.25l-2.64,2.64V334l-18,18H147l-5.12-5.12H115.33L94,368.24v13l-4.94,4.94H84.46L66.79,403.8l0.71,0.71,17.38-17.38H89.5L95,381.61v-13l20.72-20.72h25.68l5.12,5.13h16.72l3.47,3.47h7l4.31-4.31h4.6l19.55-19.55V322.42l1.2-1.2H396.57l1.2,1.2v10.24l19.55,19.55h4.6l4.31,4.31h7l3.47-3.47h16.72l5.12-5.12h25.68L505,368.66v13l5.52,5.52h4.63l17.38,17.38,0.71-.71-17.67-17.67H510.9L506,381.19v-13l-21.31-21.31H458.15L453,352.06h-24.2l-18-18v-3.27l-2.64-2.64v-4.25l-2.67-2.67h12.11l1.85,1.85h2l0.71,0.71v1.16l2.75,2.75v9.51l9,9h11l2.82-2.82h19.37l3.16-3.16h1.94l0.56-.56h13.14l1.06,1.06h1.15l24,24v16.22l23.67,23.67,0.71-.71L513,380.42V364.2l-19.27-19.27V344l-3.08-3.08L492,339.6h3.71l31,31v2.65l3.7,3.7h4.13l1-1h10.81l0.57-.57h53v-1H546.67l-0.87-.87,0.93-.93H600v-1H543.25l-1.37-1.37h-8.82l-1.75-1.75h-1.19L511,349.29v-4.93l-11.13-11.13h-14l-2.21,2.21H445.25l-3.88-3.88h-4l-9.83-9.83,0.51-.51h2.44l1,1h1.17l5.16,5.16h8.45l0.61,0.61h0.7l4.21,4.21h26l3.29-3.29h23.33l14.83,14.83v6.75l16.41,16.41H600v-1H536.07l-15.82-15.82v-6.75L504.84,327.9H480.68l-3.29,3.29H452.25l-3.5-3.5V327l1.11-1.11h2.44l1.18-1.18H458l3,3h11l3.24-3.24h36.5l5.54-5.54v-13.3l0.34-.29v17l10.39,10.39H600v-0.5H528.31l-10.09-10.09V304.92l0.3-.26v17.21l9.88,9.88H600v-0.5H528.61L519,321.67V304.23l0.14-.12v-2.35l0.18,0.18v19.36l9.58,9.58H600v-0.5H529.12l-9.29-9.29V301.74l-0.68-.68V300l1.21,1.21V321l8.92,8.92H600v-0.5h-70.5l-8.63-8.63V301l-1.71-1.71V297l0.93-.93v-2.23l-8.44-8.44V282l3.54-3.54v-1.9l9.61-9.61V246.33l0.87-.87v-9.93l-0.87-.87v-17.8l-8.52-8.52V191.65l8.52-8.52v-17.8l0.87-.87v-9.93l-0.87-.87V133.09l-9.61-9.61v-1.9L511.64,118v-3.46l8.44-8.44v-2.23l-0.93-.93v-2.26L520.86,99V79.22l8.63-8.63h40.44a0.46,0.46,0,0,0,.46.42h9.89a0.46,0.46,0,0,0,.46-0.42H600v-0.5H580.74V69.6H600V69.1H580.74V68.73H600v-0.5H580.74V67.78H600v-0.5H580.74v0a0.47,0.47,0,0,0-.47-0.47h-9.89a0.47,0.47,0,0,0-.47.47v0H528.1L517.72,77.67v17l-0.34-.29V81l-5.54-5.54h-36.5l-3.24-3.24h-11l-3,3h-4.55l-1.18-1.18h-2.44L448.74,73V72.29l3.5-3.5h25.15l3.29,3.29h24.15l15.41-15.41V49.92L536.07,34.1H600v-1H535.66L519.25,49.51v6.75L504.42,71.08H481.1l-3.29-3.29h-26L447.62,72h-0.7l-0.62.62h-8.45l-5.16,5.16h-1.17l-1,1h-2.44l-0.51-.51,9.83-9.83h4l3.88-3.88h38.36l2.21,2.21h14L511,55.62V50.69l19.16-19.16h1.19l1.75-1.75h8.82l1.37-1.37H600v-1H546.72l-0.93-.93ZM434.23,54.85h10.22l2.82,2.82h14.61L463,58.78h3.07l1.6,1.6H441.77l-0.47-.47h-4.06l-2.33,2.33v1.19L429.34,69h-0.95l-2,2h-0.53V63.21Zm87,100.37-0.55.55v8.7l0.55,0.55v15.76l-4.95,4.95v-4.43a5.43,5.43,0,0,0-4.63-5.37V132.5h6.74l2.84,2.84v19.89Zm-4.95,59,4.95,4.95V235l-0.55.55v8.7l0.55,0.55v19.89l-2.84,2.84h-6.74V224.06a5.43,5.43,0,0,0,4.63-5.37v-4.43ZM78.76,244.77l0.55-.55v-8.7L78.76,235V219.21l4.95-4.95v4.43a5.45,5.45,0,0,0,.09,1v0a5.43,5.43,0,0,0,4.54,4.38v43.43H81.6l-2.84-2.84V244.77Zm8.75-68.64-0.31.11a5.4,5.4,0,0,0-.52.23l-0.35.2q-0.23.14-.44,0.29l-0.3.24a5.49,5.49,0,0,0-.42.4l-0.21.23a5.46,5.46,0,0,0-.4.55l-0.15.25a5.42,5.42,0,0,0-.31.64l-0.09.23a5.38,5.38,0,0,0-.21.75c0,0.05,0,.1,0,0.16a5.44,5.44,0,0,0-.08.87v4.45l-4.95-4.95V165l0.55-.55v-8.7l-0.55-.55V135.33l2.84-2.84h6.74v43.43l-0.18,0A5.4,5.4,0,0,0,87.51,176.12Zm5.85,132.35v-217a7.74,7.74,0,0,1,7.74-7.74H498.9a7.74,7.74,0,0,1,7.74,7.74v217a7.74,7.74,0,0,1-7.74,7.74H101.09A7.74,7.74,0,0,1,93.36,308.47ZM82,131.43l-3.7,3.7v19.8H77.54l-0.41-.41V134.35L82,129.52v1.91Zm-4.83,34.76h0.46l0.67-.67V181l5.45,5.45v1.76l-6.58-6.58V166.19Zm6.58,47.36L78.26,219v15.47l-0.67-.67H77.13V218.38l6.58-6.58v1.76Zm-6.58,31.92,0.41-.41h0.72v19.8l3.7,3.7v1.91l-4.83-4.83V245.47ZM518,268.55l3.7-3.7v-19.8h0.72l0.41,0.41v20.16L518,270.46v-1.91Zm4.83-34.76h-0.46l-0.67.67V219l-5.45-5.45v-1.76l6.58,6.58V233.8Zm-6.58-47.36,5.45-5.45V165.52l0.67,0.67h0.46v15.42l-6.58,6.58v-1.76Zm6.58-31.92-0.41.41h-0.72v-19.8l-3.7-3.7v-1.91l4.83,4.83v20.16ZM408.45,65.23l-5.31,5.31v1.65l-1.32,1.32V69.2l16.25-16.25h4.3L410.1,65.23h-1.65Zm-9.69,2.51,19-19h4.6l4.31-4.31h6.19l2.47,2.47h-6.9l-5,5h-5.72L400.82,68.79V74.5l-2.06,2.06V67.74ZM191.53,65.23h-1.65L177.61,52.95h4.3L198.16,69.2v4.3l-1.32-1.31V70.54ZM164.69,46.92l2.47-2.47h6.19l4.31,4.31h4.6l19,19v8.82l-2.06-2.05V68.79L182.32,51.95h-5.72l-5-5h-6.9Zm-12,10.75,2.82-2.82h10.22l8.37,8.37v7.14h-0.21l-0.32.32h-0.32L171.6,69h-0.95l-5.57-5.57V62.24l-2.33-2.33h-4.06l-0.47.47H132.32l1.6-1.6H137l1.11-1.11h14.61ZM159,67.43l-3.88-3.88H116l-2.21,2.21H100.58L90,55.21V50.28L70.76,31V30.06h1.8l31.32,31.32h3.8l0.53,0.53h5.62l0.53-.53h11.92l-0.09.09h5.07l0.09-.09h26.88L158.87,62h2.52l2.1,2.1h0.89l5.57,5.57v0.74l6,6h0.74l0.79,0.79-0.63.63h-3.41L163,67.43h-4Zm-4,7.15h3.08l1-1h2.64l4.51,4.51-0.51.51h-1.08l-0.13.13h-3.09l-1.54-1.54H159l-1.93-1.93h-2.79ZM88.56,76.5h36.5l3.24-3.24h10.22l3,3h4l0.56,0.56h6.69l0.56-.56h3.37L158,77.57l-0.6.6h-3.45l-0.59.59H101.08A12.74,12.74,0,0,0,88.34,91.5v14.13h-1.2l-2.22-2.22V95.73l-1.32-1.32v-13ZM30.07,67.78H71.68L81.77,77.87V95.06l-0.3.26V78.11l-9.88-9.88H30.07V67.78Zm0,0.95H71.38L81,78.32V95.75l-0.14.12v2.35L80.65,98V78.68L71.07,69.1h-41V68.73ZM79.63,98.8V79L70.7,70.09H30.07V69.6h40.8l9.28,9.29V98.25l0.68,0.68V100Zm0.77,7.13v-1.81l0.43-.43v1.43l7.51,7.51v1.25Zm3.08,19.59v1.79l-6.84,6.84v20.1H76.14l-0.45-.54V133.3Zm-7.78,57.4V165.57H76.2L76.63,166v15.81l7.08,7.08v2Zm8,26.13v2l-7.08,7.08V234l-0.43.43H75.69V217.07Zm-8,37.23,0.45-.54h0.49v20.1l6.84,6.84v1.79l-7.78-7.78V246.28Zm4.71,49.59v-1.81l7.94-7.94v1.25l-7.51,7.51v1.43Zm-50.33,34H70.7L79.63,321V301.19L80.83,300v1.08l-0.68.68V321.1l-9.28,9.29H30.07v-0.49Zm0,1h41l9.58-9.58V301.94l0.18-.18v2.35L81,304.23v17.44l-9.59,9.59H30.07v-0.37Zm51.7-8.78L71.68,332.21H30.07v-0.45H71.59l9.88-9.88V304.66l0.3,0.26v17.19Zm59.78,1.58-3,3H128.3l-3.24-3.24H88.56l-5-5v-13l1.32-1.32v-7.69l2.22-2.22h1.2v14.13a12.74,12.74,0,0,0,12.74,12.74h52.26l0.59,0.59h3.45l0.6,0.6-1.28,1.28H141.55Zm20.17,2.68h-2.64l-1-1h-3.41l-0.72-.72h3.12l1.93-1.93h0.84l1.54-1.54h3.09l0.13,0.13h1.08l0.51,0.51ZM103.88,338.6L72.57,369.92h-1.8V369L90,349.71v-4.93l10.55-10.55h13.16l2.21,2.21h39.19l3.88-3.88h4l10.47-10.47h3.41l0.63,0.63-15.36,15.36H161.4l-0.53.53H114.36l-0.53-.53h-5.62l-0.53.53h-3.8Zm61.87,6.53H155.53l-2.82-2.82H138.1L137,341.2h-3.07l-1.6-1.6h25.89l0.47,0.47h4.06l2.33-2.33v-1.19l5.57-5.57h0.95l2-2h0.53v7.77Zm25.78-10.38,5.31-5.31V327.8l1.32-1.32v4.3L181.91,347h-4.31l12.28-12.28h1.65Zm9.69-2.51-19,19h-4.6l-4.31,4.31h-6.19l-2.47-2.47h6.9l5-5h5.72l16.84-16.84v-5.72l2.06-2.06v8.83Zm207.23,2.51h1.65L422.38,347h-4.3l-16.25-16.25v-4.3l1.32,1.32v1.65Zm26.85,18.31-2.47,2.47h-6.19l-4.31-4.31h-4.6l-19-19v-8.83l2.06,2.06v5.72L417.66,348h5.72l5,5h6.9Zm12-10.75-2.82,2.82H434.23l-8.37-8.37V329h0.53l2,2h0.95l5.57,5.57v1.19l2.33,2.33h4.06l0.47-.47h25.89l-1.6,1.6H463l-1.11,1.11H447.27ZM441,332.56l3.88,3.88H484l2.21-2.21H499.4L510,344.78v4.93L529.22,369v0.94h-1.8L496.1,338.6h-3.8l-0.53-.53h-5.62l-0.53.53H439.12l-0.53-.53h-0.75l-15.36-15.36,0.63-.63h3.41L437,332.56h4Zm4.33-7.15h-3.41l-1,1h-2.64l-4.51-4.51,0.51-.51h1.08l0.13-.13h3.09l1.54,1.54H441l1.93,1.93H446Zm66.14-1.92h-36.5l-3.24,3.24H461.47l-3-3H443.29L442,322.41l0.6-.6h3.45l0.59-.59h52.26a12.75,12.75,0,0,0,12.74-12.74V294.35h1.2l2.22,2.22v7.69l1.32,1.32v13Zm8.16-29.43v1.81l-0.43.43v-1.43l-7.51-7.51v-1.25Zm-3.08-19.59v-1.79l6.84-6.84v-20.1h0.49l0.45,0.54v20.41Zm7.78-57.4v17.34h-0.51l-0.43-.43V218.17l-7.08-7.08v-2Zm-8-26.13v-2l7.08-7.08V166l0.43-.43h0.51v17.34Zm8-37.23-0.45.54h-0.49v-20.1l-6.84-6.84v-1.79l7.78,7.78v20.41Zm-4.71-49.59v1.81l-7.94,7.94v-1.25l7.51-7.51v-1.43Zm50.33-34H529.28L520.36,79V98.8L519.16,100V98.93l0.68-.68V78.88l9.29-9.29h40.8v0.49Zm0-1h-41l-9.58,9.58V98l-0.18.18V95.87L519,95.75V78.32l9.59-9.59h41.31V69.1Zm-51.7,8.78,10.09-10.09h41.61v0.45H528.4l-9.88,9.88V95.32l-0.3-.26V77.87Zm-59.78-1.58,3-3h10.22l3.24,3.24h36.5l5,5v13l-1.32,1.32v7.69l-2.22,2.22h-1.2V91.5a12.74,12.74,0,0,0-12.74-12.74H446.65l-0.59-.59h-3.45l-0.6-.6,1.28-1.28h15.15Zm-20.17-2.68h2.64l1,1h3.41L446,75.29h-3.12L441,77.22h-0.84l-1.54,1.54h-3.09l-0.13-.13h-1.08l-0.51-.51ZM510,50.28v4.93L499.4,65.76H486.24L484,63.54H444.84L441,67.43h-4L426.53,77.9h-3.41l-0.63-.63,15.36-15.36h0.75l0.53-.53h46.51l0.53,0.53h5.62l0.53-.53h3.8l31.32-31.32h1.8V31Z" transform="translate(0 4.52)"/><path class="cls-2" d="M546.67,25.62H600v-1H547L546.39,24H535.58l-1-1h-4.13l-3.7,3.7v2.65l-31,31H492l-1.32-1.32L493.75,56V55.05L513,35.78V19.56L536.4-3.81l-0.71-.71L512,19.15V35.37l-24,24h-1.15l-1.06,1.06H472.71l-0.56-.56h-1.94l-3.16-3.16H447.69l-2.82-2.82h-11l-9,9V72.3L422.12,75v1.16l-0.71.71h-2l-1.85,1.85H405.5l2.67-2.67V71.85l2.64-2.64V65.94l18-18H453L458.15,53h26.51L506,31.74v-13l4.93-4.93h4.63L533.2-3.81l-0.71-.71L515.12,12.86h-4.63L505,18.38v13L484.24,52H458.56l-5.12-5.12H436.72l-3.47-3.47h-7l-4.31,4.31h-4.6L397.77,67.32V77.56l-1.2,1.2H203.44l-1.22-1.21V67.32L182.67,47.77h-4.6l-4.31-4.31h-7l-3.47,3.47H146.55L141.43,52H115.74L95,31.33v-13L89.5,12.86H84.87L67.49-4.52l-0.71.71L84.46,13.86h4.63L94,18.79v13L115.33,53h26.51L147,47.92h24.2l18,18v3.27l2.64,2.64v4.25l2.67,2.67H182.38l-1.85-1.85h-2l-0.7-.7V75l-2.75-2.75V62.8l-9-9h-11l-2.82,2.82H139.1l0,0-0.88-.88h-4.79l-4.06,4.06h-1.57l-0.56.56H114.13l-1.06-1.06h-0.13l-5.68-5.68h-1L88,35.37V19.15L64.29-4.52l-0.71.71L87,19.56V35.78l19.27,19.27V56L109,58.73V59.4l-1,1H104.3l-31-31V26.71L69.57,23H65.45l-1,1H53.59L53,24.62H0v1H53.32l0.87,0.87-0.93.93H0v1H56.74l1.37,1.37h8.82l1.75,1.75h1.19L89,50.69v4.93l11.13,11.13h14l2.21-2.21h38.36l3.88,3.88h4l9.83,9.83-0.51.51h-2.44l-1-1h-1.17l-5.16-5.16H159l-0.3-.3h-5.36L153.06,72h-0.43L152,71.33H151.7l-3.54-3.54h-26l-3.29,3.29H95.56L80.73,56.25V49.51L64.33,33.1H0v1H63.92L79.73,49.92v6.75L95.15,72.08H119.3l3.29-3.29h25.15l3.16,3.16v1.4l-0.76.76h-2.44l-1.18,1.18H142l-3-3h-11l-3.24,3.24H88.15L82.61,81v13.3l-0.34.29v-17L71.88,67.28H30.07v0a0.47,0.47,0,0,0-.47-0.47H19.71a0.47,0.47,0,0,0-.47.47v0H0v0.5H19.24v0.45H0v0.5H19.24V69.1H0v0.5H19.24v0.49H0v0.5H19.25a0.46,0.46,0,0,0,.46.42H29.6a0.46,0.46,0,0,0,.46-0.42H70.5l8.63,8.63V99l1.71,1.71V103l-0.93.93v2.23l8.44,8.44V118l-3.54,3.54v1.9l-9.61,9.61v20.57l-0.87.87v9.93l0.87,0.87v17.8l8.52,8.52v16.69l-8.52,8.52v17.8l-0.87.87v9.93l0.87,0.87v20.57l9.61,9.61v1.9L88.34,282v3.45l-8.44,8.44v2.23L80.83,297v2.26L79.13,301v19.78l-8.63,8.63H30.06A0.46,0.46,0,0,0,29.6,329H19.71a0.46,0.46,0,0,0-.46.42H0v0.5H19.24v0.49H0v0.5H19.24v0.37H0v0.5H19.24v0.45H0v0.5H19.24v0a0.47,0.47,0,0,0,.47.47H29.6a0.47,0.47,0,0,0,.47-0.47v0H71.88l10.39-10.39v-17l0.34,0.29v13.3l5.54,5.54h36.5l3.24,3.24h11l3-3h4.55l1.18,1.18h2.44l1.11,1.11v0.71l-3.5,3.5H122.59l-3.29-3.29H95.15L79.73,343.32v6.75L63.92,365.88H0v1H64.33l16.41-16.41v-6.75L95.56,328.9h23.32l3.29,3.29h26l4.21-4.21h0.7l0.61-.61h8.45l5.16-5.16h1.17l1-1h2.44l0.51,0.51-9.83,9.83h-4l-3.88,3.88H116.37l-2.21-2.21h-14L89,344.36v4.93L69.88,368.45H68.68l-1.75,1.75H58.11l-1.37,1.37H0v1H53.26l0.93,0.93-0.87.87H0v1H53l0.57,0.57H64.41l1,1h4.13l3.7-3.7v-2.65l31-31H108l1.32,1.32L106.24,344v0.93L87,364.2v16.22L63.59,403.8l0.71,0.71L88,380.84V364.62l24-24h1.15l1.06-1.06h13.14l0.56,0.56h1.94l3.16,3.16H152.3l2.82,2.82h11l9-9v-9.51l2.75-2.75v-1.16l0.71-.71h2l1.85-1.85h12.11l-2.67,2.67v4.25l-2.64,2.64V334l-18,18H147l-5.12-5.12H115.33L94,368.24v13l-4.94,4.94H84.46L66.79,403.8l0.71,0.71,17.38-17.38H89.5L95,381.61v-13l20.72-20.72h25.68l5.12,5.13h16.72l3.47,3.47h7l4.31-4.31h4.6l19.55-19.55V322.42l1.2-1.2H396.57l1.2,1.2v10.24l19.55,19.55h4.6l4.31,4.31h7l3.47-3.47h16.72l5.12-5.12h25.68L505,368.66v13l5.52,5.52h4.63l17.38,17.38,0.71-.71-17.67-17.67H510.9L506,381.19v-13l-21.31-21.31H458.15L453,352.06h-24.2l-18-18v-3.27l-2.64-2.64v-4.25l-2.67-2.67h12.11l1.85,1.85h2l0.71,0.71v1.16l2.75,2.75v9.51l9,9h11l2.82-2.82h19.37l3.16-3.16h1.94l0.56-.56h13.14l1.06,1.06h1.15l24,24v16.22l23.67,23.67,0.71-.71L513,380.42V364.2l-19.27-19.27V344l-3.08-3.08L492,339.6h3.71l31,31v2.65l3.7,3.7h4.13l1-1h10.81l0.57-.57h53v-1H546.67l-0.87-.87,0.93-.93H600v-1H543.25l-1.37-1.37h-8.82l-1.75-1.75h-1.19L511,349.29v-4.93l-11.13-11.13h-14l-2.21,2.21H445.25l-3.88-3.88h-4l-9.83-9.83,0.51-.51h2.44l1,1h1.17l5.16,5.16h8.45l0.61,0.61h0.7l4.21,4.21h26l3.29-3.29h23.33l14.83,14.83v6.75l16.41,16.41H600v-1H536.07l-15.82-15.82v-6.75L504.84,327.9H480.68l-3.29,3.29H452.25l-3.5-3.5V327l1.11-1.11h2.44l1.18-1.18H458l3,3h11l3.24-3.24h36.5l5.54-5.54v-13.3l0.34-.29v17l10.39,10.39H600v-0.5H528.31l-10.09-10.09V304.92l0.3-.26v17.21l9.88,9.88H600v-0.5H528.61L519,321.67V304.23l0.14-.12v-2.35l0.18,0.18v19.36l9.58,9.58H600v-0.5H529.12l-9.29-9.29V301.74l-0.68-.68V300l1.21,1.21V321l8.92,8.92H600v-0.5h-70.5l-8.63-8.63V301l-1.71-1.71V297l0.93-.93v-2.23l-8.44-8.44V282l3.54-3.54v-1.9l9.61-9.61V246.33l0.87-.87v-9.93l-0.87-.87v-17.8l-8.52-8.52V191.65l8.52-8.52v-17.8l0.87-.87v-9.93l-0.87-.87V133.09l-9.61-9.61v-1.9L511.64,118v-3.46l8.44-8.44v-2.23l-0.93-.93v-2.26L520.86,99V79.22l8.63-8.63h40.44a0.46,0.46,0,0,0,.46.42h9.89a0.46,0.46,0,0,0,.46-0.42H600v-0.5H580.74V69.6H600V69.1H580.74V68.73H600v-0.5H580.74V67.78H600v-0.5H580.74v0a0.47,0.47,0,0,0-.47-0.47h-9.89a0.47,0.47,0,0,0-.47.47v0H528.1L517.72,77.67v17l-0.34-.29V81l-5.54-5.54h-36.5l-3.24-3.24h-11l-3,3h-4.55l-1.18-1.18h-2.44L448.74,73V72.29l3.5-3.5h25.15l3.29,3.29h24.15l15.41-15.41V49.92L536.07,34.1H600v-1H535.66L519.25,49.51v6.75L504.42,71.08H481.1l-3.29-3.29h-26L447.62,72h-0.7l-0.62.62h-8.45l-5.16,5.16h-1.17l-1,1h-2.44l-0.51-.51,9.83-9.83h4l3.88-3.88h38.36l2.21,2.21h14L511,55.62V50.69l19.16-19.16h1.19l1.75-1.75h8.82l1.37-1.37H600v-1H546.72l-0.93-.93ZM434.23,54.85h10.22l2.82,2.82h14.61L463,58.78h3.07l1.6,1.6H441.77l-0.47-.47h-4.06l-2.33,2.33v1.19L429.34,69h-0.95l-2,2h-0.53V63.21Zm87,100.37-0.55.55v8.7l0.55,0.55v15.76l-4.95,4.95v-4.43a5.43,5.43,0,0,0-4.63-5.37V132.5h6.74l2.84,2.84v19.89Zm-4.95,59,4.95,4.95V235l-0.55.55v8.7l0.55,0.55v19.89l-2.84,2.84h-6.74V224.06a5.43,5.43,0,0,0,4.63-5.37v-4.43ZM78.76,244.77l0.55-.55v-8.7L78.76,235V219.21l4.95-4.95v4.43a5.45,5.45,0,0,0,.09,1v0a5.43,5.43,0,0,0,4.54,4.38v43.43H81.6l-2.84-2.84V244.77Zm8.75-68.64-0.31.11a5.4,5.4,0,0,0-.52.23l-0.35.2q-0.23.14-.44,0.29l-0.3.24a5.49,5.49,0,0,0-.42.4l-0.21.23a5.46,5.46,0,0,0-.4.55l-0.15.25a5.42,5.42,0,0,0-.31.64l-0.09.23a5.38,5.38,0,0,0-.21.75c0,0.05,0,.1,0,0.16a5.44,5.44,0,0,0-.08.87v4.45l-4.95-4.95V165l0.55-.55v-8.7l-0.55-.55V135.33l2.84-2.84h6.74v43.43l-0.18,0A5.4,5.4,0,0,0,87.51,176.12Zm5.85,132.35v-217a7.74,7.74,0,0,1,7.74-7.74H498.9a7.74,7.74,0,0,1,7.74,7.74v217a7.74,7.74,0,0,1-7.74,7.74H101.09A7.74,7.74,0,0,1,93.36,308.47ZM82,131.43l-3.7,3.7v19.8H77.54l-0.41-.41V134.35L82,129.52v1.91Zm-4.83,34.76h0.46l0.67-.67V181l5.45,5.45v1.76l-6.58-6.58V166.19Zm6.58,47.36L78.26,219v15.47l-0.67-.67H77.13V218.38l6.58-6.58v1.76Zm-6.58,31.92,0.41-.41h0.72v19.8l3.7,3.7v1.91l-4.83-4.83V245.47ZM518,268.55l3.7-3.7v-19.8h0.72l0.41,0.41v20.16L518,270.46v-1.91Zm4.83-34.76h-0.46l-0.67.67V219l-5.45-5.45v-1.76l6.58,6.58V233.8Zm-6.58-47.36,5.45-5.45V165.52l0.67,0.67h0.46v15.42l-6.58,6.58v-1.76Zm6.58-31.92-0.41.41h-0.72v-19.8l-3.7-3.7v-1.91l4.83,4.83v20.16ZM408.45,65.23l-5.31,5.31v1.65l-1.32,1.32V69.2l16.25-16.25h4.3L410.1,65.23h-1.65Zm-9.69,2.51,19-19h4.6l4.31-4.31h6.19l2.47,2.47h-6.9l-5,5h-5.72L400.82,68.79V74.5l-2.06,2.06V67.74ZM191.53,65.23h-1.65L177.61,52.95h4.3L198.16,69.2v4.3l-1.32-1.31V70.54ZM164.69,46.92l2.47-2.47h6.19l4.31,4.31h4.6l19,19v8.82l-2.06-2.05V68.79L182.32,51.95h-5.72l-5-5h-6.9Zm-12,10.75,2.82-2.82h10.22l8.37,8.37v7.14h-0.21l-0.32.32h-0.32L171.6,69h-0.95l-5.57-5.57V62.24l-2.33-2.33h-4.06l-0.47.47H132.32l1.6-1.6H137l1.11-1.11h14.61ZM159,67.43l-3.88-3.88H116l-2.21,2.21H100.58L90,55.21V50.28L70.76,31V30.06h1.8l31.32,31.32h3.8l0.53,0.53h5.62l0.53-.53h11.92l-0.09.09h5.07l0.09-.09h26.88L158.87,62h2.52l2.1,2.1h0.89l5.57,5.57v0.74l6,6h0.74l0.79,0.79-0.63.63h-3.41L163,67.43h-4Zm-4,7.15h3.08l1-1h2.64l4.51,4.51-0.51.51h-1.08l-0.13.13h-3.09l-1.54-1.54H159l-1.93-1.93h-2.79ZM88.56,76.5h36.5l3.24-3.24h10.22l3,3h4l0.56,0.56h6.69l0.56-.56h3.37L158,77.57l-0.6.6h-3.45l-0.59.59H101.08A12.74,12.74,0,0,0,88.34,91.5v14.13h-1.2l-2.22-2.22V95.73l-1.32-1.32v-13ZM30.07,67.78H71.68L81.77,77.87V95.06l-0.3.26V78.11l-9.88-9.88H30.07V67.78Zm0,0.95H71.38L81,78.32V95.75l-0.14.12v2.35L80.65,98V78.68L71.07,69.1h-41V68.73ZM79.63,98.8V79L70.7,70.09H30.07V69.6h40.8l9.28,9.29V98.25l0.68,0.68V100Zm0.77,7.13v-1.81l0.43-.43v1.43l7.51,7.51v1.25Zm3.08,19.59v1.79l-6.84,6.84v20.1H76.14l-0.45-.54V133.3Zm-7.78,57.4V165.57H76.2L76.63,166v15.81l7.08,7.08v2Zm8,26.13v2l-7.08,7.08V234l-0.43.43H75.69V217.07Zm-8,37.23,0.45-.54h0.49v20.1l6.84,6.84v1.79l-7.78-7.78V246.28Zm4.71,49.59v-1.81l7.94-7.94v1.25l-7.51,7.51v1.43Zm-50.33,34H70.7L79.63,321V301.19L80.83,300v1.08l-0.68.68V321.1l-9.28,9.29H30.07v-0.49Zm0,1h41l9.58-9.58V301.94l0.18-.18v2.35L81,304.23v17.44l-9.59,9.59H30.07v-0.37Zm51.7-8.78L71.68,332.21H30.07v-0.45H71.59l9.88-9.88V304.66l0.3,0.26v17.19Zm59.78,1.58-3,3H128.3l-3.24-3.24H88.56l-5-5v-13l1.32-1.32v-7.69l2.22-2.22h1.2v14.13a12.74,12.74,0,0,0,12.74,12.74h52.26l0.59,0.59h3.45l0.6,0.6-1.28,1.28H141.55Zm20.17,2.68h-2.64l-1-1h-3.41l-0.72-.72h3.12l1.93-1.93h0.84l1.54-1.54h3.09l0.13,0.13h1.08l0.51,0.51ZM103.88,338.6L72.57,369.92h-1.8V369L90,349.71v-4.93l10.55-10.55h13.16l2.21,2.21h39.19l3.88-3.88h4l10.47-10.47h3.41l0.63,0.63-15.36,15.36H161.4l-0.53.53H114.36l-0.53-.53h-5.62l-0.53.53h-3.8Zm61.87,6.53H155.53l-2.82-2.82H138.1L137,341.2h-3.07l-1.6-1.6h25.89l0.47,0.47h4.06l2.33-2.33v-1.19l5.57-5.57h0.95l2-2h0.53v7.77Zm25.78-10.38,5.31-5.31V327.8l1.32-1.32v4.3L181.91,347h-4.31l12.28-12.28h1.65Zm9.69-2.51-19,19h-4.6l-4.31,4.31h-6.19l-2.47-2.47h6.9l5-5h5.72l16.84-16.84v-5.72l2.06-2.06v8.83Zm207.23,2.51h1.65L422.38,347h-4.3l-16.25-16.25v-4.3l1.32,1.32v1.65Zm26.85,18.31-2.47,2.47h-6.19l-4.31-4.31h-4.6l-19-19v-8.83l2.06,2.06v5.72L417.66,348h5.72l5,5h6.9Zm12-10.75-2.82,2.82H434.23l-8.37-8.37V329h0.53l2,2h0.95l5.57,5.57v1.19l2.33,2.33h4.06l0.47-.47h25.89l-1.6,1.6H463l-1.11,1.11H447.27ZM441,332.56l3.88,3.88H484l2.21-2.21H499.4L510,344.78v4.93L529.22,369v0.94h-1.8L496.1,338.6h-3.8l-0.53-.53h-5.62l-0.53.53H439.12l-0.53-.53h-0.75l-15.36-15.36,0.63-.63h3.41L437,332.56h4Zm4.33-7.15h-3.41l-1,1h-2.64l-4.51-4.51,0.51-.51h1.08l0.13-.13h3.09l1.54,1.54H441l1.93,1.93H446Zm66.14-1.92h-36.5l-3.24,3.24H461.47l-3-3H443.29L442,322.41l0.6-.6h3.45l0.59-.59h52.26a12.75,12.75,0,0,0,12.74-12.74V294.35h1.2l2.22,2.22v7.69l1.32,1.32v13Zm8.16-29.43v1.81l-0.43.43v-1.43l-7.51-7.51v-1.25Zm-3.08-19.59v-1.79l6.84-6.84v-20.1h0.49l0.45,0.54v20.41Zm7.78-57.4v17.34h-0.51l-0.43-.43V218.17l-7.08-7.08v-2Zm-8-26.13v-2l7.08-7.08V166l0.43-.43h0.51v17.34Zm8-37.23-0.45.54h-0.49v-20.1l-6.84-6.84v-1.79l7.78,7.78v20.41Zm-4.71-49.59v1.81l-7.94,7.94v-1.25l7.51-7.51v-1.43Zm50.33-34H529.28L520.36,79V98.8L519.16,100V98.93l0.68-.68V78.88l9.29-9.29h40.8v0.49Zm0-1h-41l-9.58,9.58V98l-0.18.18V95.87L519,95.75V78.32l9.59-9.59h41.31V69.1Zm-51.7,8.78,10.09-10.09h41.61v0.45H528.4l-9.88,9.88V95.32l-0.3-.26V77.87Zm-59.78-1.58,3-3h10.22l3.24,3.24h36.5l5,5v13l-1.32,1.32v7.69l-2.22,2.22h-1.2V91.5a12.74,12.74,0,0,0-12.74-12.74H446.65l-0.59-.59h-3.45l-0.6-.6,1.28-1.28h15.15Zm-20.17-2.68h2.64l1,1h3.41L446,75.29h-3.12L441,77.22h-0.84l-1.54,1.54h-3.09l-0.13-.13h-1.08l-0.51-.51ZM510,50.28v4.93L499.4,65.76H486.24L484,63.54H444.84L441,67.43h-4L426.53,77.9h-3.41l-0.63-.63,15.36-15.36h0.75l0.53-.53h46.51l0.53,0.53h5.62l0.53-.53h3.8l31.32-31.32h1.8V31Z" transform="translate(0 4.52)"/></g><g id="Layer_1" data-name="Layer 1"><g class="cls-3"><path class="cls-4" d="M504.64,308.49V91.5a5.74,5.74,0,0,0-5.74-5.74H101.08a5.74,5.74,0,0,0-5.74,5.74v217a5.74,5.74,0,0,0,5.74,5.74H498.91A5.74,5.74,0,0,0,504.64,308.49Zm-408.29,0v-217a4.74,4.74,0,0,1,4.74-4.74h397.8a4.74,4.74,0,0,1,4.74,4.74v217a4.74,4.74,0,0,1-4.74,4.74H101.09A4.74,4.74,0,0,1,96.36,308.47Z" transform="translate(0 4.52)"/></g><g class="cls-3"><path class="cls-4" d="M504.64,308.49V91.5a5.74,5.74,0,0,0-5.74-5.74H101.08a5.74,5.74,0,0,0-5.74,5.74v217a5.74,5.74,0,0,0,5.74,5.74H498.91A5.74,5.74,0,0,0,504.64,308.49Zm-408.29,0v-217a4.74,4.74,0,0,1,4.74-4.74h397.8a4.74,4.74,0,0,1,4.74,4.74v217a4.74,4.74,0,0,1-4.74,4.74H101.09A4.74,4.74,0,0,1,96.36,308.47Z" transform="translate(0 4.52)"/></g></g></g></svg>