<svg preserveAspectRatio="none" data-name="央铋 1" xmlns="http://www.w3.org/2000/svg" viewBox="0 0 54.75 54.75"><path d="M27.37 54.74h-.36v-3h.94l.07 3h-.7zm-1.42 0l-1.06-.07.27-3 .95.07zm3.17 0l-.19-3 .94-.08.3 3zm-5.27-.17l-1.05-.16.5-3 .93.14zm7.38 0l-.42-3 .93-.15.53 3zm-9.46-.31l-1-.24.73-2.91.92.21zm11.54-.07l-.65-2.93.91-.22.76 2.9zm-13.6-.44l-1-.32 1-2.84.82.15zm15.65-.1l-.83-2.91.89-.29 1 2.83zm-17.65-.57l-1-.4 1.17-2.76.87.35zm19.65-.12l-1.09-2.79.86-.43 1.2 2.75zm-21.61-.71l-1-.47 1.38-2.66.85.42zm23.54-.14l-1.31-2.7.84-.43 1.41 2.65zm-25.42-.84l-.91-.54 1.57-2.63.81.48zm27.28-.16l-1.51-2.59.8-.49 1.61 2.53zm-29.08-1l-.86-.61 1.77-2.42.77.54zm30.87-.17l-1.71-2.5.77-.55 1.8 2.4zm-32.57-1.08l-.84-.71 2-2.28.73.6zm34.26-.19l-1.89-2.33.72-.61 2 2.25zM8.76 47.48L8 46.74l2.12-2.12.68.66zm37.45-.21l-2.06-2.18.67-.66 2.15 2.09zM7.26 45.98q-.36-.39-.7-.79l2.28-2 .63.71zm40.43-.24l-2.23-2 .62-.71 2.3 1.92q-.34.38-.69.79zm-41.8-1.38l-.64-.84 2.42-1.78.57.75zm43.16-.24l-2.37-1.83.56-.76 2.44 1.74q-.31.42-.64.83zm-44.4-1.47q-.29-.44-.57-.89l2.55-1.58q.25.4.51.79zm45.63-.26l-2.51-1.65q.26-.39.5-.79l2.57 1.54q-.31.45-.57.89zM3.53 40.84q-.26-.46-.5-.93l2.67-1.37q.21.42.45.82zm47.83-.28l-2.63-1.45q.23-.41.44-.83l2.68 1.34q-.23.48-.48.95zM2.53 38.97q-.22-.48-.43-1l2.76-1.17c.12.29.25.58.38.86zm49.75-.29l-2.73-1.24q.19-.43.37-.86l2.82 1.16q-.21.45-.42.94zM1.71 37.03q-.19-.49-.35-1l2.85-.95q.15.45.31.89zm51.4-.29l-2.82-1c.11-.29.21-.59.3-.89l2.87.89q-.16.47-.35 1zm-52-1.7q-.15-.51-.28-1l2.91-.72c.08.31.16.61.24.91zm52.65-.3l-2.89-.8q.12-.45.23-.91l2.92.68q-.12.47-.26 1.03zM.53 32.96c-.07-.34-.14-.69-.19-1l3-.49q.08.47.17.92zm53.68-.33l-2.95-.57c.06-.31.11-.62.16-.93l3 .46q-.07.52-.18 1.04zm-54-1.76q-.07-.52-.11-1.05l3-.26q0 .47.1.94zm54.32-.33l-3-.34c0-.31.07-.63.09-.94l3 .23c.02.35-.01.7-.09 1.05zm-54.5-1.8v-1.06h3v.94zm54.7-.34l-3-.11v-.94-.6l3-.07v.67q.02.56 0 1.08zM3.01 26.74l-3-.08V25.6l3 .19c.02.32.01.63 0 .95zm48.69-.9q0-.47-.08-.94l3-.3c0 .35.06.7.09 1.05zm-48.57-1l-3-.31q.05-.53.13-1.05l3 .42c-.06.33-.1.64-.13.95zm48.4-.87q-.07-.47-.15-.93l3-.53q.09.52.17 1zm-48.12-1l-3-.54c.06-.35.13-.69.21-1l2.91.63q-.05.46-.14.93zm47.78-.88q-.1-.46-.22-.91l2.9-.76q.13.51.25 1zm-47.38-1l-2.9-.76q.14-.51.29-1l2.87.88q-.15.53-.27.94zm46.9-.86q-.14-.45-.29-.9l2.84-1q.17.5.33 1zm-46.35-.94l-2.83-1q.17-.5.37-1l2.79 1.1q-.16.51-.34.96zm45.74-.84q-.17-.44-.36-.87l2.75-1.2q.21.48.4 1zm-45-.91l-2.75-1.21q.21-.49.45-1l2.7 1.32c-.2.37-.33.66-.46.95zm44.24-.8q-.2-.42-.42-.84l2.61-1.36q.25.47.48.94zm-43.47-.89l-2.65-1.41q.25-.47.52-.93l2.59 1.52q-.24.45-.46.87zm42.59-.76c-.16-.27-.32-.54-.49-.8l2.56-1.55q.28.45.55.9zm-41.64-.86l-2.53-1.62c.19-.3.39-.59.59-.88l2.47 1.71q-.28.43-.53.83zm40.63-.72c-.18-.26-.36-.52-.55-.77l2.4-1.8.61.85zm-39.56-.77l-2.36-1.82q.32-.42.65-.83l2.33 1.89zm38.42-.69q-.29-.36-.61-.72l2.26-2q.35.4.68.81zm-37.23-.77l-2.25-2 .71-.78 2.18 2.07zm36-.64l-.66-.67 2.1-2.15.74.75zm-34.69-.72l-2.1-2.18.77-.72 2 2.23zm33.35-.59l-.71-.62 1.93-2.3.8.69zm-31.95-.67L9.87 6.35l.82-.66 1.84 2.36zm30.5-.54l-.76-.59 1.74-2.44.85.65zm-29-.6l-1.76-2.48.87-.59 1.65 2.51zm27.48-.49l-.8-.5 1.56-2.6.9.56zm-25.9-.54l-1.54-2.57.91-.52 1.45 2.63zm24.29-.44l-.83-.44 1.35-2.68.94.49zm-22.63-.49l-1.34-2.68 1-.45 1.23 2.73zm21-.38l-.87-.37 1.13-2.78 1 .42zm-19.32-.44l-1.13-2.78 1-.38 1 2.82zm17.5-.32l-.89-.3.91-2.86 1 .34zM19.98 4.1l-.91-2.86 1-.3.8 2.89zm13.93-.26L33 3.61l.69-2.87 1 .26zM21.8 3.6L21.11.74l1-.22.57 2.95zm10.28-.19l-.93-.16.46-3 1 .18zm-8.44-.17l-.46-3 1-.14.34 3zm6.58-.12l-.94-.09.23-3 1.05.1zm-4.69-.05l-.22-3 1.05-.06.11 3zm2.83-.05h-.94v-3h1.05z" fill="#0ff"/></svg>