<svg preserveAspectRatio="none" id="Layer_1" data-name="Layer 1" xmlns="http://www.w3.org/2000/svg" viewBox="0 0 33.94 31.37"><defs><style>.cls-1{fill:#ba5bb2;}.cls-2{fill:#ff7df5;}</style></defs><title>shape63</title><path class="cls-1" d="M254.75,279.32a14.4,14.4,0,1,1,14.4-14.4A14.41,14.41,0,0,1,254.75,279.32Zm0-28.29a13.9,13.9,0,1,0,13.9,13.9A13.91,13.91,0,0,0,254.75,251Z" transform="translate(-237.79 -250.53)"/><path class="cls-2" d="M254.75,276.24a11.33,11.33,0,0,1-8.46-3.8l1.49-1.33a9.32,9.32,0,0,0,16.06-8.22l2-.43A11.33,11.33,0,0,1,254.75,276.24Z" transform="translate(-237.79 -250.53)"/><path class="cls-2" d="M260.33,257.46a9.34,9.34,0,0,0-9-1.22l-0.73-1.86a11.34,11.34,0,0,1,10.91,1.48Z" transform="translate(-237.79 -250.53)"/><path class="cls-2" d="M254.75,281.89a16.94,16.94,0,0,1-13-6.08l0.57-.48a16.19,16.19,0,0,0,12.44,5.81v0.75Z" transform="translate(-237.79 -250.53)"/><path class="cls-2" d="M269.94,272.51l-0.67-.34a16.05,16.05,0,0,0,1.71-7.25h0.75A16.78,16.78,0,0,1,269.94,272.51Z" transform="translate(-237.79 -250.53)"/><path class="cls-2" d="M238.54,264.92h-0.75a16.89,16.89,0,0,1,6.42-13.29l0.47,0.59A16.14,16.14,0,0,0,238.54,264.92Z" transform="translate(-237.79 -250.53)"/></svg>