<svg preserveAspectRatio="none" id="Layer_1" data-name="Layer 1" xmlns="http://www.w3.org/2000/svg" viewBox="0 0 11.43 10.18"><defs><style>.cls-1{fill:#0bcddd}</style></defs><path class="cls-1" d="M442.47 241.78a.18.18 0 01.13-.07l5.54-.23a.19.19 0 01.16.09l3 4.68a.18.18 0 010 .18l-2.57 4.91a.19.19 0 01-.15.1l-5.54.23a.19.19 0 01-.16-.09l-3-4.68a.18.18 0 010-.18l2.57-4.91zm5.58.07l-5.33.21-2.47 4.73 2.85 4.51 5.33-.22 2.48-4.72zm-8 4.95z" transform="translate(-439.86 -241.49)"/><path class="cls-1" d="M444 244.11l2.91-.12 1.56 2.46-1.34 2.55-2.91.12-1.56-2.47zm2.72.25l-2.5.1-1.16 2.22 1.33 2.11 2.5-.1 1.17-2.22z" transform="translate(-439.86 -241.49)"/><path class="cls-1" d="M4.48 5.14l.66 1.04 1.24-.05.57-1.09-.66-1.05-1.23.06-.58 1.09z"/></svg>