<svg preserveAspectRatio="none" id="Layer_1" data-name="Layer 1" xmlns="http://www.w3.org/2000/svg" viewBox="0 0 109.59 109.59"><defs><style>.cls-1{fill:#02a6ff}</style></defs><path id="_复合路径_" data-name="&lt;复合路径&gt;" class="cls-1" d="M2642.56 1904.75v-2.18l-6.81-1.24q-.11-2.41-.46-4.75l6.43-2.54-.42-2.14-6.91.11c-.35-1.42-.78-2.82-1.25-4.19l5.84-3.7-.82-2-6.77 1.4q-1-2.16-2.2-4.2l5-4.77-1.19-1.82-6.38 2.7a48.29 48.29 0 00-3.28-4.05l3.94-5.69-1.54-1.54-5.69 3.94q-1.75-1.59-3.66-3l2.76-6.34-1.81-1.21-4.81 5a47.91 47.91 0 00-4.7-2.48l1.39-6.78-2-.81-3.69 5.85a47.69 47.69 0 00-5.41-1.53l-.08-6.92-2.15-.37-2.36 6.51c-1.13-.13-2.27-.24-3.42-.3l-1.24-6.81h-2.18l-1.24 6.81c-1.44.07-2.87.21-4.27.4l-2.48-6.46-2.14.4v6.92a47.63 47.63 0 00-4.82 1.42l-3.72-5.83-2 .82 1.43 6.77q-2 .92-3.82 2l-4.74-5-1.83 1.18 2.66 6.39a48.26 48.26 0 00-4.26 3.43l-5.69-3.94-1.54 1.54 3.94 5.69q-1.62 1.78-3 3.72l-6.35-2.75-1.21 1.81 5 4.8q-1.2 2-2.2 4.11l-6.75-1.47-.84 2 5.8 3.75c-.51 1.42-1 2.87-1.34 4.35l-6.9-.16-.44 2.13 6.41 2.58a48.26 48.26 0 00-.51 5.06l-6.81 1.24v2.18l6.81 1.24q.11 2.41.46 4.75l-6.43 2.54.42 2.14 6.91-.11c.35 1.42.78 2.82 1.25 4.19l-5.84 3.7.82 2 6.77-1.4q1 2.16 2.2 4.2l-5 4.77 1.19 1.82 6.38-2.7a48.27 48.27 0 003.28 4.05l-3.94 5.69 1.54 1.54 5.69-3.94q1.75 1.59 3.66 3l-2.76 6.34 1.81 1.21 4.81-5a47.92 47.92 0 004.7 2.48l-1.39 6.78 2 .81 3.69-5.85a47.64 47.64 0 005.41 1.53l.08 6.92 2.15.37 2.36-6.51c1.13.13 2.27.24 3.42.3l1.24 6.81h2.18l1.24-6.81c1.44-.07 2.87-.21 4.27-.4l2.48 6.46 2.14-.4v-6.92a47.65 47.65 0 004.82-1.42l3.72 5.83 2-.82-1.43-6.77q2-.92 3.82-2l4.74 5 1.83-1.18-2.66-6.39a48.28 48.28 0 004.26-3.43l5.69 3.94 1.54-1.54-3.94-5.69q1.62-1.78 3-3.72l6.35 2.75 1.21-1.81-5-4.8q1.2-2 2.2-4.11l6.75 1.47.84-2-5.77-3.7c.51-1.42 1-2.87 1.34-4.35l6.9.16.44-2.13-6.41-2.58a48.26 48.26 0 00.51-5.07zm-15.93-4.4h-13.18a26 26 0 00-22.37-22.37v-13.18a39 39 0 0135.55 35.55zm-19 3.31a19.86 19.86 0 11-.28-3.31 20 20 0 01.29 3.31zm-23.18-38.86v13.2a26 26 0 00-22.37 22.37h-13.18a39 39 0 0135.56-35.57zm-35.54 42.2h13.18a26 26 0 0022.37 22.37v13.18a39 39 0 01-35.55-35.55zm42.18 35.55v-13.18a26 26 0 0022.37-22.37h13.18a39 39 0 01-35.56 35.53z" transform="translate(-2532.98 -1848.87)"/><path id="_复合路径_2" data-name="&lt;复合路径&gt;" class="cls-1" d="M2642.56 1904.75v-2.18l-6.81-1.24q-.11-2.41-.46-4.75l6.43-2.54-.42-2.14-6.91.11c-.35-1.42-.78-2.82-1.25-4.19l5.84-3.7-.82-2-6.77 1.4q-1-2.16-2.2-4.2l5-4.77-1.19-1.82-6.38 2.7a48.29 48.29 0 00-3.28-4.05l3.94-5.69-1.54-1.54-5.69 3.94q-1.75-1.59-3.66-3l2.76-6.34-1.81-1.21-4.81 5a47.91 47.91 0 00-4.7-2.48l1.39-6.78-2-.81-3.69 5.85a47.69 47.69 0 00-5.41-1.53l-.08-6.92-2.15-.37-2.36 6.51c-1.13-.13-2.27-.24-3.42-.3l-1.24-6.81h-2.18l-1.24 6.81c-1.44.07-2.87.21-4.27.4l-2.48-6.46-2.14.4v6.92a47.63 47.63 0 00-4.82 1.42l-3.72-5.83-2 .82 1.43 6.77q-2 .92-3.82 2l-4.74-5-1.83 1.18 2.66 6.39a48.26 48.26 0 00-4.26 3.43l-5.69-3.94-1.54 1.54 3.94 5.69q-1.62 1.78-3 3.72l-6.35-2.75-1.21 1.81 5 4.8q-1.2 2-2.2 4.11l-6.75-1.47-.84 2 5.8 3.75c-.51 1.42-1 2.87-1.34 4.35l-6.9-.16-.44 2.13 6.41 2.58a48.26 48.26 0 00-.51 5.06l-6.81 1.24v2.18l6.81 1.24q.11 2.41.46 4.75l-6.43 2.54.42 2.14 6.91-.11c.35 1.42.78 2.82 1.25 4.19l-5.84 3.7.82 2 6.77-1.4q1 2.16 2.2 4.2l-5 4.77 1.19 1.82 6.38-2.7a48.27 48.27 0 003.28 4.05l-3.94 5.69 1.54 1.54 5.69-3.94q1.75 1.59 3.66 3l-2.76 6.34 1.81 1.21 4.81-5a47.92 47.92 0 004.7 2.48l-1.39 6.78 2 .81 3.69-5.85a47.64 47.64 0 005.41 1.53l.08 6.92 2.15.37 2.36-6.51c1.13.13 2.27.24 3.42.3l1.24 6.81h2.18l1.24-6.81c1.44-.07 2.87-.21 4.27-.4l2.48 6.46 2.14-.4v-6.92a47.65 47.65 0 004.82-1.42l3.72 5.83 2-.82-1.43-6.77q2-.92 3.82-2l4.74 5 1.83-1.18-2.66-6.39a48.28 48.28 0 004.26-3.43l5.69 3.94 1.54-1.54-3.94-5.69q1.62-1.78 3-3.72l6.35 2.75 1.21-1.81-5-4.8q1.2-2 2.2-4.11l6.75 1.47.84-2-5.77-3.7c.51-1.42 1-2.87 1.34-4.35l6.9.16.44-2.13-6.41-2.58a48.26 48.26 0 00.51-5.07zm-15.93-4.4h-13.18a26 26 0 00-22.37-22.37v-13.18a39 39 0 0135.55 35.55zm-19 3.31a19.86 19.86 0 11-.28-3.31 20 20 0 01.29 3.31zm-23.18-38.86v13.2a26 26 0 00-22.37 22.37h-13.18a39 39 0 0135.56-35.57zm-35.54 42.2h13.18a26 26 0 0022.37 22.37v13.18a39 39 0 01-35.55-35.55zm42.18 35.55v-13.18a26 26 0 0022.37-22.37h13.18a39 39 0 01-35.56 35.53z" transform="translate(-2532.98 -1848.87)"/></svg>