<svg preserveAspectRatio="none" id="Layer_1" data-name="Layer 1" xmlns="http://www.w3.org/2000/svg" viewBox="0 0 33.94 31.37"><defs><style>.cls-2{fill:#ff7df5}</style></defs><path d="M254.75 279.32a14.4 14.4 0 1114.4-14.4 14.41 14.41 0 01-14.4 14.4zm0-28.29a13.9 13.9 0 1013.9 13.9 13.91 13.91 0 00-13.9-13.93z" transform="translate(-237.79 -250.53)" fill="#ba5bb2"/><path class="cls-2" d="M254.75 276.24a11.33 11.33 0 01-8.46-3.8l1.49-1.33a9.32 9.32 0 0016.06-8.22l2-.43a11.33 11.33 0 01-11.09 13.78zM260.33 257.46a9.34 9.34 0 00-9-1.22l-.73-1.86a11.34 11.34 0 0110.91 1.48zM254.75 281.89a16.94 16.94 0 01-13-6.08l.57-.48a16.19 16.19 0 0012.44 5.81v.75zM269.94 272.51l-.67-.34a16.05 16.05 0 001.71-7.25h.75a16.78 16.78 0 01-1.79 7.59zM238.54 264.92h-.75a16.89 16.89 0 016.42-13.29l.47.59a16.14 16.14 0 00-6.14 12.7z" transform="translate(-237.79 -250.53)"/></svg>