<svg preserveAspectRatio="none" id="Layer_1" data-name="Layer 1" xmlns="http://www.w3.org/2000/svg" viewBox="0 0 442.5 28.43"><defs><style>.cls-1{fill:aqua;}</style></defs><title>line13</title><polygon id="_路径_" data-name="&lt;路径&gt;" class="cls-1" points="403.62 27.93 405 26.55 418.79 26.55 420.38 27.93 403.62 27.93"/><rect id="_路径_2" data-name="&lt;路径&gt;" class="cls-1" y="7.5" width="442.5" height="1"/><polygon id="_路径_3" data-name="&lt;路径&gt;" class="cls-1" points="7.83 8.34 13.66 14.18 142.77 14.18 149.79 8 7.83 8.34"/><polygon id="_路径_4" data-name="&lt;路径&gt;" class="cls-1" points="182.54 8 186.84 3.7 248.29 3.7 252.16 8 182.54 8"/><polygon id="_路径_5" data-name="&lt;路径&gt;" class="cls-1" points="296.29 8 298.43 10.14 373.16 10.14 375.79 8 296.29 8"/><rect id="_矩形_" data-name="&lt;矩形&gt;" class="cls-1" x="383.05" y="6.5" width="6.92" height="2"/><rect id="_矩形_2" data-name="&lt;矩形&gt;" class="cls-1" x="392.97" y="6.5" width="6.92" height="2"/><rect id="_矩形_3" data-name="&lt;矩形&gt;" class="cls-1" x="402.89" y="6.5" width="6.92" height="2"/><rect id="_矩形_4" data-name="&lt;矩形&gt;" class="cls-1" x="412.8" y="6.5" width="6.92" height="2"/><rect id="_矩形_5" data-name="&lt;矩形&gt;" class="cls-1" x="422.72" y="6.5" width="6.92" height="2"/><rect id="_矩形_6" data-name="&lt;矩形&gt;" class="cls-1" x="432.64" y="6.5" width="6.92" height="2"/><polygon id="_路径_6" data-name="&lt;路径&gt;" class="cls-1" points="143.68 16.5 107.66 16.5 107.66 15.5 143.27 15.5 149.44 9.32 158.04 9.32 158.04 10.32 149.86 10.32 143.68 16.5"/><polygon id="_路径_7" data-name="&lt;路径&gt;" class="cls-1" points="182.26 5.48 181.56 4.77 185.95 0.37 206.16 0.37 206.16 1.37 186.37 1.37 182.26 5.48"/><polygon id="_路径_8" data-name="&lt;路径&gt;" class="cls-1" points="374.83 12.83 298.69 12.83 298.69 11.83 374.41 11.83 376.53 9.72 377.24 10.42 374.83 12.83"/><rect id="_路径_9" data-name="&lt;路径&gt;" class="cls-1" x="13.66" y="14.18" width="44.79" height="3.66"/><polygon id="_路径_10" data-name="&lt;路径&gt;" class="cls-1" points="92.79 8.14 96.71 4.21 129.95 4.21 133.76 8.02 92.79 8.14"/><polygon id="_路径_11" data-name="&lt;路径&gt;" class="cls-1" points="204.7 8.34 206.3 9.93 233.12 9.93 235.25 7.8 204.7 8.34"/><polygon id="_路径_12" data-name="&lt;路径&gt;" class="cls-1" points="307.41 8 311.16 4.25 348.66 4.25 352.63 8.22 307.41 8"/><polygon id="_路径_13" data-name="&lt;路径&gt;" class="cls-1" points="402.16 8 404.51 10.35 439.55 10.35 441.95 7.95 402.16 8"/><polygon id="_路径_14" data-name="&lt;路径&gt;" class="cls-1" points="236.2 4.08 238.7 1.67 259.29 1.67 261.41 3.79 236.2 4.08"/><polygon id="_路径_15" data-name="&lt;路径&gt;" class="cls-1" points="278.12 6.9 265.56 6.9 259.66 1 252.62 1 252.62 0 260.08 0 265.98 5.9 278.12 5.9 278.12 6.9"/><polygon id="_路径_16" data-name="&lt;路径&gt;" class="cls-1" points="306.47 7.19 305.77 6.48 310.66 1.58 331.2 1.58 331.2 2.58 311.08 2.58 306.47 7.19"/><polygon id="_路径_17" data-name="&lt;路径&gt;" class="cls-1" points="426.18 28.43 386.12 28.43 378.83 21.14 288.44 21.14 275.87 8.58 276.58 7.87 288.85 20.14 379.24 20.14 386.53 27.43 426.18 27.43 426.18 28.43"/><path id="_复合路径_" data-name="&lt;复合路径&gt;" class="cls-1" d="M810.34,626.11H718.53l-4.87-4.87h91.81Zm-91.39-1h89L805,622.24h-89Z" transform="translate(-426.22 -601.09)"/><polygon id="_路径_18" data-name="&lt;路径&gt;" class="cls-1" points="220.38 17.44 151.78 17.44 151.78 16.44 219.97 16.44 228.27 8.15 228.97 8.85 220.38 17.44"/></svg>