<svg preserveAspectRatio="none" id="Layer_1" data-name="Layer 1" xmlns="http://www.w3.org/2000/svg" viewBox="0 0 715.94 46.18"><defs><style>.cls-1{fill:#02a6ff;}</style></defs><title>line8</title><g id="_编组_" data-name="&lt;编组&gt;"><g id="_编组_2" data-name="&lt;编组&gt;"><polygon id="_路径_" data-name="&lt;路径&gt;" class="cls-1" points="16.54 18.86 10.8 24.6 25.05 24.6 30.79 18.86 16.54 18.86"/></g><g id="_编组_3" data-name="&lt;编组&gt;"><polygon id="_路径_2" data-name="&lt;路径&gt;" class="cls-1" points="35.04 18.86 29.3 24.6 43.55 24.6 49.29 18.86 35.04 18.86"/></g><g id="_编组_4" data-name="&lt;编组&gt;"><polygon id="_路径_3" data-name="&lt;路径&gt;" class="cls-1" points="53.54 18.86 47.8 24.6 62.06 24.6 67.79 18.86 53.54 18.86"/></g><g id="_编组_5" data-name="&lt;编组&gt;"><polygon id="_路径_4" data-name="&lt;路径&gt;" class="cls-1" points="72.04 18.86 66.3 24.6 80.56 24.6 86.29 18.86 72.04 18.86"/></g><g id="_编组_6" data-name="&lt;编组&gt;"><polygon id="_路径_5" data-name="&lt;路径&gt;" class="cls-1" points="90.54 18.86 84.8 24.6 99.06 24.6 104.79 18.86 90.54 18.86"/></g><g id="_编组_7" data-name="&lt;编组&gt;"><polygon id="_路径_6" data-name="&lt;路径&gt;" class="cls-1" points="109.04 18.86 103.3 24.6 117.56 24.6 123.3 18.86 109.04 18.86"/></g><g id="_编组_8" data-name="&lt;编组&gt;"><polygon id="_路径_7" data-name="&lt;路径&gt;" class="cls-1" points="127.54 18.86 121.8 24.6 136.06 24.6 141.8 18.86 127.54 18.86"/></g><g id="_编组_9" data-name="&lt;编组&gt;"><polygon id="_路径_8" data-name="&lt;路径&gt;" class="cls-1" points="146.04 18.86 140.31 24.6 154.56 24.6 160.3 18.86 146.04 18.86"/></g><g id="_编组_10" data-name="&lt;编组&gt;"><polygon id="_路径_9" data-name="&lt;路径&gt;" class="cls-1" points="164.54 18.86 158.81 24.6 173.06 24.6 178.8 18.86 164.54 18.86"/></g><g id="_编组_11" data-name="&lt;编组&gt;"><polygon id="_路径_10" data-name="&lt;路径&gt;" class="cls-1" points="183.04 18.86 177.31 24.6 191.56 24.6 197.3 18.86 183.04 18.86"/></g><g id="_编组_12" data-name="&lt;编组&gt;"><polygon id="_路径_11" data-name="&lt;路径&gt;" class="cls-1" points="201.54 18.86 195.81 24.6 210.06 24.6 215.8 18.86 201.54 18.86"/></g><rect id="_矩形_" data-name="&lt;矩形&gt;" class="cls-1" y="30.4" width="715.94" height="5.74"/><g id="_编组_13" data-name="&lt;编组&gt;"><polygon id="_路径_12" data-name="&lt;路径&gt;" class="cls-1" points="217.92 33.27 230.83 46.18 363.42 46.18 376.32 33.27 217.92 33.27"/></g><g id="_编组_14" data-name="&lt;编组&gt;"><polygon id="_路径_13" data-name="&lt;路径&gt;" class="cls-1" points="557.89 0 452.91 0 422.51 30.4 588.29 30.4 557.89 0"/></g><rect id="_矩形_2" data-name="&lt;矩形&gt;" class="cls-1" x="594.61" y="21.23" width="47.04" height="3.73"/><rect id="_矩形_3" data-name="&lt;矩形&gt;" class="cls-1" x="668.9" y="21.23" width="47.04" height="3.73"/><rect id="_矩形_4" data-name="&lt;矩形&gt;" class="cls-1" x="649.25" y="12.94" width="12.26" height="12.01"/><rect id="_矩形_5" data-name="&lt;矩形&gt;" class="cls-1" x="233.41" y="3.37" width="2.15" height="22.59"/><rect id="_矩形_6" data-name="&lt;矩形&gt;" class="cls-1" x="241.16" y="3.37" width="2.15" height="22.59"/><rect id="_矩形_7" data-name="&lt;矩形&gt;" class="cls-1" x="248.9" y="3.37" width="2.15" height="22.59"/><rect id="_矩形_8" data-name="&lt;矩形&gt;" class="cls-1" x="256.64" y="3.37" width="2.15" height="22.59"/><rect id="_矩形_9" data-name="&lt;矩形&gt;" class="cls-1" x="264.39" y="3.37" width="2.15" height="22.59"/><rect id="_矩形_10" data-name="&lt;矩形&gt;" class="cls-1" x="272.13" y="3.37" width="2.15" height="22.59"/><rect id="_矩形_11" data-name="&lt;矩形&gt;" class="cls-1" x="279.88" y="3.37" width="2.15" height="22.59"/><rect id="_矩形_12" data-name="&lt;矩形&gt;" class="cls-1" x="287.62" y="3.37" width="2.15" height="22.59"/><rect id="_矩形_13" data-name="&lt;矩形&gt;" class="cls-1" x="295.37" y="3.37" width="2.15" height="22.59"/><rect id="_矩形_14" data-name="&lt;矩形&gt;" class="cls-1" x="303.11" y="3.37" width="2.15" height="22.59"/><rect id="_矩形_15" data-name="&lt;矩形&gt;" class="cls-1" x="310.86" y="3.37" width="2.15" height="22.59"/><rect id="_矩形_16" data-name="&lt;矩形&gt;" class="cls-1" x="318.6" y="3.37" width="2.15" height="22.59"/><rect id="_矩形_17" data-name="&lt;矩形&gt;" class="cls-1" x="326.34" y="3.37" width="2.15" height="22.59"/><rect id="_矩形_18" data-name="&lt;矩形&gt;" class="cls-1" x="334.09" y="3.37" width="2.15" height="22.59"/><rect id="_矩形_19" data-name="&lt;矩形&gt;" class="cls-1" x="341.83" y="3.37" width="2.15" height="22.59"/><rect id="_矩形_20" data-name="&lt;矩形&gt;" class="cls-1" x="349.58" y="3.37" width="2.15" height="22.59"/><rect id="_矩形_21" data-name="&lt;矩形&gt;" class="cls-1" x="357.32" y="3.37" width="2.15" height="22.59"/><rect id="_矩形_22" data-name="&lt;矩形&gt;" class="cls-1" x="365.07" y="3.37" width="2.15" height="22.59"/><rect id="_矩形_23" data-name="&lt;矩形&gt;" class="cls-1" x="372.81" y="3.37" width="2.15" height="22.59"/><rect id="_矩形_24" data-name="&lt;矩形&gt;" class="cls-1" x="380.56" y="3.37" width="2.15" height="22.59"/><rect id="_矩形_25" data-name="&lt;矩形&gt;" class="cls-1" x="388.3" y="3.37" width="2.15" height="22.59"/><rect id="_矩形_26" data-name="&lt;矩形&gt;" class="cls-1" x="396.04" y="3.37" width="2.15" height="22.59"/><rect id="_矩形_27" data-name="&lt;矩形&gt;" class="cls-1" x="403.79" y="3.37" width="2.15" height="22.59"/><rect id="_矩形_28" data-name="&lt;矩形&gt;" class="cls-1" x="411.53" y="3.37" width="2.15" height="22.59"/></g><g id="_编组_15" data-name="&lt;编组&gt;"><g id="_编组_16" data-name="&lt;编组&gt;"><polygon id="_路径_14" data-name="&lt;路径&gt;" class="cls-1" points="16.54 18.86 10.8 24.6 25.05 24.6 30.79 18.86 16.54 18.86"/></g><g id="_编组_17" data-name="&lt;编组&gt;"><polygon id="_路径_15" data-name="&lt;路径&gt;" class="cls-1" points="35.04 18.86 29.3 24.6 43.55 24.6 49.29 18.86 35.04 18.86"/></g><g id="_编组_18" data-name="&lt;编组&gt;"><polygon id="_路径_16" data-name="&lt;路径&gt;" class="cls-1" points="53.54 18.86 47.8 24.6 62.06 24.6 67.79 18.86 53.54 18.86"/></g><g id="_编组_19" data-name="&lt;编组&gt;"><polygon id="_路径_17" data-name="&lt;路径&gt;" class="cls-1" points="72.04 18.86 66.3 24.6 80.56 24.6 86.29 18.86 72.04 18.86"/></g><g id="_编组_20" data-name="&lt;编组&gt;"><polygon id="_路径_18" data-name="&lt;路径&gt;" class="cls-1" points="90.54 18.86 84.8 24.6 99.06 24.6 104.79 18.86 90.54 18.86"/></g><g id="_编组_21" data-name="&lt;编组&gt;"><polygon id="_路径_19" data-name="&lt;路径&gt;" class="cls-1" points="109.04 18.86 103.3 24.6 117.56 24.6 123.3 18.86 109.04 18.86"/></g><g id="_编组_22" data-name="&lt;编组&gt;"><polygon id="_路径_20" data-name="&lt;路径&gt;" class="cls-1" points="127.54 18.86 121.8 24.6 136.06 24.6 141.8 18.86 127.54 18.86"/></g><g id="_编组_23" data-name="&lt;编组&gt;"><polygon id="_路径_21" data-name="&lt;路径&gt;" class="cls-1" points="146.04 18.86 140.31 24.6 154.56 24.6 160.3 18.86 146.04 18.86"/></g><g id="_编组_24" data-name="&lt;编组&gt;"><polygon id="_路径_22" data-name="&lt;路径&gt;" class="cls-1" points="164.54 18.86 158.81 24.6 173.06 24.6 178.8 18.86 164.54 18.86"/></g><g id="_编组_25" data-name="&lt;编组&gt;"><polygon id="_路径_23" data-name="&lt;路径&gt;" class="cls-1" points="183.04 18.86 177.31 24.6 191.56 24.6 197.3 18.86 183.04 18.86"/></g><g id="_编组_26" data-name="&lt;编组&gt;"><polygon id="_路径_24" data-name="&lt;路径&gt;" class="cls-1" points="201.54 18.86 195.81 24.6 210.06 24.6 215.8 18.86 201.54 18.86"/></g><rect id="_矩形_29" data-name="&lt;矩形&gt;" class="cls-1" y="30.4" width="715.94" height="5.74"/><g id="_编组_27" data-name="&lt;编组&gt;"><polygon id="_路径_25" data-name="&lt;路径&gt;" class="cls-1" points="217.92 33.27 230.83 46.18 363.42 46.18 376.32 33.27 217.92 33.27"/></g><g id="_编组_28" data-name="&lt;编组&gt;"><polygon id="_路径_26" data-name="&lt;路径&gt;" class="cls-1" points="557.89 0 452.91 0 422.51 30.4 588.29 30.4 557.89 0"/></g><rect id="_矩形_30" data-name="&lt;矩形&gt;" class="cls-1" x="594.61" y="21.23" width="47.04" height="3.73"/><rect id="_矩形_31" data-name="&lt;矩形&gt;" class="cls-1" x="668.9" y="21.23" width="47.04" height="3.73"/><rect id="_矩形_32" data-name="&lt;矩形&gt;" class="cls-1" x="649.25" y="12.94" width="12.26" height="12.01"/><rect id="_矩形_33" data-name="&lt;矩形&gt;" class="cls-1" x="233.41" y="3.37" width="2.15" height="22.59"/><rect id="_矩形_34" data-name="&lt;矩形&gt;" class="cls-1" x="241.16" y="3.37" width="2.15" height="22.59"/><rect id="_矩形_35" data-name="&lt;矩形&gt;" class="cls-1" x="248.9" y="3.37" width="2.15" height="22.59"/><rect id="_矩形_36" data-name="&lt;矩形&gt;" class="cls-1" x="256.64" y="3.37" width="2.15" height="22.59"/><rect id="_矩形_37" data-name="&lt;矩形&gt;" class="cls-1" x="264.39" y="3.37" width="2.15" height="22.59"/><rect id="_矩形_38" data-name="&lt;矩形&gt;" class="cls-1" x="272.13" y="3.37" width="2.15" height="22.59"/><rect id="_矩形_39" data-name="&lt;矩形&gt;" class="cls-1" x="279.88" y="3.37" width="2.15" height="22.59"/><rect id="_矩形_40" data-name="&lt;矩形&gt;" class="cls-1" x="287.62" y="3.37" width="2.15" height="22.59"/><rect id="_矩形_41" data-name="&lt;矩形&gt;" class="cls-1" x="295.37" y="3.37" width="2.15" height="22.59"/><rect id="_矩形_42" data-name="&lt;矩形&gt;" class="cls-1" x="303.11" y="3.37" width="2.15" height="22.59"/><rect id="_矩形_43" data-name="&lt;矩形&gt;" class="cls-1" x="310.86" y="3.37" width="2.15" height="22.59"/><rect id="_矩形_44" data-name="&lt;矩形&gt;" class="cls-1" x="318.6" y="3.37" width="2.15" height="22.59"/><rect id="_矩形_45" data-name="&lt;矩形&gt;" class="cls-1" x="326.34" y="3.37" width="2.15" height="22.59"/><rect id="_矩形_46" data-name="&lt;矩形&gt;" class="cls-1" x="334.09" y="3.37" width="2.15" height="22.59"/><rect id="_矩形_47" data-name="&lt;矩形&gt;" class="cls-1" x="341.83" y="3.37" width="2.15" height="22.59"/><rect id="_矩形_48" data-name="&lt;矩形&gt;" class="cls-1" x="349.58" y="3.37" width="2.15" height="22.59"/><rect id="_矩形_49" data-name="&lt;矩形&gt;" class="cls-1" x="357.32" y="3.37" width="2.15" height="22.59"/><rect id="_矩形_50" data-name="&lt;矩形&gt;" class="cls-1" x="365.07" y="3.37" width="2.15" height="22.59"/><rect id="_矩形_51" data-name="&lt;矩形&gt;" class="cls-1" x="372.81" y="3.37" width="2.15" height="22.59"/><rect id="_矩形_52" data-name="&lt;矩形&gt;" class="cls-1" x="380.56" y="3.37" width="2.15" height="22.59"/><rect id="_矩形_53" data-name="&lt;矩形&gt;" class="cls-1" x="388.3" y="3.37" width="2.15" height="22.59"/><rect id="_矩形_54" data-name="&lt;矩形&gt;" class="cls-1" x="396.04" y="3.37" width="2.15" height="22.59"/><rect id="_矩形_55" data-name="&lt;矩形&gt;" class="cls-1" x="403.79" y="3.37" width="2.15" height="22.59"/><rect id="_矩形_56" data-name="&lt;矩形&gt;" class="cls-1" x="411.53" y="3.37" width="2.15" height="22.59"/></g></svg>