<svg preserveAspectRatio="none" id="Layer_1" data-name="Layer 1" xmlns="http://www.w3.org/2000/svg" viewBox="0 0 715.94 46.18"><defs><style>.cls-1{fill:#02a6ff}</style></defs><g id="_编组_" data-name="&lt;编组&gt;"><g id="_编组_2" data-name="&lt;编组&gt;"><path id="_路径_" data-name="&lt;路径&gt;" class="cls-1" d="M16.54 18.86L10.8 24.6h14.25l5.74-5.74H16.54z"/></g><g id="_编组_3" data-name="&lt;编组&gt;"><path id="_路径_2" data-name="&lt;路径&gt;" class="cls-1" d="M35.04 18.86L29.3 24.6h14.25l5.74-5.74H35.04z"/></g><g id="_编组_4" data-name="&lt;编组&gt;"><path id="_路径_3" data-name="&lt;路径&gt;" class="cls-1" d="M53.54 18.86L47.8 24.6h14.26l5.73-5.74H53.54z"/></g><g id="_编组_5" data-name="&lt;编组&gt;"><path id="_路径_4" data-name="&lt;路径&gt;" class="cls-1" d="M72.04 18.86L66.3 24.6h14.26l5.73-5.74H72.04z"/></g><g id="_编组_6" data-name="&lt;编组&gt;"><path id="_路径_5" data-name="&lt;路径&gt;" class="cls-1" d="M90.54 18.86L84.8 24.6h14.26l5.73-5.74H90.54z"/></g><g id="_编组_7" data-name="&lt;编组&gt;"><path id="_路径_6" data-name="&lt;路径&gt;" class="cls-1" d="M109.04 18.86l-5.74 5.74h14.26l5.74-5.74h-14.26z"/></g><g id="_编组_8" data-name="&lt;编组&gt;"><path id="_路径_7" data-name="&lt;路径&gt;" class="cls-1" d="M127.54 18.86l-5.74 5.74h14.26l5.74-5.74h-14.26z"/></g><g id="_编组_9" data-name="&lt;编组&gt;"><path id="_路径_8" data-name="&lt;路径&gt;" class="cls-1" d="M146.04 18.86l-5.73 5.74h14.25l5.74-5.74h-14.26z"/></g><g id="_编组_10" data-name="&lt;编组&gt;"><path id="_路径_9" data-name="&lt;路径&gt;" class="cls-1" d="M164.54 18.86l-5.73 5.74h14.25l5.74-5.74h-14.26z"/></g><g id="_编组_11" data-name="&lt;编组&gt;"><path id="_路径_10" data-name="&lt;路径&gt;" class="cls-1" d="M183.04 18.86l-5.73 5.74h14.25l5.74-5.74h-14.26z"/></g><g id="_编组_12" data-name="&lt;编组&gt;"><path id="_路径_11" data-name="&lt;路径&gt;" class="cls-1" d="M201.54 18.86l-5.73 5.74h14.25l5.74-5.74h-14.26z"/></g><path id="_矩形_" data-name="&lt;矩形&gt;" class="cls-1" d="M0 30.4h715.94v5.74H0z"/><g id="_编组_13" data-name="&lt;编组&gt;"><path id="_路径_12" data-name="&lt;路径&gt;" class="cls-1" d="M217.92 33.27l12.91 12.91h132.59l12.9-12.91h-158.4z"/></g><g id="_编组_14" data-name="&lt;编组&gt;"><path id="_路径_13" data-name="&lt;路径&gt;" class="cls-1" d="M557.89 0H452.91l-30.4 30.4h165.78L557.89 0z"/></g><path id="_矩形_2" data-name="&lt;矩形&gt;" class="cls-1" d="M594.61 21.23h47.04v3.73h-47.04z"/><path id="_矩形_3" data-name="&lt;矩形&gt;" class="cls-1" d="M668.9 21.23h47.04v3.73H668.9z"/><path id="_矩形_4" data-name="&lt;矩形&gt;" class="cls-1" d="M649.25 12.94h12.26v12.01h-12.26z"/><path id="_矩形_5" data-name="&lt;矩形&gt;" class="cls-1" d="M233.41 3.37h2.15v22.59h-2.15z"/><path id="_矩形_6" data-name="&lt;矩形&gt;" class="cls-1" d="M241.16 3.37h2.15v22.59h-2.15z"/><path id="_矩形_7" data-name="&lt;矩形&gt;" class="cls-1" d="M248.9 3.37h2.15v22.59h-2.15z"/><path id="_矩形_8" data-name="&lt;矩形&gt;" class="cls-1" d="M256.64 3.37h2.15v22.59h-2.15z"/><path id="_矩形_9" data-name="&lt;矩形&gt;" class="cls-1" d="M264.39 3.37h2.15v22.59h-2.15z"/><path id="_矩形_10" data-name="&lt;矩形&gt;" class="cls-1" d="M272.13 3.37h2.15v22.59h-2.15z"/><path id="_矩形_11" data-name="&lt;矩形&gt;" class="cls-1" d="M279.88 3.37h2.15v22.59h-2.15z"/><path id="_矩形_12" data-name="&lt;矩形&gt;" class="cls-1" d="M287.62 3.37h2.15v22.59h-2.15z"/><path id="_矩形_13" data-name="&lt;矩形&gt;" class="cls-1" d="M295.37 3.37h2.15v22.59h-2.15z"/><path id="_矩形_14" data-name="&lt;矩形&gt;" class="cls-1" d="M303.11 3.37h2.15v22.59h-2.15z"/><path id="_矩形_15" data-name="&lt;矩形&gt;" class="cls-1" d="M310.86 3.37h2.15v22.59h-2.15z"/><path id="_矩形_16" data-name="&lt;矩形&gt;" class="cls-1" d="M318.6 3.37h2.15v22.59h-2.15z"/><path id="_矩形_17" data-name="&lt;矩形&gt;" class="cls-1" d="M326.34 3.37h2.15v22.59h-2.15z"/><path id="_矩形_18" data-name="&lt;矩形&gt;" class="cls-1" d="M334.09 3.37h2.15v22.59h-2.15z"/><path id="_矩形_19" data-name="&lt;矩形&gt;" class="cls-1" d="M341.83 3.37h2.15v22.59h-2.15z"/><path id="_矩形_20" data-name="&lt;矩形&gt;" class="cls-1" d="M349.58 3.37h2.15v22.59h-2.15z"/><path id="_矩形_21" data-name="&lt;矩形&gt;" class="cls-1" d="M357.32 3.37h2.15v22.59h-2.15z"/><path id="_矩形_22" data-name="&lt;矩形&gt;" class="cls-1" d="M365.07 3.37h2.15v22.59h-2.15z"/><path id="_矩形_23" data-name="&lt;矩形&gt;" class="cls-1" d="M372.81 3.37h2.15v22.59h-2.15z"/><path id="_矩形_24" data-name="&lt;矩形&gt;" class="cls-1" d="M380.56 3.37h2.15v22.59h-2.15z"/><path id="_矩形_25" data-name="&lt;矩形&gt;" class="cls-1" d="M388.3 3.37h2.15v22.59h-2.15z"/><path id="_矩形_26" data-name="&lt;矩形&gt;" class="cls-1" d="M396.04 3.37h2.15v22.59h-2.15z"/><path id="_矩形_27" data-name="&lt;矩形&gt;" class="cls-1" d="M403.79 3.37h2.15v22.59h-2.15z"/><path id="_矩形_28" data-name="&lt;矩形&gt;" class="cls-1" d="M411.53 3.37h2.15v22.59h-2.15z"/></g><g id="_编组_15" data-name="&lt;编组&gt;"><g id="_编组_16" data-name="&lt;编组&gt;"><path id="_路径_14" data-name="&lt;路径&gt;" class="cls-1" d="M16.54 18.86L10.8 24.6h14.25l5.74-5.74H16.54z"/></g><g id="_编组_17" data-name="&lt;编组&gt;"><path id="_路径_15" data-name="&lt;路径&gt;" class="cls-1" d="M35.04 18.86L29.3 24.6h14.25l5.74-5.74H35.04z"/></g><g id="_编组_18" data-name="&lt;编组&gt;"><path id="_路径_16" data-name="&lt;路径&gt;" class="cls-1" d="M53.54 18.86L47.8 24.6h14.26l5.73-5.74H53.54z"/></g><g id="_编组_19" data-name="&lt;编组&gt;"><path id="_路径_17" data-name="&lt;路径&gt;" class="cls-1" d="M72.04 18.86L66.3 24.6h14.26l5.73-5.74H72.04z"/></g><g id="_编组_20" data-name="&lt;编组&gt;"><path id="_路径_18" data-name="&lt;路径&gt;" class="cls-1" d="M90.54 18.86L84.8 24.6h14.26l5.73-5.74H90.54z"/></g><g id="_编组_21" data-name="&lt;编组&gt;"><path id="_路径_19" data-name="&lt;路径&gt;" class="cls-1" d="M109.04 18.86l-5.74 5.74h14.26l5.74-5.74h-14.26z"/></g><g id="_编组_22" data-name="&lt;编组&gt;"><path id="_路径_20" data-name="&lt;路径&gt;" class="cls-1" d="M127.54 18.86l-5.74 5.74h14.26l5.74-5.74h-14.26z"/></g><g id="_编组_23" data-name="&lt;编组&gt;"><path id="_路径_21" data-name="&lt;路径&gt;" class="cls-1" d="M146.04 18.86l-5.73 5.74h14.25l5.74-5.74h-14.26z"/></g><g id="_编组_24" data-name="&lt;编组&gt;"><path id="_路径_22" data-name="&lt;路径&gt;" class="cls-1" d="M164.54 18.86l-5.73 5.74h14.25l5.74-5.74h-14.26z"/></g><g id="_编组_25" data-name="&lt;编组&gt;"><path id="_路径_23" data-name="&lt;路径&gt;" class="cls-1" d="M183.04 18.86l-5.73 5.74h14.25l5.74-5.74h-14.26z"/></g><g id="_编组_26" data-name="&lt;编组&gt;"><path id="_路径_24" data-name="&lt;路径&gt;" class="cls-1" d="M201.54 18.86l-5.73 5.74h14.25l5.74-5.74h-14.26z"/></g><path id="_矩形_29" data-name="&lt;矩形&gt;" class="cls-1" d="M0 30.4h715.94v5.74H0z"/><g id="_编组_27" data-name="&lt;编组&gt;"><path id="_路径_25" data-name="&lt;路径&gt;" class="cls-1" d="M217.92 33.27l12.91 12.91h132.59l12.9-12.91h-158.4z"/></g><g id="_编组_28" data-name="&lt;编组&gt;"><path id="_路径_26" data-name="&lt;路径&gt;" class="cls-1" d="M557.89 0H452.91l-30.4 30.4h165.78L557.89 0z"/></g><path id="_矩形_30" data-name="&lt;矩形&gt;" class="cls-1" d="M594.61 21.23h47.04v3.73h-47.04z"/><path id="_矩形_31" data-name="&lt;矩形&gt;" class="cls-1" d="M668.9 21.23h47.04v3.73H668.9z"/><path id="_矩形_32" data-name="&lt;矩形&gt;" class="cls-1" d="M649.25 12.94h12.26v12.01h-12.26z"/><path id="_矩形_33" data-name="&lt;矩形&gt;" class="cls-1" d="M233.41 3.37h2.15v22.59h-2.15z"/><path id="_矩形_34" data-name="&lt;矩形&gt;" class="cls-1" d="M241.16 3.37h2.15v22.59h-2.15z"/><path id="_矩形_35" data-name="&lt;矩形&gt;" class="cls-1" d="M248.9 3.37h2.15v22.59h-2.15z"/><path id="_矩形_36" data-name="&lt;矩形&gt;" class="cls-1" d="M256.64 3.37h2.15v22.59h-2.15z"/><path id="_矩形_37" data-name="&lt;矩形&gt;" class="cls-1" d="M264.39 3.37h2.15v22.59h-2.15z"/><path id="_矩形_38" data-name="&lt;矩形&gt;" class="cls-1" d="M272.13 3.37h2.15v22.59h-2.15z"/><path id="_矩形_39" data-name="&lt;矩形&gt;" class="cls-1" d="M279.88 3.37h2.15v22.59h-2.15z"/><path id="_矩形_40" data-name="&lt;矩形&gt;" class="cls-1" d="M287.62 3.37h2.15v22.59h-2.15z"/><path id="_矩形_41" data-name="&lt;矩形&gt;" class="cls-1" d="M295.37 3.37h2.15v22.59h-2.15z"/><path id="_矩形_42" data-name="&lt;矩形&gt;" class="cls-1" d="M303.11 3.37h2.15v22.59h-2.15z"/><path id="_矩形_43" data-name="&lt;矩形&gt;" class="cls-1" d="M310.86 3.37h2.15v22.59h-2.15z"/><path id="_矩形_44" data-name="&lt;矩形&gt;" class="cls-1" d="M318.6 3.37h2.15v22.59h-2.15z"/><path id="_矩形_45" data-name="&lt;矩形&gt;" class="cls-1" d="M326.34 3.37h2.15v22.59h-2.15z"/><path id="_矩形_46" data-name="&lt;矩形&gt;" class="cls-1" d="M334.09 3.37h2.15v22.59h-2.15z"/><path id="_矩形_47" data-name="&lt;矩形&gt;" class="cls-1" d="M341.83 3.37h2.15v22.59h-2.15z"/><path id="_矩形_48" data-name="&lt;矩形&gt;" class="cls-1" d="M349.58 3.37h2.15v22.59h-2.15z"/><path id="_矩形_49" data-name="&lt;矩形&gt;" class="cls-1" d="M357.32 3.37h2.15v22.59h-2.15z"/><path id="_矩形_50" data-name="&lt;矩形&gt;" class="cls-1" d="M365.07 3.37h2.15v22.59h-2.15z"/><path id="_矩形_51" data-name="&lt;矩形&gt;" class="cls-1" d="M372.81 3.37h2.15v22.59h-2.15z"/><path id="_矩形_52" data-name="&lt;矩形&gt;" class="cls-1" d="M380.56 3.37h2.15v22.59h-2.15z"/><path id="_矩形_53" data-name="&lt;矩形&gt;" class="cls-1" d="M388.3 3.37h2.15v22.59h-2.15z"/><path id="_矩形_54" data-name="&lt;矩形&gt;" class="cls-1" d="M396.04 3.37h2.15v22.59h-2.15z"/><path id="_矩形_55" data-name="&lt;矩形&gt;" class="cls-1" d="M403.79 3.37h2.15v22.59h-2.15z"/><path id="_矩形_56" data-name="&lt;矩形&gt;" class="cls-1" d="M411.53 3.37h2.15v22.59h-2.15z"/></g></svg>