<svg preserveAspectRatio="none" id="OBJECTS" xmlns="http://www.w3.org/2000/svg" xmlns:xlink="http://www.w3.org/1999/xlink" viewBox="0 0 424.48 5.83"><defs><style>.cls-1{fill:url(#Degradado_sin_nombre_820);}.cls-2{fill:url(#Degradado_sin_nombre_820-3);}.cls-3{fill:url(#Degradado_sin_nombre_820-4);}.cls-4{fill:url(#Degradado_sin_nombre_820-5);}.cls-5{fill:url(#Degradado_sin_nombre_820-6);}.cls-6{fill:url(#Degradado_sin_nombre_820-7);}.cls-7{fill:url(#Degradado_sin_nombre_820-8);}.cls-8{fill:url(#Degradado_sin_nombre_820-9);}.cls-9{fill:url(#Degradado_sin_nombre_820-10);}.cls-10{fill:url(#Degradado_sin_nombre_820-11);}.cls-11{fill:url(#Degradado_sin_nombre_820-12);}.cls-12{fill:url(#Degradado_sin_nombre_820-13);}.cls-13{fill:url(#Degradado_sin_nombre_820-14);}.cls-14{fill:url(#Degradado_sin_nombre_820-15);}.cls-15{fill:url(#Degradado_sin_nombre_820-16);}.cls-16{fill:url(#Degradado_sin_nombre_820-17);}.cls-17{fill:url(#Degradado_sin_nombre_820-18);}.cls-18{fill:url(#Degradado_sin_nombre_820-19);}.cls-19{fill:url(#Degradado_sin_nombre_820-20);}.cls-20{fill:url(#Degradado_sin_nombre_820-21);}.cls-21{fill:url(#Degradado_sin_nombre_820-22);}.cls-22{fill:url(#Degradado_sin_nombre_820-23);}.cls-23{fill:url(#Degradado_sin_nombre_820-24);}.cls-24{fill:url(#Degradado_sin_nombre_820-26);}.cls-25{fill:url(#Degradado_sin_nombre_820-27);}.cls-26{fill:url(#Degradado_sin_nombre_820-28);}.cls-27{fill:url(#Degradado_sin_nombre_820-29);}.cls-28{fill:url(#Degradado_sin_nombre_820-30);}.cls-29{fill:url(#Degradado_sin_nombre_820-31);}.cls-30{fill:url(#Degradado_sin_nombre_820-32);}.cls-31{fill:url(#Degradado_sin_nombre_820-33);}.cls-32{fill:url(#Degradado_sin_nombre_820-34);}.cls-33{fill:url(#Degradado_sin_nombre_820-36);}.cls-34{fill:url(#Degradado_sin_nombre_820-37);}.cls-35{fill:url(#Degradado_sin_nombre_820-38);}.cls-36{fill:url(#Degradado_sin_nombre_820-39);}.cls-37{fill:url(#Degradado_sin_nombre_820-40);}.cls-38{fill:url(#Degradado_sin_nombre_820-41);}.cls-39{fill:url(#Degradado_sin_nombre_820-42);}.cls-40{fill:url(#Degradado_sin_nombre_820-43);}.cls-41{fill:url(#Degradado_sin_nombre_820-45);}.cls-42{fill:url(#Degradado_sin_nombre_820-46);}.cls-43{fill:url(#Degradado_sin_nombre_820-47);}.cls-44{fill:url(#Degradado_sin_nombre_820-48);}.cls-45{fill:url(#Degradado_sin_nombre_820-50);}.cls-46{fill:url(#Degradado_sin_nombre_820-51);}.cls-47{fill:url(#Degradado_sin_nombre_820-52);}.cls-48{fill:url(#Degradado_sin_nombre_820-53);}.cls-49{fill:url(#Degradado_sin_nombre_820-54);}.cls-50{fill:url(#Degradado_sin_nombre_820-55);}.cls-51{fill:url(#Degradado_sin_nombre_820-56);}.cls-52{fill:url(#Degradado_sin_nombre_820-57);}.cls-53{fill:url(#Degradado_sin_nombre_820-58);}.cls-54{fill:url(#Degradado_sin_nombre_820-59);}.cls-55{fill:url(#Degradado_sin_nombre_820-60);}.cls-56{fill:url(#Degradado_sin_nombre_820-61);}.cls-57{fill:url(#Degradado_sin_nombre_820-63);}.cls-58{fill:url(#Degradado_sin_nombre_820-64);}.cls-59{fill:url(#Degradado_sin_nombre_820-65);}.cls-60{fill:url(#Degradado_sin_nombre_820-66);}.cls-61{fill:url(#Degradado_sin_nombre_820-67);}.cls-62{fill:url(#Degradado_sin_nombre_820-69);}.cls-63{fill:url(#Degradado_sin_nombre_820-70);}.cls-64{fill:url(#Degradado_sin_nombre_820-71);}.cls-65{fill:url(#Degradado_sin_nombre_820-72);}.cls-66{fill:url(#Degradado_sin_nombre_820-75);}.cls-67{fill:url(#Degradado_sin_nombre_820-77);}.cls-68{fill:url(#Degradado_sin_nombre_820-78);}.cls-69{fill:url(#Degradado_sin_nombre_820-80);}.cls-70{fill:url(#Degradado_sin_nombre_820-81);}.cls-71{fill:url(#Degradado_sin_nombre_820-82);}.cls-72{fill:url(#Degradado_sin_nombre_820-84);}.cls-73{fill:url(#Degradado_sin_nombre_820-86);}.cls-74{fill:url(#Degradado_sin_nombre_820-87);}.cls-75{fill:url(#Degradado_sin_nombre_820-88);}.cls-76{fill:url(#Degradado_sin_nombre_820-89);}.cls-77{fill:url(#Degradado_sin_nombre_820-90);}.cls-78{fill:url(#Degradado_sin_nombre_820-91);}.cls-79{fill:url(#Degradado_sin_nombre_820-92);}.cls-80{fill:url(#Degradado_sin_nombre_820-93);}.cls-81{fill:url(#Degradado_sin_nombre_820-95);}.cls-82{fill:url(#Degradado_sin_nombre_820-96);}</style><linearGradient id="Degradado_sin_nombre_820" x1="6.4" y1="5.4" x2="461.43" y2="5.4" gradientUnits="userSpaceOnUse"><stop offset="0" stop-color="#7efffb"/><stop offset="0.44" stop-color="#0093ff"/><stop offset="1" stop-color="#3bfffd"/></linearGradient><linearGradient id="Degradado_sin_nombre_820-3" x1="6.4" y1="2.48" x2="461.42" y2="2.48" xlink:href="#Degradado_sin_nombre_820"/><linearGradient id="Degradado_sin_nombre_820-4" x1="6.4" y1="2.48" x2="461.46" y2="2.48" xlink:href="#Degradado_sin_nombre_820"/><linearGradient id="Degradado_sin_nombre_820-5" x1="6.4" y1="2.48" x2="461.42" y2="2.48" xlink:href="#Degradado_sin_nombre_820"/><linearGradient id="Degradado_sin_nombre_820-6" x1="6.4" y1="2.48" x2="461.42" y2="2.48" xlink:href="#Degradado_sin_nombre_820"/><linearGradient id="Degradado_sin_nombre_820-7" x1="6.4" y1="2.48" x2="461.46" y2="2.48" xlink:href="#Degradado_sin_nombre_820"/><linearGradient id="Degradado_sin_nombre_820-8" x1="6.4" y1="2.48" x2="461.42" y2="2.48" xlink:href="#Degradado_sin_nombre_820"/><linearGradient id="Degradado_sin_nombre_820-9" x1="6.4" y1="2.48" x2="461.46" y2="2.48" xlink:href="#Degradado_sin_nombre_820"/><linearGradient id="Degradado_sin_nombre_820-10" x1="6.4" y1="2.48" x2="461.41" y2="2.48" xlink:href="#Degradado_sin_nombre_820"/><linearGradient id="Degradado_sin_nombre_820-11" x1="6.4" y1="2.48" x2="461.42" y2="2.48" xlink:href="#Degradado_sin_nombre_820"/><linearGradient id="Degradado_sin_nombre_820-12" x1="6.4" y1="2.48" x2="461.46" y2="2.48" xlink:href="#Degradado_sin_nombre_820"/><linearGradient id="Degradado_sin_nombre_820-13" x1="6.4" y1="5.4" x2="461.42" y2="5.4" xlink:href="#Degradado_sin_nombre_820"/><linearGradient id="Degradado_sin_nombre_820-14" x1="6.4" y1="5.4" x2="461.43" y2="5.4" xlink:href="#Degradado_sin_nombre_820"/><linearGradient id="Degradado_sin_nombre_820-15" x1="6.39" y1="2.48" x2="461.46" y2="2.48" xlink:href="#Degradado_sin_nombre_820"/><linearGradient id="Degradado_sin_nombre_820-16" x1="6.4" y1="2.48" x2="461.42" y2="2.48" xlink:href="#Degradado_sin_nombre_820"/><linearGradient id="Degradado_sin_nombre_820-17" x1="6.4" y1="2.48" x2="461.42" y2="2.48" xlink:href="#Degradado_sin_nombre_820"/><linearGradient id="Degradado_sin_nombre_820-18" x1="6.39" y1="2.48" x2="461.46" y2="2.48" xlink:href="#Degradado_sin_nombre_820"/><linearGradient id="Degradado_sin_nombre_820-19" x1="6.4" y1="2.48" x2="461.41" y2="2.48" xlink:href="#Degradado_sin_nombre_820"/><linearGradient id="Degradado_sin_nombre_820-20" x1="6.39" y1="2.48" x2="461.45" y2="2.48" xlink:href="#Degradado_sin_nombre_820"/><linearGradient id="Degradado_sin_nombre_820-21" x1="6.4" y1="2.48" x2="461.41" y2="2.48" xlink:href="#Degradado_sin_nombre_820"/><linearGradient id="Degradado_sin_nombre_820-22" x1="6.4" y1="2.48" x2="461.41" y2="2.48" xlink:href="#Degradado_sin_nombre_820"/><linearGradient id="Degradado_sin_nombre_820-23" x1="6.39" y1="2.48" x2="461.46" y2="2.48" xlink:href="#Degradado_sin_nombre_820"/><linearGradient id="Degradado_sin_nombre_820-24" x1="6.4" y1="2.48" x2="461.41" y2="2.48" xlink:href="#Degradado_sin_nombre_820"/><linearGradient id="Degradado_sin_nombre_820-26" x1="6.4" y1="5.4" x2="461.43" y2="5.4" xlink:href="#Degradado_sin_nombre_820"/><linearGradient id="Degradado_sin_nombre_820-27" x1="6.4" y1="2.48" x2="461.42" y2="2.48" xlink:href="#Degradado_sin_nombre_820"/><linearGradient id="Degradado_sin_nombre_820-28" x1="6.39" y1="2.48" x2="461.45" y2="2.48" xlink:href="#Degradado_sin_nombre_820"/><linearGradient id="Degradado_sin_nombre_820-29" x1="6.4" y1="2.48" x2="461.42" y2="2.48" xlink:href="#Degradado_sin_nombre_820"/><linearGradient id="Degradado_sin_nombre_820-30" x1="6.4" y1="2.48" x2="461.42" y2="2.48" xlink:href="#Degradado_sin_nombre_820"/><linearGradient id="Degradado_sin_nombre_820-31" x1="6.39" y1="2.48" x2="461.45" y2="2.48" xlink:href="#Degradado_sin_nombre_820"/><linearGradient id="Degradado_sin_nombre_820-32" x1="6.4" y1="2.48" x2="461.42" y2="2.48" xlink:href="#Degradado_sin_nombre_820"/><linearGradient id="Degradado_sin_nombre_820-33" x1="6.4" y1="2.48" x2="461.42" y2="2.48" xlink:href="#Degradado_sin_nombre_820"/><linearGradient id="Degradado_sin_nombre_820-34" x1="6.4" y1="2.48" x2="461.42" y2="2.48" xlink:href="#Degradado_sin_nombre_820"/><linearGradient id="Degradado_sin_nombre_820-36" x1="6.39" y1="2.48" x2="461.45" y2="2.48" xlink:href="#Degradado_sin_nombre_820"/><linearGradient id="Degradado_sin_nombre_820-37" x1="6.4" y1="5.4" x2="461.43" y2="5.4" xlink:href="#Degradado_sin_nombre_820"/><linearGradient id="Degradado_sin_nombre_820-38" x1="6.4" y1="5.4" x2="461.43" y2="5.4" xlink:href="#Degradado_sin_nombre_820"/><linearGradient id="Degradado_sin_nombre_820-39" x1="6.39" y1="2.48" x2="461.45" y2="2.48" xlink:href="#Degradado_sin_nombre_820"/><linearGradient id="Degradado_sin_nombre_820-40" x1="6.41" y1="2.48" x2="461.42" y2="2.48" xlink:href="#Degradado_sin_nombre_820"/><linearGradient id="Degradado_sin_nombre_820-41" x1="6.4" y1="2.48" x2="461.42" y2="2.48" xlink:href="#Degradado_sin_nombre_820"/><linearGradient id="Degradado_sin_nombre_820-42" x1="6.39" y1="2.48" x2="461.45" y2="2.48" xlink:href="#Degradado_sin_nombre_820"/><linearGradient id="Degradado_sin_nombre_820-43" x1="6.41" y1="2.48" x2="461.42" y2="2.48" xlink:href="#Degradado_sin_nombre_820"/><linearGradient id="Degradado_sin_nombre_820-45" x1="6.41" y1="2.48" x2="461.42" y2="2.48" xlink:href="#Degradado_sin_nombre_820"/><linearGradient id="Degradado_sin_nombre_820-46" x1="6.41" y1="2.48" x2="461.42" y2="2.48" xlink:href="#Degradado_sin_nombre_820"/><linearGradient id="Degradado_sin_nombre_820-47" x1="6.38" y1="2.48" x2="461.45" y2="2.48" xlink:href="#Degradado_sin_nombre_820"/><linearGradient id="Degradado_sin_nombre_820-48" x1="6.41" y1="2.48" x2="461.42" y2="2.48" xlink:href="#Degradado_sin_nombre_820"/><linearGradient id="Degradado_sin_nombre_820-50" x1="6.4" y1="5.4" x2="461.43" y2="5.4" xlink:href="#Degradado_sin_nombre_820"/><linearGradient id="Degradado_sin_nombre_820-51" x1="6.41" y1="2.48" x2="461.42" y2="2.48" xlink:href="#Degradado_sin_nombre_820"/><linearGradient id="Degradado_sin_nombre_820-52" x1="6.4" y1="2.48" x2="461.43" y2="2.48" xlink:href="#Degradado_sin_nombre_820"/><linearGradient id="Degradado_sin_nombre_820-53" x1="6.38" y1="2.48" x2="461.44" y2="2.48" xlink:href="#Degradado_sin_nombre_820"/><linearGradient id="Degradado_sin_nombre_820-54" x1="6.41" y1="2.48" x2="461.42" y2="2.48" xlink:href="#Degradado_sin_nombre_820"/><linearGradient id="Degradado_sin_nombre_820-55" x1="6.38" y1="2.48" x2="461.44" y2="2.48" xlink:href="#Degradado_sin_nombre_820"/><linearGradient id="Degradado_sin_nombre_820-56" x1="6.41" y1="2.48" x2="461.42" y2="2.48" xlink:href="#Degradado_sin_nombre_820"/><linearGradient id="Degradado_sin_nombre_820-57" x1="6.41" y1="2.48" x2="461.42" y2="2.48" xlink:href="#Degradado_sin_nombre_820"/><linearGradient id="Degradado_sin_nombre_820-58" x1="6.4" y1="2.48" x2="461.43" y2="2.48" xlink:href="#Degradado_sin_nombre_820"/><linearGradient id="Degradado_sin_nombre_820-59" x1="6.41" y1="2.48" x2="461.42" y2="2.48" xlink:href="#Degradado_sin_nombre_820"/><linearGradient id="Degradado_sin_nombre_820-60" x1="6.41" y1="2.48" x2="461.42" y2="2.48" xlink:href="#Degradado_sin_nombre_820"/><linearGradient id="Degradado_sin_nombre_820-61" x1="6.4" y1="5.4" x2="461.43" y2="5.4" xlink:href="#Degradado_sin_nombre_820"/><linearGradient id="Degradado_sin_nombre_820-63" x1="6.38" y1="2.48" x2="461.44" y2="2.48" xlink:href="#Degradado_sin_nombre_820"/><linearGradient id="Degradado_sin_nombre_820-64" x1="6.41" y1="2.48" x2="461.42" y2="2.48" xlink:href="#Degradado_sin_nombre_820"/><linearGradient id="Degradado_sin_nombre_820-65" x1="6.41" y1="2.48" x2="461.42" y2="2.48" xlink:href="#Degradado_sin_nombre_820"/><linearGradient id="Degradado_sin_nombre_820-66" x1="6.38" y1="2.48" x2="461.44" y2="2.48" xlink:href="#Degradado_sin_nombre_820"/><linearGradient id="Degradado_sin_nombre_820-67" x1="6.41" y1="2.48" x2="461.42" y2="2.48" xlink:href="#Degradado_sin_nombre_820"/><linearGradient id="Degradado_sin_nombre_820-69" x1="6.41" y1="2.48" x2="461.42" y2="2.48" xlink:href="#Degradado_sin_nombre_820"/><linearGradient id="Degradado_sin_nombre_820-70" x1="6.41" y1="2.48" x2="461.42" y2="2.48" xlink:href="#Degradado_sin_nombre_820"/><linearGradient id="Degradado_sin_nombre_820-71" x1="6.38" y1="2.48" x2="461.44" y2="2.48" xlink:href="#Degradado_sin_nombre_820"/><linearGradient id="Degradado_sin_nombre_820-72" x1="6.41" y1="2.48" x2="461.42" y2="2.48" xlink:href="#Degradado_sin_nombre_820"/><linearGradient id="Degradado_sin_nombre_820-75" x1="6.41" y1="2.48" x2="461.42" y2="2.48" xlink:href="#Degradado_sin_nombre_820"/><linearGradient id="Degradado_sin_nombre_820-77" x1="6.4" y1="2.48" x2="461.43" y2="2.48" xlink:href="#Degradado_sin_nombre_820"/><linearGradient id="Degradado_sin_nombre_820-78" x1="6.41" y1="2.48" x2="461.42" y2="2.48" xlink:href="#Degradado_sin_nombre_820"/><linearGradient id="Degradado_sin_nombre_820-80" x1="6.41" y1="2.48" x2="461.42" y2="2.48" xlink:href="#Degradado_sin_nombre_820"/><linearGradient id="Degradado_sin_nombre_820-81" x1="6.41" y1="2.48" x2="461.42" y2="2.48" xlink:href="#Degradado_sin_nombre_820"/><linearGradient id="Degradado_sin_nombre_820-82" x1="6.42" y1="2.48" x2="461.42" y2="2.48" xlink:href="#Degradado_sin_nombre_820"/><linearGradient id="Degradado_sin_nombre_820-84" x1="6.41" y1="2.48" x2="461.42" y2="2.48" xlink:href="#Degradado_sin_nombre_820"/><linearGradient id="Degradado_sin_nombre_820-86" x1="6.4" y1="5.4" x2="461.43" y2="5.4" xlink:href="#Degradado_sin_nombre_820"/><linearGradient id="Degradado_sin_nombre_820-87" x1="6.41" y1="2.48" x2="461.42" y2="2.48" xlink:href="#Degradado_sin_nombre_820"/><linearGradient id="Degradado_sin_nombre_820-88" x1="6.41" y1="2.48" x2="461.42" y2="2.48" xlink:href="#Degradado_sin_nombre_820"/><linearGradient id="Degradado_sin_nombre_820-89" x1="6.41" y1="2.48" x2="461.42" y2="2.48" xlink:href="#Degradado_sin_nombre_820"/><linearGradient id="Degradado_sin_nombre_820-90" x1="6.41" y1="2.48" x2="461.42" y2="2.48" xlink:href="#Degradado_sin_nombre_820"/><linearGradient id="Degradado_sin_nombre_820-91" x1="6.41" y1="2.48" x2="461.43" y2="2.48" xlink:href="#Degradado_sin_nombre_820"/><linearGradient id="Degradado_sin_nombre_820-92" x1="6.41" y1="2.48" x2="461.43" y2="2.48" xlink:href="#Degradado_sin_nombre_820"/><linearGradient id="Degradado_sin_nombre_820-93" x1="6.42" y1="2.48" x2="461.42" y2="2.48" xlink:href="#Degradado_sin_nombre_820"/><linearGradient id="Degradado_sin_nombre_820-95" x1="6.37" y1="2.48" x2="461.43" y2="2.48" xlink:href="#Degradado_sin_nombre_820"/><linearGradient id="Degradado_sin_nombre_820-96" x1="6.41" y1="2.48" x2="461.43" y2="2.48" xlink:href="#Degradado_sin_nombre_820"/></defs><title>line1</title><rect class="cls-1" y="4.96" width="10.89" height="0.88"/><rect class="cls-1" x="42.17" y="4.96" width="10.89" height="0.88"/><rect class="cls-2" x="16.61" width="0.91" height="4.96"/><rect class="cls-3" x="18.72" width="0.91" height="4.96"/><rect class="cls-4" x="20.82" width="0.91" height="4.96"/><rect class="cls-5" x="22.92" width="0.91" height="4.96"/><rect class="cls-6" x="25.03" width="0.91" height="4.96"/><rect class="cls-7" x="27.13" width="0.91" height="4.96"/><rect class="cls-8" x="29.23" width="0.91" height="4.96"/><rect class="cls-9" x="31.33" width="0.91" height="4.96"/><rect class="cls-10" x="33.44" width="0.91" height="4.96"/><rect class="cls-11" x="35.54" width="0.91" height="4.96"/><rect class="cls-12" x="53.06" y="4.96" width="10.89" height="0.88"/><rect class="cls-13" x="95.23" y="4.96" width="10.89" height="0.88"/><rect class="cls-14" x="69.67" width="0.91" height="4.96"/><rect class="cls-15" x="71.78" width="0.91" height="4.96"/><rect class="cls-16" x="73.88" width="0.91" height="4.96"/><rect class="cls-17" x="75.98" width="0.91" height="4.96"/><rect class="cls-18" x="78.09" width="0.91" height="4.96"/><rect class="cls-19" x="80.19" width="0.91" height="4.96"/><rect class="cls-20" x="82.29" width="0.91" height="4.96"/><rect class="cls-21" x="84.39" width="0.91" height="4.96"/><rect class="cls-22" x="86.5" width="0.91" height="4.96"/><rect class="cls-23" x="88.6" width="0.91" height="4.96"/><rect class="cls-13" x="106.12" y="4.96" width="10.89" height="0.88"/><rect class="cls-24" x="148.29" y="4.96" width="10.89" height="0.88"/><rect class="cls-25" x="122.73" width="0.91" height="4.96"/><rect class="cls-26" x="124.84" width="0.91" height="4.96"/><rect class="cls-27" x="126.94" width="0.91" height="4.96"/><rect class="cls-28" x="129.04" width="0.91" height="4.96"/><rect class="cls-29" x="131.15" width="0.91" height="4.96"/><rect class="cls-30" x="133.25" width="0.91" height="4.96"/><rect class="cls-31" x="135.35" width="0.91" height="4.96"/><rect class="cls-32" x="137.45" width="0.91" height="4.96"/><rect class="cls-30" x="139.56" width="0.91" height="4.96"/><rect class="cls-33" x="141.66" width="0.91" height="4.96"/><rect class="cls-34" x="159.18" y="4.96" width="10.89" height="0.88"/><rect class="cls-35" x="201.35" y="4.96" width="10.89" height="0.88"/><rect class="cls-36" x="175.79" width="0.91" height="4.96"/><rect class="cls-37" x="177.9" width="0.91" height="4.96"/><rect class="cls-38" x="180" width="0.91" height="4.96"/><rect class="cls-39" x="182.1" width="0.91" height="4.96"/><rect class="cls-40" x="184.21" width="0.91" height="4.96"/><rect class="cls-38" x="186.31" width="0.91" height="4.96"/><rect class="cls-41" x="188.41" width="0.91" height="4.96"/><rect class="cls-42" x="190.51" width="0.91" height="4.96"/><rect class="cls-43" x="192.62" width="0.91" height="4.96"/><rect class="cls-44" x="194.72" width="0.91" height="4.96"/><rect class="cls-35" x="212.24" y="4.96" width="10.89" height="0.88"/><rect class="cls-45" x="254.41" y="4.96" width="10.89" height="0.88"/><rect class="cls-46" x="228.85" width="0.91" height="4.96"/><rect class="cls-47" x="230.96" width="0.91" height="4.96"/><rect class="cls-48" x="233.06" width="0.91" height="4.96"/><rect class="cls-49" x="235.16" width="0.91" height="4.96"/><rect class="cls-50" x="237.26" width="0.91" height="4.96"/><rect class="cls-51" x="239.37" width="0.91" height="4.96"/><rect class="cls-52" x="241.47" width="0.91" height="4.96"/><rect class="cls-53" x="243.57" width="0.91" height="4.96"/><rect class="cls-54" x="245.68" width="0.91" height="4.96"/><rect class="cls-55" x="247.78" width="0.91" height="4.96"/><rect class="cls-56" x="265.3" y="4.96" width="10.89" height="0.88"/><rect class="cls-35" x="307.47" y="4.96" width="10.89" height="0.88"/><rect class="cls-57" x="281.91" width="0.91" height="4.96"/><rect class="cls-58" x="284.02" width="0.91" height="4.96"/><rect class="cls-59" x="286.12" width="0.91" height="4.96"/><rect class="cls-60" x="288.22" width="0.91" height="4.96"/><rect class="cls-61" x="290.32" width="0.91" height="4.96"/><rect class="cls-61" x="292.43" width="0.91" height="4.96"/><rect class="cls-62" x="294.53" width="0.91" height="4.96"/><rect class="cls-63" x="296.63" width="0.91" height="4.96"/><rect class="cls-64" x="298.74" width="0.91" height="4.96"/><rect class="cls-65" x="300.84" width="0.91" height="4.96"/><rect class="cls-35" x="318.36" y="4.96" width="10.89" height="0.88"/><rect class="cls-56" x="360.53" y="4.96" width="10.89" height="0.88"/><rect class="cls-66" x="334.97" width="0.91" height="4.96"/><rect class="cls-66" x="337.08" width="0.91" height="4.96"/><rect class="cls-67" x="339.18" width="0.91" height="4.96"/><rect class="cls-68" x="341.28" width="0.91" height="4.96"/><rect class="cls-68" x="343.38" width="0.91" height="4.96"/><rect class="cls-69" x="345.49" width="0.91" height="4.96"/><rect class="cls-70" x="347.59" width="0.91" height="4.96"/><rect class="cls-71" x="349.69" width="0.91" height="4.96"/><rect class="cls-67" x="351.8" width="0.91" height="4.96"/><rect class="cls-72" x="353.9" width="0.91" height="4.96"/><rect class="cls-56" x="371.42" y="4.96" width="10.89" height="0.88"/><rect class="cls-73" x="413.59" y="4.96" width="10.89" height="0.88"/><rect class="cls-74" x="388.03" width="0.91" height="4.96"/><rect class="cls-75" x="390.14" width="0.91" height="4.96"/><rect class="cls-76" x="392.24" width="0.91" height="4.96"/><rect class="cls-77" x="394.34" width="0.91" height="4.96"/><rect class="cls-78" x="396.44" width="0.91" height="4.96"/><rect class="cls-79" x="398.55" width="0.91" height="4.96"/><rect class="cls-80" x="400.65" width="0.91" height="4.96"/><rect class="cls-79" x="402.75" width="0.91" height="4.96"/><rect class="cls-81" x="404.86" width="0.91" height="4.96"/><rect class="cls-82" x="406.96" width="0.91" height="4.96"/></svg>