<svg preserveAspectRatio="none" xmlns="http://www.w3.org/2000/svg" xmlns:xlink="http://www.w3.org/1999/xlink" viewBox="0 0 15.09 217.35"><defs><linearGradient id="a" x1="376.16" y1="-68.32" x2="364.4" y2="139.08" gradientTransform="translate(99.31 263.64)" gradientUnits="userSpaceOnUse"><stop offset="0" stop-color="#1aecfc"/><stop offset="1" stop-color="#1c9af9"/></linearGradient><linearGradient id="b" x1="391.28" y1="-109.82" x2="377.26" y2="137.41" gradientTransform="translate(86 48.44)" xlink:href="#a"/><linearGradient id="c" x1="386.81" y1="-110.08" x2="372.78" y2="137.15" gradientTransform="translate(93.79 69.33)" xlink:href="#a"/><linearGradient id="d" x1="386.22" y1="-110.11" x2="372.19" y2="137.12" gradientTransform="translate(93.79 90.22)" xlink:href="#a"/><linearGradient id="e" x1="385.62" y1="-110.14" x2="371.6" y2="137.09" gradientTransform="translate(93.79 111.1)" xlink:href="#a"/><linearGradient id="f" x1="386" y1="-110.11" x2="371.97" y2="137.11" gradientTransform="translate(91.86 131.99)" xlink:href="#a"/><linearGradient id="g" x1="388.24" y1="-109.99" x2="374.21" y2="137.24" gradientTransform="translate(86 156.03)" xlink:href="#a"/><linearGradient id="h" x1="383.76" y1="-110.24" x2="369.74" y2="136.98" gradientTransform="translate(93.79 176.92)" xlink:href="#a"/><linearGradient id="i" x1="383.17" y1="-110.28" x2="369.15" y2="136.95" gradientTransform="translate(93.79 197.8)" xlink:href="#a"/><linearGradient id="j" x1="382.58" y1="-110.32" x2="368.56" y2="136.92" gradientTransform="translate(93.79 218.69)" xlink:href="#a"/><linearGradient id="k" x1="382.96" y1="-110.29" x2="368.93" y2="136.94" gradientTransform="translate(91.86 239.57)" xlink:href="#a"/><linearGradient id="l" x1="385.2" y1="-110.17" x2="371.17" y2="137.06" gradientTransform="translate(86 263.62)" xlink:href="#a"/><linearGradient id="m" x1="380.72" y1="-110.42" x2="366.7" y2="136.81" gradientTransform="translate(93.79 284.5)" xlink:href="#a"/><linearGradient id="n" x1="380.13" y1="-110.45" x2="366.11" y2="136.78" gradientTransform="translate(93.79 305.39)" xlink:href="#a"/><linearGradient id="o" x1="379.54" y1="-110.48" x2="365.52" y2="136.74" gradientTransform="translate(93.79 326.28)" xlink:href="#a"/><linearGradient id="p" x1="379.91" y1="-110.47" x2="365.89" y2="136.76" gradientTransform="translate(91.86 347.16)" xlink:href="#a"/><linearGradient id="q" x1="382.16" y1="-110.34" x2="368.13" y2="136.89" gradientTransform="translate(86 371.2)" xlink:href="#a"/><linearGradient id="r" x1="377.68" y1="-110.59" x2="363.66" y2="136.64" gradientTransform="translate(93.79 392.09)" xlink:href="#a"/><linearGradient id="s" x1="377.09" y1="-110.63" x2="363.07" y2="136.6" gradientTransform="translate(93.79 412.98)" xlink:href="#a"/><linearGradient id="t" x1="376.5" y1="-110.66" x2="362.48" y2="136.57" gradientTransform="translate(93.79 433.86)" xlink:href="#a"/><linearGradient id="u" x1="376.87" y1="-110.64" x2="362.85" y2="136.59" gradientTransform="translate(91.86 454.75)" xlink:href="#a"/><linearGradient id="v" x1="379.11" y1="-110.51" x2="365.09" y2="136.72" gradientTransform="translate(86 478.79)" xlink:href="#a"/></defs><g data-name="&lt;编组&gt;"><path data-name="&lt;矩形&gt;" transform="rotate(180 241.675 207.735)" fill="url(#a)" d="M468.27 198.12h1.77v217.33h-1.77z"/><path data-name="&lt;矩形&gt;" transform="rotate(180 235.02 100.14)" fill="url(#b)" d="M454.95 198.1h15.08v2.18h-15.08z"/><path data-name="&lt;矩形&gt;" transform="rotate(180 238.915 110.585)" fill="url(#c)" d="M462.75 208.54h7.29v2.18h-7.29z"/><path data-name="&lt;矩形&gt;" transform="rotate(180 238.915 121.025)" fill="url(#d)" d="M462.75 218.99h7.29v2.18h-7.29z"/><path data-name="&lt;矩形&gt;" transform="rotate(180 238.915 131.47)" fill="url(#e)" d="M462.75 229.43h7.29v2.18h-7.29z"/><path data-name="&lt;矩形&gt;" transform="rotate(180 237.95 141.91)" fill="url(#f)" d="M460.81 239.87h9.22v2.18h-9.22z"/><path data-name="&lt;矩形&gt;" transform="rotate(180 235.02 153.935)" fill="url(#g)" d="M454.95 251.89h15.08v2.18h-15.08z"/><path data-name="&lt;矩形&gt;" transform="rotate(180 238.915 164.375)" fill="url(#h)" d="M462.75 262.34h7.29v2.18h-7.29z"/><path data-name="&lt;矩形&gt;" transform="rotate(180 238.915 174.82)" fill="url(#i)" d="M462.75 272.78h7.29v2.18h-7.29z"/><path data-name="&lt;矩形&gt;" transform="rotate(180 238.915 185.265)" fill="url(#j)" d="M462.75 283.22h7.29v2.18h-7.29z"/><path data-name="&lt;矩形&gt;" transform="rotate(180 237.95 195.705)" fill="url(#k)" d="M460.81 293.67h9.22v2.18h-9.22z"/><path data-name="&lt;矩形&gt;" transform="rotate(180 235.02 207.725)" fill="url(#l)" d="M454.95 305.69h15.08v2.18h-15.08z"/><path data-name="&lt;矩形&gt;" transform="rotate(180 238.915 218.17)" fill="url(#m)" d="M462.75 316.13h7.29v2.18h-7.29z"/><path data-name="&lt;矩形&gt;" transform="rotate(180 238.915 228.615)" fill="url(#n)" d="M462.75 326.57h7.29v2.18h-7.29z"/><path data-name="&lt;矩形&gt;" transform="rotate(180 238.915 239.055)" fill="url(#o)" d="M462.75 337.02h7.29v2.18h-7.29z"/><path data-name="&lt;矩形&gt;" transform="rotate(180 237.95 249.5)" fill="url(#p)" d="M460.81 347.46h9.22v2.18h-9.22z"/><path data-name="&lt;矩形&gt;" transform="rotate(180 235.02 261.52)" fill="url(#q)" d="M454.95 359.48h15.08v2.18h-15.08z"/><path data-name="&lt;矩形&gt;" transform="rotate(180 238.915 271.965)" fill="url(#r)" d="M462.75 369.92h7.29v2.18h-7.29z"/><path data-name="&lt;矩形&gt;" transform="rotate(180 238.915 282.405)" fill="url(#s)" d="M462.75 380.37h7.29v2.18h-7.29z"/><path data-name="&lt;矩形&gt;" transform="rotate(180 238.915 292.85)" fill="url(#t)" d="M462.75 390.81h7.29v2.18h-7.29z"/><path data-name="&lt;矩形&gt;" transform="rotate(180 237.95 303.295)" fill="url(#u)" d="M460.81 401.25h9.22v2.18h-9.22z"/><path data-name="&lt;矩形&gt;" transform="rotate(180 235.02 315.315)" fill="url(#v)" d="M454.95 413.27h15.08v2.18h-15.08z"/></g></svg>