<svg preserveAspectRatio="none" id="Layer_1" data-name="Layer 1" xmlns="http://www.w3.org/2000/svg" viewBox="0 0 723.24 38.79"><defs><style>.cls-1{fill:#02a6ff}</style></defs><g id="_编组_" data-name="&lt;编组&gt;"><path id="_路径_" data-name="&lt;路径&gt;" class="cls-1" d="M0 20.08h232.33v4.59H0z"/><path id="_路径_2" data-name="&lt;路径&gt;" class="cls-1" d="M402.43 20.08v.57h-2.58v-.57H261.02v4.59h458.93v-4.59H402.43z"/><g id="_编组_2" data-name="&lt;编组&gt;"><path id="_路径_3" data-name="&lt;路径&gt;" class="cls-1" d="M11.19 22.37l12.33 12.34h150.01l12.34-12.34H11.19z"/></g><g id="_编组_3" data-name="&lt;编组&gt;"><path id="_路径_4" data-name="&lt;路径&gt;" class="cls-1" d="M496.22 0h-10.61v18.36h-2.87V0H465.6v19.5h-2.65V0h-19.51v17.78h-5.73V0h-14.34v15.2h-5.17V0h-15.77v20.65h-2.58V0h-19.8v18.36h-6.31V0h-19.5v18.64h-3.16V0H331v18.36h-5.44V0h-9.9l-22.37 22.37h225.3L496.22 0z"/></g><path id="_路径_5" data-name="&lt;路径&gt;" class="cls-1" d="M533.22 28.97h186.73v3.44H533.22z"/><path id="_矩形_" data-name="&lt;矩形&gt;" class="cls-1" d="M710.06 16.35h12.33v11.19h-12.33z"/><path id="_矩形_2" data-name="&lt;矩形&gt;" class="cls-1" d="M719.37 28.38h.97v4.54h-.97z"/><path id="_矩形_3" data-name="&lt;矩形&gt;" class="cls-1" d="M720.89 28.38h.97v4.54h-.97z"/><path id="_矩形_4" data-name="&lt;矩形&gt;" class="cls-1" d="M722.27 28.38h.97v4.54h-.97z"/><path id="_矩形_5" data-name="&lt;矩形&gt;" class="cls-1" d="M531.07 27.25h31.7v7.6h-31.7z"/><path id="_路径_6" data-name="&lt;路径&gt;" class="cls-1" d="M191.6 32.99h183.29v3.44H191.6z"/><path id="_矩形_6" data-name="&lt;矩形&gt;" class="cls-1" d="M189.96 30.55h8.25v8.25h-8.25z"/><path id="_矩形_7" data-name="&lt;矩形&gt;" class="cls-1" d="M205.87 32.16h16.85v5.02h-16.85z"/><path id="_矩形_8" data-name="&lt;矩形&gt;" class="cls-1" d="M228.32 32.16h16.85v5.02h-16.85z"/><path id="_矩形_9" data-name="&lt;矩形&gt;" class="cls-1" d="M250.76 32.16h16.85v5.02h-16.85z"/><path id="_矩形_10" data-name="&lt;矩形&gt;" class="cls-1" d="M273.21 32.16h16.85v5.02h-16.85z"/><path id="_矩形_11" data-name="&lt;矩形&gt;" class="cls-1" d="M295.65 32.16h16.85v5.02h-16.85z"/><path id="_矩形_12" data-name="&lt;矩形&gt;" class="cls-1" d="M318.1 32.16h16.85v5.02H318.1z"/><path id="_矩形_13" data-name="&lt;矩形&gt;" class="cls-1" d="M340.54 32.16h16.85v5.02h-16.85z"/><path id="_矩形_14" data-name="&lt;矩形&gt;" class="cls-1" d="M367.29 32.16h7.6v5.02h-7.6z"/><path id="_矩形_15" data-name="&lt;矩形&gt;" class="cls-1" d="M535.37 12.62h9.47v4.73h-9.47z"/><path id="_矩形_16" data-name="&lt;矩形&gt;" class="cls-1" d="M555.6 12.62h9.47v4.73h-9.47z"/><path id="_矩形_17" data-name="&lt;矩形&gt;" class="cls-1" d="M575.82 12.62h9.47v4.73h-9.47z"/><path id="_矩形_18" data-name="&lt;矩形&gt;" class="cls-1" d="M596.04 12.62h9.47v4.73h-9.47z"/><path id="_矩形_19" data-name="&lt;矩形&gt;" class="cls-1" d="M616.26 12.62h9.47v4.73h-9.47z"/><path id="_矩形_20" data-name="&lt;矩形&gt;" class="cls-1" d="M636.48 12.62h9.47v4.73h-9.47z"/><path id="_矩形_21" data-name="&lt;矩形&gt;" class="cls-1" d="M656.7 12.62h9.47v4.73h-9.47z"/><path id="_矩形_22" data-name="&lt;矩形&gt;" class="cls-1" d="M676.93 12.62h9.47v4.73h-9.47z"/><path id="_矩形_23" data-name="&lt;矩形&gt;" class="cls-1" d="M697.15 12.62h9.47v4.73h-9.47z"/></g><g id="_编组_4" data-name="&lt;编组&gt;"><path id="_路径_7" data-name="&lt;路径&gt;" class="cls-1" d="M0 20.08h232.33v4.59H0z"/><path id="_路径_8" data-name="&lt;路径&gt;" class="cls-1" d="M402.43 20.08v.57h-2.58v-.57H261.02v4.59h458.93v-4.59H402.43z"/><g id="_编组_5" data-name="&lt;编组&gt;"><path id="_路径_9" data-name="&lt;路径&gt;" class="cls-1" d="M11.19 22.37l12.33 12.34h150.01l12.34-12.34H11.19z"/></g><g id="_编组_6" data-name="&lt;编组&gt;"><path id="_路径_10" data-name="&lt;路径&gt;" class="cls-1" d="M496.22 0h-10.61v18.36h-2.87V0H465.6v19.5h-2.65V0h-19.51v17.78h-5.73V0h-14.34v15.2h-5.17V0h-15.77v20.65h-2.58V0h-19.8v18.36h-6.31V0h-19.5v18.64h-3.16V0H331v18.36h-5.44V0h-9.9l-22.37 22.37h225.3L496.22 0z"/></g><path id="_路径_11" data-name="&lt;路径&gt;" class="cls-1" d="M533.22 28.97h186.73v3.44H533.22z"/><path id="_矩形_24" data-name="&lt;矩形&gt;" class="cls-1" d="M710.06 16.35h12.33v11.19h-12.33z"/><path id="_矩形_25" data-name="&lt;矩形&gt;" class="cls-1" d="M719.37 28.38h.97v4.54h-.97z"/><path id="_矩形_26" data-name="&lt;矩形&gt;" class="cls-1" d="M720.89 28.38h.97v4.54h-.97z"/><path id="_矩形_27" data-name="&lt;矩形&gt;" class="cls-1" d="M722.27 28.38h.97v4.54h-.97z"/><path id="_矩形_28" data-name="&lt;矩形&gt;" class="cls-1" d="M531.07 27.25h31.7v7.6h-31.7z"/><path id="_路径_12" data-name="&lt;路径&gt;" class="cls-1" d="M191.6 32.99h183.29v3.44H191.6z"/><path id="_矩形_29" data-name="&lt;矩形&gt;" class="cls-1" d="M189.96 30.55h8.25v8.25h-8.25z"/><path id="_矩形_30" data-name="&lt;矩形&gt;" class="cls-1" d="M205.87 32.16h16.85v5.02h-16.85z"/><path id="_矩形_31" data-name="&lt;矩形&gt;" class="cls-1" d="M228.32 32.16h16.85v5.02h-16.85z"/><path id="_矩形_32" data-name="&lt;矩形&gt;" class="cls-1" d="M250.76 32.16h16.85v5.02h-16.85z"/><path id="_矩形_33" data-name="&lt;矩形&gt;" class="cls-1" d="M273.21 32.16h16.85v5.02h-16.85z"/><path id="_矩形_34" data-name="&lt;矩形&gt;" class="cls-1" d="M295.65 32.16h16.85v5.02h-16.85z"/><path id="_矩形_35" data-name="&lt;矩形&gt;" class="cls-1" d="M318.1 32.16h16.85v5.02H318.1z"/><path id="_矩形_36" data-name="&lt;矩形&gt;" class="cls-1" d="M340.54 32.16h16.85v5.02h-16.85z"/><path id="_矩形_37" data-name="&lt;矩形&gt;" class="cls-1" d="M367.29 32.16h7.6v5.02h-7.6z"/><path id="_矩形_38" data-name="&lt;矩形&gt;" class="cls-1" d="M535.37 12.62h9.47v4.73h-9.47z"/><path id="_矩形_39" data-name="&lt;矩形&gt;" class="cls-1" d="M555.6 12.62h9.47v4.73h-9.47z"/><path id="_矩形_40" data-name="&lt;矩形&gt;" class="cls-1" d="M575.82 12.62h9.47v4.73h-9.47z"/><path id="_矩形_41" data-name="&lt;矩形&gt;" class="cls-1" d="M596.04 12.62h9.47v4.73h-9.47z"/><path id="_矩形_42" data-name="&lt;矩形&gt;" class="cls-1" d="M616.26 12.62h9.47v4.73h-9.47z"/><path id="_矩形_43" data-name="&lt;矩形&gt;" class="cls-1" d="M636.48 12.62h9.47v4.73h-9.47z"/><path id="_矩形_44" data-name="&lt;矩形&gt;" class="cls-1" d="M656.7 12.62h9.47v4.73h-9.47z"/><path id="_矩形_45" data-name="&lt;矩形&gt;" class="cls-1" d="M676.93 12.62h9.47v4.73h-9.47z"/><path id="_矩形_46" data-name="&lt;矩形&gt;" class="cls-1" d="M697.15 12.62h9.47v4.73h-9.47z"/></g></svg>