<svg preserveAspectRatio="none" id="Layer_1" data-name="Layer 1" xmlns="http://www.w3.org/2000/svg" viewBox="0 0 715.36 32.7"><defs><style>.cls-1{fill:#02a6ff;}</style></defs><title>line4</title><g id="_编组_" data-name="&lt;编组&gt;"><rect id="_矩形_" data-name="&lt;矩形&gt;" class="cls-1" y="11.19" width="713.64" height="4.88"/><g id="_编组_2" data-name="&lt;编组&gt;"><polygon id="_路径_" data-name="&lt;路径&gt;" class="cls-1" points="148.01 0 37 0 25.53 11.47 25.53 13.62 161.49 13.62 161.49 13.48 148.01 0"/></g><rect id="_矩形_2" data-name="&lt;矩形&gt;" class="cls-1" x="165.5" y="16.06" width="79.38" height="1.15"/><rect id="_矩形_3" data-name="&lt;矩形&gt;" class="cls-1" x="25.53" y="17.21" width="132.66" height="1.94"/><g id="_编组_3" data-name="&lt;编组&gt;"><polygon id="_路径_2" data-name="&lt;路径&gt;" class="cls-1" points="268.19 13.62 287.26 32.7 415.91 32.7 434.98 13.62 268.19 13.62"/></g><rect id="_路径_3" data-name="&lt;路径&gt;" class="cls-1" x="259.3" y="5.09" width="211.68" height="3.44"/><path id="_复合路径_" data-name="&lt;复合路径&gt;" class="cls-1" d="M772.1,221.3H593.69V194.91H772.1V221.3Zm-175-3.44H768.66v-19.5H597.13v19.5Z" transform="translate(-56.74 -194.05)"/><rect id="_矩形_4" data-name="&lt;矩形&gt;" class="cls-1" x="437.31" y="18.93" width="4.95" height="2.04"/><rect id="_矩形_5" data-name="&lt;矩形&gt;" class="cls-1" x="446.89" y="18.93" width="4.95" height="2.04"/><rect id="_矩形_6" data-name="&lt;矩形&gt;" class="cls-1" x="456.46" y="18.93" width="4.95" height="2.04"/><rect id="_矩形_7" data-name="&lt;矩形&gt;" class="cls-1" x="466.03" y="18.93" width="4.95" height="2.04"/><rect id="_矩形_8" data-name="&lt;矩形&gt;" class="cls-1" x="475.61" y="18.93" width="4.95" height="2.04"/><rect id="_矩形_9" data-name="&lt;矩形&gt;" class="cls-1" x="485.18" y="18.93" width="4.95" height="2.04"/><rect id="_矩形_10" data-name="&lt;矩形&gt;" class="cls-1" x="494.75" y="18.93" width="4.95" height="2.04"/><rect id="_矩形_11" data-name="&lt;矩形&gt;" class="cls-1" x="504.32" y="18.93" width="4.95" height="2.04"/><rect id="_矩形_12" data-name="&lt;矩形&gt;" class="cls-1" x="513.9" y="18.93" width="4.95" height="2.04"/><rect id="_矩形_13" data-name="&lt;矩形&gt;" class="cls-1" x="523.47" y="18.93" width="4.95" height="2.04"/><rect id="_矩形_14" data-name="&lt;矩形&gt;" class="cls-1" x="287.98" y="1.15" width="3.16" height="8.6"/><rect id="_矩形_15" data-name="&lt;矩形&gt;" class="cls-1" x="300.31" y="1.15" width="3.16" height="8.6"/><rect id="_矩形_16" data-name="&lt;矩形&gt;" class="cls-1" x="312.65" y="1.15" width="3.16" height="8.6"/><rect id="_矩形_17" data-name="&lt;矩形&gt;" class="cls-1" x="324.98" y="1.15" width="3.16" height="8.6"/><rect id="_矩形_18" data-name="&lt;矩形&gt;" class="cls-1" x="337.32" y="1.15" width="3.16" height="8.6"/><rect id="_矩形_19" data-name="&lt;矩形&gt;" class="cls-1" x="349.65" y="1.15" width="3.16" height="8.6"/><rect id="_矩形_20" data-name="&lt;矩形&gt;" class="cls-1" x="361.98" y="1.15" width="3.16" height="8.6"/></g><g id="_编组_4" data-name="&lt;编组&gt;"><rect id="_矩形_21" data-name="&lt;矩形&gt;" class="cls-1" y="11.19" width="713.64" height="4.88"/><g id="_编组_5" data-name="&lt;编组&gt;"><polygon id="_路径_4" data-name="&lt;路径&gt;" class="cls-1" points="148.01 0 37 0 25.53 11.47 25.53 13.62 161.49 13.62 161.49 13.48 148.01 0"/></g><rect id="_矩形_22" data-name="&lt;矩形&gt;" class="cls-1" x="165.5" y="16.06" width="79.38" height="1.15"/><rect id="_矩形_23" data-name="&lt;矩形&gt;" class="cls-1" x="25.53" y="17.21" width="132.66" height="1.94"/><g id="_编组_6" data-name="&lt;编组&gt;"><polygon id="_路径_5" data-name="&lt;路径&gt;" class="cls-1" points="268.19 13.62 287.26 32.7 415.91 32.7 434.98 13.62 268.19 13.62"/></g><rect id="_路径_6" data-name="&lt;路径&gt;" class="cls-1" x="259.3" y="5.09" width="211.68" height="3.44"/><path id="_复合路径_2" data-name="&lt;复合路径&gt;" class="cls-1" d="M772.1,221.3H593.69V194.91H772.1V221.3Zm-175-3.44H768.66v-19.5H597.13v19.5Z" transform="translate(-56.74 -194.05)"/><rect id="_矩形_24" data-name="&lt;矩形&gt;" class="cls-1" x="437.31" y="18.93" width="4.95" height="2.04"/><rect id="_矩形_25" data-name="&lt;矩形&gt;" class="cls-1" x="446.89" y="18.93" width="4.95" height="2.04"/><rect id="_矩形_26" data-name="&lt;矩形&gt;" class="cls-1" x="456.46" y="18.93" width="4.95" height="2.04"/><rect id="_矩形_27" data-name="&lt;矩形&gt;" class="cls-1" x="466.03" y="18.93" width="4.95" height="2.04"/><rect id="_矩形_28" data-name="&lt;矩形&gt;" class="cls-1" x="475.61" y="18.93" width="4.95" height="2.04"/><rect id="_矩形_29" data-name="&lt;矩形&gt;" class="cls-1" x="485.18" y="18.93" width="4.95" height="2.04"/><rect id="_矩形_30" data-name="&lt;矩形&gt;" class="cls-1" x="494.75" y="18.93" width="4.95" height="2.04"/><rect id="_矩形_31" data-name="&lt;矩形&gt;" class="cls-1" x="504.32" y="18.93" width="4.95" height="2.04"/><rect id="_矩形_32" data-name="&lt;矩形&gt;" class="cls-1" x="513.9" y="18.93" width="4.95" height="2.04"/><rect id="_矩形_33" data-name="&lt;矩形&gt;" class="cls-1" x="523.47" y="18.93" width="4.95" height="2.04"/><rect id="_矩形_34" data-name="&lt;矩形&gt;" class="cls-1" x="287.98" y="1.15" width="3.16" height="8.6"/><rect id="_矩形_35" data-name="&lt;矩形&gt;" class="cls-1" x="300.31" y="1.15" width="3.16" height="8.6"/><rect id="_矩形_36" data-name="&lt;矩形&gt;" class="cls-1" x="312.65" y="1.15" width="3.16" height="8.6"/><rect id="_矩形_37" data-name="&lt;矩形&gt;" class="cls-1" x="324.98" y="1.15" width="3.16" height="8.6"/><rect id="_矩形_38" data-name="&lt;矩形&gt;" class="cls-1" x="337.32" y="1.15" width="3.16" height="8.6"/><rect id="_矩形_39" data-name="&lt;矩形&gt;" class="cls-1" x="349.65" y="1.15" width="3.16" height="8.6"/><rect id="_矩形_40" data-name="&lt;矩形&gt;" class="cls-1" x="361.98" y="1.15" width="3.16" height="8.6"/></g></svg>