<svg preserveAspectRatio="none" id="Layer_1" data-name="Layer 1" xmlns="http://www.w3.org/2000/svg" viewBox="0 0 715.26 65.2"><defs><style>.cls-1{fill:#02a6ff}</style></defs><g id="_编组_" data-name="&lt;编组&gt;"><g id="_编组_2" data-name="&lt;编组&gt;"><path id="_路径_" data-name="&lt;路径&gt;" class="cls-1" d="M264.54 22.34l-14.2 14.2h35.28l14.2-14.2h-35.28z"/></g><g id="_编组_3" data-name="&lt;编组&gt;"><path id="_路径_2" data-name="&lt;路径&gt;" class="cls-1" d="M307.78 22.34l-14.2 14.2h35.28l14.2-14.2h-35.28z"/></g><g id="_编组_4" data-name="&lt;编组&gt;"><path id="_路径_3" data-name="&lt;路径&gt;" class="cls-1" d="M351.02 22.34l-14.2 14.2h35.28l14.2-14.2h-35.28z"/></g><g id="_编组_5" data-name="&lt;编组&gt;"><path id="_路径_4" data-name="&lt;路径&gt;" class="cls-1" d="M394.26 22.34l-14.2 14.2h35.28l14.2-14.2h-35.28z"/></g><g id="_编组_6" data-name="&lt;编组&gt;"><path id="_路径_5" data-name="&lt;路径&gt;" class="cls-1" d="M437.5 22.34l-14.2 14.2h35.28l14.2-14.2H437.5z"/></g><g id="_编组_7" data-name="&lt;编组&gt;"><path id="_路径_6" data-name="&lt;路径&gt;" class="cls-1" d="M480.74 22.34l-14.2 14.2h35.28l14.2-14.2h-35.28z"/></g><g id="_编组_8" data-name="&lt;编组&gt;"><path id="_路径_7" data-name="&lt;路径&gt;" class="cls-1" d="M523.98 22.34l-14.2 14.2h35.28l14.2-14.2h-35.28z"/></g><g id="_编组_9" data-name="&lt;编组&gt;"><path id="_路径_8" data-name="&lt;路径&gt;" class="cls-1" d="M567.22 22.34l-14.2 14.2h35.28l14.2-14.2h-35.28z"/></g><g id="_编组_10" data-name="&lt;编组&gt;"><path id="_路径_9" data-name="&lt;路径&gt;" class="cls-1" d="M610.46 22.34l-14.2 14.2h35.28l14.2-14.2h-35.28z"/></g><path id="_复合路径_" data-name="&lt;复合路径&gt;" class="cls-1" d="M278.64 624.48H90v-4.73H67.39v4.73H55.12v-65.2h129.16v6.17h78.94v-6.17h15.43v65.2zm-185.43-3.24H275.4v-58.71h-9v6.17H181v-6.17H58.36v58.72h5.79v-4.73h29.06v4.73z" transform="translate(-55.12 -559.29)"/><path id="_矩形_" data-name="&lt;矩形&gt;" class="cls-1" d="M33.53 26.29h681.73v6.31H33.53z"/><path id="_矩形_2" data-name="&lt;矩形&gt;" class="cls-1" d="M31.31 19.26h21.8v20.37h-21.8z"/><circle id="_路径_10" data-name="&lt;路径&gt;" class="cls-1" cx="65.37" cy="22.79" r="2.53"/><circle id="_路径_11" data-name="&lt;路径&gt;" class="cls-1" cx="79.03" cy="22.79" r="2.53"/><circle id="_路径_12" data-name="&lt;路径&gt;" class="cls-1" cx="92.69" cy="22.79" r="2.53"/><circle id="_路径_13" data-name="&lt;路径&gt;" class="cls-1" cx="106.35" cy="22.79" r="2.53"/><circle id="_路径_14" data-name="&lt;路径&gt;" class="cls-1" cx="120.01" cy="22.79" r="2.53"/><circle id="_路径_15" data-name="&lt;路径&gt;" class="cls-1" cx="133.67" cy="22.79" r="2.53"/><circle id="_路径_16" data-name="&lt;路径&gt;" class="cls-1" cx="147.33" cy="22.79" r="2.53"/><path id="_矩形_3" data-name="&lt;矩形&gt;" class="cls-1" d="M695.68 17.68h19.58v21.51h-19.58z"/></g><g id="_编组_11" data-name="&lt;编组&gt;"><g id="_编组_12" data-name="&lt;编组&gt;"><path id="_路径_17" data-name="&lt;路径&gt;" class="cls-1" d="M264.54 22.34l-14.2 14.2h35.28l14.2-14.2h-35.28z"/></g><g id="_编组_13" data-name="&lt;编组&gt;"><path id="_路径_18" data-name="&lt;路径&gt;" class="cls-1" d="M307.78 22.34l-14.2 14.2h35.28l14.2-14.2h-35.28z"/></g><g id="_编组_14" data-name="&lt;编组&gt;"><path id="_路径_19" data-name="&lt;路径&gt;" class="cls-1" d="M351.02 22.34l-14.2 14.2h35.28l14.2-14.2h-35.28z"/></g><g id="_编组_15" data-name="&lt;编组&gt;"><path id="_路径_20" data-name="&lt;路径&gt;" class="cls-1" d="M394.26 22.34l-14.2 14.2h35.28l14.2-14.2h-35.28z"/></g><g id="_编组_16" data-name="&lt;编组&gt;"><path id="_路径_21" data-name="&lt;路径&gt;" class="cls-1" d="M437.5 22.34l-14.2 14.2h35.28l14.2-14.2H437.5z"/></g><g id="_编组_17" data-name="&lt;编组&gt;"><path id="_路径_22" data-name="&lt;路径&gt;" class="cls-1" d="M480.74 22.34l-14.2 14.2h35.28l14.2-14.2h-35.28z"/></g><g id="_编组_18" data-name="&lt;编组&gt;"><path id="_路径_23" data-name="&lt;路径&gt;" class="cls-1" d="M523.98 22.34l-14.2 14.2h35.28l14.2-14.2h-35.28z"/></g><g id="_编组_19" data-name="&lt;编组&gt;"><path id="_路径_24" data-name="&lt;路径&gt;" class="cls-1" d="M567.22 22.34l-14.2 14.2h35.28l14.2-14.2h-35.28z"/></g><g id="_编组_20" data-name="&lt;编组&gt;"><path id="_路径_25" data-name="&lt;路径&gt;" class="cls-1" d="M610.46 22.34l-14.2 14.2h35.28l14.2-14.2h-35.28z"/></g><path id="_复合路径_2" data-name="&lt;复合路径&gt;" class="cls-1" d="M278.64 624.48H90v-4.73H67.39v4.73H55.12v-65.2h129.16v6.17h78.94v-6.17h15.43v65.2zm-185.43-3.24H275.4v-58.71h-9v6.17H181v-6.17H58.36v58.72h5.79v-4.73h29.06v4.73z" transform="translate(-55.12 -559.29)"/><path id="_矩形_4" data-name="&lt;矩形&gt;" class="cls-1" d="M33.53 26.29h681.73v6.31H33.53z"/><path id="_矩形_5" data-name="&lt;矩形&gt;" class="cls-1" d="M31.31 19.26h21.8v20.37h-21.8z"/><circle id="_路径_26" data-name="&lt;路径&gt;" class="cls-1" cx="65.37" cy="22.79" r="2.53"/><circle id="_路径_27" data-name="&lt;路径&gt;" class="cls-1" cx="79.03" cy="22.79" r="2.53"/><circle id="_路径_28" data-name="&lt;路径&gt;" class="cls-1" cx="92.69" cy="22.79" r="2.53"/><circle id="_路径_29" data-name="&lt;路径&gt;" class="cls-1" cx="106.35" cy="22.79" r="2.53"/><circle id="_路径_30" data-name="&lt;路径&gt;" class="cls-1" cx="120.01" cy="22.79" r="2.53"/><circle id="_路径_31" data-name="&lt;路径&gt;" class="cls-1" cx="133.67" cy="22.79" r="2.53"/><circle id="_路径_32" data-name="&lt;路径&gt;" class="cls-1" cx="147.33" cy="22.79" r="2.53"/><path id="_矩形_6" data-name="&lt;矩形&gt;" class="cls-1" d="M695.68 17.68h19.58v21.51h-19.58z"/></g></svg>