<svg preserveAspectRatio="none" id="Layer_1" data-name="Layer 1" xmlns="http://www.w3.org/2000/svg" viewBox="0 0 713.64 55.15"><defs><style>.cls-1{fill:#02a6ff;}</style></defs><title>line5</title><g id="_编组_" data-name="&lt;编组&gt;"><rect id="_矩形_" data-name="&lt;矩形&gt;" class="cls-1" y="34.96" width="713.64" height="2.72"/><g id="_编组_2" data-name="&lt;编组&gt;"><polygon id="_路径_" data-name="&lt;路径&gt;" class="cls-1" points="686.11 11.72 524.76 11.72 501.53 34.96 709.34 34.96 686.11 11.72"/></g><g id="_编组_3" data-name="&lt;编组&gt;"><polygon id="_路径_2" data-name="&lt;路径&gt;" class="cls-1" points="14.77 37.68 25.96 48.87 155.89 48.87 167.08 37.68 14.77 37.68"/></g><polygon id="_路径_3" data-name="&lt;路径&gt;" class="cls-1" points="167.15 50.09 164.72 47.65 172.5 39.87 293.07 39.87 293.07 43.31 173.92 43.31 167.15 50.09"/><polygon id="_路径_4" data-name="&lt;路径&gt;" class="cls-1" points="497.94 31.95 303.47 31.95 303.47 28.5 496.51 28.5 521.97 3.05 555.31 3.05 555.31 6.49 523.39 6.49 497.94 31.95"/><rect id="_矩形_2" data-name="&lt;矩形&gt;" class="cls-1" x="548.86" width="13.55" height="9.14"/><rect id="_矩形_3" data-name="&lt;矩形&gt;" class="cls-1" x="302.75" y="25.55" width="12.26" height="8.82"/><rect id="_矩形_4" data-name="&lt;矩形&gt;" class="cls-1" x="290.92" y="38.55" width="3" height="5.83"/><rect id="_矩形_5" data-name="&lt;矩形&gt;" class="cls-1" x="162.87" y="47.22" width="6.99" height="3.71"/><rect id="_矩形_6" data-name="&lt;矩形&gt;" class="cls-1" x="14.77" y="30.44" width="14.34" height="2.8"/><rect id="_矩形_7" data-name="&lt;矩形&gt;" class="cls-1" x="34.56" y="30.44" width="14.34" height="2.8"/><rect id="_矩形_8" data-name="&lt;矩形&gt;" class="cls-1" x="54.35" y="30.44" width="14.34" height="2.8"/><rect id="_矩形_9" data-name="&lt;矩形&gt;" class="cls-1" x="74.15" y="30.44" width="14.34" height="2.8"/><rect id="_矩形_10" data-name="&lt;矩形&gt;" class="cls-1" x="93.94" y="30.44" width="14.34" height="2.8"/><rect id="_矩形_11" data-name="&lt;矩形&gt;" class="cls-1" x="113.73" y="30.44" width="14.34" height="2.8"/><rect id="_矩形_12" data-name="&lt;矩形&gt;" class="cls-1" x="133.52" y="30.44" width="14.34" height="2.8"/><rect id="_矩形_13" data-name="&lt;矩形&gt;" class="cls-1" x="153.31" y="30.44" width="14.34" height="2.8"/><g id="_编组_4" data-name="&lt;编组&gt;"><polygon id="_路径_5" data-name="&lt;路径&gt;" class="cls-1" points="316.02 40.95 301.82 55.15 337.1 55.15 351.3 40.95 316.02 40.95"/></g><g id="_编组_5" data-name="&lt;编组&gt;"><polygon id="_路径_6" data-name="&lt;路径&gt;" class="cls-1" points="363.13 40.95 348.93 55.15 384.21 55.15 398.41 40.95 363.13 40.95"/></g><g id="_编组_6" data-name="&lt;编组&gt;"><polygon id="_路径_7" data-name="&lt;路径&gt;" class="cls-1" points="410.24 40.95 396.05 55.15 431.32 55.15 445.52 40.95 410.24 40.95"/></g><g id="_编组_7" data-name="&lt;编组&gt;"><polygon id="_路径_8" data-name="&lt;路径&gt;" class="cls-1" points="457.36 40.95 443.16 55.15 478.44 55.15 492.64 40.95 457.36 40.95"/></g><g id="_编组_8" data-name="&lt;编组&gt;"><polygon id="_路径_9" data-name="&lt;路径&gt;" class="cls-1" points="508.5 45.23 514.15 50.88 531.43 50.88 531.43 45.23 508.5 45.23"/><polygon id="_路径_10" data-name="&lt;路径&gt;" class="cls-1" points="701.76 45.23 557.25 45.23 557.25 50.88 696.11 50.88 701.76 45.23"/></g></g><g id="_编组_9" data-name="&lt;编组&gt;"><rect id="_矩形_14" data-name="&lt;矩形&gt;" class="cls-1" y="34.96" width="713.64" height="2.72"/><g id="_编组_10" data-name="&lt;编组&gt;"><polygon id="_路径_11" data-name="&lt;路径&gt;" class="cls-1" points="686.11 11.72 524.76 11.72 501.53 34.96 709.34 34.96 686.11 11.72"/></g><g id="_编组_11" data-name="&lt;编组&gt;"><polygon id="_路径_12" data-name="&lt;路径&gt;" class="cls-1" points="14.77 37.68 25.96 48.87 155.89 48.87 167.08 37.68 14.77 37.68"/></g><polygon id="_路径_13" data-name="&lt;路径&gt;" class="cls-1" points="167.15 50.09 164.72 47.65 172.5 39.87 293.07 39.87 293.07 43.31 173.92 43.31 167.15 50.09"/><polygon id="_路径_14" data-name="&lt;路径&gt;" class="cls-1" points="497.94 31.95 303.47 31.95 303.47 28.5 496.51 28.5 521.97 3.05 555.31 3.05 555.31 6.49 523.39 6.49 497.94 31.95"/><rect id="_矩形_15" data-name="&lt;矩形&gt;" class="cls-1" x="548.86" width="13.55" height="9.14"/><rect id="_矩形_16" data-name="&lt;矩形&gt;" class="cls-1" x="302.75" y="25.55" width="12.26" height="8.82"/><rect id="_矩形_17" data-name="&lt;矩形&gt;" class="cls-1" x="290.92" y="38.55" width="3" height="5.83"/><rect id="_矩形_18" data-name="&lt;矩形&gt;" class="cls-1" x="162.87" y="47.22" width="6.99" height="3.71"/><rect id="_矩形_19" data-name="&lt;矩形&gt;" class="cls-1" x="14.77" y="30.44" width="14.34" height="2.8"/><rect id="_矩形_20" data-name="&lt;矩形&gt;" class="cls-1" x="34.56" y="30.44" width="14.34" height="2.8"/><rect id="_矩形_21" data-name="&lt;矩形&gt;" class="cls-1" x="54.35" y="30.44" width="14.34" height="2.8"/><rect id="_矩形_22" data-name="&lt;矩形&gt;" class="cls-1" x="74.15" y="30.44" width="14.34" height="2.8"/><rect id="_矩形_23" data-name="&lt;矩形&gt;" class="cls-1" x="93.94" y="30.44" width="14.34" height="2.8"/><rect id="_矩形_24" data-name="&lt;矩形&gt;" class="cls-1" x="113.73" y="30.44" width="14.34" height="2.8"/><rect id="_矩形_25" data-name="&lt;矩形&gt;" class="cls-1" x="133.52" y="30.44" width="14.34" height="2.8"/><rect id="_矩形_26" data-name="&lt;矩形&gt;" class="cls-1" x="153.31" y="30.44" width="14.34" height="2.8"/><g id="_编组_12" data-name="&lt;编组&gt;"><polygon id="_路径_15" data-name="&lt;路径&gt;" class="cls-1" points="316.02 40.95 301.82 55.15 337.1 55.15 351.3 40.95 316.02 40.95"/></g><g id="_编组_13" data-name="&lt;编组&gt;"><polygon id="_路径_16" data-name="&lt;路径&gt;" class="cls-1" points="363.13 40.95 348.93 55.15 384.21 55.15 398.41 40.95 363.13 40.95"/></g><g id="_编组_14" data-name="&lt;编组&gt;"><polygon id="_路径_17" data-name="&lt;路径&gt;" class="cls-1" points="410.24 40.95 396.05 55.15 431.32 55.15 445.52 40.95 410.24 40.95"/></g><g id="_编组_15" data-name="&lt;编组&gt;"><polygon id="_路径_18" data-name="&lt;路径&gt;" class="cls-1" points="457.36 40.95 443.16 55.15 478.44 55.15 492.64 40.95 457.36 40.95"/></g><g id="_编组_16" data-name="&lt;编组&gt;"><polygon id="_路径_19" data-name="&lt;路径&gt;" class="cls-1" points="508.5 45.23 514.15 50.88 531.43 50.88 531.43 45.23 508.5 45.23"/><polygon id="_路径_20" data-name="&lt;路径&gt;" class="cls-1" points="701.76 45.23 557.25 45.23 557.25 50.88 696.11 50.88 701.76 45.23"/></g></g></svg>