<svg preserveAspectRatio="none" id="Layer_1" data-name="Layer 1" xmlns="http://www.w3.org/2000/svg" viewBox="0 0 443.18 44.71"><defs><style>.cls-1{fill:#0ff}</style></defs><path id="_路径_" data-name="&lt;路径&gt;" class="cls-1" d="M0 27.37h443.18v1H0z"/><path id="_路径_2" data-name="&lt;路径&gt;" class="cls-1" d="M17.96 27.86l14.62-14.61h136.59l14.58 14.58-165.79.03z"/><path id="_路径_3" data-name="&lt;路径&gt;" class="cls-1" d="M205.38 28.2l3.34 3.35h89.97l-3.54-3.54-89.77.19z"/><path id="_路径_4" data-name="&lt;路径&gt;" class="cls-1" d="M300.21 28.01l3.4 3.4h6.14l-3.01-3.01-6.53-.39z"/><path id="_路径_5" data-name="&lt;路径&gt;" class="cls-1" d="M310.43 28.01l3.21 3.22h7.85l-3.69-3.22h-7.37z"/><path id="_路径_6" data-name="&lt;路径&gt;" class="cls-1" d="M324 24.62h119.17v1H324z"/><path id="_路径_7" data-name="&lt;路径&gt;" class="cls-1" d="M182.23 24.63l-13.26-13.26H95.21v-1h74.17l13.56 13.56-.71.7z"/><path id="_路径_8" data-name="&lt;路径&gt;" class="cls-1" d="M6.71 28.36l3.94 3.94h99.98l7.36-3.94H6.71z"/><path id="_路径_9" data-name="&lt;路径&gt;" class="cls-1" d="M442.5 25.11l-4.51-4.5h-37.61l4.96 4.96 37.16-.46z"/><path id="_路径_10" data-name="&lt;路径&gt;" class="cls-1" d="M113.6 35.03H28.61v-1h84.72l8.22-4.91h53.25v1h-52.97l-8.23 4.91z"/><path id="_复合路径_" data-name="&lt;复合路径&gt;" class="cls-1" d="M720.93 561.66h-63.45l-8.07-8.07h-35.13v-1h34.12l63.6.18zm-63-1h60.62l-6.89-6.89-60.79-.17z" transform="translate(-425.54 -539.23)"/><path id="_路径_11" data-name="&lt;路径&gt;" class="cls-1" d="M412.67 35.37h-16.42l-3.33-3.32h-56.79v-1h57.21l3.32 3.32h15.6l3.32-3.32h27.26v1H416l-3.33 3.32z"/><path id="_路径_12" data-name="&lt;路径&gt;" class="cls-1" d="M214.55 30.95l2.04 2.04h33.54l2.42-2.04h-38z"/><path id="_路径_13" data-name="&lt;路径&gt;" class="cls-1" d="M279.55 27.53l2.66-2.67h26.84l3 3-32.5-.33z"/><path id="_路径_14" data-name="&lt;路径&gt;" class="cls-1" d="M400.38 20.61l4.46-3.12h20.62l3.88 3.62-28.96-.5z"/><path id="_复合路径_2" data-name="&lt;复合路径&gt;" class="cls-1" d="M754.11 564.7l-.71-.7 9.21-9.21h53.62l-4.7 4.7h-52.21zm6.22-6.22h50.8l2.7-2.7H763z" transform="translate(-425.54 -539.23)"/><path id="_复合路径_3" data-name="&lt;复合路径&gt;" class="cls-1" d="M593.88 583.94h-44.59l-5.29-5.32h65.65l11.54-11.54.71.71-11.9 11.83h-11.8zm-44.18-1h43.76l3.32-3.32h-50.4z" transform="translate(-425.54 -539.23)"/><path id="_复合路径_4" data-name="&lt;复合路径&gt;" class="cls-1" d="M787.86 555.64l-.71-.71 15.75-15.7h55.9l6 6h-66.53zm11.42-11.4h63.11l-4-4h-55.08z" transform="translate(-425.54 -539.23)"/></svg>