<svg preserveAspectRatio="none" id="Layer_1" data-name="Layer 1" xmlns="http://www.w3.org/2000/svg" viewBox="0 0 713.64 49.2"><defs><style>.cls-1{fill:#02a6ff}</style></defs><g id="_编组_" data-name="&lt;编组&gt;"><path id="_矩形_" data-name="&lt;矩形&gt;" class="cls-1" d="M0 19.64h320.48v7.72H0z"/><path id="_复合路径_" data-name="&lt;复合路径&gt;" class="cls-1" d="M547.59 80.68H244v-49.2h303.59v49.2zm-300.31-3.31h297V34.79h-297v42.58z" transform="translate(-56.74 -31.48)"/><path id="_矩形_2" data-name="&lt;矩形&gt;" class="cls-1" d="M315.83 16.86h12.87v14.77h-12.87z"/><path id="_矩形_3" data-name="&lt;矩形&gt;" class="cls-1" d="M437.74 19.64h275.91v7.72H437.74z"/><path id="_矩形_4" data-name="&lt;矩形&gt;" class="cls-1" d="M628.74 3.95h84.9v37.86h-84.9z"/><path id="_矩形_5" data-name="&lt;矩形&gt;" class="cls-1" d="M5.16 5.67h13.48v9.18H5.16z"/><path id="_矩形_6" data-name="&lt;矩形&gt;" class="cls-1" d="M26.1 5.67h13.48v9.18H26.1z"/><path id="_矩形_7" data-name="&lt;矩形&gt;" class="cls-1" d="M47.04 5.67h13.48v9.18H47.04z"/><path id="_矩形_8" data-name="&lt;矩形&gt;" class="cls-1" d="M67.98 5.67h13.48v9.18H67.98z"/><path id="_矩形_9" data-name="&lt;矩形&gt;" class="cls-1" d="M88.92 5.67h13.48v9.18H88.92z"/><path id="_矩形_10" data-name="&lt;矩形&gt;" class="cls-1" d="M109.86 5.67h13.48v9.18h-13.48z"/></g><g id="_编组_2" data-name="&lt;编组&gt;"><path id="_矩形_11" data-name="&lt;矩形&gt;" class="cls-1" d="M0 19.64h320.48v7.72H0z"/><path id="_复合路径_2" data-name="&lt;复合路径&gt;" class="cls-1" d="M547.59 80.68H244v-49.2h303.59v49.2zm-300.31-3.31h297V34.79h-297v42.58z" transform="translate(-56.74 -31.48)"/><path id="_矩形_12" data-name="&lt;矩形&gt;" class="cls-1" d="M315.83 16.86h12.87v14.77h-12.87z"/><path id="_矩形_13" data-name="&lt;矩形&gt;" class="cls-1" d="M437.74 19.64h275.91v7.72H437.74z"/><path id="_矩形_14" data-name="&lt;矩形&gt;" class="cls-1" d="M628.74 3.95h84.9v37.86h-84.9z"/><path id="_矩形_15" data-name="&lt;矩形&gt;" class="cls-1" d="M5.16 5.67h13.48v9.18H5.16z"/><path id="_矩形_16" data-name="&lt;矩形&gt;" class="cls-1" d="M26.1 5.67h13.48v9.18H26.1z"/><path id="_矩形_17" data-name="&lt;矩形&gt;" class="cls-1" d="M47.04 5.67h13.48v9.18H47.04z"/><path id="_矩形_18" data-name="&lt;矩形&gt;" class="cls-1" d="M67.98 5.67h13.48v9.18H67.98z"/><path id="_矩形_19" data-name="&lt;矩形&gt;" class="cls-1" d="M88.92 5.67h13.48v9.18H88.92z"/><path id="_矩形_20" data-name="&lt;矩形&gt;" class="cls-1" d="M109.86 5.67h13.48v9.18h-13.48z"/></g></svg>