<svg preserveAspectRatio="none" id="Layer_1" data-name="Layer 1" xmlns="http://www.w3.org/2000/svg" viewBox="0 0 726.69 55.36"><defs><style>.cls-1{fill:#02a6ff;}</style></defs><title>line10</title><g id="_编组_" data-name="&lt;编组&gt;"><rect id="_矩形_" data-name="&lt;矩形&gt;" class="cls-1" y="17.78" width="724.16" height="8.03"/><g id="_编组_2" data-name="&lt;编组&gt;"><polygon id="_路径_" data-name="&lt;路径&gt;" class="cls-1" points="22.37 21.8 22.37 26.1 51.63 55.36 148.58 55.36 182.14 21.8 22.37 21.8"/></g><g id="_编组_3" data-name="&lt;编组&gt;"><polygon id="_路径_2" data-name="&lt;路径&gt;" class="cls-1" points="400.99 0 245.24 0 223.44 21.8 422.79 21.8 400.99 0"/></g><rect id="_矩形_2" data-name="&lt;矩形&gt;" class="cls-1" x="182.14" y="32.7" width="432.26" height="5.88"/><rect id="_矩形_3" data-name="&lt;矩形&gt;" class="cls-1" x="448.61" y="6.88" width="8.89" height="8.03"/><rect id="_矩形_4" data-name="&lt;矩形&gt;" class="cls-1" x="468.11" y="6.88" width="8.89" height="8.03"/><rect id="_矩形_5" data-name="&lt;矩形&gt;" class="cls-1" x="487.62" y="6.88" width="8.89" height="8.03"/><rect id="_矩形_6" data-name="&lt;矩形&gt;" class="cls-1" x="507.12" y="6.88" width="8.89" height="8.03"/><rect id="_矩形_7" data-name="&lt;矩形&gt;" class="cls-1" x="526.63" y="6.88" width="8.89" height="8.03"/><rect id="_矩形_8" data-name="&lt;矩形&gt;" class="cls-1" x="546.13" y="6.88" width="8.89" height="8.03"/><rect id="_矩形_9" data-name="&lt;矩形&gt;" class="cls-1" x="565.64" y="6.88" width="8.89" height="8.03"/><rect id="_矩形_10" data-name="&lt;矩形&gt;" class="cls-1" x="585.14" y="6.88" width="8.89" height="8.03"/><rect id="_矩形_11" data-name="&lt;矩形&gt;" class="cls-1" x="604.64" y="6.88" width="8.89" height="8.03"/><rect id="_矩形_12" data-name="&lt;矩形&gt;" class="cls-1" x="624.15" y="6.88" width="8.89" height="8.03"/><rect id="_矩形_13" data-name="&lt;矩形&gt;" class="cls-1" x="720.02" y="4.3" width="6.67" height="33.34"/><rect id="_矩形_14" data-name="&lt;矩形&gt;" class="cls-1" x="589.59" y="41.95" width="57.51" height="4.09"/><rect id="_矩形_15" data-name="&lt;矩形&gt;" class="cls-1" x="612.25" y="29.9" width="3.01" height="11.04"/><rect id="_矩形_16" data-name="&lt;矩形&gt;" class="cls-1" x="646.24" y="40.3" width="2.01" height="6.96"/><rect id="_矩形_17" data-name="&lt;矩形&gt;" class="cls-1" x="588.87" y="40.95" width="2.72" height="7.03"/></g><g id="_编组_4" data-name="&lt;编组&gt;"><rect id="_矩形_18" data-name="&lt;矩形&gt;" class="cls-1" y="17.78" width="724.16" height="8.03"/><g id="_编组_5" data-name="&lt;编组&gt;"><polygon id="_路径_3" data-name="&lt;路径&gt;" class="cls-1" points="22.37 21.8 22.37 26.1 51.63 55.36 148.58 55.36 182.14 21.8 22.37 21.8"/></g><g id="_编组_6" data-name="&lt;编组&gt;"><polygon id="_路径_4" data-name="&lt;路径&gt;" class="cls-1" points="400.99 0 245.24 0 223.44 21.8 422.79 21.8 400.99 0"/></g><rect id="_矩形_19" data-name="&lt;矩形&gt;" class="cls-1" x="182.14" y="32.7" width="432.26" height="5.88"/><rect id="_矩形_20" data-name="&lt;矩形&gt;" class="cls-1" x="448.61" y="6.88" width="8.89" height="8.03"/><rect id="_矩形_21" data-name="&lt;矩形&gt;" class="cls-1" x="468.11" y="6.88" width="8.89" height="8.03"/><rect id="_矩形_22" data-name="&lt;矩形&gt;" class="cls-1" x="487.62" y="6.88" width="8.89" height="8.03"/><rect id="_矩形_23" data-name="&lt;矩形&gt;" class="cls-1" x="507.12" y="6.88" width="8.89" height="8.03"/><rect id="_矩形_24" data-name="&lt;矩形&gt;" class="cls-1" x="526.63" y="6.88" width="8.89" height="8.03"/><rect id="_矩形_25" data-name="&lt;矩形&gt;" class="cls-1" x="546.13" y="6.88" width="8.89" height="8.03"/><rect id="_矩形_26" data-name="&lt;矩形&gt;" class="cls-1" x="565.64" y="6.88" width="8.89" height="8.03"/><rect id="_矩形_27" data-name="&lt;矩形&gt;" class="cls-1" x="585.14" y="6.88" width="8.89" height="8.03"/><rect id="_矩形_28" data-name="&lt;矩形&gt;" class="cls-1" x="604.64" y="6.88" width="8.89" height="8.03"/><rect id="_矩形_29" data-name="&lt;矩形&gt;" class="cls-1" x="624.15" y="6.88" width="8.89" height="8.03"/><rect id="_矩形_30" data-name="&lt;矩形&gt;" class="cls-1" x="720.02" y="4.3" width="6.67" height="33.34"/><rect id="_矩形_31" data-name="&lt;矩形&gt;" class="cls-1" x="589.59" y="41.95" width="57.51" height="4.09"/><rect id="_矩形_32" data-name="&lt;矩形&gt;" class="cls-1" x="612.25" y="29.9" width="3.01" height="11.04"/><rect id="_矩形_33" data-name="&lt;矩形&gt;" class="cls-1" x="646.24" y="40.3" width="2.01" height="6.96"/><rect id="_矩形_34" data-name="&lt;矩形&gt;" class="cls-1" x="588.87" y="40.95" width="2.72" height="7.03"/></g></svg>