<svg preserveAspectRatio="none" xmlns="http://www.w3.org/2000/svg" viewBox="0 0 114.31 19.94"><defs><style>.cls-1{isolation:isolate;}.cls-2{mix-blend-mode:overlay;}.cls-3{fill:aqua;}</style></defs><title>line12</title><g class="cls-1"><g id="Layer_1" data-name="Layer 1"><g class="cls-2"><path class="cls-3" d="M252.78,507.26H227.15a0.6,0.6,0,0,1,0-1.21h25.12L264.36,494h55.83a0.6,0.6,0,1,1,0,1.21H264.86Z" transform="translate(-206.48 -493.16)"/></g><g class="cls-2"><path class="cls-3" d="M229.44,513.1h-23V508l6.4-6.4h34.69a0.6,0.6,0,0,1,0,1.21H213.38l-5.69,5.69v3.37h21.75A0.6,0.6,0,1,1,229.44,513.1Z" transform="translate(-206.48 -493.16)"/></g><g class="cls-2"><path class="cls-3" d="M260.55,508.57a0.6,0.6,0,0,1-.43-1l7.55-7.55a0.6,0.6,0,0,1,.85.85L261,508.39A0.6,0.6,0,0,1,260.55,508.57Z" transform="translate(-206.48 -493.16)"/></g><g class="cls-2"><path class="cls-3" d="M266,508.57a0.6,0.6,0,0,1-.43-1l7.55-7.55a0.6,0.6,0,1,1,.85.85l-7.55,7.55A0.6,0.6,0,0,1,266,508.57Z" transform="translate(-206.48 -493.16)"/></g><g class="cls-2"><path class="cls-3" d="M271.43,508.57a0.6,0.6,0,0,1-.43-1l7.55-7.55a0.6,0.6,0,1,1,.85.85l-7.55,7.55A0.6,0.6,0,0,1,271.43,508.57Z" transform="translate(-206.48 -493.16)"/></g><g class="cls-2"><path class="cls-3" d="M276.86,508.57a0.6,0.6,0,0,1-.43-1L284,500a0.6,0.6,0,0,1,.85.85l-7.55,7.55A0.6,0.6,0,0,1,276.86,508.57Z" transform="translate(-206.48 -493.16)"/></g><g class="cls-2"><path class="cls-3" d="M282.3,508.57a0.6,0.6,0,0,1-.43-1l7.55-7.55a0.6,0.6,0,1,1,.85.85l-7.55,7.55A0.6,0.6,0,0,1,282.3,508.57Z" transform="translate(-206.48 -493.16)"/></g><g class="cls-2"><path class="cls-3" d="M247.56,498h-14.1v-4.83h14.1V498Zm-12.89-1.21h11.68v-2.42H234.67v2.42Z" transform="translate(-206.48 -493.16)"/></g><g class="cls-2"><path class="cls-3" d="M230.65,498H223.4v-4.83h7.25V498Zm-6-1.21h4.83v-2.42h-4.83v2.42Z" transform="translate(-206.48 -493.16)"/></g><g class="cls-2"><path class="cls-3" d="M252.78,507.26H227.15a0.6,0.6,0,0,1,0-1.21h25.12L264.36,494h55.83a0.6,0.6,0,1,1,0,1.21H264.86Z" transform="translate(-206.48 -493.16)"/></g><g class="cls-2"><path class="cls-3" d="M266,508.57a0.6,0.6,0,0,1-.43-1l7.55-7.55a0.6,0.6,0,1,1,.85.85l-7.55,7.55A0.6,0.6,0,0,1,266,508.57Z" transform="translate(-206.48 -493.16)"/></g><g class="cls-2"><path class="cls-3" d="M271.43,508.57a0.6,0.6,0,0,1-.43-1l7.55-7.55a0.6,0.6,0,1,1,.85.85l-7.55,7.55A0.6,0.6,0,0,1,271.43,508.57Z" transform="translate(-206.48 -493.16)"/></g><g class="cls-2"><path class="cls-3" d="M282.3,508.57a0.6,0.6,0,0,1-.43-1l7.55-7.55a0.6,0.6,0,1,1,.85.85l-7.55,7.55A0.6,0.6,0,0,1,282.3,508.57Z" transform="translate(-206.48 -493.16)"/></g><g class="cls-2"><path class="cls-3" d="M247.56,498h-14.1v-4.83h14.1V498Zm-12.89-1.21h11.68v-2.42H234.67v2.42Z" transform="translate(-206.48 -493.16)"/></g><g class="cls-2"><path class="cls-3" d="M230.65,498H223.4v-4.83h7.25V498Zm-6-1.21h4.83v-2.42h-4.83v2.42Z" transform="translate(-206.48 -493.16)"/></g><g class="cls-2"><path class="cls-3" d="M221.38,498h-4.83v-4.83h4.83V498Zm-3.62-1.21h2.42v-2.42h-2.42v2.42Z" transform="translate(-206.48 -493.16)"/></g></g></g></svg>