<svg preserveAspectRatio="none" id="Layer_1" data-name="Layer 1" xmlns="http://www.w3.org/2000/svg" viewBox="0 0 713.64 55.15"><defs><style>.cls-1{fill:#02a6ff}</style></defs><g id="_编组_" data-name="&lt;编组&gt;"><path id="_矩形_" data-name="&lt;矩形&gt;" class="cls-1" d="M0 34.96h713.64v2.72H0z"/><g id="_编组_2" data-name="&lt;编组&gt;"><path id="_路径_" data-name="&lt;路径&gt;" class="cls-1" d="M686.11 11.72H524.76l-23.23 23.24h207.81l-23.23-23.24z"/></g><g id="_编组_3" data-name="&lt;编组&gt;"><path id="_路径_2" data-name="&lt;路径&gt;" class="cls-1" d="M14.77 37.68l11.19 11.19h129.93l11.19-11.19H14.77z"/></g><path id="_路径_3" data-name="&lt;路径&gt;" class="cls-1" d="M167.15 50.09l-2.43-2.44 7.78-7.78h120.57v3.44H173.92l-6.77 6.78z"/><path id="_路径_4" data-name="&lt;路径&gt;" class="cls-1" d="M497.94 31.95H303.47V28.5h193.04l25.46-25.45h33.34v3.44h-31.92l-25.45 25.46z"/><path id="_矩形_2" data-name="&lt;矩形&gt;" class="cls-1" d="M548.86 0h13.55v9.14h-13.55z"/><path id="_矩形_3" data-name="&lt;矩形&gt;" class="cls-1" d="M302.75 25.55h12.26v8.82h-12.26z"/><path id="_矩形_4" data-name="&lt;矩形&gt;" class="cls-1" d="M290.92 38.55h3v5.83h-3z"/><path id="_矩形_5" data-name="&lt;矩形&gt;" class="cls-1" d="M162.87 47.22h6.99v3.71h-6.99z"/><path id="_矩形_6" data-name="&lt;矩形&gt;" class="cls-1" d="M14.77 30.44h14.34v2.8H14.77z"/><path id="_矩形_7" data-name="&lt;矩形&gt;" class="cls-1" d="M34.56 30.44H48.9v2.8H34.56z"/><path id="_矩形_8" data-name="&lt;矩形&gt;" class="cls-1" d="M54.35 30.44h14.34v2.8H54.35z"/><path id="_矩形_9" data-name="&lt;矩形&gt;" class="cls-1" d="M74.15 30.44h14.34v2.8H74.15z"/><path id="_矩形_10" data-name="&lt;矩形&gt;" class="cls-1" d="M93.94 30.44h14.34v2.8H93.94z"/><path id="_矩形_11" data-name="&lt;矩形&gt;" class="cls-1" d="M113.73 30.44h14.34v2.8h-14.34z"/><path id="_矩形_12" data-name="&lt;矩形&gt;" class="cls-1" d="M133.52 30.44h14.34v2.8h-14.34z"/><path id="_矩形_13" data-name="&lt;矩形&gt;" class="cls-1" d="M153.31 30.44h14.34v2.8h-14.34z"/><g id="_编组_4" data-name="&lt;编组&gt;"><path id="_路径_5" data-name="&lt;路径&gt;" class="cls-1" d="M316.02 40.95l-14.2 14.2h35.28l14.2-14.2h-35.28z"/></g><g id="_编组_5" data-name="&lt;编组&gt;"><path id="_路径_6" data-name="&lt;路径&gt;" class="cls-1" d="M363.13 40.95l-14.2 14.2h35.28l14.2-14.2h-35.28z"/></g><g id="_编组_6" data-name="&lt;编组&gt;"><path id="_路径_7" data-name="&lt;路径&gt;" class="cls-1" d="M410.24 40.95l-14.19 14.2h35.27l14.2-14.2h-35.28z"/></g><g id="_编组_7" data-name="&lt;编组&gt;"><path id="_路径_8" data-name="&lt;路径&gt;" class="cls-1" d="M457.36 40.95l-14.2 14.2h35.28l14.2-14.2h-35.28z"/></g><g id="_编组_8" data-name="&lt;编组&gt;"><path id="_路径_9" data-name="&lt;路径&gt;" class="cls-1" d="M508.5 45.23l5.65 5.65h17.28v-5.65H508.5z"/><path id="_路径_10" data-name="&lt;路径&gt;" class="cls-1" d="M701.76 45.23H557.25v5.65h138.86l5.65-5.65z"/></g></g><g id="_编组_9" data-name="&lt;编组&gt;"><path id="_矩形_14" data-name="&lt;矩形&gt;" class="cls-1" d="M0 34.96h713.64v2.72H0z"/><g id="_编组_10" data-name="&lt;编组&gt;"><path id="_路径_11" data-name="&lt;路径&gt;" class="cls-1" d="M686.11 11.72H524.76l-23.23 23.24h207.81l-23.23-23.24z"/></g><g id="_编组_11" data-name="&lt;编组&gt;"><path id="_路径_12" data-name="&lt;路径&gt;" class="cls-1" d="M14.77 37.68l11.19 11.19h129.93l11.19-11.19H14.77z"/></g><path id="_路径_13" data-name="&lt;路径&gt;" class="cls-1" d="M167.15 50.09l-2.43-2.44 7.78-7.78h120.57v3.44H173.92l-6.77 6.78z"/><path id="_路径_14" data-name="&lt;路径&gt;" class="cls-1" d="M497.94 31.95H303.47V28.5h193.04l25.46-25.45h33.34v3.44h-31.92l-25.45 25.46z"/><path id="_矩形_15" data-name="&lt;矩形&gt;" class="cls-1" d="M548.86 0h13.55v9.14h-13.55z"/><path id="_矩形_16" data-name="&lt;矩形&gt;" class="cls-1" d="M302.75 25.55h12.26v8.82h-12.26z"/><path id="_矩形_17" data-name="&lt;矩形&gt;" class="cls-1" d="M290.92 38.55h3v5.83h-3z"/><path id="_矩形_18" data-name="&lt;矩形&gt;" class="cls-1" d="M162.87 47.22h6.99v3.71h-6.99z"/><path id="_矩形_19" data-name="&lt;矩形&gt;" class="cls-1" d="M14.77 30.44h14.34v2.8H14.77z"/><path id="_矩形_20" data-name="&lt;矩形&gt;" class="cls-1" d="M34.56 30.44H48.9v2.8H34.56z"/><path id="_矩形_21" data-name="&lt;矩形&gt;" class="cls-1" d="M54.35 30.44h14.34v2.8H54.35z"/><path id="_矩形_22" data-name="&lt;矩形&gt;" class="cls-1" d="M74.15 30.44h14.34v2.8H74.15z"/><path id="_矩形_23" data-name="&lt;矩形&gt;" class="cls-1" d="M93.94 30.44h14.34v2.8H93.94z"/><path id="_矩形_24" data-name="&lt;矩形&gt;" class="cls-1" d="M113.73 30.44h14.34v2.8h-14.34z"/><path id="_矩形_25" data-name="&lt;矩形&gt;" class="cls-1" d="M133.52 30.44h14.34v2.8h-14.34z"/><path id="_矩形_26" data-name="&lt;矩形&gt;" class="cls-1" d="M153.31 30.44h14.34v2.8h-14.34z"/><g id="_编组_12" data-name="&lt;编组&gt;"><path id="_路径_15" data-name="&lt;路径&gt;" class="cls-1" d="M316.02 40.95l-14.2 14.2h35.28l14.2-14.2h-35.28z"/></g><g id="_编组_13" data-name="&lt;编组&gt;"><path id="_路径_16" data-name="&lt;路径&gt;" class="cls-1" d="M363.13 40.95l-14.2 14.2h35.28l14.2-14.2h-35.28z"/></g><g id="_编组_14" data-name="&lt;编组&gt;"><path id="_路径_17" data-name="&lt;路径&gt;" class="cls-1" d="M410.24 40.95l-14.19 14.2h35.27l14.2-14.2h-35.28z"/></g><g id="_编组_15" data-name="&lt;编组&gt;"><path id="_路径_18" data-name="&lt;路径&gt;" class="cls-1" d="M457.36 40.95l-14.2 14.2h35.28l14.2-14.2h-35.28z"/></g><g id="_编组_16" data-name="&lt;编组&gt;"><path id="_路径_19" data-name="&lt;路径&gt;" class="cls-1" d="M508.5 45.23l5.65 5.65h17.28v-5.65H508.5z"/><path id="_路径_20" data-name="&lt;路径&gt;" class="cls-1" d="M701.76 45.23H557.25v5.65h138.86l5.65-5.65z"/></g></g></svg>