<svg preserveAspectRatio="none" id="Layer_1" data-name="Layer 1" xmlns="http://www.w3.org/2000/svg" viewBox="0 0 181.49 19.04"><defs><style>.cls-1{fill:aqua;}</style></defs><title>line16</title><rect id="_路径_" data-name="&lt;路径&gt;" class="cls-1" y="14.1" width="180.62" height="0.96"/><polygon id="_路径_2" data-name="&lt;路径&gt;" class="cls-1" points="51.52 14.58 54.13 17.19 151.01 17.19 155.17 14.91 51.52 14.58"/><path id="_路径_3" data-name="&lt;路径&gt;" class="cls-1" d="M860.26,518.82a0.48,0.48,0,0,1-.34-0.82l2-2-2.25-2.25a0.48,0.48,0,0,1,.68-0.68l2.93,2.93-2.71,2.71A0.48,0.48,0,0,1,860.26,518.82Z" transform="translate(-681.82 -501.15)"/><polygon id="_路径_4" data-name="&lt;路径&gt;" class="cls-1" points="1.38 14.58 3.56 12.4 42.5 12.4 44.84 14.58 1.38 14.58"/><path id="_路径_5" data-name="&lt;路径&gt;" class="cls-1" d="M825.92,517a0.48,0.48,0,0,1-.34-0.14l-9.28-9.28H741.25l-4.13,4.13a0.48,0.48,0,0,1-.68-0.68l4.41-4.41H816.7l9.56,9.56A0.48,0.48,0,0,1,825.92,517Z" transform="translate(-681.82 -501.15)"/><path id="_路径_6" data-name="&lt;路径&gt;" class="cls-1" d="M851.7,514.91a0.48,0.48,0,0,1-.34-0.14l-12.66-12.66h-18l-3.54,3.54h-57a0.48,0.48,0,0,1,0-1h56.55l3.54-3.54h18.79L852,514.09A0.48,0.48,0,0,1,851.7,514.91Z" transform="translate(-681.82 -501.15)"/><path id="_路径_7" data-name="&lt;路径&gt;" class="cls-1" d="M764.87,520.19H735.34l-2.82-2.82a0.48,0.48,0,1,1,.68-0.68l2.54,2.54h29.14A0.48,0.48,0,1,1,764.87,520.19Z" transform="translate(-681.82 -501.15)"/></svg>