<svg preserveAspectRatio="none" id="Layer_1" data-name="Layer 1" xmlns="http://www.w3.org/2000/svg" viewBox="0 0 181.49 19.04"><defs><style>.cls-1{fill:#0ff}</style></defs><path id="_路径_" data-name="&lt;路径&gt;" class="cls-1" d="M0 14.1h180.62v.96H0z"/><path id="_路径_2" data-name="&lt;路径&gt;" class="cls-1" d="M51.52 14.58l2.61 2.61h96.88l4.16-2.28-103.65-.33z"/><path id="_路径_3" data-name="&lt;路径&gt;" class="cls-1" d="M860.26 518.82a.48.48 0 01-.34-.82l2-2-2.25-2.25a.48.48 0 01.68-.68l2.93 2.93-2.71 2.71a.48.48 0 01-.31.11z" transform="translate(-681.82 -501.15)"/><path id="_路径_4" data-name="&lt;路径&gt;" class="cls-1" d="M1.38 14.58l2.18-2.18H42.5l2.34 2.18H1.38z"/><path id="_路径_5" data-name="&lt;路径&gt;" class="cls-1" d="M825.92 517a.48.48 0 01-.34-.14l-9.28-9.28h-75.05l-4.13 4.13a.48.48 0 01-.68-.68l4.41-4.41h75.85l9.56 9.56a.48.48 0 01-.34.82z" transform="translate(-681.82 -501.15)"/><path id="_路径_6" data-name="&lt;路径&gt;" class="cls-1" d="M851.7 514.91a.48.48 0 01-.34-.14l-12.66-12.66h-18l-3.54 3.54h-57a.48.48 0 010-1h56.55l3.54-3.54h18.79L852 514.09a.48.48 0 01-.3.82z" transform="translate(-681.82 -501.15)"/><path id="_路径_7" data-name="&lt;路径&gt;" class="cls-1" d="M764.87 520.19h-29.53l-2.82-2.82a.48.48 0 11.68-.68l2.54 2.54h29.14a.48.48 0 11-.01.96z" transform="translate(-681.82 -501.15)"/></svg>