<svg preserveAspectRatio="none" id="Layer_1" data-name="Layer 1" xmlns="http://www.w3.org/2000/svg" viewBox="0 0 715.26 65.2"><defs><style>.cls-1{fill:#02a6ff;}</style></defs><title>line7</title><g id="_编组_" data-name="&lt;编组&gt;"><g id="_编组_2" data-name="&lt;编组&gt;"><polygon id="_路径_" data-name="&lt;路径&gt;" class="cls-1" points="264.54 22.34 250.34 36.54 285.62 36.54 299.82 22.34 264.54 22.34"/></g><g id="_编组_3" data-name="&lt;编组&gt;"><polygon id="_路径_2" data-name="&lt;路径&gt;" class="cls-1" points="307.78 22.34 293.58 36.54 328.86 36.54 343.06 22.34 307.78 22.34"/></g><g id="_编组_4" data-name="&lt;编组&gt;"><polygon id="_路径_3" data-name="&lt;路径&gt;" class="cls-1" points="351.02 22.34 336.82 36.54 372.1 36.54 386.3 22.34 351.02 22.34"/></g><g id="_编组_5" data-name="&lt;编组&gt;"><polygon id="_路径_4" data-name="&lt;路径&gt;" class="cls-1" points="394.26 22.34 380.06 36.54 415.34 36.54 429.54 22.34 394.26 22.34"/></g><g id="_编组_6" data-name="&lt;编组&gt;"><polygon id="_路径_5" data-name="&lt;路径&gt;" class="cls-1" points="437.5 22.34 423.3 36.54 458.58 36.54 472.78 22.34 437.5 22.34"/></g><g id="_编组_7" data-name="&lt;编组&gt;"><polygon id="_路径_6" data-name="&lt;路径&gt;" class="cls-1" points="480.74 22.34 466.54 36.54 501.82 36.54 516.02 22.34 480.74 22.34"/></g><g id="_编组_8" data-name="&lt;编组&gt;"><polygon id="_路径_7" data-name="&lt;路径&gt;" class="cls-1" points="523.98 22.34 509.78 36.54 545.06 36.54 559.26 22.34 523.98 22.34"/></g><g id="_编组_9" data-name="&lt;编组&gt;"><polygon id="_路径_8" data-name="&lt;路径&gt;" class="cls-1" points="567.22 22.34 553.02 36.54 588.3 36.54 602.5 22.34 567.22 22.34"/></g><g id="_编组_10" data-name="&lt;编组&gt;"><polygon id="_路径_9" data-name="&lt;路径&gt;" class="cls-1" points="610.46 22.34 596.26 36.54 631.54 36.54 645.74 22.34 610.46 22.34"/></g><path id="_复合路径_" data-name="&lt;复合路径&gt;" class="cls-1" d="M278.64,624.48H90v-4.73H67.39v4.73H55.12v-65.2H184.28v6.17h78.94v-6.17h15.43v65.2ZM93.21,621.24H275.4V562.53h-9v6.17H181v-6.17H58.36v58.72h5.79v-4.73H93.21v4.73Z" transform="translate(-55.12 -559.29)"/><rect id="_矩形_" data-name="&lt;矩形&gt;" class="cls-1" x="33.53" y="26.29" width="681.73" height="6.31"/><rect id="_矩形_2" data-name="&lt;矩形&gt;" class="cls-1" x="31.31" y="19.26" width="21.8" height="20.37"/><circle id="_路径_10" data-name="&lt;路径&gt;" class="cls-1" cx="65.37" cy="22.79" r="2.53"/><circle id="_路径_11" data-name="&lt;路径&gt;" class="cls-1" cx="79.03" cy="22.79" r="2.53"/><circle id="_路径_12" data-name="&lt;路径&gt;" class="cls-1" cx="92.69" cy="22.79" r="2.53"/><circle id="_路径_13" data-name="&lt;路径&gt;" class="cls-1" cx="106.35" cy="22.79" r="2.53"/><circle id="_路径_14" data-name="&lt;路径&gt;" class="cls-1" cx="120.01" cy="22.79" r="2.53"/><circle id="_路径_15" data-name="&lt;路径&gt;" class="cls-1" cx="133.67" cy="22.79" r="2.53"/><circle id="_路径_16" data-name="&lt;路径&gt;" class="cls-1" cx="147.33" cy="22.79" r="2.53"/><rect id="_矩形_3" data-name="&lt;矩形&gt;" class="cls-1" x="695.68" y="17.68" width="19.58" height="21.51"/></g><g id="_编组_11" data-name="&lt;编组&gt;"><g id="_编组_12" data-name="&lt;编组&gt;"><polygon id="_路径_17" data-name="&lt;路径&gt;" class="cls-1" points="264.54 22.34 250.34 36.54 285.62 36.54 299.82 22.34 264.54 22.34"/></g><g id="_编组_13" data-name="&lt;编组&gt;"><polygon id="_路径_18" data-name="&lt;路径&gt;" class="cls-1" points="307.78 22.34 293.58 36.54 328.86 36.54 343.06 22.34 307.78 22.34"/></g><g id="_编组_14" data-name="&lt;编组&gt;"><polygon id="_路径_19" data-name="&lt;路径&gt;" class="cls-1" points="351.02 22.34 336.82 36.54 372.1 36.54 386.3 22.34 351.02 22.34"/></g><g id="_编组_15" data-name="&lt;编组&gt;"><polygon id="_路径_20" data-name="&lt;路径&gt;" class="cls-1" points="394.26 22.34 380.06 36.54 415.34 36.54 429.54 22.34 394.26 22.34"/></g><g id="_编组_16" data-name="&lt;编组&gt;"><polygon id="_路径_21" data-name="&lt;路径&gt;" class="cls-1" points="437.5 22.34 423.3 36.54 458.58 36.54 472.78 22.34 437.5 22.34"/></g><g id="_编组_17" data-name="&lt;编组&gt;"><polygon id="_路径_22" data-name="&lt;路径&gt;" class="cls-1" points="480.74 22.34 466.54 36.54 501.82 36.54 516.02 22.34 480.74 22.34"/></g><g id="_编组_18" data-name="&lt;编组&gt;"><polygon id="_路径_23" data-name="&lt;路径&gt;" class="cls-1" points="523.98 22.34 509.78 36.54 545.06 36.54 559.26 22.34 523.98 22.34"/></g><g id="_编组_19" data-name="&lt;编组&gt;"><polygon id="_路径_24" data-name="&lt;路径&gt;" class="cls-1" points="567.22 22.34 553.02 36.54 588.3 36.54 602.5 22.34 567.22 22.34"/></g><g id="_编组_20" data-name="&lt;编组&gt;"><polygon id="_路径_25" data-name="&lt;路径&gt;" class="cls-1" points="610.46 22.34 596.26 36.54 631.54 36.54 645.74 22.34 610.46 22.34"/></g><path id="_复合路径_2" data-name="&lt;复合路径&gt;" class="cls-1" d="M278.64,624.48H90v-4.73H67.39v4.73H55.12v-65.2H184.28v6.17h78.94v-6.17h15.43v65.2ZM93.21,621.24H275.4V562.53h-9v6.17H181v-6.17H58.36v58.72h5.79v-4.73H93.21v4.73Z" transform="translate(-55.12 -559.29)"/><rect id="_矩形_4" data-name="&lt;矩形&gt;" class="cls-1" x="33.53" y="26.29" width="681.73" height="6.31"/><rect id="_矩形_5" data-name="&lt;矩形&gt;" class="cls-1" x="31.31" y="19.26" width="21.8" height="20.37"/><circle id="_路径_26" data-name="&lt;路径&gt;" class="cls-1" cx="65.37" cy="22.79" r="2.53"/><circle id="_路径_27" data-name="&lt;路径&gt;" class="cls-1" cx="79.03" cy="22.79" r="2.53"/><circle id="_路径_28" data-name="&lt;路径&gt;" class="cls-1" cx="92.69" cy="22.79" r="2.53"/><circle id="_路径_29" data-name="&lt;路径&gt;" class="cls-1" cx="106.35" cy="22.79" r="2.53"/><circle id="_路径_30" data-name="&lt;路径&gt;" class="cls-1" cx="120.01" cy="22.79" r="2.53"/><circle id="_路径_31" data-name="&lt;路径&gt;" class="cls-1" cx="133.67" cy="22.79" r="2.53"/><circle id="_路径_32" data-name="&lt;路径&gt;" class="cls-1" cx="147.33" cy="22.79" r="2.53"/><rect id="_矩形_6" data-name="&lt;矩形&gt;" class="cls-1" x="695.68" y="17.68" width="19.58" height="21.51"/></g></svg>