<svg preserveAspectRatio="none" xmlns="http://www.w3.org/2000/svg" viewBox="0 0 166.35 20.59"><defs><style>.cls-2,.cls-4{mix-blend-mode:overlay}.cls-3,.cls-4{fill:#0ff}</style></defs><g style="isolation:isolate"><g id="Layer_1" data-name="Layer 1"><g class="cls-2"><path class="cls-3" d="M272.78 539.45a.67.67 0 01.67-.67h37.64l6.42 6.42a.67.67 0 11-.94.94l-6-6h-37.12a.67.67 0 01-.67-.69z" transform="translate(-158.49 -532.34)"/></g><path class="cls-4" d="M121.05 14.41l-4.27-4.26h32.21l4.26 4.26h-32.2z"/><path class="cls-4" d="M121.05 14.41l-4.27-4.26h32.21l4.26 4.26h-32.2zM97.9 14.41l-4.26-4.26h9.08l4.27 4.26H97.9zM82.07 14.41l-4.27-4.26h9.09l4.27 4.26h-9.09z"/><path class="cls-4" d="M82.07 14.41l-4.27-4.26h9.09l4.27 4.26h-9.09z"/><g class="cls-2"><path class="cls-3" d="M182.06 543.32a.67.67 0 01.67-.67h42.74l6.81-6.81h28.4l15.74 15.74h45.2l-2.2-2.2a.67.67 0 11.94-.94l4.48 4.48h-49l-15.74-15.74h-27.27L226 544h-43.27a.67.67 0 01-.67-.68z" transform="translate(-158.49 -532.34)"/></g><g class="cls-2"><path class="cls-3" d="M182.06 543.32a.67.67 0 01.67-.67h42.74l6.81-6.81h28.4l15.74 15.74h45.2l-2.2-2.2a.67.67 0 11.94-.94l4.48 4.48h-49l-15.74-15.74h-27.27L226 544h-43.27a.67.67 0 01-.67-.68z" transform="translate(-158.49 -532.34)"/></g><circle class="cls-4" cx="58.5" cy="3.11" r="3.11"/><circle class="cls-4" cx="48.26" cy="3.11" r="3.11"/><circle class="cls-4" cx="38.03" cy="3.11" r="3.11"/><circle class="cls-4" cx="58.5" cy="3.11" r="3.11"/><circle class="cls-4" cx="38.03" cy="3.11" r="3.11"/><g class="cls-2"><path class="cls-3" d="M158.49 542.57a.67.67 0 011.14-.47l5.59 5.59h49.54a.67.67 0 110 1.33h-50.1l-6-6a.66.66 0 01-.17-.45z" transform="translate(-158.49 -532.34)"/></g></g></g></svg>