<svg preserveAspectRatio="none" id="OBJECTS" xmlns="http://www.w3.org/2000/svg" xmlns:xlink="http://www.w3.org/1999/xlink" viewBox="0 0 424.48 5.83"><defs><linearGradient id="Degradado_sin_nombre_820" x1="6.4" y1="5.4" x2="461.43" y2="5.4" gradientUnits="userSpaceOnUse"><stop offset="0" stop-color="#7efffb"/><stop offset=".44" stop-color="#0093ff"/><stop offset="1" stop-color="#3bfffd"/></linearGradient><linearGradient id="Degradado_sin_nombre_820-3" x1="6.4" y1="2.48" x2="461.42" y2="2.48" xlink:href="#Degradado_sin_nombre_820"/><linearGradient id="Degradado_sin_nombre_820-4" x1="6.4" y1="2.48" x2="461.46" y2="2.48" xlink:href="#Degradado_sin_nombre_820"/><linearGradient id="Degradado_sin_nombre_820-5" x1="6.4" y1="2.48" x2="461.42" y2="2.48" xlink:href="#Degradado_sin_nombre_820"/><linearGradient id="Degradado_sin_nombre_820-6" x1="6.4" y1="2.48" x2="461.42" y2="2.48" xlink:href="#Degradado_sin_nombre_820"/><linearGradient id="Degradado_sin_nombre_820-7" x1="6.4" y1="2.48" x2="461.46" y2="2.48" xlink:href="#Degradado_sin_nombre_820"/><linearGradient id="Degradado_sin_nombre_820-8" x1="6.4" y1="2.48" x2="461.42" y2="2.48" xlink:href="#Degradado_sin_nombre_820"/><linearGradient id="Degradado_sin_nombre_820-9" x1="6.4" y1="2.48" x2="461.46" y2="2.48" xlink:href="#Degradado_sin_nombre_820"/><linearGradient id="Degradado_sin_nombre_820-10" x1="6.4" y1="2.48" x2="461.41" y2="2.48" xlink:href="#Degradado_sin_nombre_820"/><linearGradient id="Degradado_sin_nombre_820-11" x1="6.4" y1="2.48" x2="461.42" y2="2.48" xlink:href="#Degradado_sin_nombre_820"/><linearGradient id="Degradado_sin_nombre_820-12" x1="6.4" y1="2.48" x2="461.46" y2="2.48" xlink:href="#Degradado_sin_nombre_820"/><linearGradient id="Degradado_sin_nombre_820-13" x1="6.4" y1="5.4" x2="461.42" y2="5.4" xlink:href="#Degradado_sin_nombre_820"/><linearGradient id="Degradado_sin_nombre_820-14" x1="6.4" y1="5.4" x2="461.43" y2="5.4" xlink:href="#Degradado_sin_nombre_820"/><linearGradient id="Degradado_sin_nombre_820-15" x1="6.39" y1="2.48" x2="461.46" y2="2.48" xlink:href="#Degradado_sin_nombre_820"/><linearGradient id="Degradado_sin_nombre_820-16" x1="6.4" y1="2.48" x2="461.42" y2="2.48" xlink:href="#Degradado_sin_nombre_820"/><linearGradient id="Degradado_sin_nombre_820-17" x1="6.4" y1="2.48" x2="461.42" y2="2.48" xlink:href="#Degradado_sin_nombre_820"/><linearGradient id="Degradado_sin_nombre_820-18" x1="6.39" y1="2.48" x2="461.46" y2="2.48" xlink:href="#Degradado_sin_nombre_820"/><linearGradient id="Degradado_sin_nombre_820-19" x1="6.4" y1="2.48" x2="461.41" y2="2.48" xlink:href="#Degradado_sin_nombre_820"/><linearGradient id="Degradado_sin_nombre_820-20" x1="6.39" y1="2.48" x2="461.45" y2="2.48" xlink:href="#Degradado_sin_nombre_820"/><linearGradient id="Degradado_sin_nombre_820-21" x1="6.4" y1="2.48" x2="461.41" y2="2.48" xlink:href="#Degradado_sin_nombre_820"/><linearGradient id="Degradado_sin_nombre_820-22" x1="6.4" y1="2.48" x2="461.41" y2="2.48" xlink:href="#Degradado_sin_nombre_820"/><linearGradient id="Degradado_sin_nombre_820-23" x1="6.39" y1="2.48" x2="461.46" y2="2.48" xlink:href="#Degradado_sin_nombre_820"/><linearGradient id="Degradado_sin_nombre_820-24" x1="6.4" y1="2.48" x2="461.41" y2="2.48" xlink:href="#Degradado_sin_nombre_820"/><linearGradient id="Degradado_sin_nombre_820-26" x1="6.4" y1="5.4" x2="461.43" y2="5.4" xlink:href="#Degradado_sin_nombre_820"/><linearGradient id="Degradado_sin_nombre_820-27" x1="6.4" y1="2.48" x2="461.42" y2="2.48" xlink:href="#Degradado_sin_nombre_820"/><linearGradient id="Degradado_sin_nombre_820-28" x1="6.39" y1="2.48" x2="461.45" y2="2.48" xlink:href="#Degradado_sin_nombre_820"/><linearGradient id="Degradado_sin_nombre_820-29" x1="6.4" y1="2.48" x2="461.42" y2="2.48" xlink:href="#Degradado_sin_nombre_820"/><linearGradient id="Degradado_sin_nombre_820-30" x1="6.4" y1="2.48" x2="461.42" y2="2.48" xlink:href="#Degradado_sin_nombre_820"/><linearGradient id="Degradado_sin_nombre_820-31" x1="6.39" y1="2.48" x2="461.45" y2="2.48" xlink:href="#Degradado_sin_nombre_820"/><linearGradient id="Degradado_sin_nombre_820-32" x1="6.4" y1="2.48" x2="461.42" y2="2.48" xlink:href="#Degradado_sin_nombre_820"/><linearGradient id="Degradado_sin_nombre_820-33" x1="6.4" y1="2.48" x2="461.42" y2="2.48" xlink:href="#Degradado_sin_nombre_820"/><linearGradient id="Degradado_sin_nombre_820-34" x1="6.4" y1="2.48" x2="461.42" y2="2.48" xlink:href="#Degradado_sin_nombre_820"/><linearGradient id="Degradado_sin_nombre_820-36" x1="6.39" y1="2.48" x2="461.45" y2="2.48" xlink:href="#Degradado_sin_nombre_820"/><linearGradient id="Degradado_sin_nombre_820-37" x1="6.4" y1="5.4" x2="461.43" y2="5.4" xlink:href="#Degradado_sin_nombre_820"/><linearGradient id="Degradado_sin_nombre_820-38" x1="6.4" y1="5.4" x2="461.43" y2="5.4" xlink:href="#Degradado_sin_nombre_820"/><linearGradient id="Degradado_sin_nombre_820-39" x1="6.39" y1="2.48" x2="461.45" y2="2.48" xlink:href="#Degradado_sin_nombre_820"/><linearGradient id="Degradado_sin_nombre_820-40" x1="6.41" y1="2.48" x2="461.42" y2="2.48" xlink:href="#Degradado_sin_nombre_820"/><linearGradient id="Degradado_sin_nombre_820-41" x1="6.4" y1="2.48" x2="461.42" y2="2.48" xlink:href="#Degradado_sin_nombre_820"/><linearGradient id="Degradado_sin_nombre_820-42" x1="6.39" y1="2.48" x2="461.45" y2="2.48" xlink:href="#Degradado_sin_nombre_820"/><linearGradient id="Degradado_sin_nombre_820-43" x1="6.41" y1="2.48" x2="461.42" y2="2.48" xlink:href="#Degradado_sin_nombre_820"/><linearGradient id="Degradado_sin_nombre_820-45" x1="6.41" y1="2.48" x2="461.42" y2="2.48" xlink:href="#Degradado_sin_nombre_820"/><linearGradient id="Degradado_sin_nombre_820-46" x1="6.41" y1="2.48" x2="461.42" y2="2.48" xlink:href="#Degradado_sin_nombre_820"/><linearGradient id="Degradado_sin_nombre_820-47" x1="6.38" y1="2.48" x2="461.45" y2="2.48" xlink:href="#Degradado_sin_nombre_820"/><linearGradient id="Degradado_sin_nombre_820-48" x1="6.41" y1="2.48" x2="461.42" y2="2.48" xlink:href="#Degradado_sin_nombre_820"/><linearGradient id="Degradado_sin_nombre_820-50" x1="6.4" y1="5.4" x2="461.43" y2="5.4" xlink:href="#Degradado_sin_nombre_820"/><linearGradient id="Degradado_sin_nombre_820-51" x1="6.41" y1="2.48" x2="461.42" y2="2.48" xlink:href="#Degradado_sin_nombre_820"/><linearGradient id="Degradado_sin_nombre_820-52" x1="6.4" y1="2.48" x2="461.43" y2="2.48" xlink:href="#Degradado_sin_nombre_820"/><linearGradient id="Degradado_sin_nombre_820-53" x1="6.38" y1="2.48" x2="461.44" y2="2.48" xlink:href="#Degradado_sin_nombre_820"/><linearGradient id="Degradado_sin_nombre_820-54" x1="6.41" y1="2.48" x2="461.42" y2="2.48" xlink:href="#Degradado_sin_nombre_820"/><linearGradient id="Degradado_sin_nombre_820-55" x1="6.38" y1="2.48" x2="461.44" y2="2.48" xlink:href="#Degradado_sin_nombre_820"/><linearGradient id="Degradado_sin_nombre_820-56" x1="6.41" y1="2.48" x2="461.42" y2="2.48" xlink:href="#Degradado_sin_nombre_820"/><linearGradient id="Degradado_sin_nombre_820-57" x1="6.41" y1="2.48" x2="461.42" y2="2.48" xlink:href="#Degradado_sin_nombre_820"/><linearGradient id="Degradado_sin_nombre_820-58" x1="6.4" y1="2.48" x2="461.43" y2="2.48" xlink:href="#Degradado_sin_nombre_820"/><linearGradient id="Degradado_sin_nombre_820-59" x1="6.41" y1="2.48" x2="461.42" y2="2.48" xlink:href="#Degradado_sin_nombre_820"/><linearGradient id="Degradado_sin_nombre_820-60" x1="6.41" y1="2.48" x2="461.42" y2="2.48" xlink:href="#Degradado_sin_nombre_820"/><linearGradient id="Degradado_sin_nombre_820-61" x1="6.4" y1="5.4" x2="461.43" y2="5.4" xlink:href="#Degradado_sin_nombre_820"/><linearGradient id="Degradado_sin_nombre_820-63" x1="6.38" y1="2.48" x2="461.44" y2="2.48" xlink:href="#Degradado_sin_nombre_820"/><linearGradient id="Degradado_sin_nombre_820-64" x1="6.41" y1="2.48" x2="461.42" y2="2.48" xlink:href="#Degradado_sin_nombre_820"/><linearGradient id="Degradado_sin_nombre_820-65" x1="6.41" y1="2.48" x2="461.42" y2="2.48" xlink:href="#Degradado_sin_nombre_820"/><linearGradient id="Degradado_sin_nombre_820-66" x1="6.38" y1="2.48" x2="461.44" y2="2.48" xlink:href="#Degradado_sin_nombre_820"/><linearGradient id="Degradado_sin_nombre_820-67" x1="6.41" y1="2.48" x2="461.42" y2="2.48" xlink:href="#Degradado_sin_nombre_820"/><linearGradient id="Degradado_sin_nombre_820-69" x1="6.41" y1="2.48" x2="461.42" y2="2.48" xlink:href="#Degradado_sin_nombre_820"/><linearGradient id="Degradado_sin_nombre_820-70" x1="6.41" y1="2.48" x2="461.42" y2="2.48" xlink:href="#Degradado_sin_nombre_820"/><linearGradient id="Degradado_sin_nombre_820-71" x1="6.38" y1="2.48" x2="461.44" y2="2.48" xlink:href="#Degradado_sin_nombre_820"/><linearGradient id="Degradado_sin_nombre_820-72" x1="6.41" y1="2.48" x2="461.42" y2="2.48" xlink:href="#Degradado_sin_nombre_820"/><linearGradient id="Degradado_sin_nombre_820-75" x1="6.41" y1="2.48" x2="461.42" y2="2.48" xlink:href="#Degradado_sin_nombre_820"/><linearGradient id="Degradado_sin_nombre_820-77" x1="6.4" y1="2.48" x2="461.43" y2="2.48" xlink:href="#Degradado_sin_nombre_820"/><linearGradient id="Degradado_sin_nombre_820-78" x1="6.41" y1="2.48" x2="461.42" y2="2.48" xlink:href="#Degradado_sin_nombre_820"/><linearGradient id="Degradado_sin_nombre_820-80" x1="6.41" y1="2.48" x2="461.42" y2="2.48" xlink:href="#Degradado_sin_nombre_820"/><linearGradient id="Degradado_sin_nombre_820-81" x1="6.41" y1="2.48" x2="461.42" y2="2.48" xlink:href="#Degradado_sin_nombre_820"/><linearGradient id="Degradado_sin_nombre_820-82" x1="6.42" y1="2.48" x2="461.42" y2="2.48" xlink:href="#Degradado_sin_nombre_820"/><linearGradient id="Degradado_sin_nombre_820-84" x1="6.41" y1="2.48" x2="461.42" y2="2.48" xlink:href="#Degradado_sin_nombre_820"/><linearGradient id="Degradado_sin_nombre_820-86" x1="6.4" y1="5.4" x2="461.43" y2="5.4" xlink:href="#Degradado_sin_nombre_820"/><linearGradient id="Degradado_sin_nombre_820-87" x1="6.41" y1="2.48" x2="461.42" y2="2.48" xlink:href="#Degradado_sin_nombre_820"/><linearGradient id="Degradado_sin_nombre_820-88" x1="6.41" y1="2.48" x2="461.42" y2="2.48" xlink:href="#Degradado_sin_nombre_820"/><linearGradient id="Degradado_sin_nombre_820-89" x1="6.41" y1="2.48" x2="461.42" y2="2.48" xlink:href="#Degradado_sin_nombre_820"/><linearGradient id="Degradado_sin_nombre_820-90" x1="6.41" y1="2.48" x2="461.42" y2="2.48" xlink:href="#Degradado_sin_nombre_820"/><linearGradient id="Degradado_sin_nombre_820-91" x1="6.41" y1="2.48" x2="461.43" y2="2.48" xlink:href="#Degradado_sin_nombre_820"/><linearGradient id="Degradado_sin_nombre_820-92" x1="6.41" y1="2.48" x2="461.43" y2="2.48" xlink:href="#Degradado_sin_nombre_820"/><linearGradient id="Degradado_sin_nombre_820-93" x1="6.42" y1="2.48" x2="461.42" y2="2.48" xlink:href="#Degradado_sin_nombre_820"/><linearGradient id="Degradado_sin_nombre_820-95" x1="6.37" y1="2.48" x2="461.43" y2="2.48" xlink:href="#Degradado_sin_nombre_820"/><linearGradient id="Degradado_sin_nombre_820-96" x1="6.41" y1="2.48" x2="461.43" y2="2.48" xlink:href="#Degradado_sin_nombre_820"/><style>.cls-1{fill:url(#Degradado_sin_nombre_820)}.cls-13{fill:url(#Degradado_sin_nombre_820-14)}.cls-30{fill:url(#Degradado_sin_nombre_820-32)}.cls-35{fill:url(#Degradado_sin_nombre_820-38)}.cls-38{fill:url(#Degradado_sin_nombre_820-41)}.cls-56{fill:url(#Degradado_sin_nombre_820-61)}.cls-61{fill:url(#Degradado_sin_nombre_820-67)}.cls-66{fill:url(#Degradado_sin_nombre_820-75)}.cls-67{fill:url(#Degradado_sin_nombre_820-77)}.cls-68{fill:url(#Degradado_sin_nombre_820-78)}.cls-79{fill:url(#Degradado_sin_nombre_820-92)}</style></defs><path class="cls-1" d="M0 4.96h10.89v.88H0zM42.17 4.96h10.89v.88H42.17z"/><path fill="url(#Degradado_sin_nombre_820-3)" d="M16.61 0h.91v4.96h-.91z"/><path fill="url(#Degradado_sin_nombre_820-4)" d="M18.72 0h.91v4.96h-.91z"/><path fill="url(#Degradado_sin_nombre_820-5)" d="M20.82 0h.91v4.96h-.91z"/><path fill="url(#Degradado_sin_nombre_820-6)" d="M22.92 0h.91v4.96h-.91z"/><path fill="url(#Degradado_sin_nombre_820-7)" d="M25.03 0h.91v4.96h-.91z"/><path fill="url(#Degradado_sin_nombre_820-8)" d="M27.13 0h.91v4.96h-.91z"/><path fill="url(#Degradado_sin_nombre_820-9)" d="M29.23 0h.91v4.96h-.91z"/><path fill="url(#Degradado_sin_nombre_820-10)" d="M31.33 0h.91v4.96h-.91z"/><path fill="url(#Degradado_sin_nombre_820-11)" d="M33.44 0h.91v4.96h-.91z"/><path fill="url(#Degradado_sin_nombre_820-12)" d="M35.54 0h.91v4.96h-.91z"/><path fill="url(#Degradado_sin_nombre_820-13)" d="M53.06 4.96h10.89v.88H53.06z"/><path class="cls-13" d="M95.23 4.96h10.89v.88H95.23z"/><path fill="url(#Degradado_sin_nombre_820-15)" d="M69.67 0h.91v4.96h-.91z"/><path fill="url(#Degradado_sin_nombre_820-16)" d="M71.78 0h.91v4.96h-.91z"/><path fill="url(#Degradado_sin_nombre_820-17)" d="M73.88 0h.91v4.96h-.91z"/><path fill="url(#Degradado_sin_nombre_820-18)" d="M75.98 0h.91v4.96h-.91z"/><path fill="url(#Degradado_sin_nombre_820-19)" d="M78.09 0H79v4.96h-.91z"/><path fill="url(#Degradado_sin_nombre_820-20)" d="M80.19 0h.91v4.96h-.91z"/><path fill="url(#Degradado_sin_nombre_820-21)" d="M82.29 0h.91v4.96h-.91z"/><path fill="url(#Degradado_sin_nombre_820-22)" d="M84.39 0h.91v4.96h-.91z"/><path fill="url(#Degradado_sin_nombre_820-23)" d="M86.5 0h.91v4.96h-.91z"/><path fill="url(#Degradado_sin_nombre_820-24)" d="M88.6 0h.91v4.96h-.91z"/><path class="cls-13" d="M106.12 4.96h10.89v.88h-10.89z"/><path fill="url(#Degradado_sin_nombre_820-26)" d="M148.29 4.96h10.89v.88h-10.89z"/><path fill="url(#Degradado_sin_nombre_820-27)" d="M122.73 0h.91v4.96h-.91z"/><path fill="url(#Degradado_sin_nombre_820-28)" d="M124.84 0h.91v4.96h-.91z"/><path fill="url(#Degradado_sin_nombre_820-29)" d="M126.94 0h.91v4.96h-.91z"/><path fill="url(#Degradado_sin_nombre_820-30)" d="M129.04 0h.91v4.96h-.91z"/><path fill="url(#Degradado_sin_nombre_820-31)" d="M131.15 0h.91v4.96h-.91z"/><path class="cls-30" d="M133.25 0h.91v4.96h-.91z"/><path fill="url(#Degradado_sin_nombre_820-33)" d="M135.35 0h.91v4.96h-.91z"/><path fill="url(#Degradado_sin_nombre_820-34)" d="M137.45 0h.91v4.96h-.91z"/><path class="cls-30" d="M139.56 0h.91v4.96h-.91z"/><path fill="url(#Degradado_sin_nombre_820-36)" d="M141.66 0h.91v4.96h-.91z"/><path fill="url(#Degradado_sin_nombre_820-37)" d="M159.18 4.96h10.89v.88h-10.89z"/><path class="cls-35" d="M201.35 4.96h10.89v.88h-10.89z"/><path fill="url(#Degradado_sin_nombre_820-39)" d="M175.79 0h.91v4.96h-.91z"/><path fill="url(#Degradado_sin_nombre_820-40)" d="M177.9 0h.91v4.96h-.91z"/><path class="cls-38" d="M180 0h.91v4.96H180z"/><path fill="url(#Degradado_sin_nombre_820-42)" d="M182.1 0h.91v4.96h-.91z"/><path fill="url(#Degradado_sin_nombre_820-43)" d="M184.21 0h.91v4.96h-.91z"/><path class="cls-38" d="M186.31 0h.91v4.96h-.91z"/><path fill="url(#Degradado_sin_nombre_820-45)" d="M188.41 0h.91v4.96h-.91z"/><path fill="url(#Degradado_sin_nombre_820-46)" d="M190.51 0h.91v4.96h-.91z"/><path fill="url(#Degradado_sin_nombre_820-47)" d="M192.62 0h.91v4.96h-.91z"/><path fill="url(#Degradado_sin_nombre_820-48)" d="M194.72 0h.91v4.96h-.91z"/><path class="cls-35" d="M212.24 4.96h10.89v.88h-10.89z"/><path fill="url(#Degradado_sin_nombre_820-50)" d="M254.41 4.96h10.89v.88h-10.89z"/><path fill="url(#Degradado_sin_nombre_820-51)" d="M228.85 0h.91v4.96h-.91z"/><path fill="url(#Degradado_sin_nombre_820-52)" d="M230.96 0h.91v4.96h-.91z"/><path fill="url(#Degradado_sin_nombre_820-53)" d="M233.06 0h.91v4.96h-.91z"/><path fill="url(#Degradado_sin_nombre_820-54)" d="M235.16 0h.91v4.96h-.91z"/><path fill="url(#Degradado_sin_nombre_820-55)" d="M237.26 0h.91v4.96h-.91z"/><path fill="url(#Degradado_sin_nombre_820-56)" d="M239.37 0h.91v4.96h-.91z"/><path fill="url(#Degradado_sin_nombre_820-57)" d="M241.47 0h.91v4.96h-.91z"/><path fill="url(#Degradado_sin_nombre_820-58)" d="M243.57 0h.91v4.96h-.91z"/><path fill="url(#Degradado_sin_nombre_820-59)" d="M245.68 0h.91v4.96h-.91z"/><path fill="url(#Degradado_sin_nombre_820-60)" d="M247.78 0h.91v4.96h-.91z"/><path class="cls-56" d="M265.3 4.96h10.89v.88H265.3z"/><path class="cls-35" d="M307.47 4.96h10.89v.88h-10.89z"/><path fill="url(#Degradado_sin_nombre_820-63)" d="M281.91 0h.91v4.96h-.91z"/><path fill="url(#Degradado_sin_nombre_820-64)" d="M284.02 0h.91v4.96h-.91z"/><path fill="url(#Degradado_sin_nombre_820-65)" d="M286.12 0h.91v4.96h-.91z"/><path fill="url(#Degradado_sin_nombre_820-66)" d="M288.22 0h.91v4.96h-.91z"/><path class="cls-61" d="M290.32 0h.91v4.96h-.91zM292.43 0h.91v4.96h-.91z"/><path fill="url(#Degradado_sin_nombre_820-69)" d="M294.53 0h.91v4.96h-.91z"/><path fill="url(#Degradado_sin_nombre_820-70)" d="M296.63 0h.91v4.96h-.91z"/><path fill="url(#Degradado_sin_nombre_820-71)" d="M298.74 0h.91v4.96h-.91z"/><path fill="url(#Degradado_sin_nombre_820-72)" d="M300.84 0h.91v4.96h-.91z"/><path class="cls-35" d="M318.36 4.96h10.89v.88h-10.89z"/><path class="cls-56" d="M360.53 4.96h10.89v.88h-10.89z"/><path class="cls-66" d="M334.97 0h.91v4.96h-.91zM337.08 0h.91v4.96h-.91z"/><path class="cls-67" d="M339.18 0h.91v4.96h-.91z"/><path class="cls-68" d="M341.28 0h.91v4.96h-.91zM343.38 0h.91v4.96h-.91z"/><path fill="url(#Degradado_sin_nombre_820-80)" d="M345.49 0h.91v4.96h-.91z"/><path fill="url(#Degradado_sin_nombre_820-81)" d="M347.59 0h.91v4.96h-.91z"/><path fill="url(#Degradado_sin_nombre_820-82)" d="M349.69 0h.91v4.96h-.91z"/><path class="cls-67" d="M351.8 0h.91v4.96h-.91z"/><path fill="url(#Degradado_sin_nombre_820-84)" d="M353.9 0h.91v4.96h-.91z"/><path class="cls-56" d="M371.42 4.96h10.89v.88h-10.89z"/><path fill="url(#Degradado_sin_nombre_820-86)" d="M413.59 4.96h10.89v.88h-10.89z"/><path fill="url(#Degradado_sin_nombre_820-87)" d="M388.03 0h.91v4.96h-.91z"/><path fill="url(#Degradado_sin_nombre_820-88)" d="M390.14 0h.91v4.96h-.91z"/><path fill="url(#Degradado_sin_nombre_820-89)" d="M392.24 0h.91v4.96h-.91z"/><path fill="url(#Degradado_sin_nombre_820-90)" d="M394.34 0h.91v4.96h-.91z"/><path fill="url(#Degradado_sin_nombre_820-91)" d="M396.44 0h.91v4.96h-.91z"/><path class="cls-79" d="M398.55 0h.91v4.96h-.91z"/><path fill="url(#Degradado_sin_nombre_820-93)" d="M400.65 0h.91v4.96h-.91z"/><path class="cls-79" d="M402.75 0h.91v4.96h-.91z"/><path fill="url(#Degradado_sin_nombre_820-95)" d="M404.86 0h.91v4.96h-.91z"/><path fill="url(#Degradado_sin_nombre_820-96)" d="M406.96 0h.91v4.96h-.91z"/></svg>