<svg preserveAspectRatio="none" id="Layer_1" data-name="Layer 1" xmlns="http://www.w3.org/2000/svg" viewBox="0 0 713.64 49.2"><defs><style>.cls-1{fill:#02a6ff;}</style></defs><title>line3</title><g id="_编组_" data-name="&lt;编组&gt;"><rect id="_矩形_" data-name="&lt;矩形&gt;" class="cls-1" y="19.64" width="320.48" height="7.72"/><path id="_复合路径_" data-name="&lt;复合路径&gt;" class="cls-1" d="M547.59,80.68H244V31.48H547.59v49.2ZM247.28,77.37h297V34.79h-297V77.37Z" transform="translate(-56.74 -31.48)"/><rect id="_矩形_2" data-name="&lt;矩形&gt;" class="cls-1" x="315.83" y="16.86" width="12.87" height="14.77"/><rect id="_矩形_3" data-name="&lt;矩形&gt;" class="cls-1" x="437.74" y="19.64" width="275.91" height="7.72"/><rect id="_矩形_4" data-name="&lt;矩形&gt;" class="cls-1" x="628.74" y="3.95" width="84.9" height="37.86"/><rect id="_矩形_5" data-name="&lt;矩形&gt;" class="cls-1" x="5.16" y="5.67" width="13.48" height="9.18"/><rect id="_矩形_6" data-name="&lt;矩形&gt;" class="cls-1" x="26.1" y="5.67" width="13.48" height="9.18"/><rect id="_矩形_7" data-name="&lt;矩形&gt;" class="cls-1" x="47.04" y="5.67" width="13.48" height="9.18"/><rect id="_矩形_8" data-name="&lt;矩形&gt;" class="cls-1" x="67.98" y="5.67" width="13.48" height="9.18"/><rect id="_矩形_9" data-name="&lt;矩形&gt;" class="cls-1" x="88.92" y="5.67" width="13.48" height="9.18"/><rect id="_矩形_10" data-name="&lt;矩形&gt;" class="cls-1" x="109.86" y="5.67" width="13.48" height="9.18"/></g><g id="_编组_2" data-name="&lt;编组&gt;"><rect id="_矩形_11" data-name="&lt;矩形&gt;" class="cls-1" y="19.64" width="320.48" height="7.72"/><path id="_复合路径_2" data-name="&lt;复合路径&gt;" class="cls-1" d="M547.59,80.68H244V31.48H547.59v49.2ZM247.28,77.37h297V34.79h-297V77.37Z" transform="translate(-56.74 -31.48)"/><rect id="_矩形_12" data-name="&lt;矩形&gt;" class="cls-1" x="315.83" y="16.86" width="12.87" height="14.77"/><rect id="_矩形_13" data-name="&lt;矩形&gt;" class="cls-1" x="437.74" y="19.64" width="275.91" height="7.72"/><rect id="_矩形_14" data-name="&lt;矩形&gt;" class="cls-1" x="628.74" y="3.95" width="84.9" height="37.86"/><rect id="_矩形_15" data-name="&lt;矩形&gt;" class="cls-1" x="5.16" y="5.67" width="13.48" height="9.18"/><rect id="_矩形_16" data-name="&lt;矩形&gt;" class="cls-1" x="26.1" y="5.67" width="13.48" height="9.18"/><rect id="_矩形_17" data-name="&lt;矩形&gt;" class="cls-1" x="47.04" y="5.67" width="13.48" height="9.18"/><rect id="_矩形_18" data-name="&lt;矩形&gt;" class="cls-1" x="67.98" y="5.67" width="13.48" height="9.18"/><rect id="_矩形_19" data-name="&lt;矩形&gt;" class="cls-1" x="88.92" y="5.67" width="13.48" height="9.18"/><rect id="_矩形_20" data-name="&lt;矩形&gt;" class="cls-1" x="109.86" y="5.67" width="13.48" height="9.18"/></g></svg>