<svg preserveAspectRatio="none" id="Layer_1" data-name="Layer 1" xmlns="http://www.w3.org/2000/svg" viewBox="0 0 442.5 28.43"><defs><style>.cls-1{fill:#0ff}</style></defs><path id="_路径_" data-name="&lt;路径&gt;" class="cls-1" d="M403.62 27.93l1.38-1.38h13.79l1.59 1.38h-16.76z"/><path id="_路径_2" data-name="&lt;路径&gt;" class="cls-1" d="M0 7.5h442.5v1H0z"/><path id="_路径_3" data-name="&lt;路径&gt;" class="cls-1" d="M7.83 8.34l5.83 5.84h129.11L149.79 8 7.83 8.34z"/><path id="_路径_4" data-name="&lt;路径&gt;" class="cls-1" d="M182.54 8l4.3-4.3h61.45l3.87 4.3h-69.62z"/><path id="_路径_5" data-name="&lt;路径&gt;" class="cls-1" d="M296.29 8l2.14 2.14h74.73L375.79 8h-79.5z"/><path id="_矩形_" data-name="&lt;矩形&gt;" class="cls-1" d="M383.05 6.5h6.92v2h-6.92z"/><path id="_矩形_2" data-name="&lt;矩形&gt;" class="cls-1" d="M392.97 6.5h6.92v2h-6.92z"/><path id="_矩形_3" data-name="&lt;矩形&gt;" class="cls-1" d="M402.89 6.5h6.92v2h-6.92z"/><path id="_矩形_4" data-name="&lt;矩形&gt;" class="cls-1" d="M412.8 6.5h6.92v2h-6.92z"/><path id="_矩形_5" data-name="&lt;矩形&gt;" class="cls-1" d="M422.72 6.5h6.92v2h-6.92z"/><path id="_矩形_6" data-name="&lt;矩形&gt;" class="cls-1" d="M432.64 6.5h6.92v2h-6.92z"/><path id="_路径_6" data-name="&lt;路径&gt;" class="cls-1" d="M143.68 16.5h-36.02v-1h35.61l6.17-6.18h8.6v1h-8.18l-6.18 6.18z"/><path id="_路径_7" data-name="&lt;路径&gt;" class="cls-1" d="M182.26 5.48l-.7-.71 4.39-4.4h20.21v1h-19.79l-4.11 4.11z"/><path id="_路径_8" data-name="&lt;路径&gt;" class="cls-1" d="M374.83 12.83h-76.14v-1h75.72l2.12-2.11.71.7-2.41 2.41z"/><path id="_路径_9" data-name="&lt;路径&gt;" class="cls-1" d="M13.66 14.18h44.79v3.66H13.66z"/><path id="_路径_10" data-name="&lt;路径&gt;" class="cls-1" d="M92.79 8.14l3.92-3.93h33.24l3.81 3.81-40.97.12z"/><path id="_路径_11" data-name="&lt;路径&gt;" class="cls-1" d="M204.7 8.34l1.6 1.59h26.82l2.13-2.13-30.55.54z"/><path id="_路径_12" data-name="&lt;路径&gt;" class="cls-1" d="M307.41 8l3.75-3.75h37.5l3.97 3.97L307.41 8z"/><path id="_路径_13" data-name="&lt;路径&gt;" class="cls-1" d="M402.16 8l2.35 2.35h35.04l2.4-2.4-39.79.05z"/><path id="_路径_14" data-name="&lt;路径&gt;" class="cls-1" d="M236.2 4.08l2.5-2.41h20.59l2.12 2.12-25.21.29z"/><path id="_路径_15" data-name="&lt;路径&gt;" class="cls-1" d="M278.12 6.9h-12.56l-5.9-5.9h-7.04V0h7.46l5.9 5.9h12.14v1z"/><path id="_路径_16" data-name="&lt;路径&gt;" class="cls-1" d="M306.47 7.19l-.7-.71 4.89-4.9h20.54v1h-20.12l-4.61 4.61z"/><path id="_路径_17" data-name="&lt;路径&gt;" class="cls-1" d="M426.18 28.43h-40.06l-7.29-7.29h-90.39L275.87 8.58l.71-.71 12.27 12.27h90.39l7.29 7.29h39.65v1z"/><path id="_复合路径_" data-name="&lt;复合路径&gt;" class="cls-1" d="M810.34 626.11h-91.81l-4.87-4.87h91.81zm-91.39-1h89l-2.95-2.87h-89z" transform="translate(-426.22 -601.09)"/><path id="_路径_18" data-name="&lt;路径&gt;" class="cls-1" d="M220.38 17.44h-68.6v-1h68.19l8.3-8.29.7.7-8.59 8.59z"/></svg>