<svg preserveAspectRatio="none" id="Layer_1" data-name="Layer 1" xmlns="http://www.w3.org/2000/svg" viewBox="0 0 715.36 32.7"><defs><style>.cls-1{fill:#02a6ff}</style></defs><g id="_编组_" data-name="&lt;编组&gt;"><path id="_矩形_" data-name="&lt;矩形&gt;" class="cls-1" d="M0 11.19h713.64v4.88H0z"/><g id="_编组_2" data-name="&lt;编组&gt;"><path id="_路径_" data-name="&lt;路径&gt;" class="cls-1" d="M148.01 0H37L25.53 11.47v2.15h135.96v-.14L148.01 0z"/></g><path id="_矩形_2" data-name="&lt;矩形&gt;" class="cls-1" d="M165.5 16.06h79.38v1.15H165.5z"/><path id="_矩形_3" data-name="&lt;矩形&gt;" class="cls-1" d="M25.53 17.21h132.66v1.94H25.53z"/><g id="_编组_3" data-name="&lt;编组&gt;"><path id="_路径_2" data-name="&lt;路径&gt;" class="cls-1" d="M268.19 13.62l19.07 19.08h128.65l19.07-19.08H268.19z"/></g><path id="_路径_3" data-name="&lt;路径&gt;" class="cls-1" d="M259.3 5.09h211.68v3.44H259.3z"/><path id="_复合路径_" data-name="&lt;复合路径&gt;" class="cls-1" d="M772.1 221.3H593.69v-26.39H772.1v26.39zm-175-3.44h171.56v-19.5H597.13v19.5z" transform="translate(-56.74 -194.05)"/><path id="_矩形_4" data-name="&lt;矩形&gt;" class="cls-1" d="M437.31 18.93h4.95v2.04h-4.95z"/><path id="_矩形_5" data-name="&lt;矩形&gt;" class="cls-1" d="M446.89 18.93h4.95v2.04h-4.95z"/><path id="_矩形_6" data-name="&lt;矩形&gt;" class="cls-1" d="M456.46 18.93h4.95v2.04h-4.95z"/><path id="_矩形_7" data-name="&lt;矩形&gt;" class="cls-1" d="M466.03 18.93h4.95v2.04h-4.95z"/><path id="_矩形_8" data-name="&lt;矩形&gt;" class="cls-1" d="M475.61 18.93h4.95v2.04h-4.95z"/><path id="_矩形_9" data-name="&lt;矩形&gt;" class="cls-1" d="M485.18 18.93h4.95v2.04h-4.95z"/><path id="_矩形_10" data-name="&lt;矩形&gt;" class="cls-1" d="M494.75 18.93h4.95v2.04h-4.95z"/><path id="_矩形_11" data-name="&lt;矩形&gt;" class="cls-1" d="M504.32 18.93h4.95v2.04h-4.95z"/><path id="_矩形_12" data-name="&lt;矩形&gt;" class="cls-1" d="M513.9 18.93h4.95v2.04h-4.95z"/><path id="_矩形_13" data-name="&lt;矩形&gt;" class="cls-1" d="M523.47 18.93h4.95v2.04h-4.95z"/><path id="_矩形_14" data-name="&lt;矩形&gt;" class="cls-1" d="M287.98 1.15h3.16v8.6h-3.16z"/><path id="_矩形_15" data-name="&lt;矩形&gt;" class="cls-1" d="M300.31 1.15h3.16v8.6h-3.16z"/><path id="_矩形_16" data-name="&lt;矩形&gt;" class="cls-1" d="M312.65 1.15h3.16v8.6h-3.16z"/><path id="_矩形_17" data-name="&lt;矩形&gt;" class="cls-1" d="M324.98 1.15h3.16v8.6h-3.16z"/><path id="_矩形_18" data-name="&lt;矩形&gt;" class="cls-1" d="M337.32 1.15h3.16v8.6h-3.16z"/><path id="_矩形_19" data-name="&lt;矩形&gt;" class="cls-1" d="M349.65 1.15h3.16v8.6h-3.16z"/><path id="_矩形_20" data-name="&lt;矩形&gt;" class="cls-1" d="M361.98 1.15h3.16v8.6h-3.16z"/></g><g id="_编组_4" data-name="&lt;编组&gt;"><path id="_矩形_21" data-name="&lt;矩形&gt;" class="cls-1" d="M0 11.19h713.64v4.88H0z"/><g id="_编组_5" data-name="&lt;编组&gt;"><path id="_路径_4" data-name="&lt;路径&gt;" class="cls-1" d="M148.01 0H37L25.53 11.47v2.15h135.96v-.14L148.01 0z"/></g><path id="_矩形_22" data-name="&lt;矩形&gt;" class="cls-1" d="M165.5 16.06h79.38v1.15H165.5z"/><path id="_矩形_23" data-name="&lt;矩形&gt;" class="cls-1" d="M25.53 17.21h132.66v1.94H25.53z"/><g id="_编组_6" data-name="&lt;编组&gt;"><path id="_路径_5" data-name="&lt;路径&gt;" class="cls-1" d="M268.19 13.62l19.07 19.08h128.65l19.07-19.08H268.19z"/></g><path id="_路径_6" data-name="&lt;路径&gt;" class="cls-1" d="M259.3 5.09h211.68v3.44H259.3z"/><path id="_复合路径_2" data-name="&lt;复合路径&gt;" class="cls-1" d="M772.1 221.3H593.69v-26.39H772.1v26.39zm-175-3.44h171.56v-19.5H597.13v19.5z" transform="translate(-56.74 -194.05)"/><path id="_矩形_24" data-name="&lt;矩形&gt;" class="cls-1" d="M437.31 18.93h4.95v2.04h-4.95z"/><path id="_矩形_25" data-name="&lt;矩形&gt;" class="cls-1" d="M446.89 18.93h4.95v2.04h-4.95z"/><path id="_矩形_26" data-name="&lt;矩形&gt;" class="cls-1" d="M456.46 18.93h4.95v2.04h-4.95z"/><path id="_矩形_27" data-name="&lt;矩形&gt;" class="cls-1" d="M466.03 18.93h4.95v2.04h-4.95z"/><path id="_矩形_28" data-name="&lt;矩形&gt;" class="cls-1" d="M475.61 18.93h4.95v2.04h-4.95z"/><path id="_矩形_29" data-name="&lt;矩形&gt;" class="cls-1" d="M485.18 18.93h4.95v2.04h-4.95z"/><path id="_矩形_30" data-name="&lt;矩形&gt;" class="cls-1" d="M494.75 18.93h4.95v2.04h-4.95z"/><path id="_矩形_31" data-name="&lt;矩形&gt;" class="cls-1" d="M504.32 18.93h4.95v2.04h-4.95z"/><path id="_矩形_32" data-name="&lt;矩形&gt;" class="cls-1" d="M513.9 18.93h4.95v2.04h-4.95z"/><path id="_矩形_33" data-name="&lt;矩形&gt;" class="cls-1" d="M523.47 18.93h4.95v2.04h-4.95z"/><path id="_矩形_34" data-name="&lt;矩形&gt;" class="cls-1" d="M287.98 1.15h3.16v8.6h-3.16z"/><path id="_矩形_35" data-name="&lt;矩形&gt;" class="cls-1" d="M300.31 1.15h3.16v8.6h-3.16z"/><path id="_矩形_36" data-name="&lt;矩形&gt;" class="cls-1" d="M312.65 1.15h3.16v8.6h-3.16z"/><path id="_矩形_37" data-name="&lt;矩形&gt;" class="cls-1" d="M324.98 1.15h3.16v8.6h-3.16z"/><path id="_矩形_38" data-name="&lt;矩形&gt;" class="cls-1" d="M337.32 1.15h3.16v8.6h-3.16z"/><path id="_矩形_39" data-name="&lt;矩形&gt;" class="cls-1" d="M349.65 1.15h3.16v8.6h-3.16z"/><path id="_矩形_40" data-name="&lt;矩形&gt;" class="cls-1" d="M361.98 1.15h3.16v8.6h-3.16z"/></g></svg>