<svg preserveAspectRatio="none" id="Layer_1" data-name="Layer 1" xmlns="http://www.w3.org/2000/svg" viewBox="0 0 717.66 56.72"><defs><style>.cls-1{fill:#02a6ff}</style></defs><g id="_编组_" data-name="&lt;编组&gt;"><path id="_复合路径_" data-name="&lt;复合路径&gt;" class="cls-1" d="M420.44 481.17H60.75v-38.72h359.69v38.72zm-356.25-3.44H417v-31.84H64.19v31.84z" transform="translate(-52.72 -432.84)"/><path id="_矩形_" data-name="&lt;矩形&gt;" class="cls-1" d="M166.88 25.74h550.77v6.45H166.88z"/><path id="_矩形_2" data-name="&lt;矩形&gt;" class="cls-1" d="M161.56 21.3h22.8v15.06h-22.8z"/><g id="_编组_2" data-name="&lt;编组&gt;"><path id="_路径_" data-name="&lt;路径&gt;" class="cls-1" d="M677.43 11.62H497.51l-14.12 14.12h208.16l-14.12-14.12z"/></g><path id="_矩形_3" data-name="&lt;矩形&gt;" class="cls-1" d="M16.13 17.21h7.1v4.95h-7.1z"/><path id="_矩形_4" data-name="&lt;矩形&gt;" class="cls-1" d="M28.83 17.21h7.1v4.95h-7.1z"/><path id="_矩形_5" data-name="&lt;矩形&gt;" class="cls-1" d="M41.52 17.21h7.1v4.95h-7.1z"/><path id="_矩形_6" data-name="&lt;矩形&gt;" class="cls-1" d="M54.21 17.21h7.1v4.95h-7.1z"/><path id="_矩形_7" data-name="&lt;矩形&gt;" class="cls-1" d="M66.9 17.21H74v4.95h-7.1z"/><path id="_矩形_8" data-name="&lt;矩形&gt;" class="cls-1" d="M79.6 17.21h7.1v4.95h-7.1z"/><path id="_矩形_9" data-name="&lt;矩形&gt;" class="cls-1" d="M92.29 17.21h7.1v4.95h-7.1z"/><path id="_矩形_10" data-name="&lt;矩形&gt;" class="cls-1" d="M104.98 17.21h7.1v4.95h-7.1z"/><path id="_矩形_11" data-name="&lt;矩形&gt;" class="cls-1" d="M117.67 17.21h7.1v4.95h-7.1z"/><path id="_矩形_12" data-name="&lt;矩形&gt;" class="cls-1" d="M130.37 17.21h7.1v4.95h-7.1z"/><path id="_矩形_13" data-name="&lt;矩形&gt;" class="cls-1" d="M143.06 17.21h7.1v4.95h-7.1z"/><path id="_路径_2" data-name="&lt;路径&gt;" class="cls-1" d="M25.53 53.49H0V2.44h25.53v3.44H3.44v44.17h22.09v3.44z"/><path id="_矩形_14" data-name="&lt;矩形&gt;" class="cls-1" d="M20.44 0h10.47v7.82H20.44z"/><path id="_矩形_15" data-name="&lt;矩形&gt;" class="cls-1" d="M20.44 48.91h10.47v7.82H20.44z"/><path id="_矩形_16" data-name="&lt;矩形&gt;" class="cls-1" d="M379.48 11.33h3.23v36.64h-3.23z"/><path id="_矩形_17" data-name="&lt;矩形&gt;" class="cls-1" d="M393.36 11.33h3.23v36.64h-3.23z"/><path id="_矩形_18" data-name="&lt;矩形&gt;" class="cls-1" d="M407.23 11.33h3.23v36.64h-3.23z"/><path id="_矩形_19" data-name="&lt;矩形&gt;" class="cls-1" d="M421.11 11.33h3.23v36.64h-3.23z"/><path id="_矩形_20" data-name="&lt;矩形&gt;" class="cls-1" d="M434.98 11.33h3.23v36.64h-3.23z"/><path id="_矩形_21" data-name="&lt;矩形&gt;" class="cls-1" d="M448.86 11.33h3.23v36.64h-3.23z"/><path id="_矩形_22" data-name="&lt;矩形&gt;" class="cls-1" d="M462.73 11.33h3.23v36.64h-3.23z"/><g id="_编组_3" data-name="&lt;编组&gt;"><path id="_路径_3" data-name="&lt;路径&gt;" class="cls-1" d="M481.6 42.24l-5.74 5.73h14.26l5.74-5.73H481.6z"/></g><g id="_编组_4" data-name="&lt;编组&gt;"><path id="_路径_4" data-name="&lt;路径&gt;" class="cls-1" d="M501.59 42.24l-5.73 5.73h14.25l5.74-5.73h-14.26z"/></g><g id="_编组_5" data-name="&lt;编组&gt;"><path id="_路径_5" data-name="&lt;路径&gt;" class="cls-1" d="M521.58 42.24l-5.73 5.73h14.25l5.74-5.73h-14.26z"/></g><g id="_编组_6" data-name="&lt;编组&gt;"><path id="_路径_6" data-name="&lt;路径&gt;" class="cls-1" d="M541.58 42.24l-5.74 5.73h14.25l5.74-5.73h-14.25z"/></g><g id="_编组_7" data-name="&lt;编组&gt;"><path id="_路径_7" data-name="&lt;路径&gt;" class="cls-1" d="M561.57 42.24l-5.74 5.73h14.25l5.74-5.73h-14.25z"/></g><g id="_编组_8" data-name="&lt;编组&gt;"><path id="_路径_8" data-name="&lt;路径&gt;" class="cls-1" d="M581.56 42.24l-5.74 5.73h14.26l5.73-5.73h-14.25z"/></g><g id="_编组_9" data-name="&lt;编组&gt;"><path id="_路径_9" data-name="&lt;路径&gt;" class="cls-1" d="M601.55 42.24l-5.74 5.73h14.26l5.73-5.73h-14.25z"/></g><g id="_编组_10" data-name="&lt;编组&gt;"><path id="_路径_10" data-name="&lt;路径&gt;" class="cls-1" d="M621.54 42.24l-5.74 5.73h14.26l5.73-5.73h-14.25z"/></g><g id="_编组_11" data-name="&lt;编组&gt;"><path id="_路径_11" data-name="&lt;路径&gt;" class="cls-1" d="M641.53 42.24l-5.74 5.73h14.26l5.74-5.73h-14.26z"/></g><g id="_编组_12" data-name="&lt;编组&gt;"><path id="_路径_12" data-name="&lt;路径&gt;" class="cls-1" d="M661.52 42.24l-5.73 5.73h14.25l5.74-5.73h-14.26z"/></g><g id="_编组_13" data-name="&lt;编组&gt;"><path id="_路径_13" data-name="&lt;路径&gt;" class="cls-1" d="M681.51 42.24l-5.73 5.73h14.25l5.74-5.73h-14.26z"/></g><g id="_编组_14" data-name="&lt;编组&gt;"><path id="_路径_14" data-name="&lt;路径&gt;" class="cls-1" d="M701.51 42.24l-5.74 5.73h14.25l5.74-5.73h-14.25z"/></g></g><g id="_编组_15" data-name="&lt;编组&gt;"><path id="_复合路径_2" data-name="&lt;复合路径&gt;" class="cls-1" d="M420.44 481.17H60.75v-38.72h359.69v38.72zm-356.25-3.44H417v-31.84H64.19v31.84z" transform="translate(-52.72 -432.84)"/><path id="_矩形_23" data-name="&lt;矩形&gt;" class="cls-1" d="M166.88 25.74h550.77v6.45H166.88z"/><path id="_矩形_24" data-name="&lt;矩形&gt;" class="cls-1" d="M161.56 21.3h22.8v15.06h-22.8z"/><g id="_编组_16" data-name="&lt;编组&gt;"><path id="_路径_15" data-name="&lt;路径&gt;" class="cls-1" d="M677.43 11.62H497.51l-14.12 14.12h208.16l-14.12-14.12z"/></g><path id="_矩形_25" data-name="&lt;矩形&gt;" class="cls-1" d="M16.13 17.21h7.1v4.95h-7.1z"/><path id="_矩形_26" data-name="&lt;矩形&gt;" class="cls-1" d="M28.83 17.21h7.1v4.95h-7.1z"/><path id="_矩形_27" data-name="&lt;矩形&gt;" class="cls-1" d="M41.52 17.21h7.1v4.95h-7.1z"/><path id="_矩形_28" data-name="&lt;矩形&gt;" class="cls-1" d="M54.21 17.21h7.1v4.95h-7.1z"/><path id="_矩形_29" data-name="&lt;矩形&gt;" class="cls-1" d="M66.9 17.21H74v4.95h-7.1z"/><path id="_矩形_30" data-name="&lt;矩形&gt;" class="cls-1" d="M79.6 17.21h7.1v4.95h-7.1z"/><path id="_矩形_31" data-name="&lt;矩形&gt;" class="cls-1" d="M92.29 17.21h7.1v4.95h-7.1z"/><path id="_矩形_32" data-name="&lt;矩形&gt;" class="cls-1" d="M104.98 17.21h7.1v4.95h-7.1z"/><path id="_矩形_33" data-name="&lt;矩形&gt;" class="cls-1" d="M117.67 17.21h7.1v4.95h-7.1z"/><path id="_矩形_34" data-name="&lt;矩形&gt;" class="cls-1" d="M130.37 17.21h7.1v4.95h-7.1z"/><path id="_矩形_35" data-name="&lt;矩形&gt;" class="cls-1" d="M143.06 17.21h7.1v4.95h-7.1z"/><path id="_路径_16" data-name="&lt;路径&gt;" class="cls-1" d="M25.53 53.49H0V2.44h25.53v3.44H3.44v44.17h22.09v3.44z"/><path id="_矩形_36" data-name="&lt;矩形&gt;" class="cls-1" d="M20.44 0h10.47v7.82H20.44z"/><path id="_矩形_37" data-name="&lt;矩形&gt;" class="cls-1" d="M20.44 48.91h10.47v7.82H20.44z"/><path id="_矩形_38" data-name="&lt;矩形&gt;" class="cls-1" d="M379.48 11.33h3.23v36.64h-3.23z"/><path id="_矩形_39" data-name="&lt;矩形&gt;" class="cls-1" d="M393.36 11.33h3.23v36.64h-3.23z"/><path id="_矩形_40" data-name="&lt;矩形&gt;" class="cls-1" d="M407.23 11.33h3.23v36.64h-3.23z"/><path id="_矩形_41" data-name="&lt;矩形&gt;" class="cls-1" d="M421.11 11.33h3.23v36.64h-3.23z"/><path id="_矩形_42" data-name="&lt;矩形&gt;" class="cls-1" d="M434.98 11.33h3.23v36.64h-3.23z"/><path id="_矩形_43" data-name="&lt;矩形&gt;" class="cls-1" d="M448.86 11.33h3.23v36.64h-3.23z"/><path id="_矩形_44" data-name="&lt;矩形&gt;" class="cls-1" d="M462.73 11.33h3.23v36.64h-3.23z"/><g id="_编组_17" data-name="&lt;编组&gt;"><path id="_路径_17" data-name="&lt;路径&gt;" class="cls-1" d="M481.6 42.24l-5.74 5.73h14.26l5.74-5.73H481.6z"/></g><g id="_编组_18" data-name="&lt;编组&gt;"><path id="_路径_18" data-name="&lt;路径&gt;" class="cls-1" d="M501.59 42.24l-5.73 5.73h14.25l5.74-5.73h-14.26z"/></g><g id="_编组_19" data-name="&lt;编组&gt;"><path id="_路径_19" data-name="&lt;路径&gt;" class="cls-1" d="M521.58 42.24l-5.73 5.73h14.25l5.74-5.73h-14.26z"/></g><g id="_编组_20" data-name="&lt;编组&gt;"><path id="_路径_20" data-name="&lt;路径&gt;" class="cls-1" d="M541.58 42.24l-5.74 5.73h14.25l5.74-5.73h-14.25z"/></g><g id="_编组_21" data-name="&lt;编组&gt;"><path id="_路径_21" data-name="&lt;路径&gt;" class="cls-1" d="M561.57 42.24l-5.74 5.73h14.25l5.74-5.73h-14.25z"/></g><g id="_编组_22" data-name="&lt;编组&gt;"><path id="_路径_22" data-name="&lt;路径&gt;" class="cls-1" d="M581.56 42.24l-5.74 5.73h14.26l5.73-5.73h-14.25z"/></g><g id="_编组_23" data-name="&lt;编组&gt;"><path id="_路径_23" data-name="&lt;路径&gt;" class="cls-1" d="M601.55 42.24l-5.74 5.73h14.26l5.73-5.73h-14.25z"/></g><g id="_编组_24" data-name="&lt;编组&gt;"><path id="_路径_24" data-name="&lt;路径&gt;" class="cls-1" d="M621.54 42.24l-5.74 5.73h14.26l5.73-5.73h-14.25z"/></g><g id="_编组_25" data-name="&lt;编组&gt;"><path id="_路径_25" data-name="&lt;路径&gt;" class="cls-1" d="M641.53 42.24l-5.74 5.73h14.26l5.74-5.73h-14.26z"/></g><g id="_编组_26" data-name="&lt;编组&gt;"><path id="_路径_26" data-name="&lt;路径&gt;" class="cls-1" d="M661.52 42.24l-5.73 5.73h14.25l5.74-5.73h-14.26z"/></g><g id="_编组_27" data-name="&lt;编组&gt;"><path id="_路径_27" data-name="&lt;路径&gt;" class="cls-1" d="M681.51 42.24l-5.73 5.73h14.25l5.74-5.73h-14.26z"/></g><g id="_编组_28" data-name="&lt;编组&gt;"><path id="_路径_28" data-name="&lt;路径&gt;" class="cls-1" d="M701.51 42.24l-5.74 5.73h14.25l5.74-5.73h-14.25z"/></g></g></svg>