<svg preserveAspectRatio="none" id="Layer_1" data-name="Layer 1" xmlns="http://www.w3.org/2000/svg" viewBox="0 0 723.24 38.79"><defs><style>.cls-1{fill:#02a6ff;}</style></defs><title>line9</title><g id="_编组_" data-name="&lt;编组&gt;"><rect id="_路径_" data-name="&lt;路径&gt;" class="cls-1" y="20.08" width="232.33" height="4.59"/><polygon id="_路径_2" data-name="&lt;路径&gt;" class="cls-1" points="402.43 20.08 402.43 20.65 399.85 20.65 399.85 20.08 261.02 20.08 261.02 24.67 719.95 24.67 719.95 20.08 402.43 20.08"/><g id="_编组_2" data-name="&lt;编组&gt;"><polygon id="_路径_3" data-name="&lt;路径&gt;" class="cls-1" points="11.19 22.37 23.52 34.71 173.53 34.71 185.87 22.37 11.19 22.37"/></g><g id="_编组_3" data-name="&lt;编组&gt;"><polygon id="_路径_4" data-name="&lt;路径&gt;" class="cls-1" points="496.22 0 485.61 0 485.61 18.36 482.74 18.36 482.74 0 465.6 0 465.6 19.5 462.95 19.5 462.95 0 443.44 0 443.44 17.78 437.71 17.78 437.71 0 423.37 0 423.37 15.2 418.2 15.2 418.2 0 402.43 0 402.43 20.65 399.85 20.65 399.85 0 380.05 0 380.05 18.36 373.74 18.36 373.74 0 354.24 0 354.24 18.64 351.08 18.64 351.08 0 331 0 331 18.36 325.56 18.36 325.56 0 315.66 0 293.29 22.37 518.59 22.37 496.22 0"/></g><rect id="_路径_5" data-name="&lt;路径&gt;" class="cls-1" x="533.22" y="28.97" width="186.73" height="3.44"/><rect id="_矩形_" data-name="&lt;矩形&gt;" class="cls-1" x="710.06" y="16.35" width="12.33" height="11.19"/><rect id="_矩形_2" data-name="&lt;矩形&gt;" class="cls-1" x="719.37" y="28.38" width="0.97" height="4.54"/><rect id="_矩形_3" data-name="&lt;矩形&gt;" class="cls-1" x="720.89" y="28.38" width="0.97" height="4.54"/><rect id="_矩形_4" data-name="&lt;矩形&gt;" class="cls-1" x="722.27" y="28.38" width="0.97" height="4.54"/><rect id="_矩形_5" data-name="&lt;矩形&gt;" class="cls-1" x="531.07" y="27.25" width="31.7" height="7.6"/><rect id="_路径_6" data-name="&lt;路径&gt;" class="cls-1" x="191.6" y="32.99" width="183.29" height="3.44"/><rect id="_矩形_6" data-name="&lt;矩形&gt;" class="cls-1" x="189.96" y="30.55" width="8.25" height="8.25"/><rect id="_矩形_7" data-name="&lt;矩形&gt;" class="cls-1" x="205.87" y="32.16" width="16.85" height="5.02"/><rect id="_矩形_8" data-name="&lt;矩形&gt;" class="cls-1" x="228.32" y="32.16" width="16.85" height="5.02"/><rect id="_矩形_9" data-name="&lt;矩形&gt;" class="cls-1" x="250.76" y="32.16" width="16.85" height="5.02"/><rect id="_矩形_10" data-name="&lt;矩形&gt;" class="cls-1" x="273.21" y="32.16" width="16.85" height="5.02"/><rect id="_矩形_11" data-name="&lt;矩形&gt;" class="cls-1" x="295.65" y="32.16" width="16.85" height="5.02"/><rect id="_矩形_12" data-name="&lt;矩形&gt;" class="cls-1" x="318.1" y="32.16" width="16.85" height="5.02"/><rect id="_矩形_13" data-name="&lt;矩形&gt;" class="cls-1" x="340.54" y="32.16" width="16.85" height="5.02"/><rect id="_矩形_14" data-name="&lt;矩形&gt;" class="cls-1" x="367.29" y="32.16" width="7.6" height="5.02"/><rect id="_矩形_15" data-name="&lt;矩形&gt;" class="cls-1" x="535.37" y="12.62" width="9.47" height="4.73"/><rect id="_矩形_16" data-name="&lt;矩形&gt;" class="cls-1" x="555.6" y="12.62" width="9.47" height="4.73"/><rect id="_矩形_17" data-name="&lt;矩形&gt;" class="cls-1" x="575.82" y="12.62" width="9.47" height="4.73"/><rect id="_矩形_18" data-name="&lt;矩形&gt;" class="cls-1" x="596.04" y="12.62" width="9.47" height="4.73"/><rect id="_矩形_19" data-name="&lt;矩形&gt;" class="cls-1" x="616.26" y="12.62" width="9.47" height="4.73"/><rect id="_矩形_20" data-name="&lt;矩形&gt;" class="cls-1" x="636.48" y="12.62" width="9.47" height="4.73"/><rect id="_矩形_21" data-name="&lt;矩形&gt;" class="cls-1" x="656.7" y="12.62" width="9.47" height="4.73"/><rect id="_矩形_22" data-name="&lt;矩形&gt;" class="cls-1" x="676.93" y="12.62" width="9.47" height="4.73"/><rect id="_矩形_23" data-name="&lt;矩形&gt;" class="cls-1" x="697.15" y="12.62" width="9.47" height="4.73"/></g><g id="_编组_4" data-name="&lt;编组&gt;"><rect id="_路径_7" data-name="&lt;路径&gt;" class="cls-1" y="20.08" width="232.33" height="4.59"/><polygon id="_路径_8" data-name="&lt;路径&gt;" class="cls-1" points="402.43 20.08 402.43 20.65 399.85 20.65 399.85 20.08 261.02 20.08 261.02 24.67 719.95 24.67 719.95 20.08 402.43 20.08"/><g id="_编组_5" data-name="&lt;编组&gt;"><polygon id="_路径_9" data-name="&lt;路径&gt;" class="cls-1" points="11.19 22.37 23.52 34.71 173.53 34.71 185.87 22.37 11.19 22.37"/></g><g id="_编组_6" data-name="&lt;编组&gt;"><polygon id="_路径_10" data-name="&lt;路径&gt;" class="cls-1" points="496.22 0 485.61 0 485.61 18.36 482.74 18.36 482.74 0 465.6 0 465.6 19.5 462.95 19.5 462.95 0 443.44 0 443.44 17.78 437.71 17.78 437.71 0 423.37 0 423.37 15.2 418.2 15.2 418.2 0 402.43 0 402.43 20.65 399.85 20.65 399.85 0 380.05 0 380.05 18.36 373.74 18.36 373.74 0 354.24 0 354.24 18.64 351.08 18.64 351.08 0 331 0 331 18.36 325.56 18.36 325.56 0 315.66 0 293.29 22.37 518.59 22.37 496.22 0"/></g><rect id="_路径_11" data-name="&lt;路径&gt;" class="cls-1" x="533.22" y="28.97" width="186.73" height="3.44"/><rect id="_矩形_24" data-name="&lt;矩形&gt;" class="cls-1" x="710.06" y="16.35" width="12.33" height="11.19"/><rect id="_矩形_25" data-name="&lt;矩形&gt;" class="cls-1" x="719.37" y="28.38" width="0.97" height="4.54"/><rect id="_矩形_26" data-name="&lt;矩形&gt;" class="cls-1" x="720.89" y="28.38" width="0.97" height="4.54"/><rect id="_矩形_27" data-name="&lt;矩形&gt;" class="cls-1" x="722.27" y="28.38" width="0.97" height="4.54"/><rect id="_矩形_28" data-name="&lt;矩形&gt;" class="cls-1" x="531.07" y="27.25" width="31.7" height="7.6"/><rect id="_路径_12" data-name="&lt;路径&gt;" class="cls-1" x="191.6" y="32.99" width="183.29" height="3.44"/><rect id="_矩形_29" data-name="&lt;矩形&gt;" class="cls-1" x="189.96" y="30.55" width="8.25" height="8.25"/><rect id="_矩形_30" data-name="&lt;矩形&gt;" class="cls-1" x="205.87" y="32.16" width="16.85" height="5.02"/><rect id="_矩形_31" data-name="&lt;矩形&gt;" class="cls-1" x="228.32" y="32.16" width="16.85" height="5.02"/><rect id="_矩形_32" data-name="&lt;矩形&gt;" class="cls-1" x="250.76" y="32.16" width="16.85" height="5.02"/><rect id="_矩形_33" data-name="&lt;矩形&gt;" class="cls-1" x="273.21" y="32.16" width="16.85" height="5.02"/><rect id="_矩形_34" data-name="&lt;矩形&gt;" class="cls-1" x="295.65" y="32.16" width="16.85" height="5.02"/><rect id="_矩形_35" data-name="&lt;矩形&gt;" class="cls-1" x="318.1" y="32.16" width="16.85" height="5.02"/><rect id="_矩形_36" data-name="&lt;矩形&gt;" class="cls-1" x="340.54" y="32.16" width="16.85" height="5.02"/><rect id="_矩形_37" data-name="&lt;矩形&gt;" class="cls-1" x="367.29" y="32.16" width="7.6" height="5.02"/><rect id="_矩形_38" data-name="&lt;矩形&gt;" class="cls-1" x="535.37" y="12.62" width="9.47" height="4.73"/><rect id="_矩形_39" data-name="&lt;矩形&gt;" class="cls-1" x="555.6" y="12.62" width="9.47" height="4.73"/><rect id="_矩形_40" data-name="&lt;矩形&gt;" class="cls-1" x="575.82" y="12.62" width="9.47" height="4.73"/><rect id="_矩形_41" data-name="&lt;矩形&gt;" class="cls-1" x="596.04" y="12.62" width="9.47" height="4.73"/><rect id="_矩形_42" data-name="&lt;矩形&gt;" class="cls-1" x="616.26" y="12.62" width="9.47" height="4.73"/><rect id="_矩形_43" data-name="&lt;矩形&gt;" class="cls-1" x="636.48" y="12.62" width="9.47" height="4.73"/><rect id="_矩形_44" data-name="&lt;矩形&gt;" class="cls-1" x="656.7" y="12.62" width="9.47" height="4.73"/><rect id="_矩形_45" data-name="&lt;矩形&gt;" class="cls-1" x="676.93" y="12.62" width="9.47" height="4.73"/><rect id="_矩形_46" data-name="&lt;矩形&gt;" class="cls-1" x="697.15" y="12.62" width="9.47" height="4.73"/></g></svg>