<svg preserveAspectRatio="none" id="Layer_1" data-name="Layer 1" xmlns="http://www.w3.org/2000/svg" viewBox="0 0 717.66 56.72"><defs><style>.cls-1{fill:#02a6ff;}</style></defs><title>line6</title><g id="_编组_" data-name="&lt;编组&gt;"><path id="_复合路径_" data-name="&lt;复合路径&gt;" class="cls-1" d="M420.44,481.17H60.75V442.45H420.44v38.72ZM64.19,477.73H417V445.89H64.19v31.84Z" transform="translate(-52.72 -432.84)"/><rect id="_矩形_" data-name="&lt;矩形&gt;" class="cls-1" x="166.88" y="25.74" width="550.77" height="6.45"/><rect id="_矩形_2" data-name="&lt;矩形&gt;" class="cls-1" x="161.56" y="21.3" width="22.8" height="15.06"/><g id="_编组_2" data-name="&lt;编组&gt;"><polygon id="_路径_" data-name="&lt;路径&gt;" class="cls-1" points="677.43 11.62 497.51 11.62 483.39 25.74 691.55 25.74 677.43 11.62"/></g><rect id="_矩形_3" data-name="&lt;矩形&gt;" class="cls-1" x="16.13" y="17.21" width="7.1" height="4.95"/><rect id="_矩形_4" data-name="&lt;矩形&gt;" class="cls-1" x="28.83" y="17.21" width="7.1" height="4.95"/><rect id="_矩形_5" data-name="&lt;矩形&gt;" class="cls-1" x="41.52" y="17.21" width="7.1" height="4.95"/><rect id="_矩形_6" data-name="&lt;矩形&gt;" class="cls-1" x="54.21" y="17.21" width="7.1" height="4.95"/><rect id="_矩形_7" data-name="&lt;矩形&gt;" class="cls-1" x="66.9" y="17.21" width="7.1" height="4.95"/><rect id="_矩形_8" data-name="&lt;矩形&gt;" class="cls-1" x="79.6" y="17.21" width="7.1" height="4.95"/><rect id="_矩形_9" data-name="&lt;矩形&gt;" class="cls-1" x="92.29" y="17.21" width="7.1" height="4.95"/><rect id="_矩形_10" data-name="&lt;矩形&gt;" class="cls-1" x="104.98" y="17.21" width="7.1" height="4.95"/><rect id="_矩形_11" data-name="&lt;矩形&gt;" class="cls-1" x="117.67" y="17.21" width="7.1" height="4.95"/><rect id="_矩形_12" data-name="&lt;矩形&gt;" class="cls-1" x="130.37" y="17.21" width="7.1" height="4.95"/><rect id="_矩形_13" data-name="&lt;矩形&gt;" class="cls-1" x="143.06" y="17.21" width="7.1" height="4.95"/><polygon id="_路径_2" data-name="&lt;路径&gt;" class="cls-1" points="25.53 53.49 0 53.49 0 2.44 25.53 2.44 25.53 5.88 3.44 5.88 3.44 50.05 25.53 50.05 25.53 53.49"/><rect id="_矩形_14" data-name="&lt;矩形&gt;" class="cls-1" x="20.44" width="10.47" height="7.82"/><rect id="_矩形_15" data-name="&lt;矩形&gt;" class="cls-1" x="20.44" y="48.91" width="10.47" height="7.82"/><rect id="_矩形_16" data-name="&lt;矩形&gt;" class="cls-1" x="379.48" y="11.33" width="3.23" height="36.64"/><rect id="_矩形_17" data-name="&lt;矩形&gt;" class="cls-1" x="393.36" y="11.33" width="3.23" height="36.64"/><rect id="_矩形_18" data-name="&lt;矩形&gt;" class="cls-1" x="407.23" y="11.33" width="3.23" height="36.64"/><rect id="_矩形_19" data-name="&lt;矩形&gt;" class="cls-1" x="421.11" y="11.33" width="3.23" height="36.64"/><rect id="_矩形_20" data-name="&lt;矩形&gt;" class="cls-1" x="434.98" y="11.33" width="3.23" height="36.64"/><rect id="_矩形_21" data-name="&lt;矩形&gt;" class="cls-1" x="448.86" y="11.33" width="3.23" height="36.64"/><rect id="_矩形_22" data-name="&lt;矩形&gt;" class="cls-1" x="462.73" y="11.33" width="3.23" height="36.64"/><g id="_编组_3" data-name="&lt;编组&gt;"><polygon id="_路径_3" data-name="&lt;路径&gt;" class="cls-1" points="481.6 42.24 475.86 47.97 490.12 47.97 495.86 42.24 481.6 42.24"/></g><g id="_编组_4" data-name="&lt;编组&gt;"><polygon id="_路径_4" data-name="&lt;路径&gt;" class="cls-1" points="501.59 42.24 495.86 47.97 510.11 47.97 515.85 42.24 501.59 42.24"/></g><g id="_编组_5" data-name="&lt;编组&gt;"><polygon id="_路径_5" data-name="&lt;路径&gt;" class="cls-1" points="521.58 42.24 515.85 47.97 530.1 47.97 535.84 42.24 521.58 42.24"/></g><g id="_编组_6" data-name="&lt;编组&gt;"><polygon id="_路径_6" data-name="&lt;路径&gt;" class="cls-1" points="541.58 42.24 535.84 47.97 550.09 47.97 555.83 42.24 541.58 42.24"/></g><g id="_编组_7" data-name="&lt;编组&gt;"><polygon id="_路径_7" data-name="&lt;路径&gt;" class="cls-1" points="561.57 42.24 555.83 47.97 570.08 47.97 575.82 42.24 561.57 42.24"/></g><g id="_编组_8" data-name="&lt;编组&gt;"><polygon id="_路径_8" data-name="&lt;路径&gt;" class="cls-1" points="581.56 42.24 575.82 47.97 590.08 47.97 595.81 42.24 581.56 42.24"/></g><g id="_编组_9" data-name="&lt;编组&gt;"><polygon id="_路径_9" data-name="&lt;路径&gt;" class="cls-1" points="601.55 42.24 595.81 47.97 610.07 47.97 615.8 42.24 601.55 42.24"/></g><g id="_编组_10" data-name="&lt;编组&gt;"><polygon id="_路径_10" data-name="&lt;路径&gt;" class="cls-1" points="621.54 42.24 615.8 47.97 630.06 47.97 635.79 42.24 621.54 42.24"/></g><g id="_编组_11" data-name="&lt;编组&gt;"><polygon id="_路径_11" data-name="&lt;路径&gt;" class="cls-1" points="641.53 42.24 635.79 47.97 650.05 47.97 655.79 42.24 641.53 42.24"/></g><g id="_编组_12" data-name="&lt;编组&gt;"><polygon id="_路径_12" data-name="&lt;路径&gt;" class="cls-1" points="661.52 42.24 655.79 47.97 670.04 47.97 675.78 42.24 661.52 42.24"/></g><g id="_编组_13" data-name="&lt;编组&gt;"><polygon id="_路径_13" data-name="&lt;路径&gt;" class="cls-1" points="681.51 42.24 675.78 47.97 690.03 47.97 695.77 42.24 681.51 42.24"/></g><g id="_编组_14" data-name="&lt;编组&gt;"><polygon id="_路径_14" data-name="&lt;路径&gt;" class="cls-1" points="701.51 42.24 695.77 47.97 710.02 47.97 715.76 42.24 701.51 42.24"/></g></g><g id="_编组_15" data-name="&lt;编组&gt;"><path id="_复合路径_2" data-name="&lt;复合路径&gt;" class="cls-1" d="M420.44,481.17H60.75V442.45H420.44v38.72ZM64.19,477.73H417V445.89H64.19v31.84Z" transform="translate(-52.72 -432.84)"/><rect id="_矩形_23" data-name="&lt;矩形&gt;" class="cls-1" x="166.88" y="25.74" width="550.77" height="6.45"/><rect id="_矩形_24" data-name="&lt;矩形&gt;" class="cls-1" x="161.56" y="21.3" width="22.8" height="15.06"/><g id="_编组_16" data-name="&lt;编组&gt;"><polygon id="_路径_15" data-name="&lt;路径&gt;" class="cls-1" points="677.43 11.62 497.51 11.62 483.39 25.74 691.55 25.74 677.43 11.62"/></g><rect id="_矩形_25" data-name="&lt;矩形&gt;" class="cls-1" x="16.13" y="17.21" width="7.1" height="4.95"/><rect id="_矩形_26" data-name="&lt;矩形&gt;" class="cls-1" x="28.83" y="17.21" width="7.1" height="4.95"/><rect id="_矩形_27" data-name="&lt;矩形&gt;" class="cls-1" x="41.52" y="17.21" width="7.1" height="4.95"/><rect id="_矩形_28" data-name="&lt;矩形&gt;" class="cls-1" x="54.21" y="17.21" width="7.1" height="4.95"/><rect id="_矩形_29" data-name="&lt;矩形&gt;" class="cls-1" x="66.9" y="17.21" width="7.1" height="4.95"/><rect id="_矩形_30" data-name="&lt;矩形&gt;" class="cls-1" x="79.6" y="17.21" width="7.1" height="4.95"/><rect id="_矩形_31" data-name="&lt;矩形&gt;" class="cls-1" x="92.29" y="17.21" width="7.1" height="4.95"/><rect id="_矩形_32" data-name="&lt;矩形&gt;" class="cls-1" x="104.98" y="17.21" width="7.1" height="4.95"/><rect id="_矩形_33" data-name="&lt;矩形&gt;" class="cls-1" x="117.67" y="17.21" width="7.1" height="4.95"/><rect id="_矩形_34" data-name="&lt;矩形&gt;" class="cls-1" x="130.37" y="17.21" width="7.1" height="4.95"/><rect id="_矩形_35" data-name="&lt;矩形&gt;" class="cls-1" x="143.06" y="17.21" width="7.1" height="4.95"/><polygon id="_路径_16" data-name="&lt;路径&gt;" class="cls-1" points="25.53 53.49 0 53.49 0 2.44 25.53 2.44 25.53 5.88 3.44 5.88 3.44 50.05 25.53 50.05 25.53 53.49"/><rect id="_矩形_36" data-name="&lt;矩形&gt;" class="cls-1" x="20.44" width="10.47" height="7.82"/><rect id="_矩形_37" data-name="&lt;矩形&gt;" class="cls-1" x="20.44" y="48.91" width="10.47" height="7.82"/><rect id="_矩形_38" data-name="&lt;矩形&gt;" class="cls-1" x="379.48" y="11.33" width="3.23" height="36.64"/><rect id="_矩形_39" data-name="&lt;矩形&gt;" class="cls-1" x="393.36" y="11.33" width="3.23" height="36.64"/><rect id="_矩形_40" data-name="&lt;矩形&gt;" class="cls-1" x="407.23" y="11.33" width="3.23" height="36.64"/><rect id="_矩形_41" data-name="&lt;矩形&gt;" class="cls-1" x="421.11" y="11.33" width="3.23" height="36.64"/><rect id="_矩形_42" data-name="&lt;矩形&gt;" class="cls-1" x="434.98" y="11.33" width="3.23" height="36.64"/><rect id="_矩形_43" data-name="&lt;矩形&gt;" class="cls-1" x="448.86" y="11.33" width="3.23" height="36.64"/><rect id="_矩形_44" data-name="&lt;矩形&gt;" class="cls-1" x="462.73" y="11.33" width="3.23" height="36.64"/><g id="_编组_17" data-name="&lt;编组&gt;"><polygon id="_路径_17" data-name="&lt;路径&gt;" class="cls-1" points="481.6 42.24 475.86 47.97 490.12 47.97 495.86 42.24 481.6 42.24"/></g><g id="_编组_18" data-name="&lt;编组&gt;"><polygon id="_路径_18" data-name="&lt;路径&gt;" class="cls-1" points="501.59 42.24 495.86 47.97 510.11 47.97 515.85 42.24 501.59 42.24"/></g><g id="_编组_19" data-name="&lt;编组&gt;"><polygon id="_路径_19" data-name="&lt;路径&gt;" class="cls-1" points="521.58 42.24 515.85 47.97 530.1 47.97 535.84 42.24 521.58 42.24"/></g><g id="_编组_20" data-name="&lt;编组&gt;"><polygon id="_路径_20" data-name="&lt;路径&gt;" class="cls-1" points="541.58 42.24 535.84 47.97 550.09 47.97 555.83 42.24 541.58 42.24"/></g><g id="_编组_21" data-name="&lt;编组&gt;"><polygon id="_路径_21" data-name="&lt;路径&gt;" class="cls-1" points="561.57 42.24 555.83 47.97 570.08 47.97 575.82 42.24 561.57 42.24"/></g><g id="_编组_22" data-name="&lt;编组&gt;"><polygon id="_路径_22" data-name="&lt;路径&gt;" class="cls-1" points="581.56 42.24 575.82 47.97 590.08 47.97 595.81 42.24 581.56 42.24"/></g><g id="_编组_23" data-name="&lt;编组&gt;"><polygon id="_路径_23" data-name="&lt;路径&gt;" class="cls-1" points="601.55 42.24 595.81 47.97 610.07 47.97 615.8 42.24 601.55 42.24"/></g><g id="_编组_24" data-name="&lt;编组&gt;"><polygon id="_路径_24" data-name="&lt;路径&gt;" class="cls-1" points="621.54 42.24 615.8 47.97 630.06 47.97 635.79 42.24 621.54 42.24"/></g><g id="_编组_25" data-name="&lt;编组&gt;"><polygon id="_路径_25" data-name="&lt;路径&gt;" class="cls-1" points="641.53 42.24 635.79 47.97 650.05 47.97 655.79 42.24 641.53 42.24"/></g><g id="_编组_26" data-name="&lt;编组&gt;"><polygon id="_路径_26" data-name="&lt;路径&gt;" class="cls-1" points="661.52 42.24 655.79 47.97 670.04 47.97 675.78 42.24 661.52 42.24"/></g><g id="_编组_27" data-name="&lt;编组&gt;"><polygon id="_路径_27" data-name="&lt;路径&gt;" class="cls-1" points="681.51 42.24 675.78 47.97 690.03 47.97 695.77 42.24 681.51 42.24"/></g><g id="_编组_28" data-name="&lt;编组&gt;"><polygon id="_路径_28" data-name="&lt;路径&gt;" class="cls-1" points="701.51 42.24 695.77 47.97 710.02 47.97 715.76 42.24 701.51 42.24"/></g></g></svg>