<svg preserveAspectRatio="none" xmlns="http://www.w3.org/2000/svg" viewBox="0 0 114.31 19.94"><defs><style>.cls-2{mix-blend-mode:overlay}.cls-3{fill:#0ff}</style></defs><g style="isolation:isolate"><g id="Layer_1" data-name="Layer 1"><g class="cls-2"><path class="cls-3" d="M252.78 507.26h-25.63a.6.6 0 010-1.21h25.12L264.36 494h55.83a.6.6 0 110 1.21h-55.33z" transform="translate(-206.48 -493.16)"/></g><g class="cls-2"><path class="cls-3" d="M229.44 513.1h-23V508l6.4-6.4h34.69a.6.6 0 010 1.21h-34.15l-5.69 5.69v3.37h21.75a.6.6 0 110 1.23z" transform="translate(-206.48 -493.16)"/></g><g class="cls-2"><path class="cls-3" d="M260.55 508.57a.6.6 0 01-.43-1l7.55-7.55a.6.6 0 01.85.85l-7.52 7.52a.6.6 0 01-.45.18z" transform="translate(-206.48 -493.16)"/></g><g class="cls-2"><path class="cls-3" d="M266 508.57a.6.6 0 01-.43-1l7.55-7.55a.6.6 0 11.85.85l-7.55 7.55a.6.6 0 01-.42.15z" transform="translate(-206.48 -493.16)"/></g><g class="cls-2"><path class="cls-3" d="M271.43 508.57a.6.6 0 01-.43-1l7.55-7.55a.6.6 0 11.85.85l-7.55 7.55a.6.6 0 01-.42.15z" transform="translate(-206.48 -493.16)"/></g><g class="cls-2"><path class="cls-3" d="M276.86 508.57a.6.6 0 01-.43-1L284 500a.6.6 0 01.85.85l-7.55 7.55a.6.6 0 01-.44.17z" transform="translate(-206.48 -493.16)"/></g><g class="cls-2"><path class="cls-3" d="M282.3 508.57a.6.6 0 01-.43-1l7.55-7.55a.6.6 0 11.85.85l-7.55 7.55a.6.6 0 01-.42.15z" transform="translate(-206.48 -493.16)"/></g><g class="cls-2"><path class="cls-3" d="M247.56 498h-14.1v-4.83h14.1V498zm-12.89-1.21h11.68v-2.42h-11.68v2.42z" transform="translate(-206.48 -493.16)"/></g><g class="cls-2"><path class="cls-3" d="M230.65 498h-7.25v-4.83h7.25V498zm-6-1.21h4.83v-2.42h-4.83v2.42z" transform="translate(-206.48 -493.16)"/></g><g class="cls-2"><path class="cls-3" d="M252.78 507.26h-25.63a.6.6 0 010-1.21h25.12L264.36 494h55.83a.6.6 0 110 1.21h-55.33z" transform="translate(-206.48 -493.16)"/></g><g class="cls-2"><path class="cls-3" d="M266 508.57a.6.6 0 01-.43-1l7.55-7.55a.6.6 0 11.85.85l-7.55 7.55a.6.6 0 01-.42.15z" transform="translate(-206.48 -493.16)"/></g><g class="cls-2"><path class="cls-3" d="M271.43 508.57a.6.6 0 01-.43-1l7.55-7.55a.6.6 0 11.85.85l-7.55 7.55a.6.6 0 01-.42.15z" transform="translate(-206.48 -493.16)"/></g><g class="cls-2"><path class="cls-3" d="M282.3 508.57a.6.6 0 01-.43-1l7.55-7.55a.6.6 0 11.85.85l-7.55 7.55a.6.6 0 01-.42.15z" transform="translate(-206.48 -493.16)"/></g><g class="cls-2"><path class="cls-3" d="M247.56 498h-14.1v-4.83h14.1V498zm-12.89-1.21h11.68v-2.42h-11.68v2.42z" transform="translate(-206.48 -493.16)"/></g><g class="cls-2"><path class="cls-3" d="M230.65 498h-7.25v-4.83h7.25V498zm-6-1.21h4.83v-2.42h-4.83v2.42z" transform="translate(-206.48 -493.16)"/></g><g class="cls-2"><path class="cls-3" d="M221.38 498h-4.83v-4.83h4.83V498zm-3.62-1.21h2.42v-2.42h-2.42v2.42z" transform="translate(-206.48 -493.16)"/></g></g></g></svg>