<svg preserveAspectRatio="none" id="OBJECTS" xmlns="http://www.w3.org/2000/svg" xmlns:xlink="http://www.w3.org/1999/xlink" viewBox="0 0 15.09 217.35"><defs><style>.cls-1{fill:url(#linear-gradient);}.cls-2{fill:url(#linear-gradient-2);}.cls-3{fill:url(#linear-gradient-3);}.cls-4{fill:url(#linear-gradient-4);}.cls-5{fill:url(#linear-gradient-5);}.cls-6{fill:url(#linear-gradient-6);}.cls-7{fill:url(#linear-gradient-7);}.cls-8{fill:url(#linear-gradient-8);}.cls-9{fill:url(#linear-gradient-9);}.cls-10{fill:url(#linear-gradient-10);}.cls-11{fill:url(#linear-gradient-11);}.cls-12{fill:url(#linear-gradient-12);}.cls-13{fill:url(#linear-gradient-13);}.cls-14{fill:url(#linear-gradient-14);}.cls-15{fill:url(#linear-gradient-15);}.cls-16{fill:url(#linear-gradient-16);}.cls-17{fill:url(#linear-gradient-17);}.cls-18{fill:url(#linear-gradient-18);}.cls-19{fill:url(#linear-gradient-19);}.cls-20{fill:url(#linear-gradient-20);}.cls-21{fill:url(#linear-gradient-21);}.cls-22{fill:url(#linear-gradient-22);}</style><linearGradient id="linear-gradient" x1="376.16" y1="-68.32" x2="364.4" y2="139.08" gradientTransform="translate(99.31 263.64)" gradientUnits="userSpaceOnUse"><stop offset="0" stop-color="#1aecfc"/><stop offset="1" stop-color="#1c9af9"/></linearGradient><linearGradient id="linear-gradient-2" x1="391.28" y1="-109.82" x2="377.26" y2="137.41" gradientTransform="translate(86 48.44)" xlink:href="#linear-gradient"/><linearGradient id="linear-gradient-3" x1="386.81" y1="-110.08" x2="372.78" y2="137.15" gradientTransform="translate(93.79 69.33)" xlink:href="#linear-gradient"/><linearGradient id="linear-gradient-4" x1="386.22" y1="-110.11" x2="372.19" y2="137.12" gradientTransform="translate(93.79 90.22)" xlink:href="#linear-gradient"/><linearGradient id="linear-gradient-5" x1="385.62" y1="-110.14" x2="371.6" y2="137.09" gradientTransform="translate(93.79 111.1)" xlink:href="#linear-gradient"/><linearGradient id="linear-gradient-6" x1="386" y1="-110.11" x2="371.97" y2="137.11" gradientTransform="translate(91.86 131.99)" xlink:href="#linear-gradient"/><linearGradient id="linear-gradient-7" x1="388.24" y1="-109.99" x2="374.21" y2="137.24" gradientTransform="translate(86 156.03)" xlink:href="#linear-gradient"/><linearGradient id="linear-gradient-8" x1="383.76" y1="-110.24" x2="369.74" y2="136.98" gradientTransform="translate(93.79 176.92)" xlink:href="#linear-gradient"/><linearGradient id="linear-gradient-9" x1="383.17" y1="-110.28" x2="369.15" y2="136.95" gradientTransform="translate(93.79 197.8)" xlink:href="#linear-gradient"/><linearGradient id="linear-gradient-10" x1="382.58" y1="-110.32" x2="368.56" y2="136.92" gradientTransform="translate(93.79 218.69)" xlink:href="#linear-gradient"/><linearGradient id="linear-gradient-11" x1="382.96" y1="-110.29" x2="368.93" y2="136.94" gradientTransform="translate(91.86 239.57)" xlink:href="#linear-gradient"/><linearGradient id="linear-gradient-12" x1="385.2" y1="-110.17" x2="371.17" y2="137.06" gradientTransform="translate(86 263.62)" xlink:href="#linear-gradient"/><linearGradient id="linear-gradient-13" x1="380.72" y1="-110.42" x2="366.7" y2="136.81" gradientTransform="translate(93.79 284.5)" xlink:href="#linear-gradient"/><linearGradient id="linear-gradient-14" x1="380.13" y1="-110.45" x2="366.11" y2="136.78" gradientTransform="translate(93.79 305.39)" xlink:href="#linear-gradient"/><linearGradient id="linear-gradient-15" x1="379.54" y1="-110.48" x2="365.52" y2="136.74" gradientTransform="translate(93.79 326.28)" xlink:href="#linear-gradient"/><linearGradient id="linear-gradient-16" x1="379.91" y1="-110.47" x2="365.89" y2="136.76" gradientTransform="translate(91.86 347.16)" xlink:href="#linear-gradient"/><linearGradient id="linear-gradient-17" x1="382.16" y1="-110.34" x2="368.13" y2="136.89" gradientTransform="translate(86 371.2)" xlink:href="#linear-gradient"/><linearGradient id="linear-gradient-18" x1="377.68" y1="-110.59" x2="363.66" y2="136.64" gradientTransform="translate(93.79 392.09)" xlink:href="#linear-gradient"/><linearGradient id="linear-gradient-19" x1="377.09" y1="-110.63" x2="363.07" y2="136.6" gradientTransform="translate(93.79 412.98)" xlink:href="#linear-gradient"/><linearGradient id="linear-gradient-20" x1="376.5" y1="-110.66" x2="362.48" y2="136.57" gradientTransform="translate(93.79 433.86)" xlink:href="#linear-gradient"/><linearGradient id="linear-gradient-21" x1="376.87" y1="-110.64" x2="362.85" y2="136.59" gradientTransform="translate(91.86 454.75)" xlink:href="#linear-gradient"/><linearGradient id="linear-gradient-22" x1="379.11" y1="-110.51" x2="365.09" y2="136.72" gradientTransform="translate(86 478.79)" xlink:href="#linear-gradient"/></defs><title>line2</title><g id="_编组_" data-name="&lt;编组&gt;"><rect id="_矩形_" data-name="&lt;矩形&gt;" class="cls-1" x="468.27" y="198.12" width="1.77" height="217.33" transform="translate(483.35 415.47) rotate(180)"/><rect id="_矩形_2" data-name="&lt;矩形&gt;" class="cls-2" x="454.95" y="198.1" width="15.08" height="2.18" transform="translate(470.04 200.28) rotate(180)"/><rect id="_矩形_3" data-name="&lt;矩形&gt;" class="cls-3" x="462.75" y="208.54" width="7.29" height="2.18" transform="translate(477.83 221.17) rotate(180)"/><rect id="_矩形_4" data-name="&lt;矩形&gt;" class="cls-4" x="462.75" y="218.99" width="7.29" height="2.18" transform="translate(477.83 242.05) rotate(180)"/><rect id="_矩形_5" data-name="&lt;矩形&gt;" class="cls-5" x="462.75" y="229.43" width="7.29" height="2.18" transform="translate(477.83 262.94) rotate(180)"/><rect id="_矩形_6" data-name="&lt;矩形&gt;" class="cls-6" x="460.81" y="239.87" width="9.22" height="2.18" transform="translate(475.9 283.82) rotate(180)"/><rect id="_矩形_7" data-name="&lt;矩形&gt;" class="cls-7" x="454.95" y="251.89" width="15.08" height="2.18" transform="translate(470.04 307.87) rotate(180)"/><rect id="_矩形_8" data-name="&lt;矩形&gt;" class="cls-8" x="462.75" y="262.34" width="7.29" height="2.18" transform="translate(477.83 328.75) rotate(180)"/><rect id="_矩形_9" data-name="&lt;矩形&gt;" class="cls-9" x="462.75" y="272.78" width="7.29" height="2.18" transform="translate(477.83 349.64) rotate(180)"/><rect id="_矩形_10" data-name="&lt;矩形&gt;" class="cls-10" x="462.75" y="283.22" width="7.29" height="2.18" transform="translate(477.83 370.53) rotate(180)"/><rect id="_矩形_11" data-name="&lt;矩形&gt;" class="cls-11" x="460.81" y="293.67" width="9.22" height="2.18" transform="translate(475.9 391.41) rotate(180)"/><rect id="_矩形_12" data-name="&lt;矩形&gt;" class="cls-12" x="454.95" y="305.69" width="15.08" height="2.18" transform="translate(470.04 415.45) rotate(180)"/><rect id="_矩形_13" data-name="&lt;矩形&gt;" class="cls-13" x="462.75" y="316.13" width="7.29" height="2.18" transform="translate(477.83 436.34) rotate(180)"/><rect id="_矩形_14" data-name="&lt;矩形&gt;" class="cls-14" x="462.75" y="326.57" width="7.29" height="2.18" transform="translate(477.83 457.23) rotate(180)"/><rect id="_矩形_15" data-name="&lt;矩形&gt;" class="cls-15" x="462.75" y="337.02" width="7.29" height="2.18" transform="translate(477.83 478.11) rotate(180)"/><rect id="_矩形_16" data-name="&lt;矩形&gt;" class="cls-16" x="460.81" y="347.46" width="9.22" height="2.18" transform="translate(475.9 499) rotate(180)"/><rect id="_矩形_17" data-name="&lt;矩形&gt;" class="cls-17" x="454.95" y="359.48" width="15.08" height="2.18" transform="translate(470.04 523.04) rotate(180)"/><rect id="_矩形_18" data-name="&lt;矩形&gt;" class="cls-18" x="462.75" y="369.92" width="7.29" height="2.18" transform="translate(477.83 543.93) rotate(180)"/><rect id="_矩形_19" data-name="&lt;矩形&gt;" class="cls-19" x="462.75" y="380.37" width="7.29" height="2.18" transform="translate(477.83 564.81) rotate(180)"/><rect id="_矩形_20" data-name="&lt;矩形&gt;" class="cls-20" x="462.75" y="390.81" width="7.29" height="2.18" transform="translate(477.83 585.7) rotate(180)"/><rect id="_矩形_21" data-name="&lt;矩形&gt;" class="cls-21" x="460.81" y="401.25" width="9.22" height="2.18" transform="translate(475.9 606.59) rotate(180)"/><rect id="_矩形_22" data-name="&lt;矩形&gt;" class="cls-22" x="454.95" y="413.27" width="15.08" height="2.18" transform="translate(470.04 630.63) rotate(180)"/></g></svg>