<svg preserveAspectRatio="none" id="Layer_1" data-name="Layer 1" xmlns="http://www.w3.org/2000/svg" viewBox="0 0 443.18 44.71"><defs><style>.cls-1{fill:aqua;}</style></defs><title>line14</title><rect id="_路径_" data-name="&lt;路径&gt;" class="cls-1" y="27.37" width="443.18" height="1"/><polygon id="_路径_2" data-name="&lt;路径&gt;" class="cls-1" points="17.96 27.86 32.58 13.25 169.17 13.25 183.75 27.83 17.96 27.86"/><polygon id="_路径_3" data-name="&lt;路径&gt;" class="cls-1" points="205.38 28.2 208.72 31.55 298.69 31.55 295.15 28.01 205.38 28.2"/><polygon id="_路径_4" data-name="&lt;路径&gt;" class="cls-1" points="300.21 28.01 303.61 31.41 309.75 31.41 306.74 28.4 300.21 28.01"/><polygon id="_路径_5" data-name="&lt;路径&gt;" class="cls-1" points="310.43 28.01 313.64 31.23 321.49 31.23 317.8 28.01 310.43 28.01"/><rect id="_路径_6" data-name="&lt;路径&gt;" class="cls-1" x="324" y="24.62" width="119.17" height="1"/><polygon id="_路径_7" data-name="&lt;路径&gt;" class="cls-1" points="182.23 24.63 168.97 11.37 95.21 11.37 95.21 10.37 169.38 10.37 182.94 23.93 182.23 24.63"/><polygon id="_路径_8" data-name="&lt;路径&gt;" class="cls-1" points="6.71 28.36 10.65 32.3 110.63 32.3 117.99 28.36 6.71 28.36"/><polygon id="_路径_9" data-name="&lt;路径&gt;" class="cls-1" points="442.5 25.11 437.99 20.61 400.38 20.61 405.34 25.57 442.5 25.11"/><polygon id="_路径_10" data-name="&lt;路径&gt;" class="cls-1" points="113.6 35.03 28.61 35.03 28.61 34.03 113.33 34.03 121.55 29.12 174.8 29.12 174.8 30.12 121.83 30.12 113.6 35.03"/><path id="_复合路径_" data-name="&lt;复合路径&gt;" class="cls-1" d="M720.93,561.66H657.48l-8.07-8.07H614.28v-1h34.12L712,552.77Zm-63-1h60.62l-6.89-6.89-60.79-.17Z" transform="translate(-425.54 -539.23)"/><polygon id="_路径_11" data-name="&lt;路径&gt;" class="cls-1" points="412.67 35.37 396.25 35.37 392.92 32.05 336.13 32.05 336.13 31.05 393.34 31.05 396.66 34.37 412.26 34.37 415.58 31.05 442.84 31.05 442.84 32.05 416 32.05 412.67 35.37"/><polygon id="_路径_12" data-name="&lt;路径&gt;" class="cls-1" points="214.55 30.95 216.59 32.99 250.13 32.99 252.55 30.95 214.55 30.95"/><polygon id="_路径_13" data-name="&lt;路径&gt;" class="cls-1" points="279.55 27.53 282.21 24.86 309.05 24.86 312.05 27.86 279.55 27.53"/><polygon id="_路径_14" data-name="&lt;路径&gt;" class="cls-1" points="400.38 20.61 404.84 17.49 425.46 17.49 429.34 21.11 400.38 20.61"/><path id="_复合路径_2" data-name="&lt;复合路径&gt;" class="cls-1" d="M754.11,564.7L753.4,564l9.21-9.21h53.62l-4.7,4.7H759.32Zm6.22-6.22h50.8l2.7-2.7H763Z" transform="translate(-425.54 -539.23)"/><path id="_复合路径_3" data-name="&lt;复合路径&gt;" class="cls-1" d="M593.88,583.94H549.29L544,578.62h65.65l11.54-11.54,0.71,0.71L610,579.62H598.2Zm-44.18-1h43.76l3.32-3.32H546.38Z" transform="translate(-425.54 -539.23)"/><path id="_复合路径_4" data-name="&lt;复合路径&gt;" class="cls-1" d="M787.86,555.64l-0.71-.71,15.75-15.7h55.9l6,6H798.27Zm11.42-11.4h63.11l-4-4H803.31Z" transform="translate(-425.54 -539.23)"/></svg>