<svg preserveAspectRatio="none" xmlns="http://www.w3.org/2000/svg" viewBox="0 0 166.35 20.59"><defs><style>.cls-1{isolation:isolate;}.cls-2,.cls-4{mix-blend-mode:overlay;}.cls-3,.cls-4{fill:aqua;}</style></defs><title>line11</title><g class="cls-1"><g id="Layer_1" data-name="Layer 1"><g class="cls-2"><path class="cls-3" d="M272.78,539.45a0.67,0.67,0,0,1,.67-0.67h37.64l6.42,6.42a0.67,0.67,0,1,1-.94.94l-6-6H273.45A0.67,0.67,0,0,1,272.78,539.45Z" transform="translate(-158.49 -532.34)"/></g><polygon class="cls-4" points="121.05 14.41 116.78 10.15 148.99 10.15 153.25 14.41 121.05 14.41"/><polygon class="cls-4" points="121.05 14.41 116.78 10.15 148.99 10.15 153.25 14.41 121.05 14.41"/><polygon class="cls-4" points="97.9 14.41 93.64 10.15 102.72 10.15 106.99 14.41 97.9 14.41"/><polygon class="cls-4" points="82.07 14.41 77.8 10.15 86.89 10.15 91.16 14.41 82.07 14.41"/><polygon class="cls-4" points="82.07 14.41 77.8 10.15 86.89 10.15 91.16 14.41 82.07 14.41"/><g class="cls-2"><path class="cls-3" d="M182.06,543.32a0.67,0.67,0,0,1,.67-0.67h42.74l6.81-6.81h28.4l15.74,15.74h45.2l-2.2-2.2a0.67,0.67,0,1,1,.94-0.94l4.48,4.48h-49l-15.74-15.74H232.83L226,544H182.73A0.67,0.67,0,0,1,182.06,543.32Z" transform="translate(-158.49 -532.34)"/></g><g class="cls-2"><path class="cls-3" d="M182.06,543.32a0.67,0.67,0,0,1,.67-0.67h42.74l6.81-6.81h28.4l15.74,15.74h45.2l-2.2-2.2a0.67,0.67,0,1,1,.94-0.94l4.48,4.48h-49l-15.74-15.74H232.83L226,544H182.73A0.67,0.67,0,0,1,182.06,543.32Z" transform="translate(-158.49 -532.34)"/></g><circle class="cls-4" cx="58.5" cy="3.11" r="3.11"/><circle class="cls-4" cx="48.26" cy="3.11" r="3.11"/><circle class="cls-4" cx="38.03" cy="3.11" r="3.11"/><circle class="cls-4" cx="58.5" cy="3.11" r="3.11"/><circle class="cls-4" cx="38.03" cy="3.11" r="3.11"/><g class="cls-2"><path class="cls-3" d="M158.49,542.57a0.67,0.67,0,0,1,1.14-.47l5.59,5.59h49.54a0.67,0.67,0,1,1,0,1.33h-50.1l-6-6A0.66,0.66,0,0,1,158.49,542.57Z" transform="translate(-158.49 -532.34)"/></g></g></g></svg>