<svg preserveAspectRatio="none" id="Layer_1" data-name="Layer 1" xmlns="http://www.w3.org/2000/svg" viewBox="0 0 726.69 55.36"><defs><style>.cls-1{fill:#02a6ff}</style></defs><g id="_编组_" data-name="&lt;编组&gt;"><path id="_矩形_" data-name="&lt;矩形&gt;" class="cls-1" d="M0 17.78h724.16v8.03H0z"/><g id="_编组_2" data-name="&lt;编组&gt;"><path id="_路径_" data-name="&lt;路径&gt;" class="cls-1" d="M22.37 21.8v4.3l29.26 29.26h96.95l33.56-33.56H22.37z"/></g><g id="_编组_3" data-name="&lt;编组&gt;"><path id="_路径_2" data-name="&lt;路径&gt;" class="cls-1" d="M400.99 0H245.24l-21.8 21.8h199.35L400.99 0z"/></g><path id="_矩形_2" data-name="&lt;矩形&gt;" class="cls-1" d="M182.14 32.7H614.4v5.88H182.14z"/><path id="_矩形_3" data-name="&lt;矩形&gt;" class="cls-1" d="M448.61 6.88h8.89v8.03h-8.89z"/><path id="_矩形_4" data-name="&lt;矩形&gt;" class="cls-1" d="M468.11 6.88H477v8.03h-8.89z"/><path id="_矩形_5" data-name="&lt;矩形&gt;" class="cls-1" d="M487.62 6.88h8.89v8.03h-8.89z"/><path id="_矩形_6" data-name="&lt;矩形&gt;" class="cls-1" d="M507.12 6.88h8.89v8.03h-8.89z"/><path id="_矩形_7" data-name="&lt;矩形&gt;" class="cls-1" d="M526.63 6.88h8.89v8.03h-8.89z"/><path id="_矩形_8" data-name="&lt;矩形&gt;" class="cls-1" d="M546.13 6.88h8.89v8.03h-8.89z"/><path id="_矩形_9" data-name="&lt;矩形&gt;" class="cls-1" d="M565.64 6.88h8.89v8.03h-8.89z"/><path id="_矩形_10" data-name="&lt;矩形&gt;" class="cls-1" d="M585.14 6.88h8.89v8.03h-8.89z"/><path id="_矩形_11" data-name="&lt;矩形&gt;" class="cls-1" d="M604.64 6.88h8.89v8.03h-8.89z"/><path id="_矩形_12" data-name="&lt;矩形&gt;" class="cls-1" d="M624.15 6.88h8.89v8.03h-8.89z"/><path id="_矩形_13" data-name="&lt;矩形&gt;" class="cls-1" d="M720.02 4.3h6.67v33.34h-6.67z"/><path id="_矩形_14" data-name="&lt;矩形&gt;" class="cls-1" d="M589.59 41.95h57.51v4.09h-57.51z"/><path id="_矩形_15" data-name="&lt;矩形&gt;" class="cls-1" d="M612.25 29.9h3.01v11.04h-3.01z"/><path id="_矩形_16" data-name="&lt;矩形&gt;" class="cls-1" d="M646.24 40.3h2.01v6.96h-2.01z"/><path id="_矩形_17" data-name="&lt;矩形&gt;" class="cls-1" d="M588.87 40.95h2.72v7.03h-2.72z"/></g><g id="_编组_4" data-name="&lt;编组&gt;"><path id="_矩形_18" data-name="&lt;矩形&gt;" class="cls-1" d="M0 17.78h724.16v8.03H0z"/><g id="_编组_5" data-name="&lt;编组&gt;"><path id="_路径_3" data-name="&lt;路径&gt;" class="cls-1" d="M22.37 21.8v4.3l29.26 29.26h96.95l33.56-33.56H22.37z"/></g><g id="_编组_6" data-name="&lt;编组&gt;"><path id="_路径_4" data-name="&lt;路径&gt;" class="cls-1" d="M400.99 0H245.24l-21.8 21.8h199.35L400.99 0z"/></g><path id="_矩形_19" data-name="&lt;矩形&gt;" class="cls-1" d="M182.14 32.7H614.4v5.88H182.14z"/><path id="_矩形_20" data-name="&lt;矩形&gt;" class="cls-1" d="M448.61 6.88h8.89v8.03h-8.89z"/><path id="_矩形_21" data-name="&lt;矩形&gt;" class="cls-1" d="M468.11 6.88H477v8.03h-8.89z"/><path id="_矩形_22" data-name="&lt;矩形&gt;" class="cls-1" d="M487.62 6.88h8.89v8.03h-8.89z"/><path id="_矩形_23" data-name="&lt;矩形&gt;" class="cls-1" d="M507.12 6.88h8.89v8.03h-8.89z"/><path id="_矩形_24" data-name="&lt;矩形&gt;" class="cls-1" d="M526.63 6.88h8.89v8.03h-8.89z"/><path id="_矩形_25" data-name="&lt;矩形&gt;" class="cls-1" d="M546.13 6.88h8.89v8.03h-8.89z"/><path id="_矩形_26" data-name="&lt;矩形&gt;" class="cls-1" d="M565.64 6.88h8.89v8.03h-8.89z"/><path id="_矩形_27" data-name="&lt;矩形&gt;" class="cls-1" d="M585.14 6.88h8.89v8.03h-8.89z"/><path id="_矩形_28" data-name="&lt;矩形&gt;" class="cls-1" d="M604.64 6.88h8.89v8.03h-8.89z"/><path id="_矩形_29" data-name="&lt;矩形&gt;" class="cls-1" d="M624.15 6.88h8.89v8.03h-8.89z"/><path id="_矩形_30" data-name="&lt;矩形&gt;" class="cls-1" d="M720.02 4.3h6.67v33.34h-6.67z"/><path id="_矩形_31" data-name="&lt;矩形&gt;" class="cls-1" d="M589.59 41.95h57.51v4.09h-57.51z"/><path id="_矩形_32" data-name="&lt;矩形&gt;" class="cls-1" d="M612.25 29.9h3.01v11.04h-3.01z"/><path id="_矩形_33" data-name="&lt;矩形&gt;" class="cls-1" d="M646.24 40.3h2.01v6.96h-2.01z"/><path id="_矩形_34" data-name="&lt;矩形&gt;" class="cls-1" d="M588.87 40.95h2.72v7.03h-2.72z"/></g></svg>