<svg xmlns="http://www.w3.org/2000/svg" width="680" height="240"><defs><linearGradient id="a" x1="30.204%" y1="0%" x2="69.796%" y2="100%"><animate attributeName="x1" values="0%;100%;0%" dur="10s" begin="0s" repeatCount="indefinite"/><animate attributeName="x2" values="100%;0%;100%" dur="10s" begin="0s" repeatCount="indefinite"/><stop offset="0%" stop-color="#11eefd"><animate attributeName="stop-color" values="#11eefd;#0078d2;#11eefd" dur="10s" begin="0s" repeatCount="indefinite"/></stop><stop offset="100%" stop-color="#0078d2"><animate attributeName="stop-color" values="#0078d2;#11eefd;#0078d2" dur="10s" begin="0s" repeatCount="indefinite"/></stop></linearGradient><mask id="b"><path stroke="#fff" stroke-width="3" fill="transparent" d="M8 96V3h271"/><path fill="#fff" d="M8 36V3h67l-7 5H14v21"/><path stroke="#fff" stroke-width="3" fill="transparent" d="M340 3h337v57"/><path fill="#fff" d="M353.6 3h40.8l-7 6h-26.8M612 3h65v21l-6-7V9h-52"/><path stroke="#fff" stroke-width="3" fill="transparent" d="M8 120v117h203"/><path fill="#fff" d="M8 132v36l-6-7v-22"/><path stroke="#fff" stroke-width="3" fill="transparent" d="M238 237h439V84"/><path fill="#fff" d="M625.6 237H677v-45l-6 7v32h-38.4"/></mask></defs><path fill="url(#a)" mask="url(#b)" d="M0 0h680v240H0z"/></svg>