<svg
    xmlns="http://www.w3.org/2000/svg" width="680" height="280">
    <style type="text/css">
	.st0{fill:#4FD2DD;}
	.st1{fill:#235FA7;}
</style>
    <g id="bottom_4_">
        <g id="bottom_1_">
            <g>
                <polygon class="st0" points="672,63 672,54 670.8,51 670.8,27 667.8,24 667.8,21 655.8,10.2 642,10.2 639,7 606.6,7 604.8,9 
				598.8,9 595.8,6 640.8,6 643.8,9 649.8,9 652.8,6 655.8,6 661.8,12 667.8,12 673.8,18 673.8,66 			">
                    <animate  accumulate="none" additive="replace" attributeName="fill" begin="0s" calcMode="linear" dur="1.5s" fill="remove" repeatCount="indefinite" restart="always" values="#4fd2dd;#235fa7;#4fd2dd"></animate>
                </polygon>
                <polygon class="st1" points="649.2,7.8 644.4,7.8 641.4,4.8 652.2,4.8 			">
                    <animate  accumulate="none" additive="replace" attributeName="fill" begin="0s" calcMode="linear" dur="1.5s" fill="remove" repeatCount="indefinite" restart="always" values="#235fa7;#4fd2dd;#235fa7"></animate>
                </polygon>
                <polygon class="st0" points="670.2,54 670.2,66 671.4,66 671.4,110 672,110 672,78 672.6,75 672.6,66 670.8,63 670.8,54 			">
                    <animate  accumulate="none" additive="replace" attributeName="fill" begin="0s" calcMode="linear" dur="3s" fill="remove" repeatCount="indefinite" restart="always" values="#4fd2dd;#235fa7;transparent"></animate>
                </polygon>
            </g>
            <g>
                <polygon class="st0" points="672,63 672,54 670.8,51 670.8,27 667.8,24 667.8,21 655.8,10.2 642,10.2 639,7 606.6,7 604.8,9 
				598.8,9 595.8,6 640.8,6 643.8,9 649.8,9 652.8,6 655.8,6 661.8,12 667.8,12 673.8,18 673.8,66 			">
                    <animate  accumulate="none" additive="replace" attributeName="fill" begin="0s" calcMode="linear" dur="1.5s" fill="remove" repeatCount="indefinite" restart="always" values="#4fd2dd;#235fa7;#4fd2dd"></animate>
                </polygon>
                <polygon class="st1" points="649.2,7.8 644.4,7.8 641.4,4.8 652.2,4.8 			">
                    <animate  accumulate="none" additive="replace" attributeName="fill" begin="0s" calcMode="linear" dur="1.5s" fill="remove" repeatCount="indefinite" restart="always" values="#235fa7;#4fd2dd;#235fa7"></animate>
                </polygon>
                <polygon class="st0" points="670.2,54 670.2,66 671.4,66 671.4,110 672,110 672,78 672.6,75 672.6,66 670.8,63 670.8,54 			">
                    <animate  accumulate="none" additive="replace" attributeName="fill" begin="0s" calcMode="linear" dur="3s" fill="remove" repeatCount="indefinite" restart="always" values="#4fd2dd;#235fa7;transparent"></animate>
                </polygon>
            </g>
        </g>
        <g id="bottom">
            <g>
                <polygon class="st0" points="6,66 6,18 12,12 18,12 24,6 27,6 30,9 36,9 39,6 84,6 81,9 75,9 73.2,7 40.8,7 37.8,10.2 24,10.2 
				12,21 12,24 9,27 9,51 7.8,54 7.8,63 			">
                    <animate  accumulate="none" additive="replace" attributeName="fill" begin="0s" calcMode="linear" dur="1.5s" fill="remove" repeatCount="indefinite" restart="always" values="#4fd2dd;#235fa7;#4fd2dd"></animate>
                </polygon>
                <polygon class="st1" points="27.6,4.8 38.4,4.8 35.4,7.8 30.6,7.8 			">
                    <animate  accumulate="none" additive="replace" attributeName="fill" begin="0s" calcMode="linear" dur="1.5s" fill="remove" repeatCount="indefinite" restart="always" values="#235fa7;#4fd2dd;#235fa7"></animate>
                </polygon>
                <polygon class="st0" points="9,54 9,63 7.2,66 7.2,75 7.8,78 7.8,110 8.4,110 8.4,66 9.6,66 9.6,54 			">
                    <animate  accumulate="none" additive="replace" attributeName="fill" begin="0s" calcMode="linear" dur="3s" fill="remove" repeatCount="indefinite" restart="always" values="#4fd2dd;#235fa7;transparent"></animate>
                </polygon>
            </g>
            <g>
                <polygon class="st0" points="6,66 6,18 12,12 18,12 24,6 27,6 30,9 36,9 39,6 84,6 81,9 75,9 73.2,7 40.8,7 37.8,10.2 24,10.2 
				12,21 12,24 9,27 9,51 7.8,54 7.8,63 			">
                    <animate  accumulate="none" additive="replace" attributeName="fill" begin="0s" calcMode="linear" dur="1.5s" fill="remove" repeatCount="indefinite" restart="always" values="#4fd2dd;#235fa7;#4fd2dd"></animate>
                </polygon>
                <polygon class="st1" points="27.6,4.8 38.4,4.8 35.4,7.8 30.6,7.8 			">
                    <animate  accumulate="none" additive="replace" attributeName="fill" begin="0s" calcMode="linear" dur="1.5s" fill="remove" repeatCount="indefinite" restart="always" values="#235fa7;#4fd2dd;#235fa7"></animate>
                </polygon>
                <polygon class="st0" points="9,54 9,63 7.2,66 7.2,75 7.8,78 7.8,110 8.4,110 8.4,66 9.6,66 9.6,54 			">
                    <animate  accumulate="none" additive="replace" attributeName="fill" begin="0s" calcMode="linear" dur="3s" fill="remove" repeatCount="indefinite" restart="always" values="#4fd2dd;#235fa7;transparent"></animate>
                </polygon>
            </g>
        </g>
    </g>
    <g id="top_1_">
        <g id="bottom_3_">
            <g>
                <polygon class="st0" points="673.8,215.8 673.8,263.8 667.8,269.8 661.8,269.8 655.8,275.8 652.8,275.8 649.8,272.8 643.8,272.8 
				640.8,275.8 595.8,275.8 598.8,272.8 604.8,272.8 606.6,274.8 639,274.8 642,271.6 655.8,271.6 667.8,260.8 667.8,257.8 
				670.8,254.8 670.8,230.8 672,227.8 672,218.8 			">
                    <animate  accumulate="none" additive="replace" attributeName="fill" begin="0s" calcMode="linear" dur="1.5s" fill="remove" repeatCount="indefinite" restart="always" values="#4fd2dd;#235fa7;#4fd2dd"></animate>
                </polygon>
                <polygon class="st1" points="652.2,277 641.4,277 644.4,274 649.2,274 			">
                    <animate  accumulate="none" additive="replace" attributeName="fill" begin="0s" calcMode="linear" dur="1.5s" fill="remove" repeatCount="indefinite" restart="always" values="#235fa7;#4fd2dd;#235fa7"></animate>
                </polygon>
                <polygon class="st0" points="670.8,227.8 670.8,218.8 672.6,215.8 672.6,206.8 672,203.8 672,171.8 671.4,171.8 671.4,215.8 
				670.2,215.8 670.2,227.8 			">
                    <animate  accumulate="none" additive="replace" attributeName="fill" begin="0s" calcMode="linear" dur="3s" fill="remove" repeatCount="indefinite" restart="always" values="#4fd2dd;#235fa7;transparent"></animate>
                </polygon>
            </g>
            <g>
                <polygon class="st0" points="673.8,215.8 673.8,263.8 667.8,269.8 661.8,269.8 655.8,275.8 652.8,275.8 649.8,272.8 643.8,272.8 
				640.8,275.8 595.8,275.8 598.8,272.8 604.8,272.8 606.6,274.8 639,274.8 642,271.6 655.8,271.6 667.8,260.8 667.8,257.8 
				670.8,254.8 670.8,230.8 672,227.8 672,218.8 			">
                    <animate  accumulate="none" additive="replace" attributeName="fill" begin="0s" calcMode="linear" dur="1.5s" fill="remove" repeatCount="indefinite" restart="always" values="#4fd2dd;#235fa7;#4fd2dd"></animate>
                </polygon>
                <polygon class="st1" points="652.2,277 641.4,277 644.4,274 649.2,274 			">
                    <animate  accumulate="none" additive="replace" attributeName="fill" begin="0s" calcMode="linear" dur="1.5s" fill="remove" repeatCount="indefinite" restart="always" values="#235fa7;#4fd2dd;#235fa7"></animate>
                </polygon>
                <polygon class="st0" points="670.8,227.8 670.8,218.8 672.6,215.8 672.6,206.8 672,203.8 672,171.8 671.4,171.8 671.4,215.8 
				670.2,215.8 670.2,227.8 			">
                    <animate  accumulate="none" additive="replace" attributeName="fill" begin="0s" calcMode="linear" dur="3s" fill="remove" repeatCount="indefinite" restart="always" values="#4fd2dd;#235fa7;transparent"></animate>
                </polygon>
            </g>
        </g>
        <g id="bottom_2_">
            <g>
                <polygon class="st0" points="7.8,218.8 7.8,227.8 9,230.8 9,254.8 12,257.8 12,260.8 24,271.6 37.8,271.6 40.8,274.8 73.2,274.8 
				75,272.8 81,272.8 84,275.8 39,275.8 36,272.8 30,272.8 27,275.8 24,275.8 18,269.8 12,269.8 6,263.8 6,215.8 			">
                    <animate  accumulate="none" additive="replace" attributeName="fill" begin="0s" calcMode="linear" dur="1.5s" fill="remove" repeatCount="indefinite" restart="always" values="#4fd2dd;#235fa7;#4fd2dd"></animate>
                </polygon>
                <polygon class="st1" points="30.6,274 35.4,274 38.4,277 27.6,277 			">
                    <animate  accumulate="none" additive="replace" attributeName="fill" begin="0s" calcMode="linear" dur="1.5s" fill="remove" repeatCount="indefinite" restart="always" values="#235fa7;#4fd2dd;#235fa7"></animate>
                </polygon>
                <polygon class="st0" points="9.6,227.8 9.6,215.8 8.4,215.8 8.4,171.8 7.8,171.8 7.8,203.8 7.2,206.8 7.2,215.8 9,218.8 9,227.8 
							">
                    <animate  accumulate="none" additive="replace" attributeName="fill" begin="0s" calcMode="linear" dur="3s" fill="remove" repeatCount="indefinite" restart="always" values="#4fd2dd;#235fa7;transparent"></animate>
                </polygon>
            </g>
            <g>
                <polygon class="st0" points="7.8,218.8 7.8,227.8 9,230.8 9,254.8 12,257.8 12,260.8 24,271.6 37.8,271.6 40.8,274.8 73.2,274.8 
				75,272.8 81,272.8 84,275.8 39,275.8 36,272.8 30,272.8 27,275.8 24,275.8 18,269.8 12,269.8 6,263.8 6,215.8 			">
                    <animate  accumulate="none" additive="replace" attributeName="fill" begin="0s" calcMode="linear" dur="1.5s" fill="remove" repeatCount="indefinite" restart="always" values="#4fd2dd;#235fa7;#4fd2dd"></animate>
                </polygon>
                <polygon class="st1" points="30.6,274 35.4,274 38.4,277 27.6,277 			">
                    <animate  accumulate="none" additive="replace" attributeName="fill" begin="0s" calcMode="linear" dur="1.5s" fill="remove" repeatCount="indefinite" restart="always" values="#235fa7;#4fd2dd;#235fa7"></animate>
                </polygon>
                <polygon class="st0" points="9.6,227.8 9.6,215.8 8.4,215.8 8.4,171.8 7.8,171.8 7.8,203.8 7.2,206.8 7.2,215.8 9,218.8 9,227.8 
							">
                    <animate  accumulate="none" additive="replace" attributeName="fill" begin="0s" calcMode="linear" dur="3s" fill="remove" repeatCount="indefinite" restart="always" values="#4fd2dd;#235fa7;transparent"></animate>
                </polygon>
            </g>
        </g>
    </g>
</svg>
