<svg xmlns="http://www.w3.org/2000/svg" width="680" height="280"><style>.st0{fill:#4fd2dd}.st1{fill:#235fa7}</style><g id="bottom_4_"><g id="bottom_1_"><path class="st0" d="M672 63v-9l-1.2-3V27l-3-3v-3l-12-10.8H642L639 7h-32.4l-1.8 2h-6l-3-3h45l3 3h6l3-3h3l6 6h6l6 6v48z"><animate accumulate="none" additive="replace" attributeName="fill" begin="0s" calcMode="linear" dur="1.5s" fill="remove" repeatCount="indefinite" restart="always" values="#4fd2dd;#235fa7;#4fd2dd"/></path><path class="st1" d="M649.2 7.8h-4.8l-3-3h10.8z"><animate accumulate="none" additive="replace" attributeName="fill" begin="0s" calcMode="linear" dur="1.5s" fill="remove" repeatCount="indefinite" restart="always" values="#235fa7;#4fd2dd;#235fa7"/></path><path class="st0" d="M670.2 54v12h1.2v44h.6V78l.6-3v-9l-1.8-3v-9z"><animate accumulate="none" additive="replace" attributeName="fill" begin="0s" calcMode="linear" dur="3s" fill="remove" repeatCount="indefinite" restart="always" values="#4fd2dd;#235fa7;transparent"/></path><g><path class="st0" d="M672 63v-9l-1.2-3V27l-3-3v-3l-12-10.8H642L639 7h-32.4l-1.8 2h-6l-3-3h45l3 3h6l3-3h3l6 6h6l6 6v48z"><animate accumulate="none" additive="replace" attributeName="fill" begin="0s" calcMode="linear" dur="1.5s" fill="remove" repeatCount="indefinite" restart="always" values="#4fd2dd;#235fa7;#4fd2dd"/></path><path class="st1" d="M649.2 7.8h-4.8l-3-3h10.8z"><animate accumulate="none" additive="replace" attributeName="fill" begin="0s" calcMode="linear" dur="1.5s" fill="remove" repeatCount="indefinite" restart="always" values="#235fa7;#4fd2dd;#235fa7"/></path><path class="st0" d="M670.2 54v12h1.2v44h.6V78l.6-3v-9l-1.8-3v-9z"><animate accumulate="none" additive="replace" attributeName="fill" begin="0s" calcMode="linear" dur="3s" fill="remove" repeatCount="indefinite" restart="always" values="#4fd2dd;#235fa7;transparent"/></path></g></g><g id="bottom"><path class="st0" d="M6 66V18l6-6h6l6-6h3l3 3h6l3-3h45l-3 3h-6l-1.8-2H40.8l-3 3.2H24L12 21v3l-3 3v24l-1.2 3v9z"><animate accumulate="none" additive="replace" attributeName="fill" begin="0s" calcMode="linear" dur="1.5s" fill="remove" repeatCount="indefinite" restart="always" values="#4fd2dd;#235fa7;#4fd2dd"/></path><path class="st1" d="M27.6 4.8h10.8l-3 3h-4.8z"><animate accumulate="none" additive="replace" attributeName="fill" begin="0s" calcMode="linear" dur="1.5s" fill="remove" repeatCount="indefinite" restart="always" values="#235fa7;#4fd2dd;#235fa7"/></path><path class="st0" d="M9 54v9l-1.8 3v9l.6 3v32h.6V66h1.2V54z"><animate accumulate="none" additive="replace" attributeName="fill" begin="0s" calcMode="linear" dur="3s" fill="remove" repeatCount="indefinite" restart="always" values="#4fd2dd;#235fa7;transparent"/></path><g><path class="st0" d="M6 66V18l6-6h6l6-6h3l3 3h6l3-3h45l-3 3h-6l-1.8-2H40.8l-3 3.2H24L12 21v3l-3 3v24l-1.2 3v9z"><animate accumulate="none" additive="replace" attributeName="fill" begin="0s" calcMode="linear" dur="1.5s" fill="remove" repeatCount="indefinite" restart="always" values="#4fd2dd;#235fa7;#4fd2dd"/></path><path class="st1" d="M27.6 4.8h10.8l-3 3h-4.8z"><animate accumulate="none" additive="replace" attributeName="fill" begin="0s" calcMode="linear" dur="1.5s" fill="remove" repeatCount="indefinite" restart="always" values="#235fa7;#4fd2dd;#235fa7"/></path><path class="st0" d="M9 54v9l-1.8 3v9l.6 3v32h.6V66h1.2V54z"><animate accumulate="none" additive="replace" attributeName="fill" begin="0s" calcMode="linear" dur="3s" fill="remove" repeatCount="indefinite" restart="always" values="#4fd2dd;#235fa7;transparent"/></path></g></g></g><g id="top_1_"><g id="bottom_3_"><path class="st0" d="M673.8 215.8v48l-6 6h-6l-6 6h-3l-3-3h-6l-3 3h-45l3-3h6l1.8 2H639l3-3.2h13.8l12-10.8v-3l3-3v-24l1.2-3v-9z"><animate accumulate="none" additive="replace" attributeName="fill" begin="0s" calcMode="linear" dur="1.5s" fill="remove" repeatCount="indefinite" restart="always" values="#4fd2dd;#235fa7;#4fd2dd"/></path><path class="st1" d="M652.2 277h-10.8l3-3h4.8z"><animate accumulate="none" additive="replace" attributeName="fill" begin="0s" calcMode="linear" dur="1.5s" fill="remove" repeatCount="indefinite" restart="always" values="#235fa7;#4fd2dd;#235fa7"/></path><path class="st0" d="M670.8 227.8v-9l1.8-3v-9l-.6-3v-32h-.6v44h-1.2v12z"><animate accumulate="none" additive="replace" attributeName="fill" begin="0s" calcMode="linear" dur="3s" fill="remove" repeatCount="indefinite" restart="always" values="#4fd2dd;#235fa7;transparent"/></path><g><path class="st0" d="M673.8 215.8v48l-6 6h-6l-6 6h-3l-3-3h-6l-3 3h-45l3-3h6l1.8 2H639l3-3.2h13.8l12-10.8v-3l3-3v-24l1.2-3v-9z"><animate accumulate="none" additive="replace" attributeName="fill" begin="0s" calcMode="linear" dur="1.5s" fill="remove" repeatCount="indefinite" restart="always" values="#4fd2dd;#235fa7;#4fd2dd"/></path><path class="st1" d="M652.2 277h-10.8l3-3h4.8z"><animate accumulate="none" additive="replace" attributeName="fill" begin="0s" calcMode="linear" dur="1.5s" fill="remove" repeatCount="indefinite" restart="always" values="#235fa7;#4fd2dd;#235fa7"/></path><path class="st0" d="M670.8 227.8v-9l1.8-3v-9l-.6-3v-32h-.6v44h-1.2v12z"><animate accumulate="none" additive="replace" attributeName="fill" begin="0s" calcMode="linear" dur="3s" fill="remove" repeatCount="indefinite" restart="always" values="#4fd2dd;#235fa7;transparent"/></path></g></g><g id="bottom_2_"><path class="st0" d="M7.8 218.8v9l1.2 3v24l3 3v3l12 10.8h13.8l3 3.2h32.4l1.8-2h6l3 3H39l-3-3h-6l-3 3h-3l-6-6h-6l-6-6v-48z"><animate accumulate="none" additive="replace" attributeName="fill" begin="0s" calcMode="linear" dur="1.5s" fill="remove" repeatCount="indefinite" restart="always" values="#4fd2dd;#235fa7;#4fd2dd"/></path><path class="st1" d="M30.6 274h4.8l3 3H27.6z"><animate accumulate="none" additive="replace" attributeName="fill" begin="0s" calcMode="linear" dur="1.5s" fill="remove" repeatCount="indefinite" restart="always" values="#235fa7;#4fd2dd;#235fa7"/></path><path class="st0" d="M9.6 227.8v-12H8.4v-44h-.6v32l-.6 3v9l1.8 3v9z"><animate accumulate="none" additive="replace" attributeName="fill" begin="0s" calcMode="linear" dur="3s" fill="remove" repeatCount="indefinite" restart="always" values="#4fd2dd;#235fa7;transparent"/></path><g><path class="st0" d="M7.8 218.8v9l1.2 3v24l3 3v3l12 10.8h13.8l3 3.2h32.4l1.8-2h6l3 3H39l-3-3h-6l-3 3h-3l-6-6h-6l-6-6v-48z"><animate accumulate="none" additive="replace" attributeName="fill" begin="0s" calcMode="linear" dur="1.5s" fill="remove" repeatCount="indefinite" restart="always" values="#4fd2dd;#235fa7;#4fd2dd"/></path><path class="st1" d="M30.6 274h4.8l3 3H27.6z"><animate accumulate="none" additive="replace" attributeName="fill" begin="0s" calcMode="linear" dur="1.5s" fill="remove" repeatCount="indefinite" restart="always" values="#235fa7;#4fd2dd;#235fa7"/></path><path class="st0" d="M9.6 227.8v-12H8.4v-44h-.6v32l-.6 3v9l1.8 3v9z"><animate accumulate="none" additive="replace" attributeName="fill" begin="0s" calcMode="linear" dur="3s" fill="remove" repeatCount="indefinite" restart="always" values="#4fd2dd;#235fa7;transparent"/></path></g></g></g></svg>