<svg xmlns="http://www.w3.org/2000/svg" width="680" height="240"><defs><filter id="a" height="150%" width="150%" x="-25%" y="-25%"><feMorphology operator="dilate" radius="1" in="SourceAlpha" result="thicken"/><feGaussianBlur in="thicken" stdDeviation="2" result="blurred"/><feFlood flood-color="rgba(124,231,253,0.7)" result="glowColor"><animate attributeName="flood-color" values="rgba(124,231,253,0.7); rgba(124,231,253,0.3); rgba(124,231,253,0.7);" dur="3s" begin="0s" repeatCount="indefinite"/></feFlood><feComposite in="glowColor" in2="blurred" operator="in" result="softGlowColored"/><feMerge><feMergeNode in="softGlowColored"/><feMergeNode in="SourceGraphic"/></feMerge></filter></defs><path fill="transparent" stroke-width="2" stroke="#2e6099" d="M15 5h650q10 0 10 10v210q0 10-10 10H15q-10 0-10-10V15Q5 5 15 5"/><path stroke-width="2" fill="transparent" stroke-linecap="round" filter="url(#a)" stroke="#7ce7fd" d="M20 5h-5Q5 5 5 15v5M660 5h5q10 0 10 10v5M660 235h5q10 0 10-10v-5M20 235h-5q-10 0-10-10v-5"/></svg>