<svg xmlns="http://www.w3.org/2000/svg" viewBox="0 0 39.28 39.28"><defs><style>.cls-1,.cls-2{fill:#00b8de}.cls-2{fill-rule:evenodd}</style></defs><g id="图层_2" data-name="图层 2"><g id="Layer_1" data-name="Layer 1"><path class="cls-1" d="M0 19.65A19.63 19.63 0 0119.65 0a19.63 19.63 0 0119.63 19.65 19.6 19.6 0 01-19.63 19.62A19.6 19.6 0 010 19.65zm.35 0a19.26 19.26 0 0019.3 19.28 19.27 19.27 0 0019.29-19.28A19.31 19.31 0 0019.65.35a19.29 19.29 0 00-19.3 19.3z"/><path class="cls-1" d="M.71 19.65a19.32 19.32 0 011.12-6.44c.13-.32.25-.65.39-1a19.07 19.07 0 012.72-4.49v-.06h6.76c.3-.2.63-.39.94-.58s.69-.36 1-.52a14.34 14.34 0 016-1.29 14.18 14.18 0 014.24.64c.22.06.43.13.65.21a14.47 14.47 0 013 1.54h6.71l.05.06c.38.47.73.93 1.06 1.42s.62 1 .9 1.52a18.8 18.8 0 012.27 9 18.81 18.81 0 01-1.12 6.43q-.18.5-.39 1a18.55 18.55 0 01-2.72 4.53l-.05.06h-6.66c-.3.2-.61.39-.94.58a9.11 9.11 0 01-1 .51 14.11 14.11 0 01-6 1.31 14.52 14.52 0 01-4.25-.64c-.23-.08-.44-.14-.65-.23a13.61 13.61 0 01-3.05-1.53H5v-.06a16.15 16.15 0 01-1-1.42 16.77 16.77 0 01-1-1.56 18.89 18.89 0 01-2.27-9zm.36 0a18.43 18.43 0 002.22 8.81 13.1 13.1 0 00.9 1.54 16.07 16.07 0 001 1.33h6.61a14 14 0 003 1.53c.2.07.41.15.63.21a14.23 14.23 0 004.15.63 13.9 13.9 0 005.82-1.27c.33-.15.67-.33 1-.51s.64-.38.95-.59h6.7a18.37 18.37 0 002.62-4.37c.13-.32.25-.63.38-.94a18.66 18.66 0 001.1-6.32A18.62 18.62 0 0036 10.82c-.28-.51-.58-1-.89-1.48s-.64-.9-1-1.33h-6.68a14.44 14.44 0 00-3-1.53l-.63-.2a13.83 13.83 0 00-4.14-.62 14.18 14.18 0 00-5.83 1.25c-.34.16-.68.34-1 .51s-.65.39-1 .59H5.15a19.42 19.42 0 00-2.62 4.36c-.12.32-.25.64-.36 1a18.37 18.37 0 00-1.1 6.28z"/><path class="cls-2" d="M3.06 19.38a13.91 13.91 0 01.09-1.44h3.78a13.74 13.74 0 00-.11 1.44zm29.29-1.44h3.8c0 .48.07 1 .07 1.44h-3.76a13.74 13.74 0 00-.11-1.44zm3.85 2.79c0 .43-.08.86-.14 1.29h-3.81a11.36 11.36 0 00.16-1.29zM7.05 22H3.22c-.06-.43-.1-.86-.14-1.29h3.79A11.43 11.43 0 007.05 22zm28.7 1.63c-.1.39-.22.76-.34 1.14h-4a9.25 9.25 0 00.44-1.14zM7.9 24.79h-4c-.12-.38-.23-.75-.33-1.14h3.89a11.19 11.19 0 00.44 1.14zm26.76 1.92c-.17.35-.34.69-.53 1H29.6a12.47 12.47 0 00.74-1zm-25 1H5.15a10.65 10.65 0 01-.52-1h4.31c.24.35.49.69.75 1zM3.29 16.88a15.62 15.62 0 01.35-1.62h3.94a16.8 16.8 0 00-.46 1.62zm28.41-1.62h3.95c.14.54.26 1.08.35 1.62h-3.84a12.53 12.53 0 00-.46-1.62zm-27.83-.77a16.25 16.25 0 01.71-1.79h4.28a12.79 12.79 0 00-1 1.79zm26.55-1.79h4.29a16.19 16.19 0 01.7 1.79h-4a12.79 12.79 0 00-1-1.79zm-25.61-.49a16.34 16.34 0 011.17-2h4.95a13.63 13.63 0 00-1.74 2zm23.54-2h4.95a16.41 16.41 0 011.18 2h-4.39a13.63 13.63 0 00-1.74-2zM6.12 10a15.73 15.73 0 011-1.29h5.74a13 13 0 00-1.7 1.29zm20.27-1.26h5.75c.36.41.7.85 1 1.29h-5a13 13 0 00-1.73-1.29zm6.26 21.19c-.16.21-.33.41-.51.61h-5.75a9.62 9.62 0 00.91-.61zm-19.76.61H7.15c-.18-.2-.35-.4-.52-.61H12a9.46 9.46 0 00.89.61z"/><path class="cls-1" d="M6.73 19.65A12.94 12.94 0 0119.65 6.73a12.91 12.91 0 0112.9 12.92 12.87 12.87 0 01-12.9 12.9 12.91 12.91 0 01-12.92-12.9zm.18 0a12.74 12.74 0 0012.74 12.74 12.74 12.74 0 0012.72-12.74A12.72 12.72 0 0019.65 6.91 12.72 12.72 0 006.91 19.65z"/><path class="cls-1" d="M7.56 19.65A12.1 12.1 0 0119.65 7.56a12.09 12.09 0 0112.07 12.09 12.05 12.05 0 01-12.07 12.07A12.07 12.07 0 017.56 19.65zm.09 0a12 12 0 0012 12 12 12 0 0012-12 12 12 0 00-12-12 12 12 0 00-12 12z"/><path class="cls-2" d="M3.59 9.77h.62v.16h-.62v-.16zm32.12 0h-.64v.16h.64v-.16zm2.73 9.75h-1.5v.15h1.5v-.15zm-2.73 10h-.64v-.15h.64v.15zm2.48-8.11h-1.3v-.16h1.3v.16zM38.08 23H36.8v-.16h1.28V23zm-.39 1.63h-1.17v-.16h1.17v.16zm-.5 1.62h-1.07v-.15h1.07v.15zm-.49 1.65h-1v-.17h1v.17zm1.49-10h-1.3v.16h1.3v-.16zm-.11-1.62H36.8v.15h1.28v-.15zm-.39-1.63h-1.17v.17h1.17v-.17zm-.5-1.65h-1.07v.17h1.07V13zm-.49-1.6h-1v.15h1v-.15zM.85 19.52h1.49v.15H.85v-.15zm2.74 10h.62v-.15h-.62v.15zM1.1 21.4h1.29v-.16H1.1v.16zm.1 1.6h1.3v-.16H1.2V23zm.39 1.63h1.17v-.16H1.59v.16zm.5 1.62h1.07v-.15H2.09v.15zm.51 1.65h1v-.17h-1v.17zm-1.5-10h1.29v.16H1.1v-.16zm.1-1.62h1.3v.15H1.2v-.15zm.39-1.63h1.17v.17H1.59v-.17zm.5-1.65h1.07v.17H2.09V13zm.51-1.6h1v.15h-1zM19.65 3.17a.3.3 0 100-.6.3.3 0 100 .6zM22.61 2.63A.5.5 0 1122 3a.5.5 0 01.61-.37zM25.57 3.17a.75.75 0 01.43 1 .74.74 0 01-.95.44.74.74 0 11.52-1.39zM28.41 4.24a1 1 0 11-1.34.35 1 1 0 011.34-.35zM16.68 2.63a.5.5 0 01.17 1 .52.52 0 01-.58-.4.52.52 0 01.41-.6zM13.73 3.17a.74.74 0 11-.45 1 .74.74 0 01.45-1zM10.87 4.24a1 1 0 11-.36 1.34 1 1 0 01.36-1.34zM19.65 36.71a.31.31 0 00.3-.3.3.3 0 00-.3-.3.31.31 0 00-.32.3.31.31 0 00.32.3zM22.61 36.65a.51.51 0 00.4-.58.5.5 0 00-1 .18.51.51 0 00.6.4zM25.57 36.11a.74.74 0 10-1-.45.74.74 0 001 .45zM28.41 35a1 1 0 00.37-1.34 1 1 0 00-1.35-.35 1 1 0 101 1.69zM16.68 36.65a.5.5 0 00.17-1 .51.51 0 00-.58.4.52.52 0 00.41.6zM13.73 36.11a.74.74 0 00.5-1.39.74.74 0 10-.5 1.39zM10.87 35a1 1 0 101-1.69 1 1 0 00-1.34.35 1 1 0 00.34 1.34z"/></g></g></svg>