<svg xmlns="http://www.w3.org/2000/svg" viewBox="0 0 732.32 614.22"><defs><clipPath id="clip-path" transform="translate(0 -173.4)"><path fill="none" d="M116.21 0h1000v750h-1000z"/></clipPath><style>.cls-20,.cls-21,.cls-22,.cls-24,.cls-3{fill:none}.cls-21,.cls-22,.cls-3{stroke:#46d0f0}.cls-20,.cls-21,.cls-22,.cls-24,.cls-3{stroke-miterlimit:10}.cls-20,.cls-3{stroke-width:1.26px}.cls-20,.cls-24{stroke:#ff9e17}.cls-15,.cls-17,.cls-18,.cls-19{fill:#46d0f0}.cls-17{opacity:.75}.cls-18{opacity:.5}.cls-19{opacity:.25}.cls-21{stroke-width:1.06px}.cls-22{stroke-width:1.34px}</style></defs><g id="图层_2" data-name="图层 2"><g clip-path="url(#clip-path)" id="Layer_1" data-name="Layer 1"><path class="cls-3" d="M453.75 420.27c-7.68-15.38-26.61-26.13-42.83-24.38-16.63 1.79-24.82 16.05-17.73 32.26 7.31 16.73 27.74 28.49 45 25.83 16.81-2.59 23.49-17.86 15.56-33.71zM585.37 343.15c-21.55-33.73-51-62.07-83.26-83.26l-47.27 63.21c12.47 8.51 23.27 19.89 30.3 33.08 7.21 13.55 9.42 27.06 7.06 38.81l126.72 57.5c.86-35.23-10.45-73.19-33.55-109.34zM415 528c-58.9-15.92-111.17-61.07-129.2-115.88l-119.53 15.54c22.95 108.57 122.14 201.59 239.76 230z" transform="translate(0 -173.4)"/><path d="M326.59 342.79c-59.16-46.67-88.59-113.36-73.47-169.07L39.89 115.08C-37.54 242.6-1.65 426.3 150.26 565.04z" stroke-width=".63" stroke-miterlimit="10" stroke="#46d0f0" fill="none"/><path d="M413.41 462.35C278.2 430.84 165.94 322.97 143.55 198.52L23.19 214.18C35.58 401.82 196.6 572.16 403 613.46z" stroke-dasharray="6.28 6.28" stroke="#ff9e17" stroke-width="1.26" stroke-miterlimit="10" fill="none"/><path d="M637.32 192.99C606.85 149.16 567.43 112.8 525.2 85.6l-11.77 15.73c37.13 24.15 71.38 56.44 97.15 95.13 27.92 41.91 42.75 86.52 43.59 128.61l39.05 17.72c-3.34-49.89-22.5-101.76-55.9-149.8z" stroke-width=".94" stroke="#ff9e17" stroke-miterlimit="10" fill="none"/><path class="cls-3" d="M400.75 260.07c-1-.18-2.07-.36-3.1-.52l.61 3.08" transform="translate(0 -173.4)"/><path stroke-dasharray="5.95 5.95" stroke-width="1.26" stroke-miterlimit="10" stroke="#46d0f0" fill="none" d="M399.41 95.07l8.63 43.82"/><path class="cls-3" d="M408.62 315.21l.6 3.08c1 .14 2.07.3 3.11.47" transform="translate(0 -173.4)"/><path d="M418.19 146.47a133.74 133.74 0 0146 19.94 131.14 131.14 0 0137.62 38.13" stroke-dasharray="5.97 5.97" stroke-width="1.26" stroke-miterlimit="10" stroke="#46d0f0" fill="none"/><path class="cls-3" d="M503.4 380.49c.54.9 1.06 1.81 1.57 2.72l3.11-.42" transform="translate(0 -173.4)"/><path stroke-dasharray="6.66 6.66" stroke-width="1.26" stroke-miterlimit="10" stroke="#46d0f0" fill="none" d="M514.69 208.5l49.52-6.69"/><path class="cls-3" d="M567.51 374.76l3.11-.42c-.56-.88-1.12-1.77-1.69-2.65" transform="translate(0 -173.4)"/><path d="M565.44 193.07c-17.64-25.65-41.62-49.3-70.53-68.28-29.3-19.24-60.71-31.74-91.07-37.55" stroke-dasharray="6.28 6.28" stroke-width="1.26" stroke-miterlimit="10" stroke="#46d0f0" fill="none"/><path d="M531.06 75.78c-47.55-30.28-98.24-50.09-147.18-59.54l1.36 6.9c47.29 9 96.32 28.1 142.27 57.45 47.13 30.11 86.94 68.36 116.69 110.42l8.27-1.12c-31.2-43.53-72.6-83.03-121.41-114.11z" stroke-width="1.25" stroke="#ff9e17" stroke-miterlimit="10" fill="none"/><path d="M547.58 539.42l7.54 19.48c-73.3 22.58-164.34 13.79-254.1-34l7.63-18.84c84.22 44.73 169.7 53.59 238.93 33.36z" stroke-width="3.77" stroke-miterlimit="10" stroke="#46d0f0" fill="none"/><path d="M169.44 64.17l-11-6.79c.57-.42 1.14-.85 1.72-1.26 42.71-30.75 94.79-45.06 147.39-46.42l4.12 7.45c-50.5 1.6-100.22 15.79-140.58 45.78-.57.41-1.09.83-1.65 1.24z" stroke-width=".94" stroke-miterlimit="10" stroke="#46d0f0" fill="none"/><path d="M684.21 283.83l10.59 1.77c.3.73.61 1.45.9 2.18 24.87 61.4 29.57 123.31 13.37 177.94l-13.72-10.83c16.4-51.44 12.83-110.24-10.3-168.95-.28-.72-.57-1.42-.84-2.11z" stroke-width="1.25" stroke-miterlimit="10" stroke="#46d0f0" fill="none"/><path class="cls-3" d="M390.44 506s-.46-2.68-.84-5.3c-.18-1.31-.36-2.61-.49-3.58s-.19-1.63-.19-1.63l-3.83-1.94-4.41-2.22-5.56-3.21-3.12-1.82-3.29-2.15c-2.23-1.51-4.68-2.95-7-4.76l-3.59-2.65c-1.22-.89-2.46-1.78-3.61-2.79L350.9 471l-1.78-1.48-.9-.74-.84-.79c-2.25-2.11-4.53-4.17-6.69-6.27l-6.06-6.33c-1.85-2.12-3.58-4.2-5.24-6.14l-1.22-1.44-1.09-1.46-2.08-2.73c-2.72-3.46-4.54-6.53-5.94-8.61l-1.58-2.42-.5-.87s-2.63-.1-5.3-.27-5.39-.4-5.39-.4l-1.87-3.38c-1.06-2-2.27-4.78-3.56-7.49-.31-.68-.63-1.36-.94-2s-.51-1.33-.76-2c-.48-1.28-.94-2.47-1.33-3.49-.78-2-1.29-3.39-1.29-3.39l9.27-1.19 4.68-.61 1.51 3.8 1.55 3.93c.66 1.43 1.41 2.95 2.14 4.47l1.09 2.29c.36.76.72 1.5 1.14 2.2.8 1.41 1.56 2.73 2.2 3.87s1.18 2.09 1.56 2.75l.66 1 2 3 2.28 3.46 3.28 4.37a152.06 152.06 0 0020.63 22.21c1 1 2.15 1.83 3.23 2.75l3.25 2.69 1.61 1.33 1.68 1.23 3.28 2.42c1.09.78 2.12 1.61 3.21 2.31l3.17 2.08c2.08 1.32 4 2.69 5.87 3.71 3.73 2.13 6.81 4 9.07 5.05l3.51 1.77 1.2.61c.38.18.83.43 1.37.68l1.81.79 4.55 2c.83.35 1.68.77 2.56 1.09l2.68 1 5.28 2c1.69.55 3.27 1 4.63 1.41l4.51 1.37-.29 4.71-.58 9.38-4-1.2c-2.42-.76-5.68-1.59-8.88-2.86l-4.72-1.73-2.18-.8-1.92-.83z" transform="translate(0 -173.4)"/><path class="cls-15" d="M551.39 311.73s.22 1.74.39 3.45.27 3.42.27 3.42l1.15 1.1c.74.71 1.85 1.75 3.22 3.11s3 3 4.9 4.94l3 3.1c.51.55 1.06 1.1 1.59 1.69l1.64 1.79a292.15 292.15 0 0129.66 38.39 255.16 255.16 0 0122.3 42.84c.65 1.54 1.15 3 1.69 4.39s1.05 2.73 1.48 4c.85 2.51 1.62 4.71 2.21 6.53 1.11 3.63 1.74 5.72 1.74 5.72l1.44 1.19 3.12 2.64c2.28 1.94 4.58 3.95 4.58 3.95l.43 1.55c.23 1 .57 2.39 1 4.09.2.84.43 1.77.66 2.74l.63 3.06c.22 1.07.44 2.17.67 3.29s.4 2.26.6 3.4c.39 2.29.79 4.59 1 6.72s.6 4.18.73 5.88c.32 3.45.54 5.76.54 5.76l-8.06-3.2-4.12-1.64-.55-6.82c-.25-2.05-.5-4.42-.84-7-.2-1.28-.41-2.6-.61-3.93-.11-.67-.21-1.34-.31-2l-.39-2c-.26-1.36-.52-2.71-.77-4s-.59-2.64-.87-3.9-.57-2.47-.83-3.62-.6-2.24-.86-3.25-.51-1.91-.72-2.72-.45-1.52-.62-2.1l-.55-1.83-.42-1.4-.51-1.67c-.22-.66-.47-1.42-.76-2.27-.59-1.69-1.2-3.73-2.11-6.08l-1.39-3.71c-.46-1.3-1.07-2.67-1.64-4.1-1.1-2.83-2.5-5.89-3.93-9.11-.73-1.6-1.54-3.24-2.34-4.91s-1.66-3.36-2.55-5.08c-3.52-6.8-7.58-14-12.12-21s-9.24-13.67-14-19.85-9.46-11.69-13.61-16.28l-3-3.29c-1-1-1.9-2-2.76-2.93s-1.67-1.77-2.43-2.55l-2.12-2.13c-2.53-2.57-4-4-4-4l-1.4-1.34c-.88-.85-2.14-2.07-3.71-3.49s-3.34-3.1-5.35-4.83l-3-2.68-3.28-2.76c-2.12-1.83-4.35-3.55-6.38-5.21s-4-3.11-5.67-4.4l-5.62-4.16 1.55-1.68 3-3.27 4.68 3.44c2.79 2.1 6.5 4.92 10.11 7.86 1.84 1.44 3.61 3 5.29 4.36s3.23 2.74 4.54 3.89 2.44 2.12 3.19 2.81z" transform="translate(0 -173.4)"/><path d="M468.66 213.67c-12-23.16-40.55-39.33-65.16-37-25.54 2.44-38.81 24-28.28 49.06 11.07 26.38 43.23 45 70.28 40.46 25.97-4.33 35.68-28.25 23.16-52.52z" stroke-width="8.8" stroke-dasharray="6.29 6.29" stroke-miterlimit="10" stroke="#46d0f0" fill="none"/><path class="cls-15" d="M397.9 228.87l3.74 23.76a222.33 222.33 0 00-41.58-4L349 223.46a273.45 273.45 0 0148.9 5.41z" transform="translate(0 -173.4)"/><path class="cls-17" d="M349.78 248.83a176.61 176.61 0 00-39.65 6.38L289.37 230a221.33 221.33 0 0147.48-6.46z" transform="translate(0 -173.4)"/><path class="cls-18" d="M300.74 258.21a137.53 137.53 0 00-34.51 17.94l-30.86-22.86a174.72 174.72 0 0142.58-20z" transform="translate(0 -173.4)"/><path class="cls-19" d="M258.57 282.14a119.15 119.15 0 00-25.48 30L192.69 295a149.53 149.53 0 0133-34.84zM395 180.13l4 25.87a258.47 258.47 0 00-46.71-5l-12.09-27.49a317.64 317.64 0 0154.8 6.62z" transform="translate(0 -173.4)"/><path class="cls-18" d="M340.73 201.16a207.08 207.08 0 00-45.09 6.46l-23-27.93a260.36 260.36 0 0153.89-6.29z" transform="translate(0 -173.4)"/><path class="cls-17" d="M284.86 210.81a162.69 162.69 0 00-40.06 19.44l-34.75-25.74a208.15 208.15 0 0149.5-21.44z" transform="translate(0 -173.4)"/><path class="cls-15" d="M235.77 236.84a140 140 0 00-30.65 33.42l-46.43-19.73A178.18 178.18 0 01198.64 212z" transform="translate(0 -173.4)"/><path class="cls-20" d="M583.64 569C553 601.59 507 617.18 454.78 614.65L437.26 495.9c24.74 2.44 47.74-2.9 64.45-16.31a62.07 62.07 0 0018.41-24l93.14 60.51a125.43 125.43 0 01-29.62 52.9z" transform="translate(0 -173.4)"/><path class="cls-3" d="M389.61 82.11l1.85 7.39.42.06-1.87-7.4-.4-.05z"/><path class="cls-20" d="M361.23 253.79l3.42 7.61h-.79l-3.45-7.61zm-2 7.77h-.76l-3.85-7.56h.84zm7.84-7.74l3.1 7.59h-.77l-3.18-7.59zm-13.25 8.06l-.77.06-4.11-7.66.82-.05zm19.03-7.88l2.79 7.55h-.78L372 254zm-24.44 8.34l-.76.08-4.46-7.65.82-.09zm30.29-8l2.47 7.5-.79-.06-2.52-7.5zM343.07 263l-.74.11-4.79-7.66.82-.11zm41.5-8.09l2.14 7.45-.78-.08-2.21-7.46zm-46.77 8.91l-.75.13-5.1-7.64.8-.14zm-5.23 1l-.72.16-5.45-7.62.8-.17zm-5.15 1.18l-.73.18-5.77-7.59.79-.19zm-5.08 1.34l-.72.21-6.11-7.55.78-.21zm-5 1.53l-.7.23-6.46-7.51.78-.24zm-4.95 1.7l-.68.25-6.79-7.44.76-.27zm-4.85 1.88l-.68.29-7.1-7.38.74-.3zm-4.75 2.07l-.66.31-7.45-7.3.73-.32zm-4.64 2.24l-.67.35-7.74-7.22.68-.34zm-4.54 2.43l-.64.37-8.09-7.11.68-.37zm-4.42 2.61l-.63.39-8.41-7 .66-.4zm-4.3 2.79l-.61.42-8.74-6.86.65-.43zm-4.17 3l-.58.44-9.14-6.74.63-.47zm-4 3.16l-.57.47-9.38-6.57.6-.48zm-3.89 3.34l-.53.49-9.71-6.39.59-.52zm-3.72 3.52l-.53.52-10-6.22.56-.54zm-3.57 3.71l-.49.53-10.32-6 .54-.58zm-3.41 3.88l-.47.57-10.66-5.85.51-.6zm-3.22 4.05l-.44.6-10.9-5.59.49-.63zm-3 4.24l-.42.62-11.17-5.36.46-.65zm-2.91 4.38l-.39.64-11.45-5.1.43-.68zm-2.65 4.58l-.36.67-11.71-4.84.4-.7zm-2.44 4.75l-.33.69-12-4.55.37-.73zm-2.22 4.91l-.29.72-12.21-4.25.33-.76zm-2 5.08l-.27.74L231 334l.29-.78zm-1.76 5.24l-.23.75-12.7-3.6.27-.81zm-1.52 5.38l-.2.78-12.85-3.25.22-.83zm-1.27 5.53l-.16.81-13-2.9.18-.85zm-1 5.67l-.12.83-13.22-2.5.15-.88zm-.75 5.83l-.08.85-13.37-2.11.11-.9zm-.47 6v.86l-13.58-1.7.07-.92zm-.19 6.08v.88l-13.61-1.25v-.94zm.09 6.19v.9l-13.71-.8v-1zm.39 6.31l.08.91-13.78-.35-.07-1zm.68 6.4l.13.92-13.83.12-.12-1zm1 6.48l.16.94-13.85.61-.16-1z" transform="translate(0 -173.4)"/><path class="cls-3" d="M226.3 236.54l.11.51 13.85-1.08-.1-.47-13.86 1.04z"/><path class="cls-15" d="M362.83 441a1.24 1.24 0 00-.91.6 1.31 1.31 0 000 1.1 2 2 0 00.85 1 1.59 1.59 0 002.14-.34 1.3 1.3 0 000-1.11 2 2 0 00-.85-.95 1.91 1.91 0 00-1.23-.3zM508.39 406.52a2.09 2.09 0 01.43 0 2.09 2.09 0 011.6 1.47c.13.68-.36 1.13-1.11 1a2.08 2.08 0 01-1.6-1.47.8.8 0 01.68-1zm.81 4.87a1.11 1.11 0 01.51 0 2.08 2.08 0 011.55 1.54c.08.68-.45 1.09-1.22.92a2.08 2.08 0 01-1.53-1.54.78.78 0 01.69-.92zm.47 4.83a1.32 1.32 0 01.61 0 2 2 0 011.46 1.61c0 .67-.55 1-1.32.82a2 2 0 01-1.46-1.61.79.79 0 01.71-.82zm.12 4.79a1.47 1.47 0 01.7.07 2 2 0 011.38 1.68c0 .67-.64 1-1.42.73a2 2 0 01-1.38-1.68.8.8 0 01.72-.81zm-142 24.51a2 2 0 011.57.49 1.43 1.43 0 01.29 2.09 1.7 1.7 0 01-2.27-.15 1.43 1.43 0 01-.29-2.09 1.28 1.28 0 01.65-.34zm141.8-19.78a1.5 1.5 0 01.79.1 2 2 0 011.31 1.75c-.06.65-.74.94-1.52.63a2 2 0 01-1.29-1.75.78.78 0 01.66-.73zm-136.6 24.1a1.89 1.89 0 011.49.42 1.5 1.5 0 01.45 2.11 1.66 1.66 0 01-2.25 0 1.52 1.52 0 01-.45-2.12 1.26 1.26 0 01.71-.41zm136-19.46a1.54 1.54 0 01.89.15 1.88 1.88 0 011.21 1.79c-.11.64-.83.88-1.6.54a1.93 1.93 0 01-1.21-1.81.82.82 0 01.65-.67zM378.4 453.9a1.92 1.92 0 011.39.35 1.58 1.58 0 01.61 2.12 1.6 1.6 0 01-2.22.14 1.57 1.57 0 01-.6-2.12 1.25 1.25 0 01.82-.49zm129.56-19a1.61 1.61 0 011 .19 1.83 1.83 0 011.1 1.84c-.16.63-.91.82-1.69.43a1.85 1.85 0 01-1.1-1.85.82.82 0 01.73-.59zm-123.89 22.79a1.86 1.86 0 011.3.29 1.64 1.64 0 01.76 2.11 1.52 1.52 0 01-2.16.28 1.64 1.64 0 01-.76-2.12 1.18 1.18 0 01.86-.56zm122.54-18.35a1.67 1.67 0 011.09.23 1.77 1.77 0 011 1.89c-.21.61-1 .76-1.77.32a1.77 1.77 0 01-1-1.9.82.82 0 01.68-.54zm-116.68 21.84a1.83 1.83 0 011.2.24 1.71 1.71 0 01.91 2.1 1.45 1.45 0 01-2.1.42 1.74 1.74 0 01-.9-2.11 1.2 1.2 0 01.89-.65zm115-17.57a1.73 1.73 0 011.19.29 1.71 1.71 0 01.88 1.92c-.27.59-1.09.68-1.84.2a1.72 1.72 0 01-.89-1.92.9.9 0 01.63-.49zM396 464.36a1.78 1.78 0 011.11.18 1.8 1.8 0 011.05 2.07 1.39 1.39 0 01-2 .56 1.77 1.77 0 01-1.16-2.07 1.17 1.17 0 011-.74zm106.87-16.64a1.75 1.75 0 011.28.34 1.63 1.63 0 01.76 1.95c-.32.57-1.17.61-1.91.08a1.64 1.64 0 01-.76-1.95.9.9 0 01.58-.42zM402.1 467.2a1.88 1.88 0 011 .13 1.86 1.86 0 011.19 2 1.34 1.34 0 01-1.94.71 1.85 1.85 0 01-1.19-2.05 1.14 1.14 0 01.94-.79zm98.26-15.57a1.79 1.79 0 011.38.42 1.58 1.58 0 01.64 2c-.37.53-1.25.52-2 0a1.58 1.58 0 01-.64-2 .92.92 0 01.62-.42zm-92 18.07a1.77 1.77 0 01.9.09 1.94 1.94 0 011.32 2 1.29 1.29 0 01-1.86.84 2 2 0 01-1.32-2 1.15 1.15 0 01.94-.93zm89.21-14.36a1.79 1.79 0 011.46.48 1.5 1.5 0 01.51 2c-.41.51-1.32.43-2-.17a1.49 1.49 0 01-.5-2 .9.9 0 01.51-.31zm-82.91 16.48a1.67 1.67 0 01.79.06 2 2 0 011.45 1.94 1.25 1.25 0 01-1.75 1 2 2 0 01-1.45-1.94 1.14 1.14 0 01.94-1.06zm79.73-13a1.89 1.89 0 011.55.56c.67.63.84 1.52.38 2a1.55 1.55 0 01-2.07-.3 1.45 1.45 0 01-.37-2 1 1 0 01.49-.27zM421 473.58a1.75 1.75 0 01.68 0 2 2 0 011.56 1.88 1.2 1.2 0 01-1.62 1.09 2 2 0 01-1.57-1.87 1.13 1.13 0 01.95-1.1zM490.84 462a1.93 1.93 0 011.65.64c.64.67.74 1.56.23 2a1.64 1.64 0 01-2.1-.42c-.64-.67-.75-1.57-.23-2a.9.9 0 01.45-.22zm-63.57 13a1.46 1.46 0 01.59 0 2.09 2.09 0 011.66 1.79A1.17 1.17 0 01428 478a2.05 2.05 0 01-1.67-1.79 1.11 1.11 0 01.94-1.21zM487 465a1.9 1.9 0 011.72.72c.62.7.66 1.58.09 2a1.7 1.7 0 01-2.12-.55c-.61-.7-.65-1.58-.08-2a.91.91 0 01.39-.17zm-53.43 10.94a1.82 1.82 0 01.47 0 2.11 2.11 0 011.77 1.71 1.16 1.16 0 01-1.41 1.35 2.13 2.13 0 01-1.78-1.72 1.13 1.13 0 01.92-1.36zm49.23-8.29a2 2 0 011.81.81c.57.73.54 1.6-.07 1.95a1.77 1.77 0 01-2.13-.69c-.59-.73-.54-1.6.06-1.94a.79.79 0 01.3-.15zm-43 8.88a1.06 1.06 0 01.36 0 2.12 2.12 0 011.85 1.61 1.14 1.14 0 01-1.24 1.44 2.13 2.13 0 01-1.86-1.62 1.12 1.12 0 01.82-1.45zm38.46-6.53a2 2 0 011.88.9c.53.75.43 1.61-.22 1.92a1.87 1.87 0 01-2.14-.82c-.53-.76-.43-1.61.22-1.92a1.12 1.12 0 01.26-.08zm-32.47 6.73a.84.84 0 01.28 0 2.12 2.12 0 011.92 1.51 1.13 1.13 0 01-1.11 1.53 2.13 2.13 0 01-1.88-1.57 1.13 1.13 0 01.79-1.5zm27.66-4.73a2 2 0 011.95 1c.49.78.33 1.62-.37 1.87a1.91 1.91 0 01-2.13-.93c-.49-.79-.32-1.62.37-1.88a.61.61 0 01.18-.06zm-21.72 4.52h.16a2.11 2.11 0 012 1.41 1.14 1.14 0 01-1 1.62 2.12 2.12 0 01-2-1.42 1.13 1.13 0 01.84-1.63zm16.64-2.85a2 2 0 012 1.09c.44.79.21 1.61-.52 1.82a2 2 0 01-2.11-1.07c-.44-.8-.21-1.61.52-1.82zm-10.89 2.27h.07a2.08 2.08 0 012.05 1.3 1.11 1.11 0 01-.82 1.68 2.07 2.07 0 01-2-1.29 1.13 1.13 0 01.7-1.71zM463 475a2.06 2.06 0 012.07 1.18 1.16 1.16 0 01-.66 1.77 2.1 2.1 0 01-2.1-1.19c-.39-.82-.09-1.61.68-1.76zM507.22 401.59a.78.78 0 00-.64.49 1.15 1.15 0 00.12.92 2.13 2.13 0 00.82.81c.7.4 1.49.28 1.69-.24a1.16 1.16 0 00-.13-.92 2.22 2.22 0 00-.82-.82 1.78 1.78 0 00-1.04-.24zM319.43 280.62a1.1 1.1 0 00-.81.35.74.74 0 00-.08.75 1.58 1.58 0 00.69.72 1.61 1.61 0 001.86-.08.74.74 0 00.08-.75 1.64 1.64 0 00-.69-.72 2.13 2.13 0 00-1.05-.27zM315.23 282.43a2.05 2.05 0 011.47.57c.51.52.46 1.15-.12 1.41a1.89 1.89 0 01-2-.47c-.51-.51-.46-1.15.11-1.41a1.4 1.4 0 01.54-.1zm-4.1 2a2 2 0 011.44.54c.53.51.51 1.15 0 1.44a1.89 1.89 0 01-2-.42c-.53-.5-.51-1.15.06-1.43a1.29 1.29 0 01.5-.16zm-4 2.12a2 2 0 011.41.51c.56.5.56 1.15 0 1.46a1.88 1.88 0 01-2-.36c-.55-.5-.56-1.16 0-1.46a1.31 1.31 0 01.59-.18zm-3.89 2.28a2.07 2.07 0 011.38.47c.57.5.61 1.16.07 1.49a1.82 1.82 0 01-2-.3c-.58-.5-.61-1.16-.08-1.49a1.26 1.26 0 01.63-.2zm-3.8 2.43a2.06 2.06 0 011.35.45c.61.48.67 1.16.16 1.51a1.83 1.83 0 01-2-.25c-.59-.48-.66-1.16-.13-1.51a1.25 1.25 0 01.62-.23zm-3.66 2.59a2.06 2.06 0 011.32.42c.61.47.71 1.16.21 1.53a1.78 1.78 0 01-2-.19c-.63-.48-.72-1.16-.22-1.53a1.28 1.28 0 01.69-.26zm-3.56 2.75a2 2 0 011.29.39c.64.46.77 1.16.29 1.55a1.79 1.79 0 01-2-.13c-.64-.46-.77-1.16-.28-1.55a1.26 1.26 0 01.7-.29zm-3.42 2.9a2.19 2.19 0 011.26.36c.66.46.82 1.16.36 1.58a1.78 1.78 0 01-2-.07c-.67-.46-.82-1.17-.36-1.58a1.48 1.48 0 01.74-.32zm-3.28 3.06a2.06 2.06 0 011.22.34c.68.44.86 1.14.42 1.58a1.72 1.72 0 01-2 0c-.69-.44-.88-1.16-.43-1.59a1.27 1.27 0 01.79-.36zm-3.14 3.22a2 2 0 011.18.3c.7.42.92 1.14.49 1.6a1.73 1.73 0 01-2 .06c-.7-.43-.92-1.15-.49-1.61a1.23 1.23 0 01.82-.38zm-3 3.36a2.08 2.08 0 011.14.28c.72.41 1 1.13.57 1.61a1.68 1.68 0 01-2 .12c-.73-.42-1-1.14-.57-1.62a1.27 1.27 0 01.86-.42zm-2.84 3.52a2.18 2.18 0 011.1.24c.73.41 1 1.13.65 1.63a1.66 1.66 0 01-2 .18c-.75-.39-1-1.12-.65-1.62a1.23 1.23 0 01.9-.46zm-2.67 3.66a2.12 2.12 0 011.05.22c.75.39 1.07 1.11.72 1.64a1.66 1.66 0 01-2 .25c-.75-.39-1.07-1.12-.72-1.64a1.3 1.3 0 01.95-.5zm-2.53 3.81a2.19 2.19 0 011 .2c.77.37 1.13 1.1.79 1.64a1.6 1.6 0 01-2 .32c-.77-.36-1.12-1.1-.78-1.64a1.2 1.2 0 01.99-.55zm-2.33 4a2.11 2.11 0 011 .18c.78.35 1.18 1.08.86 1.64a1.55 1.55 0 01-2 .38c-.79-.34-1.18-1.07-.87-1.64a1.25 1.25 0 011-.63zm-2.16 4.1a2 2 0 01.92.16c.81.32 1.23 1.05 1 1.64a1.55 1.55 0 01-2 .46c-.81-.33-1.23-1.07-.95-1.65a1.26 1.26 0 011.03-.68zm-2 4.24a2.11 2.11 0 01.87.14c.82.3 1.28 1 1 1.64a1.52 1.52 0 01-2 .52c-.82-.3-1.28-1-1-1.64a1.25 1.25 0 011.17-.73zm-1.78 4.39a2 2 0 01.82.1c.84.29 1.33 1 1.1 1.64a1.48 1.48 0 01-1.93.6c-.85-.29-1.33-1-1.09-1.64a1.21 1.21 0 011.14-.77zm-1.57 4.5a2.13 2.13 0 01.78.09c.85.27 1.37 1 1.16 1.64a1.47 1.47 0 01-1.91.67 1.45 1.45 0 01-1.17-1.64 1.26 1.26 0 011.18-.83zm-1.36 4.64a1.82 1.82 0 01.72.08 1.49 1.49 0 011.25 1.62 1.44 1.44 0 01-1.88.74c-.87-.24-1.43-1-1.25-1.62a1.23 1.23 0 011.2-.89zm-1.14 4.69a2.27 2.27 0 01.68.06 1.54 1.54 0 011.32 1.6 1.42 1.42 0 01-1.85.83 1.53 1.53 0 01-1.31-1.61 1.2 1.2 0 011.16-.88zm-.93 4.89a2 2 0 01.63 0 1.59 1.59 0 011.4 1.59 1.41 1.41 0 01-1.82.9 1.58 1.58 0 01-1.39-1.6 1.23 1.23 0 011.2-.89zm-.69 5a2.61 2.61 0 01.55 0 1.64 1.64 0 011.48 1.57c-.08.71-.87 1.14-1.77 1a1.63 1.63 0 01-1.47-1.58 1.24 1.24 0 011.23-1zm-.47 5.1a2 2 0 01.49 0 1.69 1.69 0 011.56 1.55c-.06.72-.82 1.18-1.73 1.05a1.69 1.69 0 01-1.55-1.56 1.25 1.25 0 011.25-1.05zm-.24 5.22a1.31 1.31 0 01.44 0 1.73 1.73 0 011.63 1.52c0 .73-.76 1.23-1.68 1.12a1.71 1.71 0 01-1.61-1.53 1.24 1.24 0 011.24-1.12zm0 5.31a2.54 2.54 0 01.39 0 1.76 1.76 0 011.69 1.5c0 .75-.7 1.29-1.62 1.2a1.74 1.74 0 01-1.69-1.5 1.23 1.23 0 011.25-1.21zm.25 5.4h.33a1.79 1.79 0 011.76 1.46c.06.76-.65 1.33-1.56 1.28a1.8 1.8 0 01-1.77-1.47 1.25 1.25 0 011.26-1.28zm.51 5.47h.26a1.84 1.84 0 011.83 1.43c.08.77-.59 1.37-1.52 1.34a1.81 1.81 0 01-1.82-1.43 1.26 1.26 0 011.27-1.35zm.74 5.55h.21a1.87 1.87 0 011.89 1.39 1.31 1.31 0 01-1.45 1.42A1.85 1.85 0 01257 394a1.26 1.26 0 011.19-1.38zm1 5.62h.14a1.88 1.88 0 012 1.35c.16.79-.46 1.45-1.39 1.49a1.92 1.92 0 01-2-1.35 1.28 1.28 0 011.27-1.5zm1.25 5.67h.1a1.93 1.93 0 012 1.29 1.3 1.3 0 01-1.32 1.56 1.93 1.93 0 01-2-1.31 1.29 1.29 0 011.24-1.55zm1.51 5.73a1.94 1.94 0 012.07 1.25 1.29 1.29 0 01-1.24 1.63 1.92 1.92 0 01-2.07-1.25 1.29 1.29 0 011.31-1.64zm1.78 5.75a2 2 0 012.09 1.2 1.3 1.3 0 01-1.17 1.7 2 2 0 01-2.13-1.2 1.31 1.31 0 011.17-1.7zm2 5.78a2 2 0 012.08 1.17 1.31 1.31 0 01-1.09 1.76 2 2 0 01-2.19-1.16 1.32 1.32 0 011.1-1.76zm2.29 5.8a2 2 0 012.09 1.11 1.33 1.33 0 01-1 1.83 2 2 0 01-2.24-1.08 1.33 1.33 0 011-1.84zm2.57 5.8a2 2 0 012.07 1.07 1.34 1.34 0 01-.94 1.89 2 2 0 01-2.28-1 1.32 1.32 0 01.93-1.89zm2.83 5.81a2.06 2.06 0 012.06 1 1.36 1.36 0 01-.84 2 2 2 0 01-2.33-1 1.33 1.33 0 01.84-2 1.19 1.19 0 01.33-.01zm3.1 5.79a2.07 2.07 0 012 1 1.38 1.38 0 01-.76 2 2 2 0 01-2.37-.9 1.36 1.36 0 01.75-2zm3.36 5.77a2 2 0 012 .91 1.38 1.38 0 01-.66 2.07 2 2 0 01-2.4-.82 1.38 1.38 0 01.66-2.06 1.4 1.4 0 01.46-.11zm3.62 5.71a2 2 0 012 .87 1.4 1.4 0 01-.55 2.12 2 2 0 01-2.45-.74 1.4 1.4 0 01.56-2.11 1.53 1.53 0 01.5-.15zm3.86 5.66a2 2 0 012 .81 1.43 1.43 0 01-.45 2.18 2 2 0 01-2.47-.66 1.43 1.43 0 01.46-2.17 1.82 1.82 0 01.52-.17zm4.12 5.59a2.08 2.08 0 011.93.77 1.46 1.46 0 01-.36 2.22 2 2 0 01-2.49-.57 1.46 1.46 0 01.36-2.22 2 2 0 01.62-.21zm4.35 5.51a2.06 2.06 0 011.9.73 1.48 1.48 0 01-.26 2.26 2 2 0 01-2.5-.5 1.5 1.5 0 01.25-2.26 2.06 2.06 0 01.67-.24zm4.6 5.43a2 2 0 011.86.67 1.52 1.52 0 01-.15 2.29 1.94 1.94 0 01-2.52-.4 1.53 1.53 0 01.15-2.3 1.79 1.79 0 01.72-.31zm4.82 5.31a2.1 2.1 0 011.82.62 1.57 1.57 0 01-.06 2.33 1.91 1.91 0 01-2.52-.31 1.56 1.56 0 01.05-2.33 1.73 1.73 0 01.77-.32zm5 5.21a2.07 2.07 0 011.78.57 1.6 1.6 0 01.05 2.36 1.89 1.89 0 01-2.53-.22 1.59 1.59 0 01-.05-2.36 1.62 1.62 0 01.85-.36zm5.25 5.07a2 2 0 011.73.53 1.66 1.66 0 01.17 2.39 1.87 1.87 0 01-2.53-.13 1.64 1.64 0 01-.17-2.39 1.69 1.69 0 01.9-.41zm5.45 4.93a2.07 2.07 0 011.68.49 1.66 1.66 0 01.26 2.4 1.82 1.82 0 01-2.51 0 1.67 1.67 0 01-.27-2.4 1.52 1.52 0 01.91-.5zm5.64 4.79a2 2 0 011.63.44 1.71 1.71 0 01.37 2.42 1.78 1.78 0 01-2.5.06 1.7 1.7 0 01-.37-2.42 1.54 1.54 0 01.97-.51zm5.81 4.63a2 2 0 011.58.4 1.75 1.75 0 01.48 2.43 1.77 1.77 0 01-2.49.16 1.74 1.74 0 01-.46-2.44 1.41 1.41 0 01.99-.54zm6 4.45a2 2 0 011.53.35 1.8 1.8 0 01.58 2.44 1.74 1.74 0 01-2.46.26 1.8 1.8 0 01-.57-2.44 1.42 1.42 0 011-.62zm6.15 4.27a2 2 0 011.47.32 1.85 1.85 0 01.68 2.44 1.72 1.72 0 01-2.43.35 1.85 1.85 0 01-.69-2.45 1.51 1.51 0 011.05-.67zm6.28 4.08a1.91 1.91 0 011.4.27 1.9 1.9 0 01.8 2.44 1.67 1.67 0 01-2.4.44 1.9 1.9 0 01-.8-2.44 1.48 1.48 0 011.08-.72zm6.4 3.88a1.92 1.92 0 011.36.24 1.93 1.93 0 01.88 2.43 1.63 1.63 0 01-2.36.53 1.94 1.94 0 01-.88-2.44 1.48 1.48 0 011.08-.77zm6.53 3.66a1.85 1.85 0 011.28.2 2 2 0 011 2.42 1.61 1.61 0 01-2.32.64 2 2 0 01-1-2.43 1.43 1.43 0 011.12-.84zm6.62 3.44a1.93 1.93 0 011.23.17 2 2 0 011.09 2.41 1.58 1.58 0 01-2.26.73 2 2 0 01-1.09-2.41 1.4 1.4 0 011.11-.91zm6.72 3.22a1.91 1.91 0 011.16.14 2.08 2.08 0 011.19 2.38 1.55 1.55 0 01-2.22.83 2.08 2.08 0 01-1.18-2.39 1.45 1.45 0 011.13-.95zm6.78 3a1.86 1.86 0 011.1.12 2.1 2.1 0 011.28 2.35 1.51 1.51 0 01-2.15.91 2.11 2.11 0 01-1.28-2.36 1.42 1.42 0 011.13-1.01zm6.86 2.75a1.78 1.78 0 011 .08 2.15 2.15 0 011.38 2.32 1.49 1.49 0 01-2.09 1 2.13 2.13 0 01-1.37-2.32 1.39 1.39 0 011.16-1.11zm6.88 2.49a1.74 1.74 0 01.95.06 2.15 2.15 0 011.45 2.28 1.45 1.45 0 01-2 1.1 2.15 2.15 0 01-1.45-2.28 1.39 1.39 0 011.13-1.19zm6.91 2.24a1.74 1.74 0 01.9 0 2.19 2.19 0 011.53 2.25 1.42 1.42 0 01-1.94 1.17 2.18 2.18 0 01-1.54-2.23 1.38 1.38 0 011.13-1.22zm6.93 2a1.63 1.63 0 01.82 0 2.26 2.26 0 011.62 2.21 1.43 1.43 0 01-1.88 1.27 2.23 2.23 0 01-1.61-2.2 1.37 1.37 0 011.13-1.32zm6.92 1.73a1.62 1.62 0 01.76 0 2.25 2.25 0 011.69 2.15 1.39 1.39 0 01-1.79 1.35 2.24 2.24 0 01-1.69-2.15 1.35 1.35 0 011.11-1.39zm6.91 1.45a1.46 1.46 0 01.69 0 2.24 2.24 0 011.76 2.09 1.37 1.37 0 01-1.7 1.43 2.26 2.26 0 01-1.76-2.1 1.35 1.35 0 011.09-1.46zM432.42 551.84a1.3 1.3 0 00-.9.79 1.81 1.81 0 00.05 1.35 2.36 2.36 0 001 1.12 1.51 1.51 0 002.22-.56 1.77 1.77 0 00-.06-1.35 2.3 2.3 0 00-1-1.12 1.74 1.74 0 00-1.31-.23z" transform="translate(0 -173.4)"/><path class="cls-15" d="M437.52 552.46c-1.12-2.69-4-4.38-6.41-3.78s-3.51 3.29-2.4 6 4 4.45 6.46 3.82 3.48-3.33 2.35-6.04z" transform="translate(0 -173.4)"/><path class="cls-21" d="M441.93 381.67l1.57-4.11-3.79-2.23M432.15 370.87l-3.79-2.23-1.65 4.07M424.26 378.75l-1.65 4.08 3.78 2.24M434.21 389.7l3.79 2.24 1.57-4.11"/><path class="cls-15" d="M507.94 262.61a6.87 6.87 0 00-5.41-3c-1.92.06-2.62 1.49-1.55 3.2a6.86 6.86 0 005.44 3c1.93-.04 2.58-1.49 1.52-3.2z" transform="translate(0 -173.4)"/><path class="cls-22" d="M504.25 94.06l4.87 2.68 3.55-7.68-4.88-2.68M504.78 84.72l-4.88-2.68-3.74 7.57 4.88 2.68"/><path class="cls-15" d="M160.49 240.84c-.51-2-3.35-3.66-6.35-3.63s-5.08 1.71-4.59 3.76 3.36 3.7 6.4 3.66 5.05-1.75 4.54-3.79z" transform="translate(0 -173.4)"/><path class="cls-22" d="M163.66 70.94l4.25-3.59-4.84-2.76M157.75 61.55l-4.84-2.76-4.32 3.5M146.28 64.16l-4.33 3.5 4.83 2.77M152.37 73.63l4.83 2.77 4.26-3.6"/><path class="cls-15" d="M325.2 188.42c1-1.11.12-2.93-2-4.07s-4.66-1.18-5.69-.08-.16 2.93 2 4.08 4.67 1.18 5.69.07z" transform="translate(0 -173.4)"/><path class="cls-22" d="M324.91 17.82l5.57.05-4.77-9.63-5.56-.08M317.81 8.12l-5.57-.09 4.65 9.72 5.57.05"/><path class="cls-15" d="M391.38 119.01l.67 3.05 4.66-1.41 5.56 2.65-.71-3.03-5.53-2.64-4.65 1.38zM390.19 113.61l.66 3 4.64-1.36 5.52 2.63-.7-3-5.5-2.62-4.62 1.35zM389.02 108.28l.65 2.97 4.61-1.34 5.48 2.62-.69-2.96-5.45-2.6-4.6 1.31zM387.86 103.03l.65 2.92 4.58-1.3 5.44 2.6-.67-2.92-5.43-2.58-4.57 1.28zM168.42 233.22l-6.44.76 5.8 6.45-2.83 7.6 6.52-.82 2.76-7.56-5.81-6.43zM179.85 231.89l-6.36.74 5.81 6.4-2.7 7.54 6.42-.81 2.64-7.5-5.81-6.37zM191.1 230.57l-6.26.73 5.81 6.35-2.57 7.47 6.33-.8 2.51-7.43-5.82-6.32zM202.2 229.27l-6.17.72 5.81 6.3-2.45 7.4 6.24-.78 2.38-7.37-5.81-6.27zM561.04 310.68l-3.83-2.53 1.49 4.42-3.64 1.06 3.86 2.55 3.64-1.06-1.52-4.44zM567.94 315.23l-3.85-2.54 1.53 4.45-3.63 1.07 3.88 2.57 3.62-1.08-1.55-4.47zM680.85 275.62l1.63 4.09 4.26-1.82 6.44 3.64-1.68-4.08-6.41-3.62-4.24 1.79zM677.96 268.39l1.6 4.02 4.24-1.76 6.38 3.59-1.65-4.01-6.35-3.58-4.22 1.74zM675.11 261.27l1.58 3.96 4.22-1.71 6.33 3.56-1.62-3.95-6.3-3.54-4.21 1.68zM672.31 254.27l1.56 3.9 4.2-1.67 6.27 3.53-1.59-3.88-6.25-3.51-4.19 1.63zM431.36 41.78l3.21.91-2.28-3.42 1.98-2.18-3.17-.91-2 2.18 2.26 3.42zM425.6 40.13l3.22.92-2.26-3.42 2.01-2.17-3.19-.92-2.03 2.18 2.25 3.41zM419.82 38.49l3.23.92-2.24-3.42 2.05-2.17-3.21-.92-2.06 2.17 2.23 3.42zM414.02 36.83l3.24.93-2.22-3.42 2.08-2.17-3.22-.92-2.09 2.16 2.21 3.42zM636.02 204.81l2.73-.37-3.43-2.11.2-2.59-2.72.36-.22 2.6 3.44 2.11zM631.09 205.49l2.76-.38-3.45-2.12.23-2.6-2.75.36-.24 2.61 3.45 2.13zM626.13 206.17l2.77-.38-3.45-2.13.25-2.62-2.77.37-.27 2.62 3.47 2.14z"/><path fill="#ff9e17" d="M441.09 540.26l5.75.85-3.97-5.84 3.65-4.65-5.7-.86-3.69 4.65 3.96 5.85z"/><path class="cls-24" d="M430.73 538.73l5.79.86-3.95-5.86 3.73-4.65-5.74-.87-3.76 4.66 3.93 5.86zM420.31 537.18l5.83.87-3.93-5.87 3.8-4.66-5.77-.87-3.84 4.66 3.91 5.87z"/><path class="cls-15" d="M170.63 114.85l-5.36-2.25 1.6 4.27-5.61 1.28 5.41 2.27 5.58-1.29-1.62-4.28zM180.23 118.89l-5.36-2.25 1.64 4.28-5.56 1.3 5.4 2.26 5.53-1.3-1.65-4.29zM189.81 122.91l-5.35-2.24 1.68 4.29-5.51 1.32 5.4 2.26 5.47-1.32-1.69-4.31zM297.93 130.06l.09-.01.17-.01h.09l2.87 7.55-.35.02-2.87-7.55zM315.3 129.08l.18-.01.08-.01 2.98 7.46-.35.02-2.98-7.46h.09zM332.18 128.13l.17-.01.09-.01 3.07 7.36-.34.02-3.07-7.36h.08zM348.67 127.2l.17-.01h.08l3.16 7.26-.33.02-3.16-7.27h.08zM364.78 126.29l.16-.01h.08l3.25 7.17-.32.02-3.25-7.17.08-.01zM380.52 125.4l.16-.01h.08l3.34 7.09-.33.02-3.33-7.09.08-.01zM395.91 124.54l.16-.01.07-.01 3.42 7-.32.02-3.41-7h.08zM301.92 133.6l-1.41-3.69.18-.01 1.41 3.69-.18.01zM304.41 133.45l-1.41-3.68.17-.01 1.42 3.68-.18.01zM306.9 133.3l-1.42-3.67.17-.01 1.42 3.67-.17.01zM309.38 133.16l-1.44-3.67.18-.01 1.43 3.67-.17.01zM311.85 133.01l-1.44-3.66.17-.01 1.44 3.66-.17.01zM314.31 132.87l-1.45-3.65.17-.01 1.45 3.65-.17.01zM319.2 132.58l-1.46-3.64.17-.01 1.46 3.64-.17.01zM321.63 132.43l-1.46-3.62.17-.02 1.47 3.63-.18.01zM324.06 132.29l-1.47-3.62.17-.01 1.47 3.62-.17.01zM326.48 132.15l-1.48-3.62.17-.01 1.48 3.62-.17.01zM328.89 132.01l-1.49-3.61.17-.01 1.49 3.61-.17.01zM331.29 131.87l-1.49-3.61.16-.01 1.5 3.6-.17.02zM336.07 131.58l-1.51-3.59.17-.01 1.51 3.59-.17.01zM338.45 131.44l-1.52-3.58.17-.01 1.52 3.58-.17.01zM340.82 131.3l-1.52-3.57.16-.01 1.53 3.57-.17.01zM343.18 131.16l-1.53-3.57.17-.01 1.53 3.57-.17.01zM345.53 131.03l-1.53-3.57.17-.01 1.53 3.57-.17.01zM347.88 130.89l-1.54-3.56.16-.01 1.54 3.56-.16.01zM352.55 130.61l-1.55-3.54.16-.01 1.55 3.54-.16.01zM354.87 130.47l-1.56-3.53.17-.01 1.55 3.54h-.16zM357.19 130.34l-1.57-3.53.16-.01 1.57 3.53-.16.01zM359.49 130.2l-1.57-3.52.16-.01 1.57 3.52-.16.01zM361.79 130.07l-1.58-3.52.17-.01 1.57 3.52-.16.01zM364.08 129.93l-1.58-3.51.16-.01 1.59 3.51-.17.01zM368.64 129.66l-1.59-3.5.16-.01 1.6 3.5-.17.01zM370.92 129.53l-1.61-3.5h.17l1.59 3.49-.15.01zM373.18 129.4l-1.61-3.49.16-.01 1.61 3.49-.16.01zM375.43 129.26l-1.61-3.48.16-.01 1.61 3.48-.16.01zM377.68 129.13l-1.62-3.47.16-.01 1.62 3.47-.16.01zM379.92 129l-1.62-3.47.15-.01 1.63 3.47-.16.01zM384.38 128.74l-1.64-3.46.16-.01 1.63 3.46-.15.01zM386.6 128.6l-1.65-3.45.16-.01 1.64 3.46h-.15zM388.81 128.47l-1.65-3.44.16-.01 1.64 3.45h-.15zM391.01 128.34l-1.65-3.43.15-.01 1.66 3.44h-.16zM393.21 128.22l-1.66-3.44.15-.01 1.66 3.44-.15.01zM395.4 128.09l-1.67-3.43.16-.01 1.66 3.43-.15.01zM207.55 223.55l-.22.03-.44.05-.22.02-2.94-11.44.87-.09 2.95 11.43zM163.1 228.6l-.46.06-.23.02-2.52-11.82.92-.1 2.53 11.82-.24.02zM116.27 233.93l-.49.05-.25.03-2.04-12.23.98-.1 2.05 12.22-.25.03zM66.59 239.57l-.52.06-.26.03-1.5-12.66 1.03-.11 1.51 12.65-.26.03zM13.79 245.57l-.55.07-.28.03-.89-13.14 1.1-.11.9 13.12-.28.03zM199.74 218.61l1.42 5.67-.44.05-1.42-5.67.44-.05zM193.55 219.29l1.39 5.7-.44.05-1.39-5.7.44-.05zM187.31 219.98l1.37 5.72-.45.05-1.36-5.72.44-.05zM181.03 220.67l1.33 5.75-.45.05-1.33-5.75.45-.05zM174.69 221.36l1.31 5.78-.46.05-1.3-5.78.45-.05zM168.3 222.07l1.28 5.8-.46.05-1.28-5.8.46-.05zM155.37 223.49l1.21 5.86-.47.05-1.21-5.86.47-.05zM148.82 224.21l1.18 5.88-.47.06-1.18-5.89.47-.05zM142.22 224.93l1.15 5.92-.48.05-1.14-5.92.47-.05zM135.56 225.66l1.12 5.95-.48.05-1.11-5.94.47-.06zM128.85 226.4l1.08 5.98-.48.05-1.08-5.98.48-.05zM122.08 227.14l1.05 6.01-.48.05-1.05-6 .48-.06zM108.38 228.65l.97 6.06-.49.06-.97-6.07.49-.05zM101.44 229.41l.94 6.1-.5.05-.94-6.09.5-.06zM94.44 230.18l.9 6.13-.5.05-.9-6.12.5-.06zM87.38 230.96l.87 6.15-.51.06-.86-6.16.5-.05zM80.27 231.74l.82 6.19-.51.06-.82-6.19.51-.06zM73.09 232.53l.78 6.22-.51.06-.78-6.22.51-.06zM58.54 234.13l.7 6.28-.52.06-.7-6.28.52-.06zM51.17 234.94l.66 6.31-.52.06-.66-6.31.52-.06zM43.74 235.75l.62 6.35-.53.06-.62-6.35.53-.06zM36.24 236.58l.58 6.38-.54.06-.57-6.38.53-.06zM28.68 237.41l.53 6.41-.54.06-.53-6.41.54-.06zM21.05 238.25l.49 6.44-.55.07-.49-6.45.55-.06zM335.35 246.65l-.18-.5 13.68-2.11.19.49-13.69 2.12zM326.5 222.51l13.48-1.84.17.47-13.47 1.85-.18-.48zM318.22 199.89l13.26-1.59.17.45-13.27 1.59-.16-.45zM310.28 178.22l13.05-1.36.17.43-13.06 1.37-.16-.44zM302.67 157.45l12.85-1.14.16.41-12.86 1.15-.15-.42z"/><path class="cls-15" d="M295.36 137.52l12.66-.95.15.4-12.66.95-.15-.4zM288.35 118.38l12.47-.77.15.38-12.48.78-.14-.39zM343.73 240.17l-6.69 1.01-.09-.24 6.69-1.01.09.24zM335.19 236.18l6.67-.98.09.24-6.67.98-.09-.24zM333.45 231.46l6.65-.95.09.24-6.66.95-.08-.24zM331.72 226.79l6.63-.93.09.24-6.63.93-.09-.24zM334.98 216.92l-6.59.88-.08-.23 6.58-.88.09.23zM326.62 213.02l6.57-.86.09.23-6.57.86-.09-.23zM324.95 208.5l6.55-.82.09.22-6.55.83-.09-.23zM323.3 204.03l6.52-.8.09.22-6.53.81-.08-.23zM326.6 194.66l-6.48.76-.09-.22 6.49-.76.08.22zM318.42 190.84l6.47-.73.08.22-6.47.73-.08-.22zM316.82 186.52l6.45-.71.08.22-6.45.71-.08-.22zM315.24 182.23l6.42-.69.08.22-6.42.69-.08-.22zM318.57 173.34l-6.38.64-.08-.21 6.38-.64.08.21zM310.56 169.59l6.37-.62.07.21-6.36.62-.08-.21zM309.03 165.45l6.34-.61.08.21-6.34.61-.08-.21zM307.51 161.34l6.32-.59.08.21-6.33.59-.07-.21zM310.87 152.88l-6.29.54-.07-.2 6.28-.54.08.2zM303.02 149.21l6.27-.52.08.2-6.27.52-.08-.2zM301.55 145.24l6.25-.51.08.2-6.25.51-.08-.2zM300.09 141.29l6.23-.48.08.19-6.23.49-.08-.2zM303.48 133.24l-6.2.45-.07-.19 6.19-.45.08.19zM295.79 129.65l6.17-.43.07.19-6.17.43-.07-.19zM294.37 125.83l6.16-.41.07.19-6.16.41-.07-.19zM292.97 122.04l6.14-.4.07.19-6.14.4-.07-.19zM732.32 482.74l-.48.2-11.76-19.22.47-.19 11.77 19.21zM708.1 493.08l-11.68-19.82.49-.2 11.68 19.81-.49.21zM683.21 503.7l-11.56-20.45.52-.2 11.56 20.43-.52.22zM657.11 514.84l-11.42-21.11.54-.22 11.43 21.1-.55.23zM629.7 526.54l-11.25-21.83.57-.23 11.26 21.82-.58.24zM600.89 538.85l-11.06-22.59.6-.25 11.06 22.58-.6.26zM570.55 551.8l-10.83-23.4.63-.26 10.83 23.39-.63.27zM718.75 470.32l5.76 9.48-.24.1-5.76-9.48.24-.1zM719.57 481.88l-5.75-9.54.24-.1 5.75 9.54-.24.1zM714.83 483.88l-5.75-9.61.24-.09 5.75 9.59-.24.11zM710.04 485.89l-5.74-9.66.25-.1 5.74 9.66-.25.1zM694.86 480.09l5.72 9.78-.24.11-5.72-9.79.24-.1zM695.41 492.05l-5.7-9.85.25-.1 5.7 9.84-.25.11zM690.44 494.14l-5.69-9.91.25-.1 5.7 9.9-.26.11zM685.43 496.25l-5.69-9.97.26-.1 5.68 9.96-.25.11zM669.85 490.33l5.66 10.09-.26.11-5.66-10.09.26-.11zM670.09 502.7l-5.65-10.16.27-.1 5.64 10.15-.26.11zM664.88 504.89l-5.63-10.22.26-.11 5.63 10.22-.26.11zM659.62 507.11L654 496.82l.27-.11 5.62 10.28-.27.12zM643.62 501.06l5.59 10.43-.27.11-5.59-10.43.27-.11zM643.52 513.88l-5.57-10.5.27-.11 5.58 10.49-.28.12zM638.05 516.18l-5.55-10.56.27-.12 5.56 10.56-.28.12zM632.53 518.51l-5.54-10.64.28-.11 5.54 10.63-.28.12zM616.09 512.33l5.51 10.78-.29.12-5.51-10.78.29-.12zM615.62 525.62l-5.49-10.85.29-.12 5.48 10.85-.28.12zM609.86 528.04l-5.46-10.93.29-.11 5.47 10.92-.3.12zM604.05 530.49l-5.44-11.01.29-.12 5.45 11-.3.13zM587.15 524.17l5.41 11.15-.3.13-5.41-11.16.3-.12zM586.26 537.97l-5.38-11.23.31-.13 5.38 11.23-.31.13zM580.21 540.52l-5.36-11.31.31-.13 5.36 11.31-.31.13zM574.1 543.09l-5.34-11.39.31-.13 5.34 11.39-.31.13z"/></g></g></svg>