<svg xmlns="http://www.w3.org/2000/svg" viewBox="0 0 25.51 28.04"><g data-name="图层 2"><path d="M25 23.9c-.49-1.79-3.08-.58-3.88-4.28s-2.9-4.51-2.9-4.51-.52-.35.17-1.28 1.62-2.59 1.45-3.35-.36-1.29 1-2.85 1-2.85.84-4.85-1.14-1.35-2.05.16a6.06 6.06 0 01-2.5 2.2l.79-1.52h-.46l.13-1.07-1.59.86A7 7 0 0016.6 0c0 .9-2.07 2-3.18 2.63.32-.32-.89-2.23-.89-2.23a4.65 4.65 0 01-.45 1.71c-.45 1-2 2.62-2.91 2.62S5.52 1.09 5.52 1.09 4.32.92 4.32 4.3A4.36 4.36 0 007 8.58s-.87.5-1.77 1c.4 1.21 2.32 4.78 2.32 4.78-.27 2.23-1.51 2.45-2.14 4.32a9.75 9.75 0 01-3 4.19C1.05 24.32 0 28 0 28h25.51a18.7 18.7 0 00-.51-4.1zM8.67 9s1.68 1.65 3.15 1.65H8.17zm3.2 3.88a.4.4 0 11.35-.4.38.38 0 01-.35.4zm1.15 0a.4.4 0 010-.8.4.4 0 010 .8zm.27-2.23c1.47 0 3.14-1.65 3.14-1.65l.51 1.65z" fill="#375d81" data-name="Layer 1"/></g></svg>