<svg xmlns="http://www.w3.org/2000/svg" viewBox="0 0 916.42 570.93"><defs><style>.cls-1{fill:#fff}.cls-2{fill:#0ff}.cls-3{fill:#29abe2}</style></defs><g id="图层_2" data-name="图层 2"><g id="Layer_1" data-name="Layer 1"><circle class="cls-1" cx="170.5" cy="284" r="7.5"/><circle class="cls-1" cx="742.5" cy="284" r="7.5"/><circle class="cls-1" cx="778.5" cy="100" r="4.5"/><path class="cls-2" d="M798.22 264s-18-17.72-18.4-21a323.94 323.94 0 00-9.76-47.51c-1.13-4.27-2.56-8.45-3.84-12.6-.63-2.08-1.42-4.09-2.1-6.11s-1.39-4-2.12-5.93-1.49-3.82-2.22-5.68-1.41-3.68-2.18-5.41l-2.18-5.08c-.7-1.64-1.37-3.23-2.1-4.72l-3.85-8.17c-1.22-2.39-.4-14.61-.4-14.61l-3.92-7.08 12.64-7.28 4.1 7.41.91 1.64s.29.5.78 1.45l2.12 4.15c.9 1.79 2 3.94 3.26 6.46l4 8.5c1.41 3.13 2.84 6.57 4.41 10.19s3 7.53 4.54 11.53c.71 2 1.44 4.09 2.18 6.17s1.52 4.18 2.17 6.35c1.34 4.3 2.81 8.65 4 13.08a345.34 345.34 0 0110.22 49.33c.82 6.82 1.48 12.51 1.74 16.51s.49 6.29.49 6.29 0 .47.06.94v.93s.07 1.3.16 3.23.23 4.52.31 7.1c.07 5.17.15 10.34.15 10.34h-4.56s-.08-5.1-.15-10.21c-.07-2.55-.23-5.09-.31-7zM797.59 92.45l-1.31-2.36 3.46-2 1.33 2.39-3.48 1.97zM799.87 96.59l-1.3-2.36 3.49-1.96 1.32 2.39-3.51 1.93zM802.16 100.73l-1.3-2.37 3.51-1.91 1.32 2.39-3.53 1.89zM804.64 105.53l-1.22-2.41 3.54-1.86 1.24 2.44-3.56 1.83zM806.79 109.74l-1.22-2.4 3.56-1.82 1.24 2.43-3.58 1.79zM808.91 114l-.58-1.22-.61-1.2 3.58-1.77.62 1.21c.29.62.59 1.24.59 1.24zM810.92 118.26l-1.15-2.45 3.61-1.73 1.16 2.47-3.62 1.71zM813.21 123.15l-1.14-2.45 3.63-1.68 1.16 2.48-3.65 1.65zM815.12 127.47l-1.06-2.48 3.65-1.63 1.08 2.51-3.67 1.6zM816.99 131.82l-1.07-2.48 3.67-1.59 1.08 2.51-3.68 1.56zM818.85 136.17l-1.06-2.49 3.69-1.54 1.07 2.51-3.7 1.52zM820.82 141.2l-.98-2.52 3.71-1.49 1 2.55-3.73 1.46zM822.54 145.61l-.98-2.52 3.73-1.45.99 2.55-3.74 1.42zM824.2 150l-.45-1.27c-.21-.64-.47-1.27-.47-1.27l3.75-1.4s.26.64.48 1.28l.45 1.29zM825.78 154.49l-.9-2.54 3.76-1.36.91 2.58-3.77 1.32zM827.58 159.59l-.9-2.55 3.78-1.3.91 2.58-3.79 1.27zM829.02 164.09l-.81-2.57 3.8-1.26.82 2.61-3.81 1.22zM830.45 168.6l-.81-2.57 3.81-1.21.82 2.6-3.82 1.18zM831.85 173.12s-.17-.65-.38-1.3-.41-1.28-.41-1.28l3.83-1.17s.21.65.41 1.3.39 1.31.39 1.31zM833.31 178.32l-.73-2.6 3.85-1.11.73 2.63-3.85 1.08zM834.59 182.88l-.73-2.6 3.86-1.07.74 2.63-3.87 1.04zM835.78 187.46l-.65-2.63 3.87-1.01.65 2.65-3.87.99zM836.9 192.05l-.64-2.62 3.88-.97.65 2.65-3.89.94zM838.18 197.3s-.14-.66-.31-1.31l-.32-1.32 3.89-.91s.17.66.33 1.33.31 1.32.31 1.32zM839.16 201.93l-.56-2.65 3.9-.86.57 2.67-3.91.84zM840.14 206.56l-.56-2.65 3.92-.82.56 2.67-3.92.8zM841.05 211.2l-.23-1.33c-.11-.67-.26-1.33-.26-1.33l3.92-.77s.16.66.27 1.34l.24 1.34zM842 216.52l-.47-2.66 3.93-.72.48 2.69-3.94.69zM842.83 221.17l-.47-2.66 3.94-.67.48 2.69-3.95.64zM843.52 225.85l-.38-2.67 3.95-.62.39 2.7-3.96.59zM844.2 230.53l-.38-2.67 3.95-.58.39 2.71-3.96.54zM844.92 235.89s-.07-.67-.15-1.34-.18-1.34-.18-1.34l4-.52s.11.67.18 1.35.15 1.36.15 1.36zM845.45 240.59l-.3-2.68 3.97-.47.3 2.71-3.97.44zM845.97 245.29l-.3-2.68 3.98-.43.3 2.72-3.98.39zM846.39 250l-.21-2.69 3.98-.38.22 2.73-3.99.34zM846.82 255.39l-.21-2.69 3.98-.32.22 2.72-3.99.29zM847.17 260.11s0-.68-.08-1.35l-.11-1.35 4-.27s.06.68.11 1.36.08 1.36.08 1.36zM847.39 264.83l-.13-2.7 3.99-.22.13 2.73-3.99.19zM847.61 269.56l-.13-2.7 4-.18.13 2.73-4 .15zM847.76 274.96l-.03-2.7 3.99-.12.04 2.73-4 .09zM847.84 279.69l-.05-2.7 4-.07.04 2.73-3.99.04zM847.9 284.42l-.03-2.7 4-.03.03 2.73h-4zM831.81 79.75l-4.39-7.92 5.21-3 4.44 8.04-5.26 2.88zM838.43 92.34l-4.12-8.06 5.3-2.82 4.17 8.18-5.35 2.7zM844.62 105.15l-3.3-7.03 5.4-2.62 3.34 7.13-5.44 2.52zM851.9 121.72l-3.56-8.32 5.49-2.4 3.62 8.44-5.55 2.28zM857.1 134.97l-3.29-8.43 5.57-2.22 3.34 8.55-5.62 2.1zM862.25 149.61s-.18-.53-.44-1.34-.66-1.87-1-2.94c-.76-2.13-1.51-4.27-1.51-4.27l5.65-2 1.53 4.33c.38 1.09.76 2.17 1 3s.44 1.37.44 1.37zM866.49 163.19l-.38-1.36c-.25-.81-.6-1.89-.94-3l-1.36-4.31 5.72-1.82 1.38 4.38c.35 1.09.69 2.18 1 3l.39 1.38zM870.9 179.42s-.46-1.88-.93-3.77-1-3.74-1-3.74l5.79-1.57s.55 1.89 1 3.79l.94 3.82zM874.41 194.54s-.46-2.22-.93-4.43c-.22-1.11-.49-2.21-.7-3s-.34-1.37-.34-1.37l5.84-1.38.35 1.39c.21.84.48 2 .7 3.08.48 2.25.95 4.49.95 4.49zM877.16 208.5l-.8-4.46c-.19-1.11-.39-2.23-.58-3.06s-.29-1.38-.29-1.38l5.88-1.18.3 1.4c.19.84.39 2 .59 3.1l.8 4.52zM879.43 222.54l-.56-3.84c-.13-1-.27-1.92-.38-2.64s-.2-1.19-.2-1.19l5.92-1s.1.48.21 1.21.24 1.7.38 2.68l.57 3.89zM881.67 240.51l-1.01-9 5.96-.73 1.02 9.12-5.97.61zM882.88 254.69l-.72-9.03 5.98-.53.73 9.15-5.99.41zM883.68 270.19l-.43-9.05 6-.31.43 9.17-6 .19zM883.9 284.42l-.13-9.06 6-.12.13 9.19-6-.01z"/><path class="cls-3" d="M789.14 105.91l1.57-.75a4 4 0 001.68-5.36l-5.26-11.12a3.7 3.7 0 00-5.07-1.81l-1.58.74z"/><path class="cls-2" d="M906.56 189.85s5.34-3.78 4.56-7.59-2.16-8.82-3.4-13.86c-.31-1.26-.6-2.53-.94-3.76s-.69-2.44-1-3.61c-.67-2.33-1.29-4.52-1.83-6.39-1.07-3.74-12.3-3-12.3-3s2.1 7.35 4.21 14.71c.56 1.83.95 3.7 1.4 5.44l1.17 4.76c.68 2.79 1.14 4.64 1.14 4.64l.37 1.51c.23.9.52 2.11.75 3.33l1 4.86s.3 1.44.82 4 1.32 6.12 2 10.49c.37 2.18.77 4.54 1.18 7s.91 5.12 1.22 7.87.72 5.57 1.09 8.45.79 5.79 1 8.73.54 5.87.81 8.76c.13 1.44.26 2.88.39 4.29s.16 2.82.25 4.2c.15 2.76.29 5.43.43 8s.32 4.91.31 7.12c.16 8.84.26 14.74.26 14.74h5s-.1-6-.26-14.89c0-2.24-.19-4.65-.32-7.21s-.28-5.25-.43-8c-.09-1.4-.14-2.82-.25-4.25s-.27-2.88-.4-4.34c-.27-2.92-.54-5.89-.81-8.85s-.65-5.93-1-8.83-.75-5.78-1.11-8.55-.81-5.43-1.23-7.95-.82-4.92-1.19-7.12c-.68-4.42-1.5-8.05-2-10.61z"/><circle class="cls-1" cx="778.5" cy="468" r="4.5"/><path class="cls-2" d="M798.22 304s-18 17.72-18.4 21a324.05 324.05 0 01-9.76 47.52c-1.13 4.27-2.56 8.45-3.84 12.6-.63 2.08-1.42 4.09-2.1 6.11s-1.39 4-2.12 5.93-1.49 3.82-2.22 5.68-1.41 3.68-2.18 5.41l-2.18 5.08c-.7 1.64-1.37 3.22-2.1 4.71l-3.85 8.18c-1.22 2.39-.4 14.6-.4 14.6l-3.92 7.09 12.64 7.28 4.1-7.41.91-1.64s.29-.5.78-1.45l2.12-4.15c.9-1.8 2-3.94 3.26-6.46l4-8.5c1.41-3.13 2.84-6.57 4.41-10.19s3-7.53 4.54-11.53q1.07-3 2.18-6.17c.72-2.09 1.52-4.19 2.17-6.35 1.34-4.31 2.81-8.65 4-13.08a345.34 345.34 0 0010.22-49.33c.82-6.82 1.48-12.51 1.74-16.52s.49-6.28.49-6.28 0-.47.06-.94v-.94s.07-1.29.16-3.22.23-4.52.31-7.11c.07-5.17.15-10.34.15-10.34h-4.56s-.08 5.1-.15 10.2c-.07 2.55-.23 5.1-.31 7zM801.07 477.52l-1.33 2.39-3.46-2 1.31-2.36 3.48 1.97zM803.38 473.34l-1.32 2.39-3.49-1.96 1.3-2.36 3.51 1.93zM805.69 469.15l-1.32 2.39-3.51-1.91 1.3-2.36 3.53 1.88zM808.2 464.3l-1.24 2.43-3.54-1.86 1.22-2.4 3.56 1.83zM810.37 460.05l-1.24 2.43-3.56-1.82 1.22-2.41 3.58 1.8zM812.51 455.77l-.59 1.24-.62 1.21-3.58-1.77.61-1.2.58-1.23zM814.54 451.45l-1.16 2.47-3.61-1.73 1.15-2.45 3.62 1.71zM816.86 446.5l-1.16 2.47-3.63-1.67 1.14-2.45 3.65 1.65zM818.79 442.13l-1.08 2.51-3.65-1.63 1.06-2.49 3.67 1.61zM820.67 437.74l-1.08 2.51-3.67-1.59 1.07-2.48 3.68 1.56zM822.55 433.35l-1.07 2.51-3.69-1.55 1.06-2.48 3.7 1.52zM824.55 428.26l-1 2.55-3.71-1.5.98-2.51 3.73 1.46zM826.28 423.81l-.99 2.55-3.73-1.45.98-2.52 3.74 1.42zM828 419.34l-.45 1.29c-.22.64-.48 1.27-.48 1.27l-3.75-1.4s.26-.62.47-1.26.45-1.28.45-1.28zM829.55 414.83l-.91 2.58-3.76-1.36.9-2.55 3.77 1.33zM831.37 409.68l-.91 2.58-3.78-1.31.9-2.54 3.79 1.27zM832.83 405.13l-.82 2.61-3.8-1.26.81-2.58 3.81 1.23zM834.27 400.58l-.82 2.6-3.81-1.21.81-2.58 3.82 1.19zM835.69 396s-.17.67-.39 1.31-.41 1.31-.41 1.31l-3.83-1.17s.21-.64.41-1.29.38-1.29.38-1.29zM837.16 390.76l-.73 2.62-3.85-1.1.73-2.61 3.85 1.09zM838.46 386.16l-.74 2.63-3.86-1.07.73-2.6 3.87 1.04zM839.65 381.53l-.65 2.65-3.87-1.01.65-2.63 3.87.99zM840.79 376.89l-.65 2.65-3.88-.97.64-2.62 3.89.94zM842.08 371.58s-.14.67-.31 1.33-.33 1.33-.33 1.33l-3.89-.92.32-1.31c.17-.65.31-1.31.31-1.31zM843.07 366.91l-.57 2.67-3.9-.87.56-2.64 3.91.84zM844.06 362.23l-.56 2.67-3.92-.81.56-2.65 3.92.79zM845 357.55l-.24 1.34c-.11.67-.27 1.34-.27 1.34l-3.92-.77s.15-.66.26-1.33l.23-1.33zM845.94 352.17l-.48 2.69-3.93-.72.47-2.66 3.94.69zM846.78 347.47l-.48 2.68-3.94-.66.47-2.67 3.95.65zM847.48 342.74l-.39 2.7-3.95-.62.38-2.68 3.96.6zM848.16 338.01l-.39 2.7-3.95-.57.38-2.68 3.96.55zM848.89 332.6s-.08.68-.15 1.36-.18 1.35-.18 1.35l-4-.52s.11-.67.18-1.34.15-1.34.15-1.34zM849.42 327.85l-.3 2.71-3.97-.47.3-2.68 3.97.44zM849.95 323.1l-.3 2.71-3.98-.42.3-2.68 3.98.39zM850.38 318.34l-.22 2.72-3.98-.37.21-2.69 3.99.34zM850.81 312.9l-.22 2.72-3.98-.32.21-2.69 3.99.29zM851.16 308.13s0 .69-.08 1.37-.11 1.36-.11 1.36l-4-.27.11-1.35c.06-.67.08-1.35.08-1.35zM851.38 303.36l-.13 2.73-3.99-.22.13-2.7 3.99.19zM851.61 298.59l-.13 2.72-4-.17.13-2.7 4 .15zM851.76 293.13l-.04 2.73-3.99-.12.03-2.7 4 .09zM851.83 288.35l-.04 2.73-4-.07.05-2.7 3.99.04zM851.9 283.57l-.03 2.74-4-.03.03-2.7 4-.01zM837.07 491.13l-4.44 8.04-5.21-3 4.39-7.92 5.26 2.88zM843.78 478.36l-4.17 8.18-5.3-2.82 4.12-8.06 5.35 2.7zM850.06 465.37l-3.34 7.12-5.4-2.61 3.3-7.03 5.44 2.52zM857.45 448.56l-3.62 8.44-5.49-2.41 3.56-8.32 5.55 2.29zM862.72 435.12l-3.34 8.56-5.57-2.22 3.29-8.43 5.62 2.09zM867.94 420.27s-.17.55-.44 1.37-.67 1.89-1 3c-.76 2.17-1.53 4.33-1.53 4.33l-5.65-2 1.51-4.26c.37-1.07.75-2.14 1-2.94s.44-1.35.44-1.35zM872.25 406.5s-.16.55-.39 1.38-.6 1.92-1 3l-1.38 4.38-5.72-1.82 1.36-4.32c.34-1.07.69-2.15.94-3l.38-1.37zM876.72 390.05l-.94 3.82c-.5 1.9-1 3.79-1 3.79l-5.79-1.57s.54-1.87 1-3.74.93-3.77.93-3.77zM880.28 374.72s-.47 2.24-.95 4.49a60.13 60.13 0 01-.7 3.07l-.35 1.4-5.84-1.38s.14-.55.34-1.38.48-1.92.7-3c.47-2.21.93-4.43.93-4.43zM883.06 360.56l-.8 4.52c-.2 1.13-.4 2.26-.59 3.1l-.3 1.4-5.88-1.18s.11-.55.29-1.39.39-1.94.58-3.05l.8-4.46zM885.37 346.32s-.28 1.94-.57 3.89c-.14 1-.28 2-.38 2.68s-.21 1.21-.21 1.21l-5.92-1s.09-.47.2-1.19.25-1.68.38-2.64l.56-3.84zM887.64 328.1l-1.02 9.12-5.96-.73 1.01-9 5.97.61zM888.87 313.72l-.73 9.15-5.98-.53.72-9.03 5.99.41zM889.68 298l-.43 9.17-6-.32.43-9.04 6 .19zM889.9 283.57l-.13 9.18-6-.12.13-9.05 6-.01z"/><path class="cls-3" d="M789.14 462.09l1.57.75a4 4 0 011.68 5.36l-5.26 11.12a3.7 3.7 0 01-5.07 1.81l-1.58-.74z"/><path class="cls-2" d="M906.56 378.15s5.34 3.78 4.56 7.59-2.16 8.82-3.4 13.86c-.31 1.26-.6 2.53-.94 3.76s-.69 2.43-1 3.6c-.67 2.34-1.29 4.53-1.83 6.4-1.07 3.74-12.3 3-12.3 3s2.1-7.36 4.21-14.71c.56-1.83.95-3.7 1.4-5.44l1.17-4.76c.68-2.79 1.14-4.65 1.14-4.65l.37-1.5c.23-.9.52-2.11.75-3.33l1-4.86s.3-1.44.82-4 1.32-6.12 2-10.49c.37-2.18.77-4.54 1.18-7s.91-5.12 1.22-7.87.72-5.57 1.09-8.45.79-5.79 1-8.73.54-5.87.81-8.76c.13-1.44.26-2.88.39-4.29s.16-2.82.25-4.2c.15-2.76.29-5.43.43-8s.32-4.91.31-7.13c.16-8.84.26-14.73.26-14.73h5s-.1 5.95-.26 14.89c0 2.24-.19 4.65-.32 7.21s-.28 5.25-.43 8c-.09 1.39-.14 2.81-.25 4.25s-.27 2.88-.4 4.34c-.27 2.92-.54 5.88-.81 8.85s-.65 5.92-1 8.83-.75 5.77-1.11 8.54-.81 5.44-1.23 8-.82 4.92-1.19 7.12c-.68 4.42-1.5 8.05-2 10.61z"/><circle class="cls-1" cx="137.92" cy="100" r="4.5"/><path class="cls-2" d="M118.2 264s18-17.72 18.4-21a323.94 323.94 0 019.76-47.51c1.13-4.27 2.56-8.45 3.84-12.6.63-2.08 1.42-4.09 2.1-6.11s1.39-4 2.12-5.93 1.49-3.82 2.22-5.68 1.41-3.68 2.18-5.41l2.18-5.08c.7-1.64 1.37-3.23 2.1-4.72l3.9-8.16c1.22-2.39.4-14.61.4-14.61l3.92-7.08-12.64-7.28-4.1 7.41-.91 1.64s-.29.5-.78 1.45l-2.12 4.15c-.9 1.79-2.05 3.94-3.26 6.46l-4 8.5c-1.41 3.13-2.84 6.57-4.41 10.19s-3 7.53-4.54 11.53c-.71 2-1.44 4.09-2.18 6.17s-1.52 4.18-2.17 6.35c-1.34 4.3-2.81 8.65-4 13.08A345.34 345.34 0 00116 239.09c-.82 6.82-1.48 12.51-1.74 16.51s-.49 6.29-.49 6.29 0 .47-.06.94v.93s-.06 1.3-.16 3.23-.23 4.52-.31 7.1c-.07 5.17-.15 10.34-.15 10.34h4.56s.08-5.1.15-10.21c.07-2.55.23-5.09.31-7zM115.36 90.48l1.32-2.39 3.46 2-1.31 2.36-3.47-1.97zM113.04 94.66l1.32-2.39 3.49 1.96-1.3 2.36-3.51-1.93zM110.73 98.84l1.32-2.39 3.51 1.91-1.3 2.37-3.53-1.89zM108.22 103.7l1.24-2.44 3.54 1.86-1.22 2.41-3.56-1.83zM106.05 107.95l1.24-2.43 3.56 1.82-1.22 2.4-3.58-1.79zM103.91 112.23s.3-.62.59-1.24l.62-1.21 3.58 1.77-.61 1.2-.58 1.22zM101.88 116.55l1.16-2.47 3.61 1.73-1.15 2.45-3.62-1.71zM99.56 121.5l1.16-2.48 3.64 1.68-1.15 2.45-3.65-1.65zM97.63 125.87l1.08-2.51 3.65 1.63-1.06 2.48-3.67-1.6zM95.75 130.26l1.08-2.51 3.67 1.59-1.07 2.48-3.68-1.56zM93.86 134.65l1.08-2.51 3.69 1.54-1.06 2.49-3.71-1.52zM91.87 139.74l1-2.55 3.71 1.49-.98 2.52-3.73-1.46zM90.14 144.19l.99-2.55 3.73 1.45-.98 2.52-3.74-1.42zM88.46 148.66s.23-.64.45-1.29.48-1.28.48-1.28l3.75 1.4s-.26.63-.47 1.27l-.45 1.24zM86.87 153.17l.91-2.58 3.76 1.36-.9 2.54-3.77-1.32zM85.05 158.32l.91-2.58 3.78 1.3-.9 2.55-3.79-1.27zM83.59 162.87l.82-2.61 3.8 1.26-.81 2.57-3.81-1.22zM82.15 167.42l.82-2.6 3.81 1.21-.81 2.57-3.82-1.18zM80.73 172s.17-.66.39-1.31.41-1.3.41-1.3l3.83 1.17s-.21.64-.41 1.28-.38 1.3-.38 1.3zM79.26 177.24l.73-2.63 3.85 1.11-.73 2.6-3.85-1.08zM77.97 181.84l.73-2.63 3.86 1.07-.73 2.6-3.86-1.04zM76.77 186.47l.65-2.65 3.87 1.01-.65 2.63-3.87-.99zM75.63 191.11l.65-2.65 3.88.97-.64 2.62-3.89-.94zM74.34 196.41s.14-.66.31-1.32.33-1.33.33-1.33l3.89.91-.32 1.33c-.17.65-.31 1.31-.31 1.31zM73.35 201.09l.57-2.67 3.9.86-.56 2.65-3.91-.84zM72.36 205.76l.56-2.67 3.92.82-.56 2.65-3.92-.8zM71.43 210.45l.24-1.34c.11-.68.27-1.34.27-1.34l3.92.77s-.15.66-.26 1.33l-.24 1.33zM70.48 215.83l.48-2.69 3.93.72-.47 2.66-3.94-.69zM69.64 220.53l.48-2.69 3.94.67-.47 2.66-3.95-.64zM68.94 225.26l.39-2.7 3.95.62-.38 2.67-3.96-.59zM68.25 229.99l.4-2.71 3.96.58-.39 2.67-3.97-.54zM67.53 235.4s.08-.68.15-1.36.18-1.35.18-1.35l4 .52s-.11.67-.18 1.34l-.15 1.34zM67 240.15l.3-2.71 3.97.47-.3 2.68-3.97-.44zM66.47 244.9l.3-2.72 3.98.43-.3 2.68-3.98-.39zM66.04 249.66l.22-2.73 3.98.38-.21 2.69-3.99-.34zM65.61 255.1l.22-2.72 3.98.32-.21 2.69-3.99-.29zM65.26 259.86s0-.68.08-1.36.11-1.36.11-1.36l4 .27s0 .68-.11 1.35-.08 1.35-.08 1.35zM65.04 264.64l.12-2.73 4 .22-.13 2.7-3.99-.19zM64.81 269.41l.13-2.73 4 .18-.13 2.7-4-.15zM64.66 274.87l.04-2.73 3.99.12-.03 2.7-4-.09zM64.58 279.65l.05-2.73 4 .07-.05 2.7-4-.04zM64.52 284.42l.04-2.73 4 .03-.04 2.7h-4zM79.35 76.87l4.44-8.04 5.21 3-4.39 7.92-5.26-2.88zM72.64 89.64l4.17-8.18 5.3 2.82-4.12 8.06-5.35-2.7zM66.36 102.63l3.34-7.13 5.4 2.62-3.3 7.03-5.44-2.52zM58.97 119.44l3.62-8.44 5.49 2.4-3.56 8.32-5.55-2.28zM53.7 132.87l3.33-8.55 5.58 2.22-3.29 8.43-5.62-2.1zM48.48 147.73s.17-.55.44-1.37.67-1.89 1-3l1.53-4.33 5.65 2s-.75 2.14-1.51 4.27c-.37 1.07-.75 2.14-1 2.94s-.44 1.34-.44 1.34zM44.17 161.5l.39-1.38c.26-.83.6-1.92.95-3l1.38-4.38 5.72 1.82-1.36 4.31c-.34 1.08-.69 2.16-.94 3l-.38 1.36zM39.7 178l.94-3.82c.5-1.9 1-3.79 1-3.79l5.79 1.57s-.54 1.86-1 3.74-.93 3.77-.93 3.77zM36.14 193.28s.47-2.24 1-4.49c.22-1.12.49-2.24.7-3.08l.35-1.39L44 185.7s-.14.55-.34 1.37-.48 1.93-.7 3c-.47 2.21-.93 4.43-.93 4.43zM33.36 207.44l.8-4.52c.2-1.13.4-2.26.59-3.1l.3-1.4 5.88 1.18s-.11.55-.29 1.38-.39 2-.58 3.06l-.8 4.46zM31.05 221.68s.28-2 .57-3.89c.14-1 .28-1.95.38-2.68s.21-1.21.21-1.21l5.92 1s-.09.47-.2 1.19-.25 1.68-.38 2.64l-.55 3.81zM28.78 239.9l1.02-9.12 5.96.73-1.01 9-5.97-.61zM27.55 254.28l.73-9.15 5.98.53-.72 9.03-5.99-.41zM26.74 270l.44-9.17 5.99.31-.43 9.05-6-.19zM26.52 284.43l.13-9.19 6 .12-.13 9.06-6 .01z"/><path class="cls-3" d="M127.28 105.91l-1.57-.75A4 4 0 01124 99.8l5.26-11.12a3.7 3.7 0 015.07-1.81l1.58.74z"/><path class="cls-2" d="M9.86 189.85s-5.34-3.78-4.56-7.59c.93-3.78 2.16-8.82 3.4-13.86.31-1.26.6-2.53.94-3.76s.7-2.44 1-3.61c.67-2.33 1.29-4.52 1.83-6.39 1.07-3.74 12.3-3 12.3-3s-2.1 7.35-4.21 14.71c-.56 1.83-.95 3.7-1.4 5.44L18 176.54c-.68 2.79-1.14 4.64-1.14 4.64l-.37 1.51c-.23.9-.52 2.11-.75 3.33l-1 4.86s-.3 1.44-.82 4-1.32 6.12-2 10.49c-.37 2.18-.77 4.54-1.18 7s-.91 5.12-1.22 7.87-.72 5.57-1.09 8.45-.79 5.79-1 8.73-.54 5.87-.81 8.76c-.13 1.44-.26 2.88-.39 4.29s-.16 2.82-.25 4.2c-.15 2.76-.29 5.43-.43 8s-.32 4.91-.31 7.12C5.1 278.6 5 284.5 5 284.5H0s.1-6 .26-14.89c0-2.24.19-4.65.32-7.21s.28-5.25.43-8c.09-1.4.14-2.82.25-4.25s.27-2.88.4-4.34c.27-2.92.54-5.89.81-8.85s.65-5.93 1-8.83.75-5.78 1.11-8.55.81-5.43 1.23-7.95.82-4.92 1.19-7.12c.68-4.42 1.5-8.05 2-10.61z"/><circle class="cls-1" cx="137.92" cy="468" r="4.5"/><path class="cls-2" d="M118.2 304s18 17.72 18.4 21a324.05 324.05 0 009.76 47.52c1.13 4.27 2.56 8.45 3.84 12.6.63 2.08 1.42 4.09 2.1 6.11s1.39 4 2.12 5.93 1.49 3.82 2.22 5.68 1.41 3.68 2.18 5.41l2.18 5.08c.7 1.64 1.37 3.22 2.1 4.71l3.9 8.16c1.22 2.39.4 14.6.4 14.6l3.92 7.09-12.64 7.28-4.1-7.41-.91-1.64s-.29-.5-.78-1.45l-2.12-4.15c-.9-1.8-2.05-3.94-3.26-6.46l-4-8.5c-1.41-3.13-2.84-6.57-4.41-10.19s-3-7.53-4.54-11.53q-1.07-3-2.18-6.17c-.72-2.09-1.52-4.19-2.17-6.35-1.34-4.31-2.81-8.65-4-13.08A345.34 345.34 0 01116 328.91c-.82-6.82-1.48-12.51-1.74-16.52s-.49-6.28-.49-6.28 0-.47-.06-.94v-.94s-.06-1.29-.16-3.22-.23-4.52-.31-7.11c-.07-5.17-.15-10.34-.15-10.34h4.56s.08 5.1.15 10.2c.07 2.55.23 5.1.31 7zM118.83 475.55l1.31 2.36-3.46 2-1.32-2.39 3.47-1.97zM116.55 471.41l1.3 2.36-3.49 1.96-1.32-2.39 3.51-1.93zM114.26 467.27l1.3 2.36-3.51 1.91-1.32-2.39 3.53-1.88zM111.78 462.47l1.22 2.4-3.54 1.86-1.24-2.43 3.56-1.83zM109.63 458.25l1.22 2.41-3.56 1.82-1.24-2.43 3.58-1.8zM107.51 454l.58 1.23.61 1.2-3.58 1.77-.62-1.2c-.29-.62-.59-1.24-.59-1.24zM105.5 449.74l1.15 2.45-3.61 1.73-1.16-2.47 3.62-1.71zM103.21 444.85l1.15 2.45-3.64 1.67-1.16-2.47 3.65-1.65zM101.3 440.52l1.06 2.49-3.65 1.63-1.08-2.51 3.67-1.61zM99.43 436.18l1.07 2.48-3.67 1.59-1.08-2.51 3.68-1.56zM97.57 431.83l1.06 2.48-3.69 1.55-1.08-2.51 3.71-1.52zM95.6 426.8l.98 2.51-3.71 1.5-1-2.55 3.73-1.46zM93.88 422.39l.98 2.52-3.73 1.45-.99-2.55 3.74-1.42zM92.22 418s.22.64.45 1.28.47 1.26.47 1.26l-3.75 1.4s-.26-.63-.48-1.27l-.45-1.29zM90.64 413.5l.9 2.55-3.76 1.36-.91-2.58 3.77-1.33zM88.84 408.41l.9 2.54-3.78 1.31-.91-2.58 3.79-1.27zM87.4 403.9l.81 2.58-3.8 1.26-.82-2.61 3.81-1.23zM85.97 399.39l.81 2.58-3.81 1.21-.82-2.6 3.82-1.19zM84.57 394.88s.17.65.38 1.29.41 1.29.41 1.29l-3.83 1.17s-.21-.66-.41-1.31-.39-1.31-.39-1.31zM83.11 389.67l.73 2.61-3.85 1.1-.73-2.62 3.85-1.09zM81.83 385.12l.73 2.6-3.86 1.07-.73-2.63 3.86-1.04zM80.64 380.54l.65 2.63-3.87 1.01-.65-2.65 3.87-.99zM79.52 375.95l.64 2.62-3.88.97-.65-2.65 3.89-.94zM78.24 370.7s.14.66.31 1.31l.32 1.31-3.89.92s-.17-.66-.33-1.33-.31-1.33-.31-1.33zM77.26 366.07l.56 2.64-3.9.87-.57-2.67 3.91-.84zM76.28 361.44l.56 2.65-3.92.81-.56-2.67 3.92-.79zM75.36 356.8l.24 1.33c.11.67.26 1.33.26 1.33l-3.92.77s-.16-.67-.27-1.34l-.24-1.34zM74.42 351.48l.47 2.66-3.93.72-.48-2.69 3.94-.69zM73.59 346.82l.47 2.67-3.94.66-.48-2.68 3.95-.65zM72.9 342.14l.38 2.68-3.95.62-.39-2.7 3.96-.6zM72.22 337.46l.39 2.68-3.96.57-.4-2.7 3.97-.55zM71.5 332.11l.15 1.34c.07.67.18 1.34.18 1.34l-4 .52s-.11-.68-.18-1.35-.15-1.36-.15-1.36zM70.97 327.41l.3 2.68-3.97.47-.3-2.71 3.97-.44zM70.45 322.71l.3 2.68-3.98.42-.3-2.71 3.98-.39zM70.03 318l.21 2.69-3.98.37-.22-2.72 3.99-.34zM69.6 312.61l.21 2.69-3.98.32-.22-2.72 3.99-.29zM69.25 307.89s0 .68.08 1.35.11 1.35.11 1.35l-4 .27s-.06-.68-.11-1.36-.08-1.37-.08-1.37zM69.03 303.17l.13 2.7-4 .22-.12-2.73 3.99-.19zM68.81 298.44l.13 2.7-4 .17-.13-2.72 4-.15zM68.66 293.04l.03 2.7-3.99.12-.04-2.73 4-.09zM68.58 288.31l.05 2.7-4 .07-.05-2.73 4-.04zM68.52 283.58l.04 2.7-4 .03-.04-2.74 4 .01zM84.61 488.25l4.39 7.92-5.21 3-4.44-8.04 5.26-2.88zM77.99 475.66l4.12 8.06-5.3 2.82-4.17-8.18 5.35-2.7zM71.8 462.85l3.3 7.03-5.4 2.61-3.34-7.12 5.44-2.52zM64.52 446.27l3.56 8.32-5.49 2.41-3.62-8.44 5.55-2.29zM59.32 433.03l3.29 8.43-5.58 2.22-3.33-8.56 5.62-2.09zM54.17 418.38s.18.54.44 1.35.66 1.87 1 2.94l1.51 4.26-5.65 2s-.77-2.16-1.53-4.33c-.38-1.08-.76-2.16-1-3s-.44-1.37-.44-1.37zM49.93 404.8l.38 1.37c.25.81.6 1.89.94 3l1.36 4.32-5.72 1.82-1.38-4.38c-.35-1.09-.69-2.19-.95-3s-.39-1.38-.39-1.38zM45.52 388.58s.46 1.88.93 3.77 1 3.74 1 3.74l-5.79 1.57s-.55-1.89-1-3.79l-.94-3.82zM42 373.46s.46 2.22.93 4.43c.22 1.11.49 2.21.7 3s.34 1.38.34 1.38l-5.84 1.38-.35-1.4c-.21-.83-.48-1.95-.7-3.07-.48-2.25-1-4.49-1-4.49zM39.26 359.5l.8 4.46c.19 1.11.39 2.23.58 3.05s.29 1.39.29 1.39l-5.88 1.18-.3-1.4c-.19-.84-.39-2-.59-3.1l-.8-4.52zM37 345.46l.56 3.84c.13 1 .27 1.92.38 2.64s.2 1.19.2 1.19l-5.92 1s-.1-.48-.21-1.21-.24-1.71-.38-2.68c-.29-1.95-.57-3.89-.57-3.89zM34.75 327.49l1.01 9-5.96.73-1.02-9.12 5.97-.61zM33.54 313.31l.72 9.03-5.98.53-.73-9.15 5.99-.41zM32.74 297.81l.43 9.04-5.99.32-.44-9.17 6-.19zM32.52 283.58l.13 9.05-6 .12-.13-9.18 6 .01z"/><path class="cls-3" d="M127.28 462.09l-1.57.75a4 4 0 00-1.71 5.36l5.26 11.12a3.7 3.7 0 005.07 1.81l1.58-.74z"/><path class="cls-2" d="M9.86 378.15s-5.34 3.78-4.56 7.59c.93 3.78 2.16 8.82 3.4 13.86.31 1.26.6 2.53.94 3.76s.7 2.43 1 3.6c.67 2.34 1.29 4.53 1.83 6.4 1.07 3.74 12.3 3 12.3 3s-2.1-7.36-4.21-14.71c-.56-1.83-.95-3.7-1.4-5.44L18 391.46c-.68-2.79-1.14-4.65-1.14-4.65l-.37-1.5c-.23-.9-.52-2.11-.75-3.33l-1-4.86s-.3-1.44-.82-4-1.32-6.12-2-10.49c-.37-2.18-.77-4.54-1.18-7s-.91-5.12-1.22-7.87-.72-5.57-1.09-8.45-.79-5.79-1-8.73-.54-5.87-.81-8.76c-.13-1.44-.26-2.88-.39-4.29s-.16-2.82-.25-4.2c-.15-2.76-.29-5.43-.43-8s-.32-4.91-.31-7.13C5.1 289.39 5 283.5 5 283.5H0s.1 5.95.26 14.89c0 2.24.19 4.65.32 7.21s.28 5.25.43 8c.09 1.39.14 2.81.25 4.25s.27 2.88.4 4.34c.27 2.92.54 5.88.81 8.85s.65 5.92 1 8.83.75 5.77 1.11 8.54.81 5.44 1.23 8 .82 4.92 1.19 7.12c.68 4.42 1.5 8.05 2 10.61z"/><circle class="cls-1" cx="586.5" cy="58" r="4"/><path class="cls-1" d="M459.65 57.44h3v2h-3zM463.92 57h2v2h-2zM468.92 57h2v2h-2zM473.65 57.44h3v2h-3zM478.92 57h2v2h-2zM483.65 57.44h3v2h-3zM488.65 57.44h3v2h-3zM493.65 57.44h3v2h-3zM498.65 57.44h3v2h-3zM503.65 57.44h3v2h-3zM508.65 57.44h3v2h-3zM512.92 57h2v2h-2zM518.65 57.44h3v2h-3zM523.65 57.44h3v2h-3zM527.92 57h2v2h-2zM532.65 57.44h3v2h-3zM538.65 57.44h3v2h-3zM542.92 57h2v2h-2zM547.65 57.44h3v2h-3zM552.65 57.44h3v2h-3zM557.92 57h2v2h-2zM562.65 57.44h3v2h-3zM567.65 57.44h3v2h-3zM459.65 40.44h368v1h-368zM569.92 30.44l9-3h31l8 5H459.65v-2h110.27z"/><circle class="cls-1" cx="331.34" cy="58" r="4"/><path class="cls-1" d="M456.65 57.44h3v2h-3zM451.92 57h2v2h-2zM446.92 57h2v2h-2zM442.65 57.44h3v2h-3zM436.92 57h2v2h-2zM432.65 57.44h3v2h-3zM427.65 57.44h3v2h-3zM422.65 57.44h3v2h-3zM417.65 57.44h3v2h-3zM412.65 57.44h3v2h-3zM407.65 57.44h3v2h-3zM402.92 57h2v2h-2zM397.65 57.44h3v2h-3zM392.65 57.44h3v2h-3zM387.92 57h2v2h-2zM383.65 57.44h3v2h-3zM377.65 57.44h3v2h-3zM372.92 57h2v2h-2zM368.65 57.44h3v2h-3zM363.65 57.44h3v2h-3zM357.92 57h2v2h-2zM353.65 57.44h3v2h-3zM348.65 57.44h3v2h-3zM91.65 40.44h368v1h-368zM347.92 30.44l-9-3h-31l-8 5H459.65v-2H347.92z"/><circle class="cls-1" cx="586.5" cy="512" r="4"/><path class="cls-1" d="M459.65 511.44h3v2h-3zM463.92 511h2v2h-2zM468.92 511h2v2h-2zM473.65 511.44h3v2h-3zM478.92 511h2v2h-2zM483.65 511.44h3v2h-3zM488.65 511.44h3v2h-3zM493.65 511.44h3v2h-3zM498.65 511.44h3v2h-3zM503.65 511.44h3v2h-3zM508.65 511.44h3v2h-3zM512.92 511h2v2h-2zM518.65 511.44h3v2h-3zM523.65 511.44h3v2h-3zM527.92 511h2v2h-2zM532.65 511.44h3v2h-3zM538.65 511.44h3v2h-3zM542.92 511h2v2h-2zM547.65 511.44h3v2h-3zM552.65 511.44h3v2h-3zM557.92 511h2v2h-2zM562.65 511.44h3v2h-3zM567.65 511.44h3v2h-3zM459.65 529.44h368v1h-368zM569.92 540.44l9 3h31l8-5H459.65v2h110.27zM364.68 512c0-2.21 1.28-4 2.86-4s2.87 1.79 2.87 4-1.28 4-2.87 4-2.86-1.79-2.86-4zM456.92 511h2v2h-2zM453.91 511h1.43v2h-1.43zM450.33 511h1.43v2h-1.43zM446.92 511h2v2h-2zM443.16 511h1.43v2h-1.43zM439.92 511h2v2h-2zM435.92 511h2v2h-2zM432.65 511.44h3v2h-3zM428.92 511h2v2h-2zM424.92 511h2v2h-2zM421.92 511h2v2h-2zM418.81 511h1.43v2h-1.43zM414.92 511h2v2h-2zM410.92 511h2v2h-2zM408.07 511h1.43v2h-1.43zM404.92 511h2v2h-2zM399.92 511h2v2h-2zM397.32 511h1.43v2h-1.43zM393.92 511h2v2h-2zM389.92 511h2v2h-2zM386.58 511h1.43v2h-1.43zM382.92 511h2v2h-2zM379.65 511.44h3v2h-3zM93.65 529.44h366v1h-366zM379.42 540.44l-6.45 3h-22.2l-5.73-5H459.65v2h-80.23zM93.65 567.44h17v1h-17zM808.65 4.44h1v36h-1z"/><path class="cls-1" d="M812.68 40.17a3.76 3.76 0 11-3.76-3.76 3.76 3.76 0 013.76 3.76zM812.68 3.76a3.76 3.76 0 10-3.76 3.76 3.76 3.76 0 003.76-3.76zM823.65 4.44h1v36h-1z"/><path class="cls-1" d="M827.68 40.17a3.76 3.76 0 11-3.76-3.76 3.76 3.76 0 013.76 3.76zM827.68 3.76a3.76 3.76 0 10-3.76 3.76 3.76 3.76 0 003.76-3.76zM94.65 531.44h1v36h-1z"/><path class="cls-1" d="M98.68 567.17a3.76 3.76 0 11-3.76-3.76 3.76 3.76 0 013.76 3.76zM98.68 530.76a3.76 3.76 0 10-3.76 3.76 3.76 3.76 0 003.76-3.76zM109.65 531.44h1v36h-1z"/><path class="cls-1" d="M113.68 567.17a3.76 3.76 0 11-3.76-3.76 3.76 3.76 0 013.76 3.76zM113.68 530.76a3.76 3.76 0 10-3.76 3.76 3.76 3.76 0 003.76-3.76z"/></g></g></svg>