<svg xmlns="http://www.w3.org/2000/svg" viewBox="0 0 308.18 308.09"><defs><style>.cls-1{fill:#36a9e1}.cls-2{fill:#f39200}.cls-3{fill:#1d71b8}</style></defs><g id="图层_2" data-name="图层 2"><g id="Layer_1" data-name="Layer 1"><path class="cls-1" d="M263.05 45c3.92 4.09 7.81 8.21 11.33 12.66q1.39 1.77 2.76 3.57c.42.54.84 1.07 1.25 1.62l.53.75c0 .06.33.37.31.45s-.27.2-.32.23l-.9.64-14.68 10.59-1.82 1.31A121 121 0 00250.05 63c-.79-.82-1.57-1.65-2.35-2.47-.13-.13 0-.15.1-.27l1.8-1.8 12.69-12.69.76-.76zM283.49 70.3c3 4.75 5.82 9.54 8.32 14.55.71 1.43 1.45 2.86 2.12 4.32.28.62.55 1.24.82 1.87.13.28.25.56.37.85 0 .06.25.42.22.49s-.31.14-.37.16L294 93l-16.58 7.23-2.06.9c-1.11-2.56-2.33-5-3.56-7.56-.75-1.51-1.6-3-2.41-4.45-.74-1.33-1.48-2.67-2.31-3.95-.62-1-1.21-1.92-1.81-2.88-.09-.15 0-.15.16-.24l2.13-1.38 15.07-9.76.9-.59zM298.19 99.38c1.48 4 2.92 8 4 12.08.64 2.4 1.34 4.79 1.89 7.21.35 1.59.68 3.18 1 4.76l-15.11 3-6.2 1.25c-.23 0-.22-.55-.26-.72-.29-1.33-.55-2.68-.87-4-.61-2.55-1.28-5.12-2.08-7.62-.88-2.71-1.76-5.4-2.76-8.06-.09-.24-.1-.2.11-.29l.86-.32 7.88-3 11.49-4.35zM306.44 130.86a134.54 134.54 0 011.64 18c0 .6.18 6.9.06 6.9h-1.78l-18.12-.21h-1.92A92.63 92.63 0 00286 145c-.31-3.64-.57-7.28-1.17-10.89l15.24-2.3 6.35-1z"/><path class="cls-2" d="M258.78 194l-7.35-2.8-1.34-.51c-.31-.12.16-.83.25-1.07 1.08-2.86 2-5.79 2.78-8.74a90.59 90.59 0 002.1-9.51c.41-2.45.72-4.91 1-7.38.39-3.11.39-6.27.48-9.39a69.57 69.57 0 00-.22-7.07 94.34 94.34 0 00-1.72-13.53l7.73-1.53 1.4-.28c.17 0 .14-.05.18.15.13.58.21 1.17.31 1.76.49 2.94 1 5.89 1.25 8.86a107.39 107.39 0 01.41 16.63 111.42 111.42 0 01-2.15 17 120 120 0 01-5.11 17.41zM189.86 270.58l-2.31-7.53c-.14-.46-.28-.91-.41-1.37s.63-.36.87-.44c2.93-.94 5.83-2 8.69-3.11a109.56 109.56 0 0016.21-8.21c1.43-.89 2.84-1.8 4.22-2.77s2.82-1.88 4.14-2.93 2.59-1.95 3.84-3 2.55-2.19 3.82-3.28a108.7 108.7 0 0011.64-12.06c.15-.17.37.16.51.27l1.45 1.21 3.85 3.2 1.53 1.28c-1.34 1.56-2.66 3.16-4.08 4.66-2.16 2.29-4.36 4.5-6.64 6.67A121.3 121.3 0 01204.6 265a139.25 139.25 0 01-14.74 5.56z"/><path class="cls-1" d="M307.89 163.33c-.12 1.61-.24 3.21-.35 4.82-.19 2.55-.58 5.1-.89 7.63-.61 4.14-1.4 8.23-2.29 12.31l-15-3.4-6.17-1.39c-.22-.05 0-.59.07-.76.3-1.38.63-2.75.87-4.14.55-3.27 1.05-6.53 1.44-9.82.06-.49.61-6.56.57-6.56l1.72.1 9 .54 11.11.67zM302.51 195.41c-1.15 4.22-2.51 8.4-4.06 12.5-1.41 3.72-3 7.37-4.56 11l-14-6.49-5.73-2.66c-.21-.1.14-.58.21-.73.57-1.29 1.13-2.59 1.69-3.89a98.75 98.75 0 003.48-9.29c.68-2.09 1.35-4.18 1.93-6.3l14.85 4.13 6.18 1.72zM290.53 225.7a166.46 166.46 0 01-8.6 14.35c-.37.52-4.76 6.85-4.85 6.78l-1.25-.94L261.4 235l-1.74-1.31a126.46 126.46 0 009.91-15.19c.54-.95 1.07-1.91 1.6-2.87.07-.11.19 0 .29.07l2.3 1.21 15.86 8.34.91.48zM272.64 252.43a164 164 0 01-11.35 12.23l-3.48 3.3c-.49.46-1 .91-1.52 1.35l-.7.6c-.05 0-.33.36-.41.36s-.22-.26-.26-.3l-.72-.84-11.88-13.64c-.5-.56-1-1.12-1.48-1.69 2.16-1.8 4.16-3.73 6.16-5.66 1.22-1.17 2.36-2.41 3.52-3.63s2.11-2.2 3.08-3.38c.72-.87 1.47-1.72 2.21-2.58.12-.13.15 0 .27.08l2 1.63 13.8 11.48.83.69zM249.7 274.83l-3.82 3c-2 1.56-4.19 3-6.3 4.43s-4.36 2.79-6.55 4.14c-1.36.84-2.77 1.6-4.16 2.38l-7.49-13.48-3.07-5.53c-.11-.19.47-.36.61-.44 1.24-.7 2.46-1.39 3.66-2.14 2.82-1.75 5.57-3.56 8.29-5.46.41-.29 5.29-3.93 5.27-4l1.07 1.35 5.58 7q3.45 4.36 6.91 8.72z"/><path class="cls-3" d="M263.06 45l-10.9 10.89-4.48 4.48c-.12.12-.17 0-.28-.15l-1.64-1.55c-2.17-2.06-4.38-4-6.65-6a128.48 128.48 0 00-30.73-19.34 131.79 131.79 0 00-57.5-11.57c-3.32.08-6.66.26-10 .6s-6.81.86-10.2 1.43a128.26 128.26 0 00-35 11.45A132.21 132.21 0 0072.2 257.86a130.77 130.77 0 0034.12 19.5 132.94 132.94 0 0076.51 5.73 129.51 129.51 0 0029.27-10.22q3.39 6.93 6.76 13.85c.93 1.89 1.85 3.79 2.78 5.69.11.23-1 .59-1.22.7-1.21.6-2.44 1.15-3.68 1.69-2.89 1.26-5.79 2.46-8.75 3.57a154 154 0 01-148.38-22.64 155 155 0 01-48.06-63 151.92 151.92 0 01-10-37A161.47 161.47 0 010 157.2c-.07-3.14 0-6.26.07-9.4.09-3 .27-6 .61-9l.18-1.53h.13l1 .11 4 .43 9.46 1c.18 0 1.63.27 1.65.1.31-2.59.64-5.16 1.08-7.74A140.92 140.92 0 0121.56 116a138.47 138.47 0 0114.77-33.7c1.75-2.9 3.66-5.69 5.6-8.46s4-5.39 6.11-7.91 4.45-5.09 6.78-7.56c1.2-1.27 2.44-2.49 3.7-3.69s2.35-2.32 3.6-3.39c4-3.48 8.12-6.86 12.49-9.93A131.22 131.22 0 0191.89 31a142.16 142.16 0 0134.94-12.1 135.41 135.41 0 0117.93-2.38c2.45-.16 4.9-.24 7.35-.3.55 0 7 0 7 .07l.56-15.43V.07a10.18 10.18 0 011.91 0c3 .16 6.07.37 9.08.73a171.38 171.38 0 0117 2.8 154 154 0 0135.72 12.7 149.29 149.29 0 0130 19.88c2.12 1.82 4.22 3.64 6.25 5.57l3.43 3.25z"/><path class="cls-2" d="M243.06 65c-3.4-3.23-6.81-6.4-10.46-9.34a119.41 119.41 0 00-14-9.72 125.7 125.7 0 00-36.39-14.6 127.61 127.61 0 00-38.08-2.78 125.85 125.85 0 00-37 8.68c-3 1.22-6 2.57-9 4A98.76 98.76 0 0089.44 46c-2.87 1.8-5.69 3.64-8.47 5.57-1.67 1.18-3.27 2.43-4.88 3.69-2.64 2.05-5.2 4.25-7.62 6.55C67.25 63 66 64.1 64.81 65.32s-2.35 2.47-3.53 3.68a100.56 100.56 0 00-6.66 7.91q-3.1 4-5.92 8.29a125.17 125.17 0 00-18.54 47 135.62 135.62 0 00-1.86 19.5 124.6 124.6 0 001.9 24.3 111 111 0 003.72 15.34c1.19 3.7 2.42 7.39 4 11s3 6.87 4.77 10.2c1.6 3.07 3.4 6 5.24 9a108.82 108.82 0 009.55 13.05c1.8 2.11 3.62 4.18 5.54 6.19 1.73 1.83 3.52 3.56 5.34 5.3a112.78 112.78 0 0013.16 10.72 124.87 124.87 0 0038.42 18.33 126.07 126.07 0 0029.77 4.63c4.21.11 8.4.11 12.61-.19a133.41 133.41 0 0019-2.68 128.55 128.55 0 0029-10.26A124.32 124.32 0 00227.68 256q4.2-3 8.12-6.4c2.57-2.23 5.18-4.48 7.53-6.95s4.61-4.89 6.81-7.46c1.87-2.19 3.62-4.47 5.38-6.76.51-.64 1-1.34 1.42-2 1-1.4 2-2.79 2.87-4.24s1.79-2.81 2.65-4.24 1.61-2.88 2.41-4.31a114.47 114.47 0 007.92-18 126.75 126.75 0 002.51-75.53 134.79 134.79 0 00-6.6-18.11 117.64 117.64 0 00-9.53-17.28A121.82 121.82 0 00250 72.58c-1.94-2.26-3.95-4.43-6-6.58l-.89-.93c-.11-.12.18-.29.27-.38l1.54-1.54c3.24 3.41 6.43 6.83 9.38 10.48a123 123 0 019.7 13.86 128.2 128.2 0 0115 36.44 130.39 130.39 0 013.29 38.28 128.11 128.11 0 01-7.93 37 133 133 0 01-8.44 18.06c-1.64 2.93-3.39 5.84-5.31 8.59-1.15 1.64-2.26 3.32-3.49 4.91-2.08 2.69-4.2 5.32-6.41 7.9s-4.65 5.1-7.13 7.49a137.83 137.83 0 01-15.77 13.06 127.78 127.78 0 01-65.13 22.94 121.93 121.93 0 01-28.68-1.3 127.84 127.84 0 01-23.89-6.17 140.22 140.22 0 01-12.92-5.54c-2.64-1.3-5.2-2.72-7.77-4.15-2.81-1.57-5.51-3.37-8.14-5.2s-4.89-3.55-7.29-5.41c-2-1.52-3.83-3.19-5.71-4.82-1.26-1.1-2.45-2.31-3.66-3.46-.71-.68-1.41-1.35-2.08-2.05-2-2.09-4-4.18-5.84-6.37s-3.55-4.3-5.26-6.51a123.48 123.48 0 01-10-15.48 120.19 120.19 0 01-9.33-21.5 125.79 125.79 0 01-5.35-23.54c-.58-4.84-.95-9.67-1.06-14.54a122.59 122.59 0 01.81-16.81A130.48 130.48 0 0130 120.72a156.63 156.63 0 015-14.9c.59-1.54 1.31-3 2-4.55a90.36 90.36 0 014.53-9.08c1.69-3 3.37-5.89 5.26-8.72s3.85-5.58 5.93-8.26A133.16 133.16 0 0166.53 60a109.47 109.47 0 0112.58-10.33 133.49 133.49 0 0117.31-10.48 137.61 137.61 0 0118-7.4 128.48 128.48 0 0137.15-6.21 129.87 129.87 0 0138.55 5.11 127.73 127.73 0 0135.38 16.54A120.5 120.5 0 01236 55c3.1 2.59 6 5.33 8.94 8.11L243.06 65z"/><path class="cls-3" d="M251.42 227.42L239 218l-1.31-1a73.81 73.81 0 004.61-6.62c1.76-2.83 3.53-5.67 5-8.66 1.21-2.49 2.38-5 3.48-7.51.15-.34.09-.36.41-.23l1.39.57 8.15 3.35.27.12a6.11 6.11 0 00.46-1.07c.49-1.31 1-2.62 1.48-3.94 1-2.72 1.87-5.54 2.64-8.34a115 115 0 003.42-17.8 109.54 109.54 0 00.49-19.75c-.25-3.55-.52-7.11-1.11-10.62-.45-2.66-.93-5.3-1.51-7.93L256.18 131a76.62 76.62 0 00-2-7.74c-1-3-1.92-6.08-3.2-9s-2.55-5.65-3.92-8.44c-.75-1.54-1.66-3-2.49-4.53-1.62-2.92-3.58-5.66-5.48-8.4a96.8 96.8 0 00-6.14-7.7C232 84 231 83 230 81.92c-.44-.46-.88-.92-1.31-1.39-.07-.07-.54-.45-.54-.56s.3-.3.35-.35l1-1 10.91-10.91c1.67 1.76 3.44 3.47 5 5.33 1 1.2 2 2.38 3.05 3.57s2 2.56 3 3.85a114.66 114.66 0 0110.17 15.87 121 121 0 0112.7 37q1 5.85 1.42 11.76c.21 2.9.37 5.82.35 8.73 0 2.09 0 4.21-.16 6.29l-.36 5c-.13 1.71-.39 3.42-.59 5.12a97.7 97.7 0 01-1.74 9.93 126.51 126.51 0 01-5.6 18.38 120.64 120.64 0 01-7.94 16.43 111.57 111.57 0 01-8.2 12.35z"/><path class="cls-1" d="M180 41.06q4.59 1 9.08 2.47l-2.88 9.11-.49 1.56a105 105 0 00-74.82 4.44c-2.24 1-4.48 2.08-6.62 3.29-.19.1.18.55.26.71.34.62.68 1.24 1 1.86l2.25 4.13c0 .07.39.64.33.67l-2.21 1.24a96.08 96.08 0 00-15.37 11A93 93 0 0077 96.18a90.71 90.71 0 00-5.63 8.33c-1.64 2.76-3.09 5.62-4.53 8.49s-2.56 6-3.73 9.1c-1 3-2 6-2.68 9.11-.46 2.1-.92 4.2-1.27 6.32L51 136.12a106.4 106.4 0 00-.07 35.34 86 86 0 001.77 8.44 13.52 13.52 0 01.52 2.09l-1.35.37-4.68 1.29-1.08.3s.7 2.5.78 2.74c1 3 2 6 3.13 8.93s2.4 5.59 3.74 8.31a108 108 0 0010.12 16.54 113.1 113.1 0 0029.26 27.58 114.44 114.44 0 0016.06 8.66c2.3 1 4.65 1.9 7 2.79l.82.31c.1 0 .58.26.66.21s.08-.24.1-.29l.6-1.77c.51-1.47 1-2.94 1.52-4.42.11-.33.06-.58.41-.46 1.09.35 2.17.72 3.27 1.06a103.46 103.46 0 0016.78 3.63 104.76 104.76 0 0036.18-1.54c1.22-.26 2.44-.52 3.64-.85l2.78 10.83c-1.26.33-2.53.63-3.8.91a122.79 122.79 0 01-17.48 2.47c-3.87.28-7.74.27-11.61.18a116.08 116.08 0 01-27.41-4.27 114.78 114.78 0 01-35.38-16.88 104.23 104.23 0 01-12.12-9.87c-1.68-1.6-3.32-3.2-4.92-4.88-1.76-1.85-3.44-3.76-5.1-5.7a99.77 99.77 0 01-8.79-12c-1.69-2.7-3.35-5.44-4.83-8.27-1.6-3.06-3-6.21-4.39-9.39s-2.55-6.69-3.65-10.1A102.27 102.27 0 0140 174.27a115.06 115.06 0 01-1.75-22.38 124.36 124.36 0 011.72-18 115.61 115.61 0 014.24-16.79A114 114 0 0157 90.68q2.6-3.93 5.46-7.64a92.53 92.53 0 016.13-7.28l3.25-3.42c1.07-1.12 2.24-2.16 3.37-3.23 2.23-2.12 4.59-4.14 7-6 1.48-1.15 3-2.31 4.49-3.38 2.56-1.79 5.15-3.48 7.8-5.13a88.45 88.45 0 018-4.36c2.71-1.34 5.45-2.59 8.26-3.71a115.62 115.62 0 0134.08-8A118.05 118.05 0 01180 41.06z"/><path class="cls-3" d="M190.87 37.74c-.36 1.15-.73 2.3-1.09 3.46-.82-.26-1.64-.51-2.47-.75a120 120 0 00-35.49-4.7 118 118 0 00-34.22 5.72 126.94 126.94 0 00-16.6 6.82 122.32 122.32 0 00-15.93 9.65 99.83 99.83 0 00-11.59 9.53 122.71 122.71 0 00-12.79 14q-2.87 3.7-5.46 7.6c-1.73 2.62-3.28 5.32-4.84 8a85.66 85.66 0 00-4.17 8.36c-.61 1.39-1.28 2.77-1.81 4.19a144.17 144.17 0 00-4.57 13.72 121.42 121.42 0 00-3.24 17.11 112.8 112.8 0 00-.77 15.55c.11 4.49.44 8.93 1 13.39A115.18 115.18 0 0041.74 191a109.87 109.87 0 008.59 19.79 111.7 111.7 0 009.2 14.25c1.58 2 3.17 4.05 4.85 6s3.54 3.94 5.37 5.86c.62.65 1.26 1.27 1.91 1.89 1.12 1.09 2.22 2.21 3.34 3.21 1.73 1.51 3.45 3 5.26 4.44 2.2 1.71 4.42 3.38 6.71 5a88.82 88.82 0 007.49 4.79c2.37 1.32 4.73 2.62 7.16 3.82 3.87 1.92 7.85 3.57 11.89 5.1a117.55 117.55 0 0022 5.68A111.81 111.81 0 00162 272a123.15 123.15 0 0021.54-3.44l.5 2c0 .17.48 1.56.33 1.6-2.53.69-5.15 1.28-7.74 1.72-3.14.53-6.27 1-9.43 1.38-2.8.33-5.61.52-8.43.62a122.61 122.61 0 01-36.42-4.12 121.47 121.47 0 01-64.18-42.48 127.29 127.29 0 01-11.2-16.94A120.09 120.09 0 0138.88 194a121.79 121.79 0 01-6.71-38.29 123.12 123.12 0 015-36.6 121 121 0 0117.1-35.21 122.28 122.28 0 0124.37-25.7c2.61-2 5.28-4 8-5.83s5.73-3.59 8.67-5.23 6-3.17 9.08-4.52 6.13-2.53 9.25-3.7 6.45-2.05 9.73-2.93 6.52-1.56 9.82-2.12a117.65 117.65 0 0116.43-1.72 136.84 136.84 0 0118.66.74 119 119 0 0117.93 3.48c1.57.43 3.12.87 4.66 1.37z"/><path class="cls-2" d="M238.63 57.31q-4.26 4.84-8.5 9.7l-11.84 13.51c-.36.41-.72.81-1.07 1.22-.17.2-.58-.36-.71-.47-1.17-1-2.34-2-3.56-2.92a97.58 97.58 0 00-16.34-10.28 69.37 69.37 0 00-7-3.16l4.77-12L201 36.24c.21-.51.41-1 .61-1.52.1-.26.92.25 1.11.33l3.59 1.56c3 1.28 5.89 2.69 8.71 4.26q2.17 1.23 4.37 2.44l4.32 2.7a125.25 125.25 0 0114.95 11.3zm-18.37 6.09a11.33 11.33 0 002.29-7.5 9 9 0 00-4.85-7.43 9.17 9.17 0 00-8.59.35 12.4 12.4 0 00-5.59 7.57c-1.16 4.33-.19 10.38 4.66 12 4.51 1.49 9.46-1.4 12.08-5 1.81-2.46-1.81 2.47 0 0zM215.62 210.33a3.66 3.66 0 11-5.18 0 3.66 3.66 0 015.18 0zM163.51 235a3.66 3.66 0 11-3.66-3.66 3.66 3.66 0 013.66 3.66zM109.26 215.51a3.66 3.66 0 110-5.18 3.66 3.66 0 010 5.18zM104.08 109.15a3.66 3.66 0 115.18 0 3.66 3.66 0 01-5.18 0zM156.19 84.53a3.66 3.66 0 113.66 3.66 3.66 3.66 0 01-3.66-3.66zM210.44 104a3.66 3.66 0 110 5.18 3.66 3.66 0 010-5.18zM199.75 223.59a3.66 3.66 0 11-5-1.4 3.66 3.66 0 015 1.4zM142.91 233.1a3.66 3.66 0 11-2.52-4.51 3.66 3.66 0 012.52 4.51zM120 95.88a3.66 3.66 0 115 1.41 3.66 3.66 0 01-5-1.41zM176.79 86.37a3.66 3.66 0 112.53 4.52 3.67 3.67 0 01-2.53-4.52zM182.43 231.57A3.66 3.66 0 11178 229a3.66 3.66 0 014.47 2.61zM125 226.49a3.66 3.66 0 11-1.31-5 3.65 3.65 0 011.31 5zM137.28 87.9a3.66 3.66 0 114.47 2.62 3.66 3.66 0 01-4.47-2.62zM194.68 93a3.66 3.66 0 111.32 5 3.67 3.67 0 01-1.31-5z"/><path class="cls-3" d="M100.86 201.65a64.19 64.19 0 010-84.57l-4.94-4.94a71.15 71.15 0 000 94.45zM218.81 117.53a64.2 64.2 0 010 84.57l4.94 4.94a71.17 71.17 0 000-94.45z"/></g></g></svg>