<svg xmlns="http://www.w3.org/2000/svg" viewBox="0 0 110.6 110.6"><defs><style>.cls-2{fill:#00b4eb}</style></defs><g id="图层_2" data-name="图层 2"><g id="Layer_2" data-name="Layer 2"><circle cx="55.3" cy="55.3" r="52.8" transform="rotate(-45 55.298 55.305)" fill="none" stroke="#00b4eb" stroke-miterlimit="10" stroke-width="5" stroke-dasharray="37.9 9.48"/><path class="cls-2" d="M103.16 53.47H83.89a26.39 26.39 0 00-18-25l2.41-7.15a33.94 33.94 0 0123 30.09zM103.16 57.13H83.89a26.39 26.39 0 01-18 25l2.41 7.15a33.93 33.93 0 0023-30.09zM7.44 53.47h19.28a26.38 26.38 0 0118-25l-2.42-7.15a33.94 33.94 0 00-23 30.09zM7.44 57.13h19.28a26.38 26.38 0 0018 25l-2.42 7.15a33.93 33.93 0 01-23-30.09z"/></g></g></svg>