<svg xmlns="http://www.w3.org/2000/svg" viewBox="0 0 971 49"><defs><style>.cls-1{fill:#fff}.cls-2{opacity:.5}.cls-3{fill:#29abe2}</style></defs><g id="图层_2" data-name="图层 2"><g id="Layer_1" data-name="Layer 1"><path class="cls-1" d="M933 25h11v4h-11zM906 21h8v8h-8zM875 25h11v8h-11zM848 27h9v14h-9zM821 25h9v6h-9zM791 21h11v8h-11zM765 5h9v22h-9zM734 15h11v12h-11zM707 23h9v6h-9zM679 25h8v8h-8zM651 25h9v8h-9zM622 27h9v14h-9zM594 25h9v20h-9zM565 25h9v8h-9zM537 21h9v14h-9zM508 25h11v10h-11zM481 27h9v16h-9zM451 27h12v14h-12zM425 17h8v16h-8zM397 17h8v14h-8zM367 13h10v14h-10zM340 11h8v16h-8zM311 21h9v8h-9zM283 25h9v4h-9zM255 25h8v10h-8zM225 25h10v10h-10zM197 25h9v8h-9zM169 25h10v6h-10zM140 21h10v8h-10zM114 15h9v12h-9zM85 15h10v12H85zM56 25h9v4h-9zM27 25h11v8H27zM0 25h8v6H0zM966 25h5v4h-5z"/><g class="cls-2"><path class="cls-3" d="M0 0h971v2H0z"/></g><g class="cls-2"><path class="cls-3" d="M0 47h971v2H0z"/></g></g></g></svg>