<svg xmlns="http://www.w3.org/2000/svg" xmlns:xlink="http://www.w3.org/1999/xlink" viewBox="0 0 71.57 59.59"><defs><linearGradient id="linear-gradient" x1="71.06" y1="34.17" x2="-5.43" y2="23.01" gradientUnits="userSpaceOnUse"><stop offset="0" stop-color="#65c8d0"/><stop offset="1"/></linearGradient><linearGradient id="linear-gradient-2" x1="70.96" y1="34.95" x2="-5.7" y2="23.77" xlink:href="#linear-gradient"/><linearGradient id="linear-gradient-3" x1="70.92" y1="34.97" x2="-5.69" y2="23.8" xlink:href="#linear-gradient"/><linearGradient id="linear-gradient-4" x1="70.88" y1="34.99" x2="-5.67" y2="23.83" xlink:href="#linear-gradient"/><linearGradient id="linear-gradient-5" x1="70.83" y1="35.01" x2="-5.66" y2="23.86" xlink:href="#linear-gradient"/><linearGradient id="linear-gradient-6" x1="70.8" y1="35.03" x2="-5.65" y2="23.89" xlink:href="#linear-gradient"/><linearGradient id="linear-gradient-7" x1="70.76" y1="35.05" x2="-5.63" y2="23.92" xlink:href="#linear-gradient"/><linearGradient id="linear-gradient-8" x1="70.86" y1="34.69" x2="-5.63" y2="23.53" xlink:href="#linear-gradient"/><linearGradient id="linear-gradient-9" x1="72.95" y1="33.58" x2="-6.44" y2="22" xlink:href="#linear-gradient"/><linearGradient id="linear-gradient-10" x1="69.47" y1="33.38" x2="-5.36" y2="22.46" xlink:href="#linear-gradient"/><linearGradient id="linear-gradient-11" x1="70.05" y1="34.24" x2="-4.43" y2="23.38" xlink:href="#linear-gradient"/><linearGradient id="linear-gradient-12" x1="72.3" y1="33" x2="-5.62" y2="21.64" xlink:href="#linear-gradient"/><linearGradient id="linear-gradient-13" x1="72.46" y1="33.8" x2="-6.64" y2="22.27" xlink:href="#linear-gradient"/><linearGradient id="linear-gradient-14" x1="70.62" y1="46.25" x2="-8.79" y2="34.67" xlink:href="#linear-gradient"/><linearGradient id="linear-gradient-15" x1="70.68" y1="46.73" x2="-9.3" y2="35.07" xlink:href="#linear-gradient"/><linearGradient id="linear-gradient-16" x1="75.05" y1="19.77" x2="-5.87" y2="7.97" xlink:href="#linear-gradient"/><linearGradient id="linear-gradient-17" x1="73.09" y1="22.43" x2="-3.76" y2="11.23" xlink:href="#linear-gradient"/><linearGradient id="linear-gradient-18" x1="72.62" y1="33.2" x2="-6.41" y2="21.68" xlink:href="#linear-gradient"/><linearGradient id="linear-gradient-19" x1="70.48" y1="34.16" x2="-5.01" y2="23.15" xlink:href="#linear-gradient"/><linearGradient id="linear-gradient-20" x1="75.34" y1="13.03" x2="-3.1" y2="1.59" xlink:href="#linear-gradient"/><linearGradient id="linear-gradient-21" x1="73.09" y1="23.06" x2="-4" y2="11.82" xlink:href="#linear-gradient"/><linearGradient id="linear-gradient-22" x1="70.74" y1="46.65" x2="-9.51" y2="34.95" xlink:href="#linear-gradient"/><linearGradient id="linear-gradient-23" x1="72.76" y1="34.8" x2="-8.54" y2="22.94" xlink:href="#linear-gradient"/><linearGradient id="linear-gradient-24" x1="72.79" y1="34.71" x2="-8.72" y2="22.83" xlink:href="#linear-gradient"/><linearGradient id="linear-gradient-25" x1="70.89" y1="45.42" x2="-9.23" y2="33.74" xlink:href="#linear-gradient"/><linearGradient id="linear-gradient-26" x1="70.58" y1="47.87" x2="-9.8" y2="36.15" xlink:href="#linear-gradient"/><style>.cls-10{fill:#999}.cls-13{fill:#fff}.cls-18{fill:#f7931e}.cls-32{fill:#fbb03b}</style></defs><g style="isolation:isolate"><g id="图层_2" data-name="图层 2"><g id="Layer_10" data-name="Layer 10"><path fill="url(#linear-gradient)" d="M15.3 27.09l.04-.63h.09l-.04.64 1.27.1.01-.13h.08v.14l.39.04.01-.29.15.02-.02.28.19.01.03-.51.21.02-.03.51.64.06.04-.65.1.01-.03.65 3.05.26.04-.66.11.01-.04.66 1.28.11.14-2.42h.15l-.15 2.43 1.78.16.04-.68.11.01-.04.68 1.6.13.02-.46h.11l-.03.47 1.15.1.04-.76.1.01-.05.76.4.03.04-.68h.12l-.04.69 1.16.11.01-.14.37.03-.01.14.64.05.03-.36.44.03-.03.37.89.08.04-.71.12.01-.04.71 1.26.11-.01.18-1.26-.11-.05.71-.12-.01.05-.71-3.51-.3-.04.69-.11-.02.04-.68-.4-.04-.08 1.23-.09-.01.08-1.23-2.85-.25-.05.68-.11-.01.05-.68-.62-.05-.02.4-.56-.05.02-.4-2.02-.18-.04.66-.11-.01.04-.65-3.06-.27-.03.64-.1-.01.04-.64-2.94-.26-.03.63-.1-.01.04-.63-9.22-.8.01-.16 9.22.8z"/><path fill="url(#linear-gradient-2)" d="M27.59 28.74l-.3-.03.01-.24.3.03-.01.24z"/><path fill="url(#linear-gradient-3)" d="M27.11 28.7l-.3-.03.01-.24.3.03-.01.24z"/><path fill="url(#linear-gradient-4)" d="M26.63 28.65l-.29-.02.01-.24.3.02-.02.24z"/><path fill="url(#linear-gradient-5)" d="M26.16 28.61l-.3-.03.02-.23.29.02-.01.24z"/><path fill="url(#linear-gradient-6)" d="M25.69 28.57l-.29-.03.01-.24.29.03-.01.24z"/><path fill="url(#linear-gradient-7)" d="M25.22 28.53l-.29-.03.02-.24.29.03-.02.24z"/><path fill="url(#linear-gradient-8)" d="M18.55 27.08l2.85.24-.01.13-2.85-.24.01-.13z"/><path class="cls-10" d="M38.61 29.23c0-.23 0-.46.08-.68l-.2-.05c0 .23-.06.47-.07.71a7.72 7.72 0 000 1.18h.2a8.5 8.5 0 01-.01-1.16zM47.46 25.85l.17-.16a5.49 5.49 0 00-1.2-1.33l-.12.21a5.66 5.66 0 011.15 1.28zM39 32.1l-.18.1a6.13 6.13 0 001.88 2.74l.11-.21A5.92 5.92 0 0139 32.1zM48.73 30.18v-.07a7.52 7.52 0 00-.66-3.61l-.19.13a7.18 7.18 0 01.63 3.46v.07zM39.78 25.39l.14.17a4.89 4.89 0 012.44-1.78v-.25a5.17 5.17 0 00-2.58 1.86zM43 23.37v.25a4.78 4.78 0 01.76 0 3.86 3.86 0 01.77.11v-.25a5.32 5.32 0 00-.8-.12 4.25 4.25 0 00-.73.01zM60.09 31.33a1.79 1.79 0 010-.23 21.73 21.73 0 00-2.2-11.22l-.07.05A21.71 21.71 0 0160 31.1v.22zM56.37 17.49l.07-.06a16.51 16.51 0 00-3.84-3.89l-.05.08a16.34 16.34 0 013.82 3.87zM30.62 36.77h-.06a18.69 18.69 0 005.1 8v-.07a18.49 18.49 0 01-5.04-7.93zM29.55 28.44c.05-.67.12-1.32.21-2h-.06c-.09.65-.17 1.31-.21 2a23.86 23.86 0 000 3.28h.06a23.7 23.7 0 010-3.28zM42.26 11.29v.09a12.9 12.9 0 012.34-.27 12.43 12.43 0 012.37.17v-.09a12.59 12.59 0 00-2.36-.19 12.91 12.91 0 00-2.35.29zM33.14 17.64v.06a15.55 15.55 0 017-5.71v-.08a15.61 15.61 0 00-7 5.73z"/><path d="M45.3.08c-12.51 1.1-22.07 13.48-22.92 27.74S29.44 55.7 41.56 58.9c14.17 3.74 28.62-7.9 29.92-26.81S60-1.2 45.3.08zm-3.73 58.66c-12.06-3.17-19.94-16.81-19.09-30.92S32.84 1.32 45.29.24c14.58-1.26 27.31 13 26 31.84S55.66 62.44 41.57 58.74z" fill="url(#linear-gradient-9)"/><path d="M43.45 1.76C31.64 2.78 22.61 14.48 21.8 28s6.67 26.33 18.09 29.33c13.36 3.52 27-7.5 28.2-25.29S57.28.56 43.45 1.76zM39.9 57.13c-11.36-3-18.8-15.84-18-29.17s9.79-25 21.54-26C57.19.74 69.16 14.16 67.92 32S53.18 60.61 39.9 57.13z" fill="url(#linear-gradient-10)"/><path class="cls-13" d="M44.13 18.46c-4.93-.1-9 4.58-9.38 10.43s3.09 11.16 8 11.91c5.17.79 9.94-3.8 10.37-10.31s-3.75-11.93-8.99-12.03zm-1.41 22.21c-4.82-.74-8.23-6-7.87-11.77s4.4-10.42 9.27-10.31c5.17.11 9.26 5.41 8.88 11.89s-5.18 10.97-10.28 10.19z"/><path class="cls-13" d="M42.18 19.81c-4.35-.1-8 4-8.28 9.21s2.72 9.84 7 10.5c4.55.7 8.76-3.35 9.14-9.09s-3.25-10.52-7.86-10.62zm-1.26 19.6C36.68 38.76 33.67 34.13 34 29s3.89-9.2 8.19-9.11c4.56.1 8.15 4.81 7.77 10.5s-4.54 9.7-9.04 9.02z"/><path fill="url(#linear-gradient-11)" d="M33.28 26.73l-.26 2.13.03 2.14.53-.96.12-2.28-.42-1.03z"/><path fill="url(#linear-gradient-12)" d="M54.96 32.92l.32-2.41-.05-2.44-.67 1.09-.15 2.58.55 1.18z"/><path d="M44.28 16.06c-6 0-10.83 5.65-11.26 12.68s3.67 13.45 9.54 14.43c6.3 1.07 12.2-4.48 12.73-12.49s-4.6-14.58-11.01-14.62zM42.57 43c-5.8-1-9.87-7.33-9.44-14.27s5.26-12.58 11.14-12.54c6.33.05 11.4 6.53 10.87 14.46S48.8 44.06 42.57 43z" fill="url(#linear-gradient-13)"/><g style="mix-blend-mode:screen"><path class="cls-18" d="M40 26l-.12-.13a6.6 6.6 0 00-1.15 3.33h.16A6.49 6.49 0 0140 26zM41.13 24.85l-.13-.17a5 5 0 00-.45.38l.1.17a5.2 5.2 0 01.48-.38zM40.49 25.43l-.11-.15c-.13.15-.27.31-.39.47l.12.14c.12-.16.25-.31.38-.46zM40.61 25.31l-.1-.16.11.16s-.02.01-.01 0zM38.93 29.32h-.17a7.39 7.39 0 00.14 1.84h.16a6.5 6.5 0 01-.13-1.84zM40 33.26l-.13.13.12-.13zM39.09 31.22l-.16.06a6.64 6.64 0 00.64 1.72l.14-.11a5.92 5.92 0 01-.62-1.67zM39.77 33l-.14.12.14.21.12-.12zM40.06 33.4l-.12.14a4.94 4.94 0 001.47 1.38l.07-.19a4.72 4.72 0 01-1.42-1.33zM48 28l.17-.06c0-.22-.12-.44-.19-.66l-.17.09c.05.2.12.41.19.63zM42.14 24.28v-.2a4.1 4.1 0 00-1 .53l.08.17a4.33 4.33 0 01.92-.5zM47.75 27.24l.16-.09A5.75 5.75 0 0046.5 25l-.11.17a5.58 5.58 0 011.36 2.07zM48.16 30.06v.34h.18v-.35a7.09 7.09 0 00-.15-2l-.18.06a6.92 6.92 0 01.15 1.95zM46.3 25.09l.11-.17a4.32 4.32 0 00-1.24-.8l-.07.2a4 4 0 011.2.77zM43.78 24a4.23 4.23 0 011.22.27l.06-.2a4.18 4.18 0 00-1.27-.28h-.27V24zM43.25 24v-.2a4.5 4.5 0 00-1 .24v.2a3.81 3.81 0 011-.24zM43.41 24v-.21h-.06V24zM41.57 34.79l-.06.19a5.11 5.11 0 00.67.31v-.21a4.17 4.17 0 01-.61-.29zM43.44 35.31v.21h.23v-.21zM48.11 30.53a2.51 2.51 0 010 .27h.18a2.36 2.36 0 000-.28zM44.72 35.11l.05.21a2.5 2.5 0 00.38-.15l-.06-.2a2.35 2.35 0 01-.37.14zM43.76 35.3v.21a3.87 3.87 0 00.89-.16l-.05-.2a4.07 4.07 0 01-.84.15zM42.48 35.17v.2-.21zM47.83 31.77l.17.08a7.92 7.92 0 00.23-.87l-.18-.05a7.38 7.38 0 01-.22.84zM43.06 35.28a3.07 3.07 0 01-.42-.07v.2a3.11 3.11 0 00.44.08h.28v-.19zM45.19 34.93l.07.2A4.75 4.75 0 0046.75 34l-.12-.16a4.54 4.54 0 01-1.44 1.09zM42.33 35.12v.2h.05v-.2zM46.71 33.75l.13.16A6 6 0 0048 32l-.16-.09a6 6 0 01-1.13 1.84z"/></g><path d="M35.34 38l-5 5.29.1.17 5-5.3z" fill="url(#linear-gradient-14)"/><path d="M50.87 40.42l5.5 7.82.17-.14L51 40.27z" fill="url(#linear-gradient-15)"/><path d="M52.32 20.43l6.51-6.85-.14-.18-6.5 6.86z" fill="url(#linear-gradient-16)"/><path d="M36.6 19.79l-4.34-6.16-.13.15 4.34 6.16z" fill="url(#linear-gradient-17)"/><path class="cls-18" d="M40.09 33l1.37-1.45v.05l.06.09-1.38 1.45zM45 32.08l1.25 1.77-.12.12zM45.36 27.58v-.06L46.78 26l.1.15-1.46 1.54zM40.55 25.72l.11-.13 1.18 1.68-.07.08zM58.54 31a18.5 18.5 0 01-5.16 11.9l.12.17A18.69 18.69 0 0058.73 31a19.5 19.5 0 00-3.59-12.91l-.14.15A19.33 19.33 0 0158.54 31z"/><path class="cls-10" d="M30.6 28.53a19.07 19.07 0 013.95-10.68l-.09-.13a19.22 19.22 0 00-4 10.8 20 20 0 002.63 11.34l.11-.12a19.72 19.72 0 01-2.6-11.21z"/><path d="M59.23 31a19.18 19.18 0 01-5.43 12.5l.22.32a19.6 19.6 0 005.57-12.76 20.47 20.47 0 00-3.83-13.64l-.26.27A20 20 0 0159.23 31z" fill="url(#linear-gradient-18)"/><path d="M30.11 28.49a19.8 19.8 0 014.1-11.12l-.21-.25a20.29 20.29 0 00-4.18 11.35 20.92 20.92 0 002.75 11.89l.2-.21a20.49 20.49 0 01-2.66-11.66z" fill="url(#linear-gradient-19)"/><path class="cls-10" d="M61.89 31.26a22 22 0 01-6.45 14.56l.11.15a22.24 22.24 0 006.52-14.7 23.23 23.23 0 00-4.51-15.74l-.12.13a23 23 0 014.45 15.6zM28.27 28.33A22.87 22.87 0 0133 15.57l-.08-.12a23.16 23.16 0 00-4.72 12.87 23.91 23.91 0 003.1 13.48l.09-.1a23.71 23.71 0 01-3.12-13.37z"/><path class="cls-10" d="M61.41 31.22a21.55 21.55 0 01-6.26 14.19l.1.14a21.66 21.66 0 006.33-14.32 22.67 22.67 0 00-4.37-15.33l-.12.12a22.53 22.53 0 014.32 15.2zM28.59 28.36a22.32 22.32 0 014.59-12.47l-.08-.11a22.47 22.47 0 00-4.62 12.57 23.28 23.28 0 003 13.17l.09-.09a23.22 23.22 0 01-2.98-13.07z"/><path class="cls-13" d="M45.4 23.31L48.24 14h-.07l-2.84 9.29zM38.89 44.56l2.66-8.67-2.65 8.66z"/><path fill="url(#linear-gradient-20)" d="M44.81 7.82l-.73.85-.03.55.72-.84.63.8.04-.56-.63-.8z"/><path fill="url(#linear-gradient-21)" d="M30.39 17.58l.81-.14.25-.41-.81.15-.05-1.06-.25.41.05 1.05z"/><path d="M51.29 42.93a.73.73 0 00-.81.76.94.94 0 00.69 1 .75.75 0 00.82-.76.93.93 0 00-.7-1zm-.11 1.64a.81.81 0 01-.6-.87.64.64 0 01.7-.66.83.83 0 01.61.88.64.64 0 01-.71.65z" fill="url(#linear-gradient-22)"/><path d="M63 32.6a.71.71 0 00-.75.7.78.78 0 00.65.85.72.72 0 00.76-.71.76.76 0 00-.66-.84zm-.07 1.4a.66.66 0 01-.57-.73.62.62 0 01.64-.57.67.67 0 01.57.73.62.62 0 01-.64.57z" fill="url(#linear-gradient-23)"/><path d="M64.9 32.77a.73.73 0 00-.77.71.79.79 0 00.67.86.72.72 0 00.77-.71.79.79 0 00-.67-.86zm-.1 1.46a.67.67 0 01-.57-.74.62.62 0 01.67-.61.68.68 0 01.58.74.63.63 0 01-.68.61z" fill="url(#linear-gradient-24)"/><path d="M50.39 42a.4.4 0 00-.43.42.5.5 0 00.37.54.4.4 0 00.44-.42.5.5 0 00-.38-.54zm0 .9a.45.45 0 01-.33-.48.35.35 0 01.38-.36.45.45 0 01.33.48.35.35 0 01-.43.31z" fill="url(#linear-gradient-25)"/><path d="M52.13 44.69a.39.39 0 00-.44.41.52.52 0 00.38.56.41.41 0 00.45-.41.51.51 0 00-.39-.56zm-.05.9a.45.45 0 01-.34-.48.34.34 0 01.39-.35.45.45 0 01.34.48.34.34 0 01-.39.35z" fill="url(#linear-gradient-26)"/><path class="cls-10" d="M51.26 43.34a.4.4 0 00-.44.4.51.51 0 00.38.54.39.39 0 00.43-.41.48.48 0 00-.37-.53zm-.06.88a.43.43 0 01-.32-.47.33.33 0 01.37-.35.43.43 0 01.33.47.34.34 0 01-.38.35z"/><path class="cls-32" d="M.18 24.39L0 24.38l.04-.74.18.01-.04.74zM2.62 24.57l-.19-.01.04-.76.19.02-.04.75zM5.15 24.76l-.2-.01.05-.77.19.01-.04.77zM7.78 24.96l-.2-.01.05-.79.2.01-.05.79zM10.53 25.17l-.21-.02.04-.8.21.01-.04.81zM13.39 25.38l-.22-.01.04-.82.23.01-.05.82z"/></g></g></g></svg>