<svg xmlns="http://www.w3.org/2000/svg" viewBox="0 0 917.75 660.69"><defs><style>.cls-2{fill:#5fffe8}</style></defs><g id="图层_2" data-name="图层 2"><g opacity=".8" id="央铋_1" data-name="央铋 1"><path class="cls-2" transform="rotate(-1.84 412.812 68.295)" d="M410.96 59.4h3.41v17.66h-3.41z"/><path class="cls-2" transform="rotate(-7.85 393.548 70.346)" d="M391.62 61.48h3.41v17.66h-3.41z"/><path class="cls-2" transform="rotate(-13.86 374.38 74.433)" d="M372.6 65.58h3.41v17.65h-3.41z"/><path class="cls-2" transform="rotate(-19.91 355.812 80.481)" d="M354.11 71.65h3.4v17.66h-3.4z"/><path class="cls-2" transform="rotate(-25.92 338.087 88.443)" d="M336.36 79.61h3.4v17.66h-3.4z"/><path class="cls-2" transform="rotate(-31.87 321.242 98.217)" d="M319.54 89.39h3.4v17.65h-3.4z"/><path class="cls-2" transform="rotate(-37.87 305.537 109.688)" d="M303.84 100.86h3.4v17.66h-3.4z"/><path class="cls-2" transform="rotate(-43.79 291.12 122.752)" d="M289.42 113.92h3.4v17.66h-3.4z"/><path class="cls-2" transform="rotate(-49.88 278.17 137.243)" d="M276.44 128.42h3.4v17.66h-3.4z"/><path class="cls-2" transform="rotate(-56 265.886 152.578)" d="M265.05 144.19h3.41v17.66h-3.41z"/><path class="cls-2" transform="rotate(-61.88 257.053 169.893)" d="M255.37 161.07h3.4v17.65h-3.4z"/><path class="cls-2" transform="rotate(-67.79 249.191 187.682)" d="M247.51 178.86h3.4v17.66h-3.4z"/><path class="cls-2" transform="rotate(-73.84 243.236 206.206)" d="M241.55 197.38h3.41v17.66h-3.41z"/><path class="cls-2" d="M248.25 225.13l-.6 3.34-17.38-3.1.6-3.36 17.38 3.12z"/><path class="cls-2" transform="rotate(-86 236.542 243.954)" d="M235.58 235.77h3.41v17.66h-3.41z"/><path class="cls-2" transform="rotate(-1.83 237.834 264.648)" d="M228.51 262.35h17.65v3.41h-17.65z"/><path class="cls-2" transform="rotate(-7.81 239.397 283.399)" d="M230.59 281.7h17.66v3.4h-17.66z"/><path class="cls-2" d="M251.68 298.65l.82 3.3-17.14 4.23-.82-3.31 17.14-4.22zM257.31 316.3l1.15 3.2-16.6 6-1.16-3.21 16.61-5.99zM264.75 333.27l1.48 3.06-15.88 7.71-1.5-3.07 15.9-7.7zM273.92 349.37l1.8 2.88-15 9.33-1.8-2.9 15-9.31zM284.73 364.42l2.08 2.69-13.93 10.83-2.1-2.69 13.95-10.83zM297.05 378.27l2.35 2.44-12.73 12.23-2.36-2.46 12.74-12.21zM310.75 390.73l2.59 2.2-11.38 13.49-2.6-2.19 11.39-13.5zM325.68 401.71l2.81 1.91-9.91 14.61-2.83-1.91 9.93-14.61zM341.67 411.07l3 1.6-8.33 15.56-3.01-1.6 8.34-15.56zM358.55 418.69l3.15 1.28-6.66 16.35-3.16-1.27 6.67-16.36zM581.08 174.34l-1.48-3.06 15.88-7.7 1.5 3.07-15.9 7.69zM571.9 158.25l-1.79-2.89 14.99-9.32 1.81 2.89-15.01 9.32zM561.1 143.2l-2.08-2.69 13.93-10.83 2.1 2.68-13.95 10.84zM548.78 129.36l-2.36-2.45 12.73-12.24 2.37 2.46-12.74 12.23zM535.08 116.88l-2.6-2.19 11.38-13.5 2.61 2.2-11.39 13.49zM520.15 105.91l-2.81-1.91 9.91-14.61 2.82 1.91-9.92 14.61zM504.16 96.55l-2.99-1.6 8.32-15.57 3.01 1.6-8.34 15.57zM487.28 88.92l-3.15-1.28 6.65-16.35 3.16 1.27-6.66 16.36zM469.69 83.1l-3.26-.95 4.9-16.96 3.28.95-4.92 16.96zM451.59 79.15l-3.34-.61 3.1-17.38 3.36.6-3.12 17.39zM433.18 77.11l-3.39-.25 1.27-17.61 3.4.24-1.28 17.62zM417.01 41.63h3.38V76.7h-3.38z"/><path class="cls-2" transform="rotate(-6 398.257 60.383)" d="M396.73 42.86h3.38v35.07h-3.38z"/><path class="cls-2" transform="rotate(-12 378.413 63.773)" d="M376.68 46.22h3.38v35.07h-3.38z"/><path class="cls-2" transform="rotate(-18.2 356.69 69.918)" d="M357.1 51.65h3.38v35.07h-3.38z"/><path class="cls-2" transform="rotate(-23.96 339.81 76.636)" d="M338.18 59.1h3.38v35.07h-3.38z"/><path class="cls-2" transform="rotate(-29.99 321.884 86.018)" d="M320.16 68.48h3.38v35.07h-3.38z"/><path class="cls-2" transform="rotate(-36.02 304.896 97.238)" d="M303.21 79.69h3.38v35.07h-3.38z"/><path class="cls-2" transform="rotate(-41.91 289.24 110.155)" d="M287.52 92.62h3.38v35.07h-3.38z"/><path class="cls-2" transform="rotate(-47.98 274.953 124.661)" d="M273.28 107.12h3.38v35.07h-3.38z"/><path class="cls-2" transform="rotate(-53.8 262.592 139.88)" d="M260.62 123.02H264v35.07h-3.38z"/><path class="cls-2" transform="rotate(-60 251.41 157.704)" d="M249.7 140.16h3.38v35.07h-3.38z"/><path class="cls-2" transform="rotate(-65.91 242.338 175.892)" d="M240.63 158.35h3.38v35.07h-3.38z"/><path class="cls-2" transform="rotate(-71.97 235.186 194.925)" d="M233.51 177.39h3.38v35.07h-3.38z"/><path class="cls-2" d="M247.62 216.6l-.71 3.31-34.3-7.3.7-3.3 34.31 7.29zM244.72 234.85l-.35 3.37-34.88-3.67.35-3.35 34.88 3.65z"/><path class="cls-2" transform="rotate(-90 225.975 254.995)" d="M224.53 237.47h3.38v35.07h-3.38z"/><path class="cls-2" transform="rotate(-5.93 227.527 275.352)" d="M209.92 273.61h35.07v3.38h-35.07z"/><path class="cls-2" transform="rotate(-11.9 230.805 295.34)" d="M213.28 293.66h35.07v3.38h-35.07z"/><path class="cls-2" transform="rotate(-17.99 236.27 314.945)" d="M218.7 313.24h35.07v3.38H218.7z"/><path class="cls-2" d="M259.03 325.16l1.36 3.09-32.03 14.27-1.38-3.09 32.05-14.27zM267.42 341.63l1.68 2.93-30.37 17.54-1.68-2.92 30.37-17.55zM277.49 357.14l1.98 2.74-28.37 20.61-1.98-2.73 28.37-20.62z"/><path class="cls-2" transform="rotate(-42.3 274.19 383.895)" d="M259.68 382.81h35.07v3.38h-35.07z"/><path class="cls-2" d="M302.19 384.58l2.51 2.27-23.46 26.07-2.51-2.27 23.46-26.07z"/><path class="cls-2" transform="rotate(-53.87 307.65 411.416)" d="M290.08 409.71h35.07v3.38h-35.07z"/><path class="cls-2" d="M332.06 406.29l2.93 1.69-17.53 30.38-2.93-1.7 17.53-30.37z"/><path class="cls-2" transform="rotate(-65.88 342.974 431.403)" d="M325.41 429.7h35.07v3.38h-35.07z"/><path class="cls-2" d="M573.36 165.02l-1.68-2.92 30.36-17.55 1.68 2.93-30.36 17.54zM563.29 149.51l-1.98-2.73 28.36-20.62 1.98 2.74-28.36 20.61zM551.65 135.15l-2.25-2.51 26.05-23.48 2.26 2.52-26.06 23.47zM538.58 122.07l-2.5-2.26 23.45-26.07 2.51 2.27-23.46 26.06zM524.22 110.44l-2.73-1.99 20.6-28.38 2.73 1.99-20.6 28.38zM508.71 100.37l-2.92-1.7 17.52-30.37 2.93 1.69-17.53 30.38zM492.24 91.97l-3.08-1.37 14.25-32.05 3.09 1.38-14.26 32.04zM474.98 85.35l-3.21-1.05 10.82-33.36 3.22 1.05-10.83 33.36zM457.12 80.56l-3.3-.71 7.28-34.3 3.31.71-7.29 34.3zM438.86 77.66l-3.35-.35 3.64-34.88 3.37.36-3.66 34.87zM640 253c0 47.16-11.44 86.69-30.63 118.59l-5.33-3.36c-.92 1.52-1.85 3-2.81 4.51l5.25 3.5q-5.4 8.43-11.5 16.11c-1.65-1.32-3.28-2.64-4.93-3.95-1.07 1.35-2.17 2.69-3.28 4l4.83 4.07a204.18 204.18 0 01-74.07 55.13c-.91-1.88-1.82-3.75-2.72-5.63-1.54.68-3.08 1.35-4.63 2 .86 1.9 1.72 3.79 2.59 5.69a238.74 238.74 0 01-93.11 17.93c0-2.06 0-4.13.05-6.19-1.69 0-3.38 0-5.07-.09-.07 2.06-.13 4.13-.2 6.19a237 237 0 01-89.17-19.89q1.37-2.81 2.72-5.63-2.29-1-4.58-2.1-1.43 2.79-2.86 5.57c-34.13-16.11-64.06-41-85.2-74.75l5.27-3.45c-.94-1.5-1.87-3-2.77-4.55l-5.35 3.3a201.11 201.11 0 01-12.5-25.13l5.71-2.6q-1.07-2.58-2.07-5.2l-5.77 2.45c-9.65-25.24-15.07-54.09-15.07-86.56h-25.91c0 36.32 6.07 68.59 16.86 96.82l-7.87 3.35q1.2 3.14 2.47 6.19l7.78-3.55a224.64 224.64 0 0014 28.08l-7.3 4.52c1.08 1.83 2.17 3.64 3.3 5.42l7.19-4.7c23.65 37.71 57.13 65.58 95.31 83.62l-3.9 7.59c1.81.85 3.63 1.69 5.46 2.5q1.84-3.84 3.71-7.68a265 265 0 0099.75 22.25l-.27 8.44c2 .06 4 .09 6 .11l.06-8.45a267.22 267.22 0 00104.15-20.06l3.53 7.76c1.84-.77 3.69-1.56 5.52-2.38-1.25-2.55-2.48-5.11-3.72-7.67 31.52-14 60.07-34.55 82.85-61.67l6.58 5.55c1.32-1.58 2.62-3.17 3.9-4.79l-6.71-5.38a216.13 216.13 0 0012.87-18l7.16 4.76c1.13-1.77 2.25-3.56 3.34-5.38l-7.27-4.58c21.46-35.68 34.27-79.9 34.27-132.65zm-459.65 7.62l19.15-.61c.73 30.13 6.13 57.09 15.22 80.89l-17.83 7.59c-9.89-25.89-15.74-55.18-16.53-87.91zm18.88 93.77l17.65-8.06a204.67 204.67 0 0012.7 25.5L213 382a221.85 221.85 0 01-13.76-27.65zm16.94 32.86l16.3-10.66c21.47 34.23 51.86 59.53 86.52 75.9l-8.83 17.22c-37.65-17.82-70.66-45.31-93.98-82.5zm99.19 84.84q4.22-8.7 8.42-17.41a240.66 240.66 0 0090.56 20.21q-.32 9.57-.62 19.14a261.36 261.36 0 01-98.35-21.98zm104.12 22l.15-19.16a242.43 242.43 0 0094.55-18.2l8 17.58a263.34 263.34 0 01-102.69 19.78zm108-22q-4.22-8.7-8.42-17.41a207.54 207.54 0 0075.21-56l14.92 12.57c-22.49 26.75-50.65 47-81.74 60.8zm85.43-65.38L597.7 394.5a196.18 196.18 0 0011.68-16.36l16.22 10.8a216.47 216.47 0 01-12.72 17.73zm49.58-146.09c-1.18 48.67-13.58 89.74-33.71 123.19q-8.22-5.19-16.46-10.39c18.52-30.8 29.94-68.6 31-113.41z"/><path class="cls-2" d="M202.81 253c0-47.16 11.44-86.69 30.63-118.59l5.33 3.36c.92-1.52 1.85-3 2.81-4.52l-5.25-3.49a191.84 191.84 0 0111.5-16.11l4.92 4a189.1 189.1 0 013.28-4l-4.82-4.08a204.46 204.46 0 0174.06-55.13c.92 1.89 1.82 3.76 2.73 5.64 1.54-.68 3.08-1.35 4.63-2q-1.29-2.85-2.59-5.7a238.7 238.7 0 0193.11-17.93v6.2q2.53 0 5.07.09c.06-2.07.13-4.13.19-6.2a237 237 0 0189.18 19.89L514.81 60q2.31 1 4.58 2.09 1.44-2.77 2.86-5.57c34.13 16.12 64.07 41 85.21 74.75l-5.27 3.46q1.41 2.25 2.77 4.55l5.35-3.32a201.7 201.7 0 0112.5 25.1l-5.71 2.61c.71 1.71 1.4 3.45 2.07 5.2l5.77-2.45C634.58 191.63 640 220.49 640 253h25.92c0-36.32-6.07-68.6-16.86-96.83l7.87-3.34c-.8-2.09-1.62-4.15-2.47-6.2l-7.78 3.56a224 224 0 00-14-28.08l7.3-4.52q-1.62-2.74-3.3-5.43l-7.19 4.71c-23.65-37.72-57.13-65.59-95.31-83.62l3.9-7.59c-1.81-.85-3.63-1.69-5.46-2.5q-1.86 3.84-3.71 7.68a265.06 265.06 0 00-99.72-22.29l.27-8.44c-2-.06-4-.1-6-.11 0 2.82 0 5.63-.07 8.45a266.81 266.81 0 00-104.18 20.06l-3.53-7.76q-2.78 1.16-5.52 2.37l3.72 7.68c-31.53 14-60.08 34.54-82.85 61.66l-6.58-5.54c-1.32 1.57-2.62 3.17-3.91 4.78l6.71 5.39a220.87 220.87 0 00-12.87 18l-7.15-4.77a210.84 210.84 0 00-3.34 5.39l7.26 4.58C189.69 156 176.89 200.2 176.89 253zm459.64-7.62l-19.14.61c-.73-30.13-6.13-57.1-15.22-80.89l17.83-7.59c9.88 25.81 15.75 55.1 16.53 87.83zm-18.88-93.77l-17.65 8.05a203.8 203.8 0 00-12.69-25.49l16.56-10.25a221.81 221.81 0 0113.78 27.65zm-16.93-32.86l-16.3 10.66c-21.47-34.24-51.87-59.54-86.53-75.9l8.84-17.22c37.65 17.71 70.67 45.23 93.99 82.42zm-99.19-84.88L519 51.27a240.75 240.75 0 00-90.55-20.2q.3-9.57.61-19.14a261.36 261.36 0 0198.39 21.94zm-104.12-22c-.06 6.39-.1 12.77-.16 19.16a242.57 242.57 0 00-94.54 18.21l-8-17.58a263.53 263.53 0 01102.7-19.84zm-108 22l8.43 17.4a207.6 207.6 0 00-75.22 56l-14.88-12.59c22.46-26.74 50.61-47.01 81.7-60.81zm-85.39 65.37l15.21 12.22a196.11 196.11 0 00-11.69 16.35L217.25 117a211.78 211.78 0 0112.69-17.76zm-49.58 146.1c1.17-48.67 13.58-89.74 33.7-123.2l16.47 10.39c-18.52 30.81-29.94 68.61-31 113.42z"/><path class="cls-2" d="M421.41 407.62c-85.28 0-154.66-69.38-154.66-154.66S336.13 98.3 421.41 98.3 576.07 167.68 576.07 253s-69.38 154.62-154.66 154.62zm0-307.63c-84.35 0-153 68.62-153 153s68.62 153 153 153 153-68.63 153-153S505.75 100 421.41 100zm0 304.25c-83.41 0-151.28-67.87-151.28-151.24S338 101.68 421.41 101.68 572.69 169.54 572.69 253s-67.87 151.24-151.28 151.24zm0-300.87c-82.48 0-149.59 67.11-149.59 149.59s67.11 149.59 149.59 149.59S571 335.44 571 253s-67.11-149.63-149.59-149.63z"/><path class="cls-2" d="M421.41 381.7A128.89 128.89 0 01292.67 253c0-71 57.75-128.73 128.74-128.73S550.15 182 550.15 253s-57.76 128.7-128.74 128.7zm0-255.79A127 127 0 10548.46 253a127.19 127.19 0 00-127.05-127.09zm0 252.41A125.36 125.36 0 11546.77 253a125.5 125.5 0 01-125.36 125.32zm0-249A123.67 123.67 0 10545.07 253a123.8 123.8 0 00-123.66-123.7z"/><path class="cls-2" d="M603.72 566.72c-103.26 0-187.28-84-187.28-187.28s84-187.28 187.28-187.28S791 276.17 791 379.44s-84 187.28-187.28 187.28zm0-371.18c-101.4 0-183.9 82.49-183.9 183.9s82.5 183.9 183.9 183.9 183.9-82.5 183.9-183.9-82.5-183.9-183.9-183.9z"/><path class="cls-2" d="M603.72 511.2C531.07 511.2 472 452.09 472 379.44s59.11-131.77 131.76-131.77 131.76 59.11 131.76 131.77-59.14 131.76-131.8 131.76zm0-260.15c-70.79 0-128.38 57.6-128.38 128.39a128.38 128.38 0 10256.76 0c0-70.79-57.59-128.39-128.38-128.39z"/><path class="cls-2" d="M417 660.69c-77.77 0-141-63.28-141-141.05s63.27-141 141-141 141 63.28 141 141.05-63.21 141-141 141zm0-280.41c-76.84 0-139.35 62.52-139.35 139.36S340.17 659 417 659s139.36-62.52 139.36-139.36S493.86 380.28 417 380.28z"/><path class="cls-2" d="M418.7 660.69a99.11 99.11 0 1199.11-99.11 99.22 99.22 0 01-99.11 99.11zm0-196.53a97.42 97.42 0 1097.42 97.42 97.53 97.53 0 00-97.42-97.42zM753.5 225.85H541.75v-2.54h210.7l71.76-71.76h73.28v2.54h-72.23l-71.76 71.76zM200.71 474.44h-66.03l-38.53-38.53H5.9v-2.54h91.3l38.53 38.53h63.93L419.5 252.07l1.79 1.78-220.58 220.59zM308.79 203.22H112.7l-34.66-34.66H31.25v-2.54h47.84l34.66 34.66h195.04v2.54zM911.85 537.55H747.73l-58.15-58.16 1.79-1.8 57.41 57.42h163.07v2.54z"/><path class="cls-2" d="M683.68 477.59a5.9 5.9 0 115.89 5.9 5.89 5.89 0 01-5.89-5.9zM538.35 224.7a5.9 5.9 0 115.9 5.9 5.9 5.9 0 01-5.9-5.9zM746.74 224.7a5.9 5.9 0 115.89 5.9 5.9 5.9 0 01-5.89-5.9zM819.06 154a5.9 5.9 0 115.89 5.89 5.9 5.9 0 01-5.89-5.89zM722.51 517.1a5.9 5.9 0 115.9 5.89 5.9 5.9 0 01-5.9-5.89zM742 536.6a5.9 5.9 0 115.89 5.9 5.89 5.89 0 01-5.89-5.9zM891.59 152.74a5.9 5.9 0 115.89 5.89 5.9 5.9 0 01-5.89-5.89zM415.51 253a5.9 5.9 0 115.9 5.89 5.9 5.9 0 01-5.9-5.89zM326.14 341.91a5.9 5.9 0 115.9 5.89 5.9 5.9 0 01-5.9-5.89zM307.45 360a5.9 5.9 0 115.89 5.89 5.9 5.9 0 01-5.89-5.89zM257.16 411.4a5.9 5.9 0 115.9 5.9 5.9 5.9 0 01-5.9-5.9zM239.18 428.23a5.9 5.9 0 115.89 5.89 5.9 5.9 0 01-5.89-5.89zM194.39 472.46a5.9 5.9 0 115.89 5.9 5.89 5.89 0 01-5.89-5.9zM129.17 472.46a5.9 5.9 0 115.9 5.9 5.9 5.9 0 01-5.9-5.9zM90.72 434.43a5.9 5.9 0 115.9 5.9 5.89 5.89 0 01-5.9-5.9zM299.64 202a5.9 5.9 0 115.9 5.9 5.9 5.9 0 01-5.9-5.9zM272.24 202a5.9 5.9 0 115.9 5.9 5.9 5.9 0 01-5.9-5.9zM200.82 202a5.9 5.9 0 115.89 5.9 5.89 5.89 0 01-5.89-5.9zM176.89 202a5.9 5.9 0 115.9 5.9 5.9 5.9 0 01-5.9-5.9zM107.59 202a5.9 5.9 0 115.9 5.9 5.9 5.9 0 01-5.9-5.9zM72.66 167.22a5.9 5.9 0 115.9 5.89 5.9 5.9 0 01-5.9-5.89zM25.35 167.22a5.9 5.9 0 115.9 5.89 5.9 5.9 0 01-5.9-5.89zM0 434.43a5.9 5.9 0 115.9 5.9 5.89 5.89 0 01-5.9-5.9zM906 536.47a5.9 5.9 0 115.89 5.89 5.9 5.9 0 01-5.89-5.89z"/></g></g></svg>