<svg xmlns="http://www.w3.org/2000/svg" viewBox="0 0 43.15 48.37"><defs><style>.cls-1{fill:#f5492a}.cls-2{fill:#c2c2c2}</style></defs><g id="图层_2" data-name="图层 2"><g id="Layer_1" data-name="Layer 1"><path class="cls-1" transform="rotate(-30 13.558 6.873)" d="M4.05 6.57h19.03v.59H4.05z"/><path class="cls-1" transform="rotate(-30 7.403 22.604)" d="M6.8 11.94h1.18v21.32H6.8z"/><path class="cls-2" d="M19.05 48.37l-8.52-4.92 5.37-9.29L2.53 11l19-11 19 11-13.28 23.16 5.37 9.29-8.52 4.92L21.57 44zm2.52-5.56l2.75 4.75 7.49-4.33-5.24-9.07 13.25-22.95L21.58.68 3.33 11.21l13.25 22.95-5.24 9.07 7.49 4.33z"/><path class="cls-2" d="M13.72 29.79l-.3-.51 8.15-4.71 8.16 4.71-.3.51-7.86-4.54-7.85 4.54z"/><path class="cls-2" d="M19.05 48.37l-19-11v-22h26.69l5.37-9.29L40.62 11l-2.52 4.37h5v9.84H32.42zM.59 37l18.24 10.56 13.25-22.94h10.48V16h-5.48l2.74-4.75-7.5-4.32L27.08 16H.59z"/><path class="cls-2" d="M29.43 29.79l-8.15-4.71v-9.41h.59v9.07l7.86 4.54-.3.51z"/><path class="cls-2" d="M24.1 48.37L10.73 25.21H0v-9.84h5.05L2.53 11 11 6.08l5.37 9.29h26.78v22l-.15.08zM.59 24.62h10.48l13.25 22.94L42.56 37V16H16.07l-5.24-9.11-7.5 4.32L6.07 16H.59z"/><path class="cls-2" d="M13.72 29.79l-.3-.51 7.86-4.54v-9.07h.59v9.41l-8.15 4.71z"/></g></g></svg>