<svg xmlns="http://www.w3.org/2000/svg" viewBox="0 0 31.06 28.28"><defs><style>.cls-1{fill:#69bffe}</style></defs><g id="图层_2" data-name="图层 2"><g id="央铋_1" data-name="央铋 1"><path class="cls-1" d="M6.67 28.28c-.2-.14-.4-.28-.59-.43l4.69-6.1.3.22zM5 26.92c-.36-.33-.69-.67-1-1l5.73-5.14c.17.19.34.36.52.53zm-1.95-2.15q-.44-.59-.81-1.2l6.58-4c.13.21.27.41.41.61zm-1.5-2.48Q1.24 21.65 1 21l7.21-2.7c.08.23.18.45.28.67zm-1-2.71c-.13-.46-.23-.93-.32-1.41l7.59-1.31c0 .25.09.48.15.71zm-.5-2.85v-1.45l7.7.13v.73zm7.69-2.06l-7.65-.82c.05-.48.13-1 .22-1.43L7.85 14c-.05.19-.08.43-.11.67zm15.55-.27a5.57 5.57 0 00-.14-.71l7.49-1.8c.11.47.2.95.27 1.43zM8 13.24L.67 11c.14-.46.3-.92.48-1.36l7.12 2.91c-.09.23-.17.45-.27.69zM23 13c-.08-.23-.17-.46-.27-.68l7-3.16a13 13 0 01.53 1.35zM8.58 11.9L1.77 8.33a12 12 0 01.73-1.25L9 11.27a6.5 6.5 0 00-.42.63zm13.77-.24a8.04 8.04 0 00-.39-.62l6.31-4.4A13.11 13.11 0 0129 7.86zm-13-1l-6-4.77c.3-.37.62-.74 1-1.09l5.57 5.31c-.23.19-.39.37-.54.56zm12.14-.2a8.63 8.63 0 00-.5-.54l5.39-5.5c.34.34.67.69 1 1.06zm-11.1-.85l-5.06-5.8q.55-.48 1.14-.9L11 9.16a6.26 6.26 0 00-.61.45zm10.08-.17a6.46 6.46 0 00-.59-.44l4.28-6.39c.4.27.79.56 1.17.86zm-8.9-.68L7.68 2.12c.42-.24.85-.47 1.28-.67l3.26 7c-.22.07-.44.19-.65.31zm7.69-.13a6.65 6.65 0 00-.66-.32l3-7.08c.44.19.88.4 1.3.63zm-6.37-.49L10.3.9a16 16 0 011.39-.43l1.9 7.46c-.24.07-.47.13-.7.21zm5-.08a5.71 5.71 0 00-.71-.19L18.86.35c.47.1.94.23 1.39.37zm-3.59-.28L13.11.18c.48-.07 1-.13 1.44-.16L15 7.7zm2.2 0c-.24 0-.49 0-.74-.06L16 0a14 14 0 011.44.11zM31.06 15.53h-7.69v-.37l7.69-.37v.74z"/></g></g></svg>