<svg xmlns="http://www.w3.org/2000/svg" viewBox="0 0 57.39 37.42"><defs><style>.cls-1{fill:#ff7000}.cls-2{fill:#00b8de}</style></defs><g id="图层_2" data-name="图层 2"><g id="Layer_1" data-name="Layer 1"><path class="cls-1" d="M28.62.34h.15v3.27h-.15zM28.62 33.84h.15v3.09h-.15z"/><path class="cls-1" d="M28.69 3.14a15.57 15.57 0 1015.57 15.57A15.57 15.57 0 0028.69 3.14zm0 30.61a15 15 0 1115.05-15 15 15 0 01-15.05 15z"/><path class="cls-1" d="M14.25 4.37L18.83 9a1.14 1.14 0 01.11-.11l-4.58-4.63zm27.27 9.06l6-2.5-.06-.15-6 2.51zm-26.7 5.28v-.08H8.34v.16h6.49s-.01-.05-.01-.08zM43.14 4.37L43 4.26l-4.55 4.59.1.11zm-27.22 8.92l-6-2.51-.06.15 6 2.5s.04-.1.06-.14zm25.54 10.84l6 2.5.06-.14-6-2.5zm1.1-5.5v.16h6.49v-.16zm-4.11 9.94L43 33.16l.11-.11-4.59-4.59zm-24.2 4.48l.11.11 4.58-4.59-.11-.11zM15.87 24l-6 2.5.06.14 6-2.5s-.04-.14-.06-.14z"/><path class="cls-2" d="M1.58 18.71A27 27 0 019.08 0h1.19a.71.71 0 00-.15.15 26.16 26.16 0 00-7.69 18.56 26.12 26.12 0 007.69 18.56l.15.15H9.08a25.82 25.82 0 01-1.81-2.09 27 27 0 01-5.69-16.62zM48.29 0a27 27 0 017.5 18.71 27 27 0 01-7.5 18.71h-1.2l.15-.15a26.13 26.13 0 007.7-18.56A26.13 26.13 0 0047.24.15a.53.53 0 00-.15-.15z"/><path class="cls-2" d="M0 18.71A28.54 28.54 0 016.92 0h1.73a27.28 27.28 0 00-7.39 18.71A27.24 27.24 0 007 35.52a24.58 24.58 0 001.62 1.9h-1.7c-.29-.36-.61-.73-.89-1.11a28.51 28.51 0 01-6-17.6zM50.44 0a28.5 28.5 0 016.93 18.71 28.53 28.53 0 01-6.93 18.71h-1.73a27.3 27.3 0 007.4-18.71A27.25 27.25 0 0048.71 0z"/><path class="cls-2" d="M2.86 18.71A25.71 25.71 0 0110.42.45c.15-.15.3-.3.47-.45h1.26c-.39.34-.77.68-1.13 1a24.91 24.91 0 00-7.31 17.71A24.9 24.9 0 0011 36.37c.36.37.74.71 1.13 1.05h-1.24c-.17-.15-.32-.3-.47-.45a25.73 25.73 0 01-7.56-18.26zM46.48 0c.17.15.32.3.47.45a25.76 25.76 0 017.56 18.26A25.77 25.77 0 0147 37c-.15.15-.3.3-.47.45h-1.31c.38-.34.77-.68 1.13-1.05a24.9 24.9 0 007.31-17.66A24.91 24.91 0 0046.35 1C46 .68 45.6.34 45.22 0z"/><path class="cls-2" d="M4.13 18.71a24.47 24.47 0 017.21-17.37c.47-.47 1-.91 1.47-1.34h.89a21.74 21.74 0 00-2 1.75 23.93 23.93 0 00-7 17 23.86 23.86 0 005 14.7 24.94 24.94 0 002 2.24 22 22 0 002 1.77h-.89a18.79 18.79 0 01-1.47-1.36 26.43 26.43 0 01-2.05-2.31 24.47 24.47 0 01-5.16-15zM44.56 0c.51.43 1 .87 1.47 1.34a24.5 24.5 0 017.2 17.37A24.42 24.42 0 0146 36.06a18.79 18.79 0 01-1.47 1.36h-.9a20.8 20.8 0 002-1.77 23.89 23.89 0 007-16.94 24 24 0 00-7-17 20.59 20.59 0 00-2-1.75z"/><path class="cls-2" d="M5.37 18.71a23.17 23.17 0 016.84-16.47A22.88 22.88 0 0114.79 0h.49a22.06 22.06 0 00-2.88 2.43 23 23 0 00-6.73 16.28 22.83 22.83 0 004.84 14.13A22.37 22.37 0 0012.4 35a25.7 25.7 0 002.88 2.43h-.49a22.88 22.88 0 01-2.58-2.24A23.63 23.63 0 0110.27 33a23.26 23.26 0 01-4.9-14.3zM42.58 0a24.79 24.79 0 012.58 2.24A23.21 23.21 0 0152 18.71a23.27 23.27 0 01-6.84 16.47 24.79 24.79 0 01-2.58 2.24h-.49A24.74 24.74 0 0045 35a23 23 0 006.7-16.29A23 23 0 0045 2.43 21.33 21.33 0 0042.09 0z"/><path class="cls-2" d="M6.48 18.71A22.11 22.11 0 0113 3a20.93 20.93 0 013.75-3H17a21.48 21.48 0 00-3.9 3.11 22 22 0 00-6.47 15.6 22 22 0 004.64 13.53 21.31 21.31 0 001.83 2.07 23.88 23.88 0 003.9 3.11h-.25a21.9 21.9 0 01-3.75-3 22.79 22.79 0 01-1.84-2.08 22.16 22.16 0 01-4.68-13.63zM40.64 0a21.29 21.29 0 013.75 3 22.15 22.15 0 016.5 15.71 22.17 22.17 0 01-10.25 18.71h-.26a23.06 23.06 0 003.9-3.11 21.94 21.94 0 006.48-15.6 21.94 21.94 0 00-6.48-15.6A20.82 20.82 0 0040.38 0z"/></g></g></svg>