<svg xmlns="http://www.w3.org/2000/svg" viewBox="0 0 90.3 88.68"><defs><style>.cls-1{fill:#fff}</style></defs><g id="图层_2" data-name="图层 2"><g id="Elements"><path class="cls-1" d="M45.15 88.14A43.18 43.18 0 1188.33 45a43.23 43.23 0 01-43.18 43.14zm0-85.36A42.18 42.18 0 1087.33 45 42.23 42.23 0 0045.15 2.78z"/><path class="cls-1" d="M33.88 88.68A45.15 45.15 0 0119 8.18l2.9 4.07a40.15 40.15 0 0013.23 71.59zM83.66 33.6a40.15 40.15 0 00-16.88-22.47l2.69-4.21a45.15 45.15 0 0119 25.27zM74.2 79.52L71 75.69a40.12 40.12 0 0014.3-30.44h5a45.14 45.14 0 01-16.1 34.27zM57.16 6.64l-1.22-.36A40.54 40.54 0 0048.87 5l.46-5a44.71 44.71 0 018 1.47c.46.12.92.26 1.37.4z"/></g></g></svg>