<svg xmlns="http://www.w3.org/2000/svg" viewBox="0 0 44.51 47.5"><defs><style>.cls-2{mix-blend-mode:screen}.cls-3{fill:#fff}</style></defs><g style="isolation:isolate"><g id="图层_2" data-name="图层 2"><g id="Elements"><g class="cls-2"><path class="cls-3" d="M35.48 24.25h9.03v1.5h-9.03z"/></g><g class="cls-2"><path class="cls-3" transform="rotate(-15.01 39.3 19.695)" d="M34.79 18.95h9.03v1.5h-9.03z"/></g><g class="cls-2"><path class="cls-3" transform="rotate(-30 37.264 14.765)" d="M32.74 14.01h9.03v1.5h-9.03z"/></g><g class="cls-2"><path class="cls-3" transform="rotate(-45 33.997 10.518)" d="M29.48 9.76h9.03v1.5h-9.03z"/></g><g class="cls-2"><path class="cls-3" transform="rotate(-60 29.756 7.26)" d="M25.24 6.51h9.03v1.5h-9.03z"/></g><g class="cls-2"><path class="cls-3" transform="rotate(-75 24.723 5.185)" d="M20.3 4.46h9.03v1.5H20.3z"/></g><g class="cls-2"><path class="cls-3" d="M18.76 0h1.5v9.03h-1.5z"/></g><g class="cls-2"><path class="cls-3" transform="rotate(-14.99 15.237 9.08)" d="M14.5 8.56H16v1.03h-1.5z"/></g><g class="cls-2"><path class="cls-3" transform="rotate(-29.99 11.15 10.509)" d="M10.4 9.75h1.5v1.53h-1.5z"/></g><g class="cls-2"><path class="cls-3" transform="rotate(-45 7.502 12.993)" d="M6.76 11.98h1.5V14h-1.5z"/></g><g class="cls-2"><path class="cls-3" transform="rotate(-60 4.595 16.382)" d="M3.84 15.12h1.5v2.53h-1.5z"/></g><g class="cls-2"><path class="cls-3" transform="rotate(-74.99 2.627 20.475)" d="M1.87 18.96h1.5v3.03h-1.5z"/></g><g class="cls-2"><path class="cls-3" d="M.01 24.25h3.53v1.5H.01z"/></g><g class="cls-2"><path class="cls-3" transform="rotate(-15 2.119 29.471)" d="M.13 28.9h4.03v1.5H.13z"/></g><g class="cls-2"><path class="cls-3" transform="matrix(.87 -.5 .5 .87 -16.56 6.44)" d="M1.47 33.36h4.52v1.5H1.47z"/></g><g class="cls-2"><path class="cls-3" transform="rotate(-45 6.449 38.069)" d="M3.94 37.32h5.02v1.5H3.94z"/></g><g class="cls-2"><path class="cls-3" transform="rotate(-60 10.146 41.226)" d="M7.39 40.47h5.53v1.5H7.39z"/></g><g class="cls-2"><path class="cls-3" transform="rotate(-74.99 14.603 43.34)" d="M11.58 42.59h6.03v1.5h-6.03z"/></g><g class="cls-2"><path class="cls-3" d="M18.76 40.97h1.5v6.53h-1.5z"/></g><g class="cls-2"><path class="cls-3" transform="rotate(-15 24.563 43.803)" d="M23.81 40.31h1.5v7.03h-1.5z"/></g><g class="cls-2"><path class="cls-3" transform="matrix(.87 -.5 .5 .87 -17.11 20.33)" d="M28.63 38.33h1.5v7.53h-1.5z"/></g><g class="cls-2"><path class="cls-3" transform="rotate(-45 33.646 39.124)" d="M32.89 35.12h1.5v8.02h-1.5z"/></g><g class="cls-2"><path class="cls-3" transform="rotate(-60 36.932 35.052)" d="M36.18 30.91h1.5v8.28h-1.5z"/></g><g class="cls-2"><path class="cls-3" transform="rotate(-75 39.063 30.233)" d="M38.31 25.97h1.5v8.53h-1.5z"/></g></g></g></g></svg>