<svg xmlns="http://www.w3.org/2000/svg" viewBox="0 0 36.82 331.65"><defs><style>.cls-1{fill:#065977}</style></defs><g id="图层_2" data-name="图层 2"><g id="Layer_1" data-name="Layer 1"><path class="cls-1" d="M.22 326.9l15.36 4.53.52-1.8-15.43-4.3-.45 1.57z"/><path class="cls-1" d="M0 327l15.71 4.62.61-2.15-15.77-4.36zm15.87 2.72l-.41 1.46-15-4.43.35-1.23zM8.84 325.8l7.73 2.09.35-1.3-7.74-2.06-.34 1.27z"/><path class="cls-1" d="M8.62 325.93l8.08 2.19.44-1.66-8.09-2.15zm.69-1.18l7.39 2-.26 1-7.38-2zM9.63 322.83l7.75 2.02.33-1.31-7.76-1.98-.32 1.27z"/><path class="cls-1" d="M9.41 323l8.1 2.1.42-1.65-8.1-2.07zm.67-1.18l7.41 1.89-.24.95-7.4-1.92zM10.38 319.86l7.77 1.94.33-1.3-7.77-1.92-.33 1.28z"/><path class="cls-1" d="M10.16 320l8.12 2 .42-1.65-8.12-2zm.68-1.19l7.42 1.83-.24.95-7.42-1.86zM11.12 316.87l7.78 1.89.31-1.3-7.78-1.87-.31 1.28z"/><path class="cls-1" d="M10.9 317l8.1 2 .4-1.66-8.14-1.94zm.66-1.19l7.44 1.78-.23 1-7.44-1.8zM4.05 312.02l15.59 3.66.4-1.74-15.6-3.61-.39 1.69z"/><path class="cls-1" d="M3.83 312.15l16 3.75.47-2.09-16-3.69zm16 1.93l-.31 1.39-15.25-3.59.3-1.33zM12.63 310.44l7.8 1.78.3-1.3-7.81-1.76-.29 1.28z"/><path class="cls-1" d="M12.41 310.58l8.16 1.86.38-1.66-8.17-1.78zm.64-1.2l7.47 1.67-.22 1-7.46-1.7zM13.3 307.45l7.82 1.73.28-1.31-7.82-1.71-.28 1.29z"/><path class="cls-1" d="M13.09 307.58l8.17 1.81.36-1.66-8.18-1.73zm.63-1.2l7.47 1.62-.19 1-7.47-1.65zM13.95 304.44l7.83 1.69.28-1.31-7.83-1.66-.28 1.28z"/><path class="cls-1" d="M13.74 304.58l8.18 1.77.36-1.66-8.19-1.69zm.63-1.21l7.48 1.63-.21 1-7.47-1.61zM14.59 301.44l7.84 1.64.27-1.31-7.84-1.62-.27 1.29z"/><path class="cls-1" d="M14.38 301.58l8.19 1.72.34-1.67-8.19-1.69zm.62-1.22l7.49 1.55-.2 1-7.48-1.57zM7.37 296.8l15.69 3.19.36-1.74-15.7-3.15-.35 1.7z"/><path class="cls-1" d="M7.16 296.94l16 3.27.43-2.1-16-3.22zm.7-1.63l15.35 3.08-.29 1.39-15.34-3.13zM15.91 294.97l7.86 1.55.25-1.31-7.86-1.53-.25 1.29z"/><path class="cls-1" d="M15.7 295.11l8.21 1.63.32-1.67-8.23-1.6zm.6-1.22l7.51 1.47-.19.95-7.5-1.48zM16.49 291.95l7.86 1.52.26-1.31-7.87-1.5-.25 1.29z"/><path class="cls-1" d="M16.28 292.1l8.22 1.58.32-1.67-8.22-1.56zm.6-1.23l7.51 1.43-.18 1-7.51-1.45zM17.07 288.94l7.87 1.47.25-1.31-7.88-1.46-.24 1.3z"/><path class="cls-1" d="M16.86 289.08l8.22 1.54.32-1.62-8.23-1.52zm.6-1.23l7.54 1.39-.18 1-7.52-1.4zM17.62 285.92l7.88 1.43.23-1.31-7.88-1.42-.23 1.3z"/><path class="cls-1" d="M17.41 286.06l8.24 1.5.29-1.67-8.23-1.48zm.59-1.23l7.53 1.35-.17 1-7.53-1.37zM10.28 281.46l15.77 2.79.32-1.75-15.78-2.75-.31 1.71z"/><path class="cls-1" d="M10.44 279.55l-.36 2.06 16.12 2.85.38-2.11-16-2.78zm15.72 3.1l-.25 1.35-15.42-2.73.24-1.35zM18.78 279.42l7.89 1.35.22-1.32-7.9-1.33-.21 1.3z"/><path class="cls-1" d="M18.57 279.56l8.25 1.44.27-1.67-8.24-1.4zm.57-1.24l7.54 1.28-.16 1-7.52-1.33zM19.28 276.38l7.9 1.32.21-1.32-7.9-1.29-.21 1.29z"/><path class="cls-1" d="M19.07 276.53l8.26 1.38.27-1.67-8.26-1.36zm.57-1.24l7.55 1.24-.16 1-7.54-1.25zM19.78 273.35l7.9 1.28.22-1.31-7.91-1.26-.21 1.29z"/><path class="cls-1" d="M19.57 273.5l8.26 1.34.28-1.67-8.27-1.32zm.57-1.24l7.55 1.21-.15 1L20 273.2zM20.27 270.32l7.91 1.24.2-1.32-7.91-1.22-.2 1.3z"/><path class="cls-1" d="M20.07 270.47l8.26 1.3.25-1.68-8.26-1.28zm.55-1.25l7.55 1.17-.14 1-7.56-1.19zM12.82 266.04l15.83 2.41.26-1.76-15.84-2.36-.25 1.71z"/><path class="cls-1" d="M12.61 266.19l16.19 2.47.32-2.12-16.2-2.42zm.62-1.66l15.48 2.32-.21 1.4-15.5-2.36zM21.25 263.79l7.93 1.17.19-1.32-7.92-1.15-.2 1.3z"/><path class="cls-1" d="M21.05 263.94l8.28 1.22.25-1.67-8.28-1.2zm.55-1.25l7.57 1.1-.15 1-7.56-1.11zM21.7 260.75l7.93 1.13.18-1.32-7.93-1.11-.18 1.3z"/><path class="cls-1" d="M21.5 260.91l8.28 1.17.23-1.67-8.29-1.16zm.53-1.26l7.58 1.06-.14 1-7.57-1.11zM22.11 257.71l7.94 1.09.18-1.32-7.94-1.08-.18 1.31z"/><path class="cls-1" d="M21.91 257.86L30.2 259l.23-1.67-8.29-1.13zm.54-1.25l7.57 1-.13 1-7.57-1.05zM22.53 254.66l7.93 1.06.18-1.32-7.94-1.04-.17 1.3z"/><path class="cls-1" d="M22.33 254.82l8.29 1.1.23-1.67-8.3-1.09zm.53-1.26l7.58 1-.13 1-7.58-1zM15 250.56l15.89 2.04.21-1.76-15.89-2-.21 1.72z"/><path class="cls-1" d="M14.8 250.72l16.2 2.09.26-2.12-16.24-2.05zm.57-1.68l15.53 2-.17 1.4-15.53-2zM23.37 248.12l7.94.98.16-1.32-7.95-.97-.15 1.31z"/><path class="cls-1" d="M23.17 248.27l8.3 1 .2-1.68-8.3-1zm.51-1.26l7.59.92-.11 1-7.59-.93zM23.73 245.07l7.95.94.16-1.32-7.95-.93-.16 1.31z"/><path class="cls-1" d="M23.53 245.22l8.31 1 .2-1.68-8.3-1zm.52-1.26l7.59.89-.11 1-7.6-.9zM24.1 242.02l7.96.91.16-1.33-7.96-.89-.16 1.31z"/><path class="cls-1" d="M23.9 242.17l8.32 1 .19-1.68-8.31-.94zm.51-1.26l7.6.85-.11 1-7.6-.87zM24.44 238.96l7.96.88.14-1.33-7.96-.86-.14 1.31z"/><path class="cls-1" d="M24.24 239.12l8.32.92.18-1.69-8.32-.9zm.5-1.27l7.6.82-.1 1-7.6-.84zM16.8 235.03l15.93 1.68.18-1.77-15.93-1.64-.18 1.73z"/><path class="cls-1" d="M16.6 235.19l16.29 1.72.22-2.13-16.29-1.67zm.54-1.69l15.57 1.61-.14 1.4L17 234.87zM25.13 232.4l7.97.8.13-1.33-7.96-.78-.14 1.31z"/><path class="cls-1" d="M24.93 232.56l8.33.83.17-1.68-8.32-.82zm.5-1.28L33 232l-.1 1-7.61-.76zM25.44 229.34l7.97.77.12-1.33-7.97-.75-.12 1.31z"/><path class="cls-1" d="M25.25 229.5l8.33.8.14-1.68-8.33-.79zm.47-1.28l7.61.72-.08 1-7.61-.73zM25.71 226.28l7.98.73.11-1.32-7.97-.72-.12 1.31z"/><path class="cls-1" d="M25.52 226.44l8.33.77.15-1.69-8.34-.75zm.47-1.28l7.62.69-.09 1-7.61-.7zM25.98 223.22l7.98.7.12-1.33-7.98-.68-.12 1.31z"/><path class="cls-1" d="M25.79 223.38l8.33.73.15-1.68-8.33-.72zm.47-1.28l7.62.65-.08 1-7.62-.66zM18.28 219.46l15.96 1.32.15-1.77-15.96-1.28-.15 1.73z"/><path class="cls-1" d="M18.27 217.54l-.19 2.09L34.22 221h.18l.19-2.13-16.15-1.3zm.32.39l15.61 1.25-.13 1.41-15.6-1.29zM26.54 216.64l7.98.62.1-1.32-7.99-.61-.09 1.31z"/><path class="cls-1" d="M26.35 216.81l8.34.65.12-1.69-8.35-.64zm.45-1.29l7.62.58-.06 1-7.63-.59zM26.76 213.58l7.98.58.1-1.32-7.99-.58-.09 1.32z"/><path class="cls-1" d="M26.56 213.74l8.35.62.12-1.69-8.35-.6zm.46-1.28l7.63.54-.07 1-7.58-.59zM26.98 210.51l7.99.55.09-1.32-7.99-.54-.09 1.31z"/><path class="cls-1" d="M26.78 210.68l8.35.58.12-1.69-8.35-.57zm.46-1.29l7.63.51-.07 1-7.63-.53zM27.2 207.45l7.99.52.09-1.33-7.99-.51-.09 1.32z"/><path class="cls-1" d="M27 207.62l8.35.54.12-1.69-8.35-.53zm.46-1.29l7.63.47-.07 1-7.63-.49zM19.39 203.86l15.99.97.09-1.78-15.99-.92-.09 1.73z"/><path class="cls-1" d="M19.2 204l16.17 1h.18l.11-2.14-16.35-.94zm.46-1.71l15.62.9-.07 1.42-15.63-.94zM27.57 200.86l8 .44.07-1.33-8-.43-.07 1.32z"/><path class="cls-1" d="M27.38 201l8.36.46.09-1.69-8.36-.45zm.43-1.3l7.64.41-.05 1-7.64-.42zM27.74 197.79l7.99.4.08-1.32-8-.4-.07 1.32z"/><path class="cls-1" d="M27.55 198l8.36.42.09-1.69-8.36-.4zm.43-1.3l7.64.38-.06 1-7.63-.39zM27.94 194.06v.66l8 .37v-1.33l-8-.35s.06.33 0 .65z"/><path class="cls-1" d="M27.71 194.89l8.36.39.09-1.69-8.36-.37zm.43-1.3l7.64.34-.05 1-7.64-.35zM28.03 191.65l8 .34.05-1.33-8-.32-.05 1.31z"/><path class="cls-1" d="M27.85 191.82l8.36.35.06-1.69-8.37-.33zm.4-1.3l7.64.31v1l-7.64-.32zM20.14 188.25l16 .59.07-1.77-16.01-.56-.06 1.74z"/><path class="cls-1" d="M20 188.42l16.37.61.07-2.13-16.44-.57zm.42-1.72l15.65.54-.07 1.42-15.64-.59zM28.27 185.06l8 .25.05-1.33-8.01-.24-.04 1.32z"/><path class="cls-1" d="M28.08 185.23l8.36.27.06-1.69-8.36-.26zm.41-1.31l7.64.24v1l-7.65-.25zM28.37 181.98l8.01.23.04-1.33-8-.21-.05 1.31z"/><path class="cls-1" d="M28.19 182.16l8.36.23.06-1.69-8.36-.22zm.4-1.31l7.65.2v1l-7.65-.21zM28.45 178.91l8 .19.03-1.33-8.01-.17-.02 1.31z"/><path class="cls-1" d="M28.27 179.09l8.36.2v-1.7l-8.37-.18zm.38-1.31l7.64.17v1l-7.65-.18zM28.5 175.84l8.01.15.02-1.33-8.01-.14-.02 1.32z"/><path class="cls-1" d="M28.32 176l8.36.16v-1.7l-8.37-.14zm.38-1.31l7.64.13v1l-7.65-.15zM20.54 172.62l16.02.23.03-1.78-16.02-.19-.03 1.74z"/><path class="cls-1" d="M20.36 172.8l16.37.23v-2.14l-16.38-.19zm.39-1.74l15.65.19v1.42l-15.65-.23zM28.61 169.24l8.01.08.02-1.34-8.01-.06-.02 1.32z"/><path class="cls-1" d="M28.42 169.42l8.37.08v-1.7l-8.37-.06zm.39-1.31h7.64v1l-7.65-.07zM28.63 164.85v1.32l8.01.04v-1.33l-8.01-.03z"/><path class="cls-1" d="M28.45 164.67v1.68h8.37v-1.65zm.36 1.32v-1h7.65v1zM28.62 161.78v1.32h8.01v-1.33l-8.01.01z"/><path class="cls-1" d="M28.44 161.6v1.68h8.37v-1.69zm.36 1.32v-1h7.65v1zM28.61 158.71v1.31l8.01-.03v-1.33l-8.01.05z"/><path class="cls-1" d="M28.43 158.53v1.67h8.37v-1.69zm.36 1.31v-1h7.65v1zM20.59 155.25v1.74l16.02-.15-.01-1.77-16.01.18z"/><path class="cls-1" d="M20.41 155.07v2.1l16.38-.17v-2.14zm.36 1.73v-1.37l15.65-.18v1.42zM28.55 152.1l.03 1.32 8.01-.11-.03-1.33-8.01.12z"/><path class="cls-1" d="M28.37 151.93v1.67l8.37-.11-.05-1.69zm.39 1.31v-1l7.64-.12v1zM28.48 149.03l.03 1.32 8.01-.15-.04-1.33-8 .16z"/><path class="cls-1" d="M28.29 148.86v1.67l8.37-.15v-1.69zm.4 1.31v-1l7.65-.16v1zM28.4 145.96l.03 1.32 8.01-.19-.03-1.33-8.01.2z"/><path class="cls-1" d="M28.22 145.79v1.67l8.36-.19v-1.69zm.39 1.31v-1l7.64-.19v1zM28.33 142.89l.03 1.32 8.01-.23-.04-1.33-8 .24z"/><path class="cls-1" d="M28.15 142.72v1.67l8.36-.23v-1.69zm.39 1.3v-1l7.65-.23v1zM36.24 139.06l-16 .57v1.73l16-.52v-.89c.02-.44 0-.89 0-.89z"/><path class="cls-1" d="M36.42 139.05v-.17l-16.36.57v2.1l16.41-.55v-1.06c-.03-.44-.05-.89-.05-.89zm-16 2.12v-.68-.69l15.65-.55v1.42zM28.1 136.29l.06 1.32 8-.3-.06-1.33-8 .31z"/><path class="cls-1" d="M27.91 136.12l.09 1.68 8.36-.32-.08-1.69zm.42 1.3v-.95l7.64-.31v1zM27.96 133.23l.06 1.31 8-.34-.06-1.33-8 .36z"/><path class="cls-1" d="M27.77 133.05l.08 1.68 8.36-.36-.08-1.69zm.42 1.3v-.95l7.64-.34v1zM27.82 130.16l.06 1.31 8-.38-.07-1.33-7.99.4z"/><path class="cls-1" d="M27.63 130l.08 1.67 8.35-.4-.06-1.7zm.42 1.29v-.95l7.63-.38v1zM27.68 127.09l.06 1.31 7.99-.41-.06-1.33-7.99.43z"/><path class="cls-1" d="M27.49 126.92l.08 1.67 8.35-.43-.07-1.69zm.42 1.29v-1l7.63-.42v1zM19.48 124.02l.12 1.73 15.99-.91-.12-1.77-15.99.95z"/><path class="cls-1" d="M19.29 123.85l.14 2.09 16.35-.94-.14-2.13zm.48 1.71l-.1-1.37 15.63-.93.1 1.41zM27.27 120.5l.09 1.31 7.99-.5-.09-1.33-7.99.52z"/><path class="cls-1" d="M27.08 120.33l.11 1.67 8.35-.52-.11-1.69zm.45 1.29l-.07-1 7.63-.49.07 1zM27.06 117.43l.09 1.32 7.99-.54-.09-1.33-7.99.55z"/><path class="cls-1" d="M26.87 117.27l.11 1.67 8.35-.56-.12-1.69zm.45 1.29l-.07-1 7.63-.53.07 1zM26.85 114.37l.09 1.31 7.99-.57-.09-1.33-7.99.59z"/><path class="cls-1" d="M26.66 114.2l.11 1.67 8.35-.6-.12-1.68zm.45 1.29l-.07-.95 7.63-.57.06 1zM26.64 111.3l.09 1.32 7.99-.62-.1-1.33-7.98.63z"/><path class="cls-1" d="M26.45 111.14l.11 1.67 8.35-.64-.12-1.69zm.45 1.28l-.07-1 7.63-.6.06 1zM18.35 108.44l.16 1.73 15.96-1.3-.16-1.77-15.96 1.34z"/><path class="cls-1" d="M18.16 108.28l.19 2.08L34.67 109l-.2-2.13zm.51 1.69l-.12-1.36 15.6-1.32.13 1.41zM26.05 104.73l.12 1.31 7.98-.7-.12-1.32-7.98.71z"/><path class="cls-1" d="M25.86 104.56l.15 1.67 8.34-.72-.16-1.69zm.48 1.28l-.09-1 7.62-.68.09 1zM25.77 101.67l.12 1.31 7.98-.73-.13-1.33-7.97.75z"/><path class="cls-1" d="M25.58 101.51l.15 1.67 8.33-.77-.15-1.69zm.48 1.27l-.09-1 7.61-.72.09 1zM25.49 98.61l.12 1.31 7.97-.77-.12-1.33-7.97.79z"/><path class="cls-1" d="M25.3 98.45l.15 1.67 8.33-.81-.16-1.69zm.48 1.27l-.09-1L33.3 98l.09 1zM33.17 94.72l-8 .83.06.66.06.65 8-.81-.06-.67c-.02-.33-.06-.66-.06-.66z"/><path class="cls-1" d="M25.12 95.38l-.1.15v.08c0 .09 0 .35.06.61l.08.84 8.32-.85-.07-.84c0-.22-.05-.45-.06-.59l.26-.29zm.38 1.28l-.05-.47v-.48l7.6-.79c0 .13 0 .3.05.48v.49zM16.84 92.9l.2 1.72 15.92-1.7-.2-1.77-15.92 1.75z"/><path class="cls-1" d="M16.64 92.74l.24 2.08 16.28-1.74-.25-2.08zm.56 1.68l-.2-1.36 15.6-1.71.16 1.41zM24.45 88.99l.15 1.31 7.95-.9-.15-1.32-7.95.91z"/><path class="cls-1" d="M24.25 88.84l.19 1.66 8.31-.94-.19-1.68zm.5 1.26l-.11-.95 7.6-.87.11 1zM24.09 85.94l.15 1.31 7.95-.94-.15-1.32-7.95.95z"/><path class="cls-1" d="M23.89 85.78l.19 1.67 8.31-1-.19-1.68zm.51 1.27l-.11-1 7.59-.91.12 1zM23.73 82.89l.16 1.31 7.95-.98-.16-1.33-7.95 1z"/><path class="cls-1" d="M23.54 82.73l.19 1.67 8.31-1-.2-1.69zM24 84l-.11-1 7.59-1 .12 1zM31.3 78.81l-7.94 1s.05.33.09.65l.08.66 8-1-.08-.66z"/><path class="cls-1" d="M23.16 79.68l.21 1.67 8.31-1.07-.22-1.67zm.53 1.26l-.12-.94 7.58-1 .13 1zM14.93 77.41l.24 1.71 15.88-2.11-.25-1.76-15.87 2.16z"/><path class="cls-1" d="M14.72 77.25l.3 2.07 16.23-2.16L31 75zm.61 1.67l-.2-1.36 15.51-2.11.2 1.4zM22.43 73.3l.19 1.31 7.93-1.11-.19-1.32-7.93 1.12z"/><path class="cls-1" d="M22.23 73.15l.24 1.66 8.28-1.15-.23-1.66zm.54 1.25l-.13-.94 7.57-1.07.14 1zM22 70.26l.19 1.3 7.92-1.14-.19-1.32L22 70.26z"/><path class="cls-1" d="M21.8 70.11l.2 1.66 8.29-1.2-.24-1.67zm.54 1.25l-.13-1 7.56-1.11.14 1zM21.57 67.22l.18 1.3 7.92-1.18-.18-1.32-7.92 1.2z"/><path class="cls-1" d="M21.37 67.07l.23 1.66 8.28-1.24-.24-1.68zm.54 1.25l-.14-.95 7.56-1.15.14 1zM29 62.94l-7.91 1.24s.05.33.11.65.1.65.1.65l7.92-1.22s0-.33-.11-.66-.11-.66-.11-.66z"/><path class="cls-1" d="M29.31 63.57l-.14-.83L20.9 64l.14.83c.06.32.1.65.1.65v.18l8.27-1.28v-.18s-.04-.3-.1-.63zm-7.84 1.71c0-.13 0-.3-.07-.48l-.08-.47 7.55-1.18.09.48c0 .18.05.35.07.48zM12.62 61.98l.28 1.7 15.82-2.53-.3-1.75-15.8 2.58z"/><path class="cls-1" d="M12.41 61.83l.35 2.06 16.17-2.59-.36-2.11zm.64 1.65l-.23-1.36 15.45-2.52.24 1.4zM20.01 57.67l.22 1.3 7.9-1.31-.22-1.32-7.9 1.33z"/><path class="cls-1" d="M19.8 57.53l.28 1.65 8.26-1.37-.29-1.68zm.58 1.23l-.16-.94 7.54-1.27.16 1zM19.5 54.64l.22 1.3 7.89-1.35-.22-1.32-7.89 1.37z"/><path class="cls-1" d="M19.29 54.5l.28 1.65 8.25-1.42-.28-1.67zm.58 1.23l-.16-.94 7.53-1.31.16 1zM18.99 51.61l.22 1.3 7.88-1.39-.22-1.32-7.88 1.41z"/><path class="cls-1" d="M18.78 51.47l.28 1.65 8.24-1.46L27 50zm.57 1.23l-.16-.94 7.53-1.35.16 1zM26.32 47.14l-7.87 1.45.12.65c.07.32.12.64.12.64l7.88-1.43s-.05-.33-.12-.66-.13-.65-.13-.65z"/><path class="cls-1" d="M26.63 47.76l-.17-.83-8.23 1.52.17.82.12.64v.18l8.06-1.47v-.18h.16c-.01-.14-.06-.44-.11-.68zm-7.79 1.91c0-.12-.05-.29-.09-.47l-.09-.47 7.52-1.39.09.49c0 .17.07.35.09.47zM9.89 46.61l.34 1.7 15.74-2.96-.34-1.75-15.74 3.01z"/><path class="cls-1" d="M9.68 46.47l.41 2.05 16.09-3-.41-2.1zm.69 1.63l-.26-1.34 15.37-2.94.28 1.39zM17.17 42.11l.25 1.3 7.86-1.53-.25-1.31-7.86 1.54z"/><path class="cls-1" d="M17 42l.32 1.65L25.5 42l-.33-1.66zm.61 1.22l-.19-.94 7.5-1.47.19 1zM16.57 39.1l.26 1.29 7.85-1.57-.26-1.31-7.85 1.59z"/><path class="cls-1" d="M16.36 39l.33 1.64 8.2-1.64-.32-1.66zm.64 1.18l-.18-.94 7.49-1.52.19 1zM15.98 36.09l.25 1.29 7.85-1.61-.26-1.31-7.84 1.63z"/><path class="cls-1" d="M15.77 36l.32 1.64 8.2-1.68-.29-1.72zm.61 1.21l-.19-.94 7.49-1.55.19.95zM23.19 31.41l-7.83 1.67s.07.32.15.64.13.64.13.64l7.84-1.65s-.06-.33-.14-.65z"/><path class="cls-1" d="M23.33 31.19l-8.18 1.75.18.82c.08.31.13.63.13.63v.19l8.08-1.71c.05-.07.07-.09-.1-.8zm-7.55 3c0-.13-.06-.3-.1-.47l-.1-.47 7.48-1.59.1.48c.05.17.08.35.11.47zM6.76 31.34l.38 1.68 15.65-3.39-.39-1.74-15.64 3.45z"/><path class="cls-1" d="M6.54 31.2l.46 2 16-3.47-.48-2.09zm.74 1.61L7 31.47l15.29-3.36.32 1.38zM13.9 26.64l.29 1.28 7.82-1.74-.3-1.3-7.81 1.76z"/><path class="cls-1" d="M13.69 26.5l.37 1.64 8.16-1.83-.37-1.65zm.64 1.21l-.21-.94 7.46-1.68.21.95zM13.22 23.64l.29 1.29 7.81-1.79-.3-1.3-7.8 1.8z"/><path class="cls-1" d="M13 23.51l.37 1.63 8.15-1.87-.37-1.65zm.64 1.2l-.21-.93 7.45-1.73.21.95zM12.54 20.64l.29 1.29 7.8-1.83-.3-1.3-7.79 1.84z"/><path class="cls-1" d="M12.33 20.51l.37 1.64 8.14-1.92-.37-1.65zm.64 1.2l-.21-.93L20.2 19l.21.95zM19.63 15.76l-7.78 1.89s.09.32.16.64l.14.64 7.79-1.87s-.07-.32-.15-.65-.16-.65-.16-.65z"/><path class="cls-1" d="M19.8 15.71v-.16l-8.13 2v.18s.08.31.15.63l.19.82 8.13-2-.14-.81c-.11-.37-.2-.66-.2-.66zm-7.51 3l-.11-.47c0-.17-.08-.34-.11-.47L19.5 16c0 .12.08.29.12.47l.1.48zM3.19 16.16l.44 1.67L19.18 14l-.45-1.72-15.54 3.88z"/><path class="cls-1" d="M3 16l.53 2 15.9-3.92-.54-2.07zm.79 1.59l-.35-1.33 15.19-3.8.37 1.41zM10.2 11.26l.33 1.28 7.76-1.97-.33-1.29-7.76 1.98z"/><path class="cls-1" d="M10 11.13l.42 1.62 8.11-2.05-.42-1.64zm.68 1.19l-.24-.93 7.41-1.9.24.95zM9.43 8.29l.33 1.27 7.75-2.01-.33-1.29-7.75 2.03z"/><path class="cls-1" d="M9.21 8.16l.42 1.62 8.1-2.1L17.31 6zm.68 1.18l-.24-.93 7.4-1.93.24.94zM8.66 5.31l.33 1.28 7.74-2.06-.33-1.29-7.74 2.07z"/><path class="cls-1" d="M8.45 5.18l.41 1.63L17 4.66 16.53 3zm.67 1.19l-.24-.93 7.39-2 .24 1zM7.9 2.34l.33 1.27 7.72-2.1-.33-1.29L7.9 2.34z"/><path class="cls-1" d="M7.68 2.21l.42 1.62 8.07-2.19L15.75 0zm.67 1.18l-.23-.93 7.37-2 .25 1z"/></g></g></svg>