<svg xmlns="http://www.w3.org/2000/svg" viewBox="0 0 145.89 136.91"><defs><style>.cls-1,.cls-2{fill:#00b8de}.cls-2,.cls-3,.cls-4,.cls-5{fill-rule:evenodd}.cls-3{fill:#007d98}.cls-4{fill:#009dbe}.cls-5{fill:#ff7000}</style></defs><g id="图层_2" data-name="图层 2"><g id="Layer_1" data-name="Layer 1"><path class="cls-1" d="M14.37 38.08c.51-1 1.05-1.95 1.58-2.9s1.26-2.08 1.92-3.09a66.25 66.25 0 0112-13.55l-3.31-5.77-.22-.38.32-.28c.88-.73 1.73-1.39 2.64-2.09S31.05 8.73 32 8.1A73 73 0 0147.29.16L47.7 0l.22.38 3.34 5.77c.82-.29 1.64-.57 2.52-.82s2-.6 3-.85A66.33 66.33 0 0173 2.49a64.2 64.2 0 0111.34 1c.57.09 1.17.19 1.8.31a64.1 64.1 0 018.54 2.37L97.94.38l.23-.38.44.16c1.07.41 2.11.82 3.12 1.26s2 .91 3.09 1.42a73.17 73.17 0 0114.43 9.27l.35.28-.22.38-3.31 5.77c.79.69 1.58 1.38 2.33 2.11s1.74 1.7 2.56 2.55a67.36 67.36 0 0110.56 14.88h7.75l.16.32c.57 1.26 1.1 2.55 1.64 3.91s1 2.64 1.39 4a72.55 72.55 0 013.43 22.16 72.12 72.12 0 01-1.67 15.6c-.19.82-.38 1.64-.6 2.43a70.48 70.48 0 01-4.19 12l-.16.32h-7.75c-.51 1-1 2-1.61 2.9s-1.26 2.08-1.92 3.09a66.1 66.1 0 01-11.92 13.55l3.31 5.77.22.38-.35.28c-.85.73-1.73 1.39-2.61 2.08s-1.8 1.3-2.71 1.93a74.67 74.67 0 01-15.32 7.94l-.44.16-.23-.38-3.31-5.74c-.82.29-1.67.54-2.52.82-1 .29-2 .57-3 .82a66.75 66.75 0 01-16.17 2 67.27 67.27 0 01-11.38-1c-.57-.09-1.17-.19-1.8-.32a65.37 65.37 0 01-8.51-2.33l-3.34 5.74-.22.38-.41-.16c-1.08-.38-2.12-.82-3.16-1.26s-2.05-.91-3.05-1.39a71.13 71.13 0 01-14.47-9.3l-.35-.28.25-.38 3.31-5.77c-.79-.66-1.57-1.38-2.36-2.11s-1.71-1.67-2.53-2.55a64.79 64.79 0 01-10.55-14.86H6.59l-.13-.32c-.6-1.26-1.13-2.51-1.64-3.91s-1-2.64-1.42-4A73.73 73.73 0 010 68.47a73.12 73.12 0 011.67-15.64c.16-.82.38-1.63.57-2.42a74.26 74.26 0 014.22-12l.13-.32h7.78zm2.49-2.36c-.59 1-1.16 2.08-1.7 3.12l-.16.28H7.28a72.51 72.51 0 00-4 11.54c-.22.82-.41 1.61-.57 2.39A71.29 71.29 0 001 68.44a72.52 72.52 0 003.41 21.84c.44 1.33.89 2.65 1.39 3.94s1 2.37 1.48 3.57H15l.16.28A66.21 66.21 0 0025.69 113c.82.85 1.64 1.7 2.52 2.52s1.74 1.61 2.62 2.37l.35.28-.22.38-3.31 5.74a69.3 69.3 0 0013.9 8.85c1 .51 2 .95 3 1.39s1.8.76 2.68 1.11l3.34-5.74.23-.38.4.13a61.14 61.14 0 008.8 2.45c.54.1 1.13.23 1.76.32a65.52 65.52 0 0011.2 1 65 65 0 0015.92-2c1-.25 2-.5 2.93-.79s1.92-.63 2.9-1l.41-.13.22.38 3.31 5.74a72.18 72.18 0 0014.68-7.62c.88-.63 1.79-1.26 2.68-1.93s1.48-1.16 2.24-1.76l-3.31-5.74-.22-.38.31-.28a64.43 64.43 0 0012.07-13.65c.67-1 1.3-2 1.9-3s1.16-2.08 1.73-3.12l.13-.28h7.75a70.54 70.54 0 004-11.54l.57-2.4a73.12 73.12 0 001.64-15.38 71.3 71.3 0 00-3.37-21.81c-.41-1.36-.88-2.68-1.39-4s-.94-2.36-1.45-3.53h-7.75l-.13-.31a65.18 65.18 0 00-10.56-14.91c-.79-.85-1.64-1.71-2.49-2.49S116 19.83 115 19l-.35-.28.26-.38 3.31-5.74a71.66 71.66 0 00-13.91-8.86c-1-.47-2-.94-3-1.38-.89-.38-1.8-.76-2.68-1.11L95.33 7l-.22.41-.41-.16a69.48 69.48 0 00-8.8-2.46c-.57-.09-1.13-.22-1.76-.31A65.76 65.76 0 0073 3.53a64.18 64.18 0 00-16 1.99c-1 .25-2 .5-3 .82s-1.89.6-2.87.94l-.4.16-.17-.44-3.34-5.71A73.59 73.59 0 0032.56 9c-.91.6-1.79 1.23-2.68 1.9s-1.51 1.1-2.23 1.74L31 18.38l.22.38-.35.28a64.7 64.7 0 00-12.11 13.65c-.67.98-1.3 1.99-1.9 3.03z"/><path class="cls-1" d="M10.94 68.47a62 62 0 0162-62 62 62 0 0162 62 62 62 0 01-62 62 62 62 0 01-62-62zm.5 0A61.51 61.51 0 0073 129.94a61.46 61.46 0 0061.47-61.47A61.46 61.46 0 0073 7a61.51 61.51 0 00-61.51 61.5z"/><path class="cls-1" d="M108.79 106.64c-1.33 1.23-2.68 2.4-4.13 3.5a46 46 0 01-4.48 3.06A52 52 0 0173 120.86a51.94 51.94 0 01-19.61-3.81c-1-.41-2-.82-2.93-1.29a51.83 51.83 0 01-13.31-9.12l-.25-.22H109l-.22.22zM104.5 110c1.36-1 2.65-2.12 3.88-3.28H37.51a51.33 51.33 0 0013 8.86c.95.47 1.93.88 2.9 1.29A52.22 52.22 0 0073 120.58a51.93 51.93 0 0027.11-7.6q2.26-1.41 4.39-2.98zM75.15 16.11c1.83.09 3.63.25 5.4.5a50.35 50.35 0 015.2 1 52.25 52.25 0 0123 12.61l.22.22H75V16.11zm5.39.76c-1.73-.26-3.5-.41-5.26-.51v13.87h33.1a51.94 51.94 0 00-22.67-12.32 45.49 45.49 0 00-5.17-1.04zM37.1 30.26c1.23-1.19 2.56-2.26 3.9-3.34A46.55 46.55 0 0145.21 24a52.29 52.29 0 0125.5-7.91h.12v14.39h-34l.25-.22zm4-3.12c-1.26 1-2.46 2-3.66 3.09h33.1V16.36a52 52 0 00-25.25 7.85c-1.41.91-2.8 1.89-4.15 2.93zM3.94 68.34c0-1.29 0-2.55.13-3.81h2.52c-.07 1.26-.1 2.52-.1 3.81zM4.1 64c.06-1.16.19-2.36.31-3.56H7c-.16 1.2-.26 2.4-.35 3.56zm.41-4.32c.12-1.1.31-2.2.5-3.3H7.6c-.22 1.1-.38 2.2-.54 3.3zm.69-4.31c.19-1 .41-2 .66-3h2.62c-.25 1-.47 2-.69 3zm1-4.39l.09-.37c.19-.76.41-1.49.63-2.24h2.69l-.06.19c-.25.78-.5 1.61-.72 2.42zm1.3-4.42c.22-.66.48-1.35.73-2.05h2.71c-.25.7-.51 1.39-.76 2.05zM9.24 42a10.65 10.65 0 01.56-1.32h2.78c-.22.44-.41.88-.6 1.32zM15.57 68.47A57 57 0 0119 49c.37-1 .75-2 1.16-2.93a57 57 0 018.24-13.73l.07-.09h88.93l.09.09c1.13 1.39 2.18 2.81 3.18 4.29s1.9 3 2.75 4.6a57.07 57.07 0 016.87 27.24A56.91 56.91 0 01126.88 88c-.34 1-.72 2-1.13 2.93a57.92 57.92 0 01-8.26 13.68l-.06.1h-89l-.07-.1c-1.1-1.35-2.17-2.8-3.15-4.28a53.67 53.67 0 01-2.78-4.61 57 57 0 01-6.87-27.2zm.51 0a56.9 56.9 0 006.81 27q1.27 2.33 2.74 4.54a51.08 51.08 0 003.09 4.17h88.45a57.06 57.06 0 008.11-13.47c.41-1 .78-1.92 1.13-2.9a56.82 56.82 0 003.37-19.32 56.51 56.51 0 00-6.81-27q-1.27-2.31-2.74-4.54c-.94-1.41-2-2.83-3.06-4.16H28.72a55.79 55.79 0 00-8.1 13.46c-.41 1-.79 2-1.17 2.94a56.56 56.56 0 00-3.37 19.28z"/><path class="cls-1" d="M72.54 117.8h.79v10.34h-.79z"/><path class="cls-2" d="M31.08 110.87l-.56-.54 3.68-3.69.54.57-3.66 3.66zM33.35 113.01l-.6-.53 3.5-3.85.57.51-3.47 3.87zM35.72 115.03l-.6-.5 3.28-4.04.59.51-3.27 4.03zM38.21 116.89l-.63-.44 3.05-4.23.64.48-3.06 4.19zM40.79 118.66l-.63-.44 2.84-4.36.63.45-2.84 4.35zM43.47 120.26l-.66-.37 2.58-4.51.7.38-2.62 4.5zM46.21 121.75l-.69-.35 2.36-4.63.7.34-2.37 4.64zM49.05 123.07l-.72-.32 2.14-4.76.69.32-2.11 4.76zM51.95 124.24l-.72-.29 1.86-4.85.72.28-1.86 4.86zM54.88 125.28l-.72-.26 1.61-4.94.72.25-1.61 4.95zM57.88 126.13l-.76-.19 1.36-5.05.75.22-1.35 5.02zM60.94 126.82l-.76-.16 1.07-5.07.76.16-1.07 5.07zM63.99 127.39l-.75-.13.82-5.14.75.13-.82 5.14zM67.08 127.77l-.75-.07.53-5.17.79.07-.57 5.17zM70.2 127.99l-.78-.03.28-5.21.79.07-.29 5.17zM76.44 127.96l-.78.03-.25-5.17.75-.07.28 5.21zM79.57 127.7l-.79.07-.54-5.17.76-.07.57 5.17zM82.66 127.26l-.79.13-.79-5.14.76-.13.82 5.14zM85.71 126.66l-.75.16-1.11-5.07.79-.16 1.07 5.07zM88.74 125.94l-.76.19-1.35-5.02.75-.22 1.36 5.05zM91.73 125.02l-.75.26-1.61-4.95.76-.25 1.6 4.94zM94.67 123.95l-.73.29-1.86-4.86.73-.28 1.86 4.85zM97.53 122.75l-.72.32-2.11-4.76.72-.32 2.11 4.76zM100.34 121.4l-.69.35-2.37-4.64.7-.34 2.36 4.63zM103.08 119.89l-.69.37-2.58-4.5.66-.38 2.61 4.51zM105.73 118.22l-.66.44-2.84-4.35.66-.45 2.84 4.36zM108.28 116.45l-.63.44-3.05-4.19.63-.48 3.05 4.23zM110.74 114.53l-.6.5-3.27-4.06.6-.48 3.27 4.04zM113.11 112.48l-.57.53-3.5-3.87.6-.51 3.47 3.85z"/><path class="cls-1" d="M72.54 8.86h.79V19.2h-.79z"/><path class="cls-2" d="M69.42 8.95l.78-.03.29 5.2-.79.03-.28-5.2zM66.33 9.24l.75-.1.57 5.17-.79.1-.53-5.17zM63.24 9.65l.75-.13.82 5.14-.75.13-.82-5.14zM60.18 10.25l.76-.16 1.07 5.07-.76.16-1.07-5.07zM57.12 11l.76-.22 1.35 5.04-.75.2L57.12 11zM54.16 11.88l.72-.22 1.61 4.95-.72.22-1.61-4.95zM51.23 12.96l.72-.29 1.86 4.86-.72.28-1.86-4.85zM48.33 14.15l.72-.31 2.11 4.76-.69.31-2.14-4.76zM45.52 15.54l.69-.38 2.37 4.64-.7.38-2.36-4.64zM42.81 17.02l.66-.38 2.62 4.51-.7.38-2.58-4.51zM40.16 18.69l.63-.44 2.84 4.39-.66.41-2.81-4.36zM37.58 20.46l.63-.44 3.06 4.19-.64.47-3.05-4.22zM35.12 22.38l.6-.47 3.27 4.03-.59.48-3.28-4.04zM32.75 24.43l.6-.54 3.47 3.88-.57.51-3.5-3.85zM30.52 26.61l.56-.57 3.66 3.69-.54.53-3.68-3.65zM114.81 26.04l.54.53-3.66 3.69-.57-.53 3.69-3.69zM112.54 23.89l.57.54-3.47 3.85-.6-.51 3.5-3.88zM110.14 21.88l.6.5-3.27 4.04-.6-.48 3.27-4.06zM107.65 20.02l.63.44-3.05 4.22-.63-.47 3.05-4.19zM105.07 18.25l.66.44-2.84 4.36-.66-.41 2.84-4.39zM102.39 16.64l.69.38-2.61 4.51-.66-.38 2.58-4.51zM99.65 15.16l.69.38-2.36 4.64-.7-.38 2.37-4.64zM96.81 13.84l.72.31-2.11 4.76-.72-.31 2.11-4.76zM93.94 12.67l.73.29-1.86 4.85-.73-.28 1.86-4.86zM90.98 11.66l.75.22-1.6 4.95-.76-.22 1.61-4.95zM87.98 10.78l.76.22-1.36 5.02-.75-.2 1.35-5.04zM84.96 10.09l.75.16-1.07 5.07-.79-.16 1.11-5.07z"/><path class="cls-1" transform="rotate(-80.91 81.843 12.155)" d="M79.25 11.75h5.2v.8h-5.2z"/><path class="cls-2" d="M78.78 9.14l.79.1-.57 5.17-.76-.1.54-5.17zM75.66 8.92l.78.03-.28 5.2-.75-.03.25-5.2z"/><path class="cls-1" d="M16.42 68.28h5.8v.35h-5.8z"/><path class="cls-2" d="M16.52 65.35l2.8.13-.03.34-2.77-.15v-.32zM16.77 62.39l2.77.31-.03.32-2.77-.29.03-.34zM17.15 59.49l2.77.41-.06.34-2.74-.44.03-.31zM17.72 56.59l2.71.56-.07.32-2.74-.57.1-.31zM18.41 53.72l2.68.72-.06.32-2.71-.73.09-.31zM19.26 50.88l2.65.85-.1.32-2.68-.85.13-.32zM20.24 48.11l2.61.97-.12.32-2.62-1.01.13-.28zM21.37 45.36l2.56 1.14-.13.31-2.55-1.13.12-.32zM22.66 42.72l2.5 1.26-.16.28L22.51 43l.15-.28zM24.08 40.13l2.43 1.39-.19.28-2.43-1.39.19-.28zM25.63 37.61l2.33 1.51-.16.29-2.36-1.52.19-.28zM27.3 35.18l2.27 1.64-.19.28-2.27-1.67.19-.25zM16.52 71.24l2.77-.15.03.34-2.8.13v-.32zM16.74 74.18l2.77-.29.03.32-2.77.31-.03-.34zM17.12 77.11l2.74-.44.06.34-2.77.44-.03-.34zM17.62 80.01l2.74-.57.07.31-2.71.6-.1-.34zM18.32 82.91l2.71-.73.06.32-2.68.72-.09-.31zM19.13 85.71l2.68-.85.1.32-2.65.85-.13-.32zM20.11 88.52l2.62-1.01.12.32-2.61 1-.13-.31zM21.25 91.23l2.55-1.13.13.31-2.56 1.14-.12-.32zM22.51 93.91L25 92.65l.16.28-2.5 1.26-.15-.28zM23.89 96.53l2.43-1.42.19.28-2.43 1.42-.19-.28zM25.44 99.05l2.36-1.55.16.29-2.33 1.51-.19-.25zM27.11 101.47l2.27-1.63.19.25-2.27 1.64-.19-.26z"/><path class="cls-1" d="M123.67 68.28h5.77v.35h-5.77z"/><path class="cls-2" d="M129.34 65.35l-2.77.13v.34l2.8-.15-.03-.32zM129.12 62.39l-2.8.31.06.32 2.77-.29-.03-.34zM128.71 59.49l-2.74.41.03.34 2.78-.44-.07-.31zM128.18 56.59l-2.75.56.07.32 2.74-.57-.06-.31zM127.48 53.72l-2.71.72.1.32 2.68-.73-.07-.31zM126.63 50.88l-2.65.85.1.32 2.65-.85-.1-.32zM125.62 48.11l-2.58.97.09.32 2.62-1.01-.13-.28zM124.49 45.36l-2.55 1.14.12.31 2.58-1.13-.15-.32zM123.23 42.72l-2.49 1.26.12.28 2.49-1.26-.12-.28zM121.81 40.13l-2.43 1.39.16.28 2.43-1.39-.16-.28zM120.26 37.61l-2.36 1.51.19.29 2.33-1.52-.16-.28zM118.56 35.18l-2.24 1.64.19.28 2.27-1.67-.22-.25zM129.37 71.24l-2.8-.15v.34l2.77.13.03-.32zM129.15 74.18l-2.77-.29-.06.32 2.8.31.03-.34zM128.78 77.11l-2.78-.44-.03.34 2.74.44.07-.34zM128.24 80.01l-2.74-.57-.07.31 2.75.6.06-.34zM127.58 82.91l-2.71-.73-.1.32 2.71.72.1-.31zM126.73 85.71l-2.65-.85-.1.32 2.65.85.1-.32zM125.75 88.52l-2.62-1.01-.09.32 2.58 1 .13-.31zM124.64 91.23l-2.58-1.13-.12.31 2.55 1.14.15-.32zM123.35 93.91l-2.49-1.26-.12.28 2.49 1.26.12-.28zM121.97 96.53l-2.43-1.42-.16.28 2.43 1.42.16-.28zM120.42 99.05l-2.33-1.55-.19.29 2.36 1.51.16-.25zM118.75 101.47l-2.24-1.63-.19.25 2.24 1.64.19-.26zM49.37 127.83l-2.27 5.07-3.66-4.66 5.93-.41zM43.28 125.06l-2.77 4.79-3.16-5.02 5.93.23zM37.55 121.65l-3.28 4.48-2.59-5.33 5.87.85zM33.29 18.35l-3.25-4.51 5.87-.82-2.62 5.33zM38.74 14.47l-2.77-4.82 5.93-.19-3.16 5.01zM44.58 11.19l-2.24-5.07 5.89.41-3.65 4.66zM96.53 9.08L98.77 4l3.65 4.67-5.89.41zM102.58 11.85l2.8-4.82 3.13 5.04-5.93-.22zM108.35 15.26l3.28-4.48 2.58 5.33-5.86-.85zM112.57 118.56l3.28 4.51-5.86.82 2.58-5.33zM107.12 122.44l2.77 4.79-5.92.22 3.15-5.01zM101.29 125.72l2.27 5.07-5.93-.41 3.66-4.66zM137.73 69.73h3.65l-1.82 11.07-1.83-11.07zM137.73 67.18h3.65l-1.82-11.04-1.83 11.04z"/><path class="cls-1" d="M3.94 68.56c0 1.3 0 2.56.13 3.85h2.52c-.07-1.29-.1-2.55-.1-3.85zm.16 4.35c.06 1.2.19 2.37.31 3.57H7c-.16-1.2-.26-2.4-.35-3.57zm.41 4.32c.12 1.11.31 2.21.5 3.31H7.6c-.22-1.1-.38-2.2-.54-3.31zm.69 4.32c.19 1 .41 2 .66 3h2.62c-.25-1-.47-2-.69-3zm1 4.38l.09.38c.19.76.41 1.52.63 2.24h2.69l-.06-.19c-.25-.79-.5-1.61-.72-2.43zm1.3 4.42c.22.69.48 1.35.73 2.05h2.71c-.25-.7-.51-1.36-.76-2.05zm1.74 4.57a10.65 10.65 0 00.56 1.32h2.78c-.22-.44-.41-.88-.6-1.32z"/><path class="cls-3" d="M27.87 69h2a42.92 42.92 0 005.5 20.5l-1.73 1A44.62 44.62 0 0127.87 69z"/><path class="cls-4" d="M24.78 69h2.58a45.35 45.35 0 005.83 21.72l-2.27 1.29A48.1 48.1 0 0124.78 69z"/><path class="cls-5" d="M28 93.72A51.51 51.51 0 0121.44 69h2.27A49.21 49.21 0 0030 92.59z"/><path class="cls-3" d="M112.26 90.47l-1.74-1A43.24 43.24 0 00116 69h2a44.7 44.7 0 01-5.74 21.47z"/><path class="cls-5" d="M114.94 92.05l-2.24-1.32A45.58 45.58 0 00118.5 69h2.61a48.13 48.13 0 01-6.17 23.05z"/><path class="cls-2" d="M124.46 69a51.21 51.21 0 01-6.62 24.68l-2-1.13A49 49 0 00122.16 69z"/><path class="cls-3" d="M118 67.87h-2a43 43 0 00-5.46-20.43l1.74-1A44.74 44.74 0 01118 67.87z"/><path class="cls-4" d="M121.11 67.87h-2.61a45.55 45.55 0 00-5.8-21.69l2.24-1.29a47.67 47.67 0 016.17 22.98z"/><path class="cls-5" d="M117.84 43.19a51.21 51.21 0 016.62 24.68h-2.3a48.79 48.79 0 00-6.31-23.52z"/><path class="cls-2" d="M38.17 33.61H35a48.89 48.89 0 00-6.4 8.6l2 1.14a49.85 49.85 0 017.56-9.71z"/><path class="cls-5" d="M43.6 33.61h-3.88l-.85.78a48.86 48.86 0 00-7.35 9.49l2.24 1.29a46.27 46.27 0 017-9 35.54 35.54 0 012.84-2.56z"/><path class="cls-3" d="M47.7 33.61h-3.31c-1.14.94-2.24 1.92-3.31 3a45.66 45.66 0 00-6.88 8.83l1.74 1A43 43 0 0147.7 33.61z"/><path class="cls-5" d="M101.48 33.61H98.2a42.51 42.51 0 0111.72 12.82l1.74-1a46 46 0 00-6.87-8.83 37.52 37.52 0 00-3.31-2.99z"/><path class="cls-4" d="M106.17 33.61h-3.91a31.39 31.39 0 012.9 2.64 43.6 43.6 0 016.94 8.92l2.27-1.29a47.87 47.87 0 00-7.37-9.49c-.29-.25-.54-.53-.83-.78z"/><path class="cls-2" d="M110.87 33.61h-3.18.06a49.7 49.7 0 017.53 9.71l2-1.14a51.64 51.64 0 00-6.41-8.57zM107.69 103.33h3.18a52.91 52.91 0 006.4-8.6l-2-1.17a49.12 49.12 0 01-7.53 9.71z"/><path class="cls-4" d="M102.26 103.33h3.91l.82-.81a48.86 48.86 0 007.38-9.46l-2.27-1.33a44.4 44.4 0 01-6.94 9c-.91.87-1.89 1.75-2.9 2.6z"/><path class="cls-5" d="M98.2 103.33h3.28a37.86 37.86 0 003.31-3 45.09 45.09 0 006.87-8.83l-1.74-1a42.89 42.89 0 01-11.72 12.83zM44.39 103.33h3.31a43.42 43.42 0 01-11.76-12.86l-1.74 1a43.91 43.91 0 006.88 8.83q1.61 1.62 3.31 3.03z"/><path class="cls-4" d="M39.72 103.33h3.88c-1-.85-2-1.73-2.87-2.64a46 46 0 01-7-9l-2.24 1.33a49.9 49.9 0 007.35 9.46c.31.32.6.57.88.85z"/><path class="cls-2" d="M35 103.33h3.15v-.06a48 48 0 01-7.53-9.71l-2 1.17a51.22 51.22 0 006.38 8.6z"/><path class="cls-5" d="M33.64 46.43l1.73 1a42.71 42.71 0 00-5.49 20.43h-2a44.66 44.66 0 015.76-21.43z"/><path class="cls-4" d="M30.92 44.86l2.27 1.32a45.23 45.23 0 00-5.83 21.69h-2.58a48.19 48.19 0 016.14-23.01z"/><path class="cls-2" d="M21.44 67.87A51.51 51.51 0 0128 43.19l2 1.16a49 49 0 00-6.3 23.52z"/><path class="cls-1" d="M95.8 45.58a32.31 32.31 0 109.49 22.89 32.3 32.3 0 00-9.49-22.89zm8.42 22.54h-1.74A29.35 29.35 0 0098.7 54l1.48-.88a31 31 0 014.04 15zM95 46.34a32 32 0 014.83 6.21l-1.48.85a30.9 30.9 0 00-4.54-5.83A29 29 0 0088 43l.89-1.51A30.22 30.22 0 0195 46.34zm-21.74-9.17a31.16 31.16 0 0115 4l-.85 1.51a29.31 29.31 0 00-14.15-3.78zm-.63 0v1.73a29.15 29.15 0 00-14.18 3.81l-.89-1.51a31.27 31.27 0 0115.07-4.03zm-21.81 9.17A31.61 31.61 0 0157 41.52l.88 1.48a27.68 27.68 0 00-5.83 4.54 29 29 0 00-4.54 5.83L46 52.55a32 32 0 014.82-6.21zm-5.14 6.75l1.51.88a29.49 29.49 0 00-3.81 14.15h-1.71a30.85 30.85 0 014.01-15.03zm-4 15.7h1.71A29.7 29.7 0 0047.19 83l-1.51.85a30.85 30.85 0 01-4.01-15.06zm9.15 21.78A32.77 32.77 0 0146 84.39l1.52-.88a29.28 29.28 0 002.08 3.09 27.54 27.54 0 002.46 2.74 28 28 0 005.83 4.54L57 95.39a31.61 31.61 0 01-6.18-4.82zm21.81 9.17a31.27 31.27 0 01-15.07-4l.89-1.49A29.47 29.47 0 0072.63 98zM43.57 68.47A29.36 29.36 0 1173 97.82a29.37 29.37 0 01-29.43-29.35zm29.69 31.27V98a29.63 29.63 0 0014.19-3.79l.85 1.49a31.16 31.16 0 01-15.04 4.04zM95 90.57a31.35 31.35 0 01-6.17 4.82L88 93.88a29.35 29.35 0 005.87-4.54 31.22 31.22 0 004.54-5.83l1.48.85A32 32 0 0195 90.57zm5.14-6.75L98.7 83a29.56 29.56 0 003.78-14.18h1.74a31 31 0 01-4.04 15z"/></g></g></svg>