<svg xmlns="http://www.w3.org/2000/svg" viewBox="0 0 116.7 543.51"><defs><style>.cls-4{fill:#1d71b8}.cls-2{fill:#36a9e1}.cls-3{opacity:.4}.cls-5{fill:#f39200}</style></defs><g id="图层_2" data-name="图层 2"><g id="Layer_1" data-name="Layer 1"><path opacity=".2" fill="#1d71b8" d="M1.19 1.19h114.33v541.14H1.19z"/><path class="cls-2" d="M116.7 0v543.51H0V0zm-2.37 541.14V2.37H2.37v538.77z"/><g class="cls-3"><path class="cls-4" d="M16.91 522.8l-3.72 2.14-3.72-2.14v-4.29l3.72-2.15 3.72 2.15v4.29z"/></g><g class="cls-3"><path class="cls-4" d="M21.04 529.92l-3.72 2.15-3.71-2.15v-4.29l3.71-2.14 3.72 2.14v4.29z"/></g><g class="cls-3"><path class="cls-4" d="M16.91 508.58l-3.72 2.15-3.71-2.15v-4.29l3.71-2.14 3.72 2.14v4.29z"/></g><g class="cls-3"><path class="cls-4" d="M21.04 515.71l-3.72 2.14-3.71-2.14v-4.29l3.71-2.15 3.72 2.15v4.29z"/></g><g class="cls-3"><path class="cls-4" d="M16.91 494.37l-3.72 2.14-3.71-2.14v-4.29l3.71-2.15 3.72 2.15v4.29z"/></g><g class="cls-3"><path class="cls-4" d="M21.04 501.5l-3.72 2.14-3.71-2.14v-4.3l3.71-2.14 3.72 2.14v4.3z"/></g><g class="cls-3"><path class="cls-4" d="M29.3 529.88l-3.72 2.15-3.71-2.15v-4.29l3.71-2.14 3.72 2.14v4.29z"/></g><g class="cls-3"><path class="cls-4" d="M25.07 522.8l-3.72 2.14-3.71-2.14v-4.29l3.71-2.15 3.72 2.15v4.29z"/></g><g class="cls-3"><path class="cls-4" d="M29.3 515.67l-3.72 2.15-3.71-2.15v-4.29l3.72-2.15 3.71 2.15v4.29z"/></g><g class="cls-3"><path class="cls-4" d="M33.43 522.8l-3.71 2.14L26 522.8v-4.29l3.72-2.15 3.71 2.15v4.29z"/></g><g class="cls-3"><path class="cls-4" d="M25.07 508.58l-3.72 2.15-3.71-2.15v-4.29l3.71-2.14 3.72 2.14v4.29z"/></g><g class="cls-3"><path class="cls-4" d="M29.3 501.46l-3.71 2.14-3.72-2.14v-4.29l3.72-2.15 3.71 2.15v4.29z"/></g><g class="cls-3"><path class="cls-4" d="M33.43 508.58l-3.71 2.15-3.72-2.15v-4.29l3.72-2.14 3.71 2.14v4.29z"/></g><g class="cls-3"><path class="cls-4" d="M25.07 494.37l-3.72 2.14-3.71-2.14v-4.29l3.71-2.15 3.72 2.15v4.29z"/></g><g class="cls-3"><path class="cls-4" d="M29.3 487.24l-3.71 2.15-3.72-2.15v-4.29l3.72-2.14 3.71 2.14v4.29z"/></g><g class="cls-3"><path class="cls-4" d="M33.43 494.37l-3.71 2.14-3.72-2.14v-4.29l3.72-2.15 3.71 2.15v4.29z"/></g><g class="cls-3"><path class="cls-4" d="M37.49 529.9l-3.71 2.15-3.72-2.15v-4.29l3.72-2.14 3.71 2.14v4.29z"/></g><g class="cls-3"><path class="cls-4" d="M41.73 522.78l-3.72 2.14-3.72-2.14v-4.29l3.72-2.15 3.72 2.15v4.29z"/></g><g class="cls-3"><path class="cls-4" d="M45.86 529.9l-3.72 2.15-3.72-2.15v-4.29l3.72-2.14 3.72 2.14v4.29z"/></g><g class="cls-3"><path class="cls-4" d="M37.49 515.69l-3.71 2.15-3.72-2.15v-4.29l3.72-2.15 3.71 2.15v4.29z"/></g><g class="cls-3"><path class="cls-4" d="M41.73 508.56l-3.72 2.15-3.72-2.15v-4.29l3.72-2.14 3.72 2.14v4.29z"/></g><g class="cls-3"><path class="cls-4" d="M45.86 515.69l-3.72 2.15-3.72-2.15v-4.29l3.72-2.15 3.72 2.15v4.29z"/></g><g class="cls-3"><path class="cls-4" d="M37.49 501.48l-3.71 2.14-3.72-2.14v-4.29l3.72-2.15 3.71 2.15v4.29z"/></g><g class="cls-3"><path class="cls-4" d="M41.73 494.35l-3.72 2.14-3.72-2.14v-4.29l3.72-2.15 3.72 2.15v4.29z"/></g><g class="cls-3"><path class="cls-4" d="M45.86 501.48l-3.72 2.14-3.72-2.14v-4.29l3.72-2.15 3.72 2.15v4.29z"/></g><g class="cls-3"><path class="cls-4" d="M37.49 487.26l-3.71 2.15-3.72-2.15v-4.29l3.72-2.15 3.71 2.15v4.29z"/></g><g class="cls-3"><path class="cls-4" d="M41.73 480.13l-3.72 2.15-3.72-2.15v-4.29l3.72-2.14 3.72 2.14v4.29z"/></g><g class="cls-3"><path class="cls-4" d="M45.86 487.26l-3.72 2.15-3.72-2.15v-4.29l3.72-2.15 3.72 2.15v4.29z"/></g><g class="cls-3"><path class="cls-4" d="M54.12 529.87l-3.72 2.14-3.71-2.14v-4.3l3.71-2.14 3.72 2.14v4.3z"/></g><g class="cls-3"><path class="cls-4" d="M49.88 522.78l-3.71 2.14-3.72-2.14v-4.29l3.72-2.15 3.71 2.15v4.29z"/></g><g class="cls-3"><path class="cls-4" d="M54.12 515.65l-3.72 2.15-3.71-2.15v-4.29l3.71-2.15 3.72 2.15v4.29z"/></g><g class="cls-3"><path class="cls-4" d="M58.25 522.78l-3.72 2.14-3.71-2.14v-4.29l3.71-2.15 3.72 2.15v4.29z"/></g><g class="cls-3"><path class="cls-4" d="M49.88 508.56l-3.71 2.15-3.72-2.15v-4.29l3.72-2.14 3.71 2.14v4.29z"/></g><g class="cls-3"><path class="cls-4" d="M54.12 501.44l-3.72 2.14-3.71-2.14v-4.29L50.4 495l3.72 2.15v4.29z"/></g><g class="cls-3"><path class="cls-4" d="M58.25 508.56l-3.72 2.15-3.71-2.15v-4.29l3.71-2.14 3.72 2.14v4.29z"/></g><g class="cls-3"><path class="cls-4" d="M49.88 494.35l-3.71 2.14-3.72-2.14v-4.29l3.72-2.15 3.71 2.15v4.29z"/></g><g class="cls-3"><path class="cls-4" d="M54.12 487.22l-3.72 2.15-3.71-2.15v-4.29l3.71-2.14 3.72 2.14v4.29z"/></g><path class="cls-2" d="M58.25 494.35l-3.72 2.14-3.71-2.14v-4.29l3.71-2.15 3.72 2.15v4.29z"/><g class="cls-3"><path class="cls-4" d="M49.88 480.13l-3.71 2.15-3.72-2.15v-4.29l3.72-2.14 3.71 2.14v4.29z"/></g><g class="cls-3"><path class="cls-4" d="M54.12 473.01l-3.72 2.14-3.71-2.14v-4.29l3.71-2.15 3.72 2.15v4.29z"/></g><g class="cls-3"><path class="cls-4" d="M58.25 480.13l-3.72 2.15-3.71-2.15v-4.29l3.71-2.14 3.72 2.14v4.29z"/></g><g class="cls-3"><path class="cls-4" d="M16.91 480.1l-3.72 2.14-3.71-2.14v-4.29l3.71-2.15 3.72 2.15v4.29z"/></g><g class="cls-3"><path class="cls-4" d="M21.04 487.22l-3.72 2.15-3.71-2.15v-4.29l3.71-2.14 3.72 2.14v4.29z"/></g><g class="cls-3"><path class="cls-4" d="M16.91 465.88l-3.72 2.15-3.71-2.15v-4.29l3.71-2.15 3.72 2.15v4.29z"/></g><g class="cls-3"><path class="cls-4" d="M21.04 473.01l-3.72 2.14-3.71-2.14v-4.29l3.71-2.15 3.72 2.15v4.29z"/></g><g class="cls-3"><path class="cls-4" d="M16.91 451.67l-3.72 2.14-3.71-2.14v-4.29l3.71-2.15 3.72 2.15v4.29z"/></g><g class="cls-3"><path class="cls-4" d="M21.04 458.79l-3.72 2.15-3.71-2.15v-4.29l3.71-2.14 3.72 2.14v4.29z"/></g><g class="cls-3"><path class="cls-4" d="M16.91 437.45l-3.72 2.15-3.71-2.15v-4.29l3.71-2.14 3.72 2.14v4.29z"/></g><g class="cls-3"><path class="cls-4" d="M21.04 444.58l-3.72 2.15-3.71-2.15v-4.29l3.71-2.15 3.72 2.15v4.29z"/></g><g class="cls-3"><path class="cls-4" d="M16.91 423.24l-3.72 2.14-3.71-2.14v-4.29l3.71-2.15 3.72 2.15v4.29z"/></g><g class="cls-3"><path class="cls-4" d="M21.04 430.36l-3.72 2.15-3.71-2.15v-4.29l3.71-2.14 3.72 2.14v4.29z"/></g><g class="cls-3"><path class="cls-4" d="M16.91 409.02l-3.72 2.15-3.71-2.15v-4.29l3.71-2.14 3.72 2.14v4.29z"/></g><g class="cls-3"><path class="cls-4" d="M21.04 416.15l-3.72 2.15-3.71-2.15v-4.29l3.71-2.15 3.72 2.15v4.29z"/></g><g class="cls-3"><path class="cls-4" d="M25.07 480.1l-3.72 2.14-3.71-2.14v-4.29l3.71-2.15 3.72 2.15v4.29z"/></g><g class="cls-3"><path class="cls-4" d="M29.3 472.97l-3.71 2.14-3.72-2.14v-4.29l3.72-2.15 3.71 2.15v4.29z"/></g><g class="cls-3"><path class="cls-4" d="M33.43 480.1l-3.71 2.14L26 480.1v-4.29l3.72-2.15 3.71 2.15v4.29z"/></g><g class="cls-3"><path class="cls-4" d="M25.07 465.88l-3.72 2.15-3.71-2.15v-4.29l3.71-2.15 3.72 2.15v4.29z"/></g><g class="cls-3"><path class="cls-4" d="M29.3 458.75l-3.71 2.15-3.72-2.15v-4.29l3.72-2.14 3.71 2.14v4.29z"/></g><g class="cls-3"><path class="cls-4" d="M33.43 465.88l-3.71 2.15-3.72-2.15v-4.29l3.72-2.15 3.71 2.15v4.29z"/></g><g class="cls-3"><path class="cls-4" d="M25.07 451.67l-3.72 2.14-3.71-2.14v-4.29l3.71-2.15 3.72 2.15v4.29z"/></g><g class="cls-3"><path class="cls-4" d="M29.3 444.54l-3.71 2.15-3.72-2.15v-4.29l3.72-2.15 3.71 2.15v4.29z"/></g><g class="cls-3"><path class="cls-4" d="M33.43 451.67l-3.71 2.14-3.72-2.14v-4.29l3.72-2.15 3.71 2.15v4.29z"/></g><g class="cls-3"><path class="cls-4" d="M25.07 437.45l-3.72 2.15-3.71-2.15v-4.29l3.71-2.14 3.72 2.14v4.29z"/></g><g class="cls-3"><path class="cls-4" d="M29.3 430.33l-3.71 2.14-3.72-2.14v-4.3l3.72-2.14 3.71 2.14v4.3z"/></g><g class="cls-3"><path class="cls-4" d="M33.43 437.45l-3.71 2.15-3.72-2.15v-4.29l3.72-2.14 3.71 2.14v4.29z"/></g><g class="cls-3"><path class="cls-4" d="M25.07 423.24l-3.72 2.14-3.71-2.14v-4.29l3.71-2.15 3.72 2.15v4.29z"/></g><g class="cls-3"><path class="cls-4" d="M29.3 416.11l-3.71 2.15-3.72-2.15v-4.29l3.72-2.15 3.71 2.15v4.29z"/></g><g class="cls-3"><path class="cls-4" d="M33.43 423.24l-3.71 2.14-3.72-2.14v-4.29l3.72-2.15 3.71 2.15v4.29z"/></g><g class="cls-3"><path class="cls-4" d="M25.07 409.02l-3.72 2.15-3.71-2.15v-4.29l3.71-2.14 3.72 2.14v4.29z"/></g><g class="cls-3"><path class="cls-4" d="M29.3 401.9l-3.71 2.14-3.72-2.14v-4.3l3.72-2.14 3.71 2.14v4.3z"/></g><g class="cls-3"><path class="cls-4" d="M33.43 409.02l-3.71 2.15-3.72-2.15v-4.29l3.72-2.14 3.71 2.14v4.29z"/></g><g class="cls-3"><path class="cls-4" d="M37.49 472.99l-3.71 2.14-3.72-2.14v-4.29l3.72-2.15 3.71 2.15v4.29z"/></g><g class="cls-3"><path class="cls-4" d="M41.73 465.86l-3.72 2.15-3.72-2.15v-4.29l3.72-2.14 3.72 2.14v4.29z"/></g><path class="cls-2" d="M45.86 472.99l-3.72 2.14-3.72-2.14v-4.29l3.72-2.15 3.72 2.15v4.29z"/><g class="cls-3"><path class="cls-4" d="M37.49 458.77l-3.71 2.15-3.72-2.15v-4.29l3.72-2.14 3.71 2.14v4.29z"/></g><g class="cls-3"><path class="cls-4" d="M41.73 451.65l-3.72 2.14-3.72-2.14v-4.29l3.72-2.15 3.72 2.15v4.29z"/></g><g class="cls-3"><path class="cls-4" d="M45.86 458.77l-3.72 2.15-3.72-2.15v-4.29l3.72-2.14 3.72 2.14v4.29z"/></g><g class="cls-3"><path class="cls-4" d="M37.49 444.56l-3.71 2.15-3.72-2.15v-4.29l3.72-2.15 3.71 2.15v4.29z"/></g><g class="cls-3"><path class="cls-4" d="M41.73 437.43l-3.72 2.15-3.72-2.15v-4.29l3.72-2.14 3.72 2.14v4.29z"/></g><g class="cls-3"><path class="cls-4" d="M45.86 444.56l-3.72 2.15-3.72-2.15v-4.29l3.72-2.15 3.72 2.15v4.29z"/></g><g class="cls-3"><path class="cls-4" d="M37.49 430.35l-3.71 2.14-3.72-2.14v-4.3l3.72-2.14 3.71 2.14v4.3z"/></g><g class="cls-3"><path class="cls-4" d="M41.73 423.22l-3.72 2.14-3.72-2.14v-4.29l3.72-2.15 3.72 2.15v4.29z"/></g><g class="cls-3"><path class="cls-4" d="M45.86 430.35l-3.72 2.14-3.72-2.14v-4.3l3.72-2.14 3.72 2.14v4.3z"/></g><g class="cls-3"><path class="cls-4" d="M37.49 416.13l-3.71 2.14-3.72-2.14v-4.29l3.72-2.15 3.71 2.15v4.29z"/></g><g class="cls-3"><path class="cls-4" d="M41.73 409l-3.72 2.15-3.72-2.15v-4.29l3.72-2.14 3.72 2.14V409z"/></g><g class="cls-3"><path class="cls-4" d="M45.86 416.13l-3.72 2.14-3.72-2.14v-4.29l3.72-2.15 3.72 2.15v4.29z"/></g><g class="cls-3"><path class="cls-4" d="M37.49 401.92l-3.71 2.14-3.72-2.14v-4.29l3.72-2.15 3.71 2.15v4.29z"/></g><g class="cls-3"><path class="cls-4" d="M41.73 394.79l-3.72 2.15-3.72-2.15v-4.29l3.72-2.15 3.72 2.15v4.29z"/></g><g class="cls-3"><path class="cls-4" d="M45.86 401.92l-3.72 2.14-3.72-2.14v-4.29l3.72-2.15 3.72 2.15v4.29z"/></g><g class="cls-3"><path class="cls-4" d="M49.88 465.86l-3.71 2.15-3.72-2.15v-4.29l3.72-2.14 3.71 2.14v4.29z"/></g><g class="cls-3"><path class="cls-4" d="M54.12 458.73l-3.72 2.15-3.71-2.15v-4.29l3.71-2.14 3.72 2.14v4.29z"/></g><g class="cls-3"><path class="cls-4" d="M58.25 465.86l-3.72 2.15-3.71-2.15v-4.29l3.71-2.14 3.72 2.14v4.29z"/></g><path class="cls-2" d="M49.88 451.65l-3.71 2.14-3.72-2.14v-4.29l3.72-2.15 3.71 2.15v4.29z"/><g class="cls-3"><path class="cls-4" d="M54.12 444.52l-3.72 2.15-3.71-2.15v-4.29l3.71-2.15 3.72 2.15v4.29z"/></g><g class="cls-3"><path class="cls-4" d="M58.25 451.65l-3.72 2.14-3.71-2.14v-4.29l3.71-2.15 3.72 2.15v4.29z"/></g><g class="cls-3"><path class="cls-4" d="M49.88 437.43l-3.71 2.15-3.72-2.15v-4.29l3.72-2.14 3.71 2.14v4.29z"/></g><g class="cls-3"><path class="cls-4" d="M54.12 430.31l-3.72 2.14-3.72-2.14v-4.3l3.72-2.14 3.72 2.14v4.3z"/></g><g class="cls-3"><path class="cls-4" d="M58.25 437.43l-3.72 2.15-3.71-2.15v-4.29l3.71-2.14 3.72 2.14v4.29z"/></g><g class="cls-3"><path class="cls-4" d="M49.88 423.22l-3.71 2.14-3.72-2.14v-4.29l3.72-2.15 3.71 2.15v4.29z"/></g><g class="cls-3"><path class="cls-4" d="M54.12 416.09l-3.72 2.15-3.72-2.15v-4.29l3.72-2.15 3.72 2.15v4.29z"/></g><g class="cls-3"><path class="cls-4" d="M58.25 423.22l-3.72 2.14-3.71-2.14v-4.29l3.71-2.15 3.72 2.15v4.29z"/></g><g class="cls-3"><path class="cls-4" d="M49.88 409l-3.71 2.15-3.72-2.15v-4.29l3.72-2.14 3.71 2.14V409z"/></g><g class="cls-3"><path class="cls-4" d="M54.12 401.88l-3.72 2.14-3.72-2.14v-4.29l3.72-2.15 3.72 2.15v4.29z"/></g><g class="cls-3"><path class="cls-4" d="M58.25 409l-3.72 2.15-3.71-2.15v-4.29l3.71-2.14 3.72 2.14V409z"/></g><g class="cls-3"><path class="cls-4" d="M49.88 394.79l-3.71 2.15-3.72-2.15v-4.29l3.72-2.15 3.71 2.15v4.29z"/></g><g class="cls-3"><path class="cls-4" d="M54.12 387.66l-3.72 2.15-3.72-2.15v-4.29l3.72-2.14 3.72 2.14v4.29z"/></g><g class="cls-3"><path class="cls-4" d="M58.25 394.79l-3.72 2.15-3.71-2.15v-4.29l3.71-2.15 3.72 2.15v4.29z"/></g><g class="cls-3"><path class="cls-4" d="M16.91 394.75l-3.72 2.15-3.71-2.15v-4.29l3.71-2.15 3.72 2.15v4.29z"/></g><g class="cls-3"><path class="cls-4" d="M21.04 401.88l-3.72 2.14-3.71-2.14v-4.29l3.71-2.15 3.72 2.15v4.29z"/></g><g class="cls-3"><path class="cls-4" d="M16.91 380.54l-3.72 2.14-3.71-2.14v-4.29l3.71-2.15 3.72 2.15v4.29z"/></g><g class="cls-3"><path class="cls-4" d="M21.04 387.66l-3.72 2.15-3.71-2.15v-4.29l3.71-2.14 3.72 2.14v4.29z"/></g><g class="cls-3"><path class="cls-4" d="M16.91 366.32l-3.72 2.15-3.71-2.15v-4.29l3.71-2.15 3.72 2.15v4.29z"/></g><g class="cls-3"><path class="cls-4" d="M21.04 373.45l-3.72 2.14-3.71-2.14v-4.29l3.71-2.15 3.72 2.15v4.29z"/></g><g class="cls-3"><path class="cls-4" d="M16.91 352.11l-3.72 2.14-3.71-2.14v-4.29l3.71-2.15 3.72 2.15v4.29z"/></g><g class="cls-3"><path class="cls-4" d="M21.04 359.23l-3.72 2.15-3.71-2.15v-4.29l3.71-2.14 3.72 2.14v4.29z"/></g><g class="cls-3"><path class="cls-4" d="M16.91 337.89l-3.72 2.15-3.71-2.15v-4.29l3.71-2.14 3.72 2.14v4.29z"/></g><g class="cls-3"><path class="cls-4" d="M21.04 345.02l-3.72 2.15-3.71-2.15v-4.29l3.71-2.15 3.72 2.15v4.29z"/></g><g class="cls-3"><path class="cls-4" d="M16.91 323.68l-3.72 2.14-3.71-2.14v-4.29l3.71-2.15 3.72 2.15v4.29z"/></g><g class="cls-3"><path class="cls-4" d="M21.04 330.81l-3.72 2.14-3.71-2.14v-4.3l3.71-2.14 3.72 2.14v4.3z"/></g><g class="cls-3"><path class="cls-4" d="M25.07 394.75l-3.72 2.15-3.71-2.15v-4.29l3.71-2.15 3.72 2.15v4.29z"/></g><g class="cls-3"><path class="cls-4" d="M29.3 387.62l-3.71 2.15-3.72-2.15v-4.29l3.72-2.14 3.71 2.14v4.29z"/></g><g class="cls-3"><path class="cls-4" d="M33.43 394.75l-3.71 2.15-3.72-2.15v-4.29l3.72-2.15 3.71 2.15v4.29z"/></g><g class="cls-3"><path class="cls-4" d="M25.07 380.54l-3.72 2.14-3.71-2.14v-4.29l3.71-2.15 3.72 2.15v4.29z"/></g><g class="cls-3"><path class="cls-4" d="M29.3 373.41l-3.71 2.15-3.72-2.15v-4.29l3.72-2.15 3.71 2.15v4.29z"/></g><g class="cls-3"><path class="cls-4" d="M33.43 380.54l-3.71 2.14-3.72-2.14v-4.29l3.72-2.15 3.71 2.15v4.29z"/></g><g class="cls-3"><path class="cls-4" d="M25.07 366.32l-3.72 2.15-3.71-2.15v-4.29l3.71-2.15 3.72 2.15v4.29z"/></g><g class="cls-3"><path class="cls-4" d="M29.3 359.19l-3.71 2.15-3.72-2.15v-4.29l3.72-2.14 3.71 2.14v4.29z"/></g><g class="cls-3"><path class="cls-4" d="M33.43 366.32l-3.71 2.15-3.72-2.15v-4.29l3.72-2.15 3.71 2.15v4.29z"/></g><g class="cls-3"><path class="cls-4" d="M25.07 352.11l-3.72 2.14-3.71-2.14v-4.29l3.71-2.15 3.72 2.15v4.29z"/></g><g class="cls-3"><path class="cls-4" d="M29.3 344.98l-3.71 2.15-3.72-2.15v-4.29l3.72-2.15 3.71 2.15v4.29z"/></g><g class="cls-3"><path class="cls-4" d="M33.43 352.11l-3.71 2.14-3.72-2.14v-4.29l3.72-2.15 3.71 2.15v4.29z"/></g><g class="cls-3"><path class="cls-4" d="M25.07 337.89l-3.72 2.15-3.71-2.15v-4.29l3.71-2.14 3.72 2.14v4.29z"/></g><g class="cls-3"><path class="cls-4" d="M29.3 330.77l-3.71 2.14-3.72-2.14v-4.29l3.72-2.15 3.71 2.15v4.29z"/></g><g class="cls-3"><path class="cls-4" d="M33.43 337.89l-3.71 2.15-3.72-2.15v-4.29l3.72-2.14 3.71 2.14v4.29z"/></g><g class="cls-3"><path class="cls-4" d="M25.07 323.68l-3.72 2.14-3.71-2.14v-4.29l3.71-2.15 3.72 2.15v4.29z"/></g><g class="cls-3"><path class="cls-4" d="M33.43 323.68l-3.71 2.14-3.72-2.14v-4.29l3.72-2.15 3.71 2.15v4.29z"/></g><g class="cls-3"><path class="cls-4" d="M37.49 387.64l-3.71 2.15-3.72-2.15v-4.29l3.72-2.14 3.71 2.14v4.29z"/></g><g class="cls-3"><path class="cls-4" d="M41.73 380.52l-3.72 2.14-3.72-2.14v-4.29l3.72-2.15 3.72 2.15v4.29z"/></g><g class="cls-3"><path class="cls-4" d="M45.86 387.64l-3.72 2.15-3.72-2.15v-4.29l3.72-2.14 3.72 2.14v4.29z"/></g><g class="cls-3"><path class="cls-4" d="M37.49 373.43l-3.71 2.14-3.72-2.14v-4.29l3.72-2.15 3.71 2.15v4.29z"/></g><g class="cls-3"><path class="cls-4" d="M41.73 366.3l-3.72 2.15-3.72-2.15v-4.29l3.72-2.14 3.72 2.14v4.29z"/></g><g class="cls-3"><path class="cls-4" d="M45.86 373.43l-3.72 2.14-3.72-2.14v-4.29l3.72-2.15 3.72 2.15v4.29z"/></g><g class="cls-3"><path class="cls-4" d="M37.49 359.21l-3.71 2.15-3.72-2.15v-4.29l3.72-2.14 3.71 2.14v4.29z"/></g><g class="cls-3"><path class="cls-4" d="M41.73 352.09l-3.72 2.14-3.72-2.14v-4.29l3.72-2.15 3.72 2.15v4.29z"/></g><g class="cls-3"><path class="cls-4" d="M45.86 359.21l-3.72 2.15-3.72-2.15v-4.29l3.72-2.14 3.72 2.14v4.29z"/></g><g class="cls-3"><path class="cls-4" d="M37.49 345l-3.71 2.15-3.72-2.15v-4.29l3.72-2.15 3.71 2.15V345z"/></g><g class="cls-3"><path class="cls-4" d="M41.73 337.87l-3.72 2.15-3.72-2.15v-4.29l3.72-2.14 3.72 2.14v4.29z"/></g><g class="cls-3"><path class="cls-4" d="M45.86 345l-3.72 2.15-3.72-2.15v-4.29l3.72-2.15 3.72 2.15V345z"/></g><g class="cls-3"><path class="cls-4" d="M37.49 330.79l-3.71 2.14-3.72-2.14v-4.29l3.72-2.15 3.71 2.15v4.29z"/></g><g class="cls-3"><path class="cls-4" d="M41.73 323.66l-3.72 2.15-3.72-2.15v-4.29l3.72-2.15 3.72 2.15v4.29z"/></g><g class="cls-3"><path class="cls-4" d="M45.86 330.79l-3.72 2.14-3.72-2.14v-4.29l3.72-2.15 3.72 2.15v4.29z"/></g><g class="cls-3"><path class="cls-4" d="M49.88 380.52l-3.71 2.14-3.72-2.14v-4.29l3.72-2.15 3.71 2.15v4.29z"/></g><g class="cls-3"><path class="cls-4" d="M54.12 373.39l-3.72 2.15-3.72-2.15v-4.29l3.72-2.15 3.72 2.15v4.29z"/></g><g class="cls-3"><path class="cls-4" d="M58.25 380.52l-3.72 2.14-3.71-2.14v-4.29l3.71-2.15 3.72 2.15v4.29z"/></g><g class="cls-3"><path class="cls-4" d="M49.88 366.3l-3.71 2.15-3.72-2.15v-4.29l3.72-2.14 3.71 2.14v4.29z"/></g><g class="cls-3"><path class="cls-4" d="M54.12 359.18l-3.72 2.14-3.72-2.14v-4.3l3.72-2.14 3.72 2.14v4.3z"/></g><g class="cls-3"><path class="cls-4" d="M58.25 366.3l-3.72 2.15-3.71-2.15v-4.29l3.71-2.14 3.72 2.14v4.29z"/></g><g class="cls-3"><path class="cls-4" d="M49.88 352.09l-3.71 2.14-3.72-2.14v-4.29l3.72-2.15 3.71 2.15v4.29z"/></g><g class="cls-3"><path class="cls-4" d="M54.12 344.96l-3.72 2.15-3.72-2.15v-4.29l3.72-2.15 3.72 2.15v4.29z"/></g><g class="cls-3"><path class="cls-4" d="M58.25 352.09l-3.72 2.14-3.71-2.14v-4.29l3.71-2.15 3.72 2.15v4.29z"/></g><g class="cls-3"><path class="cls-4" d="M49.88 337.87l-3.71 2.15-3.72-2.15v-4.29l3.72-2.14 3.71 2.14v4.29z"/></g><g class="cls-3"><path class="cls-4" d="M54.12 330.75l-3.72 2.14-3.72-2.14v-4.3l3.72-2.14 3.72 2.14v4.3z"/></g><g class="cls-3"><path class="cls-4" d="M58.25 337.87l-3.72 2.15-3.71-2.15v-4.29l3.71-2.14 3.72 2.14v4.29z"/></g><g class="cls-3"><path class="cls-4" d="M49.88 323.66l-3.71 2.15-3.72-2.15v-4.29l3.72-2.15 3.71 2.15v4.29z"/></g><g class="cls-3"><path class="cls-4" d="M58.25 323.66l-3.72 2.15-3.71-2.15v-4.29l3.71-2.15 3.72 2.15v4.29z"/></g><g class="cls-3"><path class="cls-4" d="M62.39 529.92l-3.72 2.15-3.72-2.15v-4.29l3.72-2.14 3.72 2.14v4.29z"/></g><g class="cls-3"><path class="cls-4" d="M66.62 522.8l-3.72 2.14-3.71-2.14v-4.29l3.71-2.15 3.72 2.15v4.29z"/></g><g class="cls-3"><path class="cls-4" d="M70.75 529.92l-3.72 2.15-3.71-2.15v-4.29l3.71-2.14 3.72 2.14v4.29z"/></g><g class="cls-3"><path class="cls-4" d="M62.39 515.71l-3.72 2.14-3.72-2.14v-4.29l3.72-2.15 3.72 2.15v4.29z"/></g><g class="cls-3"><path class="cls-4" d="M66.62 508.58l-3.72 2.15-3.71-2.15v-4.29l3.71-2.14 3.72 2.14v4.29z"/></g><g class="cls-3"><path class="cls-4" d="M70.75 515.71l-3.72 2.14-3.71-2.14v-4.29l3.71-2.15 3.72 2.15v4.29z"/></g><g class="cls-3"><path class="cls-4" d="M62.39 501.5l-3.72 2.14-3.72-2.14v-4.3l3.72-2.14 3.72 2.14v4.3z"/></g><g class="cls-3"><path class="cls-4" d="M66.62 494.37l-3.72 2.14-3.71-2.14v-4.29l3.71-2.15 3.72 2.15v4.29z"/></g><g class="cls-3"><path class="cls-4" d="M70.75 501.5l-3.72 2.14-3.71-2.14v-4.3l3.71-2.14 3.72 2.14v4.3z"/></g><g class="cls-3"><path class="cls-4" d="M79.01 529.88l-3.71 2.15-3.72-2.15v-4.29l3.72-2.14 3.71 2.14v4.29z"/></g><g class="cls-3"><path class="cls-4" d="M74.78 522.8l-3.72 2.14-3.71-2.14v-4.29l3.71-2.15 3.72 2.15v4.29z"/></g><g class="cls-3"><path class="cls-4" d="M79.01 515.67l-3.71 2.15-3.72-2.15v-4.29l3.72-2.15 3.71 2.15v4.29z"/></g><g class="cls-3"><path class="cls-4" d="M83.14 522.8l-3.71 2.14-3.72-2.14v-4.29l3.72-2.15 3.71 2.15v4.29z"/></g><g class="cls-3"><path class="cls-4" d="M74.78 508.58l-3.72 2.15-3.71-2.15v-4.29l3.71-2.14 3.72 2.14v4.29z"/></g><g class="cls-3"><path class="cls-4" d="M79.01 501.46l-3.71 2.14-3.72-2.14v-4.29l3.72-2.15 3.71 2.15v4.29z"/></g><path class="cls-5" d="M83.14 508.58l-3.71 2.15-3.72-2.15v-4.29l3.72-2.14 3.71 2.14v4.29z"/><g class="cls-3"><path class="cls-4" d="M74.78 494.37l-3.72 2.14-3.71-2.14v-4.29l3.71-2.15 3.72 2.15v4.29z"/></g><g class="cls-3"><path class="cls-4" d="M79.01 487.24l-3.71 2.15-3.72-2.15v-4.29l3.72-2.14 3.71 2.14v4.29z"/></g><g class="cls-3"><path class="cls-4" d="M83.14 494.37l-3.71 2.14-3.72-2.14v-4.29l3.72-2.15 3.71 2.15v4.29z"/></g><g class="cls-3"><path class="cls-4" d="M87.2 529.9l-3.71 2.15-3.72-2.15v-4.29l3.72-2.14 3.71 2.14v4.29z"/></g><g class="cls-3"><path class="cls-4" d="M91.44 522.78l-3.72 2.14-3.72-2.14v-4.29l3.72-2.15 3.72 2.15v4.29z"/></g><g class="cls-3"><path class="cls-4" d="M95.57 529.9l-3.72 2.15-3.71-2.15v-4.29l3.71-2.14 3.72 2.14v4.29z"/></g><g class="cls-3"><path class="cls-4" d="M87.2 515.69l-3.71 2.15-3.72-2.15v-4.29l3.72-2.15 3.71 2.15v4.29z"/></g><g class="cls-3"><path class="cls-4" d="M91.44 508.56l-3.72 2.15-3.72-2.15v-4.29l3.72-2.14 3.72 2.14v4.29z"/></g><g class="cls-3"><path class="cls-4" d="M95.57 515.69l-3.72 2.15-3.71-2.15v-4.29l3.71-2.15 3.72 2.15v4.29z"/></g><g class="cls-3"><path class="cls-4" d="M87.2 501.48l-3.71 2.14-3.72-2.14v-4.29l3.72-2.15 3.71 2.15v4.29z"/></g><g class="cls-3"><path class="cls-4" d="M91.44 494.35l-3.72 2.14-3.72-2.14v-4.29l3.72-2.15 3.72 2.15v4.29z"/></g><g class="cls-3"><path class="cls-4" d="M95.57 501.48l-3.72 2.14-3.71-2.14v-4.29l3.71-2.15 3.72 2.15v4.29z"/></g><g class="cls-3"><path class="cls-4" d="M87.2 487.26l-3.71 2.15-3.72-2.15v-4.29l3.72-2.15 3.71 2.15v4.29z"/></g><g class="cls-3"><path class="cls-4" d="M91.44 480.13l-3.72 2.15-3.72-2.15v-4.29l3.72-2.14 3.72 2.14v4.29z"/></g><g class="cls-3"><path class="cls-4" d="M95.57 487.26l-3.72 2.15-3.71-2.15v-4.29l3.71-2.15 3.72 2.15v4.29z"/></g><g class="cls-3"><path class="cls-4" d="M103.83 529.87l-3.72 2.14-3.71-2.14v-4.3l3.71-2.14 3.72 2.14v4.3z"/></g><g class="cls-3"><path class="cls-4" d="M99.59 522.78l-3.71 2.14-3.72-2.14v-4.29l3.72-2.15 3.71 2.15v4.29z"/></g><g class="cls-3"><path class="cls-4" d="M103.83 515.65l-3.72 2.15-3.71-2.15v-4.29l3.71-2.15 3.72 2.15v4.29z"/></g><g class="cls-3"><path class="cls-4" d="M107.96 522.78l-3.72 2.14-3.71-2.14v-4.29l3.71-2.15 3.72 2.15v4.29z"/></g><g class="cls-3"><path class="cls-4" d="M99.6 508.56l-3.72 2.15-3.72-2.15v-4.29l3.72-2.14 3.72 2.14v4.29z"/></g><g class="cls-3"><path class="cls-4" d="M103.83 501.44l-3.72 2.14-3.71-2.14v-4.29l3.71-2.15 3.72 2.15v4.29z"/></g><g class="cls-3"><path class="cls-4" d="M107.96 508.56l-3.72 2.15-3.71-2.15v-4.29l3.71-2.14 3.72 2.14v4.29z"/></g><g class="cls-3"><path class="cls-4" d="M99.6 494.35l-3.72 2.14-3.72-2.14v-4.29l3.72-2.15 3.72 2.15v4.29z"/></g><g class="cls-3"><path class="cls-4" d="M103.83 487.22l-3.72 2.15-3.71-2.15v-4.29l3.71-2.14 3.72 2.14v4.29z"/></g><g class="cls-3"><path class="cls-4" d="M107.96 494.35l-3.72 2.14-3.71-2.14v-4.29l3.71-2.15 3.72 2.15v4.29z"/></g><g class="cls-3"><path class="cls-4" d="M99.6 480.13l-3.72 2.15-3.72-2.15v-4.29l3.72-2.14 3.72 2.14v4.29z"/></g><g class="cls-3"><path class="cls-4" d="M103.83 473.01l-3.72 2.14-3.71-2.14v-4.29l3.71-2.15 3.72 2.15v4.29z"/></g><g class="cls-3"><path class="cls-4" d="M107.96 480.13l-3.72 2.15-3.71-2.15v-4.29l3.71-2.14 3.72 2.14v4.29z"/></g><g class="cls-3"><path class="cls-4" d="M62.39 487.22l-3.72 2.15-3.72-2.15v-4.29l3.72-2.14 3.72 2.14v4.29z"/></g><g class="cls-3"><path class="cls-4" d="M66.62 480.1l-3.72 2.14-3.71-2.14v-4.29l3.71-2.15 3.72 2.15v4.29z"/></g><g class="cls-3"><path class="cls-4" d="M70.75 487.22l-3.72 2.15-3.71-2.15v-4.29l3.71-2.14 3.72 2.14v4.29z"/></g><g class="cls-3"><path class="cls-4" d="M62.39 473.01l-3.72 2.14-3.72-2.14v-4.29l3.72-2.15 3.72 2.15v4.29z"/></g><g class="cls-3"><path class="cls-4" d="M66.62 465.88l-3.72 2.15-3.71-2.15v-4.29l3.71-2.15 3.72 2.15v4.29z"/></g><g class="cls-3"><path class="cls-4" d="M70.75 473.01l-3.72 2.14-3.71-2.14v-4.29l3.71-2.15 3.72 2.15v4.29z"/></g><g class="cls-3"><path class="cls-4" d="M62.39 458.79l-3.72 2.15-3.72-2.15v-4.29l3.72-2.14 3.72 2.14v4.29z"/></g><g class="cls-3"><path class="cls-4" d="M66.62 451.67l-3.72 2.14-3.71-2.14v-4.29l3.71-2.15 3.72 2.15v4.29z"/></g><g class="cls-3"><path class="cls-4" d="M70.75 458.79l-3.72 2.15-3.71-2.15v-4.29l3.71-2.14 3.72 2.14v4.29z"/></g><g class="cls-3"><path class="cls-4" d="M62.39 444.58l-3.72 2.15-3.72-2.15v-4.29l3.72-2.15 3.72 2.15v4.29z"/></g><g class="cls-3"><path class="cls-4" d="M66.62 437.45l-3.72 2.15-3.71-2.15v-4.29l3.71-2.14 3.72 2.14v4.29z"/></g><g class="cls-3"><path class="cls-4" d="M70.75 444.58l-3.72 2.15-3.71-2.15v-4.29l3.71-2.15 3.72 2.15v4.29z"/></g><path class="cls-2" d="M62.39 430.36l-3.72 2.15-3.72-2.15v-4.29l3.72-2.14 3.72 2.14v4.29z"/><g class="cls-3"><path class="cls-4" d="M66.62 423.24l-3.72 2.14-3.71-2.14v-4.29l3.71-2.15 3.72 2.15v4.29z"/></g><g class="cls-3"><path class="cls-4" d="M70.75 430.36l-3.72 2.15-3.71-2.15v-4.29l3.71-2.14 3.72 2.14v4.29z"/></g><g class="cls-3"><path class="cls-4" d="M62.39 416.15l-3.72 2.15-3.72-2.15v-4.29l3.72-2.15 3.72 2.15v4.29z"/></g><g class="cls-3"><path class="cls-4" d="M66.62 409.02l-3.72 2.15-3.71-2.15v-4.29l3.71-2.14 3.72 2.14v4.29z"/></g><g class="cls-3"><path class="cls-4" d="M70.75 416.15l-3.72 2.15-3.71-2.15v-4.29l3.71-2.15 3.72 2.15v4.29z"/></g><g class="cls-3"><path class="cls-4" d="M74.78 480.1l-3.72 2.14-3.71-2.14v-4.29l3.71-2.15 3.72 2.15v4.29z"/></g><g class="cls-3"><path class="cls-4" d="M79.01 472.97l-3.71 2.14-3.72-2.14v-4.29l3.72-2.15 3.71 2.15v4.29z"/></g><g class="cls-3"><path class="cls-4" d="M83.14 480.1l-3.71 2.14-3.72-2.14v-4.29l3.72-2.15 3.71 2.15v4.29z"/></g><g class="cls-3"><path class="cls-4" d="M74.78 465.88l-3.72 2.15-3.71-2.15v-4.29l3.71-2.15 3.72 2.15v4.29z"/></g><g class="cls-3"><path class="cls-4" d="M79.01 458.75l-3.71 2.15-3.72-2.15v-4.29l3.72-2.14 3.71 2.14v4.29z"/></g><g class="cls-3"><path class="cls-4" d="M83.14 465.88l-3.71 2.15-3.72-2.15v-4.29l3.72-2.15 3.71 2.15v4.29z"/></g><g class="cls-3"><path class="cls-4" d="M74.78 451.67l-3.72 2.14-3.71-2.14v-4.29l3.71-2.15 3.72 2.15v4.29z"/></g><g class="cls-3"><path class="cls-4" d="M79.01 444.54l-3.71 2.15-3.72-2.15v-4.29l3.72-2.15 3.71 2.15v4.29z"/></g><g class="cls-3"><path class="cls-4" d="M83.14 451.67l-3.71 2.14-3.72-2.14v-4.29l3.72-2.15 3.71 2.15v4.29z"/></g><g class="cls-3"><path class="cls-4" d="M74.78 437.45l-3.72 2.15-3.71-2.15v-4.29l3.71-2.14 3.72 2.14v4.29z"/></g><g class="cls-3"><path class="cls-4" d="M79.01 430.33l-3.71 2.14-3.72-2.14v-4.3l3.72-2.14 3.71 2.14v4.3z"/></g><g class="cls-3"><path class="cls-4" d="M83.14 437.45l-3.71 2.15-3.72-2.15v-4.29l3.72-2.14 3.71 2.14v4.29z"/></g><g class="cls-3"><path class="cls-4" d="M74.78 423.24l-3.72 2.14-3.71-2.14v-4.29l3.71-2.15 3.72 2.15v4.29z"/></g><g class="cls-3"><path class="cls-4" d="M79.01 416.11l-3.71 2.15-3.72-2.15v-4.29l3.72-2.15 3.71 2.15v4.29z"/></g><g class="cls-3"><path class="cls-4" d="M83.14 423.24l-3.71 2.14-3.72-2.14v-4.29l3.72-2.15 3.71 2.15v4.29z"/></g><path class="cls-2" d="M74.78 409.02l-3.72 2.15-3.71-2.15v-4.29l3.71-2.14 3.72 2.14v4.29z"/><g class="cls-3"><path class="cls-4" d="M79.01 401.9l-3.71 2.14-3.72-2.14v-4.3l3.72-2.14 3.71 2.14v4.3z"/></g><g class="cls-3"><path class="cls-4" d="M83.14 409.02l-3.71 2.15-3.72-2.15v-4.29l3.72-2.14 3.71 2.14v4.29z"/></g><g class="cls-3"><path class="cls-4" d="M87.2 472.99l-3.71 2.14-3.72-2.14v-4.29l3.72-2.15 3.71 2.15v4.29z"/></g><g class="cls-3"><path class="cls-4" d="M91.44 465.86l-3.72 2.15-3.72-2.15v-4.29l3.72-2.14 3.72 2.14v4.29z"/></g><g class="cls-3"><path class="cls-4" d="M95.57 472.99l-3.72 2.14-3.71-2.14v-4.29l3.71-2.15 3.72 2.15v4.29z"/></g><g class="cls-3"><path class="cls-4" d="M87.2 458.77l-3.71 2.15-3.72-2.15v-4.29l3.72-2.14 3.71 2.14v4.29z"/></g><g class="cls-3"><path class="cls-4" d="M91.44 451.65l-3.72 2.14-3.72-2.14v-4.29l3.72-2.15 3.72 2.15v4.29z"/></g><g class="cls-3"><path class="cls-4" d="M95.57 458.77l-3.72 2.15-3.71-2.15v-4.29l3.71-2.14 3.72 2.14v4.29z"/></g><g class="cls-3"><path class="cls-4" d="M87.2 444.56l-3.71 2.15-3.72-2.15v-4.29l3.72-2.15 3.71 2.15v4.29z"/></g><g class="cls-3"><path class="cls-4" d="M91.44 437.43l-3.72 2.15-3.72-2.15v-4.29l3.72-2.14 3.72 2.14v4.29z"/></g><g class="cls-3"><path class="cls-4" d="M95.57 444.56l-3.72 2.15-3.71-2.15v-4.29l3.71-2.15 3.72 2.15v4.29z"/></g><g class="cls-3"><path class="cls-4" d="M87.2 430.35l-3.71 2.14-3.72-2.14v-4.3l3.72-2.14 3.71 2.14v4.3z"/></g><g class="cls-3"><path class="cls-4" d="M91.44 423.22l-3.72 2.14-3.72-2.14v-4.29l3.72-2.15 3.72 2.15v4.29z"/></g><g class="cls-3"><path class="cls-4" d="M95.57 430.35l-3.72 2.14-3.71-2.14v-4.3l3.71-2.14 3.72 2.14v4.3z"/></g><g class="cls-3"><path class="cls-4" d="M87.2 416.13l-3.71 2.14-3.72-2.14v-4.29l3.72-2.15 3.71 2.15v4.29z"/></g><g class="cls-3"><path class="cls-4" d="M91.44 409l-3.72 2.15L84 409v-4.29l3.72-2.14 3.72 2.14V409z"/></g><g class="cls-3"><path class="cls-4" d="M95.57 416.13l-3.72 2.14-3.71-2.14v-4.29l3.71-2.15 3.72 2.15v4.29z"/></g><g class="cls-3"><path class="cls-4" d="M87.2 401.92l-3.71 2.14-3.72-2.14v-4.29l3.72-2.15 3.71 2.15v4.29z"/></g><g class="cls-3"><path class="cls-4" d="M91.44 394.79l-3.72 2.15-3.72-2.15v-4.29l3.72-2.15 3.72 2.15v4.29z"/></g><g class="cls-3"><path class="cls-4" d="M95.57 401.92l-3.72 2.14-3.71-2.14v-4.29l3.71-2.15 3.72 2.15v4.29z"/></g><g class="cls-3"><path class="cls-4" d="M99.6 465.86l-3.72 2.15-3.72-2.15v-4.29l3.72-2.14 3.72 2.14v4.29z"/></g><g class="cls-3"><path class="cls-4" d="M103.83 458.73l-3.72 2.15-3.71-2.15v-4.29l3.71-2.14 3.72 2.14v4.29z"/></g><g class="cls-3"><path class="cls-4" d="M107.96 465.86l-3.72 2.15-3.71-2.15v-4.29l3.71-2.14 3.72 2.14v4.29z"/></g><g class="cls-3"><path class="cls-4" d="M99.6 451.65l-3.72 2.14-3.72-2.14v-4.29l3.72-2.15 3.72 2.15v4.29z"/></g><g class="cls-3"><path class="cls-4" d="M103.83 444.52l-3.72 2.15-3.71-2.15v-4.29l3.71-2.15 3.72 2.15v4.29z"/></g><g class="cls-3"><path class="cls-4" d="M107.96 451.65l-3.72 2.14-3.71-2.14v-4.29l3.71-2.15 3.72 2.15v4.29z"/></g><g class="cls-3"><path class="cls-4" d="M99.6 437.43l-3.72 2.15-3.72-2.15v-4.29l3.72-2.14 3.72 2.14v4.29z"/></g><g class="cls-3"><path class="cls-4" d="M103.83 430.31l-3.72 2.14-3.71-2.14v-4.3l3.71-2.14 3.72 2.14v4.3z"/></g><g class="cls-3"><path class="cls-4" d="M107.96 437.43l-3.72 2.15-3.71-2.15v-4.29l3.71-2.14 3.72 2.14v4.29z"/></g><g class="cls-3"><path class="cls-4" d="M99.6 423.22l-3.72 2.14-3.72-2.14v-4.29l3.72-2.15 3.72 2.15v4.29z"/></g><g class="cls-3"><path class="cls-4" d="M103.83 416.09l-3.72 2.15-3.71-2.15v-4.29l3.71-2.15 3.72 2.15v4.29z"/></g><g class="cls-3"><path class="cls-4" d="M107.96 423.22l-3.72 2.14-3.71-2.14v-4.29l3.71-2.15 3.72 2.15v4.29z"/></g><g class="cls-3"><path class="cls-4" d="M99.6 409l-3.72 2.15-3.72-2.15v-4.29l3.72-2.14 3.72 2.14V409z"/></g><g class="cls-3"><path class="cls-4" d="M103.83 401.88l-3.72 2.14-3.71-2.14v-4.29l3.71-2.15 3.72 2.15v4.29z"/></g><g class="cls-3"><path class="cls-4" d="M107.96 409l-3.72 2.15-3.71-2.15v-4.29l3.71-2.14 3.72 2.14V409z"/></g><g class="cls-3"><path class="cls-4" d="M99.6 394.79l-3.72 2.15-3.72-2.15v-4.29l3.72-2.15 3.72 2.15v4.29z"/></g><g class="cls-3"><path class="cls-4" d="M103.83 387.66l-3.72 2.15-3.71-2.15v-4.29l3.71-2.14 3.72 2.14v4.29z"/></g><g class="cls-3"><path class="cls-4" d="M107.96 394.79l-3.72 2.15-3.71-2.15v-4.29l3.71-2.15 3.72 2.15v4.29z"/></g><g class="cls-3"><path class="cls-4" d="M62.39 401.88l-3.72 2.14-3.72-2.14v-4.29l3.72-2.15 3.72 2.15v4.29z"/></g><g class="cls-3"><path class="cls-4" d="M66.62 394.75l-3.72 2.15-3.71-2.15v-4.29l3.71-2.15 3.72 2.15v4.29z"/></g><g class="cls-3"><path class="cls-4" d="M70.75 401.88l-3.72 2.14-3.71-2.14v-4.29l3.71-2.15 3.72 2.15v4.29z"/></g><g class="cls-3"><path class="cls-4" d="M62.39 387.66l-3.72 2.15-3.72-2.15v-4.29l3.72-2.14 3.72 2.14v4.29z"/></g><g class="cls-3"><path class="cls-4" d="M66.62 380.54l-3.72 2.14-3.71-2.14v-4.29l3.71-2.15 3.72 2.15v4.29z"/></g><g class="cls-3"><path class="cls-4" d="M70.75 387.66l-3.72 2.15-3.71-2.15v-4.29l3.71-2.14 3.72 2.14v4.29z"/></g><g class="cls-3"><path class="cls-4" d="M62.39 373.45l-3.72 2.14-3.72-2.14v-4.29l3.72-2.15 3.72 2.15v4.29z"/></g><g class="cls-3"><path class="cls-4" d="M66.62 366.32l-3.72 2.15-3.71-2.15v-4.29l3.71-2.15 3.72 2.15v4.29z"/></g><g class="cls-3"><path class="cls-4" d="M70.75 373.45l-3.72 2.14-3.71-2.14v-4.29l3.71-2.15 3.72 2.15v4.29z"/></g><g class="cls-3"><path class="cls-4" d="M62.39 359.23l-3.72 2.15-3.72-2.15v-4.29l3.72-2.14 3.72 2.14v4.29z"/></g><g class="cls-3"><path class="cls-4" d="M66.62 352.11l-3.72 2.14-3.71-2.14v-4.29l3.71-2.15 3.72 2.15v4.29z"/></g><g class="cls-3"><path class="cls-4" d="M70.75 359.23l-3.72 2.15-3.71-2.15v-4.29l3.71-2.14 3.72 2.14v4.29z"/></g><g class="cls-3"><path class="cls-4" d="M62.39 345.02l-3.72 2.15-3.72-2.15v-4.29l3.72-2.15 3.72 2.15v4.29z"/></g><g class="cls-3"><path class="cls-4" d="M66.62 337.89l-3.72 2.15-3.71-2.15v-4.29l3.71-2.14 3.72 2.14v4.29z"/></g><g class="cls-3"><path class="cls-4" d="M70.75 345.02l-3.72 2.15-3.71-2.15v-4.29l3.71-2.15 3.72 2.15v4.29z"/></g><g class="cls-3"><path class="cls-4" d="M62.39 330.81l-3.72 2.14-3.72-2.14v-4.3l3.72-2.14 3.72 2.14v4.3z"/></g><g class="cls-3"><path class="cls-4" d="M66.62 323.68l-3.72 2.14-3.71-2.14v-4.29l3.71-2.15 3.72 2.15v4.29z"/></g><g class="cls-3"><path class="cls-4" d="M70.75 330.81l-3.72 2.14-3.71-2.14v-4.3l3.71-2.14 3.72 2.14v4.3z"/></g><g class="cls-3"><path class="cls-4" d="M74.78 394.75l-3.72 2.15-3.71-2.15v-4.29l3.71-2.15 3.72 2.15v4.29z"/></g><g class="cls-3"><path class="cls-4" d="M79.01 387.62l-3.71 2.15-3.72-2.15v-4.29l3.72-2.14 3.71 2.14v4.29z"/></g><g class="cls-3"><path class="cls-4" d="M83.14 394.75l-3.71 2.15-3.72-2.15v-4.29l3.72-2.15 3.71 2.15v4.29z"/></g><g class="cls-3"><path class="cls-4" d="M74.78 380.54l-3.72 2.14-3.71-2.14v-4.29l3.71-2.15 3.72 2.15v4.29z"/></g><g class="cls-3"><path class="cls-4" d="M79.01 373.41l-3.71 2.15-3.72-2.15v-4.29l3.72-2.15 3.71 2.15v4.29z"/></g><g class="cls-3"><path class="cls-4" d="M83.14 380.54l-3.71 2.14-3.72-2.14v-4.29l3.72-2.15 3.71 2.15v4.29z"/></g><g class="cls-3"><path class="cls-4" d="M74.78 366.32l-3.72 2.15-3.71-2.15v-4.29l3.71-2.15 3.72 2.15v4.29z"/></g><g class="cls-3"><path class="cls-4" d="M79.01 359.19l-3.71 2.15-3.72-2.15v-4.29l3.72-2.14 3.71 2.14v4.29z"/></g><g class="cls-3"><path class="cls-4" d="M83.14 366.32l-3.71 2.15-3.72-2.15v-4.29l3.72-2.15 3.71 2.15v4.29z"/></g><g class="cls-3"><path class="cls-4" d="M74.78 352.11l-3.72 2.14-3.71-2.14v-4.29l3.71-2.15 3.72 2.15v4.29z"/></g><g class="cls-3"><path class="cls-4" d="M79.01 344.98l-3.71 2.15-3.72-2.15v-4.29l3.72-2.15 3.71 2.15v4.29z"/></g><g class="cls-3"><path class="cls-4" d="M83.14 352.11l-3.71 2.14-3.72-2.14v-4.29l3.72-2.15 3.71 2.15v4.29z"/></g><g class="cls-3"><path class="cls-4" d="M74.78 337.89l-3.72 2.15-3.71-2.15v-4.29l3.71-2.14 3.72 2.14v4.29z"/></g><g class="cls-3"><path class="cls-4" d="M79.01 330.77l-3.71 2.14-3.72-2.14v-4.29l3.72-2.15 3.71 2.15v4.29z"/></g><g class="cls-3"><path class="cls-4" d="M83.14 337.89l-3.71 2.15-3.72-2.15v-4.29l3.72-2.14 3.71 2.14v4.29z"/></g><g class="cls-3"><path class="cls-4" d="M74.78 323.68l-3.72 2.14-3.71-2.14v-4.29l3.71-2.15 3.72 2.15v4.29z"/></g><g class="cls-3"><path class="cls-4" d="M83.14 323.68l-3.71 2.14-3.72-2.14v-4.29l3.72-2.15 3.71 2.15v4.29z"/></g><path class="cls-2" d="M87.2 387.64l-3.71 2.15-3.72-2.15v-4.29l3.72-2.14 3.71 2.14v4.29z"/><g class="cls-3"><path class="cls-4" d="M91.44 380.52l-3.72 2.14-3.72-2.14v-4.29l3.72-2.15 3.72 2.15v4.29z"/></g><g class="cls-3"><path class="cls-4" d="M95.57 387.64l-3.72 2.15-3.71-2.15v-4.29l3.71-2.14 3.72 2.14v4.29z"/></g><g class="cls-3"><path class="cls-4" d="M87.2 373.43l-3.71 2.14-3.72-2.14v-4.29l3.72-2.15 3.71 2.15v4.29z"/></g><g class="cls-3"><path class="cls-4" d="M91.44 366.3l-3.72 2.15L84 366.3v-4.29l3.72-2.14 3.72 2.14v4.29z"/></g><path class="cls-2" d="M95.57 373.43l-3.72 2.14-3.71-2.14v-4.29l3.71-2.15 3.72 2.15v4.29z"/><g class="cls-3"><path class="cls-4" d="M87.2 359.21l-3.71 2.15-3.72-2.15v-4.29l3.72-2.14 3.71 2.14v4.29z"/></g><g class="cls-3"><path class="cls-4" d="M91.44 352.09l-3.72 2.14-3.72-2.14v-4.29l3.72-2.15 3.72 2.15v4.29z"/></g><g class="cls-3"><path class="cls-4" d="M95.57 359.21l-3.72 2.15-3.71-2.15v-4.29l3.71-2.14 3.72 2.14v4.29z"/></g><g class="cls-3"><path class="cls-4" d="M87.2 345l-3.71 2.15-3.72-2.15v-4.29l3.72-2.15 3.71 2.15V345z"/></g><g class="cls-3"><path class="cls-4" d="M91.44 337.87l-3.72 2.15-3.72-2.15v-4.29l3.72-2.14 3.72 2.14v4.29z"/></g><g class="cls-3"><path class="cls-4" d="M95.57 345l-3.72 2.15-3.71-2.15v-4.29l3.71-2.15 3.72 2.15V345z"/></g><g class="cls-3"><path class="cls-4" d="M87.2 330.79l-3.71 2.14-3.72-2.14v-4.29l3.72-2.15 3.71 2.15v4.29z"/></g><g class="cls-3"><path class="cls-4" d="M91.44 323.66l-3.72 2.15-3.72-2.15v-4.29l3.72-2.15 3.72 2.15v4.29z"/></g><path class="cls-2" d="M95.57 330.79l-3.72 2.14-3.71-2.14v-4.29l3.71-2.15 3.72 2.15v4.29z"/><g class="cls-3"><path class="cls-4" d="M99.6 380.52l-3.72 2.14-3.72-2.14v-4.29l3.72-2.15 3.72 2.15v4.29z"/></g><g class="cls-3"><path class="cls-4" d="M103.83 373.39l-3.72 2.15-3.71-2.15v-4.29l3.71-2.15 3.72 2.15v4.29z"/></g><g class="cls-3"><path class="cls-4" d="M107.96 380.52l-3.72 2.14-3.71-2.14v-4.29l3.71-2.15 3.72 2.15v4.29z"/></g><g class="cls-3"><path class="cls-4" d="M99.6 366.3l-3.72 2.15-3.72-2.15v-4.29l3.72-2.14 3.72 2.14v4.29z"/></g><g class="cls-3"><path class="cls-4" d="M103.83 359.18l-3.72 2.14-3.71-2.14v-4.3l3.71-2.14 3.72 2.14v4.3z"/></g><g class="cls-3"><path class="cls-4" d="M107.96 366.3l-3.72 2.15-3.71-2.15v-4.29l3.71-2.14 3.72 2.14v4.29z"/></g><path class="cls-5" d="M99.6 352.09l-3.72 2.14-3.72-2.14v-4.29l3.72-2.15 3.72 2.15v4.29z"/><g class="cls-3"><path class="cls-4" d="M103.83 344.96l-3.72 2.15-3.71-2.15v-4.29l3.71-2.15 3.72 2.15v4.29z"/></g><g class="cls-3"><path class="cls-4" d="M107.96 352.09l-3.72 2.14-3.71-2.14v-4.29l3.71-2.15 3.72 2.15v4.29z"/></g><g class="cls-3"><path class="cls-4" d="M99.6 337.87l-3.72 2.15-3.72-2.15v-4.29l3.72-2.14 3.72 2.14v4.29z"/></g><g class="cls-3"><path class="cls-4" d="M103.83 330.75l-3.72 2.14-3.71-2.14v-4.3l3.71-2.14 3.72 2.14v4.3z"/></g><g class="cls-3"><path class="cls-4" d="M107.96 337.87l-3.72 2.15-3.71-2.15v-4.29l3.71-2.14 3.72 2.14v4.29z"/></g><g class="cls-3"><path class="cls-4" d="M99.6 323.66l-3.72 2.15-3.72-2.15v-4.29l3.72-2.15 3.72 2.15v4.29z"/></g><g class="cls-3"><path class="cls-4" d="M107.96 323.66l-3.72 2.15-3.71-2.15v-4.29l3.71-2.15 3.72 2.15v4.29z"/></g><g class="cls-3"><path class="cls-4" d="M21.14 316.46l-3.71 2.14-3.72-2.14v-4.29l3.72-2.15 3.71 2.15v4.29z"/></g><g class="cls-3"><path class="cls-4" d="M16.91 309.37l-3.72 2.15-3.71-2.15v-4.29l3.71-2.14 3.72 2.14v4.29z"/></g><g class="cls-3"><path class="cls-4" d="M21.14 302.25l-3.71 2.14-3.72-2.14v-4.3l3.72-2.14 3.71 2.14v4.3z"/></g><g class="cls-3"><path class="cls-4" d="M25.27 309.37l-3.71 2.15-3.72-2.15v-4.29l3.72-2.14 3.71 2.14v4.29z"/></g><g class="cls-3"><path class="cls-4" d="M16.91 295.16l-3.72 2.14-3.71-2.14v-4.29l3.71-2.15 3.72 2.15v4.29z"/></g><g class="cls-3"><path class="cls-4" d="M21.14 288.03l-3.71 2.15-3.72-2.15v-4.29l3.72-2.14 3.71 2.14v4.29z"/></g><g class="cls-3"><path class="cls-4" d="M25.27 295.16l-3.71 2.14-3.72-2.14v-4.29l3.72-2.15 3.71 2.15v4.29z"/></g><g class="cls-3"><path class="cls-4" d="M16.91 280.94l-3.72 2.15-3.71-2.15v-4.29l3.71-2.14 3.72 2.14v4.29z"/></g><g class="cls-3"><path class="cls-4" d="M21.14 273.82l-3.71 2.14-3.72-2.14v-4.3l3.72-2.14 3.71 2.14v4.3z"/></g><g class="cls-3"><path class="cls-4" d="M25.27 280.94l-3.71 2.15-3.72-2.15v-4.29l3.72-2.14 3.71 2.14v4.29z"/></g><g class="cls-3"><path class="cls-4" d="M16.91 266.73l-3.72 2.14-3.71-2.14v-4.29l3.71-2.15 3.72 2.15v4.29z"/></g><g class="cls-3"><path class="cls-4" d="M21.14 259.6l-3.71 2.15-3.72-2.15v-4.29l3.72-2.14 3.71 2.14v4.29z"/></g><g class="cls-3"><path class="cls-4" d="M25.27 266.73l-3.71 2.14-3.72-2.14v-4.29l3.72-2.15 3.71 2.15v4.29z"/></g><g class="cls-3"><path class="cls-4" d="M29.3 316.46l-3.71 2.14-3.72-2.14v-4.29l3.72-2.15 3.71 2.15v4.29z"/></g><g class="cls-3"><path class="cls-4" d="M33.53 309.33l-3.71 2.15-3.72-2.15v-4.29l3.72-2.14 3.71 2.14v4.29z"/></g><g class="cls-3"><path class="cls-4" d="M37.67 316.46l-3.72 2.14-3.72-2.14v-4.29l3.72-2.15 3.72 2.15v4.29z"/></g><g class="cls-3"><path class="cls-4" d="M29.3 302.25l-3.71 2.14-3.72-2.14v-4.3l3.72-2.14 3.71 2.14v4.3z"/></g><g class="cls-3"><path class="cls-4" d="M33.53 295.12l-3.71 2.14-3.72-2.14v-4.29l3.72-2.15 3.71 2.15v4.29z"/></g><g class="cls-3"><path class="cls-4" d="M37.67 302.25l-3.72 2.14-3.72-2.14v-4.3l3.72-2.14 3.72 2.14v4.3z"/></g><g class="cls-3"><path class="cls-4" d="M29.3 288.03l-3.71 2.15-3.72-2.15v-4.29l3.72-2.14 3.71 2.14v4.29z"/></g><g class="cls-3"><path class="cls-4" d="M33.53 280.9l-3.71 2.15-3.72-2.15v-4.29l3.72-2.14 3.71 2.14v4.29z"/></g><g class="cls-3"><path class="cls-4" d="M37.67 288.03l-3.72 2.15-3.72-2.15v-4.29l3.72-2.14 3.72 2.14v4.29z"/></g><g class="cls-3"><path class="cls-4" d="M29.3 273.82l-3.71 2.14-3.72-2.14v-4.3l3.72-2.14 3.71 2.14v4.3z"/></g><g class="cls-3"><path class="cls-4" d="M33.53 266.69l-3.71 2.14-3.72-2.14v-4.29l3.72-2.15 3.71 2.15v4.29z"/></g><g class="cls-3"><path class="cls-4" d="M37.67 273.82l-3.72 2.14-3.72-2.14v-4.3l3.72-2.14 3.72 2.14v4.3z"/></g><g class="cls-3"><path class="cls-4" d="M29.3 259.6l-3.71 2.15-3.72-2.15v-4.29l3.72-2.14 3.71 2.14v4.29z"/></g><g class="cls-3"><path class="cls-4" d="M33.53 252.47l-3.71 2.15-3.72-2.15v-4.29l3.72-2.14 3.71 2.14v4.29z"/></g><g class="cls-3"><path class="cls-4" d="M37.67 259.6l-3.72 2.15-3.72-2.15v-4.29l3.72-2.14 3.72 2.14v4.29z"/></g><g class="cls-3"><path class="cls-4" d="M45.96 316.44l-3.72 2.14-3.72-2.14v-4.29l3.72-2.15 3.72 2.15v4.29z"/></g><g class="cls-3"><path class="cls-4" d="M41.73 309.35l-3.72 2.15-3.72-2.15v-4.29l3.72-2.14 3.72 2.14v4.29z"/></g><g class="cls-3"><path class="cls-4" d="M45.96 302.23l-3.72 2.14-3.72-2.14v-4.29l3.72-2.15 3.72 2.15v4.29z"/></g><g class="cls-3"><path class="cls-4" d="M50.09 309.35l-3.72 2.15-3.71-2.15v-4.29l3.71-2.14 3.72 2.14v4.29z"/></g><g class="cls-3"><path class="cls-4" d="M41.73 295.14l-3.72 2.14-3.72-2.14v-4.29l3.72-2.15 3.72 2.15v4.29z"/></g><g class="cls-3"><path class="cls-4" d="M45.96 288.01l-3.72 2.15-3.72-2.15.01-4.29 3.71-2.15 3.72 2.15v4.29z"/></g><g class="cls-3"><path class="cls-4" d="M50.09 295.14l-3.72 2.14-3.71-2.14v-4.29l3.71-2.15 3.72 2.15v4.29z"/></g><g class="cls-3"><path class="cls-4" d="M41.73 280.92l-3.72 2.15-3.72-2.15v-4.29l3.72-2.14 3.72 2.14v4.29z"/></g><g class="cls-3"><path class="cls-4" d="M45.96 273.8l-3.72 2.14-3.71-2.14v-4.3l3.71-2.14 3.72 2.14v4.3z"/></g><g class="cls-3"><path class="cls-4" d="M50.09 280.92l-3.72 2.15-3.71-2.15v-4.29l3.71-2.14 3.72 2.14v4.29z"/></g><g class="cls-3"><path class="cls-4" d="M41.73 266.71l-3.72 2.14-3.72-2.14v-4.29l3.72-2.15 3.72 2.15v4.29z"/></g><g class="cls-3"><path class="cls-4" d="M45.96 259.58l-3.72 2.15-3.71-2.15v-4.29l3.71-2.14 3.72 2.14v4.29z"/></g><g class="cls-3"><path class="cls-4" d="M50.09 266.71l-3.72 2.14-3.71-2.14v-4.29l3.71-2.15 3.72 2.15v4.29z"/></g><g class="cls-3"><path class="cls-4" d="M41.73 252.5l-3.72 2.14-3.72-2.14v-4.3l3.72-2.14 3.72 2.14v4.3z"/></g><g class="cls-3"><path class="cls-4" d="M45.96 245.37l-3.72 2.14-3.71-2.14v-4.29l3.71-2.15 3.72 2.15v4.29z"/></g><g class="cls-3"><path class="cls-4" d="M50.09 252.5l-3.72 2.14-3.71-2.14v-4.3l3.71-2.14 3.72 2.14v4.3z"/></g><g class="cls-3"><path class="cls-4" d="M54.12 316.44l-3.72 2.14-3.72-2.14v-4.29L50.4 310l3.72 2.15v4.29z"/></g><g class="cls-3"><path class="cls-4" d="M58.35 309.31l-3.71 2.15-3.72-2.15v-4.29l3.72-2.14 3.71 2.14v4.29z"/></g><g class="cls-3"><path class="cls-4" d="M62.48 316.44l-3.71 2.14-3.72-2.14v-4.29l3.72-2.15 3.71 2.15v4.29z"/></g><g class="cls-3"><path class="cls-4" d="M54.12 302.23l-3.72 2.14-3.72-2.14v-4.29l3.72-2.15 3.72 2.15v4.29z"/></g><g class="cls-3"><path class="cls-4" d="M58.35 295.1l-3.71 2.15-3.72-2.15v-4.29l3.72-2.15 3.71 2.15v4.29z"/></g><g class="cls-3"><path class="cls-4" d="M62.48 302.23l-3.71 2.14-3.72-2.14v-4.29l3.72-2.15 3.71 2.15v4.29z"/></g><g class="cls-3"><path class="cls-4" d="M54.12 288.01l-3.72 2.15-3.72-2.15v-4.29l3.72-2.15 3.72 2.15v4.29z"/></g><g class="cls-3"><path class="cls-4" d="M58.35 280.88l-3.71 2.15-3.72-2.15v-4.29l3.72-2.14 3.71 2.14v4.29z"/></g><g class="cls-3"><path class="cls-4" d="M62.48 288.01l-3.71 2.15-3.72-2.15v-4.29l3.72-2.15 3.71 2.15v4.29z"/></g><g class="cls-3"><path class="cls-4" d="M54.12 273.8l-3.72 2.14-3.72-2.14v-4.3l3.72-2.14 3.72 2.14v4.3z"/></g><g class="cls-3"><path class="cls-4" d="M58.35 266.67l-3.71 2.14-3.72-2.14v-4.29l3.72-2.15 3.71 2.15v4.29z"/></g><g class="cls-3"><path class="cls-4" d="M62.48 273.8l-3.71 2.14-3.72-2.14v-4.3l3.72-2.14 3.71 2.14v4.3z"/></g><g class="cls-3"><path class="cls-4" d="M54.12 259.58l-3.72 2.15-3.72-2.15v-4.29l3.72-2.14 3.72 2.14v4.29z"/></g><path class="cls-2" d="M58.35 252.46l-3.71 2.14-3.72-2.14v-4.3l3.72-2.14 3.71 2.14v4.3z"/><g class="cls-3"><path class="cls-4" d="M62.48 259.58l-3.71 2.15-3.72-2.15v-4.29l3.72-2.14 3.71 2.14v4.29z"/></g><g class="cls-3"><path class="cls-4" d="M54.12 245.37l-3.72 2.14-3.72-2.14v-4.29l3.72-2.15 3.72 2.15v4.29z"/></g><g class="cls-3"><path class="cls-4" d="M58.35 238.24l-3.71 2.15-3.72-2.15v-4.29l3.72-2.14 3.71 2.14v4.29z"/></g><g class="cls-3"><path class="cls-4" d="M62.48 245.37l-3.71 2.14-3.72-2.14v-4.29l3.72-2.15 3.71 2.15v4.29z"/></g><g class="cls-3"><path class="cls-4" d="M16.91 252.46l-3.72 2.14-3.71-2.14v-4.3l3.71-2.14 3.72 2.14v4.3z"/></g><g class="cls-3"><path class="cls-4" d="M21.14 245.33l-3.71 2.14-3.72-2.14v-4.29l3.72-2.15 3.71 2.15v4.29z"/></g><g class="cls-3"><path class="cls-4" d="M25.27 252.46l-3.71 2.14-3.72-2.14v-4.3l3.72-2.14 3.71 2.14v4.3z"/></g><g class="cls-3"><path class="cls-4" d="M16.91 238.24l-3.72 2.15-3.71-2.15v-4.29l3.71-2.14 3.72 2.14v4.29z"/></g><g class="cls-3"><path class="cls-4" d="M21.14 231.12l-3.71 2.14-3.72-2.14v-4.3l3.72-2.14 3.71 2.14v4.3z"/></g><g class="cls-3"><path class="cls-4" d="M25.27 238.24l-3.71 2.15-3.72-2.15v-4.29l3.72-2.14 3.71 2.14v4.29z"/></g><g class="cls-3"><path class="cls-4" d="M16.91 224.03l-3.72 2.14-3.71-2.14v-4.29l3.71-2.15 3.72 2.15v4.29z"/></g><g class="cls-3"><path class="cls-4" d="M21.14 216.9l-3.71 2.14-3.72-2.14v-4.29l3.72-2.15 3.71 2.15v4.29z"/></g><g class="cls-3"><path class="cls-4" d="M25.27 224.03l-3.71 2.14-3.72-2.14v-4.29l3.72-2.15 3.71 2.15v4.29z"/></g><g class="cls-3"><path class="cls-4" d="M16.91 209.81l-3.72 2.15-3.71-2.15v-4.29l3.71-2.14 3.72 2.14v4.29z"/></g><g class="cls-3"><path class="cls-4" d="M21.14 202.69l-3.71 2.14-3.72-2.14v-4.3l3.72-2.14 3.71 2.14v4.3z"/></g><g class="cls-3"><path class="cls-4" d="M25.27 209.81l-3.71 2.15-3.72-2.15v-4.29l3.72-2.14 3.71 2.14v4.29z"/></g><g class="cls-3"><path class="cls-4" d="M16.91 195.6l-3.72 2.14-3.71-2.14v-4.29l3.71-2.15 3.72 2.15v4.29z"/></g><g class="cls-3"><path class="cls-4" d="M21.14 188.47l-3.71 2.15-3.72-2.15v-4.29l3.72-2.15 3.71 2.15v4.29z"/></g><g class="cls-3"><path class="cls-4" d="M25.27 195.6l-3.71 2.14-3.72-2.14v-4.29l3.72-2.15 3.71 2.15v4.29z"/></g><g class="cls-3"><path class="cls-4" d="M16.91 181.38l-3.72 2.15-3.71-2.15v-4.29l3.71-2.14 3.72 2.14v4.29z"/></g><g class="cls-3"><path class="cls-4" d="M21.14 174.26l-3.71 2.14-3.72-2.14v-4.29l3.72-2.15 3.71 2.15v4.29z"/></g><g class="cls-3"><path class="cls-4" d="M25.27 181.38l-3.71 2.15-3.72-2.15v-4.29l3.72-2.14 3.71 2.14v4.29z"/></g><g class="cls-3"><path class="cls-4" d="M29.3 245.33l-3.71 2.14-3.72-2.14v-4.29l3.72-2.15 3.71 2.15v4.29z"/></g><g class="cls-3"><path class="cls-4" d="M33.53 238.2l-3.71 2.15-3.72-2.15v-4.29l3.72-2.14 3.71 2.14v4.29z"/></g><g class="cls-3"><path class="cls-4" d="M37.67 245.33l-3.72 2.14-3.72-2.14v-4.29l3.72-2.15 3.72 2.15v4.29z"/></g><g class="cls-3"><path class="cls-4" d="M29.3 231.12l-3.71 2.14-3.72-2.14v-4.3l3.72-2.14 3.71 2.14v4.3z"/></g><g class="cls-3"><path class="cls-4" d="M33.53 223.99l-3.71 2.14-3.72-2.14v-4.29l3.72-2.15 3.71 2.15v4.29z"/></g><g class="cls-3"><path class="cls-4" d="M37.67 231.12l-3.72 2.14-3.72-2.14v-4.3l3.72-2.14 3.72 2.14v4.3z"/></g><g class="cls-3"><path class="cls-4" d="M29.3 216.9l-3.71 2.14-3.72-2.14v-4.29l3.72-2.15 3.71 2.15v4.29z"/></g><g class="cls-3"><path class="cls-4" d="M33.53 209.77l-3.71 2.15-3.72-2.15v-4.29l3.72-2.14 3.71 2.14v4.29z"/></g><g class="cls-3"><path class="cls-4" d="M37.67 216.9l-3.72 2.14-3.72-2.14v-4.29l3.72-2.15 3.72 2.15v4.29z"/></g><g class="cls-3"><path class="cls-4" d="M29.3 202.69l-3.71 2.14-3.72-2.14v-4.3l3.72-2.14 3.71 2.14v4.3z"/></g><g class="cls-3"><path class="cls-4" d="M33.53 195.56l-3.71 2.15-3.72-2.15v-4.29l3.72-2.15 3.71 2.15v4.29z"/></g><g class="cls-3"><path class="cls-4" d="M37.67 202.69l-3.72 2.14-3.72-2.14v-4.3l3.72-2.14 3.72 2.14v4.3z"/></g><g class="cls-3"><path class="cls-4" d="M29.3 188.47l-3.71 2.15-3.72-2.15v-4.29l3.72-2.15 3.71 2.15v4.29z"/></g><g class="cls-3"><path class="cls-4" d="M33.53 181.34l-3.71 2.15-3.72-2.15v-4.29l3.72-2.14 3.71 2.14v4.29z"/></g><g class="cls-3"><path class="cls-4" d="M37.67 188.47l-3.72 2.15-3.72-2.15v-4.29l3.72-2.15 3.72 2.15v4.29z"/></g><g class="cls-3"><path class="cls-4" d="M29.3 174.26l-3.71 2.14-3.72-2.14v-4.29l3.72-2.15 3.71 2.15v4.29z"/></g><g class="cls-3"><path class="cls-4" d="M33.53 167.13l-3.71 2.14-3.72-2.14v-4.29l3.72-2.15 3.71 2.15v4.29z"/></g><g class="cls-3"><path class="cls-4" d="M37.67 174.26l-3.72 2.14-3.72-2.14v-4.29l3.72-2.15 3.72 2.15v4.29z"/></g><g class="cls-3"><path class="cls-4" d="M41.73 238.22l-3.72 2.15-3.72-2.15v-4.29l3.72-2.15 3.72 2.15v4.29z"/></g><g class="cls-3"><path class="cls-4" d="M45.96 231.1l-3.72 2.14-3.71-2.14v-4.29l3.71-2.15 3.72 2.15v4.29z"/></g><g class="cls-3"><path class="cls-4" d="M50.09 238.22l-3.72 2.15-3.71-2.15v-4.29l3.71-2.15 3.72 2.15v4.29z"/></g><g class="cls-3"><path class="cls-4" d="M41.73 224.01l-3.72 2.14-3.72-2.14v-4.29l3.72-2.15 3.72 2.15v4.29z"/></g><g class="cls-3"><path class="cls-4" d="M45.96 216.88l-3.72 2.15-3.71-2.15v-4.29l3.71-2.15 3.72 2.15v4.29z"/></g><g class="cls-3"><path class="cls-4" d="M50.09 224.01l-3.72 2.14-3.71-2.14v-4.29l3.71-2.15 3.72 2.15v4.29z"/></g><g class="cls-3"><path class="cls-4" d="M41.73 209.79l-3.72 2.15-3.72-2.15v-4.29l3.72-2.14 3.72 2.14v4.29z"/></g><g class="cls-3"><path class="cls-4" d="M45.96 202.67l-3.72 2.14-3.71-2.14v-4.29l3.71-2.15 3.72 2.15v4.29z"/></g><path class="cls-5" d="M50.09 209.79l-3.72 2.15-3.71-2.15v-4.29l3.71-2.14 3.72 2.14v4.29z"/><g class="cls-3"><path class="cls-4" d="M41.73 195.58l-3.72 2.14-3.72-2.14v-4.29l3.72-2.15 3.72 2.15v4.29z"/></g><g class="cls-3"><path class="cls-4" d="M45.96 188.45l-3.72 2.15-3.71-2.15v-4.29l3.71-2.15 3.72 2.15v4.29z"/></g><g class="cls-3"><path class="cls-4" d="M50.09 195.58l-3.72 2.14-3.71-2.14v-4.29l3.71-2.15 3.72 2.15v4.29z"/></g><g class="cls-3"><path class="cls-4" d="M41.73 181.37l-3.72 2.14-3.72-2.14v-4.3l3.72-2.14 3.72 2.14v4.3z"/></g><g class="cls-3"><path class="cls-4" d="M45.96 174.24l-3.72 2.14-3.71-2.14v-4.29l3.71-2.15 3.72 2.15v4.29z"/></g><g class="cls-3"><path class="cls-4" d="M50.09 181.37l-3.72 2.14-3.71-2.14v-4.3l3.71-2.14 3.72 2.14v4.3z"/></g><g class="cls-3"><path class="cls-4" d="M41.73 167.15l-3.72 2.14-3.72-2.14v-4.29l3.72-2.15 3.72 2.15v4.29z"/></g><g class="cls-3"><path class="cls-4" d="M45.96 160.02l-3.72 2.15-3.71-2.15v-4.29l3.71-2.14 3.72 2.14v4.29z"/></g><g class="cls-3"><path class="cls-4" d="M50.09 167.15l-3.72 2.14-3.71-2.14v-4.29l3.71-2.15 3.72 2.15v4.29z"/></g><path class="cls-2" d="M54.12 231.1l-3.72 2.14-3.72-2.14v-4.29l3.72-2.15 3.72 2.15v4.29z"/><g class="cls-3"><path class="cls-4" d="M58.35 223.97l-3.71 2.14-3.72-2.14v-4.29l3.72-2.15 3.71 2.15v4.29z"/></g><g class="cls-3"><path class="cls-4" d="M62.48 231.1l-3.71 2.14-3.72-2.14v-4.29l3.72-2.15 3.71 2.15v4.29z"/></g><g class="cls-3"><path class="cls-4" d="M54.12 216.88l-3.72 2.15-3.72-2.15v-4.29l3.72-2.15 3.72 2.15v4.29z"/></g><g class="cls-3"><path class="cls-4" d="M58.35 209.75l-3.71 2.15-3.72-2.15v-4.29l3.72-2.14 3.71 2.14v4.29z"/></g><g class="cls-3"><path class="cls-4" d="M62.48 216.88l-3.71 2.15-3.72-2.15v-4.29l3.72-2.15 3.71 2.15v4.29z"/></g><g class="cls-3"><path class="cls-4" d="M54.12 202.67l-3.72 2.14-3.72-2.14v-4.29l3.72-2.15 3.72 2.15v4.29z"/></g><g class="cls-3"><path class="cls-4" d="M58.35 195.54l-3.71 2.15-3.72-2.15v-4.29l3.72-2.15 3.71 2.15v4.29z"/></g><g class="cls-3"><path class="cls-4" d="M62.48 202.67l-3.71 2.14-3.72-2.14v-4.29l3.72-2.15 3.71 2.15v4.29z"/></g><path class="cls-2" d="M54.12 188.45l-3.72 2.15-3.72-2.15v-4.29l3.72-2.15 3.72 2.15v4.29z"/><g class="cls-3"><path class="cls-4" d="M58.35 181.32l-3.71 2.15-3.72-2.15v-4.29l3.72-2.14 3.71 2.14v4.29z"/></g><g class="cls-3"><path class="cls-4" d="M62.48 188.45l-3.71 2.15-3.72-2.15v-4.29l3.72-2.15 3.71 2.15v4.29z"/></g><g class="cls-3"><path class="cls-4" d="M54.12 174.24l-3.72 2.14-3.72-2.14v-4.29l3.72-2.15 3.72 2.15v4.29z"/></g><g class="cls-3"><path class="cls-4" d="M58.35 167.11l-3.71 2.15-3.72-2.15v-4.29l3.72-2.15 3.71 2.15v4.29z"/></g><path class="cls-2" d="M62.48 174.24l-3.71 2.14-3.72-2.14v-4.29l3.72-2.15 3.71 2.15v4.29z"/><g class="cls-3"><path class="cls-4" d="M54.12 160.02l-3.72 2.15-3.72-2.15v-4.29l3.72-2.14 3.72 2.14v4.29z"/></g><g class="cls-3"><path class="cls-4" d="M58.35 152.9l-3.71 2.14-3.72-2.14v-4.3l3.72-2.14 3.71 2.14v4.3z"/></g><g class="cls-3"><path class="cls-4" d="M62.48 160.02l-3.71 2.15-3.72-2.15v-4.29l3.72-2.14 3.71 2.14v4.29z"/></g><g class="cls-3"><path class="cls-4" d="M16.91 167.11l-3.72 2.15-3.71-2.15v-4.29l3.71-2.15 3.72 2.15v4.29z"/></g><g class="cls-3"><path class="cls-4" d="M21.14 159.98l-3.71 2.15-3.72-2.15v-4.29l3.72-2.14 3.71 2.14v4.29z"/></g><g class="cls-3"><path class="cls-4" d="M25.27 167.11l-3.71 2.15-3.72-2.15v-4.29l3.72-2.15 3.71 2.15v4.29z"/></g><g class="cls-3"><path class="cls-4" d="M16.91 152.9l-3.72 2.14-3.71-2.14v-4.3l3.71-2.14 3.72 2.14v4.3z"/></g><g class="cls-3"><path class="cls-4" d="M21.14 145.77l-3.71 2.14-3.72-2.14v-4.29l3.72-2.15 3.71 2.15v4.29z"/></g><g class="cls-3"><path class="cls-4" d="M25.27 152.9l-3.71 2.14-3.72-2.14v-4.3l3.72-2.14 3.71 2.14v4.3z"/></g><g class="cls-3"><path class="cls-4" d="M16.91 138.68l-3.72 2.15-3.71-2.15v-4.29l3.71-2.14 3.72 2.14v4.29z"/></g><g class="cls-3"><path class="cls-4" d="M21.14 131.55l-3.71 2.15-3.72-2.15v-4.29l3.72-2.14 3.71 2.14v4.29z"/></g><g class="cls-3"><path class="cls-4" d="M25.27 138.68l-3.71 2.15-3.72-2.15v-4.29l3.72-2.14 3.71 2.14v4.29z"/></g><g class="cls-3"><path class="cls-4" d="M16.91 124.47l-3.72 2.14-3.71-2.14v-4.3l3.71-2.14 3.72 2.14v4.3z"/></g><g class="cls-3"><path class="cls-4" d="M21.14 117.34l-3.71 2.15-3.72-2.15v-4.29l3.72-2.15 3.71 2.15v4.29z"/></g><g class="cls-3"><path class="cls-4" d="M25.27 124.47l-3.71 2.14-3.72-2.14v-4.3l3.72-2.14 3.71 2.14v4.3z"/></g><g class="cls-3"><path class="cls-4" d="M16.91 110.25l-3.72 2.15-3.71-2.15v-4.29l3.71-2.14 3.72 2.14v4.29z"/></g><g class="cls-3"><path class="cls-4" d="M21.14 103.13l-3.71 2.14-3.72-2.14v-4.3l3.72-2.14 3.71 2.14v4.3z"/></g><g class="cls-3"><path class="cls-4" d="M25.27 110.25l-3.71 2.15-3.72-2.15v-4.29l3.72-2.14 3.71 2.14v4.29z"/></g><g class="cls-3"><path class="cls-4" d="M29.3 159.98l-3.71 2.15-3.72-2.15v-4.29l3.72-2.14 3.71 2.14v4.29z"/></g><g class="cls-3"><path class="cls-4" d="M33.53 152.86L29.82 155l-3.72-2.14v-4.3l3.72-2.14 3.71 2.14v4.3z"/></g><g class="cls-3"><path class="cls-4" d="M37.67 159.98l-3.72 2.15-3.72-2.15v-4.29l3.72-2.14 3.72 2.14v4.29z"/></g><g class="cls-3"><path class="cls-4" d="M29.3 145.77l-3.71 2.14-3.72-2.14v-4.29l3.72-2.15 3.71 2.15v4.29z"/></g><g class="cls-3"><path class="cls-4" d="M33.53 138.64l-3.71 2.15-3.72-2.15v-4.29l3.72-2.14 3.71 2.14v4.29z"/></g><g class="cls-3"><path class="cls-4" d="M37.67 145.77l-3.72 2.14-3.72-2.14v-4.29l3.72-2.15 3.72 2.15v4.29z"/></g><g class="cls-3"><path class="cls-4" d="M29.3 131.55l-3.71 2.15-3.72-2.15v-4.29l3.72-2.14 3.71 2.14v4.29z"/></g><g class="cls-3"><path class="cls-4" d="M33.53 124.43l-3.71 2.14-3.72-2.14v-4.29l3.72-2.15 3.71 2.15v4.29z"/></g><g class="cls-3"><path class="cls-4" d="M37.67 131.55l-3.72 2.15-3.72-2.15v-4.29l3.72-2.14 3.72 2.14v4.29z"/></g><g class="cls-3"><path class="cls-4" d="M29.3 117.34l-3.71 2.15-3.72-2.15v-4.29l3.72-2.15 3.71 2.15v4.29z"/></g><g class="cls-3"><path class="cls-4" d="M33.53 110.21l-3.71 2.15-3.72-2.15v-4.29l3.72-2.14 3.71 2.14v4.29z"/></g><g class="cls-3"><path class="cls-4" d="M37.67 117.34l-3.72 2.15-3.72-2.15v-4.29l3.72-2.15 3.72 2.15v4.29z"/></g><g class="cls-3"><path class="cls-4" d="M29.3 103.13l-3.71 2.14-3.72-2.14v-4.3l3.72-2.14 3.71 2.14v4.3z"/></g><g class="cls-3"><path class="cls-4" d="M37.67 103.13l-3.72 2.14-3.72-2.14v-4.3l3.72-2.14 3.72 2.14v4.3z"/></g><g class="cls-3"><path class="cls-4" d="M41.73 152.88l-3.72 2.14-3.72-2.14v-4.29l3.72-2.15 3.72 2.15v4.29z"/></g><g class="cls-3"><path class="cls-4" d="M45.96 145.75l-3.72 2.15-3.71-2.15v-4.29l3.71-2.15 3.72 2.15v4.29z"/></g><g class="cls-3"><path class="cls-4" d="M50.09 152.88l-3.72 2.14-3.71-2.14v-4.29l3.71-2.15 3.72 2.15v4.29z"/></g><g class="cls-3"><path class="cls-4" d="M41.73 138.66l-3.72 2.15-3.72-2.15v-4.29l3.72-2.14 3.72 2.14v4.29z"/></g><g class="cls-3"><path class="cls-4" d="M45.96 131.54l-3.72 2.14-3.71-2.14v-4.3l3.71-2.14 3.72 2.14v4.3z"/></g><g class="cls-3"><path class="cls-4" d="M50.09 138.66l-3.72 2.15-3.71-2.15v-4.29l3.71-2.14 3.72 2.14v4.29z"/></g><g class="cls-3"><path class="cls-4" d="M41.73 124.45l-3.72 2.14-3.72-2.14v-4.3l3.72-2.14 3.72 2.14v4.3z"/></g><g class="cls-3"><path class="cls-4" d="M45.96 117.32l-3.72 2.15-3.71-2.15v-4.29l3.71-2.14 3.72 2.14v4.29z"/></g><g class="cls-3"><path class="cls-4" d="M50.09 124.45l-3.72 2.14-3.71-2.14v-4.3l3.71-2.14 3.72 2.14v4.3z"/></g><g class="cls-3"><path class="cls-4" d="M41.73 110.23l-3.72 2.15-3.72-2.15v-4.29l3.72-2.14 3.72 2.14v4.29z"/></g><g class="cls-3"><path class="cls-4" d="M45.96 103.11l-3.72 2.14-3.71-2.14v-4.3l3.71-2.14 3.72 2.14v4.3z"/></g><g class="cls-3"><path class="cls-4" d="M50.09 110.23l-3.72 2.15-3.71-2.15v-4.29l3.71-2.14 3.72 2.14v4.29z"/></g><g class="cls-3"><path class="cls-4" d="M54.12 145.75l-3.72 2.15-3.72-2.15v-4.29l3.72-2.15 3.72 2.15v4.29z"/></g><g class="cls-3"><path class="cls-4" d="M58.35 138.62l-3.71 2.15-3.72-2.15v-4.29l3.72-2.14 3.71 2.14v4.29z"/></g><g class="cls-3"><path class="cls-4" d="M62.48 145.75l-3.71 2.15-3.72-2.15v-4.29l3.72-2.15 3.71 2.15v4.29z"/></g><g class="cls-3"><path class="cls-4" d="M54.12 131.54l-3.72 2.14-3.72-2.14v-4.3l3.72-2.14 3.72 2.14v4.3z"/></g><g class="cls-3"><path class="cls-4" d="M58.35 124.41l-3.71 2.15-3.72-2.15v-4.29l3.72-2.15 3.71 2.15v4.29z"/></g><g class="cls-3"><path class="cls-4" d="M62.48 131.54l-3.71 2.14-3.72-2.14v-4.3l3.72-2.14 3.71 2.14v4.3z"/></g><g class="cls-3"><path class="cls-4" d="M54.12 117.32l-3.72 2.15-3.72-2.15v-4.29l3.72-2.14 3.72 2.14v4.29z"/></g><g class="cls-3"><path class="cls-4" d="M58.35 110.19l-3.71 2.15-3.72-2.15v-4.29l3.72-2.14 3.71 2.14v4.29z"/></g><g class="cls-3"><path class="cls-4" d="M62.48 117.32l-3.71 2.15-3.72-2.15v-4.29l3.72-2.14 3.71 2.14v4.29z"/></g><g class="cls-3"><path class="cls-4" d="M54.12 103.11l-3.72 2.14-3.72-2.14v-4.3l3.72-2.14 3.72 2.14v4.3z"/></g><g class="cls-3"><path class="cls-4" d="M62.48 103.11l-3.71 2.14-3.72-2.14v-4.3l3.72-2.14 3.71 2.14v4.3z"/></g><g class="cls-3"><path class="cls-4" d="M70.85 316.46l-3.71 2.14-3.72-2.14v-4.29l3.72-2.15 3.71 2.15v4.29z"/></g><g class="cls-3"><path class="cls-4" d="M66.62 309.37l-3.71 2.15-3.72-2.15v-4.29l3.72-2.14 3.71 2.14v4.29z"/></g><g class="cls-3"><path class="cls-4" d="M70.85 302.25l-3.71 2.14-3.72-2.14v-4.3l3.72-2.14 3.71 2.14v4.3z"/></g><g class="cls-3"><path class="cls-4" d="M74.98 309.37l-3.71 2.15-3.72-2.15v-4.29l3.72-2.14 3.71 2.14v4.29z"/></g><g class="cls-3"><path class="cls-4" d="M66.62 295.16l-3.71 2.14-3.72-2.14v-4.29l3.72-2.15 3.71 2.15v4.29z"/></g><g class="cls-3"><path class="cls-4" d="M70.85 288.03l-3.71 2.15-3.72-2.15v-4.29l3.72-2.14 3.71 2.14v4.29z"/></g><g class="cls-3"><path class="cls-4" d="M74.98 295.16l-3.71 2.14-3.72-2.14v-4.29l3.72-2.15 3.71 2.15v4.29z"/></g><g class="cls-3"><path class="cls-4" d="M66.62 280.94l-3.71 2.15-3.72-2.15v-4.29l3.72-2.14 3.71 2.14v4.29z"/></g><path class="cls-2" d="M70.85 273.82l-3.71 2.14-3.72-2.14v-4.3l3.72-2.14 3.71 2.14v4.3z"/><g class="cls-3"><path class="cls-4" d="M74.98 280.94l-3.71 2.15-3.72-2.15v-4.29l3.72-2.14 3.71 2.14v4.29z"/></g><g class="cls-3"><path class="cls-4" d="M66.62 266.73l-3.71 2.14-3.72-2.14v-4.29l3.72-2.15 3.71 2.15v4.29z"/></g><g class="cls-3"><path class="cls-4" d="M70.85 259.6l-3.71 2.15-3.72-2.15v-4.29l3.72-2.14 3.71 2.14v4.29z"/></g><g class="cls-3"><path class="cls-4" d="M74.98 266.73l-3.71 2.14-3.72-2.14v-4.29l3.72-2.15 3.71 2.15v4.29z"/></g><g class="cls-3"><path class="cls-4" d="M79.01 316.46l-3.71 2.14-3.72-2.14v-4.29l3.72-2.15 3.71 2.15v4.29z"/></g><g class="cls-3"><path class="cls-4" d="M83.25 309.33l-3.72 2.15-3.72-2.15v-4.29l3.72-2.14 3.72 2.14v4.29z"/></g><g class="cls-3"><path class="cls-4" d="M87.38 316.46l-3.72 2.14-3.72-2.14v-4.29l3.72-2.15 3.72 2.15v4.29z"/></g><g class="cls-3"><path class="cls-4" d="M79.01 302.25l-3.71 2.14-3.72-2.14v-4.3l3.72-2.14 3.71 2.14v4.3z"/></g><g class="cls-3"><path class="cls-4" d="M83.25 295.12l-3.72 2.14-3.72-2.14v-4.29l3.72-2.15 3.72 2.15v4.29z"/></g><path class="cls-2" d="M87.38 302.25l-3.72 2.14-3.72-2.14v-4.3l3.72-2.14 3.72 2.14v4.3z"/><g class="cls-3"><path class="cls-4" d="M79.01 288.03l-3.71 2.15-3.72-2.15v-4.29l3.72-2.14 3.71 2.14v4.29z"/></g><g class="cls-3"><path class="cls-4" d="M83.25 280.9l-3.72 2.15-3.72-2.15v-4.29l3.72-2.14 3.72 2.14v4.29z"/></g><g class="cls-3"><path class="cls-4" d="M87.38 288.03l-3.72 2.15-3.72-2.15v-4.29l3.72-2.14 3.72 2.14v4.29z"/></g><g class="cls-3"><path class="cls-4" d="M79.01 273.82l-3.71 2.14-3.72-2.14v-4.3l3.72-2.14 3.71 2.14v4.3z"/></g><g class="cls-3"><path class="cls-4" d="M83.25 266.69l-3.72 2.14-3.72-2.14v-4.29l3.72-2.15 3.72 2.15v4.29z"/></g><g class="cls-3"><path class="cls-4" d="M87.38 273.82l-3.72 2.14-3.72-2.14v-4.3l3.72-2.14 3.72 2.14v4.3z"/></g><g class="cls-3"><path class="cls-4" d="M79.01 259.6l-3.71 2.15-3.72-2.15v-4.29l3.72-2.14 3.71 2.14v4.29z"/></g><g class="cls-3"><path class="cls-4" d="M83.25 252.47l-3.72 2.15-3.72-2.15v-4.29l3.72-2.14 3.72 2.14v4.29z"/></g><g class="cls-3"><path class="cls-4" d="M87.38 259.6l-3.72 2.15-3.72-2.15v-4.29l3.72-2.14 3.72 2.14v4.29z"/></g><g class="cls-3"><path class="cls-4" d="M95.67 316.44l-3.72 2.14-3.71-2.14v-4.29l3.71-2.15 3.72 2.15v4.29z"/></g><g class="cls-3"><path class="cls-4" d="M91.44 309.35l-3.72 2.15-3.72-2.15v-4.29l3.72-2.14 3.72 2.14v4.29z"/></g><g class="cls-3"><path class="cls-4" d="M95.67 302.23l-3.72 2.14-3.71-2.14v-4.29l3.71-2.15 3.72 2.15v4.29z"/></g><g class="cls-3"><path class="cls-4" d="M99.8 309.35l-3.71 2.15-3.72-2.15v-4.29l3.72-2.14 3.71 2.14v4.29z"/></g><g class="cls-3"><path class="cls-4" d="M91.44 295.14l-3.72 2.14-3.72-2.14v-4.29l3.72-2.15 3.72 2.15v4.29z"/></g><g class="cls-3"><path class="cls-4" d="M95.67 288.01l-3.72 2.15-3.71-2.15v-4.29l3.71-2.15 3.72 2.15v4.29z"/></g><g class="cls-3"><path class="cls-4" d="M99.8 295.14l-3.71 2.14-3.72-2.14v-4.29l3.72-2.15 3.71 2.15v4.29z"/></g><g class="cls-3"><path class="cls-4" d="M91.44 280.92l-3.72 2.15-3.72-2.15v-4.29l3.72-2.14 3.72 2.14v4.29z"/></g><g class="cls-3"><path class="cls-4" d="M95.67 273.8l-3.72 2.14-3.71-2.14v-4.3l3.71-2.14 3.72 2.14v4.3z"/></g><g class="cls-3"><path class="cls-4" d="M99.8 280.92l-3.71 2.15-3.72-2.15v-4.29l3.72-2.14 3.71 2.14v4.29z"/></g><g class="cls-3"><path class="cls-4" d="M91.44 266.71l-3.72 2.14-3.72-2.14v-4.29l3.72-2.15 3.72 2.15v4.29z"/></g><g class="cls-3"><path class="cls-4" d="M95.67 259.58l-3.72 2.15-3.71-2.15v-4.29l3.71-2.14 3.72 2.14v4.29z"/></g><g class="cls-3"><path class="cls-4" d="M99.8 266.71l-3.71 2.14-3.72-2.14v-4.29l3.72-2.15 3.71 2.15v4.29z"/></g><g class="cls-3"><path class="cls-4" d="M91.44 252.5l-3.72 2.14L84 252.5v-4.3l3.72-2.14 3.72 2.14v4.3z"/></g><g class="cls-3"><path class="cls-4" d="M95.67 245.37l-3.72 2.14-3.71-2.14v-4.29l3.71-2.15 3.72 2.15v4.29z"/></g><g class="cls-3"><path class="cls-4" d="M99.8 252.5l-3.71 2.14-3.72-2.14v-4.3l3.72-2.14 3.71 2.14v4.3z"/></g><g class="cls-3"><path class="cls-4" d="M103.83 316.44l-3.72 2.14-3.71-2.14v-4.29l3.71-2.15 3.72 2.15v4.29z"/></g><g class="cls-3"><path class="cls-4" d="M108.06 309.31l-3.71 2.15-3.72-2.15v-4.29l3.72-2.14 3.71 2.14v4.29z"/></g><g class="cls-3"><path class="cls-4" d="M103.83 302.23l-3.72 2.14-3.71-2.14v-4.29l3.71-2.15 3.72 2.15v4.29z"/></g><g class="cls-3"><path class="cls-4" d="M108.06 295.1l-3.71 2.15-3.72-2.15v-4.29l3.72-2.15 3.71 2.15v4.29z"/></g><g class="cls-3"><path class="cls-4" d="M103.83 288.01l-3.72 2.15-3.71-2.15v-4.29l3.71-2.15 3.72 2.15v4.29z"/></g><g class="cls-3"><path class="cls-4" d="M108.06 280.88l-3.71 2.15-3.72-2.15v-4.29l3.72-2.14 3.71 2.14v4.29z"/></g><g class="cls-3"><path class="cls-4" d="M103.83 273.8l-3.72 2.14-3.71-2.14v-4.3l3.71-2.14 3.72 2.14v4.3z"/></g><g class="cls-3"><path class="cls-4" d="M108.06 266.67l-3.71 2.14-3.72-2.14v-4.29l3.72-2.15 3.71 2.15v4.29z"/></g><g class="cls-3"><path class="cls-4" d="M103.83 259.58l-3.72 2.15-3.71-2.15v-4.29l3.71-2.14 3.72 2.14v4.29z"/></g><g class="cls-3"><path class="cls-4" d="M108.06 252.46l-3.71 2.14-3.72-2.14v-4.3l3.72-2.14 3.71 2.14v4.3z"/></g><g class="cls-3"><path class="cls-4" d="M103.83 245.37l-3.72 2.14-3.71-2.14v-4.29l3.71-2.15 3.72 2.15v4.29z"/></g><g class="cls-3"><path class="cls-4" d="M108.06 238.24l-3.71 2.15-3.72-2.15v-4.29l3.72-2.14 3.71 2.14v4.29z"/></g><g class="cls-3"><path class="cls-4" d="M66.62 252.46l-3.71 2.14-3.72-2.14v-4.3l3.72-2.14 3.71 2.14v4.3z"/></g><g class="cls-3"><path class="cls-4" d="M70.85 245.33l-3.71 2.14-3.72-2.14v-4.29l3.72-2.15 3.71 2.15v4.29z"/></g><g class="cls-3"><path class="cls-4" d="M74.98 252.46l-3.71 2.14-3.72-2.14v-4.3l3.72-2.14 3.71 2.14v4.3z"/></g><g class="cls-3"><path class="cls-4" d="M66.62 238.24l-3.71 2.15-3.72-2.15v-4.29l3.72-2.14 3.71 2.14v4.29z"/></g><g class="cls-3"><path class="cls-4" d="M70.85 231.12l-3.71 2.14-3.72-2.14v-4.3l3.72-2.14 3.71 2.14v4.3z"/></g><g class="cls-3"><path class="cls-4" d="M74.98 238.24l-3.71 2.15-3.72-2.15v-4.29l3.72-2.14 3.71 2.14v4.29z"/></g><g class="cls-3"><path class="cls-4" d="M66.62 224.03l-3.71 2.14-3.72-2.14v-4.29l3.72-2.15 3.71 2.15v4.29z"/></g><g class="cls-3"><path class="cls-4" d="M70.85 216.9l-3.71 2.14-3.72-2.14v-4.29l3.72-2.15 3.71 2.15v4.29z"/></g><g class="cls-3"><path class="cls-4" d="M74.98 224.03l-3.71 2.14-3.72-2.14v-4.29l3.72-2.15 3.71 2.15v4.29z"/></g><g class="cls-3"><path class="cls-4" d="M66.62 209.81l-3.71 2.15-3.72-2.15v-4.29l3.72-2.14 3.71 2.14v4.29z"/></g><g class="cls-3"><path class="cls-4" d="M70.85 202.69l-3.71 2.14-3.72-2.14v-4.3l3.72-2.14 3.71 2.14v4.3z"/></g><g class="cls-3"><path class="cls-4" d="M74.98 209.81l-3.71 2.15-3.72-2.15v-4.29l3.72-2.14 3.71 2.14v4.29z"/></g><g class="cls-3"><path class="cls-4" d="M66.62 195.6l-3.71 2.14-3.72-2.14v-4.29l3.72-2.15 3.71 2.15v4.29z"/></g><g class="cls-3"><path class="cls-4" d="M70.85 188.47l-3.71 2.15-3.72-2.15v-4.29l3.72-2.15 3.71 2.15v4.29z"/></g><g class="cls-3"><path class="cls-4" d="M74.98 195.6l-3.71 2.14-3.72-2.14v-4.29l3.72-2.15 3.71 2.15v4.29z"/></g><g class="cls-3"><path class="cls-4" d="M66.62 181.38l-3.71 2.15-3.72-2.15v-4.29l3.72-2.14 3.71 2.14v4.29z"/></g><g class="cls-3"><path class="cls-4" d="M70.85 174.26l-3.71 2.14-3.72-2.14v-4.29l3.72-2.15 3.71 2.15v4.29z"/></g><g class="cls-3"><path class="cls-4" d="M74.98 181.38l-3.71 2.15-3.72-2.15v-4.29l3.72-2.14 3.71 2.14v4.29z"/></g><g class="cls-3"><path class="cls-4" d="M79.01 245.33l-3.71 2.14-3.72-2.14v-4.29l3.72-2.15 3.71 2.15v4.29z"/></g><g class="cls-3"><path class="cls-4" d="M83.25 238.2l-3.72 2.15-3.72-2.15v-4.29l3.72-2.14 3.72 2.14v4.29z"/></g><g class="cls-3"><path class="cls-4" d="M87.38 245.33l-3.72 2.14-3.72-2.14v-4.29l3.72-2.15 3.72 2.15v4.29z"/></g><g class="cls-3"><path class="cls-4" d="M79.01 231.12l-3.71 2.14-3.72-2.14v-4.3l3.72-2.14 3.71 2.14v4.3z"/></g><g class="cls-3"><path class="cls-4" d="M83.25 223.99l-3.72 2.14-3.72-2.14v-4.29l3.72-2.15 3.72 2.15v4.29z"/></g><g class="cls-3"><path class="cls-4" d="M87.38 231.12l-3.72 2.14-3.72-2.14v-4.3l3.72-2.14 3.72 2.14v4.3z"/></g><g class="cls-3"><path class="cls-4" d="M79.01 216.9l-3.71 2.14-3.72-2.14v-4.29l3.72-2.15 3.71 2.15v4.29z"/></g><g class="cls-3"><path class="cls-4" d="M83.25 209.77l-3.72 2.15-3.72-2.15v-4.29l3.72-2.14 3.72 2.14v4.29z"/></g><g class="cls-3"><path class="cls-4" d="M87.38 216.9l-3.72 2.14-3.72-2.14v-4.29l3.72-2.15 3.72 2.15v4.29z"/></g><g class="cls-3"><path class="cls-4" d="M79.01 202.69l-3.71 2.14-3.72-2.14v-4.3l3.72-2.14 3.71 2.14v4.3z"/></g><g class="cls-3"><path class="cls-4" d="M83.25 195.56l-3.72 2.15-3.72-2.15v-4.29l3.72-2.15 3.72 2.15v4.29z"/></g><g class="cls-3"><path class="cls-4" d="M87.38 202.69l-3.72 2.14-3.72-2.14v-4.3l3.72-2.14 3.72 2.14v4.3z"/></g><g class="cls-3"><path class="cls-4" d="M79.01 188.47l-3.71 2.15-3.72-2.15v-4.29l3.72-2.15 3.71 2.15v4.29z"/></g><g class="cls-3"><path class="cls-4" d="M83.25 181.34l-3.72 2.15-3.72-2.15v-4.29l3.72-2.14 3.72 2.14v4.29z"/></g><g class="cls-3"><path class="cls-4" d="M87.38 188.47l-3.72 2.15-3.72-2.15v-4.29l3.72-2.15 3.72 2.15v4.29z"/></g><g class="cls-3"><path class="cls-4" d="M79.01 174.26l-3.71 2.14-3.72-2.14v-4.29l3.72-2.15 3.71 2.15v4.29z"/></g><g class="cls-3"><path class="cls-4" d="M83.25 167.13l-3.72 2.14-3.72-2.14v-4.29l3.72-2.15 3.72 2.15v4.29z"/></g><g class="cls-3"><path class="cls-4" d="M87.38 174.26l-3.72 2.14-3.72-2.14v-4.29l3.72-2.15 3.72 2.15v4.29z"/></g><g class="cls-3"><path class="cls-4" d="M91.44 238.22l-3.72 2.15-3.72-2.15v-4.29l3.72-2.15 3.72 2.15v4.29z"/></g><g class="cls-3"><path class="cls-4" d="M95.67 231.1l-3.72 2.14-3.71-2.14v-4.29l3.71-2.15 3.72 2.15v4.29z"/></g><g class="cls-3"><path class="cls-4" d="M99.8 238.22l-3.71 2.15-3.72-2.15v-4.29l3.72-2.15 3.71 2.15v4.29z"/></g><g class="cls-3"><path class="cls-4" d="M91.44 224.01l-3.72 2.14-3.72-2.14v-4.29l3.72-2.15 3.72 2.15v4.29z"/></g><g class="cls-3"><path class="cls-4" d="M95.67 216.88l-3.72 2.15-3.71-2.15v-4.29l3.71-2.15 3.72 2.15v4.29z"/></g><g class="cls-3"><path class="cls-4" d="M99.8 224.01l-3.71 2.14-3.72-2.14v-4.29l3.72-2.15 3.71 2.15v4.29z"/></g><g class="cls-3"><path class="cls-4" d="M91.44 209.79l-3.72 2.15-3.72-2.15v-4.29l3.72-2.14 3.72 2.14v4.29z"/></g><g class="cls-3"><path class="cls-4" d="M95.67 202.67l-3.72 2.14-3.71-2.14v-4.29l3.71-2.15 3.72 2.15v4.29z"/></g><g class="cls-3"><path class="cls-4" d="M99.8 209.79l-3.71 2.15-3.72-2.15v-4.29l3.72-2.14 3.71 2.14v4.29z"/></g><g class="cls-3"><path class="cls-4" d="M91.44 195.58l-3.72 2.14-3.72-2.14v-4.29l3.72-2.15 3.72 2.15v4.29z"/></g><g class="cls-3"><path class="cls-4" d="M95.67 188.45l-3.72 2.15-3.71-2.15v-4.29l3.71-2.15 3.72 2.15v4.29z"/></g><g class="cls-3"><path class="cls-4" d="M99.8 195.58l-3.71 2.14-3.72-2.14v-4.29l3.72-2.15 3.71 2.15v4.29z"/></g><g class="cls-3"><path class="cls-4" d="M91.44 181.37l-3.72 2.14-3.72-2.14v-4.3l3.72-2.14 3.72 2.14v4.3z"/></g><g class="cls-3"><path class="cls-4" d="M95.67 174.24l-3.72 2.14-3.71-2.14v-4.29l3.71-2.15 3.72 2.15v4.29z"/></g><g class="cls-3"><path class="cls-4" d="M99.8 181.37l-3.71 2.14-3.72-2.14v-4.3l3.72-2.14 3.71 2.14v4.3z"/></g><g class="cls-3"><path class="cls-4" d="M91.44 167.15l-3.72 2.14-3.72-2.14v-4.29l3.72-2.15 3.72 2.15v4.29z"/></g><g class="cls-3"><path class="cls-4" d="M95.67 160.02l-3.72 2.15-3.71-2.15v-4.29l3.71-2.14 3.72 2.14v4.29z"/></g><g class="cls-3"><path class="cls-4" d="M99.8 167.15l-3.71 2.14-3.72-2.14v-4.29l3.72-2.15 3.71 2.15v4.29z"/></g><g class="cls-3"><path class="cls-4" d="M103.83 231.1l-3.72 2.14-3.71-2.14v-4.29l3.71-2.15 3.72 2.15v4.29z"/></g><g class="cls-3"><path class="cls-4" d="M108.06 223.97l-3.71 2.14-3.72-2.14v-4.29l3.72-2.15 3.71 2.15v4.29z"/></g><g class="cls-3"><path class="cls-4" d="M103.83 216.88l-3.72 2.15-3.71-2.15v-4.29l3.71-2.15 3.72 2.15v4.29z"/></g><g class="cls-3"><path class="cls-4" d="M108.06 209.75l-3.71 2.15-3.72-2.15v-4.29l3.72-2.14 3.71 2.14v4.29z"/></g><g class="cls-3"><path class="cls-4" d="M103.83 202.67l-3.72 2.14-3.71-2.14v-4.29l3.71-2.15 3.72 2.15v4.29z"/></g><g class="cls-3"><path class="cls-4" d="M108.06 195.54l-3.71 2.15-3.72-2.15v-4.29l3.72-2.15 3.71 2.15v4.29z"/></g><g class="cls-3"><path class="cls-4" d="M103.83 188.45l-3.72 2.15-3.71-2.15v-4.29l3.71-2.15 3.72 2.15v4.29z"/></g><g class="cls-3"><path class="cls-4" d="M108.06 181.32l-3.71 2.15-3.72-2.15v-4.29l3.72-2.14 3.71 2.14v4.29z"/></g><g class="cls-3"><path class="cls-4" d="M103.83 174.24l-3.72 2.14-3.71-2.14v-4.29l3.71-2.15 3.72 2.15v4.29z"/></g><g class="cls-3"><path class="cls-4" d="M108.06 167.11l-3.71 2.15-3.72-2.15v-4.29l3.72-2.15 3.71 2.15v4.29z"/></g><g class="cls-3"><path class="cls-4" d="M103.83 160.02l-3.72 2.15-3.71-2.15v-4.29l3.71-2.14 3.72 2.14v4.29z"/></g><g class="cls-3"><path class="cls-4" d="M108.06 152.9l-3.71 2.14-3.72-2.14v-4.3l3.72-2.14 3.71 2.14v4.3z"/></g><g class="cls-3"><path class="cls-4" d="M66.62 167.11l-3.71 2.15-3.72-2.15v-4.29l3.72-2.15 3.71 2.15v4.29z"/></g><g class="cls-3"><path class="cls-4" d="M70.85 159.98l-3.71 2.15-3.72-2.15v-4.29l3.72-2.14 3.71 2.14v4.29z"/></g><g class="cls-3"><path class="cls-4" d="M74.98 167.11l-3.71 2.15-3.72-2.15v-4.29l3.72-2.15 3.71 2.15v4.29z"/></g><g class="cls-3"><path class="cls-4" d="M66.62 152.9l-3.71 2.14-3.72-2.14v-4.3l3.72-2.14 3.71 2.14v4.3z"/></g><g class="cls-3"><path class="cls-4" d="M70.85 145.77l-3.71 2.14-3.72-2.14v-4.29l3.72-2.15 3.71 2.15v4.29z"/></g><path class="cls-2" d="M74.98 152.9l-3.71 2.14-3.72-2.14v-4.3l3.72-2.14 3.71 2.14v4.3z"/><g class="cls-3"><path class="cls-4" d="M66.62 138.68l-3.71 2.15-3.72-2.15v-4.29l3.72-2.14 3.71 2.14v4.29z"/></g><g class="cls-3"><path class="cls-4" d="M70.85 131.55l-3.71 2.15-3.72-2.15v-4.29l3.72-2.14 3.71 2.14v4.29z"/></g><g class="cls-3"><path class="cls-4" d="M74.98 138.68l-3.71 2.15-3.72-2.15v-4.29l3.72-2.14 3.71 2.14v4.29z"/></g><g class="cls-3"><path class="cls-4" d="M66.62 124.47l-3.71 2.14-3.72-2.14v-4.3l3.72-2.14 3.71 2.14v4.3z"/></g><g class="cls-3"><path class="cls-4" d="M70.85 117.34l-3.71 2.15-3.72-2.15v-4.29l3.72-2.15 3.71 2.15v4.29z"/></g><g class="cls-3"><path class="cls-4" d="M74.98 124.47l-3.71 2.14-3.72-2.14v-4.3l3.72-2.14 3.71 2.14v4.3z"/></g><g class="cls-3"><path class="cls-4" d="M66.62 110.25l-3.71 2.15-3.72-2.15v-4.29l3.72-2.14 3.71 2.14v4.29z"/></g><g class="cls-3"><path class="cls-4" d="M70.85 103.13l-3.71 2.14-3.72-2.14v-4.3l3.72-2.14 3.71 2.14v4.3z"/></g><g class="cls-3"><path class="cls-4" d="M74.98 110.25l-3.71 2.15-3.72-2.15v-4.29l3.72-2.14 3.71 2.14v4.29z"/></g><g class="cls-3"><path class="cls-4" d="M79.01 159.98l-3.71 2.15-3.72-2.15v-4.29l3.72-2.14 3.71 2.14v4.29z"/></g><g class="cls-3"><path class="cls-4" d="M83.25 152.86L79.53 155l-3.72-2.14v-4.3l3.72-2.14 3.72 2.14v4.3z"/></g><g class="cls-3"><path class="cls-4" d="M87.38 159.98l-3.72 2.15-3.72-2.15v-4.29l3.72-2.14 3.72 2.14v4.29z"/></g><g class="cls-3"><path class="cls-4" d="M79.01 145.77l-3.71 2.14-3.72-2.14v-4.29l3.72-2.15 3.71 2.15v4.29z"/></g><g class="cls-3"><path class="cls-4" d="M83.25 138.64l-3.72 2.15-3.72-2.15v-4.29l3.72-2.14 3.72 2.14v4.29z"/></g><g class="cls-3"><path class="cls-4" d="M87.38 145.77l-3.72 2.14-3.72-2.14v-4.29l3.72-2.15 3.72 2.15v4.29z"/></g><g class="cls-3"><path class="cls-4" d="M79.01 131.55l-3.71 2.15-3.72-2.15v-4.29l3.72-2.14 3.71 2.14v4.29z"/></g><g class="cls-3"><path class="cls-4" d="M83.25 124.43l-3.72 2.14-3.72-2.14v-4.29l3.72-2.15 3.72 2.15v4.29z"/></g><path class="cls-2" d="M87.38 131.55l-3.72 2.15-3.72-2.15v-4.29l3.72-2.14 3.72 2.14v4.29z"/><g class="cls-3"><path class="cls-4" d="M79.01 117.34l-3.71 2.15-3.72-2.15v-4.29l3.72-2.15 3.71 2.15v4.29z"/></g><g class="cls-3"><path class="cls-4" d="M83.25 110.21l-3.72 2.15-3.72-2.15v-4.29l3.72-2.14 3.72 2.14v4.29z"/></g><g class="cls-3"><path class="cls-4" d="M87.38 117.34l-3.72 2.15-3.72-2.15v-4.29l3.72-2.15 3.72 2.15v4.29z"/></g><g class="cls-3"><path class="cls-4" d="M79.01 103.13l-3.71 2.14-3.72-2.14v-4.3l3.72-2.14 3.71 2.14v4.3z"/></g><g class="cls-3"><path class="cls-4" d="M87.38 103.13l-3.72 2.14-3.72-2.14v-4.3l3.72-2.14 3.72 2.14v4.3z"/></g><g class="cls-3"><path class="cls-4" d="M91.44 152.88l-3.72 2.14-3.72-2.14v-4.29l3.72-2.15 3.72 2.15v4.29z"/></g><g class="cls-3"><path class="cls-4" d="M95.67 145.75l-3.72 2.15-3.71-2.15v-4.29l3.71-2.15 3.72 2.15v4.29z"/></g><g class="cls-3"><path class="cls-4" d="M99.8 152.88l-3.71 2.14-3.72-2.14v-4.29l3.72-2.15 3.71 2.15v4.29z"/></g><g class="cls-3"><path class="cls-4" d="M91.44 138.66l-3.72 2.15-3.72-2.15v-4.29l3.72-2.14 3.72 2.14v4.29z"/></g><g class="cls-3"><path class="cls-4" d="M95.67 131.54l-3.72 2.14-3.71-2.14v-4.3l3.71-2.14 3.72 2.14v4.3z"/></g><g class="cls-3"><path class="cls-4" d="M99.8 138.66l-3.71 2.15-3.72-2.15v-4.29l3.72-2.14 3.71 2.14v4.29z"/></g><g class="cls-3"><path class="cls-4" d="M91.44 124.45l-3.72 2.14-3.72-2.14v-4.3l3.72-2.14 3.72 2.14v4.3z"/></g><path class="cls-2" d="M95.67 117.32l-3.72 2.15-3.71-2.15v-4.29l3.71-2.14 3.72 2.14v4.29z"/><g class="cls-3"><path class="cls-4" d="M99.8 124.45l-3.71 2.14-3.72-2.14v-4.3l3.72-2.14 3.71 2.14v4.3z"/></g><g class="cls-3"><path class="cls-4" d="M91.44 110.23l-3.72 2.15-3.72-2.15v-4.29l3.72-2.14 3.72 2.14v4.29z"/></g><g class="cls-3"><path class="cls-4" d="M95.67 103.11l-3.72 2.14-3.71-2.14v-4.3l3.71-2.14 3.72 2.14v4.3z"/></g><g class="cls-3"><path class="cls-4" d="M99.8 110.23l-3.71 2.15-3.72-2.15v-4.29l3.72-2.14 3.71 2.14v4.29z"/></g><g class="cls-3"><path class="cls-4" d="M103.83 145.75l-3.72 2.15-3.71-2.15v-4.29l3.71-2.15 3.72 2.15v4.29z"/></g><g class="cls-3"><path class="cls-4" d="M108.06 138.62l-3.71 2.15-3.72-2.15v-4.29l3.72-2.14 3.71 2.14v4.29z"/></g><g class="cls-3"><path class="cls-4" d="M103.83 131.54l-3.72 2.14-3.71-2.14v-4.3l3.71-2.14 3.72 2.14v4.3z"/></g><g class="cls-3"><path class="cls-4" d="M108.06 124.41l-3.71 2.15-3.72-2.15v-4.29l3.72-2.15 3.71 2.15v4.29z"/></g><g class="cls-3"><path class="cls-4" d="M103.83 117.32l-3.72 2.15-3.71-2.15v-4.29l3.71-2.14 3.72 2.14v4.29z"/></g><g class="cls-3"><path class="cls-4" d="M108.06 110.19l-3.71 2.15-3.72-2.15v-4.29l3.72-2.14 3.71 2.14v4.29z"/></g><g class="cls-3"><path class="cls-4" d="M103.83 103.11l-3.72 2.14-3.71-2.14v-4.3l3.71-2.14 3.72 2.14v4.3z"/></g><g class="cls-3"><path class="cls-4" d="M58.35 95.81l-3.71 2.14-3.72-2.14v-4.29l3.72-2.15 3.71 2.15v4.29z"/></g><g class="cls-3"><path class="cls-4" d="M16.91 95.81l-3.72 2.14-3.71-2.14v-4.29l3.71-2.15 3.72 2.15v4.29z"/></g><g class="cls-3"><path class="cls-4" d="M21.14 88.68l-3.71 2.14-3.72-2.14v-4.29l3.72-2.15 3.71 2.15v4.29z"/></g><g class="cls-3"><path class="cls-4" d="M25.27 95.81l-3.71 2.14-3.72-2.14v-4.29l3.72-2.15 3.71 2.15v4.29z"/></g><g class="cls-3"><path class="cls-4" d="M16.91 81.59l-3.72 2.15-3.71-2.15V77.3l3.71-2.14 3.72 2.14v4.29z"/></g><g class="cls-3"><path class="cls-4" d="M21.14 74.46l-3.71 2.15-3.72-2.15v-4.29l3.72-2.14 3.71 2.14v4.29z"/></g><g class="cls-3"><path class="cls-4" d="M25.27 81.59l-3.71 2.15-3.72-2.15V77.3l3.72-2.14 3.71 2.14v4.29z"/></g><g class="cls-3"><path class="cls-4" d="M16.91 67.38l-3.72 2.14-3.71-2.14v-4.29l3.71-2.15 3.72 2.15v4.29z"/></g><g class="cls-3"><path class="cls-4" d="M21.14 60.25l-3.71 2.15-3.72-2.15v-4.29l3.72-2.15 3.71 2.15v4.29z"/></g><g class="cls-3"><path class="cls-4" d="M25.27 67.38l-3.71 2.14-3.72-2.14v-4.29l3.72-2.15 3.71 2.15v4.29z"/></g><g class="cls-3"><path class="cls-4" d="M16.91 53.16l-3.72 2.15-3.71-2.15v-4.29l3.71-2.14 3.72 2.14v4.29z"/></g><g class="cls-3"><path class="cls-4" d="M21.14 46.04l-3.71 2.14-3.72-2.14v-4.29l3.72-2.15 3.71 2.15v4.29z"/></g><g class="cls-3"><path class="cls-4" d="M25.27 53.16l-3.71 2.15-3.72-2.15v-4.29l3.72-2.14 3.71 2.14v4.29z"/></g><g class="cls-3"><path class="cls-4" d="M33.53 95.77l-3.71 2.14-3.72-2.14v-4.3l3.72-2.14 3.71 2.14v4.3z"/></g><g class="cls-3"><path class="cls-4" d="M29.3 88.68l-3.71 2.14-3.72-2.14v-4.29l3.72-2.15 3.71 2.15v4.29z"/></g><g class="cls-3"><path class="cls-4" d="M33.53 81.55l-3.71 2.15-3.72-2.15v-4.29l3.72-2.15 3.71 2.15v4.29z"/></g><g class="cls-3"><path class="cls-4" d="M37.67 88.68l-3.72 2.14-3.72-2.14v-4.29l3.72-2.15 3.72 2.15v4.29z"/></g><g class="cls-3"><path class="cls-4" d="M29.3 74.46l-3.71 2.15-3.72-2.15v-4.29l3.72-2.14 3.71 2.14v4.29z"/></g><g class="cls-3"><path class="cls-4" d="M33.53 67.34l-3.71 2.14-3.72-2.14v-4.29l3.72-2.15 3.71 2.15v4.29z"/></g><g class="cls-3"><path class="cls-4" d="M37.67 74.46l-3.72 2.15-3.72-2.15v-4.29l3.72-2.14 3.72 2.14v4.29z"/></g><g class="cls-3"><path class="cls-4" d="M29.3 60.25l-3.71 2.15-3.72-2.15v-4.29l3.72-2.15 3.71 2.15v4.29z"/></g><g class="cls-3"><path class="cls-4" d="M33.53 53.12l-3.71 2.15-3.72-2.15v-4.29l3.72-2.14 3.71 2.14v4.29z"/></g><g class="cls-3"><path class="cls-4" d="M37.67 60.25l-3.72 2.15-3.72-2.15v-4.29l3.72-2.15 3.72 2.15v4.29z"/></g><g class="cls-3"><path class="cls-4" d="M29.3 46.04l-3.71 2.14-3.72-2.14v-4.29l3.72-2.15 3.71 2.15v4.29z"/></g><g class="cls-3"><path class="cls-4" d="M37.67 46.04l-3.72 2.14-3.72-2.14v-4.29l3.72-2.15 3.72 2.15v4.29z"/></g><g class="cls-3"><path class="cls-4" d="M41.73 95.79l-3.72 2.14-3.72-2.14V91.5l3.72-2.15 3.72 2.15v4.29z"/></g><g class="cls-3"><path class="cls-4" d="M45.96 88.66l-3.72 2.15-3.71-2.15v-4.29l3.71-2.15 3.72 2.15v4.29z"/></g><g class="cls-3"><path class="cls-4" d="M50.09 95.79l-3.72 2.14-3.71-2.14V91.5l3.71-2.15 3.72 2.15v4.29z"/></g><g class="cls-3"><path class="cls-4" d="M41.73 81.57l-3.72 2.15-3.72-2.15v-4.29l3.72-2.14 3.72 2.14v4.29z"/></g><g class="cls-3"><path class="cls-4" d="M45.96 74.45l-3.72 2.14-3.71-2.14v-4.3l3.71-2.14 3.72 2.14v4.3z"/></g><g class="cls-3"><path class="cls-4" d="M50.09 81.57l-3.72 2.15-3.71-2.15v-4.29l3.71-2.14 3.72 2.14v4.29z"/></g><g class="cls-3"><path class="cls-4" d="M41.73 67.36l-3.72 2.14-3.72-2.14v-4.29l3.72-2.15 3.72 2.15v4.29z"/></g><g class="cls-3"><path class="cls-4" d="M45.96 60.23l-3.72 2.15-3.71-2.15v-4.29l3.71-2.14 3.72 2.14v4.29z"/></g><g class="cls-3"><path class="cls-4" d="M50.09 67.36l-3.72 2.14-3.71-2.14v-4.29l3.71-2.15 3.72 2.15v4.29z"/></g><g class="cls-3"><path class="cls-4" d="M41.73 53.15l-3.72 2.14-3.72-2.14v-4.3l3.72-2.14 3.72 2.14v4.3z"/></g><g class="cls-3"><path class="cls-4" d="M45.96 46.01l-3.72 2.15-3.71-2.15v-4.29l3.71-2.14 3.72 2.14v4.29z"/></g><g class="cls-3"><path class="cls-4" d="M50.09 53.15l-3.72 2.14-3.71-2.14v-4.3l3.71-2.14 3.72 2.14v4.3z"/></g><g class="cls-3"><path class="cls-4" d="M54.12 88.66l-3.72 2.15-3.72-2.15v-4.29l3.72-2.15 3.72 2.15v4.29z"/></g><g class="cls-3"><path class="cls-4" d="M58.35 81.53l-3.71 2.15-3.72-2.15v-4.29l3.72-2.14 3.71 2.14v4.29z"/></g><g class="cls-3"><path class="cls-4" d="M62.48 88.66l-3.71 2.15-3.72-2.15v-4.29l3.72-2.15 3.71 2.15v4.29z"/></g><g class="cls-3"><path class="cls-4" d="M54.12 74.45l-3.72 2.14-3.72-2.14v-4.3l3.72-2.14 3.72 2.14v4.3z"/></g><g class="cls-3"><path class="cls-4" d="M58.35 67.32l-3.71 2.15-3.72-2.15v-4.29l3.72-2.15 3.71 2.15v4.29z"/></g><g class="cls-3"><path class="cls-4" d="M62.48 74.45l-3.71 2.14-3.72-2.14v-4.3l3.72-2.14 3.71 2.14v4.3z"/></g><g class="cls-3"><path class="cls-4" d="M54.12 60.23l-3.72 2.15-3.72-2.15v-4.29l3.72-2.14 3.72 2.14v4.29z"/></g><g class="cls-3"><path class="cls-4" d="M58.35 53.1l-3.71 2.15-3.72-2.15v-4.29l3.72-2.14 3.71 2.14v4.29z"/></g><g class="cls-3"><path class="cls-4" d="M62.48 60.23l-3.71 2.15-3.72-2.15v-4.29l3.72-2.14 3.71 2.14v4.29z"/></g><g class="cls-3"><path class="cls-4" d="M54.12 46.01l-3.72 2.15-3.72-2.15v-4.29l3.72-2.14 3.72 2.14v4.29z"/></g><g class="cls-3"><path class="cls-4" d="M62.48 46.01l-3.71 2.15-3.72-2.15v-4.29l3.72-2.14 3.71 2.14v4.29z"/></g><g class="cls-3"><path class="cls-4" d="M108.06 95.81l-3.71 2.14-3.72-2.14v-4.29l3.72-2.15 3.71 2.15v4.29z"/></g><g class="cls-3"><path class="cls-4" d="M66.62 95.81l-3.71 2.14-3.72-2.14v-4.29l3.72-2.15 3.71 2.15v4.29z"/></g><g class="cls-3"><path class="cls-4" d="M70.85 88.68l-3.71 2.14-3.72-2.14v-4.29l3.72-2.15 3.71 2.15v4.29z"/></g><g class="cls-3"><path class="cls-4" d="M74.98 95.81l-3.71 2.14-3.72-2.14v-4.29l3.72-2.15 3.71 2.15v4.29z"/></g><g class="cls-3"><path class="cls-4" d="M66.62 81.59l-3.71 2.15-3.72-2.15V77.3l3.72-2.14 3.71 2.14v4.29z"/></g><g class="cls-3"><path class="cls-4" d="M70.85 74.46l-3.71 2.15-3.72-2.15v-4.29l3.72-2.14 3.71 2.14v4.29z"/></g><g class="cls-3"><path class="cls-4" d="M74.98 81.59l-3.71 2.15-3.72-2.15V77.3l3.72-2.14 3.71 2.14v4.29z"/></g><g class="cls-3"><path class="cls-4" d="M66.62 67.38l-3.71 2.14-3.72-2.14v-4.29l3.72-2.15 3.71 2.15v4.29z"/></g><g class="cls-3"><path class="cls-4" d="M70.85 60.25l-3.71 2.15-3.72-2.15v-4.29l3.72-2.15 3.71 2.15v4.29z"/></g><g class="cls-3"><path class="cls-4" d="M74.98 67.38l-3.71 2.14-3.72-2.14v-4.29l3.72-2.15 3.71 2.15v4.29z"/></g><g class="cls-3"><path class="cls-4" d="M66.62 53.16l-3.71 2.15-3.72-2.15v-4.29l3.72-2.14 3.71 2.14v4.29z"/></g><g class="cls-3"><path class="cls-4" d="M70.85 46.04l-3.71 2.14-3.72-2.14v-4.29l3.72-2.15 3.71 2.15v4.29z"/></g><g class="cls-3"><path class="cls-4" d="M74.98 53.16l-3.71 2.15-3.72-2.15v-4.29l3.72-2.14 3.71 2.14v4.29z"/></g><g class="cls-3"><path class="cls-4" d="M83.25 95.77l-3.72 2.14-3.72-2.14v-4.3l3.72-2.14 3.72 2.14v4.3z"/></g><g class="cls-3"><path class="cls-4" d="M79.01 88.68l-3.71 2.14-3.72-2.14v-4.29l3.72-2.15 3.71 2.15v4.29z"/></g><g class="cls-3"><path class="cls-4" d="M83.25 81.55l-3.72 2.15-3.72-2.15v-4.29l3.72-2.15 3.72 2.15v4.29z"/></g><g class="cls-3"><path class="cls-4" d="M87.38 88.68l-3.72 2.14-3.72-2.14v-4.29l3.72-2.15 3.72 2.15v4.29z"/></g><g class="cls-3"><path class="cls-4" d="M79.01 74.46l-3.71 2.15-3.72-2.15v-4.29l3.72-2.14 3.71 2.14v4.29z"/></g><g class="cls-3"><path class="cls-4" d="M83.25 67.34l-3.72 2.14-3.72-2.14v-4.29l3.72-2.15 3.72 2.15v4.29z"/></g><g class="cls-3"><path class="cls-4" d="M87.38 74.46l-3.72 2.15-3.72-2.15v-4.29l3.72-2.14 3.72 2.14v4.29z"/></g><g class="cls-3"><path class="cls-4" d="M79.01 60.25L75.3 62.4l-3.72-2.15v-4.29l3.72-2.15 3.71 2.15v4.29z"/></g><path class="cls-2" d="M83.25 53.12l-3.72 2.15-3.72-2.15v-4.29l3.72-2.14 3.72 2.14v4.29z"/><g class="cls-3"><path class="cls-4" d="M87.38 60.25l-3.72 2.15-3.72-2.15v-4.29l3.72-2.15 3.72 2.15v4.29z"/></g><g class="cls-3"><path class="cls-4" d="M79.01 46.04l-3.71 2.14-3.72-2.14v-4.29l3.72-2.15 3.71 2.15v4.29z"/></g><g class="cls-3"><path class="cls-4" d="M87.38 46.04l-3.72 2.14-3.72-2.14v-4.29l3.72-2.15 3.72 2.15v4.29z"/></g><g class="cls-3"><path class="cls-4" d="M91.44 95.79l-3.72 2.14L84 95.79V91.5l3.72-2.15 3.72 2.15v4.29z"/></g><g class="cls-3"><path class="cls-4" d="M95.67 88.66l-3.72 2.15-3.71-2.15v-4.29l3.71-2.15 3.72 2.15v4.29z"/></g><path class="cls-2" d="M99.8 95.79l-3.71 2.14-3.72-2.14V91.5l3.72-2.15 3.71 2.15v4.29z"/><g class="cls-3"><path class="cls-4" d="M91.44 81.57l-3.72 2.15L84 81.57v-4.29l3.72-2.14 3.72 2.14v4.29z"/></g><path class="cls-5" d="M95.67 74.45l-3.72 2.14-3.71-2.14v-4.3l3.71-2.14 3.72 2.14v4.3z"/><g class="cls-3"><path class="cls-4" d="M99.8 81.57l-3.71 2.15-3.72-2.15v-4.29l3.72-2.14 3.71 2.14v4.29z"/></g><g class="cls-3"><path class="cls-4" d="M91.44 67.36l-3.72 2.14L84 67.36v-4.29l3.72-2.15 3.72 2.15v4.29z"/></g><g class="cls-3"><path class="cls-4" d="M95.67 60.23l-3.72 2.15-3.71-2.15v-4.29l3.71-2.14 3.72 2.14v4.29z"/></g><g class="cls-3"><path class="cls-4" d="M99.8 67.36l-3.71 2.14-3.72-2.14v-4.29l3.72-2.15 3.71 2.15v4.29z"/></g><g class="cls-3"><path class="cls-4" d="M91.44 53.15l-3.72 2.14L84 53.15v-4.3l3.72-2.14 3.72 2.14v4.3z"/></g><g class="cls-3"><path class="cls-4" d="M95.67 46.01l-3.72 2.15-3.71-2.15v-4.29l3.71-2.14 3.72 2.14v4.29z"/></g><g class="cls-3"><path class="cls-4" d="M99.8 53.15l-3.71 2.14-3.72-2.14v-4.3l3.72-2.14 3.71 2.14v4.3z"/></g><g class="cls-3"><path class="cls-4" d="M103.83 88.66l-3.72 2.15-3.71-2.15v-4.29l3.71-2.15 3.72 2.15v4.29z"/></g><g class="cls-3"><path class="cls-4" d="M108.06 81.53l-3.71 2.15-3.72-2.15v-4.29l3.72-2.14 3.71 2.14v4.29z"/></g><g class="cls-3"><path class="cls-4" d="M103.83 74.45l-3.72 2.14-3.71-2.14v-4.3l3.71-2.14 3.72 2.14v4.3z"/></g><g class="cls-3"><path class="cls-4" d="M108.06 67.32l-3.71 2.15-3.72-2.15v-4.29l3.72-2.15 3.71 2.15v4.29z"/></g><g class="cls-3"><path class="cls-4" d="M103.83 60.23l-3.72 2.15-3.71-2.15v-4.29l3.71-2.14 3.72 2.14v4.29z"/></g><g class="cls-3"><path class="cls-4" d="M108.06 53.1l-3.71 2.15-3.72-2.15v-4.29l3.72-2.14 3.71 2.14v4.29z"/></g><g class="cls-3"><path class="cls-4" d="M103.83 46.01l-3.72 2.15-3.71-2.15v-4.29l3.71-2.14 3.72 2.14v4.29z"/></g><g class="cls-3"><path class="cls-4" d="M16.91 38.95l-3.72 2.14-3.71-2.14v-4.29l3.71-2.15 3.72 2.15v4.29z"/></g><g class="cls-3"><path class="cls-4" d="M21.14 31.82l-3.71 2.15-3.72-2.15v-4.29l3.72-2.15 3.71 2.15v4.29z"/></g><g class="cls-3"><path class="cls-4" d="M25.27 38.95l-3.71 2.14-3.72-2.14v-4.29l3.72-2.15 3.71 2.15v4.29z"/></g><g class="cls-3"><path class="cls-4" d="M16.91 24.73l-3.72 2.15-3.71-2.15v-4.29l3.71-2.14 3.72 2.14v4.29z"/></g><g class="cls-3"><path class="cls-4" d="M21.14 17.61l-3.71 2.14-3.72-2.14v-4.29l3.72-2.15 3.71 2.15v4.29z"/></g><g class="cls-3"><path class="cls-4" d="M25.27 24.73l-3.71 2.15-3.72-2.15v-4.29l3.72-2.14 3.71 2.14v4.29z"/></g><g class="cls-3"><path class="cls-4" d="M33.53 38.91l-3.71 2.14-3.72-2.14v-4.29l3.72-2.15 3.71 2.15v4.29z"/></g><g class="cls-3"><path class="cls-4" d="M29.3 31.82l-3.71 2.15-3.72-2.15v-4.29l3.72-2.15 3.71 2.15v4.29z"/></g><g class="cls-3"><path class="cls-4" d="M33.53 24.69l-3.71 2.15-3.72-2.15V20.4l3.72-2.14 3.71 2.14v4.29z"/></g><g class="cls-3"><path class="cls-4" d="M37.67 31.82l-3.72 2.15-3.72-2.15v-4.29l3.72-2.15 3.72 2.15v4.29z"/></g><g class="cls-3"><path class="cls-4" d="M29.3 17.61l-3.71 2.14-3.72-2.14v-4.29l3.72-2.15 3.71 2.15v4.29z"/></g><g class="cls-3"><path class="cls-4" d="M37.67 17.61l-3.72 2.14-3.72-2.14v-4.29l3.72-2.15 3.72 2.15v4.29z"/></g><g class="cls-3"><path class="cls-4" d="M41.73 38.93l-3.72 2.14-3.72-2.14v-4.3l3.72-2.14 3.72 2.14v4.3z"/></g><path class="cls-2" d="M45.96 31.8l-3.72 2.15-3.71-2.15v-4.29l3.71-2.15 3.72 2.15v4.29z"/><g class="cls-3"><path class="cls-4" d="M50.09 38.93l-3.72 2.14-3.71-2.14v-4.3l3.71-2.14 3.72 2.14v4.3z"/></g><g class="cls-3"><path class="cls-4" d="M41.73 24.71l-3.72 2.15-3.72-2.15v-4.29l3.72-2.14 3.72 2.14v4.29z"/></g><g class="cls-3"><path class="cls-4" d="M45.96 17.59l-3.72 2.14-3.71-2.14v-4.3l3.71-2.14 3.72 2.14v4.3z"/></g><g class="cls-3"><path class="cls-4" d="M50.09 24.71l-3.72 2.15-3.71-2.15v-4.29l3.71-2.14 3.72 2.14v4.29z"/></g><g class="cls-3"><path class="cls-4" d="M58.35 38.89l-3.71 2.15-3.72-2.15V34.6l3.72-2.15 3.71 2.15v4.29z"/></g><g class="cls-3"><path class="cls-4" d="M54.12 31.8l-3.72 2.15-3.72-2.15v-4.29l3.72-2.15 3.72 2.15v4.29z"/></g><g class="cls-3"><path class="cls-4" d="M58.35 24.67l-3.71 2.15-3.72-2.15v-4.29l3.72-2.14 3.71 2.14v4.29z"/></g><g class="cls-3"><path class="cls-4" d="M62.48 31.8l-3.71 2.15-3.72-2.15v-4.29l3.72-2.15 3.71 2.15v4.29z"/></g><g class="cls-3"><path class="cls-4" d="M54.12 17.59l-3.72 2.14-3.72-2.14v-4.3l3.72-2.14 3.72 2.14v4.3z"/></g><g class="cls-3"><path class="cls-4" d="M62.48 17.59l-3.71 2.14-3.72-2.14v-4.3l3.72-2.14 3.71 2.14v4.3z"/></g><path class="cls-2" d="M66.62 38.95l-3.71 2.14-3.72-2.14v-4.29l3.72-2.15 3.71 2.15v4.29z"/><g class="cls-3"><path class="cls-4" d="M70.85 31.82l-3.71 2.15-3.72-2.15v-4.29l3.72-2.15 3.71 2.15v4.29z"/></g><g class="cls-3"><path class="cls-4" d="M74.98 38.95l-3.71 2.14-3.72-2.14v-4.29l3.72-2.15 3.71 2.15v4.29z"/></g><g class="cls-3"><path class="cls-4" d="M66.62 24.73l-3.71 2.15-3.72-2.15v-4.29l3.72-2.14 3.71 2.14v4.29z"/></g><g class="cls-3"><path class="cls-4" d="M70.85 17.61l-3.71 2.14-3.72-2.14v-4.29l3.72-2.15 3.71 2.15v4.29z"/></g><g class="cls-3"><path class="cls-4" d="M74.98 24.73l-3.71 2.15-3.72-2.15v-4.29l3.72-2.14 3.71 2.14v4.29z"/></g><g class="cls-3"><path class="cls-4" d="M83.25 38.91l-3.72 2.14-3.72-2.14v-4.29l3.72-2.15 3.72 2.15v4.29z"/></g><g class="cls-3"><path class="cls-4" d="M79.01 31.82l-3.71 2.15-3.72-2.15v-4.29l3.72-2.15 3.71 2.15v4.29z"/></g><g class="cls-3"><path class="cls-4" d="M83.25 24.69l-3.72 2.15-3.72-2.15V20.4l3.72-2.14 3.72 2.14v4.29z"/></g><g class="cls-3"><path class="cls-4" d="M87.38 31.82l-3.72 2.15-3.72-2.15v-4.29l3.72-2.15 3.72 2.15v4.29z"/></g><g class="cls-3"><path class="cls-4" d="M79.01 17.61l-3.71 2.14-3.72-2.14v-4.29l3.72-2.15 3.71 2.15v4.29z"/></g><g class="cls-3"><path class="cls-4" d="M87.38 17.61l-3.72 2.14-3.72-2.14v-4.29l3.72-2.15 3.72 2.15v4.29z"/></g><g class="cls-3"><path class="cls-4" d="M91.44 38.93l-3.72 2.14L84 38.93v-4.3l3.72-2.14 3.72 2.14v4.3z"/></g><g class="cls-3"><path class="cls-4" d="M95.67 31.8l-3.72 2.15-3.71-2.15v-4.29l3.71-2.15 3.72 2.15v4.29z"/></g><g class="cls-3"><path class="cls-4" d="M99.8 38.93l-3.71 2.14-3.72-2.14v-4.3l3.72-2.14 3.71 2.14v4.3z"/></g><g class="cls-3"><path class="cls-4" d="M91.44 24.71l-3.72 2.15L84 24.71v-4.29l3.72-2.14 3.72 2.14v4.29z"/></g><g class="cls-3"><path class="cls-4" d="M95.67 17.59l-3.72 2.14-3.71-2.14v-4.3l3.71-2.14 3.72 2.14v4.3z"/></g><g class="cls-3"><path class="cls-4" d="M99.8 24.71l-3.71 2.15-3.72-2.15v-4.29l3.72-2.14 3.71 2.14v4.29z"/></g><g class="cls-3"><path class="cls-4" d="M108.06 38.89l-3.71 2.15-3.72-2.15V34.6l3.72-2.15 3.71 2.15v4.29z"/></g><g class="cls-3"><path class="cls-4" d="M103.83 31.8l-3.72 2.15-3.71-2.15v-4.29l3.71-2.15 3.72 2.15v4.29z"/></g><g class="cls-3"><path class="cls-4" d="M108.06 24.67l-3.71 2.15-3.72-2.15v-4.29l3.72-2.14 3.71 2.14v4.29z"/></g><g class="cls-3"><path class="cls-4" d="M103.83 17.59l-3.72 2.14-3.71-2.14v-4.3l3.71-2.14 3.72 2.14v4.3z"/></g></g></g></svg>