<svg xmlns="http://www.w3.org/2000/svg" viewBox="0 0 108 108"><defs><style>.cls-1{fill:#00b0ff}</style></defs><g id="图层_2" data-name="图层 2"><g id="Layer_1" data-name="Layer 1"><path class="cls-1" d="M54 65a11 11 0 1111-11 11 11 0 01-11 11zm0-21.51A10.54 10.54 0 1064.54 54 10.55 10.55 0 0054 43.46z"/><path class="cls-1" d="M54 61.28A7.28 7.28 0 1161.28 54 7.29 7.29 0 0154 61.28zm0-14.35A7.07 7.07 0 1061.06 54 7.07 7.07 0 0054 46.93zm0 10.76A3.7 3.7 0 1157.69 54 3.69 3.69 0 0154 57.69zm0-7.17A3.48 3.48 0 1057.48 54 3.48 3.48 0 0054 50.52z"/><path class="cls-1" d="M54 75.73A21.73 21.73 0 1175.73 54 21.76 21.76 0 0154 75.73zm0-43A21.3 21.3 0 1075.3 54 21.32 21.32 0 0054 32.7z"/><path class="cls-1" d="M54 72a18 18 0 1118-18 18.06 18.06 0 01-18 18zm0-35.85A17.82 17.82 0 1071.82 54 17.84 17.84 0 0054 36.18zm0 32.27A14.45 14.45 0 1168.45 54 14.46 14.46 0 0154 68.45zm0-28.69A14.24 14.24 0 1068.23 54 14.26 14.26 0 0054 39.76z"/><path class="cls-1" d="M54 86.48A32.49 32.49 0 1186.49 54 32.52 32.52 0 0154 86.48zm0-64.54A32.06 32.06 0 1086.06 54 32.09 32.09 0 0054 21.94z"/><path class="cls-1" d="M54 82.79A28.79 28.79 0 1182.79 54 28.82 28.82 0 0154 82.79zm0-57.37A28.58 28.58 0 1082.58 54 28.61 28.61 0 0054 25.42zm0 53.79A25.21 25.21 0 1179.21 54 25.24 25.24 0 0154 79.21zM54 29a25 25 0 1025 25 25 25 0 00-25-25z"/><path class="cls-1" d="M54 97.24A43.24 43.24 0 1197.24 54 43.29 43.29 0 0154 97.24zm0-86A42.81 42.81 0 1096.81 54 42.85 42.85 0 0054 11.19z"/><path class="cls-1" d="M54 93.55A39.55 39.55 0 1193.55 54 39.59 39.59 0 0154 93.55zm0-78.89A39.34 39.34 0 1093.33 54 39.38 39.38 0 0054 14.66zM54 90a36 36 0 1136-36 36 36 0 01-36 36zm0-71.71A35.75 35.75 0 1089.75 54 35.79 35.79 0 0054 18.25z"/><path class="cls-1" d="M54 108a54 54 0 1154-54 54.06 54.06 0 01-54 54zM54 .43A53.57 53.57 0 10107.57 54 53.63 53.63 0 0054 .43z"/><path class="cls-1" d="M54 104.3A50.31 50.31 0 11104.31 54 50.36 50.36 0 0154 104.3zM54 3.91A50.09 50.09 0 10104.09 54 50.15 50.15 0 0054 3.91zm0 96.81A46.72 46.72 0 11100.72 54 46.77 46.77 0 0154 100.72zm0-93.23A46.51 46.51 0 10100.5 54 46.56 46.56 0 0054 7.49z"/><path class="cls-1" d="M54.22 107.78h-.44V54.21H43.24v-.43h10.54V43.24h.44v10.54h53.56v.43H54.22zM67.71 106L56.58 64.45l.41-.12 11.14 41.57zm-27.42 0l-.42-.11L51 64.33l.41.12zm40.42-5.33L59.19 63.42l.37-.21 21.52 37.26zm-53.42 0l-.37-.21 21.52-37.25.37.21zm64.59-8.5L61.46 61.76l.3-.31 30.42 30.43zm-75.76 0l-.3-.3 30.42-30.42.3.31zm84.35-11.1L63.21 59.56l.21-.37 37.27 21.52zm-92.94 0l-.22-.37 37.27-21.51.21.37zm98.37-13L64.33 57l.12-.42L106 67.71zm-103.8 0l-.1-.36 41.55-11.14.11.42zm41.14-13.86H.22v-.43h43zm21.21-2.79l-.12-.42 41.57-11.13.11.42zm-20.9 0L2 40.29l.11-.42L43.66 51zm19.87-2.61l-.21-.38 37.26-21.51.22.37zm-18.84 0L7.31 27.29l.22-.37 37.26 21.51zm17.18-2.27l-.3-.3 30.42-30.43.3.31zm-15.52 0L15.82 16.12l.3-.31 30.42 30.43zm13.32-1.75l-.37-.21L80.71 7.31l.37.22zm-11.12 0L26.92 7.53l.37-.22 21.52 37.27zM57 43.66l-.41-.11L67.71 2l.42.11zm-6 0L39.87 2.1l.42-.1 11.13 41.55zm3.21-.42h-.44V.21h.44z"/><path class="cls-1" d="M54.54 54a.54.54 0 11-.54-.54.54.54 0 01.54.54z"/></g></g></svg>