<svg xmlns="http://www.w3.org/2000/svg" viewBox="0 0 364.06 244.03"><defs><style>.cls-3,.cls-4{fill:#fff}.cls-3,.cls-5{opacity:.5}.cls-3{mix-blend-mode:multiply}.cls-6{opacity:.35}.cls-7{opacity:.3}.cls-11{opacity:.15}</style></defs><g style="isolation:isolate"><g id="图层_2" data-name="图层 2"><g style="mix-blend-mode:screen" id="图层_1-2" data-name="图层 1"><path class="cls-3" d="M214.07 219.36a5.44 5.44 0 115.44-5.44 5.44 5.44 0 01-5.44 5.44z"/><path class="cls-3" d="M214.07 218.6a4.69 4.69 0 114.68-4.68 4.69 4.69 0 01-4.68 4.68z"/><path class="cls-3" d="M214.07 217.93a4 4 0 114-4 4 4 0 01-4 4z"/><path class="cls-3" d="M214.07 217.13a3.21 3.21 0 113.21-3.21 3.21 3.21 0 01-3.21 3.21z"/><path class="cls-4" d="M214.07 216.31a2.39 2.39 0 112.39-2.39 2.39 2.39 0 01-2.39 2.39z"/><g class="cls-5"><path class="cls-3" d="M254.43 155.94a5.45 5.45 0 115.44-5.45 5.44 5.44 0 01-5.44 5.45z"/><path class="cls-3" d="M254.43 155.18a4.69 4.69 0 114.68-4.69 4.68 4.68 0 01-4.68 4.69z"/><path class="cls-3" d="M254.43 154.5a4 4 0 114-4 4 4 0 01-4 4z"/><path class="cls-3" d="M254.43 153.7a3.21 3.21 0 113.21-3.21 3.21 3.21 0 01-3.21 3.21z"/><path class="cls-4" d="M254.43 152.88a2.39 2.39 0 112.39-2.39 2.39 2.39 0 01-2.39 2.39z"/></g><g class="cls-5"><path class="cls-3" d="M191 85.66a7.69 7.69 0 117.71-7.66 7.69 7.69 0 01-7.71 7.66z"/><path class="cls-3" d="M191 84.59a6.62 6.62 0 116.64-6.59 6.63 6.63 0 01-6.64 6.59z"/><path class="cls-3" d="M191 83.63a5.67 5.67 0 115.69-5.63 5.66 5.66 0 01-5.69 5.63z"/><path class="cls-3" d="M191 82.5a4.54 4.54 0 114.56-4.5 4.53 4.53 0 01-4.56 4.5z"/><path class="cls-4" d="M191 81.34a3.38 3.38 0 113.4-3.34 3.38 3.38 0 01-3.4 3.34z"/></g><g class="cls-6"><path class="cls-3" d="M226.57 42.83a7.69 7.69 0 117.69-7.69 7.69 7.69 0 01-7.69 7.69z"/><path class="cls-3" d="M226.57 41.76a6.62 6.62 0 116.62-6.62 6.62 6.62 0 01-6.62 6.62z"/><path class="cls-3" d="M226.57 40.81a5.67 5.67 0 115.67-5.67 5.67 5.67 0 01-5.67 5.67z"/><path class="cls-3" d="M226.57 39.68a4.54 4.54 0 114.53-4.54 4.53 4.53 0 01-4.53 4.54z"/><path class="cls-4" d="M226.57 38.52a3.38 3.38 0 113.43-3.38 3.38 3.38 0 01-3.43 3.38z"/></g><g class="cls-6"><path class="cls-3" d="M306.13 124.5a7.69 7.69 0 117.69-7.69 7.69 7.69 0 01-7.69 7.69z"/><circle class="cls-3" cx="306.13" cy="116.81" r="6.62" transform="rotate(-80.88 306.114 116.81)"/><circle class="cls-3" cx="306.13" cy="116.81" r="5.67"/><path class="cls-3" d="M306.13 121.34a4.54 4.54 0 114.53-4.53 4.53 4.53 0 01-4.53 4.53z"/><path class="cls-4" d="M306.13 120.18a3.38 3.38 0 113.37-3.37 3.37 3.37 0 01-3.37 3.37z"/></g><g class="cls-6"><path class="cls-3" d="M282.05 149.19a4.81 4.81 0 114.8-4.81 4.8 4.8 0 01-4.8 4.81z"/><path class="cls-3" d="M282.05 148.52a4.14 4.14 0 114.14-4.14 4.13 4.13 0 01-4.14 4.14z"/><path class="cls-3" d="M282.05 147.92a3.54 3.54 0 113.54-3.54 3.54 3.54 0 01-3.54 3.54z"/><path class="cls-3" d="M282.05 147.21a2.83 2.83 0 112.83-2.83 2.83 2.83 0 01-2.83 2.83z"/><path class="cls-4" d="M282.05 146.49a2.11 2.11 0 112.11-2.11 2.11 2.11 0 01-2.11 2.11z"/></g><g class="cls-6"><path class="cls-3" d="M226.57 112a4.8 4.8 0 114.8-4.8 4.8 4.8 0 01-4.8 4.8z"/><path class="cls-3" d="M226.57 111.32a4.13 4.13 0 114.13-4.13 4.13 4.13 0 01-4.13 4.13z"/><path class="cls-3" d="M226.57 110.73a3.54 3.54 0 113.54-3.54 3.55 3.55 0 01-3.54 3.54z"/><path class="cls-3" d="M226.57 110a2.83 2.83 0 112.83-2.83 2.83 2.83 0 01-2.83 2.83z"/><path class="cls-4" d="M226.57 109.3a2.11 2.11 0 112.11-2.11 2.12 2.12 0 01-2.11 2.11z"/></g><g class="cls-6"><path class="cls-3" d="M164.18 133.19a7.38 7.38 0 117.37-7.38 7.37 7.37 0 01-7.37 7.38z"/><path class="cls-3" d="M164.18 132.16a6.35 6.35 0 116.34-6.35 6.35 6.35 0 01-6.34 6.35z"/><path class="cls-3" d="M164.18 131.25a5.44 5.44 0 115.43-5.44 5.44 5.44 0 01-5.43 5.44z"/><path class="cls-3" d="M164.18 130.16a4.35 4.35 0 114.35-4.35 4.35 4.35 0 01-4.35 4.35z"/><path class="cls-4" d="M164.18 129.05a3.24 3.24 0 113.24-3.24 3.24 3.24 0 01-3.24 3.24z"/></g><g class="cls-6"><path class="cls-3" d="M114.87 99.61a7.37 7.37 0 117.38-7.37 7.37 7.37 0 01-7.38 7.37z"/><path class="cls-3" d="M114.87 98.59a6.35 6.35 0 116.35-6.35 6.35 6.35 0 01-6.35 6.35z"/><path class="cls-3" d="M114.87 97.67a5.44 5.44 0 115.44-5.43 5.43 5.43 0 01-5.44 5.43z"/><path class="cls-3" d="M114.87 96.59a4.35 4.35 0 114.35-4.35 4.34 4.34 0 01-4.35 4.35z"/><path class="cls-4" d="M114.87 95.48a3.24 3.24 0 113.24-3.24 3.24 3.24 0 01-3.24 3.24z"/></g><g class="cls-6"><path class="cls-3" d="M262.2 82a7.37 7.37 0 117.37-7.37A7.38 7.38 0 01262.2 82z"/><path class="cls-3" d="M262.2 80.94a6.35 6.35 0 116.34-6.35 6.35 6.35 0 01-6.34 6.35z"/><path class="cls-3" d="M262.2 80a5.44 5.44 0 115.43-5.44A5.45 5.45 0 01262.2 80z"/><circle class="cls-3" cx="262.2" cy="74.59" r="4.35" transform="rotate(-67.33 262.212 74.582)"/><path class="cls-4" d="M262.2 77.83a3.24 3.24 0 113.24-3.24 3.24 3.24 0 01-3.24 3.24z"/></g><g class="cls-7"><path class="cls-4" d="M146.33 113.57l.07-.32 12.53-60.3.46.15 44.31 15.09 44.51-63.9L292.9 46l69.63 8.67-.11.84-69.89-8.71-44.18-41.23-44.32 63.63-44.46-15.14-12.28 59.04 123.14 61.11 70.8-44.69.45.71-71.2 44.95-.21-.11-123.94-61.5z"/></g><path class="cls-4" d="M131.76 218.76l18-64.16h.08l50.81-27.09 21.76 8.93 25.7-45h.12l54.93-3.17v.42l-54.81 3.16-25.56 44.74L311.61 173l-.12.21-39.42 66.25-.19-.23-64.11-77.13 14.47-25.33-21.53-8.83-50.55 26.95-18 64zm90.87-81.82l-14.35 25.11L272 238.74l39-65.53z"/><path class="cls-4" d="M118.09 70.89l.76-.76L179.7 9.6l.14.07 57.15 29.24.02.05 113.42 168.4-.35.24L236.69 39.24l-56.91-29.12-59.87 59.55 39.43-16.44.09.17 41.34 73.99 47.38-35.93.26.34-47.78 36.22-.12-.21-41.35-74.04-41.07 17.12z"/><path class="cls-4" d="M109.65 168.37l.16-.38 57.5 25.12L203.7 68.52h.12l88.84-22.32.11.41L204 68.87l-36.3 124.41 105.6 46.14-86.37-7.42-.05-.11-19.76-38.1.07-.25zm57.93 25.32l19.63 37.86 83.58 7.2z"/><path class="cls-4" d="M43.58 158.02l.07-.18 33.62-92.7v59.19l123.18 3.15-20.87-117.35-69.78 22.05-.13-.41 70.24-22.19.04.24 21 118.1-124.11-3.18V67.55l-32.73 90.26 143.05 73.78-.19.38-143.39-73.95z"/><path class="cls-4" d="M5.52 113.16L77 66.13h.07l42.05 3.95.06.08 27.81 43.06-.36.23-27.75-42.97-41.77-3.92-71.36 46.95-.23-.35zM108.36 32.86l1.15-1.23.31.29-1.16 1.23-.3-.29zM80.44 62.7l2.32-2.49.31.29-2.32 2.5zm4.65-5l2.33-2.48.3.29L85.4 58zm4.65-5l2.33-2.48.31.28-2.33 2.5zm4.66-5l2.32-2.49.31.29-2.32 2.49zm4.65-5l2.33-2.49.3.29-2.32 2.6zm4.66-5l2.29-2.35.31.29-2.31 2.48z"/><path class="cls-4" d="M76.78 66.6l1.33-1.42.31.29-.99 1.05 1.2.8-.23.35-1.62-1.07zM81.33 69.61l.23-.35 2.93 1.94-.23.36zm5.86 3.89l.23-.35 2.93 1.94-.23.35zM93 77.38l.24-.35L96.21 79l-.24.36zm5.86 3.89l.24-.35 2.93 1.94-.24.35zm5.86 3.88l.23-.35 2.93 1.94-.23.35zm5.9 3.85l.23-.36 2.93 1.95-.23.35zm5.86 3.88l.23-.35 2.93 1.94-.23.35zm5.85 3.89l.24-.36 2.93 2-.24.35zm5.86 3.88l.24-.35 2.93 1.94-.24.35zm5.86 3.88l.23-.35 2.93 2-.23.35zm5.86 3.89l.23-.35 2.93 1.94-.23.35zM145.59 113.16l1.13-.18-.95-.64.23-.35 1.86 1.23-2.2.36-.07-.42zM82.08 123.34l3.17-.51.07.42-3.18.51zm6.35-1l3.17-.51.07.42-3.18.51zm6.35-1l3.22-.54.07.41-3.17.51zm6.35-1l3.18-.51.06.42-3.17.51zm6.35-1l3.18-.51.06.42-3.17.51zm6.35-1l3.18-.51.06.42-3.17.51zm6.35-1l3.18-.51.07.42-3.18.51zm6.35-1l3.18-.51.07.42-3.18.51zm6.36-1l3.17-.51.07.41-3.18.51zm6.35-1l3.17-.51.07.42-3.18.51zM76.89 124.17l2.01-.32.07.42-1.33.21.8 1.08-.34.25-1.21-1.64zM80.12 128.57l.34-.25 2 2.75-.34.26zm4 5.51l.34-.25 2 2.75-.34.25zm4 5.51l.34-.25 2 2.75-.34.25zm4 5.51l.34-.25 2 2.75-.34.25zm4 5.51l.35-.25 2 2.75-.34.25zm4.05 5.51l.34-.25 2 2.75-.34.25zm4 5.51l.35-.25 2 2.75-.34.25zM108.48 167.14l.34-.25.91 1.24 1.46-.49.13.4-1.75.58-1.09-1.48zM114.39 166.57l3.2-1.06.13.4-3.2 1.07zm6.4-2.13l3.2-1.06.14.4-3.21 1.06zm6.41-2.13l3.2-1.06.13.4-3.2 1.06zm6.4-2.13l3.2-1.07.14.4-3.21 1.07zm6.41-2.13l3.2-1.07.13.4-3.2 1.07zm6.4-2.13l3.2-1.07.14.4-3.21 1.07zm6.57-.47l.02-.45 3.35.42v.41zm6.7.83v-.42l3.35.41-.05.42zm6.7.82l.05-.42 3.35.42-.05.42zm6.7.83v-.42l3.35.41v.42zm6.7.82l.05-.42 3.35.42-.05.42zm6.7.83l.05-.42 3.35.41v.42zm6.7.82v-.42l3.35.42-.05.42zm6.7.83l.05-.42 3.35.41-.05.42zM206.58 162.05l.05-.42 2.2.28-1.78 1.32-.25-.34.93-.69-1.15-.15zM135.72 215.56l2.74-2 .25.34-2.74 2zm5.47-4.05l2.73-2 .26.34-2.74 2zm5.47-4l2.73-2 .25.34-2.73 2zm5.46-4.06l2.74-2 .25.34-2.73 2zm5.47-4.05l2.74-2 .25.34-2.74 2zm5.47-4l2.73-2 .25.34-2.73 2zm5.47-4.05l2.73-2 .25.34-2.73 2zm5.47-4.15l2.74-2 .25.34-2.74 2zm5.47-4l2.73-2 .26.34-2.74 2zm5.47-4.06l2.73-2 .25.34-2.73 2zm5.46-4.14l2.73-2 .25.34-2.73 2zm5.46-4l2.74-2 .25.34-2.74 2zm5.47-4.05l2.73-2 .25.34-2.73 2zM131.27 218.86l1.72-1.28.25.34-.99.74 1.2.29-.1.41-2.08-.5zM136.81 220.19l.1-.41 3.46.82-.1.41zm6.93 1.65l.1-.41 3.46.83-.1.41zm6.92 1.66l.1-.41 3.46.83-.1.41zm6.92 1.65l.1-.41 3.46.83-.1.41zm6.93 1.66l.09-.41 3.47.83-.1.41zm6.92 1.66l.1-.41 3.46.82-.1.41zm6.92 1.65l.1-.41 3.46.83-.1.41zM185.28 231.78l.09-.41 1.56.37 1.32-.9.23.35-1.47 1-1.73-.41zM191 228.94l2.78-1.89.24.34-2.78 1.9zm5.55-3.79l2.78-1.9.24.35-2.78 1.9zm5.56-3.79l2.77-1.9.24.35-2.78 1.9zm5.55-3.79l2.78-1.9.23.35-2.77 1.89zm5.55-3.8l2.78-1.89.23.35-2.77 1.89zm5.55-3.79l2.78-1.9.24.35-2.78 1.9zm5.56-3.79l2.77-1.9.24.35-2.78 1.9zm5.55-3.79l2.77-1.9.24.35-2.77 1.9zm5.55-3.8l2.78-1.89.24.35-2.76 1.94zm5.55-3.79l2.78-1.89.24.34-2.78 1.9zm5.56-3.79l2.77-1.9.24.35-2.78 1.9zm5.55-3.79l2.77-1.9.24.35-2.77 1.9zm5.55-3.79l2.78-1.9.23.35-2.77 1.89zm5.55-3.8l2.78-1.89.24.35-2.76 1.9z"/><path class="cls-4" transform="rotate(-34.32 269.556 175.535)" d="M268.73 175.34h1.69v.42h-1.69z"/><g class="cls-5"><path class="cls-4" d="M5.75 113.51l.55.64M7.27 115.59l.32-.27 1.13 1.3-.32.28zm2.26 2.61l.32-.28 1.15 1.31-.32.27zm2.26 2.61l.32-.28 1.13 1.3-.32.28zm2.26 2.61l.32-.28 1.12 1.3-.32.28zM16.3 126l.32-.27 1.13 1.3-.32.28zm2.26 2.61l.32-.28 1.12 1.33-.32.27zm2.26 2.61l.32-.28 1.13 1.3-.32.28zm2.25 2.61l.32-.28 1.13 1.3-.32.28zm2.26 2.6l.32-.27 1.13 1.3-.32.28zm2.26 2.61l.32-.28 1.09 1.33-.32.27zm2.26 2.61l.32-.28 1.13 1.31-.3.32zm2.26 2.61l.32-.28 1.13 1.3-.32.28zm2.25 2.6l.32-.27 1.13 1.3-.32.28zm2.26 2.61l.32-.28 1.13 1.31-.32.28zm2.26 2.61l.32-.28 1.13 1.31-.32.27zm2.26 2.61l.32-.28 1.12 1.3-.32.28zM43.39 157.31l.32-.27.41.46.42-.44.31.3-.75.77-.71-.82zM45.72 155.85l1.18-1.21.3.3-1.2 1.21zm2.36-2.41l1.18-1.21.3.29-1.18 1.21zm2.35-2.44l1.18-1.21.31.3-1.18 1.2zm2.36-2.42l1.21-1.19.3.3-1.18 1.21zm2.36-2.42l1.17-1.2.31.29-1.18 1.21zm2.35-2.41l1.18-1.21.3.29-1.18 1.21zm2.36-2.42l1.14-1.19.31.3-1.18 1.21zm2.35-2.42l1.18-1.2.3.29-1.17 1.21zm2.36-2.41l1.17-1.21.31.29-1.18 1.21zm2.35-2.42l1.18-1.21.3.3-1.17 1.2zm2.36-2.42l1.18-1.21.3.3-1.18 1.25zm2.35-2.41l1.18-1.21.31.29-1.18 1.21zm2.37-2.4l1.18-1.21.3.29-1.18 1.21zm2.35-2.42l.4-.4.87-.75.27.33-.85.72-.38.4zm2.55-2.24l1.28-1.1.27.32-1.28 1.1zm2.56-2.2l1.28-1.1.28.33-1.28 1.09zM84 117.8l1.28-1.1.27.32-1.28 1.1zm2.56-2.2l1.28-1.09.28.32-1.29 1.09zm2.57-2.19l1.28-1.1.27.32-1.28 1.1zm2.56-2.2l1.31-1.09.28.32-1.28 1.1zm2.58-2.21l1.29-1.1.27.32-1.28 1.1zm2.57-2.2l1.28-1.09.27.32-1.28 1.1zm2.56-2.19l1.28-1.1.28.32-1.28 1.17zm2.57-2.19l1.28-1.1.27.32-1.28 1.1zm2.56-2.2l1.28-1.1.28.33-1.29 1.09zm2.56-2.19l1.29-1.1.27.32-1.28 1.1zm2.57-2.2l1.28-1.09.27.32-1.28 1.09zm2.56-2.19l1.29-1.1.27.32L112.5 94zm2.57-2.2l1.28-1.09.27.32-1.28 1.1zm2.56-2.19l1.28-1.1.28.32-1.28 1.1zm2.57-2.19L121.2 86l.27.32-1.28 1.1zm2.56-2.2l1.28-1.1.28.33-1.29 1.09zm2.52-2.17l1.29-1.1.27.32-1.24 1.09zm2.57-2.2l1.28-1.09.27.32-1.28 1.09zm2.56-2.19l1.28-1.1.28.32-1.28 1.1zm2.57-2.2L134 75l.27.32-1.27 1.1zm2.56-2.19l1.28-1.1.28.32-1.29 1.1zm2.57-2.19l1.28-1.1.27.32-1.24 1.06zm2.56-2.2l1.28-1.1.28.32-1.29 1.1zm2.56-2.2l1.29-1.09.27.32-1.28 1.1zm2.57-2.19l1.28-1.1.27.32-1.28 1.1zm2.56-2.19l1.28-1.1.28.32-1.28 1.1zm2.57-2.2l1.28-1.1.27.33-1.2 1.09zm2.56-2.19l1.28-1.1.28.32-1.29 1.1zm2.56-2.2l1.29-1.09.27.32-1.28 1.09zM158.38 54.16l.74-.64.9.39-.17.39-.66-.28-.54.46-.27-.32zM161.39 55l.17-.39 1.54.66-.16.39zm3.09 1.32l.16-.39 1.55.66-.17.39zm3.08 1.31l.17-.39 1.54.66-.16.39zm3.09 1.32l.17-.39 1.54.66-.17.38zm3.09 1.31l.16-.39 1.54.66-.16.39zm3.08 1.32l.17-.39 1.54.66-.17.38zm3.09 1.31l.16-.39 1.55.66-.17.39zm3.09 1.27l.17-.39 1.54.65-.16.39zm3.09 1.31l.16-.39 1.55.66-.17.39zm3.08 1.32l.17-.39 1.54.65-.16.39zm3.09 1.31l.16-.39 1.55.66-.17.39zm3.08 1.31l.17-.38 1.54.65-.16.39zm3.09 1.32l.17-.39 1.54.66-.17.39zm3.08 1.27l.16-.39 1.54.66-.16.39zm3.08 1.32l.17-.39 1.54.66-.17.39zm3.09 1.31l.16-.38 1.54.65-.16.39zm3.08 1.37l.17-.39 1.54.66-.17.39zm3.09 1.31l.16-.39 1.54.66-.16.39zm3.08 1.32l.17-.39 1.54.66-.16.38zm3.07 1.3l.16-.39 1.55.66-.17.39zm3.08 1.32l.17-.39 1.54.65-.16.39zm3.09 1.31l.17-.39 1.54.66-.17.39zm3.09 1.32l.16-.39 1.54.65-.16.39zm3.08 1.31l.17-.39 1.54.66-.17.39zm3.09 1.32l.16-.39 1.54.65-.16.39zm3.08 1.31l.17-.39 1.54.66-.16.39zm3.09 1.32l.16-.39 1.55.65-.17.39zm3.08 1.31l.17-.39 1.54.66-.16.39zm3.09 1.31l.16-.38 1.55.64-.16.39zm3.1 1.29l.16-.39 1.55.64-.16.39zm3.1 1.28l.16-.39 1.55.64-.16.39zm3.1 1.28l.16-.4 1.55.64-.16.39zm3.1 1.27l.16-.39 1.55.64-.16.39zm3.1 1.28l.16-.39 1.55.64-.16.39zm3.1 1.28l.16-.39 1.56.64-.17.39zm3.1 1.28l.17-.39 1.55.63-.17.4zm3.1 1.27l.17-.39 1.55.64-.16.39zm3.11 1.28l.16-.39 1.55.64-.16.39zm3.1 1.28l.16-.39 1.55.64-.16.39zm3.1 1.28l.16-.39 1.55.64-.16.39zm3.1 1.28l.16-.4 1.55.64-.16.4zm3.1 1.27l.16-.39 1.55.64-.16.39zm3.1 1.28l.16-.39 1.55.64-.16.39zm3.1 1.28l.16-.39 1.55.64-.16.39zm3.1 1.28l.17-.39 1.55.63-.17.4zm3.1 1.27l.17-.39 1.55.64-.17.39zm3.11 1.28l.16-.39 1.55.64-.16.39zm3.1 1.28l.16-.39 1.55.64-.16.39zm3.1 1.28l.16-.39 1.55.64-.16.39zm3.1 1.28l.16-.4 1.55.64-.16.39zm3.1 1.27l.16-.39 1.55.64-.16.39zm3.1 1.28l.16-.39 1.55.64-.16.39zm3.1 1.28l.16-.39 1.55.64-.16.39zm3.1 1.28l.16-.39 1.55.67-.16.39zm3.1 1.28l.16-.4 1.55.64-.16.39zm3.1 1.27l.16-.39 1.56.64-.17.39zm3.1 1.28l.17-.39 1.55.64-.17.39zm3.11 1.28l.16-.39 1.55.64-.16.39zM340.82 130.11l.16-.39.56.23.16-.59.41.11-.29 1.05-1-.41zM342.15 127.74l.45-1.63.41.12-.45 1.62zm.9-3.25l.46-1.63.4.12-.45 1.62zm.91-3.25l.45-1.62.4.11-.45 1.62zm.9-3.25l.45-1.62.41.11-.45 1.62zm.9-3.25l.45-1.62.41.11-.45 1.63zm.9-3.25l.45-1.62.41.11-.45 1.63zm.9-3.24l.46-1.63.4.11-.45 1.63zm.91-3.25l.45-1.63.4.12-.45 1.62zm.9-3.25l.45-1.63.41.11-.46 1.63zm.9-3.25l.45-1.63.41.12-.45 1.62zm.9-3.25l.45-1.63.41.12-.45 1.62zm.9-3.25l.46-1.62.4.11-.45 1.62zm.91-3.25l.45-1.62.4.11-.45 1.62zm.9-3.25l.45-1.62.41.11-.46 1.63zm.9-3.25l.45-1.62.41.11-.45 1.63zm.9-3.24l.45-1.63.41.11-.45 1.63zm.9-3.25l.45-1.63.41.11-.44 1.63zm.91-3.25l.45-1.63.4.12-.45 1.62zm.9-3.25l.45-1.63.4.12-.45 1.62zm.9-3.25l.45-1.62.41.11-.45 1.62zm.9-3.25l.45-1.62.41.11-.45 1.62zm.9-3.25l.45-1.62.46.11-.45 1.63zM361.58 55.73l1.18-.65-.36 1.3-.41-.12.09-.32-.29.16-.21-.37zM305.31 86.84l1.48-.82.21.37-1.48.82zm3-1.64l1.48-.82.2.37-1.48.82zm3-1.64l1.48-.82.2.37-1.48.82zm3-1.63l1.48-.82.2.37-1.48.82zm3-1.64l1.48-.82.2.37-1.48.82zm3-1.64l1.48-.82.21.37-1.48.82zm3-1.64l1.48-.81.21.36-1.48.82zm3-1.63l1.48-.82.21.37-1.48.82zm3-1.64l1.48-.82.2.37-1.48.82zm3-1.64l1.48-.82.2.37-1.48.82zm3-1.64l1.48-.81.2.37-1.48.81zm3-1.63l1.48-.82.21.37-1.49.82zm3-1.64l1.48-.82.21.37-1.48.82zm3-1.64l1.48-.82.21.37-1.48.82zm3-1.63l1.48-.82.21.37-1.48.82zm3-1.64l1.48-.82.2.37-1.48.82zm3-1.64l1.48-.82.2.37-2.09.81zm3-1.64l1.48-.81.2.37-1.48.81zm3-1.63l1.48-.82.21.37-1.49.82zM302.97 88.13l.86-.47.21.37-.62.34.06.7-.42.04-.09-.98zM303.22 90.78h.42l.15 1.67h-.42zm.3 3.34h.42l.16 1.67h-.42zm.31 3.33h.42l.15 1.67h-.42zm.31 3.34h.42l.15 1.67h-.42zm.3 3.33h.42l.16 1.66h-.42zm.31 3.34h.42l.15 1.67h-.42zm.3 3.34h.42l.16 1.67h-.42zm.31 3.33h.42l.15 1.67h-.41zm.31 3.34h.42l.15 1.67h-.42zm.3 3.33h.42l.16 1.67h-.42zm.31 3.34h.42l.15 1.67h-.42zm.31 3.34h.42l.15 1.67h-.42zm.3 3.33h.42l.16 1.66h-.42zm.31 3.34h.42l.15 1.67h-.42zm.31 3.34h.42l.15 1.67h-.42zm.3 3.33h.42l.15 1.67h-.42zm.31 3.34h.42l.15 1.67h-.42zm.31 3.33h.41l.16 1.67h-.42zm.3 3.34h.42l.15 1.67h-.42zm.31 3.34h.42l.15 1.67h-.42zm.3 3.33h.42l.16 1.66h-.42zm.31 3.34h.42l.15 1.67h-.42zm.31 3.34h.42l.15 1.67h-.42zm.3 3.33h.42l.16 1.67h-.42zm.31 3.34h.42l.15 1.67h-.42zm1 3.15l.28-.31 1.26 1.1-.29.32zm2.51 2.22l.28-.32 1.26 1.11-.28.31zm2.52 2.21l.28-.32 1.25 1.11-.28.32zm2.51 2.21l.28-.32 1.26 1.11-.28.32zm2.52 2.21l.28-.31 1.26 1.1-.28.32zm2.51 2.22l.28-.32 1.26 1.11-.28.31zm2.52 2.21l.34-.28 1.26 1.11-.28.32zm2.51 2.21l.28-.31 1.26 1.1-.28.32zm2.52 2.22l.28-.32 1.26 1.11-.28.31zm2.51 2.21l.28-.32 1.26 1.11-.28.32zm2.52 2.21l.28-.32 1.26 1.11-.28.32zm2.52 2.22l.28-.32 1.25 1.1-.28.32zm2.51 2.21l.28-.32 1.26 1.11-.28.31zm2.51 2.21l.29-.32 1.25 1.11-.28.32zm2.52 2.21l.28-.31 1.26 1.1-.28.32zM349.22 207.72l.47-.19-.38-.33.28-.32.89.78-1.1.46-.16-.4zM275.54 238.27l1.53-.64.17.39-1.54.64zm3.07-1.27l1.53-.64.16.39-1.53.64zm3.07-1.28l1.53-.63.17.39-1.54.63zm3.07-1.27l1.53-.64.17.39-1.54.64zm3.07-1.27l1.53-.64.17.39-1.54.64zm3.07-1.28l1.53-.63.17.39-1.54.64zm3.07-1.27l1.53-.63.17.39-1.54.63zm3.07-1.27l1.53-.64.17.39-1.54.64zm3.07-1.27l1.53-.64.17.39-1.54.64zm3.07-1.28l1.53-.63.16.39-1.53.63zm3.07-1.27l1.53-.63.17.39-1.54.63zm3.07-1.27l1.53-.64.17.39-1.54.64zm3.07-1.27l1.53-.64.17.39-1.54.64zm3.07-1.28l1.53-.63.16.39-1.53.63zm3.07-1.27l1.53-.63.17.39-1.54.63zm3.07-1.27l1.53-.64.17.39-1.54.64zm3.07-1.27l1.53-.64.17.39-1.54.64zm3.07-1.28l1.53-.63.16.39-1.53.63zm3.07-1.27l1.53-.64.17.39-1.54.64zm3.07-1.27l1.53-.64.17.39-1.54.64zm3.07-1.27l1.53-.64.17.39-1.54.64zm3.07-1.28l1.53-.63.16.39-1.53.63zm3.07-1.27l1.53-.64.16.39-1.53.64zm3.07-1.27l1.53-.64.17.39-1.54.64z"/><path class="cls-4" transform="rotate(-22.47 273.67 239.24)" d="M273.27 239.05h.84v.42h-.84z"/></g><path class="cls-4" d="M5.6 113.54l.07-.41 71.22 11 33-92.93.17.7 9 38.48 82.08 57.44v.08l7.86 34.63 61 12.13 33.18-86.3-10.71-42-56.08-7 .08-.25 11.61-34.25.4.14L237 39.06 292.83 46v.14l10.77 42.24v.06l-33.33 86.7h-.18l-61.45-12.2v-.14l-7.87-34.71-82.08-57.48v-.08l-8.89-37.86-32.49 91.49h.17l-.08.07 73.76 30.82h-1l-107.3 2.44.39-.38 33.33-32.68zm71.48 11l-33.16 32.55 105.24-2.39z" opacity=".8"/><g class="cls-7"><path class="cls-4" d="M145.38 113.18l.42-.04 3.56 41.45 121.2 83.79-.76-64.04 79.26 32.53-7.11-76.82-31.19 42.77-.17-.14L158.86 53.59l.07-.16 20.51-43.5 69.08-5.15.04.02 114.29 50.08-.17.39L248.44 5.21l-68.72 5.12-20.34 43.13 151.3 118.76 31.59-43.32.05.55 7.23 78.08-.32-.14-79-32.42.77 64.22-.34-.23-121.7-84.14-.01-.1-3.57-41.54z"/></g><path class="cls-4" d="M42.62 157.88l.48-.69 87.19 60.48-21.8-50.48 78.29 64.27 20.44-69.24-61.18-49.25 57.55-44.91.2.04 99.4 20.45.09.1 37.94 40.94-.62.57-37.85-40.83-98.94-20.36-56.41 44.01 60.79 48.94-.08.27-20.87 70.73-.5-.4-76.09-62.46 21.59 49.99-89.62-62.17z" opacity=".2"/><path class="cls-4" d="M4.82 112.92h.84l141.15-.59v.42l-140.29.59 103.17 54.21 96.67-5.68-2.8-94.27.38.36 77.76 76.13 5.46-1.29-39.65-51 .13-.13L292.54 46l.14.24 49.6 83.91-.28.07-54.1 12.79 23 29.64-.32.28-29-28.43-74.78 17.68h-.21l-97 5.7zm276.4 31.27L204 68.62l2.77 93.17zm11.23-97.46l-44.38 45.05 39.54 50.9 54-12.77zm-5 96.42l-5.39 1.28 26.63 26.06z" opacity=".45"/><path class="cls-4" d="M187.07 239.1a7.33 7.33 0 117.32-7.32 7.33 7.33 0 01-7.32 7.32zM311.3 178a4.93 4.93 0 114.93-4.93 4.93 4.93 0 01-4.93 4.93z"/><circle class="cls-4" cx="167.35" cy="193.74" r="3.17"/><path class="cls-4" d="M270.46 176.28a1.59 1.59 0 111.58-1.59 1.59 1.59 0 01-1.58 1.59zM341.45 135.51a5.64 5.64 0 115.64-5.63 5.63 5.63 0 01-5.64 5.63zM272 244a4.93 4.93 0 115-4.9 4.93 4.93 0 01-5 4.9zM200.7 130.87a3.17 3.17 0 113.17-3.17 3.17 3.17 0 01-3.17 3.17zM292.71 53.73A7.33 7.33 0 11300 46.4a7.33 7.33 0 01-7.29 7.33zM159.25 58.43a4.93 4.93 0 114.93-4.93 4.93 4.93 0 01-4.93 4.93z"/><circle class="cls-4" cx="146.81" cy="113.33" r="3.17"/><path class="cls-4" d="M236.84 40.66a1.59 1.59 0 111.58-1.58 1.58 1.58 0 01-1.58 1.58zM179.74 15.49a5.64 5.64 0 115.64-5.63 5.63 5.63 0 01-5.64 5.63zM77.05 71.27A4.93 4.93 0 1182 66.34a4.92 4.92 0 01-4.95 4.93zM109.73 35.14A3.17 3.17 0 11112.9 32a3.17 3.17 0 01-3.17 3.14zM109.73 175.5a7.32 7.32 0 117.33-7.32 7.32 7.32 0 01-7.33 7.32zM248.28 96.56a4.93 4.93 0 114.93-4.93 4.93 4.93 0 01-4.93 4.93zM303.21 91.63a3.17 3.17 0 113.17-3.17 3.17 3.17 0 01-3.17 3.17zM362.48 56.67a1.59 1.59 0 111.58-1.58 1.59 1.59 0 01-1.58 1.58zM132 224.45a5.64 5.64 0 115.63-5.63 5.64 5.64 0 01-5.63 5.63zM248.28 9.86a4.93 4.93 0 114.93-4.93 4.93 4.93 0 01-4.93 4.93zM350.26 210.65a3.17 3.17 0 113.16-3.17 3.17 3.17 0 01-3.16 3.17zM208 169.4a7.33 7.33 0 117.32-7.33 7.33 7.33 0 01-7.32 7.33z"/><circle class="cls-4" cx="43.85" cy="157.92" r="4.93"/><circle class="cls-4" cx="203.87" cy="68.69" r="3.17"/><path class="cls-4" d="M119 71.86a1.59 1.59 0 111.58-1.58 1.58 1.58 0 01-1.58 1.58zM5.63 119a5.64 5.64 0 115.64-5.64A5.63 5.63 0 015.63 119zM77.05 129.46a4.93 4.93 0 114.95-4.93 4.92 4.92 0 01-4.95 4.93zM150 157.92a3.17 3.17 0 113.17-3.17 3.17 3.17 0 01-3.17 3.17z"/><g class="cls-11"><circle class="cls-3" cx="236.84" cy="196.91" r="23.75"/><circle class="cls-3" cx="236.84" cy="196.91" r="20.44" transform="rotate(-45 236.845 196.916)"/><circle class="cls-3" cx="236.84" cy="196.91" r="17.5"/><path class="cls-3" d="M236.84 210.91a14 14 0 1114-14 14 14 0 01-14 14z"/><path class="cls-4" d="M236.84 207.34a10.43 10.43 0 1110.43-10.43 10.43 10.43 0 01-10.43 10.43z"/></g><g class="cls-11"><path class="cls-3" d="M145.38 98.34a23.75 23.75 0 1123.75-23.75 23.75 23.75 0 01-23.75 23.75z"/><circle class="cls-3" cx="145.38" cy="74.59" r="20.44" transform="rotate(-80.81 145.369 74.59)"/><circle class="cls-3" cx="145.38" cy="74.59" r="17.5"/><path class="cls-3" d="M145.38 88.59a14 14 0 1114-14 14 14 0 01-14 14z"/><path class="cls-4" d="M145.38 85a10.43 10.43 0 1110.43-10.43A10.43 10.43 0 01145.38 85z"/></g><g class="cls-11"><path class="cls-3" d="M309.5 206.66a23.75 23.75 0 1123.75-23.75 23.74 23.74 0 01-23.75 23.75z"/><path class="cls-3" d="M309.5 203.35a20.44 20.44 0 1120.44-20.44 20.44 20.44 0 01-20.44 20.44z"/><path class="cls-3" d="M309.5 200.41a17.5 17.5 0 1117.5-17.5 17.5 17.5 0 01-17.5 17.5z"/><path class="cls-3" d="M309.5 196.91a14 14 0 1114-14 14 14 0 01-14 14z"/><path class="cls-4" d="M309.5 193.34a10.43 10.43 0 1110.43-10.43 10.42 10.42 0 01-10.43 10.43z"/></g></g></g></g></svg>