<svg xmlns="http://www.w3.org/2000/svg" viewBox="0 0 38.04 39.8"><defs><style>.cls-1{fill:#feb113}.cls-2{fill:#00b3ea}.cls-3{fill:#065977}.cls-4{fill:#08ade5}</style></defs><g id="图层_2" data-name="图层 2"><g id="Layer_1" data-name="Layer 1"><path class="cls-1" d="M19.56 18.9a.7.7 0 00-.7-.71.71.71 0 00-.71.71.7.7 0 00.71.7.7.7 0 00.7-.7z"/><path class="cls-2" d="M13.72 14.03h.96v6.23h-.96zM23.99 24.1H17.3v-.96h5.77l.92.96zM20.51 13.78h3.52v3.67h-.96v-2.71h-2.56v-.96z"/><path class="cls-3" d="M13.72 14.05h10.05v9.78h-9.79V13.78h-.26V24.1h10.31V13.78H13.72v.27z"/><path class="cls-2" transform="rotate(-57.11 17.444 17.139)" d="M15.98 16.92h2.91v.45h-2.91z"/><path class="cls-2" d="M19.57 22.26l-2.62-1.7.24-.37 2.27 1.46.11.61zM20.83 17.33l1.38.9-.93 1.43-.38-.24.69-1.06-1.01-.65.25-.38z"/><path class="cls-2" d="M18.28 15.84l3.75 2.42-2.48 3.84-3.83-2.48 2.42-3.75-.1-.07-2.5 3.86 4.05 2.61 2.62-4.04-3.86-2.5-.07.11z"/><path class="cls-4" d="M13 11.85l.23-.18a2.43 2.43 0 01.25-.2 9.39 9.39 0 011.32-.78 8.78 8.78 0 011.65-.62 9 9 0 011.74-.29 9.7 9.7 0 011.54 0 5 5 0 01.61.08h.25l.21.05.3.07h.1l.42-1.56h-.12l-.35-.08-.25-.05-.3-.05c-.21 0-.45-.07-.72-.1a10.62 10.62 0 00-1.8 0 10.87 10.87 0 00-4 1.06 12 12 0 00-1.55.93l-.3.23-.23.24c-.16.14-.31.26-.42.37l-.35.33 1.14 1.14.3-.28c.1-.09.23-.16.33-.31zM27.24 25.78l.21-.27.23-.31a10.94 10.94 0 00.92-1.55 10.74 10.74 0 00.72-1.95 10.57 10.57 0 00.33-2 11.84 11.84 0 000-1.81c0-.26-.06-.5-.1-.71s0-.21-.05-.3v-.25c0-.15-.06-.27-.09-.35v-.12l-1.56.42v.1c0 .07 0 .17.07.3s0 .14.05.21 0 .17 0 .26.06.38.09.61a9.55 9.55 0 010 1.53 9.69 9.69 0 01-.28 1.74 9.22 9.22 0 01-1.4 3 2.93 2.93 0 01-.19.26l-.18.23-.31.36-.28.3 1.14 1.14.33-.35zM16.5 27.81l-.29-.08a8.23 8.23 0 01-1-.38 9.14 9.14 0 01-1.35-.73 8.79 8.79 0 01-2.51-2.45 8.18 8.18 0 01-.77-1.33 7.35 7.35 0 01-.4-1c0-.12-.08-.22-.1-.29v-.1l-1.55.43v.13l.11.34c.1.29.25.71.47 1.19a10.93 10.93 0 00.89 1.55 10.39 10.39 0 001.34 1.58A10.19 10.19 0 0013 28a9.7 9.7 0 001.59.86 11 11 0 001.2.45l.34.09h.13l.39-1.57z"/><path class="cls-4" d="M22.13 28a9.91 9.91 0 001.29-.57 10.09 10.09 0 001.2-.76 11.68 11.68 0 001.07-.93 11.88 11.88 0 00.93-1.07 11.32 11.32 0 00.75-1.19 9.21 9.21 0 00.57-1.29 9 9 0 00.38-1.35 9.7 9.7 0 00-.45-5.38l-.06-.15-.07-.16-.13-.3c-.1-.19-.19-.39-.3-.58a11.23 11.23 0 00-.7-1.09 9.86 9.86 0 00-1.74-1.79 9.6 9.6 0 00-8-1.89 9.29 9.29 0 00-2.78 1.05 9 9 0 00-1.57 1.1c-.17.15-.29.27-.37.35l-.13.12.32.31.12-.11c.08-.07.19-.19.36-.33a7.92 7.92 0 011.53-.99A8.9 8.9 0 0117 10a9.2 9.2 0 013.67 0 9 9 0 013.92 1.82 9.15 9.15 0 012.33 2.75c.1.17.19.36.28.55s.09.19.13.29l.06.14.06.15a9.29 9.29 0 01.43 5.13 9.48 9.48 0 01-.36 1.29 8.87 8.87 0 01-.52 1.15 9.53 9.53 0 01-.72 1.14 9.26 9.26 0 01-1.91 1.91 10.41 10.41 0 01-1.14.72 8.72 8.72 0 01-2.51.9 9.18 9.18 0 01-5.13-.43l-.15-.05-.14-.07-.3-.12c-.19-.1-.38-.18-.56-.29a9.1 9.1 0 01-1-.67 8.94 8.94 0 01-1.71-1.65 9.46 9.46 0 01-1.18-1.92 9.8 9.8 0 01-.65-2 9.39 9.39 0 010-3.67 9 9 0 011-2.65 8.75 8.75 0 011.06-1.49 4.53 4.53 0 01.33-.36l.11-.12-.32-.31-.12.12c-.07.09-.2.2-.34.38a9.33 9.33 0 00-1.11 1.56A10 10 0 009.44 17a9.75 9.75 0 000 3.85 9.49 9.49 0 001.91 4.12 9.49 9.49 0 001.79 1.73 8.68 8.68 0 001.08.7c.19.11.39.2.59.3l.3.13.15.07.16.06a9.58 9.58 0 005.37.45 10.35 10.35 0 001.34-.41z"/><path class="cls-3" d="M20.89 38.06c.41 0 .82-.08 1.24-.13l.62-.1.31-.06.31-.06a18.45 18.45 0 007.2-3.25 20.44 20.44 0 002.06-1.77 20.44 20.44 0 001.77-2.06 19.37 19.37 0 001.45-2.27 18.82 18.82 0 001.79-4.92c0-.11 0-.21.07-.32s0-.2 0-.31.08-.41.1-.62c0-.41.11-.83.13-1.23a17.53 17.53 0 000-2.4 18.38 18.38 0 00-2.19-7.75c-.14-.24-.26-.48-.4-.7s-.27-.43-.39-.64-.27-.38-.39-.56l-.19-.27-.19-.24-.27-.4-.32-.38-.28-.33-.24-.29c-.3-.3-.45-.47-.45-.47l-3.84 3.84.32.33.17.18.2.24.23.26.24.32c.05.05.09.11.14.17l.13.19c.08.12.18.25.27.4l.28.44c.1.16.19.33.28.5a12.77 12.77 0 011 2.42 12.93 12.93 0 01.54 3 12.08 12.08 0 010 1.7c0 .29-.06.58-.09.88 0 .14 0 .29-.08.44v.44a13 13 0 01-1.27 3.47 12.45 12.45 0 01-1 1.61 15.68 15.68 0 01-1.26 1.46 15.77 15.77 0 01-1.45 1.26 15 15 0 01-1.61 1 13.13 13.13 0 01-3.48 1.26l-.22.05h-.22l-.44.07c-.29 0-.58.08-.87.09a13.85 13.85 0 01-1.7 0 13.65 13.65 0 01-2.49-.39v5.54a19 19 0 002.19.26 19.28 19.28 0 002.29.1zm9.8-27.56l-.14-.17 2.13-1.8.17.2.16.2-2.18 1.74zm.94 1.28a1.64 1.64 0 00-.12-.18l2.32-1.55a2.34 2.34 0 01.14.22l.14.22L31.75 12zm.7 1.19l2.47-1.28.23.47-2.51 1.2zm.67 1.46l2.6-1 .18.48-2.63.92zm.54 1.72c0-.1-.05-.21-.05-.21l2.69-.7s0 .12.07.25l.06.25-2.72.63s-.04-.11-.07-.22zm.29 1.57v-.15a.28.28 0 010-.06l2.76-.41a.45.45 0 000 .08v.44l-2.77.32s.01-.11-.01-.22zm.12 1.37l2.76-.09v.51h-2.79zm-.07 2v-.06-.37l2.78.21V21.3a.28.28 0 010 .08zm-.28 1.61v-.22a1.23 1.23 0 000-.21l2.74.51v.26c0 .13-.05.25-.05.25zm-.42 1.53l.13-.41 2.67.81-.16.5zm-.59 1.48v-.06a.53.53 0 01.06-.14l.08-.2 2.56 1.11-.1.24-.07.16v.07zm-.76 1.4l.11-.18.11-.19 2.42 1.38-.13.23-.13.22zm-.91 1.31l.14-.17.09-.12v-.05l2.25 1.64v.07l-.11.14-.16.2zm-1 1.21l.3-.32 2 1.88-.35.38zm-1.17 1.08l.33-.28 1.84 2.09-.4.34zm-1.23.91l.12-.08.18-.13 1.6 2.29-.21.14L29 34l-1.53-2.33zm-1.52.83l.2-.09.19-.11 1.33 2.45-.22.13-.24.11zm-1.21.55l.14-.06h.06L26 35.52h-.07l-.17.06-.24.1-1-2.62zm-1.31.44l.76 2.68-.5.13-.68-2.7zm-1.77.38h.22l.46 2.75-.26.05h-.26l-.37-2.76zm-1.8.16h.43l.16 2.78a2 2 0 01-.26 0H20zM8.86 29.72c-.19-.18-.44-.48-.75-.85a14.12 14.12 0 01-1-1.45 13 13 0 01-1-2.05 14.43 14.43 0 01-.76-2.6 14.81 14.81 0 01-.26-3 15.72 15.72 0 01.42-3.23c.06-.27.15-.53.22-.8s.17-.54.26-.8.2-.53.31-.79.22-.52.36-.77a15 15 0 014.13-5.11 15.25 15.25 0 012.56-1.63 16 16 0 012.54-1 14.42 14.42 0 012.25-.45h2.92a1.87 1.87 0 01.3 0h.1l.15-1.4h-3.63a14.33 14.33 0 00-2.48.5 16.19 16.19 0 00-2.78 1.08 15.53 15.53 0 00-2.8 1.79 16.65 16.65 0 00-2.54 2.5 15.79 15.79 0 00-2 3.09 9.1 9.1 0 00-.39.84c-.13.28-.23.57-.34.86s-.21.58-.29.87-.18.59-.24.88a17.35 17.35 0 00-.46 3.53A16.16 16.16 0 003.94 23a15.24 15.24 0 00.83 2.86 14.41 14.41 0 001.13 2.29 14.91 14.91 0 001.1 1.6c.34.41.62.73.82.94l.31.32 1-1z"/><path class="cls-3" d="M6 33.15L5.84 33l-.37-.39c-.24-.26-.48-.53-.7-.81a17.31 17.31 0 01-1.24-1.71 17.82 17.82 0 01-1.83-3.8 19.16 19.16 0 01-1-8.3A19.47 19.47 0 018.41 4.46a19.1 19.1 0 0115.75-3.34c2.46.58 2.17-.21-.4-.73l-.64-.12A19.67 19.67 0 007.55 4.33 20.07 20.07 0 00.1 18a19.83 19.83 0 001 8.37 18.05 18.05 0 001.77 3.83 20.39 20.39 0 002.68 3.39l.38-.37z"/><path class="cls-4" d="M1.73 22.32c.05.34 0 .04 0 0zM3.11 27.29c.05.11-.01-.03 0 0zM5.61 31.3s-.02-.02 0 0z"/><path class="cls-4" d="M8.11 31c.05 0-.11-.09-.11-.13-.22-.23-.43-.46-.64-.71A15.31 15.31 0 014 23.09 16.25 16.25 0 014.44 15a16.55 16.55 0 011.82-3.88A17.9 17.9 0 018.88 8a16.3 16.3 0 015.38-3.33 16 16 0 017.59-.9 12.86 12.86 0 012.15.42c1.12.33 2.28-1.9 1-2.28a18.71 18.71 0 00-8.45-.41 18.23 18.23 0 00-6.89 2.76 19.5 19.5 0 00-4.42 4.08A17.84 17.84 0 003 12a19.92 19.92 0 00-1.37 4.05 18 18 0 00-.41 4.39 17.42 17.42 0 00.58 4.19 17.6 17.6 0 003.62 7c.32.38.66.74 1 1.09l1.18-1.18zM1.66 18.33a18.75 18.75 0 01.75-3.78.84.84 0 01.07-.19h.09l.4.13 1 .31h.12a15.85 15.85 0 00-.73 3.61zm.07 4a20.16 20.16 0 01-.12-3.39l1.64.1v1.26a14.32 14.32 0 00.16 2.07v.36h-.07l-.55.09-1 .17zm1.39 4.95a19.3 19.3 0 01-1.18-3.68l1.6-.33a15.49 15.49 0 001.14 3.51l-.85.39-.52.24-.14.06-.05-.16zm2.49 4a15.07 15.07 0 01-1.21-1.64c-.08-.13-1-1.62-.93-1.63l1.47-.74a14.7 14.7 0 002 3.08l-.71.6-.44.37-.12.1s-.04-.09-.06-.12zM5.6 31.3s.04.04 0 0z"/><path class="cls-1" d="M9.16 26.59L9 26.36l-.19-.31-.21-.38-.19-.38c-.06-.13-.12-.24-.16-.34l-.14-.34-1.38.57.15.37c0 .12.12.25.18.39l.22.43.23.42.22.36.15.25.07.09 1.24-.82zM7.74 23.47a2.63 2.63 0 01-.1-.36c0-.14-.08-.28-.1-.42l-.09-.42c0-.14 0-.27-.06-.38s0-.2 0-.26v-.08l-1.49.18a.28.28 0 000 .08v.3c0 .13 0 .26.07.41l.09.48.12.47c0 .15.07.29.11.41l.12.39 1.42-.46zM7.26 20.57v-.26-.82c0-.3 0-.59.06-.81s0-.21 0-.27a.65.65 0 010-.1l-1.43-.21v.42c0 .13-.06.57-.06.91v.91a2.54 2.54 0 000 .3v.11l1.5-.08zM7.59 17.09c0-.1 0-.23.09-.37s.08-.27.12-.42.1-.28.14-.41a2.49 2.49 0 01.13-.36l.13-.35-1.39-.56-.15.38-.14.4-.15.47c0 .16-.09.32-.13.47s-.07.29-.1.41-.06.22-.07.29v.12l1.47.3a.35.35 0 010-.1q.02-.1.05-.27zM8.9 13.73l.22-.38.24-.35c.07-.12.15-.22.21-.31l.16-.22a.37.37 0 01.06-.09l-1.21-.89-.06.09-.18.25c-.06.1-.16.22-.24.35l-.26.41c-.09.14-.16.29-.24.43s-.15.26-.21.37l-.18.37 1.34.65.17-.33zM10.83 11.13c.1-.1.2-.21.31-.31l.31-.3.29-.25.21-.18L12 10l-.94-1.16a.39.39 0 00-.09.07l-.23.19-.32.28-.36.34c-.12.11-.23.24-.34.35l-.29.31-.27.31 1.14 1 .24-.28zM13 9.31l.32-.21.2-.1.19-.11.38-.21.34-.17.24-.11h.09L14.15 7h-.1l-.27.13-.38.19-.4.26-.21.12-.21.13-.36.23c-.1.06-.18.13-.24.17l-.1.06.86 1.23.09-.06a1.17 1.17 0 01.17-.15zM16.26 7.78l.42-.11a3.74 3.74 0 01.42-.11l.37-.08.37-.06-.25-1.48-.41.06-.41.09-.47.12-.47.13-.4.13-.43.15.56 1.38.34-.12zM19.43 7.26H21l.14-1.49H18.47l.14 1.49h.37a2.24 2.24 0 01.45 0z"/><path class="cls-2" d="M21.88 39.8zM21.83 39.8z"/><path class="cls-3" d="M14.12 34.1a2.89 2.89 0 10-2.88 2.9 2.88 2.88 0 002.88-2.9zm-5 0a2.12 2.12 0 112.12 2.12 2.12 2.12 0 01-2.12-2.12z"/><path class="cls-1" d="M12.21 34.1a1 1 0 10-1 1 1 1 0 001-1z"/><path class="cls-3" d="M30.92 5.18A2.89 2.89 0 1028 8.07a2.89 2.89 0 002.92-2.89zm-5 0A2.12 2.12 0 1128 7.3a2.12 2.12 0 01-2.09-2.12z"/><path class="cls-1" d="M29 5.18a1 1 0 10-1 1 1 1 0 001-1z"/></g></g></svg>