<svg xmlns="http://www.w3.org/2000/svg" viewBox="0 0 225.33 42.46"><defs><style>.cls-1{fill:#1d71b8}.cls-2{fill:#f39200;opacity:.5}.cls-3{fill:#36a9e1}</style></defs><g id="图层_2" data-name="图层 2"><g id="Layer_1" data-name="Layer 1"><path class="cls-1" d="M199.73 3.96L165.2 38.5h5.85l34.52-34.54h-5.84zM170.87 3.96L136.34 38.5h5.85l34.53-34.54h-5.85zM16.98 3.96L5.08 15.87v5.85L22.83 3.96h-5.85zM5.08 3.96v8.14l8.13-8.14H5.08zM190.11 3.96L155.58 38.5h5.85l34.53-34.54h-5.85zM180.49 3.96L145.96 38.5h5.85l34.53-34.54h-5.85zM161.25 3.96L126.72 38.5h5.85L167.1 3.96h-5.85zM132.4 3.96L97.87 38.5h5.85l34.53-34.54h-5.85zM21.37 28.44h5.85L17.16 38.5h-5.85l10.06-10.06zM51.69 3.96l-10.6 10.6h-5.85l10.6-10.6h5.85zM151.64 3.96L117.11 38.5h5.85l34.52-34.54h-5.84zM122.78 3.96L88.25 38.5h5.85l34.53-34.54h-5.85zM142.02 3.96L107.49 38.5h5.85l34.53-34.54h-5.85zM15.71 28.44h1.89L7.54 38.5H5.08v-3.39l10.63-10.63v3.96zM42.07 3.96l-10.6 10.6h-5.85l10.6-10.6h5.85zM5.08 25.49l10.63-10.63v5.85L5.08 31.34v-5.85zM32.45 3.96l-10.6 10.6H16l10.6-10.6h5.85zM79.08 28.44h5.85L74.87 38.5h-5.85l10.06-10.06zM95.38 17.98v-3.42h-2.43l10.6-10.6h5.85L95.38 17.98zM220.25 12.29l-26.2 26.21h5.85l20.35-20.36v-5.85zM30.99 28.44h5.84L26.78 38.5h-5.85l10.06-10.06zM61.3 3.96l-10.59 10.6h-5.85l10.6-10.6h5.84zM220.25 3.96h-1.29L184.43 38.5h5.85l29.97-29.98V3.96zM69.46 28.44h5.85L65.25 38.5H59.4l10.06-10.06zM99.78 3.96l-10.6 10.6h-5.85l10.6-10.6h5.85zM50.22 28.44h5.85L46.01 38.5h-5.85l10.06-10.06zM80.54 3.96l-10.6 10.6h-5.85l10.6-10.6h5.85zM220.25 21.91L203.67 38.5h5.85l10.73-10.73v-5.86zM59.84 28.44h5.85L55.63 38.5h-5.85l10.06-10.06zM90.16 3.96l-10.6 10.6h-5.85l10.6-10.6h5.85zM40.6 28.44h5.85L36.39 38.5h-5.84L40.6 28.44zM70.92 3.96l-10.6 10.6h-5.84l10.59-10.6h5.85zM209.34 3.96L174.82 38.5h5.84l34.53-34.54h-5.85zM220.25 31.54l-6.96 6.96h6.96v-6.96zM88.7 28.44h5.84L84.49 38.5h-5.85L88.7 28.44zM119.01 3.96L95.38 27.6v-5.84l17.79-17.8h5.84z"/><path class="cls-2" d="M16 14.56l-.29.3v-.3H16zM94.54 28.44l.84-.84v.84h-.84z"/><path class="cls-3" d="M10.15 2.05V0H0V42.46h10.15v-2.05H2.56V2.05h7.59zM215.17 40.41v2.05h10.16V0h-10.16v2.05h7.59v38.36h-7.59z"/></g></g></svg>