<svg xmlns="http://www.w3.org/2000/svg" viewBox="0 0 88.6 28.96"><defs><style>.cls-1{fill:#ff7000}.cls-2{fill:#00b8de}</style></defs><g id="图层_2" data-name="图层 2"><g id="Layer_1" data-name="Layer 1"><path class="cls-1" d="M6.48 12.12V12h-.13v.14zm0 .28v-.14h-.13v.14zm0 .27v-.13h-.13v.13zm0 .28v-.14h-.13V13zm0 .28v-.14h-.13v.14zm0 .28v-.14h-.13v.14zm0 .28v-.14h-.13v.14zM7.45 9.89v-.11h-.14v.11zm0 .28V10h-.14v.14zm0 .28v-.14h-.14v.14zm0 .27v-.14h-.14v.14zm0 .28v-.14h-.14V11zm0 .28v-.14h-.14v.14zm0 .28v-.14h-.14v.14zm0 .28v-.14h-.14v.14zm0 .28V12h-.14v.14zm0 .28v-.14h-.14v.14zm0 .27v-.13h-.14v.13zm0 .28v-.14h-.14V13zm0 .28v-.14h-.14v.14zm0 .28v-.14h-.14v.14zm0 .28v-.14h-.14v.14zM8.41 9.61v-.13h-.14v.13zm0 .28v-.14h-.14v.14zm0 .28V10h-.14v.14zm0 .28v-.14h-.14v.14zm0 .27v-.14h-.14v.14zm0 .28v-.14h-.14V11zm0 .28v-.14h-.14v.14zm0 .28v-.14h-.14v.14zm0 .28v-.14h-.14v.14zm0 .28V12h-.14v.14zm0 .28v-.14h-.14v.14zm0 .27v-.13h-.14v.13zm0 .28v-.14h-.14V13zm0 .28v-.14h-.14v.14zm0 .28v-.14h-.14v.14zm0 .28v-.14h-.14v.14zM9.35 11.84v-.14h-.14v.14zm0 .28V12h-.14v.14zm0 .28v-.14h-.14v.14zm0 .27v-.13h-.14v.13zm0 .28v-.14h-.14V13zm0 .28v-.14h-.14v.14zm0 .28v-.14h-.14v.14zm0 .28v-.14h-.14v.14zM10.31 12.12V12h-.14v.13zm0 .28v-.14h-.14v.14zm0 .27v-.13h-.14v.13zm0 .28v-.14h-.14V13zm0 .28v-.14h-.14v.14zm0 .28v-.14h-.14v.14zm0 .28v-.14h-.14v.14zM11.27 10.72v-.14h-.14v.14zm0 .28v-.14h-.14V11zm0 .28v-.14h-.14v.14zm0 .28v-.14h-.14v.14zm0 .28v-.14h-.14v.14zm0 .28V12h-.14v.14zm0 .28v-.14h-.14v.14zm0 .27v-.13h-.14v.13zm0 .28v-.14h-.14V13zm0 .28v-.14h-.14v.14zm0 .28v-.14h-.14v.14zm0 .28v-.14h-.14v.14zM12.23 7.38v-.07h-.14v.07zm0 .28v-.14h-.14v.14zm0 .28V7.8h-.14v.14zm0 .28v-.14h-.14v.14zm0 .28v-.14h-.14v.14zm0 .27v-.13h-.14v.13zm0 .28v-.14h-.14v.14zm0 .28v-.14h-.14v.14zm0 .28v-.14h-.14v.14zm0 .28v-.14h-.14v.14zm0 .28V10h-.14v.14zm0 .28v-.14h-.14v.14zm0 .27v-.14h-.14v.14zm0 .28v-.14h-.14V11zm0 .28v-.14h-.14v.14zm0 .28v-.14h-.14v.14zm0 .28v-.14h-.14v.14zm0 .28V12h-.14v.14zm0 .28v-.14h-.14v.14zm0 .27v-.13h-.14v.13zm0 .28v-.14h-.14V13zm0 .28v-.14h-.14v.14zm0 .28v-.14h-.14v.14zm0 .28v-.14h-.14v.14zM13.19 4.32v-.14h-.14v.14zm0 .28v-.14h-.14v.14zm0 .28v-.14h-.14v.14zm0 .27V5h-.14v.14zm0 .28v-.14h-.14v.14zm0 .28v-.14h-.14v.14zm0 .28v-.14h-.14V6zm0 .28v-.14h-.14v.14zm0 .28v-.14h-.14v.14zm0 .27v-.13h-.14v.13zm0 .28V7h-.14v.1zm0 .28v-.14h-.14v.14zm0 .28v-.14h-.14v.14zm0 .28V7.8h-.14v.14zm0 .28v-.14h-.14v.14zm0 .28v-.14h-.14v.14zm0 .27v-.13h-.14v.13zm0 .28v-.14h-.14v.14zm0 .28v-.14h-.14v.14zm0 .28v-.14h-.14v.14zm0 .28v-.14h-.14v.14zm0 .28V10h-.14v.14zm0 .28v-.14h-.14v.14zm0 .27v-.14h-.14v.14zm0 .28v-.14h-.14V11zm0 .28v-.14h-.14v.14zm0 .28v-.14h-.14v.14zm0 .28v-.14h-.14v.14zm0 .28V12h-.14v.14zm0 .28v-.14h-.14v.14zm0 .27v-.13h-.14v.13zm0 .28v-.14h-.14V13zm0 .28v-.14h-.14v.14zm0 .28v-.14h-.14v.14zm0 .28v-.14h-.14v.14zM14.15 2.92v-.13H14v.13zm0 .28v-.14H14v.14zm0 .28v-.14H14v.14zm0 .28v-.14H14v.14zm0 .28V3.9H14V4zm0 .28v-.14H14v.14zm0 .28v-.14H14v.14zm0 .28v-.14H14v.14zm0 .27V5H14v.14zm0 .28v-.14H14v.14zm0 .28v-.14H14v.14zm0 .28v-.14H14V6zm0 .28v-.14H14v.14zm0 .28v-.14H14v.14zm0 .27v-.13H14v.13zm0 .28V7H14v.1zm0 .28v-.14H14v.14zm0 .28v-.14H14v.14zm0 .28V7.8H14v.14zm0 .28v-.14H14v.14zm0 .28v-.14H14v.14zm0 .27v-.13H14v.13zm0 .28v-.14H14v.14zm0 .28v-.14H14v.14zm0 .28v-.14H14v.14zm0 .28v-.14H14v.14zm0 .28V10H14v.14zm0 .28v-.14H14v.14zm0 .27v-.14H14v.14zm0 .28v-.14H14V11zm0 .28v-.14H14v.14zm0 .28v-.14H14v.14zm0 .28v-.14H14v.14zm0 .28V12H14v.14zm0 .28v-.14H14v.14zm0 .27v-.13H14v.13zm0 .28v-.14H14V13zm0 .28v-.14H14v.14zm0 .28v-.14H14v.14zm0 .28v-.14H14v.14zM15.12 3.2v-.09H15v.09zm0 .28v-.14H15v.14zm0 .28v-.14H15v.14zm0 .28V3.9H15V4zm0 .28v-.14H15v.14zm0 .28v-.14H15v.14zm0 .28v-.14H15v.14zm0 .27V5H15v.14zm0 .28v-.14H15v.14zm0 .28v-.14H15v.14zm0 .28v-.14H15V6zm0 .28v-.14H15v.14zm0 .28v-.14H15v.14zm0 .27v-.13H15v.13zm0 .28V7H15v.1zm0 .28v-.14H15v.14zm0 .28v-.14H15v.14zm0 .28V7.8H15v.14zm0 .28v-.14H15v.14zm0 .28v-.14H15v.14zm0 .27v-.13H15v.13zm0 .28v-.14H15v.14zm0 .28v-.14H15v.14zm0 .28v-.14H15v.14zm0 .28v-.14H15v.14zm0 .28V10H15v.14zm0 .28v-.14H15v.14zm0 .27v-.14H15v.14zm0 .28v-.14H15V11zm0 .28v-.14H15v.14zm0 .28v-.14H15v.14zm0 .28v-.14H15v.14zm0 .28V12H15v.14zm0 .28v-.14H15v.14zm0 .27v-.13H15v.13zm0 .28v-.14H15V13zm0 .28v-.14H15v.14zm0 .28v-.14H15v.14zm0 .28v-.14H15v.14zM16.08 4.6v-.14h-.14v.14zm0 .28v-.14h-.14v.14zm0 .27V5h-.14v.14zm0 .28v-.14h-.14v.14zm0 .28v-.14h-.14v.14zm0 .28v-.14h-.14V6zm0 .28v-.14h-.14v.14zm0 .28v-.14h-.14v.14zm0 .27v-.13h-.14v.13zm0 .28V7h-.14v.1zm0 .28v-.14h-.14v.14zm0 .28v-.14h-.14v.14zm0 .28V7.8h-.14v.14zm0 .28v-.14h-.14v.14zm0 .28v-.14h-.14v.14zm0 .27v-.13h-.14v.13zm0 .28v-.14h-.14v.14zm0 .28v-.14h-.14v.14zm0 .28v-.14h-.14v.14zm0 .28v-.14h-.14v.14zm0 .28V10h-.14v.14zm0 .28v-.14h-.14v.14zm0 .27v-.14h-.14v.14zm0 .28v-.14h-.14V11zm0 .28v-.14h-.14v.14zm0 .28v-.14h-.14v.14zm0 .28v-.14h-.14v.14zm0 .28V12h-.14v.14zm0 .28v-.14h-.14v.14zm0 .27v-.13h-.14v.13zm0 .28v-.14h-.14V13zm0 .28v-.14h-.14v.14zm0 .28v-.14h-.14v.14zm0 .28v-.14h-.14v.14zM17 6.27v-.14h-.1v.14zm0 .28v-.14h-.1v.14zm0 .27v-.13h-.1v.13zm0 .28V7h-.1v.1zm0 .28v-.14h-.1v.14zm0 .28v-.14h-.1v.14zm0 .28V7.8h-.1v.14zm0 .28v-.14h-.1v.14zm0 .28v-.14h-.1v.14zm0 .27v-.13h-.1v.13zm0 .28v-.14h-.1v.14zm0 .28v-.14h-.1v.14zm0 .28v-.14h-.1v.14zm0 .28v-.14h-.1v.14zm0 .28V10h-.1v.14zm0 .28v-.14h-.1v.14zm0 .27v-.14h-.1v.14zm0 .28v-.14h-.1V11zm0 .28v-.14h-.1v.14zm0 .28v-.14h-.1v.14zm0 .28v-.14h-.1v.14zm0 .28V12h-.1v.14zm0 .28v-.14h-.1v.14zm0 .27v-.13h-.1v.13zm0 .33v-.14h-.1V13zm0 .28v-.14h-.1v.14zm0 .28v-.14h-.1v.14zm0 .28v-.14h-.1v.14zM18 7.94V7.8h-.14v.14zm0 .28v-.14h-.14v.14zm0 .28v-.14h-.14v.14zm0 .27v-.13h-.14v.13zm0 .28v-.14h-.14v.14zm0 .28v-.14h-.14v.14zm0 .28v-.14h-.14v.14zm0 .28v-.14h-.14v.14zm0 .28V10h-.14v.14zm0 .28v-.14h-.14v.14zm0 .27v-.14h-.14v.14zm0 .28v-.14h-.14V11zm0 .28v-.14h-.14v.14zm0 .28v-.14h-.14v.14zm0 .28v-.14h-.14v.14zm0 .28V12h-.14v.14zm0 .28v-.14h-.14v.14zm0 .27v-.13h-.14v.13zm0 .33v-.14h-.14V13zm0 .28v-.14h-.14v.14zm0 .28v-.14h-.14v.14zm0 .28v-.14h-.14v.14zM19 9.33h-.14zm0 .28v-.14h-.14v.14zm0 .28v-.14h-.14v.14zm0 .28V10h-.14v.14zm0 .28v-.14h-.14v.14zm0 .27v-.14h-.14v.14zm0 .28v-.14h-.14V11zm0 .28v-.14h-.14v.14zm0 .28v-.14h-.14v.14zm0 .28v-.14h-.14v.14zm0 .28V12h-.14v.14zm0 .28v-.14h-.14v.14zm0 .27v-.13h-.14v.13zm0 .33v-.14h-.14V13zm0 .28v-.14h-.14v.14zm0 .28v-.14h-.14v.14zm0 .28v-.14h-.14v.14zM19.92 10.45zm0 .27v-.14h-.14v.14zm0 .28v-.14h-.14V11zm0 .28v-.14h-.14v.14zm0 .28v-.14h-.14v.14zm0 .28v-.14h-.14v.14zm0 .28V12h-.14v.14zm0 .28v-.14h-.14v.14zm0 .27v-.13h-.14v.13zm0 .28v-.14h-.14V13zm0 .28v-.14h-.14v.14zm0 .28v-.14h-.14v.14zm0 .28v-.14h-.14v.14zM20.86 11v-.14h-.14V11zm0 .28v-.14h-.14v.14zm0 .28v-.14h-.14v.14zm0 .28v-.14h-.14v.14zm0 .28V12h-.14v.14zm0 .28v-.14h-.14v.14zm0 .27v-.13h-.14v.13zm0 .28v-.14h-.14V13zm0 .28v-.14h-.14v.14zm0 .28v-.14h-.14v.14zm0 .28v-.14h-.14v.14zM21.82 10.17h-.14zm0 .28v-.14h-.14v.14zm0 .27v-.14h-.14v.14zm0 .28v-.14h-.14V11zm0 .28v-.14h-.14v.14zm0 .28v-.14h-.14v.14zm0 .28v-.14h-.14v.14zm0 .28V12h-.14v.14zm0 .28v-.14h-.14v.14zm0 .27v-.13h-.14v.13zm0 .28v-.14h-.14V13zm0 .28v-.14h-.14v.14zm0 .28v-.14h-.14v.14zm0 .28v-.14h-.14v.14zM22.78 9.05v-.14h-.14v.14zm0 .28v-.14h-.14v.14zm0 .28v-.14h-.14v.14zm0 .28v-.14h-.14v.14zm0 .28V10h-.14v.14zm0 .28v-.14h-.14v.14zm0 .27v-.14h-.14v.14zm0 .28v-.14h-.14V11zm0 .28v-.14h-.14v.14zm0 .28v-.14h-.14v.14zm0 .28v-.14h-.14v.14zm0 .28V12h-.14v.14zm0 .28v-.14h-.14v.14zm0 .27v-.13h-.14v.13zm0 .28v-.14h-.14V13zm0 .28v-.14h-.14v.14zm0 .28v-.14h-.14v.14zm0 .28v-.14h-.14v.14zM23.75 7.38v-.14h-.14v.14zm0 .28v-.14h-.14v.14zm0 .28V7.8h-.14v.14zm0 .28v-.14h-.14v.14zm0 .28v-.14h-.14v.14zm0 .27v-.13h-.14v.13zm0 .28v-.14h-.14v.14zm0 .28v-.14h-.14v.14zm0 .28v-.14h-.14v.14zm0 .28v-.14h-.14v.14zm0 .28V10h-.14v.14zm0 .28v-.14h-.14v.14zm0 .27v-.14h-.14v.14zm0 .28v-.14h-.14V11zm0 .28v-.14h-.14v.14zm0 .28v-.14h-.14v.14zm0 .28v-.14h-.14v.14zm0 .28V12h-.14v.14zm0 .28v-.14h-.14v.14zm0 .27v-.13h-.14v.13zm0 .28v-.14h-.14V13zm0 .28v-.14h-.14v.14zm0 .28v-.14h-.14v.14zm0 .28v-.14h-.14v.14zM24.71 5.43v-.14h-.14v.14zm0 .28v-.14h-.14v.14zm0 .28v-.14h-.14V6zm0 .28v-.14h-.14v.14zm0 .28v-.14h-.14v.14zm0 .27v-.13h-.14v.13zm0 .28V7h-.14v.1zm0 .28v-.14h-.14v.14zm0 .28v-.14h-.14v.14zm0 .28V7.8h-.14v.14zm0 .28v-.14h-.14v.14zm0 .28v-.14h-.14v.14zm0 .27v-.13h-.14v.13zm0 .28v-.14h-.14v.14zm0 .28v-.14h-.14v.14zm0 .28v-.14h-.14v.14zm0 .28v-.14h-.14v.14zm0 .28V10h-.14v.14zm0 .28v-.14h-.14v.14zm0 .27v-.14h-.14v.14zm0 .28v-.14h-.14V11zm0 .28v-.14h-.14v.14zm0 .28v-.14h-.14v.14zm0 .28v-.14h-.14v.14zm0 .28V12h-.14v.14zm0 .28v-.14h-.14v.14zm0 .27v-.13h-.14v.13zm0 .28v-.14h-.14V13zm0 .28v-.14h-.14v.14zm0 .28v-.14h-.14v.14zm0 .28v-.14h-.14v.14zM25.67 3.48V3.4h-.14v.08zm0 .28v-.14h-.14v.14zm0 .28V3.9h-.14V4zm0 .28v-.14h-.14v.14zm0 .28v-.14h-.14v.14zm0 .28v-.14h-.14v.14zm0 .27V5h-.14v.14zm0 .28v-.14h-.14v.14zm0 .28v-.14h-.14v.14zm0 .28v-.14h-.14V6zm0 .28v-.14h-.14v.14zm0 .28v-.14h-.14v.14zm0 .27v-.13h-.14v.13zm0 .28V7h-.14v.1zm0 .28v-.14h-.14v.14zm0 .28v-.14h-.14v.14zm0 .28V7.8h-.14v.14zm0 .28v-.14h-.14v.14zm0 .28v-.14h-.14v.14zm0 .27v-.13h-.14v.13zm0 .28v-.14h-.14v.14zm0 .28v-.14h-.14v.14zm0 .28v-.14h-.14v.14zm0 .28v-.14h-.14v.14zm0 .28V10h-.14v.14zm0 .28v-.14h-.14v.14zm0 .27v-.14h-.14v.14zm0 .28v-.14h-.14V11zm0 .28v-.14h-.14v.14zm0 .28v-.14h-.14v.14zm0 .28v-.14h-.14v.14zm0 .28V12h-.14v.14zm0 .28v-.14h-.14v.14zm0 .27v-.13h-.14v.13zm0 .28v-.14h-.14V13zm0 .28v-.14h-.14v.14zm0 .28v-.14h-.14v.14zm0 .28v-.14h-.14v.14zM26.63 4.88v-.12h-.14v.12zm0 .27V5h-.14v.14zm0 .28v-.14h-.14v.14zm0 .28v-.14h-.14v.14zm0 .28v-.14h-.14V6zm0 .28v-.14h-.14v.14zm0 .28v-.14h-.14v.14zm0 .27v-.13h-.14v.13zm0 .28V7h-.14v.1zm0 .28v-.14h-.14v.14zm0 .28v-.14h-.14v.14zm0 .28V7.8h-.14v.14zm0 .28v-.14h-.14v.14zm0 .28v-.14h-.14v.14zm0 .27v-.13h-.14v.13zm0 .28v-.14h-.14v.14zm0 .28v-.14h-.14v.14zm0 .28v-.14h-.14v.14zm0 .28v-.14h-.14v.14zm0 .28V10h-.14v.14zm0 .28v-.14h-.14v.14zm0 .27v-.14h-.14v.14zm0 .28v-.14h-.14V11zm0 .28v-.14h-.14v.14zm0 .28v-.14h-.14v.14zm0 .28v-.14h-.14v.14zm0 .28V12h-.14v.14zm0 .28v-.14h-.14v.14zm0 .27v-.13h-.14v.13zm0 .28v-.14h-.14V13zm0 .28v-.14h-.14v.14zm0 .28v-.14h-.14v.14zm0 .28v-.14h-.14v.14zM27.59 7.38v-.14h-.14v.14zm0 .28v-.14h-.14v.14zm0 .28V7.8h-.14v.14zm0 .28v-.14h-.14v.14zm0 .28v-.14h-.14v.14zm0 .27v-.13h-.14v.13zm0 .28v-.14h-.14v.14zm0 .28v-.14h-.14v.14zm0 .28v-.14h-.14v.14zm0 .28v-.14h-.14v.14zm0 .28V10h-.14v.14zm0 .28v-.14h-.14v.14zm0 .27v-.14h-.14v.14zm0 .28v-.14h-.14V11zm0 .28v-.14h-.14v.14zm0 .28v-.14h-.14v.14zm0 .28v-.14h-.14v.14zm0 .28V12h-.14v.14zm0 .28v-.14h-.14v.14zm0 .27v-.13h-.14v.13zm0 .28v-.14h-.14V13zm0 .28v-.14h-.14v.14zm0 .28v-.14h-.14v.14zm0 .28v-.14h-.14v.14zM28.55 9.33h-.14zm0 .28v-.14h-.14v.14zm0 .28v-.14h-.14v.14zm0 .28V10h-.14v.14zm0 .28v-.14h-.14v.14zm0 .27v-.14h-.14v.14zm0 .28v-.14h-.14V11zm0 .28v-.14h-.14v.14zm0 .28v-.14h-.14v.14zm0 .28v-.14h-.14v.14zm0 .28V12h-.14v.14zm0 .28v-.14h-.14v.14zm0 .27v-.13h-.14v.13zm0 .28v-.14h-.14V13zm0 .28v-.14h-.14v.14zm0 .28v-.14h-.14v.14zm0 .28v-.14h-.14v.14zM29.51 11v-.14h-.14V11zm0 .28v-.14h-.14v.14zm0 .28v-.14h-.14v.14zm0 .28v-.14h-.14v.14zm0 .28V12h-.14v.14zm0 .28v-.14h-.14v.14zm0 .27v-.13h-.14v.13zm0 .28v-.14h-.14V13zm0 .28v-.14h-.14v.14zm0 .28v-.14h-.14v.14zm0 .28v-.14h-.14v.14zM30.47 11v-.14h-.13V11zm0 .28v-.14h-.13v.14zm0 .28v-.14h-.13v.14zm0 .28v-.14h-.13v.14zm0 .28V12h-.13v.14zm0 .28v-.14h-.13v.14zm0 .27v-.13h-.13v.13zm0 .28v-.14h-.13V13zm0 .28v-.14h-.13v.14zm0 .28v-.14h-.13v.14zm0 .28v-.14h-.13v.14zM31.44 9.33v-.14h-.14v.14zm0 .28v-.14h-.14v.14zm0 .28v-.14h-.14v.14zm0 .28V10h-.14v.14zm0 .28v-.14h-.14v.14zm0 .27v-.14h-.14v.14zm0 .28v-.14h-.14V11zm0 .28v-.14h-.14v.14zm0 .28v-.14h-.14v.14zm0 .28v-.14h-.14v.14zm0 .28V12h-.14v.14zm0 .28v-.14h-.14v.14zm0 .27v-.13h-.14v.13zm0 .28v-.14h-.14V13zm0 .28v-.14h-.14v.14zm0 .28v-.14h-.14v.14zm0 .28v-.14h-.14v.14zM32.38 7.1h-.14zm0 .28v-.14h-.14v.14zm0 .28v-.14h-.14v.14zm0 .28V7.8h-.14v.14zm0 .28v-.14h-.14v.14zm0 .28v-.14h-.14v.14zm0 .27v-.13h-.14v.13zm0 .28v-.14h-.14v.14zm0 .28v-.14h-.14v.14zm0 .28v-.14h-.14v.14zm0 .28v-.14h-.14v.14zm0 .28V10h-.14v.14zm0 .28v-.14h-.14v.14zm0 .27v-.14h-.14v.14zm0 .28v-.14h-.14V11zm0 .28v-.14h-.14v.14zm0 .28v-.14h-.14v.14zm0 .28v-.14h-.14v.14zm0 .28V12h-.14v.14zm0 .28v-.14h-.14v.14zm0 .27v-.13h-.14v.13zm0 .28v-.14h-.14V13zm0 .28v-.14h-.14v.14zm0 .28v-.14h-.14v.14zm0 .28v-.14h-.14v.14zM33.34 5.43h-.14zm0 .28v-.14h-.14v.14zm0 .28v-.14h-.14V6zm0 .28v-.14h-.14v.14zm0 .28v-.14h-.14v.14zm0 .27v-.13h-.14v.13zm0 .28V7h-.14v.1zm0 .28v-.14h-.14v.14zm0 .28v-.14h-.14v.14zm0 .28V7.8h-.14v.14zm0 .28v-.14h-.14v.14zm0 .28v-.14h-.14v.14zm0 .27v-.13h-.14v.13zm0 .28v-.14h-.14v.14zm0 .28v-.14h-.14v.14zm0 .28v-.14h-.14v.14zm0 .28v-.14h-.14v.14zm0 .28V10h-.14v.14zm0 .28v-.14h-.14v.14zm0 .27v-.14h-.14v.14zm0 .28v-.14h-.14V11zm0 .28v-.14h-.14v.14zm0 .28v-.14h-.14v.14zm0 .28v-.14h-.14v.14zm0 .28V12h-.14v.14zm0 .28v-.14h-.14v.14zm0 .27v-.13h-.14v.13zm0 .28v-.14h-.14V13zm0 .28v-.14h-.14v.14zm0 .28v-.14h-.14v.14zm0 .28v-.14h-.14v.14zM34.3 4.88h-.14zm0 .27V5h-.14v.14zm0 .28v-.14h-.14v.14zm0 .28v-.14h-.14v.14zm0 .28v-.14h-.14V6zm0 .28v-.14h-.14v.14zm0 .28v-.14h-.14v.14zm0 .27v-.13h-.14v.13zm0 .28V7h-.14v.1zm0 .28v-.14h-.14v.14zm0 .28v-.14h-.14v.14zm0 .28V7.8h-.14v.14zm0 .28v-.14h-.14v.14zm0 .28v-.14h-.14v.14zm0 .27v-.13h-.14v.13zm0 .28v-.14h-.14v.14zm0 .28v-.14h-.14v.14zm0 .28v-.14h-.14v.14zm0 .28v-.14h-.14v.14zm0 .28V10h-.14v.14zm0 .28v-.14h-.14v.14zm0 .27v-.14h-.14v.14zm0 .28v-.14h-.14V11zm0 .28v-.14h-.14v.14zm0 .28v-.14h-.14v.14zm0 .28v-.14h-.14v.14zm0 .28V12h-.14v.14zm0 .28v-.14h-.14v.14zm0 .27v-.13h-.14v.13zm0 .28v-.14h-.14V13zm0 .28v-.14h-.14v.14zm0 .28v-.14h-.14v.14zm0 .28v-.14h-.14v.14zM35.26 5.15V5h-.14v.14zm0 .28v-.14h-.14v.14zm0 .28v-.14h-.14v.14zm0 .28v-.14h-.14V6zm0 .28v-.14h-.14v.14zm0 .28v-.14h-.14v.14zm0 .27v-.13h-.14v.13zm0 .28V7h-.14v.1zm0 .28v-.14h-.14v.14zm0 .28v-.14h-.14v.14zm0 .28V7.8h-.14v.14zm0 .28v-.14h-.14v.14zm0 .28v-.14h-.14v.14zm0 .27v-.13h-.14v.13zm0 .28v-.14h-.14v.14zm0 .28v-.14h-.14v.14zm0 .28v-.14h-.14v.14zm0 .28v-.14h-.14v.14zm0 .28V10h-.14v.14zm0 .28v-.14h-.14v.14zm0 .27v-.14h-.14v.14zm0 .28v-.14h-.14V11zm0 .28v-.14h-.14v.14zm0 .28v-.14h-.14v.14zm0 .28v-.14h-.14v.14zm0 .28V12h-.14v.14zm0 .28v-.14h-.14v.14zm0 .27v-.13h-.14v.13zm0 .28v-.14h-.14V13zm0 .28v-.14h-.14v.14zm0 .28v-.14h-.14v.14zm0 .28v-.14h-.14v.14zM36.22 5.43v-.14h-.14v.14zm0 .28v-.14h-.14v.14zm0 .28v-.14h-.14V6zm0 .28v-.14h-.14v.14zm0 .28v-.14h-.14v.14zm0 .27v-.13h-.14v.13zm0 .28V7h-.14v.1zm0 .28v-.14h-.14v.14zm0 .28v-.14h-.14v.14zm0 .28V7.8h-.14v.14zm0 .28v-.14h-.14v.14zm0 .28v-.14h-.14v.14zm0 .27v-.13h-.14v.13zm0 .28v-.14h-.14v.14zm0 .28v-.14h-.14v.14zm0 .28v-.14h-.14v.14zm0 .28v-.14h-.14v.14zm0 .28V10h-.14v.14zm0 .28v-.14h-.14v.14zm0 .27v-.14h-.14v.14zm0 .28v-.14h-.14V11zm0 .28v-.14h-.14v.14zm0 .28v-.14h-.14v.14zm0 .28v-.14h-.14v.14zm0 .28V12h-.14v.14zm0 .28v-.14h-.14v.14zm0 .27v-.13h-.14v.13zm0 .28v-.14h-.14V13zm0 .28v-.14h-.14v.14zm0 .28v-.14h-.14v.14zm0 .28v-.14h-.14v.14zM37.18 5.71v-.09H37v.09zm0 .28v-.14H37V6zm0 .28v-.14H37v.14zm0 .28v-.14H37v.14zm0 .27v-.13H37v.13zm0 .28V7H37v.1zm0 .28v-.14H37v.14zm0 .28v-.14H37v.14zm0 .28V7.8H37v.14zm0 .28v-.14H37v.14zm0 .28v-.14H37v.14zm0 .27v-.13H37v.13zm0 .28v-.14H37v.14zm0 .28v-.14H37v.14zm0 .28v-.14H37v.14zm0 .28v-.14H37v.14zm0 .28V10H37v.14zm0 .28v-.14H37v.14zm0 .27v-.14H37v.14zm0 .28v-.14H37V11zm0 .28v-.14H37v.14zm0 .28v-.14H37v.14zm0 .28v-.14H37v.14zm0 .28V12H37v.14zm0 .28v-.14H37v.14zm0 .27v-.13H37v.13zm0 .28v-.14H37V13zm0 .28v-.14H37v.14zm0 .28v-.14H37v.14zm0 .28v-.14H37v.14zM38.14 6.27v-.14H38v.14zm0 .28v-.14H38v.14zm0 .27v-.13H38v.13zm0 .28V7H38v.1zm0 .28v-.14H38v.14zm0 .28v-.14H38v.14zm0 .28V7.8H38v.14zm0 .28v-.14H38v.14zm0 .28v-.14H38v.14zm0 .27v-.13H38v.13zm0 .28v-.14H38v.14zm0 .28v-.14H38v.14zm0 .28v-.14H38v.14zm0 .28v-.14H38v.14zm0 .28V10H38v.14zm0 .28v-.14H38v.14zm0 .27v-.14H38v.14zm0 .28v-.14H38V11zm0 .28v-.14H38v.14zm0 .28v-.14H38v.14zm0 .28v-.14H38v.14zm0 .28V12H38v.14zm0 .28v-.14H38v.14zm0 .27v-.13H38v.13zm0 .28v-.14H38V13zm0 .28v-.14H38v.14zm0 .28v-.14H38v.14zm0 .28v-.14H38v.14zM39.11 6.82v-.13H39v.13zm0 .28V7H39v.1zm0 .28v-.14H39v.14zm0 .28v-.14H39v.14zm0 .28V7.8H39v.14zm0 .28v-.14H39v.14zm0 .28v-.14H39v.14zm0 .27v-.13H39v.13zm0 .28v-.14H39v.14zm0 .28v-.14H39v.14zm0 .28v-.14H39v.14zm0 .28v-.14H39v.14zm0 .28V10H39v.14zm0 .28v-.14H39v.14zm0 .27v-.14H39v.14zm0 .28v-.14H39V11zm0 .28v-.14H39v.14zm0 .28v-.14H39v.14zm0 .28v-.14H39v.14zm0 .28V12H39v.14zm0 .28v-.14H39v.14zm0 .27v-.13H39v.13zm0 .28v-.14H39V13zm0 .28v-.14H39v.14zm0 .28v-.14H39v.14zm0 .28v-.14H39v.14zM40.07 7.1h-.14zm0 .28v-.14h-.14v.14zm0 .28v-.14h-.14v.14zm0 .28V7.8h-.14v.14zm0 .28v-.14h-.14v.14zm0 .28v-.14h-.14v.14zm0 .27v-.13h-.14v.13zm0 .28v-.14h-.14v.14zm0 .28v-.14h-.14v.14zm0 .28v-.14h-.14v.14zm0 .28v-.14h-.14v.14zm0 .28V10h-.14v.14zm0 .28v-.14h-.14v.14zm0 .27v-.14h-.14v.14zm0 .28v-.14h-.14V11zm0 .28v-.14h-.14v.14zm0 .28v-.14h-.14v.14zm0 .28v-.14h-.14v.14zm0 .28V12h-.14v.14zm0 .28v-.14h-.14v.14zm0 .27v-.13h-.14v.13zm0 .28v-.14h-.14V13zm0 .28v-.14h-.14v.14zm0 .28v-.14h-.14v.14zm0 .28v-.14h-.14v.14zM41 7.66v-.14h-.14v.14zm0 .28V7.8h-.14v.14zm0 .28v-.14h-.14v.14zm0 .28v-.14h-.14v.14zm0 .27v-.13h-.14v.13zm0 .28v-.14h-.14v.14zm0 .28v-.14h-.14v.14zm0 .28v-.14h-.14v.14zm0 .28v-.14h-.14v.14zm0 .28V10h-.14v.14zm0 .28v-.14h-.14v.14zm0 .27v-.14h-.14v.14zm0 .28v-.14h-.14V11zm0 .28v-.14h-.14v.14zm0 .28v-.14h-.14v.14zm0 .28v-.14h-.14v.14zm0 .28V12h-.14v.14zm0 .28v-.14h-.14v.14zm0 .27v-.13h-.14v.13zm0 .33v-.14h-.14V13zm0 .28v-.14h-.14v.14zm0 .28v-.14h-.14v.14zm0 .28v-.14h-.14v.14zM42 7.94v-.13h-.14v.13zm0 .28v-.14h-.14v.14zm0 .28v-.14h-.14v.14zm0 .27v-.13h-.14v.13zm0 .28v-.14h-.14v.14zm0 .28v-.14h-.14v.14zm0 .28v-.14h-.14v.14zm0 .28v-.14h-.14v.14zm0 .28V10h-.14v.14zm0 .28v-.14h-.14v.14zm0 .27v-.14h-.14v.14zm0 .28v-.14h-.14V11zm0 .28v-.14h-.14v.14zm0 .28v-.14h-.14v.14zm0 .28v-.14h-.14v.14zm0 .28V12h-.14v.14zm0 .28v-.14h-.14v.14zm0 .27v-.13h-.14v.13zm0 .33v-.14h-.14V13zm0 .28v-.14h-.14v.14zm0 .28v-.14h-.14v.14zm0 .28v-.14h-.14v.14zM42.93 8.22v-.14h-.14v.14zm0 .28v-.14h-.14v.14zm0 .27v-.13h-.14v.13zm0 .28v-.14h-.14v.14zm0 .28v-.14h-.14v.14zm0 .28v-.14h-.14v.14zm0 .28v-.14h-.14v.14zm0 .28V10h-.14v.14zm0 .28v-.14h-.14v.14zm0 .27v-.14h-.14v.14zm0 .28v-.14h-.14V11zm0 .28v-.14h-.14v.14zm0 .28v-.14h-.14v.14zm0 .28v-.14h-.14v.14zm0 .28V12h-.14v.14zm0 .28v-.14h-.14v.14zm0 .27v-.13h-.14v.13zm0 .28v-.14h-.14V13zm0 .28v-.14h-.14v.14zm0 .28v-.14h-.14v.14zm0 .28v-.14h-.14v.14zM43.89 7.94zm0 .28v-.14h-.14v.14zm0 .28v-.14h-.14v.14zm0 .27v-.13h-.14v.13zm0 .28v-.14h-.14v.14zm0 .28v-.14h-.14v.14zm0 .28v-.14h-.14v.14zm0 .28v-.14h-.14v.14zm0 .28V10h-.14v.14zm0 .28v-.14h-.14v.14zm0 .27v-.14h-.14v.14zm0 .28v-.14h-.14V11zm0 .28v-.14h-.14v.14zm0 .28v-.14h-.14v.14zm0 .28v-.14h-.14v.14zm0 .28V12h-.14v.14zm0 .28v-.14h-.14v.14zm0 .27v-.13h-.14v.13zm0 .28v-.14h-.14V13zm0 .28v-.14h-.14v.14zm0 .28v-.14h-.14v.14zm0 .28v-.14h-.14v.14zM44.85 7.94V7.8h-.14v.14zm0 .28v-.14h-.14v.14zm0 .28v-.14h-.14v.14zm0 .27v-.13h-.14v.13zm0 .28v-.14h-.14v.14zm0 .28v-.14h-.14v.14zm0 .28v-.14h-.14v.14zm0 .28v-.14h-.14v.14zm0 .28V10h-.14v.14zm0 .28v-.14h-.14v.14zm0 .27v-.14h-.14v.14zm0 .28v-.14h-.14V11zm0 .28v-.14h-.14v.14zm0 .28v-.14h-.14v.14zm0 .28v-.14h-.14v.14zm0 .28V12h-.14v.14zm0 .28v-.14h-.14v.14zm0 .27v-.13h-.14v.13zm0 .28v-.14h-.14V13zm0 .28v-.14h-.14v.14zm0 .28v-.14h-.14v.14zm0 .28v-.14h-.14v.14zM45.81 7.66v-.14h-.14v.14zm0 .28V7.8h-.14v.14zm0 .28v-.14h-.14v.14zm0 .28v-.14h-.14v.14zm0 .27v-.13h-.14v.13zm0 .28v-.14h-.14v.14zm0 .28v-.14h-.14v.14zm0 .28v-.14h-.14v.14zm0 .28v-.14h-.14v.14zm0 .28V10h-.14v.14zm0 .28v-.14h-.14v.14zm0 .27v-.14h-.14v.14zm0 .28v-.14h-.14V11zm0 .28v-.14h-.14v.14zm0 .28v-.14h-.14v.14zm0 .28v-.14h-.14v.14zm0 .28V12h-.14v.14zm0 .28v-.14h-.14v.14zm0 .27v-.13h-.14v.13zm0 .28v-.14h-.14V13zm0 .28v-.14h-.14v.14zm0 .28v-.14h-.14v.14zm0 .28v-.14h-.14v.14zM46.77 7.1V7h-.14v.1zm0 .28v-.14h-.14v.14zm0 .28v-.14h-.14v.14zm0 .28V7.8h-.14v.14zm0 .28v-.14h-.14v.14zm0 .28v-.14h-.14v.14zm0 .27v-.13h-.14v.13zm0 .28v-.14h-.14v.14zm0 .28v-.14h-.14v.14zm0 .28v-.14h-.14v.14zm0 .28v-.14h-.14v.14zm0 .28V10h-.14v.14zm0 .28v-.14h-.14v.14zm0 .27v-.14h-.14v.14zm0 .28v-.14h-.14V11zm0 .28v-.14h-.14v.14zm0 .28v-.14h-.14v.14zm0 .28v-.14h-.14v.14zm0 .28V12h-.14v.14zm0 .28v-.14h-.14v.14zm0 .27v-.13h-.14v.13zm0 .28v-.14h-.14V13zm0 .28v-.14h-.14v.14zm0 .28v-.14h-.14v.14zm0 .28v-.14h-.14v.14zM47.74 6.55v-.14h-.14v.14zm0 .27v-.13h-.14v.13zm0 .28V7h-.14v.1zm0 .28v-.14h-.14v.14zm0 .28v-.14h-.14v.14zm0 .28V7.8h-.14v.14zm0 .28v-.14h-.14v.14zm0 .28v-.14h-.14v.14zm0 .27v-.13h-.14v.13zm0 .28v-.14h-.14v.14zm0 .28v-.14h-.14v.14zm0 .28v-.14h-.14v.14zm0 .28v-.14h-.14v.14zm0 .28V10h-.14v.14zm0 .28v-.14h-.14v.14zm0 .27v-.14h-.14v.14zm0 .28v-.14h-.14V11zm0 .28v-.14h-.14v.14zm0 .28v-.14h-.14v.14zm0 .28v-.14h-.14v.14zm0 .28V12h-.14v.14zm0 .28v-.14h-.14v.14zm0 .27v-.13h-.14v.13zm0 .28v-.14h-.14V13zm0 .28v-.14h-.14v.14zm0 .28v-.14h-.14v.14zm0 .28v-.14h-.14v.14zM48.7 5.43v-.06h-.14v.06zm0 .28v-.14h-.14v.14zm0 .28v-.14h-.14V6zm0 .28v-.14h-.14v.14zm0 .28v-.14h-.14v.14zm0 .27v-.13h-.14v.13zm0 .28V7h-.14v.1zm0 .28v-.14h-.14v.14zm0 .28v-.14h-.14v.14zm0 .28V7.8h-.14v.14zm0 .28v-.14h-.14v.14zm0 .28v-.14h-.14v.14zm0 .27v-.13h-.14v.13zm0 .28v-.14h-.14v.14zm0 .28v-.14h-.14v.14zm0 .28v-.14h-.14v.14zm0 .28v-.14h-.14v.14zm0 .28V10h-.14v.14zm0 .28v-.14h-.14v.14zm0 .27v-.14h-.14v.14zm0 .28v-.14h-.14V11zm0 .28v-.14h-.14v.14zm0 .28v-.14h-.14v.14zm0 .28v-.14h-.14v.14zm0 .28V12h-.14v.14zm0 .28v-.14h-.14v.14zm0 .27v-.13h-.14v.13zm0 .28v-.14h-.14V13zm0 .28v-.14h-.14v.14zm0 .28v-.14h-.14v.14zm0 .28v-.14h-.14v.14zM49.66 4.32v-.14h-.14v.14zm0 .28v-.14h-.14v.14zm0 .28v-.14h-.14v.14zm0 .27V5h-.14v.14zm0 .28v-.14h-.14v.14zm0 .28v-.14h-.14v.14zm0 .28v-.14h-.14V6zm0 .28v-.14h-.14v.14zm0 .28v-.14h-.14v.14zm0 .27v-.13h-.14v.13zm0 .28V7h-.14v.1zm0 .28v-.14h-.14v.14zm0 .28v-.14h-.14v.14zm0 .28V7.8h-.14v.14zm0 .28v-.14h-.14v.14zm0 .28v-.14h-.14v.14zm0 .27v-.13h-.14v.13zm0 .28v-.14h-.14v.14zm0 .28v-.14h-.14v.14zm0 .28v-.14h-.14v.14zm0 .28v-.14h-.14v.14zm0 .28V10h-.14v.14zm0 .28v-.14h-.14v.14zm0 .27v-.14h-.14v.14zm0 .28v-.14h-.14V11zm0 .28v-.14h-.14v.14zm0 .28v-.14h-.14v.14zm0 .28v-.14h-.14v.14zm0 .28V12h-.14v.14zm0 .28v-.14h-.14v.14zm0 .27v-.13h-.14v.13zm0 .28v-.14h-.14V13zm0 .28v-.14h-.14v.14zm0 .28v-.14h-.14v.14zm0 .28v-.14h-.14v.14zM50.62 2.37zm0 .28v-.14h-.14v.14zm0 .27v-.13h-.14v.13zm0 .28v-.14h-.14v.14zm0 .28v-.14h-.14v.14zm0 .28v-.14h-.14v.14zm0 .28V3.9h-.14V4zm0 .28v-.14h-.14v.14zm0 .28v-.14h-.14v.14zm0 .28v-.14h-.14v.14zm0 .27V5h-.14v.14zm0 .28v-.14h-.14v.14zm0 .28v-.14h-.14v.14zm0 .28v-.14h-.14V6zm0 .28v-.14h-.14v.14zm0 .28v-.14h-.14v.14zm0 .27v-.13h-.14v.13zm0 .28V7h-.14v.1zm0 .28v-.14h-.14v.14zm0 .28v-.14h-.14v.14zm0 .28V7.8h-.14v.14zm0 .28v-.14h-.14v.14zm0 .28v-.14h-.14v.14zm0 .27v-.13h-.14v.13zm0 .28v-.14h-.14v.14zm0 .28v-.14h-.14v.14zm0 .28v-.14h-.14v.14zm0 .28v-.14h-.14v.14zm0 .28V10h-.14v.14zm0 .28v-.14h-.14v.14zm0 .27v-.14h-.14v.14zm0 .28v-.14h-.14V11zm0 .28v-.14h-.14v.14zm0 .28v-.14h-.14v.14zm0 .28v-.14h-.14v.14zm0 .28V12h-.14v.14zm0 .28v-.14h-.14v.14zm0 .27v-.13h-.14v.13zm0 .28v-.14h-.14V13zm0 .28v-.14h-.14v.14zm0 .28v-.14h-.14v.14zm0 .28v-.14h-.14v.14zM51.58.14V0h-.14v.14zm0 .28V.28h-.14v.14zm0 .28V.56h-.14V.7zm0 .27V.84h-.14V1zm0 .28v-.14h-.14v.14zm0 .28v-.14h-.14v.14zm0 .28v-.14h-.14v.14zm0 .28V2h-.14v.14zm0 .28v-.14h-.14v.14zm0 .28v-.14h-.14v.14zm0 .27v-.13h-.14v.13zm0 .28v-.14h-.14v.14zm0 .28v-.14h-.14v.14zm0 .28v-.14h-.14v.14zm0 .28V3.9h-.14V4zm0 .28v-.14h-.14v.14zm0 .28v-.14h-.14v.14zm0 .28v-.14h-.14v.14zm0 .27V5h-.14v.14zm0 .28v-.14h-.14v.14zm0 .28v-.14h-.14v.14zm0 .28v-.14h-.14V6zm0 .28v-.14h-.14v.14zm0 .28v-.14h-.14v.14zm0 .27v-.13h-.14v.13zm0 .28V7h-.14v.1zm0 .28v-.14h-.14v.14zm0 .28v-.14h-.14v.14zm0 .28V7.8h-.14v.14zm0 .28v-.14h-.14v.14zm0 .28v-.14h-.14v.14zm0 .27v-.13h-.14v.13zm0 .28v-.14h-.14v.14zm0 .28v-.14h-.14v.14zm0 .28v-.14h-.14v.14zm0 .28v-.14h-.14v.14zm0 .28V10h-.14v.14zm0 .28v-.14h-.14v.14zm0 .27v-.14h-.14v.14zm0 .28v-.14h-.14V11zm0 .28v-.14h-.14v.14zm0 .28v-.14h-.14v.14zm0 .28v-.14h-.14v.14zm0 .28V12h-.14v.14zm0 .28v-.14h-.14v.14zm0 .27v-.13h-.14v.13zm0 .28v-.14h-.14V13zm0 .28v-.14h-.14v.14zm0 .28v-.14h-.14v.14zm0 .28v-.14h-.14v.14zM52.54.14V0h-.14v.14zm0 .28V.28h-.14v.14zm0 .28V.56h-.14V.7zm0 .27V.84h-.14V1zm0 .28v-.14h-.14v.14zm0 .28v-.14h-.14v.14zm0 .28v-.14h-.14v.14zm0 .28V2h-.14v.14zm0 .28v-.14h-.14v.14zm0 .28v-.14h-.14v.14zm0 .27v-.13h-.14v.13zm0 .28v-.14h-.14v.14zm0 .28v-.14h-.14v.14zm0 .28v-.14h-.14v.14zm0 .28V3.9h-.14V4zm0 .28v-.14h-.14v.14zm0 .28v-.14h-.14v.14zm0 .28v-.14h-.14v.14zm0 .27V5h-.14v.14zm0 .28v-.14h-.14v.14zm0 .28v-.14h-.14v.14zm0 .28v-.14h-.14V6zm0 .28v-.14h-.14v.14zm0 .28v-.14h-.14v.14zm0 .27v-.13h-.14v.13zm0 .28V7h-.14v.1zm0 .28v-.14h-.14v.14zm0 .28v-.14h-.14v.14zm0 .28V7.8h-.14v.14zm0 .28v-.14h-.14v.14zm0 .28v-.14h-.14v.14zm0 .27v-.13h-.14v.13zm0 .28v-.14h-.14v.14zm0 .28v-.14h-.14v.14zm0 .28v-.14h-.14v.14zm0 .28v-.14h-.14v.14zm0 .28V10h-.14v.14zm0 .28v-.14h-.14v.14zm0 .27v-.14h-.14v.14zm0 .28v-.14h-.14V11zm0 .28v-.14h-.14v.14zm0 .28v-.14h-.14v.14zm0 .28v-.14h-.14v.14zm0 .28V12h-.14v.14zm0 .28v-.14h-.14v.14zm0 .27v-.13h-.14v.13zm0 .28v-.14h-.14V13zm0 .28v-.14h-.14v.14zm0 .28v-.14h-.14v.14zm0 .28v-.14h-.14v.14zM53.5 2.92v-.13h-.14v.13zm0 .28v-.14h-.14v.14zm0 .28v-.14h-.14v.14zm0 .28v-.14h-.14v.14zm0 .28V3.9h-.14V4zm0 .28v-.14h-.14v.14zm0 .28v-.14h-.14v.14zm0 .28v-.14h-.14v.14zm0 .27V5h-.14v.14zm0 .28v-.14h-.14v.14zm0 .28v-.14h-.14v.14zm0 .28v-.14h-.14V6zm0 .28v-.14h-.14v.14zm0 .28v-.14h-.14v.14zm0 .27v-.13h-.14v.13zm0 .28V7h-.14v.1zm0 .28v-.14h-.14v.14zm0 .28v-.14h-.14v.14zm0 .28V7.8h-.14v.14zm0 .28v-.14h-.14v.14zm0 .28v-.14h-.14v.14zm0 .27v-.13h-.14v.13zm0 .28v-.14h-.14v.14zm0 .28v-.14h-.14v.14zm0 .28v-.14h-.14v.14zm0 .28v-.14h-.14v.14zm0 .28V10h-.14v.14zm0 .28v-.14h-.14v.14zm0 .27v-.14h-.14v.14zm0 .28v-.14h-.14V11zm0 .28v-.14h-.14v.14zm0 .28v-.14h-.14v.14zm0 .28v-.14h-.14v.14zm0 .28V12h-.14v.14zm0 .28v-.14h-.14v.14zm0 .27v-.13h-.14v.13zm0 .28v-.14h-.14V13zm0 .28v-.14h-.14v.14zm0 .28v-.14h-.14v.14zm0 .28v-.14h-.14v.14zM54.44 5.43v-.14h-.14v.14zm0 .28v-.14h-.14v.14zm0 .28v-.14h-.14V6zm0 .28v-.14h-.14v.14zm0 .28v-.14h-.14v.14zm0 .27v-.13h-.14v.13zm0 .28V7h-.14v.1zm0 .28v-.14h-.14v.14zm0 .28v-.14h-.14v.14zm0 .28V7.8h-.14v.14zm0 .28v-.14h-.14v.14zm0 .28v-.14h-.14v.14zm0 .27v-.13h-.14v.13zm0 .28v-.14h-.14v.14zm0 .28v-.14h-.14v.14zm0 .28v-.14h-.14v.14zm0 .28v-.14h-.14v.14zm0 .28V10h-.14v.14zm0 .28v-.14h-.14v.14zm0 .27v-.14h-.14v.14zm0 .28v-.14h-.14V11zm0 .28v-.14h-.14v.14zm0 .28v-.14h-.14v.14zm0 .28v-.14h-.14v.14zm0 .28V12h-.14v.14zm0 .28v-.14h-.14v.14zm0 .27v-.13h-.14v.13zm0 .28v-.14h-.14V13zm0 .28v-.14h-.14v.14zm0 .28v-.14h-.14v.14zm0 .28v-.14h-.14v.14zM55.4 7.38h-.14zm0 .28v-.14h-.14v.14zm0 .28V7.8h-.14v.14zm0 .28v-.14h-.14v.14zm0 .28v-.14h-.14v.14zm0 .27v-.13h-.14v.13zm0 .28v-.14h-.14v.14zm0 .28v-.14h-.14v.14zm0 .28v-.14h-.14v.14zm0 .28v-.14h-.14v.14zm0 .28V10h-.14v.14zm0 .28v-.14h-.14v.14zm0 .27v-.14h-.14v.14zm0 .28v-.14h-.14V11zm0 .28v-.14h-.14v.14zm0 .28v-.14h-.14v.14zm0 .28v-.14h-.14v.14zm0 .28V12h-.14v.14zm0 .28v-.14h-.14v.14zm0 .27v-.13h-.14v.13zm0 .28v-.14h-.14V13zm0 .28v-.14h-.14v.14zm0 .28v-.14h-.14v.14zm0 .28v-.14h-.14v.14zM56.37 9.05v-.11h-.14v.11zm0 .28v-.14h-.14v.14zm0 .28v-.14h-.14v.14zm0 .28v-.14h-.14v.14zm0 .28V10h-.14v.14zm0 .28v-.14h-.14v.14zm0 .27v-.14h-.14v.14zm0 .28v-.14h-.14V11zm0 .28v-.14h-.14v.14zm0 .28v-.14h-.14v.14zm0 .28v-.14h-.14v.14zm0 .28V12h-.14v.14zm0 .28v-.14h-.14v.14zm0 .27v-.13h-.14v.13zm0 .28v-.14h-.14V13zm0 .28v-.14h-.14v.14zm0 .28v-.14h-.14v.14zm0 .28v-.14h-.14v.14zM57.33 10.17V10h-.14v.14zm0 .28v-.14h-.14v.14zm0 .27v-.14h-.14v.14zm0 .28v-.14h-.14V11zm0 .28v-.14h-.14v.14zm0 .28v-.14h-.14v.14zm0 .28v-.14h-.14v.14zm0 .28V12h-.14v.14zm0 .28v-.14h-.14v.14zm0 .27v-.13h-.14v.13zm0 .28v-.14h-.14V13zm0 .28v-.14h-.14v.14zm0 .28v-.14h-.14v.14zm0 .28v-.14h-.14v.14zM58.29 10.45v-.14h-.14v.14zm0 .27v-.14h-.14v.14zm0 .28v-.14h-.14V11zm0 .28v-.14h-.14v.14zm0 .28v-.14h-.14v.14zm0 .28v-.14h-.14v.14zm0 .28V12h-.14v.14zm0 .28v-.14h-.14v.14zm0 .27v-.13h-.14v.13zm0 .28v-.14h-.14V13zm0 .28v-.14h-.14v.14zm0 .28v-.14h-.14v.14zm0 .28v-.14h-.14v.14zM59.25 9.89v-.14h-.14v.14zm0 .28V10h-.14v.14zm0 .28v-.14h-.14v.14zm0 .27v-.14h-.14v.14zm0 .28v-.14h-.14V11zm0 .28v-.14h-.14v.14zm0 .28v-.14h-.14v.14zm0 .28v-.14h-.14v.14zm0 .28V12h-.14v.14zm0 .28v-.14h-.14v.14zm0 .27v-.13h-.14v.13zm0 .28v-.14h-.14V13zm0 .28v-.14h-.14v.14zm0 .28v-.14h-.14v.14zm0 .28v-.14h-.14v.14zM60.21 8.5v-.14h-.14v.14zm0 .27v-.13h-.14v.13zm0 .28v-.14h-.14v.14zm0 .28v-.14h-.14v.14zm0 .28v-.14h-.14v.14zm0 .28v-.14h-.14v.14zm0 .28V10h-.14v.14zm0 .28v-.14h-.14v.14zm0 .27v-.14h-.14v.14zm0 .28v-.14h-.14V11zm0 .28v-.14h-.14v.14zm0 .28v-.14h-.14v.14zm0 .28v-.14h-.14v.14zm0 .28V12h-.14v.14zm0 .28v-.14h-.14v.14zm0 .27v-.13h-.14v.13zm0 .28v-.14h-.14V13zm0 .28v-.14h-.14v.14zm0 .28v-.14h-.14v.14zm0 .28v-.14h-.14v.14zM61.17 6.82v-.13H61v.13zm0 .28V7H61v.1zm0 .28v-.14H61v.14zm0 .28v-.14H61v.14zm0 .28V7.8H61v.14zm0 .28v-.14H61v.14zm0 .28v-.14H61v.14zm0 .27v-.13H61v.13zm0 .28v-.14H61v.14zm0 .28v-.14H61v.14zm0 .28v-.14H61v.14zm0 .28v-.14H61v.14zm0 .28V10H61v.14zm0 .28v-.14H61v.14zm0 .27v-.14H61v.14zm0 .28v-.14H61V11zm0 .28v-.14H61v.14zm0 .28v-.14H61v.14zm0 .28v-.14H61v.14zm0 .28V12H61v.14zm0 .28v-.14H61v.14zm0 .27v-.13H61v.13zm0 .28v-.14H61V13zm0 .28v-.14H61v.14zm0 .28v-.14H61v.14zm0 .28v-.14H61v.14zM62.13 5.15V5H62v.14zm0 .28v-.14H62v.14zm0 .28v-.14H62v.14zm0 .28v-.14H62V6zm0 .28v-.14H62v.14zm0 .28v-.14H62v.14zm0 .27v-.13H62v.13zm0 .28V7H62v.1zm0 .28v-.14H62v.14zm0 .28v-.14H62v.14zm0 .28V7.8H62v.14zm0 .28v-.14H62v.14zm0 .28v-.14H62v.14zm0 .27v-.13H62v.13zm0 .28v-.14H62v.14zm0 .28v-.14H62v.14zm0 .28v-.14H62v.14zm0 .28v-.14H62v.14zm0 .28V10H62v.14zm0 .28v-.14H62v.14zm0 .27v-.14H62v.14zm0 .28v-.14H62V11zm0 .28v-.14H62v.14zm0 .28v-.14H62v.14zm0 .28v-.14H62v.14zm0 .28V12H62v.14zm0 .28v-.14H62v.14zm0 .27v-.13H62v.13zm0 .28v-.14H62V13zm0 .28v-.14H62v.14zm0 .28v-.14H62v.14zm0 .28v-.14H62v.14zM63.09 3.48H63zm0 .28v-.14H63v.14zm0 .28V3.9H63V4zm0 .28v-.14H63v.14zm0 .28v-.14H63v.14zm0 .28v-.14H63v.14zm0 .27V5H63v.14zm0 .28v-.14H63v.14zm0 .28v-.14H63v.14zm0 .28v-.14H63V6zm0 .28v-.14H63v.14zm0 .28v-.14H63v.14zm0 .27v-.13H63v.13zm0 .28V7H63v.1zm0 .28v-.14H63v.14zm0 .28v-.14H63v.14zm0 .28V7.8H63v.14zm0 .28v-.14H63v.14zm0 .28v-.14H63v.14zm0 .27v-.13H63v.13zm0 .28v-.14H63v.14zm0 .28v-.14H63v.14zm0 .28v-.14H63v.14zm0 .28v-.14H63v.14zm0 .28V10H63v.14zm0 .28v-.14H63v.14zm0 .27v-.14H63v.14zm0 .28v-.14H63V11zm0 .28v-.14H63v.14zm0 .28v-.14H63v.14zm0 .28v-.14H63v.14zm0 .28V12H63v.14zm0 .28v-.14H63v.14zm0 .27v-.13H63v.13zm0 .28v-.14H63V13zm0 .28v-.14H63v.14zm0 .28v-.14H63v.14zm0 .28v-.14H63v.14zM64.05 2.92v-.13h-.13v.13zm0 .28v-.14h-.13v.14zm0 .28v-.14h-.13v.14zm0 .28v-.14h-.13v.14zm0 .28V3.9h-.13V4zm0 .28v-.14h-.13v.14zm0 .28v-.14h-.13v.14zm0 .28v-.14h-.13v.14zm0 .27V5h-.13v.14zm0 .28v-.14h-.13v.14zm0 .28v-.14h-.13v.14zm0 .28v-.14h-.13V6zm0 .28v-.14h-.13v.14zm0 .28v-.14h-.13v.14zm0 .27v-.13h-.13v.13zm0 .28V7h-.13v.1zm0 .28v-.14h-.13v.14zm0 .28v-.14h-.13v.14zm0 .28V7.8h-.13v.14zm0 .28v-.14h-.13v.14zm0 .28v-.14h-.13v.14zm0 .27v-.13h-.13v.13zm0 .28v-.14h-.13v.14zm0 .28v-.14h-.13v.14zm0 .28v-.14h-.13v.14zm0 .28v-.14h-.13v.14zm0 .28V10h-.13v.14zm0 .28v-.14h-.13v.14zm0 .27v-.14h-.13v.14zm0 .28v-.14h-.13V11zm0 .28v-.14h-.13v.14zm0 .28v-.14h-.13v.14zm0 .28v-.14h-.13v.14zm0 .28V12h-.13v.14zm0 .28v-.14h-.13v.14zm0 .27v-.13h-.13v.13zm0 .28v-.14h-.13V13zm0 .28v-.14h-.13v.14zm0 .28v-.14h-.13v.14zm0 .28v-.14h-.13v.14zM65 3.2v-.13h-.14v.13zm0 .28v-.14h-.14v.14zm0 .28v-.14h-.14v.14zM65 4v-.1h-.14V4zm0 .28v-.1h-.14v.14zm0 .28v-.1h-.14v.14zm0 .28v-.1h-.14v.14zm0 .27V5h-.14v.14zm0 .28v-.1h-.14v.14zm0 .28v-.1h-.14v.14zM65 6v-.15h-.14V6zm0 .28v-.15h-.14v.14zm0 .28v-.15h-.14v.14zm0 .27v-.14h-.14v.13zm0 .28V7h-.14v.1zm0 .28v-.15h-.14v.14zm0 .28v-.15h-.14v.14zm0 .28V7.8h-.14v.14zm0 .28v-.15h-.14v.14zm0 .28v-.15h-.14v.14zm0 .27v-.14h-.14v.13zm0 .28v-.15h-.14v.14zm0 .28v-.15h-.14v.14zm0 .28v-.15h-.14v.14zm0 .28v-.15h-.14v.14zm0 .28V10h-.14v.14zm0 .28v-.14h-.14v.14zm0 .27v-.14h-.14v.14zm0 .27v-.14h-.14V11zm0 .28v-.14h-.14v.14zm0 .28v-.14h-.14v.14zm0 .28v-.14h-.14v.14zm0 .28V12h-.14v.14zm0 .28v-.14h-.14v.14zm0 .27v-.13h-.14v.13zm0 .33v-.14h-.14V13zm0 .28v-.14h-.14v.14zm0 .28v-.14h-.14v.14zm0 .28v-.14h-.14v.14zM66 4.32v-.1h-.14v.1zm0 .28v-.14h-.14v.14zm0 .28v-.14h-.14v.14zm0 .27V5h-.14v.14zm0 .28v-.14h-.14v.14zm0 .28v-.14h-.14v.14zM66 6v-.15h-.14V6zm0 .28v-.15h-.14v.14zm0 .28v-.15h-.14v.14zm0 .27v-.14h-.14v.13zm0 .28V7h-.14v.1zm0 .28v-.15h-.14v.14zm0 .28v-.15h-.14v.14zm0 .28V7.8h-.14v.14zm0 .28v-.15h-.14v.14zm0 .28v-.15h-.14v.14zm0 .27v-.14h-.14v.13zm0 .28v-.15h-.14v.14zm0 .28v-.15h-.14v.14zm0 .28v-.15h-.14v.14zm0 .28v-.15h-.14v.14zm0 .28V10h-.14v.14zm0 .28v-.14h-.14v.14zm0 .27v-.14h-.14v.14zm0 .27v-.14h-.14V11zm0 .28v-.14h-.14v.14zm0 .28v-.14h-.14v.14zm0 .28v-.14h-.14v.14zm0 .28V12h-.14v.14zm0 .28v-.14h-.14v.14zm0 .27v-.13h-.14v.13zm0 .33v-.14h-.14V13zm0 .28v-.14h-.14v.14zm0 .28v-.14h-.14v.14zm0 .28v-.14h-.14v.14zM66.92 6.27v-.09h-.14v.09zm0 .28v-.14h-.14v.14zm0 .27v-.13h-.14v.13zm0 .28V7h-.14v.1zm0 .28v-.14h-.14v.14zm0 .28v-.14h-.14v.14zm0 .28V7.8h-.14v.14zm0 .28v-.14h-.14v.14zm0 .28v-.14h-.14v.14zm0 .27v-.13h-.14v.13zm0 .28v-.14h-.14v.14zm0 .28v-.14h-.14v.14zm0 .28v-.14h-.14v.14zm0 .28v-.14h-.14v.14zm0 .28V10h-.14v.14zm0 .28v-.14h-.14v.14zm0 .27v-.14h-.14v.14zm0 .28v-.14h-.14V11zm0 .28v-.14h-.14v.14zm0 .28v-.14h-.14v.14zm0 .28v-.14h-.14v.14zm0 .28V12h-.14v.14zm0 .28v-.14h-.14v.14zm0 .27v-.13h-.14v.13zm0 .28v-.14h-.14V13zm0 .28v-.14h-.14v.14zm0 .28v-.14h-.14v.14zm0 .28v-.14h-.14v.14zM67.88 8.77v-.13h-.14v.13zm0 .28v-.14h-.14v.14zm0 .28v-.14h-.14v.14zm0 .28v-.14h-.14v.14zm0 .28v-.14h-.14v.14zm0 .28V10h-.14v.14zm0 .28v-.14h-.14v.14zm0 .27v-.14h-.14v.14zm0 .28v-.14h-.14V11zm0 .28v-.14h-.14v.14zm0 .28v-.14h-.14v.14zm0 .28v-.14h-.14v.14zm0 .28V12h-.14v.14zm0 .28v-.14h-.14v.14zm0 .27v-.13h-.14v.13zm0 .28v-.14h-.14V13zm0 .28v-.14h-.14v.14zm0 .28v-.14h-.14v.14zm0 .28v-.14h-.14v.14zM68.84 10.45v-.14h-.14v.14zm0 .27v-.14h-.14v.14zm0 .28v-.14h-.14V11zm0 .28v-.14h-.14v.14zm0 .28v-.14h-.14v.14zm0 .28v-.14h-.14v.14zm0 .28V12h-.14v.14zm0 .28v-.14h-.14v.14zm0 .27v-.13h-.14v.13zm0 .28v-.14h-.14V13zm0 .28v-.14h-.14v.14zm0 .28v-.14h-.14v.14zm0 .28v-.14h-.14v.14zM69.8 10.17v-.12h-.14v.12zm0 .28v-.14h-.14v.14zm0 .27v-.14h-.14v.14zm0 .28v-.14h-.14V11zm0 .28v-.14h-.14v.14zm0 .28v-.14h-.14v.14zm0 .28v-.14h-.14v.14zm0 .28V12h-.14v.14zm0 .28v-.14h-.14v.14zm0 .27v-.13h-.14v.13zm0 .28v-.14h-.14V13zm0 .28v-.14h-.14v.14zm0 .28v-.14h-.14v.14zm0 .28v-.14h-.14v.14zM70.76 9.33h-.14zm0 .28v-.14h-.14v.14zm0 .28v-.14h-.14v.14zm0 .28V10h-.14v.14zm0 .28v-.14h-.14v.14zm0 .27v-.14h-.14v.14zm0 .28v-.14h-.14V11zm0 .28v-.14h-.14v.14zm0 .28v-.14h-.14v.14zm0 .28v-.14h-.14v.14zm0 .28V12h-.14v.14zm0 .28v-.14h-.14v.14zm0 .27v-.13h-.14v.13zm0 .28v-.14h-.14V13zm0 .28v-.14h-.14v.14zm0 .28v-.14h-.14v.14zm0 .28v-.14h-.14v.14zM71.72 8.22v-.14h-.13v.14zm0 .28v-.14h-.13v.14zm0 .27v-.13h-.13v.13zm0 .28v-.14h-.13v.14zm0 .28v-.14h-.13v.14zm0 .28v-.14h-.13v.14zm0 .28v-.14h-.13v.14zm0 .28V10h-.13v.14zm0 .28v-.14h-.13v.14zm0 .27v-.14h-.13v.14zm0 .28v-.14h-.13V11zm0 .28v-.14h-.13v.14zm0 .28v-.14h-.13v.14zm0 .28v-.14h-.13v.14zm0 .28V12h-.13v.14zm0 .28v-.14h-.13v.14zm0 .27v-.13h-.13v.13zm0 .28v-.14h-.13V13zm0 .28v-.14h-.13v.14zm0 .28v-.14h-.13v.14zm0 .28v-.14h-.13v.14zM72.69 6.82v-.13h-.14v.13zm0 .28V7h-.14v.1zm0 .28v-.14h-.14v.14zm0 .28v-.14h-.14v.14zm0 .28V7.8h-.14v.14zm0 .28v-.14h-.14v.14zm0 .28v-.14h-.14v.14zm0 .27v-.13h-.14v.13zm0 .28v-.14h-.14v.14zm0 .28v-.14h-.14v.14zm0 .28v-.14h-.14v.14zm0 .28v-.14h-.14v.14zm0 .28V10h-.14v.14zm0 .28v-.14h-.14v.14zm0 .27v-.14h-.14v.14zm0 .28v-.14h-.14V11zm0 .28v-.14h-.14v.14zm0 .28v-.14h-.14v.14zm0 .28v-.14h-.14v.14zm0 .28V12h-.14v.14zm0 .28v-.14h-.14v.14zm0 .27v-.13h-.14v.13zm0 .28v-.14h-.14V13zm0 .28v-.14h-.14v.14zm0 .28v-.14h-.14v.14zm0 .28v-.14h-.14v.14zM73.65 6v-.07h-.14V6zm0 .28v-.15h-.14v.14zm0 .28v-.15h-.14v.14zm0 .27v-.14h-.14v.13zm0 .28V7h-.14v.1zm0 .28v-.15h-.14v.14zm0 .28v-.15h-.14v.14zm0 .28V7.8h-.14v.14zm0 .28v-.15h-.14v.14zm0 .28v-.15h-.14v.14zm0 .27v-.14h-.14v.13zm0 .28v-.15h-.14v.14zm0 .28v-.15h-.14v.14zm0 .28v-.15h-.14v.14zm0 .28v-.15h-.14v.14zm0 .28V10h-.14v.14zm0 .28v-.14h-.14v.14zm0 .27v-.14h-.14v.14zm0 .28v-.14h-.14V11zm0 .28v-.14h-.14v.14zm0 .28v-.14h-.14v.14zm0 .28v-.15h-.14v.14zm0 .28V12h-.14v.14zm0 .28v-.14h-.14v.14zm0 .27v-.13h-.14v.13zm0 .28v-.14h-.14V13zm0 .28v-.14h-.14v.14zm0 .28v-.14h-.14v.14zm0 .28v-.14h-.14v.14zM74.61 6v-.15h-.14V6zm0 .28v-.15h-.14v.14zm0 .28v-.15h-.14v.14zm0 .27v-.14h-.14v.13zm0 .28V7h-.14v.1zm0 .28v-.15h-.14v.14zm0 .28v-.15h-.14v.14zm0 .28V7.8h-.14v.14zm0 .28v-.15h-.14v.14zm0 .28v-.15h-.14v.14zm0 .27v-.14h-.14v.13zm0 .28v-.15h-.14v.14zm0 .28v-.15h-.14v.14zm0 .28v-.15h-.14v.14zm0 .28v-.15h-.14v.14zm0 .28V10h-.14v.14zm0 .28v-.14h-.14v.14zm0 .27v-.14h-.14v.14zm0 .28v-.14h-.14V11zm0 .28v-.14h-.14v.14zm0 .28v-.14h-.14v.14zm0 .28v-.15h-.14v.14zm0 .28V12h-.14v.14zm0 .28v-.14h-.14v.14zm0 .27v-.13h-.14v.13zm0 .28v-.14h-.14V13zm0 .28v-.14h-.14v.14zm0 .28v-.14h-.14v.14zm0 .28v-.14h-.14v.14zM75.57 6.27V6.2h-.14v.07zm0 .28v-.14h-.14v.14zm0 .27v-.13h-.14v.13zm0 .28V7h-.14v.1zm0 .28v-.14h-.14v.14zm0 .28v-.14h-.14v.14zm0 .28V7.8h-.14v.14zm0 .28v-.14h-.14v.14zm0 .28v-.14h-.14v.14zm0 .27v-.13h-.14v.13zm0 .28v-.14h-.14v.14zm0 .28v-.14h-.14v.14zm0 .28v-.14h-.14v.14zm0 .28v-.14h-.14v.14zm0 .28V10h-.14v.14zm0 .28v-.14h-.14v.14zm0 .27v-.14h-.14v.14zm0 .28v-.14h-.14V11zm0 .28v-.14h-.14v.14zm0 .28v-.14h-.14v.14zm0 .28v-.14h-.14v.14zm0 .28V12h-.14v.14zm0 .28v-.14h-.14v.14zm0 .27v-.13h-.14v.13zm0 .28v-.14h-.14V13zm0 .28v-.14h-.14v.14zm0 .28v-.14h-.14v.14zm0 .28v-.14h-.14v.14zM76.53 7.94V7.8h-.14v.14zm0 .28v-.14h-.14v.14zm0 .28v-.14h-.14v.14zm0 .27v-.13h-.14v.13zm0 .28v-.14h-.14v.14zm0 .28v-.14h-.14v.14zm0 .28v-.14h-.14v.14zm0 .28v-.14h-.14v.14zm0 .28V10h-.14v.14zm0 .28v-.14h-.14v.14zm0 .27v-.14h-.14v.14zm0 .28v-.14h-.14V11zm0 .28v-.14h-.14v.14zm0 .28v-.14h-.14v.14zm0 .28v-.14h-.14v.14zm0 .28V12h-.14v.14zm0 .28v-.14h-.14v.14zm0 .27v-.13h-.14v.13zm0 .28v-.14h-.14V13zm0 .28v-.14h-.14v.14zm0 .28v-.14h-.14v.14zm0 .28v-.14h-.14v.14zM77.47 10.17v-.12h-.14v.12zm0 .28v-.14h-.14v.14zm0 .27v-.14h-.14v.14zm0 .28v-.14h-.14V11zm0 .28v-.14h-.14v.14zm0 .28v-.14h-.14v.14zm0 .28v-.14h-.14v.14zm0 .28V12h-.14v.14zm0 .28v-.14h-.14v.14zm0 .27v-.13h-.14v.13zm0 .28v-.14h-.14V13zm0 .28v-.14h-.14v.14zm0 .28v-.14h-.14v.14zm0 .28v-.14h-.14v.14zM78.43 12.12v-.07h-.14v.07zm0 .28v-.14h-.14v.14zm0 .27v-.13h-.14v.13zm0 .28v-.14h-.14V13zm0 .28v-.14h-.14v.14zm0 .28v-.14h-.14v.14zm0 .28v-.14h-.14v.14zM79.39 12.12v-.07h-.14v.07zm0 .28v-.14h-.14v.14zm0 .27v-.13h-.14v.13zm0 .28v-.14h-.14V13zm0 .28v-.14h-.14v.14zm0 .28v-.14h-.14v.14zm0 .28v-.14h-.14v.14zM80.36 11v-.12h-.14V11zm0 .28v-.14h-.14v.14zm0 .28v-.14h-.14v.14zm0 .28v-.14h-.14v.14zm0 .28V12h-.14v.14zm0 .28v-.14h-.14v.14zm0 .27v-.13h-.14v.13zm0 .28v-.14h-.14V13zm0 .28v-.14h-.14v.14zm0 .28v-.14h-.14v.14zm0 .28v-.14h-.14v.14zM81.32 10.72v-.14h-.14v.14zm0 .28v-.14h-.14V11zm0 .28v-.14h-.14v.14zm0 .28v-.14h-.14v.14zm0 .28v-.14h-.14v.14zm0 .28V12h-.14v.14zm0 .28v-.14h-.14v.14zm0 .27v-.13h-.14v.13zm0 .28v-.14h-.14V13zm0 .28v-.14h-.14v.14zm0 .28v-.14h-.14v.14zm0 .28v-.14h-.14v.14zM82.28 12.12V12h-.14v.14zm0 .28v-.14h-.14v.14zm0 .27v-.13h-.14v.13zm0 .28v-.14h-.14V13zm0 .28v-.14h-.14v.14zm0 .28v-.14h-.14v.14zm0 .28v-.14h-.14v.14z"/><path class="cls-2" d="M6.27 15.08h.29v1.86h-.29zM7.23 15.08h.29v4.01h-.29zM8.19 15.08h.29v4.3h-.29zM9.13 15.08h.29v2.17h-.29zM10.09 15.08h.29v1.8h-.29zM11.05 15.08h.29v3.28h-.29zM12.02 15.08h.29v6.48h-.29zM12.98 15.08h.29v9.68h-.29zM13.94 15.08h.29v11.08h-.29zM14.9 15.08h.29v10.68h-.29zM15.86 15.08h.29v9.47h-.29zM16.82 15.08h.29v7.8h-.29zM17.78 15.08h.29v6.04h-.29zM18.75 15.08h.29v4.49h-.29zM19.71 15.08H20v3.34h-.29zM20.65 15.08h.29v3.01h-.29zM21.61 15.08h.29v3.64h-.29zM22.57 15.08h.29v4.91h-.29zM23.53 15.08h.29v6.58h-.29zM24.49 15.08h.29v8.53h-.29zM25.45 15.08h.29v10.39h-.29zM26.41 15.08h.29v9.03h-.29zM27.38 15.08h.29v6.67h-.29zM28.34 15.08h.29v4.49h-.29zM29.3 15.08h.29v2.95h-.29zM30.26 15.08h.29v3.03h-.29zM31.22 15.08h.29v4.6h-.29zM32.16 15.08h.29v6.73h-.29zM33.12 15.08h.29v8.4h-.29zM34.08 15.08h.29v8.94h-.29zM35.04 15.08h.29v8.84h-.29zM36.01 15.08h.29v8.57h-.29zM36.97 15.08h.29v8.17h-.29zM37.93 15.08h.29v7.71h-.29zM38.89 15.08h.29v7.21h-.29zM39.85 15.08h.29v6.73h-.29zM40.81 15.08h.29v6.31h-.29zM41.77 15.08h.29v5.98h-.29zM42.71 15.08H43v5.81h-.29zM43.68 15.08h.29v5.85h-.29zM44.64 15.08h.29v6.04h-.29zM45.6 15.08h.29v6.35h-.29zM46.56 15.08h.29v6.83h-.29zM47.52 15.08h.29v7.5h-.29zM48.48 15.08h.29v8.42h-.29zM49.44 15.08h.29v9.7h-.29zM50.4 15.08h.29v11.43h-.29zM51.37 15.08h.29v13.88h-.29zM52.33 15.08h.29v13.83h-.29zM53.29 15.08h.29v11.1h-.29zM54.23 15.08h.29v8.55h-.29zM55.19 15.08h.29v6.44h-.29zM56.15 15.08h.29v4.85h-.29zM57.11 15.08h.29v3.89h-.29zM58.07 15.08h.29v3.57h-.29zM59.04 15.08h.29v4.14h-.29zM60 15.08h.29v5.48H60zM60.96 15.08h.29v7.13h-.29zM61.92 15.08h.29v8.86h-.29zM62.88 15.08h.29v10.34h-.29zM63.84 15.08h.29v11.1h-.29zM64.8 15.08h.29V25.8h-.29zM65.74 15.08h.29v9.57h-.29zM66.7 15.08h.29v7.61h-.29zM67.66 15.08h.29v5.18h-.29zM68.63 15.08h.29v3.62h-.29zM69.59 15.08h.29v3.74h-.29zM70.55 15.08h.29v4.49h-.29zM71.51 15.08h.29v5.81h-.29zM72.47 15.08h.29v7.11h-.29zM73.43 15.08h.29v7.86h-.29zM74.39 15.08h.29v8.07h-.29zM75.35 15.08h.29v7.59h-.29zM76.32 15.08h.29v6.04h-.29zM77.26 15.08h.29v3.74h-.29zM78.22 15.08h.29v1.73h-.29zM79.18 15.08h.29v1.73h-.29zM80.14 15.08h.29v2.91h-.29zM81.1 15.08h.29v3.24h-.29zM82.06 15.08h.29V17h-.29z"/><path class="cls-2" d="M0 14.98h88.6v.21H0z"/></g></g></svg>