<svg xmlns="http://www.w3.org/2000/svg" viewBox="0 0 110.6 110.6"><defs><style>.cls-2{fill:#00b4eb}</style></defs><g id="图层_2" data-name="图层 2"><g id="Layer_2" data-name="Layer 2"><circle cx="55.3" cy="55.3" r="52.8" transform="rotate(-45 55.298 55.305)" fill="none" stroke="#00b4eb" stroke-miterlimit="10" stroke-width="5" stroke-dasharray="37.9 9.48"/><path class="cls-2" d="M103.16 53.47H83.89a26.39 26.39 0 00-18-25l2.41-7.15a33.94 33.94 0 0123 30.09zM103.16 57.13H83.89a26.39 26.39 0 01-18 25l2.41 7.15a33.93 33.93 0 0023-30.09zM7.44 53.47h19.28a26.38 26.38 0 0118-25l-2.42-7.15a33.94 33.94 0 00-23 30.09zM7.44 57.13h19.28a26.38 26.38 0 0018 25l-2.42 7.15a33.93 33.93 0 01-23-30.09zM38.19 39.94h.49v4.37h-.49zM55.38 39.94h.49v4.37h-.49zM39.67 41.9h.98v2.41h-.98zM41.63 41.9h.98v2.41h-.98zM43.59 41.9h.98v2.41h-.98zM45.56 41.9h.98v2.41h-.98zM47.52 41.9h.98v2.41h-.98zM49.49 41.9h.98v2.41h-.98zM51.45 41.9h.98v2.41h-.98zM53.41 41.9h.98v2.41h-.98z"/><path class="cls-2" d="M55.87 39.94h.49v4.37h-.49zM73.05 39.94h.49v4.37h-.49zM57.34 41.9h.98v2.41h-.98zM59.3 41.9h.98v2.41h-.98zM61.27 41.9h.98v2.41h-.98zM63.23 41.9h.98v2.41h-.98zM65.2 41.9h.98v2.41h-.98zM67.16 41.9h.98v2.41h-.98zM69.12 41.9h.98v2.41h-.98zM71.09 41.9h.98v2.41h-.98zM73.05 64.53h.49v4.37h-.49zM55.87 64.53h.49v4.37h-.49zM71.09 64.53h.98v2.41h-.98zM69.12 64.53h.98v2.41h-.98zM67.16 64.53h.98v2.41h-.98zM65.2 64.53h.98v2.41h-.98zM63.23 64.53h.98v2.41h-.98zM61.27 64.53h.98v2.41h-.98zM59.31 64.53h.98v2.41h-.98zM57.34 64.53h.98v2.41h-.98z"/><path class="cls-2" d="M55.38 64.53h.49v4.37h-.49zM38.19 64.53h.49v4.37h-.49zM53.41 64.53h.98v2.41h-.98zM51.45 64.53h.98v2.41h-.98zM49.49 64.53h.98v2.41h-.98zM47.52 64.53h.98v2.41h-.98zM45.56 64.53h.98v2.41h-.98zM43.59 64.53h.98v2.41h-.98zM41.63 64.53h.98v2.41h-.98zM39.67 64.53h.98v2.41h-.98z"/></g></g></svg>