<svg xmlns="http://www.w3.org/2000/svg" viewBox="0 0 50 50"><defs><style>.cls-1{fill:#fff}</style></defs><g id="图层_2" data-name="图层 2"><g id="Elements"><path class="cls-1" d="M29.77.46l-.47.65A23.61 23.61 0 0125 47.93a21.44 21.44 0 01-3.33-42.61L25 .71l.51-.7H25a25 25 0 104.77.46z"/><path class="cls-1" d="M27.6 45.72c-.69.06-1.39.1-2.09.1a20.74 20.74 0 002.09-.1zM5.85 26.48a19.33 19.33 0 009.64 16.72V43a18.27 18.27 0 012.18-32.17l2.12-2.93A19.33 19.33 0 005.85 26.48zM27.82 3.24l-1.57 2.18a20.2 20.2 0 017.89 38.31v.1a21.34 21.34 0 00-6.32-40.59z"/></g></g></svg>