<svg xmlns="http://www.w3.org/2000/svg" viewBox="0 0 474.71 469.29"><defs><style>.cls-2{fill:#5fffe8}</style></defs><g id="图层_2" data-name="图层 2"><g opacity=".8" id="央铋_1" data-name="央铋 1"><path class="cls-2" d="M460.54 292.2a271.71 271.71 0 004.66-51.09C465.2 87.17 348.38 11.13 233 13q-6.57-6.66-13.9-13a266.59 266.59 0 00-47.47 7.46 217.8 217.8 0 00-17.07 19.28 225.49 225.49 0 00-56.3 28.88 209 209 0 00-22.72-.35C38.61 86.15 10.93 129.74 0 186c3.29 7.54 6.89 14.86 10.74 22a282.65 282.65 0 00-1.9 33.11c0 34.4 5.84 64.92 16.19 91.55a241.86 241.86 0 00-2.24 29.09 216.23 216.23 0 0045.62 59 206.73 206.73 0 0027.05 3.86c69 50.61 166.54 58.21 244.11 22.8a242.82 242.82 0 0028.8 11.23c47.91-26.91 86.93-70 106.34-129.43a278.44 278.44 0 00-14.17-37.01zM24.05 241.11c0-284 425.94-284 425.94 0s-425.94 283.95-425.94 0z"/><path class="cls-2" d="M237.36 434.56c-107.91 0-195.7-87.79-195.7-195.69s87.79-195.69 195.7-195.69S433.05 131 433.05 238.87s-87.79 195.69-195.69 195.69zm0-388C131.32 46.56 45 132.83 45 238.87s86.28 192.31 192.32 192.31 192.31-86.27 192.31-192.31S343.39 46.56 237.36 46.56z"/><path class="cls-2" d="M386.19 123.15l-32.8-32.79-2.56 35.36 35.36-2.57zM88.52 355.23l32.79 32.79 2.58-35.36-35.37 2.57z"/></g></g></svg>