<svg xmlns="http://www.w3.org/2000/svg" viewBox="0 0 259.21 30.5"><defs><style>.cls-1{fill:#61b8ff}.cls-2{fill:#008cff}.cls-3{fill:#5ec4ff}</style></defs><g id="图层_2" data-name="图层 2"><g id="Layer_10" data-name="Layer 10"><path class="cls-1" d="M255.65 14.97h-7.48l-7.8-7.8V3h6.07l9.21 9.21v2.76zM233.46 18.61V24h-14.62l-4.01-4h14.63v-5.39l4 4zM36.55 8.27H17.46l-4.29 4.3h19.08l4.3-4.3z"/><path class="cls-1" d="M222.22 22.09h-10.78l-.07-.07-8.09-8.1H0v-.49h203.48l.07.07 8.09 8.1h10.58v.49z"/><path class="cls-1" d="M250.84 30.5h-20.05l.18-10.67 1.09.02-.16 9.55h17.84V1.09H236.8l-9.87 9.88H0V9.88h226.47L236.35 0h14.49v30.5z"/><path class="cls-1" d="M259.21 22.12h-8.41v-8.81h1.1v7.71h6.22V10.57l-6.18-6.18h-5.97V3.3h6.43l6.81 6.82v12zM157.99 9.26h-3.87l-1.94 3.35h-3.87l-1.93 3.35 1.93 3.34h3.87l1.94-3.34h3.87l1.93-3.35-1.93-3.35z"/><path class="cls-2" d="M163.79 5.91h-3.87l-1.93 3.35 1.93 3.35h3.87l1.93-3.35-1.93-3.35z"/><path class="cls-3" d="M157.99 9.26h-3.87l-1.94 3.35 1.94 3.35h3.87l1.93-3.35-1.93-3.35z"/><path class="cls-3" d="M152.18 5.91h-3.87l-1.93 3.35h-3.87l-1.93 3.35 1.93 3.35h3.87l1.93-3.35h3.87l1.94-3.35-1.94-3.35z"/><path class="cls-3" d="M140.58 5.91h-3.86l-1.94 3.35 1.94 3.35h3.86l1.93-3.35-1.93-3.35zM152.18 5.91h-3.87l-1.93 3.35 1.93 3.35h3.87l1.94-3.35-1.94-3.35z"/><path class="cls-1" d="M163.79 5.91h-3.87l-1.93 3.35 1.93 3.35h3.87l1.93-3.35-1.93-3.35z"/><path class="cls-3" d="M181.19 15.96h-3.87l-1.93 3.34 1.93 3.35h3.87l1.94-3.35-1.94-3.34z"/><path class="cls-2" d="M192.79 15.96h-3.86l-1.94 3.34 1.94 3.35h3.86l1.94-3.35-1.94-3.34zM175.39 5.91h-3.87l-1.93 3.35h-3.87l-1.93 3.35 1.93 3.35h3.87l1.93-3.35h3.87l1.93-3.35-1.93-3.35z"/><path class="cls-3" d="M175.39 5.91h-3.87l-1.93 3.35 1.93 3.35h3.87l1.93-3.35-1.93-3.35z"/></g></g></svg>