<svg xmlns="http://www.w3.org/2000/svg" viewBox="0 0 20.91 15.83"><defs><style>.cls-1{fill:#ff7000}.cls-2{fill:#00b8de}.cls-3{fill:#00517d}</style></defs><g id="图层_2" data-name="图层 2"><g id="Layer_1" data-name="Layer 1"><path class="cls-1" d="M5.24 14.45l.92.46-1.29.66H1.84l-1.29-.66.92-.46-.1-.23-1.37.69 1.79.92h3.13l1.79-.92-1.37-.69-.1.23z"/><path class="cls-2" d="M5.24 13.28l.92.47-1.29.66H1.84l-1.29-.66.92-.47-.1-.23-1.37.7 1.79.91h3.13l1.79-.91-1.37-.7-.1.23z"/><path class="cls-2" d="M5.24 12.11l.92.47-1.29.66H1.84l-1.29-.66.92-.47-.1-.23-1.37.7 1.79.91h3.13l1.79-.91-1.37-.7-.1.23z"/><path class="cls-2" d="M5.24 10.95l.92.46-1.29.66H1.84l-1.29-.66.92-.46-.1-.23-1.37.69 1.79.92h3.13l1.79-.92-1.37-.69-.1.23z"/><path class="cls-2" d="M5.24 9.78l.92.47-1.29.66H1.84l-1.29-.66.92-.47-.1-.23-1.37.7 1.79.91h3.13l1.79-.91-1.37-.7-.1.23z"/><path class="cls-3" d="M5.24 8.61l.92.47-1.29.66H1.84L.55 9.08l.92-.47-.1-.23-1.37.7 1.79.91h3.13l1.79-.91-1.37-.7-.1.23z"/><path class="cls-3" d="M5.24 7.45l.92.47-1.29.65H1.84L.55 7.92l.92-.47-.1-.23-1.37.7 1.79.91h3.13l1.79-.91-1.37-.7-.1.23z"/><path class="cls-3" d="M5.24 6.28l.92.47-1.29.66H1.84L.55 6.75l.92-.47-.1-.23-1.37.7 1.79.91h3.13l1.79-.91-1.37-.7-.1.23z"/><path class="cls-3" d="M5.24 5.11l.92.47-1.29.66H1.84L.55 5.58l.92-.47-.1-.23-1.37.7 1.79.91h3.13l1.79-.91-1.37-.7-.1.23z"/><path class="cls-3" d="M5.24 3.95l.92.47-1.29.65H1.84L.55 4.42l.92-.47-.1-.23-1.37.7 1.79.91h3.13l1.79-.91-1.37-.7-.1.23z"/><path class="cls-3" d="M5.24 2.78l.92.47-1.29.66H1.84L.55 3.25l.92-.47-.1-.23-1.37.7 1.79.91h3.13l1.79-.91-1.37-.7-.1.23z"/><path class="cls-3" d="M5.24 1.61l.92.47-1.29.66H1.84L.55 2.08l.92-.47-.1-.23-1.37.7 1.79.91h3.13l1.79-.91-1.37-.7-.1.23z"/><path class="cls-3" d="M1.81 1.7l.05-.12L.55.91 1.84.25h3.03l1.29.66-1.29.66H1.81v.13l.05-.12-.05.12v.12h3.11L6.71.91 4.92 0H1.79L0 .91l1.79.91h.02V1.7z"/><path class="cls-1" d="M12.34 14.45l.92.46-1.29.66H8.94l-1.29-.66.92-.46-.1-.23-1.37.69 1.79.92h3.13l1.79-.92-1.37-.69-.1.23z"/><path class="cls-2" d="M12.34 13.28l.92.47-1.29.66H8.94l-1.29-.66.92-.47-.1-.23-1.37.7 1.79.91h3.13l1.79-.91-1.37-.7-.1.23z"/><path class="cls-2" d="M12.34 12.11l.92.47-1.29.66H8.94l-1.29-.66.92-.47-.1-.23-1.37.7 1.79.91h3.13l1.79-.91-1.37-.7-.1.23z"/><path class="cls-2" d="M12.34 10.95l.92.46-1.29.66H8.94l-1.29-.66.92-.46-.1-.23-1.37.69 1.79.92h3.13l1.79-.92-1.37-.69-.1.23z"/><path class="cls-2" d="M12.34 9.78l.92.47-1.29.66H8.94l-1.29-.66.92-.47-.1-.23-1.37.7 1.79.91h3.13l1.79-.91-1.37-.7-.1.23z"/><path class="cls-2" d="M12.34 8.61l.92.47-1.29.66H8.94l-1.29-.66.92-.47-.1-.23-1.37.7 1.79.91h3.13l1.79-.91-1.37-.7-.1.23z"/><path class="cls-2" d="M12.34 7.45l.92.47-1.29.65H8.94l-1.29-.65.92-.47-.1-.23-1.37.7 1.79.91h3.13l1.79-.91-1.37-.7-.1.23z"/><path class="cls-2" d="M12.34 6.28l.92.47-1.29.66H8.94l-1.29-.66.92-.47-.1-.23-1.37.7 1.79.91h3.13l1.79-.91-1.37-.7-.1.23z"/><path class="cls-2" d="M12.34 5.11l.92.47-1.29.66H8.94l-1.29-.66.92-.47-.1-.23-1.37.7 1.79.91h3.13l1.79-.91-1.37-.7-.1.23z"/><path class="cls-2" d="M12.34 3.95l.92.47-1.29.65H8.94l-1.29-.65.92-.47-.1-.23-1.37.7 1.79.91h3.13l1.79-.91-1.37-.7-.1.23z"/><path class="cls-3" d="M12.34 2.78l.92.47-1.29.66H8.94l-1.29-.66.92-.47-.1-.23-1.37.7 1.79.91h3.13l1.79-.91-1.37-.7-.1.23z"/><path class="cls-3" d="M12.34 1.61l.92.47-1.29.66H8.94l-1.29-.66.92-.47-.1-.23-1.37.7 1.79.91h3.13l1.79-.91-1.37-.7-.1.23z"/><path class="cls-3" d="M8.91 1.7l.05-.12L7.65.91 8.94.25h3.03l1.29.66-1.29.66H8.91v.13l.05-.12-.05.12v.12h3.11l1.79-.91L12.02 0H8.89L7.1.91l1.79.91h.02V1.7z"/><path class="cls-1" d="M19.45 14.45l.91.46-1.29.66h-3.03l-1.29-.66.92-.46-.1-.23-1.37.69 1.79.92h3.13l1.79-.92-1.37-.69-.09.23z"/><path class="cls-2" d="M19.45 13.28l.91.47-1.29.66h-3.03l-1.29-.66.92-.47-.1-.23-1.37.7 1.79.91h3.13l1.79-.91-1.37-.7-.09.23z"/><path class="cls-2" d="M19.45 12.11l.91.47-1.29.66h-3.03l-1.29-.66.92-.47-.1-.23-1.37.7 1.79.91h3.13l1.79-.91-1.37-.7-.09.23z"/><path class="cls-2" d="M19.45 10.95l.91.46-1.29.66h-3.03l-1.29-.66.92-.46-.1-.23-1.37.69 1.79.92h3.13l1.79-.92-1.37-.69-.09.23z"/><path class="cls-2" d="M19.45 9.78l.91.47-1.29.66h-3.03l-1.29-.66.92-.47-.1-.23-1.37.7 1.79.91h3.13l1.79-.91-1.37-.7-.09.23z"/><path class="cls-2" d="M19.45 8.61l.91.47-1.29.66h-3.03l-1.29-.66.92-.47-.1-.23-1.37.7 1.79.91h3.13l1.79-.91-1.37-.7-.09.23z"/><path class="cls-2" d="M19.45 7.45l.91.47-1.29.65h-3.03l-1.29-.65.92-.47-.1-.23-1.37.7 1.79.91h3.13l1.79-.91-1.37-.7-.09.23z"/><path class="cls-2" d="M19.45 6.28l.91.47-1.29.66h-3.03l-1.29-.66.92-.47-.1-.23-1.37.7 1.79.91h3.13l1.79-.91-1.37-.7-.09.23z"/><path class="cls-3" d="M19.45 5.11l.91.47-1.29.66h-3.03l-1.29-.66.92-.47-.1-.23-1.37.7 1.79.91h3.13l1.79-.91-1.37-.7-.09.23z"/><path class="cls-3" d="M19.45 3.95l.91.47-1.29.65h-3.03l-1.29-.65.92-.47-.1-.23-1.37.7 1.79.91h3.13l1.79-.91-1.37-.7-.09.23z"/><path class="cls-3" d="M19.45 2.78l.91.47-1.29.66h-3.03l-1.29-.66.92-.47-.1-.23-1.37.7 1.79.91h3.13l1.79-.91-1.37-.7-.09.23z"/><path class="cls-3" d="M19.45 1.61l.91.47-1.29.66h-3.03l-1.29-.66.92-.47-.1-.23-1.37.7 1.79.91h3.13l1.79-.91-1.37-.7-.09.23z"/><path class="cls-3" d="M16.02 1.7l.05-.12-1.32-.67 1.29-.66h3.03l1.29.66-1.29.66h-3.05v.13l.05-.12-.05.12v.12h3.1l1.79-.91L19.12 0h-3.13L14.2.91l1.79.91h.03V1.7z"/></g></g></svg>