<svg xmlns="http://www.w3.org/2000/svg" viewBox="0 0 39.17 39.14"><defs><style>.cls-1,.cls-2{fill:#00b8de}.cls-2,.cls-3{fill-rule:evenodd}.cls-3{fill:#ff7000}</style></defs><g id="图层_2" data-name="图层 2"><g id="Layer_1" data-name="Layer 1"><path class="cls-1" d="M29 3.7l.25-.45.07-.11c.38.25.77.49 1.11.73s.74.53 1.09.81A18.8 18.8 0 0136 9.85l-.53.31a19 19 0 00-4.33-5c-.35-.28-.7-.53-1-.77A10.13 10.13 0 0029 3.7zm9.67 16.1v.07c0 .45 0 .9-.07 1.32s-.1.91-.17 1.36a19.23 19.23 0 01-2.2 6.36l-.56-.32a18.52 18.52 0 002.13-6.14c.07-.42.14-.87.18-1.29s.07-.87.07-1.33zm-9.73 16.41c-.39.2-.77.41-1.15.59a9.23 9.23 0 01-1.23.52 18.85 18.85 0 01-6.73 1.33V38a19 19 0 006.52-1.26l1.16-.52c.38-.17.73-.35 1.11-.56l.31.56zm-18.78-.77l-.24.45-.07.11a10.56 10.56 0 01-1.12-.7c-.39-.28-.73-.52-1.08-.8a19.93 19.93 0 01-4.51-5.17L3.7 29A18.5 18.5 0 008 34c.35.24.7.53 1.05.77s.7.49 1.08.7zM.49 19.38v-.07c0-.46 0-.91.07-1.36s.1-.91.17-1.37a18.86 18.86 0 012.2-6.35l.56.31a17.75 17.75 0 00-2.16 6.15c-.07.42-.11.84-.14 1.29s-.07.91-.07 1.33v.07zm9.74-16.45l1.16-.6 1.22-.52A19.51 19.51 0 0119.38.49v.63a18.32 18.32 0 00-6.53 1.25c-.39.18-.77.32-1.15.53a9.75 9.75 0 00-1.12.56z"/><path class="cls-2" d="M19.8 0a19.53 19.53 0 019.39 2.51L27 6.35a15 15 0 00-7.2-1.92zM2.51 29.15A19.46 19.46 0 010 19.8h4.43a15 15 0 001.92 7.12z"/><path class="cls-3" d="M19.38 39.14A19.34 19.34 0 0110 36.62l2.21-3.84a15 15 0 007.19 1.92z"/><path class="cls-2" d="M36.45 29.54a19.6 19.6 0 01-6.88 6.87l-2.23-3.83a15.31 15.31 0 005.27-5.28z"/><path class="cls-3" d="M36.66 10a19.27 19.27 0 012.51 9.39h-4.43a15.18 15.18 0 00-1.92-7.2zM2.72 9.6A19.71 19.71 0 019.6 2.72l2.24 3.84a15.34 15.34 0 00-5.28 5.28z"/><path d="M3 19.38a16.68 16.68 0 012.1-7.89l.56.28a15.55 15.55 0 00-2.06 7.61zM11.49 5.1A16.68 16.68 0 0119.38 3v.6a15.55 15.55 0 00-7.61 2.06l-.28-.56zm16.58.21a16 16 0 013.25 2.55 18 18 0 012.55 3.24l-.56.32a15.23 15.23 0 00-2.45-3.15 15 15 0 00-3.1-2.4l.31-.56zm8.1 14.49a16.65 16.65 0 01-2.09 7.85l-.56-.31a15.83 15.83 0 002-7.54zM27.69 34a16.81 16.81 0 01-7.89 2.1v-.63a15.84 15.84 0 007.57-2l.32.56zm-16.59-.17a17.43 17.43 0 01-3.24-2.55A16.18 16.18 0 015.31 28l.56-.32a15.34 15.34 0 002.4 3.11 15.19 15.19 0 003.15 2.44l-.32.56z" fill="#ff7000"/><path class="cls-1" d="M4.89 19.59a14.78 14.78 0 0114.7-14.7 14.72 14.72 0 0114.66 14.7 14.65 14.65 0 01-14.66 14.62 14.72 14.72 0 01-14.7-14.62zm.49 0a14.17 14.17 0 0014.21 14.17A14.19 14.19 0 0033.8 19.59 14.19 14.19 0 0019.59 5.38 14.17 14.17 0 005.38 19.59z"/></g></g></svg>