<svg xmlns="http://www.w3.org/2000/svg" viewBox="0 0 398.87 240.33"><defs><style>.cls-1,.cls-5{fill:none;stroke:#00b4eb;stroke-miterlimit:10}.cls-2{fill:#00b4eb}.cls-5{stroke-width:1.21px}</style></defs><g id="图层_2" data-name="图层 2"><g id="Layer_2" data-name="Layer 2"><circle class="cls-1" cx="236.17" cy="123.67" r="46.5"/><path class="cls-2" d="M236.17 72.17A51.31 51.31 0 00201 86.08l3.42 3.65.21-.19h.1l.1-.09h.48l.11-.09h.14l.18-.15h.05a46.42 46.42 0 0122.68-10.6l.41-.06h7.2v-5zm-51.39 48.13a54.18 54.18 0 00-.11 3.37 51.59 51.59 0 0011.69 32.67l3.86-3.17c-.49-.6-1-1.2-1.41-1.81l-.15-.19-.07-.1-.05-.07-.05-.07-.05-.07V150.44l-.06-.11-.06-.11a46.17 46.17 0 01-5.24-16.12V127.2c0-.69 0-1.37.07-2v-.19l-5-.32zm78.47 41.18a46.17 46.17 0 01-17.51 7.71h-12.97c-.9-.06-1.8-.16-2.68-.27l-.65 5a52.09 52.09 0 006.73.43 51.2 51.2 0 0030-9.62l-2.91-4.07zm16.67-65l-4.24 2.65a46.07 46.07 0 016.49 17.7V117.93a1.62 1.62 0 010 .22v.47c-.09 1.55-.26 3.08-.5 4.59V131l-.06.36v.05c0 .17-.06.34-.1.52l4.91 1a52.09 52.09 0 001-10.07 51.41 51.41 0 00-7.75-27.18zm-43.75-24.31v5H241c1 .11 2.05.25 3.06.43H246.01c.74.15 1.47.33 2.19.52l1.29-4.83a51.67 51.67 0 00-13.36-1.75z"/><circle cx="236.17" cy="123.67" r="75.15" stroke-width="3" fill="none" stroke="#00b4eb" stroke-miterlimit="10"/><path class="cls-2" d="M236.17 43.52a79.38 79.38 0 00-36 8.52l2.25 4.47A74.65 74.65 0 01221 50.05l.37-.07h.2l.38-.07H236.17v-5zm-64.32 32.32a80.82 80.82 0 00-5.78 9l4.37 2.42q1.65-3 3.56-5.77v-.06l.06-.09v-.07c.41-.6.84-1.18 1.27-1.77l-4-3zm-15.77 44.57c0 1.08-.06 2.18-.06 3.26a79.49 79.49 0 007.11 33.05l4.55-2.06c-.23-.52-.46-1-.68-1.56l-.12-.28v-.27l-.06-.16-.1-.27-.12-.32a74.5 74.5 0 01-4.07-17.21c0-.3-.07-.61-.1-.91V133v-.27-5.06-1.83l-5-.2zm32.82 61.69l-3.15 3.9a80.88 80.88 0 008.71 6.14l2.61-4.27q-2.79-1.7-5.41-3.63l-.09-.06h-.26l-.06-.05c-.6-.46-1.19-.92-1.78-1.4zm75.44 11.27a74.8 74.8 0 01-23.28 5.3H234.84c-1.6 0-3.19-.1-4.77-.23l-.4 5c2.15.18 4.35.27 6.52.27a79.63 79.63 0 0030.03-5.71l-1.88-4.63zm34.37-28a74.45 74.45 0 01-6.09 7.93l3.76 3.3a81.64 81.64 0 006.49-8.45l-4.16-2.78zm13-68.68L307 98.37c.55 1.55 1.06 3.13 1.51 4.73V104.51q.87 3.72 1.38 7.56l.12 1V113.77c0 .16 0 .32.05.48V128.42c-.09 1.45-.22 2.89-.4 4.31l5 .61a81.64 81.64 0 00.59-9.78 80 80 0 00-4.66-27zm-28.39-37.85l-2.95 4H281.09l.07.05.16.12h.06l.09.07.09.07q2.8 2.2 5.38 4.67l3.46-3.62a83.37 83.37 0 00-8.18-6.83zm-47.15-15.32v5h3.1a75.75 75.75 0 019.11.93l.8-4.94a80.68 80.68 0 00-13-1z"/><path d="M134.33 123.67A101.85 101.85 0 11330 163.32" stroke-width="18" stroke-dasharray="10 1" fill="none" stroke="#00b4eb" stroke-miterlimit="10"/><path class="cls-2" d="M230.69 48.52l5.48 16.21 5.49-16.21zm4 5.36v-3h3v3zM161 129.16l16.21-5.49-16.21-5.48zm5.35-4h-3v-3h3zM241.66 198.83l-5.49-16.21-5.48 16.21zm-4-5.36v3h-3v-3zM311.33 118.19l-16.21 5.48 16.21 5.49zm-5.36 4h3v3h-3z"/><path class="cls-1" d="M113.06 123.72v-.11a123.11 123.11 0 11236.3 48.51l-11.25-4.82a110.89 110.89 0 10-212.81-43.69v.1z"/><path class="cls-2" d="M280.8 8.84a123.15 123.15 0 0178.48 114.77v.11H347v-.1a110.91 110.91 0 00-70.63-103.37z"/><path class="cls-5" d="M0 239.73h153.37l36.93-51M398.88 239.73h-50.63l-49.2-67.61"/><path class="cls-1" d="M321.53 160.19l45.96 19.7"/></g></g></svg>