<svg xmlns="http://www.w3.org/2000/svg" viewBox="0 0 27.78 28.05"><g data-name="图层 2"><path d="M27.78 9.82c0-1.61-1.58-3.24-4.36-4.34a4.29 4.29 0 00-.42-.16V5c0-1.61-1.58-3.24-4.36-4.34S7.94 0 5 .81.49 3.27.07 5.64A3.59 3.59 0 001.38 9.2v9.78c0 1.92 0 2.59 1.12 3.4a6.15 6.15 0 002.93.84l.78-.08v.67c0 1.93 0 2.59 1.11 3.4a6.17 6.17 0 002.94.84S23 26.86 24.77 26.58s1.64-2.35 1.64-2.35V13.42c1.24-.61 1.37-2 1.37-3.6zM6.16 22.22C3.74 22.48 4.21 21 4.21 21V9.2c-1 0-1.38-1.31-1.38-1.66s-.17-3.11 2-4.41 7.34-1.5 11.17-1.5 5.89 1.56 6 3.48a38.11 38.11 0 00-12.23.53c-3 .78-4.45 2.46-4.87 4.82A3.62 3.62 0 006.21 14v8.19zm19.31-9.39s.07 9.91.07 11.36a1.4 1.4 0 01-1.43 1.44L11 27.05c-2.43.26-2-1.26-2-1.26V14c-1 0-1.38-1.31-1.38-1.66S7.48 9.26 9.69 8 17 6.46 20.82 6.46h1c.3 0 .69.08 1 .13 2.55.48 4 1.86 4 3.47.01 2.42-1.35 2.77-1.35 2.77z" fill="#375d81" data-name="Layer 1"/></g></svg>