<svg xmlns="http://www.w3.org/2000/svg" viewBox="0 0 38.19 38.18"><defs><style>.cls-1{fill:#feb113}.cls-2{fill:#08ade5}.cls-3{fill:#065977}</style></defs><g id="图层_2" data-name="图层 2"><g id="Layer_1" data-name="Layer 1"><path class="cls-1" d="M23.79.58c.24.05.47.13.7.19s.61.2.92.3c.53.18 1.05.39 1.56.62-.27.6-.54 1.2-.82 1.8l-.33.73s-.15 0-.18-.07l-.52-.21c-.39-.16-.78-.3-1.19-.43l-.48-.14-.34-.09.48-1.91c.07-.26.14-.53.2-.79zM27.88 2.14a16.37 16.37 0 011.93 1.15c.3.2.6.42.89.64 0 0-.08.13-.09.14L29.2 5.9c-.06.08-.12.17-.19.25a15.25 15.25 0 00-2.42-1.54c.31-.58.61-1.16.91-1.75l.38-.72zM31.5 4.58C32 5 32.54 5.53 33 6c.26.28.51.57.75.85 0 0 .09.06 0 .1l-.09.07L32 8.52l-.27.22q-.35-.42-.72-.81c-.28-.3-.57-.58-.87-.87l-.38-.32s-.05 0 0-.06l.18-.22 1.5-1.75.12-.13z"/><path class="cls-2" d="M6 23.21l1-.3.18-.05a2.83 2.83 0 00.11.31 12.14 12.14 0 00.48 1.18 11 11 0 00.78 1.43c.26.4.54.78.83 1.16a13 13 0 001.25 1.32c.07.08.83.73.84.72-.25.32-.49.64-.74.95a15.2 15.2 0 01-2.2-2.12 14.1 14.1 0 01-1.65-2.53A13 13 0 016 23.21z"/><path class="cls-1" d="M34.47 7.77l.37.52c.2.28.38.58.57.87.28.49.55 1 .81 1.48l-1.77.87-.72.36v-.07l-.24-.47c-.2-.37-.42-.73-.64-1.08s-.38-.55-.57-.82c0 0 .11-.09.13-.1l.88-.65 1.23-.91zM36.64 11.56a19.85 19.85 0 011 3.19l-1.92.45-.79.18c0-.11 0-.22-.08-.33s-.1-.41-.16-.61c-.12-.4-.26-.81-.41-1.2l-.24-.59h.05l.32-.14 1.18-.51 1-.45z"/><path class="cls-2" d="M21.7 38a19.73 19.73 0 002.52-.51c.42-.12.83-.26 1.24-.4s.75-.27 1.11-.43.64-.28 1-.44.76-.39 1.13-.61a19.06 19.06 0 002.14-1.44 18.73 18.73 0 001.94-1.73 21.55 21.55 0 001.65-1.93 19.06 19.06 0 002.4-4.24A18.42 18.42 0 0038 21.65c.05-.42.1-.83.13-1.24s0-.73 0-1.1a14.46 14.46 0 00-.06-1.74c0-.42-.08-.83-.13-1.24l-.09-.52v-.06l-.85.15-1.86.33a15.92 15.92 0 01.2 4 15.18 15.18 0 01-.34 2.44 16.88 16.88 0 01-.69 2.3 16.31 16.31 0 01-2.41 4.21 18 18 0 01-1.73 1.87c-.31.3-.64.57-1 .84a11.21 11.21 0 01-1.05.76 15.44 15.44 0 01-2.21 1.24 14.86 14.86 0 01-2.13.82c-.41.11-.81.22-1.23.31s-.84.16-1.27.23a17.36 17.36 0 01-2.6.14 15.86 15.86 0 01-5.14-1 16.13 16.13 0 01-4.19-2.25 16.78 16.78 0 01-3.28-3.24A16.26 16.26 0 018.12 7 16.23 16.23 0 0112 4.42 15.85 15.85 0 0116.58 3c.43-.07.87-.12 1.3-.15s.84-.06 1.26-.05h.87q.63 0 1.26.12c.33 0 .66.1 1 .16v-.16c.15-.75.29-1.5.44-2.26 0-.1 0-.21.07-.31-.59-.1-1.21-.22-1.84-.27C20.52.05 20.1 0 19.68 0a19.59 19.59 0 00-4 .3 19 19 0 00-4.58 1.46 19.5 19.5 0 00-4 2.48 19 19 0 00-3.21 3.3 18.82 18.82 0 00-2.37 4.07A19.13 19.13 0 00.2 16.28a19.42 19.42 0 00-.05 5.22 19.63 19.63 0 001.22 4.72A19.38 19.38 0 006.8 33.7a19.54 19.54 0 004 2.6 19.21 19.21 0 004.72 1.55 19.5 19.5 0 005.23.26c.31 0 .63-.06.94-.11.95-.13-.94.14 0 0z"/><path class="cls-1" d="M34.58 19.09a15.77 15.77 0 00-.82-5 15.19 15.19 0 00-2.33-4.39 15.78 15.78 0 00-3.36-3.27 15.33 15.33 0 00-4.34-2.16 15 15 0 00-4.09-.69 14.11 14.11 0 00-2.25.08 15.77 15.77 0 00-2.26.42c-.3.08-.6.16-.89.26A15.67 15.67 0 008.25 8a14.81 14.81 0 00-1.64 1.9 14.29 14.29 0 00-1.23 2l-.38.87c-.11.25-.21.5-.31.75a15.5 15.5 0 00-.71 2.41 15.85 15.85 0 00-.31 2.37v.72a11.74 11.74 0 00.05 1.33 14.83 14.83 0 00.43 2.57 15.85 15.85 0 001 2.71 15.57 15.57 0 001.61 2.69 15.59 15.59 0 006.69 5.15 15.13 15.13 0 002.64.79 15.73 15.73 0 004.84.22 16.13 16.13 0 002.28-.48 17.62 17.62 0 001.73-.59 15.18 15.18 0 002.17-1.09c.41-.25.81-.53 1.2-.8.19-.14.38-.3.56-.45s.49-.4.72-.62.53-.51.78-.78.41-.44.6-.67a14.51 14.51 0 001.41-2 15.5 15.5 0 001.86-4.72 16.82 16.82 0 00.29-2.1v-1-.08h.3A15.63 15.63 0 0132 28.27c-.18.26-.38.51-.57.76s-.38.44-.57.66a9.16 9.16 0 01-.68.71 13.73 13.73 0 01-1.29 1.13c-.39.3-.78.59-1.2.86s-.71.45-1.08.64-.47.25-.72.36l-.49.23c-.32.14-.65.26-1 .38a16.17 16.17 0 01-4.77.9 16.47 16.47 0 01-2.43-.1c-.4 0-.8-.11-1.2-.19s-.58-.12-.87-.2L14 34.07c-.45-.16-.9-.33-1.34-.53a15.88 15.88 0 01-3.86-2.45 16.17 16.17 0 01-2.9-3.28c-.2-.31-.39-.62-.58-.94-.27-.49-.51-1-.74-1.5S4.2 24.43 4 24a15.86 15.86 0 01-.72-5.9 17.28 17.28 0 01.35-2.47 16.65 16.65 0 01.69-2.25 14.32 14.32 0 01.76-1.64 15.92 15.92 0 013-4 17 17 0 012.51-2 16.07 16.07 0 013.48-1.65 15.52 15.52 0 013.09-.69 16.45 16.45 0 012.33-.1 15.85 15.85 0 013.93.6 16 16 0 017.87 5.18 16.21 16.21 0 012.51 4.29 15.85 15.85 0 011 4.91v.83z"/><path class="cls-3" d="M4.08 19.09h2a1.46 1.46 0 01.21 0v.87a10.29 10.29 0 00.14 1.23 9.92 9.92 0 00.25 1.18l.06.22-.95.27-.35.14a7.85 7.85 0 00.27.9 14 14 0 002 3.73 13.35 13.35 0 001.4 1.61c.25.25.52.49.79.72.06.05.79.64.8.63l.6-.81.22-.31.7.47A12.28 12.28 0 0014.41 31a10.63 10.63 0 002.13.63 12.41 12.41 0 002 .25h1.06c.43 0 .85-.06 1.28-.12a12.87 12.87 0 004.68-1.63 12.41 12.41 0 002.79-2.21A12.72 12.72 0 0031.9 19a12.55 12.55 0 00-1-4.87 12.8 12.8 0 00-11.21-7.84 13.91 13.91 0 00-2.58.14l-1 .2q-.6.15-1.2.36a12.42 12.42 0 00-4.13 2.37 13 13 0 00-3 3.73 11.87 11.87 0 00-.54 1.14c-.14.36-.28.73-.39 1.1s-.22.8-.3 1.2-.13.8-.19 1.2a11.41 11.41 0 00-.06 1.16v.19H4.08A15.42 15.42 0 015 14a14 14 0 01.78-1.77c.24-.47.51-.91.79-1.35a13.62 13.62 0 011.2-1.65A14.85 14.85 0 019.2 7.8 15.56 15.56 0 0111.7 6a17.92 17.92 0 012.08-1c.37-.14.75-.26 1.13-.37s.89-.24 1.34-.32a8.49 8.49 0 01.88-.14c.37 0 .75-.08 1.12-.11s1 0 1.5 0 .7 0 1.05.08a15.08 15.08 0 012.3.45 15.77 15.77 0 012.51.94 14.78 14.78 0 012.17 1.29c.47.33.9.69 1.34 1.06.25.22.5.47.74.72s.56.6.83.92a15.74 15.74 0 011.17 1.64c.21.33.4.67.58 1a14.24 14.24 0 01.78 1.84c.12.36.24.71.34 1.07a13.79 13.79 0 01.44 2.47 15.26 15.26 0 010 3.51 15.67 15.67 0 01-.41 2 14.59 14.59 0 01-.72 2c-.13.3-.27.59-.42.88a15.25 15.25 0 01-1.13 1.85 16.17 16.17 0 01-1.61 1.9 14.65 14.65 0 01-1.75 1.49 16.85 16.85 0 01-2.24 1.35 15.46 15.46 0 01-2 .8c-.27.1-.56.17-.84.25s-.79.18-1.19.26-.69.17-1.08.17-.89.06-1.34.07a14.84 14.84 0 01-2.82-.23 14.68 14.68 0 01-4.72-1.7 15 15 0 01-7.59-11.76q-.06-.64-.06-1.29z"/><path class="cls-1" d="M29.12 18.6a.49.49 0 010 1 .49.49 0 010-1zM26.53 25.84a.49.49 0 11-.69 0 .49.49 0 01.69 0zM19.58 29.12a.49.49 0 11-.49-.49.49.49 0 01.49.49zM12.34 26.53a.49.49 0 110-.69.49.49 0 010 .69zM9.06 19.58a.49.49 0 11.49-.49.49.49 0 01-.49.49zM11.65 12.34a.49.49 0 11.69 0 .49.49 0 01-.69 0zM18.6 9.06a.49.49 0 11.49.49.49.49 0 01-.49-.49zM25.84 11.65a.49.49 0 110 .69.49.49 0 010-.69zM28.88 21.35a.49.49 0 01.34.6.5.5 0 01-.61.34.47.47 0 01-.33-.6.49.49 0 01.6-.34zM24.41 27.61a.48.48 0 01-.18.66.49.49 0 01-.67-.19.49.49 0 01.85-.47zM16.83 28.88a.47.47 0 01-.6.33.49.49 0 01-.34-.6.5.5 0 01.61-.34.49.49 0 01.33.61zM10.57 24.41a.49.49 0 11.19-.66.48.48 0 01-.19.66zM9.31 16.83a.49.49 0 11.6-.34.49.49 0 01-.6.34zM13.77 10.57a.49.49 0 11.66.19.48.48 0 01-.66-.19zM21.35 9.3a.49.49 0 01.94.27.49.49 0 01-.6.34.5.5 0 01-.34-.61zM27.61 13.77a.49.49 0 11-.19.66.49.49 0 01.19-.66zM28 23.74a.49.49 0 01-.5.84.49.49 0 11.5-.84zM22.1 28.67a.49.49 0 11-.94.25.49.49 0 01.35-.6.49.49 0 01.59.35zM14.45 28a.49.49 0 01-.67.17.5.5 0 01-.18-.67.49.49 0 01.67-.17.5.5 0 01.18.67zM9.51 22.1a.49.49 0 01-.6-.35.49.49 0 11.6.35zM10.19 14.44a.49.49 0 01-.18-.66.49.49 0 01.67-.18.5.5 0 01.18.67.49.49 0 01-.67.17zM16.08 9.51a.49.49 0 111-.25.5.5 0 01-.35.6.49.49 0 01-.6-.35zM23.74 10.19a.48.48 0 01.67-.18.49.49 0 01-.5.84.48.48 0 01-.17-.66zM28.67 16.08a.49.49 0 01.6.35.48.48 0 01-.35.59.47.47 0 01-.59-.34.48.48 0 01.34-.6z"/><path class="cls-3" d="M23.64 19.08v-.24a4.44 4.44 0 00-.18-1 4.55 4.55 0 00-4.36-3.27h-.18a4.55 4.55 0 104.72 4.55z"/><path class="cls-2" d="M19.47 23.61H19.93a6 6 0 00.63-.17 4.27 4.27 0 00.63-.27 3.87 3.87 0 00.61-.38 4.69 4.69 0 001.05-1.08 4.61 4.61 0 00.64-1.41 5 5 0 00.14-.77 4.42 4.42 0 000-.63.76.76 0 010-.15 4.25 4.25 0 00-.17-.89 4.61 4.61 0 00-.2-.56 4.36 4.36 0 00-.35-.64 2.83 2.83 0 00-.2-.28l-.22-.27a3.9 3.9 0 00-.49-.51l-.13-.1-.12-.1-.25-.16A4.08 4.08 0 0021 15l-.24-.1-.23-.09a4.43 4.43 0 00-.79-.19l-.53-.05h-.19v.37h.17a3.5 3.5 0 01.49 0 4.28 4.28 0 01.73.18l.21.08.22.09a5.05 5.05 0 01.45.25l.23.16.11.08a.52.52 0 01.11.1 3.32 3.32 0 01.43.41l.21.25.18.26a2.93 2.93 0 01.31.58c.06.13.11.27.16.41a4 4 0 01.18.92 3.47 3.47 0 010 .72 4.1 4.1 0 01-.12.7 4.22 4.22 0 01-1.55 2.29 3.71 3.71 0 01-.56.35 4.83 4.83 0 01-.58.25 4.51 4.51 0 01-.58.15h-.52a4.34 4.34 0 01-1-.06 4 4 0 01-.7-.11l-.26-.11-.19-.09-.15-.11-.18.32.16.09.2.1.28.12a4.21 4.21 0 00.79.22 5.07 5.07 0 001.07.08z"/><path class="cls-1" d="M21.07 24.34A5.93 5.93 0 0023 23.11l.26-.27.1-.11-.5-.43-.08.1a2.68 2.68 0 01-.24.24 4.65 4.65 0 01-.8.63 4.58 4.58 0 01-.91.46l-.32.1h-.12l.17.63h.14zM19.4 24.69h.14l-.05-.69H19a4.94 4.94 0 01-1-.11 4.66 4.66 0 01-1-.33.75.75 0 01-.18-.08l-.13-.07-.11-.06-.32.57.12.07.15.07a1.86 1.86 0 00.2.1 5.56 5.56 0 001.09.36 5.69 5.69 0 001.18.18h.38zM13.85 21.09c0 .06.05.13.08.2a5.55 5.55 0 00.56 1 5.68 5.68 0 00.75.87l.29.26.08.06L16 23l-.08-.06a3.26 3.26 0 01-.25-.22 5 5 0 01-.66-.78 4.55 4.55 0 01-.5-.89c0-.06 0-.12-.07-.18a1.12 1.12 0 01-.05-.13v-.13l-.62.2.05.14zM13.88 17a5.69 5.69 0 00-.39 2.26v.53l.64-.09a1.09 1.09 0 000-.12 2.82 2.82 0 010-.34 4.16 4.16 0 01.07-1 5.07 5.07 0 01.27-1c.06-.13.1-.24.14-.31v-.11l-.58-.3-.06.13zM14.93 15.35l-.07.08.5.42.06-.07.1-.11.07-.07.07-.07a5.13 5.13 0 011.71-1.09l.18-.06h.26l-.17-.63H17.34l-.2.07a5.24 5.24 0 00-1 .52 5.07 5.07 0 00-.91.72l-.08.07-.07.08zM19 14.14h.43a4.7 4.7 0 011 .18 5.07 5.07 0 01.95.38l.16.09.13.07.08.05.35-.54h-.09l-.14-.09-.19-.1a5.55 5.55 0 00-2.21-.63H19v.65zM23.57 16.9a5.43 5.43 0 01.35 1 1.49 1.49 0 01.08.1.49.49 0 010 .15v.12l.64-.1v-.14-.17c0-.07 0-.13-.05-.21a5.2 5.2 0 00-.4-1.08 5.62 5.62 0 00-.62-1 4.29 4.29 0 00-.34-.4l-.47.45A4 4 0 0123 16a5.85 5.85 0 01.57.9zM23.88 20.4a5.27 5.27 0 01-.35 1 .89.89 0 00-.09.16.74.74 0 01-.08.13l-.06.11.55.35.08-.13.08-.14.1-.19a5.58 5.58 0 00.4-1.08 6 6 0 00.18-1.15v-.52h-.65v.46a5.23 5.23 0 01-.16 1z"/><path class="cls-2" d="M19.85 18.9h2.54v.36h-2.54zM15.8 18.9h2.54v.36H15.8zM18.92 15.78h.36v2.54h-.36zM18.92 19.82h.36v2.54h-.36z"/><path class="cls-1" d="M19.55 19.08a.45.45 0 00-.45-.46.46.46 0 100 .91.45.45 0 00.45-.45z"/></g></g></svg>