<svg xmlns="http://www.w3.org/2000/svg" viewBox="0 0 378.36 378.36"><defs><style>.cls-1{fill:#6cf}.cls-2{opacity:.5}</style></defs><g id="图层_2" data-name="图层 2"><g id="Layer_1" data-name="Layer 1"><path class="cls-1" d="M307.32 292.79a2.14 2.14 0 01-3.05.36l-7.72-7a2.16 2.16 0 01-.18-3l1.17-1.36c.69-.83 1.68-1.88 2.55-3l3.54-4.54a2.13 2.13 0 011.49-.86l3.54-.4 3.58-.46a2.09 2.09 0 001.51-1l1.32-2.06c.83-1.33 2.07-3.18 3.36-5.52.67-1.17 1.38-2.42 2.15-3.75s1.43-2.81 2.19-4.3l1.16-2.27 1.07-2.38c.71-1.6 1.48-3.21 2.15-4.86s1.31-3.32 2-5c.33-.81.63-1.63.89-2.45s.55-1.62.81-2.41c1.13-3.15 1.91-6.18 2.65-8.75.39-1.28.66-2.48.89-3.54s.46-2 .64-2.74l.55-2.39a2.27 2.27 0 00-.41-1.76l-2.2-2.87-2.2-2.78a2.19 2.19 0 01-.46-1.66l.72-5.71c.17-1.43.23-2.87.33-3.95s.14-1.79.14-1.79a2.14 2.14 0 012.23-2l10.4.52a2.15 2.15 0 011.87 2.49l-.34 4.4c-.07 1.41-.35 3.09-.57 5s-.49 4.14-1 6.51-.81 5-1.48 7.63l-1 4.14c-.3 1.41-.77 2.82-1.15 4.28s-.82 2.92-1.27 4.4-1 3-1.5 4.46c-.25.74-.5 1.5-.76 2.25s-.57 1.49-.86 2.23c-.58 1.49-1.17 3-1.76 4.48a159.61 159.61 0 01-17.11 30.8c-.7 1-1.37 1.92-2 2.82l-1.92 2.45c-1.22 1.53-2.23 2.91-3.15 4zM199.45 346a2.13 2.13 0 01-2.4-1.9l-.53-10.4a2.15 2.15 0 012-2.24l1.8-.14c1.07-.09 2.51-.16 3.94-.32l5.72-.73a2.28 2.28 0 011.67.48l2.77 2.2 2.86 2.19a2.28 2.28 0 001.76.41s.22 0 .63-.13l1.76-.4c1.52-.38 3.71-.81 6.29-1.51l4.16-1.19c.73-.22 1.49-.41 2.26-.66l2.33-.79c1.58-.55 3.23-1.07 4.87-1.69l5-2a147.09 147.09 0 0017.58-8.69l3.16-1.83 2.36-1.52 2.06-1.33a2.17 2.17 0 001-1.49s.07-.44.16-1.12.19-1.57.31-2.47l.38-3.55a2.11 2.11 0 01.87-1.49s.6-.4 1.43-1.08l3.11-2.46c.56-.45 1.13-.88 1.65-1.31l1.39-1.22 1.36-1.18a2.13 2.13 0 013 .17l7 7.73a2.16 2.16 0 01-.35 3.06l-3.33 2.89c-2.23 1.72-5.28 4.33-9.25 7.06a156.32 156.32 0 01-30.84 17.06c-3 1.18-5.95 2.42-9 3.38-1.5.5-3 1-4.46 1.49l-4.41 1.26a151.33 151.33 0 01-16.05 3.57c-2.36.48-4.56.68-6.5.95s-3.63.5-5 .57zM85.57 307.32a2.13 2.13 0 01-.35-3.05l7-7.72a2.16 2.16 0 013-.18l1.36 1.17c.83.69 1.88 1.68 3 2.55l4.54 3.54a2.11 2.11 0 01.87 1.49l.39 3.54.46 3.58a2.11 2.11 0 001 1.51l2.07 1.32c1.32.83 3.17 2.07 5.52 3.36l3.75 2.15 4.29 2.19 2.27 1.16 2.38 1.07c1.6.71 3.21 1.48 4.86 2.15l5 2c.81.33 1.63.63 2.45.89l2.42.81c3.15 1.13 6.17 1.91 8.74 2.65 1.28.39 2.48.66 3.54.89l2.75.64 2.39.55a2.29 2.29 0 001.76-.41l2.86-2.2 2.78-2.2a2.2 2.2 0 011.67-.46l5.7.72c1.43.17 2.87.23 3.95.33l1.79.14a2.14 2.14 0 012 2.23l-.52 10.4a2.14 2.14 0 01-2.41 1.91l-4.4-.34c-1.4-.07-3.09-.35-5-.57s-4.14-.49-6.5-1-5-.81-7.64-1.48l-4.13-1c-1.42-.3-2.83-.77-4.28-1.15s-2.93-.82-4.41-1.27l-4.45-1.5-2.26-.76c-.75-.27-1.48-.57-2.23-.86l-4.55-1.73a159.91 159.91 0 01-30.8-17.11l-2.82-2-2.45-1.92c-1.53-1.22-2.91-2.23-4-3.15zM32.38 199.45a2.13 2.13 0 011.91-2.4l10.39-.53a2.15 2.15 0 012.24 2s.06.72.14 1.8.16 2.51.32 3.94c.37 2.86.73 5.72.73 5.72a2.32 2.32 0 01-.47 1.67s-1.11 1.38-2.21 2.77l-2.19 2.86a2.28 2.28 0 00-.41 1.76s0 .22.13.63.23 1 .41 1.76c.37 1.52.8 3.71 1.51 6.29.36 1.29.76 2.68 1.18 4.15.22.74.41 1.5.66 2.27l.8 2.33c.55 1.58 1.06 3.23 1.68 4.87l2 5a147.09 147.09 0 008.69 17.58c.67 1.15 1.29 2.21 1.83 3.16s1.1 1.71 1.53 2.36l1.32 2.06a2.17 2.17 0 001.49 1l1.12.16 2.47.31 3.55.38a2.09 2.09 0 011.49.87s.4.6 1.08 1.43l2.46 3.11c.45.56.88 1.13 1.31 1.65l1.22 1.39 1.18 1.36a2.13 2.13 0 01-.17 3L74 293a2.16 2.16 0 01-3.06-.35l-2.89-3.33c-1.71-2.23-4.32-5.28-7-9.25a155.81 155.81 0 01-17.07-30.84c-1.18-3-2.42-5.95-3.38-9-.5-1.5-1-3-1.49-4.46s-.85-3-1.26-4.41a151.33 151.33 0 01-3.57-16.05c-.47-2.36-.68-4.56-.95-6.5s-.49-3.63-.57-5zM71 85.57a2.14 2.14 0 013-.36l7.73 7a2.16 2.16 0 01.17 3l-1.17 1.36c-.69.83-1.68 1.88-2.55 3l-3.54 4.54a2.11 2.11 0 01-1.49.87l-3.53.39-3.59.46a2.11 2.11 0 00-1.51 1l-1.31 2.07c-.84 1.32-2.08 3.17-3.37 5.52l-2.14 3.75-2.2 4.29-1.16 2.27-1.07 2.38c-.7 1.6-1.48 3.21-2.15 4.86s-1.3 3.33-2 5c-.33.81-.63 1.63-.89 2.45s-.54 1.62-.81 2.42c-1.13 3.15-1.91 6.17-2.65 8.74-.39 1.28-.66 2.48-.89 3.54s-.46 2-.63 2.75l-.55 2.39a2.25 2.25 0 00.4 1.76l2.2 2.86 2.21 2.78a2.29 2.29 0 01.46 1.67s-.37 2.85-.73 5.7c-.17 1.43-.23 2.87-.33 3.95s-.13 1.79-.13 1.79a2.15 2.15 0 01-2.24 2l-10.4-.52a2.14 2.14 0 01-1.91-2.41l.34-4.4c.07-1.4.35-3.09.57-5s.49-4.14 1-6.5.81-5 1.49-7.64c.3-1.34.62-2.72 1-4.13s.77-2.83 1.16-4.28.81-2.93 1.26-4.41 1-3 1.5-4.45c.25-.75.51-1.5.76-2.26s.58-1.48.86-2.23c.59-1.49 1.17-3 1.76-4.48a159.91 159.91 0 0117.11-30.8l2-2.82L65 92.88c1.22-1.53 2.23-2.91 3.15-4zM178.91 32.38a2.13 2.13 0 012.4 1.9l.53 10.4a2.15 2.15 0 01-2 2.24l-1.8.14c-1.07.09-2.51.16-3.94.32l-5.72.73a2.33 2.33 0 01-1.67-.47L164 45.43l-2.86-2.19a2.28 2.28 0 00-1.76-.41s-.22 0-.63.13l-1.76.41c-1.52.37-3.71.8-6.29 1.51l-4.15 1.18c-.74.22-1.5.41-2.27.66l-2.33.79c-1.58.56-3.23 1.07-4.87 1.69l-4.95 2a146.14 146.14 0 00-17.57 8.69l-3.16 1.83-2.4 1.48-2.06 1.33a2.21 2.21 0 00-1 1.49s-.07.44-.16 1.12-.19 1.57-.3 2.47c-.2 1.77-.39 3.55-.39 3.55a2.06 2.06 0 01-.87 1.49s-.6.4-1.43 1.08l-3.11 2.46c-.56.45-1.13.88-1.65 1.31l-1.39 1.22-1.35 1.18a2.14 2.14 0 01-3-.17l-7-7.73a2.15 2.15 0 01.34-3.06L89 68.05c2.23-1.72 5.29-4.32 9.26-7a155.42 155.42 0 0130.84-17.12c3-1.18 6-2.42 9-3.38 1.49-.5 3-1 4.45-1.49l4.41-1.26a151.33 151.33 0 0116-3.57c2.36-.47 4.56-.68 6.5-.95s3.63-.49 5-.57zM292.79 71a2.14 2.14 0 01.36 3l-7 7.73a2.16 2.16 0 01-3 .17l-1.36-1.17c-.83-.69-1.88-1.68-3-2.55l-4.54-3.54a2.13 2.13 0 01-.86-1.49l-.4-3.53-.46-3.59a2.11 2.11 0 00-1-1.51l-2.06-1.31c-1.32-.84-3.18-2.08-5.52-3.37l-3.75-2.14-4.3-2.2-2.27-1.16-2.38-1.07c-1.6-.71-3.21-1.48-4.86-2.15l-5-2c-.81-.33-1.63-.63-2.45-.89l-2.41-.81c-3.15-1.13-6.18-1.91-8.75-2.65-1.28-.39-2.48-.66-3.54-.89l-2.74-.63-2.39-.55a2.23 2.23 0 00-1.76.4l-2.87 2.2-2.78 2.2a2.24 2.24 0 01-1.66.47l-5.71-.73c-1.43-.17-2.87-.23-3.95-.33l-1.79-.13a2.15 2.15 0 01-2-2.24l.52-10.4a2.15 2.15 0 012.41-1.91l4.4.34c1.41.07 3.09.35 5 .57s4.14.49 6.51 1 5 .81 7.63 1.48l4.14 1c1.41.3 2.82.77 4.28 1.16s2.92.81 4.4 1.26l4.46 1.5 2.25.76c.75.27 1.49.57 2.23.86l4.59 1.84a159.61 159.61 0 0130.8 17.11l2.82 2 2.45 1.89c1.53 1.22 2.91 2.23 4 3.15zM346 178.91a2.13 2.13 0 01-1.9 2.4l-10.4.53a2.15 2.15 0 01-2.24-2s-.05-.72-.14-1.8-.16-2.51-.32-3.94c-.37-2.86-.73-5.72-.73-5.72a2.28 2.28 0 01.48-1.67l2.2-2.77 2.19-2.86a2.28 2.28 0 00.41-1.76 4.2 4.2 0 00-.13-.63c-.09-.4-.23-1-.4-1.76-.38-1.52-.81-3.71-1.51-6.29l-1.19-4.15c-.22-.74-.41-1.5-.66-2.27l-.79-2.33c-.55-1.58-1.07-3.23-1.69-4.87s-1.3-3.29-2-4.95a146.14 146.14 0 00-8.69-17.57l-1.83-3.16-1.5-2.34-1.33-2.06a2.21 2.21 0 00-1.49-1l-1.12-.16-2.47-.3-3.55-.39a2.11 2.11 0 01-1.49-.87s-.4-.6-1.08-1.43l-2.46-3.11c-.45-.56-.88-1.13-1.31-1.65l-1.22-1.39-1.18-1.35a2.14 2.14 0 01.17-3l7.73-7a2.15 2.15 0 013.06.34l2.89 3.37c1.72 2.23 4.33 5.29 7.06 9.26a155.93 155.93 0 0117.06 30.83c1.18 3 2.42 6 3.38 9 .5 1.49 1 3 1.49 4.45s.85 3 1.26 4.41a151.33 151.33 0 013.57 16c.48 2.36.68 4.56.95 6.5s.5 3.63.57 5z"/><g class="cls-2"><path class="cls-1" d="M189.18 324.81h-.48l.07-9.95h.91l.06 9.95zm-1.48 0h-1l.18-10h.95zm3 0l-.12-9.94h.95l.18 10zm-5.05 0h-1l.33-9.95h.93zm7.06 0l-.24-9.95h.93l.33 9.95zm-9.08-.07h-1l.47-9.94h.93zm11.1 0l-.39-9.94h.93l.47 9.94zm-13.13-.09l-1-.07.66-9.92.91.05zm15.15 0l-.54-9.93.93-.06.63 9.93zm-17.17-.12l-1-.07.78-9.92.93.07zm19.17 0l-.65-9.93.91-.07.78 9.92zm-21.19-.16l-1-.09.92-9.9.93.08zm23.23 0l-.84-9.91.93-.09.92 9.91zm-25.24-.18l-1-.11 1.08-9.89.92.1zm27.25 0l-1-9.9.92-.09 1.08 9.89zm-29.27-.21l-1-.12 1.23-9.87.92.11zm31.29 0l-1.1-9.98.92-.11 1.23 9.87zm-33.3-.24l-1-.14 1.38-9.85.92.12zm35.31 0l-1.29-9.87.94-.12 1.34 9.86zm-37.31-.27l-1-.15 1.5-9.83.93.14zm39.31 0l-1.43-9.84.93-.14 1.5 9.83zm-41.31-.29l-1-.17 1.65-9.81.93.16zm43.32 0l-1.59-9.83.93-.15 1.65 9.81zm-45.32-.33l-1-.18 1.79-9.78.93.16zm47.3 0l-1.7-9.8.91-.16 1.79 9.78zm-49.3-.35l-1-.2 1.94-9.75.93.18zm51.29 0l-1.81-9.89.91-.18 1.94 9.76zm-53.22-.5l-1-.21 2.1-9.72.9.19zm55.25 0l-2-9.75.9-.19 2.1 9.73zm-57.23-.41l-1-.23 2.27-9.69.89.21zm59.19 0l-2.12-9.72.89-.2 2.25 9.69zm-61.16-.45l-1-.24 2.42-9.65.89.21zm63.14 0l-2.27-9.69.88-.21 2.4 9.66zm-65.11-.47l-1-.26 2.54-9.62.9.24zm67.09 0l-2.45-9.67.9-.23 2.54 9.62zm-69-.49l-1-.28 2.69-9.57.9.24zm71 0l-2.63-9.59.92-.26 2.66 9.59zm-73-.52l-.95-.28 2.78-9.55.92.27zm74.94 0l-2.79-9.66.92-.27 2.81 9.54zm-76.89-.66l-1-.3 3-9.5.89.28zm78.81 0l-2.9-9.52.9-.28 3 9.5zm-80.75-.59l-1-.3 3.07-9.47.91.3zm82.67 0l-3-9.48.88-.29 3.11 9.45zm-84.6-.62l-.95-.32 3.22-9.41.91.3zm86.54 0l-3.19-9.42.9-.31 3.23 9.41zm-88.48-.68l-1-.34 3.39-9.36.88.32zm90.38 0l-3.35-9.37.91-.32 3.37 9.36zm-92.29-.67l-1-.36 3.52-9.3.88.33zm94.19 0l-3.47-9.32.88-.33 3.53 9.3zm-96.1-.7l-.93-.37 3.64-9.26.9.35zm98 0l-3.61-9.27.88-.35 3.67 9.25zm-99.86-.74l-.95-.38 3.81-9.19.87.35zm101.76 0l-3.77-9.21.89-.36 3.8 9.19zm-103.64-.77l-.93-.39 3.93-9.14.87.37zm105.5 0l-3.89-9.23.87-.37 3.94 9.14zm1.83-.8l-4-9.11.84-.37 4.09 9.07zm-109.2 0l-.91-.41 4.05-9.08.88.39zm111.06-.83l-4.16-9 .86-.4 4.2 9zm-112.9 0l-.93-.43 4.21-9 .86.39zm114.71-.84l-4.26-9 .83-.4 4.35 8.94zm-116.56 0l-.9-.44 4.33-8.95.86.41zm118.39-.87l-4.43-8.91.85-.42 4.47 8.88zm-120.21 0l-.91-.45 4.48-8.88.84.42zm122-.88l-4.54-8.86.83-.43 4.61 8.82zm-123.82 0l-.89-.46 4.6-8.82.85.44zm125.61-.9l-4.67-8.78.82-.45 4.74 8.75zm-127.4 0l-.89-.48 4.74-8.75.83.45zM254.63 308l-4.82-8.7.83-.46 4.86 8.68zm-131 0l-.9-.5 4.89-8.66.81.45zm132.71-1l-4.92-8.64.8-.47 5 8.6zm-134.49 0l-.86-.5 5-8.6.82.47zm136.24-1l-5.07-8.56.81-.48 5.13 8.53zm-138-.05l-.87-.52 5.13-8.52.81.48zm139.72-1l-5.21-8.48.81-.5 5.25 8.46zm-141.46 0l-.87-.54 5.27-8.44.79.49zm143.17-1l-5.33-8.4.79-.5 5.39 8.36zm-144.89-.05l-.86-.55 5.39-8.36.79.5zm146.58-1l-5.43-8.34.77-.51 5.51 8.29zM115 302.73l-.84-.55 5.5-8.29.8.53zm150-1l-5.55-8.25.76-.52 5.63 8.2zm-151.66-.08l-.82-.56 5.62-8.21.78.53zm153.33-1.07l-5.69-8.16.77-.54 5.75 8.12zm-155-.08l-.81-.57 5.73-8.13.79.55zm156.65-1.08l-5.81-8.08.76-.55 5.87 8zM110 299.29l-.81-.59 5.87-8 .76.55zm159.93-1.1l-5.92-8 .75-.56 6 7.94zm-161.56-.09l-.81-.61 6-7.94.76.56zm163.15-1.1l-6-7.9.74-.57 6.11 7.85zm-164.8-.09l-.79-.62 6.1-7.85.75.57zm166.38-1.14l-6.1-7.86.72-.57 6.23 7.76zm-168-.11l-.79-.63 6.24-7.75.73.58zm169.56-1.16l-6.26-7.73.72-.58 6.33 7.66c-.24.15-.45.41-.77.62zm-171.13-.1l-.79-.65 6.35-7.66.72.59zm172.7-1.19l-6.39-7.62.72-.61 6.44 7.58zM102 293.08l-.78-.66 6.46-7.57.71.61zm175.8-1.21l-6.5-7.53.71-.62 6.55 7.49zm-177.35-.11l-.76-.67 6.57-7.47.71.62zm178.87-1.22l-6.61-7.44.69-.62 6.67 7.38zm-180.39-.12l-.75-.68 6.69-7.36.69.62zm181.89-1.23l-6.72-7.35.68-.63 6.79 7.28zm-183.38-.12l-.75-.7 6.8-7.26.68.63zm184.86-1.26l-6.83-7.24.68-.65 6.88 7.19zm-186.35-.13l-.72-.69 6.88-7.18.69.65zm187.8-1.27l-6.92-7.15.66-.64 7 7.07zm-189.25-.13l-.73-.71 7-7.06.66.65zm190.7-1.3l-7.05-7 .67-.67 7.09 7zm-192.14-.12l-.71-.72 7.1-7 .66.67zm193.55-1.31l-7.13-6.94.64-.66 7.2 6.86zm-195-.13l-.7-.74 7.21-6.85.65.67zM288 282.08l-7.24-6.82.64-.68 7.3 6.76zM90.23 282l-.68-.74 7.31-6.75.64.69zm199.15-1.36l-7.38-6.76.63-.69 7.39 6.65zm-200.51-.13l-.69-.75 7.42-6.63.62.69zm201.87-1.37l-7.45-6.6.62-.7 7.49 6.54zM87.52 279l-.66-.75 7.49-6.55.62.71zm204.55-1.4l-7.55-6.48.61-.72 7.59 6.43zm-205.88-.12l-.66-.77 7.6-6.42.61.71zM293.38 276l-7.66-6.34.62-.74 7.68 6.32zm-208.5-.11l-.64-.77 7.69-6.32.6.72zm209.78-1.44l-7.73-6.25.59-.74 7.77 6.21zm-211.06-.12l-.63-.79 7.79-6.19.58.73zm212.32-1.46l-7.82-6.15.57-.74 7.87 6.09zm-213.58-.13l-.62-.8 7.88-6.06.58.73zm214.82-1.48l-7.92-6 .57-.75 8 6zm-216-.12l-.61-.8 8-6 .56.75zm217.27-1.5l-8-5.9.55-.76 8.06 5.85zm-218.53-.11l-.6-.82 8.06-5.84.55.76zM299.57 268l-8.1-5.78.55-.77 8.13 5.74zm-220.86-.11l-.58-.82 8.14-5.72.54.76zm222-1.54l-8.19-5.66.54-.78 8.21 5.61zm-223.19-.11l-.57-.83 8.22-5.6.53.77zm224.32-1.56l-8.26-5.55.52-.78 8.31 5.48zm-225.45-.11l-.56-.84 8.3-5.48.52.78zM303 263l-8.34-5.41.51-.79 8.38 5.35zm-227.69-.1l-.54-.84 8.38-5.36.51.79zm228.79-1.61l-8.44-5.29.5-.8 8.46 5.23zm-229.87-.09l-.53-.85 8.46-5.24.49.8zm230.93-1.63l-8.5-5.16.48-.81 8.54 5.1zm-232-.09l-.51-.86 8.54-5.11.48.81zm233-1.65l-8.58-5 .48-.81 8.61 5zm-234.07-.08l-.5-.87 8.61-5 .47.81zm235.09-1.68l-8.66-4.9.47-.83 8.68 4.85zM71.11 256l-.49-.87 8.69-4.86.46.83zm237.08-1.69l-8.72-4.79.45-.82 8.76 4.71zm-238.06-.07l-.48-.88 8.76-4.73.45.83zm239-1.73l-8.8-4.64.44-.84 8.82 4.59zm-240-.05l-.48-.9 8.89-4.56.43.82zm240.91-1.75l-8.87-4.51.43-.84 8.9 4.46zm-241.84 0l-.46-.9 8.9-4.45.42.83zm242.8-1.83l-8.93-4.38.41-.85 9 4.32zm-243.66 0l-.44-.9 9-4.32.41.85zm244.54-1.79l-9-4.24.4-.86 9 4.19zM66.47 247l-.43-.91 9-4.19.4.85zm246.26-1.82l-9.06-4.11.39-.86 9.09 4zm-247.11 0l-.41-.93 9.09-4 .38.85zm247.94-1.84l-9.12-4 .37-.85 9.15 3.9zm-248.76 0l-.4-.92 9.15-3.9.37.85zm-.8-1.84l-.39-.93 9.21-3.77.36.86zm250.34 0l-9.17-3.86.36-.86 9.21 3.77zm-251.1-1.87l-.38-.94 9.26-3.63.35.87zm251.87 0l-9.23-3.71.35-.87 9.26 3.63zM62.5 237.74l-.35-.94 9.31-3.49.33.88zm253.37 0l-9.29-3.55.33-.88 9.32 3.48zM61.8 235.85l-.35-1 9.37-3.34.32.88zm254.78 0l-9.34-3.43.32-.88 9.37 3.35zM61.11 234l-.33-1 9.42-3.21.3.88zm256.16 0l-9.4-3.28.31-.89 9.42 3.21zm-256.81-2l-.32-1 9.47-3 .29.89zm257.46 0l-9.44-3.15.29-.89 9.47 3.07zm-258.08-1.89l-.31-1 9.47-2.9.28.89zm258.71-.11l-9.49-3 .28-.89 9.51 2.92zm-259.31-1.83l-.29-1 9.55-2.79.27.9zm259.9-.07l-9.53-2.85.27-.9 9.55 2.78zm-260.47-1.88l-.27-1 9.6-2.62.25.92zm261-.06l-9.57-2.71.25-.9 9.59 2.63zm-261.53-1.88l-.26-1 9.63-2.5.23.9zm262.11-.08l-9.62-2.55.24-.92 9.63 2.5zm-262.62-1.89l-.25-1 9.67-2.31.23.91zm263.12-.07l-9.65-2.42.23-.9 9.67 2.34zm-263.6-1.9l-.23-1 9.7-2.22.21.92zm264.08-.06l-9.69-2.28.21-.91 9.71 2.2zM56.7 218.37l-.21-1 9.73-2.06.2.92zm265-.07l-9.7-2.12.19-.92 9.74 2.05zm-265.4-1.91l-.2-1 9.77-1.91.18.91zm265.82-.07l-9.75-2 .18-.92 9.76 1.91zM55.89 214.4l-.18-1 9.79-1.77.17.93zm266.59-.06l-9.77-1.84.17-.92 9.79 1.76zm-267-1.93l-.17-1 9.82-1.61.16.92zm267.31-.07l-9.8-1.69.15-.92 9.82 1.61zM55.2 210.41l-.15-1 9.84-1.48.14.93zm268-.07l-9.83-1.54.14-.92 9.84 1.46zm-268.3-1.92l-.14-1 9.86-1.33.13.93zm268.57-.08l-9.85-1.34.13-.93 9.86 1.32zm-268.84-1.93l-.12-1 9.88-1.18.11.93zm269.11-.08l-9.87-1.24.11-.93 9.88 1.17zM54.39 204.4l-.1-1 9.89-1 .1.93zm269.61-.08l-9.89-1.09.1-.94 9.89 1zm-269.8-1.94l-.09-1 9.91-.89.09.94zm270-.07l-9.91-.95.09-.94 9.91.89zM54 200.37l-.07-1 9.92-.74.07.94zm270.36-.07l-9.91-.81.07-.94 9.92.74zm-270.51-2l-.06-1 9.93-.59.06.94zm270.66-.08l-9.93-.64.06-.95 9.93.59zm-270.78-1.89v-1l9.93-.45.05.94zm270.9-.07l-9.93-.51v-.94l9.94.44zm-271-1.94v-1l10-.3v.93zm271.07-.09l-9.94-.35v-.95l9.94.3zM53.58 192.3v-1l9.94-.15v.93zm271.2-.09l-9.95-.21v-.94l9.95.15zm-271.23-1.94v-1h10v.95zm271.26-.08l-9.95-.07V189h9.95v1.17zM63.5 188.32l-10-.06v-1l9.95.14zm251.36-.23v-.93l9.95-.17v1zm-251.33-1.65l-10-.21v-1l9.94.28zm251.3-.22v-.94l9.95-.3v1zm-251.25-1.65l-9.94-.36v-1l9.94.43zm251.19-.23v-.93l9.94-.45v1zm-251.11-1.65l-9.93-.5.05-1 9.93.57zm251-.22l-.06-.93 9.94-.6.05 1zm-250.89-1.65l-9.93-.66.07-1 9.93.72zm250.81-.22l-.07-.94 9.92-.74.07 1zm-250.67-1.66l-9.91-.79.09-1L64 178zm250.53-.21l-.09-.94 9.91-.88.09 1zm-250.37-1.65l-9.9-.94.1-1 9.9 1zm250.2-.22l-.1-.94 9.9-1 .1 1zm-250-1.65l-9.89-1.09.11-1 9.88 1.15zm249.8-.22l-.11-.93 9.88-1.18.12 1zm-249.58-1.64l-9.88-1.24.13-1 9.87 1.31zm249.36-.22l-.12-.93 9.86-1.33.13 1zm-249.12-1.64l-9.85-1.39.15-1 9.84 1.47zm248.87-.22l-.14-.93 9.84-1.48.15 1zM65 169.64l-9.83-1.54.16-1 9.82 1.6zm248.31-.22l-.15-.93 9.81-1.63.17 1zm-248-1.63l-9.8-1.69.17-1 9.79 1.75zm247.7-.22l-.16-.93 9.79-1.76.17 1zm-247.37-1.63l-9.78-1.83.19-1 9.77 1.9zm247-.21l-.18-.93 9.76-1.92.19 1zM66 164.1l-9.75-2 .2-1 9.74 2zm246.32-.22l-.19-.92 9.73-2.06.2 1zm-245.93-1.62l-9.72-2.12.22-1 9.7 2.2zm245.54-.26l-.21-.91 9.7-2.21.22 1zM66.8 160.44l-9.69-2.27.24-1 9.65 2.35zm244.71-.22l-.22-.91L321 157l.23 1zm-244.27-1.61l-9.65-2.41.25-1 9.63 2.48zm243.83-.21l-.24-.91 9.63-2.5.25 1zm-243.36-1.6l-9.62-2.56.27-1 9.64 2.65zm242.89-.22l-.25-.9 9.59-2.65.27 1zM68.2 155l-9.57-2.7.28-1 9.55 2.76zm241.9-.21l-.26-.9 9.55-2.8.28 1zm-241.37-1.6l-9.54-2.84.3-1 9.51 2.94zm240.84-.19l-.27-.89 9.51-2.93.29 1zm-240.29-1.61l-9.49-3 .31-1 9.46 3.07zm239.72-.21l-.29-.89 9.46-3.08.31 1zm-239.14-1.59l-9.45-3.12.33-1 9.42 3.21zm238.58-.19l-.3-.89 9.41-3.22.32 1zm-238-1.58l-9.39-3.28.34-1 9.37 3.35zm237.37-.2l-.31-.88 9.36-3.36.34 1zM71.1 146l-9.35-3.41.35-1 9.32 3.49zm236.1-.18l-.33-.88 9.32-3.5.35 1zm-235.45-1.54l-9.29-3.56.37-.94 9.27 3.62zm234.79-.18l-.34-.87 9.26-3.64.37.95zm-234.1-1.57l-9.24-3.7.38-.94 9.21 3.76zm233.41-.17l-.35-.87 9.2-3.78.39.94zm-232.7-1.58L64 137l.4-.94 9.15 3.91zm232-.15l-.36-.86 9.14-3.92.4.93zm-231.26-1.57l-9.12-4 .41-.93 9.09 4zm230.51-.16l-.37-.84 9.09-4.06c.14.32.27.63.41.94zm-229.75-1.56l-9.05-4.11.42-.93 9 4.18zm229-.13l-.39-.85 9-4.19.43.92zm-228.21-1.58l-9-4.25.43-.91 9 4.31zm227.42-.12l-.4-.84 9-4.32.44.91zm-226.6-1.57l-8.93-4.39.45-.9 8.9 4.44zm225.79-.12l-.41-.83 8.89-4.45.45.91zM77.1 132.25l-8.87-4.51.46-.9 8.84 4.57zm224.11-.1l-.42-.82 8.82-4.59.47.9zM78 130.59l-8.79-4.65.47-.89 8.77 4.7zm222.39-.09l-.44-.82 8.76-4.73.48.89zm-221.53-1.57l-8.73-4.78.49-.89 8.69 4.85zm220.61-.07L299 128l8.69-4.84.49.88zm-219.7-1.57l-8.65-4.91.5-.88 8.62 5zm218.79-.07l-.47-.81 8.62-5 .5.88zm-217.85-1.56l-8.58-5 .51-.86 8.55 5.08zm216.91 0l-.48-.82 8.55-5.09.5.86zM81.67 124l-8.5-5.16.53-.86 8.46 5.22zm215 0l-.49-.8 8.46-5.23.53.86zm-214-1.55l-8.43-5.3.54-.85 8.39 5.35zm213 0l-.5-.8 8.38-5.35.54.85zm-212-1.55l-8.35-5.41.56-.85 8.31 5.47zm211 0l-.51-.78 8.3-5.48.56.85zm-210-1.53l-8.27-5.53.57-.84 8.22 5.59zm208.93 0l-.53-.78 8.22-5.6.57.83zm-207.84-1.63l-8.18-5.66.58-.83L86.3 117zm206.83 0l-.54-.77 8.13-5.72.58.82zm-205.75-1.53l-8.09-5.79.59-.82 8 5.85zm204.67 0l-.55-.77 8.05-5.84.59.82zm-203.57-1.5l-8-5.91.6-.81 8 6zm202.47 0l-.56-.75 8-6 .6.8zm-201.34-1.53l-7.92-6 .62-.81 7.87 6.09zm200.21 0l-.57-.74 7.88-6.08.61.8zM90.22 111.7l-7.83-6.14.63-.8 7.77 6.24zm197.92 0l-.58-.74 7.78-6.19.63.79zm-196.75-1.47L83.65 104l.64-.78L92 109.5zm195.58 0l-.59-.72 7.69-6.32.64.79zm-194.39-1.46l-7.65-6.36.66-.78 7.59 6.43zm193.2 0l-.6-.72 7.6-6.42.65.78zm-192-1.42l-7.55-6.49.66-.76 7.5 6.53zm190.78 0l-.61-.7 7.5-6.54.66.77zm-1.23-1.41l-.63-.7 7.41-6.64.67.75zM95 105.93l-7.45-6.59.67-.75 7.41 6.64zm187.07-1.4l-.63-.68 7.29-6.76.69.75zm-185.81 0l-7.36-6.7.69-.74 7.3 6.75zm184.54-1.37l-.65-.68 7.2-6.86.69.73zm-183.27 0l-7.23-6.82.69-.73 7.21 6.86zm182-1.36l-.66-.67 7.11-7 .7.72zm-180.68 0l-7.15-6.92.7-.72 7.1 7zm179.37-1.33l-.67-.67 7-7.07.71.71zm-178 0l-7-7 .72-.71 7 7.07zm176.72-1.31l-.68-.66 6.89-7.17.72.69zm-175.39 0l-7-7.16.72-.69 6.9 7.17zm174-1.29l-.69-.65 6.79-7.27.73.69zm-172.67 0L96 90.62l.74-.7 6.78 7.28zm171.3-1.27l-.69-.63 6.66-7.39.76.69zm-169.93 0l-6.73-7.33.75-.68 6.67 7.37zm1.38-1.26L99 87.88l.76-.67 6.56 7.48zm167.15 0l-.7-.62 6.57-7.48.75.67zm-1.4-1.24l-.72-.61 6.45-7.57.77.65zM107 94.07l-6.51-7.52.77-.66 6.45 7.57zm1.42-1.21l-6.39-7.62.77-.65 6.34 7.67zm161.47 0l-.71-.6 6.33-7.66.79.65zm-160-1.19L103.6 84l.8-.64 6.21 7.77zm158.58 0l-.73-.59 6.26-7.77.79.63zm-157.12-1.18l-6.17-7.81.8-.62 6.1 7.85zm155.65 0l-.73-.57 6.1-7.86.8.63zm-154.17-1.15l-6-7.9.8-.61 6 8zm152.69 0l-.74-.57 6-7.94.81.61zm-151.2-1.12l-5.93-8 .82-.61 5.86 8zm149.7 0l-.75-.55 5.87-8 .82.61zm-148.19-1.11L110 79l.82-.58 5.76 8.11zm146.67 0l-.75-.54 5.74-8.12.84.59zM117.36 86l-5.69-8.17.83-.57 5.63 8.2zM261 86l-.77-.53 5.62-8.21.83.58zm-142.09-1l-5.58-8.24.85-.56 5.5 8.29zm140.52 0l-.78-.52 5.5-8.28.85.56zm-139-1L115 75.6l.85-.55 5.38 8.37zm137.4 0l-.8-.52 5.43-8.48.84.55zM122 82.92l-5.32-8.41.85-.54 5.26 8.45zm134.24 0l-.79-.5 5.25-8.45.87.55zm-132.65-1l-5.2-8.49.87-.52 5.12 8.52zm131.06 0l-.81-.49 5.16-8.54.85.52zM125.23 81l-5.07-8.56.86-.51 5 8.59zm127.85 0l-.81-.47 5-8.61.88.52zm-126.23-1l-4.95-8.63.88-.5 4.88 8.67zm124.61 0l-.82-.47 4.87-8.67.87.49zm-123-.89l-4.81-8.7.88-.49 4.76 8.74zm121.35 0l-.83-.45 4.74-8.74.89.48zm-119.7-.85l-4.68-8.78.89-.47 4.61 8.82zm118 0l-.83-.44 4.61-8.82.9.48zm-116.39-.83l-4.54-8.84.89-.46 4.49 8.88zm114.72 0l-.83-.42 4.52-9.01.91.47zm-113-.79L129 67.59l.9-.44 4.35 8.94zm111.38 0L244 76l4.33-9 .92.45zm-109.7-.76l-4.28-9 .91-.42 4.22 9zm108-.06l-.84-.4 4.2-9 .92.44zm-106.31-.74l-4.14-9 .92-.42 4.07 9.08zm104.61-.06l-.85-.38 4.07-9.08.92.42zm-102.9-.7l-4-9.11.93-.4 3.94 9.13zm101.18-.07l-.86-.37 3.94-9.14.93.41zm-99.47-.67l-3.88-9.17.93-.38 3.81 8.97zm97.77-.26l-.87-.36 3.8-9.2.93.39zm-96-.65l-3.74-9.22.94-.38 3.67 9.25zm94.28-.07l-.88-.35L239 63l.93.38zM143.7 72l-3.6-9.28 1-.36 3.52 9.3zm90.79-.07l-.88-.34 3.51-9.3 1 .36zm-89-.6L142 62l.95-.35 3.4 9.35zm87.26-.07l-.88-.32 3.38-9.35 1 .35zm-85.5-.57l-3.32-9.38 1-.33 3.24 9.4zm83.75-.08l-.89-.31 3.23-9.41 1 .33zm-82-.55l-3.18-9.43 1-.32 3.11 9.45zm80.17-.06l-.89-.29 3.09-9.46 1 .32zm-78.4-.52l-3-9.47 1-.31 3 9.5zm76.61-.06l-.89-.28 2.94-9.51 1 .31zm-74.82-.5l-2.9-9.51 1-.29 2.82 9.54zm73-.06l-.9-.27L227.5 59l1 .29zm-71.23-.47l-2.75-9.56 1-.28 2.67 9.59zm69.43-.06l-.9-.25 2.66-9.59 1 .28zm-67.63-.44l-2.6-9.6 1-.26 2.54 9.61zm65.87-.07l-.9-.24 2.49-9.58 1 .26zm-64-.42l-2.47-9.64 1-.25 2.39 9.66zm62.19-.05l-.91-.23 2.37-9.66 1 .24zM159.8 67l-2.32-9.68 1-.23 2.24 9.7zm58.54 0l-.91-.22 2.23-9.78 1 .23zm-56.72-.37l-2.16-9.71 1-.22 2.1 9.72zm54.9 0l-.92-.2 2.08-9.73 1 .22zm-53.06-.35l-2-9.74 1-.2 2 9.75zm51.23 0l-.93-.19 1.94-9.76 1 .2zm-49.39-.33L163.42 56l1-.18 1.81 9.78zm47.55 0l-.93-.17 1.79-9.79 1 .19zm-45.71-.3l-1.73-9.79 1-.18 1.66 9.81zm43.86 0l-.92-.15 1.64-9.82 1 .18zm-42-.27l-1.58-9.82 1-.16 1.5 9.6zm40.16 0l-.93-.14 1.5-9.84 1 .16zm-38.31-.24L169.41 55l1-.14 1.38 9.85zm36.46 0l-.93-.13 1.34-9.85 1 .14zm-34.6-.22l-1.29-9.87 1-.12 1.23 9.87zm32.74 0l-.93-.12 1.2-9.87 1 .12zm-30.88-.2l-1.14-9.88 1-.12 1.08 9.89zm29 0l-.94-.1 1.06-9.89 1 .11zm-27.15-.17l-1-9.9 1-.1.92 9.91zm25.29 0l-.95-.09.92-9.9 1 .09zM178.3 64l-.85-9.91 1-.08.77 9.92zm21.55 0l-.94-.07.76-9.92 1 .08zm-19.68-.12l-.71-9.93 1-.07.62 9.93zm17.8 0l-.93-.06.61-9.93 1 .07zM182 63.7l-.55-9.94h1l.49 9.94zm14.07 0h-1l.47-9.94h1zm-12.2-.08l-.4-9.94h1l.34 9.94zm10.32 0h-.94l.31-9.94h1zm-8.44-.06l-.27-9.94h1l.19 10zm6.56 0h-.94l.18-10h1zm-4.69 0l-.12-9.95h1l.06 10zm2.82 0h-.95v-10h1z"/></g><g class="cls-2"><path class="cls-1" d="M189.18 255.36h-.46v-4.78h.92v4.78zm-1.45 0h-1l.18-4.78h.92zm3 0l-.11-4.78h.92l.18 4.78zm-5-.07l-1-.06.31-4.77.93.05zm6.95 0l-.25-4.77.92-.06.33 4.78zm-8.93-.12l-1-.09.45-4.76.92.08zm10.92 0l-.4-4.77.92-.08.47 4.76zm-12.9-.18l-1-.12.6-4.75.92.11zm14.88 0l-.54-4.76.92-.11.6 4.75zm-16.85-.24l-1-.15.75-4.73.91.14zm18.82 0L198 250l.91-.14.74 4.73zm-20.79-.3l-1-.18.87-4.7.92.16zm22.76 0l-.83-4.71.91-.16.89 4.7zm-24.7-.45l-1-.21 1-4.67.9.19zm26.66 0l-1-4.68.9-.19 1 4.67zm-28.61-.41l-1-.23 1.17-4.64.89.22zm30.55 0l-1.1-4.66.9-.22 1.17 4.64zm-32.49-.48l-.95-.27 1.3-4.6.89.25zm34.41 0l-1.24-4.62.88-.25 1.32 4.6zm-36.32-.53l-.95-.29 1.44-4.56.89.27zm38.23 0L207 248l.88-.27 1.45 4.56zM168.2 252l-.95-.32 1.59-4.52.87.3zm42 0l-1.52-4.54.87-.3 1.59 4.51zm-43.92-.64l-.93-.36 1.72-4.46.87.33zm45.79 0l-1.65-4.49.86-.33 1.73 4.46zm-47.65-.7l-.92-.38 1.85-4.41.86.35zm49.51 0l-1.79-4.44.84-.34 1.87 4.4zm-51.35-.76l-.91-.41 2-4.34.84.37zm53.18 0l-1.93-4.38.84-.37 2 4.34zm-55-.81l-.91-.44 2.13-4.29.83.41zm56.79 0l-2.06-4.31.83-.41 2.12 4.29zm-58.55-1l-.88-.46 2.24-4.22.82.43zm60.36 0l-2.19-4.25.82-.43 2.24 4.23zm-62.12-.92l-.87-.49 2.37-4.16.81.46zm63.87 0L218.8 243c.27-.15.54-.3.8-.46l2.38 4.16zm1.72-1l-2.44-4.12.79-.47 2.5 4.08zm-67.32 0l-.85-.52 2.49-4.08.8.48zm69-1l-2.55-4 .76-.5 2.63 4zm-70.71 0l-.84-.54 2.63-4 .77.49zm72.37-1.08l-2.68-4 .76-.52 2.74 3.92zm-74 0l-.82-.57 2.74-3.92.77.52zm75.67-1.13L225 239l.75-.55 2.85 3.84zm-77.3 0l-.8-.58 2.85-3.84.75.55zm78.89-1.16l-2.9-3.8.72-.57 3 3.75zm-80.48 0c-.27-.2-.53-.41-.79-.62l3-3.74.72.56zm82-1.22l-3-3.7.71-.59 3.08 3.66zm-83.61 0l-.76-.63 3.08-3.66.71.59zm85.13-1.26l-3.13-3.61.69-.61 3.19 3.57zm-86.64 0c-.26-.21-.51-.43-.75-.65l3.18-3.57.69.61zm88.13-1.3l-3.25-3.52.68-.63 3.29 3.47zm-89.62 0c-.24-.22-.49-.44-.72-.67l3.29-3.47.67.63zm91.06-1.34l-3.35-3.42.66-.65 3.39 3.37zm-92.5 0l-.71-.7 3.4-3.37c.21.22.43.43.65.65zm93.9-1.39l-3.45-3.32.64-.66 3.49 3.26c-.2.06-.43.31-.66.54zm-95.3 0l-.69-.73 3.5-3.26.63.67zm96.66-1.43l-3.54-3.22.61-.68 3.59 3.16zm-98 0l-.66-.74 3.59-3.17.61.69zm99.33-1.47l-3.63-3.11c.2-.23.39-.47.59-.71l3.68 3.06c-.21.03-.42.29-.64.54zm-100.64 0c-.22-.25-.43-.5-.64-.76l3.68-3c.2.24.4.47.59.71zm101.91-1.5l-3.72-3 .57-.72 3.77 2.94zm-103.18 0l-.62-.78 3.78-2.94.57.73zM242 229.08l-3.8-2.9.54-.74 3.86 2.83zm-105.62 0c-.2-.27-.4-.53-.59-.8l3.85-2.83c.19.25.37.5.56.74zm106.81-1.59l-3.91-2.76.53-.76 3.94 2.71zm-108 0c-.2-.27-.39-.54-.57-.82l3.94-2.71.52.76zm109.1-1.63l-4-2.65.51-.77 4 2.59c-.14.24-.32.52-.51.79zm-110.23 0c-.19-.28-.37-.55-.54-.83l4-2.59c.16.26.33.51.5.77zm111.31-1.66l-4.06-2.53.49-.79 4.09 2.47c-.17.24-.34.52-.52.8zm-112.39 0l-.51-.84 4.09-2.48.48.79zm113.42-1.69l-4.13-2.51.46-.81 4.17 2.35zm-114.44 0c-.17-.28-.33-.57-.49-.86l4.17-2.35.45.81zm-1-1.73l-.47-.87 4.24-2.23c.14.28.29.55.43.82zm116.39 0l-4.21-2.29.44-.81 4.24 2.22zM130.07 219c-.15-.3-.3-.6-.44-.9l4.3-2.08c.13.27.27.55.41.82zm118.23 0l-4.3-2.21c.14-.28.28-.55.41-.83l4.3 2.09c-.11.3-.26.59-.41.89zm-119.1-1.77c-.14-.3-.28-.6-.41-.9l4.36-2 .38.84zm120 0l-4.33-2c.13-.28.26-.56.38-.84l4.37 2zm-120.78-1.78l-.39-.92 4.42-1.82.36.84zm121.6-.05l-4.4-1.88c.13-.29.25-.57.37-.86l4.42 1.83zm-122.36-1.79l-.36-.93 4.47-1.69c.11.29.22.57.34.86zm123.12-.05l-4.45-1.75.34-.87 4.47 1.69zm-123.82-1.81q-.18-.46-.33-.93l4.52-1.57.3.87zm124.53 0L247 210l.3-.87 4.53 1.55zm-125.18-1.83c-.11-.32-.21-.63-.3-.95l4.56-1.42c.1.3.19.59.29.88zm125.82-.06l-4.54-1.49.28-.88 4.57 1.41c-.13.19-.23.51-.34.83zm-126.41-1.84c-.1-.32-.19-.64-.28-1l4.61-1.28.26.89zm127-.07l-4.59-1.35c.09-.29.17-.59.26-.88L253 207c-.12.19-.21.5-.31.82zM125.16 206c-.09-.32-.17-.64-.25-1l4.65-1.13c.07.3.15.6.22.89zm128.06-.06l-4.62-1.21c.07-.3.15-.6.22-.89l4.65 1.13c-.08.29-.16.61-.25.94zM124.68 204c-.07-.32-.15-.65-.21-1l4.67-1c.07.3.13.6.2.9zm129-.07l-4.68-1.02c.07-.3.14-.6.2-.91l4.68 1zm-129.43-1.88c-.07-.32-.13-.64-.19-1l4.71-.86c.05.3.11.6.17.91zm129.86-.05l-4.69-.92c.06-.3.11-.6.17-.91l4.7.86c-.05.34-.12.67-.18.97zm-130.2-1.88c-.06-.33-.11-.66-.16-1l4.73-.72.15.91zm130.55-.07l-4.71-.78c.05-.31.09-.61.14-.91l4.73.71c-.05.34-.1.67-.16 1zm-130.85-1.9c0-.33-.09-.65-.13-1l4.75-.58.12.92zm131.15-.07l-4.74-.63.12-.93 4.75.58c-.04.34-.09.67-.13 1zm-131.39-1.9l-.09-1 4.76-.43.09.91zm131.63-.05l-4.76-.5.09-.92 4.76.43zm-131.81-1.91l-.06-1 4.77-.3.06.93zm132-.08l-4.77-.34.06-.93 4.78.29c-.04.32-.06.65-.09.98zm-132.1-1.91v-1l4.78-.15v.92zm132.22-.07l-4.78-.21v-.92l4.79.14c0 .33-.01.66-.03.99zM123 190.25v-1h4.79v.92zm132.34-.08l-4.78-.06V189h4.79v.13c.01.38 0 .71 0 1.04zm-127.56-1.85l-4.78-.06v-1l4.78.13c.03.32.02.61.01.93zm122.77-.2v-.92l4.78-.16v1zm-122.71-1.64l-4.78-.21c0-.33 0-.66.05-1l4.77.28c0 .31-.02.62-.03.93zm122.66-.21v-.92l4.77-.29c0 .33 0 .66.05 1zM128 184.64l-4.77-.35c0-.33 0-.66.08-1l4.77.41c-.08.3-.08.63-.08.94zm122.44-.21c0-.31 0-.61-.08-.92l4.77-.44c0 .33.06.66.08 1zm-122.32-1.63l-4.76-.49c0-.33.07-.66.11-1l4.75.56c-.04.32-.07.62-.1.93zm122.1-.21c0-.3-.06-.61-.1-.91l4.75-.58c0 .33.07.65.11 1zM128.33 181l-4.74-.64c0-.33.09-.65.14-1l4.73.7c-.04.29-.09.6-.13.94zm121.67-.24c0-.3-.09-.61-.13-.91l4.73-.72c.05.33.09.65.14 1zm-121.39-1.62l-4.72-.77c0-.33.11-.66.16-1l4.71.85zm121.11-.2c-.05-.31-.1-.61-.16-.91l4.71-.86c.06.32.11.65.17 1zm-120.79-1.61l-4.69-.92c.06-.33.13-.65.2-1l4.68 1c-.07.31-.12.59-.19.92zm120.46-.21c-.06-.3-.12-.6-.19-.9l4.68-1c.07.32.14.64.2 1zm-120.08-1.6l-4.66-1.06c.07-.32.15-.64.23-1l4.65 1.13c-.08.33-.15.63-.22.93zm119.69-.2l-.21-.9 4.64-1.14c.08.32.16.64.23 1zm-119.25-1.59l-4.63-1.2c.08-.32.17-.64.26-1l4.61 1.27zm118.81-.2l-.24-.89 4.61-1.29c.09.32.17.64.26 1zM130.24 172l-4.59-1.34c.09-.32.19-.64.28-1l4.57 1.42c-.09.28-.17.57-.26.92zm117.82-.2c-.08-.29-.17-.59-.26-.88l4.56-1.43c.1.32.2.64.29 1zm-117.28-1.57l-4.55-1.48c.11-.31.21-.63.32-.94l4.53 1.55zm116.73-.23c-.09-.29-.19-.58-.29-.87l4.52-1.57c.11.32.22.63.32.95zm-116.13-1.56l-4.5-1.61c.11-.32.23-.63.35-.94l4.47 1.68c-.1.28-.21.57-.32.86zm115.53-.18c-.1-.29-.21-.58-.32-.87l4.47-1.7c.12.31.24.62.35.94zM132 166.7l-4.46-1.76c.13-.3.25-.61.38-.92l4.42 1.82c-.08.28-.19.57-.34.86zm114.22-.18c-.12-.28-.23-.56-.35-.85l4.42-1.83c.13.3.25.61.37.92zM132.74 165l-4.4-1.89.4-.91 4.37 1.95c-.11.27-.25.55-.37.85zm112.81-.16c-.12-.28-.24-.56-.37-.84l4.36-2c.14.3.27.6.4.91zm-112-1.53l-4.34-2c.14-.3.28-.6.43-.9l4.3 2.08c-.18.25-.32.51-.44.81zm111.3-.15c-.13-.28-.26-.55-.4-.83l4.3-2.1c.15.3.29.6.43.9zm-110.5-1.52l-4.35-2.16.45-.88 4.24 2.21zM244 161.5l-.42-.82 4.24-2.22.45.88zM135.16 160l-4.16-2.28.48-.88 4.17 2.35c-.2.26-.35.53-.49.81zm108-.12l-.45-.81 4.17-2.34.48.86zm-107.08-1.49l-4.14-2.4.51-.86 4.1 2.46zm106.17-.11c-.15-.27-.31-.53-.47-.79l4.1-2.48.5.85zM137 156.8l-4-2.53.54-.84 4 2.59zm104.27-.11l-.49-.78 4-2.59c.17.28.35.55.53.83zM138 155.25l-4-2.65c.18-.28.37-.55.56-.83l3.94 2.71zm102.27-.11l-.51-.76 3.93-2.71c.19.27.38.54.56.82zm-101.22-1.42l-3.9-2.76c.19-.28.38-.55.58-.81l3.87 2.85zm100.17-.1l-.53-.74 3.85-2.83.59.81zm-99.08-1.39l-3.82-2.88c.2-.27.4-.53.61-.79l3.77 2.94zm98-.09l-.57-.73 3.77-2.94.61.78zm-96.87-1.37l-3.73-3 .63-.77 3.69 3.05c-.19.24-.38.48-.58.72zm95.73-.08l-.58-.71 3.68-3.06.63.77zm-94.55-1.34l-3.64-3.1.65-.76 3.6 3.16c-.2.23-.4.47-.6.7zm93.37-.08l-.6-.69 3.58-3.17.66.75zM143.68 148l-3.54-3.22c.22-.24.44-.49.67-.73l3.5 3.27zm90.93-.08l-.62-.68 3.49-3.27.67.73zm-89.67-1.27l-3.45-3.32.7-.71 3.4 3.37zm88.41-.08l-.65-.66 3.4-3.37.69.71zm-87.11-1.24l-3.35-3.41.72-.69 3.29 3.46zm85.81-.07l-.67-.63 3.29-3.48.72.69zM147.58 144l-3.25-3.52.74-.67 3.19 3.57zm83.13-.07l-.69-.62 3.19-3.57.74.66zM149 142.81l-3.14-3.62.76-.64 3.08 3.66c-.28.19-.52.39-.7.6zm80.38-.07l-.7-.6 3.08-3.66.75.64zm-79-1.12l-3-3.71.78-.62 3 3.75zm77.56-.07l-.72-.58 3-3.75.78.62zm-76.11-1.08l-2.92-3.79.79-.6 2.86 3.84zm74.66-.07l-.74-.55 2.85-3.84.8.6zm-73.19-1l-2.79-3.88.8-.57 2.75 3.92c-.28.13-.53.32-.78.5zm71.7-.07l-.75-.53 2.74-3.92.81.57zm-70.19-1l-2.68-4 .83-.54 2.62 4zm68.68-.07l-.77-.51 2.61-4 .84.56zm-67.14-.94l-2.56-4 .84-.53 2.5 4.08zm65.59-.07l-.78-.49 2.49-4.08.84.52zm-64-.9l-2.44-4.11.86-.5 2.38 4.15zm62.44-.06l-.79-.47 2.37-4.15.86.5zm-60.84-.85l-2.32-4.19c.29-.16.58-.32.88-.47l2.25 4.22zm59.24-.07c-.27-.15-.54-.3-.82-.44l2.25-4.22.88.47zm-57.62-.8l-2.19-4.25.89-.45 2.12 4.29zm56-.07c-.27-.14-.54-.28-.82-.41l2.11-4.29.9.45zm-54.33-.75l-2.06-4.31.9-.42 2 4.34zm52.68-.06q-.42-.21-.84-.39l2-4.36.91.42zm-51-.7l-1.93-4.38.91-.39 1.86 4.4zm49.33-.07l-.86-.37 1.85-4.41.92.39zm-47.64-.65l-1.8-4.43.93-.37 1.73 4.46zm45.93-.07l-.86-.34 1.71-4.46.93.36zm-44.21-.59l-1.66-4.49.93-.34 1.6 4.51zm42.48-.07l-.87-.31 1.47-4.53.94.34zm-40.81-.54l-1.52-4.53.94-.31 1.46 4.55zm39-.06l-.88-.29 1.44-4.56 1 .31zm-37.23-.5l-1.36-4.6 1-.28 1.31 4.6zm35.47-.06l-.88-.26 1.3-4.6.95.28zm-33.7-.45l-1.25-4.62 1-.25 1.17 4.64zm31.92 0l-.89-.23 1.16-4.64 1 .25zm-30.13-.4l-1.11-4.66 1-.22 1 4.67zm28.35-.05l-.9-.2 1-4.68 1 .22zm-26.55-.35l-1-4.69 1-.19.9 4.7c-.31-.02-.62.05-.91.11zm24.74 0c-.3-.07-.6-.12-.9-.18l.88-4.7 1 .19zm-22.93-.31l-.83-4.82 1-.17.75 4.73zm21.12 0c-.3-.06-.61-.11-.91-.15l.74-4.73 1 .16zm-19.3-.26l-.68-4.73 1-.14.62 4.74zm17.48 0l-.92-.12.6-4.75 1 .13zm-15.65-.21l-.54-4.75 1-.1.47 4.76zm13.82 0l-.92-.09.45-4.76 1 .1zm-12-.35l-.4-4.76 1-.08.34 4.77zm10.14 0l-.92-.07.31-4.77 1 .07zm-8.3-.11l-.25-4.78h1l.19 4.79zm6.46 0h-.92l.16-4.78h1zm-4.62-.06l-.11-4.79h1l.05 4.78zm2.78 0h-.93v-4.78h1z"/></g><g class="cls-2"><path class="cls-1" d="M189.24 248.75h-.79l.05-3.82h.68zm5.88-.29l-.38-3.81.73-.08.43 3.8zm-12.55-.08l-.78-.09.47-3.8.74.09zm19.14-.95l-.79-3.75.71-.16.85 3.73zm-25.71-.15l-.77-.18.9-3.72.71.17zm32.17-1.62l-1.24-3.66.7-.24 1.27 3.61zm-38.59-.22q-.37-.12-.75-.27l1.32-3.59.69.25zm44.79-2.26l-1.63-3.47.67-.31 1.67 3.44zm-51-.29l-.71-.35 1.72-3.42.65.32zm56.86-2.89l-2-3.27.62-.38 2 3.24c-.17.16-.39.3-.62.41zm-62.68-.36l-.67-.42L159 236l.62.4zm68.17-3.44l-2.34-3 .57-.45 2.39 3zm-73.62-.42l-.62-.5 2.43-3 .57.46zm78.65-4l-2.66-2.74c.17-.17.34-.35.52-.52l2.71 2.7zm-83.63-.48l-.56-.57 2.74-2.67c.17.18.34.35.52.52zm88.15-4.44l-3-2.43.46-.57 3 2.39zm-92.61-.53l-.49-.62 3-2.36.46.58zm96.55-4.87l-3.21-2.01.39-.63 3.24 2zM138.79 221l-.42-.67 3.26-2 .39.63zm103.73-5.22L239.1 214c.11-.21.21-.43.32-.65l3.45 1.66c-.12.25-.24.48-.35.72zm-107-.62l-.33-.7 3.46-1.62.32.66zm109.62-5.52l-3.6-1.31.25-.7 3.61 1.27zM133 209l-.26-.73 3.62-1.24.25.7zm114.11-5.76l-3.72-.9c.06-.23.11-.47.17-.71l3.73.85zm-116-.65c-.06-.26-.12-.52-.17-.77l3.74-.8c.05.24.1.47.16.71zm117.17-5.92l-3.8-.47.08-.73 3.81.43zM130 196l-.09-.78 3.81-.38.08.74zm118.74-6l-3.82-.05V189h3.83v.23c0 .21 0 .48-.01.77zm-115.3-.68h-3.82v-.78h3.83zm111.19-5.83l-.08-.73 3.8-.43.09.77zm-110.85-.41l-3.81-.42.09-.78 3.8.46zm109.87-5.76c-.05-.24-.11-.47-.16-.71l3.73-.87c.06.26.11.52.17.77zm-108.85-.41l-3.73-.84.18-.77 3.72.9c-.06.21-.11.45-.17.68zm107.2-5.63l-.24-.7 3.61-1.28.26.75zm-105.46-.4l-3.62-1.26.27-.75 3.59 1.32zm103.13-5.4l-.32-.66 3.44-1.67.34.7zm-100.77-.38l-3.45-1.65.34-.72 3.43 1.71c-.11.22-.22.44-.32.66zm97.77-5.1l-.39-.62 3.24-2.05c.14.22.28.44.41.66zm-94.76-.37l-3.24-2 .42-.66 3.22 2.07zm91.19-4.76l-.45-.57 3-2.4c.17.2.33.41.49.62zm-87.58-.34l-3-2.38.49-.61 3 2.42zm83.48-4.37l-.52-.52 2.7-2.71.55.55zm-79.31-.3l-2.71-2.7.55-.56 2.68 2.74c-.21.17-.36.34-.53.52zm74.68-3.86l-.57-.46 2.38-3 .61.5zm-70-.27l-2.4-3 .62-.48 2.35 3zm65-3.4l-.62-.39 2-3.25.66.42zm-59.9-.23l-2-3.24.66-.41 2 3.26zm54.47-2.85l-.67-.32 1.66-3.46.71.35zm-49-.19l-1.67-3.44.7-.34 1.63 3.46zm43.26-2.26l-.7-.25 1.26-3.62.74.27zm-37.5-.15l-1.35-3.65.75-.25 1.22 3.62zm31.44-1.65l-.72-.17.84-3.73.77.17zm-25.51-.1l-.86-3.73.77-.17.81 3.74zm19.36-1l-.73-.08.42-3.8.78.09zm-13.2 0l-.44-3.81.78-.08.38 3.81zm7-.37H189v-3.82h.78z"/></g><path class="cls-1" d="M194.59 25.74l-5.41 5.41-5.41-5.41h10.82zM195.44 157.92l-6.26 10.3-6.26-10.3h12.52zM158.98 199.39l12.05.27-5.79 10.57-6.26-10.84zM213.12 210.23l-5.79-10.57 12.05-.27-6.26 10.84z"/><circle class="cls-1" cx="73.61" cy="73.61" r="1.44"/><path class="cls-1" d="M25.74 183.77l5.41 5.41-5.41 5.41v-10.82zM72.18 304.75a1.44 1.44 0 101.43-1.43 1.44 1.44 0 00-1.43 1.43zM183.77 352.62l5.41-5.41 5.41 5.41h-10.82zM303.32 304.75a1.44 1.44 0 101.43-1.43 1.44 1.44 0 00-1.43 1.43zM352.62 194.59l-5.41-5.41 5.41-5.41v10.82z"/><circle class="cls-1" cx="304.75" cy="73.61" r="1.44"/><g opacity=".3"><path class="cls-1" d="M143.21 138.6a67.77 67.77 0 0142.71-17.69 1.92 1.92 0 001.83-1.91v-6.64a76.59 76.59 0 00-51.85 21.51l4.67 4.67a1.91 1.91 0 002.64.06zM138.23 238.1l.33-.33a1.88 1.88 0 00.06-2.6 67.79 67.79 0 01-17.71-42.73 1.91 1.91 0 00-1.91-1.82h-6.64a76.57 76.57 0 0021.51 51.84zM187.75 259.36a1.92 1.92 0 00-1.83-1.91 67.77 67.77 0 01-42.71-17.69 1.91 1.91 0 00-2.64.06l-4.67 4.67A76.55 76.55 0 00187.75 266zM259.36 190.62a1.91 1.91 0 00-1.91 1.82 67.77 67.77 0 01-17.69 42.71 1.91 1.91 0 00.06 2.64l4.67 4.67A76.52 76.52 0 00266 190.62zM237.79 239.82a1.91 1.91 0 00-2.64-.06 67.77 67.77 0 01-42.71 17.69 1.91 1.91 0 00-1.82 1.91V266a76.52 76.52 0 0051.84-21.51zM119 187.75a1.92 1.92 0 001.91-1.83 67.79 67.79 0 0117.69-42.71 1.91 1.91 0 00-.06-2.64l-4.67-4.67a76.59 76.59 0 00-21.51 51.85zM245.84 134.55a78.45 78.45 0 0122.07 53.2h33.34a1.93 1.93 0 001.91-2 113.18 113.18 0 00-31-74.79 1.93 1.93 0 00-1.36-.6 2 2 0 00-1.38.56l-14.82 14.87zM192.44 120.91a67.77 67.77 0 0142.71 17.69 1.91 1.91 0 002.64-.06l4.67-4.67a76.57 76.57 0 00-51.84-21.51V119a1.91 1.91 0 001.82 1.91zM243.81 132.52l23.6-23.6a1.91 1.91 0 000-2.74 113.18 113.18 0 00-74.78-31 1.91 1.91 0 00-2 1.91v33.34a78.45 78.45 0 0153.18 22.09z"/><path class="cls-1" d="M134.55 245.84L111 269.44a1.91 1.91 0 000 2.74 113.18 113.18 0 0074.79 31 1.93 1.93 0 002-1.91v-33.36a78.45 78.45 0 01-53.24-22.07zM243.81 245.84a78.45 78.45 0 01-53.19 22.07v33.34a1.91 1.91 0 002 1.91 113.16 113.16 0 0074.78-31 1.91 1.91 0 000-2.74zM239.82 140.57a1.91 1.91 0 00-.06 2.64 67.77 67.77 0 0117.69 42.71 1.92 1.92 0 001.91 1.83H266a76.55 76.55 0 00-21.51-51.85zM110.45 190.62H77.11a1.91 1.91 0 00-1.91 2 113.18 113.18 0 0031 74.78 1.91 1.91 0 002.74 0l23.6-23.6a78.45 78.45 0 01-22.09-53.18zM301.25 190.62h-33.34a78.45 78.45 0 01-22.07 53.19l23.6 23.6a1.91 1.91 0 002.74 0 113.18 113.18 0 0031-74.78 1.91 1.91 0 00-1.91-2zM134.55 132.52a78.45 78.45 0 0153.2-22.07V77.11a1.92 1.92 0 00-.58-1.37 2 2 0 00-1.39-.54 113.18 113.18 0 00-74.79 31 1.93 1.93 0 00-.6 1.36 2 2 0 00.56 1.38zM77.11 187.75h33.34a78.45 78.45 0 0122.07-53.2L108.92 111a1.91 1.91 0 00-2.74 0 113.18 113.18 0 00-31 74.79 1.92 1.92 0 00.54 1.38 1.89 1.89 0 001.39.58z"/></g><path class="cls-1" d="M233.8 200.2a.8.8 0 01-.6-1 .84.84 0 011.63.37.86.86 0 01-1.03.63zM230.21 209.84a.83.83 0 01-.38-1.1.87.87 0 011.13-.38.8.8 0 01.38 1.1.84.84 0 01-1.13.38zM224.6 218.47a.85.85 0 01-.14-1.18.83.83 0 111.3 1 .81.81 0 01-1.16.18zM217.19 225.61a.83.83 0 011.3-1 .83.83 0 11-1.3 1zM208.38 230.92a.83.83 0 01.39-1.1.86.86 0 011.12.4.82.82 0 01-.39 1.11.85.85 0 01-1.12-.41zM198.61 234.16a.87.87 0 01.63-1 .84.84 0 01.37 1.63.81.81 0 01-1-.63zM188.37 235.16a.87.87 0 01.83-.86.8.8 0 01.83.8.86.86 0 01-.83.87.79.79 0 01-.83-.81zM178.16 233.8a.81.81 0 011-.6.83.83 0 01.63 1 .84.84 0 01-1 .66.86.86 0 01-.63-1.06zM168.52 230.21a.83.83 0 011.1-.38.86.86 0 01.38 1.17.8.8 0 01-1.1.38.84.84 0 01-.38-1.17zM159.89 224.6a.85.85 0 011.18-.14.83.83 0 11-1 1.3.81.81 0 01-.18-1.16zM152.75 217.19a.83.83 0 011 1.3.83.83 0 11-1-1.3zM147.44 208.38a.83.83 0 011.1.39.86.86 0 01-.4 1.12.81.81 0 01-1.1-.39.83.83 0 01.4-1.12zM144.2 198.61a.86.86 0 011 .63.84.84 0 01-1.63.37.81.81 0 01.63-1zM143.2 188.37a.89.89 0 01.87.83.82.82 0 01-.81.83.86.86 0 01-.87-.83.79.79 0 01.81-.83zM144.56 178.16a.81.81 0 01.6 1 .82.82 0 01-1 .63.84.84 0 01-.66-1 .87.87 0 011.06-.63zM148.15 168.52a.83.83 0 01.38 1.1.87.87 0 01-1.13.38.8.8 0 01-.38-1.1.84.84 0 011.13-.38zM153.76 159.89a.87.87 0 01.15 1.18.84.84 0 11-1.31-1 .81.81 0 011.16-.18zM161.17 152.75a.83.83 0 01-1.3 1 .86.86 0 01.11-1.2.85.85 0 011.19.2zM170 147.44a.82.82 0 01-.39 1.1.86.86 0 01-1.12-.4.81.81 0 01.39-1.1.83.83 0 011.12.4zM179.75 144.2a.86.86 0 01-.62 1 .84.84 0 01-.38-1.63.81.81 0 011 .63zM190 143.2a.9.9 0 01-.84.87.82.82 0 01-.83-.81.86.86 0 01.83-.87.8.8 0 01.84.81zM200.2 144.56a.8.8 0 01-1 .6.83.83 0 01-.63-1 .84.84 0 011-.66.86.86 0 01.63 1.06zM209.84 148.15a.83.83 0 01-1.1.38.87.87 0 01-.38-1.13.8.8 0 011.1-.38.84.84 0 01.38 1.13zM218.47 153.76a.87.87 0 01-1.18.15.84.84 0 111-1.31.81.81 0 01.18 1.16zM225.61 161.17a.83.83 0 01-1-1.3.86.86 0 011.2.11.85.85 0 01-.2 1.19zM230.92 170a.82.82 0 01-1.1-.39.86.86 0 01.4-1.12.82.82 0 011.11.39.85.85 0 01-.41 1.12zM234.16 179.75a.87.87 0 01-1-.62.85.85 0 01.62-1 .84.84 0 011 .62.81.81 0 01-.62 1zM235.16 190a.88.88 0 01-.86-.84.8.8 0 01.81-.83.85.85 0 01.86.83.8.8 0 01-.81.84z"/><path class="cls-1" d="M189.18 360.47c-94.45 0-171.29-76.84-171.29-171.29S94.73 17.89 189.18 17.89s171.29 76.84 171.29 171.29-76.84 171.29-171.29 171.29zm0-340.67c-93.39 0-169.38 76-169.38 169.38s76 169.38 169.38 169.38 169.38-76 169.38-169.38S282.58 19.8 189.18 19.8z"/><path class="cls-1" d="M189.18 378.36C84.87 378.36 0 293.5 0 189.18S84.87 0 189.18 0s189.18 84.87 189.18 189.18-84.86 189.18-189.18 189.18zm0-371.66C88.56 6.7 6.7 88.56 6.7 189.18s81.86 182.48 182.48 182.48 182.48-81.86 182.48-182.48S289.8 6.7 189.18 6.7z" opacity=".75"/><g class="cls-2"><path class="cls-1" d="M314.24 65.35l-.5-.51A176.12 176.12 0 00235 19.21l-.7-.21.37-1.39.69.19a177.38 177.38 0 0179.39 46l.51.51zM64.38 65l-1-1 .51-.5a177.51 177.51 0 0179.54-45.75l.69-.19.37 1.39-.69.18a176.12 176.12 0 00-78.9 45.38zM17.87 235.56l-.18-.69a177.35 177.35 0 01.15-91.76l.18-.69 1.39.37-.19.69a176.24 176.24 0 00-.15 91l.19.69zM143.69 360.73l-.69-.19a177.43 177.43 0 01-79.39-46l-.51-.5 1-1 .5.51a175.94 175.94 0 0078.75 45.63l.69.19zM234.26 360.79l-.37-1.39.69-.18a176.12 176.12 0 0078.9-45.38l.51-.51 1 1-.51.51A177.4 177.4 0 01235 360.6zM360.34 236l-1.39-.38.19-.69a176 176 0 00.15-91l-.19-.7 1.39-.37.18.7a177.31 177.31 0 01-.15 91.75z"/><path class="cls-1" d="M320 316.38l.42-.42c.26-.24.58-.59.9-.94.64-.71 1.29-1.41 1.29-1.41l-3.61-3.37 1.85-2 3.68 3.31 1.28-1.4.88-1 .38-.46-3.74-3.24 1.75-2.1 3.79 3.18 2.43-2.94-3.86-3.1.88-1.05c.43-.54.83-1.09.83-1.09l3.9 3 2.29-3-4-3 1.65-2.19 4 2.89s.59-.75 1.11-1.54l1.07-1.58-4.07-2.81 1.54-2.27 4.11 2.75 1.07-1.57c.26-.4.53-.79.73-1.09l.31-.51-4.17-2.66 1.43-2.34 4.21 2.6 2-3.25-4.26-2.51s.36-.58.71-1.17l.66-1.2 4.3 2.45 1.83-3.34-4.35-2.36 1.32-2.4 4.38 2.29.29-.52.58-1.18.83-1.71-4.43-2.2 1.2-2.46 4.47 2.13.83-1.71c.43-.85.79-1.73.79-1.73l-4.51-2 1.08-2.51 4.54 2 1.51-3.5-4.58-1.87s.27-.62.53-1.26l.48-1.28 4.6 1.8 1.34-3.57-4.65-1.7 1-2.57 4.67 1.63.21-.55c.11-.34.25-.8.4-1.25l.58-1.81-4.68-1.57.84-2.61 4.73 1.46.58-1.81c.14-.45.29-.91.37-1.25s.16-.58.16-.58l-4.8-1.36.71-2.65-7.6-2s-.36 1.34-1 3.68c-.37 1.16-.82 2.56-1.33 4.17s-1.06 3.45-1.83 5.38-1.49 4.08-2.38 6.29-1.93 4.51-3 6.9-2.32 4.76-3.51 7.22-2.65 4.83-4 7.27l-4.33 7.06c-1.53 2.26-3 4.49-4.51 6.64s-3.07 4.1-4.51 6-2.95 3.59-4.26 5.2-2.63 3-3.76 4.26l-3 3.24-2.57 2.64 5.57 5.57 1.94-1.93zM144.44 366.09l1.84.49 1.86.41 1.12-4.82 2.67.58-1 4.84 3.73.8.94-4.86.41.09.93.16 1.35.22-.86 4.88 3.76.62.76-4.89 2.7.44-.68 4.9 3.78.44.58-4.91 2.73.31-.51 4.93 1.89.21c.95.1 1.9.14 1.9.14l.4-4.93 2.74.18-.33 4.94 3.8.25.22-4.94s.69.06 1.37.05h1.37l-.14 4.94 3.8.06.05-4.94h2.74v4.95h1.9l1.91-.06-.14-4.95 2.74-.09.21 4.94 1.91-.06c.47 0 1 0 1.3-.07l.6-.05-.32-4.94 2.73-.23.39 4.93 3.8-.32-.5-4.92 1.36-.11 1.36-.19.58 4.92 3.77-.51-.68-4.9 2.72-.37.75 4.89.59-.08c.36 0 .83-.11 1.29-.21l1.87-.35-.85-4.87 2.69-.5.93 4.86 3.74-.7-1-4.84 2.67-.64 1.1 4.82 3.7-.88-1.2-4.8 2.66-.64-2-7.61-3.72.89-4.26 1c-1.65.37-3.54.68-5.58 1.07a167.82 167.82 0 01-60.73 0c-2.05-.33-3.9-.81-5.56-1.15s-3.11-.63-4.28-1l-3.68-1-2.06 7.6 2.65.7zM13.64 238.88l1.08 3.65 4.73-1.44.77 2.62-4.71 1.52 1.26 3.59 4.68-1.61.9 2.59-4.65 1.68s.31.9.63 1.8c.15.45.32.89.46 1.22l.22.55 4.62-1.78 1 2.54-4.59 1.85 1.44 3.53 4.55-1.95.52 1.27.58 1.24-4.52 2 1.61 3.45 4.47-2.11 1.17 2.48-4.45 2.18.26.54c.14.33.36.75.59 1.17l.89 1.68 4.39-2.27 1.29 2.42-4.36 2.34.89 1.68.61 1.16a5.85 5.85 0 00.29.52l4.31-2.44 1.4 2.36-4.27 2.5 1.95 3.27 4.22-2.59.7 1.18c.34.59.73 1.16.73 1.16l-4.17 2.65 2.1 3.17 4.12-2.74 1.52 2.28-4.08 2.81s.52.8 1.07 1.58l1.14 1.55 4-2.89 1.63 2.2-4 2.95 2.37 3.07 3.91-3 1.73 2.13-3.86 3.09 2.41 2.95 3.75-3.23.87 1.06c.22.26.43.53.6.72l.28.32-3.69 3.26 2.55 2.82 3.67-3.31 1.84 2-3.63 3.37 1.28 1.4L58 316l3.55-3.44 1.93 2 5.58-5.56-2.69-2.71c-.87-.85-1.82-2-3-3.23s-2.45-2.63-3.76-4.25a167.73 167.73 0 01-17.52-24.95 170 170 0 01-12.69-27.74c-.67-2-1.34-3.76-1.85-5.37s-.89-3-1.23-4.21l-1.08-3.66-7.61 2 .78 2.63zM58.33 62l-.42.42c-.26.24-.58.59-.9 1l-1.29 1.4 3.63 3.37-1.85 2-3.67-3.31s-.65.7-1.29 1.41l-.88 1-.38.46L55 72.9 53.27 75l-3.79-3.18-2.43 2.93 3.86 3.1-.88 1c-.42.54-.83 1.09-.83 1.09l-3.9-3L43 80l4 3-1.65 2.19-4-2.89s-.59.75-1.11 1.54l-1.07 1.58 4.07 2.81-1.53 2.27-4.12-2.75s-.53.79-1.07 1.57c-.26.4-.53.79-.73 1.09l-.31.51 4.17 2.66-1.43 2.34L34 93.28l-2 3.25L36.26 99s-.36.58-.71 1.17l-.66 1.2-4.3-2.37-1.83 3.34 4.35 2.36-1.32 2.4-4.38-2.29-.29.52-.58 1.18-.83 1.71 4.43 2.2-1.2 2.46-4.47-2.13s-.41.86-.83 1.71-.79 1.73-.79 1.73l4.51 2-1.08 2.52-4.54-2-1.5 3.5 4.58 1.87s-.28.63-.53 1.26l-.48 1.29-4.61-1.81-1.34 3.57 4.65 1.71-1 2.56-4.67-1.63-.21.56c-.11.34-.25.79-.4 1.24l-.58 1.82 4.71 1.53-.84 2.61-4.72-1.46-.58 1.81c-.15.45-.29.91-.38 1.25l-.15.58 4.75 1.36-.7 2.65 7.59 2.06s.37-1.34 1-3.69c.37-1.16.82-2.56 1.33-4.17s1.06-3.45 1.83-5.38 1.49-4.08 2.38-6.29 1.93-4.51 3-6.9l3.52-7.21 4-7.28 4.33-7.06 4.51-6.64c1.56-2.08 3.07-4.1 4.51-6s2.95-3.59 4.27-5.2 2.62-3 3.75-4.26l3-3.23 2.7-2.7-5.56-5.57-1.95 1.93zM233.92 12.27l-1.84-.49-1.86-.41-1.11 4.82-2.68-.58 1-4.84-3.72-.8-.94 4.86-.42-.09-.93-.16-1.35-.22.93-4.88-3.76-.62-.76 4.89-2.7-.44.69-4.9-3.82-.41-.58 4.91-2.72-.31.5-4.92-1.85-.25c-1-.09-1.9-.14-1.9-.14l-.4 4.93-2.78-.22.33-4.94-3.8-.25-.22 5s-.68-.06-1.37-.06h-1.37l.15-5-3.81-.06v5l-2.74-.05V6.69h-1.9l-1.91.07.14 4.94-2.74.09-.21-4.94-1.9.07c-.48 0-1 0-1.31.06h-.59l.32 4.94-2.74.23-.39-4.93-3.8.32.5 4.92-1.36.12-1.36.18-.57-4.92-3.78.51.68 4.9-2.72.37-.75-4.89-.59.08c-.35 0-.82.12-1.29.21l-1.87.35.85 4.87-2.69.51L155.1 10l-3.74.71 1 4.84-2.67.63-1.1-4.82-3.7.88 1.2 4.8-2.66.64 2 7.61 3.71-.89 4.26-1c1.66-.37 3.54-.67 5.59-1.07a168.36 168.36 0 0160.72 0c2.06.33 3.91.82 5.56 1.15s3.11.63 4.28 1l3.69 1 2-7.6-2.65-.7zM364.72 139.48l-1.07-3.65-4.74 1.45-.77-2.63 4.71-1.52-1.26-3.59-4.67 1.61-.91-2.59 4.65-1.68s-.31-.9-.63-1.8c-.15-.45-.31-.89-.46-1.22l-.22-.55-4.62 1.78-1-2.54 4.59-1.85-1.44-3.53-4.55 2-.52-1.27c-.28-.62-.57-1.24-.57-1.24l4.51-2-1.61-3.45-4.47 2.11-1.16-2.48 4.44-2.18-.25-.54c-.15-.32-.37-.75-.59-1.16l-.9-1.69-4.39 2.28-1.28-2.43 4.36-2.34-.9-1.78-.61-1.16c-.16-.31-.29-.51-.29-.51l-4.31 2.43-1.4-2.36 4.27-2.5-1.95-3.27-4.22 2.59-.7-1.18c-.34-.59-.73-1.16-.73-1.16l4.18-2.65-2.11-3.17-4.13 2.77-1.52-2.28 4.08-2.81s-.52-.8-1.07-1.57l-1.13-1.54-4 2.89-1.62-2.2 4-2.95-2.34-3.07-3.9 3-1.73-2.13 3.86-3.09-2.41-3-3.8 3.18-.87-1.06c-.21-.27-.43-.53-.59-.73l-.29-.32 3.75-3.15-2.55-2.83-3.68 3.31-1.84-2 3.65-3.39-1.28-1.41-1.34-1.35-3.56 3.44-1.93-1.94-5.57 5.56L312 72.1c.87.85 1.82 2 3 3.23s2.46 2.63 3.77 4.25A168.4 168.4 0 01349 132.24c.67 2 1.34 3.76 1.85 5.37l1.23 4.21c.69 2.33 1.08 3.67 1.08 3.67l7.61-2-.77-2.63z"/></g></g></g></svg>