<svg xmlns="http://www.w3.org/2000/svg" viewBox="0 0 293.31 230.99"><defs><style>.cls-3{fill:#f39200}</style></defs><g id="图层_2" data-name="图层 2"><g id="Layer_1" data-name="Layer 1"><path fill="#1d71b8" opacity=".5" d="M292.21 30.26v17.26h-5.59v182.37h-19.57v-76.54l-15.84-27.22v-23.34h21.87V62.52h-21.87V29.98H228.4l-9.31-8.74h-42.55l-15.77 8.74H39.03L3.12 1.1h44.66v9.69h120.04V1.1h83.39l41 29.16z"/><path d="M287.71 231H266v-77.35l-15.84-27.22V101.7H272V63.62h-21.89V31.07H228l-9.3-8.73h-41.87l-15.77 8.73H38.64L0 0h48.88v9.69h117.84V0h84.84l41.75 29.7v18.91h-5.6zm-19.57-2.2h17.38V46.42h5.6V30.83L250.86 2.2h-81.94v9.69H46.68V2.2H6.23l33.19 26.68h121.07l15.77-8.74h43.26l9.31 8.74h23.47v32.54h21.88v42.47H252.3v21.94l15.84 27.23z" fill="#36a9e1"/><path class="cls-3" d="M265.74 65.29h4.25v34.74h-4.25zM259.43 65.29h4.25v34.74h-4.25zM253.12 65.29h4.25v34.74h-4.25zM246.81 65.29h4.25v34.74h-4.25z"/></g></g></svg>