<svg xmlns="http://www.w3.org/2000/svg" viewBox="0 0 543.96 686.1"><defs><style>.cls-2{fill:#5fffe8}</style></defs><g id="图层_2" data-name="图层 2"><g opacity=".8" id="央铋_1" data-name="央铋 1"><path class="cls-2" d="M518 339c0 133.39-108.52 241.91-241.91 241.91S34.16 472.34 34.16 339 142.69 97 276.08 97 518 205.56 518 339zm-481.1 0c0 131.88 107.29 239.18 239.18 239.18S515.25 470.83 515.25 339 408 99.77 276.08 99.77 36.9 207.06 36.9 339z"/><path class="cls-2" d="M456.48 339c0 99.48-80.93 180.4-180.4 180.4S95.67 438.43 95.67 339s80.93-180.46 180.41-180.46 180.4 80.93 180.4 180.46zM98.4 339c0 98 79.71 177.67 177.68 177.67S453.75 436.92 453.75 339s-79.7-177.68-177.67-177.68S98.4 241 98.4 339z"/><path class="cls-2" d="M430.52 339c0 85.15-69.28 154.44-154.44 154.44S121.64 424.1 121.64 339s69.28-154.44 154.44-154.44S430.52 253.79 430.52 339zm-306.15 0c0 83.65 68 151.7 151.71 151.7s151.71-68 151.71-151.7-68.06-151.76-151.71-151.76S124.37 255.3 124.37 339zM125.69 199.86A205.36 205.36 0 0083 270.06l2.49 1.08a202.73 202.73 0 0143-70.37zM276.08 133.94a204.23 204.23 0 00-46.08 5.29l.75 2.62a201 201 0 01101.35 2.78l.84-2.61a204.08 204.08 0 00-56.86-8.08zM122.34 474.34l2.16-1.67a202.66 202.66 0 01-38-63.49l-2.38 1.47a205.15 205.15 0 0038.22 63.69z"/><path class="cls-2" d="M71.12 341.23a204 204 0 0013 69.42l2.38-1.47a200.84 200.84 0 01-12.62-67.95zM276.08 544a203.76 203.76 0 0085.57-18.73l-1-2.56a201.57 201.57 0 01-131 13.12l-.81 2.61a204.37 204.37 0 0047.24 5.56zM447.22 226.29l-2.22 1.56a201.77 201.77 0 0113 199.55l2.93.25a204.5 204.5 0 00-13.66-201.36zM274.56 0h3.03v68.33h-3.03zM274.56 610.93h3.03v75.17h-3.03zM0 337.43h54.66v3.03H0z"/><path class="cls-2" transform="rotate(-20.03 41.14 422.725)" d="M13.82 421.27h54.67v3.03H13.82z"/><path class="cls-2" transform="rotate(-39.94 82.82 496.866)" d="M55.48 495.32h54.66v3.04H55.48z"/><path class="cls-2" transform="rotate(-60 147.274 552.174)" d="M119.95 550.67h54.67v3.04h-54.67z"/><path class="cls-2" transform="rotate(-79.97 226.809 582.134)" d="M199.47 580.62h54.67v3.03h-54.67z"/><path class="cls-2" transform="rotate(-10 311.787 583.114)" d="M310.25 555.75h3.03v54.67h-3.03z"/><path class="cls-2" transform="rotate(-30.01 391.889 554.867)" d="M390.42 527.58h3.04v54.66h-3.04z"/><path class="cls-2" transform="rotate(-50 457.636 501.02)" d="M456.12 473.69h3.03v54.67h-3.03z"/><path class="cls-2" d="M526.1 438.69L474.73 420l1.04-2.86 51.37 18.71-1.04 2.84zM489.29 342.89h54.67v3.04h-54.67z"/><path class="cls-2" transform="rotate(-20.04 502.68 260.524)" d="M475.47 259.05h54.67v3.04h-54.67z"/><path class="cls-2" d="M441.18 205.25l-1.95-2.33 41.87-35.13 1.96 2.31-41.88 35.15z"/><path class="cls-2" transform="rotate(-60.02 396.645 131.173)" d="M369.33 129.65H424v3.04h-54.67z"/><path class="cls-2" transform="rotate(-79.97 317.153 101.224)" d="M289.81 99.71h54.67v3.04h-54.67z"/><path class="cls-2" transform="rotate(-10 232.172 100.302)" d="M230.67 72.95h3.04v54.67h-3.04z"/><path class="cls-2" d="M164.37 152.87l-27.33-47.34 2.63-1.52L167 151.36l-2.63 1.51z"/><path class="cls-2" transform="rotate(-50 86.324 182.334)" d="M84.81 155h3.04v54.67h-3.04z"/><path class="cls-2" transform="rotate(-70 43.027 255.446)" d="M41.5 228.11h3.04v54.67H41.5z"/><path class="cls-2" d="M276.08 364a25.06 25.06 0 1125.05-25 25.05 25.05 0 01-25.05 25zM152.12 315.3l16 3.63a109.87 109.87 0 0187.68-87.86L252.66 215a126.29 126.29 0 00-100.54 100.3zM149.88 339v.68h16.4V339a109.14 109.14 0 011.83-20l-16-3.63a126.26 126.26 0 00-2.23 23.63z"/><path class="cls-2" d="M179.13 419.72l11.77-11.53a109.33 109.33 0 01-24.6-68.56h-16.4a125.77 125.77 0 0029.23 80.09zM283 448.49l2.86 16.22a126.09 126.09 0 0091.66-50.81l-12.21-11A109.6 109.6 0 01283 448.49zM385.87 339a109.16 109.16 0 01-20.53 63.91l12.21 11A125.49 125.49 0 00402.27 339c0-1.07 0-2.13-.08-3.19l-16.36 1.34c0 .57.04 1.18.04 1.85zM276.08 212.75h-.68v16.4h.68a109.76 109.76 0 01109.56 103.59l16.21-3.59a126.18 126.18 0 00-125.77-116.4zM199.15 417.23l-10.76 12.45a125.72 125.72 0 0087.69 35.47h1.24l-1.6-16.38a109.28 109.28 0 01-76.57-31.54z"/><path class="cls-2" d="M341.74 273.29l6.17-6.18a101.9 101.9 0 00-14.44-12l-5.1 7.11a93.3 93.3 0 0113.37 11.07zM183.22 339a92.43 92.43 0 018.85-39.55l-8.18-3.1a101.53 101.53 0 004 93.06l7.39-4.7A92.33 92.33 0 01183.22 339zM276.08 431.8a92.34 92.34 0 01-43.16-10.66l-4.34 7.58a101.49 101.49 0 0099.66-2.59l-4.88-7.27a92.48 92.48 0 01-47.28 12.94z"/><path class="cls-2" d="M323.36 418.86l4.88 7.27a101.81 101.81 0 0010.12-6.95l-6.45-6.1a93.49 93.49 0 01-8.55 5.78zM206.52 277.46l-7.21-5a102.22 102.22 0 00-15.42 23.86l8.18 3.1a93.58 93.58 0 0114.45-21.96zM276.08 399.23A60.29 60.29 0 11336.36 339a60.35 60.35 0 01-60.28 60.23zm0-117.53a57.25 57.25 0 1057.25 57.3 57.31 57.31 0 00-57.25-57.3zM90.89 348.74v-19.93l-11.96 9.97 11.96 9.96zM105.4 411.5l-6.81-18.74-7.83 13.46 14.64 5.28zM140.51 465.49l-12.82-15.27-2.75 15.32 15.57-.05zM191.96 504.23l-17.25-9.97 2.64 15.34 14.61-5.37zM253.57 523.02l-19.64-3.45 7.75 13.51 11.89-10.06zM317.89 519.62l-19.63 3.46 11.88 10.05 7.75-13.51zM377.15 494.43l-17.26 9.97 14.62 5.37 2.64-15.34zM424.24 450.48l-12.82 15.27 15.57.06-2.75-15.33zM453.45 393.09l-6.82 18.72 14.65-5.27-7.83-13.45zM461.27 329.16v19.93l11.96-9.97-11.96-9.96zM446.75 266.4l6.82 18.74 7.83-13.46-14.65-5.28zM411.65 212.41l12.81 15.27 2.75-15.33-15.56.06zM360.19 173.67l17.26 9.97-2.65-15.35-14.61 5.38zM298.58 154.87l19.64 3.47-7.74-13.52-11.9 10.05zM234.28 158.27l19.62-3.46-11.89-10.05-7.73 13.51zM175 183.47l17.26-9.97-14.61-5.37-2.65 15.34zM127.92 227.42l12.81-15.27-15.57-.06 2.76 15.33zM98.7 284.81l6.83-18.72-14.66 5.27 7.83 13.45z"/></g></g></svg>