<svg xmlns="http://www.w3.org/2000/svg" viewBox="0 0 49.82 48.3"><defs><style>.cls-2{fill:#00b8de}</style></defs><g id="图层_2" data-name="图层 2"><g id="Layer_1" data-name="Layer 1"><path d="M45.35 35.37a23.79 23.79 0 01-9 8.78l-1.57-1.56a21.73 21.73 0 008.76-8.27l1.84 1zm-18.17 9.46v3.36c-.73.07-1.5.11-2.26.11a24.84 24.84 0 01-10.76-2.44v-3.78A21.44 21.44 0 0024.92 45a21 21 0 002.26-.12zM5 31.6H1.39a25 25 0 01.16-16.9h3.6A21.58 21.58 0 005 31.6zM26.85 1.88V.33a23.1 23.1 0 0119.5 14.37h1.92a25.3 25.3 0 011.18 13h-1.83a22.06 22.06 0 01-.79 3h-1.62a21.88 21.88 0 001.28-7.35A21.58 21.58 0 0026.85 1.88zM5.75 9.45A23.68 23.68 0 0121 0v2.16A21.55 21.55 0 007.26 11z" fill-rule="evenodd" fill="#00b8de"/><path class="cls-2" d="M24.92 1.55a21.83 21.83 0 0121.81 21.83 21.83 21.83 0 01-21.81 21.81A21.82 21.82 0 013.1 23.38 21.82 21.82 0 0124.92 1.55zm0 .49A21.32 21.32 0 003.59 23.38a21.34 21.34 0 0021.33 21.33 21.37 21.37 0 0021.33-21.33A21.36 21.36 0 0024.92 2z"/><path class="cls-2" d="M24.92 43.63A20.26 20.26 0 014.66 23.38 20.26 20.26 0 0124.92 3.11a20.26 20.26 0 0120.24 20.27h-.88A19.38 19.38 0 0024.92 4 19.36 19.36 0 005.55 23.38a19.38 19.38 0 0019.37 19.37z"/><path d="M6.65 22.36A19.32 19.32 0 017 19.61l1.73.47a15.82 15.82 0 00-.31 2.28zm.88-4.69a18.48 18.48 0 011-2.57l1.55.9a14.68 14.68 0 00-.88 2.13l-1.72-.46zm2.06-4.31a17.31 17.31 0 011.7-2.19l1.25 1.25a19.24 19.24 0 00-1.4 1.83l-1.55-.89zm3.13-3.62a17.88 17.88 0 012.18-1.69l.9 1.54A18.05 18.05 0 0014 11l-1.28-1.26zM16.65 7a18.41 18.41 0 012.56-1l.46 1.72a14.12 14.12 0 00-2.12.88l-.9-1.6zm4.51-1.58a18 18 0 012.75-.36v1.81a15.82 15.82 0 00-2.28.31z" fill="#ff7000"/><path class="cls-2" d="M24.92 5.07A18.25 18.25 0 0143.2 23.38a18.23 18.23 0 01-18.28 18.29 18.28 18.28 0 01-18.3-18.29h1.77a16.58 16.58 0 0016.53 16.53 16.52 16.52 0 0016.51-16.53A16.52 16.52 0 0024.92 6.84z"/><path d="M10 23.22a14.94 14.94 0 011.91-7.16l3.78 2.19a10.29 10.29 0 00-1.32 5zm2.09-7.42l3.79 2.2a10.57 10.57 0 013.64-3.64l-2.19-3.76a14.59 14.59 0 00-5.21 5.23zm5.49-5.39a14.69 14.69 0 017.15-1.92v4.36a10.7 10.7 0 00-5 1.32l-2.18-3.76zm7.47-1.92a14.65 14.65 0 017.14 1.92l-2.17 3.76a10.67 10.67 0 00-5-1.32V8.49zm7.42 2.08l-2.17 3.76A10.71 10.71 0 0134 18l3.77-2.17a14.8 14.8 0 00-5.23-5.23zm5.39 5.49a15 15 0 011.9 7.16h-4.31a10.52 10.52 0 00-1.33-5l3.77-2.19zm1.9 7.48a14.93 14.93 0 01-1.9 7.13l-3.74-2.17a10.52 10.52 0 001.33-5zM37.73 31L34 28.78a10.68 10.68 0 01-3.63 3.63l2.17 3.78A15.16 15.16 0 0037.73 31zm-5.51 5.4a14.85 14.85 0 01-7.14 1.9v-4.4a10.33 10.33 0 005-1.33l2.17 3.78zm-7.46 1.9a14.89 14.89 0 01-7.15-1.9l2.19-3.78a10.29 10.29 0 005 1.33v4.35zm-7.43-2.06l2.19-3.78a10.54 10.54 0 01-3.64-3.63L12.12 31a14.94 14.94 0 005.21 5.24zm-5.39-5.52A14.82 14.82 0 0110 23.54h4.4a10.28 10.28 0 001.32 5z" fill="#ff7000" fill-rule="evenodd"/></g></g></svg>