<svg xmlns="http://www.w3.org/2000/svg" viewBox="0 0 29.56 27.84"><defs><style>.cls-1{fill:#00b8de}.cls-2{fill:#ff7000}</style></defs><g id="图层_2" data-name="图层 2"><g id="Layer_1" data-name="Layer 1"><path class="cls-1" d="M4.12 22.89l.16-.09-3.86-6.68 3.81-6.59h7.61l3.8 6.59-3.8 6.59H4.12v.18l.16-.09-.16.09v.19h7.93l4.01-6.96-4.01-6.96H4.02L0 16.12l4.02 6.96h.1v-.19zM22.07 20.32l.16-.09-2.37-4.11 2.32-4.02h4.64l2.32 4.02-2.32 4.02h-4.75v.18l.16-.09-.16.09v.18h4.96l2.53-4.38-2.53-4.38h-5.06l-2.53 4.38 2.53 4.38h.1v-.18z"/><path class="cls-1" d="M15.79 15.87h3.93v.36h-3.93z"/><path class="cls-1" transform="rotate(-54.07 13.325 7.454)" d="M10.97 7.27h4.71v.36h-4.71z"/><path class="cls-1" transform="rotate(-35.92 12.768 24.031)" d="M12.58 22.73h.36v2.6h-.36z"/><path class="cls-2" d="M13.46 27.66l.16-.09-.72-1.24.67-1.15h1.33l.66 1.15-.66 1.15h-1.44v.18l.16-.09-.16.09v.18h1.65l.87-1.51-.87-1.52h-1.75l-.88 1.52.88 1.51h.1v-.18zM14.76 5.52l.15-.09-1.48-2.58L14.86.36h2.87l1.44 2.49-1.44 2.49h-2.97v.18l.15-.09-.15.09v.18h3.19l1.64-2.85L17.95 0h-3.3l-1.64 2.85 1.64 2.85h.11v-.18z"/></g></g></svg>