<svg xmlns="http://www.w3.org/2000/svg" viewBox="0 0 18.93 18.95"><defs><style>.cls-1{fill:#ff7000}.cls-2{fill:#00b8de}</style></defs><g id="图层_2" data-name="图层 2"><g id="Layer_1" data-name="Layer 1"><path class="cls-1" d="M7.65.18A9.17 9.17 0 0111 .12a9.46 9.46 0 016.73 4.61 5.77 5.77 0 01.29.55 4.92 4.92 0 01.26.58A9.43 9.43 0 0118.93 9h-.31A9.37 9.37 0 0018 6c-.08-.19-.17-.38-.25-.56l-.29-.54A9.15 9.15 0 0010.9.43 8.22 8.22 0 009.32.31a9.89 9.89 0 00-1.6.17zM18.6 12c-.1.33-.21.66-.34 1a7.84 7.84 0 01-.43.93 9.5 9.5 0 01-3.62 3.74 9.47 9.47 0 01-12.94-3.46l-.05-.1c-.12-.2-.22-.4-.32-.61s-.19-.42-.27-.63A9.57 9.57 0 010 9.48h.31a9.13 9.13 0 00.62 3.27 5.45 5.45 0 00.26.62c.09.19.19.39.3.59l.05.09a9.15 9.15 0 0012.51 3.35 9.09 9.09 0 003.5-3.62 7.36 7.36 0 00.42-.9 6.63 6.63 0 00.32-1l.22.06h.09z"/><path class="cls-2" d="M12 16.77l.12.35.07.25a8.73 8.73 0 01-1.59.37 7.71 7.71 0 01-1.6.05 8.33 8.33 0 01-6.71-4.15 8.16 8.16 0 01-.75-1.72 8 8 0 01-.34-1.8 8.32 8.32 0 014.11-7.87L5.89 2a5.18 5.18 0 01.6-.26 8.35 8.35 0 013.29-.55v.63a7.84 7.84 0 00-3 .5l-.56.24c-.19.09-.37.19-.54.29a7.71 7.71 0 00-3.83 7.27 7.27 7.27 0 00.31 1.65 7.55 7.55 0 00.7 1.6A7.7 7.7 0 009 17.17a8.11 8.11 0 001.48-.05 7.94 7.94 0 001.52-.35z"/><path class="cls-1" d="M5.65 3.17h.14a7.3 7.3 0 015.58-.73 7.38 7.38 0 014.48 3.43 7.39 7.39 0 01-2.7 10.07 8.15 8.15 0 01-1.16.55 9.34 9.34 0 01-1.23.33 7.4 7.4 0 01-6.06-1.73l.81-1a6.13 6.13 0 005 1.36 6 6 0 001-.27 5.6 5.6 0 001-.45 6.13 6.13 0 002.24-8.36 6.13 6.13 0 00-8.34-2.2h-.07zM2.4 7.36c.05-.16.11-.33.17-.5s.13-.33.21-.49a7.18 7.18 0 011.57-2.21l.88.9a6 6 0 00-1.3 1.83 2.75 2.75 0 00-.17.41 3 3 0 00-.15.42z"/><path class="cls-2" d="M10.85 15.05a5.23 5.23 0 01-1 .16 6 6 0 01-1 0 5.77 5.77 0 01-4.28-2.84A5.75 5.75 0 016.6 4.49a4.87 4.87 0 01.8-.38 6.27 6.27 0 01.84-.26 5.79 5.79 0 014.3.76l-.17.27a5.43 5.43 0 00-4.07-.71 5.82 5.82 0 00-.79.22 7.6 7.6 0 00-.76.37 5.44 5.44 0 00-2 7.42 5.42 5.42 0 004 2.69 5.33 5.33 0 001 0 5.4 5.4 0 001-.15zM14.19 6.19v.06l.18.29a5.06 5.06 0 01.24.46c.07.15.13.3.19.46a5.86 5.86 0 01.31 2.56h-.31a5.52 5.52 0 00-.3-2.42 4.07 4.07 0 00-.18-.44c-.07-.15-.14-.29-.22-.43l-.1-.26v-.16zM14.75 11.76c0 .06-.06.11-.08.16a1.19 1.19 0 01-.08.16 5.21 5.21 0 01-.47.78l-.25-.19a5.89 5.89 0 00.44-.73l.08-.15a.69.69 0 01.07-.15h.1zM2.6 12.15c0-.08-.06-.16-.08-.23s-.06-.17-.08-.22a7.9 7.9 0 01-.27-1.19l1.25-.17a7 7 0 00.22 1c0 .07 0 .13.06.18l.07.18-.48.19z"/></g></g></svg>