<svg xmlns="http://www.w3.org/2000/svg" viewBox="0 0 32.8 64.92"><defs><style>.cls-1{fill:#00b8de}.cls-2{fill:#ff7000}</style></defs><g id="图层_2" data-name="图层 2"><g id="Layer_1" data-name="Layer 1"><path class="cls-1" d="M3.26 2.08h12.01V62.84H3.26v-.69h11.36V2.77H3.26v-.69zM29.54 2.77H18.18v59.38h11.36v.69h-12V2.08h12v.69z"/><path class="cls-2" d="M8.79 31.32h15.22v2.27H8.79z"/><path class="cls-1" d="M6.67 0h19.46v.64H6.67zM6.67 64.27h19.46v.64H6.67zM10.62 26.09h4.2v.59h-4.2zM10.62 20.85h4.2v.54h-4.2zM10.62 15.56h4.2v.54h-4.2zM10.62 10.28h4.2v.54h-4.2zM10.62 4.99h4.2v.54h-4.2zM17.98 26.09h4.2v.59h-4.2zM17.98 20.85h4.2v.54h-4.2zM17.98 15.56h4.2v.54h-4.2zM17.98 10.28h4.2v.54h-4.2zM17.98 4.99h4.2v.54h-4.2zM10.62 38.24h4.2v.54h-4.2zM10.62 43.52h4.2v.54h-4.2zM10.62 48.81h4.2v.54h-4.2zM10.62 54.1h4.2v.54h-4.2zM10.62 59.38h4.2v.54h-4.2zM17.98 38.24h4.2v.54h-4.2zM17.98 43.52h4.2v.54h-4.2zM17.98 48.81h4.2v.54h-4.2zM17.98 54.1h4.2v.54h-4.2zM17.98 59.38h4.2v.54h-4.2z"/><path class="cls-2" d="M0 32.16h32.8v.59H0z"/><path class="cls-2" d="M16.11 16.01h.59v32.85h-.59z"/></g></g></svg>