<svg xmlns="http://www.w3.org/2000/svg" viewBox="0 0 327.65 327.68"><defs><style>.cls-1{fill:#f39200}.cls-2{fill:#36a9e1}.cls-3{fill:#1d71b8}</style></defs><g id="图层_2" data-name="图层 2"><g id="Layer_1" data-name="Layer 1"><path class="cls-1" d="M8.93 124.49c.41-2 1.07-3.89 1.62-5.82.73-2.58 1.61-5.11 2.46-7.66 1.55-4.43 3.32-8.78 5.25-13.06l15 6.8 6.16 2.79c.24.11-.45 1.24-.56 1.47-.65 1.44-1.24 2.9-1.82 4.37-1.29 3.27-2.53 6.58-3.55 10-.41 1.34-.78 2.7-1.16 4-.27.94-.59 1.88-.79 2.84l-15.95-4-6.65-1.69zM22 90.32a146.24 146.24 0 019.62-16.17c1.74-2.52 3.52-5 5.41-7.46.13-.16 1 .68 1.19.8l15.25 11.74 2.07 1.59a125.45 125.45 0 00-12.88 20.25l-14.61-7.59L22 90.32zM42.39 60c3.89-4.48 8-8.73 12.25-12.82 2.3-2.19 4.71-4.24 7.12-6.31.29-.25.51-.72.79-.37l.63.76 12.19 14.87 1.85 2.25c-2.36 1.86-4.6 3.92-6.77 6-2.49 2.37-4.9 4.8-7.26 7.31-.94 1-1.83 2.07-2.74 3.12-.15.17-.25.49-.45.31l-1.83-1.56L43.51 61l-1.12-1z"/><path class="cls-2" d="M198.34 273.7l-2.52-8-.45-1.45c-.09-.26.07-.19.35-.28.88-.29 1.75-.58 2.62-.89q5-1.77 9.84-4a99.52 99.52 0 0012-6.58c3.35-2.15 6.54-4.48 9.66-6.94a102.23 102.23 0 0011.11-10.41c.61-.66 6.1-7 6-7.06l8 6.17a121.54 121.54 0 01-17.8 18.41 114.89 114.89 0 01-21.15 13.8 117 117 0 01-17.63 7.23z"/><path class="cls-1" d="M69.1 35.17l4.34-3.08c2.38-1.68 4.88-3.2 7.33-4.77 4-2.4 8.15-4.62 12.33-6.76q3.66 7.36 7.3 14.75l3 6.06c.11.21-.45.35-.61.43-1.31.67-2.63 1.32-3.93 2-3.07 1.65-6 3.49-9 5.37-2.34 1.5-4.6 3.11-6.87 4.72-.14.1-.78-.93-.88-1.06l-5.44-7.38-7.57-10.28zM100.8 17a161.38 161.38 0 0126.74-8.75q1.87 8 3.73 16l1.53 6.58v.1c-.9.21-1.79.42-2.68.65q-2.58.66-5.13 1.41-5.1 1.5-10.07 3.4c-1.66.64-3.3 1.3-4.93 2-.08-.05-.14-.32-.17-.39l-1.17-2.73q-2.06-4.77-4.1-9.54-1.89-4.38-3.77-8.77z"/><path class="cls-2" d="M322.3 143.37c0-.16-.05-.34-.09-.55a1.5 1.5 0 010-.22c.02.28.06.54.09.77zM322.39 144c0-.13-.05-.3-.08-.52.03.17.06.34.08.52zM314.56 167.43a147.34 147.34 0 01-8.88 47.6 150.81 150.81 0 01-20.79 38.74 153.46 153.46 0 01-30 30.27 150.6 150.6 0 01-170 8.33 151.49 151.49 0 01-56.76-62.64 149.81 149.81 0 01-13.3-42.63c-.62-4-1.08-8-1.37-12.06-.28-3.85-.54-7.76-.44-11.61.07-2.67.05-5.37.25-8 .28-3.91.62-7.79 1.12-11.68.39-3.07.94-6.1 1.48-9.14 0 0 0-.07-.12-.1l6.25 1.21H22.23c.36.09.72.16 1.08.22.06 0 .1.06.09.09-.51 2.89-1 5.77-1.41 8.68-.47 3.69-.79 7.37-1.06 11.08-.19 2.53-.17 5.08-.24 7.62-.09 3.65.16 7.37.42 11q.42 5.74 1.3 11.45A142.32 142.32 0 0058 260.15a143.69 143.69 0 0030.94 25.64 142.25 142.25 0 0038.4 16.46 144.55 144.55 0 0086.72-4.39 142.27 142.27 0 0036.16-20 145.66 145.66 0 0028.48-28.72 143.18 143.18 0 0019.72-36.75 139.67 139.67 0 008.43-45.18 142.1 142.1 0 00-1.27-22.77c-.55-3.74-1.17-7.47-2-11.17s-1.77-7.17-2.78-10.73a137 137 0 00-7.12-18.76 146.55 146.55 0 00-10.87-19.37c-2.06-3.2-4.39-6.25-6.74-9.23s-4.75-5.85-7.33-8.59a156.83 156.83 0 00-16.46-15.2 142.37 142.37 0 00-36.88-21.05 149.05 149.05 0 00-20.13-6.09 144.47 144.47 0 00-56.5-1.25q-.67-3.79-1.34-7.6a147.92 147.92 0 0137.11-1.93A150.07 150.07 0 01197 16.72a157.16 157.16 0 0121.22 6.43 149.78 149.78 0 0138.91 22.21 165.37 165.37 0 0117.34 16c2.73 2.88 5.28 5.94 7.73 9.05s4.93 6.36 7.1 9.73a153.08 153.08 0 0111.46 20.42 145.6 145.6 0 017.51 19.77c1.06 3.75 2.11 7.49 2.93 11.3s1.48 7.83 2.06 11.77a150.54 150.54 0 011.3 24.03z"/><path class="cls-2" d="M314.56 167.43a147.34 147.34 0 01-8.88 47.6 150.81 150.81 0 01-20.79 38.74 153.46 153.46 0 01-30 30.27 150.6 150.6 0 01-170 8.33 151.49 151.49 0 01-56.76-62.64 149.81 149.81 0 01-13.3-42.63c-.62-4-1.08-8-1.37-12.06-.28-3.85-.54-7.76-.44-11.61.07-2.67.05-5.37.25-8 .28-3.91.62-7.79 1.12-11.68.39-3.07.94-6.1 1.48-9.14 0 0 0-.07-.12-.1l6.25 1.21H22.23a5.14 5.14 0 011.08.22c.06 0 .1.06.09.09-.51 2.89-1 5.77-1.41 8.68-.47 3.69-.79 7.37-1.06 11.08-.19 2.53-.17 5.08-.24 7.62-.09 3.65.16 7.37.42 11q.42 5.74 1.3 11.45A142.32 142.32 0 0058 260.15a143.69 143.69 0 0030.94 25.64 142.25 142.25 0 0038.4 16.46 144.55 144.55 0 0086.72-4.39 142.27 142.27 0 0036.16-20 145.66 145.66 0 0028.48-28.72 143.18 143.18 0 0019.72-36.75 139.67 139.67 0 008.43-45.18 142.1 142.1 0 00-1.27-22.77c-.55-3.74-1.17-7.47-2-11.17s-1.77-7.17-2.78-10.73a137 137 0 00-7.12-18.76 146.55 146.55 0 00-10.87-19.37c-2.06-3.2-4.39-6.25-6.74-9.23s-4.75-5.85-7.33-8.59a156.83 156.83 0 00-16.46-15.2 142.37 142.37 0 00-36.88-21.05 149.05 149.05 0 00-20.13-6.09 144.47 144.47 0 00-56.5-1.25q-.67-3.79-1.34-7.6a147.92 147.92 0 0137.11-1.93A150.07 150.07 0 01197 16.72a157.16 157.16 0 0121.22 6.43 149.78 149.78 0 0138.91 22.21 165.37 165.37 0 0117.34 16c2.73 2.88 5.28 5.94 7.73 9.05s4.93 6.36 7.1 9.73a153.08 153.08 0 0111.46 20.42 145.6 145.6 0 017.51 19.77c1.06 3.75 2.11 7.49 2.93 11.3s1.48 7.83 2.06 11.77a150.54 150.54 0 011.3 24.03z"/><path class="cls-3" d="M324.81 194.44a163.37 163.37 0 01-35.59 74.86 166.05 166.05 0 01-28.83 26.92 162.18 162.18 0 01-75.85 30.15 165.81 165.81 0 01-44.78-.43 162.41 162.41 0 01-40.09-11.27 163.66 163.66 0 01-97-121.08 167 167 0 01-2.61-34.8c.1-3.63.38-7.22.66-10.84.42-5.36 1.4-10.67 2.35-16l2.7.53 1.3.26c-.93 5.16-1.88 10.34-2.29 15.57-.27 3.53-.54 7-.64 10.58a163.49 163.49 0 002.54 33.93 159.08 159.08 0 0033 71.6 160.25 160.25 0 0061.58 46.46 158.51 158.51 0 0039.09 11 162.08 162.08 0 0043.67.42 158.34 158.34 0 0074-29.41 161.58 161.58 0 0028.12-26.25 159.63 159.63 0 0034.7-73 164.18 164.18 0 002.2-43.76q-.31-3.55-.79-7.1l-.09-.66c-.06-.49-.14-1-.2-1.41v.19a158.06 158.06 0 00-4.19-20c-1-3.51-2.11-7-3.3-10.43-1.06-3.1-2.22-6.23-3.56-9.22-1.22-2.71-2.4-5.42-3.73-8.08-1.6-3.19-3.29-6.32-5.07-9.42A147.33 147.33 0 00290 65.87a154 154 0 00-14.49-16.25 176.3 176.3 0 00-16.1-13.81 159.67 159.67 0 00-35.47-20 155.38 155.38 0 00-38.71-10.28c-3.46-.44-6.9-.79-10.37-1-3.05-.23-6.1-.31-9.15-.38-4.87-.11-9.75.14-14.6.51-3.48.26-6.93.69-10.39 1.14-1.46.18-2.91.45-4.36.71-.39.07-.52 0-.46.31v-.14l-.69-3.88c-.06-.34.08-.23.47-.3 1.49-.27 3-.55 4.47-.73 3.56-.46 7.09-.9 10.66-1.18 5-.37 10-.62 15-.5 3.13.06 6.26.14 9.39.38 3.56.27 7.09.62 10.63 1.07A159.31 159.31 0 01225.48 12a162.48 162.48 0 0136.37 20.56 179.33 179.33 0 0116.51 14.14 158.68 158.68 0 0114.87 16.66 153.78 153.78 0 0112.4 18.39c1.83 3.18 3.55 6.4 5.19 9.67 1.36 2.71 2.57 5.51 3.83 8.28 1.37 3.07 2.57 6.28 3.65 9.46 1.22 3.54 2.36 7.09 3.39 10.69a158.52 158.52 0 014.19 19.88v-.28c.09.66.29 2.05.43 3.07a2.36 2.36 0 000 .28c.3 2.26.54 4.5.73 6.77a167.91 167.91 0 01-2.23 44.87z"/><path class="cls-3" d="M324.81 194.44a163.37 163.37 0 01-35.59 74.86 166.05 166.05 0 01-28.83 26.92 162.18 162.18 0 01-75.85 30.15 165.81 165.81 0 01-44.78-.43 162.41 162.41 0 01-40.09-11.27 163.66 163.66 0 01-97-121.08 167 167 0 01-2.61-34.8c.1-3.63.38-7.22.66-10.84.42-5.36 1.4-10.67 2.35-16q1.35.28 2.7.54l1.3.26c-.93 5.16-1.88 10.34-2.29 15.57-.27 3.53-.54 7-.64 10.58a163.49 163.49 0 002.54 33.93 159.08 159.08 0 0033 71.6 160.25 160.25 0 0061.58 46.46 158.51 158.51 0 0039.09 11 162.08 162.08 0 0043.67.42 158.34 158.34 0 0074-29.41 161.58 161.58 0 0028.12-26.25 159.63 159.63 0 0034.7-73 164.18 164.18 0 002.2-43.76q-.31-3.55-.79-7.1l-.09-.66c-.06-.49-.14-1-.2-1.41v.19a158.06 158.06 0 00-4.19-20c-1-3.51-2.11-7-3.3-10.43-1.06-3.1-2.22-6.23-3.56-9.22-1.22-2.71-2.4-5.42-3.73-8.08-1.6-3.19-3.29-6.32-5.07-9.42A147.33 147.33 0 00290 65.87a154 154 0 00-14.49-16.25 176.3 176.3 0 00-16.1-13.81 159.67 159.67 0 00-35.47-20 155.38 155.38 0 00-38.71-10.28c-3.46-.44-6.9-.79-10.37-1-3.05-.23-6.1-.31-9.15-.38-4.87-.11-9.75.14-14.6.51-3.48.26-6.93.69-10.39 1.14-1.46.18-2.91.45-4.36.71-.39.07-.52 0-.46.31v-.14l-.69-3.88c-.06-.34.08-.23.47-.3 1.49-.27 3-.55 4.47-.73 3.56-.46 7.09-.9 10.66-1.18 5-.37 10-.62 15-.5 3.13.06 6.26.14 9.39.38 3.56.27 7.09.62 10.63 1.07A159.31 159.31 0 01225.48 12a162.48 162.48 0 0136.37 20.56 179.33 179.33 0 0116.51 14.14 158.68 158.68 0 0114.87 16.66 153.78 153.78 0 0112.4 18.39c1.83 3.18 3.55 6.4 5.19 9.67 1.36 2.71 2.57 5.51 3.83 8.28 1.37 3.07 2.57 6.28 3.65 9.46 1.22 3.54 2.36 7.09 3.39 10.69a158.52 158.52 0 014.19 19.88v-.28c.09.66.29 2.05.43 3.07a2.36 2.36 0 000 .28c.3 2.26.54 4.5.73 6.77a167.91 167.91 0 01-2.23 44.87z"/><path class="cls-1" d="M163.82 34.26a131.65 131.65 0 00-41.51 6.82 128.92 128.92 0 00-36.75 19.5 130.63 130.63 0 00-27.32 28.18A128.69 128.69 0 0040.15 125a126.7 126.7 0 00-5.8 34.22 123.61 123.61 0 00.65 18.87A129.39 129.39 0 0038.53 197c.71 2.48 1.39 5 2.22 7.4a130.76 130.76 0 0013.69 28.9 135.25 135.25 0 0016.84 21.25 128.5 128.5 0 0015.88 13.78 121 121 0 0016.45 10.27c2.44 1.24 4.86 2.44 7.35 3.56 2.07.94 4.17 1.78 6.28 2.62a133.56 133.56 0 0020.16 6 136.45 136.45 0 0019.84 2.54c2 .15 4 .13 6 .15 3.7 0 7.41-.14 11.11-.45A128.56 128.56 0 00241 267.89 127.08 127.08 0 00264.85 245a129 129 0 0019.31-33.06 130.07 130.07 0 004.59-82.53 143 143 0 00-4.95-14.49 124.82 124.82 0 00-9.12-18.16c-2.05-3.44-4.39-6.72-6.72-10-1.15-1.62-2.44-3.2-3.7-4.75-1.67-2-3.39-4.09-5.22-6-2.12-2.22-4.27-4.41-6.5-6.53-1.82-1.74-3.73-3.37-5.63-5a119.08 119.08 0 00-16.54-11.75 128.89 128.89 0 00-57.1-18c-2.92-.2-5.86-.33-8.79-.37-.41 0-.66.16-.66-.26v-2.65a132 132 0 0176.86 24.63c2.15 1.54 4.23 3.15 6.31 4.79 1.92 1.5 3.73 3.14 5.57 4.73 2.06 1.79 4.06 3.78 5.94 5.75a128.23 128.23 0 019.42 10.75c2.49 3.27 4.94 6.56 7.16 10 1.89 3 3.78 5.94 5.38 9.06 1 2 2.11 4 3 6q.94 2.07 1.87 4.16c1.2 2.64 2.22 5.38 3.2 8.11a133.21 133.21 0 016.68 60.18q-.6 5.06-1.58 10.05c-.48 2.43-1 4.9-1.64 7.28-.9 3.2-1.82 6.38-2.88 9.53a120.65 120.65 0 01-4.41 11.27 132.08 132.08 0 01-20.49 32.3 134.81 134.81 0 01-27.49 24.24c-2.57 1.7-5.2 3.29-7.87 4.83-4.06 2.33-8.28 4.33-12.53 6.25-3.85 1.74-7.85 3.1-11.84 4.46a121.61 121.61 0 01-13.79 3.63 127.79 127.79 0 01-35.6 2.45 135.61 135.61 0 01-20.64-3 132.77 132.77 0 01-18.82-5.77 130.78 130.78 0 01-13.78-6.31 133.77 133.77 0 01-33.47-25.24 139.22 139.22 0 01-16.47-21 132.1 132.1 0 011.85-144.29 133.94 133.94 0 0126.17-28.84 132 132 0 0135.84-21 133.41 133.41 0 0141.08-8.82q3.48-.18 7-.2v2.81z"/><path class="cls-3" d="M163.81 289.48v-16.69a12.25 12.25 0 010-1.75c2.43-.06 4.86-.11 7.29-.28a97.35 97.35 0 0010.23-1.18 95 95 0 009.89-2.1l1.87-.53 2.25 7.92.92 3.25c0 .19 6.82-2.09 7.49-2.33a118.09 118.09 0 0031.28-16.85 120.79 120.79 0 0013.43-11.73q3.13-3.18 6-6.59c.47-.55 5.4-6.66 5.29-6.73l-6.8-5-2.53-1.89s3.61-5.32 3.93-5.81a106 106 0 009.26-18.19 99.25 99.25 0 005.27-17.76 103 103 0 002-16.88c.07-3 .14-5.9 0-8.85-.16-3.58-.48-7.15-1-10.69a108.47 108.47 0 00-13.63-39.17 104.75 104.75 0 00-18.46-23.35 108.07 108.07 0 00-34.15-22 106.94 106.94 0 00-114 22.22 106.8 106.8 0 00-32.87 72.32 113.44 113.44 0 001.15 21.63c.51 2.84 1.06 5.66 1.7 8.48A103.19 103.19 0 0062.53 199a105.48 105.48 0 0019.88 34.59 108.59 108.59 0 0031.21 25 99 99 0 009.57 4.47 86.78 86.78 0 009.16 3.28c3.34.94 6.67 1.85 10.07 2.55s6.7 1.11 10.06 1.55a94.84 94.84 0 009.68.55c.15 0 1.61 0 1.61.11v18.38a127.94 127.94 0 01-42.85-7.55 132.94 132.94 0 01-14.87-6.53c-3.89-2-7.59-4.26-11.27-6.6a114.17 114.17 0 01-13.44-10.23 121.57 121.57 0 01-12-12 126.26 126.26 0 01-23-38.29 98 98 0 01-3.13-9.42c-1-3.71-2-7.45-2.71-11.26-.44-2.43-.86-4.86-1.17-7.32-.4-3.14-.68-6.27-.91-9.42a124.49 124.49 0 01-.06-12.52c.09-2.92.32-5.87.69-8.76a130.65 130.65 0 013.74-19.31 128.18 128.18 0 017.91-21 124.64 124.64 0 0110.67-18.13c2.77-3.89 5.78-7.56 8.91-11.17 1.87-2.16 3.91-4.24 6-6.21 2.51-2.38 5-4.73 7.71-6.93A142.07 142.07 0 0197.75 57c2.72-1.75 5.59-3.31 8.47-4.79a109.67 109.67 0 0115-6.58c3-1 5.91-2 8.92-2.82a121 121 0 0120.68-3.89 129.19 129.19 0 0129.35.4 115.88 115.88 0 0117.1 3.45 121.26 121.26 0 0116.79 5.94c2.51 1.14 5 2.3 7.42 3.55a123.21 123.21 0 0115.42 9.43 130.69 130.69 0 0115.9 13.52 118.32 118.32 0 0112.48 14.63 137.87 137.87 0 0111.33 18.7 135.21 135.21 0 016.7 16.58c.79 2.33 1.41 4.71 2.08 7.07.93 3.26 1.51 6.63 2.14 10a86.37 86.37 0 011.26 9c.28 3.73.5 7.43.6 11.17a118.9 118.9 0 01-1.94 23.59 124.36 124.36 0 01-14.19 39.55 127 127 0 01-23.86 30.27A124.92 124.92 0 01174.59 289c-3.58.31-7.18.48-10.78.49z"/><path class="cls-1" d="M159.74 79.89a4.09 4.09 0 114.09 4.11 4.09 4.09 0 01-4.09-4.09zM220.3 101.59a4.09 4.09 0 110 5.78 4.1 4.1 0 010-5.78zM247.77 159.75a4.09 4.09 0 11-4.08 4.09 4.09 4.09 0 014.08-4.09zM226.08 220.31a4.09 4.09 0 11-5.78 0 4.1 4.1 0 015.78 0zM167.91 247.79a4.09 4.09 0 11-4.08-4.09 4.08 4.08 0 014.08 4.09zM107.36 226.09a4.09 4.09 0 110-5.78 4.08 4.08 0 010 5.78zM79.88 167.93a4.09 4.09 0 114.12-4.09 4.09 4.09 0 01-4.09 4.09zM101.58 107.37a4.09 4.09 0 115.78 0 4.08 4.08 0 01-5.78 0zM182.74 82a4.08 4.08 0 112.81 5 4.08 4.08 0 01-2.81-5zM235.1 119.3a4.09 4.09 0 11-1.57 5.56 4.09 4.09 0 011.57-5.56zM245.72 182.75a4.09 4.09 0 11-5 2.82 4.09 4.09 0 015-2.82zM208.36 235.12a4.09 4.09 0 11-5.56-1.58 4.09 4.09 0 015.56 1.58zM144.92 245.73a4.08 4.08 0 11-2.82-5 4.08 4.08 0 012.82 5zM92.55 208.38a4.09 4.09 0 111.57-5.56 4.09 4.09 0 01-1.57 5.56zM81.94 144.93a4.08 4.08 0 115-2.82 4.07 4.07 0 01-5 2.82zM119.29 92.57a4.09 4.09 0 115.56 1.57 4.1 4.1 0 01-5.56-1.57zM202.71 89.33a4.09 4.09 0 111.46 5.59 4.08 4.08 0 01-1.46-5.59zM244 138.64a4.09 4.09 0 11-2.92 5 4.1 4.1 0 012.92-5zM238.34 202.72a4.09 4.09 0 11-5.59 1.46 4.08 4.08 0 015.59-1.46zM189 244a4.08 4.08 0 11-5-2.92 4.09 4.09 0 015 2.92zM125 238.35a4.09 4.09 0 11-1.46-5.59 4.1 4.1 0 011.46 5.59zM83.65 189a4.09 4.09 0 112.92-5 4.09 4.09 0 01-2.92 5zM89.32 125a4.08 4.08 0 115.59-1.46 4.09 4.09 0 01-5.59 1.46zM138.63 83.66a4.09 4.09 0 115 2.92 4.09 4.09 0 01-5-2.92z"/></g></g></svg>