<svg xmlns="http://www.w3.org/2000/svg" viewBox="0 0 421.92 764.61"><defs><style>.cls-1{opacity:.5}.cls-2{fill:#3fa9f5}.cls-23{fill:none}.cls-26{opacity:.2}</style></defs><g id="图层_2" data-name="图层 2"><g id="Layer_2" data-name="Layer 2"><g class="cls-1"><path class="cls-2" d="M296.08 461.69l.58.07-.92 6.94-.57-.07.91-6.94z"/><path class="cls-2" transform="rotate(-82.55 316.925 305.571)" d="M313.43 305.28h7v.58h-7z"/><path class="cls-2" d="M286.21 459.68l.56.15-1.81 6.76-.56-.15 1.81-6.76z"/><path class="cls-2" transform="rotate(-75.01 327.242 307.62)" d="M323.75 307.33h7v.58h-7z"/><path class="cls-2" transform="rotate(-67.36 275.61 459.755)" d="M272.11 459.46h7v.58h-7z"/><path class="cls-2" transform="rotate(-67.55 337.234 311.013)" d="M333.73 310.72h7v.58h-7z"/><path class="cls-2" transform="rotate(-59.96 266.154 455.085)" d="M262.67 454.81h7v.58h-7z"/><path class="cls-2" d="M348.17 312.49l.5.29-3.5 6.07-.5-.3 3.5-6.06zM259.31 446.29l.47.36-4.27 5.55-.46-.35 4.26-5.56z"/><path class="cls-2" transform="rotate(-52.5 355.448 321.528)" d="M351.93 321.23h7v.58h-7z"/><path class="cls-2" transform="rotate(-44.97 249.45 442.272)" d="M246 442.01h7v.58h-7z"/><path class="cls-2" transform="rotate(-45.03 363.39 328.476)" d="M359.84 328.17h7v.58h-7z"/><path class="cls-2" d="M245.15 432.02l.36.47-5.55 4.26-.36-.46 5.55-4.27z"/><path class="cls-2" transform="rotate(-37.51 370.237 336.357)" d="M366.78 336.09h7v.58h-7z"/><path class="cls-2" transform="rotate(-29.87 236.704 425.642)" d="M233.2 425.34h7v.58h-7z"/><path class="cls-2" transform="rotate(-30 376.157 345.151)" d="M372.63 344.84h7v.58h-7z"/><path class="cls-2" d="M235.17 414.58l.22.54-6.46 2.68-.23-.54 6.47-2.68z"/><path class="cls-2" transform="rotate(-22.5 380.831 354.599)" d="M377.29 354.29h7v.58h-7z"/><path class="cls-2" transform="rotate(-14.97 228.651 406.213)" d="M225.16 405.93h7v.58h-7z"/><path class="cls-2" transform="rotate(-15 382.259 362.804)" d="M380.68 364.26h7v.58h-7z"/><path class="cls-2" transform="rotate(-7.41 226.67 395.933)" d="M223.11 395.6h7v.58h-7z"/><path class="cls-2" transform="rotate(-7.51 386.336 374.937)" d="M382.73 374.58h7v.58h-7z"/><path class="cls-2" d="M222.42 385.09h7v.58h-7zM383.42 385.09h7v.58h-7z"/><path class="cls-2" transform="rotate(-82.44 226.59 374.868)" d="M226.32 371.38h.58v7h-.58z"/><path class="cls-2" d="M389.74 396.06l-.08.57-6.94-.91.08-.58 6.94.92z"/><path class="cls-2" transform="rotate(-74.96 228.64 364.537)" d="M228.37 361.05h.58v7h-.58z"/><path class="cls-2" transform="rotate(-75.03 384.181 406.219)" d="M383.89 402.72h.58v7h-.58z"/><path class="cls-2" transform="rotate(-67.49 232.024 354.568)" d="M231.76 351.08h.58v7h-.58z"/><path class="cls-2" d="M384.14 417.26l-.22.54-6.47-2.68.22-.54 6.47 2.68z"/><path class="cls-2" transform="rotate(-59.95 236.727 345.146)" d="M236.41 341.63h.58v7h-.58z"/><path class="cls-2" transform="rotate(-60.17 376.154 425.64)" d="M375.84 422.13h.58v7h-.58z"/><path class="cls-2" transform="rotate(-52.49 242.52 336.364)" d="M242.26 332.88h.58v7h-.58z"/><path class="cls-2" transform="rotate(-52.56 370.334 434.409)" d="M369.99 430.89h.58v7h-.58z"/><path class="cls-2" transform="rotate(-44.97 249.46 328.443)" d="M249.21 324.96h.58v7h-.58z"/><path class="cls-2" d="M366.02 444.57l-.41.42-4.95-4.95.41-.42 4.95 4.95z"/><path class="cls-2" transform="rotate(-37.45 257.435 321.528)" d="M257.12 318.02h.58v7h-.58z"/><path class="cls-2" transform="rotate(-37.51 355.37 449.21)" d="M355.13 445.75h.58v7h-.58z"/><path class="cls-2" transform="rotate(-29.98 266.17 315.658)" d="M265.88 312.17h.58v7h-.58z"/><path class="cls-2" d="M348.67 457.98l-.5.29-3.5-6.06.5-.29 3.5 6.06z"/><path class="cls-2" transform="rotate(-22.47 275.587 310.996)" d="M275.32 307.51h.58v7h-.58z"/><path class="cls-2" transform="rotate(-22.54 337.23 459.763)" d="M336.93 456.25h.58v7h-.58z"/><path class="cls-2" transform="rotate(-14.99 285.67 307.717)" d="M285.29 304.13h.58v7h-.58z"/><path class="cls-2" transform="rotate(-14.94 327.374 463.278)" d="M326.96 459.64h.58v7h-.58z"/><path class="cls-2" transform="rotate(-7.5 295.992 305.703)" d="M295.62 302.07h.58v7h-.58z"/><path class="cls-2" transform="rotate(-7.5 316.877 465.124)" d="M316.64 461.69h.58v7h-.58z"/></g><circle cx="306.42" cy="385.38" r="108.49" stroke-width="3" stroke="#3fa9f5" stroke-miterlimit="10" fill="none"/><path d="M229.18 442.3l-6.42 4.77a103.85 103.85 0 009.91 11.56l5.66-5.65a95.85 95.85 0 01-9.15-10.68z" opacity=".14" fill="#3fa9f5"/><path d="M238.33 453l-5.66 5.65a106.65 106.65 0 008.63 7.81l5-6.27a96.78 96.78 0 01-7.97-7.19z" opacity=".47" fill="#3fa9f5"/><path d="M210.43 386.38h-8a105.14 105.14 0 00.66 10.84l7.95-.92a95.87 95.87 0 01-.61-9.92z" opacity=".63" fill="#3fa9f5"/><path d="M280.61 477.84l-2.07 7.73a105.25 105.25 0 0012.68 2.7l1.17-7.92a94.7 94.7 0 01-11.78-2.51z" opacity=".79" fill="#3fa9f5"/><path d="M267.37 473.09l-3.18 7.34a103.57 103.57 0 0014.35 5.14l2.07-7.73a95.49 95.49 0 01-13.24-4.75z" opacity=".67" fill="#3fa9f5"/><path d="M246.27 460.17l-5 6.27a104.07 104.07 0 0012.54 8.65l4-6.93a95.82 95.82 0 01-11.54-7.99z" opacity=".12" fill="#3fa9f5"/><path d="M362.5 463.23l4.77 6.42a103.75 103.75 0 0011.66-9.8l-5.66-5.65a95.72 95.72 0 01-10.77 9.03z" opacity=".91" fill="#3fa9f5"/><path d="M373.27 454.2l5.66 5.65a105.9 105.9 0 008.23-9l-6.27-5a96.44 96.44 0 01-7.62 8.35z" opacity=".48" fill="#3fa9f5"/><path d="M380.89 445.92l6.27 5a104.86 104.86 0 008.71-12.5l-6.93-4a95.81 95.81 0 01-8.05 11.5z" opacity=".45" fill="#3fa9f5"/><path d="M329.93 478.44l2.07 7.73a104.33 104.33 0 0035.27-16.52l-4.77-6.42a96.17 96.17 0 01-32.57 15.21z" opacity=".46" fill="#3fa9f5"/><path d="M316.08 480.9l.92 8a102.57 102.57 0 0015-2.68l-2.07-7.73a94 94 0 01-13.85 2.41z" opacity=".36" fill="#3fa9f5"/><path d="M211.45 371.36a97 97 0 012.16-10.49l-7.73-2.07a105.37 105.37 0 00-2.34 11.39c0 .33-.09.66-.14 1l7.92 1.17c.04-.36.08-.67.13-1z" opacity=".93" fill="#3fa9f5"/><path d="M365.5 309.74l5-6.26a102.68 102.68 0 00-12.68-8.48l-4 6.92a95.93 95.93 0 0111.68 7.82z" opacity=".95" fill="#3fa9f5"/><path d="M401.77 374.24l8-.92a103.77 103.77 0 00-2.89-15l-7.73 2.07a94.91 94.91 0 012.62 13.85z" opacity=".31" fill="#3fa9f5"/><path d="M248.11 309.19l-4.77-6.42a104 104 0 00-11.34 10.1l5.65 5.66a96 96 0 0110.46-9.34z" opacity=".86" fill="#3fa9f5"/><path d="M294 290.18l-.92-7.95a103.35 103.35 0 00-14.92 3.08l2.07 7.73a94.49 94.49 0 0113.77-2.86z" opacity=".67" fill="#3fa9f5"/><path d="M330.3 292.4l2.07-7.72a104.88 104.88 0 00-10.75-2.18l-1.17 7.91a99.24 99.24 0 019.85 1.99z" opacity=".58" fill="#3fa9f5"/><path d="M320.45 290.41l1.17-7.91a103.17 103.17 0 00-15.2-1.11v8a98.35 98.35 0 0114.03 1.02z" opacity=".82" fill="#3fa9f5"/><path class="cls-2" d="M382.85 308.45l4.95-4.95a116.29 116.29 0 00-24.24-18.5l-9.83 2.15c8.35 4.85 22.34 14.57 29.12 21.3z"/><path class="cls-2" d="M411.2 357.19l6.76-1.81a115.6 115.6 0 00-30.16-51.88l-4.95 4.95a108.52 108.52 0 0128.35 48.74z"/><path class="cls-2" d="M414.92 385.38v1h7v-1a115.12 115.12 0 00-4-30l-6.76 1.81a108.37 108.37 0 013.76 28.19zM410.06 418.87l7.84-3.26a115.51 115.51 0 004-29.23h-7c-.08 9.48-2.46 23.74-4.84 32.49zM304.42 476.86a91.5 91.5 0 010-182.95v-1a92.5 92.5 0 000 185zM308.42 292.91v1a91.5 91.5 0 010 183v1a92.5 92.5 0 000-184.95z"/><path class="cls-2" d="M302.42 293.38h2v4h-2zM308.42 293.38h2v4h-2zM302.42 473.38h2v4h-2zM308.42 473.38h2v4h-2z"/><path d="M359.57 400.29a55 55 0 11-38.07-67.83 55 55 0 0138.07 67.83z" stroke="#3fa9f5" stroke-miterlimit="10" fill="none" opacity=".5"/><path class="cls-2" d="M260.24 410.87l-3 1.7A58 58 0 00266 424.5l2.5-2.43a54.24 54.24 0 01-8.26-11.2zM268.53 422.07L266 424.5a56.92 56.92 0 0011.6 9.28l1.78-3a53.69 53.69 0 01-10.85-8.71z"/><path class="cls-2" d="M253.4 385.88h-3.49v.17a57.6 57.6 0 007.29 26.56l3-1.7a54.19 54.19 0 01-6.79-24.91c-.02-.72-.02.58-.01-.12zM292.79 436.6l-.94 3.35a57.23 57.23 0 0014.15 2.13v-3.48a54.21 54.21 0 01-13.21-2z"/><path class="cls-2" d="M279.41 430.79l-1.78 3a57 57 0 0014.22 6.21l.94-3.35a53.89 53.89 0 01-13.38-5.86zM271.47 418.28l-2.12 7.7-5.61-5.69 7.73-2.01z"/><g class="cls-1"><path class="cls-2" transform="rotate(-90 364.035 385.995)" d="M364.42 382.52h1v7h-1z"/><path class="cls-2" transform="rotate(-90 247.21 385.59)" d="M247.42 382.24h1v7h-1z"/><path class="cls-2" transform="rotate(-86.11 364.81 389.849)" d="M364.29 386.34h1v7h-1z"/><path class="cls-2" transform="rotate(-86 248.975 381.307)" d="M247.55 378.42h1v7h-1z"/><path class="cls-2" transform="rotate(-82.36 364.417 393.653)" d="M363.91 390.15h1v7h-1z"/><path class="cls-2" transform="rotate(-82.37 248.464 378.122)" d="M247.94 374.62h1v7h-1z"/><path class="cls-2" transform="rotate(-78.61 363.766 397.424)" d="M363.27 393.92h1v7h-1z"/><path class="cls-2" transform="rotate(-78.62 249.102 374.35)" d="M248.57 370.84h1v7h-1z"/><path class="cls-2" transform="rotate(-74.86 362.916 401.154)" d="M362.4 397.65h1v7h-1z"/><path class="cls-2" transform="rotate(-74.87 249.976 370.627)" d="M249.45 367.12h1v7h-1z"/><path class="cls-2" transform="rotate(-71.3 359.914 403.223)" d="M361.28 401.31h1v7h-1z"/><path class="cls-2" transform="rotate(-71.13 251.048 366.956)" d="M250.56 363.46h1v7h-1z"/><path class="cls-2" transform="rotate(-67.37 360.451 408.39)" d="M359.92 404.88h1v7h-1z"/><path class="cls-2" transform="rotate(-67.38 252.436 363.388)" d="M251.92 359.88h1v7h-1z"/><path class="cls-2" d="M361.75 413.87l-6.27-3.11.44-.9 6.27 3.11-.44.9z"/><path class="cls-2" transform="rotate(-63.64 253.974 359.887)" d="M253.51 356.4h1v7h-1z"/><path class="cls-2" transform="rotate(-59.88 357.033 415.236)" d="M356.53 411.73h1v7h-1z"/><path class="cls-2" transform="rotate(-59.89 255.807 356.527)" d="M255.32 353.03h1v7h-1z"/><path class="cls-2" transform="rotate(-56.14 354.99 418.475)" d="M354.5 414.98h1v7h-1z"/><path class="cls-2" transform="rotate(-56.14 257.879 353.308)" d="M257.34 349.79h1v7h-1z"/><path class="cls-2" d="M355.23 424.12l-5.54-4.28.61-.79 5.54 4.27-.61.8z"/><path class="cls-2" transform="rotate(-52.4 260.042 350.16)" d="M259.58 346.68h1v7h-1z"/><path class="cls-2" transform="rotate(-48.64 350.334 424.54)" d="M349.83 421.03h1v7h-1z"/><path class="cls-2" transform="rotate(-48.65 262.496 347.223)" d="M262.01 343.73h1v7h-1z"/><path class="cls-2" transform="rotate(-44.89 347.752 427.338)" d="M347.21 423.82h1v7h-1z"/><path class="cls-2" transform="rotate(-44.9 265.13 344.45)" d="M264.63 340.94h1v7h-1z"/><path class="cls-2" transform="rotate(-41.14 344.968 429.96)" d="M344.42 426.43h1v7h-1z"/><path class="cls-2" transform="rotate(-41.15 267.95 341.847)" d="M267.42 338.33h1v7h-1z"/><path class="cls-2" transform="rotate(-37.4 341.9 432.318)" d="M341.46 428.85h1v7h-1z"/><path class="cls-2" transform="rotate(-37.41 270.859 339.388)" d="M270.39 335.91h1v7h-1z"/><path class="cls-2" transform="rotate(-33.64 338.893 434.611)" d="M338.34 431.08h1v7h-1z"/><path class="cls-2" transform="rotate(-33.66 273.984 337.179)" d="M273.5 333.69h1v7h-1z"/><path class="cls-2" transform="rotate(-29.89 335.64 436.624)" d="M335.09 433.09h1v7h-1z"/><path class="cls-2" transform="rotate(-29.91 277.253 335.167)" d="M276.75 331.67h1v7h-1z"/><path class="cls-2" transform="rotate(-26.15 332.278 438.441)" d="M331.71 434.89h1v7h-1z"/><path class="cls-2" transform="rotate(-26.16 280.701 333.432)" d="M280.13 329.88h1v7h-1z"/><path class="cls-2" transform="rotate(-22.41 328.735 439.959)" d="M328.23 436.46h1v7h-1z"/><path class="cls-2" transform="rotate(-22.42 284.092 331.793)" d="M283.61 328.3h1v7h-1z"/><path class="cls-2" transform="rotate(-18.66 325.203 441.363)" d="M324.65 437.8h1v7h-1z"/><path class="cls-2" transform="rotate(-18.2 290.794 328.718)" d="M287.2 326.96h1v7h-1z"/><path class="cls-2" transform="rotate(-15 317.904 438.213)" d="M320.98 438.91h1v7h-1z"/><path class="cls-2" transform="rotate(-14.92 291.428 329.417)" d="M290.86 325.86h1v7h-1z"/><path class="cls-2" transform="rotate(-11.17 317.931 443.436)" d="M317.26 439.77h1v7h-1z"/><path class="cls-2" transform="rotate(-11.18 294.997 328.421)" d="M294.58 324.99h1v7h-1z"/><path class="cls-2" transform="rotate(-7.43 313.844 443.686)" d="M313.48 440.39h1v7h-1z"/><path class="cls-2" transform="rotate(-7.43 299.009 327.964)" d="M298.36 324.37h1v7h-1z"/><path class="cls-2" transform="rotate(-3.68 309.965 443.867)" d="M309.67 440.76h1v7h-1z"/><path class="cls-2" transform="rotate(-3.68 303.096 327.885)" d="M302.17 324h1v7h-1z"/><path class="cls-2" transform="rotate(-89.89 306.315 444.378)" d="M302.85 443.88h7v1h-7z"/><path class="cls-2" d="M305.99 323.88h1v7h-1z"/><path class="cls-2" transform="rotate(-86.19 302.55 444.258)" d="M299.02 443.75h7v1h-7z"/><path class="cls-2" transform="rotate(-86.19 310.333 327.516)" d="M306.81 327.01h7v1h-7z"/><path class="cls-2" transform="rotate(-82.48 298.702 443.867)" d="M295.22 443.37h7v1h-7z"/><path class="cls-2" transform="rotate(-82.43 314.14 327.894)" d="M310.62 327.39h7v1h-7z"/><path class="cls-2" transform="rotate(-78.74 294.914 443.24)" d="M291.45 442.75h7v1h-7z"/><path class="cls-2" transform="rotate(-78.68 317.882 328.516)" d="M314.39 328.02h7v1h-7z"/><path class="cls-2" transform="rotate(-74.94 291.255 442.382)" d="M287.72 441.87h7v1h-7z"/><path class="cls-2" transform="rotate(-74.93 321.623 329.39)" d="M318.12 328.89h7v1h-7z"/><path class="cls-2" transform="rotate(-71.19 287.577 441.27)" d="M284.06 440.76h7v1h-7z"/><path class="cls-2" transform="rotate(-71.21 325.267 330.503)" d="M321.78 330h7v1h-7z"/><path class="cls-2" transform="rotate(-67.49 284 439.918)" d="M280.48 439.41h7v1h-7z"/><path class="cls-2" transform="rotate(-67.44 328.864 331.86)" d="M325.36 331.36h7v1h-7z"/><path class="cls-2" transform="rotate(-63.69 280.489 438.325)" d="M277 437.83h7v1h-7z"/><path class="cls-2" transform="rotate(-63.68 332.364 333.447)" d="M328.84 332.94h7v1h-7z"/><path class="cls-2" transform="rotate(-59.98 277.12 436.514)" d="M273.63 436.02h7v1h-7z"/><path class="cls-2" transform="rotate(-59.93 335.685 335.236)" d="M332.21 334.74h7v1h-7z"/><path class="cls-2" transform="rotate(-56 275.81 434.815)" d="M270.38 434h7v1h-7z"/><path class="cls-2" transform="rotate(-56.22 338.937 337.263)" d="M335.46 336.77h7v1h-7z"/><path class="cls-2" transform="rotate(-52.46 270.759 432.26)" d="M267.27 431.77h7v1h-7z"/><path class="cls-2" transform="rotate(-52.46 342.1 339.505)" d="M338.57 339h7v1h-7z"/><path class="cls-2" transform="rotate(-48.69 267.78 429.808)" d="M264.32 429.34h7v1h-7z"/><path class="cls-2" transform="rotate(-48.72 345.047 341.94)" d="M341.52 341.42h7v1h-7z"/><path class="cls-2" transform="rotate(-45 265.065 427.256)" d="M261.53 426.72h7v1h-7z"/><path class="cls-2" transform="rotate(-44.96 347.844 344.559)" d="M344.31 344.04h7v1h-7z"/><path class="cls-2" transform="rotate(-41.24 262.4 424.41)" d="M258.91 423.93h7v1h-7z"/><path class="cls-2" transform="rotate(-41.19 350.465 347.35)" d="M346.92 346.84h7v1h-7z"/><path class="cls-2" transform="rotate(-37.5 259.979 421.468)" d="M256.49 420.97h7v1h-7z"/><path class="cls-2" transform="rotate(-37.51 352.844 350.29)" d="M349.35 349.79h7v1h-7z"/><path class="cls-2" transform="rotate(-33.69 257.786 418.38)" d="M254.26 417.86h7v1h-7z"/><path class="cls-2" transform="rotate(-33.69 355.052 353.4)" d="M351.58 352.9h7v1h-7z"/><path class="cls-2" transform="rotate(-29.92 255.697 415.081)" d="M252.24 414.61h7v1h-7z"/><path class="cls-2" transform="rotate(-29.99 357.175 356.69)" d="M353.59 356.15h7v1h-7z"/><path class="cls-2" transform="rotate(-26.21 253.994 411.797)" d="M250.44 411.24h7v1h-7z"/><path class="cls-2" transform="rotate(-26.19 358.917 360.028)" d="M355.4 359.53h7v1h-7z"/><path class="cls-2" transform="rotate(-22.45 252.447 408.33)" d="M248.87 407.75h7v1h-7z"/><path class="cls-2" transform="rotate(-22.51 360.425 363.489)" d="M356.97 363.01h7v1h-7z"/><path class="cls-2" transform="rotate(-18.74 250.942 404.587)" d="M247.52 404.17h7v1h-7z"/><path class="cls-2" transform="rotate(-18.68 361.896 367.157)" d="M358.32 366.59h7v1h-7z"/><path class="cls-2" transform="matrix(.97 -.26 .26 .97 -95.2 78.26)" d="M246.41 400.51h7v1h-7z"/><path class="cls-2" transform="rotate(-14.94 363.074 370.87)" d="M359.43 370.25h7v1h-7z"/><path class="cls-2" transform="rotate(-11.21 249.019 397.267)" d="M245.54 396.79h7v1h-7z"/><path class="cls-2" transform="rotate(-11.27 363.661 374.361)" d="M360.3 373.98h7v1h-7z"/><path class="cls-2" transform="rotate(-7.45 248.544 393.705)" d="M244.92 393.01h7v1h-7z"/><path class="cls-2" transform="rotate(-7.52 364.594 378.428)" d="M360.92 377.75h7v1h-7z"/><path class="cls-2" transform="rotate(-3.75 247.937 389.597)" d="M244.54 389.21h7v1h-7z"/><path class="cls-2" transform="rotate(-3.69 365.103 382.343)" d="M361.3 381.56h7v1h-7z"/><path class="cls-2" d="M244.42 385.38h7v1h-7zM361.42 385.38h7v1h-7z"/></g><path class="cls-23" d="M303.28 317.89a67.56 67.56 0 11-64.35 70.63 67.56 67.56 0 0164.35-70.63z"/><path class="cls-2" d="M309.61 453.87l-.1-2a66.63 66.63 0 0063.4-69.58c0-1-.11-2-.2-2.94l2-.18q.14 1.5.21 3a68.64 68.64 0 01-65.31 71.7z"/><path class="cls-23" d="M369.64 409.22a67.57 67.57 0 11-39.38-87.06 67.55 67.55 0 0139.38 87.06z"/><path class="cls-2" d="M285.1 450.54c-1-.33-2-.66-2.87-1a68.65 68.65 0 01-40-88.35l1.87.71a66.64 66.64 0 0038.8 85.77c.92.35 1.85.67 2.78 1z"/><path class="cls-23" d="M258.76 433.28a67.57 67.57 0 1195.55-.24 67.56 67.56 0 01-95.55.24z"/><path class="cls-2" d="M257.2 340.57l-1.47-1.35c.72-.79 1.4-1.51 2.09-2.2a68.15 68.15 0 0148.43-20.2h.18a68.08 68.08 0 0148.35 20l-1.41 1.42a66.12 66.12 0 00-46.94-19.38h-.17a66.12 66.12 0 00-47 19.61c-.72.66-1.4 1.38-2.06 2.1z"/><g opacity=".3"><path class="cls-2" d="M218.54 472.76l-.7.71a125.49 125.49 0 0025.51 19.78l.5-.86a125.17 125.17 0 01-25.31-19.63zM186.62 417.37l-1 .26a125 125 0 0032.18 55.84l.7-.71a124.13 124.13 0 01-31.88-55.39zM182.43 385.38a123.74 123.74 0 014.13-31.76l-1-.26a124.88 124.88 0 00-4.17 32v1h1c.05-.31.04-.64.04-.98z"/><path class="cls-2" d="M182.45 386.38h-1a124.45 124.45 0 004.21 31.25l1-.26a123.76 123.76 0 01-4.21-30.99zM273 266l-.26-1a125.06 125.06 0 00-55.63 33l.71.71A124 124 0 01273 266zM217.82 298.75l-.71-.71a126 126 0 00-19.49 25.89l.86.5a124.7 124.7 0 0119.34-25.68z"/><path class="cls-2" d="M198.48 324.43l-.86-.5a124.43 124.43 0 00-12 29.43l1 .26a123.41 123.41 0 0111.86-29.19zM337.54 265.35l.26-1a124.48 124.48 0 00-31.38-4v1a123.73 123.73 0 0131.12 4zM306.42 261.4v-1a124.78 124.78 0 00-33.68 4.6l.26 1a123.65 123.65 0 0133.42-4.6z"/></g><g opacity=".7"><path class="cls-2" d="M182.45 386.38h-1a124.45 124.45 0 004.21 31.25l1-.26a123.76 123.76 0 01-4.21-30.99zM273 266l-.26-1a125.06 125.06 0 00-55.63 33l.71.71A124 124 0 01273 266z"/></g><circle class="cls-2" cx="337.62" cy="264.88" r="2"/><circle class="cls-2" cx="243.62" cy="492.88" r="2"/><circle class="cls-2" cx="184.45" cy="361.06" r="2"/><circle class="cls-2" cx="193.15" cy="333.67" r="2"/><path class="cls-2" d="M193.71 321.08v.56m-.14-1.67v.56m.14-1.68v.56M187.28 330.68v-.27h.56v.59l-.28.27M182.26 333.25l.28.28v2.24l-.28.27m-.28-.56v-1.67M184.9 336l-1.4-1.86V336h-.56v-2.79h.56l1.4 1.86v-1.86h.55V336zM183.15 338.05l.27.28v.55h-.55v-.27h-1.4v.55h1.68l.27.28v1.13l-.27.27m-1.68-.83v.27h1.4v-.55M181.75 345.08v.56M191.98 764.62l-148-282 .86-.52 182 272-.84.56-176.77-264.2 143.63 273.69-.88.47z"/><g class="cls-26"><path class="cls-2" transform="rotate(-46.76 189.414 619.932)" d="M188.96 423.79h1v392.37h-1z"/></g><path class="cls-2" d="M48.61 482.89a3.75 3.75 0 11-3.75-3.75 3.75 3.75 0 013.75 3.75z"/><path class="cls-2" d="M45.32 483.08l-.92-.39 37.46-88.28L3.83 252.34l.19-.25L147.74 54.46 84.1.77l.64-.77 64.36 54.3-.28.38L5.01 252.42l77.96 141.93-.09.23-37.56 88.5z"/><path class="cls-2" transform="rotate(-57.69 52.197 195.414)" d="M-26.84 194.91h158.09v1H-26.84z"/><path class="cls-2" d="M59.79 446.87l9.43 72.11 5.54 8.87-14.97-80.98zM57.72 452.87l7.32 59.74-4.34-5.95-2.98-53.79zM39.44 21.99l26.67-.76 78.5 38.87L39.44 21.99zM73.73 21.99l70.88 36.58-60.97-38.1-9.91 1.52z"/><g class="cls-26"><path class="cls-2" d="M244.42 752.38L115.71 589.01l-28.68-42.84 221.39 208.21-64-2z"/></g><path class="cls-2" transform="rotate(-28.4 77.265 391.441)" d="M74.21 390.05h1v1h-1z"/><path class="cls-2" d="M73.08 388.61l-1-1.74.88-.48 1 1.74zm-1.91-3.48l-1-1.75.88-.48 1 1.75zM69.26 381.64l-1-1.74.88-.48 1 1.74zm-1.91-3.48l-1-1.75.88-.48 1 1.75zm-1.91-3.49l-1-1.74.88-.48 1 1.74zm-1.91-3.48l-1-1.75.88-.48 1 1.75zm-1.91-3.49l-1-1.74.88-.48 1 1.74zm-1.91-3.48l-1-1.75.88-.48.95 1.75zm-1.91-3.49l-1-1.74.88-.48 1 1.74zm-1.91-3.48l-1-1.75.88-.48.95 1.75zM54 353.76L53 352l.88-.48 1 1.74zm-1.92-3.48l-1-1.75.88-.48.95 1.75zm-1.91-3.49l-.95-1.74.88-.48 1 1.74zm-1.91-3.48l-1-1.75.88-.48.95 1.75zm-1.91-3.49l-.95-1.74.87-.48 1 1.74zm-1.91-3.48l-1-1.74.87-.49 1 1.75zm-1.91-3.49l-.95-1.74.87-.48 1 1.74zm-1.91-3.48l-1-1.74.87-.48 1 1.74zm-1.91-3.49l-.95-1.74.87-.48 1 1.74zm-1.91-3.48l-1-1.74.87-.49 1 1.75zm-1.91-3.49l-1-1.74.88-.48 1 1.74zM33 315.43l-1-1.74.88-.48 1 1.74zm-1.91-3.49l-1-1.74.88-.48 1 1.74zm-1.91-3.48l-1-1.74.88-.48L30 308zM27.23 305l-1-1.74.88-.48 1 1.74zm-1.91-3.48l-1-1.74.88-.48 1 1.74zM23.41 298l-1-1.74.88-.48 1 1.74zm-1.91-3.48l-1-1.74.88-.48.95 1.74zM19.59 291l-1-1.74.88-.48.95 1.74zm-1.91-3.48l-1-1.74.88-.48.95 1.74zm-1.92-3.49l-.95-1.74.88-.48 1 1.74zm-1.91-3.48l-.95-1.74.88-.48 1 1.74zm-1.91-3.49l-.94-1.71.88-.48 1 1.74zM10 273.61l-.95-1.74.88-.48.95 1.74zm-1.91-3.49l-.95-1.74.86-.48 1 1.74zm-1.91-3.48l-1-1.74.87-.48 1 1.74zm-1.88-3.49l-.95-1.74.87-.48 1 1.74zm-1.91-3.48l-1-1.74.87-.48 1 1.74z"/><path class="cls-2" transform="rotate(-28.74 .671 255.52)" d="M.18 255.01h1v1h-1z"/><path class="cls-2" d="M82.42 394.38h100v1h-100z"/><circle cx="82.55" cy="394.95" r="25" opacity=".3" fill="#3fa9f5"/><circle cx="82.55" cy="394.95" r="17.5" opacity=".6" fill="#3fa9f5"/><circle cx="82.55" cy="394.95" r="10" opacity=".9" fill="#3fa9f5"/><path class="cls-2" d="M15.88 261.05l-1.14 2.16 5.02-.65.66 5.02 1.8-1.66-.74-5.6-5.6.73zM20.19 255.44l-1.14 2.17 5.02-.66.66 5.03 1.8-1.66-.73-5.61-5.61.73zM24.5 249.84L23.36 252l5.02-.65.66 5.02 1.8-1.66-.73-5.6-5.61.73zM28.82 244.23l-1.15 2.17 5.02-.65.66 5.02 1.8-1.66-.73-5.61-5.6.73zM33.13 238.63l-1.15 2.17 5.03-.66.65 5.02 1.8-1.66-.73-5.6-5.6.73z"/></g></g></svg>