<svg xmlns="http://www.w3.org/2000/svg" viewBox="0 0 30.67 28.05"><g data-name="图层 2"><path d="M19 15.39a3.66 3.66 0 00-2.1-3.31 3.58 3.58 0 00-3.13 0 3.66 3.66 0 00-2.1 3.31 2.64 2.64 0 000 .29 3.65 3.65 0 003.65 3.37 3.61 3.61 0 002.07-.65A3.66 3.66 0 0019 15.68a2.64 2.64 0 000-.29zm-3.66-4.84a4.75 4.75 0 012.06.45l4.52-9.54a15.39 15.39 0 00-13.17 0L13.27 11a4.73 4.73 0 012.07-.45zm-4.82 5.23L0 16.64A15.36 15.36 0 006.59 28l6-8.68a4.83 4.83 0 01-2.07-3.54zm9.63 0a4.83 4.83 0 01-2.07 3.58l6 8.69a15.4 15.4 0 006.59-11.41z" fill="#375d81" data-name="Layer 1"/></g></svg>