<svg xmlns="http://www.w3.org/2000/svg" viewBox="0 0 417.38 47.7"><defs><style>.cls-1{fill:#61b8ff}.cls-2{fill:#6be6ff}</style></defs><g id="图层_2" data-name="图层 2"><g id="Layer_8" data-name="Layer 8"><path class="cls-1" d="M17.51 24.29h11.7L41.4 36.48V43h-9.49l-14.4-14.4v-4.31zM52.22 18.59v-8.43h22.87l6.25 6.26H58.47v8.43l-6.25-6.26z"/><path class="cls-1" d="M66.42 24.72v8.93H42.17l-6.63-6.64h24.25v-8.92l6.63 6.63zM360.21 34.76h29.85l6.72-6.72h-29.84l-6.73 6.72zM170.65 34.76l6.72-6.72H71.01v6.72h99.64z"/><path class="cls-2" d="M417.38 26.69H99.1l-.11-.11-12.66-12.66H69.8v-.77h16.85l.11.12 12.66 12.65h317.96v.77z"/><path class="cls-2" d="M47.69 47.7H15.95L0 31.75v-6.22L25.53 0h30.85l-.27 16.68-1.71-.02.24-14.95h-28.4L1.71 26.24v4.8l14.95 14.95h30.32l15.45-15.45h354.95v1.71H63.14L47.69 47.7z"/><path class="cls-1" d="M32.65 42.54H22.59L11.93 31.88V13.11h13.15v13.76h-1.7V14.81h-9.74v16.36l9.66 9.66h9.35v1.71z"/></g></g></svg>