<svg xmlns="http://www.w3.org/2000/svg" viewBox="0 0 113.6 104.67"><defs><style>.cls-4{fill:none;stroke:#00b4eb;stroke-miterlimit:10}</style></defs><g id="图层_2" data-name="图层 2"><g id="Layer_2" data-name="Layer 2"><path d="M28.37 101.3a52.8 52.8 0 1180.93-38.9" stroke-width="8" stroke-dasharray="10 1" fill="none" stroke="#00b4eb" stroke-miterlimit="10"/><circle cx="57.27" cy="57.01" r="36.06" stroke-width="2" fill="none" stroke="#00b4eb" stroke-miterlimit="10"/><path d="M57.27 21H57v2h.28v-2zm-3.27.1h-.3l.2 2h.28l-.18-2zm-3.27.45h-.3l.38 2 .28-.06-.36-2zm-3.22.74l-.26.08.55 1.92.28-.08-.55-1.93zm-3.13 1l-.28.11.74 1.86.26-.1-.72-1.87zm-3 1.32h-.1l-.17.09.9 1.78.26-.12-.89-1.8zm-2.89 1.6l-.25.16 1.06 1.69.2-.06-1-1.7zm-2.77 1.89l-.08.06-.13.1 1.21 1.59.23-.17-1.2-1.6zm-2.55 2.09l-.14.13-.07.06 1.35 1.48.21-.19-1.34-1.49zm-2.35 2.32l-.07.08h-.05l-.05.06 1.48 1.34.19-.2-1.47-1.36zM28.69 35l-.07.09-.05.08 1.59 1.21.18-.22L28.69 35zm-1.89 2.73c0 .05-.07.1-.1.16l-.05.07L28.34 39l.15-.24-1.69-1.03zm-1.64 2.86v.07h-.05v.1l1.78.9.13-.26-1.78-.91zm-1.37 3a2.29 2.29 0 00-.1.23l1.87.73.1-.26-1.86-.75zm-1.08 3.12a2.45 2.45 0 00-.08.29l1.92.55.08-.27-1.92-.57zm-.79 3.2v.26l2 .38.06-.28-2-.39zm-.5 3.26v.17l2 .19v-.28l-2-.21zm-.2 3.29v.11h2v-.29h-2zm2.1 3.15l-2 .15v.26l2-.17v-.28zm.37 3.1l-2 .33c0 .1 0 .19.05.29l2-.35v-.27zm.66 3l-1.93.51c0 .1 0 .19.07.29l1.93-.51-.07-.27zm.93 3l-1.87.69.1.28 1.87-.7-.1-.27zm1.21 2.87l-1.81.86.06.11.06.13 1.8-.87-.12-.26zM28 74.34l-1.72 1 .07.12v.05l1.71-1-.06-.17zM29.66 77L28 78.12l.05.06a1.71 1.71 0 00.11.14l1.61-1.18-.11-.14zm1.94 2.44l-1.5 1.26.08.1 1.5-1.33-.19-.21zm2.16 2.25l-1.38 1.45.08.08.07.06L34 81.84l-.2-.2zm2.35 2l-1.25 1.56.17.14h.06l1.23-1.58-.22-.17zm2.52 1.82l-1.09 1.68h.05l.12.08 1.08-1.68-.24-.16zm2.68 1.59l-.93 1.77h.09l.13.07.93-1.78-.26-.13zm2.82 1.33l-.77 1.85h.18l.76-1.85-.26-.11zm2.92 1.07l-.59 1.91.28.09.59-1.91-.28-.09zm3 .8l-.43 2H49.92l.4-2-.27-.06zm3.07.51l-.24 2H53.18l.22-2h-.28zm3.11.24l-.06 2h.3v-2zm3.4-.07h-.28l.12 2h.3l-.14-2zm3.1-.35h-.28l.3 2 .29-.05-.31-2zm3-.64l-.27.07L66 92l.29-.08-.5-1.92zm3-.92l-.27.1.66 1.89h.12l.17-.05-.68-1.89zm2.88-1.18l-.26.12.83 1.82.28-.13-.85-1.81zm2.76-1.45l-.24.14 1 1.74.11-.07h.12l-1-1.73zM77 84.75l-.23.16 1.14 1.64.1-.07.14-.09L77 84.75zm2.45-1.92l-.22.18 1.3 1.53h.07a.69.69 0 00.13-.11l-1.3-1.51zm2.27-2.14l-.2.2 1.48 1.4.08-.08-1.43-1.39zm2.06-2.34l-.18.22 1.55 1.27.06-.07.09-.11-1.56-1.26zm1.84-2.51l-.16.23 1.66 1.12.17-.25-1.67-1.1zm1.61-2.67l-.14.24 1.75 1 .15-.26-1.76-1zm1.35-2.81l-.11.26 1.83.8.07-.16-1.84-.79zm1.09-2.92l-.09.27 1.9.63V68.13l-1.9-.61zm.82-3l-.07.27 2 .45v-.07-.21l-2-.43zm.53-3.07v.28l2 .27a1.37 1.37 0 010-.19v-.08l-2-.25zm.25-3.11v.28l2 .09v-.28l-2-.07zm2-3.23l-2 .11v.28l2-.09v-.22zM93 51.75L91 52v.28l2-.27v-.23zm-.63-3.24l-1.99.49.06.28 2-.46V48.53zm-.92-3.17l-1.94.66.09.27 1.9-.63v-.13zm-1.21-3.06l-1.82.81.11.26 1.83-.8-.06-.14-.06-.12zm-1.49-3l-1.74 1 .14.25 1.75-1v-.06l-.08-.13zM87 36.53l-1.64 1.14.16.23 1.65-1.12v-.06l-.1-.14zm-2-2.62l-1.54 1.28.18.22 1.55-1.27-.19-.23zm-2.23-2.44l-1.41 1.42.2.2 1.42-1.4-.08-.08-.08-.09zm-2.44-2.22L79 30.79l.22.18 1.29-1.52-.2-.17zm-2.63-2l-1.13 1.65.23.16 1.15-1.63a.71.71 0 00-.14-.1l-.07-.06zm-2.8-1.74l-1 1.75.25.14 1-1.74H75zm-3-1.47l-.82 1.82.26.12.83-1.82h-.09l-.17-.07zm-3.08-1.2l-.64 1.89.27.09.66-1.89h-.26zm-3.17-.92l-.46 1.95.28.07L66 22h-.3zm-3.24-.61l-.28 2h.28l.3-2h-.3zM59.14 21L59 23h.28l.12-2h-.3z" fill="#00b4eb"/><circle class="cls-4" cx="57.27" cy="57.01" r="22.48"/><path class="cls-4" d="M57.27 39.81V15.23M40.07 57.01H15.49M57.27 74.21v24.58M74.47 57.01h24.58"/></g></g></svg>