<svg xmlns="http://www.w3.org/2000/svg" viewBox="0 0 281.04 248.72"><defs><style>.cls-3,.cls-7{mix-blend-mode:color-dodge}.cls-4,.cls-7{fill:#c0491d}.cls-6{fill:#3ec2b0}</style></defs><g style="isolation:isolate"><g id="图层_2" data-name="图层 2"><g opacity=".7" id="Layer_1" data-name="Layer 1"><g class="cls-3"><path class="cls-4" d="M160.33 181.6a53.67 53.67 0 01-11.88-1.32l2.22-9.79a43.61 43.61 0 0031.43-4.75l5 8.68a53.51 53.51 0 01-26.77 7.18zm-26.74-7.15a53.39 53.39 0 01-24.43-30.56l9.59-3a43.45 43.45 0 0019.85 24.83zm66-10l-7.36-6.83a43.34 43.34 0 0011.61-29.58V128h10v.11a53.39 53.39 0 01-14.25 36.36zm-92.81-36.24v-.17A53.36 53.36 0 01121 91.69l7.36 6.82A43.3 43.3 0 00116.82 128v.13h-5.37zm95.11-13.09A43.43 43.43 0 00182 90.33l5-8.7a53.39 53.39 0 0124.45 30.53zM138.52 90.4l-5-8.68a53.59 53.59 0 0126.85-7.21 53.86 53.86 0 0111.82 1.31l-2.21 9.79a44.15 44.15 0 00-9.61-1.06 43.46 43.46 0 00-21.85 5.85z"/></g><path d="M234.82 128.06c0-1.3 0-2.59-.1-3.88l46.32-3-.33-4.36c0-.72-.13-1.55-.27-2.55l-.46-3.64c-.05-.39-.1-.8-.17-1.22l-.52-2.93c-.17-1-.35-2-.56-3.06l-1-4.51a120.69 120.69 0 00-7.26-20.85 122 122 0 00-12.8-21.79 120.76 120.76 0 00-17-18.64 122.67 122.67 0 00-17.75-13.1l-4-2.29c-.88-.52-1.73-1-2.56-1.37-.39-.2-.78-.39-1.15-.59-1.95-1-3.71-1.82-5.26-2.52l-.89-.4a50.79 50.79 0 00-3.34-1.41l-.72-.29-2.38-.93L186 58.1l.27.11c-2-.73-4-1.38-6-1.94L192 11.4l-.91-.29s-.5-.15-1.3-.33l-3.23-.78-.68-.16c-.48-.11-1-.23-1.53-.33l-5.07-.91c-.62-.11-1.24-.19-1.85-.27l-.9-.11c-3.37-.49-6.71-.72-9.39-.9l-6.4-.21-.53 46.43A74.48 74.48 0 0085.8 127.9l-46.42.54.14 5.65.06.76c.18 2.68.41 6 .9 9.37 0 .3.08.6.11.91.08.6.16 1.23.27 1.84l.91 5.09c.1.53.22 1 .33 1.52.06.24.11.46.16.69l.75 3.24c.18.82.33 1.29.33 1.31l.29.92L88.53 148l-.25-1v-.06c.39 1.48.82 2.94 1.3 4.38l-43.89 15.1.81 2.38c.21.68.54 1.5 1 2.53q.28.73.63 1.59a117 117 0 006.73 14.11 119.66 119.66 0 0012.46 18.18 121.95 121.95 0 0039.4 31.17 118.78 118.78 0 0020.58 7.94c2.4.73 4.71 1.25 6.75 1.71l1.86.43.62.11c2.33.43 4.35.81 6.08 1.06l5.49.7 1.37.1 4.54-46.19c2.1.18 4.23.28 6.39.28 1.45 0 2.89-.05 4.32-.13l3.26 46.3 4-.31c.29 0 .61 0 1-.08l5.35-.68a125.39 125.39 0 0020-4.74 118.86 118.86 0 0018.85-8c.87-.43 1.68-.89 2.39-1.31l1-.56 2.56-1.48 3-1.9L201 190.44c.85-.56 1.7-1.13 2.52-1.72l26.9 36.6.57.78.8-.55s.4-.27 1.08-.78l4.4-3.47 3.89-3.36c.47-.41.93-.84 1.37-1.26.21-.22.44-.43.67-.65l.66-.62c1.1-1 2.23-2.13 3.22-3.2l1.11-1.16c.78-.81 1.51-1.58 2.14-2.31l3.68-4.25-35.72-29.65-.61.7q1.46-1.75 2.8-3.6l37.84 26.87 2.08-2.93.11-.17c.89-1.36 2.11-3.22 3.51-5.51a121.22 121.22 0 009-18.44 125.63 125.63 0 005.84-19.76l.66-3.73c.22-1.21.38-2.14.47-2.93l.45-3.52-46.07-5.64a75.78 75.78 0 00.45-8.12zm-31.08-110.7l.47.18.74.3c.87.34 2 .76 3.23 1.36l.91.41c1.52.68 3.25 1.46 5.14 2.46.38.21.78.41 1.19.61.8.41 1.62.83 2.44 1.31l4 2.28a121.45 121.45 0 0117.44 12.89A118.73 118.73 0 01256 57.48a119.23 119.23 0 0119.74 41.92l1 4.46c.21 1 .39 2 .56 3l.51 2.92c.06.38.11.76.16 1.13l.47 3.65c.12 1 .21 1.75.25 2.43l.18 2.35-42.32 2.72-.09-1.1a15.4 15.4 0 00-.17-1.65l-.25-1.94V117c0-.12-.06-.5-.11-.77l-.68-3.79-.66-2.83A76.15 76.15 0 00230 96.46a77.19 77.19 0 00-8.08-13.78 74.7 74.7 0 00-10.82-11.82 78.87 78.87 0 00-11.25-8.32l-2.49-1.42a15.81 15.81 0 00-1.55-.83c-.28-.14-.55-.27-.8-.41-1.11-.61-2.14-1.07-3-1.47l-.82-.37c-.81-.4-1.5-.66-2.06-.88l-.5-.19zM234 116.64v-.24.24zm-.66-3.69l-.09-.39.07.28zm-14-30.36l-.28-.36zm-.83-1c-.22-.29-.45-.57-.68-.85.23.26.45.51.67.8zm-.88-1.09l-1-1.14zm-18.7-16.12l-.37-.22.28.16zm-3.16-1.81l-.35-.19zm-5.87-2.85l-1-.43c.29.07.62.21.99.38zM162.73 9.2l3.52.09.75.06c2.65.18 5.95.41 9.24.88l.94.13c.61.07 1.18.14 1.74.25l5.06.9c.5.1 1 .21 1.44.32l.7.15 3.26.76h.22l-10.77 41-1.83-.35-.46-.11-.95-.21-3.17-.56c-.39-.08-.77-.12-1.15-.17l-.6-.07c-1.8-.27-3.58-.4-5.15-.52l-1.33-.1h-1.91zM179.3 56l-.81-.21h.09c.4.08.64.16.65.16zm-4-.93l-.43-.09.3.06zm-3.23-.59l-.33-.05h.25zm-.43-.07h-.32zm-7.61-.76zm-119 103.67c0-.08 0-.15-.05-.23l-.75-3.24c0-.23-.11-.46-.16-.7-.11-.46-.22-.95-.32-1.44l-.9-5.07c-.11-.57-.18-1.14-.25-1.74 0-.31-.08-.63-.13-.95-.47-3.27-.7-6.57-.88-9.22l-.14-4.28 42.4-.49.05 2c0 .4.06.83.09 1.28.12 1.56.25 3.34.52 5.12a83.42 83.42 0 001.55 8.22zm40.87-25.5zm-37.51 36.39l-.18-.51 40.1-13.8c.12.4.3.85.51 1.37.15.35.31.74.47 1.17a72.82 72.82 0 004.25 8.91 74.78 74.78 0 007.89 11.52 77.57 77.57 0 0025 19.75 74.3 74.3 0 0013 5c1.33.42 2.63.71 3.77 1l1.61.38h.08l1.77.31c.9.17 1.71.31 2.45.42l2.7.35-4.14 42.21-4.78-.61c-1.68-.25-3.68-.62-6-1l-.57-.11-1.84-.42c-2.1-.47-4.28-1-6.62-1.67a118.44 118.44 0 01-20.25-7.82 119.66 119.66 0 01-21-13.31A121.45 121.45 0 0168.8 204a118.43 118.43 0 01-12.26-17.88 117 117 0 01-6.61-13.85m40.34-18.81l.25.69c-.1-.29-.18-.52-.25-.73zm8.56 16.68c0 .08.11.15.16.22s-.11-.18-.16-.26zm1 1.36c.11.15.23.3.33.45a8.5 8.5 0 01-.38-.49zm1 1.36l.45.58zm1.07 1.38l.32.4c-.16-.18-.22-.3-.37-.44zm39 25.76l.19.06zm4 1l.5.11h-.15zm8.06 1.25zm-42-24.68A69.92 69.92 0 11160.33 198a69.46 69.46 0 01-49.44-20.5zm85.26 15.88c-.12.07-.24.14-.37.2.06-.13.15-.2.3-.27zm-2 1.08c-1 .49-2 1-3 1.45.91-.54 1.91-.98 2.9-1.52zm-25.78 7.66H168zm53.55 27.68l-2.51 1.46c-.32.17-.66.37-1 .57-.72.41-1.45.84-2.3 1.26a116.78 116.78 0 01-18.66 7.84 123.3 123.3 0 01-19.61 4.67l-5.31.67-.87.07-2 .15-3-42.3.88-.06h.62l3.37-.43a80.64 80.64 0 0012.59-3 74.05 74.05 0 0011.87-5.05c.55-.26 1-.56 1.48-.81.22-.14.44-.27.67-.39l1.26-.72.88-.54L223.16 229zm-23-38l-.26.15.4-.24zm6.07-4.1l.11-.09h-.06zm-.31.23l.19-.14zm3.29-2.59l-.18.16-.13.1zm10.63-7.71l32.63 27.09-2.34 2.7c-.59.69-1.31 1.44-2.07 2.23l-1.13 1.18c-1 1-2 2-3.13 3.12l-.66.61-.68.66c-.44.42-.86.82-1.29 1.19l-4 3.28-4.35 3.42-.19.15-25.12-34.18 2.66-2.09 2.43-2.12a10.88 10.88 0 00.86-.79c.15-.14.29-.29.46-.44l.65-.62c.62-.59 1.26-1.19 1.82-1.81.28-.31.57-.6.84-.89.44-.45.86-.88 1.22-1.3zm14.81-34.93v.17a.5.5 0 010 .12 2.93 2.93 0 00-.11-.35zm2.38-1.92a17.08 17.08 0 00.28-1.74l.07-.6 42.09 5.15-.19 1.54c-.08.75-.24 1.64-.45 2.82l-.67 3.7a122.47 122.47 0 01-5.8 19.28 119.75 119.75 0 01-8.84 18.12c-1.38 2.25-2.6 4.1-3.48 5.45l-1 1.4-34.57-24.55.76-1.12c.51-.8 1.16-1.81 1.89-3a76.66 76.66 0 005.69-11.64 81.54 81.54 0 003.66-12.44zm-1.86-1.6v-.12.12z" style="mix-blend-mode:color-dodge" fill="#3ec2b0"/><g class="cls-3"><path class="cls-4" d="M160.37 169.4h-.67l.06-4.68h.57zm10-1.24l-1.14-4.54.58-.15 1.21 4.52zm-20.7-.16l-.65-.18 1.28-4.5.58.15zm30.77-3.83l-2.29-4.08.53-.3 2.34 4zm-40.74-.29l-.58-.34 2.4-4 .52.3zm49.39-6.14l-3.26-3.36.43-.42 3.31 3.31zm-58-.42l-.47-.48 3.36-3.27.43.43zm64.66-8l-4-2.42.3-.51 4 2.34c-.05.19-.14.39-.26.58zm-71.23-.52l-.34-.59 4.09-2.28c.1.17.2.34.29.52zm75.53-9.39l-4.5-1.28.15-.58 4.53 1.21zm-79.68-.58c-.06-.21-.12-.43-.17-.64l4.54-1.15.15.59zm81.25-10.09l-4.68-.07v-.75h4.68v.15c.05.21.05.44.04.66zm-82.67-.6v-.67l4.69.07v.53zm76.91-9.14l-.15-.58 4.52-1.23c.06.22.11.44.17.65zm-71-.38l-4.53-1.19c.06-.23.13-.45.19-.67l4.5 1.29c-.02.21-.08.4-.13.59zm67.42-8.5l-.29-.52 4-2.36.34.59zm-63.78-.34l-4-2.34c.11-.19.22-.39.34-.58l4 2.4zm58.05-7.32l-.42-.43 3.3-3.32.48.49zm-52.23-.28L131 98.89l.48-.47 3.26 3.36zm44.73-5.65l-.52-.3 2.33-4.06.59.34zm-37.16-.2l-2.36-4 .59-.33 2.29 4.08zm28.37-3.58l-.58-.16 1.19-4.53.66.18zm-19.55-.1l-1.22-4.52.65-.17 1.15 4.54zm10.08-1.26h-.6v-4.67h.66z"/></g><g class="cls-3"><path class="cls-6" d="M160.33 195.82h-1.65v-1.26c2.2.05 4.44 0 6.63-.17l.09 1.26c-1.65.1-3.4.16-5.07.17zm-15-1.68a66.84 66.84 0 01-6.51-1.82l.4-1.19c2.09.69 4.24 1.29 6.38 1.78zm33.41-.85l-.34-1.21c2.12-.6 4.23-1.31 6.28-2.11l.47 1.17c-2.15.86-4.28 1.54-6.44 2.15zm-52.22-6.52a67.602 67.602 0 01-5.67-3.66l.74-1c1.78 1.28 3.66 2.49 5.56 3.59zm70.62-1.8l-.68-1.06a65.15 65.15 0 005.34-3.91l.79 1a69.146 69.146 0 01-5.48 4zm-86.4-10.78a66.47 66.47 0 01-4.35-5.17l1-.76c1.33 1.75 2.77 3.45 4.27 5.07zm101.53-2.59l-1-.81c1.41-1.69 2.76-3.47 4-5.28l1 .71a66.13 66.13 0 01-4.03 5.38zM99.3 157.52a66.58 66.58 0 01-2.63-6.22l1.18-.43a66.73 66.73 0 002.58 6.1zm123.48-3.15l-1.16-.48a66.27 66.27 0 002.27-6.23l1.2.37a64.88 64.88 0 01-2.31 6.34zM93.33 138.23c-.33-2.21-.55-4.47-.67-6.71l1.26-.07c.11 2.2.33 4.42.66 6.6zm134.42-3.42l-1.25-.13c.21-2.18.32-4.41.32-6.62v-.15h1.26v.14c0 2.26-.08 4.53-.33 6.76zM94.56 118.23l-1.24-.23a64.59 64.59 0 011.32-6.62l1.22.31a65 65 0 00-1.3 6.54zm130.93-3.49c-.44-2.16-1-4.32-1.65-6.42L225 108a66.7 66.7 0 011.68 6.54zM100.37 99.29l-1.13-.55a66.54 66.54 0 013.22-5.93l1.08.65a64.35 64.35 0 00-3.17 5.83zm118.3-3.15a65.09 65.09 0 00-3.47-5.64l1-.72c1.27 1.85 2.46 3.79 3.54 5.75zM111.52 82.9l-.92-.85a67.18 67.18 0 014.83-4.72l.84.94a64.917 64.917 0 00-4.75 4.63zm95.14-2.53c-1.57-1.53-3.25-3-5-4.38l.78-1a67.08 67.08 0 015.07 4.46zM127 70.52l-.64-1.09c2-1.13 4-2.17 6-3.1l.51 1.15a65.36 65.36 0 00-5.87 3.04zm63.56-1.7c-2-1-4-1.91-6.05-2.71l.46-1.18c2.09.82 4.16 1.75 6.16 2.77zm-45.13-5.57l-.29-1.25c2.19-.5 4.42-.89 6.65-1.18l.16 1.25c-2.19.3-4.38.69-6.52 1.18zm26.33-.7a65.45 65.45 0 00-6.57-.8l.09-1.26c2.23.16 4.49.44 6.7.82z"/></g><g class="cls-3"><path class="cls-6" d="M60.26 128.06h-.67A100.85 100.85 0 01160.33 27.32V28A100.18 100.18 0 0060.26 128.06z"/></g><g class="cls-3"><path class="cls-6" d="M83.81 128.06h-.67a77.27 77.27 0 0177.19-77.19v.67a76.6 76.6 0 00-76.52 76.52z"/></g><g class="cls-3"><path class="cls-6" d="M79.26 126.24l-15.69-.37v-2.06c0-.48 0-1 .06-1.31l.06-.75 15.66 1-.05.67v1.08zm-15.35-.7l15 .36v-1.42V123.05l-15-.94v.42a12.16 12.16 0 00-.06 1.29zM100.1 74L88.29 63.4l.1-.12s.15-.19.4-.45l2.32-2.43.12.12 11.12 10.83-2 2.06-.28.32zM88.75 63.37l11.16 10.06.23-.25 1.74-1.82-10.76-10.49L89 63.06zM85 97.86l-.16-.06L70.49 92l.27-.71c0-.11.1-.23.15-.37s.22-.55.35-.84l.85-1.87 14.31 6.44-.73 1.6c-.11.23-.2.47-.28.69s-.09.22-.13.32zM70.92 91.8l13.93 5.63.12-.31.13-.32a7.5 7.5 0 01.29-.7l.61-1.29-13.7-6.17-.7 1.57c-.14.28-.25.57-.35.82l-.14.38zM79.49 121.67l-15.65-1.25.07-.91v-.52c0-.4.07-.91.15-1.48l.35-2.79c0-.18 0-.36.07-.54 0-.34.09-.69.14-1l.29-1.62c.06-.35.13-.69.19-1 .13-.73.25-1.45.39-2.13l.63-2.75c.07-.28.13-.55.19-.79.1-.46.19-.86.28-1.16l.25-.89L82 106.83l-.22.77c-.07.24-.13.55-.22.91s-.1.46-.16.71l-.53 2.31c-.11.52-.2 1.06-.3 1.62-.06.34-.12.69-.19 1l-.24 1.36c0 .28-.08.57-.11.85l-.06.46-.3 2.35c-.07.46-.1.88-.12 1.22v.45zm-15.29-1.55l15 1.19v-.46-.45c0-.34.05-.76.12-1.23l.31-2.35v-.46c0-.15.07-.58.12-.87l.24-1.36c.07-.35.13-.69.19-1 .1-.56.19-1.11.3-1.63l.53-2.31.17-.71c.08-.37.15-.68.22-.93l.13-.45-14.51-3.89-.16.57c-.09.3-.17.69-.28 1.14 0 .25-.11.51-.18.79l-.63 2.75c-.14.67-.26 1.39-.4 2.12l-.18 1-.19 1.62c0 .34-.09.69-.14 1s0 .37-.07.55l-.35 2.79a14 14 0 00-.14 1.46c0 .19 0 .36-.05.51zM90.64 86.55l-13.46-8.08.08-.14s.13-.24.39-.66L78.72 76c.16-.23.31-.48.48-.74.32-.49.67-1.06 1.06-1.62L82.13 71c.46-.68 1-1.32 1.46-1.94l.5-.64.64-.81c.39-.51.77-1 1.12-1.39l1.9-2.22 11.78 10.38-1.62 1.87c-.28.33-.57.71-.89 1.11-.18.24-.38.49-.58.74s-.29.38-.45.57c-.4.51-.81 1-1.19 1.58l-1.57 2.22c-.31.45-.59.88-.86 1.3-.14.24-.29.47-.43.68L91 85.86c-.21.33-.32.53-.32.53zm-13-8.2l12.88 7.73.25-.4.9-1.41c.14-.21.29-.44.43-.67.27-.43.55-.87.86-1.32l1.58-2.22c.38-.56.79-1.08 1.2-1.59l.45-.58.58-.73c.32-.41.61-.79.9-1.13l1.4-1.62-11.28-9.92-1.69 1.94c-.34.41-.71.88-1.1 1.38l-.65.82-.5.64c-.48.61-1 1.25-1.44 1.92l-1.88 2.63c-.38.56-.72 1.1-1 1.61l-.48.75-1.07 1.67c-.18.22-.29.39-.35.5zM82.61 104.81l-15-4.52.13-.47c0-.07 0-.13.06-.21s.11-.39.2-.63l1-3c.24-.72.46-1.39.69-1.92l.49-1.25 14.62 5.65-.43 1.09c-.18.41-.35 1-.54 1.51l-.9 2.64c-.07.19-.11.36-.15.51a1.21 1.21 0 000 .18zM68 100.06l14.39 4.33v-.1-.17c0-.06.1-.33.17-.53l.89-2.64c.19-.57.37-1.1.55-1.53l.31-.77-14-5.45-.38 1c-.21.52-.44 1.19-.68 1.9l-1 3a6.27 6.27 0 00-.18.61c0 .08 0 .15-.07.21zM86.64 94.14l-.15-.07-14.09-6.53.6-1.23c.2-.43.47-.94.75-1.48l.44-.86.45-.88c.27-.54.53-1 .76-1.45l.6-1.18.15.08 13.53 7.62-.59 1c-.18.32-.39.72-.6 1.15l-.41.79c-.13.27-.27.54-.4.8-.23.42-.43.82-.59 1.16zm-13.8-6.76l13.63 6.32.35-.76c.16-.34.36-.75.59-1.18.13-.25.27-.52.4-.79s.28-.53.41-.79c.22-.43.42-.84.61-1.17l.42-.72-13.09-7.38-.51.89c-.23.4-.48.91-.75 1.44l-.46.88c-.14.29-.29.58-.44.86-.27.54-.54 1-.73 1.47zM103.62 70.08l-.12-.08-10.83-11.16 2.43-2.32c.46-.44.5-.44.56-.44h.07l10.45 11.6-.14.11s-.15.12-.36.32zM93.14 58.85l10.49 10.76 1.82-1.74.25-.23-10.06-11.16-.31.28zM155 47.13l-1-15.66.76-.06c.34 0 .81-.05 1.31-.06l2-.05.45 15.7h-1.76a10.75 10.75 0 00-1.08 0zm-.63-15.35l.94 15h2.85l-.35-15-1.73.05a11.57 11.57 0 00-1.28.06zM127.61 53.83l-6.31-14.37.69-.31c.33-.15.76-.34 1.21-.51l1.91-.76 5.74 14.61-1.63.64c-.36.13-.69.28-1 .42zm-5.87-14.2l6 13.75.3-.13a9.78 9.78 0 011-.43l1.32-.52-5.5-14-1.6.64c-.44.16-.87.35-1.19.5zM107 67L96.68 55.14l2.21-1.9 3.46-2.72 2.18-1.52 1.8-1.27 2.38-1.53c1.25-.82 2.17-1.34 2.34-1.44l.14-.08.09.14L119.13 58v.15l-.09.05c-.15.08-.91.51-2 1.2l-2 1.28-3.33 2.36-2.91 2.28zm-9.83-11.8L107 66.51l1.63-1.41 2.92-2.29 3.34-2.37 2-1.28c.86-.57 1.53-1 1.83-1.13l-7.64-12.93c-.34.19-1.14.66-2.19 1.35L106.52 48l-1.8 1.27-2.17 1.54-3.45 2.69zM139.52 49.64v-.16l-3.94-15 .35-.09.55-.15 1.93-.44.86-.2c.57-.14 1.23-.29 1.9-.42l3.18-.57c1-.21 2.06-.33 3.06-.46l2.93-.37 2.92-.23 1.16 15.65-2.47.19-2.56.33c-.8.1-1.63.2-2.45.36l-2.68.48-1.52.34-.78.18-1.63.38-.44.11zm-3.58-14.94l3.82 14.53a2.92 2.92 0 01.46-.12l1.63-.37.77-.18c.48-.12 1-.24 1.54-.35l2.67-.47c.84-.17 1.67-.28 2.48-.37l2.54-.33 2.17-.17-1.11-15-2.57.2-2.93.37c-1 .13-2 .25-3 .46l-3.18.57c-.66.13-1.28.27-1.89.41l-.85.2-1.94.45a5.32 5.32 0 00-.53.14zM121 57.1l-7.59-13.73.43-.25a8.59 8.59 0 01.77-.41l2.39-1.19c1-.54 1.79-.91 2.36-1.16l1.23-.56L127 54.1l-1.06.48c-.47.19-1.1.5-2 1l-2 1c-.24.12-.47.24-.63.34zm-7.13-13.61l7.26 13.15h.09c.17-.1.4-.23.65-.35l2-1c.88-.46 1.51-.77 2-1l.75-.34-6.21-13.68-.93.42c-.56.24-1.33.61-2.34 1.14L114.77 43c-.29.14-.55.28-.75.4zM131.35 52.29l-5.57-14.67 1.26-.5 2.49-.84.94-.32c.56-.19 1.1-.38 1.56-.5l1.3-.37v.16l4.35 14.9-1.13.32c-.36.1-.8.25-1.25.4l-.83.29-2.09.7zm-5.14-14.48l5.34 14 .77-.31 2.09-.7.83-.28c.46-.16.9-.31 1.27-.41l.8-.23-4.21-14.38-1 .28c-.45.12-1 .3-1.55.5l-.94.32-2.48.84z"/></g><path class="cls-7" d="M154.87 23.8l1.65-.04.07-9.07-1.81.04.09 9.07zM152.43 23.84l1.65-.02-.34-17.89-1.97.03.66 17.88zM150 24l.83-.07H151.65L150.55.12h-1.03l-1 .08zM147.54 24.15l1.65-.11-.51-7.16-1.78.12.64 7.15zM145.1 24.41l.82-.1.57-.08h.26l-1-9.7a1.78 1.78 0 00-.28 0l-.62.08-.91.12zM142.67 24.72l1.64-.21-.69-5.58-1.75.21.8 5.58zM140.25 25.11l.81-.15.56-.11h.26l-1.31-8.61a1.35 1.35 0 00-.28 0l-.61.11-.89.16zM137.83 25.54l1.63-.29-.78-4.35-1.71.31.86 4.33zM135.42 26.05l.81-.19.56-.13a1.51 1.51 0 01.25-.05l-1.23-6a1.73 1.73 0 00-.26.05l-.6.14-.86.21zM133.02 26.61l1.62-.37-2.52-10.85-1.81.42 2.71 10.8zM130.63 27.25l.8-.23.55-.16.26-.07L125.29 0l-.29.08-.71.21-1 .29zM128.25 27.93l1.61-.45-4.34-15.14-1.86.54 4.59 15.05zM125.9 28.7l.79-.28c.2-.06.39-.13.54-.19l.25-.08-3-9.7-.27.09-.6.21-.88.3zM123.55 29.5l1.59-.54-1.86-5.42-1.68.57 1.95 5.39zM121.22 30.39l1.56-.63-3.11-8.39-1.7.68 3.25 8.34zM118.91 31.31l1.56-.62-6.46-16.2-1.83.73 6.73 16.09zM116.63 32.31l1.53-.7-5.35-12.49-1.73.8 5.55 12.39zM114.35 33.35l1.54-.7-3.4-7.43-1.66.76 3.52 7.37zM112.11 34.47l1.51-.78-2.01-4.11-1.56.82 2.06 4.07zM109.89 35.62l1.5-.78-3.92-7.56-1.62.84 4.04 7.5zM107.7 36.85l1.47-.86-18.9-34.42-2.02 1.17 19.45 34.11zM105.53 38.1l1.47-.84-14.29-24.59-1.86 1.08 14.68 24.35zM103.39 39.44l1.43-.92L86.37 8.44l-1.9 1.22 18.92 29.78zM101.27 40.8l1.44-.91-10.94-16.92-1.71 1.09 11.21 16.74zM99.21 42.25l1.38-.99-7.33-10.77-1.55 1.11 7.5 10.65zM97.15 43.71l1.39-.98-5.66-7.91-1.52 1.08 5.79 7.81zM95.15 45.25l1.34-1.05-7.55-10.03-1.49 1.17 7.7 9.91zM93.15 46.81l1.35-1.05-9.37-11.87-1.54 1.2 9.56 11.72zM91.23 48.45l1.29-1.12-24.23-29.25-1.75 1.5 24.69 28.87zM89.31 50.1l1.29-1.11-36.29-41.8-1.95 1.69L89.31 50.1zM87.46 51.83l1.24-1.18-31.12-34.18-1.77 1.67 31.65 33.69zM85.61 53.56l1.25-1.17-26.21-27.48-1.68 1.58 26.64 27.07zM83.85 55.38l1.18-1.23-8.21-8.22-1.31 1.36 8.34 8.09zM82.08 57.2l1.2-1.23-12.32-11.76-1.37 1.42L82.08 57.2zM80.41 59.1l1.12-1.29-4.96-4.53-1.2 1.36 5.04 4.46zM78.73 60.99l1.13-1.28-9.95-8.66-1.27 1.44 10.09 8.5zM77.15 62.97l1.07-1.34-6.99-5.79-1.16 1.44 7.08 5.69zM75.56 64.94l1.07-1.33-5.55-4.39-1.14 1.41 5.62 4.31zM74.08 66.98l1-1.38-4.12-3.1-1.05 1.45 4.17 3.03zM72.58 69.02l1.01-1.38-10.56-7.57-1.13 1.54 10.68 7.41zM71.2 71.13l.93-1.43-5.85-3.98-.99 1.51 5.91 3.9zM69.81 73.23l.94-1.42-12.53-8.12-1.07 1.62 12.66 7.92zM68.53 75.4l.86-1.46-8.98-5.53-.96 1.61 9.08 5.38zM67.24 77.56l.13-.23.3-.5.44-.73-4.23-2.46-.45.76-.31.53c-.09.14-.14.24-.14.24zM66.07 79.78l.79-1.5-7.38-4.06-.86 1.61 7.45 3.95zM64.89 82a2.14 2.14 0 01.12-.24c.07-.14.17-.33.28-.51l.39-.75-3.45-1.79s-.21.38-.41.77c-.11.19-.21.39-.29.53s-.12.25-.12.25zM63.83 84.27l.72-1.53-5.49-2.69-.76 1.62 5.53 2.6zM62.76 86.53l.11-.24.25-.53.36-.76-8.77-4-.4.83-.27.58-.11.26zM61.82 88.84l.64-1.56-4.49-1.93-.67 1.63 4.52 1.86zM60.87 91.15s0-.1.09-.25l.22-.53c.16-.39.33-.78.33-.78L47.47 84s-.19.45-.37.9c-.1.22-.19.44-.26.61l-.1.29zM60.04 93.5l.56-1.59-4.19-1.56-.59 1.65 4.22 1.5zM59.21 95.84l.07-.25c.06-.15.13-.35.2-.54l.28-.79-7.35-2.54s-.16.42-.31.85c-.08.21-.15.42-.21.58l-.08.28zM58.5 98.22l.48-1.61-10.93-3.46-.53 1.79 10.98 3.28zM57.79 100.59s0-.1.06-.25.11-.35.17-.55l.24-.8-7.47-2.17s-.14.44-.27.87c-.06.21-.13.43-.18.59l-.07.27zM57.2 103l.4-1.62-13.38-3.52-.46 1.85L57.2 103zM56.61 105.4v-.25l.14-.56c.11-.41.21-.81.21-.81L37.59 99.2s-.12.49-.25 1c-.06.24-.12.49-.16.67s-.06.31-.06.31zM56.15 107.82l.32-1.63-13.48-2.82-.36 1.87 13.52 2.58zM55.69 110.25v-.26c0-.16.07-.36.12-.56.07-.41.16-.82.16-.82l-23.37-4.26-.2 1c0 .26-.1.51-.14.7s0 .32 0 .32zM55.35 112.69l.23-1.65-19.71-3.07-.28 1.99 19.76 2.73zM55 115.13v-.26c0-.15.05-.36.08-.57l.12-.82-54.86-7.11-.18 1.3c0 .32-.09.65-.12.89S0 109 0 109zM54.8 117.58l.15-1.66-39.06-4.03-.21 2.33 39.12 3.36zM54.59 120a2.18 2.18 0 010-.26v-.57c0-.41.07-.83.07-.83l-13.79-1.06s0 .47-.09 1c0 .23 0 .47-.06.65a2.75 2.75 0 000 .29zM54.51 122.48l.06-1.65-23.73-1.22-.07 2.08 23.74.79zM54.42 124.94l.06-1.66-12.54-.31-.07 1.87 12.55.1z"/></g></g></g></svg>