<svg xmlns="http://www.w3.org/2000/svg" viewBox="0 0 351.65 350.77"><defs><style>.cls-1{opacity:.8}.cls-3{fill:#5fffe8}</style></defs><g id="图层_2" data-name="图层 2"><g class="cls-1" id="央铋_1" data-name="央铋 1"><path class="cls-3" d="M300.16 50.59A175.07 175.07 0 00193.62 0l-2 20.15a155.6 155.6 0 01135.72 190.24l19.79 4.26a175.7 175.7 0 00-46.97-164.06z" opacity=".2"/><path class="cls-3" d="M300.16 299.27a177.92 177.92 0 0018.45-21.68l-16.75-11.41a155.59 155.59 0 01-251 1.42l-16.5 11.74a178.19 178.19 0 0017.16 19.93 175.83 175.83 0 00248.64 0z" opacity=".7"/><path class="cls-3" d="M50.83 267.6A155.56 155.56 0 0122.94 146l-19.49-5.82a175.81 175.81 0 0030.88 139.16z" opacity=".4"/><g class="cls-1"><path class="cls-3" d="M216.08 59l8.48-22.5A147 147 0 0097.15 51l11.41 21.3A122.91 122.91 0 01216.08 59z"/></g><path class="cls-3" d="M279.59 278.7a146.8 146.8 0 00-55-242.21L216.08 59a122.74 122.74 0 11-107.52 13.3L97.15 51a146.76 146.76 0 10182.44 227.7z" opacity=".5"/></g></g></svg>