<svg xmlns="http://www.w3.org/2000/svg" viewBox="0 0 359.58 359.62"><defs><style>.cls-1,.cls-4{fill:#00b4e9}.cls-2,.cls-4{opacity:.5}.cls-3{fill:#f9b900}</style></defs><g id="图层_2" data-name="图层 2"><g id="Layer_1" data-name="Layer 1"><path class="cls-1" d="M260.06 264.6c-.76.74-1.71 1.65-2.89 2.62s-2.46 2.21-4 3.39a116.8 116.8 0 01-146.91-1.08 120.56 120.56 0 01-18.21-18.73 116.4 116.4 0 01-24.46-73.48c0-3.95.36-7 .47-9.16s.39-3.23.39-3.23l-8.65-1.06s-.14 1.21-.41 3.47-.49 5.59-.51 9.84a125.1 125.1 0 0026.29 79 128.48 128.48 0 0019.52 20.11A124 124 0 00125 291.88a125.29 125.29 0 00133.61-14.46c1.7-1.28 3.07-2.6 4.34-3.65s2.29-2 3.11-2.81l2.54-2.41-6.13-6.19z"/><path class="cls-1" d="M294.68 301.51l-2.23 2.1-2.79 2.39-3.25 2.78c-1.17 1-2.47 1.94-3.82 3A160.5 160.5 0 01262 325.42a165.48 165.48 0 01-29.33 12.86 167.94 167.94 0 01-37 7.68c-3.35.22-6.74.58-10.19.6l-5.2.11-5.27-.12-2.65-.07-2.66-.18-5.36-.4-5.39-.64-2.71-.33-2.71-.46a165.53 165.53 0 01-21.77-5 175.55 175.55 0 01-21.41-8.12 167.47 167.47 0 01-39.21-25.25 169.45 169.45 0 01-30.74-34.92A167.81 167.81 0 0123.66 120.3 158.24 158.24 0 0134 97.88c.84-1.49 1.6-2.93 2.4-4.23S38 91.14 38.7 90s1.36-2.18 2-3.12l1.75-2.52 2.4-3.44c.54-.78.85-1.16.85-1.16l-3.15-2.33s-.31.39-.86 1.19l-2.46 3.52-1.79 2.58c-.64 1-1.29 2-2 3.19s-1.5 2.4-2.32 3.73-1.6 2.8-2.46 4.33A161.94 161.94 0 0020 118.92a171.64 171.64 0 0017.13 154.41 173.43 173.43 0 0031.46 35.73 171.46 171.46 0 0040.07 25.84 180.54 180.54 0 0021.92 8.3 170.32 170.32 0 0022.27 5.13l2.77.46 2.78.35 5.51.65 5.49.41 2.72.18 2.72.08 5.38.12 5.33-.11c3.53 0 7-.39 10.43-.61a173.07 173.07 0 0037.9-7.86 170.15 170.15 0 0030-13.17A164.3 164.3 0 00285 314.89c1.38-1.08 2.71-2.08 3.91-3.07l3.33-2.84 2.85-2.47 2.28-2.15 4.16-4-2.77-2.76z"/><g class="cls-2"><path class="cls-1" d="M265.34 271.6c-1 1-2.42 2.13-4 3.51s-3.49 2.84-5.61 4.5A124.45 124.45 0 01239.42 290a128.24 128.24 0 01-23.23 9.54 130.14 130.14 0 01-29.31 5 126.69 126.69 0 01-16.26-.23l-2.09-.15c-.69-.06-1.38-.16-2.08-.24l-4.2-.5c-2.79-.52-5.63-.87-8.43-1.56a125 125 0 01-33.22-12.27l-4-2.21-3.83-2.38c-1.32-.78-2.55-1.67-3.8-2.55s-2.55-1.69-3.74-2.67a133.76 133.76 0 01-13.91-12.08 141 141 0 01-12-14 135.6 135.6 0 01-9.74-15.44 128.39 128.39 0 01-7.28-16.41A124.52 124.52 0 0157.51 205c-.34-1.41-.57-2.82-.8-4.23s-.52-2.81-.68-4.22c-.33-2.81-.72-5.59-.85-8.37s-.26-5.52-.34-8.23c0-1.35 0-2.7.06-4s0-2.68.16-4a124.94 124.94 0 0114.88-52.45c.94-1.62 1.76-3.24 2.68-4.72l2.68-4.29c.9-1.35 1.81-2.61 2.65-3.83.43-.61.83-1.22 1.25-1.78l1.28-1.64 2.33-3c.76-.92 1.51-1.76 2.19-2.56l1.88-2.2c.59-.67 1.17-1.24 1.66-1.77l3-3.21-20.2-20.2-1.55 1.63c-1 1.08-2.52 2.61-4.36 4.64a167.16 167.16 0 00-13.88 18 150.5 150.5 0 00-14.74 28.54 154.52 154.52 0 00-9.73 72.35 156.42 156.42 0 006.67 31.4 146.79 146.79 0 008.59 21c.61 1.23 1.14 2.34 1.64 3.28l1.32 2.37 1.1 2 8.8-5s.19.36.56 1 .94 1.61 1.69 2.8 1.67 2.65 2.71 4.32S62.61 262 64 264a147.42 147.42 0 0024.24 25.81A144.12 144.12 0 00118 309c2.15 1.12 4.23 1.91 6 2.72s3.4 1.41 4.72 1.9l3.07 1.16 1.09.4-3.34 9.57 7 2.26c2.28.6 5 1.41 8.2 2.16l5.09 1.11c1.79.41 3.7.66 5.69 1a154.89 154.89 0 0058.65-1.76A152.07 152.07 0 00268 306c3.35-2.24 6.22-4.55 8.81-6.55s4.67-4 6.46-5.48l5.36-5.07-20.07-20.32zm-96.66 56.73l-1.45-.11c-.92 0-2.23-.2-3.8-.39s-3.41-.37-5.37-.69l-6.12-1-6.06-1.32c-1.94-.41-3.7-1-5.24-1.35-3.07-.79-5.06-1.49-5.06-1.49l5.83-18.62s1.73.61 4.4 1.28c1.33.34 2.87.83 4.55 1.18l5.27 1.15 5.33.9c1.7.28 3.3.41 4.67.59s2.5.32 3.31.35l1.26.09zm33.49-1.11c-3.15.39-7.33 1-11.55 1.21l-3.14.22-3.06.08c-2 0-3.82.14-5.4.06l-5.28-.13.86-19.49 4.59.1c1.38.08 3 0 4.71-.06l2.65-.06 2.74-.19c3.67-.19 7.31-.72 10.05-1l4.52-.76 3.51 19.2zm40.83-12.1l-3.51 1.53c-1.45.64-3.14 1.38-5 2.05s-3.81 1.5-5.83 2.13l-5.91 1.89-5.22 1.41c-1.52.44-2.82.7-3.72.9l-1.42.31-4.16-19.07 1.24-.27c.78-.18 1.91-.39 3.23-.78l4.54-1.22 5.14-1.65c1.75-.54 3.44-1.27 5.06-1.85s3.09-1.23 4.35-1.78l3-1.33c.74-.32 1.14-.54 1.14-.54l8.34 17.65s-.46.25-1.27.62zm32.78-20.68c-.69.62-1.73 1.43-3 2.39s-2.7 2.12-4.29 3.3l-5.09 3.55c-3.54 2.29-7.11 4.57-9.91 6.05l-3.35 1.86-1.29.66-8.94-17.35 1.13-.57 2.9-1.62c2.44-1.28 5.53-3.27 8.61-5.26l4.43-3.08c1.38-1 2.63-2 3.73-2.87s2-1.54 2.59-2.08l1-.82 12.61 14.89z"/></g><path class="cls-3" d="M235.17 263l-1.83 1.13c-.77.46-1.62 1.06-2.59 1.6l-3.05 1.7c-1 .62-2.13 1.07-3.12 1.58s-1.9 1-2.74 1.33l-2.73 1.18 3.58 8.52 3-1.29c.91-.35 1.9-.92 3-1.44s2.29-1.06 3.4-1.74l3.34-1.85c1.06-.6 2-1.25 2.84-1.76l2-1.24c.48-.3.74-.5.74-.5l-5.14-7.68s-.25.16-.7.46zM209.84 274.86c-.84.31-1.86.55-2.94.84s-2.21.66-3.39.89l-3.42.75c-1.09.25-2.14.36-3 .53l-2.13.37c-.52.08-.81.1-.81.1l1.26 9.16a8.59 8.59 0 00.89-.12l2.33-.4c1-.18 2.1-.3 3.29-.58l3.74-.82c1.28-.25 2.52-.67 3.7-1s2.29-.59 3.21-.92l3.1-1-3-8.75zM177.68 279.23c-2.39 0-4.77-.28-6.57-.36s-3-.35-3-.35L167 287.7l.89.11c.57.05 1.37.19 2.35.26 1.95.1 4.55.41 7.16.4a100.77 100.77 0 0010.44-.22l-.63-9.22a90.45 90.45 0 01-9.53.2zM158.39 276.85c-1.76-.32-4-1-6.35-1.61l-3.33-1.08-1.54-.48-1.34-.52-2.83-1.05-3.44 8.58 3 1.15 1.48.56 1.67.53 3.64 1.17c2.53.65 5 1.42 6.95 1.76l2.31.51.87.19 1.75-9.07-.8-.18zM131.42 266.52c-1-.55-2-1.09-3-1.76l-3-1.84c-.91-.65-1.76-1.24-2.5-1.75l-1.77-1.23-.65-.51-5.54 7.4.71.55 1.94 1.35 2.73 1.9 3.24 2c1.09.73 2.24 1.33 3.3 1.92s2 1.18 2.92 1.62l2.91 1.43 4-8.31-2.63-1.29c-.79-.41-1.68-.95-2.66-1.48zM112.88 253.11c-1.27-1.28-3.11-2.83-4.71-4.63-.81-.88-1.68-1.72-2.42-2.57l-2-2.33a25.11 25.11 0 01-1.89-2.31L94.63 247a30.11 30.11 0 002.06 2.53l2.18 2.54c.81.92 1.75 1.84 2.64 2.8 1.74 2 3.74 3.66 5.13 5.05.69.7 1.36 1.18 1.78 1.57l.68.58 6-7-.63-.53c-.34-.35-.96-.78-1.59-1.43zM96.76 234.28l-.64-1c-.47-.75-1-1.63-1.62-2.58s-1.13-2-1.73-3c-1.22-2-2.16-4.23-3-5.81-.41-.79-.66-1.49-.88-2s-.32-.76-.32-.76l-8.48 3.68.35.82c.24.52.52 1.29 1 2.16.91 1.72 1.94 4.11 3.28 6.35.65 1.12 1.22 2.3 1.89 3.32l1.76 2.82c.26.42.5.8.7 1.14l.6.83.51.74 7.62-5.23-.47-.67zM85.11 209.86c-.61-1.68-1.18-4-1.82-6.29-.31-1.16-.51-2.34-.77-3.42s-.47-2.12-.59-3l-.5-3-9.14 1.37s.21 1.29.54 3.22c.14 1 .38 2.08.65 3.28s.51 2.47.84 3.73c.69 2.51 1.32 5 2 6.88l.72 2.25a7.16 7.16 0 00.29.84L86 212.7a8.08 8.08 0 01-.27-.78c-.13-.49-.35-1.21-.62-2.06zM71.63 168.1c-.09.57-.12 1.39-.19 2.36s-.16 2.12-.25 3.34-.06 2.53-.09 3.83 0 2.61 0 3.84 0 2.36.09 3.34c.15 2 .24 3.26.24 3.26l9.21-.74s-.08-1.2-.22-3c-.05-.9 0-1.95-.07-3.07s-.08-2.32 0-3.51.06-2.39.08-3.52.16-2.16.23-3.05.09-1.64.18-2.16.1-.82.1-.82l-9.19-1zM77.3 142.75c-.33.92-.65 2-1 3.17s-.8 2.4-1.11 3.66l-1 3.7c-.26 1.19-.5 2.31-.7 3.26-.46 1.9-.63 3.2-.63 3.2l9.09 1.64s.16-1.19.58-2.93c.19-.87.41-1.89.64-3s.61-2.23.92-3.38.66-2.29 1-3.35.64-2.06 1-2.9l1-2.78-8.62-3.34z"/><path class="cls-4" d="M51.92 83c-1.06 1.31-2.4 3.33-4.07 5.7S44.43 94 42.49 97c-.94 1.55-1.81 3.2-2.75 4.86l-1.4 2.51c-.44.85-.86 1.72-1.29 2.59a163.36 163.36 0 00-8.31 19.54l-2.15 6.66c-.48 1.62-.71 2.56-.71 2.56l6.12 1.76s.22-.9.68-2.46 1.21-3.75 2.06-6.39a157 157 0 018-18.76c.42-.83.81-1.67 1.24-2.49l1.34-2.4c.91-1.59 1.74-3.19 2.65-4.67 1.86-2.93 3.5-5.74 5.14-8S56 88.11 57 86.86l1.56-2-5.05-3.93z"/><path class="cls-1" d="M105.46 320.42l-4.62-2.58a161.85 161.85 0 01-23.24-16.27 158.83 158.83 0 01-20-20.07c-1.28-1.45-2.33-2.88-3.3-4.12s-1.8-2.33-2.49-3.22-1.17-1.65-1.53-2.14-.53-.76-.53-.76l-8.42 5.95.56.81c.38.52.9 1.32 1.63 2.27s1.62 2.11 2.65 3.43 2.15 2.84 3.52 4.39A168.94 168.94 0 0071 309.45a172.37 172.37 0 0024.7 17.33l4.92 2.74c1.48.8 2.8 1.42 3.88 2l3.39 1.68 4.39-9.33-3.18-1.57c-1.01-.56-2.26-1.13-3.64-1.88zM282 314.73c-1.2 1-2.74 2-4.51 3.26s-3.72 2.65-6 4a167.56 167.56 0 01-72.45 25.55c-2.61.36-5 .47-7.17.64s-4 .28-5.54.29l-4.84.11.08 11 5.15-.11c1.63 0 3.62-.15 5.9-.32s4.85-.3 7.63-.67a178.82 178.82 0 0077.18-27.23c2.41-1.46 4.49-3 6.37-4.28s3.52-2.44 4.8-3.47l4.08-3.16-6.87-8.61zM18.5 130.74l-14.91-4.46c-.93-.28-1.94.62-2.08 1.87 0 0-.25 2.19-.62 5.48-.21 1.63-.31 3.57-.45 5.62s-.32 4.22-.34 6.41S0 150 0 152s.09 3.93.13 5.55.11 2.95.14 3.9.1 1.47.1 1.47a1.68 1.68 0 001.37 1.68l10.26.83a1.66 1.66 0 001.65-1.66s0-.49.13-1.35.25-2.07.42-3.54c.29-2.94 1-6.82 1.63-10.7.34-1.94.81-3.85 1.19-5.66s.75-3.48 1.16-4.9c.77-2.86 1.29-4.76 1.29-4.76a1.73 1.73 0 00-.97-2.12z"/><path class="cls-3" d="M255.42 291.78a4.55 4.55 0 00-1.25 6.2 4.48 4.48 0 101.25-6.2zM224 307.28a4.56 4.56 0 00-2.8 5.72 4.49 4.49 0 108.49-2.91 4.57 4.57 0 00-5.69-2.81zM189.64 314.15a4.51 4.51 0 00-3 1.54 4.63 4.63 0 00-1.17 3.25 4.55 4.55 0 001.46 3.18 4.53 4.53 0 007.5-3.78 4.63 4.63 0 00-4.79-4.19zM154.65 312.06a4.55 4.55 0 103.57 5.21 4.52 4.52 0 00-3.57-5.21z"/><path class="cls-1" d="M278.41 103.48a129.31 129.31 0 00-19.52-20.1 123.83 123.83 0 00-24.26-15.64A125.28 125.28 0 00101 82.21c-1.69 1.27-3.06 2.59-4.34 3.64s-2.29 2-3.1 2.82L91 91.07l6.12 6.2 2.4-2.27c.76-.74 1.7-1.65 2.89-2.63s2.46-2.2 4-3.39a116.83 116.83 0 01124.38-13.42 115 115 0 0122.56 14.54 120.21 120.21 0 0118.18 18.73A116.52 116.52 0 01296 182.3c0 4-.36 7-.47 9.16s-.39 3.23-.39 3.23l8.64 1.06s.15-1.21.42-3.47.49-5.59.51-9.84a125.31 125.31 0 00-26.29-79z"/><path class="cls-1" d="M342.35 128a171.68 171.68 0 00-19.9-41.71A173.47 173.47 0 00291 50.57a171.34 171.34 0 00-40.07-25.84A182.28 182.28 0 00229 16.42a171.72 171.72 0 00-22.28-5.13l-2.72-.46-2.77-.35-5.52-.65-5.48-.4-2.73-.19-2.71-.07-5.44-.17-5.35.16c-3.53 0-7 .38-10.43.61a172 172 0 00-37.91 7.86 170.08 170.08 0 00-30 13.16A163.41 163.41 0 0074.6 44.73c-1.38 1.08-2.71 2.08-3.91 3.07l-3.33 2.85-2.85 2.46-2.28 2.15-4.16 4L60.83 62l4.07-3.87L67.13 56l2.79-2.41c1-.87 2.09-1.79 3.25-2.79s2.47-1.94 3.82-3a158.42 158.42 0 0120.6-13.62 165.68 165.68 0 0129.32-12.87 168.76 168.76 0 0137-7.68c3.36-.22 6.75-.57 10.2-.59l5.2-.12 5.26.12 2.66.07 2.66.19 5.36.39 5.39.64 2.71.34 2.71.45a167 167 0 0121.76 5 177.35 177.35 0 0121.42 8.12 167.19 167.19 0 0139.16 25.25 166.27 166.27 0 0150.19 75.68 167.94 167.94 0 01-2.71 110.12 158.76 158.76 0 01-10.38 22.42c-.84 1.49-1.61 2.92-2.4 4.22l-2.27 3.64c-.71 1.13-1.35 2.18-2 3.13s-1.23 1.76-1.75 2.52l-2.4 3.43c-.54.79-.85 1.16-.85 1.16l3.14 2.33s.32-.39.87-1.19l2.46-3.51c.53-.78 1.13-1.64 1.79-2.59s1.29-2 2-3.19 1.49-2.4 2.32-3.72 1.59-2.81 2.46-4.33a163.78 163.78 0 0010.62-22.95A171.56 171.56 0 00342.35 128z"/><g class="cls-2"><path class="cls-1" d="M325.78 132.8a147.67 147.67 0 00-8.59-21.05c-.62-1.23-1.14-2.34-1.64-3.28l-1.32-2.37-1.1-2-8.8 5s-.2-.35-.56-1-.95-1.61-1.7-2.81l-2.71-4.29-3.77-5.42a147.45 147.45 0 00-24.24-25.82 144.12 144.12 0 00-29.77-19.17c-2.15-1.12-4.23-1.9-6-2.72s-3.4-1.41-4.72-1.9l-3.07-1.16-1.09-.4 3.3-9.55-7-2.26c-2.27-.59-5-1.41-8.19-2.16l-5.09-1.11c-1.79-.4-3.71-.66-5.69-1a154.62 154.62 0 00-88.52 11.74 153.1 153.1 0 00-23.9 13.59c-3.35 2.24-6.23 4.56-8.82 6.56s-4.66 4-6.45 5.48L71 70.75l20 20.32 3.21-3c1-1 2.42-2.13 4-3.51s3.49-2.84 5.61-4.49a123.74 123.74 0 0116.32-10.44A127.94 127.94 0 01143.39 60a131.17 131.17 0 0129.31-5 128.59 128.59 0 0116.26.24l2.08.14c.7.06 1.39.17 2.09.25l4.2.5c2.78.51 5.63.87 8.43 1.55A124.76 124.76 0 01239 70l4 2.21 3.87 2.42c1.31.77 2.55 1.67 3.8 2.54s2.55 1.69 3.73 2.67a134 134 0 0113.86 12.06 138.61 138.61 0 0112 14 132.74 132.74 0 019.74 15.41 129.21 129.21 0 017.29 16.42 122.24 122.24 0 014.76 16.88c.34 1.4.58 2.81.81 4.23s.51 2.8.68 4.21c.32 2.81.71 5.6.85 8.37s.26 5.52.34 8.23c0 1.36-.05 2.71-.07 4s0 2.67-.15 4a124.75 124.75 0 01-14.89 52.43c-.93 1.63-1.75 3.24-2.67 4.73s-1.83 2.91-2.68 4.29-1.82 2.6-2.66 3.83c-.42.6-.82 1.21-1.25 1.78l-1.27 1.63-2.33 3c-.77.92-1.51 1.76-2.19 2.56l-1.89 2.2c-.58.67-1.16 1.23-1.65 1.76l-3.03 3.29 20.2 20.19s.53-.57 1.55-1.63 2.52-2.6 4.36-4.64a165.15 165.15 0 0013.88-18 151.28 151.28 0 0014.74-28.53 154.49 154.49 0 003.06-103.75zM118.57 65.29l-2.9 1.63c-2.44 1.28-5.53 3.26-8.62 5.25l-4.42 3.08c-1.38 1-2.64 2-3.73 2.87s-2 1.54-2.6 2.08l-1 .83-12.6-14.9 1.1-.94c.68-.62 1.73-1.43 3-2.4s2.7-2.12 4.29-3.3L96.2 56c3.55-2.3 7.12-4.57 9.92-6.06l3.34-1.94 1.3-.65 8.94 17.35zm31.59-11.66c-.78.17-1.91.38-3.23.77l-4.55 1.22-5.13 1.65c-1.76.54-3.44 1.28-5.06 1.86s-3.1 1.22-4.35 1.78l-3.06 1.32c-.73.32-1.14.54-1.14.54l-8.33-17.64s.46-.25 1.31-.63l3.51-1.5c1.45-.64 3.14-1.39 5-2s3.87-1.58 5.87-2.21l5.91-1.89 5.23-1.41c1.52-.44 2.82-.69 3.72-.89l1.42-.31 4.16 19.07zM185 50.46l-4.59-.11c-1.38-.07-3 0-4.71.06l-2.66.06-2.73.2c-3.67.18-7.31.72-10 1l-4.52.77-3.52-19.2 5.21-.88c3.14-.39 7.33-1 11.55-1.21l3.07-.15 3.05-.07c2 0 3.83-.14 5.41-.07l5.28.13zm33.19 5.84s-1.73-.62-4.4-1.29c-1.34-.34-2.87-.83-4.56-1.18l-5.27-1.15-5.32-.9c-1.7-.27-3.3-.41-4.67-.59s-2.51-.31-3.31-.35l-1.26-.09 1.51-19.45 1.45.1c.93 0 2.24.21 3.81.4s3.41.37 5.37.68l6.11 1 6.06 1.32c1.94.41 3.71 1 5.24 1.36C222 37 224 37.67 224 37.67z"/></g><path class="cls-3" d="M133.91 80.89c-.92.35-1.9.93-3 1.45s-2.29 1.06-3.41 1.73l-3.33 1.86c-1.07.6-2 1.25-2.84 1.75l-2 1.24a7.93 7.93 0 00-.74.5l5.14 7.69a6.45 6.45 0 01.67-.46l1.84-1.14c.76-.46 1.62-1.05 2.59-1.6l3-1.7c1-.62 2.13-1.06 3.11-1.58s1.91-1 2.75-1.33l2.73-1.18-3.58-8.52zM163.3 72.24l-2.33.4c-1 .18-2.1.31-3.29.58l-3.74.82c-1.28.26-2.52.67-3.71 1s-2.29.58-3.2.91l-3.1 1 3 8.75 2.84-.91c.84-.31 1.86-.55 2.93-.84s2.22-.65 3.39-.88l3.43-.75c1.09-.26 2.13-.37 3-.53l2.14-.37c.51-.09.81-.11.81-.11l-1.26-9.16s-.35 0-.91.09zM189.31 71.55c-2-.1-4.55-.41-7.17-.4a100.64 100.64 0 00-10.43.22l.63 9.22a93.54 93.54 0 019.56-.2c2.39 0 4.77.28 6.56.36s3 .35 3 .35l1.12-9.17-.89-.11c-.6-.06-1.4-.2-2.38-.27zM215.46 77.22l-1.67-.53-3.64-1.17c-2.53-.65-5-1.41-7-1.76l-2.31-.51-.87-.19-1.75 9.08s.29 0 .8.17l2.11.47c1.77.31 4 1 6.36 1.61l3.33 1.07 1.54.49 1.34.52 2.79 1 3.51-8.54-3-1.14zM242 90.9l-2.77-1.9-3.23-2c-1.08-.72-2.23-1.33-3.3-1.92s-2-1.17-2.91-1.62L226.85 82l-4 8.32 2.66 1.31c.8.41 1.69.94 2.67 1.48s2 1.09 3 1.75l3 1.85 2.5 1.75 1.78 1.23.64.5 5.54-7.39-.7-.56zM260.71 107.54c-.81-.92-1.75-1.84-2.64-2.8-1.75-1.95-3.75-3.66-5.14-5-.68-.7-1.35-1.18-1.77-1.56l-.68-.59-6 7 .63.54c.38.35 1 .79 1.62 1.43 1.27 1.28 3.12 2.84 4.71 4.64.82.88 1.69 1.71 2.42 2.56l2 2.33a29.49 29.49 0 011.89 2.31l7.24-5.74a28.39 28.39 0 00-2.07-2.52c-.67-.8-1.41-1.67-2.21-2.6zM278.17 133.88c-.91-1.73-1.94-4.12-3.28-6.36-.65-1.12-1.22-2.29-1.89-3.31l-1.77-2.83-.7-1.13c-.23-.33-.42-.61-.59-.84l-.51-.73-7.63 5.23s.18.24.48.67l.54.76.64 1c.47.76 1 1.64 1.62 2.58s1.12 2 1.72 3c1.23 2 2.17 4.23 3 5.81.41.79.66 1.5.88 2s.32.75.32.75l8.48-3.68-.35-.82c-.24-.46-.52-1.23-.96-2.1zM286.09 157.56c-.27-1.19-.5-2.48-.83-3.74-.7-2.51-1.32-5-2-6.88-.29-.93-.54-1.7-.72-2.25a8.17 8.17 0 00-.29-.84l-8.71 3.08a6.22 6.22 0 01.26.77l.66 2.06c.61 1.68 1.18 4 1.82 6.3.3 1.15.51 2.33.76 3.42s.48 2.11.6 3l.5 2.94 9.14-1.37-.55-3.22c-.12-.97-.36-2.08-.64-3.27zM288.37 174.81c-.14-1.95-.23-3.25-.23-3.25l-9.22.74s.09 1.19.22 3c.05.89 0 1.94.08 3.06s.08 2.32 0 3.51-.06 2.4-.09 3.52-.16 2.16-.23 3.06-.09 1.64-.17 2.15l-.11.82 9.19 1 .11-.89c.09-.56.13-1.38.2-2.36s.15-2.11.24-3.33.07-2.53.1-3.84 0-2.61 0-3.83-.03-2.38-.09-3.36zM277.08 201.17c-.19.88-.41 1.9-.65 3s-.6 2.23-.92 3.38-.66 2.29-1 3.35-.64 2.07-.94 2.91l-1.06 2.78 8.62 3.34s.47-1.22 1.16-3c.33-.92.64-2 1-3.17s.8-2.39 1.1-3.66.68-2.52 1-3.69l.71-3.27c.46-1.9.63-3.2.63-3.2l-9.1-1.64a29.65 29.65 0 01-.55 2.87z"/><path class="cls-4" d="M326.86 224.6l-2.07 6.4a158.15 158.15 0 01-8 18.76c-.42.83-.82 1.66-1.25 2.48l-1.34 2.41c-.9 1.59-1.73 3.18-2.64 4.66-1.86 2.94-3.5 5.75-5.15 8s-2.88 4.21-3.9 5.47l-1.56 2 5 3.93 1.62-2.1c1.07-1.31 2.41-3.33 4.07-5.69s3.43-5.27 5.36-8.33c.95-1.54 1.82-3.2 2.76-4.85l1.39-2.51c.45-.86.87-1.73 1.3-2.59a163.36 163.36 0 008.31-19.54l2.15-6.67c.48-1.62.71-2.56.71-2.56l-6.16-1.72s-.15.9-.6 2.45z"/><path class="cls-1" d="M316.06 79.33l-2.65-3.43c-1-1.32-2.16-2.84-3.52-4.38a169 169 0 00-21.27-21.35 173.74 173.74 0 00-24.74-17.33L259 30.1c-1.47-.8-2.8-1.41-3.87-2l-3.39-1.67-4.4 9.33 3.19 1.57c1 .51 2.26 1.08 3.64 1.84l4.62 2.57A162.79 162.79 0 01282 58.06a158 158 0 0120 20.06c1.29 1.45 2.34 2.89 3.31 4.12l2.49 3.23c.69.89 1.17 1.64 1.53 2.13s.53.76.53.76l8.42-5.94-.57-.81c-.4-.53-.92-1.32-1.65-2.28zM172.85.12c-1.64 0-3.62.14-5.9.31s-4.85.3-7.64.68a178.65 178.65 0 00-77.17 27.22c-2.41 1.46-4.49 3-6.38 4.29s-3.51 2.44-4.76 3.46l-4.08 3.16 6.87 8.62 3.83-3c1.2-1 2.74-2 4.5-3.25s3.72-2.66 6-4a167.76 167.76 0 0172.44-25.56c2.62-.35 5-.47 7.18-.63s4-.29 5.54-.3l4.83-.11L178 0zM359.3 198.14c0-.94-.09-1.48-.09-1.48a1.66 1.66 0 00-1.37-1.67l-10.27-.84a1.66 1.66 0 00-1.64 1.67s0 .49-.13 1.34-.25 2.08-.42 3.54c-.29 2.94-1 6.82-1.63 10.7-.34 1.94-.81 3.86-1.19 5.66s-.76 3.49-1.17 4.91l-1.28 4.75a1.73 1.73 0 001 2.16l14.89 4.46c.92.28 1.93-.62 2.07-1.86 0 0 .25-2.2.63-5.49.21-1.63.31-3.56.45-5.61s.32-4.22.34-6.41.06-4.35.09-6.39-.09-3.93-.12-5.54-.12-2.96-.16-3.9z"/><path class="cls-3" d="M99.1 60.28a4.55 4.55 0 106.31 1.37 4.51 4.51 0 00-6.31-1.37zM132.64 43.73a4.46 4.46 0 00-2.76 5.83 4.49 4.49 0 008.5-2.9 4.49 4.49 0 00-5.74-2.93zM169.31 36.39a4.43 4.43 0 00-4.17 4.89 4.64 4.64 0 004.79 4.19 4.47 4.47 0 003-1.54 4.65 4.65 0 001.17-3.25 4.56 4.56 0 00-1.47-3.18 4.46 4.46 0 00-3.32-1.11zM206.65 38.63a4.55 4.55 0 103.52 5.42 4.54 4.54 0 00-3.52-5.42z"/><path fill="#00b3ea" d="M269.26 344.31v-1"/></g></g></svg>