<svg xmlns="http://www.w3.org/2000/svg" xmlns:xlink="http://www.w3.org/1999/xlink" viewBox="0 0 269.73 181.51"><defs><radialGradient id="radial-gradient" cx="120.58" cy="21.37" r="10.04" gradientTransform="rotate(87.35 120.574 21.363)" gradientUnits="userSpaceOnUse"><stop offset="0" stop-color="#fff"/><stop offset=".02" stop-color="#f4f4f4"/><stop offset=".14" stop-color="#bcbcbc"/><stop offset=".25" stop-color="#8a8a8a"/><stop offset=".37" stop-color="#5f5f5f"/><stop offset=".49" stop-color="#3d3d3d"/><stop offset=".61" stop-color="#222"/><stop offset=".74" stop-color="#0f0f0f"/><stop offset=".87" stop-color="#040404"/><stop offset="1"/></radialGradient><radialGradient id="radial-gradient-2" cx="117.83" cy="69.76" r="10.04" gradientTransform="rotate(87.35 117.832 69.76)" xlink:href="#radial-gradient"/><radialGradient id="radial-gradient-3" cx="184.07" cy="120.9" r="10.04" gradientTransform="rotate(87.4 184.075 120.91)" xlink:href="#radial-gradient"/><radialGradient id="radial-gradient-5" cx="206.04" cy="157.97" r="10.04" gradientTransform="rotate(87.4 206.043 157.977)" xlink:href="#radial-gradient"/><radialGradient id="radial-gradient-8" cx="190.94" cy="10.04" r="10.04" gradientTransform="rotate(87.4 190.941 10.05)" xlink:href="#radial-gradient"/><radialGradient id="radial-gradient-11" cx="120.58" cy="21.37" r="10.04" gradientTransform="rotate(87.35 120.574 21.363)" gradientUnits="userSpaceOnUse"><stop offset="0" stop-color="#fff"/><stop offset=".02" stop-color="#fef4f9"/><stop offset=".14" stop-color="#f9bcd7"/><stop offset=".25" stop-color="#f58ab9"/><stop offset=".37" stop-color="#f15fa0"/><stop offset=".49" stop-color="#ee3d8c"/><stop offset=".61" stop-color="#ec227c"/><stop offset=".74" stop-color="#ea0f71"/><stop offset=".87" stop-color="#e9046a"/><stop offset="1" stop-color="#e90068"/></radialGradient><radialGradient id="radial-gradient-12" cx="190.94" cy="10.04" r="10.04" gradientTransform="rotate(87.4 190.941 10.05)" xlink:href="#radial-gradient-11"/><radialGradient id="radial-gradient-13" cx="117.83" cy="69.76" r="10.04" gradientTransform="rotate(87.35 117.832 69.76)" xlink:href="#radial-gradient-11"/><radialGradient id="radial-gradient-14" cx="184.07" cy="120.9" r="10.04" gradientTransform="rotate(87.4 184.075 120.91)" xlink:href="#radial-gradient-11"/><radialGradient id="radial-gradient-15" cx="206.04" cy="157.97" r="10.04" gradientTransform="rotate(87.4 206.043 157.977)" xlink:href="#radial-gradient-11"/><filter id="luminosity-noclip" x="110.54" y="-7780.3" width="20.09" height="32766" filterUnits="userSpaceOnUse" color-interpolation-filters="sRGB"><feFlood flood-color="#fff" result="bg"/><feBlend in="SourceGraphic" in2="bg"/></filter><filter id="luminosity-noclip-2" x="107.79" y="-7780.3" width="20.09" height="32766" filterUnits="userSpaceOnUse" color-interpolation-filters="sRGB"><feFlood flood-color="#fff" result="bg"/><feBlend in="SourceGraphic" in2="bg"/></filter><filter id="luminosity-noclip-3" x="174.03" y="-7780.3" width="20.09" height="32766" filterUnits="userSpaceOnUse" color-interpolation-filters="sRGB"><feFlood flood-color="#fff" result="bg"/><feBlend in="SourceGraphic" in2="bg"/></filter><filter id="luminosity-noclip-5" x="196" y="-7780.3" width="20.09" height="32766" filterUnits="userSpaceOnUse" color-interpolation-filters="sRGB"><feFlood flood-color="#fff" result="bg"/><feBlend in="SourceGraphic" in2="bg"/></filter><filter id="luminosity-noclip-8" x="180.89" y="-7780.3" width="20.09" height="32766" filterUnits="userSpaceOnUse" color-interpolation-filters="sRGB"><feFlood flood-color="#fff" result="bg"/><feBlend in="SourceGraphic" in2="bg"/></filter><filter id="luminosity-noclip-11" x="110.54" y="11.33" width="20.09" height="20.09" filterUnits="userSpaceOnUse" color-interpolation-filters="sRGB"><feFlood flood-color="#fff" result="bg"/><feBlend in="SourceGraphic" in2="bg"/></filter><filter id="luminosity-noclip-12" x="180.89" y="0" width="20.09" height="20.09" filterUnits="userSpaceOnUse" color-interpolation-filters="sRGB"><feFlood flood-color="#fff" result="bg"/><feBlend in="SourceGraphic" in2="bg"/></filter><filter id="luminosity-noclip-13" x="107.79" y="59.72" width="20.09" height="20.09" filterUnits="userSpaceOnUse" color-interpolation-filters="sRGB"><feFlood flood-color="#fff" result="bg"/><feBlend in="SourceGraphic" in2="bg"/></filter><filter id="luminosity-noclip-14" x="174.03" y="110.86" width="20.09" height="20.09" filterUnits="userSpaceOnUse" color-interpolation-filters="sRGB"><feFlood flood-color="#fff" result="bg"/><feBlend in="SourceGraphic" in2="bg"/></filter><filter id="luminosity-noclip-15" x="196" y="147.92" width="20.09" height="20.09" filterUnits="userSpaceOnUse" color-interpolation-filters="sRGB"><feFlood flood-color="#fff" result="bg"/><feBlend in="SourceGraphic" in2="bg"/></filter><mask id="mask-11" x="110.54" y="11.33" width="20.09" height="20.09" maskUnits="userSpaceOnUse"><g mask="url(#mask)"><circle cx="120.58" cy="21.37" r="10.04" transform="rotate(-87.35 120.574 21.373)" style="mix-blend-mode:multiply" fill="url(#radial-gradient)"/></g></mask><mask id="mask-13" x="180.89" y="0" width="20.09" height="20.09" maskUnits="userSpaceOnUse"><g mask="url(#mask-8)"><circle cx="190.94" cy="10.04" r="10.04" transform="rotate(-87.4 190.942 10.04)" style="mix-blend-mode:multiply" fill="url(#radial-gradient-8)"/></g></mask><mask id="mask-15" x="107.79" y="59.72" width="20.09" height="20.09" maskUnits="userSpaceOnUse"><g mask="url(#mask-2)"><circle cx="117.83" cy="69.76" r="10.04" transform="rotate(-87.35 117.827 69.764)" style="mix-blend-mode:multiply" fill="url(#radial-gradient-2)"/></g></mask><mask id="mask-17" x="174.03" y="110.86" width="20.09" height="20.09" maskUnits="userSpaceOnUse"><g mask="url(#mask-3)"><circle cx="184.07" cy="120.9" r="10.04" transform="rotate(-87.4 184.085 120.899)" style="mix-blend-mode:multiply" fill="url(#radial-gradient-3)"/></g></mask><mask id="mask-19" x="196" y="147.92" width="20.09" height="20.09" maskUnits="userSpaceOnUse"><g mask="url(#mask-5)"><circle cx="206.04" cy="157.97" r="10.04" transform="rotate(-87.4 206.051 157.967)" style="mix-blend-mode:multiply" fill="url(#radial-gradient-5)"/></g></mask><style>.cls-12,.cls-14{mix-blend-mode:overlay}.cls-13,.cls-14,.cls-15{fill:#ffec9d}.cls-15{opacity:.5}.cls-19{mask:url(#mask-11)}.cls-21{mask:url(#mask-13)}.cls-23{mask:url(#mask-15)}.cls-25{mask:url(#mask-17)}.cls-27{mask:url(#mask-19)}</style></defs><g style="isolation:isolate"><g id="图层_2" data-name="图层 2"><g id="图层_1-2" data-name="图层 1"><g class="cls-12"><path class="cls-13" d="M74.57 83.46h2.06v-9.68l5.39-5.3-1.46-1.47-5.99 5.91v10.54z"/><path class="cls-13" d="M87.87 107.83h19.94l14.81-15.01V72.88l-14.85-13.1H87.91l-5.54 5.53 1.45 1.46 4.94-4.93h18.23l13.57 11.97v18.16l-13.61 13.8H88.8L76.63 92.01v-5.12h-2.06v5.89l13.3 15.05z"/><path class="cls-13" d="M69.77 94.67v-24L85.71 55h24l18.11 15.66v24.07l-18 18.25H85.64zm54.91-1.21v-21.4l-16.17-14H87L72.86 72v21.52l14.19 16.37h21.39z"/><path class="cls-13" d="M79.64 67a2.69 2.69 0 112.69 2.69A2.69 2.69 0 0179.64 67zm1.71 0a1 1 0 101-1 1 1 0 00-1 1zM72.77 85.18a2.69 2.69 0 112.69 2.69 2.7 2.7 0 01-2.69-2.69zm1.72 0a1 1 0 101-1 1 1 0 00-1 1zM67.63 106.8a3.38 3.38 0 113.37 3.38 3.37 3.37 0 01-3.37-3.38zm1.71 0a1.66 1.66 0 101.66-1.66 1.66 1.66 0 00-1.66 1.66zM115.33 113.67a3.38 3.38 0 113.38 3.37 3.39 3.39 0 01-3.38-3.37zm1.72 0a1.66 1.66 0 101.66-1.66 1.65 1.65 0 00-1.66 1.66zM118.08 55.66a3.38 3.38 0 113.37 3.34 3.37 3.37 0 01-3.37-3.34zm1.71 0a1.66 1.66 0 101.66-1.66 1.66 1.66 0 00-1.66 1.66z"/><path class="cls-13" d="M68.8 95.11h-.06V70.19L85.12 54h24.94l18.74 16.19v24.88L110.1 114v.05H85.18zm59.66-.18V70.34l-18.53-16.05h-24.6L69.08 70.34v24.6l16.26 18.73h24.58z"/><path class="cls-13" d="M81.53 122.25h31.66l5.46-5.51-2.92-2.9-4.26 4.29H83.43l-9.39-10.97-3.13 2.67 10.62 12.42zM121.43 113.93l15.61-15.75V66.53l-12.52-10.7-2.69 3.13 11.09 9.47v28.06l-14.42 14.54 2.93 2.9zM67.78 106.19l3.12-2.68-5.94-6.93V68.34l18.37-18.17h28.24l6.53 5.58 2.68-3.13-7.69-6.57H81.63L60.84 66.62V98.1l6.94 8.09z"/></g><g class="cls-12"><path class="cls-13" d="M199.11 101.86a1.29 1.29 0 11-1.29 1.29 1.29 1.29 0 011.29-1.29zm0 .34a.95.95 0 10.94 1 .95.95 0 00-.94-1zM202.2 101.86a1.29 1.29 0 11-1.29 1.29 1.28 1.28 0 011.29-1.29zm0 .34a.95.95 0 100 1.89.95.95 0 000-1.89zM204.94 101.86a1.29 1.29 0 11-1.28 1.29 1.29 1.29 0 011.28-1.29zm0 .34a.95.95 0 10.95 1 .95.95 0 00-.95-1zM207.69 101.86a1.29 1.29 0 11-1.29 1.29 1.29 1.29 0 011.29-1.29zm0 .34a.95.95 0 10.94 1 .95.95 0 00-.94-1zM210.43 101.86a1.29 1.29 0 11-1.28 1.29 1.29 1.29 0 011.28-1.29zm0 .34a.95.95 0 10.95 1 .95.95 0 00-.95-1zM213.18 101.86a1.29 1.29 0 11-1.29 1.29 1.29 1.29 0 011.29-1.29zm0 .34a.95.95 0 10.94 1 .95.95 0 00-.94-1zM215.93 101.86a1.29 1.29 0 11-1.29 1.29 1.28 1.28 0 011.29-1.29zm0 .34a.95.95 0 100 1.89.95.95 0 000-1.89zM218.67 101.86a1.29 1.29 0 11-1.29 1.29 1.29 1.29 0 011.29-1.29zm0 .34a.95.95 0 101 1 .95.95 0 00-1-1zM221.42 101.86a1.29 1.29 0 11-1.29 1.29 1.28 1.28 0 011.29-1.29zm0 .34a.95.95 0 100 1.89.95.95 0 000-1.89zM224.16 101.86a1.29 1.29 0 11-1.28 1.29 1.29 1.29 0 011.28-1.29zm0 .34a.95.95 0 101 1 .95.95 0 00-1-1zM226.91 101.86a1.29 1.29 0 11-1.29 1.29 1.29 1.29 0 011.29-1.29zm0 .34a.95.95 0 10.94 1 .95.95 0 00-.94-1z"/><path class="cls-13" transform="rotate(-45 248.65 125.056)" d="M248.47 95.41h.34v59.3h-.34z"/><path class="cls-13" transform="rotate(-45 210.372 86.771)" d="M210.19 64.59h.34v44.37h-.34z"/><path class="cls-13" transform="rotate(-45 246.584 125.742)" d="M246.42 95.13h.34v61.24h-.34z"/><path class="cls-13" transform="rotate(-45 208.287 87.435)" d="M208.11 66.26h.34v42.37h-.34z"/><path class="cls-13" transform="rotate(-45 244.48 126.383)" d="M244.31 94.74h.34v63.3h-.34z"/><path class="cls-13" transform="rotate(-45 206.334 88.224)" d="M206.15 68.13h.34v40.2h-.34z"/><path class="cls-13" transform="rotate(-45 242.457 127.101)" d="M242.28 94.53h.34v65.15h-.34z"/><path class="cls-13" transform="rotate(-45 204.306 88.954)" d="M204.14 69.92h.34V108h-.34z"/><path class="cls-13" transform="rotate(-45 240.403 127.792)" d="M240.23 94.25h.34v67.09h-.34z"/><path class="cls-13" transform="rotate(-45 202.329 89.733)" d="M202.16 71.69h.34v36.07h-.34z"/><path class="cls-13" transform="rotate(-45 238.299 128.433)" d="M238.12 93.86h.34v69.16h-.34z"/><path class="cls-13" transform="rotate(-45 200.318 90.456)" d="M200.15 73.48h.34v33.95h-.34z"/><path class="cls-13" transform="rotate(-45 236.283 129.168)" d="M236.11 93.68h.34v70.98h-.34z"/><path class="cls-13" transform="rotate(-45 198.314 91.195)" d="M198.14 75.24h.34v31.91h-.34z"/><path class="cls-13" transform="rotate(-45 234.21 129.837)" d="M234.04 93.37h.34v72.95h-.34z"/><path class="cls-13" transform="rotate(-45 196.268 91.903)" d="M196.1 77.02h.34v29.76h-.34z"/><path class="cls-13" transform="rotate(-45 232.156 130.528)" d="M231.98 93.08h.34v74.89h-.34z"/><path class="cls-13" transform="rotate(-45 194.245 92.621)" d="M194.07 78.79h.34v27.65h-.34z"/><path class="cls-13" transform="rotate(-45 230.102 131.218)" d="M229.93 92.82h.34v76.8h-.34z"/><path class="cls-13" transform="rotate(-45 192.241 93.361)" d="M192.07 80.63h.34v25.48h-.34z"/><path class="cls-13" transform="rotate(-45 228.408 132.27)" d="M228.24 91.96h.34v80.62h-.34z"/><path class="cls-13" transform="rotate(-45 190.156 94.025)" d="M189.98 82.46h.34v23.14h-.34z"/></g><g class="cls-12"><path class="cls-13" d="M178.91 84.15h-45.72l-.05-.05-16.51-16.42h-9.18L88.78 49.01l.24-.25 18.57 18.57h9.18l.05.05 16.51 16.43h45.24v-11.6l-6.53-6.61V55.59l5.5-5.4v-5.51h.34v5.65l-5.49 5.4v9.73l6.52 6.61v12.08z"/><path class="cls-13" d="M126.1 85.34l-11.71-11.76V62.6l-6.34-6.25h-7.12l-9.75-9.75.24-.24 9.65 9.65h7.12l6.54 6.45v10.98l11.62 11.66-.25.24zM176.16 80.37h-10.37l-4.03-4.11h-12.3l-3.86 3.77h-9.94v-.34h9.8l3.86-3.78h12.59l4.03 4.12h10.22v.34z"/></g><g class="cls-12"><path class="cls-13" d="M133.72 20.43a1.59 1.59 0 00-1.6 1.6h-27.93L98 15.85H63.4l-6.58 6.66a1.56 1.56 0 10.25.25l6.48-6.57h34.29l6.21 6.18h28.11a1.6 1.6 0 101.56-1.94zM135.44 29a1.6 1.6 0 00-1.61 1.6h-20.52l-6.89 6.86H90.2l-3.71-3.7a1.61 1.61 0 10-1.16.5 1.57 1.57 0 00.9-.28l3.83 3.83h16.5l6.89-6.81h20.42a1.6 1.6 0 101.57-2z"/><path class="cls-13" d="M99.06 22.83a1.61 1.61 0 00-1.61 1.6H76.39L68 32.67H44.37a1.62 1.62 0 100 .34h23.75l8.41-8.24h21a1.6 1.6 0 101.57-1.94z"/></g><g class="cls-12"><path class="cls-13" d="M201 81.52a1.6 1.6 0 00-1.6 1.6 1.58 1.58 0 00.62 1.26l-3.9 3.89h-24.69l-6-5.84h-14a1.62 1.62 0 100 .35h13.9l6 5.83h25l4.06-4a1.73 1.73 0 00.68.15 1.6 1.6 0 000-3.2z"/><path class="cls-13" d="M228.79 72.25a1.6 1.6 0 00-1.6 1.6h-22.61L197 81.4h-14.32a1.57 1.57 0 100 .35h14.49l7.58-7.55h22.51a1.59 1.59 0 001.56 1.26 1.61 1.61 0 000-3.21zM186.92 74.31a1.6 1.6 0 00-1.6 1.6h-11.14l-7.07-7.2h-24.24a1.6 1.6 0 10-1.6 1.6 1.59 1.59 0 001.56-1.26H167l7 7.21h11.32a1.6 1.6 0 101.57-2z"/></g><g class="cls-12"><path class="cls-13" d="M37.28 18.22a1.6 1.6 0 011.6 1.6 1.75 1.75 0 01-.63 1.34l3.9 4h24.69l6-5.84h14a1.61 1.61 0 113.16-.15 1.65 1.65 0 01-1.6 1.66 1.6 1.6 0 01-1.57-1.2H73l-6 5.83H42l-4-4.12a1.55 1.55 0 01-.68.12 1.62 1.62 0 010-3.24z"/><path class="cls-13" d="M79.49 22.48a1.52 1.52 0 011.6 1.61h22.61l7.58 7.55h14.32a1.52 1.52 0 011.6-1.64 1.61 1.61 0 11-1.56 2h-14.5l-7.58-7.55H81.05a1.6 1.6 0 11-1.56-1.95zM85.33 31.21a1.54 1.54 0 01-1.61-1.63H72.59l-7.07 7.21H41.28a1.54 1.54 0 01-1.6 1.63 1.58 1.58 0 01-1.6-1.59 1.6 1.6 0 013.16-.39h24.14l7.06-7.2h11.32a1.61 1.61 0 111.57 2z"/></g><g class="cls-12"><circle class="cls-13" cx="112.75" cy="32.24" r="1.12"/><circle class="cls-13" cx="114.81" cy="56.95" r="1.12"/><path class="cls-13" d="M135.32 86.21h-.34v-8l-8.93-9.09v-3.18l-5.21-5.13h-9.7l-5.06-5.15h-4.29l-5.5-5.15.24-.25 5.4 5.06h4.29l5.06 5.15h9.7l5.42 5.33v3.18l8.92 9.09v8.14z"/><path class="cls-13" d="M138.07 81.06h-.35v-13.4l-9.68-9.59H113.8l-7.04-6.83.24-.25 6.94 6.73h14.24l9.89 9.8v13.54zM140.26 68.05l-10.09-10.17v-4.21l-5.95-5.95.24-.24 6.06 6.05v4.21l9.98 10.07-.24.24zM126.62 55.61l-5.03-5.02v-5.84l-5.09-5.1.24-.24 5.2 5.2v5.83l4.92 4.93-.24.24z"/><path class="cls-13" d="M122.41 55.35l-3.22-3.31v-5.92l-8.7-8.7.24-.24 8.8 8.8v5.92l3.13 3.22-.25.23zM114.86 57.24l-6.04-6.04h-7.12l-5.03-4.94.25-.24 4.92 4.84h7.13l6.14 6.14-.25.24zM135.89 75.52l-6.75-6.74V65l-2.86-2.78.24-.24 2.97 2.88v3.77l6.64 6.65-.24.24zM150.04 70.2l-12.66-12.66v-7.98l-8.27-8.28.24-.24 8.37 8.37v7.98l12.57 12.57-.25.24z"/><path class="cls-13" d="M133.43 48.7l-6.07-6.08h-2.68v-.34h2.82l6.17 6.17-.24.25zM142.19 74.2h-.35v-7.83l-7.55-7.55v-4.8l-5.23-5.14.24-.25 5.33 5.25v4.8l7.56 7.55v7.97z"/><path class="cls-13" d="M140.47 52.92h-.34v-8.17l-6.6-6.59h-15.1l-5.41-5.41.25-.24 5.31 5.31h15.1l6.79 6.79v8.31z"/><path class="cls-13" d="M142.19 51.55h-.35v-4.11l2.06-2.14v-2.69l-6.51-6.43.24-.25 6.61 6.53v2.98l-2.05 2.14v3.97zM117.44 51.75l-6.83-6.91v-3.18l-5.1-5.1.24-.24 5.2 5.2v3.18l6.73 6.81-.24.24z"/><path class="cls-13" d="M98.25 43.99h-.34v-6.93l4.22-4.05h6.15l5.11 5.11-.24.25-5.01-5.02h-5.87l-4.02 3.85v6.79z"/><path class="cls-13" d="M102.18 46.62l-1.52-1.53v-6.93h.34v6.79l1.42 1.42-.24.25z"/><circle class="cls-13" cx="135.06" cy="86.47" r="1.12"/><circle class="cls-13" cx="137.81" cy="80.98" r="1.12"/><circle class="cls-13" cx="141.93" cy="74.11" r="1.12"/><circle class="cls-13" cx="140.21" cy="67.93" r="1.12"/><circle class="cls-13" cx="140.21" cy="53.17" r="1.12"/><circle class="cls-13" cx="141.93" cy="50.77" r="1.12"/><circle class="cls-13" cx="126.48" cy="62.1" r="1.12"/><circle class="cls-13" cx="126.48" cy="55.23" r="1.12"/><circle class="cls-13" cx="125.11" cy="48.37" r="1.12"/><circle class="cls-13" cx="128.89" cy="48.37" r="1.12"/><circle class="cls-13" cx="133" cy="48.37" r="1.12"/><circle class="cls-13" cx="128.89" cy="40.82" r="1.12"/><circle class="cls-13" cx="125.11" cy="42.54" r="1.12"/><circle class="cls-13" cx="122.36" cy="55.23" r="1.12"/><circle class="cls-13" cx="117.22" cy="51.46" r="1.12"/><circle class="cls-13" cx="117.22" cy="40.13" r="1.12"/><circle class="cls-13" cx="96.28" cy="50.09" r="1.12"/><circle class="cls-13" cx="96.28" cy="45.97" r="1.12"/><circle class="cls-13" cx="102.46" cy="46.65" r="1.12"/><circle class="cls-13" cx="100.74" cy="38.42" r="1.12"/><circle class="cls-13" cx="105.55" cy="36.36" r="1.12"/><circle class="cls-13" cx="110.7" cy="37.39" r="1.12"/><circle class="cls-13" cx="113.78" cy="38.42" r="1.12"/><circle class="cls-13" cx="137.81" cy="36.36" r="1.12"/><circle class="cls-13" cx="98" cy="42.88" r="1.12"/><circle class="cls-13" cx="136.09" cy="75.48" r="1.12"/><circle class="cls-13" cx="150.16" cy="69.99" r="1.12"/></g><g class="cls-12"><path class="cls-13" d="M204.49 177.45l-18.79-18.82h-8.92l-.05-.05-41.41-41.33v-12.78l-10.33-10.33.24-.24 10.43 10.43v12.78l41.26 41.17h8.92l.05.05 18.84 18.88-.24.24zM256.13 150.05h-45.46l-.05-.05-31.06-31.11-13.42-13.46h-21.28l-.05-.05-11.31-11.22.25-.24L145 105.09h21.28l.05.05 13.47 13.51 31.01 31.05h45.32v.35z"/><path class="cls-13" d="M256.13 158.97h-43.66l-.05-.05-9.82-9.9h-14.5l-.05-.05-23.37-23.29H153.1l-26.05-26.05.24-.24 25.95 25.94h11.58l.05.06 23.38 23.28h14.5l.05.05 9.82 9.91h43.51v.34z"/><path class="cls-13" d="M255.79 144.21h-62.28l-.05-.05-25.26-25.35h-7.55l-8.72-8.58.24-.25 8.62 8.49h7.55l.05.05 25.26 25.35h62.14v.34zM214.14 170.42l-13.51-13.51h-18.7l-25.71-25.7.24-.25 25.61 25.61h18.7l13.61 13.6-.24.25z"/><path class="cls-13" d="M211.48 180.63l-4.43-4.43v-4.98l-12.48-12.47.25-.25 12.58 12.58v4.98l4.32 4.32-.24.25zM228.67 169.95h-10.36l-11.72-11.72.24-.24 11.62 11.62h10.22v.34zM251.33 128.42h-42.38l-.05-.05-18.05-18.14h-9.52L168.2 97.19h-19.15v-.34h19.29l13.13 13.04h9.52l.05.05 18.06 18.14h42.23v.34z"/><path class="cls-13" d="M237.22 136.35l-12.73-12.73h-24.2l-23.56-23.56.24-.24 23.46 23.46h24.2l12.83 12.83-.24.24z"/><path class="cls-13" d="M247.21 126.02h-14.92l-.05-.05-11.19-11.27h-18.36l-.05-.05-15.27-15.23.24-.25 15.22 15.18h18.36l.06.05 11.19 11.28h14.77v.34z"/><path class="cls-13" d="M206.37 105.77h-17.92l-17.81-17.81.24-.24 17.71 17.71h17.78v.34z"/><circle class="cls-13" cx="170.76" cy="87.84" r="1.34"/><circle class="cls-13" cx="206.45" cy="105.69" r="1.34"/><circle class="cls-13" cx="187.57" cy="99.17" r="1.34"/><circle class="cls-13" cx="176.25" cy="99.17" r="1.34"/><circle class="cls-13" cx="149.14" cy="96.76" r="1.34"/><circle class="cls-13" cx="125.11" cy="94.02" r="1.34"/><circle class="cls-13" cx="133.69" cy="94.02" r="1.34"/><circle class="cls-13" cx="127.17" cy="99.85" r="1.34"/><circle class="cls-13" cx="151.88" cy="109.8" r="1.34"/><circle class="cls-13" cx="204.74" cy="177.42" r="1.34"/><circle class="cls-13" cx="211.26" cy="180.16" r="1.34"/><circle class="cls-13" cx="194.78" cy="158.54" r="1.34"/><circle class="cls-13" cx="214" cy="170.55" r="1.34"/><circle class="cls-13" cx="206.45" cy="157.85" r="1.34"/><circle class="cls-13" cx="228.76" cy="169.87" r="1.34"/><circle class="cls-13" cx="156.34" cy="131.08" r="1.34"/><circle class="cls-13" cx="256.22" cy="158.88" r="1.34"/><circle class="cls-13" cx="256.22" cy="149.96" r="1.34"/><circle class="cls-13" cx="256.22" cy="144.13" r="1.34"/><circle class="cls-13" cx="237.34" cy="136.23" r="1.34"/><circle class="cls-13" cx="251.41" cy="128.34" r="1.34"/><circle class="cls-13" cx="247.29" cy="125.94" r="1.34"/></g><g class="cls-12"><path class="cls-13" d="M169.3 47.43l1.37-1.38v-4.46l-1.37 1.37v4.47zM167.24 49.48l1.37-1.37v-4.46l-1.37 1.37v4.46zM165.18 51.55l1.37-1.38v-4.46l-1.37 1.37v4.47zM166.21 69.73h2.39l.05-.04 11.07-11.03 19.51-19.47h3.95l4.64-4.56-.25-.24-4.54 4.46h-3.94l-30.63 30.54h-2.25v.34zM163.74 78.31h11.39v-.34h-11.25l-6.52-6.52h-5.29L147 76.6h-10.99v.34h11.14l5.06-5.15h5.01l6.52 6.52zM171.28 74.88h3.51v-.34h-3.36l-2.66-2.75h-7.29l-5.45-5.44-.24.25 5.54 5.54h7.3l2.65 2.74z"/><path class="cls-13" d="M130.86 81.06h13.02l2.49-2.4h6.61l2.8-2.75-.24-.25-2.7 2.65h-6.61l-2.48 2.41h-12.89v.34zM166.21 63.56h.34v-8l8.93-9.09v-3.18l5.21-5.13h9.7l5.07-5.15h4.28l5.5-5.15-.24-.25-5.4 5.06h-4.29l-5.06 5.15h-9.7l-5.42 5.33v3.18l-8.92 9.09v8.14z"/><path class="cls-13" d="M163.46 58.41h.35v-13.4l9.68-9.6h14.24l7.04-6.82-.24-.25-6.94 6.73h-14.24l-9.89 9.8v13.54zM161.27 45.4l10.09-10.17v-4.21l5.95-5.95-.24-.25-6.06 6.06v4.21l-9.98 10.07.24.24zM174.91 32.96l5.03-5.03V22.1l5.1-5.1-.25-.24-5.2 5.2v5.83l-4.92 4.93.24.24z"/><path class="cls-13" d="M179.12 32.7l3.22-3.31v-5.92l8.7-8.7-.24-.24-8.8 8.8v5.92l-3.13 3.21.25.24zM186.67 34.59l6.04-6.04h7.12l5.03-4.94-.24-.25-4.93 4.85h-7.12l-6.15 6.14.25.24zM202.93 39.19h.35v-3.45l4.15-4.06-.24-.25-4.26 4.17v3.59zM165.65 52.87l6.74-6.75v-3.77l2.86-2.78-.24-.25-2.97 2.89v3.77l-6.64 6.65.25.24zM195.21 20.66a1.38 1.38 0 111.37 1.34 1.38 1.38 0 01-1.37-1.34zm.34 0a1 1 0 002.06 0 1 1 0 00-2.06 0zM192.81 23.06a1.37 1.37 0 111.37 1.37 1.37 1.37 0 01-1.37-1.37zm.34 0a1 1 0 101-1 1 1 0 00-1 1zM190.41 25.46a1.37 1.37 0 111.37 1.37 1.37 1.37 0 01-1.37-1.37zm.34 0a1 1 0 101-1 1 1 0 00-1 1zM151.49 47.55l12.66-12.67v-7.97l8.27-8.28-.24-.24-8.37 8.37v7.98L151.25 47.3l.24.25z"/><path class="cls-13" d="M168.1 26.05l6.08-6.08h2.67v-.34h-2.82l-6.17 6.17.24.25zM159.35 51.55h.34v-7.83l7.55-7.55v-4.8l5.23-5.15-.24-.24-5.33 5.24v4.81l-7.55 7.55v7.97z"/><path class="cls-13" d="M161.06 30.27h.35V22.1l6.59-6.59h15.1l5.41-5.41-.25-.24-5.3 5.3h-15.11l-6.79 6.8v8.31z"/><path class="cls-13" d="M159.35 28.89h.34v-4.1l-2.06-2.14v-2.7l6.51-6.42-.24-.25-6.61 6.53v2.97l2.06 2.15v3.96zM184.09 29.1l6.83-6.92v-3.17l5.1-5.1-.24-.24-5.2 5.2v3.17l-6.73 6.82.24.24z"/><path class="cls-13" d="M203.28 21.34h.34V14.4l-4.22-4.04h-6.15l-5.11 5.11.24.24 5.02-5.01h5.86l4.02 3.85v6.79z"/><path class="cls-13" d="M199.35 23.96l1.52-1.52v-6.93h-.34v6.79l-1.42 1.42.24.24z"/><circle class="cls-13" cx="166.47" cy="63.81" r="1.12"/><circle class="cls-13" cx="163.72" cy="58.32" r="1.12"/><circle class="cls-13" cx="159.6" cy="51.46" r="1.12"/><circle class="cls-13" cx="161.32" cy="45.28" r="1.12"/><circle class="cls-13" cx="161.32" cy="30.52" r="1.12"/><circle class="cls-13" cx="159.6" cy="28.12" r="1.12"/><circle class="cls-13" cx="175.05" cy="39.45" r="1.12"/><circle class="cls-13" cx="175.05" cy="32.58" r="1.12"/><circle class="cls-13" cx="176.42" cy="25.72" r="1.12"/><circle class="cls-13" cx="172.65" cy="25.72" r="1.12"/><circle class="cls-13" cx="168.53" cy="25.72" r="1.12"/><circle class="cls-13" cx="172.65" cy="18.17" r="1.12"/><circle class="cls-13" cx="176.42" cy="19.88" r="1.12"/><circle class="cls-13" cx="179.17" cy="32.58" r="1.12"/><circle class="cls-13" cx="184.31" cy="28.81" r="1.12"/><circle class="cls-13" cx="184.31" cy="17.48" r="1.12"/><circle class="cls-13" cx="207.65" cy="34.64" r="1.12"/><circle class="cls-13" cx="207.65" cy="31.55" r="1.12"/><circle class="cls-13" cx="205.25" cy="27.43" r="1.12"/><circle class="cls-13" cx="205.25" cy="23.32" r="1.12"/><circle class="cls-13" cx="199.07" cy="24" r="1.12"/><circle class="cls-13" cx="200.79" cy="15.76" r="1.12"/><circle class="cls-13" cx="195.98" cy="13.71" r="1.12"/><circle class="cls-13" cx="190.84" cy="14.74" r="1.12"/><circle class="cls-13" cx="187.75" cy="15.76" r="1.12"/><circle class="cls-13" cx="188.78" cy="9.59" r="1.12"/><circle class="cls-13" cx="163.72" cy="13.71" r="1.12"/><circle class="cls-13" cx="203.53" cy="20.23" r="1.12"/><circle class="cls-13" cx="165.44" cy="52.83" r="1.12"/><circle class="cls-13" cx="151.37" cy="47.34" r="1.12"/><circle class="cls-13" cx="166.47" cy="69.31" r="1.12"/><circle class="cls-13" cx="174.7" cy="74.8" r="1.12"/><path class="cls-13" d="M175.82 78.25a1.12 1.12 0 10-2.23 0 1.12 1.12 0 002.23 0zM156.94 66.58a1.12 1.12 0 00-2.23 0 1.13 1.13 0 001.1 1.14 1.12 1.12 0 001.13-1.14zM156.94 75.85a1.1 1.1 0 00-1.09-1.14 1.12 1.12 0 101.09 1.14zM137 76.88a1.12 1.12 0 00-2.23 0A1.1 1.1 0 00135.9 78a1.12 1.12 0 001.1-1.12zM131.89 81a1.12 1.12 0 10-1.14 1.09 1.12 1.12 0 001.14-1.09z"/></g><g class="cls-12"><path class="cls-13" d="M131.89 18.6h-4.22l-8.89-8.93h-4.69l-4.06-3.92.24-.25 3.96 3.83h4.69l8.89 8.92h4.08v.35zM129.02 30.21l-6.05-6.05v-3.43l-3.16-3.16h-3.69l-7.86-7.78.24-.24 7.76 7.67h3.69l3.36 3.37v3.43l5.95 5.95-.24.24zM131.85 30.64l-3.39-3.39v-4.46l-5.62-5.53.25-.24 5.71 5.62v4.47l3.3 3.29-.25.24zM129.02 41.88l-5.71-5.71v-5.49l-10.93-10.85.24-.24 11.03 10.95v5.49l5.61 5.61-.24.24zM131.25 50.98l-5.61-5.61h-5.49l-6.4-6.4.24-.24 6.3 6.29h5.49l5.72 5.72-.25.24zM127.08 59.78h-.34v-6.62l-4.24-4.15.24-.25 4.34 4.26v6.76zM121.64 60.59l-6.98-6.99h-4.81l-6.18-6.17h-4.04v-.35h4.19l6.17 6.18h4.81l7.09 7.09-.25.24zM120.58 56.78L115 51.2h-2.31l-4.17-4.08.24-.25 4.07 3.99h2.31l5.69 5.68-.25.24z"/><circle class="cls-13" cx="127.08" cy="59.78" r="1.14"/><circle class="cls-13" cx="131.2" cy="50.86" r="1.14"/><circle class="cls-13" cx="113.7" cy="38.85" r="1.14"/><circle class="cls-13" cx="112.67" cy="19.97" r="1.14"/><circle class="cls-13" cx="129.14" cy="41.59" r="1.14"/><circle class="cls-13" cx="131.89" cy="30.27" r="1.14"/><circle class="cls-13" cx="122.97" cy="17.22" r="1.14"/><circle class="cls-13" cx="108.21" cy="9.67" r="1.14"/><circle class="cls-13" cx="110.27" cy="5.55" r="1.14"/><circle class="cls-13" cx="131.89" cy="18.6" r="1.14"/><circle class="cls-13" cx="122.62" cy="49.14" r="1.14"/><circle class="cls-13" cx="108.89" cy="47.08" r="1.14"/><circle class="cls-13" cx="99.63" cy="47.43" r="1.14"/><circle class="cls-13" cx="121.94" cy="60.47" r="1.14"/><circle class="cls-13" cx="120.56" cy="56.35" r="1.14"/></g><g class="cls-12"><path class="cls-13" d="M181.45 73a1.14 1.14 0 00-1.15 1.15 1.12 1.12 0 00.24.7l-3.42 3.43h-4.58l-2.83-2.75h-4.33a1.13 1.13 0 00-1.09-.81 1.15 1.15 0 100 2.3 1.16 1.16 0 001.15-1.15h4.13l2.83 2.75h4.86l3.53-3.53a1.15 1.15 0 10.66-2.09zM160.38 74.43v-2.56l13.17-13.1-15.88-15.92-5.83-5.75a1.18 1.18 0 00.21-.66 1.15 1.15 0 00-2.3 0 1.16 1.16 0 001.15 1.15 1.13 1.13 0 00.7-.25l5.83 5.76 15.64 15.67L160 71.72v2.71a1.13 1.13 0 00-1 1.13 1.15 1.15 0 002.3 0 1.16 1.16 0 00-.92-1.13z"/><path class="cls-13" d="M157.63 74.43v-3h-2.75v-4.71L165.21 57l-.23-.25-10.44 9.83v5.22h2.75v2.64a1.14 1.14 0 00-1 1.13 1.15 1.15 0 101.36-1.13zM150.9 33.47a1.16 1.16 0 00.91-.45l2 2.08v2.1l9.49 9.49.25-.24-9.39-9.39V35L152 32.71a1 1 0 00.07-.39 1.15 1.15 0 00-2.3 0 1.16 1.16 0 001.13 1.15zM157.29 36.54v1.35l7.25 7.34.25-.24-7.16-7.24v-1.21a1.19 1.19 0 10-.34 0zM148.71 64.82v-5l-2.06-2.15v-6.23l3.5-3.5a1.11 1.11 0 00.75.29 1.18 1.18 0 10-1-.55l-3.6 3.62v6.49l2.06 2.15v4.88a1.13 1.13 0 00-1 1.13 1.15 1.15 0 102.3 0 1.16 1.16 0 00-.95-1.13z"/><path class="cls-13" d="M162.93 54.38l-11.09-11.1a1.18 1.18 0 00.21-.67 1.15 1.15 0 10-1.15 1.16 1.21 1.21 0 00.7-.24l10.85 10.85-10.75 10.75a1.15 1.15 0 10-.8 2 1.15 1.15 0 001-1.7z"/></g><g class="cls-12"><path class="cls-13" d="M123.05 5.1a1 1 0 00.58-.19l1 1h10l8.5 8.45a1 1 0 10.2-.3l-8.55-8.5h-10l-.88-.88a1 1 0 10-1.82-.57 1 1 0 00.97.99z"/><path class="cls-13" d="M130.6 7.56a1 1 0 100 2 1 1 0 00.76-.35l4.58 4.58h2.59a1 1 0 100-.34h-2.48l-4.54-4.54a1 1 0 00.06-.35 1 1 0 00-.97-1zM127.86 3.72a1 1 0 001-.91h6.06l2.77 2.77a1 1 0 00-.19.58 1 1 0 101-1 1 1 0 00-.58.19l-2.53-2.53h6.5L153 13.91a1 1 0 00-.44.83 1 1 0 101-1 .78.78 0 00-.22 0L142 2.47h-13.18a1 1 0 10-1 1.25z"/><path class="cls-13" d="M153.6 16.48a1 1 0 00-1 .74h-16.55l-6.15-6.17h-3.09l-6.4-6.34a1 1 0 10-.79.39 1 1 0 00.53-.16l6.47 6.4v.05h3.09l6.15 6.18h16.74a1 1 0 101-1.09z"/><path class="cls-13" d="M148.82 14.05a1 1 0 101-1 1 1 0 00-.35.06l-2.75-2.75h-2.18l-2.76-2.72a1 1 0 00.12-.46 1 1 0 10-1 1 1 1 0 00.68-.27l2.82 2.78h2.18l2.59 2.6a1 1 0 00-.35.76z"/></g><path class="cls-14" d="M113.77 28.55H123l6.8-6.86h-12.33l-20.23 19.9H80.15L27.76 94.3H13.9l-7.18 7.3h20.65L55 74.2h9.44l16-16.13h-7.88l7.87-7.9h45.62l8.26-8.58h-33.84zm-40.88 33L63 71.45H53l10.19-10zM125 43.31v5.15H81.09v-5.15z"/><g class="cls-12"><path class="cls-15" d="M82.81 43.99h1.37v3.78h-1.37zM84.53 43.99h1.37v3.78h-1.37zM86.24 43.99h1.37v3.78h-1.37zM87.96 43.99h1.37v3.78h-1.37zM89.67 43.99h1.37v3.78h-1.37zM91.39 43.99h1.37v3.78h-1.37zM93.11 43.99h1.37v3.78h-1.37zM94.82 43.99h1.37v3.78h-1.37zM96.54 43.99h1.37v3.78h-1.37zM98.25 43.99h1.37v3.78h-1.37zM99.97 43.99h1.37v3.78h-1.37zM101.69 43.99h1.37v3.78h-1.37zM103.4 43.99h1.37v3.78h-1.37zM105.12 43.99h1.37v3.78h-1.37zM106.83 43.99h1.37v3.78h-1.37zM108.55 43.99h1.37v3.78h-1.37zM110.27 43.99h1.37v3.78h-1.37z"/><path opacity=".4" fill="#ffec9d" d="M111.98 43.99h1.37v3.78h-1.37z"/><path opacity=".3" fill="#ffec9d" d="M113.7 43.99h1.37v3.78h-1.37z"/><path opacity=".2" fill="#ffec9d" d="M115.41 43.99h1.37v3.78h-1.37z"/></g><path class="cls-14" d="M103.16 149.7l-8.44 8.58H74.36l4.78-4.78-47.38-47.39H6.47L0 99.25h28.05l54.36 54.57h11.3l17.27-17.16h41.68l-4.33 4.12h-36.39l-8.78 8.92z"/><path class="cls-14" d="M97.38 98.56l2.71-2.74H57.91l-4.71 4.8H40l-1.3-1.37h-9.53l5.83 5.84h2.78l-2.23-2.41h11.9l4.09 4.12h50.16l8.3-8.24zm-6 3.44H56.2l3.7-3.78h35.22z"/><g class="cls-12"><path class="cls-13" d="M15.2 94.1l5.83 5.84h2.06l-5.83-5.84H15.2zM18.63 94.1l5.83 5.84h2.06l-5.83-5.84h-2.06zM22.06 94.1l5.84 5.84h2.05l-5.83-5.84h-2.06zM25.49 94.1l5.84 5.84h2.06l-5.84-5.84h-2.06zM28.93 94.1l5.83 5.84h2.06l-5.84-5.84h-2.05z"/></g><g class="cls-12"><path class="cls-13" d="M70.45 100.97H58.78l2.06-2.06h11.67l-2.06 2.06zM83.15 100.97H71.48l2.06-2.06h11.67l-2.06 2.06z"/></g><path class="cls-14" d="M84.6 162.06h8.88l-14.45-14.42h21.2l3.17-3.08H61.53v-9.19l-9.61-9.69v-10.04l-15.79-15.7v16.9l15.45 15.36v9.87l12.01 12.09h13.04l7.97 7.9zM31.33 92.73h-10.3l18.88-18.88h9.26l15.71-15.78H54.67l28.74-28.83h28.57l-5.4 5.49H85.9L70.21 50.52h8.82L50.46 79h-5.4L31.33 92.73z"/><g class="cls-12"><path class="cls-13" d="M176.74 57.61a2.76 2.76 0 00-1.53.46l-6.56-6.55a.91.91 0 00-.12-1.23c-1-1-2.2-2.86-3.68-2.86h-9.67c-.24-.25-.48-.52-.72-.76-1.57-1.57-3.13-3.16-4.7-4.74a1 1 0 00-1.3-.1l-7.08-7.11a2.86 2.86 0 10-.25.24l7.09 7.11a.94.94 0 00.08 1.3l4.51 4.52c.41.42 1 1.31 1.57 1.47a7.74 7.74 0 002 .13h8.48c.75.74 1.49 1.44 2.24 2.19a1 1 0 001.34.08l6.52 6.52a2.74 2.74 0 101.8-.67zM183.26 50.4a2.73 2.73 0 00-2.21 1.12L170.79 41.3H159l-6.41-6.43a2.79 2.79 0 10-.26.23l6.52 6.54h11.75l10.26 10.22a2.74 2.74 0 102.4-1.41zM190.81 39.76a2.75 2.75 0 00-2.59 1.83h-1.54a1.35 1.35 0 01-.12-.12c-1.62-1.61-3.23-3.26-4.85-4.87a1 1 0 00-1.29-.11l-1.7-1.69a2.75 2.75 0 10-2 .84 2.73 2.73 0 001.72-.61l1.71 1.7a.93.93 0 00.08 1.29c1.69 1.67 3.38 3.44 5.07 5.12a3 3 0 002.27.51h.72a2.75 2.75 0 102.5-3.89zM190.81 30.15a2.73 2.73 0 00-2.36 1.35l-1-1a1 1 0 00-.1-1.3c-1-.95-1.91-1.91-2.86-2.87-.34-.33-.75-.91-1.23-1a7.78 7.78 0 00-2 0 1 1 0 00-1 .86h-.86V26a2.76 2.76 0 100 .46h.88a1 1 0 001 1h1.38c1.08 1.07 2.16 2.12 3.24 3.2a1 1 0 001.32.07l1 1a2.74 2.74 0 102.53-1.67zM139.33 13.33a2.73 2.73 0 001.87-.74l6 6h8.4a1 1 0 001 1h6.84a5.09 5.09 0 002.26-.23 8.67 8.67 0 001.42-1.36c2-2 3.95-4 5.92-6 .46-.46.92-.87 1.38-1.32h2.43a1 1 0 001-1h10.2a2.69 2.69 0 100-.34h-10.2a1 1 0 00-1-.86 12.35 12.35 0 00-3 0c-.58.16-1.14.92-1.53 1.32q-3 2.94-5.9 5.9c-.59.58-1.17 1.24-1.76 1.84h-8.06a.94.94 0 00-.94.68h-8.31l-5.91-5.91a2.77 2.77 0 00.63-1.75 2.75 2.75 0 10-2.74 2.74zm35.27-2.81l.13-.12c.16-.16.07-.02-.13.12zM159.35 24.77h5.15v7.21h-5.15zM165.87 24.77V32h.34a3.43 3.43 0 003.43-3.43v-.34a3.43 3.43 0 00-3.43-3.44zM154.54 28.21v.34A3.44 3.44 0 00158 32v-7.23a3.44 3.44 0 00-3.46 3.44z"/></g><path class="cls-14" d="M104.59 67a.62.62 0 000-.89.64.64 0 00-.89 0l-2.21 2.22-.6-.59 2.22-2.22a.62.62 0 000-.89.64.64 0 00-.89 0L100 66.86a2.91 2.91 0 00-3.14-.23l-2.31-2.3a.63.63 0 00-.89.88l2.22 2.22-.59.59-2.24-2.22a.63.63 0 00-.89.89l2.22 2.22-.59.59-2.22-2.22a.63.63 0 10-.88.89l2.21 2.22-.59.59-2.22-2.22a.63.63 0 00-.88.89l2.21 2.22-.59.59-2.22-2.22a.63.63 0 00-.88.89L90 73.35l-.6.59-2.22-2.22a.63.63 0 10-.88.89l2.22 2.22-.6.59-2.26-2.22a.64.64 0 00-.89 0 .62.62 0 000 .89L87 76.31l-.6.59-2.21-2.22a.64.64 0 00-.89 0 .62.62 0 000 .89l2.22 2.22-.59.59-2.23-2.22a.64.64 0 00-.89 0 .62.62 0 000 .89L84 79.27l-.59.59-2.22-2.22a.64.64 0 00-.89 0 .62.62 0 000 .89l2.22 2.22-.59.59-2.22-2.22a.63.63 0 10-.89.89l2.22 2.22a2.91 2.91 0 00-.27 3.82l-2.25 2.24a.63.63 0 00.89.89L81.66 87l.59.59L80 89.77a.63.63 0 10.89.89l2.22-2.22.59.59-2.22 2.22a.63.63 0 00.89.89l2.22-2.22.59.59L83 92.73a.63.63 0 00.89.89l2.21-2.22.59.59-2.22 2.22a.63.63 0 10.89.89l2.22-2.22.59.59L86 95.69a.63.63 0 00.89.89l2.22-2.22.59.59-2.22 2.22a.63.63 0 10.89.89l2.22-2.22.59.59-2.22 2.22a.62.62 0 000 .89.64.64 0 00.89 0L92 97.32l.59.59-2.22 2.22a.62.62 0 000 .89.64.64 0 00.89 0l2.24-2.22.59.59-2.22 2.22a.61.61 0 000 .88.62.62 0 00.89 0l2.24-2.21.59.59-2.22 2.22a.61.61 0 000 .88.62.62 0 00.89 0l2.24-2.24a2.93 2.93 0 003.82-.27l1.92 1.92a.63.63 0 00.89-.89l-1.92-1.92.59-.59 1.92 1.92a.62.62 0 00.89 0 .61.61 0 000-.88l-1.92-1.93.59-.59 1.92 1.92a.62.62 0 00.89 0 .61.61 0 000-.88l-1.92-1.93.59-.59 1.92 1.92a.62.62 0 00.89 0 .61.61 0 000-.88l-1.92-1.93.59-.59 1.92 1.92a.62.62 0 00.89 0 .61.61 0 000-.88l-1.92-1.93.59-.59 1.9 1.94a.63.63 0 00.89-.89l-1.92-1.93.59-.59 1.92 1.93a.63.63 0 00.89-.89l-1.92-1.92.59-.6 1.92 1.89a.63.63 0 10.89-.89l-1.92-1.92.59-.6 1.92 1.93a.63.63 0 00.89-.89L113 88.74l.6-.6 1.92 1.93a.63.63 0 10.89-.89l-1.93-1.92.6-.6 1.92 1.93a.63.63 0 10.89-.89l-2-2a2.91 2.91 0 00-.24-3.14l2.25-2.25a.63.63 0 10-.89-.88l-2.22 2.21-.59-.59 2.22-2.22a.63.63 0 10-.89-.88l-2.22 2.22-.59-.6 2.28-2.23a.63.63 0 00-.89-.88l-2.22 2.22-.59-.6 2.22-2.22a.63.63 0 10-.89-.88l-2.22 2.22-.59-.6 2.18-2.21a.64.64 0 000-.89.62.62 0 00-.89 0l-2.22 2.22-.59-.59 2.22-2.22a.64.64 0 000-.89.62.62 0 00-.89 0l-2.22 2.22-.59-.59 2.18-2.22a.63.63 0 00-.89-.89l-2.22 2.22-.59-.59 2.25-2.17a.63.63 0 00-.89-.89l-2.22 2.22-.59-.59 2.22-2.22a.62.62 0 000-.89.64.64 0 00-.89 0L103 69.8l-.59-.59z"/><g class="cls-12"><circle class="cls-13" cx="34.85" cy="95.73" r="1.12"/><path class="cls-13" d="M33.73 99.19a1.12 1.12 0 111.14 1.09 1.12 1.12 0 01-1.14-1.09z"/><path class="cls-13" d="M45.81 99.25H34.42v-.34h11.25l6.52-6.52h5.29l5.07 5.14h10.99v.35H62.4l-5.06-5.15h-5l-6.53 6.52zM38.27 95.82h-3.51v-.34h3.36l2.66-2.75h7.29l5.45-5.44.24.24-5.54 5.54h-7.3l-2.65 2.75z"/><path class="cls-13" d="M78.69 102H65.67l-2.49-2.41h-6.61l-2.8-2.75.24-.24 2.7 2.65h6.61l2.48 2.4h12.89v.35zM52.61 87.52a1.1 1.1 0 011.09-1.14 1.12 1.12 0 11-1.09 1.14zM59.13 87.52a1.12 1.12 0 111.14 1.09 1.12 1.12 0 01-1.14-1.09zM72.51 85.12a1.12 1.12 0 012.23-.05 1.1 1.1 0 01-1.09 1.14 1.12 1.12 0 01-1.14-1.09zM62.9 91a1.12 1.12 0 112.23 0 1.12 1.12 0 01-2.23 0zM77 89.58a1.12 1.12 0 111.14 1.09A1.12 1.12 0 0177 89.58zM99.28 102.28a1.12 1.12 0 012.23 0 1.1 1.1 0 01-1.09 1.14 1.13 1.13 0 01-1.14-1.14zM99.28 95.76a1.12 1.12 0 012.23-.05 1.1 1.1 0 01-1.09 1.14 1.13 1.13 0 01-1.14-1.09zM77 85.12a1.12 1.12 0 111.14 1.09A1.12 1.12 0 0177 85.12zM91.39 80.31a1.12 1.12 0 111.14 1.09 1.1 1.1 0 01-1.14-1.09zM94.14 67.27a1.1 1.1 0 011.09-1.14 1.12 1.12 0 110 2.23 1.11 1.11 0 01-1.09-1.09zM89.33 68a1.12 1.12 0 111.14 1.09A1.12 1.12 0 0189.33 68z"/><path class="cls-13" d="M52.61 96.78a1.12 1.12 0 012.23 0 1.12 1.12 0 11-2.23 0zM72.51 97.81a1.12 1.12 0 011.1-1.13 1.12 1.12 0 010 2.23 1.12 1.12 0 01-1.1-1.1zM77.66 101.93A1.12 1.12 0 1178.8 103a1.11 1.11 0 01-1.14-1.07zM60.31 87.57l-.24-.25 3.91-3.86h6.06l6.32-6.17h4.66l9.59-9.59.24.24-9.68 9.69H76.5l-6.32 6.18h-6.06l-3.81 3.76zM100.68 102.43l-7.99-7.98H77.33l-3.51-3.44h-9.89v-.34h10.03l3.51 3.43h15.36l8.09 8.09-.24.24zM73.77 85.42l-.25-.25 5.1-5.14h7.55l3.85-3.87v-4.09l5.11-5.12.24.25-5.01 5.01v4.09l-4.05 4.07h-7.55l-4.99 5.05zM87.92 85.18h-9.23v-.34h9.08l4.53-4.53.24.24-4.62 4.63zM100.68 95.91l-3.53-3.52h-9.63l-2.72-2.75H78v-.34h6.94l2.72 2.74h9.64l3.62 3.63-.24.24z"/></g><g class="cls-19"><circle cx="120.58" cy="21.37" r="10.04" transform="rotate(-87.35 120.574 21.373)" style="mix-blend-mode:color-dodge" fill="url(#radial-gradient-11)" opacity=".9"/></g><g class="cls-21"><circle cx="190.94" cy="10.04" r="10.04" transform="rotate(-87.4 190.942 10.04)" style="mix-blend-mode:color-dodge" fill="url(#radial-gradient-12)" opacity=".9"/></g><g class="cls-23"><circle cx="117.83" cy="69.76" r="10.04" transform="rotate(-87.35 117.827 69.764)" style="mix-blend-mode:color-dodge" fill="url(#radial-gradient-13)" opacity=".9"/></g><g class="cls-25"><circle cx="184.07" cy="120.9" r="10.04" transform="rotate(-87.4 184.085 120.899)" style="mix-blend-mode:color-dodge" fill="url(#radial-gradient-14)" opacity=".9"/></g><g class="cls-27"><circle cx="206.04" cy="157.97" r="10.04" transform="rotate(-87.4 206.051 157.967)" style="mix-blend-mode:color-dodge" fill="url(#radial-gradient-15)" opacity=".9"/></g></g></g></g></svg>