<svg xmlns="http://www.w3.org/2000/svg" viewBox="0 0 1007.23 570.93"><defs><style>.cls-1{fill:#fff}.cls-2{fill:#29abe2}</style></defs><g id="图层_2" data-name="图层 2"><g id="Layer_1" data-name="Layer 1"><circle class="cls-1" cx="160.85" cy="284" r="7.5"/><circle class="cls-1" cx="796.85" cy="284" r="7.5"/><circle class="cls-1" cx="800.85" cy="100" r="4.5"/><path class="cls-1" d="M820.57 264s-18-17.72-18.4-21a323.94 323.94 0 00-9.76-47.51c-1.13-4.27-2.56-8.45-3.85-12.6-.62-2.08-1.41-4.09-2.1-6.11s-1.38-4-2.11-5.93-1.49-3.82-2.22-5.68-1.41-3.68-2.18-5.41l-2.18-5.08c-.7-1.64-1.37-3.23-2.1-4.72l-3.85-8.17c-1.22-2.39-.4-14.61-.4-14.61l-3.92-7.08 12.64-7.28 4.1 7.41.91 1.64s.29.5.78 1.45l2.12 4.15c.9 1.79 2.05 3.94 3.26 6.46l4 8.5c1.41 3.13 2.84 6.57 4.41 10.19s3 7.53 4.54 11.53c.71 2 1.44 4.09 2.18 6.17s1.52 4.18 2.17 6.35c1.34 4.3 2.81 8.65 4 13.08a345.34 345.34 0 0110.22 49.33c.82 6.82 1.48 12.51 1.74 16.51s.49 6.29.49 6.29 0 .47.06.94v.93s.06 1.3.16 3.23.23 4.52.3 7.1l.16 10.34h-4.56s-.08-5.1-.15-10.21c-.07-2.55-.23-5.09-.31-7zM819.93 92.45l-1.3-2.36 3.46-2 1.32 2.39-3.48 1.97zM822.22 96.59l-1.31-2.36 3.5-1.96 1.32 2.39-3.51 1.93zM824.51 100.73l-1.3-2.37 3.51-1.91 1.32 2.39-3.53 1.89zM826.99 105.53l-1.23-2.41 3.55-1.86 1.24 2.43-3.56 1.84zM829.14 109.74l-1.23-2.4 3.57-1.82 1.24 2.43-3.58 1.79zM831.26 114l-.58-1.22-.62-1.2 3.59-1.77.62 1.21c.29.62.59 1.24.59 1.24zM833.27 118.26l-1.15-2.45 3.61-1.73 1.15 2.47-3.61 1.71zM835.56 123.15l-1.15-2.45 3.63-1.68 1.17 2.48-3.65 1.65zM837.47 127.47l-1.06-2.48 3.65-1.63 1.07 2.51-3.66 1.6zM839.34 131.82l-1.07-2.48 3.67-1.59 1.08 2.51-3.68 1.56zM841.2 136.17l-1.06-2.49 3.69-1.54 1.07 2.51-3.7 1.52zM843.17 141.2l-.98-2.52 3.71-1.49.99 2.54-3.72 1.47zM844.89 145.61l-.98-2.52 3.73-1.45.99 2.55-3.74 1.42zM846.55 150l-.45-1.27c-.21-.64-.47-1.27-.47-1.27l3.75-1.4s.26.64.48 1.28.45 1.29.45 1.29zM848.13 154.49l-.9-2.55 3.76-1.35.91 2.58-3.77 1.32zM849.93 159.59l-.9-2.55 3.78-1.3.91 2.57-3.79 1.28zM851.37 164.09l-.81-2.57 3.8-1.26.82 2.6-3.81 1.23zM852.8 168.6l-.81-2.57 3.81-1.21.82 2.6-3.82 1.18zM854.2 173.12s-.17-.66-.38-1.3l-.41-1.28 3.83-1.17s.2.65.41 1.3.35 1.33.35 1.33zM855.66 178.32l-.73-2.6 3.84-1.11.74 2.63-3.85 1.08zM856.94 182.88l-.73-2.6 3.86-1.07.73 2.63-3.86 1.04zM858.12 187.46l-.64-2.63 3.87-1.01.65 2.65-3.88.99zM859.25 192.05l-.64-2.62 3.88-.97.65 2.65-3.89.94zM860.53 197.3s-.14-.66-.31-1.31l-.32-1.32 3.89-.91s.17.66.33 1.33.31 1.33.31 1.33zM861.51 201.93l-.56-2.65 3.91-.86.56 2.67-3.91.84zM862.49 206.56l-.56-2.65 3.91-.82.57 2.67-3.92.8zM863.4 211.2s-.11-.67-.23-1.33-.26-1.33-.26-1.33l3.92-.77s.15.66.26 1.34l.24 1.34zM864.35 216.52l-.47-2.66 3.93-.72.48 2.69-3.94.69zM865.18 221.18l-.47-2.67 3.94-.67.48 2.69-3.95.65zM865.87 225.85l-.38-2.67 3.95-.62.39 2.7-3.96.59zM866.55 230.53l-.39-2.67 3.96-.58.39 2.71-3.96.54zM867.27 235.89s-.08-.67-.15-1.34-.18-1.34-.18-1.34l4-.52s.12.67.19 1.35.15 1.36.15 1.36zM867.79 240.59l-.29-2.68 3.97-.47.3 2.71-3.98.44zM868.32 245.29l-.3-2.69 3.98-.42.3 2.72-3.98.39zM868.74 250l-.21-2.69 3.98-.38.22 2.73-3.99.34zM869.17 255.39l-.21-2.69 3.98-.32.22 2.72-3.99.29zM869.52 260.11s0-.68-.08-1.35-.11-1.35-.11-1.35l4-.27s0 .68.11 1.36.08 1.36.08 1.36zM869.74 264.83l-.13-2.7 4-.22.12 2.73-3.99.19zM869.96 269.56l-.13-2.7 4-.18.13 2.73-4 .15zM870.11 274.96l-.04-2.7 4-.12.04 2.73-4 .09zM870.18 279.69l-.04-2.7 4-.07.04 2.72-4 .05zM870.25 284.42l-.04-2.7 4-.03.04 2.73h-4zM854.16 79.75l-4.39-7.92 5.21-3 4.44 8.04-5.26 2.88zM866.97 105.15l-3.3-7.03 5.4-2.62 3.34 7.13-5.44 2.52zM874.25 121.72l-3.57-8.32 5.5-2.4 3.62 8.44-5.55 2.28zM879.45 134.97l-3.29-8.43 5.57-2.22 3.34 8.55-5.62 2.1zM884.6 149.61s-.18-.53-.44-1.34l-1-2.94-1.5-4.27 5.65-2s.76 2.17 1.53 4.33c.38 1.09.76 2.17 1.05 3s.44 1.37.44 1.37zM888.84 163.19l-.38-1.36c-.26-.81-.6-1.89-.94-3l-1.36-4.31 5.71-1.82 1.39 4.38c.35 1.09.69 2.18 1 3l.39 1.38zM893.25 179.42s-.46-1.88-.93-3.77-1-3.74-1-3.74l5.79-1.57s.55 1.89 1 3.79l.94 3.82zM899.5 208.5s-.39-2.23-.79-4.46c-.19-1.12-.39-2.23-.58-3.06s-.29-1.38-.29-1.38l5.88-1.18s.12.56.29 1.4.4 2 .6 3.1l.8 4.52zM904.02 240.51l-1.01-9 5.95-.73 1.03 9.12-5.97.61zM905.23 254.69l-.72-9.03 5.98-.53.72 9.15-5.98.41zM906.03 270.19l-.43-9.05 5.99-.31.43 9.17-5.99.19zM811.48 105.91l1.58-.75a4 4 0 001.67-5.36l-5.25-11.12a3.7 3.7 0 00-5.07-1.81l-1.58.74zM928.9 189.85s5.35-3.78 4.56-7.59-2.15-8.82-3.39-13.86c-.32-1.26-.6-2.53-.94-3.76s-.7-2.44-1-3.61c-.67-2.33-1.29-4.52-1.83-6.39-1.07-3.74-12.3-3-12.3-3s2.1 7.35 4.21 14.71c.56 1.83 1 3.7 1.4 5.44s.82 3.37 1.17 4.76c.68 2.79 1.14 4.64 1.14 4.64l.37 1.51c.23.9.51 2.11.75 3.33l1 4.86s.3 1.44.82 4 1.32 6.12 2 10.49c.37 2.18.76 4.54 1.18 7s.91 5.12 1.22 7.87.72 5.57 1.09 8.45.79 5.79 1 8.73.54 5.87.81 8.76c.13 1.44.26 2.88.39 4.29s.16 2.82.25 4.2c.15 2.76.29 5.43.43 8s.32 4.91.31 7.12c.16 8.84.26 14.74.26 14.74h5s-.1-6-.26-14.89c0-2.24-.19-4.65-.32-7.21s-.28-5.25-.43-8c-.09-1.4-.14-2.82-.25-4.25s-.27-2.88-.4-4.34c-.27-2.92-.54-5.89-.82-8.85s-.64-5.93-1-8.83-.74-5.78-1.1-8.55-.82-5.43-1.23-7.95-.82-4.92-1.19-7.12c-.68-4.42-1.5-8.05-2-10.61s-.9-4.09-.9-4.09z"/><circle class="cls-1" cx="800.85" cy="468" r="4.5"/><path class="cls-1" d="M820.57 304s-18 17.72-18.4 21a324.05 324.05 0 01-9.76 47.52c-1.13 4.27-2.56 8.45-3.85 12.6-.62 2.08-1.41 4.09-2.1 6.11s-1.38 4-2.11 5.93-1.49 3.82-2.22 5.68-1.41 3.68-2.18 5.41l-2.18 5.08c-.7 1.64-1.37 3.22-2.1 4.71l-3.85 8.18c-1.22 2.39-.4 14.6-.4 14.6l-3.92 7.09 12.64 7.28 4.1-7.41.91-1.64s.29-.5.78-1.45l2.12-4.15c.9-1.8 2.05-3.94 3.26-6.46l4-8.5c1.41-3.13 2.84-6.57 4.41-10.19s3-7.53 4.54-11.53q1.07-3 2.18-6.17c.72-2.09 1.52-4.19 2.17-6.35 1.34-4.31 2.81-8.65 4-13.08a345.34 345.34 0 0010.22-49.33c.82-6.82 1.48-12.51 1.74-16.52s.49-6.28.49-6.28 0-.47.06-.94v-.94s.06-1.29.16-3.22.23-4.52.3-7.11l.16-10.34h-4.56s-.08 5.1-.15 10.2c-.07 2.55-.23 5.1-.31 7zM823.41 477.52l-1.32 2.38-3.46-1.99 1.3-2.36 3.48 1.97zM825.73 473.33l-1.32 2.4-3.5-1.96 1.31-2.36 3.51 1.92zM828.04 469.15l-1.32 2.39-3.51-1.91 1.3-2.36 3.53 1.88zM830.55 464.3l-1.24 2.43-3.55-1.86 1.23-2.4 3.56 1.83zM832.72 460.05l-1.24 2.43-3.57-1.82 1.23-2.41 3.58 1.8zM834.86 455.77s-.3.62-.59 1.24l-.62 1.21-3.59-1.77.62-1.2.58-1.23zM836.88 451.45l-1.15 2.47-3.61-1.73 1.15-2.45 3.61 1.71zM839.21 446.5l-1.17 2.47-3.63-1.67 1.15-2.45 3.65 1.65zM841.13 442.13l-1.07 2.51-3.65-1.63 1.06-2.49 3.66 1.61zM843.02 437.74l-1.08 2.51-3.67-1.59 1.07-2.48 3.68 1.56zM844.9 433.35l-1.07 2.51-3.69-1.55 1.06-2.48 3.7 1.52zM846.89 428.26l-.99 2.55-3.71-1.5.98-2.51 3.72 1.46zM848.63 423.81l-.99 2.55-3.73-1.45.98-2.52 3.74 1.42zM850.31 419.34s-.23.64-.45 1.29-.48 1.27-.48 1.27l-3.75-1.4s.26-.62.47-1.26.45-1.28.45-1.28zM851.9 414.83l-.91 2.58-3.76-1.36.9-2.55 3.77 1.33zM853.72 409.68l-.91 2.58-3.78-1.31.9-2.54 3.79 1.27zM855.18 405.13l-.82 2.61-3.8-1.26.81-2.58 3.81 1.23zM856.62 400.58l-.82 2.6-3.81-1.21.81-2.58 3.82 1.19zM858 396s-.17.67-.39 1.31-.41 1.3-.41 1.3l-3.83-1.16s.21-.64.41-1.29.38-1.29.38-1.29zM859.51 390.76l-.74 2.62-3.84-1.1.73-2.61 3.85 1.09zM860.8 386.15l-.73 2.63-3.86-1.06.73-2.6 3.86 1.03zM862 381.53l-.65 2.65-3.87-1.01.64-2.63 3.88.99zM863.14 376.89l-.65 2.65-3.88-.97.64-2.62 3.89.94zM864.43 371.58s-.14.67-.31 1.33-.33 1.33-.33 1.33l-3.89-.92.32-1.31c.17-.65.31-1.31.31-1.31zM865.42 366.91l-.56 2.67-3.91-.87.56-2.64 3.91.84zM866.41 362.23l-.57 2.67-3.91-.81.56-2.65 3.92.79zM867.33 357.55l-.24 1.34c-.11.67-.26 1.34-.26 1.34l-3.92-.77s.15-.66.26-1.33.23-1.33.23-1.33zM868.29 352.17l-.48 2.69-3.93-.72.47-2.66 3.94.69zM869.13 347.47l-.48 2.68-3.94-.67.47-2.66 3.95.65zM869.83 342.74l-.39 2.7-3.95-.62.38-2.68 3.96.6zM870.51 338.01l-.39 2.7-3.96-.57.39-2.68 3.96.55zM871.24 332.6s-.08.68-.15 1.36-.19 1.35-.19 1.35l-4-.52s.11-.67.18-1.34.15-1.34.15-1.34zM871.77 327.85l-.3 2.71-3.97-.47.29-2.68 3.98.44zM872.3 323.1l-.3 2.71-3.98-.42.3-2.68 3.98.39zM872.73 318.34l-.22 2.72-3.98-.37.21-2.69 3.99.34zM873.16 312.9l-.22 2.72-3.98-.32.21-2.69 3.99.29zM873.51 308.13s0 .69-.08 1.37-.11 1.36-.11 1.36l-4-.27s0-.68.11-1.35.08-1.35.08-1.35zM873.73 303.36l-.12 2.73-4-.22.13-2.7 3.99.19zM873.96 298.59l-.13 2.72-4-.17.13-2.7 4 .15zM874.11 293.13l-.04 2.73-4-.12.04-2.7 4 .09zM874.18 288.35l-.04 2.73-4-.07.04-2.7 4 .04zM874.25 283.57l-.04 2.74-4-.03.04-2.7 4-.01zM859.42 491.13l-4.44 8.04-5.21-3 4.39-7.92 5.26 2.88zM872.41 465.37l-3.34 7.12-5.4-2.61 3.3-7.03 5.44 2.52zM879.8 448.56l-3.62 8.44-5.5-2.41 3.57-8.32 5.55 2.29zM885.07 435.12l-3.34 8.56-5.57-2.22 3.29-8.43 5.62 2.09zM890.29 420.27s-.18.55-.44 1.37-.67 1.89-1.05 3l-1.53 4.33-5.65-2 1.5-4.26 1-2.94c.26-.81.44-1.35.44-1.35zM894.6 406.5s-.16.55-.39 1.38-.6 1.92-1 3l-1.39 4.38-5.71-1.82 1.36-4.32.94-3 .38-1.37zM902.63 374.71s-.47 2.25-1 4.5a60.13 60.13 0 01-.7 3.07l-.35 1.4-5.84-1.38s.14-.55.34-1.38.48-1.92.7-3c.47-2.21.93-4.43.93-4.43zM905.41 360.56l-.8 4.52c-.2 1.13-.4 2.26-.6 3.1s-.29 1.4-.29 1.4l-5.88-1.18s.11-.55.29-1.39.39-1.94.58-3.05c.4-2.23.79-4.46.79-4.46zM907.72 346.32s-.28 1.94-.57 3.89c-.14 1-.28 2-.38 2.68s-.21 1.21-.21 1.21l-5.92-1s.09-.47.2-1.19.24-1.68.38-2.64l.56-3.84zM909.99 328.1l-1.03 9.12-5.95-.73 1.01-9 5.97.61zM912.02 298l-.43 9.17-5.99-.32.43-9.04 5.99.19zM912.25 283.57l-.13 9.18-6-.12.13-9.05 6-.01zM811.48 462.09l1.58.75a4 4 0 011.67 5.36l-5.25 11.12a3.7 3.7 0 01-5.07 1.81l-1.58-.74zM928.9 378.15s5.35 3.78 4.56 7.59-2.15 8.82-3.39 13.86c-.32 1.26-.6 2.53-.94 3.76s-.7 2.43-1 3.6c-.67 2.34-1.29 4.53-1.83 6.4-1.07 3.74-12.3 3-12.3 3s2.1-7.36 4.21-14.71c.56-1.83 1-3.7 1.4-5.44s.82-3.37 1.17-4.76c.68-2.79 1.14-4.65 1.14-4.65l.37-1.5c.23-.9.51-2.11.75-3.33l1-4.86s.3-1.44.82-4 1.32-6.12 2-10.49c.37-2.18.76-4.54 1.18-7s.91-5.12 1.22-7.87.72-5.57 1.09-8.45.79-5.79 1-8.73.54-5.87.81-8.76c.13-1.44.26-2.88.39-4.29s.16-2.82.25-4.2c.15-2.76.29-5.43.43-8s.32-4.91.31-7.13c.16-8.84.26-14.73.26-14.73h5s-.1 5.95-.26 14.89c0 2.24-.19 4.65-.32 7.21s-.28 5.25-.43 8c-.09 1.39-.14 2.81-.25 4.25s-.27 2.88-.4 4.34c-.27 2.92-.54 5.88-.82 8.85s-.64 5.92-1 8.83-.74 5.77-1.1 8.54-.82 5.44-1.23 8-.82 4.92-1.19 7.12c-.68 4.42-1.5 8.05-2 10.61s-.9 4.05-.9 4.05z"/><circle class="cls-1" cx="160.27" cy="100" r="4.5"/><path class="cls-1" d="M140.55 264s18-17.72 18.4-21a323.94 323.94 0 019.76-47.51c1.13-4.27 2.56-8.45 3.84-12.6.63-2.08 1.42-4.09 2.1-6.11s1.39-4 2.12-5.93 1.49-3.82 2.22-5.68 1.41-3.68 2.18-5.41l2.18-5.08c.7-1.64 1.37-3.23 2.1-4.72l3.85-8.17c1.22-2.39.4-14.61.4-14.61l3.92-7.08-12.62-7.27-4.1 7.41-.91 1.64s-.3.5-.78 1.45l-2.12 4.15c-.9 1.79-2 3.94-3.26 6.46l-4 8.5c-1.41 3.13-2.84 6.57-4.41 10.19s-3 7.53-4.54 11.53c-.71 2-1.44 4.09-2.18 6.17s-1.52 4.18-2.17 6.35c-1.34 4.3-2.81 8.65-4 13.08a345.34 345.34 0 00-10.22 49.33c-.82 6.82-1.48 12.51-1.74 16.51s-.5 6.29-.5 6.29 0 .47-.05.94 0 .93 0 .93l-.15 3.23c-.08 1.94-.23 4.52-.31 7.1-.07 5.17-.15 10.34-.15 10.34h4.56s.07-5.1.15-10.21c.07-2.55.22-5.09.31-7s.12-3.22.12-3.22zM137.7 90.48l1.33-2.39 3.46 2-1.3 2.36-3.49-1.97zM135.39 94.66l1.32-2.39 3.49 1.96-1.3 2.36-3.51-1.93zM133.08 98.84l1.32-2.39 3.51 1.91-1.31 2.37-3.52-1.89zM130.57 103.69l1.24-2.43 3.54 1.86-1.23 2.41-3.55-1.84zM128.4 107.95l1.24-2.43 3.56 1.82-1.23 2.4-3.57-1.79zM126.26 112.23s.29-.62.59-1.24l.62-1.21 3.58 1.77-.61 1.2-.58 1.22zM124.23 116.55l1.16-2.47 3.61 1.73-1.15 2.45-3.62-1.71zM121.91 121.5l1.16-2.48 3.63 1.68-1.14 2.45-3.65-1.65zM119.98 125.87l1.08-2.51 3.65 1.63-1.06 2.48-3.67-1.6zM118.1 130.26l1.07-2.51 3.68 1.59-1.07 2.48-3.68-1.56zM116.21 134.65l1.08-2.51 3.69 1.54-1.06 2.49-3.71-1.52zM114.22 139.73l1-2.54 3.71 1.49-.99 2.52-3.72-1.47zM112.49 144.19l.99-2.55 3.73 1.45-.99 2.52-3.73-1.42zM110.81 148.66s.23-.64.45-1.29.48-1.28.48-1.28l3.75 1.4s-.26.63-.48 1.27-.45 1.27-.45 1.27zM109.22 153.17l.91-2.58 3.76 1.35-.9 2.55-3.77-1.32zM107.4 158.31l.91-2.57 3.78 1.3-.9 2.55-3.79-1.28zM105.94 162.86l.82-2.6 3.8 1.26-.81 2.57-3.81-1.23zM104.5 167.42l.82-2.6 3.81 1.21-.81 2.57-3.82-1.18zM103.08 172s.17-.66.39-1.31.41-1.3.41-1.3l3.83 1.17-.41 1.28c-.21.64-.38 1.3-.38 1.3zM101.61 177.24l.73-2.63 3.85 1.11-.73 2.6-3.85-1.08zM100.31 181.84l.74-2.63 3.86 1.07-.73 2.6-3.87-1.04zM99.12 186.47l.65-2.65 3.87 1.01-.65 2.63-3.87-.99zM97.98 191.11l.65-2.65 3.88.97-.65 2.62-3.88-.94zM96.69 196.42s.14-.67.31-1.33l.32-1.33 3.9.91-.32 1.33c-.17.65-.31 1.31-.31 1.31zM95.7 201.09l.56-2.67 3.91.86-.56 2.65-3.91-.84zM94.71 205.76l.56-2.67 3.92.82-.56 2.65-3.92-.8zM93.78 210.45l.24-1.34c.11-.68.26-1.34.26-1.34l3.93.77s-.15.66-.26 1.33l-.24 1.33zM92.83 215.83l.48-2.69 3.93.72-.47 2.66-3.94-.69zM91.99 220.53l.48-2.69 3.94.67-.47 2.67-3.95-.65zM91.29 225.26l.39-2.7 3.95.62-.38 2.67-3.96-.59zM90.61 229.99l.39-2.71 3.95.58-.38 2.67-3.96-.54zM89.88 235.4L90 234c.07-.68.18-1.35.18-1.35l4 .52s-.11.67-.18 1.34-.15 1.34-.15 1.34zM89.35 240.15l.3-2.71 3.97.47-.3 2.68-3.97-.44zM88.82 244.9l.3-2.72 3.98.42-.3 2.69-3.98-.39zM88.39 249.66l.22-2.73 3.98.38-.21 2.69-3.99-.34zM87.96 255.1l.22-2.72 3.98.32-.21 2.69-3.99-.29zM87.61 259.86s0-.68.08-1.36.11-1.36.11-1.36l4 .27s-.06.68-.11 1.35-.08 1.35-.08 1.35zM87.39 264.64l.12-2.73 4 .22-.13 2.7-3.99-.19zM87.16 269.41l.13-2.73 3.99.18-.12 2.7-4-.15zM87 274.87l.05-2.73 3.99.12-.04 2.7-4-.09zM86.94 279.64l.03-2.72 4 .07-.04 2.7-3.99-.05zM86.86 284.42l.04-2.73 4 .03-.04 2.7h-4zM101.7 76.87l4.44-8.04 5.2 3-4.38 7.92-5.26-2.88zM94.98 89.64l4.18-8.18 5.3 2.82-4.12 8.06-5.36-2.7zM88.7 102.63l3.35-7.13 5.4 2.62-3.3 7.03-5.45-2.52zM76.05 132.87l3.33-8.55 5.58 2.22-3.29 8.43-5.62-2.1zM66.52 161.5l.39-1.38c.26-.83.6-1.92 1-3l1.38-4.38 5.71 1.81-1.36 4.31c-.35 1.08-.69 2.16-.94 3l-.38 1.36zM62.05 178l.94-3.82c.5-1.9 1.05-3.79 1.05-3.79l5.79 1.57s-.54 1.86-1 3.74l-.92 3.77zM55.71 207.44l.8-4.52c.2-1.13.4-2.26.59-3.1l.3-1.4 5.88 1.18s-.11.55-.29 1.38-.39 1.94-.58 3.06l-.8 4.46zM53.4 221.68l.57-3.89c.14-1 .28-1.95.38-2.68s.21-1.21.21-1.21l5.92 1s-.1.47-.2 1.19-.25 1.68-.38 2.64l-.56 3.84zM51.13 239.9l1.02-9.12 5.96.73-1.01 9-5.97-.61zM49.9 254.28l.73-9.15 5.98.53-.72 9.03-5.99-.41zM49.09 270l.43-9.17 6 .31-.43 9.05-6-.19zM48.86 284.43l.14-9.19 6 .12-.14 9.06-6 .01zM149.63 105.91l-1.57-.75a4 4 0 01-1.68-5.36l5.26-11.12a3.7 3.7 0 015.07-1.81l1.58.74zM32.21 189.85s-5.34-3.78-4.56-7.59c.93-3.78 2.16-8.82 3.4-13.86.31-1.26.6-2.53.94-3.76s.69-2.44 1-3.61c.67-2.33 1.29-4.52 1.83-6.39 1.07-3.74 12.3-3 12.3-3s-2.1 7.35-4.21 14.71c-.56 1.83-.95 3.7-1.4 5.44l-1.17 4.76c-.68 2.79-1.14 4.64-1.14 4.64l-.37 1.51c-.23.9-.52 2.11-.75 3.33l-1 4.86s-.3 1.44-.82 4S35 201 34.3 205.34c-.37 2.18-.77 4.54-1.19 7s-.9 5.12-1.21 7.87-.72 5.57-1.09 8.45-.79 5.79-1 8.73-.54 5.87-.81 8.76c-.13 1.44-.26 2.88-.39 4.29s-.16 2.82-.25 4.2c-.15 2.76-.29 5.43-.43 8s-.32 4.91-.31 7.12c-.16 8.84-.26 14.74-.26 14.74h-5s.1-6 .26-14.89c0-2.24.19-4.65.31-7.21s.29-5.25.44-8c.09-1.4.14-2.82.25-4.25s.27-2.88.4-4.34c.27-2.92.54-5.89.81-8.85s.65-5.93 1-8.83.75-5.78 1.11-8.55.81-5.43 1.23-7.95.82-4.92 1.19-7.12c.68-4.42 1.49-8.05 2-10.61z"/><circle class="cls-1" cx="160.27" cy="468" r="4.5"/><path class="cls-1" d="M140.55 304s18 17.72 18.4 21a324.05 324.05 0 009.76 47.52c1.13 4.27 2.56 8.45 3.84 12.6.63 2.08 1.42 4.09 2.1 6.11s1.39 4 2.12 5.93 1.49 3.82 2.22 5.68 1.41 3.68 2.18 5.41l2.18 5.08c.7 1.64 1.37 3.22 2.1 4.71l3.85 8.18c1.22 2.39.4 14.6.4 14.6l3.92 7.09-12.62 7.26-4.1-7.41-.91-1.64s-.3-.5-.78-1.45l-2.12-4.15c-.9-1.8-2-3.94-3.26-6.46l-4-8.5c-1.41-3.13-2.84-6.57-4.41-10.19s-3-7.53-4.54-11.53l-2.18-6.17c-.72-2.09-1.52-4.19-2.17-6.35-1.34-4.31-2.81-8.65-4-13.08a345.34 345.34 0 01-10.22-49.33c-.82-6.82-1.48-12.51-1.74-16.52s-.5-6.28-.5-6.28 0-.47-.05-.94 0-.94 0-.94l-.15-3.22c-.08-1.94-.23-4.52-.31-7.11-.07-5.17-.15-10.34-.15-10.34h4.56s.07 5.1.15 10.2c.07 2.55.22 5.1.31 7s.12 3.24.12 3.24zM141.19 475.55l1.3 2.36-3.46 1.99-1.33-2.38 3.49-1.97zM138.9 471.41l1.3 2.36-3.49 1.96-1.32-2.4 3.51-1.92zM136.6 467.27l1.31 2.36-3.51 1.91-1.32-2.39 3.52-1.88zM134.12 462.47l1.23 2.4-3.54 1.86-1.24-2.43 3.55-1.83zM131.97 458.25l1.23 2.41-3.56 1.82-1.24-2.43 3.57-1.8zM129.86 454l.58 1.23.61 1.2-3.58 1.77-.62-1.21c-.3-.62-.59-1.24-.59-1.24zM127.85 449.74l1.15 2.45-3.61 1.73-1.16-2.47 3.62-1.71zM125.56 444.85l1.14 2.45-3.63 1.67-1.16-2.47 3.65-1.65zM123.65 440.52l1.06 2.49-3.65 1.63-1.08-2.51 3.67-1.61zM121.78 436.18l1.07 2.48-3.68 1.59-1.07-2.51 3.68-1.56zM119.92 431.83l1.06 2.48-3.69 1.55-1.08-2.51 3.71-1.52zM117.94 426.8l.99 2.51-3.71 1.5-1-2.55 3.72-1.46zM116.22 422.39l.99 2.52-3.73 1.45-.99-2.55 3.73-1.42zM114.56 418s.23.64.45 1.28.48 1.26.48 1.26l-3.75 1.4s-.26-.63-.48-1.27-.45-1.29-.45-1.29zM112.99 413.5l.9 2.55-3.76 1.36-.91-2.58 3.77-1.33zM111.19 408.41l.9 2.54-3.78 1.31-.91-2.58 3.79-1.27zM109.75 403.9l.81 2.58-3.8 1.26-.82-2.61 3.81-1.23zM108.32 399.39l.81 2.58-3.81 1.21-.82-2.6 3.82-1.19zM106.92 394.88s.17.65.38 1.29.41 1.29.41 1.29l-3.83 1.16s-.21-.65-.41-1.3-.39-1.31-.39-1.31zM105.46 389.67l.73 2.61-3.85 1.1-.73-2.62 3.85-1.09zM104.18 385.12l.73 2.6-3.86 1.06-.74-2.63 3.87-1.03zM102.99 380.54l.65 2.63-3.87 1.01-.65-2.65 3.87-.99zM101.86 375.95l.65 2.62-3.88.97-.65-2.65 3.88-.94zM100.59 370.7s.14.66.31 1.31l.32 1.31-3.9.92-.32-1.33c-.17-.66-.31-1.33-.31-1.33zM99.61 366.07l.56 2.64-3.91.87-.56-2.67 3.91-.84zM98.63 361.44l.56 2.65-3.92.81-.56-2.67 3.92-.79zM97.71 356.8l.24 1.33c.11.67.26 1.33.26 1.33l-3.93.77s-.15-.67-.26-1.34l-.24-1.34zM96.77 351.48l.47 2.66-3.93.72-.48-2.69 3.94-.69zM95.94 346.82l.47 2.66-3.94.67-.48-2.68 3.95-.65zM95.25 342.14l.38 2.68-3.95.62-.39-2.7 3.96-.6zM94.57 337.46l.38 2.68-3.95.57-.39-2.7 3.96-.55zM93.85 332.11s.07.67.15 1.34.18 1.34.18 1.34l-4 .52s-.11-.68-.18-1.35l-.15-1.36zM93.32 327.41l.3 2.68-3.97.47-.3-2.71 3.97-.44zM92.8 322.71l.3 2.68-3.98.42-.3-2.71 3.98-.39zM92.38 318l.21 2.69-3.98.37-.22-2.72 3.99-.34zM91.95 312.61l.21 2.69-3.98.32-.22-2.72 3.99-.29zM91.6 307.89s0 .68.08 1.35.11 1.35.11 1.35l-4 .27s-.06-.68-.11-1.36-.08-1.37-.08-1.37zM91.38 303.17l.13 2.7-4 .22-.12-2.73 3.99-.19zM91.16 298.44l.12 2.7-3.99.17-.13-2.72 4-.15zM91 293.04l.04 2.7-3.99.12-.05-2.73 4-.09zM90.93 288.31l.04 2.7-4 .07-.03-2.73 3.99-.04zM90.86 283.58l.04 2.7-4 .03-.04-2.74 4 .01zM100.34 475.66l4.12 8.06-5.3 2.82-4.18-8.18 5.36-2.7zM94.15 462.85l3.3 7.03-5.4 2.61-3.35-7.12 5.45-2.52zM86.86 446.27l3.57 8.32-5.49 2.41-3.63-8.44 5.55-2.29zM81.67 433.03l3.29 8.43-5.58 2.22-3.33-8.56 5.62-2.09zM76.52 418.38s.18.54.44 1.35.66 1.87 1 2.94c.76 2.13 1.51 4.26 1.51 4.26l-5.65 2s-.77-2.16-1.53-4.33c-.38-1.08-.76-2.16-1-3s-.44-1.37-.44-1.37zM67.87 388.58l.92 3.77 1 3.74-5.79 1.57s-.55-1.89-1.05-3.79l-.94-3.82zM64.35 373.46l.94 4.43c.22 1.11.49 2.21.7 3l.33 1.38-5.84 1.38s-.13-.56-.34-1.4-.48-1.95-.7-3.07l-.95-4.5zM61.61 359.5l.8 4.46c.19 1.11.39 2.23.58 3.05s.29 1.39.29 1.39l-5.88 1.18-.3-1.4c-.19-.84-.39-2-.59-3.1l-.8-4.52zM59.34 345.46l.56 3.84c.13 1 .27 1.92.38 2.64s.2 1.19.2 1.19l-5.92 1s-.1-.48-.21-1.21-.24-1.71-.38-2.68l-.57-3.89zM57.1 327.49l1.01 9-5.96.73-1.02-9.12 5.97-.61zM55.89 313.31l.72 9.03-5.98.53-.73-9.15 5.99-.41zM55.09 297.81l.43 9.04-6 .32-.43-9.17 6-.19zM149.63 462.09l-1.57.75a4 4 0 00-1.68 5.36l5.26 11.12a3.7 3.7 0 005.07 1.81l1.58-.74zM32.21 378.15s-5.34 3.78-4.56 7.59c.93 3.78 2.16 8.82 3.4 13.86.31 1.26.6 2.53.94 3.76s.69 2.43 1 3.6c.67 2.34 1.29 4.53 1.83 6.4 1.07 3.74 12.3 3 12.3 3s-2.1-7.36-4.21-14.71c-.56-1.83-.95-3.7-1.4-5.44l-1.17-4.76c-.68-2.79-1.14-4.65-1.14-4.65l-.37-1.5c-.23-.9-.52-2.11-.75-3.33l-1-4.86s-.3-1.44-.82-4S35 367 34.3 362.66c-.37-2.18-.77-4.54-1.19-7s-.9-5.12-1.21-7.87-.72-5.57-1.09-8.45-.79-5.79-1-8.73-.54-5.87-.81-8.76c-.13-1.44-.26-2.88-.39-4.29s-.16-2.82-.25-4.2c-.15-2.76-.29-5.43-.43-8s-.32-4.91-.31-7.13c-.16-8.84-.26-14.73-.26-14.73h-5s.1 5.95.26 14.89c0 2.24.19 4.65.31 7.21s.29 5.25.44 8c.09 1.39.14 2.81.25 4.25s.27 2.88.4 4.34c.27 2.92.54 5.88.81 8.85s.65 5.92 1 8.83.75 5.77 1.11 8.54.81 5.44 1.23 8 .82 4.92 1.19 7.12c.68 4.42 1.49 8.05 2 10.61z"/><circle class="cls-1" cx="608.85" cy="58" r="4"/><path class="cls-1" d="M481.55 57.44h3v2h-3zM486.27 57h2v2h-2zM491.27 57h2v2h-2zM495.55 57.44h3v2h-3zM501.27 57h2v2h-2zM505.55 57.44h3v2h-3zM510.55 57.44h3v2h-3zM515.55 57.44h3v2h-3zM520.55 57.44h3v2h-3zM525.55 57.44h3v2h-3zM530.55 57.44h3v2h-3zM535.27 57h2v2h-2zM540.55 57.44h3v2h-3zM545.55 57.44h3v2h-3zM550.27 57h2v2h-2zM554.55 57.44h3v2h-3zM560.55 57.44h3v2h-3zM565.27 57h2v2h-2zM569.55 57.44h3v2h-3zM574.55 57.44h3v2h-3zM580.27 57h2v2h-2zM584.55 57.44h3v2h-3zM589.55 57.44h3v2h-3zM481.55 40.44h368v1h-368zM592.27 30.44l9-3h31l8 5H481.55v-2h110.72z"/><circle class="cls-1" cx="353.69" cy="58" r="4"/><path class="cls-1" d="M478.55 57.44h3v2h-3zM474.27 57h2v2h-2zM469.27 57h2v2h-2zM464.55 57.44h3v2h-3zM459.27 57h2v2h-2zM454.55 57.44h3v2h-3zM449.55 57.44h3v2h-3zM444.55 57.44h3v2h-3zM439.55 57.44h3v2h-3zM434.55 57.44h3v2h-3zM429.55 57.44h3v2h-3zM425.27 57h2v2h-2zM419.55 57.44h3v2h-3zM414.55 57.44h3v2h-3zM410.27 57h2v2h-2zM405.55 57.44h3v2h-3zM399.55 57.44h3v2h-3zM395.27 57h2v2h-2zM390.55 57.44h3v2h-3zM385.55 57.44h3v2h-3zM380.27 57h2v2h-2zM375.55 57.44h3v2h-3zM370.55 57.44h3v2h-3zM113.55 40.44h368v1h-368zM370.27 30.44l-9-3h-31l-8 5h159.28v-2H370.27z"/><circle class="cls-1" cx="258.85" cy="512" r="4"/><path class="cls-1" d="M131.55 511.44h3v2h-3zM136.27 511h2v2h-2zM141.27 511h2v2h-2zM145.55 511.44h3v2h-3zM151.27 511h2v2h-2zM155.55 511.44h3v2h-3zM160.55 511.44h3v2h-3zM165.55 511.44h3v2h-3zM170.55 511.44h3v2h-3zM175.55 511.44h3v2h-3zM180.55 511.44h3v2h-3zM185.27 511h2v2h-2zM190.55 511.44h3v2h-3zM195.55 511.44h3v2h-3zM200.27 511h2v2h-2zM204.55 511.44h3v2h-3zM210.55 511.44h3v2h-3zM215.27 511h2v2h-2zM219.55 511.44h3v2h-3zM224.55 511.44h3v2h-3zM230.27 511h2v2h-2zM234.55 511.44h3v2h-3zM239.55 511.44h3v2h-3zM131.55 529.44h351v1h-351zM242.27 540.44l9 3h31l8-5H131.55v2h110.72zM115.55 567.44h17v1h-17zM830.55 4.44h1v36h-1z"/><path class="cls-1" d="M835 40.17a3.76 3.76 0 11-3.76-3.76 3.76 3.76 0 013.76 3.76z"/><circle class="cls-1" cx="831.27" cy="3.76" r="3.76"/><path class="cls-1" d="M845.55 4.44h1v36h-1z"/><path class="cls-1" d="M850 40.17a3.76 3.76 0 11-3.76-3.76 3.76 3.76 0 013.76 3.76z"/><circle class="cls-1" cx="846.27" cy="3.76" r="3.76"/><path class="cls-1" d="M116.55 531.44h1v36h-1z"/><path class="cls-1" d="M121 567.17a3.76 3.76 0 11-3.76-3.76 3.76 3.76 0 013.76 3.76z"/><circle class="cls-1" cx="117.27" cy="530.76" r="3.76"/><path class="cls-1" d="M131.55 531.44h1v36h-1z"/><path class="cls-1" d="M136 567.17a3.76 3.76 0 11-3.76-3.76 3.76 3.76 0 013.76 3.76z"/><circle class="cls-1" cx="132.27" cy="530.76" r="3.76"/><path class="cls-1" d="M747.55 120.44h11v18h-11zm8 3h-5v13h5zM734.55 120.44h8v18h-8zm6 3h-3v13h3zM712.55 120.44h19v18h-19zm17 3h-14v13h14zM701.55 120.44h8v18h-8zm5 3h-3v13h3zM688.55 123.44h10v15h-10zm7 3h-4v10h4zM675.55 129.44h10v9h-10zm8 2h-6v5h6zM661.55 126.44h11v12h-11zm8 3h-5v7h5zM646.55 126.44h12v12h-12zm9 3h-6v7h6zM626.55 126.44h18v12h-18zm14 3h-12v7h12zM223.23 195.18l-1.45 1.66 4.35 3.69 1.4-1.59-4.3-3.76zM214.41 196.63l-1.36 1.87 9.05 6.96 1.24-1.72-8.93-7.11zM214.98 205.56l-1.3 1.79 9.37 6.53 1.2-1.65-9.27-6.67zM213.51 212.52l-1.1 1.87 14.51 9.11.95-1.64-14.36-9.34zM207.75 216.69l-1.13 1.9 7.47 4.2 1.05-1.78-7.39-4.32zM199.36 219.78l-.98 2.09 10.21 5.13.89-1.93-10.12-5.29zM178.29 217.64l-1.11 2.38 26.1 11.58.92-1.96-25.91-12zM188.27 230.18l-.81 2.26 13.31 5.15.72-2.04-13.22-5.37zM193.92 239.79l-.75 2.12 8.12 2.71.71-2-8.08-2.83zM194.44 247l-.53 2.15 10.99 3.09.49-1.97-10.95-3.27zM192.83 253.44l-.54 2.15 11.13 2.56.5-1.97-11.09-2.74zM194.05 260.44l-.31 2.15 16.86 3.04.26-1.88-16.81-3.31zM190.28 266.46l-.33 2.19 25.47 3.35.28-1.79-25.42-3.75zM189.3 273.03l-.11 2.21 11.38.95.09-2.04-11.36-1.12zM183.27 279.37l-.11 2.3 19.97.72.1-1.99-19.96-1.03zM188.65 286.29c-.07 0 0 2.21 0 2.21l14.27-.15a18.89 18.89 0 01-.05-2zM191.8 292.8l.12 2.17 19.95-1.16-.11-1.85-19.96.84zM192.16 299.3l.12 2.17 17.03-1.8-.09-1.9-17.06 1.53zM181.59 307.31l.38 2.32 19.75-3.05-.34-2-19.79 2.73zM182.76 314.26l.39 2.32 16.79-3.42-.34-2.05-16.84 3.15zM178.53 322.49l.66 2.35 16.6-4.21-.59-2.08-16.67 3.94zM177.78 330.33l.69 2.39 19.11-5.84-.59-2.08-19.21 5.53zM190.66 333.81c-.06 0 .8 2.16.8 2.16l10.75-3.85s-.8-2-.74-2zM198.5 338.14l.84 2.06 5.28-2.19-.81-1.96-5.31 2.09zM201.02 344.29l.83 2.05 12.92-6.08-.74-1.84-13.01 5.87zM203.93 350.25l1.05 1.94 12.61-6.69-.94-1.74-12.72 6.49zM207.09 356.09l1.06 1.95 9.82-5.83-.97-1.79-9.91 5.67zM210.48 361.79l1.25 1.83 7.15-4.72-1.18-1.71-7.22 4.6zM209.58 370.56l1.3 1.89 9.23-6.73-1.21-1.75-9.32 6.59zM209.07 379.7l1.56 1.82 11.11-8.95-1.41-1.65-11.26 8.78zM213.74 385.16l1.56 1.81 10.68-9.47-1.42-1.64-10.82 9.3zM226.72 382.76l1.56 1.57 4.09-4s-1.54-1.46-1.5-1.5zM231.5 387.36l1.61 1.52 7.79-8.35-1.48-1.39-7.92 8.22zM236.33 391.92l1.61 1.52 5.54-6.53-1.51-1.43-5.64 6.44zM231.72 194.14l-.69.8-4.15-3.92.73-.84 4.11 3.96zM241.2 367.38a11.92 11.92 0 01-1.09-1.69l-2.44-4.48c-.57-1.12-1.23-2.31-1.93-3.57a70.64 70.64 0 01-5-10.35c-.59-1.51-1.22-3-1.84-4.51a66.66 66.66 0 01-3.61-10l-1.92-6.78.92-.26 1.93 6.77a66.84 66.84 0 003.57 9.89c.62 1.49 1.26 3 1.85 4.55a70.86 70.86 0 004.93 10.22c.71 1.27 1.38 2.47 1.94 3.58l2.43 4.48a12.44 12.44 0 001 1.55zM252.66 338l-1.58-3.89c-.18-.45-.38-.92-.59-1.41a46.64 46.64 0 01-2.56-7.36l-2.55-8.87a11.79 11.79 0 01-.5-2.29c0-.27-.08-.51-.12-.73l-.2-1.16.94-.15.19 1.14c.05.21.09.47.13.77a11.29 11.29 0 00.47 2.14l2.56 8.91a45.69 45.69 0 002.52 7.23c.21.5.41 1 .59 1.42l1.58 3.9zM262.85 377.52l-2.11-2.47c-.23-.28-.49-.56-.75-.87-.51-.59-1.09-1.25-1.66-2l-6.39-9.28a38.12 38.12 0 01-3-4.91c-.71-1.37-1.48-2.77-2.26-4.19-1.44-2.61-2.93-5.31-4.21-8.1l-5.24-12.89-3.35-11.7a37.06 37.06 0 01-1.4-6.35c-.12-.77-.23-1.45-.36-2.06l-.54-3.22.94-.16.54 3.21c.13.59.23 1.3.36 2.08a36.06 36.06 0 001.37 6.22l3.34 11.67 5.21 12.82c1.26 2.74 2.74 5.43 4.17 8 .79 1.43 1.56 2.83 2.28 4.22a35.9 35.9 0 003 4.79l6.39 9.28c.53.72 1.09 1.36 1.59 1.93.28.31.54.61.77.89l2.11 2.47zM240.18 314.93l-1.62-9.58a48.87 48.87 0 01-.84-8.13l-.57-10.34.15-3c.09-1.44.15-2.88.21-4.31.11-2.48.2-4.83.47-7.13l1.47-9.87a35 35 0 011.07-5c.19-.71.37-1.36.48-1.92l.65-2.62.93.23-.65 2.6c-.11.56-.29 1.22-.49 2a33.27 33.27 0 00-1.05 4.85l-1.47 9.87c-.26 2.24-.35 4.58-.46 7.05-.06 1.43-.12 2.87-.21 4.31l-.15 2.91.57 10.29a49.14 49.14 0 00.82 8l1.63 9.62zM233.8 339.65l-2.06-5.22-.83-2.84c-.37-1.41-.82-2.94-1.3-4.56a81.36 81.36 0 01-3.2-13.69l-1.66-9.85-.84-14.92a4.4 4.4 0 010-1.26l.47 1.13.35-1.45.13-.18a11.77 11.77 0 00.05 2l.83 14.75 1.66 9.75a80.87 80.87 0 003.17 13.51c.48 1.63.94 3.15 1.3 4.57l1 3.32 1.88 4.62zM284.1 388.34l-10.1-9.56-5.3-6.17a82.62 82.62 0 01-8-10.44l-1.15-1.67-2.83-4.11-.94-1.7.84-.46.91 1.67 2.81 4.05 1.14 1.68a82.63 82.63 0 007.9 10.34l5.29 6.15 10.1 9.53z"/><path class="cls-1" d="M220.27 311.29l-1-6c-.33-2.6-.5-6-.7-9.84-.09-1.9-.2-3.93-.33-6.07a158.09 158.09 0 016.76-47.69c5.79-19.53 16-35.38 21.6-43.1.67-.91 1.31-1.8 1.93-2.66 1.18-1.66 2.3-3.22 3.45-4.57l8.55-9.74.71.63-8.51 9.75c-1.12 1.31-2.23 2.86-3.4 4.5-.62.87-1.26 1.77-1.94 2.67-5.53 7.67-15.7 23.42-21.45 42.82a157.17 157.17 0 00-6.75 47.43c.13 2.12.24 4.15.33 6.05.2 3.87.37 7.21.69 9.75l1 5.93zM724.4 195.18l1.46 1.66 4.36-3.69-1.52-1.73-4.3 3.76zM724.29 203.74l1.25 1.72 9.05-6.96-1.36-1.87-8.94 7.11zM732.66 205.56l1.29 1.79 9.38-6.52-1.41-1.94-9.26 6.67zM738.91 209.41l1.15 1.94 14.5-9.11-1.29-2.18-14.36 9.35zM739.89 216.69l1.12 1.9 7.46-4.21-1.19-2.02-7.39 4.33zM738.15 225.07l.9 1.93 10.2-5.13-.98-2.09-10.12 5.29zM722.71 239.24l.77 1.63 26.1-11.59-.96-2.04-25.91 12zM738.21 238.78l.68 1.91 13.31-5.16-.76-2.13-13.23 5.38zM748.33 241.68l.72 2.04 8.13-2.71-.77-2.17-8.08 2.84zM753.2 247l.53 2.15 11-3.09-.59-2.32L753.2 247zM754.81 253.44l.54 2.15 11.13-2.56-.58-2.32-11.09 2.73zM759.19 259.34l.33 2.24 16.86-3.04-.39-2.5-16.8 3.3zM757.36 266.46l.33 2.19 25.47-3.34-.38-2.6-25.42 3.75zM758.34 273.03l.11 2.21 11.38-.95-.13-2.38-11.36 1.12zM752.96 279.96l.11 2.12 19.97-.72-.12-2.44-19.96 1.04zM759 286.29c.07 0 0 2.21 0 2.21l14.27.16s.12-2.43.06-2.43zM761.54 293.05l-.12 2.25 19.95 1.16.14-2.57-19.97-.84zM761.16 299.81l-.12 2.25 17.03 1.8.16-2.52-17.07-1.53zM749.08 304.97l-.35 2.05 19.76 3.04.39-2.36-19.8-2.73zM748.04 311.11l-.34 2.05 16.78 3.42.4-2.32-16.84-3.15zM741.33 315.92l-.56 1.9 16.61 4.21.62-2.17-16.67-3.94zM736.93 320.85l-.53 1.87 19.12 5.83.62-2.17-19.21-5.53zM746.16 330.13a19.71 19.71 0 01-.73 2l10.75 3.87s.86-2.13.79-2.16zM749.13 338.14l-.84 2.06 5.28 2.18.87-2.14-5.31-2.1zM746.62 344.29l-.84 2.05 12.92 6.08.93-2.25-13.01-5.88zM743.71 350.25l-1.06 1.94 12.61 6.7 1.16-2.15-12.71-6.49zM740.55 356.09l-1.06 1.95 9.82 5.82 1.15-2.1-9.91-5.67zM737.16 361.79l-1.25 1.83 7.15 4.71 1.32-1.94-7.22-4.6zM728.73 363.97l-1.2 1.75 9.22 6.73 1.31-1.89-9.33-6.59zM720.55 365.66l-1.33 1.53 11.12 8.95 1.47-1.71-11.26-8.77zM716.57 370.28l-1.32 1.54 10.68 9.47 1.47-1.71-10.83-9.3zM720.92 382.76s-1.57 1.57-1.56 1.57l4.09 4s1.66-1.59 1.62-1.63zM716.14 387.36l-1.62 1.52 7.8 8.35 1.74-1.64-7.92-8.23zM711.31 391.92l-1.61 1.52 5.54 6.53 1.71-1.6-5.64-6.45zM724.14 186.22l.76.87-4.15 3.93-.73-.84 4.12-3.96zM684.55 242.39v.48l.32.31a3.7 3.7 0 011.15 1.28l2.2 3.79c.5 1 1.19 2.09 1.84 3.24a52.25 52.25 0 014.06 8.35c.55 1.45 1.17 2.87 1.75 4.25a47.2 47.2 0 012.84 7.88l1.64 5.74.92-.27-1.63-5.69a46.9 46.9 0 00-2.87-8c-.58-1.37-1.17-2.78-1.72-4.21A52.16 52.16 0 00691 251c-.64-1.15-1.24-2.23-1.73-3.22l-2.72-3.8c-.91-1.59-2-1.59-2-1.59zM716.78 249.81l-.88.36 1.89 4.62c.2.48.41 1 .62 1.52a60.81 60.81 0 013.07 8.75l3 10.59a15.55 15.55 0 01.58 2.59c0 .34.1.65.16.92l.23 1.33.94-.16-.24-1.35c0-.27-.1-.57-.15-.89a16.79 16.79 0 00-.61-2.72l-3-10.55a61.63 61.63 0 00-3.11-8.87c-.21-.53-.42-1-.61-1.51zM684.05 220.44l-.72.62 2.11 2.45c.22.27.47.57.75.88.49.56 1 1.2 1.59 1.94l6.35 9.22a35.13 35.13 0 012.93 4.72c.72 1.39 1.49 2.78 2.27 4.2 1.42 2.58 2.89 5.24 4.15 8l5.18 12.76 3.34 11.5a36.21 36.21 0 011.38 6.2c.12.78.23 1.48.36 2.09l.53 3.17.94-.16-.54-3.18c-.13-.62-.24-1.31-.35-2.07a36.47 36.47 0 00-1.41-6.33l-3.3-11.54-5.21-12.83c-1.28-2.79-2.76-5.48-4.18-8.07-.78-1.41-1.55-2.8-2.26-4.17a36.65 36.65 0 00-3-4.84l-6.35-9.23c-.58-.77-1.15-1.43-1.66-2l-.74-.86zM721.42 279.42l-.94.16 1.8 10.62a58.52 58.52 0 01.93 9.16l.6 11.17-.15 3.17c-.09 1.47-.16 2.94-.22 4.4-.12 2.86-.24 5.57-.54 8.19l-1.62 10.91a41.42 41.42 0 01-1.16 5.43c-.22.8-.41 1.53-.54 2.16l-.72 2.86.93.23.72-2.88c.13-.64.32-1.34.53-2.12a41 41 0 001.18-5.55l1.62-10.91c.31-2.68.43-5.4.55-8.28.07-1.46.13-2.92.22-4.39l.15-3.22-.6-11.22a60.28 60.28 0 00-.95-9.29z"/><path class="cls-1" d="M702.3 262.16l-.88.37 1.75 4.25.87 3c.34 1.35.78 2.83 1.24 4.39a71.29 71.29 0 012.84 12.16l1.54 9.05.75 13.58a14.34 14.34 0 01.05 2.06v.21l.13.17.7-.66-.35.33h.48a16.47 16.47 0 000-2.21l-.76-13.61-1.54-9.08a71.11 71.11 0 00-2.87-12.3c-.46-1.56-.9-3-1.24-4.36l-.88-3.08zM672.77 198.12l-.65.69 11.21 10.59 5.82 6.75a97.13 97.13 0 019 11.74l4.2 6.14 1 1.8.83-.47-1-1.83-4.22-6.17a97.61 97.61 0 00-9-11.85l-5.96-6.77zM703.88 289.85l-.88.15.86 5c.24 1.89.36 4.32.5 7.15.09 1.89.2 4 .35 6.19a134 134 0 01-5.71 39.95c-4.78 16.19-13.38 29.53-18.09 36-.61.81-1.19 1.63-1.75 2.42a44.3 44.3 0 01-2.73 3.62l-7.2 8.22.72.63 7.2-8.22c1-1.09 1.84-2.36 2.79-3.7.55-.78 1.13-1.59 1.74-2.41 4.75-6.57 13.42-20 18.23-36.34a134.87 134.87 0 005.71-40.24c-.16-2.24-.26-4.31-.35-6.2-.14-2.84-.26-5.3-.51-7.24zM553.55 527.44h7v6h-7zM565.55 527.44h6v6h-6zM576.55 527.44h5v6h-5zM587.55 527.44h5v6h-5zM597.55 527.44h6v6h-6zM608.55 527.44h6v6h-6zM488.55 527.44h6v6h-6zM499.55 527.44h7v6h-7zM510.55 527.44h5v6h-5zM522.55 527.44h4v6h-4zM531.55 527.44h7v6h-7zM542.55 527.44h7v6h-7zM617.55 525v10.44h15v-11h-15v.56zM651.55 524.44v11h11v-11h-11z"/><path class="cls-2" d="M860.78 92.34l-4.12-8.06 5.3-2.82 4.17 8.18-5.35 2.7zM896.76 194.54s-.46-2.22-.93-4.43c-.22-1.11-.49-2.21-.7-3s-.34-1.37-.34-1.37l5.84-1.38.35 1.39c.21.84.48 2 .7 3.08.48 2.25 1 4.49 1 4.49zM901.78 222.54l-.56-3.84c-.14-1-.27-1.92-.38-2.64s-.2-1.19-.2-1.19l5.92-1s.1.48.21 1.21.24 1.7.38 2.68c.29 1.94.57 3.89.57 3.89zM906.25 284.42l-.13-9.06 6-.12.13 9.19-6-.01zM866.13 478.36l-4.17 8.18-5.3-2.82 4.12-8.06 5.35 2.7zM899.07 390.05l-.94 3.82c-.5 1.9-1 3.79-1 3.79l-5.79-1.57s.54-1.87 1-3.74.93-3.77.93-3.77zM911.21 313.72l-.72 9.15-5.98-.53.72-9.03 5.98.41zM81.31 119.44l3.63-8.44 5.49 2.4-3.57 8.32-5.55-2.28zM70.83 147.73s.17-.55.44-1.37.67-1.89 1-3l1.53-4.33 5.65 2s-.75 2.14-1.51 4.27c-.37 1.07-.75 2.14-1 2.94s-.44 1.34-.44 1.34zM58.49 193.28l.95-4.49c.22-1.12.49-2.24.7-3.08s.34-1.39.34-1.39l5.84 1.38s-.13.55-.33 1.37-.48 1.93-.7 3l-.94 4.43zM106.96 488.25l4.38 7.92-5.2 3-4.44-8.04 5.26-2.88zM72.28 404.8l.38 1.37c.25.81.59 1.89.94 3l1.4 4.28-5.72 1.82-1.38-4.38c-.35-1.09-.69-2.19-1-3s-.39-1.38-.39-1.38zM54.86 283.58l.14 9.05-6 .12-.14-9.18 6 .01zM208.55 138.44h-11v-18h11zm-8-2h5v-13h-5zM221.55 138.44h-8v-18h8zm-6-2h3v-13h-3zM243.55 138.44h-19v-18h19zm-17-2h14v-13h-14zM254.55 138.44h-8v-18h8zm-5-2h3v-13h-3zM267.55 138.44h-10v-15h10zm-7-2h4v-10h-4zM280.55 138.44h-10v-9h10zm-8-2h6v-5h-6zM294.55 138.44h-11v-12h11zm-8-2h5v-7h-5zM309.55 138.44h-12v-12h12zm-9-2h6v-7h-6zM329.55 138.44h-18v-12h18zm-14-2h12v-7h-12zM208.55 448.44h-11v-16h11zm-8-3h5v-11h-5zM221.55 448.44h-8v-16h8zm-6-3h3v-11h-3zM243.55 448.44h-19v-16h19zm-17-3h14v-11h-14zM254.55 448.44h-8v-16h8zm-5-3h3v-11h-3zM267.55 445.44h-10v-13h10zm-7-3h4v-8h-4zM280.55 440.44h-10v-8h10zm-8-3h6v-3h-6zM294.55 442.44h-11v-10h11zm-8-2h5v-6h-5zM309.55 442.44h-12v-10h12zm-9-2h6v-6h-6zM329.55 442.44h-18v-10h18zm-14-2h12v-6h-12zM747.55 432.44h11v16h-11zm8 2h-5v11h5zM734.55 432.44h8v16h-8zm6 2h-3v11h3zM712.55 432.44h19v16h-19zm17 2h-14v11h14zM701.55 432.44h8v16h-8zm5 2h-3v11h3zM688.55 432.44h10v13h-10zm7 2h-4v8h4zM675.55 432.44h10v8h-10zm8 2h-6v3h6zM661.55 432.44h11v10h-11zm8 2h-5v6h5zM646.55 432.44h12v10h-12zm9 2h-6v6h6zM626.55 432.44h18v10h-18zm14 2h-12v6h12zM892.55 534.44h-16v-32h16zm-15-1h14v-29h-14zM880.55 498.44h7v3h-7z"/><path class="cls-2" d="M888.55 501.44h-8v-4h8zm-7-1h6v-2h-6zM879.55 529.44h9v2h-9z"/><path class="cls-2" d="M890.55 531.44h-11v-4h11zm-10-1h8v-1h-8zM879.55 523.44h9v3h-9z"/><path class="cls-2" d="M890.55 526.44h-11v-4h11zm-10-2h8v-1h-8zM879.55 518.44h9v2h-9z"/><path class="cls-2" d="M890.55 520.44h-11v-4h11zm-10-1h8v-1h-8zM879.55 512.44h9v3h-9z"/><path class="cls-2" d="M890.55 515.44h-11v-4h11zm-10-2h8v-1h-8zM879.55 507.44h9v2h-9z"/><path class="cls-2" d="M890.55 509.44h-11v-4h11zm-10-1h8v-1h-8zM912.55 534.44h-17v-32h17zm-15-1h13v-29h-13zM899.55 498.44h7v3h-7z"/><path class="cls-2" d="M908.55 501.44h-9v-4h9zm-7-1h5v-2h-5zM898.55 529.44h10v2h-10z"/><path class="cls-2" d="M909.55 531.44h-11v-4h11zm-10-1h9v-1h-9zM931.55 534.44h-17v-32h17zm-15-1h14v-29h-14zM919.55 498.44h6v3h-6z"/><path class="cls-2" d="M927.55 501.44h-8v-4h8zm-7-1h5v-2h-5zM917.55 529.44h10v2h-10z"/><path class="cls-2" d="M928.55 531.44h-11v-4h11zm-9-1h8v-1h-8zM917.55 523.44h10v3h-10z"/><path class="cls-2" d="M928.55 526.44h-11v-4h11zm-9-2h8v-1h-8zM917.55 518.44h10v2h-10z"/><path class="cls-2" d="M928.55 520.44h-11v-4h11zm-9-1h8v-1h-8zM913.46 134.89l15.22-30.45h-32.35l17.13 30.45zM913.46 427.99l15.22 30.45h-32.35l17.13-30.45zM1004.55 244.44h1v7h-1z"/><rect class="cls-2" x="1002.55" y="236.53" height="15.23"/><rect class="cls-2" x="1002.55" y="244.14" height="15.23"/><rect class="cls-2" x="998.55" y="247.95" height="22.84"/><rect class="cls-2" x="998.55" y="244.14" height="11.42"/><rect class="cls-2" x="998.55" y="236.53" height="15.23"/><rect class="cls-2" x="994.55" y="209.88" height="38.07"/><rect class="cls-2" x="994.55" y="228.92" height="19.03"/><path class="cls-2" d="M991.55 240.44h3v11h-3z"/><rect class="cls-2" x="991.55" y="244.14" height="15.23"/><rect class="cls-2" x="991.55" y="244.14" height="15.23"/><rect class="cls-2" x="987.55" y="247.95" height="22.84"/><rect class="cls-2" x="987.55" y="244.14" height="34.26"/><rect class="cls-2" x="987.55" y="244.14" height="15.23"/><rect class="cls-2" x="983.55" y="236.53" height="26.65"/><rect class="cls-2" x="983.55" y="244.14" height="19.03"/><path class="cls-2" d="M979.55 247.44h4v28h-4z"/><rect class="cls-2" x="979.55" y="247.95" height="22.84"/><rect class="cls-2" x="979.55" y="232.72" height="26.65"/><rect class="cls-2" x="976.55" y="232.72" height="22.84"/><rect class="cls-2" x="976.55" y="225.11" height="22.84"/><rect class="cls-2" x="976.55" y="221.3" height="26.65"/><rect class="cls-2" x="972.55" y="236.53" height="15.23"/><path class="cls-2" d="M970.55 244.44h2v7h-2z"/><path class="cls-2" d="M968.55 244.44h4v20h-4z"/><rect class="cls-2" x="968.55" y="244.14" height="19.03"/><rect class="cls-2" x="968.55" y="244.14" height="15.23"/><rect class="cls-2" x="965.55" y="244.14" height="11.42"/><rect class="cls-2" x="965.55" y="236.53" height="15.23"/><rect class="cls-2" x="965.55" y="228.92" height="19.03"/><rect class="cls-2" x="961.55" y="228.92" height="19.03"/><rect class="cls-2" x="959.55" y="243.73" height="7.41"/><path class="cls-2" d="M957.55 244.44h4v15h-4z"/><rect class="cls-2" x="957.55" y="244.14" height="11.42"/><rect class="cls-2" x="1005.55" y="243.73" height="7.41"/><path class="cls-2" d="M975 301.94l7.81-13.5h15.61l7.81 13.5-7.81 13.5h-15.61zm30.07 0l-7.23-12.5h-14.46l-7.22 12.5 7.22 12.5h14.46zM951 316.94l7.81-13.5h15.61l7.81 13.5-7.81 13.5h-15.61zm30.07 0l-7.23-12.5h-14.46l-7.22 12.5 7.22 12.5h14.46zM976 329.94l7.81-13.5h15.61l7.81 13.5-7.81 13.5h-15.61zm30.07 0l-7.23-12.5h-14.46l-7.22 12.5 7.22 12.5h14.46zM951 344.94l7.81-13.5h15.61l7.81 13.5-7.81 13.5h-15.61zm30.07 0l-7.23-12.5h-14.46l-7.22 12.5 7.22 12.5h14.46zM951 372.94l7.81-13.5h15.61l7.81 13.5-7.81 13.5h-15.61zm30.07 0l-7.23-12.5h-14.46l-7.22 12.5 7.22 12.5h14.46zM32.23 145.94l-7.81 13.5H8.81L1 145.94l7.81-13.5h15.61zm-30.07 0l7.22 12.5h14.46l7.23-12.5-7.23-12.5H9.38zM56.23 130.94l-7.81 13.5H32.81L25 130.94l7.81-13.5h15.61zm-30.07 0l7.22 12.5h14.46l7.23-12.5-7.23-12.5H33.38zM31.23 117.94l-7.81 13.5H7.81L0 117.94l7.81-13.5h15.61zm-30.07 0l7.22 12.5h14.46l7.23-12.5-7.23-12.5H8.38zM56.23 102.94l-7.81 13.5H32.81L25 102.94l7.81-13.5h15.61zm-30.07 0l7.22 12.5h14.46l7.23-12.5-7.23-12.5H33.38zM56.23 74.94l-7.81 13.5H32.81L25 74.94l7.81-13.5h15.61zm-30.07 0l7.22 12.5h14.46l7.23-12.5-7.23-12.5H33.38zM84.23 87.94l-7.81 13.5H60.81L53 87.94l7.81-13.5h15.61zm-30.07 0l7.22 12.5h14.46l7.23-12.5-7.23-12.5H61.38zM83.23 59.94l-7.81 13.5H59.81L52 59.94l7.81-13.5h15.61zm-30.07 0l7.22 12.5h14.46l7.23-12.5-7.23-12.5H60.38zM108.23 44.94l-7.81 13.5H84.81L77 44.94l7.81-13.5h15.61zm-30.07 0l7.22 12.5h14.46l7.23-12.5-7.23-12.5H85.38zM108.23 16.94l-7.81 13.5H84.81L77 16.94l7.81-13.5h15.61zm-30.07 0l7.22 12.5h14.46l7.23-12.5-7.23-12.5H85.38zM723.55 528.44h5v3h-5zM731.55 528.44h5v3h-5zM740.55 528.44h4v3h-4zM750.55 528.44h5v3h-5zM758.55 528.44h5v3h-5zM766.55 528.44h5v3h-5zM774.55 528.44h5v3h-5zM785.55 528.44h3v3h-3zM793.55 528.44h5v3h-5zM801.55 528.44h5v3h-5zM809.55 528.44h5v3h-5zM819.55 528.44h4v3h-4zM827.55 528.44h4v3h-4zM836.55 528.44h5v3h-5zM844.55 528.44h5v3h-5zM633.55 524.44h13v12h-13z"/><path class="cls-2" d="M648.55 536.44h-15v-13h15zm-13-1h11v-11h-11zM664.55 524.44h20v13h-20z"/><path class="cls-2" d="M686.55 537.44h-22v-14h22zm-21-1h19v-12h-19zM689.55 526.44h15v9h-15z"/><path class="cls-2" d="M705.55 535.44h-16v-10h16zm-14-1h13v-8h-13zM708.55 527.44h12v7h-12z"/><path class="cls-2" d="M721.55 534.44h-13v-8h13zm-11-1h10v-6h-10z"/></g></g></svg>