<svg xmlns="http://www.w3.org/2000/svg" viewBox="0 0 57.41 10.24"><defs><style>.cls-1,.cls-2{fill:#00b8de;fill-rule:evenodd}.cls-2{fill:#ff7000}</style></defs><g id="图层_2" data-name="图层 2"><g id="Layer_1" data-name="Layer 1"><path class="cls-1" d="M8.85 0h32.89l6.52 6.5H4.91V3.92L8.85 0zm37.2 5.76l-5-5h-.78l5 5zm-1.74 0l-5-5h-.76l5 5zm-1.75 0l-5-5h-.76l5 5zM55.16 10.24H36.33L32.6 6.5h24.81v1.49l-2.25 2.25zM34.36 9.69h-1.13l-2.27-2.26h1.13l2.27 2.26zM32.27 9.69h-1.13l-2.26-2.26h1.13l2.26 2.26zM30.19 9.69h-1.13l-2.27-2.26h1.14l2.26 2.26zM28.09 9.69h-1.12l-2.26-2.26h1.12l2.26 2.26zM26.01 9.69h-1.12l-2.26-2.26h1.11l2.27 2.26zM23.92 9.69H22.8l-2.26-2.26h1.12l2.26 2.26zM21.84 9.69h-1.13l-2.25-2.26h1.11l2.27 2.26zM19.75 9.69h-1.13l-2.26-2.26h1.13l2.26 2.26zM17.67 9.69h-1.13l-2.27-2.26h1.13l2.27 2.26z"/><path class="cls-2" d="M15.57 9.69h-1.12l-2.26-2.26h1.12l2.26 2.26z"/><path class="cls-1" d="M48.06 1.52l1.73 1.72-1.73 1.74V1.52zM51.21 1.52l1.73 1.72-1.73 1.74V1.52z"/><path class="cls-2" d="M54.36 1.52l1.73 1.72-1.73 1.74V1.52z"/><path class="cls-1" d="M4.03 4.56l-.87.87.87.86V4.56zM2.44 4.56l-.87.87.87.86V4.56zM.87 4.56L0 5.43l.87.86V4.56z"/></g></g></svg>