<svg xmlns="http://www.w3.org/2000/svg" viewBox="0 0 57.61 51.71"><defs><style>.cls-1{fill:#00b8de}.cls-2{fill:#ff7000}</style></defs><g id="图层_2" data-name="图层 2"><g id="Layer_1" data-name="Layer 1"><path class="cls-1" d="M57.6 8.88V0H9.95L.18 9.77v4.77h51.77l5.65-5.66zM10.36 14.54h.36v5.09h-.36z"/><path class="cls-2" d="M32.16 48.38h.19v-5.13H5.55L0 48.8v2.91h29.09l3.26-3.26v-.07h-.19l-.12-.13-3.1 3.1H.36v-2.4l5.34-5.34h26.28v4.77h.18l-.12-.13.12.13zM32.16 24.57h.19v-5.13H5.55L0 24.99v2.92h29.09l3.26-3.26v-.08h-.19l-.12-.13-3.1 3.1H.36v-2.4l5.34-5.33h26.28v4.76h.18l-.12-.13.12.13z"/><path class="cls-2" d="M10.36 27.74h.36v3.82h-.36z"/><path class="cls-2" d="M32.16 36.48h.19v-5.13H5.55L0 36.89v2.92h29.09l3.26-3.26v-.07h-.19l-.12-.13-3.1 3.09H.36v-2.4l5.34-5.33h26.28v4.77h.18l-.12-.13.12.13z"/><path class="cls-2" d="M10.36 39.55h.36v3.98h-.36z"/></g></g></svg>