<svg xmlns="http://www.w3.org/2000/svg" viewBox="0 0 38.04 38.04"><defs><style>.cls-3{fill:#feb113}</style></defs><g id="图层_2" data-name="图层 2"><g id="Layer_1" data-name="Layer 1"><path d="M4.67 26.77a.28.28 0 000 .06l.11.18c0 .08.1.17.16.29l.11.18.13.21c.09.14.19.31.31.48l.41.57.49.64.61.69c.22.23.45.48.71.72l.4.37.43.38a18.37 18.37 0 002 1.46 16.28 16.28 0 009.07 2.31h.9c.3 0 .6-.07.91-.11s.6-.1.91-.17l.46-.1h.23l.23-.07a15.86 15.86 0 003.6-1.47 16.35 16.35 0 007.71-9.56l.15-.53c.05-.17.09-.35.13-.53.09-.35.14-.71.21-1.07a16.91 16.91 0 00-.21-6.7l-.15-.53c0-.18-.1-.36-.16-.53l-.18-.53-.2-.51-.1-.26-.12-.25c-.07-.17-.15-.34-.23-.5-.17-.33-.32-.66-.51-1a17 17 0 00-2.66-3.47 16.33 16.33 0 00-15.2-4.33 15.52 15.52 0 00-3.47 1.24A16.29 16.29 0 005 10.72 16.1 16.1 0 003.87 13a18.23 18.23 0 00-.66 2c0 .16-.07.31-.1.46s-.07.29-.1.44 0 .28-.07.41 0 .26-.06.38-.06.48-.09.69 0 .41 0 .58v1.06H1.46v-.29-.59a2.46 2.46 0 010-.26l.05-.62c0-.23.05-.48.09-.74s0-.28.06-.42.05-.29.08-.44.06-.31.1-.47L2 14.7a15.37 15.37 0 01.71-2.19 17.53 17.53 0 0112.34-10.6 17.55 17.55 0 0119.23 8.4c.2.34.37.7.55 1 .09.18.17.36.25.54l.12.27.11.28.22.55.19.57c.07.18.12.38.18.57s.11.38.15.57a17.91 17.91 0 01.53 4.72 18.48 18.48 0 01-.21 2.35c-.07.39-.13.78-.23 1.16 0 .19-.08.38-.13.57l-.16.57a17.69 17.69 0 01-4.78 7.72A17.56 17.56 0 0123.66 36l-.25.07-.25.06-.49.11-1 .18c-.33 0-.65.09-1 .12h-.96A17.58 17.58 0 0110 34.08a18.09 18.09 0 01-2.2-1.58l-.47-.4-.43-.4c-.28-.26-.53-.53-.77-.78l-.65-.75-.53-.68-.44-.61-.33-.52-.18-.23-.11-.19-.18-.31a2 2 0 00-.11-.19v-.07z" fill="#065977"/><path d="M.62 19V19.92a2.28 2.28 0 010 .27v.65c0 .24.06.5.1.78s0 .29.07.44.05.3.08.46.07.32.1.49l.12.52a19.57 19.57 0 00.75 2.29 17.66 17.66 0 001.26 2.55 18.47 18.47 0 007.75 7.16 17.49 17.49 0 003.92 1.39A18.4 18.4 0 0032 32.06a18.83 18.83 0 003-3.92c.22-.35.4-.73.59-1.1.09-.18.17-.38.26-.56l.12-.29.12-.29.23-.58.2-.59c.07-.2.12-.4.18-.6s.12-.4.16-.6a18.32 18.32 0 00.55-4.94 20.07 20.07 0 00-.21-2.46c-.08-.41-.14-.82-.24-1.22-.05-.2-.09-.4-.15-.6l-.16-.59a18.46 18.46 0 00-5-8.09A18.66 18.66 0 0028 2.93a18 18 0 00-4.07-1.66l-.26-.07-.26-.06-.57-.14c-.34-.08-.69-.13-1-.19s-.69-.1-1-.13h-1.01A18.37 18.37 0 009.54 3.25a19.9 19.9 0 00-2.31 1.64l-.49.43c-.16.13-.3.28-.45.42s-.55.55-.8.82-.47.53-.68.77-.39.49-.56.72l-.46.64c-.13.2-.25.38-.35.55l-.15.23-.12.21C3.1 9.81 3 9.91 3 10s-.08.16-.11.2a.28.28 0 000 .07l-.6-.27v-.07l.12-.2.19-.34.13-.21.15-.24.37-.57.47-.66.58-.74.7-.84c.26-.27.53-.56.83-.84s.3-.3.47-.44l.5-.43a20.45 20.45 0 012.42-1.71A18.84 18.84 0 0115.79.28a19.4 19.4 0 014-.27h1.05l1.06.2c.36.07.71.12 1.07.2l.54.12.26.06.23.08a18.71 18.71 0 014.21 1.71 19.31 19.31 0 013.82 2.8 19.07 19.07 0 015.17 8.36l.18.61c0 .21.09.42.14.62.11.42.17.84.25 1.26a19.15 19.15 0 01-.34 7.65c0 .21-.12.42-.17.63s-.12.41-.19.61l-.21.61-.24.6-.11.3-.14.3c-.09.19-.17.39-.27.58-.19.39-.38.77-.6 1.14a19 19 0 01-11.62 9 19.05 19.05 0 01-13.26-1.29A20.24 20.24 0 017.26 34a19.24 19.24 0 01-4.61-5.3 17.19 17.19 0 01-1.29-2.63 19.18 19.18 0 01-.78-2.37l-.12-.54c0-.17-.08-.34-.11-.5s-.06-.33-.08-.48-.06-.31-.08-.45-.07-.56-.1-.81 0-.47 0-.67A2.46 2.46 0 000 20v-1z" fill="#08ade5"/><path class="cls-3" d="M17.94 4.4h-.61a13.53 13.53 0 00-1.59.28 14.36 14.36 0 00-4.49 1.85 15.16 15.16 0 00-2.08 1.63 14.59 14.59 0 00-1.56 1.66l-.3.37-.25.35-.22.31-.17.27c-.11.17-.19.29-.24.39l-.08.13-1-.57.09-.15.25-.41.19-.29.24-.33c.08-.12.17-.25.27-.38l.32-.41a15.86 15.86 0 011.7-1.78 16.26 16.26 0 012.24-1.7 15.76 15.76 0 014.84-2 16.44 16.44 0 011.71-.29l.49-.05h.17zM31 10.57l-.09-.13-.27-.36-.2-.25-.12-.15-.13-.15-.28-.32c-.1-.12-.21-.23-.33-.35a13.84 13.84 0 00-1.7-1.52A14.64 14.64 0 0025.69 6a14.45 14.45 0 00-2.42-1 13.54 13.54 0 00-2.22-.48l-.48-.07H18.83V3.32H20.7l.51.06a16.23 16.23 0 012.4.53A15.39 15.39 0 0126.2 5a15.64 15.64 0 014.21 3.12l.35.38.31.35a1.07 1.07 0 00.14.16l.12.16.21.27c.13.16.23.3.29.39l.1.14zM32.44 25s.09-.2.23-.56q.06-.13.12-.3t.12-.36c0-.13.09-.26.14-.41s.08-.3.13-.46a13.79 13.79 0 00.42-2.24 15 15 0 000-2.61 13.94 13.94 0 00-.4-2.57 16 16 0 00-.73-2.16c-.27-.61-.52-1.1-.71-1.44l-.22-.39-.09-.14 1-.59a1.1 1.1 0 01.09.14l.25.42c.21.37.48.9.77 1.56a17.5 17.5 0 01.77 2.32 15.37 15.37 0 01.44 2.78 16.14 16.14 0 01-.51 5.22c-.05.17-.1.33-.14.49s-.1.3-.15.44-.09.27-.13.39-.09.22-.13.32-.13.35-.18.45l-.07.16zM20.84 33.57H21l.44-.07a12.07 12.07 0 001.56-.37 14.6 14.6 0 004.4-2.08 15.05 15.05 0 002-1.68 14.29 14.29 0 001.47-1.73l.28-.39.24-.36.2-.32.16-.28c.1-.17.17-.3.22-.4l.07-.14 1 .52-.08.15a4.34 4.34 0 01-.24.43l-.17.3c-.06.11-.14.22-.22.35l-.25.39q-.15.2-.3.42a17.63 17.63 0 01-1.59 1.86A16.58 16.58 0 0128.06 32a15.75 15.75 0 01-4.74 2.24 15 15 0 01-1.69.38l-.48.07h-.17zM7.48 28.06l.09.12a1 1 0 01.12.15l.17.2c.13.14.28.33.47.52l.3.31.37.34a15 15 0 001.78 1.43A14.61 14.61 0 0013 32.4a15.28 15.28 0 002.46.85 13.82 13.82 0 002.25.37H20v1.16h-2.37a15 15 0 01-2.42-.4 15.45 15.45 0 01-2.65-.92 15.2 15.2 0 01-2.45-1.37 14.67 14.67 0 01-1.91-1.57 6.37 6.37 0 01-.37-.36l-.32-.33c-.21-.21-.37-.41-.51-.57l-.18-.21-.13-.16-.1-.14z"/></g></g></svg>