<svg xmlns="http://www.w3.org/2000/svg" viewBox="0 0 172.9 174.09"><defs><style>.cls-1,.cls-3{fill:#f49022}.cls-2{fill:#0cbdcd}.cls-3{opacity:.5}</style></defs><g id="图层_2" data-name="图层 2"><g id="央铋_1" data-name="央铋 1"><path class="cls-1" d="M67.11 87a19.84 19.84 0 005.52 13.74l-5.33 5.34.67.67 5.33-5.33a19.92 19.92 0 0028.16-28.12l5.13-5.13-.67-.67-5.13 5.13A19.92 19.92 0 0067.11 87zM87 68.06a19 19 0 11-19 19 19 19 0 0119-19z"/><path class="cls-2" d="M88.31 73.53l.47-4.41h-.33l-.31 4.42zM86.89 73.47V69h-.33l.16 4.43zM86.42 73.49l-.16-4.43h-.32l.31 4.42zM87.52 69.05h-.33v4.43h.18zM88.15 69.08h-.33l-.15 4.43h.17zM74.09 83l-4.22-1.37-.09.31L74 83.16s.07-.11.09-.16z"/><path class="cls-1" d="M74.59 81.67l-4-1.81c-.05.1-.09.2-.13.3l4.11 1.66a1 1 0 01.02-.15z"/><path class="cls-2" d="M74 83.45l-4.3-1.22-.09.31 4.3 1.08c.02-.06.03-.12.09-.17z"/><path class="cls-1" d="M74.41 82.1l-4.11-1.66-.12.31 4.16 1.52a1.22 1.22 0 01.07-.17z"/><path class="cls-2" d="M73.74 84.37l-4.34-.92-.06.32 4.37.77zM73.84 83.91l-4.3-1.07c0 .1-.05.21-.07.31l4.33.93c.01-.08.03-.08.04-.17zM73.59 85.3l-4.39-.61a3.11 3.11 0 000 .32l4.4.46zM73.65 84.83l-4.36-.77c0 .11 0 .22-.05.33l4.39.62a1.1 1.1 0 01.02-.18zM76 79.2l-3.59-2.61-.18.27 3.67 2.48zM76.26 78.82l-3.49-2.73c-.07.09-.14.17-.2.26L76.15 79zM76.86 78.09l-3.29-3-.22.25 3.4 2.85a.69.69 0 01.11-.1zM73.53 85.77l-4.41-.46v.33l4.42.31c-.02-.06-.01-.12-.01-.18z"/><path class="cls-1" d="M75 80.81l-3.91-2.08-.15.29 4 2c0-.11.06-.16.06-.21z"/><path class="cls-2" d="M75.46 80l-3.76-2.36-.17.28 3.84 2.21s.05-.13.09-.13zM75.71 79.59L72 77.11l-.18.28 3.76 2.34zM76.55 78.44l-3.39-2.84-.21.25 3.49 2.73a1.71 1.71 0 00.11-.14zM99.75 82.29l4.17-1.51-.12-.31-4.11 1.66zM99.91 82.74l4.22-1.37c0-.1-.07-.21-.11-.31l-4.16 1.52a1 1 0 00.05.16zM99.58 81.85l4.11-1.66-.13-.3-4 1.8zM100.05 83.19l4.27-1.19c0-.1-.06-.21-.1-.31L100 83a.94.94 0 01.05.19zM100.18 83.65l4.31-1.07-.09-.32-4.26 1.22c.01.06.03.11.04.17zM99.39 81.42l4-1.8-.14-.3-4 1.94zM98.73 80.16l3.84-2.22-.17-.28L98.64 80zM98.22 79.35l3.67-2.47-.19-.27-3.58 2.6zM100.29 84.11l4.34-.92c0-.11 0-.21-.08-.32l-4.3 1.07a1.36 1.36 0 01.04.17zM99.18 81l4-1.94-.15-.3-3.93 2.08a1.09 1.09 0 01.08.16zM99 80.57l3.91-2.08-.16-.29-3.84 2.22zM97.94 79l3.59-2.6-.2-.27-3.49 2.73zM96.71 77.53l3.19-3.08-.24-.23-3.07 3.19zM96.53 96.73l3.08 3.19.23-.23-3.18-3.08zM77.37 96.55l-3.18 3.08a2.5 2.5 0 00.23.23l3.07-3.18zM100.57 86l4.42-.31v-.33l-4.41.47c-.02.04-.01.1-.01.17zM100.47 85l4.38-.61v-.33l-4.36.77zM100.6 86.46l4.43-.15v-.33l-4.42.31a1 1 0 01-.01.17zM100.53 85.52l4.4-.47v-.32l-4.38.61a1.1 1.1 0 00-.02.18zM100.39 84.58l4.36-.77-.06-.32-4.33.92zM95.29 76.27L98 72.78l-.27-.2-2.6 3.59zM92 74.41l1.67-4.11-.31-.12-1.52 4.17zM91.1 74.09l1.37-4.21-.32-.1L90.93 74zM91.55 74.24l1.52-4.16-.32-.08-1.36 4.22zM92.87 74.79l1.94-4-.3-.13-1.8 4zM92.43 74.59l1.81-4-.31-.13-1.66 4.11zM90.18 73.84l1.08-4.3-.32-.07L90 73.8zM90.64 74l1.23-4.26-.32-.09-1.07 4.3zM89.25 73.65l.75-4.36-.32-.05-.62 4.39zM89.72 73.74l.92-4.34-.32-.06-.77 4.37zM93.29 75l2.08-3.91-.29-.15-2 4zM96 76.88l3-3.29-.24-.22-2.85 3.39zM96.37 77.2l3.08-3.2-.24-.23-3 3.3zM97.65 78.59l3.49-2.72a2.56 2.56 0 00-.2-.26l-3.39 2.85zM97 77.87l3.29-3-.23-.24-3.18 3.08zM95.66 76.57l2.85-3.4-.26-.2-2.73 3.49zM97.35 78.23l3.39-2.85-.21-.25-3.29 3zM94.52 75.72L97 72.05l-.27-.18-2.35 3.76zM93.71 75.23l2.21-3.84-.28-.16-2.08 3.91zM94.12 75.46l2.34-3.75-.28-.17L94 75.38zM94.91 76l2.6-3.58-.27-.19-2.48 3.67zM88.78 73.59l.62-4.39h-.32l-.47 4.4zM98.48 79.75l3.76-2.35-.18-.27-3.67 2.48zM86.85 100.61h-.18l-.15 4.39h.33zM93.08 99.19l1.94 4 .29-.15-2.08-3.91zM92.22 99.59l1.65 4.11.31-.13-1.8-4zM93.91 98.74l2.21 3.84.29-.16-2.35-3.76zM92.65 99.4l1.8 4 .3-.14-2-4zM95.83 97.37l2.85 3.4.25-.22-3-3.29zM95.47 97.67l2.72 3.49.26-.2-2.85-3.39zM91.78 99.76l1.51 4.17.31-.12-1.67-4.11zM95.09 98l2.61 3.59.26-.2-2.73-3.49zM94.71 98.24l2.47 3.67.27-.19-2.6-3.58zM94.31 98.5l2.35 3.75.27-.17-2.47-3.68zM93.5 99l2.08 3.91.28-.16-2.21-3.84zM88.09 100.57l.31 4.43h.33l-.47-4.41zM89 100.47l.62 4.39h.32l-.77-4.37zM88.56 100.53l.46 4.41h.33l-.62-4.38zM91.33 99.92l1.37 4.21.3-.13-1.52-4.17zM87.32 100.61h-.17v4.44h.32zM88.1 105l-.31-4.42h-.17l.15 4.43zM90.88 100.06l1.22 4.26.31-.09L91 100zM90.42 100.19l1.07 4.3.32-.09-1.22-4.26zM90 100.3l.92 4.33.32-.07-1.07-4.3zM89.5 100.39l.77 4.36h.32l-.92-4.34zM96.19 97.06l3 3.29.24-.22-3.08-3.19zM73.5 86.24l-4.42-.3v.32l4.43.16a1.09 1.09 0 01-.01-.18zM98.34 94.55L102 97l.17-.28-3.75-2.34zM98.07 94.94l3.59 2.6.19-.27-3.68-2.47zM97.79 95.32l3.49 2.73.2-.26-3.58-2.61zM96.87 96.4l3.18 3.07.23-.24-3.3-3a.69.69 0 00-.11.17zM97.19 96.05l3.29 3 .21-.24-3.39-2.89a.69.69 0 00-.11.13zM99.48 92.47l4 1.81c0-.11.09-.2.13-.31l-4.11-1.66c.03.06 0 .11-.02.16zM97.5 95.69l3.39 2.85c.07-.09.14-.17.2-.26l-3.49-2.73zM99.28 92.9l4 1.95.13-.3-4.05-1.8a1 1 0 01-.08.15zM99.07 93.33l3.93 2.08.15-.3-4-1.94zM98.84 93.74l3.84 2.26.16-.29-3.91-2.08zM98.6 94.15l3.76 2.35.17-.28L98.69 94zM74.7 92.68l-4 1.81a2.55 2.55 0 00.13.29l4-1.94zM75.12 93.53l-3.91 2.08a2.61 2.61 0 00.17.28l3.83-2.21zM74.91 93.11l-4 1.94a2.59 2.59 0 00.14.29L75 93.26a1.09 1.09 0 01-.09-.15zM74.51 92.25l-4.11 1.66c0 .1.09.2.13.3l4-1.8s0-.1-.02-.16zM74.34 91.81l-4.17 1.52.12.3L74.4 92zM76.74 95.86l-3.4 2.84a2.62 2.62 0 00.22.25l3.29-3zM75.61 94.34l-3.76 2.35.15.31 3.67-2.47zM74.18 91.37L70 92.74c0 .1.07.2.1.31l4.17-1.52zM85.89 105h.33l.15-4.43h-.17zM76.43 95.49l-3.49 2.73c.07.09.14.17.2.26l3.4-2.85zM73.49 87.66l-4.43.16v.32l4.42-.31a.91.91 0 01.01-.17zM74 90.92l-4.26 1.22.09.31 4.21-1.37s.01-.08-.04-.16zM73.48 86.72l-4.43-.16v.33h4.43zM73.47 87.19H69v.33l4.43-.16zM73.56 88.6l-4.4.47v.32l4.39-.61zM73.8 90l-4.34.92c0 .11.05.22.08.32l4.3-1.07c-.01-.06-.03-.11-.04-.17zM73.91 90.46l-4.3 1.07c0 .11.06.21.08.32L74 90.63a.285.285 0 01-.09-.17zM73.7 89.54l-4.36.77.06.32 4.34-.92c-.02-.06-.02-.12-.04-.17zM75.87 94.73l-3.67 2.48.19.27 3.61-2.6zM83 100l-1.37 4.22.32.09 1.17-4.31zM83.41 100.12l-1.22 4.26.31.09 1.07-4.31zM81.63 99.48l-1.81 4 .3.13 1.66-4.11zM82.06 99.66l-1.66 4.11.31.12 1.51-4.16zM82.51 99.83L81 104l.31.1 1.37-4.21zM83.87 100.24l-1.08 4.3.32.07.92-4.34zM84.33 100.34l-.93 4.34.33.06.76-4.37zM85.26 100.49l-.62 4.39h.33l.46-4.4zM85.73 100.55l-.47 4.45h.33l.31-4.42zM84.79 100.42l-.79 4.37h.32l.62-4.38zM78.41 97.51l-2.84 3.4.25.2 2.73-3.49zM78.79 97.8l-2.73 3.5.26.2 2.6-3.59zM79.17 98.09l-2.61 3.58.27.19 2.48-3.68zM81.2 99.29l-2 4 .3.14 1.8-4zM78.06 97.2l-3 3.3.25.21 2.85-3.39zM77.71 96.88l-3.08 3.19.24.23 3-3.3zM80.77 99.08L78.69 103l.3.15 1.94-4zM80.36 98.85l-2.21 3.84.28.16 2.08-3.92zM79.56 98.35L77.08 102l.27.17 2.35-3.75a.71.71 0 01-.14-.07zM80 98.61l-2.34 3.76.27.17 2.17-3.84zM75.18 76.19l.23.22 1.64 1.47.12-.12-1.57-1.55a15.69 15.69 0 019.94-4.86v-.21l.25 2.39H86l-.31-4.42h-.33l.2 1.92A16 16 0 0075.37 76L74 74.66l-.22.24 1.42 1.28z"/><path class="cls-1" d="M102.8 86.69l-2.19.07v.18h2.2V87a15.69 15.69 0 01-.81 5.1l.16.06-2.26-.73a1 1 0 010 .16l4.1 1.52c0-.11.07-.21.11-.31l-1.82-.59a16.14 16.14 0 00.84-5.17v-.1H105v-.33l-2.11.07z"/><path class="cls-2" d="M79.85 76.74L80 77l.14-.09-.14-.28zM80.4 76.37l.17.27.14-.09-.16-.27zM79.32 77.13l.2.24.13-.1-.19-.27zM78.45 77.87l-.13.12.23.22.12-.11zM81 76l.16.27.14-.08-.18-.19zM78.81 77.54l.21.24.12-.11-.14-.24zM83.38 75l.1.3h.16l-.08-.3zM81.55 75.73l.14.28.15-.07-.13-.28zM84.66 74.69l.07.31h.16v-.31zM85.31 74.59v.31h.16v-.32zM84 74.83l.08.31h.16l-.07-.31zM82.15 75.46l.13.29a.67.67 0 01.15-.06l-.12-.3zM82.76 75.22l.11.29.16-.05-.1-.3zM78 78.33l-.12.13.24.21.11-.12zM74.47 87.29a1.09 1.09 0 000 .18h.31v-.16zM75.16 82.93l.3.1s0-.1.05-.15l-.3-.12a.84.84 0 01-.05.17zM75 83.56l.31.08a.83.83 0 010-.15l-.3-.1zM74.66 84.84h.31v-.16l-.31-.06zM86 74.51v.32h.16v-.32zM74.47 86.81h.32v-.16h-.32zM74.56 85.49h.32v-.16l-.31-.05zM74.5 86.15h.32a1 1 0 010-.17h-.32c.01.02 0 .11 0 .17zM74.79 84.2l.31.06a.83.83 0 000-.15l-.27-.11a1.16 1.16 0 01-.04.2zM75.39 82.32l.29.11c0-.05 0-.1.07-.15l-.29-.13a1.22 1.22 0 00-.07.17zM76.27 80.55l.28.16s0-.09.08-.14l-.26-.17zM77 79.46l.26.19.1-.13-.25-.2a.76.76 0 01-.11.14zM76.63 80l.26.17L77 80l-.26-.19zM75.65 81.71l.29.13a1 1 0 00.07-.15l-.28-.14s-.05.11-.08.16zM76 81.12l.28.15a.64.64 0 01.08-.14L76 81a1.09 1.09 0 010 .12zM77.43 79l.24.2.11-.12-.24-.22a1.34 1.34 0 00-.11.14zM98.07 81.69a1 1 0 01.07.15l.29-.13-.07-.16zM95.63 77.87l-.21.23.12.11.22-.22zM97.78 81.13l.08.14.28-.15-.09-.12zM97.45 80.57l.09.14.27-.16-.09-.15zM97.07 79.46l-.07-.14-.24.2.1.13zM96.1 78.33l-.22.22.11.12.23-.21zM96.54 78.81l-.23.22.1.12.25-.2zM97.1 80l.09.13.27-.17-.11-.15zM99.19 85.37a1 1 0 000 .16h.31a1 1 0 000-.17zM99.08 84.73v.16h.32v-.17zM99.26 86v.17h.32v-.18zM98.78 83.49v.15l.31-.08v-.17zM99 84.1v.16l.31-.06a1.16 1.16 0 000-.18zM98.58 82.88v.15l.3-.1-.06-.17zM98.34 82.28l.06.15.3-.11c0-.06 0-.12-.07-.17zM91.78 75.39l-.12.3a.94.94 0 01.15.06l.13-.29zM89.2 75h.16l.06-.31h-.17zM94.94 77.67l.12.11.22-.24-.14-.11zM90.53 75l-.08.31h.15l.1-.3zM87.94 74.5v.32h.16v-.32zM88.56 74.88h.16v-.31h-.17zM87.46 74.47h-.18v.32h.17zM91.16 75.16l-.1.3.15.05.12-.29zM89.89 74.79l-.06.31h.15l.09-.31zM94.24 76.74l-.15-.11-.17.27.13.09zM94.77 77.13l-.14-.13-.19.25.13.1zM93.69 76.37l-.15-.09-.16.27.14.09zM92.54 75.73l-.16-.07-.13.28.15.07zM86.8 74.47h-.18v.32h.16zM93.12 76H93l-.15.28.14.08zM78 95.76l.22-.22-.11-.12-.23.21zM94.09 97.46l.15-.11-.19-.25-.13.09zM88.6 99.52h.17v-.31h-.16zM94.63 97.07l.14-.11-.2-.24-.13.1zM95.14 96.66l.13-.12-.21-.23-.12.1zM96.1 95.76l.12-.13-.22-.21-.11.12zM93 98.14l.16-.09-.16-.27-.14.07zM95.63 96.22l.13-.12-.22-.22-.12.11zM89.25 99.42h.17l-.06-.31h-.16zM92.38 98.43l.16-.07-.14-.29-.15.07zM90.53 99.13h.17l-.09-.3h-.16zM96.54 95.28l.12-.14-.25-.2-.1.12zM89.89 99.29h.18L90 99h-.16zM91.16 98.93l.17-.06-.12-.3-.15.06zM91.77 98.7l.17-.07-.13-.29-.15.06zM93.54 97.81l.15-.09-.17-.27-.14.09zM99.43 89.25h-.32v.16l.31.07a1.16 1.16 0 01.01-.23zM99.29 89.89l-.29-.06V90l.3.08a1.16 1.16 0 00-.01-.19zM99.52 88.6h-.31a.78.78 0 000 .16h.31a1.1 1.1 0 000-.16zM99.13 90.53l-.31-.08v.16l.3.09a1.54 1.54 0 01.01-.17zM99.59 87.94h-.32v.16h.31c0-.04 0-.1.01-.16zM99.61 86.63h-.31v.17h.32c0-.05-.01-.11-.01-.17zM99.62 87.29h-.32v.16h.31a1 1 0 01.01-.16zM97.45 93.52l.27.17.09-.15-.27-.16zM97 94.77l.11-.14-.26-.19-.09.13zM98.14 93l-.29-.15-.07.14.27.16zM97.35 94.24l.11-.15-.27-.17-.09.13zM98.43 92.38l-.29-.13a1 1 0 01-.07.15l.29.14zM98.93 91.16l-.3-.1-.06.16.3.11zM98.7 91.78l-.3-.12-.06.15.29.13a1.11 1.11 0 01.07-.16zM80 97.46l.17-.27-.17-.09-.19.25zM76.64 93.52l-.09-.14-.27.16.09.15zM76 92.4v-.15l-.29.13.07.16zM76.31 93s0-.1-.08-.14L76 93l.09.15zM79.15 96.42l-.15-.11-.21.24.13.11zM78.46 96.22l.21-.23-.12-.11-.22.22zM77.55 95.28l.23-.22-.11-.12-.24.2zM77.13 94.77l.24-.2a1.13 1.13 0 00-.1-.13l-.25.19a1.34 1.34 0 00.11.14zM77 94.05l-.09-.13-.27.17.11.15zM75 89.36v-.16h-.32v.18zM74.9 88.73v-.16h-.32v.18zM75.14 90v-.16l-.31.07a1 1 0 000 .17zM75.75 91.81l-.06-.15-.3.12s0 .11.07.16zM75.51 91.22a1.42 1.42 0 00-.05-.16l-.3.1.06.17zM75.31 90.61v-.16l-.31.08c0 .06 0 .12.05.18zM82.93 98.93l.1-.3h-.15l-.12.29zM84.84 99.43v-.32h-.16l-.06.31zM84.2 99.29l.06-.31h-.16l-.08.3zM85.49 99.52v-.31h-.16v.31zM87.45 99.3h-.16v.32h.17zM83.56 99.13l.08-.31h-.15l-.1.3zM86.81 99.3h-.17v.31h.18zM86.15 99.59v-.32H86v.31zM74.83 88.09a.86.86 0 010-.16h-.32a.91.91 0 010 .17zM80.55 97.81l.16-.27-.14-.09-.17.27zM81.12 98.14l.15-.29-.14-.07-.16.27zM79.46 97.07l.19-.25-.13-.1-.2.24zM81.71 98.43l.13-.29-.15-.06-.14.28zM88.12 99.57v-.31h-.16v.32zM82.32 98.7l.11-.3-.15-.06-.13.29z"/><path class="cls-1" d="M78.18 93.17h-.75a10.17 10.17 0 00.82 1.13h.83a11.15 11.15 0 01-.9-1.13zM78.18 80.91a13.93 13.93 0 01.9-1.13h-.83a11.2 11.2 0 00-.82 1.13zM95.9 93.17a8.92 8.92 0 01-.9 1.13h.84a10.17 10.17 0 00.82-1.13zM95.9 80.91h.76a11.2 11.2 0 00-.82-1.13H95a10.61 10.61 0 01.9 1.13zM42.62 151.31a78.29 78.29 0 0072.44 8.69l-.86-2.23 2.28 5.93.63-.26-3.84-9.71-.54.21 1.42 3.7a75.7 75.7 0 01-97.43-42.81l-2.35.94a78 78 0 0028.25 35.54z"/><path class="cls-2" d="M143 141.53l-1.81-1.77a76 76 0 01-12.07 10.07l1.42 2.1a78.94 78.94 0 0012.46-10.4zM87 11.45a75.31 75.31 0 0167.45 41.42l-3.45 1.8c.07.12.13.25.19.38l9.36-4.65c-.08-.15-.15-.31-.23-.46l-4.66 2.36 1.13-.57a78.22 78.22 0 00-98.85-37.21l1 2.35A75.27 75.27 0 0187 11.45z"/><path class="cls-1" d="M87 29.42a57.71 57.71 0 00-52.57 34h-.25a1.39 1.39 0 101.39 1.38 1.36 1.36 0 00-.56-1.1A57 57 0 01144 87a57.66 57.66 0 01-.77 9.39 1.39 1.39 0 10.62.11A57.67 57.67 0 0087 29.42zM34.22 65.53a.75.75 0 11.75-.75.75.75 0 01-.75.75zm109.12 33a.75.75 0 11.75-.75.75.75 0 01-.75.78z"/><path class="cls-1" d="M87 35.12a52.25 52.25 0 00-10.53 1.07.93.93 0 00-1.79.36.93.93 0 001.86 0A52.28 52.28 0 0187 35.44a51.61 51.61 0 0145.63 75.73.91.91 0 00-.37-.08.93.93 0 000 1.86.92.92 0 00.93-.93.89.89 0 00-.3-.67A51.94 51.94 0 0087 35.12zm-11.39 2a.62.62 0 010-1.23.62.62 0 110 1.23zm56.65 75.48a.62.62 0 010-1.23.62.62 0 110 1.23z"/><path class="cls-2" d="M133.14 94.5l2.5.4a50.2 50.2 0 00.62-7.86 48.88 48.88 0 00-9.11-28.53L125.08 60a46.83 46.83 0 00-25.24-17.87l.26-.91A47.82 47.82 0 0087 39.41a47.23 47.23 0 00-28.79 9.68 48 48 0 00-16.91 24.5l.91.27a46.74 46.74 0 0013.53 47.85l.53-.58-2.23 2.46a49.66 49.66 0 006.35 4.86l1.8-2.79-.43.66A46.22 46.22 0 0078.7 133l-.17.94a48.35 48.35 0 008.51.76 47.41 47.41 0 0020-4.4l-.4-.87a46.63 46.63 0 0026.5-34.93zm-26.8 34.2l-.74-1.58a44.49 44.49 0 01-26.45 3.37l-.31 1.71.14-.77A44.71 44.71 0 0162.66 125l1.34-2.14a43.82 43.82 0 01-5.49-4.2l-1.7 1.88a45.13 45.13 0 01-13.04-46.23l-.77-.23 1.67.5a44.2 44.2 0 0154.46-30l.26-.91a45.3 45.3 0 0124.4 17.23l-2.07 1.47A42.27 42.27 0 01129.61 87a42.82 42.82 0 01-.54 6.8l3.28.53-.78-.13A45 45 0 01106 128z"/><path class="cls-1" d="M77.75 68.07a20.39 20.39 0 013.68-1.4l-1.26-4.58a26.54 26.54 0 00-4.51 1.71z"/><path class="cls-2" d="M66 85.58a22.32 22.32 0 01.63-3.87L62 80.51a25.59 25.59 0 00-.77 4.75zM61.19 85.85v1.19a27.21 27.21 0 00.25 3.63l4.68-.67a20.49 20.49 0 01-.21-3v-1zM70.54 73.86l-3.71-3a26 26 0 00-2.65 4l4.2 2.21a21.6 21.6 0 012.16-3.21zM68.15 77.58l-4.24-2.13a26 26 0 00-1.75 4.49l4.57 1.3a20.72 20.72 0 011.42-3.66zM70.85 73.48a21.32 21.32 0 012.78-2.76l-3-3.67a26.71 26.71 0 00-3.42 3.39z"/><path class="cls-1" d="M81.9 66.54a21.49 21.49 0 013.88-.54l-.27-4.74a25.77 25.77 0 00-4.77.73z"/><path class="cls-2" d="M98.42 69.25l2.56-4A26.68 26.68 0 0096.7 63l-1.77 4.41a21.36 21.36 0 013.49 1.84zM100.94 71.14l3.36-3.37a27.34 27.34 0 00-2.82-2.2l-2.65 4a19.37 19.37 0 012.11 1.57zM71.14 100.94a20 20 0 01-1.74-2.29l-4 2.61a26.68 26.68 0 002.34 3zM66.19 90.48l-4.68.77a25.73 25.73 0 001.22 4.66l4.46-1.64a20.7 20.7 0 01-1-3.79zM94.47 67.26l1.68-4.44a25.83 25.83 0 00-4.66-1.27l-.81 4.68a20.76 20.76 0 013.79 1.03z"/><path class="cls-3" d="M79.57 106.81l-1.67 4.44a25.17 25.17 0 004.65 1.28l.81-4.68a21.24 21.24 0 01-3.79-1.04z"/><path d="M96.74 105.82l2.18 4.18a25.66 25.66 0 004-2.61l-2.92-3.7a21.6 21.6 0 01-3.26 2.13z" opacity=".8" fill="#f49022"/><path class="cls-3" d="M87.77 108.16h-.73a21 21 0 01-3.19-.25l-.72 4.7a26.56 26.56 0 003.91.3h.91z"/><path d="M92.15 107.55a20.87 20.87 0 01-3.89.59l.28 4.74a25.9 25.9 0 004.77-.72z" opacity=".6" fill="#f49022"/><path d="M96.3 106a21.13 21.13 0 01-3.68 1.39l1.26 4.61a25.69 25.69 0 004.51-1.7z" opacity=".7" fill="#f49022"/><path d="M75.64 104.82l-2.56 4a26.17 26.17 0 004.27 2.18l1.77-4.41a21.65 21.65 0 01-3.48-1.77z" opacity=".3" fill="#f49022"/><path d="M73.15 103l-3.36 3.36a26.89 26.89 0 002.79 2.19l2.65-4a20.15 20.15 0 01-2.08-1.55z" opacity=".2" fill="#f49022"/><path class="cls-2" d="M103 73.15a21.23 21.23 0 011.73 2.27l4-2.61a25.29 25.29 0 00-2.33-3zM106.89 79.8a20.23 20.23 0 011 3.8l4.69-.77a26.07 26.07 0 00-1.23-4.67zM108.12 88.51a20.67 20.67 0 01-.63 3.88l4.6 1.2a25.83 25.83 0 00.77-4.76z"/><path d="M103.22 100.62a21.48 21.48 0 01-2.79 2.77l3 3.67a26.23 26.23 0 003.43-3.4z" opacity=".9" fill="#f49022"/><path class="cls-1" d="M103.53 100.24l3.71 3a27.27 27.27 0 002.66-4L105.7 97a20.71 20.71 0 01-2.17 3.24zM114.64 86.57h8.97v.63h-8.97zM50.38 86.57h8.97v.63h-8.97z"/><path class="cls-2" d="M82.55 48.7l-.07-.63h-.44l.08.63zM81.22 48.88l-.1-.63-.44.07.11.62zM85.24 48.48v-.63h-.44v.63zM83.89 48.56v-.63h-.45l.06.63zM79.89 49.1l-.11-.62-.44.08.12.62zM77.26 49.69l-.16-.61-.43.12.17.61zM76 50.06l-.18-.61-.42.13.19.6zM78.57 49.37l-.14-.61-.43.1.15.61zM74.68 50.47l-.2-.6-.42.14.21.6zM86.59 48.44v-.63h-.45v.64zM94.75 48.56l-.44-.08-.11.62.42.08zM100 50l-.42-.14-.2.6.41.14zM88 47.81h-.5v.63h.43zM102.58 51l-.41-.17-.24.58.4.17zM98.73 49.58l-.43-.13-.17.61.41.12zM103.83 51.58l-.41-.19-.26.58.39.18zM101.32 50.49l-.42-.16-.22.59.4.16zM92.05 48.12h-.45l-.07.63h.43zM73.41 50.92l-.22-.59-.42.16.24.59zM97.42 49.2l-.42-.12-.15.61.42.12zM96.09 48.86l-.44-.1-.13.61.42.1zM52.15 70.53l-.57-.27c-.07.13-.13.27-.19.41l.57.26zM55.55 64.73l-.55-.37-.26.37.53.36zM56.35 63.65l-.5-.39-.27.36.51.37zM57.19 62.59l-.49-.4-.28.35.5.39zM54.79 65.84l-.52-.35-.25.38.54.33c.07-.12.15-.2.23-.36zM58.06 61.56l-.47-.42-.29.34.48.41zM52.75 69.33l-.56-.3-.21.4.57.28c.06-.13.13-.25.2-.38zM108.6 54.27l-.38-.25-.33.54.36.24zM54.07 67l-.54-.33c-.08.12-.15.25-.23.38l.55.32c.07-.14.15-.27.22-.37zM51.59 71.76l-.59-.25c-.06.13-.12.27-.17.41l.58.24c.07-.16.12-.27.18-.4zM53.39 68.14l-.55-.31-.22.39.56.3zM59 60.57l-.46-.44-.3.33.46.43zM69.71 52.55l-.28-.55-.4.21.3.56zM68.52 53.18l-.3-.56-.39.22.31.55zM60.13 58.51l.44.46.31-.29-.42-.47zM70.92 52l-.26-.58-.4.19.27.57zM66.2 54.56l-.34-.56-.37.25.35.52zM72.15 51.42l-.23-.58-.42.16.26.58zM67.35 53.85L67 53.3l-.38.23.33.54zM65.08 55.31l-.35-.53-.37.26.37.51zM61.89 57.78l-.41-.48-.34.29.42.47zM62.93 56.92l-.4-.5c-.11.1-.23.19-.35.28l.41.49zM64 56.09l-.38-.51-.35.27.39.5zM52 103.16l-.58.26c.06.14.12.27.19.41l.57-.28zM90.69 48h-.45v.63h.43zM51.08 73l-.59-.24c-.06.14-.11.28-.16.42l.59.22zM59.15 59.47l.45.44.31-.3-.44-.46zM105.06 52.19l-.4-.21-.28.57.38.2zM89.32 47.87h-.45v.63h.43zM93.4 48.32l-.4-.07-.09.63.43.06zM111.9 56.7l-.35-.28-.39.5.34.27zM106.26 52.84l-.39-.22-.3.56.38.21zM114.94 59.47l-.32-.32-.44.46.3.3zM109.73 55l-.37-.25-.36.52.36.24zM107.44 53.53l-.38-.23-.32.55.37.22zM59.15 114.62l.32.31.44-.45-.31-.3zM56.42 111.55l.28.35.49-.4-.27-.34zM69 121.9l.4.2.28-.57-.39-.19zM82 126h.45l.07-.63h-.43zM114.17 114.48l.44.46.32-.32-.45-.44zM84.76 126.22h.45v-.63h-.43zM76.67 124.89l.43.12.15-.62-.41-.11zM110.83 55.85l-.36-.27-.37.51.34.27zM64.36 119.05l.37.25.35-.52c-.12-.08-.24-.16-.35-.25zM125.61 85.24h.63v-.45h-.64zM62.18 117.38l.35.28.39-.49-.33-.27zM58.21 113.63l.3.32.46-.43-.3-.32zM120.91 68.52l.56-.3-.22-.39-.55.32zM117.67 62.54l-.28-.35-.49.4.27.34zM119.31 64.73l-.26-.37-.51.37.24.36zM125.52 83.9l.63-.05v-.45l-.63.07c-.02.14-.01.28 0 .43zM119.53 66.21l.54-.34-.25-.38-.52.36c.07.15.15.24.23.36zM118.51 63.62l-.28-.36-.49.39.26.35zM112.2 57.78l.32.28.43-.47-.34-.29zM113.2 58.68l.32.29.44-.46-.33-.3zM116.79 61.48l-.29-.33-.47.42.28.32zM115.88 60.46l-.3-.33-.46.44c.1.11.2.21.29.32zM120.24 67.35l.55-.32c-.08-.12-.15-.25-.23-.38L120 67c.09.11.17.23.24.35zM124.71 78.57l.62-.13c0-.15-.06-.29-.1-.44l-.61.15zM124.4 77.26l.61-.15-.12-.44-.61.18zM124 76l.61-.18c0-.14-.09-.29-.13-.43l-.61.19c.13.11.13.25.13.42zM125 79.89l.63-.11-.09-.44-.62.13c.01.14.08.28.08.42zM121.54 69.71l.57-.27-.21-.44-.56.3c.07.16.13.29.2.41zM125.39 82.56l.63-.07v-.45l-.63.09c-.03.14-.02.28 0 .43zM122.67 72.16l.58-.24-.17-.41-.58.26c.05.13.11.23.17.39zM122.12 70.93l.58-.26c-.06-.14-.13-.27-.19-.41l-.57.28zM123.62 74.68l.6-.2c0-.14-.1-.28-.15-.42l-.59.21c.05.14.1.28.14.41zM123.16 73.41l.6-.21-.16-.43-.6.23zM125.21 81.22l.63-.09c0-.15 0-.29-.07-.44l-.63.11c.03.14.05.28.07.42zM106.73 120.24l.32.55.39-.23-.34-.54zM105.56 120.91l.3.56.4-.22-.32-.55zM107.88 119.53l.34.54.37-.25-.35-.52zM103.16 122.12l.26.58.4-.19-.27-.57zM104.37 121.54l.28.57.4-.21-.29-.56zM115.11 113.52l.46.44.31-.33-.47-.42zM112.19 116.31l.41.49.34-.3-.42-.47zM87.5 125.65v.63h.5v-.63zM113.2 115.42l.42.46.33-.3-.44-.46zM111.16 117.17l.39.5.35-.28-.41-.49zM101.92 122.67l.24.58.42-.17-.26-.58zM110.09 118l.38.51.35-.27-.39-.5zM94.19 125l.12.63.44-.09-.13-.62zM100.67 123.16l.22.6.42-.16-.23-.59zM91.53 125.39l.07.63h.44l-.08-.63zM88.84 125.61v.63h.45v-.63zM90.19 125.52v.63h.45l-.06-.64zM92.87 125.21l.09.63.44-.07-.11-.63zM98.12 124l.18.61.43-.13-.2-.6zM99.4 123.62l.2.6.43-.15-.22-.59zM95.51 124.71l.14.62.44-.1-.16-.61zM96.82 124.4l.18.6.43-.12-.17-.61zM109 118.78l.35.53.37-.26-.37-.51zM124.61 95.94l.62.16c0-.15.07-.3.1-.44l-.62-.14c-.03.14-.06.28-.1.42zM124.9 94.63l.62.13.09-.45-.61-.11c0 .14-.07.29-.1.43zM123.47 99.82l.6.22.15-.43-.6-.19zM125.14 93.3l.62.11c0-.15.06-.3.08-.44l-.63-.1c-.02.13-.04.29-.07.43zM124.28 97.25l.61.17.11-.42-.62-.16c-.02.16-.06.27-.1.41zM123.9 98.54l.6.2c0-.14.09-.29.13-.43l-.6-.18c-.03.14-.09.28-.13.41zM125.64 87.94h.63v-.45h-.63v.45zM116 112.53l.47.42.3-.34-.49-.41zM125.58 89.28h.64v-.45h-.63zM125.34 92l.63.08v-.44l-.63-.07c.03.11.02.26 0 .43zM125.48 90.63l.63.06v-.45h-.63c.03.1.02.25 0 .39zM125.65 86.59h.63v-.45h-.63c-.01.16-.01.31 0 .45zM119.29 108.25l.53.35.24-.37-.53-.34zM123 101.09l.58.23.17-.42-.6-.22zM118.53 109.36l.51.37c.09-.12.18-.24.26-.37l-.52-.35zM118 110.1l-.26.34.5.39.27-.35zM116.89 111.5l.49.41.28-.35-.5-.4zM120 107.11l.54.34c.08-.13.16-.26.23-.39l-.55-.32c-.06.13-.13.26-.22.37zM121.94 103.56l.57.27c.06-.13.12-.27.19-.4l-.58-.26zM122.49 102.33l.58.26.18-.42-.59-.24c-.05.14-.11.27-.17.4zM120.69 106l.55.31c.08-.13.15-.26.22-.39l-.55-.3zM121.34 104.76l.56.3c.07-.13.13-.27.2-.4l-.57-.28c-.06.13-.13.26-.19.38zM50.92 100.68l-.59.22.16.42.59-.24zM49.37 95.52l-.61.13c0 .15.06.29.1.44l.61-.15c-.03-.14-.06-.28-.1-.42zM48.88 92.87l-.63.09c0 .15 0 .3.07.44l.62-.1zM49.1 94.2l-.62.11.09.44.61-.13c-.02-.14-.05-.28-.08-.42zM48.57 90.19h-.64v.45l.63-.07zM48.7 91.53l-.63.07v.45l.63-.09c.03-.14.01-.28 0-.43zM50.61 74.27l-.6-.21c0 .14-.1.28-.14.42l.59.2zM51.42 101.93l-.58.24c0 .14.11.27.17.41l.58-.25c-.06-.14-.11-.27-.17-.4zM48.48 88.85h-.63v.45h.63c.01-.16.01-.3 0-.45zM50.06 98.13l-.61.17c0 .15.09.29.13.43l.6-.19zM50.47 99.41l-.6.2c0 .14.09.28.14.42l.6-.21c-.05-.14-.1-.27-.14-.41zM49.69 96.83l-.61.15.12.44.61-.18zM49.18 79.47l-.62-.13c0 .14-.05.29-.08.44l.62.11c.03-.14.06-.28.08-.42zM49.47 78.15l-.61-.15c0 .14-.07.29-.1.44l.61.13c.04-.14.07-.28.1-.42zM52.55 104.37l-.57.28.21.41.56-.3zM48.94 80.79l-.62-.11c0 .15 0 .3-.07.45l.62.09c.03-.15.05-.29.07-.43zM50.18 75.55l-.6-.19c0 .14-.09.28-.13.43l.61.17zM49.81 76.84l-.61-.17-.12.43.61.16zM48.75 82.12l-.63-.12v.45l.63.06c-.04-.1-.02-.24 0-.39zM48.45 86.16h-.64v.45h.63c0-.17 0-.31.01-.45zM48.44 87.5h-.63v.5h.64c-.01-.21-.01-.35-.01-.5zM48.5 84.81h-.63v.44h.63c-.01-.15-.01-.25 0-.44zM48.6 83.46l-.6-.06v.45h.64zM53.18 105.57l-.56.3.22.39.55-.32zM74.05 124.07l.43.15.19-.6-.4-.14zM72.77 123.6l.42.16.22-.6L73 123zM67.82 121.25l.4.22.3-.56-.38-.21zM71.5 123.07l.42.18.23-.59-.39-.17zM70.26 122.51l.4.19.26-.58-.39-.18zM75.35 124.51l.43.12.22-.63-.42-.13zM83.4 126.11h.44v-.63h-.43zM80.68 125.77l.44.07.09-.63-.42-.07zM79.33 125.52l.44.09.12-.63-.43-.08zM78 125.23l.44.1.14-.62-.43-.09zM60.13 115.57l.33.31.42-.47-.31-.29zM54.78 109.36l.26.37.51-.37-.24-.36zM55.58 110.47l.27.36.5-.39c-.08-.12-.17-.23-.26-.34zM54.56 107.88l-.54.34.25.38.52-.36a7.22 7.22 0 01-.23-.36zM57.29 112.61l.3.33.47-.42-.28-.32zM53.85 106.74l-.55.31.23.39.54-.33zM66.64 120.55l.39.23.32-.54L67 120zM63.26 118.23l.35.27.39-.5-.35-.26zM86.13 126.27h.45v-.63h-.43zM65.49 119.82l.37.25.34-.54-.36-.24zM61.14 116.5l.34.29.41-.48-.33-.29z"/><path class="cls-1" d="M35.48 93.17A52 52 0 0072.68 137a.43.43 0 000 .11.93.93 0 10.93-.93.91.91 0 00-.82.52 51.39 51.39 0 01-37-43.53.93.93 0 00-.29-1.81.93.93 0 000 1.86zm38.11 43.28a.62.62 0 11-.61.61.62.62 0 01.61-.61zM35.5 91.63a.61.61 0 01.62.61.62.62 0 11-1.23 0 .61.61 0 01.61-.61z"/><path class="cls-1" d="M42.5 124.6a1.35 1.35 0 00.69-.19A57.53 57.53 0 0087 144.66a57 57 0 0026.13-6.25 1.37 1.37 0 001 .49 1.39 1.39 0 10-1.39-1.39 1.27 1.27 0 000 .34A57 57 0 0143.66 124a1.42 1.42 0 00.23-.76 1.39 1.39 0 10-1.39 1.38zm71.72 12.16a.76.76 0 11-.75.75.76.76 0 01.75-.75zM42.5 122.47a.75.75 0 11-.75.75.75.75 0 01.75-.75zM15.18 40.5a87.63 87.63 0 016.65-8.9l-.75-.66c-.69.8-1.35 1.62-2 2.44l-.35-.27q-2.16 2.72-4.08 5.56l.39.25-.68 1zM171.46 67.63c-.4-1.77-.87-3.53-1.38-5.27l.43-.13a84 84 0 00-3.17-8.9l-.42.17c-.49-1.17-1-2.34-1.55-3.49l-.91.44a85.32 85.32 0 016.06 17.4zM87 1.4a85.12 85.12 0 0137.4 8.6l.44-.9a85.46 85.46 0 00-24.25-7.58l.07-.45A88 88 0 0087.13 0v.45H87c-1.61 0-3.22 0-4.82.14l.06 1c1.61-.14 3.2-.19 4.76-.19z"/><path class="cls-2" d="M172.9 98.36l-1-.12a85.15 85.15 0 01-14.08 36.9l.37.25A86.65 86.65 0 01125.66 164l-.2-.4a85.5 85.5 0 01-103.29-20.71l-.76.65q2.1 2.43 4.4 4.74.84.84 1.71 1.65l-.31.33A86.42 86.42 0 0066 171.54l.11-.44a85.72 85.72 0 009.46 1.78l-2.09.16a87.88 87.88 0 0039.82-3l-2 .15a84.32 84.32 0 0011-4l.18.41a87.92 87.92 0 0039.06-34.4l-.39-.23a85.91 85.91 0 005-9.44l.41.18a86 86 0 006.17-19.85l-.44-.08q.32-2.18.61-4.42zM8.54 51.71l-.91-.41a87.38 87.38 0 005.84 82.32l.85-.54a86 86 0 01-5.78-81.37zM57.3 21.86L53 12.35l-1.27.59 4.52 9.42zM27.23 47.5l-8.65-5.75c-.26.39-.51.78-.76 1.17l8.77 5.57c.21-.33.41-.67.64-.99zM28.65 45.43l-8.44-6-.81 1.15L28 46.4zM29.42 44.36l.71-.94-8.22-6.33-.84 1.12zM33.32 39.56l-7.77-6.9-.91 1.06 7.9 6.73c.26-.3.51-.6.78-.89zM35 37.71l-7.52-7.16-1 1 7.67 7zM31.69 41.46l-8-6.62-.89 1.09 8.2 6.45c.19-.31.44-.62.69-.92zM22.32 56.21l-9.39-4.5c-.2.42-.39.85-.59 1.27l9.48 4.3c.18-.36.33-.71.5-1.07zM23.43 54l-9.22-4.82-.63 1.25L22.89 55zM25.89 49.61L17 44.17l-.72 1.2 9 5.25zM14.9 47.86l9.15 4.94c.18-.34.38-.69.57-1l-9-5.14c-.27.34-.49.79-.72 1.2zM55 22.93l-4.6-9.35c-.42.21-.84.42-1.25.64L54 23.47zM48.51 26.62l-5.59-8.81-1.18.76 5.77 8.69zM36.76 35.93l-7.27-7.43-1 1 7.43 7.27c.28-.29.56-.56.84-.84zM52.82 24.09l-5-9.19-1.23.68 5.15 9.08c.39-.2.73-.39 1.08-.57zM46.42 28l-5.89-8.61-1.15.81 6.07 8.47zM21.28 58.49l-9.54-4.17-.55 1.29 9.63 4c.18-.4.31-.76.46-1.12zM50.64 25.31l-5.28-9-1.2.72 5.47 8.89zM38.58 34.21l-7-7.68-1 1L37.71 35zM40.46 32.55l-6.74-7.92c-.36.3-.71.61-1.06.92l6.9 7.78zM42.39 31l-6.47-8.2-1.08.89 6.63 8zM44.38 29.45l-6.18-8.39c-.38.27-.75.56-1.12.84l6.35 8.26z"/><path class="cls-2" d="M5 83.45l10.44.44.06-1.19-10.39-.65c-.02.46-.05.95-.11 1.4zM16.83 101.29c-.08-.38-.16-.77-.23-1.16L6.33 102c.08.46.17.92.26 1.38zM20.33 60.8L10.65 57c-.18.43-.34.87-.51 1.3l9.77 3.64zM16 96.36c-.05-.39-.1-.78-.14-1.17L5.49 96.35c0 .46.11.93.17 1.39zM17.36 103.74c-.09-.39-.18-.77-.26-1.16l-10.2 2.25c.1.45.2.91.31 1.36zM15.73 93.88c0-.4-.07-.79-.1-1.18l-10.41.8c0 .46.07.93.11 1.4zM18 106.16c-.11-.38-.21-.76-.31-1.15l-10.12 2.6c.12.46.24.91.37 1.36zM19.49 110.93c-.13-.37-.26-.75-.38-1.12l-9.92 3.3c.15.44.3.88.46 1.32zM20.36 113.27l-.42-1.1-9.79 3.64c.16.44.33.87.5 1.31zM18.7 108.56c-.12-.38-.24-.76-.35-1.14l-10 3c.13.45.26.9.41 1.35zM15.54 91.38l-.06-1.18L5 90.64c0 .47 0 .93.08 1.4zM16.37 98.84l-.18-1.17-10.33 1.52c.07.46.13.93.21 1.39zM18 67.92l-10-2.8-.36 1.35 10.11 2.6zM6.33 72.07L16.6 74c.07-.39.14-.77.22-1.16L6.59 70.69c-.09.46-.18.92-.26 1.38zM5.86 74.89l10.33 1.53.18-1.17-10.3-1.74c-.07.49-.15.92-.21 1.38zM19.46 63.15l-9.82-3.5c-.15.44-.31.88-.45 1.33l9.89 3.29c.12-.38.25-.75.38-1.12zM15.43 88.89V87.7L5 87.77v1.41zM18.33 66.66c.11-.38.23-.76.35-1.14l-9.94-3.15c-.15.44-.28.89-.41 1.34zM59.59 20.86l-4-9.66-1.29.55 4.18 9.57zM5.48 77.74l10.38 1.16.14-1.17-10.35-1.39c-.06.47-.11.93-.17 1.4zM5 86.31l10.45.08V85.2L5 84.91v1.4zM5.21 80.59l10.42.8c0-.39.06-.79.1-1.18l-10.4-1zM6.89 69.26l10.2 2.24c.08-.38.17-.77.26-1.15L7.21 67.89c-.11.46-.21.91-.32 1.37z"/><path class="cls-1" d="M119.76 162.33l-4.18-9.57-1.09.47 4 9.66zM124.93 159.87l-4.84-9.26-1 .54 4.64 9.35c.37-.21.79-.41 1.2-.63zM132.33 155.5l-5.78-8.7-1 .65 5.59 8.82c.41-.27.8-.51 1.19-.77zM122.37 161.15l-4.52-9.43-1.07.51 4.31 9.51zM127.45 158.5l-5.16-9.09-1 .58 5 9.19zM129.91 157l-5.47-8.9-1 .62 5.28 9z"/><path class="cls-2" d="M157.78 128.73l-9-5.29c-.2.34-.4.68-.61 1l8.9 5.47c.23-.37.47-.77.71-1.18zM159.19 126.24l-9.19-5-.58 1 9.09 5.17c.23-.35.49-.76.68-1.17zM169 90.64l-10.4-.44c0 .4 0 .8-.06 1.19l10.43.66c.03-.47.03-.94.03-1.41zM149.44 140.36l-7.95-6.77-.78.9 7.81 6.94c.31-.35.62-.71.92-1.07zM165.77 110.38l-10-2.95c-.11.38-.23.76-.35 1.13l10 3.16zM156.27 131.17l-8.82-5.6c-.21.33-.43.66-.65 1l8.71 5.79c.26-.36.49-.79.76-1.19zM147.54 142.51l-7.71-7-.81.87 7.56 7.2q.49-.58.96-1.07zM162.9 118.48l-9.67-4c-.15.37-.3.73-.46 1.09l9.58 4.19c.19-.41.37-.84.55-1.28zM153 135.89l-8.41-6.2c-.24.31-.47.63-.72.94l8.28 6.38c.31-.37.59-.75.85-1.12zM164 115.82l-9.8-3.64-.42 1.1 9.71 3.85zM164.9 113.12l-9.91-3.3c-.13.37-.25.75-.39 1.12l9.85 3.51zM168.87 93.5l-10.42-.8c0 .39-.06.79-.1 1.18l10.4 1c.05-.44.08-.88.12-1.38zM161.75 121.11l-9.52-4.31-.5 1.07 9.43 4.51c.2-.38.4-.84.59-1.27zM160.52 123.7l-9.36-4.65-.54 1.06 9.26 4.84zM158.55 82.71v1.18l10.45-.44-.06-1.4zM166.53 107.62L156.4 105c-.1.38-.19.77-.3 1.15l10.06 2.85c.13-.47.25-.93.37-1.38zM169.12 87.78l-10.45-.07v1.18l10.45.29c-.01-.46-.01-.93 0-1.4zM169.11 86.32v-1.41l-10.44.3v1.18zM151.27 138.16l-8.19-6.49c-.24.31-.49.61-.75.92l8 6.66zM167.76 102l-10.28-1.88c-.07.39-.14.77-.22 1.16l10.23 2.1c.1-.44.18-.9.27-1.38zM168.23 99.2l-10.34-1.53c0 .39-.12.78-.18 1.17l10.3 1.74c.08-.46.15-.92.22-1.38zM158.08 77.73c0 .39.1.78.14 1.18l10.39-1.17-.18-1.39zM167.2 104.83l-10.2-2.24-.27 1.15 10.16 2.46c.11-.45.21-.91.31-1.37zM157.72 75.25c.06.39.13.78.18 1.17l10.34-1.52c-.07-.47-.15-.93-.22-1.39zM158.36 80.21l.09 1.19 10.42-.81c0-.46-.07-.93-.12-1.4zM168.6 96.36l-10.38-1.17-.15 1.18 10.36 1.38c.06-.46.12-.93.17-1.39zM154.69 133.56l-8.62-5.9-.69 1 8.5 6.09zM155 64.28l9.92-3.3c-.15-.44-.31-.88-.47-1.33l-9.84 3.51c.12.37.26.74.39 1.12zM153.23 59.6l9.66-4c-.18-.43-.36-.87-.55-1.3l-9.57 4.18c.16.39.31.75.46 1.12zM154.15 61.92l9.79-3.64c-.16-.44-.33-.87-.5-1.31l-9.71 3.85zM152.23 57.31l9.51-4.31c-.19-.42-.39-.85-.59-1.27l-9.42 4.51zM157.27 72.79c.08.39.15.78.22 1.17l10.28-1.89c-.08-.46-.17-.92-.26-1.38zM156.73 70.35c.1.38.18.77.26 1.16l10.21-2.25c-.1-.45-.2-.91-.31-1.37zM156.11 67.93l.3 1.14 10.12-2.59c-.11-.46-.23-.91-.36-1.36zM155.4 65.53c.11.38.23.76.34 1.13l10-2.95c-.13-.44-.27-.89-.41-1.34z"/></g></g></svg>