<svg xmlns="http://www.w3.org/2000/svg" viewBox="0 0 680.84 468.5"><defs><style>.cls-1{fill:#fff}.cls-3{fill:#29abe2}.cls-4{opacity:.3}.cls-5{opacity:.5}.cls-6{opacity:.4}</style></defs><g id="图层_2" data-name="图层 2"><g id="Layer_1" data-name="Layer 1"><path class="cls-1" d="M339.17 357.5c-.68 0-1.35-.09-2-.11a1.54 1.54 0 01-1.46-1.58 1.51 1.51 0 011.54-1.47h2a1.57 1.57 0 010 3.13zm4 0a1.56 1.56 0 01-1.5-1.55 1.53 1.53 0 011.47-1.57c.65 0 1.31-.05 2-.08a1.48 1.48 0 011.55 1.44 1.56 1.56 0 01-1.44 1.63c-.67 0-1.34.13-2 .13zm-10-.36h-.09l-2-.14a1.5 1.5 0 11.23-3l2 .14a1.5 1.5 0 01-.09 3zm15.92-.07a1.5 1.5 0 01-.1-3l2-.16a1.5 1.5 0 01.26 3l-2 .16zm-21.87-.43h-.17l-2-.24a1.5 1.5 0 01.38-3c.65.09 1.3.16 2 .23a1.5 1.5 0 01-.16 3zm27.82-.13a1.5 1.5 0 01-.18-3c.66-.07 1.31-.16 2-.25a1.5 1.5 0 01.4 3l-2 .25zm-33.74-.67h-.24l-2-.34a1.5 1.5 0 11.52-3l1.95.32a1.51 1.51 0 01-.24 3zm39.65-.18a1.5 1.5 0 01-.25-3l1.94-.35a1.5 1.5 0 01.55 2.95c-.66.13-1.32.24-2 .36zm-45.53-.92h-.31l-2-.43a1.5 1.5 0 01.67-2.93l1.92.43a1.5 1.5 0 01-.31 3zm51.4-.23a1.5 1.5 0 01-.32-3l1.91-.44a1.5 1.5 0 11.7 2.91l-2 .46a1.66 1.66 0 01-.26.07zm-57.21-1.15a1.65 1.65 0 01-.38-.05l-1.95-.53a1.5 1.5 0 11.82-2.89l1.89.52a1.5 1.5 0 01-.38 2.95zm63-.28a1.51 1.51 0 01-1.41-1.08 1.49 1.49 0 011.05-1.84c.64-.17 1.27-.35 1.9-.54a1.5 1.5 0 11.84 2.88l-1.94.55a1.44 1.44 0 01-.4.03zm-68.75-1.39a1.76 1.76 0 01-.45-.07l-1.93-.64a1.5 1.5 0 011-2.84l1.88.62a1.5 1.5 0 01-.46 2.93zm74.47-.34a1.5 1.5 0 01-.47-2.92l1.87-.63a1.5 1.5 0 111 2.83l-1.91.65a1.49 1.49 0 01-.45.07zm-80.13-1.63a1.64 1.64 0 01-.53-.09l-1.89-.73a1.5 1.5 0 011.1-2.79l1.84.71a1.5 1.5 0 01-.52 2.9zm85.76-.37a1.51 1.51 0 01-1.4-1 1.49 1.49 0 01.86-1.93l1.83-.73a1.5 1.5 0 011.12 2.79l-1.87.74a1.71 1.71 0 01-.5.13zm-91.32-1.87a1.61 1.61 0 01-.6-.12l-1.85-.82a1.5 1.5 0 011.24-2.73l1.81.8a1.49 1.49 0 01.78 2 1.51 1.51 0 01-1.34.87zm96.83-.41a1.51 1.51 0 01-1.37-.9 1.49 1.49 0 01.76-2l1.79-.81a1.5 1.5 0 111.26 2.72l-1.83.83a1.46 1.46 0 01-.57.16zM287.24 345a1.43 1.43 0 01-.66-.16l-1.81-.91a1.5 1.5 0 011.38-2.66l1.76.88a1.5 1.5 0 01-.67 2.85zm107.66-.45a1.5 1.5 0 01-.68-2.84c.59-.3 1.17-.59 1.75-.9a1.5 1.5 0 011.39 2.66l-1.79.92a1.5 1.5 0 01-.67.13zm-113-2.33a1.59 1.59 0 01-.73-.19l-1.75-1a1.5 1.5 0 011.5-2.6l1.71 1a1.51 1.51 0 01-.73 2.82zm118.21-.48a1.5 1.5 0 01-.74-2.81l1.7-1a1.5 1.5 0 011.52 2.58c-.57.34-1.15.68-1.74 1a1.52 1.52 0 01-.7.2zm-123.36-2.56a1.54 1.54 0 01-.8-.23c-.57-.36-1.14-.72-1.7-1.09a1.5 1.5 0 111.63-2.51c.55.35 1.1.71 1.66 1.05a1.5 1.5 0 01-.79 2.78zm128.48-.51a1.5 1.5 0 01-.81-2.77c.56-.35 1.11-.71 1.65-1.07a1.5 1.5 0 111.65 2.51l-1.69 1.09a1.49 1.49 0 01-.76.21zm-133.48-2.78a1.53 1.53 0 01-.86-.27c-.55-.39-1.1-.77-1.64-1.17A1.5 1.5 0 11271 332l1.61 1.13a1.51 1.51 0 01-.86 2.74zm138.43-.54a1.5 1.5 0 01-.86-2.73l1.59-1.15a1.5 1.5 0 011.77 2.43l-1.59 1.1a1.48 1.48 0 01-.87.32zm-143.26-3a1.47 1.47 0 01-.91-.31c-.53-.41-1.07-.82-1.59-1.24a1.5 1.5 0 011.87-2.35l1.55 1.22a1.5 1.5 0 01-.92 2.68zm148.08-.6a1.53 1.53 0 01-1.18-.57 1.51 1.51 0 01.26-2.11c.52-.4 1-.81 1.54-1.22a1.5 1.5 0 111.88 2.33l-1.57 1.26a1.53 1.53 0 01-.93.31zm-152.69-3.19a1.48 1.48 0 01-1-.36c-.52-.43-1-.87-1.53-1.32a1.5 1.5 0 012-2.25l1.49 1.29a1.5 1.5 0 01-1 2.64zm157.3-.6a1.49 1.49 0 01-1.13-.52 1.51 1.51 0 01.15-2.12c.5-.42 1-.86 1.48-1.29a1.5 1.5 0 012 2.23c-.5.45-1 .89-1.52 1.33a1.46 1.46 0 01-.97.41zm-161.76-3.39a1.5 1.5 0 01-1-.4l-1.46-1.4a1.5 1.5 0 012.09-2.15l1.42 1.36a1.5 1.5 0 01-1 2.59zm166.15-.63a1.48 1.48 0 01-1.08-.46 1.49 1.49 0 01.05-2.12l1.41-1.37a1.5 1.5 0 112.1 2.13l-1.44 1.41a1.54 1.54 0 01-1.04.41zm-170.42-3.57a1.46 1.46 0 01-1.08-.46c-.47-.48-.93-1-1.39-1.46a1.5 1.5 0 112.19-2c.45.47.9.95 1.36 1.42a1.5 1.5 0 01-1.08 2.54zm174.64-.66a1.5 1.5 0 01-1.09-2.53l1.35-1.44a1.5 1.5 0 112.2 2c-.45.49-.91 1-1.37 1.47a1.51 1.51 0 01-1.05.5zM249.58 316a1.48 1.48 0 01-1.13-.51l-1.32-1.53a1.5 1.5 0 012.3-1.94l1.28 1.5a1.49 1.49 0 01-.15 2.11 1.46 1.46 0 01-.98.37zm182.69-.69a1.46 1.46 0 01-1-.37 1.49 1.49 0 01-.16-2.11l1.27-1.5a1.5 1.5 0 012.31 1.91c-.43.52-.87 1-1.31 1.54a1.46 1.46 0 01-1.11.5zm-186.51-3.9a1.49 1.49 0 01-1.17-.57l-1.24-1.59a1.5 1.5 0 112.38-1.82c.4.52.8 1 1.21 1.55a1.5 1.5 0 01-1.18 2.43zm190.29-.73a1.45 1.45 0 01-.92-.32 1.5 1.5 0 01-.26-2.1c.4-.52.8-1 1.19-1.57a1.5 1.5 0 012.4 1.81l-1.22 1.6a1.51 1.51 0 01-1.19.55zm-193.87-4A1.49 1.49 0 01241 306l-1.16-1.65a1.5 1.5 0 112.47-1.7l1.13 1.6a1.51 1.51 0 01-.35 2.1 1.55 1.55 0 01-.91.26zm197.42-.77a1.5 1.5 0 01-1.22-2.36c.37-.54.75-1.08 1.11-1.63a1.5 1.5 0 012.49 1.69c-.38.55-.76 1.11-1.15 1.66a1.5 1.5 0 01-1.23.57zm-200.76-4.18a1.5 1.5 0 01-1.27-.69c-.36-.56-.72-1.13-1.07-1.7a1.5 1.5 0 012.55-1.58l1 1.66a1.49 1.49 0 01-1.26 2.31zm204.08-.8a1.47 1.47 0 01-.8-.24 1.49 1.49 0 01-.47-2.06l1-1.68a1.5 1.5 0 112.56 1.56c-.35.57-.7 1.15-1.06 1.72a1.52 1.52 0 01-1.23.63zm-207.18-4.3a1.5 1.5 0 01-1.3-.75l-1-1.75a1.5 1.5 0 012.63-1.45l1 1.71a1.49 1.49 0 01-.55 2 1.46 1.46 0 01-.78.17zm210.26-.92a1.47 1.47 0 01-.73-.19 1.5 1.5 0 01-.58-2c.33-.57.64-1.15 1-1.73a1.5 1.5 0 112.63 1.43c-.32.59-.64 1.18-1 1.77a1.51 1.51 0 01-1.32.72zm-213.07-4.39a1.49 1.49 0 01-1.34-.82q-.47-.9-.9-1.8a1.5 1.5 0 012.69-1.32c.29.59.58 1.18.88 1.76a1.49 1.49 0 01-1.33 2.18zm215.88-.89a1.44 1.44 0 01-.67-.16 1.5 1.5 0 01-.68-2q.45-.87.87-1.77a1.5 1.5 0 012.71 1.3c-.29.61-.59 1.21-.89 1.82a1.52 1.52 0 01-1.36.81zM230.33 286a1.5 1.5 0 01-1.37-.89c-.27-.61-.54-1.23-.8-1.84a1.5 1.5 0 112.75-1.18c.26.6.52 1.2.79 1.79a1.51 1.51 0 01-1.37 2.12zm221-.95a1.57 1.57 0 01-.6-.12 1.51 1.51 0 01-.78-2c.27-.6.53-1.21.78-1.81a1.5 1.5 0 112.77 1.15c-.26.63-.53 1.25-.8 1.86a1.5 1.5 0 01-1.37.87zM228 280.45a1.51 1.51 0 01-1.4-.95c-.24-.63-.48-1.26-.71-1.89a1.5 1.5 0 112.81-1c.23.61.46 1.23.7 1.84a1.5 1.5 0 01-.85 1.94 1.52 1.52 0 01-.55.06zm225.56-1a1.71 1.71 0 01-.53-.1 1.51 1.51 0 01-.87-1.94c.24-.61.46-1.23.69-1.85a1.5 1.5 0 012.82 1c-.23.64-.46 1.27-.7 1.9a1.51 1.51 0 01-1.38 1zM226 274.83a1.49 1.49 0 01-1.42-1c-.22-.64-.42-1.28-.63-1.92a1.5 1.5 0 012.87-.9c.19.62.4 1.25.6 1.87a1.51 1.51 0 01-.95 1.9 1.49 1.49 0 01-.47.05zm229.58-1a1.47 1.47 0 01-.46-.07 1.49 1.49 0 01-1-1.89c.2-.63.4-1.26.59-1.89a1.5 1.5 0 012.87.88c-.2.65-.4 1.29-.61 1.93a1.5 1.5 0 01-1.39 1.01zm-231.33-4.68a1.5 1.5 0 01-1.45-1.1c-.18-.64-.35-1.29-.52-1.94a1.5 1.5 0 012.9-.76l.51 1.9a1.49 1.49 0 01-1 1.84 1.39 1.39 0 01-.44.03zm233-1.06a1.31 1.31 0 01-.39-.05 1.5 1.5 0 01-1.06-1.84c.18-.63.34-1.26.5-1.9a1.5 1.5 0 112.91.73c-.17.65-.33 1.3-.51 1.95a1.5 1.5 0 01-1.42 1.08zm-234.5-4.73a1.51 1.51 0 01-1.46-1.17c-.15-.66-.29-1.32-.43-2a1.5 1.5 0 012.94-.62c.13.65.27 1.29.42 1.93a1.5 1.5 0 01-1.13 1.79 2 2 0 01-.31.04zm235.91-1.07a1.22 1.22 0 01-.32 0 1.49 1.49 0 01-1.14-1.78c.14-.64.27-1.28.4-1.93a1.5 1.5 0 112.94.59c-.13.66-.27 1.32-.41 2a1.5 1.5 0 01-1.44 1.09zm-237.08-4.79a1.5 1.5 0 01-1.47-1.24c-.12-.67-.23-1.33-.33-2a1.5 1.5 0 113-.47c.1.65.21 1.29.32 1.94a1.49 1.49 0 01-1.22 1.73 1.15 1.15 0 01-.27.01zm238.21-1.08h-.25a1.51 1.51 0 01-1.24-1.73c.11-.64.21-1.29.31-1.94a1.5 1.5 0 013 .44c-.09.66-.2 1.33-.31 2a1.49 1.49 0 01-1.48 1.2zm-239.09-4.83a1.51 1.51 0 01-1.49-1.32c-.08-.66-.16-1.33-.23-2a1.5 1.5 0 113-.32c.07.65.15 1.3.23 2a1.5 1.5 0 01-1.31 1.68zm239.91-1.09h-.17a1.5 1.5 0 01-1.32-1.66l.21-2a1.5 1.5 0 113 .29q-.09 1-.21 2a1.51 1.51 0 01-1.48 1.34zm-240.5-4.86a1.5 1.5 0 01-1.49-1.39c-.05-.67-.1-1.34-.13-2a1.5 1.5 0 113-.17c0 .65.08 1.31.13 2a1.5 1.5 0 01-1.39 1.61zm241-1.09h-.1a1.5 1.5 0 01-1.4-1.6c0-.65.08-1.31.11-2a1.5 1.5 0 113 .14c0 .67-.07 1.34-.11 2a1.5 1.5 0 01-1.43 1.43zm-241.33-4c-.81 0-1.48-1.08-1.5-1.89s0-1.14 0-1.81a1.33 1.33 0 011.49-1.3c.83 0 1.5.24 1.5 1.06v2.18a1.7 1.7 0 01-1.46 1.76zm241.57-2a1.48 1.48 0 01-1.49-1.5v-2.16a1.5 1.5 0 113 0v2.22a1.46 1.46 0 01-1.44 1.39zm-241.58-4c-.83 0-1.49-1.12-1.47-1.95s0-1.56.07-2.23a1.59 1.59 0 011.56-1.54 1.46 1.46 0 011.44 1.51c0 .66 0 1.7-.07 2.35.02.77-.64 1.81-1.46 1.81zm241.52-2a1.57 1.57 0 01-1.5-1.52c0-.66-.05-1.35-.08-2a1.51 1.51 0 011.42-1.59 1.48 1.48 0 011.57 1.41c0 .67.07 1.41.09 2.08a1.54 1.54 0 01-1.45 1.62zm-241.23-4.8H220a1.5 1.5 0 01-1.39-1.61c.05-.67.1-1.34.16-2a1.53 1.53 0 011.63-1.36 1.49 1.49 0 011.36 1.63c-.05.65-.11 1.3-.16 2a1.49 1.49 0 01-1.47 1.29zM461 226.4a1.5 1.5 0 01-1.49-1.38l-.18-2a1.5 1.5 0 113-.3c.07.67.13 1.34.19 2a1.51 1.51 0 01-1.37 1.62zm-240.3-4.65h-.19a1.5 1.5 0 01-1.3-1.67c.08-.67.17-1.33.26-2a1.5 1.5 0 013 .41c-.09.65-.17 1.3-.25 2a1.5 1.5 0 01-1.51 1.26zm239.66-1.29a1.51 1.51 0 01-1.49-1.31c-.08-.65-.18-1.3-.27-1.94a1.5 1.5 0 113-.45c.1.66.2 1.33.29 2a1.5 1.5 0 01-1.29 1.68zm-238.79-4.62a1.18 1.18 0 01-.26 0 1.5 1.5 0 01-1.22-1.73c.12-.67.23-1.33.36-2a1.5 1.5 0 012.95.56c-.12.65-.24 1.29-.35 1.94a1.5 1.5 0 01-1.47 1.23zm237.85-1.29a1.49 1.49 0 01-1.47-1.23c-.12-.64-.25-1.28-.37-1.93a1.49 1.49 0 011.17-1.76 1.5 1.5 0 011.77 1.17c.13.66.26 1.32.38 2a1.5 1.5 0 01-1.21 1.75 1.23 1.23 0 01-.26 0zM222.74 210a1.84 1.84 0 01-.33 0 1.51 1.51 0 01-1.13-1.8c.14-.65.3-1.31.45-2a1.5 1.5 0 112.92.7l-.45 1.92a1.49 1.49 0 01-1.46 1.18zm235.47-1.27a1.5 1.5 0 01-1.46-1.16c-.15-.64-.31-1.28-.47-1.91a1.5 1.5 0 012.91-.74l.48 2a1.5 1.5 0 01-1.12 1.81 2 2 0 01-.34-.02zm-234-4.52a1.45 1.45 0 01-.41-.06 1.51 1.51 0 01-1-1.85c.18-.64.36-1.29.56-1.94a1.5 1.5 0 112.87.86q-.27.93-.54 1.89a1.5 1.5 0 01-1.49 1.08zm232.49-1.26a1.5 1.5 0 01-1.44-1.09c-.18-.63-.37-1.26-.56-1.88a1.5 1.5 0 112.86-.88c.2.64.39 1.28.58 1.93a1.5 1.5 0 01-1 1.86 1.4 1.4 0 01-.45.04zm-230.75-4.46a1.34 1.34 0 01-.48-.08 1.5 1.5 0 01-1-1.89q.31-1 .66-1.92a1.5 1.5 0 112.83 1c-.22.62-.43 1.24-.64 1.86a1.51 1.51 0 01-1.38 1.01zm229-1.24a1.5 1.5 0 01-1.42-1q-.32-.93-.66-1.86a1.5 1.5 0 112.82-1c.23.63.46 1.26.68 1.9a1.5 1.5 0 01-.93 1.91 1.73 1.73 0 01-.55.03zM228 192.83a1.49 1.49 0 01-1.4-2q.36-.94.75-1.89a1.5 1.5 0 112.77 1.14c-.25.61-.49 1.22-.73 1.83a1.48 1.48 0 01-1.39.92zm224.83-1.2a1.51 1.51 0 01-1.39-.94c-.24-.61-.49-1.21-.74-1.82a1.5 1.5 0 112.76-1.16c.26.62.52 1.24.76 1.86a1.5 1.5 0 01-.83 2 1.55 1.55 0 01-.59.06zm-222.56-4.33a1.49 1.49 0 01-.61-.13 1.51 1.51 0 01-.76-2l.84-1.84a1.5 1.5 0 112.72 1.27c-.28.59-.55 1.19-.82 1.79a1.49 1.49 0 01-1.37.91zm220.18-1.14a1.5 1.5 0 01-1.36-.88l-.84-1.77a1.5 1.5 0 012.71-1.3c.29.61.57 1.21.85 1.82a1.49 1.49 0 01-.74 2 1.51 1.51 0 01-.62.13zm-217.6-4.26a1.52 1.52 0 01-.68-.17 1.5 1.5 0 01-.65-2c.3-.6.61-1.19.93-1.79a1.5 1.5 0 012.65 1.4c-.31.58-.61 1.17-.91 1.75a1.5 1.5 0 01-1.34.81zm215-1.09a1.51 1.51 0 01-1.33-.81c-.3-.58-.61-1.16-.92-1.73a1.5 1.5 0 112.63-1.43c.32.59.64 1.18 1 1.77a1.51 1.51 0 01-.64 2 1.56 1.56 0 01-.76.2zm-212.15-4.18a1.56 1.56 0 01-.75-.2 1.49 1.49 0 01-.55-2.05c.33-.58.67-1.17 1-1.74a1.5 1.5 0 112.58 1.53l-1 1.7a1.49 1.49 0 01-1.28.76zm209.24-1a1.51 1.51 0 01-1.29-.74c-.33-.57-.67-1.13-1-1.69a1.5 1.5 0 012.57-1.56l1 1.73a1.51 1.51 0 01-1.3 2.26zm-206.14-4.12a1.51 1.51 0 01-1.27-2.31l1.11-1.69a1.5 1.5 0 112.5 1.66c-.37.54-.72 1.09-1.08 1.65a1.5 1.5 0 01-1.26.69zm203-1a1.49 1.49 0 01-1.25-.68l-1.09-1.64a1.5 1.5 0 012.48-1.68c.38.56.75 1.11 1.12 1.68a1.49 1.49 0 01-.44 2.07 1.44 1.44 0 01-.82.26zm-199.65-4a1.46 1.46 0 01-.87-.28 1.48 1.48 0 01-.35-2.09c.39-.55.78-1.09 1.18-1.63a1.5 1.5 0 112.41 1.78l-1.15 1.59a1.5 1.5 0 01-1.22.67zm196.26-.94a1.5 1.5 0 01-1.21-.62c-.38-.53-.77-1.06-1.17-1.58a1.5 1.5 0 012.4-1.81l1.2 1.62a1.51 1.51 0 01-1.22 2.39zm-192.68-3.84a1.51 1.51 0 01-1.17-2.43l1.26-1.58a1.5 1.5 0 012.33 1.9c-.42.51-.83 1-1.24 1.54a1.5 1.5 0 01-1.18.61zm189.06-.91a1.48 1.48 0 01-1.17-.56c-.41-.51-.83-1-1.25-1.52a1.5 1.5 0 112.31-1.91c.43.51.85 1 1.27 1.55a1.5 1.5 0 01-.22 2.11 1.46 1.46 0 01-.94.37zm-185.24-3.69a1.46 1.46 0 01-1-.37 1.5 1.5 0 01-.15-2.12c.44-.51.89-1 1.34-1.51a1.5 1.5 0 112.23 2l-1.31 1.47a1.49 1.49 0 01-1.11.57zm181.38-.86a1.47 1.47 0 01-1.12-.51l-1.32-1.46a1.5 1.5 0 112.21-2l1.35 1.5a1.51 1.51 0 01-.12 2.12 1.54 1.54 0 01-1 .39zm-177.34-3.55a1.5 1.5 0 01-1.08-2.54l1.41-1.44a1.5 1.5 0 112.13 2.12l-1.38 1.4a1.48 1.48 0 01-1.08.5zm173.26-.82a1.5 1.5 0 01-1.07-.45c-.46-.47-.92-.93-1.39-1.39a1.5 1.5 0 012.11-2.06l1.42 1.43a1.5 1.5 0 010 2.12 1.48 1.48 0 01-1.07.39zm-169-3.38a1.5 1.5 0 01-1-2.59l1.48-1.37a1.5 1.5 0 012 2.22l-1.44 1.33a1.47 1.47 0 01-1.05.45zm164.72-.78a1.45 1.45 0 01-1-.4l-1.46-1.32a1.5 1.5 0 012-2.24c.5.45 1 .9 1.49 1.36a1.5 1.5 0 01-1 2.6zm-160.27-3.2a1.48 1.48 0 01-1.14-.53 1.5 1.5 0 01.17-2.12l1.54-1.29a1.5 1.5 0 011.91 2.31l-1.51 1.27a1.5 1.5 0 01-.98.4zm155.78-.75a1.5 1.5 0 01-1-.34c-.5-.43-1-.84-1.52-1.26a1.5 1.5 0 011.89-2.33l1.55 1.28a1.51 1.51 0 01.19 2.12 1.49 1.49 0 01-1.12.57zm-151.14-3a1.5 1.5 0 01-.92-2.69l1.61-1.22a1.5 1.5 0 111.79 2.41l-1.57 1.18a1.48 1.48 0 01-.92.35zm146.46-.71a1.52 1.52 0 01-.9-.3c-.52-.4-1.05-.79-1.58-1.17a1.5 1.5 0 111.77-2.43l1.62 1.21a1.5 1.5 0 01.29 2.1 1.48 1.48 0 01-1.21.62zm-141.65-2.82a1.5 1.5 0 01-.85-2.73c.55-.39 1.1-.76 1.66-1.14a1.5 1.5 0 011.67 2.49L272.6 137a1.51 1.51 0 01-.86.29zm136.79-.66a1.54 1.54 0 01-.84-.26l-1.64-1.1a1.5 1.5 0 011.65-2.51l1.68 1.13a1.5 1.5 0 01-.85 2.74zM276.73 134a1.5 1.5 0 01-.8-2.78l1.72-1a1.5 1.5 0 011.54 2.57c-.56.34-1.12.68-1.67 1a1.54 1.54 0 01-.79.21zm126.78-.63a1.46 1.46 0 01-.78-.22l-1.69-1a1.5 1.5 0 111.52-2.59l1.73 1a1.5 1.5 0 01-.78 2.78zM281.86 131a1.47 1.47 0 01-1.31-.77 1.5 1.5 0 01.58-2c.58-.32 1.17-.65 1.76-1a1.5 1.5 0 111.42 2.64l-1.72.94a1.47 1.47 0 01-.73.19zm116.46-.58a1.57 1.57 0 01-.72-.18c-.57-.32-1.15-.63-1.73-.93a1.5 1.5 0 111.39-2.66l1.78.95a1.5 1.5 0 01-.72 2.82zm-111.18-2.22a1.5 1.5 0 01-.67-2.85c.6-.29 1.2-.59 1.81-.87a1.5 1.5 0 012 .71 1.51 1.51 0 01-.71 2l-1.77.85a1.43 1.43 0 01-.66.16zm105.86-.54a1.51 1.51 0 01-.65-.15c-.6-.29-1.19-.57-1.79-.84a1.5 1.5 0 011.26-2.73c.61.29 1.22.57 1.83.87a1.49 1.49 0 01.7 2 1.51 1.51 0 01-1.35.85zm-100.46-2a1.51 1.51 0 01-1.38-.9 1.49 1.49 0 01.78-2l1.85-.79a1.5 1.5 0 011.15 2.77l-1.8.77a1.61 1.61 0 01-.6.18zm95-.5a1.52 1.52 0 01-.59-.12l-1.82-.75a1.5 1.5 0 111.12-2.78l1.87.77a1.5 1.5 0 01-.58 2.88zm-89.48-1.73a1.5 1.5 0 01-.53-2.91l1.89-.69a1.5 1.5 0 111 2.82l-1.84.68a1.71 1.71 0 01-.52.13zM382 123a1.52 1.52 0 01-.51-.09l-1.86-.66a1.5 1.5 0 111-2.83l1.91.67A1.5 1.5 0 01382 123zm-78.26-1.51a1.52 1.52 0 01-1.43-1 1.5 1.5 0 011-1.89l1.93-.6a1.5 1.5 0 11.87 2.87l-1.88.59a1.47 1.47 0 01-.53.03zm72.57-.4a1.72 1.72 0 01-.44-.06c-.62-.2-1.25-.39-1.88-.57a1.49 1.49 0 01-1-1.86 1.5 1.5 0 011.86-1l1.93.58a1.5 1.5 0 01-.45 2.93zm-66.84-1.28a1.5 1.5 0 01-.38-3l1.95-.51a1.5 1.5 0 01.73 2.92c-.64.15-1.28.32-1.91.49a1.74 1.74 0 01-.43.1zm61.09-.34a1.61 1.61 0 01-.37 0l-1.91-.47a1.51 1.51 0 01-1.11-1.81 1.49 1.49 0 011.8-1.11c.66.15 1.31.31 2 .48a1.5 1.5 0 011.09 1.82 1.51 1.51 0 01-1.54 1.09zm-55.28-1.06a1.5 1.5 0 01-.31-3l2-.41a1.5 1.5 0 01.58 2.94l-1.93.4a1.73 1.73 0 01-.38.07zm49.46-.27h-.3l-1.93-.37a1.5 1.5 0 11.55-2.95l2 .38a1.5 1.5 0 01-.29 3zm-43.58-.83a1.5 1.5 0 01-.24-3l2-.31a1.5 1.5 0 01.43 3l-1.94.3zm37.7-.2h-.23l-1.95-.28a1.5 1.5 0 11.4-3l2 .28a1.5 1.5 0 01-.22 3zM327 116.5a1.5 1.5 0 01-.17-3q1-.12 2-.21a1.5 1.5 0 01.28 3l-2 .2zm25.85-.14h-.16l-2-.18a1.5 1.5 0 11.25-3l2 .19a1.5 1.5 0 01-.15 3zM333 116a1.5 1.5 0 01-.09-3l2-.1a1.47 1.47 0 011.57 1.43 1.5 1.5 0 01-1.43 1.56l-2 .11zm13.94-.07h-.08l-2-.08a1.5 1.5 0 11.1-3l2 .09a1.5 1.5 0 01-.07 3zm-8 .59c-.82 0-1.49-1-1.5-1.85a1.35 1.35 0 011.48-1.33c.56 0 1.12.18 1.68.18h.4a1.5 1.5 0 010 3h-2zM336.49 395.5c-.67 0-1.34-.32-2-.35a1.63 1.63 0 01-1.45-1.69 1.55 1.55 0 011.56-1.51h2a1.79 1.79 0 010 3.53zm14.87-.87a1.5 1.5 0 01-.1-3l2-.15a1.51 1.51 0 011.61 1.38 1.49 1.49 0 01-1.38 1.61c-.66.06-1.33.11-2 .15zm-31.68-1h-.2l-2-.28a1.5 1.5 0 11.43-3l1.95.27a1.5 1.5 0 01-.2 3zm48.42-1a1.5 1.5 0 01-.26-3l1.94-.35a1.49 1.49 0 011.75 1.2 1.5 1.5 0 01-1.2 1.75l-2 .35a1.15 1.15 0 01-.23.04zm-65-2.1a1.47 1.47 0 01-.36 0l-1.94-.48a1.5 1.5 0 01.74-2.91l1.91.48a1.5 1.5 0 011.11 1.81 1.51 1.51 0 01-1.45 1.09zm81.42-1.69a1.5 1.5 0 01-.41-2.94l1.88-.56a1.5 1.5 0 01.87 2.87l-1.92.57a1.52 1.52 0 01-.41.05zM287 385.67a1.31 1.31 0 01-.51-.09q-.94-.33-1.89-.69a1.5 1.5 0 111.05-2.81l1.86.68a1.5 1.5 0 01-.51 2.91zm113.5-2.37a1.5 1.5 0 01-.57-2.89c.61-.24 1.21-.49 1.81-.75a1.5 1.5 0 111.17 2.77l-1.84.76a1.44 1.44 0 01-.61.11zm-129-4.18a1.51 1.51 0 01-.65-.15l-1.8-.89a1.51 1.51 0 01-.67-2 1.49 1.49 0 012-.66l1.77.87a1.5 1.5 0 01-.66 2.85zm144.29-3a1.5 1.5 0 01-.71-2.82l1.72-.94a1.5 1.5 0 111.45 2.62l-1.75 1a1.5 1.5 0 01-.8.13zm-159-5.17a1.42 1.42 0 01-.79-.23l-1.7-1.07a1.5 1.5 0 011.62-2.53l1.67 1.06a1.5 1.5 0 01-.8 2.77zm173.43-3.61a1.5 1.5 0 01-.85-2.74c.54-.37 1.08-.74 1.61-1.12a1.5 1.5 0 011.73 2.46l-1.64 1.14a1.49 1.49 0 01-.98.25zm-187.23-6.09a1.45 1.45 0 01-.92-.32l-1.57-1.24a1.5 1.5 0 111.88-2.34c.51.41 1 .82 1.54 1.22a1.51 1.51 0 01.25 2.11 1.47 1.47 0 01-1.31.56zm200.61-4.17a1.49 1.49 0 01-1.14-.52 1.5 1.5 0 01.17-2.12l1.48-1.28a1.5 1.5 0 112 2.26l-1.51 1.3a1.47 1.47 0 01-1.13.35zm-213.3-6.93a1.51 1.51 0 01-1-.42l-1.43-1.41a1.51 1.51 0 010-2.12 1.49 1.49 0 012.12 0l1.4 1.38a1.5 1.5 0 01-1 2.57zm225.52-4.68a1.5 1.5 0 01-1.09-2.53l1.35-1.44a1.5 1.5 0 112.2 2c-.45.49-.91 1-1.37 1.46a1.49 1.49 0 01-1.22.5zm-237-7.7a1.47 1.47 0 01-1.15-.54c-.43-.51-.85-1-1.28-1.55a1.5 1.5 0 012.34-1.88l1.24 1.51a1.49 1.49 0 01-1.15 2.46zm247.9-5.14a1.5 1.5 0 01-1.19-2.41l1.19-1.57a1.5 1.5 0 112.4 1.79l-1.2 1.6a1.51 1.51 0 01-1.3.58zm-258-8.38a1.48 1.48 0 01-1.24-.66c-.38-.56-.74-1.12-1.1-1.68a1.5 1.5 0 012.51-1.63l1.08 1.64a1.51 1.51 0 01-.41 2.08 1.52 1.52 0 01-.92.24zm267.49-5.55a1.49 1.49 0 01-.78-.22 1.5 1.5 0 01-.5-2.06c.34-.56.68-1.12 1-1.69a1.5 1.5 0 112.58 1.53c-.34.57-.68 1.15-1 1.72a1.5 1.5 0 01-1.38.71zm-276.07-9a1.5 1.5 0 01-1.33-.8c-.31-.59-.61-1.18-.91-1.78a1.5 1.5 0 012.68-1.35c.29.58.59 1.16.89 1.74a1.49 1.49 0 01-.64 2 1.41 1.41 0 01-.77.22zm284.05-5.9a1.61 1.61 0 01-.64-.14 1.51 1.51 0 01-.72-2c.28-.59.55-1.19.82-1.79a1.5 1.5 0 012.74 1.24l-.84 1.82a1.51 1.51 0 01-1.44.9zm-291-9.43a1.49 1.49 0 01-1.39-1l-.72-1.86a1.5 1.5 0 112.8-1.07c.24.62.47 1.23.71 1.84a1.51 1.51 0 01-1.4 2zm297.38-6.2a1.67 1.67 0 01-.49-.08 1.51 1.51 0 01-.93-1.91c.21-.62.43-1.25.63-1.87a1.5 1.5 0 112.85.94c-.21.64-.43 1.27-.64 1.9a1.51 1.51 0 01-1.54 1.05zm-302.68-9.81a1.49 1.49 0 01-1.45-1.1c-.17-.64-.35-1.29-.51-1.94a1.5 1.5 0 112.9-.75c.16.63.33 1.27.5 1.9a1.49 1.49 0 01-1.05 1.84 1.31 1.31 0 01-.51.08zM495.08 272a1.86 1.86 0 01-.33 0 1.5 1.5 0 01-1.13-1.8c.14-.64.29-1.28.43-1.92a1.5 1.5 0 011.78-1.15 1.51 1.51 0 011.15 1.79c-.14.65-.29 1.3-.44 1.95a1.5 1.5 0 01-1.46 1.13zM184.2 261.92a1.51 1.51 0 01-1.48-1.27l-.3-2a1.5 1.5 0 013-.44l.3 1.95a1.49 1.49 0 01-1.24 1.72zm313.8-6.56h-.18a1.49 1.49 0 01-1.31-1.66c.08-.65.15-1.3.22-2a1.5 1.5 0 113 .32c-.07.66-.14 1.33-.22 2a1.5 1.5 0 01-1.51 1.34zm-315.59-10.21a1.49 1.49 0 01-1.49-1.42c0-.66-.07-1.33-.1-2a1.5 1.5 0 013-.12l.09 2a1.5 1.5 0 01-1.42 1.58zM499 238.5a1.34 1.34 0 01-1.31-1.5c0-.65.19-1.29.19-1.94v-.35a1.5 1.5 0 113 0v.29c0 .68-.18 1.33-.19 2a1.65 1.65 0 01-1.69 1.5zm-316.6-10.21h-.08a1.5 1.5 0 01-1.42-1.58c0-.66.07-1.33.11-2a1.5 1.5 0 113 .18c0 .66-.08 1.31-.11 2a1.51 1.51 0 01-1.5 1.4zm315.93-6.94a1.51 1.51 0 01-1.49-1.36c-.06-.65-.13-1.3-.2-2a1.5 1.5 0 013-.33c.07.67.14 1.33.2 2a1.49 1.49 0 01-1.35 1.63zm-314.18-9.83a.93.93 0 01-.23 0 1.49 1.49 0 01-1.25-1.71q.15-1 .33-2a1.5 1.5 0 112.95.51c-.11.64-.21 1.29-.32 1.94a1.49 1.49 0 01-1.48 1.26zm311.7-6.84a1.51 1.51 0 01-1.47-1.21c-.13-.64-.27-1.28-.41-1.92a1.5 1.5 0 012.93-.64c.15.66.28 1.31.42 2a1.49 1.49 0 01-1.17 1.76 1.08 1.08 0 01-.3.01zM187.68 195a1.32 1.32 0 01-.39-.06 1.5 1.5 0 01-1.06-1.83l.54-1.94a1.5 1.5 0 112.88.83c-.17.63-.35 1.26-.52 1.89a1.5 1.5 0 01-1.45 1.11zm303.91-6.68a1.52 1.52 0 01-1.43-1c-.19-.63-.4-1.25-.6-1.87a1.5 1.5 0 112.84-.95c.21.63.42 1.27.62 1.9a1.5 1.5 0 01-1 1.89 1.47 1.47 0 01-.43.07zM193 179a1.47 1.47 0 01-.54-.1 1.5 1.5 0 01-.85-1.94c.24-.63.49-1.25.74-1.87a1.5 1.5 0 112.78 1.12c-.25.61-.49 1.22-.73 1.84a1.5 1.5 0 01-1.4.95zm292.67-6.42a1.51 1.51 0 01-1.38-.9c-.26-.59-.53-1.19-.8-1.78a1.5 1.5 0 012.73-1.25c.28.61.55 1.21.82 1.82a1.51 1.51 0 01-.77 2 1.41 1.41 0 01-.65.13zm-285.7-8.94a1.53 1.53 0 01-.69-.17 1.5 1.5 0 01-.64-2c.3-.59.62-1.18.93-1.77a1.5 1.5 0 112.65 1.41c-.31.58-.62 1.16-.92 1.75a1.51 1.51 0 01-1.38.8zM478 157.57a1.51 1.51 0 01-1.3-.75c-.32-.57-.65-1.13-1-1.7a1.5 1.5 0 012.58-1.53c.34.58.68 1.15 1 1.73a1.49 1.49 0 01-.55 2.05 1.53 1.53 0 01-.73.2zm-269.52-8.45a1.46 1.46 0 01-.82-.25 1.5 1.5 0 01-.42-2.08c.36-.56.74-1.11 1.11-1.66a1.5 1.5 0 112.48 1.69c-.37.54-.73 1.08-1.09 1.63a1.52 1.52 0 01-1.27.67zm260.34-5.69a1.48 1.48 0 01-1.21-.62c-.38-.53-.77-1.05-1.16-1.58a1.5 1.5 0 112.4-1.79c.4.53.79 1.07 1.19 1.61a1.5 1.5 0 01-.33 2.09 1.48 1.48 0 01-.9.29zm-250.28-7.85a1.51 1.51 0 01-1-.35 1.49 1.49 0 01-.2-2.11l1.29-1.54a1.5 1.5 0 112.29 1.95l-1.27 1.5a1.48 1.48 0 01-1.12.55zm239.65-5.24a1.5 1.5 0 01-1.11-.49c-.44-.49-.88-1-1.33-1.45a1.5 1.5 0 012.2-2c.46.49.91 1 1.36 1.48a1.49 1.49 0 01-.11 2.11 1.51 1.51 0 01-1.02.35zM230 123.18a1.51 1.51 0 01-1.07-.46 1.49 1.49 0 010-2.12l1.44-1.39a1.5 1.5 0 012.07 2.17l-1.44 1.37a1.52 1.52 0 01-1 .43zm216.28-4.73a1.52 1.52 0 01-1-.38l-1.47-1.3a1.5 1.5 0 112-2.27l1.5 1.33a1.5 1.5 0 01-1 2.62zm-203.6-6.4a1.47 1.47 0 01-1.18-.57 1.51 1.51 0 01.25-2.11l1.58-1.23a1.5 1.5 0 011.82 2.38l-1.54 1.21a1.5 1.5 0 01-.98.32zm190.45-4.16a1.51 1.51 0 01-.87-.29l-1.61-1.14a1.5 1.5 0 111.73-2.45l1.63 1.16a1.5 1.5 0 01-.88 2.72zm-176.73-5.56a1.52 1.52 0 01-1.27-.7 1.5 1.5 0 01.48-2.07l1.69-1a1.5 1.5 0 111.57 2.56l-1.67 1a1.46 1.46 0 01-.8.21zm162.49-3.56a1.54 1.54 0 01-.74-.19l-1.71-1a1.5 1.5 0 111.45-2.58l1.75 1a1.5 1.5 0 01-.75 2.8zm-147.76-4.64a1.5 1.5 0 01-.66-2.84q.9-.45 1.8-.87a1.5 1.5 0 111.28 2.71l-1.76.85a1.55 1.55 0 01-.66.15zm132.68-2.91a1.61 1.61 0 01-.6-.12l-1.81-.78a1.5 1.5 0 011.16-2.76l1.85.79a1.5 1.5 0 01-.6 2.87zm-117.16-3.67a1.5 1.5 0 01-.52-2.91L288 84a1.5 1.5 0 111 2.83l-1.85.66a1.52 1.52 0 01-.5.06zM388 85.33a1.76 1.76 0 01-.45-.07l-1.88-.58a1.5 1.5 0 11.86-2.87l1.91.59a1.5 1.5 0 01-.44 2.93zm-85.23-2.66a1.5 1.5 0 01-.36-3l1.95-.46a1.5 1.5 0 01.68 2.92l-1.91.45a1.49 1.49 0 01-.35.09zm68.89-1.51a1.36 1.36 0 01-.29 0l-1.94-.37a1.5 1.5 0 01.55-3l2 .38a1.5 1.5 0 01-.29 3zm-52.32-1.62a1.5 1.5 0 01-.2-3l2-.25a1.5 1.5 0 11.36 3l-1.95.25zm35.66-.78h-.13l-2-.17a1.5 1.5 0 01.23-3l2 .17a1.5 1.5 0 01-.14 3zm-18.83-.26a1.65 1.65 0 01-1.5-1.62 1.57 1.57 0 011.46-1.62c.67 0 1.33-.07 2-.08a1.47 1.47 0 011.52 1.46 1.64 1.64 0 01-1.47 1.67c-.66 0-1.31.19-2 .19z"/><circle class="cls-1" cx="340.62" cy="235.06" r="114.31" transform="rotate(-45 340.621 235.05)" opacity=".2"/><path class="cls-3" d="M340.62 344.77a109.72 109.72 0 010-219.43 2.5 2.5 0 010 5 104.72 104.72 0 10104.71 104.72 2.5 2.5 0 015 0 109.83 109.83 0 01-109.71 109.71z"/><path class="cls-3" d="M210.82 195.94a9.16 9.16 0 01-3.15-.57 9 9 0 01-5.28-11.58 147.64 147.64 0 01190-86.63 9 9 0 01-6.3 16.86c-67-25-141.79 9.11-166.81 76.07a9 9 0 01-8.46 5.85z"/><g class="cls-4"><path class="cls-1" d="M461.74 184c-16 0-39.9-1.33-39.9-5s23.86-5 39.9-5 39.9 1.33 39.9 5-23.86 5-39.9 5zm0-9c-25.54 0-38.9 2.6-38.9 4s13.36 4 38.9 4 38.9-2.6 38.9-4-13.36-4-38.9-4z"/></g><g class="cls-4"><path class="cls-1" d="M442.6 213.84a1 1 0 01-.54-.16c-.55-.31-2-1.14 2.71-12.24a259.89 259.89 0 0112.62-24.94c7.92-13.95 20.84-34.06 24-32.24.54.31 2 1.13-2.72 12.23a259.89 259.89 0 01-12.62 24.94 260 260 0 01-14.92 23.63c-5.5 7.61-7.61 8.78-8.53 8.78zm38.19-68.75c-1.63 0-10.32 10.38-22.53 31.91a261.29 261.29 0 00-12.57 24.83c-4.25 10-3.15 11-3.14 11s1.41.45 7.81-8.33a260.35 260.35 0 0014.85-23.54 257.81 257.81 0 0012.57-24.84c4.25-10 3.16-11 3.14-11a.28.28 0 00-.13-.03z"/></g><g class="cls-4"><path class="cls-1" d="M480.87 213.84c-.92 0-3-1.17-8.56-8.78a260 260 0 01-14.92-23.63 259.89 259.89 0 01-12.62-24.94c-4.72-11.1-3.26-11.92-2.71-12.23 3.19-1.81 16.11 18.29 24 32.24a259.89 259.89 0 0112.62 24.94c4.72 11.1 3.26 11.93 2.71 12.24a1 1 0 01-.52.16zm-38.32-68.71s-1.1 1 3.14 11a260.15 260.15 0 0012.57 24.84 260.21 260.21 0 0014.86 23.54c6.39 8.78 7.8 8.34 7.8 8.33s1.11-1-3.14-11A258.94 258.94 0 00465.21 177c-12.6-22.22-21.44-32.55-22.66-31.87z"/></g><g class="cls-5"><path class="cls-3" d="M473.12 179a11.39 11.39 0 11-11.38-11.39A11.37 11.37 0 01473.12 179z"/></g><path class="cls-1" d="M461.74 208.18A29.22 29.22 0 11491 179a29.25 29.25 0 01-29.26 29.18zm0-57.43A28.22 28.22 0 10490 179a28.25 28.25 0 00-28.26-28.25zM518.38 357.5c-.67 0-1.34-.2-2-.21a1.58 1.58 0 01-1.46-1.63 1.53 1.53 0 011.54-1.5h2a1.67 1.67 0 010 3.32zm4 0a1.67 1.67 0 01-1.5-1.65 1.58 1.58 0 011.47-1.62c.66 0 1.31-.08 2-.1a1.46 1.46 0 011.56 1.42 1.66 1.66 0 01-1.44 1.72c-.67 0-1.34.23-2 .23zm-10-.56h-.09l-2-.14a1.51 1.51 0 01-1.38-1.61 1.49 1.49 0 011.62-1.38l2 .13a1.5 1.5 0 01-.09 3zm15.92-.07a1.5 1.5 0 01-.11-3c.66 0 1.31-.09 2-.15a1.52 1.52 0 011.62 1.37 1.5 1.5 0 01-1.37 1.62l-2 .15zm-21.87-.44h-.17l-2-.23a1.5 1.5 0 01.37-3l2 .23a1.5 1.5 0 01-.16 3zm27.81-.12a1.5 1.5 0 01-.17-3l1.95-.25a1.5 1.5 0 11.4 3l-2 .26zm-33.74-.68a1.06 1.06 0 01-.24 0l-2-.33a1.5 1.5 0 11.52-3c.65.12 1.29.23 1.94.33a1.5 1.5 0 01-.24 3zm39.66-.18a1.5 1.5 0 01-.25-3l1.94-.34a1.5 1.5 0 11.55 2.95l-2 .35a1.06 1.06 0 01-.21.04zm-45.53-.91a1.63 1.63 0 01-.31 0l-2-.44a1.5 1.5 0 11.67-2.92l1.92.42a1.5 1.5 0 01-.31 3zm51.39-.23a1.5 1.5 0 01-.32-3l1.92-.44a1.5 1.5 0 01.7 2.92c-.66.16-1.31.31-2 .45a1.24 1.24 0 01-.27.07zm-57.2-1.16a1.31 1.31 0 01-.39 0l-1.94-.53a1.5 1.5 0 11.81-2.88l1.9.51a1.5 1.5 0 01-.38 2.95zm63-.28a1.5 1.5 0 01-.39-2.95l1.89-.53a1.5 1.5 0 11.84 2.88l-1.94.55a1.83 1.83 0 01-.37.05zm-68.74-1.39a1.47 1.47 0 01-.46-.07l-1.92-.63a1.5 1.5 0 011-2.84l1.87.61a1.5 1.5 0 01-.45 2.93zm74.47-.33a1.5 1.5 0 01-.47-2.93l1.86-.63a1.5 1.5 0 011 2.84l-1.91.64a1.6 1.6 0 01-.45.08zm-80.14-1.63a1.37 1.37 0 01-.52-.1q-1-.35-1.89-.72a1.5 1.5 0 111.1-2.79l1.84.71a1.5 1.5 0 01-.53 2.9zm85.77-.38a1.5 1.5 0 01-.54-2.9l1.83-.72a1.5 1.5 0 011.12 2.78l-1.88.74a1.39 1.39 0 01-.5.1zm-91.32-1.86a1.41 1.41 0 01-.6-.13c-.62-.26-1.24-.54-1.85-.81a1.5 1.5 0 111.24-2.74l1.8.8a1.5 1.5 0 01-.59 2.88zm96.83-.42a1.5 1.5 0 01-.61-2.87c.6-.26 1.19-.53 1.78-.81a1.5 1.5 0 111.26 2.72c-.6.28-1.21.56-1.83.83a1.41 1.41 0 01-.57.13zm-102.27-2.1a1.55 1.55 0 01-.66-.15l-1.76-.91a1.5 1.5 0 011.37-2.67l1.76.89a1.49 1.49 0 01-.66 2.84zm107.65-.45a1.49 1.49 0 01-1.34-.82 1.51 1.51 0 01.67-2l1.74-.89a1.5 1.5 0 111.4 2.65c-.6.32-1.2.62-1.79.92a1.51 1.51 0 01-.65.14zm-113-2.33a1.47 1.47 0 01-.73-.19l-1.76-1a1.5 1.5 0 111.5-2.59l1.72 1a1.5 1.5 0 01-.73 2.81zm118.21-.48a1.5 1.5 0 01-.74-2.8l1.7-1a1.5 1.5 0 011.52 2.59l-1.74 1a1.54 1.54 0 01-.66.21zM456 338.94a1.45 1.45 0 01-.79-.23q-.85-.52-1.71-1.08a1.5 1.5 0 011.63-2.52l1.67 1.06a1.5 1.5 0 01-.8 2.77zm128.48-.51a1.5 1.5 0 01-.8-2.77l1.65-1.06a1.5 1.5 0 011.65 2.5l-1.7 1.1a1.43 1.43 0 01-.81.23zM451 335.65a1.5 1.5 0 01-.85-.27l-1.65-1.16a1.5 1.5 0 011.75-2.44c.53.39 1.07.76 1.61 1.14a1.5 1.5 0 01-.86 2.73zm138.44-.54a1.5 1.5 0 01-.87-2.73c.54-.37 1.07-.76 1.6-1.14a1.5 1.5 0 011.77 2.42c-.54.4-1.09.79-1.64 1.18a1.51 1.51 0 01-.87.27zm-143.26-3a1.52 1.52 0 01-.92-.31l-1.58-1.25a1.5 1.5 0 111.87-2.34c.51.41 1 .81 1.55 1.21a1.5 1.5 0 01-.92 2.69zm148.05-.57a1.5 1.5 0 01-.93-2.68l1.54-1.23a1.5 1.5 0 011.89 2.34l-1.58 1.25a1.51 1.51 0 01-.93.33zm-152.7-3.19a1.5 1.5 0 01-1-.36l-1.53-1.31a1.49 1.49 0 01-.14-2.12 1.51 1.51 0 012.12-.14c.49.44 1 .87 1.49 1.29a1.5 1.5 0 01-1 2.65zm157.31-.61a1.5 1.5 0 01-1-2.63l1.47-1.3a1.5 1.5 0 012 2.24l-1.51 1.33a1.5 1.5 0 01-.97.37zm-161.76-3.38a1.51 1.51 0 01-1-.41l-1.45-1.39a1.5 1.5 0 012.09-2.15l1.42 1.36a1.5 1.5 0 01-1 2.59zm166.18-.63a1.5 1.5 0 01-1-2.59c.48-.45.95-.91 1.41-1.37a1.5 1.5 0 012.11 2.14c-.48.47-1 .94-1.45 1.4a1.48 1.48 0 01-1.08.43zm-170.43-3.57a1.49 1.49 0 01-1.08-.46c-.47-.48-.93-1-1.39-1.46a1.5 1.5 0 012.2-2.05c.44.48.9 1 1.35 1.43a1.5 1.5 0 01-1.08 2.54zm174.65-.66a1.51 1.51 0 01-1.09-2.54c.45-.47.9-1 1.34-1.44a1.5 1.5 0 112.21 2c-.45.5-.91 1-1.38 1.48a1.49 1.49 0 01-1.09.51zm-178.69-3.74a1.5 1.5 0 01-1.13-.52c-.44-.5-.88-1-1.31-1.52a1.5 1.5 0 112.29-1.94c.42.5.85 1 1.28 1.49a1.5 1.5 0 01-1.13 2.49zm182.69-.7a1.54 1.54 0 01-1-.36 1.5 1.5 0 01-.15-2.12l1.27-1.5a1.5 1.5 0 012.3 1.92c-.43.52-.86 1-1.3 1.54a1.52 1.52 0 01-1.13.53zM425 311.17a1.5 1.5 0 01-1.18-.57q-.63-.78-1.23-1.59a1.49 1.49 0 01.28-2.1 1.51 1.51 0 012.1.28l1.21 1.56a1.49 1.49 0 01-1.18 2.42zm190.29-.73a1.48 1.48 0 01-.92-.31 1.51 1.51 0 01-.27-2.11c.41-.52.8-1 1.2-1.56a1.5 1.5 0 012.4 1.8l-1.23 1.6a1.49 1.49 0 01-1.21.58zm-193.87-4a1.52 1.52 0 01-1.23-.63c-.39-.54-.77-1.09-1.15-1.65a1.5 1.5 0 012.47-1.7c.37.54.75 1.08 1.13 1.61a1.5 1.5 0 01-1.22 2.37zm197.42-.77a1.5 1.5 0 01-1.23-2.36l1.12-1.62a1.5 1.5 0 012.48 1.68c-.37.56-.76 1.11-1.14 1.66a1.49 1.49 0 01-1.26.6zM418 301.46a1.52 1.52 0 01-1.26-.69c-.36-.57-.72-1.13-1.07-1.7a1.5 1.5 0 112.55-1.58l1 1.66a1.5 1.5 0 01-1.26 2.31zm204.08-.81a1.48 1.48 0 01-.8-.23 1.5 1.5 0 01-.47-2.07c.35-.55.7-1.11 1-1.68a1.5 1.5 0 112.56 1.56c-.35.58-.7 1.15-1.06 1.72a1.49 1.49 0 01-1.19.7zM415 296.36a1.49 1.49 0 01-1.3-.75c-.34-.59-.67-1.17-1-1.76a1.5 1.5 0 012.63-1.45q.46.87 1 1.71a1.5 1.5 0 01-.56 2.05 1.42 1.42 0 01-.77.2zm210.24-.85a1.5 1.5 0 01-1.31-2.24c.32-.57.64-1.14 1-1.72a1.5 1.5 0 112.64 1.43c-.32.59-.65 1.18-1 1.77a1.5 1.5 0 01-1.38.76zm-213.08-4.39a1.52 1.52 0 01-1.34-.82c-.3-.6-.6-1.2-.89-1.8a1.5 1.5 0 112.69-1.32c.29.59.58 1.17.88 1.75a1.52 1.52 0 01-1.34 2.19zm215.88-.9a1.5 1.5 0 01-1.34-2.17l.87-1.77a1.5 1.5 0 112.7 1.29c-.29.61-.58 1.22-.89 1.82a1.49 1.49 0 01-1.38.83zm-218.45-4.48a1.5 1.5 0 01-1.37-.89l-.81-1.84a1.5 1.5 0 112.76-1.18c.26.6.52 1.2.79 1.8a1.5 1.5 0 01-1.37 2.11zm221-.94a1.44 1.44 0 01-.6-.13 1.5 1.5 0 01-.77-2c.26-.61.52-1.21.77-1.82a1.5 1.5 0 012.71 1.15c-.26.62-.52 1.24-.79 1.86a1.51 1.51 0 01-1.38.94zm-223.29-4.55a1.5 1.5 0 01-1.4-1l-.72-1.88a1.5 1.5 0 012.81-1.05c.23.62.47 1.23.7 1.84a1.51 1.51 0 01-.85 1.95 1.47 1.47 0 01-.6.14zm225.56-1a1.39 1.39 0 01-.53-.1 1.49 1.49 0 01-.87-1.93c.23-.62.46-1.23.68-1.85a1.5 1.5 0 012.82 1c-.22.63-.46 1.26-.7 1.89a1.51 1.51 0 01-1.46.99zm-227.6-4.62a1.51 1.51 0 01-1.42-1c-.21-.63-.42-1.27-.62-1.91a1.5 1.5 0 112.86-.91c.2.63.4 1.25.61 1.87a1.5 1.5 0 01-.95 1.9 1.61 1.61 0 01-.54.05zm229.59-1a1.52 1.52 0 01-1.43-2c.2-.62.4-1.25.59-1.88a1.51 1.51 0 011.88-1 1.5 1.5 0 011 1.88c-.2.64-.4 1.29-.61 1.93a1.5 1.5 0 01-1.49 1.04zm-231.34-4.68a1.5 1.5 0 01-1.44-1.1c-.18-.65-.36-1.3-.53-1.95a1.5 1.5 0 012.91-.76c.16.64.33 1.27.51 1.9a1.5 1.5 0 01-1 1.85 1.45 1.45 0 01-.51.03zm233-1.06a1.74 1.74 0 01-.39-.05A1.5 1.5 0 01635 266c.17-.64.34-1.27.49-1.91a1.51 1.51 0 011.83-1.08 1.49 1.49 0 011.08 1.82c-.16.65-.33 1.3-.5 1.95a1.5 1.5 0 01-1.41 1.08zM402 263.12a1.49 1.49 0 01-1.46-1.17c-.15-.65-.29-1.31-.43-2a1.5 1.5 0 012.94-.61c.13.64.27 1.28.41 1.92a1.5 1.5 0 01-1.13 1.8 1.84 1.84 0 01-.33.06zm235.91-1.07a1.73 1.73 0 01-.32 0 1.51 1.51 0 01-1.15-1.79c.14-.64.27-1.28.4-1.92a1.51 1.51 0 011.77-1.18 1.49 1.49 0 011.17 1.76c-.13.66-.26 1.32-.41 2a1.49 1.49 0 01-1.47 1.13zm-237.08-4.79a1.5 1.5 0 01-1.48-1.24c-.12-.66-.23-1.32-.33-2a1.5 1.5 0 113-.46c.1.64.21 1.29.32 1.94a1.49 1.49 0 01-1.21 1.73 1.18 1.18 0 01-.31.03zM639 256.18h-.25a1.49 1.49 0 01-1.23-1.72c.1-.65.21-1.3.3-1.95a1.5 1.5 0 013 .44c-.1.67-.2 1.33-.31 2a1.5 1.5 0 01-1.51 1.23zm-239.09-4.83a1.49 1.49 0 01-1.48-1.31c-.08-.67-.16-1.34-.23-2a1.5 1.5 0 113-.33c.07.66.14 1.31.22 2a1.49 1.49 0 01-1.3 1.67zm239.92-1.09h-.17a1.5 1.5 0 01-1.33-1.66q.12-1 .21-2a1.5 1.5 0 113 .29l-.21 2a1.5 1.5 0 01-1.48 1.37zm-240.5-4.85a1.5 1.5 0 01-1.5-1.39c-.05-.67-.09-1.34-.13-2a1.5 1.5 0 113-.18c0 .66.09 1.31.13 2a1.5 1.5 0 01-1.38 1.6zm241-1.1h-.1a1.5 1.5 0 01-1.4-1.59c0-.66.08-1.31.11-2a1.48 1.48 0 011.57-1.42 1.5 1.5 0 011.49 1.6c0 .67-.07 1.34-.11 2a1.5 1.5 0 01-1.51 1.41zm-241.28-4.81a1.53 1.53 0 01-1.5-1.49v-2a1.48 1.48 0 011.48-1.5 1.48 1.48 0 011.5 1.46v2a1.5 1.5 0 01-1.46 1.56zm241.57-1c-.83 0-1.11-.78-1.09-1.61 0-.65.4-1.38.4-2v-.21a1.5 1.5 0 013 0v.21c0 .67-.39 1.42-.4 2.09a2 2 0 01-1.91 1.52zm-241.57-5a1.51 1.51 0 01-1.46-1.55l.06-2a1.5 1.5 0 013 .12c0 .65-.05 1.32-.06 2a1.52 1.52 0 01-1.54 1.43zm241.52-1a1.66 1.66 0 01-1.5-1.62c0-.66-.05-1.4-.09-2a1.54 1.54 0 011.43-1.62 1.48 1.48 0 011.57 1.4c0 .67.06 1.5.09 2.17a1.64 1.64 0 01-1.45 1.72zm-241.23-5h-.11a1.49 1.49 0 01-1.39-1.6c.05-.67.1-1.34.16-2a1.5 1.5 0 013 .26c-.06.66-.11 1.31-.16 2a1.5 1.5 0 01-1.5 1.34zm240.87-1.31a1.5 1.5 0 01-1.49-1.37c-.05-.66-.11-1.31-.18-2a1.5 1.5 0 013-.29l.18 2a1.5 1.5 0 01-1.37 1.62zm-240.3-4.64h-.18a1.5 1.5 0 01-1.31-1.67c.08-.67.17-1.34.26-2a1.5 1.5 0 013 .41c-.09.65-.18 1.3-.26 1.95a1.5 1.5 0 01-1.51 1.31zm239.66-1.3a1.5 1.5 0 01-1.48-1.3c-.09-.65-.18-1.3-.28-1.95a1.5 1.5 0 013-.45c.1.67.19 1.33.28 2a1.51 1.51 0 01-1.29 1.69zm-238.79-4.61h-.25a1.51 1.51 0 01-1.23-1.74l.36-2a1.5 1.5 0 112.95.56c-.12.64-.24 1.29-.35 1.93a1.51 1.51 0 01-1.48 1.25zm237.86-1.29a1.52 1.52 0 01-1.48-1.23c-.12-.65-.24-1.29-.37-1.93a1.5 1.5 0 112.94-.59c.13.66.26 1.32.38 2a1.5 1.5 0 01-1.2 1.74 1.24 1.24 0 01-.27.01zM402 209.78a1.24 1.24 0 01-.33 0 1.5 1.5 0 01-1.14-1.79c.15-.66.3-1.31.46-2a1.5 1.5 0 012.92.71c-.16.64-.31 1.27-.45 1.92a1.51 1.51 0 01-1.46 1.16zm235.46-1.28a1.49 1.49 0 01-1.46-1.16c-.15-.63-.3-1.27-.47-1.91a1.5 1.5 0 112.91-.73c.17.65.33 1.3.48 2a1.5 1.5 0 01-1.11 1.8 1.45 1.45 0 01-.4 0zM403.4 204a1.83 1.83 0 01-.4 0 1.51 1.51 0 01-1.05-1.85c.18-.65.37-1.29.56-1.94a1.5 1.5 0 012.88.85q-.28.94-.54 1.89a1.5 1.5 0 01-1.45 1.05zm232.49-1.26a1.51 1.51 0 01-1.44-1.08c-.18-.63-.37-1.26-.56-1.89a1.5 1.5 0 012.87-.88c.2.64.39 1.29.58 1.93a1.5 1.5 0 01-1 1.86 1.52 1.52 0 01-.45.04zm-230.75-4.45a1.51 1.51 0 01-1.42-2c.21-.64.43-1.28.65-1.92a1.51 1.51 0 011.92-.91 1.49 1.49 0 01.91 1.91c-.22.62-.43 1.24-.64 1.87a1.5 1.5 0 01-1.42 1.03zm229-1.25a1.51 1.51 0 01-1.42-1c-.21-.62-.43-1.24-.65-1.85a1.5 1.5 0 012.82-1c.23.64.45 1.27.67 1.91a1.5 1.5 0 01-.93 1.9 1.4 1.4 0 01-.54 0zm-226.92-4.39a1.52 1.52 0 01-1.4-2l.75-1.88a1.5 1.5 0 112.78 1.14c-.25.6-.49 1.21-.73 1.83a1.51 1.51 0 01-1.45.89zM632 191.42a1.5 1.5 0 01-1.4-.94c-.24-.6-.49-1.21-.74-1.81a1.5 1.5 0 012.77-1.16 80 80 0 01.76 1.86 1.51 1.51 0 01-.83 1.95 1.62 1.62 0 01-.56.1zm-222.52-4.32a1.47 1.47 0 01-.61-.14 1.49 1.49 0 01-.76-2c.27-.61.55-1.23.84-1.84a1.5 1.5 0 012.72 1.27c-.28.6-.55 1.2-.82 1.8a1.52 1.52 0 01-1.37.91zm220.18-1.1a1.5 1.5 0 01-1.37-.87c-.27-.6-.55-1.19-.83-1.78a1.5 1.5 0 112.7-1.29c.29.6.58 1.21.86 1.82a1.51 1.51 0 01-.74 2 1.53 1.53 0 01-.62.12zm-217.6-4.26a1.5 1.5 0 01-1.34-2.18l.93-1.79a1.5 1.5 0 112.65 1.4c-.3.58-.61 1.16-.9 1.75a1.52 1.52 0 01-1.34.77zm215-1.09a1.5 1.5 0 01-1.33-.8c-.3-.59-.61-1.16-.92-1.74a1.5 1.5 0 012.64-1.43c.32.59.63 1.18.94 1.78a1.49 1.49 0 01-.63 2 1.48 1.48 0 01-.76.14zm-212.16-4.23a1.42 1.42 0 01-.74-.2 1.49 1.49 0 01-.56-2c.34-.59.67-1.17 1-1.75a1.5 1.5 0 012.6 1.53c-.34.57-.67 1.14-1 1.71a1.49 1.49 0 01-1.3.71zm209.25-1a1.49 1.49 0 01-1.3-.74c-.33-.56-.66-1.13-1-1.68a1.5 1.5 0 112.56-1.56c.35.57.69 1.15 1 1.73a1.49 1.49 0 01-1.29 2.25zM418 171.3a1.49 1.49 0 01-1.26-2.3c.36-.57.73-1.14 1.1-1.7a1.5 1.5 0 012.5 1.66c-.36.55-.72 1.1-1.07 1.65a1.5 1.5 0 01-1.27.69zm203-1a1.51 1.51 0 01-1.26-.68c-.36-.54-.72-1.09-1.09-1.63a1.5 1.5 0 012.49-1.68c.37.55.75 1.11 1.11 1.67a1.5 1.5 0 01-.43 2.08 1.53 1.53 0 01-.82.25zm-199.66-4a1.5 1.5 0 01-1.22-2.37c.39-.55.79-1.1 1.19-1.64a1.5 1.5 0 012.41 1.78c-.39.53-.78 1.06-1.16 1.6a1.49 1.49 0 01-1.21.68zm196.27-.95a1.51 1.51 0 01-1.22-.62c-.38-.53-.77-1.05-1.16-1.58a1.5 1.5 0 01.29-2.1 1.52 1.52 0 012.11.3l1.19 1.62a1.49 1.49 0 01-.33 2.09 1.45 1.45 0 01-.87.34zm-192.68-3.84a1.48 1.48 0 01-.93-.32 1.51 1.51 0 01-.25-2.11l1.26-1.57a1.5 1.5 0 012.33 1.9c-.41.51-.83 1-1.23 1.53a1.5 1.5 0 01-1.17.62zm189.05-.9a1.5 1.5 0 01-1.17-.56c-.41-.51-.82-1-1.24-1.52a1.5 1.5 0 112.3-1.92l1.28 1.56a1.5 1.5 0 01-.23 2.11 1.52 1.52 0 01-.92.38zM428.76 157a1.51 1.51 0 01-1-.37 1.49 1.49 0 01-.14-2.11c.44-.51.89-1 1.34-1.51a1.5 1.5 0 112.22 2c-.44.48-.87 1-1.3 1.47a1.49 1.49 0 01-1.12.52zm181.38-.86a1.52 1.52 0 01-1.13-.5c-.43-.49-.87-1-1.32-1.46a1.5 1.5 0 112.21-2c.46.49.91 1 1.36 1.5a1.49 1.49 0 01-.13 2.11 1.47 1.47 0 01-.99.31zm-177.34-3.58a1.5 1.5 0 01-1.08-2.54q.69-.74 1.41-1.44a1.5 1.5 0 112.12 2.11l-1.37 1.41a1.53 1.53 0 01-1.08.46zm173.26-.82a1.48 1.48 0 01-1.07-.45l-1.39-1.4a1.5 1.5 0 112.1-2.13l1.43 1.43a1.5 1.5 0 010 2.12 1.52 1.52 0 01-1.07.43zm-169-3.38a1.53 1.53 0 01-1.1-.47 1.51 1.51 0 01.07-2.13l1.48-1.36a1.5 1.5 0 112 2.21c-.49.44-1 .89-1.45 1.34a1.51 1.51 0 01-1.01.41zm164.72-.78a1.53 1.53 0 01-1-.4c-.48-.45-1-.89-1.46-1.32a1.5 1.5 0 012-2.24l1.5 1.35a1.51 1.51 0 01-1 2.61zm-160.28-3.21a1.5 1.5 0 01-1-2.64c.51-.44 1-.87 1.55-1.29a1.5 1.5 0 012.11.2 1.51 1.51 0 01-.2 2.11l-1.49 1.25a1.5 1.5 0 01-.97.37zm155.78-.74a1.46 1.46 0 01-1-.35L594.8 142a1.5 1.5 0 111.88-2.33c.53.42 1 .85 1.56 1.28a1.5 1.5 0 01-1 2.65zm-151.15-3a1.5 1.5 0 01-.91-2.69l1.6-1.21a1.5 1.5 0 111.79 2.4l-1.56 1.19a1.52 1.52 0 01-.92.29zm146.47-.7a1.53 1.53 0 01-.91-.3c-.52-.4-1.05-.79-1.58-1.18a1.5 1.5 0 011.77-2.42c.55.39 1.09.8 1.62 1.2a1.5 1.5 0 01-.9 2.7zM451 137.09a1.51 1.51 0 01-.86-2.74l1.67-1.13a1.49 1.49 0 012.08.41 1.51 1.51 0 01-.41 2.08c-.55.36-1.09.73-1.63 1.11a1.5 1.5 0 01-.85.27zm136.79-.67a1.44 1.44 0 01-.84-.26l-1.64-1.09a1.5 1.5 0 011.64-2.51c.57.37 1.13.74 1.68 1.12a1.5 1.5 0 01-.84 2.74zm-131.86-2.62a1.5 1.5 0 01-.8-2.77c.57-.36 1.14-.71 1.72-1.05a1.5 1.5 0 011.55 2.57l-1.68 1a1.42 1.42 0 01-.79.25zm126.78-.62a1.49 1.49 0 01-.78-.22c-.56-.35-1.12-.68-1.69-1a1.5 1.5 0 011.52-2.58l1.73 1a1.5 1.5 0 01-.78 2.78zm-121.65-2.41a1.5 1.5 0 01-.73-2.81l1.77-1a1.5 1.5 0 011.42 2.65c-.58.31-1.16.62-1.73.94a1.47 1.47 0 01-.73.22zm116.47-.58a1.44 1.44 0 01-.72-.19l-1.74-.93a1.5 1.5 0 111.39-2.65l1.79 1a1.5 1.5 0 01-.72 2.82zM466.34 128a1.5 1.5 0 01-.66-2.84c.59-.3 1.2-.59 1.8-.88a1.5 1.5 0 012 .72 1.49 1.49 0 01-.71 2l-1.76.86a1.59 1.59 0 01-.67.14zm105.86-.54a1.38 1.38 0 01-.65-.15l-1.78-.84a1.5 1.5 0 111.25-2.72c.62.28 1.23.57 1.83.86a1.5 1.5 0 01.7 2 1.48 1.48 0 01-1.35.84zm-100.45-2a1.5 1.5 0 01-.6-2.88c.61-.27 1.23-.53 1.85-.78a1.5 1.5 0 012 .81 1.51 1.51 0 01-.81 2l-1.81.76a1.4 1.4 0 01-.63.12zm95-.5a1.51 1.51 0 01-.58-.12q-.92-.39-1.83-.75a1.5 1.5 0 111.12-2.78c.63.25 1.25.5 1.87.77a1.5 1.5 0 01-.58 2.88zm-89.48-1.74a1.5 1.5 0 01-.53-2.9l1.9-.7a1.5 1.5 0 111 2.83l-1.85.67a1.39 1.39 0 01-.53.13zm83.9-.45a1.52 1.52 0 01-.51-.09l-1.86-.66a1.5 1.5 0 111-2.84l1.91.68a1.5 1.5 0 01-.52 2.91zm-78.25-1.51a1.5 1.5 0 01-.46-2.93c.64-.21 1.28-.41 1.93-.6a1.5 1.5 0 01.86 2.87l-1.88.58a1.42 1.42 0 01-.46.11zm72.57-.4a1.35 1.35 0 01-.44-.07l-1.89-.56a1.5 1.5 0 11.84-2.88c.65.18 1.29.38 1.93.57a1.5 1.5 0 01-.44 2.94zm-66.84-1.29a1.5 1.5 0 01-.39-2.95l2-.5a1.5 1.5 0 01.72 2.91l-1.9.49a1.31 1.31 0 01-.44.08zm61.09-.33a1.57 1.57 0 01-.37 0l-1.91-.47a1.5 1.5 0 11.69-2.92l2 .49a1.5 1.5 0 01-.37 3zm-55.28-1.06a1.5 1.5 0 01-.31-3l2-.4a1.5 1.5 0 01.58 2.94l-1.93.4a1.63 1.63 0 01-.35.09zm49.45-.27a1.53 1.53 0 01-.3 0l-1.93-.37a1.51 1.51 0 01-1.2-1.75 1.49 1.49 0 011.75-1.2l2 .38a1.5 1.5 0 01-.3 3zm-43.58-.83a1.5 1.5 0 01-.24-3l2-.31a1.5 1.5 0 01.43 3q-1 .13-1.95.3zm37.7-.21a.93.93 0 01-.23 0c-.64-.09-1.29-.19-1.94-.27a1.5 1.5 0 01.39-3l2 .29a1.5 1.5 0 01-.22 3zm-31.78-.6a1.5 1.5 0 01-.16-3l2-.2a1.5 1.5 0 11.29 3c-.66.07-1.31.13-2 .21zm25.85-.15h-.15c-.65-.07-1.3-.13-2-.18a1.5 1.5 0 11.25-3q1 .08 2 .18a1.5 1.5 0 01-.15 3zm-19.9-.37a1.5 1.5 0 01-.09-3l2-.11a1.47 1.47 0 011.56 1.43 1.5 1.5 0 01-1.43 1.57l-2 .1zm13.94-.08h-.07l-2-.09a1.5 1.5 0 11.1-3l2 .08a1.5 1.5 0 01-.08 3zm-8-.2a1.48 1.48 0 01-1.5-1.46 1.51 1.51 0 011.48-1.53h2a1.5 1.5 0 010 3h-2z"/><path class="cls-3" d="M519.82 366.57c-72.63 0-131.72-59.09-131.72-131.72s59.09-131.72 131.72-131.72 131.73 59.09 131.73 131.72a.5.5 0 01-.5.5.5.5 0 01-.5-.5c0-72.08-58.65-130.72-130.73-130.72a130.72 130.72 0 000 261.44.5.5 0 01.5.5.5.5 0 01-.5.5z"/><g class="cls-6"><path class="cls-1" d="M519.82 381.07a.5.5 0 01-.5-.5.51.51 0 01.5-.5c80.08 0 145.23-65.14 145.23-145.22S599.9 89.63 519.82 89.63a.5.5 0 010-1c80.63 0 146.23 65.59 146.23 146.22s-65.6 146.22-146.23 146.22z"/></g><path class="cls-1" d="M519.82 375.84a.5.5 0 010-1c76.64 0 139-62.35 139-139a.5.5 0 01.5-.5.5.5 0 01.5.5c0 77.16-62.82 140-140 140z"/><path class="cls-3" d="M616.47 195.47a4.51 4.51 0 01-4.1-2.63 101.86 101.86 0 00-134.92-50.42 4.5 4.5 0 01-3.74-8.19 110.85 110.85 0 01146.85 54.87 4.5 4.5 0 01-4.09 6.37z"/><g class="cls-4"><path class="cls-1" d="M640.94 319.92c-16 0-39.9-1.33-39.9-5s23.86-5 39.9-5 39.9 1.33 39.9 5-23.84 5-39.9 5zm0-9c-25.54 0-38.9 2.6-38.9 4s13.36 4 38.9 4 38.9-2.6 38.9-4-13.36-3.98-38.9-3.98z"/></g><g class="cls-4"><path class="cls-1" d="M621.72 349.75a.9.9 0 01-.46-.11c-3.18-1.81 7.43-23.22 15.34-37.17s20.81-34.05 24-32.25c.55.31 2 1.14-2.71 12.24a261.36 261.36 0 01-12.63 24.93c-7.55 13.36-19.72 32.36-23.54 32.36zM660 281.06c-1.63 0-10.32 10.37-22.52 31.9-12.6 22.22-16.93 35.12-15.71 35.81s10.06-9.65 22.66-31.87A260.15 260.15 0 00657 292.06c4.25-10 3.15-11 3.14-11a.32.32 0 00-.14 0z"/></g><g class="cls-4"><path class="cls-1" d="M660.07 349.8c-.91 0-3-1.17-8.55-8.77a260.26 260.26 0 01-14.92-23.64 261 261 0 01-12.6-24.93c-4.72-11.1-3.26-11.93-2.72-12.24.56-.31 2-1.14 9.11 8.61a298.17 298.17 0 0127.54 48.57c4.72 11.1 3.26 11.93 2.71 12.24a1 1 0 01-.57.16zm-38.26-68.72s-1.11 1 3.14 11a295.23 295.23 0 0027.42 48.38c6.4 8.78 7.8 8.34 7.81 8.33s1.11-1-3.14-11a294.77 294.77 0 00-27.43-48.37c-5.82-7.92-7.52-8.34-7.8-8.34z"/></g><g class="cls-5"><path class="cls-3" d="M652.33 314.93a11.39 11.39 0 11-11.39-11.39 11.39 11.39 0 0111.39 11.39z"/></g><path class="cls-1" d="M640.94 344.14a29.21 29.21 0 1129.22-29.21 29.24 29.24 0 01-29.22 29.21zm0-57.42a28.21 28.21 0 1028.22 28.21 28.24 28.24 0 00-28.22-28.21zM520.41 375.56a.5.5 0 01-.5-.5v-9a.5.5 0 011 0v9a.5.5 0 01-.5.5zM518.41 375.56a.5.5 0 01-.5-.5v-9a.5.5 0 011 0v9a.5.5 0 01-.5.5zM522.41 375.56a.5.5 0 01-.5-.5v-9a.5.5 0 011 0v9a.5.5 0 01-.5.5zM516.41 375.56a.5.5 0 01-.5-.5v-9a.5.5 0 011 0v9a.5.5 0 01-.5.5zM524.41 375.56a.5.5 0 01-.5-.5v-9a.5.5 0 011 0v9a.5.5 0 01-.5.5zM659.61 236.5h-9a.51.51 0 01-.5-.5.5.5 0 01.5-.5h9a.5.5 0 01.5.5.5.5 0 01-.5.5z"/><g class="cls-4"><path class="cls-1" d="M60.46 352.59c0-16 1.33-39.9 5-39.9s5 23.86 5 39.9-1.33 39.9-5 39.9-5-23.86-5-39.9zm9 0c0-25.54-2.6-38.9-4-38.9s-4 13.36-4 38.9 2.6 38.9 4 38.9 3.98-13.36 3.98-38.9z"/></g><g class="cls-4"><path class="cls-1" d="M30.63 333.37a.9.9 0 01.11-.46c1.81-3.18 23.22 7.43 37.17 15.34s34.06 20.83 32.25 24c-.31.55-1.14 2-12.24-2.71A261 261 0 0163 356.94c-13.37-7.58-32.37-19.75-32.37-23.57zm68.69 38.27c0-1.63-10.37-10.32-31.9-22.52-22.22-12.6-35.12-16.93-35.81-15.71s9.65 10.06 31.87 22.66a260.15 260.15 0 0024.84 12.57c10 4.25 11 3.15 11 3.14a.32.32 0 000-.14z"/></g><g class="cls-4"><path class="cls-1" d="M30.63 371.81c0-3.81 19-16 32.36-23.56 13.95-7.91 35.36-18.52 37.17-15.34 1.8 3.19-18.29 16.11-32.25 24s-35.36 18.52-37.17 15.33a.87.87 0 01-.11-.43zm68.66-38.4c-.69-1.22-13.59 3.11-35.81 15.71s-32.57 21.46-31.87 22.66 13.59-3.12 35.81-15.71 32.58-21.48 31.87-22.66z"/></g><g class="cls-5"><path class="cls-3" d="M65.45 364a11.39 11.39 0 1111.39-11.39A11.39 11.39 0 0165.45 364z"/></g><path class="cls-1" d="M36.24 352.59a29.21 29.21 0 1129.21 29.22 29.24 29.24 0 01-29.21-29.22zm57.42 0a28.21 28.21 0 10-28.21 28.22 28.24 28.24 0 0028.21-28.22z"/><path class="cls-1" d="M23.91 227.19v-.35a1.5 1.5 0 013 0v2a1.78 1.78 0 01-1.78 1.5 1.37 1.37 0 01-1.36-1.48c-.01-.55.14-1.11.14-1.67zm0-4.32v-.05c0-.68-.21-1.35-.18-2a1.39 1.39 0 011.45-1.42 1.43 1.43 0 011.35 1.6c0 .66-.09 1.31-.11 2 0 .83-.48 1.48-1.31 1.45s-1.2-.78-1.2-1.58zm-.47 9.95a1.5 1.5 0 013-.06c0 .65.06 1.31.1 2a1.5 1.5 0 01-3 .19c0-.67-.08-1.34-.11-2zm.3-15.91a.53.53 0 010-.13q.08-1 .18-2a1.5 1.5 0 013 .3c-.07.65-.13 1.3-.19 2a1.5 1.5 0 01-3-.12zm.12 21.87a1.5 1.5 0 013-.14c.06.66.13 1.31.2 2a1.5 1.5 0 11-3 .33c-.07-.66-.14-1.33-.2-2a.76.76 0 010-.19zm.53-27.78a1.27 1.27 0 010-.2c.09-.67.19-1.34.29-2a1.5 1.5 0 113 .45c-.1.64-.19 1.29-.27 1.94a1.51 1.51 0 01-1.69 1.29 1.5 1.5 0 01-1.33-1.48zm.18 33.75a1.5 1.5 0 013-.22c.09.65.19 1.3.29 1.95a1.49 1.49 0 01-1.23 1.72 1.51 1.51 0 01-1.73-1.24c-.1-.66-.21-1.33-.3-2a1.8 1.8 0 01-.03-.24zm.76-39.65a2.46 2.46 0 010-.28c.13-.66.25-1.32.39-2a1.5 1.5 0 012.94.59c-.13.65-.26 1.29-.38 1.94a1.5 1.5 0 01-3-.27zm.25 45.54a1.5 1.5 0 013-.29l.39 1.93a1.5 1.5 0 11-2.93.62c-.14-.65-.27-1.31-.4-2a1.5 1.5 0 01-.06-.29zm1-51.39a2.09 2.09 0 010-.35l.48-2a1.5 1.5 0 012.91.74c-.16.64-.32 1.27-.47 1.91a1.5 1.5 0 01-3-.34zm.32 57.22a1.5 1.5 0 012.95-.36c.16.64.32 1.27.49 1.9a1.49 1.49 0 01-1.06 1.84 1.51 1.51 0 01-1.84-1.06c-.17-.65-.34-1.3-.5-2a1.47 1.47 0 01-.06-.35zm1.2-63a1.52 1.52 0 01.06-.42c.19-.65.38-1.29.58-1.93a1.5 1.5 0 012.87.88c-.19.63-.38 1.26-.56 1.89a1.51 1.51 0 01-3-.42zm.38 68.76a1.5 1.5 0 012.94-.43c.19.63.38 1.25.58 1.88a1.5 1.5 0 01-2.85.91c-.21-.64-.41-1.28-.6-1.93a1.29 1.29 0 01-.09-.46zm1.44-74.47a1.4 1.4 0 01.08-.49c.22-.64.45-1.27.68-1.91a1.5 1.5 0 012.82 1q-.34.93-.66 1.86a1.5 1.5 0 01-2.92-.49zm.43 80.15a1.5 1.5 0 012.92-.51c.22.62.44 1.24.67 1.85a1.5 1.5 0 11-2.8 1c-.24-.62-.47-1.26-.7-1.89a1.51 1.51 0 01-.11-.48zM32 182.12a1.55 1.55 0 01.11-.56c.26-.63.51-1.25.78-1.87a1.48 1.48 0 012-.8 1.5 1.5 0 01.8 2q-.39.92-.75 1.83a1.51 1.51 0 01-2.9-.56zm.49 91.32a1.5 1.5 0 012.89-.58c.25.61.5 1.21.76 1.81a1.5 1.5 0 11-2.75 1.19c-.27-.61-.53-1.23-.79-1.85a1.65 1.65 0 01-.12-.57zm1.89-96.83a1.37 1.37 0 01.14-.62c.28-.62.57-1.23.86-1.83a1.5 1.5 0 012.7 1.3l-.84 1.78a1.5 1.5 0 01-2.86-.63zm.53 102.27a1.5 1.5 0 012.85-.64c.28.59.57 1.18.86 1.76a1.5 1.5 0 01-2.69 1.33c-.3-.6-.59-1.2-.88-1.81a1.42 1.42 0 01-.15-.64zM37 171.24a1.56 1.56 0 01.17-.69c.32-.6.63-1.2 1-1.79a1.5 1.5 0 112.63 1.44l-.93 1.74a1.5 1.5 0 01-2.83-.7zm.57 113a1.51 1.51 0 012.83-.71c.3.58.62 1.16.94 1.73a1.5 1.5 0 11-2.62 1.46c-.33-.59-.65-1.18-1-1.77a1.5 1.5 0 01-.14-.75zM39.92 166a1.5 1.5 0 01.21-.76c.34-.58.68-1.16 1-1.73a1.5 1.5 0 112.56 1.56c-.35.56-.68 1.12-1 1.69a1.5 1.5 0 01-2.79-.76zm.61 123.38a1.5 1.5 0 012.79-.78c.33.57.68 1.12 1 1.68a1.5 1.5 0 01-2.54 1.59c-.36-.57-.71-1.14-1-1.72a1.46 1.46 0 01-.25-.76zm2.55-128.46a1.49 1.49 0 01.25-.83c.37-.56.74-1.12 1.12-1.67a1.5 1.5 0 012.48 1.68l-1.09 1.64a1.5 1.5 0 01-2.76-.82zm.65 133.49a1.5 1.5 0 012.75-.84c.36.55.73 1.09 1.11 1.63a1.5 1.5 0 01-2.47 1.71 97.6 97.6 0 01-1.13-1.67 1.41 1.41 0 01-.26-.82zM46.49 156a1.45 1.45 0 01.29-.88c.39-.55.8-1.09 1.2-1.62a1.5 1.5 0 012.4 1.81c-.4.52-.79 1.05-1.18 1.58a1.5 1.5 0 01-2.71-.89zm.69 143.28a1.5 1.5 0 012.7-.89l1.19 1.61a1.5 1.5 0 11-2.38 1.83c-.41-.53-.81-1.06-1.21-1.6a1.45 1.45 0 01-.3-.94zm3-148a1.45 1.45 0 01.34-.94c.42-.53.85-1.05 1.28-1.56a1.5 1.5 0 012.3 1.92c-.42.51-.84 1-1.25 1.52a1.5 1.5 0 01-2.67-.94zM50.86 304a1.5 1.5 0 012.66-1l1.26 1.51a1.5 1.5 0 11-2.28 1.95c-.44-.51-.87-1-1.3-1.55a1.46 1.46 0 01-.34-.91zM54 146.72a1.47 1.47 0 01.39-1c.44-.5.9-1 1.35-1.5a1.5 1.5 0 012.21 2c-.45.48-.89 1-1.33 1.46a1.49 1.49 0 01-2.11.11 1.45 1.45 0 01-.51-1.07zm.77 161.78a1.53 1.53 0 01.49-1.11 1.51 1.51 0 012.12.1c.44.49.89 1 1.34 1.45a1.5 1.5 0 01-2.19 2.06l-1.37-1.48a1.49 1.49 0 01-.39-1.02zm3.33-166.14a1.48 1.48 0 01.43-1.05l1.47-1.43a1.5 1.5 0 112.06 2.12l-1.4 1.39a1.49 1.49 0 01-2.56-1zm.8 170.46a1.53 1.53 0 01.44-1.06 1.5 1.5 0 012.12 0c.47.46.93.92 1.41 1.37a1.5 1.5 0 11-2.09 2.16c-.48-.46-1-.93-1.43-1.41a1.46 1.46 0 01-.45-1.06zm3.49-174.61a1.5 1.5 0 01.49-1.1c.49-.46 1-.91 1.49-1.36a1.51 1.51 0 012 2.25c-.49.43-1 .87-1.46 1.32a1.51 1.51 0 01-2.52-1.11zm.85 178.72a1.47 1.47 0 01.39-1 1.49 1.49 0 012.12-.11c.48.44 1 .87 1.47 1.3a1.5 1.5 0 01-2 2.26c-.51-.44-1-.89-1.51-1.34a1.48 1.48 0 01-.47-1.11zm3.65-182.65a1.5 1.5 0 01.54-1.16c.52-.42 1-.85 1.56-1.27a1.5 1.5 0 111.88 2.34c-.51.41-1 .82-1.52 1.24a1.5 1.5 0 01-2.11-.19 1.46 1.46 0 01-.35-.96zm.89 186.54a1.55 1.55 0 01.33-.95 1.5 1.5 0 012.11-.21l1.54 1.23a1.5 1.5 0 01-1.86 2.36L68.33 322a1.48 1.48 0 01-.55-1.18zm3.79-190.25a1.52 1.52 0 01.6-1.2l1.62-1.19a1.5 1.5 0 011.76 2.42L74 131.77a1.5 1.5 0 01-2.4-1.2zm.93 193.92a1.55 1.55 0 01.29-.89 1.5 1.5 0 012.1-.32c.53.39 1.06.78 1.6 1.16a1.5 1.5 0 01-1.74 2.44c-.55-.39-1.1-.78-1.64-1.18a1.51 1.51 0 01-.61-1.21zm3.93-197.38a1.51 1.51 0 01.65-1.25c.56-.37 1.12-.75 1.68-1.11a1.5 1.5 0 111.64 2.51l-1.63 1.09a1.5 1.5 0 01-2.08-.4 1.46 1.46 0 01-.26-.84zm1 200.81a1.47 1.47 0 01.25-.83 1.5 1.5 0 012.08-.42l1.65 1.07a1.5 1.5 0 11-1.62 2.53l-1.69-1.1a1.52 1.52 0 01-.7-1.25zm4-204a1.49 1.49 0 01.72-1.28c.57-.35 1.15-.69 1.73-1a1.5 1.5 0 111.51 2.59l-1.69 1a1.5 1.5 0 01-2.06-.5 1.55 1.55 0 01-.19-.85zm1 207.22a1.41 1.41 0 01.21-.76 1.49 1.49 0 012-.53l1.71 1a1.5 1.5 0 01-1.5 2.6l-1.74-1a1.5 1.5 0 01-.64-1.35zm4.15-210.19a1.5 1.5 0 01.78-1.32l1.78-.94a1.49 1.49 0 012 .63 1.51 1.51 0 01-.64 2l-1.73.92a1.5 1.5 0 01-2-.61 1.39 1.39 0 01-.15-.72zM87.69 334a1.45 1.45 0 01.17-.7 1.5 1.5 0 012-.62c.58.3 1.16.61 1.75.9a1.5 1.5 0 11-1.36 2.68l-1.8-.93a1.51 1.51 0 01-.76-1.33zm4.23-215.8a1.49 1.49 0 01.86-1.35l1.82-.85a1.5 1.5 0 111.25 2.73l-1.78.83a1.5 1.5 0 01-2.15-1.35zm1.13 218.5a1.41 1.41 0 01.14-.63 1.5 1.5 0 012-.73l1.8.82a1.5 1.5 0 01-1.23 2.74c-.61-.27-1.23-.55-1.84-.84a1.49 1.49 0 01-.87-1.36zm4.31-220.94a1.5 1.5 0 01.92-1.39 80 80 0 011.86-.76 1.5 1.5 0 111.11 2.79l-1.81.74a1.51 1.51 0 01-2-.8 1.49 1.49 0 01-.08-.58zm1.18 223.34a1.44 1.44 0 01.11-.57 1.5 1.5 0 011.95-.82l1.84.73a1.5 1.5 0 01-1.09 2.8l-1.88-.75a1.5 1.5 0 01-.93-1.39zm4.37-225.52a1.5 1.5 0 011-1.41l1.91-.67a1.5 1.5 0 011 2.84l-1.85.65a1.5 1.5 0 01-2-1.41zm1.23 227.64a1.51 1.51 0 01.09-.5 1.49 1.49 0 011.91-.91l1.87.64a1.5 1.5 0 11-1 2.84l-1.92-.65a1.52 1.52 0 01-.95-1.42zm4.44-229.54a1.49 1.49 0 011.06-1.43l1.93-.58a1.5 1.5 0 01.84 2.89l-1.89.56a1.5 1.5 0 01-1.87-1 1.41 1.41 0 01-.07-.44zm1.25 231.38a1.23 1.23 0 01.07-.42 1.5 1.5 0 011.86-1l1.89.54a1.5 1.5 0 11-.8 2.9l-1.94-.56a1.51 1.51 0 01-1.08-1.46zm4.5-233a1.5 1.5 0 011.14-1.45c.65-.17 1.3-.33 2-.48a1.5 1.5 0 11.68 2.92c-.63.15-1.27.3-1.91.47a1.51 1.51 0 01-1.82-1.09 1.57 1.57 0 01-.09-.36zm1.27 234.54a1.48 1.48 0 01.05-.35 1.5 1.5 0 011.81-1.11c.64.16 1.27.31 1.91.45a1.5 1.5 0 11-.65 2.93l-2-.46a1.51 1.51 0 01-1.12-1.45zm4.56-235.86a1.5 1.5 0 011.21-1.47c.65-.14 1.31-.26 2-.38a1.49 1.49 0 011.74 1.2 1.51 1.51 0 01-1.2 1.75c-.65.11-1.29.24-1.93.37a1.51 1.51 0 01-1.8-1.47zm1.29 237.12v-.28a1.5 1.5 0 011.76-1.19l1.93.35a1.5 1.5 0 011.23 1.73 1.51 1.51 0 01-1.74 1.23l-2-.36a1.51 1.51 0 01-1.18-1.47zm4.6-238.16a1.49 1.49 0 011.27-1.48l2-.28a1.5 1.5 0 11.4 3l-2 .28a1.51 1.51 0 01-1.71-1.26 1.77 1.77 0 01.04-.25zm1.29 239.13a1.23 1.23 0 010-.2 1.5 1.5 0 011.69-1.29l1.95.26a1.5 1.5 0 01-.36 3l-2-.26a1.51 1.51 0 01-1.28-1.5zM132 107a1.5 1.5 0 011.35-1.49l2-.18a1.5 1.5 0 01.26 3c-.66 0-1.31.11-2 .18a1.51 1.51 0 01-1.64-1.35zm1.3 240.55a.66.66 0 010-.14 1.5 1.5 0 011.62-1.36l2 .16a1.53 1.53 0 011.39 1.6 1.5 1.5 0 01-1.6 1.39l-2-.16a1.5 1.5 0 01-1.43-1.52zm4.65-241a1.5 1.5 0 011.43-1.5l2-.09a1.5 1.5 0 011.55 1.45 1.52 1.52 0 01-1.44 1.55c-.66 0-1.32 0-2 .09a1.5 1.5 0 01-1.57-1.43s.01-.07.01-.09zm1.31 241.37v-.06a1.5 1.5 0 011.56-1.44c.66 0 1.65.05 2.31.06s1.8.69 1.8 1.5c0 .82-1 1.48-1.87 1.46l-2.19-.06a1.66 1.66 0 01-1.63-1.48zM143.91 106a1.5 1.5 0 011.5-1.5h.21c.67 0 1.34.19 2 .2a1.57 1.57 0 011.47 1.62 1.37 1.37 0 01-1.52 1.33c-.66 0-1.31-.15-2-.15h-.21a1.5 1.5 0 01-1.45-1.5zm2 242c0-.82.32-1.49 1.14-1.5h1.79a1.42 1.42 0 011.45 1.46 1.52 1.52 0 01-1.5 1.54h-1.69c-.83 0-1.19-.66-1.19-1.48zm4.18-241.47v-.07a1.51 1.51 0 011.58-1.43l2 .11a1.5 1.5 0 01-.19 3l-2-.11a1.51 1.51 0 01-1.39-1.51zm1.1 241.27a1.48 1.48 0 011.41-1.49l2-.13a1.5 1.5 0 011.6 1.38 1.51 1.51 0 01-1.38 1.61l-2 .13a1.5 1.5 0 01-1.59-1.41zm4.86-240.8a.76.76 0 010-.15 1.5 1.5 0 011.64-1.35l2 .21a1.5 1.5 0 01-.34 3l-2-.2a1.51 1.51 0 01-1.3-1.51zm1.09 240.34a1.5 1.5 0 011.34-1.49l2-.22a1.5 1.5 0 11.37 3l-2 .23a1.49 1.49 0 01-1.65-1.33s-.06-.18-.06-.23zM162 107.69a1.79 1.79 0 010-.23 1.49 1.49 0 011.7-1.26l2 .31a1.5 1.5 0 11-.48 3l-2-.3a1.5 1.5 0 01-1.22-1.52zm1.09 238.83a1.49 1.49 0 011.26-1.48l1.94-.32a1.5 1.5 0 11.52 2.95c-.66.12-1.32.23-2 .33a1.49 1.49 0 01-1.71-1.25.9.9 0 01-.03-.23zm4.8-237.81a1.53 1.53 0 010-.3 1.49 1.49 0 011.76-1.17c.66.13 1.32.26 2 .41a1.5 1.5 0 011.15 1.78 1.51 1.51 0 01-1.79 1.15l-1.92-.4a1.5 1.5 0 01-1.22-1.47zm1.07 236.73a1.51 1.51 0 011.2-1.47l1.92-.41a1.5 1.5 0 01.66 2.92l-2 .43a1.49 1.49 0 01-1.77-1.16 1.1 1.1 0 01-.03-.31zM173.7 110a1.61 1.61 0 010-.37 1.5 1.5 0 011.82-1.08l2 .5a1.5 1.5 0 01-.78 2.9c-.64-.17-1.27-.34-1.91-.49a1.51 1.51 0 01-1.13-1.46zm1.06 234.05a1.51 1.51 0 011.12-1.45c.64-.16 1.27-.33 1.9-.51a1.5 1.5 0 11.81 2.89l-2 .53a1.5 1.5 0 01-1.83-1.08 1.58 1.58 0 010-.36zm4.69-232.45a1.75 1.75 0 01.07-.44 1.49 1.49 0 011.87-1l1.94.61a1.5 1.5 0 01-.93 2.85l-1.88-.59a1.51 1.51 0 01-1.07-1.41zm1.05 230.8a1.5 1.5 0 011.05-1.43l1.87-.61a1.5 1.5 0 111 2.85l-1.92.62a1.5 1.5 0 01-1.88-1 1.41 1.41 0 01-.12-.41zm4.64-228.9a1.52 1.52 0 01.09-.51 1.5 1.5 0 011.92-.9c.64.22 1.27.46 1.9.7a1.5 1.5 0 11-1.06 2.8l-1.85-.68a1.5 1.5 0 01-1-1.39zm1 227a1.5 1.5 0 011-1.4l1.84-.7a1.5 1.5 0 111.09 2.79l-1.88.72a1.5 1.5 0 01-1.93-.89 1.34 1.34 0 01-.11-.54zm4.58-224.79a1.7 1.7 0 01.11-.58 1.51 1.51 0 012-.8l1.86.79a1.5 1.5 0 11-1.21 2.75l-1.81-.77a1.5 1.5 0 01-.94-1.41zm1 222.58a1.5 1.5 0 01.91-1.38l1.8-.79a1.5 1.5 0 011.22 2.74l-1.84.81a1.5 1.5 0 01-2.09-1.38zm4.5-220.13a1.5 1.5 0 012.15-1.35c.61.29 1.22.58 1.82.89a1.5 1.5 0 11-1.34 2.68l-1.77-.87a1.49 1.49 0 01-.89-1.37zm.92 217.65a1.5 1.5 0 01.84-1.35l1.75-.88a1.51 1.51 0 012 .66 1.49 1.49 0 01-.65 2l-1.8.9a1.5 1.5 0 01-2-.68 1.58 1.58 0 01-.17-.67zm4.42-214.93a1.5 1.5 0 012.21-1.32c.6.32 1.19.65 1.77 1a1.5 1.5 0 11-1.47 2.61c-.57-.32-1.14-.64-1.72-.95a1.51 1.51 0 01-.82-1.36zM202.4 333a1.52 1.52 0 01.77-1.32c.57-.31 1.15-.63 1.71-1a1.5 1.5 0 111.49 2.6c-.58.34-1.16.67-1.75 1a1.5 1.5 0 01-2-.59 1.57 1.57 0 01-.22-.69zm4.32-209.2a1.46 1.46 0 01.22-.78 1.5 1.5 0 012.06-.5l1.72 1.06a1.5 1.5 0 11-1.6 2.54l-1.68-1a1.51 1.51 0 01-.72-1.28zm.82 206.2a1.51 1.51 0 01.72-1.28l1.66-1a1.5 1.5 0 011.62 2.52l-1.71 1.07a1.49 1.49 0 01-2.06-.48 1.54 1.54 0 01-.23-.83zm4.22-203a1.44 1.44 0 01.26-.84 1.49 1.49 0 012.08-.4c.56.37 1.11.76 1.66 1.14a1.5 1.5 0 11-1.72 2.46l-1.62-1.12a1.49 1.49 0 01-.66-1.17zm.78 199.7a1.51 1.51 0 01.65-1.24l1.61-1.13a1.5 1.5 0 011.74 2.45l-1.65 1.22a1.5 1.5 0 01-2.35-1.23zm4.09-196.23a1.52 1.52 0 01.3-.9 1.5 1.5 0 012.1-.3c.54.41 1.07.81 1.6 1.23a1.5 1.5 0 11-1.84 2.37c-.52-.41-1-.8-1.56-1.2a1.46 1.46 0 01-.6-1.13zm.74 192.72a1.52 1.52 0 01.59-1.19l1.55-1.2a1.5 1.5 0 111.86 2.35c-.52.42-1.05.83-1.59 1.24a1.5 1.5 0 01-2.1-.29 1.47 1.47 0 01-.31-.84zm3.95-189a1.49 1.49 0 012.46-1.15l1.54 1.3a1.5 1.5 0 11-2 2.27l-1.5-1.27a1.47 1.47 0 01-.5-1.09zm.68 185.33a1.48 1.48 0 01.53-1.14l1.49-1.28a1.5 1.5 0 112 2.26c-.5.44-1 .88-1.53 1.31a1.5 1.5 0 01-2.11-.18 1.47 1.47 0 01-.38-.97zm3.79-181.34a1.49 1.49 0 012.51-1.1c.5.45 1 .91 1.48 1.38a1.5 1.5 0 11-2.07 2.17c-.47-.45-1-.9-1.44-1.34a1.51 1.51 0 01-.45-1.11zm.67 177.38a1.5 1.5 0 01.48-1.1c.48-.44.95-.9 1.43-1.35a1.5 1.5 0 012.08 2.16c-.48.47-1 .93-1.46 1.39a1.51 1.51 0 01-2.53-1.1zm3.63-173.23a1.5 1.5 0 012.57-1.05c.47.48.94 1 1.4 1.45a1.5 1.5 0 11-2.17 2.07c-.45-.48-.91-1-1.37-1.41a1.52 1.52 0 01-.4-1.06zm.64 169a1.51 1.51 0 01.42-1.05c.46-.47.92-.94 1.37-1.42a1.5 1.5 0 112.18 2.06c-.46.48-.92 1-1.39 1.45a1.49 1.49 0 01-2.12 0 1.45 1.45 0 01-.43-.99zm3.45-164.69a1.5 1.5 0 012.62-1c.44.5.89 1 1.33 1.51a1.5 1.5 0 11-2.27 2l-1.3-1.47a1.49 1.49 0 01-.35-.99zm.61 160.3a1.51 1.51 0 01.37-1c.44-.49.87-1 1.29-1.49a1.5 1.5 0 112.29 1.95l-1.29 1.6a1.5 1.5 0 01-2.63-1zm3.26-155.75a1.5 1.5 0 012.66-1c.43.52.85 1.05 1.26 1.58a1.5 1.5 0 11-2.37 1.85c-.4-.52-.81-1-1.22-1.54a1.52 1.52 0 01-.3-.84zm.58 151.17a1.52 1.52 0 01.33-.94l1.21-1.55a1.5 1.5 0 012.38 1.84c-.41.53-.83 1.06-1.25 1.58a1.5 1.5 0 01-2.67-.93zM241.72 156a1.5 1.5 0 012.71-.89c.39.54.79 1.09 1.17 1.64a1.5 1.5 0 01-.36 2.09 1.51 1.51 0 01-2.09-.36l-1.14-1.6a1.47 1.47 0 01-.29-.88zm.55 141.67a1.48 1.48 0 01.28-.87l1.14-1.61a1.5 1.5 0 112.46 1.71l-1.15 1.62a1.5 1.5 0 01-2.72-.88zm2.85-136.77a1.5 1.5 0 012.75-.83l1.1 1.69a1.5 1.5 0 11-2.54 1.61c-.35-.55-.7-1.1-1.06-1.65a1.46 1.46 0 01-.25-.85zm.52 131.83a1.5 1.5 0 01.24-.81l1.06-1.67a1.5 1.5 0 112.54 1.59q-.53.85-1.08 1.71a1.5 1.5 0 01-2.76-.82zm2.63-126.77a1.5 1.5 0 012.8-.76c.34.58.67 1.16 1 1.74a1.5 1.5 0 11-2.6 1.48l-1-1.7a1.5 1.5 0 01-.2-.79zm.49 121.67a1.44 1.44 0 01.21-.75c.32-.57.65-1.14 1-1.72a1.5 1.5 0 112.62 1.46l-1 1.76a1.5 1.5 0 01-2.8-.75zm2.41-116.46a1.5 1.5 0 012.83-.7l.92 1.79a1.5 1.5 0 11-2.68 1.35c-.29-.58-.59-1.16-.89-1.74a1.46 1.46 0 01-.18-.73zm.46 111.2a1.52 1.52 0 01.17-.68c.3-.59.6-1.17.89-1.76a1.5 1.5 0 112.69 1.32c-.3.61-.6 1.21-.91 1.81a1.5 1.5 0 01-2.84-.69zm2.18-105.85a1.5 1.5 0 012.86-.63c.28.6.56 1.21.83 1.83a1.5 1.5 0 01-2.74 1.21l-.81-1.78a1.6 1.6 0 01-.14-.66zm.43 100.48a1.5 1.5 0 01.13-.62c.27-.6.54-1.2.8-1.8a1.5 1.5 0 112.75 1.19c-.27.62-.54 1.24-.82 1.85a1.5 1.5 0 01-2.86-.62zm1.94-95a1.5 1.5 0 012.89-.56c.25.62.5 1.25.74 1.88a1.5 1.5 0 01-2.8 1.07l-.72-1.83a1.36 1.36 0 01-.11-.56zm.39 89.48a1.35 1.35 0 01.11-.55c.24-.61.47-1.22.7-1.84a1.51 1.51 0 011.94-.88 1.5 1.5 0 01.87 1.93c-.23.64-.48 1.27-.72 1.89a1.5 1.5 0 01-2.9-.55zm1.71-83.88a1.5 1.5 0 012.92-.5c.22.64.43 1.27.64 1.91a1.5 1.5 0 11-2.85.94q-.3-.93-.63-1.86a1.44 1.44 0 01-.08-.54zm.35 78.25a1.34 1.34 0 01.08-.48c.21-.62.41-1.25.61-1.87a1.5 1.5 0 112.86.91c-.2.64-.42 1.28-.63 1.92a1.5 1.5 0 01-2.92-.48zm1.47-72.56a1.5 1.5 0 012.94-.42c.19.64.37 1.29.55 1.94a1.5 1.5 0 01-2.9.79c-.17-.63-.35-1.26-.53-1.89a1.52 1.52 0 01-.06-.47zm.3 66.85a1.84 1.84 0 01.05-.41c.18-.63.36-1.27.52-1.9a1.5 1.5 0 112.9.77c-.17.65-.35 1.3-.53 1.94a1.5 1.5 0 01-2.94-.4zm1.23-61.14a1.5 1.5 0 013-.35c.15.66.31 1.31.45 2a1.5 1.5 0 01-2.93.65c-.14-.64-.29-1.28-.44-1.92a1.39 1.39 0 01-.08-.38zm.25 55.29a1.32 1.32 0 010-.34l.42-1.92a1.5 1.5 0 112.93.62c-.14.66-.28 1.32-.43 2a1.5 1.5 0 01-3-.33zm1-49.44a1.5 1.5 0 013-.28c.12.66.24 1.32.35 2a1.5 1.5 0 11-3 .5c-.11-.65-.22-1.29-.34-1.94a1.24 1.24 0 01-.02-.27zm.2 43.58a1.18 1.18 0 010-.26l.33-1.94a1.5 1.5 0 113 .48c-.11.66-.22 1.32-.34 2a1.5 1.5 0 01-3-.26zm.75-37.68a1.5 1.5 0 013-.2c.09.66.18 1.33.26 2a1.5 1.5 0 01-3 .36c-.08-.65-.16-1.3-.25-1.95a1.5 1.5 0 01-.02-.2zm.15 31.78a1.15 1.15 0 010-.19c.08-.65.16-1.3.23-2a1.5 1.5 0 013 .33c-.07.67-.15 1.34-.24 2a1.5 1.5 0 01-3-.18zm.51-25.85a1.5 1.5 0 013-.12c0 .67.11 1.34.15 2a1.5 1.5 0 01-3 .21l-.15-2a.53.53 0 01-.01-.08zm.09 19.9a.49.49 0 010-.12c.05-.65.09-1.3.13-2a1.5 1.5 0 013 .18c0 .67-.08 1.35-.13 2a1.5 1.5 0 01-3-.12zm.34-13.93a1.48 1.48 0 012.95-.06c0 .67 0 1.34.05 2a1.5 1.5 0 01-1.47 1.54 1.48 1.48 0 01-1.5-1.47v-2zm0 8v-2c0-.82 1.17-1.49 2-1.48s2 .68 2 1.5c0 .67-.51 1.34-.53 2a1.76 1.76 0 01-3.47 0z"/><path class="cls-1" d="M13.9 227.19c0-72.64 59.1-131.73 131.72-131.73a.5.5 0 01.5.5.5.5 0 01-.5.5c-72.08 0-130.72 58.65-130.72 130.73a130.72 130.72 0 10261.44 0 .5.5 0 011 0c0 72.63-59.09 131.72-131.72 131.72S13.9 299.82 13.9 227.19z"/><g class="cls-6"><path class="cls-1" d="M38.88 227.44a106.24 106.24 0 01212.48 0 .5.5 0 01-.5.5.5.5 0 01-.5-.5 105.24 105.24 0 00-210.48 0 .5.5 0 01-1 0z"/></g><path d="M145.25 339.31a.5.5 0 01.5-.5 110.24 110.24 0 100-220.47.5.5 0 01-.5-.5.5.5 0 01.5-.5 111.24 111.24 0 110 222.47.5.5 0 01-.5-.5z" fill="#0ff"/><g class="cls-6"><path class="cls-1" d="M0 227.57A145.74 145.74 0 01145.74 81.84a.5.5 0 01.5.5.51.51 0 01-.5.5A144.73 144.73 0 001 227.57c0 79.81 64.93 144.74 144.74 144.74a.51.51 0 01.5.5.5.5 0 01-.5.5C65.38 373.31 0 307.94 0 227.57z"/></g><path class="cls-1" d="M146.12 87.69a.5.5 0 01.5-.5c77.19 0 140 62.8 140 140a.5.5 0 01-1 0c0-76.64-62.35-139-139-139a.5.5 0 01-.5-.5z"/><path class="cls-3" d="M34.93 227.84A110.82 110.82 0 0142 189a4.5 4.5 0 118.43 3.15 101.85 101.85 0 0059.76 131.05 4.5 4.5 0 11-3.15 8.43 111.08 111.08 0 01-72.11-103.79z"/><path class="cls-1" d="M275.91 227a.5.5 0 01.5-.5h9a.5.5 0 01.5.5.5.5 0 01-.5.5h-9a.51.51 0 01-.5-.5zM275.91 229a.5.5 0 01.5-.5h9a.5.5 0 01.5.5.5.5 0 01-.5.5h-9a.51.51 0 01-.5-.5zM275.91 225a.5.5 0 01.5-.5h9a.5.5 0 01.5.5.5.5 0 01-.5.5h-9a.51.51 0 01-.5-.5zM275.91 231a.5.5 0 01.5-.5h9a.5.5 0 01.5.5.5.5 0 01-.5.5h-9a.51.51 0 01-.5-.5zM275.91 223a.5.5 0 01.5-.5h9a.5.5 0 01.5.5.5.5 0 01-.5.5h-9a.51.51 0 01-.5-.5zM144.91 96.47v-9a.5.5 0 011 0v9a.5.5 0 01-1 0zM146.91 96.47v-9a.5.5 0 011 0v9a.5.5 0 01-1 0zM142.91 96.47v-9a.5.5 0 011 0v9a.5.5 0 01-1 0zM148.91 96.47v-9a.5.5 0 011 0v9a.5.5 0 01-1 0zM140.91 96.47v-9a.5.5 0 011 0v9a.5.5 0 01-1 0zM345.25 468.5a1.66 1.66 0 01-1.49-1.63 1.58 1.58 0 011.45-1.63c.66 0 1.32-.08 2-.1a1.45 1.45 0 011.56 1.42 1.65 1.65 0 01-1.45 1.71c-.66 0-1.33.23-2 .23zm-15 0h-.05c-.67 0-1.35-.25-2-.28a1.6 1.6 0 01-1.43-1.66 1.56 1.56 0 011.57-1.49c.66 0 1.32 0 2 .06a1.7 1.7 0 01-.05 3.37zm31.94-1.43a1.5 1.5 0 01-.15-3l2-.21a1.5 1.5 0 01.33 3l-2 .21zm-48.89-.18h-.16l-2-.23a1.5 1.5 0 11.35-3l2 .22a1.5 1.5 0 01-.16 3zm65.7-2.14a1.5 1.5 0 01-.25-3l2-.35a1.5 1.5 0 01.55 2.95l-2 .36zm-82.53-.3h-.27l-2-.37a1.5 1.5 0 01.56-2.95l2 .37a1.5 1.5 0 01-.27 3zm99.15-3.24a1.49 1.49 0 01-1.45-1.13 1.52 1.52 0 011.09-1.83l1.92-.49a1.5 1.5 0 01.76 2.9l-2 .5a1.5 1.5 0 01-.29.05zm-115.74-.43a1.58 1.58 0 01-.38 0l-1.95-.52a1.5 1.5 0 11.78-2.89l1.92.51a1.5 1.5 0 01-.37 2.95zM412 456.45a1.5 1.5 0 01-.47-2.92l1.88-.63a1.5 1.5 0 111 2.83l-1.91.65a1.58 1.58 0 01-.5.07zm-148.34-.55a1.34 1.34 0 01-.48-.08l-1.92-.66a1.5 1.5 0 011-2.83l1.89.65a1.5 1.5 0 01-.48 2.92zm164.24-5.38a1.51 1.51 0 01-1.39-.92 1.49 1.49 0 01.81-2l1.82-.77a1.5 1.5 0 011.18 2.76l-1.85.78a1.65 1.65 0 01-.6.15zm-180.15-.69a1.51 1.51 0 01-.58-.12l-1.86-.8a1.5 1.5 0 111.2-2.75l1.83.79a1.5 1.5 0 01-.59 2.88zm195.56-6.39a1.5 1.5 0 01-.67-2.84l1.76-.9a1.5 1.5 0 111.37 2.67l-1.78.91a1.51 1.51 0 01-.71.16zm-211-.84a1.52 1.52 0 01-.69-.16c-.6-.31-1.2-.62-1.79-.94a1.49 1.49 0 01-.63-2 1.51 1.51 0 012-.63l1.76.92a1.5 1.5 0 01-.68 2.83zm225.83-7.35a1.5 1.5 0 01-.78-2.79c.57-.34 1.14-.68 1.7-1a1.5 1.5 0 111.56 2.56l-1.71 1a1.46 1.46 0 01-.76.23zm-240.67-1a1.51 1.51 0 01-.78-.22L215 433a1.5 1.5 0 111.58-2.54l1.7 1a1.5 1.5 0 01-.79 2.78zM472.38 426a1.5 1.5 0 01-.86-2.73c.54-.38 1.08-.76 1.61-1.15a1.5 1.5 0 111.75 2.44l-1.64 1.16a1.45 1.45 0 01-.86.28zm-269.07-1.11a1.51 1.51 0 01-.88-.28l-1.63-1.18a1.5 1.5 0 111.77-2.42l1.61 1.16a1.51 1.51 0 01.35 2.1 1.53 1.53 0 01-1.22.61zm282.59-9.16a1.51 1.51 0 01-.95-2.67c.52-.41 1-.84 1.53-1.26a1.5 1.5 0 111.92 2.31l-1.55 1.28a1.54 1.54 0 01-.95.33zm-296-1.23a1.51 1.51 0 01-1-.35l-1.54-1.29a1.5 1.5 0 111.94-2.29l1.52 1.28a1.5 1.5 0 01-1 2.65zm308.8-10a1.47 1.47 0 01-1.09-.47 1.5 1.5 0 01.06-2.12l1.44-1.37a1.5 1.5 0 012.08 2.16c-.48.47-1 .93-1.46 1.39a1.47 1.47 0 01-1.08.39zm-321.46-1.33a1.5 1.5 0 01-1-.42l-1.45-1.41a1.5 1.5 0 012.11-2.14l1.42 1.39a1.49 1.49 0 010 2.12 1.52 1.52 0 01-1.13.44zm333.37-10.79a1.48 1.48 0 01-1-.4 1.5 1.5 0 01-.09-2.12l1.33-1.47a1.5 1.5 0 112.23 2q-.66.75-1.35 1.5a1.5 1.5 0 01-1.17.47zm-345.17-1.44a1.51 1.51 0 01-1.12-.5l-1.33-1.5a1.5 1.5 0 01.13-2.12 1.48 1.48 0 012.11.14c.44.49.88 1 1.33 1.48a1.5 1.5 0 01-.12 2.12 1.52 1.52 0 01-1.05.36zm356.16-11.53a1.48 1.48 0 01-.93-.32 1.51 1.51 0 01-.25-2.11l1.22-1.56a1.5 1.5 0 012.38 1.83l-1.24 1.59a1.53 1.53 0 01-1.23.55zm-367-1.52a1.51 1.51 0 01-1.19-.58l-1.22-1.59a1.5 1.5 0 112.38-1.82l1.21 1.58a1.5 1.5 0 01-.26 2.1 1.52 1.52 0 01-1.01.29zm377.06-12.21a1.54 1.54 0 01-.84-.26 1.51 1.51 0 01-.4-2.08l1.11-1.66a1.5 1.5 0 012.5 1.66l-1.21 1.66a1.51 1.51 0 01-1.25.66zm-387-1.58a1.5 1.5 0 01-1.25-.67l-1.11-1.68a1.5 1.5 0 012.52-1.64l1.09 1.66a1.49 1.49 0 01-.42 2.07 1.53 1.53 0 01-.88.24zm396-12.85a1.52 1.52 0 01-.74-.2 1.5 1.5 0 01-.56-2l1-1.73a1.5 1.5 0 112.61 1.47l-1 1.75a1.51 1.51 0 01-1.4.69zm-404.92-1.65a1.52 1.52 0 01-1.31-.77c-.32-.58-.65-1.16-1-1.75a1.5 1.5 0 112.62-1.45c.32.58.64 1.16 1 1.73a1.5 1.5 0 01-.57 2 1.55 1.55 0 01-.74.24zm412.76-13.43a1.51 1.51 0 01-.65-.15 1.49 1.49 0 01-.7-2l.85-1.8a1.5 1.5 0 112.72 1.28l-.87 1.82a1.49 1.49 0 01-1.35.85zM128 334.52a1.49 1.49 0 01-1.36-.87l-.85-1.81a1.5 1.5 0 012.73-1.26l.83 1.8a1.49 1.49 0 01-.72 2 1.42 1.42 0 01-.63.14zm427.3-13.95a1.49 1.49 0 01-.55-.1 1.51 1.51 0 01-.85-2l.72-1.86a1.5 1.5 0 012.8 1.07c-.24.63-.48 1.26-.73 1.89a1.5 1.5 0 01-1.39 1zm-434-1.66a1.5 1.5 0 01-1.4-1c-.24-.62-.48-1.25-.71-1.88A1.5 1.5 0 11122 315c.23.62.46 1.24.7 1.85a1.5 1.5 0 01-.86 1.94 1.47 1.47 0 01-.54.12zm439.63-14.41a1.61 1.61 0 01-.44-.06 1.5 1.5 0 01-1-1.88c.19-.63.39-1.27.58-1.91a1.5 1.5 0 012.87.86c-.19.65-.39 1.29-.59 1.94a1.5 1.5 0 01-1.42 1.05zm-445.13-1.66a1.51 1.51 0 01-1.44-1.07l-.57-1.93a1.5 1.5 0 112.88-.84l.57 1.9a1.5 1.5 0 01-1 1.87 1.29 1.29 0 01-.44.07zm449.56-14.75a1.24 1.24 0 01-.33 0 1.49 1.49 0 01-1.13-1.79c.15-.65.29-1.3.44-1.94a1.5 1.5 0 012.93.64l-.45 2a1.49 1.49 0 01-1.46 1.09zM111.5 286.4a1.51 1.51 0 01-1.47-1.18c-.14-.65-.29-1.31-.43-2a1.5 1.5 0 012.94-.63l.42 1.94a1.5 1.5 0 01-1.14 1.79 1.22 1.22 0 01-.32.08zm457.07-15h-.23a1.5 1.5 0 01-1.25-1.72c.1-.65.2-1.3.29-2a1.5 1.5 0 113 .43l-.3 2a1.49 1.49 0 01-1.51 1.29zm-460.16-1.71a1.5 1.5 0 01-1.48-1.28c-.1-.67-.19-1.33-.29-2a1.52 1.52 0 011.28-1.7 1.5 1.5 0 011.69 1.28c.1.66.19 1.31.29 2a1.5 1.5 0 01-1.27 1.7zm462.14-15.16h-.12a1.51 1.51 0 01-1.37-1.62l.15-2a1.5 1.5 0 113 .21l-.15 2a1.5 1.5 0 01-1.51 1.41zm-464-1.73a1.5 1.5 0 01-1.49-1.39c0-.67-.1-1.34-.14-2a1.5 1.5 0 013-.19c0 .66.08 1.32.13 2a1.51 1.51 0 01-1.38 1.61zm464.76-14.3c-.83-1-1.44-1.16-1.44-2 0-.66.06-1.79.06-2.45v-.53a1.5 1.5 0 113 0v.52c0 .68 0 1.82-.06 2.49-.02.83-.74 1.97-1.56 1.97zm-464.9-2.68a1.5 1.5 0 01-1.5-1.5v-.26c0-.59-.24-1.17-.24-1.76a1.44 1.44 0 011.4-1.48 1.67 1.67 0 011.67 1.51c0 .57.17 1.15.17 1.73v.26a1.5 1.5 0 01-1.5 1.5zM570.8 220a1.5 1.5 0 01-1.49-1.4c0-.66-.09-1.32-.14-2a1.5 1.5 0 013-.23c.05.67.1 1.34.14 2a1.51 1.51 0 01-1.4 1.6zm-464.28-1.2h-.11a1.5 1.5 0 01-1.39-1.6l.15-2a1.52 1.52 0 011.62-1.37 1.49 1.49 0 011.37 1.61l-.15 2a1.5 1.5 0 01-1.49 1.4zm462.55-15.7a1.5 1.5 0 01-1.48-1.29c-.09-.66-.19-1.32-.28-2a1.5 1.5 0 113-.44c.1.66.2 1.32.29 2a1.49 1.49 0 01-1.28 1.69zm-460.73-1.2h-.22a1.5 1.5 0 01-1.27-1.7l.3-2a1.5 1.5 0 113 .45c-.1.66-.19 1.31-.29 2a1.5 1.5 0 01-1.52 1.29zm457.77-15.53a1.49 1.49 0 01-1.46-1.19c-.14-.64-.28-1.29-.43-1.94a1.5 1.5 0 012.93-.66c.15.66.29 1.31.43 2a1.49 1.49 0 01-1.15 1.78 1.65 1.65 0 01-.32.05zm-454.73-1.18a1.87 1.87 0 01-.32 0 1.5 1.5 0 01-1.14-1.79c.14-.65.29-1.31.44-2a1.5 1.5 0 112.92.67c-.14.64-.29 1.29-.43 1.94a1.51 1.51 0 01-1.47 1.22zm450.55-15.29a1.52 1.52 0 01-1.44-1.08c-.18-.64-.37-1.27-.56-1.91a1.5 1.5 0 112.87-.87c.19.65.39 1.29.57 1.93a1.5 1.5 0 01-1 1.87 1.59 1.59 0 01-.44.1zm-446.28-1.16a1.29 1.29 0 01-.43-.07 1.5 1.5 0 01-1-1.86c.2-.65.39-1.29.59-1.93a1.5 1.5 0 112.86.89l-.57 1.9a1.51 1.51 0 01-1.45 1.11zm440.9-15a1.5 1.5 0 01-1.4-1c-.23-.62-.47-1.24-.71-1.85a1.5 1.5 0 01.87-1.94 1.48 1.48 0 011.93.86l.72 1.88a1.5 1.5 0 01-.88 1.93 1.39 1.39 0 01-.53.2zm-435.43-1.16a1.69 1.69 0 01-.53-.09 1.52 1.52 0 01-.87-1.94c.24-.63.48-1.26.73-1.89a1.5 1.5 0 012.79 1.1l-.72 1.86a1.48 1.48 0 01-1.4 1.04zM550 138.16a1.5 1.5 0 01-1.36-.88c-.28-.59-.55-1.19-.84-1.79a1.5 1.5 0 012.72-1.28c.28.61.57 1.21.85 1.82a1.51 1.51 0 01-.74 2 1.56 1.56 0 01-.63.13zM127.77 137a1.51 1.51 0 01-1.36-2.14l.86-1.83a1.5 1.5 0 012.71 1.3c-.29.6-.57 1.2-.85 1.8a1.52 1.52 0 01-1.36.87zm414.57-14a1.52 1.52 0 01-1.31-.77c-.32-.58-.64-1.16-1-1.73a1.5 1.5 0 112.62-1.48l1 1.75a1.49 1.49 0 01-.58 2 1.47 1.47 0 01-.73.23zm-406.8-1.16a1.49 1.49 0 01-1.3-2.23l1-1.76a1.51 1.51 0 012.05-.55 1.49 1.49 0 01.56 2l-1 1.74a1.48 1.48 0 01-1.31.82zm398.05-13.38a1.51 1.51 0 01-1.26-.68l-1.09-1.66a1.5 1.5 0 112.49-1.66l1.11 1.68a1.5 1.5 0 01-1.25 2.32zm-389.19-1.12a1.46 1.46 0 01-.82-.25 1.51 1.51 0 01-.43-2.08l1.12-1.67a1.5 1.5 0 012.49 1.67l-1.1 1.66a1.5 1.5 0 01-1.26.67zm379.39-12.73a1.54 1.54 0 01-1.2-.59l-1.21-1.58a1.5 1.5 0 112.37-1.83L525 92.2a1.5 1.5 0 01-1.19 2.41zm-369.49-1.1a1.49 1.49 0 01-1.19-2.41c.41-.54.82-1.07 1.24-1.59a1.49 1.49 0 012.1-.26 1.51 1.51 0 01.26 2.11l-1.23 1.57a1.49 1.49 0 01-1.18.58zM513 81.48a1.52 1.52 0 01-1.13-.5l-1.32-1.49a1.5 1.5 0 012.23-2l1.34 1.5a1.49 1.49 0 01-1.12 2.49zm-347.85-1a1.5 1.5 0 01-1.11-2.5q.66-.75 1.35-1.5a1.5 1.5 0 012.21 2l-1.33 1.47a1.48 1.48 0 01-1.11.49zm336.14-11.31a1.49 1.49 0 01-1.05-.43l-1.42-1.38a1.5 1.5 0 112.08-2.16l1.44 1.4a1.5 1.5 0 010 2.12 1.48 1.48 0 01-1.05.45zM177 68.2a1.53 1.53 0 01-1.08-.46 1.5 1.5 0 010-2.12l1.45-1.39a1.5 1.5 0 012.07 2.17L178 67.77a1.45 1.45 0 01-1 .43zm311.72-10.46a1.5 1.5 0 01-1-.36l-1.52-1.28a1.49 1.49 0 111.91-2.3l1.55 1.29a1.51 1.51 0 01-1 2.65zm-299.13-.9a1.5 1.5 0 01-1-2.65l1.55-1.28a1.5 1.5 0 011.9 2.32l-1.53 1.26a1.46 1.46 0 01-.92.35zm285.75-9.6a1.51 1.51 0 01-.88-.28l-1.61-1.17a1.5 1.5 0 111.74-2.44l1.63 1.18a1.49 1.49 0 01.33 2.09 1.48 1.48 0 01-1.21.62zM203 46.44a1.5 1.5 0 01-.88-2.72l1.64-1.17a1.5 1.5 0 011.75 2.45l-1.62 1.15a1.49 1.49 0 01-.89.29zm258.21-8.69a1.45 1.45 0 01-.79-.23l-1.69-1a1.5 1.5 0 111.56-2.56L462 35a1.5 1.5 0 01-.79 2.78zM217.16 37a1.5 1.5 0 01-.78-2.78l1.71-1a1.5 1.5 0 111.55 2.57l-1.7 1a1.46 1.46 0 01-.78.21zm229.3-7.73a1.56 1.56 0 01-.69-.17l-1.77-.88a1.5 1.5 0 111.37-2.67l1.79.93a1.5 1.5 0 01-.7 2.83zM232 28.7a1.51 1.51 0 01-1.34-.81 1.5 1.5 0 01.65-2L233 25a1.51 1.51 0 012 .67 1.5 1.5 0 01-.66 2l-1.77.9a1.4 1.4 0 01-.57.13zM431.11 22a1.52 1.52 0 01-.59-.12l-1.84-.79a1.5 1.5 0 01-.79-2 1.49 1.49 0 012-.79l1.86.79a1.5 1.5 0 01-.6 2.88zm-183.81-.5a1.5 1.5 0 01-.59-2.88l1.84-.78a1.5 1.5 0 011.15 2.77l-1.82.77a1.51 1.51 0 01-.58.09zm168-5.69a1.47 1.47 0 01-.5-.09l-1.92-.72a1.49 1.49 0 01-.94-1.9 1.51 1.51 0 011.9-.94l1.91.66a1.5 1.5 0 01-.49 2.92zm-152.14-.4a1.5 1.5 0 01-.48-2.92l1.9-.64a1.5 1.5 0 11.95 2.84l-1.88.64a1.4 1.4 0 01-.53.05zM399 10.78a1.32 1.32 0 01-.39-.06l-1.92-.5a1.5 1.5 0 11.75-2.91l1.95.52a1.49 1.49 0 011.06 1.83 1.51 1.51 0 01-1.45 1.12zm-119.62-.31a1.5 1.5 0 01-.38-3l2-.47a1.5 1.5 0 11.73 2.91l-1.92.5a1.73 1.73 0 01-.42.06zM382.45 7h-.28l-2-.37a1.5 1.5 0 01.54-2.95l2 .37a1.5 1.5 0 01-.28 3zM296 6.76a1.5 1.5 0 01-.27-3q1-.19 2-.36a1.5 1.5 0 11.52 2.95c-.65.12-1.3.23-1.95.36zm69.68-2.35h-.17l-2-.22a1.5 1.5 0 11.32-3l2 .22a1.5 1.5 0 01-.17 3zm-52.87-.13a1.5 1.5 0 01-.16-3c.66-.07 1.33-.15 2-.21a1.48 1.48 0 011.64 1.34 1.49 1.49 0 01-1.34 1.64l-2 .21zm35.93-1.2h-.06l-2-.07a1.51 1.51 0 01-1.45-1.55A1.52 1.52 0 01346.77 0l2 .08a1.5 1.5 0 01-.07 3zm-19 .42a1.72 1.72 0 01-1.49-1.68 1.59 1.59 0 011.42-1.67c.67 0 1.33-.11 2-.13a1.47 1.47 0 011.55 1.43 1.71 1.71 0 01-1.46 1.76c-.66 0-1.32.29-2 .29z"/></g></g></svg>