<svg xmlns="http://www.w3.org/2000/svg" viewBox="0 0 367.5 160.81"><defs><style>.cls-1{fill:#00b4eb}</style></defs><g id="图层_2" data-name="图层 2"><g id="Layer_1" data-name="Layer 1"><path class="cls-1" d="M227.06 15.05h-71.57l-29.57 29.57H15.05v5.5h117.06v-2.11l3.39-3.39 23.37-23.38h64.81l23.37 23.38 3.39 3.39v2.11H367.5v-5.5H256.63l-29.57-29.57zM250.44 110.69v2.12l-3.39 3.38-23.37 23.38h-64.81l-23.38-23.38-3.38-3.38v-2.12H15.05v5.5h110.87l29.57 29.57h71.57l29.57-29.57H367.5v-5.5H250.44z"/><path class="cls-1" d="M15.05 44.62h5.94v71.57h-5.94zM15.05 89.1V71.72L0 80.41l15.05 8.69zM182.36 15.05h17.38L191.05 0l-8.69 15.05zM191.05 160.81l8.69-15.05h-17.38l8.69 15.05z"/></g></g></svg>