<svg xmlns="http://www.w3.org/2000/svg" viewBox="0 0 74.33 18.97"><defs><style>.cls-1{fill:#00b8de}.cls-2{fill:#ff7000}</style></defs><g id="图层_2" data-name="图层 2"><g id="Layer_1" data-name="Layer 1"><path class="cls-1" d="M0 1.23h74.33v.31H0z"/><path class="cls-1" d="M0 0h52.18v2.77H0zM0 5.29h74.33v.31H0zM0 9.34h74.33v.31H0zM0 13.37h74.33v.31H0zM0 17.43h74.33v.31H0z"/><path class="cls-1" d="M0 4.06h26.5v2.77H0zM0 8.11h36.12v2.75H0zM0 12.17h24.81v2.75H0zM0 16.2h10.45v2.77H0z"/><path class="cls-2" d="M26.44 12.17h3.04v2.75h-3.04z"/><path class="cls-1" d="M31.6 12.17h.97v2.75h-.97zM37.75 8.11h5.13v2.75h-5.13z"/><path class="cls-2" d="M47.15 8.11h2.4v2.75h-2.4z"/><path class="cls-1" d="M53.12 8.11h.45v2.75h-.45z"/><path class="cls-2" d="M28.06 4.06h.85v2.77h-.85z"/><path class="cls-1" d="M32.47 4.06H36v2.77h-3.53zM39.03 4.06h5.92v2.77h-5.92zM53.8 0h5.91v2.77H53.8z"/><path class="cls-2" d="M61.52 0h.72v2.77h-.72z"/><path class="cls-1" d="M12.84 16.2H28.3v2.77H12.84zM30.39 16.2h.9v2.77h-.9zM33.97 16.2h4.27v2.77h-4.27z"/><path class="cls-2" d="M39.83 16.2h.8v2.77h-.8z"/></g></g></svg>