<svg xmlns="http://www.w3.org/2000/svg" viewBox="0 0 22.01 28.04"><g data-name="图层 2"><path d="M13.75 6.36V2.89a1.49 1.49 0 000-.21 1.08 1.08 0 00.93-1.07v-.53A1.08 1.08 0 0013.58 0H8.42a1.07 1.07 0 00-1.07 1.08v.53a1.07 1.07 0 00.93 1.07.75.75 0 000 .21v3.47S0 25.77 0 26.58A1.46 1.46 0 001.47 28h19.07A1.46 1.46 0 0022 26.58c0-.81-8.25-20.22-8.25-20.22zm.32 19.8h-2.69v-1h1.67v-1.57h-1.67v-1h1.67v-1.3h-1.67v-1h1.67V19h-1.67v-1h1.67v-1.31h-1.67v-1h1.67v-1.3h-1.67v-1h1.67v-1.57h-1.67v-1h2.69z" fill="#375d81" data-name="Layer 1"/></g></svg>