<svg xmlns="http://www.w3.org/2000/svg" viewBox="0 0 263.8 182.65"><defs><style>.cls-2,.cls-22{fill:#fff}.cls-4{opacity:.9}.cls-22,.cls-6{opacity:.8}.cls-7{opacity:.75}.cls-8{opacity:.7}.cls-10{opacity:.6}.cls-12{opacity:.5}.cls-14{opacity:.4}.cls-16{opacity:.3}.cls-17{opacity:.25}.cls-18{opacity:.2}</style></defs><g style="isolation:isolate"><g id="图层_2" data-name="图层 2"><g id="图层_1-2" data-name="图层 1"><path class="cls-2" d="M133.49 175h-2.16v-.35h3.48v.35zm4.83-.14v-.35c1.15-.06 2.32-.15 3.47-.27v.35c-1.14.08-2.32.18-3.47.24zm-10.48-.05c-1.16-.08-2.33-.18-3.48-.31v-.34c1.16.12 2.32.23 3.47.3zm17.43-.64v-.34c1.13-.17 2.29-.35 3.43-.56l.06.34c-1.18.18-2.34.39-3.49.53zm-24.38-.17c-1.15-.17-2.31-.37-3.44-.59l.06-.35c1.13.22 2.29.42 3.43.6zm31.26-1.15l-.08-.34c1.12-.25 2.26-.54 3.38-.84l.09.34c-1.12.32-2.26.61-3.39.86zm-38.15-.16c-1.13-.27-2.26-.57-3.38-.88l.09-.34c1.12.32 2.25.61 3.37.88zm44.89-1.69l-.1-.33c1.1-.35 2.21-.73 3.29-1.13l.12.33c-1.09.44-2.2.82-3.31 1.13zm-51.58-.25c-1.11-.37-2.21-.76-3.3-1.16l.12-.33c1.08.41 2.19.79 3.28 1.16zm58.15-2.15l-.13-.32c1.07-.44 2.14-.91 3.19-1.4l.14.32c-1.04.53-2.12 1-3.2 1.44zm-64.7-.31c-1.06-.45-2.13-.94-3.18-1.43l.15-.32c1 .5 2.11 1 3.17 1.43zm71.05-2.63l-.16-.31c1-.53 2-1.08 3.06-1.66l.17.31c-1.01.61-2.04 1.17-3.07 1.7zm-77.36-.37c-1-.54-2-1.11-3-1.7l.18-.3c1 .59 2 1.15 3 1.69zm83.43-3.09l-.18-.29c1-.62 2-1.26 2.91-1.92l.19.29c-.95.72-1.93 1.34-2.92 1.96zm-89.46-.43c-1-.62-2-1.28-2.9-1.94l.2-.29c1 .67 1.92 1.32 2.89 1.94zm95.22-3.53l-.2-.28c.92-.69 1.84-1.41 2.74-2.15l.22.27c-.9.78-1.83 1.5-2.76 2.2zM82.7 157.8c-.92-.7-1.83-1.44-2.73-2.18l.23-.27c.89.74 1.8 1.47 2.71 2.17zm106.36-4l-.23-.26c.86-.77 1.72-1.57 2.55-2.37l.24.25c-.83.86-1.7 1.66-2.56 2.43zm-111.72-.53a71.49 71.49 0 01-2.54-2.4l.24-.25c.83.82 1.68 1.62 2.53 2.4zM194.08 149l-.25-.24c.79-.83 1.58-1.7 2.35-2.57l.26.23c-.77.86-1.56 1.73-2.36 2.58zm-121.72-.57c-.79-.85-1.58-1.72-2.34-2.6l.27-.23c.75.88 1.53 1.75 2.32 2.59zm126.33-4.68l-.27-.22c.72-.9 1.44-1.83 2.12-2.75l.28.2c-.69.92-1.4 1.85-2.13 2.76zm-130.89-.63c-.72-.91-1.43-1.85-2.11-2.79l.28-.2c.68.94 1.39 1.87 2.1 2.77zm135-5l-.29-.19c.65-1 1.28-2 1.89-2.93l.3.19c-.57.98-1.21 1.97-1.86 2.93zm-139.15-.66c-.64-1-1.27-2-1.87-3l.3-.18c.6 1 1.22 2 1.86 2.94zm142.82-5.28l-.31-.17c.57-1 1.12-2 1.64-3.08l.31.16c-.48 1.04-1.04 2.07-1.6 3.09zm-146.43-.71c-.56-1-1.1-2.06-1.61-3.1l.31-.16c.51 1 1 2.08 1.61 3.09zm149.58-5.53l-.32-.14c.48-1 .94-2.13 1.38-3.2l.32.13c-.4 1.08-.86 2.16-1.34 3.21zM57 125.2c-.46-1.06-.92-2.14-1.34-3.23l.32-.12c.43 1.07.88 2.15 1.34 3.21zm155.3-5.74l-.33-.11c.39-1.09.76-2.2 1.1-3.3l.33.1c-.4 1.1-.73 2.22-1.12 3.31zm-157.85-.77c-.38-1.09-.74-2.21-1.08-3.33l.34-.1c.33 1.11.69 2.23 1.07 3.32zm159.92-5.9l-.34-.09c.3-1.11.57-2.25.82-3.38l.34.07c-.27 1.14-.55 2.28-.84 3.4zM52.42 112c-.28-1.13-.55-2.28-.79-3.41l.35-.07c.23 1.13.5 2.27.78 3.39zm163.43-6l-.34-.06c.2-1.13.38-2.29.53-3.44l.35.05c-.16 1.11-.34 2.28-.54 3.45zM51 105.15c-.19-1.14-.36-2.3-.51-3.46h.35c.14 1.15.31 2.31.5 3.45zM216.78 99h-.35c.11-1.15.19-2.32.25-3.48h.35c-.03 1.19-.14 2.36-.25 3.48zm-166.65-.78c-.1-1.16-.17-2.33-.22-3.49h.35c.05 1.16.12 2.33.21 3.48zm167-6.16h-.35v-.72-2.76h.35v2.77c.01.22 0 .46 0 .71zm-166.94-.83h-.35c0-1.15 0-2.33.08-3.49h.35c-.05 1.17-.08 2.34-.08 3.49zm166.36-6.13c-.08-1.16-.19-2.32-.33-3.47h.35c.13 1.15.25 2.32.33 3.48zm-166.06-.82h-.35c.1-1.15.22-2.32.37-3.48h.34c-.14 1.2-.26 2.33-.36 3.48zm165.26-6.1c-.18-1.14-.39-2.29-.62-3.42l.34-.07c.23 1.13.44 2.29.62 3.44zm-164.39-.81l-.36-.05c.19-1.15.41-2.3.65-3.44L52 74c-.23 1.09-.45 2.24-.64 3.37zm163-6c-.28-1.12-.58-2.26-.9-3.36l.33-.1c.33 1.11.63 2.25.91 3.38zm-161.55-.8l-.34-.09c.29-1.13.6-2.26.94-3.37l.33.1c-.33 1.11-.65 2.23-.93 3.36zm159.62-5.9c-.37-1.09-.77-2.19-1.18-3.27l.32-.13c.42 1.09.82 2.19 1.19 3.29zM54.81 63.9l-.33-.11c.39-1.1.8-2.2 1.22-3.28l.33.13c-.43 1.08-.84 2.17-1.22 3.26zm155.12-5.72c-.46-1.07-1-2.13-1.45-3.17l.31-.15c.51 1 1 2.11 1.46 3.18zm-152.56-.75l-.31-.14c.47-1.06 1-2.13 1.48-3.16l.32.15c-.52 1.04-1.02 2.09-1.49 3.15zm149.53-5.52c-.55-1-1.13-2-1.72-3l.3-.18c.59 1 1.17 2 1.72 3zM60.47 51.2l-.31-.2c.56-1 1.15-2 1.75-3l.3.18c-.6 1-1.21 2.01-1.74 3.02zm142.87-5.28c-.62-1-1.28-1.93-2-2.88l.29-.2c.67.95 1.33 1.92 2 2.89zm-139.27-.67l-.29-.19c.64-1 1.32-1.93 2-2.87l.28.21c-.68.93-1.35 1.89-1.99 2.85zm135.23-5a93.03 93.03 0 00-2.2-2.71l.27-.22c.75.88 1.49 1.8 2.21 2.71zm-131.13-.62l-.28-.22a81.5 81.5 0 012.23-2.69l.26.23c-.75.87-1.5 1.77-2.21 2.68zm126.63-4.69c-.78-.85-1.59-1.7-2.41-2.52l-.91-.89.24-.25.92.9c.82.82 1.63 1.67 2.42 2.52zm-122.09-.58l-.25-.24c.61-.65 1.24-1.3 1.88-1.94l.56-.56.25.25-.56.55c-.59.64-1.27 1.29-1.88 1.94zm5-4.87l-.23-.26c.86-.78 1.75-1.55 2.64-2.29l.22.27c-.92.73-1.8 1.5-2.66 2.28zm111.25-.33a70.32 70.32 0 00-2.64-2.27l.22-.27c.89.74 1.79 1.5 2.66 2.28zM83 25l-.21-.28c.93-.71 1.88-1.4 2.83-2.07l.2.29C84.9 23.64 84 24.33 83 25zm100.53-.3c-.93-.7-1.88-1.38-2.82-2l.19-.29c1 .66 1.91 1.34 2.84 2zm-94.79-3.65l-.19-.3c1-.62 2-1.24 3-1.82l.18.31c-1.01.57-2.01 1.18-2.99 1.81zm89.09-.26c-1-.62-2-1.22-3-1.79l.17-.3c1 .57 2 1.18 3 1.79zm-83.07-3.24l-.16-.31c1-.54 2.09-1.06 3.13-1.56l.15.32c-1.04.49-2.09 1-3.12 1.55zm77-.22c-1-.53-2.08-1-3.13-1.53l.15-.32c1.05.49 2.1 1 3.14 1.54zm-70.74-2.75l-.14-.33c1.07-.45 2.17-.88 3.25-1.29l.13.33c-1.05.4-2.14.84-3.2 1.29zm64.43-.18c-1.07-.45-2.16-.87-3.24-1.27l.12-.33c1.08.4 2.18.83 3.25 1.27zm-57.91-2.26l-.11-.33c1.11-.36 2.24-.7 3.35-1l.09.34c-1.07.29-2.19.63-3.29.99zM159 12c-1.1-.35-2.23-.69-3.34-1l.09-.34c1.12.31 2.25.64 3.35 1zm-44.68-1.74l-.08-.34c1.13-.27 2.28-.51 3.42-.73l.07.34c-1.18.22-2.32.47-3.45.73zm38-.1c-1.13-.26-2.28-.5-3.41-.71l.06-.35c1.14.22 2.29.45 3.42.72zM121.12 9l-.05-.35c1.15-.17 2.32-.32 3.47-.44v.34c-1.11.08-2.27.22-3.42.45zm24.28-.07c-1.14-.17-2.3-.31-3.45-.42v-.35c1.16.12 2.32.26 3.47.42zM128 8.21v-.35c1.16-.08 2.33-.13 3.49-.16v.35c-1.12.03-2.3.08-3.49.16zm10.44 0c-1.15-.07-2.32-.12-3.48-.14v-.38c1.16 0 2.34.07 3.49.14z"/><path class="cls-2" d="M133.49 165A73.69 73.69 0 0181.38 39.22 73.69 73.69 0 11185.6 143.43 73.21 73.21 0 01133.49 165zm0-147a73.35 73.35 0 00-51.86 125.2A73.34 73.34 0 10185.35 39.47 72.83 72.83 0 00133.49 18z"/><path class="cls-2" d="M75.64 33.48c-1.1 1.1-2.16 2.23-3.19 3.37l5.17 4.3c.89-1 1.82-2 2.77-2.92s1.93-1.88 2.92-2.78L79 30.28c-1.13 1.03-2.25 2.1-3.36 3.2z"/><path class="cls-2" d="M66.48 44.4q-1.35 1.92-2.56 3.88l5.83 3.33c.71-1.13 1.46-2.25 2.23-3.35s1.57-2.19 2.39-3.24l-5.13-4.35c-.95 1.21-1.87 2.46-2.76 3.73z" opacity=".95"/><g class="cls-4"><path class="cls-2" d="M59.35 56.75c-.66 1.41-1.28 2.84-1.85 4.26l6.33 2.27c.5-1.23 1-2.47 1.61-3.69s1.16-2.42 1.79-3.6l-5.81-3.39q-1.08 2.04-2.07 4.15z"/></g><path class="cls-2" d="M54.47 70.15c-.4 1.51-.76 3-1.08 4.52L60 75.8c.28-1.3.6-2.61 1-3.91s.69-2.59 1.1-3.89l-6.31-2.3c-.47 1.46-.92 2.95-1.32 4.45z" opacity=".85"/><g class="cls-6"><path class="cls-2" d="M52 84.19c-.13 1.56-.22 3.1-.28 4.64h6.73c.05-1.33.13-2.67.25-4s.26-2.68.45-4l-6.62-1.2c-.22 1.47-.4 3.01-.53 4.56z"/></g><g class="cls-7"><path class="cls-2" d="M52 98.45c.14 1.56.32 3.09.53 4.62l6.62-1.2c-.19-1.32-.34-2.66-.45-4s-.2-2.69-.25-4h-6.73c.05 1.49.14 3.03.28 4.58z"/></g><g class="cls-8"><path class="cls-2" d="M54.47 112.5c.4 1.5.85 3 1.32 4.45l6.31-2.33c-.41-1.27-.79-2.56-1.14-3.86s-.67-2.61-1-3.91L53.39 108c.32 1.49.68 3 1.08 4.5z"/></g><path class="cls-2" d="M59.35 125.9q1 2.11 2.07 4.15l5.81-3.39c-.63-1.18-1.22-2.38-1.79-3.6s-1.11-2.46-1.61-3.69l-6.33 2.27c.57 1.42 1.19 2.85 1.85 4.26z" opacity=".65"/><g class="cls-10"><path class="cls-2" d="M66.48 138.25c.89 1.27 1.81 2.52 2.76 3.73l5.13-4.35c-.82-1-1.62-2.13-2.39-3.24s-1.52-2.22-2.23-3.35l-5.83 3.33q1.22 1.97 2.56 3.88z"/></g><path class="cls-2" d="M75.64 149.17c1.11 1.1 2.23 2.17 3.38 3.2l4.29-5.17c-1-.9-2-1.82-2.92-2.78s-1.88-1.93-2.77-2.92l-5.17 4.3c1.03 1.14 2.09 2.27 3.19 3.37z" opacity=".55"/><g class="cls-12"><path class="cls-2" d="M86.57 158.34c1.27.89 2.57 1.74 3.87 2.56l3.34-5.84c-1.14-.71-2.25-1.45-3.36-2.23s-2.19-1.57-3.24-2.39l-4.34 5.13q1.82 1.43 3.73 2.77z"/></g><path class="cls-2" d="M98.92 165.47q2.11 1 4.26 1.85l2.27-6.33c-1.24-.5-2.47-1-3.69-1.61s-2.43-1.17-3.61-1.79l-3.39 5.8c1.36.72 2.74 1.42 4.16 2.08z" opacity=".45"/><g class="cls-14"><path class="cls-2" d="M112.32 170.34c1.5.41 3 .77 4.51 1.08l1.17-6.62a78.413 78.413 0 01-7.78-2.08l-2.33 6.3c1.44.48 2.92.92 4.43 1.32z"/></g><path class="cls-2" d="M126.36 172.82c1.55.14 3.1.23 4.64.28v-6.72c-1.33 0-2.67-.13-4-.25s-2.67-.27-4-.45l-1.2 6.61c1.47.22 3.01.39 4.56.53z" opacity=".35"/><g class="cls-16"><path class="cls-2" d="M140.62 172.82c1.55-.14 3.09-.31 4.61-.53l-1.23-6.61c-1.33.18-2.66.33-4 .45s-2.68.2-4 .25v6.72c1.52-.05 3.07-.1 4.62-.28z"/></g><g class="cls-17"><path class="cls-2" d="M154.66 170.34c1.51-.4 3-.84 4.45-1.32l-2.32-6.3q-1.9.61-3.87 1.14c-1.3.35-2.61.66-3.91.94l1.13 6.62c1.51-.31 3.02-.67 4.52-1.08z"/></g><g class="cls-17"><path class="cls-2" d="M168.06 165.47c1.41-.66 2.8-1.36 4.16-2.08l-3.39-5.8c-1.18.62-2.38 1.22-3.61 1.79s-2.45 1.11-3.69 1.61l2.27 6.33q2.15-.87 4.26-1.85z"/></g><g class="cls-18"><path class="cls-2" d="M180.41 158.34q1.92-1.35 3.73-2.77l-4.34-5.13a81.43 81.43 0 01-6.6 4.62l3.34 5.84c1.3-.82 2.6-1.67 3.87-2.56z"/></g><path class="cls-2" d="M191.33 149.17c1.11-1.1 2.17-2.23 3.2-3.37l-5.17-4.3c-.9 1-1.82 2-2.77 2.92s-1.93 1.88-2.92 2.78l4.29 5.17q1.73-1.55 3.37-3.2z" opacity=".15"/><path class="cls-2" d="M200.5 138.25c.89-1.28 1.75-2.57 2.56-3.88l-5.83-3.37c-.72 1.13-1.46 2.25-2.23 3.35s-1.57 2.19-2.39 3.24l5.13 4.35a70.84 70.84 0 002.76-3.69z"/><g class="cls-4"><path class="cls-2" d="M207.63 125.9c.66-1.41 1.27-2.84 1.85-4.26l-6.33-2.27c-.5 1.23-1 2.47-1.61 3.69s-1.17 2.42-1.79 3.6l5.81 3.39q1.08-2.05 2.07-4.15z"/></g><g class="cls-6"><path class="cls-2" d="M212.51 112.5c.4-1.51.76-3 1.08-4.52l-6.59-1.13a79.214 79.214 0 01-2.08 7.77l6.31 2.33c.43-1.46.87-2.95 1.28-4.45z"/></g><g class="cls-8"><path class="cls-2" d="M215 98.45c.14-1.55.23-3.09.28-4.63h-6.72c0 1.33-.13 2.67-.25 4s-.27 2.68-.45 4l6.61 1.2c.2-1.48.38-3.02.53-4.57z"/></g><g class="cls-10"><path class="cls-2" d="M215 84.19c-.13-1.55-.31-3.08-.53-4.61l-6.61 1.2c.18 1.32.34 2.66.45 4s.2 2.69.25 4h6.72c-.07-1.49-.16-3.03-.28-4.59z"/></g><g class="cls-12"><path class="cls-2" d="M212.51 70.15c-.41-1.5-.85-3-1.32-4.45l-6.31 2.3a79.214 79.214 0 012.08 7.77l6.63-1.13c-.32-1.48-.68-2.98-1.08-4.49z"/></g><g class="cls-14"><path class="cls-2" d="M207.63 56.75q-1-2.11-2.07-4.15l-5.81 3.4c.62 1.18 1.22 2.38 1.79 3.6s1.11 2.46 1.61 3.69l6.33-2.29c-.58-1.41-1.19-2.84-1.85-4.25z"/></g><g class="cls-16"><path class="cls-2" d="M200.5 44.4c-.89-1.27-1.82-2.52-2.76-3.73L192.61 45c.82 1 1.61 2.13 2.39 3.24s1.51 2.22 2.23 3.35l5.83-3.33c-.81-1.26-1.67-2.58-2.56-3.86z"/></g><g class="cls-18"><path class="cls-2" d="M191.33 33.48q-1.65-1.65-3.37-3.2l-4.29 5.17c1 .9 2 1.82 2.92 2.78s1.87 1.93 2.77 2.92l5.17-4.3a84.158 84.158 0 00-3.2-3.37z"/></g><path class="cls-2" d="M180.41 24.31a95.79 95.79 0 00-3.87-2.56l-3.34 5.84c1.13.71 2.25 1.45 3.36 2.23s2.18 1.57 3.24 2.39l4.34-5.13q-1.81-1.42-3.73-2.77z" opacity=".1"/><path class="cls-2" d="M168.06 17.18c-1.41-.66-2.83-1.27-4.26-1.85l-2.27 6.33c1.24.5 2.47 1 3.69 1.61s2.43 1.17 3.61 1.79l3.39-5.8c-1.36-.72-2.75-1.42-4.16-2.08z"/><g class="cls-7"><path class="cls-2" d="M154.66 12.31c-1.5-.41-3-.77-4.52-1.08L149 17.85a79.214 79.214 0 017.78 2.08l2.32-6.3c-1.45-.48-2.93-.92-4.44-1.32z"/></g><g class="cls-12"><path class="cls-2" d="M140.62 9.83c-1.55-.14-3.1-.23-4.64-.28v6.72c1.34.05 2.68.13 4 .25s2.68.27 4 .45l1.19-6.61c-1.46-.22-3-.36-4.55-.53z"/></g><g class="cls-17"><path class="cls-2" d="M126.36 9.83c-1.55.14-3.09.31-4.62.53l1.2 6.61c1.33-.18 2.66-.33 4-.45s2.69-.2 4-.25V9.55c-1.48.05-3.03.14-4.58.28z"/></g><path class="cls-2" d="M112.32 12.31c-1.51.4-3 .84-4.46 1.32l2.33 6.3a76.952 76.952 0 017.78-2.08l-1.14-6.62c-1.5.31-3.01.67-4.51 1.08z"/><g class="cls-17"><path class="cls-2" d="M98.92 17.18c-1.42.66-2.8 1.36-4.16 2.08l3.39 5.8c1.18-.62 2.38-1.22 3.61-1.79s2.45-1.11 3.69-1.61l-2.27-6.33c-1.43.58-2.85 1.19-4.26 1.85z"/></g><g class="cls-12"><path class="cls-2" d="M86.57 24.31q-1.92 1.35-3.73 2.77l4.34 5.13c1-.82 2.13-1.62 3.24-2.39s2.22-1.52 3.36-2.23l-3.34-5.84c-1.3.82-2.6 1.67-3.87 2.56z"/></g><path class="cls-2" d="M144.52 182.65l-.09-.69a91.32 91.32 0 0079.69-79.69l.69.08a92 92 0 01-80.29 80.3zM42.86 80.38l-.7-.08A92 92 0 01122.46 0l.09.69a91.32 91.32 0 00-79.69 79.69z"/><path class="cls-2" transform="rotate(-44.99 85.235 43.925)" d="M84.84 41.85h.8v4.16h-.8z"/><path class="cls-2" transform="rotate(-59.99 74.619 58.027)" d="M74.21 55.95h.8v4.16h-.8z"/><path class="cls-2" transform="rotate(-75 68.004 74.399)" d="M67.6 72.32h.8v4.16h-.8z"/><path class="cls-2" transform="rotate(-90 65.855 91.925)" d="M65.45 89.85h.8v4.16h-.8z"/><path class="cls-2" transform="rotate(-105 68.311 109.41)" d="M67.91 107.33h.8v4.16h-.8z"/><path class="cls-2" transform="rotate(-120 75.207 125.666)" d="M74.81 123.59h.8v4.16h-.8z"/><path class="cls-2" transform="rotate(-135 86.091 139.578)" d="M85.69 137.5h.8v4.16h-.8z"/><path class="cls-2" transform="rotate(-150 100.196 150.197)" d="M99.79 148.12h.8v4.16h-.8z"/><path class="cls-2" transform="rotate(-165 116.56 156.818)" d="M116.16 154.73h.8v4.16h-.8z"/><path class="cls-2" transform="rotate(180 134.09 158.96)" d="M133.69 156.88h.8v4.16h-.8z"/><path class="cls-2" transform="rotate(165 151.58 156.492)" d="M151.18 154.42h.8v4.16h-.8z"/><path class="cls-2" transform="rotate(149.99 167.826 149.608)" d="M167.43 147.52h.8v4.16h-.8z"/><path class="cls-2" transform="rotate(134.99 181.743 138.72)" d="M181.34 136.65h.8v4.16h-.8z"/><path class="cls-2" transform="rotate(120 192.37 124.611)" d="M191.96 122.54h.8v4.16h-.8z"/><path class="cls-2" transform="rotate(105 198.978 108.25)" d="M198.58 106.17h.8v4.16h-.8z"/><path class="cls-2" transform="rotate(90 201.125 90.725)" d="M200.73 88.64h.8v4.16h-.8z"/><path class="cls-2" transform="rotate(75 198.653 73.227)" d="M198.26 71.16h.8v4.16h-.8z"/><path class="cls-2" transform="rotate(60 191.768 56.992)" d="M191.36 54.91h.8v4.16h-.8z"/><path class="cls-2" transform="rotate(45 180.887 43.076)" d="M180.49 40.99h.8v4.16h-.8z"/><path class="cls-2" transform="rotate(30.01 166.766 32.436)" d="M166.39 30.37h.8v4.16h-.8z"/><path class="cls-2" transform="rotate(14.99 150.393 25.835)" d="M150.01 23.76h.8v4.16h-.8z"/><path class="cls-2" d="M132.49 21.61h.8v4.16h-.8z"/><path class="cls-2" transform="rotate(-15 115.403 26.166)" d="M115 24.07h.8v4.16h-.8z"/><path class="cls-2" transform="rotate(-30.01 99.129 33.049)" d="M98.75 30.97h.8v4.16h-.8z"/><g class="cls-12"><path class="cls-2" d="M83.1 40.78a.71.71 0 11-1 0 .71.71 0 011 0zM78.89 45.36a.72.72 0 11-1 .09.72.72 0 011-.09zM75.09 50.29a.72.72 0 11-.82 1.18.72.72 0 01.82-1.18zM71.74 55.54a.72.72 0 11-1 .26.72.72 0 011-.26zM68.85 61.06a.71.71 0 01.35.95.72.72 0 11-.35-.95zM66.46 66.81a.71.71 0 11-.46 1.34.71.71 0 11.49-1.34zM64.58 72.74a.72.72 0 11-.88.51.72.72 0 01.88-.51zM63.22 78.82a.72.72 0 11-.83.58.71.71 0 01.83-.58zM62.4 85a.71.71 0 01.65.78.72.72 0 01-.77.65.72.72 0 11.12-1.43z"/><circle class="cls-2" cx="62.12" cy="91.93" r=".72"/><path class="cls-2" d="M62.38 97.43a.72.72 0 11-.65.78.71.71 0 01.65-.78zM63.18 103.6a.73.73 0 01.83.59.72.72 0 11-.83-.59zM64.52 109.69a.71.71 0 01.88.5.72.72 0 11-1.39.37.71.71 0 01.51-.87zM66.38 115.63a.7.7 0 01.92.43.71.71 0 01-1.34.49.71.71 0 01.42-.92zM68.76 121.38a.72.72 0 01.95.35.72.72 0 01-1.3.61.72.72 0 01.35-.96zM71.62 126.91a.72.72 0 11-.26 1 .72.72 0 01.26-1zM75 132.17a.72.72 0 011 .17.71.71 0 01-.18 1 .72.72 0 01-1-.17.73.73 0 01.18-1zM78.74 137.11a.72.72 0 011 .09.72.72 0 11-1.1.92.72.72 0 01.1-1.01zM82.94 141.71a.72.72 0 011 0 .71.71 0 010 1 .72.72 0 01-1 0 .71.71 0 010-1zM87.52 145.92a.71.71 0 011-.08.71.71 0 01.09 1 .71.71 0 01-1 .08.72.72 0 01-.09-1zM92.46 149.72a.72.72 0 011-.17.72.72 0 01-.83 1.17.72.72 0 01-.17-1zM97.7 153.08a.72.72 0 011.25.71.72.72 0 01-1.25-.71zM103.22 156a.72.72 0 111.3.61.72.72 0 01-1.3-.61zM109 158.35a.72.72 0 111.35.49.72.72 0 11-1.35-.49zM114.91 160.23a.71.71 0 011.38.37.71.71 0 11-1.38-.37zM121 161.59a.72.72 0 11.58.83.71.71 0 01-.58-.83zM127.15 162.41a.73.73 0 01.78-.65.72.72 0 01-.12 1.43.72.72 0 01-.66-.78zM133.37 162.7a.72.72 0 11.72.71.72.72 0 01-.72-.71zM139.59 162.43a.72.72 0 01.66-.77.7.7 0 01.77.65.72.72 0 01-.65.78.73.73 0 01-.78-.66zM145.77 161.63a.72.72 0 11.83.58.71.71 0 01-.83-.58zM151.85 160.29a.71.71 0 11.88.51.72.72 0 01-.88-.51zM157.79 158.43a.72.72 0 11.92.43.73.73 0 01-.92-.43zM163.55 156.06a.72.72 0 111.3-.61.72.72 0 01-.35 1 .71.71 0 01-.95-.39zM169.07 153.19a.72.72 0 111 .26.72.72 0 01-1-.26zM174.33 149.85a.7.7 0 01.18-1 .72.72 0 011 .17.73.73 0 01-.18 1 .71.71 0 01-1-.17zM179.28 146.07a.71.71 0 01.09-1 .72.72 0 01.92 1.1.71.71 0 01-1.01-.1zM183.87 141.87a.71.71 0 010-1 .72.72 0 011 0 .71.71 0 010 1 .72.72 0 01-1 0zM188.09 137.29a.72.72 0 01-.09-1 .72.72 0 11.09 1zM191.89 132.36a.72.72 0 111-.18.71.71 0 01-1 .18zM195.24 127.11a.72.72 0 111-.26.72.72 0 01-1 .26zM198.12 121.59a.72.72 0 01.61-1.3.72.72 0 11-.61 1.3zM200.52 115.84a.71.71 0 11.91-.43.7.7 0 01-.91.43zM202.4 109.91a.72.72 0 11.88-.51.72.72 0 01-.88.51zM203.76 103.83a.72.72 0 11.24-1.41.73.73 0 01.59.83.71.71 0 01-.83.58zM204.58 97.66a.71.71 0 01-.65-.78.71.71 0 11.65.78zM204.86 91.44a.72.72 0 11.72-.72.72.72 0 01-.72.72zM204.6 85.22a.72.72 0 11.65-.78.72.72 0 01-.65.78zM203.8 79.05a.74.74 0 01-.84-.59.73.73 0 01.59-.83.71.71 0 01.83.58.72.72 0 01-.58.84zM202.46 73a.71.71 0 11.5-.87.7.7 0 01-.5.87zM200.59 67a.71.71 0 01-.49-1.34.71.71 0 11.49 1.34zM198.22 61.27a.72.72 0 01-.95-.35.71.71 0 01.35-1 .72.72 0 11.6 1.3zM195.36 55.74a.72.72 0 11.26-1 .71.71 0 01-.26 1zM192 50.48a.71.71 0 11-.82-1.17.71.71 0 011 .17.72.72 0 01-.18 1zM188.24 45.54a.72.72 0 01-1-.09.71.71 0 01.08-1 .71.71 0 011 .09.71.71 0 01-.08 1zM184 40.94a.72.72 0 01-1 0 .71.71 0 010-1 .72.72 0 011 0 .71.71 0 010 1zM179.45 36.73a.72.72 0 11-.08-1 .71.71 0 01.08 1zM174.52 32.93a.72.72 0 01-1 .17.71.71 0 111-.17zM169.27 29.57a.71.71 0 11-1.24-.71.72.72 0 011-.27.71.71 0 01.24.98zM163.76 26.69a.73.73 0 01-1 .35.72.72 0 111-.35zM158 24.3a.72.72 0 11-1.35-.49.72.72 0 111.35.49zM152.07 22.42a.71.71 0 11-.5-.88.71.71 0 01.5.88zM146 21.06a.71.71 0 01-.83.58.73.73 0 01-.59-.83.72.72 0 011.42.25zM139.82 20.24a.71.71 0 11-.65-.78.71.71 0 01.65.78zM133.6 20a.72.72 0 11-.71-.71.71.71 0 01.71.71zM127.38 20.22a.71.71 0 11-1.42.12.71.71 0 111.42-.12zM121.21 21a.72.72 0 11-.83-.58.71.71 0 01.83.58zM115.13 22.36a.72.72 0 01-1.39.37.72.72 0 01.51-.88.72.72 0 01.88.51zM109.19 24.22a.72.72 0 11-.92-.43.73.73 0 01.92.43zM103.43 26.59a.72.72 0 11-1.3.61.72.72 0 011.3-.61zM97.9 29.46a.72.72 0 11-1-.26.72.72 0 011 .26zM92.65 32.8a.71.71 0 01-.18 1 .71.71 0 11.18-1zM87.7 36.58a.71.71 0 01-.09 1 .72.72 0 01-.92-1.1.71.71 0 011.01.1z"/></g><path class="cls-2" d="M133.49 122a30.68 30.68 0 1121.7-9 30.48 30.48 0 01-21.7 9zm0-60.67a30 30 0 1021.2 8.78 29.79 29.79 0 00-21.2-8.77z"/><path class="cls-2" d="M133.49 118a26.69 26.69 0 1118.87-7.82 26.51 26.51 0 01-18.87 7.82zm0-53a26.34 26.34 0 1018.62 7.71A26.17 26.17 0 00133.49 65z"/><path class="cls-2" d="M133.49 114.23a22.91 22.91 0 1116.2-6.71 22.75 22.75 0 01-16.2 6.71zm0-45.64a22.74 22.74 0 1016.07 6.66 22.63 22.63 0 00-16.07-6.66z"/><path class="cls-2" d="M133.49 127.17a35.85 35.85 0 1125.34-10.5 35.61 35.61 0 01-25.34 10.5zm0-70.29A34.45 34.45 0 10157.85 67a34.22 34.22 0 00-24.36-10.12z"/><g class="cls-12"><g class="cls-10"><path class="cls-2" d="M98.9 40.17l1.23-.11-2.92-4.32-1.23.11 2.92 4.32zM103.09 39.86l1.25-.07-2.54-4.35-1.25.07 2.54 4.35zM107.36 39.68l1.27-.03-2.16-4.37-1.27.04 2.16 4.36zM111.7 39.64l1.29.01-1.78-4.37-1.29-.01 1.78 4.37zM116.1 39.73l1.3.05-1.39-4.36-1.3-.05 1.39 4.36zM120.53 39.95l1.32.09-1-4.33-1.31-.09.99 4.33zM125 40.31l1.32.13-.59-4.3-1.33-.13.6 4.3zM129.49 40.81l1.32.16-.2-4.26-1.32-.16.2 4.26zM133.99 41.43l1.32.21.2-4.21-1.33-.2-.19 4.2zM138.47 42.19l1.32.24.6-4.14-1.32-.24-.6 4.14zM142.94 43.07l1.31.28 1-4.06-1.31-.28-1 4.06zM147.38 44.08l1.31.32 1.38-3.97-1.3-.32-1.39 3.97zM151.78 45.21l1.29.35 1.78-3.86-1.29-.36-1.78 3.87zM156.12 46.46l1.27.39 2.17-3.76-1.27-.39-2.17 3.76zM160.4 47.83l1.25.42 2.54-3.64-1.25-.42-2.54 3.64zM164.6 49.31l1.22.45 2.92-3.5-1.23-.46-2.91 3.51zM168.71 50.89l1.19.49 3.29-3.36-1.2-.49-3.28 3.36zM172.72 52.58l1.16.52 3.64-3.21-1.17-.52-3.63 3.21zM176.61 54.37l1.13.55 3.98-3.05-1.13-.55-3.98 3.05zM180.39 56.26l1.09.57 4.31-2.89-1.09-.57-4.31 2.89zM184.03 58.23l1.05.6 4.64-2.71-1.06-.6-4.63 2.71zM187.53 60.29l1 .62 4.95-2.53-1-.61-4.95 2.52zM190.87 62.43l.96.64 5.24-2.34-.95-.64-5.25 2.34zM194.05 64.64l.92.66 5.52-2.14-.91-.66-5.53 2.14zM197.07 66.91l.86.68 5.79-1.94-.86-.68-5.79 1.94zM199.9 69.25l.81.69 6.04-1.73-.8-.69-6.05 1.73zM202.55 71.64l.75.71 6.28-1.52-.75-.71-6.28 1.52zM205.01 74.07l.69.73 6.49-1.31-.69-.72-6.49 1.3zM207.26 76.55l.63.73 6.7-1.08-.64-.73-6.69 1.08zM209.31 79.06l.57.74 6.87-.86-.56-.74-6.88.86zM211.14 81.59l.51.75 7.04-.63-.51-.75-7.04.63zM212.76 84.15l.45.76 7.18-.41-.45-.76-7.18.41zM214.16 86.72l.37.76 7.31-.18-.37-.76-7.31.18zM215.33 89.3l.31.75 7.41.06-.31-.77-7.41-.04zM216.28 91.87l.23.76 7.5.28-.25-.76-7.48-.28zM216.98 94.43l.18.76 7.55.51-.17-.76-7.56-.51zM217.46 96.99l.11.74 7.59.74-.1-.75-7.6-.73zM217.71 99.51l.03.74 7.62.96-.04-.74-7.61-.96zM217.71 102.01l-.03.74 7.62 1.17.03-.73-7.62-1.18zM217.49 104.48l-.1.71 7.59 1.4.11-.72-7.6-1.39zM217.03 106.9l-.17.7 7.55 1.61.17-.7-7.55-1.61zM216.33 109.27l-.24.68 7.49 1.83.24-.69-7.49-1.82zM215.41 111.58l-.31.67 7.41 2.03.3-.67-7.4-2.03zM214.25 113.83l-.37.66 7.3 2.22.37-.65-7.3-2.23zM212.87 116.02l-.44.63 7.18 2.42.44-.64-7.18-2.41zM211.27 118.12l-.51.61 7.04 2.61.51-.61-7.04-2.61zM209.45 120.15l-.57.59 6.88 2.78.56-.58-6.87-2.79zM207.41 122.1l-.63.55 6.7 2.96.63-.56-6.7-2.95zM205.17 123.95l-.68.53 6.49 3.12.69-.53-6.5-3.12zM202.73 125.7l-.74.5 6.28 3.28.74-.5-6.28-3.28zM200.1 127.36l-.8.47 6.04 3.42.8-.47-6.04-3.42zM197.28 128.9l-.86.44 5.79 3.57.86-.44-5.79-3.57zM194.28 130.34l-.91.41 5.53 3.69.9-.41-5.52-3.69zM191.1 131.67l-.95.37 5.24 3.81.96-.38-5.25-3.8zM187.77 132.88l-1.01.33 4.96 3.92 1-.34-4.95-3.91zM184.29 133.96l-1.05.3 4.63 4.01 1.05-.3-4.63-4.01zM180.66 134.93l-1.1.26 4.32 4.09 1.09-.26-4.31-4.09zM176.89 135.76l-1.13.23 3.98 4.17 1.13-.23-3.98-4.17zM173 136.47l-1.16.19 3.63 4.23 1.17-.19-3.64-4.23zM169 137.05l-1.19.15 3.28 4.28 1.19-.15-3.28-4.28zM164.9 137.49l-1.22.11 2.91 4.32 1.22-.11-2.91-4.32zM160.71 137.81l-1.25.07 2.54 4.34 1.25-.07-2.54-4.34zM156.44 137.98l-1.27.04 2.16 4.36 1.27-.03-2.16-4.37zM152.1 138.03l-1.29-.01 1.78 4.36 1.29.01-1.78-4.36zM147.7 137.94l-1.3-.05 1.39 4.36 1.3.04-1.39-4.35zM143.26 137.71l-1.31-.09 1 4.34 1.31.08-1-4.33zM138.79 137.35l-1.31-.13.59 4.31 1.33.12-.61-4.3zM134.31 136.85l-1.32-.16.2 4.26 1.32.17-.2-4.27zM129.81 136.23l-1.32-.2-.2 4.2 1.33.21.19-4.21zM125.33 135.47l-1.32-.24-.6 4.14 1.32.24.6-4.14zM120.86 134.59l-1.32-.28-.99 4.06 1.31.28 1-4.06zM116.42 133.59l-1.3-.32-1.39 3.97 1.3.31 1.39-3.96zM112.02 132.45l-1.29-.35-1.78 3.87 1.29.35 1.78-3.87zM107.68 131.2l-1.27-.38-2.17 3.75 1.27.39 2.17-3.76zM103.4 129.84l-1.25-.42-2.54 3.63 1.25.42 2.54-3.63zM99.2 128.36l-1.22-.45-2.92 3.5 1.23.45 2.91-3.5zM95.09 126.77l-1.19-.48-3.28 3.36 1.19.48 3.28-3.36zM91.08 125.08l-1.16-.51-3.64 3.21 1.17.51 3.63-3.21zM87.19 123.29l-1.13-.54-3.98 3.05 1.13.54 3.98-3.05zM83.41 121.41l-1.09-.58-4.31 2.89 1.09.57 4.31-2.88zM79.77 119.43l-1.05-.59-4.64 2.71 1.06.59 4.63-2.71zM76.28 117.37l-1.01-.62-4.95 2.53 1.01.62 4.95-2.53zM72.93 115.23l-.96-.64-5.25 2.34.97.64 5.24-2.34zM69.75 113.03l-.92-.66-5.52 2.14.91.66 5.53-2.14zM66.73 110.75l-.86-.68-5.79 1.94.86.68 5.79-1.94zM63.9 108.42l-.81-.7-6.04 1.73.8.7 6.05-1.73zM61.25 106.03l-.75-.71-6.28 1.51.75.72 6.28-1.52zM58.79 103.59l-.69-.72-6.49 1.3.69.72 6.49-1.3zM56.54 101.11l-.63-.73-6.7 1.08.64.74 6.69-1.09zM54.49 98.61l-.57-.75-6.87.86.57.75 6.87-.86zM52.66 96.07l-.51-.75-7.04.63.51.75 7.04-.63zM51.04 93.51l-.44-.75-7.19.4.45.76 7.18-.41zM49.64 90.94l-.37-.76-7.31.18.38.76 7.3-.18zM48.47 88.37l-.31-.76-7.41-.05.31.76 7.41.05zM47.53 85.79l-.25-.75-7.48-.28.24.76 7.49.27zM46.82 83.23l-.18-.76-7.55-.5.17.75 7.56.51zM46.34 80.68l-.11-.75-7.59-.73.1.75 7.6.73zM46.09 78.15l-.03-.74-7.62-.96.04.74 7.61.96zM46.09 75.65l.03-.73-7.62-1.18-.03.73 7.62 1.18zM46.31 73.19l.11-.72-7.6-1.4-.1.72 7.59 1.4zM46.77 70.77l.18-.71-7.56-1.61-.17.71 7.55 1.61zM47.47 68.4l.24-.69-7.49-1.82-.24.69 7.49 1.82zM48.4 66.08l.3-.67-7.4-2.02-.31.67 7.41 2.02zM49.55 63.83l.37-.65-7.3-2.23-.38.66 7.31 2.22zM50.93 61.65l.44-.63-7.18-2.42-.44.63 7.18 2.42zM52.54 59.54l.5-.61-7.04-2.6-.51.6 7.05 2.61zM54.35 57.51l.57-.58-6.87-2.79-.57.59 6.87 2.78zM56.39 55.57l.63-.56-6.7-2.96-.63.56 6.7 2.96zM58.63 53.72l.69-.53-6.5-3.13-.69.53 6.5 3.13zM61.07 51.96l.75-.5-6.28-3.28-.75.51 6.28 3.27zM63.7 50.31l.81-.47-6.05-3.43-.8.47 6.04 3.43zM66.52 48.76l.86-.44-5.79-3.56-.86.44 5.79 3.56zM69.52 47.32l.91-.41-5.52-3.68-.92.4 5.53 3.69zM72.7 46l.96-.38-5.25-3.8-.96.37L72.7 46zM76.03 44.79l1-.34-4.94-3.91-1.01.34 4.95 3.91zM79.52 43.7l1.04-.3-4.63-4.01-1.05.3 4.64 4.01zM83.15 42.74l1.09-.26-4.32-4.1-1.09.26 4.32 4.1zM86.91 41.9l1.13-.23-3.98-4.16-1.13.22 3.98 4.17zM90.8 41.19l1.16-.19-3.63-4.23-1.17.19 3.64 4.23zM94.8 40.62l1.19-.15-3.28-4.28-1.19.14 3.28 4.29z"/></g><g style="mix-blend-mode:screen"><path class="cls-2" d="M85.33 20.15l1.72-.15-4.11-6.1-1.73.15 4.12 6.1zM91.24 19.71l1.76-.1-3.58-6.13-1.77.1 3.59 6.13zM97.27 19.46l1.79-.04-3.05-6.16-1.79.04 3.05 6.16zM103.39 19.4l1.82.01-2.51-6.16-1.81-.01 2.5 6.16zM109.6 19.53l1.83.07-1.96-6.15-1.83-.07 1.96 6.15zM115.86 19.85l1.85.12-1.4-6.12-1.85-.12 1.4 6.12zM122.17 20.36l1.86.18-.85-6.08-1.86-.18.85 6.08zM128.5 21.05l1.87.24-.28-6.01-1.87-.24.28 6.01zM134.84 21.94l1.87.29.28-5.94-1.87-.29-.28 5.94zM141.18 23l1.86.34.84-5.84-1.86-.34-.84 5.84zM147.49 24.25l1.85.39 1.4-5.73-1.85-.39-1.4 5.73zM153.75 25.67l1.84.45 1.96-5.6-1.84-.45-1.96 5.6zM159.96 27.27l1.82.49 2.51-5.46-1.82-.49-2.51 5.46zM166.09 29.03l1.79.55 3.05-5.31-1.79-.54-3.05 5.3zM172.12 30.96l1.77.59 3.59-5.13-1.77-.59-3.59 5.13zM178.05 33.05l1.73.64 4.11-4.95-1.73-.64-4.11 4.95zM183.85 35.29l1.69.68 4.62-4.74-1.68-.69-4.63 4.75zM189.5 37.67l1.65.73 5.13-4.53-1.64-.73-5.14 4.53zM195.01 40.2l1.59.77 5.62-4.31-1.6-.77-5.61 4.31zM200.33 42.86l1.54.8 6.09-4.07-1.54-.8-6.09 4.07zM205.47 45.65l1.48.84 6.55-3.83-1.49-.83-6.54 3.82zM210.41 48.55l1.42.87 6.98-3.56-1.42-.87-6.98 3.56zM215.13 51.57l1.35.9 7.4-3.3-1.35-.9-7.4 3.3zM219.62 54.68l1.29.94 7.8-3.02-1.29-.94-7.8 3.02zM223.87 57.9l1.22.95 8.17-2.73-1.21-.96-8.18 2.74zM227.87 61.19l1.14.98 8.53-2.44-1.13-.98-8.54 2.44zM231.61 64.56l1.06 1.01 8.86-2.15-1.06-1-8.86 2.14zM235.08 68l.97 1.02 9.17-1.83-.97-1.03-9.17 1.84zM238.26 71.5l.89 1.03L248.6 71l-.89-1.03-9.45 1.53zM241.15 75.04l.81 1.05 9.7-1.21-.81-1.06-9.7 1.22zM243.74 78.62l.72 1.06 9.93-.9-.72-1.06-9.93.9zM246.02 82.23l.63 1.06 10.14-.57-.63-1.07-10.14.58zM247.99 85.85l.54 1.07 10.31-.25-.53-1.07-10.32.25zM249.65 89.49l.44 1.07 10.45.07-.44-1.07-10.45-.07zM250.98 93.12l.34 1.07 10.57.39-.34-1.07-10.57-.39zM251.98 96.74l.25 1.07 10.66.71-.25-1.07-10.66-.71zM252.66 100.34l.15 1.06 10.71 1.03-.14-1.05-10.72-1.04zM253 103.91l.05 1.04 10.75 1.35-.05-1.04-10.75-1.35zM253.01 107.43l-.04 1.04 10.74 1.66.05-1.03-10.75-1.67zM252.69 110.91l-.14 1.02 10.72 1.97.14-1.02-10.72-1.97zM252.04 114.33l-.24.99 10.66 2.27.24-.99-10.66-2.27zM251.06 117.67l-.34.97 10.58 2.58.33-.98-10.57-2.57zM249.75 120.94l-.43.95 10.45 2.86.44-.95-10.46-2.86zM248.13 124.11l-.53.93 10.3 3.14.53-.92-10.3-3.15zM246.18 127.2l-.63.89 10.14 3.41.62-.89-10.13-3.41zM243.92 130.17l-.72.86 9.93 3.68.72-.86-9.93-3.68zM241.35 133.03l-.81.83 9.71 3.93.8-.82-9.7-3.94zM238.48 135.78l-.89.79 9.45 4.17.89-.79-9.45-4.17zM235.31 138.39l-.97.75 9.17 4.41.98-.75-9.18-4.41zM231.87 140.87l-1.06.7 8.87 4.63 1.05-.71-8.86-4.62zM228.16 143.2l-1.14.67 8.53 4.83 1.13-.66-8.52-4.84zM224.17 145.39l-1.21.62 8.17 5.02 1.22-.62-8.18-5.02zM219.94 147.42l-1.29.57 7.8 5.21 1.29-.57-7.8-5.21zM215.46 149.29l-1.35.52 7.4 5.38 1.35-.53-7.4-5.37zM210.75 150.99l-1.41.48 6.98 5.52 1.42-.48-6.99-5.52zM205.83 152.53l-1.48.42 6.55 5.66 1.48-.43-6.55-5.65zM200.71 153.89l-1.54.37 6.09 5.78 1.54-.38-6.09-5.77zM195.4 155.07l-1.6.32 5.62 5.88 1.59-.32-5.61-5.88zM189.91 156.07l-1.64.26 5.13 5.97 1.64-.26-5.13-5.97zM184.26 156.88l-1.68.21 4.63 6.05 1.68-.22-4.63-6.04zM178.47 157.51l-1.72.16 4.11 6.09 1.73-.15-4.12-6.1zM172.56 157.95l-1.76.1 3.58 6.14 1.77-.1-3.59-6.14zM166.53 158.2l-1.79.05 3.05 6.15 1.79-.04-3.05-6.16zM160.4 158.26l-1.81-.01 2.51 6.16 1.81.02-2.51-6.17zM154.2 158.13l-1.83-.07 1.96 6.16 1.83.06-1.96-6.15zM147.94 157.81l-1.85-.12 1.4 6.12 1.85.12-1.4-6.12zM141.63 157.31l-1.86-.18.85 6.07 1.86.18-.85-6.07zM135.3 156.61l-1.87-.23.29 6.01 1.86.23-.28-6.01zM128.96 155.73l-1.87-.29-.28 5.93 1.87.29.28-5.93zM122.62 154.66l-1.86-.34-.84 5.84 1.86.34.84-5.84zM116.31 153.42l-1.85-.4-1.4 5.73 1.85.39 1.4-5.72zM110.05 151.99l-1.84-.44-1.96 5.6 1.84.44 1.96-5.6zM103.84 150.4l-1.81-.5-2.52 5.46 1.82.5 2.51-5.46zM97.71 148.63l-1.79-.54-3.05 5.3 1.79.54 3.05-5.3zM91.67 146.7l-1.75-.59-3.59 5.13 1.76.59 3.58-5.13zM85.75 144.62l-1.73-.64-4.11 4.94 1.73.64 4.11-4.94zM79.95 142.38l-1.68-.69-4.64 4.75 1.69.68 4.63-4.74zM74.3 139.99l-1.65-.73-5.13 4.54 1.64.72 5.14-4.53zM68.8 137.46l-1.6-.76-5.62 4.31 1.6.76 5.62-4.31zM63.47 134.8l-1.54-.8-6.09 4.07 1.54.8 6.09-4.07zM58.33 132.02l-1.48-.84L50.3 135l1.49.84 6.54-3.82zM53.39 129.11l-1.41-.87-6.99 3.56 1.42.88 6.98-3.57zM48.67 126.1l-1.35-.91-7.41 3.3 1.36.9 7.4-3.29zM44.18 122.98l-1.29-.93-7.8 3.02 1.29.93 7.8-3.02zM39.93 119.77l-1.22-.96-8.17 2.73 1.21.96 8.18-2.73zM35.92 116.47l-1.13-.98-8.53 2.44 1.13.99 8.53-2.45zM32.19 113.1l-1.06-1-8.86 2.14 1.06 1 8.86-2.14zM28.73 109.66l-.98-1.02-9.17 1.84.98 1.02 9.17-1.84zM25.54 106.17l-.89-1.04-9.45 1.53.89 1.03 9.45-1.52zM22.65 102.63l-.8-1.05-9.71 1.21.81 1.05 9.7-1.21zM20.06 99.05l-.71-1.06-9.94.89.72 1.06 9.93-.89zM17.78 95.44l-.63-1.07-10.14.57.63 1.07 10.14-.57zM15.8 91.81l-.53-1.07-10.31.25.54 1.07 10.3-.25zM14.15 88.17l-.43-1.06-10.46-.08.44 1.08 10.45.06zM12.82 84.54l-.34-1.07-10.57-.39.34 1.07 10.57.39zM11.82 80.92l-.25-1.06-10.66-.72.25 1.07 10.66.71zM11.14 77.32L11 76.27.27 75.23l.15 1.06 10.72 1.03zM10.8 73.75l-.05-1.04L0 71.36l.05 1.05 10.75 1.34zM10.79 70.23l.05-1.03L.09 67.53l-.05 1.03 10.75 1.67zM11.11 66.75l.14-1.01L.53 63.77l-.14 1.01 10.72 1.97zM11.76 63.34l.24-1-10.66-2.27-.24.99 10.66 2.28zM12.74 59.99l.34-.97L2.5 56.45l-.33.97 10.57 2.57zM14.05 56.73l.43-.95-10.45-2.86-.44.95 10.46 2.86zM15.68 53.55l.53-.92-10.32-3.15-.52.93 10.31 3.14zM17.63 50.47l.62-.89-10.14-3.42-.62.89 10.14 3.42zM19.89 47.49l.71-.86-9.93-3.68-.72.86 9.94 3.68zM22.46 44.63l.8-.83-9.71-3.93-.8.83 9.71 3.93zM25.32 41.89l.9-.79-9.45-4.18-.89.79 9.44 4.18zM28.49 39.27l.97-.75-9.17-4.4-.97.75 9.17 4.4zM31.93 36.8l1.06-.71-8.87-4.63-1.05.71 8.86 4.63zM35.65 34.46l1.13-.66-8.53-4.84-1.13.67 8.53 4.83zM39.63 32.28l1.21-.62-8.17-5.03-1.22.62 8.18 5.03zM43.87 30.25l1.28-.58-7.8-5.2-1.29.57 7.81 5.21zM48.34 28.38l1.36-.53-7.41-5.37-1.35.52 7.4 5.38zM53.05 26.67l1.42-.47-6.99-5.53-1.42.48 6.99 5.52zM57.97 25.14l1.48-.43-6.54-5.66-1.49.43 6.55 5.66zM63.09 23.78l1.54-.37-6.09-5.78L57 18l6.09 5.78zM68.41 22.6l1.59-.32-5.62-5.89-1.6.32 5.63 5.89zM73.89 21.6l1.64-.27-5.13-5.97-1.64.27 5.13 5.97zM79.54 20.78l1.68-.21-4.63-6.04-1.68.21 4.63 6.04z"/></g><path class="cls-22" d="M131.65 144.92a183.92 183.92 0 01-37.52-9.49 145.73 145.73 0 01-31.92-16.22c-9.53-6.55-17-13.75-22.13-21.39s-7.72-15.28-7.62-22.7a31 31 0 017.63-19.78c5-6 12.07-10.93 21.14-14.78 9.38-4 20.45-6.56 32.91-7.68a168.41 168.41 0 0138.92 1.21 184 184 0 0137.51 9.5 145.07 145.07 0 0131.92 16.22c9.53 6.55 17 13.74 22.13 21.39s7.72 15.28 7.62 22.7a31.05 31.05 0 01-7.63 19.78c-5 6-12.07 10.93-21.14 14.77-9.38 4-20.45 6.57-32.91 7.69a167.78 167.78 0 01-38.91-1.22zM40.3 97.8c21 31.15 79.41 52.77 130.17 48.2s74.95-33.63 53.93-64.78S145 28.44 94.23 33 19.28 66.64 40.3 97.8z"/><path class="cls-22" d="M131.62 146.72a190.24 190.24 0 01-38.73-9.81 150 150 0 01-32.95-16.74C50.11 113.41 42.42 106 37.1 98.09s-8-15.78-7.87-23.43a32.09 32.09 0 017.87-20.43C42.23 48.08 49.57 43 58.93 39c9.68-4.11 21.11-6.78 34-7.93a173.21 173.21 0 0140.18 1.25 190.22 190.22 0 0138.73 9.8 150.48 150.48 0 0132.95 16.75c9.83 6.76 17.52 14.19 22.84 22.08s8 15.77 7.87 23.43a32.09 32.09 0 01-7.87 20.42c-5.13 6.16-12.47 11.29-21.83 15.26-9.68 4.1-21.11 6.77-34 7.93a173.76 173.76 0 01-40.18-1.27zM38.41 98c21.45 31.79 81.05 53.86 132.84 49.19s76.49-34.32 55-66.11-81-53.86-132.84-49.2S17 66.18 38.41 98z"/></g></g></g></g></svg>