<svg xmlns="http://www.w3.org/2000/svg" viewBox="0 0 434.6 20.99"><defs><style>.cls-1{fill:#61b8ff}</style></defs><g id="图层_2" data-name="图层 2"><g id="Layer_8" data-name="Layer 8"><path class="cls-1" d="M5.88 16.13v-1.45h2.28l4.45 4.44h8.05v1.87h-9.92l-4.86-4.86z"/><path class="cls-1" d="M4.92 12.51l.54-.54 2.17 2.17H5.52v2.6l-.6-.61v-3.62zM0 2.02V0h5.49l1.5 1.5H1.5v2.02L0 2.02z"/><path class="cls-1" d="M16.73 18.54h-3.94L1.94 7.69V1.88h3.94v5.81l10.85 10.85zM428.72 4.86v1.45h-2.29l-4.44-4.44h-8.05V0h9.92l4.86 4.86z"/><path class="cls-1" d="M429.68 8.47l-.54.55-2.17-2.18h2.1V4.25l.61.61v3.61zM434.6 18.96v2.03h-5.49l-1.5-1.51h5.49v-2.02l1.5 1.5z"/><path class="cls-1" d="M417.86 2.44h3.95l10.85 10.85v5.81h-3.95v-5.81L417.86 2.44zM122.57 15.75H17.92L9.35 7.18H114l8.57 8.57z"/><path fill="#6be6ff" d="M7.63 10.98h421.09v.98H7.63z"/></g></g></svg>