<svg xmlns="http://www.w3.org/2000/svg" viewBox="0 0 10.33 28.04"><g data-name="图层 2"><path d="M6 19.85h1.31a.83.83 0 00.83-.85v-1.56l2.19-3.6-.93-3.26V0h-.82v7.72l-.83-2.9H2.58l-.8 2.8V0H1v10.47l-1 3.37 2.22 3.63V19a.83.83 0 00.83.83h1.33a2.91 2.91 0 001.33 2.8c1.43.89 1.09 2.75-.54 2.75-1.93 0-1.44-2.86-3-2.86-.88 0-.09 1-.09 2 0 4.64 7.1 4.58 7.1 0 .02-3.14-2.82-2.95-3.18-4.67zM2 7.61L4.57 5h1.92l-5.25 5.29zM.27 13.74l.2-.74L7.8 5.7l.42 1.5L.8 14.63zm2 3.32l-.72-1.2 7.11-7.13.42 1.51zm2.12 1.36a.82.82 0 01-.67-.35h.72zm1-.59H3.46l6.05-6.06.42 1.51zm.63.59v-.35h.68a.85.85 0 01-.68.35z" fill="#375d81" data-name="Layer 1"/></g></svg>