<svg xmlns="http://www.w3.org/2000/svg" viewBox="0 0 322.56 146.72"><defs><style>.cls-2{fill:#ffec9d}.cls-3{mix-blend-mode:overlay}</style></defs><g style="isolation:isolate"><g id="图层_2" data-name="图层 2"><g id="图层_1-2" data-name="图层 1"><path class="cls-2" d="M170.85 136.54a3.68 3.68 0 11-3.68 3.67 3.68 3.68 0 013.68-3.67zm0 1.93a1.74 1.74 0 101.74 1.74 1.74 1.74 0 00-1.74-1.74zM235.83 78a3 3 0 11-3 3 3 3 0 013-3zm0 1.94a1.1 1.1 0 101.1 1.09 1.1 1.1 0 00-1.1-1.09zM213 126.35a3 3 0 11-3 3 3 3 0 013-3zm0 1.94a1.1 1.1 0 101.09 1.09 1.09 1.09 0 00-1.09-1.09zM114.08 52.35v3.09h.39v-2.92l35.69-31.12h15.75v-.38h-15.89l-.01-.02-35.93 31.35zM168.24 21.02v.38h29.19l6.41 6.37-3.4.01-4.07-4.06h-20.79v.39h20.63l4.07 4.02 4.49.06-7.18-7.17h-29.35z"/><path class="cls-2" d="M92.42 44.01V59.7h24.67l-.01-5.83 34.11-29.76h22.07v-.39h-22.22l-.05-.01-34.29 29.95v5.65H92.81V44.18l15.47-14.02v-7.65l14.78-14.64h6.87l6.09-6.19h41.88v-.39h-42.04l-6.09 6.19h-6.87l-15.01 14.87v7.64L92.42 44.01zM133.58 119.48l16.43 16.41h47.59l18.53-21.13-.29-.23-18.41 20.97h-47.26l-16.32-16.26-.27.24zM114.08 95.67v4.27l17.77 17.72.3-.28-17.68-17.6v-3.73h2.32v2.86l13.62 13.59.3-.27-13.53-13.48v-3.08h-3.1z"/><path class="cls-2" d="M132.25 114.44l18.78 18.75h45.35l29.87-34.28V53.58l-.1-.06-12.06-12.17 3.41.06 11.07 11.11v47.26l-11.09 12.66.32.25 11.16-12.76V52.35l-11.31-11.32-4.46-.09 12.68 12.79v45.03l-29.66 34.04h-45.02l-18.67-18.6-.27.24zM95.52 49.81v7.95h8.51V48.2l42.57-36.85h55.93l15.41 15.6.27-.24-15.52-15.75h-56.23l-.01-.02-42.81 37.09v9.34h-7.73v-7.39l21.73-19.38 4.95-4.89v-6.29l4.99-4.98h10.47l8.42-8.51h34.91v-.39H146.3l-8.41 8.51h-10.47l-5.21 5.21v6.28l-4.83 4.78-21.86 19.49z"/><path class="cls-2" d="M93.58 96.05v11.94l5.92 5.96.3-.27-5.83-5.85V96.44h9.67v7.83l.01.12 42.8 42.33h56.24l.11-.13 36.6-42.33V48.04l-.1-.06-5.52-5.51-.24.27 5.48 5.46v55.92l-36.5 42.22h-55.91l-42.58-42.23v-8.06H93.58z"/><path class="cls-2" d="M154 31.07h39.63l26 26v39.62L193.76 127h-39.83l-30.18-30.2V57zm1.81 91.28h35.79L215 95V59l-23.27-23.29h-36L128.4 59.09v35.78z"/><path class="cls-2" d="M152.15 26H196l28.76 28.74v43.83L196.05 132h-44l-33.32-33.32v-44zM154 127.38h39.95l26.14-30.53V56.69l-26-26h-40.22l-30.5 26.11v40z"/><path class="cls-2" d="M105.96 96.05v7.26l41.45 41.48h54.38l11.09-13.11-2.06-1.73-10.29 12.13h-52l-39.86-39.89v-3.43h.39v3.41l39.5 39.52h20.06v-2.7h-18.95l-37.91-37.95v-4.99h-5.8zM213.48 126.67l2.08 1.76 21.52-25.18V83.68h-2.7v18.57l-20.9 24.42z"/><path class="cls-2" d="M173.65 138.99v2.7h26.72l33.62-39.59V50.42l-6.52-6.56.67.01 6.24 6.25v28.53h2.7V49l-7.82-7.81-8.35-.15 10.37 10.5v49.57l-32.16 37.88h-25.47zM147.47 13.67h54.24l14.78 14.49h-8.6l-8.71-8.7h-49.57l-37.85 32.15v6.15H106v-8.82zm-38.41 41.38v-4.7l39.56-33.59h51.68l8.7 8.73h.9l-9.3-9.08h-52.13l-39.8 33.82v4.86zM64.58 101.94v5.72h11.04l6.29 6.18h4.54l15.12 15.07.28-.25-15.24-15.2h-4.55l-6.28-6.19H64.96v-5.17l8.11-7.98h42.95v-.39H72.91l-8.33 8.21z"/><path class="cls-2" d="M17.41 85.22v1.55h286.51l-.01 2.71H26.69v1.54h278.76l.02-5.8H17.41zM9.28 73.62v1.55h296.28v-5.42H15.47v1.55h288.55v2.32H9.28zM0 77.1v2.32h303.24v1.94H8.51v2.31h297.05V77.1H0zM22.82 66.66v1.16h282.74v-6.58H30.94v1.16H304.4v4.26H22.82zM210.54 38.42l1.91 1.55h81.68l-15.44-9.67h42.33v-.39h-43.67l15.44 9.67h-80.31l-.97-.77h78.21l-15.48-9.67h46.39v-.39h-47.74l15.48 9.67h-77.83z"/><path class="cls-2" d="M207.94 36.1l1.97 1.55h75.34l-15.72-9.67h51.1v-.39h-52.47l15.72 9.67h-73.82l-.97-.77h71.53l-16.07-9.67h56.47v-.39h-57.87l16.08 9.67h-71.29z"/><path class="cls-2" d="M205.23 33.78l2.17 1.55h68.97l-16.24-9.67h59.34v-.39h-60.75l16.25 9.67h-67.33l-1.16-.96 65.65.15-16.63-9.63h64.74v-.39h-66.18l16.64 9.67h-65.47z"/><path class="cls-2" d="M202.91 31.46l1.93 1.55h62.24l-16.05-9.67h71.15v-.39h-72.54l16.05 9.67h-60.76l-1-.77h58.91l-16.34-9.67h76.06v-.39h-77.48l16.35 9.67h-58.52z"/><path class="cls-2" d="M200.59 29.14l1.93 1.54h56.07l-16.53-9.66h79.73v-.39h-81.16l16.53 9.67h-54.55l-.85-.78h51.86l.53-.06-.62-.35-16.11-9.25h85.14v-.39h-86.59l16.77 9.67h-52.15zM174.43 22.43a1.45 1.45 0 11-1.43 1.45 1.45 1.45 0 011.43-1.45zm0 .39a1.07 1.07 0 101.06 1.06 1.07 1.07 0 00-1.06-1.06z"/><path class="cls-2" d="M218.91 25.91a1.46 1.46 0 11-1.45 1.46 1.46 1.46 0 011.45-1.46zm0 .39a1.07 1.07 0 101.09 1.07 1.07 1.07 0 00-1.09-1.07zM232.83 40.23a1.45 1.45 0 11-1.45 1.45 1.45 1.45 0 011.45-1.45zm0 .38a1.07 1.07 0 101.07 1.07 1.07 1.07 0 00-1.07-1.07zM217 112.17a1.45 1.45 0 11-1.45 1.45 1.45 1.45 0 011.45-1.45zm0 .39a1.06 1.06 0 101.07 1.06 1.06 1.06 0 00-1.07-1.06zM167.08 19.73a1.45 1.45 0 11-1.45 1.45 1.45 1.45 0 011.45-1.45zm0 .38a1.07 1.07 0 101.06 1.07 1.07 1.07 0 00-1.06-1.07zM182.55 4.25a1.46 1.46 0 11-1.45 1.46 1.46 1.46 0 011.45-1.46zm0 .39a1.07 1.07 0 101.06 1.07 1.06 1.06 0 00-1.06-1.07zM179.07 0a1.45 1.45 0 11-1.45 1.45A1.45 1.45 0 01179.07 0zm0 .39a1.06 1.06 0 101.06 1.06 1.06 1.06 0 00-1.06-1.06zM100.55 113.33a1.45 1.45 0 11-1.45 1.45 1.45 1.45 0 011.45-1.45zm0 .39a1.06 1.06 0 101.06 1.06 1.05 1.05 0 00-1.06-1.06zM96.68 113.33a1.45 1.45 0 11-1.45 1.45 1.45 1.45 0 011.45-1.45zm0 .39a1.06 1.06 0 101.07 1.06 1.06 1.06 0 00-1.07-1.06zM91.65 113.33a1.45 1.45 0 11-1.45 1.45 1.45 1.45 0 011.45-1.45zm0 .39a1.06 1.06 0 101.07 1.06 1.06 1.06 0 00-1.07-1.06zM102.48 128a1.45 1.45 0 11-1.45 1.45 1.45 1.45 0 011.45-1.45zm0 .38a1.07 1.07 0 101.07 1.07 1.07 1.07 0 00-1.07-1.04zM114.09 54.92a1.46 1.46 0 11-1.45 1.45 1.45 1.45 0 011.45-1.45zm0 .39a1.07 1.07 0 101.06 1.06 1.07 1.07 0 00-1.06-1.06zM131.49 111.78a1.45 1.45 0 11-1.45 1.45 1.45 1.45 0 011.45-1.45zm0 .39a1.07 1.07 0 101.07 1.06 1.07 1.07 0 00-1.07-1.06zM133 116.81a1.45 1.45 0 11-1.45 1.45 1.45 1.45 0 011.45-1.45zm0 .39a1.06 1.06 0 101.06 1.06 1.05 1.05 0 00-1.06-1.06zM137.1 146.57l-.14-5.79-3.85-3.85.13 5.79.01-.01h-5.92l3.85 3.85h5.93l-.01.01zM129.51 138.99l-.13-5.8-3.85-3.85.13 5.79h.01-5.92l3.85 3.85h5.93l-.02.01zM121.93 131.41l-.13-5.8-3.85-3.85.13 5.79-5.91-.01 3.85 3.85 5.92.01-.01.01zM114.35 123.83l-.13-5.8-3.85-3.85.12 5.79.01-.01h-5.92l3.85 3.85h5.93l-.01.02zM228.17 26.87l-.1-4.63-3.08-3.08.1 4.63h.01l-4.73-.01 3.07 3.08h4.74l-.01.01zM222.11 20.81l-.1-4.63-3.08-3.08.1 4.63h.01l-4.73-.01 3.07 3.08h4.74l-.01.01zM216.05 14.75l-.1-4.63-3.08-3.08.1 4.63v-.01h-4.72l3.07 3.08h4.74l-.01.01zM114.17 135.37l-.08-3.39-2.25-2.26.07 3.39h.01-3.47l2.25 2.25 3.48.01h-.01zM109.73 130.93l-.08-3.4-2.26-2.25.08 3.39-3.46-.01 2.25 2.26h3.47v.01zM100.84 122.05l-.07-3.4-2.26-2.26.07 3.4.01-.01h-3.47l2.26 2.26h3.47l-.01.01z"/><path class="cls-2" d="M71.47 104.56h9.56l9.52 9.45.27-.24-9.63-9.6h-8.8l5.71-5.8h10.46v8.46l6.97 7.17.3-.27-6.89-7.06v-8.68h-11l-6.47 6.57zM140.74 34a2.61 2.61 0 110-3.69 2.61 2.61 0 010 3.69zm-3.42-3.41a2.22 2.22 0 103.15 0 2.22 2.22 0 00-3.15 0zM133.08 34a2.61 2.61 0 110-3.69 2.61 2.61 0 010 3.69zm-3.42-3.41a2.22 2.22 0 103.15 0 2.23 2.23 0 00-3.15 0zM125.42 34a2.61 2.61 0 110-3.69 2.61 2.61 0 010 3.69zM122 30.59a2.22 2.22 0 103.14 0 2.22 2.22 0 00-3.14 0z"/><g class="cls-3"><path class="cls-2" d="M122.72 37.65a1.82 1.82 0 011.81 1.93H156l7-7h39l7.38 7.42a1.85 1.85 0 011.14-.49 1.78 1.78 0 110 3.56 1.81 1.81 0 01-1.8-1.81 1.46 1.46 0 01.39-1L201.8 33h-38.64l-7 7h-31.68a1.73 1.73 0 01-1.76 1.29 1.81 1.81 0 010-3.61zM157.53 17.2a1.77 1.77 0 011.81 1.88h23.12l7.77 7.74h18.28l4.19-4.26a1.88 1.88 0 01-.5-1.28 1.82 1.82 0 011.8-1.83 1.8 1.8 0 11-1 3.37l-4.32 4.38h-18.6l-7.77-7.73h-23a1.77 1.77 0 01-1.76 1.34 1.81 1.81 0 010-3.61zM173 29.82a1.74 1.74 0 01-1.8-1.82h-23.74L138 18.69h-26.62a1.73 1.73 0 01-1.81 1.84 1.78 1.78 0 01-1.8-1.78 1.82 1.82 0 011.8-1.83 1.8 1.8 0 011.76 1.39h26.81l9.48 9.28h23.62a1.81 1.81 0 111.76 2.23z"/></g><g class="cls-3"><path class="cls-2" d="M115.32 63.95h-12.84v-.39h12.68l7.35-7.35h5.97l5.7 5.81h12.39v.38h-12.55l-5.71-5.8h-5.64l-7.35 7.35zM106.82 60.08h-3.95v-.38h3.78l3-3.1h8.22l6.13-6.13.28.27-6.25 6.25h-8.22l-2.99 3.09z"/><path class="cls-2" d="M152.38 67.04H137.7l-2.81-2.7h-7.44l-3.15-3.11.27-.27 3.03 2.99h7.45l2.8 2.71h14.53v.38z"/><circle class="cls-2" cx="102.96" cy="59.98" r="1.26"/><path class="cls-2" d="M101.71 63.88a1.26 1.26 0 012.51-.05 1.26 1.26 0 11-2.51.05zM123 50.73a1.25 1.25 0 011.23-1.28 1.26 1.26 0 11.05 2.51 1.26 1.26 0 01-1.28-1.23zM130.33 50.73a1.25 1.25 0 011.23-1.28 1.26 1.26 0 11.05 2.51 1.26 1.26 0 01-1.28-1.23zM145.41 48a1.26 1.26 0 111.29 1.23 1.27 1.27 0 01-1.29-1.23zM134.58 54.59a1.26 1.26 0 111.29 1.24 1.27 1.27 0 01-1.29-1.24zM150.44 53.05a1.26 1.26 0 111.28 1.23 1.27 1.27 0 01-1.28-1.23zM175.58 67.36a1.26 1.26 0 111.29 1.23 1.27 1.27 0 01-1.29-1.23zM175.58 60a1.26 1.26 0 111.29 1.23 1.26 1.26 0 01-1.29-1.23zM150.44 48a1.26 1.26 0 111.28 1.23 1.27 1.27 0 01-1.28-1.23zM166.69 42.6a1.26 1.26 0 111.31 1.24 1.26 1.26 0 01-1.31-1.24zM169.78 27.91a1.26 1.26 0 111.28 1.23 1.27 1.27 0 01-1.28-1.23zM164.37 28.68a1.26 1.26 0 012.51-.05 1.26 1.26 0 01-1.23 1.28 1.25 1.25 0 01-1.28-1.23zM123 61.17a1.26 1.26 0 011.23-1.28 1.26 1.26 0 11-1.23 1.28zM145.41 62.33a1.26 1.26 0 111.29 1.23 1.26 1.26 0 01-1.29-1.23zM151.22 67a1.25 1.25 0 011.23-1.28 1.26 1.26 0 11.05 2.51 1.24 1.24 0 01-1.28-1.23z"/><path class="cls-2" d="M131.67 50.78l-.28-.27 4.4-4.35h6.84l7.12-6.96H155l10.81-10.81.27.27-10.92 10.92h-5.25l-7.13 6.96h-6.83l-4.28 4.24zM177.16 67.53l-9.01-9h-17.3l-3.97-3.86h-11.14v-.39h11.3l3.96 3.87h17.31l9.12 9.11-.27.27zM146.82 48.36l-.27-.28 5.75-5.79h8.51l4.33-4.37v-4.61l5.76-5.76.28.27-5.65 5.65v4.61l-4.56 4.6h-8.51l-5.64 5.68zM162.77 48.09h-10.39v-.39h10.23l5.1-5.1.27.28-5.21 5.21zM177.16 60.19l-3.98-3.98h-10.86l-3.06-3.09h-7.66v-.39h7.82l3.06 3.1h10.86l4.09 4.08-.27.28z"/></g></g></g></g></svg>