<svg xmlns="http://www.w3.org/2000/svg" xmlns:xlink="http://www.w3.org/1999/xlink" viewBox="0 0 81 81"><defs><linearGradient id="linear-gradient" x1="46.2" y1="32.43" x2="20.7" y2="28.43" gradientTransform="rotate(90 36.5 40.5)" gradientUnits="userSpaceOnUse"><stop offset="0"/><stop offset=".1" stop-color="#000e14"/><stop offset=".3" stop-color="#003349"/><stop offset=".59" stop-color="#006d9e"/><stop offset=".89" stop-color="#00b0ff"/></linearGradient><linearGradient id="linear-gradient-2" x1="-5.8" y1="27.81" x2="-31.3" y2="23.81" gradientTransform="rotate(-90 16.81 8.19)" xlink:href="#linear-gradient"/><style>.cls-2{fill:none;stroke:#00b0ff;stroke-miterlimit:10}.cls-7{fill:#00b0ff;opacity:.2}</style></defs><g id="图层_2" data-name="图层 2"><g id="Layer_1" data-name="Layer 1"><circle cx="40.5" cy="40.5" r="40" stroke-dasharray="1.99 1.99 1.99 1.99 1.99 1.99" fill="none" stroke="#00b0ff" stroke-miterlimit="10"/><circle class="cls-2" cx="40.5" cy="40.5" r="35"/><circle cx="40.5" cy="40.5" r="30" stroke-dasharray="1.96 1.96 1.96 1.96 1.96 1.96" fill="none" stroke="#00b0ff" stroke-miterlimit="10"/><circle class="cls-2" cx="40.5" cy="40.5" r="25"/><circle cx="40.5" cy="40.5" r="20" stroke-dasharray="2.09 2.09 2.09 2.09 2.09 2.09" fill="none" stroke="#00b0ff" stroke-miterlimit="10"/><circle class="cls-2" cx="40.5" cy="40.5" r="15"/><path d="M40.69 27.88a12.62 12.62 0 010 25.24v-3a9.62 9.62 0 100-19.24z" fill="url(#linear-gradient)"/><path d="M40.31 53.12a12.62 12.62 0 010-25.24v3a9.62 9.62 0 000 19.24z" fill="url(#linear-gradient-2)"/><path class="cls-7" d="M34.06 40.5a6.44 6.44 0 116.44 6.44 6.45 6.45 0 01-6.44-6.44z"/><path class="cls-7" d="M40.5 45.94a5.44 5.44 0 115.44-5.44 5.45 5.45 0 01-5.44 5.44z"/><path class="cls-7" d="M40.5 44.94a4.44 4.44 0 114.44-4.44 4.44 4.44 0 01-4.44 4.44z"/><path class="cls-7" d="M40.5 43.94a3.44 3.44 0 113.44-3.44 3.45 3.45 0 01-3.44 3.44z"/><path class="cls-7" d="M40.5 42.94a2.44 2.44 0 112.44-2.44 2.45 2.45 0 01-2.44 2.44z"/><path class="cls-7" d="M40.5 41.94a1.44 1.44 0 111.44-1.44 1.45 1.45 0 01-1.44 1.44z"/><path class="cls-7" d="M40.5 40.94a.44.44 0 11.44-.44.44.44 0 01-.44.44z"/></g></g></svg>