<svg xmlns="http://www.w3.org/2000/svg" viewBox="0 0 86.58 83.29"><defs><style>.cls-1{fill:#feb113}.cls-2{fill:#065977}.cls-3{fill:#00b3ea}</style></defs><g id="图层_2" data-name="图层 2"><g id="Layer_1" data-name="Layer 1"><path class="cls-1" d="M22.71 25.94l1.4 1.17.25.21c.06.05-.07.15-.11.2-.45.53-.88 1.08-1.28 1.65a32.17 32.17 0 00-2.34 4c-.23.49-.45 1-.66 1.48a17.25 17.25 0 00-.68 1.73c-.28.89-.56 1.77-.78 2.68a25.41 25.41 0 00-.51 2.7l-1.81-.25h-.33l.06-.41c.12-.7.25-1.38.39-2.07a26.41 26.41 0 011.08-3.69c.26-.72.55-1.43.85-2.13.21-.48.45-.94.67-1.41s.61-1.15.94-1.71.67-1.1 1-1.63c.58-.85 1.19-1.66 1.85-2.45zM47.35 12.72c0 .61-.05 1.22-.07 1.83v.33c0 .11-.13 0-.19 0h-2a31.11 31.11 0 00-12.84 3.34c-.56.29-1.11.59-1.66.91a2.37 2.37 0 01-.34.19l-.13-.22c-.33-.55-.66-1.1-1-1.65 1-.58 2-1.15 3-1.63a35.65 35.65 0 014.27-1.67 32.2 32.2 0 018.66-1.46h2.26z"/><path class="cls-2" d="M9.87 63.3l3.22-1.56 1.31-.64.21.41c.31.59.61 1.17.94 1.74A36.34 36.34 0 0018.07 67a33.35 33.35 0 002.56 3 35.09 35.09 0 007.15 5.76 35.57 35.57 0 008.29 3.69 35.33 35.33 0 0018.09.58 35.77 35.77 0 008.66-3.25A35.11 35.11 0 0076.18 64.3 35.22 35.22 0 0081 39.44a30.87 30.87 0 00-1.13-4.55c-.25-.76-.52-1.52-.81-2.26s-.62-1.46-1-2.18S77.37 29 77 28.32s-.8-1.36-1.23-2a35.19 35.19 0 00-9.47-9.72 33.57 33.57 0 00-4-2.37c-.69-.35-1.38-.68-2.09-1s-1.45-.59-2.19-.87a31.74 31.74 0 00-4.48-1.27 37 37 0 00-4-.62 34.47 34.47 0 00-7.53.09h-.08l-.11-.89v-.35l.68-.09a35.41 35.41 0 014.37-.18 34.91 34.91 0 014.57.37c.77.11 1.53.24 2.29.41s1.5.34 2.25.54a35.73 35.73 0 018.31 3.44 36.42 36.42 0 017.22 5.35 37 37 0 015.86 7.23 36.3 36.3 0 015.41 21.11 40.1 40.1 0 01-.49 4.36A35.32 35.32 0 0180 59.68l1.64.69.7.29s.11-.27.17-.4.2-.52.29-.78a39.21 39.21 0 001.29-4.07 32.09 32.09 0 00.91-4.58c.17-1.38.3-2.76.34-4.16a37.9 37.9 0 00-.1-4A39.1 39.1 0 0058.83 8.6a40.46 40.46 0 00-9.1-1.95 38.85 38.85 0 00-8.28.13c0-.29-.07-.59-.11-.89v-.34l.62-.08c.68-.09 1.37-.13 2.06-.17s1.48-.07 2.22-.06a43.8 43.8 0 014.58.27 43 43 0 014.49.77 40.67 40.67 0 018.36 2.93 40.42 40.42 0 0114.1 11.2 40.35 40.35 0 018.81 25.89 41.69 41.69 0 01-1.09 8.62 35.91 35.91 0 01-1.27 4.3c-.25.69-.51 1.38-.8 2.05-.12.3-.25.6-.38.9-.06.14-.13.29-.2.43l-.09.19v.09s-.1 0-.11-.05l-.3-.14-.94-.44-1.88-.89-.18-.08s-.12.22-.13.25c-.3.62-.62 1.23-1 1.84a34.81 34.81 0 01-1.83 3 36.5 36.5 0 01-5.54 6.36A35.73 35.73 0 0163.22 78c-1.11.57-2.23 1.1-3.39 1.57A38.84 38.84 0 0155.6 81a36.28 36.28 0 01-9.15 1.23 36.86 36.86 0 01-8.38-.92c-1.16-.26-2.3-.6-3.44-1-.55-.18-1.09-.38-1.63-.59a2.59 2.59 0 00-.15.37l-.8 2.07-.33.86-.08.2c0 .06-.28-.08-.33-.1-.61-.23-1.22-.51-1.82-.77-.35-.15-.69-.33-1-.5l-1-.49c-.67-.37-1.34-.73-2-1.12s-1.31-.82-1.95-1.25a39.65 39.65 0 01-7-6 38.6 38.6 0 01-4.94-6.63c-.38-.64-.74-1.27-1.09-1.93l-.64-1.13z"/><path class="cls-1" d="M15.77 60.43c.5 1 1 2 1.59 2.9a33.14 33.14 0 002.08 3 33.94 33.94 0 0023 12.9 34.81 34.81 0 008.89-.18 34.26 34.26 0 008-2.29 32.45 32.45 0 004.2-2.13A31.69 31.69 0 0067.45 72a33.29 33.29 0 005-5A33.88 33.88 0 0080 46.56v-2.57c0-.86-.14-1.9-.26-2.84a31.33 31.33 0 00-.89-4.39c-.35-1.22-.74-2.43-1.21-3.61a35 35 0 00-1.55-3.35c-.58-1.12-1.25-2.18-1.94-3.24-.22-.33-.46-.65-.69-1s-.29-.36-.46-.56c-.52-.64-1-1.27-1.57-1.88a33.45 33.45 0 00-9.17-7.26c-1-.56-2.1-1.05-3.17-1.51-.72-.3-1.45-.58-2.19-.81a38 38 0 00-4.4-1.14 35.4 35.4 0 00-4.35-.54 34.42 34.42 0 00-6.88.3 33.94 33.94 0 00-16.19 7c-.62.5-1.21 1-1.79 1.53q-.43.39-.84.81c-.28.27-.56.53-.81.82a33.55 33.55 0 00-7 11.14 34.4 34.4 0 00-2.08 8.7 32.85 32.85 0 00.3 9.13 38.22 38.22 0 001 4.23c.33 1.06.73 2.09 1.14 3.12.22.57.49 1.11.75 1.66v.1l-.16.08-.38.18c-.46-1-.91-2-1.29-3a32.33 32.33 0 01-1.1-3.46A34.41 34.41 0 0122 21.1a34.89 34.89 0 0110.89-7.24 38.39 38.39 0 014.46-1.52 32.9 32.9 0 017.46-1.12 35.31 35.31 0 018.33.69A34.18 34.18 0 0159.78 14a29.92 29.92 0 012.85 1.38 36.29 36.29 0 013.21 2 31.75 31.75 0 014.68 3.9c.46.47.91.94 1.34 1.42S73 24 73.48 24.61c.15.18.28.38.42.57s.5.67.72 1c.34.52.7 1 1 1.57a34.47 34.47 0 011.67 3.11 35.64 35.64 0 011.46 3.57 40.62 40.62 0 011.16 4.19 33.9 33.9 0 01.62 4.49 32.66 32.66 0 01-.12 6.33 34.3 34.3 0 01-1.33 6.35 36.06 36.06 0 01-2.87 6.7 35 35 0 01-2.38 3.68c-.58.77-1.18 1.54-1.83 2.26-.38.41-.74.84-1.14 1.23-.56.55-1.12 1.1-1.7 1.62a29.82 29.82 0 01-3.73 2.9c-.66.44-1.32.85-2 1.25s-1.39.77-2.09 1.13a33.47 33.47 0 01-4.4 1.78A33 33 0 0148.77 80a34.16 34.16 0 01-8.8-.47 35 35 0 01-8.46-2.72A34 34 0 0124 72a34.68 34.68 0 01-6.05-6.64c-.5-.71-1-1.45-1.41-2.2s-.88-1.6-1.3-2.42l.55-.27z"/><path class="cls-2" d="M27.83 18.3l2 3 .22.32a26.73 26.73 0 00-3.21 2.49c-.56.51-1.12 1-1.63 1.58l-.59.65s-.1.15-.14.12L23 25.17l-.31-.27c-.06 0-.08-.12-.14 0-.42.48-.84 1-1.22 1.48a31 31 0 00-2.53 3.8c-.35.65-.69 1.29-1 1.95-.23.48-.44 1-.65 1.45A31.2 31.2 0 0015 42v.14l2.52.28a27.93 27.93 0 00-.17 4.09 25.44 25.44 0 00.34 3.69 30.24 30.24 0 00.93 4c.24.72.49 1.44.77 2.15s.52 1.21.79 1.8c0 0 .1.13 0 .16l-.19.09-.81.4-2 1-.53.26a36 36 0 01-1.48-3.58c-.25-.73-.48-1.46-.69-2.2s-.35-1.38-.49-2.08a33 33 0 01-.59-4.32 36.22 36.22 0 010-4.66 31.68 31.68 0 011.48-7.59 32.8 32.8 0 019.69-14.83 30.29 30.29 0 013.26-2.5z"/><path class="cls-3" d="M75.31 30.26c-.19-.36-.38-.71-.59-1.06s-.39-.69-.6-1c-.43-.66-.85-1.32-1.32-1.94s-.94-1.26-1.43-1.86-1-1.18-1.58-1.73a33.34 33.34 0 00-3.5-3.12 34 34 0 00-3.7-2.47 32.81 32.81 0 00-7.72-3.21c-.66-.18-1.33-.33-2-.48s-1.49-.29-2.23-.38c-.59-.08-1.18-.15-1.77-.2a1.43 1.43 0 000 .38l-.3 3.61c.4 0 .79.08 1.18.13a29.08 29.08 0 018 2.19 32.76 32.76 0 014.09 2.18c.31.19.61.4.91.61s.46.32.69.5l.56.43s.11-.11.12-.13l.68-.88c.08-.1.17-.2.25-.31s0 0 .06 0l.31.25a35.14 35.14 0 012.85 2.6A28.44 28.44 0 0171 27.7a29.57 29.57 0 012.44 4 30.87 30.87 0 012.93 8.81 33.76 33.76 0 01.42 4.26V47.55h-.26l-1.12-.07h-.33a2.78 2.78 0 000 .45 27.62 27.62 0 01-.66 4.07 29.22 29.22 0 01-2.9 7.66l-1.69-.93-.06.1a26.36 26.36 0 01-5.51 6.92 25.71 25.71 0 01-3.75 2.82 25.11 25.11 0 01-4.13 2.11c-.7.28-1.4.53-2.11.77a18.59 18.59 0 01-2.19.58c-.32.08-.64.15-1 .2-.07 0-.51.07-.5.11 0 .28.09.56.14.85s.11.65.16 1v.06c0 .06-.25 0-.28 0-.29.06-.59.08-.88.12a27.55 27.55 0 01-4.16.21 28.86 28.86 0 01-16.67-5.7l-.23.31-2.16 2.91a32.83 32.83 0 0032.79 3.75c.71-.32 1.41-.65 2.09-1s1.4-.77 2.08-1.18a31.71 31.71 0 003.84-2.77 33 33 0 0011-32.35 41.75 41.75 0 00-1.19-4.1c-.23-.67-.52-1.35-.81-2s-.68-1.45-1-2.16zm-19.67 42c.4 1.11.8 2.23 1.19 3.35-1.13.38-2.26.73-3.43 1a1.16 1.16 0 000-.18L52.55 73a21.68 21.68 0 002.23-.62l.8-.27.06.18zm4.55 1.94c-.59.29-1.2.57-1.8.81l-.08-.17L57 71.59c.49-.2 1-.43 1.44-.65s1-.46 1.4-.72c.33.6.66 1.2 1 1.8s.54 1 .81 1.46c0 0-1.3.69-1.41.75zm4.41-2.62c-.51.37-1 .7-1.57 1l-1-1.6-1-1.54c0-.07 0-.07.1-.12l.86-.56c.55-.36 1.08-.76 1.6-1.17l1.3 1.65c.34.42.67.85 1 1.28 0 0-1.24.94-1.35 1zm2.63-2.08l-1.77-2-.58-.65a1.34 1.34 0 01-.11-.14 4 4 0 01.36-.33c.53-.49 1-1 1.54-1.52 0 0 .33-.37.34-.36l.13.12L69.78 67c-.81.88-1.66 1.71-2.55 2.51zm4.83-5.33q-.57.8-1.2 1.56l-.14-.12L68 63.39a23.43 23.43 0 001.86-2.55L71.55 62l1.41.91s-.82 1.23-.9 1.34z"/><path class="cls-1" d="M37.8 53.89a8.05 8.05 0 01-.63-.68c-.19-.25-.39-.5-.58-.76a8.76 8.76 0 01-.56-.88c0-.06 0-.09-.08-.06l-.14.08-.54.31-1.78 1-2.71 1.55-1 .54-.1.06-1.51.95-4 2.27-1.69 1-3.58 1.98-2.07 1.18-.53.3.14.24.1.17.36.62.28.44.05.07.55.84c.35.52.73 1 1.12 1.53l.08.1.12.16c.43.52.86 1 1.31 1.55l.19.21c.5.56 1 1.1 1.56 1.63s.94.9 1.44 1.31c0 0 .05.06.07 0l.11-.12.26-.31a1.07 1.07 0 00.14-.16c.45-.52.89-1 1.34-1.55l2.76-3.2 1.24-1.44 3-3.47c.42-.48.84-1 1.25-1.45l.78-.9 1.94-2.25 2-2.27a7.17 7.17 0 01-.69-.66zM24.23 67a2.48 2.48 0 01-1.88.69A2.63 2.63 0 0120 65a2.41 2.41 0 01.63-1.51 2.72 2.72 0 013.67-.25 2.62 2.62 0 010 3.76z"/><path class="cls-2" d="M34.53.94a47 47 0 00-8.69 3.24c-1.35.67-2.67 1.39-3.94 2.17S19.29 8.09 18 9s-2.45 2-3.59 3.08A45.87 45.87 0 006 22.94a46.75 46.75 0 00-3.67 8.26A46.09 46.09 0 00.15 49.33c.12 1.49.32 3 .58 4.45s.63 3 1.05 4.52a44.11 44.11 0 001.47 4.33c.44 1.08.92 2.14 1.41 3.21l9.75-4.75s-.39-.89-.43-1a35.41 35.41 0 012.13-33 35.76 35.76 0 015.45-6.8 35.09 35.09 0 017.21-5.4 35.63 35.63 0 017.59-3.2 31.35 31.35 0 013.57-.84l.75-.13v-.29c-.19-1.16-.37-2.33-.55-3.49-.24-1.54-.49-3.08-.73-4.62L39 0c-1.51.26-3 .54-4.51.94zm3.72.57c.25 1.37.49 2.73.74 4.1l.72 4 .09.47v.11c0 .04 0 0-.08 0-.62.11-1.23.25-1.84.39s-1.42.37-2.13.57-1.42.45-2.12.71-1.42.56-2.12.88-1.41.66-2.1 1-1.36.74-2 1.14a33.65 33.65 0 00-3.75 2.63 34.84 34.84 0 00-3.36 3.07 36.1 36.1 0 00-10.07 23.7 35.89 35.89 0 003.2 16.23c.06.14.08.12 0 .18l-.41.19-1.57.72-4.29 1.95-2.33 1.07c-.32-.69-.62-1.38-.9-2.09a45.38 45.38 0 01-2.18-26.74 45.84 45.84 0 012.63-8.15 45 45 0 014.33-7.84 46.9 46.9 0 016-7.06 45.3 45.3 0 013.58-3.07C19.5 8.73 20.75 7.87 22 7c.64-.41 1.32-.78 2-1.16s1.4-.76 2.11-1.11a44.57 44.57 0 014.29-1.79A44 44 0 0138.13.83l.12.68z"/><path class="cls-3" d="M11.79 57.75c.28.83.61 1.65 1 2.45l-2.53 1.1-4.21 1.82-1.05.47h-.06s-.32-.59-.34-.69c-.28-.69-.56-1.38-.81-2.09 0 0-.09-.2-.06-.21h.11l.48-.17 1.75-.61 4.33-1.54 1.39-.49zM10.83 54.62c.1.44.25.87.37 1.31s.25.81.38 1.21L9 58l-4.35 1.45-1.13.38h-.06s-.2-.59-.21-.64c-.23-.69-.42-1.41-.61-2.11 0-.05-.12-.36-.09-.37h.1l.49-.12 1.79-.46L9.39 55zM10.17 51.4c.1.56.18 1.13.31 1.69.07.29.13.58.2.88l-1.09.26-4.39 1-2.84.77a56.53 56.53 0 01-.63-3.2l2.73-.43 4.48-.72 1.24-.2zM9.8 48.14c0 .64.1 1.27.19 1.91 0 .23 0 .46.08.7l-1.11.16-4.47.64L1.6 52c-.14-1.08-.26-2.16-.34-3.24L4 48.53l4.53-.31 1.25-.08zM9.73 44.85v2.63l-1.12.06-4.51.22-2.87.15c0-1.09-.06-2.17 0-3.25l2.76.06 4.54.1zM10 41.58c0 .44-.1.87-.13 1.31s-.08.88-.08 1.31L7 44.09l-4.54-.18H1.19v-.66c.05-.73.09-1.47.18-2.21a2 2 0 01.05-.37h.57l1.81.2 4.58.52 1.54.17zM10.46 38.34c-.19.86-.33 1.73-.44 2.6l-2.74-.36L2.77 40l-1.17-.16h-.07s.08-.61.09-.66c.12-.74.23-1.48.38-2.22a2.13 2.13 0 01.08-.32h.1l.47.1 1.79.36L9 38l1.5.3zM11.25 35.17c-.26.83-.47 1.69-.66 2.54l-2.69-.6-4.44-1-1.16-.25h-.06l.14-.64c.16-.72.37-1.43.56-2.14 0 0 .09-.37.13-.36h.1l.48.15 1.77.53 4.4 1.32 1.43.43zM12.33 32.07l-.6 1.61c-.1.28-.18.57-.28.85l-1.07-.35L6 32.82 3.3 32c.34-1 .71-2.05 1.09-3.06l2.57 1 4.22 1.69 1.16.46zM13.69 29.09c-.25.51-.52 1-.75 1.54-.11.28-.23.56-.35.83h-.05l-1-.44-4.19-1.75-2.65-1.11c.43-1 .88-2 1.36-2.95l2.47 1.25 4.05 2.06 1.12.57zM15.3 26.24c-.3.5-.61 1-.89 1.5l-.4.73s0 .05 0 0L13 28l-4-2.1-2.57-1.39c.52-.95 1.06-1.89 1.63-2.81l2.34 1.47 3.85 2.41 1.06.67zM17.17 23.54c-.39.52-.76 1-1.12 1.56-.13.2-.26.39-.4.58l-.94-.61-3.78-2.47L8.48 21c.6-.91 1.22-1.79 1.87-2.66l2.2 1.66 3.62 2.75 1 .76zM19.27 21c-.27.3-.55.61-.81.92s-.62.71-.9 1.08l-2.17-1.71-3.57-2.79-.93-.74h-.05l.49-.6c.48-.57.95-1.14 1.45-1.69l.17-.18 2 1.86 3.36 3.07.92.84zM21.59 18.7c-.65.59-1.28 1.2-1.88 1.84l-2-1.9-3.3-3.12-.87-.82s.49-.52.54-.56c.51-.52 1-1 1.57-1.53 0 0 .2-.21.22-.19l.07.08.33.37 1.24 1.35 3.11 3.4 1 1.12z"/><path class="cls-3" d="M21.59 18.7c-.65.59-1.28 1.2-1.88 1.84l-2-1.9-3.3-3.12-.87-.82s.49-.52.54-.56c.51-.52 1-1 1.57-1.53 0 0 .2-.21.22-.19l.07.08.33.37 1.24 1.35 3.11 3.4 1 1.12zM24.12 16.59a25.27 25.27 0 00-2 1.68l-1.83-2.08-3-3.41-.78-.89v-.05l.49-.44c.55-.47 1.13-.92 1.7-1.37a1.73 1.73 0 01.3-.25l.06.09.3.39 1.11 1.46 2.78 3.67.92 1.2zM26.82 14.73c-.49.32-1 .62-1.45.95l-.72.52-.65-.93q-1.34-1.81-2.66-3.65c-.57-.77-1.14-1.54-1.7-2.32.87-.64 1.77-1.24 2.68-1.83l1.47 2.35 2.41 3.85zM29.67 13.13c-.57.29-1.13.59-1.69.91l-.6.35-.58-1-2.36-3.86C24 8.7 23.45 7.88 23 7.06c.93-.55 1.87-1.07 2.83-1.57L27 8l2.1 4 .57 1.12zM32.64 11.78c-.59.23-1.17.49-1.75.76l-.64.29c-.16-.33-.32-.67-.49-1-.66-1.35-1.31-2.71-2-4.06L26.5 5.13c.28-.13 2.94-1.34 3-1.3l.33.83c.55 1.37 1.1 2.73 1.64 4.1l1.2 3zM35.74 10.69c-.84.24-1.68.53-2.49.85L32.26 9c-.54-1.42-1.07-2.84-1.61-4.25-.14-.37-.28-.74-.43-1.11v-.06s.58-.22.62-.24c.7-.25 1.41-.5 2.13-.72 0 0 .32-.11.33-.07v.1l.15.49c.18.59.35 1.18.53 1.78l1.32 4.4c.14.47.29.94.43 1.41zM38.92 9.88c-.86.2-1.71.39-2.56.63l-.75-2.66-1.23-4.37-.33-1.21c1-.29 2.1-.54 3.16-.77.18.9.37 1.8.55 2.7.3 1.49.61 3 .91 4.46.08.41.17.81.25 1.22zM81.17 59.13c.41-1.11.79-2.22 1.12-3.36s.55-2.17.76-3.28a38.25 38.25 0 00.59-8.61A37.43 37.43 0 0082.13 35a37.92 37.92 0 00-3.78-8.6 37.47 37.47 0 00-12.86-12.91 38.89 38.89 0 00-8.2-3.66 36.43 36.43 0 00-4.61-1.12 42.2 42.2 0 00-4.33-.5 34.09 34.09 0 00-6.7.21V7.75v-.06c.64-.09 1.28-.14 1.93-.19a35.55 35.55 0 014.5 0A39.74 39.74 0 0157 9c.74.23 1.48.46 2.21.73s1.36.52 2 .8a38.94 38.94 0 014 2A38 38 0 0178.38 25a38.81 38.81 0 014.06 8.5A38.06 38.06 0 0184 51.27a36.28 36.28 0 01-1.79 7.18c-.12.31-.23.63-.35.94l-.68-.26z"/><path class="cls-2" d="M33.67 66.92l.81-1.37c.21.14.45.26.68.39s.63.33 1 .48c.59.29 1.19.56 1.8.79A24.12 24.12 0 0042 68.36a23.25 23.25 0 008.72-.06 23.64 23.64 0 004.37-1.3 22.33 22.33 0 003.53-1.84 19.12 19.12 0 001.75-1.24c.46-.37.91-.74 1.36-1.14a21.43 21.43 0 002.81-3.06 22.46 22.46 0 002.75-4.62 24.13 24.13 0 001.09-3c.14-.5.27-1 .38-1.5s.2-1 .29-1.54c.12-.73.17-1.47.22-2.21v-1.68c0-.76-.07-1.52-.16-2.27a23.37 23.37 0 00-1.84-6.62 22.22 22.22 0 00-2.13-3.81 24.83 24.83 0 00-2.59-3.11l-1.12 1.12c-.18-.18-.36-.36-.55-.53.37-.4.74-.8 1.12-1.19s.49-.54.74-.8l.24-.25c0-.05.05-.09.1-.05a22.34 22.34 0 012.83 3.16c.44.61.89 1.23 1.27 1.87l.59 1c.18.35.35.7.54 1s.32.7.48 1 .28.68.42 1c.27.68.5 1.38.7 2.08a22.37 22.37 0 01.85 4.59c.06.78.11 1.57.1 2.36a22.16 22.16 0 01-.13 2.3c-.08.64-.15 1.29-.27 1.93s-.26 1.28-.42 1.91a25.22 25.22 0 01-3.29 7.31 24.63 24.63 0 01-6.15 6.4A24.32 24.32 0 0154.15 69a24.71 24.71 0 01-8.74 1.31A25.09 25.09 0 0137 68.57c-.61-.25-1.2-.52-1.8-.81a17 17 0 01-1.57-.84z"/><path class="cls-3" d="M35.28 64.18c.22.15.46.26.69.39l.9.46a22 22 0 002.07.86c.34.15.71.24 1.06.36s.67.18 1 .27c.69.17 1.39.31 2.09.41a21.26 21.26 0 008.91-.56 22.23 22.23 0 007.64-3.9 21.41 21.41 0 005.64-6.84 21.77 21.77 0 002.41-8.41 21.34 21.34 0 00-1.24-8.92c-.26-.72-.57-1.41-.88-2.1s-.69-1.35-1.1-2-.84-1.2-1.31-1.8-.82-1-1.25-1.47a.74.74 0 00-.12-.13l.65-.62h.09a4.2 4.2 0 01.29.32c.22.25.45.49.65.75.45.57.91 1.13 1.31 1.74.21.32.42.63.61 1s.4.64.56 1c.35.68.69 1.35 1 2s.55 1.42.77 2.15a21.19 21.19 0 01.88 4.47 22.93 22.93 0 01-.94 8.75 22.4 22.4 0 01-7.46 10.88 21.32 21.32 0 01-1.91 1.36c-.67.42-1.36.8-2.07 1.16a22.35 22.35 0 01-4.39 1.65 20.05 20.05 0 01-2.28.47 21.57 21.57 0 01-2.26.21 22.41 22.41 0 01-8.48-1.22 23.31 23.31 0 01-3.31-1.47l-.67-.4s0-.09.08-.14l.39-.66z"/><path class="cls-2" d="M60.42 25.45c.69.47 1.33 1 2 1.54l-1.08 1.25-.72.83-.22.25c-.05.05 0 .08-.11 0-.54-.45-1.09-.91-1.68-1.31zM57.44 23.65c.6.29 1.18.64 1.75 1l.37.23s.07 0 0 .05l-.13.2L58.3 27l-.4.62c-.3-.21-.63-.38-.94-.57s-.63-.37-1-.52l1.44-2.83zM54.23 22.29c.56.2 1.11.4 1.65.64 0 0 .69.29.69.3l-.08.16c-.29.64-.59 1.29-.89 1.93l-.36.79a17.85 17.85 0 00-1.87-.76c-.06 0-.18 0-.16-.1l.09-.25.7-2.09.21-.62zM50.87 21.39c.62.13 1.23.27 1.84.43a4.38 4.38 0 01.6.18l-.06.2c-.21.68-.41 1.36-.62 2.05-.08.26-.16.52-.23.78a19.36 19.36 0 00-2-.49c-.11 0-.18 0-.16-.1s0-.2 0-.3c.14-.72.29-1.45.43-2.17 0-.19.07-.39.11-.58zM47.41 21c.65 0 1.29.1 1.93.17a2.79 2.79 0 01.57.1v.21l-.33 2.13-.12.78c-.66-.11-1.33-.16-2-.21-.11 0-.18 0-.17-.07v-.31c0-.73.08-1.47.11-2.21V21zM43.94 21c.63-.05 1.25-.08 1.88-.1a6.29 6.29 0 01.63 0v3.16c-.64 0-1.29 0-1.93.07h-.25v-.05-.28c-.07-.73-.14-1.45-.2-2.18l-.13-.62zM40.51 21.6c.63-.14 1.26-.27 1.89-.37a4.76 4.76 0 01.58-.07v.19c.1.7.19 1.41.28 2.12 0 .27.08.55.11.83a17.55 17.55 0 00-1.9.33l-.25.06v-.05l-.06-.27-.51-2.15-.15-.62zM37.19 22.65c.78-.31 1.58-.57 2.38-.8l.43 1.58c.1.35.19.71.29 1.06l.09.32c0 .07.05.09 0 .11a18.44 18.44 0 00-2 .68c-.39-1-.77-2-1.16-3zM34 24.14A22.61 22.61 0 0136.3 23l.66 1.5c.14.34.29.67.44 1 0 .1.09.2.13.31s.06.07 0 .1c-.65.3-1.31.6-1.92 1L34 24.14zM31.13 26.06c.48-.35.95-.7 1.44-1l.63-.41.1.15 1.11 1.8c.15.25.3.5.46.75-.28.16-.54.35-.8.52s-.58.41-.86.62c-.06 0-.12.13-.17.07l-.17-.22-1.34-1.75-.4-.51zM28.54 28.36c.45-.45.92-.89 1.4-1.32 0 0 .43-.4.45-.37l.14.17 1.38 1.66.5.6c-.52.42-1 .89-1.48 1.36-.08.07-.1.15-.17.08l-.22-.21L29 28.78l-.42-.42zM26.29 31c.38-.51.77-1 1.17-1.48 0 0 .41-.48.42-.47l.14.13 1.57 1.42.64.58c-.45.48-.86 1-1.26 1.52l-.12.17h-.05l-.23-.17-1.79-1.31-.49-.39zM24.44 34c.31-.56.63-1.12 1-1.67 0 0 .32-.49.33-.48l.16.11 1.78 1.2.68.46c-.36.54-.7 1.09-1 1.66l-.12.22-.25-.14-1.94-1-.56-.3zM23 37.14c.23-.61.46-1.2.73-1.79 0-.05.25-.53.26-.52l.18.08 1.93.94.74.36c-.28.57-.54 1.15-.76 1.74 0 0-.06.27-.1.28l-.25-.1-2.07-.76zM22.05 40.48a23.57 23.57 0 01.65-2.43l1.55.51 1 .33.33.11c.05 0 .1 0 .08.06-.2.65-.38 1.29-.52 1.95 0 .11 0 .15-.1.13l-.3-.07-2.16-.46-.57-.13zM21.56 43.93c.06-.84.16-1.67.3-2.5l1.61.28 1.08.19.34.06h.09c-.12.71-.21 1.42-.26 2.14l-3.16-.22zM21.56 47.41a23.42 23.42 0 010-2.51l1.63.05H24.73v2.15zM22.05 50.85a23.27 23.27 0 01-.4-2.48l1.63-.18 1.09-.12H24.81a20.88 20.88 0 00.34 2.1l-3.1.68zM23 54.19c-.07-.18-.12-.37-.19-.56s-.18-.51-.25-.77-.21-.72-.31-1.07l1.58-.41 1.06-.28.33-.08h.11c.09.33.19.66.28 1s.14.41.21.61a3.71 3.71 0 00.16.47l-3 1.11z"/><path class="cls-1" d="M37.89 28.3A19.12 19.12 0 0029 53.64l1-.64a17.89 17.89 0 116.21 7.28l-.81.93a19.11 19.11 0 102.49-32.91z"/><path class="cls-3" d="M46.33 38.44a7.1 7.1 0 106.92 7.1 7 7 0 00-6.92-7.1zm0 13.6a6.5 6.5 0 116.33-6.5A6.42 6.42 0 0146.33 52z"/><path class="cls-1" d="M45.19 45.54a1.14 1.14 0 111.14 1.16 1.15 1.15 0 01-1.14-1.16z"/><path class="cls-2" d="M47.48 33.34h-2.32v.68h.83v8.46h.67v-8.46h.82v-.68zM58.53 46.7v-2.32h-.69v.83h-8.45v.67h8.45v.82h.69zM45.16 57.75h2.32v-.69h-.82v-8.45h-.67v8.45h-.83v.69zM34.12 44.38v2.32h.68v-.82h8.46v-.67H34.8v-.83h-.68z"/><path class="cls-3" d="M48.4 30.45v.8h-4.15v-.81h-.46v2.06h.46v-.79h4.15v.8h.46v-2.06h-.46zM61.42 47.61h-.8v-4.14h.81v-.46h-2.06v.46h.79v4.14h-.8v.47h2.06v-.47zM44.25 60.63v-.79h4.15v.81h.46v-2.06h-.46v.78h-4.15v-.8h-.46v2.06h.46zM31.23 43.47h.8v4.14h-.81v.47h2.06v-.47h-.79v-4.14h.8v-.46h-2.06v.46z"/></g></g></svg>