<svg xmlns="http://www.w3.org/2000/svg" viewBox="0 0 427.26 427.26"><defs><style>.cls-22,.cls-26{fill:none;stroke-miterlimit:10}.cls-22{stroke:#00b4eb}.cls-26{stroke:#fff}.cls-21{fill:#00b4eb}.cls-25{fill:#fa0}</style></defs><g id="图层_2" data-name="图层 2"><g id="Layer_2" data-name="Layer 2"><circle cx="213.63" cy="213.63" r="151.68" transform="rotate(-45 213.63 213.632)" opacity=".3" stroke="#00b4eb" fill="none" stroke-miterlimit="10"/><circle cx="213.63" cy="213.63" r="155.54" transform="rotate(-45 213.63 213.632)" stroke-width=".95" opacity=".29" stroke="#00b4eb" fill="none" stroke-miterlimit="10"/><circle cx="213.63" cy="213.63" r="159.4" stroke-width=".91" opacity=".28" stroke="#00b4eb" fill="none" stroke-miterlimit="10"/><circle cx="213.63" cy="213.63" r="163.27" transform="rotate(-45 213.63 213.632)" stroke-width=".86" opacity=".26" stroke="#00b4eb" fill="none" stroke-miterlimit="10"/><circle cx="213.63" cy="213.63" r="167.13" transform="rotate(-45 213.63 213.632)" stroke-width=".81" opacity=".25" stroke="#00b4eb" fill="none" stroke-miterlimit="10"/><circle cx="213.63" cy="213.63" r="171" transform="rotate(-45 213.63 213.632)" stroke-width=".77" opacity=".24" stroke="#00b4eb" fill="none" stroke-miterlimit="10"/><circle cx="213.63" cy="213.63" r="174.86" transform="rotate(-45 213.63 213.632)" stroke-width=".72" opacity=".23" stroke="#00b4eb" fill="none" stroke-miterlimit="10"/><circle cx="213.63" cy="213.63" r="178.73" transform="rotate(-45 213.63 213.632)" stroke-width=".67" opacity=".21" stroke="#00b4eb" fill="none" stroke-miterlimit="10"/><circle cx="213.63" cy="213.63" r="182.59" transform="rotate(-45 213.63 213.632)" opacity=".2" stroke-width=".63" stroke="#00b4eb" fill="none" stroke-miterlimit="10"/><circle cx="213.63" cy="213.63" r="186.45" stroke-width=".58" opacity=".19" stroke="#00b4eb" fill="none" stroke-miterlimit="10"/><circle cx="213.63" cy="213.63" r="190.32" transform="rotate(-45 213.63 213.632)" stroke-width=".53" opacity=".18" stroke="#00b4eb" fill="none" stroke-miterlimit="10"/><circle cx="213.63" cy="213.63" r="194.18" transform="rotate(-45 213.63 213.632)" stroke-width=".48" opacity=".16" stroke="#00b4eb" fill="none" stroke-miterlimit="10"/><circle cx="213.63" cy="213.63" r="198.05" stroke-width=".44" opacity=".15" stroke="#00b4eb" fill="none" stroke-miterlimit="10"/><circle cx="213.63" cy="213.63" r="201.91" stroke-width=".39" opacity=".14" stroke="#00b4eb" fill="none" stroke-miterlimit="10"/><circle cx="213.63" cy="213.63" r="205.78" transform="rotate(-45 213.63 213.632)" stroke-width=".34" opacity=".13" stroke="#00b4eb" fill="none" stroke-miterlimit="10"/><circle cx="213.63" cy="213.63" r="209.64" stroke-width=".3" opacity=".11" stroke="#00b4eb" fill="none" stroke-miterlimit="10"/><circle cx="213.63" cy="213.63" r="213.5" stroke-width=".25" opacity=".1" stroke="#00b4eb" fill="none" stroke-miterlimit="10"/><path d="M159.8 219.94a54.83 54.83 0 01-.36-6.31 54.19 54.19 0 01108.38 0c0 1.65-.07 3.29-.22 4.91" stroke-width="4.89" stroke-dasharray=".98" stroke="#fff" fill="none" stroke-miterlimit="10"/><circle cx="213.63" cy="213.63" r="73.55" stroke-width="8" stroke-dasharray="1 10" stroke="#fa0" fill="none" stroke-miterlimit="10"/><circle cx="213.63" cy="213.63" r="73.55" stroke-width="4" stroke-dasharray=".5 4.99 .01 0" stroke="#fa0" fill="none" stroke-miterlimit="10"/><path class="cls-21" d="M278.42 148.84a91.63 91.63 0 100 129.58 91.61 91.61 0 000-129.58zm-66.16-24.11a.69.69 0 01.74-.73h1.36a.69.69 0 01.69.69v1.37a.68.68 0 01-.69.68H213a.68.68 0 01-.69-.68zm-11.21 1a.68.68 0 01.6-.76l1.35-.17a.69.69 0 01.77.6l.17 1.35a.72.72 0 01-.14.51.7.7 0 01-.46.26l-1.35.17a.68.68 0 01-.77-.6zM190 128.07a.69.69 0 01.49-.84l1.33-.34a.7.7 0 01.84.5l.33 1.32a.67.67 0 01-.07.52.7.7 0 01-.42.32l-1.33.34a.7.7 0 01-.84-.5zm-10.4 2.8l1.27-.51a.68.68 0 01.89.39l.51 1.26a.69.69 0 01-.38.9l-1.27.51a.7.7 0 01-.9-.38l-.5-1.27a.68.68 0 01.37-.9zm-10.49 5l1.2-.66a.69.69 0 01.93.27l.66 1.2a.68.68 0 01-.27.94l-1.19.66a.7.7 0 01-.94-.27l-.66-1.2a.7.7 0 01.26-.94zm-44 75.49a1 1 0 01-1-1A89.06 89.06 0 01152 148.62a1 1 0 011.38 1.45 87.05 87.05 0 00-27.25 60.33 1 1 0 01-1.05.96zm164.63 39.08A84.55 84.55 0 01247.57 291l1.57 3.57a87.87 87.87 0 01-9.32 3.48l-1.16-3.73a84.61 84.61 0 01-97.76-37.64l-3.35 2a88 88 0 01-11.47-32.83l3.85-.54a84.49 84.49 0 0189-96l.25-3.89a88.28 88.28 0 0139.11 11.94l-2 3.35A84.68 84.68 0 01281.3 163l3.12-2.33a88.48 88.48 0 018.8 91.46z"/><path class="cls-22" d="M271.22 137.51a95.29 95.29 0 0137.85 76.12h-5.26A90.06 90.06 0 00268 141.7z"/><path class="cls-21" d="M274.59 286.78A94.76 94.76 0 01223 308.39l-.49-5a89.79 89.79 0 0048.85-20.47z"/><path d="M270.05 285.83a91.15 91.15 0 01-45.3 18.76" stroke="#000" stroke-width="2" stroke-dasharray="1 5 0 0" fill="none" stroke-miterlimit="10"/><path class="cls-22" d="M152.13 284.57a93.74 93.74 0 01-31.76-60l3.68-.43a90 90 0 0030.51 57.65z"/><path class="cls-21" d="M213.63 324.82a111.32 111.32 0 01-11.27-.57h-.05l.6-6h.09a108.25 108.25 0 0011.65.53v.05l.06 5.95h-1.09zm2 0l-.1-6h.05a107.17 107.17 0 0011.62-.85v.03l.76 5.9h.04a113.54 113.54 0 01-12.29.9zm-14.25-.65a110.76 110.76 0 01-12.15-2h-.05l1.31-5.85h.05a103.29 103.29 0 0011.5 1.91h.05zm27.56-.38l-.82-5.94h.05a104.34 104.34 0 0011.4-2.23h.08l1.46 5.77a112.26 112.26 0 01-12.11 2.38zm-40.71-1.88h-.12a111.82 111.82 0 01-11.77-3.47l2-5.66a104.57 104.57 0 0011.19 3.29zm53.8-.73l-1.53-5.8a104.69 104.69 0 0011.09-3.6h.05l2.16 5.57h-.07a110.24 110.24 0 01-11.71 3.8zm-66.61-3.08h-.05a114.22 114.22 0 01-11.32-4.88l2.68-5.37a104.35 104.35 0 0010.71 4.61zm79.29-1.1l-2.22-5.57a104.55 104.55 0 0010.58-4.92l2.81 5.3a111 111 0 01-11.12 5.19zm-91.54-4.24a110.23 110.23 0 01-10.65-6.21l3.3-5a105 105 0 0010.08 5.88zm103.63-1.46l-2.87-5.3a105.48 105.48 0 009.9-6.14l3.44 4.92a109.77 109.77 0 01-10.47 6.49zM151.68 306h-.05a112.07 112.07 0 01-9.83-7.43l3.87-4.58a107.55 107.55 0 009.3 7zm126.43-1.75l-3.45-4.84a106.76 106.76 0 009.1-7.29l4 4.47v.12l-.06-.05a112.36 112.36 0 01-9.58 7.66zm-137-6.37H141a111.84 111.84 0 01-8.87-8.55l4.35-4.05a106.89 106.89 0 008.39 8.09zm147.42-2l-4.05-4.43a108.31 108.31 0 008.16-8.3V283l.06-.06v.11l4.5 3.95a112.08 112.08 0 01-8.64 8.8zm-157.06-7.22v-.1a113.77 113.77 0 01-7.77-9.53l4.85-3.53a104.06 104.06 0 007.37 9v.06zm166.37-2.34l-4.54-3.92a105.44 105.44 0 007.12-9.24l5 3.46h-.14a112.6 112.6 0 01-7.51 9.74zM123.1 278.2a110.38 110.38 0 01-6.59-10.41v-.05l5.24-2.92a105.4 105.4 0 006.24 9.85zm182.82-2.53l-5-3.35a104.1 104.1 0 006-10h.06l5.27 2.75v.05a112 112 0 01-6.31 10.59zM116 266.9a109.76 109.76 0 01-5.29-11.12l5.55-2.27v.05a104.25 104.25 0 005 10.51zm196.7-2.73l-5.35-2.73v-.05a104.26 104.26 0 004.71-10.66l5.64 2.13-.05.05a109.45 109.45 0 01-5 11.26zm-202.38-9.35a111.38 111.38 0 01-3.92-11.69V243l5.74-1.58v.05a103.8 103.8 0 003.7 11.05v.06zm207.73-2.89l-5.64-2.07v-.05a103.1 103.1 0 003.4-11.15l6.18 1.51h-.38a110.52 110.52 0 01-3.57 11.76zm-211.92-9.78v-.05a109 109 0 01-2.49-12.1h.05l5.89-.87v.05a105.82 105.82 0 002.34 11.38v.08zm215.75-3l-5.88-1.39a105.13 105.13 0 002-11.43l-.25-.09h.3l5.92.7v.05a107.77 107.77 0 01-2.14 12.14zM103.5 229.06V229a111.5 111.5 0 01-1-12.28l6-.16a107.27 107.27 0 001 11.62v.05zM324.14 226h-.05l-5.91-.65a105.59 105.59 0 00.64-11.64c0-1.31 0-2.64-.07-3.95v-.05h.05l5.94-.22v.05c.05 1.37.07 2.77.07 4.17a112.11 112.11 0 01-.67 12.3zm-221.63-10.24h-.05v-2.08c0-3.42.15-6.86.46-10.23v-.05l6 .54v.05c-.29 3.19-.44 6.45-.44 9.69v2.05zm216.2-7a104.53 104.53 0 00-1.18-11.6v-.05l5.93-.94a113.62 113.62 0 011.24 12.26zM109 203l-6-.6v-.05a110.22 110.22 0 011.91-12.18l5.87 1.26v.05A105.39 105.39 0 00109 203zm208.43-6.83a105.73 105.73 0 00-2.56-11.37v-.05l5.77-1.64a110.53 110.53 0 012.7 12v.05zM111 190.56l-5.85-1.31v-.05a112.85 112.85 0 013.36-11.86v-.05l5.67 2a104.91 104.91 0 00-3.18 11.22zm203.59-6.67a107.09 107.09 0 00-3.91-11l5.53-2.33a110.42 110.42 0 014.13 11.61zm-200.09-5.47l-5.88-2.09h.26a111.37 111.37 0 014.73-11.33l5.39 2.63a104 104 0 00-4.51 10.75zM310.28 172v-.05a108.85 108.85 0 00-5.21-10.42l5.2-3v.05a109.7 109.7 0 015.5 11zm-190.86-5.25h-.06l-5.47-2.75h.19a109.28 109.28 0 016.09-10.68l5 3.26a105.73 105.73 0 00-5.78 10.13zm185.17-6a108.34 108.34 0 00-6.43-9.73l4.81-3.56h.03l-.05.06a114 114 0 016.76 10.25zm-178.84-4.88l-.08-.05-5-3.28a113.57 113.57 0 017.34-9.9l4.61 3.84a106.34 106.34 0 00-6.94 9.36zm171.84-5.63a106.62 106.62 0 00-7.54-8.89l4.36-4.12a114.14 114.14 0 018 9.4zm-164.31-4.51l-4.58-3.88a115.27 115.27 0 018.47-8.95l4.12 4.35a106.82 106.82 0 00-8 8.47zm156.11-5.09a104.91 104.91 0 00-8.53-7.93h-.09l.07-.08 3.8-4.58a111.69 111.69 0 019 8.38zm-147.39-4l-4.07-4.39V132l.06.09a113.56 113.56 0 019.43-7.84l3.58 4.82a105.91 105.91 0 00-9 7.45zm138.09-4.51a105.51 105.51 0 00-9.44-6.85l3.26-5a116.27 116.27 0 0110 7.25zm-128.35-3.53l-3.53-4.85A111.89 111.89 0 01158.6 117l3 5.21a104.09 104.09 0 00-9.79 6.33zm118.11-3.85a108 108 0 00-10.23-5.75l2.69-5.38a111.29 111.29 0 0110.73 6h.05zm-107.48-3l-2.93-5.23h.05a112.07 112.07 0 0111.07-5.4h.05l2.32 5.53a103.49 103.49 0 00-10.48 5.11zm96.42-3.15h-.05a103 103 0 00-10.74-4.44l2-5.67a111.91 111.91 0 0111.41 4.67zm-85.05-2.33l-2.28-5.55a111.14 111.14 0 0111.64-4l1.63 5.73a104.69 104.69 0 00-11 3.81zm73.33-2.4a105.77 105.77 0 00-11.25-3.07h-.05l1.34-6.28v.43a113 113 0 0111.86 3.24zm-61.39-1.68l-1.58-5.78a113.37 113.37 0 0112.05-2.59h.05l.94 5.93h-.05a104.57 104.57 0 00-11.4 2.45zm49.2-1.6a104.55 104.55 0 00-11.54-1.7l.59-6a113.5 113.5 0 0112.2 1.8h.05zm-36.84-1l-.88-5.94h.05a111.66 111.66 0 0112.27-1.13h.05l.22 6h-.05a110.07 110.07 0 00-11.61 1.07zm24.33-.79h-.05c-2.86-.24-5.78-.36-8.69-.36h-3l-.17-6h.05a112 112 0 0112.31.34h.05z" opacity=".2"/><path class="cls-25" d="M266.8 311.3l-2.87-5.3a105.48 105.48 0 009.9-6.14l3.44 4.92a109.77 109.77 0 01-10.47 6.49zM278.11 304.22l-3.45-4.84a106.76 106.76 0 009.1-7.29l4 4.47v.12l-.06-.05a112.36 112.36 0 01-9.58 7.66zM288.5 295.84l-4.05-4.43a108.31 108.31 0 008.16-8.3V283l.06-.06v.11l4.53 3.95a112.08 112.08 0 01-8.64 8.8zM297.81 286.28l-4.54-3.92a105.44 105.44 0 007.12-9.24l5 3.46h-.14a112.6 112.6 0 01-7.51 9.74zM305.92 275.67l-5-3.35a104.1 104.1 0 006-10h.06l5.27 2.75v.05a112 112 0 01-6.31 10.59zM312.7 264.17l-5.35-2.73v-.05a104.26 104.26 0 004.71-10.66l5.64 2.13-.05.05a109.45 109.45 0 01-5 11.26zM318.05 251.93l-5.64-2.07v-.05a103.1 103.1 0 003.4-11.15l6.18 1.51h-.38a110.52 110.52 0 01-3.57 11.76zM321.88 239.13l-5.88-1.37a105.13 105.13 0 002-11.43l-.25-.09h.3l5.92.7v.05a107.77 107.77 0 01-2.14 12.14zM324.14 226h-.05l-5.91-.65a105.59 105.59 0 00.64-11.64c0-1.31 0-2.64-.07-3.95v-.05h.05l5.94-.22v.05c.05 1.37.07 2.77.07 4.17a112.11 112.11 0 01-.67 12.3zM318.71 208.76a104.53 104.53 0 00-1.18-11.6v-.05l5.93-.94a113.62 113.62 0 011.24 12.26zM317.39 196.2a105.73 105.73 0 00-2.56-11.37v-.05l5.77-1.64a110.53 110.53 0 012.7 12v.05zM314.56 183.89a107.09 107.09 0 00-3.91-11l5.53-2.33a110.42 110.42 0 014.13 11.61zM310.28 172v-.05a108.85 108.85 0 00-5.21-10.42l5.2-3v.05a109.7 109.7 0 015.5 11zM304.59 160.75a108.34 108.34 0 00-6.43-9.73l4.81-3.56h.03l-.05.06a114 114 0 016.76 10.25zM297.59 150.24a106.62 106.62 0 00-7.54-8.89l4.36-4.12a114.14 114.14 0 018 9.4zM289.39 140.64a104.91 104.91 0 00-8.53-7.93h-.09l.07-.08 3.8-4.58a111.69 111.69 0 019 8.38zM142 136.59l-4.07-4.39v-.2l.06.09a113.56 113.56 0 019.43-7.84l3.58 4.82a105.91 105.91 0 00-9 7.45zM280.09 132.08a105.51 105.51 0 00-9.44-6.85l3.26-5a116.27 116.27 0 0110 7.25zM151.74 128.55l-3.53-4.85a111.89 111.89 0 0110.39-6.7l3 5.21a104.09 104.09 0 00-9.79 6.33zM269.85 124.7a108 108 0 00-10.23-5.7l2.69-5.38a111.29 111.29 0 0110.73 6h.05zM162.37 121.74l-2.93-5.23h.05a112.07 112.07 0 0111.07-5.4h.05l2.32 5.53a103.49 103.49 0 00-10.48 5.11zM258.79 118.59h-.05a103 103 0 00-10.74-4.43l2-5.67a111.91 111.91 0 0111.41 4.67zM173.74 116.26l-2.28-5.55a111.14 111.14 0 0111.64-4l1.63 5.73a104.69 104.69 0 00-11 3.81zM247.07 113.86a105.77 105.77 0 00-11.25-3.07h-.05l1.34-6.28v.43a113 113 0 0111.86 3.24zM185.68 112.18l-1.58-5.78a113.37 113.37 0 0112.05-2.59h.05l.94 5.93h-.05a104.57 104.57 0 00-11.4 2.45zM234.88 110.58a104.55 104.55 0 00-11.54-1.7l.59-6a113.5 113.5 0 0112.2 1.8h.05zM198 109.58l-.88-5.94h.05a111.66 111.66 0 0112.27-1.13h.05l.22 6h-.05a110.07 110.07 0 00-11.61 1.07zM222.37 108.79h-.05c-2.86-.24-5.78-.36-8.69-.36h-3l-.17-6h.05a112 112 0 0112.31.34h.05z"/><path class="cls-26" d="M118.42 274.22a112.88 112.88 0 0113.41-138.32M113.46 275a116.42 116.42 0 01-16.21-45.6 2 2 0 011.75-2.22l2.6-.3a112.08 112.08 0 0016.83 47.34l-2.21 1.41a2 2 0 01-2.76-.63z"/><path d="M359.19 205.72l-5.12.28a140 140 0 00-35.52-86l2.14-1.91A143.16 143.16 0 00213.1 70.12c-2.23 0-4.44.07-6.65.18l.15 2.85A140.66 140.66 0 0073 213.63h23.41a117.22 117.22 0 11197.68 85.23L297 302l5.83 6.17 7.33 7.77 3.52 3.72a145.36 145.36 0 0045.7-106q.02-4.01-.19-7.94zm-269.62-8.14c0 .2 0 .4-.07.6l-.06.41-8.93-1.07v-.05c0-.33.07-.64.12-1v-.11l8.93 1.14zm2.9-15.15l-.24.93-8.73-2.17v-.05c.08-.33.17-.66.25-1v-.05l8.71 2.24zm4.76-14.69l-.35.9v.05l-8.35-3.22c.13-.33.25-.65.38-1v-.05l8.37 3.31zm6.55-14l-.46.84v.07h-.07l-7.9-4.23.12-.2.41-.75 7.9 4.32zM112 140.7l-.56.78v.05l-7.44-5.26h.14l.54-.76.07-.11 7.31 5.26zm9.76-12l-.65.71-6.66-6.06.71-.76 6.61 6.1zm11.15-10.67l-.64.55-.13.11-5.83-6.79.78-.67L133 118zm12.38-9.22l-.59.39-.26.17-5-7.5.16-.11.74-.48 4.93 7.53zm13.4-7.62l-.86.42h-.06l-4-8h.07l.91-.46h.05l3.95 8.08zm14.24-5.91l-.91.31h-.05l-3-8.49.91-.32h.12l3 8.52zm14.87-4.11l-.94.21-1.91-8.75h.05l1-.21 1.85 8.8zM203.07 89l-.92.08h-.1l-.81-9h.13l.95-.08h.05l.75 9zm15.48-.35h-1.05l.27-9h1.1zm15.36 1.54l-1-.15h-.05l1.37-8.85h.05l1 .16zM251.47 85L249 93.6l-.87-.25h-.1l2.46-8.66h.05l1 .29zM267 90.66l-3.56 8.21-.88-.38h-.06v-.07l3.5-8.24.19.08.78.33zm10.19 15.22l-.25-.14-.63-.37 4.49-7.74.37.22.57.33h.05zm18.24 1.58l-5.43 7.09-.76-.59v-.06l5.41-7.13.82.63zm50.09 82l.17 1-8.85 1.54v-.05c-.06-.31-.12-.63-.17-.95v-.05l8.79-1.59zm-4-16.13c.11.33.21.66.31 1l-8.6 2.64v-.05l-.27-.88V176l8.54-2.69zm-33.65-55l-6.29 6.36-.69-.68 6.24-6.41.56.55.21.21zm4 17.87l-.6-.76 7-5.62v.05l.39.48.28.35zm8.77 12.63c-.12-.21-.25-.41-.38-.62l-.11-.18H320l7.77-4.77.52.86-7.69 4.67zm7.19 13.7v-.05l-.4-.87 8.18-3.75.42.94zm-10.3 135.82l-.53.65-6.94-5.74.35-.42.24-.29-.06-.05h.16l6.94 5.65zm9.77-13.62l-.55.87v.05l-7.59-4.84.53-.83-.11-.17 7.78 4.87zm7.91-14.54c-.15.31-.3.63-.44.94l-8.12-3.86v-.05l.41-.87v-.05l8.16 3.8zm6-15.37l-.15.46c-.05.16-.1.32-.16.49v.05l-8.52-2.82.3-.92h.05l8.51 2.83zm4.11-15.82c-.06.28-.11.55-.16.83v.05l-8.83-1.75v-.18c.06-.26.11-.52.16-.78l-.16-.08h.21l8.8 1.67zm2.11-16.61c0 .35-.05.69-.07 1h-.05l-8.92-.64v-.37c0-.21 0-.43.05-.65l9 .58zm.11-15.46l-9 .45v-.05c0-.32 0-.64-.05-1v-.05l9-.51v.05l.06 1z" opacity=".5" fill="#00b4eb"/><path class="cls-21" d="M264 218.82a50.48 50.48 0 00-18.56-44.51l2-2.47a53.66 53.66 0 1019.72 47.3zm-18.59 29.86a47 47 0 01-13.67 8.59l1 2.36a49.74 49.74 0 01-67.6-35.6 50.94 50.94 0 01-1-7.22l2.55-.16a47.11 47.11 0 0132.8-48l-.78-2.44a49.56 49.56 0 018.32-1.88l.35 2.52a47.76 47.76 0 018-.4l.08-2.56a50.11 50.11 0 0113.62 2.39q1 .35 2.07.72l-.89 2.4a47.19 47.19 0 0115.14 79.27z"/><path class="cls-21" d="M367.46 213.63A153.36 153.36 0 00323.53 106l3.07-3 8.23-8.06a3.53 3.53 0 00.07-5 79 79 0 00-11.81-10.63 3.57 3.57 0 00-3.44-.44l-11.53 4.67a160.09 160.09 0 00-93.72-30.67v6.93h-.73a153.14 153.14 0 00-94.11 32.15l-4.26-5.5a159.84 159.84 0 00-41.09 47.21c-1.14 2 .86 7.38 2.19 10.48A154.22 154.22 0 0064.37 251l-16.11 1.74a203.12 203.12 0 009.19 28c.54 1.27 5.57 1.13 10.4.68a160 160 0 0072.41 75.27l3.14-6.13a153.23 153.23 0 0070.23 16.93 155.21 155.21 0 0020.58-1.37l.59 4.35a2.53 2.53 0 002.87 2.17 160 160 0 0065.81-25.68c2.61-1.76 2.86-1.87 5.33-3.75l-2.4-6.85a153.56 153.56 0 0061.05-122.73zM213.63 363.05a149.42 149.42 0 11149.42-149.42 149.42 149.42 0 01-149.42 149.42z"/></g></g></svg>