<svg xmlns="http://www.w3.org/2000/svg" viewBox="0 0 175.73 28.92"><defs><style>.cls-1{fill:#b2ddff}</style></defs><g id="图层_2" data-name="图层 2"><g id="Layer_8" data-name="Layer 8"><path class="cls-1" d="M137.73 3.31l1.26 1.26-1.98 1.99h-7.73l-3.58 3.58-1.63-1.62 5.21-5.21h8.45z"/><path class="cls-1" d="M144.36 5.1v1.52h-6.12l2.96-2.96L137.54 0h1.72l5.1 5.1zM146.66 25.16v3.38h-9.19l-2.51-2.51h9.18v-3.38l2.52 2.51zM129.59 7.96h19.12l-8.4 8.4h-19.1l8.38-8.4zM175.73 23.24l-5.7 5.68-12.34-12.34h-14.74l4.65-4.65h19.68v2.88l8.45 8.43z"/><path class="cls-1" d="M140.95 22.7v-3.59h9.74l2.66 2.67h-9.73v3.58l-2.67-2.66zM96.39 18.66H84.41l-2.7 2.7h11.98l2.7-2.7zM81.71 18.66H69.72l-2.7 2.7h11.99l2.7-2.7zM67.02 18.66H55.03l-2.7 2.7h11.99l2.7-2.7zM52.33 18.66H40.34l-2.69 2.7h11.98l2.7-2.7zM37.65 18.66H25.66l-2.7 2.7h11.99l2.7-2.7zM22.96 18.66H10.97l-2.7 2.7h11.99l2.7-2.7zM99.09 18.66l-2.7 2.7h42.72v-2.7H99.09zM139.59 27.34h-6.76l-.05-.04-5.08-5.09H0v-.3h127.83l.04.04 5.08 5.09h6.64v.3z"/><path class="cls-1" d="M171.65 24.87l-10.71-10.72h-12.18l-6.2 6.21H0v-.69h142.27l6.2-6.2h12.75l10.92 10.91-.49.49z"/></g></g></svg>