<svg xmlns="http://www.w3.org/2000/svg" viewBox="0 0 45.24 49.02"><defs><style>.cls-1{fill:#c2c2c2}</style></defs><g id="图层_2" data-name="图层 2"><g id="Layer_1" data-name="Layer 1"><path class="cls-1" d="M22.62 29.63L9.79 22.22V7.41h.07L22.62 0l12.83 7.41v14.81h-.08zm-12.53-7.58l12.53 7.24 12.53-7.24V7.58L22.62.34 10.09 7.58z"/><path class="cls-1" d="M12.83 46.58L0 39.18V24.36h.07L12.83 17l12.83 7.4v14.78zM.29 39l12.54 7.23L25.36 39V24.53L12.83 17.3.29 24.53z"/><path class="cls-1" d="M32.41 46.58l-12.83-7.4V24.36h.07L32.41 17l12.83 7.4v14.78zM19.87 39l12.54 7.23L44.94 39V24.53L32.41 17.3l-12.54 7.23z"/><path d="M22.62 49a22.67 22.67 0 01-7.46-1.24l-.2-.07V30.54L.09 22v-.21a23.11 23.11 0 017.5-12.96l.16-.14 14.87 8.59 14.87-8.59.16.14a23 23 0 017.45 12.91v.21l-14.83 8.59v17.17l-.2.07A22.66 22.66 0 0122.62 49zm-7.07-1.73a22.46 22.46 0 0014.13 0V30.88L22.62 35l-7.07-4.08zm0-17.09l7.07 4.08 7.06-4.08V22l-7.06-4-7.07 4zm7.66-12.58l7.06 4.08v8.16l14.21-8.21a22.3 22.3 0 00-7.07-12.21zm-22.46 4L15 29.86V21.7l7-4.08-14.18-8.2A22.42 22.42 0 00.75 21.65z" fill="#f5492a"/></g></g></svg>