<svg xmlns="http://www.w3.org/2000/svg" viewBox="0 0 328.95 325.2"><defs><style>.cls-2{fill:#fff}</style></defs><g id="图层_2" data-name="图层 2"><g opacity=".8" id="央铋_1" data-name="央铋 1"><path class="cls-2" d="M319.13 202.49a187.87 187.87 0 003.23-35.41c0-106.67-81-159.37-160.94-158.1q-4.56-4.61-9.62-9a185.3 185.3 0 00-32.91 5.17 150.77 150.77 0 00-11.82 13.36 156.73 156.73 0 00-39 20 149.66 149.66 0 00-15.77-.21C26.75 59.7 7.57 89.91 0 128.92q3.42 7.83 7.44 15.21a195.17 195.17 0 00-1.32 23c0 23.84 4.05 45 11.22 63.44a168.57 168.57 0 00-1.55 20.16 150.13 150.13 0 0031.61 40.9 146.13 146.13 0 0018.75 2.67c47.81 35.07 115.41 40.34 169.16 15.8a167.92 167.92 0 0019.95 7.78c33.2-18.65 60.24-48.54 73.69-89.69a191 191 0 00-9.82-25.7zM16.67 167.08c0-196.77 295.15-196.77 295.15 0s-295.15 196.77-295.15 0z"/><path class="cls-2" d="M164.48 301.14c-74.78 0-135.61-60.84-135.61-135.61S89.7 29.92 164.48 29.92s135.6 60.84 135.6 135.61-60.83 135.61-135.6 135.61zm0-268.88C91 32.26 31.21 92.05 31.21 165.53S91 298.79 164.48 298.79 297.74 239 297.74 165.53 238 32.26 164.48 32.26z"/><path class="cls-2" d="M267.61 85.34l-22.72-22.72-1.78 24.5 24.5-1.78zM61.34 246.16l22.72 22.73 1.79-24.51-24.51 1.78z"/></g></g></svg>