<svg xmlns="http://www.w3.org/2000/svg" viewBox="0 0 796.87 545.52"><defs><style>.cls-2{fill:#e985ff}</style></defs><g id="图层_2" data-name="图层 2"><g id="央铋_2" data-name="央铋 2"><g opacity=".5"><path class="cls-2" d="M398.43 476.77h-.2v-24h2.83l.35 24h-2.98zM394 476.73l-3.19-.1.9-24 2.8.08zM405.66 476.65l-.84-24c.95 0 1.89-.07 2.83-.12l1.19 24zM386.54 476.43c-1.07-.06-2.13-.13-3.19-.21l1.75-23.93 2.81.18zM413.1 476.25l-1.7-23.94c.93-.06 1.87-.14 2.8-.22l2.09 23.91c-1.06.09-2.13.18-3.19.25zM379.11 475.87l-3.18-.33 2.62-23.85c.94.1 1.87.2 2.8.28zM420.52 475.59L418 451.73c.93-.1 1.87-.21 2.8-.33l2.93 23.82c-1.1.13-2.16.26-3.21.37zM371.7 475l-3.16-.44 3.46-23.71c.93.14 1.86.27 2.8.39zM427.91 474.66l-3.44-23.76c.93-.13 1.86-.27 2.78-.42l3.82 23.69zM364.33 473.93c-1.05-.17-2.1-.36-3.14-.55l4.36-23.6 2.78.49zM435.26 473.45L431 449.84c.93-.16 1.84-.34 2.76-.52l4.69 23.54zM357 472.56c-1.05-.21-2.09-.44-3.12-.67l5.22-23.42 2.76.59zM442.57 472l-5.17-23.44 2.74-.62 5.55 23.35zM349.74 470.92q-1.55-.37-3.09-.78l6.06-23.22c.91.24 1.82.47 2.74.69zM449.82 470.24l-6-23.23c.91-.23 1.82-.48 2.72-.73l6.4 23.14c-1.06.28-2.09.58-3.12.82zM342.52 469l-3-.89 6.93-23 2.71.8zM457 468.24l-6.88-23 2.69-.82 7.24 22.88zM335.4 466.85l-3-1 7.77-22.71 2.67.89zM464.12 466l-7.73-22.72c.9-.3 1.79-.62 2.68-.93l8.07 22.6c-1.01.32-2.01.67-3.02 1.05zM328.35 464.41c-1-.36-2-.74-3-1.12l8.6-22.4 2.64 1zM471.15 463.43L462.6 441c.88-.33 1.75-.68 2.63-1l8.91 22.28c-.99.38-1.99.72-2.99 1.15zM321.4 461.72c-1-.4-2-.81-2.94-1.22l9.42-22.07 2.59 1.08zM478.08 460.63l-9.36-22.09 2.58-1.12 9.7 21.93c-.95.44-1.93.87-2.92 1.28zM314.58 458.79c-1-.43-1.93-.88-2.89-1.33l10.21-21.72 2.55 1.18zM484.92 457.58l-10.19-21.73 2.56-1.22 10.51 21.58zM307.87 455.62c-.95-.47-1.9-1-2.85-1.45l11-21.32 2.49 1.26zM491.62 454.29l-11-21.34c.83-.43 1.66-.86 2.49-1.31l11.34 21.16c-.92.5-1.87 1-2.83 1.49zM301.27 452.19c-.93-.51-1.87-1-2.79-1.54l11.78-20.91c.81.46 1.63.91 2.45 1.35zM498.2 450.75l-11.76-20.92c.83-.46 1.64-.93 2.46-1.4l12.1 20.74c-.95.53-1.87 1.06-2.8 1.58zM294.81 448.53c-.92-.54-1.83-1.09-2.74-1.65l12.53-20.47 2.4 1.45zM504.64 447l-12.52-20.5c.81-.49 1.61-1 2.41-1.49l12.82 20.28zM288.46 444.62l-2.66-1.73 13.27-20c.78.52 1.57 1 2.36 1.54zM510.93 443l-13.24-20 2.33-1.57 13.57 19.79c-.88.57-1.77 1.17-2.66 1.78zM282.28 440.5l-2.61-1.84 14-19.5c.76.55 1.52 1.09 2.29 1.62zM517.08 438.74l-14-19.51 2.29-1.66 14.27 19.29c-.84.64-1.7 1.26-2.56 1.88zM276.26 436.16c-.86-.64-1.71-1.29-2.55-1.94l14.69-19c.73.57 1.48 1.13 2.23 1.69zM523.06 434.29l-14.67-19c.74-.57 1.48-1.15 2.21-1.74l15 18.76zM270.37 431.58l-2.46-2 15.36-18.44 2.18 1.79zM528.87 429.63l-15.35-18.44 2.15-1.83 15.64 18.21c-.81.69-1.62 1.43-2.44 2.06zM264.67 426.81l-2.39-2.12 16-17.87c.7.63 1.4 1.25 2.11 1.86zM534.51 424.76l-16-17.87c.71-.63 1.4-1.27 2.1-1.91l16.28 17.64-2.38 2.14zM259.14 421.82l-2.32-2.2 16.67-17.27c.67.65 1.35 1.3 2 1.94zM540 419.69l-16.65-17.28 2-2 16.92 17zM253.79 416.63c-.75-.75-1.49-1.51-2.23-2.27l17.27-16.67 2 2zM545.24 414.42L528 397.76c.65-.68 1.3-1.36 1.94-2.05l17.52 16.4q-1.11 1.17-2.22 2.31zM248.64 411.26c-.73-.78-1.44-1.57-2.15-2.36l17.87-16c.62.7 1.26 1.39 1.9 2.08zM550.31 409l-17.86-16c.62-.69 1.24-1.39 1.85-2.1l18.13 15.74zM243.68 405.7c-.7-.81-1.38-1.62-2.07-2.44l18.45-15.36c.6.72 1.2 1.44 1.82 2.15zM555.18 403.34L536.75 388c.6-.72 1.19-1.45 1.79-2.18l18.66 15.08c-.67.81-1.34 1.63-2.02 2.44zM238.92 400c-.66-.83-1.32-1.67-2-2.51l19-14.68 1.75 2.22zM559.84 397.55l-19-14.69c.58-.75 1.14-1.49 1.7-2.24L561.78 395c-.64.86-1.29 1.7-1.94 2.55zM234.38 394.05c-.63-.85-1.26-1.71-1.88-2.58l19.5-14 1.67 2.28zM564.29 391.58l-19.5-14 1.62-2.3L566.13 389c-.61.85-1.22 1.72-1.84 2.58zM230.05 388c-.6-.88-1.2-1.76-1.79-2.66l20-13.25c.52.79 1 1.56 1.57 2.34zM568.52 385.46l-20-13.27 1.54-2.36 20.19 13c-.57.86-1.15 1.74-1.73 2.63zM226 381.75c-.57-.9-1.14-1.81-1.69-2.72l20.47-12.51c.49.8 1 1.6 1.49 2.39zM572.51 379.19l-20.46-12.54c.49-.8 1-1.6 1.45-2.41l20.66 12.22c-.55.92-1.09 1.83-1.65 2.73zM222.07 375.37c-.54-.92-1.07-1.84-1.59-2.77l20.92-11.77c.46.82.93 1.64 1.4 2.46zM576.28 372.78L555.37 361c.46-.82.91-1.64 1.36-2.46L577.82 370c-.51.93-1.02 1.86-1.54 2.78zM218.43 368.85c-.5-.94-1-1.88-1.49-2.83l21.34-11 1.31 2.5zM579.81 366.24l-21.32-11c.42-.83.85-1.66 1.26-2.5l21.5 10.67c-.47.94-.95 1.89-1.44 2.83zM215 362.21c-.47-1-.93-1.93-1.39-2.9l21.73-10.19c.4.85.8 1.7 1.22 2.54zM583.1 359.58l-21.72-10.22c.4-.85.8-1.7 1.18-2.56l21.87 9.89c-.43.97-.88 1.93-1.33 2.89zM211.87 355.43c-.43-1-.86-2-1.28-2.94l22.09-9.38c.37.87.75 1.73 1.13 2.59zM586.14 352.8l-22.07-9.42c.36-.86.73-1.73 1.08-2.6l22.21 9.09c-.36.98-.81 1.96-1.22 2.93zM209 348.55c-.4-1-.79-2-1.17-3l22.39-8.55c.33.88.68 1.76 1 2.63zM588.93 345.91l-22.4-8.61q.51-1.32 1-2.64l22.54 8.25c-.38 1.01-.75 2.01-1.14 3zM206.31 341.55q-.54-1.51-1.05-3l22.74-7.76q.45 1.33.93 2.67zM591.48 338.9l-22.71-7.78c.31-.89.61-1.78.9-2.68l22.82 7.44c-.33 1.01-.67 2.01-1.01 3.02zM203.92 334.46c-.32-1-.63-2-.94-3l23-6.89c.27.9.55 1.8.83 2.69zM593.77 331.8l-23-6.93c.27-.9.53-1.8.79-2.71l23.08 6.58c-.27 1.03-.57 2.05-.87 3.06zM201.8 327.31c-.28-1-.56-2.05-.83-3.08l23.23-6c.24.91.48 1.82.73 2.72zM595.79 324.63l-23.22-6.09q.36-1.37.69-2.73l23.31 5.72c-.25 1.04-.51 2.07-.78 3.1zM199.94 320.09c-.24-1-.48-2.07-.71-3.11l23.44-5.18c.2.92.41 1.83.62 2.74zM597.54 317.38l-23.42-5.22c.2-.92.4-1.83.59-2.76l23.51 4.86c-.22 1.04-.44 2.09-.68 3.12zM198.35 312.81c-.2-1-.4-2.09-.59-3.14l23.6-4.31c.17.92.35 1.84.53 2.76zM599 310.08l-23.6-4.36c.17-.92.34-1.85.49-2.78l23.67 4c-.15 1.06-.33 2.06-.56 3.14zM197 305.48c-.17-1.05-.33-2.11-.48-3.16l23.75-3.45c.13.93.28 1.86.43 2.78zM600.26 302.73l-23.75-3.49c.14-.93.27-1.87.39-2.8l23.8 3.13c-.14 1.05-.29 2.11-.44 3.16zM196 298.1c-.13-1.06-.25-2.11-.37-3.17l23.86-2.58c.11.93.21 1.86.33 2.8zM601.21 295.34l-23.86-2.63c.1-.93.2-1.88.29-2.82l23.89 2.29c-.1 1.06-.21 2.11-.32 3.16zM195.2 290.69c-.09-1.06-.18-2.12-.25-3.18l23.94-1.72c.06.94.14 1.88.22 2.82zM601.89 287.92L578 286.16c.07-.93.13-1.88.19-2.82l24 1.4zM194.69 283.26c-.06-1.06-.1-2.12-.14-3.19l24-.84c0 .94.07 1.88.12 2.81zM602.3 280.49l-24-.9c0-.94.07-1.87.09-2.82l24 .54q-.03 1.59-.09 3.18zM194.45 275.82v-3.18h24v2.83zM602.44 273h-24v-.28-2.82l24-.37v3.19zM218.46 268.88l-24-.5c0-1.07.05-2.13.09-3.19l24 .88c-.04.93-.07 1.87-.09 2.81zM578.32 266.18c0-.94-.07-1.88-.12-2.81l24-1.24c.05 1.06.1 2.12.14 3.19zM218.72 262.31l-24-1.36c.06-1.07.13-2.13.21-3.19l23.93 1.74c-.03.94-.09 1.87-.14 2.81zM578 259.61c-.07-.93-.14-1.87-.23-2.8l23.91-2.11c.09 1.06.18 2.12.26 3.18zM219.22 255.75l-23.9-2.23c.1-1.06.21-2.12.32-3.18L219.5 253c-.1.88-.2 1.82-.28 2.75zM577.38 253.06c-.1-.94-.21-1.87-.33-2.81l23.82-2.95c.13 1 .25 2.11.37 3.17zM220 249.22l-23.8-3.11c.14-1.05.28-2.11.44-3.16l23.74 3.48c-.18.93-.31 1.86-.38 2.79zM576.55 246.54c-.14-.93-.28-1.86-.43-2.78l23.69-3.84c.17 1.05.33 2.1.49 3.16zM220.92 242.72l-23.67-4c.17-1.06.36-2.11.55-3.15l23.61 4.34c-.17.96-.34 1.88-.49 2.81zM575.48 240.05c-.17-.92-.35-1.84-.53-2.76l23.53-4.71c.21 1 .41 2.1.61 3.15zM222.12 236.26l-23.5-4.84c.21-1 .43-2.09.67-3.13l23.42 5.21c-.2.92-.4 1.84-.59 2.76zM574.17 233.61c-.2-.92-.41-1.83-.62-2.74l23.34-5.57q.38 1.56.72 3.12zM223.57 229.85l-23.32-5.71c.26-1 .52-2.06.79-3.09l23.22 6.07q-.36 1.37-.69 2.73zM572.63 227.22c-.23-.91-.48-1.81-.73-2.72l23.1-6.41c.28 1 .56 2 .83 3.08zM225.25 223.49l-23.09-6.55c.29-1 .59-2.05.89-3.07l23 6.92c-.28.9-.55 1.8-.8 2.7zM570.86 220.9c-.27-.9-.55-1.8-.83-2.7l22.87-7.28c.32 1 .64 2 .94 3.07zM227.15 217.21l-22.82-7.41c.33-1 .66-2 1-3l22.67 7.73c-.26.89-.56 1.79-.85 2.68zM568.85 214.62c-.31-.9-.62-1.79-.94-2.68l22.59-8.1c.36 1 .72 2 1.06 3zM229.3 211l-22.55-8.23c.37-1 .74-2 1.12-3l22.41 8.59c-.28.87-.66 1.75-.98 2.64zM566.6 208.41c-.33-.88-.68-1.75-1-2.63l22.28-8.93 1.17 3zM231.67 204.86l-22.23-9.05c.4-1 .81-2 1.22-2.94l22.09 9.4c-.37.86-.75 1.73-1.08 2.59zM564.13 202.3c-.37-.87-.74-1.73-1.12-2.59l21.92-9.71q.66 1.47 1.29 2.94zM234.25 198.84L212.37 189c.43-1 .88-1.93 1.33-2.89l21.72 10.21c-.42.82-.79 1.68-1.17 2.52zM561.44 196.29c-.4-.86-.81-1.71-1.23-2.56l21.57-10.53c.46 1 .93 1.91 1.38 2.88zM237.05 192.92l-21.51-10.65 1.44-2.85 21.33 11c-.42.83-.85 1.67-1.26 2.5zM558.53 190.38c-.43-.84-.87-1.67-1.31-2.5l21.14-11.34c.51.94 1 1.88 1.5 2.83zM240.06 187.11L219 175.66c.51-.93 1-1.86 1.54-2.78l20.92 11.77c-.46.81-.95 1.64-1.4 2.46zM555.4 184.58c-.46-.82-.93-1.64-1.4-2.45L574.72 170c.54.92 1.07 1.84 1.59 2.77zM243.3 181.4l-20.67-12.2c.54-.92 1.09-1.83 1.64-2.73L244.74 179c-.48.79-.97 1.59-1.44 2.4zM552.07 178.9l-1.5-2.4 20.27-12.85c.57.9 1.14 1.81 1.69 2.71zM246.73 175.81l-20.21-12.94q.87-1.35 1.74-2.67l20 13.25zM548.52 173.35c-.51-.79-1-1.56-1.57-2.34l19.78-13.59c.6.88 1.2 1.77 1.79 2.66zM250.38 170.35l-19.73-13.67c.6-.88 1.22-1.75 1.84-2.61l19.5 14c-.54.74-1.08 1.51-1.61 2.28zM544.78 167.93c-.54-.76-1.1-1.52-1.66-2.28l19.28-14.3c.63.86 1.26 1.72 1.88 2.59zM254.21 165L235 150.64c.63-.85 1.28-1.7 1.93-2.54l19 14.68c-.59.74-1.16 1.49-1.72 2.22zM540.85 162.66c-.57-.75-1.16-1.49-1.74-2.22l18.74-15c.66.83 1.32 1.67 2 2.51zM258.24 159.84l-18.67-15.08c.66-.82 1.34-1.65 2-2.46L260 157.65zM536.73 157.53c-.6-.73-1.22-1.45-1.83-2.16l18.2-15.65c.69.8 1.37 1.61 2 2.43zM262.46 154.8l-18.12-15.75c.7-.8 1.4-1.59 2.11-2.38l17.88 16c-.63.71-1.26 1.42-1.87 2.13zM532.43 152.55c-.63-.7-1.27-1.39-1.91-2.08l17.61-16.32c.72.79 1.44 1.57 2.15 2.36zM266.86 149.91l-17.54-16.38c.73-.78 1.46-1.55 2.2-2.32l17.28 16.65zM527.94 147.74c-.65-.68-1.31-1.35-2-2l17-16.93c.75.75 1.49 1.51 2.23 2.27zM271.43 145.19l-16.92-17c.75-.74 1.51-1.49 2.27-2.22l16.67 17.26zM523.29 143.09c-.68-.65-1.36-1.3-2-1.94l16.38-17.54q1.17 1.08 2.31 2.19zM276.18 140.63L259.88 123c.78-.72 1.56-1.44 2.36-2.15l16 17.86zM518.47 138.62c-.7-.63-1.41-1.25-2.12-1.87l15.74-18.12c.8.69 1.6 1.4 2.39 2.11zM281.08 136.26l-15.64-18.2c.8-.7 1.61-1.38 2.43-2.06l15.37 18.43q-1.08.9-2.16 1.83zM513.5 134.32c-.73-.6-1.45-1.19-2.19-1.78l15.07-18.69c.83.67 1.65 1.34 2.46 2zM286.15 132.06l-15-18.76c.83-.66 1.66-1.32 2.5-2l14.69 19c-.71.58-1.46 1.17-2.19 1.76zM508.37 130.21l-2.25-1.71 14.39-19.21 2.53 1.92zM291.37 128l-14.29-19.28c.85-.64 1.72-1.27 2.58-1.89l14 19.51c-.78.58-1.54 1.14-2.29 1.66zM503.1 126.29l-2.3-1.62 13.66-19.73 2.61 1.83zM296.73 124.22l-13.58-19.8 2.65-1.78 13.27 20c-.79.52-1.57 1.04-2.34 1.58zM497.69 122.57l-2.35-1.57 12.94-20.21q1.34.86 2.67 1.74zM302.23 120.59l-12.86-20.27c.91-.57 1.81-1.14 2.72-1.69l12.53 20.47zM492.16 119c-.8-.49-1.61-1-2.42-1.45l12.2-20.66c.92.54 1.83 1.08 2.73 1.64zM307.85 117.17l-12.1-20.73c.92-.54 1.85-1.07 2.78-1.59l11.77 20.92c-.82.46-1.64.92-2.45 1.4zM486.5 115.73l-2.5-1.36 11.43-21.1c.93.5 1.86 1 2.78 1.53zM313.6 114l-11.33-21.2c.94-.51 1.88-1 2.84-1.49l11 21.33zM480.73 112.62l-2.52-1.27 10.67-21.5c.95.47 1.89 1 2.83 1.43zM319.47 111l-10.56-21.61c1-.47 1.93-.93 2.9-1.38L322 109.73zM474.84 109.73l-2.54-1.18 9.85-21.88 2.9 1.33zM325.43 108.17l-9.73-21.94 2.93-1.23 9.37 22zM468.87 107.05l-2.59-1.05 9-22.24c1 .4 2 .81 2.95 1.23zM331.5 105.6l-8.92-22.28 3-1.16 8.58 22.41zM462.78 104.59l-2.63-1 8.22-22.55 3 1.12zM337.67 103.26l-8.1-22.59 3-1.06 7.74 22.72q-1.31.45-2.64.93zM456.61 102.36c-.89-.31-1.79-.6-2.68-.9l7.4-22.82c1 .32 2 .66 3 1zM343.92 101.15l-7.26-22.88 3.06-.94 6.9 23zM450.35 100.35l-2.71-.79 6.56-23.09 3.06.89zM350.23 99.28l-6.41-23.13c1-.29 2.06-.56 3.09-.83l6 23.23c-.91.23-1.78.45-2.68.73zM444 98.57l-2.73-.69L447 74.57c1 .25 2.07.51 3.09.78zM356.6 97.64L351 74.29l3.12-.72L359.34 97c-.92.21-1.83.42-2.74.64zM437.63 97l-2.75-.59 4.83-23.51 3.13.67zM363 96.23l-4.68-23.53c1.05-.21 2.09-.41 3.14-.6l4.32 23.6zM431.2 95.72c-.93-.16-1.85-.33-2.78-.48l4-23.67c1.05.17 2.1.36 3.14.55zM369.49 95.07l-3.84-23.7c1.05-.17 2.1-.33 3.16-.48l3.46 23.75c-.93.13-1.86.28-2.78.43zM424.71 94.66c-.93-.14-1.86-.27-2.8-.39l3.09-23.8c1.05.14 2.11.28 3.16.44zM376 94.14l-3-23.82 3.2-.32 2.59 23.86c-.93.05-1.87.14-2.79.28zM418.19 93.82l-2.8-.28 2.22-23.9 3.18.32zM382.53 93.44l-2.09-23.9c1.06-.1 2.12-.18 3.18-.26l1.72 23.94zM411.64 93.23q-1.41-.11-2.82-.18l1.37-24c1.06.06 2.12.12 3.18.2zM389.09 93l-1.22-24 3.19-.14.85 24q-1.41.06-2.82.14zM405.07 92.87l-2.82-.08.5-24q1.61 0 3.18.09zM395.67 92.77l-.36-24h3.41l-.23 9.46v14.52h-.06z"/></g><path class="cls-2" d="M395.68 359h-1.05l.36-8h.93zM401.95 358.94l-.33-7.99.96-.04.4 7.99-1.03.04zM388.38 358.44l-1.03-.13 1.01-7.94.95.12-.93 7.95zM409.24 358.35l-1-7.94.93-.13 1.1 7.93zM381.15 357.28l-1-.21 1.69-7.82.93.19zM416.46 357.13l-1.67-7.83.93-.2 1.76 7.8zM374.05 355.52l-1-.3 2.35-7.65.91.27zM423.55 355.3l-2.34-7.65.91-.28 2.44 7.62zM367.13 353.16l-1-.39 3-7.42.88.35zM430.47 352.87l-3-7.43.88-.36 3.07 7.39zM360.42 350.21l-.93-.46 3.61-7.14.85.42zM437.15 349.86l-3.59-7.15.84-.43 3.68 7.1zM354 346.71l-.9-.55 4.21-6.8.81.49zM443.55 346.29l-4.19-6.82.8-.5 4.28 6.76zM347.91 342.68l-.85-.63 4.77-6.42.76.56zM449.62 342.19l-4.75-6.44.76-.56 4.83 6.38zM342.17 338.14l-.79-.69 5.29-6 .71.62zM455.32 337.6l-5.28-6 .71-.63 5.35 5.94zM336.83 333.13l-.73-.75 5.78-5.53.66.68zM460.61 332.54l-5.76-5.54.66-.69 5.81 5.49zM331.93 327.69l-.66-.81 6.22-5 .61.74zM465.46 327.06l-6.22-5c.2-.25.4-.49.59-.74l6.28 5zM327.51 321.86l-.6-.87 6.63-4.47.54.78zM469.82 321.19l-6.62-4.5c.18-.26.36-.52.53-.79l6.67 4.42zM323.59 315.67l-.51-.91 7-3.91c.15.28.31.56.47.83zM473.67 315l-7-3.91.47-.83 7 3.84zM320.21 309.16c-.14-.32-.29-.63-.43-1l7.29-3.29c.13.29.26.58.4.87zM476.98 308.44l-7.29-3.3.4-.88 7.31 3.24-.42.94zM317.4 302.39l-.35-1 7.55-2.65c.1.3.21.6.32.89zM479.72 301.67l-7.54-2.67.32-.9 7.57 2.59zM315.19 295.41c-.1-.34-.19-.67-.27-1l7.74-2c.08.3.16.61.25.91zM481.88 294.67l-7.74-2.02.24-.93 7.75 1.95-.25 1zM313.57 288.26l-.18-1 7.89-1.34c.05.32.11.63.16.94zM483.43 287.52l-7.89-1.37c.06-.3.11-.61.16-.92l7.9 1.24c-.06.35-.11.7-.17 1.05zM312.57 281l-.09-1 8-.65c0 .31.05.62.08.94zM484.36 280.26l-7.97-.69.08-.95 7.98.6-.09 1.04zM312.19 273.72v-1l8-.09v1zM484.68 272.94h-8v-.24-.89l8-.09v1zM320.39 267l-8-.58c0-.34 0-.69.08-1l8 .68c-.03.25-.06.57-.08.9zM476.41 266.13l-.09-.96 7.97-.75.09 1.03-7.97.68zM321.15 260.39l-7.9-1.26c.06-.34.11-.69.17-1l7.89 1.35c-.06.28-.11.6-.16.91zM475.57 259.53c-.05-.3-.1-.61-.16-.92l7.87-1.46.18 1.05zM322.47 253.88l-7.76-1.88c.08-.34.17-.68.26-1l7.74 2zM474.18 253.05l-.24-.93 7.72-2.09c.09.33.18.67.26 1zM324.34 247.51l-7.57-2.58c.11-.33.23-.66.34-1l7.54 2.66zM472.24 246.7l-.32-.9 7.51-2.76c.12.33.24.66.35 1zM326.75 241.33l-7.33-3.21c.14-.32.28-.64.43-1l7.28 3.31c-.13.32-.25.57-.38.9zM469.76 240.53c-.13-.29-.26-.57-.4-.86l7.25-3.4.44 1zM329.67 235.38l-7-3.83.51-.91 7 3.91zM466.76 234.6c-.15-.28-.31-.56-.47-.83l6.94-4 .51.91zM333.09 229.69l-6.68-4.41.58-.86 6.63 4.49zM463.27 228.94l-.53-.78 6.56-4.57.6.87zM337 224.32l-6.28-5c.21-.28.43-.55.65-.82l6.22 5zM459.32 223.6l-.6-.73 6.15-5.11.67.81zM341.31 219.28l-5.84-5.47.72-.76 5.77 5.54zM454.93 218.62l-.67-.69 5.71-5.6.73.75zM346.05 214.63l-5.35-5.95.77-.69 5.29 6zM450.13 214l-.71-.62 5.21-6.07c.26.22.53.45.79.69zM351.17 210.39l-4.84-6.39.84-.63 4.76 6.43zM445 209.84l-.76-.55 4.68-6.49c.29.2.57.41.85.62zM356.63 206.6l-4.28-6.76c.29-.19.59-.37.89-.55l4.19 6.81zM439.47 206.12l-.81-.49 4.12-6.86.89.54zM362.39 203.29l-3.69-7.1.93-.48 3.61 7.14c-.24.15-.57.29-.85.44zM433.68 202.88l-.84-.42 3.52-7.19.93.47zM368.41 200.47l-3.07-7.38 1-.4 3 7.42zM427.65 200.14l-.89-.35 2.9-7.45 1 .38zM374.65 198.19l-2.42-7.63 1-.31 2.33 7.65zM421.39 197.93l-.91-.27 2.24-7.68 1 .3zM381.07 196.44l-1.78-7.8 1-.22 1.68 7.82zM415 196.26l-.93-.2 1.59-7.84 1 .22zM387.6 195.25l-1.11-7.92 1.05-.14 1 7.94zM408.42 195.14l-.95-.11.92-7.95 1 .12zM394.2 194.62l-.42-8h1l.33 8zM401.8 194.58h-.94l.23-8h1.05z"/><path class="cls-2" d="M398.43 443.26c-94 0-170.5-76.48-170.5-170.5s76.49-170.5 170.5-170.5 170.5 76.49 170.5 170.5-76.48 170.5-170.5 170.5zm0-336c-91.25 0-165.5 74.25-165.5 165.5s74.25 165.5 165.5 165.5 165.5-74.24 165.5-165.5-74.24-165.5-165.5-165.5z"/><path class="cls-2" d="M265.08 377.81l-39.94-5 15.64-37.09 24.3 42.09zM556.09 335.72l15.64 37.09-39.94 5 24.3-42.09zM374.13 104.75l24.3-32.09 24.3 32.09h-48.6zM282.15 188.84l9.68 22.51-24.29 3.21 14.61-25.72zM383.9 415.42l14.65-19.63 14.92 19.43-29.57.2zM529.25 214.02l-24.33-2.87 9.36-22.64 14.97 25.51z"/><path class="cls-2" d="M252.92 281.59l5-.31a140.52 140.52 0 0176.57-133.94l-2.27-4.45a145.51 145.51 0 00-79.29 138.7zM478.85 394.39l-2.76-4.17A141 141 0 01328.53 395c-2.31-1.32-4.56-2.71-6.76-4.14l-2.73 4.2c2.29 1.48 4.62 2.91 7 4.28a146 146 0 00152.81-4.95zM470.81 146.16a148.66 148.66 0 00-7.24-3.87l-2.24 4.47c2.36 1.18 4.69 2.42 7 3.74a141 141 0 0170.72 129.59l5 .26a146 146 0 00-73.24-134.19z"/></g><g id="央铋_4" data-name="央铋 4"><path class="cls-2" d="M102.53 512.44l15.67-26.2-29.46 10.65C39.85 438.13 12.14 363.3 9.82 283.65l30.51-10.89-30.51-10.88C12.16 181.45 40.41 106 90.19 46.93l29.26 10.44-15.53-25.74a321.16 321.16 0 0124.74-23.24L122.8 0a329 329 0 00-31 29.87C32.59 94.75 0 181 0 272.76s32.59 178 91.76 242.89a329 329 0 0031 29.87l5.86-8.39a320.46 320.46 0 01-26.09-24.69zM705.11 29.87A329.1 329.1 0 00674.06 0l-5.86 8.39a318.78 318.78 0 0130.09 29 337 337 0 0169.85 118.82l-22.51 18.6 29.14 3.15a367.25 367.25 0 01.16 189.1l-29 3.68 22.67 17.42a337.12 337.12 0 01-70.28 120.07 317.53 317.53 0 01-30.09 28.95l5.86 8.39a327.85 327.85 0 0031.05-29.87c59.17-64.88 91.76-151.13 91.76-242.89S764.28 94.75 705.11 29.87z"/></g></g></svg>