<svg xmlns="http://www.w3.org/2000/svg" viewBox="0 0 220.42 98.91"><g data-name="图层 2"><g data-name="Layer 1"><path opacity=".5" fill="#1d71b8" d="M219.94.6v97.71h-14.22v-9.62h-56.53v9.62h-14.74v-9.17H18.6v-9.25L2.3 70.92h203.45V27.99H2.3V15.88L32.52.6h67.98l10.62 11.35h72.94L195.15.6h24.79z"/><path d="M220.42 98.91h-15.17V89.3h-55.58v9.61H134v-9.16H18.12v-9.46L0 70.32h205.27V28.59H1.82V15.47L32.52 0h68.15l10.62 11.35h72.6L195 0h25.44zm-14.23-1.21h13.28V1.21h-24.16l-11.08 11.34H111L100.33 1.21H32.61L2.77 16.29v11.09h203.45v44.15H4.6l14.47 8v9.05h115.86v9.12h13.79v-9.61h57.47z" fill="#36a9e1"/><path fill="#1d71b8" d="M149.2 88.66h56.52v.04H149.2z"/></g></g></svg>