<svg xmlns="http://www.w3.org/2000/svg" viewBox="0 0 158.8 263.07"><defs><style>.cls-2{fill:none;stroke:#00b4eb;stroke-miterlimit:10}</style></defs><g id="图层_2" data-name="图层 2"><g id="Layer_2" data-name="Layer 2"><path opacity=".3" fill="#00b4eb" d="M13.76 18.32v128.54L.5 160.12v88.97l13.48 13.48h39.55l19.05-19.06h85.02l-11.23-11.22H68.33l-11.59 11.58H28.43V89.63l20.45-20.45V34.91L29.89 15.92V1.26L13.76 18.32z"/><path class="cls-2" d="M13.76 18.32v128.54L.5 160.12v88.97l13.48 13.48h39.55l19.05-19.06h85.02l-11.23-11.22H68.33l-11.59 11.58H28.43V89.63l20.45-20.45V34.91L29.89 15.92V1.26L13.76 18.32z"/><path stroke="#00b4eb" stroke-miterlimit="10" fill="#00b4eb" d="M35.89 237.49V115.22l10.78-10.79v57.93l6.07 6.06v43.18L42.34 222v15.49h-6.45z"/><path class="cls-2" d="M65.64 2.83v125.36l-10.4 10.39v17.89l8.81 8.81v52.27h42.9"/></g></g></svg>