<svg xmlns="http://www.w3.org/2000/svg" viewBox="0 0 582.59 549.97"><defs><style>.cls-2{fill:#5fffe8}</style></defs><g id="图层_2" data-name="图层 2"><g opacity=".8" id="央铋_1" data-name="央铋 1"><path class="cls-2" d="M363.15 0h13.21v24.48h-13.21z"/><path class="cls-2" transform="rotate(-12 334.292 16.33)" d="M327.65 4.08h13.21v24.48h-13.21z"/><path class="cls-2" transform="rotate(-23.99 300.381 27.69)" d="M293.78 15.46h13.21v24.48h-13.21z"/><path class="cls-2" transform="rotate(-36.02 269.611 45.873)" d="M263.01 33.63h13.21v24.48h-13.21z"/><path class="cls-2" transform="rotate(-48 243.315 70.034)" d="M236.7 57.8h13.21v24.48H236.7z"/><path class="cls-2" transform="rotate(-60.01 222.581 99.15)" d="M215.98 86.91h13.21v24.48h-13.21z"/><path class="cls-2" d="M222.06 129.43l-4.08 12.56-23.27-7.56 4.07-12.57 23.28 7.57z"/><path class="cls-2" transform="rotate(-84 201.316 166.947)" d="M194.7 154.71h13.21v24.48H194.7z"/><path class="cls-2" transform="rotate(-6 201.48 202.564)" d="M189.41 196.07h24.48v13.21h-24.48z"/><path class="cls-2" transform="rotate(-18.02 209.403 237.536)" d="M197.18 230.94h24.48v13.21h-24.48z"/><path class="cls-2" transform="rotate(-30.01 224.322 270.064)" d="M212.04 263.44h24.48v13.21h-24.48z"/><path class="cls-2" transform="rotate(-42.02 245.55 298.732)" d="M233.32 292.14h24.48v13.21h-24.48z"/><path class="cls-2" transform="rotate(-54.01 272.34 322.377)" d="M260.11 315.78h24.48v13.21h-24.48z"/><path class="cls-2" transform="rotate(-66.01 303.495 339.947)" d="M291.22 333.33h24.48v13.21h-24.48z"/><path class="cls-2" transform="rotate(-78.02 337.558 350.648)" d="M325.31 344.04h24.48v13.21h-24.48z"/><path class="cls-2" d="M366.51 341.79h13.21v24.48h-13.21z"/><path class="cls-2" transform="rotate(-11.99 408.567 349.923)" d="M402.01 337.7h13.21v24.48h-13.21z"/><path class="cls-2" transform="rotate(-24 442.492 338.586)" d="M435.87 326.33h13.21v24.48h-13.21z"/><path class="cls-2" transform="rotate(-35.9 472.61 318.213)" d="M466.64 308.16h13.21v24.48h-13.21z"/><path class="cls-2" transform="rotate(-47.98 499.617 296.238)" d="M492.96 283.99h13.21v24.48h-13.21z"/><path class="cls-2" transform="rotate(-59.99 520.257 267.12)" d="M513.67 254.89h13.21v24.48h-13.21z"/><path class="cls-2" transform="rotate(-72.01 534.484 234.345)" d="M527.88 222.11h13.21v24.48h-13.21z"/><path class="cls-2" transform="rotate(-84 541.6 199.31)" d="M534.96 187.09h13.21v24.48h-13.21z"/><path class="cls-2" transform="rotate(-6.03 541.222 163.586)" d="M528.98 156.99h24.48v13.21h-24.48z"/><path class="cls-2" transform="rotate(-18.02 533.396 128.734)" d="M521.21 122.12h24.48v13.21h-24.48z"/><path class="cls-2" transform="rotate(-30.02 518.507 96.236)" d="M506.35 89.62h24.48v13.21h-24.48z"/><path class="cls-2" transform="rotate(-42.01 497.257 67.539)" d="M485.07 60.93h24.48v13.21h-24.48z"/><path class="cls-2" d="M468.67 57.67l-10.69-7.76 14.4-19.8 10.68 7.76-14.39 19.8z"/><path class="cls-2" transform="rotate(-66.01 439.417 26.324)" d="M427.17 19.73h24.48v13.21h-24.48z"/><path class="cls-2" transform="rotate(-78.02 405.306 15.637)" d="M393.08 9.02h24.48v13.21h-24.48z"/><path class="cls-2" d="M458 463.18a124.61 124.61 0 11124.59-124.61A124.74 124.74 0 01458 463.18zm0-246.59a122 122 0 10122 122 122.12 122.12 0 00-122-122z"/><path class="cls-2" d="M460.54 372.88a272.57 272.57 0 004.65-51.09c0-153.94-116.82-230-232.25-228.15q-6.57-6.66-13.89-13a266.7 266.7 0 00-47.48 7.46 217.8 217.8 0 00-17.07 19.28 225.83 225.83 0 00-56.3 28.92 208.91 208.91 0 00-22.72-.3C38.6 166.83 10.92 210.42 0 266.72Q4.94 278 10.74 288.67a280.76 280.76 0 00-1.91 33.12c0 34.4 5.85 64.92 16.2 91.54a240 240 0 00-2.25 29.1 216.07 216.07 0 0045.63 59 204.54 204.54 0 0027.05 3.85c69 50.62 166.54 58.22 244.11 22.81a242.66 242.66 0 0028.79 11.23c47.91-26.91 86.94-70.05 106.34-129.43a276.51 276.51 0 00-14.16-37.01zM24.05 321.79c0-284 425.93-284 425.93 0s-425.93 283.95-425.93 0z"/><path class="cls-2" d="M237.35 515.23c-107.9 0-195.69-87.78-195.69-195.68s87.79-195.7 195.69-195.7S433 211.64 433 319.55s-87.75 195.68-195.65 195.68zm0-388C131.31 127.23 45 213.51 45 319.55s86.27 192.31 192.31 192.31 192.31-86.27 192.31-192.31-86.23-192.32-192.27-192.32z"/><path class="cls-2" d="M386.18 203.83l-32.79-32.79-2.57 35.36 35.36-2.57zM88.52 435.91l32.79 32.79 2.57-35.36-35.36 2.57z"/></g></g></svg>