<svg xmlns="http://www.w3.org/2000/svg" xmlns:xlink="http://www.w3.org/1999/xlink" viewBox="0 0 112.02 102.28"><defs><linearGradient id="藉琨靾眄_沭噤桢眚_37" x1="-1910" y1="-1593.03" x2="-1910" y2="-1660.14" gradientTransform="rotate(-90 -86.81 -1772.04)" gradientUnits="userSpaceOnUse"><stop offset="0" stop-color="#6eb9dd"/><stop offset=".57" stop-color="#9cd2e9"/><stop offset="1" stop-color="#bae2f1"/></linearGradient><linearGradient id="藉琨靾眄_沭噤桢眚_37-2" x1="-1910.01" y1="-1593.03" x2="-1910.01" y2="-1660.14" xlink:href="#藉琨靾眄_沭噤桢眚_37"/><linearGradient id="藉琨靾眄_沭噤桢眚_37-3" x1="-1929.97" y1="-1593.03" x2="-1929.97" y2="-1660.14" xlink:href="#藉琨靾眄_沭噤桢眚_37"/><linearGradient id="藉琨靾眄_沭噤桢眚_37-4" x1="-1890.47" y1="-1593.03" x2="-1890.47" y2="-1660.14" xlink:href="#藉琨靾眄_沭噤桢眚_37"/><style>.cls-3{fill:#54808a}.cls-4{fill:#7a9fa6}.cls-5{fill:#37626f}.cls-6{fill:#a3bec3}.cls-7{fill:#2b4b54}.cls-17{fill:#addff2}</style></defs><g style="isolation:isolate"><g id="图层_2" data-name="图层 2"><g id="图层_1-2" data-name="图层 1"><g style="mix-blend-mode:screen" opacity=".5"><path class="cls-3" d="M112 51.14a51.43 51.43 0 01-1.4 11.94l-7.6-1.83a43.33 43.33 0 001.18-10.11c0-1.34-.06-2.69-.18-4l7.82-.72c.18 1.58.18 3.14.18 4.72z"/><path class="cls-4" d="M111.57 44.32l-7.78 1a42.85 42.85 0 00-4.15-13.53l7-3.5a50.41 50.41 0 014.93 16.03z"/><path class="cls-3" d="M110.09 65.11A51 51 0 01103 80.24l-6.46-4.47a43.2 43.2 0 006-12.77z"/><path class="cls-4" d="M105.69 26.47l-6.87 3.79a43.48 43.48 0 00-8.77-11.11l5.28-5.8a51 51 0 0110.36 13.12z"/><path class="cls-5" d="M101.71 81.94A51.18 51.18 0 0189.6 93.46L85.19 87a43.44 43.44 0 0010.26-9.76z"/><path class="cls-6" d="M93.76 12l-5.05 6a43.41 43.41 0 00-12.18-7.21l2.83-7.32A51.15 51.15 0 0193.76 12z"/><path class="cls-5" d="M87.85 94.6a50.72 50.72 0 01-15.47 6.4l-1.76-7.65a42.91 42.91 0 0013.08-5.41z"/><path class="cls-6" d="M77.38 2.72l-2.53 7.43a43.12 43.12 0 00-14-2.3h-.09V0h.11a51.2 51.2 0 0116.51 2.72z"/><path class="cls-7" d="M70.33 101.41a51.83 51.83 0 01-16.71.36l1.1-7.77a44.26 44.26 0 0014.16-.3z"/><path d="M59 7.89a43.09 43.09 0 00-13.85 2.9l-2.84-7.31A50.81 50.81 0 0158.68.05z" fill="#d0dee0"/><path class="cls-7" d="M53 93.71l-1.43 7.72a50.86 50.86 0 01-15.73-5.7l3.86-6.84A42.73 42.73 0 0053 93.71z"/><path d="M43.52 11.47a43.14 43.14 0 00-11.86 7.73l-5.3-5.79a51 51 0 0114-9.13z" fill="#fff"/><path d="M38.13 88L34 94.66a51.47 51.47 0 01-12.59-11l6.06-5A43.28 43.28 0 0038.13 88z" fill="#1e343a"/></g><g opacity=".3"><path d="M35.75 30.66a30.68 30.68 0 00-.36 41l-2.72 2.41a34.32 34.32 0 01.39-45.88z" fill="url(#藉琨靾眄_沭噤桢眚_37)"/><path d="M36.22 29.43a1.81 1.81 0 01-.47 1.23 30.68 30.68 0 00-.36 41 1.82 1.82 0 11-2.72 2.41 34.32 34.32 0 01.39-45.88 1.82 1.82 0 013.16 1.23z" fill="url(#藉琨靾眄_沭噤桢眚_37-2)"/><path d="M92 58.35a2.58 2.58 0 010 .39 34.34 34.34 0 01-33.6 26.95 34.06 34.06 0 01-13.81-2.89 1.82 1.82 0 011.46-3.33A30.72 30.72 0 0088.37 58a1.82 1.82 0 013.6.38z" fill="url(#藉琨靾眄_沭噤桢眚_37-3)"/><path d="M92 44.37a1.82 1.82 0 01-3.6.39 30.85 30.85 0 00-30-24.09 30.53 30.53 0 00-11.87 2.38 1.82 1.82 0 11-1.4-3.35A34 34 0 0158.4 17a34.35 34.35 0 0133.53 27 2.87 2.87 0 01.07.37z" fill="url(#藉琨靾眄_沭噤桢眚_37-4)"/></g><g style="mix-blend-mode:screen"><path class="cls-17" d="M10.67 81.12a2.38 2.38 0 11-.59 3.31 2.38 2.38 0 01.59-3.31zM3.4 63.48a2.38 2.38 0 11-1.68 2.91 2.37 2.37 0 011.68-2.91zM16.48 88.73a2.38 2.38 0 110 3.36 2.38 2.38 0 010-3.36zM6.26 72.62a2.38 2.38 0 11-1.15 3.16 2.37 2.37 0 011.15-3.16zM2.17 54A2.38 2.38 0 110 56.56 2.39 2.39 0 012.17 54zM2.61 44.42A2.37 2.37 0 110 46.58a2.37 2.37 0 012.61-2.16zM4.7 35.07a2.38 2.38 0 11-2.91 1.68 2.37 2.37 0 012.91-1.68zM8.38 26.23a2.38 2.38 0 11-3.16 1.15 2.38 2.38 0 013.16-1.15zM13.54 18.16a2.38 2.38 0 11-3.31.59 2.39 2.39 0 013.31-.59zM20 11.12a2.38 2.38 0 11-3.37 0 2.39 2.39 0 013.37 0zM27.63 5.3a2.38 2.38 0 11-3.31-.58 2.36 2.36 0 013.31.58z"/></g></g></g></g></svg>