<svg xmlns="http://www.w3.org/2000/svg" viewBox="0 0 962 57"><defs><style>.cls-1{fill:#fff}</style></defs><g id="图层_2" data-name="图层 2"><g id="Layer_1" data-name="Layer 1"><path class="cls-1" d="M0 24.56h2v2H0zM5 24.56h2v2H5zM10 24.56h2v2h-2zM16 24.56h2v2h-2zM21 24.56h2v2h-2zM26 24.56h2v2h-2zM31 24.56h2v2h-2zM37 24.56h2v2h-2zM42 24.56h2v2h-2zM47 24.56h2v2h-2zM52 24.56h2v2h-2zM58 24.56h2v2h-2zM63 24.56h2v2h-2zM68 24.56h2v2h-2zM73 24.56h2v2h-2zM80 24.56h2v2h-2zM84.44 25h3v2h-3zM90 24.56h2v2h-2zM94 24.56h2v2h-2zM100.44 25h2v6h-2zM105.44 22h3v9h-3zM111 24.56h2v2h-2zM116 24.56h2v2h-2zM122 24.56h2v2h-2zM126.44 17h3v19h-3zM132.44 14h2v27h-2zM137.44 10h2v37h-2zM142.44 1h2v56h-2zM683.44 10h2v37h-2zM689.44 0h2v56h-2zM148.44 15h2v21h-2zM153.44 20h2v13h-2zM158 24.56h2v2h-2zM164 24.56h2v2h-2zM169 24.56h2v2h-2zM174 24.56h2v2h-2zM179.44 20h2v12h-2zM185.44 16h2v19h-2zM190 24.56h2v2h-2zM196 24.56h2v2h-2zM201.44 25h3v2h-3zM207 24.56h2v2h-2zM212 24.56h2v2h-2zM217 24.56h2v2h-2zM221.44 16h2v19h-2zM227.44 18h3v12h-3zM233 24.56h2v2h-2zM238 24.56h2v2h-2zM243.44 25h3v2h-3zM249 24.56h2v2h-2zM254 24.56h2v2h-2zM259 24.56h2v2h-2zM263.44 26h4v1h-4zM270 24.56h2v2h-2zM275 24.56h2v2h-2zM280.44 25h3v2h-3zM285.44 16h3v20h-3zM291.44 1h2v45h-2zM296.44 14h2v23h-2zM302 24.56h2v2h-2zM307.44 25h3v2h-3zM313 24.56h2v2h-2zM317 24.56h2v2h-2zM323 24.56h2v2h-2zM328.44 25h3v2h-3zM334 24.56h2v2h-2zM339 24.56h2v2h-2zM344 24.56h2v2h-2zM349.44 25h3v2h-3zM355 24.56h2v2h-2zM360 24.56h2v2h-2zM365 24.56h2v2h-2zM370.44 25h3v2h-3zM376 24.56h2v2h-2zM381.44 25h3v2h-3zM386.44 18h2v9h-2zM391.44 18h3v21h-3zM397.44 13h2v33h-2zM402.44 6h2v29h-2zM407.44 18h3v14h-3zM414 24.56h2v2h-2zM419 24.56h2v2h-2zM424 24.56h2v2h-2zM429 24.56h2v2h-2zM435 24.56h2v2h-2zM440.44 25h3v2h-3zM445 24.56h2v2h-2zM450 24.56h2v2h-2zM456 24.56h2v2h-2zM462 24.56h2v2h-2zM466 24.56h2v2h-2zM471 24.56h2v2h-2zM477 24.56h2v2h-2zM482.44 25h3v2h-3zM487.44 25h3v2h-3zM493 24.56h2v2h-2zM499 24.56h2v2h-2zM504 24.56h2v2h-2zM508.44 22h3v5h-3zM514 24.56h2v2h-2zM519.44 21h2v7h-2zM525 24.56h2v2h-2zM530 24.56h2v2h-2zM535 24.56h2v2h-2zM541 24.56h2v2h-2zM545.44 22h2v14h-2zM550.44 1h3v48h-3zM556.44 10h2v28h-2zM694.44 1h2v48h-2zM699.44 10h2v28h-2zM562 24.56h2v2h-2zM567 24.56h2v2h-2zM572 24.56h2v2h-2zM577 24.56h2v2h-2zM583.44 25h3v2h-3zM588.44 25h3v2h-3zM594 24.56h2v2h-2zM599 24.56h2v2h-2zM605 24.56h2v2h-2zM610 24.56h2v2h-2zM615 24.56h2v2h-2zM620 24.56h2v2h-2zM626 24.56h2v2h-2zM631 24.56h2v2h-2zM636 24.56h2v2h-2zM641 24.56h2v2h-2zM647 24.56h2v2h-2zM652 24.56h2v2h-2zM657 24.56h2v2h-2zM662 24.56h2v2h-2zM668 24.56h2v2h-2zM673 24.56h2v2h-2zM678.44 18h2v16h-2z"/><path class="cls-1" d="M683.44 25h4v2h-4zM689.44 25h3v2h-3zM695 24.56h2v2h-2zM700 24.56h2v2h-2zM705.44 25h3v2h-3zM711 24.56h2v2h-2zM716 24.56h2v2h-2zM721 24.56h2v2h-2zM726.44 25h3v2h-3zM732 24.56h2v2h-2zM737 24.56h2v2h-2zM742 24.56h2v2h-2zM747.44 25h3v2h-3zM753 24.56h2v2h-2zM758 24.56h2v2h-2zM763.44 22h2v10h-2zM768.44 20h3v14h-3zM774.44 22h2v9h-2zM779 24.56h2v2h-2zM784.44 25h3v2h-3zM789.44 25h4v2h-4zM796 24.56h2v2h-2zM801 24.56h2v2h-2zM806 24.56h2v2h-2zM812 24.56h2v2h-2zM817 24.56h2v2h-2zM822 24.56h2v2h-2zM827 24.56h2v2h-2zM833 24.56h2v2h-2zM838 24.56h2v2h-2zM843 24.56h2v2h-2zM848 24.56h2v2h-2zM854 24.56h2v2h-2zM859 24.56h2v2h-2zM864 24.56h2v2h-2zM869 24.56h2v2h-2zM875 24.56h2v2h-2zM880.44 4h2v38h-2zM885.44 10h2v25h-2zM890.44 13h2v19h-2zM897.44 20h2v10h-2zM902 24.56h2v2h-2zM907 24.56h2v2h-2zM912 24.56h2v2h-2zM918 24.56h2v2h-2zM923 24.56h2v2h-2zM928 24.56h2v2h-2zM933 24.56h2v2h-2zM939 24.56h2v2h-2zM944.44 17h2v18h-2zM948.44 13h2v24h-2zM954 24.56h2v2h-2zM960 24.56h2v2h-2z"/></g></g></svg>