<svg xmlns="http://www.w3.org/2000/svg" viewBox="0 0 69.21 37.84"><defs><style>.cls-1,.cls-2{fill:#00b8de}.cls-2{fill-rule:evenodd}.cls-3{fill:#ff7000}</style></defs><g id="图层_2" data-name="图层 2"><g id="Layer_1" data-name="Layer 1"><path class="cls-1" d="M3.5 0h.13v37.84H3.5zM7.94 0h.13v37.84h-.13zM12.38 0h.13v37.84h-.13zM16.81 0h.13v37.84h-.13zM21.25 0h.13v37.84h-.13zM25.68 0h.13v37.84h-.13zM30.12 0h.13v37.84h-.13zM34.55 0h.13v37.84h-.13zM38.99 0h.13v37.84h-.13zM43.42 0h.13v37.84h-.13zM47.86 0h.13v37.84h-.13zM52.29 0h.13v37.84h-.13zM56.73 0h.11v37.84h-.11zM61.16 0h.11v37.84h-.11zM65.6 0h.11v37.84h-.11z"/><path class="cls-1" d="M0 1.13h69.21v.11H0zM0 5.55h69.21v.13H0zM0 9.98h69.21v.13H0zM0 14.42h69.21v.13H0zM0 18.85h69.21v.13H0zM0 23.29h69.21v.13H0zM0 27.72h69.21v.13H0zM0 32.16h69.21v.13H0zM0 36.6h69.21v.13H0z"/><path class="cls-2" d="M56.78 4.69a.88.88 0 11-.87.88.87.87 0 01.87-.88z"/><path class="cls-1" d="M56.78 2.92a2.63 2.63 0 011.61.55l-.13.11a2.44 2.44 0 00-1.48-.5 2.5 2.5 0 00-1.49.5l-.13-.11a2.6 2.6 0 011.62-.55zm-2 1.15a2.51 2.51 0 00-.51 1.5 2.5 2.5 0 00.51 1.49l-.13.11a2.6 2.6 0 01-.55-1.6A2.63 2.63 0 0154.68 4l.13.11zm4-.11a2.57 2.57 0 01.55 1.61 2.54 2.54 0 01-.55 1.6l-.11-.11a2.5 2.5 0 00.5-1.49 2.5 2.5 0 00-.5-1.5l.19-.07zm-.47 3.71a2.83 2.83 0 01-1.61.54 2.79 2.79 0 01-1.62-.54l.13-.13a2.49 2.49 0 001.57.46 2.44 2.44 0 001.48-.49zM58.08 4.67a1.66 1.66 0 01.27.9 1.52 1.52 0 01-.46 1.11 1.57 1.57 0 01-1.11.47 1.5 1.5 0 01-.91-.29l.25-.24a1.21 1.21 0 00.66.19 1.19 1.19 0 00.88-.37 1.26 1.26 0 00.34-.87 1.42 1.42 0 00-.18-.66l.24-.24zm-2.61 1.79l.25-.24a1.3 1.3 0 01-.2-.65 1.27 1.27 0 01.37-.88 1.22 1.22 0 01.89-.36 1.11 1.11 0 01.64.18l.26-.24a1.53 1.53 0 00-.9-.29 1.58 1.58 0 00-1.13.47 1.57 1.57 0 00-.46 1.12 1.61 1.61 0 00.28.89z"/><path class="cls-2" d="M16.9 13.12a1.32 1.32 0 11-1.32 1.32 1.32 1.32 0 011.32-1.32z"/><path class="cls-3" d="M16.9 10.46a4 4 0 012.42.83l-.2.16a3.7 3.7 0 00-2.22-.74 3.84 3.84 0 00-2.26.74l-.19-.16a4 4 0 012.45-.83zm-3 1.73a3.75 3.75 0 00-.77 2.25 3.75 3.75 0 00.77 2.25l-.19.17a3.91 3.91 0 01-.83-2.42 3.91 3.91 0 01.86-2.44l.19.17zM20 12a3.91 3.91 0 01.82 2.42 3.91 3.91 0 01-.82 2.44l-.16-.17a3.79 3.79 0 00.74-2.25 3.79 3.79 0 00-.74-2.25L20 12zm-.71 5.58a4.19 4.19 0 01-2.42.82 4.19 4.19 0 01-2.45-.82l.19-.19a3.84 3.84 0 002.26.74 3.7 3.7 0 002.22-.74zM18.85 13.09a2.48 2.48 0 01.41 1.35 2.36 2.36 0 01-.69 1.68 2.38 2.38 0 01-1.67.71 2.31 2.31 0 01-1.38-.44l.39-.36a1.73 1.73 0 001 .28 1.81 1.81 0 001.32-.55 1.93 1.93 0 00.55-1.32 2.09 2.09 0 00-.28-1l.36-.36zm-3.93 2.7l.38-.36a1.91 1.91 0 01-.3-1 1.93 1.93 0 01.55-1.32 1.87 1.87 0 011.35-.55 1.71 1.71 0 011 .28l.38-.36a2.24 2.24 0 00-1.34-.44 2.4 2.4 0 00-1.7.71 2.36 2.36 0 00-.69 1.68 2.4 2.4 0 00.37 1.36z"/><path class="cls-2" d="M8 31.58a.63.63 0 11-.62.63.63.63 0 01.62-.63z"/><path class="cls-1" d="M8.93 31.56a1.1 1.1 0 01.19.65 1.11 1.11 0 01-.32.79 1.13 1.13 0 01-.81.33H8a1.2 1.2 0 01-.63-.2l.15-.13a.9.9 0 00.47.13H8a.84.84 0 00.64-.26.87.87 0 00.26-.62.9.9 0 00-.13-.47l.17-.18zm-1.87 1.29l.19-.18a.81.81 0 01-.15-.46.88.88 0 01.27-.63.82.82 0 01.63-.26.91.91 0 01.48.13l.16-.18a1.09 1.09 0 00-.64-.21 1.07 1.07 0 00-.8.35 1.13 1.13 0 00-.33.8 1.27 1.27 0 00.19.64z"/><path class="cls-2" d="M48 22.69a.63.63 0 11-.62.64.63.63 0 01.62-.64z"/><path class="cls-3" d="M48.9 22.67a1.05 1.05 0 01.2.66 1.12 1.12 0 01-.33.78 1.13 1.13 0 01-.8.33 1.21 1.21 0 01-.64-.2l.17-.19a.88.88 0 00.47.13.87.87 0 00.64-.25 1 1 0 00.26-.62.91.91 0 00-.13-.48l.16-.18zM47 24l.18-.18a.88.88 0 01-.14-.45.89.89 0 01.27-.64.8.8 0 01.62-.26.94.94 0 01.48.13l.16-.18a1.08 1.08 0 00-.64-.2 1.1 1.1 0 00-.8.34 1.13 1.13 0 00-.33.81 1.17 1.17 0 00.2.63z"/></g></g></svg>