<svg xmlns="http://www.w3.org/2000/svg" viewBox="0 0 30.09 30.09"><g data-name="图层 2"><path d="M15.05 30.09h-.2v-1.65h.52v1.65zm-.78 0h-.59l.15-1.64h.52zm1.74 0l-.11-1.65h.52l.17 1.56zm-2.9-.09l-.58-.09.28-1.62.51.07zm4.05 0l-.23-1.63.51-.08.3 1.62zM12 29.77l-.56-.13.39-1.6c.17.05.34.08.51.12zm6.35 0L18 28.13l.5-.13.42 1.6zm-7.48-.24l-.55-.17.52-1.57.49.16zm8.6 0L19 27.86l.49-.16.51 1.56zm-9.7-.32L9.23 29l.64-1.52.48.19zm10.8-.06l-.6-1.54.47-.19.66 1.51zm-11.92-.48l-.52-.26.76-1.41.47.23zm12.94-.08l-.72-1.48.46-.23.78 1.45c-.17.09-.34.18-.52.26zm-14-.46l-.5-.29.91-1.4c.15.09.29.18.45.26zm15-.08l-.83-1.43.45-.27.88 1.4zm-16-.53l-.48-.34 1-1.32.42.29zm17-.1l-.93-1.35.42-.3 1 1.32zm-17.9-.59l-.45-.37 1.08-1.25a4.12 4.12 0 00.4.33zm18.84-.1l-1.05-1.28.4-.34L25 26.35zm-19.72-.65l-.42-.41 1.17-1.16.37.36zM25.4 26l-1.14-1.19.37-.37 1.18 1.15c-.13.1-.27.24-.41.41zM4 25.25l-.39-.43 1.26-1.07.34.38zm22.22-.12L25 24q.17-.18.33-.39l1.27 1.06c-.13.17-.26.33-.39.46zm-23-.76c-.12-.15-.24-.3-.35-.46l1.32-1 .32.42zM27 24.24l-1.3-1 .31-.42 1.34 1c-.16.11-.28.27-.35.42zm-24.4-.81c-.11-.16-.21-.32-.31-.48l1.4-.87c.09.14.18.29.28.43zm25.08-.14l-1.38-.9.28-.44 1.41.85c-.15.2-.25.33-.36.49zm-25.74-.84c-.09-.17-.19-.34-.27-.51l1.46-.76c.08.15.16.3.25.45zm26.29-.15l-1.44-.8.21-.5 1.47.74zm-26.82-.88l-.24-.53 1.52-.65.21.48zm27.34-.17l-1.5-.68c.07-.16.14-.31.2-.47l1.53.62c-.07.18-.15.36-.23.53zM1 20.35a2.21 2.21 0 01-.23-.55l1.56-.52c0 .16.11.32.17.49zm28.23-.18l-1.55-.56c.06-.16.12-.32.17-.49l1.57.5c-.1.19-.16.38-.23.55zM.59 19.24l-.15-.56 1.6-.4c0 .17.09.34.14.5zm29-.18L28 18.62c0-.16.09-.33.12-.5l1.61.38c-.08.19-.13.38-.18.56zM.31 18.12c0-.19-.07-.38-.1-.58l1.62-.27c0 .17.06.34.1.51zm29.5-.19l-1.62-.31a4.54 4.54 0 00.09-.51l1.63.25c-.03.19-.06.38-.1.57zM.12 17l-.06-.58 1.64-.15c0 .18 0 .35.06.52zM30 16.79l-1.64-.2v-.51l1.65.12zm-30-1v-.58h1.65v.52zm30.06-.19l-1.65-.06V14.7l1.64-.05V15c.04.24.03.43.03.62zm-28.41-.91L0 14.65v-.58l1.64.1c.02.18.02.35.01.52zm26.76-.49v-.52l1.59-.16v.57zm-26.69-.54l-1.64-.17c0-.19 0-.38.07-.57l1.63.22zm26.59-.49c0-.17 0-.34-.08-.51l1.62-.29c0 .19.07.38.09.57zm-26.45-.54l-1.62-.29c0-.19.07-.38.12-.57l1.6.36c-.03.17-.07.34-.1.5zm26.27-.48l-.12-.5 1.59-.42.14.56zm-26-.52L.49 11.2l.16-.55 1.58.48c-.05.16-.1.33-.14.5zm25.78-.48c-.06-.17-.11-.33-.17-.49l1.56-.54a5.05 5.05 0 01.18.55zm-25.52-.52l-1.56-.54c.07-.18.17-.37.17-.55l1.53.61zm25.13-.46c-.06-.16-.12-.32-.19-.47l1.51-.7c.08.18.15.36.22.54zm-24.75-.5L1.26 9l.24-.53L3 9.2c-.09.15-.16.31-.23.47zm24.34-.45c-.07-.15-.15-.3-.23-.45L28.34 8l.26.52zM3.22 8.74L1.77 8l.28-.51 1.43.84a4.83 4.83 0 00-.26.41zm23.41-.42l-.27-.45L27.75 7l.3.49zM3.75 7.84L2.36 7c.1-.17.21-.33.32-.49l1.32.9zm22.33-.39c-.1-.15-.2-.29-.31-.43l1.32-1 .34.47zM4.34 7L3 6l.36-.46 1.28 1c-.09.18-.2.31-.3.46zm21.12-.38l-.34-.39 1.24-1.09.37.44zM5 6.19L3.76 5.1a5.22 5.22 0 01.39-.43l1.19 1.14c-.12.12-.23.25-.34.38zm19.78-.36l-.36-.36 1.15-1.18a5.44 5.44 0 01.41.42zM5.71 5.44L4.56 4.26c.13-.14.28-.27.42-.4l1.1 1.23zM24 5.11l-.39-.34 1.09-1.26.44.38zM6.48 4.75L5.42 3.48c.15-.12.3-.25.45-.36l1 1.3zm16.75-.31l-.41-.3 1-1.34.47.35zM7.29 4.12l-1-1.35.48-.33.9 1.38zm15.1-.28L22 3.57l.85-1.41.49.31zM8.16 3.55l-.85-1.41.51-.29.79 1.44zm13.35-.24l-.46-.24.74-1.48.52.28zM9.07 3.05l-.74-1.47.52-.25.68 1.5zm11.51-.21c-.16-.07-.31-.14-.48-.2l.63-1.53.53.23zM10 2.63L9.38 1.1l.55-.21.56 1.55zm9.61-.18l-.49-.17.5-1.57.56.19zM11 2.28L10.48.7 11 .54l.44 1.59a4.13 4.13 0 00-.44.15zm7.65-.15L18.14 2l.37-1.6c.19 0 .38.09.57.15zM12 2L11.6.4l.57-.13.31 1.62zm5.65-.1l-.51-.09.23-1.63.57.1zM13 1.8L12.74.17l.58-.07.18 1.64zm3.62-.06l-.52-.05.12-1.64.58.05zM14 1.69L13.9 0h.58l.06 1.65a4.41 4.41 0 00-.54.04zm1.55 0h-.51V0h.58z" fill="#69bffe" data-name="央铋 1"/></g></svg>