<svg xmlns="http://www.w3.org/2000/svg" viewBox="0 0 959 22"><defs><style>.cls-1{fill:#fff}</style></defs><g id="图层_2" data-name="图层 2"><g id="Layer_1" data-name="Layer 1"><path class="cls-1" d="M0 8h959v1H0zM0 9h2v6H0zM32 9h1v6h-1zM63 9h1v6h-1zM94 9h1v6h-1zM125 9h1v6h-1zM156 9h1v6h-1zM186 9h1v6h-1zM216 9h2v6h-2zM248 9h1v6h-1zM278 9h1v6h-1zM310 9h1v6h-1zM340 9h1v6h-1zM372 9h1v6h-1zM402 9h1v6h-1zM434 9h1v6h-1zM463 9h1v6h-1zM494 9h1v6h-1zM524 9h1v6h-1zM556 9h1v6h-1zM586 9h2v6h-2zM618 9h1v6h-1zM649 9h1v6h-1zM680 9h1v6h-1zM711 9h1v6h-1zM741 9h2v6h-2zM773 9h1v6h-1zM802 9h1v6h-1zM834 9h1v6h-1zM864 9h1v6h-1zM896 9h1v6h-1zM926 9h1v6h-1zM958 9h1v6h-1z"/><path class="cls-1" d="M17 8h1v14h-1zM48 8h2v14h-2zM79 8h1v14h-1zM110 8h1v14h-1zM141 8h1v14h-1zM172 8h1v14h-1zM202 8h2v14h-2zM233 8h1v14h-1zM265 8h1v14h-1zM295 8h1v14h-1zM327 8h1v14h-1zM357 8h1v14h-1zM389 8h1v14h-1zM419 8h1v14h-1zM450 8h1v14h-1zM480 8h1v14h-1zM510 8h2v14h-2zM541 8h1v14h-1zM572 8h1v14h-1zM603 8h1v14h-1zM634 8h1v14h-1zM665 8h1v14h-1zM696 8h1v14h-1zM727 8h1v14h-1zM758 8h1v14h-1zM790 8h1v14h-1zM819 8h1v14h-1zM851 8h1v14h-1zM881 8h1v14h-1zM913 8h1v14h-1zM943 8h1v14h-1zM0 0h958v1H0z"/></g></g></svg>