<svg xmlns="http://www.w3.org/2000/svg" viewBox="0 0 87.8 92.76"><defs><style>.cls-2{fill:#1d71b8}</style></defs><g id="图层_2" data-name="图层 2"><g id="Layer_1" data-name="Layer 1"><path d="M40.36 13.61a9.62 9.62 0 00-1 .22c-.32.08-.72.16-1.18.29s-1 .28-1.58.47a34.38 34.38 0 00-4.13 1.67 33.54 33.54 0 00-5 3 33 33 0 00-12.53 35.03 32.87 32.87 0 007.49 13.78 32.76 32.76 0 0014.18 9.19c.59.18 1.12.35 1.58.47l1.19.3c.64.15 1 .21 1 .21l-1.57 7.85-.32-.09c-.2 0-.52-.1-.92-.2l-1.47-.37c-.58-.15-1.23-.37-2-.58A41.11 41.11 0 0111 65.73a42.07 42.07 0 01-3.8-9.41A41.09 41.09 0 0129 9.06 42.32 42.32 0 0134.12 7c.73-.24 1.4-.41 2-.59s1.08-.26 1.48-.36c.79-.2 1.23-.27 1.23-.27z" fill="#36a9e1"/><path class="cls-2" d="M52.9 13.54l-.37-.07-1-.15c-.41-.07-.88-.12-1.4-.17l-.79-.08h-3.82c-.83 0-1.37.08-1.37.08l-.64-8s.7-.15 1.72-.15h3.74l1 .06 1 .09c.63.07 1.23.13 1.73.22l1.22.18.46.09zM63 17.21l-1.21-.64c-.73-.37-1.72-.84-2.74-1.24a28.75 28.75 0 00-2.85-1 9.62 9.62 0 00-.95-.27l-.34-.06 2-7.77.45.12c.29.06.7.18 1.19.33A37.1 37.1 0 0162 7.9c1.27.49 2.5 1.08 3.41 1.54l1.5.79zM71.4 24a32.3 32.3 0 00-3.11-3.07l-1.25-1-1.13-.83c-.32-.25-.62-.42-.81-.56l-.32-.21 4.36-6.71.39.26c.24.17.61.39 1 .69l1.4 1 1.55 1.26a40.67 40.67 0 013.87 3.82zM77.19 33.07a35 35 0 00-2-3.9l-.42-.7-.44-.66a13.61 13.61 0 00-.8-1.16l-.58-.8a2.44 2.44 0 00-.24-.3L79 20.6a4 4 0 01.29.37L80 22c.31.41.65.9 1 1.44.18.26.36.54.54.82s.35.58.52.87c.35.58.69 1.17 1 1.74s.58 1.09.78 1.56.4.85.52 1.12l.19.43zM79.71 43.53s0-.55-.13-1.37c0-.4-.12-.88-.19-1.38s-.19-1.05-.29-1.58a31.49 31.49 0 00-1.17-4.2l7.55-2.66a40.63 40.63 0 011.46 5.24c.12.67.26 1.33.36 2l.24 1.73.15 1.69zM78.72 54.26l.09-.36c0-.23.16-.56.23-1l.27-1.37c.07-.51.16-1.05.24-1.6s.11-1.09.15-1.6.06-1 .08-1.4v-1.37l8-.08v1.71c0 .5-.06 1.1-.1 1.74s-.13 1.31-.19 2-.2 1.35-.29 2-.24 1.21-.34 1.71-.22.91-.28 1.2-.12.45-.12.45zM74.34 64.1l.2-.32a8.31 8.31 0 00.52-.84 27.65 27.65 0 001.44-2.64c.48-1 .89-2 1.18-2.76l.46-1.29 7.61 2.5s-.23.63-.57 1.6-.88 2.21-1.47 3.44-1.25 2.41-1.79 3.28c-.25.44-.48.81-.65 1.05l-.26.39zM67 72l1.06-.87c.33-.25.67-.59 1.06-.93s.77-.73 1.16-1.12.76-.79 1.1-1.17c.17-.19.34-.37.49-.55l.42-.51.63-.77.22-.3 6.39 4.82-.28.38-.78 1-.52.64-.62.68c-.42.47-.87 1-1.37 1.45s-1 1-1.44 1.39-.9.84-1.3 1.15l-1.32 1.08z"/><path d="M.62 53.56l.19 1c.06.33.14.73.23 1.2s.23 1 .37 1.54a47.27 47.27 0 002.82 8 48.91 48.91 0 004.21 7.38c.69.93 1.24 1.72 1.68 2.24l.67.82.51.62c.35.4.87 1 1.53 1.7a48.18 48.18 0 006.1 5.4 46.71 46.71 0 0016.18 7.73 45.25 45.25 0 006.59 1.2 46.48 46.48 0 0013.16-.4 45.66 45.66 0 0011-3.35 45 45 0 007.13-4c.83-.53 1.42-1 1.86-1.32l.65-.32-1.12-1.45-.62.46c-.41.29-1 .77-1.79 1.27a43.13 43.13 0 01-6.84 3.8 44 44 0 01-10.58 3.22 44.74 44.74 0 01-12.65.39 43.42 43.42 0 01-6.34-1.16A45.15 45.15 0 0120 82.08a47 47 0 01-5.86-5.2l-1.47-1.63-.49-.6s-.24-.28-.65-.79-1-1.26-1.61-2.15a47 47 0 01-4-7.09 45.32 45.32 0 01-2.74-7.72c-.13-.54-.25-1-.35-1.48s-.16-.83-.22-1.15l-.19-1s0-.26-.11-.76-.2-1.24-.27-2.18A44.36 44.36 0 012 42.49a45.42 45.42 0 012.15-10.83 44.82 44.82 0 015.66-11.33 45 45 0 018.6-9.28 46.55 46.55 0 014.74-3.4 46.21 46.21 0 0112-5.18c.92-.24 1.65-.4 2.14-.52l.71-.16L37.65 0l-.79.16c-.52.13-1.27.29-2.22.54a47.26 47.26 0 00-12.45 5.4 49.1 49.1 0 00-4.93 3.53 46.83 46.83 0 00-9 9.66 47 47 0 00-5.89 11.8A47.71 47.71 0 00.14 42.35a45.74 45.74 0 00.09 8.14c.07 1 .21 1.75.27 2.27s.12.8.12.8z" fill="#f39200"/></g></g></svg>