<svg xmlns="http://www.w3.org/2000/svg" viewBox="0 0 28.99 28.99"><defs><style>.cls-1{fill:#fff}.cls-2{fill:#69bffe}</style></defs><g id="图层_2" data-name="图层 2"><g id="央铋_1" data-name="央铋 1"><path class="cls-1" d="M14.5 29A14.5 14.5 0 1129 14.5 14.51 14.51 0 0114.5 29zm0-28.45a13.95 13.95 0 1013.94 14A14 14 0 0014.5.55z"/><path class="cls-1" d="M14.5 25A10.55 10.55 0 1125 14.5 10.56 10.56 0 0114.5 25zm0-20.81A10.27 10.27 0 1024.77 14.5 10.27 10.27 0 0014.5 4.23z"/><path class="cls-2" d="M5.62 10.21l-1-.48A10.9 10.9 0 0113 3.64l.15 1.09a9.81 9.81 0 00-7.53 5.48zM14.5 25.45a11 11 0 01-11-10.95h1.1a9.86 9.86 0 009.86 9.85zM19.6 24.2l-.52-1c.34-.18.67-.38 1-.59l.62.91c-.36.25-.7.48-1.1.68zM22.32 22.17l-.79-.77a9.81 9.81 0 002.82-6.9h1.1a10.9 10.9 0 01-3.13 7.67zM23 9.53a9.68 9.68 0 00-1.68-2.14l.76-.79A11 11 0 0124 9zM18.05 5.3a9.8 9.8 0 00-3.55-.66v-1.1a11 11 0 013.94.73z"/></g></g></svg>