<svg xmlns="http://www.w3.org/2000/svg" viewBox="0 0 393.4 372"><g data-name="图层 2"><g data-name="Layer 1"><path fill="#00b4eb" d="M304.06 29.83H6.4V46.5h45v89l-25 29.81V287h25v47.5l-45 36h133.65l28.35-28.35v-7.32H90.81v-208l77.59-28.76V55.5h225v-54h-55.5l-33.84 28.33z" opacity=".6"/><path d="M138.55 372H0l47.78-38.22V288.5h-25V164.77l25-29.82V48h-45V28.33H301.4L335.23 0h57.55v57h-225v42.11l-77.59 28.76v205.46h77.59v9.44zm-130-3h128.76l27.47-27.47v-5.2H87.19V125.79L164.78 97V54h225V3h-53.46l-33.83 28.33H5.78V45h45v91.05l-25 29.81V285.5h25v49.72z" fill="#00b3ea"/></g></g></svg>