<svg xmlns="http://www.w3.org/2000/svg" viewBox="0 0 14.16 28.04"><g data-name="图层 2"><path d="M6.92 4.26v-.41a15 15 0 01.2-2.48c.1-.62.2-.93.21-1.1a.2.2 0 000-.09.14.14 0 000-.08L7.19 0a.17.17 0 00-.1 0v.23H7L6.86.18a13.76 13.76 0 00-1.35 4 17.91 17.91 0 00-.3 3.44A31.81 31.81 0 005.9 14a54.84 54.84 0 011.34 9.65v.42a15.25 15.25 0 01-.2 2.48c-.1.62-.2.93-.21 1.1a.24.24 0 000 .1.09.09 0 000 .05.1.1 0 00.06.05h.07v-.24l.18.06c0-.06.27-.52.54-1.17a13.54 13.54 0 00.82-2.86 18.8 18.8 0 00.5-3.4 31.74 31.74 0 00-.69-6.34 55 55 0 01-1.39-9.64zm.16 23.39zM1.19 14.16a1.85 1.85 0 010-.24 8.48 8.48 0 01.12-1.43c.06-.37.11-.52.12-.66a.26.26 0 000-.07v-.07c0-.07 0 0 0 0a.1.1 0 00-.05 0h-.09v.23h-.16L1 11.7a8.42 8.42 0 00-.8 2.38 10.47 10.47 0 00-.17 2 19.15 19.15 0 00.4 3.73 31.5 31.5 0 01.78 5.62 2 2 0 010 .24 8.52 8.52 0 01-.12 1.44c-.05.36-.1.52-.11.66a.39.39 0 000 .09A.22.22 0 001 28a.09.09 0 00.06 0 .15.15 0 00.09 0v-.22h.05l.16.07a8.16 8.16 0 00.8-2.37 11.16 11.16 0 00.17-2A18.44 18.44 0 002 19.75a32.17 32.17 0 01-.81-5.59zm12.57 5.59a31.22 31.22 0 01-.76-5.59 1.85 1.85 0 010-.24 9.91 9.91 0 01.11-1.43c.07-.37.12-.52.13-.66s0 0 0-.07a.13.13 0 000-.07h-.15v.23h-.05l-.16-.07a8.08 8.08 0 00-.8 2.38 10.42 10.42 0 00-.18 2 18.46 18.46 0 00.41 3.73 32.45 32.45 0 01.69 5.5v.24a8.52 8.52 0 01-.12 1.44c-.06.36-.11.52-.12.66a.2.2 0 000 .09l.08.06H13v-.22l.16.07a7.84 7.84 0 00.84-2.3 10.33 10.33 0 00.17-2 19.13 19.13 0 00-.41-3.75z" fill="#375d81" data-name="Layer 1"/></g></svg>