<svg xmlns="http://www.w3.org/2000/svg" viewBox="0 0 174.38 171.23"><defs><style>.cls-1,.cls-3,.cls-4,.cls-5,.cls-6,.cls-7,.cls-8{fill:#f49022}.cls-2{fill:#0cbdcd}.cls-3{opacity:.3}.cls-4{opacity:.4}.cls-5{opacity:.9}.cls-6{opacity:.7}.cls-7{opacity:.5}.cls-8{opacity:.2}</style></defs><g id="图层_2" data-name="图层 2"><g id="央铋_1" data-name="央铋 1"><path class="cls-1" d="M174.38 86.85a87.21 87.21 0 00-69.92-85.48 1.39 1.39 0 10-1.38 1.41 1.36 1.36 0 001.24-.78 86.75 86.75 0 0169.43 84.86 85.74 85.74 0 01-18 52.89 1.42 1.42 0 10.49.4 86.33 86.33 0 0018.14-53.3zm-71.3-84.7a.76.76 0 11.75-.76.76.76 0 01-.75.76zm52 139.59a.76.76 0 11.75-.75.76.76 0 01-.71.75z"/><path class="cls-1" d="M168.25 86.85A81.28 81.28 0 00164.69 63l-2.42.75a78.65 78.65 0 01-26.67 84.93l1.56 2a81.91 81.91 0 0022.64-27.76 80.25 80.25 0 008.45-36.07z"/><path class="cls-2" d="M136.54 86.85a49.35 49.35 0 10-49.35 49.35 49.41 49.41 0 0049.35-49.35zm-49.35 48.09a48.09 48.09 0 1148.08-48.09 48.14 48.14 0 01-48.08 48.09z"/><path class="cls-2" d="M87.19 43.58a43.24 43.24 0 00-32.81 15.06l.71.62a42.33 42.33 0 1162.85 56.68l.69.65a43.27 43.27 0 00-31.44-73z"/><path class="cls-2" d="M89.19 106.25a19.53 19.53 0 0017.41-17.53h-.32a19.2 19.2 0 01-17.13 17.24zM67.8 88.86a19.52 19.52 0 003.31 9l.27-.18a19.2 19.2 0 01-3.27-8.87zM85.12 106.24v-.32A19 19 0 0172.34 99l-.25.2a19.38 19.38 0 0013.03 7.04zM85.45 100.21l-.53-.09a13.48 13.48 0 01-11-11l-.09-.53h-3.51l.11.73a17 17 0 0014.29 14.29l.73.11zm-1.27 2a15.78 15.78 0 01-12.37-12.35h1a14.72 14.72 0 0011.4 11.41zM88.93 73.5l.53.09a13.45 13.45 0 0111 11l.09.53h3.51l-.11-.72a17 17 0 00-14.29-14.3l-.73-.1zm1.27-2a15.78 15.78 0 0112.38 12.37h-1A14.74 14.74 0 0090.2 72.44z"/><path class="cls-2" d="M84.84 65.29a2.34 2.34 0 002 2.32v10.06A9.21 9.21 0 0078 86.54H68a2.35 2.35 0 100 .63h10A9.22 9.22 0 0086.87 96v10a2.35 2.35 0 10.64 0v-6.63a12.53 12.53 0 0012.2-12.2h6.72a2.36 2.36 0 100-.63H96.38a9.2 9.2 0 00-8.87-8.87V67.61a2.35 2.35 0 10-2.67-2.32zM65.63 88.57a1.72 1.72 0 111.71-1.72 1.72 1.72 0 01-1.71 1.72zm23.27 19.85a1.71 1.71 0 11-1.71-1.72 1.72 1.72 0 011.71 1.72zm-1.39-9.68V96a9.21 9.21 0 008.87-8.87h2.7a11.91 11.91 0 01-11.57 11.61zm21.24-13.6a1.72 1.72 0 11-1.75 1.71 1.72 1.72 0 011.75-1.71zm-13 1.71a8.56 8.56 0 11-8.56-8.56 8.57 8.57 0 018.56 8.56zm-8.56-23.28a1.72 1.72 0 11-1.71 1.72 1.72 1.72 0 011.71-1.72z"/><path class="cls-2" d="M108.75 83.71h.09A21.94 21.94 0 0090.33 65.2v.09a3.1 3.1 0 010 .54 21.3 21.3 0 0117.93 17.93 3.29 3.29 0 01.49-.05zM84.05 108.42a3.31 3.31 0 010-.55 21.28 21.28 0 01-17.88-17.93 3.29 3.29 0 01-.54 0h-.09a21.94 21.94 0 0018.52 18.52.28.28 0 01-.01-.04zM108.75 90a3.29 3.29 0 01-.54 0 21.28 21.28 0 01-17.93 17.93 3.31 3.31 0 010 .55v.09A21.94 21.94 0 00108.84 90z"/><path class="cls-1" d="M65.54 83.72h.09a3.29 3.29 0 01.54.05A21.3 21.3 0 0184.1 65.83a3.1 3.1 0 010-.54.28.28 0 010-.09 21.94 21.94 0 00-18.56 18.52z"/><path class="cls-2" d="M77.44 71.78L80.25 76c.33-.21.66-.4 1-.58L79 70.87a15.27 15.27 0 00-1.56.91zM80.78 70.08l1.88 4.7c.36-.14.72-.25 1.1-.36l-1.25-4.91c-.58.16-1.16.35-1.73.57z"/><path class="cls-1" d="M78.15 77.67a10.36 10.36 0 01.85-.77l-3.13-4a17.28 17.28 0 00-1.35 1.22z"/><path class="cls-2" d="M75.66 81.09l-4.48-2.36a14.47 14.47 0 00-.74 1.66l4.75 1.75c.14-.36.3-.71.47-1.05z"/><path class="cls-1" d="M72.15 77.05l4.28 2.7c.21-.32.44-.63.68-.93l-3.89-3.24a17.24 17.24 0 00-1.07 1.47z"/><path class="cls-2" d="M69.45 84l5 .72a10.8 10.8 0 01.24-1.13l-4.88-1.38c-.13.6-.26 1.2-.36 1.79zM97.27 94.89l3.89 3.24a17.4 17.4 0 001.07-1.48L98 94a10.72 10.72 0 01-.73.89zM95.38 96.81l3.13 4c.47-.39.93-.79 1.36-1.22L96.24 96c-.24.31-.56.56-.86.81zM90.62 99.28l1.25 4.91a16.63 16.63 0 001.73-.56l-1.88-4.7c-.36.13-.72.25-1.1.35zM93.13 98.3l2.24 4.54a17.43 17.43 0 001.57-.92l-2.81-4.21c-.32.21-.66.41-1 .59zM104.93 89.69l-5-.72a10.8 10.8 0 01-.24 1.13l4.88 1.38c.13-.59.26-1.19.36-1.79zM98.72 92.62L103.2 95a14.62 14.62 0 00.74-1.67l-4.75-1.75c-.14.34-.3.69-.47 1.04zM79.52 68.56l-.16.07.51 1.16.13-.06zM76.9 69.9l.67 1.1.12-.06-.64-1.1zM76.08 72l-.75-1-.14.11.78 1zM82.81 67.51h-.16l.3 1.23h.13zM71.31 75l1 .74.08-.1-1-.78zM68.2 81.13l1.22.35v-.13L68.25 81l-.05.13zM68.65 79.82l1.19.44a.69.69 0 010-.13l-1.18-.47zM69.18 78.55l1.16.52.06-.13-1.14-.55-.08.16zM72.18 73.91l1 .82.09-.1-.94-.85zM73.61 72.41l.88.92a.94.94 0 01.1-.1l-.85-.93a1.5 1.5 0 00-.13.11zM70.52 76.12l1.07.68a.83.83 0 01.08-.12L70.61 76zM69.81 77.31l1.11.6a.75.75 0 00.07-.12l-1.1-.63a1.09 1.09 0 01-.08.15zM106 80.49v-.17l-1.2.43a1.12 1.12 0 010 .13zM102.36 76.16l.08.11 1-.71a.71.71 0 00-.1-.14zM106.53 82.49v-.17l-1.23.3v.13zM106.18 81.15a1 1 0 000-.17l-1.21.39a.65.65 0 010 .13zM106.38 81.81a1 1 0 010-.16l-1.22.34v.13zM102.72 76.69l.08.12 1.07-.68-.1-.14zM104.9 77.93l-.08-.15-1.12.59.06.12zM103.39 77.8l.08.12 1.11-.6-.09-.15zM105.13 78.4L104 79l.06.13 1.15-.52zM105.48 79.19l-.06-.16-1.16.51v.13zM100.27 73.68a.47.47 0 00.1.1l.9-.88-.12-.12zM106.88 84.53a1.11 1.11 0 000-.17l-1.25.17v.14zM94.38 69.74l.13.05.49-1.16-.16-.07zM94.22 68.31l-.44 1.19h.13l.47-1.18zM95.56 70.28l.12.07.59-1.12-.15-.08zM95 70l.12.06.55-1.14-.15-.07zM96.13 70.58l.12.07.63-1.1-.15-.08zM93.57 68.07l-.4 1.21h.13l.43-1.19zM92.91 67.86l-.35 1.22h.13l.38-1.2zM100.72 74.15l.09.1.94-.85-.12-.12zM99.8 73.24l.1.09.88-.91-.13-.12zM99.32 72.81l.1.09.84-1-.13-.11zM101.15 74.63l.09.11 1-.82-.11-.13zM101.57 75.12l.09.11 1-.78-.1-.13zM102 75.63a.44.44 0 00.08.11l1-.75-.11-.13zM97.48 69.9l-.15-.09-.63 1.1.11.07zM98.31 72l.11.09.77-1-.13-.1zM98.82 72.39l.11.09.81-1-.14-.1zM72.31 98l-1 .74.1.14 1-.78z"/><path class="cls-3" d="M88.3 96.36l.2 1.89q.39 0 .78-.12l-.38-1.86a5.4 5.4 0 01-.6.09z"/><path class="cls-4" d="M89.46 96.15l.42 1.85c.38-.1.76-.21 1.13-.34l-.65-1.78c-.3.12-.6.2-.9.27z"/><path class="cls-5" d="M94.15 93.42l1.36 1.32A11.62 11.62 0 0097 92.85l-1.63-1a10.38 10.38 0 01-1.22 1.57z"/><path class="cls-1" d="M95.62 91.39l1.66.93a11.64 11.64 0 001-2.59l-1.85-.45a9.18 9.18 0 01-.81 2.11z"/><path class="cls-6" d="M92.5 94.82l1 1.59a11.54 11.54 0 001.55-1.24l-1.32-1.36a9.45 9.45 0 01-1.23 1.01z"/><path class="cls-7" d="M90.88 95.69l.71 1.76a11.07 11.07 0 001.41-.71l-1-1.62a11 11 0 01-1.12.57z"/><path class="cls-8" d="M87.62 96.42v1.89h.27l-.15-1.9z"/><path class="cls-2" d="M74.44 65.13l-.1.07.16.27.1-.06zM75.6 64.49l-.11.06.15.28h.1zM75.21 64.7a.6.6 0 00-.11.06l.15.27.11-.06zM74.82 64.91l-.1.07.16.27.1-.06zM76.39 64.1l-.12.05.14.28.11-.05zM76 64.29l-.11.06.14.28h.11zM78.41 63.58h.11l-.1-.29h-.12zM76.79 63.92h-.11l.13.28h.11zM78 63.4h-.11l.12.3h.11zM77.08 63.78l.13.29h.1l-.12-.29zM77.59 63.56h-.11l.13.29h.1zM72.23 66.59l-.1.07.19.26.1-.07zM71.54 67.13l-.1.08.2.25.09-.08zM78.82 63.43h.11l-.1-.3h-.12zM71.88 66.86l-.09.08.19.25.1-.08zM70.85 67.69l-.09.08.24.23.09-.07zM71.19 67.41l-.1.08.21.24.09-.08zM72.6 66.34l-.11.07.19.25.1-.06zM73.32 65.83l-.1.07.17.26.1-.06zM73.69 65.6l-.1.06.17.27.1-.07zM74.06 65.36l-.1.07.16.26.1-.06zM73 66.08l-.1.07.19.26.09-.07zM86.15 61.68H86v.31h.12zM70.52 68l-.09.08.21.24.09-.08zM85.71 61.71h-.12v.32h.12zM85.27 61.74h-.12v.31h.12zM84.4 61.82h-.12v.32h.12zM83.88 62.2H84v-.32h-.12zM84.84 61.77h-.13v.32h.12zM86.59 61.67h-.12V62h.12zM87.35 61.66V62h.12v-.31zM87.79 61.67V62h.12v-.31zM87 61.66h-.12V62H87zM80.06 63h.11l-.08-.31h-.12zM80.48 62.9h.11l-.08-.31h-.12zM80.9 62.78h.11l-.07-.3h-.12zM79.65 63.15h.11l-.1-.3h-.11zM79.23 63.29h.12l-.1-.3h-.12zM81.32 62.68h.12l-.07-.31h-.12zM82.17 62.49h.12l-.07-.31h-.12zM81.75 62.58h.11l-.07-.31h-.12zM82.6 62.41h.11v-.32h-.12zM83 62.33h.12v-.31L83 62zM83.45 62.26h.12v-.31h-.17zM63.87 78.18l-.29-.11v.12l.3.11zM63.45 79.42l-.31-.09v.12l.3.09zM63.59 79l-.3-.1v.12l.3.09a.76.76 0 010-.11zM63.21 80.26l-.31-.08v.12l.3.08s0-.08.01-.12zM70.19 68.28l-.09.08.22.23.08-.08zM62.75 80.72l.31.08v-.12l-.31-.08zM63.73 78.6l-.3-.11a.56.56 0 000 .12l.3.1a.36.36 0 010-.11zM64.54 76.57l-.28-.13a.39.39 0 01-.06.11l.3.13s.03-.07.04-.11zM64.36 77l-.28-.13L64 77l.3.12s.05-.12.06-.12zM64 77.78l-.3-.12v.12l.29.11a.54.54 0 01.01-.11zM64.19 77.37l-.29-.12v.12l.29.11s-.01-.07 0-.11zM88.34 62v-.31h-.12v.32zM62.66 81.16l.3.07v-.12l-.28-.11a.59.59 0 00-.02.16zM62.14 84.21h.31v-.12h-.31v.12zM64.72 76.18l-.28-.18a1.17 1.17 0 000 .11l.29.13zM62.1 84.65h.31a.41.41 0 000-.11h-.31a.57.57 0 000 .11zM62.07 85.09h.31v-.12h-.31zM62.25 83.33h.31v-.11l-.32-.06s.01.13.01.17zM62.19 83.77h.32v-.12h-.31s0 .08-.01.12zM62.47 82l.31.06v-.12l-.31-.06a.5.5 0 000 .12zM62.31 82.89h.31v-.12h-.31a.5.5 0 010 .12zM62.55 81.59l.31.06v-.11l-.31-.08zM62.39 82.46l.31.05v-.12l-.31-.06s.01.08 0 .13zM63.32 79.84l-.3-.09v.12l.3.09zM68.57 70.38l-.23-.21-.09.09.24.21zM68.29 70.71l-.24-.21-.08.09.24.21zM68 71l-.24-.21-.08.1.25.2zM67.73 71.38l-.25-.2a.61.61 0 01-.07.1l.25.19zM68.86 70.05l-.23-.21a.34.34 0 00-.08.09l.23.21zM69.16 69.74l-.22-.22-.09.09.23.21zM64.92 75.78l-.28-.14-.06.11.28.14zM69.77 69.11l-.22-.23-.09.09.23.22a.6.6 0 00.08-.08zM69.87 68.58l-.09.09.22.22.09-.08zM69.46 69.42l-.22-.22-.08.09.22.22zM67.46 71.72l-.25-.19-.07.09.25.2a.86.86 0 01.07-.1zM65.75 74.25l-.27-.16-.06.11.28.15a.93.93 0 01.05-.1zM65.54 74.63l-.28-.16-.06.11.28.15a.53.53 0 01.06-.1zM65.12 75.4l-.28-.15-.06.11.28.14zM65.32 75l-.32-.15a.61.61 0 000 .15l.27.14zM66 73.87l-.27-.16-.07.1.27.17zM66.94 72.42l-.25-.18-.08.1.26.18a.36.36 0 00.07-.1zM67.2 72.07l-.26-.19a.61.61 0 01-.07.1l.26.19a.36.36 0 01.07-.1zM66.69 72.78l-.26-.18a.86.86 0 00-.07.1l.26.18zM66.45 73.14l-.27-.14-.06.11.26.17a.61.61 0 01.07-.14zM66.21 73.51l-.21-.17a.61.61 0 00-.07.1l.27.17zM109.52 75.2l-.06-.1-.28.14.06.11zM109.72 75.59a.54.54 0 010-.11l-.29.15a.47.47 0 01.05.1zM108.88 74.06l-.06-.11-.27.16.06.1zM109.32 74.81l-.06-.1-.28.15.06.1zM109 74.33l-.28.16a.53.53 0 01.06.1l.28-.15zM109.91 76a.54.54 0 000-.11l-.28.14v.1zM110.77 78v-.11l-.3.11v.11zM110.61 77.58v-.11l-.29.12v.11zM110.28 76.78v-.11l-.29.13v.1zM110.92 78.4v-.11l-.3.11v.11zM110.1 76.38a.54.54 0 010-.11l-.29.13v.11zM110.45 77.18a.76.76 0 010-.11l-.29.12a.49.49 0 000 .11zM106.58 71.28a.61.61 0 00.07.1l.24-.2-.07-.09zM106.84 71.62l.07.09.26-.19-.08-.09zM106 70.62l.08.09.24-.2-.08-.1zM106.3 71l.08.09.24-.2-.08-.09zM107.11 72l.07.1.25-.19a.61.61 0 00-.07-.1zM107.86 73l.06.1.26-.17-.06-.11zM108.09 73.38l.06.1.27-.17-.07-.1zM108.32 73.75l.07.1.27-.17-.07-.1zM107.61 72.67l.07.09.26-.18a.86.86 0 01-.07-.1zM107.36 72.31a.36.36 0 00.07.1l.26-.18a.61.61 0 01-.07-.1zM111.34 80.87v.11l.31-.07a.35.35 0 000-.11zM112 85.13a.45.45 0 010 .11h.32v-.12zM111.83 83.41v.12h.31v-.12zM111.88 83.84v.12h.32a.49.49 0 010-.12zM111.94 84.27a.37.37 0 000 .11h.31a.49.49 0 000-.12zM112 85.56v.11h.32a.49.49 0 010-.12zM112 84.7a.37.37 0 000 .11h.31v-.12zM112.39 86.85h-.32a.49.49 0 010 .12h.32v-.12zM111.06 78.82a.56.56 0 000-.12l-.29.11v.1zM112.06 86.42v.12h.32a.49.49 0 000-.12zM112.05 86v.11h.32a.49.49 0 000-.12zM69.69 104.52l-.08-.09-.23.22.09.09zM105.74 70.3l.07.08.24-.2-.08-.1zM111.23 80.45v.11l.31-.07v-.12zM111.11 80v.11l.3-.08v-.12zM111.33 79.65v-.12l-.31.09v.12zM111.2 79.23v-.11l-.3.09a.76.76 0 010 .11zM111.43 81.29v.12l.31-.07v-.12zM111.61 82.14a.36.36 0 010 .11l.32-.06a.36.36 0 010-.11zM111.69 82.56v.11h.31a.52.52 0 000-.11zM111.77 83v.11h.31v-.12zM111.53 81.71v.11l.31-.06v-.11zM89.2 62.06v-.31h-.12v.31zM93.44 62.44l-.08.31h.11l.08-.31zM91.29 62l-.06.31h.12l.06-.31zM90.42 61.87v.32h.12v-.31zM90 61.82v.31h.11v-.32zM93 62.34l-.07.31h.11l.08-.31zM89.54 61.77v.32h.12v-.32zM105.45 70a.6.6 0 00.08.08l.23-.21-.08-.09zM88.77 62v-.32h-.12v.31zM92.58 62.24l-.07.31h.12l.07-.31zM92.15 62.15l-.06.31h.12l.06-.31zM91.72 62.07l-.06.32h.12l.06-.31zM90.85 61.93v.31h.12v-.32zM105.15 69.66l.08.09.23-.22-.08-.09zM104.85 69.35l.08.09.23-.22-.09-.09zM104.63 69.13l.22-.23-.09-.08-.22.23zM62 85.53h.32v-.12H62zM104.77 104.44l.22.22a.3.3 0 00.08-.08l-.22-.23zM99.37 108.53l-.1.06.15.28.1-.06zM99.75 108.32l-.1.06.15.27.1-.06zM100.48 107.87l-.1.06.17.27.1-.07zM96.65 109.86h-.11l.11.3h.11zM100.12 108.1l-.1.06.16.27.1-.06zM98.64 109.28h.11l-.14-.29-.11.06zM97.05 109.69h-.11l.12.29h.11zM97.44 109.51h-.11l.13.29h.11zM98 109.62l-.13-.29h-.11l.13.29zM98.25 109.48h.11l-.14-.29-.1.06zM99 108.75h-.1l.15.28h.1zM102.94 106.1a.22.22 0 00-.09.07l.19.25.09-.08zM103.71 105.85l.09-.08-.21-.24-.09.08zM103.47 106.06l-.2-.24-.09.07.2.25zM104 105.57l.09-.08-.21-.24-.09.08zM104.36 105.27l.09-.09-.22-.23-.08.08zM104.68 105l.08-.09-.22-.22-.08.08zM101.91 106.89l-.09.07.18.26.1-.07zM101.56 107.14l-.09.07.17.26.1-.07zM102.6 106.36a.36.36 0 00-.09.08l.19.25.09-.08zM62 86h.32v-.12H62zM102.26 106.63l-.09.07.18.26.1-.07zM90.38 111.52h-.12v.32h.12zM91.67 111.32h-.12v.31h.12zM90.81 111.46h-.12v.31h.12zM91.24 111.4h-.12v.31h.12zM94.61 110.6h-.11l.09.31h.11zM95 110.46h-.11l.09.3h.12zM96.24 110h-.1l.1.3h.12zM95.43 110.32h-.11l.1.3h.12zM94.2 110.72h-.12l.08.31h.12zM92.09 111.24h-.11v.32h.12zM95.84 110.18h-.11l.11.3h.11zM92.89 111.39h.12l-.07-.31h-.11zM92.46 111.49h.12l-.06-.31h-.12zM93.32 111.29h.12l-.08-.3h-.11zM93.78 110.84h-.11l.07.31h.12zM100.84 107.63l-.09.06.17.27.1-.06zM111.2 93.36l.3.09v-.12l-.31-.08zM111.93 91.63l-.32-.06a.36.36 0 010 .11l.32.07zM111.39 93.87v-.12l-.31-.08v.11zM111.84 92.06l-.31-.07a.52.52 0 000 .11l.3.08zM111.74 92.48l-.31-.07a.5.5 0 010 .12l.3.07a.53.53 0 00.01-.12zM111.64 92.91l-.3-.08v.12l.31.08s-.02-.03-.01-.12zM110.39 95.82l.29.12v-.11l-.3-.12s.02.08.01.11zM111 94.19l.3.1v-.12l-.31-.09a.35.35 0 01.01.11zM110.55 95.42l.29.11v-.11l-.3-.11a.49.49 0 00.01.11zM110.69 95l.3.11V95l-.29-.11a.49.49 0 00-.01.11zM110.83 94.6l.29.11a.56.56 0 000-.12l-.3-.1zM112.25 89.47h-.31v.11h.31s-.01-.07 0-.11zM112.35 88.16H112a.41.41 0 000 .11h.31zM112.32 88.6H112v.11h.31a.49.49 0 01.01-.11zM112.37 87.29h-.31a.49.49 0 010 .12h.32zM112.29 89H112v.11h.32a.49.49 0 01-.03-.11zM112.36 87.73h-.31v.11h.32zM110.23 96.22l.29.12a1.17 1.17 0 000-.11l-.29-.12a1.17 1.17 0 010 .11zM112 91.2l-.31-.06v.12l.31.06a.5.5 0 000-.12zM112.08 90.77h-.31a.52.52 0 000 .11l.31.06a.5.5 0 010-.17zM112.14 90.34h-.31a.5.5 0 000 .12h.31s-.01-.08 0-.12zM112.2 89.9h-.32a.49.49 0 000 .12h.31a.5.5 0 01.01-.12zM107.87 101.22l-.26-.18-.07.09.26.19zM107.09 102.28l-.25-.2-.07.09.25.2zM107.36 101.93l-.25-.19-.07.09.25.2a.86.86 0 01.07-.1zM105.38 104.26l-.23-.22-.08.09.22.22zM107.62 101.58l-.26-.19a.86.86 0 00-.07.1l.26.19a.36.36 0 01.07-.1zM108.12 100.86l-.26-.18a.86.86 0 01-.07.1l.26.18a.36.36 0 00.07-.1zM106.82 102.62l-.24-.2-.08.09.25.2zM105.68 103.94l-.23-.21a.6.6 0 00-.08.08l.22.22zM106 103.62l-.23-.21-.08.09.23.21zM106.54 103l-.23-.2a.6.6 0 00-.08.08l.24.21zM106.26 103.29l-.24-.21-.07.09.23.21zM109.56 97.72l-.3-.15a24.61 24.61 0 01-1.54 2.69l.79.52a24.12 24.12 0 001.6-2.8l-.26-.12-.28-.14s0-.01-.01 0zM109.71 97.41l.29.14a1.17 1.17 0 010-.11l-.29-.14a.54.54 0 010 .11zM109.89 97l.29.14a.37.37 0 010-.11l-.29-.13zM110.07 96.62l.29.13a.54.54 0 010-.11l-.29-.12a.47.47 0 000 .1zM101.21 107.39l-.1.07.18.27.09-.07zM64.53 97.85a.6.6 0 00.06.11l.28-.14a.47.47 0 01-.05-.1zM64.93 98.64l.06.11.28-.15-.06-.11zM64.73 98.24l.06.11.28-.14-.07-.11zM68.47 103.69l.08.1.24-.22-.08-.09zM65.36 99.41l.07.11.27-.16-.06-.1zM63.81 96.23v.12l.29-.12a.49.49 0 000-.11zM65.58 99.79a.6.6 0 01.06.11l.28-.16-.06-.11zM64.34 97.45v.11l.29-.13-.05-.11zM63.65 95.82l.05.12.29-.12v-.11zM64.16 97.05v.11l.34-.16a1.17 1.17 0 010-.11zM64 96.64l.05.12.29-.13v-.1zM68.18 103.36l.08.09.24-.21a.73.73 0 01-.08-.09zM67.07 102a.86.86 0 01.07.1l.25-.19a.61.61 0 00-.07-.1zM67.34 102.34l.08.09.24-.19-.07-.09zM67.61 102.68l.08.1.24-.2-.07-.09zM67.89 103l.08.1.24-.2a.86.86 0 00-.07-.1zM63.49 95.41a1.17 1.17 0 000 .11l.29-.1a.56.56 0 000-.12zM66.29 100.91l.07.1.27-.17-.07-.1zM65.82 100.17l.06.1.27-.16-.06-.11zM66.81 101.63a.36.36 0 00.07.1l.25-.18-.06-.1zM66.06 100.54l.06.1.27-.17a.36.36 0 01-.07-.1zM66.55 101.27a.86.86 0 00.07.1l.26-.18a.86.86 0 01-.07-.1zM65.14 99l.06.1.28-.15-.06-.1zM62.42 89a.49.49 0 010-.12h-.32v.13zM62.38 88.6v-.12h-.31a.62.62 0 000 .13zM62.51 89.91v-.12h-.31v.13zM62.45 89.47v-.11h-.32v.13zM62.35 88.17a.49.49 0 000-.12H62v.13zM62.56 90.34v-.12h-.32v.13zM62 86.85h.31v-.11H62zM62 86.42h.31a.49.49 0 000-.12H62zM62.34 87.73a.49.49 0 010-.12H62v.12zM62.33 87.29a.49.49 0 010-.12H62a.62.62 0 010 .13zM63 93.72v.12l.3-.08v-.12zM63.18 93.34a.56.56 0 010-.12l-.3.08v.12zM63.35 95a.56.56 0 010 .12l.3-.11a.76.76 0 000-.11zM63.06 92.91v-.11l-.31.07v.12zM63.08 94.15v.12l.3-.09v-.12zM62.62 90.77a.43.43 0 000-.11h-.31v.12zM63.21 94.57v.12l.3-.1a.36.36 0 000-.11zM62.7 91.2v-.11h-.31a.5.5 0 000 .12zM63 92.49a.5.5 0 000-.12l-.31.07a.53.53 0 000 .12zM62.78 91.63v-.11h-.31a.5.5 0 000 .12zM62.87 92.06v-.11l-.31.06a.5.5 0 010 .12zM70.89 105.62l-.22.23.1.09.21-.24zM71.55 106.18l-.2.24.09.08.21-.25zM68.77 104a.6.6 0 01.08.08l.24-.21-.09-.07zM71 106.14l.09.08.21-.24a.34.34 0 01-.09-.08zM72.23 106.72L72 107l.1.07.19-.25zM71.89 106.45l-.2.25.1.07.19-.25a.35.35 0 00-.09-.07zM69.92 104.74l-.22.22.09.09.22-.23zM72.59 107l-.19.26.1.07.19-.26zM69.07 104.33l.09.1.23-.23a.3.3 0 01-.08-.08zM70.56 105.33l-.22.23.1.09.21-.24a.73.73 0 01-.09-.08zM70.24 105l-.22.22.09.09.21-.23a.6.6 0 00-.08-.08zM75.15 108.62l-.15.27.11.06.15-.27zM75.54 108.82l-.16.28.11.06.15-.28zM76.42 109.28l-.11-.06-.14.28.11.06zM75.89 109.36l.14-.28-.1-.06-.15.28zM74.78 108.4l-.16.27.1.06.16-.27zM73.3 107.48l-.18.26.1.07.18-.26zM72.94 107.23l-.18.25.1.08.18-.26zM74.4 108.18l-.17.27.11.06.16-.27zM73.66 107.72l-.17.26.1.06.17-.26zM74 108l-.17.27.1.06.17-.26z"/><path class="cls-2" d="M94 62.59h-.1l-.08.31h.09l-.09.33a24.69 24.69 0 0110.52 6.07l.66-.68a25.49 25.49 0 00-11-6.31zM90.06 112.17l-.11-.94a25.25 25.25 0 01-2.76.16 24.46 24.46 0 01-10.6-2.39l-.41.85a25.27 25.27 0 0011 2.51 24.71 24.71 0 002.88-.19zM63.91 99.11a26.43 26.43 0 01-2.44-6.68l-2.18.39a27.9 27.9 0 002.7 7.4zM67 103.67a26.8 26.8 0 01-2-2.79L63 102a27.52 27.52 0 002.3 3.17zM75.54 110.45a27.52 27.52 0 01-3-1.73l-1.31 1.79a28.44 28.44 0 003.39 2zM59.29 80.89l2.18.39a26.43 26.43 0 012.44-6.68L62 73.49a27.77 27.77 0 00-2.71 7.4zM86.14 115.37v-2.23a25.88 25.88 0 01-3.43-.36l-.47 2.22a29.62 29.62 0 003.9.37zM69.66 64.36l1.42 1.7a26.52 26.52 0 016.15-3.56l-.75-2.09a28.37 28.37 0 00-6.82 3.95zM58.66 86.85a28.34 28.34 0 00.27 3.94l2.19-.38a25.4 25.4 0 010-7.11l-2.19-.39a28.55 28.55 0 00-.27 3.94zM111.61 77.07a26.05 26.05 0 011.9 9.78c0 .57 0 1.14-.06 1.7l2.21.23c0-.63.07-1.28.07-1.93a28.59 28.59 0 00-2.08-10.69zM79.16 61.79a26.15 26.15 0 017-1.23v-2.22a28.45 28.45 0 00-7.77 1.37zM80.24 114.53l.46-2.17a25.69 25.69 0 01-3.28-1.08l-.91 2a28 28 0 003.73 1.25zM115.45 90.82l-2.21-.23a26.82 26.82 0 01-.72 3.39l2.12.69a30.21 30.21 0 00.81-3.85z"/><path class="cls-2" d="M88.21 58.34v2.22a26.34 26.34 0 0122.56 14.63l2-.9a28.59 28.59 0 00-24.56-15.95zM63 71.71l1.92 1.11a26.51 26.51 0 014.57-5.44l-1.43-1.7A28.44 28.44 0 0063 71.71zM70.9 107.5a26.56 26.56 0 01-2.56-2.31l-1.65 1.49a27.76 27.76 0 002.91 2.62zM107.69 106.69L106 105.2a27 27 0 01-2.58 2.32l1.31 1.8a31.65 31.65 0 002.96-2.63zM111.37 102l-1.92-1.12a26.83 26.83 0 01-2 2.81l1.65 1.48a28.86 28.86 0 002.27-3.17zM99.71 112.49a28.64 28.64 0 003.4-2l-1.3-1.79a26.23 26.23 0 01-3 1.73zM94.11 114.54a28 28 0 003.73-1.22l-.91-2a25.84 25.84 0 01-3.29 1.08zM114 96.62l-2.11-.68a27.13 27.13 0 01-1.41 3.16l1.92 1.11a28.21 28.21 0 001.6-3.59zM91.64 112.79a26 26 0 01-3.44.35v2.23a29.44 29.44 0 003.9-.41z"/><path class="cls-6" d="M60 98l-7.61 3.11a37.79 37.79 0 0012.41 16l4.91-6.61A29.58 29.58 0 0160 98z"/><path class="cls-5" d="M57.79 86.85a29.46 29.46 0 011.4-8.95l-7.84-2.5a37.55 37.55 0 00.15 23.37l7.81-2.61a29.3 29.3 0 01-1.52-9.31z"/><path d="M66.85 118.5a37.33 37.33 0 0016.05 5.73l.94-8.17a29.26 29.26 0 01-12.54-4.49z" opacity=".6" fill="#f49022"/><path class="cls-3" d="M107 108.6l5.53 6.09a37.9 37.9 0 004.92-5.44l-6.6-4.9a29.86 29.86 0 01-3.85 4.25z"/><path class="cls-4" d="M98.33 114.05l3.12 7.62a38 38 0 009.13-5.36l-5.12-6.45a29.12 29.12 0 01-7.13 4.19z"/><path d="M122.19 100.68l-7.66-3c-.07.19-.15.38-.23.57l7.59 3.18z" opacity=".1" fill="#f49022"/><path class="cls-1" d="M73.72 60.73L70 53.41A37.91 37.91 0 0052.19 73l7.66 3a29.53 29.53 0 0113.87-15.27z"/><path class="cls-8" d="M120.84 103.67l-7.36-3.67a31.17 31.17 0 01-1.57 2.76l6.92 4.45a39.62 39.62 0 002.01-3.54z"/><path class="cls-7" d="M87.19 116.25h-1.4l-.39 8.23h1.79a37.53 37.53 0 0011.91-1.93l-2.61-7.81a29.19 29.19 0 01-9.3 1.51z"/><path class="cls-2" d="M38 53.17l3.13 2.15c.59-.86 1.2-1.69 1.84-2.52l-3-2.31c-.68.87-1.33 1.77-1.97 2.68zM48.71 46.44c.75-.72 1.52-1.41 2.31-2.08l-2.46-2.89c-.84.72-1.67 1.46-2.47 2.22zM36.84 62.73l-3.42-1.64c-.48 1-.93 2-1.35 3l3.51 1.45c.42-.92.82-1.87 1.26-2.81zM27.56 86.85a60.32 60.32 0 00.52 7.89l3.77-.5a56 56 0 011.07-20.52l-3.69-.89a59.46 59.46 0 00-1.67 14.02z"/><path class="cls-1" d="M145.15 72.83l-3.69.9a55.87 55.87 0 011.21 6.9l3.78-.43a60.07 60.07 0 00-1.3-7.37z"/><path class="cls-2" d="M140.43 64.91c.54 1.3 1 2.63 1.48 4l.6-.2c-.45-1.36-.95-2.71-1.5-4l1.31-.54a59.71 59.71 0 00-3.32-6.76l-1.23.69a56.07 56.07 0 00-5-7.39l1.11-.88a60 60 0 00-5-5.56l-1 1a57.64 57.64 0 00-6.88-5.68l.87-1.2a59.23 59.23 0 00-30.12-11l-.13 1.69c-1.37-.09-2.75-.15-4.13-.15-1.6 0-3.19.07-4.76.2l-.13-1.74c-1.12.08-2.22.2-3.32.35l.24 1.74a56.6 56.6 0 00-8.68 1.88l-.51-1.72c-1.07.31-2.12.66-3.16 1l.6 1.7A57.39 57.39 0 0059.71 36l-.88-1.63c-1 .53-1.93 1.09-2.87 1.67l1 1.59a60.36 60.36 0 00-3.62 2.44l.38.51c1.16-.85 2.36-1.66 3.57-2.41l.69 1.1c.88-.54 1.78-1.06 2.69-1.56L60 36.59A56.8 56.8 0 0168 33l.45 1.28c1-.35 2-.67 3-1L71 32a57.73 57.73 0 018.58-1.86l.19 1.4c1-.13 2.06-.25 3.1-.33l-.11-1.41c1.56-.13 3.13-.19 4.71-.19 1.37 0 2.73.05 4.08.14l-.11 1.46a55.57 55.57 0 0128.2 10.29l1-1.36a57.12 57.12 0 016.78 5.64L126.23 47a56.54 56.54 0 014.7 5.2l1.36-1.09a56.65 56.65 0 015 7.32l-1.52.86a57.35 57.35 0 013.08 6.3zM130.35 128c.29-.3.57-.6.85-.91l-2.8-2.56c-.26.29-.53.57-.8.86zM43 120.9a55.76 55.76 0 01-9.35-18.28L30 103.69a59.35 59.35 0 0010 19.53zM142.32 109.58l-3.51-1.45c-.15.36-.31.72-.46 1.07l3.48 1.52c.17-.38.33-.72.49-1.14zM94.57 142.2a56.37 56.37 0 01-20.51-1.08l-.89 3.69a59.46 59.46 0 0014 1.67 60.44 60.44 0 007.89-.52zM146.77 89.35l-3.8-.16-.06 1.17 3.79.23c.02-.41.05-.82.07-1.24zM136.84 119.84c.23-.35.46-.69.68-1l-3.2-2-.64 1zM145.43 99.66l-3.71-.82c-.08.38-.17.76-.26 1.14l3.69.89c.1-.4.19-.8.28-1.21zM120.31 131.77l2.25 3.06 1-.75-2.31-3zM104 144.06l1.19-.37-1.15-3.62-1.11.34zM65.91 138.47a56.13 56.13 0 01-17.2-11.2L46.09 130a59.87 59.87 0 0018.38 12zM113.7 140.26l1.11-.57-1.76-3.37-1 .53zM26.72 55.18l2 1a66.56 66.56 0 018.19-12.11l-1.67-1.45a68.32 68.32 0 00-8.52 12.56z"/><path class="cls-1" d="M67.18 23.89l-.65-2.12A67.78 67.78 0 0052.69 28l1.14 1.9a65.65 65.65 0 0113.35-6.01zM85.31 20.82V18.6a67.67 67.67 0 00-15 2.1l.58 2.14a65.24 65.24 0 0114.42-2.02z"/><path class="cls-2" d="M18.91 86.85c0 1.75.06 3.48.2 5.19l2.2-.19c-.12-1.65-.19-3.32-.19-5a66.42 66.42 0 01.71-9.62l-2.19-.34a68.18 68.18 0 00-.73 9.96zM20.3 73.07l2.18.43A65.64 65.64 0 0127 59.59l-2-.93a67.74 67.74 0 00-4.7 14.41zM37.8 39.75l1.62 1.51a67.18 67.18 0 0111.19-9.4L49.41 30a68.15 68.15 0 00-11.61 9.75zM19.51 95.9a68.13 68.13 0 003.66 14.71l2.07-.79a65.31 65.31 0 01-3.53-14.2zM34 126a66 66 0 01-7.33-12.65l-2 .87a68.26 68.26 0 007.59 13.11zM147.18 119.52l1.89 1a69.5 69.5 0 007.54-21.72l-2.12-.37c.18-1.06.34-2.12.47-3.19l-2.21-.24a65.6 65.6 0 01-9.75 27.17l1.89 1.24q1.21-1.9 2.29-3.89zM115.73 24.78l-1 2q2.52 1.16 4.91 2.52l1.15-1.95q-2.47-1.35-5.06-2.57z"/><path class="cls-1" d="M92.87 18.81c-1.24-.1-2.47-.17-3.72-.21v2.22c1.16 0 2.32.1 3.48.19z"/><path class="cls-2" d="M138.14 132.32l-1.68-1.5a66.72 66.72 0 01-17.11 13.73l1.08 2c1-.56 2-1.15 3-1.76l1.13 1.83a71.27 71.27 0 0010.13-7.71l-1.44-1.6c.76-.7 1.52-1.42 2.25-2.16.89-.93 1.78-1.87 2.64-2.83zM57.71 146a66.51 66.51 0 01-21.38-17l-1.72 1.4a68.56 68.56 0 0022.11 17.57zM127.39 29l-1.24 1.77-.29-.21-1.29 1.85a66.13 66.13 0 0128.21 46.53l2.21-.27a66.83 66.83 0 00-1.16-6.79l2.11-.46a69.5 69.5 0 00-2-7.12l-2 .68a67.64 67.64 0 00-11.65-21.1l1.68-1.35q-1.42-1.74-2.95-3.4l-1.58 1.46c-.63-.69-1.28-1.36-1.94-2a69.26 69.26 0 00-5.35-4.82l1.36-1.67q-1.08-.88-2.19-1.71l-1.32 1.7c-.45-.34-.91-.66-1.36-1l1.27-1.75zM104.34 18.51l-.53 2.1c-.79-.2-1.59-.39-2.39-.55l-.53 2.16A66.15 66.15 0 01112 25.64l.9-2.07a66.7 66.7 0 00-8-2.67l.56-2.09zM14.07 104.45c-.11-.45-.21-.9-.31-1.35l-9 2c.11.5.23 1 .35 1.52zM13 99.31c-.08-.46-.15-.92-.22-1.38l-9.07 1.36c.07.52.16 1 .24 1.54zM13.5 101.89c-.1-.45-.18-.91-.27-1.37l-9 1.68c.1.51.19 1 .29 1.53zM12.13 91.49c0-.47-.05-.93-.07-1.39l-9.18.39c0 .52.05 1 .09 1.56zM2.83 89.11l9.17-.25v-1.39l-9.18.08c0 .52 0 1.04.01 1.56zM2.81 86.16l9.18.08v-1.39l-9.16-.25c-.01.52-.01 1.04-.02 1.56zM14.73 107c-.13-.44-.25-.89-.37-1.34L5.45 108c.13.51.26 1 .4 1.51zM12.33 94.1l-.12-1.38-9.15.71c0 .52.08 1 .13 1.56zM12.63 96.71c-.06-.46-.11-.92-.16-1.38l-9.13 1c.05.51.11 1 .18 1.55zM20.51 121.61l-.63-1.24-8.26 4.12c.23.47.47.93.71 1.39zM15.47 109.51c-.14-.44-.27-.88-.4-1.33l-8.84 2.61c.15.5.3 1 .46 1.49zM23.11 126.17c-.25-.39-.48-.79-.72-1.19l-8 4.69.8 1.33zM2.89 83.22l9.17.39c0-.46 0-.92.07-1.38L3 81.66c-.07.52-.09 1.04-.11 1.56zM24.52 128.38l-.76-1.16-7.79 5 .86 1.3zM21.77 123.92c-.23-.41-.46-.81-.68-1.22L13 127.1l.75 1.37zM16.31 112c-.15-.44-.31-.87-.45-1.32l-8.75 2.93.51 1.47zM17.23 114.46c-.17-.43-.33-.87-.5-1.3l-8.63 3.22c.18.49.36 1 .56 1.46zM18.25 116.88c-.19-.43-.37-.85-.55-1.28l-8.53 3.53c.2.48.4 1 .61 1.43zM19.33 119.27l-.58-1.27-8.4 3.82c.22.47.43.94.66 1.41zM3.7 74.42l9.09 1.35c.06-.45.14-.91.22-1.37L4 72.88c-.14.51-.22 1.03-.3 1.54zM21.7 49.76l-7.94-4.5c-.26.45-.51.9-.76 1.36L21 51c.25-.43.47-.84.7-1.24zM23 47.5l-7.78-4.78c-.28.45-.54.89-.81 1.34l7.88 4.63c.27-.4.51-.8.71-1.19zM18.19 56.81L9.8 53.16c-.21.48-.41 1-.61 1.44l8.46 3.49c.17-.43.35-.86.54-1.28zM24.46 45.29l-7.62-5-.84 1.26 7.7 4.9zM20.45 52.07l-8.1-4.22-.49.93c-.07.15-.15.3-.22.46l8.18 4.07c.18-.42.42-.83.63-1.24zM29.16 39l-7-5.82c-.33.4-.65.81-1 1.22l7.16 5.68c.26-.39.54-.75.84-1.08zM3.06 80.28l9.15.71.12-1.38-9.14-.88c-.05.51-.09 1.03-.13 1.55zM27.52 41l-7.24-5.56c-.32.41-.64.82-1 1.24l7.35 5.43zM26 130.54c-.27-.37-.53-.75-.8-1.13l-7.6 5.22c.29.43.59.85.9 1.27zM26 43.13l-7.43-5.31-.9 1.28 7.53 5.16c.21-.38.48-.76.8-1.13zM30.88 37L24 30.91l-1 1.18L30 38c.26-.33.57-.67.88-1zM17.18 59.24l-8.51-3.36c-.19.48-.38 1-.56 1.46l8.58 3.2c.16-.44.31-.87.49-1.3zM13.47 71.82L4.48 70c-.1.51-.2 1-.29 1.54l9 1.66c.11-.47.19-.93.28-1.38zM3.33 77.35l9.13 1c0-.46.11-.92.17-1.38L3.52 75.8c-.07.51-.13 1.03-.19 1.55zM13.73 70.61c.1-.45.2-.91.31-1.36l-8.93-2.14c-.12.5-.23 1-.34 1.52zM16.26 61.7l-8.63-3.06c-.17.49-.35 1-.51 1.47L15.81 63zM14.7 66.71l-8.84-2.45c-.14.5-.28 1-.41 1.5l8.89 2.29c.11-.45.23-.89.36-1.34zM15.44 64.19L6.7 61.43c-.16.5-.32 1-.46 1.49l8.76 2.6c.16-.44.3-.89.44-1.33zM19.28 54.42L11 50.48c-.23.47-.44.94-.66 1.42l8.32 3.78c.22-.42.42-.84.62-1.26zM82 171.08l1.56.08L84 162l-1.38-.07zM79.06 170.85l1.56.14.71-9.16-1.33-.12zM84.94 171.21h1.56l.07-9.18h-1.38zM67.06 159.32l-2.47 8.88 1.51.39 2.3-8.91c-.4-.11-.89-.24-1.34-.36zM69.6 160l-2.15 8.95 1.52.35 2-9zM76.14 170.52l1.54.19 1-9.13-1.38-.17zM72.16 160.55l-1.84 9 1.54.29 1.67-9zM90.44 162l.39 9.17 1.56-.08-.57-9.17zM73.22 170.09l1.54.24 1.35-9.09-1.37-.24zM87.81 162.05l.08 9.18h1.56L89.2 162zM93.06 161.83l.71 9.15 1.56-.13-.89-9.14zM27.58 132.65l-.84-1.11-7.42 5.46c.31.41.62.83.94 1.24zM40.41 28l-5.72-7.19-1.2 1 5.84 7.08zM38.38 29.64l-6-7c-.4.34-.78.68-1.17 1l6.08 6.87c.38-.26.71-.57 1.09-.87zM34.5 33.18l-6.42-6.53c-.37.36-.74.72-1.1 1.1l6.53 6.41zM95.67 161.58l1 9.13 1.54-.19-1.2-9.1zM36.41 31.38l-6.19-6.76c-.38.35-.77.7-1.14 1.06l6.31 6.65c.34-.33.67-.64 1.02-.95zM32.65 35.05L26 28.75c-.36.37-.71.75-1.06 1.14l6.74 6.17c.32-.34.66-.67.97-1.01z"/><path class="cls-2" d="M41.65 27l-2.78-3.65.76 1a78.66 78.66 0 0181.22-8.48l.54-1.14-2 4.15.19.09 4-8.29-.2-.1-1.42 3a81.13 81.13 0 00-83.86 8.76l-2-2.64-.29.23 5.59 7.28zM38.41 144c-.36-.3-.7-.61-1-.91L31.25 150l1.17 1zM44.65 148.83a32.7 32.7 0 01-1.14-.79l-5.36 7.5c.42.31.85.61 1.27.9zM36.44 142.3l-1-1-6.37 6.7 1.15 1.06zM42.51 147.31l-1.11-.84-5.62 7.32 1.24.94zM40.43 145.71l-1.08-.87-5.87 7.16 1.21 1zM29.21 134.7l-.87-1.08-7.22 5.74 1 1.21zM30.92 136.69c-.3-.35-.61-.69-.91-1.05l-7 6c.33.4.68.78 1 1.17zM28.08 147.07l6.46-6.58c-.33-.32-.66-.65-1-1L27 146l.54.55c.16.16.35.34.54.52zM32.69 138.63l-.94-1-6.75 6.2c.35.39.7.77 1.06 1.15zM62.06 157.73l-3.06 8.7 1.48.5 2.92-8.74zM54.78 154.71l-4 8.33 1.41.66 3.81-8.4zM57.17 155.8l-3.68 8.46 1.43.62 3.53-8.53zM45.67 149.52l-5.1 7.7c.43.29.87.57 1.31.85l4.95-7.79c-.39-.28-.78-.5-1.16-.76zM64.54 158.57l-2.77 8.79 1.49.45 2.61-8.81zM59.59 156.81l-3.38 8.58 1.46.56 3.22-8.64zM47.88 150.94l-4.83 7.87 1.34.8 4.68-8zM52.44 153.53l-4.26 8.19 1.38.71 4.12-8.27c-.42-.16-.83-.41-1.24-.63zM50.14 152.28l-4.55 8 1.36.76 4.4-8.12zM121.31 153.9l4.17 8.18.72-.38-4.2-8.14zM123.05 153l4.38 8.07.72-.4-4.46-8zM124.77 152l4.58 8 .72-.42-4.67-7.91zM128.12 150l5 7.7c.23-.15.46-.29.69-.45l-5.08-7.65zM126.46 151l4.79 7.83.7-.43-4.87-7.78zM119.54 154.77l3.95 8.29.74-.36-4-8.25zM114.12 157.1l3.28 8.57.77-.3-3.37-8.54zM108.52 159l2.6 8.8.79-.24-2.69-8.77zM106.9 159.45l1.2 4.43-.33-1.22a77.33 77.33 0 01-8.93 1.86l-.48-3.29h-.09l1.35 9.08h.08l-.7-4.53.19 1.25a80.56 80.56 0 009.21-1.93l.87 3.21.49-.14-2.46-8.84zM117.76 155.59l3.73 8.39.74-.34-3.81-8.35zM112.27 157.78l3.06 8.66.77-.29-3.1-8.62zM116 156.37l3.51 8.48.75-.32-3.59-8.45zM129.76 148.85l5.19 7.57c.23-.15.46-.3.68-.46l-5.27-7.52zM110.4 158.41l2.84 8.73.78-.26-2.92-8.7zM132.94 146.54l5.59 7.28.65-.5-5.66-7.23c-.19.16-.39.3-.58.45zM131.37 147.72l5.39 7.43.66-.49-5.42-7.37c-.24.14-.44.28-.63.43zM153.89 52.09c.12.21.22.43.33.65l8.18-4.16c-.12-.25-.24-.49-.37-.73zM157.86 61.09c.09.23.17.46.25.69l8.65-3.06-.27-.77zM154.78 53.85c.11.21.21.44.31.66l8.29-3.95c-.12-.25-.23-.5-.35-.74zM152 48.65l.36.63 8-4.58c-.14-.24-.28-.48-.41-.72zM151 47l.39.62 7.82-4.79c-.14-.24-.28-.47-.43-.7zM157.16 59.25l.27.68 8.57-3.28-.29-.77zM156.42 57.43c.09.22.18.45.28.67l8.48-3.51c-.1-.25-.2-.5-.31-.75zM155.62 55.63c.11.22.2.44.3.66l8.39-3.73-.33-.75zM153 50.36l.35.64 8.06-4.38-.41-.72zM143.92 37.49l.47.55 7-5.95-.54-.63zM149.89 45.31l.39.61 7.7-5-.44-.69zM145.19 39l.46.57 7.14-5.78-.52-.63zM141.26 34.59c.17.17.33.35.5.53l6.66-6.32c-.18-.2-.37-.39-.56-.59zM148.77 43.69c.15.19.28.4.42.6l7.57-5.2-.47-.67zM147.62 42.09c.15.19.29.39.43.59l7.43-5.39-.48-.66zM146.43 40.52l.44.58 7.29-5.58-.5-.65zM142.61 36l.49.54 6.82-6.13c-.18-.21-.36-.41-.55-.61zM130.83 25.6l.59.43 5.41-7.42-.67-.48zM139.87 33.19c.17.17.35.34.52.52l6.49-6.49-.58-.58zM127.57 23.4l.61.4 5-7.7-.69-.44zM129.21 24.48l.61.41 5.2-7.56c-.22-.16-.45-.31-.68-.46zM125.89 22.36l.63.38 4.8-7.82-.7-.43zM120.71 19.52l.66.33 4.17-8.18-.73-.37zM122.47 20.42l.64.35 4.39-8.07-.73-.38zM124.19 21.37l.64.36 4.59-7.94-.71-.41zM135.5 29.22l.56.47 6-7-.62-.53zM138.45 31.83l.53.5 6.32-6.65-.6-.57zM137 30.51l.55.48 6.14-6.82-.61-.54zM134 28l.58.45 5.77-7.13-.63-.51zM132.42 26.77l.58.44 5.59-7.28c-.21-.17-.43-.33-.65-.49zM167.47 60.81c-.08-.26-.16-.52-.25-.78l-8.7 2.97c.07.23.15.46.22.7z"/><path class="cls-1" d="M38.63 157.52a1.35 1.35 0 00-.92.36A86.65 86.65 0 013.47 64.81h.13a1.4 1.4 0 10-.73-.21 87.28 87.28 0 0034.47 93.78 1.31 1.31 0 00-.11.52 1.4 1.4 0 101.4-1.39zM3.6 62.67a.76.76 0 11-.76.76.76.76 0 01.76-.76zm35 97a.76.76 0 11.75-.76.76.76 0 01-.72.76z"/></g></g></svg>