<svg xmlns="http://www.w3.org/2000/svg" viewBox="0 0 108.49 108.49"><defs><style>.cls-1{fill:#00b3ea}.cls-2{fill:#065977}.cls-3{fill:#feb113}</style></defs><g id="图层_2" data-name="图层 2"><g id="Layer_1" data-name="Layer 1"><path class="cls-1" d="M0 0v4.36a104.13 104.13 0 01104.13 104.13h4.36A108.49 108.49 0 000 0z"/><path class="cls-2" d="M36.16 92.34a39.39 39.39 0 013.43 16.15h57.46a96.69 96.69 0 00-8.42-39.59z"/><path class="cls-1" d="M13.55 71.28a39.72 39.72 0 0122.61 21.06L88.63 68.9c0-.06 0-.11-.07-.17a97.36 97.36 0 00-55.34-51.45z"/><path class="cls-2" d="M0 11.44V68.9a39.52 39.52 0 0113.55 2.38l19.67-54A96.73 96.73 0 000 11.44z"/><path class="cls-3" d="M0 4.36v5.05a99.08 99.08 0 0199.08 99.08h5A104.13 104.13 0 000 4.36zM0 68.9v3.25a36.34 36.34 0 0136.34 36.34h3.25A39.6 39.6 0 000 68.9z"/><path class="cls-1" d="M0 83.13v25.36h25.36A25.36 25.36 0 000 83.13z"/><path class="cls-2" d="M0 92.45v16h16a16 16 0 00-16-16z"/></g></g></svg>