<svg xmlns="http://www.w3.org/2000/svg" viewBox="0 0 250.1 75.6"><defs><style>.cls-1{fill:#04cbf5}.cls-2{opacity:.5}</style></defs><g id="图层_2" data-name="图层 2"><g id="Layer_1" data-name="Layer 1"><path class="cls-1" d="M0 60.6h48v3H0z"/><g class="cls-2"><path class="cls-1" d="M188.21 62.6H42v-1h145.79L249.4 0l.7.71-61.89 61.89z"/></g><path class="cls-1" d="M0 64.6h48v3H0z"/><g class="cls-2"><path class="cls-1" d="M188.21 66.6H42v-1h145.79l53.98-53.97.71.7-54.27 54.27z"/></g><path class="cls-1" d="M0 68.6h48v3H0z"/><g class="cls-2"><path class="cls-1" d="M188.21 70.6H42v-1h145.79l41.48-41.47.71.7-41.77 41.77z"/></g><path class="cls-1" d="M0 72.6h48v3H0z"/><g class="cls-2"><path class="cls-1" d="M188.21 74.6H42v-1h145.79l29.11-29.1.7.71-29.39 29.39z"/></g></g></g></svg>