<svg xmlns="http://www.w3.org/2000/svg" viewBox="0 0 28.99 28.99"><defs><style>.cls-1{fill:#69bffe}</style></defs><g id="图层_2" data-name="图层 2"><g id="央铋_1" data-name="央铋 1"><path class="cls-1" d="M14.5 29A14.5 14.5 0 1129 14.5 14.51 14.51 0 0114.5 29zm0-28.45a13.95 13.95 0 1013.94 14A14 14 0 0014.5.55z"/><path class="cls-1" d="M14.5 27.61A13.12 13.12 0 1127.61 14.5 13.13 13.13 0 0114.5 27.61zm0-24A10.92 10.92 0 1025.41 14.5 10.93 10.93 0 0014.5 3.58z"/><path class="cls-1" d="M14.5 24.77v-1.65h.5l.1 1.65zm-.59 0l-.6-.05.19-1.64h.5zm1.78-.05l-.19-1.64.5-.08.28 1.62c-.19.03-.39.05-.59.08zm-3-.09c-.2 0-.39-.07-.59-.12l.38-1.6.52.09zm4.15-.12l-.38-1.6.48-.13.48 1.58zm-5.31-.15l-.53-.21.56-1.55.48.16zm6.47-.21l-.56-1.55.46-.19.66 1.52zm-7.58-.22l-.54-.25.74-1.48.45.22zm8.68-.26l-.75-1.47a4.92 4.92 0 00.45-.24l.82 1.43zm-9.75-.28l-.51-.31.91-1.38c.14.1.28.18.43.27zm10.78-.31l-.91-1.38.41-.29 1 1.32c-.16.12-.32.27-.49.35zm-11.76-.34l-.47-.37L9 21.1l.39.31zm12.73-.38L20 21.1l.37-.33L21.54 22zM7.45 22L7 21.55l1.2-1.14c.11.13.23.24.35.36zM22 21.54l-1.2-1.13.3-.41 1.26 1.06zM6.63 21.1c-.13-.15-.25-.31-.37-.47l1.32-1 .31.39zm16.1-.47l-1.32-1 .29-.42 1.38.91c-.08.19-.23.35-.35.51zm-16.81-.48c-.11-.17-.22-.34-.32-.51l1.4-.83c.08.15.17.29.26.43zm17.47-.52L22 18.81a4.77 4.77 0 00.24-.44l1.48.74zm-18.07-.52c-.09-.17-.17-.35-.25-.54l1.51-.65.21.45zm18.61-.55l-1.52-.65c.07-.15.13-.31.19-.47l1.55.57c-.07.19-.15.37-.22.55zM4.85 18c-.07-.19-.13-.38-.19-.57L6.24 17c0 .16.1.32.15.47zm19.49-.58L22.76 17c0-.16.09-.32.13-.49l1.6.38c-.04.17-.1.36-.15.55zM4.5 16.87l-.12-.58L6 16c0 .17.07.33.11.49zm20.11-.59L23 16c0-.16.05-.33.07-.49l1.64.19c-.04.19-.06.38-.1.58zM4.3 15.7c0-.2 0-.39-.06-.59L5.89 15v.5zm20.45-.61L23.1 15v-.5h1.65c.02.2.01.39 0 .59zm-20.52-.58v-.59l1.66.08v.5zM23.1 14v-.5l1.63-.2q0 .3.06.6zm-17.17-.5l-1.64-.18c0-.2 0-.4.09-.6L6 13c0 .17 0 .34-.07.5zM23 13c0-.17-.06-.33-.1-.49l1.61-.38.12.58zm-16.9-.48l-1.6-.38a5.47 5.47 0 01.15-.58l1.58.44c-.05.19-.09.35-.13.52zM22.75 12c-.05-.16-.1-.31-.16-.47l1.55-.53c.07.19.13.38.19.57zm-16.36-.44L4.84 11c.07-.19.14-.38.22-.56l1.51.65c-.06.15-.13.31-.18.47zm16-.49l-.21-.46 1.47-.74c.09.18.17.36.25.54zm-15.61-.43L5.31 9.9c.09-.18.19-.36.29-.53l1.4.82zM22 10.17l-.27-.42 1.38-.91c.11.16.21.33.31.5zm-14.71-.4l-1.38-.91c.11-.17.22-.33.34-.49l1.32 1c-.1.12-.19.26-.28.4zm14.11-.43c-.1-.14-.2-.27-.31-.4l1.26-1.06c.13.15.25.31.37.47zM7.89 9L6.62 7.9 7 7.45l1.2 1.14a3.8 3.8 0 00-.31.41zm12.87-.39l-.36-.35L21.53 7a4.16 4.16 0 01.42.42zM8.57 8.23L7.44 7c.14-.13.29-.27.45-.4L9 7.9c-.18.1-.3.21-.43.33zM20 7.88l-.4-.31 1-1.32.47.37zM9.34 7.59l-1-1.33.49-.34.92 1.38zm9.88-.31c-.14-.09-.28-.18-.43-.26l.83-1.43.51.32zm-9-.25l-.87-1.42.52-.29.75 1.47zm8.17-.25l-.45-.21.65-1.51.54.25zm-7.28-.2l-.66-1.51.55-.22.56 1.55zm6.36-.19L17 6.23l.47-1.58.57.19zM12 6.24l-.48-1.58.58-.16.38 1.61zm4.46-.14L16 6l.28-1.62c.2 0 .39.07.59.12zM13 6l-.3-1.62.59-.08.19 1.63zm2.5-.08H15l.1-1.65h.59zm-1.5 0l-.1-1.65h.6v1.6z"/></g></g></svg>