<svg xmlns="http://www.w3.org/2000/svg" viewBox="0 0 28.85 28.83"><g data-name="图层 2"><path d="M13.68 28.83a13.16 13.16 0 01-1.68-.18l.07-.4a14.4 14.4 0 001.61.17zm1.67 0v-.41a14.61 14.61 0 001.62-.19l.07.4a13.2 13.2 0 01-1.69.19zm-5-.54a12.34 12.34 0 01-1.58-.56l.23-.39c.5.21 1 .39 1.53.55zm8.24-.05l-.12-.39a14.07 14.07 0 001.53-.58l.16.38a14 14 0 01-1.53.58zM7.31 27a14 14 0 01-1.4-.91l.24-.33a13.26 13.26 0 001.37.88zm14.38-.09l-.21-.35a13.77 13.77 0 001.35-.9l.25.33a14.54 14.54 0 01-1.39.9zM4.62 25a14.58 14.58 0 01-1.16-1.2l.32-.27a13.72 13.72 0 001.12 1.18zm19.74-.12l-.29-.3a13.84 13.84 0 001.12-1.18l.31.26a14.68 14.68 0 01-1.14 1.23zm-21.91-2.4A13.94 13.94 0 011.6 21l.4-.15a12.07 12.07 0 00.82 1.39zm24.05-.15l-.35-.23a13 13 0 00.85-1.4l.37.18a16 16 0 01-.87 1.45zM.92 19.51a14.82 14.82 0 01-.5-1.6l.4-.09a12.64 12.64 0 00.49 1.55zM28 19.34l-.39-.14a13.84 13.84 0 00.47-1.55l.4.09a14.73 14.73 0 01-.48 1.6zM.12 16.27A15.44 15.44 0 010 14.61h.41c0 .54.05 1.09.11 1.62zm28.64-.18h-.41a14.66 14.66 0 00.09-1.62v-.35h.41v.36a15.25 15.25 0 01-.09 1.61zM.48 13H.07a15.33 15.33 0 01.27-1.65l.4.09c-.11.46-.2 1-.26 1.56zm27.82-.52a14.4 14.4 0 00-.3-1.61l.39-.1a14.7 14.7 0 01.33 1.63zM1.19 9.81L.8 9.68a14 14 0 01.64-1.55l.37.18c-.23.49-.44.99-.62 1.5zm26.29-.48a13.14 13.14 0 00-.67-1.48l.36-.19a16.11 16.11 0 01.7 1.52zM2.6 6.9l-.34-.23a16 16 0 011-1.35l.32.26A12.34 12.34 0 002.6 6.9zM26 6.47a13.88 13.88 0 00-1-1.29l.31-.27a14.61 14.61 0 011 1.32zM4.65 4.38l-.29-.29A14.72 14.72 0 015.63 3l.25.33a15.59 15.59 0 00-1.23 1.05zM23.82 4a13.69 13.69 0 00-1.26-1l.24-.33a14.44 14.44 0 011.3 1zM7.22 2.4L7 2.05a13 13 0 011.48-.77l.17.37a14 14 0 00-1.43.75zm14-.25a13 13 0 00-1.46-.7l.15-.39a15 15 0 011.51.72zm-11-1.08l-.17-.39a14.81 14.81 0 011.62-.42l.07.41a14.45 14.45 0 00-1.57.4zm8-.15a14 14 0 00-1.63-.34l.07-.41c.55.09 1.1.21 1.63.35zM13.35.45V.04A15.51 15.51 0 0115 0v.42a14.78 14.78 0 00-1.65.03z" fill="#69bffe" data-name="央铋 1"/></g></svg>