<svg xmlns="http://www.w3.org/2000/svg" viewBox="0 0 369.55 342.18"><defs><radialGradient id="radial-gradient" cx="184.78" cy="171.09" r="186.11" gradientUnits="userSpaceOnUse"><stop offset=".49" stop-color="#097692"/><stop offset=".66" stop-color="#5b6779"/><stop offset=".82" stop-color="#a65a62"/><stop offset=".94" stop-color="#d55154"/><stop offset="1" stop-color="#e74e4e"/></radialGradient><style>.cls-3{mix-blend-mode:color-dodge}.cls-5{fill:#c0f4}</style></defs><g style="isolation:isolate"><g id="图层_2" data-name="图层 2"><g id="Layer_1" data-name="Layer 1"><path d="M293.62 171.31l.16-2.41h12.7l-.15 2.69zm24.82 4.94l.15-3-25-.82-.12 2.41zm8 5.1l.16-3.14-33.2-2.16-.09 2.41zm-23.55 1.86a22.91 22.91 0 00.37-2.6l-10-1a19.21 19.21 0 01-.34 2.38zm3 4.39l.41-2.67-13.54-1.78-.37 2.38zm-6.27 2.91l.38-2.56-7.78-1.28-.34 2.38zm3.45 4.67a25.85 25.85 0 00.62-2.6l-12-2.38a20.78 20.78 0 01-.56 2.33zm-6.83 2.33l.64-2.45-6-1.41-.6 2.32zm1.32 4.31l.63-2.52-8.22-2.21-.58 2.33zm5.58 5.87a26.55 26.55 0 00.89-2.6l-14.91-4.54a22.32 22.32 0 01-.78 2.26zm20.35 11.79l1.12-3.07-36.74-12.51-.84 2.25zm-17.16-1.72l1-2.72-20.62-7.8-.81 2.25zm-8.81.77a25.92 25.92 0 001.13-2.46l-13.14-5.48a20.28 20.28 0 01-1 2.17zm-7.36.93l1.13-2.33-7.3-3.33-1.11 2.2zm2.34 5.54l1.15-2.42-11.27-5.58-1 2.17zm8.43 9.35s1.58-2.49 1.5-2.53l-21.5-11.59a20.45 20.45 0 01-1.24 2.06zm-6.89.91l1.48-2.41-16.52-9.57-1.25 2.05zm-8.49-.58l1.37-2.28-9.69-6.08-1.23 2.07zm-6.38.32l1.54-2-5.3-3.57-1.46 1.92zm2.14 6.36l1.61-2.14-9.67-7-1.45 1.93zm31.11 30.28l2.18-2.9-43.55-33.64-1.42 1.9zm-15-5.85l2.21-2.44-30.7-25.35-1.64 1.76zm3.77 10.12l2.35-2.59-37-32.73-1.62 1.78zm-18.59-11.06l2-2.25-20.5-19.37-1.6 1.77zm-10.14-4.15l2.1-1.88-12.85-12.95-1.81 1.6zm-6.16-.66l2-1.82-9.26-10-1.78 1.62zm-.42 5.77l2.06-1.9-11.54-13.25-1.76 1.64zm-1.09 5.35l2.31-1.71L253.71 253l-2 1.42zm15.4 28.44l2.87-2.15-32.21-42.31-1.93 1.44zm9.38 23.31l3.32-2.44L248 257.28l-1.91 1.47zm-12-7.58l3.27-2-35.73-54-2.11 1.25zm-10.7-7l3.06-1.87L242 261.18l-2 1.25zm-22.15-29.72l2.36-1.44L239 263l-2 1.27zm-.31 8.54l2.64-1.27-11.17-21.08-2.18 1zm-9.95-11.23l2.35-1.13-4.12-8.47-2.16 1.05zm0 10c0 .06 2.54-1.2 2.54-1.2l-7.53-16.87s-2.14 1.1-2.16 1zm-6-4l2.53-.9-4.8-11.77-2.26.81zm-4.64-1.26l2.46-.91-3.44-9.3-2.25.83zm-4.44-1.26c0 .08 2.41-.86 2.41-.86l-2.28-6.85a20.86 20.86 0 01-2.25.81zm-.8 11.6l2.72-.69-5.16-17.44-2.33.57zm-5.93-7l2.54-.66-2.5-9.59-2.32.6zm-1.59 11.74c0 .08 2.78-.69 2.78-.69l-4.59-20.4a23.37 23.37 0 01-2.33.59zm-5.22-5.43l2.7-.39-2.76-14.52-2.39.34zm-5.06-7.31l2.53-.39-1.06-6.76-2.38.37zm-3.25 5.53l2.64-.41-1.44-11.72-2.38.39zm-4.39-6.17l2.54-.1-.49-5.43-2.41.09zm-3.64 3.29l2.6-.13-.49-8.54-2.41.13zm-3.84 5.19l2.71-.16-.37-13.51-2.41.15zm-3.82-6.84l2.57.15.05-6.84-2.41-.15zm-4.69 14.11l2.88.15.86-21.17-2.42-.12zm-2.85-15l2.55.11.46-6.25-2.41-.09zm-4.3 4.02l2.61.41 1.15-10.84-2.37-.39zm-4.7 4.48l2.7.39 2.21-15.89-2.37-.37zm-3.08-5.61l2.62.38 1.86-10.75-2.38-.33zm-5.72 7.36l2.74.72 3.94-19-2.32-.63zm-6.26 7.22l2.93.76 6.57-27.16-2.32-.6zm-1.84-9.4l2.74.7 5.16-18.58-2.33-.57zM140 303l3 1.09 9.95-31.74-2.25-.85zm-2.5-6.59l2.84 1 9.23-26.36-2.25-.83zm-23.17 44.28l3.87 1.45 28-72.27-2.26-.8zm3.71-23l3.28 1.57 21.57-50.58-2.15-1.07zm10.92-34.25l2.55 1.22 8.19-17.56-2.16-1zm-10.35 10.43l2.84 1.36 15-29.67-2.18-1zM122.4 278l2.38 1.46 8.46-15.4-2-1.27zm.15-5.62l2.29 1.4 6.36-11-2-1.26zm-10.18 8.28l2.54 1.53 13.25-21.26-2.07-1.23zm-8.37 4.19s2.49 1.92 2.55 1.84l18.51-27.63a20.6 20.6 0 01-1.94-1.43zm10.23-21.34l2.1 1.58 5.87-8.16-1.93-1.45zm-5.4.49l2.18 1.61 8.33-10.82-1.94-1.43zm.71-7l1.91 1.75 5-6.09-1.78-1.63zm-5.75.6l2 1.81 8.06-9.17-1.78-1.62zm1.27-7l1.9 1.7 4.23-4.5-1.81-1.61zm-4.3-1.11l1.74 1.93 6-6-1.59-1.8zm-7.85 1.85l1.85 2 11.39-10.64-1.59-1.7zm-20.5 11.92l2.19 2.42 29.17-25.52-1.64-1.77zm10.18-14.11l1.73 2.33 17.06-14-1.38-1.92zm3.74-8.05l1.67 2.18 11.31-8.65-1.44-1.93zm2.7-6.72l1.57 2.06 6.53-4.67-1.47-1.91zm-5.81-.85l1.38 2.3 10.4-6.94-1.23-2.07zm-12.31 2.64l1.53 2.52 20.76-12.86-1.2-2.06zm2.47-6.32l1.48 2.41 16.48-9.47-1.27-2zm4.94-7.17l1.13 2.4 10.11-5.38-1-2.17zm2.87-5.68l1.11 2.29 5.7-2.81-1-2.16zm-6.76-1.23l1.18 2.4 10.87-4.9-1.07-2.15zm-41.52 11.76l1.25 3.4L85 210l-.8-2.26zm12.48-10l1.13 3.09 37.31-13.9-.83-2.28zm-10.83-1.73l1.19 3.29 46.85-15.7-.85-2.25zm19.14-10.68l.75 2.94 27-8.07-.58-2.33zm8.57-6.66l.71 2.71 17.64-4.64-.62-2.32zm3.49-5l.69 2.62 13.27-3-.63-2.32zm-4.49-3.3l.41 2.76 17.25-3.33-.34-2.38zm-4.2-3.61l.44 2.84 20.92-3.33-.37-2.38zm-32.49-.92l.53 3.54 52.76-6.63-.39-2.38zM0 182.08l.23 4.1L77.41 179l-.09-2.41zm12.46-6.58l.2 3.83 64.61-3.86-.13-2.41zm11.28-5.74l.17 3.58 53.17-1.45-.15-2.41zm37.07-4.3l-.16 2.77 16.28.08.15-2.41zm-7.35-4.55l-.15 2.93 23.83.9.13-2.41zm14.58-3l-.11 2.61 9.39.67.09-2.42zm-8.5-5l-.44 2.78 18.38 1.9.39-2.37zm6.34-3.21l-.41 2.65 12.59 1.72.37-2.37zm3.32-3.41l-.38 2.6 9.77 1.66.34-2.38zm3.48-3.19l-.68 2.47 7.09 1.43.63-2.32zM63 136.63l-.7 2.72 17.7 4.23.61-2.32zm9-1.63l-.63 2.55 9.56 2.62.58-2.33zm-9.2-7.18l-1 2.69 20 6.21.85-2.25zM70 126l-1 2.51 14 4.85.83-2.26zm8.71-.8l-.85 2.41 6.36 2.39.8-2.26zm-3-5.48l-1.18 2.39 10.87 4.6 1.07-2.15zm7.43-.76l-1.1 2.27 4.96 2.24 1-2.16zM82 114.07l-1.11 2.35 7.65 3.85 1-2.18zm-2.38-5.8l-1.42 2.31 11.87 6.47 1.27-2zm7.76.09l-1.32 2.19L92 114l1.25-2zm-10-11.2l-1.48 2.47L93.8 111l1.2-2.09zM92 102.38l-1.54 2 5.17 3.53 1.5-1.91zm-1.42-5.84L89 98.66l8.8 6.44 1.44-1.93zM89 90.12l-1.64 2.23 12.64 9.89 1.42-1.95zm6.61.34l-1.8 2 8.36 7 1.64-1.76zM92 81.76l-1.91 2.11 14.45 12.91 1.64-1.78zm-3.23-9.16l-2 2.24L107 94.13l1.59-1.81zM98 75.88l-2.11 1.91 13.5 13.75 1.81-1.6zm-6.11-13.32l-2.33 2.11 22.52 24.49 1.78-1.62zm6.85 1l-2.25 2 18.22 21.18 1.78-1.63zm-26.64-42l-3.29 2.48 48.62 60.37 1.94-1.41zm18 14.63l-2.9 2.17 33.1 43.95 1.93-1.44zm24.2 26.45c0-.08-2.29 1.67-2.29 1.67l11.14 15.86a20.6 20.6 0 011.94-1.43zm-3.74-14l-2.69 1.63 18.22 27.83 2.07-1.23zm11.84 11.21L120 61.3l9.13 15 2-1.26zm4.73 2.8l-2.29 1.41 6.36 11 2-1.27zm-2-12.77l-2.67 1.28 11.82 22.08 2.18-1zm.48-9.34l-2.83 1.36 14.73 29.83 2.16-1zm13.29 19.32L136.54 61l4.15 9.16 2.15-1.08zm2.34-4.71l-2.54.92 5.22 12.62 2.26-.8zm5.67 4.07l-2.41.89 2.77 7.38 2.25-.82zm2.29-5.46l-2.51.94 3.91 11.56 2.25-.85zm5.44 4.82l-2.46.61 1.82 5.92 2.32-.57zm3.1-3.2l-2.51.64 2.19 8.23 2.32-.6zm2.26-7.92l-2.66.7 3.51 15.19 2.32-.62zm.09-23.46l-3.23.49 7.46 38 2.38-.34zm7.09 15.82l-2.86.44L167.85 62l2.37-.36zm5.06 7.1l-2.69.43 1.82 14.12 2.37-.39zm4.49 6l-2.59.11.76 8 2.41-.09zm3.65-4.68l-2.69.13.78 12.51 2.42-.13zm3.89-12.13l-3 .17.73 24.41 2.41-.15zm4.23 5.53l-2.83-.16v19l2.41.15zm3.76 7.78l-2.66-.13-.4 11.43 2.41.13zm3.5 5.21l-2.55-.11-.43 6.38 2.41.1zm4.42-5l-2.63-.42-1.2 11.79 2.38.38zm10.58-42.01l-3.59-.55-7.3 54.51 2.38.37zm2.47 15.72l-3.23-.49-6.59 39.27 2.39.34zM220.1 15s-3.39-.9-3.41-.82l-9.77 48.43a23.42 23.42 0 012.33.6zm-.31 21.81l-2.93-.76-6.49 27.45 2.32.61zm1.53 10.67l-2.73-.69-4.78 17.6 2.33.58zm2.49 5.66s-2.52-1-2.54-.91l-4 13a23.32 23.32 0 012.25.82zm5.19-2.33l-2.63-1-5.77 16.65 2.25.84zm5.24-1.93l-2.69-1-7.56 19.79 2.26.8zm17-27.52l-1.62-.78c-.8-.39-1.63-.74-1.63-.74l-20.6 49c0-.06 2.16 1 2.16 1zm15.35-19.57L262.87 0 230.5 70.43l2.16 1zm-.47 14l-3.46-1.69L233.7 72l2.18 1zm-.76 12.8l-3.08-1.84-25.35 46.74 2 1.26zm-14.81 34.17l-2.37-1.44-8.22 14 2 1.26zm7.69-4.2L255.73 57 243 77.21l2.07 1.23zm-4.81 14.28l-2.08-1.59-5.28 7.8 1.93 1.46zM262 68l-2.26-1.69-10.86 15 1.93 1.44zm-.29 7l-2.16-1.59-7.81 10 2 1.43zm1.16 4.74L261 77.87l-6.34 7.63 1.76 1.64zm1 4.6l-1.87-1.8-4.79 5.39 1.79 1.62zM274.5 79l-2.09-1.88-12.53 13.2 1.81 1.61zm-3.19 8.74l-1.75-2-7.06 7 1.6 1.8zm10.86-4.39l-1.94-2.13-15.35 14.2 1.62 1.78zm-1.85 7l-1.86-2-11.17 9.66 1.64 1.77zm-3.86 8.1l-1.46-2-5.32 4.31 1.42 1.94zm6.3.14l-1.6-2.14-9.42 7.12 1.45 1.93zm-2.89 6.71l-1.53-2-4.45 3.14 1.46 1.92zm4.55 1.57l-1.34-2.23-7.14 4.71 1.23 2.06zm6.28.79l-1.4-2.31-11.53 7 1.25 2.06zm-3.81 6.6a21.25 21.25 0 00-1.31-2.2l-5.95 3.38a20.59 20.59 0 011.24 2.07zm14.46-3l-1.24-2.59-18.76 9.84 1 2.18zm-11.72 10l-1.11-2.28-5.64 2.72 1.05 2.16zm5.88 1.62a24.49 24.49 0 00-1.1-2.39l-10 4.41a19.56 19.56 0 011 2.18zm6.14 1.87l-.94-2.59-14.88 6 .81 2.26zm-3.46 5.5l-.92-2.48-10.27 3.88.84 2.25zm9.4 1.22a28.16 28.16 0 00-.91-2.68l-18.4 6.21a22.5 22.5 0 01.78 2.27zm9.3 1.85l-.75-2.93-26.81 7.85.58 2.33zm-7.32 6.31l-.7-2.74-18.68 4.8.61 2.32zm14.71 1.35c.09 0-.71-3.06-.71-3.06l-32.47 7.21a20.78 20.78 0 01.56 2.33zm-4.56 5.47l-.45-3-27.45 5.15.34 2.38zm49.83-2l-.61-4.08-76.61 11.79.37 2.37zM348 152.81c.1 0-.48-3.59-.48-3.59l-54.59 6.57a18.94 18.94 0 01.34 2.38zm-35.25 7.68l-.13-2.84-19.3 1.68.09 2.42zm14.09 3.75l-.16-3.14-33.21 1.81.12 2.41zm-15.45 4.66l-.16-2.8-17.57.39.16 2.41z" transform="rotate(289.859 184.78 171.09)" style="mix-blend-mode:color-dodge" fill="url(#radial-gradient)"><animateTransform accumulate="none" additive="replace" attributeName="transform" attributeType="xml" calcMode="linear" dur="40s" fill="remove" from="0 184.78 171.09" repeatCount="indefinite" restart="always" to="360 184.78 171.09" type="rotate"/></path><path d="M184.78 273.54a102.45 102.45 0 11102.45-102.45 102.57 102.57 0 01-102.45 102.45zm0-203.3a100.85 100.85 0 10100.85 100.85A101 101 0 00184.78 70.24z" fill="#263650"/><g class="cls-3"><path class="cls-5" d="M184.78 260.06a88.89 88.89 0 01-84.37-60.64 2 2 0 113.79-1.28 84.9 84.9 0 0080.58 57.92 2 2 0 110 4z"/></g><path xmlns="http://www.w3.org/2000/svg" fill="#ff0200" d="M155.93 107.67a2 2 0 01-.81-3.83A72.77 72.77 0 01170 99.1a2 2 0 012.36 1.56 2 2 0 01-1.56 2.36 68.53 68.53 0 00-14 4.48 2.05 2.05 0 01-.87.17z" transform="rotate(70.14 184.78 171.09)"><animateTransform accumulate="none" additive="replace" attributeName="transform" attributeType="xml" calcMode="linear" dur="15s" fill="remove" from="360 184.78 171.09" repeatCount="indefinite" restart="always" to="0 184.78 171.09" type="rotate"/></path><g class="cls-3"><path class="cls-5" d="M184.78 244.57A73.49 73.49 0 01170 99.1a2 2 0 012.36 1.56 2 2 0 01-1.56 2.36 69.49 69.49 0 1078.64 93.62 2 2 0 113.72 1.47 73.51 73.51 0 01-68.35 46.46z"/></g></g></g></g></svg>