<svg xmlns="http://www.w3.org/2000/svg" viewBox="0 0 315.28 117.06"><defs><radialGradient id="铃琨眄_沭噤桢眚_30" cx="-25.59" cy="431.25" r="67.11" gradientTransform="matrix(1.76 0 0 .45 199.6 -125.12)" gradientUnits="userSpaceOnUse"><stop offset=".01" stop-color="#fff"/><stop offset=".04" stop-color="#f4f4f4"/><stop offset=".25" stop-color="#ababab"/><stop offset=".45" stop-color="#6e6e6e"/><stop offset=".63" stop-color="#3f3f3f"/><stop offset=".79" stop-color="#1c1c1c"/><stop offset=".91" stop-color="#080808"/><stop offset="1"/></radialGradient><style>.cls-4{fill:#fff}</style></defs><g style="isolation:isolate"><g id="图层_2" data-name="图层 2"><g id="央铋_1" data-name="央铋 1"><ellipse cx="154.5" cy="69.46" rx="118.27" ry="30.28" fill="url(#铃琨眄_沭噤桢眚_30)" opacity=".5"/><path class="cls-4" d="M123.68 45.47c0-.24-.09-.52.08-.69a1.52 1.52 0 011-.44c.29 0 .78.43.72.58s-.55.45-.93.57a2.4 2.4 0 01-.89-.09zM190.4 45c.85-.29 1.48-.34 2.07.36a6.89 6.89 0 001.93 1.18c1.94 1 2.82 2.3 2.42 3.94a16.48 16.48 0 01-1 2.41.77.77 0 01.38.08c.3.18.65.39.74.63s-.28.5-.51.54a2.64 2.64 0 01-1-.22c-.41-.15-.77-.34-1.25-.56-.15.58-.05 1.12-.39 1.31a6.68 6.68 0 01-2.39.72c-.29 0-.73-.57-1-.95l-2.63-1.57a1.79 1.79 0 010 .23h-1.86c0-.24.06-.68.13-.69a4.59 4.59 0 011.53.17 7.69 7.69 0 011.66-.25c.52.59 2.34.71 1.43 1.8.76.07 1.3.23 1.67-.41.26-.44 1-.76 1.54-1.14 1.68-1.23 2.08-3.48.58-4.81-.55-.49-1.16-1.5-2.77-.91a1.64 1.64 0 01-1-.58 3.36 3.36 0 01-.13-1.27zM201.15 66.39c-.13-.39-.15-.8-1-.85-.23 0-.62-.42-.57-.59a5.21 5.21 0 01.79-1.46c.12-.18.55-.24.74-.41.69-.61.7-.62 1.92-.19 0-.85.45-1.89-.14-2.39s-.34-1.22-1.45-1.43c-.24 0-.23-.68-.34-1h-.05c1.45-.16 1.63-.05 1.93.91a6.62 6.62 0 00.81 1 4.72 4.72 0 001 .43c.4.19.78.39 1.17.59a4 4 0 01-.79.67 1.25 1.25 0 000 2.2c.24.12.38.32.61.45.42.25.87.48 1.31.72a3.06 3.06 0 01.9.53c.1.14-.13.51-.36.58s-.7-.07-1.06-.05a4.78 4.78 0 00-1.14.2 12 12 0 01-1.11.48c-.13 0-.65-.34-.61-.47.09-.28.43-.51.68-.76a3.46 3.46 0 01.39-.25c-.4-.12-.83-.36-1-.29-.4.14-.86.41-.94.68-.23.7-.77.86-1.71.65zM113.27 58.37c.09.57.28 1-.73 1.51a2.78 2.78 0 00-1.36 2.67 8.57 8.57 0 010 1.36c2.11-1 2.4-1 2.7.29a9.38 9.38 0 01-1.29.07 7.32 7.32 0 01-1.29-.36c.35.68.62 1.17.94 1.79.9.12 1.08.63.85 1.3l.1-.08a22.24 22.24 0 01-2.29.36 1.68 1.68 0 01-1.1-.39c-.38-.51-.7-.68-1.49-.3a2.93 2.93 0 01-1.31.08c-.11 0-.31-.45-.21-.52a2.14 2.14 0 011.06-.37 1.23 1.23 0 001.27-.73 3.06 3.06 0 00.16-3.27v-.18c.71-.7 1.44-1.39 2.39-2.31-.18-.49.43-.86 1.6-.92zM209.63 67.88c1.08 0 2.29.14 2.59.9.21.56-.19 1.22-.34 1.9.56.26 1 .6.36 1.17a.45.45 0 00-.07.55c.37.63 0 .95-.53 1l-.64 1.43a4.73 4.73 0 01-1-.25 3.23 3.23 0 01.56-1.21 10.72 10.72 0 00.28-1.08c.06-.44.26-1 0-1.31-.45-.69.07-1.54-1-2.14-.29-.16-.19-.65-.27-1zM224.53 83.61c.29.25.72.46.69.62a1.49 1.49 0 01-.68.74c-.38.24-.92.37-1.28.62-.56.39-.33.63.41.83a1.58 1.58 0 01.91.6c.08.14-.36.56-.59.57a3.18 3.18 0 01-1-.37 4.11 4.11 0 00-.74-.27c-1.29-.18-.92-1-1.2-1.5-.08-.14.89-.56 1.41-.82s.87-.37 1.29-.57c.25-.06.41-.24.78-.45zM183.14 58.06a4.11 4.11 0 01-.13 1.11 1.45 1.45 0 01-.88.1 18.22 18.22 0 01-1.79-.83 1.36 1.36 0 00-1.88.29.9.9 0 01-1.31.32.81.81 0 01-.18-1c.84-.93 3.52-1 4.75-.29a5.88 5.88 0 001.46.37zM226.19 88.22c-.23-.14-.66-.28-.74-.48a.61.61 0 01.37-.65c.48-.18 1.14-.16 1.6-.35a4.65 4.65 0 001.31-.89 15.2 15.2 0 011-1.22 1.68 1.68 0 011.15 0c.21.11.22.53.1.76a15.8 15.8 0 01-1.09 1.57.43.43 0 01-.15.15zM234.83 80.77a18.7 18.7 0 012 0c.69 0 1.17.29.84.85a.5.5 0 000 .43c.24.66-.76 1.47-1.76 1.37-.26 0-.63-.2-.67-.34a.64.64 0 01.28-.61 5.36 5.36 0 011.12-.43l-1.72-.49a1.36 1.36 0 000 .2l-1.8.06c0-.26-.16-.69 0-.75a7.78 7.78 0 011.71-.29zM144.17 60c.91.19 1.85.54 2.3-.43a1.62 1.62 0 011-.11c.26.11.53.52.41.65a6.17 6.17 0 01-1.46 1.3 3.26 3.26 0 01-2.7-.62 2.5 2.5 0 00-.51-.52c-.3-.24-.74-.44-.88-.71 0-.1.56-.36.87-.54.29.27.59.54.87.82a.35.35 0 01.1.16zM231.2 83.33c.46-.31.88-1.18 2.14-.66.27.12 0 .81 0 1.29l1.08.89-1 .47-1-1 .22-.07-1.7-.58v.15l-1.79.07.15-.94zM118.16 94.74c.84.46 1.56.86 2.3 1.25s1.27.59 1.85.93a1.19 1.19 0 01.6.69c0 .15-.36.46-.6.48a2.54 2.54 0 01-1-.3c-1.21-.55-1.87-1.59-3.59-1.7-.17 0-.39-.48-.38-.73s.43-.36.82-.62zM215.17 90.56c-.16-.32-.55-.69-.43-.94.23-.44.67-1.06 1.21-1.16a7.6 7.6 0 003.21-1s.77.26.8.42a.8.8 0 01-.47.71c-.82.33-1.74.54-2.58.85-.26.09-.37.35-.57.52l-.71.57zM163.7 92.82c-.44-.23-1.13-.41-1.25-.7s.44-.62.81-.9c.1-.43-1.24-.9 0-1.33a2.16 2.16 0 011.54.46c.17.28-.35.74-.56 1.11l-.32-.08c.05.36.09.72.16 1.19.52.12 1.72 0 1.34.87-.08.18-.64.28-1 .41l-.8-.93zM105.07 68.39c-.33.84-.67 1.68-1 2.53-.1.27-.14.56-.23.83s-.1.58-.34.68a1.55 1.55 0 01-1-.08c-.2-.13-.17-.47-.13-.7.11-.58.31-1.15.44-1.73.24-1 .81-1.42 2.33-1.5zM97 90.55c-.31-.56-.46-1.2-1.73-1.18-.21 0-.57-.36-.61-.58s.27-.46.53-.54a2 2 0 011 .11 11.49 11.49 0 011.49.57 5.19 5.19 0 01.71.48 10.8 10.8 0 011 .56 4.64 4.64 0 01.62.72 6.21 6.21 0 01-1.32.2 11.31 11.31 0 01-1.69-.37zM242 78.61a5.92 5.92 0 01-1.12-.83c-.07-.09.48-.4.75-.61L243 78.3a4.84 4.84 0 011-.48 6.54 6.54 0 011.35-.11 2.9 2.9 0 01-.26 1c-.11.18-.49.31-.78.42-.47.17-1.14.52-1.41.42s-.56-.62-.81-1zM89.45 85.15c.14-.12.27-.39.53-.46a1.61 1.61 0 011 .09c.78.54 1.49 1.12 2.23 1.69.51.38.47.77-.12 1s-1.07 0-1.41-.41c-.17-.19-.43-.47-.68-.48-1.38-.04-1.18-.79-1.55-1.43zM109.1 94.17a4.78 4.78 0 011.64-.29c.7.19.52.79-.15 1-1 .37-2 .81-3 1.19a2.34 2.34 0 01-1.06.17c-.23 0-.5-.39-.46-.56a1.13 1.13 0 01.67-.58c.74-.26 1.55-.44 2.31-.68.09 0 .06-.21.09-.32zM128.33 59.06a6.62 6.62 0 01.56-1.58c.12-.2.74-.25 1.14-.38.13.25.48.56.36.72-.36.54.22 1.55-1.12 1.43a9.34 9.34 0 01-1.29 1 3.92 3.92 0 01-.86-.38l1.06-.89zM192.74 92.12c.08.18.27.39.22.56a3.38 3.38 0 01-.49.8c-.38-.14-1-.22-1.11-.43s-.18-.61-.92-.65c-.27 0-.48-.52-.71-.8.39-.12.77-.26 1.17-.35.18 0 .45.09.63 0 1.19-.25 1.39.21 1.21.87zM249 76.08a2.52 2.52 0 01.72-.24 3.42 3.42 0 011.17.15c.15.05.22.45.1.52a3.18 3.18 0 01-1 .27h-.84A11.09 11.09 0 01248 77a7.22 7.22 0 01-1.13-1.52c0-.09.42-.37.71-.43a1.18 1.18 0 01.78.22 4.82 4.82 0 01.64.81zM155 98.84c-.14.29-.17.59-.41.77a7.14 7.14 0 01-1.2.64l-.43-1a3.87 3.87 0 01-.36-.94 4 4 0 01.09-1 6.45 6.45 0 011.29.47 6.65 6.65 0 011.02 1.06zM170.12 60.2c0-.3-.12-.6 0-.81a3.25 3.25 0 01.87-.54c.26.23.68.44.76.7a1.42 1.42 0 01-.14 1 1.1 1.1 0 01-.69.57 6 6 0 01-2.24 0c-.61-.2-.35-.68.35-.85a8.39 8.39 0 011.09-.07zM162.25 100.1c-1.15 0-1.9-1.14-1.45-1.7a2.91 2.91 0 01.82-.86 4.33 4.33 0 011.23-.2c.07.28.35.66.18.82-.44.42-.77.73-.27 1.25.12.13-.38.51-.51.69zM104.48 92c-.53.74-1 1.42-1.52 2.07a1.37 1.37 0 01-.93.09c-.25-.12-.48-.46-.4-.64a9.68 9.68 0 011.06-1.79 1.15 1.15 0 01.8-.31 3.8 3.8 0 01.99.58zM210.31 91.89c0-.15-.09-.34 0-.43a6.85 6.85 0 01.94-.6 5.18 5.18 0 01.76.71 3.06 3.06 0 01.51 1 4.11 4.11 0 010 1 4 4 0 01-1.29-.3 7.57 7.57 0 01-1.14-1.27zM151.34 92.68c0-.38-.05-.76-.08-1.21-.68-.18-1.4-.5-.7-1.11a2.29 2.29 0 011.45-.43c1.08.41.25.88 0 1.13l1 1.13-1.68.47z"/><path class="cls-4" d="M209.66 67.86a6 6 0 01-.92.12c-.43 0-.86-.1-1.29-.15.1-.31 0-.73.33-.91a9.84 9.84 0 012.09-.86 1.37 1.37 0 01.93.22.9.9 0 01-.21.81 6 6 0 01-1 .79zM239.56 79.48c1.18.33 2.17.59 3.1.92.18.07.24.52.08.69a1.43 1.43 0 01-1 .25 15 15 0 01-2.39-.7.65.65 0 01-.35-.64c.05-.23.42-.41.56-.52zM196.21 95.64c-.92.65-1.69 1.23-2.54 1.75a1.66 1.66 0 01-1-.27c-.13-.1.05-.43.21-.61a10 10 0 011.24-1.18 1.56 1.56 0 01.91-.34c.37.01.64.33 1.18.65zM138.24 58.63a21.9 21.9 0 01-2.3.71c-.15 0-.82-.52-.75-.57.48-.47-.43-1.48 1-1.46.7 0 1.39.6 2.09.93-.02.13-.03.26-.04.39zM105.1 68.42a4 4 0 01-.65-.82c-.1-.24-.14-.63.07-.76a1.83 1.83 0 011.16 0 8.88 8.88 0 011.76.82c.22.13.35.59.27.63a3.73 3.73 0 01-1.22.25 11.4 11.4 0 01-1.42-.15zM122.53 93.23c0-.24-.25-.53-.12-.73a2.16 2.16 0 011-.81 1.8 1.8 0 011.08.12 1.7 1.7 0 01-.12.93 1.44 1.44 0 01-.3.59 9.62 9.62 0 01-.91.72l-.94-.67zM90.27 88.8l.78.32a10.61 10.61 0 011.3.5 2.37 2.37 0 01.88.66c.07.11-.33.5-.55.51a4 4 0 01-1.13-.27 6.39 6.39 0 01-1.19-.4 1.5 1.5 0 01-.72-.71c-.05-.16.36-.41.63-.61zM200.93 88.53l.67-1 1.09.5c-.36.31-.71.63-1.11 1l-.74 1.14a7 7 0 01-1-.43 9.54 9.54 0 011.09-1.21zM188.47 89.14a4.33 4.33 0 01-1.11.6 1.18 1.18 0 01-.84-.39.53.53 0 01.22-.64 2.41 2.41 0 011 0c.44 0 .87.12 1.3.19a4.29 4.29 0 011.27.23c.14.08-.14.49-.23.76a10.77 10.77 0 01-1.33-.29c-.13-.09-.18-.32-.28-.46zM224.8 88.68c-.06.16-.05.29-.13.33-.84.38-1.67.77-2.55 1.1-.09 0-.72-.32-.72-.49s.3-.51.58-.69a5.24 5.24 0 011.22-.54 2.1 2.1 0 01.94-.16c.28.06.47.31.66.45zM124.74 60.67a2.18 2.18 0 01-.82.44 1.57 1.57 0 01-1-.26 3.4 3.4 0 01-1-1.1c-.11-.22.15-.53.24-.81.39.06 1.06.07 1.11.19a1.8 1.8 0 001.09 1c.18.11.21.3.38.54zM159.28 59.5c.23.2.61.41.7.66s-1.32 1.05-2.31 1c-.37 0-1-.43-1-.64.16-1 1.55-.69 2.61-1.02zM104.56 75.59c-1 0-1.86-.12-1.34-1 .06-.11-.28-.3-.35-.47a9 9 0 01-.31-1l1.1-.11c0 .32.11.64.14 1 0 .08-.08.17-.15.3 1.38.17 1.17.78.88 1.41zM126.89 62.54c0 .58-2.59 1.62-3.18 1.37-.22-.09-.48-.32-.47-.47a.79.79 0 01.57-.43 1.72 1.72 0 001.49-.69 1.6 1.6 0 011-.21c.28.04.46.32.59.43zM139.18 61.54c-.69.33-1.33.54-1.71-.16 0-.09-.13-.2-.08-.25s.37-.46.53-.45c1 .06 2 .16 2.94.31.12 0 .22.38.16.55-.21.61-.79.62-1.84 0zM150.85 51.49c-.38.28-.54.49-.78.55a1.45 1.45 0 01-.86-.08 10.39 10.39 0 01-1.54-1.1.46.46 0 010-.56 1.29 1.29 0 01.66-.32c.83.47 1.67 1.02 2.52 1.51zM189.67 62.77a1.19 1.19 0 01-.59-.05 2.06 2.06 0 01-.52-.69 3.36 3.36 0 011.2-.24 5.93 5.93 0 011.72.74.87.87 0 01.36.75c0 .14-.63.39-.76.34a8.13 8.13 0 01-1.41-.85zM165.35 52.17c-.23-.28-.7-.59-.63-.83a3.73 3.73 0 01.93-1.31 1.28 1.28 0 01.87-.19c.3.12.7.45.63.6a9.78 9.78 0 01-1.1 1.55c-.05.07-.3.08-.7.18zM192 59.63c.06.19.2.37.12.47a7.46 7.46 0 01-.77.7c-.29-.15-.81-.31-.8-.46s.32-.52.57-.76a8.51 8.51 0 01.74-.44 3.59 3.59 0 011-.6c.18 0 .58.32.88.51l-1.18.52a2.93 2.93 0 01-.56.06zM175.36 60.8c.42-.11.83-.24 1.26-.33s.81-.17.9-.09a.94.94 0 01.39.76c0 .15-.55.3-.89.36a11.45 11.45 0 01-1.56.12 3.31 3.31 0 01-1.07-.13c-.16-.07-.24-.43-.11-.54a3.35 3.35 0 01.89-.4 2.35 2.35 0 00.19.25zM180.24 51.94c.87-.73 2.08-.29 3.07-.27.71 0 .6.78 0 .95a6.4 6.4 0 01-2.36.11c-.3 0-.47-.56-.69-.85zM90.42 87.09c.21.17.59.35.64.56a.74.74 0 01-.46.63 10.41 10.41 0 01-2.06.57 1.3 1.3 0 01-.93-.29c-.11-.16.09-.53.33-.65.6-.29 1.3-.49 2-.73a5.06 5.06 0 01.48-.09zM165.25 60.59c-.58.19-1.28.61-1.7.51a2.39 2.39 0 01-1.24-1.1c-.07-.1.66-.64.83-.6a16.84 16.84 0 012.14.73zM113.16 89.76a3.24 3.24 0 01-.5-.57c-.1-.2-.19-.46-.07-.62a1.17 1.17 0 01.8-.19 1.32 1.32 0 01.77.39 2.35 2.35 0 01.47 1 .83.83 0 01-.25.71 1.13 1.13 0 01-.81.14 3.71 3.71 0 01-.76-.72zM188.05 59.49c-.33.15-.65.41-.91.39a2 2 0 01-1-.44 1.81 1.81 0 01-.49-.66 1.6 1.6 0 01-.27-.85c0-.12.65-.34.79-.29.33.14.77.43.75.63-.06.4.11.56.63.69.21.04.28.28.5.53zM154 95.16a3.36 3.36 0 01-.74.19 4.76 4.76 0 01-1.2-.07c-.15 0-.33-.38-.26-.43a4.21 4.21 0 011-.44 5.47 5.47 0 011-.13 3.3 3.3 0 011.15-.06c.22.08.37.51.23.67s-.66.34-1 .51zM150.67 57.67a3.07 3.07 0 01-1-.34.46.46 0 01.11-.61 2.86 2.86 0 011.08-.09 5.83 5.83 0 011.2.1 2 2 0 011 .43c.12.16-.06.55-.3.67a2.29 2.29 0 01-1-.08 9.37 9.37 0 01-.9-.28c-.08.06-.13.13-.19.2zM163.84 57.51l-1.69.14v-.78l1.6.07 1.65-.49c.08.29.17.58.26.86l-1.6.19zM118.64 91.85c-.32-.19-.73-.32-.76-.48a.9.9 0 01.31-.77 4.38 4.38 0 011.22-.63 1.55 1.55 0 01.89-.06c.26.14.54.55.44.63-.61.46-1.32.84-2.1 1.31zM171.35 99.11c-.43.37-.61.67-.91.74a2 2 0 01-1-.24 7.08 7.08 0 01-1.1-.69c-.19-.14-.48-.37-.41-.49a1.25 1.25 0 01.7-.43c.89.32 1.73.69 2.72 1.11zM158.5 51.5a2.06 2.06 0 01-.8.38 1.26 1.26 0 01-.85-.39 2.12 2.12 0 01-.36-1.19c0-.23.41-.45.64-.68.33.15.84.25 1 .45a5.57 5.57 0 01.37 1.43zM226.86 84.19a3 3 0 00-.4-.67c-.19-.19-.54-.32-.72-.51a4.55 4.55 0 01-.48-.78c.43-.06 1-.28 1.26-.17A5.12 5.12 0 01228 83c.42.39 0 .86-.71.87zM177.23 90.83c-1.32 0-2.73-.59-2.56-1a1.91 1.91 0 01.91-.57c.71.37 2.11 0 2.27.9.03.24-.45.5-.62.67zM181 93.17c-.13.22-.14.3-.2.33-.26.13-.65.4-.8.35a16.8 16.8 0 01-2.34-.94c-.11-.06.08-.42.17-.63a.47.47 0 01.3-.14c1 .33 1.97.69 2.87 1.03zM160.63 94.12a16.41 16.41 0 012.39.17.78.78 0 01.47.77c0 .15-.64.36-1 .35a6.32 6.32 0 01-1.7-.32c-.3-.09-.63-.36-.63-.56s.42-.37.47-.41zM176.14 51.18c-1.11.43-1.94.77-2.82 1-.08 0-.47-.4-.72-.61.8-.37 1.59-.77 2.44-1.1a6 6 0 011.1.71zM145.33 100.14c-.21-.17-.51-.32-.59-.51a.59.59 0 01.15-.63 5.18 5.18 0 011.42-.75 1.69 1.69 0 011.05.06.5.5 0 01.07.68 10.44 10.44 0 01-1.5 1 3.3 3.3 0 01-.6.15zM197.13 90.63l-1.3.75a11.49 11.49 0 01-1.34-1.48c-.08-.11.51-.43.79-.65zM121.21 63.55a17.16 17.16 0 01-1.56 1.45 1.42 1.42 0 01-.89-.12.63.63 0 01-.14-.71 4 4 0 011-1 1.39 1.39 0 01.87-.21c.3.12.51.39.72.59zM144.62 57.52l-2.86.93c-.14-.24-.5-.63-.38-.71a9.62 9.62 0 012-1c.11-.03.62.39 1.24.78zM135.44 94.28c-.25-.09-.53-.12-.61-.22s-.28-.49-.17-.54a17.9 17.9 0 012.21-1c.1 0 .56.23.71.4a.35.35 0 01-.05.48c-.66.29-1.38.6-2.09.88zM113.92 64.22c.65-.25 1.43-.33 1.65.2a2.68 2.68 0 01-.15 1.59 1.28 1.28 0 01-.8.1 1.11 1.11 0 01-.65-.58 6.17 6.17 0 01-.05-1.31zM138 91.06c-.19-.15-.58-.35-.7-.6s.46-.43.78-.48c.74-.11 1.52-.11 2.28-.16-.14.33-.14.78-.47 1a7.35 7.35 0 01-1.89.24zM197.19 64a6.94 6.94 0 01-1.18.56c-.42.1-1.84-1-1.73-1.38.06-.21.52-.37.79-.56zM97 90.52a5.33 5.33 0 01.69 1.11c.08.29-.11.62-.18.93a4 4 0 01-1.29-.34c-1.18-1-1-1.33.81-1.67zM172.83 95.32c-.39-.35-.89-.71-.83-.75.56-.44 1.21-.83 1.84-1.23.29.21.89.58.84.62a20.39 20.39 0 01-1.85 1.36zM143.65 94.61c-.22.27-.28.48-.47.56-1.09.46-1.41-.47-2.2-.61-.08 0 0-.56.1-.84a1.21 1.21 0 01.77-.16c.63.32 1.2.69 1.8 1.05zM100.63 88.75l-1-.83a21 21 0 012-.94c.11 0 .59.36.9.56zM153.11 60.7a5.51 5.51 0 01-1.33.6 7.67 7.67 0 01-1.61-1.12 3 3 0 01.81-.59c.67.28 1.26.64 2.13 1.11zM174.18 57.76c-.62.25-1.17.59-1.32.52a5.75 5.75 0 01-1.57-1.05c-.06-.06.57-.45.89-.69zM219.32 90.48l-1.9 1.43c-.28-.22-.85-.53-.78-.64A5 5 0 01218 90a7.73 7.73 0 011.32.48zM133.88 58.28l-1.43 1.28c-.27-.19-.82-.48-.76-.55.36-.47-.3-1.32 1.05-1.38.31-.01.65.37 1.14.65zM111.21 89.35l-1.33.6a11.57 11.57 0 01-1.19-1.25c0-.07.74-.51.78-.49a20.11 20.11 0 011.74 1.14zM212.9 86c1.46.17 1.87.75 1 1.49a1.63 1.63 0 01-1.08.28.86.86 0 01-.49-.77 3.41 3.41 0 01.62-1zM180.28 95.93c.47.42 1 .75.95.88a6.57 6.57 0 01-1.23 1.13c-.29-.22-.88-.5-.82-.67a6.38 6.38 0 011.1-1.34zM127.69 96.53a16.79 16.79 0 01-1.82 1A3.16 3.16 0 01125 97a6.4 6.4 0 011.46-1 5.63 5.63 0 011.23.53zM190.91 96.43a7.39 7.39 0 01-1.2.61 18.3 18.3 0 01-1.59-1.04c.32-.17.78-.53.93-.48a14.59 14.59 0 011.86.91zM136.74 97.74a7.46 7.46 0 01-1.3.54 9.27 9.27 0 01-1.27-1c.36-.17.89-.54 1.05-.48a7.93 7.93 0 011.52.94zM209.08 87.57l-1.08-.79a5.65 5.65 0 011.31-.69c.17 0 .94.42.88.54-.14.3-.59.53-1.11.94zM205 87.33c.51.51.94.79 1 1.12.06.16-.49.41-.76.62a4.74 4.74 0 01-1.07-.86c-.07-.13.38-.42.83-.88zM157.58 56.06c.51.43 1.07.74 1 .87a4.77 4.77 0 01-1.07.85c-.3-.18-.89-.39-.84-.53.09-.34.47-.66.91-1.19zM105.79 88.26c-.45-.39-.93-.62-.92-.83s.51-.45.79-.67c.35.22.87.39 1 .66s-.44.44-.87.84z"/><path class="cls-4" d="M180.24 51.94l.06-.06a3.9 3.9 0 01-1.13.18 1.78 1.78 0 01-1.06-.48c-.1-.15.29-.56.59-.66a1.76 1.76 0 011 .32 2.37 2.37 0 01.54.7zM190.4 45h.08-.13c-.77.15-1.57.22-1.75-.46 0-.19.51-.66.76-.64.91.1 1.17.55 1.04 1.1zM130.28 90.4c.47.41.95.64.93.86s-.52.44-.81.65c-.33-.19-.86-.36-.92-.59s.4-.48.8-.92zM149.1 87.35c-.43-.41-.9-.66-.88-.89s.59-.55.89-.54a1.11 1.11 0 01.83.59c.06.22-.44.49-.84.84zM264.84 68c-.6.3-1 .62-1.31.61s-.83-.39-.82-.59.54-.54.88-.57.69.26 1.25.55zM102.25 68.74c-.63.28-1 .58-1.34.56s-.88-.4-.84-.58.55-.55.9-.58.67.3 1.28.6zM306.33 86.63c-.37-.36-.83-.63-.75-.77s.6-.47.93-.69c.29.23.79.45.8.69s-.51.42-.98.77zM272.06 73.84c-.6.3-1 .62-1.31.61s-.82-.39-.81-.6.53-.54.87-.56.69.29 1.25.55zM186 61.42c.45.41.93.66.89.86s-.56.44-.87.66c-.3-.21-.81-.4-.85-.62s.37-.47.83-.9zM273.89 101.8c-.32.14-.68.43-.95.39a3 3 0 01-1-.53c.34-.23.64-.58 1-.63a3.39 3.39 0 011.25.37zM95.44 78.46c-.36-.4-.79-.67-.73-.89a1.17 1.17 0 01.9-.54c.3 0 .82.38.81.59s-.5.46-.98.84zM294.34 85.87a4.57 4.57 0 01-1.35.5c-.28 0-.84-.41-.79-.49a1.55 1.55 0 01.92-.67c.25-.04.66.34 1.22.66zM199.18 59.11c.39.44.84.71.78.91s-.61.4-1 .6c-.28-.22-.76-.44-.78-.67s.53-.44 1-.84zM291.92 62.82c-.61.3-1 .62-1.28.61s-.65-.35-1-.54c.3-.22.57-.57.92-.62s.73.27 1.36.55zM196.41 82.22c-.61.29-1 .62-1.29.59s-.84-.37-.88-.6.52-.54.86-.57.69.29 1.31.58zM274.54 54.4a4.63 4.63 0 01-1.34.5c-.28 0-.85-.4-.79-.49a1.54 1.54 0 01.91-.67c.24-.04.68.34 1.22.66zM121.24 71.57c-.43-.42-.89-.67-.85-.89s.54-.42.84-.63c.31.21.82.4.88.64s-.43.46-.87.88zM219.09 85.22c-.6.3-1 .62-1.31.61s-.82-.39-.81-.6.53-.54.87-.56.69.33 1.25.55zM285.78 88.8c.43.42.89.67.86.88s-.54.43-.84.63c-.31-.21-.82-.4-.88-.64s.42-.46.86-.87zM199.29 46.31c.47.4 1 .63.94.84s-.5.45-.78.67c-.33-.2-.86-.36-.94-.6s.38-.48.78-.91zM273.85 64.41c-.47-.38-1-.61-1-.84s.53-.42.83-.63c.31.2.84.37.89.6s-.36.46-.72.87zM258.38 75.67c-.32.14-.69.43-.95.39a3.19 3.19 0 01-1-.54c.34-.22.65-.58 1-.63a3.84 3.84 0 011.24.37c-.07.14-.18.27-.29.41zM199.24 95.06c.47.39 1 .61 1 .84s-.52.42-.81.64c-.32-.2-.85-.37-.91-.59s.36-.48.72-.89zM228 69.75c-.44-.36-1-.6-.93-.8s.53-.45.82-.67c.32.23.77.43.91.71s-.42.4-.8.76zM221.87 93.93c-.46-.36-1-.58-1-.79s.52-.46.81-.68c.33.22.78.42.92.69s-.35.41-.73.78zM239 56.52a4.53 4.53 0 01-1.32.51c-.28 0-.86-.39-.81-.47a1.55 1.55 0 01.9-.69c.23-.04.62.33 1.23.65zM263.36 73.52c-.46-.4-.94-.64-.92-.85s.51-.44.79-.66c.33.2.85.37.93.61s-.39.47-.8.9zM192.15 83.18c-.55.33-.94.72-1.19.68a1.57 1.57 0 01-1-.64c-.06-.09.49-.51.76-.51a5 5 0 011.43.47zM148 95.39c-.44-.42-.91-.66-.88-.87s.53-.43.82-.64c.32.2.83.39.9.62s-.4.5-.84.89zM249.48 95c-.49-.34-1-.55-1-.76s.49-.47.77-.71c.33.22.79.41 1 .68s-.42.41-.77.79zM225.78 67.21c-.59.23-1 .52-1.31.49s-.82-.4-.81-.61.57-.56.87-.55.68.35 1.25.67zM134.7 61.07c.4.43.84.69.79.91s-.57.4-.89.6c-.29-.22-.79-.43-.83-.67s.46-.44.93-.84zM88.85 82.4c.45.41.93.66.89.86s-.56.44-.86.65c-.31-.2-.82-.39-.86-.61s.41-.47.83-.9zM244.05 73.14c-.63.31-1 .63-1.32.6a1.2 1.2 0 01-.87-.62c-.05-.15.52-.53.83-.54s.71.28 1.36.56zM250.89 73.22c-.6.24-1 .54-1.35.51a1 1 0 01-.73-.65c0-.17.58-.53.84-.5s.69.34 1.24.64zM283.35 74.39c-.38-.44-.77-.7-.76-.94s.61-.55.83-.51.85.37.87.58-.48.48-.94.87zM136.41 72.83c.34.43.71.69.68.93s-.65.56-.82.52c-.38-.1-.87-.39-.88-.62s.51-.45 1.02-.83zM174 74.75c-.44-.37-.91-.6-.87-.77s.48-.49.75-.73c.32.2.85.37.9.6s-.36.48-.78.9zM253.79 73.93c-.65.27-1.06.56-1.38.52a1.07 1.07 0 01-.79-.63c0-.16.56-.52.84-.51s.71.31 1.33.62zM140.78 73.39c.36.38.77.62.76.86s-.5.4-.77.6c-.33-.24-.79-.45-.93-.73-.07-.12.48-.39.94-.73zM145.3 73.72c.42.37.92.62.88.82s-.55.44-.86.66c-.3-.22-.77-.42-.85-.67s.41-.43.83-.81zM150 73.9c.5.38 1 .61 1 .82s-.5.52-.88.62a1.16 1.16 0 01-.82-.5c-.05-.24.33-.51.7-.94zM89.73 74.77c.4.41.86.67.82.89s-.57.41-.89.61c-.27-.24-.7-.45-.77-.71s.41-.41.84-.79zM104.53 75.62a4.54 4.54 0 011.16.32c.21.13.37.51.23.64a1.65 1.65 0 01-1 .34.87.87 0 01-.59-.59c0-.23.16-.49.25-.74zM292.08 77.65c-.33.13-.69.39-1 .36a2.66 2.66 0 01-1-.49c.34-.23.64-.61 1-.67a3.8 3.8 0 011.3.34zM206.47 78.54a4.25 4.25 0 01-1.36.53c-.29 0-.84-.4-.79-.53a1.24 1.24 0 01.88-.62c.29-.03.67.31 1.27.62zM234.73 80.07c-.45-.42-.94-.68-.9-.89s.59-.49 1-.55c.18 0 .74.36.74.57s-.44.47-.84.87zM218.21 79.41c.49.39 1 .63 1 .84s-.53.52-.91.6c-.17 0-.78-.32-.8-.52s.36-.5.71-.92zM96.31 80.1c.52.39 1 .62 1 .84s-.49.52-.86.62c-.17 0-.8-.3-.83-.49s.38-.52.69-.97zM287 81.14c-.61.3-1 .62-1.29.6a1.17 1.17 0 01-.88-.58c0-.16.48-.56.77-.56a4.75 4.75 0 011.4.54zM88 82.21c-.38-.41-.79-.66-.78-.9s.59-.58.77-.55c.38.07.9.35.94.57s-.48.47-.93.88zM310.63 82.4c-.42-.41-.88-.67-.84-.88s.56-.42.87-.62c.28.23.71.44.79.7s-.4.4-.82.8zM187.53 84.07c-.57.33-.91.69-1.24.68a1.22 1.22 0 01-.89-.6c-.06-.13.47-.53.77-.55a4.55 4.55 0 011.36.47zM223.17 37.61c.43.4.9.65.87.87s-.55.42-.85.63c-.29-.23-.72-.43-.81-.69s.39-.42.79-.81zM128.08 83.68c.4.37.86.61.8.78s-.53.46-.82.69c-.32-.22-.84-.41-.89-.65s.47-.45.91-.82zM280 84.7c-.61.3-1 .62-1.29.6a1.16 1.16 0 01-.87-.58c0-.17.48-.56.76-.57a4.38 4.38 0 011.4.55zM134.24 85.24c-.61.29-1 .62-1.31.58a1.22 1.22 0 01-.85-.64c0-.13.54-.51.83-.51s.71.33 1.33.57zM212.93 86a2.35 2.35 0 01-.75-.1 9 9 0 01-1-.79l1-.44a8.53 8.53 0 01.64.88c.07.14 0 .32 0 .48zM139.45 85.73c-.62.32-1 .66-1.29.63a1.23 1.23 0 01-.9-.6c-.06-.14.49-.53.8-.55a4.45 4.45 0 011.39.52zM96.91 86c-.64.28-1.07.61-1.34.56a1.15 1.15 0 01-.79-.67c0-.14.54-.51.8-.49a4.54 4.54 0 011.33.6zM167.37 86.29c-.6.31-1 .63-1.28.61a1.2 1.2 0 01-.88-.58c0-.17.48-.56.76-.57a4.56 4.56 0 011.4.54zM271.54 88.16a4.65 4.65 0 01-1.32.52c-.3 0-.87-.39-.82-.52a1.19 1.19 0 01.84-.64c.32-.02.7.32 1.3.64zM243.88 88.12c.37.41.78.66.76.9s-.59.58-.78.54c-.38-.07-.9-.35-.93-.58s.48-.46.95-.86zM126.58 89.63c-.08.17-.08.41-.25.48a2.34 2.34 0 01-1.16.26c-.22 0-.51-.6-.4-.66a3.28 3.28 0 011.25-.37c.15 0 .38.19.57.29zM300.59 89.18c.37.41.78.66.77.9s-.6.58-.78.55c-.38-.08-.91-.35-.94-.58s.48-.46.95-.87zM106.75 91c-.59.33-1 .68-1.28.66a1.21 1.21 0 01-.86-.63c0-.13.5-.52.8-.53a4.54 4.54 0 011.34.5zM201.27 92.56c-.45-.43-.94-.69-.89-.89s.58-.43.9-.64c.29.2.8.39.82.6s-.41.48-.83.93zM114.11 91.46c.4.45.84.72.78.93s-.6.4-.92.59c-.26-.19-.74-.4-.73-.58s.43-.49.87-.94zM205.07 94a2.33 2.33 0 01-.63.24c-.45 0-.9 0-1.35-.07.09-.29.17-.57.26-.85a8.53 8.53 0 011.26.27c.2.07.28.28.42.43zM294.23 94.13a4.2 4.2 0 01-1.29.59c-.26 0-.84-.37-.8-.52a1.07 1.07 0 01.79-.64c.34-.01.73.3 1.3.57zM167.07 95.24c-.17-.27-.55-.56-.48-.79s.57-.5.88-.75c.29.19.8.36.82.56s-.37.51-.58.76z"/><path class="cls-4" d="M205 94a2.27 2.27 0 01.86-.08 5 5 0 011 .68l-1 .53a6.88 6.88 0 01-.73-.68c-.1-.13 0-.31 0-.47zM113.62 95.72c-.42-.43-.88-.69-.84-.91s.56-.5.93-.54.78.35.77.54-.48.49-.86.91zM197.29 94c.42.4.84.63.87.88s-.52.58-.71.55c-.39-.05-.95-.3-1-.51s.43-.5.84-.92zM171.48 96.68c.39.36.82.59.83.83s-.47.42-.73.62c-.35-.22-.81-.41-1-.69-.05-.12.47-.44.9-.76zM165.1 98.75c-.37-.44-.77-.7-.75-1s.61-.54.83-.51.85.37.86.59-.47.51-.94.92zM186 98.78c-.45-.43-.94-.69-.88-.89s.57-.42.89-.63c.29.2.8.39.82.6s-.38.48-.83.92zM177 98.43c-.26.08-.6.27-.78.22a1.88 1.88 0 01-1-.56c-.08-.14.35-.56.63-.6a1.78 1.78 0 011 .36c.16.12.07.39.09.6zM226 45.91c-.39-.41-.79-.66-.8-.92s.57-.54.78-.5c.37 0 .9.34.92.55s-.48.48-.9.87zM129.6 99.31c-.42-.45-.82-.7-.84-1s.47-.38.74-.57c.32.19.85.37.9.59s-.4.53-.8.98zM254.92 99c.4.37.85.6.81.79s-.5.45-.78.68c-.33-.21-.88-.39-.92-.62s.46-.49.89-.85zM211.74 99.7c.46.38 1 .61 1 .84s-.51.52-.87.58-.83-.3-.83-.48.34-.51.7-.94zM196.92 101.23c.46.43.94.69.89.89s-.57.42-.89.63c-.29-.19-.8-.38-.82-.59s.4-.49.82-.93zM182.76 103.08c-.51.32-.83.69-1.15.69s-.66-.36-1-.57c.31-.2.57-.52.94-.58s.67.24 1.21.46zM151.22 103.92c-.64.29-1.05.62-1.33.58a1.18 1.18 0 01-.8-.66c-.05-.14.52-.52.78-.51a4.74 4.74 0 011.35.59zM216.44 106.67c-.49.3-.81.65-1.16.66s-.86-.34-.88-.55.48-.54.83-.6.68.26 1.21.49zM208.31 48.33c-.65.26-1.06.56-1.37.52a1.08 1.08 0 01-.8-.63c0-.16.55-.52.84-.52s.7.3 1.33.63zM150.78 110.23c-.55.31-.9.66-1.24.65s-.62-.39-.92-.6a3 3 0 011-.55c.26-.04.63.27 1.16.5zM238.81 47.78c.44.39.93.64.91.87s-.54.5-.9.56-.81-.33-.8-.5.4-.51.79-.93zM218.61 111.57c.44.4.91.65.88.86s-.54.43-.84.64c-.29-.22-.73-.43-.81-.69s.37-.38.77-.81zM98.66 113.41a4.78 4.78 0 01-1.38.51c-.29 0-.82-.41-.77-.55a1.3 1.3 0 01.9-.61c.29-.02.66.33 1.25.65zM132.7 115.78c-.61.31-1 .65-1.31.62a1.17 1.17 0 01-.83-.65c0-.13.53-.5.83-.5s.72.27 1.31.53zM167 116.87c-.41-.38-.9-.63-.86-.83s.57-.44.88-.65c.3.23.76.43.84.68s-.43.42-.86.8zM171.94 50.72c-.61.29-1 .63-1.32.6a1.17 1.17 0 01-.82-.65c-.05-.13.53-.5.81-.5a4.44 4.44 0 011.33.55zM244.34 49.91c.37.41.79.68.75.92s-.58.36-.91.55c-.26-.24-.69-.46-.72-.71s.45-.41.88-.76zM234 54.48c-.6.29-1 .59-1.3.59s-.9-.36-.85-.49a1.17 1.17 0 01.82-.66c.33-.05.73.28 1.33.56zM190.43 55.79c-.59.25-1 .55-1.34.52a1 1 0 01-.74-.66c0-.16.58-.52.83-.5a4.21 4.21 0 011.25.64zM147.15 58.42c-.41-.44-.83-.7-.81-.93s.53-.4.83-.59c.32.21.83.4.89.64s-.45.46-.91.88zM243.18 58.67a4.28 4.28 0 01-1.34.49c-.3 0-.85-.39-.8-.53a1.27 1.27 0 01.87-.62c.32-.01.68.33 1.27.66zM221.46 57.91c.43.41.91.67.88.9s-.57.48-1 .53c-.2 0-.77-.35-.76-.52s.48-.5.88-.91zM117.47 60.46c-.51.3-.84.64-1.19.65s-.85-.36-.87-.57.51-.53.86-.58.66.26 1.2.5zM257.54 61.44c-.37-.47-.78-.76-.71-1s.63-.37 1-.55c.24.2.69.43.66.62s-.49.49-.95.93zM246.66 60.78c-.58.33-.92.69-1.25.68a1.25 1.25 0 01-.89-.6c-.06-.13.47-.53.77-.55a4.68 4.68 0 011.37.47zM198.64 61.27c.51.39 1.05.61 1 .83s-.5.52-.88.62c-.17 0-.79-.31-.82-.51s.37-.51.7-.94zM116.24 61.78c.37.42.78.67.71.85s-.54.44-.84.66c-.29-.22-.79-.43-.8-.66s.46-.45.93-.85zM129.25 61.81c.42.37.92.62.88.82s-.55.44-.86.66c-.3-.22-.77-.42-.85-.68s.41-.42.83-.8zM248 62.33c.45.42.94.68.9.9s-.58.48-1 .55c-.18 0-.74-.36-.74-.56s.44-.48.84-.89zM259.94 63.22c-.63.27-1.06.59-1.36.55a1.1 1.1 0 01-.76-.69c0-.13.57-.48.86-.46s.69.31 1.26.6zM267 65.1c-.61.31-1 .66-1.31.63a1.19 1.19 0 01-.84-.64c0-.14.53-.51.83-.52a4.74 4.74 0 011.32.53zM260 65.88c-.62.28-1 .61-1.32.56a1.24 1.24 0 01-.84-.65c0-.13.55-.5.85-.5s.67.3 1.31.59zM236.71 66.49c.61-.33.93-.63 1.3-.65s.88.34.85.5a1 1 0 01-.76.65c-.31.01-.74-.25-1.39-.5zM215.52 68.12c-.54.23-.94.52-1.17.47s-.86-.39-.86-.6.57-.57.88-.56.63.36 1.15.69zM241.61 68.62c-.52.25-.9.54-1.16.5a2.74 2.74 0 01-1-.55c.32-.21.62-.58.95-.59s.69.34 1.21.64zM257.52 69.4c-.34-.43-.72-.69-.69-.93s.64-.56.81-.52c.38.1.87.39.89.62s-.53.43-1.01.83zM229.78 40.14c.59-.3.92-.6 1.3-.63s.85.34.83.5a1 1 0 01-.74.66c-.33.03-.75-.27-1.39-.53zM195.69 70.1c-.39-.38-.84-.62-.79-.81s.51-.44.8-.66c.32.21.87.4.9.63s-.47.46-.91.84zM219.24 69.6c-.61.28-1 .57-1.34.58s-.82-.36-.79-.52a1.08 1.08 0 01.79-.63c.34-.03.73.29 1.34.57zM287.21 69.11c.42.39.92.64.88.86s-.59.41-.92.61c-.28-.23-.72-.44-.78-.68s.42-.42.82-.79zM214.12 71.22c-.46-.42-1-.68-.9-.88s.58-.43.9-.64c.29.2.8.39.82.6s-.4.48-.82.92zM250.55 71.51c-.37-.42-.76-.68-.76-.94s.6-.52.82-.48.87.36.88.57-.49.47-.94.85zM277.06 70.71c-.67.26-1.06.54-1.42.52s-.8-.41-.74-.57a1.18 1.18 0 01.89-.57c.31-.02.67.31 1.27.62zM128.18 73.32c-.44-.41-.92-.66-.9-.89s.54-.51.91-.56c.21 0 .78.34.79.53s-.41.5-.8.92zM97.44 72.6a4.81 4.81 0 011.37-.6c.26 0 .8.38.76.52a1.2 1.2 0 01-.82.65c-.29.07-.69-.26-1.31-.57zM236.05 77.05c-.51.29-1 .65-1.09.61a4.35 4.35 0 01-1-.66c.3-.18.61-.51.9-.51s.67.3 1.19.56zM183.18 58.09c0-.2-.13-.41-.05-.58a4.86 4.86 0 01.61-.78l1.07.4a5 5 0 01-.79.8 2.72 2.72 0 01-.88.13zM306.47 73.84c-.54.29-.93.64-1.2.6s-.6-.41-.88-.63a3 3 0 011-.52c.25-.03.61.28 1.08.55zM183.81 93.82c-.48.26-.83.58-1.07.55a3.19 3.19 0 01-1-.52c.28-.23.54-.6.86-.63s.68.32 1.21.6zM151.31 92.66c.07.19.27.41.19.57a4.18 4.18 0 01-.73.81c-.3-.18-.84-.35-.84-.54s.38-.49.68-.68c.15-.11.48-.09.73-.14zM238.28 84.23c.42.35.9.57.86.75s-.49.46-.76.7c-.33-.2-.89-.37-.94-.59s.44-.47.84-.86zM278.22 93.29a4.62 4.62 0 01-1.28.55c-.27 0-.82-.36-.78-.5a1.08 1.08 0 01.76-.66c.31-.03.7.32 1.3.61zM260.18 71.71c-.4-.42-.86-.7-.8-.91s.6-.47 1-.53c.18 0 .73.38.71.57s-.47.47-.91.87zM274.63 56.44c.39.44.79.69.78.93s-.5.39-.78.59c-.31-.21-.82-.4-.86-.62s.43-.47.86-.9zM206.39 92.05c.35.42.72.67.72.93s-.6.54-.77.5c-.36-.08-.86-.37-.87-.58s.47-.46.92-.85zM313.07 76.35c.43.43.85.66.86.9s-.46.41-.71.61c-.33-.19-.86-.35-.92-.58s.38-.48.77-.93zM255.52 57c.47.41 1 .65.94.87s-.53.42-.82.63c-.29-.19-.79-.36-.81-.56s.34-.51.69-.94zM254.25 85.47c.45.36 1 .63.9.76s-.6.47-.93.71c-.26-.21-.73-.41-.73-.61s.4-.48.76-.86zM171.52 86.86c-.37-.46-.79-.73-.73-.94s.6-.39.93-.57c.25.21.71.42.69.62s-.41.47-.89.89zM178.51 74.17c-.46-.34-1-.59-.95-.72.13-.28.57-.49.89-.73.27.19.76.38.77.58s-.37.49-.71.87zM142.34 91.88c-.51.25-.88.56-1.14.53s-.86-.36-.86-.57.52-.59.81-.58.68.33 1.19.62zM196.39 61.1c-.49.27-.83.59-1.08.56a3 3 0 01-1-.53c.29-.22.55-.59.87-.62s.68.31 1.21.59zM100.92 70.13c.44.42.86.65.87.89s-.46.42-.72.62c-.32-.19-.85-.36-.91-.58s.37-.48.76-.93zM109.28 79.91c-.42-.42-.89-.69-.83-.88s.6-.41.93-.61c.28.21.76.41.76.62s-.43.46-.86.87zM117.83 88.61c-.48.28-.81.62-1.07.6a3.11 3.11 0 01-1.06-.5c.29-.23.53-.61.86-.65s.72.3 1.27.55zM212.2 42c-.61.29-.95.58-1.31.59s-.82-.36-.79-.52a1.08 1.08 0 01.79-.64c.29 0 .69.32 1.31.57zM161.61 86.53c-.49.26-.83.58-1.08.55a3.3 3.3 0 01-1-.52c.29-.23.55-.6.87-.63s.68.32 1.21.6zM261.45 91.49c-.34.14-.75.43-1 .38s-.8-.4-.79-.61.56-.53.89-.54a4.26 4.26 0 011.28.36zM219.11 42.54c.17.26.53.56.45.79s-.54.51-.83.75c-.29-.18-.8-.35-.82-.54s.34-.51.53-.76zM290.82 66.42c-.5.27-.85.59-1.11.56s-.88-.34-.9-.54.48-.6.77-.61.7.31 1.24.59zM216.34 72.81c-.45-.43-.91-.67-.88-.89s.53-.42.83-.62c.28.18.78.37.8.56s-.37.5-.75.95zM246.26 44a4.55 4.55 0 01-1.35.55c-.29 0-.81-.38-.78-.55a1.09 1.09 0 01.83-.59c.33.01.7.32 1.3.59zM295.08 74.55c-.44-.35-.93-.57-.89-.74s.48-.48.75-.72c.33.2.85.37.91.6s-.39.47-.77.86zM111.31 91.31c-.49.27-.84.59-1.1.56s-.89-.33-.9-.53.47-.61.76-.62.7.28 1.24.59zM271.54 65.72c.39.43.82.71.77.92s-.58.47-.95.53c-.18 0-.72-.38-.7-.56s.45-.48.88-.89zM184.41 45.58c-.51.3-.95.65-1.08.61a4.35 4.35 0 01-1-.66c.3-.18.61-.51.91-.51s.66.3 1.17.56zM230.76 70c.39.45.79.7.77.94s-.5.38-.77.58c-.31-.2-.83-.39-.86-.61s.42-.53.86-.91zM205.1 89.71c.42.39.9.63.87.84s-.54.43-.85.64c-.29-.23-.73-.43-.81-.68s.39-.41.79-.8zM140.77 59.3c-.62.29-1 .57-1.32.57s-.81-.37-.77-.53a1.1 1.1 0 01.8-.63c.29-.03.68.29 1.29.59zM255.83 47.72c.43.43.85.67.85.91s-.46.41-.72.61c-.32-.19-.85-.36-.91-.59s.38-.48.78-.93zM266.74 60.15c-.45-.34-.93-.56-.9-.73s.47-.49.73-.73c.33.19.86.36.93.58s-.39.48-.76.88zM97.23 75.81c-.48.28-.8.61-1.07.6a3.29 3.29 0 01-1.06-.5c.28-.23.53-.61.86-.65s.72.29 1.27.55zM271.62 81.12c-.43-.4-.9-.65-.88-.88s.54-.47.91-.55c.16 0 .74.34.74.52s-.39.5-.77.91zM125.79 71.55c-.61.3-1 .59-1.31.59s-.82-.36-.79-.52a1.1 1.1 0 01.79-.64c.29-.04.69.28 1.31.57zM113.23 66.94l-.1.08c.37 0 .87-.15 1.09 0a.84.84 0 01.42.74c0 .12-.57.38-.75.33a1.65 1.65 0 01-.85-.54c-.1-.17.11-.41.19-.61zM227.84 76.65c-.59.32-1 .67-1.23.64a1.26 1.26 0 01-.88-.6c-.06-.14.45-.54.74-.55s.72.25 1.37.51zM219.41 77.77c-.46-.42-.93-.67-.9-.89s.56-.41.87-.61c.27.2.76.38.77.58s-.37.49-.74.92zM87.92 78.54c.4.4.86.66.82.88s-.59.39-.92.58c-.26-.23-.68-.45-.73-.69s.42-.42.83-.77zM94.87 65.36c.37.41.82.69.75.89s-.61.39-1 .59c-.25-.25-.64-.48-.69-.74s.5-.39.94-.74zM314 68c0 .17.08.35 0 .5a6.74 6.74 0 01-.57.86l-1.05-.52a7.62 7.62 0 01.89-.7A2.77 2.77 0 01314 68zM181.9 71.91c.43.44.88.69.84.91s-.56.4-.87.6c-.27-.19-.75-.39-.76-.59s.39-.48.79-.92zM224.77 72.92c-.59.32-.9.62-1.26.64s-.85-.33-.83-.48a1 1 0 01.74-.67c.28-.06.71.25 1.35.51zM299.92 81.9c-.49.27-.83.59-1.08.56a3 3 0 01-1-.53c.29-.22.55-.59.87-.62s.68.32 1.21.59zM180.62 62.48c-.41-.4-.89-.66-.84-.86s.57-.42.89-.63c.27.23.69.44.77.7s-.44.41-.82.79zM246.86 82.33A3.16 3.16 0 01248 82a3.75 3.75 0 011.1.58c-.28.2-.54.56-.83.57a3.24 3.24 0 01-1.11-.42zM132 60.89c.4.44.8.68.79.92s-.49.39-.77.59c-.31-.2-.83-.39-.86-.6s.44-.48.84-.91zM263.56 84.17c-.4-.39-.84-.63-.78-.8s.5-.46.78-.69c.31.21.82.4.87.64s-.43.46-.87.85zM123.49 84.54c-.44-.42-.89-.67-.86-.89s.54-.41.84-.62c.28.19.78.38.79.58s-.38.49-.77.93zM216.07 83.68c-.6.27-1 .58-1.29.54a1 1 0 01-.75-.64c0-.17.53-.53.8-.51s.68.31 1.24.61zM315.28 73.16a3.86 3.86 0 01-1.24.39c-.34 0-.64-.37-1-.57.3-.21.56-.52.92-.58s.64.24 1 .38zM281.73 65c-.42-.43-.83-.66-.84-.9s.47-.41.73-.61c.32.19.86.36.91.57s-.39.48-.8.94zM133.37 73.34a3.94 3.94 0 01-1.24.39c-.34 0-.64-.37-.95-.57.3-.21.55-.52.91-.59s.64.25 1 .39zM93.51 95c-.39-.39-.82-.64-.75-.81s.54-.45.83-.67c.3.22.79.43.82.66s-.41.46-.9.82zM116.27 56c.43.4.9.64.88.86s-.5.5-.86.58c-.2 0-.8-.32-.8-.5s.39-.55.78-.94zM201 93.43c.37.44.75.69.73.93s-.5.38-.78.57c-.31-.2-.84-.39-.86-.6s.41-.47.91-.9zM189.48 70.31c.43.42.85.65.86.89s-.46.41-.72.62c-.32-.19-.87-.35-.92-.57s.38-.49.78-.94zM265.52 57.32c-.44-.36-.9-.58-.86-.76s.45-.48.71-.73c.33.2.85.37.93.61s-.39.47-.78.88zM169.41 73.53c.4.38.84.62.79.8s-.5.46-.78.69c-.31-.21-.82-.4-.87-.64s.45-.46.86-.85zM208.48 94c.41.41.87.67.84.9s-.56.46-.94.53c-.16 0-.72-.36-.7-.54s.41-.49.8-.89zM124.5 55.2c.42.43.83.67.83.91s-.48.4-.74.6c-.32-.19-.85-.37-.9-.59s.4-.48.81-.92zM221.11 70.36c.35.42.72.68.72.94s-.62.53-.78.49c-.37-.09-.86-.37-.87-.58s.48-.47.93-.85zM209.57 55.06c.45.34.94.56.9.73s-.46.49-.73.73c-.33-.19-.86-.36-.92-.59s.38-.48.75-.87zM115 97.29c-.39-.41-.8-.65-.8-.9s.57-.54.81-.52.88.35.89.56-.5.47-.9.86zM237 97.7c-.4-.43-.81-.68-.8-.92s.48-.39.75-.59c.32.2.84.38.88.59s-.39.48-.83.92zM184.24 97.25c-.55.32-.88.67-1.2.67a1.21 1.21 0 01-.86-.58c-.05-.17.44-.56.72-.58a4.36 4.36 0 011.34.49zM164.6 73.73c.42.42.88.68.84.9s-.56.46-.94.54c-.15 0-.71-.36-.7-.55s.42-.49.8-.89zM133.77 97.78c-.52.23-.9.54-1.17.49s-.83-.38-.82-.59.56-.57.84-.56.66.36 1.15.66zM204.3 54.66c-.58.29-1 .61-1.26.59a1.08 1.08 0 01-.79-.63c0-.16.5-.53.78-.53s.69.29 1.27.57zM256.87 71.24c-.63.27-1 .55-1.34.54s-.8-.38-.75-.54a1.11 1.11 0 01.82-.61c.3-.03.67.3 1.27.61zM283.69 98.94c-.42-.44-.86-.7-.82-.91s.57-.4.88-.6c.27.2.75.4.75.6s-.4.48-.81.91zM159.79 75.64c-.41-.38-.86-.62-.81-.79s.49-.47.76-.71c.32.21.83.4.89.64s-.43.46-.84.86zM263.24 54.68c-.41-.44-.81-.68-.81-.92s.49-.4.76-.6c.31.2.84.38.88.6s-.41.48-.83.92zM248.93 54c-.43-.43-.88-.69-.84-.91s.56-.4.87-.6c.27.2.76.39.77.59s-.4.45-.8.92zM90.85 99.84c-.64.28-1.07.6-1.35.55a1.13 1.13 0 01-.76-.68c0-.13.57-.48.84-.47a4.56 4.56 0 011.27.6zM225.27 75.64c-.38-.4-.8-.64-.74-.82s.51-.45.8-.68c.3.22.8.42.84.66s-.45.45-.9.84zM228.38 52.75a4.43 4.43 0 01-1.29.54c-.28 0-.8-.38-.76-.54a1.07 1.07 0 01.81-.61c.3-.02.67.31 1.24.61zM297.6 70.85c-.49-.41-1-.64-1-.87s.51-.42.8-.64c.29.18.8.35.83.54s-.3.51-.63.97zM221 52c-.43-.42-.84-.65-.87-.9s.53-.58.71-.55c.37.06.89.31.94.53s-.42.47-.78.92zM199.49 68.18c-.59.29-1 .61-1.28.58a1.09 1.09 0 01-.78-.63c0-.17.52-.54.79-.53s.69.3 1.27.58zM118.68 103.54c-.4-.39-.87-.65-.82-.85s.56-.42.88-.62c.28.23.71.44.79.7s-.42.4-.85.77zM243.07 102.63c-.53.29-.91.65-1.19.62s-.6-.41-.9-.63a3 3 0 011-.53c.24-.04.59.28 1.09.54zM135.42 103.61c-.64.27-1.06.58-1.34.53a1 1 0 01-.75-.66c0-.16.55-.51.82-.5s.68.32 1.27.63zM165.7 102.88c.47.39 1 .64.94.85s-.52.51-.9.59c-.18 0-.79-.32-.8-.51s.39-.5.76-.93zM231.46 104.66a4.38 4.38 0 01-1.35.55c-.27 0-.79-.39-.74-.55a1.11 1.11 0 01.82-.61c.3-.05.67.31 1.27.61zM260.62 104.1c.36.44.75.69.73.93s-.5.38-.78.57c-.31-.2-.85-.39-.86-.61s.45-.47.91-.89zM220.17 75.17a4.59 4.59 0 01-1.29.53c-.27 0-.81-.36-.77-.5a1.12 1.12 0 01.77-.66c.32-.02.7.32 1.29.63zM100.59 108.55c-.41-.44-.81-.68-.81-.92s.49-.4.76-.6c.31.2.84.38.88.6s-.42.48-.83.92zM247.18 107.09c.17.27.55.56.48.78s-.55.5-.85.75c-.29-.18-.79-.35-.81-.55s.34-.5.54-.76zM199.42 107.52c.44.36 1 .63.89.76s-.61.47-.94.7c-.26-.2-.73-.41-.73-.61s.41-.47.78-.85zM116.49 109.92c-.44-.39-.92-.63-.91-.86s.51-.49.88-.57c.17 0 .77.32.77.5s-.38.51-.74.93zM183.14 108.54c.39.44.79.69.78.93s-.5.38-.78.58c-.31-.2-.82-.39-.86-.61s.42-.44.86-.9zM167.65 110.15c-.59.28-1 .6-1.28.57a1.06 1.06 0 01-.77-.64c0-.16.53-.53.8-.52s.68.3 1.25.59zM235.74 110.13c-.61.3-1 .59-1.31.59s-.82-.36-.79-.52a1.1 1.1 0 01.79-.64c.29-.04.69.28 1.31.57zM185.93 115.34a4.39 4.39 0 01-1.29.54c-.26 0-.82-.36-.78-.5a1.12 1.12 0 01.77-.65c.37-.03.7.27 1.3.61zM154.09 50.41c-.62.28-1 .6-1.34.56a1 1 0 01-.72-.69c0-.14.56-.48.83-.46s.68.31 1.23.59zM253.92 55.39c-.52.28-.89.6-1.14.57a1.23 1.23 0 01-.89-.57c0-.17.49-.58.75-.57s.72.3 1.28.57zM195.88 54.57c.35.34.8.6.73.78s-.57.43-.88.64c-.28-.24-.73-.46-.78-.71s.49-.4.93-.71zM119.74 60.78c.41.35.9.59.84.76s-.54.45-.84.67c-.29-.23-.74-.43-.81-.69s.43-.41.81-.74zM119.19 81.72c.43.42.84.66.86.92s-.48.52-.76.53-.85-.31-.85-.48.37-.52.75-.97zM103.74 100.56c.42.43.83.67.84.92s-.52.53-.8.53-.86-.32-.86-.51.41-.5.82-.94zM145.34 97.7c-.65.29-1 .57-1.36.57s-.71-.37-.71-.58.47-.58.73-.57.7.29 1.34.58zM104.72 63.9c-.46-.38-.94-.6-.91-.79s.47-.47.73-.7c.3.18.81.34.84.54s-.33.51-.66.95zM219.17 73.56a4.72 4.72 0 01-1.39.53c-.26 0-.69-.4-.67-.6s.5-.56.75-.55.69.31 1.31.62zM231 63.16c-.35-.37-.79-.63-.72-.79s.56-.44.87-.66c.26.24.68.47.74.73s-.47.39-.89.72zM307.37 69.79c-.55.28-.95.62-1.16.57a1.14 1.14 0 01-.82-.62c0-.16.51-.55.76-.54s.69.32 1.22.59zM241.84 70c.46.37.94.59.91.78s-.46.47-.72.7c-.29-.17-.81-.33-.84-.53s.32-.53.65-.95zM177 84.56c.4.45.81.7.8 1s-.56.49-.87.49-.79-.35-.78-.53.46-.52.85-.96zM264.22 77.58c-.21-.23-.65-.5-.57-.67s.59-.42.92-.62c.26.24.69.47.74.73s-.3.53-.47.8zM98.52 70.32c-.64.29-1 .57-1.35.57s-.72-.37-.71-.58.46-.58.72-.57.7.26 1.34.58zM260.15 50.24c.33.44.69.71.66.95s-.55.36-.84.54c-.26-.23-.69-.46-.73-.7s.45-.41.91-.79zM168.31 59.77a4 4 0 01-1.22.62c-.26 0-.84-.37-.81-.54a1.18 1.18 0 01.84-.6c.26-.05.65.27 1.19.52zM155 61c-.38-.34-.85-.58-.79-.75s.53-.45.83-.67c.3.22.76.42.83.68s-.43.41-.87.74zM108 77.94a3.21 3.21 0 01-1.13.4c-.28 0-.78-.46-.7-.61a1.42 1.42 0 011-.53 3.65 3.65 0 011.16.33zM194.15 70.52a4.11 4.11 0 01-1.29.36 1.22 1.22 0 01-.85-.63c-.06-.13.46-.49.77-.52s.66.23 1 .36c.12.15.22.29.37.43zM235.49 75c-.65.29-1 .57-1.36.57s-.71-.38-.71-.59.48-.57.73-.57.71.24 1.34.59zM227.94 60.44c-.71.38-1.1.72-1.3.68-.37-.08-.85-.4-.84-.61s.54-.51.9-.55.7.25 1.24.48zM228.24 78.62l-1.23.66c-.27-.24-.68-.46-.76-.73 0-.12.54-.45.85-.47s.62.28 1.14.54zM185.86 73c-.41-.44-.82-.7-.81-.95s.56-.49.87-.49.8.34.79.53-.43.45-.85.91zM283.93 60.66c-.49.31-.83.66-1.07.63a1.34 1.34 0 01-1-.53c-.07-.16.44-.59.72-.61a4.22 4.22 0 011.35.51zM278.21 76c.41.41.85.66.8.85s-.52.43-.81.65c-.28-.2-.78-.39-.78-.59s.39-.47.79-.91zM97.21 73.35c.34.44.71.71.68 1s-.53.36-.82.54c-.27-.23-.71-.44-.75-.69s.43-.46.89-.85zM87.2 68.9c.41.41.85.66.8.84s-.52.44-.81.66c-.28-.2-.77-.39-.78-.59s.4-.49.79-.91zM217 63.83l-1.2.69c-.28-.23-.7-.44-.79-.71s.52-.47.83-.48.64.26 1.16.5zM217 57.24c-.52.31-.85.51-1.19.7-.28-.23-.71-.43-.8-.7s.5-.47.82-.49.65.25 1.17.49zM243.81 75.49c-.53.28-.94.61-1.15.56a1.17 1.17 0 01-.82-.63c0-.15.53-.54.79-.53s.67.32 1.18.6zM187.1 92.54c-.52.27-.85.57-1.2.58s-.81-.38-.77-.54A1.18 1.18 0 01186 92c.17-.09.57.25 1.1.54zM149.19 117.06c-.43-.39-.88-.63-.84-.81s.5-.46.77-.68c.29.18.8.36.82.56s-.37.5-.75.93zM116.67 81.59c-.54.24-1 .55-1.2.5s-.78-.38-.82-.62.57-.54.83-.52.68.35 1.19.64zM103.71 85.82c-.52.27-.84.56-1.13.55s-.87-.34-.84-.47.47-.49.73-.73zM100.74 57.87c-.62.31-1 .61-1.24.59a3.17 3.17 0 01-1-.47c.27-.19.51-.51.81-.53a5.52 5.52 0 011.43.41zM198.93 81.85c-.45-.35-1-.61-.89-.74a1.33 1.33 0 01.89-.54c.26 0 .84.31.84.47s-.44.45-.84.81zM182.19 85.59c-.45-.37-1-.63-.89-.75a1.34 1.34 0 01.92-.53c.25 0 .82.31.81.48s-.44.44-.84.8zM91.72 68.07a3.27 3.27 0 01-1.1.35c-.31 0-.58-.33-.87-.51.29-.18.57-.48.88-.5a3.64 3.64 0 011.09.35zM95.52 71.93c-.64.31-1 .6-1.25.57a3.08 3.08 0 01-1-.47c.27-.19.52-.5.83-.53a5.86 5.86 0 011.42.43zM91.6 73c.46.36 1 .62.9.75a1.39 1.39 0 01-.91.53c-.25 0-.82-.3-.81-.47s.42-.45.82-.81zM232.18 90.6c.45.36.94.62.88.75a1.31 1.31 0 01-.89.53c-.26 0-.84-.31-.83-.47s.43-.41.84-.81zM89.9 61.42a5.27 5.27 0 01-1.46.42c-.3 0-.55-.34-.82-.53a3.13 3.13 0 011-.47c.32-.02.65.27 1.28.58zM212 62.41c-.56.24-.92.52-1.21.49a2.81 2.81 0 01-1-.5 3 3 0 011-.5c.21-.02.6.26 1.21.51zM144.88 86.2a6.15 6.15 0 01-1.45.53c-.24 0-.54-.28-.81-.44.3-.2.56-.51.91-.56s.68.27 1.35.47zM174.21 92.3l-1-.68a3 3 0 011-.55 1 1 0 01.79.5c0 .19-.41.43-.79.73zM130.85 93.07a6.32 6.32 0 01-1.51.42c-.28 0-.53-.31-.79-.48a3.13 3.13 0 011-.52c.29-.04.65.26 1.3.58zM109.14 94.14a3.51 3.51 0 01-.89-.1 5.6 5.6 0 01-.92-.55l1.06-.51a5.68 5.68 0 01.69.7c.1.13 0 .32 0 .49zM126.79 56.12l1.08.79c-.3.17-.6.47-.91.48a1.15 1.15 0 01-.87-.46c-.09-.18.35-.43.7-.81zM185.44 56.48c.6-.22 1-.5 1.27-.44s.61.39.9.6a2.8 2.8 0 01-1 .4c-.31-.04-.61-.28-1.17-.56zM252.09 46.26c-.6.24-1 .51-1.26.46s-.62-.38-.92-.59a2.82 2.82 0 011-.41c.3 0 .62.28 1.18.54zM238.29 41.22c.43.3.9.48.91.68s-.5.58-.69.55a3.5 3.5 0 01-1.08-.49zM137.33 98.28c.43.32.91.51.9.7s-.52.57-.72.54a1.71 1.71 0 01-1-.53c-.06-.09.49-.38.82-.71zM251.62 78.24c-.66.26-1 .51-1.34.49s-.62-.3-.93-.46c.27-.19.54-.54.81-.54a5.52 5.52 0 011.46.51zM257 80.57c-.43-.3-.91-.49-.91-.68s.49-.58.69-.56a3.88 3.88 0 011.08.49zM298.32 65.36l1 .81c-.31.17-.62.47-.93.47a1.1 1.1 0 01-.84-.48c-.03-.16.39-.42.77-.8zM115.45 114.82a5.82 5.82 0 01-1.44.53c-.25 0-.54-.28-.82-.43.3-.2.56-.52.91-.57s.68.22 1.35.47zM99.23 82.59a4.68 4.68 0 01-1.38.58c-.28 0-.58-.32-.88-.5.3-.18.57-.47.9-.5s.68.2 1.36.42zM163.18 50.26a5.14 5.14 0 01-1.42.55c-.28 0-.56-.33-.84-.52.3-.17.58-.45.91-.48s.67.19 1.35.45zM119.73 69.69c-.65.26-1 .52-1.32.51a2.83 2.83 0 01-.94-.46c.26-.19.52-.54.78-.54a5.28 5.28 0 011.48.49zM218.1 82c-.55.25-.92.54-1.18.51a2.8 2.8 0 01-1-.53c.31-.17.6-.45.94-.47s.68.2 1.24.49zM228.14 80.58c-.61.23-1 .49-1.27.46s-.63-.32-.94-.49a3.25 3.25 0 011-.51c.3-.04.65.27 1.21.54zM201 58.06h.05a3.25 3.25 0 01-.9-.08 1.53 1.53 0 01-.8-.54c0-.11.54-.51.67-.47a2.16 2.16 0 011 .53c.15.1-.02.36-.02.56zM156.18 74.89c-.61.23-1 .49-1.27.46a2.7 2.7 0 01-.95-.49 3.35 3.35 0 011-.51c.3-.03.65.27 1.22.54zM198.19 55.63l.93.72a3.12 3.12 0 01-1 .5c-.22 0-.73-.33-.74-.53s.43-.38.81-.69zM250.76 67.33c.38.36.8.6.76.78a1.08 1.08 0 01-.83.48c-.33 0-.63-.31-.95-.48zM169.18 57.37c-.62.28-.94.55-1.27.55s-.63-.27-.95-.43c.25-.2.49-.55.75-.56a5.42 5.42 0 011.47.44zM266.77 63l-1-.8c.33-.17.65-.46 1-.46s.77.3.8.5-.4.4-.8.76zM302.79 77.15l.93.71a3.37 3.37 0 01-1 .51c-.22 0-.73-.34-.74-.53s.43-.39.81-.69zM120 55.85c-.54.22-.92.51-1.2.47s-.61-.35-.9-.55c.31-.16.62-.44.93-.45s.61.28 1.17.53zM201.11 66.37c0 .22.15.49 0 .66a1.42 1.42 0 01-.87.5c-.26 0-.59-.26-.88-.41a3.18 3.18 0 01.75-.61 4.46 4.46 0 011-.12zM266.63 97.44l-.93-.7a3 3 0 011-.52 1 1 0 01.75.52c.02.19-.45.4-.82.7zM154.61 85.82l1.08.77c-.31.17-.6.47-.93.49a1.16 1.16 0 01-.85-.46c-.06-.19.35-.43.7-.8zM132.73 109.11l1 .79c-.32.17-.63.46-1 .47a1.07 1.07 0 01-.83-.49c.02-.18.45-.41.83-.77zM207.55 76.43l.93.72a3.26 3.26 0 01-1 .51c-.21 0-.72-.34-.74-.53s.43-.39.81-.7zM279.81 66.56c.18.26.56.55.48.78a1.42 1.42 0 01-1 .54 1 1 0 01-.78-.51c0-.18.41-.4.65-.61zM276 60.46c-.59.25-.94.51-1.24.49a2.87 2.87 0 01-1-.46 3 3 0 011-.54c.32-.04.69.25 1.24.51zM209.59 75.13c.22.21.66.43.62.62a1.09 1.09 0 01-.81.48 1.25 1.25 0 01-.89-.56c-.07-.23.26-.53.41-.8zM99.87 83.55l1 .71a3.4 3.4 0 01-1 .51c-.2 0-.72-.33-.74-.53s.37-.39.74-.69zM234.19 72.82c-.61.29-.92.56-1.25.57s-.64-.27-1-.42c.24-.2.46-.56.73-.57a5.39 5.39 0 011.52.42zM151.53 98c-.54.23-.92.51-1.2.48s-.61-.36-.91-.55c.31-.16.62-.45.94-.45s.64.25 1.17.52zM174.58 58.26l1 .79c-.3.17-.61.47-.92.47s-.79-.28-.83-.48.37-.41.75-.78zM232.84 46c.38.37.8.6.76.78a1.08 1.08 0 01-.83.48c-.33 0-.64-.3-1-.47zM208.51 89.73c.37.37.79.6.74.79a1.11 1.11 0 01-.84.47c-.33 0-.63-.31-.94-.48zM202 113.42c.38.3.83.5.82.69s-.53.55-.74.53a3.52 3.52 0 01-1.05-.51zM100.66 64.59c-.59.22-1 .48-1.25.45s-.61-.32-.92-.49a3.15 3.15 0 011-.51c.28-.04.63.27 1.17.55z"/><path class="cls-4" d="M176.92 98.45a3.57 3.57 0 01.93-.25 2.56 2.56 0 011.11.25c.13.07 0 .55-.16.59a2.36 2.36 0 01-1.18 0c-.3-.1-.45-.4-.67-.61zM226 98c.39.3.85.51.83.69s-.53.55-.75.53a3.16 3.16 0 01-1-.51zM269.23 69.66c-.51.26-.84.53-1.16.53s-.62-.28-.94-.44c.3-.19.56-.51.9-.56s.66.25 1.2.47zM183.34 62.23c-.37-.29-.83-.5-.81-.68a1 1 0 01.74-.53 3.35 3.35 0 011 .51zM220.49 66.19l-1-.8a2.57 2.57 0 011-.46 1 1 0 01.8.5c.04.18-.4.4-.8.76zM257 73.66a4.12 4.12 0 01-1.3.44c-.3 0-.55-.33-.82-.52a2.6 2.6 0 01.94-.47c.32-.02.65.27 1.18.55zM113.38 80.42c-.62.22-1 .47-1.29.44s-.56-.34-.83-.52c.31-.17.61-.46.94-.48s.61.27 1.18.56zM202.36 79.07c.36.36.79.59.74.77s-.55.48-.84.48-.79-.32-.79-.5.45-.41.89-.75zM95.76 80c-.42-.32-.88-.53-.86-.72s.48-.51.76-.52a1.13 1.13 0 01.85.47c.05.22-.38.46-.75.77zM140.79 98.28c-.55.26-.87.55-1.17.54s-.6-.31-.9-.48c.27-.18.51-.49.82-.52s.66.18 1.25.46zM219.12 77.83c.4.33.86.54.83.73s-.51.52-.77.52a1.17 1.17 0 01-.87-.5c-.05-.17.42-.41.81-.75zM143.92 50.09c.44.34.9.54.91.74s-.49.51-.77.51a1.12 1.12 0 01-.86-.47c-.05-.18.37-.42.72-.78zM113.3 58.39c0-.07.17-.16.15-.22-.21-.57.27-.79 1-.71.27 0 .47.38.69.59-.45.12-.89.26-1.35.36a1.77 1.77 0 01-.5 0zM89.7 77.56c-.59.23-1 .48-1.25.45s-.56-.34-.83-.52c.3-.17.59-.46.91-.47s.62.27 1.17.54zM94.92 59.5c-.57.28-.88.57-1.18.56s-.64-.29-1-.45c.28-.19.52-.5.85-.55s.71.21 1.33.44zM236.18 64.31c-.58.28-.91.56-1.2.55s-.62-.31-.93-.48c.28-.19.52-.49.83-.52s.67.22 1.3.45zM249.73 66.36c-.36-.36-.79-.6-.74-.78a1.08 1.08 0 01.84-.47c.29 0 .75.33.77.53s-.45.36-.87.72zM215.43 49.6c-.57.25-.91.52-1.21.5s-.59-.32-.88-.5c.29-.18.57-.48.88-.5s.64.25 1.21.5zM132.77 93.47c.38.35.81.57.78.76s-.52.49-.8.49-.76-.3-.79-.5.41-.4.81-.75zM117.12 68.62c-.58.26-.91.53-1.21.51s-.57-.32-.86-.5c.28-.18.54-.48.85-.5s.64.24 1.22.49zM126.59 89.63a2.64 2.64 0 01.76-.4 2.73 2.73 0 011.18 0c.16.06.19.6 0 .66a2.51 2.51 0 01-1.17.08 2.82 2.82 0 01-.81-.37zM184.92 90.09c.39.35.83.57.8.76a1.08 1.08 0 01-.8.5c-.28 0-.76-.31-.79-.5s.4-.41.79-.76zM306.2 65.1c.07.19.25.41.17.57a1.21 1.21 0 01-.68.61c-.22 0-.87-.22-.87-.34s.28-.49.55-.66a2.72 2.72 0 01.87-.15zM198.53 87.24c.41.35.85.56.83.75a1 1 0 01-.77.51 1.07 1.07 0 01-.82-.48c-.04-.19.38-.42.76-.78zM147.26 27.63a1.32 1.32 0 012 .5c.83-.9 1.64-.6 2.46 0a1.47 1.47 0 012.39.21c.63-.73 1.31-1.13 2.17-.26 1.3-.86 1.3-.86 2.24-.15l2.24-.14a3.28 3.28 0 01-.32 1.46c-.12.18-1 .13-1.92.22a7.7 7.7 0 000 1.78c.11.49.11.89-.68.93s-.9-.27-.91-.82a4 4 0 00-.81-2.07 1 1 0 00-1.63-.1 1.09 1.09 0 01-1.68-.06 9.58 9.58 0 00-1.22-.89l-.3.16c0 .13.19.28.14.38a11.15 11.15 0 01-.65.93 6.31 6.31 0 01-1-.75 1.83 1.83 0 01-.28-.79l-.51-.05a3.54 3.54 0 00-.45 1.05c0 .72-1.46 1.32-2.49 1a4.87 4.87 0 00-.66-.09 6.3 6.3 0 01-.45 1.77c-.14.23-.85.33-1.3.49a2.36 2.36 0 01-.21-.87 10.05 10.05 0 01.47-1.91c.09-.26.43-.48.55-.75s.12-.51 0-.57a5.24 5.24 0 00-1.83-.59 22.71 22.71 0 01-8.5-2.07c-3.15-1.43-3.51-3.68.05-5.28a42.32 42.32 0 015.11-1.87 19.55 19.55 0 012.73-.36c.87-.12 1.72-.33 2.59-.45.49-.07 1 0 1.81-.07a1.44 1.44 0 012.05 0c.69-.85 1.44-.75 2.21-.06.67-.58 1.33-1.2 2.2-.12.77-.57 1.51-.95 2.32-.11.79-.37 1.61-.92 2.41 0 .89-.61 1.74-.89 2.32.15 1.18-.86 1.25-.87 2.33-.15.75-.26 1.58-.65 2-.16l2.26.31a4.78 4.78 0 00.53.06 8.32 8.32 0 011.79.14 2.64 2.64 0 011.95.24c1.19.4 2.72.34 4 .68 2.2.58 4.4 1.24 5.76 2.65a1.82 1.82 0 01-.31 3.1 15.33 15.33 0 01-3.8 1.89c-1.91.64-4 1.06-6.05 1.58-.09.66 0 1.26 1.47 1.32.18 0 .58.68.42.89-.37.49-.57.85-.06 1.38.19.2-.21.65-.34 1-.41-.2-1.11-.36-1.17-.6-.14-.57-1.54-1.05 0-1.77a4.57 4.57 0 00-1.38 0c-.89.42-1.43.06-2.28-.13-1.17-.25-2.11-.27-2.17-1.28 0-.17-.74-.32-1.18-.5-.43.47.85 1.33-.71 1.48-.29 0-.92-.29-1-.48a5.51 5.51 0 01.12-1.56l1.62.31a1.65 1.65 0 012-.34 3.36 3.36 0 001.77-.32c1.44-.55 3.21-.25 4.63-.95a23.29 23.29 0 013.39-.88 9.78 9.78 0 002.06-.85c3-1.71 1.66-3-.93-4.06a33.16 33.16 0 00-4.2-1.41c-.84-.22-1.82-.18-2.72-.32a5.69 5.69 0 01-1.15-.45c-.74.55-1.34.26-1.89-.28l-.12.29-1.68-.27c-.2 0-.5-.15-.59-.1-.94.54-1.5.15-2.06-.47-.76.92-1.5.61-2.24 0-.82.64-1.6.81-2.27-.18-.69.74-1.41 1.2-2.3.15-.75.65-1.5.91-2.25.07-.74.4-1.42 1-2.29.12a1.81 1.81 0 01-2.41.23 1.46 1.46 0 01-2.08.18 1.49 1.49 0 01-2 .52 3.84 3.84 0 00-2 .29c-2.42.87-5.2 1.23-7.39 2.43-1.65.91-1.95 2.37-.27 3.24a30.55 30.55 0 003.56 1.35 11.36 11.36 0 002.52.8c.88.1 1.68.59 2.65.33a1.06 1.06 0 01.39 0c1.09.17 2.21.43 3.41.7zm20.21 1.69c.24-.21.63-.43.71-.7s-.45-.44-.77-.49a20.92 20.92 0 00-2.13-.09zM152 7.17c1.86-.06 3.69-.25 5.48-.15 3.26.18 6.62 0 9.73.91a35.64 35.64 0 014.2 1.19c2.44 1.09 2.32 2.58 0 3.73a24.88 24.88 0 01-8.28 1.89c-1.66.19-3.36.22-5 .26a70.4 70.4 0 01-7.26.06c-3.44-.26-6.95-.6-9.86-2a2.87 2.87 0 01-1.65-1.88c-.05-1 1.09-1.76 2.38-2.2a44.36 44.36 0 019.85-1.84 3.18 3.18 0 01.41.03zm10.09 6.53a21.9 21.9 0 007.75-1.61c.59-.27 1.4-.8 1.32-1.13s-.9-.92-1.57-1.15a34 34 0 00-8.95-1.53 64.06 64.06 0 00-15.64 1 11.27 11.27 0 00-3.25 1.26c-.88.47-.75 1.15.2 1.52a16.44 16.44 0 003.43 1c2.3.35 4.64.59 7 .74s4.49.17 6.73.16a27.58 27.58 0 002.96-.26zM154.8.75L156 0l1.19.86c1.89.28 3.94.59 6 .88 1.2.17 1.82.85 1.8 1.46s-.83 1.18-1.54 1.39a28.92 28.92 0 01-4.82.9 29.26 29.26 0 01-8.41-.33c-.34-.06-.68-.13-1-.21-1.13-.29-2.08-.75-2.17-1.62-.07-.64 1.25-1.49 2.6-1.71 1.75-.27 3.53-.49 5.29-.73zm-5.61 2.61c2.92 1.54 12 1.4 13.68-.19-2.63-1.44-11.44-1.31-13.68.19zM59.1 41.6l-1.86.21c0-.28-.06-.8 0-.81a15 15 0 012 0 10.71 10.71 0 01.19-1.25.85.85 0 01.5-.54 1.27 1.27 0 01.84.07.78.78 0 01.32.62 2.11 2.11 0 01-.25.73c-.12.31-.13.71-.44.9s-.83 0-1.27-.06c0 .02-.02.07-.03.13zM132.12 30.73c-.23-.62-.6-1.27.81-1.51-.13-.78.65-1 1.57-1.06a4.64 4.64 0 011.38.42 6.81 6.81 0 01-1.19.74 4.94 4.94 0 01-1.28.06c.4.83-.17 1.22-1.32 1.32zM65.71 39.69a3.89 3.89 0 00-.52 0c-.74 0-1.42-.07-1.43-.64 0-.2.46-.55.77-.59.71-.08 1.55-.18 1.86.51a2.13 2.13 0 00.52.52c.24.21.5.42.75.62-.29.15-.64.46-.85.42a3 3 0 01-1-.54c-.05-.08-.05-.18-.1-.3zM116.32 32.65h.81c.7-.43 1.17-.74 1.69-1a3.12 3.12 0 01.72.48c-.41.34-.89.64-1.49 1-.33.19-.87.73-1.21.67-1.07-.17-.72-.76-.48-1.26zM86.32 35.44l-2-.29h-2.15c0-.24.09-.48.13-.72l1.84.17s0 .08-.07.13l1.73-.36.48 1.1zM70 38.15c1.42-.16 1.58-.06 1.57.89 0 .23.18.45.18.68a.84.84 0 01-.26.69 1.37 1.37 0 01-.94 0 .9.9 0 01-.55-.61 15.83 15.83 0 010-1.69zM121.49 30.35a4.63 4.63 0 01-.21-.59c-.08-.5.2-.78 1-.77.36 0 .72-.08 1.08-.08a3.41 3.41 0 011.18.12c.19.08.28.49.14.61a2.33 2.33 0 01-1 .38c-.73.14-1.48.21-2.21.31zM96.4 35.32c-.53-.38-1-.55-.94-.68a7.76 7.76 0 01.69-1.8 2.11 2.11 0 011 0c.21.07.41.41.33.56a21.23 21.23 0 01-1.08 1.92zM55.22 40.73a5.43 5.43 0 01.81.64 1.78 1.78 0 01.39.88.75.75 0 01-.4.67 1.62 1.62 0 01-1-.08 5.09 5.09 0 01-.58-1.59c-.05-.12.41-.25.78-.52zM105.92 32.26a7 7 0 011 1.12c.06.11-.7.57-.77.54a2.64 2.64 0 01-1.2-.75c-.12-.22.3-.58.47-.87zM74.23 37.58l-1.17-.81a3.87 3.87 0 011.3-.47 3.94 3.94 0 011.26.54zM78.72 37.06c.42.42.87.68.85.93s-.58.39-.91.59c-.31-.25-.75-.47-.89-.75-.06-.13.46-.38.95-.77zM65.07 42.18c-.61.31-1 .64-1.29.62s-.89-.34-.9-.55.48-.57.82-.61.72.27 1.37.54z"/><path class="cls-4" d="M174.29 29.1c.38.39.83.64.79.86s-.55.41-.85.62c-.31-.2-.86-.4-.86-.61s.47-.47.92-.87zM138.9 33.69c-.62.29-1 .6-1.31.58s-.9-.38-.87-.56.52-.56.88-.6.68.29 1.3.58zM58.66 44.68c-.6.3-1 .67-1.28.61a1.48 1.48 0 01-.85-.71c-.05-.08.56-.47.84-.45a4.65 4.65 0 011.29.55zM108.48 32.82c-.51-.43-1-.67-1-.89s.48-.53.84-.6.86.28.86.43-.35.57-.7 1.06zM70 38.15a4.4 4.4 0 01-1.24-.24.68.68 0 01-.33-.72 1.27 1.27 0 01.92-.31 1.17 1.17 0 01.67.62c.09.16-.02.42-.02.65zM142 30.68c-.43-.43-.86-.67-.85-.9s.57-.59.77-.56c.38.05.87.33.93.56s-.44.47-.85.9zM100.93 32c-.66.27-1.05.55-1.39.53s-.86-.41-.8-.55a1.27 1.27 0 01.89-.61c.31-.06.68.27 1.3.63zM116.36 32.63a3.51 3.51 0 01-1.11-.22.87.87 0 01-.32-.83c0-.12.81-.31.94-.24a1.39 1.39 0 01.56.76c.07.16-.07.37-.11.55zM157.51 34c-.43-.42-.89-.68-.86-.9s.56-.5.92-.54.79.34.78.53-.43.51-.84.91zM148.81 33.39c-.66.27-1.11.58-1.38.52a1.13 1.13 0 01-.75-.69c0-.13.57-.49.83-.47s.69.32 1.3.64zM103.86 35.45c-.45-.4-.94-.65-.92-.88s.52-.51.88-.57.81.33.82.52-.4.48-.78.93zM78.86 36.15c-.49-.39-1-.63-1-.84s.52-.51.9-.6c.18 0 .79.32.81.52s-.36.5-.71.92zM110.29 36.33c-.63.31-1 .64-1.32.61a1.22 1.22 0 01-.87-.62c0-.15.51-.53.83-.54s.71.27 1.36.55zM85 41c-.59.24-1 .54-1.34.51a1 1 0 01-.66-.61c0-.17.58-.53.83-.5A4.07 4.07 0 0185 41zM52.15 41.38c.4.37.84.59.85.83s-.46.42-.72.63c-.35-.22-.82-.41-1-.68s.45-.41.87-.78zM91.34 33.07c.52-.23.91-.53 1.17-.49s.83.38.83.59-.57.57-.85.56-.66-.36-1.15-.66zM90.21 33.46c-.59.32-.95.65-1.25.63a1.16 1.16 0 01-.84-.6c-.05-.16.45-.55.73-.56a4.43 4.43 0 011.36.53zM118.19 34.4c.45.41.91.66.88.87s-.53.43-.83.64c-.28-.19-.78-.37-.8-.57s.37-.49.75-.94zM92.21 36.07a4.31 4.31 0 01-1.33.51c-.27 0-.77-.4-.72-.57a1.16 1.16 0 01.84-.59c.32 0 .66.34 1.21.65zM83.28 36.59a4.35 4.35 0 01-1.32.53c-.29 0-.85-.39-.8-.52A1.2 1.2 0 0182 36c.31-.06.69.28 1.28.59zM91.66 40.07c-.4-.39-.87-.65-.82-.86s.57-.41.88-.61c.28.23.71.44.78.7s-.42.4-.84.77zM77.73 43a4.86 4.86 0 01-1.4.5c-.28 0-.78-.41-.74-.57a1.17 1.17 0 01.87-.57c.34 0 .68.33 1.27.64zM69.85 44.23c.36.38.76.62.76.86s-.47.4-.74.6c-.33-.23-.78-.44-.93-.71s.46-.4.91-.75zM63.84 48.23c-.39-.43-.78-.68-.78-.94s.6-.53.79-.49c.36.07.84.35.87.57s-.45.47-.88.86zM110.71 31.53c-.41-.43-.82-.67-.83-.93s.49-.51.78-.51.84.31.84.48-.4.51-.79.96zM121.46 30.33c-.27.4-.07 1.1-1.22.92-.31 0-.79-.43-.72-.58.34-.8 1.26-.31 2-.32zM86.28 35.47a3.51 3.51 0 01.89.1 5.89 5.89 0 011 .55c-.3.17-.75.51-.87.47a2.49 2.49 0 01-.91-.66c-.11-.12 0-.32 0-.49zM103.87 31.65c-.56.25-.9.51-1.21.5s-.63-.3-1-.46a2.76 2.76 0 011-.54c.34-.04.65.25 1.21.5zM127.18 31a5.65 5.65 0 01-1.46.44c-.27 0-.51-.36-.76-.55.31-.16.63-.44.94-.44s.66.26 1.28.55zM113.07 29.68l1 .68a2.92 2.92 0 01-1 .54 1 1 0 01-.79-.51c-.03-.18.42-.39.79-.71zM93.87 35.57l-1-.68a2.79 2.79 0 011-.54c.22 0 .76.3.79.5s-.43.4-.79.72zM140.53 30.23c-.57.24-.92.51-1.22.49s-.58-.32-.87-.5c.29-.18.56-.48.88-.49s.68.27 1.21.5zM100.18 36.93c.36.36.78.6.73.78a1.13 1.13 0 01-.83.48c-.28 0-.73-.33-.75-.53s.43-.39.85-.73zM231 34.24l-1.68.29c-.08-.28-.15-.57-.23-.86H232.7c0 .24-.07.48-.11.72zM227.45 32.57c-.6.32-.94.64-1.26.63s-.66-.33-1-.52c.29-.23.54-.58.9-.63s.72.26 1.36.52zM223.71 32.35a4.93 4.93 0 01-1.34.51c-.27 0-.84-.41-.79-.49a1.55 1.55 0 01.91-.68c.24-.04.66.31 1.22.66zM226.78 35.86c0-.22-.15-.49 0-.66a1.41 1.41 0 01.87-.5c.3 0 .62.29.93.45a3.52 3.52 0 01-.8.57 4 4 0 01-1 .11zM79.54 83.76c-.83.33-1.74.92-2.52.11A3.51 3.51 0 0176.2 82c0-.15.72-.48 1.18-.55.85-.14 1.42.25 1.08.74-.62.89.27 1.17 1.07 1.55zM64.37 77.78l-1.37.06v-.85l1.84.08.12.28a6.86 6.86 0 011.04-.86 4.91 4.91 0 011.19-.32c.08.31.36.66.22.92a2.06 2.06 0 01-1.12.91 6.4 6.4 0 01-1.92-.22zM72.33 81.74c-.17.17-.3.45-.52.49a2.32 2.32 0 01-1-.15.41.41 0 01-.12-.53c.18-.19.69-.49.8-.45 1.11.43 1.8-.35 2.71-.37a10.35 10.35 0 011.46.16c-.25.29-.38.74-.75.85a15.73 15.73 0 01-2.26.34zM72.26 80a6.73 6.73 0 01-1.62.55c-.91 0-2-.75-1.9-1.34.05-.22.72-.58.78-.55.83.34 1.61.72 2.74 1.34zM76.32 98.6c-.44-.43-.91-.68-.87-.89s.54-.43.85-.64c.31.21.83.4.87.62s-.42.48-.85.91zM36.9 78.19c-.55.34-.85.68-1.2.7s-.89-.33-.91-.53.44-.57.78-.62.73.26 1.33.45zM61.62 75.79c-.41-.35-.89-.61-.82-.75s.57-.48.88-.72c.3.22.81.43.85.66s-.48.45-.91.81zM53 105.37c.45.36 1 .6.94.8s-.53.45-.83.68c-.32-.24-.76-.44-.9-.71s.43-.41.79-.77zM58.66 100c.42.48.8.75.83 1s-.63.51-.84.47-.82-.37-.86-.59.42-.46.87-.88zM28.09 92c-.41-.43-.85-.7-.8-.91s.57-.4.89-.6c.29.22.79.43.83.67s-.46.45-.92.84zM81.07 93c-.42-.37-.91-.62-.87-.82s.55-.44.85-.66c.31.25.74.46.86.74s-.42.43-.84.74zM53 91.69c.48.34 1 .56 1 .77s-.51.46-.79.69c-.33-.22-.78-.41-.93-.68s.34-.42.72-.78zM10.5 75.56a4.63 4.63 0 01-1.34.5c-.28 0-.85-.41-.79-.49a1.53 1.53 0 01.92-.67c.24-.04.65.34 1.21.66zM12.84 79.53c-.6.3-1 .62-1.31.61s-.83-.39-.82-.6.54-.54.88-.56.69.29 1.25.55zM25.48 61a4.63 4.63 0 01-1.34.5c-.28 0-.85-.41-.79-.49a1.57 1.57 0 01.92-.67c.24-.06.65.32 1.21.66zM82.14 72.86c.43.38.87.6.91.85s-.52.58-.74.56c-.37 0-.94-.31-1-.51s.45-.5.83-.9zM50.49 74.78c-.43-.44-.86-.68-.85-.91s.57-.59.77-.56c.38 0 .87.33.93.56s-.42.47-.85.91zM59.34 74.71c-.54.3-.87.6-1.25.63s-.84-.34-.82-.5a1 1 0 01.74-.65c.35-.03.75.27 1.33.52zM30.58 74.11c.39.38.88.65.83.87s-.63.38-1 .57c-.26-.23-.68-.46-.72-.7s.47-.41.89-.74zM80.21 77.1c.35.42.73.68.71.92s-.64.56-.81.52c-.38-.09-.88-.38-.9-.6s.5-.45 1-.84zM49.17 79c-.44-.43-.91-.69-.86-.89s.54-.52.91-.58c.21 0 .78.35.79.56s-.41.52-.84.91zM73.08 78c.37.38.79.62.78.85s-.49.41-.77.61c-.33-.24-.79-.44-.93-.72-.07-.11.47-.38.92-.74zM63.28 80.23c-.42-.41-.88-.68-.85-.9s.59-.48 1-.53c.2 0 .76.36.74.54s-.47.49-.89.89zM80 81c-.34-.44-.72-.71-.68-1s.64-.55.81-.5c.38.09.87.38.88.61s-.48.47-1.01.89zM15.39 82.63c.45.38.95.61.95.84s-.5.52-.87.59c-.21 0-.83-.31-.83-.48s.36-.52.75-.95zM35.21 87c-.47-.4-1-.65-.94-.86s.55-.51.93-.58c.18 0 .77.34.78.54s-.39.49-.77.9zM59.11 88.26c-.39-.42-.84-.69-.79-.9s.59-.4.91-.59c.27.24.69.46.75.72s-.43.4-.87.77zM22.4 95.66c-.6.32-1 .66-1.29.64a1.21 1.21 0 01-.85-.63c-.05-.13.49-.52.77-.52a4.74 4.74 0 011.37.51zM71.67 102.7c.34.43.71.69.68.93s-.65.56-.82.51c-.38-.09-.87-.39-.88-.61s.52-.45 1.02-.83zM65.74 53.27c.48.4 1 .64 1 .85s-.53.51-.91.6c-.18 0-.78-.33-.8-.53s.35-.5.71-.92zM33.37 56.6c-.36-.42-.75-.68-.73-.92s.62-.56.8-.52c.38.08.89.37.91.59s-.5.46-.98.85zM41.11 54.87c.43.42.86.65.87.9s-.54.57-.76.55-.89-.32-.94-.54.42-.49.83-.91zM25.87 56.65c.49.39 1 .63 1 .84s-.52.52-.9.61c-.18 0-.79-.33-.81-.53s.35-.5.71-.92zM31.82 59.81c-.39-.41-.83-.68-.78-.9s.58-.39.91-.59c.26.24.68.47.74.73s-.43.39-.87.76zM39.4 62.66c-.41-.39-.86-.63-.8-.8s.51-.47.79-.7c.31.21.83.4.86.63s-.43.47-.85.87zM47.5 62.7c.43.36.91.59.86.76s-.51.47-.79.7c-.33-.2-.85-.38-.92-.62s.44-.46.85-.84zM16.61 63.23c.43.37.93.61.9.82s-.55.44-.86.66c-.31-.22-.77-.41-.86-.67s.41-.42.82-.81zM57 64.32c-.5.26-.86.57-1.11.54a3.16 3.16 0 01-1-.53c.3-.22.57-.59.92-.62s.67.29 1.19.61zM23.74 65.3c-.42-.36-.89-.59-.85-.78s.48-.46.75-.69c.34.2.89.37.94.6s-.43.47-.84.87zM41.65 65c-.61.29-1 .63-1.32.59a1.13 1.13 0 01-.81-.65c-.05-.13.54-.5.82-.49a4.27 4.27 0 011.31.55zM33.66 65.57c-.59.25-1 .55-1.34.52a1 1 0 01-.73-.66c0-.16.57-.52.83-.5a4.07 4.07 0 011.24.64zM66.12 66.72c-.55.28-.93.63-1.23.6s-.61-.4-.92-.62a3.16 3.16 0 011-.53c.29-.03.64.28 1.15.55zM10.45 67.54a4.22 4.22 0 01-1.33.51c-.3 0-.87-.38-.82-.51a1.19 1.19 0 01.84-.64c.32-.03.7.32 1.31.64zM51.67 69.24c-.44.26-.85.63-1 .59a4.09 4.09 0 01-1.07-.62 3.23 3.23 0 011-.54c.26-.03.62.33 1.07.57zM63.84 70.15c-.36-.47-.77-.76-.69-1s.63-.37 1-.55c.23.21.68.43.65.62s-.48.5-.96.93zM1.74 71.38c-.46-.39-.95-.63-.93-.85s.52-.44.8-.66c.3.22.75.41.85.67s-.35.46-.72.84zM47.1 70.93c-.49.3-.81.65-1.15.67s-.87-.35-.89-.56.48-.54.83-.6.67.26 1.21.49zM8.41 72.43c-.41-.41-.82-.66-.82-.9s.56-.58.77-.55c.37 0 .9.34.93.55s-.45.47-.88.9zM16.73 70.7c.51.38 1.05.61 1 .82s-.5.52-.87.62c-.17 0-.79-.31-.82-.51s.36-.5.69-.93zM64 72.61c-.44-.42-.91-.67-.88-.9s.55-.5.92-.55c.21 0 .77.35.77.54s-.45.49-.81.91zM38.23 72.93c-.45-.38-.94-.61-.94-.84s.52-.52.88-.58.83.31.83.49-.39.51-.77.93zM4 65.51c.44.42.9.68.86.89s-.55.41-.85.62c-.28-.19-.77-.38-.78-.58s.36-.44.77-.93zM78.05 56.76c0 .17.09.36 0 .5a6.81 6.81 0 01-.63.84l-1-.54a7.55 7.55 0 01.91-.66 2.44 2.44 0 01.76-.11zM12.57 63.62a4.23 4.23 0 01-1.29.52c-.27 0-.81-.36-.77-.5a1.09 1.09 0 01.78-.65c.32.01.71.32 1.28.63zM53.66 72.94c-.38-.43-.77-.68-.77-.94s.61-.53.8-.49c.36.07.84.36.86.58s-.46.46-.89.85zM56.55 81.82c-.36-.38-.77-.62-.76-.85s.47-.41.73-.61c.33.23.79.44.94.71s-.46.4-.91.75zM2.69 79.08c-.51.25-.88.56-1.14.52S.7 79.24.69 79s.53-.59.81-.58.68.37 1.19.66zM14.9 91.68a4.18 4.18 0 01-1.3.55c-.27 0-.79-.38-.75-.55a1.1 1.1 0 01.81-.61c.34-.02.67.31 1.24.61zM59.06 58.22c.37.46.75.72.72 1s-.52.37-.81.55c-.29-.21-.78-.41-.81-.64s.44-.5.9-.91zM9.09 62.41a4.78 4.78 0 01-1.32.49c-.27 0-.78-.38-.73-.53a1.14 1.14 0 01.81-.63c.32 0 .67.34 1.24.67zM59.6 72.58c-.35.16-.77.49-1 .44s-.76-.44-.74-.67.6-.45 1-.49a3.76 3.76 0 011.18.26zM80.84 75c.37.43.75.68.74.92s-.5.38-.78.57c-.31-.2-.85-.39-.87-.6s.45-.52.91-.89zM74.19 59.61c-.52.28-.85.58-1.21.6s-.61-.31-.92-.49a3.32 3.32 0 011-.65c.18-.07.61.28 1.13.54zM24.69 67.17c.34.39.73.64.71.88s-.5.38-.78.57c-.31-.24-.75-.45-.88-.73-.06-.13.49-.38.95-.72zM17.31 67.85c-.6.27-1 .59-1.3.55a1 1 0 01-.75-.64c0-.17.54-.53.8-.52s.69.32 1.25.61zM69.49 90.89c-.39-.41-.81-.65-.81-.9s.57-.54.81-.52.88.35.89.56-.46.47-.89.86zM72.14 77.38c-.43-.4-.9-.65-.88-.88s.55-.5.91-.54.8.34.8.53-.43.51-.83.89zM56.31 75.82c.41.44.81.68.8.92s-.48.4-.75.59c-.31-.2-.83-.38-.88-.61s.4-.47.83-.9zM49.68 66.32c-.55.32-.88.67-1.2.66a1.16 1.16 0 01-.86-.58c0-.16.44-.56.71-.57a4.23 4.23 0 011.35.49zM3.93 84.19c-.45-.42-.92-.66-.88-.87s.53-.43.83-.65c.28.19.78.37.8.57s-.37.5-.75.95zM42.07 80.62c.44.42.86.65.86.89s-.45.41-.71.62c-.33-.18-.87-.35-.92-.56s.38-.5.77-.95zM39.65 57.87c.44.41.86.64.88.88s-.45.41-.7.62c-.34-.18-.88-.34-.94-.56s.37-.49.76-.94zM9.11 87.51c-.51.29-.84.62-1.19.62s-.81-.38-.81-.58S7.62 87 8 87s.61.26 1.11.51zM75.08 85.07c.39.45.78.7.76.94s-.51.38-.8.57c-.3-.21-.8-.4-.83-.62s.43-.47.87-.89zM21 88.23c-.37-.38-.77-.62-.77-.86s.47-.4.73-.61c.33.23.79.43.94.71.1.12-.48.4-.9.76zM66.44 83.62c-.51.3-1 .66-1.08.61a4 4 0 01-1-.65c.3-.18.6-.51.89-.51s.67.3 1.19.55zM69.47 62.82c-.41-.42-.87-.67-.83-.89s.53-.49.91-.56c.18 0 .76.35.74.53s-.41.49-.82.92zM50 83.67c.39.44.83.71.78.93s-.58.46-1 .52c-.17 0-.71-.37-.69-.55s.51-.48.91-.9zM66.13 74.29c-.64.26-1.07.56-1.35.51a1.06 1.06 0 01-.74-.66c0-.16.56-.51.83-.49s.67.35 1.26.64zM23.1 56.82c-.52.26-.85.55-1.19.56s-.61-.32-.91-.5a4 4 0 011-.66c.15-.05.59.31 1.1.6zM36.91 95.53c-.45-.4-.89-.62-.92-.87s.53-.59.71-.57c.39.06.92.31 1 .53s-.4.49-.79.91zM64.11 94.36c.4.41.82.65.83.89s-.55.56-.79.53-.89-.33-.91-.54.45-.48.87-.88zM74.42 68.77c.47.34 1 .59 1 .72-.13.28-.57.49-.88.73-.28-.19-.77-.38-.78-.58s.33-.49.66-.87zM54.66 51.52c.33.39.72.64.7.88s-.5.38-.77.58c-.32-.24-.76-.46-.89-.74s.49-.38.96-.72zM42.16 103c-.62.29-1 .62-1.31.58a1.15 1.15 0 01-.8-.66c0-.13.53-.49.81-.49a4.35 4.35 0 011.3.57zM19.22 76.17c-.43-.39-.91-.63-.88-.83s.54-.44.84-.65c.29.22.73.42.82.67s-.38.42-.78.81zM58.09 61.65c-.51.26-.83.55-1.13.54s-.89-.34-.85-.47.48-.48.76-.72zM82.23 82.22c-.52.27-.84.57-1.19.58s-.82-.37-.78-.53a1.21 1.21 0 01.83-.62c.21-.05.61.29 1.14.57zM51.28 54.15c.38.43.77.69.75.93s-.53.38-.82.56c-.27-.22-.72-.43-.77-.68s.41-.42.84-.81zM.78 73.88c.42.41.86.65.81.84s-.51.44-.8.66C.51 75.18 0 75 0 74.8s.39-.49.78-.92zM30.44 98.78c.21.23.65.5.58.67s-.59.42-.91.63c-.27-.24-.71-.47-.76-.73s.33-.51.52-.77zM14.89 60.7c-.43-.4-.88-.63-.83-.82s.5-.45.78-.67c.29.19.79.37.81.57s-.38.49-.76.92zM68 64.27c-.63.29-1 .58-1.34.58s-.72-.37-.72-.58.46-.58.71-.58.73.31 1.35.58zM19.83 60.45c-.55.23-1 .54-1.22.49a1.11 1.11 0 01-.8-.63c0-.17.59-.54.84-.51s.67.35 1.18.65zM43.05 76c-.42-.34-.9-.57-.86-.73s.5-.48.78-.72c.29.22.75.42.84.67s-.39.38-.76.78zM24.11 79c-.44.27-.81.62-1 .59s-.87-.37-.87-.58.5-.52.86-.58.57.33 1.01.57zM56.64 68.94c.4.34.87.58.82.75s-.52.47-.81.7c-.29-.23-.73-.43-.82-.69s.41-.41.81-.76zM81.53 110.52c.4.44.81.7.8 1s-.56.49-.87.49-.8-.35-.79-.53.43-.54.86-.96zM43.49 68.16a2.92 2.92 0 01-1.12.4c-.29 0-.78-.45-.71-.61a1.47 1.47 0 011-.53 3.65 3.65 0 011.16.33zM14.27 58.51c-.59.24-.94.5-1.26.48s-.62-.28-.93-.44a2.93 2.93 0 011-.56c.24.01.61.26 1.19.52zM49.07 57c.37.38.79.62.74.8a1.17 1.17 0 01-.87.47c-.31 0-.61-.3-.92-.47zM74.25 72a6.14 6.14 0 01-1.58.31c-.27 0-.44-.4-.66-.62a3 3 0 011-.36c.35.03.63.32 1.24.67zM81.47 65.21c-.63.28-1 .55-1.28.54a2.86 2.86 0 01-1-.43c.25-.2.48-.56.75-.57a6 6 0 011.53.46zM81.8 84.86c0 .19.13.42 0 .57a1.7 1.7 0 01-.8.57c-.21 0-.6-.22-.9-.34a3.61 3.61 0 01.77-.68 3.81 3.81 0 011-.12zM62 55.81c.37.31.82.53.8.71a1 1 0 01-.8.48 2.91 2.91 0 01-1-.52zM78.19 67.34c-.55.27-.9.57-1.16.54a2.82 2.82 0 01-1-.52 2.62 2.62 0 01.92-.48c.31-.02.66.23 1.24.46zM36 68.76a4.3 4.3 0 01-1.29.54c-.31 0-.62-.28-.93-.44.25-.2.49-.54.76-.55a5.38 5.38 0 011.46.45zM29.54 82.64c-.53.26-.85.53-1.17.53s-.62-.28-.94-.44c.3-.2.56-.51.9-.56s.67.25 1.21.47zM26.84 72.19c-.38-.3-.83-.5-.81-.69s.53-.55.74-.52a3 3 0 011 .51zM72.05 74.86c-.37-.3-.83-.5-.81-.69s.53-.55.74-.53a3.35 3.35 0 011 .51zM48.23 97.92c-.55.27-.87.55-1.17.54s-.6-.3-.91-.47c.28-.19.52-.5.83-.53s.66.23 1.25.46zM66.76 108.23c.35.36.76.61.7.79a1.14 1.14 0 01-.86.46c-.28 0-.77-.34-.76-.52s.47-.4.92-.73zM30.28 62.18c.59-.23 1-.48 1.26-.45s.55.34.82.53c-.3.16-.59.45-.91.46s-.62-.27-1.17-.54zM48.9 60.63c-.58.25-.92.52-1.22.5s-.56-.33-.84-.51c.28-.18.55-.47.85-.49s.64.25 1.21.5zM55.71 66.27c.39.35.83.57.79.75s-.51.5-.79.5a1 1 0 01-.8-.5c-.03-.18.41-.4.8-.75zM43.46 90.19c-.42-.34-.86-.55-.85-.73s.48-.52.76-.53a1.09 1.09 0 01.82.48c.05.18-.37.42-.73.78zM244.11 38.22c-.77-.83-.14-1.18.51-1.29l1-1.19 1.08.4-.93 1.06h-.08c-.28.36-.57.71-.83 1.08-.09.14-.06.32-.16.46a2.37 2.37 0 01-.63.72 1.65 1.65 0 01-.82-.24 2 2 0 01.41-.79c.02-.09.2-.11.45-.21zM258.07 40.11c-.47.26-.82.6-1.08.57a5.46 5.46 0 01-2.27-.53 3.1 3.1 0 01-.84-1.75c0-.14.53-.51.73-.49s.89.35.85.5c-.2.87.48 1 1.56 1.09.32.02.6.34 1.05.61zM288.77 50.69c-.47-.19-.85-.25-1-.4a.91.91 0 01-.14-.8 1.28 1.28 0 01.85-.21c.29.15.42.44.61.67a4.58 4.58 0 01.44.57c.17.29.58.73.43.86a4.46 4.46 0 01-1.81 1c-.54.12-.84-.63-.35-1 .31-.24.61-.44.97-.69zM275.23 45.06c1.54-.16 2.37.48 1.83 1.47a1.45 1.45 0 01-1 .37c-.26 0-.72-.42-.66-.57.27-.61-.33-.66-.91-.82a2.79 2.79 0 01-1.15-.53c-.09-.09.4-.44.63-.67l1.12.61a.66.66 0 01.14.14zM281.7 48.73v-.12c-.21-.45-.76-1 .28-1.24.33-.07 1 .39 1.39.69.61.49.37.9-.46 1.2-.22.08-.38.24-.6.31a5 5 0 01-1.21.32c-.15 0-.56-.34-.51-.41a4.16 4.16 0 01.82-.61 1.74 1.74 0 01.29-.14zM249.63 38.44c-.07.28 0 .56-.23.75a1.29 1.29 0 01-.86.24c-.27 0-.61-.28-.64-.47-.2-1 .93-1.73 2.42-1.61a3.45 3.45 0 011.13.54 10.22 10.22 0 01-1 .51 3.18 3.18 0 01-.82.04zM271.77 43.48c-.76.56-1 .84-1.29.9a1.91 1.91 0 01-1-.24 8.51 8.51 0 01-1.39-.83.89.89 0 01-.42-.68c0-.17.39-.42.65-.45a1.88 1.88 0 01.85.29c.4.18.74.42 1.16.58s.91.27 1.44.43zM296.68 53a12.86 12.86 0 01-.72 1.81 1.35 1.35 0 01-.94.2.81.81 0 01-.48-.67 2.82 2.82 0 01.45-1.27 1.38 1.38 0 01.93-.43 1.73 1.73 0 01.76.36zM266.47 42c-.66.49-.86.77-1.16.84-.7.14-1.45.18-2.18.26 0-.24-.23-.63-.1-.69a12.46 12.46 0 012.26-.74c.28-.09.71.16 1.18.33zM260.68 40.71c0 .21.13.52 0 .59a7.26 7.26 0 01-1.34.39c-.1-.21-.32-.43-.27-.63.11-.47.14-1.06.58-1.34s1.04.06 1.03.99zM236.5 37.83l-1.32-.83a7.65 7.65 0 011.65-.62c.27 0 .68.38 1 .59zM240.77 34.89c.53.42 1.12.74 1 .88a1.67 1.67 0 01-1.1.63c-.31 0-1-.36-1-.55s.58-.52 1.1-.96zM264.11 46c-.66.26-1.08.56-1.39.52s-.83-.41-.81-.62.58-.53.92-.54.68.34 1.28.64zM308.52 60.6a4.47 4.47 0 01-1.33.52c-.28 0-.86-.39-.8-.47a1.53 1.53 0 01.89-.69c.24-.04.72.33 1.24.64zM279.9 45.79c.36.44.74.7.71.94s-.63.56-.81.52c-.38-.09-.87-.38-.89-.61s.5-.45.99-.85zM268.54 48.58a4.39 4.39 0 01-1.25.63c-.26 0-.85-.34-.82-.51a1 1 0 01.74-.65c.34-.05.79.28 1.33.53zM279.46 51.22c-.54.24-.94.53-1.17.48s-.86-.39-.86-.6.57-.57.87-.56.7.36 1.16.68zM282.24 54.23c-.59.32-1 .68-1.27.66a1.21 1.21 0 01-.87-.63c-.05-.13.5-.52.79-.53a4.58 4.58 0 011.35.5zM296.06 59.61c-.42-.37-.88-.6-.84-.78s.49-.46.76-.69c.34.2.89.38.94.6s-.45.48-.86.87zM310.94 65.52c-.41-.45-.8-.7-.81-1s.6-.56.76-.52c.37.09.85.35.89.58s-.41.51-.84.94zM262.73 40.1c.42.38.87.61.83.78s-.48.48-.74.72c-.33-.21-.84-.39-.91-.63s.41-.46.82-.87zM303.5 62.8c-.41-.41-.87-.67-.84-.9s.59-.48.95-.52.77.36.75.55-.44.48-.86.87zM288.56 55.07c.4.4.86.66.82.89s-.59.38-.92.57c-.26-.23-.68-.44-.73-.69s.42-.41.83-.77zM292.79 56c-.38-.36-.84-.61-.78-.78s.54-.44.83-.66c.31.21.85.4.87.62s-.48.5-.92.82zM257.23 44.33c-.38-.45-.77-.72-.75-1s.6-.48.91-.47.77.37.75.56-.46.51-.91.91zM303.44 56.8c-.64.29-1 .58-1.34.58s-.72-.37-.73-.57.46-.59.72-.59a4.88 4.88 0 011.35.58zM270.9 45.24c-.64.32-1 .63-1.26.59a3 3 0 01-1-.52c.25-.17.5-.47.76-.48a6.55 6.55 0 011.5.41zM285.54 51.88c.43.31.9.51.9.7s-.53.57-.73.54a1.65 1.65 0 01-1-.53c-.06-.09.44-.39.83-.71zM274.22 48.79c-.23-.21-.66-.43-.62-.62a1.09 1.09 0 01.81-.49 1.28 1.28 0 01.88.56c.08.25-.24.55-.39.82zM300.14 58.9l-1-.78c.31-.17.6-.47.92-.48a1.11 1.11 0 01.84.47c.04.19-.39.42-.76.79zM252.21 41c-.55.28-.86.56-1.15.56s-.6-.3-.9-.46c.26-.19.48-.5.78-.54s.66.22 1.27.44zM26.37 52.31c-.08.4 2 1 .26 1.63-.21.07-1.26-.64-1.64-1.08-.14-.17.52-.64.88-1a9.44 9.44 0 011.07-1 7.5 7.5 0 011 .4zM33.73 50.17a7.16 7.16 0 01.08 1.13c0 .09-.44.26-.47.24a6.57 6.57 0 01-2-1.4c-.15-.23.91-1 1.63-1.2s1.08.37.42 1.24zM46.74 43.51c.18.11.64.26.63.39a1.58 1.58 0 01-.47.85 3.12 3.12 0 01-.92.57 2.19 2.19 0 01-1.07.33A1.29 1.29 0 0144 45c-.06-.19.31-.52.61-.67.64-.33 1.33-.51 2.13-.82zM39.63 46.43a5.58 5.58 0 01-.27 1.57c-.09.18-.73.25-1.12.38-.16-.25-.53-.53-.47-.75.18-.65.3-1.45 1.87-1.15z"/><path class="cls-4" d="M39.64 46.43a3.21 3.21 0 01.66-.35c.41-.11.86-.17 1.29-.25.06.29.13.58.19.87h-1.37a3.76 3.76 0 01-.78-.26zM46.42 46.66a4.66 4.66 0 01-1.33.59c-.26 0-.83-.36-.8-.52a1.1 1.1 0 01.78-.64c.34-.02.73.29 1.35.57zM36.81 48.24c-.55.21-1 .49-1.2.44s-.83-.41-.82-.62.61-.56.91-.54.62.38 1.11.72zM40.21 48.66c.37.41.76.66.77.91s-.57.56-.73.53c-.37-.08-.89-.34-.91-.55s.45-.48.87-.89zM51.87 46.33c.41.44.81.69.81.93s-.53.52-.81.52-.85-.33-.84-.51.42-.5.84-.94zM47.31 50.68l-1-.68a2.88 2.88 0 011-.54 1 1 0 01.79.5c.02.19-.42.41-.79.72zM133.57 41.92a2.86 2.86 0 012.78-.08 2.08 2.08 0 001.37-.1c.38-.39.67-.91 1.42-.58.37.16.32.74.47 1.16l1.15.81-1 .43c-.3-.35-.61-.69-.91-1-.88-.64-.82 1.52-2.45.36-.58-.41-2.28 0-2.75-1zM165.75 44.16a3.28 3.28 0 011 .24.72.72 0 01.28.69.94.94 0 01-.71.39 2.23 2.23 0 01-.85-.44 8.71 8.71 0 01-.81-.63c-.27-.25-.49-.51-.73-.77.35-.15.77-.45 1-.4s.53.42.76.66c.06.1.04.17.06.26zM198 32.07l.4.06c.26-.49.49-.92.71-1.35.33.1.94.23.93.31a3.93 3.93 0 01-.43 1.08l-.37-.06a.71.71 0 01.06.24 2.62 2.62 0 01-.21.95 2.1 2.1 0 01-.9 0 3.24 3.24 0 01-.16-1 2.43 2.43 0 010-.27zM148.28 44.69c-.1-.21-.34-.44-.28-.64a3.58 3.58 0 01.58-.83c.34.17.83.3 1 .54a1.33 1.33 0 01.27 1.08c-.08.26-.6.45-.92.67l-1-.64zM176.81 42.49c-.23.16-.45.45-.75.48a1.4 1.4 0 01-.9-.32 1.57 1.57 0 01-.5-.86 2.17 2.17 0 01.19-.84c.43.08 1.05.07 1.25.26a4.25 4.25 0 01.71 1.28zM159.64 44.08a18.33 18.33 0 01-2 1.22c-.11.05-.68-.31-1-.48l1.77-1.43zM207.94 32.39c.57-.25 1.1-.59 1.25-.53a2 2 0 011.05.84c.06.17-.57.46-.89.71zM198 34.72c-.6.31-1 .63-1.28.62s-.64-.35-1-.54c.31-.22.56-.57.92-.62s.75.27 1.36.54zM161 41.3c-.49-.38-1-.59-1-.82s.49-.6.8-.61a1.23 1.23 0 01.92.53c.05.22-.38.49-.72.9zM172.06 43c.12-.15.19-.35.39-.44a8 8 0 011.14-.33l.39.89a13.09 13.09 0 01-1.39.14c-.19 0-.38-.18-.57-.27zM149.51 38.6c-.62.25-1 .52-1.27.48a3 3 0 01-1-.56c.31-.22.64-.62.92-.6s.77.35 1.35.68zM82.14 56.23c-.36-.36-.82-.63-.74-.77s.6-.47.93-.69c.29.22.78.45.8.68s-.52.43-.99.78z"/><path class="cls-4" d="M198 32.05a3 3 0 01-.94.24c-.37 0-1-.15-1-.3s.23-.55.37-.83a5.28 5.28 0 011.08.31c.25.13.33.4.49.6zM177.43 32.61c.44.43.87.67.86.91s-.51.4-.8.61c-.32-.21-.85-.39-.92-.63s.43-.5.86-.89zM157.53 37.46c.42.41.9.67.87.9s-.57.48-1 .54c-.2 0-.77-.35-.75-.53s.47-.49.88-.91zM195.31 40c-.52.25-.9.56-1.17.52s-.89-.37-.88-.57.55-.58.85-.58.69.31 1.2.63zM130.82 43.34c-.57.34-.91.71-1.23.7a1.27 1.27 0 01-.9-.6c-.07-.13.46-.53.75-.55a4.66 4.66 0 011.38.45zM146.91 43.65c-.51.28-.86.6-1.13.57a2.71 2.71 0 01-1-.52c.28-.22.54-.61.86-.63s.7.31 1.27.58zM128.18 44.18c-.57.27-1 .6-1.28.58s-.58-.41-.86-.64a3.18 3.18 0 011-.52c.29-.02.63.3 1.14.58zM133.16 46c-.56.25-1 .57-1.3.53s-.54-.44-.8-.68a2.93 2.93 0 011.06-.47c.28-.01.58.33 1.04.62zM82.11 46.87c.44.36 1 .63.88.74-.17.29-.61.49-.94.73-.28-.2-.78-.4-.78-.61s.43-.47.84-.86zM102.09 50.32c-.53.24-.92.54-1.15.49s-.87-.38-.88-.58.56-.58.86-.58.66.35 1.17.67zM95.35 51.83c-.54.28-.91.61-1.16.58a3 3 0 01-1-.57c.31-.21.6-.55 1-.59s.63.31 1.16.58zM89.11 53.54c-.52.3-.86.64-1.2.64s-.85-.37-.85-.59.52-.52.87-.57.65.28 1.18.52zM208.18 31.21c-.61.29-1 .57-1.31.57s-.82-.37-.78-.53a1.12 1.12 0 01.8-.63c.29-.03.68.29 1.29.59zM213.09 33.89c-.62.26-1 .55-1.35.54s-.82-.37-.78-.54a1.1 1.1 0 01.82-.6c.34-.01.7.3 1.31.6zM204.94 35.62c.33-.14.72-.43 1-.38s.62.37.92.58c-.32.2-.61.55-1 .57a3.79 3.79 0 01-1.24-.39zM176.14 37.81c.4.43.85.7.8.93s-.61.37-.95.55c-.24-.2-.7-.41-.68-.6s.43-.48.83-.88zM153.21 39.55c.46.42.92.66.9.88s-.52.43-.81.64c-.29-.19-.79-.36-.81-.56s.35-.51.72-.96zM157.1 39.57c.41.39.84.62.79.8s-.5.46-.78.69c-.31-.21-.81-.4-.86-.64s.43-.42.85-.85zM169.5 40.78c-.54.28-.93.63-1.2.59s-.59-.41-.88-.63a3 3 0 011-.52c.25-.03.58.29 1.08.56zM171.81 41.86c-.38-.43-.83-.71-.75-.91s.62-.39 1-.58c.26.22.74.44.73.65s-.52.45-.98.84zM172 43c-.15.17-.23.43-.46.5a7 7 0 01-1.25.14c0-.29-.07-.58-.1-.86a10.27 10.27 0 011.24 0 2.1 2.1 0 01.6.26zM167.84 44.31c-.36-.38-.77-.62-.76-.86s.47-.4.73-.6c.33.23.79.43.93.71.07.12-.46.44-.9.75zM162.8 43.86c-.48.33-.78.71-1.08.71s-.66-.35-1-.55a2.87 2.87 0 01.9-.61c.25-.05.65.24 1.18.45zM116.94 47.67c-.52.29-.87.64-1.18.63s-.6-.39-.9-.6a2.75 2.75 0 011-.55c.21-.04.58.27 1.08.52zM76.07 48.79c.38.46.79.74.72 1s-.6.38-.93.57c-.25-.22-.7-.43-.69-.64s.45-.51.9-.93zM166.94 39.35c-.44-.41-.85-.65-.88-.9s.46-.53.74-.54.86.29.87.46-.36.52-.73.98zM150.64 40.61c-.43.27-.79.63-1 .59s-.87-.36-.88-.57.5-.52.86-.59c.2-.04.58.32 1.02.57zM143.43 41.22c-.51.25-.84.54-1.14.52s-.89-.35-.85-.47c.09-.27.5-.48.78-.72zM150.67 44c.64-.29 1-.58 1.35-.58s.72.38.72.59-.47.57-.73.57-.7-.29-1.34-.58zM214.34 37.86c-.15-.27-.48-.58-.39-.81a1.35 1.35 0 01.92-.57c.21 0 .77.31.8.5s-.41.41-.65.62zM155.16 44.87l-.92-.85c.33-.16.67-.44 1-.43s.76.32.79.52-.44.4-.87.76zM202 30.63l-1-.77c.31-.18.6-.48.92-.49a1.11 1.11 0 01.84.47c0 .16-.42.42-.76.79zM141.68 45.42a5.1 5.1 0 01-1.43.41c-.27 0-.48-.37-.72-.58.32-.15.65-.42 1-.41s.59.29 1.15.58zM142.65 42.66l1 .7a3.1 3.1 0 01-1 .51 1 1 0 01-.76-.51c-.05-.19.4-.36.76-.7zM166 40.46c-.6.29-.92.56-1.25.57s-.64-.26-1-.41c.24-.21.46-.56.72-.58a5.77 5.77 0 011.53.42zM147.09 40.91c-.6.24-1 .51-1.25.48s-.6-.34-.9-.52c.31-.17.6-.46.92-.48s.64.25 1.23.52zM108.13 48.14c.39.34.84.56.81.74a1.07 1.07 0 01-.8.51 1.13 1.13 0 01-.85-.52c-.05-.16.43-.39.84-.73zM204.52 29.3c.34.35.77.59.72.77a1.12 1.12 0 01-.85.47c-.31 0-.77-.33-.8-.54s.48-.38.93-.7z"/></g></g></g></svg>