<svg xmlns="http://www.w3.org/2000/svg" viewBox="0 0 56.19 52.86"><defs><style>.cls-1{fill:#065977}.cls-2{fill:#00b3ea}.cls-3{fill:#feb113}</style></defs><g id="图层_2" data-name="图层 2"><g id="Layer_1" data-name="Layer 1"><path class="cls-1" d="M54 50.53V29.26h-1.36V0h-3.21c0 .83 0 1.66-.07 2.48l1.89.5-.08 2.2-2-.53c0 .4-.08.8-.13 1.2l2 .55L51 8.59 48.75 8c-.06.39-.13.79-.21 1.18l2.46.64-.08 2.18-2.84-.76-.3 1.16 3.09.83-.08 2.19-3.62-1c-.12.38-.25.75-.38 1.13l4 1.07-.08 2.19L46 17.6c-.14.37-.3.75-.46 1.11l5 1.36-.08 2.2-5.87-1.59c-.18.37-.37.73-.55 1.09l6.38 1.72-.08 2.19-7.37-2c-.2.36-.41.72-.63 1.07l7.95 2.14-.08 2.19-9.1-2.45a47.17 47.17 0 01-39 20.58v.85h13.21v-1.71h9.24v3.43H2.2v.75zm-20.36-3.44a4.81 4.81 0 01-3.2 2.59 4.6 4.6 0 110-8.87 4.29 4.29 0 012.4 6.34 4.16 4.16 0 01-4.74 1.79 4.08 4.08 0 01-2.78-4.25 3.83 3.83 0 014.37-3.35 3.77 3.77 0 01.87.25A3.63 3.63 0 0132 47.15a3.45 3.45 0 01-4.87.56 3.29 3.29 0 01-.49-4.56 3 3 0 014.87 0 2.84 2.84 0 01-.49 4 2.72 2.72 0 01-2.72.43 2.63 2.63 0 01-1.3-3.69 2.51 2.51 0 012-1.24A2.38 2.38 0 0131.24 44a2.71 2.71 0 01.18 1.42 2.09 2.09 0 01-2 1.72A2.16 2.16 0 0128 46.6a2 2 0 01-.43-2.28 1.74 1.74 0 013.15 0 1.65 1.65 0 01-1.11 2.16 1.69 1.69 0 01-1.48-.56 1.53 1.53 0 002.53 0 1.67 1.67 0 00.09-1.92 1.92 1.92 0 00-3.08-.31 2.17 2.17 0 00-.13 2.84 2.32 2.32 0 002.1.86 2.52 2.52 0 002.09-3 2.77 2.77 0 00-2.59-2.1 2.84 2.84 0 00-2.77 2.16 3 3 0 001.48 3.33 3.31 3.31 0 002.65.22 3.25 3.25 0 002-3.76 3.46 3.46 0 00-4.19-2.58 3.61 3.61 0 00-2.52 2.28A3.81 3.81 0 0028 48.69a4 4 0 005.12-5.11 4.22 4.22 0 00-6.47-2 4.31 4.31 0 00-1.85 3.82 4.69 4.69 0 002.83 4 4.8 4.8 0 005.12-1.11 4.9 4.9 0 00-.25-7 5 5 0 011.14 5.8zm18.82-6.65A8.47 8.47 0 1144 32a8.47 8.47 0 018.46 8.44z"/><path class="cls-2" d="M56.19 52.86V0h-1.46v51.23H2.2v1.63h53.99z"/><path class="cls-2" d="M44 34.88a5.53 5.53 0 105.53 5.52A5.52 5.52 0 0044 34.88z"/><path class="cls-1" d="M47.1 34.76l.35.22.2.11.22.17.25.19.27.24c.19.16.37.38.58.6a6.43 6.43 0 01.57.81 6.24 6.24 0 01.82 2.21 6.49 6.49 0 01-.13 2.79 6.75 6.75 0 01-.24.72 2.72 2.72 0 01-.16.35c-.06.11-.1.24-.17.35a5.74 5.74 0 01-.43.66l-.23.32a4.12 4.12 0 00-.28.31l-.14.15-.15.13-.3.28-.34.25-.17.12-.18.11a6.33 6.33 0 01-1.54.7 6.4 6.4 0 01-8-4.49 6.27 6.27 0 01-.1-3.06 6.63 6.63 0 011.2-2.56 6.5 6.5 0 011.78-1.55 5.9 5.9 0 011.69-.7 2.21 2.21 0 01.35-.08h.81L44 34v-.5h-1.32l-.37.09a6.63 6.63 0 00-1.82.75 6.74 6.74 0 00-1.91 1.68 6.91 6.91 0 00-1.25 6 7 7 0 001.78 3.1 6.87 6.87 0 003.2 1.81A7.1 7.1 0 0046 47a7.29 7.29 0 001.65-.76l.2-.12.18-.13.36-.27.33-.3.16-.14.15-.17.3-.32c.09-.11.17-.23.26-.35a6.62 6.62 0 00.46-.71c.07-.12.13-.25.19-.38a3.17 3.17 0 00.17-.38 7.75 7.75 0 00.26-.77 7 7 0 00.14-3 6.78 6.78 0 00-.81-2.35 6.66 6.66 0 00-.61-.87 6.57 6.57 0 00-.63-.65l-.29-.26c-.09-.08-.18-.14-.27-.21l-.24-.17-.2-.13-.39-.24z"/><path class="cls-2" d="M44 33.17H45.39l.39.09A7.25 7.25 0 0151 42.27a7.41 7.41 0 01-1.86 3.25 7.32 7.32 0 01-3.36 1.9 7.18 7.18 0 01-5.6-.87l-.2-.12-.19-.14-.33-.29-.35-.31-.17-.16a1.29 1.29 0 01-.16-.17l-.31-.36-.27-.36a7.43 7.43 0 01-.49-.75c-.07-.13-.13-.26-.19-.39a3.52 3.52 0 01-.18-.4 6.41 6.41 0 01-.27-.81 7.19 7.19 0 01-.15-3.14 7.11 7.11 0 01.92-2.5 7.63 7.63 0 01.65-.91 6.13 6.13 0 01.65-.68l.31-.28.28-.21.25-.19.22-.13.4-.24-.12-.22-.41.25-.23.14-.25.19-.3.23c-.1.08-.2.18-.31.28a7.62 7.62 0 00-.68.7 8.14 8.14 0 00-.67.94 7.55 7.55 0 00-1 2.59 7.65 7.65 0 00.16 3.24 6.36 6.36 0 00.28.84 3.75 3.75 0 00.19.41 3.11 3.11 0 00.2.41 7.8 7.8 0 00.5.77c.1.13.19.26.29.38l.31.35.17.17.17.17.36.32.39.29.2.14.2.13a7.72 7.72 0 001.8.82 7.53 7.53 0 007.46-1.89 7.44 7.44 0 001.92-3.36 7.29 7.29 0 00.06-3.62 7.48 7.48 0 00-1.41-2.93A7.35 7.35 0 0047.85 34a6.91 6.91 0 00-2-.81 3.34 3.34 0 00-.4-.1l-.34-.09h-1.07z"/><path class="cls-3" d="M38.3 40v-.06a.69.69 0 010-.18v-.27a1.51 1.51 0 01.06-.35 5.54 5.54 0 01.74-1.77 6 6 0 011.26-1.43 5 5 0 01.52-.37l.2-.13-.16-.44-.22.13c-.15.08-.33.24-.56.4a6.63 6.63 0 00-1.36 1.55A5.88 5.88 0 0038 39a2.79 2.79 0 00-.07.38c0 .11 0 .21-.05.29a1.49 1.49 0 000 .19V40zM40.72 45.12l-.19-.12a5.64 5.64 0 01-1.62-2 5.32 5.32 0 01-.57-1.83v-.18a1 1 0 010-.17v-.28-.24h-.45v.06a1.42 1.42 0 000 .19v.3a1.09 1.09 0 010 .18v.21a6 6 0 00.62 2 6.4 6.4 0 001.23 1.66 4.89 4.89 0 00.52.44l.21.16zM46.38 45.68a.94.94 0 01-.22.09l-.26.1-.16.06h-.18c-.13 0-.27.08-.41.1l-.47.07a5.87 5.87 0 01-1 0 6.2 6.2 0 01-1.86-.44c-.24-.12-.44-.2-.57-.28l-.2-.13-.24.38.22.14c.14.08.36.17.61.3a6.32 6.32 0 002 .47 6.84 6.84 0 001.11 0l.5-.08.44-.11h.2l.17-.06.28-.1a1.13 1.13 0 00.24-.1zM49.77 41.12v.24a1.76 1.76 0 010 .27c0 .1 0 .22-.08.35a6.2 6.2 0 01-.82 1.72c-.11.14-.21.29-.32.42s-.23.25-.34.37l-.35.32c-.11.1-.23.18-.33.26l-.15.11-.15.09-.24.15a.56.56 0 01-.15.08h-.06l.21.4h.06l.17-.1.25-.15.16-.1.16-.12c.11-.09.24-.17.36-.28l.38-.34.36-.4c.12-.14.23-.3.34-.45A6.2 6.2 0 0050 42.1c0-.14.07-.27.1-.38a2 2 0 00.05-.29v-.26zM47.6 35.87l.14.12.2.18.13.12.12.14a5.45 5.45 0 011.07 1.59 6 6 0 01.48 1.85v.35a.66.66 0 000 .15.62.62 0 000 .13v.24h.44v-.34a.92.92 0 000-.16v-.38a6.55 6.55 0 00-.53-2 5.79 5.79 0 00-1.14-1.71l-.08-.15-.14-.12-.21-.2a1 1 0 00-.15-.12h-.06zM0 48.79h24.56v.26H0zM53.76 0h.26v29.26h-.26zM28.53 45a.67.67 0 10.66-.67.67.67 0 00-.66.67z"/><path class="cls-2" d="M16.27 47.85a.06.06 0 00.06.06h1v.14h-1.19v-.64h1a.07.07 0 00.07-.06v-.28a.07.07 0 00-.07-.06h-.79a.06.06 0 00-.06.06h-.13a.19.19 0 01.19-.2h.79a.2.2 0 01.2.2v.28a.2.2 0 01-.2.2h-.79a.06.06 0 00-.06.06zM18.6 47.52a.19.19 0 010 .08v.25a.2.2 0 01-.2.2h-.74a.2.2 0 01-.2-.2h.14a.06.06 0 00.06.06h.74a.06.06 0 00.06-.06v-.25a.06.06 0 00-.06-.06h-.71v-.13h.76a.07.07 0 00.06-.07v-.27a.06.06 0 00-.06-.06h-.79a.06.06 0 00-.06.06h-.14a.2.2 0 01.2-.2h.79a.2.2 0 01.2.2v.27a.21.21 0 01-.07.15zM19 47.55a.07.07 0 00-.06.07v.23a.06.06 0 00.06.06h.78v.14H19a.2.2 0 01-.2-.2v-.78a.2.2 0 01.2-.2h.79a.2.2 0 01.2.2v.28a.2.2 0 01-.2.2zm.85-.48a.06.06 0 00-.06-.06H19a.06.06 0 00-.06.06v.35h.85a.07.07 0 00.06-.07zM21.28 47.52a.19.19 0 010 .08v.25a.19.19 0 01-.19.2h-.74a.2.2 0 01-.2-.2h.14a.06.06 0 00.06.06h.74a.06.06 0 00.06-.06v-.25a.06.06 0 00-.06-.06h-.71v-.13h.76a.07.07 0 00.06-.07v-.27a.06.06 0 00-.06-.06h-.79a.06.06 0 00-.06.06h-.14a.2.2 0 01.2-.2h.79a.2.2 0 01.2.2v.27a.21.21 0 01-.07.15zM21.71 48.05a.2.2 0 01-.2-.2v-.05h.14v.05a.06.06 0 00.06.06h.79a.06.06 0 00.06-.06v-.27a.07.07 0 00-.06-.07h-.79a.19.19 0 01-.2-.2v-.44h1.19V47h-1a.06.06 0 00-.06.06v.24s0 .07.06.07h.79a.2.2 0 01.2.2v.27a.2.2 0 01-.2.2zM23.06 47.55a.07.07 0 00-.06.07v.23a.06.06 0 00.06.06h.78v.14h-.78a.2.2 0 01-.2-.2v-.78a.2.2 0 01.2-.2h.79a.2.2 0 01.2.2v.28a.2.2 0 01-.2.2zm.85-.48a.06.06 0 00-.06-.06h-.79a.06.06 0 00-.06.06v.35h.85a.07.07 0 00.06-.07z"/></g></g></svg>