<svg xmlns="http://www.w3.org/2000/svg" viewBox="0 0 562 532.53"><defs><style>.cls-2{fill:#5fffe8}</style></defs><g id="图层_2" data-name="图层 2"><g opacity=".8" id="央铋_1" data-name="央铋 1"><path class="cls-2" d="M273.04 0h7.06v25.24h-7.06z"/><path class="cls-2" transform="rotate(-6 254.126 13.988)" d="M250.46 1.34h7.07v25.24h-7.07z"/><path class="cls-2" transform="rotate(-12.02 231.654 17.666)" d="M228.14 5.04h7.07v25.24h-7.07z"/><path class="cls-2" transform="rotate(-18.01 209.842 23.68)" d="M206.34 11.05h7.06v25.24h-7.06z"/><path class="cls-2" d="M197.18 42.01l-6.46 2.88-10.27-23.06 6.46-2.88 10.27 23.06zM178.11 51.5l-6.12 3.52-12.63-21.85 6.12-3.54 12.63 21.87z"/><path class="cls-2" transform="rotate(-35.99 149.872 54.791)" d="M146.31 42.16h7.07V67.4h-7.07z"/><path class="cls-2" transform="rotate(-42.05 132.36 69.134)" d="M128.83 56.52h7.07v25.24h-7.07z"/><path class="cls-2" d="M128.23 91.06l-4.73 5.25-18.76-16.88 4.73-5.25 18.76 16.88z"/><path class="cls-2" transform="rotate(-54.04 102.385 102.928)" d="M98.84 90.3h7.07v25.24h-7.07z"/><path class="cls-2" transform="rotate(-59.96 90.2 121.98)" d="M86.66 109.36h7.07v25.24h-7.07z"/><path class="cls-2" transform="rotate(-65.98 80.062 142.207)" d="M76.53 129.58h7.07v25.24h-7.07z"/><path class="cls-2" transform="rotate(-71.99 72.101 163.374)" d="M68.57 150.76h7.07V176h-7.07z"/><path class="cls-2" transform="rotate(-78.03 66.4 185.268)" d="M62.88 172.65h7.07v25.24h-7.07z"/><path class="cls-2" transform="rotate(-83.99 63.022 207.634)" d="M59.49 195.01h7.07v25.24h-7.07z"/><path class="cls-2" d="M49.38 226.69h25.24v7.07H49.38z"/><path class="cls-2" transform="rotate(-6 63.285 252.818)" d="M50.72 249.28h25.24v7.07H50.72z"/><path class="cls-2" transform="rotate(-11.96 67.016 275.13)" d="M54.42 271.59h25.24v7.07H54.42z"/><path class="cls-2" transform="rotate(-18.01 73.06 296.975)" d="M60.43 293.4h25.24v7.07H60.43z"/><path class="cls-2" transform="rotate(-24.04 81.282 317.94)" d="M68.68 314.46h25.24v7.07H68.68z"/><path class="cls-2" transform="rotate(-30.04 91.694 338.045)" d="M79.09 334.54h25.24v7.07H79.09z"/><path class="cls-2" transform="rotate(-36 104.14 356.931)" d="M91.54 353.42h25.24v7.07H91.54z"/><path class="cls-2" d="M125.54 363.36l4.73 5.25-18.76 16.9-4.74-5.26 18.77-16.89zM453.3 332.19l3.53-6.12 21.86 12.62-3.54 6.13-21.85-12.63z"/><path class="cls-2" transform="rotate(-66.05 476.126 315.218)" d="M472.58 302.6h7.07v25.24h-7.07z"/><path class="cls-2" transform="rotate(-72 484.988 294.307)" d="M480.54 281.42h7.07v25.24h-7.07z"/><path class="cls-2" transform="rotate(-78.04 489.774 272.157)" d="M486.25 259.53h7.07v25.24h-7.07z"/><path class="cls-2" d="M480.24 251.98l.74-7.03 25.1 2.65-.74 7.03-25.1-2.65zM481.57 230.72l-.01-7.06h25.24v7.07l-25.23-.01zM480.67 209.44l-.75-7.03 25.11-2.63.73 7.04-25.09 2.62z"/><path class="cls-2" transform="rotate(-12.07 489.126 182.315)" d="M476.53 178.76h25.24v7.07h-25.24z"/><path class="cls-2" d="M472.23 167.75l-2.19-6.72 24.01-7.8 2.18 6.73-24 7.79z"/><path class="cls-2" transform="rotate(-24.03 474.8 139.434)" d="M462.26 135.89h25.24v7.07h-25.24z"/><path class="cls-2" d="M455.31 128.71l-3.54-6.11 21.87-12.62 3.53 6.13-21.86 12.6z"/><path class="cls-2" transform="rotate(-36.04 452.01 100.47)" d="M439.4 96.93h25.24V104H439.4z"/><path class="cls-2" transform="rotate(-42.03 437.666 82.985)" d="M425.04 79.45h25.24v7.07h-25.24z"/><path class="cls-2" d="M415.74 78.85l-5.26-4.73 16.89-18.76 5.27 4.74-16.9 18.75zM399.32 65.28l-5.72-4.15 14.84-20.43 5.72 4.17-14.84 20.41z"/><path class="cls-2" transform="rotate(-60.01 384.82 40.813)" d="M372.2 37.27h25.24v7.07H372.2z"/><path class="cls-2" d="M362.69 43.65l-6.46-2.87 10.27-23.07 6.47 2.88-10.28 23.06zM342.88 35.82l-6.73-2.18 7.82-24.01 6.72 2.19-7.81 24zM322.36 30.1l-6.91-1.46 5.25-24.7 6.93 1.48-5.27 24.68zM301.37 26.56l-7.04-.73L296.98.72l7.03.75-2.64 25.09zM450.6 447.25l-6.12-7.76-4.78-6.08Q432.22 439 424.33 444a258.86 258.86 0 01-67.55 30.22q1.16 3.64 2.33 7.29a267.3 267.3 0 0069.55-31.12l11 16.32 2.39-1.53q7.45-4.86 14.6-10.22C519 408.23 562 332.8 562 228.71h-9.72c0 100.53-41.52 173.37-101.68 218.54z"/><path class="cls-2" d="M256.92 506.43q.36-4.64.71-9.27a289.59 289.59 0 01-100.23-25.11c1.9-3.81 3.8-7.64 5.7-11.46 45.44 20.76 97 28.39 146.92 22.88l-2.18-17.63a268 268 0 01-56.49.24l.48-4.2a263 263 0 0068.36-2q1.15 6.45 2.33 12.91c8.09-1.3 16.12-3 24-5L343 455.16a245 245 0 0036.7-12.53q-2.91-6.17-5.83-12.33c-45.09 19.53-96.75 24.32-145.06 14.37q-1.36 5.91-2.72 11.83c-.11.46-.21.92-.32 1.38-.32 1.38-.63 2.75-.95 4.13-44.61-9.2-86.58-30-119.23-62.5l-12.86 12.7a239.22 239.22 0 0053.43 39.85l-6.54 11C64.51 421.78 9.3 343.66 9.3 228.71H0c0 166.12 111.48 257.91 234.7 275.38q-.87 5.45-1.73 10.87-9.85-1.4-19.59-3.41-1.62 7-3.23 14.05C338.44 552 483.86 502.83 548.37 378l-12.76-7.05C481.22 476.19 366.46 525 256.07 517.39c.28-3.65.57-7.31.85-10.96z"/><path class="cls-2" d="M301.21 511.44A309.58 309.58 0 00382 494.73q-1.78-4.56-3.55-9.12a298.74 298.74 0 01-78 16.13zM73.1 431.56l-4.28 4.23-2.76 2.72a262.71 262.71 0 01-54.44-78.78L2 364.45A271.82 271.82 0 0075.87 462l3.52-4.05c1.18-1.36 2.35-2.7 3.52-4.06l2.54-2.89a277.53 277.53 0 0062.83 39.43q1.32-2.68 2.66-5.35a271.71 271.71 0 01-61.54-38.66q-8.4-7.07-16.3-14.86z"/></g></g></svg>