<svg xmlns="http://www.w3.org/2000/svg" viewBox="0 0 101.2 86.68"><defs><style>.cls-2{fill:#fff}.cls-3{mix-blend-mode:screen}.cls-4{fill:#666}</style></defs><g style="isolation:isolate"><g id="图层_2" data-name="图层 2"><g id="Elements"><path class="cls-2" d="M50.63 86.68A43.28 43.28 0 1169 82.54a43.11 43.11 0 01-18.37 4.14zm-.06-85.41a42.26 42.26 0 00-39.66 27.92 42.18 42.18 0 0057.66 52.44 42.2 42.2 0 00-18-80.36z"/><path class="cls-2" d="M50.62 71.71A28.3 28.3 0 0141.05 70 28.23 28.23 0 0124 33.92a28.22 28.22 0 1126.62 37.79zM26.87 34.93a25.22 25.22 0 1032.27-15.19 25.08 25.08 0 00-32.27 15.19z"/><path class="cls-2" d="M15.15 79.64l-.35-.36a50.67 50.67 0 010-71.62l.36-.35L26 18.2a35.4 35.4 0 0136.49-7.89 34.93 34.93 0 0112.68 7.89L86.06 7.31l.35.35a50.89 50.89 0 0111.83 53 50.09 50.09 0 01-11.83 18.62l-.35.35-10.89-10.88a35.43 35.43 0 01-36.5 7.88A35 35 0 0126 68.75zm0-70.91A49.18 49.18 0 003.9 26.67a49.91 49.91 0 0011.25 51.55L26 67.33l.36.36a33.92 33.92 0 0012.62 8 34.41 34.41 0 0035.81-8l.35-.35 10.91 10.88A49.22 49.22 0 0097.3 60.27 49.85 49.85 0 0086.05 8.73L75.17 19.61l-.35-.35a33.94 33.94 0 00-12.63-8 34.4 34.4 0 00-35.8 8l-.36.35z"/><path class="cls-2" d="M25.2 80.8A45.16 45.16 0 0138.4 0l1.35 4.81A40.15 40.15 0 0028 76.66zM95.68 46.12l-5-.3A40.1 40.1 0 0082.4 19l4-3.05a45.21 45.21 0 019.31 30.21zM66.24 85.83l-1.73-4.69a40.13 40.13 0 0023.77-23.8L93 59.06a45.16 45.16 0 01-26.76 26.77zM74.87 11.48l-1-.75a40.53 40.53 0 00-6.22-3.62l2.12-4.53a45.1 45.1 0 017 4.08c.39.27.77.55 1.15.84zM50.1 7.21h1v3.02h-1z"/><path class="cls-2" transform="rotate(-60 20.507 26.1)" d="M20 24.59h1v3.02h-1z"/><path class="cls-2" transform="rotate(-75 17.028 34.475)" d="M16.53 32.97h1v3.02h-1z"/><path class="cls-2" d="M14.34 42.97h3.02v1h-3.02z"/><g class="cls-3"><path class="cls-4" transform="rotate(-15.06 17.04 52.478)" d="M15.52 51.97h3.02v1h-3.02z"/></g><g class="cls-3"><path class="cls-4" transform="rotate(-29.99 20.507 60.87)" d="M18.99 60.35h3.02v1h-3.02z"/></g><path class="cls-2" d="M50.1 76.72h1v3.02h-1z"/><path class="cls-2" transform="rotate(-60 80.705 60.855)" d="M80.2 59.34h1v3.02h-1z"/><path class="cls-2" transform="rotate(-75 84.172 52.465)" d="M83.67 50.96h1v3.02h-1z"/><path class="cls-2" d="M83.85 42.97h3.02v1h-3.02z"/><path class="cls-2" transform="rotate(-15.06 84.153 34.485)" d="M82.66 33.98h3.02v1h-3.02z"/><g class="cls-3"><path class="cls-4" transform="rotate(-29.99 80.715 26.101)" d="M79.19 25.6h3.02v1h-3.02z"/></g></g></g></g></svg>