<svg xmlns="http://www.w3.org/2000/svg" viewBox="0 0 49.31 9.55"><defs><style>.cls-1,.cls-2{fill:#00b8de;fill-rule:evenodd}.cls-2{fill:#ff7000}</style></defs><g id="图层_2" data-name="图层 2"><g id="Layer_1" data-name="Layer 1"><path class="cls-1" d="M4.57 1.98h24.07l.37-.39h-10.9L19.7 0h22.57L38.9 3.38l2.02 2.04H35.7l.38.37h6.96l3.76 3.76H28.79l-1.02-1H2.01L0 6.55l4.57-4.57z"/><path class="cls-2" d="M49.31 4.94L47.57 3.2l1.74-1.74v3.48zM46.13 4.94L44.39 3.2l1.74-1.74v3.48zM42.96 4.94L41.22 3.2l1.74-1.74v3.48z"/><path class="cls-1" d="M26.85 9.55h-1.67l-1.33-1.33h1.67l1.33 1.33zM23.15 9.55h-1.64l-1.34-1.33h1.67l1.31 1.33zM19.47 9.55H17.8l-1.34-1.33h1.68l1.33 1.33zM15.78 9.55h-1.67l-1.34-1.33h1.67l1.34 1.33zM12.08 9.55h-1.66L9.08 8.22h1.67l1.33 1.33zM8.38 9.55H6.71L5.38 8.22h1.67l1.33 1.33zM4.69 9.55H3.02L1.69 8.22h1.67l1.33 1.33z"/></g></g></svg>