<svg xmlns="http://www.w3.org/2000/svg" viewBox="0 0 154.67 156.81"><defs><style>.cls-1{fill:#00b4eb}.cls-1,.cls-2,.cls-7{stroke:#00b4eb}.cls-1,.cls-2,.cls-7,.cls-8{stroke-miterlimit:10}.cls-1,.cls-2{stroke-width:1.27px}.cls-2,.cls-7,.cls-8{fill:none}.cls-8{stroke:#fff}.cls-7,.cls-8{stroke-width:.63px}</style></defs><g id="图层_2" data-name="图层 2"><g id="Layer_2" data-name="Layer 2"><path class="cls-1" d="M147.04 22.66v72.78l-3.87-3.86V26.27l3.87-3.61z"/><path class="cls-2" d="M147.04 95.46v-.02M143.17 26.27v65.31l3.87 3.86v.02l1.87 1.86v5.95l-18.24 18.24v8.38l6.83 6.82v12.82H93.15l-7.36-7.36-14.02 14.01H16.39L.63 140.42V56.15L56.15.63h87.25l10.64 10.65v4.86l-7 6.52-3.87 3.61z"/><path class="cls-1" d="M56.15.64H45.59L20.26 25.97v10.52L56.15.64z"/><path d="M110.09 105.29A42.38 42.38 0 1177.34 36a42.92 42.92 0 017.82.72" stroke-width="10.13" stroke-dasharray="21.32 1.78 0 0" opacity=".5" fill="none" stroke-miterlimit="10" stroke="#00b4eb"/><path d="M97.33 41a42.41 42.41 0 0117.79 56.58" stroke-width="7" stroke-dasharray="1 10 0 0" stroke="#fff" fill="none" stroke-miterlimit="10"/><path d="M97.33 41a42.41 42.41 0 0117.79 56.58" stroke-width="3" stroke-dasharray=".5 5 0 0" stroke="#fff" fill="none" stroke-miterlimit="10"/><path d="M101.2 98a30.87 30.87 0 11-23.86-50.46 31.36 31.36 0 015.69.52" stroke="#fa0" stroke-width="5.06" stroke-dasharray="1.27 1.27 2.53 6.33" fill="none" stroke-miterlimit="10"/><path class="cls-7" d="M130.71 24.47l8.38-12.4"/><path class="cls-8" d="M129.54 24.47h-3.16"/><path stroke-dasharray=".01 0" stroke-width=".63" stroke="#fff" fill="none" stroke-miterlimit="10" d="M125.09 24.47h-.01"/><path stroke-dasharray="6.5 1.29 .01 0" stroke-width=".63" stroke="#fff" fill="none" stroke-miterlimit="10" d="M125.08 24.47H54.87"/><path class="cls-8" d="M54.87 24.47h-3.16l-2.24 2.23"/><path stroke-dasharray="0 0" stroke-width=".63" stroke="#fff" fill="none" stroke-miterlimit="10" d="M48.76 27.42h-.01"/><path stroke-dasharray="5.09 1.01 0 0" stroke-width=".63" stroke="#fff" fill="none" stroke-miterlimit="10" d="M48.75 27.42l-6.8 6.81-1.85 1.84"/><path class="cls-8" d="M40.1 36.07l-2.23 2.24 2.23 2.23"/><path stroke-dasharray=".03 0" stroke-width=".63" stroke="#fff" fill="none" stroke-miterlimit="10" d="M42.56 43l.02.02"/><path class="cls-8" d="M42.58 43.02l2.24 2.24"/><path class="cls-7" d="M25.4 118.16l17.09 17.09"/><path class="cls-2" d="M11.63 114.4l34.19 34.2"/><path class="cls-7" d="M17.41 129.78l12.97 12.97"/></g></g></svg>