<svg xmlns="http://www.w3.org/2000/svg" viewBox="0 0 237.55 173.76"><defs><style>.cls-2,.cls-4{mix-blend-mode:overlay}.cls-3,.cls-4{fill:#ffec9d}</style></defs><g style="isolation:isolate"><g id="图层_2" data-name="图层 2"><g id="图层_1-2" data-name="图层 1"><g class="cls-2"><path class="cls-3" d="M24.93 158.39h1.54v4.1h-1.54zM26.98 158.39h1.54v4.1h-1.54zM29.03 158.39h1.54v4.1h-1.54zM31.08 158.39h1.54v4.1h-1.54zM33.13 158.39h1.54v4.1h-1.54zM35.18 158.39h1.54v4.1h-1.54zM37.23 158.39h1.54v4.1h-1.54zM39.28 158.39h1.54v4.1h-1.54zM41.33 158.39h1.54v4.1h-1.54zM198.09 42l.36-.36 1.81 1.81a4.85 4.85 0 001.4-2.93h-2.54v-.51h2.57a4.85 4.85 0 00-1.26-3.26l-1.62 1.63-.36-.37 1.62-1.62a4.86 4.86 0 00-3-1.24v2.29h-.51v-2.25a4.9 4.9 0 00-2.8 1.07l1.43 1.43-.36.36-1.45-1.44a4.8 4.8 0 00-1.4 2.92h2v.52H192a4.86 4.86 0 00.93 2.85l1.58-1.59.37.37-1.68 1.62a4.88 4.88 0 002.85 1.55v-2.24h.51v2.29h.26a4.83 4.83 0 003.06-1.08zM203.22 40.05h10.25v.51h-10.25zM196.56 23.14h.51v10.25h-.51zM179.66 39.53h10.25v.51h-10.25zM196.05 46.71h.51v10.25h-.51zM80.37 164.03H58.23v-.51h21.93l7.3-7.18h15.35v.52H87.67l-7.3 7.17z"/><path class="cls-3" d="M73.2 167.62H60.28v-.52h12.7l6.98-7.17h26.43v.51H80.18l-6.98 7.18zM155.06 158.91h-27.58l-2.82-2.83.36-.36 2.68 2.67h27.36v.52zM169.79 162.6l-3.25-3.26.36-.36 2.89 2.89 14.49-14.48.36.36-14.85 14.85zM177.85 161.01l-.36-.36 5.39-5.33h4.35l6.08-6.07.36.36-6.22 6.22h-4.36l-5.24 5.18zM175.42 159.15l-.36-.36 5-5.01h3.33l10.75-10.75.36.37-10.9 10.89h-3.33l-4.85 4.86z"/><circle class="cls-3" cx="102.55" cy="156.47" r="1.28"/><circle class="cls-3" cx="106.14" cy="160.06" r="1.28"/><circle class="cls-3" cx="60.03" cy="167.74" r="1.28"/><circle class="cls-3" cx="57.98" cy="163.65" r="1.28"/><circle class="cls-3" cx="13.41" cy="125.22" r="1.28"/><circle class="cls-3" cx="16.48" cy="99.6" r="1.28"/><circle class="cls-3" cx="13.41" cy="103.19" r="1.28"/><circle class="cls-3" cx="12.89" cy="80.65" r="1.28"/><circle class="cls-3" cx="15.97" cy="75.01" r="1.28"/><circle class="cls-3" cx="20.07" cy="104.73" r="1.28"/><circle class="cls-3" cx="105.62" cy="37.61" r="1.28"/><circle class="cls-3" cx="113.31" cy="44.79" r="1.28"/><circle class="cls-3" cx="129.7" cy="42.22" r="1.28"/><circle class="cls-3" cx="124.07" cy="40.17" r="1.28"/><circle class="cls-3" cx="129.7" cy="39.15" r="1.28"/><circle class="cls-3" cx="137.39" cy="35.56" r="1.28"/><circle class="cls-3" cx="144.05" cy="33" r="1.28"/><circle class="cls-3" cx="167.62" cy="30.44" r="1.28"/><circle class="cls-3" cx="125.09" cy="155.96" r="1.28"/><circle class="cls-3" cx="154.81" cy="158.52" r="1.28"/><circle class="cls-3" cx="166.59" cy="159.03" r="1.28"/><circle class="cls-3" cx="184.52" cy="147.76" r="1.28"/><circle class="cls-3" cx="175.3" cy="159.03" r="1.28"/><circle class="cls-3" cx="194.26" cy="143.15" r="1.28"/><circle class="cls-3" cx="197.84" cy="103.7" r="1.28"/><circle class="cls-3" cx="202.45" cy="103.7" r="1.28"/><circle class="cls-3" cx="236.27" cy="143.66" r="1.28"/><circle class="cls-3" cx="232.68" cy="143.66" r="1.28"/><circle class="cls-3" cx="193.23" cy="149.3" r="1.28"/><circle class="cls-3" cx="177.86" cy="161.08" r="1.28"/><path class="cls-3" d="M232.37 143.59l-25.56-25.56v-4.61l-10.17-10.09.36-.36 10.32 10.23v4.61l25.41 25.42-.36.36z"/><path class="cls-3" d="M235.83 143.97l-21.85-21.84v-3.47l-4.61-4.74v-3.19l-7-6.94.36-.37 7.15 7.09v3.21l4.61 4.74v3.45l21.7 21.7-.36.36zM20.32 104.6h-.51V92.92l-4.1-4.31V74.89h.51V88.4l4.1 4.31v11.89zM13.66 125.09h-.51v-6.29l3.07-3.04V100.5h.52v15.48l-3.08 3.03v6.08zM7.21 126.08l11.44 11.44c.17.18.45-.09.27-.27L7.48 125.81c-.18-.17-.45.1-.27.27zM7.21 128.64l11.44 11.45c.17.17.45-.1.27-.28L7.48 128.37c-.18-.17-.45.1-.27.27zM7.21 131.21l11.44 11.44c.17.17.45-.1.27-.27L7.48 130.93a.19.19 0 00-.27.28zM7.21 133.77l11.44 11.44c.17.17.45-.1.27-.27L7.48 133.5a.19.19 0 10-.27.27zM13.15 80.52h.51v22.54h-.51zM124.32 40.56h-15.98l-2.76-2.63.35-.38 2.62 2.5h15.77v.51zM113.1 44.59l-.35-.37L115 42.1h14.45v.51H115.2l-2.1 1.98zM137.57 35.87l-.36-.36 5.2-5.2h25.46v.51h-25.25l-5.05 5.05z"/><path class="cls-3" d="M137.88 39.53h-8.43v-.51h8.22l6.2-6.2.36.36-6.35 6.35zM24.42 68.22L19.3 63.1v-2.56l5.12 5.12v2.56zM24.42 64.13L19.3 59v-2.56l5.12 5.12v2.57zM24.42 60.03L19.3 54.9v-2.56l5.12 5.13v2.56zM24.42 55.93L19.3 50.8v-2.56l5.12 5.13v2.56z"/></g><path class="cls-4" d="M76.81 35.69l3.59 4.87H57.49l-3.5-3.08H41.42l-8.8 8.14v14.62l-6.15 6.07v14.44L11.1 96.4V66.73l6.15-6.41V47.93l-4.1-4.02V33.9h28.61l3.68-3.59h9.32l5.73 5.56 16.32-.18zM170.67 158.61l11.55 11.57h8.71v-15.89l14.34-14.55v-25.92l-10.76-10.63v17.29l8.71 8.84v8.58l-3.5 3.89-6.25-6.45-11.69 11.97-11.11 11.3zM207.83 55.45V27.24h-15.35l-3 3.07H164.1l-4.7-4.61h-19.24L126.91 39h-10.26l-5.81-5.12H78l4 3.58h15.59l10.85 11.28h10.35l5.38-5.64h10.52l4.87-4.61h11.54l4.19-4.1h18.9l26.47 26.51v15.15l-3.07 3v17.18l4.61-4.53v11l4.61 4.36V85.8l-4.1-3.68V60.49zm-11.1-9.09a6.49 6.49 0 116.49-6.48 6.49 6.49 0 01-6.49 6.48zM167.26 156.86h-36.84l-5.22-5.13H79.63l-6.41 6.15H59l-4.53-4.1H41.16L23.4 136.15v-5.73l-6.66-6.92v-11.71l4.61-4.71V89.47l-9.41 9.15v15l-7 7.09v18.55l12.81 12.91v15.91h33.5l5.56 5.63H81L92.71 162h24.71l6.75 7.17h17.7l8.64-8.71h13.93l6.92 6.66H178zM49.52 163H25.45a2.56 2.56 0 110-5.12h24.07a2.56 2.56 0 110 5.12z"/><path class="cls-4" d="M126.85 27.79l6.69 6.62h27.11l7.79 7.69h22.18l5.43 5.31v23.61l-7.68 7.79v29.31l19.73 19.92 3.32-3.51V42l-6.66-6.72V24.16h-19.37l-2.8 3.08h-18.61l-2.44-2.56h-37.78l3.09 3.11z"/><g class="cls-2"><circle class="cls-3" cx="46.07" cy="37.36" r="1.67"/><circle class="cls-3" cx="49.14" cy="74.24" r="1.67"/><path class="cls-3" d="M79.75 117.92h-.51v-11.94L65.92 92.41v-4.74l-7.79-7.66H43.65l-7.55-7.69h-6.4l-8.21-7.69.35-.37 8.06 7.55h6.41l7.56 7.69h14.47l8.09 7.96v4.74l13.32 13.58v12.14z"/><path class="cls-3" d="M83.85 110.23h-.51v-20L68.89 75.91H47.63L37.12 65.72l.35-.37L47.84 75.4H69.1l14.75 14.62v20.21zM87.13 90.82L72.07 75.63v-6.27l-8.89-8.9.36-.36 9.04 9.04v6.28l14.91 15.04-.36.36zM66.76 72.25l-7.5-7.51v-8.71l-7.61-7.61.36-.36 7.76 7.76v8.71l7.36 7.36-.37.36z"/><path class="cls-3" d="M60.48 71.86l-4.81-4.94v-8.84L42.68 45.09l.37-.36 13.14 13.14v8.84l4.66 4.79-.37.36zM49.22 74.68l-9.02-9.02H29.57l-7.51-7.37.36-.37 7.36 7.23h10.63l9.17 9.17-.36.36zM80.6 101.96L70.53 91.9v-5.64l-4.28-4.15.36-.36 4.43 4.3v5.64l9.92 9.91-.36.36zM101.73 94.02l-18.9-18.9V63.21L70.48 50.86l.36-.36 12.5 12.49v11.92l18.75 18.75-.36.36z"/><path class="cls-3" d="M76.93 61.92l-9.07-9.07h-3.99v-.51h4.21l9.21 9.22-.36.36zM90 99.99h-.51V88.31L78.22 77.04v-7.17l-7.81-7.68.36-.36 7.96 7.82v7.18L90 88.1v11.89z"/><path class="cls-3" d="M87.44 68.22h-.52V56.03l-9.84-9.84H54.54l-8.07-8.07.36-.36 7.92 7.92H77.3l10.14 10.14v12.4z"/><path class="cls-3" d="M90 66.17h-.51v-6.12l3.07-3.2v-4.02l-9.72-9.59.36-.37 9.87 9.75v4.44L90 60.26v5.91zM53.06 66.48L42.87 56.16v-4.74l-7.61-7.61.36-.36 7.76 7.76v4.74l10.04 10.17-.36.36z"/><path class="cls-3" d="M24.42 54.9h-.51V44.55l6.3-6.04h9.17l7.64 7.63-.37.36-7.48-7.48h-8.75l-6 5.75V54.9z"/><path class="cls-3" d="M30.28 58.82l-2.27-2.27V46.19h.51v10.15l2.12 2.12-.36.36z"/><circle class="cls-3" cx="79.37" cy="118.3" r="1.67"/><circle class="cls-3" cx="83.47" cy="110.11" r="1.67"/><circle class="cls-3" cx="89.61" cy="99.86" r="1.67"/><circle class="cls-3" cx="87.05" cy="90.64" r="1.67"/><circle class="cls-3" cx="87.05" cy="68.61" r="1.67"/><circle class="cls-3" cx="89.61" cy="65.02" r="1.67"/><circle class="cls-3" cx="66.56" cy="81.93" r="1.67"/><circle class="cls-3" cx="66.56" cy="71.68" r="1.67"/><circle class="cls-3" cx="64.51" cy="61.44" r="1.67"/><circle class="cls-3" cx="70.15" cy="61.44" r="1.67"/><circle class="cls-3" cx="76.29" cy="61.44" r="1.67"/><circle class="cls-3" cx="70.15" cy="50.16" r="1.67"/><circle class="cls-3" cx="64.51" cy="52.73" r="1.67"/><circle class="cls-3" cx="60.41" cy="71.68" r="1.67"/><circle class="cls-3" cx="52.73" cy="66.05" r="1.67"/><circle class="cls-3" cx="52.73" cy="49.14" r="1.67"/><circle class="cls-3" cx="21.47" cy="64" r="1.67"/><circle class="cls-3" cx="21.47" cy="57.85" r="1.67"/><circle class="cls-3" cx="30.7" cy="58.87" r="1.67"/><circle class="cls-3" cx="28.14" cy="46.58" r="1.67"/><circle class="cls-3" cx="35.31" cy="43.5" r="1.67"/><circle class="cls-3" cx="42.99" cy="45.04" r="1.67"/><circle class="cls-3" cx="47.6" cy="46.58" r="1.67"/><circle class="cls-3" cx="83.47" cy="43.5" r="1.67"/><circle class="cls-3" cx="24.04" cy="53.24" r="1.67"/><circle class="cls-3" cx="80.9" cy="101.91" r="1.67"/><circle class="cls-3" cx="101.91" cy="93.71" r="1.67"/><g opacity=".5"><path d="M66.6 77.09a5.62 5.62 0 115.62-5.62 5.62 5.62 0 01-5.62 5.62z" opacity=".04" fill="#ffec9d"/><path d="M66.6 76.94a5.48 5.48 0 115.48-5.47 5.47 5.47 0 01-5.48 5.47z" opacity=".08" fill="#ffec9d"/><path d="M66.6 76.8a5.33 5.33 0 115.33-5.33 5.33 5.33 0 01-5.33 5.33z" opacity=".12" fill="#ffec9d"/><path d="M66.6 76.66a5.19 5.19 0 115.19-5.19 5.19 5.19 0 01-5.19 5.19z" opacity=".15" fill="#ffec9d"/><path d="M66.6 76.51a5 5 0 115-5 5 5 0 01-5 5z" opacity=".19" fill="#ffec9d"/><path d="M66.6 76.37a4.9 4.9 0 114.9-4.9 4.9 4.9 0 01-4.9 4.9z" opacity=".23" fill="#ffec9d"/><path d="M66.6 76.22a4.75 4.75 0 114.75-4.75 4.75 4.75 0 01-4.75 4.75z" opacity=".27" fill="#ffec9d"/><path d="M66.6 76.08a4.61 4.61 0 114.61-4.61 4.62 4.62 0 01-4.61 4.61z" opacity=".31" fill="#ffec9d"/><path d="M66.6 75.93a4.46 4.46 0 114.47-4.46 4.46 4.46 0 01-4.47 4.46z" opacity=".35" fill="#ffec9d"/><path d="M66.6 75.79a4.32 4.32 0 114.32-4.32 4.33 4.33 0 01-4.32 4.32z" opacity=".38" fill="#ffec9d"/><path d="M66.6 75.64a4.17 4.17 0 114.18-4.17 4.17 4.17 0 01-4.18 4.17z" opacity=".42" fill="#ffec9d"/><path d="M66.6 75.5a4 4 0 114-4 4 4 0 01-4 4z" opacity=".46" fill="#ffec9d"/><path d="M66.6 75.35a3.89 3.89 0 113.89-3.88 3.88 3.88 0 01-3.89 3.88z" opacity=".5" fill="#ffec9d"/><path d="M66.6 75.21a3.74 3.74 0 113.74-3.74 3.75 3.75 0 01-3.74 3.74z" opacity=".54" fill="#ffec9d"/><path d="M66.6 75.06a3.6 3.6 0 113.6-3.59 3.59 3.59 0 01-3.6 3.59z" opacity=".58" fill="#ffec9d"/><path d="M66.6 74.92a3.45 3.45 0 113.45-3.45 3.46 3.46 0 01-3.45 3.45z" opacity=".62" fill="#ffec9d"/><path d="M66.6 74.78a3.31 3.31 0 113.31-3.31 3.31 3.31 0 01-3.31 3.31z" opacity=".65" fill="#ffec9d"/><path d="M66.6 74.63a3.16 3.16 0 113.16-3.16 3.17 3.17 0 01-3.16 3.16z" opacity=".69" fill="#ffec9d"/><path d="M66.6 74.49a3 3 0 113-3 3 3 0 01-3 3z" opacity=".73" fill="#ffec9d"/><path d="M66.6 74.34a2.87 2.87 0 112.87-2.87 2.87 2.87 0 01-2.87 2.87z" opacity=".77" fill="#ffec9d"/><path d="M66.6 74.2a2.73 2.73 0 112.73-2.73 2.73 2.73 0 01-2.73 2.73z" opacity=".81" fill="#ffec9d"/><path d="M66.6 74.05a2.58 2.58 0 112.59-2.58 2.58 2.58 0 01-2.59 2.58z" opacity=".85" fill="#ffec9d"/><path d="M66.6 73.91a2.44 2.44 0 112.4-2.44 2.44 2.44 0 01-2.4 2.44z" opacity=".88" fill="#ffec9d"/><path d="M66.6 73.76a2.3 2.3 0 112.3-2.29 2.29 2.29 0 01-2.3 2.29z" opacity=".92" fill="#ffec9d"/><path d="M66.6 73.62a2.15 2.15 0 112.15-2.15 2.15 2.15 0 01-2.15 2.15z" opacity=".96" fill="#ffec9d"/><path class="cls-3" d="M68.61 71.47a2 2 0 11-2-2 2 2 0 012 2z"/></g></g><g class="cls-2"><path class="cls-3" d="M126 64.31l3.9-3.77h6.67l3.62 3.59h11.11a1.76 1.76 0 00.49 1.1 1.71 1.71 0 100-2.41 1.73 1.73 0 00-.44.79h-10.93L136.8 60h-7.1l-3.89 3.79-14.81.01a1.67 1.67 0 00-.44-.8 1.71 1.71 0 00-2.42 2.42 1.71 1.71 0 002.42 0 1.69 1.69 0 00.49-1.08z"/><path class="cls-3" d="M144.77 56.26h-10.2a1.73 1.73 0 00-.47-.88 1.71 1.71 0 100 2.41 1.74 1.74 0 00.48-1h10l4.71 4.79h5.21a1.77 1.77 0 00.39.6 1.71 1.71 0 002.41-2.42 1.71 1.71 0 00-2.41 0 1.69 1.69 0 00-.49 1.31h-4.9zM163.92 74.6a1.69 1.69 0 00-.49 1.31h-10L147.67 70H126.6a1.77 1.77 0 00-.47-.88 1.73 1.73 0 10.48 1.42h20.85l5.79 5.88h10.29a1.62 1.62 0 00.38.59 1.71 1.71 0 100-2.41zM150.07 48.59a1.52 1.52 0 00.86-.28l1.47 1.47h14.85l12.69 12.61a1.62 1.62 0 00-.11.58 1.5 1.5 0 101.49-1.49 1.46 1.46 0 00-1.09.48l-12.76-12.69h-14.86L151.29 48a1.49 1.49 0 10-1.22.64z"/><path class="cls-3" d="M161.34 52.26a1.5 1.5 0 101.12 2.47l6.84 6.83h3.88a1.48 1.48 0 100-.51h-3.7l-6.78-6.78a1.46 1.46 0 00.09-.52 1.49 1.49 0 00-1.45-1.49zM157.24 46.54a1.49 1.49 0 001.48-1.37h9.05l4.13 4.14a1.46 1.46 0 00-.27.85 1.5 1.5 0 101.49-1.49 1.46 1.46 0 00-.85.27l-3.78-3.77h9.69l16.65 16.57a1.47 1.47 0 00-.66 1.23 1.5 1.5 0 101.5-1.49 1.15 1.15 0 00-.33 0L178.4 44.66h-19.72a1.49 1.49 0 10-1.44 1.88z"/><path class="cls-3" d="M195.67 65.58a1.48 1.48 0 00-1.44 1.11h-24.76l-9.18-9.22h-4.61L146.12 48a1.44 1.44 0 00.32-.91 1.49 1.49 0 00-3-.14 1.72 1.72 0 00-.91.48 1.69 1.69 0 00-.3 2l-3.16 3.15h-18.8l-5 5-6.46.1a1.71 1.71 0 00-.49-1.12 1.73 1.73 0 00-2.42 0 1.71 1.71 0 000 2.42 1.73 1.73 0 002.42 0 1.85 1.85 0 00.44-.78l6.73-.12 5-4.94h18.8l3.25-3.25a1.7 1.7 0 002.9-1.35 1.55 1.55 0 00.29-.14l9.66 9.55.07.08h4.61l9.18 9.22h24.92a1.49 1.49 0 101.49-1.62z"/><path class="cls-3" d="M190 63.44a1.5 1.5 0 000-3 1.5 1.5 0 00-.52.1l-4.11-4.11h-3.25L178 52.38a1.4 1.4 0 00.17-.68 1.49 1.49 0 10-1.49 1.5 1.52 1.52 0 001-.4l4.26 4.2h3.25l3.87 3.87a1.49 1.49 0 001 2.62z"/></g><g class="cls-2"><path class="cls-3" d="M79.32 6.14l28.07 27.99 13.35-.12.07.07 61.66 61.84-.15 19.23 15.35 15.36-.36.36-15.5-15.51.07-19.16-61.58-61.46h-13.32l-.07-.07L78.96 6.5l.36-.36zM2.12 46.98l67.84.01.08.08 46.38 46.41 20.09 20.05 31.81-.06.08.08 16.83 16.79-.39.39-16.79-16.68h-31.76l-.07-.08-20.13-20.16-46.3-46.34-67.66.01-.01-.5z"/><path class="cls-3" d="M2.13 33.39h65.18l.07.2 14.57 14.93 21.57.11.07.09 35.06 34.6 17.47-.17 39.02 39.02-.36.37-38.87-38.87-17.34.05-.08-.08-34.96-34.69-21.67.03-.1-.06L67.1 34.15l-64.96-.13-.01-.63z"/><path class="cls-3" d="M2.57 55.75l92.89.08.07.07 37.79 37.76 11.31-.04 13.03 12.8-.35.36-12.9-12.64-11.32.05-.07-.08-37.66-37.88-92.77.01-.02-.49zM64.72 16.39l20.29 20.29 27.73.2 38.2 38.2-.36.36-38.05-38.05-27.73-.19-20.44-20.45.36-.36z"/><path class="cls-3" d="M68.7 1.54l6.54 6.53.09 7.34 18.73 18.73-.36.37-18.88-18.89-.09-7.33-6.39-6.39.36-.36zM43.05 17.32l15.41.06 17.49 17.49-.36.36-17.34-17.34-15.23-.03.03-.54z"/><circle class="cls-3" cx="197.72" cy="130.6" r="2.01"/><path class="cls-3" d="M182.9 130.6a2 2 0 112 2 2 2 0 01-2-2zM192.63 121.89a2 2 0 112 2 2 2 0 01-2-2zM155.75 107a2 2 0 112 2 2 2 0 01-2-2zM76.85 6.1a2 2 0 112 2 2 2 0 01-2-2zM67.11 2a2 2 0 112 2 2 2 0 01-2-2zM91.71 34.28a2 2 0 112 2 2 2 0 01-2-2zM63 16.35a2 2 0 112 2 2 2 0 01-2-2zM74.29 35.31a2 2 0 112 2 2 2 0 01-2-2zM41 17.38a2 2 0 112 2 2 2 0 01-2-2zM149.09 75.27a2 2 0 112 2 2 2 0 01-2-2zM0 33.77a2 2 0 112 2 2 2 0 01-2-2zM0 47.09a2 2 0 112 2 2 2 0 01-2-2zM0 55.8a2 2 0 112 2 2 2 0 01-2-2z"/></g></g></g></g></svg>