<svg xmlns="http://www.w3.org/2000/svg" viewBox="0 0 48.84 49.03"><defs><style>.cls-2{mix-blend-mode:screen}.cls-3{fill:#fff}</style></defs><g style="isolation:isolate"><g id="图层_2" data-name="图层 2"><g id="Elements"><g class="cls-2"><path class="cls-3" d="M25.49 49a22.74 22.74 0 1122.73-22.7A22.76 22.76 0 0125.49 49zm0-44.47A21.74 21.74 0 1047.22 26.3 21.76 21.76 0 0025.49 4.56z"/></g><g class="cls-2"><path class="cls-3" d="M3 23.58l-3-.36a25.78 25.78 0 014.29-11.41l2.48 1.7a21.92 21.92 0 00-2.5 4.8A22.81 22.81 0 003 23.58z"/></g><g class="cls-2"><path class="cls-3" d="M47.38 29.78l-4-.63a18.15 18.15 0 00.22-2.85 18 18 0 00-1.36-6.9L46 17.88a22.12 22.12 0 011.65 8.42 22.57 22.57 0 01-.27 3.48z"/></g><g class="cls-2"><path class="cls-3" d="M44.38 14.17A22.44 22.44 0 0027.9 4l.43-4a26.41 26.41 0 0119.41 12z"/></g><g class="cls-2"><path class="cls-3" d="M19.76 7.68l-.9-2.86A21.73 21.73 0 0126 3.8l-.07 3h-.42a18.89 18.89 0 00-5.75.88z"/></g><g class="cls-2"><path class="cls-3" d="M25.49 49a22.74 22.74 0 1122.73-22.7A22.76 22.76 0 0125.49 49zm0-44.47A21.74 21.74 0 1047.22 26.3 21.76 21.76 0 0025.49 4.56z"/></g><g class="cls-2"><path class="cls-3" d="M25.49 49a22.74 22.74 0 1122.73-22.7A22.76 22.76 0 0125.49 49zm0-44.47A21.74 21.74 0 1047.22 26.3 21.76 21.76 0 0025.49 4.56z"/></g><g class="cls-2"><path class="cls-3" d="M25.49 49a22.74 22.74 0 1122.73-22.7A22.76 22.76 0 0125.49 49zm0-44.47A21.74 21.74 0 1047.22 26.3 21.76 21.76 0 0025.49 4.56z"/></g><g class="cls-2"><path class="cls-3" d="M25.49 49a22.74 22.74 0 1122.73-22.7A22.76 22.76 0 0125.49 49zm0-44.47A21.74 21.74 0 1047.22 26.3 21.76 21.76 0 0025.49 4.56z"/></g><g class="cls-2"><path class="cls-3" d="M2.1 35.72c-.3-.74-.56-1.5-.79-2.27s-.42-1.56-.57-2.34l2.94-.57c.13.69.3 1.38.5 2.06s.44 1.35.7 2z"/></g><g class="cls-2"><path class="cls-3" d="M45.61 41.49l-2.4-1.81a22.26 22.26 0 002.85-5l2.78 1.13a25.19 25.19 0 01-1.43 3 26.39 26.39 0 01-1.8 2.68z"/></g><g class="cls-2"><path class="cls-3" d="M25.49 48.09A21.93 21.93 0 016.9 37.68l3.41-2.09A17.82 17.82 0 0031.74 43l1.41 3.74a21.81 21.81 0 01-7.66 1.35z"/></g></g></g></g></svg>