<svg xmlns="http://www.w3.org/2000/svg" viewBox="0 0 216.74 187.47"><defs><style>.cls-1,.cls-2{fill:#dadada}.cls-2{opacity:.5}</style></defs><g id="图层_2" data-name="图层 2"><g id="图层_2-2" data-name="图层 2"><path class="cls-1" d="M137.12 45.14a54.48 54.48 0 019.68 7.39l7.63-7.63a65.78 65.78 0 00-11.92-9.11zM109.52 37.3a55 55 0 0111.91 1.45l2.79-10.43a66.46 66.46 0 00-14.7-1.82zM123.76 39.35A55.05 55.05 0 01135 43.94l5.39-9.35a65.48 65.48 0 00-13.86-5.66zM172.82 76.94l-10.43 2.79a54.85 54.85 0 011.45 12.17h10.79a65.8 65.8 0 00-1.81-14.96zM45 108.7l10.42-2.79a55.37 55.37 0 01-1.64-11.6H42.94A65.62 65.62 0 0045 108.7zM166.49 60.62L157.15 66a54.8 54.8 0 014.64 11.38l10.42-2.8a65.08 65.08 0 00-5.72-13.96zM148.51 54.23a54.84 54.84 0 017.43 9.7l9.35-5.4a66.41 66.41 0 00-9.15-11.93zM68.94 130.4a55 55 0 01-7.17-9.32l-9.35 5.4A65.74 65.74 0 0061.31 138zM107.11 147.41a55.14 55.14 0 01-11.86-1.64l-2.79 10.42a66 66 0 0014.65 2zM53.7 91.9a55.07 55.07 0 0153.41-54.58v-10.8a65.86 65.86 0 00-64.2 65.38zM163.81 94.31a55.07 55.07 0 01-54.29 53.12v10.79a65.87 65.87 0 0065.09-63.91zM80 139.31a55.36 55.36 0 01-9.32-7.21L63 139.73a65.66 65.66 0 0011.56 8.93zM92.93 145.12A54.56 54.56 0 0182 140.53l-5.39 9.35a65.49 65.49 0 0013.48 5.67zM60.56 119A54.2 54.2 0 0156 108.23L45.59 111a65.43 65.43 0 005.62 13.37zM99.31 91.9a9.1 9.1 0 011.49-3.71 1 1 0 00-.12-1.3l-.12-.12a1 1 0 00-1.56.14 11.23 11.23 0 00-1.87 4.66 1 1 0 001 1.18h.16a1 1 0 001.02-.85zM100.92 98.72a9.29 9.29 0 01-1.61-3.88 1 1 0 00-1-.86h-.16a1 1 0 00-1 1.18 11.16 11.16 0 002 4.87 1 1 0 001.55.12l.11-.11a1 1 0 00.11-1.32zM102.83 86.06a9 9 0 014-1.73 1 1 0 00.86-1v-.16a1 1 0 00-1.19-1 11.22 11.22 0 00-5.07 2.17 1 1 0 00-.11 1.54l.11.11a1 1 0 001.4.07zM109 83.16v.16a1 1 0 00.86 1 9.16 9.16 0 013.88 1.61 1 1 0 001.32-.11l.11-.11a1 1 0 00-.12-1.56 11.26 11.26 0 00-4.87-2 1 1 0 00-1.18 1.01zM106.87 102.4a9.07 9.07 0 01-3.87-1.61 1 1 0 00-1.32.11l-.12.11a1 1 0 00.12 1.56 11.4 11.4 0 004.87 2 1 1 0 001.19-1v-.16a1 1 0 00-.87-1.01zM113.52 100.91a9.1 9.1 0 01-3.71 1.49 1 1 0 00-.85 1v.16a1 1 0 001.18 1 11.45 11.45 0 004.66-1.87 1 1 0 00.14-1.57l-.12-.11a1 1 0 00-1.3-.1zM115.77 88a9 9 0 011.61 3.88 1 1 0 001 .86h.17a1 1 0 001-1.18 11.4 11.4 0 00-2-4.87 1 1 0 00-1.55-.12l-.12.11a1 1 0 00-.11 1.32zM117.38 94.84a9 9 0 01-1.73 4 1 1 0 00.1 1.35l.11.11a1 1 0 001.54-.1 11.42 11.42 0 002.17-5.07 1 1 0 00-1-1.19h-.17a1 1 0 00-1.02.9zM162.66 39.05L54.03 147.68M54.03 39.05l108.63 108.63M150.8 93.37H65.94M0 93.2h216.74v.33H0zM108.37 10.6v165.54"/><path class="cls-2" d="M118.03 77.56l6.12 6.11-5.6-.51-.52-5.6zM121.22 75.76l4.73 4.73-4.34-.4-.39-4.33zM124.03 74.58l3.09 3.09-2.83-.26-.26-2.83zM124.15 102.97l-6.12 6.12.52-5.61 5.6-.51zM125.95 106.16l-4.73 4.73.39-4.33 4.34-.4zM127.12 108.97l-3.09 3.09.26-2.83 2.83-.26zM98.59 109.15l-6.11-6.12 5.6.52.51 5.6zM95.41 110.95l-4.73-4.73 4.33.4.4 4.33zM92.59 112.12l-3.09-3.09 2.83.26.26 2.83zM92.54 83.64l6.12-6.11-.52 5.6-5.6.51zM90.74 80.46l4.73-4.73-.4 4.33-4.33.4zM89.57 77.64l3.09-3.09-.26 2.83-2.83.26z"/><path class="cls-1" d="M106.81 59.16h.53v4.16h-.53zM109.35 59.16h.53v4.16h-.53zM108.07 59.16h.56v1.95h-.56z"/><path class="cls-1" transform="rotate(-10 101.466 61.915)" d="M101.25 59.86h.53v4.16h-.53z"/><path class="cls-1" transform="rotate(-10 103.978 61.502)" d="M103.75 59.42h.53v4.16h-.53z"/><path class="cls-1" transform="rotate(-10 102.557 60.629)" d="M102.3 59.66h.56v1.95h-.56z"/><path class="cls-1" transform="rotate(-19.99 96.175 63.607)" d="M95.9 61.53h.53v4.16h-.53z"/><path class="cls-1" transform="rotate(-20 98.553 62.726)" d="M98.28 60.66h.53v4.16h-.53z"/><path class="cls-1" transform="rotate(-19.99 96.989 62.141)" d="M96.7 61.16h.56v1.95h-.56z"/><path class="cls-1" transform="matrix(.87 -.5 .5 .87 -20.87 54.44)" d="M90.92 64.09h.53v4.16h-.53z"/><path class="cls-1" transform="matrix(.87 -.5 .5 .87 -19.94 55.39)" d="M93.11 62.83h.53v4.16h-.53z"/><path class="cls-1" transform="rotate(-30 91.736 64.58)" d="M91.45 63.61h.56v1.95h-.56z"/><path class="cls-1" transform="rotate(-40.01 86.709 69.566)" d="M86.46 67.49h.53v4.16h-.53z"/><path class="cls-1" transform="rotate(-40 88.667 67.945)" d="M88.4 65.86h.53v4.16h-.53z"/><path class="cls-1" transform="rotate(-39.99 86.997 67.912)" d="M86.71 66.93h.56v1.95h-.56z"/><path class="cls-1" transform="rotate(-50 82.921 73.678)" d="M82.65 71.6h.53v4.16h-.53z"/><path class="cls-1" transform="rotate(-50 84.541 71.744)" d="M84.28 69.66h.53v4.16h-.53z"/><path class="cls-1" transform="rotate(-49.99 82.881 71.997)" d="M82.61 71.03h.56v1.95h-.56z"/><path class="cls-1" transform="rotate(-60 79.885 78.395)" d="M79.62 76.32h.53v4.16h-.53z"/><path class="cls-1" transform="rotate(-60 81.141 76.2)" d="M80.89 74.12h.53v4.16h-.53z"/><path class="cls-1" transform="rotate(-60 79.567 76.746)" d="M79.29 75.77h.56v1.95h-.56z"/><path class="cls-1" transform="rotate(-70 77.714 83.563)" d="M77.45 81.49h.53v4.16h-.53z"/><path class="cls-1" transform="rotate(-70.01 78.585 81.182)" d="M78.32 79.11h.53v4.16h-.53z"/><path class="cls-1" transform="rotate(-70 77.125 82.002)" d="M76.84 81.02h.56v1.95h-.56z"/><path class="cls-1" transform="rotate(-80 76.486 89.037)" d="M76.22 86.96h.53v4.16h-.53z"/><path class="cls-1" transform="rotate(-80 76.925 86.542)" d="M76.66 84.46h.53v4.16h-.53z"/><path class="cls-1" transform="rotate(-79.99 75.613 87.593)" d="M75.34 86.62h.56v1.95h-.56z"/><path class="cls-1" d="M74.14 94.37h4.16v.53h-4.16zM74.14 91.83h4.16v.53h-4.16zM74.14 93.09h1.95v.56h-1.95z"/><path class="cls-1" transform="matrix(.98 -.17 .17 .98 -16.23 14.88)" d="M74.85 99.93h4.16v.53h-4.16z"/><path class="cls-1" transform="rotate(-10 76.454 97.677)" d="M74.41 97.43h4.16v.53h-4.16z"/><path class="cls-1" transform="rotate(-10 75.58 99.098)" d="M74.64 98.86h1.95v.56h-1.95z"/><path class="cls-1" transform="rotate(-20 78.553 105.512)" d="M76.51 105.28h4.16v.53h-4.16z"/><path class="cls-1" transform="rotate(-20 77.709 103.17)" d="M75.64 102.9h4.16v.53h-4.16z"/><path class="cls-1" transform="rotate(-19.99 77.113 104.71)" d="M76.14 104.45h1.95v.56h-1.95z"/><path class="cls-1" transform="matrix(.87 -.5 .5 .87 -44.39 55.38)" d="M79.08 110.26h4.16v.53h-4.16z"/><path class="cls-1" transform="rotate(-30 79.875 108.322)" d="M77.81 108.07h4.16v.53h-4.16z"/><path class="cls-1" transform="rotate(-30.01 79.549 109.976)" d="M78.59 109.7h1.95v.56h-1.95z"/><path class="cls-1" transform="rotate(-40 84.551 114.985)" d="M82.47 114.72h4.16v.53h-4.16z"/><path class="cls-1" transform="rotate(-40 82.907 113.05)" d="M80.84 112.78H85v.53h-4.16z"/><path class="cls-1" transform="rotate(-39.99 82.891 114.733)" d="M81.91 114.45h1.95v.56h-1.95z"/><path class="cls-1" transform="rotate(-50 88.658 118.792)" d="M86.59 118.53h4.16v.53h-4.16z"/><path class="cls-1" transform="rotate(-49.99 86.734 117.166)" d="M84.64 116.9h4.16v.53h-4.16z"/><path class="cls-1" transform="rotate(-50 86.976 118.817)" d="M86.01 118.55h1.95v.56h-1.95z"/><path class="cls-1" transform="matrix(.5 -.87 .87 .5 -58.82 141.78)" d="M91.3 121.56h4.16v.53H91.3z"/><path class="cls-1" transform="rotate(-60.01 91.173 120.55)" d="M89.11 120.29h4.16v.53h-4.16z"/><path class="cls-1" transform="rotate(-60 91.725 122.147)" d="M90.75 121.87h1.95v.56h-1.95z"/><path class="cls-1" transform="rotate(-70 98.542 123.986)" d="M96.47 123.73h4.16v.53h-4.16z"/><path class="cls-1" transform="rotate(-70 96.168 123.122)" d="M94.09 122.86h4.16v.53h-4.16z"/><path class="cls-1" transform="rotate(-69.99 96.975 124.593)" d="M96 124.32h1.95v.56H96z"/><path class="cls-1" transform="rotate(-80 104.018 125.228)" d="M101.94 124.96h4.16v.53h-4.16z"/><path class="cls-1" transform="rotate(-80 101.523 124.79)" d="M99.44 124.52h4.16v.53h-4.16z"/><path class="cls-1" transform="rotate(-80 102.587 126.099)" d="M101.6 125.82h1.95v.56h-1.95z"/><path class="cls-1" d="M109.35 123.42h.53v4.16h-.53zM106.81 123.42h.53v4.16h-.53zM108.07 125.62h.56v1.95h-.56z"/><path class="cls-1" transform="rotate(-10 115.251 124.855)" d="M114.91 122.71h.53v4.16h-.53z"/><path class="cls-1" transform="matrix(.98 -.17 .17 .98 -20.03 21.47)" d="M112.41 123.15h.53v4.16h-.53z"/><path class="cls-1" transform="rotate(-10.01 114.144 126.093)" d="M113.84 125.12h.56v1.95h-.56z"/><path class="cls-1" transform="rotate(-20.01 120.515 123.107)" d="M120.26 121.05h.53v4.16h-.53z"/><path class="cls-1" transform="rotate(-20 118.13 123.981)" d="M117.88 121.91h.53v4.16h-.53z"/><path class="cls-1" transform="rotate(-20 119.72 124.583)" d="M119.43 123.62h.56v1.95h-.56z"/><path class="cls-1" transform="rotate(-30 125.5 120.547)" d="M125.24 118.48h.53v4.16h-.53z"/><path class="cls-1" transform="rotate(-30 123.336 121.828)" d="M123.05 119.75h.53v4.16h-.53z"/><path class="cls-1" transform="rotate(-30.01 124.952 122.146)" d="M124.69 121.17h.56v1.95h-.56z"/><path class="cls-1" transform="rotate(-40 129.98 117.16)" d="M129.71 115.09h.53v4.16h-.53z"/><path class="cls-1" transform="rotate(-40 128.016 118.795)" d="M127.76 116.72h.53v4.16h-.53z"/><path class="cls-1" transform="rotate(-39.98 129.718 118.828)" d="M129.43 117.85h.56v1.95h-.56z"/><path class="cls-1" transform="rotate(-50 133.777 113.044)" d="M133.51 110.97h.53v4.16h-.53z"/><path class="cls-1" transform="rotate(-50 132.163 114.994)" d="M131.88 112.91h.53v4.16h-.53z"/><path class="cls-1" transform="rotate(-50.02 133.801 114.726)" d="M133.53 113.75h.56v1.95h-.56z"/><path class="cls-1" transform="rotate(-60 136.792 108.33)" d="M136.54 106.26h.53v4.16h-.53z"/><path class="cls-1" transform="matrix(.5 -.87 .87 .5 -27.95 172.65)" d="M135.27 108.45h.53v4.16h-.53z"/><path class="cls-1" transform="rotate(-60 137.132 109.98)" d="M136.85 109.01h.56v1.95h-.56z"/><path class="cls-1" transform="rotate(-70 138.972 103.162)" d="M138.71 101.09h.53v4.16h-.53z"/><path class="cls-1" transform="rotate(-70 138.11 105.549)" d="M137.84 103.47h.53v4.16h-.53z"/><path class="cls-1" transform="rotate(-69.99 139.57 104.734)" d="M139.3 103.76h.56v1.95h-.56z"/><path class="cls-1" transform="rotate(-80 140.209 97.696)" d="M139.94 95.62h.53v4.16h-.53z"/><path class="cls-1" transform="matrix(.17 -.98 .98 .17 16.84 220.45)" d="M139.5 98.11h.53v4.16h-.53z"/><path class="cls-1" transform="rotate(-80.01 141.068 99.14)" d="M140.8 98.16h.56v1.95h-.56z"/><path class="cls-1" d="M138.4 91.83h4.16v.53h-4.16zM138.4 94.37h4.16v.53h-4.16zM140.6 93.09h1.95v.56h-1.95z"/><path class="cls-1" transform="rotate(-10 139.74 86.514)" d="M137.69 86.27h4.16v.53h-4.16z"/><path class="cls-1" transform="rotate(-10 140.211 89.031)" d="M138.13 88.77h4.16v.53h-4.16z"/><path class="cls-1" transform="rotate(-10.01 141.102 87.607)" d="M140.1 87.32h1.95v.56h-1.95z"/><path class="cls-1" transform="rotate(-20.01 138.083 81.172)" d="M136.03 80.92h4.16v.53h-4.16z"/><path class="cls-1" transform="rotate(-20 138.97 83.565)" d="M136.9 83.3h4.16v.53h-4.16z"/><path class="cls-1" transform="rotate(-20.01 139.547 81.985)" d="M138.6 81.72h1.95v.56h-1.95z"/><path class="cls-1" transform="rotate(-30 135.543 76.199)" d="M133.46 75.94h4.16v.53h-4.16z"/><path class="cls-1" transform="rotate(-30 136.813 78.399)" d="M134.73 78.13h4.16v.53h-4.16z"/><path class="cls-1" transform="rotate(-30 137.136 76.746)" d="M136.15 76.47h1.95v.56h-1.95z"/><path class="cls-1" transform="rotate(-40 132.15 71.746)" d="M130.07 71.47h4.16V72h-4.16z"/><path class="cls-1" transform="rotate(-40 133.781 73.677)" d="M131.7 73.42h4.16v.53h-4.16z"/><path class="cls-1" transform="rotate(-40.01 133.82 72.004)" d="M132.83 71.72h1.95v.56h-1.95z"/><path class="cls-1" transform="rotate(-50.2 127.228 67.678)" d="M125.95 67.67h4.16v.53h-4.16z"/><path class="cls-1" transform="rotate(-50 129.98 69.566)" d="M127.89 69.3h4.16v.53h-4.16z"/><path class="cls-1" transform="rotate(-50.01 129.692 67.904)" d="M128.73 67.63h1.95v.56h-1.95z"/><path class="cls-1" transform="rotate(-60 123.305 64.909)" d="M121.24 64.64h4.16v.53h-4.16z"/><path class="cls-1" transform="rotate(-60 125.496 66.174)" d="M123.43 65.91h4.16v.53h-4.16z"/><path class="cls-1" transform="rotate(-60 124.96 64.583)" d="M123.99 64.31h1.95v.56h-1.95z"/><path class="cls-1" transform="rotate(-70 118.143 62.74)" d="M116.07 62.47h4.16V63h-4.16z"/><path class="cls-1" transform="rotate(-70 120.537 63.607)" d="M118.45 63.34h4.16v.53h-4.16z"/><path class="cls-1" transform="rotate(-70 119.715 62.137)" d="M118.74 61.86h1.95v.56h-1.95z"/><path class="cls-1" transform="rotate(-80 112.682 61.5)" d="M110.6 61.24h4.16v.53h-4.16z"/><path class="cls-1" transform="matrix(.17 -.98 .98 .17 34.18 164.61)" d="M113.1 61.68h4.16v.53h-4.16z"/><path class="cls-1" transform="matrix(.17 -.98 .98 .17 34.62 162.52)" d="M113.14 60.36h1.95v.56h-1.95z"/><path class="cls-1" d="M134.53 52.33a47.5 47.5 0 016.58 4.94l1.75-1.74a51.54 51.54 0 00-7.07-5.39zM143.82 59.91a45.19 45.19 0 015.18 6.54l2.15-1.24a51.73 51.73 0 00-5.57-7zM64.39 93.37h-7.25a51.19 51.19 0 001 9.89l7.28-2a46.09 46.09 0 01-1.03-7.89zM157.91 80.44l-2.71.72a46.63 46.63 0 011.11 8.42h3.09a50.1 50.1 0 00-1.49-9.14zM112.07 45.51a45.73 45.73 0 017.91.94l.74-2.78a51.31 51.31 0 00-8.65-1.37zM153.08 68.44l-2.16 1.25a45.43 45.43 0 013.31 7.82l2.58-.69a51.63 51.63 0 00-3.73-8.38zM123.64 47.39a46.15 46.15 0 017.6 3.08l1.29-2.25a51.92 51.92 0 00-8.17-3.5zM108.29 137.42a46.32 46.32 0 01-8.47-1.15l-1.93 7.23a51.6 51.6 0 0010.4 1.08zM64.39 89.58a46 46 0 0143.9-44v-3.42a51.21 51.21 0 00-51 47.42zM112.07 137.44v7a51.21 51.21 0 0047.49-51.06h-3.25a46 46 0 01-44.24 44.06zM85.28 130.07a46 46 0 01-6.49-5.07l-5.62 5.62a51.81 51.81 0 008.18 6.31zM76.15 122.24a46.22 46.22 0 01-4.92-6.54l-6.84 4a52.46 52.46 0 006.12 8.23zM96.17 135.28a45.46 45.46 0 01-7.65-3.28l-3.89 6.73a50.67 50.67 0 009.59 3.84zM69.37 112.41a45.12 45.12 0 01-3.05-7.41L59 107a50.83 50.83 0 003.61 9.38zM86.81 163.53l.27-1A71.31 71.31 0 0172 156l-.52.9a73.13 73.13 0 0015.33 6.63zM170.36 56.73a71.81 71.81 0 016.47 14.33l1-.27a72.32 72.32 0 00-6.57-14.58zM106.06 165.61a71.76 71.76 0 01-16.17-2.29l-.27 1a72.45 72.45 0 0016.44 2.33zM178.68 73.58l-1 .27a71.65 71.65 0 012.57 15.67h1a72.91 72.91 0 00-2.57-15.94zM168.83 54.24l.9-.51a73.61 73.61 0 00-10-12.39l-.74.73a72.4 72.4 0 019.84 12.17zM54.78 142.12A72.89 72.89 0 0145.23 129l-.9.52A74.06 74.06 0 0054 142.85zM42.94 126.93l.9-.52a72 72 0 01-5.74-15.16l-1 .27a73.1 73.1 0 005.84 15.41zM34.85 92.44v1a73.93 73.93 0 001.6 15.27l1-.27a72.7 72.7 0 01-1.56-15v-1zM69.52 154.47a72.34 72.34 0 01-12.73-10.24l-.73.73A72.64 72.64 0 0069 155.37z"/><path class="cls-1" d="M180.35 92.44v1A72.23 72.23 0 01109 165.63v1a73.27 73.27 0 0072.4-73.22v-1zM36 89.52a72.24 72.24 0 0170.06-68.32v-1A73.27 73.27 0 0035 89.52zM144.26 30.84a72.68 72.68 0 0112.57 9.22l.74-.73A73.27 73.27 0 00144.78 30zM109 21.18A72.37 72.37 0 01124.46 23l.27-1A73.61 73.61 0 00109 20.14zM127.29 23.74a72.16 72.16 0 0114.42 5.7l.51-.9a72.4 72.4 0 00-14.67-5.8z"/><path class="cls-1" d="M141.75 156.4l-.5-.88a69.9 69.9 0 01-14.89 5.88l.26 1a71.23 71.23 0 0015.13-6zM125.73 25.25a69.86 69.86 0 0114.33 5.42l.51-.88A70.93 70.93 0 00126 24.27zM156.45 144.57a70.62 70.62 0 01-12.72 9.57l.5.87a71.21 71.21 0 0012.94-9.72zM143.07 31.13l-.5.88a70.56 70.56 0 0112.57 9l.72-.72a72.17 72.17 0 00-12.79-9.16zM123 24.6l.26-1a71.91 71.91 0 00-15.49-1.6v1A70.76 70.76 0 01123 24.6zM104.93 163.72a71.11 71.11 0 01-15.64-2.48l-.26 1a71.7 71.7 0 0015.9 2.52zM86.31 161.4l.26-1a70.32 70.32 0 01-14.4-6.49l-.5.87a70 70 0 0014.64 6.62zM57 143.21l.66.68a71.2 71.2 0 0011.63 9.42l.5-.88a70.57 70.57 0 01-11.41-9.25l-.66-.68zM123.6 162.08a71.6 71.6 0 01-15.83 1.71v1a72.11 72.11 0 0016.09-1.75zM157.21 43l.68.66a70.39 70.39 0 01.58 99l.72.71A71.39 71.39 0 00158.6 43l-.67-.66zM55.74 140.43A70.4 70.4 0 0157 45.07l-.71-.71A71.38 71.38 0 0055 141.14zM89.92 25.4a70.82 70.82 0 0115-2.31v-1a71.54 71.54 0 00-15.28 2.35zM59 43.05a70.31 70.31 0 0111.94-9.4l-.51-.87a71.24 71.24 0 00-12.15 9.56zM73.33 32.2a70.37 70.37 0 0113.86-6l-.26-1a70.51 70.51 0 00-14.11 6.11zM72.84 27.34l.53.92A73.34 73.34 0 0189 22.1l-.27-1a74.54 74.54 0 00-15.89 6.24zM89.65 164.88a73 73 0 01-15-5.68l-.53.92a74.29 74.29 0 0015.28 5.79zM57.43 39.74a73.94 73.94 0 0113.34-10l-.53-.92A75.11 75.11 0 0056.68 39zM71.46 158.72l.53-.92a73.44 73.44 0 01-13.19-9.47l-.75.76a75 75 0 0013.41 9.63zM92.55 165.57l-.28 1a75.08 75.08 0 0016.22 1.68v-1.06a73.69 73.69 0 01-15.94-1.62zM111.46 19.66a73.79 73.79 0 0116.4 2.61l.28-1a75.12 75.12 0 00-16.68-2.64zM131 22.09l-.27 1a73.17 73.17 0 0115.1 6.8l.53-.92A74.59 74.59 0 00131 22.09zM161.76 41.17l-.69-.71a75 75 0 00-12.19-9.88l-.53.92a74.42 74.42 0 0112 9.71l.69.71zM91.89 21.39a73.73 73.73 0 0116.6-1.8v-1.06a75 75 0 00-16.88 1.83z"/><path class="cls-1" d="M56.63 146.3l-.71-.7a73.81 73.81 0 01-.61-103.76l-.75-.75a74.87 74.87 0 00.61 105.26l.71.7zM163.05 44.09a73.82 73.82 0 01-1.27 100l.75.75a74.89 74.89 0 001.27-101.5zM127.21 164.72a73.86 73.86 0 01-15.75 2.43v1.06a75.1 75.1 0 0016-2.46zM159.69 146.22a74.7 74.7 0 01-12.52 9.85l.53.92a75.36 75.36 0 0012.74-10zM144.61 157.59a73.46 73.46 0 01-14.54 6.31l.28 1a74.78 74.78 0 0014.79-6.41z"/><path class="cls-1" d="M197.73 66.8l-4.06-2.56a2.71 2.71 0 00-2.65-.13 88.12 88.12 0 00-7.89-16.88 2.69 2.69 0 001.6-2l.83-4.6a2.71 2.71 0 00-.93-2.56L148.14 7.43a2.74 2.74 0 00-2.58-.51L141 8.4a2.64 2.64 0 00-1.8 1.95A88 88 0 00117.34 5l-2.1-3.67A2.7 2.7 0 00112.88 0H99.41a2.73 2.73 0 00-2.3 1.27l-2.55 4.07a.25.25 0 000 .07 87.75 87.75 0 00-31.37 11 2.55 2.55 0 00-.73-.33L57.9 14.8a2.7 2.7 0 00-2.63.7L35 35.76a2.72 2.72 0 00-.72 2.53l.86 3.76a87.91 87.91 0 00-16 50.75v1.63a2.65 2.65 0 00-2.4.94l-3 3.57a2.72 2.72 0 00-.48 2.68l16.3 44.77a2.73 2.73 0 002 1.73l4.69 1a2.66 2.66 0 002.55-.8 88.89 88.89 0 0019.37 17.76 2.68 2.68 0 00-.6 2.49l1.19 4.53a2.73 2.73 0 001.87 1.9l46 12.33a2.69 2.69 0 002.55-.63l3.52-3.26a2.68 2.68 0 00.8-2.55 88.89 88.89 0 0010.67-1.39l2.62 2.64a2.72 2.72 0 002.63.71l13-3.49a2.7 2.7 0 001.89-1.82l1.42-4.59a2.86 2.86 0 00.11-.64 87.64 87.64 0 008.75-4.87 2.73 2.73 0 001.16.67l4.52 1.23a2.7 2.7 0 002.63-.7l20.27-20.27a2.69 2.69 0 00.72-2.52l-1.06-4.68a2.7 2.7 0 00-.7-1.29 87.94 87.94 0 008.87-18.39 2.66 2.66 0 002.55-.07l4.06-2.32a2.7 2.7 0 001.37-2.36V69.1a2.71 2.71 0 00-1.25-2.3zm-89.8 109.78a83.8 83.8 0 1183.79-83.8 83.8 83.8 0 01-83.79 83.8z"/></g></g></svg>