<svg xmlns="http://www.w3.org/2000/svg" viewBox="0 0 183.24 177.19"><defs><style>.cls-1{fill:#6cf}.cls-2{opacity:.5}</style></defs><g id="图层_2" data-name="图层 2"><g id="Layer_1" data-name="Layer 1"><path class="cls-1" d="M156.91 48.64C127.45.37 56.57-.21 26.56 48.41a2 2 0 00.69 2.78l37.19 21.67a2 2 0 002.67-.62c11.78-17.69 37.7-17.27 49.12 0a2 2 0 002.66.63l37.31-21.46a2 2 0 00.94-1.24 2 2 0 00-.23-1.53zm-8.34-.54a2 2 0 01-1 1.33l-27.18 15.65a2 2 0 01-2.47-.39 35.57 35.57 0 00-52.49 0 2 2 0 01-2.49.39L35.82 49.24a2 2 0 01-1-1.33 2 2 0 01.36-1.6C63.16 8.93 120 8.54 148.22 46.5a2 2 0 01.35 1.6zM157 127.15a2 2 0 00-.93-1.25l-37.18-21.66a2 2 0 00-2.67.62 29.55 29.55 0 01-49.21 0 2 2 0 00-2.66-.63L27 125.65a2 2 0 00-.94 1.23 2 2 0 00.23 1.54c29.4 48.41 100.36 49.08 130.48.26a2 2 0 00.23-1.53zm-8.89 3.64c-27.89 37.54-84.91 37.86-113.11-.21a2 2 0 01-.35-1.6 2 2 0 011-1.33l27.26-15.6a2 2 0 012.48.39 35.55 35.55 0 0052.6 0 2 2 0 012.49-.39l27.11 15.8a2 2 0 01.6 2.93z"/><g class="cls-2"><path class="cls-1" d="M128.29 46.7l-4.95 2.85a5.16 5.16 0 01-5-.27c-.89-.6-1.8-1.18-2.74-1.72a47.34 47.34 0 00-50.52 1.65 5.11 5.11 0 01-5 .25l-4.89-2.85a2 2 0 01-.31-3.45 58.44 58.44 0 0173.78.09 2 2 0 01-.37 3.45zM128.57 134a58.46 58.46 0 01-74-.09 2 2 0 01.33-3.45l5-2.84a5.14 5.14 0 015 .27c.92.63 1.86 1.22 2.83 1.78a47.33 47.33 0 0050.62-1.71 5 5 0 015-.26l4.89 2.85a2 2 0 01.33 3.45z"/></g><g class="cls-2"><path class="cls-1" d="M25.5 89.1H.5a.5.5 0 01-.5-.5.5.5 0 01.5-.5h25a.5.5 0 01.5.5.5.5 0 01-.5.5zM147.57 89.1H96.71a.5.5 0 01-.5-.5.5.5 0 01.5-.5h50.86a.5.5 0 01.5.5.5.5 0 01-.5.5zm-61 0h-50.9a.51.51 0 01-.5-.5.5.5 0 01.5-.5h50.87a.5.5 0 01.5.5.51.51 0 01-.5.5zM182.74 89.1h-25a.51.51 0 01-.5-.5.5.5 0 01.5-.5h25a.5.5 0 01.5.5.5.5 0 01-.5.5z"/><path class="cls-1" transform="rotate(-6.95 8.624 98.868)" d="M1.12 98.54h15v.5h-15z"/><path class="cls-1" transform="rotate(-6.96 174.72 78.46)" d="M167.12 78.16h15v.5h-15z"/><path class="cls-1" d="M16.07 79.57L1.15 77.74a.25.25 0 01-.22-.28.26.26 0 01.28-.22l14.89 1.83a.25.25 0 010 .5zM182.07 100l-14.89-1.83a.24.24 0 01-.22-.28.25.25 0 01.28-.21l14.89 1.82a.25.25 0 01.21.28.24.24 0 01-.27.22z"/></g><g class="cls-2"><path class="cls-1" d="M91.62 112.68a24.09 24.09 0 1124.09-24.08 24.1 24.1 0 01-24.09 24.08zm0-47.17a23.09 23.09 0 1023.09 23.09 23.11 23.11 0 00-23.09-23.09z"/></g><path class="cls-1" d="M91.62 172.77a84.18 84.18 0 1184.17-84.17 84.27 84.27 0 01-84.17 84.17zm0-164.85A80.68 80.68 0 10172.3 88.6 80.77 80.77 0 0091.62 7.92z"/><g class="cls-2"><path class="cls-1" d="M91.94 177.19h-1v-3.68h1zm1 0v-3.67h1l.09 3.67zm-3.06 0h-1l.12-3.67h1zm5.1-.05l-.13-3.67 1-.05.18 3.68zm-7.14 0l-1-.05.2-3.68 1 .05zM97 177l-.22-3.67 1-.07.26 3.67zm-11.22 0l-1-.07.28-3.67 1 .07zm13.26-.13l-.31-3.66 1-.09.34 3.66zm-15.29 0l-1-.09.37-3.66 1 .09zm17.32-.16l-.39-3.66 1-.11.43 3.66zm-19.36 0l-1-.12.45-3.65 1 .11zm21.38-.2l-.46-3.65 1-.13.52 3.65zm-23.4 0l-1-.14.54-3.64 1 .14zm25.42-.23l-.54-3.64 1-.15.61 3.62zm-27.44-.06l-1-.17.62-3.62 1 .15zm29.47-.28l-.65-3.62 1-.17.68 3.61zm-31.49-.06l-1-.19.7-3.61 1 .18zm33.49-.32l-.72-3.6 1-.2.77 3.6zm-35.49-.07l-1-.21.78-3.6 1 .2zm37.48-.35l-.8-3.59.95-.22.85 3.58zm-39.48-.09l-1-.23.87-3.58 1 .23zm41.47-.39l-.88-3.57c.31-.07.63-.15.94-.24l.93 3.56zm-43.45-.09l-1-.26 1-3.55.94.25zm45.43-.42l-1-3.55.94-.26 1 3.53zm-47.41-.1l-1-.29 1-3.53.94.27zm49.37-.46l-1-3.53.93-.28 1.1 3.51zm-51.33-.12l-1-.3 1.12-3.51.94.29zm53.29-.5l-1.15-3.49.94-.31 1.17 3.48zm-55.24-.12l-1-.32 1.22-3.59.93.31zm57.16-.53l-1.21-3.47.92-.33 1.26 3.46zm-59.1-.13l-1-.35 1.27-3.45.92.33zm61-.57l-1.31-3.44.92-.35 1.34 3.43zm-63-.14L59 171l1.36-3.42c.3.13.61.24.91.36zm64.86-.6l-1.38-3.41.9-.37 1.42 3.39zm-66.76-.16l-.94-.39 1.43-3.39.91.38zm68.64-.63l-1.47-3.37.9-.39 1.5 3.36zm-70.52-.17l-1-.42 1.68-3.5.9.4zm72.37-.65l-1.43-3.46.88-.41 1.57 3.33zM54.3 169l-.93-.44 1.63-3.34.89.41zm76.08-.68l-1.61-3.32.88-.43 1.64 3.29zm-77.93-.21l-.91-.45 1.66-3.28.88.44zm79.75-.7l-1.68-3.27.86-.46 1.72 3.25zm-81.58-.22l-.9-.48 1.74-3.24.87.46zm83.38-.74l-1.76-3.23.86-.47 1.79 3.21zm-85.18-.23l-.89-.5 1.82-3.2.85.48zm87-.77l-1.84-3.18.85-.5 1.87 3.17zM47 165.18l-.88-.52 1.89-3.16.85.5zm90.49-.8l-1.91-3.14.83-.51 2 3.12zm-92.24-.25l-.87-.54 2-3.12.84.52zm94-.82l-2-3.1.82-.53 2 3.07zM43.56 163l-.86-.56 2-3.06.82.54zm97.4-.84l-2-3.05.8-.55 2.09 3zm-99.1-.28l-.85-.58 2.11-3c.26.19.53.37.8.55zm100.78-.88l-2.11-3 .79-.57 2.15 3zm-102.46-.3l-.83-.6 2.18-3 .79.58zm104.12-.9l-2.19-3 .78-.59 2.22 2.93zm-105.77-.31l-.82-.62L40 156l.78.59zm107.39-.92l-2.25-2.91.76-.6 2.29 2.88zm-109-.32l-.8-.64 2.3-2.87.77.61zm110.61-.95l-2.33-2.85.76-.62 2.35 2.82zM35.32 157c-.27-.21-.53-.43-.78-.65l2.36-2.81.75.62zm113.76-1l-2.38-2.79.74-.64 2.42 2.77zm-115.33-.34L33 155l2.43-2.76.74.64zm116.87-1l-2.45-2.66.73-.66 2.48 2.72zm-118.4-.36l-.75-.68L34 151l.72.66zm119.91-1l-2.52-2.68.71-.67 2.55 2.65c-.24.25-.49.48-.74.71zM30.72 153l-.73-.7 2.55-2.65.71.68zm122.88-1l-2.6-2.72.69-.69 2.61 2.6zm-124.34-.37l-.72-.73 2.62-2.58.69.7zM155 150.46l-2.63-2.57.68-.7 2.66 2.53c-.19.28-.43.5-.71.74zm-127.21-.39c-.24-.24-.47-.49-.71-.74l2.68-2.52.67.71zM156.46 149l-2.7-2.5.67-.73 2.71 2.48zm-130-.39l-.68-.76 2.73-2.46.66.73zm131.41-1.12l-2.79-2.49.65-.74 2.77 2.42zm-132.77-.4l-.67-.77 2.79-2.39c.22.24.43.49.64.73zm134.11-1.14l-2.81-2.38.63-.75 2.84 2.35zm-135.44-.41l-.65-.78 2.84-2.34.63.76zm136.74-1.16l-2.89-2.38c.2-.25.41-.5.61-.76l2.88 2.28zm-138-.41l-.64-.8 2.9-2.27.61.77zm139.3-1.19l-2.91-2.26.6-.77 2.93 2.22zm-140.56-.42l-.61-.81 2.94-2.2.59.78zM163 141.13l-3-2.19c.2-.26.39-.52.58-.79l3 2.15zm-143-.42c-.2-.28-.4-.55-.59-.83l3-2.13.56.79zm144.2-1.24l-3-2.12.56-.8 3 2.08zM18.78 139l-.58-.84 3.05-2 .55.8zm146.54-1.26l-3.06-2 .55-.82 3.07 2zm-147.68-.42c-.19-.28-.37-.57-.56-.86l3.1-2c.17.28.35.55.53.82zm148.8-1.29l-3.1-2c.17-.28.34-.56.52-.83l3.14 2zm-149.9-.43c-.19-.28-.36-.57-.54-.86l3.14-1.92.51.83zm151-1.31l-3.15-1.9c.17-.28.34-.56.5-.84l3.17 1.86c-.19.34-.37.59-.54.92zm-152-.42L15 133l3.18-1.85.49.84zm153.08-1.34l-3.19-1.83.49-.86 3.21 1.8zm-154.1-.43l-.5-.88 3.23-1.78c.15.29.31.57.47.86zm155.1-1.36l-3.3-1.74.46-.87 3.25 1.72zm-156.08-.42l-.48-.9 3.26-1.7.46.86zm157-1.39l-3.28-1.68.45-.88 3.29 1.65zm-158-.41c-.16-.31-.31-.61-.46-.92l3.3-1.62.44.87zm158.89-1.42l-3.31-1.6.42-.89 3.33 1.56zm-159.79-.41l-.43-.92 3.33-1.55.42.89zm160.66-1.45l-3.35-1.52c.14-.3.27-.6.4-.9l3.37 1.49zm-161.52-.4l-.41-.93 3.37-1.47.4.9zm162.35-1.47l-3.39-1.37c.12-.3.25-.6.38-.9l3.39 1.4zM10 123l-.39-.94 3.4-1.39.38.9zm163.94-1.51l-3.41-1.36.36-.92 3.43 1.33c-.17.34-.32.66-.42.97zm-164.75-.36c-.12-.32-.25-.63-.37-.95l3.44-1.31c.11.3.23.61.35.91zm165.45-1.52l-3.44-1.3.33-.91 3.46 1.24c-.11.36-.23.65-.35.97zm-166.18-.39c-.12-.31-.23-.64-.35-1l3.47-1.22.33.92zm166.88-1.55l-3.48-1.19.32-.94 3.49 1.17zM7.78 117.3l-.33-1 3.5-1.15.31.93zM176 115.73l-3.51-1.13.3-.93 3.51 1.08zm-168.86-.37l-.3-1 3.51-1.08.3.94zm169.45-1.58l-3.53-1c.1-.31.19-.62.27-.94l3.54 1c-.09.28-.18.61-.28.94zm-170-.38c-.1-.32-.19-.65-.28-1l3.54-1 .27.95zm170.59-1.59l-3.54-1c.08-.31.16-.62.25-.94l3.56.92c-.13.36-.21.69-.31 1.02zM6 111.44c-.09-.33-.18-.66-.26-1l3.57-.89.24.94zm171.66-1.61l-3.58-.87.23-1 3.59.84zM5.5 109.46l-.24-1 3.59-.82.22 1zm172.62-1.62l-3.59-.8.21-1 3.6.75c-.07.39-.14.72-.22 1.05zM5 107.46l-.21-1 3.6-.74.2 1zm173.5-1.61l-3.61-.72c.07-.32.13-.64.19-1l3.61.67c-.02.38-.08.71-.15 1.05zm-173.87-.38c-.07-.34-.13-.68-.19-1l3.62-.65.18 1zm174.28-1.63l-3.62-.64c.06-.32.11-.64.16-1l3.63.59c-.08.37-.08.71-.17 1.05zm-174.64-.38c-.06-.34-.12-.68-.17-1l3.64-.56.15 1zm175-1.64l-3.64-.54.14-1 3.64.51zM4 101.44c-.05-.34-.1-.68-.14-1l3.64-.49c0 .32.09.65.14 1zm175.52-1.64l-3.65-.47.12-1 3.65.42zM3.68 99.41l-.12-1L7.22 98l.11 1zm176.07-1.64l-3.66-.38c0-.32.07-.65.1-1l3.66.33c-.03.37-.07.71-.1 1.05zM3.46 97.38c0-.34-.07-.68-.1-1L7 96.05c0 .33 0 .65.09 1zm176.47-1.64l-3.66-.3c0-.32 0-.65.07-1l3.67.25c-.01.37-.01.71-.08 1.05zM3.28 95.35c0-.34 0-.68-.07-1l3.67-.23c0 .32 0 .65.07 1zm176.8-1.65l-3.68-.22v-1l3.68.17c.03.35.02.71 0 1.05zM3.15 93.31v-1l3.68-.15v1zm177-1.65l-3.68-.12v-1l3.68.09zM3.07 91.28v-1l3.68-.07v1zm177.14-1.66h-3.67v-1h3.68c0 .32 0 .66-.01 1zM3 89.24v-1h3.67v1zm177.19-.9h-3.68v-1l3.68-.05c.02.37.03.71.03 1.05zM6.71 87.25L3 87.2v-1l3.67.11c.06.29.05.62.04.94zm169.8-.86v-1l3.68-.14v1zM6.77 85.29l-3.68-.14c0-.34 0-.68.05-1l3.67.19c-.02.3-.03.66-.04.95zm169.67-.85l-.05-1 3.67-.22.05 1zM6.86 83.34l-3.67-.22.07-1 3.67.26zm169.46-.86c0-.32 0-.65-.07-1l3.66-.31c0 .34.06.68.08 1zM7 81.39l-3.66-.31.09-1 3.66.34zm169.16-.86l-.09-1 3.65-.39c0 .34.07.68.11 1zm-169-1.09l-3.66-.39.12-1 3.65.44c-.01.3-.04.62-.08.95zM176 78.58l-.12-1 3.64-.48c.05.34.09.68.13 1zM7.42 77.49L3.77 77c0-.34.1-.68.14-1l3.64.53c-.04.32-.09.64-.13.96zm168.29-.85l-.15-1 3.64-.55.15 1zM7.7 75.56L4.06 75c.05-.34.11-.68.16-1l3.63.6zm167.71-.85l-.16-1 3.62-.63.17 1zM8 73.63L4.4 73l.18-1 3.62.68zm167-.85l-.18-1 3.6-.72c.07.33.13.67.2 1zM8.38 71.71L4.78 71 5 70l3.59.78c-.08.29-.14.61-.21.93zm166.31-.85l-.21-1 3.59-.81c.07.33.14.67.22 1zM8.79 69.79L5.2 69l.24-1 3.56.84c-.06.32-.14.63-.21.95zM174.26 69c-.08-.32-.16-.63-.23-1l3.57-.88.24 1zm-165-1.06L5.68 67c.08-.33.17-.66.25-1l3.56.94zm164.53-.84c-.08-.31-.16-.63-.25-.94l3.55-1c.09.33.18.66.26 1zm-164-1L6.2 65l.27-1 3.54 1zm163.53-.83c-.09-.31-.18-.63-.28-.94l3.53-1.06c.1.33.19.66.28 1zm-163-1.06l-3.56-1.16.3-1 3.52 1.09zm162.42-.81l-.3-.94 3.5-1.14.31 1zM10.87 62.24L7.38 61.1c.1-.33.21-.65.32-1l3.48 1.19zm161.23-.81c-.1-.31-.21-.62-.31-.92l3.47-1.22.33 1zm-160.6-1L8 59.15l.34-1 3.46 1.26zm160-.79l-.34-.92 3.44-1.3.35 1zM12.18 58.53l-3.44-1.3c.12-.32.24-.64.37-1l3.42 1.35c-.12.34-.24.65-.35.95zm158.59-.78l-.36-.91 3.4-1.38c.13.32.26.64.38 1zm-157.88-1l-3.4-1.39.38-.94 3.4 1.41zM170 55.94c-.13-.3-.26-.6-.38-.9l3.38-1.45c.14.31.27.62.4.94zm-156.39-1l-3.37-1.46.41-.93 3.4 1.45zm155.62-.74c-.14-.3-.27-.59-.4-.89l3.34-1.53.42.93zm-154.81-1l-3.35-1.54.44-.93 3.32 1.58c-.1.2-.24.49-.37.79zm154-.72l-.42-.98 3.31-1.61.44.92zM15.3 51.33L12 49.71l.46-.92 3.28 1.66c-.15.29-.3.55-.44.88zm152.3-.71c-.15-.29-.29-.58-.44-.86l3.27-1.69.46.91zm-151.42-1l-3.27-1.68.48-.91 3.24 1.73zm150.53-.68l-.46-.86 3.22-1.76c.17.3.33.6.49.9zm-149.61-1l-3.22-1.76.49-.9L17.58 47zm148.67-.66l-.48-.85 3.19-1.84c.17.3.34.59.5.89zm-147.7-1l-3.19-1.84c.17-.29.34-.59.52-.88l3.16 1.88c-.17.13-.33.41-.49.69zm146.73-.65l-.5-.83 3.14-1.91.53.87zm-145.73-1l-3.14-1.91c.17-.3.35-.59.53-.87l3.12 1.94zM163.79 44l-.52-.83 3.1-2 .54.86zM20.11 43l-3.1-2 .56-.86 3.07 2c-.18.1-.36.37-.53.65zm142.63-.62l-.54-.81 3.05-2.06.56.85zm-141.56-1l-3.05-2.06.58-.84 3 2.09zm140.47-.61c-.19-.26-.37-.53-.56-.8l3-2.12.58.84zm-139.35-1l-3-2.13.6-.83 3 2.17zM160.52 39l-.57-.79 3-2.19.61.83zM23.45 38l-2.95-2.24c.2-.28.41-.55.62-.82L24 37.18c-.16.25-.36.51-.55.82zm135.91-.57l-.59-.78 2.9-2.25.62.81zm-134.72-1l-2.9-2.27.63-.8 2.88 2.3c-.25.22-.41.48-.61.74zm133.52-.57c-.2-.25-.4-.51-.61-.76l2.85-2.32c.22.26.43.53.64.79zm-132.3-1L23 32.54l.65-.79 2.83 2.36zm131.07-.55l-.63-.75 2.8-2.39.66.78zm-129.81-1L24.33 31l.67-.8 2.77 2.42zm128.54-.53l-.64-.74 2.74-2.45.67.77zm-127.25-.89l-2.74-2.46.69-.75 2.71 2.49c-.23.24-.44.48-.66.72zm126-.52l-.66-.72 2.68-2.51.7.75zm-124.68-.92l-2.68-2.52.7-.74 2.66 2.55c-.23.26-.41.47-.68.71zM153 29.94l-.67-.71 2.67-2.57c.24.24.48.49.71.74zM31.09 29l-2.62-2.58.72-.72 2.59 2.6zm120.57-.5l-.7-.69 2.57-2.63.73.72zm-119.18-.84L29.92 25l.73-.7 2.54 2.7zm117.78-.49l-.72-.67 2.51-2.69.75.7zM33.9 26.31l-2.5-2.69.75-.69 2.47 2.72zm114.93-.48c-.25-.21-.49-.43-.73-.65l2.44-2.75.76.68zM35.35 25l-2.44-2.75.77-.68 2.4 2.79zm112-.47l-.74-.64 2.38-2.8.78.67zm-110.52-.81l-2.38-2.81c.26-.22.52-.44.79-.65l2.34 2.83zm109-.46l-.76-.62 2.32-2.85.79.64zm-107.5-.79L36 19.61l.8-.63 2.28 2.89zm106-.45l-.77-.6 2.25-2.91.81.64zm-104.46-.76l-2.24-2.91.81-.62 2.21 2.94zm102.93-.43l-.78-.59 2.18-3 .82.62zm-101.37-.74l-2.18-3 .83-.59 2.14 3zm99.79-.43l-.79-.57 2.12-3 .83.59zM43 19l-2.11-3 .84-.58 2.07 3zm96.6-.41l-.81-.55 2.05-3.06.85.57zm-95-.69l-2-3.06.86-.56 2 3.08zm93.36-.4l-.83-.54 2-3.1.85.56zm-91.73-.66l-2-3.11.86-.54 1.93 3.13zm90.07-.4l-.83-.51 1.9-3.15.87.54zm-88.41-.63L46 12.61l.87-.52 1.87 3.17zm86.73-.38l-.84-.5 1.82-3.19.89.52zm-85-.61l-1.82-3.24.88-.5 1.79 3.21zM133 14.4l-.85-.47 1.75-3.23.9.49zm-81.63-.57l-1.75-3.24.9-.48 1.7 3.26zm79.91-.37l-.87-.45 1.68-3.27.91.47zm-78.19-.54l-1.71-3.27.91-.46 1.63 3.29zm76.44-.35l-.87-.43 1.6-3.31c.31.14.61.3.92.45zm-74.73-.52l-1.6-3.31.93-.44 1.55 3.34zm72.93-.34l-.89-.41 1.52-3.3.93.42zm-71.16-.48l-1.52-3.35.95-.42 1.48 3.37zm69.37-.33l-.9-.39 1.45-3.38.94.41zm-67.59-.46l-1.44-3.38.93-.39 1.41 3.39zm65.79-.31l-.91-.38 1.37-3.41 1 .39zm-64-.43L58.8 6.28l.94-.37 1.33 3.43zm62.15-.31L121.4 9l1.29-3.44 1 .37zM62 9l-1.3-3.45.95-.35 1.25 3.46zm58.5-.28l-.93-.33 1.21-3.48 1 .34zm-56.67-.39l-1.21-3.47c.32-.12.64-.23 1-.33L64.75 8zm54.79-.27l-.93-.31 1.12-3.5 1 .32zm-52.94-.35l-1.12-3.5 1-.3 1.09 3.51zm51.07-.25l-.94-.29 1-3.52 1 .29zm-49.2-.32l-1-3.53 1-.28 1 3.53zm47.32-.24l-.94-.26 1-3.55 1 .27zm-45.43-.29l-1-3.56 1-.26.92 3.57zM113 6.39l-1-.24.88-3.57 1 .25zm-41.67-.27l-.87-3.58 1-.23.83 3.58zm39.75-.2l-1-.22.8-3.59 1 .23zm-37.85-.25l-.78-3.59 1-.21.75 3.6zm35.94-.18l-1-.19.71-3.61 1 .21zm-34-.22l-.71-3.6 1-.2.66 3.62zm32.1-.16l-1-.17.63-3.62 1 .18zm-30.19-.19l-.63-3.63 1-.16.55 3.63zm28.25-.14l-1-.15.58-3.63 1 .16zM79 4.61L78.47 1l1-.14.53 3.61zm24.38-.12l-1-.13.46-3.65 1 .13zM81 4.34L80.49.69l1-.12.41 3.66zm20.49-.1l-1-.11.37-3.65 1 .11zm-18.6-.12L82.52.46l1-.1.34 3.64zM99.5 4l-1-.09.32-3.62q.51 0 1 .09zm-14.66-.1L84.55.28l1-.08.25 3.67zm12.71-.06l-1-.06.24-3.63 1 .06zM86.8 3.81L86.59.14l1-.05.16 3.67zm8.8 0h-1l.15-3.76 1 .05zm-6.85 0L88.63.05h1l.09 3.68zm4.89 0h-1L92.7 0h1zm-2.94 0V.13h1l.06 3.68z"/></g><circle class="cls-1" cx="91.62" cy="88.6" r="2.41"/></g></g></svg>