<svg xmlns="http://www.w3.org/2000/svg" viewBox="0 0 663.86 690.18"><defs><style>.cls-1{fill:none;stroke:#ff7300;stroke-miterlimit:10}.cls-2{fill:#ff7300}</style></defs><g id="图层_2" data-name="图层 2"><g id="Layer_1" data-name="Layer 1"><path class="cls-1" d="M371.91 272.23A80.69 80.69 0 00335 257.88L360.65 51.3a289.57 289.57 0 01132.07 51.35zM302.82 436.14a98.23 98.23 0 01-17.6-5.71 101.06 101.06 0 01-42-33.79L76.14 516.37a307.16 307.16 0 00181.28 120.29zM440.51 401.44a129.68 129.68 0 01-13.51 20.1 132.32 132.32 0 01-57.7 40.63l79.12 222A368.56 368.56 0 00647.1 514.8z"/><path class="cls-1" d="M357.2 263.92c-12.42-5.39-45.83-6.6-58.38-2.29L215.41 18.24c63.9-33.76 192.31-12.93 244.26 9.61zM178.74 403.74a159.33 159.33 0 01-12.35-42.21l46.52-6.85a112.32 112.32 0 008.7 29.76zM165.53 354.69A160.61 160.61 0 01167 310.8l46.33 8a113.81 113.81 0 00-1.06 31.05zM168.34 304.05a161 161 0 0115.08-41.24l41.54 22A113.63 113.63 0 00214.29 314zM186.78 256.8a159 159 0 0127.28-34.48l32.5 34a112.27 112.27 0 00-19.24 24.32zM219.13 217.67A161.59 161.59 0 01234.18 206 159.32 159.32 0 01252 195.32l21.45 41.83a114.15 114.15 0 00-12.63 7.55 116.77 116.77 0 00-10.68 8.3z"/><path class="cls-2" d="M131.57 511.56l12.15-11.17-1.61-1.77c-1.3-1.37-3.06-3.46-5.09-5.88l-.11-.12c-1.64-1.87-3.37-4.09-5.21-6.44l-1.8-2.29c-.83-1-1.63-2.16-2.41-3.24l-1.34-1.86c-1.24-1.68-2.55-3.48-3.77-5.36-5.09-7.28-9.57-15.24-12.54-20.5l-3.65-7c-.37-.7-.65-1.29-.86-1.74l-.2-.42-14.85 7.2-1.91-4c-.78-1.65-1.85-3.91-3-6.58l-2.09-4.9c-.47-1.15-.93-2.34-1.39-3.57-.25-.66-.5-1.33-.77-2-1.25-3.13-2.41-6.57-3.53-9.9l-.79-2.33c-.47-1.37-.88-2.77-1.27-4.12-.22-.74-.43-1.47-.65-2.19s-.39-1.31-.58-2c-.41-1.39-.84-2.82-1.17-4.22-.28-1.09-.55-2.17-.82-3.22-.72-2.78-1.39-5.41-1.85-7.78-1.44-6.38-2.14-10.78-2.15-10.83l-.09-.59 16.25-2.87-.41-2.35c-.3-1.53-.58-3.65-.91-6.1l-.15-1.8a232.26 232.26 0 01-1.94-24c0-.79 0-1.56-.06-2.34 0-1.38-.09-2.81-.06-4.2v-6.31c0-1.32.08-2.61.14-3.86 0-.69.06-1.38.09-2.05.08-2.21.17-3.85.3-5.31.08-.95.15-1.87.22-2.73.15-2.05.28-3.82.47-5.18l.26-2.36L66 309.39l.41-3.62 1.15-7.93c1-6 2.6-14.89 5-23.79 2.18-8.32 4.81-16.77 7.23-23.2l.59-1.62c.34-.94.66-1.81 1-2.62L84 240l15.25 6.32.06-.16c.18-.47.49-1.17.89-2.05l.91-2.07c.63-1.44 1.41-3.23 2.33-5.17 3-6.5 7.13-14.24 11.29-21.24a234.8 234.8 0 0113.36-20l1.65-2.18c1.24-1.66 2.31-3.08 3.19-4.13l1.5-1.85L121.67 177l2.28-2.83 5.23-6.06c4.51-5 10.51-11.43 17-17.38s13.31-11.77 18.55-15.7c1.81-1.45 3.5-2.66 4.86-3.64l1.55-1.13 3-2.15 9.85 14-1 .7-9.14-13-2 1.42c-.45.34-1 .71-1.56 1.13-1.34 1-3 2.18-4.82 3.62-5.22 3.92-11.95 9.61-18.47 15.63s-12.42 12.39-16.9 17.33l-5.21 6-1.5 1.86 12.8 10.43-2.27 2.81c-.87 1-1.93 2.44-3.17 4.08-.51.69-1.06 1.42-1.64 2.18a232.86 232.86 0 00-13.28 19.91c-4.14 7-8.24 14.66-11.24 21.14-.92 1.92-1.7 3.7-2.32 5.13-.34.78-.64 1.48-.92 2.08-.38.85-.68 1.53-.86 2l-.52 1.31-15.25-6.27-2.2 5.46c-.31.79-.62 1.66-1 2.59l-.52 1.63c-2.41 6.39-5 14.8-7.2 23.08-2.38 8.85-4 17.75-5 23.67l-1.15 7.9-.27 2.39 16.4 1.9-.4 3.58c-.18 1.33-.31 3.09-.46 5.12-.07.86-.14 1.78-.22 2.75-.13 1.44-.22 3.05-.3 5.24q0 1-.09 2.07c0 1.24-.11 2.52-.14 3.82v6.3c0 1.37 0 2.79.07 4.15 0 .78 0 1.57.06 2.35a227 227 0 001.93 23.85l.23 1.77c.33 2.43.6 4.53.9 6l.62 3.58-16.26 2.86c.24 1.4.91 5.18 2 10.18.46 2.35 1.13 5 1.84 7.72l.83 3.24c.32 1.37.73 2.73 1.16 4.16q.28 1 .57 1.95c.22.72.44 1.46.65 2.2.39 1.34.8 2.72 1.26 4.06l.79 2.34c1.11 3.31 2.27 6.74 3.51 9.84.27.69.52 1.37.78 2 .46 1.21.9 2.4 1.37 3.52l2.09 4.91c1.09 2.64 2.15 4.88 2.92 6.52l1.39 2.93 14.85-7.2.73 1.54c.2.43.47 1 .83 1.69l3.65 7c2.94 5.22 7.41 13.15 12.48 20.4 1.21 1.87 2.51 3.65 3.73 5.32l1.36 1.86c.8 1.12 1.56 2.18 2.37 3.2l1.8 2.3c1.83 2.34 3.56 4.54 5.18 6.39l.11.14c2 2.4 3.77 4.48 5.06 5.83l2.44 2.67-12.17 11.27 1.63 1.79c.85.9 2 2 3.28 3.37l2.28 2.33c1.5 1.54 3.25 3.19 5.11 4.93 1 .93 2 1.88 3 2.87l8.4 7.31 1.36 1.12c6.32 5.33 13 10.13 19.34 14.53l6.68 4.35c.89.59 1.59 1 2 1.29l8.67-14 3.1 1.85 1.26.76c1.5.9 3.36 2 5.56 3.19l4.64 2.55 8 4 2.88 1.32 2.12 1c1.26.58 2.52 1.16 3.8 1.71 7.28 3.12 15.46 6.16 22.43 8.35 1.55.54 3 .94 4.26 1.3l6.19 1.78-.34 1.18-6.19-1.78c-1.28-.36-2.73-.78-4.3-1.32-7-2.19-15.22-5.25-22.53-8.38-1.29-.56-2.56-1.14-3.83-1.72-.71-.33-1.41-.66-2.12-1l-5.7-2.74-5.27-2.67-4.65-2.55c-2.22-1.18-4.1-2.31-5.61-3.22l-1.26-.75-2.06-1.24-8.66 14-.52-.29s-1-.57-2.6-1.64l-6.68-4.36c-6.36-4.42-13.1-9.25-19.44-14.6l-2.55-2.08-7.26-6.38c-1.05-1-2.06-2-3-2.89-1.86-1.75-3.62-3.4-5.14-5l-2.29-2.33c-1.31-1.33-2.44-2.48-3.3-3.39zM355.71 157.48l3.06-18.11c3.36.56 6.75 1.23 10.07 2l-4 17.93c-3-.71-6.08-1.3-9.13-1.82zm14.82 3.13l4.55-17.79c1.24.32 2.48.65 3.71 1l-4.88 17.7c-1.12-.32-2.25-.62-3.38-.91zm137.06 192.17c.09-1.16.17-2.32.24-3.49l18.34 1.13c-.08 1.27-.17 2.55-.27 3.83zm.51-9.3c.09-3.1.1-6.24 0-9.34l18.36-.39c.08 3.4.06 6.85 0 10.26zM390.51 167l6.56-17.15c3.18 1.21 6.37 2.53 9.49 3.91l-7.43 16.79c-2.83-1.29-5.73-2.48-8.62-3.55zm13.9 6l8-16.54c1.16.55 2.3 1.12 3.45 1.7l-8.29 16.39c-1.07-.55-2.11-1.09-3.16-1.55zm102.52 143.69c-.14-1.15-.29-2.31-.44-3.46l18.2-2.48c.17 1.27.33 2.55.48 3.82zm-1.32-9.23c-.52-3-1.12-6.13-1.79-9.15l17.94-4c.73 3.32 1.39 6.71 2 10.07zm-82.87-124.34l9.82-15.52c2.88 1.82 5.75 3.73 8.53 5.7l-10.6 15c-2.49-1.78-5.13-3.53-7.75-5.18zm12.45 8.61l11.07-14.66c1 .77 2 1.55 3 2.34L438 193.86c-1-.72-1.88-1.43-2.81-2.13zm64 89.71q-.53-1.67-1.11-3.33l17.37-6c.41 1.22.82 2.43 1.22 3.65zm-3.1-8.81c-1.1-2.88-2.29-5.79-3.54-8.62l16.8-7.41a190.9 190.9 0 013.9 9.49zM451.2 205.3l12.64-13.3c2.48 2.35 4.92 4.79 7.26 7.24l-13.3 12.66c-2.13-2.24-4.35-4.46-6.6-6.6zm10.56 10.89L475.45 204c.86 1 1.7 1.92 2.54 2.89l-13.93 12c-.76-.96-1.53-1.83-2.3-2.7zm23 32.19c-.57-1-1.15-2-1.74-3l15.83-9.3c.66 1.11 1.3 2.22 1.93 3.35zm-4.78-8c-1.28-2-2.65-4.1-4-6.06-.4-.57-.79-1.14-1.19-1.7l15-10.59c.46.66.93 1.32 1.38 2 1.48 2.15 2.94 4.36 4.32 6.55z"/><path class="cls-2" d="M159 452.41c-.46-.66-.91-1.33-1.36-2l15.26-10.22c1.73 2.59 3.54 5.14 5.39 7.62l-14.71 11c-1.53-2.09-3.07-4.24-4.58-6.4zm8.5 11.47l14.36-11.45c.72.91 1.46 1.81 2.21 2.71L170 466.88c-.85-.99-1.67-1.99-2.47-3zm-19.79-29.94c-.61-1.13-1.21-2.26-1.79-3.41l16.33-8.4c.53 1 1.07 2.07 1.63 3.09zm-4.64-9.16c-1.46-3.08-2.87-6.23-4.17-9.37l17-7c1.19 2.85 2.47 5.72 3.8 8.53zM183 481.07l12.94-13c2.2 2.19 4.48 4.34 6.78 6.4l-12.25 13.68c-2.57-2.3-5.08-4.67-7.47-7.08zm12.31 11.24l11.82-14.06c.89.75 1.79 1.49 2.7 2.23l-11.54 14.28c-1.04-.76-2.03-1.62-3.02-2.45zm-62.87-95c-.38-1.23-.74-2.45-1.1-3.68l17.66-5.06c.32 1.11.65 2.23 1 3.34zm-2.77-9.86c-.85-3.31-1.61-6.68-2.28-10l18-3.61c.61 3 1.3 6.09 2.07 9.09zm84.15 118.64l10.08-15.29c2.58 1.7 5.24 3.37 7.91 4.94l-9.33 15.82a189.22 189.22 0 01-8.7-5.44zm14.27 8.61l8.83-16.1c1 .56 2.05 1.11 3.08 1.65l-8.52 16.27c-1.17-.52-2.3-1.17-3.43-1.79zM124.48 358.45c-.13-1.28-.25-2.55-.35-3.82l18.3-1.52c.1 1.16.2 2.32.32 3.48zm-.78-10.22c-.17-3.41-.26-6.86-.26-10.26h18.37c0 3.08.08 6.22.23 9.31zm125.18 176.42l6.94-17c2.87 1.17 5.81 2.28 8.73 3.3l-6.08 17.34c-3.21-1.13-6.47-2.35-9.59-3.64zm15.68 5.66l5.52-17.52c1.11.35 2.23.69 3.35 1l-5.2 17.62c-1.23-.34-2.45-.72-3.67-1.1zM124.38 318.75c.13-1.27.26-2.55.41-3.82l18.21 2.13c-.13 1.15-.26 2.31-.37 3.47zm1.25-10.18c.5-3.37 1.1-6.77 1.77-10.1l18 3.62c-.6 3-1.15 6.13-1.6 9.2z"/><path class="cls-2" d="M381.35 572.81l-5.47-3.63-2.29-8.43 6-5.38-2.45-9a214.62 214.62 0 01-262.53-251l-9-1.66-3.9-6.66-8.61-1.58-4.2 2.25-3.81-.72c-17.09 80.92 7 168.62 71.42 229.45 62.43 59 148 78.74 225.85 60.13zM93.55 269.47l5.87-2.92 8.44 2.23 1.66 7.91 9 2.39a213.42 213.42 0 0150.36-88.51c79.7-84.36 212.09-89.74 298.37-13.38l5.91-7h7.72l5.67-6.67.16-4.76 2.52-3c-98.53-88.84-251-83.17-342.6 13.77a243.78 243.78 0 00-56.9 98.91z"/><path class="cls-2" d="M252.6 484l9.78-19.75a142.27 142.27 0 0026.53 10l-5.64 21.3A163.27 163.27 0 01252.6 484zm40.9 13.88l4.27-21.62a141.5 141.5 0 0028.23 2.62l.13 22a163.22 163.22 0 01-32.63-3.05zm43.11 2.69l-1.55-22A141.05 141.05 0 00363 473.7l5.94 21.22a162.14 162.14 0 01-32.33 5.6zm42.33-8.76L371.63 471a140.73 140.73 0 0025.65-12.05l11.33 18.9a162.08 162.08 0 01-29.67 13.91zm26-37.76a142.29 142.29 0 0021.62-18.33L442.42 451a164.26 164.26 0 01-25 21.19zm27.7-25.07a140.18 140.18 0 0016-23.36L468 416.11a161.24 161.24 0 01-18.52 27.05zm20.08-31.47a141.25 141.25 0 009.28-26.83l21.44 5.09a163.68 163.68 0 01-10.73 31zM376.18 308.5l-.25-.46a10 10 0 00-.76-1.22c-.72-1-1.66-2.55-2.91-4.28l-2.2-2.67-1.2-1.46-1.39-1.41c-1-.93-1.88-2-2.94-2.9l-3.28-2.72a14 14 0 00-1.71-1.27l-1.76-1.19-1.72-1.18c-.58-.37-1.2-.67-1.78-1l-3.38-1.86-3.17-1.36a29 29 0 00-2.71-1.09l-2.14-.68-1.87-.59 3.85-13.74-.46-.14a8.49 8.49 0 00-1.32-.35l-4.78-1a74.07 74.07 0 00-14.73-1.19h-2l-2 .18-3.87.37a26.15 26.15 0 00-3.59.57l-3.2.63a38.73 38.73 0 00-4.72 1.24l-1.77.54 4.39 13.58-1.58.47c-1 .35-2.35 1-4 1.65a50.27 50.27 0 00-5.48 2.76 21.25 21.25 0 00-2.94 1.82l-3 2-2.76 2.28-1.36 1.1c-.46.36-.83.8-1.24 1.19a49.8 49.8 0 00-4.23 4.45c-1.12 1.4-2.15 2.5-2.74 3.37l-.92 1.37-4.59-3.2-1.24 1.89a48 48 0 00-2.94 5l-.91 1.65c-.28.59-.53 1.21-.81 1.85-.54 1.27-1.11 2.61-1.71 4a70.78 70.78 0 00-3.91 18.43c-.09 1.51 0 3-.06 4.35a27.35 27.35 0 00.1 3.89c.24 2.4.37 4.41.59 5.8s.43 2.17.43 2.17l5.5-1s.1.5.27 1.38a24.43 24.43 0 00.88 3.61l.73 2.38a19.38 19.38 0 00.9 2.62l1.15 2.74c.19.47.38.94.58 1.41s.48.91.71 1.37a61.31 61.31 0 006 9.54l2.37 2.81a7.81 7.81 0 00.94 1.06l-9.21 8.48 1.32 1.33c.86.83 2 2.11 3.54 3.46s3.36 2.9 5.42 4.42l3.27 2.22 1.68 1.14 1.79 1 3.57 2a15.67 15.67 0 001.8.87l1.8.77 3.4 1.45c1.1.39 2.17.7 3.15 1a47.93 47.93 0 004.75 1.39l1.84.39 2.68-12.23 1.82.39a18.81 18.81 0 002.1.38l2.76.3a61.89 61.89 0 0014.88-.31l4-.79c.65-.14 1.31-.22 1.93-.41l1.85-.57 3.5-1.07 3-1.27c.93-.4 1.82-.71 2.55-1.09l1.88-1 1.64-.88 8.75 15.3.83-.45a22.56 22.56 0 002.27-1.41 70.82 70.82 0 007.7-5.61l2.37-2c.8-.71 1.56-1.51 2.37-2.29a56.58 56.58 0 004.85-5.19l2.4-2.89c.84-.95 1.48-2.07 2.24-3.12l2.19-3.24c.71-1.1 1.3-2.28 1.95-3.43l1.88-3.46 1.56-3.59c.5-1.2 1-2.37 1.48-3.56l1.15-3.59c.37-1.17.75-2.33 1.07-3.47s.49-2.3.73-3.41.45-2.19.67-3.23.27-2.08.4-3.05c.22-2 .42-3.77.56-5.36s0-3 0-4.15v-3.61l-17.64.78-9.18.41v5.07c-.11 1-.24 2.21-.38 3.48a15.68 15.68 0 01-.25 2c-.14.67-.29 1.37-.45 2.09s-.29 1.46-.45 2.21-.47 1.49-.72 2.25-.47 1.54-.72 2.33-.66 1.52-1 2.3-.66 1.56-1 2.34l-1.24 2.24a50.3 50.3 0 01-12 14.41 43.67 43.67 0 01-5 3.65 9.89 9.89 0 01-1.47.93l-.54.28-1.39.75-1.58.86c-.62.33-1.37.57-2.15.92L342 385l-3 .89-1.55.49c-.53.16-1.09.22-1.64.34l-3.35.67a52.42 52.42 0 01-12.59.25l-2.33-.24a12.26 12.26 0 01-1.77-.33l-1.54-.33-1.28-.26a30.8 30.8 0 01-3.3-1c-.67-.22-1.42-.43-2.19-.69l-2.36-1-1.25-.53a7.64 7.64 0 01-1.26-.6l-2.49-1.37-1.25-.68-1.16-.81-2.29-1.54c-1.44-1.06-2.66-2.21-3.79-3.08s-1.85-1.86-2.46-2.43l-.93-.92a5.8 5.8 0 01-.79-.9l-2-2.43a52.82 52.82 0 01-5.07-8.06c-.2-.39-.44-.75-.6-1.15s-.33-.8-.49-1.19l-1-2.31a13.47 13.47 0 01-.76-2.21l-.62-2a18.93 18.93 0 01-.74-3.05c-.15-.74-.23-1.17-.23-1.17s-.12-.61-.34-1.67-.25-2.63-.46-4.49a21.1 21.1 0 01-.07-3v-3.37a53.22 53.22 0 011.05-7.2 54.75 54.75 0 012-7l1.33-3.08c.21-.49.39-1 .61-1.43l.71-1.26a33.61 33.61 0 012.27-3.89l1-1.41.78-1.16c.51-.76 1.43-1.73 2.49-3.06l.86-1 1-1 2.35-2.34 2.93-2.38.77-.65.87-.56 1.77-1.19a50 50 0 0118.48-7.22 48.89 48.89 0 0122.58 1.19 49.7 49.7 0 0131.43 27c.54 1.35 1.08 2.63 1.61 3.85s.76 2.46 1.1 3.59a19.17 19.17 0 01.77 3.22c.21 1 .39 1.92.56 2.75.34 3.39.53 5.33.53 5.33h.38l8.8-.39 18.27-.81s-.22-2.31-.54-5.76a27.45 27.45 0 00-.34-2.79l-.6-3.08c-.22-1.06-.44-2.16-.67-3.28s-.62-2.22-.94-3.34a81.89 81.89 0 00-4.52-11.93l-2.74-5.22z"/><path class="cls-2" d="M270.24 446.83l4.06-8 2.18 1.1-2.92 5.76 5.78 2.7 1.56.62 1 .37c.62.23 1.26.49 1.91.74 1.2.48 2.44 1 3.68 1.38l5.75 1.82c1.17.37 2.29.64 3.38.89.59.14 1.15.27 1.68.42l3.73.89 1.5-7.57 6.2 1.1c.93.17 2 .28 3.09.39l2 .22 3.67.35 6.73.29 6.6-.15c1 0 1.8-.12 2.55-.19l1.08-.1 2.58-.23.74 7.68 1.82-.17c.35 0 .77-.11 1.21-.18l6-.94c1.18-.21 2.41-.5 3.72-.8.7-.16 1.41-.33 2.12-.48l1-.24c.64-.14 1.27-.28 1.89-.45l2.82-.85 1.91-.57c1.11-.33 2.16-.64 3.08-1l3.66-1.33-2.82-7.18 2.48-.93a22.57 22.57 0 002.16-.93l1.15-.52 1.59-.73c1-.44 2-.92 3.13-1.45l6.55-3.56 4.36-2.79a41.66 41.66 0 003.55-2.41l5.09-3.8 4.74 6.08c.7-.54 1.73-1.38 2.93-2.47l4-3.5c.89-.79 1.77-1.7 2.7-2.66.5-.52 1-1 1.52-1.56a74.38 74.38 0 005.75-6.38c.6-.73 1.17-1.41 1.7-2a27.78 27.78 0 002-2.58l.33-.46-6.22-4.55 3.68-5.12 4.2-6.91c.27-.49.56-1.05.84-1.61.17-.34.34-.68.52-1 .33-.66.67-1.33 1-2 .59-1.14 1.15-2.23 1.64-3.3l2-4.78a34 34 0 001.3-3.31l.86-2.55 7.28 2.56 1.24-3.7c.31-.9.57-1.95.85-3.06.16-.64.33-1.3.51-2l.87-3.38c.08-.31.16-.62.23-.93l1.34-7.42c.16-.79.24-1.56.32-2.31l.69-6.55v-.14l-7.65-.49.28-8.75c0-.5 0-1.06-.06-1.65l-.05-1c0-.69-.06-1.41-.08-2.14-.05-1.25-.1-2.53-.18-3.81-.14-1-.26-2.14-.38-3.22a68.93 68.93 0 00-1.13-7.68l-1-5.06 2.4-.46 1 5a72.08 72.08 0 011.16 7.92c.12 1.08.25 2.17.38 3.27.09 1.37.14 2.67.19 3.94q0 1.1.09 2.13v1c0 .61.06 1.2.07 1.78l-.21 6.44 7.66.49v1.14a13.05 13.05 0 01-.12 1.57l-.69 6.52a24.31 24.31 0 01-.35 2.53l-1.34 7.44c-.09.38-.18.72-.26 1.06l-.87 3.39c-.19.67-.35 1.31-.5 1.94-.29 1.16-.57 2.26-.91 3.25l-2 6-7.28-2.56-.05.15a34.24 34.24 0 01-1.36 3.47l-2 4.88c-.54 1.16-1.14 2.32-1.72 3.44-.34.65-.68 1.31-1 2l-.51 1c-.3.58-.6 1.16-.91 1.73l-4.28 7-2.32 3.23 6.23 4.55-1.74 2.42a30.86 30.86 0 01-2.15 2.77c-.51.59-1.07 1.26-1.66 2a76.49 76.49 0 01-5.92 6.58c-.49.48-1 1-1.47 1.5-.92 1-1.87 1.93-2.84 2.8l-4 3.48a44.8 44.8 0 01-4.08 3.35l-.95.66-4.73-6-3.13 2.33a44.61 44.61 0 01-3.74 2.55l-4.43 2.83-6.68 3.63c-1.16.56-2.23 1.05-3.22 1.5-.56.25-1.09.49-1.59.73s-.79.35-1.14.52a25.59 25.59 0 01-2.38 1h-.1l2.81 7.18-6 2.25c-1 .34-2.07.66-3.22 1l-1.9.56-2.86.86c-.68.19-1.35.34-2 .49l-1 .24c-.72.15-1.42.31-2.11.48-1.28.29-2.6.6-3.88.82l-6 .95c-.48.08-.93.15-1.35.2l-4.27.39-.74-7.68h-.19l-1 .1c-.75.07-1.68.16-2.72.2l-6.69.15-7.66-.33-3-.33-2-.21c-1.17-.12-2.28-.23-3.29-.43l-3.82-.67-1.5 7.57-2.58-.46-3.7-.89-1.63-.4c-1.08-.26-2.31-.55-3.56-1l-5.76-1.82c-1.33-.44-2.6-.94-3.83-1.43l-1.89-.74-1-.37-1.67-.66zM221.1 33.46l-5.37-16.19q2.76-.93 5.55-1.8l5.09 16.29q-2.64.83-5.27 1.7zM235.67 29l-4.6-16.43c1.88-.53 3.75-1 5.64-1.53L241 27.57c-1.77.43-3.56.94-5.33 1.43zm14.76-3.75l-3.8-16.63c1.89-.44 3.79-.85 5.7-1.25l3.51 16.7q-2.71.58-5.41 1.19zm14.92-3l-3-16.8c1.92-.34 3.83-.67 5.76-1l2.7 16.85q-2.73.45-5.46.93zm15-2.32L278.21 3q2.9-.37 5.79-.7l1.9 17c-1.84.15-3.67.38-5.5.61zm15.15-1.59l-1.39-17q2.91-.24 5.82-.42l1.09 17c-1.8.08-3.64.25-5.47.4zm15.2-.87L310.18.39c1.94-.07 3.88-.11 5.83-.15l.28 17.07c-1.85.03-3.7.07-5.54.14zm15.3-.18l.22-17.06c1.93 0 3.88.07 5.82.13l-.52 17.06c-1.85-.06-3.69-.1-5.52-.13zm15.2.57l1.15-17c1.95.12 3.84.25 5.73.4l-1.32 17c-1.79-.14-3.59-.26-5.4-.37zm15.22 1.27l1.83-17q2.91.31 5.8.67l-2.12 16.94q-2.76-.3-5.53-.61zm15.11 2l2.63-16.86c1.92.3 3.84.61 5.76 1L377 22l-5.49-.88zm15 2.7l3.4-16.73q2.86.59 5.71 1.22L391.93 25q-2.7-.62-5.42-1.18zM438.86 589.56l-5.92-12.92q2.1-1 4.18-2l6.14 12.82c-1.47.74-2.93 1.43-4.4 2.1zm12-5.83l-6.5-12.64c1.37-.7 2.73-1.42 4.1-2.14l6.7 12.53q-2.16 1.14-4.29 2.25zm11.73-6.36L455.55 565c1.33-.76 2.67-1.54 4-2.33l7.25 12.23c-1.4.85-2.8 1.67-4.2 2.47zm11.41-6.88l-7.59-12 2.3-1.47 1.59-1 7.79 11.88-1.68 1.1zm3-19q1.89-1.32 3.77-2.67l8.3 11.54c-1.31.94-2.63 1.88-4 2.8zm10.3-7.49c1.23-.94 2.44-1.88 3.65-2.83l8.81 11.15q-1.9 1.5-3.83 3zm9.93-7.94c1.18-1 2.35-2 3.51-3l9.3 10.75q-1.83 1.59-3.7 3.15zm9.54-8.36c1.14-1 2.26-2.1 3.38-3.16l9.78 10.32c-1.17 1.11-2.36 2.21-3.55 3.31zm9.17-8.8q1.62-1.64 3.23-3.3l10.23 9.86c-1.12 1.17-2.25 2.32-3.39 3.47zm8.75-9.2c1-1.14 2.06-2.29 3.08-3.44l10.67 9.38q-1.61 1.83-3.24 3.62zm8.32-9.59c1-1.18 2-2.38 2.92-3.58l11.07 8.86q-1.51 1.89-3.06 3.76zm7.88-10c.93-1.23 1.84-2.47 2.75-3.71l11.49 8.37c-1 1.31-1.92 2.6-2.89 3.9zM181.75 369.28a145.76 145.76 0 01-3.17-24.11l1.22-.06a145.48 145.48 0 003.14 23.89zM195.54 322.83a131.07 131.07 0 014.11-20.56l1.18.34a129.69 129.69 0 00-4.08 20.39zM201.67 281.3a137.15 137.15 0 0110.69-19l1 .68a135.87 135.87 0 00-10.6 18.87zM177.47 370.21a151.28 151.28 0 01-3.27-24.83l1.23-.06a149.91 149.91 0 003.23 24.68zM198 279.61A141.8 141.8 0 01209 260l1 .69a139.79 139.79 0 00-10.91 19.43zM219.77 239.9a144.28 144.28 0 0117.15-15.61l.75 1a143.45 143.45 0 00-17 15.47zM441.61 657.84l-7.61-20.7 2.23-.83L444 657zm4.74-1.78l-7.87-20.58 2.21-.86 8 20.53zm4.72-1.84l-8.18-20.47 2.18-.88 8.35 20.39c-.78.33-1.56.64-2.35.96zm4.69-1.92l-8.49-20.3 2.17-.92 8.66 20.26zm4.66-2l-8.8-20.2c.73-.32 1.45-.63 2.17-1l9 20.14c-.79.4-1.59.76-2.37 1.07zm4.63-2L456 628.18l2.15-1 9.26 20zm4.62-2.13l-9.43-19.93 2.15-1 9.55 19.76zm4.54-2.19l-9.69-19.79 2.12-1.06 9.85 19.72zm4.55-2.27l-10-19.63 2.12-1.09L481 640.52zm4.5-2.33L473 619.86l2.11-1.12 10.42 19.42zm4.46-2.4l-10.59-19.33 2.09-1.15 10.7 19.27zm4.42-2.46l-10.87-19.17 2.06-1.17 11 19.08c-.72.39-1.46.81-2.19 1.22zm4.37-2.52l-11.12-19 2-1.19 11.29 18.92zm4.37-2.6l-11.43-18.84 2-1.24L503 628zm4.31-2.66L493.48 608l2-1.27 11.84 18.59zm4.26-2.71l-11.95-18.56 2-1.29 12.11 18.42zm4.23-2.79l-12.22-18.34 2-1.31 12.38 18.23zm-8.32-21l1.95-1.35 12.65 18-2.08 1.44zm3.88-2.72l1.92-1.37L524.07 614l-2.07 1.45zm3.83-2.76l1.89-1.41L528.14 611l-2 1.5zm3.78-2.82l1.89-1.45 13.43 17.48-2 1.52zm3.75-2.94l1.87-1.47 13.69 17.28-2 1.55zm3.71-2.94l1.85-1.5 13.94 17.07-2 1.59zm3.67-3l1.81-1.51L544 598.41c-.64.55-1.29 1.09-1.94 1.63zm3.62-3.06c.6-.51 1.2-1 1.79-1.54l14.46 16.63-1.92 1.66zm3.58-3.1l1.76-1.57 14.71 16.42-1.9 1.68zm3.51-3.15l1.76-1.61 14.94 16.2-1.85 1.7zm3.49-3.22l1.73-1.62 15.18 16-1.85 1.73zm3.44-3.26l1.69-1.65 15.42 15.75-1.82 1.77zM549 564l1.68-1.68 15.65 15.51-1.78 1.79zm3.33-3.36c.54-.56 1.09-1.12 1.63-1.69l15.9 15.27-1.77 1.78zm3.26-3.39l1.61-1.72 16.13 15-1.73 1.84zm3.22-3.45l1.59-1.74 16.34 14.79-1.7 1.86zm3.16-3.49l1.56-1.76 16.57 14.53-1.69 1.92zm3.11-3.54l1.55-1.8 16.76 14.31-1.64 1.9zm3.06-3.59c.51-.6 1-1.21 1.52-1.82l17 14c-.53.65-1.06 1.29-1.6 1.93zm3-3.65c.5-.6 1-1.21 1.48-1.83l17.19 13.79c-.52.66-1 1.32-1.59 2zm3-3.67l1.45-1.86 17.4 13.53c-.51.67-1 1.33-1.55 2zm2.89-3.72c.48-.62.95-1.25 1.43-1.88L596 543.52l-1.52 2zm2.84-3.77c.47-.63.94-1.27 1.4-1.91l17.79 13c-.49.68-1 1.35-1.49 2zm2.79-3.82c.46-.63.91-1.27 1.36-1.91l18 12.73c-.49.69-1 1.38-1.48 2.06zm2.72-3.85l1.34-1.93 18.18 12.45c-.47.7-1 1.39-1.44 2.08zm2.66-3.88l1.32-2L607.67 527c-.46.7-.93 1.39-1.4 2.09zm2.61-3.94c.43-.66.86-1.32 1.28-2l18.56 11.9-1.38 2.13zm2.55-4l1.26-2 18.72 11.62c-.44.72-.89 1.43-1.34 2.14zm2.49-4c.41-.67.82-1.34 1.22-2l18.91 11.33-1.31 2.17zm2.44-4.06c.4-.67.79-1.35 1.18-2l19.07 11.06c-.42.73-.85 1.46-1.28 2.19zm2.37-4.08l1.15-2.05 19.23 10.77c-.41.74-.83 1.47-1.25 2.21zm2.3-4.11l1.13-2.08 19.39 10.48-1.21 2.22zm2.24-4.16l1.11-2.1 19.53 10.2c-.38.75-.78 1.49-1.17 2.23zm2.18-4.18l1.08-2.12 19.69 9.9c-.38.75-.76 1.49-1.13 2.24zm2.13-4.22c.35-.71.69-1.42 1-2.14l19.84 9.61-1.11 2.25zm2.06-4.26l1-2.14 20 9.3c-.35.76-.71 1.52-1.07 2.28zm2-4.28l1-2.16 20.11 9c-.34.77-.69 1.53-1 2.3zm1.94-4.33l.93-2.16 20.26 8.69-1 2.34zm1.85-4.33c.31-.73.62-1.46.92-2.19l20.37 8.4-1 2.32zm1.8-4.37c.3-.72.59-1.45.87-2.18l20.51 8.08c-.31.79-.63 1.58-1 2.37zm1.73-4.37c.28-.74.57-1.48.85-2.23l20.62 7.79-.9 2.35zm1.67-4.44c.28-.73.55-1.47.81-2.21l20.74 7.46-.87 2.38zm1.61-4.46c.26-.74.52-1.48.77-2.22l20.85 7.16c-.28.8-.55 1.6-.84 2.4zm1.54-4.47c.25-.74.5-1.49.74-2.23l21 6.85c-.27.8-.53 1.6-.8 2.41zm1.47-4.49c.24-.75.47-1.5.71-2.25l21 6.54c-.25.81-.5 1.61-.76 2.42zm1.4-4.51c.23-.76.46-1.51.68-2.27l21.14 6.23-.72 2.43zm1.34-4.55c.22-.75.43-1.51.64-2.26l21.23 5.9c-.22.82-.45 1.64-.69 2.45zm1.27-4.56c.2-.75.41-1.51.6-2.27L652.9 426c-.21.82-.43 1.64-.65 2.46zm1.2-4.55l.57-2.31 21.4 5.28c-.2.82-.4 1.63-.61 2.44zm1.13-4.61c.18-.76.37-1.53.54-2.3l21.48 5c-.19.82-.39 1.64-.58 2.46zm1.07-4.61l.51-2.31 21.54 4.64-.54 2.47zm1-4.63l.48-2.31 21.61 4.31-.51 2.49zm.93-4.63c.15-.78.3-1.55.44-2.33l21.67 4c-.15.82-.3 1.65-.46 2.48zm.86-4.66c.14-.78.27-1.55.4-2.33l21.73 3.67c-.14.83-.28 1.66-.43 2.49zm.79-4.66c.13-.78.25-1.57.37-2.35l21.78 3.36-.39 2.49zm.72-4.68l.33-2.35 21.83 3c-.11.83-.23 1.66-.35 2.5zm.65-4.69l.3-2.35 21.87 2.7c-.1.83-.21 1.67-.32 2.5zm.58-4.71c.09-.78.18-1.56.26-2.34l21.91 2.37c-.09.84-.18 1.68-.28 2.52zm.51-4.71c.08-.78.16-1.57.23-2.35l21.94 2-.24 2.53zm.44-4.72c.07-.78.13-1.56.19-2.35l22 1.73-.21 2.53zm.37-4.71c.06-.79.11-1.57.16-2.36l22 1.4c0 .84-.11 1.69-.17 2.53zm.3-4.72l.12-2.37 22 1.08c0 .84-.09 1.68-.14 2.52zm.23-4.74l.09-2.35 22 .72c0 .85-.06 1.7-.09 2.55zM61.87 465.38l-.56-1.14 24.23-11.78.52 1.07zm-1.68-3.49l-.54-1.15 24.4-11.42.5 1.08zm-1.62-3.48l-.52-1.15 24.53-11.13.49 1.08zm-1.57-3.5l-.53-1.19L81.17 443l.46 1.05zm-1.54-3.55l-.46-1.13 24.79-10.54.48 1.13zM54 447.82l-.48-1.17 24.94-10.17.45 1.1zm-1.45-3.6l-.46-1.17 25.09-9.79.43 1.1zm-1.39-3.58l-.44-1.18L75.91 430l.42 1.1zm-1.34-3.59l-.44-1.23 25.35-9.1.39 1.07zm-1.3-3.65l-.42-1.2 25.46-8.79.39 1.11zm-1.25-3.63l-.4-1.2 25.57-8.49.37 1.13zm-1.19-3.65l-.39-1.21 25.67-8.16.36 1.12zm-1.15-3.66l-.38-1.25 25.79-7.77.33 1.09zm-1.12-3.72l-.35-1.21 25.88-7.46.34 1.14zm-1-3.69l-.34-1.22 26-7.13.31 1.14zm-1-3.71l-.32-1.22 26.07-6.81.3 1.15zm-.95-3.72l-.32-1.26L66.63 400l.28 1.11zm-.92-3.77l-.29-1.24 26.25-6.05.27 1.14zm-.94-3.74l-.27-1.24 26.32-5.73.25 1.14zm-.81-3.76l-.25-1.21 26.38-5.47.25 1.2zm-.76-3.76l-.24-1.26 26.46-5.05.22 1.15zm-.71-3.79l-.22-1.24 26.5-4.72.21 1.16zm-.66-3.8l-.21-1.26 26.58-4.37.2 1.17zm-.61-3.8l-.19-1.2 26.63-4 .18 1.17zm-.56-3.81l-.18-1.25 26.69-3.68.16 1.17zm-.51-3.81l-.16-1.26L61 369l.15 1.17zm-.47-3.82l-.14-1.26 26.78-3 .13 1.17zM33.5 366l-.12-1.27 26.81-2.6.11 1.17zm-.36-3.83l-.14-1.32 26.85-2.25.1 1.18zm-.31-3.84l-.09-1.33 26.87-1.9.09 1.18zm-.26-3.84l-.07-1.26 26.89-1.54.07 1.18zm-.21-3.85v-1.27l26.91-1.15.05 1.17zm-.15-3.81l-.05-1.31 26.93-.78v1.13zm-.11-3.85v-1.28l26.9-.53v1.17zm-.1-3.91v-1.27l27-.11v1.17zm0-3.82v-1.31l26.94.27v1.14zm0-3.86v-1.26l26.93.56v1.19zm.1-3.86v-1.26l26.92 1v1.18zm.14-3.83l.06-1.29 26.91 1.34-.06 1.15zm.2-3.84l.08-1.27 26.88 1.66-.07 1.17zm.25-3.83l.09-1.29 26.86 2.05-.08 1.14zm.3-3.84l.11-1.28 26.9 2.4-.1 1.15zm.35-3.81l.13-1.32 26.79 2.8-.03 1.14zm.4-3.84l.15-1.29 26.75 3.13-.13 1.15zm.45-3.81l.17-1.31 26.7 3.52-.06 1.12zm.51-3.83l.18-1.28 26.66 3.86-.17 1.14zm.55-3.8l.19-1.27L62.13 296l-.13 1.17zm.6-3.79l.21-1.24 26.56 4.49-.2 1.16zm.65-3.77l.24-1.3 26.48 4.93-.2 1.1zm.71-3.78l.24-1.27L64 285.72l-.22 1.13zM38 278l.26-1.25 26.35 5.59-.23 1.14zm.81-3.76l.27-1.23 26.32 5.89-.26 1.15zm.85-3.73l.29-1.26 26.19 6.3-.26 1.12zm.9-3.74l.31-1.25L67 272.15l-.28 1.11zm.95-3.72l.33-1.23 26 7-.3 1.13zm1-3.69l.35-1.25 25.92 7.33-.31 1.1zm1.05-3.69l.37-1.25 25.81 7.68-.32 1.09zM44.7 252l.37-1.22 25.73 8-.34 1.11zm1.15-3.67l.4-1.24 25.6 8.38-.35 1.08zm1.15-3.69l.41-1.22L73 252.11l-.37 1.1zm1.28-3.64l.43-1.22 25.38 9-.38 1.08zm1.3-3.62l.44-1.22 25.26 9.36-.39 1.08z"/><path class="cls-2" d="M60.28 465.56l-3.53-7.68-2.3-5.41a296 296 0 01-10.6-29.7 284.47 284.47 0 01-7.33-30.66c-.37-1.8-.64-3.52-.88-5l-.82-5.2c-.15-.84-.24-1.57-.31-2.17q-.06-.4-.09-.72l-.1-.74-5.21-3.44c-3.52-2.33-8-5.58-11.85-8.45-4.26-3.23-8.26-6.52-11.54-9.17-1.64-1.34-2.93-2.44-3.82-3.22l-1.61-1.4-.17-4.7c-.1-2-.1-4.73-.11-7.86v-3.82c.1-11.33.88-24.22 2.15-35.37a351.2 351.2 0 016-35c.39-1.63.76-3.16 1.09-4.57.64-2.69 1.2-5 1.71-6.8l1.23-4.48 3.67-1.91c2-1.07 4.82-2.43 7.61-3.73 2.43-1.15 5.2-2.42 7.61-3.5l3.21-1.4 1.09-3.07c.26-.69.53-1.48.83-2.35.62-1.79 1.4-4 2.39-6.43 2.76-7.34 6.9-16.8 11.34-25.93 4.68-9.27 9.69-18.29 13.76-24.78 1.33-2.26 2.64-4.24 3.69-5.83.49-.75.94-1.42 1.32-2l2.29-3.54 22.73 15.34-.71 1-21.67-14.58-1.58 2.43c-.38.6-.83 1.28-1.33 2-1 1.57-2.34 3.54-3.66 5.79-4.06 6.49-9.05 15.49-13.71 24.72-4.42 9.09-8.54 18.51-11.3 25.83-1 2.41-1.75 4.61-2.36 6.38-.31.88-.59 1.68-.84 2.37l-1.27 3.58-3.7 1.61a390.83 390.83 0 00-7.59 3.48c-2.78 1.29-5.54 2.65-7.57 3.71l-3.18 1.65-1.11 4c-.5 1.76-1.05 4.07-1.69 6.75-.34 1.42-.7 2.95-1.1 4.57A353 353 0 003.41 301c-1.26 11.11-2 24-2.15 35.23v3.82c0 3.11 0 5.79.11 7.81l.16 4.14 1.2 1c.88.77 2.16 1.86 3.73 3.15 3.28 2.68 7.3 6 11.55 9.13 3.87 2.87 8.3 6.11 11.8 8.42l5.69 3.76.17 1.31c0 .2.06.45.09.73.07.58.16 1.29.3 2.12l.83 5.2c.23 1.51.5 3.21.87 5a284.61 284.61 0 007.3 30.54A293.73 293.73 0 0055.62 452l3.12 7.2 2.68 5.8zM187.63 415.89l-.58-1.08 115.11-61.91a32.2 32.2 0 0013.76-41.44L202.71 68.79l1.11-.52L317 311a33.44 33.44 0 01-14.29 43z"/><path class="cls-2" transform="rotate(-4.27 322.11 240.195)" d="M321.42 177.91h1.22v124.48h-1.22z"/><path class="cls-2" transform="rotate(-81.97 540.198 368.61)" d="M539.57 283.71h1.22v169.81h-1.22z"/><path class="cls-2" d="M418.44 689.92a.44.44 0 01-.08-.2l-.27-1a.61.61 0 011.19-.3l.26 1a.61.61 0 01-.44.75.64.64 0 01-.66-.25zm-1.78-7a.56.56 0 01-.09-.19l-.3-1.19a.61.61 0 01.44-.74.62.62 0 01.75.44l.3 1.19a.61.61 0 01-.44.74.6.6 0 01-.66-.23zm-1.82-7.11a.72.72 0 01-.09-.2l-.3-1.19a.61.61 0 011.19-.3l.3 1.19a.6.6 0 01-.44.74.61.61 0 01-.66-.22zm-1.84-7.1a.61.61 0 01-.09-.2l-.3-1.18a.61.61 0 111.19-.31l.3 1.19a.61.61 0 01-.44.75.64.64 0 01-.66-.25zm-1.81-7.12a.66.66 0 01-.09-.19l-.31-1.19a.61.61 0 111.19-.31l.3 1.19a.61.61 0 01-1.09.5zm-1.82-7.12a.56.56 0 01-.09-.19l-.31-1.19a.61.61 0 011.19-.3l.31 1.19a.62.62 0 01-.45.74.61.61 0 01-.63-.25zm-1.82-7.11a.72.72 0 01-.09-.2l-.3-1.19a.6.6 0 01.44-.74.61.61 0 01.74.44l.31 1.19a.62.62 0 01-.45.74.6.6 0 01-.63-.24zm-1.82-7.12a.72.72 0 01-.09-.2l-.3-1.18a.61.61 0 111.18-.31l.31 1.19a.61.61 0 01-.45.74.6.6 0 01-.63-.24zm-1.82-7.12a.61.61 0 01-.09-.2l-.3-1.18a.61.61 0 01.48-.74.63.63 0 01.75.45l.3 1.18a.63.63 0 01-.44.75.62.62 0 01-.68-.26zm-1.8-7.12a.66.66 0 01-.09-.19l-.3-1.19a.6.6 0 01.44-.74.61.61 0 01.75.44l.3 1.18a.63.63 0 01-.44.75.62.62 0 01-.66-.25zm-1.82-7.12a.56.56 0 01-.09-.19l-.3-1.19a.6.6 0 01.44-.74.61.61 0 01.75.44l.3 1.19a.61.61 0 01-.44.74.6.6 0 01-.66-.25zm-1.82-7.11a.5.5 0 01-.08-.2l-.31-1.19a.61.61 0 011.19-.3l.3 1.19a.6.6 0 01-.44.74.61.61 0 01-.66-.24zm-1.81-7.12a.46.46 0 01-.09-.2l-.31-1.18a.61.61 0 111.19-.31l.3 1.19a.61.61 0 01-.44.75.62.62 0 01-.65-.25zm-1.82-7.12a.48.48 0 01-.09-.19l-.31-1.19a.63.63 0 01.45-.75.62.62 0 01.74.45l.3 1.18a.61.61 0 01-1.09.5zm-1.84-7.12a.66.66 0 01-.09-.19l-.31-1.19a.61.61 0 011.19-.3l.31 1.18a.62.62 0 01-.45.75.61.61 0 01-.65-.25zm-1.82-7.11a.72.72 0 01-.09-.2l-.3-1.19a.61.61 0 111.18-.3l.3 1.19a.61.61 0 01-1.09.5zm-1.82-7.12a.61.61 0 01-.09-.2l-.3-1.18a.61.61 0 111.18-.31l.31 1.19a.61.61 0 01-1.1.5zm-1.82-7.12a.61.61 0 01-.09-.2l-.3-1.18a.61.61 0 111.19-.3l.3 1.18a.63.63 0 01-.44.75.62.62 0 01-.64-.25zm-1.82-7.12a.66.66 0 01-.09-.19l-.3-1.19a.6.6 0 01.44-.74.61.61 0 01.75.44l.3 1.18a.61.61 0 01-1.1.5zm-1.82-7.12a.56.56 0 01-.09-.19l-.3-1.19a.61.61 0 011.19-.3l.3 1.19a.61.61 0 01-.44.74.6.6 0 01-.64-.25zm-1.82-7.11a.72.72 0 01-.09-.2l-.3-1.18a.61.61 0 111.19-.31l.3 1.19a.6.6 0 01-.44.74.62.62 0 01-.64-.24zm-1.81-7.12a.61.61 0 01-.09-.2l-.31-1.18a.63.63 0 01.44-.75.62.62 0 01.75.44l.3 1.19a.61.61 0 01-.44.75.63.63 0 01-.63-.25zm-1.82-7.12a.66.66 0 01-.09-.19l-.31-1.19a.63.63 0 01.44-.75.62.62 0 01.75.45l.3 1.18a.61.61 0 01-1.09.5zm-1.82-7.12a.56.56 0 01-.09-.19l-.3-1.19a.61.61 0 111.18-.3l.31 1.18a.62.62 0 01-.45.75.61.61 0 01-.63-.25zm-1.82-7.11a.72.72 0 01-.09-.2l-.3-1.19a.61.61 0 111.18-.3l.31 1.19a.62.62 0 01-.45.74.6.6 0 01-.63-.24zm-1.81-7.12a.72.72 0 01-.09-.2l-.3-1.18a.61.61 0 111.18-.31l.31 1.19a.61.61 0 01-1.1.5zM457.93 359.46a3.22 3.22 0 10-4.48-.83 3.22 3.22 0 004.48.83zM450.5 687.22a3.22 3.22 0 10-4.48-.83 3.22 3.22 0 004.48.83zM259.25 639.32a3.22 3.22 0 10-4.48-.83 3.23 3.23 0 004.48.83zM437.09 317.79a3.22 3.22 0 10-4.48-.82 3.2 3.2 0 004.48.82zM190.14 417.26a3.22 3.22 0 10-4.48-.83 3.22 3.22 0 004.48.83zM355.65 54.74a6.32 6.32 0 118.79 1.62 6.34 6.34 0 01-8.79-1.62zm8.75-6a4.3 4.3 0 10-1.11 6 4.3 4.3 0 001.11-6.02zM306 440.72a5.35 5.35 0 10-7.43-1.38 5.35 5.35 0 007.43 1.38zM365.4 600.61l-3.13-11.9 13.84 3.21 10.48-9.59 3.13 11.9-10.48 9.59-13.84-3.21zM372.26 626.75l-3.13-11.91 13.84 3.21 10.48-9.59 3.13 11.9-10.48 9.59-13.84-3.2zM379.12 652.88l-3.13-11.91 13.84 3.21 10.48-9.59 3.13 11.91-10.48 9.59-13.84-3.21zM385.98 679.01l-3.13-11.9 13.84 3.2 10.48-9.59 3.12 11.91-10.48 9.59-13.83-3.21zM217.13 104.62l4.2 9-11.45-.54-6.93 9.13-4.2-9 6.93-9.13 11.45.54zM210.21 89.81l4.2 9-11.45-.55-6.93 9.13-4.21-9 6.94-9.13 11.45.55zM203.29 74.99l4.2 9-11.45-.54-6.93 9.13-4.2-9 6.93-9.13 11.45.54zM196.37 60.18l4.2 8.99-11.45-.54-6.93 9.13-4.2-9 6.93-9.13 11.45.55zM189.45 45.36l4.2 9-11.45-.55-6.93 9.14-4.21-9 6.94-9.14 11.45.55zM528.93 369.29l5.24.74-3.58 4.96 2.07 5.76-5.25-.74-2.06-5.76 3.58-4.96zM520.29 368.07l5.24.74-3.57 4.96 2.06 5.76-5.25-.74-2.06-5.76 3.58-4.96zM511.65 366.84l5.25.75-3.58 4.96 2.06 5.76-5.25-.75-2.06-5.76 3.58-4.96zM503.01 365.62l5.25.74-3.58 4.96 2.06 5.76-5.25-.74-2.06-5.76 3.58-4.96zM494.37 364.4l5.25.74-3.58 4.96 2.06 5.76-5.24-.74-2.07-5.76 3.58-4.96z"/></g></g></svg>