<svg xmlns="http://www.w3.org/2000/svg" viewBox="0 0 98.39 108.7"><defs><style>.cls-1{fill:#fff}</style></defs><g id="图层_2" data-name="图层 2"><g id="Elements"><path class="cls-1" d="M49.45 99.22a43.68 43.68 0 1143.68-43.68 43.73 43.73 0 01-43.68 43.68zm0-85.36a41.68 41.68 0 1041.68 41.68 41.72 41.72 0 00-41.68-41.68z"/><path class="cls-1" d="M28.85 83.32A34.58 34.58 0 1184 55.54h-1a33.58 33.58 0 10-53.58 27zM48.45 0h2v12.86h-2z"/><path class="cls-1" transform="rotate(-15 37.345 10.403)" d="M36.35 6.36h2v8.09h-2z"/><path class="cls-1" transform="rotate(-30 26.984 16.63)" d="M25.99 14.4h2v4.47h-2z"/><path class="cls-1" transform="rotate(-45 16.553 22.653)" d="M15.56 18.82h2v7.66h-2z"/><path class="cls-1" transform="rotate(-60.01 10.848 33.259)" d="M9.85 31.37h2v3.77h-2z"/><path class="cls-1" transform="rotate(-75 4.225 43.241)" d="M3.24 39.31h2v8.24h-2z"/><path class="cls-1" d="M1.01 54.54h5.76v2H1.01z"/><path class="cls-1" transform="rotate(-15 6.232 67.122)" d="M4.15 66.12h4.14v2H4.15z"/><path class="cls-1" transform="rotate(-29.99 9.778 78.442)" d="M6.66 77.44h6.24v2H6.66z"/><path class="cls-1" transform="rotate(-45 15.356 89.63)" d="M9.82 88.63h11.07v2H9.82z"/><path class="cls-1" transform="rotate(-60.01 26.3 95.615)" d="M22.7 94.62h7.21v2H22.7z"/><path class="cls-1" transform="rotate(-75 36.835 102.607)" d="M30.79 101.6h12.09v2H30.79z"/><path class="cls-1" d="M48.45 98.22h2v5.47h-2z"/><path class="cls-1" transform="rotate(-15 61.598 100.877)" d="M60.59 96.62h2v8.48h-2z"/><path class="cls-1" transform="rotate(-30 72.39 95.277)" d="M71.38 92.07h2v6.38h-2z"/><path class="cls-1" transform="rotate(-45 83.485 89.58)" d="M82.49 84.12h2v10.91h-2z"/><path class="cls-1" transform="rotate(-60 88.618 78.149)" d="M87.61 75.61h2v5.08h-2z"/><path class="cls-1" transform="rotate(-75 94.156 67.517)" d="M93.16 63.91h2v7.21h-2z"/><path class="cls-1" d="M92.13 54.54h3.2v2h-3.2z"/><path class="cls-1" transform="rotate(-15 92.94 43.88)" d="M90.59 42.88h4.7v2h-4.7z"/><path class="cls-1" transform="rotate(-29.99 92.157 30.887)" d="M85.52 29.88h13.26v2H85.52z"/><path class="cls-1" transform="rotate(-45 81.407 23.58)" d="M78.89 22.58h5.04v2h-5.04z"/><path class="cls-1" transform="rotate(-60.01 73.02 14.71)" d="M68.55 13.7h8.94v2h-8.94z"/><path class="cls-1" transform="rotate(-75 61.428 10.828)" d="M57.82 9.83h7.21v2h-7.21z"/></g></g></svg>