<svg xmlns="http://www.w3.org/2000/svg" viewBox="0 0 227.3 246"><defs><style>.cls-1{fill:#1d71b8}.cls-4{fill:#f39200}</style></defs><g id="图层_2" data-name="图层 2"><g id="Layer_1" data-name="Layer 1"><path class="cls-1" d="M53.94 25.04v79.53h-7.07V35.29h-8.5V25.04h15.57zM1 42.92h4.08v8.42H1zM1 53.67h4.08v8.42H1zM1 64.42h4.08v8.42H1zM1 75.18h4.08v8.42H1zM1 85.93h4.08v8.42H1zM1 96.68h4.08v8.42H1zM1 107.43h4.08v8.42H1zM1 118.19h4.08v8.42H1zM1 128.94h4.08v8.42H1zM1 139.69h4.08v8.42H1zM1 150.44h4.08v8.42H1zM1 161.19h4.08v8.42H1zM1 171.95h4.08v8.42H1zM1 182.7h4.08v8.42H1zM1 193.45h4.08v8.42H1zM1 204.2h4.08v8.42H1zM1 214.96h4.08v8.42H1zM1 225.71h4.08v8.42H1zM1 236.46h4.08v8.42H1z"/><path d="M152.58 217h-11.76v3.71h-74.5V217H30v-64.66l21.5-29.95V108.2H43V38.92H25.66L16.36 1H1v36.17h9.58V245H30l24-10.54h98.59v-13.79h73.71V217zM26 48.67A7.34 7.34 0 1118.66 56 7.33 7.33 0 0126 48.67zM26 70a7.34 7.34 0 11-7.33 7.34A7.34 7.34 0 0126 70zm0 21.34a7.33 7.33 0 11-7.33 7.33A7.33 7.33 0 0126 91.34zm0 36a7.34 7.34 0 117.32-7.34 7.34 7.34 0 01-7.32 7.34z" opacity=".5" fill="#1d71b8"/><path d="M30.2 246H9.58V38.17H0V0h17.14l9.3 37.92H44v69.28h8.5v15.51l-21.5 30V216h36.32v3.71h72.5V216h87.48v5.71h-73.72v13.79H54.2zm-18.62-2h18.2l24-10.54h97.8v-13.79h73.72V218h-83.48v3.71h-76.5V218H29v-66l21.5-30v-12.8H42V39.92H24.88L15.58 2H2v34.17h9.58zM26 128.34a8.34 8.34 0 118.32-8.34 8.35 8.35 0 01-8.32 8.34zm0-14.67a6.34 6.34 0 106.32 6.33 6.34 6.34 0 00-6.32-6.33zm0-6.67a8.33 8.33 0 118.33-8.33A8.34 8.34 0 0126 107zm0-14.66a6.33 6.33 0 106.33 6.33A6.34 6.34 0 0026 92.34zm0-6.67a8.34 8.34 0 118.33-8.33A8.34 8.34 0 0126 85.67zM26 71a6.34 6.34 0 106.33 6.34A6.34 6.34 0 0026 71zm0-6.66A8.34 8.34 0 1134.32 56 8.35 8.35 0 0126 64.34zm0-14.67A6.34 6.34 0 1032.32 56 6.34 6.34 0 0026 49.67z" fill="#36a9e1"/><path class="cls-4" d="M30.27 120a4.28 4.28 0 10-4.27 4.28 4.28 4.28 0 004.27-4.28zM30.27 98.63a4.28 4.28 0 10-4.27 4.28 4.28 4.28 0 004.27-4.28z"/><circle class="cls-4" cx="25.99" cy="77.39" r="4.28"/><path class="cls-4" d="M30.27 56.05A4.28 4.28 0 1026 60.33a4.28 4.28 0 004.27-4.28z"/></g></g></svg>