<svg xmlns="http://www.w3.org/2000/svg" viewBox="0 0 31.44 28.04"><g data-name="图层 2"><path d="M30.87 23.38L18.41 1.8A3.17 3.17 0 0015.72 0 3.17 3.17 0 0013 1.8L.57 23.38A3.88 3.88 0 000 25.29a2.7 2.7 0 00.35 1.33A3.16 3.16 0 003.26 28h24.93a3.17 3.17 0 002.9-1.42 2.7 2.7 0 00.35-1.33 3.88 3.88 0 00-.57-1.87zm-.23 3a2.65 2.65 0 01-2.46 1.16H3.26A2.65 2.65 0 01.8 26.36a2.16 2.16 0 01-.28-1.07A3.39 3.39 0 011 23.64L13.48 2.06A2.66 2.66 0 0115.72.52 2.67 2.67 0 0118 2.06l12.42 21.58a3.29 3.29 0 01.5 1.65 2.06 2.06 0 01-.28 1.07zM17.55 2.3c-1-1.74-2.65-1.74-3.66 0L1.43 23.88c-1 1.75-.18 3.17 1.83 3.17h24.92c2 0 2.84-1.42 1.83-3.17zM17 23.49h-2.53v-2.57H17zm-.25-3.9h-2l-.36-12.81h2.67z" fill="#375d81" data-name="Layer 1"/></g></svg>