<svg xmlns="http://www.w3.org/2000/svg" viewBox="0 0 182.11 174.25"><defs><style>.cls-1{fill:#068d99}.cls-10,.cls-11,.cls-2,.cls-7,.cls-8,.cls-9{fill:#d27c1d}.cls-3{fill:#0aa3b1}.cls-5{fill:#0cbdcd}.cls-6{fill:#f49022}.cls-7{opacity:.8}.cls-8{opacity:.6}.cls-9{opacity:.4}.cls-10{opacity:.2}.cls-11{opacity:.1}</style></defs><g id="图层_2" data-name="图层 2"><g id="央铋_1" data-name="央铋 1"><path class="cls-1" d="M104.11 67.88c15.77-4.22 25.2 5.11 21 20.81s-20.32 31.9-36.11 36.12S63.83 119.7 68 104s20.35-31.9 36.11-36.12zM91 117.4c11.65-3.12 23.63-15.11 26.71-26.72s-3.9-18.51-15.56-15.38S78.51 90.4 75.44 102s3.9 18.52 15.56 15.4"/><path class="cls-2" d="M100.24 90.14c4.47-1.2 7.14 1.45 6 5.9A16 16 0 0196 106.28c-4.46 1.19-7.14-1.45-6-5.9a16 16 0 0110.24-10.24zm-3.72 14a11.84 11.84 0 007.57-7.58c.88-3.29-1.11-5.24-4.41-4.36a11.83 11.83 0 00-7.57 7.57c-.87 3.29 1.11 5.25 4.41 4.37"/><path class="cls-3" d="M85.87 60.26l.44 1.08a138.28 138.28 0 00-14.6 12.73q-2.34 2.34-4.54 4.76l-.89-.67q2.25-2.47 4.64-4.87a144.92 144.92 0 0114.95-13.03zM87.45 64.07l.38.91A129.7 129.7 0 0070.2 81.09l-.76-.57a132.09 132.09 0 0118.01-16.45zM120.62 50.15l-.22.82c-14.52 3.89-29.78 13.06-43 25.8l-.4-.44c13.41-12.94 28.89-22.23 43.62-26.18z"/><path class="cls-3" d="M123.76 38.3a69.42 69.42 0 0115.62-2.44l-.4.85a68.86 68.86 0 00-15.44 2.41c-22.91 6.14-47.22 23.18-65 45.58l-.57-.27C76 61.76 100.57 44.51 123.76 38.3z"/><path class="cls-3" d="M122.94 41.38a67.23 67.23 0 0114.36-2.32l-.73 1.56a66 66 0 00-14 2.27 92.18 92.18 0 00-15.71 5.87v-1.37a94.11 94.11 0 0116.08-6.01zM121.54 46.68a60.42 60.42 0 0113.2-2.12l-.62 1.32A59.7 59.7 0 00121.2 48a84.14 84.14 0 00-14.49 5.43v-1.16a85.28 85.28 0 0114.83-5.59z"/><path class="cls-2" d="M161.63 146.15c3.31-.89 6.05-.54 7.93.76l-.45.12-16.6 4.44-.45.13a24.42 24.42 0 019.57-5.45zM163.88 168.32a24.54 24.54 0 01-9.56 5.44c-3.32.89-6 .54-7.92-.76l.44-.12 16.6-4.44zM151.77 152.14a25.1 25.1 0 00-7.38 11.45c-1.08 4.08-.23 7.24 2 9l-.41.11c-2.12-1.78-2.91-4.95-1.84-9a25.58 25.58 0 017.24-11.42zM170 147.25c2.12 1.78 2.91 4.95 1.84 9a25.58 25.58 0 01-7.24 11.42l-.42.11a25.26 25.26 0 007.38-11.46c1.08-4.07.23-7.24-2-8.95z"/><path class="cls-1" d="M150.57 127.81c8.84-2.37 14.77 1.46 15.12 8.8l-.55.23c-.37-7.1-6.14-10.8-14.7-8.5s-17.33 9.88-21.81 18.28l-.5.06c4.58-8.68 13.61-16.51 22.44-18.87zM162.13 148.16l.51-.06c-4.59 8.65-13.61 16.47-22.43 18.84s-14.75-1.46-15.12-8.78l.56-.23c.38 7.08 6.15 10.77 14.7 8.47s17.3-9.86 21.78-18.24zM134.49 118.42l.24 1.6a48.08 48.08 0 00-4.45 3l-.6-1.35a50.08 50.08 0 014.81-3.25zM127.36 123.6l.78 1.21a52.21 52.21 0 00-4 3.85l-1.1-.89a56.9 56.9 0 014.32-4.17zM142.79 114.59l-.39 1.88a36.23 36.23 0 00-5.39 2.28v-1.7a37.51 37.51 0 015.78-2.46zM159.42 138.47l1.78-.1a43 43 0 01-2.14 4.08l-1.62-.21a38.87 38.87 0 001.98-3.77z"/><path class="cls-1" d="M146.77 154.72l.75 1.23a44.18 44.18 0 01-16.64 9.16 20.81 20.81 0 01-10.68.39l1.31-1.95a19.33 19.33 0 009.88-.35 41 41 0 0015.38-8.48zM145.19 113.91a24.28 24.28 0 015.38-.71l-1 2a22.84 22.84 0 00-5 .66zM152.67 113.29c8.47.87 13 7.7 11 17.84l-2 .64c1.92-9.38-2.28-15.7-10.12-16.49z"/><path class="cls-3" d="M125.07 33.34a111.72 111.72 0 00-26.17 11l.1.66c-1.06.61-2.13 1.23-3.18 1.87l-.12-.67q-4.77 2.88-9.43 6.25l.22.6Q81.31 56.8 76.39 61l-.32-.51q-4.77 4.08-9.31 8.62l.41.4a155.78 155.78 0 00-17.7 21l-.62-.18a135.4 135.4 0 00-10.08 16.88h.71l.62.25C57 73.6 91.74 43.76 124.65 35c40.13-10.76 64.17 13 53.58 53-5.64 21.21-20.31 43.84-40.23 62l.36.48c.66-.59 1.31-1.19 1.95-1.79l.37.44q1.78-1.68 3.52-3.42c2-2 4-4.08 5.85-6.16l-.48-.34a148 148 0 0018.92-26.11l.7.07a118.92 118.92 0 006.21-12.64l-.76.08a98.37 98.37 0 004.44-12.92 65.93 65.93 0 002.25-23.88l.81-.47c-.06-.5-.12-1-.19-1.5l-.81.49C179.92 54 176.6 47 171.22 41.65c-9.71-9.61-25-12.5-43.38-8.26l.25-.8c-1 .23-2 .48-3.02.75z"/><path class="cls-1" d="M40.21 134.73l-.06 1.13-2.86 1.33c0-.39 0-.79.07-1.18zM40.39 132.72c0 .38-.08.77-.11 1.15l-2.85 1.23c0-.4.07-.8.11-1.2zM40 121.72l2.73-.66-.06.22-2.74.68a2.17 2.17 0 00.07-.24zM39.64 122.93l2.75-.71c0 .19-.11.38-.16.57s-.11.44-.17.65l-2.75.77c0-.23.11-.45.17-.68s.11-.4.16-.6zM41.83 124.36c-.09.41-.19.82-.28 1.22l-2.78.86c.09-.42.19-.84.29-1.27zM41.36 126.49c-.09.4-.17.81-.24 1.21l-2.8 1c.08-.42.16-.84.25-1.25zM41 128.6c-.07.39-.14.79-.2 1.18l-2.82 1.05c.06-.41.13-.82.2-1.24zM40.63 130.67c-.06.39-.1.78-.15 1.17L37.64 133c0-.4.1-.81.16-1.22zM40.12 136.71v1.11l-2.87 1.41v-1.16zM40.11 138.65v1.09l-2.87 1.5v-1.13zM171 86.46c-.16.65-.32 1.3-.49 2a90.34 90.34 0 01-4.62 13.1l-6.16.46a80.59 80.59 0 004.17-11.79c.16-.59.3-1.18.44-1.77zM155.9 102.68l13.38-.91c-.42 1-.86 1.9-1.31 2.84l-13.11.33c.36-.75.71-1.51 1.04-2.26zM72.82 170.11h1.12l-1.35 2.86h-1.17zM42.82 152.56c.13.29.25.58.38.86l-2.74 2.13c-.14-.3-.27-.6-.4-.91zM42.22 151c.1.3.22.6.33.89L39.78 154l-.36-.93zM41.69 149.38c.09.31.18.62.29.93l-2.8 2c-.11-.32-.21-.64-.31-1zM40.32 142.41l.12 1-2.86 1.68c0-.36-.09-.73-.13-1.09zM40.54 144.23c.05.34.11.68.17 1L37.85 147c-.06-.35-.11-.71-.16-1.06zM41.23 147.72c.08.32.16.64.25.95l-2.83 1.92-.26-1zM40.85 146c.06.34.13.66.21 1l-2.85 1.84-.21-1zM44.26 155.51c.15.27.31.53.47.79l-2.68 2.26c-.17-.27-.33-.56-.48-.84zM43.51 154.06l.42.83-2.71 2.19c-.16-.28-.3-.57-.45-.86zM57.1 167.14l.87.37-2.08 2.76c-.3-.13-.61-.25-.91-.39zM67.15 169.81c.35.05.7.08 1 .11l-1.62 2.87-1.09-.12zM60.24 168.33c.31.11.62.2.94.29l-1.94 2.81c-.33-.09-.65-.19-1-.3zM61.89 168.82c.33.08.64.17 1 .24L61 171.89c-.34-.07-.68-.16-1-.25zM63.6 169.23l1 .2-1.78 2.84c-.35-.06-.7-.13-1-.21zM65.35 169.56l1 .16-1.7 2.85-1.07-.16zM45.09 156.89l.51.76L43 160l-.52-.8zM46 158.22l.55.72-2.6 2.37c-.19-.25-.38-.5-.56-.76zM47 159.48l.59.69-2.59 2.42-.61-.72zM49.11 161.8l.66.62-2.44 2.52c-.24-.21-.46-.42-.69-.64zM48 160.68l.63.64-2.5 2.48c-.22-.22-.44-.45-.65-.68zM54.19 165.64l.81.46-2.22 2.69-.84-.47zM52.83 164.79c.25.17.51.33.77.49l-2.27 2.66c-.28-.17-.55-.34-.81-.52zM51.53 163.86c.24.18.48.37.73.54l-2.34 2.6-.77-.56zM50.28 162.87l.71.57-2.4 2.56c-.24-.19-.49-.39-.72-.6zM58.65 167.77c.29.12.59.22.9.33l-2 2.79-.94-.34zM55.62 166.42c.27.15.56.28.84.42l-2.15 2.73-.88-.43zM40.17 140.55c0 .36 0 .72.08 1.07l-2.87 1.59c0-.37-.05-.74-.07-1.12zM69 170l1.07.07-1.53 2.86-1.12-.07zM70.89 170.09h1.1L70.54 173H69.4zM90.69 167.09l-.6 2.71-1.3.39.65-2.72zM92.88 166.38l-.5 2.67-1.31.44.56-2.69zM78.83 169.7l1.18-.16-1.08 2.82-1.23.17zM76.79 169.91l1.21-.11-1.17 2.83-1.22.12zM74.79 170.05l1.14-.07-1.26 2.85-1.19.07zM88.51 167.73l-.7 2.73-.68.19-.6.16.75-2.75.58-.15zM83 169l1.21-.24-.89 2.78-1.26.25zM85.13 168.58l1.22-.28-.79 2.76-1.28.3zM80.91 169.4l1.19-.2-1 2.8c-.41.08-.82.14-1.24.21zM97.31 164.74l-.31 2.6-1.32.52.36-2.62zM95.09 165.6l-.41 2.63-1.31.48.46-2.65zM99.54 163.81l-.21 2.56-1.33.56.27-2.58zM101.77 162.82l-.11 2.51c-.44.21-.88.4-1.33.6l.17-2.54zM110.71 158.14l.29 2.3-1.33.77-.23-2.34zM106.24 160.61l.1 2.41-1.33.69v-2.44zM108.48 159.4l.19 2.37-1.33.72-.13-2.39zM104 161.75v2.46l-1.33.65.06-2.5zM146.69 123.87l4.73 2a143.68 143.68 0 01-12.69 14.49 139.15 139.15 0 01-24.19 19.42l-1-5.36a129 129 0 0033.15-30.55zM112.55 157l.37 2.25-.92.56-.33-2.28z"/><path class="cls-3" d="M52.15 96.28l6.49.33c-.42.79-.83 1.59-1.22 2.38l-6.71.08q.69-1.39 1.44-2.79zM50.3 99.94l6.76-.2-.38.81-6.83.35zM49.45 101.77l6.89-.47c-.12.27-.24.54-.35.81l-7 .61zM48.67 103.59l7-.74c-.11.27-.23.54-.33.81l-7.06.88c.13-.32.26-.63.39-.95zM48 105.41l7.11-1c-.11.27-.21.54-.31.81l-7.16 1.14zM47.29 107.21l7.2-1.26c-.1.26-.19.53-.28.8L47 108.16c.06-.32.17-.63.29-.95zM46.68 109l7.32-1.52c-.08.27-.17.53-.25.8L46.39 110c.09-.36.19-.68.29-1zM46.13 110.8l7.38-1.8c-.08.26-.15.52-.22.79l-7.42 1.93c.13-.3.13-.61.26-.92zM53.09 110.52c-.06.26-.13.52-.19.78l-7.48 2.19c.07-.31.15-.62.23-.92zM52.74 112c-.06.26-.12.52-.17.78L45 115.23c.06-.3.13-.6.2-.91zM52.42 113.5c0 .25-.09.51-.13.76L44.7 117c.06-.29.11-.59.17-.89zM52.17 115c0 .25-.08.5-.11.75l-7.62 2.94c0-.29.08-.58.13-.88zM52 116.4c0 .25-.06.5-.08.74l-7.65 3.19c0-.29.06-.58.1-.87zM51.82 117.82v.73L44.1 122c0-.28 0-.57.07-.86zM51.74 119.22v.72L44 123.6v-.84zM51.7 120.59v.7l-7.7 3.9v-.82zM51.72 121.93v.69l-7.67 4.13v-.81zM51.79 123.25c0 .23 0 .45.07.67l-7.66 4.35c0-.26-.05-.52-.07-.79zM51.92 124.53c0 .22.06.45.09.66l-7.63 4.57c0-.26-.07-.51-.1-.77zM52.11 125.79l.12.64-7.6 4.78c-.05-.25-.09-.5-.14-.76zM52.34 127l.15.62-7.55 5c0-.24-.11-.48-.16-.73zM52.64 128.19c0 .21.11.4.18.61l-7.5 5.2c-.07-.24-.14-.47-.2-.71zM53 129.34l.21.59-7.43 5.37-.24-.68zM53.39 130.45c.07.19.15.38.22.56l-7.35 5.57-.27-.66zM53.84 131.52c.08.19.17.37.26.55l-7.28 5.74-.3-.64zM54.34 132.55c.09.18.19.36.29.53L47.44 139l-.33-.61zM54.9 133.55c.1.17.2.33.31.49l-7.09 6.08-.36-.58zM55.5 134.49l.34.48-7 6.24-.39-.56zM56.16 135.4l.36.45-6.86 6.39-.42-.53zM56.86 136.26c.13.14.25.29.39.43l-6.74 6.53-.45-.5zM57.61 137.07l.42.41-6.6 6.67-.49-.48zM58.41 137.84l.44.38-6.46 6.78-.51-.45zM59.26 138.56a19.67 19.67 0 003.32 2.15l-5.82 7.22a22.75 22.75 0 01-3.89-2.52zM63.07 141l.55.25-5.62 7.26-.64-.3zM64.14 141.42l.56.22-5.45 7.36-.67-.26zM65.23 141.84l.59.2-5.26 7.45-.69-.23zM66.37 142.2l.61.17-5.06 7.51-.72-.2zM67.54 142.52l.64.14-4.87 7.56-.73-.17zM68.75 142.78l.65.11-4.65 7.6-.76-.14zM70 143l.66.09-4.43 7.62-.78-.09zM71.28 143.13l.67.06-4.21 7.65-.79-.07zM72.58 143.23h.7l-4 7.65h-.81zM73.92 143.27h.71l-3.75 7.66H70zM75.29 143.25h.72l-3.52 7.66h-.84zM76.68 143.19l.74-.06-3.28 7.63-.87.07zM78.09 143.06l.75-.09-3 7.61-.88.1zM79.53 142.88l.76-.11-2.78 7.57-.89.14zM81 142.65l.77-.14-2.54 7.49-.9.16zM82.47 142.36l.78-.17-2.25 7.48-.91.2zM84 142l.79-.21-2 7.42-.92.23zM86.27 141.41l-1.76 7.34-.93.26 1.9-7.38zM87.8 140.93l-1.5 7.26-.94.3 1.64-7.3zM89.34 140.41l-1.24 7.18-.94.32 1.37-7.22zM90.89 139.84l-1 7.07-1 .36 1.11-7.13zM92.44 139.21l-.7 7-.95.39.84-7zM94 138.55l-.44 6.85-1 .41.58-6.91zM95.57 137.82l-.17 6.73-1 .45.3-6.8zM97.14 137.05l.1 6.6-1 .48v-6.67zM98.7 136.23l.37 6.46-1 .5-.23-6.53zM100.26 135.37l.64 6.3-1 .54-.49-6.38zM101.82 134.46l.9 6.15-1 .56-.76-6.23zM103.37 133.5l1.17 6-1 .59-1-6.07zM104.91 132.51l1.44 5.81-.95.62-1.29-5.94c.27-.14.54-.31.8-.49zM106.44 131.47l1.7 5.64-.93.64-1.56-5.75zM108 130.39l2 5.46-.93.66-1.89-5.51zM128.12 110.43l5.41 2-.69.91-5.3-2.17zM109.47 129.28l2.21 5.26-.92.69-2.07-5.37zM127 111.93l5.21 2.29-.71.91-5.11-2.43zM111 128.12l2.47 5.07-.91.71-2.33-5.17zM125.82 113.41l5 2.54-.73.9-4.91-2.68zM112.44 126.93l2.71 4.86-.89.74-2.59-5zM124.62 114.87l4.8 2.79-.75.89-4.7-2.93zM113.89 125.71l3 4.65-.89.76-2.84-4.77zM123.37 116.31l4.6 3-.77.88-4.48-3.17zM115.32 124.45l3.21 4.44c-.28.26-.58.52-.87.77l-3.09-4.55zM122.11 117.73l4.37 3.29-.79.86-4.26-3.42zM116.73 123.16l3.45 4.22-.85.79-3.33-4.33zM118.12 121.85l3.69 4-.85.81-3.57-4.11zM120.81 119.13l4.15 3.52c-.78.83-1.58 1.64-2.39 2.44l-3.8-3.89q1.04-1.02 2.04-2.07zM111.86 49.31a50.09 50.09 0 0111.08-1.67l-3.64 7.66a42.54 42.54 0 00-9.46 1.43zM123.71 47.62h.84l-3.88 7.66H120zM125.3 47.64h.81L122 55.32h-.7zM126.85 47.71l.79.07-4.33 7.64-.68-.06zM128.36 47.86l.78.1-4.55 7.61-.66-.09zM129.84 48.06l.76.14-4.77 7.57-.64-.11zM131.28 48.33l.73.17-5 7.53-.63-.14zM132.67 48.67a29 29 0 013.33 1.11l-5.55 7.35a23.22 23.22 0 00-2.85-1zM136.61 50l.64.3-5.73 7.26-.56-.25zM137.83 50.62l.62.33-5.92 7.17-.53-.28zM139 51.26l.6.36-6.08 7.07-.5-.3zM140.11 52l.57.39-6.23 7c-.16-.12-.32-.22-.49-.33zM141.18 52.72a5.56 5.56 0 01.54.42L135.33 60l-.46-.36zM142.2 53.53l.51.45-6.53 6.73-.44-.38zM143.16 54.4l.49.48-6.65 6.6-.41-.41zM144.08 55.33l.45.5-6.8 6.46c-.13-.14-.25-.29-.39-.43zM144.93 56.31l.42.53-6.92 6.31-.36-.45zM145.73 57.34l.39.56-7 6.16c-.11-.16-.22-.33-.34-.48zM146.47 58.42l.36.59-7.14 6c-.1-.16-.2-.33-.31-.49zM147.15 59.55l.33.62-7.23 5.83a5.45 5.45 0 00-.29-.53zM147.77 60.74l.3.64-7.32 5.62c-.08-.19-.17-.37-.26-.55zM148.33 62l.27.66-7.4 5.47c-.07-.19-.14-.38-.22-.57zM148.83 63.25l.24.68-7.46 5.28-.21-.59zM149.27 64.57c.07.23.14.47.2.71L142 70.36c0-.2-.11-.41-.17-.61zM149.64 65.94c.07.24.12.48.18.73l-7.57 4.87-.15-.62zM150 67.35c0 .24.09.49.14.75l-7.62 4.66c0-.21-.07-.43-.12-.64zM150.21 68.79c0 .26.07.51.1.77L142.67 74c0-.22-.06-.45-.09-.66zM150.39 70.28c0 .26.05.52.08.79l-7.67 4.23c0-.22 0-.45-.07-.67zM150.51 71.8v.81l-7.68 4v-.69zM150.57 73.36v.83L142.89 78v-.7zM150.56 75v.84l-7.67 3.54v-.72zM150.49 76.57c0 .28 0 .57-.06.86l-7.66 3.3V80zM150.35 78.22c0 .29-.06.58-.1.87l-7.63 3.06c0-.25.06-.5.08-.74zM150.15 79.9c0 .29-.08.59-.13.88l-7.6 2.82c0-.26.08-.51.11-.76zM149.89 81.6c0 .3-.11.59-.17.89l-7.55 2.57c0-.26.09-.52.13-.77zM149.56 83.32c-.06.3-.13.61-.2.91l-7.5 2.31c.06-.26.11-.52.16-.78z"/><path d="M95.52 47.42c21.93-5.88 35.06 7.11 29.28 28.94s-28.33 44.38-50.26 50.26-35.05-7.12-29.26-28.95S73.6 53.29 95.52 47.42zm-19.81 74.81C95.2 117 115.25 97 120.4 77.54s-6.54-31-26-25.74-39.58 25.27-44.72 44.69 6.53 31 26 25.74" fill="#11b7c6"/><path class="cls-5" d="M30.32 103.16l.09.19-.54.42-.09-.19zM36.81 110.46l.18.11-.45.52-.18-.11zM28.49 97.32v.22l-.57.35v-.23zM28.59 97.89a1.74 1.74 0 01.05.22l-.56.36v-.23zM28.71 98.46c0 .07 0 .14.05.21l-.56.33c0-.08 0-.15-.05-.22zM28.84 99a1.74 1.74 0 01.05.22l-.56.37a1.74 1.74 0 000-.22zM29 99.56l.06.21-.56.38c0-.07 0-.14-.05-.21zM29.14 100.1l.06.21-.55.39-.07-.22zM29.3 100.64c0 .06.05.13.07.2l-.55.39c0-.07-.05-.14-.07-.2zM29.48 101.16c0 .06.05.13.07.2l-.55.4a1.72 1.72 0 00-.07-.21zM29.67 101.67a1.67 1.67 0 01.08.2l-.54.41c0-.07-.06-.14-.08-.2zM29.87 102.18l.09.19-.54.42-.09-.2zM30.09 102.67l.09.2-.54.42-.09-.2zM30.56 103.64l.09.18-.53.43-.1-.18zM30.81 104.1c0 .07.07.12.1.18l-.53.44-.1-.18zM31.07 104.56l.11.18-.53.44a1.42 1.42 0 01-.11-.18zM31.35 105l.11.17-.52.45-.12-.17zM31.64 105.45l.11.16-.52.46-.12-.17zM31.93 105.88l.12.16-.51.46-.13-.17zM32.24 106.29l.12.16-.51.47-.12-.16zM32.56 106.7l.13.15-.5.48-.14-.16zM32.89 107.1l.14.15-.5.48a1.07 1.07 0 01-.14-.16zM33.24 107.48l.14.15-.5.48a1 1 0 01-.14-.15zM33.59 107.85l.14.15-.49.49-.14-.15zM34 108.22l.14.14-.48.5-.15-.15zM34.33 108.58l.16.13-.49.5-.15-.14zM34.72 108.92l.15.13-.47.5-.16-.13zM35.12 109.25l.16.12-.48.51-.16-.13zM35.53 109.57l.16.12-.47.51-.16-.12zM35.94 109.88l.17.11-.46.52-.17-.12zM36.37 110.17l.17.12-.45.52-.17-.12zM37.26 110.74l.18.1-.44.53-.19-.11zM37.72 111l.18.1-.44.53-.18-.1zM38.19 111.25l.18.09-.43.54-.19-.1zM38.66 111.49l.19.09-.42.54-.19-.1zM39.15 111.72l.2.08-.42.54-.2-.09zM39.65 111.93l.2.08-.41.55-.2-.09zM40.15 112.13l.21.08-.41.55-.2-.08zM40.67 112.32l.21.07-.4.55-.21-.07zM41.19 112.5l.21.07-.39.55-.21-.07zM41.72 112.67l.22.06-.39.55-.21-.06zM42.27 112.82l.21.06-.37.55-.22-.05zM42.81 113H43l-.37.56h-.22zM43.38 113.09h.21l-.35.56h-.23zM43.94 113.21h.22l-.35.56h-.22zM35 68.57l.47.05-.16.28h-.48c.04-.14.1-.23.17-.33zM112.37 49.82a1.93 1.93 0 010 .24l-.57.3v-.24zM98.48 30.65l.21.06-.39.55-.2-.06zM74.21 105.86l.06.46a2.61 2.61 0 00-.28.17l-.06-.46zM71.31 107.47v.53l-.28.16v-.49zM98.37 84.44l.38.17-.21.28-.39-.18zM99.42 83.05l.4.15-.21.28-.39-.16zM28.26 95.55v.23l-.57.33v-.24zM28.12 92.46v.25l-.57.28v-.25zM49 50.44l.28.29-.24.25-.29-.29a3 3 0 00.25-.25zM48.4 51.08l.29.28-.24.25-.3-.28a3 3 0 00.25-.25zM49.69 49.81l.27.3-.25.24-.27-.29zM47.77 51.72l.3.28c-.09.08-.17.17-.25.25l-.3-.27zM50.34 49.18l.26.31-.25.24-.26-.3zM47.14 52.38l.31.26-.24.25-.31-.26zM51 48.57l.26.31-.26.24-.26-.31zM46.52 53l.32.26-.24.25-.32-.25zM51.67 48l.24.33-.26.23-.25-.32zM45.91 53.7l.32.24c-.08.09-.16.17-.23.26l-.33-.2zM52.34 47.35l.23.33-.26.23-.24-.32zM45.3 54.36l.33.24c-.08.09-.15.18-.23.26l-.33-.23zM53 46.75l.23.34-.26.23-.22-.32zM44.7 55l.34.23-.23.26-.34-.23a2.85 2.85 0 00.23-.26zM53.69 46.16l.23.35c-.1.07-.18.15-.27.22l-.22-.34zM44.11 55.72l.35.22c-.08.08-.15.17-.23.26l-.35-.2zM54.38 45.58l.21.35-.27.23-.21-.35zM43.53 56.4l.35.21-.22.27-.36-.21zM55.07 45l.2.37-.27.22-.2-.36zM43 57.09l.36.2-.22.27-.36-.2zM55.77 44.44l.19.37-.27.22-.2-.37zM42.39 57.78l.37.19-.22.27-.37-.18a3 3 0 01.22-.28zM56.47 43.88l.18.38-.27.21-.19-.37zM41.83 58.48l.37.18-.21.27-.38-.18zM57.17 43.33l.17.39-.27.21-.18-.38zM41.28 59.18l.38.17c-.07.09-.14.19-.21.27l-.39-.16c.08-.09.14-.19.22-.28zM57.88 42.79l.16.39-.27.21-.17-.39zM40.74 59.89l.39.16-.21.27-.39-.16c.06-.09.14-.16.21-.27zM58.59 42.26l.15.4-.27.21-.16-.4zM40.2 60.6l.4.15-.2.27-.4-.15zM59.31 41.74l.14.41a2.83 2.83 0 00-.28.2l-.17-.41zM39.68 61.31l.41.14a2.83 2.83 0 00-.2.28l-.41-.14zM60 41.23l.14.41a2.83 2.83 0 00-.28.2l-.14-.41zM39.17 62l.41.14-.2.27-.38-.11zM60.75 40.72l.12.42-.28.2-.13-.42zM38.66 62.74l.42.13-.19.27-.42-.14zM61.47 40.23l.11.43-.28.18-.11-.42zM38.17 63.46l.42.12-.19.28-.4-.12zM62.2 39.74l.1.44-.28.18-.11-.43zM37.68 64.19l.43.1-.18.28-.44-.1c.07-.09.13-.19.19-.28zM62.93 39.27l.09.44-.28.18-.1-.44zM37.2 64.91l.44.1-.18.28-.46-.09zM63.66 38.8l.08.45-.28.18-.09-.43a2.29 2.29 0 00.29-.2zM36.74 65.64l.45.09L37 66l-.45-.08zM64.39 38.35l.08.45-.29.17-.08-.44zM36.28 66.37l.46.08-.18.28-.45-.07zM65.13 37.9l.06.46-.28.17-.07-.45zM35.84 67.1l.46.07-.17.28-.46-.06zM65.86 37.47l.06.46-.29.17-.06-.46zM35.4 67.84h.47c-.06.1-.12.19-.17.29l-.47-.05zM66.6 37.05l.05.47-.29.16v-.47zM67.34 36.63v.48l-.28.15v-.47a2.69 2.69 0 00.28-.16zM34.57 69.31h.47l-.16.28h-.47a2.69 2.69 0 01.16-.28zM68.08 36.23v.48l-.29.16v-.48zM34.16 70.05h.48l-.15.29h-.48zM68.82 35.84v.49l-.29.15v-.49zM33.77 70.78h.49l-.15.28h-.49zM69.57 35.46V36l-.29.15v-.49zM33.39 71.52h.49c-.05.09-.1.19-.14.28h-.49c.04-.09.09-.18.14-.28zM70.31 35.09v.5l-.28.14v-.49zM33 72.26h.5c-.05.09-.1.19-.14.28h-.5zM71.05 34.74v.49l-.28.14v-.5zM32.67 73h.49c0 .1-.09.19-.13.29h-.5zM71.79 34.39v.51l-.28.13v-.51zM32.32 73.73h.5c0 .1-.09.19-.13.29h-.5c.04-.09.08-.19.13-.29zM72.53 34.06v.51l-.28.12v-.51zM32 74.47h.51l-.12.28h-.52c.03-.09.07-.18.13-.28zM73.27 33.73v.52l-.28.12v-.51zM31.66 75.21h.51l-.12.28h-.51a2.52 2.52 0 01.12-.28zM74 33.42l-.06.52-.28.12v-.52zM31.35 75.94h.52l-.12.28-.52.06zM74.75 33.12l-.07.53-.29.11.07-.52zM31.05 76.68l.52-.07c0 .1-.08.19-.11.29l-.52.06c.06-.09.06-.19.11-.28zM75.48 32.83l-.07.53-.29.11.07-.52zM30.76 77.41l.53-.08c0 .1-.08.19-.11.29l-.53.08c.04-.1.07-.2.11-.29zM76.22 32.56l-.09.53-.28.11.08-.53zM30.48 78.14l.54-.09-.11.29-.53.08c.04-.09.07-.19.1-.28zM77 32.3l-.1.53-.28.1.09-.53zM30.22 78.87l.53-.09-.09.28-.54.09c.04-.09.07-.15.1-.28zM77.68 32.05l-.11.53-.28.1.1-.53zM30 79.59l.54-.1c0 .1-.07.19-.1.28l-.54.11c.01-.1.04-.19.1-.29zM78.4 31.81l-.11.54-.28.09.11-.54zM29.73 80.32l.54-.12-.09.29-.54.11zM79.13 31.58l-.12.54-.28.09.12-.54zM29.5 81l.55-.12-.05.32-.54.12c-.01-.09.02-.19.04-.32zM79.85 31.37l-.13.54-.28.08.13-.54zM29.29 81.76l.54-.13c0 .09 0 .18-.08.27l-.54.14a2.29 2.29 0 01.08-.28zM80.57 31.17l-.14.54-.28.08.14-.54zM29.09 82.47l.55-.14c0 .09-.06.19-.08.28l-.55.14c-.01-.09.05-.18.08-.28zM81 31.05l.28-.07-.15.55-.28.07zM29.45 83a2.68 2.68 0 00-.07.27l-.56.15.08-.27zM81.72 30.87l.28-.07-.16.55-.27.07zM29.27 83.74l-.06.27-.56.16c0-.09 0-.18.07-.28zM82.43 30.7l.28-.06-.17.55-.27.06zM29.11 84.43l-.06.27-.56.18.06-.28zM83.14 30.54l.28-.06-.18.56-.24.06zM29 85.12a2.61 2.61 0 00-.06.27l-.56.19.06-.28zM83.84 30.39l.28-.05-.19.56-.27.05zM28.81 85.81v.3l-.56.19c0-.1 0-.2.06-.3zM84.54 30.27l.27-.06-.19.56-.27.05zM28.68 86.52v.27l-.57.2a2.56 2.56 0 00.05-.27zM85.24 30.15l.33-.06-.21.56-.33.06zM28.57 87.2v.27l-.56.21v-.27zM86 30h.26l-.21.57h-.27zM28.47 87.88v.26l-.57.22a2.34 2.34 0 010-.26zM86.67 29.94h.27l-.23.57h-.26zM28.38 88.55v.26l-.57.23v-.26zM87.35 29.86h.27l-.24.56h-.26zM28.31 89.22v.26l-.57.23v-.26zM88 29.79h.26l-.25.56h-.25zM28.24 89.88v.25l-.56.25a2.46 2.46 0 010-.26zM88.7 29.74h.26l-.26.56h-.26zM28.19 90.53v.26l-.57.25v-.26zM89.36 29.7h.26l-.27.57h-.25zM28.16 91.18a2.26 2.26 0 000 .26l-.57.26v-.26zM90 29.67h.26l-.27.57h-.25zM28.13 91.83v.25l-.57.27a2.26 2.26 0 010-.26zM90.67 29.65h.25l-.28.57h-.25zM91.31 29.65h.25l-.29.57H91zM28.12 93.09v.25l-.57.29v-.25zM92 29.66h.25l-.3.57h-.25zM28.14 93.72V94l-.57.3v-.25zM92.58 29.69h.25l-.31.57h-.24zM28.16 94.34a1.94 1.94 0 000 .24l-.57.3v-.24zM93.2 29.72h.25l-.32.57h-.23zM28.2 95a1.64 1.64 0 010 .23l-.57.32a1.94 1.94 0 000-.24zM93.82 29.78h.24l-.32.57h-.24zM94.43 29.84h.24l-.34.56h-.22zM28.32 96.15a1.6 1.6 0 010 .23l-.56.33v-.24zM95 29.91h.23l-.33.56h-.23zM28.4 96.74v.22l-.57.34a2.23 2.23 0 000-.23zM95.63 30h.23l-.35.56h-.23zM96.21 30.11h.23l-.35.56h-.23zM96.79 30.22l.22.05-.36.56h-.22zM97.36 30.35a1.41 1.41 0 01.22.06l-.37.55-.21-.05zM97.92 30.49l.22.06-.38.56-.21-.06zM99 30.81l.21.07-.39.55-.21-.07zM99.56 31l.2.07-.4.55-.2-.07zM100.08 31.18l.2.08-.4.54-.2-.07zM100.6 31.39l.19.08-.41.54-.19-.08zM101.11 31.6l.19.09-.42.54-.19-.09zM101.6 31.83l.19.09-.42.54-.19-.09zM102.09 32.07l.19.1-.44.53-.18-.09zM102.57 32.32l.18.11-.44.53-.18-.11zM103 32.59l.18.1-.45.53-.17-.1zM103.49 32.87l.18.1-.45.53-.17-.11zM103.94 33.15l.17.12-.45.52-.17-.12zM104.39 33.45l.16.12-.46.52-.17-.12zM104.81 33.76l.16.13-.46.51-.17-.12zM105.22 34.09l.16.13-.47.51-.16-.13zM105.63 34.42l.16.14-.49.5-.14-.13zM106 34.77l.15.14-.49.49s-.09-.09-.15-.13zM106.41 35.13l.15.14-.49.49-.15-.14zM106.78 35.5l.15.14-.5.49-.14-.14zM107.14 35.87l.14.16-.5.48-.13-.15zM107.5 36.26c0 .06.09.11.13.16l-.51.48s-.08-.11-.12-.15zM107.84 36.67a1 1 0 01.12.16l-.5.47-.13-.16zM108.16 37.08a1.83 1.83 0 01.13.16l-.51.47a1.83 1.83 0 01-.13-.16zM108.48 37.5a1.77 1.77 0 01.12.17l-.52.46c0-.06-.08-.11-.11-.16zM108.78 37.94l.12.16-.52.46a1.63 1.63 0 01-.11-.17zM109.08 38.38a1 1 0 00.11.17l-.53.45-.11-.17zM109.36 38.83a1.62 1.62 0 01.1.18l-.52.45c0-.06-.07-.13-.11-.18zM109.63 39.29c0 .07.07.13.1.19l-.53.44a1.45 1.45 0 00-.1-.18zM109.88 39.77a1.14 1.14 0 01.1.19l-.53.43-.1-.19zM110.13 40.25l.09.19-.54.43-.09-.19zM110.36 40.74l.09.2-.54.42a1.67 1.67 0 01-.08-.2zM110.58 41.25l.09.2-.55.41a1.67 1.67 0 00-.08-.2zM110.79 41.76l.08.2-.55.4a1.54 1.54 0 00-.08-.19zM111 42.28c0 .07.05.14.07.21l-.55.39a1.18 1.18 0 01-.07-.2zM111.17 42.81c0 .07 0 .14.07.21l-.55.39a1.72 1.72 0 01-.07-.21zM111.34 43.35c0 .07 0 .14.07.21l-.56.38-.06-.2zM111.5 43.9l.06.21-.56.38-.06-.21zM111.65 44.45a1.74 1.74 0 000 .22l-.56.37v-.22zM111.78 45a2.25 2.25 0 000 .22l-.57.36v-.22zM111.89 45.59a1.89 1.89 0 010 .23l-.56.35v-.22zM112 46.17v.23l-.56.35a2.23 2.23 0 010-.23zM44.51 113.31h.23l-.34.56h-.23zM112.1 46.76v.23l-.56.34v-.23zM45.09 113.4h.24l-.33.6h-.23zM112.18 47.36v.23l-.57.33a1.81 1.81 0 000-.23zM45.68 113.48h.24l-.33.56h-.24zM112.25 48v.24l-.57.32v-.24zM46.28 113.55h.24l-.32.56h-.24zM112.3 48.57v.25l-.57.31v-.24zM46.88 113.6h.24l-.31.56h-.24zM112.35 49.19a2.18 2.18 0 000 .25l-.57.3a1.93 1.93 0 010-.24zM47.5 113.64h.23l-.29.56h-.25zM48.11 113.67h.25l-.29.56h-.25zM112.39 50.45v.25l-.57.29v-.25zM48.74 113.68H49l-.28.57h-.25zM112.39 51.09v.25l-.57.28v-.25zM49.37 113.68h.25l-.28.57h-.25zM112.38 51.74V52l-.57.27V52zM50 113.67h.25l-.27.56h-.25zM112.36 52.39a2.09 2.09 0 000 .25l-.57.26a2.09 2.09 0 010-.25zM50.65 113.65h.26l-.26.56h-.26zM112.32 53.05a2.11 2.11 0 010 .25l-.56.25a2.11 2.11 0 010-.25zM51.3 113.61h.26l-.26.56h-.26zM112.27 53.71a2.28 2.28 0 010 .26l-.57.24v-.26zM52 113.56h.25l-.24.57h-.26zM112.21 54.38v.26l-.56.23a2.13 2.13 0 010-.25zM52.62 113.5h.26l-.24.57h-.26zM112.14 55.05a2.51 2.51 0 000 .27l-.57.22a2.34 2.34 0 000-.26zM53.28 113.43h.26l-.22.57h-.26zM112.05 55.73a2.51 2.51 0 000 .27l-.56.21v-.26zM54 113.34h.27l-.22.56h-.27zM112 56.42v.26l-.57.21a2.34 2.34 0 000-.26zM54.63 113.24h.27l-.21.56h-.27zM111.83 57.1a2.33 2.33 0 010 .28l-.56.19v-.26zM55.31 113.13h.27l-.2.56h-.27zM111.71 57.8l-.06.27-.56.19.06-.27zM56 113l.26-.06-.18.56h-.28zM111.57 58.5l-.06.27-.51.23.06-.27zM56.68 112.87l.27-.06-.17.56h-.28zM111.42 59.2c0 .09 0 .18-.07.27l-.55.17.06-.27zM57.38 112.72l.27-.06-.17.55-.27.06zM111.25 59.9a2.29 2.29 0 01-.07.28l-.55.16c0-.09.05-.18.07-.27zM58.07 112.56l.28-.07-.16.55-.28.07zM111.08 60.61c0 .1 0 .19-.08.28l-.55.15a2.68 2.68 0 00.07-.27zM58.77 112.38l.28-.07-.15.55-.28.07zM110.34 61.47l.55-.15c0 .1-.06.19-.08.29l-.55.14c.03-.09.05-.19.08-.28zM59.74 112.12l-.14.55-.27.08.14-.55zM110.14 62.18l.54-.14a2.29 2.29 0 01-.08.28l-.54.13c.03-.09.05-.18.08-.27zM60.44 111.93l-.12.54-.29.08.14-.54zM109.93 62.89l.54-.13c0 .1-.06.19-.08.28l-.55.12zM61.15 111.71l-.11.54-.29.09.13-.55zM109.7 63.6l.54-.12a1.61 1.61 0 01-.09.29l-.54.11zM61.87 111.48l-.11.54-.28.09.11-.54zM109.47 64.31l.54-.1c0 .09-.07.18-.1.28l-.54.1a2.31 2.31 0 00.1-.28zM62.59 111.25l-.1.53-.29.1.11-.54zM109.23 65l.53-.1c0 .1-.07.19-.1.29l-.53.09c.03-.06.06-.16.1-.28zM63.3 111l-.09.53-.28.1.09-.54zM109 65.75l.54-.09-.11.29-.53.08c0-.09.03-.19.1-.28zM64 110.73l-.07.53-.3.11.09-.53zM108.7 66.47l.52-.08c0 .1-.07.19-.11.29l-.53.07zM64.75 110.46l-.08.53-.28.1.07-.52zM108.41 67.19l.52-.07a2.49 2.49 0 01-.11.29l-.52.06c.04-.09.08-.19.11-.28zM65.47 110.18l-.06.52-.29.11.07-.52zM108.12 67.92l.52-.06-.12.28-.52.06zM66.19 109.88v.51l-.28.12V110zM107.81 68.64h.52c0 .1-.09.19-.13.29h-.51zM66.92 109.57v.51l-.29.13v-.51zM107.5 69.36h.51c-.05.1-.09.19-.13.29h-.51c.04-.09.08-.19.13-.29zM67.65 109.25v.51l-.29.13v-.51zM107.17 70.09h.5a2.55 2.55 0 01-.13.29h-.51zM68.37 108.92v.5l-.29.13v-.5zM106.83 70.82h.5l-.14.29h-.5c.05-.11.09-.2.14-.29zM69.12 108.57v.49l-.31.15v-.5zM106.48 71.55h.52c0 .1-.09.19-.14.29h-.5zM69.85 108.21v.5l-.3.14v-.49zM106.11 72.28h.49l-.14.29H106zM70.57 107.85v.49l-.28.14V108zM105.74 73h.48c0 .09-.09.19-.15.28h-.48zM105.36 73.73h.47c0 .1-.1.19-.15.29h-.48zM72 107.09v.47l-.29.16v-.48zM105 74.46h.48l-.17.29h-.47zM72.76 106.69v.47l-.29.16v-.48zM104.55 75.18h.47l-.16.28-.47-.05a2.54 2.54 0 00.16-.23zM73.49 106.28l.05.47-.3.16v-.47zM104.14 75.91h.46c-.06.09-.11.19-.17.29l-.46-.06zM103.71 76.63l.46.06c-.06.1-.12.19-.17.29l-.46-.07zM74.94 105.43l.07.46-.29.17-.07-.46zM103.27 77.35l.46.07-.18.29-.45-.07c.05-.1.11-.19.17-.29zM75.66 105l.08.45-.29.17-.07-.45zM102.82 78.07l.45.08-.18.29-.45-.09a2.68 2.68 0 00.18-.28zM76.38 104.54l.09.44-.29.18-.08-.44zM102.36 78.79l.45.09-.19.29-.44-.1c.07-.07.12-.19.18-.28zM77.1 104.08l.1.44-.29.18-.09-.44zM101.9 79.51l.43.1-.18.28-.44-.1zM77.81 103.61l.11.43-.28.19-.1-.43zM101.42 80.22l.43.11c-.06.1-.13.19-.19.28l-.43-.11a2.75 2.75 0 00.19-.28zM78.53 103.13l.12.43-.29.19-.11-.43zM100.93 80.93l.43.12c-.07.1-.14.19-.2.29l-.42-.13zM79.24 102.65l.13.41-.28.2-.13-.42zM100.44 81.64l.42.13-.21.28-.41-.13zM80 102.15l.14.41-.29.2-.13-.41zM99.93 82.35l.41.14-.2.28-.41-.15zM80.65 101.64l.15.4-.28.21-.14-.41zM81.36 101.13l.15.39-.28.21-.15-.4zM98.89 83.75l.4.16-.21.27-.39-.18zM82.06 100.6l.16.39-.27.21-.17-.39zM82.75 100.07l.18.38-.28.21-.17-.38zM97.82 85.13l.38.18-.21.28-.38-.19c.07-.09.14-.17.21-.27zM83.44 99.53l.19.37-.28.22-.18-.38zM97.27 85.82l.38.19-.23.27-.36-.19zM84.13 99l.19.36-.27.22-.19-.37zM96.72 86.5l.36.2-.22.27-.36-.2zM84.81 98.42l.21.36-.28.22-.19-.36zM96.15 87.19l.36.2-.23.27-.35-.21zM85.49 97.85l.21.35-.27.23-.2-.36zM95.58 87.86l.35.21-.23.27-.35-.22c.08-.12.15-.18.23-.26zM86.17 97.28l.21.34-.26.23-.22-.35zM95 88.53l.34.22c-.08.09-.16.17-.23.26l-.34-.22a2.85 2.85 0 01.23-.26zM86.83 96.7l.23.33-.26.23-.23-.34zM94.41 89.19l.34.23-.24.27-.33-.24c.07-.09.15-.17.23-.26zM87.5 96.11l.24.33-.27.23-.23-.33zM93.81 89.85l.33.24-.24.26-.32-.25zM88.16 95.51l.25.32-.27.24-.24-.32zM93.21 90.5l.32.25-.24.26-.29-.26zM88.81 94.91l.26.31-.26.24-.26-.31zM92.6 91.15l.31.26-.24.25-.31-.26zM89.46 94.3l.26.3-.25.24-.26-.3zM92 91.79l.3.27-.25.25-.3-.27zM90.1 93.68l.27.3-.25.24-.27-.3zM90.73 93.06l.29.28-.25.25-.28-.29zM91.36 92.43l.29.28-.25.29-.28-.28zM69.77 53.7l.23 1.59a48.08 48.08 0 00-4.45 3.05L65 57a48.88 48.88 0 014.77-3.3zM62.63 58.88l.78 1.2a54.1 54.1 0 00-4 3.85L58.3 63a56.63 56.63 0 014.33-4.12zM78.06 49.86l-.39 1.89A35.56 35.56 0 0072.28 54v-1.7a37.51 37.51 0 015.78-2.44zM94.69 73.74l1.78-.1a41.86 41.86 0 01-2.14 4.08l-1.62-.21a38.87 38.87 0 001.98-3.77zM82.05 90l.74 1.23a44.18 44.18 0 01-16.64 9.16 20.81 20.81 0 01-10.68.39l1.31-2a19.33 19.33 0 009.88-.35A41 41 0 0082.05 90zM80.46 49.18a24.28 24.28 0 015.38-.71l-1 2a22.84 22.84 0 00-5 .66zM87.94 48.57c8.48.86 13 7.69 11 17.83l-2 .64c1.92-9.37-2.28-15.7-10.12-16.49z"/><path class="cls-6" d="M71.79 14.76v1.68a114.61 114.61 0 00-19.57 12l-.54-1.31a119 119 0 0120.11-12.37zM20.48 51.61l10.29 4.29A94.9 94.9 0 0015.6 84.13l-14.17 3C5.2 75.24 11.74 63.08 20.48 51.61zm-7.1 28.66A102.51 102.51 0 0124.84 59l-5.07-1.49A112.87 112.87 0 007.06 81.14l6.32-.87M106.4 0a44.77 44.77 0 0113.54 1.89l-10.19 14.53A35.66 35.66 0 0099 14.89z"/><path class="cls-7" d="M122.65 2.85a32.72 32.72 0 017.24 4l-12.25 13.52a25.21 25.21 0 00-5.75-3.19z"/><path class="cls-8" d="M132 8.58c.4.36.79.72 1.18 1.1a30.74 30.74 0 014.09 5L123.5 26.59a24.17 24.17 0 00-4.19-4.87z"/><path class="cls-9" d="M138.65 17.06a35 35 0 013.07 8L127 34.79a28 28 0 00-2.43-6.33z"/><path class="cls-10" d="M142.35 28a48.63 48.63 0 01.69 9.5l-14.93 7.19a38.86 38.86 0 00-.57-7.54z"/><path class="cls-11" d="M142.87 40.83a68.14 68.14 0 01-1.45 9.49l-14.59 4.54a54.6 54.6 0 001.17-7.54z"/><path class="cls-3" d="M14.93 113c.22.86.46 1.68.74 2.49l-.28.19c-.27-.81-.52-1.64-.73-2.49zM18.51 121.45c.44.68.9 1.33 1.4 2l-.26.23c-.5-.63-1-1.29-1.4-2zM24.44 127.83c.64.48 1.31.93 2 1.36l-.22.26c-.7-.43-1.37-.88-2-1.36zM32.46 131.92c.82.26 1.66.49 2.53.69l-.19.28c-.86-.2-1.71-.43-2.53-.69zM28.21 130.18c.74.37 1.49.71 2.27 1l-.2.27c-.79-.32-1.55-.66-2.28-1zM21.2 124.91a22.46 22.46 0 001.71 1.67l-.24.25c-.6-.53-1.18-1.09-1.72-1.67zM37.17 133c.89.15 1.8.26 2.74.34l-.16.29c-.94-.08-1.86-.2-2.75-.35z"/><path class="cls-2" d="M123.86 74.88h.25l-.7 1.37h-.24z"/><path class="cls-3" d="M14.1 108.17c.09.93.21 1.83.37 2.71l-.28.17c-.16-.88-.29-1.79-.38-2.72zM13.89 102.94v2.9l-.28.15c0-.95-.05-1.92 0-2.92zM14.35 97.39c-.14 1-.25 2.07-.33 3.07l-.28.13c.08-1 .18-2 .33-3.09z"/><path class="cls-2" d="M81 121.14v.22c-1.11.69-2.24 1.36-3.37 2v-.23c1.17-.64 2.29-1.3 3.37-1.99z"/><path class="cls-3" d="M42.26 133.51h2.93l-.13.28h-3z"/><path class="cls-2" d="M113.74 91.12l.2.07c-.81 1.09-1.65 2.16-2.51 3.22l-.18-.09c.85-1.06 1.68-2.13 2.49-3.2zM121.66 79h.23c-.63 1.13-1.29 2.25-2 3.36h-.23c.72-1.09 1.34-2.21 2-3.36zM118 85.13l.22.05c-.73 1.11-1.48 2.22-2.26 3.31l-.2-.07c.72-1.09 1.46-2.18 2.24-3.29z"/><path class="cls-3" d="M47.69 133.34c1-.09 2-.22 3.09-.37l-.11.28c-1.05.16-2.08.28-3.1.37z"/><path class="cls-2" d="M74.89 124.66v.24c-1.12.59-2.25 1.16-3.38 1.7v-.25c1.14-.54 2.26-1.1 3.38-1.69z"/><path class="cls-3" d="M16.06 88.33l.27-.07c-.06.22-.12.44-.19.66l-.27.06c.06-.22.13-.43.19-.65zM15.44 91.6c-.26 1.08-.48 2.15-.67 3.2l-.28.09c.19-1 .42-2.12.68-3.21z"/><path class="cls-2" d="M80.89 44.21a30.56 30.56 0 017.27-1.08l-.14.28a30 30 0 00-7.2 1.08C64.05 49 46.81 66.23 42.38 82.93s5.62 26.63 22.39 22.14c13-3.48 26.25-14.6 33.64-27.2h.23c-7.45 12.74-20.84 23.96-33.94 27.47-16.92 4.54-27.06-5.49-22.59-22.34S64 48.75 80.89 44.21z"/><path class="cls-2" d="M56.2 65.18l1.24.73c-1 1.14-1.86 2.32-2.7 3.52L53.27 69a50.91 50.91 0 012.93-3.82z"/><path d="M51.69 71.42l1.59.25q-1.11 1.83-2 3.69h-1.75a44.26 44.26 0 012.16-3.94z" opacity=".9" fill="#d27c1d"/><path class="cls-7" d="M48.45 77.86l1.83-.23q-.56 1.4-1 2.79l-1.92.46c.34-1.01.69-2.02 1.09-3.02z"/><path d="M48.77 82.61a25.74 25.74 0 00-.39 2.63l-2 .85a25.17 25.17 0 01.42-2.85z" opacity=".7" fill="#d27c1d"/><path class="cls-8" d="M48.32 87.24a12.92 12.92 0 00.1 1.67l-2 1.15a17.36 17.36 0 01-.12-1.8z"/><path class="cls-9" d="M49.92 93.66c.14.24.28.47.43.7L48.52 96c-.16-.24-.32-.49-.46-.75z"/><path class="cls-10" d="M53.21 97.19l.17.11-1.59 1.83-.18-.13z"/><path class="cls-11" d="M54.84 98.08l.19.08-1.44 1.91-.21-.09z"/><path d="M48.75 90.7a11.65 11.65 0 00.46 1.45l-1.93 1.41a14.41 14.41 0 01-.49-1.56z" opacity=".5" fill="#d27c1d"/><path d="M51.36 95.62a7.66 7.66 0 00.57.57l-1.7 1.75c-.22-.2-.42-.4-.62-.61z" opacity=".3" fill="#d27c1d"/><path class="cls-3" d="M53.4 132.52q1.58-.32 3.21-.72l-.08.28c-1.09.27-2.17.51-3.23.72z"/><path class="cls-2" d="M65.26 125.64c2.21-.6 3.53.71 2.95 2.91a7.88 7.88 0 01-5.06 5.06c-2.21.59-3.53-.71-2.95-2.91a7.88 7.88 0 015.06-5.06zm-2 7.7a7.38 7.38 0 004.72-4.72c.54-2-.69-3.26-2.75-2.71a7.35 7.35 0 00-4.71 4.71c-.55 2 .68 3.27 2.74 2.72M87.08 117.12l.07.2c-1.1.78-2.2 1.54-3.31 2.27l-.06-.21c1.11-.73 2.22-1.49 3.3-2.26zM93 112.63l.1.18c-1.06.86-2.14 1.7-3.22 2.52l-.08-.19c1.05-.82 2.11-1.65 3.2-2.51zM109.09 96.92l.17.11c-.89 1-1.8 2.07-2.73 3.08l-.17-.12c.93-.99 1.84-1.99 2.73-3.07zM98.64 107.74l.13.15c-1 .94-2 1.85-3.09 2.75l-.11-.18c1.04-.89 2.06-1.8 3.07-2.72zM104 102.48l.15.13c-1 1-1.93 2-2.92 2.93l-.14-.14a61.58 61.58 0 002.91-2.92z"/><path class="cls-5" d="M34.12 33.4l.52.62a60.63 60.63 0 00-4.24 4.4l-.69-.42a63.57 63.57 0 014.41-4.6zM18.85 57.3L20 57v.09c-.16.62-.3 1.22-.42 1.82l-1.12.37c.13-.63.27-1.25.44-1.9zM19.33 67.62a15.35 15.35 0 00.83 2.74l-1.09.82a15.76 15.76 0 01-.86-2.85zM21.55 72.88a11.32 11.32 0 00.92 1.12l-1 1a13.36 13.36 0 01-.94-1.17zM22.94 74.5a11.07 11.07 0 001.09 1l-.94 1a11.67 11.67 0 01-1.13-1zM24.59 75.85a11.45 11.45 0 001.27.75L25 77.67a13.3 13.3 0 01-1.31-.78zM28.63 77.68a15.6 15.6 0 001.57.32l-.69 1.12a16 16 0 01-1.62-.35zM55.29 20.92c15.92-4.26 25.44 5.16 21.25 21S56 74.14 40.07 78.4a28.15 28.15 0 01-7.11 1l.55-1.13a26.9 26.9 0 006.85-1c15.3-4.1 31-19.84 35.08-35.08S70.31 17.92 55 22a40.27 40.27 0 00-7.84 3.07v-1a42.17 42.17 0 018.13-3.15zM43 26.49l.17.88a59 59 0 00-4.85 3.47l-.32-.75a56 56 0 015-3.6zM26.57 41.89l.8.3a55.92 55.92 0 00-3.22 4.91l-.93-.1a56.74 56.74 0 013.35-5.11zM21.08 51.15l1-.06c-.3.67-.58 1.33-.84 2l-1.05.14c.28-.7.58-1.39.89-2.08zM19 62.6c0 .6-.05 1.18 0 1.75l-1.13.58v-1.82zM20.45 71c.22.45.46.88.72 1.3l-1.05.89a11.51 11.51 0 01-.74-1.34zM26.49 76.91a13.68 13.68 0 001.43.56l-.78 1.1a14.61 14.61 0 01-1.48-.57zM31 78.14c.55.07 1.12.11 1.7.13l-.6 1.14c-.6 0-1.18-.07-1.76-.14z"/><path class="cls-5" d="M47 24.27c8.83-2.36 14.77 1.47 15.11 8.81l-.54.23c-.37-7.11-6.15-10.8-14.71-8.51s-17.29 9.89-21.77 18.29h-.5C29.18 34.48 38.21 26.64 47 24.27zM58.6 44.62h.5C54.51 53.21 45.49 61 36.67 63.4S21.92 62 21.56 54.63l.55-.23c.38 7.08 6.15 10.76 14.71 8.47S54.12 53 58.6 44.62z"/><path class="cls-6" d="M32.48 6.39c11.27-3 18.38 2.84 17 13.26l-6.32 1.7 5.6-2.35c.78-9.45-6-14.65-16.49-11.84S11 19.9 6.52 30.33l5.12-.54-6.32 1.7c4.35-11.22 15.9-22.08 27.16-25.1zM47.88 25.68C43.53 36.9 32 47.76 20.72 50.78s-18.37-2.85-17-13.27l6.32-1.69-5.6 2.33c-.78 9.44 6 14.65 16.48 11.83S42.2 37.27 46.69 26.83l-5.12.54zM18 2.51c3.31-.88 6.05-.54 7.92.76l-.45.12-16.6 4.45-.44.16A24.41 24.41 0 0118 2.51z"/><path class="cls-6" d="M20.25 24.68a24.26 24.26 0 01-9.57 5.44c-3.31.89-6 .54-7.92-.75l.45-.12L19.8 24.8zM8.13 8.5A25.26 25.26 0 00.75 20c-1.08 4.07-.23 7.23 2 9h-.44C.19 27.24-.59 24.07.48 20A25.47 25.47 0 017.72 8.61zM26.37 3.61c2.11 1.79 2.9 5 1.83 9A25.5 25.5 0 0121 24l-.42.12a25.28 25.28 0 007.39-11.46c1.07-4.07.23-7.24-2-8.95z"/></g></g></svg>