<svg xmlns="http://www.w3.org/2000/svg" viewBox="0 0 49.36 50.11"><defs><style>.cls-2{fill:#fff;mix-blend-mode:screen}</style></defs><g style="isolation:isolate"><g id="图层_2" data-name="图层 2"><g id="Elements"><circle class="cls-2" cx="24.24" cy="3" r="3"/><path d="M16.13 4.46a1.25 1.25 0 11-1.65-.64 1.25 1.25 0 011.65.64z" style="mix-blend-mode:screen" opacity=".3" fill="#fff"/><path d="M8.26 9.5a1.38 1.38 0 01-1.84 2.05A1.38 1.38 0 018.26 9.5z" style="mix-blend-mode:screen" opacity=".4" fill="#fff"/><path d="M3.08 17.29a1.5 1.5 0 11-1.89 1 1.5 1.5 0 011.89-1z" style="mix-blend-mode:screen" opacity=".45" fill="#fff"/><path d="M1.46 26.5A1.63 1.63 0 110 28.29a1.63 1.63 0 011.46-1.79z" style="mix-blend-mode:screen" opacity=".5" fill="#fff"/><path d="M3.67 35.6A1.75 1.75 0 113 38a1.75 1.75 0 01.67-2.4z" style="mix-blend-mode:screen" opacity=".55" fill="#fff"/><path d="M9.36 43a1.87 1.87 0 11.41 2.62A1.88 1.88 0 019.36 43z" style="mix-blend-mode:screen" opacity=".6" fill="#fff"/><path d="M17.56 47.57a2 2 0 111.54 2.37 2 2 0 01-1.54-2.37z" style="mix-blend-mode:screen" opacity=".65" fill="#fff"/><path d="M26.89 48.43a2.13 2.13 0 112.52 1.64 2.13 2.13 0 01-2.52-1.64z" style="mix-blend-mode:screen" opacity=".7" fill="#fff"/><path d="M35.79 45.46a2.25 2.25 0 113.14.5 2.24 2.24 0 01-3.14-.5z" style="mix-blend-mode:screen" opacity=".75" fill="#fff"/><path d="M42.75 39.17A2.37 2.37 0 1146 38.3a2.38 2.38 0 01-3.25.87z" style="mix-blend-mode:screen" opacity=".8" fill="#fff"/><path d="M46.6 30.61a2.5 2.5 0 112.75-2.23 2.52 2.52 0 01-2.75 2.23z" style="mix-blend-mode:screen" opacity=".85" fill="#fff"/><path d="M46.68 21.21a2.62 2.62 0 111.69-3.31 2.62 2.62 0 01-1.69 3.31z" style="mix-blend-mode:screen" opacity=".9" fill="#fff"/><path class="cls-2" d="M43 12.57a2.75 2.75 0 11.21-3.89 2.75 2.75 0 01-.21 3.89zM36.12 6.14a2.87 2.87 0 11-1.46-3.8 2.88 2.88 0 011.46 3.8z"/></g></g></g></svg>