<svg xmlns="http://www.w3.org/2000/svg" viewBox="0 0 26.89 20.76"><defs><style>.cls-1{fill:#00b8de}</style></defs><g id="图层_2" data-name="图层 2"><g id="Layer_1" data-name="Layer 1"><path class="cls-1" d="M2.35 11.59l2.23 1.28v2.67l-2.23 1.3H2.3L0 15.59V12.9l2.22-1.28h.05zM4.45 13l-2.14-1.23L.17 13v2.47l2.14 1.24 2.14-1.24z"/><path class="cls-1" d="M6.81 11.59L9 12.87v2.67l-2.22 1.3-2.28-1.25V12.9l2.22-1.28zM8.91 13l-2.15-1.23L4.62 13v2.47l2.14 1.24 2.15-1.24zM11.26 11.59l2.22 1.28v2.67l-2.22 1.3h-.05L9 15.59V12.9l2.22-1.28h.05zm2.1 1.41l-2.14-1.23L9.07 13v2.47l2.15 1.24 2.14-1.24z"/><path class="cls-1" d="M15.72 11.59l2.22 1.28v2.67l-2.22 1.3h-.05l-2.22-1.3h-.05V12.9h.05l2.22-1.28h.05zM17.8 13l-2.13-1.23L13.53 13v2.47l2.14 1.24 2.13-1.24z"/><path class="cls-1" d="M20.16 11.59l2.23 1.28h.05v2.67h-.05l-2.23 1.3h-.05l-2.23-1.3h-.05V12.9h.05l2.23-1.28h.05zm2.1 1.41l-2.13-1.23L18 13v2.47l2.15 1.24 2.13-1.24z"/><path class="cls-1" d="M24.62 11.59l2.23 1.28v2.67l-2.23 1.3-2.24-1.3V12.9l2.24-1.28zM26.71 13l-2.13-1.23L22.44 13v2.47l2.14 1.24 2.13-1.24zM4.58 15.45l2.23 1.29v2.67l-2.23 1.33-2.32-1.28v-2.7l2.24-1.31zm2.09 1.41l-2.13-1.24-2.14 1.24v2.47l2.14 1.23 2.13-1.23z"/><path class="cls-1" d="M9 15.45l2.23 1.29h.05v2.67h-.05L9 20.74h-.05l-2.23-1.28v-2.7L9 15.45h.05zm2.1 1.41L9 15.62l-2.15 1.24v2.47L9 20.56l2.13-1.23z"/><path class="cls-1" d="M13.48 15.45l2.24 1.29v2.67l-2.24 1.28-2.24-1.28v-2.65l2.24-1.29zm2.1 1.41l-2.14-1.24-2.13 1.24v2.47l2.13 1.23 2.14-1.23z"/><path class="cls-1" d="M17.94 15.45l2.22 1.29h.05v2.67h-.05l-2.22 1.28h-.05l-2.22-1.28h-.05v-2.65h.05l2.22-1.29h.05zM20 16.86l-2.15-1.24-2.14 1.24v2.47l2.14 1.23L20 19.33z"/><path class="cls-1" d="M22.39 15.45l2.23 1.29v2.67l-2.23 1.28h-.05l-2.22-1.28v-2.65l2.22-1.29h.05zm2.1 1.41l-2.14-1.24-2.14 1.24v2.47l2.14 1.23 2.14-1.23zM4.58 7.73L6.81 9v2.67L4.58 13l-2.32-1.26V9.05L4.5 7.73zm2.09 1.42L4.54 7.9 2.4 9.15v2.47l2.14 1.23 2.13-1.23z"/><path class="cls-1" d="M9 7.73L11.26 9h.05v2.67h-.05L9 13l-2.28-1.26V9.05L9 7.73V7.7zm2.1 1.42L9 7.9 6.85 9.15v2.47L9 12.85l2.13-1.23z"/><path class="cls-1" d="M13.48 7.73L15.72 9v2.67L13.48 13l-2.24-1.28V9.05l2.24-1.29zm2.1 1.42L13.44 7.9l-2.13 1.25v2.47l2.13 1.23 2.14-1.23z"/><path class="cls-1" d="M17.94 7.73L20.16 9h.05v2.67h-.05L17.94 13h-.05l-2.22-1.28h-.05V9.05h.05l2.22-1.29h.05zM20 9.15L17.89 7.9l-2.14 1.25v2.47l2.14 1.23L20 11.62z"/><path class="cls-1" d="M22.39 7.73L24.62 9v2.67L22.39 13h-.05l-2.22-1.28V9.05l2.18-1.32h.05zm2.1 1.42L22.35 7.9l-2.14 1.25v2.47l2.14 1.23 2.14-1.23zM2.35 3.88l2.23 1.28v2.69L2.35 9.17H2.3L0 7.88v-2.7l2.26-1.3h.05zm2.1 1.4L2.31 4.05.17 5.28v2.47L2.31 9l2.14-1.25z"/><path class="cls-1" d="M6.81 3.88L9 5.16v2.69L6.81 9.17 4.5 7.88v-2.7l2.22-1.3zm2.1 1.4L6.76 4.05 4.62 5.28v2.47L6.76 9l2.15-1.25zM11.26 3.88l2.22 1.28v2.69l-2.22 1.32h-.05L9 7.88v-2.7l2.22-1.28h.05zm2.1 1.4l-2.14-1.23-2.15 1.23v2.47L11.22 9l2.14-1.25z"/><path class="cls-1" d="M15.72 3.88l2.22 1.28v2.69l-2.22 1.32h-.05l-2.26-1.29h-.05v-2.7h.05l2.22-1.28h.05zm2.08 1.4l-2.13-1.23-2.14 1.23v2.47L15.67 9l2.13-1.25z"/><path class="cls-1" d="M20.16 3.88l2.23 1.28h.05v2.69h-.05l-2.23 1.32h-.05l-2.26-1.29h-.05v-2.7h.05l2.23-1.28h.05zm2.1 1.4l-2.13-1.23L18 5.28v2.47L20.13 9l2.13-1.25z"/><path class="cls-1" d="M24.62 3.88l2.23 1.28v2.69l-2.23 1.32-2.32-1.29v-2.7l2.24-1.28zm2.09 1.4l-2.13-1.23-2.14 1.23v2.47L24.58 9l2.13-1.25zM4.58 0l2.23 1.31V4L4.58 5.31 2.26 4V1.33L4.5 0zm2.09 1.4L4.54.2 2.4 1.43V3.9l2.14 1.23L6.67 3.9z"/><path class="cls-1" d="M9 0l2.23 1.28h.05V4h-.05L9 5.31 6.72 4V1.33L9 0zm2.1 1.4L9 .2 6.85 1.43V3.9L9 5.13l2.13-1.23z"/><path class="cls-1" d="M13.48 0l2.24 1.28V4l-2.24 1.31L11.17 4V1.33L13.41 0zm2.1 1.4L13.44.2l-2.13 1.23V3.9l2.13 1.23 2.14-1.23z"/><path class="cls-1" d="M17.94 0l2.22 1.28h.05V4h-.05l-2.22 1.31h-.05L15.63 4h-.05V1.33h.05L17.85 0h.05zM20 1.43L17.89.2l-2.14 1.23V3.9l2.14 1.23L20 3.9z"/><path class="cls-1" d="M22.39 0l2.23 1.28V4l-2.23 1.31h-.05L20.08 4V1.33L22.3 0h.05zm2.1 1.4L22.35.2l-2.14 1.23V3.9l2.14 1.23 2.14-1.23z"/></g></g></svg>