<svg xmlns="http://www.w3.org/2000/svg" viewBox="0 0 207.56 207.56"><defs><style>.cls-1,.cls-2{fill:#dadada}.cls-2,.cls-3{opacity:.5}.cls-4{fill:#f6f6f6}</style></defs><g id="图层_2" data-name="图层 2"><g id="图层_2-2" data-name="图层 2"><path class="cls-1" d="M132.85 119.34l-28.17-16.58 22.32 23.9a33.06 33.06 0 005.85-7.32zM141.42 124.38l-5.17-3a37.09 37.09 0 01-6.59 8.21l4.09 4.38a42.91 42.91 0 007.67-9.59zM151 130l-5.18-3a47.57 47.57 0 01-8.6 10.7l3.91 4.19A52.48 52.48 0 00151 130zM145.48 146.51l8.77 9.41 13.08-16.3-10.84-6.37a59.26 59.26 0 01-11.01 13.26zM124.86 71.24a37 37 0 016.57 5l5.18-5.18a44.82 44.82 0 00-8.09-6.19zM106.12 65.92a37.16 37.16 0 018.09 1l1.9-7.08a45 45 0 00-10-1.23zM115.79 67.31a37.41 37.41 0 017.65 3.11l3.66-6.34a44.06 44.06 0 00-9.41-3.84zM149.09 92.82l-7.09 1.9a37.49 37.49 0 011 8.26h7.33a44.85 44.85 0 00-1.24-10.16zM62.29 114.39l7.08-1.9a37.72 37.72 0 01-1.12-7.87h-7.33a45 45 0 001.37 9.77zM144.8 81.75l-6.34 3.66a37.65 37.65 0 013.15 7.73l7.07-1.9a44.1 44.1 0 00-3.88-9.49zM132.59 77.41a37.58 37.58 0 015 6.58l6.41-3.66a44.89 44.89 0 00-6.21-8.1zM78.57 129.12a37.87 37.87 0 01-4.86-6.33l-6.35 3.67a45.54 45.54 0 006 7.84zM104.49 140.67a37.38 37.38 0 01-8-1.12l-1.9 7.08a45.21 45.21 0 009.95 1.37zM68.23 103a37.38 37.38 0 0136.26-37v-7.4A44.71 44.71 0 0060.91 103zM86.06 135.17a38.16 38.16 0 01-6.33-4.89l-5.18 5.17a44.43 44.43 0 007.85 6.06zM94.86 139.11a36.5 36.5 0 01-7.39-3.11l-3.66 6.35a44 44 0 009.19 3.84zM72.89 121.38a36.84 36.84 0 01-3.08-7.31L62.72 116a44.86 44.86 0 003.82 9z"/><path class="cls-1" d="M130.84 118.44a29.72 29.72 0 01-4 5.17l4.07 4.07a35.51 35.51 0 004.87-6.36zM135 103.7a29.67 29.67 0 01-.77 6.36l5.56 1.49a35 35 0 001-7.85zM133.92 111.3a29.32 29.32 0 01-2.44 6l5 2.88a35.26 35.26 0 003-7.4zM113.86 137.5l-1.5-5.57a29.57 29.57 0 01-6.5.78v5.76a35.18 35.18 0 008-.97zM96.89 69.22l1.49 5.56a29.42 29.42 0 016.2-.87v-5.77a35.39 35.39 0 00-7.69 1.08zM122.57 134.12l-2.88-5a29.39 29.39 0 01-6.08 2.48l1.49 5.57a35.21 35.21 0 007.47-3.05zM126 124.52a29.42 29.42 0 01-5.18 4l2.88 5a34.89 34.89 0 006.37-4.89zM85.31 82a29.37 29.37 0 015-3.83l-2.88-5a35.13 35.13 0 00-6.2 4.83zM76.22 102.41a29.28 29.28 0 01.88-6.33l-5.57-1.49a34.77 34.77 0 00-1.07 7.82zM105.86 73.89A29.41 29.41 0 01135 102.41h5.77a35.17 35.17 0 00-34.92-34.28zM104.58 132.69a29.41 29.41 0 01-28.37-29h-5.76a35.16 35.16 0 0034.13 34.75zM80.55 87.91a29.42 29.42 0 013.84-5l-4.07-4.08A35.29 35.29 0 0075.55 85zM77.44 94.84A28.73 28.73 0 0179.9 89l-5-2.89a35.49 35.49 0 00-3 7.2zM91.39 77.55a29.15 29.15 0 015.75-2.42l-1.49-5.57a34.89 34.89 0 00-7.14 3zM105.43 174.46V31.41M176.96 102.93H33.91M104.58 75.38h.43v3.37h-.43zM106.64 75.38h.43v3.37h-.43zM105.6 75.38h.45v1.58h-.45z"/><path class="cls-1" transform="rotate(-10 100.32 77.652)" d="M100.06 75.95h.43v3.37h-.43z"/><path class="cls-1" transform="rotate(-10 102.308 77.307)" d="M102.09 75.6h.43v3.37h-.43z"/><path class="cls-1" transform="rotate(-10.01 101.164 76.573)" d="M100.91 75.79h.45v1.58h-.45z"/><path class="cls-1" transform="rotate(-20 95.948 78.99)" d="M95.72 77.3h.43v3.38h-.43z"/><path class="cls-1" transform="rotate(-19.99 97.857 78.295)" d="M97.65 76.6h.43v3.37h-.43z"/><path class="cls-1" transform="rotate(-19.99 96.597 77.81)" d="M96.37 77.01h.45v1.58h-.45z"/><path class="cls-1" transform="rotate(-30 91.875 81.078)" d="M91.67 79.39h.43v3.37h-.43z"/><path class="cls-1" transform="rotate(-30 93.673 80.04)" d="M93.45 78.36h.43v3.37h-.43z"/><path class="cls-1" transform="matrix(.87 -.5 .5 .87 -27.52 56.86)" d="M92.1 78.99h.45v1.58h-.45z"/><path class="cls-1" transform="rotate(-40 88.265 83.838)" d="M88.05 82.14h.43v3.37h-.43z"/><path class="cls-1" transform="rotate(-39.99 89.838 82.514)" d="M89.62 80.82h.43v3.37h-.43z"/><path class="cls-1" transform="rotate(-40 88.491 82.49)" d="M88.25 81.69h.45v1.58h-.45z"/><path class="cls-1" transform="rotate(-50 85.164 87.177)" d="M84.96 85.49h.43v3.37h-.43z"/><path class="cls-1" transform="rotate(-50 86.502 85.595)" d="M86.28 83.91h.43v3.37h-.43z"/><path class="cls-1" transform="rotate(-49.99 85.16 85.816)" d="M84.92 85.02h.45v1.58h-.45z"/><path class="cls-1" transform="rotate(-59.99 82.72 91.008)" d="M82.49 89.32h.43v3.38h-.43z"/><path class="cls-1" transform="rotate(-60 83.738 89.222)" d="M83.52 87.53h.43v3.37h-.43z"/><path class="cls-1" transform="rotate(-59.99 82.446 89.66)" d="M82.22 88.87h.45v1.58h-.45z"/><path class="cls-1" transform="rotate(-70.01 80.943 95.198)" d="M80.74 93.51h.43v3.37h-.43z"/><path class="cls-1" transform="rotate(-70 81.666 93.27)" d="M81.44 91.58h.43v3.37h-.43z"/><path class="cls-1" transform="rotate(-70.01 80.47 93.93)" d="M80.24 93.14h.45v1.58h-.45z"/><path class="cls-1" transform="rotate(-80 79.943 99.645)" d="M79.73 97.95h.43v3.37h-.43z"/><path class="cls-1" transform="rotate(-80 80.3 97.61)" d="M80.09 95.93h.43v3.37h-.43z"/><path class="cls-1" transform="rotate(-79.99 79.239 98.474)" d="M79.02 97.68h.45v1.58h-.45z"/><path class="cls-1" d="M78.04 103.97h3.37v.43h-3.37zM78.04 101.91h3.37v.43h-3.37zM78.04 102.93h1.58v.45h-1.58z"/><path class="cls-1" transform="rotate(-10 80.324 108.727)" d="M78.62 108.49h3.37v.43h-3.37z"/><path class="cls-1" transform="rotate(-10 79.985 106.682)" d="M78.26 106.46h3.37v.43h-3.37z"/><path class="cls-1" transform="rotate(-10.01 79.267 107.85)" d="M78.45 107.62h1.58v.45h-1.58z"/><path class="cls-1" transform="rotate(-20 81.669 113.05)" d="M79.97 112.83h3.37v.43h-3.37z"/><path class="cls-1" transform="rotate(-20 80.981 111.145)" d="M79.26 110.9h3.37v.43h-3.37z"/><path class="cls-1" transform="rotate(-19.99 80.465 112.41)" d="M79.67 112.16h1.58v.45h-1.58z"/><path class="cls-1" transform="rotate(-30 83.743 117.099)" d="M82.05 116.88h3.37v.43h-3.37z"/><path class="cls-1" transform="rotate(-29.99 82.724 115.326)" d="M81.02 115.1h3.37v.43h-3.37z"/><path class="cls-1" transform="rotate(-30 82.425 116.646)" d="M81.66 116.43h1.58v.45h-1.58z"/><path class="cls-1" transform="rotate(-40 86.508 120.723)" d="M84.81 120.5h3.37v.43h-3.37z"/><path class="cls-1" transform="rotate(-40 85.16 119.127)" d="M83.49 118.93h3.37v.43h-3.37z"/><path class="cls-1" transform="rotate(-40 85.127 120.5)" d="M84.36 120.28h1.58v.45h-1.58z"/><path class="cls-1" transform="rotate(-50 89.833 123.804)" d="M88.15 123.59h3.37v.43h-3.37z"/><path class="cls-1" transform="rotate(-50 88.256 122.481)" d="M86.57 122.27h3.38v.43h-3.38z"/><path class="cls-1" transform="rotate(-50.01 88.467 123.83)" d="M87.68 123.61h1.58v.45h-1.58z"/><path class="cls-1" transform="rotate(-60.01 93.656 126.268)" d="M91.98 126.05h3.37v.43h-3.37z"/><path class="cls-1" transform="matrix(.5 -.87 .87 .5 -62.52 142.2)" d="M90.2 125.03h3.37v.43H90.2z"/><path class="cls-1" transform="rotate(-59.99 92.321 126.53)" d="M91.54 126.3h1.58v.45h-1.58z"/><path class="cls-1" transform="rotate(-70 97.853 128.026)" d="M96.18 127.81h3.37v.43h-3.37z"/><path class="cls-1" transform="rotate(-70 95.92 127.322)" d="M94.24 127.11h3.37v.43h-3.37z"/><path class="cls-1" transform="rotate(-70 96.581 128.52)" d="M95.8 128.29h1.58v.45H95.8z"/><path class="cls-1" transform="rotate(-80 102.297 129.034)" d="M100.62 128.82h3.37v.43h-3.37z"/><path class="cls-1" transform="rotate(-80 100.272 128.675)" d="M98.59 128.46h3.37v.43h-3.37z"/><path class="cls-1" transform="rotate(-80.01 101.133 129.736)" d="M100.34 129.51h1.58v.45h-1.58z"/><path class="cls-1" d="M106.64 127.56h.43v3.37h-.43zM104.58 127.56h.43v3.37h-.43zM105.6 129.35h.45v1.58h-.45z"/><path class="cls-1" transform="rotate(-10 111.4 128.722)" d="M111.15 126.99h.43v3.37h-.43z"/><path class="cls-1" transform="rotate(-9.99 109.37 129.057)" d="M109.12 127.35h.43v3.37h-.43z"/><path class="cls-1" transform="rotate(-9.99 110.522 129.734)" d="M110.28 128.94h.45v1.58h-.45z"/><path class="cls-1" transform="rotate(-20 115.727 127.33)" d="M115.5 125.64h.43v3.37h-.43z"/><path class="cls-1" transform="rotate(-20 114.421 128.78)" d="M113.56 126.34h.43v3.37h-.43z"/><path class="cls-1" transform="rotate(-20.01 115.06 128.515)" d="M114.83 127.73h.45v1.58h-.45z"/><path class="cls-1" transform="rotate(-29.99 119.777 125.251)" d="M119.54 123.55h.43v3.37h-.43z"/><path class="cls-1" transform="rotate(-30 117.966 126.269)" d="M117.76 124.58h.43v3.37h-.43z"/><path class="cls-1" transform="rotate(-30 119.335 126.536)" d="M119.09 125.74h.45v1.58h-.45z"/><path class="cls-1" transform="rotate(-39.99 123.392 122.483)" d="M123.17 120.8h.43v3.37h-.43z"/><path class="cls-1" transform="rotate(-40 121.816 123.82)" d="M121.59 122.12h.43v3.37h-.43z"/><path class="cls-1" transform="rotate(-40 123.152 123.823)" d="M122.94 123.04h.45v1.58h-.45z"/><path class="cls-1" transform="rotate(-50 126.46 119.135)" d="M126.26 117.46h.43v3.37h-.43z"/><path class="cls-1" transform="rotate(-50 125.158 120.722)" d="M124.93 119.03h.43v3.38h-.43z"/><path class="cls-1" transform="rotate(-50.01 126.49 120.498)" d="M126.27 119.71h.45v1.58h-.45z"/><path class="cls-1" transform="rotate(-60 128.935 115.317)" d="M128.72 113.63h.43V117h-.43z"/><path class="cls-1" transform="rotate(-60.01 127.89 117.091)" d="M127.69 115.41h.43v3.37h-.43z"/><path class="cls-1" transform="rotate(-60 129.191 116.654)" d="M128.97 115.86h.45v1.58h-.45z"/><path class="cls-1" d="M132.35 111.49l-3.17-1.15-.15.4 3.18 1.16.14-.41z"/><path class="cls-1" transform="rotate(-70 129.987 113.046)" d="M129.77 111.36h.43v3.37h-.43z"/><path class="cls-1" transform="rotate(-70 131.173 112.387)" d="M130.96 111.6h.45v1.58h-.45z"/><path class="cls-1" transform="rotate(-80.01 131.69 106.672)" d="M131.48 104.99h.43v3.37h-.43z"/><path class="cls-1" transform="rotate(-80 131.338 108.703)" d="M131.12 107.02h.43v3.37h-.43z"/><path class="cls-1" transform="rotate(-79.99 132.407 107.844)" d="M132.17 107.05h.45v1.58h-.45z"/><path class="cls-1" d="M130.23 101.91h3.37v.43h-3.37zM130.23 103.97h3.37v.43h-3.37zM132.02 102.93h1.58v.45h-1.58z"/><path class="cls-1" transform="rotate(-10 131.338 97.642)" d="M129.65 97.4h3.37v.43h-3.37z"/><path class="cls-1" transform="rotate(-9.99 131.713 99.65)" d="M130.01 99.42h3.37v.43h-3.37z"/><path class="cls-1" transform="rotate(-9.99 132.447 98.504)" d="M131.61 98.25h1.58v.45h-1.58z"/><path class="cls-1" transform="rotate(-20 130.007 93.27)" d="M128.3 93.05h3.37v.43h-3.37z"/><path class="cls-1" transform="rotate(-19.99 130.711 95.201)" d="M129.01 94.99h3.37v.43h-3.37z"/><path class="cls-1" transform="rotate(-20 131.203 93.95)" d="M130.39 93.7h1.58v.45h-1.58z"/><path class="cls-1" transform="rotate(-30 127.896 89.21)" d="M126.22 89h3.37v.43h-3.37z"/><path class="cls-1" transform="rotate(-30 128.953 91.013)" d="M127.25 90.79h3.38v.43h-3.38z"/><path class="cls-1" transform="rotate(-30 129.215 89.663)" d="M128.4 89.44h1.58v.45h-1.58z"/><path class="cls-1" transform="rotate(-40 125.163 85.6)" d="M123.46 85.38h3.37v.43h-3.37z"/><path class="cls-1" transform="rotate(-40 126.49 87.172)" d="M124.79 86.96h3.37v.43h-3.37z"/><path class="cls-1" transform="rotate(-40.01 126.493 85.808)" d="M125.7 85.58h1.58v.45h-1.58z"/><path class="cls-1" transform="rotate(-50 121.817 82.508)" d="M120.12 82.29h3.37v.43h-3.37z"/><path class="cls-1" transform="rotate(-50 123.393 83.83)" d="M121.7 83.62h3.37v.43h-3.37z"/><path class="cls-1" transform="rotate(-49.99 123.18 82.481)" d="M122.38 82.26h1.58v.45h-1.58z"/><path class="cls-1" transform="rotate(-60 117.984 80.046)" d="M116.29 79.83h3.37v.43h-3.37z"/><path class="cls-1" transform="rotate(-60.01 119.743 81.074)" d="M118.07 80.86h3.37v.43h-3.37z"/><path class="cls-1" transform="rotate(-60.01 119.332 79.786)" d="M118.52 79.56h1.58v.45h-1.58z"/><path class="cls-1" transform="rotate(-70 113.774 78.282)" d="M112.09 78.07h3.37v.43h-3.37z"/><path class="cls-1" transform="rotate(-70 115.714 78.991)" d="M114.03 78.77h3.38v.43h-3.38z"/><path class="cls-1" transform="rotate(-70.01 115.062 77.794)" d="M114.26 77.57h1.58v.45h-1.58z"/><path class="cls-1" transform="rotate(-80 109.337 77.285)" d="M107.65 77.07h3.37v.43h-3.37z"/><path class="cls-1" transform="rotate(-80 111.361 77.643)" d="M109.68 77.42h3.37v.43h-3.37z"/><path class="cls-1" transform="rotate(-79.99 110.514 76.58)" d="M109.72 76.35h1.58v.45h-1.58z"/><path class="cls-1" d="M61.33 89.93l.64.17a45.13 45.13 0 014.17-9.6l-.58-.33a46.39 46.39 0 00-4.23 9.76zM129.35 143.14a46.7 46.7 0 01-9.13 4.12l.17.64a46.32 46.32 0 009.29-4.19zM60 102.19a46 46 0 011.46-10.3l-.64-.17a46.8 46.8 0 00-1.48 10.47zM118.61 148.43l-.17-.63a46.24 46.24 0 01-10 1.64v.66a45.9 45.9 0 0010.17-1.67zM130.93 142.16l.33.57a46.24 46.24 0 007.88-6.4l-.46-.46a46.46 46.46 0 01-7.75 6.29zM75 69.53a45.67 45.67 0 018.37-6.08l-.37-.57a46.37 46.37 0 00-8.51 6.18zM84.64 62l.33.57a45.93 45.93 0 019.65-3.65l-.17-.64A46.71 46.71 0 0084.64 62zM106.61 56.84H106a47.23 47.23 0 00-9.73 1l.17.64a46.35 46.35 0 019.56-1h.62zM67.1 78.91a45.84 45.84 0 016.52-8.1l-.47-.47a47 47 0 00-6.62 8.24zM106.61 149.5H106a46 46 0 01-46-45.45h-.66A46.65 46.65 0 00106 150.16h.62zM108.46 57.56A46 46 0 01152 102.19h.66a46.66 46.66 0 00-44.2-45.29zM145.83 126.51a45.94 45.94 0 01-5.87 8l.47.47a46.64 46.64 0 006-8.15zM152 104.05a46.5 46.5 0 01-1.18 9.86l.64.17a46.73 46.73 0 001.2-10zM150.35 115.71a45.91 45.91 0 01-3.62 9.18l.57.33a46.45 46.45 0 003.69-9.34zM151.85 78.51l-.64.37a51.21 51.21 0 014.28 10.86l.71-.19a51.31 51.31 0 00-4.35-11.04zM56.21 90.19a51.09 51.09 0 013.95-10.45l-.64-.37A52 52 0 0055.5 90zM143.22 67.79a51.36 51.36 0 017 9.28l.64-.37a51.79 51.79 0 00-7.1-9.43zM60.5 77.55l.64.36a50.69 50.69 0 016.58-9.16l-.53-.53a52.52 52.52 0 00-6.69 9.33zM55.73 92.21L55 92a52.16 52.16 0 00-1.17 11.27h.74a51.65 51.65 0 011.16-11.06zM157.18 105.36a50.83 50.83 0 01-1.81 11.4l.72.19a52.43 52.43 0 001.83-11.59zM155.5 118.94l-.72-.19a50.87 50.87 0 01-4.73 10.5l.64.37a52.08 52.08 0 004.81-10.68zM142.23 140.33l.5-.48a52.15 52.15 0 006.86-8.47L149 131a51.41 51.41 0 01-6.76 8.32l-.49.48zM156 91.75a51.57 51.57 0 011.24 11.54h.76a52.1 52.1 0 00-1.27-11.73z"/><path class="cls-1" d="M69.13 67.24c.16-.17.32-.34.49-.5a51.32 51.32 0 0172.15-.42l.52-.53a52.07 52.07 0 00-73.2.43l-.48.49zM140.2 141.23a51.33 51.33 0 01-69.54-.88l-.52.52a52.07 52.07 0 0070.58.88zM56.32 116.31a50.91 50.91 0 01-1.68-11h-.74a52.05 52.05 0 001.71 11.14zM69.19 138.89a51.18 51.18 0 01-6.85-8.7l-.64.37a52.46 52.46 0 007 8.85zM61.28 128.41a51.19 51.19 0 01-4.38-10.11l-.72.19a51.92 51.92 0 004.46 10.29zM149 80.31l-.59.34a48.11 48.11 0 014 10.16l.67-.18A48.41 48.41 0 00149 80.31zM59.56 91.24a48.06 48.06 0 013.7-9.78l-.6-.34a48.45 48.45 0 00-3.76 9.94zM140.94 70.29a48 48 0 016.52 8.71l.6-.34a48.88 48.88 0 00-6.64-8.82zM63.57 79.41l.6.34a48.14 48.14 0 016.15-8.57l-.48-.49a48.53 48.53 0 00-6.27 8.72zM59.12 93.12l-.67-.18a49.35 49.35 0 00-1.1 10.55H58a48.25 48.25 0 011.12-10.37zM154 105.42a47.75 47.75 0 01-1.69 10.67l.67.18a48.78 48.78 0 001.71-10.85zM152.42 118.12l-.67-.18a47.21 47.21 0 01-4.43 9.82l.6.35a48.83 48.83 0 004.5-9.99zM140 138.13l.46-.45a49.08 49.08 0 006.43-7.93l-.6-.34a48.17 48.17 0 01-6.32 7.78l-.46.45zM152.87 92.69a48 48 0 011.17 10.8h.69a49 49 0 00-1.19-11z"/><path class="cls-1" d="M71.65 69.77l.45-.46a48 48 0 0167.48-.4l.48-.49a48.69 48.69 0 00-68.45.4l-.45.46zM138.11 139a48 48 0 01-65-.83l-.49.49a48.7 48.7 0 0066 .83zM59.67 115.66a48.07 48.07 0 01-1.58-10.24h-.69a49.11 49.11 0 001.6 10.42zM71.7 136.78a48.3 48.3 0 01-6.41-8.14l-.59.35a49 49 0 006.51 8.28zM64.3 127a48.43 48.43 0 01-4.1-9.46l-.66.18a48.61 48.61 0 004.17 9.62zM105.53 80.05a22.7 22.7 0 1022.7 22.7 22.7 22.7 0 00-22.7-22.7zm0 42a19.3 19.3 0 1119.29-19.3 19.3 19.3 0 01-19.29 19.3z"/><path class="cls-1" d="M105.53 79.57a23.22 23.22 0 1023.22 23.22 23.23 23.23 0 00-23.22-23.22zm21.25 29.21l-1 .55a.64.64 0 01-.6 0 21.34 21.34 0 01-2.09 4.36.72.72 0 01.16.3l.25 1.11a.62.62 0 01-.17.59l-4.78 4.79a.67.67 0 01-.63.16l-1.06-.29a.71.71 0 01-.28-.16 19.71 19.71 0 01-2.06 1.15.8.8 0 010 .15l-.33 1.09a.67.67 0 01-.45.43l-3.07.82a.62.62 0 01-.62-.17l-.62-.62a21.18 21.18 0 01-2.52.33.64.64 0 01-.19.6l-.83.77a.63.63 0 01-.6.15L94.43 122a.65.65 0 01-.46-.46l-.28-1.07a.63.63 0 01.14-.58 21.47 21.47 0 01-4.57-4.2.62.62 0 01-.6.19l-1.11-.24a.65.65 0 01-.47-.41l-3.85-10.57a.66.66 0 01.12-.63l.71-.85a.67.67 0 01.57-.22v-.38a20.71 20.71 0 013.79-12l-.2-.89a.63.63 0 01.17-.6l4.78-4.78a.63.63 0 01.62-.17l1.07.29a.67.67 0 01.17.08 20.71 20.71 0 017.41-2.59l.6-1a.65.65 0 01.55-.3h3.18a.62.62 0 01.55.32l.5.86a21.06 21.06 0 015.18 1.3.61.61 0 01.42-.46l1.08-.35a.64.64 0 01.61.12l8.62 7.23a.64.64 0 01.22.61l-.2 1.08a.63.63 0 01-.38.48 20.2 20.2 0 011.87 4 .6.6 0 01.62 0l1 .6a.63.63 0 01.3.54v11.25a.65.65 0 01-.38.58z"/><path class="cls-2" d="M123.09 104.55L109.73 103l-.1.82 9.08 1s.07 2.41 2.18 2.45a2 2 0 002.11-2.06l1 .09.08-.69z"/><path class="cls-1" d="M121 107.37h-.07c-2-.05-2.2-2.19-2.21-2.46l-9.08-1 .1-.88 14.41 1.64-.09.75-1-.08a2.47 2.47 0 01-.64 1.54 2 2 0 01-1.42.49zm-11.29-3.55l9.07 1s.1 2.38 2.15 2.42h.07a1.92 1.92 0 001.39-.5 2.4 2.4 0 00.62-1.53l1 .08.07-.63-14.32-1.62z"/><path class="cls-2" d="M122.93 100l-13.3 2 .12.81 9-1.35s.7 2.31 2.75 1.81a2 2 0 001.51-2.54l1-.19-.11-.68z"/><path class="cls-1" d="M121 103.31c-1.51 0-2.13-1.65-2.21-1.88l-9 1.36-.12-.85 13.3-2 1-.16.11.75-1 .18a2.48 2.48 0 01-.22 1.65 2 2 0 01-1.32.9 2.34 2.34 0 01-.54.05zm-2.16-2s.71 2.27 2.7 1.79a1.94 1.94 0 001.28-.87 2.4 2.4 0 00.21-1.64l1-.18-.09-.63-14.27 2.22.11.75z"/><path class="cls-2" d="M121.59 95.54l-12.33 5.37.33.75L118 98s1.27 2 3.12 1a2 2 0 00.8-2.84l.93-.44-.28-.64z"/><path class="cls-1" d="M109.57 101.7l-.34-.78 13.3-5.79.3.7-.93.43a2.45 2.45 0 01.22 1.65 2 2 0 01-1 1.21c-1.75 1-3-.8-3.15-1zm-.27-.78l.3.7L118 98s1.28 2 3.07 1a1.94 1.94 0 001-1.16 2.41 2.41 0 00-.22-1.63l.94-.44-.26-.58z"/><path class="cls-2" d="M119.15 91.63L108.63 100l.51.64 7.15-5.64s1.76 1.65 3.28.2a2 2 0 000-3l.78-.66L120 91z"/><path class="cls-1" d="M109.14 100.69l-.55-.69L120 91l.47.59-.76.64a2.47 2.47 0 01.64 1.55 2 2 0 01-.7 1.43c-1.44 1.37-3.1 0-3.3-.17zm-.46-.68l.47.6 7.14-5.69s1.75 1.61 3.24.19a1.92 1.92 0 00.67-1.39 2.34 2.34 0 00-.63-1.51l.78-.66L120 91l-.78.62z"/><path class="cls-2" d="M115.79 88.49l-8 10.81.66.49 5.43-7.34s2.13 1.13 3.22-.67a2 2 0 00-.73-2.86l.59-.84-.56-.42z"/><path class="cls-1" d="M108.46 99.83l-.71-.52 8.62-11.66.61.45-.58.84a2.45 2.45 0 011 1.33 2 2 0 01-.3 1.56c-1 1.7-3 .81-3.24.69zm-.62-.54l.61.45 5.42-7.33s2.11 1.1 3.18-.65a2 2 0 00.29-1.52 2.38 2.38 0 00-1-1.3l.58-.84-.5-.38z"/><path class="cls-2" d="M111.73 86.32l-4.93 12.51.76.31 3.35-8.5s2.35.55 2.94-1.48a2 2 0 00-1.45-2.57l.35-1-.65-.25z"/><path class="cls-1" d="M107.58 99.18l-.82-.33 5.31-13.49.71.27-.35 1a2.4 2.4 0 011.32 1 2 2 0 01.12 1.59c-.56 1.91-2.69 1.56-2.95 1.51zm-.74-.36l.71.27 3.34-8.49s2.32.52 2.9-1.45a2 2 0 00-.11-1.54 2.39 2.39 0 00-1.31-1l.35-1-.59-.23z"/><path class="cls-2" d="M107.24 85.28l-1.52 13.36.82.09 1-9.07s2.41-.08 2.46-2.18a2 2 0 00-2-2.12l.09-1-.69-.08z"/><path class="cls-1" d="M106.57 98.77l-.88-.1 1.64-14.41.75.08-.08 1a2.47 2.47 0 011.54.64 2 2 0 01.52 1.51c0 2-2.19 2.19-2.46 2.21zm-.81-.16l.75.09 1-9.07s2.38-.1 2.42-2.15a1.9 1.9 0 00-.5-1.46 2.4 2.4 0 00-1.43-.62l.08-1-.63-.07z"/><path class="cls-2" d="M102.64 85.44l2 13.3.81-.13-1.35-9s2.31-.7 1.81-2.74a2 2 0 00-2.54-1.51l-.19-1-.68.1z"/><path class="cls-1" d="M104.6 98.77l-2.15-14.37.75-.12.18 1a2.42 2.42 0 011.65.22 2 2 0 01.9 1.32c.47 1.93-1.55 2.69-1.81 2.78l1.36 9zm-2.08-14.32l2.13 14.25.75-.11-1.35-9s2.27-.71 1.79-2.71a1.94 1.94 0 00-.87-1.27 2.4 2.4 0 00-1.64-.21l-.18-1z"/><path class="cls-2" d="M98.23 86.78l5.37 12.33.75-.33-3.64-8.37s2-1.27 1-3.12a2 2 0 00-2.84-.8l-.44-.93-.64.28z"/><path class="cls-1" d="M103.58 99.15l-5.79-13.3.7-.3.43.93a2.41 2.41 0 011.66-.22 2 2 0 011.2 1c1 1.75-.8 3-1 3.15l3.64 8.38zm-5.72-13.3l5.75 13.22.7-.31-3.64-8.37s2-1.28 1-3.08a2 2 0 00-1.16-1 2.38 2.38 0 00-1.64.23l-.44-.93z"/><path class="cls-2" d="M94.32 89.21l8.38 10.53.64-.52-5.69-7.14s1.65-1.76.2-3.28a2 2 0 00-3 0l-.62-.8-.54.43z"/><path class="cls-1" d="M102.69 99.78l-9-11.35.59-.47.64.76a2.45 2.45 0 011.52-.64 2 2 0 011.43.7c1.37 1.43 0 3.1-.17 3.3l5.68 7.15zm-9-11.36l9 11.27.6-.47-5.69-7.14s1.61-1.76.19-3.24a2 2 0 00-1.39-.68 2.47 2.47 0 00-1.51.64l-.66-.8z"/><path class="cls-2" d="M91.18 92.58l10.81 8 .49-.66-7.34-5.43s1.13-2.12-.67-3.22a2 2 0 00-2.86.73l-.84-.58-.41.56z"/><path class="cls-1" d="M102 100.62L90.31 92l.45-.61.84.58a2.45 2.45 0 011.33-1 2 2 0 011.56.3c1.7 1 .81 3 .69 3.23l7.34 5.44zM90.4 92l11.6 8.53.45-.61-7.35-5.43s1.1-2.11-.65-3.18a1.91 1.91 0 00-1.51-.31 2.38 2.38 0 00-1.3 1l-.84-.59z"/><path class="cls-2" d="M89 96.64l12.51 4.93.31-.77-8.5-3.34s.55-2.35-1.48-2.94A2 2 0 0089.28 96l-1-.35-.25.65z"/><path class="cls-1" d="M101.54 101.61L88 96.28l.27-.7 1 .35a2.44 2.44 0 011-1.33 2 2 0 011.59-.11c1.91.56 1.56 2.68 1.51 3l8.5 3.34zm-12.54-5l12.49 4.92.27-.71-8.49-3.34s.52-2.32-1.45-2.9a2 2 0 00-1.54.11 2.39 2.39 0 00-1 1.31l-1-.35-.23.59z"/><path class="cls-2" d="M88 101.13l13.36 1.52.09-.82-9.07-1s-.08-2.41-2.18-2.46a2 2 0 00-2.12 2.07l-1-.09-.08.65z"/><path class="cls-1" d="M101.36 102.68L86.92 101l.08-.75 1 .08a2.47 2.47 0 01.64-1.54 2 2 0 011.44-.52h.07c2 0 2.19 2.19 2.21 2.46l9.08 1zM88 101.1l13.32 1.51.09-.75-9.07-1s-.1-2.38-2.15-2.43h-.09a1.89 1.89 0 00-1.39.51 2.38 2.38 0 00-.62 1.52l-1-.08-.09.62z"/><path class="cls-2" d="M88.13 105.73l13.3-2-.13-.81-9 1.35s-.7-2.31-2.74-1.81A2 2 0 0088 105l-1 .19.1.68z"/><path class="cls-1" d="M87.09 105.92l-.12-.75 1-.18a2.45 2.45 0 01.22-1.66 2 2 0 011.32-.89c1.93-.47 2.69 1.55 2.78 1.8l9-1.35.13.85-13.3 2zm0-.7l.09.63 14.25-2.14-.11-.75-9 1.35s-.71-2.27-2.71-1.79a1.94 1.94 0 00-1.27.87 2.37 2.37 0 00-.21 1.63z"/><path class="cls-2" d="M89.47 110.14l12.33-5.37-.33-.75-8.37 3.64s-1.27-2-3.12-1a2 2 0 00-.8 2.84l-.93.44.28.64z"/><path class="cls-1" d="M88.51 110.59l-.3-.7.92-.43a2.49 2.49 0 01-.21-1.66 2 2 0 011-1.2c1.75-1 3 .8 3.15 1l8.38-3.64.34.78zm-.22-.67l.25.58 13.22-5.74-.31-.7-8.36 3.64s-1.28-2-3.08-1a2 2 0 00-1 1.17 2.33 2.33 0 00.23 1.63z"/><path class="cls-2" d="M91.9 114l10.53-8.37-.52-.64-7.14 5.68s-1.76-1.64-3.28-.19a2 2 0 000 3l-.78.66.43.54z"/><path class="cls-1" d="M91.1 114.73l-.48-.6.76-.64a2.41 2.41 0 01-.64-1.54 2 2 0 01.7-1.43c1.43-1.38 3.1 0 3.3.17l7.15-5.69.55.7zm-.39-.59l.4.5 11.27-9-.47-.6-7.14 5.69s-1.76-1.61-3.24-.2a2 2 0 00-.68 1.39 2.39 2.39 0 00.64 1.52z"/><path class="cls-2" d="M95.27 117.19l8-10.81-.66-.49-5.43 7.34s-2.12-1.14-3.22.66a2 2 0 00.73 2.87l-.58.84.56.41z"/><path class="cls-1" d="M94.67 118.06l-.61-.45.58-.84a2.45 2.45 0 01-1-1.33 2 2 0 01.3-1.56c1-1.7 3-.81 3.23-.69l5.44-7.35.71.53zm-.53-.47l.51.38 8.57-11.59-.61-.45-5.43 7.34s-2.11-1.1-3.18.65a2 2 0 00-.29 1.52 2.38 2.38 0 001 1.29z"/><path class="cls-2" d="M99.33 119.36l4.93-12.52-.77-.3-3.34 8.5s-2.35-.55-2.94 1.47a2 2 0 001.45 2.58l-.35 1 .65.26z"/><path class="cls-1" d="M99 120.35l-.71-.28.34-1a2.45 2.45 0 01-1.32-1 2 2 0 01-.11-1.59c.56-1.91 2.68-1.55 2.95-1.5l3.34-8.5.83.33zm-.63-.31l.59.23 5.28-13.41-.71-.28-3.34 8.5s-2.32-.52-2.9 1.45a2 2 0 00.11 1.54 2.39 2.39 0 001.31 1z"/><path class="cls-2" d="M103.82 120.4l1.52-13.4-.82-.1-1 9.08s-2.41.07-2.46 2.18a2 2 0 002.07 2.11l-.09 1 .69.07z"/><path class="cls-1" d="M103.73 121.45l-.75-.09.08-1a2.47 2.47 0 01-1.54-.64 2 2 0 01-.52-1.51c0-2 2.19-2.2 2.46-2.21l1-9.08.88.1zm-.68-.14l.62.07 1.63-14.32-.75-.08-1 9.07s-2.38.1-2.43 2.15a2 2 0 00.51 1.46 2.38 2.38 0 001.53.62z"/><path class="cls-2" d="M108.42 120.24l-2-13.3-.81.12 1.35 9s-2.31.7-1.81 2.75a2 2 0 002.54 1.51l.18 1 .69-.11z"/><path class="cls-1" d="M107.86 121.39l-.18-1a2.51 2.51 0 01-1.66-.22 2 2 0 01-.89-1.32c-.47-1.94 1.55-2.69 1.8-2.78l-1.35-9 .85-.12 2.15 14.34zm-.13-1.08l.18 1 .63-.09L106.4 107l-.75.11 1.35 9s-2.27.72-1.79 2.71a1.94 1.94 0 00.87 1.28 2.37 2.37 0 001.63.21z"/><path class="cls-2" d="M112.83 118.9l-5.37-12.33-.75.33 3.64 8.37s-2 1.27-1 3.12a2 2 0 002.84.8l.44.93.64-.28z"/><path class="cls-1" d="M112.58 120.16l-.44-.93a2.42 2.42 0 01-1.65.22 2 2 0 01-1.2-1c-1-1.75.8-3 1-3.15l-3.64-8.38.78-.34 5.79 13.3zm-.41-1l.44.93.58-.26-5.74-13.21-.7.3 3.64 8.37s-2 1.28-1 3.07a2 2 0 001.17 1 2.41 2.41 0 001.63-.22z"/><path class="cls-2" d="M116.73 116.46l-8.37-10.52-.64.51 5.68 7.15s-1.64 1.76-.19 3.28a2 2 0 003 0l.66.78.54-.43z"/><path class="cls-1" d="M116.82 117.74l-.64-.76a2.41 2.41 0 01-1.51.64 2 2 0 01-1.43-.7c-1.38-1.44 0-3.1.17-3.3l-5.69-7.15.7-.55 9 11.35zm-.65-.87l.66.79.5-.4-9-11.27-.6.47 5.69 7.14s-1.61 1.76-.2 3.24a1.93 1.93 0 001.39.67 2.4 2.4 0 001.49-.63z"/><path class="cls-2" d="M119.88 113.1l-10.81-8-.49.66 7.34 5.43s-1.14 2.13.66 3.22a2 2 0 002.87-.73l.84.59.41-.56z"/><path class="cls-1" d="M117.71 114.8a2.17 2.17 0 01-1.14-.36c-1.7-1-.81-3-.69-3.24l-7.35-5.43.53-.71 11.66 8.62-.45.61-.84-.58a2.45 2.45 0 01-1.33 1 1.52 1.52 0 01-.39.09zm-9.09-9l7.34 5.43s-1.1 2.11.65 3.18a2 2 0 001.52.29 2.38 2.38 0 001.29-1l.84.58.38-.5-11.59-8.57z"/><path class="cls-2" d="M122.05 109l-12.52-4.93-.3.77 8.5 3.34s-.55 2.35 1.47 2.94a2 2 0 002.58-1.45l1 .35.26-.65z"/><path class="cls-1" d="M119.9 111.3a2.67 2.67 0 01-.71-.11c-1.91-.56-1.55-2.69-1.5-3l-8.5-3.35.33-.82 13.5 5.31-.28.71-1-.35a2.38 2.38 0 01-1 1.32 1.75 1.75 0 01-.84.29zm-10.63-6.44l8.5 3.34s-.52 2.32 1.45 2.9a2 2 0 001.54-.11 2.37 2.37 0 001-1.32l1 .35.23-.59-13.41-5.28zM109.06 102.79a3.53 3.53 0 11-3.53-3.53 3.53 3.53 0 013.53 3.53z"/><path class="cls-1" d="M105.53 104.11a1.32 1.32 0 111.32-1.32 1.32 1.32 0 01-1.32 1.32zm0-2.58a1.26 1.26 0 100 2.51 1.26 1.26 0 000-2.51z"/><path class="cls-1" d="M105.53 107.22a4.43 4.43 0 114.43-4.43 4.44 4.44 0 01-4.43 4.43zm0-8.79a4.36 4.36 0 104.36 4.36 4.36 4.36 0 00-4.36-4.36z"/><path class="cls-1" d="M105.25 85.68v13h.8v-8.81s2.31-.34 2.13-2.38a2 2 0 00-2.18-1.81v-1h-.68zM100.83 86.33l3.38 12.6.77-.2-2.29-8.56s2.14-.93 1.44-2.84a2 2 0 00-2.61-1.18l-.29-1-.65.17zM96.74 88.11l6.52 11.3.74-.41-4.43-7.67s1.83-1.45.65-3.12a2 2 0 00-2.82-.46l-.53-.85-.58.34zM93.24 90.89l9.22 9.22.56-.57-6.26-6.26s1.4-1.87-.17-3.18a2 2 0 00-2.86.29l-.73-.68-.48.47zM90.57 94.47l11.3 6.52.4-.69-7.67-4.43s.86-2.17-1-3a2 2 0 00-2.68 1l-.88-.47-.34.59zM88.93 98.63l12.6 3.37.21-.77-8.56-2.29s.27-2.32-1.74-2.67A2 2 0 0089.11 98l-1-.23-.17.65zM88.42 103.06h13v-.79h-8.81s-.34-2.32-2.38-2.13a2 2 0 00-1.81 2.22h-1v.67zM89.07 107.48l12.6-3.37-.2-.77-8.56 2.29s-.93-2.15-2.84-1.44a2 2 0 00-1.18 2.61l-1 .29.17.65zM90.85 111.58l11.3-6.52-.4-.69-7.67 4.43s-1.45-1.8-3.08-.66a2 2 0 00-.5 2.86l-.85.53.34.58zM93.63 115.08l9.22-9.22-.57-.56-6.28 6.26s-1.87-1.4-3.18.17a2 2 0 00.29 2.85l-.68.73.47.48zM97.21 117.74l6.52-11.29-.69-.4-4.43 7.67s-2.17-.86-3 1a2 2 0 001 2.68l-.47.88.59.34zM101.37 119.39l3.37-12.6-.77-.21-2.29 8.56s-2.32-.27-2.67 1.74a2 2 0 001.68 2.32l-.23 1 .65.18zM105.8 119.9v-13h-.8v8.85s-2.32.34-2.13 2.38a2 2 0 002.22 1.81v1h.67zM110.22 119.24l-3.37-12.59-.77.2 2.29 8.56s-2.15.92-1.44 2.84a2 2 0 002.61 1.18l.29.95.65-.17zM114.32 117.47l-6.52-11.3-.69.4 4.43 7.67s-1.83 1.45-.66 3.12a2 2 0 002.83.46l.53.85.58-.34zM117.82 114.69l-9.22-9.22-.6.53 6.26 6.27s-1.4 1.87.17 3.18a2 2 0 002.85-.29l.73.68.48-.47zM120.48 111.11l-11.29-6.53-.4.69 7.67 4.43s-.86 2.18 1 3a2 2 0 002.68-1l.88.47.34-.59zM122.13 107l-12.6-3.37-.21.77 8.56 2.29s-.27 2.32 1.74 2.67a2 2 0 002.32-1.68l1 .23.18-.65zM122.64 102.51h-13v.8h8.85s.34 2.31 2.38 2.13a2 2 0 001.81-2.22h1v-.68zM122 98.09l-12.59 3.38.2.77 8.56-2.29s.92 2.14 2.84 1.44a2 2 0 001.18-2.61l1-.29-.17-.65zM120.21 94l-11.3 6.52.4.69 7.69-4.43s1.45 1.83 3.12.65a2 2 0 00.46-2.82l.85-.53-.34-.58zM117.43 90.5l-9.22 9.22.56.56L115 94s1.87 1.4 3.18-.17a2 2 0 00-.29-2.86l.68-.72-.47-.48zM113.84 87.83l-6.52 11.3.69.4 4.43-7.67s2.18.86 3-1a2 2 0 00-1-2.68l.47-.88-.59-.34zM109.69 86.19l-3.37 12.6.77.21 2.29-8.56s2.32.27 2.67-1.74a2 2 0 00-1.68-2.33l.23-1-.65-.17zM165 104.23v1.26l3.82.2v-1.46zM164.93 101.23v1.26h3.83v-1.46zM163.93 92.31c.08.41.15.83.22 1.24l3.78-.6c-.08-.48-.17-1-.26-1.43zM164.6 110.21l-.15 1.26 3.77.6c.07-.48.13-1 .18-1.46zM164.74 98.24c0 .42.07.84.1 1.26l3.82-.2c0-.49-.07-1-.11-1.46zM164.41 95.27c.06.41.11.83.16 1.25l3.8-.4c-.05-.49-.12-1-.18-1.45zM164.86 107.22l-.09 1.27 3.8.4c0-.49.08-1 .11-1.47zM162.07 122c-.13.41-.27.81-.41 1.21l3.57 1.37c.17-.46.33-.93.48-1.4zM161.07 124.79c-.15.4-.31.8-.47 1.2l3.49 1.55c.19-.45.37-.91.55-1.38zM162.92 119.06c-.11.41-.22.82-.34 1.23l3.64 1.18c.14-.47.27-.94.4-1.42zM163.63 116.14c-.09.41-.18.83-.28 1.24l3.7 1c.11-.48.22-1 .32-1.44zM164.19 113.19c-.07.42-.14.83-.22 1.25l3.75.79c.09-.48.17-1 .25-1.44zM151.3 65.43l.81 1 3-2.41c-.31-.38-.62-.77-.94-1.15zM153.16 67.81c.26.34.51.68.75 1l3.1-2.25-.87-1.19zM154.9 70.27c.24.35.47.7.7 1.06l3.21-2.08q-.41-.63-.81-1.23zM156.51 72.81c.22.36.43.73.64 1.09l3.31-1.9-.74-1.27zM159.92 127.58c-.17.4-.35.79-.53 1.17l3.41 1.74c.21-.45.42-.9.62-1.35zM145 58.9l1 .87 2.56-2.84-1.11-1zM149.32 63.16c.29.31.57.63.85 1l2.83-2.6c-.33-.38-.66-.75-1-1.11zM160.53 80.85c.16.39.32.78.47 1.17l3.57-1.37q-.25-.68-.54-1.35zM158 75.42l.58 1.13 3.42-1.74c-.22-.44-.45-.87-.68-1.3zM162.52 86.5c.12.4.23.8.35 1.21l3.69-1c-.13-.47-.26-.94-.4-1.4zM161.6 83.65l.41 1.19 3.63-1.18c-.15-.46-.31-.92-.47-1.38zM163.3 89.39c.1.4.19.81.28 1.22l3.74-.79c-.1-.48-.21-.95-.33-1.42zM159.33 78.11c.18.38.35.76.53 1.15l3.49-1.56c-.2-.45-.4-.89-.61-1.33zM152.14 140.52l-.85 1.06 2.84 2.56c.33-.4.66-.81 1-1.22zM115.49 162.41l-1.37.22.4 3.81 1.56-.25zM127.39 159l-1.26.49 1.19 3.64 1.44-.55zM118.54 161.8l-1.35.29.6 3.78c.52-.1 1-.21 1.55-.33zM147.08 146.15l2.56 2.85c.38-.37.75-.74 1.12-1.12l-2.71-2.7zM124.5 160.1l-1.28.43 1 3.7 1.47-.49zM121.56 161l-1.33.36.79 3.74c.51-.13 1-.26 1.53-.41zM112.8 166.67l-.4-3.81-1.4.14.2 3.83zM63.57 146.45c-.36-.35-.72-.7-1.07-1.06L59.66 148c.4.41.8.81 1.21 1.21zM105.17 163.3a59.57 59.57 0 01-24.23-5.12l-1.74 3.42a63.4 63.4 0 0026 5.52h1v-3.82zM63.49 60.62l-2.7-2.71-1.15 1.15 2.84 2.56zM147.22 61c.31.3.61.6.91.91l2.7-2.7c-.34-.36-.69-.71-1.05-1.06zM105.17 43.69h1v-3.81h-1.59l.2 3.82zM143.49 149.41l-1.08.88 2.25 3.1c.41-.33.83-.66 1.23-1zM145.83 147.35c-.34.32-.68.62-1 .93l2.41 3c.4-.35.79-.71 1.17-1.07zM150.16 142.9l-.92 1 2.71 2.7c.35-.38.71-.77 1.05-1.16zM154 138.09l-.76 1 3 2.41c.3-.4.6-.8.89-1.21zM140.28 55.09c.36.25.71.51 1.05.77l2.25-3.09-1.21-.9zM155.65 135.57c-.23.37-.47.73-.71 1.09l3.1 2.25.82-1.25zM157.21 133c-.21.37-.43.74-.65 1.11l3.21 2.09q.39-.65.75-1.29zM133.11 156.38l-1.26.65 1.56 3.5 1.43-.74zM135.84 154.84c-.4.24-.8.48-1.21.71l1.74 3.41 1.38-.8zM158.64 130.32c-.2.38-.39.76-.6 1.14l3.32 1.91c.23-.44.46-.87.68-1.32zM130.29 157.78l-1.3.58 1.37 3.58 1.48-.66zM138.49 153.17l-1.17.76 1.91 3.32c.45-.29.9-.58 1.34-.88zM141 151.36l-1.13.82 2.09 3.21c.43-.31.86-.62 1.28-.94zM142.7 56.94l1 .82 2.41-3-1.11-.92zM47.31 118.67c-.13-.5-.25-1-.37-1.49l-3.74.82c.13.57.27 1.13.42 1.69zM46.57 115.48c-.1-.5-.19-1-.28-1.51l-3.78.6c.1.57.21 1.14.32 1.71zM48.23 121.81q-.24-.74-.45-1.47l-3.7 1 .51 1.66zM46 112.26c-.07-.5-.14-1-.2-1.52l-3.81.4c.07.58.15 1.15.23 1.72zM52 130.86c-.23-.46-.46-.91-.68-1.37L47.8 131c.25.52.51 1 .77 1.55zM49.32 124.89c-.19-.47-.36-1-.53-1.44l-3.64 1.19c.19.54.39 1.09.6 1.63zM50.57 127.91c-.21-.46-.41-.93-.61-1.4l-3.57 1.37c.22.53.45 1.06.68 1.59zM45.84 96c.06-.51.13-1 .21-1.52l-3.78-.59c-.09.56-.16 1.13-.24 1.71zM46.33 92.76c.09-.5.19-1 .29-1.49l-3.74-.8c-.11.56-.23 1.13-.33 1.7zM45.52 99.23c0-.51.08-1 .13-1.52l-3.8-.4c-.06.57-.11 1.15-.15 1.72zM45.42 105.76v-1.53h-3.86v1.73zM45.38 102.49v-1.52l-3.82-.2v1.72zM45.63 109q-.08-.76-.12-1.53l-3.82.2c0 .58.08 1.15.13 1.73zM57.15 139.14l-.89-1.23-3.21 2.09c.33.47.67.94 1 1.4zM76.51 156l-1.29-.72-2.08 3.21 1.46.83zM73.74 154.37l-1.26-.79-2.25 3.1 1.42.9zM71 152.61l-1.21-.87-2.41 3c.46.33.91.66 1.38 1zM53.56 133.71c-.26-.44-.51-.88-.76-1.32l-3.41 1.73c.28.51.56 1 .86 1.5zM79.37 157.46c-.45-.21-.89-.43-1.32-.65l-1.92 3.31 1.5.75zM68.45 150.69q-.6-.45-1.17-.93l-2.56 2.85c.43.36.87.71 1.32 1.06zM109.29 163.16l-1.39.07v3.83l1.59-.09zM47 89.58c.12-.5.24-1 .37-1.48l-3.69-1c-.15.55-.29 1.11-.42 1.67zM66 148.64l-1.12-1-2.7 2.71c.41.38.84.76 1.26 1.13zM55.28 136.48l-.82-1.28-3.32 1.91c.31.49.62 1 .94 1.45zM59.16 141.7c-.32-.39-.64-.78-.95-1.18l-3.1 2.25c.35.45.71.89 1.08 1.33zM61.3 144.13c-.34-.37-.68-.74-1-1.12l-3 2.41c.37.43.75.85 1.14 1.27zM137.77 53.36l1.1.72 2.08-3.2q-.63-.43-1.26-.84zM86.16 46.78l1.38-.44-1.19-3.64q-.78.24-1.56.51zM92.29 45.09l1.38-.29-.79-3.74c-.53.1-1.06.21-1.58.33zM83.24 47.84c.42-.16.85-.33 1.28-.48l-1.37-3.58c-.49.19-1 .37-1.47.57zM89.2 45.85c.47-.12.93-.25 1.4-.36l-1-3.7-1.6.42zM80.37 49.07c.42-.2.84-.38 1.26-.56L80.08 45l-1.45.64zM77.57 50.44l1.23-.63-1.73-3.41-1.42.72zM74.83 52l1.21-.7-1.91-3.3c-.47.26-.93.52-1.38.8zM107.9 43.76a59.35 59.35 0 0125.76 7.14l1.74-3.41a63.4 63.4 0 00-27.5-7.56zM135.17 51.75l1.14.68 1.91-3.32-1.31-.77zM98.5 44.07c.46-.06.93-.1 1.4-.14l-.4-3.81c-.54.05-1.07.1-1.6.17zM101.63 43.8c.47 0 .93 0 1.4-.06l-.2-3.82-1.6.07zM95.38 44.5l1.4-.22-.6-3.77c-.54.07-1.07.15-1.6.24zM64.75 59.43c.35-.32.7-.64 1.06-1l-2.56-2.84q-.61.53-1.2 1.08zM72.17 53.62l1.18-.76-2.08-3.21-1.35.87zM52.87 74.48l.75-1.31-3.31-1.91c-.29.49-.57 1-.85 1.48zM54.52 71.69c.27-.42.54-.84.82-1.26l-3.21-2.08c-.31.47-.62 1-.92 1.43zM48.86 83.34c.17-.48.34-1 .52-1.42l-3.57-1.37c-.2.53-.4 1.07-.59 1.61zM50 80.31l.6-1.38-3.49-1.56c-.23.52-.46 1-.68 1.57zM56.32 69c.29-.41.58-.81.88-1.21l-3.1-2.25-1 1.37zM51.37 77.36c.22-.46.45-.91.68-1.35l-3.41-1.74c-.26.51-.52 1-.76 1.53zM67.13 57.35l1.09-.88-2.4-3-1.25 1zM58.26 66.41l.94-1.16-3-2.4c-.36.43-.71.87-1.06 1.31zM69.6 55.42l1.14-.82-2.25-3.1-1.3.94zM60.33 63.94c.31-.36.63-.71 1-1.06l-2.85-2.56c-.36.4-.73.8-1.09 1.21zM47.85 86.43c.14-.48.29-1 .45-1.45l-3.64-1.18c-.18.54-.35 1.09-.51 1.64z"/><g class="cls-3"><path class="cls-1" d="M104.46 0v207.56"/><path class="cls-4" d="M104.1 0h.73v207.56h-.73z"/></g><g class="cls-3"><path class="cls-1" d="M207.56 103.7H0"/><path class="cls-4" d="M0 103.33h207.56v.73H0z"/></g><path class="cls-1" d="M100.8 22.81h1.27v9.89h-1.27zM106.83 22.81h1.27v9.89h-1.27zM103.78 22.81h1.33v4.64h-1.33z"/><path class="cls-1" transform="rotate(-10 88.184 29.426)" d="M87.56 24.5h1.27v9.89h-1.27z"/><path class="cls-1" transform="rotate(-10 94.091 28.388)" d="M93.5 23.45h1.27v9.89H93.5z"/><path class="cls-1" transform="rotate(-10 90.755 26.368)" d="M90.04 24.01h1.33v4.64h-1.33z"/><path class="cls-1" transform="rotate(-20 75.453 33.39)" d="M74.82 28.46h1.27v9.89h-1.27z"/><path class="cls-1" transform="rotate(-20 81.105 31.347)" d="M80.49 26.39h1.27v9.89h-1.27z"/><path class="cls-1" transform="rotate(-20 77.384 29.901)" d="M76.73 27.58h1.33v4.64h-1.33z"/><path class="cls-1" transform="rotate(-30 63.59 39.52)" d="M62.96 34.57h1.27v9.89h-1.27z"/><path class="cls-1" transform="rotate(-30 68.82 36.5)" d="M68.18 31.55h1.27v9.89h-1.27z"/><path class="cls-1" transform="rotate(-30 64.887 35.726)" d="M64.23 33.41h1.33v4.64h-1.33z"/><path class="cls-1" transform="rotate(-40 52.966 47.592)" d="M52.34 42.64h1.27v9.89h-1.27z"/><path class="cls-1" transform="rotate(-39.6 58.113 43.728)" d="M56.96 38.77h1.27v9.89h-1.27z"/><path class="cls-1" transform="rotate(-40.01 53.593 43.636)" d="M52.93 41.32h1.33v4.64h-1.33z"/><path class="cls-1" transform="rotate(-50 43.917 57.383)" d="M43.28 52.44h1.27v9.89h-1.27z"/><path class="cls-1" transform="rotate(-50 47.792 52.767)" d="M47.16 47.82h1.27v9.89h-1.27z"/><path class="cls-1" transform="rotate(-50 43.845 53.394)" d="M43.18 51.07h1.33v4.64h-1.33z"/><path class="cls-1" transform="rotate(-60 36.7 68.613)" d="M36.07 63.67h1.27v9.89h-1.27z"/><path class="cls-1" transform="rotate(-60 39.716 63.39)" d="M39.08 58.44h1.27v9.89h-1.27z"/><path class="cls-1" transform="rotate(-60 35.942 64.687)" d="M35.27 62.37h1.33v4.64h-1.33z"/><path class="cls-1" transform="rotate(-70 31.542 80.914)" d="M30.91 75.97h1.27v9.89h-1.27z"/><path class="cls-1" transform="rotate(-70 33.604 75.249)" d="M32.97 70.3h1.27v9.89h-1.27z"/><path class="cls-1" transform="rotate(-70 30.109 77.186)" d="M29.44 74.86h1.33v4.64h-1.33z"/><path class="cls-1" transform="rotate(-80 28.597 93.928)" d="M27.97 88.98h1.27v9.89h-1.27z"/><path class="cls-1" transform="rotate(-80 29.645 87.984)" d="M29.01 83.04h1.27v9.89h-1.27z"/><path class="cls-1" transform="rotate(-80 26.536 90.503)" d="M25.88 88.18h1.33v4.64h-1.33z"/><path class="cls-1" d="M23.02 106.62h9.89v1.27h-9.89zM23.02 100.59h9.89v1.27h-9.89zM23.02 103.58h4.64v1.33h-4.64z"/><path class="cls-1" transform="matrix(.98 -.17 .17 .98 -20.48 6.98)" d="M24.7 119.86h9.89v1.27H24.7z"/><path class="cls-1" transform="rotate(-10 28.623 114.512)" d="M23.65 113.92h9.89v1.27h-9.89z"/><path class="cls-1" transform="rotate(-10 26.531 118.015)" d="M24.22 117.31h4.64v1.33h-4.64z"/><path class="cls-1" transform="rotate(-20 33.61 133.229)" d="M28.66 132.6h9.89v1.27h-9.89z"/><path class="cls-1" transform="rotate(-20 31.538 127.571)" d="M26.6 126.93h9.89v1.27H26.6z"/><path class="cls-1" transform="rotate(-20.01 30.089 131.264)" d="M27.79 130.63h4.64v1.33h-4.64z"/><path class="cls-1" transform="matrix(.87 -.5 .5 .87 -67.23 39.3)" d="M34.77 144.46h9.89v1.27h-9.89z"/><path class="cls-1" transform="matrix(.87 -.5 .5 .87 -65.02 37.09)" d="M31.75 139.24h9.89v1.27h-9.89z"/><path class="cls-1" transform="rotate(-30 35.932 143.788)" d="M33.61 143.13h4.64v1.33h-4.64z"/><path class="cls-1" transform="rotate(-40 47.792 155.714)" d="M42.85 155.08h9.89v1.27h-9.89z"/><path class="cls-1" transform="rotate(-40 43.917 151.1)" d="M38.97 150.46h9.89v1.27h-9.89z"/><path class="cls-1" transform="rotate(-40 43.85 155.088)" d="M41.52 154.43h4.64v1.33h-4.64z"/><path class="cls-1" transform="rotate(-50 57.596 164.774)" d="M52.65 164.14h9.89v1.27h-9.89z"/><path class="cls-1" transform="rotate(-50 52.97 160.893)" d="M48.03 160.26h9.89v1.27h-9.89z"/><path class="cls-1" transform="rotate(-50 53.607 164.846)" d="M51.27 164.18h4.64v1.33h-4.64z"/><path class="cls-1" transform="rotate(-60 68.806 171.985)" d="M63.87 171.35h9.89v1.27h-9.89z"/><path class="cls-1" transform="rotate(-60 63.593 168.975)" d="M58.65 168.34h9.89v1.27h-9.89z"/><path class="cls-1" transform="rotate(-60 64.898 172.754)" d="M62.57 172.09h4.64v1.33h-4.64z"/><path class="cls-1" transform="rotate(-70 81.126 177.142)" d="M76.17 176.51h9.89v1.27h-9.89z"/><path class="cls-1" transform="rotate(-70 75.45 175.083)" d="M70.51 174.45h9.89v1.27h-9.89z"/><path class="cls-1" transform="rotate(-70.01 77.375 178.573)" d="M75.07 177.91h4.64v1.33h-4.64z"/><path class="cls-1" transform="rotate(-80 94.136 180.085)" d="M89.19 179.45h9.89v1.27h-9.89z"/><path class="cls-1" transform="rotate(-80 88.198 179.042)" d="M83.25 178.4h9.89v1.27h-9.89z"/><path class="cls-1" transform="rotate(-80 90.7 182.147)" d="M88.39 181.48h4.64v1.33h-4.64z"/><path class="cls-1" d="M106.83 175.78h1.27v9.89h-1.27zM100.8 175.78h1.27v9.89h-1.27zM103.78 181.03h1.33v4.64h-1.33z"/><path class="cls-1" transform="rotate(-10 120.65 179)" d="M120.06 174.09h1.27v9.89h-1.27z"/><path class="cls-1" transform="rotate(-10 114.795 180.1)" d="M114.12 175.14h1.27v9.89h-1.27z"/><path class="cls-1" transform="rotate(-10 118.24 182.186)" d="M117.52 179.82h1.33v4.64h-1.33z"/><path class="cls-1" transform="rotate(-20 133.448 175.071)" d="M132.8 170.13h1.27v9.89h-1.27z"/><path class="cls-1" transform="rotate(-20 127.762 177.139)" d="M127.14 172.2h1.27v9.89h-1.27z"/><path class="cls-1" transform="rotate(-20 131.512 178.59)" d="M130.84 176.25h1.33v4.64h-1.33z"/><path class="cls-1" transform="rotate(-30 145.285 168.969)" d="M144.66 164.02h1.27v9.89h-1.27z"/><path class="cls-1" transform="rotate(-30 140.075 171.993)" d="M139.44 167.04h1.27v9.89h-1.27z"/><path class="cls-1" transform="rotate(-30 143.994 172.743)" d="M143.33 170.43h1.33v4.64h-1.33z"/><path class="cls-1" transform="rotate(-40 155.914 160.888)" d="M155.28 155.95h1.27v9.89h-1.27z"/><path class="cls-1" transform="rotate(-40 151.299 164.762)" d="M150.66 159.82h1.27v9.89h-1.27z"/><path class="cls-1" transform="rotate(-40 155.274 164.825)" d="M154.63 162.52h1.33v4.64h-1.33z"/><path class="cls-1" transform="rotate(-50 164.976 151.09)" d="M164.34 146.15h1.27v9.89h-1.27z"/><path class="cls-1" transform="rotate(-50 161.096 155.716)" d="M160.46 150.77h1.27v9.89h-1.27z"/><path class="cls-1" transform="rotate(-50 165.043 155.09)" d="M164.38 152.77h1.33v4.64h-1.33z"/><path class="cls-1" transform="matrix(.5 -.87 .87 .5 -35.04 219.05)" d="M171.56 134.92h1.27v9.89h-1.27z"/><path class="cls-1" transform="rotate(-60 169.168 145.093)" d="M168.54 140.15h1.27v9.89h-1.27z"/><path class="cls-1" transform="matrix(.5 -.87 .87 .5 -38.05 221.68)" d="M172.29 141.47h1.33v4.64h-1.33z"/><path class="cls-1" transform="rotate(-70 177.35 127.566)" d="M176.71 122.62h1.27v9.89h-1.27z"/><path class="cls-1" transform="rotate(-70 175.283 133.238)" d="M174.65 128.29h1.27v9.89h-1.27z"/><path class="cls-1" transform="rotate(-70.01 178.769 131.296)" d="M178.12 128.97h1.33v4.64h-1.33z"/><path class="cls-1" transform="rotate(-80 180.294 114.546)" d="M179.66 109.61h1.27v9.89h-1.27z"/><path class="cls-1" transform="rotate(-80 179.246 120.49)" d="M178.61 115.55h1.27v9.89h-1.27z"/><path class="cls-1" transform="rotate(-80 182.339 117.978)" d="M181.69 115.66h1.33v4.64h-1.33z"/><path class="cls-1" d="M175.98 100.59h9.89v1.27h-9.89zM175.98 106.62h9.89v1.27h-9.89zM181.23 103.58h4.64v1.33h-4.64z"/><path class="cls-1" transform="rotate(-10 179.235 87.954)" d="M174.3 87.36h9.89v1.27h-9.89z"/><path class="cls-1" transform="rotate(-10 180.325 93.923)" d="M175.34 93.3h9.89v1.27h-9.89z"/><path class="cls-1" transform="rotate(-10 182.407 90.535)" d="M180.03 89.84h4.64v1.33h-4.64z"/><path class="cls-1" transform="rotate(-20 175.285 75.262)" d="M170.34 74.61h9.89v1.27h-9.89z"/><path class="cls-1" transform="rotate(-20 177.358 80.92)" d="M172.4 80.28h9.89v1.27h-9.89z"/><path class="cls-1" transform="rotate(-20 178.775 77.193)" d="M176.46 76.52h4.64v1.33h-4.64z"/><path class="cls-1" transform="rotate(-30 169.175 63.39)" d="M164.23 62.75h9.89v1.27h-9.89z"/><path class="cls-1" transform="matrix(.87 -.5 .5 .87 -11.24 95.29)" d="M167.24 67.98h9.89v1.27h-9.89z"/><path class="cls-1" transform="rotate(-30 172.986 64.691)" d="M170.63 64.02h4.64v1.33h-4.64z"/><path class="cls-1" transform="rotate(-40 161.088 52.766)" d="M156.15 52.13h9.89v1.27h-9.89z"/><path class="cls-1" transform="rotate(-40 164.976 57.386)" d="M160.03 56.76h9.89v1.27h-9.89z"/><path class="cls-1" transform="rotate(-40 165.043 53.397)" d="M162.72 52.73h4.64v1.33h-4.64z"/><path class="cls-1" transform="rotate(-50 151.303 43.714)" d="M146.35 43.08h9.89v1.27h-9.89z"/><path class="cls-1" transform="rotate(-50 155.918 47.59)" d="M150.97 46.96h9.89v1.27h-9.89z"/><path class="cls-1" transform="rotate(-50 155.292 43.643)" d="M152.97 42.98h4.64v1.33h-4.64z"/><path class="cls-1" transform="rotate(-60 140.078 36.499)" d="M135.13 35.86h9.89v1.27h-9.89z"/><path class="cls-1" transform="rotate(-60 145.3 39.514)" d="M140.35 38.88h9.89v1.27h-9.89z"/><path class="cls-1" transform="rotate(-60 144.008 35.731)" d="M141.68 35.07h4.64v1.33h-4.64z"/><path class="cls-1" transform="rotate(-70 127.766 31.337)" d="M122.82 30.71h9.89v1.27h-9.89z"/><path class="cls-1" transform="rotate(-70 133.43 33.4)" d="M128.49 32.77h9.89v1.27h-9.89z"/><path class="cls-1" transform="rotate(-70 131.501 29.909)" d="M129.18 29.24h4.64v1.33h-4.64z"/><path class="cls-1" transform="matrix(.17 -.98 .98 .17 66.86 136.48)" d="M109.81 27.76h9.89v1.27h-9.89z"/><path class="cls-1" transform="rotate(-80 120.694 29.443)" d="M115.75 28.81h9.89v1.27h-9.89z"/><path class="cls-1" transform="rotate(-80 118.18 26.339)" d="M115.86 25.67h4.64V27h-4.64z"/><path class="cls-1" d="M126.87 197.57h-46.7a3.15 3.15 0 01-2.7-1.57l-2.27-4a3 3 0 01-.27-2.45 87.07 87.07 0 01-17.43-8.39 3.08 3.08 0 01-1.2.56l-4.59 1.05a3.07 3.07 0 01-2.89-.84L29 162.08a3.08 3.08 0 01-.8-3l1.2-4.43a3.2 3.2 0 01.53-1.06 88.28 88.28 0 01-4.51-8.11 3.41 3.41 0 01-.46-.1L20.42 144a3.11 3.11 0 01-2.09-2.17l-3.41-12.75a3.1 3.1 0 01.81-3l2.42-2.4a87.42 87.42 0 01-1.29-9.8 3 3 0 01-2.41-1l-3.21-3.45a3.09 3.09 0 01-.72-2.92L22.6 61.39a3.12 3.12 0 012.22-2.2L29.26 58a3 3 0 012.45.38A87.12 87.12 0 0148.57 40a3.06 3.06 0 01-.57-2.53l1-4.6a3.12 3.12 0 012-2.27l43.88-16a3.11 3.11 0 013.07.55l3.51 3a3.07 3.07 0 011.09 2.23h1.13A86.48 86.48 0 01153.46 36l3.5-.79a3.09 3.09 0 012.89.83l19.86 19.86a3.12 3.12 0 01.81 3l-1.21 4.42a3.13 3.13 0 01-.24.6 86.33 86.33 0 0110.63 30.52l3.88 2.44a3.11 3.11 0 011.42 2.64v13.2a3.12 3.12 0 01-1.56 2.7l-3.4 1.94a86.53 86.53 0 01-5 20.85 3.1 3.1 0 011.75 1.91l1.44 4.48a3.11 3.11 0 01-.57 3l-30 35.77a3.11 3.11 0 01-2.93 1.06l-4.52-.82a3.05 3.05 0 01-2.06-1.38 85.83 85.83 0 01-15.78 7.37 3.07 3.07 0 01-.33 2.57l-2.51 4a3.1 3.1 0 01-2.66 1.4zM57.4 180l.3.19a85.8 85.8 0 0018 8.63l.49.17-.23.46a2.16 2.16 0 000 2.08l2.28 4a2.19 2.19 0 001.91 1.11h46.7a2.2 2.2 0 001.87-1l2.5-4a2.2 2.2 0 00.11-2.15l-.23-.46.48-.17a85.39 85.39 0 0016.47-7.69l.44-.26.2.47a2.17 2.17 0 001.63 1.3l4.52.82a2.21 2.21 0 002.08-.76L187 147a2.22 2.22 0 00.41-2.1l-1.45-4.48a2.16 2.16 0 00-1.58-1.46l-.5-.12.18-.49A85.82 85.82 0 00189.2 117v-.23l3.8-2.16a2.24 2.24 0 001.11-1.92V99.52a2.19 2.19 0 00-1-1.87L188.92 95l-.09-.24a85 85 0 00-10.67-30.58L178 64l.15-.23a2.65 2.65 0 00.27-.6l1.2-4.43a2.22 2.22 0 00-.56-2.14l-19.85-19.88a2.19 2.19 0 00-2.05-.59l-3.89.88-.16-.11a85.6 85.6 0 00-49.47-15.63h-2.11l.06-.52a2.14 2.14 0 00-.76-2l-3.5-3a2.21 2.21 0 00-2.18-.39l-43.88 16a2.18 2.18 0 00-1.4 1.61l-1 4.6a2.17 2.17 0 00.65 2.07l.38.36-.41.32a86.31 86.31 0 00-17.3 18.98l-.29.43-.39-.35a2.17 2.17 0 00-2-.49l-4.44 1.17a2.19 2.19 0 00-1.57 1.56l-12.11 45.11a2.22 2.22 0 00.52 2.07l3.2 3.45a2.2 2.2 0 002.07.66l.51-.11v.52a87.14 87.14 0 001.36 10.4v.23l-2.75 2.74a2.2 2.2 0 00-.58 2.14l3.42 12.75a2.19 2.19 0 001.48 1.54l4.49 1.38a2.77 2.77 0 00.53.1H26l.12.24a87 87 0 004.74 8.53l.19.3-.24.25a2.24 2.24 0 00-.55.95L29 159.3a2.22 2.22 0 00.57 2.15l19.86 19.86a2.19 2.19 0 002 .59l4.59-1.05a2.16 2.16 0 001-.56zm46.25 10.4a82.58 82.58 0 1182.57-82.58 82.67 82.67 0 01-82.57 82.62zm0-164.24a81.67 81.67 0 1081.67 81.66 81.75 81.75 0 00-81.67-81.62z"/></g></g></svg>