<svg xmlns="http://www.w3.org/2000/svg" viewBox="0 0 708.01 708.32"><defs><style>.cls-1{fill:#fff}.cls-3{opacity:.5}.cls-4{opacity:.3}</style></defs><g id="图层_2" data-name="图层 2"><g id="Layer_1" data-name="Layer 1"><path class="cls-1" d="M354.07 539.32H354c-.6 0-1.26-.46-1.91-.47-.83 0-1.49-.45-1.48-1.28s.67-1.25 1.5-1.25c.64 0 1.28-.45 1.92-.45a1.73 1.73 0 011.53 1.72 1.69 1.69 0 01-1.49 1.73zm4-1a1.49 1.49 0 110-3l2-.05a1.49 1.49 0 11.09 3h-2zm-10 0c-.67 0-1.35-.05-2-.08a1.51 1.51 0 01-1.44-1.57 1.48 1.48 0 011.56-1.43l2 .07a1.51 1.51 0 010 3zm16-.19a1.5 1.5 0 01-.08-3l2-.12a1.53 1.53 0 011.59 1.4 1.5 1.5 0 01-1.4 1.6l-2 .12zM342.1 538h-.1l-2-.14a1.5 1.5 0 01.22-3l2 .13a1.5 1.5 0 01-.1 3zm27.92-.31a1.5 1.5 0 01-.13-3l2-.19a1.5 1.5 0 11.29 3l-2 .19zm-33.88-.17H336l-2-.2a1.5 1.5 0 01.32-3l2 .21a1.5 1.5 0 01-.14 3zm39.86-.42a1.5 1.5 0 01-.17-3l2-.25a1.5 1.5 0 01.39 3l-2 .25zm-45.78-.24H330l-2-.27a1.5 1.5 0 11.42-3l2 .27a1.5 1.5 0 01-.19 3zm51.71-.57a1.5 1.5 0 01-.22-3l1.95-.31a1.5 1.5 0 11.49 3l-2 .31zm-57.64-.3a1 1 0 01-.24 0c-.67-.1-1.33-.22-2-.33a1.5 1.5 0 01.52-3l1.95.33a1.5 1.5 0 01-.24 3zm63.55-.7a1.5 1.5 0 01-.27-3l1.94-.37a1.5 1.5 0 01.58 2.94l-2 .38zm-69.44-.36a1.36 1.36 0 01-.29 0l-2-.4a1.5 1.5 0 11.62-2.93l1.94.39a1.5 1.5 0 01-.29 3zm75.31-.84a1.51 1.51 0 01-1.47-1.18 1.49 1.49 0 011.14-1.78l1.94-.44a1.5 1.5 0 11.67 2.92l-2 .44a1.22 1.22 0 01-.31.04zm-81.17-.41a2.09 2.09 0 01-.34 0l-2-.47a1.5 1.5 0 11.71-2.91l1.93.45a1.51 1.51 0 01-.34 3zm87-1a1.5 1.5 0 01-.37-3l1.92-.5a1.5 1.5 0 11.77 2.89c-.65.18-1.29.35-1.94.51a1.24 1.24 0 01-.42.12zm-92.8-.47a1.74 1.74 0 01-.39-.05l-1.94-.53a1.5 1.5 0 11.81-2.89l1.91.52a1.5 1.5 0 01-.39 3zm98.58-1.11a1.5 1.5 0 01-.42-2.94l1.9-.56a1.5 1.5 0 11.87 2.87l-1.93.57a1.52 1.52 0 01-.46.08zm-104.34-.53a1.29 1.29 0 01-.43-.07l-1.94-.59a1.5 1.5 0 01.9-2.86l1.91.58a1.5 1.5 0 01-.44 2.94zM411 529.35a1.5 1.5 0 01-.47-2.92l1.88-.63a1.5 1.5 0 011 2.84l-1.91.64a1.58 1.58 0 01-.5.07zm-115.78-.6a1.4 1.4 0 01-.49-.08l-1.91-.66a1.5 1.5 0 011-2.83l1.88.65a1.5 1.5 0 01-.48 2.92zm121.44-1.35a1.5 1.5 0 01-.51-2.91l1.85-.69a1.5 1.5 0 111.06 2.81l-1.89.7a1.52 1.52 0 01-.51.09zm-127.1-.67a1.39 1.39 0 01-.53-.1l-1.89-.72a1.5 1.5 0 011.09-2.8c.62.24 1.23.48 1.86.71a1.5 1.5 0 01-.53 2.91zm132.69-1.48a1.5 1.5 0 01-.56-2.89l1.83-.74a1.5 1.5 0 012 .81 1.51 1.51 0 01-.81 2l-1.86.76a1.54 1.54 0 01-.6.06zM284 524.52a1.6 1.6 0 01-.57-.11c-.63-.26-1.25-.52-1.86-.79a1.5 1.5 0 111.17-2.76l1.83.77a1.5 1.5 0 01-.57 2.89zm143.78-1.58a1.5 1.5 0 01-.6-2.88l1.8-.8a1.5 1.5 0 011.24 2.73l-1.83.82a1.49 1.49 0 01-.64.13zm-149.29-.81a1.5 1.5 0 01-.62-.13l-1.83-.85a1.5 1.5 0 111.27-2.72l1.8.83a1.5 1.5 0 01-.62 2.87zm154.71-1.69a1.5 1.5 0 01-.65-2.85l1.77-.86a1.5 1.5 0 011.33 2.69l-1.8.87a1.51 1.51 0 01-.68.15zm-160.2-.88a1.46 1.46 0 01-.66-.16l-1.8-.9a1.5 1.5 0 111.36-2.67l1.77.88a1.5 1.5 0 01-.67 2.85zm165.48-1.79a1.5 1.5 0 01-.69-2.83l1.74-.92a1.5 1.5 0 011.42 2.64l-1.78.94a1.56 1.56 0 01-.66.17zm-170.81-1a1.53 1.53 0 01-.71-.18q-.89-.46-1.77-1a1.5 1.5 0 011.44-2.63c.58.32 1.16.64 1.75 1a1.5 1.5 0 01-.71 2.82zm176.06-1.89a1.5 1.5 0 01-.74-2.81l1.72-1a1.5 1.5 0 111.5 2.59l-1.74 1a1.54 1.54 0 01-.71.26zm-181.3-1a1.43 1.43 0 01-.75-.2l-1.74-1a1.5 1.5 0 111.53-2.58l1.71 1a1.5 1.5 0 01-.75 2.8zm186.45-2a1.49 1.49 0 01-1.28-.72 1.5 1.5 0 01.5-2.06l1.69-1a1.5 1.5 0 011.58 2.54q-.84.54-1.71 1.05a1.46 1.46 0 01-.75.21zm-191.59-1.1a1.46 1.46 0 01-.8-.23l-1.7-1.07a1.5 1.5 0 011.61-2.53l1.68 1.06a1.5 1.5 0 01-.79 2.77zM454 508.72a1.5 1.5 0 01-.82-2.76l1.65-1.09a1.5 1.5 0 111.67 2.49l-1.68 1.11a1.46 1.46 0 01-.82.25zm-201.69-1.17a1.48 1.48 0 01-.83-.26l-1.67-1.13a1.5 1.5 0 111.69-2.47l1.65 1.11a1.5 1.5 0 01-.84 2.75zm206.64-2.18a1.5 1.5 0 01-.86-2.73c.54-.38 1.08-.76 1.61-1.15a1.5 1.5 0 011.75 2.44l-1.64 1.16a1.45 1.45 0 01-.89.28zm-211.57-1.24a1.5 1.5 0 01-.87-.28l-1.63-1.19a1.5 1.5 0 111.78-2.41l1.6 1.16a1.5 1.5 0 01-.88 2.72zm216.41-2.28a1.49 1.49 0 01-.9-2.69l1.58-1.2a1.5 1.5 0 111.82 2.38l-1.6 1.21a1.44 1.44 0 01-.93.3zm-221.22-1.3a1.47 1.47 0 01-.91-.31L240 499a1.5 1.5 0 011.85-2.36l1.57 1.21a1.5 1.5 0 01-.92 2.69zm226-2.36a1.5 1.5 0 01-.94-2.67l1.53-1.25a1.5 1.5 0 011.91 2.32l-1.57 1.27a1.47 1.47 0 01-1.01.33zm-230.64-1.37a1.5 1.5 0 01-.95-.34l-1.55-1.28a1.5 1.5 0 011.93-2.3l1.53 1.26a1.51 1.51 0 01.2 2.12 1.47 1.47 0 01-1.24.54zm235.24-2.45a1.5 1.5 0 01-1-2.64l1.5-1.3a1.5 1.5 0 012 2.26l-1.6 1.31a1.52 1.52 0 01-.98.37zm-239.8-1.43a1.51 1.51 0 01-1-.37c-.5-.44-1-.89-1.5-1.34a1.5 1.5 0 112-2.23l1.48 1.32a1.5 1.5 0 01-1 2.62zm244.28-2.54a1.52 1.52 0 01-1.11-.49 1.49 1.49 0 01.1-2.12l1.45-1.34a1.49 1.49 0 012.12.07 1.51 1.51 0 01-.07 2.12l-1.56 1.36a1.47 1.47 0 01-1.01.4zm-248.71-1.48a1.47 1.47 0 01-1-.41l-1.46-1.38a1.5 1.5 0 012.08-2.17l1.43 1.37a1.49 1.49 0 01.07 2.12 1.53 1.53 0 01-1.2.47zM482 486.28a1.5 1.5 0 01-1.05-2.57l1.41-1.39a1.5 1.5 0 012.12 2.12l-1.48 1.42a1.54 1.54 0 01-1.08.42zm-257.37-1.53a1.48 1.48 0 01-1.06-.44l-1.41-1.43a1.5 1.5 0 112.14-2.09l1.39 1.4a1.49 1.49 0 010 2.12 1.45 1.45 0 01-1.14.44zm261.5-2.75a1.5 1.5 0 01-1.08-2.54c.46-.47.91-.95 1.36-1.43a1.5 1.5 0 112.19 2.05l-1.39 1.46a1.48 1.48 0 01-1.08.46zm-265.74-1.58a1.49 1.49 0 01-1.09-.47l-1.37-1.48a1.5 1.5 0 012.21-2l1.35 1.46a1.49 1.49 0 01-1.1 2.52zm269.81-2.81a1.54 1.54 0 01-1-.38 1.51 1.51 0 01-.11-2.12l1.31-1.48a1.5 1.5 0 112.26 2l-1.34 1.5a1.48 1.48 0 01-1.12.51zM216.37 476a1.54 1.54 0 01-1.13-.51c-.44-.51-.88-1-1.31-1.52a1.5 1.5 0 112.27-2l1.3 1.5a1.51 1.51 0 01-1.13 2.49zm277.76-2.9a1.51 1.51 0 01-1-.35 1.49 1.49 0 01-.18-2.11l1.26-1.53a1.5 1.5 0 012.32 1.91l-1.28 1.54a1.5 1.5 0 01-1.12.56zm-281.63-1.65a1.5 1.5 0 01-1.16-.54l-1.27-1.56a1.51 1.51 0 01.23-2.11 1.5 1.5 0 012.11.23l1.25 1.53a1.49 1.49 0 01-.21 2.11 1.48 1.48 0 01-.95.34zm285.41-3a1.45 1.45 0 01-.92-.32 1.5 1.5 0 01-.25-2.11l1.21-1.56a1.5 1.5 0 012.38 1.83l-1.24 1.59a1.47 1.47 0 01-1.18.59zm-289.13-1.7a1.49 1.49 0 01-1.19-.59c-.41-.53-.81-1.06-1.21-1.6a1.5 1.5 0 01.29-2.1 1.52 1.52 0 012.11.3c.39.53.79 1.05 1.19 1.58a1.5 1.5 0 01-.28 2.1 1.47 1.47 0 01-.91.33zm292.76-3.07a1.45 1.45 0 01-.88-.29 1.5 1.5 0 01-.32-2.1c.39-.53.78-1.06 1.16-1.6a1.5 1.5 0 012.44 1.75c-.39.55-.79 1.09-1.19 1.63a1.49 1.49 0 01-1.21.63zM205.22 462a1.49 1.49 0 01-1.22-.63l-1.17-1.64a1.5 1.5 0 012.46-1.72l1.14 1.61a1.5 1.5 0 01-.34 2.1 1.48 1.48 0 01-.87.28zM505 458.82a1.51 1.51 0 01-1.24-2.35l1.11-1.64a1.5 1.5 0 112.49 1.67c-.37.56-.75 1.11-1.13 1.66a1.49 1.49 0 01-1.23.66zm-303.21-1.76a1.52 1.52 0 01-1.25-.67l-1.11-1.67a1.5 1.5 0 012.51-1.65l1.1 1.65a1.5 1.5 0 01-.42 2.08 1.48 1.48 0 01-.81.26zm306.52-3.24a1.5 1.5 0 01-1.26-2.31l1.05-1.68a1.5 1.5 0 112.55 1.59c-.36.57-.71 1.14-1.08 1.71a1.5 1.5 0 01-1.24.69zM198.57 452a1.53 1.53 0 01-1.28-.71l-1-1.71a1.5 1.5 0 112.56-1.56l1 1.68a1.5 1.5 0 01-.48 2.07 1.54 1.54 0 01-.8.23zm312.9-3.33a1.5 1.5 0 01-1.28-2.27l1-1.7a1.5 1.5 0 012.6 1.5c-.34.58-.68 1.16-1 1.74a1.49 1.49 0 01-1.32.77zm-316-1.8a1.5 1.5 0 01-1.3-.75l-1-1.74a1.5 1.5 0 112.61-1.47c.32.57.65 1.14 1 1.71a1.5 1.5 0 01-.55 2 1.46 1.46 0 01-.74.29zm319-3.41a1.57 1.57 0 01-.72-.18 1.5 1.5 0 01-.59-2l1-1.74a1.5 1.5 0 112.64 1.42l-1 1.77a1.51 1.51 0 01-1.35.77zm-321.87-1.8a1.5 1.5 0 01-1.32-.8c-.32-.59-.63-1.18-.94-1.77a1.5 1.5 0 012.66-1.39c.3.59.61 1.17.92 1.75a1.5 1.5 0 01-.61 2 1.53 1.53 0 01-.73.25zm324.68-3.5a1.5 1.5 0 01-1.34-2.18c.3-.59.6-1.18.89-1.77a1.5 1.5 0 012.69 1.33l-.9 1.8a1.51 1.51 0 01-1.36.86zm-327.41-1.81a1.52 1.52 0 01-1.35-.84l-.88-1.8a1.5 1.5 0 012.71-1.3c.28.59.57 1.18.86 1.77a1.49 1.49 0 01-.68 2 1.43 1.43 0 01-.68.21zm330-3.58a1.42 1.42 0 01-.63-.15 1.5 1.5 0 01-.73-2l.84-1.8a1.5 1.5 0 112.73 1.24c-.28.61-.56 1.22-.85 1.83a1.49 1.49 0 01-1.34.92zM187.29 431a1.48 1.48 0 01-1.36-.88c-.28-.6-.55-1.21-.82-1.83a1.5 1.5 0 012.74-1.21c.27.61.53 1.2.81 1.8a1.5 1.5 0 01-1.37 2.12zm335.05-3.67a1.34 1.34 0 01-.58-.12 1.49 1.49 0 01-.79-2c.26-.6.51-1.21.77-1.83a1.5 1.5 0 112.77 1.15c-.26.63-.52 1.25-.79 1.86a1.49 1.49 0 01-1.38.93zm-337.43-1.8a1.51 1.51 0 01-1.38-.92c-.26-.62-.51-1.24-.76-1.86a1.5 1.5 0 012.78-1.12l.75 1.83a1.5 1.5 0 01-.81 2 1.66 1.66 0 01-.58.06zm339.71-3.76a1.52 1.52 0 01-.55-.1 1.5 1.5 0 01-.85-1.94c.24-.62.48-1.24.71-1.86a1.5 1.5 0 012.81 1.06c-.24.63-.48 1.26-.73 1.89a1.49 1.49 0 01-1.39.94zM182.71 420a1.49 1.49 0 01-1.4-1c-.24-.63-.47-1.25-.7-1.88a1.5 1.5 0 112.82-1c.22.62.45 1.24.68 1.85a1.5 1.5 0 01-.87 1.94 1.6 1.6 0 01-.53.09zm344-3.83a1.43 1.43 0 01-.5-.09 1.49 1.49 0 01-.92-1.91c.22-.62.44-1.25.65-1.88a1.5 1.5 0 112.84 1l-.66 1.91a1.51 1.51 0 01-1.41.93zm-346-1.8a1.51 1.51 0 01-1.42-1c-.22-.64-.43-1.27-.64-1.91a1.5 1.5 0 012.85-.94l.63 1.88a1.5 1.5 0 01-.94 1.91 1.61 1.61 0 01-.5.02zm347.92-3.9a1.76 1.76 0 01-.45-.07 1.51 1.51 0 01-1-1.88c.2-.64.4-1.27.59-1.91a1.5 1.5 0 112.87.88c-.19.64-.39 1.28-.59 1.93a1.51 1.51 0 01-1.44 1.01zm-349.75-1.81a1.5 1.5 0 01-1.44-1.06l-.57-1.93a1.5 1.5 0 012.88-.84c.18.63.37 1.27.56 1.9a1.49 1.49 0 01-1 1.87 1.59 1.59 0 01-.45.02zm351.45-3.94a1.44 1.44 0 01-.4-.06 1.5 1.5 0 01-1-1.85c.17-.63.35-1.27.52-1.91a1.5 1.5 0 012.9.78l-.53 1.94a1.52 1.52 0 01-1.51 1.06zm-353.1-1.81a1.51 1.51 0 01-1.45-1.12l-.51-1.94a1.5 1.5 0 012.91-.75c.16.64.33 1.28.5 1.92a1.51 1.51 0 01-1.06 1.84 1.74 1.74 0 01-.41.01zm354.62-4a1.47 1.47 0 01-.36 0 1.49 1.49 0 01-1.1-1.81c.16-.64.31-1.29.46-1.93a1.5 1.5 0 112.92.68c-.15.65-.31 1.31-.47 2a1.5 1.5 0 01-1.47 1.03zm-356.07-1.82a1.5 1.5 0 01-1.46-1.16c-.16-.66-.3-1.31-.45-2a1.48 1.48 0 011.14-1.78 1.5 1.5 0 011.79 1.14c.14.64.29 1.29.44 1.93a1.51 1.51 0 01-1.12 1.8 2.09 2.09 0 01-.36.04zm357.39-4a1.63 1.63 0 01-.31 0 1.5 1.5 0 01-1.16-1.78c.14-.64.27-1.29.4-1.93a1.5 1.5 0 112.94.58c-.13.66-.27 1.31-.4 2a1.5 1.5 0 01-1.49 1.04zm-358.68-1.89A1.51 1.51 0 01173 390c-.13-.66-.25-1.32-.38-2a1.5 1.5 0 013-.55c.12.65.25 1.29.38 1.94a1.5 1.5 0 01-1.18 1.76zm359.79-4h-.26a1.5 1.5 0 01-1.22-1.74l.33-1.95a1.5 1.5 0 113 .49c-.11.66-.22 1.32-.34 2a1.49 1.49 0 01-1.51 1.16zm-360.86-1.85a1.49 1.49 0 01-1.47-1.25c-.11-.67-.22-1.33-.32-2a1.5 1.5 0 013-.46c.1.66.2 1.31.31 2a1.5 1.5 0 01-1.24 1.72 1 1 0 01-.28-.05zm361.8-4.06H535a1.49 1.49 0 01-1.27-1.69l.27-2a1.5 1.5 0 113 .38l-.27 2a1.5 1.5 0 01-1.51 1.27zm-362.67-1.86a1.51 1.51 0 01-1.49-1.31c-.08-.66-.17-1.33-.25-2a1.5 1.5 0 013-.35c.08.65.16 1.31.25 2a1.49 1.49 0 01-1.29 1.68zM536 375.3h-.17a1.51 1.51 0 01-1.33-1.66c.08-.65.14-1.31.21-2a1.5 1.5 0 013 .29c-.06.67-.13 1.34-.2 2a1.51 1.51 0 01-1.51 1.37zm-364.09-1.86a1.5 1.5 0 01-1.49-1.36c-.07-.66-.13-1.33-.19-2a1.5 1.5 0 013-.26l.18 2a1.5 1.5 0 01-1.34 1.64zm364.63-4.1h-.11a1.5 1.5 0 01-1.38-1.61c0-.66.09-1.32.14-2a1.48 1.48 0 011.59-1.4 1.51 1.51 0 011.4 1.6c0 .67-.09 1.34-.14 2a1.5 1.5 0 01-1.54 1.41zm-365.12-1.87a1.5 1.5 0 01-1.49-1.4q-.07-1-.12-2a1.5 1.5 0 113-.16l.12 2a1.5 1.5 0 01-1.4 1.6zm365.48-4.11h-.07a1.48 1.48 0 01-1.43-1.56c0-.66 0-1.32.07-2a1.52 1.52 0 011.55-1.45 1.5 1.5 0 011.45 1.55c0 .67 0 1.34-.07 2a1.5 1.5 0 01-1.54 1.46zm-365.77-1c-.8 0-1.47-1.06-1.5-1.87 0-.66 0-1.54-.05-2.21a1.6 1.6 0 011.42-1.68 1.44 1.44 0 011.54 1.42c0 .66 0 1.71.05 2.36 0 .83-.62 1.94-1.45 1.94zm365.93-5c-.83 0-1.25-.66-1.24-1.49 0-.65.25-1.29.25-1.95v-.25a1.5 1.5 0 013 0v.25c0 .67-.25 1.32-.25 2a1.7 1.7 0 01-1.82 1.4zm-366.51-1.81A1.5 1.5 0 01169 354v-.13c0-.63.24-.85.25-1.48 0-.82.92-1.08 1.74-1.08.83 0 1.25.28 1.24 1.11 0 .62-.25.83-.25 1.45v.13a1.51 1.51 0 01-1.47 1.51zM537 351.32a1.58 1.58 0 01-1.5-1.55c0-.66 0-1.37-.06-2a1.52 1.52 0 011.45-1.57 1.49 1.49 0 011.55 1.43c0 .67 0 1.42.06 2.09a1.57 1.57 0 01-1.47 1.62zm-365.89-1H171c-.83 0-1.48-1.12-1.45-1.95 0-.67 0-1.54.07-2.21a1.58 1.58 0 011.56-1.53 1.46 1.46 0 011.44 1.51c0 .66-.06 1.69-.08 2.35s-.65 1.83-1.45 1.83zm365.66-5.16a1.49 1.49 0 01-1.5-1.41l-.12-2a1.5 1.5 0 113-.2q.07 1 .12 2a1.49 1.49 0 01-1.41 1.58zm-365.38-1.62h-.1a1.5 1.5 0 01-1.4-1.59c0-.67.09-1.34.14-2a1.5 1.5 0 013 .23c-.05.65-.09 1.31-.13 2a1.5 1.5 0 01-1.53 1.36zm365-4.35a1.49 1.49 0 01-1.49-1.37c-.06-.66-.12-1.31-.19-2a1.5 1.5 0 013-.29c.06.66.13 1.33.18 2a1.48 1.48 0 01-1.36 1.62zm-364.47-1.62h-.15a1.5 1.5 0 01-1.35-1.64l.21-2a1.5 1.5 0 013 .32c-.07.66-.14 1.32-.2 2a1.51 1.51 0 01-1.58 1.32zm363.85-4.34a1.5 1.5 0 01-1.49-1.32c-.08-.65-.16-1.31-.25-2a1.5 1.5 0 013-.39c.09.66.17 1.33.25 2a1.49 1.49 0 01-1.31 1.67zm-363.18-1.61h-.19a1.49 1.49 0 01-1.3-1.68l.27-2a1.52 1.52 0 011.7-1.28 1.5 1.5 0 011.27 1.7c-.09.65-.18 1.31-.26 2a1.51 1.51 0 01-1.56 1.26zm362.37-4.32a1.49 1.49 0 01-1.48-1.27c-.11-.65-.21-1.3-.32-1.95a1.5 1.5 0 113-.49c.11.66.22 1.32.32 2a1.49 1.49 0 01-1.25 1.71.93.93 0 01-.34 0zm-361.5-1.61a1 1 0 01-.24 0 1.49 1.49 0 01-1.24-1.72l.33-2a1.5 1.5 0 013 .51q-.18 1-.33 1.95a1.5 1.5 0 01-1.59 1.26zm360.49-4.29a1.51 1.51 0 01-1.48-1.22c-.12-.65-.24-1.3-.37-1.95a1.5 1.5 0 112.94-.58c.13.65.26 1.31.38 2a1.49 1.49 0 01-1.19 1.75zm-359.43-1.6a1.43 1.43 0 01-.29 0A1.49 1.49 0 01173 318c.13-.66.26-1.32.4-2a1.5 1.5 0 012.93.62l-.39 1.94a1.51 1.51 0 01-1.49 1.24zm358.23-4.27a1.5 1.5 0 01-1.47-1.17c-.14-.65-.29-1.29-.44-1.93a1.5 1.5 0 012.92-.68c.16.65.31 1.3.45 2a1.5 1.5 0 01-1.21 1.75zm-357-1.59h-.34a1.51 1.51 0 01-1.12-1.8c.15-.66.31-1.31.47-2a1.5 1.5 0 112.91.71c-.16.64-.31 1.28-.46 1.92a1.48 1.48 0 01-1.51 1.17zm355.58-4.23a1.49 1.49 0 01-1.45-1.13c-.16-.64-.33-1.27-.5-1.91a1.5 1.5 0 112.89-.78c.18.65.35 1.3.52 1.95a1.5 1.5 0 01-1.08 1.82 1.65 1.65 0 01-.43.05zm-354.13-1.58a1.31 1.31 0 01-.39-.05 1.49 1.49 0 01-1.06-1.83c.17-.65.35-1.3.53-1.95a1.5 1.5 0 112.89.81c-.18.64-.35 1.27-.52 1.91a1.5 1.5 0 01-1.5 1.11zm352.55-4.19a1.51 1.51 0 01-1.44-1.08l-.57-1.9a1.5 1.5 0 012.87-.87c.2.64.39 1.28.58 1.92a1.49 1.49 0 01-1 1.86 1.23 1.23 0 01-.49.07zm-350.91-1.57a1.67 1.67 0 01-.44-.06 1.5 1.5 0 01-1-1.87c.19-.65.39-1.29.59-1.93a1.5 1.5 0 012.87.89c-.2.64-.4 1.27-.59 1.91a1.5 1.5 0 01-1.48 1.06zm349.13-4.15a1.48 1.48 0 01-1.42-1l-.63-1.87a1.5 1.5 0 112.84-1c.21.63.43 1.27.64 1.91a1.5 1.5 0 01-1 1.89 1.55 1.55 0 01-.48.07zm-347.3-1.57a1.61 1.61 0 01-.48-.08 1.5 1.5 0 01-.94-1.91c.21-.63.43-1.27.66-1.9a1.49 1.49 0 011.91-.92 1.5 1.5 0 01.92 1.91c-.22.62-.44 1.25-.65 1.88a1.51 1.51 0 01-1.47 1.02zM526 292.56a1.5 1.5 0 01-1.41-1l-.69-1.85a1.5 1.5 0 112.81-1.06c.23.62.47 1.25.7 1.88a1.5 1.5 0 01-1.41 2zM182.64 291a1.42 1.42 0 01-.53-.1 1.5 1.5 0 01-.87-1.93q.34-.94.72-1.89a1.5 1.5 0 012.79 1.09L184 290a1.49 1.49 0 01-1.36 1zm341.17-4a1.51 1.51 0 01-1.39-.94l-.75-1.83a1.5 1.5 0 112.77-1.15c.26.62.51 1.24.76 1.86a1.5 1.5 0 01-.83 1.95 1.55 1.55 0 01-.56.11zm-339-1.57a1.7 1.7 0 01-.58-.11 1.5 1.5 0 01-.81-2l.78-1.87a1.5 1.5 0 012.76 1.18l-.77 1.83a1.49 1.49 0 01-1.34.94zm336.64-3.93a1.5 1.5 0 01-1.37-.89l-.81-1.8a1.5 1.5 0 112.73-1.24c.28.61.55 1.22.82 1.83a1.5 1.5 0 01-.76 2 1.66 1.66 0 01-.57.07zm-334.25-1.58a1.5 1.5 0 01-1.37-2.12l.84-1.83a1.5 1.5 0 112.72 1.27c-.28.59-.55 1.2-.83 1.8a1.5 1.5 0 01-1.32.85zm331.8-3.87a1.5 1.5 0 01-1.35-.84l-.87-1.78a1.5 1.5 0 112.69-1.33c.3.6.59 1.2.88 1.8a1.49 1.49 0 01-1.35 2.15zm-329.2-1.59a1.55 1.55 0 01-.66-.15 1.5 1.5 0 01-.68-2c.3-.6.6-1.21.9-1.8a1.5 1.5 0 012.68 1.35c-.3.59-.6 1.18-.89 1.78a1.49 1.49 0 01-1.35.82zm326.51-3.74a1.49 1.49 0 01-1.33-.81l-.92-1.74a1.5 1.5 0 012.64-1.42c.32.59.63 1.18.94 1.77a1.51 1.51 0 01-.64 2 1.56 1.56 0 01-.69.2zm-323.76-1.59a1.53 1.53 0 01-.71-.18 1.5 1.5 0 01-.61-2c.31-.59.64-1.19 1-1.77a1.5 1.5 0 112.63 1.44l-.95 1.74a1.49 1.49 0 01-1.36.77zm320.91-3.66a1.51 1.51 0 01-1.31-.76c-.32-.57-.65-1.14-1-1.71a1.5 1.5 0 012.6-1.51c.33.58.67 1.16 1 1.74a1.5 1.5 0 01-.56 2 1.54 1.54 0 01-.73.24zm-318-1.59a1.43 1.43 0 01-.75-.2 1.5 1.5 0 01-.55-2.05l1-1.74a1.5 1.5 0 012.58 1.53c-.34.57-.67 1.14-1 1.72a1.49 1.49 0 01-1.27.74zm315-3.56a1.51 1.51 0 01-1.28-.72l-1-1.68a1.5 1.5 0 112.54-1.59c.36.57.71 1.14 1.06 1.71a1.5 1.5 0 01-.51 2.06 1.46 1.46 0 01-.84.22zm-311.87-1.58a1.56 1.56 0 01-.8-.22 1.52 1.52 0 01-.48-2.07l1.08-1.71a1.5 1.5 0 012.53 1.62c-.36.55-.71 1.11-1.06 1.68a1.49 1.49 0 01-1.3.7zm308.68-3.47a1.48 1.48 0 01-1.25-.68l-1.09-1.65a1.5 1.5 0 012.49-1.67l1.08 1.73a1.49 1.49 0 01-.44 2.07 1.44 1.44 0 01-.82.2zm-305.46-1.57a1.47 1.47 0 01-.83-.25 1.5 1.5 0 01-.42-2.08c.38-.56.76-1.11 1.13-1.67a1.5 1.5 0 012.48 1.7c-.37.54-.75 1.09-1.11 1.64a1.51 1.51 0 01-1.25.66zm302.08-3.38a1.49 1.49 0 01-1.23-.64l-1.15-1.61a1.5 1.5 0 012.44-1.75c.39.54.78 1.09 1.16 1.64a1.49 1.49 0 01-1.22 2.36zm-298.66-1.54a1.5 1.5 0 01-1.23-2.38c.39-.54.78-1.09 1.18-1.63a1.5 1.5 0 012.42 1.78l-1.17 1.6a1.49 1.49 0 01-1.2.63zm295.14-3.3a1.48 1.48 0 01-1.2-.6l-1.17-1.57a1.5 1.5 0 012.37-1.83l1.22 1.6a1.5 1.5 0 01-.3 2.1 1.45 1.45 0 01-.92.3zM208.8 244a1.47 1.47 0 01-.91-.31 1.51 1.51 0 01-.28-2.11l1.24-1.59a1.5 1.5 0 012.36 1.86l-1.21 1.53a1.49 1.49 0 01-1.2.62zm287.9-3.21a1.5 1.5 0 01-1.17-.56l-1.25-1.53a1.5 1.5 0 012.32-1.91l1.27 1.56a1.5 1.5 0 01-.23 2.11 1.52 1.52 0 01-.94.3zm-284.17-1.49a1.48 1.48 0 01-.95-.34 1.49 1.49 0 01-.21-2.11c.42-.52.85-1 1.28-1.54a1.5 1.5 0 112.3 1.92l-1.26 1.53a1.5 1.5 0 01-1.16.51zm280.35-3.11a1.49 1.49 0 01-1.14-.52l-1.3-1.5a1.5 1.5 0 012.25-2l1.32 1.52a1.5 1.5 0 01-1.13 2.48zm-276.47-1.45a1.47 1.47 0 01-1-.37 1.49 1.49 0 01-.14-2.12c.44-.51.89-1 1.34-1.51a1.5 1.5 0 012.23 2l-1.32 1.48a1.47 1.47 0 01-1.11.49zm272.49-3a1.52 1.52 0 01-1.11-.49c-.44-.49-.89-1-1.34-1.45a1.5 1.5 0 112.19-2.05l1.36 1.47a1.5 1.5 0 01-.09 2.12 1.47 1.47 0 01-1.01.35zm-268.47-1.42a1.49 1.49 0 01-1.09-2.52c.45-.49.91-1 1.38-1.46a1.5 1.5 0 012.17 2.07l-1.37 1.44a1.49 1.49 0 01-1.09.42zm264.35-2.93a1.48 1.48 0 01-1.07-.45l-1.39-1.41a1.49 1.49 0 010-2.12 1.51 1.51 0 012.12 0l1.41 1.43a1.5 1.5 0 010 2.12 1.48 1.48 0 01-1.07.38zM224.59 226a1.53 1.53 0 01-1.06-.44 1.51 1.51 0 010-2.12L225 222a1.5 1.5 0 112.1 2.15c-.47.46-.94.92-1.4 1.39a1.53 1.53 0 01-1.11.46zm255.93-2.84a1.51 1.51 0 01-1-.41l-1.44-1.37a1.49 1.49 0 01-.07-2.12 1.51 1.51 0 012.12-.07c.49.46 1 .92 1.46 1.39a1.5 1.5 0 01-1 2.58zm-251.62-1.35a1.5 1.5 0 01-1-2.6l1.48-1.37a1.5 1.5 0 012 2.22l-1.45 1.34a1.51 1.51 0 01-1.03.41zm247.23-2.75a1.47 1.47 0 01-1-.38l-1.48-1.31a1.5 1.5 0 012-2.26c.51.44 1 .89 1.51 1.34a1.49 1.49 0 01.12 2.11 1.51 1.51 0 01-1.15.5zm-242.8-1.27a1.5 1.5 0 01-1-2.63l1.52-1.32a1.5 1.5 0 111.95 2.27l-1.49 1.3a1.52 1.52 0 01-.98.38zm238.27-2.65a1.51 1.51 0 01-1-.35c-.5-.43-1-.85-1.52-1.27a1.5 1.5 0 011.9-2.32l1.55 1.29a1.48 1.48 0 01.18 2.11 1.47 1.47 0 01-1.11.54zm-233.71-1.23a1.5 1.5 0 01-.95-2.66c.52-.42 1-.85 1.56-1.26a1.5 1.5 0 111.88 2.33l-1.54 1.25a1.48 1.48 0 01-.95.34zM467 211.36a1.45 1.45 0 01-1-.36l-1.57-1.22a1.5 1.5 0 011.83-2.37l1.59 1.23a1.5 1.5 0 01-.93 2.68zm-224.38-1.17a1.5 1.5 0 01-.91-2.69l1.6-1.22a1.5 1.5 0 111.8 2.4l-1.57 1.2a1.52 1.52 0 01-.97.31zm219.61-2.45a1.55 1.55 0 01-.89-.29c-.53-.4-1.06-.78-1.6-1.17a1.5 1.5 0 111.75-2.44l1.63 1.19a1.5 1.5 0 01-.89 2.71zm-214.81-1.12a1.5 1.5 0 01-.87-2.72l1.64-1.16a1.5 1.5 0 111.72 2.46l-1.61 1.14a1.51 1.51 0 01-.93.28zm209.92-2.35a1.57 1.57 0 01-.85-.26c-.54-.38-1.09-.75-1.64-1.11a1.5 1.5 0 011.67-2.5l1.67 1.13a1.5 1.5 0 01-.85 2.74zm-205-1.06a1.5 1.5 0 01-.84-2.74l1.68-1.11a1.5 1.5 0 011.64 2.51l-1.7 1.13a1.52 1.52 0 01-.83.21zm200-2.25a1.49 1.49 0 01-.81-.23c-.55-.36-1.11-.71-1.68-1.06a1.5 1.5 0 011.59-2.55l1.71 1.08a1.5 1.5 0 01-.81 2.76zm-195-1a1.51 1.51 0 01-1.28-.71 1.49 1.49 0 01.48-2.06l1.71-1.06a1.5 1.5 0 011.56 2.57l-1.68 1a1.45 1.45 0 01-.82.3zm189.87-2.15a1.5 1.5 0 01-.76-.21l-1.72-1a1.5 1.5 0 011.5-2.6l1.74 1a1.5 1.5 0 01-.76 2.79zm-184.75-.93a1.5 1.5 0 01-.76-2.8l1.75-1a1.5 1.5 0 111.47 2.61l-1.71 1a1.48 1.48 0 01-.78.2zm179.54-2a1.44 1.44 0 01-.72-.19l-1.75-.94a1.5 1.5 0 011.42-2.65l1.77 1a1.5 1.5 0 01-.72 2.82zM267.64 194a1.5 1.5 0 01-.71-2.82l1.78-.94a1.5 1.5 0 011.38 2.66l-1.74.92a1.39 1.39 0 01-.71.18zm169-1.93a1.52 1.52 0 01-.68-.17l-1.77-.88a1.5 1.5 0 011.33-2.69q.9.44 1.8.9a1.5 1.5 0 01-.68 2.84zM273 191.25a1.5 1.5 0 01-.67-2.85l1.81-.88a1.5 1.5 0 011.3 2.71l-1.78.86a1.43 1.43 0 01-.66.16zm158.31-1.83a1.6 1.6 0 01-.63-.14l-1.8-.83a1.5 1.5 0 111.23-2.73c.62.27 1.23.56 1.84.84a1.5 1.5 0 01-.64 2.86zm-152.92-.73a1.5 1.5 0 01-.62-2.87l1.83-.82a1.5 1.5 0 111.21 2.75l-1.8.8a1.37 1.37 0 01-.67.14zM425.78 187a1.59 1.59 0 01-.59-.12l-1.83-.77a1.5 1.5 0 111.15-2.77l1.86.78a1.5 1.5 0 01-.59 2.88zm-142-.66a1.5 1.5 0 01-.57-2.89l1.85-.76a1.5 1.5 0 011.12 2.79l-1.82.74a1.51 1.51 0 01-.55.09zm136.41-1.6a1.45 1.45 0 01-.54-.11l-1.86-.7a1.5 1.5 0 111.05-2.81q.94.34 1.89.72a1.5 1.5 0 01-.54 2.9zm-130.85-.6a1.51 1.51 0 01-.53-2.91l1.89-.7a1.5 1.5 0 011 2.82l-1.86.69a1.61 1.61 0 01-.47.07zm125.21-1.49a1.4 1.4 0 01-.49-.08l-1.88-.65a1.5 1.5 0 011-2.84l1.91.66a1.5 1.5 0 01-.5 2.91zM295 182.08a1.5 1.5 0 01-.49-2.92l1.91-.64a1.5 1.5 0 11.94 2.85l-1.88.63a1.34 1.34 0 01-.48.08zm113.87-1.35a1.41 1.41 0 01-.45-.07l-1.9-.58a1.5 1.5 0 11.86-2.88l1.93.6a1.5 1.5 0 01-.44 2.93zm-108.17-.48a1.5 1.5 0 01-.44-2.94l1.93-.57a1.49 1.49 0 011.86 1 1.5 1.5 0 01-1 1.86l-1.9.56a1.29 1.29 0 01-.44.09zM403.13 179a1.45 1.45 0 01-.41-.06l-1.91-.52a1.5 1.5 0 11.77-2.89l1.95.52a1.5 1.5 0 01-.4 2.95zm-96.67-.43a1.5 1.5 0 01-.38-2.95l1.94-.51a1.5 1.5 0 11.75 2.91l-1.92.5a1.74 1.74 0 01-.39.08zm90.87-1.08a1.39 1.39 0 01-.35 0l-1.93-.46a1.5 1.5 0 01.68-2.92l1.95.46a1.5 1.5 0 01-.35 3zm-85.06-.38a1.49 1.49 0 01-1.46-1.16 1.51 1.51 0 011.12-1.8l2-.44a1.5 1.5 0 01.65 2.92l-1.93.44a1.39 1.39 0 01-.38.07zm79.22-.94a1.63 1.63 0 01-.31 0l-1.94-.39a1.5 1.5 0 01.58-2.94l2 .4a1.49 1.49 0 01-.3 3zm-73.37-.32a1.5 1.5 0 01-.28-3l2-.38a1.49 1.49 0 011.75 1.19 1.51 1.51 0 01-1.2 1.76l-1.94.37a1.53 1.53 0 01-.33.09zm67.49-.8h-.26l-2-.33a1.5 1.5 0 01.48-3l2 .33a1.51 1.51 0 011.22 1.74 1.49 1.49 0 01-1.44 1.29zm-61.61-.24a1.5 1.5 0 01-.24-3l2-.32a1.5 1.5 0 01.46 3l-2 .31zm55.67-.66h-.21c-.65-.1-1.31-.18-2-.27a1.5 1.5 0 01.39-3c.66.08 1.33.17 2 .27a1.5 1.5 0 01-.21 3zm-49.75-.22a1.49 1.49 0 01-1.48-1.3 1.51 1.51 0 011.29-1.69l2-.25a1.5 1.5 0 01.36 3l-2 .25zm43.81-.52h-.16l-2-.2a1.5 1.5 0 11.29-3l2 .2a1.5 1.5 0 01-.16 3zm-37.86-.16a1.5 1.5 0 01-.15-3l2-.19a1.5 1.5 0 01.26 3l-2 .18zm31.9-.38h-.12l-2-.14a1.49 1.49 0 01-1.4-1.59 1.47 1.47 0 011.59-1.4l2 .14a1.5 1.5 0 01-.11 3zm-25.93-.11a1.5 1.5 0 01-.1-3l2-.12a1.5 1.5 0 11.16 3c-.66 0-1.31.07-2 .12zm19.95-.23h-.07l-2-.07a1.5 1.5 0 11.09-3l2 .08a1.5 1.5 0 01-.06 3zm-14 .79c-.8 0-1.47-1.07-1.5-1.88a1.71 1.71 0 011.45-1.76c.67 0 1.34-.15 2-.16a1.44 1.44 0 011.53 1.41c0 .83-.64 1.92-1.46 1.94-.66 0-1.32.45-2 .45zm8-1h-2a1.5 1.5 0 010-3h2.04a1.49 1.49 0 110 3zM356.4 596.32c-.83 0-1.5-1.13-1.5-2a1.73 1.73 0 011.48-1.77c.66 0 1.32-.28 2-.28a1.52 1.52 0 011.5 1.49c0 .83-.65 2-1.48 2-.66 0-1.33-.5-2 .5zm-14.94-1.25h-.08l-2-.11a1.5 1.5 0 11.17-3l2 .11a1.5 1.5 0 01-.07 3zm31.85-.44a1.5 1.5 0 01-.11-3l2-.17a1.51 1.51 0 011.62 1.36 1.49 1.49 0 01-1.36 1.63l-2 .17zm-48.72-1h-.19l-2-.25a1.5 1.5 0 01.39-3l2 .25a1.5 1.5 0 01-.17 3zm65.55-.91a1.5 1.5 0 01-.23-3l2-.3a1.5 1.5 0 11.47 3l-2 .31zM307.86 591a1.42 1.42 0 01-.29 0l-2-.4a1.5 1.5 0 01.6-2.94c.65.14 1.29.27 1.94.39a1.5 1.5 0 01-.28 3zm98.92-1.38a1.5 1.5 0 01-.32-3l1.93-.44a1.5 1.5 0 01.68 2.92c-.65.16-1.31.3-2 .45a1.86 1.86 0 01-.29.03zm-115.42-2.44a1.74 1.74 0 01-.39 0l-1.94-.53a1.51 1.51 0 01.81-2.9l1.91.53a1.5 1.5 0 01-.39 2.95zm131.81-1.85a1.5 1.5 0 01-.43-2.94l1.89-.58a1.5 1.5 0 11.89 2.87l-1.92.58a1.61 1.61 0 01-.43.03zm-148-3.14a1.67 1.67 0 01-.49-.08l-1.9-.67a1.5 1.5 0 111-2.83l1.87.66a1.5 1.5 0 01-.49 2.92zm164-2.31a1.5 1.5 0 01-.53-2.9l1.85-.71a1.5 1.5 0 111.09 2.79l-1.87.72a1.47 1.47 0 01-.51.06zM259.35 576a1.52 1.52 0 01-.59-.12l-1.85-.8a1.5 1.5 0 011.21-2.75l1.83.79a1.5 1.5 0 01-.6 2.88zm195.44-2.73a1.52 1.52 0 01-1.36-.87 1.5 1.5 0 01.73-2l1.79-.84a1.5 1.5 0 111.28 2.71l-1.81.85a1.52 1.52 0 01-.63.16zM244 568.77a1.52 1.52 0 01-.68-.17l-1.79-.93a1.5 1.5 0 011.4-2.65l1.76.91a1.5 1.5 0 01-.69 2.84zm225.87-3.14a1.5 1.5 0 01-.73-2.82c.58-.31 1.15-.63 1.73-1a1.5 1.5 0 011.47 2.62l-1.75 1a1.46 1.46 0 01-.71.2zm-240.65-5.17a1.51 1.51 0 01-.78-.22l-1.71-1.06a1.5 1.5 0 111.59-2.54l1.69 1a1.5 1.5 0 01.5 2.06 1.52 1.52 0 01-1.28.76zm255.16-3.53a1.5 1.5 0 01-.82-2.76l1.66-1.08a1.5 1.5 0 111.65 2.5l-1.67 1.1a1.56 1.56 0 01-.81.24zm-269.31-5.8a1.5 1.5 0 01-.87-.28l-1.63-1.17a1.5 1.5 0 111.76-2.43l1.67 1.15a1.51 1.51 0 01.36 2.1 1.52 1.52 0 01-1.28.63zm283.18-3.9a1.52 1.52 0 01-1.2-.6 1.5 1.5 0 01.3-2.1c.53-.39 1.05-.79 1.57-1.19a1.5 1.5 0 111.83 2.38l-1.6 1.21a1.5 1.5 0 01-.89.3zm-296.64-6.4a1.5 1.5 0 01-1-.34l-1.54-1.29a1.5 1.5 0 011.92-2.3l1.53 1.27a1.5 1.5 0 01-1 2.66zm309.8-4.25a1.5 1.5 0 01-1-2.63l1.49-1.31a1.5 1.5 0 012 2.25l-1.51 1.32a1.46 1.46 0 01-.97.37zm-322.49-7a1.51 1.51 0 01-1-.41l-1.45-1.39a1.49 1.49 0 010-2.12 1.51 1.51 0 012.12 0L190 527a1.5 1.5 0 01-1 2.59zM523.8 525a1.5 1.5 0 01-1.06-2.56c.47-.46.93-.93 1.39-1.4a1.5 1.5 0 112.14 2.1c-.46.48-.93 1-1.41 1.42a1.45 1.45 0 01-1.06.44zm-346.75-7.48a1.53 1.53 0 01-1.11-.49l-1.34-1.48a1.5 1.5 0 112.22-2c.45.49.89 1 1.34 1.46a1.51 1.51 0 01-1.11 2.52zm358.3-4.91a1.51 1.51 0 01-1.14-2.49c.44-.49.87-1 1.3-1.5a1.5 1.5 0 012.28 1.95c-.44.51-.87 1-1.31 1.52a1.5 1.5 0 01-1.13.54zm-369.3-8a1.46 1.46 0 01-1.17-.57c-.42-.52-.83-1-1.24-1.57a1.5 1.5 0 012.36-1.85l1.23 1.56a1.5 1.5 0 01-1.18 2.43zm380-5.21a1.5 1.5 0 01-1.2-2.4l1.18-1.59a1.5 1.5 0 112.42 1.78l-1.2 1.61a1.52 1.52 0 01-1.25.65zm-390-8.4a1.51 1.51 0 01-1.24-.65c-.38-.55-.75-1.1-1.12-1.66a1.49 1.49 0 01.4-2.08 1.51 1.51 0 012.08.4c.37.55.74 1.1 1.12 1.64a1.52 1.52 0 01-.39 2.09 1.57 1.57 0 01-.9.31zm399.71-5.5a1.53 1.53 0 01-.82-.24 1.5 1.5 0 01-.44-2.07c.36-.56.71-1.12 1.07-1.67a1.5 1.5 0 112.53 1.6l-1.08 1.7a1.51 1.51 0 01-1.32.73zm-408.79-8.78a1.51 1.51 0 01-1.3-.74l-1-1.73a1.5 1.5 0 012.6-1.5l1 1.71a1.5 1.5 0 01-1.29 2.26zM564.39 471a1.46 1.46 0 01-.72-.19 1.51 1.51 0 01-.59-2c.32-.57.64-1.16.95-1.74a1.5 1.5 0 112.64 1.43l-1 1.76a1.5 1.5 0 01-1.28.74zm-425.53-9.11a1.5 1.5 0 01-1.34-.83c-.3-.6-.59-1.2-.88-1.8a1.49 1.49 0 01.69-2 1.51 1.51 0 012 .69c.28.59.57 1.18.86 1.77a1.49 1.49 0 01-.67 2 1.47 1.47 0 01-.66.17zm433.18-6a1.44 1.44 0 01-.63-.14 1.5 1.5 0 01-.73-2c.28-.6.56-1.2.83-1.8a1.5 1.5 0 012.73 1.23c-.27.61-.55 1.22-.83 1.83a1.51 1.51 0 01-1.41.85zm-440.15-9.37a1.5 1.5 0 01-1.39-.93l-.75-1.86a1.5 1.5 0 112.78-1.12l.75 1.84a1.5 1.5 0 01-.82 1.95 1.46 1.46 0 01-.57.09zm446.71-6.27a1.66 1.66 0 01-.53-.1 1.5 1.5 0 01-.87-1.94c.23-.61.47-1.24.69-1.86a1.52 1.52 0 011.93-.89 1.5 1.5 0 01.89 1.93c-.23.63-.47 1.26-.71 1.89a1.49 1.49 0 01-1.4.94zM126 430.6a1.51 1.51 0 01-1.43-1l-.62-1.91a1.5 1.5 0 012.86-.91c.2.62.4 1.25.61 1.88a1.5 1.5 0 01-1 1.89 1.33 1.33 0 01-.42.05zm458-6.44a1.67 1.67 0 01-.44-.06 1.5 1.5 0 01-1-1.87c.19-.63.37-1.26.56-1.9a1.5 1.5 0 012.88.84l-.57 1.92a1.49 1.49 0 01-1.43 1.07zm-462.74-9.82a1.5 1.5 0 01-1.45-1.14c-.17-.64-.33-1.29-.49-1.94a1.5 1.5 0 112.92-.71c.15.64.31 1.28.47 1.92a1.49 1.49 0 01-1.08 1.82 1.64 1.64 0 01-.34.05zm467-6.57h-.33a1.51 1.51 0 01-1.13-1.79l.42-1.94a1.5 1.5 0 112.93.63c-.14.65-.28 1.31-.43 2a1.49 1.49 0 01-1.43 1.1zm-470.57-10a1.5 1.5 0 01-1.47-1.24c-.12-.66-.23-1.31-.34-2a1.5 1.5 0 013-.51c.11.66.23 1.31.34 2a1.5 1.5 0 01-1.21 1.74zm473.66-6.66h-.22a1.51 1.51 0 01-1.26-1.71c.1-.65.19-1.31.28-2a1.53 1.53 0 011.7-1.28 1.5 1.5 0 011.27 1.7c-.09.66-.19 1.32-.28 2a1.5 1.5 0 01-1.46 1.3zM115.34 381a1.49 1.49 0 01-1.48-1.34c-.08-.66-.14-1.33-.21-2a1.5 1.5 0 013-.29c.06.66.13 1.32.2 2a1.49 1.49 0 01-1.33 1.65zm477.95-6.72h-.12a1.49 1.49 0 01-1.37-1.61c.05-.66.1-1.32.14-2a1.51 1.51 0 011.6-1.39 1.49 1.49 0 011.39 1.6c0 .67-.09 1.34-.14 2a1.5 1.5 0 01-1.5 1.41zm-479.14-10a1.6 1.6 0 01-1.5-1.55c0-.66 0-1.28-.06-1.95a1.44 1.44 0 011.45-1.5 1.43 1.43 0 011.5 1.36c0 .66 0 1.38.06 2a1.53 1.53 0 01-1.45 1.6zm479.87-7c-.83 0-1.26-.65-1.25-1.48 0-.66.25-1.3.25-2v-.53a1.5 1.5 0 013 0v.52c0 .68-.25 1.32-.25 2a1.71 1.71 0 01-1.77 1.53zm-479.89-10a1.54 1.54 0 01-1.45-1.62c0-.66.05-1.37.08-2a1.52 1.52 0 011.56-1.46 1.5 1.5 0 011.44 1.55c0 .66-.06 1.39-.08 2.05a1.55 1.55 0 01-1.55 1.52zm479.4-7.41a1.5 1.5 0 01-1.53-1.37c0-.66-.09-1.31-.14-2a1.5 1.5 0 011.39-1.61 1.52 1.52 0 011.61 1.39c0 .67.09 1.34.13 2a1.51 1.51 0 01-1.4 1.6zm-478.24-9.62h-.15a1.49 1.49 0 01-1.34-1.64l.21-2a1.5 1.5 0 013 .34l-.21 2a1.5 1.5 0 01-1.51 1.34zm476.58-7.23a1.51 1.51 0 01-1.49-1.3l-.27-2a1.5 1.5 0 013-.42c.09.66.19 1.32.27 2a1.48 1.48 0 01-1.28 1.68zm-474.24-9.54h-.26a1.5 1.5 0 01-1.21-1.74c.11-.66.23-1.32.35-2a1.5 1.5 0 112.95.54c-.12.65-.24 1.3-.35 1.95a1.5 1.5 0 01-1.48 1.29zM589 306.36a1.49 1.49 0 01-1.46-1.19c-.14-.65-.27-1.3-.41-1.94a1.5 1.5 0 012.93-.64c.14.66.28 1.31.41 2a1.49 1.49 0 01-1.16 1.77 1.55 1.55 0 01-.31 0zM121.16 297a1.55 1.55 0 01-.37 0 1.51 1.51 0 01-1.09-1.82c.16-.65.33-1.3.5-1.95a1.5 1.5 0 112.9.76c-.17.64-.33 1.28-.49 1.92a1.49 1.49 0 01-1.45 1.09zm463.83-7a1.51 1.51 0 01-1.45-1.09c-.17-.64-.36-1.27-.54-1.9a1.5 1.5 0 012.88-.84c.19.64.37 1.28.55 1.92a1.51 1.51 0 01-1 1.86 2 2 0 01-.43-.04zm-459.14-9.23a1.29 1.29 0 01-.47-.08 1.49 1.49 0 01-1-1.89c.21-.64.42-1.27.64-1.91a1.5 1.5 0 112.84 1l-.63 1.89a1.49 1.49 0 01-1.38.9zm453.95-6.89a1.5 1.5 0 01-1.41-1c-.22-.62-.45-1.24-.68-1.86a1.5 1.5 0 012.81-1.05l.69 1.89a1.5 1.5 0 01-.9 1.92 1.52 1.52 0 01-.51.01zm-448.1-9a1.65 1.65 0 01-.57-.11 1.5 1.5 0 01-.82-2c.25-.62.51-1.24.77-1.86a1.5 1.5 0 112.76 1.16l-.75 1.83a1.5 1.5 0 01-1.39.85zm441.79-6.65a1.5 1.5 0 01-1.37-.89c-.27-.6-.53-1.2-.81-1.8a1.5 1.5 0 112.73-1.24c.28.6.55 1.21.82 1.82a1.49 1.49 0 01-.76 2 1.46 1.46 0 01-.61-.02zm-434.83-8.82a1.55 1.55 0 01-.66-.15 1.51 1.51 0 01-.69-2l.9-1.8a1.5 1.5 0 112.68 1.35l-.89 1.77a1.5 1.5 0 01-1.34.7zm427.43-6.38a1.5 1.5 0 01-1.33-.8c-.3-.58-.62-1.16-.93-1.74a1.5 1.5 0 012.64-1.43l.94 1.76a1.5 1.5 0 01-.62 2 1.46 1.46 0 01-.7.08zm-419.39-8.68a1.51 1.51 0 01-1.3-2.26l1-1.73a1.5 1.5 0 112.6 1.54l-1 1.71a1.51 1.51 0 01-1.3.74zm410.93-6.1a1.51 1.51 0 01-1.28-.71l-1.05-1.67a1.5 1.5 0 112.53-1.61l1.07 1.74a1.51 1.51 0 01-.48 2.07 1.54 1.54 0 01-.79.18zM155.77 220a1.57 1.57 0 01-.85-.26 1.52 1.52 0 01-.39-2.09l1.14-1.65a1.5 1.5 0 012.47 1.71c-.38.55-.76 1.09-1.13 1.64a1.51 1.51 0 01-1.24.65zm392.38-5.81a1.49 1.49 0 01-1.21-.61l-1.17-1.6a1.5 1.5 0 112.41-1.78l1.18 1.61a1.5 1.5 0 01-.33 2.1 1.49 1.49 0 01-.88.31zm-382.32-7.83a1.5 1.5 0 01-1.18-2.43c.42-.53.83-1.05 1.26-1.57a1.5 1.5 0 112.33 1.88l-1.24 1.58a1.49 1.49 0 01-1.17.57zm371.88-5.49a1.48 1.48 0 01-1.15-.54l-1.28-1.51a1.5 1.5 0 012.28-1.95l1.3 1.53a1.51 1.51 0 01-1.15 2.47zm-360.9-7.41a1.47 1.47 0 01-1-.4 1.49 1.49 0 01-.09-2.11c.45-.5.9-1 1.36-1.48a1.5 1.5 0 112.19 2l-1.35 1.53a1.52 1.52 0 01-1.11.49zm349.54-5.16a1.48 1.48 0 01-1.07-.45c-.46-.48-.92-.95-1.39-1.42a1.5 1.5 0 112.14-2.1c.47.47.93.95 1.4 1.43a1.49 1.49 0 01-1.08 2.54zm-337.68-6.94a1.48 1.48 0 01-1.08-.46 1.49 1.49 0 010-2.12l1.46-1.38a1.5 1.5 0 112.05 2.19c-.49.45-1 .91-1.44 1.36a1.49 1.49 0 01-.99.44zm325.47-4.8a1.49 1.49 0 01-1-.38l-1.48-1.32a1.5 1.5 0 012-2.25l1.5 1.34a1.51 1.51 0 01.11 2.12 1.54 1.54 0 01-1.13.52zm-312.79-6.43a1.5 1.5 0 01-1-2.65l1.55-1.27a1.5 1.5 0 012.11.22 1.49 1.49 0 01-.22 2.11l-1.53 1.25a1.48 1.48 0 01-.91.37zm299.79-4.43a1.5 1.5 0 01-.92-.31l-1.57-1.21a1.5 1.5 0 011.82-2.39l1.59 1.23a1.5 1.5 0 01-.92 2.68zm-286.36-5.87a1.51 1.51 0 01-.87-2.73l1.63-1.15a1.5 1.5 0 111.72 2.45c-.54.38-1.08.76-1.61 1.15a1.5 1.5 0 01-.87.31zm272.62-4.05a1.52 1.52 0 01-.84-.25l-1.65-1.1a1.5 1.5 0 111.65-2.5c.56.36 1.12.73 1.67 1.11a1.5 1.5 0 01-.83 2.74zm-258.51-5.29a1.5 1.5 0 01-.78-2.78l1.71-1a1.5 1.5 0 111.54 2.57l-1.69 1a1.46 1.46 0 01-.78.24zM473 146.88a1.46 1.46 0 01-.75-.2l-1.72-1a1.5 1.5 0 011.46-2.62l1.75 1a1.5 1.5 0 01-.74 2.8zm-229.38-4.68a1.5 1.5 0 01-.69-2.83l1.78-.91a1.5 1.5 0 111.36 2.67l-1.76.9a1.41 1.41 0 01-.69.17zM458 139a1.51 1.51 0 01-.65-.15l-1.8-.85a1.5 1.5 0 011.28-2.71l1.82.86A1.5 1.5 0 01458 139zm-199.1-4a1.5 1.5 0 01-.6-2.88l1.84-.78a1.5 1.5 0 111.17 2.76l-1.82.77a1.37 1.37 0 01-.59.13zm183.54-2.77a1.52 1.52 0 01-.55-.1l-1.85-.73a1.5 1.5 0 011.08-2.8l1.87.74a1.5 1.5 0 01-.55 2.89zm-167.8-3.38a1.5 1.5 0 01-.49-2.92l1.89-.65a1.5 1.5 0 111 2.84l-1.87.64a1.47 1.47 0 01-.53.04zm151.82-2.31a1.47 1.47 0 01-.46-.07l-1.9-.59a1.5 1.5 0 01.9-2.88l1.93.6a1.5 1.5 0 01-.45 2.93zm-135.64-2.72a1.5 1.5 0 01-.4-3l1.94-.51a1.49 1.49 0 011.83 1.06 1.51 1.51 0 01-1.07 1.84c-.64.16-1.27.34-1.91.51a1.74 1.74 0 01-.39.05zM410.13 122a1.34 1.34 0 01-.35 0l-1.93-.45a1.5 1.5 0 11.67-2.93l2 .46a1.5 1.5 0 01-.34 3zm-102.83-2a1.5 1.5 0 01-.28-3l2-.37a1.5 1.5 0 11.55 2.94l-1.94.38a1.53 1.53 0 01-.33-.04zm86.23-1.31a1.06 1.06 0 01-.25 0l-1.95-.31a1.5 1.5 0 01.46-3l2 .32a1.5 1.5 0 01-.24 3zM324 117.22a1.5 1.5 0 01-.18-3l2-.24a1.5 1.5 0 11.35 3l-2 .24zm52.71-.79h-.14l-2-.18a1.5 1.5 0 01.25-3l2 .18a1.5 1.5 0 01-.14 3zm-35.84-.71a1.5 1.5 0 01-.08-3l2-.1a1.46 1.46 0 011.56 1.43 1.5 1.5 0 01-1.43 1.57l-2 .1zm18.94.6c-.66 0-1.32-.47-2-.48a1.71 1.71 0 01-1.48-1.75 1.63 1.63 0 011.53-1.58h2c.83 0 1.48 1.12 1.47 2s-.69 1.81-1.5 1.81zM360.69 708.32a1.74 1.74 0 01-1.5-1.72 1.39 1.39 0 011.47-1.38c.67 0 1.33.1 2 .1.81 0 1.48.38 1.5 1.2a1.61 1.61 0 01-1.46 1.65c-.67 0-1.34.15-2 .15zm-15 0l-2-.31a1.63 1.63 0 01-1.45-1.68 1.56 1.56 0 011.54-1.52h2a1.77 1.77 0 010 3.49zm32-1.21a1.5 1.5 0 01-.1-3l2-.14a1.52 1.52 0 011.6 1.39 1.5 1.5 0 01-1.39 1.61l-2 .13zm-49.04-.11h-.11l-2-.15a1.5 1.5 0 01-1.39-1.61 1.52 1.52 0 011.61-1.38l2 .15a1.5 1.5 0 01-.1 3zm66-1.42a1.5 1.5 0 01-.16-3l2-.23a1.5 1.5 0 11.36 3l-2 .23zm-83-.19h-.18l-2-.25a1.5 1.5 0 11.37-3l2 .24a1.5 1.5 0 01-.17 3zm99.83-2.16a1.5 1.5 0 01-.24-3l2-.33a1.5 1.5 0 01.5 3l-2 .33a1.06 1.06 0 01-.21-.01zM294.84 703h-.25l-2-.35a1.5 1.5 0 11.52-3l2 .34a1.5 1.5 0 01-.25 3zm133.43-2.89a1.51 1.51 0 01-1.47-1.19 1.5 1.5 0 011.16-1.78l2-.42a1.48 1.48 0 011.78 1.14 1.5 1.5 0 01-1.14 1.79l-2 .42a1.1 1.1 0 01-.33-.01zm-150.15-.36a1.66 1.66 0 01-.32 0l-2-.44a1.5 1.5 0 01.66-2.93l1.95.44a1.5 1.5 0 01-.32 3zm166.71-3.62a1.5 1.5 0 01-.38-3l1.92-.52a1.5 1.5 0 01.79 2.9l-1.94.52a1.31 1.31 0 01-.39.05zm-183.25-.43a1.83 1.83 0 01-.4 0l-1.94-.54a1.5 1.5 0 01.8-2.89l1.93.53a1.5 1.5 0 01-.39 2.95zm199.6-4.34a1.5 1.5 0 01-.46-2.93l1.9-.61a1.5 1.5 0 01.93 2.85l-1.91.61a1.48 1.48 0 01-.46.03zm-215.93-.52a1.47 1.47 0 01-.46-.07l-1.92-.63a1.5 1.5 0 01.93-2.85l1.91.63a1.49 1.49 0 01-.46 2.92zm232-5a1.5 1.5 0 01-.53-2.91l1.87-.7a1.5 1.5 0 111.07 2.8l-1.89.71a1.37 1.37 0 01-.49 0zm-248.15-.61a1.69 1.69 0 01-.53-.09l-1.89-.72a1.5 1.5 0 111.08-2.8l1.87.71a1.5 1.5 0 01-.53 2.9zm263.92-5.72a1.5 1.5 0 01-.59-2.88l1.82-.79a1.5 1.5 0 011.2 2.75l-1.84.8a1.52 1.52 0 01-.56.02zm-279.73-.71a1.41 1.41 0 01-.6-.13l-1.85-.81a1.5 1.5 0 011.22-2.74l1.83.8a1.5 1.5 0 01-.6 2.88zm295.17-6.37a1.5 1.5 0 01-.66-2.85l1.79-.88a1.5 1.5 0 011.33 2.69l-1.8.89a1.55 1.55 0 01-.63.05zm-310.65-.83a1.43 1.43 0 01-.66-.16c-.61-.29-1.21-.59-1.81-.9a1.5 1.5 0 111.35-2.68l1.79.9a1.5 1.5 0 01-.67 2.84zm325.74-7a1.49 1.49 0 01-.72-2.81l1.74-1a1.49 1.49 0 012 .58 1.51 1.51 0 01-.58 2l-1.76 1a1.57 1.57 0 01-.65.13zm-340.84-.94a1.47 1.47 0 01-.73-.19l-1.76-1a1.5 1.5 0 011.48-2.62l1.74 1a1.5 1.5 0 01-.73 2.81zM538.28 656a1.49 1.49 0 01-.78-2.77l1.69-1a1.5 1.5 0 011.58 2.55l-1.71 1.05a1.46 1.46 0 01-.78.17zm-370.24-1a1.54 1.54 0 01-.79-.23l-1.71-1.07a1.5 1.5 0 011.6-2.54l1.7 1.06a1.51 1.51 0 01.48 2.07 1.53 1.53 0 01-1.32.62zm384.51-8.21a1.5 1.5 0 01-.84-2.73l1.64-1.13a1.5 1.5 0 111.7 2.47l-1.65 1.13a1.47 1.47 0 01-.85.17zm-398.76-1.15a1.48 1.48 0 01-.85-.27l-1.66-1.15a1.49 1.49 0 01-.37-2.08 1.51 1.51 0 012.09-.38l1.64 1.15a1.5 1.5 0 01-.85 2.73zm412.58-8.78a1.5 1.5 0 01-.91-2.69c.54-.4 1.06-.81 1.59-1.21a1.5 1.5 0 011.82 2.38l-1.6 1.22a1.5 1.5 0 01-.9.21zM140 635.52a1.47 1.47 0 01-.91-.31L137.5 634a1.49 1.49 0 01-.27-2.1 1.52 1.52 0 012.11-.27l1.57 1.22a1.5 1.5 0 01-.91 2.69zm439.7-9.33a1.54 1.54 0 01-1.16-.54 1.51 1.51 0 01.2-2.12l1.52-1.28a1.5 1.5 0 111.94 2.3l-1.54 1.29a1.51 1.51 0 01-.96.35zm-453-1.35a1.51 1.51 0 01-1-.35l-1.53-1.3a1.5 1.5 0 112-2.28l1.52 1.29a1.5 1.5 0 01-1 2.64zM592.5 615a1.48 1.48 0 01-1.1-.49 1.5 1.5 0 01.09-2.12L593 611a1.5 1.5 0 012 2.2l-1.48 1.36a1.48 1.48 0 01-1.02.44zM114 613.54a1.5 1.5 0 01-1-.4l-1.47-1.37a1.5 1.5 0 012.06-2.19c.48.46 1 .91 1.46 1.36a1.5 1.5 0 01.07 2.12 1.47 1.47 0 01-1.12.48zm490.79-10.39a1.51 1.51 0 01-1.06-2.56l1.39-1.42a1.5 1.5 0 112.15 2.09l-1.41 1.44a1.48 1.48 0 01-1.1.45zm-503-1.51a1.48 1.48 0 01-1.07-.45l-1.4-1.44a1.5 1.5 0 012.16-2.08l1.39 1.43a1.49 1.49 0 01-1.08 2.54zm514.66-10.9a1.49 1.49 0 01-1.11-2.5l1.32-1.49a1.5 1.5 0 012.25 2l-1.34 1.51a1.5 1.5 0 01-1.13.48zm-526.27-1.56a1.51 1.51 0 01-1.12-.5c-.44-.51-.89-1-1.33-1.51a1.5 1.5 0 112.26-2c.43.5.87 1 1.31 1.49a1.5 1.5 0 01-.12 2.12 1.47 1.47 0 01-1 .4zm537.33-11.39a1.52 1.52 0 01-.94-.33 1.5 1.5 0 01-.22-2.11l1.26-1.55a1.5 1.5 0 112.33 1.88l-1.26 1.56a1.49 1.49 0 01-1.17.55zM79.2 576.18a1.51 1.51 0 01-1.17-.56l-1.26-1.57a1.5 1.5 0 112.35-1.87l1.24 1.56a1.48 1.48 0 01-.23 2.1 1.43 1.43 0 01-.93.34zM638 564.32a1.49 1.49 0 01-1.2-2.39l1.18-1.61a1.5 1.5 0 112.42 1.77l-1.19 1.62a1.49 1.49 0 01-1.21.61zm-569.1-1.66a1.48 1.48 0 01-1.21-.62l-1.18-1.62a1.5 1.5 0 112.43-1.76l1.17 1.62a1.49 1.49 0 01-.33 2.09 1.43 1.43 0 01-.93.29zm578.88-12.3a1.52 1.52 0 01-.83-.25 1.5 1.5 0 01-.41-2.08l1.1-1.67a1.5 1.5 0 112.46 1.64l-1.1 1.69a1.48 1.48 0 01-1.27.67zm-588.61-1.69a1.51 1.51 0 01-1.26-.68l-1.09-1.68a1.5 1.5 0 012.52-1.63l1.08 1.67a1.48 1.48 0 01-.43 2.07 1.46 1.46 0 01-.82.25zm597.66-12.73a1.46 1.46 0 01-.77-.22 1.5 1.5 0 01-.52-2.05c.35-.57.69-1.15 1-1.72a1.5 1.5 0 012.58 1.52l-1 1.74a1.5 1.5 0 01-1.29.73zm-606.65-1.71a1.5 1.5 0 01-1.3-.73l-1-1.74a1.5 1.5 0 112.59-1.5l1 1.71a1.51 1.51 0 01-.53 2.06 1.49 1.49 0 01-.76.2zm615-13.14a1.51 1.51 0 01-1.32-2.21l.94-1.77a1.5 1.5 0 112.65 1.4c-.31.59-.62 1.19-.94 1.78a1.5 1.5 0 01-1.29.8zm-623.33-1.7a1.5 1.5 0 01-1.32-.8c-.32-.6-.63-1.19-.93-1.78a1.5 1.5 0 112.66-1.38l.92 1.76a1.48 1.48 0 01-.63 2 1.46 1.46 0 01-.66.2zm631-13.55a1.45 1.45 0 01-.64-.14 1.51 1.51 0 01-.72-2l.85-1.81a1.5 1.5 0 112.72 1.27l-.85 1.82a1.51 1.51 0 01-1.32.86zm-638.51-1.68a1.51 1.51 0 01-1.36-.87l-.84-1.81a1.5 1.5 0 012.73-1.26c.27.6.55 1.21.83 1.81a1.49 1.49 0 01-1.36 2.13zm645.46-13.92a1.46 1.46 0 01-.57-.12 1.5 1.5 0 01-.81-2c.26-.61.51-1.23.76-1.85a1.5 1.5 0 012.78 1.13c-.25.63-.51 1.25-.77 1.87a1.5 1.5 0 01-1.39.97zM27.54 488.6a1.51 1.51 0 01-1.39-.94l-.76-1.86a1.5 1.5 0 012.79-1.12l.75 1.85a1.5 1.5 0 01-.82 2 1.46 1.46 0 01-.57.07zM686 474.31a1.52 1.52 0 01-.51-.09 1.5 1.5 0 01-.91-1.92l.67-1.89a1.5 1.5 0 112.83 1l-.67 1.9a1.51 1.51 0 01-1.41 1zm-664.52-1.63a1.51 1.51 0 01-1.41-1c-.22-.63-.45-1.26-.66-1.9a1.5 1.5 0 012.83-1l.66 1.88a1.51 1.51 0 01-.92 1.92 1.43 1.43 0 01-.5.1zm669.84-14.59a1.29 1.29 0 01-.43-.07 1.49 1.49 0 01-1-1.87l.57-1.91a1.5 1.5 0 012.88.86c-.19.64-.39 1.28-.58 1.93a1.51 1.51 0 01-1.44 1.06zm-675.11-1.61a1.51 1.51 0 01-1.44-1.07l-.57-1.93a1.5 1.5 0 011-1.86 1.49 1.49 0 011.86 1l.57 1.91a1.52 1.52 0 01-1 1.87 1.59 1.59 0 01-.42.08zm679.67-14.8a1.57 1.57 0 01-.37-.05 1.51 1.51 0 01-1.09-1.82c.17-.65.33-1.29.49-1.94a1.5 1.5 0 112.91.72c-.16.65-.32 1.3-.49 2a1.49 1.49 0 01-1.45 1.09zm-684.15-1.63a1.5 1.5 0 01-1.45-1.14l-.48-2a1.5 1.5 0 012.92-.7c.15.65.31 1.29.47 1.94a1.53 1.53 0 01-1.46 1.86zm687.91-15a1.53 1.53 0 01-.3 0 1.5 1.5 0 01-1.18-1.76l.39-2a1.5 1.5 0 013 .57l-.4 2a1.49 1.49 0 01-1.51 1.2zM8.06 423.42a1.51 1.51 0 01-1.47-1.22l-.38-2a1.5 1.5 0 113-.56l.37 2a1.5 1.5 0 01-1.18 1.76zm694.52-15.13h-.23a1.5 1.5 0 01-1.26-1.71c.1-.65.2-1.31.29-2a1.5 1.5 0 113 .43c-.09.66-.19 1.33-.29 2a1.5 1.5 0 01-1.51 1.28zM5.2 406.63a1.51 1.51 0 01-1.49-1.29c-.09-.66-.19-1.33-.28-2a1.5 1.5 0 113-.41c.09.65.19 1.31.28 2a1.5 1.5 0 01-1.27 1.7zm699.5-15.24h-.15a1.49 1.49 0 01-1.34-1.64c.07-.66.13-1.33.2-2a1.5 1.5 0 113 .29c-.06.67-.13 1.34-.2 2a1.49 1.49 0 01-1.51 1.35zM3.15 389.72a1.5 1.5 0 01-1.49-1.36c-.07-.66-.13-1.33-.19-2a1.5 1.5 0 013-.27l.18 2a1.5 1.5 0 01-1.34 1.64zM706 374.41h-.08a1.5 1.5 0 01-1.41-1.58c0-.67.07-1.33.1-2a1.5 1.5 0 113 .14c0 .67-.06 1.34-.1 2a1.5 1.5 0 01-1.51 1.44zM1.92 372.73a1.5 1.5 0 01-1.5-1.43l-.09-2a1.5 1.5 0 011.44-1.56 1.52 1.52 0 011.56 1.44l.09 2A1.5 1.5 0 012 372.73zm704.59-14.41c-.82 0-1.5-1.15-1.49-2v-3.11a1.5 1.5 0 013 0v3.12c-.02.86-.68 1.99-1.51 1.99zM1.5 355.7a1.5 1.5 0 01-1.5-1.5v-1.7c0-.82.68-1.18 1.5-1.18.83 0 1.5.37 1.49 1.2v1.84a1.37 1.37 0 01-1.49 1.34zm704.68-16a1.5 1.5 0 01-1.5-1.44l-.09-2a1.48 1.48 0 011.42-1.57 1.46 1.46 0 011.57 1.42c0 .67.07 1.34.1 2a1.51 1.51 0 01-1.44 1.57zm-704.29-1h-.07a1.49 1.49 0 01-1.43-1.56c0-.68.07-1.35.1-2a1.5 1.5 0 013 .15c0 .67-.07 1.33-.1 2a1.5 1.5 0 01-1.5 1.39zM705 322.73a1.51 1.51 0 01-1.49-1.37c-.06-.66-.12-1.32-.19-2a1.5 1.5 0 013-.28c.07.66.13 1.33.19 2a1.5 1.5 0 01-1.36 1.63zm-701.93-1H3a1.49 1.49 0 01-1.35-1.63l.19-2a1.5 1.5 0 013 .3l-.2 2a1.5 1.5 0 01-1.55 1.29zm700-15.88a1.49 1.49 0 01-1.48-1.29c-.1-.66-.19-1.32-.29-2a1.5 1.5 0 013-.43c.1.66.19 1.32.29 2a1.5 1.5 0 01-1.28 1.69zm-697.95-1H4.9a1.5 1.5 0 01-1.27-1.7c.1-.66.19-1.33.29-2a1.5 1.5 0 113 .45c-.1.65-.2 1.31-.29 2a1.5 1.5 0 01-1.52 1.18zM700.28 289a1.5 1.5 0 01-1.47-1.22c-.13-.66-.26-1.31-.38-2a1.5 1.5 0 012.94-.58c.13.66.26 1.31.38 2a1.5 1.5 0 01-1.19 1.75zM7.94 288a1.43 1.43 0 01-.29 0 1.5 1.5 0 01-1.19-1.75l.39-2a1.5 1.5 0 112.94.59c-.13.65-.26 1.3-.38 2A1.51 1.51 0 017.94 288zm688.75-15.62a1.49 1.49 0 01-1.46-1.15l-.48-1.94a1.5 1.5 0 012.92-.72l.47 1.95a1.53 1.53 0 01-1.45 1.86zm-685.11-1a1.47 1.47 0 01-.36 0 1.5 1.5 0 01-1.1-1.81c.16-.66.32-1.31.49-2a1.5 1.5 0 012.91.73c-.17.65-.33 1.29-.48 1.94a1.51 1.51 0 01-1.46 1.1zm680.71-15.48a1.5 1.5 0 01-1.44-1.07l-.57-1.92a1.5 1.5 0 112.87-.86c.2.64.39 1.29.58 1.93a1.5 1.5 0 01-1 1.86 1.52 1.52 0 01-.44.06zM16 254.9a1.59 1.59 0 01-.43-.06 1.5 1.5 0 01-1-1.87l.58-1.92a1.5 1.5 0 012.87.86l-.58 1.92A1.49 1.49 0 0116 254.9zm671.06-15.22a1.49 1.49 0 01-1.41-1l-.66-1.89a1.5 1.5 0 012.83-1l.66 1.9a1.5 1.5 0 01-.92 1.91 1.45 1.45 0 01-.47.08zm-665.8-1a1.43 1.43 0 01-.5-.09 1.5 1.5 0 01-.92-1.91c.22-.64.45-1.27.67-1.91a1.51 1.51 0 011.92-.9 1.49 1.49 0 01.91 1.91c-.23.63-.45 1.26-.67 1.89a1.51 1.51 0 01-1.38.99zm659.83-14.93a1.51 1.51 0 01-1.4-.93l-.75-1.86a1.5 1.5 0 012.78-1.13l.76 1.86a1.5 1.5 0 01-.83 2 1.43 1.43 0 01-.53.04zm-653.79-1a1.44 1.44 0 01-.57-.11 1.5 1.5 0 01-.82-1.95l.77-1.87a1.5 1.5 0 012.77 1.15l-.76 1.85a1.5 1.5 0 01-1.36.86zm647.05-14.55a1.51 1.51 0 01-1.36-.88l-.84-1.8a1.5 1.5 0 012.72-1.27c.29.61.57 1.21.85 1.82a1.51 1.51 0 01-.74 2 1.56 1.56 0 01-.6.06zM34.14 207a1.44 1.44 0 01-.63-.14 1.5 1.5 0 01-.73-2l.86-1.83a1.5 1.5 0 012.71 1.28l-.85 1.81a1.49 1.49 0 01-1.36.88zm632.77-14.16a1.5 1.5 0 01-1.33-.81l-.93-1.76a1.5 1.5 0 012.66-1.4l.93 1.77a1.52 1.52 0 01-.64 2 1.56 1.56 0 01-.69.23zm-625.2-1.13a1.46 1.46 0 01-.7-.18 1.49 1.49 0 01-.63-2c.31-.6.63-1.19.94-1.78a1.5 1.5 0 012.65 1.4l-.97 1.78a1.5 1.5 0 01-1.29.81zM658.7 178a1.5 1.5 0 01-1.3-.75l-1-1.71A1.5 1.5 0 01659 174l1 1.73a1.5 1.5 0 01-.54 2.06 1.59 1.59 0 01-.76.21zM50 176.83a1.5 1.5 0 01-1.29-2.26l1-1.74a1.5 1.5 0 112.58 1.54l-1 1.72a1.49 1.49 0 01-1.29.74zm599.77-13.33a1.51 1.51 0 01-1.26-.68l-1.09-1.67a1.5 1.5 0 112.51-1.65l1.1 1.68a1.51 1.51 0 01-.44 2.08 1.53 1.53 0 01-.82.24zM59 162.35a1.46 1.46 0 01-.82-.25 1.5 1.5 0 01-.43-2.08l1.11-1.68a1.5 1.5 0 012.5 1.66c-.37.56-.74 1.11-1.1 1.67a1.51 1.51 0 01-1.26.68zm581.16-12.89a1.48 1.48 0 01-1.22-.62l-1.17-1.61a1.5 1.5 0 112.42-1.77c.4.54.79 1.08 1.18 1.63a1.49 1.49 0 01-1.21 2.37zm-571.47-1.14a1.45 1.45 0 01-.88-.29 1.49 1.49 0 01-.33-2.09l1.19-1.63a1.5 1.5 0 012.42 1.78c-.4.53-.79 1.07-1.18 1.61a1.53 1.53 0 01-1.22.62zm561.19-12.42a1.52 1.52 0 01-1.18-.56l-1.24-1.56a1.5 1.5 0 112.33-1.88l1.26 1.57a1.5 1.5 0 01-.24 2.11 1.46 1.46 0 01-.93.32zM79 134.78a1.49 1.49 0 01-1.16-2.44l1.26-1.57a1.5 1.5 0 012.33 1.89l-1.26 1.56a1.48 1.48 0 01-1.17.56zm540-11.93a1.47 1.47 0 01-1.12-.51l-1.32-1.5a1.5 1.5 0 012.24-2c.44.5.89 1 1.33 1.51a1.48 1.48 0 01-.14 2.11 1.5 1.5 0 01-.99.39zm-529-1.1a1.49 1.49 0 01-1-.37 1.5 1.5 0 01-.13-2.12l1.34-1.5a1.5 1.5 0 112.23 2l-1.33 1.49a1.48 1.48 0 01-1.11.5zm517.38-11.42a1.49 1.49 0 01-1.07-.46l-1.4-1.43a1.5 1.5 0 012.15-2.1l1.4 1.44a1.51 1.51 0 01-1.08 2.55zm-505.78-1a1.52 1.52 0 01-1-.43 1.5 1.5 0 010-2.12l1.4-1.44a1.5 1.5 0 012.14 2.11l-1.4 1.42a1.45 1.45 0 01-1.11.41zm493.68-10.96a1.5 1.5 0 01-1-.4l-1.46-1.37a1.5 1.5 0 112.05-2.19l1.46 1.37a1.5 1.5 0 01-1 2.59zm-481.47-1a1.53 1.53 0 01-1.1-.47 1.5 1.5 0 01.08-2.12l1.47-1.37a1.5 1.5 0 012 2.2L114.83 97a1.48 1.48 0 01-1.02.37zM582.58 87a1.5 1.5 0 01-1-.36l-1.52-1.29a1.5 1.5 0 011.94-2.28l1.54 1.3a1.49 1.49 0 01.16 2.11 1.47 1.47 0 01-1.12.52zm-456-.94a1.5 1.5 0 01-1-2.65l1.54-1.29a1.5 1.5 0 111.92 2.3l-1.53 1.29a1.52 1.52 0 01-.97.36zm442.81-9.8a1.47 1.47 0 01-.91-.31l-1.59-1.22a1.5 1.5 0 111.82-2.38c.54.4 1.07.81 1.6 1.22a1.5 1.5 0 01-.92 2.69zM139.8 75.4a1.52 1.52 0 01-1.19-.59 1.5 1.5 0 01.28-2.1l1.6-1.22a1.5 1.5 0 111.81 2.39l-1.59 1.21a1.47 1.47 0 01-.91.31zm415.82-9.22a1.51 1.51 0 01-.86-.27l-1.64-1.14a1.5 1.5 0 011.7-2.47l1.66 1.15a1.5 1.5 0 01-.86 2.73zm-402.06-.81a1.5 1.5 0 01-.86-2.73l1.66-1.14a1.5 1.5 0 011.69 2.5l-1.64 1.13a1.49 1.49 0 01-.85.24zm387.85-8.62a1.46 1.46 0 01-.8-.23l-1.69-1.06a1.5 1.5 0 111.58-2.54l1.71 1.08a1.5 1.5 0 01.47 2.07 1.48 1.48 0 01-1.27.68zM167.77 56a1.5 1.5 0 01-.79-2.77c.56-.36 1.13-.71 1.7-1.06a1.5 1.5 0 111.57 2.55l-1.69 1a1.42 1.42 0 01-.79.28zm359-8a1.49 1.49 0 01-.73-.2l-1.75-1a1.5 1.5 0 011.46-2.63l1.76 1a1.5 1.5 0 01-.74 2.81zm-344.34-.65a1.5 1.5 0 01-.73-2.81l1.76-1a1.5 1.5 0 011.44 2.63l-1.74 1a1.47 1.47 0 01-.75.21zM511.69 40a1.44 1.44 0 01-.67-.16l-1.79-.84a1.5 1.5 0 111.33-2.69l1.8.9a1.5 1.5 0 01-.67 2.84zm-314.24-.56a1.51 1.51 0 01-.67-2.85l1.8-.88a1.5 1.5 0 111.32 2.69l-1.78.88a1.47 1.47 0 01-.67.18zm298.8-6.71a1.49 1.49 0 01-.61-.13l-1.83-.8a1.5 1.5 0 111.2-2.76l1.85.81a1.51 1.51 0 01-.61 2.88zm-283.4-.48a1.5 1.5 0 01-.6-2.87l1.84-.8a1.5 1.5 0 111.18 2.75l-1.82.8a1.61 1.61 0 01-.6.14zm267.62-6a1.47 1.47 0 01-.54-.1l-1.87-.71a1.5 1.5 0 011.06-2.81l1.89.72a1.5 1.5 0 01-.54 2.9zm-251.9-.39a1.48 1.48 0 01-1.4-1 1.5 1.5 0 01.86-1.94l1.89-.71A1.5 1.5 0 01231 25l-1.87.71a1.6 1.6 0 01-.56.13zm235.81-5.36a1.6 1.6 0 01-.47-.08L462 19.8a1.5 1.5 0 01.92-2.86l1.92.63a1.5 1.5 0 01-.47 2.93zm-219.75-.33a1.5 1.5 0 01-.47-2.93l1.92-.61a1.5 1.5 0 11.91 2.85l-1.9.62a1.47 1.47 0 01-.46.07zm203.44-4.61a1.83 1.83 0 01-.4-.05l-1.92-.51a1.5 1.5 0 11.78-2.9l1.94.53a1.5 1.5 0 01-.4 3zm-187.13-.27a1.5 1.5 0 01-.39-2.95l1.94-.53a1.52 1.52 0 011.84 1.07 1.49 1.49 0 01-1.06 1.83l-1.93.52a1.34 1.34 0 01-.4.06zm170.61-3.86a1.86 1.86 0 01-.33 0l-2-.43a1.5 1.5 0 01-1.14-1.79A1.48 1.48 0 01429.91 8l2 .43a1.5 1.5 0 01-.33 3zm-154.07-.23a1.5 1.5 0 01-.32-3l2-.43a1.5 1.5 0 11.63 2.93l-1.95.43a1.66 1.66 0 01-.36.07zm137.37-3.1h-.26l-2-.34a1.5 1.5 0 01.5-3l2 .34a1.5 1.5 0 01-.25 3zm-120.66-.17a1.5 1.5 0 01-.25-3l2-.34a1.5 1.5 0 01.48 3l-2 .33a1.15 1.15 0 01-.23.01zM398 5.59h-.19l-2-.24a1.5 1.5 0 11.36-3l2 .24a1.5 1.5 0 01-.18 3zm-87-.13a1.5 1.5 0 01-.17-3l2-.23a1.5 1.5 0 11.35 3l-2 .23zm70-1.57h-.11l-2-.15a1.49 1.49 0 01-1.39-1.6 1.52 1.52 0 011.6-1.39l2 .15a1.5 1.5 0 01-.11 3zm-53-.07a1.5 1.5 0 01-.11-3l2-.14a1.5 1.5 0 01.2 3l-2 .14zm36-.5c-.66 0-1.33-.19-2-.2a1.58 1.58 0 01-1.47-1.62 1.56 1.56 0 011.54-1.5h2a1.63 1.63 0 011.45 1.69A1.63 1.63 0 01364 3.32zm-19 0a1.65 1.65 0 01-1.5-1.63A1.41 1.41 0 01345 .26l2 .06a1.35 1.35 0 011.5 1.28 1.55 1.55 0 01-1.5 1.6l-2 .12z"/><circle class="cls-1" cx="354.01" cy="353.88" r="156.02" transform="rotate(-45 354.005 353.886)" opacity=".2"/><path class="cls-1" d="M354 495.9c-78.31 0-142-63.71-142-142s63.71-142 142-142a2.5 2.5 0 010 5c-75.55 0-137 61.47-137 137s61.47 137 137 137 137-61.47 137-137a2.5 2.5 0 015 0c0 78.29-63.68 142-142 142z"/><path class="cls-1" d="M157.38 290a9.16 9.16 0 01-3.15-.57 9 9 0 01-5.23-11.6 219 219 0 01281.82-128.5 9 9 0 01-6.3 16.86c-103.88-38.8-219.92 14.11-258.71 117.94a9 9 0 01-8.43 5.87z"/><g class="cls-3"><circle class="cls-1" cx="646.87" cy="297.64" r="17.25" transform="rotate(-45 646.878 297.644)"/></g><path class="cls-1" d="M646.88 341.64a44 44 0 1144-44 44 44 0 01-44 44zm0-87a43 43 0 1043 43 43 43 0 00-43-43z"/><g class="cls-4"><path class="cls-1" d="M646.87 304.94c-29.17 0-60.18-2.56-60.18-7.3s31-7.31 60.18-7.31 60.19 2.56 60.19 7.31-31.01 7.3-60.19 7.3zm0-13.61c-38.11 0-59.18 3.73-59.18 6.31s21.07 6.3 59.18 6.3 59.19-3.72 59.19-6.3-21.06-6.31-59.19-6.31z"/></g><g class="cls-4"><path class="cls-1" d="M617.79 350.15a1.21 1.21 0 01-.6-.15c-.7-.4-2.84-1.61 4.22-18.22A396.08 396.08 0 01640.52 294c14.39-25.38 31.93-51.08 36-48.75.7.4 2.84 1.61-4.22 18.21a393.73 393.73 0 01-19.11 37.75c-13.74 24.33-30.38 48.94-35.4 48.94zm58-104.07c-2.94 0-16.27 16.48-34.39 48.45a391.66 391.66 0 00-19.06 37.65c-6.52 15.33-4.86 16.83-4.65 16.95 2.24 1.26 15.88-15.23 34.68-48.38a396.36 396.36 0 0019.06-37.65c6.52-15.34 4.86-16.83 4.64-17a.51.51 0 00-.29-.02z"/></g><g class="cls-4"><path class="cls-1" d="M676 350.15c-5 0-21.67-24.61-35.44-48.91a393.73 393.73 0 01-19.11-37.75c-7.06-16.6-4.92-17.81-4.22-18.21 4.14-2.34 21.65 23.38 36 48.75a396.08 396.08 0 0119.11 37.75c7.06 16.61 4.92 17.82 4.22 18.22a1.21 1.21 0 01-.56.15zm-58.28-104c-.21.12-1.87 1.61 4.65 17a394 394 0 0019.06 37.65c18.79 33.15 32.42 49.64 34.68 48.38.21-.12 1.87-1.62-4.65-16.95a394 394 0 00-19.06-37.65c-18.8-33.16-32.41-49.64-34.68-48.38z"/></g><g class="cls-3"><circle class="cls-1" cx="220.87" cy="88.64" r="17.25" transform="rotate(-45 220.872 88.632)"/></g><path class="cls-1" d="M220.88 132.64a44 44 0 1144-44 44 44 0 01-44 44zm0-87a43 43 0 1043 43 43 43 0 00-43-43z"/><g class="cls-4"><path class="cls-1" d="M220.87 95.94c-29.17 0-60.18-2.56-60.18-7.3s31-7.31 60.18-7.31 60.19 2.56 60.19 7.31-31.01 7.3-60.19 7.3zm0-13.61c-38.11 0-59.18 3.73-59.18 6.31s21.07 6.3 59.18 6.3 59.19-3.72 59.19-6.3-21.06-6.31-59.19-6.31z"/></g><g class="cls-4"><path class="cls-1" d="M191.79 141.15a1.21 1.21 0 01-.6-.15c-.7-.4-2.84-1.61 4.22-18.22A396.08 396.08 0 01214.52 85c14.39-25.38 31.93-51.08 36-48.75.7.4 2.84 1.61-4.22 18.21a393.73 393.73 0 01-19.11 37.75c-13.74 24.33-30.38 48.94-35.4 48.94zm58-104.07c-2.94 0-16.27 16.48-34.39 48.45a391.66 391.66 0 00-19.06 37.65c-6.52 15.33-4.86 16.83-4.65 16.95 2.22 1.25 15.88-15.23 34.68-48.38a396.36 396.36 0 0019.05-37.65c6.52-15.34 4.86-16.83 4.64-17a.51.51 0 00-.28-.02z"/></g><g class="cls-4"><path class="cls-1" d="M250 141.15c-5 0-21.67-24.61-35.44-48.91a393.73 393.73 0 01-19.11-37.75c-7.06-16.6-4.92-17.81-4.22-18.21 4.14-2.34 21.65 23.38 36 48.75a396.08 396.08 0 0119.11 37.75c7.06 16.61 4.92 17.82 4.22 18.22a1.21 1.21 0 01-.56.15zm-58.28-104c-.21.12-1.87 1.61 4.65 17a394 394 0 0019.06 37.65c18.79 33.15 32.43 49.64 34.68 48.38.21-.12 1.87-1.62-4.65-16.95a394 394 0 00-19.06-37.65c-18.84-33.21-32.4-49.69-34.72-48.43z"/></g><g class="cls-3"><circle class="cls-1" cx="170.87" cy="588.64" r="17.25" transform="rotate(-45 170.87 588.633)"/></g><path class="cls-1" d="M170.88 632.64a44 44 0 1144-44 44 44 0 01-44 44zm0-87a43 43 0 1043 43 43 43 0 00-43-43z"/><g class="cls-4"><path class="cls-1" d="M170.87 595.94c-29.17 0-60.18-2.56-60.18-7.3s31-7.31 60.18-7.31 60.19 2.56 60.19 7.31-31.01 7.3-60.19 7.3zm0-13.61c-38.11 0-59.18 3.73-59.18 6.31s21.07 6.3 59.18 6.3 59.19-3.72 59.19-6.3-21.06-6.31-59.19-6.31z"/></g><g class="cls-4"><path class="cls-1" d="M141.89 641.2a1.36 1.36 0 01-.7-.2c-.7-.4-2.84-1.61 4.22-18.22A396.08 396.08 0 01164.52 585c14.39-25.38 31.92-51.09 36-48.75 4.13 2.34-8.94 30.58-23.33 56A392.7 392.7 0 01154.65 628c-8.37 11.52-11.47 13.2-12.76 13.2zm57.89-104.12c-2.94 0-16.27 16.48-34.39 48.45a391.66 391.66 0 00-19.06 37.65c-6.52 15.33-4.86 16.83-4.65 17s2.35.78 12.16-12.7a390.45 390.45 0 0022.52-35.68c18.8-33.15 25.95-53.33 23.7-54.6a.51.51 0 00-.28-.12z"/></g><g class="cls-4"><path class="cls-1" d="M199.85 641.2c-1.28 0-4.38-1.68-12.75-13.18a392.7 392.7 0 01-22.58-35.78c-14.39-25.38-27.46-53.62-23.33-56 4.14-2.34 21.65 23.38 36 48.75a396.08 396.08 0 0119.11 37.75c7.06 16.61 4.92 17.82 4.22 18.22a1.37 1.37 0 01-.67.24zm-58.17-104.05c-2.24 1.27 4.91 21.45 23.71 54.6a390.45 390.45 0 0022.52 35.68c9.81 13.48 11.94 12.82 12.15 12.7s1.88-1.62-4.64-17a394 394 0 00-19.06-37.65c-18.79-33.14-32.4-49.66-34.68-48.38z"/></g></g></g></svg>