<svg xmlns="http://www.w3.org/2000/svg" viewBox="0 0 92.59 92.13"><defs><style>.cls-2{fill:#dedede;mix-blend-mode:overlay}.cls-3{mix-blend-mode:color-dodge}</style></defs><g style="isolation:isolate"><g id="图层_2" data-name="图层 2"><g id="Layer_1" data-name="Layer 1"><path class="cls-2" d="M34.55 82.94a36.94 36.94 0 008 1.41 37.66 37.66 0 008.17-.35 36.82 36.82 0 0015.09-5.86A37.63 37.63 0 0077 66.45a37.37 37.37 0 005.2-15.33l2.91.31a42.49 42.49 0 00.23-4.37h-3.52a36.69 36.69 0 01-14.73 29.42 36.66 36.66 0 01-7.34 4.28 36.26 36.26 0 01-8.14 2.47 37.82 37.82 0 01-8.5.53 36.75 36.75 0 01-8.39-1.43z"/><path class="cls-2" d="M25.65 80.7a38.84 38.84 0 0042.5-2.4 39.4 39.4 0 006.56-6.15 38.71 38.71 0 005-7.49 37.8 37.8 0 003.12-8.43l-4.54-1.1a33.61 33.61 0 01-1 3.42L81 59.91a37.86 37.86 0 01-5.35 10 38 38 0 01-29.1 15.3l-.06-1.43a36.63 36.63 0 01-19.8-4.89z"/><path class="cls-2" d="M62.63 75.23c.66-.41 1.3-.84 1.93-1.3l-.56-.72c-.61.45-1.24.87-1.88 1.27zM54.65 78.85c.75-.22 1.48-.47 2.2-.75l-.31-.83c-.71.27-1.42.51-2.14.73zM46.09 80.24c.78 0 1.55-.08 2.33-.15l-.09-.89c-.75.08-1.51.12-2.27.15zM65 73.57c.62-.47 1.23-1 1.81-1.47l-.58-.67c-.57.5-1.16 1-1.76 1.43z"/><path class="cls-2" d="M53.64 79.14c.74-.2 1.49-.43 2.22-.68l-.29-.84q-1.07.36-2.16.66zM36.92 79.25c.75.18 1.5.35 2.27.48l.16-.87q-1.12-.19-2.22-.48zM41.27 80a34.59 34.59 0 006 .14l-.06-.89a33.73 33.73 0 01-5.86-.13zM59 77.2a32.85 32.85 0 005.2-3l-.51-.73a32.31 32.31 0 01-5.06 2.93zM68.57 70.5a32.85 32.85 0 003.85-4.63l-.73-.5a32.32 32.32 0 01-3.75 4.5z"/><path class="cls-2" d="M54.68 78.84c.75-.22 1.48-.47 2.2-.75l-.31-.83c-.71.27-1.42.51-2.14.73zM76 59.07c.28-.72.54-1.46.77-2.2l-.85-.26c-.23.72-.47 1.43-.74 2.14zM68.33 70.74c.55-.55 1.09-1.11 1.6-1.69l-.66-.59c-.5.56-1 1.11-1.56 1.64zM75.11 80.66A46.12 46.12 0 0080 75.5l1.54 1.26a46.87 46.87 0 007.48-12.92l-3.52-1.35a42.93 42.93 0 01-4.8 9.12 43.46 43.46 0 01-6.8 7.72zM34.52 86.6a40.9 40.9 0 009.71 1.4l-.08 4.16a43.89 43.89 0 004.44-.16l-.14-1.77-1.34.08-.17-3.59a40.2 40.2 0 01-12.11-1.28z"/><path class="cls-2" d="M81.45 73.66a45.9 45.9 0 002.87-4.43l-1.55-.88A42.36 42.36 0 0180 72.61zM75.51 80.3a43.78 43.78 0 003.67-3.79l-1.34-1.16A44.83 44.83 0 0174.31 79zM58 90.24l1.15-.37-.56-1.69-1.1.36zM66.27 86.84l1.06-.58-.88-1.55-1 .56zM73.68 81.89l.92-.78-1.17-1.34c-.29.25-.58.5-.88.74zM70.1 84.54l1-.68-1-1.45c-.31.23-.63.44-1 .66zM62.24 88.74l1.1-.47-.72-1.63-1.06.46zM53.69 91.3c.39-.07.79-.15 1.18-.24l-.39-1.74c-.37.08-.75.17-1.13.24zM44.82 92.13H46v-1.78h-1.17zM49.27 91.94l1.2-.13-.21-1.81c-.38 0-.77.09-1.15.12zM38.86 81.56l.35.06-.15.92-.37-.07.17-.91zM44.73 82.11h.36v.93l-.37-.01.01-.92zM42.26 82l.36.02-.06.93-.37-.03.07-.92zM40.72 81.84l.35.04-.1.92-.37-.04.12-.92zM35.31 80.73l.34.1-.25.89-.35-.09.26-.9zM38.43 81.48l.35.07-.16.91-.37-.07.18-.91zM34.48 80.48l.34.11-.27.88-.35-.1.28-.89zM33.72 80.23l.34.11-.29.88-.35-.11.3-.88z"/><path class="cls-2" d="M33.84 80.27l.34.11-.29.89-.35-.12.3-.88zM42.08 81.98l.36.03-.06.93-.37-.03.07-.93zM29.86 78.64l.32.16-.39.84-.34-.16.41-.84zM35.57 80.81l.35.09-.24.9-.36-.1.25-.89z"/><path class="cls-2" d="M30.03 78.72l.32.16-.39.84-.33-.16.4-.84zM31.55 79.41l.33.13-.35.87-.34-.15.36-.85zM82.81 63.05l.16-.39.86.35-.17.4-.85-.36zM84.94 56.51l.1-.42 7.55 1.7-.11.49-7.54-1.77zM84.19 59.28l.12-.4.89.26-.13.41-.88-.27zM83.61 61l.14-.4.88.31-.15.41-.87-.32zM80.93 66.88l.21-.37.81.45-.2.37-.82-.45zM82.6 63.51l.17-.38.86.36-.18.4-.85-.38zM80.43 67.76l.21-.36.81.46-.22.37-.8-.47zM79.95 68.57l.22-.36.79.48-.22.37-.79-.49z"/><path class="cls-2" d="M80.03 68.44l.22-.36.8.47-.23.37-.79-.48zM84.13 59.48l.12-.4.89.27-.13.41-.88-.28zM77.14 72.56l.26-.33.74.57-.27.34-.73-.58zM81.09 66.6l.2-.37.82.43-.2.38-.82-.44z"/><path class="cls-2" d="M77.28 72.39l.26-.33.73.56-.26.34-.73-.57zM78.45 70.82l.24-.34.76.53-.25.35-.75-.54zM76.23 63.11q.34-.68.66-1.35l.85.39c-.22.46-.44.93-.68 1.38zM70.5 71.17c.33-.35.65-.7 1-1.06l.7.61c-.32.37-.66.73-1 1.09zM69.74 72l.57-.58.69.58c-.2.2-.39.4-.59.59zM67.91 73.64l.39-.34.61.7-.39.35-.61-.71zM61.55 78c.54-.29 1.08-.6 1.61-.91l.48.79c-.55.33-1.1.64-1.65.94zM55.08 80.66l.25-.08.28.89-.27.08-.26-.89zM74.74 65.72c.27-.42.52-.85.77-1.29l.81.46c-.25.45-.52.89-.79 1.33z"/><path class="cls-2" d="M71.29 70.31c.32-.36.64-.73.94-1.1l.72.59c-.31.38-.63.76-1 1.12zM67.37 74.1l.62-.53.61.71-.64.54zM62.76 77.32l.45-.26.48.79-.46.27-.47-.8zM57 80c.57-.2 1.15-.43 1.72-.67l.36.86c-.59.25-1.17.47-1.77.69zM52.16 81.39l.26-.05.2.9-.27.06-.19-.91zM19.27 20a37.34 37.34 0 00-11.5 29.49A37.1 37.1 0 0012.29 65 37.65 37.65 0 0023 77.22l-1.73 2.36A41.77 41.77 0 0024.91 82l1.78-3.08a36.75 36.75 0 01-7-58.42z"/><path class="cls-2" d="M25.65 13.42A39 39 0 008.59 33.7a38.82 38.82 0 003.92 34.54 39.3 39.3 0 005.75 6.92l3.23-3.38A33.62 33.62 0 0119 69.17l-3 2.61a38.06 38.06 0 01-8.89-20.54 38.65 38.65 0 01.44-11.31 37.94 37.94 0 013.73-10.67l1.27.67a36.77 36.77 0 0114.14-14.7z"/><path class="cls-2" d="M11.9 48.2c0 .78.08 1.55.15 2.32l.89-.09c-.08-.75-.13-1.51-.15-2.26zM12.75 39.46q-.27 1.13-.45 2.28l.88.14c.12-.74.26-1.48.43-2.22zM15.82 31.35c-.37.69-.71 1.38-1 2.09l.81.36c.31-.68.64-1.36 1-2zM12.12 51.12c.09.77.22 1.54.36 2.3l.88-.17c-.15-.74-.26-1.49-.36-2.24z"/><path class="cls-2" d="M13 38.43c-.2.75-.38 1.51-.53 2.27l.88.17c.14-.74.31-1.48.51-2.21zM21.27 23.92c-.54.56-1.06 1.13-1.56 1.72l.68.58c.49-.58 1-1.14 1.52-1.68zM18.4 27.29a32.42 32.42 0 00-3.13 5.13l.8.39a31.88 31.88 0 013.05-5zM12 44.06a33.62 33.62 0 000 6l.9-.06a31.86 31.86 0 010-5.86zM13 55.7a33.06 33.06 0 002.08 5.63l.8-.38a32.45 32.45 0 01-2-5.48z"/><path class="cls-2" d="M12.74 39.49q-.26 1.13-.45 2.28l.88.14c.12-.74.27-1.49.44-2.22zM19.2 67.85c.48.61 1 1.2 1.52 1.77l.65-.61c-.51-.55-1-1.13-1.48-1.71zM12.93 55.38c.19.75.41 1.49.65 2.22l.85-.28c-.24-.71-.45-1.44-.64-2.17zM.94 56.28a45.08 45.08 0 002 6.84l-1.86.71a47 47 0 007.48 12.93l2.92-2.38A43.31 43.31 0 016 65.68a42.7 42.7 0 01-3.3-9.76zM16.11 18.16a41 41 0 00-6 7.72L6.5 23.72q-1.15 1.91-2.11 3.92l1.6.77c.19-.41.39-.81.6-1.21l3.2 1.65A39.62 39.62 0 0117 19z"/><path class="cls-2" d="M3.83 65.28A45.15 45.15 0 006.25 70l1.53-.9a43.64 43.64 0 01-2.32-4.51zM1.05 56.8a46.7 46.7 0 001.44 5.08l1.68-.58a45.93 45.93 0 01-1.38-4.88zM1.2 36.7c-.09.39-.18.78-.26 1.18l1.74.36c.08-.38.16-.76.25-1.13zM0 45.53v1.2h1.78v-1.16zM.6 54.42c.06.4.13.79.21 1.18l1.75-.33q-.12-.57-.21-1.14zM.09 50c0 .4.06.8.1 1.2L2 51c0-.38-.07-.76-.09-1.15zM.39 41.09c0 .4-.1.8-.14 1.19l1.75.19c0-.38.08-.76.14-1.15zM2.43 32.41c-.13.38-.25.76-.37 1.14l1.7.54c.11-.37.23-.74.36-1.1zM6.16 24.31c-.21.34-.4.69-.6 1l1.56.86.57-1zM4.1 28.26c-.17.37-.34.74-.49 1.1l1.63.7c.15-.35.31-.7.47-1zM18.3 24.44l-.24.28-.71-.59.24-.29.71.6zM14.88 29.24l-.18.31-.8-.46.18-.32.8.47zM16.21 27.17l-.21.3-.77-.52.21-.31.77.53zM17.12 25.91l-.22.29-.74-.55.22-.3.74.56zM20.8 21.78l-.26.25-.65-.66.26-.26.65.67zM18.58 24.11l-.23.28-.71-.61.24-.28.7.61zM21.43 21.19l-.27.24-.63-.68.27-.25.63.69zM22.03 20.65l-.27.24-.62-.69.28-.25.61.7z"/><path class="cls-2" d="M21.93 20.74l-.27.24-.62-.69.28-.25.61.7zM16.31 27.02l-.2.3-.77-.52.21-.31.76.53zM25.33 18.09l-.29.21-.54-.76.31-.21.52.76zM20.6 21.97l-.26.26-.65-.66.26-.26.65.66z"/><path class="cls-2" d="M25.18 18.2l-.3.21-.53-.76.3-.21.53.76zM23.83 19.18l-.29.22-.57-.73.29-.23.57.74zM12.36 71.74l.26.34-.74.56-.26-.34.74-.56zM16.96 76.86l.31.3-5.26 5.68-.36-.35 5.31-5.63zM14.94 74.82l.28.31-.67.64-.3-.32.69-.63zM13.73 73.46l.28.32-.71.61-.28-.33.71-.6zM9.97 68.21l.22.36-.79.49-.23-.37.8-.48zM12.06 71.33l.25.34-.74.56-.26-.34.75-.56zM9.46 67.33l.21.37-.8.47-.22-.37.81-.47zM9 66.52l.21.36-.82.45-.21-.37.82-.44z"/><path class="cls-2" d="M9.08 66.65l.2.37-.81.45-.21-.37.82-.45zM14.79 74.67l.29.31-.68.63-.29-.31.68-.63zM6.94 62.09l.16.39-.86.35-.16-.4.86-.34z"/><path class="cls-2" transform="rotate(-31.67 9.863 68.909)" d="M9.39 68.7h.93v.43h-.93z"/><path class="cls-2" d="M7.02 62.29l.16.39-.86.36-.16-.4.86-.35zM7.79 64.09l.18.38-.84.4-.18-.4.84-.38zM15.59 66c.27.42.55.83.84 1.24l-.76.54c-.3-.42-.59-.85-.86-1.28zM11.46 57c.14.46.28.92.44 1.37l-.88.3c-.16-.46-.31-.93-.45-1.4zM11.17 56l.21.78-.89.26a23.8 23.8 0 01-.22-.8zM10.62 53.56l.1.51-.91.18-.1-.52.91-.17zM10 45.86v1.86h-.93v-1.91zM10.97 38.92l-.06.26-.91-.2.07-.27.9.21zM14.06 63.42c.24.44.48.88.74 1.31l-.8.47q-.39-.66-.75-1.35z"/><path class="cls-2" d="M11.81 58.15c.15.46.31.91.48 1.36l-.86.33c-.18-.46-.35-.93-.5-1.39zM10.5 52.87c0 .26.09.53.14.79l-.91.18-.15-.84zM10.02 47.26l.01.52-.93.02-.01-.53.93-.01zM10.57 40.85c-.11.61-.2 1.21-.28 1.83l-.92-.12c.08-.63.17-1.25.29-1.87zM11.79 36.03l-.08.25-.89-.28.09-.26.88.29zM81.39 38.23a37.17 37.17 0 00-7.14-14.53 37.4 37.4 0 00-36.49-13.3A37 37 0 0030 12.85l-1.19-2.68a42 42 0 00-3.9 2l1.78 3.08a36.32 36.32 0 0116.19-4.85 37.22 37.22 0 018.5.47 36.73 36.73 0 0121.74 12.45 36.78 36.78 0 017.67 15.06z"/><path class="cls-2" d="M83.9 47.06a38.61 38.61 0 00-9-24.9 38.74 38.74 0 00-14.32-10.71A38.64 38.64 0 0052 8.84a39.15 39.15 0 00-17.84.95l1.31 4.48a33.85 33.85 0 013.48-.82l-.72-4a39 39 0 0111.31-.36A38.26 38.26 0 0177.38 26.7l-1.22.77a36.62 36.62 0 015.66 19.59z"/><path class="cls-2" d="M60.67 17.76c-.68-.37-1.38-.71-2.09-1l-.36.82c.69.3 1.37.63 2 1zM67.8 22.87c-.57-.53-1.15-1-1.75-1.53l-.57.69c.59.47 1.16 1 1.71 1.49zM73.3 29.6c-.41-.66-.84-1.31-1.29-1.94l-.72.52c.44.62.86 1.24 1.26 1.89zM58 16.49c-.71-.3-1.43-.58-2.16-.83l-.29.84c.71.25 1.41.52 2.11.81z"/><path class="cls-2" d="M68.56 23.61c-.55-.55-1.12-1.08-1.7-1.59l-.59.67c.57.5 1.13 1 1.66 1.55zM77 38c-.22-.75-.45-1.48-.71-2.21l-.84.3c.26.71.48 1.43.69 2.15zM75.53 33.86a32.82 32.82 0 00-2.88-5.27l-.74.49a32.32 32.32 0 012.81 5.13zM64.19 19.92a34.05 34.05 0 00-5.2-3l-.38.8a31.86 31.86 0 015.06 2.93zM53.62 15a32.71 32.71 0 00-5.92-1l-.07.89a32 32 0 015.76 1z"/><path class="cls-2" d="M67.78 22.85c-.57-.53-1.15-1-1.76-1.53l-.56.69c.59.47 1.16 1 1.71 1.49zM40 14.25c-.76.12-1.53.27-2.28.44l.19.87c.74-.17 1.48-.31 2.23-.43zM54 15.07c-.75-.21-1.5-.39-2.26-.54l-.18.87c.74.15 1.47.32 2.2.52zM59.14 4.23a45.75 45.75 0 00-6.93-1.68l.32-2a47.26 47.26 0 00-14.92 0l.6 3.72a43.49 43.49 0 0120.38 1.65zM84.59 36.42a40.93 40.93 0 00-3.67-9.09l3.64-2q-1.08-2-2.34-3.78l-1.47 1c.26.37.51.75.75 1.13l-3 1.94a39.79 39.79 0 014.93 11.13z"/><path class="cls-2" d="M49.91 2.25A46.38 46.38 0 0044.64 2v1.78a42.76 42.76 0 015.08.22zM58.63 4.07a44.59 44.59 0 00-5.12-1.29l-.33 1.75a43.68 43.68 0 014.92 1.23zM76 14.26l-.88-.82-1.22 1.33c.29.26.58.52.85.78zM68.92 8.81c-.34-.21-.68-.42-1-.62L67 9.72l1 .6zM60.93 4.86l-1.13-.41-.59 1.68 1.09.4zM65 6.64l-1.08-.52-.75 1.61 1 .5zM72.58 11.36l-1-.72-1.05 1.43.93.7zM79.07 17.47c-.27-.3-.53-.6-.81-.9L77 17.78l.78.86zM84.23 24.73l-.61-1-1.52.92c.2.33.39.66.58 1zM81.83 21l-.71-1-1.43 1.07c.24.31.46.62.69.93zM78.05 35.18l-.12-.34.87-.32.13.35-.88.31zM75.6 29.84l-.18-.32.8-.46.19.32-.81.46zM76.73 32.02l-.15-.33.83-.41.16.34-.84.4zM77.37 33.43l-.14-.33.85-.37.15.34-.86.36zM79.11 38.67l-.09-.35.9-.23.09.36-.9.22zM78.2 35.59l-.12-.33.87-.32.13.35-.88.3zM79.3 39.52l-.08-.36.91-.2.08.36-.91.2zM79.47 40.3l-.08-.35.92-.19.07.36-.91.18z"/><path class="cls-2" d="M79.44 40.17l-.07-.35.91-.19.07.36-.91.18zM76.81 32.18l-.15-.32.83-.41.16.33-.84.4zM80.02 44.44l-.03-.36.93-.08.02.37-.92.07zM79.04 38.4l-.09-.34.9-.24.09.35-.9.23z"/><path class="cls-2" d="M80 44.25l-.03-.36.93-.08.03.37-.93.07zM79.83 42.59l-.05-.36.93-.12.04.36-.92.12zM40.05 6.39l-.42.06-.12-.92.42-.06.12.92zM33.31 7.8l-.4.12-2.3-7.38.48-.15 2.22 7.41z"/><path class="cls-2" transform="rotate(-13.01 35.755 6.653)" d="M35.57 6.2H36v.93h-.43z"/><path class="cls-2" d="M37.87 6.72l-.41.07-.17-.91.42-.08.16.92zM44.3 6.1l-.42.01-.03-.93.44-.01.01.93zM40.55 6.33l-.42.05-.11-.92.43-.05.1.92zM45.31 6.09h-.42v-.93h.43l-.01.93zM46.25 6.11l-.42-.01.02-.93.43.01-.03.93z"/><path class="cls-2" d="M46.1 6.1l-.42-.01.01-.93.43.01-.02.93zM36.3 7.03l-.42.09-.2-.9.42-.1.2.91zM51.11 6.53l-.41-.06.13-.92.42.06-.14.92zM43.98 6.1l-.42.02-.04-.93.43-.02.03.93z"/><path class="cls-2" d="M50.9 6.5l-.42-.06.12-.92.43.06-.13.92zM48.96 6.27l-.42-.04.08-.92.43.03-.09.93zM43.38 12.05c-.5 0-1 .06-1.5.11l-.08-.93c.51-.05 1-.08 1.54-.1zM53.24 13c-.46-.11-.93-.21-1.4-.3l.18-.92c.48.1 1 .2 1.44.32zM54.3 13.24l-.79-.2.23-.91.8.21zM56.67 13.98l-.49-.17.3-.88.5.17-.31.88zM63.61 17.32c-.52-.33-1-.64-1.59-.94l.45-.82c.55.31 1.1.63 1.63 1zM69.15 21.6l-.19-.18.63-.68.2.19-.64.67zM46.4 12h-1.51v-.92h1.55z"/><path class="cls-2" d="M52.1 12.72c-.47-.1-.94-.18-1.42-.26l.15-.92c.49.08 1 .17 1.45.27zM57.33 14.22l-.76-.28.31-.87.78.28zM62.42 16.6l-.45-.25.44-.82.47.26-.46.81zM67.69 20.29c-.47-.4-1-.79-1.45-1.16l.57-.74c.5.38 1 .78 1.48 1.19zM71.25 23.77l-.18-.2.69-.63.19.21-.7.62zM77.25 44.51a32.31 32.31 0 00-6-16.19l.27-.19a32.92 32.92 0 014.15 7.76 33.32 33.32 0 011.93 8.59z"/><path class="cls-2" transform="rotate(-35.9 69.6 29.244)" d="M68.45 29.48h2.38v.05h-2.38z"/><path class="cls-2" d="M70.05 30.08l-.06-.08.98-.68.06.09-.98.67zM70.43 30.65l-.06-.09 1-.65.06.09-1 .65z"/><path class="cls-2" transform="rotate(-31.8 71.328 30.64)" d="M70.68 30.81h1.19v.11h-1.19z"/><path class="cls-2" d="M70.13 32.42l-.06-.09 2.05-1.22.06.09-2.05 1.22zM71.49 32.4l-.05-.09 1.04-.58.05.09-1.04.58z"/><path class="cls-2" transform="rotate(-28.22 72.34 32.67)" d="M71.73 32.62h1.19v.11h-1.19z"/><path class="cls-2" transform="rotate(-26.78 72.64 33.294)" d="M72.05 33.24h1.19v.11h-1.19z"/><path class="cls-2" d="M71.36 34.74l-.05-.09 2.15-1.04.05.1-2.15 1.03z"/><path class="cls-2" transform="rotate(-24.08 73.266 34.548)" d="M72.65 34.5h1.19v.11h-1.19z"/><path class="cls-2" d="M72.99 35.47l-.04-.09 1.1-.47.04.1-1.1.46z"/><path class="cls-2" transform="rotate(-21.32 73.814 35.843)" d="M73.19 35.78h1.19v.11h-1.19z"/><path class="cls-2" d="M72.38 37.16l-.04-.1 2.24-.83.03.1-2.23.83zM73.73 37.39l-.04-.1 1.13-.39.03.1-1.12.39zM73.94 38.04l-.03-.1 1.13-.37.04.11-1.14.36zM74.14 38.69l-.03-.1 1.14-.34.04.1-1.15.34zM73.18 39.66l-.03-.1 2.3-.63.03.11-2.3.62zM74.5 40.01l-.02-.1 1.15-.29.03.11-1.16.28zM74.66 40.68l-.03-.1 1.17-.27.02.11-1.16.26zM74.8 41.35l-.02-.11 1.17-.23.02.1-1.17.24zM73.75 42.23l-.02-.1 2.35-.43.02.11-2.35.42zM75.04 42.69l-.02-.1 1.18-.19.02.11-1.18.18zM74.09 44.78l-.01-.05 2.38-.21v.05l-2.37.21z"/><path class="cls-2" transform="rotate(-6.38 75.845 43.913)" d="M75.2 43.88h1.19v.11H75.2z"/><path class="cls-2" d="M75.13 43.37l-.01-.1 1.18-.16.01.11-1.18.15zM79.45 47.06a35 35 0 00-1-8.34 34.09 34.09 0 00-3-7.84 34.51 34.51 0 00-11.19-12.39l.09-.13a34.51 34.51 0 0115.27 28.7z"/><path class="cls-2" d="M67.45 20.53c-.59-.5-1.2-1-1.82-1.44l.32-.43.66.5-.23.29c.4.31.79.63 1.18 1z"/><path class="cls-2" d="M66.72 19.25c.62.48 1.22 1 1.81 1.51l-.36.4-.61-.54.24-.28c-.39-.33-.78-.65-1.18-1zM68.54 21.5l.18-.2.36.34-.18.19-.36-.33zM69.23 22.14l.18-.18.35.35-.18.18-.35-.35zM69.89 22.81l.19-.18.35.36-.19.18-.35-.36zM70.54 23.5l.2-.18.33.37-.19.17-.34-.36zM71.18 24.2l.19-.17.33.38-.2.16-.32-.37zM71.79 24.92l.2-.17.32.39-.21.16-.31-.38zM24.06 19.7a34.9 34.9 0 00-7 7.14 34.54 34.54 0 00-4.63 8.84h-.15A34.73 34.73 0 0124 19.57zM13 33.48c-.18.42-.35.85-.51 1.28l-.5-.19.17-.45.35.13c.11-.28.23-.56.34-.83z"/><path class="cls-2" d="M12.2 34c.17-.44.35-.87.54-1.3l.49.22-.23.48-.35-.14-.34.84zM13.35 32.69l-.24-.11.13-.27.24.11-.13.27zM13.59 32.18l-.24-.11.13-.27.24.12-.13.26z"/><path class="cls-2" transform="rotate(-63.75 13.783 31.484)" d="M13.63 31.35h.29v.26h-.29z"/><path class="cls-2" transform="rotate(-62.67 14.04 30.982)" d="M13.89 30.85h.29v.26h-.29z"/><path class="cls-2" d="M14.35 30.68l-.23-.13.14-.26.23.13-.14.26zM14.62 30.18l-.24-.12.15-.26.23.13-.14.25zM30 78.06a33.43 33.43 0 007.33 2.58 34.61 34.61 0 007.72.87v.17a34.52 34.52 0 01-15.17-3.48zM43.25 81.77h1.07v.53h-.38V82h-.7z"/><path class="cls-2" d="M43.87 82.33h-1.1v-.54h.37v.36h.71zM42.58 81.73l-.02.26-.23-.02.02-.26.23.02zM42.14 81.7l-.02.26-.23-.02.02-.26.23.02zM41.71 81.66l-.03.26-.23-.02.03-.26.23.02zM41.27 81.61l-.03.27-.23-.03.04-.26.22.02zM40.84 81.56l-.03.27-.23-.03.03-.26.23.02z"/><path class="cls-2" transform="rotate(-82.44 40.274 81.625)" d="M40.14 81.51h.26v.23h-.26z"/><path class="cls-2" d="M54.34 75.81l.9-.31.12.33-.91.31zM75 49.17c0-.64.06-1.27.06-1.9h.35q0 1-.06 1.92zM74 55.2c.17-.61.32-1.23.45-1.85l.34.07c-.13.63-.28 1.25-.45 1.87zM73.05 58.11q.35-.88.63-1.8l.34.11c-.2.61-.41 1.22-.64 1.82zM66.44 68.32c.44-.45.88-.91 1.29-1.39l.27.23c-.42.48-.86 1-1.31 1.41zM64.18 70.39c.49-.4 1-.82 1.43-1.26l.24.26c-.47.44-.95.86-1.44 1.27zM59.1 73.79c.56-.29 1.11-.61 1.65-.94l.19.3c-.55.33-1.11.65-1.67.95zM68 65.65c.39-.48.76-1 1.12-1.49l.29.21c-.37.51-.74 1-1.14 1.5zM66 67.89c.44-.44.86-.89 1.27-1.36l.27.23c-.42.47-.84.93-1.29 1.38zM61.39 71.71c.52-.34 1-.7 1.51-1.08l.22.27c-.5.39-1 .75-1.54 1.1zM58.82 73.25c.54-.29 1.08-.6 1.61-.92l.19.29c-.54.33-1.08.65-1.64.94zM54 74.65l.86-.3.12.33c-.29.11-.58.2-.88.3zM73.46 52c.1-.6.18-1.21.24-1.81h.35c-.06.62-.14 1.23-.24 1.84zM72.83 54.88c.16-.59.3-1.18.43-1.78l.34.07c-.12.61-.27 1.21-.43 1.8zM70.71 60.35c.28-.55.54-1.09.78-1.65l.32.14c-.24.56-.51 1.12-.79 1.67zM69.24 62.89c.33-.51.65-1 1-1.56l.3.17c-.3.54-.62 1.06-.95 1.58zM63.4 69.45c.47-.39.93-.79 1.37-1.21l.24.26c-.45.42-.91.83-1.38 1.22zM61.05 71.2c.51-.33 1-.69 1.49-1.06l.21.28q-.75.58-1.5 1.08zM58.53 72.71c.54-.28 1.07-.59 1.59-.91l.18.31c-.53.32-1.06.62-1.61.91zM55.87 74c.56-.23 1.12-.47 1.67-.74l.15.32c-.56.27-1.12.52-1.69.75zM73.18 49.05c0-.59.06-1.19.06-1.78h.35q0 .9-.06 1.8zM72.86 51.91c.1-.59.17-1.18.23-1.77h.35q-.09.9-.24 1.8zM71.34 57.45c.22-.56.41-1.12.6-1.69l.33.11a26.4 26.4 0 01-.6 1.7zM68.73 62.56c.32-.5.63-1 .92-1.53l.31.17c-.3.53-.61 1-.94 1.55zM67.05 64.89c.37-.46.73-.94 1.07-1.43l.29.2c-.35.5-.71 1-1.09 1.45zM65.13 67c.42-.43.83-.87 1.22-1.32l.26.23c-.39.46-.8.9-1.23 1.33zM72.57 49q.06-.87.06-1.74H73q0 .88-.06 1.77zM72.25 51.81c.1-.58.18-1.15.24-1.73h.34c0 .59-.13 1.17-.23 1.76zM70.77 57.22c.21-.54.41-1.09.58-1.64l.34.1c-.18.57-.38 1.12-.59 1.67zM69.62 59.79c.27-.52.52-1 .75-1.58l.32.14a23.4 23.4 0 01-.76 1.6zM68.22 62.23q.47-.73.9-1.5l.31.17c-.29.52-.6 1-.92 1.52zM64.7 66.61c.41-.42.81-.85 1.19-1.29l.26.23c-.39.45-.79.88-1.2 1.3zM58 71.63c.51-.27 1-.56 1.52-.86l.18.29c-.5.31-1 .61-1.54.88zM55.41 72.82c.54-.22 1.07-.46 1.6-.71l.15.32c-.53.25-1.07.49-1.62.71zM53.4 72.9l.81-.28.12.33-.82.29zM71.65 51.71c.09-.56.17-1.13.23-1.7h.35c-.06.57-.14 1.15-.23 1.72zM71.06 54.39c.15-.55.29-1.1.4-1.66l.34.07c-.11.57-.25 1.13-.4 1.69zM67.71 61.9c.3-.48.6-1 .88-1.47l.3.17c-.28.51-.58 1-.89 1.49zM66.09 64.12c.36-.44.7-.9 1-1.36l.29.2c-.33.47-.68.93-1 1.38zM64.26 66.18c.4-.41.79-.82 1.16-1.26l.27.23c-.38.44-.77.86-1.18 1.27zM20.8 64.9c.18.26.37.51.57.76l-.28.22c-.2-.25-.39-.51-.58-.77zM52.51 76.34a35.2 35.2 0 001.83-.53l.11.33c-.61.2-1.23.38-1.85.54zM46.46 77.24c.64 0 1.27-.08 1.9-.15v.35q-1 .11-1.92.15zM43.41 77.22h1.9v.35c-.64 0-1.28 0-1.92-.05zM31.64 74.11c.57.28 1.15.55 1.73.79l-.13.33c-.6-.25-1.18-.53-1.75-.81zM29 72.59c.53.35 1.08.67 1.64 1l-.17.31c-.56-.31-1.12-.63-1.66-1zM24.18 68.81c.46.44.93.86 1.41 1.27l-.23.27c-.49-.41-1-.85-1.42-1.29zM34.66 74.77q.87.32 1.77.6l-.1.33c-.6-.18-1.2-.38-1.79-.61zM31.92 73.56c.55.28 1.12.54 1.69.78l-.14.32c-.58-.24-1.15-.51-1.71-.79zM26.86 70.34q.74.59 1.5 1.11l-.2.29c-.51-.36-1-.73-1.51-1.13zM24.61 68.36q.66.66 1.38 1.26l-.23.27c-.48-.41-.94-.83-1.4-1.27zM21.78 64.18c.18.25.37.49.55.73l-.27.22c-.19-.24-.38-.49-.56-.74zM49.33 75.73c.6-.08 1.2-.19 1.8-.32l.07.34c-.6.13-1.21.24-1.82.33zM46.41 76c.61 0 1.21-.08 1.82-.14v.34c-.62.07-1.23.12-1.85.15zM40.55 75.7c.6.09 1.21.17 1.81.22v.35c-.61-.06-1.22-.13-1.83-.23zM37.68 75.09c.59.16 1.18.29 1.78.41l-.07.34c-.61-.11-1.21-.25-1.8-.41zM29.64 71.56c.51.33 1 .64 1.57.93l-.21.31c-.54-.3-1.07-.61-1.59-.94zM27.24 69.86c.48.38 1 .74 1.47 1.09l-.2.29c-.51-.36-1-.72-1.48-1.1zM25 67.93q.66.63 1.35 1.23l-.23.26c-.46-.4-.92-.81-1.36-1.24zM23 65.78c.39.47.8.92 1.22 1.36l-.25.24c-.43-.45-.84-.91-1.24-1.37zM52.06 74.56c.58-.15 1.15-.31 1.72-.5l.1.34c-.57.19-1.15.35-1.73.5zM49.24 75.13c.59-.09 1.18-.19 1.76-.32l.07.34c-.59.13-1.18.24-1.78.33zM43.5 75.39h1.79v.35c-.6 0-1.2 0-1.8-.05zM37.83 74.5c.58.15 1.16.29 1.74.4l-.06.35c-.6-.12-1.18-.26-1.77-.41zM35.1 73.62c.55.21 1.12.41 1.69.58l-.1.33c-.58-.17-1.15-.37-1.72-.58zM32.46 72.46c.54.27 1.08.52 1.63.76l-.14.32c-.55-.24-1.1-.49-1.64-.76zM51.91 74c.56-.14 1.12-.31 1.68-.49l.11.34c-.57.18-1.13.34-1.71.49zM49.15 74.52c.58-.08 1.15-.18 1.72-.31l.08.35c-.58.12-1.16.23-1.75.31zM43.54 74.78h1.75v.35c-.59 0-1.18 0-1.77-.05zM40.74 74.49q.87.14 1.74.21v.35c-.58 0-1.17-.12-1.75-.21zM38 73.91c.56.15 1.13.28 1.7.39l-.06.35c-.58-.12-1.16-.25-1.73-.4zM32.74 71.92c.52.26 1 .51 1.58.73l-.13.33c-.55-.23-1.08-.48-1.61-.75zM25.88 67.05c.42.41.85.8 1.3 1.18l-.18.27c-.45-.39-.89-.79-1.31-1.2zM24 65c.37.45.76.88 1.16 1.3l-.25.25c-.41-.43-.8-.87-1.18-1.32zM23.26 63.1c.17.24.34.46.52.69l-.28.21-.5-.69zM49.06 73.92c.57-.08 1.13-.19 1.69-.31l.07.35c-.57.12-1.14.22-1.71.31zM46.32 74.19c.57 0 1.14-.07 1.71-.14v.35c-.58.07-1.15.11-1.73.14zM38.15 73.32c.55.14 1.1.27 1.66.38l-.07.35c-.56-.11-1.13-.25-1.68-.39zM35.53 72.48c.53.2 1.07.38 1.62.55l-.11.33c-.55-.16-1.1-.35-1.64-.55zM33 71.37c.51.26 1 .5 1.55.72l-.13.32c-.53-.22-1.06-.46-1.58-.72zM20.8 29.63l-.55.78-.29-.2c.18-.26.36-.53.55-.79zM19.73 63.33c.33.54.69 1.06 1.07 1.57l-.29.21q-.57-.78-1.08-1.59zM17 57.86c.22.59.47 1.18.73 1.76l-.32.14c-.26-.58-.51-1.18-.74-1.78zM16.06 54.94c.16.62.34 1.22.54 1.83l-.33.11c-.2-.61-.39-1.23-.55-1.85zM15.4 42.79c-.1.63-.17 1.26-.22 1.89h-.35c.05-.64.13-1.27.22-1.91zM16 39.79q-.24.93-.42 1.86l-.34-.06c.12-.64.26-1.26.42-1.88zM18.12 34.05c-.27.57-.54 1.15-.78 1.74l-.34-.14c.24-.59.51-1.17.79-1.75zM15.71 45.87v1.86h-.35v-1.89zM16 42.88c-.09.62-.16 1.24-.22 1.86h-.34c.05-.63.12-1.26.22-1.88zM17.49 37.08c-.22.58-.41 1.17-.59 1.77l-.34-.1c.19-.6.38-1.2.6-1.79zM18.67 34.32c-.27.56-.53 1.13-.76 1.7l-.33-.13c.24-.58.5-1.16.78-1.72zM21.78 30.35c-.18.25-.35.49-.52.75l-.26-.2c.17-.26.35-.51.53-.76zM19.31 60.12c.27.54.56 1.08.87 1.61l-.31.17c-.31-.53-.6-1.08-.87-1.62zM18.13 57.43c.22.57.45 1.13.7 1.68l-.32.15c-.25-.56-.49-1.13-.7-1.71zM16.64 51.75c.09.61.2 1.21.34 1.8l-.35.07c-.13-.6-.24-1.2-.34-1.81zM16.33 48.83c0 .61.08 1.22.16 1.82h-.35c-.07-.61-.13-1.22-.16-1.84zM17.19 40.1c-.15.59-.28 1.18-.4 1.78l-.34-.07c.11-.6.25-1.2.4-1.8zM18.06 37.29c-.21.57-.4 1.15-.57 1.73l-.34-.1c.18-.59.37-1.17.58-1.75zM19.22 34.59c-.27.55-.52 1.1-.75 1.67l-.32-.14c.23-.57.49-1.13.76-1.68zM20.65 32c-.32.51-.63 1-.92 1.57l-.31-.16c.3-.54.61-1.08.93-1.6zM21.27 62.35c.32.5.66 1 1 1.47L22 64c-.35-.49-.69-1-1-1.5zM19.86 59.84c.26.54.55 1.06.85 1.58l-.31.17c-.3-.52-.59-1.05-.86-1.59zM17.83 54.47c.15.58.32 1.15.51 1.72l-.34.11c-.19-.57-.36-1.15-.52-1.74zM16.94 48.8c0 .6.08 1.19.15 1.78h-.35q-.1-.9-.15-1.8zM16.93 45.93v1.78h-.35V45.9zM17.21 43.06c-.09.59-.16 1.19-.21 1.78h-.35q.08-.9.21-1.8zM21.79 62c.31.49.64 1 1 1.44l-.28.21c-.35-.48-.68-1-1-1.46zM20.4 59.57c.26.52.54 1 .83 1.54l-.3.18q-.45-.76-.84-1.56zM18.42 54.32c.15.56.32 1.12.5 1.67l-.33.11c-.19-.56-.36-1.12-.51-1.69zM17.84 51.57q.14.85.33 1.71l-.34.08q-.2-.87-.33-1.74zM17.55 48.77q0 .87.15 1.74h-.35c-.07-.58-.12-1.17-.15-1.76zM17.81 43.15c-.08.58-.15 1.16-.2 1.74h-.35c0-.59.12-1.17.21-1.76zM20.32 35.13c-.26.52-.5 1.06-.72 1.59l-.33-.13c.23-.54.47-1.08.73-1.61zM21.69 32.67c-.31.5-.61 1-.88 1.52L20.5 34c.28-.52.58-1 .89-1.53zM23.26 31.43c-.16.23-.33.46-.49.7l-.29-.2c.16-.24.33-.48.5-.71zM21 59.3c.25.51.53 1 .81 1.5l-.3.18c-.29-.5-.57-1-.82-1.52zM19.85 56.78c.2.53.42 1.06.65 1.58l-.32.14c-.23-.52-.46-1.06-.66-1.6zM18.16 48.74c0 .57.08 1.13.15 1.7h-.35c-.07-.57-.12-1.15-.15-1.72zM18.15 46v1.71h-.35v-1.73zM18.42 43.25c-.09.56-.15 1.13-.2 1.69h-.35c.05-.57.12-1.15.2-1.72zM54.34 18.73l-.91-.29.1-.33.92.28zM22 28.13c-.4.49-.79 1-1.16 1.5l-.29-.21c.38-.52.77-1 1.18-1.52zM26.32 23.84c-.49.4-1 .81-1.44 1.24l-.24-.26c.47-.43 1-.85 1.46-1.25zM28.8 22.05c-.53.34-1.05.71-1.56 1.08l-.24-.28c.52-.38 1-.75 1.58-1.09zM40.16 17.66c-.63.11-1.25.23-1.87.37l-.08-.34c.63-.14 1.26-.27 1.89-.37zM43.2 17.32c-.63 0-1.27.1-1.9.18v-.35q1-.12 1.92-.18zM49.3 17.56q-.93-.14-1.89-.21v-.34c.64 0 1.28.11 1.92.2zM37.33 18.91c-.61.16-1.2.34-1.79.54l-.11-.33c.59-.2 1.19-.39 1.8-.55zM40.26 18.27q-.93.15-1.83.36l-.08-.34c.61-.14 1.23-.27 1.85-.37zM46.23 17.9h-1.86v-.35h1.89zM49.22 18.17C48.6 18.08 48 18 47.37 18v-.35c.63.05 1.26.12 1.88.21zM54 19.89l-.88-.27.1-.34.88.27zM24.89 26.74q-.64.65-1.26 1.32l-.26-.23c.41-.46.84-.9 1.28-1.34zM27.09 24.79c-.48.38-.94.78-1.39 1.19l-.24-.26q.69-.62 1.41-1.2zM32 21.61c-.54.28-1.07.57-1.6.88l-.18-.3c.53-.31 1.08-.61 1.62-.89zM34.7 20.41c-.57.22-1.13.46-1.69.71l-.14-.31c.56-.26 1.12-.5 1.7-.72zM43.27 18.54c-.61 0-1.21.09-1.81.17l-.05-.35c.61-.07 1.23-.13 1.84-.17zM46.21 18.51h-1.83v-.35h1.84zM49.13 18.77c-.6-.08-1.2-.15-1.81-.2v-.35c.61.05 1.22.12 1.83.2zM52 19.33c-.59-.15-1.19-.27-1.79-.38l.06-.35c.61.11 1.21.24 1.81.39zM23.37 29.3c-.38.46-.74.93-1.09 1.41L22 30.5c.36-.49.73-1 1.11-1.43zM25.32 27.18c-.43.42-.84.85-1.24 1.29l-.26-.23c.41-.45.82-.89 1.25-1.31zM29.8 23.59q-.75.48-1.47 1l-.21-.28c.49-.36 1-.71 1.49-1zM34.91 21c-.55.22-1.1.45-1.64.7l-.15-.32c.55-.25 1.11-.49 1.67-.71zM37.64 20.09c-.57.15-1.14.33-1.7.52l-.12-.33c.57-.2 1.15-.37 1.73-.53zM40.45 19.47c-.58.1-1.17.22-1.75.35l-.08-.34c.59-.14 1.18-.26 1.78-.35zM23.84 29.69c-.37.45-.73.91-1.07 1.38l-.28-.21c.34-.48.71-.94 1.08-1.4zM25.75 27.62c-.42.4-.82.83-1.21 1.26l-.26-.23c.39-.44.8-.87 1.22-1.28zM30.13 24.1c-.49.32-1 .65-1.44 1l-.2-.28c.47-.36 1-.69 1.45-1zM32.57 22.7c-.52.26-1 .55-1.53.84l-.18-.3c.51-.3 1-.59 1.55-.85zM35.14 21.55c-.55.21-1.09.44-1.61.68l-.15-.32c.53-.24 1.08-.47 1.63-.68zM40.55 20.08q-.86.14-1.71.33l-.08-.34c.58-.13 1.15-.24 1.74-.34zM49 20c-.57-.08-1.15-.14-1.73-.19v-.35c.59 0 1.18.11 1.76.19zM51.72 20.52c-.56-.14-1.13-.27-1.71-.37l.07-.34c.58.1 1.15.22 1.73.37zM53.4 21.63l-.82-.25.1-.34.83.26zM26.18 28.05c-.41.4-.8.81-1.19 1.24l-.26-.24c.39-.43.79-.84 1.2-1.25zM28.23 26.22c-.44.36-.88.73-1.3 1.11l-.23-.25c.42-.39.86-.77 1.31-1.13zM35.36 22.12c-.54.21-1.06.43-1.58.67l-.14-.32c.52-.24 1-.47 1.59-.67zM38 21.26c-.55.15-1.1.32-1.64.51l-.11-.34c.55-.18 1.1-.35 1.66-.5zM40.65 20.68c-.56.09-1.12.2-1.67.33l-.08-.34c.56-.13 1.13-.24 1.69-.34zM75.07 47.27v-1h.35v1z"/><path class="cls-2" d="M56.13 19.37c-.59-.23-1.18-.45-1.79-.64l.11-.34c.61.2 1.22.42 1.81.66zM61.56 22.2c-.53-.35-1.07-.69-1.62-1l.17-.3c.56.31 1.1.65 1.64 1zM64 24c-.49-.4-1-.79-1.51-1.16l.21-.28q.78.55 1.53 1.17zM71.71 33.44c-.3-.56-.61-1.11-.94-1.66l.3-.18c.33.55.65 1.11.94 1.68zM73 36.23c-.24-.59-.49-1.17-.76-1.75l.32-.15c.27.58.52 1.17.76 1.77zM74.63 42.12c-.11-.63-.24-1.25-.38-1.87l.34-.08q.22.94.39 1.89zM69.64 31.14c-.34-.52-.69-1-1.07-1.53l.28-.21c.38.51.74 1 1.09 1.55zM71.16 33.73c-.29-.56-.59-1.1-.91-1.63l.3-.18c.32.54.63 1.09.92 1.64zM73.37 39.3c-.17-.6-.36-1.19-.56-1.78l.32-.12q.32.9.57 1.8zM74 42.22c-.11-.61-.23-1.22-.38-1.82l.34-.08c.15.61.28 1.22.38 1.84zM73.85 47.27v-.92h.35v.93zM58.35 21.73c-.54-.28-1.09-.55-1.64-.79l.14-.32c.56.24 1.12.51 1.66.8zM60.88 23.22c-.51-.34-1-.66-1.55-1l.17-.3c.54.3 1.06.63 1.58 1zM65.43 26.93c-.43-.44-.87-.85-1.33-1.25l.23-.27c.46.41.91.83 1.35 1.27zM67.4 29.11c-.39-.48-.78-.94-1.2-1.38l.26-.24c.42.45.82.92 1.21 1.39zM71.84 36.68c-.22-.57-.47-1.13-.73-1.68l.32-.15c.26.56.51 1.13.74 1.7zM72.78 39.46c-.17-.58-.35-1.16-.55-1.74l.33-.12c.2.59.39 1.17.56 1.77zM73.43 42.33c-.11-.6-.23-1.2-.37-1.79l.34-.08c.14.6.27 1.2.37 1.81zM73.78 45.24c0-.6-.1-1.21-.19-1.81h.35c.08.61.15 1.22.19 1.84zM55.46 21.07q-.84-.33-1.68-.6l.1-.34c.58.19 1.15.4 1.71.62zM58.07 22.27c-.53-.28-1.06-.53-1.61-.77l.14-.33c.55.25 1.1.51 1.63.79zM62.87 25.43c-.47-.38-.94-.74-1.42-1.09l.2-.28c.49.35 1 .72 1.44 1.1zM66.92 29.49q-.56-.69-1.17-1.35l.25-.24c.41.45.8.9 1.19 1.37zM68.62 31.81c-.32-.5-.67-1-1-1.46l.27-.21c.37.48.71 1 1 1.48zM70.08 34.29c-.28-.53-.57-1-.88-1.56l.3-.18c.31.52.61 1 .89 1.58zM55.23 21.64c-.54-.21-1.09-.41-1.64-.59l.11-.34c.56.19 1.11.39 1.66.61zM57.79 22.81c-.52-.27-1-.52-1.58-.76l.15-.32c.53.24 1.07.5 1.59.77zM62.48 25.9c-.45-.37-.92-.72-1.39-1.06l.2-.28c.48.34 1 .7 1.41 1.07zM64.56 27.79c-.41-.41-.83-.81-1.27-1.2l.23-.26c.44.39.88.79 1.29 1.21zM66.45 29.88c-.37-.45-.75-.9-1.15-1.32l.26-.24c.4.43.79.88 1.16 1.34zM69.53 34.57c-.26-.52-.55-1-.85-1.52l.3-.18c.31.5.59 1 .87 1.54zM72.22 42.54c-.1-.58-.21-1.15-.35-1.72l.34-.08c.14.58.26 1.15.36 1.74zM72.56 45.33q-.06-.87-.18-1.74l.35-.05c.08.59.14 1.17.18 1.76zM72 47.27v-.86h.35v.87zM57.5 23.35c-.5-.26-1-.51-1.53-.74l.14-.32q.8.36 1.56.75zM59.87 24.75c-.47-.32-1-.62-1.45-.9l.17-.3c.51.28 1 .59 1.48.9zM66 30.26c-.36-.44-.74-.87-1.12-1.29l.25-.24c.4.43.77.86 1.14 1.31zM67.6 32.48c-.31-.47-.64-.94-1-1.4l.28-.21c.35.46.68.94 1 1.42zM69 34.85c-.26-.5-.54-1-.83-1.49l.3-.18c.3.49.58 1 .84 1.51zM70.19 42.72a25.48 25.48 0 00-23-20.89l.23-2.92q-1.16-.09-2.31-.09v3.55a24.85 24.85 0 0116 5.79 25.13 25.13 0 015.56 6.59 24.69 24.69 0 013 8.08z"/><path class="cls-2" d="M72.05 47.27a27 27 0 00-13.42-23.33 26.67 26.67 0 00-8.76-3.23l-.87 4.6c.58.11 1.15.23 1.71.38l1-3.89a26.35 26.35 0 0117.38 14.69l-1.3.59A25 25 0 0170 47.27z"/><path class="cls-2" d="M59.76 31.8c-.27-.26-.55-.51-.83-.76l-.58.68c.27.23.54.47.8.72zM62.54 35c-.22-.31-.44-.61-.67-.9l-.71.54c.23.29.44.58.65.87zM64.6 38.65c-.15-.34-.31-.68-.48-1l-.8.4c.17.32.32.64.46 1zM58.71 30.86c-.29-.24-.59-.48-.88-.7l-.54.71.85.67z"/><path class="cls-2" d="M62.82 35.43c-.2-.31-.42-.62-.64-.92l-.72.53c.22.29.43.58.63.88zM66 42.88c-.08-.37-.17-.73-.26-1.09l-.86.22q.14.52.24 1.05zM65.41 40.82a21.41 21.41 0 00-1-2.69l-.81.38a19.22 19.22 0 011 2.58zM61.14 33.24a21 21 0 00-2-2.06l-.58.67a21.55 21.55 0 012 2zM56.9 29.51a21.53 21.53 0 00-2.51-1.45l-.39.8a21.47 21.47 0 012.41 1.39z"/><path class="cls-2" d="M62.53 35c-.22-.31-.44-.61-.67-.91l-.7.55c.22.29.43.57.64.87zM50.92 26.74l-1.08-.28-.2.87c.35.08.69.17 1 .27zM57 29.6c-.31-.21-.63-.41-.95-.61l-.46.76.91.58zM64.66 20.44a34.55 34.55 0 00-3.31-2.13l1-1.73a35.32 35.32 0 00-7.76-3.22l-1 3.63a31.34 31.34 0 0110.06 4.89zM73.57 41.57a29.1 29.1 0 00-1.48-5L76 35c-.3-.77-.63-1.52-1-2.26l-1.6.78c.11.22.21.44.31.66l-3.27 1.5a27.71 27.71 0 012 6.1z"/><path class="cls-2" d="M60.22 17.7c-.87-.44-1.75-.85-2.66-1.22l-.67 1.65c.86.35 1.7.73 2.52 1.15zM64.42 20.27c-.79-.57-1.6-1.1-2.44-1.6l-.9 1.54c.79.46 1.56 1 2.31 1.51zM72.27 28.2c-.13-.18-.26-.37-.39-.54l-1.44 1.05.37.51zM69.14 24.39a7 7 0 00-.46-.48l-1.26 1.25.44.45zM65.5 21.07l-.53-.4-1.07 1.42.5.39zM67.38 22.66l-.5-.44-1.16 1.34.47.42zM70.78 26.23l-.43-.51L69 26.88l.4.48zM73.61 30.27l-.35-.57-1.51.94.33.54zM75.81 34.68c-.08-.21-.17-.41-.25-.62l-1.64.71c.09.19.17.39.25.58zM74.79 32.43l-.3-.59-1.58.82.29.56z"/><path class="cls-2" transform="rotate(-15.22 67.91 41.108)" d="M67.45 41.02h.93v.18h-.93z"/><path class="cls-2" transform="rotate(-22.1 66.945 38.298)" d="M66.5 38.2h.93v.18h-.93z"/><path class="cls-2" transform="rotate(-19.53 67.425 39.453)" d="M66.94 39.36h.93v.18h-.93z"/><path class="cls-2" transform="rotate(-17.54 67.66 40.202)" d="M67.19 40.11h.93v.18h-.93z"/><path class="cls-2" d="M67.89 43.08l-.04-.17.92-.18.03.19-.91.16zM67.55 41.52l-.05-.17.9-.23.04.18-.89.22zM67.96 43.51l-.03-.18.91-.16.04.19-.92.15zM68.02 43.9l-.03-.18.92-.14.03.19-.92.13z"/><path class="cls-2" transform="rotate(-8.83 68.48 43.723)" d="M67.99 43.59h.93v.18h-.93z"/><path class="cls-2" d="M67.02 39.77l-.05-.17.87-.3.06.17-.88.3z"/><path class="cls-2" transform="rotate(-3.14 68.664 45.88)" d="M68.22 45.76h.93v.18h-.93z"/><path class="cls-2" d="M67.86 42.95l-.04-.18.92-.18.03.18-.91.18zM68.22 45.87l-.01-.18.92-.06.01.19-.92.05z"/><path class="cls-2" transform="rotate(-5.32 68.665 44.93)" d="M68.14 44.82h.93V45h-.93z"/><path class="cls-2" d="M53.69 19.45l-.21-.07.26-.89.23.07-.28.89zM50.12 18.59l-.22-.04 1.28-7.63.27.05-1.33 7.62zM51.62 18.89l-.21-.05.19-.91.23.05-.21.91zM52.56 19.12l-.21-.05.23-.9.22.06-.24.89zM55.84 20.21l-.21-.09.33-.86.22.08-.34.87zM53.95 19.53l-.22-.07.28-.89.22.07-.28.89zM56.34 20.41l-.21-.09.35-.86.22.09-.36.86zM56.79 20.61l-.2-.09.37-.86.21.1-.38.85z"/><path class="cls-2" transform="rotate(-66.68 56.807 20.101)" d="M56.34 19.99h.93v.23h-.93z"/><path class="cls-2" d="M51.73 18.92l-.22-.05.21-.91.22.05-.21.91z"/><path class="cls-2" transform="rotate(-61.08 59.247 21.303)" d="M58.79 21.19h.93v.23h-.93z"/><path class="cls-2" transform="rotate(-69.12 55.743 19.667)" d="M55.27 19.55h.93v.23h-.93z"/><path class="cls-2" d="M59.02 21.71l-.19-.11.44-.82.2.11-.45.82zM58.1 21.22l-.2-.1.41-.83.21.1-.42.83zM53.17 25.53l-.7-.25.29-.88.73.26zM57.56 27.72l-.6-.37.47-.8.63.39zM58.02 28.02l-.34-.22.51-.78.34.23-.51.77zM59.02 28.74l-.21-.15.56-.75.21.16-.56.74zM61.88 31.29l-.64-.65.64-.67c.23.22.46.45.67.68z"/><path class="cls-2" transform="rotate(-34.98 64.433 33.665)" d="M63.96 33.6h.93v.14h-.93z"/><path class="cls-2" d="M54.55 26.09l-.68-.29.35-.86.71.31zM57.07 27.42c-.21-.13-.41-.25-.62-.36l.46-.81.64.37zM59.3 28.95l-.32-.24.56-.75.33.26-.57.73zM61.4 30.8l-.19-.18.65-.67.19.19-.65.66zM63.51 33.2q-.28-.37-.57-.72l.71-.59.6.74zM64.9 35.24l-.07-.11.8-.49.06.12-.79.48zM26.39 27.64a27.08 27.08 0 00-5.09 32.62L20 61c.37.68.77 1.35 1.2 2l1.48-1a26.71 26.71 0 01-4.23-17.76 27.2 27.2 0 012.63-8.9 26.51 26.51 0 015.51-7.45z"/><path class="cls-2" d="M29.78 24a27.72 27.72 0 00-11.34 15.2 28.17 28.17 0 00-1.15 9.57 27.63 27.63 0 002.19 9.38l2.15-.92c-.27-.62-.5-1.24-.72-1.87L19 56a27.53 27.53 0 012.87-23.54l.61.39a26.61 26.61 0 017.87-8z"/><path class="cls-2" d="M20.47 42.84c-.08.43-.14.87-.2 1.3l.44.06c.06-.43.12-.86.2-1.28zM21.83 38.07q-.24.61-.45 1.23l.42.14c.13-.4.28-.81.44-1.21zM24.07 33.7c-.24.37-.47.75-.69 1.13l.39.22c.21-.38.44-.75.67-1.11zM20.23 44.48c-.05.43-.09.87-.11 1.31h.44c0-.43.06-.86.11-1.29z"/><path class="cls-2" d="M22.05 37.51q-.26.62-.48 1.23l.42.15c.15-.41.31-.81.47-1.2zM27.33 29.65c-.31.31-.61.63-.9 1l.33.3c.29-.32.58-.63.89-.94zM25.66 31.5a24.34 24.34 0 00-1.95 2.78l.38.23A23.4 23.4 0 0126 31.79zM21 40.57a26.8 26.8 0 00-.69 3.32l.44.06a24.66 24.66 0 01.68-3.27zM20.07 47.12a23.88 23.88 0 00.21 3.38h.44a24.8 24.8 0 01-.2-3.33z"/><path class="cls-2" d="M21.82 38.09q-.24.6-.45 1.23l.42.14c.14-.41.29-.81.44-1.21zM21.22 54.76c.13.41.27.83.42 1.24l.42-.16c-.15-.4-.29-.81-.42-1.22zM20.07 46.92v1.32h.45v-1.29zM14.17 45.75a30 30 0 000 3.67l-1 .07A32.24 32.24 0 0014.64 57l1.8-.57a30 30 0 01-1.38-10.6zM24.79 26.73a28.77 28.77 0 00-3.35 4l-1.7-1.19c-.44.63-.86 1.27-1.25 1.93l.76.45c.13-.2.25-.4.37-.6l1.52 1a28.15 28.15 0 014.08-5.08z"/><path class="cls-2" d="M14.31 50.61c.1.9.24 1.8.41 2.69l.88-.17a26.14 26.14 0 01-.4-2.61zM14.16 46v2.72h.89a25.83 25.83 0 010-2.64zM16.31 35.86l-.22.58.83.31c.07-.19.14-.37.22-.56zM14.94 40.24c0 .2-.09.41-.13.61l.87.18c0-.19.09-.39.13-.58zM14.23 44.78v.62l.89.05v-.6zM14.51 42.5c0 .2-.07.41-.09.61l.88.12q0-.3.09-.6zM15.55 38l-.18.59.85.25.18-.58zM17.24 33.76l-.27.56.81.37c.08-.18.17-.36.26-.54zM19.54 29.79l-.35.51.75.49.33-.5zM18.31 31.73l-.3.54.78.43.29-.52zM25.74 29.98l-.13.15-.35-.31.13-.15.35.31zM23.72 32.55l-.11.16-.38-.26.11-.17.38.27z"/><path class="cls-2" transform="rotate(-52.77 24.28 31.387)" d="M24.18 31.15h.2v.47h-.2z"/><path class="cls-2" d="M25.06 30.77l-.12.16-.37-.3.13-.15.36.29zM27.15 28.53l-.15.14-.32-.34.15-.14.32.34z"/><path class="cls-2" transform="rotate(-47.56 25.658 29.72)" d="M25.56 29.49h.2v.46h-.2z"/><path class="cls-2" transform="rotate(-42.63 27.28 28.097)" d="M27.17 27.87h.2v.46h-.2z"/><path class="cls-2" d="M27.83 27.9l-.15.14-.31-.35.15-.14.31.35z"/><path class="cls-2" d="M27.78 27.95l-.15.14-.31-.35.15-.14.31.35zM24.59 31.37l-.13.16-.37-.29.13-.16.37.29zM29.63 26.44l-.16.12-.28-.37.17-.12.27.37zM27.04 28.64l-.14.13-.33-.33.15-.14.32.34z"/><path class="cls-2" transform="rotate(-37 29.34 26.38)" d="M29.23 26.15h.2v.46h-.2z"/><path class="cls-2" transform="rotate(-38.89 28.596 26.963)" d="M28.49 26.72h.2v.47h-.2z"/><path class="cls-2" d="M17.31 55.29l.07.21-.45.13-.06-.21.44-.13zM18.55 58.71l.09.21-3.54 1.56-.1-.23 3.55-1.54z"/><path class="cls-2" transform="rotate(-20.82 17.799 57.485)" d="M17.57 57.38h.46v.22h-.46z"/><path class="cls-2" transform="rotate(-18.9 17.475 56.564)" d="M17.24 56.46h.47v.22h-.47z"/><path class="cls-2" d="M16.77 53.1l.05.21-.46.1-.04-.22.45-.09zM17.24 55.03l.06.21-.45.13-.06-.22.45-.12zM16.67 52.57l.04.22-.46.09-.04-.22.46-.09zM16.58 52.08l.04.22-.46.08-.04-.22.46-.08z"/><path class="cls-2" transform="matrix(.99 -.17 .17 .99 -8.5 3.47)" d="M16.15 52.2h.46v.22h-.46z"/><path class="cls-2" d="M17.94 57.2l.08.21-.44.16-.08-.21.44-.16z"/><path class="cls-2" transform="rotate(-4.52 16.06 49.614)" d="M15.81 49.54h.46v.22h-.46z"/><path class="cls-2" d="M16.81 53.26l.04.22-.45.1-.05-.22.46-.1zM16.28 49.63l.02.23-.47.04-.02-.23.47-.04z"/><path class="cls-2" transform="rotate(-6.81 16.205 50.805)" d="M15.93 50.69h.46v.22h-.46z"/><path class="cls-2" d="M19.79 53.05c.07.27.13.54.2.81l-.45.12c-.07-.27-.14-.55-.2-.82zM19.15 47.6v.8h-.47v-.82zM19.15 46.99l-.01.45-.46.01v-.46h.47z"/><path class="cls-2" transform="rotate(-86.9 18.96 45.741)" d="M18.81 45.51h.29v.46h-.29z"/><path class="cls-2" d="M19.83 41.38c-.08.33-.15.67-.22 1l-.45-.08c.06-.35.13-.69.21-1zM20.99 37.67l-.06.14-.43-.17.05-.14.44.17zM19.48 51.42c0 .27.09.54.14.82l-.46.08c-.05-.27-.1-.55-.14-.83zM19.16 48.25v.8h-.46v-.81zM19.23 45.22l-.03.45-.47-.02.03-.46.47.03z"/><path class="cls-2" d="M19.66 42.13l-.05.29-.46-.09.06-.29.45.09zM20.6 38.69c-.11.32-.21.65-.31 1l-.45-.14q.15-.49.33-1zM21.66 36.14l-.07.13-.42-.2.06-.13.43.2z"/><path d="M45.66 87.17a39.53 39.53 0 1139.53-39.53 39.58 39.58 0 01-39.53 39.53zm0-78.06a38.53 38.53 0 1038.53 38.53A38.58 38.58 0 0045.66 9.11z" fill="#9c9c9c"/><path d="M45.66 76.72a29.08 29.08 0 1129.08-29.08 29.11 29.11 0 01-29.08 29.08zm0-55.15a26.08 26.08 0 1026.08 26.07 26.11 26.11 0 00-26.08-26.07z" fill="#595959"/><path d="M45.66 66.24a18.6 18.6 0 1118.6-18.6 18.61 18.61 0 01-18.6 18.6zm0-36.69a18.1 18.1 0 1018.1 18.09 18.12 18.12 0 00-18.1-18.09z" fill="#b3b3b3"/></g></g></g></svg>