<svg xmlns="http://www.w3.org/2000/svg" viewBox="0 0 114.81 114.57"><defs><style>.cls-2{fill:#00b4eb}</style></defs><g id="图层_2" data-name="图层 2"><g id="Layer_2" data-name="Layer 2"><circle cx="57.46" cy="57.46" r="37.97" transform="rotate(-23.06 57.462 57.472)" fill="none" stroke="#00b4eb" stroke-miterlimit="10"/><path class="cls-2" d="M57.46 19.49H52.66l-.71.1h-1.56c-.39.07-.78.15-1.16.24H48.81a38 38 0 00-8.53 3.13H38.88l-.31.17H37.2a38.06 38.06 0 00-6.64 5.35l2.13 2.11a34.73 34.73 0 0124.77-8.1v-3zM22.27 43.17a37.59 37.59 0 00-2.71 12v.54a1.93 1.93 0 000 .24 37.89 37.89 0 002.23 10.68 1.07 1.07 0 01.07.19H22c.16.42.33.84.51 1.25l2.76-1.18a35.1 35.1 0 01-.25-26.92l-2.78-1.13zm10.81 39.36L31 84.68a37.93 37.93 0 0020.26 10.25h.17L52 95h6.21v-3h-.65a34.79 34.79 0 01-24.38-9.9zM90.11 70a35.23 35.23 0 01-18.6 19.47l1.21 2.75a38.35 38.35 0 006.67-3.78l.27-.19h.72l.17-.13h.17A38.13 38.13 0 0092.91 71.1l-2.8-1.1zm-6.68-40.24L81.37 32a34.64 34.64 0 0111 24.54l3-.08c0-.46 0-.93-.06-1.39q0-.72-.12-1.44v-.53c-.05-.47-.11-.93-.18-1.39v-.06c-.06-.31-.11-.62-.17-.92 0-.19-.08-.38-.13-.57V48.6h-.23v-.22h-.84v-.13h-.44c-.06-.18-.13-.35-.19-.52h-.07v-.08l-.33-.75v-.1h-.69c-.13-.28-.27-.55-.4-.82-.15-.29-.31-.57-.47-.86h-.22c-.11-.18-.22-.35-.32-.53h-1.28a38.84 38.84 0 00-5-5.67zm-26-10.27v3a35 35 0 0112.29 2.21l1-2.81a37.68 37.68 0 00-10-2.26h-3.26z"/><circle cx="57.46" cy="57.46" r="46.09" stroke-dasharray=".3 3" stroke-width="3" fill="none" stroke="#00b4eb" stroke-miterlimit="10"/><circle cx="57.46" cy="57.46" r="54.46" transform="rotate(-23.31 57.465 57.468)" stroke-width="3" fill="none" stroke="#00b4eb" stroke-miterlimit="10"/><path class="cls-2" d="M57.46 0c-1.76 0-3.53.08-5.27.24l.27 3c.93-.09 1.86-.15 2.8-.19h2.2V0zM36.82 3.82c-1.63.63-3.25 1.34-4.83 2.12l1.34 2.69c1-.48 1.94-.93 2.93-1.35.54-.23 1.09-.45 1.64-.66l-1.08-2.8zM19 14.81c-1.3 1.17-2.56 2.42-3.75 3.71l2.21 2c.78-.84 1.58-1.66 2.41-2.45l.14-.12L21 17l-2-2.23zM6.2 31.47C5.4 33 4.67 34.65 4 36.28l2.79 1.11c.09-.24.18-.46.28-.69l.06-.14h.06c0-.06.05-.11.07-.17q.42-1 .87-1.92v-.07c.15-.32.31-.64.47-1l-2.4-1.93zM.29 51.61C.12 53.35 0 55.12 0 56.87h3v-.98c0-1 .09-2 .18-2.95v-.44l-3-.3zm4.6 20.13L2 72.52c.46 1.69 1 3.38 1.62 5l2.81-1c-.37-1-.71-2-1-3v-.08h-.16c-.11-.38-.22-.75-.32-1.13zm8.63 17.91l-2.41 1.78c1 1.41 2.14 2.79 3.31 4.1l2.24-2c-1.1-1.25-2.15-2.54-3.14-3.89zM28 103.28l-1.63 2.52c1.48 1 3 1.84 4.56 2.65l1.39-2.66-.21-.11h-.44c-.88-.48-1.75-1-2.6-1.5h-.2l-.87-.55zm18.41 7.52l-.61 2.94c1.72.35 3.47.63 5.21.83l.33-3q-.95-.1-1.89-.24H47.85c-.47-.08-.94-.17-1.4-.27zm24.78-.62l-.3.07h-2.21l-.53.11h-1l-.86.15.49 3c1.73-.28 3.47-.65 5.16-1.09l-.75-2.9zm18-8.46l-.21.15h-.18l-.11.07h-.08c-1.15.8-2.33 1.56-3.53 2.27h-.07l1.52 2.79c1.51-.89 3-1.86 4.42-2.88l-1.75-2.44zM103 87.38c-.32.49-.64 1-1 1.44h-.09c-.57.81-1.17 1.6-1.78 2.37l2.34 1.88c1.09-1.37 2.14-2.81 3.1-4.27L103 87.38zm7.71-18.33c-.07.33-.14.67-.22 1-.29 1.16-.61 2.31-1 3.45l2.86.9c.53-1.67 1-3.38 1.36-5.1l-2.94-.63zm3.58-20.34l-3 .46c.06.35.11.7.15 1.06.15 1.2.27 2.41.34 3.63l3-.18c-.1-1.75-.29-3.52-.55-5.25zm-6.96-19.81l-2.6 1.49h.06c.75 1.33 1.45 2.69 2.08 4.09l2.73-1.25c-.73-1.59-1.54-3.17-2.41-4.69zm-13.58-16l-1.9 2.32.31.26h.08l.14.12H93.2c.74.65 1.47 1.32 2.17 2h.14l2.1-2.15c-1.25-1.22-2.57-2.4-3.93-3.51zM75.34 2.84l-.93 2.85q2.39.78 4.67 1.77l1.19-2.75C78.66 4 77 3.38 75.34 2.84zM57.46 0v3h2.23l.12-3h-2.35z"/></g></g></svg>