<svg xmlns="http://www.w3.org/2000/svg" viewBox="0 0 103.87 103.87"><defs><style>.cls-1{fill:#fff}</style></defs><g id="图层_2" data-name="图层 2"><g id="图层_1-2" data-name="图层 1"><path class="cls-1" d="M51.93 96.61a44.68 44.68 0 1144.68-44.68 44.72 44.72 0 01-44.68 44.68m0-84.14A39.47 39.47 0 1091.4 51.93a39.5 39.5 0 00-39.47-39.46m0 85A45.54 45.54 0 106.4 51.93a45.59 45.59 0 0045.53 45.54zm0-84.13a38.6 38.6 0 11-38.59 38.59 38.63 38.63 0 0138.59-38.59z"/><path d="M13 50a39 39 0 0178 0h6a45.1 45.1 0 00-90.12 0z" opacity=".5" fill="#fff"/><path class="cls-1" transform="rotate(180 52.18 101.685)" d="M51.77 99.5h.81v4.37h-.81z"/><path class="cls-1" transform="rotate(135 87.286 86.937)" d="M86.88 84.75h.81v4.37h-.81z"/><path class="cls-1" transform="rotate(90 101.68 51.69)" d="M101.28 49.5h.81v4.37h-.81z"/><path class="cls-1" transform="rotate(45 86.941 16.582)" d="M86.53 14.4h.81v4.37h-.81z"/><path class="cls-1" d="M51.28 0h.81v4.37h-.81z"/><path class="cls-1" transform="rotate(-45 16.592 16.928)" d="M16.18 14.74h.81v4.37h-.81z"/><path class="cls-1" transform="rotate(-90 2.19 52.18)" d="M1.78 49.99h.81v4.37h-.81z"/><path class="cls-1" transform="rotate(-135 16.93 87.287)" d="M16.53 85.1h.81v4.37h-.81z"/><path class="cls-1" transform="rotate(164.99 64.672 99.166)" d="M64.47 98.07h.41v2.19h-.41z"/><path class="cls-1" transform="rotate(150.02 76.458 94.264)" d="M76.26 93.17h.41v2.19h-.41z"/><path class="cls-1" transform="matrix(-.5 .87 -.87 -.5 207.63 32.84)" d="M94.13 75.24h.41v2.19h-.41z"/><path class="cls-1" transform="rotate(104.97 99.204 64.52)" d="M99 63.43h.41v2.19H99z"/><path class="cls-1" transform="rotate(75.03 99.174 39.205)" d="M98.97 38.11h.41v2.19h-.41z"/><path class="cls-1" transform="matrix(.5 .87 -.87 .5 70.9 -67.94)" d="M94.06 26.32h.41v2.19h-.41z"/><path class="cls-1" transform="rotate(30 76.338 9.545)" d="M76.13 8.44h.41v2.19h-.41z"/><path class="cls-1" transform="rotate(14.97 64.525 4.646)" d="M64.32 3.57h.41v2.19h-.41z"/><path class="cls-1" transform="rotate(-15.01 39.228 4.705)" d="M39 3.61h.41V5.8H39z"/><path class="cls-1" transform="rotate(-30 27.407 9.604)" d="M27.21 8.51h.41v2.19h-.41z"/><path class="cls-1" transform="rotate(-60 9.53 27.534)" d="M9.33 26.45h.41v2.19h-.41z"/><path class="cls-1" transform="rotate(-75 4.64 39.18)" d="M4.46 38.25h.41v2.19h-.41z"/><path class="cls-1" transform="rotate(-105.01 4.704 64.668)" d="M4.5 63.57h.41v2.19H4.5z"/><path class="cls-1" transform="rotate(-120 9.605 76.461)" d="M9.4 75.37h.41v2.19H9.4z"/><path class="cls-1" transform="rotate(-150 27.535 94.341)" d="M27.34 93.24h.41v2.19h-.41z"/><path class="cls-1" transform="rotate(-164.99 39.343 99.208)" d="M39.14 98.11h.41v2.19h-.41z"/></g></g></svg>