<svg xmlns="http://www.w3.org/2000/svg" viewBox="0 0 40.5 28.04"><g data-name="图层 2"><path d="M39.59 6.36q-2.66 1.93-5 4a3 3 0 00-.92 2.34c.1 1 .2 1.92.28 2.88a2.34 2.34 0 01-1.24 2c-.67.35-1.34.72-2 1.09a1.85 1.85 0 01-2.22-.36c-.87-1-1.79-1.93-2.75-2.86a1.87 1.87 0 01-.36-2.22c.68-1.09 1.4-2.16 2.15-3.22a2.21 2.21 0 00-.05-2.38A70.36 70.36 0 0021.37.47a1.56 1.56 0 00-2.24 0 70.36 70.36 0 00-6.08 7.23 2.21 2.21 0 00-.05 2.38c.75 1.06 1.47 2.13 2.15 3.22a1.87 1.87 0 01-.36 2.22c-1 .93-1.88 1.89-2.75 2.86a1.85 1.85 0 01-2.22.36c-.65-.37-1.32-.74-2-1.09a2.34 2.34 0 01-1.24-2c.08-1 .18-1.92.29-2.88A3.07 3.07 0 006 10.4q-2.38-2.1-5-4c-.67-.49-1.06-.3-.85.4Q3 16.93 6 27.08a1.4 1.4 0 001.64.92 49.89 49.89 0 0125.22 0 1.4 1.4 0 001.69-.92q2.94-10.16 5.9-20.32c.2-.7-.19-.89-.86-.4zM9.87 25.46c-1.07-.4-2.17-.78-3.3-1.12.88-.85 1.8-1.69 2.76-2.5 1.13.4 2.24.83 3.31 1.29-.96.76-1.89 1.53-2.77 2.33zm10.29-1.05c-1-.61-2-1.19-3-1.75 1-.66 2.08-1.3 3.18-1.91 1 .62 2 1.26 3 1.93-1.1.55-2.16 1.12-3.18 1.73zm10.29 1c-.82-.8-1.69-1.57-2.59-2.31 1.14-.45 2.31-.87 3.51-1.24.89.8 1.74 1.63 2.55 2.48-1.18.34-2.34.66-3.47 1.09z" fill="#375d81" data-name="Layer 1"/></g></svg>