<svg xmlns="http://www.w3.org/2000/svg" viewBox="0 0 179.33 171.55"><defs><style>.cls-1{fill:#0cbdcd}.cls-2,.cls-3,.cls-4,.cls-5,.cls-6,.cls-7{fill:#f49022}.cls-3{opacity:.6}.cls-4{opacity:.4}.cls-5{opacity:.8}.cls-6{opacity:.2}.cls-7{opacity:.1}</style></defs><g id="图层_2" data-name="图层 2"><g id="央铋_1" data-name="央铋 1"><path class="cls-1" d="M179.33 91.74a90.84 90.84 0 00-5.42-31l.91-.34q-.37-1-.78-2.07l-.9.36A91 91 0 0092.26 1.05v-1C91.06 0 89.81 0 88.56 0a91.67 91.67 0 00-30.87 5.3l.36 1c-1.21.42-2.39.88-3.58 1.36l-.39-1a90.53 90.53 0 00-10.32 5l.51.89a92.86 92.86 0 00-10.6 6.94l-.6-.79a93.16 93.16 0 00-9.34 8.15l.7.69a90.35 90.35 0 00-16.1 21.72l-.88-.46A90.44 90.44 0 000 67.69L1 68c0 .09 0 .19-.08.28l1 .26a89.76 89.76 0 11144.78 91.57l.66.77c.66-.56 1.31-1.13 1.94-1.7l.66.72a89.75 89.75 0 003.47-3.3c2-2 3.83-4 5.6-6.12l-.76-.62a90.44 90.44 0 0015.93-28l1 .33a92.07 92.07 0 003.8-14.62l-1-.17a91.16 91.16 0 001.33-15.66z"/><path class="cls-1" d="M88.56 20.82a70.64 70.64 0 00-48.65 19.32l.7.74a69.62 69.62 0 0148-19z"/><path class="cls-1" d="M17.43 44.12l.84.57A84.73 84.73 0 01108.2 9.45l.24-1a85.73 85.73 0 00-91 35.66zM137.59 91.74a49 49 0 10-49 49 49.08 49.08 0 0049-49zm-49 43.6a43.6 43.6 0 1143.61-43.6 43.65 43.65 0 01-43.64 43.6z"/><path class="cls-2" d="M88.56 119.22a27.53 27.53 0 0027.23-23.75H108l6.61 1.11a26.49 26.49 0 01-52.09 0l6.61-1.11h-7.79a27.53 27.53 0 0027.22 23.75z"/><path class="cls-1" d="M65.42 98.87a24.22 24.22 0 0046.29 0l-.65-.11a23.57 23.57 0 01-45 0z"/><path class="cls-2" d="M61.34 88h7.79l-6.61-1.1a26.49 26.49 0 0152.09 0L108 88h7.79a27.48 27.48 0 00-54.45 0z"/><path class="cls-1" d="M111.72 84.64a24.22 24.22 0 00-46.32 0l.65.11a23.57 23.57 0 0145 0zM173.39 109.09L156 105.52c-.18.89-.39 1.76-.6 2.64l17.29 4.25c.22-1.1.47-2.21.7-3.32z"/><path class="cls-2" d="M2.16 86.75l17.75 1A68.25 68.25 0 0130.1 55.56l-15.16-9.39A85.83 85.83 0 002.16 86.75zM23.34 57.6a73.27 73.27 0 00-7.74 24.23l-8.08-1.09a81.1 81.1 0 018.56-26.94z"/><path class="cls-1" d="M168.82 107.55a83 83 0 001.52-15.81V89.3l-8.14.24v2.2a73.44 73.44 0 01-1.39 14.26zM146.39 149.56a82.33 82.33 0 0011.74-14.79l-7-4.3a74.14 74.14 0 01-33.31 28.82l3.26 7.51a81.62 81.62 0 0025.31-17.24zM26.11 86.84l9.13.72.09-1-9.12-.88c-.03.4-.07.78-.1 1.16zM27 80.34L36 82l.18-1-9-1.83c-.08.42-.18.83-.18 1.17zM27.9 76.07l8.88 2.29c.23-.92.5-1.83.78-2.73l-8.73-2.76a61.29 61.29 0 00-.93 3.2zM26.32 84.67l9.11 1c0-.32.07-.65.11-1l-9.08-1.2c-.05.44-.09.82-.14 1.2zM27.4 78.2l8.94 2c.07-.32.15-.63.22-1l-8.9-2.14c-.09.4-.18.77-.26 1.14zM26.6 82.5l9.06 1.35c.05-.32.1-.64.16-1l-9-1.52zM25.93 91.21l9.16.08v-1l-9.16-.24v1.16zM26 94.44v1.14l9.19-.58v-1zM26 89l9.16.39v-1l-9.16-.5V89zM25.94 93.4l9.16-.24v-1l-9.16.08c-.01.4-.01.76 0 1.16zM138.32 72.12c.12.3.23.6.35.91l8.58-3.21c-.13-.35-.27-.71-.41-1.06zM137.6 70.39c.13.3.26.6.38.9l8.47-3.5-.45-1.05zM139 73.86c.11.31.22.62.32.93l8.68-2.91-.37-1.08zM140.1 77.42c.09.32.17.63.25 1l8.88-2.29-.3-1.11zM139.57 75.63c.1.31.19.62.28.94l8.79-2.6a34.7 34.7 0 00-.34-1.09zM140.57 79.23c.07.32.15.63.22 1l8.94-2c-.08-.38-.17-.75-.26-1.12zM135.09 65.39l.48.85 8.05-4.37c-.18-.33-.37-.66-.56-1zM136.82 68.7l.42.88 8.33-3.79-.48-1zM136 67l.44.87 8.2-4.08c-.17-.35-.35-.69-.52-1zM128 127.84l-2 2 6.42 6.53c.79-.77 1.56-1.57 2.31-2.39zM51.11 129.87l-.69-.68-6.53 6.41c.26.27.54.54.81.81zM126 53.6q.35.33.69.69l6.53-6.42-.81-.81zM141 81.05c.07.32.13.64.19 1l9-1.66c-.07-.38-.14-.75-.22-1.13zM133.14 62.21l.53.82 7.73-4.92-.63-1zM141.94 88.45c0 .33 0 .65.05 1l9.15-.4v-1.14zM141.31 82.89q.09.48.15 1l9.07-1.35c-.06-.37-.12-.75-.19-1.13zM141.59 84.74c0 .32.08.64.11 1l9.11-1c-.05-.38-.09-.76-.14-1.13zM141.8 86.59l.09 1 9.13-.71c0-.38-.07-.76-.1-1.14zM134.14 63.78c.17.28.34.56.5.84l7.9-4.64c-.2-.33-.39-.66-.59-1zM109 42.32l.9.38 3.66-8.39c-.35-.16-.7-.31-1.06-.45zM107.28 41.63l.91.35 3.36-8.52-1.07-.41zM132.08 60.67c.19.27.37.54.56.8l7.54-5.18-.65-.94zM112.41 43.87c1.4.71 2.78 1.47 4.11 2.29l4.79-7.81q-2.34-1.44-4.82-2.68zM110.72 43.06l.89.42 3.94-8.27-1-.48zM89.09 29.1L89 38.26a53.23 53.23 0 0112.06 1.47l2.15-8.9a62.68 62.68 0 00-14.12-1.73zM117.27 46.63l.82.54 5.06-7.64-1-.62zM104.23 31.08L101.94 40l.94.25 2.45-8.82c-.33-.16-.73-.26-1.1-.35zM103.74 40.45l.93.28 2.76-8.73-1.1-.34zM105.52 41l.92.32 3.06-8.63-1.08-.38zM128.59 56.3l.64.74 7-5.95-.75-.86zM129.8 57.72c.21.25.41.5.61.76l7.17-5.7c-.23-.3-.47-.6-.72-.89zM127.33 54.93l.66.71 6.75-6.18q-.37-.42-.78-.84zM131 59.18c.2.26.4.51.59.78l7.37-5.45c-.23-.3-.46-.61-.7-.91zM120.35 48.75l.78.59 5.57-7.26-.91-.69zM118.83 47.67l.8.56 5.37-7.46c-.31-.22-.62-.44-.94-.65zM124.66 52.31l.72.67 6.3-6.64-.83-.78zM121.83 49.89l.76.61 5.82-7.06c-.29-.25-.59-.48-.89-.72zM123.27 51.08l.73.64 6.07-6.86-.86-.75zM126.7 141.4l-5.58-7.26-.78.59 5.45 7.36zM124.94 142.7l-5.32-7.45-.8.56 5.19 7.55c.31-.22.62-.43.93-.66zM117.5 147.28l-4.23-8.12-.87.44 4.08 8.2zM120.32 145.71l1-.59-4.79-7.8-.83.5zM119.42 146.23l-4.51-8-.85.47 4.36 8c.34-.09.67-.28 1-.47zM118.09 136.31l-.82.53 4.92 7.73 1-.63zM131.68 137.14l-6.31-6.64-.71.66 6.18 6.76zM136.19 132.38l-7-5.94c-.21.25-.42.49-.64.73l6.86 6.08zM130.07 138.61l-6.07-6.85-.74.64 5.94 7 .87-.79zM121.82 133.59l5.7 7.16.89-.71-5.83-7.04c-.25.18-.5.39-.76.59zM137.58 130.7l-7.17-5.7c-.2.26-.4.51-.61.76l7.06 5.83zM115.55 148.26l-4-8.26-.88.41 3.79 8.33c.4-.15.74-.31 1.09-.48zM105.32 152.1l-2.45-8.83-.94.26 2.29 8.87zM101.07 153.12l-1.82-9-1 .18 1.66 9zM98.92 153.52l-1.51-9-1 .16 1.34 9.06zM103.21 152.65l-2.14-8.91-.95.22 2 8.94zM112.51 149.62l1-.45-3.66-8.4-.89.38zM107.42 151.47l-2.76-8.73-.93.28 2.6 8.79zM108.18 141.49l-.91.35 3.21 8.58 1.06-.41zM95.63 154l1.13-.14-1.2-9.08-1 .12zM109.49 150.78l-3.06-8.63-.92.31 2.9 8.69zM131 124.3l7.26 5.58.69-.91-7.36-5.45zM142.53 123.5l-7.89-4.64c-.16.28-.33.56-.5.83l7.8 4.79c.2-.32.4-.65.59-.98zM141.39 125.37l-7.72-4.92-.54.81 7.64 5.06c.23-.32.42-.63.62-.95zM132.63 122c-.18.27-.37.54-.56.8l7.46 5.32.65-.93zM90 145.2h-1l.07 9.16h1.14zM42.48 118.85l-7.89 4.65.59 1 7.82-4.81zM44 121.26c-.18-.27-.36-.54-.53-.82l-7.73 4.92.63 1zM41.14 116.44c-.15-.29-.3-.57-.44-.86l-8.2 4.08c.17.34.34.68.52 1zM45.05 122.8c-.19-.27-.37-.54-.56-.8l-7.55 5.18.66.94zM40.31 114.77c-.15-.29-.28-.58-.42-.88l-8.33 3.8c.15.34.31.69.48 1zM42 118.08c-.16-.28-.33-.56-.48-.85l-8.05 4.37c.18.33.37.66.56 1zM52.46 131.16l-.71-.66-6.31 6.63c.28.27.56.52.84.78zM49.8 128.55l-.66-.72-6.76 6.17c.26.29.52.56.78.84zM46.16 124.29l-.58-.77-7.37 5.48.69.91zM46.71 125l-7.16 5.69c.23.3.47.6.71.89l7.07-5.83zM48.54 127.17l-.64-.74-7 5.95c.24.29.49.57.75.86zM36.15 102.42l-.18-1-9 1.67c.07.37.14.75.22 1.12zM36.56 104.24c-.07-.32-.15-.63-.22-.95l-8.94 2c.08.37.17.74.26 1.11zM39.53 113.08c-.13-.3-.26-.6-.38-.9l-8.47 3.5.45 1zM35.54 98.74l-.12-1-9.1 1c.05.38.09.76.14 1.14zM35.82 100.58c-.06-.32-.11-.64-.16-1L26.6 101l.18 1.13zM37 106.05c-.09-.32-.17-.63-.26-.94l-8.84 2.29.3 1.1zM38.16 109.61c-.11-.31-.22-.62-.32-.92l-8.69 2.9.37 1.08zM38.81 111.35c-.12-.3-.24-.6-.35-.91l-8.58 3.21c.13.35.27.71.41 1.07zM37.56 107.84c-.1-.31-.19-.62-.28-.94l-8.79 2.6c.11.37.22.73.34 1.09zM58.7 146.79l4.36-8-.85-.48-4.51 8c.3.11.66.3 1 .48zM74.25 143.27l-2.45 8.83 1.1.29 2.29-8.87zM82.53 144.88l-1-.12-1.2 9.08 1.13.14zM77 144l-1-.22-2.15 8.9 1.12.26zM83.67 154.19l.72-9.13-1-.09-.88 9.12zM77.17 153.33l1.66-9-1-.19-1.83 9c.42.06.79.13 1.17.19zM79.33 153.7l1.35-9.07c-.33 0-.65-.09-1-.15l-1.51 9zM85.85 154.31l.4-9.14-1-.06-.57 9.15zM91.27 154.32l1.14-.06-.56-9.15-1 .06zM35.33 96.88l-.09-1-9.13.72c0 .38.07.75.1 1.13zM88.12 145.21h-1l-.24 9.15h1.14zM71.61 142.46l-.92-.32-3.06 8.63c.36.13.71.26 1.08.38zM56.8 145.71l4.64-7.9-.83-.5-4.79 7.81zM93.45 154.19l1.14-.1-.88-9.09-1 .09zM54.93 144.56l4.92-7.72-.85-.54-5 7.64zM60.64 147.8l4.08-8.2-.87-.45-4.23 8.13zM64.61 149.61l3.5-8.46-.89-.38-3.66 8.4zM69.85 141.84l-.91-.35-3.36 8.51 1.07.41zM47.06 138.61a64.38 64.38 0 006 4.74l5.19-7.54a52.18 52.18 0 01-5.17-4.06zM70.79 151.81l2.6-8.79-.93-.28-2.76 8.73zM62.61 148.74l3.79-8.33-.88-.42-3.95 8.27zM63.48 47.83l.34.59.3-.17-.34-.59zM63.36 48.69L63 48.1l-.3.18.35.58zM61.87 49.6l-.36-.6-.29.19.37.57zM64.88 47.83l-.32-.6-.31.17.33.59zM62.32 49.32a2.29 2.29 0 01.29-.18l-.35-.59-.29.19zM60.86 50.26l.28-.19-.37-.57-.29.2zM66.9 46.79l.31-.14-.29-.65-.31.15zM53.08 56.69l-.48-.47-.25.24.49.48zM67.69 46.42l.31-.14-.28-.62-.31.15zM66.42 47l-.3-.61-.3.15.3.61zM60.42 50.56L60 50l-.29.19.39.56zM55 54.88l-.45-.5-.26.24.46.49a2.73 2.73 0 00.25-.23zM55.61 54.3l-.45-.51-.26.21.46.51zM68.48 46.06l.32-.14-.27-.62-.32.14zM54.32 55.48l-.46-.5-.25.24.47.49zM53.7 56.08l-.48-.49-.24.25.47.48zM56.27 53.73l-.44-.52-.26.23.43.56zM56.94 53.17l-.43-.52-.27.22.43.52zM59.43 51.26l.27-.21-.39-.55-.28.2zM58.72 51.77l.28-.2-.4-.57-.28.2zM58.3 52.09l-.41-.54-.27.21.41.54zM57.61 52.63l-.42-.54-.27.22.43.53zM65 47l.32.6.3-.16-.31-.6zM81 42.41h.33l-.09-.67-.35.05zM78.43 42.87l.34-.06-.14-.67-.34.07zM79.29 42.71l.33-.07-.12-.64-.34.06zM80.15 42.55h.33l-.11-.67-.34.05zM82.74 42.18h.33l-.07-.71h-.34zM81.87 42.29h.34l-.09-.67h-.34zM86.55 41.88v-.68h-.35v.68zM85.34 42h.34v-.67h-.34zM83.6 42.09h.34l-.06-.68h-.34zM84.47 42h.34v-.68h-.34zM70.91 45.07l.31-.12-.22-.64-.33.13zM72 44.65l-.18-.65-.33.12.23.64zM77.43 42.4l.15.66.33-.07-.14-.67zM70.41 45.26l-.25-.63-.32.12.25.64zM69.28 45.72l.32-.13-.26-.59-.32.13zM73.7 44.1l-.2-.65-.33.11.2.65zM72.54 44.48l.33-.11-.21-.64-.33.1zM77.06 43.18l-.15-.66-.34.08.16.66zM75.71 42.82l.17.65.34-.08-.17-.66zM74.21 44l.32-.1-.19-.65-.33.1zM75.37 43.61l-.18-.61-.33.09.18.65zM48.54 62l-.54-.4-.21.28.55.4zM40.28 79.12l-.65-.12-.09.34.66.16c.03-.16.05-.27.08-.38zM40.07 80l-.66-.16c0 .11 0 .22-.08.33l.66.16c.01-.14.06-.25.08-.33zM40.51 78.28l-.65-.18-.09.33.65.18zM39.69 81.66l-.69-.13-.06.34.66.13c.05-.11.07-.23.09-.34zM39.88 80.81l-.67-.15c0 .12-.05.23-.07.34l.66.15c.03-.15.05-.23.08-.34zM41.57 75l-.64-.23-.12.32.65.23a3 3 0 01.11-.32zM38.79 82.73l.67.12.06-.33-.66-.13c-.02.12-.05.23-.07.34zM41.87 74.15l-.63-.24c0 .11-.09.21-.13.32l.64.24zM41 76.61l-.64-.2c0 .11-.08.22-.11.33l.65.2c.04-.11.1-.22.1-.33zM42.18 73.34l-.63-.26-.12.33.63.24zM41.28 75.79l-.64-.22c0 .11-.07.22-.11.33l.65.21a3 3 0 01.1-.32zM40.76 77.45l-.65-.2c0 .11-.07.22-.1.33l.65.19c.03-.11.06-.21.1-.32zM38.07 88.86h.68v-.34h-.68c.02.11.01.23 0 .34zM38 89.74h.68v-.34H38v.34zM38 90.62h.68v-.34H38v.34zM38.13 88h.67v-.34l-.67-.06zM52.47 57.32l-.47-.47-.24.25.5.47zM38.39 85.35l.67.08v-.33l-.67-.1c.03.12.01.23 0 .35zM38.65 83.6l.67.11v-.33l-.67-.12c.03.11.01.23 0 .34zM38.51 84.47l.67.1v-.34l-.67-.1c.03.11.02.23 0 .34zM38.2 87.1l.68.06v-.34l-.68-.06zM38.29 86.22l.67.08v-.34l-.67-.08c.03.12.01.23 0 .34zM38 91.5h.68v-.34H38v.34zM47 64.11l-.57-.38-.19.29.57.37c.1-.09.19-.19.19-.28zM87.09 41.86h.34v-.67h-.35zM48 62.68l-.55-.4-.2.28.55.39zM47.53 63.39L47 63l-.2.29.56.38a2.83 2.83 0 01.17-.28zM49.61 60.6l-.53-.43-.22.27.53.42zM49.07 61.28l-.54-.42-.21.28.54.41zM50.15 59.92l-.52-.43c-.07.08-.14.18-.22.26l.53.43zM51.29 58.6l-.5-.45a2.85 2.85 0 00-.23.26l.51.45zM38 92v.35h.68V92zM50.72 59.26l-.51-.45-.23.27.52.44a2.75 2.75 0 01.22-.26zM44.78 67.83l-.6-.33c0 .1-.11.2-.16.31l.6.32zM44 69.37l-.61-.31-.15.31.61.3zM43.58 70.15l-.61-.3-.15.32.62.29c.05-.11.09-.21.14-.31zM42.86 71.73l-.62-.27a3.09 3.09 0 00-.14.32l.62.26c.04-.1.09-.2.14-.31zM43.21 70.94l-.61-.29-.15.32.62.28c.05-.11.1-.25.14-.31zM44.37 68.59l-.6-.31a3 3 0 00-.16.31l.6.31c.05-.1.11-.2.16-.31zM46.56 64.83l-.56-.36-.19.29.58.36zM42.51 72.53l-.62-.26c0 .11-.09.21-.13.32l.62.26c.05-.11.09-.21.13-.32zM46.09 65.57l-.57-.36-.19.3.58.35c.09-.1.09-.19.18-.29zM45.64 66.32l-.58-.32-.18.3.59.34zM45.2 67.07l-.59-.34-.16.3.59.34zM51.88 58l-.5-.47-.24.26.5.45zM131.85 65.61l-.18-.29-.57.35.17.29zM132.3 66.37c-.05-.1-.11-.2-.17-.3l-.58.35c0 .1.11.19.17.29zM130.91 64.12a2.9 2.9 0 00-.19-.29l-.56.38.18.28zM132.74 67.14c-.05-.1-.11-.2-.17-.3l-.59.33.17.3zM131.39 64.86a2.9 2.9 0 00-.19-.29l-.57.36c.07.1.12.2.18.29zM135.08 71.89l-.14-.32-.62.28c.05.1.09.2.14.31zM134.73 71.08l-.15-.31-.61.28c0 .1.09.21.14.31zM134.36 70.28l-.15-.31-.61.29c.05.1.09.21.14.31zM133.17 67.91l-.17-.3-.59.32.16.3zM134 69.48l-.15-.3-.61.3.15.3zM130.42 63.38l-.19-.28-.56.38c.06.1.13.19.19.28zM133.58 68.69l-.16-.3-.6.32.16.3zM129.92 62.66l-.2-.29-.55.4.2.28zM126.64 58.49l-.22-.26-.51.45.22.26zM127.22 59.16l-.22-.26-.52.44.22.26zM125.46 57.18l-.24-.25-.49.47a2.73 2.73 0 01.23.25zM124.85 56.54l-.24-.25-.49.48.24.24zM126.06 57.83l-.24-.26-.49.47.23.25zM129.4 61.94l-.2-.28-.54.41.2.27zM127.78 59.84l-.21-.27-.57.43a2.75 2.75 0 01.22.26zM128.87 61.23l-.2-.27-.54.41.21.27zM128.34 60.53l-.22-.27-.53.42.22.27zM135.75 73.53c0-.11-.08-.22-.13-.33l-.63.26c0 .1.08.21.12.31zM137.92 84.37v.34l.67-.1v-.34zM138 85.23v.34l.67-.08v-.35zM137.63 82.66l.06.33.67-.12-.06-.34zM138.14 86.1v.34l.67-.08v-.34zM137.78 83.51l.06.34.66-.11c0-.11 0-.23-.05-.34zM138.41 89.57v.34h.68v-.34zM138.23 87v.33l.68-.06v-.34zM138.2 82c0-.11 0-.23-.07-.34l-.66.14.06.33zM138.44 90.44v.34h.68v-.35zM138.31 87.83v.34h.68v-.34zM138.37 88.7v.34h.67v-.34zM138 81.14a3.38 3.38 0 00-.08-.34l-.66.15c0 .11.05.22.08.33zM136.36 75.19l-.12-.33-.64.23.12.32zM136.64 76l-.11-.33-.64.22c0 .11.07.22.1.32zM136.91 76.86l-.11-.33-.64.21c0 .11.07.22.1.32zM136.06 74.35l-.12-.32-.64.24c0 .11.09.21.12.32zM124.23 55.91l-.25-.24-.47.49.24.23zM135.42 72.71c0-.11-.09-.22-.13-.32l-.63.26c.05.1.09.21.13.31zM137.62 79.42c0-.12-.05-.23-.08-.34l-.66.17c0 .11.05.22.08.33zM137.83 80.27c0-.11-.06-.22-.08-.33l-.66.16c0 .11 0 .22.08.33zM137.4 78.56l-.09-.33-.66.18.09.33zM137.16 77.71c0-.11-.07-.22-.1-.33l-.65.19c0 .11.07.22.1.33zM88.83 41.84h.34v-.68h-.35zM100.48 43.28l.16-.66-.34-.08-.16.66zM97.92 42.72l.12-.66-.34-.06-.12.67zM99.63 43.08l.15-.67-.34-.07-.14.66zM102.16 43.72l.19-.65L102 43l-.18.65zM98.77 42.89l.14-.66-.34-.07-.13.66zM101.32 43.49l.17-.65-.33-.09-.17.66zM106 45l.31.12.24-.63-.32-.13zM105.17 44.68l.32.11.22-.63-.32-.12zM102.68 43.87l.32.1.2-.65-.33-.1zM104 43.58l-.33-.1-.2.65.32.1zM104.34 44.4l.32.11.22-.65-.33-.11zM96.2 42.42l.1-.67h-.34l-.1.67zM92.65 42l.06-.68h-.35V42zM91.78 42v-.68h-.35v.67zM97.06 42.57l.11-.67-.34-.06-.11.67zM88.3 41.84v-.68H88v.68zM90 41.86v-.68h-.34v.67zM123.6 55.29l-.25-.23-.47.49c.09.08.16.16.25.23zM106.8 45.29l.32.13.25-.63-.32-.13zM95.33 42.3l.09-.67-.34-.05-.08.67zM94.47 42.19l.08-.67-.42-.05-.08.67zM93.52 42.09l.07-.68h-.34l-.07.68a.97.97 0 01.34 0zM90.91 41.9v-.68h-.34v.68zM116.07 50.13l.28.18.38-.56-.29-.19zM119.17 52.36l.42-.54-.27-.21-.41.54zM118.21 51.63l.27.2.41-.54-.28-.21zM116.79 50.61l.28.2.39-.56-.29-.2zM117.51 51.11l.27.2.4-.55a2.83 2.83 0 01-.28-.2zM119.59 52.69l.27.21.42-.53-.27-.21zM123 54.69l-.25-.24-.46.5.25.24zM122.3 54.09l-.26-.23-.44.51.25.23zM121.64 53.51l-.26-.23-.44.52.26.22zM121 52.93l-.26-.22-.43.53.26.22zM108.72 46.1l.28-.62-.32-.14-.27.62zM111.09 47.22l.3-.61-.3-.15-.3.61zM110.31 46.83l.29-.61-.31-.15-.29.62zM107.93 45.75l.26-.63-.32-.13-.26.63zM111.86 47.62l.32-.6-.31-.16-.31.61zM109.52 46.46l.28-.62-.31-.14-.28.61zM114.14 48.91l.35-.58-.3-.18-.34.59zM114.89 49.37l.35-.58-.29-.18-.35.58zM112.63 48l.33-.6-.3-.16-.32.59zM115.62 49.83l.37-.57-.29-.19-.36.58zM113.39 48.46l.34-.58-.3-.17-.33.59a2.69 2.69 0 00.29.16zM41.8 111c0 .1.09.21.13.32l.63-.27c-.05-.1-.09-.21-.13-.31zM115.13 134l.36.57.29-.18-.37-.57zM114.68 134.24l-.29.18.35.57a2.82 2.82 0 00.29-.18zM116.86 132.81l-.28.19.38.56.29-.19zM117.57 132.31l-.28.2.4.55.28-.2zM116.14 133.3l-.28.19.37.56.29-.19zM113.93 134.69l-.29.17.34.58.3-.17zM110.4 137.35l-.29-.61-.31.14.29.61zM111.19 137l-.3-.61-.31.15.3.61zM112.75 136.14l-.32-.59-.3.16.32.59zM113.18 135.12l-.29.17.33.59.3-.17zM112 136.55l-.31-.6-.3.16.31.61zM122 128.71l.45.5.26-.23-.46-.5zM122.67 128.12l.47.49.25-.23-.47-.49zM121.39 129.29l.44.51.26-.23-.45-.51a2.73 2.73 0 00-.25.23zM109.32 137.11l-.31.14.28.61.31-.14zM123.3 127.52l.47.48.25-.24-.48-.48zM123.92 126.91l.48.48.24-.25-.48-.47zM119.38 131.81l-.42-.54-.27.21.41.54zM119.38 131l.42.53.27-.21-.42-.53zM118.68 132.34l-.41-.54-.27.2.4.55zM90.87 142.26v-.68h-.37v.68zM120.73 129.85l.43.52.27-.22-.44-.52zM105.3 138.74l-.32.11.22.65.33-.12zM96 141.07l-.34.05.1.67h.34zM96.88 140.94l-.33.05.11.67.34-.06zM95.17 141.2h-.34l.08.67h.35zM98.73 141.28l-.14-.66-.33.06.13.67zM99.59 141.1l-.15-.66-.33.07.14.66zM97.87 141.45l-.13-.67-.33.07.12.67zM94.3 141.3h-.33l.03.7h.34zM91.71 141.53h-.34v.68h.34zM92.57 141.47h-.33l.05.67h.34zM93.44 141.39h-.34l.06.68h.35zM106.11 138.44l-.31.12.23.64.32-.12zM104.48 139l-.32.1.21.65.33-.11zM124.53 126.29l.49.47.24-.25-.5-.47zM108.49 138.22l.31-.14-.27-.62-.31.14zM107.67 138.56l.32-.13-.26-.63-.31.13zM100.31 140.23l-.35.09.15.66.36-.09zM106.61 138.26l.25.63.32-.13-.26-.63zM103.33 139.4l.2.65.33-.1-.21-.65zM101.15 140l-.33.09.17.66.33-.09zM102 139.8l-.33.08.18.66.33-.09zM102.69 140.3l.33-.1-.2-.65-.32.1zM120.06 130.41l.43.52a2.75 2.75 0 00.26-.22l-.43-.52zM137.21 102.87l.66.15c0-.11 0-.22.07-.33l-.66-.15c-.03.11-.05.22-.07.33zM137 103.72l.66.16c0-.11.06-.22.08-.33l-.66-.16c-.02.11-.08.22-.08.33zM138.23 101.3l.06-.34-.66-.12c0 .11 0 .22-.07.33zM136.79 104.56l.65.18.09-.34-.65-.17zM137.72 100.31l.67.12.06-.34-.67-.11zM137.39 102l.67.14c0-.11 0-.22.07-.34l-.67-.13c-.02.13-.04.24-.07.33zM135.49 108.71l.63.23.12-.32-.64-.23c-.04.11-.08.22-.11.32zM136.56 105.4l.65.19.09-.34-.65-.17zM135.77 107.89l.65.22c0-.11.07-.22.11-.33l-.65-.21c-.03.11-.07.21-.11.32zM136.31 106.23l.65.2c0-.11.07-.22.1-.33l-.65-.19c-.04.09-.07.22-.1.32zM136.05 107.07l.65.2c0-.11.07-.22.1-.33l-.65-.2c-.03.11-.07.26-.1.33zM138.4 94.26h.68v-.35h-.68v.35zM138.43 93.39h.68v-.34h-.68c.01.12 0 .23 0 .34zM135.18 109.53l.63.24c.05-.11.09-.22.13-.33l-.64-.23zM138.46 91.31v.34h.68v-.35zM125.12 125.66l.5.46c.08-.09.16-.17.23-.26l-.5-.45zM139.13 92.19h-.68v.34h.68zM138.81 97.47l-.67-.08v.34l.67.08a1.29 1.29 0 010-.34zM139 95.71h-.67v.34l.67.06zM138.71 98.34l-.68-.08v.33l.67.1c-.02-.12-.01-.23.01-.35zM138.58 99.22l-.67-.1v.34l.67.1c-.03-.11-.01-.23 0-.34zM138.91 96.59l-.68-.06v.34l.67.06c-.01-.11-.01-.22.01-.34zM138.34 95.13l.68.05v-.35h-.68c.02.08.01.17 0 .3zM128.47 121.66l.54.41.21-.28-.55-.4zM130.46 118.81l.57.37.19-.29-.58-.36zM127.94 122.35l.53.41c.08-.09.14-.18.21-.27l-.53-.41zM130 119.54l.56.37a2.9 2.9 0 00.19-.29l-.56-.37zM129.49 120.25l.55.39.2-.29-.56-.38c-.06.1-.13.19-.19.28zM129 121l.55.39.21-.27-.56-.39zM134.86 110.34l.63.25c0-.11.09-.22.13-.32L135 110c0 .13-.1.23-.14.34zM125.71 125l.51.46.22-.26-.51-.45zM126.28 124.36l.52.45.22-.27-.52-.44a2.75 2.75 0 01-.22.26zM126.85 123.7l.52.43.22-.26-.52-.43zM127.4 123l.53.42.21-.27-.53-.42zM133.45 113.51l.61.3.15-.31-.61-.29zM130.92 118.07l.58.36.18-.29-.58-.35zM134.53 111.14l.63.26c0-.1.08-.21.13-.32l-.63-.25c-.04.1-.08.17-.13.31zM133.06 114.29l.61.31.15-.31-.61-.3c-.05.1-.09.2-.15.3zM134.18 111.94l.63.27c0-.1.09-.21.13-.32l-.62-.26zM133.82 112.73l.62.28.15-.31-.62-.28zM131.82 116.59l.59.33.17-.3-.59-.33zM132.66 115.06l.6.32c.05-.1.11-.2.16-.31l-.6-.31zM131.38 117.33l.58.35.18-.29-.59-.35c-.06.1-.11.2-.17.29zM132.25 115.83l.59.32.17-.3-.6-.32zM46.83 120.27l.2.29.56-.39-.2-.28zM45.86 118.8l.18.29.57-.37-.18-.28zM45.39 118.05l.18.3.58-.36-.15-.29zM44.94 117.3l.18.29.58-.34-.17-.29zM38.69 93.25v-.34H38v.35zM46.34 119.54l.19.29.56-.38-.18-.28zM43.66 115l.16.31.6-.32-.16-.3zM42.87 113.4l.15.32.61-.3c-.05-.1-.1-.2-.14-.3zM43.26 114.2l.15.31.61-.31-.15-.3zM44.5 116.53l.17.31.59-.34-.17-.3zM44.07 115.76l.17.31.59-.33-.16-.3zM47.33 121l.21.28.55-.4a2.83 2.83 0 01-.2-.28zM48.92 123.11l.22.27.53-.43-.22-.26zM51.81 126.44l.23.25.49-.47-.23-.22zM51.21 125.79a2.73 2.73 0 00.23.25l.5-.46a2.73 2.73 0 01-.23-.25zM53 127.69a3 3 0 00.25.25l.47-.49-.25-.24zM50.62 125.13c.08.09.15.18.23.26l.5-.45-.22-.25zM52.42 127.07l.24.25.48-.48-.24-.24zM48.38 122.41l.21.28.54-.42-.21-.27zM47.85 121.71l.21.28.54-.41-.2-.27zM42.5 112.61l.15.31.61-.28c0-.11-.1-.21-.14-.31zM53.67 128.31l.25.24.47-.5a2.73 2.73 0 01-.25-.23zM50 124.47c.08.08.15.18.23.26l.51-.44-.22-.26zM49.48 123.79l.22.27.52-.43-.22-.27zM39.25 99.35v-.34l-.67.09v.35zM39 97.62v-.34l-.68.07v.35zM39.12 98.48v-.33l-.68.08c0 .12 0 .23.05.35zM38.81 100.85c0 .11 0 .22.07.34l.67-.13c0-.11 0-.22-.07-.33zM90 141.61h-.34v.68H90zM39 101.71a3.4 3.4 0 00.07.34l.66-.13c0-.11 0-.23-.07-.34zM38.92 96.75v-.34l-.68.07v.34zM38.73 94.12v-.35h-.68v.35zM38.78 95v-.34h-.67v.35zM38.84 95.89v-.38h-.68v.38zM40.85 108.51l.12.33.64-.23-.12-.32zM42.14 111.8c0 .1.09.21.14.31l.62-.27c0-.1-.09-.21-.14-.31zM40.56 107.68l.12.33.64-.22c0-.11-.07-.22-.11-.32zM40.29 106.84c0 .11.08.22.11.33l.65-.21a3 3 0 01-.11-.32zM41.47 110.17c0 .11.08.21.13.32l.63-.25c0-.11-.09-.21-.13-.32zM41.15 109.34l.13.33.63-.24-.12-.32zM39.36 103.44c0 .11 0 .22.08.34l.66-.17c0-.11-.06-.22-.08-.33zM39.57 104.3l.09.33.65-.17c0-.11-.06-.22-.08-.33zM40 106c0 .11.06.22.1.33l.65-.2c0-.11-.07-.22-.1-.32zM39.16 102.58c0 .11.05.22.08.34l.66-.15c0-.12 0-.23-.07-.34zM39.8 105.15l.09.33.65-.18-.09-.33zM39.39 100.21l-.06-.34-.67.11.06.34zM76.74 140.21l-.17.66.34.08.16-.66zM76.22 140.09l-.33-.09-.17.66.34.08zM77.58 140.41l-.15.66.34.08.14-.67zM78.43 140.6l-.14.66.34.07.13-.67zM79.28 140.76l-.12.67.34.07.12-.67zM74.55 139.63l-.33-.1-.19.65.33.1zM75.38 139.86l-.33-.09-.18.66.33.09zM72.89 139.11l-.33-.11-.21.64.33.11zM71.52 139.35l.32.12.23-.64-.33-.12zM73.71 139.38l-.32-.11-.21.65.33.1zM80.14 140.92l-.12.67h.34l.11-.67zM86.52 141.59h-.34v.68h.34zM87.39 141.62h-.34v.68h.34zM54.31 128.91l.26.24.45-.5-.25-.24zM85.65 141.55h-.34v.68h.34zM89.11 141.63h-.33v.68h.32zM88.26 141.63h-.34v.67h.34zM70.93 138.41l-.24.64.32.12.24-.64zM82.72 141.29l-.08.67h.34l.08-.67zM81.86 141.18l-.1.67.35.05.08-.67zM84.39 142.14h.34v-.68h-.33zM83.58 141.38l-.07.68h.35l.06-.67zM81 141.06l-.1.67.34.05.1-.67zM59.48 132.26l-.39.55.28.2.39-.55zM58.78 131.74l-.4.55.27.2.41-.55a2.83 2.83 0 01-.28-.2zM59.81 133.31l.28.2.38-.56-.28-.19zM61.19 133.43l-.28-.18-.38.56.29.19zM58.09 131.22l-.42.53.33.25.41-.53zM56.3 130.65l.27.22.43-.52-.27-.22zM57 131.21l.27.22.42-.54-.26-.21zM55 129.5l.26.23.44-.51-.25-.22zM55.63 130.08l.26.23.44-.52-.26-.22zM61.27 134.3l.29.18.36-.57-.28-.18zM65.39 135.91l-.32.6.31.17.31-.61zM67.73 137.07l-.29.61.32.15.27-.62zM66.94 136.7l-.3.61.32.15.29-.62zM66.16 136.31l-.3.61.31.15.3-.61zM68.52 137.42l-.28.63.32.13.27-.62zM69.31 137.77l-.26.62.32.14.26-.63zM62.77 135.22l.3.18.34-.59-.3-.17zM70.12 138.1l-.25.63.32.12.25-.63zM63.86 135.08l-.33.59.3.17.33-.6zM62.66 134.37l-.29-.18-.35.57.29.19zM64.62 135.5l-.32.6.3.16.32-.59z"/><path class="cls-2" d="M48.88 26.61a75.51 75.51 0 0121.75-9l-.53-2.23a78.08 78.08 0 00-22.4 9.3z"/><path class="cls-1" d="M106.8 12a82.72 82.72 0 00-37.46.24l.43 1.76a80.75 80.75 0 0136.62-.23zM30.74 33.91c-1.56 1.56-3 3.17-4.46 4.83L27.7 40a80.66 80.66 0 014.36-4.72A80 80 0 0147 23.48l-1-1.6a83 83 0 00-15.26 12.03zM31.3 43l1.21 1a74.33 74.33 0 0117.75-15.12l-.83-1.36A76 76 0 0031.3 43zM70.87 18.63l.37 1.54A73.64 73.64 0 01105 20l.36-1.55a75.51 75.51 0 00-34.47.23z"/><path class="cls-3" d="M147.81 28.63l-12.2 13a68.77 68.77 0 017.27 8L157 38.68a89 89 0 00-7.19-8.15z"/><path class="cls-4" d="M145 52.5a68.55 68.55 0 015.46 9.31l16.05-7.76a85.8 85.8 0 00-6.87-11.73z"/><path class="cls-5" d="M124.17 32.93a67.35 67.35 0 018.76 6.31l11.51-13.62a87.49 87.49 0 00-11-7.95z"/><path class="cls-6" d="M152 65.08a68.79 68.79 0 013.4 10.25l17.29-4.25a84.44 84.44 0 00-4.25-12.91z"/><path class="cls-7" d="M173.6 75.5l-17.48 3.34a69.68 69.68 0 011.14 9.65l17.74-.84a87.41 87.41 0 00-1.4-12.15z"/><path class="cls-2" d="M106.26 25.28a68.36 68.36 0 0114.79 5.86l8.43-15.72a85.28 85.28 0 00-18.64-7.35z"/><path class="cls-1" d="M14 108.41c-.12-.49-.22-1-.32-1.49l-3.35.68.33 1.56zM15.32 113.57l-.42-1.46-3.3.91c.14.52.29 1 .44 1.53zM14.6 111c-.13-.5-.25-1-.37-1.48l-3.32.79c.13.52.25 1 .39 1.55zM13.44 105.8c-.09-.5-.18-1-.26-1.5l-3.36.56c.08.52.18 1 .27 1.57zM13 103.17l-.21-1.51-3.37.44c.07.53.14 1.05.22 1.58zM16.13 116.12c-.17-.48-.32-1-.47-1.45l-3.27 1c.16.5.32 1 .49 1.51zM12.65 100.52c-.06-.5-.12-1-.16-1.51l-3.39.33c.05.52.11 1 .17 1.57zM22.8 130.63c-.26-.43-.51-.87-.76-1.31L19 131c.26.46.53.92.8 1.37zM21.48 128.32c-.25-.45-.48-.9-.72-1.35l-3.05 1.59c.24.47.49.94.75 1.4zM17 118.63c-.18-.48-.35-.95-.52-1.43l-3.24 1.14.54 1.49zM24.2 132.9c-.28-.42-.54-.85-.81-1.29l-2.93 1.8.84 1.34zM18 121.11c-.19-.47-.39-.94-.57-1.41l-3.19 1.3c.2.5.39 1 .6 1.48zM19.08 123.55c-.21-.46-.41-.92-.62-1.39l-3.15 1.37c.21.49.43 1 .65 1.45zM20.24 126c-.23-.45-.45-.9-.67-1.36l-3.11 1.48c.23.48.46 1 .7 1.43zM98.93 170.89l1.57-.22-.5-3.36-1.51.21zM25.68 135.12l-.85-1.26-2.83 1.9c.29.44.59.88.89 1.31zM106 169.65l-.74-3.31-1.49.31.68 3.33c.55-.11 1.02-.21 1.55-.33zM12.38 97.87c0-.51-.07-1-.1-1.52l-3.39.21c0 .53.07 1 .11 1.58zM96.16 171.2l1.58-.17-.39-3.37-1.51.16zM92.19 171.47l-.19-3.39-1.52.06.09 3.39zM118.8 165.63l-1.28-3.14-1 .39 1.24 3.16zM93.38 171.41l1.62-.11-.28-3.38-1.51.1zM103.25 170.2l-.62-3.33-1.5.26.56 3.35zM116.66 166.47l-1.2-3.18-1.43.53 1.13 3.2zM107.15 169.38c.51-.12 1-.25 1.54-.39l-.85-3.28-1.48.37zM12.22 95.21l-.06-1.52-3.39.08c0 .53 0 1.06.06 1.59zM8.75 91.74v.84h3.39v-.8-.72h-3.4zM114 167.4l-1-3.21-1.45.47 1 3.23zM111.37 168.25l-1-3.25-1.47.42.91 3.27zM48.76 157l-1.29-.8-1.85 2.9 1.35.84zM76.08 167.14l-1.49-.26-.59 3.34 1.57.28zM68.27 165.42c-.49-.13-1-.27-1.46-.42l-1 3.28 1.53.44zM73.46 166.66l-1.46-.32-.74 3.34 1.55.32zM70.06 169.4l.79-3.31-1.47-.37-.86 3.28zM65.71 164.67l-1.45-.47-1.09 3.25 1.52.49zM60.68 162.89q-.7-.27-1.41-.57L58 165.5l1.48.59zM63.18 163.82l-1.43-.52-1.2 3.22 1.49.54zM89.4 171.54v-3.39h-1.55v3.4h1.55zM86.62 171.53l.08-3.39c-.51 0-1 0-1.52-.06l-.18 3.39q.83.05 1.62.06zM12.17 89.59l-3.39-.09v.29l3.39.08c0-.09-.01-.18 0-.28zM58.22 161.87l-1.39-.62-1.43 3.13 1.45.65zM27.23 137.29l-.89-1.23-2.8 2 .93 1.29zM84 168l-1.51-.1-.27 3.39 1.58.1zM81.37 167.82l-1.51-.16-.39 3.34c.53.06 1.06.12 1.58.16zM78.28 170.9l.44-3.37-1.5-.21-.51 3.37zM32.34 143.44l-1-1.13-2.57 2.27c.35.4.7.79 1.06 1.18zM34.18 145.37c-.36-.36-.71-.72-1.06-1.09l-2.49 2.36c.36.39.73.76 1.11 1.14zM55.79 160.77l-1.37-.67-1.54 3.08 1.43.7zM28.87 139.4l-.94-1.2-2.73 2.09c.32.42.65.83 1 1.25zM30.57 141.45l-1-1.16-2.64 2.18c.33.41.67.81 1 1.21zM38.05 149l-1.13-1-2.32 2.53 1.18 1.06zM36.08 147.24L35 146.18l-2.41 2.45 1.14 1.1zM51.06 158.3l-1.32-.76-1.75 3c.46.27.91.54 1.38.8zM46.51 155.52l-1.26-.85-2 2.83 1.31.89zM53.4 159.58c-.45-.24-.9-.47-1.34-.72l-1.65 3 1.41.74zM40.08 150.77l-1.17-1-2.23 2.61c.41.34.81.69 1.22 1zM42.17 152.42l-1.2-.93-2.14 2.68 1.25 1zM44.31 154l-1.23-.89-2 2.76 1.29.93zM24.91 122.21c.58 1.21 1.2 2.41 1.86 3.59l.29-.17a75.2 75.2 0 01-1.85-3.57zM35.46 137.66c-.88-1-1.72-2-2.54-3.11l-.27.21c.82 1.06 1.67 2.11 2.55 3.13zM46.17 147.7c-1.07-.81-2.12-1.65-3.13-2.52l-.22.25c1 .88 2.07 1.72 3.14 2.54zM55 153.79c1.18.64 2.39 1.25 3.61 1.82l.14-.3c-1.21-.58-2.41-1.18-3.59-1.82zM52.06 152.12l.18-.29c-1.15-.69-2.27-1.42-3.38-2.18l-.19.28q1.67 1.14 3.39 2.19zM40.32 143.2l.23-.24c-1-.92-1.93-1.86-2.85-2.83l-.25.23c.93.98 1.89 1.92 2.87 2.84zM61.63 157c1.24.51 2.5 1 3.77 1.44l.11-.33a63.15 63.15 0 01-3.76-1.43z"/><path class="cls-2" d="M140 140l-.25-.23c-.92 1-1.86 1.93-2.84 2.85l.24.24c.99-.86 1.94-1.86 2.85-2.86zM156.38 110.11c-.14.53-.29 1-.45 1.57l.33.09.45-1.57z"/><path class="cls-1" d="M18.24 97.72h.34c-.11-1.33-.19-2.66-.23-4H18c.05 1.28.13 2.67.24 4zM23.84 119c-.52-1.24-1-2.49-1.45-3.75l-.32.11c.45 1.27.94 2.53 1.46 3.77zM21.34 112.11c-.39-1.27-.74-2.57-1.05-3.88l-.33.08c.31 1.32.67 2.62 1.06 3.9zM19.58 105c-.25-1.31-.47-2.64-.64-4h-.34c.18 1.34.4 2.67.65 4z"/><path class="cls-2" d="M115.79 156.47c-1.23.52-2.48 1-3.74 1.45l.11.32c1.27-.45 2.53-.94 3.77-1.46zM144.79 134.41l-.27-.2a76.49 76.49 0 01-2.53 3.12l.26.22c.87-1.02 1.75-2.07 2.54-3.14z"/><path class="cls-1" d="M72.57 160.14c-1.31-.31-2.61-.66-3.89-1l-.09.32c1.28.38 2.58.73 3.9 1z"/><path class="cls-2" d="M128.84 149.67l-.19-.28c-1.1.77-2.22 1.5-3.37 2.2l.18.29c1.15-.71 2.28-1.44 3.38-2.21zM148.94 128.31l-.29-.18a62.77 62.77 0 01-2.18 3.38l.28.19q1.14-1.7 2.19-3.39z"/><path class="cls-1" d="M18 90.34h.34v-.8H18v.8z"/><path class="cls-2" d="M154.91 114.85c-.44 1.27-.92 2.52-1.43 3.76l.32.13c.51-1.24 1-2.5 1.43-3.78zM152.44 121.8l-.31-.15c-.57 1.22-1.17 2.42-1.81 3.59l.29.17c.64-1.18 1.25-2.41 1.83-3.61zM134.68 145.15l-.22-.26c-1 .88-2.06 1.72-3.12 2.54l.2.27c1.07-.82 2.12-1.7 3.14-2.55zM122.57 153.56l-.16-.3c-1.18.65-2.37 1.26-3.58 1.84l.15.31c1.21-.58 2.41-1.2 3.59-1.85z"/><path class="cls-1" d="M79.8 161.43c-1.34-.17-2.66-.37-4-.61l-.06.33c1.31.24 2.64.45 4 .62zM87.13 162c-1.35 0-2.69-.09-4-.19v.33c1.33.11 2.68.17 4 .2z"/><path class="cls-2" d="M108.89 159c-1.28.38-2.58.73-3.88 1.05l.07.33c1.32-.32 2.62-.67 3.9-1.06zM96.45 156.83a4.94 4.94 0 104.93 4.94 4.94 4.94 0 00-4.93-4.94zm0 9.53a4.6 4.6 0 114.59-4.59 4.6 4.6 0 01-4.59 4.59z"/><path class="cls-1" d="M59.32 109.5a35.27 35.27 0 01-2.07-4l-1.25.6a35.47 35.47 0 002.15 4.1zM61.34 112.45c-.49-.64-1-1.3-1.4-2l-1.13.75c.46.7.94 1.39 1.45 2zM55.63 101.07c-.22-.77-.41-1.54-.57-2.33l-1.33.26c.17.81.37 1.62.59 2.41zM63.65 115.18c-.55-.59-1.08-1.19-1.6-1.82l-1 .87c.53.64 1.08 1.27 1.66 1.88zM60.61 69.75l1.06.83a35 35 0 014.09-4.34l-.91-1a35.56 35.56 0 00-4.24 4.51zM53 91.74c0 .79 0 1.58.08 2.36l1.33-.1c0-.75-.07-1.51-.07-2.27v-.12H53zM59 74.53l-1.18-.68a36.48 36.48 0 00-2.65 5.61l1.28.46A33.65 33.65 0 0159 74.53zM55.11 84.51l-1.33-.29c-.17.81-.32 1.62-.44 2.45l1.35.19c.11-.79.25-1.58.42-2.35zM78.32 125.81l.39-1.29c-.78-.24-1.54-.5-2.3-.79l-.47 1.27c.78.3 1.58.57 2.38.81zM68.77 62.18l.75 1.13a35 35 0 015.23-2.89l-.55-1.24a36.26 36.26 0 00-5.43 3zM78.87 57.5l.37 1.3a34.22 34.22 0 11.58 66l-.33 1.31a35.59 35.59 0 10-.62-68.64zM72.12 121.74c-.72-.39-1.41-.8-2.09-1.24l-.72 1.14c.7.46 1.42.89 2.15 1.29zM69.07 119.85c-.66-.46-1.31-.94-1.94-1.45l-.84 1.06c.65.53 1.32 1 2 1.51zM66.24 117.66c-.61-.53-1.21-1.08-1.78-1.65l-.95 1c.6.59 1.21 1.16 1.84 1.71zM75.34 123.3c-.75-.31-1.48-.65-2.21-1l-.6 1.22q1.13.57 2.28 1z"/><path class="cls-2" d="M60.62 77.05l2.1 1.11a29.93 29.93 0 012.34-3.73L63.15 73a31.8 31.8 0 00-2.53 4.05z"/><path class="cls-5" d="M57.32 87.14A33.86 33.86 0 0057 90.8l2.38.07a31.43 31.43 0 01.29-3.38z"/><path class="cls-1" d="M71.72 65l1.26 2a29 29 0 014.84-2.47L77 62.37A31.38 31.38 0 0071.72 65z"/><path d="M68.4 112.82c-.33-.31-.65-.63-1-.95l-1.73 1.64c.34.35.69.7 1 1z" opacity=".3" fill="#f49022"/><path class="cls-1" d="M65 70.73l1.77 1.59a29.55 29.55 0 014-3.7l-1.47-1.89a31.87 31.87 0 00-4.3 4zM86.6 60.22a31.76 31.76 0 00-6.87 1.2l.67 2.28a28.9 28.9 0 016.35-1.1z"/><path d="M59.84 97a28.72 28.72 0 01-.41-3.37l-2.38.15a33.5 33.5 0 00.44 3.64z" opacity=".7" fill="#f49022"/><path class="cls-1" d="M89.55 60.18l-.07 2.38a29.22 29.22 0 016.38.9l.59-2.3a31.38 31.38 0 00-6.9-.98z"/><path d="M57.88 84.26l2.32.56a29.71 29.71 0 011.36-4.19l-2.19-.91a31.73 31.73 0 00-1.49 4.54z" opacity=".9" fill="#f49022"/><path class="cls-1" d="M119.41 98.5l-2.33-.5a28.37 28.37 0 01-1.3 4.32l2.22.86a31.53 31.53 0 001.41-4.68zM99.27 62l-.81 2.23a29.27 29.27 0 0119.24 25.64l2.37-.16A31.63 31.63 0 0099.27 62z"/><path class="cls-7" d="M72.93 116.38l-1.28 2 .31.19 1.25-2z"/><path class="cls-1" d="M107.43 117l-1.42-1.9a29.11 29.11 0 01-30.43 2.74L74.52 120a31.52 31.52 0 0032.91-3z"/><path class="cls-4" d="M65.66 109.82l-.82-1.08-1.93 1.38c.28.4.58.79.88 1.17z"/><path d="M63.36 106.46c-.4-.68-.78-1.38-1.12-2.09l-2.14 1c.37.78.77 1.53 1.21 2.27z" opacity=".5" fill="#f49022"/><path class="cls-6" d="M70.71 114.82l-.27-.21-1.44 1.86.29.23z"/><path class="cls-3" d="M61.18 101.87c-.28-.74-.52-1.5-.73-2.26l-2.3.64c.24.82.5 1.64.8 2.44z"/><path class="cls-2" d="M88.56 129.24a37.51 37.51 0 119.18-73.87l.08-.33A37.84 37.84 0 10124 105.13l-.32-.13a37.57 37.57 0 01-35.12 24.24z"/><path class="cls-2" d="M99.35 78.48a17.07 17.07 0 00-21.57 0h21.57zM99.55 104.37h.52a17.07 17.07 0 000-25.27h-.52a16.72 16.72 0 010 25.27zM98.8 105h-21a17.07 17.07 0 0021.57 0zM77.06 104.37h.52a16.72 16.72 0 010-25.27h-.52a17.07 17.07 0 000 25.27z"/></g></g></svg>