<svg xmlns="http://www.w3.org/2000/svg" viewBox="0 0 1019.06 877.39"><defs><style>.cls-1,.cls-10,.cls-11,.cls-12,.cls-13,.cls-14,.cls-15,.cls-16,.cls-17,.cls-18,.cls-19,.cls-2,.cls-20,.cls-21,.cls-22,.cls-23,.cls-24,.cls-25,.cls-26,.cls-27,.cls-28,.cls-29,.cls-3,.cls-30,.cls-31,.cls-32,.cls-33,.cls-34,.cls-35,.cls-36,.cls-37,.cls-38,.cls-39,.cls-4,.cls-40,.cls-41,.cls-42,.cls-43,.cls-44,.cls-45,.cls-46,.cls-47,.cls-48,.cls-49,.cls-5,.cls-50,.cls-51,.cls-52,.cls-53,.cls-54,.cls-55,.cls-56,.cls-57,.cls-58,.cls-59,.cls-6,.cls-60,.cls-61,.cls-62,.cls-63,.cls-64,.cls-65,.cls-66,.cls-67,.cls-68,.cls-69,.cls-7,.cls-70,.cls-71,.cls-72,.cls-73,.cls-74,.cls-75,.cls-76,.cls-77,.cls-78,.cls-79,.cls-8,.cls-80,.cls-81,.cls-82,.cls-83,.cls-84,.cls-85,.cls-86,.cls-87,.cls-88,.cls-89,.cls-9,.cls-90,.cls-91,.cls-92,.cls-93,.cls-94,.cls-96,.cls-97,.cls-98,.cls-99{fill:none;stroke:#314f0a;stroke-miterlimit:10;stroke-width:.4px}.cls-1{opacity:.02}.cls-2{opacity:.11}.cls-3{opacity:.86}.cls-4{opacity:.3}.cls-5{opacity:.07}.cls-6{opacity:.7}.cls-7{opacity:.66}.cls-8{opacity:.08}.cls-9{opacity:.19}.cls-10{opacity:.01}.cls-11{opacity:.57}.cls-12{opacity:.71}.cls-13{opacity:.06}.cls-14{opacity:.98}.cls-15{opacity:.75}.cls-16{opacity:.28}.cls-17{opacity:.32}.cls-18{opacity:.18}.cls-19{opacity:.91}.cls-20{opacity:.59}.cls-21{opacity:.31}.cls-22{opacity:.62}.cls-23{opacity:.15}.cls-24{opacity:.04}.cls-25{opacity:.03}.cls-26{opacity:.56}.cls-27{opacity:.77}.cls-28{opacity:.5}.cls-29{opacity:.83}.cls-30{opacity:.65}.cls-31{opacity:.4}.cls-32{opacity:.54}.cls-33{opacity:.36}.cls-34{opacity:.79}.cls-35{opacity:.37}.cls-36{opacity:.33}.cls-37{opacity:.74}.cls-38{opacity:.12}.cls-39{opacity:.35}.cls-40{opacity:.51}.cls-41{opacity:.41}.cls-42{opacity:.25}.cls-43{opacity:.42}.cls-44{opacity:.68}.cls-45{opacity:.05}.cls-46{opacity:.78}.cls-47{opacity:.46}.cls-48{opacity:.48}.cls-49{opacity:.17}.cls-50{opacity:.8}.cls-51{opacity:.94}.cls-52{opacity:.1}.cls-53{opacity:.6}.cls-54{opacity:.69}.cls-55{opacity:.23}.cls-56{opacity:.73}.cls-57{opacity:.47}.cls-58{opacity:.34}.cls-59{opacity:.84}.cls-60{opacity:.76}.cls-61{opacity:.24}.cls-62{opacity:.39}.cls-63{opacity:.93}.cls-64{opacity:.38}.cls-65{opacity:.85}.cls-66{opacity:.2}.cls-67{opacity:.81}.cls-68{opacity:.43}.cls-69{opacity:.82}.cls-70{opacity:.49}.cls-71{opacity:.53}.cls-72{opacity:.29}.cls-74{opacity:.14}.cls-75{opacity:.99}.cls-76{opacity:.9}.cls-77{opacity:.44}.cls-78{opacity:.88}.cls-79{opacity:.45}.cls-80{opacity:.87}.cls-81{opacity:.67}.cls-82{opacity:.21}.cls-83{opacity:.13}.cls-84{opacity:.63}.cls-85{opacity:.61}.cls-86{opacity:.58}.cls-87{opacity:.64}.cls-88{opacity:.26}.cls-89{opacity:.72}.cls-90{opacity:.89}.cls-91{opacity:.52}.cls-92{opacity:.96}.cls-93{opacity:.55}.cls-94{opacity:.95}.cls-96{opacity:.92}.cls-97{opacity:.16}.cls-98{opacity:.27}.cls-99{opacity:.09}</style></defs><g id="图层_2" data-name="图层 2"><g id="Layer_1" data-name="Layer 1"><path class="cls-1" d="M973.59 13.3L996.23.23l22.63 13.07v26.14l-22.63 13.07-22.64-13.07V13.3zM928.32 13.3L950.95.23l22.64 13.07v26.14l-22.64 13.07-22.63-13.07V13.3z"/><path class="cls-2" d="M950.95 52.51l22.64-13.07 22.64 13.07v26.14l-22.64 13.07-22.64-13.07V52.51z"/><path class="cls-3" d="M905.68 52.51l22.64-13.07 22.63 13.07v26.14l-22.63 13.07-22.64-13.07V52.51z"/><path class="cls-4" d="M973.59 91.85l22.64-13.07 22.63 13.07v26.13l-22.63 13.07-22.64-13.07V91.85z"/><path class="cls-5" d="M928.32 91.85l22.63-13.07 22.64 13.07v26.13l-22.64 13.07-22.63-13.07V91.85z"/><path class="cls-6" d="M950.95 131.05l22.64-13.07 22.64 13.07v26.14l-22.64 13.07-22.64-13.07v-26.14z"/><path class="cls-7" d="M905.68 131.05l22.64-13.07 22.63 13.07v26.14l-22.63 13.07-22.64-13.07v-26.14z"/><path class="cls-8" d="M973.59 170.39l22.64-13.07 22.63 13.07v26.14l-22.63 13.07-22.64-13.07v-26.14z"/><path class="cls-9" d="M928.32 170.39l22.63-13.07 22.64 13.07v26.14l-22.64 13.07-22.63-13.07v-26.14z"/><path class="cls-10" d="M950.95 209.6l22.64-13.07 22.64 13.07v26.14l-22.64 13.07-22.64-13.07V209.6z"/><path class="cls-11" d="M905.68 209.6l22.64-13.07 22.63 13.07v26.14l-22.63 13.07-22.64-13.07V209.6z"/><path class="cls-12" d="M973.59 248.93l22.64-13.07 22.63 13.07v26.14l-22.63 13.07-22.64-13.07v-26.14z"/><path class="cls-13" d="M928.32 248.93l22.63-13.07 22.64 13.07v26.14l-22.64 13.07-22.63-13.07v-26.14z"/><path class="cls-14" d="M950.95 288.14l22.64-13.07 22.64 13.07v26.14l-22.64 13.07-22.64-13.07v-26.14z"/><path class="cls-15" d="M905.68 288.14l22.64-13.07 22.63 13.07v26.14l-22.63 13.07-22.64-13.07v-26.14z"/><path class="cls-16" d="M973.59 327.48l22.64-13.07 22.63 13.07v26.14l-22.63 13.07-22.64-13.07v-26.14z"/><path class="cls-17" d="M928.32 327.48l22.63-13.07 22.64 13.07v26.14l-22.64 13.07-22.63-13.07v-26.14z"/><path class="cls-18" d="M950.95 366.69l22.64-13.07 22.64 13.07v26.13l-22.64 13.07-22.64-13.07v-26.13z"/><path class="cls-19" d="M905.68 366.69l22.64-13.07 22.63 13.07v26.13l-22.63 13.07-22.64-13.07v-26.13z"/><path class="cls-20" d="M973.59 406.02l22.64-13.07 22.63 13.07v26.14l-22.63 13.07-22.64-13.07v-26.14z"/><path class="cls-4" d="M928.32 406.02l22.63-13.07 22.64 13.07v26.14l-22.64 13.07-22.63-13.07v-26.14z"/><path class="cls-21" d="M950.95 445.23l22.64-13.07 22.64 13.07v26.14l-22.64 13.07-22.64-13.07v-26.14z"/><path class="cls-22" d="M905.68 445.23l22.64-13.07 22.63 13.07v26.14l-22.63 13.07-22.64-13.07v-26.14z"/><path class="cls-8" d="M973.59 484.56l22.64-13.06 22.63 13.06v26.14l-22.63 13.07-22.64-13.07v-26.14z"/><path class="cls-23" d="M928.32 484.56l22.63-13.06 22.64 13.06v26.14l-22.64 13.07-22.63-13.07v-26.14z"/><path class="cls-3" d="M950.95 523.77l22.64-13.07 22.64 13.07v26.14l-22.64 13.07-22.64-13.07v-26.14z"/><path class="cls-24" d="M905.68 523.77l22.64-13.07 22.63 13.07v26.14l-22.63 13.07-22.64-13.07v-26.14z"/><path class="cls-25" d="M973.59 563.11l22.64-13.07 22.63 13.07v26.14l-22.63 13.07-22.64-13.07v-26.14z"/><path class="cls-26" d="M928.32 563.11l22.63-13.07 22.64 13.07v26.14l-22.64 13.07-22.63-13.07v-26.14z"/><path class="cls-27" d="M950.95 602.32l22.64-13.07 22.64 13.07v26.14l-22.64 13.06-22.64-13.06v-26.14z"/><path class="cls-28" d="M905.68 602.32l22.64-13.07 22.63 13.07v26.14l-22.63 13.06-22.64-13.06v-26.14z"/><path class="cls-29" d="M973.59 641.65l22.64-13.07 22.63 13.07v26.14l-22.63 13.07-22.64-13.07v-26.14z"/><path class="cls-21" d="M928.32 641.65l22.63-13.07 22.64 13.07v26.14l-22.64 13.07-22.63-13.07v-26.14z"/><path class="cls-30" d="M950.95 680.86l22.64-13.07 22.64 13.07V707l-22.64 13.07L950.95 707v-26.14z"/><path class="cls-31" d="M905.68 680.86l22.64-13.07 22.63 13.07V707l-22.63 13.07L905.68 707v-26.14z"/><path class="cls-6" d="M973.59 720.2l22.64-13.07 22.63 13.07v26.14l-22.63 13.06-22.64-13.06V720.2z"/><path class="cls-32" d="M928.32 720.2l22.63-13.07 22.64 13.07v26.14l-22.64 13.06-22.63-13.06V720.2z"/><path class="cls-27" d="M950.95 759.4l22.64-13.06 22.64 13.06v26.14l-22.64 13.07-22.64-13.07V759.4z"/><path class="cls-22" d="M905.68 759.4l22.64-13.06 22.63 13.06v26.14l-22.63 13.07-22.64-13.07V759.4z"/><path class="cls-31" d="M973.59 798.74l22.64-13.07 22.63 13.07v26.14l-22.63 13.07-22.64-13.07v-26.14z"/><path class="cls-1" d="M928.32 798.74l22.63-13.07 22.64 13.07v26.14l-22.64 13.07-22.63-13.07v-26.14zM950.95 837.95l22.64-13.07 22.64 13.07v26.14l-22.64 13.07-22.64-13.07v-26.14z"/><path class="cls-3" d="M905.68 837.95l22.64-13.07 22.63 13.07v26.14l-22.63 13.07-22.64-13.07v-26.14z"/><path class="cls-33" d="M883.04 13.3L905.68.23l22.64 13.07v26.14l-22.64 13.07-22.64-13.07V13.3z"/><path class="cls-34" d="M837.77 13.3L860.4.23l22.64 13.07v26.14L860.4 52.51l-22.63-13.07V13.3z"/><path class="cls-15" d="M860.4 52.51l22.64-13.07 22.64 13.07v26.14l-22.64 13.07-22.64-13.07V52.51z"/><path class="cls-13" d="M815.13 52.51l22.64-13.07 22.63 13.07v26.14l-22.63 13.07-22.64-13.07V52.51z"/><path class="cls-12" d="M883.04 91.85l22.64-13.07 22.64 13.07v26.13l-22.64 13.07-22.64-13.07V91.85z"/><path class="cls-30" d="M837.77 91.85l22.63-13.07 22.64 13.07v26.13l-22.64 13.07-22.63-13.07V91.85z"/><path class="cls-35" d="M860.4 131.05l22.64-13.07 22.64 13.07v26.14l-22.64 13.07-22.64-13.07v-26.14z"/><path class="cls-36" d="M815.13 131.05l22.64-13.07 22.63 13.07v26.14l-22.63 13.07-22.64-13.07v-26.14z"/><path class="cls-37" d="M883.04 170.39l22.64-13.07 22.64 13.07v26.14l-22.64 13.07-22.64-13.07v-26.14z"/><path class="cls-38" d="M837.77 170.39l22.63-13.07 22.64 13.07v26.14L860.4 209.6l-22.63-13.07v-26.14z"/><path class="cls-39" d="M860.4 209.6l22.64-13.07 22.64 13.07v26.14l-22.64 13.07-22.64-13.07V209.6z"/><path class="cls-40" d="M815.13 209.6l22.64-13.07 22.63 13.07v26.14l-22.63 13.07-22.64-13.07V209.6z"/><path class="cls-41" d="M883.04 248.93l22.64-13.07 22.64 13.07v26.14l-22.64 13.07-22.64-13.07v-26.14z"/><path class="cls-42" d="M837.77 248.93l22.63-13.07 22.64 13.07v26.14l-22.64 13.07-22.63-13.07v-26.14z"/><path class="cls-43" d="M860.4 288.14l22.64-13.07 22.64 13.07v26.14l-22.64 13.07-22.64-13.07v-26.14z"/><path class="cls-32" d="M815.13 288.14l22.64-13.07 22.63 13.07v26.14l-22.63 13.07-22.64-13.07v-26.14z"/><path class="cls-38" d="M883.04 327.48l22.64-13.07 22.64 13.07v26.14l-22.64 13.07-22.64-13.07v-26.14z"/><path class="cls-35" d="M837.77 327.48l22.63-13.07 22.64 13.07v26.14l-22.64 13.07-22.63-13.07v-26.14z"/><path class="cls-40" d="M860.4 366.69l22.64-13.07 22.64 13.07v26.13l-22.64 13.07-22.64-13.07v-26.13z"/><path class="cls-20" d="M815.13 366.69l22.64-13.07 22.63 13.07v26.13l-22.63 13.07-22.64-13.07v-26.13z"/><path class="cls-44" d="M883.04 406.02l22.64-13.07 22.64 13.07v26.14l-22.64 13.07-22.64-13.07v-26.14z"/><path class="cls-45" d="M837.77 406.02l22.63-13.07 22.64 13.07v26.14l-22.64 13.07-22.63-13.07v-26.14z"/><path class="cls-10" d="M860.4 445.23l22.64-13.07 22.64 13.07v26.14l-22.64 13.07-22.64-13.07v-26.14z"/><path class="cls-16" d="M815.13 445.23l22.64-13.07 22.63 13.07v26.14l-22.63 13.07-22.64-13.07v-26.14z"/><path class="cls-36" d="M883.04 484.56l22.64-13.06 22.64 13.06v26.14l-22.64 13.07-22.64-13.07v-26.14z"/><path class="cls-34" d="M837.77 484.56l22.63-13.06 22.64 13.06v26.14l-22.64 13.07-22.63-13.07v-26.14z"/><path class="cls-46" d="M860.4 523.77l22.64-13.07 22.64 13.07v26.14l-22.64 13.07-22.64-13.07v-26.14z"/><path class="cls-47" d="M815.13 523.77l22.64-13.07 22.63 13.07v26.14l-22.63 13.07-22.64-13.07v-26.14z"/><path class="cls-48" d="M883.04 563.11l22.64-13.07 22.64 13.07v26.14l-22.64 13.07-22.64-13.07v-26.14z"/><path class="cls-45" d="M837.77 563.11l22.63-13.07 22.64 13.07v26.14l-22.64 13.07-22.63-13.07v-26.14z"/><path class="cls-49" d="M860.4 602.32l22.64-13.07 22.64 13.07v26.14l-22.64 13.06-22.64-13.06v-26.14z"/><path class="cls-50" d="M815.13 602.32l22.64-13.07 22.63 13.07v26.14l-22.63 13.06-22.64-13.06v-26.14z"/><path class="cls-51" d="M883.04 641.65l22.64-13.07 22.64 13.07v26.14l-22.64 13.07-22.64-13.07v-26.14z"/><path class="cls-52" d="M837.77 641.65l22.63-13.07 22.64 13.07v26.14l-22.64 13.07-22.63-13.07v-26.14z"/><path class="cls-19" d="M860.4 680.86l22.64-13.07 22.64 13.07V707l-22.64 13.07L860.4 707v-26.14z"/><path class="cls-53" d="M815.13 680.86l22.64-13.07 22.63 13.07V707l-22.63 13.07L815.13 707v-26.14z"/><path class="cls-54" d="M883.04 720.2l22.64-13.07 22.64 13.07v26.14l-22.64 13.06-22.64-13.06V720.2z"/><path class="cls-55" d="M837.77 720.2l22.63-13.07 22.64 13.07v26.14L860.4 759.4l-22.63-13.06V720.2z"/><path class="cls-28" d="M860.4 759.4l22.64-13.06 22.64 13.06v26.14l-22.64 13.07-22.64-13.07V759.4z"/><path class="cls-4" d="M815.13 759.4l22.64-13.06 22.63 13.06v26.14l-22.63 13.07-22.64-13.07V759.4z"/><path class="cls-14" d="M883.04 798.74l22.64-13.07 22.64 13.07v26.14l-22.64 13.07-22.64-13.07v-26.14z"/><path class="cls-13" d="M837.77 798.74l22.63-13.07 22.64 13.07v26.14l-22.64 13.07-22.63-13.07v-26.14z"/><path class="cls-32" d="M860.4 837.95l22.64-13.07 22.64 13.07v26.14l-22.64 13.07-22.64-13.07v-26.14z"/><path class="cls-46" d="M815.13 837.95l22.64-13.07 22.63 13.07v26.14l-22.63 13.07-22.64-13.07v-26.14z"/><path class="cls-56" d="M792.49 13.3L815.13.23l22.64 13.07v26.14l-22.64 13.07-22.64-13.07V13.3z"/><path class="cls-42" d="M747.22 13.3L769.86.23l22.63 13.07v26.14l-22.63 13.07-22.64-13.07V13.3z"/><path class="cls-22" d="M769.86 52.51l22.63-13.07 22.64 13.07v26.14l-22.64 13.07-22.63-13.07V52.51z"/><path class="cls-39" d="M724.58 52.51l22.64-13.07 22.64 13.07v26.14l-22.64 13.07-22.64-13.07V52.51z"/><path class="cls-15" d="M792.49 91.85l22.64-13.07 22.64 13.07v26.13l-22.64 13.07-22.64-13.07V91.85z"/><path class="cls-57" d="M747.22 91.85l22.64-13.07 22.63 13.07v26.13l-22.63 13.07-22.64-13.07V91.85z"/><path class="cls-22" d="M769.86 131.05l22.63-13.07 22.64 13.07v26.14l-22.64 13.07-22.63-13.07v-26.14z"/><path class="cls-58" d="M724.58 131.05l22.64-13.07 22.64 13.07v26.14l-22.64 13.07-22.64-13.07v-26.14z"/><path class="cls-29" d="M792.49 170.39l22.64-13.07 22.64 13.07v26.14l-22.64 13.07-22.64-13.07v-26.14z"/><path class="cls-8" d="M747.22 170.39l22.64-13.07 22.63 13.07v26.14l-22.63 13.07-22.64-13.07v-26.14z"/><path class="cls-52" d="M769.86 209.6l22.63-13.07 22.64 13.07v26.14l-22.64 13.07-22.63-13.07V209.6z"/><path class="cls-59" d="M724.58 209.6l22.64-13.07 22.64 13.07v26.14l-22.64 13.07-22.64-13.07V209.6z"/><path class="cls-54" d="M792.49 248.93l22.64-13.07 22.64 13.07v26.14l-22.64 13.07-22.64-13.07v-26.14z"/><path class="cls-60" d="M747.22 248.93l22.64-13.07 22.63 13.07v26.14l-22.63 13.07-22.64-13.07v-26.14z"/><path class="cls-61" d="M769.86 288.14l22.63-13.07 22.64 13.07v26.14l-22.64 13.07-22.63-13.07v-26.14z"/><path class="cls-37" d="M724.58 288.14l22.64-13.07 22.64 13.07v26.14l-22.64 13.07-22.64-13.07v-26.14z"/><path class="cls-11" d="M792.49 327.48l22.64-13.07 22.64 13.07v26.14l-22.64 13.07-22.64-13.07v-26.14z"/><path class="cls-22" d="M747.22 327.48l22.64-13.07 22.63 13.07v26.14l-22.63 13.07-22.64-13.07v-26.14z"/><path class="cls-27" d="M769.86 366.69l22.63-13.07 22.64 13.07v26.13l-22.64 13.07-22.63-13.07v-26.13z"/><path class="cls-48" d="M724.58 366.69l22.64-13.07 22.64 13.07v26.13l-22.64 13.07-22.64-13.07v-26.13z"/><path class="cls-3" d="M792.49 406.02l22.64-13.07 22.64 13.07v26.14l-22.64 13.07-22.64-13.07v-26.14z"/><path class="cls-62" d="M747.22 406.02l22.64-13.07 22.63 13.07v26.14l-22.63 13.07-22.64-13.07v-26.14z"/><path class="cls-16" d="M769.86 445.23l22.63-13.07 22.64 13.07v26.14l-22.64 13.07-22.63-13.07v-26.14z"/><path class="cls-63" d="M724.58 445.23l22.64-13.07 22.64 13.07v26.14l-22.64 13.07-22.64-13.07v-26.14z"/><path class="cls-6" d="M792.49 484.56l22.64-13.06 22.64 13.06v26.14l-22.64 13.07-22.64-13.07v-26.14z"/><path class="cls-36" d="M747.22 484.56l22.64-13.06 22.63 13.06v26.14l-22.63 13.07-22.64-13.07v-26.14z"/><path class="cls-45" d="M769.86 523.77l22.63-13.07 22.64 13.07v26.14l-22.64 13.07-22.63-13.07v-26.14z"/><path class="cls-64" d="M724.58 523.77l22.64-13.07 22.64 13.07v26.14l-22.64 13.07-22.64-13.07v-26.14z"/><path class="cls-65" d="M792.49 563.11l22.64-13.07 22.64 13.07v26.14l-22.64 13.07-22.64-13.07v-26.14z"/><path class="cls-66" d="M747.22 563.11l22.64-13.07 22.63 13.07v26.14l-22.63 13.07-22.64-13.07v-26.14z"/><path class="cls-60" d="M769.86 602.32l22.63-13.07 22.64 13.07v26.14l-22.64 13.06-22.63-13.06v-26.14z"/><path class="cls-67" d="M724.58 602.32l22.64-13.07 22.64 13.07v26.14l-22.64 13.06-22.64-13.06v-26.14z"/><path class="cls-22" d="M792.49 641.65l22.64-13.07 22.64 13.07v26.14l-22.64 13.07-22.64-13.07v-26.14z"/><path class="cls-61" d="M747.22 641.65l22.64-13.07 22.63 13.07v26.14l-22.63 13.07-22.64-13.07v-26.14z"/><path class="cls-20" d="M769.86 680.86l22.63-13.07 22.64 13.07V707l-22.64 13.07L769.86 707v-26.14z"/><path class="cls-68" d="M724.58 680.86l22.64-13.07 22.64 13.07V707l-22.64 13.07L724.58 707v-26.14z"/><path class="cls-69" d="M792.49 720.2l22.64-13.07 22.64 13.07v26.14l-22.64 13.06-22.64-13.06V720.2z"/><path class="cls-12" d="M747.22 720.2l22.64-13.07 22.63 13.07v26.14l-22.63 13.06-22.64-13.06V720.2z"/><path class="cls-67" d="M769.86 759.4l22.63-13.06 22.64 13.06v26.14l-22.64 13.07-22.63-13.07V759.4z"/><path class="cls-70" d="M724.58 759.4l22.64-13.06 22.64 13.06v26.14l-22.64 13.07-22.64-13.07V759.4z"/><path class="cls-55" d="M792.49 798.74l22.64-13.07 22.64 13.07v26.14l-22.64 13.07-22.64-13.07v-26.14z"/><path class="cls-71" d="M747.22 798.74l22.64-13.07 22.63 13.07v26.14l-22.63 13.07-22.64-13.07v-26.14z"/><path class="cls-20" d="M769.86 837.95l22.63-13.07 22.64 13.07v26.14l-22.64 13.07-22.63-13.07v-26.14z"/><path class="cls-2" d="M724.58 837.95l22.64-13.07 22.64 13.07v26.14l-22.64 13.07-22.64-13.07v-26.14z"/><path class="cls-64" d="M701.95 13.3L724.58.23l22.64 13.07v26.14l-22.64 13.07-22.63-13.07V13.3z"/><path class="cls-72" d="M656.67 13.3L679.31.23l22.64 13.07v26.14l-22.64 13.07-22.64-13.07V13.3z"/><path class="cls-31" d="M679.31 52.51l22.64-13.07 22.63 13.07v26.14l-22.63 13.07-22.64-13.07V52.51z"/><path class="cls-4" d="M634.04 52.51l22.63-13.07 22.64 13.07v26.14l-22.64 13.07-22.63-13.07V52.51z"/><path class="cls-73" d="M701.95 91.85l22.63-13.07 22.64 13.07v26.13l-22.64 13.07-22.63-13.07V91.85z"/><path class="cls-29" d="M656.67 91.85l22.64-13.07 22.64 13.07v26.13l-22.64 13.07-22.64-13.07V91.85z"/><path class="cls-44" d="M679.31 131.05l22.64-13.07 22.63 13.07v26.14l-22.63 13.07-22.64-13.07v-26.14z"/><path class="cls-45" d="M634.04 131.05l22.63-13.07 22.64 13.07v26.14l-22.64 13.07-22.63-13.07v-26.14z"/><path class="cls-74" d="M701.95 170.39l22.63-13.07 22.64 13.07v26.14l-22.64 13.07-22.63-13.07v-26.14z"/><path class="cls-60" d="M656.67 170.39l22.64-13.07 22.64 13.07v26.14l-22.64 13.07-22.64-13.07v-26.14z"/><path class="cls-67" d="M679.31 209.6l22.64-13.07 22.63 13.07v26.14l-22.63 13.07-22.64-13.07V209.6z"/><path class="cls-75" d="M634.04 209.6l22.63-13.07 22.64 13.07v26.14l-22.64 13.07-22.63-13.07V209.6z"/><path class="cls-12" d="M701.95 248.93l22.63-13.07 22.64 13.07v26.14l-22.64 13.07-22.63-13.07v-26.14z"/><path class="cls-10" d="M656.67 248.93l22.64-13.07 22.64 13.07v26.14l-22.64 13.07-22.64-13.07v-26.14z"/><path class="cls-42" d="M679.31 288.14l22.64-13.07 22.63 13.07v26.14l-22.63 13.07-22.64-13.07v-26.14z"/><path class="cls-76" d="M634.04 288.14l22.63-13.07 22.64 13.07v26.14l-22.64 13.07-22.63-13.07v-26.14z"/><path class="cls-19" d="M701.95 327.48l22.63-13.07 22.64 13.07v26.14l-22.64 13.07-22.63-13.07v-26.14z"/><path class="cls-42" d="M656.67 327.48l22.64-13.07 22.64 13.07v26.14l-22.64 13.07-22.64-13.07v-26.14z"/><path class="cls-25" d="M679.31 366.69l22.64-13.07 22.63 13.07v26.13l-22.63 13.07-22.64-13.07v-26.13z"/><path class="cls-77" d="M634.04 366.69l22.63-13.07 22.64 13.07v26.13l-22.64 13.07-22.63-13.07v-26.13z"/><path class="cls-42" d="M701.95 406.02l22.63-13.07 22.64 13.07v26.14l-22.64 13.07-22.63-13.07v-26.14z"/><path class="cls-78" d="M656.67 406.02l22.64-13.07 22.64 13.07v26.14l-22.64 13.07-22.64-13.07v-26.14z"/><path class="cls-77" d="M679.31 445.23l22.64-13.07 22.63 13.07v26.14l-22.63 13.07-22.64-13.07v-26.14z"/><path class="cls-19" d="M634.04 445.23l22.63-13.07 22.64 13.07v26.14l-22.64 13.07-22.63-13.07v-26.14z"/><path class="cls-41" d="M701.95 484.56l22.63-13.06 22.64 13.06v26.14l-22.64 13.07-22.63-13.07v-26.14z"/><path class="cls-79" d="M656.67 484.56l22.64-13.06 22.64 13.06v26.14l-22.64 13.07-22.64-13.07v-26.14z"/><path class="cls-42" d="M679.31 523.77l22.64-13.07 22.63 13.07v26.14l-22.63 13.07-22.64-13.07v-26.14z"/><path class="cls-71" d="M634.04 523.77l22.63-13.07 22.64 13.07v26.14l-22.64 13.07-22.63-13.07v-26.14z"/><path class="cls-7" d="M701.95 563.11l22.63-13.07 22.64 13.07v26.14l-22.64 13.07-22.63-13.07v-26.14z"/><path class="cls-80" d="M656.67 563.11l22.64-13.07 22.64 13.07v26.14l-22.64 13.07-22.64-13.07v-26.14z"/><path class="cls-81" d="M679.31 602.32l22.64-13.07 22.63 13.07v26.14l-22.63 13.06-22.64-13.06v-26.14z"/><path class="cls-82" d="M634.04 602.32l22.63-13.07 22.64 13.07v26.14l-22.64 13.06-22.63-13.06v-26.14z"/><path class="cls-83" d="M701.95 641.65l22.63-13.07 22.64 13.07v26.14l-22.64 13.07-22.63-13.07v-26.14z"/><path class="cls-63" d="M656.67 641.65l22.64-13.07 22.64 13.07v26.14l-22.64 13.07-22.64-13.07v-26.14z"/><path class="cls-84" d="M679.31 680.86l22.64-13.07 22.63 13.07V707l-22.63 13.07L679.31 707v-26.14z"/><path class="cls-47" d="M634.04 680.86l22.63-13.07 22.64 13.07V707l-22.64 13.07L634.04 707v-26.14z"/><path class="cls-84" d="M701.95 720.2l22.63-13.07 22.64 13.07v26.14l-22.64 13.06-22.63-13.06V720.2z"/><path class="cls-39" d="M656.67 720.2l22.64-13.07 22.64 13.07v26.14l-22.64 13.06-22.64-13.06V720.2z"/><path class="cls-81" d="M679.31 759.4l22.64-13.06 22.63 13.06v26.14l-22.63 13.07-22.64-13.07V759.4z"/><path class="cls-76" d="M634.04 759.4l22.63-13.06 22.64 13.06v26.14l-22.64 13.07-22.63-13.07V759.4z"/><path class="cls-72" d="M701.95 798.74l22.63-13.07 22.64 13.07v26.14l-22.64 13.07-22.63-13.07v-26.14z"/><path class="cls-24" d="M656.67 798.74l22.64-13.07 22.64 13.07v26.14l-22.64 13.07-22.64-13.07v-26.14z"/><path class="cls-5" d="M679.31 837.95l22.64-13.07 22.63 13.07v26.14l-22.63 13.07-22.64-13.07v-26.14z"/><path class="cls-69" d="M634.04 837.95l22.63-13.07 22.64 13.07v26.14l-22.64 13.07-22.63-13.07v-26.14z"/><path class="cls-85" d="M611.4 13.3L634.04.23l22.63 13.07v26.14l-22.63 13.07-22.64-13.07V13.3z"/><path class="cls-58" d="M566.13 13.3L588.76.23 611.4 13.3v26.14l-22.64 13.07-22.63-13.07V13.3z"/><path class="cls-28" d="M588.76 52.51l22.64-13.07 22.64 13.07v26.14L611.4 91.72l-22.64-13.07V52.51z"/><path class="cls-53" d="M543.49 52.51l22.64-13.07 22.63 13.07v26.14l-22.63 13.07-22.64-13.07V52.51z"/><path class="cls-38" d="M611.4 91.85l22.64-13.07 22.63 13.07v26.13l-22.63 13.07-22.64-13.07V91.85z"/><path class="cls-22" d="M566.13 91.85l22.63-13.07 22.64 13.07v26.13l-22.64 13.07-22.63-13.07V91.85z"/><path class="cls-86" d="M588.76 131.05l22.64-13.07 22.64 13.07v26.14l-22.64 13.07-22.64-13.07v-26.14z"/><path class="cls-39" d="M543.49 131.05l22.64-13.07 22.63 13.07v26.14l-22.63 13.07-22.64-13.07v-26.14z"/><path class="cls-87" d="M611.4 170.39l22.64-13.07 22.63 13.07v26.14l-22.63 13.07-22.64-13.07v-26.14z"/><path class="cls-27" d="M566.13 170.39l22.63-13.07 22.64 13.07v26.14l-22.64 13.07-22.63-13.07v-26.14z"/><path class="cls-16" d="M588.76 209.6l22.64-13.07 22.64 13.07v26.14l-22.64 13.07-22.64-13.07V209.6z"/><path class="cls-26" d="M543.49 209.6l22.64-13.07 22.63 13.07v26.14l-22.63 13.07-22.64-13.07V209.6z"/><path class="cls-88" d="M611.4 248.93l22.64-13.07 22.63 13.07v26.14l-22.63 13.07-22.64-13.07v-26.14z"/><path class="cls-89" d="M566.13 248.93l22.63-13.07 22.64 13.07v26.14l-22.64 13.07-22.63-13.07v-26.14z"/><path class="cls-75" d="M588.76 288.14l22.64-13.07 22.64 13.07v26.14l-22.64 13.07-22.64-13.07v-26.14z"/><path class="cls-41" d="M543.49 288.14l22.64-13.07 22.63 13.07v26.14l-22.63 13.07-22.64-13.07v-26.14z"/><path class="cls-14" d="M611.4 327.48l22.64-13.07 22.63 13.07v26.14l-22.63 13.07-22.64-13.07v-26.14z"/><path class="cls-62" d="M566.13 327.48l22.63-13.07 22.64 13.07v26.14l-22.64 13.07-22.63-13.07v-26.14z"/><path class="cls-54" d="M588.76 366.69l22.64-13.07 22.64 13.07v26.13l-22.64 13.07-22.64-13.07v-26.13z"/><path class="cls-45" d="M543.49 366.69l22.64-13.07 22.63 13.07v26.13l-22.63 13.07-22.64-13.07v-26.13z"/><path class="cls-43" d="M611.4 406.02l22.64-13.07 22.63 13.07v26.14l-22.63 13.07-22.64-13.07v-26.14z"/><path class="cls-90" d="M566.13 406.02l22.63-13.07 22.64 13.07v26.14l-22.64 13.07-22.63-13.07v-26.14z"/><path class="cls-86" d="M588.76 445.23l22.64-13.07 22.64 13.07v26.14l-22.64 13.07-22.64-13.07v-26.14z"/><path class="cls-45" d="M543.49 445.23l22.64-13.07 22.63 13.07v26.14l-22.63 13.07-22.64-13.07v-26.14z"/><path class="cls-69" d="M611.4 484.56l22.64-13.06 22.63 13.06v26.14l-22.63 13.07-22.64-13.07v-26.14z"/><path class="cls-27" d="M566.13 484.56l22.63-13.06 22.64 13.06v26.14l-22.64 13.07-22.63-13.07v-26.14z"/><path class="cls-50" d="M588.76 523.77l22.64-13.07 22.64 13.07v26.14l-22.64 13.07-22.64-13.07v-26.14z"/><path class="cls-39" d="M543.49 523.77l22.64-13.07 22.63 13.07v26.14l-22.63 13.07-22.64-13.07v-26.14z"/><path class="cls-6" d="M611.4 563.11l22.64-13.07 22.63 13.07v26.14l-22.63 13.07-22.64-13.07v-26.14z"/><path class="cls-90" d="M566.13 563.11l22.63-13.07 22.64 13.07v26.14l-22.64 13.07-22.63-13.07v-26.14z"/><path class="cls-89" d="M588.76 602.32l22.64-13.07 22.64 13.07v26.14l-22.64 13.06-22.64-13.06v-26.14z"/><path class="cls-49" d="M543.49 602.32l22.64-13.07 22.63 13.07v26.14l-22.63 13.06-22.64-13.06v-26.14z"/><path class="cls-90" d="M611.4 641.65l22.64-13.07 22.63 13.07v26.14l-22.63 13.07-22.64-13.07v-26.14z"/><path class="cls-12" d="M566.13 641.65l22.63-13.07 22.64 13.07v26.14l-22.64 13.07-22.63-13.07v-26.14z"/><path class="cls-57" d="M588.76 680.86l22.64-13.07 22.64 13.07V707l-22.64 13.07L588.76 707v-26.14z"/><path class="cls-82" d="M543.49 680.86l22.64-13.07 22.63 13.07V707l-22.63 13.07L543.49 707v-26.14z"/><path class="cls-12" d="M611.4 720.2l22.64-13.07 22.63 13.07v26.14l-22.63 13.06-22.64-13.06V720.2z"/><path class="cls-32" d="M566.13 720.2l22.63-13.07 22.64 13.07v26.14l-22.64 13.06-22.63-13.06V720.2z"/><path class="cls-62" d="M588.76 759.4l22.64-13.06 22.64 13.06v26.14l-22.64 13.07-22.64-13.07V759.4zM543.49 759.4l22.64-13.06 22.63 13.06v26.14l-22.63 13.07-22.64-13.07V759.4z"/><path class="cls-85" d="M611.4 798.74l22.64-13.07 22.63 13.07v26.14l-22.63 13.07-22.64-13.07v-26.14z"/><path class="cls-88" d="M566.13 798.74l22.63-13.07 22.64 13.07v26.14l-22.64 13.07-22.63-13.07v-26.14z"/><path class="cls-42" d="M588.76 837.95l22.64-13.07 22.64 13.07v26.14l-22.64 13.07-22.64-13.07v-26.14z"/><path class="cls-89" d="M543.49 837.95l22.64-13.07 22.63 13.07v26.14l-22.63 13.07-22.64-13.07v-26.14z"/><path class="cls-91" d="M520.85 13.3L543.49.23l22.64 13.07v26.14l-22.64 13.07-22.64-13.07V13.3z"/><path class="cls-58" d="M475.58 13.3L498.21.23l22.64 13.07v26.14l-22.64 13.07-22.63-13.07V13.3z"/><path class="cls-87" d="M498.21 52.51l22.64-13.07 22.64 13.07v26.14l-22.64 13.07-22.64-13.07V52.51z"/><path class="cls-92" d="M452.94 52.51l22.64-13.07 22.63 13.07v26.14l-22.63 13.07-22.64-13.07V52.51z"/><path class="cls-47" d="M520.85 91.85l22.64-13.07 22.64 13.07v26.13l-22.64 13.07-22.64-13.07V91.85z"/><path class="cls-45" d="M475.58 91.85l22.63-13.07 22.64 13.07v26.13l-22.64 13.07-22.63-13.07V91.85z"/><path class="cls-61" d="M498.21 131.05l22.64-13.07 22.64 13.07v26.14l-22.64 13.07-22.64-13.07v-26.14z"/><path class="cls-45" d="M452.94 131.05l22.64-13.07 22.63 13.07v26.14l-22.63 13.07-22.64-13.07v-26.14z"/><path class="cls-27" d="M520.85 170.39l22.64-13.07 22.64 13.07v26.14l-22.64 13.07-22.64-13.07v-26.14z"/><path class="cls-90" d="M475.58 170.39l22.63-13.07 22.64 13.07v26.14l-22.64 13.07-22.63-13.07v-26.14z"/><path class="cls-50" d="M498.21 209.6l22.64-13.07 22.64 13.07v26.14l-22.64 13.07-22.64-13.07V209.6z"/><path class="cls-30" d="M452.94 209.6l22.64-13.07 22.63 13.07v26.14l-22.63 13.07-22.64-13.07V209.6z"/><path class="cls-22" d="M520.85 248.93l22.64-13.07 22.64 13.07v26.14l-22.64 13.07-22.64-13.07v-26.14z"/><path class="cls-9" d="M475.58 248.93l22.63-13.07 22.64 13.07v26.14l-22.64 13.07-22.63-13.07v-26.14z"/><path class="cls-59" d="M498.21 288.14l22.64-13.07 22.64 13.07v26.14l-22.64 13.07-22.64-13.07v-26.14z"/><path class="cls-16" d="M452.94 288.14l22.64-13.07 22.63 13.07v26.14l-22.63 13.07-22.64-13.07v-26.14z"/><path class="cls-76" d="M520.85 327.48l22.64-13.07 22.64 13.07v26.14l-22.64 13.07-22.64-13.07v-26.14z"/><path class="cls-61" d="M475.58 327.48l22.63-13.07 22.64 13.07v26.14l-22.64 13.07-22.63-13.07v-26.14z"/><path class="cls-3" d="M498.21 366.69l22.64-13.07 22.64 13.07v26.13l-22.64 13.07-22.64-13.07v-26.13z"/><path class="cls-53" d="M452.94 366.69l22.64-13.07 22.63 13.07v26.13l-22.63 13.07-22.64-13.07v-26.13z"/><path class="cls-93" d="M520.85 406.02l22.64-13.07 22.64 13.07v26.14l-22.64 13.07-22.64-13.07v-26.14z"/><path class="cls-87" d="M475.58 406.02l22.63-13.07 22.64 13.07v26.14l-22.64 13.07-22.63-13.07v-26.14z"/><path class="cls-9" d="M498.21 445.23l22.64-13.07 22.64 13.07v26.14l-22.64 13.07-22.64-13.07v-26.14z"/><path class="cls-86" d="M452.94 445.23l22.64-13.07 22.63 13.07v26.14l-22.63 13.07-22.64-13.07v-26.14z"/><path class="cls-70" d="M520.85 484.56l22.64-13.06 22.64 13.06v26.14l-22.64 13.07-22.64-13.07v-26.14z"/><path class="cls-21" d="M475.58 484.56l22.63-13.06 22.64 13.06v26.14l-22.64 13.07-22.63-13.07v-26.14z"/><path class="cls-78" d="M498.21 523.77l22.64-13.07 22.64 13.07v26.14l-22.64 13.07-22.64-13.07v-26.14z"/><path class="cls-19" d="M452.94 523.77l22.64-13.07 22.63 13.07v26.14l-22.63 13.07-22.64-13.07v-26.14z"/><path class="cls-86" d="M520.85 563.11l22.64-13.07 22.64 13.07v26.14l-22.64 13.07-22.64-13.07v-26.14z"/><path class="cls-45" d="M475.58 563.11l22.63-13.07 22.64 13.07v26.14l-22.64 13.07-22.63-13.07v-26.14z"/><path class="cls-78" d="M498.21 602.32l22.64-13.07 22.64 13.07v26.14l-22.64 13.06-22.64-13.06v-26.14zM452.94 602.32l22.64-13.07 22.63 13.07v26.14l-22.63 13.06-22.64-13.06v-26.14z"/><path class="cls-33" d="M520.85 641.65l22.64-13.07 22.64 13.07v26.14l-22.64 13.07-22.64-13.07v-26.14z"/><path class="cls-80" d="M475.58 641.65l22.63-13.07 22.64 13.07v26.14l-22.64 13.07-22.63-13.07v-26.14z"/><path class="cls-55" d="M498.21 680.86l22.64-13.07 22.64 13.07V707l-22.64 13.07L498.21 707v-26.14z"/><path class="cls-18" d="M452.94 680.86l22.64-13.07 22.63 13.07V707l-22.63 13.07L452.94 707v-26.14z"/><path class="cls-68" d="M520.85 720.2l22.64-13.07 22.64 13.07v26.14l-22.64 13.06-22.64-13.06V720.2z"/><path class="cls-65" d="M475.58 720.2l22.63-13.07 22.64 13.07v26.14l-22.64 13.06-22.63-13.06V720.2z"/><path class="cls-75" d="M498.21 759.4l22.64-13.06 22.64 13.06v26.14l-22.64 13.07-22.64-13.07V759.4z"/><path class="cls-39" d="M452.94 759.4l22.64-13.06 22.63 13.06v26.14l-22.63 13.07-22.64-13.07V759.4z"/><path class="cls-77" d="M520.85 798.74l22.64-13.07 22.64 13.07v26.14l-22.64 13.07-22.64-13.07v-26.14z"/><path class="cls-69" d="M475.58 798.74l22.63-13.07 22.64 13.07v26.14l-22.64 13.07-22.63-13.07v-26.14z"/><path class="cls-66" d="M498.21 837.95l22.64-13.07 22.64 13.07v26.14l-22.64 13.07-22.64-13.07v-26.14z"/><path class="cls-56" d="M452.94 837.95l22.64-13.07 22.63 13.07v26.14l-22.63 13.07-22.64-13.07v-26.14z"/><path class="cls-23" d="M430.3 13.3L452.94.23l22.64 13.07v26.14l-22.64 13.07-22.64-13.07V13.3z"/><path class="cls-5" d="M385.03 13.3L407.67.23 430.3 13.3v26.14l-22.63 13.07-22.64-13.07V13.3z"/><path class="cls-70" d="M407.67 52.51l22.63-13.07 22.64 13.07v26.14L430.3 91.72l-22.63-13.07V52.51z"/><path class="cls-77" d="M362.39 52.51l22.64-13.07 22.64 13.07v26.14l-22.64 13.07-22.64-13.07V52.51z"/><path class="cls-15" d="M430.3 91.85l22.64-13.07 22.64 13.07v26.13l-22.64 13.07-22.64-13.07V91.85z"/><path class="cls-16" d="M385.03 91.85l22.64-13.07 22.63 13.07v26.13l-22.63 13.07-22.64-13.07V91.85z"/><path class="cls-78" d="M407.67 131.05l22.63-13.07 22.64 13.07v26.14l-22.64 13.07-22.63-13.07v-26.14z"/><path class="cls-63" d="M362.39 131.05l22.64-13.07 22.64 13.07v26.14l-22.64 13.07-22.64-13.07v-26.14z"/><path class="cls-8" d="M430.3 170.39l22.64-13.07 22.64 13.07v26.14l-22.64 13.07-22.64-13.07v-26.14z"/><path class="cls-82" d="M385.03 170.39l22.64-13.07 22.63 13.07v26.14l-22.63 13.07-22.64-13.07v-26.14z"/><path class="cls-94" d="M407.67 209.6l22.63-13.07 22.64 13.07v26.14l-22.64 13.07-22.63-13.07V209.6z"/><path class="cls-64" d="M362.39 209.6l22.64-13.07 22.64 13.07v26.14l-22.64 13.07-22.64-13.07V209.6z"/><path class="cls-69" d="M430.3 248.93l22.64-13.07 22.64 13.07v26.14l-22.64 13.07-22.64-13.07v-26.14z"/><path class="cls-52" d="M385.03 248.93l22.64-13.07 22.63 13.07v26.14l-22.63 13.07-22.64-13.07v-26.14z"/><path class="cls-3" d="M407.67 288.14l22.63-13.07 22.64 13.07v26.14l-22.64 13.07-22.63-13.07v-26.14z"/><path class="cls-8" d="M362.39 288.14l22.64-13.07 22.64 13.07v26.14l-22.64 13.07-22.64-13.07v-26.14z"/><path class="cls-85" d="M430.3 327.48l22.64-13.07 22.64 13.07v26.14l-22.64 13.07-22.64-13.07v-26.14z"/><path class="cls-73" d="M385.03 327.48l22.64-13.07 22.63 13.07v26.14l-22.63 13.07-22.64-13.07v-26.14z"/><path class="cls-16" d="M407.67 366.69l22.63-13.07 22.64 13.07v26.13l-22.64 13.07-22.63-13.07v-26.13z"/><path class="cls-17" d="M362.39 366.69l22.64-13.07 22.64 13.07v26.13l-22.64 13.07-22.64-13.07v-26.13z"/><path opacity=".22" fill="none" stroke="#314f0a" stroke-miterlimit="10" stroke-width=".4" d="M430.3 406.02l22.64-13.07 22.64 13.07v26.14l-22.64 13.07-22.64-13.07v-26.14z"/><path class="cls-92" d="M385.03 406.02l22.64-13.07 22.63 13.07v26.14l-22.63 13.07-22.64-13.07v-26.14z"/><path class="cls-96" d="M407.67 445.23l22.63-13.07 22.64 13.07v26.14l-22.64 13.07-22.63-13.07v-26.14z"/><path class="cls-97" d="M362.39 445.23l22.64-13.07 22.64 13.07v26.14l-22.64 13.07-22.64-13.07v-26.14z"/><path class="cls-25" d="M430.3 484.56l22.64-13.06 22.64 13.06v26.14l-22.64 13.07-22.64-13.07v-26.14z"/><path class="cls-59" d="M385.03 484.56l22.64-13.06 22.63 13.06v26.14l-22.63 13.07-22.64-13.07v-26.14z"/><path class="cls-19" d="M407.67 523.77l22.63-13.07 22.64 13.07v26.14l-22.64 13.07-22.63-13.07v-26.14z"/><path class="cls-98" d="M362.39 523.77l22.64-13.07 22.64 13.07v26.14l-22.64 13.07-22.64-13.07v-26.14z"/><path class="cls-6" d="M430.3 563.11l22.64-13.07 22.64 13.07v26.14l-22.64 13.07-22.64-13.07v-26.14z"/><path class="cls-23" d="M385.03 563.11l22.64-13.07 22.63 13.07v26.14l-22.63 13.07-22.64-13.07v-26.14z"/><path class="cls-82" d="M407.67 602.32l22.63-13.07 22.64 13.07v26.14l-22.64 13.06-22.63-13.06v-26.14z"/><path class="cls-9" d="M362.39 602.32l22.64-13.07 22.64 13.07v26.14l-22.64 13.06-22.64-13.06v-26.14z"/><path class="cls-3" d="M430.3 641.65l22.64-13.07 22.64 13.07v26.14l-22.64 13.07-22.64-13.07v-26.14z"/><path class="cls-15" d="M385.03 641.65l22.64-13.07 22.63 13.07v26.14l-22.63 13.07-22.64-13.07v-26.14z"/><path class="cls-56" d="M407.67 680.86l22.63-13.07 22.64 13.07V707l-22.64 13.07L407.67 707v-26.14z"/><path class="cls-67" d="M362.39 680.86l22.64-13.07 22.64 13.07V707l-22.64 13.07L362.39 707v-26.14z"/><path class="cls-37" d="M430.3 720.2l22.64-13.07 22.64 13.07v26.14l-22.64 13.06-22.64-13.06V720.2z"/><path class="cls-27" d="M385.03 720.2l22.64-13.07 22.63 13.07v26.14l-22.63 13.06-22.64-13.06V720.2z"/><path class="cls-6" d="M407.67 759.4l22.63-13.06 22.64 13.06v26.14l-22.64 13.07-22.63-13.07V759.4z"/><path class="cls-67" d="M362.39 759.4l22.64-13.06 22.64 13.06v26.14l-22.64 13.07-22.64-13.07V759.4z"/><path class="cls-22" d="M430.3 798.74l22.64-13.07 22.64 13.07v26.14l-22.64 13.07-22.64-13.07v-26.14z"/><path class="cls-72" d="M385.03 798.74l22.64-13.07 22.63 13.07v26.14l-22.63 13.07-22.64-13.07v-26.14z"/><path class="cls-9" d="M407.67 837.95l22.63-13.07 22.64 13.07v26.14l-22.64 13.07-22.63-13.07v-26.14z"/><path class="cls-92" d="M362.39 837.95l22.64-13.07 22.64 13.07v26.14l-22.64 13.07-22.64-13.07v-26.14z"/><path class="cls-71" d="M339.75 13.3L362.39.23l22.64 13.07v26.14l-22.64 13.07-22.64-13.07V13.3z"/><path class="cls-61" d="M294.48 13.3L317.12.23l22.63 13.07v26.14l-22.63 13.07-22.64-13.07V13.3z"/><path class="cls-45" d="M317.12 52.51l22.63-13.07 22.64 13.07v26.14l-22.64 13.07-22.63-13.07V52.51z"/><path class="cls-37" d="M271.85 52.51l22.63-13.07 22.64 13.07v26.14l-22.64 13.07-22.63-13.07V52.51z"/><path class="cls-66" d="M339.75 91.85l22.64-13.07 22.64 13.07v26.13l-22.64 13.07-22.64-13.07V91.85z"/><path class="cls-51" d="M294.48 91.85l22.64-13.07 22.63 13.07v26.13l-22.63 13.07-22.64-13.07V91.85z"/><path class="cls-85" d="M317.12 131.05l22.63-13.07 22.64 13.07v26.14l-22.64 13.07-22.63-13.07v-26.14z"/><path class="cls-37" d="M271.85 131.05l22.63-13.07 22.64 13.07v26.14l-22.64 13.07-22.63-13.07v-26.14z"/><path class="cls-32" d="M339.75 170.39l22.64-13.07 22.64 13.07v26.14l-22.64 13.07-22.64-13.07v-26.14z"/><path class="cls-74" d="M294.48 170.39l22.64-13.07 22.63 13.07v26.14l-22.63 13.07-22.64-13.07v-26.14z"/><path class="cls-9" d="M317.12 209.6l22.63-13.07 22.64 13.07v26.14l-22.64 13.07-22.63-13.07V209.6z"/><path class="cls-17" d="M271.85 209.6l22.63-13.07 22.64 13.07v26.14l-22.64 13.07-22.63-13.07V209.6z"/><path class="cls-91" d="M339.75 248.93l22.64-13.07 22.64 13.07v26.14l-22.64 13.07-22.64-13.07v-26.14z"/><path class="cls-72" d="M294.48 248.93l22.64-13.07 22.63 13.07v26.14l-22.63 13.07-22.64-13.07v-26.14z"/><path class="cls-67" d="M317.12 288.14l22.63-13.07 22.64 13.07v26.14l-22.64 13.07-22.63-13.07v-26.14z"/><path class="cls-32" d="M271.85 288.14l22.63-13.07 22.64 13.07v26.14l-22.64 13.07-22.63-13.07v-26.14z"/><path class="cls-48" d="M339.75 327.48l22.64-13.07 22.64 13.07v26.14l-22.64 13.07-22.64-13.07v-26.14z"/><path class="cls-41" d="M294.48 327.48l22.64-13.07 22.63 13.07v26.14l-22.63 13.07-22.64-13.07v-26.14z"/><path class="cls-52" d="M317.12 366.69l22.63-13.07 22.64 13.07v26.13l-22.64 13.07-22.63-13.07v-26.13z"/><path class="cls-43" d="M271.85 366.69l22.63-13.07 22.64 13.07v26.13l-22.64 13.07-22.63-13.07v-26.13z"/><path class="cls-19" d="M339.75 406.02l22.64-13.07 22.64 13.07v26.14l-22.64 13.07-22.64-13.07v-26.14z"/><path class="cls-7" d="M294.48 406.02l22.64-13.07 22.63 13.07v26.14l-22.63 13.07-22.64-13.07v-26.14z"/><path class="cls-37" d="M317.12 445.23l22.63-13.07 22.64 13.07v26.14l-22.64 13.07-22.63-13.07v-26.14z"/><path class="cls-73" d="M271.85 445.23l22.63-13.07 22.64 13.07v26.14l-22.64 13.07-22.63-13.07v-26.14z"/><path class="cls-62" d="M339.75 484.56l22.64-13.06 22.64 13.06v26.14l-22.64 13.07-22.64-13.07v-26.14z"/><path class="cls-71" d="M294.48 484.56l22.64-13.06 22.63 13.06v26.14l-22.63 13.07-22.64-13.07v-26.14z"/><path class="cls-33" d="M317.12 523.77l22.63-13.07 22.64 13.07v26.14l-22.64 13.07-22.63-13.07v-26.14z"/><path class="cls-26" d="M271.85 523.77l22.63-13.07 22.64 13.07v26.14l-22.64 13.07-22.63-13.07v-26.14z"/><path class="cls-56" d="M339.75 563.11l22.64-13.07 22.64 13.07v26.14l-22.64 13.07-22.64-13.07v-26.14z"/><path class="cls-5" d="M294.48 563.11l22.64-13.07 22.63 13.07v26.14l-22.63 13.07-22.64-13.07v-26.14z"/><path class="cls-92" d="M317.12 602.32l22.63-13.07 22.64 13.07v26.14l-22.64 13.06-22.63-13.06v-26.14z"/><path class="cls-3" d="M271.85 602.32l22.63-13.07 22.64 13.07v26.14l-22.64 13.06-22.63-13.06v-26.14z"/><path class="cls-87" d="M339.75 641.65l22.64-13.07 22.64 13.07v26.14l-22.64 13.07-22.64-13.07v-26.14z"/><path class="cls-91" d="M294.48 641.65l22.64-13.07 22.63 13.07v26.14l-22.63 13.07-22.64-13.07v-26.14z"/><path class="cls-23" d="M317.12 680.86l22.63-13.07 22.64 13.07V707l-22.64 13.07L317.12 707v-26.14z"/><path class="cls-75" d="M271.85 680.86l22.63-13.07 22.64 13.07V707l-22.64 13.07L271.85 707v-26.14z"/><path class="cls-61" d="M339.75 720.2l22.64-13.07 22.64 13.07v26.14l-22.64 13.06-22.64-13.06V720.2z"/><path class="cls-43" d="M294.48 720.2l22.64-13.07 22.63 13.07v26.14l-22.63 13.06-22.64-13.06V720.2z"/><path class="cls-42" d="M317.12 759.4l22.63-13.06 22.64 13.06v26.14l-22.64 13.07-22.63-13.07V759.4z"/><path class="cls-41" d="M271.85 759.4l22.63-13.06 22.64 13.06v26.14l-22.64 13.07-22.63-13.07V759.4z"/><path class="cls-72" d="M339.75 798.74l22.64-13.07 22.64 13.07v26.14l-22.64 13.07-22.64-13.07v-26.14z"/><path class="cls-25" d="M294.48 798.74l22.64-13.07 22.63 13.07v26.14l-22.63 13.07-22.64-13.07v-26.14z"/><path class="cls-58" d="M317.12 837.95l22.63-13.07 22.64 13.07v26.14l-22.64 13.07-22.63-13.07v-26.14z"/><path class="cls-17" d="M271.85 837.95l22.63-13.07 22.64 13.07v26.14l-22.64 13.07-22.63-13.07v-26.14z"/><path class="cls-9" d="M249.21 13.3L271.85.23l22.63 13.07v26.14l-22.63 13.07-22.64-13.07V13.3z"/><path class="cls-33" d="M203.93 13.3L226.57.23l22.64 13.07v26.14l-22.64 13.07-22.64-13.07V13.3z"/><path class="cls-77" d="M226.57 52.51l22.64-13.07 22.64 13.07v26.14l-22.64 13.07-22.64-13.07V52.51z"/><path class="cls-60" d="M181.3 52.51l22.63-13.07 22.64 13.07v26.14l-22.64 13.07-22.63-13.07V52.51z"/><path class="cls-99" d="M249.21 91.85l22.64-13.07 22.63 13.07v26.13l-22.63 13.07-22.64-13.07V91.85z"/><path class="cls-16" d="M203.93 91.85l22.64-13.07 22.64 13.07v26.13l-22.64 13.07-22.64-13.07V91.85z"/><path opacity=".97" fill="none" stroke="#314f0a" stroke-miterlimit="10" stroke-width=".4" d="M226.57 131.05l22.64-13.07 22.64 13.07v26.14l-22.64 13.07-22.64-13.07v-26.14z"/><path class="cls-45" d="M181.3 131.05l22.63-13.07 22.64 13.07v26.14l-22.64 13.07-22.63-13.07v-26.14z"/><path class="cls-22" d="M249.21 170.39l22.64-13.07 22.63 13.07v26.14l-22.63 13.07-22.64-13.07v-26.14z"/><path class="cls-13" d="M203.93 170.39l22.64-13.07 22.64 13.07v26.14l-22.64 13.07-22.64-13.07v-26.14z"/><path class="cls-96" d="M226.57 209.6l22.64-13.07 22.64 13.07v26.14l-22.64 13.07-22.64-13.07V209.6z"/><path class="cls-74" d="M181.3 209.6l22.63-13.07 22.64 13.07v26.14l-22.64 13.07-22.63-13.07V209.6z"/><path class="cls-80" d="M249.21 248.93l22.64-13.07 22.63 13.07v26.14l-22.63 13.07-22.64-13.07v-26.14z"/><path class="cls-17" d="M203.93 248.93l22.64-13.07 22.64 13.07v26.14l-22.64 13.07-22.64-13.07v-26.14z"/><path class="cls-64" d="M226.57 288.14l22.64-13.07 22.64 13.07v26.14l-22.64 13.07-22.64-13.07v-26.14z"/><path class="cls-5" d="M181.3 288.14l22.63-13.07 22.64 13.07v26.14l-22.64 13.07-22.63-13.07v-26.14z"/><path class="cls-59" d="M249.21 327.48l22.64-13.07 22.63 13.07v26.14l-22.63 13.07-22.64-13.07v-26.14z"/><path class="cls-54" d="M203.93 327.48l22.64-13.07 22.64 13.07v26.14l-22.64 13.07-22.64-13.07v-26.14z"/><path class="cls-51" d="M226.57 366.69l22.64-13.07 22.64 13.07v26.13l-22.64 13.07-22.64-13.07v-26.13z"/><path class="cls-73" d="M181.3 366.69l22.63-13.07 22.64 13.07v26.13l-22.64 13.07-22.63-13.07v-26.13z"/><path class="cls-80" d="M249.21 406.02l22.64-13.07 22.63 13.07v26.14l-22.63 13.07-22.64-13.07v-26.14z"/><path class="cls-26" d="M203.93 406.02l22.64-13.07 22.64 13.07v26.14l-22.64 13.07-22.64-13.07v-26.14z"/><path class="cls-61" d="M226.57 445.23l22.64-13.07 22.64 13.07v26.14l-22.64 13.07-22.64-13.07v-26.14z"/><path class="cls-87" d="M181.3 445.23l22.63-13.07 22.64 13.07v26.14l-22.64 13.07-22.63-13.07v-26.14z"/><path class="cls-14" d="M249.21 484.56l22.64-13.06 22.63 13.06v26.14l-22.63 13.07-22.64-13.07v-26.14z"/><path class="cls-93" d="M203.93 484.56l22.64-13.06 22.64 13.06v26.14l-22.64 13.07-22.64-13.07v-26.14z"/><path class="cls-39" d="M226.57 523.77l22.64-13.07 22.64 13.07v26.14l-22.64 13.07-22.64-13.07v-26.14z"/><path class="cls-58" d="M181.3 523.77l22.63-13.07 22.64 13.07v26.14l-22.64 13.07-22.63-13.07v-26.14z"/><path class="cls-93" d="M249.21 563.11l22.64-13.07 22.63 13.07v26.14l-22.63 13.07-22.64-13.07v-26.14z"/><path class="cls-46" d="M203.93 563.11l22.64-13.07 22.64 13.07v26.14l-22.64 13.07-22.64-13.07v-26.14z"/><path class="cls-47" d="M226.57 602.32l22.64-13.07 22.64 13.07v26.14l-22.64 13.06-22.64-13.06v-26.14z"/><path class="cls-59" d="M181.3 602.32l22.63-13.07 22.64 13.07v26.14l-22.64 13.06-22.63-13.06v-26.14z"/><path class="cls-20" d="M249.21 641.65l22.64-13.07 22.63 13.07v26.14l-22.63 13.07-22.64-13.07v-26.14z"/><path class="cls-10" d="M203.93 641.65l22.64-13.07 22.64 13.07v26.14l-22.64 13.07-22.64-13.07v-26.14z"/><path class="cls-54" d="M226.57 680.86l22.64-13.07 22.64 13.07V707l-22.64 13.07L226.57 707v-26.14z"/><path class="cls-96" d="M181.3 680.86l22.63-13.07 22.64 13.07V707l-22.64 13.07L181.3 707v-26.14z"/><path class="cls-58" d="M249.21 720.2l22.64-13.07 22.63 13.07v26.14l-22.63 13.06-22.64-13.06V720.2z"/><path class="cls-19" d="M203.93 720.2l22.64-13.07 22.64 13.07v26.14l-22.64 13.06-22.64-13.06V720.2z"/><path class="cls-13" d="M226.57 759.4l22.64-13.06 22.64 13.06v26.14l-22.64 13.07-22.64-13.07V759.4z"/><path class="cls-27" d="M181.3 759.4l22.63-13.06 22.64 13.06v26.14l-22.64 13.07-22.63-13.07V759.4z"/><path class="cls-52" d="M249.21 798.74l22.64-13.07 22.63 13.07v26.14l-22.63 13.07-22.64-13.07v-26.14z"/><path class="cls-5" d="M203.93 798.74l22.64-13.07 22.64 13.07v26.14l-22.64 13.07-22.64-13.07v-26.14z"/><path class="cls-92" d="M226.57 837.95l22.64-13.07 22.64 13.07v26.14l-22.64 13.07-22.64-13.07v-26.14z"/><path class="cls-12" d="M181.3 837.95l22.63-13.07 22.64 13.07v26.14l-22.64 13.07-22.63-13.07v-26.14z"/><path class="cls-99" d="M158.66 13.3L181.3.23l22.63 13.07v26.14L181.3 52.51l-22.64-13.07V13.3z"/><path class="cls-69" d="M113.39 13.3L136.02.23l22.64 13.07v26.14l-22.64 13.07-22.63-13.07V13.3z"/><path class="cls-59" d="M136.02 52.51l22.64-13.07 22.64 13.07v26.14l-22.64 13.07-22.64-13.07V52.51z"/><path class="cls-85" d="M90.75 52.51l22.64-13.07 22.63 13.07v26.14l-22.63 13.07-22.64-13.07V52.51z"/><path class="cls-89" d="M158.66 91.85l22.64-13.07 22.63 13.07v26.13l-22.63 13.07-22.64-13.07V91.85z"/><path class="cls-50" d="M113.39 91.85l22.63-13.07 22.64 13.07v26.13l-22.64 13.07-22.63-13.07V91.85z"/><path class="cls-94" d="M136.02 131.05l22.64-13.07 22.64 13.07v26.14l-22.64 13.07-22.64-13.07v-26.14z"/><path class="cls-62" d="M90.75 131.05l22.64-13.07 22.63 13.07v26.14l-22.63 13.07-22.64-13.07v-26.14z"/><path class="cls-12" d="M158.66 170.39l22.64-13.07 22.63 13.07v26.14L181.3 209.6l-22.64-13.07v-26.14z"/><path class="cls-39" d="M113.39 170.39l22.63-13.07 22.64 13.07v26.14l-22.64 13.07-22.63-13.07v-26.14z"/><path class="cls-30" d="M136.02 209.6l22.64-13.07 22.64 13.07v26.14l-22.64 13.07-22.64-13.07V209.6z"/><path class="cls-63" d="M90.75 209.6l22.64-13.07 22.63 13.07v26.14l-22.63 13.07-22.64-13.07V209.6z"/><path class="cls-25" d="M158.66 248.93l22.64-13.07 22.63 13.07v26.14l-22.63 13.07-22.64-13.07v-26.14z"/><path class="cls-12" d="M113.39 248.93l22.63-13.07 22.64 13.07v26.14l-22.64 13.07-22.63-13.07v-26.14z"/><path class="cls-39" d="M136.02 288.14l22.64-13.07 22.64 13.07v26.14l-22.64 13.07-22.64-13.07v-26.14z"/><path class="cls-58" d="M90.75 288.14l22.64-13.07 22.63 13.07v26.14l-22.63 13.07-22.64-13.07v-26.14z"/><path class="cls-20" d="M158.66 327.48l22.64-13.07 22.63 13.07v26.14l-22.63 13.07-22.64-13.07v-26.14z"/><path class="cls-55" d="M113.39 327.48l22.63-13.07 22.64 13.07v26.14l-22.64 13.07-22.63-13.07v-26.14z"/><path class="cls-22" d="M136.02 366.69l22.64-13.07 22.64 13.07v26.13l-22.64 13.07-22.64-13.07v-26.13z"/><path class="cls-65" d="M90.75 366.69l22.64-13.07 22.63 13.07v26.13l-22.63 13.07-22.64-13.07v-26.13z"/><path class="cls-21" d="M158.66 406.02l22.64-13.07 22.63 13.07v26.14l-22.63 13.07-22.64-13.07v-26.14z"/><path class="cls-63" d="M113.39 406.02l22.63-13.07 22.64 13.07v26.14l-22.64 13.07-22.63-13.07v-26.14z"/><path class="cls-52" d="M136.02 445.23l22.64-13.07 22.64 13.07v26.14l-22.64 13.07-22.64-13.07v-26.14z"/><path class="cls-29" d="M90.75 445.23l22.64-13.07 22.63 13.07v26.14l-22.63 13.07-22.64-13.07v-26.14z"/><path class="cls-26" d="M158.66 484.56l22.64-13.06 22.63 13.06v26.14l-22.63 13.07-22.64-13.07v-26.14z"/><path class="cls-59" d="M113.39 484.56l22.63-13.06 22.64 13.06v26.14l-22.64 13.07-22.63-13.07v-26.14z"/><path class="cls-52" d="M136.02 523.77l22.64-13.07 22.64 13.07v26.14l-22.64 13.07-22.64-13.07v-26.14z"/><path class="cls-32" d="M90.75 523.77l22.64-13.07 22.63 13.07v26.14l-22.63 13.07-22.64-13.07v-26.14z"/><path class="cls-39" d="M158.66 563.11l22.64-13.07 22.63 13.07v26.14l-22.63 13.07-22.64-13.07v-26.14z"/><path class="cls-2" d="M113.39 563.11l22.63-13.07 22.64 13.07v26.14l-22.64 13.07-22.63-13.07v-26.14z"/><path class="cls-5" d="M136.02 602.32l22.64-13.07 22.64 13.07v26.14l-22.64 13.06-22.64-13.06v-26.14z"/><path class="cls-83" d="M90.75 602.32l22.64-13.07 22.63 13.07v26.14l-22.63 13.06-22.64-13.06v-26.14z"/><path class="cls-99" d="M158.66 641.65l22.64-13.07 22.63 13.07v26.14l-22.63 13.07-22.64-13.07v-26.14z"/><path class="cls-28" d="M113.39 641.65l22.63-13.07 22.64 13.07v26.14l-22.64 13.07-22.63-13.07v-26.14z"/><path class="cls-79" d="M136.02 680.86l22.64-13.07 22.64 13.07V707l-22.64 13.07L136.02 707v-26.14z"/><path class="cls-57" d="M90.75 680.86l22.64-13.07 22.63 13.07V707l-22.63 13.07L90.75 707v-26.14z"/><path class="cls-66" d="M158.66 720.2l22.64-13.07 22.63 13.07v26.14L181.3 759.4l-22.64-13.06V720.2z"/><path class="cls-76" d="M113.39 720.2l22.63-13.07 22.64 13.07v26.14l-22.64 13.06-22.63-13.06V720.2z"/><path class="cls-33" d="M136.02 759.4l22.64-13.06 22.64 13.06v26.14l-22.64 13.07-22.64-13.07V759.4z"/><path class="cls-84" d="M90.75 759.4l22.64-13.06 22.63 13.06v26.14l-22.63 13.07-22.64-13.07V759.4z"/><path class="cls-67" d="M158.66 798.74l22.64-13.07 22.63 13.07v26.14l-22.63 13.07-22.64-13.07v-26.14z"/><path class="cls-29" d="M113.39 798.74l22.63-13.07 22.64 13.07v26.14l-22.64 13.07-22.63-13.07v-26.14z"/><path class="cls-29" d="M136.02 837.95l22.64-13.07 22.64 13.07v26.14l-22.64 13.07-22.64-13.07v-26.14z"/><path class="cls-45" d="M90.75 837.95l22.64-13.07 22.63 13.07v26.14l-22.63 13.07-22.64-13.07v-26.14z"/><path class="cls-63" d="M68.11 13.3L90.75.23l22.64 13.07v26.14L90.75 52.51 68.11 39.44V13.3z"/><path class="cls-85" d="M22.84 13.3L45.48.23 68.11 13.3v26.14L45.48 52.51 22.84 39.44V13.3z"/><path class="cls-74" d="M45.48 52.51l22.63-13.07 22.64 13.07v26.14L68.11 91.72 45.48 78.65V52.51z"/><path class="cls-46" d="M.2 52.51l22.64-13.07 22.64 13.07v26.14L22.84 91.72.2 78.65V52.51z"/><path class="cls-97" d="M68.11 91.85l22.64-13.07 22.64 13.07v26.13l-22.64 13.07-22.64-13.07V91.85zM22.84 91.85l22.64-13.07 22.63 13.07v26.13l-22.63 13.07-22.64-13.07V91.85z"/><path class="cls-11" d="M45.48 131.05l22.63-13.07 22.64 13.07v26.14l-22.64 13.07-22.63-13.07v-26.14z"/><path class="cls-80" d="M.2 131.05l22.64-13.07 22.64 13.07v26.14l-22.64 13.07L.2 157.19v-26.14z"/><path class="cls-14" d="M68.11 170.39l22.64-13.07 22.64 13.07v26.14L90.75 209.6l-22.64-13.07v-26.14z"/><path class="cls-21" d="M22.84 170.39l22.64-13.07 22.63 13.07v26.14L45.48 209.6l-22.64-13.07v-26.14z"/><path class="cls-89" d="M45.48 209.6l22.63-13.07 22.64 13.07v26.14l-22.64 13.07-22.63-13.07V209.6z"/><path class="cls-26" d="M.2 209.6l22.64-13.07 22.64 13.07v26.14l-22.64 13.07L.2 235.74V209.6z"/><path class="cls-60" d="M68.11 248.93l22.64-13.07 22.64 13.07v26.14l-22.64 13.07-22.64-13.07v-26.14z"/><path class="cls-78" d="M45.48 288.14l22.63-13.07 22.64 13.07v26.14l-22.64 13.07-22.63-13.07v-26.14z"/><path class="cls-69" d="M.2 288.14l22.64-13.07 22.64 13.07v26.14l-22.64 13.07L.2 314.28v-26.14z"/><path class="cls-63" d="M68.11 327.48l22.64-13.07 22.64 13.07v26.14l-22.64 13.07-22.64-13.07v-26.14z"/><path class="cls-33" d="M22.84 327.48l22.64-13.07 22.63 13.07v26.14l-22.63 13.07-22.64-13.07v-26.14z"/><path class="cls-38" d="M45.48 366.69l22.63-13.07 22.64 13.07v26.13l-22.64 13.07-22.63-13.07v-26.13z"/><path class="cls-44" d="M.2 366.69l22.64-13.07 22.64 13.07v26.13l-22.64 13.07L.2 392.82v-26.13z"/><path class="cls-42" d="M68.11 406.02l22.64-13.07 22.64 13.07v26.14l-22.64 13.07-22.64-13.07v-26.14z"/><path class="cls-27" d="M22.84 406.02l22.64-13.07 22.63 13.07v26.14l-22.63 13.07-22.64-13.07v-26.14z"/><path class="cls-37" d="M45.48 445.23l22.63-13.07 22.64 13.07v26.14l-22.64 13.07-22.63-13.07v-26.14z"/><path class="cls-5" d="M.2 445.23l22.64-13.07 22.64 13.07v26.14l-22.64 13.07L.2 471.37v-26.14z"/><path class="cls-79" d="M68.11 484.56l22.64-13.06 22.64 13.06v26.14l-22.64 13.07-22.64-13.07v-26.14z"/><path class="cls-26" d="M22.84 484.56l22.64-13.06 22.63 13.06v26.14l-22.63 13.07-22.64-13.07v-26.14z"/><path class="cls-15" d="M45.48 523.77l22.63-13.07 22.64 13.07v26.14l-22.64 13.07-22.63-13.07v-26.14z"/><path class="cls-22" d="M.2 523.77l22.64-13.07 22.64 13.07v26.14l-22.64 13.07L.2 549.91v-26.14z"/><path class="cls-68" d="M68.11 563.11l22.64-13.07 22.64 13.07v26.14l-22.64 13.07-22.64-13.07v-26.14z"/><path class="cls-65" d="M22.84 563.11l22.64-13.07 22.63 13.07v26.14l-22.63 13.07-22.64-13.07v-26.14z"/><path class="cls-11" d="M45.48 602.32l22.63-13.07 22.64 13.07v26.14l-22.64 13.06-22.63-13.06v-26.14z"/><path class="cls-40" d="M.2 602.32l22.64-13.07 22.64 13.07v26.14l-22.64 13.06L.2 628.46v-26.14z"/><path class="cls-8" d="M68.11 641.65l22.64-13.07 22.64 13.07v26.14l-22.64 13.07-22.64-13.07v-26.14z"/><path class="cls-52" d="M22.84 641.65l22.64-13.07 22.63 13.07v26.14l-22.63 13.07-22.64-13.07v-26.14z"/><path class="cls-32" d="M45.48 680.86l22.63-13.07 22.64 13.07V707l-22.64 13.07L45.48 707v-26.14z"/><path class="cls-29" d="M.2 680.86l22.64-13.07 22.64 13.07V707l-22.64 13.07L.2 707v-26.14z"/><path class="cls-6" d="M68.11 720.2l22.64-13.07 22.64 13.07v26.14L90.75 759.4l-22.64-13.06V720.2z"/><path class="cls-9" d="M22.84 720.2l22.64-13.07 22.63 13.07v26.14L45.48 759.4l-22.64-13.06V720.2z"/><path class="cls-64" d="M45.48 759.4l22.63-13.06 22.64 13.06v26.14l-22.64 13.07-22.63-13.07V759.4z"/><path class="cls-99" d="M.2 759.4l22.64-13.06 22.64 13.06v26.14l-22.64 13.07L.2 785.54V759.4z"/><path class="cls-98" d="M68.11 798.74l22.64-13.07 22.64 13.07v26.14l-22.64 13.07-22.64-13.07v-26.14z"/><path class="cls-75" d="M22.84 798.74l22.64-13.07 22.63 13.07v26.14l-22.63 13.07-22.64-13.07v-26.14z"/><path class="cls-34" d="M45.48 837.95l22.63-13.07 22.64 13.07v26.14l-22.64 13.07-22.63-13.07v-26.14z"/><path class="cls-15" d="M.2 837.95l22.64-13.07 22.64 13.07v26.14l-22.64 13.07L.2 864.09v-26.14z"/></g></g></svg>