<svg xmlns="http://www.w3.org/2000/svg" viewBox="0 0 28.99 28.99"><defs><style>.cls-1{fill:#bed9ff}</style></defs><g id="图层_2" data-name="图层 2"><g id="央铋_1" data-name="央铋 1"><path class="cls-1" d="M14.5 29A14.5 14.5 0 1129 14.5 14.51 14.51 0 0114.5 29zm0-28.45a13.95 13.95 0 1013.94 14A14 14 0 0014.5.55z"/><path class="cls-1" d="M9.43 3.66l-.43-1a13.2 13.2 0 016-1.22v1.1a11.82 11.82 0 00-5.57 1.12zM5.71 6.38l-.81-.75A13.78 13.78 0 016.2 4.4l.7.85a12.71 12.71 0 00-1.19 1.13zM1.71 17.21a13.7 13.7 0 01-.28-2.71 13 13 0 012.3-7.4l.9.62a11.94 11.94 0 00-2.1 6.78 12.14 12.14 0 00.26 2.5zM6.15 24.55a13.1 13.1 0 01-3.81-5.26l1-.4a12 12 0 003.5 4.81zM14.5 27.56a13.26 13.26 0 01-1.67-.11l.17-1.09a12.14 12.14 0 003.51-.06l.18 1.08a13 13 0 01-2.19.18zM19.62 26.52l-.43-1a11.92 11.92 0 005.17-4.23l.9.63a13.18 13.18 0 01-5.64 4.6zM26.53 19.58l-1-.43a12 12 0 00.94-4.65 12.11 12.11 0 00-.41-3.13l1.06-.29a13.11 13.11 0 01-.58 8.5zM22.68 5.77a12.08 12.08 0 00-2.07-1.56l.56-1A13.42 13.42 0 0123.43 5zM18 3.06a11.75 11.75 0 00-3-.52v-1.1a13 13 0 013.33.56z"/><path class="cls-1" d="M7.76 23.2A11 11 0 0114.5 3.49h.54l-.14 2.76h-.4A8.26 8.26 0 009.45 21zM14.5 25.5v-2.75a8.15 8.15 0 004.88-1.6L21 23.37a11 11 0 01-6.5 2.13zM23.47 20.87l-2.24-1.59a8.38 8.38 0 001.22-2.56l2.64.74a11 11 0 01-1.62 3.41zM25.5 14.5h-2.75a8.28 8.28 0 00-4.09-7.13L20.05 5a11.06 11.06 0 015.45 9.5z"/><path class="cls-1" d="M7.71 17.17a7.16 7.16 0 01-.51-2.67A7.24 7.24 0 018.79 10l.32.26a6.87 6.87 0 00-1 6.81zM14.5 21.79a7.28 7.28 0 01-6-3.09l.33-.24a6.88 6.88 0 008.05 2.48l.14.39a7.43 7.43 0 01-2.52.46zM19.49 19.81l-.28-.3a6.87 6.87 0 001.65-7.63l.38-.16a7.14 7.14 0 01.55 2.78 7.24 7.24 0 01-2.3 5.31zM19 9.31a6.85 6.85 0 00-8.1-.69l-.22-.35a7.29 7.29 0 018.6.73z"/><path class="cls-1" d="M14.5 19.64a5.14 5.14 0 115.14-5.14 5.15 5.15 0 01-5.14 5.14zm0-9.19a4 4 0 104 4.05 4.06 4.06 0 00-4-4.05z"/></g></g></svg>