<svg xmlns="http://www.w3.org/2000/svg" viewBox="0 0 179.72 173.17"><defs><style>.cls-1{fill:#0cbdcd}.cls-10,.cls-11,.cls-2,.cls-3,.cls-4,.cls-5,.cls-6,.cls-7,.cls-8,.cls-9{fill:#f49022}.cls-3{opacity:.3}.cls-4{opacity:.5}.cls-5{opacity:.1}.cls-6{opacity:.2}.cls-7{opacity:.6}.cls-8{opacity:.4}.cls-9{opacity:.7}.cls-10{opacity:.8}.cls-11{opacity:.9}</style></defs><g id="图层_2" data-name="图层 2"><g id="央铋_1" data-name="央铋 1"><path class="cls-1" d="M19.92 107.13a74 74 0 007.9 18.56l.27-.16a73.47 73.47 0 01-7.86-18.48zM42.59 143.39a74 74 0 0033 16.65l.07-.31a73.58 73.58 0 01-32.86-16.58zM113.49 87.73a22.14 22.14 0 10-22.13 22.13 22.16 22.16 0 0022.13-22.13zm-43.81 0a21.68 21.68 0 1121.68 21.68 21.71 21.71 0 01-21.68-21.68zM45.52 80.88l20.34 2.88a25.59 25.59 0 01.6-2.79L46.7 75.32a44.62 44.62 0 00-1.18 5.56zM66.45 94.47a25.57 25.57 0 01-.59-2.79l-20.35 2.88a48.54 48.54 0 001.18 5.56z"/><path class="cls-1" d="M65.6 89.14v-1.41-1.44l-20.5-1.41q-.1 1.41-.1 2.85c0 1 0 1.89.09 2.83zM47.94 103.94a45.57 45.57 0 002.32 5.19l18.15-9.64a23.42 23.42 0 01-1.17-2.6zM79.71 110.74a26.4 26.4 0 01-2.47-1.43l-11.47 17a46 46 0 004.92 2.85zM58.3 120.18a47.46 47.46 0 004.22 3.8l12.66-16.17a25.56 25.56 0 01-2.12-1.91zM82 111.78l-7.69 19.06a46.82 46.82 0 005.41 1.76l5-19.94a25 25 0 01-2.72-.88zM52.27 112.6a47.31 47.31 0 003.34 4.6L71.36 104a25.08 25.08 0 01-1.67-2.31zM100.66 111.78a25.25 25.25 0 01-8 1.71l.7 20.51a46.16 46.16 0 0015-3.18zM90.07 113.49a24 24 0 01-2.83-.3l-3.55 20.24a47.62 47.62 0 005.65.6zM124.4 120.19l-14.76-14.28a25.82 25.82 0 01-6.65 4.83l9 18.46a46.4 46.4 0 0012.41-9.01z"/><path class="cls-1" d="M91.36 5.1a82.14 82.14 0 00-39.54 10.09l2.39 4.38a77.38 77.38 0 00-39.14 54h-.84a14.23 14.23 0 100 28.45h.84A77.44 77.44 0 0077 164l-.93 4.94A82.63 82.63 0 1091.36 5.1zM14.23 101a13.32 13.32 0 1113.31-13.27A13.33 13.33 0 0114.23 101zm77.13 58.81a72.13 72.13 0 01-13.36-1.2l-.85 4.48A76.5 76.5 0 0116 101.84a14.22 14.22 0 000-28.23 76.45 76.45 0 0138.65-53.24l2.2 4a72.12 72.12 0 1134.51 135.48z"/><path class="cls-1" d="M91.36 155.29a67.45 67.45 0 01-12.48-1.16l-.26 1.35a69.48 69.48 0 0012.74 1.18A68.51 68.51 0 00110.3 154l-.38-1.31a67.32 67.32 0 01-18.56 2.6zM108.72 87.73a17.38 17.38 0 00-17.36-17.37 17.17 17.17 0 00-7.83 1.88l.61 1.22a16 16 0 11-6.22 22.93l-1.15.74a17.36 17.36 0 0032-9.4zM74.6 83.18a17.47 17.47 0 00-.6 4.55 16.75 16.75 0 00.21 2.66l1.35-.21a16.53 16.53 0 01-.19-2.45 16 16 0 01.56-4.19zM61.1 39.86l3 4.6 1.09-.68L62.45 39zM58.64 48.43l-3.45-4.26-1.2 1 3.67 4.07zM47.8 51.56L52.06 55c.27-.33.55-.66.83-1l-4.06-3.67zM60.74 46.76l-3.22-4.43-1.25 1 3.45 4.26c.33-.31.67-.59 1.02-.83zM49.75 49.33L53.82 53l.89-.94-3.87-3.87zM56.63 50.19L53 46.12l-1.14 1.09 3.87 3.87zM58.64 41.51L61.86 46l1.06-.73-3-4.6c-.42.24-.85.54-1.28.84zM81.4 37.54l1.27-.23-.86-5.41c-.52.08-1 .18-1.55.28zM63.65 38.34l2.74 4.75 1.13-.62L65 37.59l-1.35.75zM77.37 32.84l1.42 5.29c.41-.11.83-.21 1.25-.3l-1.14-5.36zM74.51 33.64l1.7 5.21 1.23-.36L76 33.2zM69 35.71l2.22 5 1.2-.49-2-5.12zM66.27 37l2.48 4.88 1.17-.56-2.23-5c-.48.17-.95.4-1.42.68zM71.71 34.6l2 5.12c.4-.15.81-.3 1.22-.43l-1.7-5.22zM40.72 80.41l-5.41-.86q-.12.78-.21 1.56l5.45.58c.05-.43.11-.86.17-1.28zM42.48 72.58l-5.21-1.7c-.15.5-.3 1-.44 1.51l5.29 1.42c.11-.41.24-.81.36-1.23zM41.76 75.16l-5.29-1.42c-.13.5-.25 1-.37 1.53l5.36 1.14c.09-.41.19-.84.3-1.25zM35.81 76.63c-.1.51-.2 1-.28 1.55l5.41.86c.07-.43.15-.85.23-1.27zM34.77 85.45c0 .53 0 1-.05 1.58h5.48v-1.29zM40.41 83.07L35 82.5c-.05.52-.09 1-.12 1.57l5.47.28c-.01-.43.02-.85.06-1.28zM44.25 56.31l4.6 3c.24-.36.48-.71.73-1.06L45.15 55c-.31.44-.6.87-.9 1.31zM46 53.89l4.43 3.22c.26-.35.52-.69.79-1l-4.25-3.45c-.37.39-.69.81-.97 1.23zM38.23 68.08c-.18.49-.36 1-.53 1.48l5.22 1.7c.13-.41.28-.82.43-1.22zM41.22 61.4l4.88 2.49c.2-.38.41-.76.62-1.14L42 60c-.28.47-.54.94-.78 1.4zM44.34 67.55l-5-2.22c-.21.48-.41 1-.61 1.45l5.12 2c.15-.44.32-.78.49-1.23zM45.47 65.12l-4.88-2.48c-.24.47-.46.94-.68 1.42l5 2.23c.18-.39.37-.78.56-1.17zM138.86 68.74l5.12-2c-.19-.49-.4-1-.61-1.46l-5 2.23c.17.49.33.83.49 1.23zM128.89 53l4.11-3.67-1.09-1.14-3.91 3.87c.3.31.6.62.89.94zM129.82 54a51.76 51.76 0 014.05 5.26l4.59-3a56.22 56.22 0 00-4.57-6zM120.85 46l3.22-4.44c-.43-.3-.86-.6-1.3-.89l-3 4.59c.38.19.73.44 1.08.74zM125.05 49.26l3.67-4.07c-.4-.34-.8-.69-1.2-1l-3.45 4.25zM134.62 60.45c.23.37.46.73.68 1.1l4.7-2.74c-.27-.45-.54-.9-.82-1.34zM123 47.55l3.44-4.26-1.25-1-3.19 4.47zM127 51.08l3.87-3.87c-.37-.37-.76-.73-1.14-1.09l-3.67 4.07c.34.29.65.59.94.89zM139.8 71.25l5.2-1.69c-.17-.5-.35-1-.53-1.49l-5.12 2c.16.37.31.78.45 1.18zM140.23 72.57c.12.41.25.83.36 1.24l5.3-1.42-.45-1.51zM146.25 73.73L141 75.15a51.19 51.19 0 011.57 12.58c0 1.56-.08 3.12-.22 4.65l5.45.57c.16-1.72.25-3.46.25-5.22a56.7 56.7 0 00-1.8-14zM136 62.75c.21.38.42.75.62 1.14l4.88-2.49c-.24-.47-.49-.93-.75-1.39zM34.72 88.42c0 .53 0 1 .05 1.57l5.47-.28v-1.29zM137.24 65.12c.2.39.38.77.56 1.17l5-2.23c-.22-.48-.45-1-.69-1.43zM110.33 40.22l1.2.49 2.23-5c-.49-.21-1-.42-1.46-.61zM100 37.31l1.27.23 1.14-5.36-1.55-.29zM94.73 36.68l1.28.1.57-5.45c-.52 0-1-.09-1.57-.12zM97.39 36.92l1.28.17.86-5.41c-.52-.08-1-.15-1.57-.21zM92.05 36.57h1.29l.29-5.47-1.58-.05zM86.7 36.78l1.28-.1-.28-5.47c-.53 0-1 .07-1.57.12zM89.37 36.61h1.29v-5.52l-1.58.05zM112.79 41.28l1.17.56 2.48-4.84c-.47-.24-.94-.47-1.42-.69zM117.53 43.78c.37.22.73.45 1.09.68l3-4.6c-.44-.28-.89-.55-1.35-.82zM102.67 37.83l1.26.3 1.41-5.3c-.5-.13-1-.25-1.53-.36zM116.33 43.09l2.74-4.75c-.46-.26-.93-.51-1.39-.75l-2.49 4.88zM84 37.09l1.28-.17-.58-5.45-1.56.21zM105.27 38.49c.41.11.82.24 1.23.36l1.7-5.21c-.5-.16-1-.3-1.52-.44zM107.82 39.28l1.22.44 2-5.12-1.48-.53zM42.67 58.81l4.74 2.74c.22-.37.45-.73.68-1.09l-4.6-3zM112.8 134.17l2.23 5 1.42-.68-2.45-4.88c-.42.2-.81.39-1.2.56zM117.53 131.67l2.74 4.74c.45-.27.9-.54 1.34-.82l-3-4.6zM115.2 133l2.48 4.88c.47-.24.93-.49 1.39-.75l-2.74-4.75zM119.79 130.24l3 4.59c.43-.29.87-.59 1.29-.89l-3.21-4.44zM129.75 129.33c.39-.36.77-.72 1.14-1.09l-3.89-3.87-.93.89zM124.08 127l3.44 4.25 1.2-1-3.66-4.07zM96 138.67c-.42 0-.85.08-1.28.1l.29 5.47 1.57-.12zM101.32 137.91l-1.27.24.85 5.41 1.55-.29zM105.35 142.62l-1.42-5.3q-.63.17-1.26.3l1.14 5.36c.52-.11 1.03-.23 1.54-.36zM111.53 134.74l-1.19.5 2 5.11c.49-.19 1-.4 1.46-.61zM98.68 138.36l-1.28.17.6 5.47 1.56-.21zM111 140.85l-2-5.12-1.21.44 1.69 5.21zM108.2 141.81l-1.69-5.21c-.41.12-.82.25-1.24.36l1.42 5.3zM122 128.69l3.22 4.43 1.25-1-3.47-4.22zM128 123.39l3.88 3.87 1.08-1.14-4.07-3.67c-.29.32-.59.63-.89.94zM136.75 121.56l-4.43-3.22c-.26.35-.52.69-.79 1l4.26 3.45c.33-.39.65-.79.96-1.23zM130.66 120.44l-.84 1 4.07 3.67q.53-.6 1-1.2zM62.92 130.24l-1.06-.73-3.22 4.43c.43.3.86.6 1.3.89zM45.47 110.33c-.19-.39-.38-.78-.56-1.17l-5 2.23c.23.48.45 1 .69 1.43zM49.58 117.22c-.25-.35-.49-.7-.73-1.06l-4.6 3c.29.44.59.87.9 1.3zM46.1 111.56l-4.88 2.49q.36.7.75 1.38l4.75-2.73c-.21-.38-.42-.7-.62-1.14zM43.49 118l4.6-3c-.23-.37-.46-.73-.68-1.1l-4.74 2.74c.27.45.54.9.82 1.36zM51.18 119.37l-.79-1-4.39 3.19c.32.43.64.84 1 1.25zM52.89 121.42c-.28-.32-.56-.65-.83-1l-4.26 3.45 1 1.2zM40.72 95c-.06-.42-.12-.85-.17-1.28l-5.45.58q.09.78.21 1.56zM35.53 97.27c.08.52.18 1 .28 1.55l5.36-1.14c-.08-.42-.16-.84-.23-1.27zM41.76 100.3q-.16-.63-.3-1.26l-5.36 1.14c.12.51.24 1 .37 1.53zM53.82 122.45l-4.07 3.67c.36.39.72.76 1.09 1.14l3.87-3.87zM44.34 107.9c-.17-.4-.33-.79-.49-1.19l-5.12 2c.2.49.4 1 .61 1.46zM37.7 105.89c.17.5.35 1 .53 1.48l5.12-2c-.15-.4-.3-.81-.44-1.22zM42.12 101.64l-5.29 1.42c.14.5.29 1 .44 1.51l5.21-1.69c-.12-.42-.25-.83-.36-1.24zM74.89 136.17l-1.22-.43-2 5.11 1.48.53zM82.67 138.15c-.43-.08-.85-.15-1.27-.24l-1.14 5.36 1.55.29zM77.44 137l-1.23-.37-1.7 5.21 1.52.45zM80 137.62c-.42-.09-.84-.19-1.25-.3l-1.42 5.3q.76.19 1.53.36zM85.32 138.53l-1.32-.17-.86 5.41c.52.08 1 .15 1.57.21zM55.69 124.37l-3.87 3.87 1.18 1.09 3.67-4.07c-.36-.26-.67-.59-.98-.89zM88 138.77c-.43 0-.86-.06-1.29-.1l-.57 5.45c.52 0 1 .09 1.57.12zM90.66 138.88h-1.29l-.28 5.47h1.57zM59.72 127.9l-3.45 4.26 1.25 1 3.22-4.43c-.35-.3-.69-.56-1.02-.83zM58.64 127l-1-.84-3.64 4.1 1.2 1zM72.38 135.24a51.35 51.35 0 01-8.29-4.24l-3 4.59a56.69 56.69 0 009.31 4.76zM40.31 91.1l-5.47.28c0 .53.07 1.05.12 1.57l5.45-.57c-.04-.38-.07-.85-.1-1.28zM93.34 138.85h-1.29v5.48h1.58zM136 100.13a46.32 46.32 0 00-3.55-33.8l-1.66.87a44.28 44.28 0 013.41 32.42zM119.6 95.44l2.37.68a31.71 31.71 0 00-2.41-23l-2.17 1.16a29.2 29.2 0 012.21 21.11z"/><path class="cls-1" d="M74.37 44.61l3.71 9.21c-1 .41-2 .85-3 1.35l-4.38-8.92a46.25 46.25 0 00-4.92 2.85l11.48 17a24.93 24.93 0 012.46-1.42l-4.06-8.28c1-.48 1.94-.92 2.93-1.31l3.46 8.58a26.84 26.84 0 012.71-.89l-2.24-9c1-.27 2.08-.49 3.14-.66l1.59 9.09a26.5 26.5 0 014.11-.33A25.79 25.79 0 01113 73.75l7.82-4.9c.58.9 1.12 1.83 1.61 2.78l-1.78 1a32.92 32.92 0 012.51 23.88l2 .56c-.29 1-.61 2.06-1 3.06l-8.69-3.17a25.94 25.94 0 01-4.11 7.11l15.74 13.19a46.26 46.26 0 007.67-13.26l-9.33-3.4c.38-1 .72-2.09 1-3.15l2.14.61a38.51 38.51 0 00-3-28.07l-2 1c-.51-1-1.06-1.94-1.66-2.86l8.43-5.28A46.28 46.28 0 0083.7 42l1.72 9.79c-1.09.18-2.17.41-3.24.68l-2.41-9.64a43.11 43.11 0 00-5.4 1.78z"/><path class="cls-1" d="M126.76 69.35a39.75 39.75 0 013 29l1.66.47A41.06 41.06 0 00133 87.73a41.64 41.64 0 00-4.7-19.19zM114.31 76a25.64 25.64 0 011.94 18.52l2.74.78a28.65 28.65 0 00-2.16-20.64zM60.41 36.85l-.34.21.34.54.33-.21zM74.25 30.67l.18.6.38-.11-.18-.61zM71.29 31.64l.21.6.37-.13-.21-.6zM68.38 32.77l.24.58.37-.14-.24-.59zM65.9 33.88l-.37.17.28.57.36-.16zM63.11 35.29l-.34.19.3.56.34-.19zM80.7 29.12l-.39.07.11.62.39-.07zM86.88 28.33h-.4l.06.63h.39zM77.26 29.85l.15.62.38-.1-.15-.62zM90 28.18h-.4v.63h.4zM92.72 28.18v.63h.39v-.63zM83.78 28.64l-.4.05.09.63.39-.05zM44 51.64l.51.38.23-.31-.5-.39zM58.15 39.06l-.36-.52-.32.23.36.52zM38.25 62.18l-.57-.28-.16.36.57.27c.05-.11.11-.23.16-.35zM35.87 67.87l-.6-.21c0 .12-.08.24-.13.37l.6.21c.04-.13.09-.24.13-.37zM34.91 70.8l-.61-.18c0 .12-.08.25-.11.38l.6.17zM33.39 74l.61.15c0-.13.07-.26.1-.38l-.62-.15zM39.67 59.44l-.55-.31c-.07.12-.13.24-.2.35l.56.3zM37 65l-.59-.24-.15.37.59.23zM46 49.21l.48.41.25-.3-.48-.41zM53.25 42.81l-.41-.48-.3.25.41.48zM55.65 40.87l-.38-.5-.32.24.39.5zM40.48 56.78l.54.33.21-.33-.54-.34zM42.17 54.16l.53.36a3.62 3.62 0 01.22-.32l-.52-.36zM95.83 28.33v.63h.39v-.63zM102 29.12l-.12.62.39.07.12-.62zM147.44 67.65l-.6.22c0 .12.09.24.13.37l.6-.21c-.04-.13-.09-.25-.13-.38zM146.31 64.75l-.58.24.15.36.58-.24zM143.6 59.13l-.56.31c.07.11.13.23.19.34l.56-.3zM136.5 48.91l-.48.41c.76.88 1.48 1.78 2.19 2.7l.5-.38a53.69 53.69 0 00-2.21-2.73zM141.49 56.77l.2.34.55-.33-.21-.34zM140.31 53.84l-.52.36c.08.1.15.21.23.32l.52-.36a3.71 3.71 0 00-.23-.32zM145.2 62.26l-.2-.36-.57.28c.06.11.11.23.17.35zM150.09 82.9v.39h.64v-.4zM149.76 79.84l.06.38.62-.08c0-.13 0-.26-.05-.39zM150.9 86h-.64v.39h.64V86zM148.62 73.77l.09.39.62-.15-.1-.38zM149.27 76.79c0 .13 0 .26.07.39l.63-.12c0-.13-.05-.26-.08-.39zM148.42 70.62l-.61.18c0 .12.07.25.11.37l.61-.17c-.04-.13-.08-.26-.11-.38zM134.41 46.6l-.41.4.27.29.46-.43zM110.84 32.11l.37.13.22-.6-.38-.13zM107.91 31.16l.37.11.18-.6-.38-.12zM113.73 33.21l.36.14.24-.58-.36-.15zM105.07 29.75l-.15.62.38.09.15-.61zM98.93 28.64l-.08.63.39.05.09-.63zM33.45 76.79l-.63-.12c0 .13 0 .26-.07.39l.62.12c.03-.13.05-.26.08-.39zM130.17 42.58l-.3-.26-.41.49.3.25zM122.3 36.85l-.33.54c.11.06.22.14.34.2l.33-.53zM132.48 44.67l-.29-.27-.43.46.29.27zM127.44 40.37l-.38.5.31.24.39-.5zM124.92 38.54l-.36.52.32.23.36-.52zM122 138.06l.33.55.33-.21-.33-.54zM119.3 139.6l.3.56.4-.16-.3-.56zM124.57 136.39l.35.52.33-.23-.36-.52zM116.55 141l.27.57.36-.17-.27-.57zM127.06 134.58l.39.5.31-.24-.39-.5zM129.46 132.64l.41.49c.9-.76 1.77-1.55 2.61-2.35l-.43-.46c-.84.8-1.7 1.57-2.59 2.32zM108.47 144.79l-.19-.61-.37.11.18.61zM102 146.34l.39-.08-.12-.62-.38.07zM98.94 146.81l.39-.05-.09-.63-.38.06zM113.73 142.24l.24.59.37-.15-.25-.58zM105.46 145.6l-.15-.61-.38.09.14.62zM134 128.41l.46.44c.81-.85 1.59-1.72 2.35-2.61l-.48-.41c-.81.88-1.58 1.75-2.33 2.58zM95.83 147.13h.4v-.63h-.39zM33 79.84l-.62-.09-.06.39.63.09c-.04-.13-.01-.23.05-.39zM150.76 92.2h-.64v.39h.63c-.01-.13 0-.26.01-.39zM149.33 101.44l-.62-.15-.09.38.62.15zM149.27 98.66l.62.11c0-.13.05-.25.08-.38l-.63-.12c-.02.13-.05.26-.07.39zM138 123.74l.5.39a3.33 3.33 0 00.24-.32l-.5-.38zM48 46.89l.47.43c.79-.84 1.61-1.66 2.45-2.46l-.43-.46q-1.24 1.22-2.49 2.49zM150.91 89.08h-.64v.39h.64c-.01-.12-.01-.25 0-.39zM150.44 95.3l-.62-.08-.06.39.63.08c.02-.13.04-.25.05-.39zM144.46 113.27l.57.28.17-.36-.57-.27c-.06.08-.11.23-.17.35zM139.8 121.25l.52.36a60 60 0 003.47-5.64l-.56-.3a58.73 58.73 0 01-3.43 5.58zM147.81 104.65l.61.18c0-.12.07-.25.11-.38l-.61-.18c-.04.13-.07.26-.11.38zM145.73 110.46l.58.24.15-.37-.58-.24zM146.84 107.58l.6.21c.05-.12.09-.24.13-.37l-.59-.21c-.05.12-.09.25-.14.37zM110.85 143.34l.21.6.37-.13-.21-.6zM33.39 101.44l.09.38.62-.15c0-.12-.07-.25-.1-.38zM34.18 104.45l.12.38.61-.18-.12-.38zM36.25 110.33l.15.37.59-.24-.15-.37zM38.92 116a3.9 3.9 0 01.19.35l.56-.31-.19-.34zM37.51 113.19l.17.36.57-.28c0-.12-.11-.24-.16-.35zM35.14 107.42c0 .13.09.25.13.37l.6-.21c0-.12-.09-.24-.13-.37zM92.72 147.28h.39v-.63h-.4zM31.81 86.36h.63v-.39h-.63c.01.13 0 .26 0 .39zM32.62 82.9l-.62-.05v.4h.63zM32.59 92.15h-.63v.4l.63-.06zM32.9 95.22l-.63.08.06.4.62-.09c-.01-.13-.04-.26-.05-.39zM33.37 98.27l-.62.12c0 .13 0 .26.07.39l.63-.12c-.03-.13-.06-.26-.08-.39zM32.44 89.07h-.63v.4h.63c.01-.14 0-.27 0-.4zM80.69 146.34l.12-.63-.39-.07-.11.62zM83.78 146.81l.08-.62-.39-.06-.08.63zM86.88 147.13l.05-.64h-.39l-.05.63zM90 147.28v-.64h-.39v.63zM42.82 159q.66.45 1.32.87l-.94 1.43a87.17 87.17 0 0010.61 5.88l.73-1.55a86.13 86.13 0 0026.76 7.53l.15-1.26a85.37 85.37 0 01-37.89-14zM131 11.18a82.4 82.4 0 00-8.87-3.92l-.47 1.22a85.28 85.28 0 018.74 3.87zM60.86 8.56A86 86 0 01110.11 5l.29-1.26a65.36 65.36 0 00-5.59-1l.27-1.69A90.52 90.52 0 0079.86.73l.22 1.7a86.71 86.71 0 00-19.69 4.91zM159 141.56l-1-.82a85.57 85.57 0 01-19.37 17.58l.73 1.1a86 86 0 009.56-7.33l1.13 1.29c1.32-1.17 2.61-2.37 3.87-3.62q3.16-3.13 6-6.53l-1.33-1.09zM171.15 49.94l-1.54.73a85.75 85.75 0 00-7.74-13l1.41-1a90.13 90.13 0 00-5.3-6.64l-1.31 1.1q-1.93-2.21-4-4.29c-.62-.62-1.25-1.21-1.88-1.81l-.9.95a84.28 84.28 0 0125.67 76l1.26.22a85.27 85.27 0 001.16-11l1.71.09c0-1.21.07-2.43.07-3.64a86.85 86.85 0 00-8.61-37.71z"/><path class="cls-2" d="M50.93 26.11l-.18-.26A74.21 74.21 0 0020.61 66l.3.09a74 74 0 0130.02-39.98zM47.94 71.5l19.31 7a27.45 27.45 0 011.16-2.6l-18.15-9.59a47.4 47.4 0 00-2.32 5.19zM52.28 62.84l17.41 10.9a27.22 27.22 0 011.68-2.31L55.62 58.24a47.31 47.31 0 00-3.34 4.6zM75.19 67.64L62.53 51.46a47.46 47.46 0 00-4.22 3.8l14.76 14.28a23.77 23.77 0 012.12-1.9zM91.36 18.79a68.43 68.43 0 00-33 8.42l.65 1.2a67.54 67.54 0 0190 94.51l1.17.71A68.91 68.91 0 0091.36 18.79z"/><path class="cls-3" d="M141 100.29l5.3 1.42q.19-.76.36-1.53L141.25 99c-.09.46-.19.88-.25 1.29z"/><path class="cls-4" d="M144.48 107.37c.18-.49.36-1 .53-1.48l-5.21-1.7c-.14.41-.28.82-.43 1.22z"/><path class="cls-5" d="M142 95l5.41.86c.08-.52.15-1 .21-1.57l-5.45-.57c-.06.47-.12.9-.17 1.28z"/><path class="cls-6" d="M147.19 97.27l-5.41-.86c-.08.43-.15.85-.24 1.27l5.36 1.14c.1-.51.2-1.03.29-1.55z"/><path class="cls-7" d="M138.37 107.9l5 2.22c.2-.48.41-1 .6-1.45l-5.11-2c-.15.43-.32.83-.49 1.23z"/><path class="cls-8" d="M140.6 101.64c-.12.41-.24.82-.37 1.23l5.21 1.7c.16-.51.31-1 .45-1.52z"/><path class="cls-2" d="M133.87 116.16c-.24.36-.48.71-.73 1.06l4.43 3.22c.3-.43.6-.86.89-1.3z"/><path class="cls-9" d="M142.81 111.39l-5-2.23c-.18.39-.36.78-.55 1.17l4.88 2.48c.22-.47.45-.94.67-1.42z"/><path class="cls-10" d="M141.5 114.05l-4.89-2.49c-.2.38-.4.76-.61 1.13l4.74 2.74c.26-.43.51-.92.76-1.38z"/><path class="cls-11" d="M135.3 113.9c-.22.36-.44.73-.67 1.09l4.59 3c.28-.45.56-.89.82-1.35z"/><path class="cls-2" d="M116.55 34.46c1 .49 2.08 1 3.09 1.58l.31-.56c-1-.56-2.07-1.09-3.13-1.6z"/><path class="cls-4" d="M48.31 128.85l.45-.43-.27-.29-.46.43a3.83 3.83 0 00.28.29z"/><path class="cls-5" d="M40.48 118.67l.21.34.54-.34-.21-.33z"/><path class="cls-2" d="M65.53 141.4a59.27 59.27 0 0012.11 4.3l.15-.62a58.59 58.59 0 01-12-4.25z"/><path class="cls-11" d="M63.41 139.6q-1.53-.82-3-1.74l-.34.54c1 .61 2 1.2 3 1.76z"/><path class="cls-9" d="M52.54 132.87l.3.26.41-.49-.3-.25z"/><path class="cls-10" d="M58.15 136.39c-1-.66-1.89-1.34-2.81-2l-.39.5c.93.72 1.88 1.41 2.84 2.07z"/><path class="cls-3" d="M44.24 124.13l.5-.39-.24-.31-.5.38z"/><path class="cls-8" d="M46.21 126.54l.48-.41-.25-.3-.49.41z"/><path class="cls-6" d="M42.7 120.93l-.53.36c.08.11.15.22.23.32l.52-.36a3.62 3.62 0 01-.22-.32z"/><path class="cls-7" d="M50.23 130.78l.29.27.43-.46-.28-.27z"/><path class="cls-2" d="M14.23 100.74a13 13 0 1113-13 13 13 0 01-13 13zm0-25.72a12.7 12.7 0 1012.7 12.7A12.72 12.72 0 0014.23 75z"/></g></g></svg>