<svg xmlns="http://www.w3.org/2000/svg" viewBox="0 0 678.63 664.26"><defs><style>.cls-2{fill:#5fffe8}</style></defs><g id="图层_2" data-name="图层 2"><g opacity=".8" id="央铋_1" data-name="央铋 1"><path class="cls-2" d="M337.35 614.49C181.66 614.49 55 487.83 55 332.13S181.66 49.77 337.35 49.77s282.36 126.67 282.36 282.36-126.66 282.36-282.36 282.36zm0-558.77C184.93 55.72 61 179.71 61 332.13s124 276.41 276.4 276.41 276.41-124 276.41-276.41S489.77 55.72 337.35 55.72zM329.03 0h13.8v13.8h-13.8z"/><path class="cls-2" transform="rotate(-6 301.847 8.835)" d="M295.04 1.93h13.81v13.8h-13.81z"/><path class="cls-2" d="M276.53 19.62l-13.5 2.87-2.87-13.51 13.5-2.86 2.87 13.5z"/><path class="cls-2" transform="rotate(-18.03 235.457 23.27)" d="M228.6 16.36h13.8v13.8h-13.8z"/><path class="cls-2" transform="rotate(-24 203.799 35.599)" d="M196.87 28.69h13.8v13.8h-13.8z"/><path class="cls-2" transform="rotate(-30 173.485 51.185)" d="M166.61 44.28h13.8v13.8h-13.8z"/><path class="cls-2" d="M154.68 71.37l-11.16 8.11-8.12-11.15 11.16-8.13 8.12 11.17z"/><path class="cls-2" transform="rotate(-42 118.684 91.394)" d="M111.78 84.48h13.8v13.8h-13.8z"/><path class="cls-2" transform="rotate(-48.02 94.711 115.556)" d="M87.81 108.66h13.8v13.81h-13.8z"/><path class="cls-2" transform="rotate(-54 73.41 142.111)" d="M66.5 135.21h13.8v13.81H66.5z"/><path class="cls-2" transform="rotate(-60 54.988 170.738)" d="M48.09 163.84h13.8v13.8h-13.8z"/><path class="cls-2" transform="rotate(-66.01 39.671 201.148)" d="M32.77 194.24h13.8v13.81h-13.8z"/><path class="cls-2" transform="rotate(-72 27.607 232.979)" d="M20.7 226.07h13.8v13.8H20.7z"/><path class="cls-2" transform="rotate(-78.02 18.925 265.888)" d="M12.03 258.99h13.8v13.81h-13.8z"/><path class="cls-2" transform="rotate(-84.01 13.768 299.547)" d="M6.86 292.64h13.8v13.8H6.86z"/><path class="cls-2" d="M5.22 326.65h13.81v13.8H5.22z"/><path class="cls-2" transform="rotate(-6.01 14.036 367.587)" d="M7.15 360.63h13.81v13.8H7.15z"/><path class="cls-2" transform="rotate(-12.03 19.561 401.296)" d="M12.62 394.23h13.81v13.8H12.62z"/><path class="cls-2" d="M32.91 425.27l4.27 13.13-13.13 4.27-4.28-13.12 13.14-4.28zM44.31 456.59l5.62 12.61-12.61 5.61-5.62-12.6 12.61-5.62z"/><path class="cls-2" transform="rotate(-30.03 56.413 495.976)" d="M49.5 489.07h13.81v13.8H49.5z"/><path class="cls-2" transform="rotate(-36.01 75.07 524.445)" d="M68.16 517.53h13.81v13.8H68.16z"/><path class="cls-2" d="M97.11 541.05l9.25 10.26-10.26 9.23-9.24-10.25 10.25-9.24zM120.27 565.01l10.26 9.24-9.24 10.25-10.26-9.22 9.24-10.27z"/><path class="cls-2" transform="rotate(-54.03 147.306 596.045)" d="M140.43 589.17h13.81v13.8h-13.81z"/><path class="cls-2" d="M173.43 605.06l11.96 6.9-6.9 11.95-11.96-6.89 6.9-11.96zM202.86 620.7l12.62 5.61-5.62 12.61-12.61-5.6 5.61-12.62zM233.76 633.17l13.13 4.27-4.26 13.12-13.13-4.25 4.26-13.14zM265.8 642.35l13.5 2.87-2.87 13.5-13.5-2.86 2.87-13.51zM298.62 648.13l13.73 1.44-1.45 13.73-13.72-1.43 1.44-13.74zM331.86 650.45h13.81l-.01 13.8-13.79.01-.01-13.81zM365.17 649.28l13.73-1.44 1.43 13.72-13.71 1.45-1.45-13.73zM398.17 644.63l13.5-2.87 2.86 13.5-13.49 2.88-2.87-13.51zM430.5 636.57l13.13-4.27 4.26 13.12-13.12 4.28-4.27-13.13zM461.81 625.16l12.61-5.62 5.61 12.61-12.59 5.62-5.63-12.61zM491.76 610.55l11.95-6.91 6.9 11.96-11.94 6.9-6.91-11.95zM520.02 592.88l11.16-8.12 8.11 11.17-11.15 8.12-8.12-11.17zM546.28 572.36l10.25-9.24 9.23 10.26-10.24 9.24-9.24-10.26zM570.24 549.2l9.23-10.26 10.26 9.24-9.22 10.26-10.27-9.24zM591.65 523.67l8.11-11.17 11.17 8.12-8.1 11.16-11.18-8.11zM610.29 496.04l6.89-11.96 11.96 6.91-6.89 11.95-11.96-6.9zM625.92 466.61l5.61-12.61 12.61 5.62-5.6 12.6-12.62-5.61z"/><path class="cls-2" transform="rotate(-72.03 647.044 431.277)" d="M640.2 424.38h13.79v13.81H640.2z"/><path class="cls-2" d="M647.58 403.67l2.86-13.5 13.51 2.88-2.86 13.49-13.51-2.87zM653.35 370.85l1.44-13.72 13.74 1.44-1.44 13.72-13.74-1.44zM655.67 337.61v-13.8h13.81v13.79l-13.81.01zM654.5 304.31l-1.44-13.73 13.72-1.44 1.46 13.71-13.74 1.46zM649.86 271.31l-2.88-13.51 13.51-2.86 2.87 13.49-13.5 2.88zM641.79 238.98l-4.28-13.13 13.14-4.27 4.27 13.12-13.13 4.28zM630.38 207.66l-5.62-12.61 12.62-5.61 5.62 12.59-12.62 5.63zM615.77 177.71l-6.91-11.95 11.96-6.9 6.9 11.94-11.95 6.91zM598.11 149.46l-8.13-11.18 11.17-8.1 8.12 11.16-11.16 8.12zM577.59 123.2l-9.25-10.26 10.26-9.23 9.24 10.24-10.25 9.25zM554.43 99.23L544.16 90l9.25-10.26 10.25 9.22-9.23 10.27zM528.89 77.82l-11.16-8.12 8.11-11.16 11.17 8.1-8.12 11.18zM501.26 59.19l-11.96-6.9 6.91-11.95 11.95 6.88-6.9 11.97zM471.83 43.55l-12.61-5.61 5.62-12.61 12.6 5.6-5.61 12.62zM440.94 31.07l-13.13-4.26 4.26-13.13 13.12 4.25-4.25 13.14zM408.9 21.9l-13.5-2.87 2.87-13.51 13.49 2.86-2.86 13.52z"/><path class="cls-2" transform="rotate(-84.02 369.923 8.54)" d="M363.03 1.63h13.81v13.8h-13.81z"/><path class="cls-2" d="M303.47 115.88l-7.26 1.29c-2.32.36-5.09 1-8.27 1.76l-5.07 1.16c-1.77.51-3.62 1-5.56 1.57a218.69 218.69 0 00-25.88 9.12 240.73 240.73 0 00-28 14.42 245.86 245.86 0 00-25.62 18.3 228.29 228.29 0 00-20 18.86c-5.5 5.86-9.81 11-12.66 14.75l-3.36 4.29-1.11 1.6-5.91-4.33s.41-.56 1.16-1.62 2-2.53 3.47-4.43c2.95-3.85 7.4-9.18 13.09-15.24a232.13 232.13 0 0120.66-19.49A252 252 0 01219.63 139a246.61 246.61 0 0128.92-14.9 227.74 227.74 0 0126.76-9.43l5.74-1.62 5.24-1.21c3.29-.77 6.16-1.44 8.55-1.81l7.5-1.34z"/><path class="cls-2" d="M378.92 104.66l-4.64-.83c-2.95-.55-7.23-1-12.34-1.66a254.1 254.1 0 00-37.74-.91 229.27 229.27 0 00-37.37 5.2c-2.51.59-4.81 1.11-6.86 1.58l-5.21 1.46-4.54 1.3-1.48-4.86 4.65-1.32 5.33-1.49 7-1.61a232.42 232.42 0 0138.19-5.32 258 258 0 0138.55.93c5.22.71 9.6 1.13 12.61 1.7l4.76.84zM525.8 176.34l-3-3.53c-2-2.25-4.69-5.49-8.26-9.13a234.06 234.06 0 00-27.71-25 247.11 247.11 0 00-31.17-20.54c-4.45-2.49-8.29-4.31-10.92-5.7-1.31-.7-2.39-1.16-3.11-1.49l-1.11-.51 1.66-3.56s.4.17 1.13.51 1.83.8 3.17 1.51c2.67 1.41 6.57 3.25 11.09 5.79a253.61 253.61 0 0131.68 20.87A235.81 235.81 0 01517.34 161c3.64 3.69 6.42 7 8.4 9.27l3.1 3.59zM525.53 204.58l-3-4.19c-1-1.32-2.08-3-3.44-4.79l-4.73-6a230 230 0 00-61.91-53.45l-6.63-3.81-5.25-2.69-4.57-2.37 2.82-5.83 4.7 2.41 5.4 2.77 6.82 3.92a235.66 235.66 0 0163.66 55l4.86 6.19c1.41 1.87 2.56 3.56 3.54 4.92 2 2.74 3.07 4.31 3.07 4.31z"/><path class="cls-2" d="M537.8 428.89l2-4.33 2.36-5.21c.89-2.07 1.78-4.49 2.86-7.18a226.74 226.74 0 0012.34-46.27 228.13 228.13 0 000-67.66 222 222 0 00-73.48-133.55 222.05 222.05 0 00-102.68-50.76c-5.71-1-10.16-1.91-13.26-2.19l-4.72-.61-.78 6.72 4.58.58c3 .28 7.32 1.18 12.86 2.13a215.33 215.33 0 0199.54 49.21 215.26 215.26 0 0171.26 129.49 221.62 221.62 0 010 65.62 219.6 219.6 0 01-12 44.86c-1 2.6-1.91 4.95-2.77 7s-1.66 3.67-2.28 5.05c-1.25 2.73-1.91 4.19-1.91 4.19z"/><path class="cls-2" d="M370.62 557s1.29-.13 3.66-.59 5.89-1 10.3-1.91a230.54 230.54 0 0035.78-10.76 224.45 224.45 0 0046.54-24.86 240.93 240.93 0 0023.35-18.54 246.38 246.38 0 0021.3-22.23 224.78 224.78 0 0018.13-24.87c2.84-4.21 5.14-8.71 7.68-13 2.2-4.47 4.65-8.75 6.54-13.21a224.27 224.27 0 0020.58-87.29c.1-4.52.26-8.06.12-10.48s-.09-3.71-.09-3.71l3.23-.1s0 1.31.1 3.77 0 6.05-.13 10.63a223.23 223.23 0 01-4.29 37.66 227.85 227.85 0 01-16.58 50.88c-1.91 4.52-4.4 8.86-6.64 13.39-2.57 4.34-4.9 8.9-7.78 13.18A229.89 229.89 0 01514 480.21a252 252 0 01-21.61 22.54 243.54 243.54 0 01-23.69 18.8 227.53 227.53 0 01-47.2 25.22 233.93 233.93 0 01-36.29 10.9c-4.48 1-8 1.48-10.45 2s-3.71.59-3.71.59z"/><path class="cls-2" d="M262.43 531.8a25.67 25.67 0 002.47.93l7.07 2.39c3 1.08 6.83 2 11.12 3.26 2.15.61 4.5 1.06 6.94 1.65s5 1.18 7.74 1.61c21.56 4.37 51.56 5.47 80.43-.23a210 210 0 0074.51-30c4.72-2.87 8.71-6 12.39-8.54 3.49-2.81 6.64-5.13 9.08-7.24l5.64-4.89a22.31 22.31 0 002-1.78l4 4.35a25.82 25.82 0 01-2 1.83l-5.81 5c-2.49 2.16-5.73 4.55-9.32 7.43-3.79 2.62-7.89 5.83-12.73 8.79a216 216 0 01-76.59 30.82c-29.69 5.86-60.49 4.72-82.65.24-2.81-.45-5.45-1.06-8-1.66s-4.92-1.07-7.13-1.69c-4.41-1.32-8.32-2.25-11.43-3.36l-7.27-2.46c-1.67-.56-2.54-.95-2.54-.95zM114 332.13s.11 4.32.32 11.87a235.25 235.25 0 003.83 31 225.47 225.47 0 0012.68 42.25 224.77 224.77 0 0058.26 81.88 226.18 226.18 0 0035.73 25.92c5.54 3.33 10.87 5.94 15.54 8.35 4.81 2.12 8.91 4.17 12.45 5.49l8.15 3.2 2.93 1-2.36 6.78-3-1-8.42-3.3c-3.64-1.37-7.88-3.48-12.84-5.68-4.83-2.48-10.33-5.17-16.05-8.61a234.38 234.38 0 01-36.87-26.75A231.9 231.9 0 01124.16 420a233.54 233.54 0 01-13.09-43.61 240.34 240.34 0 01-3.95-32l-.33-12.24z"/><path class="cls-2" d="M197.7 523.46s3 2.16 8.23 5.78c2.71 1.7 5.93 3.87 9.75 6.17s8.15 4.85 13.09 7.25c19.33 10.34 47.28 20.27 76.31 24.13a234.64 234.64 0 0042.86 2 256.92 256.92 0 0037.17-4.55 256.91 256.91 0 0025.6-6.81l7-2.38a23.49 23.49 0 002.46-.92l2.17 5.81a26.63 26.63 0 01-2.53.93l-7.22 2.45A236.71 236.71 0 01348.22 575a241.46 241.46 0 01-44-2c-29.8-4-58.49-14.16-78.33-24.76-5.06-2.47-9.44-5.21-13.43-7.45s-7.22-4.58-10-6.33c-5.42-3.71-8.45-5.93-8.45-5.93z"/><path class="cls-2" d="M109.64 432.22l3.52 7.77c1.23 2.42 2.74 5.35 4.46 8.71s3.95 7 6.23 11.06a246.72 246.72 0 0018.05 26.12c3.5 4.64 7.55 9.09 11.53 13.7 4.22 4.42 8.43 9 13 13.17a239.08 239.08 0 0028.17 23c4.67 3.47 9.54 6.29 14 9.21 4.64 2.6 8.91 5.3 13.09 7.35 8.22 4.36 15.35 7.44 20.33 9.57L250 565l-2.08 5.54-8.13-3.21c-5.1-2.18-12.4-5.33-20.81-9.79-4.28-2.1-8.65-4.86-13.41-7.53-4.57-3-9.55-5.88-14.33-9.43A244.65 244.65 0 01162.36 517c-4.67-4.29-9-8.95-13.3-13.47-4.09-4.72-8.22-9.28-11.81-14a251.38 251.38 0 01-18.47-26.74c-2.34-4.15-4.64-7.86-6.39-11.32s-3.29-6.45-4.56-8.92l-3.6-8zM346.07 81.36l-4.52-.12c-2.95-.15-7.27 0-12.78.11A249.23 249.23 0 00223 108.75c-5.31 2.58-10.44 5.71-15.72 8.71-5.11 3.29-10.36 6.5-15.35 10.19a239.36 239.36 0 00-28.86 24 251.17 251.17 0 00-68.9 118.17 245.81 245.81 0 00-7.15 45c-.52 5.49-.41 9.82-.55 12.77s-.11 4.52-.11 4.52h-4.5s0-1.6.1-4.6 0-7.41.56-13a249.75 249.75 0 017.29-45.84A255.43 255.43 0 01159.9 148.4a242.83 242.83 0 0129.38-24.4c5.07-3.76 10.42-7 15.62-10.37 5.37-3.07 10.6-6.24 16-8.88a253.86 253.86 0 01107.72-27.9c5.61-.17 10-.26 13-.11l4.6.11zM487.62 125.54l-3-2.11c-1.89-1.35-4.57-3.32-7.95-5.42s-7.24-4.71-11.6-7.12c-2.17-1.22-4.37-2.55-6.68-3.79l-7.06-3.61c-4.69-2.5-9.64-4.48-14.15-6.59-4.62-1.86-8.94-3.58-12.67-5l-9.13-3.09c-2.19-.77-3.48-1.1-3.48-1.1l1.23-4s1.31.34 3.55 1.12l9.32 3.11c3.79 1.43 8.19 3.18 12.89 5.07 4.58 2.14 9.61 4.16 14.38 6.7l7.17 3.67c2.35 1.26 4.59 2.61 6.8 3.85 4.43 2.46 8.37 5 11.78 7.24s6.17 4.14 8.1 5.5l3 2.16zM557.18 420.41s.37-.92 1.05-2.65 1.73-4.25 2.8-7.56 2.57-7.26 3.8-11.94q1-3.5 2.08-7.43l1.92-8.33a244.68 244.68 0 005.17-40.31 234.14 234.14 0 00-31.46-128.41c-2.86-5.22-6-9.7-8.56-13.81-2.79-3.95-5.21-7.41-7.28-10.2l-6.7-8.58 3-2.51 6.87 8.72c2.11 2.84 4.57 6.35 7.4 10.37 2.61 4.17 5.79 8.73 8.7 14a239.11 239.11 0 0132 130.54 248 248 0 01-5.24 41c-.68 3-1.34 5.78-2 8.47s-1.45 5.18-2.12 7.54c-1.25 4.77-2.76 8.78-3.86 12.14s-2.15 5.93-2.84 7.69l-1.07 2.7zM494.24 519.63l4.28-3.71c2.79-2.29 6.48-5.89 11-10.16A252.43 252.43 0 00538.55 471a241.21 241.21 0 0022.18-39.5c5-11.3 7.59-19.16 7.59-19.16l3.72 1.29s-2.6 8-7.71 19.48a245.11 245.11 0 01-22.54 40.13 256.49 256.49 0 01-29.54 35.29c-4.55 4.33-8.3 8-11.13 10.32l-4.36 3.77zM619.23 571.19a370.15 370.15 0 01-94 79.14l2.1 2.69a373.62 373.62 0 0094.31-79.43zM53.72 564.37l-2.4 2.4A373.73 373.73 0 00156.46 656l2.32-2.57a369.93 369.93 0 01-105.06-89.06zM129.79 31.9l-2.25-2.55A373.17 373.17 0 000 184.17h3.7A369.7 369.7 0 01129.79 31.9zM547.12 26.61l-2.36 2.47a369.68 369.68 0 01130.17 155.09h3.7A373.09 373.09 0 00547.12 26.61z"/></g></g></svg>