<svg xmlns="http://www.w3.org/2000/svg" viewBox="0 0 95.02 84.59"><defs><style>.cls-1{fill:#04cbf5}.cls-2{fill:#00cbf5;opacity:.4}</style></defs><g id="图层_2" data-name="图层 2"><g id="Layer_1" data-name="Layer 1"><path class="cls-1" d="M19.41 42.3l-.24-.24h-.78l-1.66-1.67h-1.39l1.91 1.91-1.91 1.9h1.39l1.66-1.66h.78l.24-.24zM78.06 42.3l.24.24h.77l1.67 1.66h1.38l-1.9-1.9 1.9-1.91h-1.38l-1.67 1.67h-.77l-.24.24z"/><path class="cls-1" d="M18.8 41.58l-.38.37-.37-.37h.75zM78.67 43.01l.38-.37.37.37h-.75zM78.67 41.58l.38.37.37-.37h-.75zM18.8 43.01l-.38-.37-.37.37h.75zM18.24 40.37l-.7.7-.71-.7h1.41zM79.23 44.23l.7-.71.71.71h-1.41zM79.23 40.37l.7.7.71-.7h-1.41zM18.24 44.23l-.7-.71-.71.71h1.41zM16.85 42.3l-.78-.78v.18l.59.6-.59.6v.18l.78-.78zM80.62 42.3l.78.78v-.18l-.6-.6.6-.6v-.18l-.78.78zM15.99 42.3l-.63-.64v.08l.56.56-.56.56v.07l.63-.63zM81.48 42.3l.63.63v-.07l-.56-.56.56-.56v-.08l-.63.64z"/><path class="cls-1" d="M16.1 41.9l.31.31-.02.02-.34-.33h.05zM81.37 42.7l-.31-.32.02-.02.34.34h-.05zM81.37 41.9l-.31.31.02.02.34-.33h-.05zM16.1 42.7l.31-.32-.02-.02-.34.34h.05z"/><path class="cls-1" d="M16.41 42.21h.17l.02.02h-.21l.02-.02zM81.06 42.38h-.17l-.03-.02h.22l-.02.02zM81.06 42.21h-.17l-.03.02h.22l-.02-.02zM16.41 42.38h.17l.02-.02h-.21l.02.02zM30.05 39.75l-.42.43v4.23l.42.43v-5.09zM67.41 44.84l.43-.43v-4.23l-.43-.43v5.09zM30.44 41.24l-.2.19v1.74l.2.19v-2.12zM67.03 43.36l.19-.19v-1.74l-.19-.19v2.12zM29.28 41.2l.2.19v1.81l-.2.19V41.2zM68.19 43.39l-.2-.19v-1.81l.2-.19v2.19zM20.04 42.3l-1.26-1.27h.58l1.27 1.27-1.27 1.26h-.58l1.26-1.26zM77.42 42.3l1.27 1.26h-.58l-1.27-1.26 1.27-1.27h.58l-1.27 1.27zM17.51 40.86l.78.78h-.18l-.78-.78h.18zM79.95 43.73l-.77-.78h.18l.78.78h-.19zM79.95 40.86l-.77.78h.18l.78-.78h-.19zM17.51 43.73l.78-.78h-.18l-.78.78h.18zM17.53 33v-1.07L44.1 5.36v2.07l-2.99 2.99v.55l-23.8 23.8h-.56l-1.2 1.2h-.99L17.53 33zM79.94 51.6v1.06L53.36 79.23l.01-2.06 2.99-3v-.54l23.8-23.8h.55l1.2-1.2h1l-2.97 2.97zM79.94 33v-1.07L53.36 5.36l.01 2.07 2.99 2.99v.55l23.8 23.8h.55l1.2 1.2h1L79.94 33zM17.53 51.6v1.06L44.1 79.23v-2.06l-2.99-3v-.54l-23.8-23.8h-.56l-1.2-1.2h-.99l2.97 2.97zM27.37 25.94h3.36l-.01-3.35-3.35 3.35zM70.1 58.65h-3.36v3.36l3.36-3.36zM70.1 25.94h-3.36v-3.35l3.36 3.35zM27.37 58.65h3.36l-.01 3.36-3.35-3.36zM42.62 9.72l-.49.49.49.49v-.98zM54.84 74.88l.5-.5-.5-.49v.99zM54.84 9.72l.5.49-.5.49v-.98zM42.62 74.88l-.49-.5.49-.49v.99zM17.39 29.83l1.18-.01v-1.18l-1.18 1.19zM80.07 54.77h-1.18v1.18l1.18-1.18zM80.07 29.83l-1.18-.01v-1.18l1.18 1.19zM17.39 54.77h1.18v1.18l-1.18-1.18z"/><path class="cls-1" d="M17.04 35.11l-.27-.27-.27.27h.54zM80.42 49.48l.27.27.27-.27h-.54zM80.42 35.11l.27-.27.27.27h-.54zM17.04 49.48l-.27.27-.27-.27h.54zM16.64 35.98l-.5-.5-.51.5h1.01zM80.82 48.61l.51.51.51-.51h-1.02zM80.82 35.98l.51-.5.51.5h-1.02zM16.64 48.61l-.5.51-.51-.51h1.01zM24.68 30l-.55-.54-.54.54h1.09zM72.79 54.59l.55.55.54-.55h-1.09zM72.79 30l.55-.54.54.54h-1.09zM24.68 54.59l-.55.55-.54-.55h1.09zM24.75 29.38l-.27-.27-.27.27h.54zM72.72 55.21l.27.27.27-.27h-.54zM72.72 29.38l.27-.27.27.27h-.54zM24.75 55.21l-.27.27-.27-.27h.54zM25.05 29.08l-.27-.27-.28.27h.55zM72.42 55.51l.27.27.27-.27h-.54zM72.42 29.08l.27-.27.27.27h-.54zM25.05 55.51l-.27.27-.28-.27h.55zM26.63 30.97l3.3 3.31.01.57-3.89-3.88h.58zM70.84 53.62l-3.31-3.31v-.57l3.88 3.89-.57-.01zM70.84 30.97l-3.31 3.31v.57l3.88-3.88h-.57zM26.63 53.62l3.3-3.31.01-.57-3.89 3.89.58-.01zM40.41 12.5L23.66 29.25h-.57l17.32-17.32v.57zM57.05 72.1l16.76-16.76h.57L57.05 72.67v-.57zM57.05 12.5l16.76 16.75h.57L57.05 11.93v.57zM40.41 72.1L23.66 55.34h-.57l17.32 17.33v-.57zM35.52 18.15l-6.39 6.39h-.36l6.75-6.75v.36zM61.95 66.44l6.39-6.39h.36l-6.75 6.75v-.36zM61.95 18.15l6.39 6.39h.36l-6.75-6.75v.36zM35.52 66.44l-6.39-6.39h-.36l6.75 6.75v-.36zM41.33 10.47l5.12-5.13h.29l-5.41 5.41v-.28zM56.14 74.13l-5.12 5.12h-.29l5.41-5.41v.29zM56.14 10.47l-5.12-5.13h-.29l5.41 5.41v-.28zM41.33 74.13l5.12 5.12h.29l-5.41-5.41v.29zM32.51 22.67v-1.26l-.29.29V23zm.64-.64v-1.26l-.29.29v1.26zm-1.91 1.91v-1.26l-.3.3v1.26zm.64-.64V22l-.29.3v1.3zm3.18-4.45l-.29.3v1.26l.3-.3zm-1.27 2.54v-1.26l-.29.29v1.26zm.64-.64v-1.26l-.3.3v1.26zM65 61.93v1.26l.29-.3v-1.26zm-.63.64v1.26l.29-.3v-1.26zm1.91-1.92v1.26l.3-.29v-1.26zm-.64.64v1.26l.3-.3V61zm-3.24 4.45l.3-.29v-1.26l-.29.29zm1.28-2.54v1.26l.29-.29v-1.26zm-.64.64v1.26l.29-.29v-1.26zM65 22.67v-1.26l.29.29V23zm-.68-.67v-1.23l.29.29v1.26zm1.91 1.91v-1.23l.3.3v1.26zm-.64-.64V22l.3.3v1.3zm-3.19-4.42l.3.3v1.26l-.29-.3zm1.28 2.54v-1.26l.29.29v1.26zm-.68-.64v-1.26l.29.3v1.26zM32.51 61.93v1.26l-.29-.3v-1.26zm.64.64v1.26l-.29-.3v-1.26zm-1.91-1.92v1.26l-.3-.29v-1.26zm.64.64v1.26l-.29-.3V61zm3.18 4.45l-.29-.29v-1.26l.3.29zm-1.27-2.54v1.26l-.29-.29v-1.26zm.64.64v1.26l-.3-.29v-1.26zM35.22 26.58l-7.67-.01-.41-.4h8.49l-.41.41zM62.24 58.02h7.68l.41.4h-8.49l.4-.4zM62.24 26.58l7.68-.01.41-.4h-8.49l.4.41zM35.22 58.02h-7.67l-.41.4h8.49l-.41-.4zM32.26 26.92h-3.91l-.21-.2h4.33l-.21.2zM65.2 57.67h3.92l.2.21H65l.2-.21zM65.2 26.92h3.92l.2-.2H65l.2.2zM32.26 57.67h-3.91l-.21.21h4.33l-.21-.21zM26.08 34.22h-.73l-.08-.18h.99l-.18.18zM71.39 50.38h.73l.07.17h-.98l.18-.17zM71.39 34.22h.73l.07-.18h-.98l.18.18zM26.08 50.38h-.73l-.08.17h.99l-.18-.17zM30.09 17.23h3.36v-3.35l-3.36 3.35zM67.38 67.36h-3.36v3.35l3.36-3.35zM67.38 17.23h-3.36v-3.35l3.36 3.35zM30.09 67.36h3.36v3.35l-3.36-3.35z"/><path class="cls-1" d="M38.41 11.6l-5.15 5.15h-1.1l6.25-6.25v1.1zM59.06 73l5.15-5.16h1.09l-6.24 6.25V73zM59.06 11.6l5.15 5.15h1.09l-6.24-6.25v1.1zM38.41 73l-5.15-5.16h-1.1l6.25 6.25V73zM23.89 33.97l-.35-.35h-4.81l-.35.35h-1.4l4.98-4.98 4.98 4.98h-3.05zM73.57 50.63l.35.35h4.82l.35-.35h1.39l-4.97 4.98-4.98-4.98h3.04zM73.57 33.97l.35-.35h4.82l.35.35h1.39l-4.97-4.98-4.98 4.98h3.04zM23.89 50.63l-.35.35h-4.81l-.35-.35h-1.4l4.98 4.98 4.98-4.98h-3.05zM31.2 37.16l-3.23-3.23h-.45l-3.69-3.68h1.09l6.28 6.27v.64zM66.27 47.43l3.22 3.23h.46l3.69 3.69h-1.09l-6.28-6.28v-.64zM66.27 37.16l3.22-3.23h.46l3.69-3.68h-1.09l-6.28 6.27v.64zM31.2 47.43l-3.23 3.23h-.45l-3.69 3.69h1.09l6.28-6.28v-.64zM48.73 2.17l-6.67 6.68h-2.17L48.73 0l8.85 8.85H55.4l-6.67-6.68zM48.73 82.42l6.67-6.67h2.18l-8.85 8.84-8.84-8.84h2.17l6.67 6.67zM15.52 33.15l6.02-6.01h.43l-6.45 6.45v-.44zM81.95 51.44l-6.02 6.02h-.43l6.45-6.45v.43zM81.95 33.15l-6.02-6.01h-.43l6.45 6.45v-.44zM15.52 51.44l6.02 6.02h.43l-6.45-6.45v.43zM18.72 28.96l1.73-1.72h.21l-1.94 1.93v-.21zM78.75 55.63l-1.73 1.73h-.21l1.94-1.94v.21zM78.75 28.96l-1.73-1.72h-.21l1.94 1.93v-.21zM18.72 55.63l1.73 1.73h.21l-1.94-1.94v.21zM24.22 24.78l4.64-4.64h.56l-5.2 5.2v-.56zM73.25 59.81l-4.65 4.64h-.55l5.2-5.19v.55zM73.25 24.78l-4.65-4.64h-.55l5.2 5.2v-.56zM24.22 59.81l4.64 4.64h.56l-5.2-5.19v.55zM26.35 22.16l2.88-2.88-.16.38-2.72 2.72v-.22zM71.12 62.44l-2.88 2.87.16-.37 2.72-2.72v.22zM71.12 22.16l-2.88-2.88.16.38 2.72 2.72v-.22zM26.35 62.44l2.88 2.87-.16-.37-2.72-2.72v.22z"/><path class="cls-1" d="M29.36 19.59l2.88-2.87-.16.37-2.72 2.72v-.22zM68.11 65l-2.88 2.88.16-.38 2.72-2.72V65zM68.11 19.59l-2.88-2.87.16.37 2.72 2.72v-.22zM29.36 65l2.88 2.88-.16-.38-2.72-2.72V65zM16.54 30.79l1.11-1.11h.14l-1.25 1.25v-.14zM80.93 53.8l-1.12 1.12h-.13l1.25-1.25v.13zM80.93 30.79l-1.12-1.11h-.13l1.25 1.25v-.14zM16.54 53.8l1.11 1.12h.14l-1.25-1.25v.13zM16.29 33.34l.91-.92.09.1-1 1v-.18zM81.18 51.26l-.91.91-.1-.09 1.01-1.01v.19zM81.18 33.34l-.91-.92-.1.1 1.01 1v-.18zM16.29 51.26l.91.91.09-.09-1-1.01v.19zM15.08 35.03l1.67-1.67.07.06-1.74 1.74v-.13zM82.39 49.57l-1.67 1.67-.07-.07 1.74-1.73v.13zM82.39 35.03l-1.67-1.67-.07.06 1.74 1.74v-.13zM15.08 49.57l1.67 1.67.07-.07-1.74-1.73v.13z"/><path class="cls-1" d="M17.2 32.42v-.65l.09-.09v.84l-.09-.1zM80.27 52.17v.65l-.1.09v-.83l.1.09zM80.27 32.42v-.65l-.1-.09v.84l.1-.1zM17.2 52.17v.65l.09.09v-.83l-.09.09zM16.75 33.36v-.45l.07-.07v.58l-.07-.06zM80.72 51.24v.45l-.07.06v-.58l.07.07zM80.72 33.36v-.45l-.07-.07v.58l.07-.06zM16.75 51.24v.45l.07.06v-.58l-.07.07zM14.57 35l1.45-1.45.02.03-1.47 1.47V35zM82.9 49.6l-1.45 1.44-.03-.02 1.48-1.48v.06zM82.9 35l-1.45-1.45-.03.03 1.48 1.47V35zM14.57 49.6l1.45 1.44.02-.02-1.47-1.48v.06z"/><path class="cls-1" d="M16.02 33.55v-.18l.02-.03v.24l-.02-.03zM81.45 51.04v.18l-.03.03v-.23l.03.02zM81.45 33.55v-.18l-.03-.03v.24l.03-.03zM16.02 51.04v.18l.02.03v-.23l-.02.02zM15.38 34.42l.37-.37-.03-.02-.4.39h.06zM82.09 50.17l-.37.37.03.03.39-.4h-.05zM82.09 34.42l-.37-.37.03-.02.39.39h-.05zM15.38 50.17l.37.37-.03.03-.4-.4h.06zM15.75 34.05h.35l.03-.02h-.41l.03.02z"/><path class="cls-1" d="M81.72 50.54h-.35l-.03.03h.41l-.03-.03zM81.72 34.05h-.35l-.03-.02h.41l-.03.02zM15.75 50.54h.35l.03.03h-.41l.03-.03zM15.1 34.88l.23-.22-.02-.02-.24.24h.03zM82.37 49.71l-.23.23.02.01.24-.24h-.03zM82.37 34.88l-.23-.22.02-.02.24.24h-.03zM15.1 49.71l.23.23-.02.01-.24-.24h.03zM15.33 34.66h.12l.02-.02h-.16l.02.02z"/><path class="cls-1" d="M82.14 49.94h-.12l-.02.01h.16l-.02-.01zM82.14 34.66h-.12l-.02-.02h.16l-.02.02zM15.33 49.94h.12l.02.01h-.16l.02-.01zM15.45 33.96l1.18-1.18-.05-.04-1.22 1.22h.09zM82.02 50.63l-1.18 1.18.05.05 1.22-1.23h-.09zM82.02 33.96l-1.18-1.18.05-.04 1.22 1.22h-.09zM15.45 50.63l1.18 1.18-.05.05-1.22-1.23h.09zM16.63 32.78h.3l.05-.04h-.4l.05.04z"/><path class="cls-1" d="M80.84 51.81h-.31l-.04.05h.4l-.05-.05zM80.84 32.78h-.31l-.04-.04h.4l-.05.04zM16.63 51.81h.3l.05.05h-.4l.05-.05zM18.72 30.08v-1.12l.15-.15.01 1.42-.16-.15zM78.74 54.51l.01 1.12-.16.15v-1.42l.15.15zM78.74 30.08l.01-1.12-.16-.15v1.42l.15-.15zM18.72 54.51v1.12l.15.15.01-1.42-.16.15zM19.04 29.76v-1.11l.15-.16v1.42l-.15-.15zM78.43 54.83v1.12l-.16.15v-1.42l.16.15zM78.43 29.76v-1.11l-.16-.16v1.42l.16-.15zM19.04 54.83v1.12l.15.15v-1.42l-.15.15zM19.36 29.44v-1.11l.15-.16v1.42l-.15-.15zM78.11 55.15v1.12l-.16.15V55l.16.15zM78.11 29.44v-1.11l-.16-.16v1.42l.16-.15zM19.36 55.15v1.12l.15.15V55l-.15.15zM19.68 29.12v-1.11l.15-.16v1.43l-.15-.16zM77.79 55.47v1.12l-.15.15v-1.42l.15.15zM77.79 29.12v-1.11l-.15-.16v1.43l.15-.16zM19.68 55.47v1.12l.15.15v-1.42l-.15.15zM20 28.8v-1.11l.15-.15v1.42L20 28.8zM77.47 55.79v1.12l-.15.15v-1.42l.15.15zM77.47 28.8v-1.11l-.15-.15v1.42l.15-.16zM20 55.79v1.12l.15.15v-1.42l-.15.15zM42.87 10.29v-.66l.16-.16v.67l-.16.15zM54.6 74.3l-.01.67-.15.15v-.67l.16-.15zM54.6 10.29l-.01-.66-.15-.16v.67l.16.15zM42.87 74.3v.67l.16.15v-.67l-.16-.15zM43.27 9.9v-.67l.15-.16v.67l-.15.16zM54.2 74.7v.66l-.16.16v-.67l.16-.15zM54.2 9.9v-.67l-.16-.16v.67l.16.16zM43.27 74.7v.66l.15.16v-.67l-.15-.15zM29.23 19.28h.67l-.54.53h-.66l.53-.53zM68.24 65.31h-.67l.54-.53h.66l-.53.53zM68.24 19.28h-.67l.54.53h.66l-.53-.53zM29.23 65.31h.67l-.54-.53h-.66l.53.53zM43.67 9.5v-.67l.15-.15v.66l-.15.16zM53.8 75.09v.67l-.16.16.01-.67.15-.16zM53.8 9.5v-.67l-.16-.15.01.66.15.16zM43.67 75.09v.67l.15.16v-.67l-.15-.16zM44.06 9.1v-.66l.16-.16v.67l-.16.15zM53.4 75.49v.67l-.15.15v-.67l.15-.15zM53.4 9.1v-.66l-.15-.16v.67l.15.15zM44.06 75.49v.67l.16.15v-.67l-.16-.15zM44.46 8.71v-.67l.16-.16v.67l-.16.16zM53.01 75.89v.67l-.16.15v-.67l.16-.15zM53.01 8.71v-.67l-.16-.16v.67l.16.16zM44.46 75.89v.67l.16.15v-.67l-.16-.15zM44.86 8.31v-.67l.16-.15v.66l-.16.16zM52.61 76.29v.66l-.16.16v-.67l.16-.15zM52.61 8.31v-.67l-.16-.15v.66l.16.16zM44.86 76.29v.66l.16.16v-.67l-.16-.15zM31.5 35.81l-.49-.5.05-.05.49.49-.05.06z"/><path class="cls-1" transform="rotate(-44.89 66.181 49.06)" d="M66.15 48.71h.08v.7h-.08z"/><path class="cls-1" d="M65.97 35.81l.49-.5-.05-.05-.5.49.06.06zM31.5 48.79l-.49.49.05.06.49-.5-.05-.05zM30.86 25.94v-.21h.22v.21h-.22z"/><path class="cls-1" transform="rotate(-.26 68.18 59.654)" d="M66.39 58.65h.22v.22h-.22z"/><path class="cls-1" transform="rotate(-89.74 66.495 25.833)" d="M66.39 25.73h.22v.22h-.22z"/><path class="cls-1" d="M30.86 58.65v.22h.22v-.22h-.22zM31.3 25.73h.22v.22h-.22zM65.96 58.65h.22v.22h-.22zM65.96 25.73h.22v.22h-.22zM31.3 58.65h.22v.22h-.22zM31.73 25.73h.22v.22h-.22zM65.52 58.65h.22v.22h-.22zM65.52 25.73h.22v.22h-.22zM31.73 58.65h.22v.22h-.22zM32.16 25.73h.22v.22h-.22zM65.09 58.65h.22v.22h-.22zM65.09 25.73h.22v.22h-.22zM32.16 58.65h.22v.22h-.22zM32.6 25.94v-.21h.21v.21h-.21zM64.87 58.65v.22h-.21l-.01-.22h.22zM64.87 25.94v-.21h-.21l-.01.21h.22zM32.6 58.65v.22h.21v-.22h-.21zM33.03 25.73h.22v.22h-.22zM64.22 58.65h.22v.22h-.22zM64.22 25.73h.22v.22h-.22zM33.03 58.65h.22v.22h-.22zM33.46 25.73h.22v.22h-.22zM64 58.65v.22h-.21v-.22H64zM63.79 25.73h.22v.22h-.22zM33.46 58.65v.22h.22v-.22h-.22zM33.9 25.94v-.21h.21v.21h-.21z"/><path class="cls-1" transform="rotate(-89.74 63.457 58.76)" d="M63.36 58.65h.22v.22h-.22z"/><path class="cls-1" transform="rotate(-.26 63.847 26.59)" d="M63.36 25.73h.22v.22h-.22z"/><path class="cls-1" d="M33.9 58.65v.22h.21v-.22h-.21zM34.33 25.73h.22v.22h-.22zM62.92 58.65h.22v.22h-.22zM62.92 25.73h.22v.22h-.22zM34.33 58.65h.22v.22h-.22zM34.76 25.94v-.21h.22v.21h-.22zM62.7 58.65l.01.22h-.22v-.22h.21zM62.7 25.94l.01-.21h-.22v.21h.21zM34.76 58.65v.22h.22v-.22h-.22zM31.31 36l-.49-.5.05-.05.49.49-.05.06zM66.16 48.6l.49.49-.05.06-.5-.5.06-.05zM66.16 36l.49-.5-.05-.05-.5.49.06.06zM31.31 48.6l-.49.49.05.06.49-.5-.05-.05zM31.12 36.18l-.49-.49.05-.05.5.49-.06.05z"/><path class="cls-1" transform="rotate(-44.99 66.573 48.687)" d="M66.53 48.34h.08v.7h-.08z"/><path class="cls-1" transform="rotate(-44.97 66.565 35.914)" d="M66.22 35.87h.7v.08h-.7z"/><path class="cls-1" d="M31.12 48.41l-.49.49.05.06.5-.49-.06-.06zM25.14 33.8v2.62l-.31-.3v-2.63l.31.31zM72.33 50.79v-2.62l.31.31v2.62l-.31-.31zM72.33 33.8v2.62l.31-.3v-2.63l-.31.31zM25.14 50.79v-2.62l-.31.31v2.62l.31-.31zM25.41 34.18v1.18l-.14-.14v-1.18l.14.14zM72.06 50.41v-1.18l.13.14v1.18l-.13-.14zM72.06 34.18v1.18l.13-.14v-1.18l-.13.14zM25.41 50.41v-1.18l-.14.14v1.18l.14-.14zM24.23 34.24h.42l.07-.17h-.67l.18.17zM73.24 50.35h-.42l-.07.18h.67l-.18-.18zM73.24 34.24h-.42l-.07-.17h.67l-.18.17zM24.23 50.35h.42l.07.18h-.67l.18-.18z"/><path class="cls-1" d="M24.58 34.2v1.18l.14-.14v-1.18l-.14.14zM72.88 50.39v-1.18l-.13.14v1.18l.13-.14zM72.88 34.2v1.18l-.13-.14v-1.18l.13.14zM24.58 50.39v-1.18l.14.14v1.18l-.14-.14zM18.97 33.85h4.55l-.14-.14h-4.55l.14.14zM78.5 50.75h-4.56l.14.13h4.56l-.14-.13zM78.5 33.85h-4.56l.14-.14h4.56l-.14.14zM18.97 50.75h4.55l-.14.13h-4.55l.14-.13z"/><path class="cls-1" d="M17.45 35.5l1.8-1.79h-.42l-1.8 1.79h.42zM80.02 49.09l-1.8 1.79h.42l1.8-1.79h-.42zM80.02 35.5l-1.8-1.79h.42l1.8 1.79h-.42zM17.45 49.09l1.8 1.79h-.42l-1.8-1.79h.42zM16.12 35.63l.56-.56-.13-.01-.56.57h.13zM81.35 48.97l-.56.56h.13l.56-.56h-.13zM81.35 35.63l-.56-.56.13-.01.56.57h-.13zM16.12 48.97l.56.56h-.13l-.56-.56h.13zM23.72 30l1.31-1.31h-.13L23.59 30h.13zM73.75 54.59l-1.31 1.32h.13l1.31-1.32h-.13zM73.75 30l-1.31-1.31h.13L73.88 30h-.13zM23.72 54.59l1.31 1.32h-.13l-1.31-1.32h.13zM23.58 29.92l.73-.73h-.07l-.73.73h.07zM73.89 54.67l-.73.74h.07l.73-.74h-.07zM73.89 29.92l-.73-.73h.07l.73.73h-.07zM23.58 54.67l.73.74h-.07l-.73-.74h.07zM38.32 15.32l.24.25-.08.41-.14.13.08-.4-.24-.25-.41.08.14-.14.41-.08zM59.15 69.27l-.25-.24.09-.41.14-.14-.09.41.25.24.41-.08-.14.14-.41.08zM59.15 15.32l-.25.25.09.41.14.13-.09-.4.25-.25.41.08-.14-.14-.41-.08zM38.32 69.27l.24-.24-.08-.41-.14-.14.08.41-.24.24-.41-.08.14.14.41.08zM37.83 15.81l.25.25-.09.4-.14.15.09-.42-.25-.24-.41.08.14-.14.41-.08zM59.64 68.78l-.25-.24.09-.41.13-.14-.08.41.25.24.41-.08-.14.14-.41.08zM59.64 15.81l-.25.25.09.4.13.15-.08-.42.25-.24.41.08-.14-.14-.41-.08zM37.83 68.78l.25-.24-.09-.41-.14-.14.09.41-.25.24-.41-.08.14.14.41.08zM37.34 16.3l.25.25-.08.4-.14.14.08-.41-.25-.24-.41.08.14-.14.41-.08zM60.13 68.3l-.25-.25.08-.41.14-.14-.08.41.25.25.4-.09-.14.14-.4.09zM60.13 16.3l-.25.25.08.4.14.14-.08-.41.25-.24.4.08-.14-.14-.4-.08zM37.34 68.3l.25-.25-.08-.41-.14-.14.08.41-.25.25-.41-.09.14.14.41.09zM92.59 40.39a.49.49 0 01-1 0 .49.49 0 011 0zm-.72 0a.23.23 0 00.23.23.23.23 0 00.24-.23.24.24 0 10-.47 0zM92.59 42.36a.49.49 0 11-.49-.48.49.49 0 01.49.48zm-.72 0a.24.24 0 10.23-.24.23.23 0 00-.23.24zM92.89 42.24h2.13v.24h-2.13zM92.59 44.34a.49.49 0 01-1 0 .49.49 0 011 0zm-.72 0a.24.24 0 10.23-.24.23.23 0 00-.23.24zM91 23.14a.22.22 0 00.21.21.21.21 0 00.2-.21.2.2 0 00-.2-.2.21.21 0 00-.21.2zM91 61.58a.21.21 0 01.21-.2.2.2 0 01.2.2.2.2 0 01-.2.21.21.21 0 01-.21-.21zM90.93 34.57h.48v2.87h-.48zM90.93 24.5h.48V29h-.48zM90.93 55.6h.48v4.5h-.48z"/><path class="cls-2" d="M90.93 46.09h.48v2.87h-.48z"/><path class="cls-1" d="M91.02 60.92V43.24l.81-.81.21.2-.73.73v17.56h-.29zM91.83 42.3l-.81-.82v-17.8h.29v17.69l.73.72-.21.21zM3.21 40.71a.45.45 0 11-.45.45.46.46 0 01.45-.45zm0 .23a.22.22 0 100 .44.22.22 0 100-.44zM3.21 42.56a.45.45 0 11-.45.45.46.46 0 01.45-.45zm0 .23a.22.22 0 100 .44.22.22 0 100-.44zM0 42.9h1.99v.23H0zM3.21 44.41a.45.45 0 11-.45.45.46.46 0 01.45-.45zm0 .23a.22.22 0 00-.22.22.22.22 0 00.22.22.22.22 0 00.23-.22.22.22 0 00-.23-.22zM4.28 25a.19.19 0 01-.19.19.2.2 0 01-.19-.19.19.19 0 01.19-.19.18.18 0 01.19.19zM4.28 61a.19.19 0 00-.19-.2.2.2 0 00-.19.2.2.2 0 00.19.19.19.19 0 00.19-.19zM3.87 35.71h.45v2.69h-.45zM3.87 26.28h.45v4.22h-.45zM3.87 55.41h.45v4.22h-.45z"/><path class="cls-2" d="M3.87 46.5h.45v2.69h-.45z"/><path class="cls-1" d="M4.24 60.39h-.29V43.95l-.68-.68.2-.2.77.76v16.56zM3.47 42.96l-.2-.21.68-.67V25.51h.29v16.68l-.77.77zM12.27 42.18h1.99v.23h-1.99zM83.21 42.18h1.99v.23h-1.99z"/><path class="cls-1" d="M4.17 28.22l-.1-.1 9.24-9.23H31.2v.14H13.37l-9.2 9.19z"/><path class="cls-1" d="M22.4 20.49H11.88v-.15h10.46l1.44-1.43.1.1-1.48 1.48zM31.2 65.7H13.31l-9.24-9.23.1-.1 9.2 9.19H31.2v.14z"/><path class="cls-1" d="M18.31 65.63h-.14v-3.92l-14.1-14.1.1-.1 14.14 14.14v3.98z"/><path class="cls-1" d="M32.05 66.71H20.62L9.33 55.42v-2.58h.14v2.52l11.21 11.21h11.37v.14zM84.16 65.7H66.27v-.14H84.1l7.02-7.01.1.1-7.06 7.05z"/><path class="cls-1" d="M67.58 64.09H85.6v.14H67.58zM74.11 67.13H65v-.14h9.05l1.41-1.41.1.1-1.45 1.45zM91.12 26.05l-7.02-7.02H66.27v-.14h17.89l7.06 7.05-.1.11z"/><path class="cls-1" d="M91.12 29.06l-6.79-6.78h-5.9l-5.91-5.92H64.8v-.14h7.78l5.91 5.91h5.9l6.83 6.83-.1.1z"/><path class="cls-1" transform="rotate(-44.97 86.38 22.707)" d="M85.31 22.64h2.13v.14h-2.13z"/></g></g></svg>