<svg xmlns="http://www.w3.org/2000/svg" viewBox="0 0 388.34 388.34"><defs><style>.cls-2{fill:#5fffe8}</style></defs><g id="图层_2" data-name="图层 2"><g opacity=".8" id="央铋_1" data-name="央铋 1"><path class="cls-2" transform="rotate(-1.82 186.643 24.375)" d="M185.53 16.3h3.12v16.2h-3.12z"/><path class="cls-2" d="M172 34.12l-3.09.43-2.22-16.05 3.1-.43L172 34.12z"/><path class="cls-2" transform="rotate(-13.83 151.934 30.056)" d="M150.34 21.97h3.12v16.19h-3.12z"/><path class="cls-2" transform="rotate(-19.85 134.949 35.629)" d="M133.39 27.53h3.12v16.2h-3.12z"/><path class="cls-2" transform="rotate(-25.86 118.645 42.943)" d="M117.11 34.84h3.12v16.19h-3.12z"/><path class="cls-2" transform="rotate(-31.83 103.232 51.904)" d="M101.68 43.81h3.12V60h-3.12z"/><path class="cls-2" transform="rotate(-37.79 88.838 62.426)" d="M87.27 54.33h3.12v16.2h-3.12z"/><path class="cls-2" transform="rotate(-43.8 75.604 74.4)" d="M74.05 66.31h3.12V82.5h-3.12z"/><path class="cls-2" d="M70.9 91.73l-2.01 2.38-12.38-10.43 2.01-2.4L70.9 91.73z"/><path class="cls-2" transform="rotate(-55.83 53.252 102.158)" d="M51.7 94.07h3.12v16.2H51.7z"/><path class="cls-2" transform="rotate(-61.8 44.386 117.646)" d="M42.82 109.55h3.12v16.19h-3.12z"/><path class="cls-2" d="M45.26 135.58l-1.18 2.88-15-6.1 1.17-2.9 15.01 6.12z"/><path class="cls-2" transform="rotate(-73.79 31.692 150.946)" d="M30.14 142.86h3.12v16.19h-3.12z"/><path class="cls-2" d="M36.29 168.31l-.55 3.07-15.94-2.85.54-3.08 15.95 2.86zM34.41 185.19l-.22 3.11-16.15-1.16.22-3.12 16.15 1.17z"/><path class="cls-2" transform="rotate(-1.87 26.388 204.526)" d="M18.18 202.45h16.19v3.12H18.18z"/><path class="cls-2" d="M36 219.1l.42 3.09-16.04 2.22-.42-3.1L36 219.1z"/><path class="cls-2" transform="rotate(-13.83 31.948 239.147)" d="M23.85 237.63h16.19v3.13H23.85z"/><path class="cls-2" d="M44.6 251.93l1.06 2.93-15.23 5.51-1.07-2.95 15.24-5.49zM51.42 267.49l1.36 2.81-14.57 7.06-1.37-2.81 14.58-7.06zM59.83 282.26l1.65 2.65-13.75 8.54-1.66-2.65 13.76-8.54zM69.75 296.06l1.91 2.46-12.78 9.95-1.93-2.47 12.8-9.94zM81.05 308.76l2.16 2.24-11.68 11.23-2.17-2.26 11.69-11.21zM93.61 320.2l2.39 2.01-10.44 12.38-2.4-2.02 10.45-12.37zM107.31 330.26l2.57 1.75-9.08 13.4-2.59-1.74 9.1-13.41zM121.97 338.84l2.75 1.47-7.64 14.28-2.76-1.47 7.65-14.28z"/><path class="cls-2" transform="rotate(-67.83 135.835 353.923)" d="M127.75 352.37h16.19v3.12h-16.19z"/><path class="cls-2" d="M153.59 351.19l2.99.86-4.5 15.56-3-.87 4.51-15.55zM170.19 354.81l3.07.55-2.86 15.94-3.07-.55 2.86-15.94zM187.08 356.68l3.11.22-1.17 16.16-3.12-.23 1.18-16.15z"/><path class="cls-2" transform="rotate(-1.83 205.857 364.97)" d="M204.33 356.72h3.12v16.2h-3.12z"/><path class="cls-2" d="M220.98 355.09l3.09-.42 2.21 16.04-3.1.43-2.2-16.05zM237.62 351.65l3.03-.74 3.88 15.72-3.04.76-3.87-15.74zM253.81 346.5l2.93-1.07 5.5 15.24-2.93 1.07-5.5-15.24zM269.37 339.67l2.81-1.36 7.07 14.57-2.82 1.37-7.06-14.58zM284.14 331.26l2.65-1.64 8.54 13.75-2.66 1.65-8.53-13.76zM297.94 321.35l2.46-1.92 9.94 12.79-2.46 1.92-9.94-12.79zM310.63 310.05l2.25-2.16 11.22 11.68-2.25 2.17-11.22-11.69z"/><path class="cls-2" transform="rotate(-49.9 329.27 301.52)" d="M327.71 293.42h3.12v16.2h-3.12z"/><path class="cls-2" d="M332.14 283.79l1.75-2.57 13.41 9.08-1.76 2.59-13.4-9.1zM340.72 269.12l1.47-2.74 14.28 7.64-1.47 2.76-14.28-7.66zM347.72 253.64l1.17-2.88 15 6.1-1.17 2.89-15-6.11zM353.06 237.51l.87-2.99 15.55 4.5-.86 3-15.56-4.51zM356.68 220.91l.56-3.07 15.93 2.85-.54 3.08-15.95-2.86zM358.56 204.02l.23-3.11 16.14 1.17-.21 3.12-16.16-1.18zM358.65 187.03l-.09-3.12 16.18-.52.11 3.12-16.2.52zM356.98 170.12l-.43-3.09 16.04-2.22.43 3.11-16.04 2.2zM353.54 153.48l-.75-3.03 15.72-3.88.75 3.04-15.72 3.87zM348.37 137.29l-1.05-2.94 15.23-5.49 1.07 2.93-15.25 5.5zM341.55 121.72l-1.36-2.8 14.57-7.06 1.38 2.81-14.59 7.05zM333.14 106.96l-1.64-2.65 13.75-8.55 1.66 2.66-13.77 8.54zM323.23 93.16l-1.91-2.46 12.78-9.94 1.92 2.46-12.79 9.94zM311.93 80.47l-2.16-2.25L321.45 67l2.17 2.25-11.69 11.22zM299.37 69.03l-2.38-2.01 10.43-12.38 2.39 2.01-10.44 12.38zM285.68 58.96l-2.58-1.75 9.09-13.4 2.58 1.74-9.09 13.41zM271 50.38l-2.74-1.47 7.63-14.28 2.77 1.47L271 50.38zM255.52 43.38l-2.88-1.17 6.1-15.01 2.9 1.18-6.12 15zM239.39 38.04l-2.99-.87 4.5-15.55 3 .86-4.51 15.56zM222.79 34.41l-3.07-.55 2.85-15.94 3.08.55-2.86 15.94zM205.9 32.55l-3.1-.23 1.16-16.15 3.12.21-1.18 16.17zM191.08 0h3.1v32.17h-3.1z"/><path class="cls-2" transform="rotate(-5.99 174.077 17.253)" d="M172.47 1.14h3.1V33.3h-3.1z"/><path class="cls-2" transform="rotate(-11.94 155.598 20.283)" d="M154.09 4.21h3.1v32.17h-3.1z"/><path class="cls-2" transform="rotate(-18 137.641 25.263)" d="M136.12 9.2h3.1v32.16h-3.1z"/><path class="cls-2" d="M128.29 46.17l-2.84 1.26-13.08-29.38 2.83-1.26 13.09 29.38z"/><path class="cls-2" transform="rotate(-30.01 103.773 40.712)" d="M102.24 24.63h3.1V56.8h-3.1z"/><path class="cls-2" transform="rotate(-35.99 88.24 51.006)" d="M86.69 34.92h3.1v32.17h-3.1z"/><path class="cls-2" transform="rotate(-42.07 73.863 62.866)" d="M72.31 46.78h3.1v32.17h-3.1z"/><path class="cls-2" transform="rotate(-48 61.028 76.513)" d="M59.25 60.07h3.1v32.17h-3.1z"/><path class="cls-2" d="M63.11 98.95l-1.82 2.5-26.02-18.91 1.82-2.5 26.02 18.91z"/><path class="cls-2" transform="rotate(-60.05 39.161 106.456)" d="M37.62 90.38h3.1v32.17h-3.1z"/><path class="cls-2" transform="rotate(-65.91 30.848 123.142)" d="M29.3 107.06h3.1v32.17h-3.1z"/><path class="cls-2" transform="rotate(-71.94 24.327 140.613)" d="M22.77 124.52h3.1v32.17h-3.1z"/><path class="cls-2" d="M35.71 160.48l-.65 3.03-31.46-6.69.64-3.02 31.47 6.68zM33.06 177.22l-.33 3.09-31.99-3.36.32-3.08 32 3.35z"/><path class="cls-2" transform="rotate(-89.94 16.076 195.71)" d="M14.54 179.63h3.1v32.17h-3.1z"/><path class="cls-2" transform="rotate(-5.98 17.215 214.373)" d="M1.14 212.77h32.17v3.1H1.14z"/><path class="cls-2" transform="rotate(-11.94 20.324 232.734)" d="M4.21 231.16h32.17v3.09H4.21z"/><path class="cls-2" transform="rotate(-18 25.27 250.72)" d="M9.19 249.12h32.17v3.1H9.19z"/><path class="cls-2" d="M46.17 260.05l1.26 2.84-29.39 13.08-1.25-2.83 29.38-13.09zM53.87 275.16l1.54 2.69-27.85 16.09-1.55-2.69 27.86-16.09z"/><path class="cls-2" transform="rotate(-35.96 50.978 300.066)" d="M34.92 298.55h32.17v3.1H34.92z"/><path class="cls-2" transform="rotate(-41.94 62.85 314.474)" d="M46.77 312.93h32.17v3.1H46.77z"/><path class="cls-2" d="M85.77 314.55l2.29 2.08-21.52 23.91-2.3-2.08 21.53-23.91z"/><path class="cls-2" transform="rotate(-53.85 90.741 339.16)" d="M74.66 337.61h32.17v3.1H74.66z"/><path class="cls-2" d="M113.16 334.46l2.68 1.56-16.07 27.86-2.69-1.56 16.08-27.86z"/><path class="cls-2" transform="rotate(-65.86 123.162 357.507)" d="M107.06 355.94h32.17v3.1h-32.17z"/><path class="cls-2" d="M144.1 348.24l2.94.96-9.93 30.6-2.95-.97 9.94-30.59zM160.48 352.63l3.03.66-6.68 31.46-3.04-.66 6.69-31.46zM177.23 355.28l3.08.34-3.36 31.98-3.08-.33 3.36-31.99zM194.16 356.17l3.1.01.01 32.16h-3.1l-.01-32.17zM211.09 355.29l3.09-.32 3.36 31.99-3.08.31-3.37-31.98zM227.84 352.63l3.04-.63 6.69 31.46-3.04.64-6.69-31.47zM244.22 348.25l2.95-.95 9.95 30.58-2.96.95-9.94-30.58zM260.05 342.17l2.84-1.25 13.09 29.38-2.84 1.25-13.09-29.38zM275.17 334.47l2.68-1.53 16.09 27.85-2.69 1.54-16.08-27.86zM289.39 325.24l2.5-1.81 18.92 26.01-2.51 1.82-18.91-26.02zM302.56 314.57l2.31-2.07 21.53 23.9-2.31 2.07-21.53-23.9zM314.55 302.58l2.08-2.3 23.91 21.52-2.08 2.3-23.91-21.52zM325.22 289.4l1.83-2.5 26.03 18.9-1.83 2.51-26.03-18.91zM334.46 275.18l1.56-2.68 27.86 16.08-1.56 2.68-27.86-16.08zM342.16 260.07l1.27-2.82 29.38 13.07-1.26 2.83-29.39-13.08zM348.24 244.24l.96-2.94 30.6 9.93-.97 2.95-30.59-9.94zM352.63 227.86l.65-3.02 31.47 6.68-.66 3.03-31.46-6.69zM355.29 211.12l.33-3.08 31.98 3.35-.33 3.09-31.98-3.36zM356.17 194.18l.01-3.1h32.16v3.1h-32.17zM355.29 177.25l-.32-3.08 31.99-3.38.31 3.09-31.98 3.37zM352.63 160.5l-.63-3.03 31.46-6.7.63 3.04-31.46 6.69zM348.25 144.11l-.95-2.93 30.58-9.95.95 2.95-30.58 9.93zM342.17 128.29l-1.25-2.83 29.38-13.1 1.25 2.84-29.38 13.09z"/><path class="cls-2" transform="rotate(-29.96 347.684 103.785)" d="M331.55 102.24h32.16v3.1h-32.16z"/><path class="cls-2" d="M325.24 98.95l-1.81-2.5 26.01-18.92 1.82 2.51-26.02 18.91zM314.57 85.78l-2.07-2.3 23.89-21.54 2.08 2.31-23.9 21.53z"/><path class="cls-2" transform="rotate(-47.96 312.194 60.785)" d="M296.1 59.24h32.17v3.1H296.1z"/><path class="cls-2" d="M289.4 63.12l-2.5-1.83 18.89-26.03 2.51 1.83-18.9 26.03zM275.18 53.88l-2.68-1.55 16.07-27.87 2.68 1.56-16.07 27.86zM260.07 46.18l-2.82-1.26 13.06-29.39 2.84 1.27-13.08 29.38zM244.24 40.1l-2.94-.96 9.92-30.59 2.96.96-9.94 30.59zM227.86 35.71l-3.02-.65 6.67-31.46 3.04.65-6.69 31.46zM211.12 33.05l-3.08-.32L211.38.74l3.09.33-3.35 31.98z"/></g></g></svg>