<svg xmlns="http://www.w3.org/2000/svg" viewBox="0 0 488.91 265.19"><defs><style>.cls-2{fill:#fff;opacity:.6;mix-blend-mode:screen;fill-opacity:.09}.cls-79{fill:#fff2bd;opacity:.62;fill-opacity:.3}.cls-104{fill:#f2ba00;fill-opacity:.8}</style></defs><g style="isolation:isolate"><g id="图层_2" data-name="图层 2"><g id="Layer_1" data-name="Layer 1"><path class="cls-2" d="M157.7 50.03l50.1 9.15 4.54-13.88-54.64 4.73z"/><path class="cls-2" d="M200.98 37.93l11.36 7.37-24.15 22.46 12.79-29.83z"/><path class="cls-2" d="M145.91 53.58l11.79-3.55 54.64-4.73-66.43 8.28z"/><path style="mix-blend-mode:screen" fill-opacity=".11" fill="#fff" opacity=".6" d="M134.86 60.73l11.05-7.15 55.07-15.65-66.12 22.8z"/><path style="mix-blend-mode:screen" fill-opacity=".1" fill="#fff" opacity=".6" d="M142.05 34.74l.94 25.26-22.97-17.91 22.03-7.35z"/><path class="cls-2" d="M120.97 63.12l13.89-2.39 38.78-25.92-52.67 28.31z"/><path style="mix-blend-mode:screen" fill-opacity=".1" fill="#fff" opacity=".6" d="M120.02 42.09l76.07 6.67-10.19-2.72-65.88-3.95z"/><path style="mix-blend-mode:screen" fill-opacity=".16" fill="#fff" opacity=".6" d="M196.09 48.76l-7.06 15.26-63.43 30.13 70.49-45.39z"/><path class="cls-2" d="M117.03 59.41l7.11-2.65-4.8-16.73-2.31 19.38z"/><path style="mix-blend-mode:screen" fill-opacity=".32" fill="#fff" opacity=".6" d="M248.97 119.79l10.68 12.37-12.03-13.52 1.35 1.15z"/><path class="cls-2" d="M189.03 64.02l-13.99 11.37-34.72 34.31 48.71-45.68z"/><path style="mix-blend-mode:screen" fill-opacity=".11" fill="#fff" opacity=".6" d="M222.7 111.27l31.28 7.18-5.01 1.34-26.27-8.52z"/><path style="mix-blend-mode:screen" fill-opacity=".24" fill="#fff" opacity=".6" d="M37.84 73.2l24.37-20.42L91.82.51 37.84 73.2z"/><path style="mix-blend-mode:screen" fill-opacity=".28" fill="#fff" opacity=".6" d="M224.09 109.94l16.11 2.81.02-.38-16.13-2.43z"/><path style="mix-blend-mode:screen" fill-opacity=".17" fill="#fff" opacity=".6" d="M125.6 94.15l6.65 6.38-6.44 4.65-.21-11.03z"/><path style="mix-blend-mode:screen" fill-opacity=".09" fill="#fff" opacity=".6" d="M74.06 59.99l11.08-12.55 60.92 12.21-72 .34z"/><path class="cls-2" d="M175.04 75.39l-19.66 37.99-15.06-3.68 34.72-34.31z"/><path style="mix-blend-mode:screen" fill-opacity=".15" fill="#fff" opacity=".6" d="M62.21 52.78l47.78-40.01L91.82.51 62.21 52.78z"/><path style="mix-blend-mode:screen" fill-opacity=".14" fill="#fff" opacity=".6" d="M247.62 118.64l-23.09-26.76.1 5.76 22.99 21z"/><path style="mix-blend-mode:screen" fill-opacity=".21" fill="#fff" opacity=".6" d="M37.84 73.2L91.82.51l-7.79.32L37.84 73.2z"/><path style="mix-blend-mode:screen" fill-opacity=".17" fill="#fff" opacity=".6" d="M151.65 160.02l16.15 7.8 64.13-54.33-80.28 46.53z"/><path style="mix-blend-mode:screen" fill-opacity=".1" fill="#fff" opacity=".6" d="M97.34 85.18l28.47 20-12.69 11.56-15.78-31.56z"/><path style="mix-blend-mode:screen" fill-opacity=".16" fill="#fff" opacity=".6" d="M224.09 109.94l16.13 2.43-15.68 1.14-.45-3.57z"/><path style="mix-blend-mode:screen" fill-opacity=".18" fill="#fff" opacity=".6" d="M151.65 160.02l80.28-46.53-9.23-2.22-71.05 48.75z"/><path style="mix-blend-mode:screen" fill-opacity=".16" fill="#fff" opacity=".6" d="M40.6 51.74l61.56 6.39-12.63 11.29L40.6 51.74z"/><path class="cls-2" d="M113.12 116.74l12.69-11.56-.1 42.51-12.59-30.95zM201.01 117.14l21.69-5.87 26.27 8.52-47.96-2.65z"/><path style="mix-blend-mode:screen" fill-opacity=".12" fill="#fff" opacity=".6" d="M125.81 105.18l25.84 54.84-25.94-12.33.1-42.51z"/><path style="mix-blend-mode:screen" fill-opacity=".2" fill="#fff" opacity=".6" d="M21.72 36.85l25-10.47 77.42 30.38L21.72 36.85z"/><path class="cls-2" d="M214.61 109.57l10.02-11.93-3.42 60.17-6.6-48.24z"/><path style="mix-blend-mode:screen" fill-opacity=".13" fill="#fff" opacity=".6" d="M4.95 65.82l19.07-6.99-11.91-26.26-7.16 33.25z"/><path style="mix-blend-mode:screen" fill-opacity=".23" fill="#fff" opacity=".6" d="M12.11 32.57l104.92 26.84-34.68-2.89-70.24-23.95z"/><path style="mix-blend-mode:screen" fill-opacity=".15" fill="#fff" opacity=".6" d="M162.85 122.94l61.24-13-27.92-3.28-33.32 16.28z"/><path class="cls-2" d="M113.12 116.74l12.59 30.95-32.02-13.3 19.43-17.65z"/><path style="mix-blend-mode:screen" fill-opacity=".12" fill="#fff" opacity=".6" d="M224.22 230.23l55.41-32.32-16.71-19.4-38.7 51.72z"/><path style="mix-blend-mode:screen" fill-opacity=".11" fill="#fff" opacity=".6" d="M210.42 156.96l10.79.85-32.08-5.99 21.29 5.14z"/><path class="cls-2" d="M158.38 118.83l37.79-12.17-28.9 6.59-8.89 5.58z"/><path style="mix-blend-mode:screen" fill-opacity=".1" fill="#fff" opacity=".6" d="M265.54 204.03l-8.9 29.54-32.42-3.34 41.32-26.2z"/><path style="mix-blend-mode:screen" fill-opacity=".14" fill="#fff" opacity=".6" d="M97.15 125.9l-3.46 8.49-24.34-13.99 27.8 5.5z"/><path style="mix-blend-mode:screen" fill-opacity=".18" fill="#fff" opacity=".6" d="M210.42 156.96l-21.29-5.14 3.9-15.91 17.39 21.05z"/><path class="cls-2" d="M158.38 118.83l4.47 4.11 33.32-16.28-37.79 12.17z"/><path style="mix-blend-mode:screen" fill-opacity=".1" fill="#fff" opacity=".6" d="M243.09 180.66l24.5 18.67-2.05 4.7-22.45-23.37z"/><path style="mix-blend-mode:screen" fill-opacity=".16" fill="#fff" opacity=".6" d="M189.13 151.82l-7.04 14.87 84.72 14.98-77.68-29.85z"/><path style="mix-blend-mode:screen" fill-opacity=".22" fill="#fff" opacity=".6" d="M181.18 126.39l24.12-5.81-8.72 8.5-15.4-2.69z"/><path style="mix-blend-mode:screen" fill-opacity=".12" fill="#fff" opacity=".6" d="M207.91 219.1l-1.68 1.17 43.27-64.61-41.59 63.44z"/><path style="mix-blend-mode:screen" fill-opacity=".11" fill="#fff" opacity=".6" d="M193.03 135.91l-3.9 15.91 53.96 28.84-50.06-44.75z"/><path style="mix-blend-mode:screen" fill-opacity=".1" fill="#fff" opacity=".6" d="M191 157.41l17.69-38.85-2.74-4.87L191 157.41z"/><path style="mix-blend-mode:screen" fill-opacity=".14" fill="#fff" opacity=".6" d="M196.58 129.08l1.47 30.53-7.05-2.2 5.58-28.33z"/><path class="cls-2" d="M147.17 125.67l34.01.72-37.14-11.19 3.13 10.47zM225.72 180.11l17.37.55 22.45 23.37-39.82-23.92z"/><path style="mix-blend-mode:screen" fill-opacity=".13" fill="#fff" opacity=".6" d="M138.19 123.06l8.98 2.61-3.13-10.47-5.85 7.86z"/><path style="mix-blend-mode:screen" fill-opacity=".16" fill="#fff" opacity=".6" d="M181.18 126.39l15.4 2.69-16.28 15.46.88-18.15z"/><path class="cls-2" d="M86.26 153.21l40.36-16.81 20.55-10.73-60.91 27.54z"/><path style="mix-blend-mode:screen" fill-opacity=".17" fill="#fff" opacity=".6" d="M249.5 155.66l19.25 87.94-4.25 7.4-15-95.34z"/><path style="mix-blend-mode:screen" fill-opacity=".13" fill="#fff" opacity=".6" d="M204.64 205.45l3.27 13.65 34.42-71.01-37.69 57.36z"/><path style="mix-blend-mode:screen" fill-opacity=".16" fill="#fff" opacity=".6" d="M327.98 215.43l-86.26 29.27 6.19 1.33 80.07-30.6z"/><path style="mix-blend-mode:screen" fill-opacity=".12" fill="#fff" opacity=".6" d="M302.5 222.33l25.48-6.9-80.07 30.6 54.59-23.7z"/><path class="cls-2" d="M39.99 106.03l20.75-1.22-6.83 1.74-13.92-.52z"/><path style="mix-blend-mode:screen" fill-opacity=".23" fill="#fff" opacity=".6" d="M180.3 144.54l10.7 12.87-10.67-13.93-.03 1.06z"/><path class="cls-2" d="M313.38 188.84l9.04 12.19 23.19 50.32-32.23-62.51z"/><path style="mix-blend-mode:screen" fill-opacity=".13" fill="#fff" opacity=".6" d="M231.33 159.92l-23.42 59.18-3.27-13.65 26.69-45.53z"/><path style="mix-blend-mode:screen" fill-opacity=".1" fill="#fff" opacity=".6" d="M144.04 115.2l36.26 29.34-14.23.69-22.03-30.03z"/><path class="cls-2" d="M17.62 86.47l43.12 18.34-20.75 1.22-22.37-19.56z"/><path style="mix-blend-mode:screen" fill-opacity=".15" fill="#fff" opacity=".6" d="M36.86 103.62l49.4 49.59-31.69 6.76-17.71-56.35z"/><path class="cls-2" d="M247.91 246.03l-6.19-1.33 43.97-4.42-37.78 5.75z"/><path style="mix-blend-mode:screen" fill-opacity=".12" fill="#fff" opacity=".6" d="M158.67 120.09l21.66 23.39 7.78-10.37-29.44-13.02z"/><path style="mix-blend-mode:screen" fill-opacity=".16" fill="#fff" opacity=".6" d="M166.07 145.23l14.26-1.75-21.66-23.39 7.4 25.14z"/><path style="mix-blend-mode:screen" fill-opacity=".24" fill="#fff" opacity=".6" d="M232.43 139.38l2.58 96.56-15.82-19.63 13.24-76.93z"/><path style="mix-blend-mode:screen" fill-opacity=".11" fill="#fff" opacity=".6" d="M188.11 133.11l-26.62 20.19-36.65 10.07 63.27-30.26z"/><path style="mix-blend-mode:screen" fill-opacity=".12" fill="#fff" opacity=".6" d="M214.08 147.63l-9.44 57.82-17.33-29.61 26.77-28.21z"/><path class="cls-2" d="M272.12 235.55l30.38-13.22-54.52 16.47 24.14-3.25zM128.73 99.35l44.53 49.59-20.32.66-24.21-50.25z"/><path style="mix-blend-mode:screen" fill-opacity=".1" fill="#fff" opacity=".6" d="M169.99 135.57l-11.32-15.48-29.94-20.74 41.26 36.22z"/><path style="mix-blend-mode:screen" fill-opacity=".13" fill="#fff" opacity=".6" d="M187.31 175.84l61.99-38.07-.97-14.59-61.02 52.66z"/><path style="mix-blend-mode:screen" fill-opacity=".14" fill="#fff" opacity=".6" d="M379.15 238.47l-8.16.5-20.55-72.52 28.71 72.02z"/><path style="mix-blend-mode:screen" fill-opacity=".16" fill="#fff" opacity=".6" d="M197.51 166.04l34.92-26.66-13.24 76.93-21.68-50.27z"/><path style="mix-blend-mode:screen" fill-opacity=".11" fill="#fff" opacity=".6" d="M104.44 78.8l24.29 20.55 24.21 50.25-48.5-70.8z"/><path style="mix-blend-mode:screen" fill-opacity=".13" fill="#fff" opacity=".6" d="M104.44 78.8l48.5 70.8-32.1-2.54-16.4-68.26z"/><path style="mix-blend-mode:screen" fill-opacity=".11" fill="#fff" opacity=".6" d="M168.11 158.4l80.22-35.22-15.9 16.2-64.32 19.02z"/><path style="mix-blend-mode:screen" fill-opacity=".18" fill="#fff" opacity=".6" d="M276.69 252.9l4.88-9.99 67.61-22.96-72.49 32.95z"/><path style="mix-blend-mode:screen" fill-opacity=".1" fill="#fff" opacity=".6" d="M268.15 198l27.15-2.06-18.61 56.96-8.54-54.9z"/><path style="mix-blend-mode:screen" fill-opacity=".13" fill="#fff" opacity=".6" d="M375.29 228.64l-36.59-61.85-17.07-8.31 53.66 70.16z"/><path class="cls-2" d="M252.94 173.17l-6.97 13.27-50.12 23.77 57.09-37.04z"/><path style="mix-blend-mode:screen" fill-opacity=".16" fill="#fff" opacity=".6" d="M274.13 254.53l2.56-1.63 44.61-39.3-47.17 40.93z"/><path class="cls-2" d="M428.05 164.85l-41.84 67.84 1.12-14.78 40.72-53.06z"/><path style="mix-blend-mode:screen" fill-opacity=".23" fill="#fff" opacity=".6" d="M392.49 141.79l21.43 18.45 43.88-.08-65.31-18.37z"/><path style="mix-blend-mode:screen" fill-opacity=".15" fill="#fff" opacity=".6" d="M387.29 129.68l60.82 12.03-18.47-29.12-42.35 17.09z"/><path class="cls-2" d="M244.89 196.27l29.24 58.26-16.68-8.9-12.56-49.36z"/><path style="mix-blend-mode:screen" fill-opacity=".12" fill="#fff" opacity=".6" d="M179.77 234.28l40.99 7.37 25.21-55.21-66.2 47.84z"/><path style="mix-blend-mode:screen" fill-opacity=".14" fill="#fff" opacity=".6" d="M267.05 177.57l-14.11-4.4-79.06 20.93 93.17-16.53z"/><path class="cls-2" d="M383.35 199.56l3.98 18.35 5.16-76.12-9.14 57.77zM224.48 187.47l32.97 58.16-22.39-18.53-10.58-39.63z"/><path style="mix-blend-mode:screen" fill-opacity=".15" fill="#fff" opacity=".6" d="M274.13 254.53l47.17-40.93-19.48-11.31-27.69 52.24z"/><path class="cls-2" d="M224.48 187.47l20.41 8.8 12.56 49.36-32.97-58.16zM327.77 223.25l54.05-9.63-5.02-19.47-49.03 29.1z"/><path style="mix-blend-mode:screen" fill-opacity=".23" fill="#fff" opacity=".6" d="M296.36 142.29l11.54-1.36 34.83 67.63-46.37-66.27z"/><path class="cls-2" d="M384.18 124.03l45.46-11.44-7.2-19.05-38.26 30.49z"/><path style="mix-blend-mode:screen" fill-opacity=".11" fill="#fff" opacity=".6" d="M154.25 203.91l66.51 37.74-40.99-7.37-25.52-30.37z"/><path class="cls-2" d="M214.11 173.87l20.95 53.23-21.94-18.79.99-34.44z"/><path style="mix-blend-mode:screen" fill-opacity=".14" fill="#fff" opacity=".6" d="M181.39 170.59l-27.14 33.32-7.06-18.43 34.2-14.89z"/><path style="mix-blend-mode:screen" fill-opacity=".11" fill="#fff" opacity=".6" d="M321.3 213.6l-13.4-72.67-11.54 1.36 24.94 71.31z"/><path class="cls-2" d="M363.68 129.65l20.5-5.62 38.26-30.49-58.76 36.11z"/><path class="cls-2" d="M379.69 189.48l4.49-65.45-20.5 5.62 16.01 59.83zM301.82 202.29l-5.46-60-21.15.01 26.61 59.99z"/><path class="cls-2" d="M264.06 144.9l11.15-2.6 58.16 9.56-69.31-6.96z"/><path style="mix-blend-mode:screen" fill-opacity=".16" fill="#fff" opacity=".6" d="M330.73 145.73l32.95-16.08 56.44-46.74-89.39 62.82z"/><path style="mix-blend-mode:screen" fill-opacity=".24" fill="#fff" opacity=".6" d="M371.79 102.98l117.12 1.75-6.65-7.09-110.47 5.34z"/><path style="mix-blend-mode:screen" fill-opacity=".16" fill="#fff" opacity=".6" d="M213.12 208.31l68.17-11.69-12.64-1.5-55.53 13.19z"/><path style="mix-blend-mode:screen" fill-opacity=".14" fill="#fff" opacity=".6" d="M268.65 195.12l-6.27-34.63-10.24 16.86 16.51 17.77z"/><path style="mix-blend-mode:screen" fill-opacity=".24" fill="#fff" opacity=".6" d="M297.03 149.31l109.53-51.94-30.02 9.78-79.51 42.16z"/><path style="mix-blend-mode:screen" fill-opacity=".16" fill="#fff" opacity=".6" d="M282.37 148.68l94.17-41.53-29.75-9.75-64.42 51.28z"/><path class="cls-79" d="M188.27 68l26.26-8.89a.26.26 0 00.16-.34.27.27 0 00-.33-.17l-26.26 8.9a.28.28 0 00-.17.34.27.27 0 00.34.17z"/><path class="cls-79" d="M207.81 59.44l6.64-.31a.27.27 0 00.26-.28.26.26 0 00-.28-.25l-6.64.31a.27.27 0 00-.26.28.26.26 0 00.28.25z"/><path class="cls-79" d="M212.08 45.34l2.1 13.57a.27.27 0 00.3.22.27.27 0 00.23-.31l-2.1-13.57a.27.27 0 00-.31-.21.26.26 0 00-.22.3zM207.69 58.93l-19.61 8.58a.27.27 0 10.22.49l19.61-8.58a.27.27 0 00.13-.35.28.28 0 00-.35-.14z"/><path class="cls-79" d="M181.59 51.17l6.35 16.68a.26.26 0 00.35.15.27.27 0 00.15-.34L182.09 51a.26.26 0 00-.35-.15.25.25 0 00-.15.32z"/><path class="cls-79" d="M181.76 51.33l26 8.1a.27.27 0 00.33-.18.27.27 0 00-.17-.33l-26-8.1a.28.28 0 00-.34.18.27.27 0 00.18.33z"/><path class="cls-79" d="M212.09 45.21l-4.55 13.88a.27.27 0 00.18.34.25.25 0 00.33-.17l4.55-13.88a.27.27 0 10-.51-.17zM157.69 50.3l24.14 1a.26.26 0 00.27-.26.26.26 0 00-.25-.27l-24.14-1a.25.25 0 00-.27.26.26.26 0 00.25.27z"/><path class="cls-79" d="M181.65 50.88l-19.29 17.94a.27.27 0 10.36.39L182 51.27a.27.27 0 000-.38.28.28 0 00-.35-.01z"/><path class="cls-79" d="M157.44 50.1l4.84 19a.27.27 0 10.52-.13L158 50a.26.26 0 00-.33-.19.27.27 0 00-.23.29z"/><path class="cls-79" d="M146 53.83l11.79-3.54A.26.26 0 00158 50a.27.27 0 00-.33-.17l-11.78 3.54a.27.27 0 00-.18.34.27.27 0 00.29.12z"/><path class="cls-79" d="M157.89 49.84l-15.65-15.29a.27.27 0 10-.38.38l15.65 15.3a.27.27 0 00.38-.39z"/><path class="cls-79" d="M146.18 53.52l-3.87-18.83a.26.26 0 10-.52.1l3.86 18.84a.27.27 0 00.32.21.27.27 0 00.21-.32zM200.83 38.15l11.37 7.37a.27.27 0 10.29-.45l-11.36-7.36a.27.27 0 00-.3.44zM142.87 60.24l19.56 9a.27.27 0 00.35-.13.27.27 0 00-.13-.36l-19.55-9a.26.26 0 00-.36.13.27.27 0 00.13.36z"/><path class="cls-79" d="M135 61l11.06-7.16a.27.27 0 00-.29-.45l-11.06 7.16a.27.27 0 00.29.45z"/><path class="cls-79" d="M145.67 53.47l-2.93 6.42a.27.27 0 00.13.35.28.28 0 00.36-.13l2.93-6.42a.28.28 0 00-.14-.36.26.26 0 00-.35.14z"/><path class="cls-79" d="M141.78 34.75l.94 25.25a.26.26 0 00.28.25.26.26 0 00.25-.27l-.93-25.26a.27.27 0 00-.54 0z"/><path class="cls-79" d="M119.41 40.29l22.7-5.29a.27.27 0 00.19-.33.26.26 0 00-.31-.19l-22.71 5.29a.28.28 0 00-.2.32.27.27 0 00.33.2zM173.61 35.07L201 38.2a.27.27 0 00.06-.54l-27.34-3.12a.28.28 0 00-.3.24.27.27 0 00.19.29zM134.88 61l8.13-.73a.27.27 0 000-.54l-8.13.74a.27.27 0 000 .53z"/><path class="cls-79" d="M135.07 60.57l-15.51-20.7a.28.28 0 00-.38 0 .27.27 0 00-.05.36l15.51 20.7a.27.27 0 10.43-.32zM200.74 37.82l-4.9 10.82a.29.29 0 00.16.36.27.27 0 00.35-.13L201.22 38a.26.26 0 00-.14-.35.26.26 0 00-.34.17z"/><path class="cls-79" d="M200.85 37.69l-15.08 8.11a.27.27 0 00-.11.36.28.28 0 00.37.11l15.08-8.1a.27.27 0 10-.26-.48z"/><path class="cls-79" d="M173.45 35l12.27 11.24a.27.27 0 10.36-.4l-12.26-11.23a.27.27 0 00-.38 0 .27.27 0 00.01.39zM103.48 25.55l15.68 14.68a.27.27 0 00.38 0 .27.27 0 000-.37l-15.69-14.7a.27.27 0 00-.38 0 .26.26 0 00.01.39z"/><path class="cls-79" d="M108.23 47.07l11.25-6.81a.26.26 0 00.09-.37.26.26 0 00-.36-.08L108 46.61a.27.27 0 00-.08.37.26.26 0 00.31.09z"/><path class="cls-79" d="M89.53 31.11l29.74 9.18a.27.27 0 00.33-.18.25.25 0 00-.18-.33l-29.73-9.19a.27.27 0 00-.16.52z"/><path class="cls-79" d="M119.09 40.12l.67 2.05a.27.27 0 00.34.18.27.27 0 00.17-.34L119.6 40a.27.27 0 00-.51.17zM103.4 25.41l4.43 21.49a.27.27 0 00.32.2.26.26 0 00.2-.31l-4.43-21.49a.26.26 0 00-.31-.21.27.27 0 00-.21.32zM185.83 46.3L196 49a.26.26 0 00.14-.51L186 45.78a.27.27 0 00-.33.2.27.27 0 00.16.32z"/><path class="cls-79" d="M89.71 31.1l14.05-5.5a.26.26 0 00.14-.35.25.25 0 00-.33-.14L89.51 30.6a.27.27 0 00-.15.35.28.28 0 00.35.15z"/><path class="cls-79" d="M89.43 31.05l18.49 16a.27.27 0 00.35-.4l-18.48-16a.27.27 0 10-.36.4zM195.84 48.64l-7.06 15.27a.26.26 0 00.14.35.27.27 0 00.35-.13l7.06-15.26a.28.28 0 00-.13-.36.28.28 0 00-.36.13zM103.47 25.54l16.36 16.74a.27.27 0 00.38 0 .28.28 0 000-.38l-16.36-16.73a.26.26 0 00-.37 0 .27.27 0 00-.01.37z"/><path class="cls-79" d="M108.19 47.09l11.93-4.75a.27.27 0 00.15-.35.28.28 0 00-.35-.15L108 46.59a.28.28 0 00-.15.35.26.26 0 00.34.15zM185.63 46.08l3.13 18a.27.27 0 00.53-.09l-3.13-18a.27.27 0 00-.31-.22.28.28 0 00-.22.31z"/><path class="cls-79" d="M102.4 58.26L108.33 47a.28.28 0 00-.11-.37.29.29 0 00-.37.12L101.93 58a.27.27 0 10.47.25zM164.45 53.78L186 46.29a.27.27 0 00-.18-.5l-21.54 7.49a.26.26 0 00-.16.34.26.26 0 00.33.16zM62.38 53l27.4-21.93a.27.27 0 000-.38.27.27 0 00-.37 0L62 52.57a.27.27 0 000 .43.27.27 0 00.38 0z"/><path class="cls-79" d="M89.37 31l12.55 27.29a.27.27 0 00.35.13.27.27 0 00.14-.36L89.85 30.74a.26.26 0 10-.48.22zM121.23 63.11l-.94-21a.27.27 0 00-.54 0l1 21a.27.27 0 00.28.26.27.27 0 00.2-.26zM162.34 80.53L145 102.16a.27.27 0 10.42.34l17.3-21.64a.27.27 0 000-.38.26.26 0 00-.38.05z"/><path class="cls-79" d="M121 62.86l-18.8-5a.27.27 0 00-.32.2.26.26 0 00.18.32l18.81 5a.27.27 0 00.13-.52z"/><path class="cls-79" d="M102.34 58.33l17.86-16a.27.27 0 000-.38.28.28 0 00-.37 0L102 57.93a.27.27 0 10.36.4zM164.26 53.77l24.66 10.49a.26.26 0 00.35-.14.26.26 0 00-.14-.35l-24.66-10.49a.27.27 0 00-.35.15.26.26 0 00.14.34zM120.85 63.36l12.69 6.31a.28.28 0 00.36-.12.27.27 0 00-.13-.36l-12.69-6.31a.26.26 0 00-.35.12.26.26 0 00.12.36z"/><path class="cls-79" d="M62.18 53.05l39.95 5.35a.27.27 0 00.07-.53l-39.95-5.35a.26.26 0 00-.3.23.27.27 0 00.23.3zM188.86 63.81l-14 11.37a.26.26 0 000 .38.27.27 0 00.37 0l14-11.37a.26.26 0 000-.38.26.26 0 00-.37 0zM146.15 59.9l18.3-6.12a.26.26 0 00.16-.34.27.27 0 00-.33-.17L146 59.4a.25.25 0 00-.17.33.26.26 0 00.32.17z"/><path class="cls-79" d="M133.82 69.64l12.41-9.78a.28.28 0 000-.38.27.27 0 00-.37 0l-12.41 9.78a.27.27 0 00.33.42zM253.73 118.56l5.67 13.7a.27.27 0 00.35.13.26.26 0 00.14-.33l-5.66-13.71a.28.28 0 00-.36-.13.29.29 0 00-.14.34zM174.93 75.14l-12.49 5.31a.26.26 0 00-.14.35.27.27 0 00.35.14l12.49-5.31a.26.26 0 00.14-.35.27.27 0 00-.35-.14zM132.21 100.8l13 1.79a.26.26 0 00.3-.23.27.27 0 00-.22-.3l-13-1.79a.27.27 0 00-.07.53z"/><path class="cls-79" d="M164.12 53.65l10.67 21.86a.28.28 0 00.36.12.27.27 0 00.13-.36L164.6 53.41a.26.26 0 00-.36-.12.27.27 0 00-.12.36zM249 120.05l5-1.34a.26.26 0 00-.14-.51l-5 1.33a.27.27 0 00-.18.34.27.27 0 00.32.18zM136.81 30.77l-16.94 11.1a.27.27 0 00-.08.37.28.28 0 00.38.08l16.94-11.11a.27.27 0 00-.3-.44zM121 62.85l-1.83-.23a.27.27 0 00-.07.54l1.83.22a.26.26 0 00.3-.23.27.27 0 00-.23-.3z"/><path class="cls-79" d="M254 118.19l-6.36.18a.25.25 0 00-.23.29.27.27 0 00.25.24l6.36-.18a.26.26 0 00.26-.27.27.27 0 00-.28-.26zM125.85 105.44l19.44-2.85a.26.26 0 00.23-.3.28.28 0 00-.31-.23l-19.44 2.85a.27.27 0 00-.22.31.27.27 0 00.3.22zM136.7 31.07l9.11 28.66a.25.25 0 00.33.17.27.27 0 00.18-.33l-9.11-28.66a.27.27 0 00-.33-.18.28.28 0 00-.18.34zM38 73.41L62.38 53a.27.27 0 10-.34-.41L37.67 73a.27.27 0 000 .38.28.28 0 00.38 0zM119 63.13l14.52 6.54a.27.27 0 00.35-.13.28.28 0 00-.13-.36l-14.52-6.53a.26.26 0 00-.22.48zM99.81 36.64L120 42.35a.26.26 0 00.32-.19.27.27 0 00-.18-.33L100 36.12a.27.27 0 00-.33.19.27.27 0 00.14.33z"/><path class="cls-79" d="M240 113l8.78 7a.26.26 0 00.37 0 .26.26 0 000-.36l-8.78-7a.26.26 0 00-.37 0 .27.27 0 000 .36zM89.71 69.62l12.63-11.29a.27.27 0 10-.36-.4L89.35 69.22a.26.26 0 000 .37.28.28 0 00.36.03zM126 105.39l6.43-4.64a.27.27 0 10-.31-.43l-6.46 4.68a.27.27 0 00.31.43z"/><path class="cls-79" d="M249.15 119.59l-1.36-1.16a.27.27 0 00-.37 0 .28.28 0 000 .37l1.38 1.2a.28.28 0 00.38 0 .27.27 0 00-.03-.41zM124.1 57l21.9 2.92a.28.28 0 00.3-.24.28.28 0 00-.23-.3l-21.93-2.89a.27.27 0 10-.07.53z"/><path class="cls-79" d="M123.92 56.92l9.52 12.67a.27.27 0 00.38 0 .27.27 0 00.05-.37l-9.52-12.68a.27.27 0 00-.43.33zM240 113l7.42 5.88a.27.27 0 10.33-.42l-7.42-5.88a.27.27 0 00-.33.42z"/><path class="cls-79" d="M232 113.76l8.27-.74a.27.27 0 00.23-.3.28.28 0 00-.28-.24l-8.26.74a.27.27 0 00-.23.31.26.26 0 00.27.23z"/><path class="cls-79" d="M231.85 113.74l15.68 5.15a.27.27 0 00.34-.18.27.27 0 00-.17-.33l-15.7-5.15a.27.27 0 00-.33.18.26.26 0 00.18.33z"/><path class="cls-79" d="M249.15 119.59l-8.75-7.42a.26.26 0 00-.38 0 .27.27 0 000 .38l8.78 7.45a.28.28 0 00.38 0 .27.27 0 00-.03-.41z"/><path class="cls-79" d="M240.46 112.77v-.38a.27.27 0 00-.25-.29.26.26 0 00-.28.25v.38a.26.26 0 00.26.28.26.26 0 00.27-.24z"/><path class="cls-79" d="M240.05 112.58l7.39 6.26a.28.28 0 00.38 0 .27.27 0 000-.38l-7.39-6.26a.26.26 0 00-.38 0 .27.27 0 000 .38z"/><path d="M62.07 53l11.85 7.21a.26.26 0 00.37-.09.28.28 0 00-.09-.37l-11.85-7.2a.27.27 0 10-.28.46z" fill-opacity=".28" fill="#fff2bd" opacity=".62"/><path class="cls-79" d="M232 113.75l8.3-1.11a.27.27 0 00.23-.31.28.28 0 00-.3-.23l-8.3 1.12a.27.27 0 00-.21.32.25.25 0 00.28.21zM136.72 30.87L123.9 56.64a.27.27 0 00.1.36.27.27 0 00.36-.13l12.84-25.76a.28.28 0 00-.13-.36.27.27 0 00-.35.12z"/><path class="cls-79" d="M123.93 56.59l-5 6.13a.27.27 0 000 .38.26.26 0 00.36 0l5-6.14a.26.26 0 000-.37.26.26 0 00-.36 0z"/><path class="cls-79" d="M116.89 59.64l16.63 10a.26.26 0 00.36-.1.25.25 0 00-.09-.36l-16.62-10a.28.28 0 00-.37.1.27.27 0 00.09.36zM232 113.25l-7.84-3.56a.27.27 0 00-.22.49l7.84 3.55a.27.27 0 00.35-.14.26.26 0 00-.13-.34zM155.51 113.15l-23.13-12.85a.28.28 0 00-.37.11.27.27 0 00.11.36l23.13 12.85a.27.27 0 00.36-.11.25.25 0 00-.1-.36z"/><path class="cls-79" d="M224.05 110.2l16.13 2.43a.27.27 0 00.29-.25.26.26 0 00-.21-.27l-16.13-2.44a.28.28 0 00-.31.22.27.27 0 00.23.31zM140.4 109.45l-14.51-4.53a.27.27 0 00-.33.18.26.26 0 00.17.33l14.51 4.57a.28.28 0 00.34-.18.27.27 0 00-.18-.37zM109.84 13l27 18.22a.27.27 0 00.3-.44l-27-18.22a.27.27 0 00-.37.08.26.26 0 00.07.36z"/><path class="cls-79" d="M113.3 116.94l12.7-11.57a.25.25 0 000-.37.26.26 0 00-.37 0l-12.69 11.56a.27.27 0 10.36.4zM116.8 59.55l2.11 3.45a.27.27 0 00.46-.28l-2.11-3.48a.26.26 0 00-.37-.09.28.28 0 00-.09.4zM70.72 12.16l29 24.42a.26.26 0 00.37 0 .27.27 0 000-.37l-29-24.42a.27.27 0 00-.34.41z"/><path class="cls-79" d="M85.3 47.65L100 36.59a.27.27 0 00-.32-.43L85 47.22a.27.27 0 000 .38.28.28 0 00.3.05z"/><path class="cls-79" d="M83.79.94l15.84 35.55a.28.28 0 00.36.13.27.27 0 00.13-.35L84.28.73a.27.27 0 00-.36-.14.27.27 0 00-.13.35zM89.79 69.36l-4.39-22a.27.27 0 10-.52.11l4.39 22a.27.27 0 10.52-.11zM125.33 94.16l.21 11a.27.27 0 00.28.26.26.26 0 00.26-.27l-.21-11a.27.27 0 00-.27-.27.28.28 0 00-.27.28z"/><path class="cls-79" d="M89.37 69.2l-7.25 5.18a.27.27 0 00.31.44l7.26-5.19a.27.27 0 00.06-.37.27.27 0 00-.38-.06zM109.74 12.67l-10.11 23.6a.27.27 0 00.15.35.25.25 0 00.34-.14l10.12-23.6a.28.28 0 00-.14-.36.28.28 0 00-.36.15zM224.36 110l.54-12.3a.26.26 0 00-.26-.27.25.25 0 00-.27.25l-.55 12.29a.26.26 0 00.26.28.27.27 0 00.28-.25z"/><path class="cls-79" d="M89.67 69.19L74.2 59.76a.27.27 0 10-.28.46l15.47 9.42a.27.27 0 00.37-.08.26.26 0 00-.09-.37zM117.12 59.66l7.11-2.66a.28.28 0 00.16-.35.27.27 0 00-.35-.16l-7.1 2.66a.27.27 0 00.18.5zM71.06 12.16L84.21 1a.27.27 0 000-.38.27.27 0 00-.37 0L70.72 11.75a.27.27 0 000 .38.26.26 0 00.34.03zM91.56.57l8.06 35.87a.27.27 0 00.32.2.27.27 0 00.2-.32L92.08.45a.27.27 0 00-.32-.2.27.27 0 00-.2.32zM140.26 110l15.06 3.68a.27.27 0 10.12-.52l-15.05-3.68a.27.27 0 00-.32.21.28.28 0 00.19.31zM222.88 111.46l1.39-1.33a.26.26 0 000-.38.26.26 0 00-.36 0l-1.39 1.34a.26.26 0 000 .37.26.26 0 00.36 0zM224.9 97.64l-.1-5.77a.27.27 0 00-.54 0l.11 5.77a.27.27 0 00.27.26.26.26 0 00.26-.26z"/><path class="cls-79" d="M196.14 106.92l27.92 3.28a.27.27 0 10.06-.53l-27.92-3.28a.27.27 0 00-.3.24.27.27 0 00.24.29zM74.26 60.17l11.08-12.56a.27.27 0 00-.4-.35L73.86 59.81a.27.27 0 000 .38.28.28 0 00.4-.02zM140.25 109.44l-27.19 7a.27.27 0 10.13.52l27.2-7a.26.26 0 00.16-.34.28.28 0 00-.3-.18zM83.92 1.08l26 11.93a.26.26 0 00.22-.48L84.15.59a.27.27 0 00-.36.14.27.27 0 00.13.35zM221 158l8 7.65a.27.27 0 10.37-.38l-8-7.66a.28.28 0 00-.38 0 .27.27 0 00.01.39z"/><path class="cls-79" d="M82.51 74.47l-8.22-14.61a.26.26 0 10-.46.26L82 74.73a.28.28 0 00.37.1.26.26 0 00.14-.36zM223 111.31l1.94-13.63a.27.27 0 00-.53-.08l-1.94 13.63a.27.27 0 00.23.3.26.26 0 00.3-.22zM71 12.19L92 .74a.27.27 0 00.11-.36.28.28 0 00-.37-.11L70.76 11.72a.27.27 0 00-.1.37.26.26 0 00.36.1z"/><path class="cls-79" d="M196.25 106.91l28.46-9a.27.27 0 00-.16-.51l-28.46 9a.27.27 0 00-.18.34.28.28 0 00.34.17zM125.41 94.33l14.72 15.56a.28.28 0 00.38 0 .29.29 0 000-.36L125.8 94a.26.26 0 00-.38 0 .25.25 0 00-.01.33zM84.05 1.1l7.78-.32a.27.27 0 00.25-.29.27.27 0 00-.27-.25L84 .57a.26.26 0 00-.25.28.27.27 0 00.3.25z"/><path class="cls-79" d="M125.37 94l-12.48 22.59a.26.26 0 00.12.36.28.28 0 00.35-.1l12.48-22.59a.27.27 0 00-.11-.36.26.26 0 00-.36.1zM46.86 26.61L71 12.19a.27.27 0 10-.28-.46L46.58 26.15a.27.27 0 00-.09.36.28.28 0 00.37.1z"/><path d="M167.85 168.08l53.41-10a.27.27 0 00.19-.33.28.28 0 00-.29-.2l-53.41 10a.25.25 0 00-.21.31.26.26 0 00.31.22z" fill-opacity=".18" fill="#fff2bd" opacity=".62"/><path class="cls-79" d="M91.67.73L109.84 13a.27.27 0 10.3-.44L92 .29a.26.26 0 00-.37.07.27.27 0 00.04.37zM82.12 74.82l15.07 10.57a.27.27 0 10.31-.39L82.43 74.38a.26.26 0 00-.37.06.27.27 0 00.06.38zM151.53 160.26l16.15 7.8a.27.27 0 00.24-.48l-16.16-7.8a.27.27 0 00-.35.13.28.28 0 00.12.35z"/><path class="cls-79" d="M82.15 74.36l-14.9 8a.27.27 0 10.25.47l14.9-8a.27.27 0 00-.25-.47zM116.82 59.25L97.13 85a.27.27 0 00.06.38.28.28 0 00.37 0l19.68-25.77a.26.26 0 00-.42-.32zM224.81 113.51l.09-15.87a.27.27 0 00-.26-.27.27.27 0 00-.27.27l-.1 15.86a.27.27 0 00.27.27.26.26 0 00.27-.26z"/><path class="cls-79" d="M73.8 59.91l-6.68 22.57a.27.27 0 00.19.33.27.27 0 00.33-.18l6.68-22.56a.28.28 0 00-.18-.34.27.27 0 00-.34.18zM97.26 85.43l28.26 9a.28.28 0 00.34-.18.27.27 0 00-.18-.33l-28.26-9a.27.27 0 00-.33.18.26.26 0 00.17.33zM214.82 109.75l10-11.94a.27.27 0 00-.41-.34l-10 11.93a.27.27 0 000 .38.28.28 0 00.38 0zM222.49 111.44l1.84 2.24a.27.27 0 00.38 0 .26.26 0 000-.36l-1.85-2.24a.27.27 0 00-.41.34zM23.76 58.82v17.54a.28.28 0 00.27.27.27.27 0 00.26-.27V58.83a.27.27 0 00-.27-.27.26.26 0 00-.26.26z"/><path class="cls-79" d="M4.82 66.05l19.05 10.54a.26.26 0 00.36-.1.28.28 0 00-.1-.37l-19-10.54a.28.28 0 00-.37.11.27.27 0 00.06.36zM222.75 111l-8.08-1.7a.27.27 0 00-.32.21.27.27 0 00.21.32l8.08 1.69a.27.27 0 00.3-.23.26.26 0 00-.19-.29zM155.38 113.65l11.89-.13a.27.27 0 100-.54l-11.88.13a.27.27 0 000 .54z"/><path class="cls-79" d="M196.12 106.92l18.45 2.92a.27.27 0 00.08-.53l-18.44-2.92a.26.26 0 00-.3.23.27.27 0 00.21.3zM67.36 82.82l30 2.62a.26.26 0 00.28-.25.26.26 0 00-.23-.28l-30-2.62a.26.26 0 00-.29.24.27.27 0 00.24.29zM82.61 56.6l2.79-9.08a.27.27 0 00-.18-.34.28.28 0 00-.34.18l-2.79 9.08a.27.27 0 00.52.16z"/><path class="cls-79" d="M82.08 56.52L82 74.6a.27.27 0 00.27.26.27.27 0 00.27-.26l.07-18.08a.27.27 0 10-.54 0zM5 66.07l19.08-7a.27.27 0 00-.19-.51l-19.08 7a.27.27 0 00-.15.35.26.26 0 00.34.16zM21.53 64.45l2.2 12a.27.27 0 00.53-.1l-2.2-12a.28.28 0 00-.32-.22.27.27 0 00-.21.32zM97.29 126.13l16-9.16a.27.27 0 00.1-.36.27.27 0 00-.37-.1l-16 9.16a.26.26 0 00-.02.33.27.27 0 00.29.13z"/><path class="cls-79" d="M82.25 56.27L74 59.74a.27.27 0 00-.15.35.28.28 0 00.35.15l8.29-3.47a.28.28 0 00.15-.36.27.27 0 00-.39-.14zM44.73 78.88l22.6 3.94a.27.27 0 00.09-.53l-22.6-3.94a.27.27 0 00-.31.22.28.28 0 00.22.31zM167.33 113.51l28.9-6.59a.28.28 0 00.2-.33.27.27 0 00-.32-.2l-28.9 6.6a.25.25 0 00-.2.32.27.27 0 00.32.2zM23.79 76.19l-2.54 3.16a.27.27 0 10.42.34l2.53-3.17a.25.25 0 000-.37.26.26 0 00-.37 0zM224.64 113.26l-9.93-3.94a.28.28 0 00-.35.15.28.28 0 00.15.35l9.93 3.94a.28.28 0 00.35-.15.28.28 0 00-.15-.35zM24.27 58.72l-1-2.33a.27.27 0 00-.36-.13.27.27 0 00-.13.34l1 2.33a.27.27 0 00.49-.21z"/><path class="cls-79" d="M23.78 58.73l-2.24 5.58a.27.27 0 00.5.2l2.23-5.59a.25.25 0 00-.15-.34.26.26 0 00-.34.15zM5.07 66.05l18.05-9.32a.27.27 0 00-.25-.47l-18 9.32a.27.27 0 00.25.47z"/><path class="cls-79" d="M5 66.08l16.85-1.41a.27.27 0 10-.05-.53L4.92 65.55a.27.27 0 000 .53zM82.11 56.64l15 28.66a.27.27 0 00.47-.25l-15-28.66a.27.27 0 00-.36-.11.28.28 0 00-.11.36zM125.59 147.93l25.94 12.33a.27.27 0 10.23-.48l-25.94-12.33a.28.28 0 00-.35.16.27.27 0 00.12.32zM21.47 79.79l23.32-.91a.26.26 0 00.21-.28.26.26 0 00-.27-.25l-23.32.9a.27.27 0 100 .54z"/><path class="cls-79" d="M22.73 56.46l-1.2 7.91a.27.27 0 00.23.3.27.27 0 00.3-.22l1.2-7.91a.27.27 0 10-.53-.08z"/><path class="cls-79" d="M22.73 56.48l-1.54 23a.27.27 0 00.26.28.27.27 0 00.28-.24l1.53-23a.27.27 0 00-.25-.28.27.27 0 00-.28.24z"/><path class="cls-79" d="M21.53 64.4l-.34 15.11a.27.27 0 00.27.27.27.27 0 00.27-.25l.33-15.12a.27.27 0 00-.27-.27.26.26 0 00-.26.26zM210.39 157.23l10.8.85a.27.27 0 100-.53l-10.79-.85a.27.27 0 00-.05.53zM23.26 56.48L22 36.83a.27.27 0 10-.53 0l1.28 19.64a.27.27 0 10.53 0zM201.14 117.38l13.6-7.57a.28.28 0 00.11-.37.27.27 0 00-.37-.1l-13.6 7.57a.27.27 0 00-.11.36.28.28 0 00.37.11z"/><path class="cls-79" d="M.57 41.13l21.2-4a.26.26 0 00.23-.33.27.27 0 00-.31-.21l-21.2 4a.28.28 0 00-.22.31.27.27 0 00.3.23z"/><path class="cls-79" d="M.67 41.09l11.59-8.3a.27.27 0 00.06-.38.27.27 0 00-.37-.06L.36 40.65A.27.27 0 00.3 41a.26.26 0 00.37.06z"/><path class="cls-79" d="M12 32.81l9.61 4.29A.26.26 0 0022 37a.27.27 0 00-.13-.35l-9.61-4.28a.26.26 0 10-.22.48z"/><path d="M151.91 160l-4.48-34.35a.27.27 0 00-.3-.23.28.28 0 00-.23.3l4.48 34.35a.27.27 0 00.3.23.26.26 0 00.23-.3z" fill-opacity=".24" fill="#fff2bd" opacity=".62"/><path d="M221.26 157.55l-32.08-6a.27.27 0 00-.32.21.27.27 0 00.22.31l32.08 6a.27.27 0 00.1-.53z" fill-opacity=".28" fill="#fff2bd" opacity=".62"/><path class="cls-79" d="M12.82 84.37l32-5.49a.28.28 0 00.22-.31.27.27 0 00-.31-.22l-32 5.5a.26.26 0 00-.21.31.25.25 0 00.3.21zM267.85 199.27l-4.67-20.82a.27.27 0 00-.32-.2.26.26 0 00-.2.32l4.67 20.82a.27.27 0 00.32.2.27.27 0 00.2-.32zM256.59 233.31l-11.9 2.19a.27.27 0 00-.21.31.26.26 0 00.31.22l11.9-2.19a.27.27 0 00.21-.32.26.26 0 00-.31-.21z"/><path class="cls-79" d="M265.8 204l-2.62-25.51a.26.26 0 00-.29-.24.26.26 0 00-.24.29l2.62 25.51a.26.26 0 00.29.24.26.26 0 00.24-.29zM201.12 117.38l3.25-1.6a.26.26 0 00-.24-.47l-3.24 1.59a.28.28 0 00-.1.37.27.27 0 00.33.11zM12.9 84.35l8.68-4.59a.26.26 0 00.12-.36.27.27 0 00-.37-.12l-8.68 4.59a.27.27 0 00-.11.37.27.27 0 00.36.11zM83.25 120.15l13.8 6a.27.27 0 00.21-.49l-13.79-6a.28.28 0 00-.35.16.27.27 0 00.13.33z"/><path class="cls-79" d="M265.78 204.13l2.05-4.7a.27.27 0 10-.49-.21l-2 4.7a.26.26 0 00.14.35.26.26 0 00.3-.14zM201 117.4l7.68 1.43a.27.27 0 10.09-.53l-7.67-1.42a.27.27 0 00-.32.21.27.27 0 00.22.31zM96.91 125.8l-3.46 8.49a.26.26 0 00.14.35.26.26 0 00.35-.15L97.4 126a.26.26 0 00-.49-.2zM125.9 147.88l21.46-22a.27.27 0 000-.38.26.26 0 00-.35 0l-21.47 22a.27.27 0 000 .38.26.26 0 00.36 0z"/><path class="cls-79" d="M200.84 117.35l4.29 3.44a.26.26 0 00.38 0 .28.28 0 000-.38l-4.3-3.44a.27.27 0 00-.37 0 .26.26 0 000 .38zM40.57 52l41.75 4.77a.27.27 0 00.3-.23.28.28 0 00-.24-.3l-41.75-4.76a.26.26 0 00-.29.23.27.27 0 00.23.3zM260.8 202.62l2.38-24.08a.26.26 0 00-.24-.29.26.26 0 00-.29.24l-2.38 24.08a.27.27 0 10.53.05zM224.16 230.49l20.51 5.51a.25.25 0 00.32-.19.26.26 0 00-.18-.32L224.3 230a.27.27 0 00-.33.2.27.27 0 00.19.29zM97.21 125.64l-27.8-5.5a.27.27 0 00-.31.22.27.27 0 00.2.3l27.8 5.51a.28.28 0 00.31-.23.27.27 0 00-.2-.3z"/><path class="cls-79" d="M260.65 202.84l7.05-3.27a.26.26 0 00-.22-.48l-7.06 3.26a.27.27 0 00.23.49zM204.1 115.77l4.43 3a.28.28 0 00.37-.09.29.29 0 00-.06-.36l-4.44-3a.28.28 0 00-.37.09.28.28 0 00.07.36zM53.64 106.52l-.27 2.48a.27.27 0 00.54.06l.26-2.44a.26.26 0 00-.24-.29.27.27 0 00-.29.19z"/><path class="cls-79" d="M53.38 108.92l-.68 2.73a.27.27 0 00.19.33.27.27 0 00.33-.19l.68-2.74a.26.26 0 00-.19-.32.27.27 0 00-.33.19zM210.48 156.7l-21.29-5.14a.26.26 0 00-.32.2.26.26 0 00.2.32l21.28 5.15a.27.27 0 10.13-.53z"/><path class="cls-79" d="M210.62 156.79l-17.38-21a.27.27 0 00-.38 0 .26.26 0 000 .36l17.38 21a.27.27 0 00.38 0 .27.27 0 000-.36zM205.56 120.53l-1.05-5a.27.27 0 00-.32-.21.27.27 0 00-.2.32l1 5a.27.27 0 00.32.21.28.28 0 00.25-.32zM260.46 202.85l5 1.43a.27.27 0 00.15-.51l-5-1.43a.27.27 0 00-.15.51zM235.05 241.81l9.83-5.82a.27.27 0 00.08-.37.28.28 0 00-.35-.09l-9.84 5.82a.27.27 0 00.28.46z"/><path class="cls-79" d="M256.55 233.32l-21.73 8a.27.27 0 00-.16.34.26.26 0 00.34.16l21.73-8a.26.26 0 00.13-.35.27.27 0 00-.31-.15zM53.48 109.2l15.72 11.42a.27.27 0 00.37-.06.27.27 0 00-.06-.38L53.8 108.77a.27.27 0 00-.38.06.27.27 0 00.06.37zM266.54 181.68l.78 17.66a.28.28 0 00.28.26.28.28 0 00.26-.28l-.78-17.66a.28.28 0 00-.28-.26.27.27 0 00-.26.28zM205.44 120.81l3.38-2a.25.25 0 00.09-.36.26.26 0 00-.36-.1l-3.39 2a.28.28 0 00-.06.38.28.28 0 00.34.08zM83.14 120.06l10.34 14.49a.27.27 0 00.43-.31l-10.33-14.49a.27.27 0 00-.38 0 .27.27 0 00-.06.31zM198.1 159.87l12.37-2.64a.27.27 0 00.18-.34.27.27 0 00-.29-.19L198 159.35a.27.27 0 00-.18.33.26.26 0 00.28.19z"/><path class="cls-79" d="M53.64 106.5l-1 5.17a.26.26 0 00.22.31.27.27 0 00.31-.21l1-5.17a.27.27 0 00-.53-.1zM370.11 237.56l9.46-8.06a.26.26 0 000-.38.27.27 0 00-.37 0l-9.46 8.06a.26.26 0 000 .38.27.27 0 00.37 0zM206.11 220.5l18 10a.25.25 0 00.36-.1.29.29 0 00-.1-.37l-18-10a.27.27 0 00-.36.1.27.27 0 00.1.37zM204.45 115.73l1.7-1.86a.26.26 0 000-.37.25.25 0 00-.35 0l-1.71 1.85a.27.27 0 000 .38.27.27 0 00.36 0zM188.89 151.71l-7 14.87a.27.27 0 00.49.23l7-14.87a.27.27 0 00-.48-.23zM83.35 119.64l-14 .49a.27.27 0 00-.25.28.26.26 0 00.27.26l14-.5a.27.27 0 100-.53z"/><path class="cls-79" d="M192.77 135.85l-3.9 15.91a.27.27 0 00.2.32.29.29 0 00.32-.2l3.9-15.91a.26.26 0 00-.2-.31.27.27 0 00-.32.19zM53.73 106.75l15.44 13.85a.27.27 0 00.36-.4l-15.44-13.85a.27.27 0 00-.38 0 .26.26 0 00.02.4z"/><path class="cls-79" d="M52.83 112l16.4 8.68a.28.28 0 00.35-.14.28.28 0 00-.1-.34l-16.4-8.68a.27.27 0 00-.36.11.27.27 0 00.11.37zM354.16 226.19l25.2 3.37a.26.26 0 00.3-.23.27.27 0 00-.23-.3l-25.2-3.37a.27.27 0 00-.29.25.26.26 0 00.22.28zM205.72 113.82l2.73 4.88a.27.27 0 00.37.1.28.28 0 00.1-.37l-2.73-4.87a.27.27 0 00-.37-.08.26.26 0 00-.1.34zM75.08 111.23l8.08 8.86a.27.27 0 00.4-.37l-8.08-8.85a.27.27 0 00-.38 0 .26.26 0 00-.02.36zM224 230.41l10.68 11.36a.28.28 0 00.38 0 .26.26 0 000-.38l-10.68-11.35a.26.26 0 00-.38 0 .27.27 0 000 .37zM266.55 181.59l-6.27 20.93a.25.25 0 00.18.33.27.27 0 00.33-.18l6.27-20.92a.26.26 0 00-.19-.33.27.27 0 00-.32.17z"/><path class="cls-79" d="M205.57 120.61l.65-6.89a.28.28 0 00-.24-.3.27.27 0 00-.29.25l-.66 6.89a.27.27 0 00.54 0z"/><path class="cls-79" d="M205.11 120.39l-8.72 8.5a.27.27 0 00.38.39l8.72-8.51a.27.27 0 000-.37.28.28 0 00-.38-.01zM75.33 110.79L54 106.29a.27.27 0 00-.11.52l21.37 4.5a.27.27 0 10.11-.52zM198.22 159.41l-8.92-7.79a.26.26 0 00-.37 0 .27.27 0 000 .38l8.92 7.79a.27.27 0 10.35-.4z"/><path class="cls-79" d="M197.94 159.37l-16 7.08a.27.27 0 00-.11.36.27.27 0 00.32.13l16-7.08a.27.27 0 00.14-.36.27.27 0 00-.35-.13zM75.07 111.22l18.41 23.34a.28.28 0 00.38 0 .25.25 0 000-.37l-18.37-23.3a.27.27 0 00-.38 0 .28.28 0 00-.04.33zM170.64 130.25l22.36 5.92a.27.27 0 00.32-.21.27.27 0 00-.18-.31l-22.33-5.91a.26.26 0 00-.13.51zM379.14 229.24l-2.33 10.3a.28.28 0 00.22.31.27.27 0 00.31-.2l2.32-10.3a.27.27 0 00-.21-.31.26.26 0 00-.31.2z"/><path class="cls-79" d="M196.34 129l-3.55 6.83a.28.28 0 00.12.36.27.27 0 00.36-.11l3.55-6.83a.28.28 0 00-.13-.36.27.27 0 00-.35.11zM36.78 103.87l16.78 5.37a.27.27 0 00.34-.17.28.28 0 00-.18-.34l-16.78-5.37a.27.27 0 00-.16.51zM206.07 220.49l28.68 21.31a.27.27 0 00.32-.43l-28.68-21.31a.26.26 0 00-.37.05.28.28 0 00.05.38zM207.76 219.32l16.31 11.13a.26.26 0 00.37-.09.25.25 0 00-.06-.35l-16.32-11.13a.27.27 0 00-.3.44zM354 226.15l15.74 11.42a.28.28 0 00.38-.08.26.26 0 00-.06-.35l-15.75-11.43a.26.26 0 00-.37.08.27.27 0 00.06.36zM75.05 110.91l-5.92 9.34a.27.27 0 00.45.29l5.93-9.34a.28.28 0 00-.1-.37.26.26 0 00-.36.08zM323 205.9l1.38 25.36a.27.27 0 00.54 0l-1.39-25.36a.27.27 0 10-.53 0z"/><path class="cls-79" d="M207.76 218.88l-1.68 1.17a.27.27 0 00-.05.38.27.27 0 00.36.06l1.68-1.17a.27.27 0 00.05-.37.26.26 0 00-.36-.07zM138.12 123.31l9 2.61a.27.27 0 10.15-.51l-9-2.61a.26.26 0 00-.33.19.26.26 0 00.18.32zM17.74 86.23l-4.84-2.36a.27.27 0 10-.24.48l4.84 2.36a.27.27 0 00.36-.13.28.28 0 00-.12-.35zM36.82 103.88l17 2.93a.26.26 0 10.09-.52l-17-2.94a.27.27 0 00-.09.53z"/><path class="cls-79" d="M17.49 86.71l36.29 20.08a.27.27 0 00.36-.11.27.27 0 00-.1-.36L17.75 86.24a.27.27 0 00-.26.47zM36.74 103.86L52.83 112a.27.27 0 10.25-.48L37 103.38a.27.27 0 00-.36.12.28.28 0 00.1.36zM196.81 129.22l9.37-15.39a.27.27 0 10-.46-.28l-9.37 15.39a.27.27 0 00.46.28zM369.86 237.61l7.13 2.24a.27.27 0 00.34-.18.26.26 0 00-.17-.33L370 237.1a.27.27 0 00-.34.17.28.28 0 00.2.34z"/><path class="cls-79" d="M40.38 51.6l-23 34.72a.27.27 0 00.44.3l23-34.73a.27.27 0 00-.45-.29zM207.74 219.31l27 22.48a.27.27 0 00.38 0 .27.27 0 000-.37l-27-22.48a.26.26 0 00-.37 0 .27.27 0 00-.01.37zM162.68 123.14l7.85 7a.26.26 0 00.35-.39l-7.88-7.01a.26.26 0 00-.37 0 .27.27 0 000 .38zM126.74 136.64l20.55-10.73a.26.26 0 00.09-.37.27.27 0 00-.34-.11l-20.54 10.73a.28.28 0 00-.1.37.26.26 0 00.34.11zM354.06 226.16l22.88 13.66a.27.27 0 00.37-.09.28.28 0 00-.1-.37l-22.88-13.66a.27.27 0 00-.37.09.28.28 0 00.1.37z"/><path class="cls-79" d="M170.79 130.25l10.48-3.61a.26.26 0 00.15-.35.27.27 0 00-.33-.16l-10.47 3.61a.27.27 0 00.17.51zM328.22 215.32l-4.71-9.55a.27.27 0 00-.36-.13.26.26 0 00-.12.36l4.71 9.55a.28.28 0 00.37.11.26.26 0 00.11-.34z"/><path class="cls-79" d="M158.2 119l12.32 11.16a.27.27 0 00.38 0 .26.26 0 000-.36l-12.32-11.17a.28.28 0 00-.38 0 .28.28 0 000 .37zM181.14 126.65l15.39 2.7a.27.27 0 00.31-.22.26.26 0 00-.21-.31l-15.4-2.7a.27.27 0 00-.09.53zM327.72 215.38l-3.33 15.81a.26.26 0 00.21.31.26.26 0 00.31-.2l3.34-15.81a.28.28 0 00-.21-.32.27.27 0 00-.32.21z"/><path class="cls-79" d="M327.88 215.68l26.21 10.5a.27.27 0 00.35-.15.26.26 0 00-.15-.35l-26.21-10.49a.26.26 0 10-.2.49zM190.92 157.66l7.05 2.21a.27.27 0 00.33-.18.25.25 0 00-.17-.33l-7-2.21a.27.27 0 00-.16.51zM162.81 123.2l18.32 3.45a.26.26 0 00.31-.21.27.27 0 00-.21-.32l-18.33-3.44a.27.27 0 00-.31.21.26.26 0 00.22.31zM323.53 205.84l-.84-4.86a.28.28 0 00-.31-.22.26.26 0 00-.22.31l.84 4.86a.27.27 0 00.32.21.27.27 0 00.21-.3z"/><path class="cls-79" d="M158.2 119l4.47 4.11a.27.27 0 00.38 0 .27.27 0 000-.36l-4.48-4.11a.28.28 0 00-.38 0 .28.28 0 00.01.36zM243.08 180.93l23.72 1a.27.27 0 100-.54l-23.72-1a.28.28 0 00-.28.26.28.28 0 00.28.28z"/><path class="cls-79" d="M162.85 122.67l-24.66.12a.27.27 0 00-.27.27.26.26 0 00.27.26l24.67-.11a.27.27 0 00.26-.27.27.27 0 00-.27-.27zM243.35 180.73l6.41-25a.27.27 0 00-.2-.32.26.26 0 00-.31.19l-6.42 25a.27.27 0 00.2.33.26.26 0 00.32-.2z"/><path class="cls-79" d="M158.32 118.57l-20.18 4.22a.27.27 0 00-.18.34.28.28 0 00.29.19l20.18-4.23a.27.27 0 10-.11-.52zM204.37 205.48L206 220.3a.26.26 0 00.3.23.27.27 0 00.23-.29l-1.6-14.82a.26.26 0 00-.29-.24.28.28 0 00-.27.3z"/><path d="M379.24 229.08l-11.71 8.86a.27.27 0 000 .38.27.27 0 00.36.05l11.7-8.86a.27.27 0 00-.32-.43z" fill-opacity=".24" fill="#fff2bd" opacity=".62"/><path class="cls-79" d="M266.81 181.4l-18.33-.13a.27.27 0 00-.27.26.25.25 0 00.26.27l18.34.14a.28.28 0 00.27-.27.27.27 0 00-.27-.27z"/><path class="cls-79" d="M248.74 181.55l1-25.88a.27.27 0 10-.53 0l-1 25.88a.26.26 0 00.26.27.27.27 0 00.27-.27zM17.44 86.67l19.25 17.15a.27.27 0 00.37 0 .26.26 0 000-.37L17.8 86.27a.27.27 0 00-.36.4zM269 243.65l3.53-17.71a.26.26 0 00-.21-.31.27.27 0 00-.31.21l-3.53 17.7a.27.27 0 00.21.32.26.26 0 00.31-.21zM60.51 104.94l8.61 15.59a.27.27 0 00.47-.26L61 104.68a.28.28 0 00-.37-.11.27.27 0 00-.12.37zM126.75 136.64l31.76-17.58a.26.26 0 00.1-.36.27.27 0 00-.36-.11l-31.76 17.58a.25.25 0 00-.1.36.27.27 0 00.36.11z"/><path class="cls-79" d="M242.14 148.27l7.17 7.58a.28.28 0 00.38 0 .27.27 0 000-.36l-7.17-7.58a.27.27 0 00-.38 0 .25.25 0 000 .36zM126.82 136.58l11.57-13.35a.27.27 0 000-.38.27.27 0 00-.37 0l-11.57 13.35a.27.27 0 00.4.35zM369.67 237.35l-.26 12.7a.26.26 0 00.26.27.27.27 0 00.27-.26l.27-12.7a.28.28 0 00-.27-.28.28.28 0 00-.27.27zM181 126.58l6.93 6.73a.28.28 0 00.38 0 .27.27 0 000-.36l-6.93-6.72a.27.27 0 00-.38 0 .27.27 0 000 .35zM328.23 215.34l-5.56-14.41a.26.26 0 00-.34-.16.28.28 0 00-.16.35l5.56 14.41a.26.26 0 00.35.15.25.25 0 00.15-.34zM60.64 105.05l14.53 6.25a.28.28 0 00.36-.14.27.27 0 00-.15-.35l-14.53-6.25a.28.28 0 00-.36.14.27.27 0 00.15.35zM204.38 205.51l3.27 13.66a.27.27 0 00.33.19.26.26 0 00.19-.32l-3.27-13.65a.27.27 0 00-.33-.2.26.26 0 00-.19.32z"/><path class="cls-79" d="M191.27 157.37l-2.9-24.29a.26.26 0 00-.3-.22.27.27 0 00-.23.29l2.9 24.29a.27.27 0 10.53-.07zM158.44 118.57L144.1 115a.25.25 0 00-.3.22.26.26 0 00.17.29l14.34 3.63a.27.27 0 10.13-.52zM243.05 180.93l5.38.87a.26.26 0 00.31-.22.28.28 0 00-.22-.31l-5.38-.87a.26.26 0 00-.31.22.27.27 0 00.22.31zM264.74 251.14l4.24-7.41a.26.26 0 00-.11-.36.26.26 0 00-.35.09l-4.25 7.41a.27.27 0 10.47.27zM250.36 244.7l-8.64-.27a.26.26 0 00-.27.26.25.25 0 00.26.27l8.64.28a.27.27 0 000-.54z"/><path class="cls-79" d="M259.06 245.44l9.73-1.58a.27.27 0 00.21-.32.28.28 0 00-.29-.21l-9.71 1.58a.27.27 0 00.08.53zM60.75 104.54l-23.87-1.19a.27.27 0 00-.28.26.27.27 0 00.25.27l23.88 1.2a.28.28 0 00.28-.26.27.27 0 00-.26-.28zM293.82 185.47l28.47 15.79a.27.27 0 00.37-.1.28.28 0 00-.11-.37L294.08 185a.28.28 0 00-.37.11.27.27 0 00.11.36zM190.88 157.64l11.05 5.89a.27.27 0 00.25-.47l-11.05-5.89a.27.27 0 00-.35.13.26.26 0 00.1.34zM234.79 236.1l6.71 8.76a.27.27 0 00.43-.33l-6.71-8.75a.27.27 0 00-.43.32zM225.71 180.38l17.37.55a.27.27 0 00.28-.26.28.28 0 00-.26-.28l-17.37-.55a.28.28 0 00-.28.26.28.28 0 00.26.28zM126.83 136.57l17.41-21.2a.26.26 0 000-.37.27.27 0 00-.38 0l-17.42 21.2a.27.27 0 10.42.34z"/><path class="cls-79" d="M120.5 108.07l17.5 15.19a.26.26 0 00.37 0 .27.27 0 000-.37l-17.52-15.19a.27.27 0 00-.38 0 .26.26 0 000 .38zM180.52 144.69l7.81-11.42a.28.28 0 00-.07-.38.27.27 0 00-.37.07l-7.81 11.43a.27.27 0 10.44.3zM250.25 245.22l14.15 6a.27.27 0 10.21-.49l-14.15-6a.27.27 0 00-.35.14.27.27 0 00.14.35zM302.7 222.52l19.92-21.31a.27.27 0 00-.39-.37l-19.92 21.31a.27.27 0 000 .38.29.29 0 00.39-.01zM225.7 180.38l22.76 1.42a.26.26 0 00.28-.25.27.27 0 00-.25-.28l-22.75-1.43a.28.28 0 00-.29.26.27.27 0 00.25.28z"/><path class="cls-79" d="M250.35 245.24l8.67.2a.27.27 0 000-.53l-8.67-.21a.27.27 0 000 .54z"/><path class="cls-79" d="M258.83 245.36l5.48 5.83a.27.27 0 00.39-.37l-5.48-5.82a.27.27 0 00-.38 0 .26.26 0 00-.01.36zM86.37 153.46l40.35-16.81a.27.27 0 00.15-.35.28.28 0 00-.35-.15L86.16 153a.27.27 0 00.21.5zM234.87 236.17l15.35 9a.26.26 0 00.36-.12.27.27 0 00-.09-.34l-15.35-9a.26.26 0 00-.36.12.27.27 0 00.09.34z"/><path class="cls-79" d="M234.91 236.19l24 9.24a.27.27 0 00.34-.16.25.25 0 00-.15-.34l-24-9.24a.27.27 0 00-.19.5zM225.52 179.94l-21.09 25.34a.27.27 0 00.41.34l21.09-25.34a.27.27 0 00-.41-.34zM313.16 189l9 12.19a.28.28 0 00.38 0 .27.27 0 00.05-.36l-9.05-12.19a.26.26 0 00-.38 0 .26.26 0 000 .36zM250.25 244.72l-2.45 1.06a.27.27 0 00-.14.35.26.26 0 00.35.14l2.45-1.05a.27.27 0 00-.21-.5z"/><path class="cls-79" d="M201.9 163.51l23.67 16.82a.27.27 0 00.37-.07.28.28 0 00-.06-.37l-23.67-16.81a.26.26 0 00-.37.07.26.26 0 00.06.36zM264.58 250.75l-16.6-5a.27.27 0 10-.15.51l16.6 5a.27.27 0 00.15-.51z"/><path d="M40 106.29l35.29 5a.27.27 0 00.3-.23.26.26 0 00-.22-.3l-35.29-5a.27.27 0 00-.31.23.28.28 0 00.23.3z" fill-opacity=".19" fill="#fff2bd" opacity=".62"/><path class="cls-79" d="M259 244.91l-11.11.85a.27.27 0 100 .53l11.11-.85a.26.26 0 00.23-.3.27.27 0 00-.23-.23z"/><path class="cls-79" d="M234.84 236.15l12.9 10.09a.27.27 0 10.33-.43l-12.9-10.08a.27.27 0 00-.37.07.26.26 0 00.04.35zM293.9 185.5l19.43 3.6a.27.27 0 00.31-.21.26.26 0 00-.22-.31L294 185a.27.27 0 00-.3.23.27.27 0 00.2.27zM345.62 251.62l24.07-1.3a.27.27 0 000-.54l-24.07 1.3a.27.27 0 000 .54zM129.69 97.74l14.14 17.63a.27.27 0 00.42-.33l-14.14-17.63a.27.27 0 00-.37 0 .27.27 0 00-.05.33zM180.57 144.54v-1a.28.28 0 00-.27-.28.27.27 0 00-.27.26v1.06a.27.27 0 00.27.27.27.27 0 00.27-.31z"/><path class="cls-79" d="M345.75 251.58l22.08-13.19a.26.26 0 00.09-.37.25.25 0 00-.36-.09l-22.09 13.19a.26.26 0 00-.09.37.27.27 0 00.37.09zM180.16 144.31l-7 4.4a.26.26 0 00-.09.37.27.27 0 00.37.09l7-4.41a.26.26 0 00.06-.37.27.27 0 00-.34-.08zM133.71 90.79l10.08 24.52a.27.27 0 00.35.14.27.27 0 00.15-.35l-10.08-24.51a.27.27 0 00-.5.2z"/><path class="cls-79" d="M120.59 108.12l23.41 7.34a.26.26 0 00.33-.18.25.25 0 00-.17-.33l-23.37-7.34a.26.26 0 00-.32.19.28.28 0 00.12.32zM345.73 251.59l25.37-12.38a.27.27 0 00.13-.36.27.27 0 00-.36-.12l-25.38 12.38a.27.27 0 10.24.48z"/><path class="cls-79" d="M369.94 250l-2-11.89a.27.27 0 00-.32-.2.26.26 0 00-.21.29l2 11.89a.27.27 0 00.32.21.28.28 0 00.21-.3z"/><path d="M40.15 105.81L37 103.4a.28.28 0 00-.38 0 .27.27 0 00.05.38l3.13 2.41a.27.27 0 00.32-.43z" fill-opacity=".25" fill="#fff2bd" opacity=".62"/><path class="cls-79" d="M204.48 205.66L219 216.52a.27.27 0 00.37-.07.27.27 0 00-.05-.36l-14.52-10.86a.27.27 0 00-.37.07.27.27 0 00.05.36zM369.94 250.08l1.31-11.08a.26.26 0 00-.23-.3.27.27 0 00-.3.23L369.41 250a.26.26 0 00.23.3.28.28 0 00.3-.22zM133.73 90.55l-4.06 6.89a.28.28 0 00.1.37.26.26 0 00.36-.1l4.06-6.88a.27.27 0 00-.1-.37.27.27 0 00-.36.09z"/><path class="cls-79" d="M219 216.48l15.82 19.63a.27.27 0 00.38 0 .29.29 0 000-.36l-15.8-19.61a.27.27 0 00-.42.34zM371.05 238.71l-3.29-.81a.27.27 0 00-.13.52l3.29.81a.27.27 0 00.32-.21.26.26 0 00-.19-.31zM120.87 108l9.23-10.28a.27.27 0 00-.4-.36l-9.23 10.28a.27.27 0 00.4.36z"/><path d="M54.65 160.22l72.05-23.57a.26.26 0 00-.16-.5l-72.06 23.56a.28.28 0 00-.16.35.27.27 0 00.33.16z" fill-opacity=".11" fill="#fff2bd" opacity=".62"/><path class="cls-79" d="M312.48 191.55l9.76 9.66a.26.26 0 00.37 0 .28.28 0 000-.38l-9.76-9.66a.26.26 0 00-.37 0 .27.27 0 000 .38zM120.88 108l13.29-17.17a.26.26 0 00-.06-.37.26.26 0 00-.36 0l-13.29 17.24a.26.26 0 00.06.37.27.27 0 00.36-.07zM249.08 137.62l-7 10.32a.27.27 0 10.44.3l7-10.32a.27.27 0 00-.07-.37.26.26 0 00-.37.07zM302.26 222.44l9.44 21.66a.27.27 0 00.36.14.27.27 0 00.13-.35l-9.44-21.66a.27.27 0 00-.36-.14.27.27 0 00-.13.35zM180.16 143.27l-7.07 5.46a.26.26 0 000 .37.25.25 0 00.35.05l7.07-5.46a.26.26 0 000-.37.27.27 0 00-.35-.05z"/><path class="cls-79" d="M169.83 135.78l10.33 7.91a.27.27 0 00.38-.05.26.26 0 000-.37l-10.34-7.92a.27.27 0 00-.32.43z"/><path class="cls-79" d="M169.73 135.63L173 149a.27.27 0 00.33.19.28.28 0 00.19-.32l-3.27-13.37a.27.27 0 00-.33-.18.26.26 0 00-.19.31z"/><path class="cls-79" d="M166.1 145.5l14.26-1.75a.26.26 0 00.23-.3.27.27 0 00-.29-.24L166 145a.26.26 0 00-.21.31.27.27 0 00.31.19zM201.88 163.09l-14.75 12.54a.27.27 0 000 .38.28.28 0 00.36 0l14.75-12.54a.28.28 0 000-.38.28.28 0 00-.36 0zM293.87 185.49l18.71 6.12a.27.27 0 00.33-.18.27.27 0 00-.16-.33L294 185a.27.27 0 00-.16.51z"/><path class="cls-79" d="M166 145.47l7.19 3.71a.27.27 0 00.24-.48l-7.24-3.7a.27.27 0 10-.24.48zM302.33 222.54l11.55 9.32a.26.26 0 00.33-.41l-11.54-9.32a.26.26 0 00-.38 0 .27.27 0 00.04.41z"/><path class="cls-79" d="M169.74 135.47l-3.92 9.66a.27.27 0 00.15.35.26.26 0 00.35-.15l3.92-9.66a.27.27 0 00-.5-.2zM302.26 222.22l-7.85 17.16a.26.26 0 00.48.22l7.85-17.16a.26.26 0 00-.14-.35.27.27 0 00-.34.13zM173.16 148.69l-11.76 4.36a.27.27 0 00-.14.36.27.27 0 00.32.14l11.77-4.36a.27.27 0 00-.19-.5zM369.88 250.22l9.48-11.58a.26.26 0 000-.38.27.27 0 00-.37 0l-9.48 11.58a.27.27 0 000 .38.28.28 0 00.37 0zM163.51 125.09l16.62 18.57a.28.28 0 00.38 0 .27.27 0 000-.36l-16.61-18.57a.26.26 0 00-.37 0 .27.27 0 00-.02.36z"/><path class="cls-79" d="M165.84 145.1l-4.58 8.07a.26.26 0 10.46.26l4.58-8.07a.27.27 0 00-.12-.36.28.28 0 00-.34.1zM379.16 238.2l-11.46-.31a.26.26 0 00-.27.26.27.27 0 00.26.28l11.46.31a.26.26 0 00.27-.26.27.27 0 00-.26-.28zM40 106.29l20.76-1.21a.28.28 0 00.24-.29.26.26 0 00-.27-.25L40 105.76a.27.27 0 000 .53zM54.62 160.23l31.7-6.76a.27.27 0 00.18-.33.26.26 0 00-.29-.19l-31.7 6.76a.27.27 0 00-.18.33.26.26 0 00.29.19zM163.47 125l6.29 10.66a.27.27 0 00.37.08.28.28 0 00.09-.35l-6.28-10.66a.27.27 0 00-.47.27z"/><path class="cls-79" d="M379.14 238.2l-8.17.5a.27.27 0 00-.25.28.28.28 0 00.28.26l8.17-.5a.27.27 0 00.23-.31.28.28 0 00-.26-.23zM163.44 124.94l2.36 20.32a.28.28 0 00.3.24.28.28 0 00.24-.3L164 124.87a.27.27 0 10-.53.07zM312.92 191.43l.71-2.52a.26.26 0 10-.51-.14l-.71 2.52a.26.26 0 00.51.14zM247.71 238.79l-.07 7.23a.27.27 0 00.27.27.27.27 0 00.27-.26l.07-7.23a.27.27 0 00-.54 0zM153 149.87l20.32-.66a.28.28 0 00.26-.28.28.28 0 00-.28-.26l-20.31.66a.27.27 0 000 .54zM313.78 231.61l-2.1 12.39a.28.28 0 00.22.31.27.27 0 00.31-.22l2.1-12.34a.26.26 0 00-.23-.3.26.26 0 00-.3.16z"/><path class="cls-79" d="M294.58 239.75l17.3 4.5a.27.27 0 00.33-.19.27.27 0 00-.19-.33l-17.3-4.49a.26.26 0 00-.33.19.26.26 0 00.19.32zM152.84 149.85l8.54 3.7a.28.28 0 00.35-.16.27.27 0 00-.13-.33l-8.55-3.71a.27.27 0 00-.21.5zM231.54 160.09l18-22.15a.27.27 0 000-.38.27.27 0 00-.37 0l-18 22.15a.26.26 0 000 .37.27.27 0 00.37.01zM163.89 124.71l-5-4.81a.25.25 0 00-.37 0 .26.26 0 000 .35l5 4.82a.27.27 0 00.38 0 .27.27 0 00-.01-.36z"/><path class="cls-79" d="M231.24 160.17l26.41 9.72a.26.26 0 00.34-.16.27.27 0 00-.16-.35l-26.41-9.72a.26.26 0 00-.34.16.27.27 0 00.16.35zM133.73 90.55l-5.23 8.66a.26.26 0 00.09.37.27.27 0 00.37-.09l5.23-8.66a.26.26 0 00-.09-.37.27.27 0 00-.37.09zM285.71 240.54l9-.78a.27.27 0 00.23-.3.26.26 0 00-.27-.23l-9 .78a.27.27 0 00-.24.29.26.26 0 00.28.24zM158.41 120l-5.73 29.51a.27.27 0 00.53.1l5.72-29.51a.25.25 0 00-.21-.31.26.26 0 00-.31.21z"/><path class="cls-79" d="M294.58 239.24l-13.08 3.42a.27.27 0 00-.17.34.28.28 0 00.3.18l13.09-3.43a.26.26 0 00.19-.32.27.27 0 00-.33-.19z"/><path d="M39.73 106.09L54.31 160a.27.27 0 00.33.18.27.27 0 00.19-.32L40.25 106a.27.27 0 00-.33-.18.26.26 0 00-.19.27z" fill-opacity=".24" fill="#fff2bd" opacity=".62"/><path class="cls-79" d="M279.59 236.89l15 2.87a.27.27 0 00.3-.24.28.28 0 00-.2-.29l-15-2.86a.26.26 0 10-.1.52zM248.06 123.2l1 14.59a.28.28 0 00.29.25.27.27 0 00.25-.29l-1-14.58a.27.27 0 00-.29-.25.27.27 0 00-.25.28zM285.54 240.05l-4.12 2.64a.27.27 0 00.29.45l4.12-2.64a.26.26 0 00.06-.37.28.28 0 00-.35-.08zM120.8 147.33l40.65 6.24a.26.26 0 00.3-.23.25.25 0 00-.22-.3l-40.65-6.24a.28.28 0 00-.31.23.27.27 0 00.23.3z"/><path class="cls-79" d="M279.5 236.86l6.05 3.65a.28.28 0 00.37-.09.27.27 0 00-.09-.37l-6.05-3.65a.27.27 0 00-.37.11.28.28 0 00.09.35z"/><path class="cls-79" d="M272 235.81l13.57 4.72a.28.28 0 00.33-.2.27.27 0 00-.15-.3l-13.57-4.73a.27.27 0 00-.34.17.26.26 0 00.16.34zM379.21 238.21l-25.9-5.12a.27.27 0 00-.1.53l25.89 5.11a.26.26 0 00.31-.22.27.27 0 00-.2-.3zM187.11 176l18 19.88a.27.27 0 00.38 0 .29.29 0 000-.37l-18-19.88a.25.25 0 00-.37 0 .26.26 0 00-.01.37z"/><path class="cls-79" d="M248 239.06l31.66-2.16a.27.27 0 00.22-.31.27.27 0 00-.26-.23L248 238.53a.28.28 0 00-.23.3.27.27 0 00.23.23zM128.57 99.57l30 20.74a.27.27 0 00.36-.09.26.26 0 00-.06-.35l-29.99-20.74a.27.27 0 00-.37.07.26.26 0 00.06.37z"/><path class="cls-79" d="M279.38 236.71l1.93 6.29a.26.26 0 00.34.17.25.25 0 00.17-.33l-1.93-6.29a.27.27 0 00-.33-.18.28.28 0 00-.18.34z"/><path class="cls-79" d="M272 235.76l9.44 7.37a.27.27 0 10.33-.43l-9.44-7.36a.27.27 0 00-.38 0 .26.26 0 000 .37z"/><path class="cls-79" d="M272.08 235.82l7.52 1.08a.27.27 0 00.08-.53l-7.52-1.08a.26.26 0 00-.3.22.27.27 0 00.22.31zM120.82 147.33l32.1 2.54a.27.27 0 00.05-.54l-32.11-2.53a.27.27 0 00-.27.26.25.25 0 00.23.27zM213.92 147.85l17.26 12.28a.27.27 0 10.31-.43l-17.26-12.29a.27.27 0 00-.37.06.27.27 0 00.06.38z"/><path class="cls-79" d="M231.33 160.18h9.58a.27.27 0 100-.54h-9.58a.27.27 0 100 .53zM248.18 239l9.41-10.44a.28.28 0 000-.38.27.27 0 00-.38 0l-9.42 10.44a.26.26 0 000 .37.27.27 0 00.39.01zM276.93 253l4.88-10a.27.27 0 00-.13-.36.26.26 0 00-.35.13l-4.88 10a.26.26 0 00.12.36.27.27 0 00.36-.13z"/><path class="cls-79" d="M257.3 228.61l22.24 8.27a.28.28 0 00.34-.18.27.27 0 00-.15-.32l-22.24-8.27a.27.27 0 10-.19.5z"/><path class="cls-79" d="M272.24 235.31l-14.73-7.19a.27.27 0 00-.36.12.27.27 0 00.13.36l14.72 7.19a.26.26 0 00.36-.12.27.27 0 00-.12-.36zM295.37 196.2l17.36-4.58a.28.28 0 00.2-.33.27.27 0 00-.33-.19l-17.37 4.58a.27.27 0 00-.17.34.26.26 0 00.31.18zM243.17 211.27l4.55 27.57a.25.25 0 00.3.22.26.26 0 00.22-.31l-4.54-27.57a.26.26 0 00-.31-.22.27.27 0 00-.22.31zM232.62 139.56l15.9-16.19a.27.27 0 000-.38.28.28 0 00-.37 0l-15.9 16.19a.27.27 0 10.38.37z"/><path class="cls-79" d="M248.07 123.13l-7.42 36.76a.26.26 0 00.22.31.27.27 0 00.3-.21l7.42-36.75a.27.27 0 10-.52-.11zM222.06 264.81L248.17 239a.27.27 0 000-.38.25.25 0 00-.36 0l-26.11 25.82a.27.27 0 000 .38.27.27 0 00.36-.01zM205.08 195.87l16.27 25.89a.27.27 0 00.37.08.27.27 0 00.09-.37l-16.28-25.89a.26.26 0 00-.37-.08.27.27 0 00-.08.37zM375.24 228.38l-22 4.71a.27.27 0 00.11.53l22-4.71a.28.28 0 00.21-.32.28.28 0 00-.32-.21zM214.19 147.87l18.35-8.25a.27.27 0 00.11-.36.26.26 0 00-.33-.13L214 147.39a.27.27 0 00-.11.36.26.26 0 00.3.12zM104.27 79l24.28 20.56a.28.28 0 00.38 0 .27.27 0 000-.38l-24.31-20.59a.27.27 0 00-.38 0 .26.26 0 00.03.41zM243.23 211.39l14 17.14a.27.27 0 00.38 0 .28.28 0 000-.36l-14-17.14a.26.26 0 00-.37 0 .25.25 0 00-.01.36z"/><path class="cls-79" d="M221.53 221.88l35.82 6.74a.26.26 0 00.29-.24.25.25 0 00-.2-.28l-35.81-6.75a.26.26 0 00-.31.21.27.27 0 00.21.32zM232.18 139.48l8.48 20.57a.27.27 0 00.35.14.26.26 0 00.15-.35l-8.48-20.57a.28.28 0 00-.36-.13.27.27 0 00-.14.34zM274.36 254.67l7.43-11.61a.26.26 0 00-.08-.37.27.27 0 00-.37.08l-7.43 11.61a.27.27 0 00.45.29z"/><path class="cls-79" d="M214 147.87l26.83 12.31a.26.26 0 00.34-.16.25.25 0 00-.12-.32l-26.83-12.31a.26.26 0 00-.35.13.25.25 0 00.13.35zM342.48 208.66l10.52 24.8a.27.27 0 00.49-.21L343 208.45a.27.27 0 00-.49.21zM120.58 147.13l4 16.3a.27.27 0 00.52-.13l-4-16.3a.27.27 0 00-.33-.19.26.26 0 00-.19.32zM243.32 211l-21.85 10.39a.27.27 0 00-.13.36.26.26 0 00.36.12l21.85-10.38a.28.28 0 00.13-.36.27.27 0 00-.36-.13z"/><path class="cls-79" d="M213.88 147.45l-16.57 18.42a.26.26 0 00.05.37.27.27 0 00.35 0l16.57-18.41a.27.27 0 00-.4-.36zM124.87 163.63l43.27-5a.27.27 0 00.23-.3.26.26 0 00-.29-.23l-43.27 5a.28.28 0 00-.24.3.27.27 0 00.3.23zM274.28 254.75l2.55-1.62a.27.27 0 00.05-.38.25.25 0 00-.34-.07L274 254.3a.27.27 0 10.29.45z"/><path class="cls-79" d="M168 158.65l29.4 7.65a.27.27 0 00.14-.51l-29.41-7.65a.27.27 0 00-.31.21.27.27 0 00.18.3zM350.17 166.41l-7.71 42.1a.28.28 0 00.22.31.27.27 0 00.31-.21l7.71-42.11a.27.27 0 00-.53-.09zM222.14 264.62l-.29-43a.27.27 0 00-.27-.27.28.28 0 00-.27.27l.3 43a.27.27 0 10.53 0zM205.08 195.58l-9.46 14.48a.27.27 0 00.45.29l9.46-14.48a.27.27 0 00-.45-.29zM246.24 186.39l-5.07-26.5a.26.26 0 00-.31-.2.26.26 0 00-.21.3l5.06 26.5a.26.26 0 00.32.2.27.27 0 00.21-.3zM375.31 228.91l18.4-.87a.27.27 0 00.26-.28.28.28 0 00-.28-.26l-18.41.88a.26.26 0 00-.25.28.26.26 0 00.28.25z"/><path class="cls-79" d="M167.92 158.59l13.29 12.19a.26.26 0 00.37 0 .27.27 0 000-.36l-13.29-12.22a.27.27 0 00-.38 0 .27.27 0 00.01.39zM338.71 167.06l11.73-.34a.26.26 0 00.26-.27.25.25 0 00-.27-.26l-11.74.33a.27.27 0 000 .54zM245.71 186.41l-2.54 24.78a.27.27 0 00.24.3.26.26 0 00.29-.24l2.54-24.78a.27.27 0 00-.53-.06zM232.17 139.43l3.56 15.29a.26.26 0 00.32.2.27.27 0 00.2-.32l-3.56-15.29a.27.27 0 00-.52.12z"/><path class="cls-79" d="M235.79 154.84l4.92 5.29a.28.28 0 00.38 0 .27.27 0 000-.38l-4.93-5.28a.27.27 0 00-.39.36zM197.44 165.79l-16.12 4.54a.26.26 0 10.14.51l16.12-4.54a.27.27 0 00.19-.33.26.26 0 00-.33-.18zM195.34 141.42l18.66 6.46a.27.27 0 10.18-.5l-18.65-6.46a.26.26 0 00-.34.17.25.25 0 00.15.33zM195.74 210.45l25.73 11.41a.27.27 0 00.36-.14.26.26 0 00-.14-.35L196 210a.27.27 0 00-.36.14.26.26 0 00.1.31zM257.36 245.88l19.23 7.27a.26.26 0 00.34-.16.27.27 0 00-.15-.34l-19.23-7.27a.27.27 0 00-.34.17.26.26 0 00.15.33zM338.43 166.82l4 41.77a.27.27 0 10.53-.05l-4-41.77a.27.27 0 00-.54 0z"/><path class="cls-79" d="M195.16 141.19l2.08 24.88a.28.28 0 00.29.24.27.27 0 00.25-.29l-2.08-24.87a.28.28 0 00-.3-.24.27.27 0 00-.24.28zM375.2 228.9l10.91 4a.27.27 0 00.34-.18.27.27 0 00-.15-.32l-10.91-4.05a.27.27 0 10-.19.51zM158 153.87l10 4.77a.28.28 0 00.36-.13.27.27 0 00-.13-.36l-10-4.77a.27.27 0 00-.36.13.27.27 0 00.13.36zM209.8 255.51l12-33.81a.27.27 0 00-.17-.34.27.27 0 00-.33.16l-12 33.81a.28.28 0 00.17.34.28.28 0 00.33-.16z"/><path class="cls-79" d="M195.19 141.06l-14 29.41a.27.27 0 00.48.23l14-29.41a.28.28 0 00-.13-.36.27.27 0 00-.35.13zM375.47 228.84l12-10.72a.28.28 0 000-.38.26.26 0 00-.36 0l-12 10.72a.27.27 0 000 .38.26.26 0 00.36 0zM414.35 182.53L428.26 165a.27.27 0 00-.05-.38.26.26 0 00-.37.05l-13.91 17.53a.27.27 0 00.05.38.26.26 0 00.37-.05zM386.35 232.91l7.5-4.92a.27.27 0 10-.3-.44l-7.49 4.92a.26.26 0 00-.07.37.26.26 0 00.36.07zM350.21 166.31l-10.4 15.77a.27.27 0 00.45.3l10.4-15.78a.27.27 0 10-.45-.29zM252.71 173.05l-7 13.27a.27.27 0 00.12.36.27.27 0 00.35-.11l7-13.27a.26.26 0 00-.12-.36.25.25 0 00-.35.11zM209.38 255.63l12.33 9.2a.26.26 0 00.37-.07.27.27 0 00-.05-.36l-12.33-9.2a.27.27 0 00-.37.08.28.28 0 00.05.35z"/><path class="cls-79" d="M387.1 218.06l6.37 9.86a.28.28 0 00.38.06.26.26 0 00.07-.35l-6.37-9.86a.27.27 0 00-.45.29zM157.9 153.84l23.33 17a.27.27 0 00.38-.06.27.27 0 00-.06-.37l-23.33-17a.27.27 0 00-.32.43zM222.14 264.6l-1.11-23a.28.28 0 00-.28-.26.26.26 0 00-.25.28l1.11 23a.27.27 0 00.28.26.28.28 0 00.25-.28zM257.33 245.87l16.67 8.89a.27.27 0 00.25-.47l-16.68-8.89a.27.27 0 10-.25.47zM253.14 173l-16.95-18.51a.27.27 0 00-.38 0 .27.27 0 000 .37l17 18.51a.27.27 0 00.38 0 .27.27 0 00-.05-.37zM96.44 174.93l28.5-11.31a.28.28 0 00.15-.35.26.26 0 00-.35-.15l-28.5 11.31a.27.27 0 00-.15.35.28.28 0 00.35.15zM245.85 186.68L268 198.24a.27.27 0 00.24-.48L246.1 186.2a.27.27 0 00-.25.48zM414.26 182.61L438 171.47a.26.26 0 00.12-.35.27.27 0 00-.35-.13L414 182.12a.27.27 0 00-.12.36.26.26 0 00.38.13zM349.41 219.82L343 208.43a.26.26 0 00-.37-.09.27.27 0 00-.1.35l6.45 11.39a.27.27 0 10.47-.26zM321.51 158.73l17.07 8.3a.26.26 0 00.36-.12.27.27 0 00-.12-.36l-17.07-8.31a.27.27 0 00-.36.13.28.28 0 00.12.36z"/><path class="cls-79" d="M338.43 166.82l1.34 15.43a.27.27 0 00.29.25.26.26 0 00.24-.29l-1.3-15.44a.27.27 0 00-.29-.24.27.27 0 00-.28.29zM252.71 173.31l15.21 24.83a.27.27 0 00.46-.28L253.17 173a.26.26 0 00-.37-.09.29.29 0 00-.09.4zM231.19 154.66l4.78.27a.27.27 0 00.29-.25.28.28 0 00-.26-.29l-4.78-.27a.28.28 0 00-.29.25.28.28 0 00.26.29zM387.06 217.9l-1.12 14.77a.27.27 0 00.26.27.27.27 0 00.27-.23l1.13-14.77a.27.27 0 00-.27-.27.26.26 0 00-.27.23zM414 182.13l-30.79 17.2a.26.26 0 00-.07.37.27.27 0 00.33.1l30.79-17.2a.27.27 0 00.11-.36.28.28 0 00-.37-.11zM220.73 241.92l36.7 4a.27.27 0 00.29-.24.26.26 0 00-.24-.29l-36.69-4a.27.27 0 00-.06.54z"/><path d="M57.31 177.8l67.58-14.17a.27.27 0 00.21-.32.27.27 0 00-.32-.21L57.2 177.28a.27.27 0 00.11.52z" fill-opacity=".14" fill="#fff2bd" opacity=".62"/><path class="cls-79" d="M173.72 194.32l22 16.1a.26.26 0 00.37-.06.26.26 0 00-.09-.36l-22-16.1a.27.27 0 00-.38.06.26.26 0 00.1.36zM209.75 255.59L221 241.82a.26.26 0 000-.38.27.27 0 00-.37 0l-11.22 13.77a.26.26 0 000 .37.26.26 0 00.34.01zM157.8 153.65l3.42 29.22a.27.27 0 00.54-.06l-3.43-29.22a.27.27 0 00-.31-.22.25.25 0 00-.22.28zM381.56 213.68l4.38 19.07a.28.28 0 00.32.2.27.27 0 00.21-.32l-4.39-19.07a.25.25 0 00-.32-.19.26.26 0 00-.2.31z"/><path class="cls-79" d="M383.08 199.59l2.86 33.12a.27.27 0 00.53 0l-2.85-33.13a.27.27 0 00-.31-.23.28.28 0 00-.23.24z"/><path class="cls-79" d="M381.66 213.83l5.5 4.3a.27.27 0 00.33-.43l-5.5-4.3a.27.27 0 10-.33.43zM267.13 177.31l-14.13-4.4a.27.27 0 00-.16.52l14.16 4.39a.25.25 0 00.33-.17.27.27 0 00-.17-.34zM429.66 112.33L401.9 110a.27.27 0 000 .54l27.76 2.28a.27.27 0 00.27-.26.27.27 0 00-.27-.23zM179 152.56l16.56-11.16a.28.28 0 00.07-.38.27.27 0 00-.37-.07l-16.56 11.16a.26.26 0 000 .38.27.27 0 00.3.07zM414.41 182.36l-.22-22.13a.27.27 0 00-.54 0l.22 22.13a.27.27 0 10.54 0z"/><path class="cls-79" d="M383.09 199.62l4 18.35a.27.27 0 00.33.19.27.27 0 00.19-.3l-4-18.35a.27.27 0 00-.33-.18.26.26 0 00-.19.29z"/><path d="M36.13 160.92l88.7 2.71a.27.27 0 00.28-.26.27.27 0 00-.26-.27l-88.7-2.71a.27.27 0 00-.28.26.26.26 0 00.26.27z" fill-opacity=".02" fill="#fff2bd" opacity=".62"/><path class="cls-79" d="M234.89 227.31l22.39 18.53a.27.27 0 00.38-.05.26.26 0 000-.36l-22.4-18.53a.27.27 0 00-.34.41zM266.78 177.58l1.1 20.43a.28.28 0 00.28.26.28.28 0 00.26-.29l-1.11-20.43a.26.26 0 00-.28-.25.27.27 0 00-.25.28zM349.23 220.22l32.64-6.34a.27.27 0 00.2-.33.28.28 0 00-.3-.2l-32.65 6.34a.27.27 0 00-.19.33.28.28 0 00.3.2zM321.42 158.65l18.4 23.75a.28.28 0 00.38 0 .26.26 0 00.05-.37l-18.41-23.75a.27.27 0 00-.42.33zM413.81 160.48l24 11a.26.26 0 00.34-.16.26.26 0 00-.15-.32l-24-11a.26.26 0 00-.35.14.26.26 0 00.16.34zM178.85 152.07l-20.8 1.29a.26.26 0 00-.23.3.27.27 0 00.26.23l20.8-1.29a.26.26 0 00.23-.3.27.27 0 00-.26-.23zM161.31 183l12.39 11.3a.27.27 0 00.38 0 .27.27 0 000-.37l-12.39-11.27a.27.27 0 00-.38 0 .26.26 0 000 .34zM197.64 234l11.67 21.56a.26.26 0 00.36.1.26.26 0 00.11-.35l-11.67-21.56a.28.28 0 00-.37-.11.26.26 0 00-.1.36z"/><path class="cls-79" d="M150.86 158.06l7.33-4.2a.28.28 0 00.08-.38.27.27 0 00-.34-.09l-7.34 4.21a.27.27 0 00.27.46zM382.09 213.65l1.53-14.06a.27.27 0 00-.54-.05l-1.52 14.05a.26.26 0 00.23.29.27.27 0 00.3-.23zM244.87 196.53l23.26 1.74a.27.27 0 00.27-.27.28.28 0 00-.23-.27L244.91 196a.27.27 0 00-.28.25.26.26 0 00.24.28zM221 241.84l14.29-14.55a.27.27 0 000-.38.26.26 0 00-.36 0l-14.3 14.54a.27.27 0 000 .38.28.28 0 00.37.01z"/><path class="cls-79" d="M197.79 234.11l22.89 7.79a.27.27 0 00.33-.18.26.26 0 00-.16-.32L198 233.6a.27.27 0 00-.17.51zM422.18 93.63l7.21 19.06a.25.25 0 00.34.15.26.26 0 00.16-.34l-7.2-19.06a.27.27 0 00-.35-.14.26.26 0 00-.16.33zM349.13 219.69l-21.4 3.3a.26.26 0 00-.23.3.28.28 0 00.31.23l21.41-3.3a.27.27 0 10-.09-.53zM161.48 182.57l-19.45.88a.28.28 0 00-.26.28.27.27 0 00.28.25l19.45-.87a.28.28 0 00.26-.28.28.28 0 00-.28-.26zM266.87 177.36l-22.15 18.7a.28.28 0 000 .38.27.27 0 00.35 0l22.15-18.7a.26.26 0 000-.37.27.27 0 00-.38 0z"/><path class="cls-79" d="M244.64 196.18L234.81 227a.27.27 0 00.51.16l9.83-30.83a.27.27 0 00-.15-.33.28.28 0 00-.36.18zM162.92 158.76l-4.66-5.31a.27.27 0 00-.38 0 .27.27 0 000 .35l4.66 5.31a.28.28 0 00.38 0 .27.27 0 000-.35z"/><path class="cls-79" d="M178.82 152.07l-28.15 5.49a.27.27 0 00-.21.32.26.26 0 00.31.21l28.15-5.49a.27.27 0 00.21-.32.27.27 0 00-.31-.21z"/><path d="M96.29 174.94l45.7 9a.28.28 0 00.31-.22.28.28 0 00-.21-.31l-45.7-9a.27.27 0 00-.3.23.25.25 0 00.2.3z" fill-opacity=".26" fill="#fff2bd" opacity=".62"/><path class="cls-79" d="M57.28 177.81l39.08-2.87a.26.26 0 00.23-.3.28.28 0 00-.27-.23l-39.08 2.86a.27.27 0 100 .54zM422.26 93.33l-20.55 16.77a.27.27 0 10.34.42l20.56-16.78a.26.26 0 000-.37.27.27 0 00-.38 0zM230.33 161.93l1.14-7.5a.27.27 0 00-.23-.3.26.26 0 00-.3.22l-1.14 7.5a.27.27 0 00.23.3.27.27 0 00.3-.22zM376.55 194.26L387.08 218a.27.27 0 00.36.14.27.27 0 00.13-.35L377 194.05a.27.27 0 10-.49.21zM321.24 213.87l27.88 6.34a.26.26 0 00.31-.2.27.27 0 00-.2-.32l-27.87-6.35a.27.27 0 00-.12.53zM142 184l31.84 10.39a.27.27 0 00.16-.51l-31.84-10.39a.27.27 0 00-.33.19.28.28 0 00.17.32zM307.69 141.1l13.73 17.55a.28.28 0 00.38 0 .28.28 0 000-.36l-13.72-17.55a.27.27 0 00-.38 0 .28.28 0 00-.01.36z"/><path class="cls-79" d="M267.15 177.32l-37-15.68a.28.28 0 00-.35.16.26.26 0 00.14.33l37 15.68a.26.26 0 00.35-.15.27.27 0 00-.14-.34zM321.76 158.72l11.74-6.62a.27.27 0 00.09-.37.27.27 0 00-.35-.1l-11.74 6.62a.27.27 0 00.26.47zM150.47 157.74l-8.68 25.89a.27.27 0 00.51.17l8.7-25.89a.27.27 0 00-.19-.33.28.28 0 00-.34.16zM289.85 211.05l37.84 12.45a.26.26 0 00.16-.5L290 210.54a.27.27 0 00-.34.17.28.28 0 00.17.34zM376.63 194.36l6.55 5.41a.27.27 0 00.34-.41L377 194a.27.27 0 00-.38.06.26.26 0 00.01.3z"/><path d="M36.08 160.92l60.2 14a.27.27 0 00.32-.2.28.28 0 00-.2-.33l-60.2-14a.26.26 0 00-.3.22.28.28 0 00.18.31z" fill-opacity=".23" fill="#fff2bd" opacity=".62"/><path class="cls-79" d="M387.5 129.84l14.59-19.37a.26.26 0 10-.42-.32l-14.6 19.36a.27.27 0 00.06.38.27.27 0 00.37 0zM321.08 213.75l6.47 9.65a.26.26 0 00.37 0 .26.26 0 00.07-.35l-6.46-9.64a.27.27 0 00-.38-.06.26.26 0 00-.07.4zM189.72 218.67l7.91 15.33a.27.27 0 00.37.11.27.27 0 00.11-.36l-7.91-15.31a.27.27 0 00-.37-.11.27.27 0 00-.11.34z"/><path class="cls-79" d="M197.87 233.59l-18.11.43a.26.26 0 00-.26.27.27.27 0 00.27.26l18.11-.43a.27.27 0 100-.53zM392.32 142l21.43 18.44a.25.25 0 00.37 0 .27.27 0 000-.38l-21.43-18.44a.27.27 0 00-.38.06.29.29 0 00.01.32zM162.82 159.18l16.15-6.6a.27.27 0 00.13-.35.26.26 0 00-.33-.14l-16.15 6.6a.26.26 0 00-.14.35.27.27 0 00.34.14zM231 154.21l-17.09 19.49a.27.27 0 000 .38.28.28 0 00.38 0l17.09-19.48a.27.27 0 10-.4-.36z"/><path class="cls-79" d="M162.74 158.67l-12-1.11a.27.27 0 00-.05.54l12 1.1a.27.27 0 00.31-.2.28.28 0 00-.26-.33zM321.33 213.34L290 210.53a.27.27 0 00-.28.25.28.28 0 00.23.28l31.37 2.81a.27.27 0 00.28-.26.28.28 0 00-.27-.27z"/><path d="M57.24 177.81L142 184a.27.27 0 00.27-.26.27.27 0 00-.23-.27l-84.78-6.18a.27.27 0 100 .54z" fill-opacity=".09" fill="#fff2bd" opacity=".62"/><path class="cls-79" d="M224.37 187.72l20.42 8.79a.27.27 0 00.21-.51l-20.42-8.79a.27.27 0 00-.34.17.26.26 0 00.13.34zM162.51 158.76l-20.67 24.79a.25.25 0 000 .37.27.27 0 00.37 0l20.67-24.79a.25.25 0 000-.37.27.27 0 00-.37 0z"/><path class="cls-79" d="M229.8 161.83l-5.59 25.59a.28.28 0 00.21.32.27.27 0 00.32-.21l5.59-25.59a.28.28 0 00-.21-.32.27.27 0 00-.32.21zM189.73 218.4l-10.19 15.74a.27.27 0 10.45.29l10.19-15.74a.26.26 0 00-.08-.37.27.27 0 00-.37.08zM301.67 202.07l-11.89 8.51a.27.27 0 10.31.43L302 202.5a.26.26 0 000-.37.25.25 0 00-.33-.06zM36 160.86l21.12 16.89a.27.27 0 00.38-.06.27.27 0 000-.36l-21.19-16.88a.27.27 0 00-.38.05.27.27 0 00.07.36zM387 129.78l5.21 12.12a.26.26 0 00.35.14.26.26 0 00.14-.35l-5.21-12.12a.26.26 0 00-.35-.14.27.27 0 00-.14.35z"/><path class="cls-79" d="M301.69 202.52l19.48 11.32a.27.27 0 10.27-.47L302 202.06a.27.27 0 10-.27.46zM307.8 141.18l25.47 10.93a.27.27 0 00.35-.14.26.26 0 00-.14-.35L308 140.68a.27.27 0 00-.35.14.27.27 0 00.15.36zM190.07 218.79l23.16-10.24a.27.27 0 00.13-.35.26.26 0 00-.35-.14l-23.16 10.24a.27.27 0 00-.14.36.28.28 0 00.36.13z"/><path d="M379.44 189.57l3.66 10.09a.28.28 0 00.35.15.27.27 0 00.15-.34l-3.66-10.08a.26.26 0 00-.35-.15.26.26 0 00-.15.33z" fill-opacity=".26" fill="#fff2bd" opacity=".62"/><path class="cls-79" d="M229.9 161.67l-16 12a.27.27 0 00.32.43l16-12a.27.27 0 00.05-.37.27.27 0 00-.37-.06zM276.21 197.41L289.75 211a.27.27 0 00.38 0 .27.27 0 000-.36L276.59 197a.26.26 0 00-.38 0 .28.28 0 000 .38zM174.19 217.06l15.74 1.75a.25.25 0 00.29-.23.27.27 0 00-.23-.3l-15.74-1.75a.27.27 0 00-.06.53z"/><path class="cls-79" d="M174 216.88l5.54 17.48a.27.27 0 00.51-.16l-5.54-17.49a.27.27 0 00-.34-.17.27.27 0 00-.17.34zM224.24 187.35l-11.36 20.83a.27.27 0 10.47.25l11.36-20.83a.27.27 0 00-.47-.25zM383.94 124.14l8.31 17.77a.27.27 0 00.49-.23l-8.31-17.76a.26.26 0 00-.36-.13.26.26 0 00-.13.35zM419.86 83l2.31 10.62a.27.27 0 00.33.19.28.28 0 00.2-.3l-2.32-10.63a.27.27 0 00-.52.12z"/><path class="cls-79" d="M213.9 174l10.36 13.61a.28.28 0 00.38 0 .27.27 0 00.05-.36l-10.37-13.6a.26.26 0 00-.42.32z"/><path class="cls-79" d="M213.84 173.87l-1 34.43a.27.27 0 00.54 0l1-34.43a.27.27 0 00-.26-.27.28.28 0 00-.28.27zM232.62 170.16l-2.3-8.34a.25.25 0 00-.33-.18.26.26 0 00-.18.32l2.29 8.34a.27.27 0 10.52-.14zM384 124.16l3.1 5.64a.27.27 0 00.37.09.26.26 0 00.1-.34l-3.1-5.65a.27.27 0 00-.47.26zM301.88 202l-25.42-5a.26.26 0 00-.31.22.27.27 0 00.2.3l25.42 5.07a.27.27 0 00.31-.22.29.29 0 00-.2-.37zM148.56 239.47l31.25-4.92a.26.26 0 00.22-.31.25.25 0 00-.3-.22l-31.25 4.92a.27.27 0 00-.23.3.28.28 0 00.31.23z"/><path class="cls-79" d="M232.12 170.12l-7.89 17.24a.27.27 0 00.15.35.26.26 0 00.34-.13l7.88-17.24a.26.26 0 00-.14-.35.26.26 0 00-.34.13zM154.15 204.16l35.71 14.64a.27.27 0 00.2-.5l-35.71-14.63a.25.25 0 00-.34.15.27.27 0 00.14.34zM308.05 141.15l17-11a.27.27 0 00-.29-.45l-17 11a.28.28 0 00-.07.38.27.27 0 00.36.07zM363.68 129.92h23.61a.27.27 0 100-.53h-23.61a.27.27 0 000 .54z"/><path class="cls-79" d="M296.39 142.56l11.55-1.36a.27.27 0 00.23-.3.28.28 0 00-.3-.24L296.33 142a.28.28 0 00-.24.3.27.27 0 00.3.26zM147.28 185.22l-5.15-1.76a.27.27 0 00-.33.18.27.27 0 00.15.33l5.15 1.76a.27.27 0 00.18-.51zM324.69 130.05l8.43 21.95a.27.27 0 00.5-.19l-8.43-21.91a.26.26 0 00-.35-.15.25.25 0 00-.15.3zM379.46 189.34l-2.89 4.66a.27.27 0 00.08.37.26.26 0 00.37-.09l2.9-4.67a.28.28 0 00-.09-.37.26.26 0 00-.37.1zM232.31 170l-18.25 3.64a.27.27 0 00.1.53l18.25-3.65a.26.26 0 00-.1-.52z"/><path class="cls-79" d="M275.23 142.57l32.69-1.37a.27.27 0 000-.54L275.2 142a.26.26 0 00-.25.27.26.26 0 00.28.3zM174.05 216.59L148.34 239a.27.27 0 000 .38.27.27 0 00.35 0L174.4 217a.27.27 0 00-.35-.41zM363.75 129.91l20.5-5.62a.27.27 0 00-.14-.52l-20.5 5.62a.27.27 0 10.14.52z"/><path class="cls-79" d="M154.11 204.14l20 12.88a.26.26 0 00.37-.09.27.27 0 00-.08-.36l-20-12.88a.26.26 0 00-.37.09.26.26 0 00.08.36zM333.62 151.76l-2.62-6.14a.27.27 0 00-.35-.13.25.25 0 00-.14.34l2.64 6.14a.27.27 0 00.49-.21zM287.66 193.3l14 9.21a.27.27 0 00.29-.45l-14-9.21a.27.27 0 00-.36.09.27.27 0 00.07.36zM384.41 123.89l-12.39-21a.27.27 0 00-.37-.08.28.28 0 00-.09.35l12.39 21a.28.28 0 00.37.09.27.27 0 00.09-.36z"/><path class="cls-79" d="M147 185.65L174 217a.27.27 0 00.38 0 .28.28 0 000-.38l-27-31.32a.28.28 0 00-.38 0 .27.27 0 000 .35zM266.9 189.12l9.33 8.3a.26.26 0 00.37 0 .27.27 0 000-.38l-9.33-8.3a.27.27 0 00-.38 0 .28.28 0 00.01.38z"/><path class="cls-79" d="M287.72 192.83L276.31 197a.25.25 0 00-.15.34.26.26 0 00.34.16l11.4-4.14a.27.27 0 10-.18-.5z"/><path d="M420 82.66l-48.33 20.08a.26.26 0 00.2.49l48.33-20.07a.27.27 0 00-.2-.5z" fill-opacity=".29" fill="#fff2bd" opacity=".62"/><path class="cls-79" d="M363.94 129.73l8.11-26.67a.27.27 0 00-.52-.15l-8.1 26.66a.27.27 0 10.51.16zM296.46 142.54L325 130.2a.27.27 0 00-.21-.49l-28.58 12.34a.27.27 0 00.21.49zM154 203.87l-5.73 35.29a.26.26 0 00.22.3.26.26 0 00.3-.21l5.73-35.25a.28.28 0 00-.23-.31.27.27 0 00-.29.18z"/><path d="M391.68 183.93l-15 10a.27.27 0 000 .38.27.27 0 00.35.06l15-10a.27.27 0 00-.3-.45z" fill-opacity=".23" fill="#fff2bd" opacity=".62"/><path class="cls-79" d="M232.23 170.47L267 189.15a.26.26 0 00.36-.12.28.28 0 00-.11-.35L232.49 170a.26.26 0 00-.36.12.26.26 0 00.1.35zM330.85 146l32.95-16.08a.27.27 0 10-.24-.48l-32.94 16.08a.27.27 0 10.23.48zM264.08 145.17l32.3-2.61a.27.27 0 00.23-.3.28.28 0 00-.27-.24L264 144.64a.26.26 0 00-.23.3.27.27 0 00.31.23z"/><path class="cls-79" d="M275.22 142.57h21.14a.27.27 0 100-.54h-21.14a.27.27 0 100 .53zM146.94 185.57L154 204a.26.26 0 00.35.15.26.26 0 00.15-.34l-7.06-18.44a.26.26 0 00-.35-.15.26.26 0 00-.15.35zM324.68 130.05l5.8 15.77a.26.26 0 00.35.15.26.26 0 00.15-.33l-5.79-15.78a.26.26 0 00-.35-.15.28.28 0 00-.16.34zM263.79 144.92l3 44a.27.27 0 00.28.25.27.27 0 00.25-.29l-3-44a.27.27 0 10-.53 0z"/><path class="cls-79" d="M287.86 192.82l-20.73-4.16a.26.26 0 00-.31.21.26.26 0 00.2.31l20.73 4.16a.26.26 0 00.31-.22.25.25 0 00-.2-.3zM264.12 145.16l11.16-2.6a.27.27 0 00.2-.32.28.28 0 00-.33-.2l-11.15 2.6a.26.26 0 00-.2.32.25.25 0 00.32.2zM406.75 97.55l13.57-14.46a.28.28 0 000-.38.27.27 0 00-.38 0l-13.58 14.48a.26.26 0 000 .37.27.27 0 00.38 0z"/><path class="cls-79" d="M262.12 160.53l4.69 28.47a.27.27 0 00.53-.08l-4.69-28.44a.27.27 0 00-.32-.21.27.27 0 00-.21.26zM391.72 183.91l-12.14 5.32a.27.27 0 00-.14.36.28.28 0 00.36.13l12.14-5.32a.27.27 0 00.13-.35.26.26 0 00-.35-.14z"/><path class="cls-79" d="M262.65 160.52l1.67-15.59a.25.25 0 00-.23-.29.27.27 0 00-.3.23l-1.67 15.59a.26.26 0 00.23.29.27.27 0 00.3-.23z"/><path class="cls-79" d="M262.6 160.64l12.83-18.18a.26.26 0 00-.08-.37.25.25 0 00-.35.06l-12.84 18.18a.28.28 0 00.07.38.27.27 0 00.37-.07zM406.51 97.1l-34.76 5.62a.26.26 0 00-.22.31.27.27 0 00.3.22l34.77-5.62a.27.27 0 00.22-.31.28.28 0 00-.31-.22zM297.12 117.79l27.71 12.41a.26.26 0 00.35-.14.27.27 0 00-.13-.35l-27.71-12.41a.27.27 0 00-.35.16.28.28 0 00.13.33zM212.05 173.92l20.35-3.43a.26.26 0 00-.09-.52L212 173.39a.27.27 0 00-.2.32.27.27 0 00.25.21z"/><path d="M408.51 166l-29 23.26a.27.27 0 000 .38.29.29 0 00.37 0l29-23.26a.27.27 0 000-.38.26.26 0 00-.37 0z" fill-opacity=".26" fill="#fff2bd" opacity=".62"/><path class="cls-79" d="M344.78 97.65l27 5.6a.27.27 0 00.1-.53l-26.95-5.6a.28.28 0 00-.31.22.26.26 0 00.16.31zM281.41 196.38l-14.21-7.7a.27.27 0 10-.25.47l14.21 7.7a.26.26 0 00.35-.14.27.27 0 00-.1-.33z"/><path class="cls-79" d="M281.42 196.85l6.52-3.54a.26.26 0 00.1-.36.27.27 0 00-.36-.11l-6.52 3.54a.27.27 0 00-.08.37.28.28 0 00.34.1zM297.06 149.58l33.7-3.59a.26.26 0 00.24-.29.28.28 0 00-.3-.24l-33.7 3.59a.28.28 0 00-.24.3.27.27 0 00.3.23z"/><path class="cls-79" d="M268.68 195.39l19.16-2a.27.27 0 00-.06-.53l-19.16 2.05a.26.26 0 00-.24.29.27.27 0 00.3.19zM212.07 173.91l50.38-13.16a.27.27 0 00.19-.33.26.26 0 00-.33-.19l-50.37 13.16a.27.27 0 00-.17.34.26.26 0 00.3.18zM396.74 137.53l-5.18 46.6a.27.27 0 00.54.06l5.17-46.6a.26.26 0 00-.26-.27.28.28 0 00-.27.21z"/><path class="cls-79" d="M408.48 166l-16.85 18a.28.28 0 000 .38.27.27 0 00.35 0l16.85-17.94a.28.28 0 000-.38.27.27 0 00-.35-.06zM252.37 177.49l10.24-16.86a.27.27 0 00-.46-.28l-10.24 16.86a.26.26 0 00.09.37.27.27 0 00.37-.09zM397.26 137.62l9.56-40.19a.28.28 0 00-.23-.31.26.26 0 00-.29.19l-9.56 40.19a.28.28 0 00.23.31.26.26 0 00.29-.19z"/><path d="M408.94 166.21l-2.12-68.85a.26.26 0 00-.27-.26.27.27 0 00-.26.28l2.11 68.85a.28.28 0 00.28.26.28.28 0 00.26-.28z" fill-opacity=".2" fill="#fff2bd" opacity=".62"/><path class="cls-79" d="M268.91 195.08l-6.26-34.64a.28.28 0 00-.32-.22.27.27 0 00-.21.32l6.26 34.63a.27.27 0 00.32.21.25.25 0 00.21-.3zM396.76 137.66l11.67 28.66a.27.27 0 00.35.13.28.28 0 00.14-.33l-11.67-28.66a.26.26 0 10-.49.2zM297 117.54l-.2 31.78a.27.27 0 00.27.26.25.25 0 00.27-.26l.19-31.78a.26.26 0 00-.26-.27.27.27 0 00-.27.27z"/><path class="cls-79" d="M281.44 196.39l-29.16-19.26a.27.27 0 00-.37.07.28.28 0 00.08.38l29.15 19.26a.27.27 0 00.37-.07.28.28 0 00-.07-.38z"/><path class="cls-79" d="M212 173.92l40.13 3.7a.26.26 0 00.28-.25.26.26 0 00-.23-.28l-40.18-3.7a.26.26 0 00-.28.25.26.26 0 00.28.28zM268.62 195.39l12.64 1.49a.25.25 0 00.29-.23.26.26 0 00-.23-.3l-12.64-1.49a.26.26 0 00-.3.23.27.27 0 00.24.3z"/><path d="M211.91 173.9l56.64 21.47a.27.27 0 00.35-.16.27.27 0 00-.16-.34L212.1 173.4a.26.26 0 00-.34.16.27.27 0 00.15.34z" fill-opacity=".24" fill="#fff2bd" opacity=".62"/><path class="cls-79" d="M268.84 194.94l-16.51-17.77a.27.27 0 00-.38 0 .28.28 0 000 .38l16.51 17.77a.28.28 0 00.38 0 .26.26 0 000-.38zM297.39 117.75l30.73-24.36a.26.26 0 000-.38.27.27 0 00-.37 0l-30.73 24.36a.26.26 0 000 .38.27.27 0 00.37 0zM376.62 107.41l30-9.79a.25.25 0 00.17-.33.27.27 0 00-.34-.18l-30 9.79a.26.26 0 00-.17.34.26.26 0 00.34.17z"/><path class="cls-79" d="M327.89 93.44l16.88 4.21a.28.28 0 00.33-.2.26.26 0 00-.2-.32L328 92.92a.27.27 0 00-.13.52zM397.23 137.41L376.76 107a.27.27 0 00-.44.3l20.46 30.41a.27.27 0 00.37.08.28.28 0 00.08-.38z"/><path class="cls-79" d="M376.62 106.9l-31.7-9.77a.26.26 0 00-.33.19.26.26 0 00.17.32l31.7 9.77a.28.28 0 00.34-.18.27.27 0 00-.18-.33z"/><path d="M248.6 107l48.57 10.84a.27.27 0 00.31-.22.27.27 0 00-.2-.3l-48.57-10.84a.28.28 0 00-.32.2.27.27 0 00.21.32z" fill-opacity=".25" fill="#fff2bd" opacity=".62"/><path d="M248.48 106.9l48.37 42.62a.27.27 0 00.38 0 .28.28 0 000-.37l-48.4-42.65a.27.27 0 00-.35.4z" fill-opacity=".2" fill="#fff2bd" opacity=".62"/><path class="cls-79" d="M282.36 148.94l14.66.64a.27.27 0 100-.53l-14.66-.64a.27.27 0 00-.28.25.26.26 0 00.28.28z"/><path d="M346.79 97.13h-2a.27.27 0 100 .53h2a.27.27 0 00.27-.27.28.28 0 00-.27-.26z" fill-opacity=".23" fill="#fff2bd" opacity=".62"/><path d="M248.7 107L328 93.44a.26.26 0 10-.09-.52l-79.3 13.52a.26.26 0 10.09.52z" fill-opacity=".16" fill="#fff2bd" opacity=".62"/><path class="cls-79" d="M346.85 97.14L328 92.92a.28.28 0 00-.32.2.27.27 0 00.21.32l18.83 4.22a.27.27 0 00.12-.52zM248.45 106.87l33.71 42a.27.27 0 00.38 0 .28.28 0 000-.36l-33.72-42a.26.26 0 00-.37 0 .27.27 0 000 .36z"/><path class="cls-79" d="M346.71 97.66l29.75 9.75a.27.27 0 00.33-.19.26.26 0 00-.17-.32l-29.75-9.75a.25.25 0 00-.33.18.27.27 0 00.17.33z"/><path class="cls-104" d="M214.44 58.4a.47.47 0 010 .93.47.47 0 010-.93zM188.19 67.29a.47.47 0 11-.47.47.47.47 0 01.47-.47z"/><circle class="cls-104" cx="207.8" cy="59.18" r=".47"/><path class="cls-104" d="M181.84 50.6a.48.48 0 010 .95.48.48 0 110-.95zM157.7 49.56a.48.48 0 11-.47.47.47.47 0 01.47-.47zM212.34 44.82a.48.48 0 11-.47.48.47.47 0 01.47-.48zM162.54 68.54a.49.49 0 01.46.46.48.48 0 01-1 0 .49.49 0 01.54-.46zM145.91 53.1a.48.48 0 11-.47.48.48.48 0 01.47-.48zM142.05 34.26a.49.49 0 01.48.48.48.48 0 01-1 0 .49.49 0 01.52-.48zM201 37.45a.48.48 0 11-.48.48.47.47 0 01.48-.48zM173.64 34.33a.48.48 0 01.48.48.49.49 0 11-.48-.48zM134.86 60.25a.49.49 0 11-.49.48.49.49 0 01.49-.48zM143 59.52a.48.48 0 11-.49.48.48.48 0 01.49-.48zM119.35 39.55a.49.49 0 11-.49.48.49.49 0 01.49-.48zM196.09 48.27a.49.49 0 11-.49.49.48.48 0 01.49-.49zM103.66 24.87a.48.48 0 01.49.48.49.49 0 01-1 0 .48.48 0 01.51-.48zM108.09 46.35a.49.49 0 11-.49.49.49.49 0 01.49-.49zM185.9 45.55a.49.49 0 11-.49.49.49.49 0 01.49-.49zM89.61 30.36a.49.49 0 11-.49.49.49.49 0 01.49-.49zM189 63.53a.49.49 0 11-.5.49.49.49 0 01.5-.49z"/><circle class="cls-104" cx="120.96" cy="63.12" r=".49"/><path class="cls-104" d="M254 118a.5.5 0 11-.49.49.49.49 0 01.49-.49zM145.25 101.84a.49.49 0 11-.49.49.49.49 0 01.49-.49zM120 41.6a.49.49 0 11-.49.49.49.49 0 01.49-.49zM162.55 80.2a.49.49 0 01.49.49.5.5 0 01-.49.5.51.51 0 01-.5-.5.5.5 0 01.5-.49zM62.21 52.29a.49.49 0 11-.49.49.49.49 0 01.49-.49zM102.16 57.64a.5.5 0 11-.49.49.49.49 0 01.49-.49zM164.36 53a.5.5 0 01.5.5.5.5 0 01-1 0 .5.5 0 01.5-.5zM146.06 59.16a.49.49 0 110 1 .49.49 0 110-1zM133.66 68.93a.5.5 0 01.49.5.5.5 0 01-1 0 .5.5 0 01.51-.5zM175 74.89a.5.5 0 11-.5.5.49.49 0 01.5-.5zM259.65 131.66a.5.5 0 11-.5.5.49.49 0 01.5-.5zM132.25 100a.5.5 0 11-.5.5.49.49 0 01.5-.5zM249 119.3a.5.5 0 11-.49.49.49.49 0 01.49-.49zM240.2 112.25a.5.5 0 01.5.5.51.51 0 01-.5.5.5.5 0 01-.5-.5.5.5 0 01.5-.5zM137 30.49a.5.5 0 01.5.5.51.51 0 01-.5.5.5.5 0 01-.5-.5.5.5 0 01.5-.5zM247.62 118.14a.5.5 0 11-.5.49.49.49 0 01.5-.49zM119.14 62.39a.5.5 0 010 1 .5.5 0 010-1zM125.81 104.68a.5.5 0 01.5.5.5.5 0 01-.5.5.51.51 0 01-.5-.5.5.5 0 01.5-.5z"/><circle class="cls-104" cx="231.93" cy="113.49" r=".5"/><path class="cls-104" d="M37.84 72.7a.5.5 0 01.5.5.5.5 0 01-1 0 .5.5 0 01.5-.5zM240.22 111.87a.5.5 0 01.5.5.5.5 0 01-.5.5.5.5 0 01-.5-.5.51.51 0 01.5-.5zM99.88 35.88a.5.5 0 01.5.5.5.5 0 01-1 0 .5.5 0 01.5-.5zM229.21 165a.5.5 0 11-.5.5.5.5 0 01.5-.5zM124.14 56.25a.51.51 0 11-.51.51.51.51 0 01.51-.51zM89.53 68.91a.51.51 0 11-.5.51.5.5 0 01.5-.51zM224.09 109.43a.51.51 0 11-.5.5.5.5 0 01.5-.5zM224.53 91.37a.51.51 0 01.51.51.5.5 0 01-.51.5.5.5 0 01-.5-.5.5.5 0 01.5-.51zM70.89 11.45a.51.51 0 01.51.51.5.5 0 01-.51.5.5.5 0 01-.5-.5.5.5 0 01.5-.51zM155.38 112.87a.5.5 0 01.5.51.5.5 0 01-.5.5.5.5 0 01-.51-.5.51.51 0 01.51-.51zM85.14 46.93a.5.5 0 01.5.51.5.5 0 01-.5.5.5.5 0 01-.51-.5.51.51 0 01.51-.51zM167.8 167.31a.5.5 0 01.5.51.5.5 0 01-.5.5.5.5 0 01-.51-.5.51.51 0 01.51-.51zM84 .33a.5.5 0 01.51.5.51.51 0 01-.51.51.5.5 0 01-.5-.51.5.5 0 01.5-.5zM140.32 109.2a.5.5 0 01.51.5.51.51 0 01-.51.51.5.5 0 01-.5-.51.5.5 0 01.5-.5zM82.28 74.09a.5.5 0 01.5.51.5.5 0 01-.5.5.5.5 0 01-.51-.5.51.51 0 01.51-.51zM224.63 97.14a.5.5 0 01.51.5.51.51 0 01-.51.51.5.5 0 01-.5-.51.5.5 0 01.5-.5zM113.12 116.23a.51.51 0 010 1 .51.51 0 010-1zM110 12.26a.51.51 0 11-.51.51.51.51 0 01.51-.51zM74.06 59.48a.51.51 0 11-.51.51.51.51 0 01.51-.51z"/><circle class="cls-104" cx="117.03" cy="59.41" r=".51"/><path class="cls-104" d="M222.7 110.76a.51.51 0 010 1 .51.51 0 110-1zM196.17 106.15a.5.5 0 01.5.5.5.5 0 01-.5.51.51.51 0 01-.51-.51.5.5 0 01.51-.5zM279.63 197.4a.51.51 0 11-.51.5.5.5 0 01.51-.5zM125.6 93.64a.51.51 0 11-.51.51.51.51 0 01.51-.51z"/><circle class="cls-104" cx="24" cy="76.36" r=".51"/><path class="cls-104" d="M91.82 0a.51.51 0 11-.51.51.51.51 0 01.51-.51zM221.21 157.3a.51.51 0 01.51.51.51.51 0 01-1 0 .51.51 0 01.49-.51zM97.34 84.67a.51.51 0 01.51.51.51.51 0 01-1 0 .51.51 0 01.49-.51zM46.72 25.87a.51.51 0 11-.51.51.51.51 0 01.51-.51zM151.65 159.51a.51.51 0 11-.51.51.51.51 0 01.51-.51zM24 58.31a.52.52 0 11-.51.52.52.52 0 01.51-.52zM67.38 82a.52.52 0 11-.51.52.51.51 0 01.51-.52zM5 65.3a.52.52 0 010 1 .52.52 0 010-1z"/><circle class="cls-104" cx="224.54" cy="113.51" r=".51"/><path class="cls-104" d="M44.78 78.1a.52.52 0 11-.52.51.51.51 0 01.52-.51z"/><circle class="cls-104" cx="214.61" cy="109.57" r=".51"/><path class="cls-104" d="M23 56a.52.52 0 11-.52.52A.51.51 0 0123 56zM21.79 63.89a.52.52 0 11-.51.52.52.52 0 01.51-.52zM.52 40.36a.52.52 0 11-.52.51.51.51 0 01.52-.51zM21.46 79a.52.52 0 01.52.52.52.52 0 01-1 0 .52.52 0 01.48-.52z"/><circle class="cls-104" cx="167.27" cy="113.25" r=".52"/><path class="cls-104" d="M21.72 36.33a.52.52 0 01.51.52.52.52 0 11-1 0 .52.52 0 01.49-.52zM82.35 56a.52.52 0 01.52.52.52.52 0 11-1 0 .52.52 0 01.48-.52zM12.11 32.05a.52.52 0 11-.52.52.51.51 0 01.52-.52zM97.15 125.39a.52.52 0 11-.51.51.51.51 0 01.51-.51zM125.71 147.17a.52.52 0 01.51.52.52.52 0 11-1 0 .52.52 0 01.49-.52zM262.92 178a.53.53 0 01.52.52.52.52 0 01-.52.52.52.52 0 01-.52-.52.52.52 0 01.52-.52zM201 116.62a.52.52 0 110 1 .52.52 0 110-1zM244.74 235.24a.52.52 0 01.52.52.52.52 0 01-.52.52.52.52 0 01-.52-.52.53.53 0 01.52-.52zM256.64 233.05a.52.52 0 11-.52.52.52.52 0 01.52-.52zM267.59 198.81a.52.52 0 01.52.52.52.52 0 11-1 0 .52.52 0 01.48-.52zM210.42 156.44a.52.52 0 11-.53.52.52.52 0 01.53-.52zM53.64 108.46a.53.53 0 11-.52.53.52.52 0 01.52-.53zM204.25 115a.53.53 0 11-.52.53.52.52 0 01.52-.53zM265.54 203.51a.52.52 0 11-.53.52.52.52 0 01.53-.52zM379.4 228.77a.53.53 0 11-.52.53.52.52 0 01.52-.53zM83.36 119.38a.52.52 0 01.53.52.53.53 0 01-.53.53.52.52 0 01-.52-.53.52.52 0 01.52-.52zM208.68 118a.52.52 0 01.53.52.53.53 0 01-.53.53.52.52 0 01-.52-.53.52.52 0 01.52-.52zM12.78 83.58a.53.53 0 010 1.06.53.53 0 110-1.06z"/><circle class="cls-104" cx="224.23" cy="230.23" r=".53"/><path class="cls-104" d="M53.91 106a.52.52 0 01.52.52.52.52 0 01-.52.53.53.53 0 01-.53-.53.52.52 0 01.53-.52zM53 111.19a.52.52 0 01.52.53.52.52 0 01-.52.52.52.52 0 01-.53-.52.53.53 0 01.53-.53z"/><circle class="cls-104" cx="205.3" cy="120.58" r=".53"/><path class="cls-104" d="M93.69 133.87a.52.52 0 01.53.52.53.53 0 01-.53.53.52.52 0 01-.52-.53.52.52 0 01.52-.52zM147.17 125.14a.52.52 0 01.52.53.52.52 0 01-.52.52.52.52 0 01-.53-.52.53.53 0 01.53-.53zM260.53 202.07a.53.53 0 110 1.05.53.53 0 010-1.05zM189.13 151.3a.52.52 0 01.52.52.52.52 0 01-.52.53.53.53 0 01-.53-.53.52.52 0 01.53-.52zM182.09 166.17a.52.52 0 01.52.52.53.53 0 11-1.05 0 .52.52 0 01.53-.52zM193 135.38a.53.53 0 010 1.06.53.53 0 010-1.06zM206.23 219.75a.52.52 0 01.53.52.53.53 0 11-1 0 .52.52 0 01.47-.52zM40.6 51.22a.52.52 0 01.53.52.53.53 0 11-1.05 0 .52.52 0 01.52-.52zM369.94 236.82a.53.53 0 11-.53.53.53.53 0 01.53-.53zM69.35 119.87a.53.53 0 11-.52.53.53.53 0 01.52-.53zM323.27 205.35a.52.52 0 01.52.53.53.53 0 11-1.05 0 .53.53 0 01.53-.53zM266.81 181.14a.53.53 0 11-.53.53.53.53 0 01.53-.53zM198.05 159.08a.53.53 0 010 1.06.53.53 0 110-1.06zM234.91 241.05a.53.53 0 11-.53.53.53.53 0 01.53-.53zM170.7 129.47a.52.52 0 01.53.53.53.53 0 01-.53.53.53.53 0 01-.53-.53.53.53 0 01.53-.53zM249.5 155.13a.53.53 0 010 1.06.53.53 0 010-1.06zM324.65 230.72a.53.53 0 11-.53.53.53.53 0 01.53-.53zM206 113.16a.53.53 0 010 1.06.53.53 0 010-1.06zM196.58 128.55a.53.53 0 01.53.53.53.53 0 01-1.06 0 .53.53 0 01.53-.53zM354.19 225.4a.53.53 0 110 1.06.53.53 0 110-1.06zM75.28 110.52a.53.53 0 11-.53.53.53.53 0 01.53-.53zM207.91 218.57a.54.54 0 01.54.53.54.54 0 11-.54-.53z"/><circle class="cls-104" cx="377.07" cy="239.59" r=".53"/><path class="cls-104" d="M162.86 122.41a.53.53 0 01.53.53.54.54 0 11-.53-.53zM181.18 125.85a.54.54 0 11-.53.54.54.54 0 01.53-.54zM158.38 118.3a.53.53 0 010 1.06.53.53 0 010-1.06zM272.28 225.36a.54.54 0 010 1.07.54.54 0 010-1.07zM138.19 122.52a.54.54 0 11-.53.54.54.54 0 01.53-.54zM328 214.9a.54.54 0 11-.53.53.54.54 0 01.53-.53zM36.86 103.08a.54.54 0 11-.53.54.54.54 0 01.53-.54zM17.62 85.94a.54.54 0 11-.54.53.53.53 0 01.54-.53zM268.75 243.06a.54.54 0 11-.54.54.54.54 0 01.54-.54zM191 156.87a.54.54 0 11-.53.54.54.54 0 01.53-.54zM241.72 244.16a.54.54 0 11-.54.54.54.54 0 01.54-.54zM243.09 180.12a.54.54 0 010 1.08.54.54 0 010-1.08zM126.62 135.86a.54.54 0 11-.54.54.54.54 0 01.54-.54zM322.42 200.49a.54.54 0 11-.53.53.54.54 0 01.53-.53zM188.11 132.57a.54.54 0 01.54.54.54.54 0 01-1.08 0 .54.54 0 01.54-.54zM248.47 181a.54.54 0 01.54.54.54.54 0 01-.54.54.55.55 0 01-.54-.54.54.54 0 01.54-.54z"/><circle class="cls-104" cx="250.35" cy="244.97" r=".54"/><path class="cls-104" d="M264.5 250.46a.54.54 0 01.54.54.54.54 0 01-.54.54.54.54 0 01-.5-.54.55.55 0 01.5-.54zM294 184.7a.54.54 0 11-.54.54.54.54 0 01.54-.54zM204.64 204.91a.54.54 0 11-.54.54.54.54 0 01.54-.54zM259 244.63a.55.55 0 01.54.55.54.54 0 11-1.08 0 .55.55 0 01.54-.55zM242.33 147.54a.55.55 0 01.54.55.54.54 0 01-1.08 0 .55.55 0 01.54-.55zM180.3 144a.54.54 0 11-.54.54.54.54 0 01.54-.54z"/><circle class="cls-104" cx="235.01" cy="235.94" r=".54"/><path class="cls-104" d="M202.05 162.75a.55.55 0 01.55.55.55.55 0 01-.55.54.54.54 0 01-.54-.54.55.55 0 01.54-.55zM225.72 179.57a.54.54 0 11-.54.54.54.54 0 01.54-.54zM144 114.66a.54.54 0 01.54.54.55.55 0 01-.54.55.55.55 0 01-.55-.55.55.55 0 01.55-.54zM345.61 250.81a.54.54 0 11-.54.54.54.54 0 01.54-.54zM60.74 104.26a.55.55 0 01.54.55.54.54 0 11-1.08 0 .55.55 0 01.54-.55zM302.5 221.79a.54.54 0 01.54.54.54.54 0 11-1.08 0 .54.54 0 01.54-.54zM86.26 152.67a.55.55 0 01.55.54.55.55 0 01-.55.55.55.55 0 01-.54-.55.54.54 0 01.54-.54zM247.91 245.48a.55.55 0 010 1.09.55.55 0 110-1.09zM369.67 249.51a.54.54 0 01.55.54.55.55 0 11-1.09 0 .54.54 0 01.54-.54zM129.9 97a.55.55 0 01.55.55.55.55 0 01-.55.54.54.54 0 01-.54-.54.55.55 0 01.54-.55zM367.69 237.61a.55.55 0 01.55.55.55.55 0 01-.55.54.54.54 0 01-.54-.54.55.55 0 01.54-.55zM313.38 188.29a.55.55 0 01.54.55.55.55 0 01-1.09 0 .55.55 0 01.55-.55zM134 90.14a.55.55 0 11-.55.55.55.55 0 01.55-.55zM371 238.42a.55.55 0 01.54.55.54.54 0 01-.54.54.55.55 0 01-.55-.54.55.55 0 01.55-.55zM180.33 142.94a.54.54 0 01.54.54.55.55 0 01-.54.55.55.55 0 01-.55-.55.55.55 0 01.55-.54zM120.67 107.31a.55.55 0 11-.55.55.55.55 0 01.55-.55zM173.26 148.39a.55.55 0 01.54.55.54.54 0 01-.54.54.55.55 0 01-.55-.54.55.55 0 01.55-.55zM170 135a.55.55 0 01.55.55.55.55 0 01-1.1 0 .55.55 0 01.55-.55zM166.07 144.68a.55.55 0 11-.55.55.55.55 0 01.55-.55zM219.19 215.76a.55.55 0 01.55.55.55.55 0 01-1.1 0 .55.55 0 01.55-.55zM312 243.44a.56.56 0 01.55.56.55.55 0 01-.55.54.54.54 0 01-.55-.54.55.55 0 01.55-.56zM161.49 152.75a.55.55 0 11-.55.55.55.55 0 01.55-.55zM163.71 124.36a.55.55 0 01.55.55.56.56 0 11-.55-.55zM249.3 137.22a.55.55 0 01.55.55.55.55 0 01-.55.55.55.55 0 01-.55-.55.54.54 0 01.55-.55zM314 231.1a.56.56 0 01.56.55.56.56 0 11-.56-.55zM187.31 175.28a.56.56 0 11-.56.56.56.56 0 01.56-.56zM257.74 169.08a.56.56 0 11-.55.55.55.55 0 01.55-.55zM294.65 238.94a.56.56 0 010 1.11.56.56 0 010-1.11zM379.15 237.92a.56.56 0 01.56.55.56.56 0 11-.56-.55zM231.33 159.36a.56.56 0 110 1.11.56.56 0 010-1.11zM312.67 190.8a.56.56 0 11-.56.56.56.56 0 01.56-.56zM285.69 239.72a.56.56 0 11-.56.56.56.56 0 01.56-.56zM158.67 119.53a.56.56 0 010 1.11.56.56 0 110-1.11zM54.57 159.41a.56.56 0 11-.57.59.56.56 0 01.57-.59zM153 149a.56.56 0 01.55.56.56.56 0 01-1.11 0 .56.56 0 01.56-.56zM40 105.47a.56.56 0 11-.56.55.55.55 0 01.56-.55zM248 238.24a.56.56 0 11-.56.56.56.56 0 01.56-.56zM281.57 242.36a.56.56 0 11-.56.56.56.56 0 01.56-.56zM279.64 236.07a.56.56 0 11-.56.56.56.56 0 01.56-.56zM272.12 235a.56.56 0 11-.56.56.56.56 0 01.56-.56zM248.33 122.62a.57.57 0 11-.56.56.57.57 0 01.56-.56zM353.26 232.79a.56.56 0 11-.56.56.56.56 0 01.56-.56zM128.73 98.79a.56.56 0 010 1.12.56.56 0 110-1.12zM205.31 195.16a.56.56 0 01.56.56.57.57 0 01-.56.57.58.58 0 01-.57-.57.57.57 0 01.57-.56zM120.84 146.5a.57.57 0 11-.56.57.56.56 0 01.56-.57z"/><circle class="cls-104" cx="257.4" cy="228.36" r=".56"/><path class="cls-104" d="M276.69 252.34a.56.56 0 110 1.12.56.56 0 110-1.12zM232.43 138.81a.57.57 0 11-.56.57.56.56 0 01.56-.57zM214.08 147.07a.56.56 0 01.56.56.57.57 0 01-.56.57.58.58 0 01-.57-.57.57.57 0 01.57-.56zM240.91 159.38a.57.57 0 01.57.56.58.58 0 01-.57.57.57.57 0 01-.56-.57.56.56 0 01.56-.56zM350.44 165.89a.57.57 0 11-.57.56.56.56 0 01.57-.56zM243.44 210.66a.57.57 0 11-.57.56.56.56 0 01.57-.56zM221.58 221a.57.57 0 11-.57.57.58.58 0 01.57-.57zM168.11 157.83a.57.57 0 11-.57.57.56.56 0 01.57-.57zM375.29 228.08a.57.57 0 11-.56.56.56.56 0 01.56-.56zM104.44 78.23a.57.57 0 11-.56.57.57.57 0 01.56-.57zM124.84 162.8a.57.57 0 110 1.13.57.57 0 110-1.13zM295.3 195.37a.58.58 0 01.57.57.57.57 0 01-.57.57.56.56 0 01-.57-.57.57.57 0 01.57-.57zM197.51 165.48a.57.57 0 11-.57.56.57.57 0 01.57-.56zM221.87 264.05a.56.56 0 01.57.57.57.57 0 01-.57.57.58.58 0 01-.57-.57.57.57 0 01.57-.57zM342.73 208a.57.57 0 01.57.57.58.58 0 01-.57.57.57.57 0 01-.57-.57.56.56 0 01.57-.57zM393.7 227.2a.58.58 0 01.57.57.57.57 0 01-.57.57.56.56 0 01-.57-.57.57.57 0 01.57-.57zM181.39 170a.58.58 0 11-.57.57.57.57 0 01.57-.57zM274.13 254a.58.58 0 11-.57.58.58.58 0 01.57-.58zM246 185.87a.57.57 0 11-.57.57.57.57 0 01.57-.57zM338.7 166.22a.58.58 0 11-.57.57.57.57 0 01.57-.57z"/><circle class="cls-104" cx="235.99" cy="154.66" r=".58"/><path class="cls-104" d="M195.85 209.63a.58.58 0 11-.58.58.58.58 0 01.58-.58zM414.14 181.79a.58.58 0 110 1.15.58.58 0 010-1.15zM195.43 140.6a.57.57 0 01.58.57.58.58 0 01-1.16 0 .57.57 0 01.58-.57zM252.94 172.59a.58.58 0 010 1.16.58.58 0 010-1.16zM386.21 232.11a.58.58 0 010 1.16.58.58 0 110-1.16zM257.46 245.05a.58.58 0 11-.58.58.58.58 0 01.58-.58zM158.06 153a.58.58 0 11-.58.58.58.58 0 01.58-.58zM209.54 254.84a.58.58 0 010 1.16.58.58 0 010-1.16zM268.15 197.42a.58.58 0 11-.58.58.58.58 0 01.58-.58zM387.33 217.33a.59.59 0 11-.58.58.58.58 0 01.58-.58zM220.76 241.07a.58.58 0 110 1.16.58.58 0 010-1.16zM161.49 182.26a.58.58 0 11-.58.58.58.58 0 01.58-.58z"/><circle class="cls-104" cx="381.82" cy="213.62" r=".58"/><path class="cls-104" d="M321.63 157.9a.59.59 0 110 1.17.59.59 0 010-1.17z"/><circle class="cls-104" cx="340.04" cy="182.23" r=".58"/><path class="cls-104" d="M96.34 174.09a.59.59 0 010 1.17.59.59 0 110-1.17zM231.2 153.8a.6.6 0 01.59.59.59.59 0 01-.59.58.58.58 0 01-.58-.58.59.59 0 01.58-.59zM349.17 219.37a.59.59 0 11-.58.58.58.58 0 01.58-.58zM401.88 109.72a.59.59 0 01.58.59.58.58 0 01-.58.58.59.59 0 01-.59-.58.6.6 0 01.59-.59zM383.35 199a.59.59 0 11-.59.58.59.59 0 01.59-.58zM173.88 193.52a.59.59 0 11-.59.58.59.59 0 01.59-.58zM267.05 177a.59.59 0 110 1.17.59.59 0 110-1.17zM235.06 226.52a.59.59 0 110 1.17.59.59 0 110-1.17zM178.87 151.75a.59.59 0 01.59.59.6.6 0 01-.59.59.59.59 0 01-.59-.59.58.58 0 01.59-.59zM197.87 233.27a.59.59 0 110 1.17.59.59 0 110-1.17zM244.89 195.68a.59.59 0 11-.59.59.59.59 0 01.59-.59zM150.72 157.24a.59.59 0 110 1.18.59.59 0 110-1.18zM413.92 159.65a.58.58 0 01.59.59.59.59 0 01-.59.59.6.6 0 01-.59-.59.59.59 0 01.59-.59zM327.77 222.66a.59.59 0 11-.59.59.58.58 0 01.59-.59zM289.94 210.2a.6.6 0 010 1.19.6.6 0 110-1.19zM422.44 92.94a.6.6 0 11-.6.6.6.6 0 01.6-.6zM142 183.12a.6.6 0 110 1.19.6.6 0 010-1.19zM57.26 177a.59.59 0 110 1.18.59.59 0 110-1.18zM230.06 161.29a.6.6 0 01.6.6.6.6 0 01-1.19 0 .6.6 0 01.59-.6zM321.3 213a.6.6 0 11-.59.6.6.6 0 01.59-.6zM392.49 141.2a.59.59 0 01.6.59.6.6 0 11-1.19 0 .59.59 0 01.59-.59zM190 218a.59.59 0 01.59.6.58.58 0 01-.59.59.59.59 0 01-.6-.59.6.6 0 01.6-.6zM179.77 233.69a.58.58 0 01.59.59.59.59 0 01-.59.6.6.6 0 01-.6-.6.59.59 0 01.6-.59zM307.91 140.33a.6.6 0 11-.6.6.6.6 0 01.6-.6zM162.72 158.34a.59.59 0 01.6.59.6.6 0 11-1.2 0 .59.59 0 01.6-.59zM333.37 151.26a.6.6 0 11-.6.6.6.6 0 01.6-.6zM376.8 193.55a.6.6 0 010 1.2.6.6 0 010-1.2zM224.48 186.88a.6.6 0 010 1.19.6.6 0 110-1.19zM387.29 129.08a.6.6 0 11-.6.59.59.59 0 01.6-.59zM213.12 207.71a.6.6 0 11-.6.6.6.6 0 01.6-.6zM36.14 160.06a.6.6 0 01.6.6.6.6 0 11-1.2 0 .6.6 0 01.6-.6zM301.82 201.69a.59.59 0 01.6.6.6.6 0 01-.6.6.6.6 0 01-.6-.6.6.6 0 01.6-.6zM174.22 216.2a.6.6 0 11-.6.6.6.6 0 01.6-.6zM214.11 173.27a.61.61 0 11-.6.6.6.6 0 01.6-.6zM384.18 123.43a.6.6 0 11-.6.6.6.6 0 01.6-.6zM276.4 196.62a.6.6 0 11-.6.6.6.6 0 01.6-.6zM420.12 82.3a.61.61 0 01.61.61.61.61 0 11-1.21 0 .6.6 0 01.6-.61zM363.68 129a.61.61 0 010 1.22.61.61 0 110-1.22zM232.36 169.62a.62.62 0 01.61.61.61.61 0 01-.61.61.61.61 0 01-.61-.61.61.61 0 01.61-.61zM324.94 129.35a.61.61 0 01.61.61.62.62 0 01-.61.61.61.61 0 01-.61-.61.61.61 0 01.61-.61zM296.36 141.68a.62.62 0 01.61.61.61.61 0 01-.61.61.61.61 0 01-.61-.61.61.61 0 01.61-.61zM148.52 238.59a.61.61 0 01.61.61.61.61 0 11-1.22 0 .61.61 0 01.61-.61zM154.25 203.3a.62.62 0 11-.61.61.61.61 0 01.61-.61zM379.69 188.87a.61.61 0 11-.61.61.61.61 0 01.61-.61zM371.79 102.37a.62.62 0 11-.61.61.61.61 0 01.61-.61zM267.07 188.31a.61.61 0 11-.61.61.61.61 0 01.61-.61zM264.06 144.29a.61.61 0 01.61.61.61.61 0 01-.61.62.62.62 0 01-.62-.62.61.61 0 01.62-.61zM287.81 192.46a.61.61 0 01.61.62.61.61 0 01-.61.61.61.61 0 01-.62-.61.62.62 0 01.62-.62zM147.19 184.86a.61.61 0 01.61.62.61.61 0 01-.61.61.61.61 0 01-.62-.61.62.62 0 01.62-.62zM275.22 141.69a.61.61 0 01.61.61.62.62 0 11-1.23 0 .61.61 0 01.62-.61zM330.73 145.11a.62.62 0 01.62.62.61.61 0 01-.62.61.61.61 0 01-.61-.61.61.61 0 01.61-.62zM262.38 159.87a.61.61 0 01.62.62.62.62 0 01-.62.62.62.62 0 01-.62-.62.62.62 0 01.62-.62zM391.83 183.53a.63.63 0 11-.63.63.63.63 0 01.63-.63zM406.56 96.74a.63.63 0 11-.63.63.63.63 0 01.63-.63zM297.23 116.91a.63.63 0 010 1.26.63.63 0 010-1.26zM397 136.93a.63.63 0 01.63.63.63.63 0 11-.63-.63zM408.67 165.59a.63.63 0 11-.63.63.63.63 0 01.63-.63zM281.29 196a.63.63 0 01.63.63.63.63 0 01-1.26 0 .63.63 0 01.63-.63zM344.84 96.76a.63.63 0 01.63.63.63.63 0 01-1.26 0 .63.63 0 01.63-.63zM212 173a.63.63 0 01.63.63.63.63 0 01-1.26 0 .63.63 0 01.63-.63zM252.14 176.72a.63.63 0 01.63.63.64.64 0 01-.63.64.64.64 0 01-.64-.64.64.64 0 01.64-.63zM297 148.68a.64.64 0 11-.63.64.64.64 0 01.63-.64zM268.65 194.49a.63.63 0 01.63.63.64.64 0 01-.63.64.64.64 0 01-.64-.64.64.64 0 01.64-.63zM328 92.54a.64.64 0 11-.64.64.65.65 0 01.64-.64zM376.54 106.51a.65.65 0 11-.64.64.65.65 0 01.64-.64zM248.66 106.05a.65.65 0 010 1.3.65.65 0 110-1.3zM282.37 148a.66.66 0 11-.66.66.66.66 0 01.66-.66zM346.79 96.74a.66.66 0 11-.66.66.65.65 0 01.66-.66z"/></g></g></g></svg>