<svg xmlns="http://www.w3.org/2000/svg" viewBox="0 0 38.14 36.12"><defs><style>.cls-1{fill:#08ade5}.cls-2{fill:#feb113}.cls-3{fill:#065977}</style></defs><g id="图层_2" data-name="图层 2"><g id="Layer_1" data-name="Layer 1"><path class="cls-1" d="M0 19.07c0-.7 0-1.4.12-2.1 0-.19 0-.37.07-.56v-.25-.11-.06h.14l2.2.36h.28a14.89 14.89 0 00-.21 2.21v.42c0 .14 0 0 0 0H0zM.42 15.07c.16-.68.33-1.35.55-2 .06-.19.12-.38.19-.57l.09-.23.05-.11v-.06h.05l.12.05 2.11.85.25.11c-.12.32-.23.64-.34 1s-.13.4-.18.6-.11.36-.15.55l-.09.41-.31-.06-2.21-.52H.42zM1.68 11.24c.22-.48.45-1 .71-1.41.15-.27.3-.54.46-.8l.33-.5 1.59 1.05.65.43v.09c0 .02-.19.28-.27.43s-.34.56-.49.85-.32.62-.46.94l-.2-.03-.95-.43-1.39-.62zM3.72 7.76A16.72 16.72 0 015.15 6c0-.06.59-.62.6-.61l.15.16 1.57 1.6.17.17a11.5 11.5 0 00-.9 1c-.29.34-.59.69-.85 1L4.35 8.23l-.63-.47z"/><path class="cls-2" d="M13.41 6.4c.14.3.27.59.4.89l.07.16s-.08.06-.11.07c-.35.16-.68.34-1 .53a10.87 10.87 0 00-1 .64c-.25.18-.49.37-.73.56a10.61 10.61 0 00-.86.78c-.21.2-.41.42-.6.64a11.17 11.17 0 00-1 1.34l-.81-.54-.15-.1.13-.18c.21-.3.43-.6.66-.88a12.51 12.51 0 011.35-1.52 13.86 13.86 0 011.67-1.3 15.26 15.26 0 012-1.09zM26.14 5.74l-.46.86a1.09 1.09 0 01-.08.15h-.11c-.34-.17-.69-.33-1-.48a12.35 12.35 0 00-2.13-.7l-.66-.17-.61-.11-.6-.07h-.62a14.45 14.45 0 00-2.08 0v-.07a1.64 1.64 0 000-.23c0-.21 0-.41-.05-.62v-.25h1.93a14.73 14.73 0 012.48.29 15.3 15.3 0 012.29.65 16.6 16.6 0 011.77.81z"/><path class="cls-1" d="M6.43 4.79l.45-.39c.24-.2.5-.39.75-.59.41-.31.84-.6 1.27-.87l1 1.61.42.66s-.05 0-.07.06l-.44.29c-.33.23-.66.48-1 .73l-.63.52-.14-.16c-.25-.27-.49-.55-.74-.83s-.61-.68-.91-1zM9.71 2.46a15.2 15.2 0 011.45-.74c.45-.2.9-.39 1.36-.57l.65 1.79.27.74h-.08l-.49.19a11.14 11.14 0 00-1.11.51c-.25.12-.49.24-.72.38-.32-.55-.63-1.11-.94-1.66l-.39-.69zM13.41.85a19.48 19.48 0 012-.5l1-.17v.19c.1.74.2 1.48.31 2.22v.27a15 15 0 00-2.19.46l-.39.11-.1-.31-.6-2.12V.87zM17.31.08C18 0 18.68 0 19.37 0h1.06V.23c-.06.75-.11 1.49-.16 2.24a2.45 2.45 0 010 .27h-2.61v-.31c-.06-.74-.13-1.48-.2-2.22V.08zM21.28.13l.59.07c.31 0 .63.11.94.17s.62.13.93.21l.58.15c-.18.61-.35 1.23-.53 1.84l-.21.75h-.09L23 3.17l-1.2-.24-.8-.12V2.6c0-.37.09-.74.13-1.1s.1-.92.16-1.37z"/><path class="cls-3" d="M0 19.07h2.69a2.53 2.53 0 010 .28c0 .37 0 .73.06 1.1a15.73 15.73 0 001 4.38 16.31 16.31 0 002.39 4.25 17.42 17.42 0 001.63 1.8c.3.28.61.56.93.82s.67.52 1 .76a16 16 0 004.06 2.06 16.61 16.61 0 009.59.31 16.72 16.72 0 004.21-1.82A16.33 16.33 0 0035.3 17.1a16 16 0 00-1.3-4.65 16.65 16.65 0 00-2.59-4.09 16.41 16.41 0 00-3.6-3.1 15.92 15.92 0 00-3.41-1.67c.2-.6.41-1.2.62-1.8.08-.25.17-.5.25-.74h.17l.47.17 1.09.5a19 19 0 014.12 2.56 19.25 19.25 0 015.63 7.61A19.44 19.44 0 0138 16.68a19 19 0 01-3.67 13.84 20.56 20.56 0 01-1.49 1.75c-.27.28-.55.55-.83.81s-.55.51-.84.74l-.15.11-.07-.09-.31-.39c-.25-.31-.5-.61-.74-.92 0 0-.12-.16-.14-.15-.25.2-.51.39-.77.58a15.27 15.27 0 01-1.62 1 17.06 17.06 0 01-4.25 1.66c-.4.1-.81.18-1.23.25s-.81.13-1.22.16l-1.26.07h-1.26a18.69 18.69 0 01-2-.23 15.56 15.56 0 01-2.42-.6 17.64 17.64 0 01-4.12-2 15.41 15.41 0 01-1.77-1.36l-.67-.61c-.05-.05-.61-.61-.61-.62-.46.44-.93.87-1.4 1.3l-.07.07S5 31.9 5 31.88c-.25-.28-.5-.56-.73-.86A21 21 0 013 29.29a18.47 18.47 0 01-2-4.23 19.16 19.16 0 01-.89-4.37c0-.35 0-.69-.06-1v-.58z"/><path class="cls-2" d="M3.5 19.07a16.72 16.72 0 00.1 1.73 14.61 14.61 0 00.4 2.08 15.56 15.56 0 005 8 15.3 15.3 0 004 2.48c.37.16.75.3 1.13.44a12.21 12.21 0 001.18.34c.41.1.81.18 1.23.26l.75.1c.41 0 .82.08 1.24.09h1.26a10.88 10.88 0 001.21-.08c.42 0 .83-.12 1.24-.2A15.36 15.36 0 0026 33a17.56 17.56 0 002-1.19 17.28 17.28 0 001.87-1.55 15.9 15.9 0 002-2.29 13.48 13.48 0 001-1.67c.22-.42.44-.86.62-1.3s.33-.87.47-1.31.23-.83.33-1.25a13.23 13.23 0 00.31-2c0-.35 0-.69.05-1s0-.62 0-.93a13.35 13.35 0 00-.22-2.09 15.29 15.29 0 00-.54-2.22 16.05 16.05 0 00-1.21-2.75 15.81 15.81 0 00-2.2-3c-.36-.37-.73-.74-1.12-1.08a16.56 16.56 0 00-1.9-1.43A15.67 15.67 0 0024 4.3a15.92 15.92 0 00-2.45-.6c-.42-.07-.85-.12-1.27-.15s-.85-.06-1.27 0-.83 0-1.25 0l-1.06.12-.3.06a6.18 6.18 0 00-.62.12l-.6.14c-.2 0-.4.11-.59.16a14.21 14.21 0 00-2.26.85 15.57 15.57 0 00-5.48 4.4 14.74 14.74 0 00-1.34 2 17.17 17.17 0 00-1 2.17 14.55 14.55 0 00-.67 2.34 14.78 14.78 0 00-.27 1.87v1.26h-.4c0-.58 0-1.16.1-1.74a15.69 15.69 0 012.24-6.56 15.89 15.89 0 017-6.18 17.88 17.88 0 012.32-.84c.4-.11.81-.21 1.22-.29l.73-.12c.42 0 .84-.1 1.26-.13s.85 0 1.27 0a17.89 17.89 0 012.53.23 15.81 15.81 0 017.7 3.69 14.94 14.94 0 012.4 2.63 15.79 15.79 0 011.55 2.63c.24.53.46 1.06.65 1.61.12.35.22.7.31 1a11.44 11.44 0 01.26 1.16c.07.37.12.74.17 1.11s.05.62.07.93 0 .41 0 .62V20.22c0 .36-.07.69-.11 1a15.54 15.54 0 01-.48 2.23 15.33 15.33 0 01-1.07 2.7 15 15 0 01-1.59 2.52 17 17 0 01-1.18 1.37A15.68 15.68 0 0129 31.52a18.26 18.26 0 01-2 1.32c-.57.32-1.15.6-1.74.87l-.57.22c-.39.15-.79.29-1.19.4s-.81.22-1.23.3-.82.15-1.24.21a16.56 16.56 0 01-2.54.11 15 15 0 01-2-.19 16.91 16.91 0 01-2.43-.6 18.09 18.09 0 01-2.23-.93 15.88 15.88 0 01-3.79-2.71 16.25 16.25 0 01-2.92-3.82 15.74 15.74 0 01-1.64-4.54 12.33 12.33 0 01-.23-1.6c0-.5-.06-1-.08-1.49z"/><path class="cls-3" d="M17 4.13L17.24 6v.2a8.05 8.05 0 00-1 .18 10.11 10.11 0 00-1.2.32c-.32.11-.64.22-1 .35h-.05c-.05 0 .01-.05.01-.15-.13-.33-.27-.67-.41-1l-.13.06-.46.17c-.32.15-.64.32-1 .5a13.71 13.71 0 00-1.85 1.26 14.15 14.15 0 00-1.78 1.68c-.28.34-.57.67-.83 1s-.38.55-.56.83l1.14.72c-.18.28-.35.56-.5.85s-.36.71-.5 1.07-.28.72-.4 1.08c-.07.21-.12.41-.18.62-.11.4-.18.81-.25 1.21a10 10 0 00-.14 1.21v.55a1.69 1.69 0 000 .23v.1H4v-.91-.58c0-.2 0-.4.08-.6a13.86 13.86 0 01.5-2.28 14.89 14.89 0 012.12-4.35c.29-.39.59-.78.91-1.15s.48-.54.73-.79.42-.38.66-.51l.47-.41c.16-.14.33-.26.5-.39a10.41 10.41 0 011-.72 16.23 16.23 0 012.1-1.12 14.5 14.5 0 012.13-.74 12.2 12.2 0 011.8-.36z"/><path class="cls-1" d="M6.92 26.68c-.2-.32-.4-.66-.58-1l1-.54.18-.1a13 13 0 006.94 6.16 8.07 8.07 0 00.87.29v-.08a2.33 2.33 0 01.07-.25c0-.19.11-.37.16-.56a.47.47 0 000-.09l.31.09a11.81 11.81 0 004.77.28c.41-.06.82-.13 1.22-.23s.76-.23 1.14-.35.75-.31 1.12-.47.7-.35 1-.56.45-.29.67-.45l.59.85a13.37 13.37 0 003.1-3.09c.2-.29.41-.59.58-.89a1.54 1.54 0 01.14-.23l.15.08.52.3.12.07a2.88 2.88 0 00.17-.31q.27-.53.51-1.05a10.45 10.45 0 00.4-1.06 12.55 12.55 0 00.56-2.33 13.9 13.9 0 00-.14-5A15.29 15.29 0 0032 14c-.11-.29-.24-.57-.37-.86v-.09-.08l-.2.1-.52.25s-.06.05-.08 0-.13-.26-.19-.38a13 13 0 00-1.15-1.79 13.22 13.22 0 00-3.3-3c-.13-.08-.26-.17-.4-.24l.71-1.19.41.25a14.66 14.66 0 011.74 1.31c.37.32.71.66 1 1a14.45 14.45 0 012 2.77 14 14 0 011.11 2.54 13 13 0 01.51 2 13.73 13.73 0 01.2 1.92V20.31a12.32 12.32 0 01-.29 1.82 11.43 11.43 0 01-.3 1.15c-.12.41-.27.81-.43 1.21s-.37.81-.57 1.2a12.47 12.47 0 01-.93 1.53A14.08 14.08 0 0129 29.39a15.63 15.63 0 01-1.72 1.42 14.91 14.91 0 01-1.84 1.1A14.46 14.46 0 0122 33.1c-.38.08-.76.14-1.14.19a11.74 11.74 0 01-1.18.1h-.58a5.61 5.61 0 01-.58 0c-.38 0-.76 0-1.14-.08l-.69-.1-1.11-.21c-.37-.09-.73-.2-1.08-.32s-.71-.25-1.05-.4a14.36 14.36 0 01-6.53-5.58z"/><path class="cls-3" d="M5.68 26l.4-.21.15.29a14.76 14.76 0 006.19 6 16.07 16.07 0 002.05.85 14.36 14.36 0 002.24.55 11.36 11.36 0 001.84.18 15.35 15.35 0 002.35-.1c.38-.05.76-.11 1.14-.19s.75-.18 1.13-.28a10 10 0 001.09-.37l.53-.2c.54-.25 1.08-.5 1.6-.8a16.49 16.49 0 001.78-1.22 12.34 12.34 0 001.42-1.29c.38-.4.74-.82 1.08-1.25a14.5 14.5 0 001.47-2.33 13 13 0 001-2.49 14.1 14.1 0 00.44-2.05c0-.31.08-.63.1-.95s0-.65.05-1v-.33-.58c0-.19 0-.56-.07-.85s-.1-.68-.16-1a9.7 9.7 0 00-.23-1.07c-.09-.33-.19-.65-.29-1-.18-.51-.38-1-.6-1.49a14 14 0 00-1.43-2.42 13.36 13.36 0 00-2.25-2.35 15.32 15.32 0 00-2.18-1.58l.13-.22s.09-.18.11-.17c.28.17.56.34.83.53s.63.46.94.71a8.57 8.57 0 01.79.68 15.07 15.07 0 014.55 8.14 14.79 14.79 0 01.18 4.74 17.3 17.3 0 01-.5 2.46 15.79 15.79 0 01-.9 2.31 15.23 15.23 0 01-6.41 6.7 15.15 15.15 0 01-8.95 1.7c-.41 0-.81-.11-1.21-.19s-.82-.19-1.22-.3-.8-.25-1.19-.4-.75-.31-1.13-.48l-1.11-.6c-.36-.21-.7-.43-1-.67a14.21 14.21 0 01-1.63-1.29 15.81 15.81 0 01-1.57-1.7A14.57 14.57 0 016 26.55c-.13-.18-.23-.35-.32-.55z"/><path class="cls-2" d="M3.21 20.13l1.6-.13L7 19.88h.2v.1l.06.57a12.2 12.2 0 00.53 2.32 8.79 8.79 0 00.34.9l-1.47.63-2 .88-.18.08s-.06-.1-.07-.13l-.18-.45c-.14-.38-.23-.78-.39-1.14 0-.2-.11-.4-.17-.6s-.09-.41-.14-.61a16.31 16.31 0 01-.32-2.3zm2.14 1.07a1.41 1.41 0 00-.85.46 1.11 1.11 0 00-.23 1.07 1.14 1.14 0 00.78.73 1.54 1.54 0 001.15-.18c.48-.28.93-.89.65-1.45a1.45 1.45 0 00-1.5-.63c-.37.06.38-.05 0 0zM18.58 18.06a.48.48 0 11.48.47.47.47 0 01-.48-.47zM18.62 8.75a.45.45 0 01.9 0 .45.45 0 11-.9 0zM25.33 11.16a.45.45 0 110 .64.45.45 0 010-.64zM28.37 17.61a.45.45 0 110 .9.45.45 0 110-.9zM19.52 27.37a.45.45 0 01-.9 0 .45.45 0 11.9 0zM12.81 25a.45.45 0 110-.64.47.47 0 010 .64zM9.76 18.51a.45.45 0 11.45-.45.45.45 0 01-.45.45zM21.16 9a.45.45 0 01.56-.31.47.47 0 01.32.56.45.45 0 01-.56.31.47.47 0 01-.32-.56zM27 13.12a.46.46 0 01.62.18.45.45 0 01-.18.61.44.44 0 01-.61-.17.45.45 0 01.17-.62zM17 27.14a.45.45 0 11-.31-.56.45.45 0 01.31.56zM11.17 23a.46.46 0 01-.62-.18.45.45 0 01.17-.61.45.45 0 01.62.17.46.46 0 01-.17.62zM23.38 9.8a.44.44 0 01.62-.16.45.45 0 11-.46.78.45.45 0 01-.16-.62zM28 15.27a.44.44 0 01.55.32.45.45 0 11-.55-.32zM14.76 26.32a.45.45 0 11-.16-.62.46.46 0 01.16.62zM10.18 20.85a.45.45 0 11.32-.55.44.44 0 01-.32.55z"/><path class="cls-3" d="M27.9 19.55A7.94 7.94 0 0120.5 27v.87a8.8 8.8 0 008.26-8.27zM10.22 16.59a7.92 7.92 0 017.4-7.39v-.87a8.8 8.8 0 00-8.27 8.26z"/><path class="cls-1" d="M18.9 12.94h.31v3.7h-.31zM18.9 19.45h.31v3.7h-.31zM20.41 17.89h3.7v.31h-3.7zM13.96 17.89h3.7v.31h-3.7z"/><path class="cls-2" transform="rotate(-45 20.738 19.72)" d="M20.65 18.43h.18v2.6h-.18z"/><path class="cls-2" transform="rotate(-45 17.377 16.362)" d="M17.29 15.06h.18v2.6h-.18z"/><path class="cls-2" transform="rotate(-45 20.74 16.37)" d="M19.44 16.28h2.6v.18h-2.6z"/><path class="cls-2" transform="rotate(-45 17.382 19.73)" d="M16.08 19.64h2.6v.18h-2.6z"/><path class="cls-3" d="M18.36 16v1.34h-1.34L18.36 16zM19.76 20.09v-1.34h1.34l-1.34 1.34zM17.02 18.75h1.34v1.34l-1.34-1.34zM21.1 17.34h-1.34V16l1.34 1.34z"/></g></g></svg>