<svg xmlns="http://www.w3.org/2000/svg" viewBox="0 0 473.31 635.5"><defs><style>.cls-2{fill:#5fffe8}</style></defs><g id="图层_2" data-name="图层 2"><g opacity=".8" id="央铋_1" data-name="央铋 1"><path class="cls-2" d="M231.87 424.33A192.45 192.45 0 0195.78 95.78 192.46 192.46 0 11368 368a191.24 191.24 0 01-136.13 56.33zm0-381.2A188.73 188.73 0 0098.41 365.32 188.73 188.73 0 10365.32 98.41a187.49 187.49 0 00-133.46-55.28z"/><path class="cls-2" d="M308.62 635.5h-1.86V536c0-41.88 33.53-84.7 66.74-108.57a235.55 235.55 0 0097.95-190.8c0-129.46-105.33-234.79-234.8-234.79S1.87 107.19 1.87 236.65a235.68 235.68 0 0097 190.14c33.15 24 66.59 67.06 66.59 108.89v99.82h-1.87v-99.82c0-41.18-33.05-83.61-65.81-107.38A237.54 237.54 0 010 236.65C0 106.16 106.16 0 236.65 0s236.66 106.16 236.66 236.65A237.4 237.4 0 01374.59 429c-32.84 23.59-66 65.85-66 107.06z"/><path class="cls-2" transform="rotate(-1.78 222.89 75.899)" d="M221.9 68.62h2.9v15.07h-2.9z"/><path class="cls-2" d="M209.3 85.21l-2.86.4-2.07-14.94 2.88-.4 2.05 14.94zM193.81 88.41l-2.83.7-3.59-14.64 2.81-.69 3.61 14.63zM178.74 93.21l-2.72.99-5.13-14.18 2.74-.98 5.11 14.17zM164.25 99.57l-2.6 1.27-6.58-13.57 2.62-1.27 6.56 13.57zM150.52 107.39l-2.47 1.54-7.95-12.8 2.46-1.54 7.96 12.8zM137.67 116.63l-2.3 1.77-9.23-11.89 2.28-1.8 9.25 11.92zM125.86 127.14l-2.1 2.01-10.44-10.87 2.08-2.02 10.46 10.88z"/><path class="cls-2" transform="rotate(-49.77 108.505 135.09)" d="M107.05 127.55h2.92v15.07h-2.92z"/><path class="cls-2" d="M105.84 151.59l-1.63 2.39-12.48-8.46 1.63-2.4 12.48 8.47zM97.84 165.24l-1.36 2.56-13.3-7.12 1.37-2.57 13.29 7.13zM91.34 179.65l-1.11 2.69-13.95-5.69 1.09-2.7 13.97 5.7zM86.36 194.66l-.8 2.79-14.49-4.2.81-2.78 14.48 4.19z"/><path class="cls-2" transform="rotate(-79.94 75.31 210.218)" d="M73.85 202.68h2.91v15.07h-2.91z"/><path class="cls-2" d="M81.23 225.83l-.2 2.9L66 227.64l.21-2.9 15.02 1.09zM81.14 241.65l.09 2.9-15.05.49-.09-2.9 15.05-.49zM82.72 257.39l.39 2.88-14.92 2.06-.41-2.89 14.94-2.05zM85.92 272.88l.7 2.82-14.65 3.61-.69-2.82 14.64-3.61zM90.72 287.95l.98 2.73-14.18 5.12-.97-2.73 14.17-5.12z"/><path class="cls-2" transform="rotate(-25.95 90.937 307.044)" d="M83.38 305.58h15.07v2.9H83.38z"/><path class="cls-2" d="M104.89 316.18l1.55 2.46-12.8 7.96-1.55-2.47 12.8-7.95zM114.12 329.03l1.78 2.28-11.9 9.26-1.79-2.29 11.91-9.25zM124.65 340.84l2.01 2.1-10.86 10.44-2.03-2.1 10.88-10.44zM136.34 351.49l2.21 1.88-9.72 11.52-2.22-1.88 9.73-11.52zM149.09 360.87l2.39 1.62-8.45 12.48-2.41-1.63 8.47-12.47zM162.74 368.86l2.56 1.36-7.12 13.29-2.56-1.37 7.12-13.28zM177.15 375.36l2.7 1.09-5.69 13.97-2.7-1.09 5.69-13.97zM367.13 166.76l-1.26-2.62 13.55-6.57 1.28 2.61-13.57 6.58z"/><path class="cls-2" transform="rotate(-31.8 363.462 146.433)" d="M357.4 146.35h15.08v2.91H357.4z"/><path class="cls-2" d="M350.07 140.17l-1.77-2.3 11.89-9.25 1.79 2.3-11.91 9.25zM339.56 128.34l-2.01-2.09 10.86-10.44 2.03 2.1-10.88 10.43zM327.87 117.69l-2.22-1.86 9.71-11.52 2.23 1.87-9.72 11.51zM315.11 108.33l-2.39-1.63 8.46-12.48 2.42 1.63-8.49 12.48zM301.45 100.35l-2.52-1.37 7.08-13.3 2.58 1.37-7.14 13.3z"/><path class="cls-2" transform="rotate(-67.85 288.55 86.306)" d="M281.02 84.86h15.08v2.9h-15.08z"/><path class="cls-2" d="M272.05 88.86l-2.79-.81 4.18-14.48 2.8.8-4.19 14.49zM256.58 85.48l-2.86-.52 2.67-14.83 2.87.51-2.68 14.84zM240.87 83.74l-2.9-.21 1.1-15.03 2.87.19-1.07 15.05zM227.07 53.45h2.88v29.94h-2.88z"/><path class="cls-2" transform="rotate(-5.99 211.303 69.51)" d="M209.75 54.51h2.88v29.95h-2.88z"/><path class="cls-2" transform="rotate(-12.08 194.041 72.329)" d="M192.63 57.37h2.89v29.94h-2.89z"/><path class="cls-2" transform="rotate(-17.99 177.385 77.002)" d="M175.91 62.01h2.88v29.94h-2.88z"/><path class="cls-2" d="M168.62 96.44l-2.65 1.16-12.17-27.36 2.63-1.17 12.19 27.37zM154.56 103.59l-2.51 1.44-14.97-25.93 2.49-1.44 14.99 25.93zM141.31 112.19l-2.33 1.69-17.6-24.22 2.34-1.69 17.59 24.22zM129.05 122.12l-2.14 1.93-20.05-22.25 2.15-1.94 20.04 22.26zM117.88 133.28l-1.92 2.15-22.25-20.04 1.92-2.14 22.25 20.03z"/><path class="cls-2" transform="rotate(-54.08 95.004 137.928)" d="M93.55 122.94h2.88v29.94h-2.88z"/><path class="cls-2" transform="rotate(-60.01 85.662 152.548)" d="M84.23 137.58h2.88v29.94h-2.88z"/><path class="cls-2" d="M92.19 172.85l-1.17 2.63-27.36-12.18 1.18-2.63 27.35 12.18zM86.53 187.57l-.9 2.76-28.47-9.26.89-2.74 28.48 9.24zM82.44 202.82l-.6 2.83-29.28-6.22.6-2.82 29.28 6.21zM79.98 218.42l-.31 2.87-29.77-3.13.3-2.86 29.78 3.12zM49.2 234.19h29.95v2.88H49.2zM79.98 249.94l.29 2.87-29.78 3.13-.29-2.86 29.78-3.14z"/><path class="cls-2" transform="rotate(-11.97 68.076 270.011)" d="M53.13 268.61h29.94v2.88H53.13z"/><path class="cls-2" d="M86.53 280.77l.89 2.76-28.48 9.24-.89-2.74 28.48-9.26zM92.18 295.52l1.18 2.63L66 310.32l-1.18-2.63 27.36-12.17zM99.34 309.57l1.45 2.51-25.94 14.97-1.42-2.5 25.91-14.98zM107.95 322.81l1.69 2.34-24.23 17.6-1.69-2.33 24.23-17.61zM117.88 335.08l1.92 2.15-22.25 20.04-1.93-2.15 22.26-20.04zM129.05 346.24l2.12 1.94-20.03 22.25-2.14-1.93 20.05-22.26z"/><path class="cls-2" transform="rotate(-53.89 133.692 369.164)" d="M118.7 367.7h29.94v2.88H118.7z"/><path class="cls-2" transform="rotate(-59.95 148.322 378.48)" d="M133.33 377.02h29.95v2.89h-29.95z"/><path class="cls-2" transform="rotate(-65.99 163.842 386.213)" d="M148.86 384.76h29.94v2.89h-29.94z"/><path class="cls-2" d="M360.54 158.8l-1.43-2.5 25.9-14.98 1.46 2.51-25.93 14.97zM351.95 145.56l-1.69-2.33 24.22-17.61 1.68 2.33-24.21 17.61zM342.02 133.29l-1.94-2.14 22.25-20.04 1.93 2.14-22.24 20.04z"/><path class="cls-2" transform="rotate(-47.93 339.795 110.045)" d="M324.82 108.59h29.94v2.89h-29.94z"/><path class="cls-2" transform="rotate(-54.06 326.239 99.226)" d="M311.25 97.79h29.94v2.88h-29.94z"/><path class="cls-2" d="M305.34 103.6l-2.47-1.44 14.94-25.94 2.5 1.45-14.97 25.93zM291.29 96.44l-2.63-1.18 12.16-27.35 2.65 1.17-12.18 27.36z"/><path class="cls-2" transform="rotate(-71.85 279.788 76.099)" d="M264.83 74.64h29.94v2.9h-29.94z"/><path class="cls-2" transform="rotate(-77.9 262.871 71.274)" d="M248.04 70.3h29.94v2.89h-29.94z"/><path class="cls-2" d="M245.71 84.22l-2.86-.3 3.12-29.78 2.88.31-3.14 29.77z"/></g></g></svg>