<svg xmlns="http://www.w3.org/2000/svg" xmlns:xlink="http://www.w3.org/1999/xlink" viewBox="0 0 237.99 130.96"><defs><linearGradient id="linear-gradient" x1="118.99" y1="118.71" x2="118.99" y2="71.6" gradientUnits="userSpaceOnUse"><stop offset="0" stop-color="#00e8cd"/><stop offset="1"/></linearGradient><linearGradient id="linear-gradient-2" x1="142.11" y1="120.75" x2="142.11" y2="72.25" xlink:href="#linear-gradient"/><linearGradient id="linear-gradient-3" x1="117.8" y1="120.75" x2="117.8" y2="72.25" xlink:href="#linear-gradient"/><linearGradient id="linear-gradient-4" x1="94.2" y1="120.75" x2="94.2" y2="72.25" xlink:href="#linear-gradient"/><linearGradient id="linear-gradient-5" x1="76.65" y1="120.75" x2="76.65" y2="72.25" xlink:href="#linear-gradient"/><linearGradient id="linear-gradient-6" x1="54.5" y1="120.75" x2="54.5" y2="72.25" xlink:href="#linear-gradient"/><linearGradient id="linear-gradient-7" x1="44.26" y1="120.75" x2="44.26" y2="72.25" xlink:href="#linear-gradient"/><linearGradient id="linear-gradient-8" x1="198.47" y1="120.75" x2="198.47" y2="72.25" xlink:href="#linear-gradient"/><linearGradient id="linear-gradient-9" x1="115.7" y1="120.75" x2="115.7" y2="72.25" xlink:href="#linear-gradient"/><linearGradient id="linear-gradient-10" x1="171.76" y1="120.75" x2="171.76" y2="72.25" xlink:href="#linear-gradient"/><linearGradient id="White_Black" x1="118.99" y1="92.3" x2="118.99" y2="76.9" gradientUnits="userSpaceOnUse"><stop offset="0" stop-color="#fff"/><stop offset="1"/></linearGradient><linearGradient id="linear-gradient-11" x1="118.99" y1="129.69" x2="118.99" y2="71.77" xlink:href="#linear-gradient"/><linearGradient id="linear-gradient-12" x1="1642.08" y1="901.42" x2="1647.54" y2="901.42" gradientTransform="matrix(-.79 -.44 .48 -.88 1056.34 1626.37)" gradientUnits="userSpaceOnUse"><stop offset="0"/><stop offset=".31" stop-color="#0f414a"/><stop offset="1" stop-color="#31d9f7"/></linearGradient><linearGradient id="linear-gradient-13" x1="1594.54" y1="901.99" x2="1603.31" y2="901.99" gradientTransform="rotate(-151.6 791.296 691.201)" gradientUnits="userSpaceOnUse"><stop offset="0"/><stop offset=".31" stop-color="#0e4a47"/><stop offset="1" stop-color="#30f7ed"/></linearGradient><linearGradient id="linear-gradient-14" x1="1594.83" y1="901.96" x2="1604.53" y2="901.96" xlink:href="#linear-gradient-13"/><linearGradient id="linear-gradient-15" x1="70.5" y1="102.96" x2="70.5" y2="74.03" gradientTransform="matrix(1 .02 0 1 -.39 4.72)" xlink:href="#linear-gradient"/><linearGradient id="linear-gradient-16" x1="155.08" y1="94.39" x2="155.08" y2="77.27" xlink:href="#linear-gradient"/><linearGradient id="linear-gradient-17" x1="82.91" y1="94.39" x2="82.91" y2="77.27" xlink:href="#linear-gradient"/><linearGradient id="linear-gradient-18" x1="160.11" y1="96.16" x2="160.11" y2="76.42" xlink:href="#linear-gradient"/><linearGradient id="linear-gradient-19" x1="77.88" y1="96.16" x2="77.88" y2="76.42" xlink:href="#linear-gradient"/><linearGradient id="linear-gradient-20" x1="159.16" y1="95.81" x2="159.16" y2="76.58" xlink:href="#linear-gradient"/><linearGradient id="linear-gradient-21" x1="78.83" y1="95.81" x2="78.83" y2="76.58" xlink:href="#linear-gradient"/><linearGradient id="linear-gradient-22" x1="40.26" y1="104.72" x2="104.47" y2="104.72" xlink:href="#linear-gradient"/><linearGradient id="linear-gradient-23" x1="165.41" y1="139.5" x2="165.41" y2="30.01" gradientTransform="rotate(90.01 171.632 82.288)" gradientUnits="userSpaceOnUse"><stop offset="0"/><stop offset=".46" stop-color="#00e8cd"/><stop offset="1"/></linearGradient><linearGradient id="linear-gradient-24" x1="76.09" y1="115.57" x2="76.09" y2="6.08" gradientTransform="matrix(0 .7 -1 0 228.08 1.48)" gradientUnits="userSpaceOnUse"><stop offset="0"/><stop offset=".55" stop-color="#009281"/><stop offset="1"/></linearGradient><linearGradient id="linear-gradient-25" x1="79.26" y1="113.54" x2="79.26" y2="4.05" gradientTransform="rotate(-.01 -23206.45 19020.174)" gradientUnits="userSpaceOnUse"><stop offset="0"/><stop offset=".51" stop-color="#006e61"/><stop offset="1"/></linearGradient><linearGradient id="linear-gradient-26" x1="-102.18" y1="157.18" x2="-102.18" y2="47.7" gradientTransform="matrix(1.36 0 0 1 148.33 -26.08)" gradientUnits="userSpaceOnUse"><stop offset="0"/><stop offset=".38" stop-color="#00d4bb"/><stop offset="1"/></linearGradient><style>.cls-2{fill:#999}.cls-14{fill:#ed1c24}.cls-16{mix-blend-mode:screen}.cls-21{fill:#00e8cd}.cls-28{fill:#fff}.cls-30{fill:#f15a24}.cls-31{fill:#f7931e}.cls-33{fill:#ccc}.cls-34{fill:#c1272d}</style></defs><g style="isolation:isolate"><g id="图层_2" data-name="图层 2"><g id="Layer_2" data-name="Layer 2"><path class="cls-2" d="M104.28 83.43a1.61 1.61 0 01.24-.47h-.61a1.75 1.75 0 00-.25.49 1.19 1.19 0 000 .83h.63a1.19 1.19 0 01-.01-.85zM129.4 80.86l.42-.1a29.86 29.86 0 00-3.57-.73l-.28.12a29.42 29.42 0 013.43.71zM105.55 85.46l-.59.09a18.5 18.5 0 006.32 2l.34-.18a17.8 17.8 0 01-6.07-1.91zM134.34 83.48c-.26-.84-1.38-1.6-3.05-2.21l-.48.08c1.61.6 2.67 1.32 2.91 2.13zM107.76 80.87l.43.1a33.56 33.56 0 016.81-1.15l-.15-.14a36 36 0 00-7.09 1.19zM116.81 79.56l.09.15H121.09l.08-.15h-2.18c-.74 0-1.46-.02-2.18 0zM164.27 84.53l-.12-.14C162 82 157.68 80 152.28 78.4h-.14c5.37 1.56 9.64 3.58 11.8 6l.12.14zM147.72 77.3h.12c-3.08-.69-6.45-1.27-10-1.72h-.07c3.53.42 6.88 1.03 9.95 1.72zM74.14 91.17h-.24c2.76 2.93 9 5.59 18.06 7.43l.17-.09c-9.02-1.79-15.23-4.42-17.99-7.34zM74.05 84.39A11.45 11.45 0 0175.62 83h-.2a12.43 12.43 0 00-1.59 1.41 5.68 5.68 0 00-1.42 2.52h.24a5.55 5.55 0 011.4-2.54zM113.42 74.51c1.82-.06 3.67-.1 5.55-.1s3.74 0 5.55.1c-1.83-.06-3.69-.1-5.58-.1s-3.7.04-5.52.1zM88.94 77.55h.12a117.5 117.5 0 0119.41-2.78 118.35 118.35 0 00-19.53 2.78z"/><path d="M119 71.6c-28.23 0-58.61 5.18-71.54 14.14-20.26 14 5.74 33 71.54 33s91.81-18.94 71.55-33C177.6 76.78 147.23 71.6 119 71.6zm0 46.81c-65.21 0-91.16-18.74-71.15-32.67 12.8-8.92 43-14.09 71.15-14.09s58.35 5.17 71.16 14.09c20 13.93-5.95 32.67-71.16 32.67z" fill="url(#linear-gradient)"/><path d="M145.92 119.27q-3.81.36-7.88.61l.14.3c2.75-.17 5.42-.37 8-.62z" fill="url(#linear-gradient-2)"/><path d="M119 120.44q-10.51 0-19.71-.6l-.15.3q9.25.6 19.86.61 9.26 0 17.49-.47l-.14-.3q-8.17.45-17.35.46z" fill="url(#linear-gradient-3)"/><path d="M90.8 119.47c2.15.21 4.36.39 6.64.56l.15-.31c-2.24-.15-4.41-.34-6.53-.54z" fill="url(#linear-gradient-4)"/><path d="M64.22 114.91a162.11 162.11 0 0024.59 4.35 3.58 3.58 0 00.26-.29 162.83 162.83 0 01-24.37-4.29z" fill="url(#linear-gradient-5)"/><path d="M46.62 107.86a62.49 62.49 0 0015.27 6.4l.48-.23a62.83 62.83 0 01-15.17-6.32z" fill="url(#linear-gradient-6)"/><path d="M43.12 105.32c.53.45 1.1.9 1.71 1.34l.57-.14c-.63-.45-1.21-.9-1.74-1.36z" fill="url(#linear-gradient-7)"/><path d="M197.37 91.75a8.34 8.34 0 01.72 8.86l.57.06a8.45 8.45 0 00-.85-8.94z" fill="url(#linear-gradient-8)"/><path d="M192.58 87.05h.42l-.34-.24c-13.33-9.22-44.6-14.56-73.66-14.56s-60.35 5.34-73.66 14.56c-7.89 5.46-9 11.65-3.58 17.23l.54-.15c-5.37-5.53-4.3-11.66 3.44-17.08C58.92 77.63 90 72.3 119 72.3s60.07 5.33 73.26 14.51z" fill="url(#linear-gradient-9)"/><path d="M187.43 109.56c-7.31 3.63-18 6.67-31.94 8.61l.34.28c14.08-2 24.85-5 32.19-8.73z" fill="url(#linear-gradient-10)"/><path d="M119 76.9c-13 0-25.07 2.7-27.17 6.53C89.33 88 101.3 92.3 119 92.3s29.66-4.34 27.18-8.87C144.07 79.6 132 76.9 119 76.9zm0 15.28c-17.45 0-29.28-4.27-26.86-8.75C94.19 79.64 106.09 77 119 77s24.81 2.67 26.86 6.46c2.42 4.45-9.41 8.72-26.86 8.72z" fill="url(#White_Black)"/><path class="cls-14" d="M87.41 82.98L86 84.47l-.49 1.58 2.08-.75.96-1.64-1.14-.68zM152.46 85.86l-.59-1.57-1.52-1.48-1.08.68 1.07 1.63 2.12.74z"/><path class="cls-14" d="M119 76.69c-15.38 0-29.94 3.13-33 7.7-3.73 5.61 10.66 11.19 33 11.19s36.72-5.58 33-11.19c-3.07-4.57-17.62-7.7-33-7.7zm0 18.73c-22 0-36.25-5.49-32.6-11 3-4.52 17.37-7.63 32.6-7.63s29.63 3.11 32.61 7.63c3.64 5.51-10.61 11-32.61 11z"/><path d="M232.18 96.12C215.89 81.1 166.92 71.77 119 71.77S22.1 81.1 5.8 96.12c-12.71 11.72-4.08 24.52 21.53 33.57h.94c-25.9-9-34.74-21.83-22-33.57 16.18-15 65-24.28 112.76-24.28s96.59 9.31 112.77 24.28c12.69 11.74 3.86 24.56-22 33.57h.94c25.53-9.05 34.16-21.85 21.44-33.57z" fill="url(#linear-gradient-11)"/><path d="M194.35 117.23c.85.84.88 2.5.09 4a4.27 4.27 0 01-2 1.88l-.26.1a2.28 2.28 0 01-1.15.07 1.92 1.92 0 01-1.35-1.25 3.87 3.87 0 01.42-3.17 4.18 4.18 0 011.93-1.89l.25-.09a1.94 1.94 0 012.07.35zm-1.89 5.77a4.17 4.17 0 001.89-1.81c.76-1.38.72-3-.07-3.8a1.87 1.87 0 00-1.93-.39l-.24.09a4.11 4.11 0 00-1.87 1.83 3.74 3.74 0 00-.4 3 1.78 1.78 0 001.27 1.19 2.09 2.09 0 001.1-.07z" fill="url(#linear-gradient-12)"/><path d="M192.61 114.27c1.54 1.44 1.72 4.18.44 6.51a6.42 6.42 0 01-3.29 2.94l-.44.14a4 4 0 01-2 0 3.62 3.62 0 01-2.45-2.15 5.9 5.9 0 01.5-5.18 6.29 6.29 0 013.23-3l.43-.14a3.75 3.75 0 013.58.88zm-2.89 9.26a6.16 6.16 0 003.18-2.84c1.21-2.21 1-4.9-.42-6.26a3.53 3.53 0 00-3.39-.76 2.8 2.8 0 00-.41.13 6.09 6.09 0 00-3.12 2.86 5.72 5.72 0 00-.49 5 3.48 3.48 0 002.32 2 3.87 3.87 0 001.91 0 3.45 3.45 0 00.42-.13z" fill="url(#linear-gradient-13)"/><path d="M192.29 113.47c1.7 1.6 1.91 4.62.49 7.2a7.11 7.11 0 01-3.64 3.25l-.48.16a4.4 4.4 0 01-2.22 0 4 4 0 01-2.71-2.38 6.54 6.54 0 01.55-5.73 7 7 0 013.58-3.28 4.42 4.42 0 01.48-.15 4.08 4.08 0 013.95.93zm-3.19 10.25a6.9 6.9 0 003.51-3.15c1.34-2.44 1.15-5.42-.46-6.92a3.92 3.92 0 00-3.75-.85 4.11 4.11 0 00-.46.15 6.73 6.73 0 00-3.45 3.16 6.33 6.33 0 00-.53 5.53 3.82 3.82 0 002.56 2.26 4.2 4.2 0 002.11 0z" fill="url(#linear-gradient-14)"/><path d="M90.6 105.6l-2.91-3.92c-20.12-2.23-32.51-6.63-36.55-11.38A14.57 14.57 0 0155 87.4a33.17 33.17 0 014.81-2.13v-.11a34.52 34.52 0 00-5.12 2.24A15.11 15.11 0 0051 90.1c-2.57-3.21-1.31-6.58 4-9.52a34.33 34.33 0 014.81-2.12v-.12a34.52 34.52 0 00-5.12 2.24c-3.52 2-5.29 4.08-5.36 6.23v7c0 6 13 12.08 37.89 14.88zM49.69 88.77a7 7 0 001 1.61 6.83 6.83 0 00-1 1.57zm1.21 1.82c4.22 4.71 16.63 9.06 36.66 11.28l2.8 3.72-3.27 2.84c-28.88-3.28-41.57-11.08-36.19-17.84z" style="mix-blend-mode:screen" fill="url(#linear-gradient-15)"/></g><g id="Layer_3" data-name="Layer 3"><path class="cls-21" d="M112.56 78.87h-.38l.64.42h.34zM112 78.93h-.37l.69.42h.34zM111.41 79H111l.74.41h.34zM107.61 79.58l-.34.07 1.11.36.3-.06zM108.12 79.48l-.34.07 1.06.36h.31zM112.77 78.52h-.41l1 .73h.35zM109.73 79.22h-.36l.9.39h.33zM108.54 79l-.37.06 1.62.65h.32zM117.92 78.26h-.43l.22.76h.37zM117.27 78.27h-.43l.32.75h.36zM116.76 78.6h-.4l.24.44h.4zM118.6 78.57h-.41l.08.45h.36zM119.19 79v-.45h-.4V79h.36zM115.54 78.65h-.39l.35.44h.37zM114.34 78.72h-.39l.47.44h.35zM114.94 78.68h-.4l.42.44h.36zM106.32 79.44l-.35.08 2 .59.3-.07zM101.15 81.76l-.17.11 1.77.16.15-.1zM100.89 81.93l-.16.11 1.8.14.14-.1zM101.44 81.6a1.18 1.18 0 00-.19.11l1.74.17.16-.1zM105.79 79.56l-.34.07 2 .58.28-.07zM100 82.63l-.11.12 1.91.07.09-.11zM102.06 81.28l-.22.1 1.67.2.19-.09zM104.32 80.41l-.27.09 1.43.28.25-.08zM105.2 80.15l-.3.08 1.35.31.26-.08zM103.8 80.07l-.3.09 2.36.5.25-.08zM106.13 79.91l-.31.08 1.25.32.28-.07zM105.66 80l-.31.08 1.3.31.27-.07zM103.91 80.54l-.27.09 1.48.27.23-.08zM103.5 80.68l-.25.1 1.51.25.24-.03zM138 81.59l-.21-.12-2.95.31.16.1zM136.63 80.91l-.25-.1-2.7.4.21.09zM135.85 81.23l-.22-.11-1.64.23.2.09zM134.38 80.63l-.27-.09-1.46.28.23.09zM101.5 83.38h-3.35v.06a.19.19 0 010 .07h3.37v-.06c0-.06-.02-.05-.02-.07zM138.23 82.93l-.09-.12-1.95.07a.44.44 0 01.08.11zM136.52 83.49h2v-.12h-2V83.49zM137.92 82.57l-.12-.12-1.9.1.11.11zM137 81.87l-.17-.11-1.78.17.15.1zM122.27 78.64h-.4l-.27.45h.36zM124.66 78.8h-.39l-.49.43h.36zM123.47 78.71h-.39l-.38.45h.36zM132.2 80l-.31-.08-1.23.34.28.07zM121.05 78.6h-.4l-.16.45h.37zM120.44 78.58H120l-.09.46h.36zM124.4 78.45h-.42l-.74.74h.36zM130.23 79.55l-.34-.07-1 .38.31.06zM127 79l-.37-.05-.72.42h.34zM131.73 79.87l-.32-.07-1.19.34.29.07zM129.85 79.09l-.37-.06-1.58.66.32.06zM138.09 82.75l-.11-.12-1.92.08.09.11zM130.2 88.51l.4-.08-1.3-.55-.3.12zM129.57 88.63l.41-.08-1.22-.55-.37.07zM129 89.27l.47-.07-1.86-1h-.39zM127.6 88.94l.44-.07-1-.61-.4.06zM118.79 88.8v.69h.5v-.69h-.44zM132.51 88l.35-.1-1.53-.49-.32.08zM131.39 88.26l.38-.09-1.42-.52-.34.07zM126.91 89l.45-.06-.93-.62-.41.05zM122 89.92h.54l-.64-1.16h-.44zM122.56 89.4h.49l-.46-.67h-.43zM121.05 89.46h.5l-.29-.68h-.44zM120.39 90h.54l-.34-1.17h-.45zM119.52 89.48h.48l-.12-.68h-.44zM125.5 89.18l.47-.05-.78-.64h-.42zM126.79 89.56h.5l-1.48-1.09h-.41zM124.78 89.25h.47l-.7-.65h-.42zM124.05 89.3h.48l-.62-.66h-.43zM138.41 84.84l.07-.13-2-.13-.06.11zM139.58 85.35a1.13 1.13 0 00.1-.13l-3.46-.3-.09.11zM138 85.41l.11-.12-2-.2-.1.11zM138.5 84.64a.61.61 0 00.05-.12l-2.05-.12v.12zM138.59 83.68a.56.56 0 000-.12h-2v.11zM140 83.91a.68.68 0 010-.14h-3.44v.11zM138.57 84.45v-.13l-2-.09v.11zM140 84.32a.66.66 0 000-.14l-3.47-.12v.11zM135.74 86.88l.25-.12-1.85-.36-.22.1zM134 87.54l.31-.11-1.66-.43-.27.1zM135.7 87.69l.31-.12-2.95-.72-.27.1zM136.11 86.7l.23-.11-1.88-.35-.21.11zM136.45 86.53l.22-.12-1.91-.32-.2.1zM101.36 86.41l.21.12 1.86-.33-.19-.11zM101.05 86.23l.2.12 1.89-.32-.18-.1zM99.63 83.18l-.06.13h2a.37.37 0 010-.11zM100.52 85.85l.17.13 1.93-.27-.15-.11zM100.1 85.48l.13.12 2-.23-.12-.11zM103.24 87.27l.29.11 1.68-.43-.26-.09zM101.56 87.39l.3.12 3-.7-.25-.1zM102.41 86.94l.26.11 1.77-.39-.24-.1zM101.68 86.59l.23.11 1.83-.35-.2-.1zM99.4 84.13a.57.57 0 000 .13l2-.09v-.11zM102.49 87.75l.33.11 2.81-.77-.28-.09zM99.47 83.56a.56.56 0 000 .12h2v-.11zM99.42 83.75v.12h2v-.11zM98.5 85.42l.12.14 3.4-.36-.11-.11zM99.65 84.9l.07.13 2-.17a1 1 0 01-.08-.11zM113.5 89.27h.48l.56-.66h-.42zM110.74 89.51h.49l1.39-1.09h-.41zM114.23 89.32h.49l.48-.66h-.43zM112.05 89.13l.47.05.73-.64-.42-.05zM114.65 89.85h.53l.69-1.15h-.44zM116.27 89.93h.54l.4-1.17h-.45zM110.66 89l.45.06.89-.63-.41-.05zM115.46 89.89h.53l.54-1.16h-.44zM108.67 88.67l.43.07 1.1-.59-.38-.06zM106.26 88.17l.37.09 1.37-.53-.34-.08zM104.65 87.74l.34.1 1.53-.48-.3-.09zM118 89.48h.5l.06-.68h-.45zM109.32 88.77l.43.07 1-.6-.38-.06zM103 87.92l.34.11 2.72-.8-.29-.09zM107.43 88.43l.4.08 1.24-.56-.36-.07zM111.13 79.21l-.36.05.5.25h.33zM110.59 79.29h-.35l.53.25h.33zM109 79.53l-.33.06.63.24.31-.06zM113.93 78.93h-.38l.33.27h.35zM119.8 78.74h-.39v.28h.37zM116.25 78.79h-.39l.19.28h.37zM102.37 81.51l-.19.1 1.06.12.18-.1zM100.61 82.84l-.09.11h1.2l.07-.1zM101.12 82.32l-.13.11 1.16.07a1.14 1.14 0 01.11-.11zM100.93 82.49l-.12.11 1.17.06.11-.11zM101.33 82.15l-.14.11 1.14.08.13-.11zM103.34 81.06l-.23.1 1 .14.21-.09zM103 81.21l-.22.1 1 .13.2-.09zM103.69 80.92l-.23.09 1 .15.22-.08zM132.18 80.23l-.29-.08-.81.2.27.08zM134.56 81l-.23-.09-1 .16.22.09zM135.55 81.46l-.21-.1-1.05.13.19.1zM135.84 81.61l-.19-.1-1.08.12.18.1zM132.61 80.35l-.28-.08-.84.2.26.07zM133 80.47l-.27-.08-.87.19.25.08zM133.44 80.6l-.27-.08-.9.18.25.08zM134.2 80.87l-.24-.09-.96.22.23.09zM137.62 83.13l-.07-.12h-1.24l.07.11zM137.71 83.31a.34.34 0 00-.06-.12h-1.24l.05.11zM100.48 83a.83.83 0 00-.08.12h1.21l.07-.11zM137 82.43l-.13-.11-1.18.07.12.11zM136.61 82.1l-.15-.11-1.14.09.14.1zM136.83 82.26l-.14-.11-1.16.09.13.1zM126.15 79.12h-.36l-.42.27h.35zM125.6 79.06h-.37l-.38.27h.35zM125 79h-.38l-.34.27h.35zM121.57 78.78h-.39l-.13.28h.36zM122.74 78.84h-.39l-.2.28h.36zM130.33 79.79l-.32-.07-.69.23.3.06zM129.34 79.59l-.33-.06-.62.24.31.06zM130.81 79.89l-.32-.07-.71.23.29.06zM127.78 79.34h-.35l-.52.25h.33zM127.25 79.26l-.36-.05-.48.26h.33zM128.31 79.42l-.35-.06-.55.25h.33zM128.51 88.52l.41-.07-.72-.37-.38.06zM130.31 88.18l.37-.08-.84-.34-.35.08zM132.46 87.66l.32-.09-1-.3-.3.09zM131.42 87.93l.35-.08-.92-.32-.33.08zM123.12 89.1h.47l-.34-.41h-.43zM133 87.52l.3-.1-1-.29-.29.09zM137.54 85l.08-.13-1.29-.09-.07.11zM137.05 85.52l.13-.12-1.27-.14-.12.11z"/><path class="cls-21" d="M137.87 84v-.12h-1.28V84zM134.68 86.9l.25-.11-1.13-.24-.24.1zM134.28 87.06l.27-.1-1.11-.26-.25.1zM136.6 85.88l.16-.12-1.24-.17-.15.11zM136.34 86.05l.18-.11-1.23-.18-.17.11zM136.84 85.7l.14-.12-1.25-.15-.14.11zM136.06 86.23l.19-.12-1.25-.19a1.08 1.08 0 01-.18.11zM101.51 85.94l.17.11 1.19-.18a.91.91 0 01-.16-.11zM101 85.58l.14.12 1.22-.16a.69.69 0 01-.13-.11zM102.73 86.63l.23.11 1.12-.23-.22-.1zM100.18 84.29v.12l1.25-.06v-.12zM100.15 83.92V84h1.25v-.11zM100.53 85l.09.12 1.24-.12-.09-.11zM100.23 84.47v.13l1.25-.08v-.12zM100.31 84.66l.06.12 1.25-.09-.06-.11zM107.34 88.1l.37.08.81-.34-.34-.07zM113 89h.45l.4-.41h-.42zM117.31 89.21h.48l.09-.43h-.44zM106.25 87.85l.35.08.89-.32-.33-.08zM105.74 87.71l.33.09.92-.31-.31-.08zM110.36 88.65h.43l.59-.38h-.39zM108.5 88.34l.4.07.72-.36-.36-.06z"/><g class="cls-16"><path class="cls-14" d="M108.58 81.23l-.37-.08c-1.88.6-3.15 1.37-3.43 2.24h.51c.26-.84 1.48-1.58 3.29-2.16zM111.66 80.49l-.25-.1-1.28.25.3.1zM109.86 80.87l-.33-.09c-.39.1-.76.2-1.12.31l.37.08q.51-.17 1.08-.3zM110.2 80.79l-.31-.09h-.12l.31.1zM105.27 83.48h-.52a1.35 1.35 0 00.45 1.29h.51a1.28 1.28 0 01-.44-1.29zM108.69 86.25l-.41.11h.12l.4-.11zM105.8 84.81h-.51a6.43 6.43 0 002.12 1.2l.44-.1a6.12 6.12 0 01-2.05-1.1zM108.05 86l-.43.1.44.15.41-.11zM109 86.36l-.39.11a29.6 29.6 0 004.94.94l.21-.15a30 30 0 01-4.76-.9zM131.5 82.13h.45c-.23-.13-.48-.26-.76-.39l-.42.06c.23.07.51.2.73.33zM114.49 80.12l-.16-.12c-.93.09-1.82.21-2.66.35l.24.1c.81-.13 1.67-.25 2.58-.33zM130.61 81.68l.42-.07a20.71 20.71 0 00-4.43-1.22l-.26.11a19.53 19.53 0 014.27 1.18zM132.71 83.43a2.07 2.07 0 010 .22h.51a.66.66 0 000-.23 2.48 2.48 0 00-1.14-1.27h-.46a2.33 2.33 0 011.09 1.28zM126.09 80.45l.25-.1c-1.1-.18-2.29-.33-3.55-.42l-.12.11c1.21.1 2.33.24 3.42.41zM119 79.91c1.17 0 2.31 0 3.39.11l.12-.11c-1.12-.08-2.3-.13-3.51-.13h-.75v.12zM117.53 79.93v-.12c-1 0-2 .08-2.86.17l.15.11c.83-.09 1.75-.09 2.71-.16zM118 79.92v-.12h-.15v.12zM114.11 87.29l-.2.16c.72.08 1.47.14 2.24.18l.11-.16c-.74-.04-1.46-.1-2.15-.18zM120.21 87.53l.05.16h.72l-.08-.16zM132.75 83.74a1.1 1.1 0 010 .18h.52a1.15 1.15 0 000-.19zM124.22 87.26l.21.15q.58-.06 1.14-.15l-.26-.14zM121.24 87.49l.09.17c1 0 1.89-.12 2.77-.21l-.2-.16c-.85.09-1.74.16-2.66.2zM117.11 87.51l-.08.16h.19l.07-.17zM132.4 84.59h.51a1.47 1.47 0 00.32-.6h-.51a1.6 1.6 0 01-.32.6zM119 87.54h-1.37l-.05.17h2.34v-.17zM125.61 87.07l.27.15a25.45 25.45 0 004.18-1l-.42-.11a23.91 23.91 0 01-4.03.96zM116.6 87.48l-.1.17h.18l.09-.17zM129.85 86.07l.42.1a6.43 6.43 0 002.56-1.45h-.51a6.32 6.32 0 01-2.47 1.35z"/></g><path class="cls-14" d="M92.15 91.7L69.1 98.06l.35.18 23.07-6.4zM145.46 91.84l23.07 6.4.36-.18-23-6.36zM139.73 78.75l11.42-3.17-.38-.07-11.43 3.16zM98.64 78.67l-11.43-3.16-.37.07 11.42 3.17zM109.1 86.08l4.25-1.18h.11l.21.06-4.25 1.18zM124.32 85h.32l4.25 1.18-.32.1zM124.12 82H124l3.62-1 .32.08-3.62 1zM110.05 81l.32-.08L114 82l-.21.05h-.12zM160.26 84.39c2.68 3.22.64 6.53-5.53 9.27l.49.14c6.23-2.79 8.27-6.15 5.53-9.41-2.43-2.88-8.25-5.22-15.5-6.81l-.25.07c7.16 1.58 12.89 3.9 15.26 6.74z"/><path class="cls-2" d="M77.72 84.39c2.37-2.84 8.11-5.16 15.27-6.74l-.26-.07c-7.25 1.59-13.06 3.93-15.49 6.81-2.75 3.26-.71 6.62 5.53 9.41l.48-.14c-6.16-2.74-8.25-6.05-5.53-9.27z"/><path d="M162 84.39c2.92 3.37.89 6.85-5.51 9.75l.91.25c6.52-3 8.53-6.55 5.48-10-2.68-3-8.87-5.46-16.52-7.12l-.46.13c7.47 1.6 13.51 4.03 16.1 6.99z" fill="url(#linear-gradient-16)"/><path d="M76 84.39c2.57-3 8.61-5.36 16.09-7l-.45-.13c-7.65 1.66-13.85 4.1-16.52 7.12-3.06 3.45-1.05 7 5.47 10l.92-.25c-6.41-2.89-8.43-6.37-5.51-9.74z" fill="url(#linear-gradient-17)"/><path d="M168.52 84.39c3.94 4 2.1 8.11-5.14 11.64l.46.13c7.29-3.57 9.11-7.79 5.1-11.77-3.46-3.43-10.77-6.15-19.54-8h-.21c8.69 1.89 15.93 4.61 19.33 8z" fill="url(#linear-gradient-18)"/><path d="M69.47 84.39c3.4-3.4 10.63-6.11 19.32-7.92h-.2c-8.77 1.82-16.08 4.54-19.54 8-4 4-2.19 8.2 5.09 11.77l.46-.24c-7.23-3.5-9.07-7.66-5.13-11.61z" fill="url(#linear-gradient-19)"/><path d="M167.35 84.39c3.75 3.84 1.86 7.88-5.23 11.3l.45.12c7.14-3.45 9-7.54 5.19-11.42-3.29-3.35-10.39-6-18.94-7.81l-.2.06c8.47 1.77 15.49 4.43 18.73 7.75z" fill="url(#linear-gradient-20)"/><path d="M70.63 84.39c3.25-3.32 10.27-6 18.74-7.75l-.2-.06c-8.55 1.79-15.65 4.46-19 7.81-3.81 3.88-1.94 8 5.2 11.42l.45-.12c-7.04-3.42-8.93-7.46-5.19-11.3z" fill="url(#linear-gradient-21)"/><path class="cls-21" d="M118.99 73.09l-1.54.34-.01.22 1.55-.33 1.56.33-.01-.22-1.55-.34zM95.54 98.64l-.99.31-.75-.31-1 .31-.09.22 1-.32.76.32.99-.32.76.32.08-.22-.76-.31z"/><path class="cls-21" d="M95.36 99.11l-.99.31-.76-.31-1.01.31-.08.22 1.01-.32.75.32 1.01-.32.76.32.08-.22-.77-.31zM84.32 76.66l2.39-.03.91-.19-2.37.02.34-.54-.91.19-.36.55zM80.78 77.54l2.47-.08.87-.22-2.45.08.14-.56-.87.22-.16.56zM84.67 75.58a6.69 6.69 0 002.65-.42h-.19a6.42 6.42 0 01-2.43.38c-1 0-1.75-.17-1.79-.38h-.19c.02.24.81.42 1.95.42zM85.52 74.56c1 0 1.73.16 1.79.37h.2c-.05-.23-.84-.41-2-.41a7 7 0 00-2.63.41h.19a6.52 6.52 0 012.45-.37z"/><path class="cls-21" d="M83.27 75c-.18.2.3.37 1.1.41-.72 0-1.14-.19-1-.38a3.31 3.31 0 011.63-.35 3.62 3.62 0 00-1.73.32zM86.82 75a2.93 2.93 0 01-1.61.38A3.39 3.39 0 0087 75c.15-.19-.33-.36-1.11-.4.64.12 1.11.27.93.4z"/><path class="cls-28" d="M116.09 85.93c0 .39 1 .72 2.26.8v-.07c-1.18-.08-2-.38-2-.73s.89-.63 2-.7v-.07c-1.26.08-2.23.39-2.26.77zM121.66 85.93c0 .35-.84.65-2 .73v.07c1.32-.08 2.29-.41 2.26-.8s-1-.69-2.28-.77v.07c1.13.07 2 .36 2.02.7z"/><path class="cls-28" d="M119 85.31a3.61 3.61 0 00-2.21.49h.21a3.41 3.41 0 012-.44 3.36 3.36 0 012 .44h.19a3.65 3.65 0 00-2.19-.49zM119 86.52a3.32 3.32 0 01-2-.45h-.19a3.51 3.51 0 002.23.5 3.47 3.47 0 002.23-.5H121a3.29 3.29 0 01-2 .45z"/><path class="cls-21" d="M175 101c1.85 0 3-.48 2.79-1.1h-.32c.13.56-.89 1-2.57 1a8.54 8.54 0 01-4.23-1h-.32A9.22 9.22 0 00175 101zM172.75 98.34a8.76 8.76 0 014.16.94h.32a9.5 9.5 0 00-4.57-1c-1.77 0-2.9.44-2.8 1h.32c-.07-.54.96-.94 2.57-.94z"/><path class="cls-21" d="M170.82 99.58a5.33 5.33 0 003.22 1.07l-.08-.09a4.85 4.85 0 01-2.9-1c-.38-.46.2-.85 1.3-1l-.08-.08c-1.22.17-1.87.59-1.46 1.1zM176.54 99.58c.41.47-.14.87-1.26 1l.08.09c1.26-.11 1.88-.55 1.41-1.07a5.53 5.53 0 00-3.21-1l.07.08a5.12 5.12 0 012.91.9zM94.37 74.37a3.35 3.35 0 00-1.87.36c-.13.2.5.37 1.42.37a3.2 3.2 0 001.87-.37c.12-.2-.51-.36-1.42-.36zm-.42.68c-.8 0-1.35-.14-1.23-.32a2.9 2.9 0 011.63-.32c.78 0 1.33.15 1.23.32a2.81 2.81 0 01-1.58.32zM92.55 74a2 2 0 00-1 .19c-.08.11.26.2.76.2a1.8 1.8 0 001-.2c.07-.07-.31-.19-.76-.19zm-.25.36c-.42 0-.72-.07-.65-.17a1.64 1.64 0 01.88-.16c.43 0 .72.07.66.16a1.54 1.54 0 01-.89.2zM96.05 75a1.74 1.74 0 00-1 .21c-.07.11.28.21.79.21a1.74 1.74 0 001-.21c.06-.08-.29-.21-.79-.21zm-.22.39c-.44 0-.75-.08-.69-.18s.45-.18.89-.18.74.08.69.18-.45.21-.89.21z"/><path class="cls-2" d="M94.27 74.53a1.71 1.71 0 00-1 .2c-.08.11.26.2.76.2a1.69 1.69 0 001-.2c.07-.11-.27-.2-.76-.2zm-.27.37c-.42 0-.72-.07-.66-.17a1.56 1.56 0 01.87-.17c.43 0 .72.08.67.17a1.5 1.5 0 01-.88.17z"/><path class="cls-21" d="M148.32 94c-1.35 0-2.28.36-2.07.81s1.5.84 2.89.84 2.31-.38 2.06-.84-1.53-.81-2.88-.81zm.76 1.54c-1.2 0-2.32-.33-2.51-.73s.63-.71 1.8-.71 2.29.32 2.5.71-.59.72-1.79.72zM172.22 85.15c-.94 0-1.49.21-1.21.48a4.13 4.13 0 002.25.5c1 0 1.51-.22 1.21-.5a4.31 4.31 0 00-2.25-.48zm1 .91a3.68 3.68 0 01-2-.43c-.24-.23.24-.42 1.06-.42a3.77 3.77 0 012 .42c.22.24-.28.43-1.09.43zM176.73 85.15c-.95 0-1.47.21-1.17.48a4.36 4.36 0 002.3.5c1 0 1.48-.22 1.16-.5a4.57 4.57 0 00-2.29-.48zm1.05.91a3.83 3.83 0 01-2-.43c-.27-.23.19-.42 1-.42a4 4 0 012 .42c.29.24-.16.43-1 .43zM144.91 93.23c-.73 0-1.23.2-1.13.44s.78.44 1.52.44 1.24-.2 1.13-.44-.79-.44-1.52-.44zm.36.82c-.64 0-1.23-.17-1.32-.38s.35-.38 1-.38 1.22.17 1.32.38-.36.38-1 .38zM152.21 95.49c-.75 0-1.26.21-1.12.47s.87.47 1.64.47 1.27-.21 1.12-.47a2.29 2.29 0 00-1.64-.47zm.48.88c-.66 0-1.3-.18-1.42-.41s.32-.41 1-.41a2 2 0 011.42.41c.11.23-.33.41-1 .41z"/><path class="cls-2" d="M148.5 94.36c-.72 0-1.22.2-1.11.44s.82.45 1.55.45 1.24-.2 1.11-.45-.82-.44-1.55-.44zm.41.83c-.64 0-1.24-.17-1.34-.39s.33-.38 1-.38 1.24.17 1.34.38-.35.39-1 .39z"/><path fill="url(#linear-gradient-22)" d="M40.26 118.06l63.93-26.93.28.04-63.86 27.15-.35-.26z"/><path class="cls-21" d="M111.47 75.27l-.31.22.08.11.31-.22zM109 77.59l-.23.29.1.09.24-.3zM106.41 82.4l-.1.37h.13c0-.12.06-.24.1-.36zM108.53 78.13l-.22.3.1.08.23-.31zM109.41 77.07l-.26.29.1.08.26-.28zM110.92 75.68l-.3.24.09.1.29-.24zM110.39 76.12l-.28.25.09.1.28-.25zM108.13 78.68l-.2.32.11.07.2-.31zM106.85 81.11l-.13.35.12.05c0-.12.09-.24.14-.36zM107.13 80.48l-.16.34.12.06.15-.35zM107.77 79.26l-.19.33.11.07c.06-.11.12-.22.19-.33zM106.62 81.75l-.12.36h.12l.12-.36zM107.43 79.86l-.17.34.11.06.18-.34zM106.24 83.07l-.08.37h.13c0-.13 0-.25.08-.37zM120.57 73h-.38v.14h.38zM118.52 72.89h-.38V73h.37zM117.83 72.93h-.38v.13h.38zM117.15 73l-.37.06v.13l.37-.06zM116.48 73.13l-.38.08v.12l.37-.07zM112 74.89l-.32.21.07.11.32-.21zM106.11 83.74l-.06.38h.13l.06-.38zM119.89 72.91h-.38V73h.38zM121.25 73.07l-.38-.06v.13l.38.06zM113.24 74.22l-.34.18.06.11.33-.17zM113.86 73.94l-.35.15.06.12.34-.15zM112.63 74.54l-.33.19.07.11.32-.18zM115.81 73.28l-.37.1v.12l.37-.1zM114.5 73.68l-.36.14v.12l.35-.14zM115.15 73.46l-.37.12v.12l.36-.11zM106.5 89.84l.12.37h.12l-.12-.36zM112.3 97.22l.33.19.06-.11-.32-.19zM113.51 97.86l.35.16v-.12l-.34-.16zM112.9 97.56l.34.17.05-.12-.33-.17zM111.72 96.86l.32.2.07-.11-.32-.2zM111.16 96.46l.31.22.08-.1-.31-.23zM110.11 95.58l.28.26.09-.1-.28-.26zM110.62 96l.3.24.08-.1-.29-.24zM118.14 99.05h.38v-.14h-.37zM106 84.42v.38h.13v-.38zM109.15 94.6l.26.28.1-.09-.26-.28zM116.78 98.88l.37.06v-.13l-.37-.06zM117.45 99h.38v-.13h-.37zM116.1 98.75l.38.08v-.13l-.37-.08zM114.78 98.37l.37.12v-.12l-.35-.12zM115.44 98.58l.37.1v-.13l-.37-.1zM114.14 98.14l.36.13v-.12l-.35-.14zM106.05 87.84l.06.37h.13l-.06-.37zM121.92 73.21l-.37-.08v.13l.37.07zM106.31 89.18l.1.37h.13c0-.13-.07-.25-.1-.37zM106.16 88.51l.08.38h.13c0-.12-.05-.25-.08-.37zM105.94 85.1v.38h.14v-.38zM106 87.16v.38h.13v-.38zM108.72 94.07l.23.3.11-.09-.24-.29zM105.92 86.47v.38h.14v-.37zM107.58 92.36l.19.33.11-.07-.19-.32zM106.72 90.49l.13.36h.13c0-.12-.1-.23-.14-.35zM108.31 93.52l.22.31.11-.08-.23-.31zM107.93 93l.2.32.11-.07c-.07-.11-.14-.21-.2-.32zM107.26 91.75l.17.34.12-.06-.18-.34zM107 91.13l.16.35.11-.06-.15-.34zM132.1 85.48v-.38h-.1v.38zM123.53 98.27l.35-.13v-.13l-.35.14zM127.11 96.27l.29-.24-.08-.1-.3.24zM126 97.06l.32-.2-.07-.11-.32.2zM125.4 97.41l.33-.19-.07-.11-.33.19zM124.16 98l.35-.16-.05-.12-.35.16zM127.63 95.84l.29-.26-.09-.1-.28.26zM124.79 97.73l.34-.17-.06-.12-.34.17zM126.56 96.68l.3-.22-.08-.11-.3.23zM130.26 92.69l.19-.33-.12-.06-.18.32zM130.59 92.09l.18-.34h-.12l-.17.33zM129.89 93.27l.21-.32-.11-.07-.21.32zM128.62 94.88l.25-.28-.1-.09c-.08.1-.17.19-.25.28zM129.49 93.83l.23-.31-.11-.08c-.07.11-.15.21-.22.31zM129.07 94.37l.24-.3-.1-.08-.24.29zM118.82 98.94v.13h.38v-.13h-.38zM132 86.17h.14v-.38H132a1.15 1.15 0 010 .19 1.28 1.28 0 010 .19zM109.71 95l-.09.09.27.27.09-.09zM106.05 85.79h-.13v.38h.13v-.38zM110 76.68l-.09-.1-.27.27.09.09zM119.2 73v-.14h-.38V73h.38zM128.31 77l.1-.1-.27-.27-.1.1zM128 95.28l.1.09.27-.27-.1-.09zM120.19 99h.38v-.13h-.37zM121.55 98.83l.37-.08v-.13l-.37.08zM122.22 98.68l.37-.1v-.13l-.36.1zM120.87 98.94l.38-.06v-.13l-.38.06zM119.51 99.07h.38v-.14h-.38zM122.88 98.49l.36-.12v-.12l-.36.12zM130.9 91.48l.15-.35h-.12l-.15.34zM132 84.12l-.06-.38h-.13l.06.38zM128.87 77.36l-.25-.29-.1.09c.08.1.17.19.25.28zM127.92 76.37l-.29-.25-.08.1.28.25zM127.4 75.92l-.29-.24-.09.1.3.24zM126.86 75.49l-.3-.22-.08.11.3.22zM130.1 79l-.21-.32-.11.08.21.32zM129.72 78.43l-.23-.3-.1.08.22.3zM129.31 77.88l-.24-.29-.1.08.24.3zM126.3 75.1l-.32-.21-.07.11.32.21zM123.88 73.82l-.35-.14v.12l.36.14zM124.51 74.09l-.35-.15v.12l.35.15zM123.24 73.58l-.36-.12v.13l.36.11zM125.13 74.4l-.34-.18-.06.12.34.17zM130.45 79.59l-.19-.33-.11.07.18.33zM125.73 74.73l-.33-.19-.07.12.33.18zM131.17 90.85l.14-.36h-.12l-.14.35zM131.92 88.21l.06-.37h-.13l-.06.37zM132.06 84.8v-.38h-.14v.38zM132.08 86.85v-.38H132v.37zM132 87.54v-.38h-.14v.38zM131.41 90.21l.12-.37h-.13c0 .13-.07.24-.11.36zM131.78 88.89l.08-.38h-.13c0 .12 0 .25-.07.37zM131.61 89.55l.1-.37h-.13l-.09.37zM122.59 73.38l-.37-.1v.12l.36.1zM131.53 82.11l-.12-.36h-.12c0 .12.08.24.11.36zM131.31 81.46l-.14-.35h-.12l.14.36zM131.05 80.82l-.15-.34h-.12l.15.35zM131.71 82.77l-.1-.37h-.12l.09.36zM130.77 80.2l-.18-.34-.11.06.17.34zM131.86 83.44l-.08-.37h-.12c0 .12.05.24.07.37z"/><g class="cls-16"><path class="cls-21" d="M103.75 64.32l-.62.45.16.21.62-.45zM98.66 69l-.48.6.21.17.48-.59zM97.8 70.09l-.45.63.22.15.45-.62zM97 71.22l-.42.65.23.14.41-.64zM94.42 76.12l-.28.72.25.09c.08-.24.18-.47.27-.71zM95 74.85l-.32.7.24.11c.1-.24.21-.47.32-.7zM96.26 72.4l-.39.66.24.13c.12-.22.25-.44.38-.66zM95.58 73.61l-.35.68.24.12c.11-.23.23-.46.35-.68zM93.18 80.09l-.16.76.26.05.15-.75zM118 59.5h-.77v.27h.76zM113.88 60l-.75.16.06.26.74-.16zM92.9 81.45l-.12.76h.27q0-.37.12-.75zM108.59 61.62l-.71.31.12.24.69-.31zM106.1 62.84l-.67.39.14.22.66-.38zM93.7 93.8l.23.73.25-.08c-.08-.24-.16-.49-.23-.73zM105.43 108.73l.67.39.13-.24-.66-.38zM107.88 110l.71.32.1-.24-.7-.32zM106.64 109.41l.69.35.11-.24-.68-.35zM104.26 108l.65.42.14-.23c-.22-.13-.43-.27-.64-.41zM103.13 107.19l.62.45.15-.22-.61-.45zM101 105.41l.57.51.18-.2-.57-.51zM102 106.32l.6.49.16-.21-.59-.48zM117.24 112.42h.77v-.27h-.76zM99.07 103.42l.51.57.2-.18-.51-.57zM114.49 112.09l.76.12v-.27c-.26 0-.51-.07-.76-.12zM115.86 112.29l.77.08v-.27l-.76-.08zM113.13 111.81l.75.16.05-.26-.75-.15zM111.78 111.47l.75.2.06-.26-.74-.19zM92.78 89.74l.12.76h.27c0-.25-.09-.5-.12-.76zM93.32 92.46l.2.75.25-.07c-.07-.25-.13-.5-.19-.74zM93 91.11l.16.75.25-.06-.15-.74zM92.57 84.21v.77h.27v-.77zM94.14 95.11l.28.72.24-.1c-.09-.23-.19-.47-.27-.71zM97.35 101.24l.45.62.22-.16-.45-.62zM96.58 100.08l.42.65.22-.15c-.14-.21-.28-.42-.41-.64zM145.49 85v-.77h-.27V85zM128.15 110.85l.72-.28-.1-.24c-.24.09-.47.19-.71.27zM135.39 106.81l.6-.49-.18-.2-.59.48zM133.12 108.41l.65-.42-.15-.22-.64.41zM131.93 109.12l.66-.39-.13-.23-.66.38zM136.45 105.92l.58-.51-.19-.2-.56.51zM134.27 107.64l.63-.45-.16-.22-.62.45zM141.76 99.56l.39-.67-.23-.13-.38.66zM142.44 98.35l.35-.69-.23-.11c-.12.22-.23.45-.35.68zM138.44 104l.52-.57-.2-.18-.51.57zM139.36 103l.49-.6-.22-.16c-.15.2-.31.39-.48.59zM118.63 112.2v.27h.77v-.27h-.76zM100.2 104.25l-.19.19.54.54.19-.19zM137.83 67.7l.19-.18-.55-.55-.18.19zM137.29 104.79l.18.19.55-.54-.19-.19zM121.4 112.37l.77-.08v-.27l-.76.08zM124.14 112l.76-.16-.06-.25-.75.15zM125.5 111.67l.74-.2-.07-.25-.74.19zM122.78 112.21l.76-.12-.05-.27q-.37.08-.75.12zM120 112.46h.77v-.27H120zM126.83 111.29l.74-.23-.09-.25-.72.23zM145.24 82.21l-.12-.76h-.26l.12.75zM139 68.54l-.52-.58-.19.19.51.56zM141.44 71.87l-.42-.65-.22.15.42.64zM140.67 70.72l-.45-.63-.21.16.45.62zM139.85 69.6l-.49-.6-.21.18c.17.19.33.39.48.59zM133.77 64l-.65-.42-.14.22.64.42zM130.14 61.93l-.7-.31-.11.24.7.31zM127.57 60.9l-.74-.24-.07.25.72.24zM132.59 63.23l-.66-.39-.13.23.66.38zM143.61 95.83l.28-.72-.25-.09c-.09.24-.18.48-.28.71zM145.4 83.59l-.08-.77h-.26c0 .25.05.5.07.76zM145.32 89.13l.08-.77h-.27c0 .25 0 .51-.07.76zM144.09 94.53l.24-.73-.25-.08-.24.73zM144.85 91.86l.16-.75h-.26c-.05.25-.1.5-.16.74zM144.5 93.21l.2-.75-.25-.06c-.06.25-.13.49-.2.74zM144.33 78.16l-.24-.74-.25.09.24.72zM143.89 76.84l-.28-.72-.25.1c.1.24.19.47.28.71zM143.37 75.55l-.31-.7-.24.11c.11.23.21.46.31.7zM142.79 74.29l-.35-.68-.23.12c.12.22.23.45.35.68zM145 80.85l-.16-.76-.26.06c.06.25.11.5.16.75z"/></g><g class="cls-16"><path class="cls-30" d="M128.9 66.3c-.83 0-1.68-.09-2.53-.12l-.42.59c.78 0 1.56.07 2.33.12z"/><path class="cls-31" d="M98.05 82.14q1.38.33 2.88.6l2.25-1c-.9-.16-1.76-.34-2.58-.52z"/><path d="M102 82.94c1 .18 2.1.34 3.21.49l1.79-1.12c-1-.13-1.94-.27-2.87-.43z" fill="#f2f2f2"/><path class="cls-31" d="M89.43 79.1a17.23 17.23 0 001.61.81l3.2-.68a15.74 15.74 0 01-1.48-.72z"/><path class="cls-33" d="M87.77 78a8.47 8.47 0 001.16.84l3.36-.55a9 9 0 01-1.09-.75zM86.71 76.8a4.93 4.93 0 00.71.85l3.45-.42a4.75 4.75 0 01-.69-.76z"/><path class="cls-34" d="M114.94 66.22l-2.52.14.7.58c.77 0 1.54-.1 2.33-.13z"/><path class="cls-31" d="M126.63 84.32q1.88-.09 3.69-.21l-1-1.21c-1.07.07-2.17.13-3.28.18z"/><path class="cls-2" d="M121.87 66.67l.07-.59h-2.57l.14.59h2.36z"/><path class="cls-31" d="M94.86 79.48l-3.15.72c.64.26 1.32.51 2.06.75l3-.8c-.71-.22-1.33-.44-1.91-.67z"/><path class="cls-30" d="M144.7 68.49c-.67-.16-1.36-.32-2.07-.46l-1.82.46c.65.13 1.28.28 1.88.43z"/><path d="M149.69 70a37.8 37.8 0 00-1.71-.58l-2.33.35 1.52.54z" fill="#e6e6e6"/><path class="cls-34" d="M141.85 67.87l-2.21-.4-1.54.53c.68.11 1.36.23 2 .36z"/><path class="cls-30" d="M147.33 69.19c-.61-.18-1.25-.35-1.91-.52l-2.08.41c.6.16 1.17.32 1.72.49z"/><path class="cls-31" d="M151.74 70.86c-.46-.23-1-.44-1.47-.65l-2.58.29c.46.19.9.39 1.31.59z"/></g><path class="cls-21" d="M11.41 114.53c1.45.35 2.6-.74 2.58-2.65h-.32c0 1.69-1 2.67-2.32 2.38a4.06 4.06 0 01-2.56-2.65h-.16a4.49 4.49 0 002.78 2.92zM10 107.6c1.18-.29 2.6.69 3.31 2.38h.32c-.78-1.91-2.39-3-3.69-2.64-1.08.29-1.65 1.54-1.55 2.94h.16A2.38 2.38 0 0110 107.6z"/><path class="cls-21" d="M8.86 110.92a3.89 3.89 0 001.93 2.68v-.23A3.53 3.53 0 019 110.92a2.24 2.24 0 01.72-2.45l-.05-.23a2.46 2.46 0 00-.81 2.68zM12.85 110.92c.3 1.42-.27 2.48-1.18 2.61l.05.25c1-.11 1.69-1.27 1.35-2.86a3.41 3.41 0 00-2.55-2.85l.05.24a3.17 3.17 0 012.28 2.61z"/><path transform="rotate(-87.78 169.185 76.058)" style="mix-blend-mode:screen" fill="url(#linear-gradient-23)" d="M114.43 75.95h109.49v.23H114.43z"/><path transform="rotate(-88.38 167.245 54.719)" style="mix-blend-mode:screen" fill="url(#linear-gradient-24)" d="M112.5 54.64h109.49v.16H112.5z"/><path transform="rotate(-1.43 75.854 54.642)" style="mix-blend-mode:screen" fill="url(#linear-gradient-25)" d="M75.89-.01h.12v109.49h-.12z"/><path transform="rotate(-3.91 9.128 76.276)" style="mix-blend-mode:screen" fill="url(#linear-gradient-26)" d="M8.99 21.6h.16v109.49h-.16z"/></g></g></g></svg>