<svg xmlns="http://www.w3.org/2000/svg" viewBox="0 0 38.04 38.04"><defs><style>.cls-1{fill:#feb113}.cls-2{fill:#08ade5}.cls-3{fill:#065977}</style></defs><g id="图层_2" data-name="图层 2"><g id="Layer_1" data-name="Layer 1"><path class="cls-1" d="M3.78 15.74v.14c0 .09 0 .22-.07.37s-.06.33-.08.52-.06.4-.08.61 0 .41 0 .6v1.04H.49v-.61-.63c0-.23 0-.47.06-.71s.06-.49.09-.72.07-.44.1-.62.06-.33.08-.44v-.16zM5.32 11.58l-.24.42-.08.27-.12.25c-.08.18-.17.36-.24.56s-.15.38-.22.56-.13.36-.18.5-.09.27-.11.36a1 1 0 010 .14l-2.82-.83v-.16c0-.11.08-.25.14-.43s.12-.38.2-.59l.24-.63c.09-.23.19-.45.29-.66l.13-.3c0-.09.1-.18.14-.27l.28-.54zM8 8l-.35.38-.36.39c-.12.15-.26.3-.38.46a14.51 14.51 0 00-1 1.34L3.43 9a18 18 0 011.14-1.58c.15-.2.31-.38.46-.55s.29-.34.42-.47l.42-.4zM11.5 5.37l-.45.25-.45.28-.5.34-.49.36-.42.32-.28.24-.11.1L6.87 5 7 4.92l.34-.28.5-.39.58-.42c.2-.15.41-.28.6-.4s.37-.25.53-.34l.54-.3zM15.65 3.8l-.5.12-.51.14-.29.09-.29.09c-.4.13-.78.29-1.07.4l-.47.21-1.23-2.67s.22-.11.56-.25.8-.33 1.27-.48l.35-.11.34-.1.6-.17.59-.14zM20.06 3.47h-2.8l-.51.07-.4-2.86L17 .6h.62l.68-.1h1.96zM24.4 4.39h-.13l-.36-.12-.24-.08-.27-.08-.58-.16-.59-.14-.52-.09c-.31-.06-.51-.08-.51-.08l.41-2.97s.24 0 .6.1c.18 0 .4.06.62.11l.71.16.69.19.32.1.28.09.43.15.16.05zM28.3 6.49l-.42-.3-.44-.29c-.17-.1-.34-.22-.52-.32-.71-.42-1.46-.76-1.46-.76l1.21-2.68a18.47 18.47 0 011.75.91l.61.37.52.35.5.36zM31.45 9.61l-.32-.41-.34-.4-.41-.45-.38-.44-.39-.36-.31-.25-.11-.09L31.11 5l.13.11.33.29.45.44c.17.15.34.34.51.51s.33.36.48.54.29.33.4.48l.38.48zM33.59 13.48L33.4 13c0-.14-.13-.3-.21-.48l-.13-.27-.13-.25c-.19-.37-.4-.72-.55-1l-.28-.44 2.47-1.6s.14.2.33.52.43.74.65 1.18l.17.33.15.32c.09.21.18.4.25.57l.23.58zM34.56 17.81v-.14a3.39 3.39 0 000-.37c0-.16 0-.34-.06-.53s-.07-.39-.1-.6l-.06-.3a2.46 2.46 0 00-.07-.29c0-.19-.08-.37-.12-.52s-.14-.49-.14-.49l2.82-.84s.07.23.17.59c0 .18.09.39.15.61s0 .23.08.35l.06.36c0 .24.09.48.12.71s.06.44.08.62 0 .34 0 .45v.16zM34.28 22.23v-.14c0-.09 0-.22.06-.37.06-.31.11-.72.16-1.12s.07-.83.07-1.14V19h2.94a.67.67 0 010 .16v.45c0 .36 0 .85-.08 1.34s-.11 1-.19 1.34c0 .18-.06.33-.08.43a.83.83 0 010 .17zM32.76 26.39l.23-.46a4.36 4.36 0 00.23-.48c.08-.17.17-.36.24-.55a14.54 14.54 0 00.54-1.56l2.83.81a17.54 17.54 0 01-.64 1.85c-.09.23-.19.45-.29.66a6.18 6.18 0 01-.27.57l-.28.55zM30.13 30l.35-.38c.11-.11.23-.25.35-.39L31 29l.19-.24c.13-.16.26-.32.37-.48l.31-.43.2-.31.08-.12L34.66 29l-.09.14-.24.37c-.11.15-.23.33-.37.51s-.29.38-.43.58l-.23.28-.23.27c-.16.17-.29.34-.42.47l-.42.44z"/><path class="cls-2" d="M4 19v1.06a13.86 13.86 0 00.5 3c0 .15.09.31.14.47l.17.5a5.27 5.27 0 00.19.51 4.93 4.93 0 00.22.53 13.9 13.9 0 001.2 2.22 15.14 15.14 0 004.23 4.27 15.84 15.84 0 003.07 1.58 15.32 15.32 0 003.59.86H20.21c.33 0 .66-.06 1-.1a17.52 17.52 0 002-.43c.33-.09.65-.21 1-.32l.48-.18.25-.1.23-.11a15.09 15.09 0 003.57-2.22 15.65 15.65 0 001.55-1.5 14.68 14.68 0 001.32-1.71 15.61 15.61 0 001.08-1.91 15 15 0 00.79-2.05 14.63 14.63 0 00.48-2.16 16.32 16.32 0 00.12-2.21 16.44 16.44 0 00-.17-2.21 14.22 14.22 0 00-.48-2.15 14.6 14.6 0 00-.79-2.06 15.61 15.61 0 00-1.08-1.91A14.68 14.68 0 0030.24 9a16.87 16.87 0 00-1.55-1.5 15.09 15.09 0 00-3.57-2.22l-.23-.11-.25-.09-.48-.19c-.32-.11-.64-.23-1-.32a15.53 15.53 0 00-2-.42c-.33 0-.66-.09-1-.11h-2.84a14.85 14.85 0 00-3.59.87 15 15 0 00-7.3 5.84A13.9 13.9 0 005.23 13a4.93 4.93 0 00-.22.53 5.27 5.27 0 00-.19.51l-.17.5-.14.46A13.69 13.69 0 004 18v1h-.19v-.27-.8a14.33 14.33 0 01.51-3c0-.15.09-.31.14-.48s.11-.33.17-.5.12-.34.19-.52.14-.36.22-.54a14.61 14.61 0 011.26-2.2 15.19 15.19 0 014.27-4.32 15.58 15.58 0 013.1-1.59 15.29 15.29 0 013.63-.87 3.91 3.91 0 01.48-.05h2.46c.33 0 .66.07 1 .11a14 14 0 012 .43c.33.09.66.21 1 .32l.48.19L25 5l.24.1a15.39 15.39 0 013.6 2.25 14.82 14.82 0 011.56 1.51 16.48 16.48 0 011.35 1.74 15.73 15.73 0 011.08 1.92 15.39 15.39 0 01.8 2.08 14.63 14.63 0 01.49 2.18 15.62 15.62 0 010 4.46 14.63 14.63 0 01-.49 2.18 15.39 15.39 0 01-.8 2.08 15.86 15.86 0 01-1.08 1.93 17.45 17.45 0 01-1.35 1.73 14.82 14.82 0 01-1.56 1.51 15.39 15.39 0 01-3.6 2.25L25 33l-.25.09-.48.19c-.33.11-.66.23-1 .32a14 14 0 01-2 .43c-.33 0-.66.09-1 .11H17.3a15.3 15.3 0 01-3.63-.88 15.18 15.18 0 01-7.37-5.9 14.69 14.69 0 01-1.22-2.24c-.08-.18-.15-.36-.22-.54a4.6 4.6 0 01-.19-.52c-.06-.17-.12-.34-.17-.5s-.1-.32-.14-.48a14.22 14.22 0 01-.51-3V19z"/><path class="cls-2" d="M.16 19v1.34a18.73 18.73 0 00.63 3.7c.06.19.12.39.17.6l.21.62c.07.22.16.43.24.65s.18.44.28.66a18.24 18.24 0 001.51 2.78 18.89 18.89 0 009.14 7.32 18.74 18.74 0 004.5 1.08l.6.06h3.03c.41 0 .83-.08 1.24-.14a18 18 0 002.48-.53c.41-.11.82-.26 1.22-.4l.61-.23.3-.12.3-.14a18.67 18.67 0 004.47-2.79 20 20 0 001.93-1.87 19.12 19.12 0 001.66-2.14 18.11 18.11 0 001.35-2.39 19.66 19.66 0 001-2.58 19.27 19.27 0 00.6-2.71 19.14 19.14 0 000-5.52 19.59 19.59 0 00-.6-2.71 19.66 19.66 0 00-1-2.58 18 18 0 00-1.35-2.38 18.36 18.36 0 00-1.66-2.15 20 20 0 00-1.93-1.87 18.67 18.67 0 00-4.47-2.79l-.3-.14-.3-.12-.61-.23c-.4-.14-.81-.28-1.22-.4a19.57 19.57 0 00-2.43-.52c-.41-.06-.83-.11-1.24-.14H17.49c-.2 0-.4 0-.6.06a18.75 18.75 0 00-8.35 3.06 19 19 0 00-5.29 5.34 18.73 18.73 0 00-1.51 2.78c-.1.22-.19.45-.28.66s-.17.44-.24.65l-.22.62c0 .21-.1.41-.16.61a18.69 18.69 0 00-.63 3.7v1.34H0v-.34-1A18.46 18.46 0 01.69 14c.06-.2.11-.4.17-.61l.21-.62c.07-.22.16-.43.25-.65s.17-.45.27-.67A19.43 19.43 0 013.11 8.6a19.2 19.2 0 015.34-5.39 19.43 19.43 0 013.88-2A19.69 19.69 0 0116.87.12h3.67c.41 0 .83.09 1.24.14a19.53 19.53 0 012.5.54c.42.11.83.26 1.24.4l.61.24.3.12.3.13a18.82 18.82 0 014.51 2.82 19.2 19.2 0 011.95 1.88 20.92 20.92 0 011.68 2.11 18.92 18.92 0 011.36 2.41 20.85 20.85 0 011 2.6 19.58 19.58 0 01.61 2.73A21.53 21.53 0 0138 19a21.53 21.53 0 01-.2 2.78 19.26 19.26 0 01-.61 2.73 20.85 20.85 0 01-1 2.6 18.92 18.92 0 01-1.36 2.41 19.91 19.91 0 01-1.68 2.17 20.46 20.46 0 01-1.95 1.89 19.1 19.1 0 01-4.51 2.81l-.3.13-.3.12-.61.24c-.41.14-.82.29-1.24.4a19.53 19.53 0 01-2.5.54c-.41 0-.83.11-1.24.14h-3.07c-.2 0-.4 0-.6-.06a19.19 19.19 0 01-4.54-1.09 19.17 19.17 0 01-9.22-7.38 20 20 0 01-1.52-2.8c-.1-.23-.18-.46-.27-.67s-.18-.44-.25-.66l-.17-.6c-.06-.21-.11-.41-.17-.61a18.38 18.38 0 01-.64-3.73v-1C.05 19.13 0 19 0 19z"/><path class="cls-3" d="M16.48 9.21l.22-.05c.13 0 .31-.08.49-.11h.72l-.46-4.21H18.03l.45 6.61h-.27l-.59.09h-.31a1.56 1.56 0 00-.27.06l-.26.07-1.92-6.4.56-.16zM29 17.88a1.17 1.17 0 010 .23v1.22l4.23.13v.58l-6.61-.47v-.07a1.15 1.15 0 000-.2 2.44 2.44 0 000-.28v-.32-.32-.54l6.55-1 .08.58zM18.75 29.08h-.23L18 29h-.7l-.71 4.17h-.29L16 33l1.38-6.49h.27c.16 0 .37.06.59.09H19.11l.08 6.63h-.58z"/><path class="cls-2" d="M17 4.8l.46 3.28h-.14l-.3.05a3.51 3.51 0 00-.43.09L15.87 5s.28-.07.57-.11l.39-.07zM33.3 19H30v-.44-.44l3.3-.27a1.41 1.41 0 010 .18V19zM17 33.18l.46-3.28.44.06h.44l-.19 3.31h-.58z"/><path class="cls-3" d="M11.88 6.12L13 8.05l-.17.1c-.11.06-.27.14-.45.26L12 8.6l-.32.23c-.22.15-.44.34-.67.51s-.44.37-.64.56a3.5 3.5 0 01-.28.27l-.24.26c-.15.15-.26.29-.35.38l-.09.19.58.49-.06.07-.16.2-.25.24c-.09.13-.2.27-.3.43A11.58 11.58 0 007.94 15a12.19 12.19 0 00-.64 2.75c0 .38-.06.7-.06.93v.35H4.28v-.67-.78c0-.14 0-.3.06-.47s0-.34.07-.52a14.2 14.2 0 01.63-2.44 14.56 14.56 0 011.21-2.61A15.07 15.07 0 018 9.21a14.41 14.41 0 011.85-1.73 15.32 15.32 0 011.45-1l.43-.25zm-6 11.41a.37.37 0 00-.41.34.38.38 0 00.35.41.39.39 0 00.4-.34.4.4 0 00-.38-.41zm.21-1.3a.39.39 0 00-.28.05.39.39 0 00-.16.25.36.36 0 00.3.43.38.38 0 00.44-.29.39.39 0 00-.06-.28.4.4 0 00-.28-.16zm.3-1.23a.41.41 0 00-.29 0 .42.42 0 00-.18.23.37.37 0 00.26.46.38.38 0 00.46-.25.38.38 0 000-.28.37.37 0 00-.25-.16zm.47-1.24a.38.38 0 00-.28.7.38.38 0 00.48-.21.39.39 0 00-.2-.53zm.58-1.18a.38.38 0 00-.51.16.37.37 0 00.17.5.37.37 0 10.34-.66zm.71-1.11a.37.37 0 00-.53.1.38.38 0 10.53-.1zM32.6 13.27l-2 .86-.11-.13c-.06-.12-.12-.28-.22-.48s-.21-.42-.35-.65-.13-.24-.21-.36l-.23-.36a11.4 11.4 0 00-1-1.26l-.19-.22-.16-.17-.13-.19-.54.52-.07-.07-.18-.18-.21-.28-.4-.35a11.61 11.61 0 00-2.36-1.53 12.31 12.31 0 00-2.67-.92c-.19 0-.36-.07-.51-.1l-.41-.06h-.35l.08-.75.23-2.19.67.08.76.14.47.1.25.06.26.08c.17 0 .36.09.55.16l.58.2.61.24.61.27a15 15 0 012.47 1.48 15.35 15.35 0 012.09 1.89 14.31 14.31 0 011.52 2c.21.31.37.61.52.86l.35.69zm-10.72-7.2a.38.38 0 10-.44.29.39.39 0 00.44-.29zm1.27.34a.37.37 0 00-.25-.47.38.38 0 10-.21.72.38.38 0 00.46-.25zm1.23.48a.38.38 0 00-.2-.5.37.37 0 00-.49.21.37.37 0 00.69.29zm1.18.59a.37.37 0 10-.66-.35.38.38 0 00.15.5.39.39 0 00.51-.15zm1.11.71a.38.38 0 00-.1-.53.37.37 0 10-.41.62.37.37 0 00.51-.09zm1 .81a.37.37 0 00-.05-.53.36.36 0 00-.53.06.37.37 0 00.06.52.38.38 0 00.56-.05zM22.3 33.39l-.48-2.14.18-.05c.12 0 .3-.08.5-.13a12.65 12.65 0 001.5-.54l.4-.18.37-.18c.24-.12.46-.25.64-.36l.45-.28.16-.1-.42-.63.29-.2c.09-.07.21-.14.33-.24l.19-.16.11-.08.11-.09A11.86 11.86 0 0028.55 26l.22-.31c.08-.11.14-.22.21-.33s.26-.43.38-.63l.32-.62c.09-.2.18-.39.25-.57s.14-.34.19-.49l.13-.39a1.22 1.22 0 00.07-.25v-.08l.72.2 2.12.61v.17c0 .11-.09.27-.15.48s-.08.21-.12.33l-.15.39c-.11.29-.25.59-.4.93A16.63 16.63 0 0131 27.56a15.3 15.3 0 01-1.89 2.17 16.18 16.18 0 01-2.27 1.77 15 15 0 01-2.24 1.15l-.49.19-.41.16c-.28.1-.53.17-.74.23l-.28.07-.2.05zm9-9.29a.37.37 0 10.26-.7.4.4 0 00-.48.22.38.38 0 00.2.48zm-.57 1.19a.37.37 0 00.51-.16.37.37 0 00-.17-.5.37.37 0 10-.34.66zM30 26.42a.37.37 0 00.52-.11.37.37 0 00.08-.31.36.36 0 00-.17-.23.4.4 0 00-.28 0 .34.34 0 00-.23.16.37.37 0 00.08.49zm-.79 1.06a.38.38 0 00.53-.06.37.37 0 00-.07-.53.38.38 0 00-.52.06.38.38 0 00.09.53zm-.89 1a.36.36 0 00.53 0 .37.37 0 000-.53.37.37 0 00-.52.54zm-1 .88a.35.35 0 00.53 0 .36.36 0 000-.52.37.37 0 00-.53 0 .3.3 0 00-.12.25.35.35 0 00.17.24z"/><path class="cls-2" d="M7.07 32a.7.7 0 001 0l.23.19.3.24c.2.15.4.31.61.45.41.3.84.57 1.27.83A16.36 16.36 0 0013.21 35a17 17 0 0017.07-3.24c.14-.11.26-.24.39-.36l.38-.36L31 31l-.38.36c-.12.12-.25.25-.38.36a16.9 16.9 0 01-16.93 3.21 16.12 16.12 0 01-2.73-1.27c-.43-.26-.86-.53-1.26-.82-.21-.14-.41-.3-.61-.45l-.3-.23-.22-.19a.72.72 0 00.13-.5.77.77 0 00-.27-.47.73.73 0 00-1 0 .71.71 0 00.02 1zM23.88 17.58a.16.16 0 00-.05-.11.17.17 0 00-.12 0v-.33c0-.12 0-.24-.07-.35a4.12 4.12 0 00-.24-.67 4 4 0 00-2-1.94 3.84 3.84 0 00-1.4-.39h-.24.24a4 4 0 012.52 1.12 4.06 4.06 0 01.81 1.15 3.71 3.71 0 01.24.66c0 .11.05.23.07.34V17.39a.17.17 0 00-.1.06.15.15 0 000 .11.17.17 0 00.17.16.16.16 0 00.17-.14z"/><path class="cls-2" transform="rotate(-32.24 9.83 24.623)" d="M6.63 24.26h6.41v.72H6.63z"/><path class="cls-1" d="M21.4 19.65v-.1V19l3.94.2v.34a1.1 1.1 0 000 .18c0 .13 0 .25-.05.37v.16a1.15 1.15 0 000 .14l-.06.25zM21.06 20.42l.05-.09s.07-.11.11-.19a1.32 1.32 0 00.08-.14v-.1l3.72 1.3s0 .1-.08.24a5.19 5.19 0 01-.23.51 3.43 3.43 0 01-.27.48l-.13.22zM20.48 21l.08-.06.16-.15a2.06 2.06 0 00.15-.16l.06-.07L24 23.05l-.16.19a4.5 4.5 0 01-.38.41c-.14.14-.29.27-.41.37l-.2.15zM19.73 21.43h.19l.1-.05a.75.75 0 00.2-.1l.08-.05 2.12 3.33-.22.13a3.18 3.18 0 01-.49.26l-.27.13-.24.09-.24.08zM18.92 21.56h.6l.9 3.84h-.25l-.55.08h-.9zM18.07 21.4h.09l.21.06h.26l-.21 3.94h-.31l-.32-.05h-.32a4.54 4.54 0 01-.54-.15l-.23-.08zM17.33 21l.08.06.18.12a1.75 1.75 0 00.27.15l-1.68 3.57-.18-.13a3.65 3.65 0 01-.48-.28 4.93 4.93 0 01-.45-.31l-.2-.16zM16.78 20.34v.08l.13.18c0 .06.1.11.14.16l-2.65 2.89h-.05l-.12-.13c-.1-.12-.24-.26-.36-.42s-.25-.32-.33-.45l-.13-.21zM16.46 19.55v.1a1.08 1.08 0 00.06.2 1.56 1.56 0 00.08.21v.08l-3.46 1.76s-.05-.09-.11-.23a4.64 4.64 0 01-.21-.52c-.07-.19-.12-.38-.16-.53s-.06-.25-.06-.25zM16.43 18.67v.48a.34.34 0 010 .1.45.45 0 000 .1l-3.92.48v-.07-.18V18.83v-.52zM16.67 17.9v.09a1.38 1.38 0 00-.08.2 1.08 1.08 0 00-.06.2v.1l-3.86-.82s0-.1.06-.25.09-.34.16-.53a5.58 5.58 0 01.21-.52l.11-.23zM17.17 17.21v.05a1.27 1.27 0 00-.14.17 1.55 1.55 0 00-.13.17v.09l-3.37-2.06.13-.21c.08-.13.21-.29.33-.45s.26-.3.36-.42l.12-.13h.05zM17.86 16.73a1.75 1.75 0 00-.27.15l-.18.12-.08.06-2.51-3 .2-.15a4.86 4.86 0 01.45-.32 5.28 5.28 0 01.48-.28l.23-.11zM18.68 16.5h-.31l-.21.06h-.09l-1.37-3.7.23-.08.54-.15a5 5 0 01.55-.1h.25z"/><path class="cls-3" d="M16.71 19zM19 21.26c-.11-.01 0 0 0 0zM18.94 16.79zM21.18 19v-.1a.25.25 0 000-.08v-.11-.24a2.32 2.32 0 00-.29-.63 2.24 2.24 0 00-.63-.64 2.71 2.71 0 00-.45-.23H18.99a2.64 2.64 0 00-.29 0 2 2 0 00-.7.03 2.46 2.46 0 00-.53.33 2.83 2.83 0 00-.43.48 2.18 2.18 0 00-.27.58 1.24 1.24 0 000 .16.13.13 0 010 .06v.54a.88.88 0 000 .16 1.83 1.83 0 00.07.32 2.24 2.24 0 00.27.59 2.76 2.76 0 00.43.47 2.46 2.46 0 00.53.33.84.84 0 00.14.06l.15.05h.14a.27.27 0 00.12 0 2 2 0 00.36 0h.25a2.35 2.35 0 001-.36 2 2 0 00.63-.64 2.41 2.41 0 00.29-.62v-.13a.34.34 0 000-.09v-.08a.15.15 0 010-.06v-.13zm-.23.24v.12a.2.2 0 010 .07v.12a2.11 2.11 0 01-.25.57 2.2 2.2 0 01-.57.57 2 2 0 01-.9.33H19a1.28 1.28 0 01-.35 0h-.23a.93.93 0 01-.13 0l-.12-.05a1.84 1.84 0 01-.48-.3 2 2 0 01-.39-.43 2.32 2.32 0 01-.25-.53c0-.1-.05-.19-.06-.29a.77.77 0 010-.15V18.7a.11.11 0 000-.05v-.06a.83.83 0 000-.15 2.32 2.32 0 01.25-.53 2.27 2.27 0 01.39-.43 2.15 2.15 0 01.48-.3 1.93 1.93 0 01.52-.15 2.46 2.46 0 01.26 0H19.59a1.83 1.83 0 01.42.21 2.37 2.37 0 01.57.57 2.42 2.42 0 01.25.57V18.7a.22.22 0 010 .08.42.42 0 00.17.22v.24z"/><path class="cls-3" d="M25.65 19.43v.06a.51.51 0 010 .1c0 .12 0 .25-.05.39V20.31a.3.3 0 010 .1c0 .13-.06.26-.1.4a6.57 6.57 0 01-.85 1.9 7 7 0 01-1.89 1.9 6.79 6.79 0 01-3 1.09H19h-.5l-.44-.05h-.27l-.26-.05-.44-.11-.44-.14-.43-.17a7 7 0 01-1.59-1 6.72 6.72 0 01-1.28-1.43 7 7 0 01-.84-1.75 6.45 6.45 0 01-.21-1 3.86 3.86 0 01-.06-.49v-.46-.6-.31-.58c0-.16.08-.32.12-.48a7 7 0 01.84-1.77 6.72 6.72 0 011.28-1.43 6.93 6.93 0 011.59-1 6.59 6.59 0 011.93-.51 6.52 6.52 0 01.88-.07h.7l.53.07h.25l.2.05.4.11.38.13a6.54 6.54 0 011.37.7 7 7 0 011.89 1.91 6.53 6.53 0 01.85 1.89c0 .14.07.27.1.4s0 .24.06.36 0 .21.05.3 0 .18 0 .26v.47h.21v-.48-.27c0-.1 0-.2-.05-.32s0-.24-.06-.36-.07-.27-.1-.42a7 7 0 00-2.83-3.91 7 7 0 00-1.42-.73l-.41-.07-.41-.11h-.47l-.54-.07h-.73a6.82 6.82 0 00-.9.07 6.82 6.82 0 00-3.45 1.55A6.86 6.86 0 0012.31 17c-.05.17-.09.33-.13.5v2.01a4 4 0 00.06.5 5.76 5.76 0 00.22 1 6.86 6.86 0 002.18 3.3 7.05 7.05 0 001.64 1l.45.18a3.36 3.36 0 00.45.14c.15.05.3.08.45.12l.27.05h2.02a7.07 7.07 0 003.07-1.12 7 7 0 001.94-2 6.86 6.86 0 00.89-1.95c0-.15.07-.28.1-.41V19.87c0-.15 0-.28.05-.41a.51.51 0 000-.1v-.3h-.21z"/><path class="cls-2" d="M17.31 19v.09V19zM19 20.66h.09H19zM20.27 19.28h-.08a1 1 0 000-.25 1.22 1.22 0 00-.16-.6l.07-.05.22-.18a.49.49 0 00-.08-.12 1.53 1.53 0 00-.13-.15L20 17.8a1.88 1.88 0 00-.37-.22l-.13-.05h-.05l-.12.26a.69.69 0 01-.05.13h-.2a.83.83 0 00-.22 0v-.17c0-.05-.08-.27-.08-.27h-.38a1 1 0 00-.2.11 1.27 1.27 0 00-.19.13l-.08.07-.06.06-.1.11s.08.09.2.2a1.29 1.29 0 00.17.15 1.14 1.14 0 00-.15.34h-.51v.08a1.41 1.41 0 010 .2v.3a.43.43 0 000 .11v.11a1 1 0 00.08.18.81.81 0 00.06.13l.26-.11.19-.11a1.2 1.2 0 00.26.29c0 .07-.07.13-.09.18l-.09.19v.07h.05l.12.06.09.05H19.35v-.07-.21a.71.71 0 000-.14 1.28 1.28 0 00.4-.15l.08.09a2.26 2.26 0 00.2.21.34.34 0 01.06-.06 1.33 1.33 0 00.27-.33 1.44 1.44 0 00.18-.38v-.14z"/></g></g></svg>