<svg xmlns="http://www.w3.org/2000/svg" viewBox="0 0 20.87 180.13"><defs><style>.cls-1{fill:#feb113}</style></defs><g id="图层_2" data-name="图层 2"><g id="Layer_1" data-name="Layer 1"><path class="cls-1" d="M6.44 174.38h14.28l.14 5.75H6.44v-5.75zM6.44 161.93h13.97l.14 5.75H6.44v-5.75zM6.44 149.47H20.1l.15 5.75H6.44v-5.75zM6.44 137.02h13.35l.15 5.74H6.44v-5.74zM6.44 124.56h13.05l.14 5.75H6.44v-5.75zM6.44 112.1h12.74l.14 5.75H6.44v-5.75zM6.44 99.64h12.43l.14 5.75H6.44v-5.75zM6.44 87.19h12.13l.14 5.75H6.44v-5.75zM6.44 74.73h11.82l.14 5.75H6.44v-5.75zM6.44 62.27h11.51l.14 5.76H6.44v-5.76zM6.44 49.82h11.2l.15 5.75H6.44v-5.75zM6.44 37.37h10.89l.15 5.75H6.44v-5.75zM6.44 24.91h10.58l.14 5.75H6.44v-5.75zM6.44 12.45h10.28l.14 5.75H6.44v-5.75zM6.44 0h9.97l.14 5.75H6.44V0z"/><path fill="#00b3ea" d="M0 0h3.26v180.13H0z"/></g></g></svg>