<svg xmlns="http://www.w3.org/2000/svg" viewBox="0 0 171.7 170.45"><defs><style>.cls-2{fill:#05c4c1}.cls-3{fill:#037371}</style></defs><g style="isolation:isolate"><g id="图层_2" data-name="图层 2"><g id="Layer_1" data-name="Layer 1"><path class="cls-2" d="M85.85 6.62h.83V0H85v6.63zM85.85 163.83H85v6.62h1.65v-6.62zM81 6.78L80.48.17l-1.65.12.48 6.6zM90.75 163.68l.48 6.6q.83 0 1.65-.12l-.48-6.6q-.83.08-1.65.12zM75.26 7.33L74.3.78c-.55.08-1.1.15-1.64.24l1 6.55zM96.45 163.12l1 6.55 1.64-.23-1-6.55zM102.09 162.15l1.44 6.46 1.61-.35-1.44-6.46zM69.62 8.3l-1.44-6.46-1.62.35L68 8.66zM107.65 160.77l1.9 6.34 1.59-.47-1.91-6.34zM64.06 9.68l-1.9-6.34-1.59.47 1.9 6.34zM113.09 159l2.36 6.19c.51-.19 1-.38 1.54-.59l-2.35-6.18zM58.62 11.47l-2.36-6.19-1.55.59 2.36 6.19c.51-.21 1.03-.4 1.55-.59zM118.38 156.81l2.81 6 1.5-.7-2.81-6c-.49.23-.99.47-1.5.7zM53.32 13.65l-2.8-6-1.5.7 2.8 6zM48.2 16.21L45 10.43c-.48.27-1 .53-1.44.81l3.2 5.76c.47-.26.96-.53 1.44-.79zM123.51 154.25l3.23 5.77 1.44-.81-3.18-5.77zM128.43 151.31l3.64 5.53 1.38-.91-3.64-5.53c-.46.31-.92.6-1.38.91zM43.28 19.14l-3.64-5.53c-.47.3-.93.6-1.38.91l3.64 5.53zM133.12 148l4 5.24c.45-.33.89-.66 1.32-1l-4-5.25zM38.59 22.41l-4-5.24c-.44.33-.88.66-1.31 1l4 5.25zM34.14 26l-4.4-4.93-1.24 1.11 4.41 4.94c.4-.37.82-.73 1.23-1.12zM137.56 144.43l4.41 4.94 1.24-1.1-4.41-4.94zM141.73 140.51l4.76 4.6c.39-.39.77-.79 1.15-1.19l-4.75-4.6c-.38.4-.77.79-1.16 1.19zM30 30l-4.75-4.61c-.39.39-.78.79-1.16 1.19l4.76 4.6c.35-.45.73-.84 1.15-1.18zM26.1 34.16L21 29.91c-.36.42-.72.84-1.07 1.27L25 35.43c.38-.43.74-.85 1.1-1.27zM145.61 136.29l5.08 4.25c.35-.42.71-.84 1.06-1.27l-5.08-4.27c-.35.45-.67.87-1.06 1.29zM22.53 38.64l-5.37-3.86c-.33.44-.65.89-1 1.34L21.57 40c.31-.47.64-.91.96-1.36zM149.17 131.81l5.37 3.86c.33-.44.66-.88 1-1.34l-5.37-3.86zM19.31 43.37l-5.64-3.46c-.3.46-.59.93-.87 1.4l5.64 3.47q.42-.7.87-1.41zM152.4 127.08l5.64 3.46.87-1.4-5.64-3.47zM16.43 48.32l-5.88-3c-.25.48-.51 1-.76 1.47l5.88 3c.25-.49.5-.98.76-1.47zM155.27 122.12l5.88 3c.26-.48.51-1 .76-1.47l-5.87-3c-.25.5-.51.99-.77 1.47zM157.78 117l6.08 2.61.66-1.52-6.09-2.61c-.21.52-.43.99-.65 1.52zM13.93 53.47l-6.09-2.61c-.22.51-.44 1-.65 1.52L13.27 55c.22-.52.43-1 .66-1.53zM11.81 58.79l-6.26-2.16c-.19.52-.37 1-.55 1.57l6.26 2.15c.18-.52.36-1.04.55-1.56zM159.9 111.66l6.26 2.16.54-1.56-6.26-2.16c-.17.52-.36 1.04-.54 1.56zM161.62 106.2l6.4 1.7c.15-.53.29-1.07.43-1.6l-6.4-1.7c-.14.54-.28 1.07-.43 1.6zM10.08 64.25l-6.4-1.7c-.15.53-.29 1.07-.43 1.6l6.4 1.7c.14-.53.28-1.07.43-1.6zM8.76 69.82l-6.51-1.23c-.1.55-.21 1.09-.31 1.63l6.51 1.23c.09-.54.2-1.09.31-1.63zM163 100.63l6.5 1.23c.11-.54.21-1.09.31-1.63L163.25 99c-.09.55-.2 1.09-.25 1.63zM163.86 95l6.57.76c.07-.55.13-1.1.19-1.65l-6.62-.78c0 .55-.08 1.1-.14 1.67zM7.85 75.48l-6.58-.76c-.07.55-.13 1.1-.19 1.65l6.58.75c.05-.55.12-1.12.19-1.64zM164.42 87.62l-.06 1.65 6.61.27q0-.83.06-1.65zM7.35 81.18l-6.62-.27c0 .55 0 1.1-.06 1.65l6.61.27c.02-.55.04-1.1.07-1.65zM7.27 86.9l-6.62.22v1.65l6.62-.21c.03-.56.01-1.1 0-1.66zM164.44 83.55l6.61-.21c0-.56 0-1.11-.05-1.66l-6.62.21c.03.55.05 1.11.06 1.66zM164.11 77.83l6.58-.69a92.2 92.2 0 00-.17-1.65l-6.58.7c.06.54.12 1.09.17 1.64zM7.59 92.62L1 93.31c.05.55.11 1.1.17 1.65l6.59-.69q-.09-.82-.17-1.65zM8.33 98.3l-6.52 1.17c.1.54.19 1.09.3 1.63l6.51-1.17c-.1-.54-.2-1.09-.29-1.63zM163.37 72.15l6.52-1.15c-.1-.54-.19-1.08-.29-1.62l-6.52 1.16c.1.53.2 1.07.29 1.61zM9.48 103.91l-6.41 1.64c.13.53.27 1.07.41 1.6l6.41-1.64c-.14-.51-.27-1.07-.41-1.6zM162.22 66.55l6.41-1.64c-.13-.54-.26-1.08-.4-1.61l-6.42 1.64c.19.53.28 1.06.41 1.61zM160.66 61l6.28-2.11c-.17-.52-.35-1-.53-1.57l-6.28 2.11c.18.57.36 1.08.53 1.57zM11 109.42l-6.28 2.1c.18.53.35 1 .53 1.57l6.28-2.1c-.14-.52-.32-1.05-.53-1.57zM13 114.8l-6.11 2.55c.21.51.42 1 .64 1.53l6.11-2.56c-.22-.5-.43-1.01-.64-1.52zM158.7 55.65l6.11-2.55c-.21-.51-.42-1-.64-1.53l-6.11 2.56c.22.51.43 1.01.64 1.52zM15.35 120l-5.9 3c.24.5.49 1 .74 1.48l5.91-3c-.26-.48-.5-.96-.75-1.48zM156.35 50.43l5.91-3-.75-1.43-5.91 3q.4.7.75 1.43zM18.07 125.06l-5.67 3.41c.28.48.57.95.86 1.42l5.67-3.42c-.29-.47-.58-.94-.86-1.41zM153.63 45.4l5.67-3.4c-.28-.47-.56-.95-.85-1.42L152.78 44c.28.45.57.92.85 1.4zM21.16 129.88l-5.41 3.82.95 1.35 5.41-3.82c-.32-.44-.64-.89-.95-1.35zM150.54 40.57l5.46-3.82-1-1.35-5.41 3.82zM147.12 36l5.12-4.2-1.06-1.28-5.11 4.21zM24.58 134.47l-5.11 4.2c.34.43.69.86 1.05 1.28l5.11-4.2zM28.33 138.8l-4.79 4.56 1.13 1.2 4.8-4.56zM143.37 31.66l4.8-4.56q-.57-.62-1.14-1.2l-4.8 4.56c.39.39.77.79 1.14 1.2zM139.32 27.61l4.45-4.9-1.22-1.11-4.45 4.9zM32.38 142.84l-4.45 4.9c.4.38.81.75 1.22 1.11l4.46-4.85zM36.72 146.58l-4.09 5.21c.43.35.87.69 1.31 1L38 147.6c-.42-.33-.85-.67-1.28-1.02zM135 23.87l4.08-5.21-1.3-1-4.09 5.21zM41.31 150l-3.69 5.5 1.37.92 3.69-5.5zM130.39 20.45l3.7-5.49c-.46-.31-.91-.62-1.38-.92L129 19.53zM46.14 153.07l-3.28 5.75c.47.28 1 .56 1.43.82l3.29-5.74c-.49-.27-.96-.55-1.44-.83zM125.56 17.38l3.29-5.75-1.44-.82-3.28 5.75c.48.27.96.54 1.43.82zM120.52 14.67l2.86-6-1.49-.67-2.89 6c.53.18 1 .42 1.52.67zM51.18 155.79l-2.86 6 1.49.72 2.86-6zM115.29 12.33l2.42-6.17c-.51-.2-1-.41-1.54-.6l-2.42 6.16c.52.2 1.04.4 1.54.61zM56.41 158.13L54 164.29l1.54.61 2.46-6.17c-.57-.19-1.08-.4-1.59-.6zM109.91 10.38l2-6.33-1.58-.49-2 6.33c.53.11 1.06.32 1.58.49zM61.79 160.08l-2 6.32 1.58.49 2-6.32zM67.3 161.63l-1.49 6.45 1.61.37 1.5-6.45zM104.4 8.83l1.49-6.45c-.53-.13-1.07-.26-1.61-.37l-1.49 6.44zM72.92 162.77l-1 6.54c.55.09 1.09.18 1.64.25l1-6.54zM98.79 7.68l1-6.54-1.62-.25-1 6.54zM93.11 7l.54-6.6L92 .22l-.54 6.6zM78.59 163.5l-.54 6.59c.55.06 1.1.1 1.65.14l.54-6.6zM79.63 155.84l-4.47-12.72a57.93 57.93 0 01-9.16-2.46l-11 8.55-15-10.14 3.65-12.79a60.52 60.52 0 01-6.16-7.47l-13.78.6-6.37-16.93 10.32-8.29a59 59 0 01-.69-9v-.77L15.42 77 20 59.52l13.26-.8A59.4 59.4 0 0138.71 50l-5.22-13 13.86-11.66 11.89 7.4a58 58 0 0112.62-4.67l5-13.46 18.07.7 3.55 12.45a58.79 58.79 0 0110.81 3.5l11.85-8.1 14.34 11-4.63 13.17a59.89 59.89 0 015.15 7.21l14.52.25 5.33 17.28-11.44 8.1c.15 1.7.23 3.4.23 5.07 0 1.25 0 2.51-.12 3.76l11.72 8.6-5.63 17.19h-13.89a59 59 0 01-5.07 7.36l4.55 13.7-14.52 10.77-11.2-7.94a57.75 57.75 0 01-8.64 3.19l-4.12 13.58zm-13.74-15.9l.16.06a57.64 57.64 0 009.41 2.53h.18l4.44 12.63 17.16-.37 4.1-13.47.17-.05a58.65 58.65 0 008.87-3.28l.16-.07 11.13 7.87 13.79-10.22-4.52-13.57.11-.14a58.53 58.53 0 005.21-7.58l.09-.16h13.84l5.35-16.32-11.63-8.5v-.17c.08-1.29.13-2.6.13-3.89 0-1.71-.08-3.45-.24-5.19v-.19l.15-.1 11.21-7.94-5.06-16.41-14.41-.24-.09-.15a59.64 59.64 0 00-5.34-7.4l-.12-.14 4.6-13.08-13.62-10.46-11.77 8-.16-.07a57 57 0 00-11-3.57H98l-3.56-12.38-17.15-.66-5 13.34h-.17a57.94 57.94 0 00-12.8 4.74l-.17.08-11.75-7.3-13.15 11 5.18 12.91-.11.14a57.91 57.91 0 00-5.56 9l-.09.16-13.16.79-4.36 16.61 11.47 7.4v1.11a57.86 57.86 0 00.72 9v.18l-10.24 8.27 6 16.06 13.67-.59.1.14a58.16 58.16 0 006.36 7.7l.13.13-3.63 12.71L55 148.43zm19.93-5.6a49.1 49.1 0 1149.1-49.1 49.15 49.15 0 01-49.1 49.1zm0-97.56a48.46 48.46 0 1048.47 48.46 48.52 48.52 0 00-48.47-48.46z"/><path class="cls-3" d="M142.94 90.52l-1.11 3.4a56.61 56.61 0 00.66-8.69 57.35 57.35 0 00-.57-8l.52 1.68 10.89-7.71-4.39-14.2-13.35-.22 1.06 3.44a56.46 56.46 0 00-9.32-13.51l1.13.87 4.43-12.6-11.8-9.06-11 7.53 2.27 1.75a56.34 56.34 0 00-15.6-5.52l-3.5-12.23-14.86-.58-4.64 12.52 2.16.08A56.29 56.29 0 0057.83 36l1.08-.9-11.34-7-11.4 9.56 5 12.39 1.1-.92a56.6 56.6 0 00-7.52 11.75l-12.95.78L18 76l11.21 7.24.06-.19c0 .72-.06 1.44-.06 2.17a56.35 56.35 0 00.88 9.87L20 103.19l5.24 13.92 13.33-.58-.09-.26a56.58 56.58 0 007.67 9.35l-3.56 12.5 12.32 8.34 10.55-8.18-.74-.5a56.45 56.45 0 0012.12 3.37l4.37 12.43 14.87-.32 3.92-12.77h-1.89A56.33 56.33 0 00111 136l-.26.19 10.89 7.72 12-8.86-4.21-12.67-2.42 1.75a56.94 56.94 0 009.14-12.84l-.42 1.27h13.35l4.63-14.14zM35.17 85.23a50.68 50.68 0 1150.68 50.67 50.68 50.68 0 01-50.68-50.67z"/><path d="M155.34 67.66l.08 4.48a71.32 71.32 0 00-2.8-10.56 72.87 72.87 0 00-4-9.25l1.31 1.77 9.7-13.63-11.07-15-15.89 5.25 2.68 3.63a71 71 0 00-16.63-12.13l1.7.56V6.04L102.75.2l-9.93 13.47 3.41 1.13a70.64 70.64 0 00-20.74-.08l-9.16-13L48.5 7.19l-.31 16.73 2.59-.79a70.56 70.56 0 00-18.7 15.21l.9-1.51-16.33-3.65-9.54 16 11 12.6.89-1.51a70.51 70.51 0 00-4 17L0 83.56l1.49 18.59 16.26 3.93v-.25c.27.87.53 1.73.83 2.59a72.11 72.11 0 005.12 11.32l-8.6 13.74 12 14.31 15.54-6.2-.22-.27a70.93 70.93 0 0012.95 7.89l1 16.27 18 4.77 9.11-14-1.09-.29a70.33 70.33 0 0015.74-1l10.31 12.91 17.47-6.53-.69-16.72-2.22.83a70.17 70.17 0 0013.44-10.76l-.23.33 16.09 4.63 10.48-15.42-10.23-13.25-2.18 3.02a71.37 71.37 0 005.5-19v1.68l15.8-5.52-.36-18.64zM25.62 106a63.53 63.53 0 1180.92 39 63.52 63.52 0 01-80.92-39z" style="mix-blend-mode:screen" fill="#037371"/><path class="cls-3" d="M113.67 100.65s.52-.88 1.16-2.27a31 31 0 001.89-5.26 32.26 32.26 0 00.91-5.51c.07-.76.09-1.4.09-1.85v-.7h6v.83c0 .53 0 1.29-.11 2.19a38.19 38.19 0 01-1.1 6.55 36.67 36.67 0 01-2.24 6.25c-.76 1.65-1.37 2.69-1.37 2.69zM60.57 65.62s-.26.31-.65.88a27.63 27.63 0 00-1.58 2.43 33.11 33.11 0 00-1.85 3.64 31.66 31.66 0 00-2.35 9 33.22 33.22 0 00-.14 4.12c0 .6 0 1.15.07 1.63s.06.91.11 1.26c.09.69.14 1.09.14 1.09l-5.91.85s-.06-.47-.16-1.29c-.07-.41-.09-.92-.13-1.49S48 86.52 48 85.81a40.11 40.11 0 01.2-4.81 42.73 42.73 0 011-5.47 41.13 41.13 0 011.8-5.3 38.6 38.6 0 012.19-4.33c.72-1.22 1.38-2.2 1.87-2.87s.78-1.05.78-1.05zM55.2 93.9l.11.37c0 .22.17.55.3.93a27.66 27.66 0 001.08 2.8c.22.5.44 1 .68 1.44s.44.88.66 1.23l.49.85a2.83 2.83 0 00.19.32L53.63 105s-.09-.13-.23-.37l-.58-1c-.25-.41-.5-.92-.78-1.45s-.55-1.13-.81-1.72A33.54 33.54 0 0150 97.1c-.16-.46-.29-.84-.36-1.11l-.12-.43zM81.65 53.45l-.51.07c-.32 0-.78.13-1.34.23s-1.18.26-1.86.41-1.4.36-2.1.62A31 31 0 0072 56.31l-1.2.61c-.3.15-.46.25-.46.25L67.47 52a6.13 6.13 0 01.54-.29l1.43-.73A38.08 38.08 0 0174 49.11c.84-.3 1.7-.51 2.5-.74s1.5-.37 2.18-.49 1.2-.22 1.59-.27l.6-.08zM61.24 105.35l.42.48c.26.32.66.78 1.2 1.33a32.76 32.76 0 004.86 4.14 30.94 30.94 0 003.67 2.19 29.79 29.79 0 004.4 1.84 32 32 0 0020.38-.09 30.55 30.55 0 004.37-1.87 28.47 28.47 0 003.65-2.23A30.61 30.61 0 00109 107c1.06-1.12 1.61-1.82 1.61-1.82l4.63 3.76s-.64.83-1.9 2.17a37.7 37.7 0 01-5.73 5 37.71 37.71 0 01-9.53 4.87 38 38 0 01-12.09 2 40.14 40.14 0 01-6.22-.48 37.71 37.71 0 01-5.86-1.5 37.35 37.35 0 01-9.58-4.78 37.91 37.91 0 01-5.77-4.91c-.64-.66-1.11-1.2-1.43-1.57l-.5-.58zM117.74 85.06v-1.82a35.42 35.42 0 00-.63-4.76 32 32 0 00-17.38-22.14 34.12 34.12 0 00-4.46-1.76L94 54.21l-.47-.11L95 48.3l.54.14 1.54.43a41.39 41.39 0 015.3 2.09 38.21 38.21 0 0113.33 10.77 37.79 37.79 0 017.25 15.53 40.16 40.16 0 01.74 5.64c.06 1.38.06 2.16.06 2.16z"/><path class="cls-2" d="M62.22 72.12l-.09.13a2.48 2.48 0 00-.2.38l-.68 1.42a8.42 8.42 0 00-.44 1l-.4 1.1-.41 1.12c-.1.41-.21.83-.32 1.25l-.32 1.25c-.09.41-.13.83-.2 1.23a16.4 16.4 0 00-.27 2.2c-.07 1.3-.11 2.16-.11 2.16h-1.49s.05-.91.11-2.27a20.36 20.36 0 01.29-2.32c.07-.42.12-.86.22-1.3s.22-.88.33-1.32.23-.88.35-1.32.3-.83.45-1.23.29-.79.42-1.16.33-.69.46-1l.72-1.44a4.38 4.38 0 01.22-.41l.14-.19zM107.32 101.87s.21-.27.56-.75a19.17 19.17 0 001.34-2.06l.41-.67c.14-.24.25-.5.38-.76l.79-1.63c.24-.59.45-1.21.68-1.84a14 14 0 00.58-1.94 29.64 29.64 0 00.74-3.9c.06-.63.07-1.25.11-1.83a13.05 13.05 0 000-1.64c-.07-1-.08-1.87-.15-2.45l-.14-.93 1.44-.2s0 .35.15 1 .09 1.51.15 2.58a12.72 12.72 0 010 1.73c0 .61 0 1.26-.12 1.92a28.36 28.36 0 01-.78 4.12 15.46 15.46 0 01-.6 2c-.25.66-.48 1.32-.72 1.94l-.84 1.74c-.13.27-.25.55-.4.8l-.43.71a20.8 20.8 0 01-1.41 2.17l-.59.79zM111.89 77.85l-.08-.31a6.21 6.21 0 00-.27-.79c-.12-.33-.25-.71-.41-1.11a9.42 9.42 0 00-.5-1.26l-.63-1.22a7.64 7.64 0 00-.55-1l-.6-1 1.24-.77.63 1a9.46 9.46 0 01.58 1.11l.62 1.28a11.15 11.15 0 01.53 1.33c.16.42.3.82.43 1.17a5.76 5.76 0 01.28.83c0 .21.08.32.08.32zM89.42 112.21L91 112a6.36 6.36 0 00.75-.16l.83-.21.89-.23.45-.12.45-.16 1.75-.64c.56-.2 1-.49 1.48-.68l1-.5.28-.15.1-.06.71 1.27-.1.06a2 2 0 01-.3.16l-1.09.53c-.46.2-1 .5-1.56.71l-1.84.68-.47.17-.49.13-.93.24-.88.22a4.88 4.88 0 01-.79.17l-1.65.25zM106.77 68.11l-1.39-1.52a28.75 28.75 0 00-4.13-3.53c-.44-.34-1-.6-1.48-.93a12.86 12.86 0 00-1.64-.91l-1.79-.86-1.94-.71a28.92 28.92 0 00-8.66-1.39 27.92 27.92 0 00-8.65 1.47 26.69 26.69 0 00-6.82 3.47 23.68 23.68 0 00-2.4 1.92 18.21 18.21 0 00-1.7 1.64l-1 1.13a2.65 2.65 0 00-.35.41l-1.13-.92A3.87 3.87 0 0164 67l1.08-1.19A20.26 20.26 0 0166.91 64a26.41 26.41 0 012.52-2 28.43 28.43 0 017.19-3.66 30 30 0 019.11-1.55 30.41 30.41 0 019.13 1.47l2 .75c.65.3 1.27.61 1.88.9a14.31 14.31 0 011.73 1c.54.35 1.09.63 1.56 1a30.3 30.3 0 014.35 3.71l1.46 1.61zM58.75 85.36s0 .56.08 1.55a26.62 26.62 0 00.5 4c.22.81.42 1.7.69 2.63l.52 1.4a10.2 10.2 0 00.58 1.43 23.37 23.37 0 001.51 2.88c.3.46.56 1 .89 1.41l1 1.36a8.27 8.27 0 00.51.66l.57.62c.38.42.75.84 1.13 1.24l1.21 1.1.6.55c.21.17.43.32.64.48l1.24.93a13.27 13.27 0 001.26.8l1.2.73c.4.21.8.39 1.18.57l1.09.53c.35.16.7.27 1 .39.65.23 1.2.45 1.67.61l1.5.38-.32 1.45-1.58-.4-1.76-.66c-.34-.13-.71-.24-1.07-.41l-1.15-.55A28.52 28.52 0 0163.38 103l-1.06-1.42c-.35-.48-.62-1-.94-1.49a27.49 27.49 0 01-1.59-3 11.48 11.48 0 01-.61-1.52q-.28-.75-.54-1.47c-.29-1-.51-1.92-.74-2.77a30.39 30.39 0 01-.53-4.33c0-1-.08-1.63-.08-1.63zM74.63 125.61s.68.21 1.72.44c.52.12 1.12.27 1.78.37s1.35.26 2.06.33c1.4.2 2.82.29 3.89.35h1.77v2.3h-1.87c-1.12-.06-2.62-.16-4.1-.37-.75-.08-1.48-.23-2.17-.35s-1.33-.26-1.88-.39c-1.1-.24-1.81-.46-1.81-.46zM58.84 117.27l.37.32 1 .79c.41.34.92.7 1.47 1.08.27.2.54.4.84.59l.89.57c.59.4 1.2.75 1.78 1.08s1.13.62 1.6.86c1 .5 1.6.78 1.6.78l-1 2.09s-.69-.29-1.68-.82c-.5-.25-1.09-.55-1.69-.91s-1.26-.72-1.89-1.13l-.94-.61c-.31-.2-.6-.42-.88-.62-.58-.4-1.11-.78-1.55-1.14l-1.06-.84-.39-.33zM47.94 103.12s.07.16.21.44.34.67.59 1.14.55 1 .88 1.59.71 1.18 1.09 1.78c.77 1.19 1.62 2.34 2.28 3.16.33.43.61.77.81 1l.32.37-1.74 1.5-.34-.38c-.21-.25-.51-.61-.85-1.06a38.37 38.37 0 01-2.4-3.34c-.41-.63-.82-1.25-1.16-1.87s-.68-1.17-.93-1.68l-.62-1.2c-.15-.3-.22-.47-.22-.47zM44 85.71v1.77c0 .53.09 1.15.14 1.82s.16 1.36.25 2.07a42.23 42.23 0 001.21 5.54l-2.21.64a43.93 43.93 0 01-1.28-5.85c-.09-.74-.2-1.48-.27-2.18s-.1-1.35-.14-1.91l-.05-1.88zM47.54 68.21s-.31.64-.68 1.64c-.2.49-.43 1.07-.63 1.71s-.45 1.3-.63 2-.4 1.37-.53 2-.3 1.25-.38 1.78-.17 1-.23 1.26a4.09 4.09 0 00-.07.48l-2.28-.33a3.52 3.52 0 01.08-.51c.06-.32.14-.78.24-1.33s.24-1.2.4-1.88.35-1.41.56-2.13.44-1.43.66-2.09.46-1.28.67-1.8c.4-1.06.72-1.73.72-1.73zM58.11 53.81l-.37.33c-.23.2-.54.51-.93.88l-.62.59-.66.7-.71.74-.7.8c-.23.27-.46.53-.68.8l-.64.81c-.2.27-.41.52-.59.76s-.34.48-.5.7c-.63.86-1 1.47-1 1.47l-1.92-1.26s.38-.64 1.05-1.55l.53-.73c.19-.26.4-.53.62-.8s.44-.56.67-.85.48-.57.72-.85l.73-.85c.24-.28.51-.53.75-.78l.7-.73.65-.63c.41-.39.74-.71 1-.93l.39-.34zM73.7 45.11s-.17 0-.46.14-.72.24-1.22.41-1.08.39-1.7.64-1.27.52-1.92.82-1.28.61-1.87.91-1.13.61-1.59.88-.85.48-1.11.65l-.41.27-1.24-1.95.44-.27c.27-.19.68-.41 1.16-.7s1.06-.61 1.68-.92 1.29-.67 2-1 1.36-.63 2-.87 1.26-.51 1.8-.68l1.29-.43.45-.11zM91.51 43.7l-.51-.06c-.31 0-.75-.11-1.28-.14l-1.81-.14h-4.17L82 43.5c-.53 0-1 .11-1.28.14l-.48.06-.31-2.28.51-.06c.33 0 .79-.12 1.35-.15l1.91-.15 2.2-.05 2.2.05 1.91.15c.56 0 1 .11 1.35.15l.51.06zM108.28 49.83l-.41-.27c-.25-.17-.64-.38-1.1-.65s-1-.59-1.6-.88-1.22-.63-1.87-.91-1.29-.59-1.92-.82-1.19-.48-1.69-.64l-1.22-.41c-.3-.1-.47-.14-.47-.14l.66-2.21.5.15 1.28.44c.54.16 1.15.41 1.8.67s1.34.55 2 .87 1.35.64 2 1 1.19.65 1.68.92.89.51 1.17.7.43.27.43.27zM121 62.39s-.37-.61-1-1.47c-.15-.22-.32-.45-.5-.7l-.59-.76-.63-.8c-.22-.28-.46-.54-.69-.81l-.7-.8-.7-.74-.66-.7-.63-.59c-.38-.37-.7-.68-.93-.88l-.37-.33 1.53-1.72.38.34c.25.22.58.55 1 .93l.65.63.7.73c.25.25.49.52.75.78s.48.57.73.85.49.56.73.85l.67.85.62.8.52.73c.67.91 1.06 1.55 1.06 1.55zM127.32 79.08s0-.17-.08-.48-.13-.74-.22-1.26-.24-1.13-.39-1.78-.33-1.33-.53-2-.41-1.35-.63-2-.43-1.21-.63-1.71c-.37-1-.68-1.63-.68-1.63l2.1-.94s.33.67.72 1.73c.21.52.46 1.13.67 1.8s.47 1.37.66 2.09.42 1.44.56 2.13.32 1.32.41 1.88.17 1 .23 1.33a3.52 3.52 0 01.08.51zM126.1 96.91a41.35 41.35 0 001.22-5.54c.08-.71.19-1.41.25-2.07s.1-1.29.13-1.82v-1.77h2.31s0 .75-.06 1.88c0 .56-.09 1.21-.14 1.91s-.18 1.44-.27 2.18a43.93 43.93 0 01-1.28 5.85zM117.58 112.6l.32-.37c.21-.23.48-.57.81-1 .67-.83 1.51-2 2.28-3.17.38-.6.77-1.19 1.09-1.78s.65-1.11.89-1.59l.58-1.14a4.09 4.09 0 00.21-.44l2.08 1s-.07.17-.22.47l-.62 1.2c-.24.51-.58 1.07-.93 1.68s-.75 1.24-1.15 1.88a39.58 39.58 0 01-2.41 3.33c-.34.45-.63.81-.85 1.06s-.34.39-.34.39zM103.3 123.33s.66-.27 1.6-.77c.47-.24 1-.52 1.6-.86s1.19-.68 1.78-1.08l.9-.57c.29-.19.56-.39.84-.59.54-.38 1-.74 1.46-1.08l1-.79.37-.32 1.49 1.76-.39.33-1.07.84c-.44.36-1 .74-1.54 1.14-.29.2-.58.42-.89.62l-.94.61c-.62.41-1.28.78-1.89 1.13s-1.18.66-1.68.91c-1 .53-1.69.82-1.69.82zM85.85 127.14h1.78c1.06-.06 2.48-.15 3.88-.35.71-.07 1.41-.22 2.06-.33s1.26-.25 1.78-.37c1-.23 1.72-.44 1.72-.44l.62 2.22s-.72.22-1.82.46c-.55.13-1.18.28-1.88.39s-1.42.27-2.17.35c-1.48.21-3 .31-4.1.37h-1.87z"/><path d="M76.82 66.5a7 7 0 11-7-7 7 7 0 017 7z" fill="#68edec" opacity=".4"/></g></g></g></svg>