<svg xmlns="http://www.w3.org/2000/svg" viewBox="0 0 53.69 53.72"><defs><style>.cls-2{mix-blend-mode:screen}.cls-3{fill:#fff}</style></defs><g style="isolation:isolate"><g id="图层_2" data-name="图层 2"><g id="Elements"><g class="cls-2"><path class="cls-3" d="M49.73 23.26A22.94 22.94 0 0036 5.6l1.58-3.68a27 27 0 0116.11 20.74z"/></g><g class="cls-2"><path class="cls-3" d="M34.1 4.87c-.47-.16-1-.29-1.43-.42s-1-.22-1.45-.32L32 .2a29.299 29.299 0 013.37.86z"/></g><g class="cls-2"><path class="cls-3" d="M51.31 38.49l-3.6-1.74a20.61 20.61 0 001-2.34A21.1 21.1 0 0049.4 32l3.89.91a25.79 25.79 0 01-.83 2.85 28.54 28.54 0 01-1.15 2.73z"/></g><g class="cls-2"><path class="cls-3" d="M15.9 6.6L14 3.1A26.85 26.85 0 0123.29 0l.55 4a23.25 23.25 0 00-7.94 2.6z"/></g><g class="cls-2"><path class="cls-3" d="M6.57 16.18L3 14.34a23.448 23.448 0 011.63-2.74L8 13.84c-.25.37-.5.76-.73 1.15s-.49.78-.7 1.19z"/></g><g class="cls-2"><path class="cls-3" d="M10 47.69A27 27 0 01.89 19.87l3.87 1A23.13 23.13 0 004 26.74a22.9 22.9 0 008.49 17.85z"/></g><g class="cls-2"><path class="cls-3" d="M25.79 53.72a27.48 27.48 0 01-6.23-1 26.85 26.85 0 01-5.83-2.44l2-3.49a22.54 22.54 0 005 2.08 22.83 22.83 0 005.31.87z"/></g><g class="cls-2"><path class="cls-3" d="M27 52.25A25.52 25.52 0 011.56 28.48a25.49 25.49 0 0142.2-20.95A25.31 25.31 0 0152.44 25a25.49 25.49 0 01-23.7 27.17c-.6.06-1.19.08-1.74.08zm.08-50q-.86 0-1.71.06a24.5 24.5 0 00-14.47 42.9 24.5 24.5 0 0040.54-20.13A24.51 24.51 0 0027 2.24z"/></g></g></g></g></svg>