<svg xmlns="http://www.w3.org/2000/svg" xmlns:xlink="http://www.w3.org/1999/xlink" viewBox="0 0 192.44 205.39"><defs><linearGradient id="藉琨靾眄_沭噤桢眚_37" x1="107.52" y1="159.13" x2="107.52" y2="57.14" gradientUnits="userSpaceOnUse"><stop offset="0" stop-color="#6eb9dd"/><stop offset=".57" stop-color="#9cd2e9"/><stop offset="1" stop-color="#bae2f1"/></linearGradient><linearGradient id="藉琨靾眄_沭噤桢眚_37-2" x1="107.5" y1="159.13" x2="107.5" y2="57.14" xlink:href="#藉琨靾眄_沭噤桢眚_37"/><linearGradient id="藉琨靾眄_沭噤桢眚_37-3" x1="77.17" y1="159.13" x2="77.17" y2="57.14" xlink:href="#藉琨靾眄_沭噤桢眚_37"/><linearGradient id="藉琨靾眄_沭噤桢眚_37-4" x1="137.2" y1="159.13" x2="137.2" y2="57.14" xlink:href="#藉琨靾眄_沭噤桢眚_37"/><style>.cls-3{fill:#addff2}.cls-7{fill:#54808a}.cls-8{fill:#7a9fa6}.cls-9{fill:#37626f}.cls-10{fill:#a3bec3}.cls-11{fill:#2b4b54}</style></defs><g style="isolation:isolate"><g id="图层_2" data-name="图层 2"><g style="mix-blend-mode:screen" id="图层_1-2" data-name="图层 1"><path class="cls-3" d="M160.47 69.41l-26.01-26h-27.21V29.43h.27v13.7h27.06l.04.04 26.04 26.05-.19.19z"/><path d="M107.18 192.44A85.25 85.25 0 0146.9 46.9a85.26 85.26 0 01120.57 120.57 84.74 84.74 0 01-60.29 24.97zm0-169.13a83.88 83.88 0 1083.88 83.87 84 84 0 00-83.88-83.87z" fill="#82cbea"/><path d="M105.58 184.82c-1.08 0-2.18-.07-3.25-.14v-.27c1.08.07 2.17.11 3.24.13zm3.25 0v-.28c1.08 0 2.17-.06 3.24-.13v.27c-1.07.07-2.16.11-3.24.14zm-9.74-.4c-1.07-.11-2.16-.25-3.23-.4v-.27c1.06.15 2.15.29 3.22.4zm16.23 0v-.27c1.07-.11 2.15-.25 3.21-.4v.27c-1.05.14-2.14.28-3.21.39zm-22.66-.93c-1.06-.2-2.13-.43-3.19-.67l.07-.27c1 .25 2.11.47 3.17.67zm29.09 0v-.27c1-.2 2.12-.43 3.17-.67l.06.26c-1.1.19-2.17.45-3.23.66zM86.32 182c-1-.28-2.08-.6-3.11-.93l.08-.26c1 .33 2.07.64 3.11.93zm41.76 0l-.08-.26c1-.29 2.09-.6 3.11-.94l.08.26c-1.02.32-2.07.63-3.11.94zm-48-2c-1-.38-2-.78-3-1.2l.11-.25c1 .41 2 .82 3 1.19zm54.13 0l-.09-.25c1-.38 2-.78 3-1.19l.1.25c-.94.39-1.95.79-2.96 1.19zm-60.14-2.5c-1-.46-2-.95-2.91-1.45l.12-.24c1 .5 1.94 1 2.91 1.45zm66.12 0l-.12-.25c1-.46 1.94-.94 2.9-1.44l.12.24c-.9.46-1.88.95-2.85 1.41zm-71.88-3c-.94-.54-1.88-1.11-2.79-1.69l.15-.22c.91.57 1.84 1.14 2.77 1.68zm77.62 0l-.13-.24c.93-.54 1.86-1.1 2.76-1.68l.15.23c-.86.53-1.79 1.1-2.71 1.64zm5.48-3.49l-.15-.22c.88-.61 1.76-1.25 2.62-1.91l.16.22c-.81.61-1.69 1.25-2.58 1.9zm-88.6 0c-.88-.61-1.77-1.26-2.63-1.91l.17-.22c.85.65 1.74 1.3 2.62 1.91zm93.83-4.01l-.18-.21c.83-.68 1.66-1.4 2.45-2.11l.19.2c-.8.75-1.63 1.46-2.46 2.12zm-99 0c-.83-.69-1.66-1.41-2.46-2.13l.18-.2c.8.72 1.63 1.43 2.46 2.12zm103.79-4.35l-.19-.19c.77-.75 1.53-1.53 2.26-2.32l.2.19c-.7.82-1.46 1.6-2.23 2.35zm-108.62 0c-.77-.75-1.54-1.53-2.27-2.32l.19-.19c.74.79 1.5 1.57 2.27 2.32zM165.92 158l-.21-.18c.71-.82 1.41-1.66 2.07-2.5l.22.17c-.67.8-1.37 1.64-2.08 2.51zM48.4 158c-.71-.82-1.4-1.66-2.07-2.5l.21-.17c.67.84 1.36 1.68 2.07 2.49zm121.6-5.15l-.22-.16c.63-.87 1.25-1.76 1.85-2.66l.23.15c-.63.9-1.26 1.82-1.86 2.67zm-125.61 0c-.64-.87-1.26-1.77-1.86-2.67l.23-.15c.59.9 1.22 1.79 1.85 2.66zm-3.6-5.41c-.56-.92-1.11-1.86-1.63-2.8l.24-.14c.52.94 1.06 1.89 1.62 2.8zm132.81 0l-.23-.14c.56-.93 1.11-1.87 1.63-2.81l.24.13c-.56.94-1.1 1.89-1.67 2.82zm-135.98-5.68c-.48-1-.94-1.95-1.38-2.93l.25-.11c.43 1 .9 2 1.38 2.92zm139.1 0l-.25-.12c.48-1 .95-2 1.39-2.93l.25.11c-.44.95-.91 1.95-1.39 2.91zM35 135.84c-.4-1-.78-2-1.14-3.05l.26-.09c.35 1 .73 2 1.13 3zm144.39-.05l-.25-.11c.39-1 .78-2 1.13-3l.26.09c-.38.98-.76 2.01-1.16 3.02zM32.84 129.7c-.32-1-.61-2.08-.88-3.13l.26-.07c.27 1 .57 2.09.88 3.12zm148.67-.07l-.26-.08c.31-1 .61-2.08.87-3.12l.27.07c-.27 1.04-.56 2.1-.88 3.13zm-150.29-6.22c-.23-1.06-.43-2.13-.61-3.2h.27c.18 1.06.38 2.13.6 3.18zM30.14 117a69.69 69.69 0 01-.34-3.24h.27c.09 1.07.2 2.16.34 3.22zm-.55-6.48c0-1.08-.07-2.17-.07-3.25h.27c0 1.07 0 2.16.07 3.24zm.27-6.49h-.27c0-1.08.11-2.17.19-3.25h.27c-.05 1.08-.15 2.22-.19 3.22zm.53-6.46h-.27c.13-1.07.29-2.16.46-3.22l.27.05c-.17 1.03-.33 2.1-.46 3.17zm1.06-6.39l-.26-.05c.22-1.06.47-2.13.73-3.17l.27.07c-.27 1.04-.52 2.1-.74 3.15zm1.6-6.28l-.26-.07c.31-1 .65-2.08 1-3.11l.25.09c-.34 1.02-.68 2.06-.99 3.09zm2.13-6.13l-.25-.1c.4-1 .82-2 1.26-3l.25.11c-.44.98-.86 1.99-1.26 2.99zm2.64-5.93l-.24-.12c.48-1 1-1.94 1.51-2.89l.23.13c-.51.94-1.02 1.91-1.5 2.88zM41 67.15l-.29-.15c.56-.92 1.15-1.85 1.75-2.75l.23.15c-.6.91-1.18 1.83-1.69 2.75zm3.59-5.4l-.22-.16c.63-.87 1.29-1.74 2-2.59l.22.17c-.76.83-1.42 1.71-2.05 2.58zm4-5.08l-.2-.18c.7-.81 1.43-1.63 2.17-2.41l.2.18c-.76.79-1.49 1.6-2.2 2.41zM53 52l-.19-.2c.77-.75 1.56-1.5 2.36-2.23l.19.21c-.8.67-1.6 1.41-2.36 2.22zm4.81-4.34l-.18-.21c.83-.69 1.69-1.37 2.55-2l.16.21c-.85.59-1.71 1.26-2.53 1.95zM63 43.69l-.16-.23c.88-.61 1.79-1.22 2.7-1.8l.15.23c-.95.58-1.85 1.18-2.69 1.8zm5.45-3.48l-.17-.21c.93-.54 1.89-1.06 2.84-1.56l.13.24c-.95.46-1.91.99-2.84 1.53zm5.73-3L74 37c1-.46 2-.91 3-1.33l.11.25c-1.01.38-2 .82-2.97 1.28zm6-2.51l-.18-.27c1-.37 2-.73 3.07-1.07l.08.26c-1.02.38-2.05.69-3.06 1.07zm6.16-2l-.07-.26c1-.29 2.1-.56 3.15-.81l.06.26c-1.14.23-2.19.5-3.23.79zm6.31-1.48v-.27c1-.2 2.13-.38 3.2-.54v.27c-1.16.13-2.24.32-3.29.52zm6.4-.95V30c1.07-.11 2.16-.2 3.24-.27V30c-1.17.05-2.29.14-3.29.25z" fill="#6e9eb2"/><path d="M64.18 205.39A107.34 107.34 0 0139.1 190l7-8.54a95.55 95.55 0 0022.49 13.83zm-29.54-19.3a107.67 107.67 0 01-18.73-22.7l9.4-5.8A96.37 96.37 0 0042.13 178zM13 158.29a106.47 106.47 0 01-10.41-27.56l10.79-2.42A95.47 95.47 0 0022.66 153zM1.46 124.93a108.46 108.46 0 01-.83-29.41l11 1.19a96.11 96.11 0 00-.57 10.47 97.28 97.28 0 001.32 15.93zm10.87-33.47L1.42 89.67a107.11 107.11 0 018.75-28.13l10 4.72a95.8 95.8 0 00-7.84 25.2zm10.24-29.94l-9.73-5.25a107.79 107.79 0 0117.42-23.73l7.94 7.7a96.38 96.38 0 00-15.63 21.28zM42 36.54l-7.5-8.12A107.17 107.17 0 0158.64 11.6l5 9.85A96.24 96.24 0 0042 36.54zm113.1-12.71a95.87 95.87 0 00-24.47-9.9l2.68-10.72a106.26 106.26 0 0127.3 11zm-86.67-4.65L64 9.07A106.11 106.11 0 0192.3 1l1.52 11a95.36 95.36 0 00-25.39 7.18zm57-6.39a97 97 0 00-18.28-1.74c-2.69 0-5.41.12-8.09.34l-.92-11c3-.24 6-.37 9-.37a108.32 108.32 0 0120.37 1.93z" fill="#6cb0bf"/><path class="cls-7" d="M107.18 177.44a70.47 70.47 0 01-16.34-1.91l2.5-10.46a59.4 59.4 0 0013.84 1.63c1.84 0 3.69-.09 5.5-.26l1 10.71c-2.15.19-4.33.29-6.5.29z"/><path class="cls-8" d="M116.53 176.83l-1.43-10.66a58.71 58.71 0 0018.53-5.68l4.8 9.61a69.36 69.36 0 01-21.9 6.73z"/><path class="cls-7" d="M88.05 174.8a69.55 69.55 0 01-20.71-9.8l6.12-8.83A59.16 59.16 0 0091 164.46z"/><path class="cls-8" d="M141 168.77l-5.19-9.41a59.6 59.6 0 0015.22-12l7.94 7.24A69.89 69.89 0 01141 168.77z"/><path class="cls-9" d="M65 163.33a69.86 69.86 0 01-15.78-16.59l8.89-6a59.29 59.29 0 0013.37 14.05z"/><path class="cls-10" d="M160.83 152.43l-8.23-6.92a58.79 58.79 0 009.88-16.68l10 3.89a69.7 69.7 0 01-11.65 19.71z"/><path class="cls-9" d="M47.66 144.34a69.87 69.87 0 01-8.74-21.18l10.48-2.41a59 59 0 007.39 17.91z"/><path class="cls-10" d="M173.49 130l-10.17-3.47a59.25 59.25 0 003.15-19.13v-.13h10.75v.15a70 70 0 01-3.73 22.58z"/><path class="cls-11" d="M38.34 120.34a70.94 70.94 0 01-.49-22.88L48.49 99a60.86 60.86 0 00-.59 8.44 59 59 0 001 11z"/><path d="M166.41 104.84a58.74 58.74 0 00-4-19l10-3.91a69.55 69.55 0 014.7 22.42z" fill="#d0dee0"/><path class="cls-11" d="M48.88 96.57l-10.57-1.95a69.72 69.72 0 017.81-21.54l9.37 5.28a58.74 58.74 0 00-6.61 18.21z"/><path d="M161.51 83.63a59.33 59.33 0 00-10.58-16.24l7.93-7.25a70 70 0 0112.5 19.18z" fill="#fff"/><path d="M56.73 76.26l-9.14-5.66a70.29 70.29 0 0115.06-17.25l6.83 8.3a59.53 59.53 0 00-12.75 14.61z" fill="#1e343a"/><path d="M138.65 73.33a46.63 46.63 0 00-62.34-.54l-3.66-4.14a52.18 52.18 0 0169.73.6z" fill="url(#藉琨靾眄_沭噤桢眚_37)"/><path d="M140.51 74.05a2.77 2.77 0 01-1.86-.72 46.63 46.63 0 00-62.34-.54 2.76 2.76 0 01-3.66-4.14 52.18 52.18 0 0169.73.6 2.76 2.76 0 01-1.87 4.8z" fill="url(#藉琨靾眄_沭噤桢眚_37-2)"/><path d="M96.56 158.78a2.32 2.32 0 01-.59-.07 52.19 52.19 0 01-41-50.95 51.75 51.75 0 014.4-21 2.76 2.76 0 015.1 2.24 46.28 46.28 0 00-3.93 18.77 46.89 46.89 0 0036.61 45.55 2.77 2.77 0 01-.59 5.47z" fill="url(#藉琨靾眄_沭噤桢眚_37-3)"/><path d="M117.8 158.78a2.77 2.77 0 01-.58-5.47 46.88 46.88 0 0036.6-45.55 46.29 46.29 0 00-3.61-18 2.77 2.77 0 015.1-2.14 52.19 52.19 0 01-36.91 71.12 2.46 2.46 0 01-.6.04z" fill="url(#藉琨靾眄_沭噤桢眚_37-4)"/><path class="cls-3" d="M124.16 31.22a3.36 3.36 0 11-2.73-3.89 3.37 3.37 0 012.73 3.89zM149 41.59a3.36 3.36 0 11-1.19-4.59 3.35 3.35 0 011.19 4.59z"/><circle class="cls-3" cx="107.39" cy="29.43" r="3.36"/><path class="cls-3" d="M137.05 35.32a3.36 3.36 0 11-2-4.31 3.36 3.36 0 012 4.31zM159.76 49.85a3.36 3.36 0 11-.41-4.73 3.35 3.35 0 01.41 4.73zM168.88 59.84a3.36 3.36 0 11.42-4.73 3.35 3.35 0 01-.42 4.73zM176.13 71.27a3.36 3.36 0 111.23-4.59 3.36 3.36 0 01-1.23 4.59zM181.29 83.78a3.36 3.36 0 112-4.31 3.35 3.35 0 01-2 4.31zM184.19 97a3.36 3.36 0 112.72-3.9 3.36 3.36 0 01-2.72 3.9zM184.75 110.52a3.36 3.36 0 113.36-3.36 3.37 3.37 0 01-3.36 3.36zM183 123.93a3.36 3.36 0 113.89-2.73 3.36 3.36 0 01-3.89 2.73z"/></g></g></g></svg>