<svg xmlns="http://www.w3.org/2000/svg" viewBox="0 0 473.3 412.12"><defs><style>.cls-2{fill:#5fffe8}</style></defs><g id="图层_2" data-name="图层 2"><g opacity=".8" id="央铋_1" data-name="央铋 1"><path class="cls-2" transform="rotate(-1.79 227.64 80.71)" d="M226.9 75.83h1.91v9.91h-1.91z"/><path class="cls-2" d="M218.62 86.74l-1.9.26-1.34-9.81 1.88-.27 1.36 9.82z"/><path class="cls-2" transform="rotate(-13.72 206.366 84.276)" d="M205.36 79.31h1.91v9.91h-1.91z"/><path class="cls-2" d="M198.52 92l-1.8.65-3.36-9.32 1.8-.66 3.36 9.33zM189 96.18l-1.72.84-4.32-8.93 1.72-.83 4.32 8.92z"/><path class="cls-2" transform="rotate(-31.87 176.542 97.622)" d="M175.58 92.67h1.91v9.91h-1.91z"/><path class="cls-2" transform="rotate(-37.86 167.732 104.077)" d="M166.76 99.11h1.91v9.91h-1.91z"/><path class="cls-2" d="M163.74 114.31l-1.38 1.32-6.86-7.14 1.37-1.33 6.87 7.15zM156.74 122.01l-1.23 1.45-7.58-6.38 1.23-1.47 7.58 6.4zM150.57 130.38l-1.07 1.58-8.2-5.56 1.07-1.58 8.2 5.56zM145.33 139.36l-.91 1.69-8.73-4.68.89-1.69 8.75 4.68zM141.04 148.85l-.73 1.76-9.17-3.73.72-1.78 9.18 3.75zM137.77 158.72l-.53 1.83-9.52-2.75.53-1.84 9.52 2.76zM135.55 168.88l-.33 1.88-9.76-1.75.33-1.88 9.76 1.75z"/><path class="cls-2" transform="rotate(-85.85 129.382 179.81)" d="M128.44 174.85h1.91v9.91h-1.91z"/><path class="cls-2" d="M134.35 189.62l.06 1.91-9.91.32-.06-1.91 9.91-.32z"/><path class="cls-2" transform="rotate(-7.75 130.648 201.655)" d="M125.64 200.63h9.91v1.91h-9.91z"/><path class="cls-2" transform="rotate(-13.8 132.869 212.236)" d="M127.94 211.31h9.91v1.91h-9.91z"/><path class="cls-2" d="M140.64 220.07l.64 1.79-9.32 3.37-.65-1.79 9.33-3.37z"/><path class="cls-2" transform="rotate(-25.87 140.762 232.613)" d="M135.81 231.66h9.92v1.91h-9.92z"/><path class="cls-2" d="M149.97 238.63l1 1.62-8.42 5.23-1.01-1.62 8.43-5.23zM156.03 247.08l1.17 1.51-7.82 6.08-1.18-1.51 7.83-6.08zM162.95 254.85l1.32 1.38-7.15 6.87-1.32-1.39 7.15-6.86z"/><path class="cls-2" transform="rotate(-49.77 168.144 266.245)" d="M163.22 265.3h9.91v1.91h-9.91z"/><path class="cls-2" transform="rotate(-55.86 177.022 272.65)" d="M172.07 271.7h9.91v1.91h-9.91z"/><path class="cls-2" d="M188 273.27l1.68.9-4.67 8.74-1.69-.91 4.68-8.73z"/><path class="cls-2" transform="rotate(-67.86 196.486 282.496)" d="M191.54 281.54h9.91v1.91h-9.91z"/><path class="cls-2" d="M207.35 280.82l1.83.53-2.75 9.52-1.84-.53 2.76-9.52z"/><path class="cls-2" transform="rotate(-79.81 217.59 288.09)" d="M212.62 287.13h9.91v1.91h-9.91z"/><path class="cls-2" transform="rotate(-85.84 228.45 289.2)" d="M223.49 288.24h9.91v1.91h-9.91z"/><path class="cls-2" d="M238.25 284.24l1.91-.06.32 9.91-1.91.07-.32-9.92zM248.6 283.22l1.9-.27 1.35 9.82-1.9.26-1.35-9.81z"/><path class="cls-2" transform="rotate(-13.8 260.903 285.667)" d="M259.95 280.74h1.91v9.91h-1.91z"/><path class="cls-2" d="M268.7 277.95l1.79-.65 3.37 9.32-1.8.66-3.36-9.33z"/><path class="cls-2" transform="rotate(-25.83 281.231 277.822)" d="M280.29 272.86h1.91v9.91h-1.91z"/><path class="cls-2" d="M287.26 268.63l1.62-1.01 5.24 8.41-1.63 1.02-5.23-8.42zM295.71 262.56l1.51-1.17 6.08 7.82-1.5 1.18-6.09-7.83zM303.48 255.64l1.38-1.32 6.87 7.15-1.38 1.33-6.87-7.16zM310.49 247.95l1.23-1.46 7.57 6.39-1.23 1.46-7.57-6.39z"/><path class="cls-2" transform="rotate(-55.87 321.252 241.561)" d="M320.33 236.6h1.91v9.92h-1.91z"/><path class="cls-2" d="M321.9 230.59l.9-1.68 8.74 4.68-.9 1.69-8.74-4.69zM326.19 221.11l.71-1.77 9.18 3.74-.71 1.78-9.18-3.75zM329.45 211.24l.53-1.83 9.53 2.75-.54 1.84-9.52-2.76z"/><path class="cls-2" transform="rotate(-79.83 336.714 201.009)" d="M335.76 196.06h1.91v9.91h-1.91z"/><path class="cls-2" d="M332.81 190.74l.15-1.9 9.88.71-.13 1.91-9.9-.72zM332.88 180.34l-.06-1.91 9.9-.32.07 1.91-9.91.32zM331.85 169.99l-.26-1.89 9.81-1.36.27 1.9-9.82 1.35zM329.74 159.81l-.45-1.86 9.62-2.38.46 1.86-9.63 2.38zM326.58 149.89l-.64-1.79 9.32-3.37.66 1.8-9.34 3.36z"/><path class="cls-2" transform="rotate(-25.85 326.47 137.35)" d="M321.5 136.39h9.92v1.91h-9.92z"/><path class="cls-2" d="M317.26 131.33l-1.01-1.62 8.42-5.24 1.01 1.63-8.42 5.23z"/><path class="cls-2" transform="rotate(-37.81 314.495 119.076)" d="M309.56 118.13h9.91v1.91h-9.91z"/><path class="cls-2" transform="rotate(-43.87 307.168 110.987)" d="M302.24 110.03h9.91v1.91h-9.91z"/><path class="cls-2" transform="rotate(-49.83 299.072 103.704)" d="M294.1 102.75h9.91v1.91h-9.91z"/><path class="cls-2" transform="rotate(-55.81 290.208 97.305)" d="M285.24 96.35h9.91v1.92h-9.91z"/><path class="cls-2" d="M279.22 96.69l-1.67-.9 4.67-8.74 1.69.9-4.69 8.74zM269.75 92.41l-1.76-.72 3.73-9.18 1.77.71-3.74 9.19zM259.88 89.14l-1.84-.54 2.75-9.51 1.85.52-2.76 9.53zM249.71 86.92l-1.88-.34 1.75-9.75 1.89.33-1.76 9.76z"/><path class="cls-2" transform="rotate(-85.93 238.784 80.76)" d="M233.83 79.81h9.91v1.91h-9.91z"/><path class="cls-2" d="M230.3 65.85h1.9v19.69h-1.9z"/><path class="cls-2" transform="rotate(-5.98 219.756 76.365)" d="M218.91 66.55h1.9v19.69h-1.9z"/><path class="cls-2" d="M211.58 87.72l-1.86.39-4.09-19.27 1.86-.39 4.09 19.27z"/><path class="cls-2" transform="rotate(-18.07 197.56 81.321)" d="M196.66 71.48h1.9v19.69h-1.9z"/><path class="cls-2" transform="rotate(-23.96 187.027 85.512)" d="M186.04 75.66h1.9v19.69h-1.9z"/><path class="cls-2" transform="rotate(-29.87 176.88 90.771)" d="M175.92 80.93h1.89v19.69h-1.89z"/><path class="cls-2" transform="rotate(-35.91 167.375 97.085)" d="M166.41 87.23h1.89v19.69h-1.89z"/><path class="cls-2" transform="rotate(-42.04 158.562 104.34)" d="M157.6 94.49h1.89v19.69h-1.89z"/><path class="cls-2" d="M158.5 118.36l-1.27 1.41-14.63-13.18 1.27-1.41 14.63 13.18zM151.97 126.42l-1.11 1.53-15.93-11.57 1.11-1.53 15.93 11.57z"/><path class="cls-2" transform="matrix(.5 -.87 .87 .5 -44.85 184.31)" d="M136.36 121.18h1.9v19.69h-1.9z"/><path class="cls-2" d="M141.6 144.37l-.77 1.73-17.99-8 .78-1.73 17.98 8z"/><path class="cls-2" transform="rotate(-72.01 128.235 151.927)" d="M127.28 142.08h1.9v19.69h-1.9z"/><path class="cls-2" transform="rotate(-77.95 125.374 162.971)" d="M124.42 153.12h1.9v19.69h-1.9z"/><path class="cls-2" d="M133.57 174.34l-.19 1.88-19.59-2.06.2-1.87 19.58 2.05z"/><path class="cls-2" transform="rotate(-89.81 123.172 185.654)" d="M122.23 175.81h1.9v19.69h-1.9z"/><path class="cls-2" transform="rotate(-5.98 123.899 197.005)" d="M114.04 196.1h19.69v1.9h-19.69z"/><path class="cls-2" d="M135.2 205.32l.39 1.86-19.26 4.09-.4-1.85 19.27-4.1z"/><path class="cls-2" transform="rotate(-18.06 128.819 219.303)" d="M118.96 218.35h19.69v1.9h-19.69z"/><path class="cls-2" d="M141.6 225.04l.77 1.73-17.99 8.01-.77-1.73 17.99-8.01z"/><path class="cls-2" transform="rotate(-29.87 138.255 240.016)" d="M128.41 239.09h19.69v1.89h-19.69z"/><path class="cls-2" d="M151.97 243l1.11 1.53-15.93 11.57-1.11-1.53L151.97 243z"/><path class="cls-2" transform="rotate(-41.91 151.798 258.339)" d="M141.97 257.41h19.69v1.9h-19.69z"/><path class="cls-2" transform="rotate(-47.82 159.936 266.335)" d="M150.11 265.4h19.69v1.9h-19.69z"/><path class="cls-2" d="M173.9 264.94l1.53 1.11-11.56 15.93-1.54-1.11 11.57-15.93z"/><path class="cls-2" transform="rotate(-59.94 178.483 279.572)" d="M168.66 278.64h19.69v1.9h-19.69z"/><path class="cls-2" transform="rotate(-65.97 188.697 284.668)" d="M178.87 283.73h19.69v1.9h-19.69z"/><path class="cls-2" d="M201.54 279.02l1.81.59-6.08 18.73-1.81-.59 6.08-18.73zM211.57 281.7l1.85.41-4.08 19.26-1.86-.4 4.09-19.27zM221.83 283.33l1.88.2-2.05 19.59-1.89-.21 2.06-19.58z"/><path class="cls-2" transform="rotate(-89.81 233.118 293.717)" d="M223.29 292.77h19.69v1.9h-19.69z"/><path class="cls-2" d="M242.55 283.33l1.89-.19 2.06 19.58-1.89.19-2.06-19.58zM252.81 281.7l1.85-.38 4.1 19.26-1.86.39-4.09-19.27zM262.83 279.02l1.81-.58 6.09 18.73-1.81.58-6.09-18.73zM272.52 275.3l1.74-.76 8.01 17.98-1.74.77-8.01-17.99zM281.77 270.59l1.65-.94 9.85 17.05-1.65.94-9.85-17.05zM290.47 264.94l1.54-1.11 11.58 15.93-1.54 1.11-11.58-15.93zM298.54 258.4l1.41-1.26 13.18 14.63-1.41 1.27-13.18-14.64zM305.88 251.06l1.28-1.4 14.63 13.17-1.28 1.41-14.63-13.18zM312.41 243l1.12-1.53 15.94 11.57-1.13 1.53L312.41 243zM318.07 234.29l.95-1.63 17.06 9.84-.96 1.64-17.05-9.85zM322.78 225.05l.78-1.73 17.98 8-.77 1.74-17.99-8.01zM326.5 215.36l.59-1.8 18.73 6.07-.59 1.81-18.73-6.08zM329.19 205.33l.39-1.85 19.27 4.09-.4 1.86-19.26-4.1zM330.81 195.08l.21-1.88 19.58 2.05-.2 1.88-19.59-2.05zM331.36 184.72v-1.9h19.69l-.01 1.9h-19.68z"/><path class="cls-2" transform="rotate(-5.82 340.729 172.443)" d="M330.66 171.43h19.69v1.89h-19.69z"/><path class="cls-2" d="M329.19 164.1l-.39-1.85 19.26-4.11.39 1.87-19.26 4.09zM326.51 154.08l-.59-1.81 18.72-6.09.59 1.81-18.72 6.09zM322.79 144.38l-.77-1.72 17.98-8.02.77 1.73-17.98 8.01zM318.07 135.13l-.94-1.64 17.05-9.85.95 1.65-17.06 9.84z"/><path class="cls-2" transform="rotate(-35.86 319.777 119.875)" d="M309.98 118.92h19.69v1.89h-19.69z"/><path class="cls-2" d="M305.89 118.36l-1.26-1.41 14.62-13.18 1.27 1.42-14.63 13.17z"/><path class="cls-2" transform="rotate(-47.97 304.43 103.067)" d="M294.59 102.12h19.68v1.9h-19.68z"/><path class="cls-2" transform="rotate(-54 295.506 95.97)" d="M285.66 95.02h19.69v1.89h-19.69z"/><path class="cls-2" d="M281.78 98.83l-1.64-.94 9.84-17.06 1.64.95-9.84 17.05zM272.53 94.12l-1.72-.78 7.99-17.98 1.74.77-8.01 17.99zM262.84 90.4l-1.79-.59 6.07-18.72 1.8.59-6.08 18.72z"/><path class="cls-2" transform="rotate(-77.85 253.947 77.883)" d="M244.09 76.94h19.69v1.9h-19.69z"/><path class="cls-2" transform="rotate(-83.98 242.664 76.195)" d="M232.81 75.25h19.69v1.9h-19.69z"/><path class="cls-2" d="M349.37 56.64L341 49l-9-6.77-3.45 1.17-3.37 1.22a12.14 12.14 0 00-1.69-1.09c-1.08-.67-2.65-1.61-4.52-2.74l-6.39-3.9c-2.33-1.44-5.07-2.5-7.66-3.82l-7.73-3.73-7-2.54-6.84-2.53s-1.09.8-2.19 1.75L279 27.87l-5.56-1.41L267.7 25a63.75 63.75 0 00-6.64-1.14l-6.67-1a34.56 34.56 0 00-5.85-.66l-5.75-.27s-1.7-2.75-3.39-5.51l-3.65-5.52a10.42 10.42 0 00-1.09 0l-2.9.16-8.79.45-4.7.22c-1.49.14-2.87.43-4.05.59l-3.95.61s-3.16-3.3-6.59-6.55l-4.8-4.46L196.66 0l-6.32 1.62c-3.76 1.08-8.93 2-13.76 4-4.88 1.85-9.85 3.47-13.43 5l-5.87 2.83s-1 4.64-1.81 9.16l-1 6.16c-.19 1.75-.31 2.91-.31 2.91l-5.07 3.1-5.83 3.54c-2.3 1.3-4.52 3.31-7.16 5.18-10.65 7.5-23.21 19.62-33.64 33.38-5.46 6.72-9.64 14.31-13.89 21.2l-5 10.52c-.76 1.69-1.69 3.25-2.25 4.91s-1.17 3.22-1.72 4.75c-1.11 3-2.13 5.82-3 8.29s-1.27 4.75-1.8 6.55c-.94 3.66-1.47 5.75-1.47 5.75s2.47 2.86 5 5.54c1.23 1.35 2.71 2.7 3.7 3.68l1.73 1.63s-.26 1.71-.64 4.28l-.68 4.39a29.21 29.21 0 00-.59 5L81 177.29h15.59l.41-7.19.22-4.95c0-.68 0-1.24.06-1.63a4 4 0 010-.62l-4-3.16-4-3.34s.59-4 1.17-8c.31-2 1-3.89 1.32-5.36s.63-2.43.63-2.43l-2.67-2.87-2.64-3c-.76-.24 8.54-23.92 9-23.69l3.54-.45 3.49-.38 1.57-3.34 4.24-6.92 2.23-3.71 1-1.72 1.09-1.42 2.22-2.94 5.63.47 5.49.62a26.41 26.41 0 011.9-2.26l5.34-5.82c1.11-1.19 2.24-2.57 3.55-3.91l4.38-3.92c1.51-1.39 3.06-2.81 4.63-4.27s3.47-2.58 5.19-3.91l5.18-3.92c1.7-1.3 3.62-2.21 5.34-3.32 3.53-2 6.59-4.34 9.64-5.54l7.09-3.42 2-1a3.4 3.4 0 01.72-.29s.37-2.26.75-4.52.87-4.57.87-4.57l3.37-1.24a53.72 53.72 0 017.46-2.48L205.12 34s.41.4 1 1.09l2.21 2.47 3.09 3.61L218.7 40c2.16-.52 4.78-.36 7.54-.56l8.66-.44 8.66.49c2.76.2 5.38 0 7.54.56l7.26 1.13 2.76-3.23 2.88-3.24a3.46 3.46 0 01.69.16l1.94.51 6.92 1.8 4.63 1.15 5 1.87 5.35 1.94 2.77 1c.9.37 1.77.86 2.66 1.28l10.44 5 8.6 5.29c1.26.78 2.47 1.42 3.46 2.1L319 58.7c1.39 1 2.17 1.64 2.17 1.64l-.38 4.19c-.24 2.06-.47 4.13-.47 4.13l1.62 1.18a41.33 41.33 0 014 3.49l5.55 5a23.53 23.53 0 013 3c1 1.07 1.94 2.15 2.91 3.24l3 3.21 1.46 1.56c.41.58.82 1.14 1.22 1.69 1.64 2.19 3.16 4.25 4.47 6a34 34 0 013.06 4.31l1 1.72 13.92-8.88-.66-1.1c-.46-.69-1-1.77-1.82-2.9l-6.22-8.29A71.69 71.69 0 00350 74l-3.17-3.5s.84-3.46 1.52-7 1.02-6.86 1.02-6.86zM180 345.29l-4.7-1.72c-2.8-1.08-6.62-2.3-10.29-3.89l-14.43-6.95s-.29-2.44-.59-4.87l-.48-4.81-3.3-2c-1.93-1.26-4.7-2.66-7.15-4.52l-9.87-7.38-2.25.63a16.94 16.94 0 01-2-1.72l-4.34-3.95-6.33-5.73.18-1.14c.11-.57.21-1.15.21-1.15l-7.75-8.55-5.33 4.59s-.51 2.67-1 5.34-.93 5.45-.93 5.45l2.55 2.82 1.76 1.93a5.56 5.56 0 00.86.83l4.18-.61 5.21 4.73-.36 6.25a42.89 42.89 0 005.05 4.18l5.26 3.93.23 5.25 2.23 1.67a44.43 44.43 0 005.13 3.36c3.81 2.33 7.63 4.64 7.63 4.64s.31 2.71.63 5.41c.18 1.36.37 2.73.51 3.75s.29 1.65.29 1.65l9.72 4.7 6.7 3.21 3.15 1.19 4.18-3c2-1.55 4.06-3.09 4.06-3.09l9 3.31c4.63 1.33 9.32 2.47 9.32 2.47l2-1.46s10 2.67 10.06 2.37l5.1-4.57 4.52.69 4.63.71a32.84 32.84 0 005.34.56l14.61.74s.35.48.88 1.17 1.24 1.61 2 2.46l2.94 3.45 12.08-.62a59.84 59.84 0 008.3-.93l3.76-.57 2.62 4.76 2.71 4.76 4.85-.76c2.92-.35 6.68-1.58 10.5-2.47l10.45-2.79 4.61-1.64 2.39-6.31 2.18-6.24 5.71-2.11 5.5-2.64 1-4.22 8-3.87c3.84-2.23 7.63-4.58 7.62-4.58l.68-5.57 3.88-2.37a20.84 20.84 0 002.58-1.76l1.14-.85 4.72 1.33 4.82 1.24 2.28-1.7-13.12-16.92-3.44 2.57-3.52 2.65-2 1.49-2.19 1.32L315.4 326l-.52 3.36-10.26 4.94a52.69 52.69 0 01-7.23 3l-3.39 1.21-2 6.45-2.2 6.54s-.3.12-.83.28l-2.25.58-6.72 1.74-6.8 1.75a15.16 15.16 0 01-2.25.5l-.87.13s-3.28-2.93-6.35-5.89-5.95-6-5.95-6l-3 .46a53.12 53.12 0 01-8 .66c-3.31.18-7.18.37-11.32.58-4.14-.1-8.56-.41-13-.6a89.76 89.76 0 01-12.88-1.47l-5.91-.9L201 343l-2.5-.65-10.7-2.75-3.83 3c-1.97 1.4-3.97 2.69-3.97 2.69z"/><path class="cls-2" d="M0 182.15l.61 12.42 3.05 2.65.25 4c.35 2.37.81 5.54 1.27 8.71l2 12.66-3.29-2.31.4 2.52a53.67 53.67 0 001.2 5.48c1 4 2 7.94 2 7.94l5.11 3 5.07 2.78c-.35.11 4.55 13.31 4.55 13.31l-2.41 5.12 2.45 6.57c1.8 3.77 4.2 8.82 6.61 13.86 1.25 2.49 2.38 5.05 3.67 7.33s2.6 4.33 3.68 6.12c2.17 3.58 3.63 6 3.63 6l-1.4 6.08.75 1.2a30.73 30.73 0 002.1 3.07c1.85 2.47 4.3 5.77 6.75 9.07s4.83 6.67 7 8.89l3.43 3.82.38 7.38 3.12 3.42c1 1 2 2.21 3.23 3.48l4 3.71 11 9.94 3.28-.21c1.64-.11 3.34-.33 3.34-.33l8.22 6.17 8.61 6.33 10.45 6.42c3.6 2.1 7.07 4.44 10.6 6.15l9.62 4.68 6.84 3.25c1.65.79 2.61 1.19 2.61 1.19l2.72-1.17 11.8 4.35 3-1.47c-.28.89 34.32 9.46 34.46 8.64l3.69 5.1 4.49.67a92.55 92.55 0 009.9 1.19l14.47.76.23-8.3-4.79-5.46-10.64-.58c-2.66-.24-5.29-.72-7.27-1l-3.31-.49-2.84-6.13-5.14-.81c-3.11-.33-7.11-1.53-11.15-2.51L172.36 384a28.75 28.75 0 01-3.6-1.13l-1.34-.48-3.36 1.77-3.42 1.75-9.06-3.33a54.71 54.71 0 01-6.11-2.6l-2.72-1.3-5.9 2.24-5.28-2.55c-1.56-.8-3.46-1.6-5.35-2.72l-5.9-3.54-11-6.72c-1.51-.89-2.62-1.86-3.46-2.44l-1.29-1-.84-6.32-9.91-7.48-9.21-8.31 1.84-6.84-3.52-3.23c-2-2.06-4.53-4.91-7.11-7.72s-5.11-5.67-7-7.79l-2.88-3.81-4.22-.4-4.28-.46-2.44-3.16a88.91 88.91 0 01-5.93-8.6c-2.25-3.69-4.87-8-7.67-12.63a76.74 76.74 0 01-3.87-7.39l-3.74-7.76c-1.19-2.62-2.59-5.16-3.58-7.82l-2.9-7.83-2.67-7.34a55.12 55.12 0 01-2.13-6.65l-3.6-14-3.17-1.86c-1.58-.94-3.14-1.92-3.14-1.92s-1.36-8.74-2.7-17.48a95.9 95.9 0 01-1.11-12.08c-.17-3.31-.29-5.51-.29-5.51l5-5.19-.22-5.09H4.65zM364.53 63.92l1.21 1.32a37 37 0 013.07 3.6l8.6 11.49c2.82 4.4 5.44 8.91 7.51 12.23a31.2 31.2 0 012.31 4.13l.77 1.61 5.48 1 2.62 5.43c1.76 3.18 3.25 7.78 4.93 12.3l2.44 6.65c.77 2.12 1.14 4.21 1.63 5.95l1.5 5.83-3.54 4.28c.41-.09 2.31 13.28 2.31 13.28l21.2-3s-.31-2-.77-5.07a82.41 82.41 0 00-2.16-11.07c-1-4-2-7.95-2.81-10.93-.4-1.49-.68-2.74-1-3.6l-.49-1.32-4.34-1.63-4.37-1.53-2.31-6.33c-1.19-3.87-3.77-8.61-6.05-13.49-1.18-2.41-2.3-4.86-3.47-7.09l-3.57-5.9-3.49-5.74 1.48-4.43c.39-1.12.72-2.24.93-3s.37-1.37.37-1.37-2.9-3.87-5.78-7.74l-4-5.32c-1.14-1.4-2-2.27-2-2.26s1-5.5 1.68-11.25 1.22-11.72 1.22-11.71a38 38 0 00-3.54-3.48l-8.1-7.41-4.34-3.91c-1.44-1.18-2.86-2.19-4.05-3.1l-4-3s-5.39 1.45-10.61 3.08-10.32 3.63-10.32 3.63l-5.85 9a41.11 41.11 0 015.39 3.7c3.12 2.36 7.35 5.43 11.47 8.64L362.37 46l2 1.79 1.38 1.53 1.21 1.33-1.12 6.72c-.67 3.29-1.31 6.55-1.31 6.55z"/><path class="cls-2" d="M444.18 189.4s-.19 3.47-.47 8.69c-.64 5.17-1.76 12.06-2.82 18.95l-.42 2.58-.62 2.51c-.43 1.66-.84 3.3-1.25 4.89-.81 3.17-1.58 6.12-2.23 8.65a50.43 50.43 0 01-1.79 6.06l-.82 2.26-5.89 2.39-3.08 8.39a47.93 47.93 0 01-2.44 5.63l-1.2 2.52 2 4.68 1.93 4.79c.79.43-17.18 30-17.92 29.5 0 0-4.09.45-8.08.74s-7.91.48-7.91.48-.23.29-.63.84a21.12 21.12 0 01-1.91 2.28l-7.15 7.87c-1.48 1.62-3.09 3.38-4.8 5.23l-5.85 5.35c-4.09 3.66-8.28 7.78-13.12 11.13l-7 5.24-3.44 2.56-3.56 2.2-12.86 7.79-13.21 6.4 5.47 12.05 5.19-2.49 5.32-2.58a50.74 50.74 0 005.95-3.2l10.83-6.58 3.6-2.2a8.63 8.63 0 001.31-.89s3.74.83 7.61 1.55 7.83 1.36 7.83 1.36l5.1-3.84a49.69 49.69 0 004.91-4.05l5.12.69 5.2.62 6.64-6.07A51 51 0 00402 340l1.9-2.06s-.24-2.67-.47-5.34-.56-5.25-.56-5.25l4.5-5c2.71-3 5.76-7.42 9-11.68l4.69-6.35c1.49-2 2.61-4.11 3.7-5.8l3.5-5.75 7.93 2.13 8 2s.72-1.2 2-3.3 2.7-5.28 4.57-9 3.9-8.2 6.16-12.92c1.92-4.86 3.82-10.13 5.73-15.38.93-2.63 1.94-5.24 2.76-7.86l2.07-7.81c1.29-5.08 2.49-9.82 3.51-13.88.83-4.1 1.27-7.57 1.68-10l.58-3.8s-3.12-5.7-6.35-11c-1.67-2.69-3.59-5.31-4.93-7.24l-2.3-3.19s.32-7 .65-13.95l-.62-13.95-5.7-4.83c-1.45-1.15-2.89-2.3-4-3.17s-1.91-1.39-1.91-1.39l-1.55-10.38c-.51-3.11-1-6.77-1.75-10.63-1-3.82-2-7.89-3-12-1.8-8.24-5.12-16-7.2-22a73.68 73.68 0 00-2.8-7.07l-1.24-2.62L418 95.25s.6 1.25 1.63 3.43 2.07 5.49 3.51 9.37l2.29 6.28 1.23 3.44c.32 1.2.63 2.43 1 3.68 1.28 5 2.64 10.37 4 15.72.83 5.45 1.67 10.91 2.45 16 .19 1.28.37 2.54.55 3.77s.13 2.46.2 3.64c.12 2.37.24 4.6.34 6.67.2 4.12.37 7.57.48 10-.11 2.41-.17 3.79-.17 3.79l4.39 4.09z"/><path class="cls-2" d="M324.1 290.52l4.9 1.78c2.47.83 4.91 1.48 4.91 1.48l9.41-8.58 8.56-9.44-6-5.08-6.14 6.73-2.39-.49c-1.45-.33-3.25-.67-5.23-1.25-3.89-1.07-7.6-2.27-7.6-2.27l-4.25 3.89a33.65 33.65 0 01-4.6 3.69l-5.4 4.02a42.55 42.55 0 01-5.65 3.68l-5 3.07-2 1.25-1.65.76-1.42.67 3.71 7.28 3.19-1.5 3-1.86 4.62 2.45 2.44-1.47a49.43 49.43 0 005.29-3.37zM391.31 173.09l4.31 2.75c.19 0-.16 5.79-.16 5.79l4 3 4 3.17-.28 5.82-1.71 1-1.81 1-1.31 8.51-5.45 2.6s-.17 1.14-.33 2.28a9.85 9.85 0 01-.33 1.53l-.18.7-5.06.76-1.7 6.59c-.42 1.66-.83 3.31-1.15 4.55a13.2 13.2 0 01-.68 2l3.36 4.49-1.1 3 2.7 3.89 2.66 4s-.15.43-.39 1.07a14.39 14.39 0 01-1 2.29l-1.58 3.25-3.47.63-1.45 3c-.92 1.77-1.89 4.27-3.28 6.55-2.77 4.56-5.55 9.11-5.55 9.11l-5.85.25-.33.53-1 1.32-3 4-4.37 5.88s.13.43.34 1.08.46 1.53.65 2.36c.43 1.7.84 3.41.84 3.41l-8.41 9.26 3.9 3.86 2.65.33 6.87-7.56 2.53-2.77c.78-.91 1.4-1.84 2-2.6l1.91-2.57-1.4-4.7 3.82-5.09 2.47-.06 2.4-.16 3.58-5.9 3.68-6c1.32-2.22 2.36-4.79 3.6-7.25s2.41-5 3.53-7.31a60.63 60.63 0 002.59-6.57l2.37-6.47-2.26-3.3-2.29-3.2 3.05-11.87 3.76-1.52 2.61-1.13 1.15-.54s1.07-7 2.13-14c.72-3.48.58-7.06.8-9.71s.22-4.43.22-4.43l4-2.79 4-2.93a12.49 12.49 0 000-2.21c-.07-1.34-.16-3.11-.26-4.88-.17-3.56-.35-7.11-.35-7.11l-3.94-1.39c-2-.67-3.93-1.32-3.93-1.32l-13.43 1.2-4 4zM382.6 152.27s-.14-.94-.34-2.33a29.09 29.09 0 00-1-5.07c-.94-3.64-1.89-7.28-1.89-7.28l-3.24-1-3.23-.93a13.42 13.42 0 00-.41-1.54l-3.3-.75-3.27-.68-.81-2.19 1.76-2.16s-2.6-7.53-2.87-7.41l2.1-3.1-2.82-5.83-3.76-.3-2.52-.2h-1.19l-6.52 3.5a10.83 10.83 0 01.59 1.19l1.49 3.18 2.16 4.47 1.26 2.51c.38.87.64 1.81 1 2.71 1.25 3.66 2.73 7.25 3.64 10l1.15 4.7 3.4.9s.22.86.56 2.15a34.58 34.58 0 011.13 4.76c.52 3.53 1 7 1 7l-2.76 2.11s.26 1.5.51 3l.12 3-3.5 2.24.48 8.39 3.46 2 13.94.23c.6 0-1.11-24-1.69-23.92z"/></g></g></svg>