<svg xmlns="http://www.w3.org/2000/svg" viewBox="0 0 80 80"><defs><style>.cls-1{fill:#00b0ff}</style></defs><g id="图层_2" data-name="图层 2"><g id="Layer_1" data-name="Layer 1"><path class="cls-1" d="M37.42 79.72l-.39-.03L42.58.28l.4.03-5.56 79.41z"/><path class="cls-1" d="M27.23 77.7l-.37-.13L52.77 2.3l.38.13L27.23 77.7z"/><path class="cls-1" transform="rotate(-55.99 39.997 39.997)" d="M.2 39.8h79.6v.4H.2z"/><path class="cls-1" transform="rotate(-41.02 40.01 40)" d="M.2 39.8h79.6v.4H.2z"/><path class="cls-1" d="M4.32 57.63l-.18-.36 65.24-31.82c6.41-3.12 6.42-3.13 6.52-3.05v.33l-22.49 11z"/><path class="cls-1" transform="rotate(-10.97 39.986 39.994)" d="M.2 39.8h79.6v.4H.2z"/><path class="cls-1" d="M79.69 42.98L.28 37.42l.03-.39 79.41 5.55-.03.4z"/><path class="cls-1" transform="rotate(-71 40.003 39.999)" d="M39.8.2h.4v79.6h-.4z"/><path class="cls-1" transform="rotate(-56 39.996 39.999)" d="M39.8.2h.4v79.6h-.4z"/><path class="cls-1" d="M66 70.17c0-.07-3.78-4.36-9.43-10.85L13.74 10.09l.3-.26L63.71 67c2.64 3 2.64 3 2.58 3.15z"/><path class="cls-1" d="M57.27 75.86L22.38 4.32l.35-.18 34.9 71.55-.36.17z"/><path class="cls-1" transform="rotate(-11 40.013 40.015)" d="M39.8.2h.4v79.6h-.4z"/><path class="cls-1" d="M40 80a40 40 0 1140-40 40 40 0 01-40 40zM40 .4A39.6 39.6 0 1079.6 40 39.64 39.64 0 0040 .4zm0 79.11A39.51 39.51 0 1179.51 40 39.55 39.55 0 0140 79.51zM40 .89A39.11 39.11 0 1079.11 40 39.15 39.15 0 0040 .89zm0 77.16A38.05 38.05 0 1178.05 40 38.09 38.09 0 0140 78.05zm0-75.7A37.65 37.65 0 1077.65 40 37.69 37.69 0 0040 2.35zm0 73.31A35.66 35.66 0 1175.66 40 35.7 35.7 0 0140 75.66zm0-70.92A35.26 35.26 0 1075.26 40 35.3 35.3 0 0040 4.74zm0 67.66A32.4 32.4 0 1172.4 40 32.44 32.44 0 0140 72.4zM40 8a32 32 0 1032 32A32 32 0 0040 8zm0 60.34A28.34 28.34 0 1168.34 40 28.37 28.37 0 0140 68.34zm0-56.28A27.95 27.95 0 1068 40a28 28 0 00-28-27.94zm0 51.53A23.59 23.59 0 1163.59 40 23.61 23.61 0 0140 63.59zm0-46.79A23.2 23.2 0 1063.2 40 23.22 23.22 0 0040 16.8zm0 41.47A18.27 18.27 0 1158.27 40 18.3 18.3 0 0140 58.27zm0-36.14A17.87 17.87 0 1057.87 40 17.89 17.89 0 0040 22.13zm0 30.37A12.5 12.5 0 1152.5 40 12.52 12.52 0 0140 52.5zm0-24.6A12.1 12.1 0 1052.1 40 12.12 12.12 0 0040 27.9zm0 18.53A6.43 6.43 0 1146.43 40 6.44 6.44 0 0140 46.43zM40 34a6 6 0 106 6 6 6 0 00-6-6z"/></g></g></svg>