<svg xmlns="http://www.w3.org/2000/svg" xmlns:xlink="http://www.w3.org/1999/xlink" viewBox="0 0 140.86 140.16"><defs><radialGradient id="radial-gradient" cx="69.7" cy="73.17" r="54.04" gradientTransform="rotate(87.97 69.698 73.177)" gradientUnits="userSpaceOnUse"><stop offset=".73"/><stop offset=".75" stop-color="#040404"/><stop offset=".76" stop-color="#101010"/><stop offset=".78" stop-color="#242424"/><stop offset=".79" stop-color="#414141"/><stop offset=".81" stop-color="#656565"/><stop offset=".82" stop-color="#929292"/><stop offset=".83" stop-color="#c6c6c6"/><stop offset=".85" stop-color="#fff"/><stop offset="1"/></radialGradient><radialGradient id="radial-gradient-2" cx="69.7" cy="73.17" r="54.04" gradientTransform="rotate(87.97 69.698 73.177)" gradientUnits="userSpaceOnUse"><stop offset=".73"/><stop offset=".75" stop-color="#040200"/><stop offset=".76" stop-color="#100900"/><stop offset=".78" stop-color="#241400"/><stop offset=".8" stop-color="#412400"/><stop offset=".81" stop-color="#653800"/><stop offset=".83" stop-color="#925100"/><stop offset=".84" stop-color="#c66e00"/><stop offset=".85" stop-color="#e07c00"/><stop offset="1"/></radialGradient><radialGradient id="radial-gradient-3" cx="69.7" cy="73.17" r="54.04" gradientTransform="rotate(73.29 69.695 73.185)" gradientUnits="userSpaceOnUse"><stop offset=".73"/><stop offset=".74" stop-color="#080808"/><stop offset=".76" stop-color="#1e1e1e"/><stop offset=".79" stop-color="#424242"/><stop offset=".82" stop-color="#747474"/><stop offset=".85" stop-color="#b3b3b3"/><stop offset=".86" stop-color="#c4c4c4"/><stop offset=".89" stop-color="#9d9d9d"/><stop offset=".96" stop-color="#3a3a3a"/><stop offset=".99"/></radialGradient><radialGradient id="radial-gradient-4" cx="69.7" cy="73.17" r="43.56" xlink:href="#radial-gradient-3"/><filter id="luminosity-noclip" x="15.66" y="-8265.16" width="108.07" height="32766" filterUnits="userSpaceOnUse" color-interpolation-filters="sRGB"><feFlood flood-color="#fff" result="bg"/><feBlend in="SourceGraphic" in2="bg"/></filter><filter id="luminosity-noclip-2" x="15.66" y="19.14" width="108.07" height="108.07" filterUnits="userSpaceOnUse" color-interpolation-filters="sRGB"><feFlood flood-color="#fff" result="bg"/><feBlend in="SourceGraphic" in2="bg"/></filter><style>.cls-8,.cls-9{mix-blend-mode:color-dodge}.cls-8{fill:#858585}.cls-10{fill:#707070}.cls-13{mix-blend-mode:overlay;fill:#fff}</style><mask id="mask-2" x="15.66" y="19.14" width="108.07" height="108.07" maskUnits="userSpaceOnUse"><g mask="url(#mask)" filter="url(#luminosity-noclip-2)"><circle cx="69.7" cy="73.17" r="54.04" transform="rotate(-87.97 69.7 73.176)" style="mix-blend-mode:multiply" fill="url(#radial-gradient)"/></g></mask></defs><g style="isolation:isolate"><g id="图层_2" data-name="图层 2"><g id="Layer_1" data-name="Layer 1"><g mask="url(#mask-2)"><circle cx="69.7" cy="73.17" r="54.04" transform="rotate(-87.97 69.7 73.176)" fill="url(#radial-gradient-2)"/></g><circle cx="69.7" cy="73.17" r="54.04" transform="matrix(.29 -.96 .96 .29 -20.42 118.9)" style="mix-blend-mode:color-dodge" fill="url(#radial-gradient-3)"/><path d="M113.26 73.17A43.57 43.57 0 1169.7 29.61a43.57 43.57 0 0143.56 43.56z" style="mix-blend-mode:color-dodge" fill="url(#radial-gradient-4)"/><path class="cls-8" d="M52.56 126.17a56.15 56.15 0 0012.2 2.16 57.77 57.77 0 0012.4-.52 56.68 56.68 0 0023-8.91 57.21 57.21 0 0017.06-17.81 56.46 56.46 0 007.91-23.33l4.43.48a61.4 61.4 0 00.35-6.64h-5.41a55.76 55.76 0 01-22.39 44.75 55.6 55.6 0 01-23.56 10.27 56.59 56.59 0 01-12.93.8 55.58 55.58 0 01-12.76-2.16z"/><path class="cls-8" d="M39 122.77a58.63 58.63 0 0026 7.8 59.58 59.58 0 0013.67-.76A59.14 59.14 0 00126 85.55l-6.91-1.67a51.84 51.84 0 01-1.56 5.2l5.77 2.06a58 58 0 01-52.47 38.5l-.09-2.18a56.38 56.38 0 01-15.59-1.58A55.36 55.36 0 0140.61 120z"/><path class="cls-8" d="M95.29 114.45c1-.62 2-1.28 2.93-2l-.79-1.09c-.93.67-1.89 1.32-2.86 1.93zM83.15 120c1.13-.34 2.24-.72 3.35-1.14l-.5-1.31c-1.08.41-2.16.78-3.26 1.11zM70.12 122.07c1.18 0 2.36-.11 3.54-.23l-.14-1.35c-1.14.12-2.29.19-3.44.23zM99 111.93c.94-.71 1.86-1.46 2.75-2.24l-.89-1c-.87.76-1.76 1.49-2.68 2.18z"/><path class="cls-8" d="M81.6 120.4c1.14-.31 2.27-.65 3.38-1l-.44-1.28c-1.08.37-2.18.7-3.29 1zM56.16 120.56c1.15.29 2.3.54 3.46.74l.24-1.33c-1.13-.2-2.26-.44-3.37-.72zM62.78 121.77A52 52 0 0072 122l-.09-1.35a49.21 49.21 0 01-8.92-.21zM89.76 117.44a49.45 49.45 0 007.91-4.58l-.78-1.1a49.49 49.49 0 01-7.69 4.46zM104.32 107.25a50.39 50.39 0 005.85-7l-1.11-.77a49.8 49.8 0 01-5.7 6.85z"/><path class="cls-8" d="M83.19 119.94c1.13-.34 2.25-.72 3.35-1.14l-.48-1.26c-1.07.41-2.16.78-3.26 1.11zM115.66 89.86c.43-1.1.81-2.21 1.16-3.34l-1.29-.4c-.34 1.1-.72 2.18-1.13 3.25zM104 107.62c.84-.83 1.65-1.69 2.44-2.58l-1-.89c-.76.86-1.55 1.69-2.37 2.5zM114.27 122.71a70.22 70.22 0 007.49-7.84l2.35 1.91a71.72 71.72 0 0011.36-19.66l-5.35-2.05a65.38 65.38 0 01-7.3 13.87 66.15 66.15 0 01-10.35 11.75zM52.52 131.75a62.5 62.5 0 0014.77 2.08l-.13 6.32q3.39.06 6.76-.19l-.2-2.7-2 .12-.26-5.46A60.47 60.47 0 0153 130z"/><path class="cls-8" d="M123.92 112.07a69.35 69.35 0 004.36-6.75l-2.36-1.32a65 65 0 01-4.18 6.48zM114.88 122.16a69.09 69.09 0 005.59-5.76l-2-1.77a63.72 63.72 0 01-5.37 5.53zM88.28 137.28c.59-.17 1.17-.35 1.75-.55l-.85-2.57c-.56.19-1.11.36-1.68.53zM100.82 132.11c.54-.28 1.08-.58 1.61-.88l-1.34-2.35-1.54.85zM112.09 124.58c.48-.39.94-.78 1.4-1.18l-1.77-2.05q-.66.59-1.35 1.14zM106.65 128.62c.5-.34 1-.68 1.5-1l-1.56-2.21c-.48.34-1 .67-1.45 1zM94.68 135c.57-.23 1.13-.47 1.69-.72l-1.1-2.47q-.81.36-1.62.69zM81.68 138.91l1.8-.37-.59-2.65c-.57.13-1.14.25-1.72.36zM68.19 140.16H70v-2.72h-1.75zM75 139.87c.61-.06 1.22-.12 1.82-.2l-.36-2.67c-.58.07-1.16.13-1.75.18zM59.12 124.08l.54.09-.24 1.4-.55-.1.25-1.39zM68.04 124.91h.55v1.42l-.56-.01.01-1.41zM64.3 124.75l.54.03-.09 1.42-.56-.04.11-1.41zM61.94 124.51l.55.06-.16 1.41-.56-.07.17-1.4zM53.71 122.82l.53.15-.38 1.36-.54-.15.39-1.36zM58.47 123.96l.53.1-.25 1.39-.55-.1.27-1.39zM52.45 122.44l.53.16-.42 1.35-.53-.16.42-1.35zM51.3 122.06l.51.17-.44 1.34-.53-.18.46-1.33z"/><path class="cls-8" d="M51.48 122.12l.52.17-.44 1.35-.53-.18.45-1.34zM64.03 124.72l.54.05-.1 1.41-.56-.05.12-1.41zM45.43 119.64l.49.24-.6 1.28-.51-.24.62-1.28zM54.12 122.93l.53.15-.37 1.36-.54-.14.38-1.37z"/><path class="cls-8" d="M45.68 119.77l.5.23-.6 1.28-.5-.23.6-1.28zM48 120.8l.51.21-.54 1.31-.52-.21.55-1.31zM125.97 95.92l.25-.6 1.31.54-.25.61-1.31-.55zM129.23 85.96l.15-.62 11.48 2.58-.17.75-11.46-2.71zM128.08 90.18l.19-.61 1.35.41-.19.62-1.35-.42zM127.2 92.8l.21-.6 1.34.47-.22.61-1.33-.48zM123.13 101.75l.31-.56 1.24.67-.31.58-1.24-.69zM125.67 96.63l.25-.59 1.3.55-.26.6-1.29-.56zM122.37 103.09l.32-.55 1.23.7-.33.57-1.22-.72zM121.63 104.31l.34-.54 1.2.73-.34.56-1.2-.75z"/><path class="cls-8" d="M121.75 104.11l.33-.54 1.22.72-.34.56-1.21-.74zM127.98 90.49l.19-.61 1.36.41-.2.63-1.35-.43zM117.36 110.39l.4-.51 1.11.87-.4.52-1.11-.88zM123.37 101.32l.3-.56 1.25.66-.31.57-1.24-.67z"/><path class="cls-8" d="M117.56 110.13l.4-.51 1.12.86-.4.52-1.12-.87zM119.35 107.75l.37-.52 1.16.81-.38.53-1.15-.82zM116 96c.35-.68.68-1.36 1-2.06l1.28.6c-.33.71-.67 1.41-1 2.11zM107.26 108.28q.75-.8 1.47-1.62l1.07.93c-.5.57-1 1.12-1.52 1.66zM106.09 109.47c.3-.29.59-.59.87-.88l1 1-.89.9zM103.31 112.04l.6-.52.94 1.06-.62.53-.92-1.07zM93.64 118.66c.82-.44 1.64-.9 2.44-1.39l.73 1.22c-.82.49-1.66 1-2.51 1.42zM83.79 122.71l.39-.12.42 1.35-.4.12-.41-1.35zM113.71 100c.4-.64.79-1.3 1.17-2l1.23.71c-.39.67-.79 1.35-1.21 2z"/><path class="cls-8" d="M108.47 107c.48-.55 1-1.1 1.42-1.67l1.09.9c-.47.58-1 1.15-1.46 1.71zM102.49 112.73c.32-.26.63-.53.94-.8l.93 1.07-1 .82zM95.48 117.63l.68-.4.73 1.21-.69.41-.72-1.22zM86.63 121.78c.89-.32 1.76-.66 2.62-1l.55 1.31c-.89.37-1.78.72-2.69 1zM79.35 123.82l.4-.08.3 1.38-.41.09-.29-1.39zM29.31 30.46a56.8 56.8 0 00-13.73 20.46 55.87 55.87 0 00-3.21 12 57.78 57.78 0 00-.55 12.4A56.92 56.92 0 0014 87.5a56.34 56.34 0 004.7 11.44A57 57 0 0035 117.47l-2.64 3.6a61.91 61.91 0 005.57 3.64l2.68-4.71a56.15 56.15 0 01-18.72-17.64 55.74 55.74 0 01-8.84-24.13 56.74 56.74 0 010-13A55.9 55.9 0 0130 31.15z"/><path class="cls-8" d="M39 20.42a59.32 59.32 0 00-19.76 18.64A58.94 58.94 0 009.9 64.57a59.61 59.61 0 000 13.68 58.73 58.73 0 009.1 25.57 59.08 59.08 0 008.74 10.52l4.91-5.14q-2-1.89-3.74-4l-4.66 4a58.1 58.1 0 01-12.8-48.45 57.49 57.49 0 015.67-16.23l1.93 1a56.29 56.29 0 0121.56-22.35z"/><path class="cls-8" d="M18.1 73.32q.06 1.79.24 3.54l1.35-.14c-.12-1.14-.2-2.29-.24-3.44zM19.4 60a51.9 51.9 0 00-.69 3.47l1.34.22c.18-1.14.4-2.26.66-3.38zM24.07 47.7c-.56 1-1.09 2.1-1.57 3.17l1.23.56c.48-1 1-2.08 1.53-3.09zM18.44 77.77c.14 1.17.33 2.34.55 3.5l1.33-.27c-.22-1.13-.4-2.26-.54-3.4z"/><path class="cls-8" d="M19.79 58.47c-.31 1.14-.57 2.29-.8 3.44l1.33.26c.22-1.13.48-2.24.78-3.35zM32.37 36.39c-.83.85-1.62 1.72-2.39 2.62l1 .88c.74-.88 1.51-1.73 2.32-2.56zM28 41.52a50.26 50.26 0 00-4.77 7.8l1.21.6a49.56 49.56 0 014.64-7.59zM18.27 67a51.89 51.89 0 000 9.16l1.35-.12a50.14 50.14 0 010-8.92zM19.79 84.74A49.44 49.44 0 0023 93.3l1.22-.58a48.72 48.72 0 01-3.08-8.33z"/><path class="cls-8" d="M19.39 60.08c-.27 1.14-.5 2.3-.68 3.47l1.33.21c.18-1.13.4-2.26.66-3.38zM29.2 103.23c.74.92 1.52 1.81 2.32 2.68l1-.92q-1.17-1.26-2.25-2.61zM19.66 84.25c.3 1.14.63 2.27 1 3.39l1.34-.43c-.36-1.09-.69-2.19-1-3.3zM1.44 85.62A67.87 67.87 0 004.48 96l-2.82 1.11A71.58 71.58 0 0013 116.77l4.45-3.62A65.64 65.64 0 014.08 85.07zM24.5 27.63a62.94 62.94 0 00-9.2 11.74l-5.4-3.28a67.15 67.15 0 00-3.23 6l2.44 1.17c.3-.62.6-1.23.92-1.84l4.86 2.51a60.54 60.54 0 0110.92-14.99z"/><path class="cls-8" d="M5.83 99.31a67.78 67.78 0 003.68 7.14l2.33-1.38a64.33 64.33 0 01-3.53-6.86zM1.61 86.42a65.32 65.32 0 002.19 7.73l2.55-.89a63.51 63.51 0 01-2.1-7.43zM1.82 55.83c-.14.6-.27 1.19-.4 1.79l2.65.55c.12-.57.25-1.15.38-1.72zM0 69.27v1.83h2.71v-1.76zM.91 82.79c.1.6.2 1.21.32 1.8l2.66-.51c-.11-.57-.22-1.15-.31-1.73zM.14 76.05c0 .61.09 1.21.14 1.82L3 77.63c-.06-.59-.1-1.17-.14-1.76zM.6 62.51c-.08.61-.16 1.21-.22 1.82l2.69.28q.09-.87.21-1.74zM3.7 49.31l-.57 1.74 2.58.81c.18-.56.36-1.12.55-1.68zM9.37 37c-.31.52-.61 1.05-.91 1.59l2.37 1.3.87-1.53zM6.23 43c-.26.55-.5 1.11-.74 1.67L8 45.74c.23-.54.46-1.08.71-1.61zM27.84 37.19l-.36.42-1.09-.91.36-.43 1.09.92zM22.64 44.49l-.28.47-1.22-.71.28-.48 1.22.72zM24.66 41.34l-.31.45-1.17-.79.32-.47 1.16.81zM26.05 39.42l-.33.44-1.14-.84.34-.45 1.13.85zM31.64 33.13l-.39.39-.99-1.01.4-.39.98 1.01zM28.27 36.68l-.36.42-1.08-.92.37-.42 1.07.92zM32.6 32.23l-.4.37-.97-1.03.42-.38.95 1.04zM33.51 31.42l-.41.36-.94-1.05.42-.38.93 1.07z"/><path class="cls-8" d="M33.36 31.55l-.41.36-.94-1.05.42-.37.93 1.06zM24.81 41.11l-.31.45-1.16-.79.32-.47 1.15.81zM38.54 27.53l-.45.31-.81-1.16.46-.32.8 1.17zM31.34 33.43l-.39.38-1-1 .4-.4.99 1.02z"/><path class="cls-8" d="M38.31 27.69l-.45.31-.82-1.15.46-.32.81 1.16zM36.25 29.18l-.44.34-.86-1.12.44-.34.86 1.12zM18.81 109.14l.39.51-1.12.87-.4-.52 1.13-.86zM25.8 116.94l.47.44-7.99 8.64-.56-.52 8.08-8.56zM22.73 113.83l.43.47-1.03.97-.45-.48 1.05-.96zM20.9 111.76l.41.49-1.07.92-.42-.5 1.08-.91zM15.17 103.77l.33.54-1.2.75-.34-.56 1.21-.73zM18.35 108.52l.38.52-1.13.85-.39-.53 1.14-.84zM14.39 102.44l.32.56-1.22.71-.33-.57 1.23-.7zM13.7 101.19l.3.56-1.23.69-.32-.58 1.25-.67z"/><path class="cls-8" d="M13.81 101.4l.31.56-1.24.69-.32-.57 1.25-.68zM22.51 113.6l.43.47-1.03.96-.45-.48 1.05-.95zM10.56 94.46l.24.6-1.31.53-.24-.61 1.31-.52zM15.43 104.19l.33.54-1.19.76-.35-.56 1.21-.74z"/><path class="cls-8" d="M10.69 94.77l.24.59-1.31.54-.25-.6 1.32-.53zM11.86 97.5l.26.58-1.28.6-.27-.59 1.29-.59zM23.71 100.43c.41.65.84 1.28 1.28 1.9l-1.15.82q-.68-1-1.32-2zM17.44 86.77c.2.7.42 1.39.66 2.08l-1.34.46c-.24-.71-.47-1.42-.68-2.14zM17 85.17c.1.4.21.79.33 1.19l-1.33.39c-.12-.41-.23-.81-.34-1.22zM16.16 81.48l.15.78-1.38.28-.16-.8 1.39-.26zM15.28 69.78v2.82h-1.42v-2.89zM16.69 59.22l-.09.39-1.38-.31.09-.41 1.38.33zM21.4 96.48c.35.67.73 1.34 1.11 2l-1.22.71c-.4-.67-.78-1.36-1.14-2z"/><path class="cls-8" d="M18 88.47c.23.69.48 1.38.74 2.06l-1.33.5c-.26-.7-.51-1.4-.75-2.11zM16 80.43c.06.4.13.81.21 1.21l-1.39.27c-.08-.42-.15-.83-.22-1.25zM15.25 71.9l.01.79-1.41.03-.02-.81 1.42-.01zM16.08 62.14c-.16.93-.3 1.85-.42 2.79l-1.4-.18c.12-1 .26-1.91.43-2.85zM17.94 54.81l-.13.39-1.34-.43.13-.4 1.34.44zM123.83 58.16a56.95 56.95 0 00-66.38-42.34 55.54 55.54 0 00-11.81 3.73l-1.8-4.08a60.14 60.14 0 00-5.94 3l2.71 4.69a56 56 0 0177.8 23.09 54.77 54.77 0 014.49 12.13z"/><path class="cls-8" d="M127.65 71.6a59.81 59.81 0 00-1.57-13.6 59 59 0 00-12.17-24.28 59.3 59.3 0 00-21.75-16.31 59.25 59.25 0 00-40.22-2.52l2 6.82a50.78 50.78 0 015.29-1.25l-1.09-6a58.42 58.42 0 0117.21-.54 57.75 57.75 0 0131.14 13.69 58.28 58.28 0 0111.24 13l-1.85 1.17a55.61 55.61 0 018.6 29.81z"/><path class="cls-8" d="M92.3 27c-1-.55-2.1-1.07-3.17-1.55l-.55 1.23c1 .47 2.07 1 3.09 1.52zM103.15 34.8q-1.29-1.21-2.67-2.34l-.85 1c.89.73 1.75 1.48 2.59 2.27zM111.52 45c-.62-1-1.28-2-2-3l-1.1.79c.67.94 1.31 1.89 1.92 2.87zM88.29 25.09c-1.08-.46-2.19-.88-3.3-1.26l-.44 1.28c1.08.37 2.16.78 3.21 1.23z"/><path class="cls-8" d="M104.31 35.92c-.84-.83-1.7-1.64-2.59-2.42l-.89 1c.86.76 1.71 1.54 2.52 2.36zM117.17 57.84c-.32-1.13-.68-2.26-1.08-3.37l-1.27.46c.39 1.08.74 2.17 1.05 3.28zM114.91 51.51a49.86 49.86 0 00-4.38-8l-1.13.75a48.81 48.81 0 014.27 7.8zM97.65 30.31a49.84 49.84 0 00-7.91-4.57L89.17 27a50 50 0 017.7 4.45zM81.58 22.79a49.78 49.78 0 00-9-1.54l-.1 1.35a48 48 0 018.76 1.5z"/><path class="cls-8" d="M103.11 34.77c-.86-.81-1.75-1.59-2.66-2.34l-.86 1c.89.73 1.76 1.48 2.6 2.27zM60.83 21.69q-1.76.25-3.48.66l.3 1.31c1.12-.25 2.25-.46 3.38-.64zM82.07 22.92c-1.13-.31-2.28-.59-3.43-.82l-.27 1.33c1.12.22 2.24.49 3.34.8zM90 6.44a68.17 68.17 0 00-10.57-2.56l.48-3a72.19 72.19 0 00-22.68 0l.9 5.67a66.06 66.06 0 0115.64-.62A65.07 65.07 0 0189.14 9zM128.68 55.41a62.09 62.09 0 00-5.57-13.83l5.54-3c-1.1-2-2.28-3.91-3.57-5.77l-2.22 1.54c.38.56.76 1.13 1.13 1.71l-4.6 3a60.29 60.29 0 017.51 16.93z"/><path class="cls-8" d="M75.92 3.42a69.08 69.08 0 00-8-.39v2.71a66.06 66.06 0 017.7.37zM89.2 6.19a67.24 67.24 0 00-7.79-2l-.5 2.66a66 66 0 017.48 1.88zM115.58 21.69c-.44-.42-.89-.83-1.34-1.24l-1.81 2c.44.39.87.78 1.3 1.19zM104.85 13.41c-.51-.33-1-.64-1.56-.95l-1.37 2.33 1.5.91zM92.69 7.4c-.57-.22-1.14-.4-1.69-.63l-.88 2.56 1.65.6zM98.92 10.1c-.54-.27-1.09-.53-1.65-.79l-1.13 2.46 1.59.75zM110.42 17.28l-1.42-1.1-1.59 2.19c.47.35.94.7 1.4 1.06zM120.29 26.58c-.4-.46-.81-.92-1.22-1.37l-2 1.83 1.17 1.31zM128.14 37.63c-.3-.53-.61-1.06-.93-1.58l-2.31 1.4c.3.51.6 1 .89 1.52zM124.49 31.91l-1.08-1.48-2.17 1.63c.36.46.7.94 1 1.42zM118.75 53.52l-.19-.51 1.32-.49.2.53-1.33.47zM115.01 45.39l-.27-.47 1.23-.71.27.49-1.23.69zM116.74 48.71l-.24-.49 1.27-.63.25.51-1.28.61zM117.7 50.86l-.21-.5 1.3-.56.22.51-1.31.55zM120.35 58.84l-.13-.54 1.37-.35.13.55-1.37.34zM118.97 54.15l-.19-.52 1.34-.47.18.53-1.33.46zM120.65 60.12l-.12-.54 1.38-.31.12.54-1.38.31zM120.89 61.31l-.1-.53 1.38-.29.11.55-1.39.27z"/><path class="cls-8" d="M120.86 61.12l-.11-.54 1.38-.29.11.55-1.38.28zM116.85 48.95l-.23-.49 1.27-.61.25.5-1.29.6zM121.74 67.61l-.05-.55 1.41-.12.05.56-1.41.11zM120.25 58.43l-.14-.53 1.37-.37.14.55-1.37.35z"/><path class="cls-8" d="M121.72 67.32l-.05-.54 1.41-.13.05.56-1.41.11zM121.45 64.8l-.07-.55 1.4-.19.08.56-1.41.18zM60.92 9.73l-.63.08-.19-1.4.65-.09.17 1.41zM50.67 11.87l-.61.19L46.57.81l.73-.22 3.37 11.28zM54.91 10.77l-.63.14-.32-1.38.64-.15.31 1.39zM57.62 10.22l-.63.12-.26-1.39.64-.12.25 1.39zM67.4 9.27l-.64.02-.04-1.41.65-.02.03 1.41zM61.69 9.64l-.63.07-.17-1.4.65-.08.15 1.41zM68.94 9.26h-.64l-.01-1.41h.66l-.01 1.41zM70.37 9.29l-.64-.02.02-1.41.66.02-.04 1.41z"/><path class="cls-8" d="M70.13 9.28l-.63-.01.02-1.41.65.01-.04 1.41zM55.22 10.7l-.63.14-.31-1.38.64-.15.3 1.39zM77.76 9.94l-.63-.09.19-1.4.65.09-.21 1.4zM66.91 9.29l-.64.01-.05-1.41.65-.02.04 1.42z"/><path class="cls-8" d="M77.44 9.89l-.64-.09.19-1.4.65.09-.2 1.4zM74.49 9.54l-.64-.06.12-1.41.65.06-.13 1.41zM66 18.34c-.76 0-1.52.09-2.28.15l-.13-1.4c.78-.07 1.56-.13 2.35-.17zM81 19.73c-.71-.17-1.42-.32-2.13-.46l.27-1.39q1.1.21 2.19.48zM82.61 20.14l-1.19-.31.34-1.37 1.22.32zM86.22 21.27l-.75-.26.45-1.34.77.26-.47 1.34zM96.78 26.34c-.8-.49-1.61-1-2.43-1.43l.65-1.23c.84.46 1.67.95 2.49 1.46zM105.21 32.86l-.3-.28.97-1.03.3.29-.97 1.02zM70.6 18.32c-.77 0-1.53-.05-2.3 0v-1.46h2.36z"/><path class="cls-8" d="M79.26 19.35c-.72-.15-1.43-.28-2.15-.39l.22-1.4c.74.12 1.48.25 2.21.4zM87.22 21.63l-1.16-.42.47-1.33 1.19.43zM94.96 25.26l-.69-.39.68-1.24.71.4-.7 1.23zM103 30.86c-.71-.6-1.44-1.19-2.19-1.76l.85-1.12c.77.58 1.52 1.18 2.26 1.8zM108.4 36.16l-.27-.31 1.05-.95.28.32-1.06.94zM117.53 67.71a49.39 49.39 0 00-9.16-24.63l.4-.29A49.86 49.86 0 01118 67.67zM104.5 45.98l-.05-.07 2.94-2.12.05.06-2.94 2.13zM106.57 45.77l-.09-.14 1.49-1.03.09.14-1.49 1.03z"/><path class="cls-8" transform="rotate(-33.42 107.87 46.073)" d="M106.95 45.98h1.81v.16h-1.81z"/><path class="cls-8" transform="rotate(-32.14 108.45 46.955)" d="M107.53 46.88h1.81v.16h-1.81z"/><path class="cls-8" d="M106.69 49.32l-.08-.13 3.11-1.86.09.14-3.12 1.85z"/><path class="cls-8" transform="rotate(-29.36 109.515 48.78)" d="M108.61 48.7h1.81v.16h-1.81z"/><path class="cls-8" transform="rotate(-28.17 110.023 49.72)" d="M109.12 49.63h1.81v.16h-1.81z"/><path class="cls-8" transform="rotate(-26.74 110.511 50.647)" d="M109.61 50.57h1.81v.16h-1.81z"/><path class="cls-8" d="M108.56 52.85l-.06-.14 3.27-1.57.07.15-3.28 1.56z"/><path class="cls-8" transform="rotate(-24.32 111.441 52.568)" d="M110.52 52.49h1.81v.16h-1.81z"/><path class="cls-8" transform="rotate(-23 111.086 53.582)" d="M110.95 53.46h1.81v.16h-1.81z"/><path class="cls-8" transform="rotate(-21.65 112.276 54.537)" d="M111.35 54.44h1.81v.16h-1.81z"/><path class="cls-8" d="M110.11 56.53l-.05-.14 3.4-1.27.06.15-3.41 1.26zM112.17 56.88l-.06-.15 1.72-.6.05.16-1.71.59z"/><path class="cls-8" transform="rotate(-17.69 113.307 57.518)" d="M112.43 57.43h1.81v.16h-1.81z"/><path class="cls-8" transform="rotate(-16.57 113.61 58.516)" d="M112.74 58.45h1.81v.16h-1.81z"/><path class="cls-8" d="M111.33 60.34l-.04-.15 3.5-.96.04.16-3.5.95z"/><path class="cls-8" transform="rotate(-13.67 114.18 60.57)" d="M113.3 60.49h1.81v.16h-1.81z"/><path class="cls-8" transform="rotate(-12.62 114.475 61.632)" d="M113.54 61.53h1.81v.16h-1.81z"/><path class="cls-8" transform="rotate(-11.58 114.604 62.633)" d="M113.76 62.56h1.81v.16h-1.81z"/><path class="cls-8" d="M112.2 64.24l-.02-.15 3.57-.64.02.16-3.57.63z"/><path class="cls-8" transform="rotate(-8.71 115.12 64.765)" d="M114.14 64.65h1.81v.16h-1.81z"/><path class="cls-8" d="M112.71 68.13v-.08l3.61-.32.01.08-3.62.32z"/><path class="cls-8" transform="rotate(-6.21 115.44 66.906)" d="M114.41 66.75h1.81v.16h-1.81z"/><path class="cls-8" transform="rotate(-7.67 115.17 65.787)" d="M114.29 65.7h1.81v.16h-1.81z"/><path class="cls-8" d="M120.88 71.6a52.38 52.38 0 00-23.11-43.47l.14-.2A53 53 0 01115 46.87a52 52 0 014.6 12 52.6 52.6 0 011.55 12.75z"/><path class="cls-8" d="M102.62 31.24c-.9-.76-1.83-1.49-2.77-2.19l.48-.66 1 .75-.34.45c.6.47 1.2 1 1.79 1.46z"/><path class="cls-8" d="M101.51 29.28c.94.74 1.86 1.5 2.75 2.3l-.55.61c-.31-.27-.62-.55-.93-.81l.37-.43q-.89-.76-1.8-1.47zM104.27 32.7l.28-.29.55.51-.28.3-.55-.52zM105.32 33.69l.28-.29.54.54-.29.28-.53-.53zM106.33 34.71l.29-.28.53.54-.29.28-.53-.54zM107.32 35.75l.3-.27.51.56-.3.26-.51-.55zM108.28 36.82l.31-.27.49.58-.3.26-.5-.57zM109.22 37.91l.3-.25.48.58-.31.26-.47-.59zM36.61 30A52.72 52.72 0 0026 40.84a52.16 52.16 0 00-7 13.45l-.24-.09a52.82 52.82 0 0117.7-24.43zM19.78 50.94q-.41 1-.78 2l-.76-.29.26-.7.53.21c.17-.43.34-.85.52-1.27z"/><path class="cls-8" d="M18.55 51.78c.27-.66.54-1.32.83-2l.75.34-.3.67-.52-.22c-.18.42-.35.85-.52 1.27zM20.31 49.73l-.36-.16.19-.41.36.17-.19.4zM20.67 48.96l-.36-.17.2-.41.36.18-.2.4zM21.05 48.19l-.36-.18.2-.4.36.18-.2.4zM21.43 47.43l-.36-.19.21-.4.36.19-.21.4zM21.83 46.67l-.36-.19.22-.39.35.19-.21.39zM22.24 45.92l-.35-.19.22-.4.35.2-.22.39zM45.56 118.75a52 52 0 0022.9 5.25v.25a52.55 52.55 0 01-23-5.28zM65.8 124.4h1.63v.82h-.58v-.57h-1.07z"/><path class="cls-8" d="M66.73 125.25c-.55 0-1.1 0-1.65-.07v-.82h.57v.57h1.07zM64.78 124.34l-.03.4-.35-.03.03-.4.35.03zM64.11 124.29l-.03.4-.35-.03.04-.4.34.03zM63.45 124.23l-.04.4-.35-.04.04-.4.35.04zM62.79 124.16l-.04.4-.35-.04.04-.4.35.04zM62.13 124.09l-.05.39-.35-.04.05-.39.35.04zM61.47 124l-.05.4-.35-.05.06-.39.34.04zM82.67 115.33l1.37-.47.19.5c-.46.17-.93.33-1.39.48zM114.12 74.8c.06-1 .09-1.93.09-2.89h.53c0 1 0 2-.09 2.92zM112.6 84c.25-.93.48-1.87.67-2.82l.52.11c-.19 1-.42 1.91-.68 2.85zM111.14 88.4q.52-1.35 1-2.73l.51.16c-.3.93-.62 1.86-1 2.77zM101.08 103.94c.68-.68 1.33-1.39 2-2.12l.4.35c-.64.73-1.31 1.45-2 2.15zM97.65 107.09c.74-.62 1.47-1.25 2.17-1.92l.36.39c-.71.67-1.44 1.32-2.19 1.94zM89.91 112.26c.86-.45 1.7-.93 2.52-1.43l.28.45c-.83.51-1.68 1-2.55 1.45zM103.45 99.88c.59-.73 1.16-1.49 1.71-2.26l.43.3c-.55.78-1.12 1.55-1.72 2.3zM100.42 103.29c.66-.67 1.3-1.37 1.92-2.08l.41.35q-.94 1.08-2 2.1zM93.4 109.1c.78-.53 1.55-1.08 2.3-1.65l.33.42a43.1 43.1 0 01-2.34 1.67zM89.48 111.44q1.26-.66 2.46-1.41l.28.46c-.81.5-1.65 1-2.49 1.42zM82.1 113.56c.44-.14.88-.29 1.31-.45l.18.5-1.33.46zM111.76 79.12c.15-.91.27-1.83.37-2.75h.53c-.1.94-.22 1.87-.37 2.79zM110.8 83.49c.25-.9.46-1.8.65-2.7l.52.1c-.19.92-.41 1.83-.65 2.74zM107.58 91.81c.42-.82.81-1.66 1.18-2.51l.49.21c-.37.86-.77 1.71-1.2 2.54zM105.34 95.68c.51-.78 1-1.57 1.44-2.38l.46.26c-.46.82-.94 1.62-1.45 2.41zM96.46 105.66c.72-.59 1.41-1.21 2.09-1.84l.36.39c-.68.64-1.39 1.26-2.11 1.86zM92.88 108.33c.77-.52 1.52-1.06 2.26-1.62l.32.42c-.74.57-1.5 1.12-2.28 1.64zM89 110.62c.82-.43 1.63-.89 2.42-1.38l.28.46c-.8.49-1.62 1-2.45 1.39zM85 112.51c.86-.35 1.71-.73 2.54-1.13l.24.48q-1.27.61-2.58 1.14zM111.34 74.63c0-.91.08-1.82.08-2.72h.58c0 .92 0 1.83-.09 2.75zM110.84 79c.15-.89.27-1.79.36-2.69h.53q-.14 1.36-.36 2.73zM108.54 87.4c.33-.85.63-1.7.9-2.57l.56.17c-.28.88-.58 1.74-.91 2.6zM104.56 95.17c.5-.76 1-1.53 1.41-2.32l.46.26c-.45.8-.92 1.58-1.42 2.35zM102 98.72c.57-.71 1.11-1.43 1.64-2.17l.43.3c-.53.75-1.08 1.49-1.65 2.2zM99.09 102c.64-.65 1.26-1.32 1.85-2l.4.35c-.6.69-1.22 1.37-1.87 2zM110.41 74.57c0-.89.08-1.77.08-2.66h.51c0 .9 0 1.79-.09 2.69zM109.93 78.82c.14-.87.26-1.75.35-2.64l.53.06q-.14 1.33-.36 2.67zM107.67 87.06c.32-.83.62-1.66.88-2.51l.51.16c-.27.86-.57 1.71-.89 2.54zM105.92 91c.41-.79.78-1.59 1.14-2.4l.49.21c-.36.82-.74 1.64-1.15 2.44zM103.78 94.67q.72-1.12 1.38-2.28l.46.26c-.44.79-.9 1.55-1.39 2.31zM98.43 101.33c.62-.63 1.23-1.28 1.81-2l.4.35q-.89 1-1.83 2zM88.17 109q1.18-.63 2.31-1.32l.28.45c-.76.47-1.54.92-2.34 1.34zM84.3 110.78c.82-.33 1.63-.69 2.43-1.07l.23.48c-.81.39-1.63.75-2.46 1.09zM81.24 110.91q.62-.19 1.23-.42l.18.5-1.25.43zM109 78.67c.14-.86.25-1.72.34-2.58h.53c-.09.88-.2 1.75-.34 2.61zM108.11 82.75c.23-.83.43-1.68.61-2.53l.52.11c-.18.86-.38 1.72-.61 2.56zM103 94.16c.47-.72.92-1.47 1.35-2.22l.46.26c-.43.76-.88 1.52-1.36 2.25zM100.55 97.55c.54-.67 1.07-1.36 1.57-2.07l.43.3c-.5.72-1 1.42-1.58 2.11zM97.77 100.68c.61-.62 1.2-1.25 1.77-1.91l.4.35c-.58.66-1.17 1.31-1.79 1.94zM31.64 98.74c.28.39.57.78.87 1.16l-.42.32c-.3-.38-.6-.77-.88-1.17z"/><path class="cls-8" d="M79.89 116.14c.94-.24 1.87-.51 2.78-.81l.17.51q-1.4.45-2.82.81zM70.69 117.5c1 0 1.93-.11 2.89-.22v.53c-1 .11-1.94.18-2.92.23zM66 117.48c1 .06 1.92.08 2.89.07v.53c-1 0-2 0-2.92-.06zM48.14 112.74c.86.43 1.74.84 2.63 1.21l-.21.49c-.9-.38-1.78-.79-2.66-1.23zM44.09 110.44c.81.52 1.64 1 2.49 1.48l-.26.46c-.85-.47-1.69-1-2.52-1.49zM36.79 104.68c.69.67 1.41 1.32 2.14 1.94l-.35.41a33.65 33.65 0 01-2.16-2zM52.74 113.74c.88.34 1.78.64 2.68.92l-.15.51c-.92-.28-1.83-.59-2.72-.93zM48.56 111.91c.84.42 1.7.82 2.57 1.19l-.2.49c-.89-.38-1.76-.78-2.61-1.21zM40.87 107c.74.59 1.5 1.15 2.28 1.69l-.3.44c-.79-.55-1.56-1.11-2.31-1.71zM37.44 104c.68.66 1.38 1.29 2.09 1.91l-.34.4c-.73-.62-1.44-1.26-2.12-1.93zM33.14 97.65q.4.55.84 1.11l-.43.32c-.28-.37-.57-.74-.84-1.12zM75.05 115.22c.92-.14 1.83-.3 2.74-.5l.11.52c-.92.2-1.84.37-2.77.5zM70.6 115.65c.93-.05 1.85-.12 2.77-.22l.06.53c-.93.1-1.86.18-2.8.22zM61.69 115.16c.92.14 1.84.26 2.76.34v.53c-.93-.08-1.86-.2-2.79-.35zM57.32 114.24c.9.23 1.8.44 2.71.62l-.11.52c-.92-.18-1.83-.39-2.74-.63zM45.09 108.87c.78.5 1.58 1 2.39 1.42l-.26.47c-.82-.46-1.63-.93-2.42-1.44zM41.45 106.29c.72.57 1.47 1.12 2.23 1.65l-.31.44c-.77-.54-1.52-1.09-2.26-1.68zM38.08 103.34c.67.65 1.35 1.27 2.06 1.87l-.35.41a46.3 46.3 0 01-2.08-1.9zM35 100.07c.59.71 1.21 1.4 1.85 2.07l-.38.37c-.65-.68-1.28-1.38-1.88-2.1zM79.2 113.43q1.32-.33 2.61-.75l.17.5c-.88.29-1.76.54-2.65.77zM74.91 114.3c.9-.14 1.79-.3 2.68-.49l.11.52c-.9.2-1.8.36-2.71.49zM66.19 114.7c.9 0 1.81.07 2.72.06v.54c-.92 0-1.84 0-2.75-.07zM57.56 113.34c.88.23 1.76.43 2.65.61l-.11.52c-.9-.18-1.79-.38-2.68-.62zM53.4 112c.84.32 1.7.62 2.57.88l-.16.51c-.88-.27-1.75-.56-2.6-.89zM49.39 110.25c.81.4 1.63.78 2.47 1.14l-.21.49c-.84-.36-1.68-.75-2.5-1.16zM79 112.53c.86-.22 1.71-.46 2.56-.74l.16.51c-.85.28-1.72.53-2.59.75zM74.78 113.38c.88-.13 1.75-.29 2.62-.48l.11.52c-.88.19-1.76.35-2.65.49zM66.24 113.77c.88 0 1.77.07 2.66.06v.54c-.9 0-1.79 0-2.69-.07zM62 113.32q1.32.21 2.64.33l-.05.53q-1.33-.12-2.67-.33zM57.8 112.44c.85.23 1.72.43 2.59.6l-.11.52c-.88-.17-1.75-.38-2.62-.61zM49.81 109.41c.79.4 1.6.77 2.41 1.12L52 111c-.82-.35-1.64-.73-2.44-1.13zM39.38 102c.63.61 1.29 1.21 2 1.79l-.35.4c-.68-.58-1.35-1.19-2-1.81zM36.46 98.87c.57.68 1.16 1.34 1.78 2l-.39.36a38.21 38.21 0 01-1.8-2zM35.39 96c.26.35.52.69.79 1l-.42.33c-.27-.34-.54-.7-.8-1.05zM74.64 112.46c.86-.13 1.71-.28 2.56-.46l.11.52c-.86.18-1.72.34-2.59.47zM70.48 112.86c.86 0 1.73-.11 2.59-.2l.06.53c-.87.1-1.75.16-2.63.2zM58 111.54c.83.22 1.68.42 2.53.59l-.11.52c-.86-.17-1.71-.37-2.56-.59zM54.05 110.26c.81.31 1.63.59 2.46.85l-.15.51c-.84-.26-1.67-.55-2.5-.86zM50.22 108.58c.78.39 1.57.76 2.36 1.09l-.2.49c-.81-.34-1.61-.71-2.4-1.1zM31.64 45.08c-.29.39-.57.78-.84 1.18l-.44-.3.85-1.2zM30 96.35c.52.81 1.06 1.61 1.63 2.39l-.43.31c-.58-.79-1.13-1.59-1.65-2.42zM25.85 88c.34.91.71 1.8 1.11 2.68l-.49.22c-.4-.89-.78-1.8-1.12-2.71zM24.43 83.58c.25.94.52 1.86.83 2.78l-.51.17c-.31-.93-.59-1.86-.84-2.81zM23.43 65.1c-.15 1-.26 1.92-.34 2.88h-.53c.08-1 .19-1.94.34-2.9zM24.35 60.54c-.24.93-.45 1.88-.63 2.82l-.52-.09c.18-1 .39-1.92.63-2.86zM27.57 51.81c-.42.86-.82 1.75-1.19 2.64l-.49-.21c.37-.9.78-1.79 1.21-2.67zM23.9 69.78c0 1-.06 1.89 0 2.84h-.54c0-1 0-1.92.05-2.87zM24.35 65.24c-.14.94-.26 1.88-.34 2.82h-.53c.08-1 .2-1.9.34-2.85zM26.61 56.41c-.33.89-.63 1.79-.9 2.69l-.51-.1c.28-.92.58-1.83.91-2.72zM28.41 52.22q-.63 1.28-1.17 2.58l-.49-.2c.36-.89.76-1.76 1.18-2.62zM33.14 46.17c-.27.37-.54.75-.8 1.14L31.9 47c.26-.39.53-.77.81-1.15zM29.38 91.46c.41.83.85 1.64 1.32 2.44l-.46.27c-.47-.81-.92-1.63-1.34-2.47zM27.59 87.37c.32.86.68 1.72 1.06 2.56l-.49.22c-.38-.85-.74-1.72-1.07-2.6zM25.31 78.74c.14.91.32 1.82.52 2.73l-.52.11c-.21-.91-.38-1.83-.53-2.76zM24.84 74.29c.05.93.13 1.85.24 2.77l-.53.06c-.11-.93-.19-1.86-.24-2.8zM26.15 61c-.23.9-.43 1.8-.6 2.71l-.53-.1c.18-.92.38-1.83.61-2.74zM27.48 56.73c-.32.87-.61 1.75-.88 2.64l-.51-.15c.27-.9.57-1.79.89-2.67zM29.24 52.63c-.41.83-.79 1.67-1.14 2.53l-.49-.16c.35-.86.74-1.72 1.15-2.56zM31.42 48.72c-.5.79-1 1.59-1.4 2.4l-.47-.25c.44-.82.92-1.63 1.41-2.43zM32.36 94.85q.74 1.15 1.53 2.25l-.43.31c-.54-.74-1.06-1.5-1.55-2.27zM30.21 91c.4.82.84 1.61 1.29 2.4l-.5.3c-.46-.79-.9-1.6-1.31-2.42zM27.13 82.87c.23.88.49 1.75.77 2.61l-.5.17c-.29-.87-.56-1.75-.79-2.64zM25.77 74.24c.05.91.13 1.81.23 2.71l-.53.06c-.1-.91-.18-1.82-.23-2.74zM25.76 69.87c0 .9-.06 1.81 0 2.72h-.54c0-.92 0-1.84.05-2.76zM26.18 65.52c-.13.89-.24 1.79-.31 2.7h-.53c.07-.91.18-1.83.32-2.73zM33.15 94.35c.47.75 1 1.48 1.49 2.2l-.43.32c-.53-.73-1-1.47-1.51-2.23zM31 90.63q.6 1.19 1.26 2.34l-.46.27c-.45-.78-.88-1.57-1.28-2.37zM28 82.64c.23.85.48 1.7.76 2.54l-.5.17c-.29-.85-.54-1.71-.77-2.58zM27.15 78.45c.13.88.3 1.75.49 2.61l-.52.12c-.19-.88-.36-1.76-.5-2.65zM26.7 74.19c.05.89.12 1.77.23 2.65l-.53.07c-.11-.9-.18-1.79-.23-2.69zM27.1 65.65c-.13.88-.23 1.76-.31 2.65h-.53c.08-.89.18-1.79.32-2.67zM30.91 53.45c-.39.79-.75 1.6-1.09 2.42l-.5-.2q.53-1.24 1.11-2.46zM33 49.71c-.47.75-.91 1.52-1.34 2.3l-.46-.26c.42-.79.87-1.56 1.35-2.32zM35.39 47.81l-.74 1.06-.45-.29c.25-.37.51-.73.76-1.08zM31.87 90.21c.39.78.8 1.54 1.24 2.29l-.46.27c-.44-.76-.86-1.53-1.26-2.32zM30.2 86.38q.45 1.22 1 2.4l-.48.22c-.37-.8-.7-1.61-1-2.43zM27.63 74.14c0 .87.12 1.73.22 2.6l-.53.06c-.1-.87-.18-1.75-.22-2.63zM27.61 70c0 .86-.05 1.73 0 2.6H27v-2.64zM28 65.79q-.19 1.29-.3 2.58h-.53c.07-.88.17-1.75.3-2.62zM82.67 28.49l-1.38-.43.15-.51c.47.13.93.28 1.4.43z"/><path class="cls-8" d="M33.41 42.79c-.61.74-1.2 1.51-1.77 2.29l-.43-.32c.57-.79 1.17-1.56 1.79-2.31zM40.05 36.27c-.76.6-1.49 1.23-2.21 1.88l-.35-.39c.72-.66 1.46-1.3 2.22-1.91zM43.82 33.55c-.81.52-1.6 1.07-2.38 1.64l-.31-.42c.78-.59 1.58-1.14 2.4-1.67zM61.09 26.87c-1 .16-1.9.35-2.84.56l-.12-.51c.95-.22 1.91-.41 2.87-.57zM65.72 26.35q-1.44.09-2.88.27l-.07-.53c1-.12 1.94-.21 2.92-.27zM75 26.72c-1-.14-1.91-.24-2.88-.32v-.53c1 .08 2 .18 2.92.32zM56.78 28.76c-.91.25-1.81.53-2.71.84l-.17-.51c.9-.31 1.82-.59 2.74-.84zM61.24 27.79c-.93.15-1.86.34-2.78.55l-.12-.52c.93-.21 1.87-.4 2.82-.56zM70.34 27.23c-1 0-1.89-.05-2.84 0v-.54h2.87zM74.88 27.64c-.93-.14-1.88-.24-2.82-.31v-.53c1 .07 1.91.17 2.86.31zM82.1 30.25l-1.33-.4.15-.52c.45.14.9.27 1.34.42zM37.87 40.69q-1 1-1.92 2l-.4-.36c.63-.7 1.28-1.38 1.94-2zM41.21 37.72c-.73.58-1.43 1.18-2.11 1.8l-.36-.39q1-.95 2.13-1.83zM48.7 32.88c-.82.42-1.63.86-2.43 1.34l-.27-.46c.81-.48 1.63-.93 2.46-1.36zM52.78 31.05c-.86.34-1.71.7-2.55 1.09l-.23-.49c.85-.39 1.72-.76 2.59-1.09zM65.83 28.21c-.92.05-1.84.14-2.76.25l-.07-.52c.93-.12 1.87-.21 2.8-.27zM70.3 28.16c-.92 0-1.85-.05-2.78 0v-.56h2.81zM74.75 28.56c-.92-.13-1.84-.23-2.76-.31v-.53c.94.08 1.87.18 2.8.31zM79.14 29.41c-.9-.23-1.81-.42-2.72-.58l.1-.53c.92.17 1.84.36 2.75.59zM35.56 44.57c-.58.7-1.14 1.41-1.67 2.15l-.43-.32c.54-.74 1.1-1.46 1.69-2.17zM38.52 41.35c-.65.64-1.27 1.29-1.88 2l-.4-.36c.62-.68 1.25-1.35 1.9-2zM45.34 35.89c-.76.49-1.51 1-2.24 1.54l-.32-.43c.74-.55 1.5-1.07 2.27-1.57zM53.12 31.92c-.85.33-1.68.68-2.5 1.06l-.23-.48c.84-.39 1.68-.75 2.54-1.08zM57.27 30.56c-.87.23-1.74.5-2.6.79l-.17-.5c.87-.3 1.75-.57 2.63-.81zM61.54 29.62c-.89.15-1.78.33-2.66.53l-.12-.52c.89-.2 1.79-.38 2.7-.53zM36.28 45.16c-.57.69-1.12 1.39-1.64 2.1l-.43-.26c.53-.73 1.08-1.43 1.65-2.13zM39.17 42c-.63.62-1.24 1.27-1.84 1.93l-.39-.36q.9-1 1.86-1.95zM45.84 36.67c-.74.48-1.47 1-2.19 1.51l-.31-.43c.72-.53 1.46-1 2.21-1.53zM49.55 34.53c-.79.4-1.57.83-2.33 1.29l-.22-.46c.77-.46 1.56-.89 2.36-1.3zM53.45 32.79c-.82.32-1.64.66-2.44 1l-.23-.49c.82-.38 1.64-.73 2.48-1.05zM61.7 30.54c-.88.15-1.75.32-2.61.52l-.09-.52c.87-.2 1.75-.38 2.64-.52zM74.49 30.4c-.88-.13-1.76-.22-2.64-.29v-.53c.89.07 1.79.16 2.68.29zM78.69 31.21c-.86-.21-1.73-.4-2.6-.56l.1-.52c.88.16 1.76.35 2.63.56zM81.24 32.91c-.41-.14-.83-.26-1.24-.39l.14-.51q.64.18 1.26.39zM39.82 42.68c-.62.6-1.22 1.23-1.79 1.88l-.4-.36c.58-.65 1.19-1.29 1.82-1.9zM43 39.9c-.68.54-1.34 1.1-2 1.69l-.36-.4q1-.88 2-1.71zM53.79 33.65q-1.22.48-2.4 1l-.22-.49c.8-.36 1.61-.71 2.43-1zM57.76 32.35c-.84.23-1.66.48-2.48.76l-.18-.5c.83-.29 1.67-.54 2.52-.78zM61.85 31.46c-.86.14-1.71.31-2.55.5l-.12-.52q1.27-.29 2.58-.51zM114.21 71.91v-1.45h.53v1.47zM85.4 29.47c-.9-.36-1.81-.68-2.73-1l.17-.51q1.39.45 2.76 1zM93.65 33.77c-.81-.53-1.63-1-2.47-1.52l.27-.46c.85.48 1.68 1 2.49 1.53zM97.4 36.53a39.9 39.9 0 00-2.3-1.76l.31-.44c.8.57 1.57 1.17 2.33 1.78zM109.09 50.88c-.45-.86-.92-1.7-1.42-2.53l.46-.27c.5.83 1 1.69 1.43 2.55zM111 55.12c-.35-.9-.74-1.79-1.15-2.66l.48-.23c.42.89.81 1.78 1.17 2.69zM113.54 64.08c-.16-.95-.36-1.9-.58-2.84l.51-.12c.23 1 .43 1.9.6 2.87zM106 47.37c-.52-.79-1.06-1.56-1.63-2.32l.43-.32c.57.77 1.12 1.55 1.65 2.35zM108.26 51.31c-.43-.84-.9-1.67-1.39-2.48l.46-.27c.5.82 1 1.65 1.41 2.5zM111.62 59.78c-.26-.91-.54-1.81-.86-2.7l.51-.18c.31.91.6 1.82.86 2.74zM112.62 64.24c-.16-.94-.35-1.86-.57-2.78l.52-.13c.22.93.42 1.87.58 2.81zM112.35 71.91v-1.39h.53v1.41zM88.78 33.06c-.82-.43-1.66-.83-2.51-1.21l.22-.49c.86.38 1.7.79 2.53 1.22zM92.63 35.32c-.78-.51-1.56-1-2.37-1.45l.27-.47c.81.47 1.61 1 2.39 1.48zM99.54 41a59.31 59.31 0 00-2-1.9l.35-.4c.7.62 1.39 1.26 2 1.93zM102.54 44.28q-.89-1.08-1.83-2.1l.4-.36c.63.69 1.25 1.4 1.84 2.12zM109.29 55.8c-.34-.86-.71-1.71-1.1-2.55l.48-.22c.4.84.77 1.7 1.12 2.58zM110.72 60c-.25-.9-.53-1.78-.83-2.65l.5-.18c.31.88.59 1.78.85 2.68zM111.71 64.39c-.16-.91-.35-1.82-.56-2.72l.52-.12c.22.91.4 1.83.56 2.75zM112.25 68.83c-.07-.92-.16-1.85-.29-2.76l.53-.07c.13.93.22 1.86.29 2.79zM84.37 32.06c-.84-.33-1.7-.64-2.56-.92l.17-.51c.87.28 1.73.6 2.59.93zM88.35 33.88c-.81-.42-1.62-.81-2.45-1.18l.21-.49c.84.37 1.67.77 2.48 1.2zM95.64 38.69c-.7-.58-1.42-1.13-2.16-1.66l.31-.43c.75.54 1.48 1.09 2.19 1.67zM101.82 44.87c-.58-.71-1.17-1.39-1.79-2.06l.39-.36c.63.67 1.23 1.37 1.81 2.08zM104.4 48.39c-.5-.75-1-1.5-1.56-2.22l.42-.32q.83 1.09 1.59 2.25zM106.61 52.17c-.41-.81-.86-1.6-1.33-2.38l.46-.27q.7 1.18 1.35 2.4zM84 32.92c-.83-.32-1.66-.62-2.5-.9l.16-.5c.85.27 1.7.58 2.53.91zM87.92 34.7c-.79-.41-1.59-.79-2.4-1.15l.22-.49c.82.37 1.63.76 2.42 1.17zM95.05 39.41c-.68-.56-1.39-1.1-2.11-1.62l.31-.43c.73.52 1.44 1.07 2.14 1.63zM98.23 42.28c-.63-.63-1.23-1.28-1.94-1.83l.35-.4c.68.6 1.33 1.21 2 1.85zM101.09 45.45q-.84-1-1.74-2l.39-.36q.92 1 1.77 2zM105.79 52.59c-.41-.78-.84-1.56-1.3-2.31l.45-.28c.47.77.91 1.55 1.32 2.35zM109.88 64.71c-.15-.87-.33-1.74-.54-2.6l.52-.13c.21.87.39 1.76.54 2.64zM110.39 69c-.06-.89-.15-1.77-.27-2.65l.53-.07c.12.89.21 1.79.27 2.68zM109.56 71.91v-1.3h.54v1.32zM87.49 35.53c-.77-.4-1.55-.78-2.35-1.13l.22-.49c.8.36 1.6.74 2.37 1.15zM91.09 37.65c-.72-.48-1.46-.93-2.21-1.36l.26-.47q1.14.66 2.25 1.38zM100.37 46c-.54-.67-1.11-1.33-1.7-2l.39-.37c.6.65 1.17 1.31 1.73 2zM102.85 49.41c-.48-.72-1-1.43-1.5-2.12l.43-.32c.52.7 1 1.42 1.51 2.15zM105 53c-.4-.77-.82-1.52-1.27-2.26l.46-.28c.45.75.88 1.52 1.29 2.3zM89.06 66.22l-.09-.34.25-.07.1.34-.26.07zM81.73 55.2l-.57-.43.16-.21.57.44zM83.46 56.73l-.52-.5.18-.19.52.5zM84.26 57.55l-.5-.52.19-.18.5.52zM87 61.26c-.12-.21-.25-.41-.37-.61l.22-.15.38.62zM87.53 62.27c-.11-.21-.22-.42-.34-.63l.23-.13c.12.21.23.42.34.64zM88.46 64.38c-.09-.23-.17-.45-.27-.67l.25-.1.27.67zM86 60.53c-.12-.19-.26-.39-.39-.58l.22-.15.4.59zM86.57 61.49q-.16-.3-.36-.6l.23-.14c.12.2.25.4.36.61zM87.6 63.5l-.3-.64.24-.11c.11.21.2.42.3.64zM88 64.54a8.8 8.8 0 00-.26-.65l.25-.1c.09.22.18.44.26.66zM88.17 66.47l-.1-.33.26-.07.09.33-.25.07zM82 56.64l-.52-.44.17-.21.52.45zM82.8 57.39c-.16-.16-.32-.32-.49-.47l.18-.2.5.48zM84.29 59l-.44-.52.2-.17.45.52zM85 59.88l-.42-.54.21-.17c.15.18.28.37.42.55zM86.7 62.69l-.32-.6.23-.13.33.61zM87.17 63.69c-.09-.21-.19-.42-.29-.62l.24-.12c.1.21.2.42.29.63zM87.59 64.71c-.08-.22-.17-.43-.25-.64l.24-.1c.09.21.18.42.26.64zM88 65.75c-.07-.22-.14-.44-.22-.65L88 65c.08.22.16.43.23.65zM80.86 56.3l-.53-.41.16-.21.54.41zM81.69 57l-.51-.44.17-.2c.18.14.35.29.52.44zM83.23 58.49l-.46-.49.19-.19c.16.16.31.33.46.49zM84.59 60.16l-.4-.54.21-.16.41.54zM85.21 61l-.38-.55.22-.16.38.57zM85.77 62c-.11-.2-.23-.39-.35-.57l.23-.15.35.58zM80.58 56.66l-.52-.39.15-.22.53.4zM81.38 57.34l-.49-.43.17-.2.5.43zM82.88 58.81l-.44-.48.19-.18.45.48zM83.57 59.6l-.42-.5.2-.17c.15.16.29.33.43.5zM84.22 60.43c-.13-.17-.26-.35-.4-.52l.21-.16c.14.17.27.35.4.52zM85.37 62.19l-.37-.56.23-.14.34.57zM86.72 65l-.24-.61.24-.1c.09.2.17.4.25.61zM87.07 66l-.21-.62.25-.09.21.63zM86.82 66.84l-.08-.3.25-.08.09.31-.26.07zM81.08 57.69l-.49-.42.17-.2a6.4 6.4 0 01.49.42zM81.83 58.38l-.46-.38.18-.2c.16.14.31.29.46.44zM83.84 60.71l-.38-.51.21-.16.39.51zM84.43 61.55l-.36-.55.22-.15.36.53zM85 62.42l-.33-.54.22-.14c.12.18.23.36.34.55z"/><path class="cls-8" d="M106.78 65a38.53 38.53 0 00-4.25-11.92A39 39 0 0084 36.28a38.62 38.62 0 00-12.28-3.07l.36-4.44c-1.17-.1-2.35-.14-3.52-.14V34a37.89 37.89 0 0132.74 18.83 37.39 37.39 0 014.53 12.3z"/><path class="cls-8" d="M109.61 71.91a40.94 40.94 0 00-9.54-26.32 41.44 41.44 0 00-10.87-9.17 40.73 40.73 0 00-13.33-4.91l-1.26 7c.88.16 1.74.35 2.6.57l1.55-5.92a40.11 40.11 0 0126.36 22.35l-2 .89a37.82 37.82 0 013.31 15.51z"/><path class="cls-8" d="M90.92 48.37c-.41-.39-.83-.77-1.27-1.14l-.88 1c.42.35.82.72 1.22 1.09zM95.14 53.26c-.33-.47-.67-.93-1-1.37l-1.07.83c.34.43.67.87 1 1.32zM98.28 58.8c-.23-.52-.48-1-.74-1.54l-1.2.61c.24.49.48 1 .7 1.48zM89.32 46.94c-.44-.36-.89-.71-1.35-1.06L87.16 47c.44.32.87.66 1.29 1z"/><path class="cls-8" d="M95.58 53.9c-.32-.47-.65-.94-1-1.4l-1.08.81c.32.44.64.89.94 1.34zM100.34 65.23c-.11-.55-.25-1.11-.39-1.66l-1.31.35c.14.53.27 1.06.38 1.59zM99.52 62.1a32 32 0 00-1.61-4.1l-1.22.58a30.65 30.65 0 011.54 3.92zM93 50.57a31.79 31.79 0 00-3.12-3.13l-.89 1a32.56 32.56 0 013 3zM86.57 44.89a32.33 32.33 0 00-3.83-2.19l-.59 1.21A31.51 31.51 0 0185.81 46z"/><path class="cls-8" d="M95.13 53.24c-.33-.47-.67-.92-1-1.37L93 52.7c.34.43.67.87 1 1.32zM77.47 40.68c-.55-.15-1.1-.3-1.65-.42l-.3 1.32c.53.12 1.06.25 1.58.4zM86.77 45c-.47-.32-1-.63-1.44-.92l-.7 1.15c.47.29.93.58 1.38.89zM98.38 31.1a51.37 51.37 0 00-5-3.24l1.48-2.64A53 53 0 0083 20.33l-1.54 5.52a47.59 47.59 0 0115.3 7.44zM111.92 63.24a43 43 0 00-2.25-7.62l5.88-2.33c-.46-1.17-1-2.31-1.51-3.44L111.61 51c.16.33.32.67.47 1l-5 2.27a42.17 42.17 0 013 9.29z"/><path class="cls-8" d="M91.61 26.93c-1.31-.68-2.66-1.3-4-1.85l-1 2.5c1.3.53 2.57 1.12 3.82 1.76zM98 30.84q-1.8-1.29-3.71-2.43l-1.38 2.33c1.2.71 2.38 1.48 3.51 2.3zM109.94 42.9c-.19-.28-.39-.55-.59-.83l-2.18 1.6.56.78zM105.19 37.1c-.23-.25-.46-.49-.7-.73l-1.92 1.9.66.69zM99.64 32.06c-.26-.21-.53-.41-.8-.61l-1.62 2.16.76.58zM102.51 34.48l-.75-.67-1.78 2 .71.64zM107.68 39.91l-.65-.78-2.03 1.76c.21.24.41.49.61.73zM112 46l-.52-.86-2.3 1.43.5.82zM115.34 52.76l-.39-.94-2.49 1.08c.13.29.26.59.38.88zM113.79 49.34l-.46-.9-2.4 1.25.44.86zM102.68 62.85l-.07-.26 1.36-.37.08.27-1.37.36zM101.27 58.64l-.1-.25 1.31-.54.1.26-1.31.53zM101.92 60.38l-.09-.26 1.34-.47.09.27-1.34.46zM102.29 61.49l-.08-.26 1.35-.42.08.27-1.35.41zM103.28 65.54l-.05-.26 1.39-.27.05.28-1.39.25zM102.76 63.17l-.07-.26 1.37-.36.07.27-1.37.35zM103.39 66.19l-.05-.27 1.4-.24.04.28-1.39.23zM103.48 66.78l-.04-.26 1.4-.22.04.28-1.4.2z"/><path class="cls-8" d="M103.47 66.69l-.05-.27 1.4-.22.04.28-1.39.21zM101.97 60.51l-.09-.26 1.33-.47.1.27-1.34.46zM103.79 69.92l-.01-.27 1.41-.09.01.29-1.41.07zM103.24 65.34l-.05-.27 1.39-.27.05.28-1.39.26z"/><path class="cls-8" d="M103.78 69.78l-.01-.27 1.41-.09.02.28-1.42.08zM103.69 68.53l-.03-.28 1.41-.14.03.28-1.41.14zM81.68 29.59l-.32-.1.4-1.36.34.1-.42 1.36zM76.25 28.28l-.33-.06 1.94-11.61.42.07-2.03 11.6zM78.54 28.74l-.33-.08.3-1.38.35.08-.32 1.38zM79.97 29.09l-.33-.08.35-1.37.34.09-.36 1.36zM84.94 30.74l-.31-.13.51-1.31.33.13-.53 1.31zM82.08 29.71l-.33-.1.42-1.35.34.1-.43 1.35zM85.71 31.05l-.32-.13.54-1.31.32.14-.54 1.3zM86.41 31.35l-.32-.14.56-1.29.33.14-.57 1.29z"/><path class="cls-8" d="M86.29 31.3l-.31-.14.55-1.3.33.14-.57 1.3zM78.7 28.78l-.33-.08.31-1.38.35.08-.33 1.38zM89.95 33.11l-.3-.17.68-1.24.31.17-.69 1.24zM84.7 30.64l-.32-.12.51-1.32.33.13-.52 1.31z"/><path class="cls-8" d="M89.8 33.02l-.3-.16.67-1.25.31.17-.68 1.24zM88.39 32.29l-.3-.15.62-1.27.32.15-.64 1.27zM80.89 38.84c-.35-.14-.71-.26-1.07-.38l.45-1.34q.56.18 1.11.39zM87.57 42.18c-.3-.2-.61-.39-.92-.57l.73-1.22 1 .6zM88.26 42.63l-.51-.34.77-1.18.53.35-.79 1.17zM89.79 43.72l-.31-.23.84-1.14.32.24-.85 1.13zM94.14 47.61c-.32-.34-.65-.67-1-1l1-1 1 1zM97.5 51.71l-.12-.17 1.15-.82.12.18-1.15.81zM83 39.7c-.34-.16-.69-.31-1-.45l.53-1.31 1.09.47z"/><path class="cls-8" d="M86.82 41.71l-.94-.55.7-1.23c.33.18.65.37 1 .57zM90.22 44.05l-.49-.38.85-1.13.5.39-.86 1.12zM93.41 46.85l-.28-.27.98-1.02.29.29-.99 1zM96.62 50.51l-.87-1.1 1.09-.9q.47.56.9 1.14zM98.74 53.61l-.11-.17 1.21-.74.11.18-1.21.73zM40.15 42.05a41 41 0 00-8.09 10.73A41.34 41.34 0 0028 79a40.92 40.92 0 004.45 12.69l-2 1.07q.86 1.55 1.83 3l2.26-1.49a40.71 40.71 0 015.94-51.87z"/><path class="cls-8" d="M45.31 36.55a42.35 42.35 0 00-15.68 52l3.27-1.4c-.4-.93-.76-1.88-1.08-2.84l-2.9 1a41.88 41.88 0 014.37-35.81l.92.59a40.63 40.63 0 0112-12.14z"/><path class="cls-8" d="M31.14 65.18q-.18 1-.3 2l.67.08c.08-.65.18-1.3.3-1.94zM33.21 57.92c-.25.62-.48 1.24-.69 1.87l.64.22c.21-.62.44-1.24.68-1.85zM36.61 51.27c-.36.56-.7 1.13-1 1.71l.58.34q.5-.85 1-1.68zM30.78 67.67c-.08.66-.13 1.33-.17 2h.67c0-.65.1-1.31.17-2z"/><path class="cls-8" d="M33.55 57.07c-.26.62-.5 1.24-.73 1.86l.64.23c.22-.61.46-1.22.71-1.83zM41.58 45.1c-.47.48-.92 1-1.37 1.46l.5.45c.44-.49.89-1 1.35-1.43zM39 47.93a37.28 37.28 0 00-3 4.22l.57.35a37.6 37.6 0 012.92-4.14zM31.93 61.71a38.31 38.31 0 00-1 5.07l.67.09a38.08 38.08 0 011-5zM30.54 71.68a38.49 38.49 0 00.31 5.15l.67-.08a39 39 0 01-.31-5.07z"/><path class="cls-8" d="M33.2 57.94c-.25.62-.48 1.25-.69 1.88l.64.21c.21-.62.44-1.23.68-1.84zM32.28 83.3c.2.64.41 1.27.65 1.89l.63-.24c-.23-.61-.44-1.23-.64-1.85zM30.54 71.39v2h.68v-2zM21.56 69.6a47.22 47.22 0 00.05 5.58l-1.51.11a48.34 48.34 0 002.18 11.37l2.72-.87a45.63 45.63 0 01-2.1-16.12zM37.72 40.67a43.66 43.66 0 00-5.1 6L30 44.88c-.67.95-1.3 1.93-1.9 2.93l1.17.69c.18-.3.36-.61.55-.91L32.17 49a43 43 0 016.2-7.72z"/><path class="cls-8" d="M21.77 77c.15 1.37.36 2.73.63 4.09l1.33-.27c-.27-1.31-.47-2.64-.61-4zM21.54 70c-.06 1.37-.05 2.75 0 4.13l1.35-.06c-.06-1.34-.06-2.68 0-4zM24.82 54.56c-.12.29-.23.58-.34.88l1.27.47c.1-.28.21-.57.32-.85zM22.74 61.22c-.08.31-.14.62-.21.92l1.32.28c.07-.29.13-.59.2-.89zM21.66 68.12c0 .32-.05.63-.07.94l1.35.08c0-.3 0-.6.07-.91zM22.07 64.65c-.05.31-.09.62-.14.94l1.34.18c0-.3.09-.61.14-.91zM23.65 57.85l-.27.91 1.3.37c.09-.29.17-.58.26-.87zM26.22 51.36l-.4.85 1.23.57.39-.83zM29.73 45.32l-.53.78 1.13.74.51-.76zM27.86 48.27c-.16.27-.31.55-.46.82l1.18.66L29 49zM39.16 45.61l-.2.23-.53-.47.21-.23.52.47zM36.09 49.52l-.17.25-.59-.4.18-.25.58.4zM37.31 47.84l-.18.24-.57-.42.19-.25.56.43zM38.13 46.82l-.19.23-.55-.45.19-.23.55.45zM41.31 43.4l-.22.21-.5-.51.23-.21.49.51zM39.41 45.34l-.2.23-.53-.48.21-.22.52.47zM41.84 42.9l-.22.21-.49-.52.23-.21.48.52zM42.34 42.45l-.22.2-.48-.52.23-.21.47.53z"/><path class="cls-8" d="M42.26 42.52l-.23.21-.47-.53.23-.21.47.53zM37.41 47.72l-.19.24-.56-.43.19-.24.56.43zM45.08 40.23l-.24.18-.43-.57.25-.18.42.57zM41.14 43.56l-.22.22-.5-.51.23-.21.49.5z"/><path class="cls-8" d="M44.95 40.32l-.24.19-.43-.57.25-.18.42.56zM43.84 41.19l-.24.19-.44-.55.24-.2.44.56zM26.34 84.11l.09.32-.67.21-.1-.33.68-.2zM28.21 89.32l.14.31-5.38 2.38-.16-.35 5.4-2.34zM27.35 87.18l.12.31-.66.25-.12-.32.66-.24zM26.87 85.8l.11.32-.68.23-.1-.33.67-.22zM25.52 80.78l.07.33-.7.14-.07-.33.7-.14zM26.23 83.72l.09.32-.68.2-.09-.33.68-.19zM25.36 79.98l.06.33-.69.13-.07-.33.7-.13zM25.23 79.23l.06.34-.7.12-.06-.34.7-.12z"/><path class="cls-8" d="M25.25 79.36l.06.33-.7.12-.06-.34.7-.11zM27.29 87.02l.12.31-.66.25-.12-.32.66-.24zM24.75 75.34l.03.33-.71.06-.02-.34.7-.05zM25.57 81.03l.07.33-.69.15-.07-.33.69-.15z"/><path class="cls-8" d="M24.76 75.51l.03.34-.7.06-.03-.34.7-.06zM24.92 77.07l.04.34-.7.09-.04-.34.7-.09zM30.11 80.71c.1.42.2.83.31 1.24l-.69.17c-.11-.41-.21-.83-.3-1.25zM29.13 72.41v1.22h-.7v-1.24zM29.13 71.49v.69h-.71v-.7l.71.01zM29.21 69.4l-.03.43-.7-.04.02-.44.71.05zM30.16 63c-.12.51-.22 1-.32 1.53l-.7-.13q.15-.78.33-1.56zM31.93 57.31l-.08.21-.66-.26.08-.21.66.26zM29.63 78.22c.07.42.14.83.22 1.25l-.69.13c-.08-.42-.16-.84-.23-1.27z"/><path class="cls-8" d="M29.15 73.41c0 .4 0 .8.07 1.21h-.71q0-.61-.06-1.23zM29.25 68.8l-.05.68-.7-.04.05-.69.7.05zM29.91 64.1l-.08.43-.7-.13.09-.44.69.14zM31.35 58.86c-.17.49-.33 1-.49 1.49l-.67-.21c.15-.51.32-1 .49-1.51zM32.95 54.98l-.1.2-.64-.3.1-.21.64.31z"/><g class="cls-9"><path class="cls-10" d="M69.7 110.29a37.11 37.11 0 1126.24-10.87 36.87 36.87 0 01-26.24 10.87zm0-73.52a36.41 36.41 0 1036.4 36.4 36.44 36.44 0 00-36.4-36.4z"/></g><g class="cls-9"><path class="cls-10" d="M69.7 112.49A39.31 39.31 0 1197.5 101a39.09 39.09 0 01-27.8 11.49zm0-78a38.74 38.74 0 1038.73 38.73A38.78 38.78 0 0069.7 34.44z"/></g><g class="cls-9"><path class="cls-10" d="M69.7 114.7a41.52 41.52 0 1129.36-12.16A41.24 41.24 0 0169.7 114.7zm0-82.59a41.07 41.07 0 1041.06 41.06A41.11 41.11 0 0069.7 32.11z"/></g><g class="cls-9"><path class="cls-10" d="M69.7 116.9a43.74 43.74 0 1130.91-12.81A43.44 43.44 0 0169.7 116.9zm0-87.12a43.4 43.4 0 1043.39 43.39A43.45 43.45 0 0069.7 29.78z"/></g><g class="cls-9"><path class="cls-10" d="M69.7 119.1a45.92 45.92 0 1132.47-13.45A45.64 45.64 0 0169.7 119.1zm0-91.65a45.73 45.73 0 1045.72 45.72A45.77 45.77 0 0069.7 27.45z"/></g><g class="cls-9"><path class="cls-10" d="M69.7 121.3a48 48 0 1118.73-3.78 47.86 47.86 0 01-18.73 3.78zm0-96.18a48.06 48.06 0 1048.05 48.05A48.11 48.11 0 0069.7 25.12z"/></g><path d="M75.37 124.42a.4.4 0 01-.41.4.41.41 0 110-.81.41.41 0 01.41.41z" fill="#00c7fb"/><g style="mix-blend-mode:overlay"><path class="cls-13" d="M67.08 14.65a58.3 58.3 0 00-27.51 8.28l5.52 9.18a47.67 47.67 0 0122.46-6.76z"/><path class="cls-13" d="M37.2 18.26l-.33.19 5.52 9.18.27-.16-5.46-9.21zM39.16 17.14l-.66.36 5.25 9.34.55-.3-5.14-9.4zM37.09 15.82l-.67.39 2.18 3.72.63-.36-2.14-3.75zM41.44 23.97l-.13.08 8.89 15.34.09-.05-8.85-15.37zM43.19 23l-.13.07 8.35 15.65.08-.05L43.19 23zM44.99 22.09l-.14.07 7.78 15.93.09-.04-7.73-15.96zM46.81 21.25l-.14.06 7.21 16.21.09-.05-7.16-16.22zM48.66 20.47l-.14.05 6.63 16.46.09-.04-6.58-16.47zM50.54 19.76l-.14.05 6.03 16.68.09-.04-5.98-16.69zM52.44 19.11l-.14.05 5.43 16.88.1-.03-5.39-16.9zM54.36 18.54l-.14.04 4.83 17.06.1-.03-4.79-17.07zM56.31 18.03l-.15.03 4.22 17.23.1-.02-4.17-17.24zM58.27 17.59l-.15.03 3.6 17.37.11-.02-3.56-17.38zM60.24 17.22l-.15.03 2.99 17.48.1-.02-2.94-17.49zM62.22 16.92l-.14.02 2.36 17.58.11-.01-2.33-17.59zM64.22 16.7l-.15.01 1.74 17.65.11-.01-1.7-17.65zM66.22 16.54l-.15.01 1.12 17.7.1-.01-1.07-17.7zM39.14 14.7l-.69.36 2.05 3.8.64-.34-2-3.82zM41.23 13.65l-.7.34 1.91 3.87.65-.31-1.86-3.9zM43.35 12.68l-.71.32 1.78 3.93.66-.29-1.73-3.96zM45.51 11.79l-.72.29 1.63 3.99.67-.27-1.58-4.01zM47.7 10.97l-.73.26 1.49 4.05.68-.25-1.44-4.06zM49.92 10.23l-.74.23 1.34 4.1.69-.22-1.29-4.11zM52.16 9.57l-.74.21 1.19 4.14.7-.19-1.15-4.16zM54.43 8.99l-.76.18 1.05 4.18.7-.16-.99-4.2zM56.71 8.49l-.76.15.89 4.23.72-.15-.85-4.23zM59.01 8.07l-.77.13.75 4.25.71-.12-.69-4.26zM61.31 7.74l-.76.09.6 4.28.71-.09-.55-4.28zM63.64 7.48l-.77.07.44 4.3.72-.07-.39-4.3zM65.97 7.31l-.78.05.29 4.3.72-.04-.23-4.31zM41.16 16.09l-.67.34 4.91 9.52.56-.28-4.8-9.58zM43.2 15.12l-.68.31 4.57 9.69.56-.26-4.45-9.74zM45.27 14.21l-.69.29 4.22 9.85.58-.24-4.11-9.9zM47.37 13.38l-.7.27 3.87 9.99.58-.22-3.75-10.04zM49.5 12.63l-.71.24 3.51 10.12.6-.2-3.4-10.16zM51.66 11.95l-.72.22 3.15 10.24.6-.18-3.03-10.28zM53.84 11.35l-.73.19 2.78 10.35.61-.16-2.66-10.38zM56.04 10.83l-.74.17 2.42 10.43.61-.13-2.29-10.47zM58.25 10.39l-.73.14 2.03 10.51.61-.11-1.91-10.54zM60.48 10.03l-.74.11 1.66 10.58.62-.09-1.54-10.6zM62.72 9.74l-.74.08 1.29 10.64.61-.07-1.16-10.65zM64.97 9.53l-.75.06.91 10.68.63-.05-.79-10.69zM66.85 9.42l-.37.02.53 10.7.31-.01-.47-10.71z"/><path class="cls-13" d="M39.57 22.93a59.66 59.66 0 00-11.09 8.6L36 39.16a48.14 48.14 0 019.08-7z"/><path class="cls-13" d="M24.94 27.68l-.13.13 7.53 7.63.1-.11-7.5-7.65zM25.73 26.93l-.27.25 7.42 7.73.22-.21-7.37-7.77zM23.83 25.76l-.27.26 3.01 3.09.25-.25-2.99-3.1zM30.15 32.49l-.05.05 12.36 12.71.03-.03-12.34-12.73zM30.85 31.81l-.05.05 12.14 12.93.04-.03-12.13-12.95zM31.57 31.15l-.05.05 11.92 13.14.03-.04-11.9-13.15zM32.3 30.51l-.06.04 11.7 13.34.03-.04L32.3 30.51zM33.04 29.87l-.06.05 11.46 13.53.04-.03-11.44-13.55zM33.78 29.25l-.05.05 11.23 13.72.04-.03-11.22-13.74zM34.54 28.64l-.05.04 11 13.92.04-.03-10.99-13.93zM35.31 28.04l-.06.05 10.77 14.09.04-.02-10.75-14.12zM36.09 27.46l-.06.04 10.53 14.28.04-.03-10.51-14.29zM36.88 26.89l-.06.04L47.1 41.38l.05-.02-10.27-14.47zM37.68 26.34l-.06.04L47.66 41l.04-.03-10.02-14.63zM38.48 25.79l-.06.04 9.79 14.79.05-.03-9.78-14.8zM39.3 25.26l-.06.04 9.54 14.96.04-.03-9.52-14.97zM40.13 24.75l-.06.04 9.27 15.11.05-.03-9.26-15.12zM24.65 24.98l-.28.25 2.97 3.15.25-.25-2.94-3.15zM25.48 24.21l-.28.26 2.91 3.18.26-.23-2.89-3.21zM26.33 23.46l-.28.25 2.85 3.24.26-.23-2.83-3.26zM27.18 22.73l-.28.24 2.8 3.29.26-.23-2.78-3.3zM28.06 22.01l-.29.24 2.74 3.33.27-.22-2.72-3.35zM28.94 21.3l-.3.24 2.69 3.37.27-.21-2.66-3.4zM29.83 20.61l-.3.23 2.63 3.42.28-.21-2.61-3.44zM30.74 19.94l-.31.22L33 23.63l.29-.21-2.55-3.48zM31.65 19.28l-.3.22 2.51 3.51.28-.21-2.49-3.52zM32.58 18.64l-.31.21 2.45 3.55.29-.2-2.43-3.56zM33.52 18.01l-.31.2 2.39 3.6.29-.2-2.37-3.6zM34.47 17.39l-.31.21 2.32 3.63.3-.19-2.31-3.65zM35.43 16.8l-.32.2 2.27 3.67.3-.19-2.25-3.68zM26.53 26.18l-.27.24 7.28 7.86.23-.21-7.24-7.89zM27.34 25.45l-.27.24 7.15 7.98.22-.2-7.1-8.02zM28.16 24.73l-.27.24 7.01 8.09.23-.19-6.97-8.14zM29 24.02l-.28.23 6.87 8.22.24-.19L29 24.02zM29.85 23.34l-.28.22 6.73 8.33.23-.19-6.68-8.36zM30.71 22.66l-.29.22 6.6 8.45.23-.19-6.54-8.48zM31.58 22l-.29.22 6.44 8.55.25-.18-6.4-8.59zM32.46 21.36l-.3.21 6.31 8.66.24-.18-6.25-8.69zM33.35 20.73l-.3.2 6.16 8.77.25-.17-6.11-8.8zM34.26 20.11l-.31.2 6.01 8.87.25-.16-5.95-8.91zM35.17 19.51l-.31.2 5.86 8.97.25-.17-5.8-9zM36.09 18.92l-.31.2 5.71 9.07.25-.17-5.65-9.1zM36.87 18.45l-.15.09 5.54 9.17.13-.08-5.52-9.18zM28.48 31.53a58.35 58.35 0 00-9.77 12.77L28 49.58a47.29 47.29 0 018-10.42z"/><path class="cls-13" d="M14.26 41.54l-.11.18L23.48 47l.08-.15-9.3-5.31zM14.89 40.46l-.21.36 9.23 5.43.18-.3-9.2-5.49zM12.71 39.92l-.22.37 3.74 2.15.2-.35-3.72-2.17zM20.61 44.69l-.04.08 15.35 8.87.03-.05-15.34-8.9zM21.17 43.73l-.04.07 15.18 9.18.03-.05-15.17-9.2zM21.76 42.78l-.04.08 14.99 9.47.03-.05-14.98-9.5zM22.37 41.85l-.05.07 14.81 9.77.03-.05-14.79-9.79zM23 40.92l-.05.07 14.6 10.07.04-.05L23 40.92zM23.64 40.02l-.05.06 14.4 10.35.04-.05-14.39-10.36zM24.3 39.11l-.05.07 14.2 10.63.03-.04L24.3 39.11zM24.98 38.23l-.05.06 13.98 10.92.04-.05-13.97-10.93zM25.68 37.36l-.06.06 13.77 11.19.03-.05-13.74-11.2zM26.39 36.5l-.05.06 13.54 11.46.03-.04L26.39 36.5zM27.12 35.66l-.05.06 13.31 11.72.03-.04-13.29-11.74zM27.87 34.83l-.06.06 13.08 11.98.03-.04-13.05-12zM28.63 34.01l-.06.06 12.84 12.24.04-.04-12.82-12.26zM29.41 33.21l-.06.06 12.6 12.49.03-.04-12.57-12.51zM13.37 38.8l-.22.37 3.69 2.22.21-.34-3.68-2.25zM14.06 37.7l-.23.37 3.65 2.29.22-.34-3.64-2.32zM14.77 36.61l-.24.36 3.61 2.37.22-.33-3.59-2.4zM15.5 35.54l-.25.35 3.56 2.45.23-.34-3.54-2.46zM16.25 34.48l-.25.35 3.51 2.51.23-.33-3.49-2.53zM17.02 33.44l-.26.34 3.46 2.58.24-.32-3.44-2.6zM17.81 32.41l-.26.34 3.41 2.64.24-.31-3.39-2.67zM18.63 31.4l-.27.33 3.35 2.71.25-.31-3.33-2.73zM19.46 30.4l-.28.33 3.3 2.78.26-.31-3.28-2.8zM20.31 29.42l-.28.32 3.24 2.85.27-.31-3.23-2.86zM21.18 28.46l-.29.32 3.19 2.9.27-.29-3.17-2.93zM22.07 27.51l-.3.32 3.14 2.97.27-.3-3.11-2.99zM22.98 26.59l-.3.3 3.07 3.03.28-.28-3.05-3.05zM15.55 39.38l-.22.36 9.12 5.61.18-.29-9.08-5.68zM16.22 38.33l-.23.35 9.02 5.79.19-.29-8.98-5.85zM16.92 37.28l-.24.35 8.9 5.96.19-.28-8.85-6.03zM17.63 36.25l-.24.34 8.78 6.14.2-.28-8.74-6.2zM18.37 35.23l-.25.34 8.66 6.32.2-.28-8.61-6.38zM19.13 34.23l-.26.33 8.53 6.49.21-.27-8.48-6.55zM19.9 33.25l-.26.32 8.4 6.65.22-.27-8.36-6.7zM20.7 32.27l-.27.33 8.27 6.81.22-.26-8.22-6.88zM21.52 31.32l-.28.31 8.13 6.98.22-.26-8.07-7.03zM22.35 30.38l-.28.31 7.99 7.14.23-.26-7.94-7.19zM23.2 29.46l-.29.3 7.85 7.3.24-.26-7.8-7.34zM24.07 28.55l-.29.3 7.7 7.45.24-.25-7.65-7.5zM24.81 27.81l-.15.15 7.55 7.6.13-.12-7.53-7.63z"/><path class="cls-13" d="M18.71 44.3a58.68 58.68 0 00-2.92 51.86L25.64 92A47.93 47.93 0 0128 49.58z"/><path class="cls-13" d="M10.71 97.57l.27.65 9.86-4.21-.23-.54-9.9 4.1zM9.24 93.65c.15.44.3.88.46 1.32l10.07-3.66-.39-1.1zM7.93 96.41c.17.45.35.9.53 1.34l4-1.61c-.17-.41-.33-.83-.49-1.25zM16.74 93.61l.1.26 16.52-6.47-.07-.18-16.55 6.39zM15.52 90.09l.08.27 16.9-5.37-.05-.18-16.93 5.28zM14.53 86.5l.06.27 17.22-4.24-.04-.18-17.24 4.15zM13.77 82.85l.05.28 17.46-3.1-.03-.19-17.48 3.01zM13.27 79.17l.02.27 17.63-1.94-.02-.19-17.63 1.86zM13 75.45l.01.28 17.72-.78-.01-.19-17.72.69zM12.97 71.73l-.01.28 17.74.38v-.2l-17.73-.46zM13.19 68.02l-.03.27 17.67 1.54.02-.2-17.66-1.61zM13.65 64.33l-.04.27 17.53 2.68.03-.19-17.52-2.76zM14.35 60.67l-.06.28 17.32 3.81.04-.19-17.3-3.9zM15.29 57.07l-.08.27 17.03 4.94.06-.19-17.01-5.02zM16.46 53.54l-.1.26 16.68 6.04.06-.18-16.64-6.12zM17.85 50.09l-.11.25 16.24 7.13.08-.18-16.21-7.2zM19.48 46.74l-.13.24 15.74 8.18.09-.17-15.7-8.25zM6.54 92.3c.14.46.28.92.43 1.38l4.1-1.34c-.13-.43-.27-.86-.4-1.29zM5.42 88.12c.11.47.22.93.34 1.4l4.18-1.07c-.11-.43-.21-.87-.31-1.31zM4.59 83.87c.07.47.15.95.24 1.42l4.24-.79c-.08-.44-.15-.88-.23-1.32zM4 79.58c0 .47.09 1 .15 1.43l4.29-.51c-.06-.45-.11-.89-.15-1.34zM3.75 75.26l.06 1.44 4.31-.23-.06-1.34zM3.76 70.93v1.44l4.24.06v-1.34zM4.05 66.62c0 .48-.09 1-.13 1.43l4.3.34.12-1.34zM4.62 62.34c-.08.47-.15.94-.22 1.42l4.27.61c.06-.44.13-.88.21-1.33zM5.47 58.1c-.11.46-.21.93-.31 1.4l4.22.89c.09-.43.19-.87.29-1.31zM6.59 53.92c-.14.46-.27.92-.4 1.38l4.15 1.17c.12-.43.25-.86.38-1.29zM8 49.83c-.17.44-.34.9-.5 1.35l4.07 1.43c.15-.42.3-.84.46-1.26zM9.65 45.83c-.2.44-.4.88-.58 1.32l4 1.7c.18-.42.36-.83.55-1.23zM11.57 42c-.23.42-.45.84-.67 1.27l3.85 2c.2-.4.41-.8.62-1.19zM8 89.63c.12.46.25.9.38 1.35l10.29-3-.31-1.11zM7.08 85.56c.09.45.18.91.28 1.36l10.47-2.3-.24-1.13zM6.4 81.42c.07.46.13.92.2 1.38l10.59-1.6-.19-1.15zM6 77.26c0 .46.06.92.1 1.38l10.67-.91c0-.38-.06-.76-.08-1.15zM5.88 73.07v1.4l10.71-.21V73.1zM6 68.89c0 .47-.06.93-.08 1.39l10.71.49.06-1.15zM6.44 64.73c-.06.46-.11.92-.17 1.39l10.65 1.18.14-1.15zM7.13 60.61c-.13.45-.13.91-.26 1.39l10.55 1.87.21-1.13zM8.08 56.54c-.11.45-.23.9-.34 1.35l10.4 2.56.29-1.12zM9.3 52.54c-.15.44-.29.88-.43 1.32l10.21 3.23.36-1.1zM10.78 48.62l-.52 1.29 10 3.9.44-1.07zM12.52 44.81c-.21.42-.41.83-.61 1.25l9.71 4.55c.16-.35.33-.7.5-1zM14.15 41.73l-.34.6 9.39 5.18.28-.51-9.33-5.27z"/><path class="cls-13" d="M15.79 96.16A59 59 0 0032 118.07l6.89-8.2A48.43 48.43 0 0125.64 92zM28.39 121.84l.28.24 6.89-8.2-.23-.2-6.94 8.16z"/><path class="cls-13" d="M26.79 120.43l.53.48 7.12-8.01-.44-.4-7.21 7.93zM26.17 122.77l.56.49 2.81-3.28-.52-.45-2.85 3.24zM32.45 116l.11.09 11.62-13.4-.08-.06L32.45 116zM31.04 114.72l.1.1 12.07-13-.08-.07-12.09 12.97zM29.67 113.4l.09.1 12.5-12.58-.07-.07-12.52 12.55zM28.34 112.04l.1.1 12.9-12.16-.06-.08-12.94 12.14zM27.06 110.63l.09.1 13.31-11.72-.06-.08-13.34 11.7zM25.83 109.17l.09.11 13.69-11.27-.06-.08-13.72 11.24zM24.65 107.68l.09.12 14.05-10.82-.06-.08-14.08 10.78zM23.52 106.15l.08.12L38 95.92l-.05-.08-14.43 10.31zM22.44 104.59l.08.12 14.73-9.87-.05-.08-14.76 9.83zM21.41 102.98l.07.13 15.06-9.38-.05-.08-15.08 9.33zM20.43 101.35l.07.12 15.37-8.86-.05-.08-15.39 8.82zM19.52 99.68l.06.13 15.65-8.34-.04-.09-15.67 8.3zM18.65 97.98l.06.13 15.93-7.8-.04-.09-15.95 7.76zM17.84 96.25l.06.14 16.18-7.27-.04-.09-16.2 7.22zM24.53 121.28l.54.5 2.92-3.18-.5-.46-2.96 3.14zM22.94 119.74l.53.52 3.02-3.08-.48-.48-3.07 3.04zM21.41 118.14l.51.54 3.12-2.97-.47-.5-3.16 2.93zM19.93 116.5l.49.55 3.22-2.87-.45-.51-3.26 2.83zM18.51 114.81l.47.56 3.32-2.75-.44-.54-3.35 2.73zM17.15 113.07l.44.58L21 111l-.41-.54-3.44 2.61zM15.84 111.29l.43.6 3.5-2.53-.41-.56-3.52 2.49zM14.6 109.47l.4.61 3.58-2.42-.38-.57-3.6 2.38zM13.41 107.6l.39.62 3.65-2.29-.36-.58-3.68 2.25zM12.28 105.69l.37.64 3.73-2.17-.34-.6-3.76 2.13zM11.22 103.75l.35.64 3.8-2.04-.33-.6-3.82 2zM10.23 101.77l.32.66 3.86-1.92-.3-.62-3.88 1.88zM9.3 99.75l.3.67 3.93-1.78-.28-.63-3.95 1.74zM25.23 118.96l.51.49 7.38-7.75-.42-.42-7.47 7.68zM23.72 117.44l.49.51 7.64-7.51-.41-.42-7.72 7.42zM22.26 115.87l.48.53 7.89-7.25-.4-.44-7.97 7.16zM20.86 114.26l.46.54 8.12-6.98-.38-.45-8.2 6.89zM19.51 112.6l.44.56 8.36-6.71-.37-.47-8.43 6.62zM18.22 110.9l.42.57 8.57-6.43-.35-.48-8.64 6.34zM16.99 109.16l.4.58 8.77-6.14-.33-.49-8.84 6.05zM15.81 107.37l.38.6 8.98-5.85-.32-.5-9.04 5.75zM14.69 105.54l.36.62 9.17-5.55-.3-.51-9.23 5.44zM13.63 103.68l.35.63 9.34-5.24-.28-.51-9.41 5.12zM12.64 101.78l.32.64 9.52-4.92-.27-.53-9.57 4.81zM11.71 99.85l.3.65 9.68-4.6-.26-.53-9.72 4.48zM10.98 98.22l.14.32 9.83-4.26-.11-.27-9.86 4.21zM32 118.07a58.53 58.53 0 0020.36 11.09l3.15-10.24a47.69 47.69 0 01-16.62-9z"/><path class="cls-13" d="M50.56 134.06l.29.1L54 123.92l-.24-.08-3.2 10.22zM48.84 133.5l.57.19 3.39-10.16-.47-.16-3.49 10.13zM49.03 135.84l.59.19 1.32-4.11-.56-.18-1.35 4.1zM52.11 127.14l.12.03 5.44-16.88-.07-.02-5.49 16.87zM50.59 126.61l.11.05 5.92-16.72-.08-.03-5.95 16.7zM49.08 126.05l.11.04 6.4-16.54-.09-.03-6.42 16.53zM47.58 125.44l.11.05 6.86-16.35-.07-.03-6.9 16.33zM46.1 124.8l.11.05 7.33-16.16-.08-.03-7.36 16.14zM44.64 124.11l.11.05 7.79-15.94-.08-.03-7.82 15.92zM43.21 123.37l.1.06 8.24-15.71-.07-.04-8.27 15.69zM41.79 122.6l.11.06 8.68-15.47-.08-.04-8.71 15.45zM40.39 121.79l.11.06 9.12-15.21-.07-.04-9.16 15.19zM39.02 120.93l.11.07 9.55-14.94-.07-.05-9.59 14.92zM37.68 120.04l.1.07 9.97-14.66-.06-.05-10.01 14.64zM36.36 119.11l.1.07 10.39-14.37-.07-.05-10.42 14.35zM35.07 118.14l.09.08 10.8-14.07-.06-.05-10.83 14.04zM33.8 117.14l.09.08 11.2-13.76-.06-.05-11.23 13.73zM47.26 135.23l.59.21 1.42-4.08-.55-.19-1.46 4.06zM45.51 134.56l.58.23 1.54-4.03-.55-.21-1.57 4.01zM43.77 133.86l.57.24 1.66-3.99-.54-.22-1.69 3.97zM42.05 133.09l.57.26 1.77-3.93-.53-.25-1.81 3.92zM40.36 132.28l.56.28 1.88-3.88-.53-.26-1.91 3.86zM38.69 131.43l.55.29 1.99-3.83-.52-.28-2.02 3.82zM37.04 130.52l.55.31 2.1-3.77-.52-.29-2.13 3.75zM35.42 129.57l.54.32 2.2-3.71-.5-.3-2.24 3.69zM33.83 128.57l.53.34 2.31-3.65-.49-.31-2.35 3.62zM32.27 127.53l.51.35 2.42-3.58-.48-.33-2.45 3.56zM30.74 126.44l.5.37 2.52-3.51-.47-.34-2.55 3.48zM29.24 125.31l.49.38 2.62-3.43-.46-.36-2.65 3.41zM27.77 124.14l.48.39 2.71-3.36-.44-.37-2.75 3.34zM47.13 132.88l.57.21 3.68-10.06-.47-.17-3.78 10.02zM45.44 132.22l.56.22 3.97-9.95-.47-.19-4.06 9.92zM43.77 131.5l.55.25 4.26-9.84-.46-.2-4.35 9.79zM42.12 130.75l.55.25 4.53-9.7-.46-.22-4.62 9.67zM40.49 129.94l.54.27 4.81-9.57-.45-.23-4.9 9.53zM38.89 129.08l.53.29 5.08-9.43-.44-.24-5.17 9.38zM37.31 128.18l.53.31 5.34-9.29-.43-.25-5.44 9.23zM35.76 127.24l.51.32 5.61-9.13-.42-.26-5.7 9.07zM34.24 126.26l.5.33 5.87-8.97-.42-.27-5.95 8.91zM32.74 125.22l.49.35 6.12-8.79-.4-.29-6.21 8.73zM31.27 124.15l.49.36 6.37-8.61-.4-.3-6.46 8.55zM29.84 123.04l.47.37 6.62-8.43-.4-.31-6.69 8.37zM28.67 122.08l.23.19 6.86-8.24-.2-.15-6.89 8.2zM52.39 129.16a58.84 58.84 0 0031 1 57.86 57.86 0 0014.58-5.65 59.16 59.16 0 0012.56-9.28l-7.45-7.7a48.42 48.42 0 01-10.28 7.6 47.77 47.77 0 01-37.22 3.78z"/><path class="cls-13" d="M113.54 119.56l.59-.57-7.45-7.69-.49.46 7.35 7.8zM109.87 122.76c.42-.34.84-.68 1.25-1l-7-8.16c-.34.3-.69.58-1 .86zM113.18 122.79c.42-.36.84-.73 1.25-1.11l-2.93-3.18c-.38.36-.77.7-1.16 1zM107.52 115.48l.24-.22-11.88-13.16-.17.15 11.81 13.23zM104.18 118.24l.26-.2-10.86-14.02-.18.14 10.78 14.08zM100.64 120.74l.28-.18-9.78-14.8-.19.13 9.69 14.85zM96.92 122.97l.28-.16-8.61-15.5-.2.11 8.53 15.55zM93.04 124.91l.3-.14-7.4-16.11-.21.09 7.31 16.16zM89.02 126.55l.3-.12-6.13-16.63-.21.07 6.04 16.68zM84.89 127.86l.31-.08-4.84-17.07-.21.07 4.74 17.08zM80.67 128.87l.31-.07-3.51-17.38-.22.04 3.42 17.41zM76.38 129.53l.32-.03-2.18-17.61-.21.03 2.07 17.61zM72.05 129.88l.33-.01-.83-17.72h-.22l.72 17.73zM67.72 129.89l.32.01.53-17.73h-.23l-.62 17.72zM63.39 129.57l.33.04 1.87-17.64-.22-.02-1.98 17.62zM59.1 128.93l.32.06 3.21-17.45-.22-.04-3.31 17.43zM54.88 127.95l.31.09 4.53-17.15-.22-.06-4.62 17.12zM109.28 126c.44-.34.88-.67 1.32-1l-2.67-3.38-1.24 1zM105.14 128.82c.47-.29.94-.6 1.4-.91l-2.41-3.58-1.31.86zM100.79 131.37q.73-.39 1.47-.81l-2.13-3.75c-.46.26-.92.52-1.38.76zM96.25 133.59l1.53-.7-1.84-3.89-1.43.65zM91.55 135.44c.53-.18 1.06-.38 1.58-.58l-1.53-4c-.49.19-1 .37-1.48.54zM86.73 136.93c.54-.14 1.08-.29 1.61-.45l-1.22-4.14-1.5.42zM81.8 138q.83-.15 1.65-.33l-.9-4.21c-.51.11-1 .2-1.54.3zM76.81 138.78c.55-.06 1.11-.13 1.66-.21l-.57-4.27-1.55.19zM71.78 139.12c.56 0 1.12 0 1.67-.07l-.24-4.31c-.52 0-1 0-1.56.07zM66.74 139.09h1.68l.08-4.31-1.56-.05zM61.72 138.67c.55.07 1.11.13 1.67.18l.41-4.29-1.56-.17zM56.75 137.87l1.64.31.74-4.25-1.54-.29zM51.85 136.7l1.61.43 1.07-4.19c-.51-.12-1-.26-1.52-.4zM106 125.68c.45-.31.89-.62 1.32-.94l-6.32-8.65-1.1.78zM101.88 128.3l1.38-.84-5.64-9.11c-.38.24-.77.47-1.16.7zM97.57 130.6l1.45-.73-4.93-9.51-1.21.61zM93.1 132.57l1.5-.62-4.19-9.86-1.25.51zM88.49 134.18c.52-.16 1-.32 1.54-.5l-3.41-10.15-1.28.41zM83.77 135.44l1.58-.38-2.62-10.39-1.32.32zM79 136.33l1.61-.26-1.82-10.55-1.34.21zM74.12 136.85l1.62-.13-1-10.67-1.35.11zM69.25 137h1.62l-.19-10.72h-1.35zM64.38 136.77q.81.07 1.62.12l.62-10.7c-.45 0-.9 0-1.34-.09zM59.55 136.18c.53.09 1.06.17 1.6.24l1.43-10.62-1.33-.19zM54.77 135.23l1.58.35 2.23-10.47c-.44-.1-.88-.19-1.31-.3zM50.85 134.16l.77.23 3.03-10.28-.65-.19-3.15 10.24z"/><path class="cls-13" d="M110.49 115.24a58.05 58.05 0 006.22-7.08l-8.59-6.4a47.23 47.23 0 01-5.08 5.78z"/><path class="cls-13" d="M120.83 111.38l.08-.1-8.6-6.39-.06.08 8.58 6.41zM120.39 111.97l.14-.2-8.52-6.48-.13.16 8.51 6.52zM122.34 112.97l.15-.2-3.45-2.59-.15.19 3.45 2.6zM115.02 107.34l.03-.04-14.17-10.67-.02.03 14.16 10.68zM114.63 107.86l.02-.05-14.04-10.83-.02.03 14.04 10.85zM114.22 108.37l.03-.04-13.92-11-.01.03 13.9 11.01zM113.82 108.88l.03-.04-13.79-11.16-.02.03 13.78 11.17zM113.4 109.38l.04-.04-13.66-11.31-.03.03 13.65 11.32zM112.98 109.88l.04-.04-13.53-11.47-.03.03 13.52 11.48zM112.56 110.38l.03-.04L99.2 98.71l-.03.03 13.39 11.64zM112.13 110.87l.03-.04L98.9 99.05l-.02.02 13.25 11.8zM111.69 111.35l.03-.04L98.6 99.39l-.02.02 13.11 11.94zM111.25 111.83l.03-.04L98.3 99.71l-.02.03 12.97 12.09zM110.8 112.3l.04-.03-12.85-12.23-.02.02 12.83 12.24zM110.35 112.77l.03-.03-12.7-12.38-.02.03 12.69 12.38zM109.89 113.24l.03-.04-12.55-12.52-.03.02 12.55 12.54zM109.43 113.7l.03-.04L97.05 101l-.03.02 12.41 12.68zM121.87 113.57l.16-.19-3.43-2.63-.14.18 3.41 2.64zM121.41 114.17l.15-.2-3.39-2.66-.14.18 3.38 2.68zM120.93 114.76l.16-.19-3.36-2.71-.15.18 3.35 2.72zM120.45 115.35l.16-.19-3.33-2.75-.15.18 3.32 2.76zM119.96 115.93l.16-.19-3.29-2.79-.16.19 3.29 2.79zM119.46 116.51l.16-.19-3.26-2.83-.15.18 3.25 2.84zM118.96 117.08l.17-.19-3.23-2.86-.16.17 3.22 2.88zM118.45 117.64l.17-.19-3.2-2.89-.15.17 3.18 2.91zM117.93 118.2l.18-.19-3.17-2.93-.16.17 3.15 2.95zM117.41 118.75l.18-.19-3.13-2.97-.16.17 3.11 2.99zM116.89 119.29l.17-.18-3.09-3-.17.16 3.09 3.02zM116.35 119.83l.18-.18-3.06-3.04-.17.17 3.05 3.05zM115.81 120.36l.18-.17-3.02-3.08-.17.17 3.01 3.08zM119.94 112.55l.15-.19-8.45-6.58-.13.16 8.43 6.61zM119.48 113.12l.16-.19-8.38-6.68-.13.16 8.35 6.71zM119.02 113.69l.15-.19-8.3-6.77-.13.16 8.28 6.8zM118.55 114.26l.15-.19-8.22-6.87-.13.16 8.2 6.9zM118.07 114.82l.16-.19-8.14-6.96-.13.15 8.11 7zM117.59 115.37l.16-.18-8.06-7.06-.13.15 8.03 7.09zM117.1 115.92l.16-.19-7.97-7.15-.14.16 7.95 7.18zM116.61 116.46l.16-.18-7.9-7.24-.13.14 7.87 7.28zM116.11 116.99l.16-.17-7.81-7.34-.14.15 7.79 7.36zM115.6 117.52l.17-.17-7.73-7.42-.14.14 7.7 7.45zM115.09 118.05l.16-.18-7.63-7.51-.15.15 7.62 7.54zM114.57 118.56l.17-.17-7.55-7.59-.15.14 7.53 7.62zM114.13 118.99l.09-.08-7.47-7.69-.07.08 7.45 7.69z"/><path class="cls-13" d="M116.71 108.16a58.45 58.45 0 009.81-20.71l-10.39-2.6a47.9 47.9 0 01-8 16.91z"/><path class="cls-13" d="M131.52 89.01l.07-.29-10.39-2.6-.06.24 10.38 2.65zM131.05 90.74l.16-.57-10.32-2.85-.14.48 10.3 2.94zM133.37 90.43l.17-.6-4.18-1.08-.15.56 4.16 1.12zM124.52 87.82l.03-.11-17.15-4.53-.02.08 17.14 4.56zM124.09 89.36l.03-.12-17.02-5-.02.07 17.01 5.05zM123.61 90.88l.03-.11-16.86-5.48-.03.07 16.86 5.52zM123.09 92.39l.04-.11-16.7-5.95-.03.07 16.69 5.99zM122.53 93.88l.05-.11-16.53-6.42-.03.08 16.51 6.45zM121.94 95.36l.04-.11-16.35-6.89-.03.08 16.34 6.92zM121.29 96.82l.05-.11-16.15-7.34-.03.08 16.13 7.37zM120.61 98.26l.05-.1-15.94-7.8-.03.08 15.92 7.82zM119.88 99.68l.06-.1-15.71-8.24-.04.07 15.69 8.27zM119.12 101.09l.06-.11-15.47-8.68-.04.07 15.45 8.72zM118.31 102.46l.07-.1-15.22-9.11-.04.06 15.19 9.15zM117.47 103.82l.06-.1-14.95-9.54-.04.07 14.93 9.57zM116.59 105.15l.07-.1-14.68-9.96-.04.07 14.65 9.99zM115.67 106.46l.07-.1-14.38-10.37-.05.07 14.36 10.4zM132.87 92.22l.17-.6-4.14-1.2-.16.55 4.13 1.25zM132.31 93.98l.19-.59-4.11-1.31-.18.54 4.1 1.36zM131.7 95.73l.21-.58-4.07-1.43-.2.54 4.06 1.47zM131.05 97.47l.22-.58-4.03-1.55-.21.54 4.02 1.59zM130.34 99.18l.24-.57-3.98-1.66-.23.53 3.97 1.7zM129.59 100.88l.25-.57-3.93-1.76-.24.52 3.92 1.81zM128.78 102.55l.28-.55-3.89-1.89-.25.53 3.86 1.91zM127.93 104.2l.29-.54-3.82-1.99-.27.51 3.8 2.02zM127.04 105.83l.3-.54-3.77-2.1-.28.5 3.75 2.14zM126.1 107.43l.32-.53-3.71-2.2-.3.49 3.69 2.24zM125.11 109.01l.34-.53-3.65-2.3-.31.48 3.62 2.35zM124.08 110.55l.35-.51-3.58-2.41-.32.48 3.55 2.44zM123.01 112.07l.36-.51-3.51-2.5-.34.46 3.49 2.55zM130.53 92.46l.18-.57-10.24-3.13-.15.47 10.21 3.23zM129.97 94.16l.19-.56-10.15-3.42-.16.47 10.12 3.51zM129.36 95.85l.21-.56-10.05-3.7-.18.46 10.02 3.8zM128.7 97.51l.22-.55-9.94-3.98-.19.46 9.91 4.07zM127.99 99.16l.24-.54-9.83-4.26-.2.45 9.79 4.35zM127.24 100.8l.25-.54-9.7-4.54-.21.44 9.66 4.64zM126.44 102.4l.27-.53-9.57-4.81-.23.44 9.53 4.9zM125.6 103.99l.29-.53-9.44-5.08-.24.44 9.39 5.17zM124.71 105.55l.3-.52-9.29-5.34-.25.43 9.24 5.43zM123.78 107.08l.31-.5-9.13-5.61-.26.42 9.08 5.69zM122.81 108.59l.32-.5-8.97-5.86-.27.42 8.92 5.94zM121.78 110.07l.35-.49-8.8-6.11-.28.41 8.73 6.19zM120.91 111.28l.17-.24-8.62-6.36-.15.21 8.6 6.39z"/><path class="cls-13" d="M126.52 87.45a58.63 58.63 0 00-17.11-57.35l-7.26 7.9a47.88 47.88 0 0114 46.88z"/><path class="cls-13" d="M113.55 26.82l-.59-.56-7.27 7.87.49.46 7.37-7.77zM117 30.31c-.36-.4-.73-.8-1.1-1.19l-7.76 7.39.92 1zM116.81 27c-.39-.4-.78-.8-1.19-1.19l-3 3.1q.57.54 1.11 1.11zM109.82 33.06l-.23-.23-12.48 12.59.16.16 12.55-12.52zM112.77 36.25l-.21-.25-13.41 11.61.15.17 13.47-11.53zM115.47 39.65l-.2-.27-14.24 10.57.14.18 14.3-10.48zM117.9 43.24l-.17-.27-15.01 9.46.13.19 15.05-9.38zM120.06 47.02l-.16-.29-15.68 8.29.11.19 15.73-8.19zM121.92 50.95l-.14-.3-16.26 7.05.08.21 16.32-6.96zM123.46 55.01l-.1-.31-16.77 5.78.07.21 16.8-5.68zM124.69 59.18l-.08-.31-17.16 4.46.05.22 17.19-4.37zM125.6 63.43l-.05-.32-17.46 3.14.04.22 17.47-3.04zM126.19 67.74l-.04-.32-17.65 1.78.02.23 17.67-1.69zM126.43 72.08l-.01-.33-17.73.44.01.22 17.73-.33zM126.34 76.42l.02-.32-17.71-.92-.01.22 17.7 1.02zM125.93 80.75l.04-.33-17.59-2.26-.03.22 17.58 2.37zM125.19 85.03l.06-.32-17.36-3.6-.05.22 17.35 3.7zM120.21 30.74l-1.1-1.27-3.24 2.86c.35.39.69.78 1 1.18zM123.29 34.71c-.32-.45-.65-.9-1-1.34L118.86 36c.32.42.62.84.93 1.26zM126.08 38.92c-.29-.48-.59-1-.89-1.42l-3.63 2.33c.28.44.56.88.83 1.33zM128.54 43.33c-.25-.5-.52-1-.78-1.49L124 43.9c.25.46.5.92.74 1.39zM130.66 47.93c-.22-.52-.44-1-.67-1.55l-3.94 1.76c.22.48.42 1 .62 1.44zM132.41 52.67q-.25-.8-.54-1.59l-4.06 1.45.51 1.48zM133.8 57.54c-.13-.54-.27-1.09-.42-1.63L129.22 57c.14.5.26 1 .39 1.52zM134.81 62.5c-.09-.56-.19-1.11-.3-1.66l-4.23.8.27 1.55zM135.43 67.51c-.05-.56-.1-1.12-.17-1.67l-4.28.48q.09.78.15 1.56zM135.67 72.56v-1.68l-4.31.14v1.57zM135.52 77.6c0-.56.07-1.12.09-1.67l-4.31-.19c0 .53-.05 1.05-.08 1.57zM135 82.62c.08-.55.15-1.11.22-1.66l-4.28-.51-.22 1.55zM134.08 87.58c.12-.54.23-1.09.34-1.64l-4.23-.83c-.1.51-.21 1-.32 1.53zM120.1 34.05c-.33-.43-.67-.85-1-1.27l-8.29 6.78c.28.35.57.7.84 1zM123 38l-1-1.34-8.78 6.14c.26.37.51.74.76 1.12zM125.48 42.18q-.39-.7-.81-1.41l-9.22 5.45c.23.39.46.78.67 1.17zM127.69 46.54q-.33-.74-.69-1.47l-9.62 4.73c.2.4.4.81.58 1.22zM129.57 51.06c-.19-.51-.39-1-.58-1.52l-10 4c.16.42.33.84.48 1.27zM131.09 55.71c-.15-.52-.3-1-.47-1.56l-10.23 3.2q.21.65.39 1.29zM132.24 60.47c-.1-.54-.22-1.07-.34-1.59l-10.44 2.39c.1.44.2.88.28 1.32zM133 65.29c-.07-.54-.14-1.07-.22-1.61l-10.59 1.59.18 1.34zM133.44 70.16q0-.81-.09-1.62l-10.69.77c0 .45.06.9.08 1.35zM133.49 75v-1.62h-10.71v1.36zM133.15 79.91c.06-.53.11-1.07.15-1.61l-10.67-.86c0 .45-.08.89-.13 1.34zM132.46 84.74l.27-1.59-10.58-1.68c-.07.45-.15.89-.23 1.34zM131.59 88.72l.19-.78-10.42-2.48-.16.66 10.39 2.6zM109.41 30.1a58.2 58.2 0 00-19.63-12 58.88 58.88 0 00-22.7-3.49l.47 10.7a48.33 48.33 0 0118.57 2.89 47.8 47.8 0 0116 9.77z"/><path class="cls-13" d="M67.45 9.4l-.6.02.47 10.71.5-.02-.37-10.71zM71.04 9.38l-1.19-.02-.03 10.71.99.02.23-10.71zM69.21 7.21l-1.24.02.11 4.31 1.15-.02-.02-4.31zM68.86 16.44l-.24.01.32 17.73h.17l-.25-17.74zM72.06 16.49l-.25-.01-.67 17.72.17.01.75-17.72zM75.24 16.71l-.24-.02-1.66 17.65.17.02 1.73-17.65zM78.42 17.11l-.24-.03-2.65 17.54.16.02 2.73-17.53zM81.56 17.69l-.23-.04-3.63 17.36.16.03 3.7-17.35zM84.67 18.45l-.23-.06-4.6 17.13.16.04 4.67-17.11zM87.73 19.38l-.22-.08-5.56 16.85.16.05 5.62-16.82zM90.74 20.48l-.22-.09-6.5 16.51.16.05 6.56-16.47zM93.68 21.75l-.22-.11-7.42 16.12.15.07 7.49-16.08zM96.54 23.18l-.21-.11-8.31 15.66.14.08 8.38-15.63zM99.32 24.77l-.21-.13-9.18 15.17.13.09 9.26-15.13zM102 26.52l-.2-.14L91.77 41l.13.1L102 26.52zM104.58 28.41l-.19-.14-10.85 14.02.13.11 10.91-13.99zM107.05 30.45l-.18-.15-11.63 13.39.12.11 11.69-13.35zM72.92 7.29l-1.23-.05-.13 4.31 1.15.05.21-4.31zM76.63 7.57l-1.23-.11-.37 4.29 1.15.11.45-4.29zM80.31 8.07l-1.22-.19-.62 4.27 1.15.18.69-4.26zM83.96 8.77l-1.21-.26-.85 4.23 1.13.24.93-4.21zM87.56 9.67l-1.18-.32-1.1 4.17 1.12.31 1.16-4.16zM91.11 10.78c-.38-.14-.78-.27-1.17-.39l-1.32 4.1 1.1.37zM94.6 12.08l-1.15-.46-1.55 4.03 1.07.43 1.63-4zM98.01 13.58l-1.12-.52-1.78 3.93 1.05.49 1.85-3.9zM101.32 15.27l-1.09-.58-1.99 3.82 1.02.55 2.06-3.79zM104.54 17.14l-1.06-.64-2.2 3.71.99.6 2.27-3.67zM107.65 19.2l-1.02-.7-2.41 3.57.95.66 2.48-3.53zM110.64 21.43l-.98-.76-2.61 3.43.91.71 2.68-3.38zM113.49 23.83l-.93-.81-2.81 3.27.87.76 2.87-3.22zM74.64 9.56l-1.2-.09-.63 10.7.99.07.84-10.68zM78.21 9.93l-1.19-.14-1.23 10.64.99.12 1.43-10.62zM81.76 10.52l-1.18-.22-1.82 10.56.97.18 2.03-10.52zM85.27 11.29l-1.17-.28-2.41 10.44.97.23 2.61-10.39zM88.73 12.27l-1.15-.35-3 10.29.96.28 3.19-10.22zM92.13 13.43l-1.12-.41-3.57 10.1.93.34 3.76-10.03zM95.47 14.79l-1.11-.47-4.13 9.88.92.39 4.32-9.8zM98.71 16.33l-1.07-.53-4.68 9.63.89.45 4.86-9.55zM101.88 18.06l-1-.59-5.23 9.35.87.49zM104.94 19.96l-1.01-.65-5.74 9.04.83.54 5.92-8.93zM107.89 22.04l-.97-.71-6.25 8.7.8.59 6.42-8.58zM110.71 24.27l-.93-.76-6.73 8.33.77.64 6.89-8.21zM112.96 26.26l-.44-.41-7.19 7.94.36.34 7.27-7.87z"/></g></g></g></g></svg>