<svg xmlns="http://www.w3.org/2000/svg" viewBox="0 0 49.59 50"><defs><style>.cls-2{mix-blend-mode:screen}.cls-3{fill:#fff}</style></defs><g style="isolation:isolate"><g id="图层_2" data-name="图层 2"><g id="Elements"><g class="cls-2"><path class="cls-3" d="M23.79 0h2v6.4h-2z"/></g><path class="cls-3" transform="rotate(-20 17.331 4.518)" d="M16.34 1.31h2v6.4h-2z" opacity=".2"/><path class="cls-3" transform="rotate(-40 10.78 8.295)" d="M9.78 5.1h2v6.4h-2z" opacity=".25"/><path class="cls-3" transform="rotate(-60 5.915 14.096)" d="M4.91 10.9h2v6.4h-2z" opacity=".3"/><path class="cls-3" transform="rotate(-80 3.32 21.215)" d="M2.32 18.02h2v6.4h-2z" opacity=".35"/><path class="cls-3" transform="matrix(.98 -.17 .17 .98 -4.95 1.02)" d="M.13 27.79h6.4v2H.13z" opacity=".4"/><path class="cls-3" transform="rotate(-29.99 5.905 35.912)" d="M2.71 34.9h6.4v2h-6.4z" opacity=".45"/><path class="cls-3" transform="rotate(-50.01 10.778 41.703)" d="M7.58 40.7h6.4v2h-6.4z" opacity=".5"/><path class="cls-3" transform="rotate(-70.02 17.337 45.49)" d="M14.14 44.49h6.4v2h-6.4z" opacity=".55"/><path class="cls-3" d="M23.79 43.6h2V50h-2z" opacity=".6"/><path class="cls-3" transform="rotate(-20 32.242 45.478)" d="M31.25 42.29h2v6.4h-2z" opacity=".65"/><path class="cls-3" transform="rotate(-40 38.804 41.706)" d="M37.81 38.5h2v6.4h-2z" opacity=".7"/><path class="cls-3" transform="rotate(-60 43.673 35.896)" d="M42.67 32.7h2v6.4h-2z" opacity=".8"/><path class="cls-3" transform="rotate(-80 46.264 28.788)" d="M45.26 25.59h2v6.4h-2z" opacity=".85"/><path class="cls-3" transform="rotate(-10.01 46.24 21.194)" d="M43.07 20.21h6.4v2h-6.4z" opacity=".9"/><g class="cls-2"><path class="cls-3" transform="rotate(-29.99 43.678 14.1)" d="M40.48 13.1h6.4v2h-6.4z"/></g><g class="cls-2"><path class="cls-3" transform="rotate(-50.01 38.81 8.3)" d="M35.61 7.3h6.4v2h-6.4z"/></g><g class="cls-2"><path class="cls-3" transform="rotate(-69.98 32.251 4.513)" d="M29.05 3.51h6.4v2h-6.4z"/></g></g></g></g></svg>