<svg xmlns="http://www.w3.org/2000/svg" viewBox="0 0 194.64 245.49"><defs><style>.cls-1{fill:#dadada}</style></defs><g id="图层_2" data-name="图层 2"><g id="图层_2-2" data-name="图层 2"><path class="cls-1" d="M179.19 42.19L18.09 203.3M18.09 42.19l161.1 161.11M161.59 122.74H35.76M35.76 122.5h125.83v.49H35.76zM98.68 0v245.49M51.47 36.55l.69 1.19a95.12 95.12 0 0120.3-8l-.35-1.34a96.89 96.89 0 00-20.64 8.15zM73.31 215.32a95.43 95.43 0 01-19.53-7.38l-.69 1.19A96.25 96.25 0 0073 216.65zM31.44 52.67a96.46 96.46 0 0117.34-13l-.69-1.19A97 97 0 0030.46 51.7zM49.67 207.31l.69-1.2a95.63 95.63 0 01-17.14-12.3l-1 1a97.65 97.65 0 0017.45 12.5zM77.08 216.21l-.36 1.34a98.44 98.44 0 0021.08 2.19v-1.38a96.37 96.37 0 01-20.72-2.15zM101.67 26.57A96.61 96.61 0 01123 30l.36-1.34a98.07 98.07 0 00-21.67-3.43zM127.05 29.73l-.36 1.33a95.56 95.56 0 0119.63 8.84l.69-1.19a96.36 96.36 0 00-19.96-8.98zM167 54.52l-.9-.92a98.21 98.21 0 00-15.8-12.84l-.69 1.24a96.31 96.31 0 0115.55 12.63c.31.3.6.61.9.92zM76.22 28.81a96.32 96.32 0 0121.58-2.33V25.1a98.22 98.22 0 00-21.93 2.38zM30.4 191.16c-.31-.3-.62-.59-.92-.9a95.94 95.94 0 01-.8-134.87l-1-1a97.31 97.31 0 00.79 136.82l.92.9zM168.71 58.32a95.94 95.94 0 01-1.64 130l1 1a97.34 97.34 0 001.65-131.94zM122.13 215.12a96.66 96.66 0 01-20.46 3.14v1.38a97.59 97.59 0 0020.82-3.19zM164.35 191.06a96.14 96.14 0 01-16.28 12.81l.69 1.19a97.13 97.13 0 0016.56-13zM144.75 205.85a95.46 95.46 0 01-18.9 8.19l.36 1.33a96.18 96.18 0 0019.22-8.37z"/><path d="M107.13 138.4H88.89v-.08l-9.12-15.72v-.08l9.08-15.72h18.24l.05.08 9.07 15.72v.08zm-18.06-.31H107l9-15.49-9-15.49H89.07l-8.95 15.49z" fill="#0263b0"/><path class="cls-1" d="M98 172.31a49.71 49.71 0 1149.71-49.71A49.77 49.77 0 0198 172.31zm0-99.12a49.41 49.41 0 1049.41 49.41A49.46 49.46 0 0098 73.19z"/><path class="cls-1" d="M149.56 104.07l4-1.45a58.88 58.88 0 00-17.19-24.56l-2.72 3.25a54.49 54.49 0 0115.91 22.76zM47.24 141.31A54.08 54.08 0 0144 123.52h-4.21a58.46 58.46 0 003.47 19.24zM45.1 98.41l3.83 1.79a54.63 54.63 0 0110.14-14.94l-3-3A58.62 58.62 0 0045.1 98.41zM147.31 146.83a54.68 54.68 0 01-10.8 14.91l3 3a58.74 58.74 0 0011.65-16.11zM48.65 100.82L44.82 99a58.38 58.38 0 00-5 23.8H44a54.4 54.4 0 014.65-21.98zM47.47 142l-4 1.45a58.82 58.82 0 0016.93 24.1l2.72-3.25A54.42 54.42 0 0147.47 142zM152.87 123.52a54.07 54.07 0 01-5.26 22.69l3.84 1.79a58.33 58.33 0 005.65-24.48zM97.32 177.25a54.2 54.2 0 01-33.66-12.55l-2.72 3.24a58.4 58.4 0 0036.38 13.54zM136 162.22a54.26 54.26 0 01-37.57 15.05H98v4.23h.45A58.43 58.43 0 00139 165.21zM59.54 84.77a54.25 54.25 0 0137.78-16.35v-4.24a58.44 58.44 0 00-40.77 17.6zM149.78 104.71a54.13 54.13 0 013.1 18.12h4.23a58.46 58.46 0 00-3.35-19.57zM98 68.41h.45a54.22 54.22 0 0134.66 12.46l2.72-3.24a58.44 58.44 0 00-37.38-13.46H98z"/><path class="cls-1" d="M103.16 202.4a3.09 3.09 0 01-1.59-.43l-1.76-1a2 2 0 01-1-1.26 2.09 2.09 0 01.13-1.35 74.78 74.78 0 01-42.22-13.2l-3.44 3.44-16.41-16.49a3.15 3.15 0 01-.91-2l-.16-2a2 2 0 01.49-1.5 2.09 2.09 0 011.17-.68A74.8 74.8 0 0124.06 123c0-1.93.08-3.89.22-5.83L19.59 116l6-22.47a3.12 3.12 0 011.25-1.78l1.69-1.16a2.06 2.06 0 011.54-.33 2.17 2.17 0 011.17.67 75.42 75.42 0 016-10.42L33.82 77l.12-.12 16.33-16.31a3.15 3.15 0 012-.91l2-.16a2 2 0 011.5.49 2.09 2.09 0 01.68 1.17A74.48 74.48 0 0185.55 49v-4.83h23.26a3.1 3.1 0 012 .75l1.56 1.33a2 2 0 01.72 1.4 2.18 2.18 0 01-.35 1.31 74.86 74.86 0 0117.72 5.53l2.78-4 19.06 13.34a3.19 3.19 0 011.24 1.79l.51 2a2 2 0 01-.22 1.57 2.16 2.16 0 01-1 .87 75.28 75.28 0 0114.44 20.49L172 89.3l6 22.47a3.19 3.19 0 01-.2 2.17l-.88 1.85a2 2 0 01-1.18 1 2.08 2.08 0 01-1.35 0c.17 2.09.25 4.17.25 6.2a75.14 75.14 0 01-4.28 25.07l4.2 2.42-.08.15-11.55 20a3.18 3.18 0 01-1.67 1.39l-1.93.68a2 2 0 01-1.58-.08 2.15 2.15 0 01-1-1 75.41 75.41 0 01-31 21.84l.84 4.78h-.17l-22.74 4a3.39 3.39 0 01-.52.16zm-46.44-17.72l.12.08A74.5 74.5 0 0099.26 198h.31l-.17.26a1.77 1.77 0 00-.21 1.35 1.63 1.63 0 00.79 1l1.76 1a2.78 2.78 0 001.91.35l22.57-4-.83-4.72h.13a75.07 75.07 0 0031.17-22l.2-.24.1.3a1.74 1.74 0 00.89 1 1.68 1.68 0 001.32.07l1.92-.69a2.79 2.79 0 001.49-1.23l11.46-19.86-4.15-2.39.05-.13a74.74 74.74 0 004.31-25.07c0-2.11-.09-4.28-.28-6.45v-.31l.28.14a1.74 1.74 0 001.36.1 1.67 1.67 0 001-.88l.88-1.85a2.85 2.85 0 00.18-1.93l-5.94-22.14-4.68 1.32-.06-.13a75 75 0 00-14.63-20.72l-.22-.22.3-.07a1.78 1.78 0 001.11-.8 1.67 1.67 0 00.18-1.3l-.51-2a2.78 2.78 0 00-1.11-1.59L133.37 51l-2.75 3.92-.13-.06a74.59 74.59 0 00-18.05-5.62l-.3-.05.2-.23a1.7 1.7 0 00.44-1.29 1.66 1.66 0 00-.59-1.16l-1.56-1.33a2.82 2.82 0 00-1.82-.67H85.89v4.8h-.14A74 74 0 0056.43 61.6l-.26.18v-.31a1.81 1.81 0 00-.6-1.23 1.64 1.64 0 00-1.25-.4l-2 .16a2.8 2.8 0 00-1.76.81L34.3 77l3.4 3.4-.08.12a74.28 74.28 0 00-6.17 10.74l-.13.28-.17-.26a1.77 1.77 0 00-1.15-.73 1.69 1.69 0 00-1.28.27L27.06 92a2.8 2.8 0 00-1.12 1.58L20 115.7l4.65 1.3v.14c-.16 2-.24 4-.24 6A74.48 74.48 0 0037.9 166l.18.26h-.31a1.77 1.77 0 00-1.22.6 1.68 1.68 0 00-.41 1.25l.16 2a2.85 2.85 0 00.81 1.76l16.21 16.21zM99.34 197a73.91 73.91 0 1173.91-74 74 74 0 01-73.91 74zm0-147.48A73.57 73.57 0 10172.91 123a73.65 73.65 0 00-73.57-73.53z"/><path class="cls-1" d="M95.74 194.07a2.63 2.63 0 01-.49 0l-20.54-3.62.75-4.28a67.79 67.79 0 01-27.79-19.58 1.84 1.84 0 01-.86.86 1.77 1.77 0 01-1.41.08l-1.73-.61a2.88 2.88 0 01-1.5-1.25l-10.43-18.1 3.77-2.18a67.21 67.21 0 01-3.84-22.47c0-1.82.08-3.68.23-5.56a1.82 1.82 0 01-1.22 0 1.8 1.8 0 01-1.05-.94l-.79-1.66a2.82 2.82 0 01-.18-1.94l5.4-20.15 4.2 1.13a67.4 67.4 0 0113-18.37 1.88 1.88 0 01-.93-.78 1.78 1.78 0 01-.2-1.41l.46-1.77a2.75 2.75 0 011.11-1.6l17.08-12 2.5 3.56a67.4 67.4 0 0115.89-5 2 2 0 01-.32-1.17A1.85 1.85 0 0187.5 54l1.39-1.19a2.85 2.85 0 011.83-.67h20.86v4.35a66.63 66.63 0 0126.08 10.88 1.85 1.85 0 01.61-1 1.79 1.79 0 011.34-.44l1.83.15a2.8 2.8 0 011.77.81l14.75 14.75-3.08 3.08a67.74 67.74 0 015.37 9.35 1.92 1.92 0 011.06-.6 1.82 1.82 0 011.37.29l1.51 1a2.79 2.79 0 011.13 1.59l5.4 20.15-4.21 1.13c.13 1.75.2 3.5.2 5.23a67.08 67.08 0 01-12 38.44 1.94 1.94 0 011.06.61 1.82 1.82 0 01.43 1.35l-.14 1.83a2.92 2.92 0 01-.82 1.77l-14.75 14.74-3.08-3.08a67 67 0 01-37.85 11.83 1.89 1.89 0 01.11 1.22 1.81 1.81 0 01-.85 1.12l-1.58.93a2.8 2.8 0 01-1.5.45zm-20.68-3.91l20.24 3.57a2.54 2.54 0 001.71-.31l1.58-.93a1.49 1.49 0 00.71-.94 1.6 1.6 0 00-.19-1.21l-.15-.23h.28a66.87 66.87 0 0038-11.85l.11-.08 3 3L155 166.7a2.48 2.48 0 00.73-1.58l.14-1.83a1.46 1.46 0 00-.36-1.12 1.53 1.53 0 00-1.1-.53h-.27l.15-.22a66.73 66.73 0 0012.11-38.48c0-1.76-.07-3.55-.21-5.33v-.13h.12l4-1.09-5.31-19.9a2.53 2.53 0 00-1-1.42l-1.51-1a1.44 1.44 0 00-1.15-.25 1.58 1.58 0 00-1 .68l-.15.22-.12-.24a67.72 67.72 0 00-5.53-9.64l-.07-.1 3-3-14.53-14.61a2.53 2.53 0 00-1.57-.73l-1.83-.14a1.47 1.47 0 00-1.12.36 1.61 1.61 0 00-.54 1.1V68l-.23-.16a66.39 66.39 0 00-26.29-11h-.13v-4.3H90.67a2.56 2.56 0 00-1.63.6l-1.39 1.2a1.45 1.45 0 00-.54 1 1.56 1.56 0 00.39 1.15l.19.21h-.27a66.92 66.92 0 00-16.18 5l-.12.06-2.46-3.52-16.84 11.88a2.49 2.49 0 00-1 1.42l-.47 1.78a1.51 1.51 0 00.17 1.17 1.56 1.56 0 001 .71l.27.07-.2.19a67.23 67.23 0 00-13.11 18.59v.11l-4.15-1.11L29 112.9a2.46 2.46 0 00.16 1.73l.79 1.65a1.46 1.46 0 00.87.79A1.57 1.57 0 0032 117l.25-.13v.28c-.17 1.94-.25 3.89-.25 5.78a67 67 0 003.86 22.49v.12l-.11.06-3.61 2.09 10.28 17.8a2.55 2.55 0 001.33 1.11l1.73.61a1.48 1.48 0 001.18-.06 1.6 1.6 0 00.8-.93l.09-.26.17.21a67.54 67.54 0 0027.95 19.73h.12zm24.1-1a66.27 66.27 0 1166.27-66.27 66.34 66.34 0 01-66.27 66.3zm0-132.16a66 66 0 1066 66 66 66 0 00-66-66zM97.62 31.5h.76v4.3h-.76z"/><path class="cls-1" transform="rotate(-3.01 93.192 33.68)" d="M93 31.62h.76v4.3H93z"/><path class="cls-1" transform="rotate(-6.01 88.754 34.076)" d="M88.38 31.98h.76v4.3h-.76z"/><path class="cls-1" transform="matrix(.99 -.16 .16 .99 -4.4 13.6)" d="M83.8 32.59h.76v4.3h-.76z"/><path class="cls-1" transform="rotate(-11.99 79.681 35.613)" d="M79.25 33.43h.76v4.3h-.76z"/><path class="cls-1" transform="rotate(-14.99 75.128 36.677)" d="M74.75 34.51h.76v4.3h-.76z"/><path class="cls-1" transform="rotate(-18.2 70.32 38.02)" d="M70.31 35.82h.76v4.3h-.76z"/><path class="cls-1" transform="rotate(-20.99 66.349 39.538)" d="M65.95 37.37h.76v4.3h-.76z"/><path class="cls-1" transform="rotate(-24.01 62.05 41.285)" d="M61.67 39.14h.76v4.3h-.76z"/><path class="cls-1" transform="rotate(-26.99 57.896 43.288)" d="M57.5 41.13h.76v4.3h-.76z"/><path class="cls-1" transform="rotate(-30 53.809 45.498)" d="M53.43 43.34h.76v4.3h-.76z"/><path class="cls-1" transform="rotate(-33.01 49.866 47.908)" d="M49.48 45.76h.76v4.3h-.76z"/><path class="cls-1" transform="rotate(-35.99 46.058 50.526)" d="M45.67 48.38h.76v4.3h-.76z"/><path class="cls-1" transform="rotate(-38.99 42.381 53.355)" d="M42 51.2h.76v4.3H42z"/><path class="cls-1" transform="rotate(-42 38.862 56.36)" d="M38.48 54.2h.76v4.3h-.76z"/><path class="cls-1" transform="rotate(-44.99 35.5 59.54)" d="M35.12 57.39h.76v4.3h-.76z"/><path class="cls-1" transform="rotate(-48 32.309 62.895)" d="M31.94 60.74h.76v4.3h-.76z"/><path class="cls-1" transform="rotate(-51 29.313 66.417)" d="M28.93 64.26h.76v4.3h-.76z"/><path class="cls-1" transform="rotate(-53.8 26.68 70.023)" d="M26.11 67.93h.76v4.3h-.76z"/><path class="cls-1" transform="rotate(-57.01 23.868 73.897)" d="M23.49 71.75h.76v4.3h-.76z"/><path class="cls-1" transform="rotate(-60 21.451 77.845)" d="M21.07 75.69h.76v4.3h-.76z"/><path class="cls-1" transform="rotate(-63.01 19.24 81.91)" d="M18.87 79.76h.76v4.3h-.76z"/><path class="cls-1" transform="rotate(-66 17.25 86.086)" d="M16.87 83.94h.76v4.3h-.76z"/><path class="cls-1" transform="rotate(-68.99 15.493 90.366)" d="M15.1 88.21h.76v4.3h-.76z"/><path class="cls-1" transform="rotate(-72 13.938 94.727)" d="M13.56 92.57h.76v4.3h-.76z"/><path class="cls-1" transform="rotate(-74.99 12.63 99.163)" d="M12.24 97.01H13v4.3h-.76z"/><path class="cls-1" d="M9.36 103.59l4.21.89.16-.74-4.21-.9-.16.75z"/><path class="cls-1" transform="rotate(-80.8 10.86 108.084)" d="M10.32 106.06h.76v4.3h-.76z"/><path class="cls-1" transform="rotate(-83.99 10.102 112.804)" d="M9.72 110.65h.76v4.3h-.76z"/><path class="cls-1" transform="rotate(-86.99 9.74 117.42)" d="M9.35 115.26h.76v4.3h-.76z"/><path class="cls-1" d="M7.46 121.66h4.3v.76h-4.3z"/><path class="cls-1" transform="rotate(-3.01 9.626 126.514)" d="M7.58 126.28h4.3v.76h-4.3z"/><path class="cls-1" transform="rotate(-6 10.057 131.21)" d="M7.95 130.9h4.3v.76h-4.3z"/><path class="cls-1" transform="rotate(-9 10.723 135.853)" d="M8.55 135.49h4.3v.76h-4.3z"/><path class="cls-1" transform="rotate(-12.01 11.525 140.34)" d="M9.39 140.04h4.3v.76h-4.3z"/><path class="cls-1" transform="rotate(-15.01 12.615 144.873)" d="M10.47 144.54h4.3v.76h-4.3z"/><path class="cls-1" transform="rotate(-18 13.948 149.353)" d="M11.79 148.97h4.3v.76h-4.3z"/><path class="cls-1" transform="rotate(-20.99 15.49 153.733)" d="M13.33 153.34h4.3v.76h-4.3z"/><path class="cls-1" transform="rotate(-24 17.256 158.018)" d="M15.11 157.61h4.3v.76h-4.3z"/><path class="cls-1" transform="rotate(-26.99 19.248 162.188)" d="M17.1 161.79h4.3v.76h-4.3z"/><path class="cls-1" transform="rotate(-30.01 21.446 166.22)" d="M19.31 165.85h4.3v.76h-4.3z"/><path class="cls-1" transform="rotate(-33 23.875 170.19)" d="M21.72 169.8h4.3v.76h-4.3z"/><path class="cls-1" transform="rotate(-36 26.5 174.011)" d="M24.34 173.61h4.3v.76h-4.3z"/><path class="cls-1" transform="rotate(-39 29.315 177.657)" d="M27.16 177.28h4.3v.76h-4.3z"/><path class="cls-1" transform="rotate(-42 32.324 181.194)" d="M30.17 180.8h4.3v.76h-4.3z"/><path class="cls-1" transform="rotate(-45 35.498 184.536)" d="M33.35 184.16h4.3v.76h-4.3z"/><path class="cls-1" transform="rotate(-48.01 38.852 187.713)" d="M36.71 187.35h4.3v.76h-4.3z"/><path class="cls-1" transform="rotate(-51 42.383 190.737)" d="M40.23 190.35h4.3v.76h-4.3z"/><path class="cls-1" transform="rotate(-54 46.057 193.562)" d="M43.9 193.17h4.3v.76h-4.3z"/><path class="cls-1" transform="rotate(-56.99 49.876 196.183)" d="M47.71 195.79h4.3v.76h-4.3z"/><path class="cls-1" transform="rotate(-60.01 53.805 198.578)" d="M51.66 198.21h4.3v.76h-4.3z"/><path class="cls-1" transform="rotate(-63.01 57.871 200.785)" d="M55.73 200.42h4.3v.76h-4.3z"/><path class="cls-1" transform="rotate(-66 62.043 202.779)" d="M59.9 202.41h4.3v.76h-4.3z"/><path class="cls-1" transform="rotate(-68.99 66.339 204.564)" d="M64.18 204.18h4.3v.76h-4.3z"/><path class="cls-1" transform="rotate(-72 70.687 206.101)" d="M68.54 205.72h4.3v.76h-4.3z"/><path class="cls-1" transform="rotate(-75.01 75.111 207.412)" d="M72.98 207.04h4.3v.76h-4.3z"/><path class="cls-1" transform="rotate(-78 79.636 208.505)" d="M77.48 208.12h4.3v.76h-4.3z"/><path class="cls-1" transform="rotate(-81 84.172 209.342)" d="M82.03 208.96h4.3v.76h-4.3z"/><path class="cls-1" transform="rotate(-84.01 88.754 209.938)" d="M86.61 209.57h4.3v.76h-4.3z"/><path class="cls-1" transform="rotate(-86.99 93.388 210.314)" d="M91.23 209.93h4.3v.76h-4.3z"/><path class="cls-1" d="M97.62 208.28h.76v4.3h-.76z"/><path class="cls-1" transform="rotate(-3.01 102.46 210.08)" d="M102.25 208.16h.76v4.3h-.76z"/><path class="cls-1" transform="rotate(-6 107.151 209.866)" d="M106.86 207.8h.76v4.3h-.76z"/><path class="cls-1" transform="rotate(-9 111.822 209.332)" d="M111.45 207.19h.76v4.3h-.76z"/><path class="cls-1" transform="rotate(-11.99 116.399 208.526)" d="M116 206.35h.76v4.3H116z"/><path class="cls-1" transform="rotate(-15.01 120.836 207.357)" d="M120.5 205.27h.76v4.3h-.76z"/><path class="cls-1" transform="rotate(-18 125.312 206.083)" d="M124.94 203.95h.76v4.3h-.76z"/><path class="cls-1" transform="rotate(-21 129.704 204.58)" d="M129.3 202.41h.76v4.3h-.76z"/><path class="cls-1" transform="rotate(-24 133.982 202.818)" d="M133.58 200.64h.76v4.3h-.76z"/><path class="cls-1" transform="rotate(-27 138.1 200.78)" d="M137.75 198.65h.76v4.3h-.76z"/><path class="cls-1" transform="rotate(-29.99 142.222 198.603)" d="M141.82 196.44h.76v4.3h-.76z"/><path class="cls-1" transform="rotate(-32.99 146.171 196.179)" d="M145.76 194.02h.76v4.3h-.76z"/><path class="cls-1" transform="rotate(-35.99 149.934 193.535)" d="M149.58 191.4h.76v4.3h-.76z"/><path class="cls-1" transform="rotate(-39 153.621 190.722)" d="M153.25 188.58h.76v4.3h-.76z"/><path class="cls-1" transform="rotate(-42 157.172 187.737)" d="M156.77 185.58h.76v4.3h-.76z"/><path class="cls-1" transform="rotate(-45.01 160.497 184.534)" d="M160.12 182.39h.76v4.3h-.76z"/><path class="cls-1" transform="rotate(-48.01 163.67 181.18)" d="M163.31 179.03h.76v4.3h-.76z"/><path class="cls-1" transform="rotate(-51.01 166.688 177.664)" d="M166.32 175.52h.76v4.3h-.76z"/><path class="cls-1" transform="rotate(-54 169.5 173.99)" d="M169.13 171.84h.76v4.3h-.76z"/><path class="cls-1" transform="rotate(-57 172.138 170.18)" d="M171.75 168.03h.76v4.3h-.76z"/><path class="cls-1" transform="rotate(-59.99 174.557 166.239)" d="M174.17 164.08h.76v4.3h-.76z"/><path class="cls-1" transform="rotate(-63.01 176.764 162.164)" d="M176.38 160.02h.76v4.3h-.76z"/><path class="cls-1" transform="rotate(-66 178.735 157.986)" d="M178.37 155.84h.76v4.3h-.76z"/><path class="cls-1" transform="rotate(-69 180.52 153.717)" d="M180.14 151.57h.76v4.3h-.76z"/><path class="cls-1" transform="rotate(-72 182.062 149.351)" d="M181.69 147.2h.76v4.3h-.76z"/><path class="cls-1" transform="matrix(.26 -.97 .97 .26 -4.05 284.55)" d="M183 142.77h.76v4.3H183z"/><path class="cls-1" transform="rotate(-78 184.476 140.42)" d="M184.08 138.27h.76v4.3h-.76z"/><path class="cls-1" transform="matrix(.16 -.99 .99 .16 22.12 297.63)" d="M184.93 133.72h.76v4.3h-.76z"/><path class="cls-1" transform="rotate(-83.99 185.92 131.276)" d="M185.53 129.13h.76v4.3h-.76z"/><path class="cls-1" transform="rotate(-86.99 186.288 126.66)" d="M185.89 124.52h.76v4.3h-.76z"/><path class="cls-1" d="M184.24 121.66h4.3v.76h-4.3z"/><path class="cls-1" transform="rotate(-3.01 186.025 117.247)" d="M184.12 117.03h4.3v.76h-4.3z"/><path class="cls-1" transform="rotate(-5.99 186.037 112.843)" d="M183.76 112.42h4.3v.76h-4.3z"/><path class="cls-1" transform="rotate(-9 185.301 108.233)" d="M183.16 107.83h4.3v.76h-4.3z"/><path class="cls-1" transform="rotate(-11.99 184.501 103.663)" d="M182.31 103.28h4.3v.76h-4.3z"/><path class="cls-1" transform="rotate(-15.01 183.396 99.145)" d="M181.23 98.78h4.3v.76h-4.3z"/><path class="cls-1" transform="rotate(-18.01 182.086 94.74)" d="M179.92 94.34h4.3v.76h-4.3z"/><path class="cls-1" transform="rotate(-20.99 180.548 90.37)" d="M178.37 89.98h4.3v.76h-4.3z"/><path class="cls-1" transform="rotate(-24 178.782 86.091)" d="M176.6 85.71h4.3v.76h-4.3z"/><path class="cls-1" transform="rotate(-26.99 176.8 81.915)" d="M174.61 81.53h4.3v.76h-4.3z"/><path class="cls-1" transform="rotate(-30 174.56 77.853)" d="M172.4 77.46h4.3v.76h-4.3z"/><path class="cls-1" transform="rotate(-33 172.128 73.9)" d="M169.98 73.52h4.3v.76h-4.3z"/><path class="cls-1" transform="rotate(-35.99 169.546 70.082)" d="M167.36 69.7h4.3v.76h-4.3z"/><path class="cls-1" transform="rotate(-38.99 166.686 66.417)" d="M164.55 66.03h4.3v.76h-4.3z"/><path class="cls-1" d="M165.03 61.17l-3.19 2.88.51.56 3.19-2.87-.51-.57z"/><path class="cls-1" transform="rotate(-45 160.501 59.538)" d="M158.36 59.16h4.3v.76h-4.3z"/><path class="cls-1" d="M158.31 54.5l-2.88 3.2.56.5 2.88-3.19-.56-.51z"/><path class="cls-1" transform="rotate(-51.01 153.626 53.35)" d="M151.48 52.97h4.3v.76h-4.3z"/><path class="cls-1" transform="rotate(-54 149.948 50.531)" d="M147.81 50.15h4.3v.76h-4.3z"/><path class="cls-1" transform="rotate(-57.3 145.439 48.264)" d="M143.99 47.53h4.3v.76h-4.3z"/><path class="cls-1" transform="rotate(-60 142.194 45.492)" d="M140.05 45.11h4.3v.76h-4.3z"/><path class="cls-1" transform="rotate(-63.01 138.137 43.28)" d="M135.98 42.9h4.3v.76h-4.3z"/><path class="cls-1" transform="rotate(-66 133.942 41.293)" d="M131.81 40.91h4.3v.76h-4.3z"/><path class="cls-1" transform="rotate(-68.99 129.684 39.515)" d="M127.53 39.14h4.3v.76h-4.3z"/><path class="cls-1" transform="rotate(-72 125.312 37.977)" d="M123.17 37.59h4.3v.76h-4.3z"/><path class="cls-1" transform="rotate(-74.99 120.889 36.66)" d="M118.73 36.28h4.3v.76h-4.3z"/><path class="cls-1" transform="rotate(-78 116.385 35.575)" d="M114.23 35.2h4.3v.76h-4.3z"/><path class="cls-1" transform="rotate(-81 111.834 34.737)" d="M109.68 34.36h4.3v.76h-4.3z"/><path class="cls-1" transform="rotate(-84.01 107.236 34.132)" d="M105.09 33.75h4.3v.76h-4.3z"/><path class="cls-1" transform="rotate(-86.99 102.639 33.766)" d="M100.48 33.39h4.3v.76h-4.3z"/></g></g></svg>