<svg xmlns="http://www.w3.org/2000/svg" viewBox="0 0 30.34 30.34"><defs><style>.cls-1{fill:#69bffe}</style></defs><g id="图层_2" data-name="图层 2"><g id="央铋_1" data-name="央铋 1"><path class="cls-1" d="M15.17 29.6A14.43 14.43 0 1129.6 15.17 14.45 14.45 0 0115.17 29.6zm0-28.44a14 14 0 1014 14 14 14 0 00-14-14z"/><path class="cls-1" d="M14.9 0h.55v1.9h-.55z"/><path class="cls-1" transform="rotate(-45 5.12 5.12)" d="M4.84 4.17h.55v1.9h-.55z"/><path class="cls-1" d="M0 14.9h1.9v.55H0z"/><path class="cls-1" transform="rotate(-45 5.12 25.23)" d="M4.17 24.95h1.9v.55h-1.9z"/><path class="cls-1" d="M14.9 28.44h.55v1.9h-.55z"/><path class="cls-1" transform="rotate(-45 25.218 25.224)" d="M24.95 24.28h.55v1.9h-.55z"/><path class="cls-1" d="M28.44 14.9h1.9v.55h-1.9z"/><path class="cls-1" transform="rotate(-44.99 25.224 5.113)" d="M24.28 4.84h1.9v.55h-1.9z"/><path class="cls-1" d="M14.35 27.31a11.34 11.34 0 01-1.64-.22l.08-.4a10.65 10.65 0 001.59.21zm1.66 0v-.41a11.93 11.93 0 001.59-.22l.09.41a13.08 13.08 0 01-1.69.22zm-4.9-.66A13.83 13.83 0 019.58 26l.19-.37a13.61 13.61 0 001.47.64zm8.15 0l-.14-.39a11.89 11.89 0 001.47-.64l.19.37a13.68 13.68 0 01-1.52.65zm-11.1-1.53a14.31 14.31 0 01-1.29-1l.29-.31a11 11 0 001.24 1zm14 0l-.16-.35a10.73 10.73 0 001.24-1l.28.3a11.82 11.82 0 01-1.33 1.04zM5.74 22.86a11.76 11.76 0 01-1-1.35l.35-.21a11.83 11.83 0 00.93 1.3zm18.87 0l-.31-.26a14.7 14.7 0 00.92-1.31l.35.21a11.52 11.52 0 01-.96 1.35zM4 20a12.62 12.62 0 01-.56-1.56l.4-.12a12.26 12.26 0 00.54 1.51zm22.33 0l-.33-.15a12.88 12.88 0 00.54-1.51l.39.11a12.71 12.71 0 01-.59 1.55zM3.11 16.85A13 13 0 013 15.19h.41a12.05 12.05 0 00.11 1.6zm24.12 0l-.41-.06a12.29 12.29 0 00.11-1.6H27.34a13.26 13.26 0 01-.11 1.64zM3.52 13.59l-.41-.05a11.21 11.21 0 01.33-1.63l.4.11a12.14 12.14 0 00-.32 1.57zm23.29-.06a10.43 10.43 0 00-.33-1.53l.4-.12a11.23 11.23 0 01.34 1.63zm-22.44-3L4 10.34a12.1 12.1 0 01.77-1.47l.35.21a11.39 11.39 0 00-.75 1.43zm21.57-.06A10.62 10.62 0 0025.2 9l.35-.22a11.41 11.41 0 01.77 1.47zM6 7.77l-.32-.26a13.06 13.06 0 011.16-1.22l.28.31A13.47 13.47 0 006 7.77zm18.24 0a12.18 12.18 0 00-1.1-1.17l.28-.3a11.9 11.9 0 011.14 1.21zM8.37 5.58l-.24-.34a11.3 11.3 0 011.41-.86l.19.36a11.83 11.83 0 00-1.36.84zm13.55 0a12.8 12.8 0 00-1.37-.83l.19-.36a12.69 12.69 0 011.42.85zM11.2 4.1l-.14-.39a11.19 11.19 0 011.6-.45l.09.4a11.47 11.47 0 00-1.55.44zm7.88 0a12.31 12.31 0 00-1.55-.43l.08-.41a12.66 12.66 0 011.6.45zm-4.75-.64v-.41A11.36 11.36 0 0116 3v.41a12.36 12.36 0 00-1.67.03zM11 6.23l-.18-.37a10.24 10.24 0 014.33-1v.41a9.7 9.7 0 00-4.15.96zM8.33 8.08L8 7.78c.2-.19.41-.37.62-.54l.26.31c-.17.17-.36.35-.55.53zM5.32 15.17H4.9a10.25 10.25 0 012.33-6.5l.32.26a9.85 9.85 0 00-2.23 6.24zM6.44 20.58a9.75 9.75 0 01-.49-.9l.37-.18c.14.29.3.58.47.86zM15.17 25.44a10.2 10.2 0 01-5.74-1.76l.23-.34A9.82 9.82 0 0015.17 25zM18.67 24.82l-.14-.38a10.25 10.25 0 001-.44l.19.37a9.91 9.91 0 01-1.05.45zM20.8 23.76l-.23-.35a9.81 9.81 0 003.75-4.57l.38.15a10.18 10.18 0 01-3.9 4.77zM25.38 16.22h-.41a8.44 8.44 0 00.05-1 9.65 9.65 0 00-.91-4.22l.38-.18a10.19 10.19 0 011 4.32 9.24 9.24 0 01-.11 1.08zM23.29 9.58a10 10 0 00-3.29-3l.2-.36a10.28 10.28 0 013.43 3.13zM17.9 5.7a10 10 0 00-2.73-.38v-.41A10.41 10.41 0 0118 5.3z"/></g></g></svg>