<svg xmlns="http://www.w3.org/2000/svg" viewBox="0 0 282.6 332.92"><defs><style>.cls-1{fill:#0ff}.cls-2{opacity:.35}</style></defs><g id="图层_2" data-name="图层 2"><g id="Layer_1" data-name="Layer 1"><path class="cls-1" d="M68.93 208.94a70.93 70.93 0 0115.22-77.84l1.41 1.41a69 69 0 00-14.78 75.65zM134.35 252.3a70.82 70.82 0 01-50.2-20.79l1.41-1.42a69.09 69.09 0 0075.65 14.79l.78 1.84a70.41 70.41 0 01-27.64 5.58zM184.56 231.51l-1.42-1.42a69 69 0 00-75.64-112.37l-.78-1.84a71 71 0 0177.84 115.63z"/><path class="cls-1" d="M134.35 270.63a89.33 89.33 0 1189.33-89.33 89.43 89.43 0 01-89.33 89.33zm0-169.66a80.33 80.33 0 1080.33 80.33 80.43 80.43 0 00-80.33-80.3z"/><path class="cls-1" d="M134.35 305.86A124.56 124.56 0 11258.91 181.3a124.7 124.7 0 01-124.56 124.56zm0-247.11A122.56 122.56 0 10256.91 181.3 122.69 122.69 0 00134.35 58.75z"/><g class="cls-2"><path class="cls-1" d="M134.35 332.92a151.52 151.52 0 01-129.78-73.2l-.19-.31 4.09-28.63 2 .29L6.46 259a148.64 148.64 0 00127.89 71.93 150.42 150.42 0 0028.93-2.8l23.29-24 1.44 1.39L164.28 330H164a152.7 152.7 0 01-29.65 2.92z"/></g><g class="cls-2"><path class="cls-1" d="M268.52 165.71l-1.52-1.25 13.48-17c-15.79-68.35-75.8-116.07-146.13-116.07a149.81 149.81 0 00-98.29 36.72L23.9 106.49l-1.9-.61L34.32 67l.22-.18a152 152 0 01248 80.73l.1.47z"/></g><g class="cls-2"><path class="cls-1" d="M134.35 286.19A104.89 104.89 0 11239.24 181.3a105 105 0 01-104.89 104.89zm0-207.77A102.89 102.89 0 10237.24 181.3 103 103 0 00134.35 78.42z"/></g><g class="cls-2"><path class="cls-1" d="M134.14 284.32v-6h1v6zm-2.07 0h-1l.19-6h1zm5.15 0l-.16-6h1l.23 6zm-8.25-.1l-1-.05.37-6 1 .05zm11.35 0l-.35-6 1-.06.41 6zm-14.44-.22l-1-.09.54-6 1 .08zm17.53-.05l-.53-6 1-.09.58 6zm-20.61-.25l-1-.12.72-5.95 1 .11zm23.68-.06l-.7-6 1-.12.75 5.95zm-26.75-.33l-1-.15.91-5.93.95.14zm29.82-.08l-.88-5.94 1-.15.93 5.93zm-32.87-.4l-1-.18 1.09-5.9 1 .17zm35.92-.1l-1-5.91.95-.17 1.13 5.89zm-39-.47l-1-.22 1.26-5.86 1 .2zm42-.12l-1.22-5.87.94-.21 1.3 5.86zm-45-.55l-1-.24 1.4-5.85.95.23zm48.07-.13l-1.41-5.84.94-.23 1.48 5.82zm-51.07-.63l-1-.27 1.61-5.78.94.26zm54.06-.15l-1.57-5.79.93-.26 1.64 5.77zm-57-.69l-1-.31 1.78-5.73.94.29zm60-.17l-1.76-5.74.93-.29 1.82 5.72zm-63-.78l-1-.33 1.95-5.67.93.31zm65.93-.18l-1.93-5.68.91-.31 2 5.65zM98.72 278l-1-.36 2.17-5.64.91.35zm71.79-.19l-2.11-5.62.91-.34 2.16 5.59zm-74.68-.92l-1-.4 2.31-5.54.9.37zm77.56-.21l-2.28-5.55.9-.38 2.33 5.54zm-80.43-1l-.94-.42 2.46-5.47.9.4zm83.27-.22l-2.45-5.46.89-.4 2.5 5.45zm-86.09-1.07l-.94-.46 2.64-5.38.87.42zm88.88-.22l-2.6-5.41.87-.42 2.66 5.38zM87.35 273l-.91-.47 2.79-5.32.87.46zm94.44-.22l-2.79-5.33.86-.45 2.82 5.3zm-97.18-1.24l-.89-.5 2.94-5.23.86.48zm99.9-.23l-2.93-5.23.85-.49 3 5.22zM81.92 270l-.88-.53 3.1-5.13.84.5zm105.26-.23l-3.08-5.15.83-.51 3.13 5.12zm-107.9-1.39l-.87-.56 3.26-5 .82.52zm110.53-.24l-3.24-5.05.82-.53 3.28 5zm-113.12-1.46l-.86-.58 3.42-4.94.8.55zm115.7-.25l-3.39-4.95.8-.55 3.43 4.92zm-118.24-1.52l-.84-.61 3.56-4.83.78.57zm120.76-.26l-3.53-4.85.78-.57 3.59 4.81zm-123.25-1.6l-.82-.63 3.7-4.72.78.6zm125.72-.25l-3.67-4.75.76-.6 3.73 4.71zm-128.15-1.67l-.8-.66 3.84-4.61.76.63zm130.57-.26l-3.8-4.63.75-.63 3.85 4.6zm-132.94-1.73l-.78-.69 4-4.49.73.64zm135.3-.28l-3.95-4.51.73-.64 4 4.47zm-137.61-1.79l-.76-.71 4.12-4.36.71.66zm139.91-.28l-4.08-4.39.7-.67 4.13 4.36zm-142.15-1.85l-.74-.73 4.25-4.21.68.68zm144.38-.29l-4.21-4.27.69-.68 4.26 4.22zm-146.56-1.91c-.24-.24-.48-.49-.71-.74l4.36-4.12.67.7zm148.73-.29l-4.33-4.16.66-.7 4.38 4.1c-.23.31-.47.51-.71.76zM58 250.48c-.24-.25-.47-.51-.69-.77l4.48-4 .65.72zm153-.3l-4.46-4 .64-.72 4.51 4zm-155-2l-.66-.79 4.6-3.85c.21.25.41.5.62.74zm157-.32l-4.58-3.86.64-.76 4.61 3.84zm-159-2.08l-.64-.81 4.71-3.71.6.76zm161-.34l-4.69-3.73.6-.77 4.73 3.7zm-162.9-2.11l-.62-.82 4.82-3.57.59.78zm164.77-.33l-4.81-3.59.59-.79 4.83 3.56zm-166.6-2.15l-.59-.84 4.93-3.43.55.8zm168.42-.36l-4.91-3.49.55-.8 4.95 3.4zm-170.17-2.2l-.57-.86 5-3.27.54.81zm171.91-.37l-5-3.3.53-.82 5.05 3.26zm-173.58-2.23l-.54-.87 5.12-3.12.51.82zm175.25-.38l-5.1-3.15.51-.83 5.14 3.09zm-176.85-2.26l-.51-.89 5.22-3 .48.84zm178.44-.41l-5.2-3 .48-.85 5.23 2.94zm-179.95-2.29l-.49-.9 5.31-2.81.45.86zm181.46-.42l-5.29-2.83.45-.86 5.32 2.78zm-182.89-2.31c-.16-.31-.31-.61-.46-.92l5.39-2.65c.14.29.28.58.43.87zm184.3-.43l-5.36-2.7c.15-.29.29-.58.43-.87l5.4 2.63c-.16.31-.31.62-.47.94zM41 224.84l-.43-.93 5.43-2.49.41.89zm187-.46l-5.45-2.52c.14-.3.28-.59.41-.89l5.47 2.47zM39.7 222l-.4-.94 5.53-2.33.38.9zm189.52-.5l-5.52-2.34.37-.9 5.55 2.29zm-190.7-2.35l-.37-1 5.59-2.16.36.91zm191.87-.52l-5.59-2.18c.12-.3.23-.61.35-.91l5.61 2.12c-.12.34-.24.68-.37 1zm-193-2.38l-.34-1 5.66-2 .33.91zm194.05-.53l-5.65-2 .32-.93 5.67 2zm-195-2.4l-.32-1 5.72-1.81.3.92zm196.05-.55l-5.73-1.77.29-.93 5.73 1.78zm-197-2.41c-.1-.33-.19-.66-.29-1l5.8-1.59c.08.31.17.62.26.93zm197.87-.56l-5.76-1.66c.09-.31.17-.62.26-.93l5.78 1.59c-.08.37-.17.7-.27 1.03zm-198.7-2.42l-.26-1 5.84-1.38c.07.32.15.63.24.94zm199.51-.56l-5.81-1.5c.08-.31.16-.62.23-.93l5.83 1.42c-.07.36-.15.7-.24 1.04zM33.93 204.4c-.07-.33-.15-.67-.22-1l5.86-1.28.21.95zm201-.57l-5.85-1.31c.07-.32.14-.63.2-1l5.87 1.25c-.1.39-.15.72-.25 1.06zm-201.64-2.46c-.07-.34-.13-.68-.2-1l5.9-1.11.18 1zm202.24-.58l-5.89-1.12.18-1 5.9 1.07zm-202.8-2.47c0-.34-.11-.68-.16-1l5.93-.92.15 1zm203.34-.57l-5.93-1c.06-.32.1-.64.15-1l5.94.9c-.06.42-.11.76-.16 1.1zm-203.8-2.49c0-.34-.09-.68-.13-1l6-.75c0 .32.08.64.13 1zm204.24-.58l-5.95-.77.12-1 6 .72zm-204.61-2.5l-.1-1 6-.57.1 1zm205-.57l-6-.6q.06-.48.09-1l6 .52c-.06.39-.09.73-.13 1.08zM31.62 189.1c0-.34-.05-.68-.07-1l6-.38.07 1zm205.5-.58l-6-.42.06-1 6 .35c-.01.38-.03.73-.06 1.07zM31.44 186v-1l6-.21v1zm205.85-.59l-6-.22v-1l6 .18zm-205.94-2.5v-1h6v1zm206-.59l-6-.05v-1.12h6zm-200-2.42l-6-.08v-1l6 .14zm194-.69v-1l6-.2v1zM37.43 177l-6-.27c0-.34 0-.68.05-1l6 .33zm193.82-.69l-.06-1 6-.37.06 1zM37.6 174.08l-6-.44c0-.34.06-.68.08-1l6 .5c-.03.3-.06.62-.08.94zm193.46-.68l-.09-1 6-.55.09 1zm-193.2-2.22l-6-.62.11-1 6 .68zm192.92-.68l-.11-1 6-.72.12 1zM38.2 168.28l-6-.8.15-1 5.93.86c.01.3-.04.66-.08.94zm192.21-.68l-.14-1 5.94-.9.15 1zm-191.78-2.2l-5.92-1c.06-.34.11-.68.17-1l5.91 1c-.05.36-.11.68-.16 1zm191.37-.68l-.17-1 5.91-1.07.17 1zm-190.85-2.19l-5.89-1.16.2-1 5.88 1.21zm190.27-.68c-.06-.31-.13-.63-.19-.94l5.86-1.27.21 1zm-189.67-2.17l-5.85-1.34.24-1 5.86 1.39c-.1.32-.18.63-.25.95zM228.8 159c-.07-.31-.15-.62-.23-.94l5.83-1.44.24 1zm-188.36-2.16l-5.81-1.5.27-1 5.79 1.58c-.08.3-.17.61-.25.92zm187.65-.67c-.08-.31-.17-.62-.26-.93l5.78-1.61c.1.33.19.67.28 1zM41.22 154l-5.76-1.68c.1-.33.19-.66.29-1l5.74 1.74zm186.07-.66c-.09-.31-.18-.62-.28-.92l5.73-1.79.3 1zm-185.21-2.1l-5.7-1.86c.1-.33.21-.65.32-1l5.69 1.91zm184.33-.65l-.31-.92 5.68-1.95.33 1zM43 148.47l-5.65-2 .36-1 5.62 2.08zm182.42-.63l-.34-.91 5.61-2.12.36 1zm-181.36-2.11l-5.58-2.2.38-1 5.56 2.26zm180.34-.61l-.36-.9 5.54-2.3.39 1zM45.17 143l-5.51-2.37.42-.95 5.48 2.42zm178.1-.6c-.12-.29-.25-.58-.38-.87l5.46-2.47c.15.31.29.63.43.95zm-176.9-2.07l-5.44-2.54.44-.93 5.42 2.59zm175.7-.56l-.42-.88 5.4-2.62.44.92zm-174.43-2.04L42.29 135l.47-.92 5.33 2.75zm173.15-.54l-.45-.87 5.32-2.78.47.91zM49 135.14l-5.28-2.86.5-.9 5.25 2.9zm170.42-.52l-.47-.85 5.23-2.94.5.9zm-169-2l-5.19-3 .53-.9 5.15 3.07zm167.56-.5l-.5-.83 5.14-3.1.52.88zm-166-2l-5.1-3.17c.18-.3.37-.59.56-.88l5.05 3.23zm164.53-.48l-.52-.82 5-3.25.55.87zm-163-2l-5-3.33.58-.86 5 3.37zm161.37-.47l-.55-.8 4.94-3.41.59.86zm-159.71-1.94l-4.89-3.47.6-.85 4.86 3.53zm158.05-.45l-.57-.79 4.83-3.55.61.84zm-156.33-1.91l-4.78-3.62.62-.81 4.76 3.66zm154.59-.43l-.59-.77 4.73-3.69.63.82zm-152.79-1.87L54 116.81c.22-.27.44-.53.65-.8l4.64 3.8zm151-.42l-.61-.75 4.62-3.83.66.8zm-149.14-1.82L56 114.42l.67-.78 4.53 4zm147.25-.42l-.63-.73 4.5-4 .68.78zm-145.32-1.78l-4.44-4 .69-.76 4.41 4.08zm143.39-.39l-.66-.71 4.38-4.11c.23.26.47.51.7.76zM64.47 114l-4.32-4.16.72-.74 4.28 4.2zm139.39-.38l-.68-.69 4.26-4.23.73.74zm-137.33-1.69l-4.2-4.29.74-.72 4.15 4.34zm135.27-.37l-.7-.67 4.13-4.35.74.71zm-133.16-1.63l-4.06-4.42.76-.69 4 4.45zm131-.36l-.73-.66 4-4.47.76.69zM70.81 108l-3.93-4.53.78-.67 3.89 4.57zm126.68-.35l-.74-.63 3.85-4.59.79.67zM73 106.11l-3.79-4.65.8-.65 3.75 4.69zm122.21-.34l-.76-.61 3.72-4.71.8.65zM75.33 104.3l-3.66-4.76.82-.62 3.61 4.79zM193 104l-.78-.59 3.58-4.81.82.62zm-115.34-1.44l-3.5-4.87.83-.6 3.46 4.9zm112.94-.32l-.8-.56 3.43-4.92.85.59zm-110.55-1.35l-3.36-5 .86-.57 3.31 5zm108.14-.31l-.81-.54 3.28-5 .87.57zM82.49 99.3l-3.22-5.07.88-.55 3.16 5.1zm103.25-.3l-.83-.51 3.14-5.12.87.54zM85 97.77l-3.06-5.16.89-.52 3 5.2zm98.27-.29l-.87-.48 3-5.21.9.52zm-95.78-1.15l-2.9-5.25.9-.49 2.85 5.27zm93.2-.29l-.85-.46 2.81-5.3.92.5zM90.06 95l-2.75-5.33.92-.47 2.69 5.36zm88.05-.27l-.87-.44 2.65-5.38.93.46zm-85.45-1l-2.58-5.42.93-.43 2.53 5.44zm82.82-.26l-.88-.47 2.49-5.46.91.46zm-80.18-1L92.89 87l.94-.41 2.36 5.51zm77.52-.26l-.9-.38 2.32-5.53 1 .41zM98 91.33l-2.25-5.56 1-.38L98.88 91zm72.14-.25l-.91-.35 2.15-5.6 1 .38zm-69.42-.8l-2.08-5.63 1-.35 2 5.64zm66.68-.23l-.92-.33 2-5.66 1 .35zm-63.93-.74l-1.91-5.69 1-.32 1.85 5.7zm61.16-.22l-.93-.3 1.81-5.72 1 .32zm-58.38-.67l-1.74-5.74 1-.3 1.68 5.77zm55.59-.19l-.93-.28 1.64-5.77 1 .29zM109 87.62l-1.56-5.79 1-.27 1.5 5.81zm50-.18l-.94-.24 1.47-5.82 1 .26zm-47.15-.54l-1.39-5.83 1-.24 1.32 5.86zm44.32-.15l-1-.22 1.29-5.86 1 .23zm-41.48-.48l-1.21-5.87 1-.21 1.14 5.89zm38.63-.13l-1-.19 1.1-5.89 1 .19zm-35.77-.41l-1-5.91 1-.17 1 5.92zm32.9-.12l-1-.15.93-5.93 1 .17zm-30-.34l-.85-5.94 1-.14.79 6zm27.14-.09l-1-.13.75-6 1 .13zm-24.24-.28l-.68-6 1-.11.61 6zm21.35-.07l-1-.1.57-6 1 .1zm-18.45-.21l-.49-6 1-.08.43 6zm15.54-.06l-1-.07.39-6 1 .07zm-12.63-.14l-.31-6 1-.05.25 6zm9.72 0h-1l.22-6h1zm-6.81-.08l-.14-6h1l.08 6zm3.89 0h-1v-6h1z"/></g><g class="cls-2"><path class="cls-1" d="M271 134.15l-.33-.93 5.66-2 .34 1zm-1-2.77l-.34-.91 5.62-2.12.35 1zm-1-2.73l-.36-.92 5.57-2.22.37.94zm-1.1-2.73l-.37-.89 5.52-2.35c.13.31.27.63.4.95zm-1.15-2.69l-.39-.89 5.47-2.46.41.93zm-1.2-2.67l-.42-.89 5.43-2.56.43.92zm-1.27-2.65l-.43-.87 5.37-2.68c.16.31.31.61.46.92zm-1.31-2.62l-.45-.86 5.32-2.79.47.92zm-1.37-2.59l-.46-.86 5.25-2.89.49.9zm-1.42-2.57l-.48-.84 5.2-3 .5.89zm-1.47-2.53l-.5-.84 5.13-3.1.53.88zm-1.52-2.51l-.52-.83 5.07-3.2.54.86zm-1.58-2.48l-.53-.81 5-3.31.56.86zm-1.63-2.44l-.55-.81 4.95-3.4.57.84zm-1.67-2.41l-.57-.79 4.87-3.51.59.83zm-1.72-2.38l-.59-.78 4.79-3.6.61.82zm-1.77-2.33l-.61-.78 4.73-3.7.62.8zm-1.83-2.32l-.61-.75 4.65-3.8.64.8zm-1.86-2.26l-.63-.75 4.5-3.89.66.79zm-1.91-2.23l-.65-.74 4.5-4 .67.76zm-2-2.2l-.66-.71 4.44-4.07.7.75zm-2-2.14l-.68-.71 4.33-4.19.7.74zm-2.05-2.12l-.69-.69 4.24-4.24.72.72zm-2.08-2.06l-.71-.69 4.16-4.32.73.7zm-2.13-2l-.72-.67 4.07-4.41.74.69zm-2.17-2l-.73-.65 4-4.5.77.69zm-2.2-1.93l-.75-.65 3.89-4.57.76.66zm-2.25-1.9l-.76-.63 3.79-4.65.79.65zM224.06 68l-.78-.61 3.7-4.73.79.63zm-2.33-1.8l-.79-.6 3.61-4.8.81.61zm-2.36-1.76l-.8-.58 3.51-4.86.82.6zM217 62.75l-.8-.56 3.4-4.94.84.58zm-2.43-1.66l-.81-.55 3.3-5 .85.56zm-2.46-1.61l-.82-.53 3.19-5.07.87.54zm-154.19-.82l-3.17-5.09.86-.54 3.15 5.11zm151.67-.74l-.84-.51 3.09-5.14.88.53zm-149.16-.79L57.36 52l.87-.52 3 5.18zm146.63-.72l-.85-.49 3-5.2.88.51zM63 55.65l-3-5.22.88-.5 2.94 5.23zM204.5 55l-.85-.47 2.88-5.27.89.5zm-139-.73L62.67 49l.9-.49 2.83 5.29zm136.39-.67l-.87-.46 2.77-5.32.91.48zM68.1 52.9l-2.75-5.34.9-.46L69 52.4zm131.2-.7l-.87-.44 2.66-5.38.91.46zm-128.55-.68l-2.64-5.38.91-.45 2.61 5.41zm125.91-.62l-.88-.42 2.54-5.43.93.44zM73.4 50.26l-2.53-5.44.92-.43 2.5 5.46zm120.6-.61l-.9-.4 2.45-5.48.93.42zm-117.92-.6l-2.42-5.49.93-.41 2.41 5.5zm115.23-.59l-.91-.38 2.33-5.53.94.4zm-112.54-.57l-2.31-5.54.94-.35 2.28 5.55zm109.81-.56l-.91-.37 2.21-5.57 1 .38zm-107.09-.54L79.3 41.2l.94-.37 2.16 5.6zm104.35-.54l-.92-.35 2.1-5.62.95.36zm-101.61-.51l-2.08-5.63 1-.35 2 5.64zm98.84-.51l-.93-.33 2-5.66 1 .34zM87 44.75l-2-5.67 1-.33 1.94 5.68zm93.29-.49l-.94-.31 1.87-5.7 1 .32zm-90.51-.44l-1.85-5.71 1-.31 1.81 5.72zm87.7-.46l-.94-.29 1.75-5.74 1 .3zm-84.9-.42l-1.73-5.74 1-.29 1.7 5.75zm82.08-.43l-.95-.27 1.63-5.78 1 .28zm-79.26-.39l-1.62-5.78 1-.27 1.58 5.79zm76.42-.41l-1-.25 1.52-5.8 1 .26zm-73.59-.35l-1.5-5.81 1-.25 1.44 5.82zM169 41l-1-.23 1.39-5.84 1 .24zm-67.88-.32l-1.42-5.86 1-.23 1.3 5.85zm65-.35l-1-.21 1.27-5.87 1 .22zM103.94 40l-1.26-5.87 1-.21 1.22 5.87zm59.28-.33l-1-.19 1.15-5.89 1 .2zm-56.4-.26l-1.14-5.89 1-.19 1.09 5.9zm53.52-.29l-1-.17 1-5.91 1 .18zm-50.64-.23l-1-5.92 1-.17 1 5.92zm47.74-.27l-1-.15.91-5.93 1 .16zm-44.84-.2l-.9-5.94 1-.14.85 5.93zm41.93-.23l-1-.13.79-5.95 1 .14zm-39-.18l-.78-6 1-.13.73 6zm36.12-.2l-1-.11.66-6 1 .11zm-33.21-.15l-.65-6 1-.11.61 6zm30.29-.17l-1-.09.55-6 1 .09zm-27.37-.12l-.54-6 1-.08.49 6zm24.44-.14l-1-.07.43-6 1 .07zm-21.52-.09l-.41-6 1-.06.37 6zm18.58-.1l-1-.06.31-6 1 .06zM127.18 37l-.29-6h1l.26 6zm12.72-.08h-1l.19-6h1zm-9.79 0l-.18-6h1l.13 6zm6.85 0h-1l.07-6h1zm-3.92 0v-6h1v6z"/></g><g class="cls-2"><path class="cls-1" d="M122.56 331.35l-1-.08.49-6 1 .08zm-3-.27l-1-.1.64-6 1 .1zm-3-.33l-1-.12.76-5.95 1 .11zm-3-.39l-1-.14.86-5.94 1 .14zm-3-.45l-1-.17 1-5.91 1 .15zm-3-.52l-1-.18 1.09-5.9 1 .18zm-3-.57l-1-.21 1.21-5.87 1 .2zm-3-.64l-1-.22 1.34-5.85 1 .22zm-3-.7l-1-.25 1.48-5.81.94.23zm-3-.76l-1-.26 1.58-5.79 1 .26zm-2.95-.82l-1-.28 1.69-5.76 1 .28zm-3.02-.9l-1-.3 1.85-5.7.93.29zm-2.91-.94l-1-.32 1.94-5.68.93.31zm-2.9-1l-1-.34 2-5.64.93.34zM80.92 322l-1-.36 2.17-5.6.91.35zm-2.85-1.12l-.93-.38 2.27-5.5.91.37zm-2.82-1.17l-.93-.4 2.39-5.51.9.39zm-2.79-1.23l-.94-.43 2.48-5.41.88.4zm-2.78-1.29l-.91-.44 2.61-5.4.89.43zm-2.74-1.34l-.9-.46 2.71-5.35.88.45zm-2.72-1.4l-.89-.48 2.83-5.29.87.46zM61.54 313l-.89-.49 2.94-5.23.86.48zm-2.66-1.5L58 311l3-5.17.85.5zm-2.62-1.5l-.86-.52 3.14-5.11.84.51zm-2.6-1.61l-.85-.54 3.25-5.05.83.53zm-2.55-1.66l-.85-.57 3.36-5 .81.54zM48.58 305l-.83-.58 3.45-4.91.8.56zm-2.49-1.76l-.82-.6 3.55-4.84.79.58z"/></g><g class="cls-2"><path class="cls-1" d="M133.06 306.31h-1l.3-20h.92zm41.8-6.74l-6.47-18.92.84-.29 6.65 18.86zm-84.48-1.24l-1-.38 7.23-18.66.82.32zm122.47-19.73L200.32 263l.66-.54 12.72 15.43zM53 276.23l-.79-.68 13.1-15.11.69.6zm188.35-30.35l-17.12-10.35.45-.75L241.93 245zm-215.9-3.17l-.51-.91 17.49-9.7.44.79zM257 205.4l-19.62-3.88.16-.87 19.66 3.69c-.03.36-.09.71-.2 1.06zm-246-3.57l-.18-1.1 19.75-3.12.13.81zm227-36.74l-.16-1 19.7-3.42.22 1.31zM31.11 162l-19.66-3.66.2-1 19.63 3.82zm195.12-31.61l-.44-.79 17.42-9.82.52.92zM44 127.9l-17.27-10.16.54-.92 17.14 10.32zm159.32-25.81l-.66-.57 13-15.21.82.71zm-135.61-1.9L54.93 84.76l.83-.68 12.58 15.55zM172 83.28l-.84-.32 7.05-18.71 1 .37zm-72.64-1l-6.62-18.86 1-.36L100.22 82zm36.88-6h-.9l.18-20h1z"/></g><g class="cls-2"><path class="cls-1" d="M229.37 63.7l-.72-.58 18.78-23.4.84.68zm-11.72-8.61l-.77-.51 16.42-25.1.9.59zm-12.52-7.46l-.8-.42 13.94-26.57 1 .52zM192 41.43l-.86-.35 11.31-27.79 1 .41zm-13.73-4.91l-.84-.26L186 7.51l1.07.32zM164.2 33l-.9-.18L169 3.35l1.06.21zm-14.38-2.18l-.93-.09L151.78.84l1.06.11zM135.26 30h-.93V0h1.07z"/></g><path class="cls-1" d="M247.35 108.59a133.68 133.68 0 0121.36 72.71h-10a123.69 123.69 0 00-19.79-67.3zM46.6 283a134.35 134.35 0 0187.75-236h1.58l-.12 10h-1.46a124.33 124.33 0 00-81.21 218.45zM248.24 252.62a134.27 134.27 0 01-113.89 63v-10a124.26 124.26 0 00105.4-58.34zM193.74 26.22a.84.84 0 00.27-.36.38.38 0 00-.19-.55c-.25-.1-.45.09-.54.33l-.06.13-.22-.07.05-.14c.07-.18.07-.44-.15-.52s-.31 0-.4.21a.73.73 0 000 .41h-.2a.91.91 0 010-.53c.15-.36.42-.44.64-.35a.49.49 0 01.3.51.51.51 0 01.63-.22.61.61 0 01.28.88 1 1 0 01-.31.42zM194.87 24.2l-.5-.2-.33.85-.16-.07-.88-1.27.1-.26 1.13.45.11-.26.19.08-.1.25.49.2zm-.69-.27l-.6-.24-.29-.13.21.26.44.69zM194 21.81l-.28.69.44.25a.86.86 0 010-.15.75.75 0 01.25-.35.54.54 0 01.57-.07.67.67 0 01.35.92 1 1 0 01-.29.41l-.16-.14a.85.85 0 00.25-.35.43.43 0 00-.22-.59c-.24-.09-.46 0-.61.37a2.38 2.38 0 00-.08.26l-.82-.47.34-.87zM195.12 21.11l.18.08-.28.69-.18-.07zM196.35 20.48l-.5-.19-.33.84-.17-.06-.83-1.28.1-.26 1.13.45.1-.25.19.07-.1.26.5.19zm-.69-.27l-.61-.24-.28-.12.21.25.44.69zM195.44 18.09l-.28.69.44.26a.53.53 0 01.05-.15.84.84 0 01.25-.36.56.56 0 01.57-.07.68.68 0 01.35.92.94.94 0 01-.29.41l-.16-.14a.81.81 0 00.25-.34.44.44 0 00-.22-.59c-.24-.09-.47 0-.61.36 0 .11-.06.19-.08.26l-.83-.46.35-.87zM197.48 17.62l-.49-.19-.34.84-.16-.06-.83-1.27.1-.27 1.13.45.1-.25.19.07-.1.26.5.19zm-.68-.27l-.61-.24-.28-.12.21.25.43.69zM197.16 16l.18.07-.27.69-.18-.07zM197.83 15.93a.93.93 0 00.28-.36.39.39 0 00-.19-.55c-.26-.1-.46.09-.55.33l-.06.13-.18-.07.05-.14c.08-.18.07-.44-.14-.52a.29.29 0 00-.4.2.78.78 0 000 .42h-.2a.93.93 0 01.05-.53.47.47 0 01.93.16.5.5 0 01.62-.22c.3.11.46.44.29.88a1.06 1.06 0 01-.31.42zM197.48 12.94l-.27.7.43.25a.86.86 0 00.05-.15.77.77 0 01.26-.35.56.56 0 01.57-.08.7.7 0 01.35.93 1 1 0 01-.29.41l-.17-.14a.86.86 0 00.26-.35.44.44 0 00-.22-.59c-.24-.09-.47 0-.61.37a1.35 1.35 0 00-.09.26l-.82-.47.35-.87zM199 13.07a.84.84 0 00.27-.36.38.38 0 00-.18-.55c-.26-.1-.46.09-.55.33l-.06.13-.18-.07v-.14c.07-.18.07-.44-.14-.53a.3.3 0 00-.4.21.78.78 0 000 .42h-.2a.85.85 0 010-.53.48.48 0 01.64-.35.5.5 0 01.29.51.5.5 0 01.62-.22.61.61 0 01.28.88 1 1 0 01-.31.42zM207.91 31.1c.59.31.81.69.61 1.08s-.61.4-1.19.11-.77-.71-.59-1.06.62-.41 1.17-.13zm-.45 1c.45.23.78.22.89 0s-.1-.5-.55-.73-.76-.25-.89 0 .09.45.55.69zM208.61 29.73c.6.31.81.69.61 1.08s-.61.4-1.19.11-.77-.71-.59-1.06.62-.41 1.17-.13zm-.45 1c.45.23.78.22.89 0s-.1-.5-.55-.73-.76-.25-.89 0 .07.45.55.69zM209.32 28.36c.59.31.8.69.6 1.08s-.61.4-1.18.11-.78-.71-.6-1.06.62-.41 1.18-.13zm-.46 1c.45.23.78.22.89 0s-.1-.5-.54-.73-.77-.25-.89 0 .07.45.54.69zM210 27c.59.31.8.69.61 1.08s-.61.4-1.19.12-.78-.72-.6-1.07.64-.42 1.18-.13zm-.46 1c.45.23.78.23.89 0s-.1-.5-.54-.73-.77-.25-.89 0 .09.44.56.73zM209.76 26v.39l-.2-.05v-.48l.1-.21 1.74.9-.11.22zM210.46 24.58V25h-.2v-.48l.1-.2 1.74.89-.11.22zM211.16 23.21v.39l-.21-.05v-.48l.11-.2 1.74.89-.12.22zM212.82 21.51c.6.31.81.69.61 1.08s-.61.41-1.19.12-.77-.72-.59-1.07.62-.41 1.17-.13zm-.45 1c.45.23.78.23.89 0s-.1-.5-.55-.72-.76-.26-.89 0 .07.44.55.68zM213.52 20.15c.6.3.81.68.61 1.07s-.61.41-1.19.12-.77-.72-.59-1.07.65-.41 1.17-.12zm-.45 1c.45.23.78.23.89 0s-.1-.5-.54-.72-.77-.26-.9 0 .07.43.55.67zM213.26 19.1v.39h-.2V19l.1-.2 1.74.89-.12.23zM221.54 40.13a.84.84 0 00.34-.29.39.39 0 00-.09-.58c-.23-.15-.46 0-.6.22l-.08.12-.16-.11.07-.12a.38.38 0 000-.55.3.3 0 00-.43.13.66.66 0 00-.1.4h-.2a.9.9 0 01.14-.51.5.5 0 01.7-.23.49.49 0 01.19.56.49.49 0 01.65-.1.62.62 0 01.12.92 1.06 1.06 0 01-.39.36zM223 38.36l-.45-.28-.49.76-.15-.09-.58-1.41.15-.24 1 .66.15-.23.17.11-.15.23.45.28zm-.6-.36l-.55-.35-.25-.18c.06.11.11.2.15.29l.3.76zM223.86 37.07l-.45-.29-.49.77-.15-.1-.58-1.4.15-.24 1 .65.14-.23.18.11-.15.23.45.29zm-.63-.4l-.55-.35-.25-.17.16.29.3.77zM223.81 36.21a.56.56 0 01-.23-.61.49.49 0 01-.54 0 .55.55 0 01-.11-.79.5.5 0 01.71-.22.48.48 0 01.21.51.55.55 0 01.64-.06.59.59 0 01.12.86.57.57 0 01-.8.31zm-.66-.8c.17.1.33 0 .51-.12a.4.4 0 00-.14-.45.31.31 0 00-.45.11.32.32 0 00.08.46zm1.22-.09c-.2-.13-.39 0-.59.13a.41.41 0 00.15.51.35.35 0 00.52-.12.35.35 0 00-.08-.52zM225.07 35.16l-.14-.09-.05-.28c-.14-.68-.23-1-.47-1.16a.34.34 0 00-.53.12.68.68 0 00-.09.44h-.2a.82.82 0 01.13-.57.55.55 0 01.8-.2c.3.19.41.57.52 1.13v.21l.48-.74.18.12zM224.93 31.74l.15.1 1 1.67-.14.23-1-1.64-.51.8-.19-.12zM226.29 32.32a.57.57 0 01-.23-.61.45.45 0 01-.53 0 .54.54 0 01-.12-.78.51.51 0 01.72-.22.5.5 0 01.21.51.53.53 0 01.64-.06.59.59 0 01.12.86.58.58 0 01-.81.3zm-.65-.8c.16.1.33 0 .5-.12a.4.4 0 00-.14-.4.3.3 0 00-.44.11.31.31 0 00.08.41zm1.21-.09c-.2-.13-.39-.05-.59.13a.41.41 0 00.15.51.35.35 0 00.52-.13.34.34 0 00-.08-.51zM226.42 29.87v.39l-.2-.07v-.48l.12-.19 1.66 1.05-.14.22zM228 28.89l.16.11-.4.63-.16-.11zM227.75 27.79v.38l-.19-.06v-.48l.13-.19 1.64 1.05-.13.21zM233.53 47.73l-.06.38-.19-.09.08-.47.14-.18 1.54 1.2-.16.2zM235.07 47.74a.57.57 0 01-.18-.63.51.51 0 01-.54 0 .56.56 0 010-.8.51.51 0 01.73-.15.5.5 0 01.16.54.56.56 0 01.64 0 .61.61 0 010 .88.58.58 0 01-.81.16zm-.58-.87c.15.12.33.07.51-.07a.39.39 0 00-.09-.45.3.3 0 00-.46.06.32.32 0 00.04.46zm1.22 0c-.19-.15-.38-.09-.6.08a.41.41 0 00.1.52.35.35 0 00.53-.08.35.35 0 00-.03-.49zM236.92 46.16l-.42-.32-.55.71-.14-.1-.45-1.45.18-.22 1 .74.17-.21.17.12-.17.22.42.33zm-.58-.45l-.51-.4-.24-.2c0 .12.08.21.12.3l.23.79zM236.61 43.39l.13.11.89 1.77-.17.21-.84-1.73-.59.75-.17-.13zM238.33 42.75c.52.4.66.82.39 1.16s-.67.29-1.19-.1-.62-.85-.38-1.16.69-.29 1.18.1zm-.63.85c.4.31.72.37.87.18s0-.51-.4-.82-.7-.39-.87-.18-.02.49.4.82zM239.26 43.17l-.13-.1v-.29c-.07-.68-.13-1-.36-1.2a.35.35 0 00-.54.07.68.68 0 00-.12.43h-.2a.89.89 0 01.18-.56.56.56 0 01.82-.12c.29.22.35.61.41 1.18v.21l.54-.69.17.14zM240.22 40.32c.52.41.66.83.4 1.17s-.68.28-1.19-.11-.63-.85-.39-1.16.69-.28 1.18.1zm-.63.85c.4.32.72.37.87.18s0-.51-.39-.81-.71-.4-.88-.18-.02.49.4.81zM241.17 39.11c.52.4.66.82.39 1.16s-.67.29-1.19-.1-.62-.85-.38-1.16.69-.29 1.18.1zm-.63.85c.4.31.72.37.87.18s0-.51-.4-.82-.7-.39-.87-.18-.02.49.4.86zM242.11 37.89c.53.41.67.83.4 1.17s-.68.29-1.19-.11-.63-.84-.38-1.16.68-.28 1.17.1zm-.63.86c.4.31.73.36.88.17s0-.5-.4-.81-.7-.4-.87-.18-.03.49.39.82zM243 38.08a1.56 1.56 0 00.12-.17.7.7 0 00.1-.44.86.86 0 00-.25-.53.55.55 0 01-.11.49.56.56 0 01-.83.09.67.67 0 01-.14-1c.25-.32.66-.31 1.05 0a1.23 1.23 0 01.52.82 1 1 0 01-.15.61.69.69 0 01-.13.2zm-.83-.77a.38.38 0 00.56 0 .46.46 0 00.07-.43.19.19 0 00-.06-.07c-.26-.21-.54-.27-.71-.05a.41.41 0 00.14.55z"/></g></g></svg>