<svg xmlns="http://www.w3.org/2000/svg" viewBox="0 0 285.66 33.69"><defs><style>.cls-2{mix-blend-mode:color-dodge}.cls-3{fill:#31756c}</style></defs><g style="isolation:isolate"><g id="图层_2" data-name="图层 2"><g id="Layer_1" data-name="Layer 1"><g class="cls-2"><path class="cls-3" d="M133.35 33.67H.12v-4h131.59L161.72.01h123.94v4h-122.3l-30.01 29.66z"/></g><g class="cls-2"><path class="cls-3" d="M0 29.64h28.67v4H0z"/></g><g class="cls-2"><path class="cls-3" d="M155.9 11.39l-2.82-2.85L161.72 0h32.55v4h-30.91l-7.46 7.39z"/></g><g class="cls-2"><path class="cls-3" d="M251.98.01h33.68v4h-33.68z"/></g><g class="cls-2"><path class="cls-3" d="M133.34 33.69h-29.81v-4h28.17l7.43-7.36 2.81 2.85-8.6 8.51z"/></g><g class="cls-2"><path fill="#263650" d="M141.61 32.79l24.84-24.84h114.92l-24.84 24.84H141.61z"/><path class="cls-3" d="M256.7 33.19H140.64l25.65-25.64h116zm-114.12-.8h113.78l24.05-24H166.62z"/></g><path style="mix-blend-mode:color-dodge" fill="#e74e4e" d="M146.6 30.73l20.71-20.71h8.36l-20.71 20.71h-8.36z"/><path style="mix-blend-mode:color-dodge" fill="#db4a4a" d="M157.79 30.73l20.71-20.71h8.36l-20.71 20.71h-8.36z"/><path style="mix-blend-mode:color-dodge" fill="#d04646" d="M168.98 30.73l20.71-20.71h8.36l-20.71 20.71h-8.36z"/><path style="mix-blend-mode:color-dodge" fill="#c44242" d="M180.17 30.73l20.71-20.71h8.36l-20.71 20.71h-8.36z"/><path style="mix-blend-mode:color-dodge" fill="#ad3b3b" d="M191.36 30.73l20.71-20.71h8.36l-20.71 20.71h-8.36z"/><path style="mix-blend-mode:color-dodge" fill="#a23737" d="M202.55 30.73l20.71-20.71h8.36l-20.71 20.71h-8.36z"/><path style="mix-blend-mode:color-dodge" fill="#8b2f2f" d="M213.74 30.73l20.71-20.71h8.36L222.1 30.73h-8.36z"/><path style="mix-blend-mode:color-dodge" fill="#7f2b2b" d="M224.93 30.73l20.71-20.71H254l-20.71 20.71h-8.36z"/><path style="mix-blend-mode:color-dodge" fill="#5c1f1f" d="M236.12 30.73l20.71-20.71h8.36l-20.71 20.71h-8.36z"/><path style="mix-blend-mode:color-dodge" fill="#3a1313" d="M247.31 30.73l20.71-20.71h8.36l-20.7 20.71h-8.37z"/></g></g></g></svg>