<svg xmlns="http://www.w3.org/2000/svg" viewBox="0 0 972 44"><defs><style>.cls-1{fill:#fff}</style></defs><g id="图层_2" data-name="图层 2"><g id="Layer_1" data-name="Layer 1"><path class="cls-1" d="M969 20h3v11h-3zM909 20h3v11h-3zM885 17h3v16h-3zM837 20h4v11h-4zM813 20h4v11h-4zM754 20h4v11h-4zM718 20h3v11h-3zM705 20h3v11h-3zM645 20h4v11h-4zM610 20h3v11h-3zM598 20h3v11h-3zM526 20h3v11h-3zM466 20h3v11h-3zM453 20h4v11h-4zM419 20h3v11h-3zM406 20h3v11h-3zM346 20h3v11h-3zM335 20h3v11h-3zM323 20h3v11h-3zM299 20h3v11h-3zM286 20h3v11h-3zM263 20h3v11h-3zM251 20h4v11h-4zM191 20h4v11h-4zM179 20h3v11h-3zM896 22h5v5h-5zM825 22h3v5h-3zM742 22h3v5h-3zM729 22h4v5h-4zM634 22h4v5h-4zM622 22h3v5h-3zM538 22h3v5h-3zM443 22h3v5h-3zM430 22h4v5h-4zM275 22h3v5h-3zM167 22h3v5h-3zM155 22h3v5h-3zM143 22h4v5h-4zM132 20h3v11h-3zM119 20h3v11h-3zM922 17h3v18h-3zM849 17h3v18h-3zM765 17h3v18h-3zM658 17h3v18h-3zM550 17h3v18h-3zM478 17h4v18h-4zM359 17h3v18h-3zM203 17h3v18h-3zM72 17h3v18h-3zM59 20h4v11h-4zM47 20h4v11h-4zM35 20h3v11h-3zM956 13h4v22h-4zM802 13h3v22h-3zM694 13h4v22h-4zM586 13h3v22h-3zM515 13h3v22h-3zM394 13h4v22h-4zM310 13h5v22h-5zM239 13h3v22h-3zM107 13h3v22h-3zM24 13h3v22h-3zM945 0h3v44h-3zM873 0h3v44h-3zM789 0h3v44h-3zM682 0h3v44h-3zM574 0h4v44h-4zM503 0h3v44h-3zM383 0h3v44h-3zM226 0h4v44h-4zM95 0h3v44h-3zM12 0h3v44h-3zM933 13h3v24h-3zM862 13h3v24h-3zM778 13h3v24h-3zM670 13h3v24h-3zM562 13h4v24h-4zM490 13h3v24h-3zM370 13h4v24h-4zM215 13h3v24h-3zM84 13h3v24h-3zM0 13h3v24H0z"/></g></g></svg>