<svg xmlns="http://www.w3.org/2000/svg" viewBox="0 0 349.4 124.67"><defs><style>.cls-1{fill:#abc8e2}.cls-2{fill:#0b1623}.cls-3{fill:#1b303f}.cls-4{fill:#375d81}</style></defs><g id="图层_2" data-name="图层 2"><g id="Layer_1" data-name="Layer 1"><path class="cls-1" d="M334 94V25.46L326.56 18H159.45L147.59 6.14l-84.32-.22v-.68l84.6.22 11.87 11.87h167.11l7.85 7.85V94zM63.27 5.92z"/><path class="cls-1" d="M63.27 117.55v-.68h270.95l9.62-9.61V55.47h.67v52.07l-10.01 10.01H63.27z"/><path class="cls-2" d="M344.18 60.35a4.89 4.89 0 114.88-4.88 4.89 4.89 0 01-4.88 4.88z"/><path class="cls-1" d="M344.18 50.24a5.23 5.23 0 11-5.18 5.23 5.23 5.23 0 015.23-5.23m0 .68a4.55 4.55 0 104.54 4.55 4.55 4.55 0 00-4.54-4.55z"/><path class="cls-3" d="M344.18 52.17a3.3 3.3 0 103.3 3.3 3.31 3.31 0 00-3.3-3.3z"/><path class="cls-2" d="M334.36 98.88a4.89 4.89 0 114.89-4.88 4.89 4.89 0 01-4.89 4.88z"/><path class="cls-1" d="M334.36 88.77a5.23 5.23 0 11-5.22 5.23 5.23 5.23 0 015.22-5.23m0 .68a4.55 4.55 0 104.55 4.55 4.56 4.56 0 00-4.55-4.55z"/><path class="cls-3" d="M334.36 90.7a3.3 3.3 0 103.3 3.3 3.3 3.3 0 00-3.3-3.3z"/><path class="cls-1" d="M153.42 5.78l8.49 8.49h37.95l-8.49-8.49h-37.95z"/><path class="cls-4" d="M195.45 5.78l8.49 8.49h37.95l-8.49-8.49h-37.95z"/><path class="cls-3" d="M237.48 5.78l8.5 8.49h37.94l-8.49-8.49h-37.95z"/><path class="cls-1" d="M117.65 49.08v-.14H139v.14h-21.35zM129.49 44.6l-5-5h-9.88v-.14h9.94l5 5H139v.14zm-14.83-5z"/><path class="cls-2" d="M140.15 44.53a1.15 1.15 0 11-1.15-1.15 1.15 1.15 0 011.15 1.15z"/><path class="cls-1" d="M137.79 44.53a1.22 1.22 0 011.21-1.22 1.22 1.22 0 011.22 1.22 1.22 1.22 0 01-1.22 1.22 1.22 1.22 0 01-1.21-1.22zm.13 0a1.08 1.08 0 001.08 1.08 1.08 1.08 0 001.08-1.08 1.08 1.08 0 00-1.08-1.08 1.08 1.08 0 00-1.08 1.08z"/><path class="cls-2" d="M140.15 49a1.15 1.15 0 11-1.15-1.14 1.15 1.15 0 011.15 1.14z"/><path class="cls-1" d="M137.79 49a1.22 1.22 0 011.21-1.21 1.22 1.22 0 011.22 1.21 1.22 1.22 0 01-1.22 1.23 1.22 1.22 0 01-1.21-1.23zm.13 0a1.08 1.08 0 001.08 1.09 1.08 1.08 0 001.08-1.09 1.08 1.08 0 00-1.08-1.07 1.08 1.08 0 00-1.08 1.07zM119.01 58.51v-.14h5.53l4.95-4.95H139v.14h-9.46l-4.94 4.95h-5.59z"/><path class="cls-2" d="M140.15 53.49a1.15 1.15 0 10-1.15 1.15 1.15 1.15 0 001.15-1.15z"/><path class="cls-1" d="M137.79 53.49a1.22 1.22 0 011.21-1.22 1.22 1.22 0 011.22 1.22 1.22 1.22 0 01-1.22 1.22 1.22 1.22 0 01-1.21-1.22zm.13 0a1.08 1.08 0 001.08 1.08 1.08 1.08 0 001.08-1.08 1.08 1.08 0 00-1.08-1.08 1.08 1.08 0 00-1.08 1.08z"/><path class="cls-4" d="M32.62 110.45l-.85-.55-3 4.55.93.59c.31.2.62.4.94.59l2.83-4.63c-.29-.19-.57-.38-.85-.55z"/><path class="cls-3" d="M38.82 113.82l-.91-.43-.9-.46c-.3-.15-.61-.3-.9-.46l-.89-.48c-.29-.16-.58-.34-.87-.51l-2.71 4.7c.31.19.63.37 1 .55l1 .53 1 .5c.32.17.65.35 1 .51l1 .47 1 .45 2.21-5c-.42-.09-.73-.19-1.03-.37z"/><path class="cls-4" d="M41.6 115l-2 5 1 .4 1.95-5.06z"/><path class="cls-1" d="M59.23 119.09l-1-.08-1-.08-.57 5.39 1.1.09 1.1.09 1.11.08.28-5.42c-.35-.01-.68-.05-1.02-.07z"/><path class="cls-4" d="M40.66 114.66l-2.12 5 1 .41 2-5z"/><path class="cls-1" d="M43.48 115.77l-1.86 5.09 1.05.36 1.76-5.13z"/><path class="cls-3" d="M55.22 118.67c-.34 0-.67-.08-1-.14l-1-.17-1-.18-1-.2-1-.23-1-.22-1-.25-1.4 5.23 1.07.28L49 123l1.07.25 1.08.21 1.09.2 1.09.19c.36.06.73.1 1.09.15l1.1.14.66-5.38z"/><path class="cls-1" d="M46.35 116.72l-1-.31-1.68 5.16 1.06.34c.35.11.7.2 1.06.3l1.53-5.21z"/><path class="cls-3" d="M5.5 64.42v-1-1L0 62.5v2.21c0 .37.06.73.08 1.1l5.41-.38c.07-.34.03-.67.01-1.01z"/><path class="cls-4" d="M7.39 76.37c-.08-.33-.17-.65-.25-1l-.23-1c-.08-.35-.16-.66-.23-1s-.13-.66-.19-1-.12-.66-.18-1l-.18-1c0-.34-.09-.67-.14-1l-5.37.83c.06.37.1.73.16 1.09s.13.71.22 1.09.13.73.19 1.09.14.72.22 1.08.16.72.25 1.08.16.72.25 1.08l.27 1.06c.1.36.2.71.31 1.07l5.21-1.5c-.12-.34-.22-.64-.31-.97z"/><path class="cls-1" d="M5.74 67.44c0-.33 0-.67-.08-1l-5.41.47c0 .36.06.73.1 1.1s.09.73.13 1.1l5.39-.67c-.04-.33-.1-.66-.13-1z"/><path class="cls-3" d="M16.48 95.39c-.2-.27-.39-.55-.59-.83s-.4-.54-.58-.82-.36-.56-.55-.84l-.54-.85-.54-.86-.5-.87c-.17-.29-.34-.58-.5-.88s-.33-.59-.49-.88-.3-.6-.46-.9l-.46-.9c-.14-.3-.29-.61-.43-.92s-.28-.61-.41-.92-.29-.61-.42-.92-.25-.62-.37-.93-.25-.63-.37-.94-.27-.63-.37-.94-.21-.64-.32-1l-.33-1c-.1-.32-.21-.64-.31-1L2.76 79.9c.1.35.22.7.33 1l.36 1c.12.34.23.7.35 1s.27.69.4 1 .27.69.41 1 .26.69.41 1 .3.67.45 1 .3.67.46 1 .31.67.47 1 .33.65.5 1 .33.66.51 1 .35.65.52 1l.55 1c.19.32.36.64.55 1s.39.63.59.94l.6.93c.2.31.38.62.59.93l.64.89c.21.31.42.61.64.91l.65.89 4.33-3.27z"/><path class="cls-1" d="M105.57 100.84l4 3.7c.25-.27.51-.53.76-.81l-4-3.63zM104.87 101.57l3.9 3.77c.26-.26.51-.53.76-.8l-4-3.7c-.19.25-.42.49-.66.73z"/><path class="cls-3" d="M114.35 88.56l-.48.88-.51.88c-.16.29-.33.59-.5.87s-.36.57-.53.86-.37.57-.55.85-.36.57-.55.85-.39.55-.58.82-.39.55-.59.82-.39.55-.59.82-.42.53-.62.79l-.63.8-.64.78-.66.76 4.08 3.56.72-.84.71-.85c.23-.28.45-.58.68-.87s.46-.57.68-.87l.65-.89c.22-.3.43-.6.64-.9s.43-.59.64-.9.4-.62.6-.93.4-.61.59-.93.4-.62.59-.93.37-.64.55-1 .37-.63.55-1 .36-.64.53-1z"/><path class="cls-4" d="M79.21 117l-1 .28-1 .25-1 .23-1 .23 1.13 5.3c.36-.07.72-.16 1.08-.25l1.08-.25 1.06-.27 1.07-.3z"/><path class="cls-3" d="M74.3 118.18l-1 .18-1 .18-1 .13-1 .13-1 .13-1 .08-1 .08c-.34 0-.67.06-1 .07s-.67 0-1 0h-4l-.19 5.42H66.63l1.1-.08 1.1-.09 1.1-.08 1.1-.14c.36 0 .73-.09 1.09-.15s.73-.09 1.09-.15.73-.13 1.09-.19l1.09-.19z"/><path class="cls-4" d="M120.68 68.44c0 .34-.08.67-.13 1s-.08.66-.14 1-.12.66-.17 1l-.18 1c-.07.33-.13.67-.2 1s-.15.66-.22 1-.15.66-.23 1-.17.66-.26 1-.18.65-.27 1-.18.65-.28 1-.2.64-.31 1-.21.64-.32 1-.21.64-.32 1-.25.62-.37.94-.24.62-.37.94-.24.63-.38.94-.27.61-.41.91l-.42.93c-.14.3-.28.61-.43.91s-.3.6-.46.9l4.83 2.46.51-1c.16-.33.31-.67.47-1l.45-1c.15-.34.31-.67.46-1s.27-.68.41-1 .27-.69.4-1 .27-.68.4-1 .24-.7.36-1 .24-.7.35-1 .23-.7.34-1 .2-.71.3-1.06.21-.71.3-1.07.19-.71.28-1.06.17-.72.25-1.08.17-.72.25-1.08l.21-1.08c.07-.36.13-.73.19-1.09s.14-.72.2-1.09.1-.72.15-1.09.1-.73.14-1.09zM105.61 14.38l-.84-.72-3.55 4.09.76.66c.25.22.49.46.74.69l3.7-4z"/><path class="cls-1" d="M100.45 17.09l3.49-4.15-.85-.71-3.41 4.21z"/><path class="cls-4" d="M108.78 17.46c-.26-.27-.51-.54-.77-.8l-.79-.76-3.77 3.89.73.7c.24.24.46.49.7.73l.69.73 4-3.69z"/><path class="cls-1" d="M126.52 60.29l-5.42.1v4c0 .32-.05.67-.07 1s0 .67-.08 1 0 .67-.08 1l5.39.57c0-.37.06-.74.09-1.1s.06-.73.08-1.1.07-.73.09-1.1 0-.74 0-1.11v-1.1-1.1-1.06zM115.1 25.11c-.22-.3-.43-.6-.65-.89l-4.38 3.18c.2.27.39.55.58.82s.4.55.59.83l4.49-3c-.2-.34-.42-.63-.63-.94z"/><path class="cls-3" d="M113.12 22.46c-.23-.3-.45-.59-.68-.87l-.7-.86-.74-.83c-.24-.28-.47-.56-.72-.83l-4 3.62c.23.25.44.51.66.77s.45.5.66.76l.65.78.62.79c.21.27.42.53.62.8l4.33-3.27c-.24-.32-.47-.58-.7-.86z"/><path class="cls-1" d="M116.12 37.87l4.95-2.21-.45-1L115.7 37c.15.25.3.56.42.87z"/><path class="cls-4" d="M117.51 28.81c-.19-.32-.39-.63-.58-.94l-.6-.93-4.55 2.95c.18.29.37.57.55.85s.36.57.53.86.34.58.5.87l4.7-2.71c-.18-.32-.36-.64-.55-.95z"/><path class="cls-3" d="M119.64 32.67c-.16-.33-.33-.66-.5-1l-.53-1-4.74 2.63.48.89c.16.29.31.59.46.89s.32.6.46.9l4.88-2.37z"/><path class="cls-4" d="M.35 54.78c0 .37-.06.74-.1 1.1s0 .74-.08 1.1-.06.74-.08 1.11 0 .73 0 1.1v1.1c0 .37-.09.71-.09 1.11h5.42v-1-1-1c0-.32.06-.67.08-1s0-.67.08-1 0-.68.08-1zM6.9 32.67c-.17.33-.34.66-.5 1s-.32.66-.47 1-.31.67-.46 1-.31.67-.45 1-.27.68-.41 1-.28.68-.41 1-.27.68-.4 1-.23.7-.35 1l-.36 1 5.16 1.68.33-1c.1-.31.21-.64.32-1s.24-.63.37-.94.24-.63.37-.94.24-.63.37-.94.28-.61.42-.92.27-.62.41-.92.29-.61.43-.91.31-.61.46-.9z"/><path class="cls-3" d="M2.76 42.9c-.11.35-.2.7-.3 1.06s-.21.7-.31 1.06l-.27 1.07c-.09.35-.17.72-.25 1.07s-.17.72-.25 1.08-.14.72-.22 1.08-.16.73-.16 1.09-.14.72-.19 1.09-.1.73-.16 1.09-.09.73-.14 1.1l5.39.66.12-1c0-.34.09-.67.14-1l.18-1c.06-.33.11-.66.18-1s.13-.66.19-1 .16-.66.23-1 .15-.65.23-1 .17-.65.25-1l.28-1 .27-1z"/><path class="cls-4" d="M49.28 5.26L48 0l-1.1.28 1.4 5.23z"/><path class="cls-3" d="M45.84.58l-1.07.3-1.05.34 1.68 5.15 1-.3 1-.28zM27 9.58l-.9.64-.89.65c-.3.22-.58.45-.87.68l3.34 4.27c.26-.21.52-.42.79-.62s.54-.4.82-.6l.81-.6zM23.46 12.23l-.85.7-.84.73 3.56 4.09.76-.66.78-.65z"/><path class="cls-4" d="M30.68 7.16l-.93.59-.93.59c-.31.2-.63.39-.93.6l3 4.49c.28-.19.57-.36.85-.54l.85-.55.86-.53zM42.68 1.57c-.35.12-.7.23-1 .36s-.69.26-1 .4l-1 .4-1 .41-1 .46-1 .45-1 .47 2.37 4.87.78-.39.91-.41c.31-.14.62-.29.93-.42l.93-.37.94-.37.94-.43 1-.32z"/><path class="cls-3" d="M34.55 5l-1 .5c-.33.17-.65.35-1 .53l-1 .55 2.71 4.69c.29-.17.58-.34.88-.5l.88-.49.9-.46z"/><path class="cls-4" d="M7.5 59.45v-1l11.41.6v.79L7.5 59.45zm0 0l11.42.41v-.77l-11.38-.62v1zM9.11 47.89c.08-.32.16-.63.25-1l11 3c-.07.26-.13.51-.2.76L9.11 47.89zm0 0l11.07 2.77.18-.74-11-3-.24.93z"/><path class="cls-4" d="M8.89 48.84l.22-1 11.08 2.76-.18.76-11.12-2.52zm0 0L20 51.41l.18-.75-11.06-2.77c-.08.32-.15.64-.23 1z"/><path class="cls-4" d="M8.67 49.79c.06-.32.14-.63.23-1L20 51.4c-.06.25-.13.5-.19.76L8.67 49.79zm0 0l11.17 2.38c.05-.25.12-.5.17-.74L8.9 48.84c-.07.32-.15.63-.23.94z"/><path class="cls-4" d="M8.48 50.75c.06-.32.12-.64.19-1l11.18 2.38c-.05.25-.09.5-.15.76L8.48 50.75zm0 0l11.2 2.19.15-.76-11.15-2.39c-.06.32-.13.64-.19 1zM9.62 46c.09-.31.17-.63.27-.94l10.92 3.34c-.07.25-.14.5-.22.75L9.62 46zm0 0l11 3.16c.07-.25.13-.5.21-.74L9.9 45.08c-.1.31-.18.62-.27.92z"/><path class="cls-4" d="M8.31 51.71c0-.33.11-.65.18-1l11.21 2.21-.15.77-11.25-2zm0 0l11.25 2c0-.25.09-.51.13-.76l-11.2-2.2c-.06.32-.11.64-.18 1zM9.88 45.07c.1-.31.2-.61.31-.93L21 47.66c-.08.25-.15.5-.24.75L9.88 45.07zm0 0l10.92 3.34c.07-.25.15-.49.23-.73l-10.84-3.53-.3.92zM7.76 55.56c0-.32.08-.64.13-1L19.23 56c0 .26-.07.51-.1.77L7.76 55.56zm0 0l11.36 1.2c0-.26.07-.51.1-.77L7.89 54.6c0 .32-.09.64-.13 1zM7.48 60.42v-1l11.42.4v.78l-11.42-.18zm0 0l11.43.2v-.76l-11.4-.41v1zM7.53 58.47c0-.32 0-.64.08-1l11.4.79c0 .26-.05.51-.07.78l-11.41-.57zm0 0l11.41.6c0-.25 0-.51.05-.76L7.61 57.5c0 .33-.05.65-.07 1z"/><path class="cls-4" d="M7.45 61.4v-1l11.43.19v.78H7.45zm0 0h11.44v-.77l-11.4-.21v1zM7.6 57.5c0-.32.05-.64.08-1l11.39 1c0 .26 0 .51-.07.78L7.6 57.5zm0 0l11.4.8.06-.77-11.37-1c0 .33-.05.65-.08 1zM8 53.63c.05-.32.09-.65.14-1l11.29 1.78c-.05.26-.07.52-.11.78L8 53.63zm0 0l11.31 1.6c0-.25.06-.51.1-.76l-11.26-1.8c-.05.32-.09.64-.14.95z"/><path class="cls-4" d="M7.88 54.59c0-.32.08-.64.13-1H8l11.32 1.59c0 .26-.06.51-.1.78L7.88 54.59zm0 0L19.22 56c0-.26.06-.51.1-.76L8 53.63l-.12 1zM8.14 52.66c0-.32.11-.64.17-1l11.26 2c0 .26-.1.51-.14.77L8.14 52.66zm0 0l11.28 1.79c0-.25.09-.5.14-.75l-11.24-2-.18.95zM7.68 56.53c0-.32 0-.65.08-1l11.37 1.2c0 .25 0 .51-.07.78l-11.39-1zm0 0l11.38 1 .06-.77-11.35-1.2c0 .32 0 .65-.09 1zM9.35 47c.08-.32.18-.63.28-.94l11 3.14c-.07.25-.15.49-.22.75l-11-3zm0 0l11 3c.06-.25.13-.49.2-.74L9.63 46l-.27.93zM7.46 61.39H18.9v.78l-11.43.19v-1zm0 1l11.43-.19v-.77H7.46v1zM35.37 13.06l.85-.49 5.4 9.75-.69.38-5.56-9.65zm0 0l5.56 9.65c.22-.14.44-.26.66-.39l-5.38-9.74-.84.48zM38.8 11.22c.29-.15.59-.28.89-.42l4.69 10.06-.71.35-4.87-10zm0 0l4.86 10 .69-.35-4.67-10-.88.41z"/><path class="cls-4" d="M34.52 13.54l.86-.48 5.56 9.65-.68.4-5.74-9.58zm0 0l5.74 9.56.66-.4-5.56-9.64-.84.48zM32.87 14.59l.83-.53 5.92 9.47L39 24l-6.08-9.37zm0 0L39 24l.65-.42-5.9-9.46-.82.52z"/><path class="cls-4" d="M33.7 14.06c.27-.17.54-.35.83-.51l5.75 9.56c-.22.13-.43.28-.66.42l-5.92-9.47zm0 0l5.9 9.47.65-.42-5.73-9.55c-.28.16-.55.34-.82.5zM36.21 12.57l.87-.46 5.22 9.82-.68.39-5.4-9.76zm0 0l5.39 9.75.67-.39-5.21-9.81-.85.45zM32.06 15.11c.26-.18.54-.35.82-.52L39 24l-.65.44-6.25-9.29zm0 0l6.25 9.27L39 24l-6.12-9.4-.82.52zM37.93 11.66c.29-.15.58-.3.88-.44l4.87 10c-.23.12-.46.24-.7.35l-5-9.91zm0 0l5 9.89.69-.35-4.86-10c-.3.14-.58.3-.87.44zM39.68 10.8c.3-.14.59-.26.9-.39l4.51 10.12-.73.32-4.68-10.05zm0 0l4.68 10.05.7-.32-4.48-10.12-.89.39z"/><path class="cls-4" d="M37.07 12.11c.28-.16.58-.3.87-.45L43 21.57l-.69.36-5.22-9.83zm0 0l5.21 9.82c.22-.13.46-.24.68-.36l-5-9.9-.86.44zM40.57 10.4l.9-.4 4.33 10.21-.72.32-4.51-10.13zm0 0l4.5 10.13.71-.32L41.46 10l-.88.39zM28.91 17.42c.26-.2.51-.41.78-.6l6.75 9-.62.48-6.9-8.84zm0 0l6.89 8.83.61-.48-6.73-8.94-.77.59zM30.47 16.24l.8-.56 6.42 9.16-.69.46-6.57-9.06zm0 0L37 25.29l.63-.45-6.4-9.15-.79.55z"/><path class="cls-4" d="M29.68 16.82c.26-.2.52-.39.8-.58l6.57 9.05-.62.48-6.75-9zm0 0l6.74 9 .61-.48-6.56-9-.79.57zM31.26 15.68l.8-.56 6.26 9.27-.65.45-6.41-9.17zm0 0l6.41 9.16.62-.45-6.24-9.27c-.27.19-.52.38-.79.56zM54.54 6.26l1-.13L57 16.94l-.78.13-1.68-10.81zm0 0l1.7 10.81.77-.13-1.5-10.8-1 .12z"/><path class="cls-4" d="M55.51 6.12l1-.11 1.33 10.83L57 17 55.51 6.12zm0 0L57 16.94l.77-.1L56.47 6l-1 .12zM41.46 10c.3-.13.6-.24.91-.36l4.15 10.26-.72.31L41.46 10zm0 0l4.32 10.21.71-.31-4.12-10.25-.9.35zM52.62 6.6l1-.17 1.9 10.79-.78.13L52.62 6.6zm0 0l2.08 10.74.77-.14-1.89-10.76-.95.17z"/><path class="cls-4" d="M51.67 6.79q.46-.11 1-.18l2.09 10.75-.78.17-2.31-10.74zm0 0L54 17.53l.75-.17-2.12-10.75-1 .18zM53.58 6.43l1-.17 1.71 10.82-.78.13-1.93-10.78zm0 0l1.89 10.78.77-.13-1.7-10.81c-.32.05-.64.12-.95.16zM59.38 5.72c.33 0 .65 0 1-.06l.57 10.87-.79.05-.78-10.86zm0 0l.75 10.86q.39 0 .78-.06l-.56-10.86c-.32 0-.64.06-1 .07z"/><path class="cls-4" d="M60.35 5.65h1l.38 10.85h-.79l-.59-10.85zm0 0l.56 10.87.78-.05-.36-10.84h-1zM57.44 5.88c.32 0 .65-.06 1-.08l.95 10.85-.79.09-1.16-10.86zm0 0l1.13 10.86c.26 0 .51-.07.77-.09l-.93-10.84-1 .07z"/><path class="cls-4" d="M58.41 5.8l1-.07.76 10.86h-.79L58.41 5.8zm0 0l.94 10.85.77-.06-.74-10.85-1 .06zM56.47 6c.33 0 .65-.09 1-.12l1.14 10.87-.78.1L56.47 6zm0 0l1.33 10.84.77-.1-1.13-10.85-1 .12zM50.72 7l1-.22L54 17.54l-.77.18L50.72 7zm0 0l2.46 10.7c.25-.07.5-.12.75-.18L51.67 6.8l-.94.2zM45.1 8.62c.31-.11.61-.22.93-.31l3.41 10.49-.75.25L45.1 8.62zm0 0l3.58 10.43.74-.25L46 8.32c-.31.09-.62.2-.92.3z"/><path class="cls-4" d="M46 8.3l1-.3 3.22 10.54-.75.25L46 8.3zm0 0l3.4 10.49.74-.25L47 8l-1 .31zM43.27 9.28c.3-.12.6-.24.92-.35L48 19.33l-.73.29-4-10.34zm0 0l3.95 10.33.72-.29-3.76-10.38c-.3.11-.6.24-.9.34z"/><path class="cls-4" d="M42.36 9.64l.92-.35 4 10.32-.74.28-4.18-10.25zm0 0l4.15 10.26.72-.29-4-10.32-.9.35zM44.18 8.93l.93-.31 3.59 10.43-.74.27-3.78-10.39zm0 0L48 19.32l.73-.27-3.62-10.42-.92.3zM47 8l.95-.26 3 10.58-.75.23L47 8zm0 0l3.21 10.54.74-.23-3-10.57L47 8zM48.83 7.47l1-.24 2.61 10.67-.76.2-2.85-10.63zm0 0l2.84 10.63.75-.22-2.65-10.64-.94.24z"/><path class="cls-4" d="M49.77 7.23l1-.22 2.47 10.7-.77.18-2.7-10.66zm0 0l2.65 10.66.75-.18L50.72 7l-.94.21zM47.89 7.74l.94-.26 2.85 10.63-.76.21-3-10.59zm0 0l3 10.58.75-.21-2.81-10.62-.93.25zM61.33 5.62h1l.19 10.86h-.8l-.39-10.86zm0 0l.37 10.85h.78L62.3 5.61h-1zM73.41 17.45L75.83 7c.32.07.63.14 1 .23l-2.64 10.4-.77-.19zm0 0l.76.17 2.6-10.38-1-.22-2.35 10.43z"/><path class="cls-4" d="M62.3 5.6h1v10.84h-.8L62.3 5.6zm0 0l.18 10.86h.78V5.59zM74.18 17.63l2.6-10.4 1 .25L75 17.81l-.77-.19zm0 0l.76.17 2.78-10.31-.94-.25-2.59 10.39zM80.19 19.5l4-9.86c.29.12.6.23.9.37l-4.15 9.78-.74-.3zm0 0l.73.28L85.08 10l-.89-.36-4 9.85zM72.64 17.29l2.24-10.5 1 .23-2.46 10.44-.78-.17zm0 0l.76.16L75.83 7l-.94-.22-2.24 10.51zM75.7 18l3-10.28c.31.09.63.17.94.27l-3.16 10.24-.78-.23zm0 0l.75.21L79.59 8l-.93-.27L75.71 18z"/><path class="cls-4" d="M71.87 17.15l2-10.55c.32.06.64.12 1 .2l-2.22 10.49c-.26-.05-.52-.09-.78-.15zm0 0l.77.13L74.88 6.8l-.95-.19-2.06 10.54zM77.22 18.44l3.3-10.14.93.32L78 18.7l-.75-.27zm0 0l.74.25 3.48-10.06-.91-.32-3.3 10.13zM78.72 19l3.65-10c.31.11.61.23.91.36l-3.81 9.92-.75-.28zm0 0l.73.25 3.81-9.91-.9-.35L78.73 19z"/><path class="cls-4" d="M79.46 19.21l3.82-9.93.91.37-4 9.85-.74-.3zm0 0l.73.28 4-9.84-.9-.36-3.81 9.92zM78 18.7l3.45-10.08c.3.1.61.2.92.32L78.73 19l-.73-.3zm0 0l.74.26 3.64-10-.91-.32L78 18.69zM71.09 17L73 6.43l1 .18-2.12 10.54-.79-.15zm0 0l.77.14 2-10.54-1-.17L71.1 17zM76.46 18.23L79.6 8l.93.31-3.29 10.14-.77-.22zm0 0c.25.07.5.13.75.21l3.3-10.12L79.6 8l-3.13 10.23zM75 17.81l2.72-10.34.94.28L75.72 18l-.72-.19zm0 0l.75.21 3-10.26-.93-.27L75 17.8zM65.62 16.47l.57-10.82 1 .08-.77 10.77h-.79zm0 0h.77l.77-10.76-1-.08-.57 10.81z"/><path class="cls-4" d="M66.4 16.5l.77-10.78 1 .08-.97 10.76-.79-.07zm0 0l.78.06 1-10.75-1-.08-.77 10.77zM64.84 16.45l.38-10.83h1l-.57 10.81h-.79zm0 0h.78l.57-10.81h-1l-.39 10.82z"/><path class="cls-4" d="M64.05 16.43l.2-10.83h1l-.38 10.82h-.79zm0 0h.78l.38-10.82h-1l-.19 10.81z"/><path class="cls-4" d="M63.27 16.44V5.57h1l-.19 10.84.2-10.82h-1v10.84zM67.19 16.56l1-10.76 1 .08L68 16.62l-.79-.07zm0 0l.77.06 1.15-10.73c-.32 0-.65 0-1-.09l-.91 10.76zM69.53 16.79L71 6.12l1 .14-1.67 10.64c-.26 0-.52-.06-.79-.11zm0 0l.77.1L72 6.27l-1-.14-1.46 10.66z"/><path class="cls-4" d="M68.75 16.7L70.08 6l1 .13-1.53 10.67-.79-.1zm0 0l.77.1L71 6.14l-1-.13-1.24 10.68zM70.31 16.89L72 6.26l1 .18L71.11 17l-.79-.13zm0 0c.26 0 .52.07.77.12L73 6.44l-1-.17-1.68 10.62z"/><path class="cls-4" d="M68 16.62l1.11-10.74c.32 0 .64.08 1 .13L68.77 16.7l-.77-.08zm0 0l.77.07L70.07 6l-.95-.13L68 16.62zM83.8 21.09l4.81-9.43c.29.15.59.29.87.45l-5 9.35-.71-.37zm0 0l.7.35 5-9.32-.86-.45-4.81 9.42zM91.17 25.68l6.46-8.26c.26.2.52.4.77.61l-6.6 8.14-.62-.5zm0 0l.62.48 6.6-8.16-.75-.6-6.46 8.25zM88.59 23.84l5.9-8.73.8.58-6 8.6c-.21-.15-.44-.29-.66-.45zm0 0l.66.44 6-8.59-.79-.57-5.86 8.72z"/><path class="cls-4" d="M89.25 24.28l6-8.6c.26.18.53.37.79.57l-6.17 8.5-.65-.47zm0 0l.64.46 6.17-8.49-.78-.56-6 8.59zM89.9 24.74l6.18-8.5c.26.19.53.38.79.59l-6.32 8.38-.64-.47zm0 0l.64.45 6.32-8.36-.78-.58-6.18 8.49z"/><path class="cls-4" d="M90.54 25.2l6.33-8.38c.26.19.51.4.77.61l-6.46 8.26-.63-.49zm0 0l.62.47 6.45-8.24-.75-.6-6.31 8.37zM84.5 21.45l5-9.34c.29.15.57.3.86.47l-5.12 9.24c-.23-.13-.47-.24-.71-.37zm0 0l.7.35 5.12-9.21-.85-.48-5 9.34zM80.93 19.79L85.09 10l.89.41-4.31 9.69-.73-.31zm0 0l.72.31L86 10.41l-.88-.4-4.15 9.77zM83.09 20.74l4.66-9.52c.29.14.57.29.87.45l-4.81 9.43-.72-.36zm0 0l.71.34 4.8-9.41-.86-.44-4.64 9.51z"/><path class="cls-4" d="M81.66 20.09L86 10.4c.29.13.59.26.89.41l-4.48 9.61-.72-.34zm0 0l.72.32 4.48-9.6-.88-.4-4.32 9.68z"/><path class="cls-4" d="M82.37 20.42l4.5-9.62c.29.14.59.27.88.43l-4.65 9.52-.72-.33zm0 0c.24.11.48.21.71.33l4.65-9.51-.87-.42-4.49 9.6zM86.58 22.59l5.44-9c.29.17.56.35.83.53L87.27 23c-.23-.14-.46-.26-.69-.41zm0 0l.68.4 5.58-8.92-.84-.52-5.44 9z"/><path class="cls-4" d="M87.93 23.42l-.67-.42 5.59-8.93c.28.17.55.35.82.54l-5.73 8.83zm-.66-.42c.23.13.44.28.66.42l5.73-8.81-.81-.53L87.27 23z"/><path class="cls-4" d="M87.93 23.42l5.74-8.83c.27.17.56.34.82.53l-5.89 8.73-.67-.43zm0 0l.66.43 5.88-8.72c-.26-.18-.54-.34-.81-.52l-5.73 8.81zM85.89 22.2l5.29-9.14.85.49-5.44 9.05-.69-.4zm0 0c.23.12.46.26.68.39l5.44-9-.84-.49-5.27 9.1z"/><path class="cls-4" d="M85.21 21.81l5.13-9.24.84.5-5.27 9.14-.69-.4zm0 0l.68.38 5.27-9.12-.83-.49-5.12 9.23zM25.21 20.58c.24-.22.47-.45.72-.67l7.53 8.36-.58.54-7.67-8.24zm0 0l7.66 8.23.56-.54-7.51-8.34-.71.65zM23.13 22.63c.22-.24.44-.47.68-.71l8 8-.54.56-8.11-7.84zm0 0l8.1 7.83c.17-.19.35-.38.53-.56l-8-8c-.23.23-.45.47-.67.7zM26.66 19.28c.25-.21.49-.43.75-.64l7.21 8.6-.59.51-7.37-8.48zm0 0L34 27.75l.58-.5-7.2-8.6c-.25.21-.49.43-.74.63z"/><path class="cls-4" d="M23.8 21.92c.23-.23.47-.44.72-.67l7.81 8.09-.56.56-8-8zm0 0l8 8 .55-.54-7.8-8.09-.71.66z"/><path class="cls-4" d="M24.51 21.25c.23-.22.46-.45.71-.67l7.67 8.23c-.18.18-.38.35-.57.53l-7.81-8.1zm0 0l7.8 8.09.56-.53-7.66-8.22-.7.66zM27.4 18.64l.76-.62 7.05 8.72-.6.5-7.21-8.6zm0 0l7.21 8.6c.19-.16.38-.34.58-.5l-7-8.71-.75.61z"/><path class="cls-4" d="M28.15 18l.77-.6 6.9 8.83-.62.48L28.15 18zm0 0l7 8.71.61-.48-6.89-8.82-.76.59zM25.93 19.91l.74-.63L34 27.75l-.59.52-7.52-8.37zm0 0l7.52 8.36.57-.52-7.35-8.46-.74.62zM22.46 23.33c.22-.23.44-.47.68-.7l8.11 7.83-.55.54-8.24-7.7zm0 0L30.7 31c.17-.19.35-.37.53-.56l-8.09-7.82-.67.69zM18.69 27.8c.2-.26.41-.51.61-.76l8.91 7-.49.61-9-6.82zm0 0l9 6.81.51-.61-8.89-7c-.2.26-.41.51-.61.76z"/><path class="cls-4" d="M19.3 27c.2-.26.39-.52.61-.77l8.78 7.12-.48.61L19.3 27zm0 0l8.9 7 .47-.61-8.77-7.11c-.21.25-.4.51-.6.76zM21.79 24.05c.22-.25.44-.48.68-.72L30.71 31l-.53.58-8.39-7.56zm0 0l8.38 7.55.51-.57-8.22-7.69-.67.71z"/><path class="cls-4" d="M19.9 26.27q.3-.37.63-.75l8.65 7.26c-.17.19-.32.4-.49.61l-8.79-7.12zm0 0l8.77 7.12.48-.61-8.63-7.25-.62.74zM21.15 24.78l.65-.73 8.39 7.55-.52.59-8.52-7.42zm0 0l8.51 7.41.51-.58-8.37-7.55c-.21.24-.42.49-.64.72z"/><path class="cls-4" d="M20.52 25.52l.64-.74 8.52 7.41-.51.59-8.65-7.27zm0 0l8.64 7.26c.16-.2.33-.39.5-.59l-8.51-7.4-.63.73zM97.54 31.61L97 31l7.75-7 .63.74-7.85 6.83zM97 31l.52.59 7.84-6.81-.62-.73L97 31z"/><path class="cls-4" d="M98.06 32.21l-.52-.62 7.86-6.82c.22.25.43.49.64.75l-8 6.69zm-.52-.61l.52.6 8-6.67-.63-.74-7.89 6.81z"/><path class="cls-4" d="M98.58 32.81c-.17-.2-.35-.39-.52-.61l8-6.68c.21.25.42.5.62.76l-8.07 6.54zm-.52-.6l.52.59 8.06-6.52-.61-.75-8 6.68zM97 31c-.18-.19-.37-.38-.55-.58l7.63-7.1c.22.23.45.47.67.72L97 31zm-.54-.58L97 31l7.73-7c-.21-.25-.44-.48-.65-.72l-7.62 7.1z"/><path class="cls-4" d="M96.47 30.44l-.55-.58 7.51-7.24.67.71-7.62 7.11zm-.55-.57c.19.18.37.38.55.56l7.61-7.09-.66-.7-7.5 7.23zM100 34.69l-.48-.64 8.3-6.24c.2.25.39.52.58.79l-8.4 6.09zm-.48-.64l.48.63 8.38-6.08-.57-.79-8.29 6.24z"/><path class="cls-4" d="M100.5 35.33l-.46-.66 8.4-6.09c.19.26.38.53.56.81l-8.49 5.94zm-.46-.65c.16.21.31.43.46.65l8.5-5.94-.55-.79-8.45 6.08z"/><path class="cls-4" d="M101 36l-.46-.66 8.5-5.94c.19.26.39.52.57.8L101 36zm-.46-.65c.15.21.31.42.46.64l8.59-5.78-.59-.81-8.49 5.93zM99.07 33.43c-.17-.21-.32-.42-.49-.64l8.08-6.53.6.78-8.18 6.39zm-.49-.62c.17.2.32.41.49.62l8.17-6.38-.59-.77-8.07 6.53zM95.92 29.87l-.56-.56 7.4-7.38c.23.22.44.47.67.71l-7.5 7.23zm-.56-.56l.56.55 7.49-7.22c-.23-.23-.44-.48-.66-.7l-7.39 7.37zM91.79 26.17L98.4 18q.38.3.75.63l-6.72 8-.63-.49zm0 0l.62.48 6.72-8-.73-.65-6.6 8.14z"/><path class="cls-4" d="M93 27.18c-.21-.17-.4-.35-.6-.53l6.73-8c.25.21.49.42.74.65L93 27.18zm-.59-.53c.2.17.39.35.59.51l6.86-7.87-.73-.64-6.72 8zM94.21 28.22l-.6-.53 7-7.77c.24.21.48.44.72.67l-7.12 7.63zm-.59-.53c.2.17.4.34.59.52l7.12-7.62c-.24-.22-.47-.45-.71-.66l-7 7.76z"/><path class="cls-4" d="M94.78 28.77l-.57-.56 7.13-7.63.7.68-7.25 7.51zm-.56-.56l.56.54 7.22-7.49-.69-.67-7.12 7.62zM93 27.17l6.87-7.89c.24.21.49.42.73.65l-7 7.77-.6-.53zm0 0l.6.51 7-7.75-.72-.64L93 27.17z"/><path class="cls-4" d="M95.36 29.31l-.57-.56 7.21-7.5c.23.23.48.44.71.68l-7.39 7.39zm-.57-.55l.57.54 7.38-7.37-.7-.67-7.25 7.5zM99.56 34.06l-.49-.63 8.18-6.43c.2.25.41.5.6.77l-8.29 6.25zm-.49-.63l.49.62 8.28-6.24c-.19-.26-.4-.51-.59-.76l-8.18 6.38zM7.48 62.36l11.43-.2v.78l-11.41.4v-1zm0 0v1l11.42-.39v-.76l-11.42.19zM100 88.11l.47-.64 8.49 6c-.19.27-.37.53-.57.8L100 88.11zm8.39 6.09l.56-.79-8.48-5.94c-.15.21-.3.43-.46.64l8.38 6.09zM94.21 94.58l.58-.55 7.25 7.52-.72.68-7.11-7.64zm7.11 7.63l.71-.67L94.79 94l-.57.55 7.1 7.63z"/><path class="cls-4" d="M93.61 95.1l.6-.52 7.12 7.64c-.24.23-.47.45-.72.67l-7-7.78zm7 7.77l.71-.66-7.11-7.63-.58.52 7 7.77zM94.78 94l.58-.54 7.38 7.39c-.23.23-.47.45-.71.67L94.78 94zm7.25 7.5l.7-.66-7.37-7.38-.57.54 7.24 7.5z"/><path class="cls-4" d="M95.35 93.49l.57-.56 7.5 7.24c-.23.24-.45.48-.69.71l-7.38-7.38zm7.38 7.37l.68-.7-7.49-7.23-.55.55 7.36 7.38z"/><path class="cls-4" d="M95.91 92.93l.56-.57 7.62 7.11c-.22.24-.45.47-.68.7l-7.5-7.23zm7.5 7.23c.22-.24.45-.47.67-.7l-7.61-7.1c-.18.19-.36.38-.55.56l7.49 7.24zM92.41 96.14l.61-.52 6.86 7.91c-.24.21-.48.43-.74.64l-6.73-8zm6.73 8c.25-.2.49-.42.73-.62L93 95.62c-.2.17-.39.35-.59.51l6.71 8z"/><path class="cls-4" d="M93 95.62l.61-.51 7 7.78c-.24.22-.49.42-.75.64L93 95.62zm6.87 7.89c.24-.22.49-.43.73-.63l-7-7.78-.59.52 6.85 7.89zM91.79 96.63l.63-.49 6.73 8-.76.62-6.6-8.15zm6.6 8.14c.25-.21.5-.42.75-.61l-6.72-8c-.2.17-.41.32-.62.48l6.59 8.15zM96.46 92.35c.18-.19.37-.38.55-.58l7.74 7-.67.71-7.62-7.11zm7.62 7.1l.66-.7-7.73-7c-.17.19-.36.38-.54.57l7.61 7.1z"/><path class="cls-4" d="M97 91.78l.54-.59 7.85 6.81c-.21.25-.42.5-.65.74l-7.74-7zm7.74 7c.22-.24.43-.49.64-.73l-7.84-6.82-.52.59 7.72 7zM98.05 90.59l.53-.6 8.07 6.54c-.21.25-.41.51-.63.76l-8-6.69zm8 6.68c.21-.25.41-.5.62-.74L98.58 90l-.52.59 8 6.69z"/><path class="cls-4" d="M97.53 91.19l.53-.6 8 6.69c-.21.25-.43.5-.65.74l-7.85-6.82zm7.85 6.81l.64-.72-8-6.69-.51.59 7.87 6.82zM99.06 89.37l.5-.63 8.29 6.26c-.19.26-.4.51-.61.77l-8.18-6.39zm8.18 6.38l.6-.76-8.28-6.25c-.16.21-.32.42-.49.62l8.17 6.39z"/><path class="cls-4" d="M98.57 90c.17-.2.32-.42.5-.62l8.18 6.4-.61.77L98.57 90zm8.07 6.52l.6-.75-8.17-6.39c-.16.2-.32.41-.49.61l8.06 6.53zM99.55 88.74l.49-.63 8.39 6.11c-.2.26-.38.52-.59.78l-8.29-6.25zm8.29 6.26c.2-.26.38-.52.58-.77L100 88.11l-.48.63 8.32 6.26zM103.05 39.35l-.39-.7 9-5.16c.16.28.33.56.48.85l-9 5zm-.39-.7l.39.69 9-5c-.15-.29-.32-.57-.47-.84l-9 5.15z"/><path class="cls-4" d="M103.44 40c-.13-.23-.27-.46-.39-.7l9-5c.15.29.31.57.46.87L103.44 40zm-.38-.7c.12.23.26.46.38.69l9.11-4.84c-.15-.29-.31-.57-.46-.85l-9 5zM101.82 37.31l-.43-.68 8.69-5.63c.18.27.35.54.52.82l-8.77 5.49zm-.42-.68c.15.22.29.44.43.66l8.77-5.47c-.18-.27-.35-.54-.52-.81l-8.68 5.62zM102.65 38.66c-.14-.23-.27-.46-.4-.69l8.87-5.33c.17.28.33.56.49.86l-9 5.16zm-.39-.69l.4.68 8.94-5.16-.48-.84-8.86 5.35zM103.81 40.74l-.36-.72 9.12-4.84c.16.28.3.57.44.87l-9.19 4.69zm-.36-.71l.36.7 9.19-4.67-.43-.86-9.12 4.8zM105.77 45.08l-.29-.75 9.52-3.85c.12.3.24.61.35.92l-9.61 3.69zm-.29-.74c.1.24.19.49.29.74l9.61-3.69c-.12-.3-.24-.6-.35-.9l-9.55 3.85z"/><path class="cls-4" d="M105.48 44.34l-.3-.74 9.5-4c.13.3.24.6.36.91l-9.55 3.86zm-.31-.73c.11.24.21.48.31.73l9.52-3.85-.35-.9-9.5 4z"/><path class="cls-4" d="M105.17 43.61c-.1-.24-.22-.48-.32-.73l9.43-4.19c.13.3.27.59.4.9l-9.5 4zm-.32-.73c.11.24.22.48.32.72l9.49-4c-.13-.3-.27-.59-.4-.88l-9.41 4.18zM104.52 42.16c-.12-.24-.23-.48-.35-.73l9.29-4.52c.14.29.28.59.41.89l-9.34 4.36zm-.35-.71c.12.23.23.47.35.7l9.33-4.34c-.13-.3-.27-.59-.4-.88l-9.28 4.52z"/><path class="cls-4" d="M104.84 42.89c-.1-.24-.21-.49-.32-.73l9.36-4.36c.13.3.27.59.39.9l-9.42 4.19zm-.32-.73c.11.24.22.48.32.72l9.42-4.18c-.14-.3-.27-.6-.4-.89l-9.34 4.35zM104.17 41.45l-.36-.71 9.19-4.69c.14.29.3.58.44.88l-9.28 4.53zm-.36-.71l.36.7 9.27-4.51c-.14-.3-.3-.58-.44-.87l-9.19 4.68zM102.25 38l-.43-.68 8.79-5.49c.17.28.35.55.51.84L102.25 38zm-.42-.67c.14.22.29.44.42.66l8.86-5.31c-.16-.28-.34-.55-.5-.82l-8.78 5.47zM101.4 36.64L101 36l8.61-5.8c.18.27.35.55.52.83l-8.68 5.63zM101 36c.15.21.29.43.44.65l8.63-5.65c-.18-.27-.34-.55-.51-.81L101 36zM107.64 51.15l-.18-.78 10-2.48c.08.31.15.63.22 1l-10 2.31zm-.17-.78c.07.26.12.52.18.77l10-2.3c-.08-.32-.14-.63-.21-.94l-10 2.47zM108.64 57.43c0-.27 0-.53-.06-.8l10.21-1.07c0 .32.06.65.07 1l-10.22.89zm-.06-.8c0 .26 0 .53.07.79l10.21-.89c0-.32 0-.65-.08-1l-10.2 1.06z"/><path class="cls-4" d="M108.58 56.63c0-.27-.07-.53-.09-.8l10.19-1.25c0 .33.09.65.11 1l-10.2 1.07zm-.1-.79c0 .27.07.52.1.79l10.2-1.07c0-.32-.09-.64-.12-1l-10.18 1.24zM108.71 58.22l-.06-.8 10.23-.89c0 .32 0 .65.07 1l-10.23.72zm-.06-.79l.06.78 10.22-.71c0-.32 0-.64-.07-1l-10.21.89zM108.38 55.06c0-.27-.07-.53-.11-.8l10.15-1.6c0 .32.09.65.13 1l-10.16 1.42zm-.11-.79c0 .26.08.52.11.78l10.15-1.42c0-.32-.08-.65-.12-1l-10.14 1.6z"/><path class="cls-4" d="M108.48 55.85c0-.27-.07-.53-.09-.8l10.17-1.42c0 .32.08.64.11 1l-10.18 1.25zm-.1-.79c0 .25.07.52.1.78l10.17-1.24c0-.33-.07-.65-.11-1l-10.16 1.42zM108.81 60.6v-.8l10.26-.35v1l-10.25.18zm0-.79v.78l10.24-.17v-1l-10.24.35z"/><path class="cls-4" d="M108.79 59.81v-.8l10.21-.54v1l-10.25.36zm0-.8v.79l10.21-.35v-1l-10.23.55z"/><path class="cls-4" d="M108.77 59c0-.26 0-.53-.06-.8l10.29-.7c0 .33 0 .65.06 1l-10.29.5zm-.06-.79c0 .26.05.52.06.78l10.23-.51c0-.33-.06-.65-.07-1l-10.23.71zM108.26 54.27c-.05-.26-.1-.52-.14-.79l10.12-1.78c.06.32.12.64.16 1l-10.14 1.61zm-.13-.78c.05.25.1.51.14.77l10.13-1.59c-.05-.33-.12-.64-.17-1l-10.1 1.78zM106.82 48.08c-.08-.25-.17-.5-.25-.76l9.8-3.18c.1.31.2.62.29.94l-9.84 3zm-.24-.76c.08.25.17.5.25.75l9.82-3c-.09-.32-.2-.62-.29-.93l-9.78 3.17z"/><path class="cls-4" d="M107 48.84l-.21-.77 9.85-3c.09.31.17.63.26 1l-9.9 2.78zm-.21-.76c.08.25.14.5.22.76l9.91-2.84c-.09-.31-.18-.62-.26-.93l-9.83 3zM108.12 53.49c-.05-.26-.1-.53-.14-.79l10.09-2c.06.32.11.64.16 1l-10.11 1.78zm-.12-.79c.05.26.09.52.14.78l10.1-1.77c-.06-.32-.11-.64-.17-1L108 52.7zM106.57 47.33c-.09-.25-.17-.51-.25-.76l9.73-3.35c.11.31.21.61.31.93l-9.79 3.18zm-.25-.76l.26.75 9.77-3.17-.3-.92-9.73 3.34z"/><path class="cls-4" d="M106.32 46.57c-.09-.25-.17-.51-.25-.76l9.68-3.52c.11.3.21.61.31.93l-9.73 3.35zm-.26-.75c.09.25.18.5.26.75l9.68-3.34c-.11-.31-.2-.62-.3-.92l-9.68 3.51zM107.26 49.61l-.21-.77 9.88-2.84c.09.31.18.62.26.94l-9.93 2.67zm-.21-.77c.07.25.15.51.21.76l9.92-2.6c-.08-.32-.17-.62-.25-.93l-9.88 2.82zM107.82 51.93c0-.26-.11-.52-.17-.78l10-2.31c.07.32.15.63.21 1l-10.05 2.13zm-.17-.78l.18.77 10-2.13c-.07-.32-.15-.63-.21-.94l-10 2.3z"/><path class="cls-4" d="M107.47 50.38c-.07-.26-.14-.52-.2-.78l9.93-2.6c.08.31.16.62.24.95l-10 2.48zm-.2-.77c.06.25.13.5.2.76l10-2.48-.24-.94-9.92 2.66zM108 52.71c0-.26-.11-.52-.16-.79l10.06-2.13c.07.31.13.64.18 1l-10.08 2zm-.15-.79c.06.26.11.52.16.78l10.07-2c-.07-.32-.13-.64-.19-1l-10 2.12zM106.06 45.82c-.09-.25-.19-.5-.29-.75l9.63-3.69c.11.3.24.6.35.92l-9.68 3.52zm-.29-.74c.1.25.2.49.29.73l9.67-3.51c-.12-.3-.24-.6-.35-.9l-9.61 3.68zM100.49 87.47c.15-.22.31-.43.47-.65l8.59 5.81c-.18.27-.37.52-.57.79l-8.49-5.94zM109 93.4l.56-.78-8.56-5.8c-.15.21-.3.43-.46.64L109 93.4zM107.82 70.87c.05-.27.1-.52.16-.79l10.09 2c-.06.32-.12.64-.2 1l-10.05-2.14zm10 2.13c.07-.32.13-.64.2-1l-10.07-2c0 .26-.1.51-.16.77l10 2.14z"/><path class="cls-4" d="M107.64 71.65l.18-.78L117.88 73c-.07.32-.15.64-.23 1l-10-2.31zm10 2.3c.07-.32.15-.63.22-.94l-10-2.14-.18.77 10 2.31zM108.26 68.53c0-.26.07-.52.12-.79l10.17 1.43c0 .33-.09.65-.15 1l-10.14-1.6zm10.14 1.6c0-.32.09-.65.14-1l-10.16-1.43c0 .26-.07.51-.11.77l10.13 1.62z"/><path class="cls-4" d="M108.12 69.31c0-.26.09-.52.14-.79l10.15 1.62q-.07.48-.18 1l-10.11-1.78zm10.11 1.78c0-.33.12-.64.17-1l-10.13-1.61c0 .26-.09.52-.14.78l10.1 1.79zM107.46 72.42q.09-.37.18-.78l10 2.32c-.07.32-.14.64-.23 1l-10-2.49zm10 2.48c.08-.32.14-.64.22-.94l-10-2.32c-.06.26-.11.51-.18.77l10 2.49z"/><path class="cls-4" d="M108 70.09c0-.26.09-.53.14-.79l10.12 1.79c-.06.32-.11.64-.18 1l-10.08-2zm10.07 2c.07-.32.12-.64.18-1l-10.1-1.78c0 .25-.09.51-.14.77l10.06 2zM107.26 73.19c.07-.26.14-.51.22-.77l10 2.49c-.08.32-.16.63-.25.95l-9.93-2.66zm9.92 2.65c.09-.31.17-.63.25-.93l-10-2.49c-.06.25-.13.5-.2.76l9.91 2.66zM106.57 75.47c.08-.25.17-.5.26-.76l9.84 3c-.1.31-.2.62-.31.93l-9.79-3.18zm9.78 3.17c.1-.31.21-.61.31-.92l-9.83-3c-.08.25-.17.5-.25.75l9.77 3.18z"/><path class="cls-4" d="M106.32 76.22c.09-.24.17-.49.26-.75l9.79 3.19c-.09.31-.2.61-.32.92l-9.72-3.35zm9.68 3.34c.11-.3.21-.61.32-.91l-9.78-3.18c-.08.25-.17.5-.25.74l9.71 3.35zM107 74l.23-.77 9.93 2.67c-.08.31-.17.62-.27.94L107 74zm9.88 2.83l.27-.93-9.92-2.67c-.07.26-.15.51-.22.76l9.87 2.84z"/><path class="cls-4" d="M106.82 74.72c.07-.25.14-.51.22-.77l9.89 2.84c-.09.31-.17.63-.27.94l-9.84-3zm9.83 3c.1-.31.18-.63.27-.93L107.05 74c-.07.25-.14.51-.22.76l9.82 3zM108.38 67.74c0-.26.07-.52.11-.79l10.19 1.26c0 .32-.08.64-.13 1l-10.16-1.43zm10.15 1.42c0-.32.09-.64.13-1L108.48 67c0 .26-.06.52-.1.78l10.15 1.43zM108.81 62.2v-.8h10.29v1l-10.25-.18zm10.25.17v-1h-10.22v.78l10.24.19z"/><path class="cls-4" d="M108.79 63v-.8l10.26.19v1L108.79 63zm10.24.35v-1l-10.24-.19v.79l10.23.36z"/><path class="cls-4" d="M108.77 63.79v-.8l10.26.36v1l-10.24-.53zm10.24.53v-1L108.8 63v.79l10.24.55zM108.82 61.4v-.8l10.26-.17v1h-10.26zm0 0h10.25v-1l-10.24.18v.78zM106.06 77c.09-.25.17-.5.27-.76l9.73 3.36c-.1.31-.2.62-.32.93L106.06 77zm9.67 3.52c.11-.31.2-.62.31-.92l-9.72-3.35c-.08.25-.16.5-.25.74l9.66 3.53zM108.48 67c0-.27.07-.53.11-.8l10.21 1.08c0 .33-.08.64-.13 1L108.48 67zm10.17 1.25c0-.33.1-.65.13-1l-10.2-1.08c0 .26-.06.52-.1.78l10.17 1.26z"/><path class="cls-4" d="M108.7 64.58c0-.26 0-.53.07-.8l10.25.55c0 .32 0 .64-.08 1l-10.24-.72zm10.23.71c0-.33.06-.65.08-1l-10.24-.54c0 .26 0 .52-.06.79l10.22.72zM108.58 66.16c0-.26 0-.53.08-.8l10.22.9c0 .32-.05.65-.09 1l-10.2-1.08zm10.2 1.07c0-.32 0-.65.08-1l-10.21-.9c0 .26 0 .52-.07.78l10.2 1.08z"/><path class="cls-4" d="M108.64 65.37c0-.27 0-.53.07-.81l10.24.73c0 .32 0 .65-.09 1l-10.22-.9zm10.22.89c0-.32 0-.65.08-1l-10.23-.73c0 .26 0 .53-.06.79l10.21.9zM105.76 77.71l.3-.75 9.68 3.53c-.11.31-.24.61-.36.92l-9.62-3.7zm9.62 3.69c.11-.31.24-.61.35-.9l-9.67-3.5c-.09.25-.19.49-.29.73l9.61 3.7zM101 86.82c.15-.22.29-.44.45-.66l8.68 5.65c-.18.27-.34.55-.53.82l-8.6-5.8zm8.59 5.79c.18-.27.35-.55.53-.81l-8.67-5.64c-.14.22-.29.44-.44.65l8.58 5.8z"/><path class="cls-4" d="M101.39 86.16l.44-.67 8.78 5.5-.54.82-8.68-5.64zm8.68 5.63c.18-.27.35-.55.53-.81l-8.77-5.49c-.14.22-.28.44-.43.66l8.67 5.64z"/><path class="cls-4" d="M101.82 85.5c.14-.22.29-.44.43-.67l8.87 5.34c-.16.28-.34.55-.52.83l-8.78-5.48zm8.78 5.5l.51-.82-8.85-5.33c-.14.23-.29.44-.43.67L110.6 91zM104.16 81.35l.36-.72 9.35 4.37c-.14.29-.28.59-.43.88l-9.28-4.52zm9.28 4.52l.42-.88-9.34-4.36c-.11.24-.23.47-.35.71l9.27 4.53z"/><path class="cls-4" d="M104.51 80.63l.33-.72 9.43 4.2c-.13.3-.27.59-.41.89l-9.35-4.36zm9.34 4.37c.14-.29.27-.59.41-.88l-9.41-4.19c-.11.24-.21.48-.33.71l9.33 4.36z"/><path class="cls-4" d="M104.84 79.91c.12-.24.23-.48.34-.73l9.5 4c-.13.3-.27.59-.41.89l-9.42-4.19zm9.42 4.19c.13-.3.27-.59.4-.88l-9.49-4c-.1.24-.21.48-.32.72l9.41 4.2zM105.47 78.45c.1-.24.19-.49.3-.74l9.62 3.7c-.12.3-.24.61-.37.91l-9.55-3.86zM115 82.3l.36-.89-9.61-3.7c-.09.25-.19.49-.29.73L115 82.3z"/><path class="cls-4" d="M105.17 79.19l.32-.74 9.51 3.86c-.12.3-.23.6-.37.91l-9.49-4zm9.49 4l.36-.9-9.54-3.86-.3.73 9.48 4zM102.65 84.14c.13-.23.26-.46.4-.69l9 5c-.16.29-.33.57-.5.85l-8.95-5.17zm8.95 5.16l.49-.84-9-5-.4.68 8.94 5.17z"/><path class="cls-4" d="M103.05 83.45c.13-.23.27-.45.4-.69l9.12 4.85c-.15.29-.31.58-.47.86l-9-5zm9 5c.16-.28.32-.56.47-.84l-9.1-4.85-.39.68 9 5zM103.8 82.05c.12-.23.24-.47.37-.7l9.28 4.53q-.21.43-.45.87l-9.2-4.69zm9.2 4.68c.15-.29.31-.57.45-.86l-9.27-4.52-.36.7 9.18 4.68zM102.25 84.83c.13-.23.26-.46.4-.69l9 5.17c-.16.29-.32.57-.5.85l-8.86-5.32zm8.86 5.31c.17-.27.33-.56.49-.83l-8.94-5.17-.4.68 8.85 5.32z"/><path class="cls-4" d="M103.44 82.76c.13-.23.25-.47.38-.71l9.2 4.7c-.15.29-.29.58-.46.87l-9.11-4.85zm9.11 4.84l.45-.86-9.19-4.69-.36.7 9.1 4.85zM8.14 70.12l11.29-1.79c0 .25.1.51.13.77l-11.25 2c-.06-.32-.12-.64-.17-1zm0 0c0 .32.11.63.16 1l11.25-2c0-.25-.1-.5-.14-.75L8.15 70.13z"/><path class="cls-4" d="M8 69.16l11.31-1.59c0 .26.06.51.1.78L8.14 70.13c-.05-.32-.09-.65-.13-1zm0 0c0 .32.08.65.12 1l11.28-1.78c0-.25-.07-.51-.1-.76L8 69.16z"/><path class="cls-4" d="M7.88 68.19l11.35-1.39c0 .26.07.52.1.78L8 69.16l-.12-1zm0 0l.12 1 11.31-1.59c0-.25-.07-.5-.1-.76L7.89 68.2zM8.31 71.08l11.25-2c.05.25.09.51.13.77l-11.21 2.2c-.06-.32-.12-.64-.17-1zm0 0c0 .32.11.65.16 1l11.21-2.17c0-.25-.09-.51-.13-.76l-11.24 2z"/><path class="cls-4" d="M8.48 72l11.22-2.14c.05.26.09.51.14.77L8.67 73c-.07-.32-.13-.63-.19-1zm0 0l.18.95 11.17-2.36c-.05-.25-.1-.51-.14-.76L8.49 72zM7.76 67.22L19.13 66c0 .25.06.5.09.77L7.88 68.2c0-.33-.09-.64-.12-1zm0 0c0 .32.08.64.11 1l11.35-1.42c0-.25-.07-.5-.1-.76L7.77 67.23zM7.51 63.33l11.42-.39v.79l-11.42.59v-1zm0 0v1L19 63.72v-.77l-11.42.39z"/><path class="cls-4" d="M7.54 64.31l11.46-.6c0 .26 0 .51.05.78l-11.45.8c0-.33-.06-.65-.06-1zm0 0c0 .32 0 .64.07 1L19 64.49c0-.26 0-.51-.05-.77l-11.41.6zM8.67 73l11.17-2.37c.06.25.12.5.17.76L8.89 74c-.08-.32-.16-.63-.22-1zm0 0c.07.32.15.63.21.94L20 71.38c-.05-.25-.12-.49-.17-.75L8.68 73zM7.68 66.25l11.39-1c0 .26 0 .52.05.78l-11.36 1.2c0-.32-.06-.65-.08-1zm0 0c0 .32 0 .65.07 1L19.12 66l-.06-.77-11.37 1zM10.81 42.3c.11-.31.23-.6.36-.91l10.63 4.08c-.09.24-.19.48-.28.73l-10.71-3.9zm0 0l10.71 3.9.27-.72-10.62-4.08-.36.89z"/><path class="cls-4" d="M10.49 43.22c.11-.3.21-.61.32-.92l10.72 3.9c-.09.24-.17.48-.26.73l-10.78-3.71zm0 0l10.78 3.72c.08-.25.15-.49.24-.73L10.82 42.3c-.11.31-.21.62-.32.92z"/><path class="cls-4" d="M10.18 44.15c.1-.31.21-.62.32-.93l10.78 3.71c-.08.25-.17.49-.26.74l-10.84-3.52zm0 0L21 47.67l.24-.73-10.73-3.71c-.11.3-.22.61-.32.91zM11.16 41.39c.11-.3.23-.6.36-.91l10.57 4.27c-.09.24-.19.48-.29.73l-10.64-4.1zm0 0l10.64 4.09c.09-.25.18-.48.28-.72l-10.55-4.27-.36.9zM18.12 28.59c.19-.26.38-.53.58-.79l9 6.81-.46.64-9.16-6.67zm0 0l9.15 6.66c.15-.21.29-.42.45-.63l-9-6.81c-.19.26-.38.53-.57.78zM17 30.18c.18-.27.38-.53.57-.8l9.28 6.5-.44.64L17 30.18zm0 0l9.39 6.34.44-.64-9.27-6.49c-.18.27-.38.53-.56.79z"/><path class="cls-4" d="M17.55 29.38c.19-.26.38-.53.58-.79l9.16 6.66-.46.64-9.28-6.51zm0 0l9.27 6.5.45-.63-9.14-6.65c-.19.26-.38.53-.57.78zM16.46 31c.18-.27.35-.55.54-.82l9.4 6.34c-.14.22-.27.44-.42.65L16.46 31zm0 0L26 37.17l.42-.64L17 30.19c-.18.26-.35.54-.53.81zM11.88 39.58c.13-.3.27-.59.41-.89l10.4 4.63c-.1.24-.21.47-.32.71l-10.49-4.45zm0 0L22.36 44c.1-.24.21-.47.31-.7l-10.38-4.6c-.13.3-.27.59-.4.88zM13.1 36.92q.21-.44.45-.87l10.13 5.16-.36.7-10.22-5zm0 0l10.22 5c.11-.23.23-.46.35-.69l-10.12-5.17-.45.86z"/><path class="cls-4" d="M15.94 31.82c.17-.28.35-.55.53-.82L26 37.17l-.43.66-9.62-6zm0 0l9.61 6c.13-.22.27-.43.41-.65L16.48 31l-.53.8zM12.68 37.8c.14-.29.27-.59.42-.88l10.22 5c-.11.24-.21.48-.33.71L12.68 37.8zm0 0L23 42.62c.1-.24.2-.48.31-.71l-10.2-5c-.14.29-.28.59-.42.87z"/><path class="cls-4" d="M12.28 38.69c.13-.29.26-.59.41-.89L23 42.61l-.33.71-10.4-4.64zm0 0l10.39 4.63.31-.7-10.3-4.81c-.13.29-.26.59-.4.88zM11.52 40.49c.12-.31.23-.61.37-.91L22.37 44c-.1.23-.19.48-.3.72l-10.55-4.23zm0 0l10.55 4.27c.1-.23.18-.48.28-.71l-10.46-4.47c-.13.3-.24.61-.36.9zM13.54 36.06c.15-.29.29-.59.45-.87l10 5.33-.37.7-10.08-5.16zm0 0l10.12 5.17.35-.69L14 35.19c-.16.29-.3.58-.45.86zM14.94 33.49c.16-.28.31-.57.49-.85l9.74 5.85-.4.68-9.83-5.69zm0 0l9.83 5.68.38-.67-9.72-5.85c-.16.28-.32.56-.49.84z"/><path class="cls-4" d="M15.42 32.64l.53-.82 9.61 6-.41.67-9.74-5.86zm0 0l9.73 5.85.39-.66-9.6-6c-.17.28-.35.55-.52.82zM14.45 34.33c.16-.28.32-.56.5-.84l9.83 5.67-.39.68-9.94-5.52zm0 0l9.92 5.51c.12-.22.26-.44.39-.67L15 33.5l-.49.83z"/><path class="cls-4" d="M14 35.19c.16-.29.31-.57.48-.86l9.93 5.51c-.12.23-.23.46-.36.7L14 35.19zm0 0l10 5.33.36-.68-9.92-5.5-.47.85zM15.94 91l9.62-6c.13.22.27.43.41.66l-9.52 6.17c-.18-.27-.35-.54-.52-.83zm0 0l.52.81L26 85.62c-.14-.22-.28-.43-.41-.65L16 91zM15.42 90.14l9.74-5.85c.13.22.26.44.39.68l-9.62 6c-.18-.27-.35-.54-.52-.83zm0 0c.17.28.35.55.51.82l9.61-6c-.13-.21-.26-.44-.39-.66l-9.73 5.84z"/><path class="cls-4" d="M16.46 91.78L26 85.61l.41.66L17 92.61c-.18-.27-.35-.55-.53-.83zm0 0l.52.82 9.4-6.33c-.14-.22-.28-.43-.41-.65l-9.51 6.16zM17.55 93.39l9.28-6.49c.14.21.3.42.45.64l-9.16 6.66c-.2-.27-.38-.53-.57-.81zm0 0l.56.8 9.16-6.65-.45-.63-9.27 6.48zM14.94 89.29l9.83-5.67c.13.22.26.45.38.68l-9.74 5.85c-.17-.28-.32-.57-.48-.86zm0 0c.16.28.32.56.47.84l9.73-5.84-.38-.67L15 89.3z"/><path class="cls-4" d="M17 92.6l9.4-6.34c.15.21.29.43.44.65l-9.29 6.49c-.18-.26-.38-.52-.56-.8zm0 0c.18.27.38.53.55.79l9.28-6.48-.44-.64L17 92.6zM14.45 88.45l9.94-5.51c.13.22.26.44.39.68l-9.84 5.68c-.17-.28-.33-.56-.49-.85zm0 0c.16.29.33.56.48.84l9.83-5.67c-.13-.22-.26-.44-.38-.66l-9.93 5.49zM13.1 85.86l10.22-5c.11.23.23.46.35.7l-10.13 5.18c-.15-.29-.3-.58-.44-.88zm0 0l.43.87 10.13-5.16c-.12-.22-.24-.45-.35-.68l-10.21 5z"/><path class="cls-4" d="M12.68 85L23 80.17c.11.24.21.48.31.71l-10.22 5c-.15-.29-.28-.59-.42-.89zm0 0c.14.3.28.59.41.88l10.22-5a8.84 8.84 0 01-.32-.7L12.69 85zM13.54 86.73l10.13-5.16c.12.23.24.46.35.7L14 87.6c-.15-.28-.29-.57-.44-.87zm0 0c.15.29.29.58.44.86l10-5.32-.35-.69-10.08 5.15z"/><path class="cls-4" d="M14 87.59l10-5.33c.13.23.24.46.36.7l-9.94 5.5c-.16-.29-.31-.57-.46-.87zm0 0l.45.85L24.38 83c-.12-.22-.23-.45-.35-.68L14 87.6zM12.28 84.09l10.4-4.63c.1.24.21.47.32.72L12.68 85c-.14-.3-.27-.59-.4-.9zm0 0c.13.3.27.6.39.89L23 80.18c-.11-.24-.22-.47-.32-.7l-10.39 4.61zM21.79 98.73l8.39-7.56.51.6-8.25 7.68-.66-.72zm0 0l.65.71 8.24-7.67-.51-.58-8.37 7.54zM18.12 94.19l9.16-6.66.45.65-9 6.8c-.2-.26-.38-.52-.57-.79zm0 0c.19.26.37.53.56.78l9-6.8-.45-.62-9.15 6.64z"/><path class="cls-4" d="M21.15 98l8.52-7.4.51.6-8.4 7.55c-.22-.24-.43-.49-.64-.75zm0 0l.63.74 8.39-7.55c-.17-.19-.34-.38-.5-.58L21.16 98zM23.12 100.15l8.11-7.83.54.57-8 8c-.23-.23-.45-.47-.68-.71zm0 0c.23.23.45.47.67.7l8-8c-.18-.18-.36-.37-.53-.56l-8.11 7.82z"/><path class="cls-4" d="M22.45 99.44l8.25-7.68.53.57-8.12 7.83c-.22-.24-.45-.47-.67-.72zm0 0l.66.71 8.11-7.82c-.18-.19-.36-.37-.53-.56l-8.24 7.67zM19.29 95.74l8.91-7 .48.62-8.8 7.12-.6-.78zm0 0c.2.26.4.51.59.77l8.79-7.11-.47-.6-8.9 6.94z"/><path class="cls-4" d="M18.69 95l9-6.81.47.62-8.92 7-.6-.78zm0 0l.59.76 8.91-6.95-.47-.61-9 6.8zM20.51 97.26L29.16 90l.51.6-8.52 7.4c-.21-.24-.43-.48-.64-.74zm0 0l.63.73 8.52-7.39c-.17-.2-.34-.38-.5-.58l-8.65 7.24z"/><path class="cls-4" d="M19.89 96.51l8.79-7.12.48.62-8.66 7.26-.62-.76zm0 0c.21.25.42.5.61.75L29.16 90l-.47-.6-8.79 7.1zM10.19 78.64L21 75.11l.24.74-10.75 3.72c-.1-.31-.21-.61-.3-.93zm0 0c.1.31.21.61.31.92l10.78-3.7a31.9 31.9 0 01-.25-.73l-10.84 3.51zM10.81 80.48l10.72-3.9c.08.24.18.48.27.73L11.16 81.4c-.12-.3-.24-.6-.35-.92zm0 0l.34.9 10.65-4.06q-.15-.36-.27-.72l-10.71 3.89z"/><path class="cls-4" d="M10.5 79.56l10.78-3.71.24.74-10.72 3.9c-.12-.3-.21-.61-.31-.93zm0 0l.3.91 10.71-3.89-.24-.73-10.76 3.72zM11.88 83.2l10.49-4.45c.1.24.2.48.31.72l-10.4 4.63c-.13-.3-.28-.59-.4-.9zm0 0c.13.29.27.59.39.88l10.4-4.62c-.11-.23-.21-.47-.31-.7l-10.47 4.45z"/><path class="cls-4" d="M11.52 82.3L22.08 78c.1.24.19.49.28.73l-10.48 4.48c-.13-.3-.24-.6-.36-.91zm0 0c.12.3.23.61.35.9l10.48-4.44c-.09-.24-.18-.48-.28-.72L11.53 82.3z"/><path class="cls-4" d="M11.16 81.39l10.64-4.08c.09.24.19.48.28.73l-10.56 4.27c-.13-.31-.25-.61-.36-.92zm0 0c.12.31.24.61.35.91L22.08 78c-.1-.24-.19-.48-.28-.72l-10.63 4.11zM9.62 76.77l11-3.14.21.76-10.95 3.33c-.09-.31-.17-.63-.26-1zm0 0c.09.31.17.62.26.93l10.92-3.32c-.08-.24-.14-.49-.21-.74l-11 3.14z"/><path class="cls-4" d="M9.35 75.84l11-3c.06.25.14.49.2.75l-11 3.14c-.09-.31-.19-.62-.27-.94zm0 0c.09.32.18.63.26.93l11-3.13c-.06-.25-.14-.49-.2-.74l-11 2.94z"/><path class="cls-4" d="M9.11 74.89l11.08-2.76.18.77-11 2.94c-.08-.31-.17-.62-.24-1zm0 0c.08.31.16.63.23.94l11-3c-.07-.25-.13-.5-.19-.74L9.12 74.9z"/><path class="cls-4" d="M8.89 73.94L20 71.37c0 .25.11.5.16.76L9.1 74.9q-.11-.47-.21-1zm0 0l.21.94 11.08-2.75-.18-.74L8.9 74zM9.89 77.71l10.91-3.34c.08.24.15.49.23.75l-10.85 3.52c-.1-.3-.2-.61-.29-.93zm0 0c.09.32.19.62.28.93L21 75.12c-.08-.24-.15-.49-.23-.73L9.9 77.71zM7.61 65.28l11.4-.8c0 .26 0 .51.05.78l-11.39 1c0-.32-.06-.65-.07-1zm0 0c0 .32 0 .64.07 1l11.38-1-.06-.78-11.39.79zM87.93 99.38l.67-.43 5.89 8.74-.83.53-5.73-8.83zm5.73 8.82l.82-.52L88.6 99l-.66.42 5.72 8.83zM86.58 100.2l.69-.39 5.58 8.93-.84.52-5.43-9zm5.43 9l.83-.51-5.57-8.92-.68.39 5.42 9z"/><path class="cls-4" d="M87.26 99.8c.23-.13.45-.28.68-.42l5.73 8.84-.83.52-5.58-8.94zm5.58 8.92l.82-.51-5.73-8.83-.66.42 5.57 8.92zM88.59 99l.67-.44 6 8.62c-.26.18-.52.38-.8.56L88.59 99zm5.89 8.72c.27-.18.53-.38.79-.55l-6-8.61-.67.44 5.88 8.72zM89.89 98.05l.66-.45 6.31 8.4-.79.57-6.18-8.5zm6.18 8.49l.78-.56-6.3-8.38-.64.45 6.16 8.49z"/><path class="cls-4" d="M89.25 98.51l.65-.51 6.17 8.51c-.26.2-.52.38-.8.57l-6-8.61zm6 8.6l.79-.56-6.16-8.5-.64.46 6 8.6zM83.09 102.05l.72-.34 4.8 9.43c-.29.15-.58.31-.88.45l-4.64-9.53zm4.64 9.52l.87-.44-4.79-9.42-.71.34 4.63 9.52z"/><path class="cls-4" d="M83.8 101.71l.71-.36 5 9.35-.88.44-4.8-9.42zm4.8 9.41l.87-.43-5-9.34-.7.36 4.79 9.41z"/><path class="cls-4" d="M84.5 101.34c.24-.13.47-.24.72-.36l5.11 9.24-.86.47-5-9.35zm5 9.34l.85-.46-5.14-9.22-.69.35 5 9.34z"/><path class="cls-4" d="M85.2 101c.23-.13.45-.27.69-.39l5.28 9.15c-.28.16-.57.33-.86.48L85.2 101zm5.12 9.22l.85-.48-5.27-9.14-.68.38 5.1 9.23zM82.37 102.38l.73-.32 4.64 9.53-.89.41-4.48-9.61zm4.48 9.6l.88-.41-4.63-9.52c-.24.12-.48.22-.72.33l4.47 9.6z"/><path class="cls-4" d="M85.89 100.6l.7-.39 5.43 9c-.28.17-.56.32-.86.49l-5.27-9.14zm5.28 9.13c.28-.17.57-.32.84-.48l-5.43-9-.67.4 5.26 9.13zM91.17 97.12c.21-.16.41-.33.63-.49l6.59 8.16-.77.59-6.45-8.25zm6.45 8.25l.77-.6-6.59-8.14-.62.48 6.44 8.26z"/><path class="cls-4" d="M90.54 97.59l.64-.48 6.45 8.27-.78.6-6.31-8.39zm6.31 8.41l.77-.6-6.44-8.25-.63.47 6.3 8.38zM79.45 103.59l.74-.29 4 9.87-.92.35-3.81-9.92zm3.82 9.91l.9-.35-4-9.85-.73.29 3.8 9.91zM71.08 105.78l.78-.13 2 10.55-1 .17-1.87-10.58zM73 116.35l1-.16-2-10.54-.77.13L73 116.35zM69.53 106l.79-.1L72 116.54c-.32 0-.65.09-1 .12L69.53 106zM71 116.66l1-.13-1.68-10.63-.78.1L71 116.66z"/><path class="cls-4" d="M70.31 105.9l.79-.11 1.9 10.57-1 .17-1.69-10.63zM72 116.52l1-.16-1.86-10.57-.77.11L72 116.52zM72.63 105.5l.78-.15 2.4 10.45c-.31.07-.63.15-1 .21l-2.23-10.5zm2.24 10.5l.94-.21-2.4-10.44-.76.17L74.87 116zM81.65 102.7l.73-.32 4.48 9.62-.9.4-4.31-9.69zm4.35 9.68l.89-.39-4.47-9.61-.72.32 4.3 9.68zM67.18 106.23h.79l1.12 10.75-1 .07-.94-10.76zm.95 10.77l1-.07L68 106.18l-.77.06.9 10.76zM68.75 106.1l.79-.1L71 116.67l-1 .12-1.25-10.69zm1.32 10.68l1-.12L69.54 106l-.78.1 1.31 10.68z"/><path class="cls-4" d="M66.4 106.29h.79l.94 10.71-1 .07-.75-10.77zm.76 10.76l1-.06-.93-10.75-.78.05.75 10.76z"/><path class="cls-4" d="M65.61 106.32h.79l.75 10.78-1 .07-.57-10.82zm.58 10.81l1-.07-.74-10.76h-.78l.56 10.8zM68 106.17l.79-.07 1.31 10.7c-.33 0-.64.09-1 .12L68 106.17zm1.1 10.73l1-.11-1.3-10.69-.78.08 1.08 10.72zM73.41 105.34l.78-.17 2.58 10.41-1 .21-2.4-10.44zm2.41 10.43l.94-.21-2.58-10.39-.76.17 2.4 10.43zM71.86 105.64l.78-.13L74.87 116l-1 .19-2-10.55zm2.06 10.54l1-.18-2.23-10.49-.76.14 2 10.53zM78.71 103.84l.76-.25 3.8 9.93c-.3.12-.6.24-.92.35l-3.64-10zm3.65 10l.9-.34-3.8-9.92-.74.26 3.64 10zM80.92 103l.74-.3 4.34 9.69c-.3.13-.59.28-.9.4L80.92 103zm4.16 9.77c.3-.12.59-.27.88-.39l-4.3-9.68-.72.3 4.14 9.77z"/><path class="cls-4" d="M74.17 105.16L75 105l2.77 10.34c-.32.09-.63.17-1 .24l-2.59-10.4zm2.6 10.39l.94-.23L75 105l-.76.18 2.58 10.38zM78 104.1l.75-.25 3.64 10c-.3.11-.61.2-.93.31L78 104.1zm3.48 10.07l.91-.31-3.63-10-.74.25 3.46 10.07zM80.19 103.29l.74-.29 4.15 9.8-.91.35-4-9.86zm4 9.85l.9-.35-4.16-9.79-.73.29 4 9.84z"/><path class="cls-4" d="M74.94 105l.77-.2 2.94 10.28-.94.26L74.94 105zm2.77 10.32l.93-.26-2.93-10.27c-.25.07-.5.15-.76.21l2.76 10.32zM77.21 104.35l.75-.25 3.47 10.09-.93.31-3.3-10.14zm3.3 10.13l.92-.31L78 104.1l-.74.25 3.28 10.13z"/><path class="cls-4" d="M75.7 104.78l.76-.21 3.12 10.23-1 .26-2.88-10.28zm3 10.26l.93-.26-3.11-10.21-.75.21L78.65 115z"/><path class="cls-4" d="M76.46 104.56l.77-.21 3.29 10.15c-.31.1-.62.21-.94.3l-3.12-10.23zm3.13 10.22l.92-.29-3.29-10.14-.75.22 3.12 10.21zM64.83 106.34h.8l.56 10.82h-1l-.38-10.82zm.38 10.82h1l-.56-10.81h-.78l.37 10.82zM36.2 110.21l5.4-9.75.68.4-5.23 9.82-.86-.47zm0 0l.85.47 5.22-9.81c-.22-.12-.44-.26-.67-.38l-5.4 9.72zM23.8 100.85l8-8 .55.56-7.83 8.1c-.23-.23-.47-.45-.7-.69zm0 0c.22.23.47.45.69.68l7.82-8.09-.55-.54-8 7.95z"/><path class="cls-4" d="M24.5 101.53l7.81-8.1.57.55-7.68 8.23-.71-.68zm0 0l.7.67 7.68-8.2-.56-.53-7.81 8.08zM64.05 106.36h.79l.37 10.83h-1l-.18-10.83zm.19 10.82h1l-.37-10.82h-.78l.18 10.81zM49.76 115.55l2.66-10.66.76.19-2.48 10.7c-.32-.07-.63-.14-1-.23zm0 0l1 .22 2.47-10.69-.75-.18-2.67 10.65z"/><path class="cls-4" d="M50.71 115.77l2.47-10.69.77.18L51.66 116l-.95-.23zm0 0l.95.22 2.28-10.73-.75-.17-2.48 10.68zM48.81 115.31l2.85-10.63.76.22-2.67 10.67-.95-.25zm0 0l.94.25 2.66-10.65-.75-.21-2.84 10.6zM53.57 116.35l1.9-10.78.78.14-1.72 10.82c-.33 0-.65-.11-1-.18zm0 0l1 .17 1.72-10.8-.77-.14-1.9 10.77zM25.21 102.2l7.67-8.2.56.55-7.53 8.35c-.24-.22-.48-.44-.71-.67zm0 0l.7.66 7.52-8.34-.55-.52-7.66 8.21z"/><path class="cls-4" d="M52.61 116.18l2.09-10.75c.26.06.52.1.78.15l-1.91 10.79c-.32-.06-.65-.11-1-.18zm0 0l1 .17 1.91-10.77-.77-.14-2.09 10.74zM44.17 113.85L48 103.46l.74.29-3.61 10.43c-.3-.1-.61-.2-.92-.32zm0 0l.92.31 3.6-10.42-.73-.27-3.79 10.38z"/><path class="cls-4" d="M45.09 114.16l3.59-10.43.75.26-3.43 10.5c-.31-.11-.62-.21-.93-.33zm0 0l.91.32L49.43 104l-.74-.25-3.59 10.41zM47.88 115l3-10.58.76.22-2.86 10.64-.94-.28zm0 0l.92.27 2.86-10.63-.75-.21-3 10.57z"/><path class="cls-4" d="M46.94 114.78l3.22-10.55c.25.08.5.15.75.24l-3 10.58c-.31-.09-.63-.17-.94-.27zm0 0c.31.1.62.18.93.27l3-10.57-.74-.23L47 114.77z"/><path class="cls-4" d="M46 114.48L49.42 104l.75.26-3.24 10.55-.93-.31zm0 0l.92.31 3.23-10.54-.74-.25L46 114.47zM57.43 116.91l1.14-10.86.78.1L58.4 117c-.32 0-.65 0-1-.08zm0 0c.33 0 .65 0 1 .09l1-10.84-.77-.1-1.23 10.84zM59.37 117.06l.76-10.86.78.07-.57 10.88-1-.08zm0 0l1 .08.58-10.87-.78-.05-.76 10.84z"/><path class="cls-4" d="M60.34 117.14l.57-10.88.79.06-.39 10.86h-1zm0 0h1l.39-10.84h-.78l-.57 10.86z"/><path class="cls-4" d="M61.31 117.16l.38-10.85h.79l-.2 10.86h-1zm0 0h1l.19-10.85h-.77l-.39 10.84z"/><path class="cls-4" d="M62.29 117.19l.19-10.86h.79v10.87h-1zm0 0h1v-10.83h-.78l-.2 10.84z"/><path class="cls-4" d="M63.26 117.21v-10.87h.59-.59v10.86h1l-.18-10.83h-.19a1.33 1.33 0 01.2 0l.18 10.83h-1zM43.26 113.5l4-10.33.73.29-3.79 10.4-.91-.36zm0 0l.9.35L48 103.47l-.72-.29-4 10.32zM56.46 116.78l1.33-10.84.78.11-1.15 10.86c-.32 0-.64-.08-1-.13zm0 0c.32 0 .64.09 1 .13l1.14-10.86-.77-.1-1.33 10.83z"/><path class="cls-4" d="M55.49 116.66L57 105.84c.26 0 .52.06.78.11l-1.33 10.84-1-.13zm0 0l1 .13L57.8 106l-.77-.1-1.53 10.8z"/><path class="cls-4" d="M54.53 116.52l1.71-10.81.78.15-1.52 10.81-1-.15zm0 0l1 .14L57 105.85l-.77-.13-1.71 10.8zM58.4 117l1-10.84.78.07-.77 10.87-1-.09zm0 0l1 .08.77-10.85-.78-.06L58.4 117zM51.66 116l2.28-10.74.77.18-2.1 10.76c-.32-.06-.64-.12-1-.2zm0 0l1 .19 2.1-10.74-.76-.18L51.66 116zM30.46 106.54L37 97.49l.63.46-6.42 9.16c-.27-.19-.54-.37-.8-.57zm0 0c.26.19.53.37.78.56l6.43-9.1-.67-.5-6.57 9z"/><path class="cls-4" d="M29.67 106l6.75-9 .62.49-6.59 9c-.26-.2-.53-.38-.79-.59zm0 0c.26.2.53.38.78.58l6.58-9-.6-.58-6.75 9zM32.05 107.66l6.25-9.27.65.45-6.09 9.36c-.27-.17-.55-.34-.82-.54zm0 0l.81.53L39 98.84c-.22-.14-.43-.29-.64-.44l-6.25 9.26z"/><path class="cls-4" d="M31.25 107.1l6.42-9.16.64.46-6.27 9.27c-.27-.18-.53-.37-.8-.57zm0 0l.79.57 6.26-9.27-.62-.4-6.42 9.15zM42.35 113.14l4.15-10.25.73.3-4 10.33-.91-.37zm0 0l.9.36 4-10.32-.72-.28-4.15 10.24zM26.65 103.5L34 95l.59.51-7.23 8.61-.74-.65zm0 0l.73.64 7.22-8.6L34 95l-7.37 8.46zM32.87 108.19L39 98.83l.65.43-5.92 9.47c-.28-.18-.55-.35-.82-.54zm0 0l.81.53 5.91-9.46c-.21-.14-.43-.27-.64-.42l-6.08 9.35zM28.14 104.76L35.2 96l.61.5-6.91 8.83-.77-.61zm0 0l.76.6 6.9-8.82-.61-.48-7.05 8.7z"/><path class="cls-4" d="M25.92 102.86l7.52-8.35.56.49-7.37 8.48c-.25-.21-.5-.42-.74-.65zm0 0l.72.64L34 95l-.57-.52-7.52 8.34zM27.39 104.14l7.22-8.6.59.52-7.07 8.72c-.25-.21-.5-.41-.75-.63zm0 0l.74.62 7.06-8.71c-.2-.16-.39-.33-.58-.5l-7.22 8.59zM28.91 105.36l6.9-8.83.61.49-6.76 9c-.26-.19-.51-.4-.76-.61zm0 0c.25.2.5.41.75.6L36.42 97l-.61-.48-6.89 8.82zM41.45 112.78l4.33-10.21.72.32-4.15 10.26c-.3-.12-.61-.23-.91-.37zm0 0l.89.36 4.16-10.24-.71-.32-4.33 10.2zM38.79 111.56l4.87-10c.24.11.46.24.7.36L39.68 112l-.89-.43zm0 0c.29.14.59.27.87.42l4.69-10-.69-.36-4.87 10z"/><path class="cls-4" d="M40.56 112.38l4.51-10.13c.24.1.47.21.72.33l-4.35 10.21-.89-.41zm0 0l.88.41 4.34-10.2-.71-.32-4.51 10.11zM37.92 111.12l5-9.91.7.37-4.89 10c-.29-.14-.57-.29-.87-.45zm0 0l.86.45 4.88-10-.69-.35-5 9.88zM33.69 108.72l5.91-9.47.66.43-5.75 9.56c-.28-.16-.56-.34-.83-.52zm0 0l.81.52 5.75-9.55-.65-.41-5.91 9.44z"/><path class="cls-4" d="M39.67 112l4.69-10c.23.12.47.22.71.33l-4.52 10.14-.89-.41zm0 0l.88.41 4.51-10.12-.7-.32-4.69 10zM34.51 109.24l5.75-9.57.67.41-5.58 9.65-.85-.49zm0 0l.84.49 5.57-9.64-.66-.39-5.75 9.54zM35.36 109.72l5.57-9.64c.22.14.45.26.68.4l-5.42 9.75-.84-.5zm0 0l.83.49 5.41-9.74c-.23-.12-.45-.25-.67-.38l-5.57 9.63zM37.06 110.67l5.22-9.82.69.37-5 9.91-.87-.46zm0 0l.85.45 5-9.9c-.23-.11-.46-.23-.68-.36l-5.22 9.81z"/></g></g></svg>