<svg xmlns="http://www.w3.org/2000/svg" viewBox="0 0 78.72 79.07"><defs><style>.cls-1{fill:#04cbf5}.cls-2{opacity:.4}.cls-3{fill:#00cbf5}</style></defs><g id="图层_2" data-name="图层 2"><g id="Layer_1" data-name="Layer 1"><path class="cls-1" d="M1.9 62.1V62h1zm0-.38v-.09h1zm1-.37h-1v-.1h1zm-1-.35v-.1h1zm1-.38h-1v-.12h1zm-1-.38v-.09h1zm0-.38v-.09h1zm1-.37h-1v-.1h1zm-1-.38V59h1zm1-.38h-1v-.09h1zm-1-.38v-.09h1zm0-.37v-.1h1zm1-.38h-1v-.1h1zm-1-.38v-.12h1zm1-.38h-1v-.09h1zm-1-.38v-.09h1zm0-.37V56h1zm1-.38h-1v-.1h1zm-1-.38v-.09h1zm1-.38h-1v-.09h1zm-1-.37v-.1h1zm0-.38v-.1h1zm1-.38h-1v-.1h1zm-1-.38v-.09h1zm1-.37h-1v-.1h1zm-1-.38v-.1h1zm0-.38v-.1h1zm1-.38h-1v-.1h1zm-1-.38v-.09h1zm1-.38h-1v-.09h1zm-1-.37v-.1h1zm0-.38v-.1h1zm1-.38h-1v-.09h1zm-1-.38v-.09h1zm1-.38h-1v-.09h1zm-1-.37v-.1h1zm0-.38v-.09h1zm1-.38h-1V48h1zm-1-.38v-.09h1zM18.53 77.18l-.24-.18.94-1.64.25.15zm-.65-.37l-.24-.15.94-1.66.24.14zm-.66-.38l-.22-.14.94-1.64.25.14zm-.65-.38l-.24-.14.94-1.64.24.14zm-.66-.38l-.24-.14 1-1.64.24.15zm-.65-.38l-.26-.14 1-1.63.25.14zm-.65-.37l-.25-.14 1-1.64.24.14zm-.61-.38l-.24-.14.94-1.64.25.14zm-.65-.38l-.3-.16.95-1.62.24.14zm-.65-.38l-.25-.14.89-1.64.25.15zm-.7-.37l-.25-.15.95-1.63.25.14zm-.66-.41l-.25-.14.91-1.61.25.14zm-.66-.38l-.25-.14 1-1.64.25.14zm-.68-.35l-.25-.14 1-1.64.24.14zm-.66-.38l-.24-.14.94-1.64.24.14zm-.65-.38l-.25-.14.95-1.63.24.14zm-.66-.37L7.82 71l.94-1.64.24.14zm-.65-.38l-.25-.14.98-1.62.24.14zm-.66-.38l-.24-.14.94-1.64.25.15zM19.01 71.7L6.42 64.43v-14.4h.47v14.13l12.12 6.99 12.23-7.06.23.41-12.46 7.2z"/><g class="cls-2"><path class="cls-3" d="M21.42 42.06h-.12a.23.23 0 01-.08-.32l5.86-10.16a.23.23 0 01.32-.08.24.24 0 01.09.32l-5.87 10.12a.22.22 0 01-.2.12z"/></g><g class="cls-2"><path class="cls-3" d="M23.84 43.45h-.12a.24.24 0 01-.09-.32L29.49 33a.24.24 0 01.33-.09.23.23 0 01.08.32L24 43.33a.22.22 0 01-.16.12z"/></g><g class="cls-2"><path class="cls-3" d="M26.25 44.85a.27.27 0 01-.12 0 .24.24 0 01-.08-.33l5.86-10.15a.24.24 0 01.32-.09.25.25 0 01.09.33l-5.86 10.12a.27.27 0 01-.21.12z"/></g><g class="cls-2"><path class="cls-3" d="M28.67 46.24h-.12a.23.23 0 01-.09-.32l5.86-10.16a.24.24 0 01.33-.08.23.23 0 01.08.32l-5.86 10.13a.23.23 0 01-.2.11z"/></g><g class="cls-2"><path class="cls-3" d="M31.08 47.64a.27.27 0 01-.12 0 .24.24 0 01-.08-.33l5.86-10.15a.24.24 0 01.32-.09.24.24 0 01.09.33l-5.86 10.12a.27.27 0 01-.21.12z"/></g><g class="cls-2"><path class="cls-3" d="M57.3 42.06a.25.25 0 01-.21-.12l-5.86-10.15a.22.22 0 01.09-.32.23.23 0 01.32.08l5.86 10.16a.23.23 0 01-.09.32.2.2 0 01-.11.03z"/></g><g class="cls-2"><path class="cls-3" d="M54.88 43.45a.22.22 0 01-.2-.12l-5.87-10.15a.24.24 0 01.09-.32.22.22 0 01.32.09l5.87 10.15a.24.24 0 01-.09.32z"/></g><g class="cls-2"><path class="cls-3" d="M52.47 44.85a.27.27 0 01-.21-.12L46.4 34.58a.24.24 0 11.41-.24l5.86 10.15a.24.24 0 01-.09.33.2.2 0 01-.11.03z"/></g><g class="cls-2"><path class="cls-3" d="M50.05 46.24a.23.23 0 01-.2-.11L44 36a.24.24 0 01.09-.32.23.23 0 01.32.08l5.87 10.16a.24.24 0 01-.09.32z"/></g><g class="cls-2"><path class="cls-3" d="M47.64 47.64a.27.27 0 01-.21-.12l-5.86-10.15a.24.24 0 01.08-.33.24.24 0 01.33.09l5.86 10.15a.24.24 0 01-.09.33.2.2 0 01-.11.03z"/></g><g class="cls-2"><path class="cls-3" d="M45.22 51.82H33.5a.24.24 0 01-.24-.24.23.23 0 01.24-.23h11.72a.23.23 0 01.24.23.24.24 0 01-.24.24z"/></g><g class="cls-2"><path class="cls-3" d="M45.22 54.61H33.5a.24.24 0 01-.24-.24.23.23 0 01.24-.23h11.72a.23.23 0 01.24.23.24.24 0 01-.24.24z"/></g><g class="cls-2"><path class="cls-3" d="M45.22 57.4H33.5a.24.24 0 010-.48h11.72a.23.23 0 01.24.23.24.24 0 01-.24.25z"/></g><g class="cls-2"><path class="cls-3" d="M45.22 60.18H33.5a.23.23 0 01-.24-.23.24.24 0 01.24-.24h11.72a.24.24 0 01.24.24.23.23 0 01-.24.23z"/></g><g class="cls-2"><path class="cls-3" d="M45.22 63H33.5a.23.23 0 01-.24-.23.24.24 0 01.24-.24h11.72a.24.24 0 01.24.24.23.23 0 01-.24.23z"/></g><path class="cls-1" d="M59.71 79.07a.27.27 0 01-.12 0L44 70h-9.3l-15.58 9a.24.24 0 01-.23 0L.12 68.2A.24.24 0 010 68V46.33a.24.24 0 01.12-.21l15.58-9 4.65-8v-18a.24.24 0 01.12-.2L39.24 0a.25.25 0 01.24 0l18.77 10.87a.24.24 0 01.12.2v18l4.65 8 15.58 9a.24.24 0 01.12.21V68a.24.24 0 01-.12.2L59.83 79a.27.27 0 01-.12.07zm-25.07-9.5h9.43a.21.21 0 01.12 0l15.52 9 18.54-10.7V46.46l-15.52-9a.24.24 0 01-.09-.08l-4.72-8.17a.27.27 0 010-.12V11.21L39.36.51l-18.54 10.7v17.92a.27.27 0 010 .12l-4.71 8.17a.24.24 0 01-.09.08L.5 46.5v21.4L19 78.56l15.51-9a.27.27 0 01.13.01z"/><g class="cls-2"><path class="cls-1" d="M71.51 50.14h.94v13.4h-.94z"/></g><g class="cls-2"><path class="cls-1" d="M7.94 50.03h.47v15.19h-.47z"/></g><path class="cls-1" d="M39.36 39.19l-15-8.64V13.27l15-8.64 15 8.64v17.28zM25.34 30l14 8.1 14-8.1V13.82l-14-8.1-14 8.1zM19 74.44L4 65.8V48.52l15-8.64 15 8.64V65.8zM5 65.26l14 8.09 14-8.09V49.07L19 41 5 49.07zM59.71 74.44l-15-8.64V48.52l15-8.64 15 8.64V65.8zm-14-9.18l14 8.09 14-8.09V49.07l-14-8.1-14 8.1z"/><path class="cls-1" d="M19 40.9a.5.5 0 01-.24-.06.47.47 0 01-.17-.65L24.46 30a.48.48 0 01.65-.18.49.49 0 01.17.65l-5.86 10.19a.47.47 0 01-.42.24zM59.71 40.9a.47.47 0 01-.41-.24l-5.86-10.15a.47.47 0 11.82-.47l5.86 10.15a.48.48 0 01-.17.65.53.53 0 01-.24.06zM45.22 66H33.5a.48.48 0 110-1h11.72a.48.48 0 010 1z"/><path class="cls-1" d="M45.22 66H33.5a.48.48 0 110-1h11.72a.48.48 0 010 1zM33.5 49.27a.42.42 0 01-.24-.07.47.47 0 01-.17-.64L39 38.4a.48.48 0 01.82.48L33.91 49a.49.49 0 01-.41.27z"/><path class="cls-1" d="M45.22 49.27a.49.49 0 01-.41-.24L39 38.88a.48.48 0 01.82-.48l5.86 10.16a.47.47 0 01-.17.64.44.44 0 01-.29.07z"/><path class="cls-1" d="M45.22 49.27H33.5a.49.49 0 01-.48-.48.48.48 0 01.48-.47h11.72a.48.48 0 010 1z"/></g></g></svg>