<svg xmlns="http://www.w3.org/2000/svg" viewBox="0 0 80.8 80.8"><g data-name="图层 2"><path d="M40.4 80.8A40.44 40.44 0 010 40.4a40.4 40.4 0 0180.8 0 40.44 40.44 0 01-40.4 40.4zm-.14-.49a.2.2 0 00.14.09 1.47 1.47 0 00.5-.09zm3.88-.41h.38a17.89 17.89 0 003.14-1.07H45.9a10.48 10.48 0 01-1.76 1.07zm-2 0h1a9.62 9.62 0 002.09-1.07h-2.35a6.46 6.46 0 01-.79 1.07zm-2 0h1.5a4.74 4.74 0 00.88-1.07h-2.76a6.24 6.24 0 00.29 1.07zm-1.68 0h1.24a9 9 0 01-.31-1.07h-2.56a6.7 6.7 0 001.54 1.07zm-1.48 0h.72a7.89 7.89 0 01-1.31-1.07h-2.17a14 14 0 002.67 1.07zM32 78.83a22.48 22.48 0 003.57 1.06 14.41 14.41 0 01-2.21-1.06zm16.56 0a20.23 20.23 0 01-2 .88 28.44 28.44 0 003-.88zm-18.17 0c.67.22 1.34.41 2 .58-.5-.18-1-.37-1.47-.58zm20.31 0l-.49.19.64-.19zm1-.4h.4a35.65 35.65 0 004.71-2h-1.23a30.76 30.76 0 01-3.86 2zm-2.35 0h1.3a29.69 29.69 0 004.13-2h-2.35a23.33 23.33 0 01-3.06 2zm-2.95 0h2.09a21.46 21.46 0 003.27-2h-3.29a16.81 16.81 0 01-2.05 2zm-3.31 0h2.71a15 15 0 002.17-2H44a16.77 16.77 0 01-.89 2zm-3.44 0h3a14.8 14.8 0 00.92-2h-4.22c.11.78.21 1.45.32 2zm-3.26 0h2.91c-.13-.58-.24-1.25-.35-2H34.8a13.11 13.11 0 001.61 2zm-2.92 0h2.42a15.28 15.28 0 01-1.52-2h-3.65a18.34 18.34 0 002.77 2zm-2.43 0h1.68a20.7 20.7 0 01-2.61-2H27.3a26.19 26.19 0 003.76 2zm-1.8 0h.83a26.69 26.69 0 01-3.51-2h-1.8a33.87 33.87 0 004.5 2zm-5.92-2a38.26 38.26 0 004.32 1.82A34.43 34.43 0 0124 76.42zm34.36 0l-.42.22.46-.22zm.72-.4h.13a39.89 39.89 0 004.77-2.9h-.53A37.19 37.19 0 0158.42 76zm-2.21 0h1.41a37.69 37.69 0 004.52-2.9H60A31.33 31.33 0 0156.21 76zm-3.27 0h2.53a32.38 32.38 0 004-2.9H56A27.44 27.44 0 0152.94 76zm-4.13 0h3.51a27.38 27.38 0 003.14-2.9h-4.6A23.51 23.51 0 0148.81 76zm-4.64 0h4.15a23 23 0 002.09-2.9h-5.32c-.28 1.06-.58 2.03-.9 2.87zm-4.88 0h4.45c.31-.86.61-1.83.89-2.9H39c.08 1.08.18 2.04.29 2.87zm-4.75 0h4.35c-.12-.87-.23-1.84-.33-2.9H33A24.38 24.38 0 0034.54 76zm-4.27 0h3.86a26.89 26.89 0 01-1.51-2.9h-5A25 25 0 0030.27 76zm-3.58 0h3a26.26 26.26 0 01-2.59-2.9h-4A29.68 29.68 0 0026.69 76zm-2.63 0H26a29.65 29.65 0 01-3.49-2.9h-2.75a35.2 35.2 0 004.3 2.87zm-1.52 0h.72a34.58 34.58 0 01-4.14-2.9h-1.25A38.92 38.92 0 0022.54 76zm40.76-3.3h.58A40.49 40.49 0 0068.24 69h-.9a39.19 39.19 0 01-4.04 3.72zm-2.81 0h2.16A39 39 0 0066.78 69H64a36.49 36.49 0 01-3.51 3.72zm-4.16 0h3.56A36.09 36.09 0 0063.51 69h-4.37a35.42 35.42 0 01-2.81 3.72zm-5.25 0h4.74A33.46 33.46 0 0058.66 69H53a34.36 34.36 0 01-1.92 3.72zm-5.9 0h5.47A37.35 37.35 0 0052.56 69H46c-.25 1.36-.53 2.59-.82 3.72zm-6.25 0h5.81c.29-1.13.56-2.36.82-3.69h-6.91q.15 2.01.3 3.68zm-6.11 0h5.7c-.11-1.14-.21-2.38-.3-3.69h-6.79q.66 1.96 1.41 3.68zm-5.53 0h5.15c-.5-1.13-1-2.37-1.41-3.69h-6.15a33.65 33.65 0 002.43 3.68zm-4.62 0h4.14A34.48 34.48 0 0124.41 69h-5a34.41 34.41 0 003.26 3.72zm-3.41 0h2.86A36 36 0 0118.87 69h-3.54a38 38 0 003.93 3.72zm-2 0h1.33A38.19 38.19 0 0114.79 69H13a39.73 39.73 0 004.3 3.72zm50.41-4.1h.94a40.65 40.65 0 003.78-4.39h-1.13a39.42 39.42 0 01-3.53 4.38zm-3.34 0h2.79a38 38 0 003.59-4.39h-3.23a39.64 39.64 0 01-3.09 4.38zm-5 0h4.45a39.07 39.07 0 003.24-4.4h-5.15a41.89 41.89 0 01-2.45 4.39zm-6.26 0h5.79a41 41 0 002.48-4.39h-6.53c-.51 1.54-1.06 3.01-1.65 4.38zm-7.06 0h6.65a45.7 45.7 0 001.65-4.39H46.8c-.22 1.54-.46 3.01-.72 4.38zm-7.48 0h7c.25-1.37.49-2.84.71-4.39h-8c.2 1.57.29 3.03.38 4.38zm-7.32 0h6.91c-.09-1.39-.18-2.86-.25-4.39h-7.79c.37 1.55.78 3.01 1.22 4.38zm-6.65 0h6.36c-.44-1.37-.85-2.84-1.22-4.39h-7.16a41.54 41.54 0 002.11 4.38zm-5.56 0h5.12a42.45 42.45 0 01-2.09-4.39h-5.8a38.52 38.52 0 002.86 4.38zm-4.1 0h3.6a40.64 40.64 0 01-2.82-4.39h-4.1A38.68 38.68 0 0015 68.62zm-2.36 0h1.82a39.11 39.11 0 01-3.35-4.39h-2.1a39 39 0 003.72 4.38zm-4.23-4.4a40.45 40.45 0 002.79 3.34 39.28 39.28 0 01-2.69-3.34zm63.22-.4h1.21a40.9 40.9 0 003.08-5h-1.41a40.83 40.83 0 01-2.88 5zm-3.81 0H71a41 41 0 002.91-5h-3.69a41.46 41.46 0 01-2.52 5zm-5.66 0h5.2a43.15 43.15 0 002.55-5H64a48.31 48.31 0 01-2 5zm-7.13 0h6.69a46.22 46.22 0 002-5h-7.35q-.58 2.63-1.34 5zm-8.06 0h7.66q.75-2.37 1.34-5h-8.42c-.17 1.76-.36 3.42-.58 5zm-8.53 0h8.09c.22-1.58.41-3.24.59-5h-8.9c.07 1.78.14 3.44.22 5zm-8.36 0h8c-.08-1.61-.15-3.28-.21-5H29q.41 2.63 1 5zm-7.61 0h7.23c-.37-1.58-.7-3.24-1-5h-7.94c.5 1.76 1.08 3.42 1.71 5zm-6.36 0h5.94q-.95-2.37-1.7-5h-6.56a43.64 43.64 0 002.33 5zm-4.7 0h4.24a43.51 43.51 0 01-2.29-5H8.53a41.41 41.41 0 002.76 5zm-2.69 0h2.22a41.29 41.29 0 01-2.74-5H5.57a39.36 39.36 0 003.03 5zm-.6 0h.1a41.49 41.49 0 01-3-5h-.2a40.9 40.9 0 003.1 5zm66.58-5.38H76A39.34 39.34 0 0078.27 53H76.7a40 40 0 01-2.12 5.45zm-4.19 0h3.75A41.4 41.4 0 0076.28 53h-4a43.36 43.36 0 01-1.89 5.45zm-6.22 0H70A45.11 45.11 0 0071.84 53h-6.19a52.6 52.6 0 01-1.48 5.45zm-7.83 0h7.41A52.61 52.61 0 0065.24 53h-7.91q-.4 2.84-.99 5.45zm-8.87 0H56q.57-2.61 1-5.43h-9q-.27 2.82-.53 5.43zm-9.38 0H47c.17-1.74.31-3.56.43-5.43h-9.5c.07 1.91.07 3.72.16 5.43zm-9.19 0h8.8c-.06-1.79-.11-3.61-.16-5.43h-9.37c.2 1.88.45 3.69.73 5.43zm-8.38 0h8c-.28-1.74-.53-3.55-.73-5.43h-8.53q.52 2.82 1.26 5.43zm-7 0h6.6q-.73-2.61-1.26-5.43h-7a46.44 46.44 0 001.65 5.43zm-5.17 0h4.74a46.39 46.39 0 01-1.7-5.45H6.3a44 44 0 002.04 5.45zm-3 0H7.9a43.92 43.92 0 01-2-5.43H3.14a40.43 40.43 0 002.23 5.43zm-.66 0h.21A40.3 40.3 0 012.72 53h-.28a40.61 40.61 0 002.27 5.45zm72.12-5.83h1.59a40.22 40.22 0 001.38-5.73h-1.66a43 43 0 01-1.29 5.73zm-4.47 0h4a41.46 41.46 0 001.3-5.73H73.5a48 48 0 01-1.14 5.73zm-6.63 0H72a46.1 46.1 0 001.14-5.73h-6.51a57.57 57.57 0 01-.9 5.73zm-8.34 0h7.93a57.56 57.56 0 00.91-5.73H58c-.15 1.96-.35 3.88-.61 5.73zm-9.47 0H57c.26-1.85.46-3.77.6-5.73h-9.43c-.05 1.97-.17 3.88-.25 5.73zm-10 0h9.6c.11-1.86.21-3.77.27-5.73h-9.94c.02 1.99.06 3.91.09 5.73zm-9.79 0h9.4c0-1.93-.07-3.85-.09-5.73h-9.74c.11 1.96.26 3.88.45 5.73zm-8.94 0h8.54c-.19-1.85-.34-3.77-.45-5.73h-8.84c.17 1.96.43 3.88.77 5.73zm-7.49 0h7.08c-.33-1.85-.59-3.77-.77-5.73h-7.33a50 50 0 001.04 5.73zm-5.51 0h5.1a50 50 0 01-1-5.73H4.94a42.88 42.88 0 001.25 5.73zm-3.17 0h2.77a42.84 42.84 0 01-1.23-5.73H1.66A40.16 40.16 0 003 52.62zm-.7 0h.28a40.14 40.14 0 01-1.34-5.73H.93a38.91 38.91 0 001.38 5.73zm75.87-6.13h1.66a39.71 39.71 0 00.46-5.91H78.6a42.31 42.31 0 01-.42 5.91zm-4.63 0h4.22a42.3 42.3 0 00.44-5.89h-4.27a49.52 49.52 0 01-.38 5.89zm-6.88 0h6.47a47.5 47.5 0 00.39-5.89H67c0 2-.13 3.97-.33 5.89zm-8.65 0h8.25c.19-1.92.3-3.89.3-5.89h-8.34c0 2-.07 3.97-.22 5.89zm-9.83 0h9.43c.13-1.92.2-3.89.2-5.89h-9.54c0 2.01-.03 3.97-.08 5.89zm-10.36 0h10c.06-1.93.09-3.89.09-5.89H37.8c0 2.04.01 4 .03 5.89zm-10.17 0h9.77V40.6h-9.9c0 2 .05 3.97.14 5.89zm-9.28 0h8.88a141.1 141.1 0 01-.15-5.89h-9c.03 2 .12 3.97.28 5.89zm-7.77 0H18c-.17-1.92-.25-3.89-.26-5.89h-7.48a54.17 54.17 0 00.35 5.89zm-5.72 0h5.32a54.17 54.17 0 01-.35-5.89H4.47a43.9 43.9 0 00.42 5.89zm-3.3 0h2.9a45.62 45.62 0 01-.41-5.89H1.14a40.82 40.82 0 00.45 5.89zm-.73 0h.33a41.07 41.07 0 01-.45-5.9H.4a41.1 41.1 0 00.46 5.9zM37.8 40.2h10.07c0-2 0-4-.09-5.89h-10c.03 1.89.02 3.86.02 5.89zm-10.28 0h9.88v-5.89h-9.74q-.13 2.9-.14 5.89zm20.67-5.89c.05 1.92.08 3.89.08 5.89h9.55q0-3-.2-5.89zM18.12 40.2h9q0-3 .15-5.89h-8.89q-.24 2.9-.26 5.89zM58 34.31q.19 2.89.2 5.89h8.35c0-2-.11-4-.3-5.89zM10.26 40.2h7.46c0-2 .09-4 .26-5.89h-7.37a54.32 54.32 0 00-.35 5.89zm56.41-5.89q.3 2.89.31 5.89h6.55a47.63 47.63 0 00-.39-5.89zM4.47 40.2h5.39a54.32 54.32 0 01.35-5.89H4.89a44 44 0 00-.42 5.89zm69.08-5.89a49.66 49.66 0 01.38 5.89h4.28a42.42 42.42 0 00-.44-5.89zM1.14 40.2h2.93a45.75 45.75 0 01.41-5.89H1.59a40.93 40.93 0 00-.45 5.89zm77-5.89a42.42 42.42 0 01.43 5.89h1.73a39.55 39.55 0 00-.46-5.89zM.4 40.2h.34a40.93 40.93 0 01.45-5.89H.86A40.93 40.93 0 00.4 40.2zm77.72-6.29h1.66a40.55 40.55 0 00-1.38-5.73h-1.57a43.3 43.3 0 011.29 5.73zm-4.62 0h4.21a41.79 41.79 0 00-1.3-5.73h-4a48.4 48.4 0 011.09 5.73zm-6.87 0h6.46A46.47 46.47 0 0072 28.18h-6.27q.59 2.82.9 5.73zm-8.64 0h8.24q-.32-2.94-.9-5.73h-7.94q.39 2.82.61 5.73zm-9.81 0h9.41Q57.38 31 57 28.18h-9.08c.08 1.82.2 3.82.26 5.73zm-10.35 0h9.94c-.06-2-.16-3.87-.27-5.73h-9.58c-.03 1.82-.07 3.74-.09 5.73zm-10.15 0h9.76c0-1.88.05-3.8.09-5.73h-9.4q-.28 2.82-.45 5.73zm-9.27 0h8.87q.16-2.94.45-5.73h-8.54q-.51 2.82-.78 5.73zm-7.75 0H18q.27-2.94.77-5.73H11.7a50.4 50.4 0 00-1.04 5.73zm-5.72 0h5.31a52.7 52.7 0 011-5.73H6.19a43.22 43.22 0 00-1.25 5.73zm-3.28 0h2.88a43.18 43.18 0 011.23-5.73H3a40.48 40.48 0 00-1.34 5.73zm-.73 0h.32a40.46 40.46 0 011.34-5.73h-.28a39.22 39.22 0 00-1.38 5.73zm75.77-6.13h1.57A39.34 39.34 0 0076 22.35h-1.42a40.48 40.48 0 012.12 5.43zm-4.45 0h4a41.4 41.4 0 00-2.14-5.43h-3.72a43.93 43.93 0 011.86 5.43zm-6.6 0h6.19A45.11 45.11 0 0070 22.35h-5.83a53.3 53.3 0 011.48 5.43zm-8.32 0h7.91a55.25 55.25 0 00-1.48-5.43h-7.42c.39 1.74.72 3.56.99 5.43zm-9.43 0h9q-.41-2.82-1-5.43h-8.43c.17 1.74.31 3.55.43 5.43zm-10 0h9.54c-.12-1.87-.26-3.68-.43-5.43h-8.92c-.09 1.72-.09 3.53-.16 5.43zm-9.76 0h9.37c.05-1.82.1-3.64.16-5.43H28.9c-.28 1.74-.53 3.55-.73 5.43zm-8.91 0h8.52c.2-1.87.45-3.69.73-5.43h-8q-.69 2.65-1.22 5.43zm-7.46 0h7.05c.35-1.87.77-3.69 1.26-5.43h-6.6a46.44 46.44 0 00-1.68 5.43zm-5.5 0h5.09a47 47 0 011.69-5.43H8.34a44 44 0 00-2.04 5.43zm-3.16 0h2.77a42.93 42.93 0 012-5.43H5.37a40.43 40.43 0 00-2.23 5.43zm-.7 0h.28a40.84 40.84 0 012.2-5.43h-.18a40.61 40.61 0 00-2.27 5.43zm72-5.83h1.39a40.83 40.83 0 00-3.07-5h-1.21A42.11 42.11 0 0174.39 22zm-4.17 0h3.72A39.76 39.76 0 0071 17h-3.3a41.46 41.46 0 012.52 5zM64 22h5.75a43.15 43.15 0 00-2.55-5H62a48.31 48.31 0 012 5zm-7.79 0h7.37a46.22 46.22 0 00-2-5h-6.67q.75 2.34 1.34 5zm-8.82 0h8.43q-.6-2.61-1.35-5h-7.62c.22 1.55.41 3.21.58 5zm-9.29 0H47c-.18-1.73-.37-3.4-.59-5h-8.09c-.08 1.53-.15 3.19-.22 5zM29 22h8.74q.09-2.55.21-5H30q-.59 2.34-1 5zm-8.33 0h7.94c.3-1.74.63-3.4 1-5h-7.26a46.39 46.39 0 00-1.71 5zm-7 0h6.57q.75-2.61 1.7-5H16a43.69 43.69 0 00-2.34 5zm-5.14 0h4.71a43.51 43.51 0 012.29-5h-4.24a41.41 41.41 0 00-2.76 5zm-3 0h2.55a41.29 41.29 0 012.74-5H8.6a39.36 39.36 0 00-3.03 5zm-.65 0h.2a41.49 41.49 0 013-5H8a38.57 38.57 0 00-3.08 5zm66.32-5.38h1.19a40.5 40.5 0 00-3.78-4.39h-.93a40.51 40.51 0 013.56 4.34zm-3.78 0h3.29a39.85 39.85 0 00-3.58-4.39h-2.8a39.64 39.64 0 013.13 4.34zm-5.61 0H67a40 40 0 00-3.14-4.39H59.4a41.89 41.89 0 012.45 4.34zm-7.06 0h6.62a42 42 0 00-2.48-4.39h-5.75c.59 1.32 1.14 2.77 1.65 4.34zm-8 0h7.58a46.73 46.73 0 00-1.65-4.39h-6.6c.26 1.32.5 2.77.72 4.34zm-8.46 0h8c-.22-1.55-.46-3-.71-4.39h-7c-.07 1.3-.16 2.77-.24 4.34zm-8.28 0h7.88c.07-1.52.16-3 .25-4.39h-6.86c-.44 1.32-.85 2.77-1.22 4.34zm-7.54 0h7.16c.37-1.55.78-3 1.22-4.39h-6.22a42.51 42.51 0 00-2.11 4.34zm-6.31 0h5.94a40.49 40.49 0 012.09-4.39h-5.12a39.43 39.43 0 00-2.86 4.34zm-4.65 0h4.19a39.17 39.17 0 012.82-4.39H15a40.74 40.74 0 00-3.44 4.34zm-2.67 0h2.19a39.11 39.11 0 013.35-4.39h-1.77a40 40 0 00-3.72 4.34zm-.6 0h.1a39.28 39.28 0 012.69-3.34 40.45 40.45 0 00-2.74 3.29zm59.05-4.79h.9a39.46 39.46 0 00-4.36-3.7h-.53a38.19 38.19 0 014.04 3.65zm-3.3 0h2.74a38 38 0 00-4.13-3.7h-2.1a36.55 36.55 0 013.5 3.65zm-4.9 0h4.38a37.29 37.29 0 00-3.62-3.7h-3.52a34.53 34.53 0 012.81 3.65zm-6.17 0h5.69a32.67 32.67 0 00-2.86-3.7h-4.67A35.48 35.48 0 0153 11.78zm-7 0h6.56a34.53 34.53 0 00-1.91-3.7h-5.39c.29 1.08.57 2.32.82 3.65zm-7.37 0h6.93c-.26-1.33-.53-2.57-.82-3.7h-5.73c-.1 1.07-.2 2.3-.3 3.65zm-7.22 0h6.81c.09-1.31.19-2.55.3-3.7h-5.7a71.48 71.48 0 00-1.33 3.65zm-6.55 0H31c.44-1.33.91-2.57 1.41-3.7h-5.12a32.87 32.87 0 00-2.43 3.65zm-5.49 0h5a33.66 33.66 0 012.4-3.7h-4.03a34.56 34.56 0 00-3.29 3.65zm-4 0h3.54a35.08 35.08 0 013.23-3.7h-2.81a37.93 37.93 0 00-3.92 3.65zm-2.32 0h1.78a38.15 38.15 0 013.83-3.7h-1.29A39.56 39.56 0 0013 11.78zm49.78-4.1h.54a39.94 39.94 0 00-4.78-2.89h-.12a38.28 38.28 0 014.4 2.84zM60 7.68h2.08a36.84 36.84 0 00-4.48-2.89h-1.38A33 33 0 0160 7.68zm-4 0h3.46a32.29 32.29 0 00-4-2.89h-2.52A28.29 28.29 0 0156 7.68zm-5.13 0h4.6a27.2 27.2 0 00-3.13-2.89h-3.5a24.15 24.15 0 012 2.89zm-5.77 0h5.34a23.86 23.86 0 00-2.08-2.89h-4.19c.32.86.62 1.82.9 2.89zm-6.1 0h5.66c-.28-1.07-.58-2-.89-2.89h-4.48c-.11.84-.21 1.81-.29 2.89zm-6 0h5.56c.1-1 .21-2 .33-2.89h-4.35A24.21 24.21 0 0033 7.68zm-5.4 0h5a25.87 25.87 0 011.51-2.89h-3.84a24.83 24.83 0 00-2.67 2.89zm-4.51 0h4a27.07 27.07 0 012.61-2.89h-3a29.59 29.59 0 00-3.61 2.89zm-3.33 0h2.75A31.36 31.36 0 0126 4.79h-1.94a34.37 34.37 0 00-4.3 2.89zm-1.92 0h1.27a36.68 36.68 0 014.15-2.89h-.72a39.76 39.76 0 00-4.7 2.89zm39.86-3.3l-.47-.22zm-2.12 0h1.26a36.23 36.23 0 00-4.71-2h-.41a31.41 31.41 0 013.86 2zm-3.15 0h2.37a29.16 29.16 0 00-4.13-2h-1.29a23.59 23.59 0 013.05 2zm-4 0h3.31a21.87 21.87 0 00-3.26-2h-2.1a17.57 17.57 0 012.09 2zm-4.43 0h4a14.45 14.45 0 00-2.17-2h-2.72a16 16 0 01.89 2zm-4.67 0h4.24a14.17 14.17 0 00-.92-2h-3c-.09.55-.19 1.22-.3 2zm-4.55 0H39c.11-.76.22-1.43.35-2H36.4a13.71 13.71 0 00-1.6 2zm-4.09 0h3.67a17 17 0 011.53-2h-2.4a18.93 18.93 0 00-2.78 2zm-3.41 0h2.83a20.21 20.21 0 012.61-2h-1.67a26.09 26.09 0 00-3.75 2zm-2.52 0h1.79a28.71 28.71 0 013.52-2h-.83a33.3 33.3 0 00-4.46 2zm-1.45 0H24a34.43 34.43 0 013.71-1.82 38.42 38.42 0 00-4.38 1.82zM50.75 2h.14l-.64-.19zM48.6 2h1a26.24 26.24 0 00-3-.87 20.15 20.15 0 012 .87zm-2.7 0h1.76A18.65 18.65 0 0044.53.9h-.38A11.58 11.58 0 0145.9 2zm-3 0h2.36A10.08 10.08 0 0043.15.9h-1.06a6.91 6.91 0 01.79 1.1zm-3.15 0h2.68a5 5 0 00-.88-1.1h-1.5a7.51 7.51 0 00-.3 1.1zm-2.93 0h2.57A9 9 0 0139.7.9h-1.33A7.07 7.07 0 0036.82 2zm-2.6 0h2.08A8.43 8.43 0 0137.61.9h-.72A14.46 14.46 0 0034.22 2zM32 2h1.4A15.41 15.41 0 0135.61.91 23.24 23.24 0 0032 2zm-1.57 0H31c.49-.21 1-.4 1.48-.58-.71.14-1.39.33-2.05.58zM40.25.5h.65a1.24 1.24 0 00-.5-.1.26.26 0 00-.15.1zm-.74 0h.36a.43.43 0 010-.07z" fill="#00b0ff" data-name="Layer 1"/></g></svg>