<svg xmlns="http://www.w3.org/2000/svg" viewBox="0 0 64.37 64.34"><defs><style>.cls-4{fill:#f39200}</style></defs><g id="图层_2" data-name="图层 2"><g id="Layer_1" data-name="Layer 1"><path d="M56 32.19A23.77 23.77 0 1132.19 8.42 23.77 23.77 0 0156 32.19z" opacity=".2" fill="#00b3ea"/><path d="M56.46 19.06l-.93-1.54c-.15-.24-.31-.53-.51-.83l-.7-.94-.82-1.1-1-1.14A28.65 28.65 0 0049.86 11a28.72 28.72 0 00-3.48-2.45A27.39 27.39 0 0036.87 5a27.88 27.88 0 00-12 .58 23.82 23.82 0 00-3.09 1 12.7 12.7 0 00-1.51.68c-.5.25-1 .46-1.5.75a29.17 29.17 0 00-2.87 1.85c-.46.35-.93.69-1.38 1l-1.29 1.17c-.22.2-.44.39-.65.6l-.59.65-1.19 1.32c-.36.48-.72 1-1.07 1.43-.18.24-.37.48-.53.73l-.47.77a27.39 27.39 0 00-3 6.62 27.54 27.54 0 0019.33 34.6 27.36 27.36 0 0013.35.22 27.73 27.73 0 0010.8-5.19 27.34 27.34 0 006.69-7.64 26.13 26.13 0 003-7.25c.12-.53.29-1 .36-1.5s.14-.93.2-1.35.13-.81.18-1.16 0-.69 0-1c.06-1.17.1-1.8.1-1.8h2.16s0 .68-.1 1.93v1c0 .33-.12.81-.18 1.26s-.15.93-.23 1.45-.25 1.05-.38 1.62a28.56 28.56 0 01-3.22 7.82 29.72 29.72 0 01-54-23.69A29.22 29.22 0 017 16.48l.5-.82c.18-.28.38-.52.57-.79l1.16-1.54c.41-.48.85-.95 1.28-1.42l.64-.7c.22-.22.46-.43.69-.64l1.35-1.27c.49-.39 1-.75 1.49-1.12a30 30 0 013.08-2c.53-.31 1.09-.54 1.62-.81A16.91 16.91 0 0121 4.64a27.66 27.66 0 013.33-1.11 30.09 30.09 0 0112.89-.62 29.54 29.54 0 0110.26 3.82 30.67 30.67 0 013.74 2.64 29.21 29.21 0 012.8 2.7c.4.43.77.85 1.12 1.24l.86 1.17.76 1c.21.32.39.63.55.89l1 1.66z" fill="#1d71b8"/><path d="M63.31 32.18s0-.7-.09-2c0-.32 0-.69-.06-1.1s-.16-.86-.16-1.33-.16-1-.24-1.52-.26-1.1-.4-1.7A29.8 29.8 0 0059 16.34a30.91 30.91 0 00-7.53-8.62 31.29 31.29 0 00-12.2-5.85 30.78 30.78 0 00-15.06.24A31.06 31.06 0 005.75 48.62l.53.87c.18.28.4.54.6.82l1.21 1.61c.43.51.89 1 1.34 1.49l.67.73c.23.24.48.45.72.68l1.46 1.32c.51.41 1 .79 1.56 1.18a32.89 32.89 0 003.23 2.09c.55.32 1.13.57 1.69.85a17.27 17.27 0 001.71.77A28.54 28.54 0 0024 62.19a31.36 31.36 0 0013.5.65 30.68 30.68 0 0010.74-4 32.05 32.05 0 003.92-2.76 33.63 33.63 0 002.94-2.83L56.23 52l.92-1.23.79-1.06c.23-.34.41-.66.59-.94l1-1.73.93.5-1.08 1.79c-.18.29-.37.62-.61 1L58 51.36l-1 1.27L55.83 54a32.92 32.92 0 01-3 2.92 33.25 33.25 0 01-4.06 2.86 31.84 31.84 0 01-11.1 4.13 32.55 32.55 0 01-14-.67 31.23 31.23 0 01-3.6-1.24c-.61-.2-1.17-.53-1.76-.79s-1.19-.55-1.75-.88a33.93 33.93 0 01-3.34-2.16c-.53-.4-1.08-.8-1.61-1.22l-1.51-1.37c-.25-.23-.51-.45-.75-.69l-.69-.76c-.46-.51-.94-1-1.39-1.54S6.44 51.48 6 50.92c-.2-.28-.42-.56-.61-.85l-.55-.9a32 32 0 01-3.52-7.73A32.14 32.14 0 0123.89 1.1 31.89 31.89 0 0139.46.84 32.35 32.35 0 0152.07 6.9a31.92 31.92 0 017.79 8.91 31.07 31.07 0 013.49 8.46c.15.62.33 1.2.41 1.76s.17 1.08.25 1.57.14.94.19 1.36 0 .8.06 1.14c.07 1.36.11 2.08.11 2.08z" fill="#00b3ea"/><path class="cls-4" d="M34 56.91h.27a4.06 4.06 0 00.76-.07l1.17-.18a9.49 9.49 0 001.52-.28 24.22 24.22 0 007.59-3.15 25.94 25.94 0 006.18-5.45 26 26 0 001.58-2.22l.54-.88 1.65 1-.58 1A28.61 28.61 0 0153 49a27.88 27.88 0 01-6.65 5.87 25.82 25.82 0 01-8.19 3.39 11.26 11.26 0 01-1.63.31l-1.26.2a6.1 6.1 0 01-.82.07h-.29zM11.9 46.47l.62.82a19.87 19.87 0 001.77 2.08 25.64 25.64 0 006.61 4.9 23.56 23.56 0 007.85 2.47l.79.12h.73l1.19.06h1.04v1.91H31.39l-1.28-.07h-.79l-.86-.14A25.38 25.38 0 0120 56a27.36 27.36 0 01-7.12-5.29A21.52 21.52 0 0111 48.46l-.67-.89zM9.48 22.14a5.35 5.35 0 00-.39 1c-.11.31-.25.68-.41 1.11-.07.22-.17.44-.24.69s-.13.51-.2.78c-.12.55-.32 1.13-.43 1.77s-.2 1.31-.3 2a27 27 0 00-.07 4.42 26.43 26.43 0 001.88 8c.51 1 .86 1.88 1.22 2.44l.53.88-1.62 1-.58-1c-.38-.6-.77-1.54-1.31-2.62a28 28 0 01-2-8.63 30.08 30.08 0 01.07-4.76q.18-1.12.33-2.16c.12-.69.33-1.32.46-1.91.08-.29.15-.57.22-.84s.18-.51.26-.74l.44-1.2a6 6 0 01.42-1zM29.11 7.57l-1 .16a11.51 11.51 0 00-1.17.2l-1.49.38A25.33 25.33 0 0018 11.83c-.59.46-1.22.88-1.78 1.36l-1.62 1.46-1.37 1.51c-.44.48-.76 1-1.11 1.44-.17.23-.34.44-.49.65s-.26.43-.38.62l-.62 1a5.93 5.93 0 00-.38.67l-.11.24-1.71-.88s.05-.09.13-.26a5.6 5.6 0 01.44-.71l.66-1.09c.13-.21.26-.44.42-.67l.52-.7c.38-.47.73-1 1.2-1.55l1.47-1.62L15 11.72c.61-.51 1.28-1 1.92-1.47a27.52 27.52 0 018-3.78l1.6-.41a9.6 9.6 0 011.26-.22l1.1-.17zM51.7 16.9s-.05-.08-.16-.22a5.3 5.3 0 00-.49-.59l-.8-.87-.48-.55c-.19-.18-.4-.35-.6-.54a23.71 23.71 0 00-6.84-4.58 26 26 0 00-8-2.08l-1.54-.08H31.6l-1 .05-.12-1.91 1.11-.06H32.87l1.65.08a27.65 27.65 0 018.59 2.25 25.72 25.72 0 017.37 4.93c.22.21.45.4.64.59s.37.4.53.59l.86.94a6.07 6.07 0 01.53.63l.17.24z"/></g></g></svg>