<svg xmlns="http://www.w3.org/2000/svg" viewBox="0 0 27.76 28.04"><g data-name="图层 2"><path d="M13.88 10.17a3.66 3.66 0 103.66 3.65 3.65 3.65 0 00-3.66-3.65zm0 6a2.4 2.4 0 112.4-2.4 2.39 2.39 0 01-2.4 2.45zM27.33 16l-2-.65a11 11 0 00.12-1.54c0-.39 0-.77-.06-1.15l1.94-.66a.62.62 0 00.4-.77l-1-3.14a.61.61 0 00-.77-.4l-1.88.61a11.85 11.85 0 00-1.6-2.24L23.6 4.5a.62.62 0 00-.14-.85l-2.68-1.94a.61.61 0 00-.85.13l-1.12 1.54a11.48 11.48 0 00-2.67-.89V.61a.61.61 0 00-.61-.61h-3.31a.61.61 0 00-.61.61v1.88A11.56 11.56 0 009 3.38L7.83 1.84A.62.62 0 007 1.7l-2.67 2a.6.6 0 00-.14.85l1.12 1.54A11.9 11.9 0 003.7 8.33l-1.88-.61a.62.62 0 00-.77.39L0 11.26a.61.61 0 00.42.74l2 .64a10.93 10.93 0 00-.06 1.15 13 13 0 00.11 1.54L.42 16a.61.61 0 00-.39.77l1 3.15a.61.61 0 00.77.39l2.09-.68a11.44 11.44 0 001.56 2.1l-1.31 1.8a.6.6 0 00.14.85L7 26.34a.62.62 0 00.86-.13l1.33-1.84a11.49 11.49 0 002.45.79v2.27a.61.61 0 00.61.61h3.31a.61.61 0 00.61-.61v-2.27a11.14 11.14 0 002.45-.79l1.34 1.84a.61.61 0 00.85.13l2.68-1.95a.62.62 0 00.14-.85l-1.31-1.8a12.22 12.22 0 001.56-2.09l2.08.67a.6.6 0 00.77-.39l1-3.15a.62.62 0 00-.4-.78zm-13.45 5.3a7.48 7.48 0 117.48-7.48 7.48 7.48 0 01-7.48 7.48z" fill="#375d81" data-name="Layer 1"/></g></svg>