<svg xmlns="http://www.w3.org/2000/svg" viewBox="0 0 212 212"><style>.st2{fill:#f890ab}</style><path d="M26 148.8s.1.1.2.3l.6 1 .9 1.6.6 1 .7 1.1c.5.8 1.1 1.7 1.7 2.7l2.2 3.1c.8 1.1 1.8 2.3 2.8 3.5s2.1 2.5 3.3 3.8 2.5 2.7 4 4c.7.7 1.4 1.4 2.2 2.1l2.4 2.1c3.6 3 7.3 5.7 11.3 8.2 9.6 5.8 20.2 9.7 31.3 11.6 6.3 1.1 12.7 1.5 19.1 1.2.8 0 1.7-.1 2.5-.1l2.5-.2c1.7-.1 3.4-.4 5.1-.6s3.4-.6 5.1-.9l2.5-.6 1.3-.3 1.3-.4c14.3-3.9 27.5-11.3 38.3-21.5 11.6-10.9 20.1-24.6 24.6-39.8l.8-2.9c.3-1 .5-2 .7-3 .5-2 .8-4 1.2-6 1.9-12.2 1.3-24.6-1.6-36.5-.2-1-.6-2-.8-3s-.6-2-.9-2.9l-1-2.9-1.1-2.9-.6-1.4-.6-1.4c-.4-.9-.8-1.9-1.3-2.8-.9-1.8-1.8-3.7-2.9-5.4-19.9-34.8-60.2-52.3-99.2-43.2-6.7 1.5-13.1 3.8-19.3 6.8C50 32.1 36.8 44.3 27.7 59.6c-2.4 4-4.5 8.2-6.2 12.5-1.5 3.7-2.7 7.4-3.7 11.3-.2.9-.4 1.7-.6 2.6s-.4 1.6-.5 2.4-.3 1.6-.4 2.3-.3 1.4-.3 2.1c-.2 1.4-.3 2.7-.5 3.8s-.2 2.2-.2 3.2c0 .5-.1.9-.1 1.4v4.5h-7v-1.6-2-1.3c0-.5.1-.9.1-1.4.1-1 .2-2.2.3-3.4s.3-2.6.5-4.1c.1-.8.2-1.5.4-2.3s.3-1.6.4-2.5.3-1.7.6-2.6.4-1.8.6-2.8c1.1-4.1 2.4-8.2 4-12.2 1.8-4.7 4.1-9.2 6.6-13.5 9.7-16.4 24-29.6 41.1-38 6.6-3.3 13.6-5.7 20.8-7.4 42-9.8 85.5 9.2 106.9 46.7 1.1 1.9 2.1 3.9 3.1 5.8.5 1 .9 2 1.4 3l.7 1.5.6 1.5 1.2 3.1 1.1 3.1c.4 1 .7 2.1 1 3.2s.6 2.1.9 3.2c3.2 12.9 3.8 26.2 1.8 39.3-.4 2.2-.7 4.3-1.3 6.4-.3 1.1-.5 2.1-.8 3.2l-.9 3.1c-9.7 32.2-35.3 57.2-67.7 66.1l-1.4.4-1.4.3-2.7.6c-1.8.4-3.7.7-5.5 1s-3.6.5-5.4.7l-2.7.2c-.9.1-1.8.1-2.7.1-6.9.3-13.8-.2-20.6-1.3-11.9-2-23.3-6.3-33.7-12.5-4.3-2.6-8.4-5.5-12.3-8.7l-2.6-2.2c-.8-.7-1.6-1.5-2.4-2.2-1.6-1.4-2.9-3-4.3-4.4s-2.5-2.8-3.6-4.1-2.1-2.6-3-3.8-1.7-2.4-2.4-3.4-1.3-2-1.9-2.9l-.8-1.2-.6-1.1-1-1.7c-.3-.5-.5-.8-.6-1.1-.1-.1-.1-.2-.2-.4l6.2-3.3z" fill="#08ade5"><animateTransform accumulate="none" additive="replace" attributeName="transform" attributeType="xml" calcMode="linear" dur="10s" fill="remove" from="360 106 106" repeatCount="indefinite" restart="always" to="0 106 106" type="rotate"/></path><path d="M3.5 105.7v1.7c0 .6 0 1.3.1 2.1v1.3c0 .4.1 1 .1 1.5.1 1.1.2 2.3.3 3.6s.3 2.8.5 4.3c.1.8.2 1.6.4 2.4s.3 1.7.5 2.6l.6 2.7c.2.9.4 1.9.7 2.9 1.1 4.3 2.5 8.6 4.2 12.7 2 4.9 4.3 9.6 7 14.2 10.2 17.2 25.2 31 43.1 39.8 6.9 3.4 14.3 6 21.8 7.7 44 10.3 89.6-9.6 112-48.9 1.2-2 2.2-4.1 3.3-6.1.5-1 1-2.1 1.4-3.1l.7-1.6.6-1.6 1.3-3.2 1.1-3.3c.4-1.1.7-2.2 1-3.3s.6-2.2.9-3.4c3.3-13.5 4-27.5 1.8-41.2-.4-2.3-.8-4.5-1.3-6.7-.3-1.1-.5-2.2-.8-3.3l-.9-3.3c-10.2-33.8-37-59.9-71-69.2l-1.4-.4-1.4-.3-3.1-.6c-1.9-.4-3.8-.7-5.7-1s-3.8-.5-5.7-.7l-2.8-.2c-.9-.1-1.9-.2-2.8-.2-7.2-.3-14.4.2-21.5 1.4A101.9 101.9 0 0053 18c-4.5 2.7-8.8 5.8-12.8 9.2l-2.7 2.4c-.9.8-1.7 1.6-2.5 2.3-1.6 1.5-3.1 3.1-4.5 4.5s-2.6 3-3.8 4.3-2.2 2.7-3.1 4l-2.5 3.5c-.8 1.1-1.4 2.1-2 3l-.8 1.3-.7 1.2-1 1.8c-.3.5-.5.9-.6 1.1l-.2.4-3-1.6c.1-.1.1-.3.2-.4l.6-1.1 1-1.9c.2-.4.4-.8.7-1.2l.8-1.3c.6-.9 1.3-2 2-3.1l2.6-3.7c1-1.3 2.1-2.7 3.2-4.1s2.5-2.9 3.9-4.5 2.9-3.1 4.6-4.7c.8-.8 1.7-1.6 2.6-2.4l2.9-2.4c4.2-3.5 8.6-6.6 13.3-9.5C62.5 8.3 74.9 3.7 87.8 1.5 95.1.2 102.6-.2 110 .1c1 0 1.9.1 2.9.2l2.9.2c2 .2 3.9.5 5.9.7s4 .7 5.9 1.1l3 .7 1.5.3 1.5.4c35.1 9.7 62.8 36.7 73.4 71.5l1 3.4c.3 1.1.6 2.3.8 3.4.6 2.3.9 4.6 1.4 7 2.2 14.2 1.6 28.6-1.9 42.5-.3 1.2-.6 2.3-.9 3.5s-.6 2.3-1.1 3.4l-1.1 3.4-1.3 3.3-.7 1.7-.7 1.6-1.5 3.3c-1.1 2.1-2.1 4.3-3.4 6.3-23.2 40.6-70.3 61.2-115.8 50.5-7.8-1.8-15.4-4.5-22.5-8-18.5-9.1-34-23.4-44.5-41.2-2.8-4.7-5.2-9.6-7.2-14.6-1.7-4.3-3.2-8.7-4.3-13.2-.2-1-.5-2-.7-3s-.5-1.9-.6-2.8-.3-1.8-.5-2.7-.3-1.7-.4-2.5c-.2-1.6-.4-3.1-.6-4.5s-.2-2.6-.3-3.7c0-.6-.1-1.1-.1-1.6v-1.4c0-.8 0-1.6-.1-2.1v-1.8l3.5.3z" fill="#80bfe8"><animateTransform accumulate="none" additive="replace" attributeName="transform" attributeType="xml" calcMode="linear" dur="9s" fill="remove" from="0 106 106" repeatCount="indefinite" restart="always" to="360 106 106" type="rotate"/></path><path class="st2" d="M99.7 24.4l-.9.1c-.6 0-1.4.1-2.5.2-3 .3-5.9.8-8.8 1.5-8.9 2-17.3 5.5-25 10.3-4.1 2.6-7.9 5.5-11.5 8.8-3.1 2.9-6 5.9-8.7 9.2-.6.7-1.1 1.4-1.7 2.1s-1 1.3-1.4 1.9-.9 1.2-1.2 1.7l-1 1.5c-.6.9-1.1 1.6-1.3 2.1l-.5.8-5.4-3.2s.2-.3.5-.8.8-1.3 1.4-2.3l1-1.6c.4-.6.8-1.2 1.3-1.9l1.5-2.1 1.8-2.3c2.9-3.5 6-6.8 9.4-9.9 3.9-3.5 8.1-6.7 12.5-9.4 8.3-5.2 17.4-8.9 26.9-11.1 3.1-.7 6.3-1.3 9.5-1.6 1.2-.2 2.1-.2 2.7-.3l1-.1.4 6.4z"><animateTransform accumulate="none" additive="replace" attributeName="transform" attributeType="xml" calcMode="linear" dur="40s" fill="remove" from="0 106 106" repeatCount="indefinite" restart="always" to="360 106 106" type="rotate"/></path><path class="st2" d="M172.4 58.8s-.2-.3-.5-.7-.8-1.2-1.5-2l-1.1-1.4-.6-.8-.7-.8-1.6-1.8c-.6-.6-1.2-1.3-1.8-1.9-2.9-3.1-6.1-5.9-9.4-8.4-3.9-2.9-8-5.5-12.3-7.7-4.3-2.2-8.8-4-13.4-5.4-4-1.2-8.2-2.1-12.3-2.7l-2.6-.3c-.8-.1-1.7-.1-2.4-.2l-2.1-.2h-1.8c-1.1 0-1.9-.1-2.5-.1h-.9l-.1-6.3h1c.6 0 1.5 0 2.7.1h1.9l2.3.2c.8.1 1.7.1 2.6.2l2.8.4c9.7 1.3 19.1 4.3 27.8 8.8 4.6 2.4 9.1 5.2 13.2 8.3 3.6 2.8 7 5.8 10.1 9.1.7.7 1.4 1.4 2 2.1l1.7 2 .8.9.7.9 1.2 1.5c.7.9 1.3 1.7 1.6 2.2l.6.8-5.4 3.2z"><animateTransform accumulate="none" additive="replace" attributeName="transform" attributeType="xml" calcMode="linear" dur="40s" fill="remove" from="0 106 106" repeatCount="indefinite" restart="always" to="360 106 106" type="rotate"/></path><path class="st2" d="M180.3 138.7s.6-1.1 1.3-3.1l.7-1.7c.2-.6.4-1.3.7-2s.5-1.5.8-2.3l.7-2.6c1.1-4.1 1.9-8.2 2.4-12.4.5-4.8.6-9.7.3-14.5-.3-4.8-1.1-9.6-2.2-14.3-1-4.1-2.4-8.1-4-12-1.2-2.7-2.5-5.4-4-8l-1.3-2.2c-.3-.5-.5-.8-.5-.8l5.4-3.3s.2.3.5.8.8 1.3 1.3 2.3c1.6 2.8 3 5.7 4.3 8.6 1.8 4.2 3.2 8.5 4.3 12.9 1.3 5.1 2.1 10.2 2.4 15.4.3 5.2.2 10.4-.3 15.6-.5 4.5-1.3 9-2.5 13.4-.3.9-.5 1.9-.8 2.8s-.6 1.7-.8 2.4-.5 1.5-.7 2.1-.5 1.3-.7 1.8c-.4 1.1-.7 2-1 2.5l-.4.9-5.9-2.3z"><animateTransform accumulate="none" additive="replace" attributeName="transform" attributeType="xml" calcMode="linear" dur="40s" fill="remove" from="0 106 106" repeatCount="indefinite" restart="always" to="360 106 106" type="rotate"/></path><path class="st2" d="M115.8 186.6l.9-.1c.6-.1 1.4-.1 2.5-.4 2.9-.5 5.9-1.2 8.7-2 8.7-2.5 17-6.4 24.4-11.6 4-2.8 7.7-5.9 11.1-9.3 3-3 5.7-6.2 8.2-9.6l1.5-2.2c.5-.7.9-1.4 1.3-2s.8-1.2 1.1-1.8l.9-1.6c.5-.9 1-1.7 1.2-2.2l.4-.8 5.6 2.9-.4.9c-.3.6-.7 1.4-1.3 2.4l-1 1.7c-.3.6-.8 1.2-1.2 1.9s-.9 1.4-1.4 2.2l-1.7 2.3c-2.7 3.7-5.6 7.1-8.8 10.4-3.7 3.7-7.7 7-12 10-8 5.6-16.9 9.8-26.3 12.5-3.1.9-6.2 1.6-9.4 2.1-1.1.2-2 .3-2.7.4l-1 .1-.6-6.2z"><animateTransform accumulate="none" additive="replace" attributeName="transform" attributeType="xml" calcMode="linear" dur="40s" fill="remove" from="0 106 106" repeatCount="indefinite" restart="always" to="360 106 106" type="rotate"/></path><path class="st2" d="M41.6 155.9l.5.7c.2.2.4.5.7.8l1 1.1c.7.8 1.5 1.8 2.6 2.9l1.6 1.7c.6.6 1.3 1.2 1.9 1.8 3.1 2.9 6.3 5.6 9.8 7.9 8 5.5 16.9 9.5 26.3 11.8 4.1 1 8.3 1.7 12.5 2.1l2.7.2c.8.1 1.7.1 2.4.1H107.5l2.5-.1.9-.1.4 6.3-1 .1-2.7.1-1.9.1-2.3-.1c-.8 0-1.7 0-2.6-.1L98 193c-4.5-.4-9-1.1-13.4-2.2-10.1-2.5-19.7-6.8-28.4-12.7-3.8-2.6-7.3-5.4-10.6-8.6-.7-.7-1.4-1.3-2.1-2l-1.8-1.9c-1.1-1.1-2-2.3-2.8-3.1l-1-1.2-.7-.9-.6-.8 5-3.7z"><animateTransform accumulate="none" additive="replace" attributeName="transform" attributeType="xml" calcMode="linear" dur="40s" fill="remove" from="0 106 106" repeatCount="indefinite" restart="always" to="360 106 106" type="rotate"/></path></svg>