<svg xmlns="http://www.w3.org/2000/svg" viewBox="0 0 85.87 216.37"><defs><style>.cls-1{fill:#36a9e1}.cls-2{opacity:.9}.cls-3{opacity:.8}.cls-4{opacity:.7}.cls-5{opacity:.6}.cls-6{opacity:.5}.cls-7{opacity:.4}.cls-8{opacity:.3}.cls-9{opacity:.2}.cls-10{opacity:.1}</style></defs><g id="图层_2" data-name="图层 2"><g id="Layer_1" data-name="Layer 1"><circle class="cls-1" cx="4.18" cy="186.18" r="4.18"/><circle class="cls-1" cx="4.18" cy="173.18" r="4.18"/><circle class="cls-1" cx="4.18" cy="160.18" r="4.18"/><circle class="cls-1" cx="4.18" cy="147.18" r="4.18"/><circle class="cls-1" cx="4.18" cy="134.18" r="4.18"/><circle class="cls-1" cx="4.18" cy="121.18" r="4.18"/><g class="cls-2"><circle class="cls-1" cx="4.18" cy="108.18" r="4.18"/></g><g class="cls-3"><circle class="cls-1" cx="4.18" cy="95.18" r="4.18"/></g><g class="cls-4"><path class="cls-1" d="M4.18 86.37a4.19 4.19 0 114.19-4.19 4.19 4.19 0 01-4.19 4.19z"/></g><g class="cls-5"><path class="cls-1" d="M4.18 73.37a4.19 4.19 0 114.19-4.19 4.19 4.19 0 01-4.19 4.19z"/></g><g class="cls-6"><path class="cls-1" d="M4.18 60.37a4.19 4.19 0 114.19-4.19 4.19 4.19 0 01-4.19 4.19z"/></g><g class="cls-7"><path class="cls-1" d="M4.18 47.37a4.19 4.19 0 114.19-4.19 4.19 4.19 0 01-4.19 4.19z"/></g><g class="cls-8"><path class="cls-1" d="M4.18 34.37a4.19 4.19 0 114.19-4.19 4.19 4.19 0 01-4.19 4.19z"/></g><g class="cls-9"><path class="cls-1" d="M4.18 21.37a4.19 4.19 0 114.19-4.19 4.19 4.19 0 01-4.19 4.19z"/></g><g class="cls-10"><path class="cls-1" d="M4.18 8.37a4.19 4.19 0 114.19-4.19 4.19 4.19 0 01-4.19 4.19z"/></g><path class="cls-1" d="M17.1 190.37a4.19 4.19 0 114.18-4.19 4.19 4.19 0 01-4.18 4.19z"/><g class="cls-2"><path class="cls-1" d="M17.1 177.37a4.19 4.19 0 114.18-4.19 4.19 4.19 0 01-4.18 4.19z"/></g><g class="cls-3"><path class="cls-1" d="M17.1 164.37a4.19 4.19 0 114.18-4.19 4.19 4.19 0 01-4.18 4.19z"/></g><g class="cls-4"><path class="cls-1" d="M17.1 151.37a4.19 4.19 0 114.18-4.19 4.19 4.19 0 01-4.18 4.19z"/></g><g class="cls-5"><path class="cls-1" d="M17.1 138.37a4.19 4.19 0 114.18-4.19 4.19 4.19 0 01-4.18 4.19z"/></g><g class="cls-6"><path class="cls-1" d="M17.1 125.37a4.19 4.19 0 114.18-4.19 4.19 4.19 0 01-4.18 4.19z"/></g><g class="cls-7"><path class="cls-1" d="M17.1 112.37a4.19 4.19 0 114.18-4.19 4.19 4.19 0 01-4.18 4.19z"/></g><g class="cls-8"><path class="cls-1" d="M17.1 99.37a4.19 4.19 0 114.18-4.19 4.19 4.19 0 01-4.18 4.19z"/></g><g class="cls-9"><path class="cls-1" d="M17.1 86.37a4.19 4.19 0 114.18-4.19 4.19 4.19 0 01-4.18 4.19z"/></g><g class="cls-10"><path class="cls-1" d="M17.1 73.37a4.19 4.19 0 114.18-4.19 4.19 4.19 0 01-4.18 4.19z"/></g><circle class="cls-1" cx="30.02" cy="134.18" r="4.18"/><g class="cls-2"><circle class="cls-1" cx="30.02" cy="121.18" r="4.18"/></g><g class="cls-3"><circle class="cls-1" cx="30.02" cy="108.18" r="4.18"/></g><g class="cls-4"><circle class="cls-1" cx="30.02" cy="95.18" r="4.18"/></g><g class="cls-5"><path class="cls-1" d="M30 86.37a4.19 4.19 0 114.18-4.19A4.2 4.2 0 0130 86.37z"/></g><g class="cls-6"><path class="cls-1" d="M30 73.37a4.19 4.19 0 114.18-4.19A4.2 4.2 0 0130 73.37z"/></g><g class="cls-7"><path class="cls-1" d="M30 60.37a4.19 4.19 0 114.18-4.19A4.2 4.2 0 0130 60.37z"/></g><g class="cls-8"><path class="cls-1" d="M30 47.37a4.19 4.19 0 114.18-4.19A4.2 4.2 0 0130 47.37z"/></g><g class="cls-9"><path class="cls-1" d="M30 34.37a4.19 4.19 0 114.18-4.19A4.2 4.2 0 0130 34.37z"/></g><g class="cls-10"><path class="cls-1" d="M30 21.37a4.19 4.19 0 114.18-4.19A4.2 4.2 0 0130 21.37z"/></g><path class="cls-1" d="M42.93 164.37a4.19 4.19 0 114.19-4.19 4.19 4.19 0 01-4.19 4.19z"/><g class="cls-2"><path class="cls-1" d="M42.93 151.37a4.19 4.19 0 114.19-4.19 4.19 4.19 0 01-4.19 4.19z"/></g><g class="cls-3"><path class="cls-1" d="M42.93 138.37a4.19 4.19 0 114.19-4.19 4.19 4.19 0 01-4.19 4.19z"/></g><g class="cls-4"><path class="cls-1" d="M42.93 125.37a4.19 4.19 0 114.19-4.19 4.19 4.19 0 01-4.19 4.19z"/></g><g class="cls-5"><path class="cls-1" d="M42.93 112.37a4.19 4.19 0 114.19-4.19 4.19 4.19 0 01-4.19 4.19z"/></g><g class="cls-6"><path class="cls-1" d="M42.93 99.37a4.19 4.19 0 114.19-4.19 4.19 4.19 0 01-4.19 4.19z"/></g><g class="cls-7"><path class="cls-1" d="M42.93 86.37a4.19 4.19 0 114.19-4.19 4.19 4.19 0 01-4.19 4.19z"/></g><g class="cls-8"><path class="cls-1" d="M42.93 73.37a4.19 4.19 0 114.19-4.19 4.19 4.19 0 01-4.19 4.19z"/></g><g class="cls-9"><path class="cls-1" d="M42.93 60.37a4.19 4.19 0 114.19-4.19 4.19 4.19 0 01-4.19 4.19z"/></g><g class="cls-10"><path class="cls-1" d="M42.93 47.37a4.19 4.19 0 114.19-4.19 4.19 4.19 0 01-4.19 4.19z"/></g><path class="cls-1" d="M68.77 138.37a4.19 4.19 0 114.23-4.19 4.2 4.2 0 01-4.23 4.19z"/><g class="cls-2"><path class="cls-1" d="M68.77 125.37a4.19 4.19 0 114.23-4.19 4.2 4.2 0 01-4.23 4.19z"/></g><g class="cls-3"><path class="cls-1" d="M68.77 112.37a4.19 4.19 0 114.23-4.19 4.2 4.2 0 01-4.23 4.19z"/></g><g class="cls-4"><path class="cls-1" d="M68.77 99.37A4.19 4.19 0 1173 95.18a4.2 4.2 0 01-4.23 4.19z"/></g><g class="cls-5"><path class="cls-1" d="M68.77 86.37A4.19 4.19 0 1173 82.18a4.2 4.2 0 01-4.23 4.19z"/></g><g class="cls-6"><path class="cls-1" d="M68.77 73.37A4.19 4.19 0 1173 69.18a4.2 4.2 0 01-4.23 4.19z"/></g><g class="cls-7"><path class="cls-1" d="M68.77 60.37A4.19 4.19 0 1173 56.18a4.2 4.2 0 01-4.23 4.19z"/></g><g class="cls-8"><path class="cls-1" d="M68.77 47.37A4.19 4.19 0 1173 43.18a4.2 4.2 0 01-4.23 4.19z"/></g><g class="cls-9"><path class="cls-1" d="M68.77 34.37A4.19 4.19 0 1173 30.18a4.2 4.2 0 01-4.23 4.19z"/></g><g class="cls-10"><path class="cls-1" d="M68.77 21.37A4.19 4.19 0 1173 17.18a4.2 4.2 0 01-4.23 4.19z"/></g><path class="cls-1" d="M81.68 190.37a4.19 4.19 0 114.19-4.19 4.18 4.18 0 01-4.19 4.19z"/><g class="cls-2"><path class="cls-1" d="M81.68 177.37a4.19 4.19 0 114.19-4.19 4.18 4.18 0 01-4.19 4.19z"/></g><g class="cls-3"><path class="cls-1" d="M81.68 164.37a4.19 4.19 0 114.19-4.19 4.18 4.18 0 01-4.19 4.19z"/></g><g class="cls-4"><path class="cls-1" d="M81.68 151.37a4.19 4.19 0 114.19-4.19 4.18 4.18 0 01-4.19 4.19z"/></g><g class="cls-5"><path class="cls-1" d="M81.68 138.37a4.19 4.19 0 114.19-4.19 4.18 4.18 0 01-4.19 4.19z"/></g><g class="cls-6"><path class="cls-1" d="M81.68 125.37a4.19 4.19 0 114.19-4.19 4.18 4.18 0 01-4.19 4.19z"/></g><g class="cls-7"><path class="cls-1" d="M81.68 112.37a4.19 4.19 0 114.19-4.19 4.18 4.18 0 01-4.19 4.19z"/></g><g class="cls-8"><path class="cls-1" d="M81.68 99.37a4.19 4.19 0 114.19-4.19 4.18 4.18 0 01-4.19 4.19z"/></g><g class="cls-9"><path class="cls-1" d="M81.68 86.37a4.19 4.19 0 114.19-4.19 4.18 4.18 0 01-4.19 4.19z"/></g><g class="cls-10"><path class="cls-1" d="M81.68 73.37a4.19 4.19 0 114.19-4.19 4.18 4.18 0 01-4.19 4.19z"/></g><circle class="cls-1" cx="17.1" cy="186.18" r="4.18" transform="rotate(-.09 18.959 178.268)"/><circle class="cls-1" cx="30.02" cy="186.18" r="4.18"/><circle class="cls-1" cx="30.02" cy="173.18" r="4.18"/><circle class="cls-1" cx="30.02" cy="160.18" r="4.18"/><circle class="cls-1" cx="30.02" cy="147.18" r="4.18"/><circle class="cls-1" cx="30.02" cy="134.18" r="4.18"/><path class="cls-1" d="M42.93 190.37a4.19 4.19 0 114.19-4.19 4.19 4.19 0 01-4.19 4.19zM42.93 177.37a4.19 4.19 0 114.19-4.19 4.19 4.19 0 01-4.19 4.19zM42.93 164.37a4.19 4.19 0 114.19-4.19 4.19 4.19 0 01-4.19 4.19z"/><circle class="cls-1" cx="55.85" cy="186.18" r="4.18"/><g class="cls-3"><circle class="cls-1" cx="55.85" cy="173.18" r="4.18"/></g><g class="cls-5"><circle class="cls-1" cx="55.85" cy="160.18" r="4.18"/></g><g class="cls-7"><circle class="cls-1" cx="55.85" cy="147.18" r="4.18"/></g><g class="cls-9"><circle class="cls-1" cx="55.85" cy="134.18" r="4.18"/></g><g class="cls-10"><circle class="cls-1" cx="55.85" cy="121.18" r="4.18"/></g><path class="cls-1" d="M68.77 190.37a4.19 4.19 0 114.23-4.19 4.2 4.2 0 01-4.23 4.19zM68.77 177.37a4.19 4.19 0 114.23-4.19 4.2 4.2 0 01-4.23 4.19zM68.77 164.37a4.19 4.19 0 114.23-4.19 4.2 4.2 0 01-4.23 4.19zM68.77 151.37a4.19 4.19 0 114.23-4.19 4.2 4.2 0 01-4.23 4.19zM68.77 138.37a4.19 4.19 0 114.23-4.19 4.2 4.2 0 01-4.23 4.19z"/><circle class="cls-1" cx="81.68" cy="186.18" r="4.18"/><circle class="cls-1" cx="4.18" cy="199.18" r="4.18"/><circle class="cls-1" cx="4.18" cy="186.18" r="4.18"/><path class="cls-1" d="M17.1 203.37a4.19 4.19 0 114.18-4.19 4.19 4.19 0 01-4.18 4.19z"/><g class="cls-2"><path class="cls-1" d="M17.1 190.37a4.19 4.19 0 114.18-4.19 4.19 4.19 0 01-4.18 4.19z"/></g><g class="cls-3"><path class="cls-1" d="M17.1 177.37a4.19 4.19 0 114.18-4.19 4.19 4.19 0 01-4.18 4.19z"/></g><g class="cls-4"><path class="cls-1" d="M17.1 164.37a4.19 4.19 0 114.18-4.19 4.19 4.19 0 01-4.18 4.19z"/></g><g class="cls-5"><path class="cls-1" d="M17.1 151.37a4.19 4.19 0 114.18-4.19 4.19 4.19 0 01-4.18 4.19z"/></g><g class="cls-6"><path class="cls-1" d="M17.1 138.37a4.19 4.19 0 114.18-4.19 4.19 4.19 0 01-4.18 4.19z"/></g><g class="cls-7"><path class="cls-1" d="M17.1 125.37a4.19 4.19 0 114.18-4.19 4.19 4.19 0 01-4.18 4.19z"/></g><g class="cls-8"><path class="cls-1" d="M17.1 112.37a4.19 4.19 0 114.18-4.19 4.19 4.19 0 01-4.18 4.19z"/></g><g class="cls-9"><path class="cls-1" d="M17.1 99.37a4.19 4.19 0 114.18-4.19 4.19 4.19 0 01-4.18 4.19z"/></g><g class="cls-10"><path class="cls-1" d="M17.1 86.37a4.19 4.19 0 114.18-4.19 4.19 4.19 0 01-4.18 4.19z"/></g><path class="cls-1" d="M81.68 203.37a4.19 4.19 0 114.19-4.19 4.18 4.18 0 01-4.19 4.19z"/><g class="cls-2"><path class="cls-1" d="M81.68 190.37a4.19 4.19 0 114.19-4.19 4.18 4.18 0 01-4.19 4.19z"/></g><g class="cls-3"><path class="cls-1" d="M81.68 177.37a4.19 4.19 0 114.19-4.19 4.18 4.18 0 01-4.19 4.19z"/></g><g class="cls-4"><path class="cls-1" d="M81.68 164.37a4.19 4.19 0 114.19-4.19 4.18 4.18 0 01-4.19 4.19z"/></g><g class="cls-5"><path class="cls-1" d="M81.68 151.37a4.19 4.19 0 114.19-4.19 4.18 4.18 0 01-4.19 4.19z"/></g><g class="cls-6"><path class="cls-1" d="M81.68 138.37a4.19 4.19 0 114.19-4.19 4.18 4.18 0 01-4.19 4.19z"/></g><g class="cls-7"><path class="cls-1" d="M81.68 125.37a4.19 4.19 0 114.19-4.19 4.18 4.18 0 01-4.19 4.19z"/></g><g class="cls-8"><path class="cls-1" d="M81.68 112.37a4.19 4.19 0 114.19-4.19 4.18 4.18 0 01-4.19 4.19z"/></g><g class="cls-9"><path class="cls-1" d="M81.68 99.37a4.19 4.19 0 114.19-4.19 4.18 4.18 0 01-4.19 4.19z"/></g><g class="cls-10"><path class="cls-1" d="M81.68 86.37a4.19 4.19 0 114.19-4.19 4.18 4.18 0 01-4.19 4.19z"/></g><circle class="cls-1" cx="17.1" cy="199.18" r="4.18" transform="rotate(-.09 18.949 191)"/><circle class="cls-1" cx="30.02" cy="199.18" r="4.18"/><circle class="cls-1" cx="30.02" cy="186.18" r="4.18"/><path class="cls-1" d="M42.93 203.37a4.19 4.19 0 114.19-4.19 4.19 4.19 0 01-4.19 4.19zM42.93 190.37a4.19 4.19 0 114.19-4.19 4.19 4.19 0 01-4.19 4.19z"/><circle class="cls-1" cx="55.85" cy="199.18" r="4.18"/><g class="cls-3"><circle class="cls-1" cx="55.85" cy="186.18" r="4.18"/></g><path class="cls-1" d="M68.77 203.37a4.19 4.19 0 114.23-4.19 4.2 4.2 0 01-4.23 4.19zM68.77 190.37a4.19 4.19 0 114.23-4.19 4.2 4.2 0 01-4.23 4.19z"/><circle class="cls-1" cx="81.68" cy="199.18" r="4.18"/><circle class="cls-1" cx="4.18" cy="212.18" r="4.18"/><circle class="cls-1" cx="4.18" cy="199.18" r="4.18"/><path class="cls-1" d="M17.1 216.37a4.19 4.19 0 114.18-4.19 4.19 4.19 0 01-4.18 4.19z"/><g class="cls-2"><path class="cls-1" d="M17.1 203.37a4.19 4.19 0 114.18-4.19 4.19 4.19 0 01-4.18 4.19z"/></g><g class="cls-3"><path class="cls-1" d="M17.1 190.37a4.19 4.19 0 114.18-4.19 4.19 4.19 0 01-4.18 4.19z"/></g><g class="cls-4"><path class="cls-1" d="M17.1 177.37a4.19 4.19 0 114.18-4.19 4.19 4.19 0 01-4.18 4.19z"/></g><g class="cls-5"><path class="cls-1" d="M17.1 164.37a4.19 4.19 0 114.18-4.19 4.19 4.19 0 01-4.18 4.19z"/></g><g class="cls-6"><path class="cls-1" d="M17.1 151.37a4.19 4.19 0 114.18-4.19 4.19 4.19 0 01-4.18 4.19z"/></g><g class="cls-7"><path class="cls-1" d="M17.1 138.37a4.19 4.19 0 114.18-4.19 4.19 4.19 0 01-4.18 4.19z"/></g><g class="cls-8"><path class="cls-1" d="M17.1 125.37a4.19 4.19 0 114.18-4.19 4.19 4.19 0 01-4.18 4.19z"/></g><g class="cls-9"><path class="cls-1" d="M17.1 112.37a4.19 4.19 0 114.18-4.19 4.19 4.19 0 01-4.18 4.19z"/></g><g class="cls-10"><path class="cls-1" d="M17.1 99.37a4.19 4.19 0 114.18-4.19 4.19 4.19 0 01-4.18 4.19z"/></g><path class="cls-1" d="M81.68 216.37a4.19 4.19 0 114.19-4.19 4.18 4.18 0 01-4.19 4.19z"/><g class="cls-2"><path class="cls-1" d="M81.68 203.37a4.19 4.19 0 114.19-4.19 4.18 4.18 0 01-4.19 4.19z"/></g><g class="cls-3"><path class="cls-1" d="M81.68 190.37a4.19 4.19 0 114.19-4.19 4.18 4.18 0 01-4.19 4.19z"/></g><g class="cls-4"><path class="cls-1" d="M81.68 177.37a4.19 4.19 0 114.19-4.19 4.18 4.18 0 01-4.19 4.19z"/></g><g class="cls-5"><path class="cls-1" d="M81.68 164.37a4.19 4.19 0 114.19-4.19 4.18 4.18 0 01-4.19 4.19z"/></g><g class="cls-6"><path class="cls-1" d="M81.68 151.37a4.19 4.19 0 114.19-4.19 4.18 4.18 0 01-4.19 4.19z"/></g><g class="cls-7"><path class="cls-1" d="M81.68 138.37a4.19 4.19 0 114.19-4.19 4.18 4.18 0 01-4.19 4.19z"/></g><g class="cls-8"><path class="cls-1" d="M81.68 125.37a4.19 4.19 0 114.19-4.19 4.18 4.18 0 01-4.19 4.19z"/></g><g class="cls-9"><path class="cls-1" d="M81.68 112.37a4.19 4.19 0 114.19-4.19 4.18 4.18 0 01-4.19 4.19z"/></g><g class="cls-10"><path class="cls-1" d="M81.68 99.37a4.19 4.19 0 114.19-4.19 4.18 4.18 0 01-4.19 4.19z"/></g><circle class="cls-1" cx="17.1" cy="212.18" r="4.18" transform="rotate(-.09 18.939 203.733)"/><circle class="cls-1" cx="30.02" cy="212.18" r="4.18"/><circle class="cls-1" cx="30.02" cy="199.18" r="4.18"/><path class="cls-1" d="M42.93 216.37a4.19 4.19 0 114.19-4.19 4.19 4.19 0 01-4.19 4.19zM42.93 203.37a4.19 4.19 0 114.19-4.19 4.19 4.19 0 01-4.19 4.19z"/><circle class="cls-1" cx="55.85" cy="212.18" r="4.18"/><g class="cls-3"><circle class="cls-1" cx="55.85" cy="199.18" r="4.18"/></g><path class="cls-1" d="M68.77 216.37a4.19 4.19 0 114.23-4.19 4.2 4.2 0 01-4.23 4.19zM68.77 203.37a4.19 4.19 0 114.23-4.19 4.2 4.2 0 01-4.23 4.19z"/><circle class="cls-1" cx="81.68" cy="212.18" r="4.18"/></g></g></svg>