<svg xmlns="http://www.w3.org/2000/svg" viewBox="0 0 975 23"><defs><style>.cls-1{fill:#fff}</style></defs><g id="图层_2" data-name="图层 2"><g id="Layer_1" data-name="Layer 1"><path class="cls-1" d="M0 8h6v5H0zM60 8h6v5h-6zM84 6h6v9h-6zM132 8h5v5h-5zM155 8h6v5h-6zM215 8h6v5h-6zM251 8h6v5h-6zM264 8h5v5h-5zM324 8h5v5h-5zM359 8h6v5h-6zM371 8h5v5h-5zM444 8h5v5h-5zM503 8h6v5h-6zM515 8h5v5h-5zM551 8h5v5h-5zM563 8h6v5h-6zM623 8h5v5h-5zM635 8h5v5h-5zM646 8h5v5h-5zM670 8h6v5h-6zM682 8h6v5h-6zM706 8h5v5h-5zM718 8h6v5h-6zM777 8h6v5h-6zM790 8h5v5h-5zM72 9h6v3h-6zM144 9h6v3h-6zM227 9h6v3h-6zM240 9h5v3h-5zM334 9h7v3h-7zM347 9h5v3h-5zM431 9h5v3h-5zM527 9h5v3h-5zM538 9h6v3h-6zM695 9h5v3h-5zM802 9h6v3h-6zM814 9h5v3h-5zM826 9h5v3h-5zM837 8h6v5h-6zM850 8h5v5h-5zM48 5h5v10h-5zM120 5h5v10h-5zM204 5h5v10h-5zM311 5h6v10h-6zM418 5h7v10h-7zM491 5h5v10h-5zM611 5h5v10h-5zM766 5h5v10h-5zM897 5h5v10h-5zM910 8h5v5h-5zM921 8h7v5h-7zM934 8h5v5h-5zM12 5h6v12h-6zM167 5h6v12h-6zM275 5h6v12h-6zM384 5h5v12h-5zM454 5h5v12h-5zM575 5h5v12h-5zM658 5h6v12h-6zM730 5h5v12h-5zM861 5h7v12h-7zM944 5h7v12h-7zM25 0h5v23h-5zM95 0h6v23h-6zM180 0h5v23h-5zM287 0h5v23h-5zM394 0h5v23h-5zM467 0h5v23h-5zM586 0h6v23h-6zM742 0h6v23h-6zM874 0h5v23h-5zM957 0h5v23h-5zM35 4h6v13h-6zM108 4h5v13h-5zM192 4h5v13h-5zM300 4h5v13h-5zM407 4h5v13h-5zM478 4h7v13h-7zM598 4h6v13h-6zM754 4h6v13h-6zM886 4h5v13h-5zM970 4h5v13h-5z"/></g></g></svg>