<svg xmlns="http://www.w3.org/2000/svg" viewBox="0 0 22.1 28.04"><g data-name="图层 2"><path d="M18.4 1.5L15.77 0l-.93.71 1.49 1.5v8.58l-1.33.75-.9-2.06V3.19h-.62v2.93a2.38 2.38 0 10-4.75 0V3.19h-.67v6.29l-.9 2.06-1.39-.75V2.21l1.5-1.5L6.33 0 3.71 1.5 0 12.59v6.22l5.38 5.37L6.56 23l1.65 1.65v2.51l.88.88H13l.88-.88v-2.51L15.55 23l1.18 1.18 5.37-5.37v-6.22zM3.58 20.41c-.39 0-.71-2.57-.71-5.73S3.19 9 3.58 9s.71 2.56.71 5.73-.29 5.68-.71 5.68zm2.29-.67a.76.76 0 01-.75-.74.75.75 0 011.5 0 .76.76 0 01-.75.74zm0-3a.75.75 0 11.75-.74.76.76 0 01-.75.76zm0-3a.75.75 0 11.75-.74.75.75 0 01-.75.78zm8.43-3.09l.4.9v6.74l-.4.4zM8.93 6.12A2.07 2.07 0 0111.05 4a2.07 2.07 0 012.13 2.13V19.7H8.93zm0 14.08h4.25v2.55H8.93zm-1.52-8.61l.4-.91v8.05l-.4-.4zm6.31 12.88l-.07.08v2.36H8.46v-2.36l-.07-.08-1.22-1.21h7.77zm2.52-4.73a.76.76 0 01-.75-.76.75.75 0 11.75.76zm0-3a.75.75 0 010-1.5.75.75 0 110 1.5zm0-3A.75.75 0 1117 13a.75.75 0 01-.76.78zm2.29 6.63c-.4 0-.71-2.57-.71-5.73S18.13 9 18.53 9s.71 2.56.71 5.73-.32 5.68-.71 5.68zM12.18 6.74H9.93a.59.59 0 00-.6.59v6.8a.6.6 0 00.6.6h2.25a.6.6 0 00.6-.6v-6.8a.59.59 0 00-.6-.59zm.18 5.63a.47.47 0 01-.48.47h-1.66a.47.47 0 01-.47-.47v-.06a.47.47 0 01.47-.47h1.66a.47.47 0 01.48.47zm0-1.71a.47.47 0 01-.48.48h-1.66a.47.47 0 01-.47-.48v-.06a.47.47 0 01.47-.47h1.66a.47.47 0 01.48.47zm0-1.7a.47.47 0 01-.48.47h-1.66A.47.47 0 019.75 9v-.1a.47.47 0 01.47-.47h1.66a.47.47 0 01.48.47z" fill="#375d81" data-name="Layer 1"/></g></svg>