<svg xmlns="http://www.w3.org/2000/svg" viewBox="0 0 28.85 28.86"><defs><style>.cls-1{fill:#69bffe}</style></defs><g id="图层_2" data-name="图层 2"><g id="央铋_1" data-name="央铋 1"><path class="cls-1" d="M14.43 28.86a13.84 13.84 0 01-2.43-.21l.07-.4a14.21 14.21 0 002.69.19v.41zm2-.15l-.06-.41a13.26 13.26 0 002.63-.63l.13.39a14.56 14.56 0 01-2.67.65zm-6.07-.43a14 14 0 01-2.58-1l.22-.4a13.49 13.49 0 002.5 1zm10.32-.86l-.18-.37a14.42 14.42 0 002.31-1.41l.24.33a14.06 14.06 0 01-2.34 1.45zm-14.34-1a15.21 15.21 0 01-2.15-1.77l.29-.3a13.75 13.75 0 002.12 1.7zm18-1.51l-.28-.3a14.31 14.31 0 001.77-2l.33.24a14 14 0 01-1.8 2.04zM3.11 23.38A14.82 14.82 0 011.6 21l.4-.15a13.92 13.92 0 001.46 2.27zm24-2l-.36-.2a13.35 13.35 0 001.07-2.49l.39.13a14.42 14.42 0 01-1.14 2.56zM.92 19.51a13.87 13.87 0 01-.72-2.69l.4-.06a14.22 14.22 0 00.71 2.61zm27.67-2.31l-.41-.08a14.26 14.26 0 00.26-2.69 13.56 13.56 0 00-.07-1.43h.41a14.33 14.33 0 01.07 1.47 15.11 15.11 0 01-.26 2.73zM0 15.16v-.73a15.57 15.57 0 01.14-2l.41.06a14.68 14.68 0 00-.14 2v.71zm28.11-3.76a13.52 13.52 0 00-.83-2.57l.37-.17a13.67 13.67 0 01.86 2.65zM.87 10.85l-.4-.1a14.1 14.1 0 011-2.61l.37.18a14.24 14.24 0 00-.97 2.53zm25.67-3.47A13.1 13.1 0 0025 5.19l.31-.28a15.08 15.08 0 011.59 2.26zM2.6 6.9l-.34-.22A14.49 14.49 0 014 4.49l.3.28A14.38 14.38 0 002.6 6.9zM23.82 4a14.18 14.18 0 00-2.17-1.61l.21-.35a13.91 13.91 0 012.24 1.68zM5.46 3.66l-.27-.32a14.77 14.77 0 012.3-1.56l.2.36a13.5 13.5 0 00-2.23 1.52zm14.75-2a13.7 13.7 0 00-2.55-.87l.09-.4a13.61 13.61 0 012.63.9zM9.15 1.44L9 1.06a13.87 13.87 0 012.67-.79l.08.4a13.86 13.86 0 00-2.6.77zm6.91-.93a14.86 14.86 0 00-1.63-.1h-1.08V0a10.29 10.29 0 011.11 0 13.52 13.52 0 011.68.1zM14.43 11.44a3 3 0 103 3 3 3 0 00-3-3z"/><path class="cls-1" d="M14.43 1.91a12.52 12.52 0 1012.51 12.52A12.53 12.53 0 0014.43 1.91zm0 23.93a11.42 11.42 0 1111.41-11.41 11.43 11.43 0 01-11.41 11.41z"/><path class="cls-1" d="M14.43 3.56a10.87 10.87 0 1010.86 10.87A10.89 10.89 0 0014.43 3.56zm0 16.6a5.74 5.74 0 115.73-5.73 5.74 5.74 0 01-5.73 5.73z"/><path d="M21.57 20.32l-.84-.7.31-.41.89.65a5.19 5.19 0 01-.36.46zm.69-.94l-.93-.59c.09-.15.18-.29.26-.45l1 .53zm.56-1l-1-.47c.08-.15.14-.31.21-.47l1 .41c-.03.15-.13.33-.21.5zm.43-1.09l-1.05-.33c.05-.16.1-.33.14-.5l1.07.27c-.05.16-.1.35-.16.53zm.28-1.13l-1.08-.2c0-.17.06-.34.08-.51l1.09.14a5.62 5.62 0 01-.09.54zm.14-1.16l-1.09-.06v-.48h1.1c.01.15 0 .33-.01.54zm-1.1-1.09c0-.17 0-.34-.05-.51l1.09-.14a5.42 5.42 0 01.06.58zm-.13-1a4.05 4.05 0 00-.12-.5l1.07-.28c.05.19.09.38.13.57zm-.26-1a4.09 4.09 0 00-.18-.49l1-.42c.07.18.14.37.2.55zm-.39-1c-.07-.15-.15-.31-.23-.46l1-.53.27.52zm-.5-.9L21 9.59l.88-.66c.12.16.23.32.34.49zm-.61-.83c-.11-.13-.22-.26-.34-.38l.79-.8a5.34 5.34 0 01.39.44zM20 8.44a4.32 4.32 0 00-.39-.34l.7-.85.44.38zm-.8-.65l-.42-.29.58-.93c.16.1.33.21.48.32zm-.87-.55L17.84 7l.46-1 .53.26zm-.93-.43l-.49-.17.34-1 .55.2zm-1-.31l-.51-.11.2-1.08.57.13zm-1-.18h-.52l.06-1.1.58.05z" fill="#fff"/></g></g></svg>