<svg xmlns="http://www.w3.org/2000/svg" viewBox="0 0 1747.52 1228.21"><defs><style>.cls-2{fill:#fff}</style></defs><g id="图层_2" data-name="图层 2"><g id="央铋_1" data-name="央铋 1"><g opacity=".5"><path class="cls-2" d="M720.71 311.39h-25.97l31.16-26.54h25.97l-31.16 26.54zM658.45 316.67l-25.4 5.4 24.96-32.44 25.4-5.39-24.96 32.43zM598.65 334.79l-23.73 10.57 17.68-36.93 23.73-10.56-17.68 36.92zM543.92 364.95l-21.01 15.26 9.61-39.79 21.01-15.26-9.61 39.79zM496.66 405.81l-17.37 19.31 1.13-40.92 17.37-19.31-1.13 40.92zM458.93 455.62l-12.98 22.49-7.41-40.26 12.98-22.49 7.41 40.26zM432.38 512.18l-8.03 24.71-15.61-37.85 8.02-24.7 15.62 37.84zM418.17 573.03l-2.72 25.83-23.13-33.77 2.71-25.83 23.14 33.77zM416.91 635.5l2.72 25.83-29.65-28.22-2.72-25.83 29.65 28.22zM428.68 696.87l8.02 24.7-34.86-21.45-8.03-24.69 34.87 21.44zM452.95 754.45l12.99 22.49-38.57-13.72-12.99-22.49 38.57 13.72zM488.65 805.72l17.39 19.3-40.58-5.4-17.38-19.3 40.57 5.4zM534.24 848.46l21.02 15.26-40.81 3.15-21.01-15.26 40.8-3.15zM587.72 880.78l23.73 10.56-39.27 11.56-23.72-10.56 39.26-11.56zM646.75 901.27l25.4 5.4-36 19.47-25.4-5.4 36-19.47zM708.75 909.04h25.97l-31.17 26.54h-25.96l31.16-26.54zM771 903.76l25.41-5.41-24.97 32.44-25.39 5.4L771 903.76zM830.81 885.64l23.73-10.57-17.68 36.92-23.73 10.56 17.68-36.91zM885.54 855.49l21.01-15.28-9.62 39.8-21.01 15.26 9.62-39.78zM932.79 814.61l17.39-19.3-1.14 40.92-17.38 19.3 1.13-40.92zM970.52 764.81l13-22.5 7.39 40.27-12.98 22.48-7.41-40.25zM997.08 708.25l8.03-24.71 15.6 37.85-8.02 24.69-15.61-37.83zM1011.29 647.4l2.71-25.84 23.14 33.78-2.72 25.83-23.13-33.77zM1012.54 584.93l-2.72-25.84 29.65 28.24 2.72 25.82-29.65-28.22zM1000.78 523.56l-8.04-24.71 34.88 21.45 8.03 24.7-34.87-21.44zM976.51 465.98l-12.99-22.49 38.57 13.73 12.99 22.48-38.57-13.72zM940.81 414.71l-17.39-19.31 40.58 5.41 17.38 19.3-40.57-5.4zM895.22 371.98L874.2 356.7l40.82-3.14 21 15.26-40.8 3.16zM841.74 339.66l-23.73-10.57 39.26-11.56L881 328.09l-39.26 11.57zM782.72 319.16l-25.42-5.4 36.01-19.47 25.4 5.39-35.99 19.48z"/></g><g opacity=".4"><path class="cls-2" transform="rotate(-1.87 700.585 260.27)" d="M696.91 243.44h6.43v33.39h-6.43z"/><path class="cls-2" transform="rotate(-7.87 663.517 264.08)" d="M660.32 247.39h6.44v33.39h-6.44z"/><path class="cls-2" transform="rotate(-13.85 627.803 271.922)" d="M624.35 255.14h6.44v33.39h-6.44z"/><path class="cls-2" transform="rotate(-19.87 592.477 283.278)" d="M589.39 266.61h6.44V300h-6.44z"/><path class="cls-2" transform="rotate(-25.87 558.918 298.332)" d="M555.82 281.66h6.44v33.4h-6.44z"/><path class="cls-2" transform="rotate(-31.8 526.066 314.566)" d="M524.01 300.16h6.44v33.39h-6.44z"/><path class="cls-2" d="M510.32 349.77l-5.1 3.95-20.47-26.37 5.08-3.95 20.49 26.37z"/><path class="cls-2" transform="rotate(-43.82 470.302 363.276)" d="M467.03 346.56h6.44v33.4h-6.44z"/><path class="cls-2" transform="rotate(-49.9 445.72 390.669)" d="M442.5 373.98h6.43v33.39h-6.43z"/><path class="cls-2" d="M439.8 427.21l-3.63 5.32-27.63-18.74 3.62-5.33 27.64 18.75zM422.1 457.45l-3.03 5.67-29.45-15.75 3.04-5.68 29.44 15.76zM407.66 489.39l-2.42 5.95-30.93-12.58 2.43-5.97 30.92 12.6zM396.65 522.65l-1.8 6.17-32.06-9.28 1.78-6.19 32.08 9.3zM389.17 556.88l-1.12 6.33-32.88-5.88 1.14-6.34 32.86 5.89zM385.32 591.71l-.47 6.41-33.3-2.41.45-6.43 33.32 2.43zM385.12 626.74l.21 6.43-33.38 1.08-.21-6.44 33.38-1.07zM388.59 661.61l.87 6.37-33.08 4.57-.88-6.39 33.09-4.55zM395.68 695.92l1.53 6.26-32.41 7.99-1.55-6.26 32.43-7.99zM406.32 729.31l2.18 6.05-31.4 11.35-2.2-6.07 31.42-11.33zM420.39 761.4l2.8 5.78-30.04 14.57-2.83-5.8 30.07-14.55zM437.74 791.84l3.39 5.46-28.36 17.64-3.41-5.48 28.38-17.62zM458.17 820.31l3.94 5.08-26.35 20.49-3.97-5.09 26.38-20.48zM481.46 846.48l4.46 4.63-24.08 23.14-4.46-4.65 24.08-23.12zM507.37 870.07l4.92 4.15-21.53 25.52-4.93-4.15 21.54-25.52zM535.62 890.83l5.3 3.61-18.74 27.63-5.33-3.61 18.77-27.63z"/><path class="cls-2" transform="rotate(-61.84 560.753 924.72)" d="M544.11 921.53h33.39v6.44h-33.39z"/><path class="cls-2" d="M597.79 922.95l5.94 2.42-12.59 30.92-5.96-2.41 12.61-30.93zM631.05 933.96l6.17 1.8-9.28 32.06-6.19-1.78 9.3-32.08zM665.28 941.44l6.33 1.13-5.88 32.86-6.35-1.11 5.9-32.88zM700.1 945.29l6.41.47-2.41 33.31-6.43-.46 2.43-33.32zM735.14 945.49l6.43-.21 1.07 33.38-6.43.22-1.07-33.39zM770 942.03l6.37-.88 4.57 33.08-6.38.89-4.56-33.09zM804.32 934.94l6.24-1.54 8 32.41-6.26 1.56-7.98-32.43zM837.7 924.3l6.05-2.19 11.35 31.4-6.06 2.21-11.34-31.42zM869.79 910.23l5.79-2.81 14.57 30.06-5.81 2.81-14.55-30.06zM900.24 892.88l5.45-3.39 17.64 28.35-5.49 3.42-17.6-28.38zM928.69 872.44l5.09-3.94 20.49 26.36-5.08 3.97-20.5-26.39zM954.87 849.14l4.63-4.44 23.15 24.06-4.65 4.48-23.13-24.1zM978.47 823.24l4.14-4.91 25.52 21.52-4.14 4.94-25.52-21.55zM999.22 795.01l3.61-5.32 27.63 18.73-3.61 5.35-27.63-18.76zM1016.91 764.76l3.03-5.66 29.45 15.74-3.03 5.7-29.45-15.78zM1031.33 732.84l2.44-5.95 30.93 12.57-2.42 5.98-30.95-12.6zM1042.35 699.58l1.79-6.18 32.08 9.27-1.78 6.21-32.09-9.3zM1049.83 665.35l1.14-6.33 32.86 5.87-1.12 6.35-32.88-5.89zM1053.69 630.52l.47-6.41 33.3 2.4-.45 6.44-33.32-2.43zM1053.89 595.49l-.19-6.43 33.35-1.09.24 6.44-33.4 1.08zM1050.42 560.62l-.87-6.37 33.07-4.58.91 6.39-33.11 4.56zM1043.33 526.3l-1.53-6.24 32.41-8 1.57 6.26-32.45 7.98zM1032.69 492.92l-2.17-6.05 31.39-11.35 2.21 6.06-31.43 11.34zM1018.62 460.83l-2.79-5.78 30.04-14.57 2.82 5.79-30.07 14.56zM1001.28 430.38l-3.38-5.45 28.34-17.62 3.42 5.45-28.38 17.62zM980.84 401.92l-3.94-5.08 26.35-20.49 3.97 5.08-26.38 20.49zM957.54 375.75l-4.45-4.63 24.08-23.14 4.47 4.64-24.1 23.13zM931.64 352.16l-4.91-4.14 21.52-25.53 4.93 4.14-21.54 25.53zM903.41 331.4l-5.32-3.61 18.74-27.63 5.33 3.6-18.75 27.64zM873.17 313.72l-5.67-3.04 15.74-29.44 5.7 3.03-15.77 29.45zM841.23 299.28l-5.95-2.42 12.59-30.93 5.97 2.42-12.61 30.93zM807.97 288.27l-6.16-1.79 9.27-32.07 6.19 1.78-9.3 32.08zM773.73 280.79l-6.31-1.14 5.87-32.86 6.35 1.11-5.91 32.89zM738.91 276.94l-6.41-.48 2.41-33.3 6.44.45-2.44 33.33zM708.35 209.83h6.39v66.33h-6.39zM679.82 277.99l-6.35.67-6.93-65.97 6.35-.66 6.93 65.96z"/><path class="cls-2" transform="rotate(-11.97 635.096 251.637)" d="M632.07 218.52h6.39v66.33h-6.39z"/><path class="cls-2" d="M611.52 292.5l-6.09 1.98-20.49-63.08 6.08-1.98 20.5 63.08zM578.87 305.03l-5.85 2.6-26.97-60.59 5.84-2.6 26.98 60.59z"/><path class="cls-2" transform="rotate(-30.01 528.278 293.755)" d="M525.17 260.62h6.39v66.33h-6.39z"/><path class="cls-2" d="M518.39 339.95l-5.17 3.75-38.99-53.66 5.17-3.75 38.99 53.66zM491.21 361.96l-4.74 4.27-44.39-49.29 4.76-4.28 44.37 49.3z"/><path class="cls-2" transform="rotate(-48.04 439.762 366.874)" d="M436.51 333.7h6.39v66.33h-6.39z"/><path class="cls-2" transform="rotate(-53.98 415.788 396.948)" d="M412.58 363.77h6.39v66.33h-6.39z"/><path class="cls-2" transform="rotate(-60.02 395.141 429.358)" d="M391.93 396.19h6.39v66.34h-6.39z"/><path class="cls-2" d="M409.57 474.32l-2.6 5.84-60.6-26.97 2.6-5.84 60.6 26.97zM397.04 506.96l-1.99 6.08-63.08-20.49 1.97-6.07 63.1 20.48zM387.99 540.74l-1.34 6.26-64.88-13.8 1.34-6.24 64.88 13.78zM382.52 575.27l-.68 6.36-65.96-6.93.66-6.34 65.98 6.91zM380.68 610.19v6.4h-66.33v-6.39l66.33-.01zM382.51 645.11l.66 6.36-65.96 6.93-.67-6.35 65.97-6.94zM387.98 679.64l1.32 6.26-64.87 13.79-1.33-6.24 64.88-13.81zM397.03 713.42l1.96 6.08-63.07 20.5-1.98-6.07 63.09-20.51zM409.55 746.06l2.6 5.84-60.59 26.98-2.59-5.83 60.58-26.99zM425.44 777.21l3.18 5.55-57.44 33.16-3.2-5.53 57.46-33.18zM444.48 806.54l3.74 5.18-53.65 38.98-3.76-5.16 53.67-39zM466.48 833.71l4.25 4.76-49.28 44.39-4.27-4.75 49.3-44.4zM491.2 858.44l4.73 4.29-44.37 49.29-4.74-4.28 44.38-49.3zM518.37 880.45l5.16 3.76-38.98 53.66-5.16-3.75 38.98-53.67zM547.69 899.49l5.53 3.21-33.16 57.44-5.52-3.2 33.15-57.45zM578.84 915.36l5.84 2.61-26.98 60.6-5.83-2.61 26.97-60.6zM611.49 927.9l6.06 1.99-20.48 63.08-6.07-1.98 20.49-63.09zM645.26 936.95l6.24 1.35-13.77 64.87-6.25-1.34 13.78-64.88zM679.8 942.42l6.34.69-6.91 65.95-6.36-.67 6.93-65.97zM714.71 944.24l6.38.03.01 66.32-6.39-.01v-66.34zM749.62 942.42l6.36-.64 6.94 65.95-6.35.66-6.95-65.97zM784.16 936.95l6.25-1.31 13.81 64.88-6.26 1.31-13.8-64.88zM817.94 927.91l6.08-1.96 20.5 63.07-6.08 1.97-20.5-63.08zM850.58 915.38l5.84-2.58 26.98 60.58-5.84 2.59-26.98-60.59zM881.73 899.51l5.54-3.18 33.17 57.43-5.54 3.19-33.17-57.44zM911.05 880.46l5.18-3.73 39 53.64-5.19 3.76-38.99-53.67zM938.24 858.46l4.75-4.25 44.39 49.27-4.77 4.28-44.37-49.3zM962.96 833.74l4.28-4.73 49.3 44.37-4.3 4.74-49.28-44.38zM984.96 806.57l3.77-5.15 53.67 38.97-3.77 5.16-53.67-38.98zM1004 777.25l3.21-5.52 57.45 33.15-3.21 5.53-57.45-33.16zM1019.88 746.09l2.61-5.82 60.6 26.96-2.61 5.84-60.6-26.98zM1032.41 713.45l2-6.06 63.08 20.48-2 6.08-63.08-20.5zM1041.46 679.67l1.35-6.23 64.88 13.77-1.35 6.25-64.88-13.79zM1046.94 645.14l.68-6.34 65.96 6.91-.68 6.36-65.96-6.93zM1048.77 610.23l.01-6.39 66.33-.01-.01 6.4h-66.33zM1046.94 575.3l-.65-6.34 65.96-6.95.65 6.37-65.96 6.92zM1041.47 540.77l-1.31-6.24 64.87-13.81 1.31 6.26-64.87 13.79zM1032.42 507l-1.95-6.07 63.06-20.52 1.97 6.09-63.08 20.5zM1019.9 474.36l-2.59-5.84 60.59-27 2.58 5.85-60.58 26.99zM1004.02 443.2l-3.17-5.53 57.42-33.18 3.18 5.54-57.43 33.17zM984.98 413.87l-3.73-5.16 53.63-39 3.76 5.17-53.66 38.99zM962.98 386.7l-4.26-4.75 49.28-44.39 4.27 4.76-49.29 44.38zM938.26 361.98l-4.73-4.29 44.35-49.29 4.76 4.28-44.38 49.3zM911.09 339.96l-5.16-3.75 38.96-53.66 5.17 3.76-38.97 53.65zM881.77 320.92l-5.52-3.19 33.13-57.46 5.54 3.21-33.15 57.44zM850.61 305.05l-5.81-2.61 26.93-60.6 5.84 2.61-26.96 60.6zM817.98 292.51l-6.07-1.98 20.46-63.08 6.08 1.99-20.47 63.07zM784.2 283.46l-6.23-1.33 13.75-64.88 6.25 1.34-13.77 64.87zM749.66 277.99l-6.34-.67 6.9-65.96 6.37.67-6.93 65.96z"/></g><path class="cls-2" d="M709.16 348a5.55 5.55 0 115.55 5.54 5.55 5.55 0 01-5.55-5.54zM654.77 354.86a5.55 5.55 0 116.58 4.28 5.54 5.54 0 01-6.58-4.28zM603 372.91a5.55 5.55 0 117.33 2.81 5.55 5.55 0 01-7.33-2.81zM556.1 401.32a5.55 5.55 0 117.75 1.23 5.56 5.56 0 01-7.75-1.23zM516.14 438.86a5.55 5.55 0 117.84-.41 5.54 5.54 0 01-7.84.41zM484.86 483.89a5.55 5.55 0 117.58-2 5.53 5.53 0 01-7.58 2zM463.63 534.44a5.55 5.55 0 117-3.56 5.54 5.54 0 01-7 3.56zM453.36 588.3a5.55 5.55 0 116.1-4.93 5.53 5.53 0 01-6.1 4.93zM454.52 643.11a5.55 5.55 0 114.94-6.09 5.52 5.52 0 01-4.94 6.09zM467.06 696.49a5.55 5.55 0 113.56-7 5.54 5.54 0 01-3.56 7zM490.41 746.1a5.55 5.55 0 112-7.58 5.54 5.54 0 01-2 7.58zM523.57 789.76a5.54 5.54 0 11.42-7.83 5.54 5.54 0 01-.42 7.83zM565.09 825.58a5.55 5.55 0 11-1.23-7.75 5.54 5.54 0 011.23 7.75zM613.14 852a5.55 5.55 0 11-2.81-7.32 5.54 5.54 0 012.81 7.32zM665.63 867.82a5.55 5.55 0 11-4.27-6.59 5.53 5.53 0 014.27 6.59zM720.26 872.4a5.55 5.55 0 11-5.54-5.55 5.53 5.53 0 015.54 5.55zM774.66 865.51a5.55 5.55 0 11-6.58-4.28 5.53 5.53 0 016.58 4.28zM826.44 847.47a5.55 5.55 0 11-7.33-2.82 5.52 5.52 0 017.33 2.82zM873.33 819.06a5.55 5.55 0 11-7.75-1.23 5.54 5.54 0 017.75 1.23zM913.29 781.51a5.55 5.55 0 11-7.84.41 5.52 5.52 0 017.84-.41zM944.57 736.49a5.55 5.55 0 11-7.58 2 5.52 5.52 0 017.58-2zM965.81 685.94a5.55 5.55 0 11-7 3.56 5.53 5.53 0 017-3.56zM976.07 632.08A5.55 5.55 0 11970 637a5.52 5.52 0 016.07-4.92zM974.91 577.26a5.55 5.55 0 11-4.95 6.1 5.53 5.53 0 014.95-6.1zM962.38 523.88a5.55 5.55 0 11-3.57 7 5.53 5.53 0 013.57-7zM939 474.27a5.55 5.55 0 11-2 7.59 5.54 5.54 0 012-7.59zM905.86 430.61a5.55 5.55 0 017.43 8.25 5.55 5.55 0 11-7.43-8.25zM864.35 394.79a5.55 5.55 0 019 6.53 5.55 5.55 0 11-9-6.53zM816.3 368.39a5.55 5.55 0 0110.14 4.51 5.55 5.55 0 11-10.14-4.51zM763.8 352.55a5.55 5.55 0 114.27 6.59 5.52 5.52 0 01-4.27-6.59z"/><path class="cls-2" d="M714.71 1186.36c-317.7 0-576.16-258.47-576.16-576.17S397 34 714.71 34s576.17 258.46 576.17 576.16-258.47 576.2-576.17 576.2zm0-1149.43c-316.1 0-573.26 257.17-573.26 573.26s257.16 573.26 573.26 573.26S1288 926.29 1288 610.19 1030.81 36.93 714.71 36.93z"/><g opacity=".7"><path class="cls-2" d="M642.13 146.88l-15.55 2.78c-2.46.49-5.23.84-8.18 1.55l-9.55 2.22-10.85 2.49-11.89 3.36c-16.66 4.44-35.57 11.37-55.48 19.55a513.07 513.07 0 00-59.94 30.89 519.91 519.91 0 00-54.91 39.21c-8.08 7.13-16.19 13.69-23.18 20.68-3.55 3.43-7.1 6.67-10.37 10l-9.28 9.74c-6.09 6.1-11 12.3-15.68 17.53S349 317 345.81 320.91l-7.2 9.19-2.39 3.37-10.15-7.47 2.45-3.45 7.39-9.44c3.22-4 6.94-9.09 11.76-14.43s9.85-11.73 16.1-18l9.52-10c3.36-3.39 7-6.72 10.65-10.24 7.18-7.18 15.5-13.92 23.8-21.24a532.19 532.19 0 0156.38-40.2 524.53 524.53 0 0161.55-31.73c20.45-8.41 39.88-15.51 57-20.07l12.22-3.45 11.11-2.59 9.81-2.27c3-.73 5.87-1.1 8.4-1.59l16-2.86z"/><path class="cls-2" d="M802.84 128l-9.84-1.73c-3.12-.64-7-1.07-11.37-1.63l-14.78-1.88a536.1 536.1 0 00-80-2c-29.12 1.39-57.92 6.33-79.22 11l-14.52 3.34c-4.29 1.13-8 2.25-11.06 3.1l-9.64 2.8-2.53-8.34 9.8-2.78c3.13-.87 6.9-2 11.26-3.15l14.78-3.41c21.68-4.8 51-9.81 80.63-11.23a543.69 543.69 0 0181.4 2l15 1.91c4.48.58 8.39 1 11.57 1.66l10 1.79zM1110.09 283.36s-2.33-2.7-6.42-7.41l-7.36-8.51c-2.8-3.32-6.32-6.73-10-10.65l-5.75-6q-1.5-1.55-3-3.17l-3.27-3.13-13.94-13.3c-5-4.44-10.25-8.92-15.54-13.52l-4-3.45-4.17-3.28-8.4-6.6a522.65 522.65 0 00-65.4-43.11c-4.58-2.76-9.06-4.78-12.89-6.83l-10-5.12c-2.75-1.47-5-2.43-6.53-3.12l-2.33-1.06 2.86-6.15 2.37 1.08c1.54.7 3.82 1.67 6.61 3.16l10.07 5.15c3.89 2.07 8.42 4.13 13.06 6.93a528.82 528.82 0 0166.27 43.67l8.51 6.68 4.22 3.34 4.06 3.48c5.36 4.67 10.69 9.2 15.74 13.71l14.14 13.46 3.32 3.18 3.07 3.22 5.83 6.11c3.7 4 7.26 7.43 10.1 10.8l7.46 8.61 6.5 7.51zM1114.91 338.93s-2.31-3.23-6.34-8.9c-2-2.82-4.41-6.32-7.32-10.19s-6.38-8.1-10.06-12.79a487.7 487.7 0 00-131.65-113.68l-14.11-8.11-11.15-5.73-9.73-5 4.84-10 10 5.1 11.41 5.86 14.44 8.3a499 499 0 01134.67 116.28c3.77 4.79 7.22 9.19 10.28 13.09s5.41 7.53 7.5 10.41l6.48 9.12z"/><path class="cls-2" d="M1142.76 816.82s.41-.79 1.1-2.36l3.11-6.89 5-11.12c1.89-4.42 3.82-9.6 6.12-15.33a484.85 484.85 0 0026.36-98.82q1-7.89 2-16.11c.33-2.74.75-5.49 1-8.29s.42-5.63.63-8.48c.38-5.71 1-11.49 1.2-17.4s.3-11.9.45-18a515.81 515.81 0 00-5.37-76.21 486.53 486.53 0 00-19.39-79.28 476.46 476.46 0 00-33.81-77.17c-27.1-49.71-63.84-93.85-103.72-128.74a455.73 455.73 0 00-61.28-45.57c-5-3.4-10.33-6.24-15.43-9.21s-10.11-5.93-15.26-8.43l-15-7.67-14.78-6.68c-2.43-1.07-4.79-2.24-7.2-3.19l-7.16-2.82-13.83-5.43-13.37-4.52c-4.34-1.46-8.52-3-12.69-4.05l-12-3.42-5.64-1.63-5.55-1.29c-7.28-1.62-13.91-3.34-20-4.5-12.19-2.11-21.72-4.07-28.33-4.69l-10.08-1.28-1.34 11.54 9.84 1.25c6.45.6 15.74 2.52 27.63 4.57 5.92 1.14 12.39 2.82 19.49 4.39l5.42 1.26 5.56 1.58 11.73 3.33c4.07 1.05 8.15 2.53 12.38 4l13 4.4 13.49 5.3 7 2.75c2.36.93 4.65 2.07 7 3.12l14.42 6.51 14.64 7.49c5 2.42 9.89 5.35 14.88 8.21s10.13 5.67 15.05 9a444.14 444.14 0 0159.79 44.45c38.91 34.05 74.76 77.12 101.19 125.61a464.58 464.58 0 0133 75.27 476.18 476.18 0 0118.99 77.32 503.65 503.65 0 015.23 74.35q-.23 8.91-.44 17.55c-.17 5.77-.81 11.42-1.16 17-.21 2.78-.42 5.55-.63 8.28s-.66 5.41-1 8.09q-1 8-2 15.71a472.69 472.69 0 01-25.72 96.38c-2.24 5.6-4.12 10.65-6 15s-3.58 7.9-4.91 10.84l-3 6.73c-.66 1.53-1.07 2.29-1.07 2.29z"/><path class="cls-2" d="M785.46 1088.43s2.73-.27 7.79-1.24 12.52-2.08 21.91-4.07a490.53 490.53 0 0076.08-22.88l11.72-4.62 11.91-5.39c4-1.89 8.23-3.55 12.26-5.71s8.22-4.21 12.42-6.36c2.09-1.09 4.23-2.12 6.32-3.28l6.25-3.6 12.73-7.32 12.65-8.08 6.42-4.11c2.15-1.37 4.18-2.93 6.29-4.4l12.68-9c4.19-3.14 8.27-6.46 12.45-9.71l6.26-4.92c2.07-1.69 4.05-3.48 6.08-5.22l12.2-10.57q5.86-5.58 11.77-11.23c1.95-1.9 4-3.7 5.87-5.68l5.65-5.93c3.73-4 7.65-7.83 11.24-12l10.77-12.44c13.91-17 27.26-34.46 38.56-52.9l4.36-6.81 4-7 7.94-13.86 7.19-14c1.18-2.33 2.41-4.62 3.53-7l3.19-7.06a476.59 476.59 0 0034.76-106.68c1.4-8.1 2.92-15.85 4.07-23.26 1-7.44 1.84-14.5 2.68-21.14.65-6.66 1-12.91 1.49-18.68.2-2.89.49-5.65.58-8.3s.13-5.19.19-7.59c.22-9.6.55-17.15.26-22.29s-.2-7.89-.2-7.89l5.56-.16.2 8c.3 5.2 0 12.84-.26 22.55-.06 2.43-.12 5-.19 7.66s-.39 5.49-.58 8.41c-.48 5.83-.86 12.16-1.51 18.89q-1.27 10.06-2.72 21.38c-1.16 7.5-2.69 15.33-4.11 23.53-6.33 32.69-17.79 70.09-35.17 107.92l-3.22 7.14c-1.13 2.36-2.38 4.68-3.57 7q-3.62 7.06-7.28 14.21l-8 14-4.06 7.06-4.42 6.88c-11.42 18.65-24.92 36.35-39 53.51l-10.9 12.58c-3.63 4.2-7.6 8.07-11.37 12.12l-5.71 6c-1.91 2-4 3.83-5.94 5.74l-11.91 11.36-12.33 10.69c-2.06 1.76-4.07 3.57-6.15 5.28l-6.34 5c-4.23 3.29-8.35 6.65-12.59 9.82l-12.82 9.12c-2.14 1.48-4.2 3.06-6.37 4.45l-6.49 4.16-12.79 8.17-12.88 7.41-6.33 3.63c-2.11 1.18-4.27 2.22-6.39 3.32l-12.56 6.44c-4.08 2.19-8.34 3.86-12.4 5.77l-12 5.46-11.86 4.67a495.33 495.33 0 01-77 23.14c-9.5 2-17.06 3.13-22.17 4.12s-7.87 1.26-7.87 1.26z"/><path class="cls-2" d="M553.37 1040.21l1.35.53c.89.36 2.2.91 4 1.47l15.22 5.14c3.25 1.19 7 2.23 11 3.34l13 3.7c4.64 1.29 9.68 2.28 14.94 3.55l8.1 1.88c2.77.62 5.65 1 8.57 1.58 5.85 1 11.9 2.3 18.25 3.11l19.66 2.5 20.89 1.6c7.13.47 14.45.43 21.88.69a466.29 466.29 0 0092.52-8.38 452.21 452.21 0 00160.49-64.6l7.34-4.7c2.38-1.55 4.59-3.24 6.81-4.79l12.52-8.92 10.62-8.36c3.27-2.6 6.37-4.87 8.93-7.21l12.16-10.53c1.42-1.2 2.47-2.16 3.15-2.84l1-1 6.89 7.47-1.08 1c-.69.7-1.77 1.67-3.22 2.9l-12.42 10.76c-2.62 2.39-5.78 4.72-9.12 7.37l-10.86 8.55-12.8 9.12c-2.26 1.58-4.53 3.3-7 4.89l-7.5 4.8a462.47 462.47 0 01-164.07 66 476.59 476.59 0 01-94.55 8.57c-7.59-.26-15.07-.23-22.36-.71l-21.34-1.63-20.1-2.56c-6.49-.83-12.67-2.18-18.66-3.18-3-.56-5.92-1-8.76-1.62l-8.28-1.92c-5.37-1.29-10.53-2.3-15.27-3.63l-13.27-3.7c-4.1-1.15-7.88-2.21-11.2-3.42l-15.56-5.26c-1.81-.57-3.15-1.14-4.07-1.49l-1.38-.55z"/><path class="cls-2" d="M238 610.19s.25 9.21.68 25.32c1.25 16 2.63 39.1 8.19 66.17a481.89 481.89 0 0027 90.16 479.53 479.53 0 00124.41 174.71 482.81 482.81 0 0076.22 55.3l8.79 5.06 4.24 2.44 4.25 2.17 15.9 8.15 14.31 6.48 6.35 2.88c2 .9 4 1.62 5.9 2.37 7.5 2.93 13.36 5.31 17.4 6.82l6.26 2.12-4.06 11.66-6.42-2.17c-4.15-1.54-10.17-4-17.86-7-1.91-.78-4-1.52-6-2.44l-6.52-3-14.67-6.66-16.37-8.3-4.36-2.24c-1.43-.82-2.89-1.65-4.35-2.5l-9-5.19a494.36 494.36 0 01-78.2-56.73 492.16 492.16 0 01-127.54-179.22A494.7 494.7 0 01234.79 704c-5.69-27.78-7.13-51.43-8.39-67.88-.45-16.53-.7-26-.7-26z"/><path class="cls-2" d="M420 1013.93l4.52 3.21c3 2.05 7.2 5.28 12.84 9s12.51 8.19 20.57 13c8.21 4.6 17.21 10.24 27.63 15.31 40.79 21.81 99.76 42.76 161 50.9a495.14 495.14 0 0090.43 4.17 488 488 0 00132.45-24l14.85-5c1.72-.56 3-1 3.88-1.4l1.32-.53 3.73 10-1.35.53c-.88.37-2.21.87-4 1.44l-15.16 5.13a497.72 497.72 0 01-135.28 24.5 506.39 506.39 0 01-92.34-4.25c-62.58-8.32-122.83-29.73-164.49-52-10.64-5.18-19.84-10.94-28.21-15.64-8.24-4.94-15.18-9.63-21-13.3s-10.07-7.08-13.11-9.17l-4.62-3.28z"/><path class="cls-2" d="M238.45 819.54l7.35 16.25 9.33 18.21c1.73 3.56 3.86 7.19 6.07 11l7 12.09c2.36 4.26 5.28 8.41 8 12.86s5.64 9.06 8.89 13.58c6.47 9.08 13.12 18.78 20.81 28.2 7.32 9.71 15.78 19 24.13 28.67l13.3 13.95 3.35 3.51 3.5 3.35 7 6.71a500 500 0 0058.93 48.16l7.36 5.23 7.46 4.81 14.45 9.23 14.07 8.09 6.71 3.85c2.22 1.21 4.45 2.31 6.61 3.43 8.67 4.4 16.52 8.65 23.8 11.74s13.42 6.24 18.72 8.28l16.6 6.54-3.58 9.52-16.92-6.67c-5.4-2.08-11.71-5.18-19.08-8.44s-15.43-7.48-24.28-12c-2.2-1.14-4.47-2.26-6.74-3.49l-6.83-3.92-14.35-8.26-14.73-9.4-7.6-4.9-7.52-5.34a509.9 509.9 0 01-60.07-49.09l-7.17-6.84-3.57-3.43-3.41-3.58-13.56-14.21c-8.51-9.84-17.13-19.33-24.59-29.23-7.85-9.61-14.63-19.49-21.22-28.74-3.31-4.62-6.13-9.39-9.06-13.85s-5.8-8.78-8.21-13.11l-7.06-12.3c-2.25-3.91-4.42-7.62-6.19-11.24l-9.51-18.58-7.5-16.56zM732.92 86.53l-9.44-.24c-3.08 0-6.87-.29-11.33-.15l-15.35.38a520 520 0 00-94.44 11.76c-38.47 8.53-82.73 22.63-126.51 45.44-11.1 5.4-21.81 11.92-32.84 18.19-10.66 6.88-21.63 13.57-32 21.29-5.27 3.74-10.61 7.45-15.66 11.57s-10.31 8-15.35 12.17-9.91 8.59-14.88 12.88-9.58 9-14.38 13.48a525.18 525.18 0 00-93.9 121.94c-11.86 21.6-22.27 43.11-30.27 64.26-4.36 10.44-7.62 20.95-11.07 31-1.82 5-3 10.11-4.48 15s-2.82 9.77-4.08 14.54c-9.62 38.29-13.63 71.08-14.93 94-.22 2.87-.42 5.58-.62 8.14s-.16 4.95-.24 7.18c-.11 4.47-.21 8.26-.28 11.34-.16 6.16-.23 9.44-.23 9.44h-7.75l.23-9.58c.08-3.12.18-7 .29-11.5.09-2.26.08-4.7.25-7.29s.4-5.35.61-8.25c1.33-23.28 5.39-56.56 15.17-95.42 1.27-4.84 2.72-9.74 4.13-14.75s2.71-10.17 4.55-15.25c3.5-10.21 6.81-20.88 11.24-31.47 8.11-21.47 18.67-43.3 30.72-65.22a533.23 533.23 0 0195.28-123.74c4.87-4.55 9.54-9.33 14.59-13.67L375 201c5.12-4.24 10.4-8.25 15.58-12.36s10.55-7.94 15.9-11.75c10.52-7.83 21.69-14.62 32.52-21.59 11.18-6.38 22.06-13 33.32-18.47 44.44-23.15 89.35-37.47 128.39-46.12a527.29 527.29 0 0195.84-11.93l15.57-.39c4.53-.14 8.38.14 11.5.16l9.58.24zM1027.52 180.14l-6.19-4.4c-4-2.8-9.52-6.91-16.58-11.28s-15-9.81-24.14-14.81c-4.51-2.56-9.1-5.32-13.9-7.9L952 134.23c-2.47-1.25-4.91-2.55-7.4-3.74l-7.48-3.4-14.58-6.58c-9.62-3.87-18.62-7.45-26.38-10.37l-19-6.43c-4.57-1.6-7.25-2.29-7.25-2.29l2.11-7s2.73.7 7.36 2.33l19.25 6.51c7.87 3 17 6.59 26.74 10.52l14.78 6.67 7.59 3.44c2.51 1.21 5 2.53 7.49 3.79l14.89 7.64c4.86 2.59 9.52 5.39 14.09 8 9.21 5.08 17.4 10.48 24.47 15s12.8 8.59 16.8 11.42l6.28 4.47zM1178.6 796.49l2.21-5.6c1.43-3.66 3.66-9 5.89-16s5.44-15.3 8-25.19c1.37-4.92 2.93-10.12 4.39-15.66 1.29-5.58 2.65-11.45 4.06-17.57a515.93 515.93 0 0010.9-85.07 498.15 498.15 0 00-29.89-193.35 495.5 495.5 0 00-36.49-77.62q-2.35-4.08-4.6-8c-1.48-2.61-3.17-5-4.68-7.45l-8.78-13.7c-5.89-8.34-11-15.63-15.36-21.52l-10.52-13.39-2.77-3.52c-.61-.8-1-1.19-1-1.19l5.22-4.32s.36.39 1 1.2l2.81 3.58c2.45 3.13 6.06 7.72 10.65 13.56 4.43 6 9.61 13.36 15.57 21.81l8.9 13.89c1.53 2.46 3.24 4.9 4.74 7.56s3.08 5.34 4.67 8.1a498.53 498.53 0 0161.84 175.17 507.41 507.41 0 015.44 99.47 521.09 521.09 0 01-11 86.22c-1.43 6.21-2.8 12.16-4.11 17.81-1.48 5.62-3.06 10.9-4.45 15.88-2.63 10-5.82 18.48-8.14 25.54s-4.52 12.47-6 16.18l-2.24 5.67zM1043.85 1003.57l9-7.78c5.86-4.81 13.59-12.38 23-21.33a530 530 0 0061-72.87 506.24 506.24 0 0046.55-82.85c1.33-3 2.61-5.79 3.83-8.48l3.1-7.81c1.94-4.9 3.62-9.18 5-12.7s2.3-6.36 3-8.27 1-3 1-3l6.4 2.23-1 3c-.68 1.94-1.54 4.83-3 8.37l-5.15 12.92c-1 2.49-2 5.13-3.14 7.91l-3.88 8.6a512.55 512.55 0 01-47.17 84 534.87 534.87 0 01-61.79 73.82c-9.52 9.07-17.35 16.74-23.29 21.61l-9.11 7.89z"/></g><path d="M1747.52 427.35v4.84h-258.19c-108.65 0-219.79-87-281.74-173.2C1093.26 99.84 908.18 4.83 712.48 4.83c-336 0-609.26 273.31-609.26 609.28s273.31 609.29 609.26 609.26c194.54 0 379-94.11 493.43-251.78 62.42-86 174-172.79 282.57-172.79h259v4.84h-259c-106.87 0-217 85.77-278.66 170.76-115.33 158.93-301.24 253.81-497.34 253.81-338.62 0-614.1-275.48-614.1-614.1S373.86 0 712.48 0c197.24 0 383.8 95.76 499 256.16 61.23 85.19 170.88 171.19 277.82 171.19z" fill="#5cffeb"/><path d="M0 742.39V739h179.58c75.57 0 152.87 60.51 196 120.46a425 425 0 00344.37 176.78c233.66 0 423.76-190.1 423.76-423.78s-190.14-423.74-423.8-423.73c-135.32 0-263.62 65.46-343.2 175.13C333.29 423.66 255.69 484 180.17 484H0v-3.37h180.17c74.34 0 150.9-59.66 193.82-118.77 80.22-110.54 209.52-176.54 345.92-176.54C955.43 185.36 1147 377 1147 612.49s-191.6 427.14-427.12 427.14A428.5 428.5 0 01372.8 861.47C330.22 802.21 254 742.39 179.57 742.39z" fill="#ffad5c"/></g></g></svg>