<svg xmlns="http://www.w3.org/2000/svg" viewBox="0 0 282.6 303.52"><defs><style>.cls-1{fill:#0ff}.cls-2{opacity:.35}</style></defs><g id="图层_2" data-name="图层 2"><g id="Layer_1" data-name="Layer 1"><path class="cls-1" d="M68.93 179.55a70.91 70.91 0 0115.22-77.84l1.41 1.41a69 69 0 00-14.78 75.65zM134.35 222.91a70.82 70.82 0 01-50.2-20.79l1.41-1.42a69.09 69.09 0 0075.65 14.79l.78 1.84a70.58 70.58 0 01-27.64 5.58zM184.56 202.12l-1.42-1.42A69 69 0 00107.5 88.33l-.78-1.84a71 71 0 0177.84 115.63z"/><path class="cls-1" d="M134.35 241.24a89.33 89.33 0 1189.33-89.33 89.43 89.43 0 01-89.33 89.33zm0-169.66a80.33 80.33 0 1080.33 80.33 80.43 80.43 0 00-80.33-80.33z"/><path class="cls-1" d="M134.35 276.47a124.56 124.56 0 11124.56-124.56 124.7 124.7 0 01-124.56 124.56zm0-247.12a122.56 122.56 0 10122.56 122.56A122.7 122.7 0 00134.35 29.35z"/><g class="cls-2"><path class="cls-1" d="M134.35 303.52A151.49 151.49 0 014.57 230.33l-.19-.33 4.09-28.63 2 .29-4 27.92a148.64 148.64 0 00127.89 71.92 151.21 151.21 0 0028.93-2.79l23.29-24 1.44 1.39-23.73 24.44-.31.06a152.69 152.69 0 01-29.63 2.92z"/></g><g class="cls-2"><path class="cls-1" d="M268.52 136.31l-1.52-1.24 13.48-17C264.69 49.72 204.68 2 134.35 2a149.81 149.81 0 00-98.29 36.72L23.9 77.1l-1.9-.61 12.32-38.91.22-.18a152 152 0 01248 80.73l.1.47z"/></g><g class="cls-2"><path class="cls-1" d="M134.35 256.79a104.88 104.88 0 11104.89-104.88 105 105 0 01-104.89 104.88zm0-207.76a102.88 102.88 0 10102.89 102.88A103 103 0 00134.35 49z"/></g><g class="cls-2"><path class="cls-1" d="M134.14 254.93v-6h1v6zm-2.07 0h-1l.19-6h1zm5.15 0l-.16-6h1l.23 6zm-8.25-.1l-1-.06.37-6 1 .05zm11.35 0l-.35-6 1-.06.41 6zm-14.44-.17l-1-.09.54-6 1 .09zm17.53-.05l-.53-6 1-.09.58 6zm-20.61-.25l-1-.12.72-6 1 .12zm23.68-.07l-.7-5.95 1-.12.75 5.95zm-26.75-.32l-1-.15.91-5.93.95.14zm29.82-.08l-.88-5.94 1-.15.93 5.93zm-32.87-.4l-1-.18 1.09-5.9 1 .17zm35.92-.1l-1-5.91.95-.17 1.13 5.89zm-39-.48l-1-.21 1.26-5.86 1 .2zm42-.11l-1.22-5.87.94-.21 1.3 5.86zm-45-.55l-1-.24 1.44-5.83.95.23zm48.07-.14l-1.41-5.83.94-.23 1.48 5.82zm-51.07-.62l-1-.27 1.61-5.78.94.26zm54.06-.15l-1.57-5.79.93-.26 1.64 5.77zm-57-.69l-1-.31 1.78-5.73.94.29zm60-.17l-1.76-5.74.93-.29 1.82 5.72zm-63-.78l-1-.33 1.95-5.67.93.31zm65.93-.18l-1.93-5.68.91-.32 2 5.66zm-68.87-.85l-1-.36 2.14-5.61.91.34zm71.79-.19l-2.11-5.62.91-.35 2.16 5.6zm-74.68-.93l-1-.39 2.31-5.54.9.37zm77.56-.2l-2.28-5.55.9-.38 2.33 5.53zm-80.43-1l-.94-.42 2.46-5.47.9.39zm83.27-.22l-2.45-5.47.89-.4 2.5 5.45zM90.14 245l-.94-.46 2.64-5.38.87.42zm88.88-.22l-2.6-5.41.87-.42 2.66 5.37zm-91.67-1.16l-.91-.47 2.79-5.32.87.45zm94.44-.23l-2.79-5.33.86-.45 2.82 5.3zm-97.18-1.23l-.89-.5 2.94-5.23.86.48zm99.9-.23l-2.93-5.24.85-.48 3 5.21zm-102.59-1.32l-.88-.53 3.1-5.13.84.5zm105.26-.24l-3.08-5.15.83-.5 3.13 5.12zM79.28 239l-.87-.56 3.26-5c.27.18.54.36.82.53zm110.53-.24l-3.24-5.06.82-.52 3.28 5zm-113.12-1.47l-.86-.58 3.42-4.94.8.55zm115.7-.25l-3.39-4.95.8-.56 3.43 4.93zm-118.24-1.52l-.84-.61 3.56-4.84.78.58zm120.76-.26l-3.53-4.85.78-.57 3.59 4.81zm-123.25-1.6l-.82-.63 3.7-4.72.78.6zm125.72-.26l-3.67-4.74.76-.6 3.73 4.71zm-128.15-1.66l-.8-.66 3.84-4.61.76.63zm130.57-.27l-3.8-4.62.75-.63 3.85 4.6zm-132.94-1.72l-.78-.69 4-4.49.73.64zm135.3-.28l-3.95-4.47.73-.65 4 4.48zm-137.61-1.79l-.76-.71 4.12-4.36.71.66zm139.91-.28l-4.08-4.4.7-.66 4.13 4.35zm-142.15-1.85l-.74-.73 4.25-4.24.68.68zm144.38-.29l-4.21-4.26.69-.68 4.26 4.23zm-146.56-1.91c-.24-.24-.48-.49-.71-.74l4.36-4.12.67.7zm148.73-.29l-4.33-4.16.66-.7 4.38 4.1c-.23.26-.47.51-.71.76zM58 221.09c-.24-.25-.47-.51-.69-.77l4.48-4 .65.72zm153-.3l-4.46-4 .64-.72 4.51 4zm-155-2l-.66-.79 4.6-3.85c.21.25.41.5.62.74zm157-.33l-4.59-3.86.64-.76 4.61 3.84zm-159-2.07l-.64-.81 4.71-3.71.6.76zm161-.34l-4.69-3.73.6-.77 4.73 3.7zm-162.9-2.11l-.62-.82 4.82-3.57.59.78zm164.77-.34l-4.81-3.6.59-.79 4.83 3.56zm-166.6-2.15l-.59-.84 4.93-3.43.55.8zm168.42-.36l-4.91-3.44.55-.8 4.95 3.4zM48.52 208.9L48 208l5-3.27.54.81zm171.91-.37l-5-3.3.53-.82 5.05 3.26zM46.85 206.3l-.54-.87 5.12-3.13.51.83zm175.25-.38l-5.1-3.15.51-.83 5.14 3.09zm-176.85-2.26l-.51-.89 5.22-3 .48.84zm178.44-.41l-5.2-3 .48-.85 5.23 2.94zM43.74 201l-.49-.9 5.31-2.81.45.86zm181.46-.43l-5.29-2.82.45-.86 5.32 2.78zm-182.89-2.3c-.16-.31-.31-.62-.46-.93l5.39-2.64c.14.29.28.58.43.87zm184.3-.44l-5.36-2.69c.15-.29.29-.58.43-.87l5.4 2.63zM41 195.45l-.43-.93L46 192l.41.89zm187-.45l-5.45-2.52c.14-.3.28-.59.41-.89l5.47 2.47zm-188.3-2.37l-.4-.93 5.53-2.33.38.9zm189.52-.49l-5.52-2.34.37-.9 5.55 2.29zm-190.7-2.35l-.37-1 5.59-2.16.36.91zm191.87-.52l-5.59-2.18c.12-.3.23-.61.35-.91l5.61 2.12c-.12.32-.24.7-.37.97zm-193-2.38l-.34-1 5.66-2 .33.91zm194.05-.54l-5.65-2 .32-.93 5.67 2zM36.42 184l-.32-1 5.72-1.82.3.93zm196.05-.55l-5.71-1.84.29-.93 5.73 1.78zM35.5 181c-.1-.33-.19-.66-.29-1l5.79-1.62c.08.31.17.62.26.93zm197.87-.56l-5.76-1.66c.09-.31.17-.62.26-.93l5.78 1.59c-.09.34-.18.67-.28 1zM34.67 178l-.26-1 5.83-1.45c.07.32.15.63.24.94zm199.51-.57l-5.81-1.43c.08-.31.16-.62.23-.93l5.83 1.41c-.08.3-.16.64-.25.97zM33.93 175c-.07-.34-.15-.67-.22-1l5.86-1.28.21.95zm201-.57l-5.85-1.31c.07-.32.14-.63.2-.95l5.87 1.25c-.1.35-.15.68-.25 1.02zM33.29 172c-.07-.34-.13-.68-.2-1l5.9-1.11.18 1zm202.24-.58l-5.89-1.12.18-1 5.9 1.07zm-202.8-2.47c0-.34-.11-.68-.16-1l5.93-.95.15 1zm203.34-.57l-5.93-1c.06-.32.1-.64.15-1l5.94.9c-.06.4-.11.72-.16 1.08zm-203.8-2.49c0-.34-.09-.68-.13-1l6-.75c0 .32.08.64.13 1zm204.24-.58l-5.95-.77.12-1 6 .72zM31.9 162.79l-.1-1 6-.57.1 1zm205-.57l-6-.6q.06-.48.09-1l6 .52c-.06.39-.09.73-.13 1.08zm-205.28-2.51c0-.34-.05-.69-.07-1l6-.38.07 1zm205.5-.58l-6-.42.06-1 6 .35c-.01.38-.03.73-.06 1.07zm-205.68-2.51v-1l6-.21v1zm205.85-.62l-6-.22v-1l6 .18zm-205.94-2.5v-1h6v1zm206-.59l-6-.05v-1.12h6zm-200-2.42l-6-.08v-1l6 .14zm194-.69v-1l6-.19v1zm-193.92-2.19l-6-.27c0-.34 0-.69.05-1l6 .32zm193.82-.7l-.06-1 6-.37.06 1zM37.6 144.69l-6-.44c0-.34.06-.68.08-1l6 .5c-.03.3-.06.62-.08.94zm193.46-.69l-.09-1 6-.55.09 1zm-193.2-2.22l-6-.62.11-1 6 .68zm192.92-.68l-.11-1 6-.72.12 1zM38.2 138.89l-6-.8.15-1 5.93.86c.01.3-.04.62-.08.94zm192.21-.68l-.14-1 5.94-.9.15 1zM38.63 136l-5.92-1c.06-.34.11-.68.17-1l5.91 1c-.05.37-.11.69-.16 1zm191.37-.67l-.17-1 5.91-1.07.17 1zm-190.85-2.19L33.26 132l.2-1 5.88 1.21zm190.27-.68c-.06-.31-.13-.63-.19-1l5.86-1.26.21 1zm-189.67-2.18L33.9 129l.24-1 5.83 1.4c-.07.25-.15.6-.22.88zm189.05-.67c-.07-.31-.15-.63-.23-.94l5.83-1.44.24 1zm-188.36-2.16l-5.81-1.51.27-1 5.79 1.57c-.08.32-.17.63-.25.94zm187.65-.67c-.08-.31-.17-.62-.26-.93l5.78-1.61c.1.33.19.66.28 1zm-186.87-2.14L35.46 123c.1-.33.19-.66.29-1l5.74 1.74zm186.07-.64c-.09-.31-.18-.62-.28-.92l5.73-1.79.3 1zm-185.21-2.15l-5.7-1.85c.1-.33.21-.66.32-1l5.69 1.91zm184.33-.65l-.31-.92 5.68-2 .33 1zM43 119.08l-5.65-2 .36-1 5.62 2.08zm182.42-.63l-.34-.91 5.61-2.12.36 1zm-181.36-2.11l-5.58-2.2.38-1 5.56 2.26zm180.34-.62l-.36-.89 5.54-2.3.39 1zm-179.23-2.08l-5.51-2.37.42-1 5.48 2.42zm178.1-.6c-.12-.29-.25-.58-.38-.88l5.46-2.46c.15.31.29.63.43 1zM46.37 111l-5.44-2.54.44-.93 5.42 2.59zm175.7-.57l-.42-.87 5.4-2.62.44.92zm-174.43-2.09l-5.35-2.7.47-.92 5.33 2.75zm173.15-.54l-.45-.87 5.32-2.78.47.91zM49 105.75l-5.28-2.86.5-.9 5.25 2.9zm170.42-.52l-.47-.85 5.23-2.94.5.89zm-169-2l-5.19-3c.18-.29.35-.59.53-.89l5.15 3.07zM218 102.7l-.5-.83 5.14-3.1.52.88zm-166-2l-5.1-3.17c.18-.3.37-.59.56-.88l5.05 3.23zm164.53-.48l-.53-.82 5-3.25.55.86zm-163-2l-5-3.33.58-.86 5 3.37zm161.37-.47c-.18-.27-.36-.54-.55-.8l4.94-3.41.59.85zm-159.71-2l-4.89-3.46.6-.85 4.86 3.53zm158.05-.44l-.57-.79 4.83-3.55.61.84zM56.89 93.48l-4.78-3.62.62-.82 4.76 3.67zm154.59-.43l-.59-.77 4.73-3.69.63.81zM58.69 91.18L54 87.42l.65-.8 4.64 3.8zm151-.42c-.2-.26-.4-.5-.61-.75l4.62-3.83.66.8zM60.55 88.93L56 85l.67-.78 4.53 4zm147.25-.41l-.63-.73 4.5-4 .68.78zM62.48 86.74l-4.44-4 .69-.76L63.14 86zm143.39-.39l-.66-.71 4.38-4.11c.23.26.47.51.7.76zm-141.4-1.74l-4.32-4.16.72-.74 4.28 4.2zm139.39-.38l-.68-.69 4.26-4.23.73.74zM66.53 82.54l-4.2-4.29.74-.72 4.15 4.34zm135.27-.37l-.7-.67 4.13-4.35.74.71zM68.64 80.53l-4.06-4.41.76-.69 4 4.45zm131-.35l-.73-.66 4-4.47.76.68zM70.81 78.59l-3.93-4.53.78-.67L71.55 78zm126.68-.35l-.74-.63L200.6 73l.79.67zM73 76.71l-3.79-4.64.8-.65 3.75 4.69zm122.21-.33l-.76-.61 3.72-4.71.8.64zM75.33 74.91l-3.66-4.76.82-.63 3.61 4.8zM193 74.58l-.78-.59 3.58-4.81.82.62zM77.66 73.17l-3.5-4.87.83-.6 3.46 4.9zm112.94-.32l-.8-.56 3.43-4.93.85.6zM80.05 71.5l-3.36-5 .86-.57 3.31 5zm108.14-.31l-.81-.54 3.28-5 .87.57zm-105.7-1.28l-3.22-5.07.88-.55 3.16 5.1zm103.25-.31l-.83-.51 3.14-5.09.87.54zM85 68.38l-3.06-5.16.89-.52 3 5.2zm98.27-.29l-.84-.49 3-5.21.9.52zm-95.78-1.15l-2.9-5.25.9-.5 2.85 5.28zm93.2-.29l-.85-.46 2.81-5.3.92.5zm-90.63-1.08l-2.75-5.34.92-.46 2.69 5.36zm88.05-.28l-.87-.43 2.65-5.38.93.46zm-85.45-1l-2.58-5.42.93-.43 2.53 5.44zm82.82-.29l-.88-.41 2.49-5.45.94.43zm-80.18-.93l-2.41-5.49.94-.41 2.36 5.51zm77.52-.26l-.9-.38 2.32-5.53 1 .4zM98 61.94l-2.25-5.56 1-.38 2.19 5.58zm72.14-.25l-.91-.35 2.15-5.6 1 .38zm-69.42-.8l-2.08-5.63 1-.35 2 5.64zm66.68-.23l-.92-.33 2-5.66 1 .34zm-63.93-.74l-1.91-5.69 1-.33 1.85 5.71zm61.16-.22l-.93-.3 1.81-5.72 1 .32zm-58.4-.7l-1.74-5.74 1-.3 1.68 5.76zm55.59-.2l-.93-.27 1.64-5.77 1 .29zM109 58.23l-1.56-5.79 1-.27L110 58zm50-.18l-.94-.24 1.48-5.81 1 .26zm-47.15-.54l-1.39-5.83 1-.24 1.32 5.85zm44.32-.15l-1-.22 1.29-5.86 1 .23zm-41.48-.48l-1.2-5.88 1-.21 1.14 5.89zm38.63-.13l-1-.19 1.1-5.9 1 .2zm-35.77-.41l-1-5.91 1-.17 1 5.92zm32.9-.12l-1-.15.93-5.93 1 .17zm-30-.34l-.85-5.94 1-.14.79 6zm27.14-.09l-1-.13.75-5.95 1 .13zm-24.24-.28l-.68-6 1-.11.61 6zm21.35-.07l-1-.1.57-6 1 .11zm-18.45-.21l-.49-6 1-.08.43 6zm15.54-.06l-1-.07.39-6 1 .07zM129.15 55l-.31-6h1l.25 6zm9.72 0h-1l.22-6h1zm-6.81-.08l-.14-6h1l.08 6zm3.89 0h-1v-6h1z"/></g><g class="cls-2"><path class="cls-1" d="M271 104.76l-.33-.93 5.66-2 .34 1zm-1-2.76l-.34-.92 5.61-2.08.35 1zm-1-2.74l-.36-.91 5.57-2.22.37.94zm-1.1-2.72l-.37-.9 5.47-2.35.4.94zm-1.15-2.69l-.39-.9 5.47-2.45.41.93zm-1.2-2.67l-.42-.89 5.43-2.56.43.92zm-1.27-2.65l-.43-.87 5.32-2.66c.16.31.31.61.46.92zm-1.31-2.63l-.45-.85 5.32-2.79.47.92zm-1.37-2.58l-.46-.86 5.25-2.89.49.89zm-1.42-2.57l-.48-.84 5.2-3 .5.88zm-1.47-2.54l-.5-.83 5.13-3.1.53.88zm-1.52-2.5l-.52-.83 5.07-3.2.54.86zm-1.58-2.48l-.53-.81 5-3.31.56.86zm-1.63-2.44l-.55-.81 4.95-3.4.57.84zm-1.67-2.41l-.57-.79 4.87-3.51.59.83zM250.54 66l-.58-.78 4.79-3.6.61.82zm-1.77-2.33l-.61-.78 4.73-3.7.62.8zm-1.83-2.32l-.61-.75 4.65-3.8.64.8zm-1.86-2.26l-.63-.75 4.55-3.9.66.79zm-1.91-2.23l-.65-.74 4.5-4 .67.76zm-2-2.2l-.66-.72 4.49-4.07.7.75zm-2-2.14l-.68-.72 4.33-4.15.7.74zm-2.05-2.12l-.69-.69 4.24-4.24.72.72zm-2.08-2.06l-.71-.69 4.16-4.32.73.7zm-2.13-2l-.72-.67 4.07-4.41.74.69zm-2.17-2l-.73-.65 4-4.5.77.69zm-2.2-1.93l-.75-.65 3.89-4.57.76.66zm-2.25-1.91l-.76-.62 3.79-4.65.79.65zm-2.28-1.84l-.78-.61 3.7-4.73.79.63zm-2.33-1.81l-.79-.59 3.61-4.8.81.61zm-2.36-1.75l-.8-.58 3.51-4.87.82.6zM217 33.35l-.8-.55 3.4-4.94.84.58zm-2.43-1.65l-.81-.55 3.3-5 .85.56zm-2.46-1.62l-.82-.52 3.19-5.08.87.55zm-154.19-.81l-3.17-5.09.86-.54 3.15 5.11zm151.67-.74l-.84-.51 3.09-5.14.88.53zm-149.16-.79l-3.07-5.16.87-.52 3 5.18zM207.06 27l-.85-.5 3-5.19.88.51zM63 26.26L60 21l.88-.5 2.94 5.23zm141.54-.7l-.85-.47 2.88-5.27.89.5zm-139-.73l-2.86-5.27.9-.49 2.83 5.29zm136.39-.68l-.87-.45 2.77-5.32.91.48zm-133.79-.7l-2.75-5.33.9-.46L69 23zm131.16-.65l-.87-.43 2.66-5.37.91.46zm-128.55-.67l-2.64-5.38.89-.45 2.61 5.41zm125.91-.63l-.88-.41 2.54-5.44.93.45zM73.4 20.87l-2.53-5.44.92-.43 2.5 5.46zm120.6-.61l-.9-.4 2.45-5.48.93.42zm-117.93-.61l-2.42-5.49.93-.4 2.42 5.5zm115.23-.58l-.91-.38 2.33-5.53.94.4zM78.77 18.5L76.46 13l.94-.39 2.28 5.55zm109.81-.56l-.91-.37 2.21-5.57 1 .38zm-107.09-.55l-2.19-5.58.94-.37L82.4 17zm104.35-.53l-.92-.35 2.1-5.62.95.36zm-101.61-.51l-2.08-5.63 1-.35 2 5.64zm98.84-.51l-.93-.33 2-5.66 1 .34zM87 15.36l-2-5.67 1-.33L87.93 15zm93.29-.49l-.94-.31 1.87-5.7 1 .32zm-90.51-.44l-1.85-5.71 1-.31 1.81 5.72zm87.7-.47l-.94-.29 1.75-5.73 1 .3zm-84.9-.41l-1.73-5.74 1-.3 1.7 5.76zm82.08-.43l-.95-.28 1.63-5.77 1 .28zm-79.26-.39L93.78 7l1-.27 1.58 5.79zm76.42-.41l-1-.25 1.52-5.8 1 .26zM98.23 12l-1.5-5.81 1-.25 1.44 5.82zm70.77-.41l-1-.23 1.39-5.84 1 .24zm-67.88-.32L99.7 5.43l1-.23 1.3 5.85zm65-.35l-1-.21 1.27-5.87 1 .22zm-62.16-.3l-1.26-5.86 1-.21 1.22 5.87zm59.28-.32l-1-.19 1.15-5.89 1 .2zm-56.42-.3l-1.14-5.89 1-.19 1.09 5.9zm53.52-.29l-1-.17 1-5.91 1 .18zm-50.64-.2l-1-5.91 1-.17 1 5.92zm47.74-.26l-1-.15.91-5.93 1 .16zm-44.84-.2l-.9-5.94 1-.15.85 5.94zm41.93-.23l-1-.13.79-5.95 1 .14zm-39-.18l-.78-6 1-.13.73 6zm36.12-.2l-1-.11.66-6 1 .12zm-33.21-.15l-.65-6 1-.1.61 6zm30.29-.17l-1-.09.55-6 1 .1zM121.33 8l-.54-6 1-.08.49 6zm24.44-.14l-1-.07.43-6 1 .07zm-21.52-.09l-.41-6 1-.07.37 6zm18.58-.11h-1l.31-6h1zm-15.65-.07l-.29-6h1l.26 6zm12.72-.07h-1l.19-6h1zm-9.79 0l-.18-6h1l.13 6zm6.85 0h-1l.07-6h1zm-3.92 0v-6h1v6z"/></g><g class="cls-2"><path class="cls-1" d="M122.56 302l-1-.08.49-6 1 .08zm-3-.27l-1-.1.64-6 1 .1zm-3-.33l-1-.12.76-5.95 1 .11zm-3-.39l-1-.14.86-5.94 1 .14zm-3-.45l-1-.17 1-5.91 1 .15zm-3-.52l-1-.18 1.09-5.9 1 .18zm-3-.57l-1-.21 1.21-5.87 1 .2zm-3-.64l-1-.22 1.34-5.85 1 .21zm-3-.7l-1-.25 1.35-5.88.94.23zm-3-.76l-1-.26 1.58-5.79 1 .25zm-2.95-.82l-1-.28 1.69-5.76 1 .28zm-2.92-.88l-1-.3 1.83-5.72.93.29zm-2.91-.94l-1-.32 1.94-5.68.93.31zm-2.9-1l-1-.34 2-5.64.93.34zm-2.86-1.05l-1-.37 2.17-5.59.91.35zm-2.85-1.12l-.93-.38 2.27-5.55.91.37zm-2.82-1.17l-.93-.4 2.39-5.51.9.39zm-2.79-1.23l-.94-.43 2.38-5.48.88.4zm-2.78-1.29l-.91-.44 2.61-5.4.89.43zm-2.74-1.35L66 286l2.71-5.35.88.45zm-2.72-1.39l-.89-.48 2.83-5.29.87.46zm-2.68-1.46l-.89-.49 2.94-5.23.86.48zm-2.66-1.51l-.87-.51 3-5.17.85.5zm-2.62-1.56l-.96-.6 3.14-5.12.84.52zm-2.7-1.6l-.85-.55 3.25-5 .83.53zm-2.55-1.66l-.85-.57 3.36-5 .81.54zm-2.53-1.72l-.83-.58 3.45-4.91.8.56zm-2.49-1.77l-.82-.6 3.55-4.83.79.57z"/></g><g class="cls-2"><path class="cls-1" d="M133.06 276.92h-1l.3-20h.92zm41.8-6.74l-6.47-18.93.84-.28 6.65 18.86zm-84.48-1.24l-1-.39 7.22-18.65.82.32zm122.47-19.73l-12.53-15.59.66-.53 12.72 15.43zM53 246.84l-.79-.68 13.1-15.11.69.59zm188.35-30.35l-17.12-10.35.45-.75 17.22 10.17zm-215.9-3.17l-.51-.91 17.49-9.71.44.8zM257 176l-19.62-3.88.16-.87 19.7 3.75c-.07.31-.13.66-.24 1zm-246-3.57l-.18-1.11 19.75-3.11.13.81zm227-36.74l-.16-1 19.7-3.41.22 1.31zm-207-3.06L11.45 129l.2-1 19.63 3.82zM226.23 101l-.44-.79 17.42-9.82.52.92zM44 98.51L26.73 88.35l.54-.92 17.14 10.32zM203.27 72.7l-.66-.57 13-15.21.82.71zM67.66 70.8L54.93 55.37l.83-.68 12.58 15.55zM172 53.89l-.84-.32 7.05-18.71 1 .37zm-72.64-1L92.74 34l1-.36 6.46 18.93zm36.88-6h-.9l.18-20h1z"/></g><path class="cls-1" d="M247.35 79.2a133.68 133.68 0 0121.36 72.71h-10a123.69 123.69 0 00-19.77-67.28zM46.6 253.65a134.35 134.35 0 0187.75-236.09h1.58l-.12 10h-1.46a124.33 124.33 0 00-81.21 218.5zM248.24 223.22a134.26 134.26 0 01-113.89 63v-10a124.25 124.25 0 00105.4-58.33z"/></g></g></svg>