<svg xmlns="http://www.w3.org/2000/svg" viewBox="0 0 438.73 60.5"><defs><style>.cls-1{fill:#96d0ff}</style></defs><g id="图层_2" data-name="图层 2"><g id="Layer_8" data-name="Layer 8"><path class="cls-1" d="M20.91 19.49H16.1L0 35.59v19.86h6.19V41.78l14.72-14.73v-7.56z"/><path class="cls-1" d="M22.68 25.28l7.2-7.2-1.8-1.79H16.09l-2.02 2.02h8.61v6.97zM64.57 23.16l4.98-4.97V0h-6.7l-4.98 4.98h6.7v18.18z"/><path class="cls-1" d="M63.3 19.49V6.42H44.05L8.09 42.37v13.08l35.96-35.96H63.3zM428.96 12.06L410.7 30.32v6.64l18.26-18.26h9.77v-6.64h-9.77z"/><path class="cls-1" d="M401.46 49.48h-20.82l-5.35 5.35 3.41 3.4h22.76l23.26-23.25-4.38-4.38-18.88 18.88z"/><path class="cls-1" d="M378.14 49.48h-10.18v2.54l8.48 8.48h2.86l-6.09-6.09 4.93-4.93zM52.48 21.36h-7.03L32.59 34.22l4.73 4.73h7.04l-4.74-4.73 12.86-12.86z"/><path class="cls-1" d="M409.25 38.46H64.39L50.78 24.85l-9.24 9.25 13.61 13.61h344.86l9.24-9.25z"/></g></g></svg>