<svg xmlns="http://www.w3.org/2000/svg" xmlns:xlink="http://www.w3.org/1999/xlink" viewBox="0 0 94 94"><defs><linearGradient id="linear-gradient" x1="-48.6" y1="-38.29" x2="-74.1" y2="-42.29" gradientTransform="rotate(-113.39 21.369 -28.14)" gradientUnits="userSpaceOnUse"><stop offset="0"/><stop offset=".1" stop-color="#000e14"/><stop offset=".3" stop-color="#003349"/><stop offset=".59" stop-color="#006d9e"/><stop offset=".89" stop-color="#00b0ff"/></linearGradient><linearGradient id="linear-gradient-2" x1="-92.67" y1="113.56" x2="-118.17" y2="109.56" gradientTransform="rotate(66.61 25.973 196.495)" xlink:href="#linear-gradient"/><style>.cls-1,.cls-2{fill:none;stroke:#00b0ff;stroke-miterlimit:10}.cls-1{stroke-width:2px}.cls-2{stroke-dasharray:2 2 2}.cls-5,.cls-6{fill:#00b0ff}.cls-5{opacity:.2}.cls-6{opacity:.7}</style></defs><g id="图层_2" data-name="图层 2"><g id="Layer_1" data-name="Layer 1"><path class="cls-1" d="M31.54 10.68a40 40 0 11-20.84 52.6 40 40 0 0120.84-52.6z"/><path class="cls-2" d="M79.54 33.5a35 35 0 11-46-18.23 35 35 0 0146 18.23z"/><path class="cls-1" d="M75 35.49a30 30 0 11-39.49-15.63A30 30 0 0175 35.49z"/><path class="cls-2" d="M70.36 37.47a25 25 0 11-32.87-13 25 25 0 0132.87 13z"/><path class="cls-1" d="M65.77 39.46A20 20 0 1139.47 29a20 20 0 0126.3 10.46z"/><path class="cls-2" d="M61.18 41.44a15 15 0 11-19.72-7.81 15 15 0 0119.72 7.81z"/><path d="M52.25 59.06a12.62 12.62 0 01-10-23.17l1.19 2.75a9.62 9.62 0 107.62 17.66z" fill="url(#linear-gradient)"/><path d="M42.58 35.74a12.62 12.62 0 0110 23.17l-1.19-2.76a9.62 9.62 0 00-7.64-17.66z" fill="url(#linear-gradient-2)"/><path class="cls-5" d="M53.32 44.84a6.43 6.43 0 11-8.46-3.35 6.45 6.45 0 018.46 3.35z"/><path class="cls-5" d="M45.26 42.41a5.44 5.44 0 11-2.84 7.15 5.43 5.43 0 012.84-7.15z"/><path class="cls-5" d="M45.65 43.33a4.43 4.43 0 11-2.31 5.83 4.45 4.45 0 012.31-5.83z"/><path class="cls-5" d="M46.05 44.25a3.43 3.43 0 11-1.79 4.51 3.43 3.43 0 011.79-4.51z"/><path class="cls-5" d="M46.45 45.16a2.43 2.43 0 11-1.27 3.21 2.44 2.44 0 011.27-3.21z"/><path class="cls-5" d="M46.84 46.08A1.44 1.44 0 1146.1 48a1.44 1.44 0 01.74-1.92z"/><path class="cls-5" d="M47.24 47a.42.42 0 01.57.23.43.43 0 01-.22.57.45.45 0 01-.58-.23.44.44 0 01.23-.57z"/><path class="cls-6" d="M47 0h1v94h-1z"/><path class="cls-6" d="M0 47h94v1H0z"/></g></g></svg>