<svg xmlns="http://www.w3.org/2000/svg" viewBox="0 0 90.31 86.68"><defs><style>.cls-1{fill:#fff}</style></defs><g id="图层_2" data-name="图层 2"><g id="Elements"><path class="cls-1" d="M45.19 86.68a43.28 43.28 0 1118.36-4.14 43.16 43.16 0 01-18.36 4.14zm-.06-85.41a42.19 42.19 0 00-14.25 81.89A42.18 42.18 0 0083.32 25.5 42.27 42.27 0 0045.13 1.27z"/><path class="cls-1" d="M45.18 72.15a28.71 28.71 0 01-27-38.38 28.63 28.63 0 1127 38.38zm-26-38a27.66 27.66 0 1035.34-16.7 27.7 27.7 0 00-35.39 16.66z"/><path class="cls-1" d="M19.75 80.8A45.15 45.15 0 0133 0l1.35 4.81a40.16 40.16 0 00-11.79 71.85zM90.23 46.12l-5-.3A40.1 40.1 0 0077 19l4-3.05a45.21 45.21 0 019.31 30.21zM60.79 85.83l-1.73-4.69a40.18 40.18 0 0023.78-23.8l4.69 1.72a45.16 45.16 0 01-26.74 26.77zM44.66 7.21h1v3.02h-1z"/><path class="cls-1" transform="rotate(-59.99 15.055 26.094)" d="M14.56 24.59h1v3.02h-1z"/><path class="cls-1" transform="rotate(-75.01 11.582 34.48)" d="M11.09 32.97h1v3.02h-1z"/><path class="cls-1" d="M8.89 42.97h3.02v1H8.89z"/><path class="cls-1" transform="rotate(-15.05 11.591 52.482)" d="M10.08 51.97h3.02v1h-3.02z"/><path class="cls-1" transform="rotate(-29.99 15.07 60.854)" d="M13.55 60.35h3.02v1h-3.02z"/><path class="cls-1" d="M44.66 76.72h1v3.02h-1z"/><path class="cls-1" transform="rotate(-59.99 75.265 60.849)" d="M74.76 59.34h1v3.02h-1z"/><path class="cls-1" transform="rotate(-75 78.725 52.467)" d="M78.23 50.96h1v3.02h-1z"/><path class="cls-1" d="M78.4 42.97h3.02v1H78.4z"/><path class="cls-1" transform="rotate(-14.95 78.701 34.476)" d="M77.22 33.98h3.02v1h-3.02z"/><path class="cls-1" transform="rotate(-29.99 75.273 26.104)" d="M73.75 25.6h3.02v1h-3.02z"/></g></g></svg>