<svg xmlns="http://www.w3.org/2000/svg" viewBox="0 0 38.04 38.04"><defs><style>.cls-1{fill:#00b3ea}.cls-2{fill:#08ade5}.cls-4{fill:#feb113}</style></defs><g id="图层_2" data-name="图层 2"><g id="Layer_1" data-name="Layer 1"><path class="cls-1" d="M6.81 18.8h.15v.44h-.15zM7.13 18.8h.15v.44h-.15zM7.46 18.8h.15v.44h-.15zM7.78 18.8h.15v.44h-.15zM8.11 18.8h.15v.44h-.15zM8.44 18.8h.15v.44h-.15zM8.76 18.8h.15v.44h-.15zM9.09 18.8h.15v.44h-.15zM9.41 18.8h.15v.44h-.15zM9.74 18.8h.15v.44h-.15zM10.06 18.8h.15v.44h-.15zM10.39 18.8h.15v.44h-.15zM10.72 18.8h.15v.44h-.15zM11.04 18.8h.15v.44h-.15zM11.37 18.8h.15v.44h-.15zM11.69 18.8h.15v.44h-.15zM12.02 18.8h.15v.44h-.15zM12.34 18.8h.15v.44h-.15zM12.67 18.8h.15v.44h-.15zM13 18.8h.15v.44H13zM13.32 18.8h.15v.44h-.15zM13.65 18.8h.15v.44h-.15zM13.97 18.8h.15v.44h-.15zM14.3 18.8h.15v.44h-.15zM14.62 18.8h.15v.44h-.15zM14.95 18.8h.15v.44h-.15zM15.28 18.8h.15v.44h-.15zM15.6 18.8h.15v.44h-.15zM15.93 18.8h.15v.44h-.15zM16.25 18.8h.15v.44h-.15zM16.58 18.8h.15v.44h-.15zM21.18 18.8h.15v.44h-.15zM21.51 18.8h.15v.44h-.15zM21.83 18.8h.15v.44h-.15zM22.16 18.8h.15v.44h-.15zM22.48 18.8h.15v.44h-.15zM22.81 18.8h.15v.44h-.15zM23.13 18.8h.15v.44h-.15zM23.46 18.8h.15v.44h-.15zM23.79 18.8h.15v.44h-.15zM24.11 18.8h.15v.44h-.15zM24.44 18.8h.15v.44h-.15zM24.76 18.8h.15v.44h-.15zM25.09 18.8h.15v.44h-.15zM25.41 18.8h.15v.44h-.15zM25.74 18.8h.15v.44h-.15zM26.07 18.8h.15v.44h-.15zM26.39 18.8h.15v.44h-.15zM26.72 18.8h.15v.44h-.15zM27.04 18.8h.15v.44h-.15zM27.37 18.8h.15v.44h-.15zM27.69 18.8h.15v.44h-.15zM28.02 18.8h.15v.44h-.15zM28.35 18.8h.15v.44h-.15zM28.67 18.8h.15v.44h-.15zM29 18.8h.15v.44H29zM29.32 18.8h.15v.44h-.15zM29.65 18.8h.15v.44h-.15zM29.97 18.8h.15v.44h-.15zM30.3 18.8h.15v.44h-.15zM30.63 18.8h.15v.44h-.15zM30.95 18.8h.15v.44h-.15zM18.86 31.02h.44v.15h-.44zM18.86 30.69h.44v.15h-.44zM18.86 30.37h.44v.15h-.44zM18.86 30.04h.44v.15h-.44zM18.86 29.72h.44v.15h-.44zM18.86 29.39h.44v.15h-.44zM18.86 29.06h.44v.15h-.44zM18.86 28.74h.44v.15h-.44zM18.86 28.41h.44v.15h-.44zM18.86 28.09h.44v.15h-.44zM18.86 27.76h.44v.15h-.44zM18.86 27.44h.44v.15h-.44zM18.86 27.11h.44v.15h-.44zM18.86 26.78h.44v.15h-.44zM18.86 26.46h.44v.15h-.44zM18.86 26.13h.44v.15h-.44zM18.86 25.81h.44v.15h-.44zM18.86 25.48h.44v.15h-.44zM18.86 25.16h.44v.15h-.44zM18.86 24.83h.44v.15h-.44zM18.86 24.5h.44v.15h-.44zM18.86 24.18h.44v.15h-.44zM18.86 23.85h.44V24h-.44zM18.86 23.53h.44v.15h-.44zM18.86 23.2h.44v.15h-.44zM18.86 22.88h.44v.15h-.44zM18.86 22.55h.44v.15h-.44zM18.86 22.22h.44v.15h-.44zM18.86 21.9h.44v.15h-.44zM18.86 21.57h.44v.15h-.44zM18.86 21.25h.44v.15h-.44zM18.86 16.65h.44v.15h-.44zM18.86 16.32h.44v.15h-.44zM18.86 15.99h.44v.15h-.44zM18.86 15.67h.44v.15h-.44zM18.86 15.34h.44v.15h-.44zM18.86 15.02h.44v.15h-.44zM18.86 14.69h.44v.15h-.44zM18.86 14.37h.44v.15h-.44zM18.86 14.04h.44v.15h-.44zM18.86 13.71h.44v.15h-.44zM18.86 13.39h.44v.15h-.44zM18.86 13.06h.44v.15h-.44zM18.86 12.74h.44v.15h-.44zM18.86 12.41h.44v.15h-.44zM18.86 12.09h.44v.15h-.44zM18.86 11.76h.44v.15h-.44zM18.86 11.43h.44v.15h-.44zM18.86 11.11h.44v.15h-.44zM18.86 10.78h.44v.15h-.44zM18.86 10.46h.44v.15h-.44zM18.86 10.13h.44v.15h-.44zM18.86 9.81h.44v.15h-.44zM18.86 9.48h.44v.15h-.44zM18.86 9.15h.44v.15h-.44zM18.86 8.83h.44v.15h-.44zM18.86 8.5h.44v.15h-.44zM18.86 8.18h.44v.15h-.44zM18.86 7.85h.44V8h-.44zM18.86 7.53h.44v.15h-.44zM18.86 7.2h.44v.15h-.44zM18.86 6.87h.44v.15h-.44z"/><path class="cls-2" d="M8.31 12l.54-.13.55-.1.63-.08h1.62v-.76a2.72 2.72 0 010-.28v-.62c0-.21 0-.42.08-.62s.06-.39.1-.55c.17-.34.17-.56.17-.56l.27-.17a3.54 3.54 0 01.31-.19c.13-.06.26-.15.42-.23a12.56 12.56 0 012.35-1 12.79 12.79 0 012.5-.48h2.31a12.79 12.79 0 012.5.48 12.56 12.56 0 012.35 1l.41.23.32.19.26.17s.06.22.12.55c0 .16.07.35.1.55s.06.41.08.62 0 .43 0 .62v.28a2.17 2.17 0 010 .26v.5h1.62l.63.08.55.1.54.13.17.26c.06.09.12.2.19.32l.23.41a13 13 0 011.44 4.85V20.14A13 13 0 0130.33 25l-.23.41a3.54 3.54 0 01-.19.31l-.17.27-.54.13-.55.1-.63.07h-1.66v.51a2 2 0 010 .25v.9c0 .21 0 .43-.08.63s-.07.39-.1.55c-.06.33-.12.55-.12.55l-.27.17-.32.18c-.12.07-.25.16-.41.24a12.56 12.56 0 01-2.35 1 12.79 12.79 0 01-2.5.48h-2.34a12.79 12.79 0 01-2.5-.48 12.56 12.56 0 01-2.35-1c-.16-.08-.29-.17-.42-.24l-.31-.18-.29-.11s-.06-.22-.12-.55c0-.16-.07-.35-.1-.55s-.06-.42-.08-.63 0-.42 0-.62a2.62 2.62 0 010-.28v-.25-.51H10.04l-.63-.07-.55-.1-.55-.18-.18-.27-.13-.29c-.07-.12-.16-.26-.23-.41a12.65 12.65 0 01-1-2.36 12.79 12.79 0 01-.48-2.5v-.47-.7h-.4v1.18a13.49 13.49 0 00.49 2.57 12.9 12.9 0 001 2.41c.08.16.17.3.24.43s.13.23.19.32l.19.29.24.07.24.05.47.1c.28 0 .66.1 1 .14s.74 0 1 0h.44V28.24c0 .21.05.43.09.64s.07.39.11.55a4.25 4.25 0 00.13.55l.27.18.33.19c.12.07.26.16.42.24a13.19 13.19 0 002.41 1 13.63 13.63 0 002.57.49h2.37a13.13 13.13 0 005-1.48c.16-.08.29-.17.42-.24a2.7 2.7 0 00.32-.19l.28-.18.06-.24.06-.24s0-.19.09-.47.11-.66.14-1a9.41 9.41 0 000-1v-.44h1.69l.63-.08.56-.11c.33-.07.55-.14.55-.14l.17-.27.2-.32c.07-.13.15-.27.23-.43a12.26 12.26 0 001-2.41 12.75 12.75 0 00.49-2.57v-.48-.38-.32-.33-.37-.49a12.79 12.79 0 00-.49-2.56 12.26 12.26 0 00-1-2.41c-.08-.16-.16-.3-.24-.43s-.13-.23-.19-.32l-.06-.35-.24-.06h-.24l-.47-.1c-.29 0-.66-.1-1-.14a9.23 9.23 0 00-1 0h-.45v-1.06c0-.19 0-.41-.05-.62l-.09-.64c0-.2-.08-.39-.11-.56-.07-.33-.13-.55-.13-.55l-.28-.17a2.7 2.7 0 00-.32-.19c-.13-.07-.26-.16-.42-.24a13.13 13.13 0 00-5-1.48h-2.37a13.63 13.63 0 00-2.57.49 13.19 13.19 0 00-2.41 1c-.16.08-.3.17-.42.24l-.33.19-.26.06-.07.24v.24l-.1.48c0 .28-.1.65-.13 1s-.05.73-.05 1v.45h-1l-.63.05-.64.09-.55.11c-.34.07-.55.13-.55.13l-.18.28c-.06.09-.12.2-.19.32s-.16.27-.24.43a12.9 12.9 0 00-1 2.41 13.54 13.54 0 00-.49 2.56V19h.33v-.3-.84A12.77 12.77 0 017.72 13c.07-.15.16-.29.23-.41l.18-.32c.11-.16.18-.27.18-.27z"/><path class="cls-2" d="M17.52 18.7h-.05l-.06.05a.18.18 0 00-.07.05l-.07.06a.28.28 0 00-.06.06l.06.06s0 .05.07.06l.07.06h.11v.06a1.46 1.46 0 00.11.28 1.35 1.35 0 00.18.25l.25.17a1.46 1.46 0 00.28.11h.14v.07l.06.07.06.07.06.06a.28.28 0 00.06-.06l.06-.07.05-.07.05-.07h.13a1.46 1.46 0 00.28-.11l.71.34h.05a1.35 1.35 0 00.17-.25 2.93 2.93 0 00.12-.28v-.06h.11l.07-.06.07-.06v-.12l-.07-.06-.07-.05-.06-.05h-.05a.11.11 0 000-.05v-.05a2.93 2.93 0 00-.12-.28 1.35 1.35 0 00-.02-.83v-.05h-.05a1.35 1.35 0 00-.25-.17l-.28-.12h-.13l-.05-.07-.05-.07-.06-.07-.33-.31-.06.05-.06.07-.06.07v.07h-.14l-.28.12a2.71 2.71 0 00-.25.17 1.35 1.35 0 01.25-.17 1.18 1.18 0 01.27-.11h.13v-.11l.05-.06.1-.11h.11l.05.07.06.07v.11h.13a1.4 1.4 0 01.27.11 1.66 1.66 0 01.24.17h.05a1.66 1.66 0 01.17.24 1.71 1.71 0 01.11.27v.13h.06l.06.05.11.1.05.05a.28.28 0 00-.06.06l-.07.06h-.07l-.06.05h-.05v.05A1.46 1.46 0 0120 19a1.66 1.66 0 01-.17.24h-.05l-.24.17a1.4 1.4 0 01-.27.11h-.13v.11a.55.55 0 01-.1.11l-.05.05.01 1.01-.06-.07-.05-.07a.25.25 0 010-.07h-.13a1.18 1.18 0 01-.27-.11l-.25-.17a1.66 1.66 0 01-.16-.24 2.93 2.93 0 01-.12-.28v-.39h-.16l-.11-.1v-.05a.28.28 0 01.06-.06l.07-.06.07-.06h.07v-.06c0-.07.07-.17.12-.27a1.66 1.66 0 01.16-.24v.05a1.35 1.35 0 00-.18.25 1.46 1.46 0 00-.11.28v.05a.43.43 0 010 .05z"/><path d="M4.67 26.77a.28.28 0 000 .06l.11.18c0 .08.1.17.16.29l.11.18.13.21c.09.14.19.31.31.48l.41.57.49.64.61.69c.22.23.45.48.71.72l.4.37.43.38a18.37 18.37 0 002 1.46 16.28 16.28 0 009.07 2.31h.9c.3 0 .6-.07.91-.11s.6-.1.91-.17l.46-.1h.23l.23-.07a15.86 15.86 0 003.6-1.47 16.35 16.35 0 007.71-9.56l.15-.53c.05-.17.09-.35.13-.53.09-.35.14-.71.21-1.07a16.91 16.91 0 00-.21-6.7l-.15-.53c0-.18-.1-.36-.16-.53l-.18-.53-.2-.51-.1-.26-.12-.25c-.07-.17-.15-.34-.23-.5-.17-.33-.32-.66-.51-1a17 17 0 00-2.66-3.47 16.33 16.33 0 00-15.2-4.33 15.52 15.52 0 00-3.47 1.24A16.29 16.29 0 005 10.72 16.1 16.1 0 003.87 13a18.23 18.23 0 00-.66 2c0 .16-.07.31-.1.46s-.07.29-.1.44 0 .28-.07.41 0 .26-.06.38-.06.48-.09.69 0 .41 0 .58v1.06H1.46v-.29-.59a2.46 2.46 0 010-.26l.05-.62c0-.23.05-.48.09-.74s0-.28.06-.42.05-.29.08-.44.06-.31.1-.47L2 14.7a15.37 15.37 0 01.71-2.19 17.53 17.53 0 0112.34-10.6 17.55 17.55 0 0119.23 8.4c.2.34.37.7.55 1 .09.18.17.36.25.54l.12.27.11.28.22.55.19.57c.07.18.12.38.18.57s.11.38.15.57a17.91 17.91 0 01.53 4.72 18.48 18.48 0 01-.21 2.35c-.07.39-.13.78-.23 1.16 0 .19-.08.38-.13.57l-.16.57a17.69 17.69 0 01-4.78 7.72A17.56 17.56 0 0123.66 36l-.25.07-.25.06-.49.11-1 .18c-.33 0-.65.09-1 .12h-.96A17.58 17.58 0 0110 34.08a18.09 18.09 0 01-2.2-1.58l-.47-.4-.43-.4c-.28-.26-.53-.53-.77-.78l-.65-.75-.53-.68-.44-.61-.33-.52-.18-.23-.11-.19-.18-.31a2 2 0 00-.11-.19v-.07z" fill="#065977"/><path class="cls-2" d="M.62 19V19.92a2.28 2.28 0 010 .27v.65c0 .24.06.5.1.78s0 .29.07.44.05.3.08.46.07.32.1.49l.12.52a19.57 19.57 0 00.75 2.29 17.66 17.66 0 001.26 2.55 18.47 18.47 0 007.75 7.16 17.49 17.49 0 003.92 1.39A18.4 18.4 0 0032 32.06a18.83 18.83 0 003-3.92c.22-.35.4-.73.59-1.1.09-.18.17-.38.26-.56l.12-.29.12-.29.23-.58.2-.59c.07-.2.12-.4.18-.6s.12-.4.16-.6a18.32 18.32 0 00.55-4.94 20.07 20.07 0 00-.21-2.46c-.08-.41-.14-.82-.24-1.22-.05-.2-.09-.4-.15-.6l-.16-.59a18.46 18.46 0 00-5-8.09A18.66 18.66 0 0028 2.93a18 18 0 00-4.07-1.66l-.26-.07-.26-.06-.57-.14c-.34-.08-.69-.13-1-.19s-.69-.1-1-.13h-1.01A18.37 18.37 0 009.54 3.25a19.9 19.9 0 00-2.31 1.64l-.49.43c-.16.13-.3.28-.45.42s-.55.55-.8.82-.47.53-.68.77-.39.49-.56.72l-.46.64c-.13.2-.25.38-.35.55l-.15.23-.12.21C3.1 9.81 3 9.91 3 10s-.08.16-.11.2a.28.28 0 000 .07l-.6-.27v-.07l.12-.2.19-.34.13-.21.15-.24.37-.57.47-.66.58-.74.7-.84c.26-.27.53-.56.83-.84s.3-.3.47-.44l.5-.43a20.45 20.45 0 012.42-1.71A18.84 18.84 0 0115.79.28a19.4 19.4 0 014-.27h1.05l1.06.2c.36.07.71.12 1.07.2l.54.12.26.06.23.08a18.71 18.71 0 014.21 1.71 19.31 19.31 0 013.82 2.8 19.07 19.07 0 015.17 8.36l.18.61c0 .21.09.42.14.62.11.42.17.84.25 1.26a19.15 19.15 0 01-.34 7.65c0 .21-.12.42-.17.63s-.12.41-.19.61l-.21.61-.24.6-.11.3-.14.3c-.09.19-.17.39-.27.58-.19.39-.38.77-.6 1.14a19 19 0 01-11.62 9 19.05 19.05 0 01-13.26-1.29A20.24 20.24 0 017.26 34a19.24 19.24 0 01-4.61-5.3 17.19 17.19 0 01-1.29-2.63 19.18 19.18 0 01-.78-2.37l-.12-.54c0-.17-.08-.34-.11-.5s-.06-.33-.08-.48-.06-.31-.08-.45-.07-.56-.1-.81 0-.47 0-.67A2.46 2.46 0 000 20v-1z"/><path class="cls-4" d="M17.94 4.4h-.61a13.53 13.53 0 00-1.59.28 14.36 14.36 0 00-4.49 1.85 15.16 15.16 0 00-2.08 1.63 14.59 14.59 0 00-1.56 1.66l-.3.37-.25.35-.22.31-.17.27c-.11.17-.19.29-.24.39l-.08.13-1-.57.09-.15.25-.41.19-.29.24-.33c.08-.12.17-.25.27-.38l.32-.41a15.86 15.86 0 011.7-1.78 16.26 16.26 0 012.24-1.7 15.76 15.76 0 014.84-2 16.44 16.44 0 011.71-.29l.49-.05h.17zM31 10.57l-.09-.13-.27-.36-.2-.25-.12-.15-.13-.15-.28-.32c-.1-.12-.21-.23-.33-.35a13.84 13.84 0 00-1.7-1.52A14.64 14.64 0 0025.69 6a14.45 14.45 0 00-2.42-1 13.54 13.54 0 00-2.22-.48l-.48-.07H18.83V3.32H20.7l.51.06a16.23 16.23 0 012.4.53A15.39 15.39 0 0126.2 5a15.64 15.64 0 014.21 3.12l.35.38.31.35a1.07 1.07 0 00.14.16l.12.16.21.27c.13.16.23.3.29.39l.1.14zM32.44 25s.09-.2.23-.56q.06-.13.12-.3t.12-.36c0-.13.09-.26.14-.41s.08-.3.13-.46a13.79 13.79 0 00.42-2.24 15 15 0 000-2.61 13.94 13.94 0 00-.4-2.57 16 16 0 00-.73-2.16c-.27-.61-.52-1.1-.71-1.44l-.22-.39-.09-.14 1-.59a1.1 1.1 0 01.09.14l.25.42c.21.37.48.9.77 1.56a17.5 17.5 0 01.77 2.32 15.37 15.37 0 01.44 2.78 16.14 16.14 0 01-.51 5.22c-.05.17-.1.33-.14.49s-.1.3-.15.44-.09.27-.13.39-.09.22-.13.32-.13.35-.18.45l-.07.16zM20.84 33.57H21l.44-.07a12.07 12.07 0 001.56-.37 14.6 14.6 0 004.4-2.08 15.05 15.05 0 002-1.68 14.29 14.29 0 001.47-1.73l.28-.39.24-.36.2-.32.16-.28c.1-.17.17-.3.22-.4l.07-.14 1 .52-.08.15a4.34 4.34 0 01-.24.43l-.17.3c-.06.11-.14.22-.22.35l-.25.39q-.15.2-.3.42a17.63 17.63 0 01-1.59 1.86A16.58 16.58 0 0128.06 32a15.75 15.75 0 01-4.74 2.24 15 15 0 01-1.69.38l-.48.07h-.17zM7.48 28.06l.09.12a1 1 0 01.12.15l.17.2c.13.14.28.33.47.52l.3.31.37.34a15 15 0 001.78 1.43A14.61 14.61 0 0013 32.4a15.28 15.28 0 002.46.85 13.82 13.82 0 002.25.37H20v1.16h-2.37a15 15 0 01-2.42-.4 15.45 15.45 0 01-2.65-.92 15.2 15.2 0 01-2.45-1.37 14.67 14.67 0 01-1.91-1.57 6.37 6.37 0 01-.37-.36l-.32-.33c-.21-.21-.37-.41-.51-.57l-.18-.21-.13-.16-.1-.14z"/></g></g></svg>